<svg viewBox="0 0 15 15" xmlns="http://www.w3.org/2000/svg"><path fill-rule="evenodd" d="M0 7.5C0 3.35 3.35 0 7.5 0 11.64 0 15 3.35 15 7.5v1c0 .49-.15.95-.4 1.34 -.45.69-1.23 1.15-2.11 1.15 -.98 0-1.82-.56-2.23-1.37 -.65.82-1.65 1.36-2.78 1.36 -1.94 0-3.5-1.57-3.5-3.5 0-1.94 1.56-3.5 3.5-3.5 1.93 0 3.5 1.56 3.5 3.5v1c0 .82.67 1.5 1.5 1.5 .53 0 .99-.28 1.26-.7 .14-.24.23-.51.23-.81v-1c0-3.59-2.92-6.5-6.5-6.5 -3.59 0-6.5 2.91-6.5 6.5 0 3.58 2.91 6.5 6.5 6.5 1.38 0 2.66-.44 3.71-1.17l.57.82c-1.22.84-2.7 1.34-4.286 1.34 -4.15 0-7.5-3.36-7.5-7.5Zm10 0C10 6.11 8.88 5 7.5 5 6.11 5 5 6.11 5 7.5 5 8.88 6.11 10 7.5 10 8.88 10 10 8.88 10 7.5Z"/></svg>