<svg viewBox="0 0 15 15" xmlns="http://www.w3.org/2000/svg"><path fill-rule="evenodd" d="M0 2h3c1.65 0 3 1.34 3 3 0 .86-.37 1.64-.95 2.18 1.13.42 1.94 1.52 1.94 2.81 0 1.65-1.35 3-3 3h-4v-11Zm1 6v4h3c1.1 0 2-.9 2-2 0-1.11-.9-2-2-2H1Zm0-1h2c1.1 0 2-.9 2-2 0-1.11-.9-2-2-2H1v4Zm13-3H9V3h5v1ZM8 9.5C8 7.56 9.56 6 11.5 6 13.43 6 15 7.56 15 9.5v.5H9.05c.23 1.14 1.24 2 2.44 2 .83 0 1.57-.41 2.02-1.04l.81.58c-.64.87-1.67 1.44-2.84 1.44 -1.94 0-3.5-1.57-3.5-3.5ZM9.05 9h4.89c-.24-1.15-1.25-2-2.45-2 -1.21 0-2.22.85-2.45 2Z"/></svg>