<svg viewBox="0 0 15 15" xmlns="http://www.w3.org/2000/svg"><g><path d="M10 8V7h1v1h-1Z"/><path fill-rule="evenodd" d="M7.5.42L14 4.21v6.57l-6.5 3.79 -6.5-3.8V4.19L7.5.39ZM6.33 3.99c-1.84 0-3.34 1.49-3.34 3.33v.33c0 1.83 1.49 3.33 3.33 3.33 .51 0 1.02-.13 1.48-.36l.4-.21 -.45-.9 -.41.2c-.33.16-.69.24-1.05.24C5 9.95 3.95 8.9 3.95 7.61v-.34c0-1.29 1.04-2.34 2.33-2.34 .36 0 .71.08 1.04.24l.4.2 .44-.9 -.41-.21c-.47-.24-.98-.36-1.49-.36Zm2.66 1v1h-1v1h1v1h-1v1h1v1h1v-1h1v1h1v-1h1v-1h-1v-1h1v-1h-1v-1h-1v1h-1v-1h-1Z"/></g></svg>