<svg viewBox="0 0 15 15" xmlns="http://www.w3.org/2000/svg"><g><path d="M7.5 6C6.11 6 5 7.11 5 8.5c0 .5.15.98.41 1.37L8.87 6.4c-.4-.27-.87-.42-1.38-.42Z"/><path d="M7.5 11c-.51 0-.99-.16-1.38-.42l3.46-3.47c.26.39.41.86.41 1.37 0 1.38-1.12 2.5-2.5 2.5Z"/><path fill-rule="evenodd" d="M13.5 2H12V0h-1v2H4V0H3v2H1.5C.67 2 0 2.67 0 3.5v10c0 .82.67 1.5 1.5 1.5h12c.82 0 1.5-.68 1.5-1.5v-10c0-.83-.68-1.5-1.5-1.5ZM4 8.5C4 6.56 5.56 5 7.5 5 9.43 5 11 6.56 11 8.5c0 1.93-1.57 3.5-3.5 3.5C5.56 12 4 10.43 4 8.5Z"/></g></svg>