<svg viewBox="0 0 15 15" xmlns="http://www.w3.org/2000/svg"><g><path d="M.97.35L.01.63l3.1 10.35h11.87v-6.5c0-1.39-1.12-2.5-2.5-2.5H1.45L.95.33Z"/><g fill-rule="evenodd"><path d="M5.5 12c-.83 0-1.5.67-1.5 1.5 0 .82.67 1.5 1.5 1.5 .82 0 1.5-.68 1.5-1.5 0-.83-.68-1.5-1.5-1.5ZM5 13.5c0-.28.22-.5.5-.5 .27 0 .5.22.5.5 0 .27-.23.5-.5.5 -.28 0-.5-.23-.5-.5Z"/><path d="M12.5 12c-.83 0-1.5.67-1.5 1.5 0 .82.67 1.5 1.5 1.5 .82 0 1.5-.68 1.5-1.5 0-.83-.68-1.5-1.5-1.5Zm-.5 1.5c0-.28.22-.5.5-.5 .27 0 .5.22.5.5 0 .27-.23.5-.5.5 -.28 0-.5-.23-.5-.5Z"/></g></g></svg>