<svg viewBox="0 0 15 15" xmlns="http://www.w3.org/2000/svg"><path fill-rule="evenodd" d="M7.2.09c.17-.13.4-.13.58 0l6.99 4.99c.13.09.2.24.2.4v4c0 .16-.08.31-.21.4l-7 5c-.18.12-.41.12-.59 0l-7-5.01c-.14-.1-.21-.25-.21-.41v-4c0-.17.07-.32.2-.41l6.99-5ZM.99 6.46l1.43 1.02L.98 8.5V6.44Zm.36 3.02l5.63 4.02v-2.78l-3.7-2.65 -1.94 1.38Zm2.8-2l3.33 2.38 3.33-2.39 -3.34-2.39 -3.34 2.38Zm3.83-3.26l3.7 2.64 1.93-1.39 -5.64-4.03v2.77Zm-1-2.78v2.77l-3.7 2.64 -1.94-1.39 5.63-4.03Zm7 5l-1.44 1.02 1.43 1.02V6.42Zm-.37 3.02l-1.94-1.39 -3.7 2.64v2.77l5.63-4.03Z"/></svg>