<svg viewBox="0 0 15 15" xmlns="http://www.w3.org/2000/svg"><g><path d="M4.41 7.72c0-.54.38-.89.77-.89s.78.36.77.88l-.01 0c0 .53-.39.88-.78.88s-.78-.36-.78-.89Z"/><path d="M9.1 7.72c0-.29.08-.48.19-.6 .1-.12.25-.2.48-.2 .39 0 .77.35.77.88s-.39.88-.78.88c-.16 0-.32-.08-.45-.26 -.14-.19-.23-.45-.23-.74Z"/><path fill-rule="evenodd" d="M3.79 12.14c.27.1.58.21.91.31 -.59.61-1.51 1.46-1.51 1.46 -2.84-.09-3.22-2.42-3.22-2.42 0-4.14 1.84-9.1 1.84-9.1C3.65 1 5.41 1.04 5.41 1.04l.16 1.09c-.86.22-1.73.6-2.67 1.11l.51.94c1.54-.85 2.8-1.24 4.03-1.24 1.22-.01 2.48.39 4.02 1.23l.51-.94c-.99-.54-1.9-.93-2.79-1.15l.28-1.07s1.75-.04 3.6 1.34c0 0 1.84 4.95 1.84 9.09 0 0-.38 2.32-3.22 2.41 0 0-.86-.85-1.42-1.45 .29-.1.59-.2.89-.33 .48-.19 1.01-.45 1.57-.81l-.59-.9c-.5.32-.96.55-1.37.7l-.01 0 -.01 0 -.01 0c-.61.25-1.19.42-1.75.51l-.01 0c-1.16.21-2.22.15-3.13-.02 -.7-.14-1.29-.33-1.8-.53s-.94-.41-1.36-.7l-.62.87c.5.35 1.02.6 1.57.81l0 0Zm1.39-6.38c-1.08 0-1.85.92-1.85 1.96 0 1.03.78 1.96 1.84 1.96 1.07 0 1.84-.93 1.84-1.96 .01-1.05-.79-1.97-1.85-1.97Zm4.59.09c-.51 0-.96.19-1.28.54 -.32.34-.48.81-.48 1.31 0 .49.15.99.44 1.37 .29.38.74.67 1.3.67 1.07 0 1.84-.93 1.84-1.97s-.78-1.97-1.85-1.97Z"/></g></svg>