<svg viewBox="0 0 15 15" xmlns="http://www.w3.org/2000/svg"><path fill-rule="evenodd" d="M2.49 6.66c1.06 1.18 2.68 2.33 5 2.33 2.31 0 3.93-1.16 5-2.34 .53-.6.91-1.19 1.17-1.64 .12-.23.21-.41.27-.54 .02-.07.05-.12.06-.15 0-.02.01-.03.01-.04l0-.01 0-.01c-.01 0-.01 0 .46.18 .46.18.46.18.46.18l-.01 0 -.01 0 -.01 0 -.01.01c-.01.01-.02.02-.03.04 -.02.04-.05.09-.08.17 -.07.14-.18.35-.32.59 -.28.49-.71 1.14-1.3 1.8 -.19.2-.39.4-.6.6l1.7 1.7 -.71.7 -1.78-1.78c-1.01.73-2.29 1.3-3.88 1.4l0 2.01h-1l-.01-2.02C5.28 9.73 4 9.16 2.99 8.43L1.21 10.2 .5 9.49l1.7-1.71c-.22-.2-.42-.41-.6-.61C1 6.51.58 5.85.3 5.36c-.14-.25-.25-.46-.32-.6 -.04-.08-.07-.14-.08-.18 -.01-.03-.02-.04-.03-.05l-.01-.02 -.01-.01 -.01-.01 -.01-.01c-.01-.01-.01-.01.46-.19 .46-.19.46-.19.46-.19l-.01-.01 0 0 0 0s0 .01.01.03c.01.03.03.08.06.14 .05.12.15.31.27.53 .25.44.63 1.03 1.17 1.63ZM.95 4.3c-.01-.01-.01 0 0 0l-.01-.01Z"/></svg>