<svg viewBox="0 0 15 15" xmlns="http://www.w3.org/2000/svg"><g><path d="M2.5 0C1.11 0 0 1.11 0 2.5c0 1.2.85 2.21 2 2.44v4.55c0 1.93 1.56 3.5 3.5 3.5h1.79l-1.15 1.14 .7.7 2.35-2.36 -2.36-2.36 -.71.7 1.14 1.14h-1.8c-1.39 0-2.5-1.12-2.5-2.5V4.89c1.14-.24 2-1.25 2-2.45 0-1.39-1.12-2.5-2.5-2.5Z"/><path d="M8.85.85L8.14.14 5.78 2.49l2.35 2.35 .7-.71 -1.15-1.15h1.79c1.38 0 2.5 1.11 2.5 2.5v4.55c-1.15.23-2 1.24-2 2.45 0 1.38 1.11 2.5 2.5 2.5 1.38 0 2.5-1.12 2.5-2.5 0-1.21-.86-2.22-2-2.45V5.48c0-1.94-1.57-3.5-3.5-3.5h-1.8L8.81.83Z"/></g></svg>