<svg viewBox="0 0 15 15" xmlns="http://www.w3.org/2000/svg"><path fill-rule="evenodd" d="M0 7.5C0 3.35 3.35 0 7.5 0 11.64 0 15 3.35 15 7.5c0 4.14-3.36 7.5-7.5 7.5C3.35 15 0 11.64 0 7.5Zm1 0c0-3.26 2.39-5.96 5.52-6.43l.47.23v.38l-.73.36c-.16.07-.27.23-.28.41 -.02.17.07.34.22.44l1.5 1c.08.05.17.08.27.08h.5c.27 0 .5-.23.5-.5v-.5h.5v.5c0 .13.05.25.14.35l.35.35v.58l-.21.2h-.68L7.17 4c-.15-.08-.31-.08-.45 0l-.9.44H4.43c-.23 0-.43.15-.49.37l-.5 2c-.05.17 0 .35.13.47l1.5 1.5c.03.03.08.06.12.09l.72.36v1.19c0 .13.05.25.14.35l.35.35v.79c0 .07.01.15.05.22l.5 1c.08.16.25.27.44.27h1c.16 0 .32-.09.41-.23l1-1.5c.01-.02.02-.04.03-.06l.49-1c.03-.07.05-.15.05-.23v-.84l1.4-1.87c.11-.16.13-.36.04-.53l-.14-.28h.69c.27 0 .5-.23.5-.5v-.5h.82c.11.48.17.98.17 1.49 0 3.58-2.92 6.5-6.5 6.5 -3.59 0-6.5-2.92-6.5-6.5Z"/></svg>