<svg viewBox="0 0 15 15" xmlns="http://www.w3.org/2000/svg"><g><path d="M5 2.5C5 1.11 6.11 0 7.5 0 8.88 0 10 1.11 10 2.5 10 3.88 8.88 5 7.5 5 6.11 5 5 3.88 5 2.5Z"/><path d="M7.5 6C5.56 6 4 7.56 4 9.5v2c0 .27.22.5.5.5h6c.27 0 .5-.23.5-.5v-2C11 7.56 9.43 6 7.5 6Z"/><path d="M1.39 10.69c-.29.29-.4.56-.4.8s.11.52.4.81c.29.29.74.58 1.34.84 1.19.51 2.87.83 4.75.83s3.56-.33 4.75-.84c.59-.26 1.04-.55 1.34-.85 .29-.3.4-.58.4-.82 0-.25-.12-.52-.4-.81 -.29-.3-.73-.59-1.31-.84l.4-.92c.65.28 1.21.63 1.62 1.05 .4.41.67.92.67 1.5s-.28 1.09-.7 1.51c-.42.41-.99.77-1.66 1.06 -1.35.57-3.17.91-5.15.91 -1.99 0-3.81-.35-5.15-.92 -.68-.29-1.25-.65-1.66-1.07 -.42-.43-.7-.94-.7-1.52 0-.58.27-1.09.67-1.51 .4-.42.96-.77 1.62-1.06l.4.91c-.59.25-1.02.54-1.31.83Z"/></g></svg>