<svg viewBox="0 0 15 15" xmlns="http://www.w3.org/2000/svg"><path fill-rule="evenodd" d="M6.01 1.28c.1-.73.72-1.29 1.48-1.29 .75 0 1.38.55 1.48 1.28l3.54 2.06c.26-.23.6-.36.96-.36 .82 0 1.5.67 1.5 1.5 0 .65-.42 1.2-1 1.41v3.17c.58.2 1 .76 1 1.41 0 .82-.68 1.5-1.5 1.5 -.37 0-.71-.14-.97-.36l-3.55 2.06c-.11.72-.73 1.28-1.49 1.28s-1.39-.56-1.49-1.29l-3.55-2.07c-.27.22-.6.35-.97.35 -.83 0-1.5-.68-1.5-1.5 0-.66.41-1.21 1-1.42V5.83c-.59-.21-1-.77-1-1.42 0-.83.67-1.5 1.5-1.5 .36 0 .7.13.96.35l3.54-2.07Zm.22 1.02L2.96 4.2c.01.09.02.18.02.28 0 .65-.42 1.2-1 1.41v2.93l4.29-6.45c-.03-.03-.05-.06-.06-.09Zm.89.64L2.68 9.58c.09.12.16.25.21.39h9.17c.05-.15.12-.28.21-.4L7.83 2.92c-.12.02-.25.04-.37.04 -.13 0-.26-.02-.37-.05Zm1.56-.56l4.29 6.44V5.88c-.59-.21-1-.77-1-1.42 0-.1 0-.19.02-.29L8.72 2.26c-.02.02-.04.05-.06.08Zm2.95 8.6H3.32l2.89 1.68c.26-.42.73-.69 1.26-.69 .52 0 .99.27 1.26.68l2.89-1.69ZM7.47.98c-.28 0-.5.22-.5.5 0 .27.22.5.5.5 .27 0 .5-.23.5-.5 0-.28-.23-.5-.5-.5Zm-6 3c-.28 0-.5.22-.5.5 0 .27.22.5.5.5 .27 0 .5-.23.5-.5 0-.28-.23-.5-.5-.5Zm12 0c-.28 0-.5.22-.5.5 0 .27.22.5.5.5 .27 0 .5-.23.5-.5 0-.28-.23-.5-.5-.5Zm-12 6c-.28 0-.5.22-.5.5 0 .27.22.5.5.5 .27 0 .5-.23.5-.5 0-.28-.23-.5-.5-.5Zm12 0c-.28 0-.5.22-.5.5 0 .27.22.5.5.5 .27 0 .5-.23.5-.5 0-.28-.23-.5-.5-.5Zm-6 3c-.28 0-.5.22-.5.5 0 .27.22.5.5.5 .27 0 .5-.23.5-.5 0-.28-.23-.5-.5-.5Z"/></svg>