<svg viewBox="0 0 15 15" xmlns="http://www.w3.org/2000/svg"><path fill-rule="evenodd" d="M5.29 1H9.7l.99 1h.79c1.93 0 3.5 1.56 3.5 3.5v4.83c0 .91-.75 1.66-1.67 1.66 -.72 0-1.36-.46-1.577-1.14l-.63-1.87h-.74c-.26 0-.48.19-.5.45l-.27 2.6c-.12 1.1-1.04 1.94-2.15 1.94 -1.11 0-2.04-.84-2.15-1.95l-.27-2.61c-.03-.26-.25-.46-.5-.46h-.74l-.63 1.86c-.23.67-.87 1.13-1.58 1.13 -.92 0-1.67-.75-1.67-1.67V5.43c0-1.94 1.567-3.5 3.5-3.5h.79l1-1Zm-1.3 6V6h-1V5h1V4h1v1h1v1h-1v1h-1Zm5-1h1V5h-1v1Zm3 0v1h-1V6h1Z"/></svg>