<svg viewBox="0 0 15 15" xmlns="http://www.w3.org/2000/svg"><g><path d="M7.14.14c.19-.2.51-.2.7 0l.98.98 -1.83 2.94 -2.71-1.09L7.11.13Z"/><path d="M3.53 3.75L2.41 4.86l2.29 2.9 1.75-2.85L3.5 3.73Z"/><path d="M1.71 5.57L.14 7.13c-.03.02-.05.04-.07.07l3.52.75 -1.9-2.4Z"/><path d="M.65 8.36l1 1 1.17-.54 -2.19-.47Z"/><path d="M2.42 10.128l.51.51 .65-1.06 -1.18.53Z"/><path d="M3.66 11.37l3.48 3.48c.19.19.51.19.7 0l.32-.33 .11-.62 -3.48-4.41 -1.16 1.86Z"/><path d="M9.43 13.26l2.48-2.49 -1.93-.42 -.56 2.9Z"/><path d="M12.76 9.93l1.78-1.79L10.7 6.6l-.54 2.76 2.58.55Z"/><path d="M14.92 7.22c-.02-.03-.05-.06-.07-.09l-1.87-1.87 -1.37.62 3.29 1.31Z"/><path d="M12.23 4.52l-.94-.94L11 5.07l1.22-.57Z"/><path d="M10.44 2.73l-.89-.89 -1.61 2.59 2 .8 .48-2.51Z"/><path d="M5.99 8.48L9.65 6.8l-.46 2.36 -3.21-.69Z"/><path d="M6.11 9.53l2.9.62 -.48 2.45 -2.44-3.09Z"/><path d="M6.18 7.3l2.89-1.33L7.4 5.3 6.16 7.29Z"/></g></svg>