<svg viewBox="0 0 15 15" xmlns="http://www.w3.org/2000/svg"><g><path d="M11 11h-1v-1h1v1Z"/><path d="M8 11h1v-1H8v1Z"/><path d="M13 11h-1v-1h1v1Z"/><path fill-rule="evenodd" d="M3 6V3.5C3 1.567 4.56 0 6.5 0 8.43 0 10 1.567 10 3.5V6h1.5c.82 0 1.5.67 1.5 1.5v.55c1.14.23 2 1.24 2 2.44s-.86 2.21-2 2.45v.55c0 .82-.68 1.5-1.5 1.5h-10c-.83 0-1.5-.68-1.5-1.5v-6c0-.83.67-1.5 1.5-1.5H3Zm1-2.5C4 2.11 5.11 1 6.5 1 7.88 1 9 2.11 9 3.5V6H4V3.5ZM8.5 9C7.67 9 7 9.67 7 10.5c0 .82.67 1.5 1.5 1.5h4c.82 0 1.5-.68 1.5-1.5 0-.83-.68-1.5-1.5-1.5h-4Z"/></g></svg>