<svg viewBox="0 0 15 15" xmlns="http://www.w3.org/2000/svg"><g><path d="M5 0C3.89 0 3 .89 3 2v1c0 1.1.89 2 2 2 1.1 0 2-.9 2-2V2c0-1.11-.9-2-2-2Z"/><path d="M10 0C8.89 0 8 .89 8 2v1c0 1.1.89 2 2 2 1.1 0 2-.9 2-2V2c0-1.11-.9-2-2-2Z"/><path d="M2 5C.89 5 0 5.89 0 7v.5c0 1.1.89 2 2 2 1.1 0 2-.9 2-2V7c0-1.11-.9-2-2-2Z"/><path d="M13 5c-1.11 0-2 .89-2 2v.5c0 1.1.89 2 2 2 1.1 0 2-.9 2-2V7c0-1.11-.9-2-2-2Z"/><path d="M9.61 7.77c-1.1-1.33-3.14-1.33-4.23 0l-2.92 3.54c-1.21 1.46-.17 3.67 1.73 3.67 .27 0 .53-.07.78-.19l.35-.18c1.35-.68 2.95-.68 4.3 0l.35.17c.24.12.51.18.78.18 1.9 0 2.94-2.22 1.73-3.68L9.56 7.73Z"/></g></svg>