<svg viewBox="0 0 15 15" xmlns="http://www.w3.org/2000/svg"><path fill-rule="evenodd" d="M3.01.37c.05-.23.25-.38.48-.38h4.66c2.39 0 4.19 1.95 4.2 4.17 1.92.62 3.02 2.85 2.1 4.83 -.71 1.51-2.23 2.49-3.9 2.49h-1.2l-.9 3.13c-.07.21-.26.36-.49.36h-4c-.16 0-.3-.08-.4-.2 -.1-.13-.13-.28-.1-.43l.34-1.38H.44c-.16 0-.3-.08-.4-.2 -.1-.13-.13-.28-.1-.43l2.99-12Zm5.14.62c1.76 0 3.09 1.38 3.19 3 -.04-.01-.07-.01-.1-.01H6.47c-.23 0-.43.15-.49.37l-1.91 7.62H1.1l2.75-11h4.27Zm-.87 8H5.87l-1.25 5H7.6l.89-3.14c.06-.22.25-.37.48-.37h1.57c1.28 0 2.44-.75 2.98-1.91 .62-1.36-.06-2.87-1.32-3.4 -.04.16-.09.32-.15.48 -.76 2-2.67 3.32-4.8 3.32Z"/></svg>