<svg viewBox="0 0 15 15" xmlns="http://www.w3.org/2000/svg"><g><path d="M6 6.49c0-.83.67-1.5 1.5-1.5 .82 0 1.5.67 1.5 1.49s-.68 1.49-1.5 1.49c-.83 0-1.5-.68-1.5-1.5Z"/><path fill-rule="evenodd" d="M1 6.49C1 2.9 3.91-.01 7.5-.01c3.58 0 6.5 2.9 6.5 6.49 0 2.67-1.34 4.79-2.78 6.22 -.72.71-1.48 1.27-2.12 1.65 -.33.18-.63.33-.89.44 -.25.09-.51.17-.73.17 -.23 0-.49-.08-.73-.18 -.27-.11-.57-.26-.89-.45 -.65-.38-1.4-.94-2.12-1.66C2.3 11.23.96 9.11.96 6.44Zm6.5-2.5C6.12 3.99 5 5.1 5 6.48c0 1.37 1.12 2.49 2.5 2.49 1.37 0 2.5-1.12 2.5-2.5s-1.13-2.5-2.5-2.5Z"/></g></svg>