<svg viewBox="0 0 15 15" xmlns="http://www.w3.org/2000/svg"><path fill-rule="evenodd" d="M5.63 1C4.14 1 2.99 2.2 2.99 3.72v.27h6v-.37c0-2.07 1.63-3.64 3.68-3.64v1c-1.52 0-2.69 1.14-2.69 2.63v6.36h-1v-1h-6v3h-1V3.69c0-2.04 1.55-3.73 3.63-3.73v1ZM2.99 8h6V5h-6v3Z"/><path d="M7.43 13.44c-.9.5-1.88 1.05-3.49 1.05 -1.49 0-2.62-.77-3.33-1.57l.74-.67c.58.66 1.46 1.23 2.58 1.23 1.33 0 2.12-.45 3-.94l.01-.01c.89-.51 1.87-1.06 3.48-1.06 1.53 0 2.88.82 3.85 1.57l-.62.79c-.93-.72-2.06-1.37-3.24-1.37 -1.34 0-2.13.44-3.01.93l-.02 0Z"/></svg>