<svg viewBox="0 0 15 15" xmlns="http://www.w3.org/2000/svg"><path fill-rule="evenodd" d="M3 4.44C3 1.98 4.98-.01 7.44-.01h.86c1.83 0 3.47 1.11 4.15 2.81l-.93.37C10.99 1.84 9.71.98 8.29.98h-.87c-1.91 0-3.45 1.54-3.45 3.44v2.55h5v1h-5v3.5c0 .34-.06.68-.16 1h.23c1 0 2 .23 2.9.68l.04.02 -.23.44 .22-.45c1.54.77 3.37.77 4.91 0l1.31-.66 .44.89 -1.32.65c-1.83.91-3.99.91-5.82 0l-.05-.03 .22-.45 -.23.44c-.77-.39-1.61-.59-2.46-.59H3.2c-.39.5-.93.89-1.56 1.1l-1.11.36 -.32-.95 1.1-.37c.92-.31 1.55-1.18 1.55-2.16v-3.5h-2v-1h2V4.33Z"/></svg>