<svg viewBox="0 0 15 15" xmlns="http://www.w3.org/2000/svg"><path fill-rule="evenodd" d="M5.31 1.83c-.4-.12-.7-.09-.92.03 -.22.11-.41.34-.53.74 -.13.4-.17.93-.11 1.58 0 .1.02.21.03.32 .52-.14 1.08-.24 1.67-.32 .4-.58.83-1.1 1.27-1.54 -.03-.02-.05-.04-.07-.06 -.51-.41-.98-.67-1.39-.78Zm2.18.14c-.07-.06-.13-.11-.19-.15 -.58-.46-1.16-.79-1.73-.96C5 .69 4.41.69 3.9.97c-.52.27-.84.76-1.01 1.33 -.18.56-.22 1.23-.15 1.96 .01.17.03.34.06.52 -.17.06-.34.12-.5.19 -.68.28-1.25.64-1.66 1.06 -.42.42-.7.93-.7 1.51s.27 1.09.69 1.51c.41.41.98.77 1.65 1.06 .15.06.32.13.49.19 -.03.17-.05.35-.07.52 -.07.72-.03 1.4.14 1.96s.49 1.05 1 1.33c.51.27 1.09.27 1.66.11 .56-.17 1.15-.51 1.72-.96 .06-.05.12-.1.18-.15 .06.05.12.1.18.14 .57.45 1.15.78 1.72.95 .56.16 1.15.16 1.66-.12s.83-.77 1-1.34c.17-.57.21-1.24.14-1.97 -.02-.18-.04-.35-.07-.53 .16-.07.33-.13.49-.2 .67-.29 1.24-.65 1.65-1.07 .41-.43.69-.94.69-1.52 0-.59-.28-1.1-.7-1.52 -.42-.42-.99-.78-1.66-1.07 -.16-.07-.33-.14-.5-.2 .02-.18.04-.36.06-.53 .06-.73.02-1.41-.15-1.97 -.18-.57-.5-1.06-1.01-1.34C10.38.54 9.8.54 9.23.7c-.57.16-1.16.5-1.73.95 -.07.04-.13.09-.19.14Zm0 1.36c-.23.23-.45.48-.68.75 .22-.01.44-.02.67-.02 .22 0 .45 0 .67.01 -.23-.28-.45-.53-.68-.76Zm2.01.86c-.41-.58-.84-1.1-1.28-1.54 .02-.02.04-.04.06-.06 .5-.41.97-.67 1.38-.78 .39-.12.69-.09.91.03 .21.11.4.34.52.74 .12.4.16.93.1 1.58 -.01.1-.03.21-.04.32 -.53-.14-1.09-.24-1.68-.32Zm-.57.94c-.47-.05-.96-.07-1.45-.07 -.5 0-.99.02-1.45.06 -.26.38-.52.8-.75 1.24 -.22.39-.42.79-.59 1.19 .17.39.36.79.58 1.19 .23.43.48.85.74 1.24 .46.04.95.06 1.44.06s.98-.03 1.44-.07c.25-.39.51-.81.74-1.25 .21-.4.41-.8.58-1.2 -.18-.4-.37-.8-.59-1.2 -.24-.44-.49-.86-.75-1.25Zm1.82 1.13c-.07-.13-.13-.25-.2-.38 -.11-.2-.22-.4-.34-.59 .26.04.51.1.75.16 -.07.25-.14.51-.23.78Zm0 2.59c-.07.12-.13.24-.2.37 -.11.19-.22.39-.34.58 .26-.05.51-.11.75-.17 -.07-.26-.14-.52-.23-.79Zm1.18.48c-.15-.58-.35-1.18-.59-1.79 .24-.61.44-1.21.58-1.79 .1.03.2.07.29.12 .59.25 1.04.54 1.34.84 .29.29.4.57.4.81 0 .24-.12.52-.41.81 -.3.29-.75.58-1.35.84 -.1.04-.2.08-.3.12Zm-.77 1.28c-.53.13-1.09.23-1.68.31 -.41.57-.84 1.09-1.28 1.53 .02.01.04.03.06.05 .5.4.97.66 1.38.77 .39.11.69.08.91-.04 .21-.12.4-.35.52-.75 .12-.41.16-.94.1-1.59 -.01-.11-.03-.22-.04-.33Zm-3.69 1.17c.22-.24.44-.49.67-.76 -.23 0-.45.01-.68.01 -.23 0-.46-.01-.68-.02 .22.27.44.52.67.75ZM4.72 9.79c-.12-.2-.23-.39-.34-.59 -.07-.13-.14-.25-.2-.38 -.09.26-.17.53-.23.78 .24.06.49.11.75.16Zm-.95.81c.52.13 1.08.23 1.67.31 .4.57.83 1.09 1.27 1.54 -.03.01-.05.03-.07.05 -.51.4-.98.66-1.39.77 -.4.11-.7.08-.92-.04 -.22-.12-.41-.35-.53-.75 -.13-.41-.17-.94-.11-1.59 0-.11.02-.22.03-.33ZM3 9.31c.14-.58.34-1.18.58-1.79 -.25-.61-.45-1.21-.59-1.79 -.11.03-.21.07-.3.12 -.6.25-1.05.54-1.35.84 -.3.29-.41.57-.41.81 0 .24.11.52.4.81 .29.29.74.58 1.34.84 .09.04.19.08.29.12Zm.95-3.87c.06.25.13.51.22.78 .06-.13.12-.25.19-.38 .1-.2.21-.4.33-.59 -.27.04-.52.1-.76.16Zm1.99 2.08c0-.83.67-1.5 1.5-1.5 .82 0 1.5.67 1.5 1.5 0 .82-.68 1.5-1.5 1.5 -.83 0-1.5-.68-1.5-1.5Zm1.5-.5c-.28 0-.5.22-.5.5 0 .27.22.5.5.5 .27 0 .5-.23.5-.5 0-.28-.23-.5-.5-.5Z"/></svg>