<svg viewBox="0 0 15 15" xmlns="http://www.w3.org/2000/svg"><path fill-rule="evenodd" d="M7.62 1.01c-.15-.04-.31-.01-.43.09 -.13.09-.2.24-.2.39V5c-1.32.07-2.55.46-3.55 1.04 -.39-.35-.92-.52-1.44-.52 -1.12 0-2.03.9-2.03 2.02 0 .74.4 1.39 1 1.74 -.01.06-.01.12-.01.19 0 1.24.85 2.37 2.02 3.16 1.18.8 2.78 1.33 4.47 1.33s3.29-.53 4.47-1.34c1.16-.8 2.02-1.93 2.02-3.17 0-.07-.01-.13-.01-.2 .6-.35 1-1 1-1.75 0-1.12-.91-2.03-2.03-2.03 -.53 0-1.05.17-1.44.51 -1.01-.58-2.24-.97-3.55-1.05V2.05l3.05.76c.17.63.75 1.09 1.44 1.09 .82 0 1.5-.68 1.5-1.5 0-.83-.68-1.5-1.5-1.5 -.62 0-1.14.36-1.38.89L7.51.91Zm4.87 1.98c-.28 0-.5-.22-.5-.5l-.01-.01 0-.01c0-.28.22-.5.49-.5s.5.22.5.5c0 .27-.23.5-.5.5Zm-7.5 6h1v-1h-1v1Zm2.5 2c-.99 0-1.62-.18-2.31-.47l-.39.92c.79.33 1.55.53 2.69.53 1.13 0 1.89-.21 2.69-.54l-.39-.93c-.69.29-1.32.46-2.31.46Zm2.49-2h-1v-1h1v1Z"/></svg>