<svg viewBox="0 0 15 15" xmlns="http://www.w3.org/2000/svg"><path fill-rule="evenodd" d="M5.06 2.33c-1.08.46-2.43 1.51-3.12 2.88l-.9-.45c.81-1.63 2.36-2.83 3.61-3.37 .31-.14.62-.24.91-.29 .27-.05.57-.07.83.01 .28.08.54.28.64.61 .09.3.02.62-.1.92 -.29.7-.9 1.51-1.54 2.3 -.2.24-.4.48-.6.72 -.48.57-.96 1.14-1.37 1.71 -.6.81-.98 1.5-1.05 2.03 -.04.24 0 .43.1.58 .09.15.29.33.66.49 1.1.47 2.54.42 3.98.02 .04-.53.16-1.11.34-1.71 .53-1.88 1.75-3.15 2.93-3.59 .58-.22 1.22-.26 1.74.05 .54.32.8.92.8 1.66 0 .48-.2.94-.49 1.36 -.29.42-.7.83-1.17 1.21 -.86.68-1.99 1.3-3.2 1.72 .01.32.08.58.18.77 .12.23.31.39.6.47 .31.08.77.09 1.41-.07 .64-.16 1.44-.46 2.41-.95l.44.89c-1.02.5-1.89.84-2.63 1.01 -.74.17-1.39.2-1.92.05 -.56-.16-.97-.5-1.22-.98 -.15-.29-.24-.61-.28-.95 -1.49.36-3.07.42-4.38-.15 -.51-.22-.89-.51-1.13-.89 -.25-.39-.31-.82-.25-1.25 .1-.82.63-1.69 1.22-2.5 .43-.59.93-1.21 1.42-1.79 .19-.24.38-.47.56-.69 .65-.81 1.16-1.5 1.38-2.05 .04-.11.05-.18.06-.22 -.07-.02-.18-.02-.35.01 -.2.03-.43.1-.7.22Zm3.17 7.88c.95-.38 1.82-.88 2.49-1.42 .41-.34.74-.68.96-1 .22-.33.3-.6.3-.81 0-.51-.18-.72-.32-.81 -.17-.1-.47-.14-.89.02 -.83.31-1.86 1.29-2.32 2.91 -.12.38-.2.74-.25 1.07Z"/></svg>