<svg viewBox="0 0 15 15" xmlns="http://www.w3.org/2000/svg"><g><path d="M6 9H5V8h1v1Z"/><path d="M10 9H8.99V8h1v1Z"/><path fill-rule="evenodd" d="M2 5.5C2 2.46 4.46 0 7.5 0 10.53 0 13 2.46 13 5.5v.56c1.07.26 1.78 1.36 1.5 2.5l-.16.6c-.23.9-.95 1.58-1.83 1.77 -.21.51-.49 1-.83 1.45l-.6.8c-.85 1.13-2.19 1.8-3.61 1.8s-2.76-.67-3.6-1.8l-.6-.8c-.34-.46-.62-.95-.83-1.46 -.89-.2-1.6-.88-1.83-1.78l-.16-.61c-.29-1.14.42-2.24 1.5-2.51v-.57ZM3 7h3V6H3v-.3l.97-.98c.46-.47 1.1-.74 1.76-.74h3.51c.66 0 1.29.26 1.76.73l.97.97v.29H8.96v1h3v1.5c0 .75-.16 1.5-.46 2.18l-.64.38c-.36.21-.72.38-1.1.52l-1.1-1.1H6.24l-1.1 1.09c-.39-.14-.75-.32-1.1-.53l-.64-.39c-.3-.69-.46-1.44-.46-2.19v-1.5Zm-1 .12c-.42.22-.66.7-.53 1.19l.15.6c.07.3.25.57.48.76 -.08-.39-.11-.79-.11-1.19V7.1Zm4.3 4.77c.37.06.75.09 1.13.09h.12c.38 0 .76-.04 1.13-.1l-.41-.41H6.68l-.41.4Zm6.58-2.22c.23-.19.41-.46.48-.77l.15-.61c.12-.5-.12-.98-.53-1.2v1.37c0 .4-.04.79-.11 1.18Z"/></g></svg>