<svg viewBox="0 0 15 15" xmlns="http://www.w3.org/2000/svg"><g><path d="M4 7.5c0-.28.22-.5.5-.5 .27 0 .5.22.5.5 0 .27-.23.5-.5.5 -.28 0-.5-.23-.5-.5Z"/><path d="M10 7.5c0-.28.22-.5.5-.5 .27 0 .5.22.5.5 0 .27-.23.5-.5.5 -.28 0-.5-.23-.5-.5Z"/><path fill-rule="evenodd" d="M1 6.5C1 2.91 3.91 0 7.5 0 11.08 0 14 2.91 14 6.5v3.38c0 .56-.33 1.08-.83 1.34l-1.18.58v.69c0 1.38-1.12 2.5-2.5 2.5h-4c-1.39 0-2.5-1.12-2.5-2.5v-.7l-1.18-.59c-.51-.26-.83-.78-.83-1.35V6.46ZM4.5 6C3.67 6 3 6.67 3 7.5 3 8.32 3.67 9 4.5 9 5.32 9 6 8.32 6 7.5 6 6.67 5.32 6 4.5 6Zm6 0C9.67 6 9 6.67 9 7.5c0 .82.67 1.5 1.5 1.5 .82 0 1.5-.68 1.5-1.5 0-.83-.68-1.5-1.5-1.5ZM7.14 9.14c.19-.2.51-.2.7 0l1 .99 -.71.7 -.65-.65 -.65.64 -.71-.71 1-1Z"/></g></svg>