<svg viewBox="0 0 15 15" xmlns="http://www.w3.org/2000/svg"><path fill-rule="evenodd" d="M0 4.45C0 1.98 1.99-.01 4.45-.01c.84 0 1.64.23 2.32.65 .23-.03.47-.05.72-.05 3.8 0 6.89 3.08 6.89 6.89 0 .24-.02.48-.05.72 .41.67.65 1.47.65 2.32 0 2.46-2 4.45-4.46 4.45 -.85 0-1.65-.24-2.33-.66 -.24.02-.48.04-.73.04 -3.81 0-6.9-3.09-6.9-6.9 -.001-.25.01-.49.04-.73 -.42-.68-.66-1.48-.66-2.33Zm6 1.54c0-.56.44-1 1-1h.88c.49 0 .94.28 1.17.72l.89-.45c-.4-.79-1.2-1.28-2.07-1.28h-.89c-1.11 0-2 .89-2 2 0 1.1.89 2 2 2h1c.55 0 1 .44 1 1 0 .55-.45 1-1 1h-.89c-.5 0-.95-.29-1.18-.73l-.9.44c.39.78 1.19 1.27 2.06 1.27h.88c1.1 0 2-.9 2-2 0-1.11-.9-2-2-2h-1c-.56 0-1-.45-1-1Z"/></svg>