<svg viewBox="0 0 15 15" xmlns="http://www.w3.org/2000/svg"><path d="M7.5 0C6.24 0 5.14.47 4.36 1.47c-.7.89-1.09 2.71-1.16 4.22l-.08.01 -.03 0c-.12.01-.26.03-.4.06 -.51.1-1.46.37-1.68 1.47 -.11.51.01.96.26 1.3 .22.3.53.49.76.61 .09.04.19.09.29.13 -.23.67-.63 1.36-1.07 1.99 -.42.58-.31 1.33-.1 1.81s.61.46 1.29.49c.38.01.78.06 1.18.13 .18.03.39.11.65.23 .15.06.3.14.45.21 .12.06.25.12.4.19 .62.28 1.38.59 2.22.59 .84 0 1.6-.31 2.22-.6 .15-.07.28-.14.4-.2l.02-.02c.14-.07.28-.14.43-.21 .26-.12.47-.2.65-.24 .39-.08.79-.13 1.18-.14 .67-.04 1.19-.01 1.41-.5 .21-.49.32-1.23-.1-1.82 -.44-.63-.84-1.32-1.07-1.98 .09-.05.21-.09.32-.15 .23-.12.56-.31.79-.63 .26-.38.34-.86.19-1.37 -.31-1.03-1.19-1.3-1.7-1.41 -.14-.03-.28-.06-.39-.07l-.02-.01 -.07-.02c-.07-1.43-.45-3.23-1.13-4.132C9.7.37 8.6-.19 7.32-.19Z"/></svg>