<svg viewBox="0 0 15 15" xmlns="http://www.w3.org/2000/svg"><path fill-rule="evenodd" d="M3.14.14c.19-.2.51-.2.7 0l3 3 -.71.7 -2.15-2.15v13.29h-1V1.68L.83 3.82l-.71-.71L3.11.1Zm8.35.85c-.83 0-1.5.67-1.5 1.5v1.5h3v-1.5c0-.83-.68-1.5-1.5-1.5Zm1.5 4v2h1v-4.5c0-1.39-1.12-2.5-2.5-2.5 -1.39 0-2.5 1.11-2.5 2.5v4.5h.99v-2h3Zm-4 3h2.99c1.1 0 2 .89 2 2 0 .59-.27 1.13-.68 1.5 .41.36.67.9.67 1.5 0 1.1-.9 2-2 2h-3v-7Zm2.99 3c.55 0 1-.45 1-1 0-.56-.45-1-1-1h-2v2h2Zm-2 1h2c.55 0 1 .44 1 1 0 .55-.45 1-1 1h-2v-2Z"/></svg>