<svg viewBox="0 0 15 15" xmlns="http://www.w3.org/2000/svg"><path fill-rule="evenodd" d="M13.28 1.94c.92 1.48.76 3.33-.28 4.62 .85 1.8.23 4-1.51 5.09l-4.25 2.64c-1.88 1.17-4.35.6-5.52-1.28 -.93-1.49-.77-3.34.27-4.63 -.86-1.81-.24-4.01 1.5-5.1L7.73.63C9.6-.55 12.07.02 13.24 1.9Zm-4.99-.43c1.4-.88 3.25-.46 4.13.95 .62 1 .58 2.24-.01 3.18 -.63-.74-1.48-1.2-2.39-1.35l.72-.46 -.53-.85 -5.09 3.17 .52.84 2.12-1.33c1.4-.88 3.25-.46 4.13.95 .87 1.4.45 3.25-.96 4.13l-4.25 2.64c-1.41.87-3.26.45-4.14-.96 -.63-1.01-.59-2.25 0-3.19 .62.73 1.47 1.19 2.38 1.34l-.73.45 .52.84 5.08-3.18 -.53-.85 -2.13 1.32c-1.41.87-3.26.45-4.14-.96 -.88-1.41-.46-3.26.95-4.14L8.18 1.4Z"/></svg>