<svg viewBox="0 0 15 15" xmlns="http://www.w3.org/2000/svg"><g><path d="M7 7.5c0-.28.22-.5.5-.5 .27 0 .5.22.5.5 0 .27-.23.5-.5.5 -.28 0-.5-.23-.5-.5Z"/><g fill-rule="evenodd"><path d="M7.5 4C5.56 4 4 5.56 4 7.5 4 9.43 5.56 11 7.5 11 9.43 11 11 9.43 11 7.5 11 5.56 9.43 4 7.5 4Zm0 2C6.67 6 6 6.67 6 7.5 6 8.32 6.67 9 7.5 9 8.32 9 9 8.32 9 7.5 9 6.67 8.32 6 7.5 6Z"/><path d="M7.5 0C3.35 0 0 3.35 0 7.5 0 11.64 3.35 15 7.5 15c4.14 0 7.5-3.36 7.5-7.5C15 3.35 11.64 0 7.5 0ZM3 7.5C3 5.01 5.01 3 7.5 3 9.98 3 12 5.01 12 7.5 12 9.98 9.98 12 7.5 12 5.01 12 3 9.98 3 7.5Z"/></g></g></svg>