<svg viewBox="0 0 15 15" xmlns="http://www.w3.org/2000/svg"><g fill-rule="evenodd"><path d="M0 3.5C0 1.567 1.567 0 3.5 0h8C13.43 0 15 1.567 15 3.5 15 5.43 13.43 7 11.5 7h-8C1.567 7 0 5.43 0 3.5ZM3.5 2C4.32 2 5 2.67 5 3.5 5 4.32 4.32 5 3.5 5 2.67 5 2 4.32 2 3.5 2 2.67 2.67 2 3.5 2Z"/><path d="M15 11.5c0 1.93-1.57 3.5-3.5 3.5h-8C1.567 15 0 13.43 0 11.5 0 9.56 1.567 8 3.5 8h8c1.93 0 3.5 1.56 3.5 3.5ZM11.5 13c-.83 0-1.5-.68-1.5-1.5 0-.83.67-1.5 1.5-1.5 .82 0 1.5.67 1.5 1.5 0 .82-.68 1.5-1.5 1.5Z"/></g></svg>