<svg viewBox="0 0 15 15" xmlns="http://www.w3.org/2000/svg"><path fill-rule="evenodd" d="M12.46 3.57l.39.98c.47.1.95.22 1.42.36 .42.12.71.5.71.94v3.34c0 2.09-1.7 3.78-3.79 3.78h-.55c-.29 0-.56-.16-.69-.41 -1.08-1.97-3.9-1.97-4.97 0 -.14.25-.41.4-.69.4h-.55c-2.1 0-3.79-1.7-3.79-3.79V5.82c0-.44.29-.83.71-.95 .47-.14.94-.26 1.42-.37l.39-.99c.37-.95 1.29-1.58 2.32-1.58h5.29c1.02 0 1.94.62 2.32 1.57Zm-9.01.37c.22-.57.77-.95 1.39-.95h5.29c.61 0 1.16.37 1.39.94l.15.38c-2.78-.48-5.62-.48-8.39 0l.15-.39Z"/></svg>