<svg viewBox="0 0 15 15" xmlns="http://www.w3.org/2000/svg"><path fill-rule="evenodd" d="M.95 5L0 .6 .97.39l.98 4.6h3.92l1.12-3.65c.06-.21.25-.36.47-.36 .21 0 .41.14.47.35l1.12 3.64h3.92l.98-4.61 .97.2 -.95 4.39h.95v1h-1.17l-.65 3h1.81v1h-2.03l-.99 4.6c-.05.22-.24.38-.47.39 -.23.01-.44-.14-.5-.36L9.49 9.93H5.3l-1.43 4.64c-.07.21-.28.36-.5.35 -.23-.01-.42-.18-.47-.4l-.99-4.61H-.12v-1h1.81l-.65-3H-.13v-1h.95Zm1.23 1l.64 3h1.83l.92-3H2.16Zm4.44 0l-.93 3h3.56l-.93-3H6.59Zm1.41-1l-.56-1.8 -.56 1.79h1.1Zm1.35 1l.92 3h1.83l.64-3H9.36Zm2.54 4H10.6l.77 2.51 .53-2.52Zm-7.6 0H3l.53 2.51 .77-2.52Z"/></svg>