<svg viewBox="0 0 15 15" xmlns="http://www.w3.org/2000/svg"><g><path d="M3.29 11.37l.59-2.38h1.21l.59 2.37c.07.31-.16.62-.49.62H3.75c-.33 0-.57-.31-.49-.63Z"/><path d="M10.5 3c-.28 0-.5.22-.5.5V4h1v-.5c0-.28-.23-.5-.5-.5Z"/><path fill-rule="evenodd" d="M0 1.5C0 .67.67 0 1.5 0h12c.82 0 1.5.67 1.5 1.5v12c0 .82-.68 1.5-1.5 1.5h-12C.67 15 0 14.32 0 13.5v-12ZM3 3h3V2H3v1Zm0 2h3V4H3v1Zm3 2H3V6h3v1Zm-.11 1H3.1l-.79 3.13c-.24.94.47 1.86 1.45 1.86h1.43c.97 0 1.69-.92 1.45-1.87l-.79-3.14Zm3.37 2.05c.16-.09.35-.08.51.02l2.22 1.48V9.98h1v2.5c0 .18-.11.35-.27.44 -.17.08-.36.07-.52-.03L9.97 11.4v1.56h-1v-2.5c0-.19.1-.36.26-.45Zm-.27-4.06v3h1v-1h2v1h1v-3h-1v1h-2v-1h-1Zm3-2v-.5c0-.83-.68-1.5-1.5-1.5 -.83 0-1.5.67-1.5 1.5v1.5h4v-1h-1Z"/></g></svg>