<svg viewBox="0 0 24 24" xmlns="http://www.w3.org/2000/svg"><path fill="none" d="M0 0h24v24H0Z"/><path d="M21.42 15.358c-3.83-1.16-6.055-1.84-6.68-2.07v0c.59-1.04 1.04-2.16 1.32-3.32h-3.27v-1.11h4v-.68h-4V6.32h-1.54c-.28 0-.32.24-.32.24v1.59H7.17v.68h3.752v1.1H7.85v.61h6.22 0c-.22.75-.52 1.48-.89 2.17 -1.41-.47-2.192-.79-3.92-.95 -3.26-.32-4.008 1.48-4.13 2.57 -.18 1.67 1.3 3.032 3.51 3.032 2.2 0 3.68-1.03 5.08-2.72 1.16.55 3.33 1.52 6.51 2.9v0c-1.86 2.74-4.97 4.39-8.29 4.39 -5.523 0-10-4.477-10-10s4.477-10 10-10 10 4.477 10 10v0c0 1.14-.2 2.28-.58 3.35ZM8.43 16.36c-2.34 0-2.71-1.48-2.59-2.096 .12-.62.8-1.42 2.104-1.42 1.49 0 2.832.38 4.44 1.16 -1.14 1.48-2.52 2.35-3.96 2.35Z"/></svg>