<svg viewBox="0 0 24 24" xmlns="http://www.w3.org/2000/svg"><path fill="none" d="M0 0h24v24H0Z"/><path d="M18.4 16.79c-2.18-.95-3.72-1.65-4.64-2.09 -1.4 1.69-2.872 2.72-5.08 2.72s-3.69-1.36-3.52-3.04c.12-1.096.87-2.888 4.12-2.58 1.72.16 2.5.48 3.91.94 .36-.67.66-1.4.88-2.176H7.84v-.62h3.072v-1.11H7.16v-.68h3.752v-1.6s.03-.25.31-.25h1.53v1.84h4v.68h-4v1.1h3.26v0c-.28 1.16-.73 2.28-1.32 3.32 .51.18 2.09.67 4.76 1.48v0c1.53-4.15-.58-8.75-4.72-10.29 -4.15-1.54-8.75.57-10.29 4.71 -1.54 4.14.57 8.74 4.71 10.28 3.32 1.23 7.06.13 9.18-2.71ZM11.99 22c-5.523 0-10-4.477-10-10s4.477-10 10-10 10 4.477 10 10 -4.477 10-10 10Zm-3.57-5.64c1.44 0 2.824-.88 3.96-2.36 -1.61-.78-2.95-1.16-4.44-1.16 -1.31 0-1.984.8-2.104 1.41 -.12.61.24 2.096 2.58 2.096Z"/></svg>