<svg viewBox="0 0 24 24" xmlns="http://www.w3.org/2000/svg"><path fill="none" d="M0 0h24v24H0Z"/><path d="M21.99 18.23c0 .72-.41 2.12-1.314 2.89 -.19.14-.37.06-.29-.15 .26-.65.87-2.15.58-2.5 -.2-.27-1.03-.25-1.74-.19 -.33.04-.61.06-.83.1 -.21.01-.25-.17-.05-.31 .26-.19.54-.33.87-.43 1.15-.35 2.48-.14 2.67.08 .03.04.08.16.08.46Zm-1.93 1.29h-.001c-.27.2-.55.38-.83.55 -2.13 1.27-4.87 1.94-7.26 1.94 -3.843 0-7.28-1.42-9.888-3.79 -.23-.19-.04-.45.22-.31 2.81 1.64 6.288 2.63 9.889 2.63 2.26 0 4.7-.43 7.035-1.34 .16-.07.34-.15.5-.21 .36-.17.69.24.32.5ZM13.89 8.49c0-1.05.04-1.654-.31-2.18 -.31-.44-.84-.7-1.57-.66 -.798.04-1.66.56-1.88 1.52 -.05.22-.18.43-.44.48l-2.436-.31c-.18-.04-.44-.18-.36-.53 .52-2.76 2.87-3.72 5.09-3.84h.52c1.22 0 2.78.34 3.79 1.26 1.21 1.13 1.08 2.662 1.08 4.32v3.92c0 1.17.47 1.7.95 2.314 .13.21.17.47-.05.65 -.48.43-1.4 1.21-1.92 1.65 -.18.13-.49.14-.61.04 -.77-.65-.96-1.01-1.44-1.66 -.83.87-1.53 1.35-2.36 1.61v0c-.59.14-1.19.22-1.79.21 -2.09 0-3.75-1.31-3.75-3.88 0-2.05 1.09-3.442 2.7-4.11 1.61-.66 3.95-.87 4.7-.88Zm-.48 5.19c.52-.88.47-1.59.47-3.19 -.66 0-1.31.04-1.88.17 -1.045.3-1.88.96-1.88 2.35 0 1.09.56 1.83 1.52 1.83 .13 0 .24-.02.34-.05 .67-.19 1.08-.53 1.39-1.14Z"/></svg>