<svg viewBox="0 0 24 24" xmlns="http://www.w3.org/2000/svg"><path fill="none" d="M0 0h24v24H0Z"/><path d="M19 13H5v7h14v-7Zm0-2v0c0-3.87-3.14-7-7-7 -3.87 0-7 3.13-7 7h14ZM6.382 3.96v-.001c1.59-1.28 3.57-1.98 5.618-1.97 2.125 0 4.07.73 5.61 1.968l1.45-1.46 1.41 1.41 -1.46 1.45v0c1.27 1.59 1.97 3.57 1.968 5.618v10 0c0 .55-.45 1-1 1h-16v0c-.56 0-1-.45-1-1v-10c0-2.125.73-4.08 1.968-5.618L3.48 3.89l1.41-1.42 1.45 1.45Zm2.61 5.03v0c-.56 0-1-.45-1-1 0-.56.44-1 1-1v0c.55 0 1 .44 1 1 0 .55-.45 1-1 1Zm6 0v0c-.56 0-1-.45-1-1 0-.56.44-1 1-1v0c.55 0 1 .44 1 1 0 .55-.45 1-1 1Z"/></svg>