<svg viewBox="0 0 24 24" xmlns="http://www.w3.org/2000/svg"><path fill="none" d="M0 0h24v24H0Z"/><path d="M12 2c5.523 0 10 4.477 10 10s-4.477 10-10 10C6.477 22 2 17.523 2 12 2 6.477 6.477 2 12 2Zm0 2v0c-4.42 0-8 3.58-8 8 0 4.41 3.58 8 8 8v0c4.41 0 8-3.59 8-8 0-4.42-3.59-8-8-8ZM8.82 15.343l-.79 1.37H8.02c-.23.39-.74.52-1.125.3 -.4-.23-.53-.74-.31-1.13l.58-1.016c.66-.21 1.2-.05 1.62.46ZM13.2 8.66l2.423 4.19h2.14v0c.45-.01.82.36.82.81 0 0 0 0 0 0v0c0 .45-.37.82-.82.82 -.01 0-.01 0-.01 0h-1.19l.8 1.391v0c.21.4.06.9-.34 1.11 -.39.2-.87.07-1.1-.3l-3.04-5.266c-.69-1.19-.2-2.39.29-2.79Zm.27-3.05c.39.22.52.73.3 1.125l-3.53 6.109h2.55c.82 0 1.29.97.93 1.64H6.24v0c-.46 0-.83-.37-.83-.82 -.01-.01-.01-.01 0-.01v0c-.01-.46.36-.83.81-.83 0-.01 0-.01 0 0h2.09l2.68-4.66 -.84-1.46v0c-.22-.41-.07-.91.33-1.12 .38-.21.86-.08 1.09.29l.359.633 .36-.633v0c.22-.4.72-.53 1.12-.31 0 0 0 0 0 0Z"/></svg>