<svg viewBox="0 0 24 24" xmlns="http://www.w3.org/2000/svg"><path fill="none" d="M0 0h24v24H0Z"/><path d="M11.62 7.222c-.88 0-2.24-1-3.66-.96 -1.89.02-3.612 1.09-4.584 2.78 -1.956 3.39-.504 8.41 1.404 11.172 .93 1.34 2.04 2.85 3.5 2.808 1.404-.06 1.93-.92 3.63-.92 1.69 0 2.17.91 3.66.87 1.51-.03 2.47-1.37 3.39-2.724 1.06-1.56 1.51-3.08 1.53-3.16 -.04-.02-2.94-1.13-2.98-4.49 -.03-2.808 2.29-4.16 2.4-4.212 -1.32-1.94-3.35-2.15-4.06-2.2 -1.85-.15-3.4 1.008-4.26 1.008Zm3.12-2.84c.78-.94 1.29-2.244 1.15-3.54 -1.12.04-2.46.744-3.27 1.68 -.72.82-1.35 2.16-1.18 3.43 1.23.09 2.5-.64 3.28-1.572Z"/></svg>