<svg viewBox="0 0 24 24" xmlns="http://www.w3.org/2000/svg"><path fill="none" d="M0 0h24v24H0Z"/><path d="M5.927 12.497c2.06-.45 1.782-2.91 1.72-3.45 -.11-.83-1.08-2.282-2.41-2.167 -1.67.15-1.92 2.561-1.92 2.561 -.23 1.11.54 3.497 2.59 3.05Zm2.19 4.288c-.06.17-.2.61-.08 1 .23.86.98.9.98.9h1.08v-2.64H8.94c-.52.15-.77.55-.827.73ZM9.75 8.363c1.14 0 2.06-1.32 2.06-2.933 0-1.62-.92-2.93-2.06-2.93 -1.14 0-2.06 1.31-2.06 2.93s.923 2.933 2.06 2.933Zm4.9.19c1.52.19 2.5-1.43 2.69-2.659 .19-1.23-.79-2.658-1.862-2.904 -1.08-.25-2.43 1.48-2.56 2.61 -.15 1.38.19 2.75 1.718 2.95Zm0 3.44c-1.87-2.91-4.513-1.73-5.4-.25 -.89 1.47-2.26 2.41-2.46 2.65 -.2.24-2.85 1.673-2.258 4.28 .58 2.6 2.65 2.56 2.65 2.56s1.52.15 3.28-.25c1.766-.4 3.28.09 3.28.09s4.125 1.38 5.253-1.28c1.12-2.66-.64-4.038-.64-4.038s-2.36-1.83-3.74-3.8Zm-6.01 7.75c-1.16-.24-1.62-1.03-1.68-1.16 -.06-.14-.39-.78-.22-1.86 .5-1.62 1.92-1.74 1.92-1.74h1.42v-1.76l1.21.02v6.47H8.61Zm4.59-.02c-1.2-.31-1.26-1.16-1.26-1.16v-3.42l1.25-.02v3.06c.07.32.48.38.48.38h1.27V15.13h1.33v4.57h-3.09Zm7.45-9.11c0-.59-.49-2.37-2.31-2.37s-2.07 1.67-2.07 2.859c0 1.13.09 2.7 2.35 2.657 2.26-.05 2.01-2.56 2.01-3.16Z"/></svg>