<svg viewBox="0 0 24 24" xmlns="http://www.w3.org/2000/svg"><path fill="none" d="M0 0h24v24H0Z"/><path d="M7.44 5.35c.63 0 1.23.05 1.77.19v0c.49.09.95.27 1.37.54 .39.24.68.59.88 1.03 .19.44.29.99.29 1.58 0 .69-.15 1.28-.5 1.73 -.3.44-.79.84-1.38 1.13 .83.24 1.47.69 1.86 1.28 .39.59.64 1.33.64 2.17 0 .69-.15 1.28-.4 1.78 -.25.49-.64.94-1.09 1.23v0c-.49.31-1.02.55-1.58.69 -.59.14-1.18.24-1.77.24H.93V5.28h6.44Zm-.4 5.54c.54 0 .98-.15 1.32-.4 .34-.25.49-.7.49-1.24 0-.3-.05-.6-.15-.8 -.1-.2-.25-.35-.45-.5 -.2-.1-.4-.2-.64-.25 -.25-.05-.5-.05-.79-.05H3.96v3.216h3.05Zm.14 5.83c.29 0 .59-.05.83-.1v-.001c.24-.05.48-.15.68-.3v0c.2-.15.36-.34.49-.55 .09-.25.19-.55.19-.89 0-.7-.2-1.19-.59-1.54 -.4-.3-.94-.45-1.58-.45H3.95v3.81H7.14Zm9.492-.05c.39.39.98.59 1.77.59 .54 0 1.03-.15 1.42-.4 .39-.3.64-.6.73-.9H23c-.4 1.18-.99 2.02-1.77 2.57 -.79.49-1.73.79-2.86.79v0c-.73 0-1.45-.14-2.12-.4v0c-.61-.23-1.15-.61-1.58-1.09h0c-.46-.46-.8-1.02-.99-1.64 -.25-.65-.35-1.34-.35-2.13 0-.75.09-1.44.34-2.08v-.001c.23-.62.58-1.2 1.032-1.69 .44-.45.984-.84 1.57-1.09v0c.65-.27 1.35-.4 2.06-.4 .83 0 1.57.14 2.21.49 .64.34 1.13.74 1.52 1.33v0c.4.57.7 1.2.88 1.88 .09.69.14 1.38.09 2.17h-7.14c0 .79.29 1.53.68 1.93Zm3.09-5.2c-.35-.35-.89-.55-1.53-.55 -.45 0-.79.09-1.09.24 -.3.14-.5.34-.69.54v0c-.19.19-.31.43-.35.69 -.05.24-.1.44-.1.64h4.42c-.1-.75-.35-1.24-.69-1.59Zm-4.33-5.2h5.5V7.6h-5.51V6.26Z"/></svg>