<svg viewBox="0 0 24 24" xmlns="http://www.w3.org/2000/svg"><path fill="none" d="M0 0h24v24H0Z"/><path d="M9.827 21.76C5.35 20.76 2 16.77 2 11.99c0-1.83.48-3.53 1.339-5.01l4.28 7.41v0c.98 1.78 2.95 2.79 4.97 2.54l-2.77 4.79Zm2.173.23l4.28-7.43v0c.46-.78.71-1.67.71-2.58v-.001c0-1.09-.35-2.14-1-3h5.54c.29.94.45 1.955.45 3 0 5.52-4.477 10-10 10Zm2.57-8.46v0c-.86 1.42-2.7 1.88-4.12 1.02 -.44-.27-.81-.64-1.06-1.08l-.03-.05v0c-.81-1.46-.28-3.28 1.17-4.08 1.45-.81 3.27-.28 4.07 1.17 .5.92.49 2.03-.03 2.94l-.03.04ZM4.63 5.22H4.62c1.89-2.07 4.56-3.25 7.36-3.24v0c3.57-.01 6.87 1.9 8.66 5h-8.67v0c-2.01-.01-3.82 1.19-4.6 3.03L4.6 5.21Z"/></svg>