<svg viewBox="0 0 24 24" xmlns="http://www.w3.org/2000/svg"><path fill="none" d="M0 0h24v24H0Z"/><path d="M12 10.2l-2.7 1.79 2.69 1.79 2.69-1.8 -2.7-1.8Zm4.5.59l2.69-1.8 -6.2-4.14v3.59l3.5 2.33Zm3.5.07l-1.7 1.13 1.69 1.13v-2.27Zm-3.5 2.33L13 15.52v3.596l6.19-4.131 -2.7-1.8ZM11 8.45v-3.6L4.8 8.98l2.697 1.79 3.5-2.34Zm-6.2 6.535l6.19 4.13V15.51l-3.5-2.34 -2.697 1.79Zm.89-3L3.99 10.84v2.26l1.69-1.14Zm-3.697-3v0c-.01-.34.16-.65.44-.84l9-6v0c.33-.23.77-.23 1.11 0l9 6v0c.27.18.44.49.44.83v6 0c0 .33-.17.64-.45.83l-9 6v0c-.34.22-.78.22-1.11 0l-9-6h0c-.28-.19-.45-.5-.45-.84v-6Z"/></svg>