<svg viewBox="0 0 24 24" xmlns="http://www.w3.org/2000/svg"><path fill="none" d="M0 0h24v24H0Z"/><path d="M9.42 4.4h0c-4.19 1.4-6.45 5.94-5.04 10.13 1.4 4.18 5.94 6.44 10.13 5.03 2.45-.83 4.35-2.79 5.1-5.26 -3.4 1.46-7.25 1.98-11.545 1.56 -.72-4.13-.27-7.95 1.343-11.48Zm2.44-.42l0-.001c-.67 1.18-1.19 2.45-1.55 3.76v-.001c1.54.03 3.02.66 4.11 1.75v0c1.03 1.03 1.65 2.4 1.74 3.86 1.33-.35 2.58-.82 3.78-1.44v0c-.03-4.42-3.62-7.98-8.04-7.96 -.03 0-.05 0-.07 0ZM4.88 19.05C.97 15.14.97 8.81 4.88 4.9 8.78.99 15.11.99 19.022 4.9c3.9 3.9 3.9 10.23 0 14.14 -3.91 3.9-10.24 3.9-14.142 0ZM9.9 9.75h0c-.2 1.4-.22 2.82-.08 4.22v0c1.45.06 2.91-.01 4.36-.22v0c0-1.07-.42-2.1-1.18-2.85h-.001c-.82-.83-1.96-1.25-3.12-1.17Z"/></svg>