<svg viewBox="0 0 24 24" xmlns="http://www.w3.org/2000/svg"><path fill="none" d="M0 0h24v24H0Z"/><path d="M12 22C6.477 22 2 17.523 2 12 2 6.477 6.477 2 12 2c5.523 0 10 4.477 10 10s-4.477 10-10 10Zm-3.68-9.696c-.04.85.03 1.69.11 2.54 0 .06.02.07.08.08 .4.05.81.1 1.22.12 .96.06 1.92.13 2.89.08 .55-.03 1.1-.05 1.64-.1 .78-.07 1.56-.16 2.33-.32 .95-.2 1.907-.43 2.8-.85 .4-.19.79-.42 1.11-.74 .23-.24.4-.51.41-.86h0c0-.32-.02-.63-.05-.94v0c-.07-.75-.24-1.48-.49-2.18 -.59-1.62-1.51-2.989-2.83-4.07v0c-1.12-.93-2.44-1.57-3.86-1.87 -.5-.11-1.01-.15-1.52-.18 -.58-.05-1.064.12-1.49.51 -.5.45-.84 1.024-1.13 1.633 -.67 1.42-.98 2.95-1.17 4.508h0c-.12.85-.16 1.72-.125 2.59Zm3.57-5.03c.95.03 1.77.32 2.49.85v0c.87.62 1.48 1.55 1.71 2.612 .06.3.09.61.1.92 0 .2-.11.36-.27.49 -.31.25-.67.4-1.05.5 -.74.2-1.5.32-2.27.36 -.5.02-1 .03-1.5.01 -.2-.01-.39-.03-.577-.04 -.06-.01-.08-.02-.09-.09 -.03-.44-.06-.87-.05-1.31 .01-1.03.09-2.045.39-3.04 .1-.33.22-.65.42-.94 .17-.25.37-.44.66-.38Z"/></svg>