<svg viewBox="0 0 24 24" xmlns="http://www.w3.org/2000/svg"><path fill="none" d="M0 0h24v24H0Z"/><path d="M12 4v0c-4.42 0-8 3.58-8 8 0 4.41 3.58 8 8 8v0c4.41 0 8-3.59 8-8 0-4.42-3.59-8-8-8Zm0-2c5.523 0 10 4.477 10 10s-4.477 10-10 10C6.477 22 2 17.523 2 12 2 6.477 6.477 2 12 2Zm4.49 9.04l-.01.01c-.42.89-1.516 2.66-1.516 2.66l-.01-.02 -.32.55h1.54l-2.95 3.91 .67-2.67h-1.22l.42-1.763c-.35.08-.75.19-1.23.34 0 0-.65.37-1.862-.73 0 0-.82-.73-.35-.91 .2-.08.98-.18 1.59-.26 .83-.12 1.33-.18 1.33-.18s-2.56.03-3.17-.06c-.61-.1-1.375-1.11-1.54-2 0 0-.26-.49.54-.26 .798.23 4.1.9 4.1.9s-4.3-1.32-4.59-1.64c-.29-.32-.85-1.76-.77-2.64 0 0 .03-.22.25-.16 0 0 3.176 1.45 5.34 2.24 2.17.79 4.06 1.19 3.81 2.22 -.02.08-.08.21-.15.37Z"/></svg>