<svg viewBox="0 0 24 24" xmlns="http://www.w3.org/2000/svg"><path fill="none" d="M0 0h24v24H0Z"/><path d="M10.076 11c.6 0 1.08.45 1.07 1 0 .55-.48 1-1.08 1 -.59 0-1.08-.45-1.08-1s.47-1 1.07-1Zm3.84 0c.6 0 1.07.45 1.07 1s-.48 1-1.08 1c-.59 0-1.08-.45-1.08-1s.47-1 1.07-1Zm4.96-9c1.16 0 2.1.96 2.1 2.16v18.837l-2.22-2 -1.25-1.18 -1.32-1.25 .54 1.94H5.06c-1.17-.001-2.109-.97-2.109-2.17V4.13c0-1.2.94-2.17 2.109-2.17H18.84Zm-3.97 13.713c2.27-.08 3.14-1.596 3.14-1.596 0-3.39-1.49-6.13-1.49-6.13 -1.48-1.133-2.89-1.11-2.89-1.11l-.15.16c1.74.54 2.56 1.33 2.56 1.33v0c-.96-.54-2.01-.89-3.096-1.01V7.35c-.7-.08-1.39-.08-2.08.02 -.07 0-.12.01-.18.02 -.36.03-1.24.16-2.34.66 -.38.17-.61.3-.61.3s.85-.83 2.7-1.38l-.11-.13s-1.41-.04-2.89 1.1c0 0-1.49 2.74-1.49 6.12 0 0 .86 1.52 3.13 1.596 0 0 .38-.48.69-.88 -1.31-.4-1.8-1.24-1.8-1.24s.1.07.28.17c.01.01.02.02.04.03 .03.02.06.03.09.05 .25.14.51.26.75.35 .42.16.92.33 1.513.45v0c.87.17 1.78.17 2.66.01v0c.51-.1 1.01-.25 1.49-.46 .36-.14.76-.34 1.18-.62 0 0-.52.86-1.862 1.25 .3.39.68.85.68.85Z"/></svg>