<svg viewBox="0 0 24 24" xmlns="http://www.w3.org/2000/svg"><path fill="none" d="M0 0h24v24H0Z"/><path d="M16.31 19.138h4.06v-.001c.34-.01.62.27.62.61 0 0 0 0 0 0v.62 0c0 .34-.28.62-.62.62 -.01 0-.01 0-.01 0H3.6v0c-.35 0-.62-.28-.62-.62v-.63 0c-.01-.35.27-.63.61-.63 0-.01 0-.01 0-.01h3.75l-.96-3.11h2.19v0c.26-.01.5.17.59.42l.89 2.67h3.51l1.22-4.035H5.12v0c-.35 0-.62-.28-.62-.62V7.28v0c0-.35.27-.62.62-.62H18.78v0c.34 0 .62.27.62.62v7.13 0c-.001.34-.28.62-.62.62h-1.29l-1.23 4.035ZM3.92 3h16.13v0c.34-.001.62.27.62.62v.62 0c0 .34-.28.62-.62.62 -.01 0-.01 0-.01 0H3.9v0c-.35 0-.62-.28-.62-.62v-.63 0c-.01-.35.27-.62.61-.62Zm3.25 5.586v-.001c-.09-.01-.16.06-.16.15 -.01 0-.01 0-.01 0v4.035c0 .08.07.15.15.15h9.62c.08 0 .15-.07.15-.16V8.72v0c0-.09-.07-.16-.16-.16 -.01-.01-.01 0-.01 0H7.13Z"/></svg>