<svg viewBox="0 0 24 24" xmlns="http://www.w3.org/2000/svg"><path fill="none" d="M0 0h24v24H0Z"/><path d="M19.98 11.57v0c-.09-1.58-.63-3.09-1.58-4.36v0c-.29.3-.6.6-.92.87v-.001c-1 .82-2.12 1.5-3.32 2.01 .16.35.32.68.45 1v0 0c.03.08.07.17.11.27 1.51-.17 3.11-.11 4.65.1 .2.02.4.05.58.08Zm-9.39-7.45l-.001-.001c.97 1.37 1.87 2.79 2.692 4.27 1.22-.49 2.234-1.09 3.04-1.77v0c.28-.24.54-.49.79-.76v0c-1.44-1.22-3.26-1.88-5.14-1.87l-.001-.001c-.47-.01-.94.04-1.4.12ZM4.23 9.99l0 0c.68-.02 1.36-.06 2.04-.13l0-.001c1.63-.15 3.26-.43 4.86-.83l-.001 0c-.84-1.45-1.74-2.87-2.7-4.227h0c-2.09 1.03-3.62 2.92-4.21 5.17Zm1.53 7.038c.38-.57.89-1.205 1.57-1.9 1.45-1.49 3.17-2.65 5.15-3.29l.06-.02c-.17-.37-.32-.69-.48-1 -1.84.53-3.77.86-5.7 1.04 -.94.08-1.79.12-2.403.12l-.001-.001c-.01 1.83.62 3.6 1.78 5.03Zm9.22 2.38h0c-.39-1.95-.94-3.86-1.64-5.71 -2.01.72-3.6 1.79-4.83 3.05h0c-.5.5-.94 1.05-1.32 1.65H7.18c1.37 1.02 3.05 1.58 4.77 1.58v0c1.02 0 2.05-.2 3-.59Zm1.87-1.08v0c1.56-1.21 2.62-2.94 2.98-4.87 -.34-.09-.78-.17-1.25-.24v0c-1.06-.16-2.13-.17-3.18-.04l-.001 0c.59 1.67 1.07 3.39 1.43 5.14Zm-4.878 3.66c-5.523 0-10-4.477-10-10s4.477-10 10-10 10 4.477 10 10 -4.477 10-10 10Z"/></svg>