<svg viewBox="0 0 24 24" xmlns="http://www.w3.org/2000/svg"><path fill="none" d="M0 0h24v24H0Z"/><path d="M8.63 7.754c-.22.2-.55.21-.75.21H5.77c-.61 0-.98 0-1.22.03 -.14.01-.3.08-.39.11 -.04.01-.04 0-.02-.02l4.81-4.94c.01-.02.03-.02.01.01v0c-.06.12-.1.25-.12.38 -.04.24-.04.61-.04 1.23v2.21c0 .2-.02.53-.22.74Zm4.68 14.184c-.56-.37-.86-.85-.98-1.15h-.001c-.12-.3-.18-.61-.19-.92l0 0c0-1.39 1.12-2.51 2.5-2.51 .41 0 .74.33.74.74v0c0 .26-.15.51-.38.64v0c-.09.04-.19.08-.28.1 -.09.01-.4.05-.55.18h0c-.19.14-.29.35-.3.58v0c-.01.24.09.47.26.64 .29.29.69.46 1.12.46h0c1.12-.01 2.03-.92 2.02-2.05 -.01-.01-.01-.01-.01-.01 0-1.02-.68-1.92-1.57-2.311 -.14-.07-.35-.12-.55-.17h-.001c-.17-.04-.33-.07-.5-.09 -.7-.09-2.43-.64-2.54-2.18 0 0-.51 2.32-1.54 2.96 -.1.05-.23.1-.38.13s-.32.05-.37.05c-1.67.1-3.43-.44-4.65-1.7 0 0-.83-.69-1.26-2.6 -.1-.47-.3-1.298-.42-2.08 -.05-.29-.07-.5-.09-.7 0-.82.49-1.37 1.12-1.45H7.87c.57 0 .907-.15 1.12-.35 .28-.266.34-.649.34-1.1V3.53c.08-.62.62-1.14 1.43-1.14h.39c.16 0 .36.01.54.03 .13.01.24.05.44.1 1 .25 1.22 1.28 1.22 1.28l2.85.5c.907.16 3.15.31 3.57 2.59 1 5.42.39 10.67.34 10.67 -.71 5.12-4.94 4.87-4.94 4.87h-.001c-.73.01-1.44-.21-2.03-.62Zm2.622-10.31c-.04.08-.07.18-.05.23 .01.05.05.06.08.08 .19.1.52.15 1 .2 .47.05.8.08 1.02.05 .03 0 .06-.02.1-.07 .03-.05.01-.15.01-.24 -.05-.45-.47-.79-1.01-.85 -.55-.05-1.01.16-1.18.58Z"/></svg>