<svg viewBox="0 0 24 24" xmlns="http://www.w3.org/2000/svg"><path fill="none" d="M0 0h24v24H0Z"/><path d="M21 3c.55 0 1 .44 1 1v16c0 .55-.45 1-1 1H3c-.552 0-1-.45-1-1V4c0-.552.44-1 1-1h18ZM10.48 4.99L4 4.99v14h8.74c-.07-.35-.12-.69-.17-1.02 -.3.01-.5.02-.59.02 -2.208 0-4.398-.73-6.555-2.17l1.11-1.67c1.84 1.22 3.65 1.83 5.44 1.83 .13 0 .26-.01.39-.01 -.03-.5-.03-1.41 0-1.99H9.45v-1c0-3.28.32-5.94.98-8.001Zm2.12 0c-.67 1.58-1.05 4.411-1.09 7h3.12l-.14 1.12c-.11.8-.14 1.64-.11 2.52 1.013-.3 2.03-.79 3.06-1.48l1.11 1.66c-1.32.88-2.66 1.49-4 1.84 .05.43.13.87.21 1.32l5.21 0v-14l-7.4-.01Zm-5.6 2c.55 0 1 .44 1 1v1c0 .55-.45 1-1 1 -.56 0-1-.45-1-1v-1c0-.56.44-1 1-1Zm10 0c.55 0 1 .44 1 1v1c0 .55-.45 1-1 1 -.56 0-1-.45-1-1v-1c0-.56.44-1 1-1Z"/></svg>