<svg viewBox="0 0 24 24" xmlns="http://www.w3.org/2000/svg"><path fill="none" d="M0 0h24v24H0Z"/><path d="M12 2c5.523 0 10 4.477 10 10s-4.477 10-10 10C6.477 22 2 17.523 2 12c0-1.47.31-2.86.88-4.106 .46-.94 1.23-1.88 1.85-2.194 -.66 1.28-.98 2.54-1.04 3.383 .45-1.5 1.31-2.76 2.52-3.644 2.06-1.52 4.84-1.59 5.95-.62 -2.06.7-4.296 3.54-3.81 6.876 .08.55.24 1.08.48 1.58 -.39-1.01-.42-2.433.2-3.36 .69-1.03 1.67-1.25 2.2-1.14 -.21-.05-.67.83-.74.99 -.18.39-.26.82-.26 1.25h0c.01.89.38 1.75 1.03 2.38 1.92 1.87 5.023 1.13 6.41-1.01 .95-1.471 1.06-3.968-.16-5.952h0c-.31-.49-.67-.93-1.09-1.32C14.57 3.34 11.94 2.54 9.43 2.9c-1.11.17-2.05.496-2.824.956 1.085-1.09 3.24-1.89 5.33-1.89Z"/></svg>