<svg viewBox="0 0 24 24" xmlns="http://www.w3.org/2000/svg"><path fill="none" d="M0 0h24v24H0Z"/><path d="M5.883 18.653c-.3-.2-.56-.46-.86-.82l-.001-.001c-.16-.2-.32-.39-.47-.58 -.47-.58-.76-.84-1.057-.95h0c-.52-.19-.8-.76-.61-1.28 .18-.52.75-.8 1.27-.61 .75.27 1.26.73 1.947 1.58 -.1-.12.34.42.43.53 .19.22.33.36.44.43 .2.13.58.19 1.15.14 .02-.39.09-.76.2-1.1 -2.97-.73-4.65-2.64-4.65-6.4 0-1.24.37-2.356 1.05-3.292 -.22-.9-.19-1.98.3-3.192v0c.11-.28.34-.5.63-.59 .08-.03.12-.04.2-.05 .8-.13 1.93.17 3.41 1.096l-.001 0c.88-.21 1.78-.31 2.68-.31 .91 0 1.81.1 2.68.3 1.47-.94 2.61-1.226 3.42-1.096 .08.01.15.03.21.05v0c.28.09.5.3.61.58 .48 1.21.52 2.297.3 3.19 .69.93 1.05 2.045 1.05 3.29 0 3.75-1.68 5.66-4.65 6.39 .125.41.19.87.19 1.38h0c0 .9-.01 1.81-.02 2.71v0c.53.11.88.65.76 1.19 -.09.38-.4.69-.79.76 -1.14.22-1.99-.54-1.99-1.53l0-.45 0-.71c0-.71 0-1.34 0-2 0-.7-.19-1.16-.43-1.36 -.67-.57-.33-1.66.54-1.76 2.96-.34 4.337-1.49 4.337-4.66 0-.96-.32-1.75-.92-2.404l-.001 0c-.26-.29-.34-.69-.19-1.05 .16-.42.23-.96.09-1.62l-.01 0c-.5.13-1.11.44-1.86.94v0c-.25.16-.55.21-.84.13V5.52c-.85-.24-1.72-.36-2.6-.35 -.89 0-1.78.11-2.6.35v0c-.29.07-.59.03-.83-.14 -.76-.51-1.38-.81-1.87-.95 -.15.65-.08 1.19.09 1.6v0c.14.35.06.76-.19 1.045 -.6.65-.92 1.45-.92 2.404 0 3.17 1.37 4.32 4.32 4.66 .86.09 1.2 1.17.54 1.74 -.2.16-.43.73-.43 1.36v3.15c0 .98-.84 1.72-1.96 1.52v-.001c-.55-.1-.91-.62-.82-1.16 .07-.4.37-.72.77-.81v-.99c-.91.06-1.662-.09-2.26-.49Z"/></svg>