<svg viewBox="0 0 24 24" xmlns="http://www.w3.org/2000/svg"><path fill="none" d="M0 0h24v24H0Z"/><path d="M18.328 4.256l-1.43 1.423c-3.138-2.45-7.677-2.22-10.57.66 -2.38 2.37-2.944 5.86-1.71 8.78l2.417-2.417c-.22-1.51.258-3.09 1.41-4.25 1.71-1.71 4.35-1.93 6.29-.64l-1.47 1.46c-1.12-.532-2.49-.34-3.42.58 -.93.923-1.12 2.29-.59 3.41l-6.45 6.45c-.04-3.5-.6-4.82-.79-6.702 -.31-2.894.657-5.9 2.87-8.112 3.66-3.67 9.471-3.89 13.4-.673Zm2.83 0c.03 3.5.59 4.81.78 6.7 .3 2.894-.657 5.89-2.875 8.11 -3.67 3.66-9.471 3.89-13.4.67l1.42-1.43c3.138 2.442 7.677 2.22 10.562-.67 2.37-2.38 2.94-5.87 1.71-8.78l-2.42 2.417c.21 1.5-.26 3.08-1.42 4.24 -1.71 1.71-4.36 1.92-6.3.63l1.46-1.47c1.11.532 2.49.33 3.41-.59 .92-.923 1.12-2.3.58-3.42l6.45-6.45Z"/></svg>