<svg viewBox="0 0 24 24" xmlns="http://www.w3.org/2000/svg"><path fill="none" d="M0 0h24v24H0Z"/><path d="M12 9v0c-1.66 0-3 1.34-3 3 0 1.65 1.34 3 3 3v0c1.65 0 3-1.35 3-3 0-1.66-1.35-3-3-3Zm0-2v0c2.76 0 5 2.23 5 5 0 2.76-2.24 5-5 5v0c-2.77 0-5-2.24-5-5 0-2.77 2.23-5 5-5Zm6.5-.25v0c0 .69-.56 1.25-1.25 1.25 -.7 0-1.25-.56-1.25-1.25v0c0-.7.55-1.25 1.25-1.25 .69 0 1.25.55 1.25 1.25ZM12 4c-2.474 0-2.878 0-4.029.05 -.79.03-1.31.14-1.798.33 -.44.16-.75.36-1.08.7v0c-.32.3-.56.67-.71 1.08 -.19.49-.3 1.01-.34 1.798 -.06 1.104-.06 1.49-.06 4.02 0 2.474 0 2.878.05 4.029 .03.78.14 1.31.33 1.79 .17.43.37.74.702 1.08 .33.33.65.53 1.08.7 .49.19 1.02.29 1.8.33 1.1.05 1.49.05 4.02.05 2.474 0 2.878-.01 4.029-.06 .782-.04 1.3-.15 1.79-.34 .43-.17.74-.37 1.08-.71 .33-.34.53-.65.7-1.08 .19-.5.29-1.02.33-1.8 .05-1.11.05-1.49.05-4.029 0-2.474-.01-2.878-.06-4.029 -.04-.782-.15-1.31-.34-1.798l-.001 0c-.16-.41-.4-.78-.71-1.08v0c-.31-.32-.68-.56-1.08-.71 -.49-.19-1.02-.3-1.8-.34 -1.11-.06-1.49-.06-4.03-.06Zm0-2c2.71 0 3.05.01 4.122.06 1.06.05 1.79.21 2.42.46 .66.254 1.21.59 1.77 1.153v0c.5.49.9 1.1 1.15 1.77 .24.63.41 1.36.46 2.428 .04 1.06.06 1.4.06 4.122 0 2.71-.01 3.05-.06 4.122 -.05 1.06-.22 1.79-.47 2.42v0c-.26.66-.65 1.27-1.16 1.77V20.3c-.51.5-1.11.9-1.78 1.15 -.64.24-1.37.41-2.43.46 -1.07.04-1.41.06-4.122.06 -2.72 0-3.06-.01-4.13-.06 -1.07-.05-1.79-.22-2.428-.47v0c-.67-.26-1.28-.65-1.78-1.16v0c-.51-.5-.91-1.11-1.16-1.78 -.25-.64-.42-1.37-.47-2.43 -.05-1.07-.06-1.41-.06-4.13 0-2.72.01-3.06.06-4.13 .05-1.07.21-1.79.46-2.428l-.001 0c.25-.67.64-1.28 1.15-1.78v0c.49-.51 1.1-.91 1.77-1.16 .63-.25 1.362-.42 2.428-.47 1.06-.05 1.4-.06 4.12-.06Z"/></svg>