<svg viewBox="0 0 24 24" xmlns="http://www.w3.org/2000/svg"><path fill="none" d="M0 0h24v24H0Z"/><path d="M5.678 18.123C3.088 16.56 1.5 14.1 1.5 11.4c0-4.71 4.748-8.41 10.5-8.41 5.75 0 10.5 3.7 10.5 8.4s-4.75 8.4-10.5 8.4c-.45 0-.89-.03-1.32-.07l-3.77 2.45c-.62.32-.96.42-1.49.06 -.62-.43-.6-.9-.39-1.56l.62-2.59ZM3.5 11.4c0 2.13 1.41 4.12 3.78 5.32l.7.35 -.19.77 -.41 1.64 2.8-1.83 .36.04c.47.06.952.09 1.43.09 4.74 0 8.5-2.93 8.5-6.41s-3.76-6.41-8.5-6.41c-4.741 0-8.5 2.93-8.5 6.4Zm14.407-.35l1.51 2.15V13.2c.14.21.09.5-.12.65 -.22.14-.51.09-.66-.12l-1.43-2.04 -.43.41v1.36 0c0 .26-.22.47-.48.47 -.27 0-.48-.22-.48-.48V12.01h0c-.02-.08-.02-.15-.001-.23V9.22v0c0-.27.21-.48.47-.48s.47.21.47.47v1.54l1.92-1.87v0c.19-.18.49-.16.66.03 .16.18.16.46-.02.64l-1.47 1.423Zm-2.958 1.92v0c.26 0 .47.21.47.47s-.22.47-.48.47h-1.94v0c-.27-.01-.48-.22-.48-.48V9.27h-.001c-.02-.27.18-.49.44-.5 .26-.02.48.18.49.44 0 .01 0 .02 0 .04v3.68h1.46Zm-5.86-1.1h1.33l-.64-1.71 -.7 1.7Zm2.52.48l.34.92v0c.09.24-.02.51-.26.61 -.25.09-.52-.02-.62-.26 -.01-.01-.01-.02-.01-.03l-.3-.8H8.68l-.34.81v0c-.1.24-.38.35-.62.25 -.25-.1-.36-.38-.26-.62l1.66-4.08H9.12c.1-.28.36-.45.65-.45h0c.28.01.53.2.62.47l1.04 2.8v0c.08.08.12.2.12.32l-.01.01ZM8.27 9.27c0 .26-.21.47-.48.47H6.65v3.73 0c0 .26-.22.47-.48.47 -.27 0-.48-.22-.48-.48V9.72H4.53v0c-.27 0-.48-.22-.48-.48 0-.27.21-.48.47-.48H7.77c.26 0 .47.21.47.47Z"/></svg>