<svg viewBox="0 0 24 24" xmlns="http://www.w3.org/2000/svg"><path fill="none" d="M0 0h24v24H0Z"/><path d="M18.663 10.84v0c-.01.29-.24.52-.53.52h-1.47v.93h1.46v0c.28-.02.53.21.54.5 .01.28-.22.53-.51.54 -.02 0-.04 0-.05 0h-1.99v0c-.29-.01-.53-.24-.53-.53V8.82c0-.29.23-.53.52-.53h1.98 0c.28 0 .52.23.52.52 -.01.28-.24.52-.53.52h-1.47v.93h1.46c.29 0 .52.23.52.52Zm-4.1 2.48v0c-.06.01-.11.02-.17.02l0-.001c-.17 0-.33-.08-.43-.21l-2.04-2.77v2.45 -.001c-.03.28-.28.5-.57.48 -.26-.02-.47-.23-.49-.49V8.81 8.81c-.01-.29.23-.53.52-.53 .16 0 .31.08.41.21l2.05 2.77V8.79c0-.29.23-.53.52-.53 .28 0 .52.23.52.52v3.97h0c-.01.22-.15.42-.36.49Zm-4.95.02h-.001c-.29-.01-.53-.24-.53-.53V8.83c0-.29.23-.53.52-.53 .28 0 .52.23.52.52v3.97 0c-.01.28-.24.52-.53.52Zm-1.53 0h-1.99l0 0c-.29-.01-.53-.24-.53-.53V8.83H5.56c.02-.29.28-.51.57-.48 .25.02.45.22.47.47v3.45h1.46v0c.28 0 .52.23.52.52 0 .28-.24.52-.53.52Zm3.91-10.78c-5.513 0-10 3.64-10 8.11 0 4.01 3.558 7.369 8.36 8 .32.06.76.21.88.49 .1.25.06.63.03.9l-.14.85c-.04.25-.2.98.87.53 1.07-.45 5.76-3.4 7.86-5.82 1.436-1.58 2.12-3.19 2.12-4.98 0-4.48-4.49-8.12-10-8.12Z"/></svg>