<svg viewBox="0 0 24 24" xmlns="http://www.w3.org/2000/svg"><path fill="none" d="M0 0h24v24H0Z"/><path d="M3.01 12.008c-.04-1.26-.02-2.45-.02-3.442 0-4.34 2.84-5.61 2.84-5.61 1.43-.66 3.89-.94 6.45-.96h.06c2.55.02 5.01.29 6.45.956 0 0 2.84 1.27 2.84 5.61 0 0 .03 3.2-.4 5.42 -.28 1.41-2.46 2.95-4.97 3.25 -1.31.15-2.6.3-3.97.23 -2.25-.11-4.02-.54-4.02-.54 0 .21.01.42.04.62 .08.63.29 1.09.6 1.43 .76.85 2.106.93 3.39.97 1.82.06 3.44-.45 3.44-.45l.07 1.64s-1.28.68-3.55.81c-1.25.06-2.81-.04-4.612-.51 -1.532-.41-2.57-1.29-3.27-2.471 -1.093-1.843-1.37-4.41-1.431-7Zm3.3 4.93V14.39l2.47.6v0c.43.09.86.17 1.3.24 .75.11 1.53.2 2.32.23 1.01.04 1.9-.02 3.63-.23 1.66-.2 3.14-1.2 3.23-1.65 .08-.43.15-.93.2-1.49v0c.07-.75.11-1.5.13-2.25 .01-.51.02-.95.01-1.26v-.06c0-1.43-.37-2.44-.97-3.16V5.35c-.17-.21-.37-.4-.59-.548 -.09-.07-.14-.09-.13-.09 -1.02-.47-3.1-.76-5.62-.78h-.05c-2.54.02-4.62.3-5.65.782 .02-.01-.03.01-.12.07H6.46c-.22.15-.42.34-.59.548 -.6.72-.97 1.72-.97 3.15 0 .23 0 .39-.01.875l0 0c-.01.83-.01 1.67.01 2.51 .05 2.19.26 3.83.7 5.041 .21.58.47 1.07.78 1.45h0c-.13-.5-.19-1-.18-1.51ZM8.07 6.36v0c.63 0 1.14.51 1.14 1.14 0 .63-.52 1.14-1.15 1.14v0c-.64 0-1.15-.52-1.15-1.15 0-.64.51-1.15 1.14-1.15Z"/></svg>