<svg viewBox="0 0 24 24" xmlns="http://www.w3.org/2000/svg"><path fill="none" d="M0 0h24v24H0Z"/><path d="M4 3h16v0c.55 0 1 .44 1 1v16 0c0 .55-.45 1-1 1H4v0c-.56 0-1-.45-1-1V4v0c0-.56.44-1 1-1Zm1 2v14h14V5H5Zm12.3 10.94l.95.95v.05h-4.93v-.05l1-.96c.1-.1.15-.2.15-.36V9.64c0-.26 0-.61.05-.91L11.2 17.01h-.05L7.73 9.37c-.05-.2-.1-.2-.15-.3v5.02c-.06.35 0 .65.15.95l1.35 1.8v.05h-3.62v-.05l1.35-1.86c.15-.3.2-.66.15-.96V8.49c0-.26-.05-.56-.25-.76L5.8 6.47v-.05h3.51l2.91 6.47 2.56-6.48h3.41v.05l-.96 1.1c-.1.1-.15.25-.15.35v7.63c0 .1.05.25.15.3Z"/></svg>