<svg viewBox="0 0 24 24" xmlns="http://www.w3.org/2000/svg"><path fill="none" d="M0 0h24v24H0Z"/><path d="M4 3h16v0c.55 0 1 .44 1 1v16 0c0 .55-.45 1-1 1H4v0c-.56 0-1-.45-1-1V4v0c0-.56.44-1 1-1Zm13.3 12.94c-.1-.05-.15-.2-.15-.31V7.99c0-.1.05-.25.15-.351l.95-1.11v-.05h-3.42l-2.56 6.47 -2.92-6.48H5.83v.05l.9 1.25c.2.2.25.5.25.75v5.523c.05.3 0 .65-.15.95l-1.36 1.85v.05h3.61v-.05l-1.36-1.81c-.15-.31-.21-.61-.15-.96V9.049c.05.1.1.1.15.3l3.41 7.63h.05l3.31-8.284c-.05.3-.05.65-.05.9v5.92c0 .15-.05.25-.15.35l-1.01.95v.05h4.92v-.05l-.96-.96Z"/></svg>