<svg viewBox="0 0 24 24" xmlns="http://www.w3.org/2000/svg"><path fill="none" d="M0 0h24v24H0Z"/><path d="M7.76 19.22c.59-.26 1.25-.31 1.86-.14 .77.21 1.56.31 2.36.31 4.58 0 8-3.29 8-7.7 0-4.413-3.42-7.7-8-7.7 -4.59 0-8 3.28-8 7.7 0 2.27.89 4.272 2.46 5.67H6.43c.57.51.91 1.23.94 2l.35-.16Zm4.23-17.23c5.634 0 10 4.12 10 9.7 0 5.573-4.366 9.7-10 9.7v0c-.98 0-1.96-.13-2.9-.39v0c-.18-.05-.37-.04-.54.03l-1.984.87v0c-.41.17-.88-.01-1.06-.41 -.05-.1-.07-.2-.07-.3l-.06-1.78v0c-.01-.22-.11-.43-.27-.57 -1.95-1.74-3.15-4.26-3.15-7.18 0-5.573 4.36-9.7 10-9.7ZM5.985 14.52l2.93-4.66v0c.44-.71 1.36-.92 2.06-.47 .03.02.06.04.1.06l2.33 1.75v0c.21.16.5.16.72-.001l3.15-2.4c.42-.32.97.18.68.63l-2.94 4.66v0c-.45.7-1.37.91-2.07.46 -.04-.03-.07-.05-.11-.07l-2.34-1.75h0c-.22-.17-.51-.17-.73 0l-3.16 2.39c-.43.31-.98-.19-.69-.64Z"/></svg>