<svg viewBox="0 0 24 24" xmlns="http://www.w3.org/2000/svg"><path fill="none" d="M0 0h24v24H0Z"/><path d="M11.29 3.81l2.02 5.7 .39 1.11 0-4.81 .01-4.818h4.27l0 10.86c0 5.98-.01 10.89-.02 10.9 -.02 0-.21 0-.44-.03 -.99-.12-2.29-.24-3.34-.29l-.001-.001c-.22-.01-.43-.03-.64-.04 -.01-.01-.28-.77-.78-2.19v-.01L10.61 14.13l-.34-.96 -.01 4.58c-.01 4.36-.01 4.61-.06 4.61 -.17 0-1.57.09-2.04.13 -.31.02-.93.09-1.37.14 -.45.05-.82.08-.83.07 -.01-.01-.02-4.91-.02-10.9V.91h0V.9h4.28l.02.08c0 .01.06.17.15.43l.641 1.77 .17.496 -.01.02Z"/></svg>