<svg viewBox="0 0 24 24" xmlns="http://www.w3.org/2000/svg"><path fill="none" d="M0 0h24v24H0Z"/><path d="M12 2c5.523 0 10 4.477 10 10 0 4.4-2.85 8.136-6.79 9.47l-.23.07 -2.904-7.55c1.06-.05 1.91-.95 1.91-2 0-1.11-.9-2-2-2 -1.11 0-2 .89-2 2 0 1.077.85 1.955 1.91 1.99l-2.91 7.54 -.23-.08C4.807 20.1 1.96 16.367 1.96 11.96c0-5.523 4.477-10 10-10Zm0 2c-4.418 0-8 3.582-8 8 0 2.92 1.564 5.47 3.901 6.872l1.48-3.849c-.85-.74-1.39-1.82-1.39-3.03 0-2.21 1.79-4 4-4s4 1.79 4 4c0 1.2-.54 2.29-1.38 3.02 .56 1.47 1.05 2.75 1.47 3.85 2.33-1.4 3.901-3.96 3.901-6.88 0-4.418-3.59-8-8-8Z"/></svg>