<svg viewBox="0 0 24 24" xmlns="http://www.w3.org/2000/svg"><path fill="none" d="M0 0h24v24H0Z"/><path d="M14.766 19.51h-.001c4.14-1.53 6.27-6.13 4.74-10.28 -.82-2.21-2.55-3.94-4.75-4.75 1.94 1.48 3.23 4.44 3.23 7.51 0 3.06-1.29 6.02-3.234 7.51ZM9.22 4.49v0c-4.15 1.52-6.28 6.12-4.75 10.27 .81 2.2 2.54 3.93 4.74 4.74 -1.95-1.49-3.24-4.45-3.24-7.51 0-3.07 1.28-6.03 3.234-7.51ZM11.98 22c-5.523 0-10-4.477-10-10s4.477-10 10-10 10 4.477 10 10 -4.477 10-10 10Zm0-3.5c2 0 4-3.04 4-6.5 0-3.47-2-6.5-4-6.5s-4 3.03-4 6.5c0 3.46 2 6.5 4 6.5Z"/></svg>