<svg viewBox="0 0 24 24" xmlns="http://www.w3.org/2000/svg"><path fill="none" d="M0 0h24v24H0Z"/><path d="M20.067 8.478c.49.88.55 2.01.3 3.327 -.74 3.8-3.276 5.12-6.52 5.12h-.5v0c-.4 0-.74.28-.8.68l-.04.22 -.63 3.99 -.04.17v0c-.07.39-.4.67-.8.67H7.69v0c-.27-.01-.49-.22-.49-.49 0-.03 0-.06 0-.08l.17-1.11h1.51l.95-6.02h1.38c4.67 0 7.75-2.21 8.79-6.51Zm-2.96-5.09c.76.86.98 1.81.75 3.285 -.02.12-.04.24-.07.36 -.74 3.77-3.09 5.44-6.96 5.44H8.93c-.63 0-1.18.41-1.36 1l-.02-.01 -.93 5.894H3.08v0c-.03-.01-.06-.03-.06-.06 0-.01 0-.01 0-.01L5.62 2.77v0c.07-.47.47-.81.93-.81h5.97c2.183 0 3.71.46 4.523 1.388Z"/></svg>