<svg viewBox="0 0 24 24" xmlns="http://www.w3.org/2000/svg"><path fill="none" d="M0 0h24v24H0Z"/><path d="M8.49 19.19c.02-.34.07-.68.14-1.01 .06-.3.25-1.13.53-2.34l0-.03 .38-1.67c.07-.34.14-.61.18-.7v0c-.2-.45-.3-.94-.29-1.43 0-1.34.75-2.38 1.73-2.38 .36-.01.7.15.94.42 .23.27.34.64.3.99 0 .45-.09.798-.46 2.035 -.08.23-.12.4-.17.57 -.06.18-.1.35-.14.52 -.1.38-.01.79.23 1.1v0c.24.3.61.47 1 .45 1.49 0 2.6-1.99 2.6-4.548 0-1.97-1.29-3.274-3.44-3.274v0c-1.09-.05-2.14.37-2.9 1.14H9.11c-.78.78-1.21 1.85-1.2 2.96v0c-.03.59.15 1.17.51 1.64 .18.14.25.38.17.59 -.05.16-.14.55-.18.68v0c-.03.12-.11.23-.22.29v0c-.12.05-.25.05-.36 0 -1.16-.48-1.8-1.78-1.8-3.44 0-2.99 2.49-5.584 6.19-5.584 3.135 0 5.481 2.32 5.481 5.14 0 3.532-1.94 6.1-4.69 6.1h-.001c-.8.02-1.56-.34-2.05-.96l-.05.17 -.21.85 -.01 0c-.15.6-.25 1.01-.29 1.17 -.11.35-.24.7-.4 1.04v0c4.29 1.02 8.61-1.64 9.63-5.93 1.02-4.3-1.64-8.62-5.93-9.64 -4.3-1.03-8.62 1.63-9.64 5.92 -.87 3.64.9 7.39 4.27 9.04Zm3.51 2.8c-5.523 0-10-4.477-10-10s4.477-10 10-10 10 4.477 10 10 -4.477 10-10 10Z"/></svg>