<svg viewBox="0 0 24 24" xmlns="http://www.w3.org/2000/svg"><path fill="none" d="M0 0h24v24H0Z"/><path d="M11.102 7.81l.75-3.54v0c.22-1.09 1.29-1.77 2.37-1.55 0 0 0 0 0 0l3.19.68v0c.73-.83 2-.89 2.82-.15 .82.73.88 2 .14 2.82 -.74.82-2.01.88-2.83.14 -.27-.24-.46-.54-.57-.87l-3.2-.68 -.67 3.135c1.78.13 3.55.73 5.16 1.7v0c1.54-.86 3.48-.31 4.34 1.23 .24.43.38.93.4 1.43v.02 0c.01.99-.44 1.93-1.21 2.55v0c-.01.04-.01.08-.01.12 0 3.99-4.45 7.03-9.799 7.03 -5.34 0-9.71-3.03-9.705-6.96l0 0c-.01-.07-.01-.13-.01-.19H2.26c-1.41-1.06-1.7-3.06-.64-4.47 .95-1.28 2.69-1.65 4.09-.89v0c1.61-.98 3.44-1.54 5.32-1.63Zm9.28 5.526c.4-.21.66-.62.66-1.08v0c-.03-.66-.59-1.17-1.25-1.14 -.29.01-.57.13-.78.33l-.59.56 -.67-.46c-1.62-1.1-3.452-1.73-5.23-1.77h-1.01c-1.875.02-3.651.6-5.237 1.67l-.67.45 -.59-.55v0c-.48-.46-1.24-.43-1.69.05 -.46.47-.43 1.23.05 1.68 .09.08.2.16.31.21l.63.29 -.06.69c-.02.17-.02.33 0 .58 0 2.71 3.356 5.03 7.708 5.03 4.37 0 7.79-2.34 7.802-5.106v0c.01-.17.01-.34 0-.51l-.06-.68 .6-.3Zm-13.39.15v0c0-.83.67-1.5 1.5-1.5 .82 0 1.5.67 1.5 1.5v0c0 .82-.68 1.5-1.5 1.5 -.83 0-1.5-.68-1.5-1.5Zm7 0v0c0-.83.67-1.5 1.5-1.5 .82 0 1.5.67 1.5 1.5v0c0 .82-.68 1.5-1.5 1.5 -.83 0-1.5-.68-1.5-1.5ZM12 18.586c-1.4 0-2.77-.37-3.89-1.21H8.11c-.15-.19-.13-.45.05-.6 .15-.13.38-.13.54 0 .94.69 2.12.99 3.269.99 1.14 0 2.33-.28 3.28-.96l0 0c.17-.17.45-.17.62 0 .05.05.09.12.11.19v0c.03.15-.02.31-.12.42 -.69.79-2.484 1.14-3.89 1.14Z"/></svg>