<svg viewBox="0 0 24 24" xmlns="http://www.w3.org/2000/svg"><path fill="none" d="M0 0h24v24H0Z"/><path d="M6.36 6l8.78 9.663 .72-.29c1.68-.67 2.86-2.16 3.09-3.9v0c-3.38.23-6.37-2.15-6.89-5.49H6.34Zm7.63-1v0c-.01 2.48 2.01 4.5 4.49 4.5 .77 0 1.53-.21 2.21-.59 .18.61.28 1.27.28 1.94 0 2.891-1.83 5.36-4.4 6.37l3.4 3.75h-17v-17h11.11l-.001-.001c-.08.32-.12.66-.12 1Zm4.5 2.5v0c-1.39 0-2.5-1.12-2.5-2.5 0-1.39 1.11-2.5 2.5-2.5v0c1.38 0 2.5 1.11 2.5 2.5 0 1.38-1.12 2.5-2.5 2.5Zm-13.5-.03V19h10.48L4.99 7.47Z"/></svg>