<svg viewBox="0 0 24 24" xmlns="http://www.w3.org/2000/svg"><path fill="none" d="M0 0h24v24H0Z"/><path d="M17.812 6.503l-4.398 6.91 -6.92 4.398H6.49c1.23 1.17 2.8 1.91 4.497 2.12v-1.94h2v1.93 -.001c1.42-.18 2.77-.74 3.9-1.62l-1.37-1.37 1.41-1.42 1.37 1.37v0c.88-1.14 1.44-2.49 1.61-3.91h-1.94v-2h1.93 0c-.22-1.69-.96-3.27-2.13-4.5Zm-.32-.32v0c-1.24-1.18-2.81-1.92-4.497-2.13v1.93h-2V4.04v0c-1.43.17-2.78.73-3.91 1.61l1.37 1.37 -1.42 1.41 -1.37-1.37V7.06c-.89 1.13-1.45 2.48-1.62 3.9h1.93v2H4.03l0 0c.21 1.68.95 3.26 2.12 4.49l4.39-6.92 6.91-4.398ZM11.99 21.99c-5.523 0-10-4.477-10-10s4.477-10 10-10 10 4.477 10 10 -4.477 10-10 10Z"/></svg>