<svg viewBox="0 0 24 24" xmlns="http://www.w3.org/2000/svg"><path fill="none" d="M0 0h24v24H0Z"/><path d="M6.52 14.514v0c-.01 1.08-.89 1.96-1.97 1.96v0c-1.09-.01-1.97-.89-1.97-1.97 0-1.09.88-1.968 1.96-1.968h1.968v1.968Zm.992 0c0-1.09.88-1.968 1.96-1.968s1.968.88 1.968 1.968v4.927 -.001c-.01 1.08-.89 1.96-1.968 1.96v0c-1.09-.01-1.97-.89-1.97-1.97v-4.927Zm1.96-7.987v0c-1.09-.01-1.97-.89-1.97-1.97 0-1.09.88-1.97 1.96-1.97s1.968.88 1.968 1.96v1.968H9.46Zm0 .992c1.08 0 1.968.88 1.968 1.96v0c-.01 1.08-.89 1.96-1.968 1.968h-4.93 -.001c-1.09-.01-1.97-.89-1.97-1.968 0-1.09.88-1.97 1.967-1.97h4.927Zm7.987 1.96c0-1.09.88-1.97 1.968-1.97 1.08 0 1.96.88 1.96 1.96v0c-.01 1.08-.89 1.96-1.97 1.968h-1.968V9.46Zm-1 0v0c-.01 1.08-.89 1.96-1.97 1.968v0c-1.09-.01-1.97-.89-1.968-1.97V4.54c0-1.09.88-1.97 1.968-1.97 1.08 0 1.96.88 1.96 1.96v4.92Zm-1.97 7.987c1.08 0 1.96.88 1.96 1.968v0c-.01 1.08-.89 1.96-1.97 1.96v0c-1.09-.01-1.97-.89-1.968-1.97V17.45h1.968Zm0-1v0c-1.09-.01-1.97-.89-1.968-1.97 0-1.09.88-1.968 1.968-1.968h4.92c1.08 0 1.96.88 1.96 1.968v0c-.01 1.08-.89 1.96-1.97 1.96H14.47Z"/></svg>