<svg viewBox="0 0 24 24" xmlns="http://www.w3.org/2000/svg"><path fill="none" d="M0 0h24v24H0Z"/><path d="M21 3c.55 0 1 .44 1 1v16c0 .55-.45 1-1 1H3c-.552 0-1-.45-1-1V4c0-.552.44-1 1-1h18Zm-4.21 2.62c-1.02 0-1.87.67-2.14 1.6h-2l-2.46 4.18H8.75c-.27-.93-1.13-1.6-2.133-1.6 -1.226 0-2.221.99-2.221 2.22 0 1.22.99 2.22 2.221 2.22 1.01 0 1.86-.68 2.133-1.6h1.471l2.417 4.13h2.01c.26.92 1.12 1.6 2.13 1.6 1.22 0 2.22-1 2.22-2.221 0-1.23-1-2.23-2.23-2.23 -1.01 0-1.87.67-2.14 1.6H13.3l-2.06-3.54 2.05-3.54h1.31c.27.92 1.12 1.6 2.13 1.6 1.22 0 2.22-1 2.22-2.221 0-1.23-1-2.23-2.23-2.23Zm.01 9.427c.64 0 1.16.52 1.16 1.16 0 .64-.53 1.16-1.17 1.16 -.57 0-1.04-.41-1.15-.94 0 0-.04-.23 0-.46 .1-.54.57-.94 1.14-.94Zm-10.16-4.21c.64 0 1.16.52 1.16 1.16 0 .64-.524 1.16-1.17 1.16 -.65 0-1.17-.53-1.17-1.17 0-.65.52-1.17 1.16-1.17Zm10.15-4.21c.64 0 1.16.52 1.16 1.16 0 .64-.53 1.16-1.17 1.16 -.57 0-1.04-.41-1.15-.95 -.03-.21 0-.45 0-.45 .1-.55.57-.95 1.14-.95Z"/></svg>