<svg viewBox="0 0 24 24" xmlns="http://www.w3.org/2000/svg"><path fill="none" d="M0 0h24v24H0Z"/><path d="M12 3v18H7.6v0C5.05 21 3 18.94 3 16.4V7.6v0C3 5.05 5.05 3 7.6 3H12Zm-2 2H7.6v0C6.16 5 5 6.16 5 7.6v8.8 0C5 17.83 6.16 19 7.6 19H10V5Zm-2.5 5v0C6.67 10 6 9.32 6 8.5 6 7.67 6.67 7 7.5 7v0C8.32 7 9 7.67 9 8.5c0 .82-.68 1.5-1.5 1.5ZM14 3h2.4v0c2.54-.001 4.6 2.05 4.6 4.6v8.8 0c0 2.54-2.06 4.6-4.6 4.6H14V3Zm3 11.7v-.001c.99 0 1.8-.81 1.8-1.8 0-1-.81-1.8-1.8-1.8 -.01-.001-.01-.001-.01 0v0c-1 0-1.8.8-1.8 1.8 0 .99.8 1.8 1.8 1.8Z"/></svg>