<svg viewBox="0 0 24 24" xmlns="http://www.w3.org/2000/svg"><path fill="none" d="M0 0h24v24H0Z"/><path d="M22.162 5.65l-.001-.001c-.77.33-1.58.55-2.41.65v0c.87-.53 1.52-1.35 1.84-2.32 -.82.48-1.72.83-2.66 1.01v-.001c-1.58-1.69-4.23-1.78-5.92-.2 -1.1 1.02-1.56 2.55-1.22 4.01v0c-3.37-.17-6.5-1.76-8.62-4.37H3.17c-.38.63-.57 1.36-.57 2.1 0 1.45.73 2.731 1.86 3.481v0c-.67-.03-1.32-.21-1.9-.53v.05H2.55c0 1.99 1.4 3.7 3.35 4.1v0c-.62.16-1.27.19-1.89.07l-.001 0c.54 1.7 2.11 2.87 3.9 2.9v0c-1.76 1.37-3.98 1.99-6.2 1.73h0c1.91 1.22 4.13 1.88 6.41 1.88 7.693 0 11.9-6.38 11.9-11.9 0-.18-.01-.37-.02-.54v0c.81-.6 1.52-1.33 2.08-2.165Z"/></svg>