<svg viewBox="0 0 24 24" xmlns="http://www.w3.org/2000/svg"><path fill="none" d="M0 0h24v24H0Z"/><path d="M1 4h22v2H1V4Zm0 14h22v2H1v-2Zm18.622-3.09l-.18-.87h-1.95l-.31.86 -1.57 0c1-2.41 1.75-4.19 2.23-5.35 .12-.31.35-.46.68-.46 .25 0 .66 0 1.24 0l1.2 5.805 -1.38 0Zm-1.69-2.07h1.25l-.47-2.18 -.79 2.18ZM7.86 9.09l1.57 0L7 14.89l-1.59-.01c-.54-2.07-.94-3.606-1.19-4.61 -.08-.31-.23-.53-.53-.63 -.27-.09-.71-.23-1.315-.42v-.16H4.88c.43 0 .68.21.76.64l.62 3.28 1.57-3.93Zm3.72 0l-1.24 5.805 -1.5-.01 1.24-5.805 1.49 0Zm3.03-.11c.44 0 1.01.13 1.33.26l-.27 1.2c-.3-.12-.78-.28-1.18-.27 -.59 0-.96.25-.96.49 0 .38.63.57 1.28.99 .74.48.84.91.83 1.37 -.01.97-.84 1.92-2.564 1.92 -.8-.02-1.08-.08-1.72-.31l.27-1.26c.65.27.93.36 1.49.36 .51 0 .95-.21.96-.57 0-.26-.16-.39-.74-.702 -.577-.32-1.39-.76-1.375-1.64 .01-1.13 1.08-1.89 2.61-1.89Z"/></svg>