<svg viewBox="0 0 24 24" xmlns="http://www.w3.org/2000/svg"><path fill="none" d="M0 0h24v24H0Z"/><path d="M5.457 18.185C3.35 16.67 2 14.395 2 11.9 2 7.31 6.47 3.59 12 3.59c5.52 0 10 3.72 10 8.308 0 4.58-4.48 8.3-10 8.3h0c-1.11 0-2.21-.15-3.28-.47 -.1-.03-.22-.03-.31-.03 -.19 0-.37.06-.53.15l-2.191 1.26h-.001c-.06.03-.12.05-.19.06h0c-.19-.01-.34-.16-.34-.34 0-.1.03-.16.06-.25 .03-.03.3-1.05.46-1.67 0-.07.03-.16.03-.22 0-.25-.1-.43-.28-.56Zm3.21-7.68c.71 0 1.28-.57 1.28-1.29 0-.718-.57-1.29-1.29-1.29 -.718 0-1.29.56-1.29 1.28 0 .71.56 1.28 1.28 1.28Zm6.66 0c.718 0 1.28-.57 1.28-1.29 0-.718-.57-1.29-1.29-1.29 -.72 0-1.29.56-1.29 1.28 0 .71.56 1.28 1.28 1.28Z"/></svg>