<svg viewBox="0 0 20 20" xmlns="http://www.w3.org/2000/svg"><path fill="none" d="M0 0h20v20H0Z"/><g><path d="M8 5.25c0-.14.11-.25.25-.25h2.5c.14 0 .25.11.25.25V8h1V4.5c0-.28-.22-.5-.5-.5h-4c-.28 0-.5.22-.5.5V7H4.5c-.28 0-.5.22-.5.5V16h1V8.25c0-.14.11-.25.25-.25H8V5.25Z"/><path d="M6 9h1v1H6Z"/><path d="M9 6h1v1H9Z"/><path d="M6 11h1v1H6Z"/><path d="M6 13h1v1H6Z"/><path d="M15.11 9.34c-.06-.2-.26-.34-.47-.34H9.36c-.21 0-.41.14-.47.34L8 12v2 .5 .5 .5c0 .28.22.5.5.5s.5-.22.5-.5V15h6v.5c0 .28.22.5.5.5s.5-.22.5-.5V15v-.5 -.5 -2l-.89-2.66ZM9.72 10h4.56l.67 2h-5.9l.67-2Zm-.22 4c-.28 0-.5-.22-.5-.5s.22-.5.5-.5 .5.22.5.5 -.22.5-.5.5Zm5 0c-.28 0-.5-.22-.5-.5s.22-.5.5-.5 .5.22.5.5 -.22.5-.5.5Z"/></g></svg>