<svg viewBox="0 0 20 20" xmlns="http://www.w3.org/2000/svg"><path fill="none" d="M0 0h20v20H0Z"/><path d="M14.91 7.07c-.01-.04-.01-.08-.02-.12 -.06-.28-.15-.56-.26-.82 -.02-.05-.04-.09-.06-.14 -.11-.26-.25-.5-.4-.74 -.03-.04-.05-.08-.08-.11 -.16-.23-.34-.46-.55-.66 -.02-.02-.03-.03-.05-.05 -.2-.2-.42-.38-.66-.54 -.02-.02-.04-.03-.06-.05 -.24-.16-.49-.29-.75-.41 -.04-.02-.09-.04-.13-.06 -.26-.11-.53-.19-.81-.25 -.05-.01-.1-.02-.15-.03 -.29-.05-.59-.08-.89-.09 -.01 0-.03 0-.04 0 -.1 0-.21.01-.31.02 -.06 0-.12 0-.18.01 -.2.01-.39.04-.58.08 -1.94.4-3.49 2-3.84 3.95 -.31 1.72.26 3.3 1.33 4.4 .36.38.58.88.58 1.41 0 .77 0 1.6 0 2.14 0 .55.45 1 1 1h.28v0c.35.6.98 1 1.72 1s1.38-.4 1.72-1v0H12c.55 0 1-.45 1-1v-2.13c0-.52.21-1.02.58-1.4C14.45 10.57 15 9.35 15 8c0-.32-.04-.63-.09-.93Zm-6.18-.34L10 8l1.27-1.27 .71.71 -1.48 1.47V11h-1V8.91L8.03 7.44l.7-.71ZM11.5 15s0 0 0 0H10v0 0H8.5v0 0c-.28 0-.5-.22-.5-.5s.22-.5.5-.5h3v0c.28 0 .5.22.5.5s-.22.5-.5.5Zm0-2v0h-3v0c-.28 0-.5-.22-.5-.5s.22-.5.5-.5v0h3v0c.28 0 .5.22.5.5s-.22.5-.5.5Z"/></svg>