<svg viewBox="0 0 24 24" xmlns="http://www.w3.org/2000/svg" xmlns:xlink="http://www.w3.org/1999/xlink"><defs><path d="M0 0h24v24H0Z" id="a"/></defs><g fill="none"><use xlink:href="#a"/><use xlink:href="#a"/></g><path d="M11.99 2C6.47 2 2 6.48 2 12c0 5.52 4.47 10 9.99 10C17.52 22 22 17.52 22 12c0-5.52-4.48-10-10.01-10ZM8.5 8c.83 0 1.5.67 1.5 1.5s-.67 1.5-1.5 1.5 -1.5-.67-1.5-1.5C7 8.67 7.67 8 8.5 8Zm8.21 6.72C15.8 16.67 14.04 18 12 18c-2.04 0-3.8-1.33-4.71-3.28 -.16-.33.08-.72.45-.72h8.52c.37 0 .61.39.45.72ZM15.5 11c-.83 0-1.5-.67-1.5-1.5s.67-1.5 1.5-1.5 1.5.67 1.5 1.5 -.67 1.5-1.5 1.5Z"/></svg>