<svg viewBox="0 0 24 24" xmlns="http://www.w3.org/2000/svg" xmlns:xlink="http://www.w3.org/1999/xlink"><defs><path d="M0 0h24v24H0Z" id="a"/></defs><g fill="none"><use xlink:href="#a"/><use xlink:href="#a"/><path d="M6 7h5v3H6Z"/><path d="M13 7h5v3h-5Z"/></g><path d="M20 10V7c0-1.1-.9-2-2-2H6c-1.1 0-2 .9-2 2v3c-1.1 0-2 .9-2 2v5h1.33l.51 1.53c.1.28.36.47.66.47v0c.3 0 .56-.19.66-.47L5.67 17h12.67l.51 1.53c.09.28.35.47.65.47v0c.3 0 .56-.19.66-.47l.51-1.53H22v-5c0-1.1-.9-2-2-2Zm-9 0H6V8c0-.55.45-1 1-1h4v3Zm7 0h-5V7h4c.55 0 1 .45 1 1v2Z"/></svg>