<svg viewBox="0 0 24 24" xmlns="http://www.w3.org/2000/svg"><path fill="none" d="M0 0h24v24H0Z"/><path d="M17 6h-2V3c0-.55-.45-1-1-1h-4c-.55 0-1 .45-1 1v3H7c-1.1 0-2 .9-2 2v11c0 1.1.9 2 2 2 0 .55.45 1 1 1s1-.45 1-1h6c0 .55.45 1 1 1s1-.45 1-1c1.1 0 2-.9 2-2V8c0-1.1-.9-2-2-2ZM8.75 18v0c-.41 0-.75-.34-.75-.75v-7.5c0-.41.34-.75.75-.75v0c.41 0 .75.34.75.75v7.5c0 .41-.34.75-.75.75ZM12 18v0c-.41 0-.75-.34-.75-.75v-7.5c0-.41.34-.75.75-.75v0c.41 0 .75.34.75.75v7.5c0 .41-.34.75-.75.75Zm1.5-12h-3V3.5h3V6Zm1.75 12v0c-.41 0-.75-.34-.75-.75v-7.5c0-.41.34-.75.75-.75v0c.41 0 .75.34.75.75v7.5c0 .41-.34.75-.75.75Z"/></svg>