<svg viewBox="0 0 20 20" xmlns="http://www.w3.org/2000/svg"><path fill="none" d="M0 0h20v20H0Z"/><g><path d="M15.66 13.88c-.14-.21-.33-.4-.54-.54 -.32-.21-.71-.34-1.12-.34 -.41 0-.8.13-1.12.34 -.21.14-.4.33-.54.54 -.03.04-.04.08-.06.12H7.72l1.36-2.09c.3.06.61.09.92.09 .31 0 .62-.03.92-.09l.77 1.19c.22-.26.47-.49.76-.66l-.54-.83c1.64-.68 2.84-2.2 3.05-4.03 .04-.31-.18-.58-.49-.58H5.53c-.31 0-.53.27-.5.58 .21 1.83 1.41 3.35 3.05 4.03l-3 4.62c-.15.23-.08.54.15.69 .23.15.54.08.69-.15L7.07 15H12c0 1.1.9 2 2 2s2-.9 2-2c0-.41-.13-.8-.34-1.12ZM14 16c-.55 0-1-.45-1-1s.45-1 1-1 1 .45 1 1 -.45 1-1 1Z"/><path d="M8.7 5.72c-.02.15.09.28.24.28 .12 0 .23-.09.24-.22 .06-.54.04-.85-.56-1.56 -.22-.26-.37-.42-.32-.96 .02-.14-.1-.26-.24-.26h-.01c-.12 0-.23.1-.24.22 -.06.58.11 1.07.56 1.56 .12.12.4.34.33.94Z"/><path d="M10.2 5.72c-.02.15.09.28.24.28 .12 0 .23-.09.24-.22 .06-.54.04-.85-.56-1.56 -.22-.26-.37-.42-.32-.96 .02-.14-.1-.26-.24-.26h-.01c-.12 0-.23.1-.24.22 -.06.58.11 1.07.56 1.56 .12.12.4.34.33.94Z"/><path d="M11.7 5.72c-.02.15.09.28.24.28 .12 0 .23-.09.24-.22 .06-.54.04-.85-.56-1.56 -.22-.26-.37-.42-.32-.96 .02-.14-.1-.26-.24-.26h-.01c-.13 0-.23.1-.24.22 -.06.57.11 1.07.56 1.56 .12.12.4.34.33.94Z"/></g></svg>