<svg viewBox="0 0 20 20" xmlns="http://www.w3.org/2000/svg"><path fill="none" d="M0 0h20v20H0Z"/><g><path d="M11.16 4.05c-2.58-.37-4.78 1.45-5.1 3.86l-1.54 2.31c-.22.33.01.78.41.78H6v2c0 .55.45 1 1 1h1v1c0 .55.45 1 1 1h3c.55 0 1-.45 1-1v-2.76c1.39-.93 2.23-2.62 1.94-4.47 -.3-1.91-1.87-3.45-3.78-3.72Zm1.17 4.62c0 .09-.01.18-.02.26l.56.44c.05.04.07.11.03.17l-.53.92c-.03.06-.1.08-.16.06l-.66-.27c-.14.1-.29.19-.45.26l-.1.71c-.01.07-.06.11-.13.11H9.8c-.07 0-.12-.05-.13-.11l-.1-.71c-.16-.07-.31-.15-.45-.26l-.66.27c-.06.02-.13 0-.16-.06l-.54-.92c-.03-.06-.02-.13.03-.17l.56-.44c-.01-.09-.02-.18-.02-.26 0-.08.01-.18.02-.26l-.56-.44c-.05-.04-.06-.11-.03-.17l.53-.92c.03-.06.1-.08.16-.06l.66.27c.14-.1.29-.19.45-.26l.1-.71c.02-.07.07-.12.14-.12h1.07c.07 0 .12.05.13.11l.1.71c.16.07.31.15.45.26l.66-.27c.06-.02.13 0 .16.06l.53.92c.03.06.02.13-.03.17l-.56.44c.02.09.02.18.02.27Z"/><path d="M10.33 7.71c-.52 0-.95.43-.95.95s.43.95.95.95 .95-.43.95-.95c.01-.52-.42-.95-.95-.95Z"/></g></svg>