<svg viewBox="0 0 24 24" xmlns="http://www.w3.org/2000/svg"><path fill="none" d="M0 0h24v24H0V0Z"/><path d="M8.88 9.94l.53.53c.29.29.77.29 1.06 0 .29-.29.29-.77 0-1.06l-.88-.88c-.39-.39-1.02-.39-1.41 0l-.89.88c-.29.29-.29.77 0 1.06 .29.29.77.29 1.06 0l.53-.53ZM12 17.5c2.03 0 3.8-1.11 4.75-2.75 .19-.33-.05-.75-.44-.75H7.69c-.38 0-.63.42-.44.75C8.2 16.39 9.97 17.5 12 17.5Zm1.53-7.03c.29.29.77.29 1.06 0l.53-.53 .53.53c.29.29.77.29 1.06 0 .29-.29.29-.77 0-1.06l-.88-.88c-.39-.39-1.02-.39-1.41 0l-.88.88c-.3.29-.3.77-.01 1.06ZM11.99 2C6.47 2 2 6.47 2 12c0 5.53 4.47 10 9.99 10C17.51 22 22 17.53 22 12c0-5.53-4.48-10-10.01-10ZM12 20c-4.42 0-8-3.58-8-8s3.58-8 8-8 8 3.58 8 8 -3.58 8-8 8Z"/></svg>