<svg viewBox="0 0 20 20" xmlns="http://www.w3.org/2000/svg"><path fill="none" d="M0 0h20v20H0Z"/><g><path d="M13.05 9.5h3.92c-.1-1.43-.63-2.74-1.47-3.81 -1.34.79-2.28 2.18-2.45 3.81Z"/><path d="M6.95 10.5H3.03c.1 1.43.63 2.74 1.47 3.81 1.34-.79 2.28-2.18 2.45-3.81Z"/><path d="M6.95 9.5c-.17-1.63-1.1-3.02-2.46-3.81 -.83 1.07-1.36 2.38-1.46 3.81h3.92Z"/><path d="M13.05 10.5c.17 1.63 1.1 3.02 2.46 3.81 .83-1.07 1.36-2.38 1.47-3.81h-3.93Z"/><path d="M12.03 10.5H10.5v6.47c1.67-.12 3.17-.82 4.31-1.9 -1.55-.97-2.63-2.64-2.78-4.57Z"/><path d="M12.03 9.5c.16-1.93 1.23-3.6 2.79-4.58 -1.14-1.08-2.64-1.78-4.31-1.9V9.5h1.52Z"/><path d="M7.97 10.5c-.16 1.93-1.23 3.6-2.79 4.58 1.14 1.08 2.64 1.78 4.31 1.9V10.5H7.97Z"/><path d="M7.97 9.5H9.5V3.03c-1.67.12-3.17.82-4.31 1.9 1.55.97 2.63 2.64 2.78 4.57Z"/></g></svg>