<svg viewBox="0 0 24 24" xmlns="http://www.w3.org/2000/svg" xmlns:xlink="http://www.w3.org/1999/xlink"><defs><path d="M0 0h24v24H0Z" id="a"/></defs><g fill="none"><use xlink:href="#a"/><use xlink:href="#a"/></g><g><path d="M16.5.38a2 2 0 1 0 0 4 2 2 0 1 0 0-4Z"/><path d="M24 10.88v-3.7l-4.99-2.11c-.98-.41-2.12-.07-2.71.81v0l-1 1.6c-.67 1.18-1.91 2.06-3.41 2.32l.06.06c.69.69 1.52 1.07 2.46 1.17 .8-.42 1.52-.98 2.09-1.64l.6 3 -1.16 1.1 -.94.89v.76 5.74c0 .55.45 1 1 1v0c.55 0 1-.45 1-1v-5l2.1-2 1.62 7.19c.11.47.53.81 1.02.81v0c.66 0 1.15-.6 1.02-1.24l-1.94-9.76 -.62-3.1 1.8.7v2.4c0 .55.45 1 1 1v0c.55 0 1-.45 1-1Z"/><path d="M10.29 8.09c.22.15.47.24.72.29 .13.02.25.04.38.04s.26-.01.38-.04c.13-.02.25-.06.37-.11 .24-.1.47-.24.66-.44 .49-.49.67-1.17.55-1.8 -.07-.37-.25-.74-.55-1.03 -.19-.19-.42-.34-.66-.44 -.12-.05-.24-.09-.37-.11 -.13-.02-.25-.04-.38-.04 -.12 0-.23.01-.35.03 -.14.02-.28.06-.41.11 -.23.11-.46.26-.65.45 -.3.29-.48.66-.55 1.03 -.12.63.06 1.31.55 1.8 .09.1.2.18.31.26Z"/><path d="M11.24 10.56l-2-2c-.1-.1-.2-.18-.31-.26 -.22-.14-.47-.24-.72-.28 -.13-.03-.25-.04-.38-.04 -.51 0-1.02.2-1.41.59l-3.34 3.34c-.41.41-.62.98-.58 1.54 0 .18.04.37.11.55l1.07 2.95 -2.92 2.92c-.39.39-.39 1.02 0 1.41v0c.39.39 1.02.39 1.41 0l3.54-3.54v-2.22L7 16.75v4.13c0 .55.45 1 1 1v0c.55 0 1-.45 1-1v-5l-2.12-2.12 2.36-2.36 .71.71v0c1.02 1 2.28 1.69 3.79 1.94 .64.11 1.21-.45 1.16-1.1v0c-.03-.48-.4-.87-.87-.94 -1.13-.18-2.06-.72-2.79-1.45Z"/></g></svg>