<svg viewBox="0 0 20 20" xmlns="http://www.w3.org/2000/svg"><path fill="none" d="M0 0h20v20H0Z"/><g><path d="M10 3C7.24 3 5 5.24 5 8c0 2.76 2.24 5 5 5s5-2.24 5-5 -2.24-5-5-5Zm0 9c-2.21 0-4-1.79-4-4s1.79-4 4-4 4 1.79 4 4 -1.79 4-4 4Z"/><path d="M8.5 6a.5.5 0 1 0 0 1 .5.5 0 1 0 0-1Z"/><path d="M11.5 6a.5.5 0 1 0 0 1 .5.5 0 1 0 0-1Z"/><path d="M10 5a.5.5 0 1 0 0 1 .5.5 0 1 0 0-1Z"/><path d="M12.5 14h-5c-.28 0-.5.22-.5.5s.22.5.5.5h1c.55 0 1 .45 1 1v1h1v-1c0-.55.45-1 1-1h1c.28 0 .5-.22.5-.5s-.22-.5-.5-.5Z"/></g></svg>