<svg viewBox="0 0 20 20" xmlns="http://www.w3.org/2000/svg"><path fill="none" d="M0 0h20v20H0Z"/><g><path d="M9.5 6c-1.44 0-2.7.68-3.52 1.73 .01-.07.02-.15.02-.23C6 6.67 5.33 6 4.5 6 3.67 6 3 6.67 3 7.5 3 8.33 3.67 9 4.5 9c.33 0 .62-.11.87-.28 -.37.85-.49 1.84-.24 2.87 .4 1.66 1.77 2.98 3.45 3.32 2.89.57 5.42-1.62 5.42-4.41 0-.08-.02-.16-.02-.24 0-.04.01-.09.01-.12 -.06-.61.38-1.14.98-1.14h2.53c.28 0 .5-.22.5-.5v-2c0-.28-.22-.5-.5-.5h-8Zm-5 2c-.28 0-.5-.22-.5-.5s.22-.5.5-.5 .5.22.5.5 -.22.5-.5.5Zm6.97 4.02c-.45.59-1.16.98-1.97.98C8.12 13 7 11.88 7 10.5c0-1.27.95-2.3 2.17-2.47 .11-.01.22-.03.33-.03 1.38 0 2.5 1.12 2.5 2.5 0 .57-.2 1.1-.53 1.52Z"/><path d="M9.5 9a1.5 1.5 0 1 0 0 3 1.5 1.5 0 1 0 0-3Z"/></g></svg>