<svg viewBox="0 0 20 20" xmlns="http://www.w3.org/2000/svg"><path fill="none" d="M0 0h20v20H0Z"/><path d="M15.3 4.7s0 0 0 0 0 0 0 0c-.35-.35-1.34-.6-2.6-.6 -1.93 0-4.47.6-6.24 2.37 -2.92 2.92-2.65 7.95-1.76 8.83 .35.35 1.34.6 2.6.6 1.93 0 4.47-.6 6.24-2.37 2.92-2.92 2.65-7.95 1.76-8.83ZM7.17 7.17C8.79 5.55 11 5.19 12.16 5.12c-1.36.52-2.93 1.41-4.28 2.76 -1.35 1.35-2.24 2.92-2.76 4.28 .1-1.58.63-3.56 2.05-4.99Zm5.66 5.66c-1.62 1.62-3.83 1.98-4.99 2.06 1.35-.52 2.93-1.41 4.28-2.76 1.35-1.35 2.24-2.92 2.76-4.28 -.1 1.57-.63 3.55-2.05 4.98Z"/></svg>