<svg viewBox="0 0 20 20" xmlns="http://www.w3.org/2000/svg"><path fill="none" d="M0 0h20v20H0Z"/><g><path d="M14.09 10.28c2.2-2.2 2.55-5.4.8-7.16 -1.76-1.76-4.96-1.4-7.16.8C6.4 5.24 5.75 6.93 5.82 8.44v0c-.04.82.29 2.73-.98 4.01L2.28 15c-.2.2-.2.52 0 .72 .2.2.52.2.72 0l2.56-2.56c1.27-1.27 3.19-.94 4.01-.98v0c1.5.07 3.19-.58 4.52-1.9Zm-6.45.08C6.27 9 6.63 6.42 8.43 4.62c1.8-1.8 4.38-2.16 5.75-.8 1.36 1.36 1.01 3.94-.8 5.75s-4.38 2.16-5.74.79Z"/><path d="M16.12 12.88c-.58-.59-1.35-.88-2.12-.88s-1.54.29-2.12.88c-1.17 1.17-1.17 3.07 0 4.24 .58.59 1.35.88 2.12.88s1.54-.29 2.12-.88c1.17-1.17 1.17-3.07 0-4.24Zm-.71 3.53c-.37.38-.88.59-1.41.59 -.53 0-1.04-.21-1.41-.59 -.78-.78-.78-2.05 0-2.83 .37-.37.88-.58 1.41-.58 .53 0 1.04.21 1.41.59 .78.78.78 2.04 0 2.82Z"/></g></svg>