<svg viewBox="0 0 24 24" xmlns="http://www.w3.org/2000/svg"><path fill="none" d="M0 0h24v24H0V0Z"/><g><path d="M12 2c-4 0-8 .5-8 4v9.5C4 17.43 5.57 19 7.5 19L6 20.5v.5h12v-.5L16.5 19c1.93 0 3.5-1.57 3.5-3.5V6c0-3.5-3.58-4-8-4Zm5.66 3H6.43c.61-.52 2.06-1 5.57-1 3.71 0 5.12.46 5.66 1ZM11 7v3H6V7h5Zm2 0h5v3h-5V7Zm3.5 10h-9c-.83 0-1.5-.67-1.5-1.5V12h12v3.5c0 .83-.67 1.5-1.5 1.5Z"/><path d="M8.5 13a1.5 1.5 0 1 0 0 3 1.5 1.5 0 1 0 0-3Z"/><path d="M15.5 13a1.5 1.5 0 1 0 0 3 1.5 1.5 0 1 0 0-3Z"/></g></svg>