<svg viewBox="0 0 24 24" xmlns="http://www.w3.org/2000/svg"><path fill="none" d="M0 0h24v24H0V0Z"/><g><path d="M12 2c-4.42 0-8 .5-8 4v10c0 .88.39 1.67 1 2.22V20c0 .55.45 1 1 1h1c.55 0 1-.45 1-1v-1h8v1c0 .55.45 1 1 1h1c.55 0 1-.45 1-1v-1.78c.61-.55 1-1.34 1-2.22V6c0-3.5-3.58-4-8-4Zm5.66 2.99H6.34C6.89 4.46 8.31 4 12 4c3.69 0 5.11.46 5.66.99Zm.34 2V10H6V6.99h12Zm-.34 9.74l-.29.27H6.63l-.29-.27C6.21 16.62 6 16.37 6 16v-4h12v4c0 .37-.21.62-.34.73Z"/><path d="M8.5 13a1.5 1.5 0 1 0 0 3 1.5 1.5 0 1 0 0-3Z"/><path d="M15.5 13a1.5 1.5 0 1 0 0 3 1.5 1.5 0 1 0 0-3Z"/></g></svg>