<svg viewBox="0 0 20 20" xmlns="http://www.w3.org/2000/svg"><path fill="none" d="M0 0h20v20H0Z"/><g><path d="M16 12v-1h-2.04c-.04-.38-.11-.74-.22-1.08l1.71-.99 -.5-.87 -1.62.94c-.24-.4-.54-.74-.87-1.03 .07-.39.13-1.19-.48-1.99l1.24-1.24 -.71-.71 -1.29 1.29c-.41-.23-1.35-.61-2.43 0l-1.3-1.28 -.71.7 1.24 1.24c-.61.8-.55 1.6-.47 1.99 -.34.29-.64.63-.88 1.03l-1.62-.93 -.5.87 1.71.99c-.11.34-.18.7-.22 1.08H4v1h2.04c.04.38.11.74.22 1.08l-1.71.99 .5.87L6.67 14c.72 1.21 1.94 2 3.33 2 1.39 0 2.61-.8 3.33-2l1.62.94 .5-.87 -1.71-.99c.11-.34.18-.7.22-1.08H16Zm-6-6c.77 0 1.4.58 1.48 1.33C11.02 7.12 10.52 7 10 7c-.52 0-1.02.12-1.48.33C8.6 6.58 9.23 6 10 6Zm0 9c-1.65 0-3-1.57-3-3.5C7 9.57 8.35 8 10 8c1.65 0 3 1.57 3 3.5s-1.35 3.5-3 3.5Z"/><path d="M9.5 9.5h1v4h-1Z"/></g></svg>