<svg viewBox="0 0 24 24" xmlns="http://www.w3.org/2000/svg"><path fill="none" d="M0 0h24v24H0V0Z"/><g><path opacity=".3" d="M22 5H2v14h20V5ZM9 6c1.65 0 3 1.35 3 3s-1.35 3-3 3 -3-1.35-3-3 1.35-3 3-3Zm6 12H3v-1.41C3 14.08 6.97 13 9 13c2.03 0 6 1.08 6 3.58V18Zm2.85-4h1.64L21 16l-1.99 1.99c-1.31-.98-2.28-2.38-2.73-3.99 -.18-.64-.28-1.31-.28-2s.1-1.36.28-2c.45-1.62 1.42-3.01 2.73-3.99L21 8l-1.51 2h-1.64c-.22.63-.35 1.3-.35 2s.13 1.37.35 2Z"/><path d="M2 21h20c1.1 0 1.99-.9 1.99-2L24 5c0-1.1-.9-2-2-2H2C.9 3 0 3.9 0 5v14c0 1.1.9 2 2 2ZM2 5h20v14H2V5Zm17.49 5L21 8l-1.99-1.99c-1.31.98-2.28 2.37-2.73 3.99 -.18.64-.28 1.31-.28 2s.1 1.36.28 2c.45 1.61 1.42 3.01 2.73 3.99L21 16l-1.51-2h-1.64c-.22-.63-.35-1.3-.35-2s.13-1.37.35-2h1.64ZM9 12c1.65 0 3-1.35 3-3s-1.35-3-3-3C7.35 6 6 7.35 6 9c0 1.65 1.35 3 3 3Zm0-4c.55 0 1 .45 1 1s-.45 1-1 1 -1-.45-1-1 .45-1 1-1Zm0 5c-2.03 0-6 1.08-6 3.58V18h12v-1.41C15 14.08 11.03 13 9 13Zm-3.52 3c.74-.5 2.22-1 3.52-1 1.3 0 2.77.49 3.52 1H5.48Z"/></g></svg>