<svg viewBox="0 0 24 24" xmlns="http://www.w3.org/2000/svg"><path fill="none" d="M0 0h24v24H0V0Z"/><g><path opacity=".3" d="M12 4c-4.42 0-8 3.58-8 8s3.58 8 8 8 8-3.58 8-8 -3.58-8-8-8Zm3.5 4c.83 0 1.5.67 1.5 1.5s-.67 1.5-1.5 1.5 -1.5-.67-1.5-1.5 .67-1.5 1.5-1.5Zm-7 0c.83 0 1.5.67 1.5 1.5s-.67 1.5-1.5 1.5 -1.5-.67-1.5-1.5C7 8.67 7.67 8 8.5 8Zm3.5 9.5c-2.33 0-4.32-1.45-5.12-3.5h1.67c.7 1.19 1.97 2 3.45 2 1.48 0 2.76-.81 3.45-2h1.67c-.8 2.05-2.79 3.5-5.12 3.5Z"/><path d="M15.5 8a1.5 1.5 0 1 0 0 3 1.5 1.5 0 1 0 0-3Z"/><path d="M8.5 8a1.5 1.5 0 1 0 0 3 1.5 1.5 0 1 0 0-3Z"/><path d="M12 16c-1.48 0-2.75-.81-3.45-2H6.88c.8 2.05 2.79 3.5 5.12 3.5s4.32-1.45 5.12-3.5h-1.67c-.69 1.19-1.97 2-3.45 2Zm-.01-14C6.47 2 2 6.48 2 12c0 5.52 4.47 10 9.99 10C17.52 22 22 17.52 22 12c0-5.52-4.48-10-10.01-10ZM12 20c-4.42 0-8-3.58-8-8s3.58-8 8-8 8 3.58 8 8 -3.58 8-8 8Z"/></g></svg>