<svg viewBox="0 0 24 24" xmlns="http://www.w3.org/2000/svg"><path fill="none" d="M0 0h24v24H0Z"/><g><path d="M10 14h.74L8.47 4H3v2h3.87l1.42 6.25s-.01 0-.01 0c-2.16.65-3.81 2.48-4.19 4.75H0v2h6v-1c0-2.21 1.79-4 4-4Z"/><path d="M18.18 8l-1.83-5H11v2h3.96l1.1 3H10.4l.46 2H15c-.43.58-.75 1.25-.9 2h-2.79l.46 2h2.33c.44 2.23 2.31 3.88 4.65 3.99 2.8.13 5.25-2.19 5.25-5 0-2.8-2.2-5-5-5h-.82Zm.82 8c-1.68 0-3-1.32-3-3 0-.93.41-1.73 1.05-2.28l.96 2.64 1.88-.68 -.97-2.67c.03 0 .06-.01.09-.01 1.68 0 3 1.32 3 3s-1.33 3-3.01 3Z"/><path d="M10 15c-1.66 0-3 1.34-3 3s1.34 3 3 3 3-1.34 3-3 -1.34-3-3-3Zm0 4c-.55 0-1-.45-1-1s.45-1 1-1 1 .45 1 1 -.45 1-1 1Z"/></g></svg>