<svg viewBox="0 0 20 20" xmlns="http://www.w3.org/2000/svg"><path fill="none" d="M0 0h20v20H0Z"/><g><path d="M16.42 13.92l-4.17-4.17 1.33-1.33 -2-2 -1.33 1.33 -4.17-4.17 -2.5 2.5 4.17 4.17L4 14v2h2l3.75-3.75 4.17 4.17 2.5-2.5ZM8.46 9.54L5 6.08 6.08 5s0 0 0 0l.69.69 -.54.54 .66.67 .54-.54 1.06 1.06 -.54.54 .67.67 .54-.54 .38.38 -1.08 1.07ZM13.92 15l-3.46-3.46 1.08-1.08 .4.4 -.54.54 .67.67 .54-.54 1.06 1.06 -.54.54 .67.67 .54-.54 .66.66L13.92 15Z"/><path d="M12.94 4.45h2.39v2.83h-2.39Z" transform="scale(.99999) rotate(-45 14.1314 5.8684)"/></g></svg>