<svg viewBox="0 0 24 24" xmlns="http://www.w3.org/2000/svg"><path fill="none" d="M0 0h24v24H0V0Z"/><path d="M18.58 7H5.43L3 14v9h3v-2h12v2h3v-9l-2.42-7ZM6.5 18c-.83 0-1.5-.67-1.5-1.5s.67-1.5 1.5-1.5 1.5.67 1.5 1.5 -.67 1.5-1.5 1.5Zm11 0c-.83 0-1.5-.67-1.5-1.5s.67-1.5 1.5-1.5 1.5.67 1.5 1.5 -.67 1.5-1.5 1.5ZM5 13l1.5-4.5h11L19 13H5Zm12-8c.83 0 1.5-.67 1.5-1.5 0-1-1.5-2.7-1.5-2.7s-1.5 1.7-1.5 2.7c0 .83.67 1.5 1.5 1.5Zm-5 0c.83 0 1.5-.67 1.5-1.5 0-1-1.5-2.7-1.5-2.7s-1.5 1.7-1.5 2.7c0 .83.67 1.5 1.5 1.5ZM7 5c.83 0 1.5-.67 1.5-1.5C8.5 2.5 7 .8 7 .8s-1.5 1.7-1.5 2.7C5.5 4.33 6.17 5 7 5Z"/></svg>