<svg viewBox="0 0 20 20" xmlns="http://www.w3.org/2000/svg"><path fill="none" d="M0 0h20v20H0Z"/><path d="M14.5 9c-.16 0-.31.02-.45.05L13 8h1.5V6.5l-2 1L11 6H9.01v1h1.58l1 1H9.5L7 9 6 8H3v1h2.5C4.12 9 3 10.12 3 11.5 3 12.88 4.12 14 5.5 14c1.23 0 2.24-.88 2.45-2.05L9 13h1.5l2.03-4.06 .52.52c-.63.46-1.05 1.2-1.05 2.04 0 1.38 1.12 2.5 2.5 2.5s2.5-1.12 2.5-2.5 -1.12-2.5-2.5-2.5Zm-9 4c-.83 0-1.5-.67-1.5-1.5s.67-1.5 1.5-1.5 1.5.67 1.5 1.5 -.67 1.5-1.5 1.5Zm9 0c-.83 0-1.5-.67-1.5-1.5s.67-1.5 1.5-1.5 1.5.67 1.5 1.5 -.67 1.5-1.5 1.5Z"/></svg>