<svg viewBox="0 0 20 20" xmlns="http://www.w3.org/2000/svg"><path fill="none" d="M0 0h20v20H0Z"/><g><path d="M3 5l14 0 0 4 1 0 0-5L2 4l0 12 9 0 0-1 -8 0Z"/><path d="M19.1 14.2l.87-.69 -.88-1.52 -1.03.4c-.16-.12-.34-.22-.53-.3L17.38 11h-1.75l-.16 1.1c-.18.08-.36.18-.52.3l-1.04-.41 -.88 1.52 .87.7c-.02.2-.03.4 0 .6l-.87.69 .88 1.52 1.03-.4c.16.12.34.22.53.3l.16 1.08h1.75l.16-1.1c.18-.08.36-.18.52-.3l1.04.41 .88-1.52 -.87-.7c.01-.2.01-.39-.01-.59Zm-2.6 1.3c-.55 0-1-.45-1-1s.45-1 1-1 1 .45 1 1 -.45 1-1 1Z"/><path d="M8 13l4.5-3L8 7Z"/></g></svg>