<svg viewBox="0 0 24 24" xmlns="http://www.w3.org/2000/svg"><path fill="none" d="M0 0h24v24H0Z"/><g><path opacity=".3" d="M12 5.5l6 4.5v9H6v-9l6-4.5m3 6.5h-3.5v3.5H8V11H7v7h1v-1.5h8V18h1v-4c0-1.1-.9-2-2-2Zm-5.25.5c-.69 0-1.25.56-1.25 1.25s.56 1.25 1.25 1.25 1.25-.56 1.25-1.25 -.56-1.25-1.25-1.25Z"/><path d="M12 5.5l6 4.5v9H6v-9l6-4.5M12 3L4 9v12h16V9l-8-6v0Zm3 9h-3.5v3.5H8V11H7v7h1v-1.5h8V18h1v-4c0-1.1-.9-2-2-2Zm-5.25.5c-.69 0-1.25.56-1.25 1.25s.56 1.25 1.25 1.25 1.25-.56 1.25-1.25 -.56-1.25-1.25-1.25Z"/></g></svg>