<svg viewBox="0 0 24 24" xmlns="http://www.w3.org/2000/svg"><path fill="none" d="M0 0h24v24H0Z"/><g><path opacity=".3" d="M15 19H8v-6.63c1.26-.34 2.11-1.27 2.77-1.99C11.6 9.47 12.08 9 13 9h2v10Zm-8-8.5c-1.1 0-2-.9-2-2 0-.85.55-1.6 1.37-1.88l.8-.27 .36-.76C8 4.62 8.94 4.02 10 4.02c.79 0 1.39.35 1.74.65l.78.65s.64-.32 1.47-.32c1.1 0 2 .9 2 2 0 0-3 0-3 0C9.67 7 9.15 10.5 7 10.5s0 0 0 0v0Z"/><path d="M15 19H8v-6.63c1.26-.34 2.11-1.27 2.77-1.99C11.6 9.47 12.08 9 13 9h2v10ZM10 2.02c-1.89 0-3.51 1.11-4.27 2.71C4.15 5.26 3 6.74 3 8.5c0 1.86 1.28 3.41 3 3.86V21h11v-2h2c1.1 0 2-.9 2-2v-6c0-1.1-.9-2-2-2h-1.56c.35-.59.56-1.27.56-2 0-2.21-1.79-4-4-4 -.34-.001-.66.05-.98.13 -.82-.68-1.86-1.11-3.02-1.11v0ZM7 10.5c-1.1 0-2-.9-2-2 0-.85.55-1.6 1.37-1.88l.8-.27 .36-.76C8 4.62 8.94 4.02 10 4.02c.79 0 1.39.35 1.74.65l.78.65s.64-.32 1.47-.32c1.1 0 2 .9 2 2 0 0-3 0-3 0C9.67 7 9.15 10.5 7 10.5s0 0 0 0v0ZM17 17v-6h2v6h-2v0Z"/></g></svg>