<svg viewBox="0 0 512 512" xmlns="http://www.w3.org/2000/svg"><path fill="#006" d="M0 0h512v512H0Z"/><path fill="#BD1021" d="M0 256L512 0v512Z"/><path fill="#FFF" d="M41.4 256l470-228.6v457.2"/><path d="M334.9 288.5c5.4.3 5.2 5.7 5.2 5.7l19.3.5c2.5-6.8 5-6 9.7-2.6h0c2.86 1.95 5.99 3.46 9.3 4.5 2-9.6 15.6-7.7 15.6-7.7 5.8-13.9 6.3-13.7 2.8-15.5v0c-2.08-1.04-3.79-2.68-4.9-4.7v0c-2.93-3.89-4.79-8.48-5.4-13.3 -.4-3.5-4.5 1.7-5.2.7 -.7-1.2-6.8-.5-6.8-.5 1.5 1.6-3.6.6-3.6.6 .5.5 0 2 0 2 -.5-.7-4.4-1.4-4.4-1.4v0c-.31.62-.72 1.2-1.2 1.7 -2.1-.8-6.3-.7-6.3-.7h-.001c-4.11-.15-8.17.89-11.7 3 -1.7 1-8 4-13 9 -5.1 5-8 4.3-8 4.3 -1.5 5.6-13.6 12.3-13.6 12.3 -2 1.7-8.1 2.5-11.2 0 -3.1-2.6 0-7.4 0-7.4 1.2-2 2.3-2 2.4-9.5 .1-5 5.3-9.2 10.7-15 6.6-7.3 15.9-19.3 15.9-19.3 0 3.7 2 4.3 2 4.3 1.8-3.7 4.4-6.7 4.4-6.7 .2.3.6.5.6.5 2-2.8 3.3-3.9 3.3-3.9 -.7-.3-6.5 0-11.8 4.7 -5.4 4.7-9 3.1-9 3.1 -3.7-1.2-4-4-4-4 -2.8-11.8 7.9-20 7.9-20 -14.3-3.5-4-21.7 13.8-29.5 17.7-7.7 17.5-11.2 17.5-11.2v0c.81 1 1.49 2.11 2 3.3 0-.1 1.4-2 11.7-6.6v0c5.3-2.26 10.33-5.11 15-8.5 1.4 2.6 1.2 4.4 1.2 4.4 28-9.8 55.5-32.4 55.5-32.4 .8 1.9.4 4.8.4 4.8 4.6-4.3 21-14 21-14 .3 6.2-4.8 8.6-4.8 8.6v-.001c.39.78.66 1.62.8 2.5l0-.001c5.21-3.28 10.34-6.68 15.4-10.2 4.6 4 .5 10.4.5 10.4 1.6-.2 2.7-1.6 2.7-1.6 1.3 6.8-6.3 12.8-6.3 12.8 1.3 0 3.6-1.4 3.6-1.4 -1.5 7.4-15.5 15.6-15.5 15.6 2 1.8.1 4.2-1.6 5.4 -1.7 1-4.6 3.4-3.7 4.4 .9 1 7.1-3.5 7.1-3.5 1 3.1-6.9 9.3-6.9 9.3 5.6.7 21-6.3 21-6.3 -1.3 6-7 10.6-14.3 13.3 -7.1 2.7-6.7 3.1-6.7 3.1 1.2 1 11-1.9 11-1.9 -2.9 6.6-13.2 11.2-13.2 11.2 2.8 2.5 6.7-.4 10.6-3v0c4.67-2.96 9.71-5.28 15-6.9 5.7-2 9.8-.5 9.8-.5 5-1.5 9 .7 9 .7 9.2.7 10.2 4 10.2 4 1 .3 1.8.7 4.2 2.5 2.4 1.7 2.2 7.1 2.1 9.8 0 2.6-.8 2.6-1.3 3.3 -.4.8-.5 1.6-.5 2.6s-2.4 7.4-16.7 7.4h-21.8c-1.2 0-2.6.7-2.6.7 -6 3-2.8-2-10 3.8 -7.2 6-10.9 5-10.9 5v0c-4 4.11-8.35 7.86-13 11.2 -4.3 2.8-3.6 2.5.2 4.1 3.8 1.6 9.4 0 9.4 0 -3.6 2.5-1 3.6-1 3.6 4.6-3 7.6-1.9 7.6-1.9 1.5 4.2-4 10.8-4 10.8 2.1.2 6.1 0 6.1 0 -1 2.8-4.9 5.9-7.8 6.8 -3 1-2.5 1.4-1.6 3 .8 1.9.2 3.7.2 3.7 -5.2-3.5-5.3-.4-5.3-.4 -.6 4.1-.5 10.2-.5 10.2 -3.6-1.8-3.8.6-3.8.6 -1 3.8-5.4 8.1-5.4 8.1 -.1-2.3-2.3-3-2.3-3 -2.3 4.5-6.6 7.2-6.6 7.2 -.5 3.8.6 9.1.6 9.1 -2.8-.5-3.8-.5-4.2.1 -.4.7.6 1 .6 1l35.6.9c.5 0 2.6.3 2.6 4 .1 4-3 4.2-3 4.2l-39-1s.2 1.1-1.8 2.2 -1.3-1.2-2 3.6c-.5 4.7-8.2-.4-8.2-.4 -1.3 1.9-4.3 4.3-4.3 4.3 -1.8-5.3-3.6-7-6.4-2.4 -2.7 4.6 5.1 3.8 5.1 3.8s45.7-6.7 48.2-7c2.5-.2 5.1 0 6.3 3.4 1 3.5-5.6 4-5.6 4l-46.9 5.2c-1 2.7-4.9 2.6-4.9 2.6 .4 2.6-2.4 4.3-3.8 5.2 -1.5 1-6 .6-6 .6 -5.4 3.7-8 .8-8 .8 -3.6 1.5-5.8.8-8.7-.4 -3-1.3-2.7-4.8-2.7-4.8l-29.6 3v0c-.86.34-1.64.85-2.3 1.5 1 1.3-2.2 4.4-2.2 4.4 1 .6 2.6 2.3 2.9 6 .2 4-4.8 4.6-2.3 7.4 2.4 2.7 7.1.4 12.3-2 5-2.5 10-2.2 12.2-2.2 2.2 0 8.3 1.6 12.1 3 3.8 1.2 5.1.4 5.4-1.5 .2-2 2-2.5 2-2.5 -.5 1.9.5 2.8.5 2.8 1.5 0 4-1.4 4-1.4 -.2 1.5-2.1 2.4-2.1 2.4 -3.7 2.4 1.4 1.5 1.4 1.5h0c5.37-1.45 10.94-1.99 16.5-1.6v0c5.17 1.55 10.25 3.42 15.2 5.6 .4-1.3.2-4.4.2-4.4 3.1 1 4.4 2.8 4.4 2.8 1.3-1.3.5-3.6.5-3.6 10.2 5.8-2.2 8.4-5.5 9.6 -3.3 1-3.3 2.4-3.3 2.4 2.8-.8 4.7-1.2 7-1.4 2.2-.1 1.4 0 6.9-1 5.5-1.2 8.3 1.2 8.3 1.2 -4.6.2-6 1.6-6 1.6 3 1.9.2 3.6.2 3.6 -4.1-5.2-7.7.2-7.7.2v0c2.34-.03 4.66.45 6.8 1.4 .9.6 3 1.7 5.7 3 3.8 1.6 3 .6 6 1.6 3 1.2 1.8 4 1.8 4h0c-.91-1.52-2.33-2.66-4-3.2 -.2 3.1-3.3 3.7-3.3 3.7 3.9-4.2-4.4-6.1-8.3-6 -3.8 0-6.7 2.5-6.7 2.5 7.8 7.4 13.2 5 13.2 5 -1 2.6-7.4 1.5-7.4 1.5 3 2.3 2.6 3.9 2.6 3.9 -1.6-1.6-4.1-.8-9.8-4.4 -5.5-3.6-10.5-2.4-10.5-2.4 5.5 5.7-2 9.2-2 9.2 -2.8 1.7 1.2 3.7 1.2 3.7 -3.5.7-4-2.8-4-2.8 -1.8-.4-4.4 1.8-4.4 1.8 .2-3.5 4.9-1.7 5-5.4 .1-3.7-4.3-6.6-17.5-4.8 -13.2 1.9-17-2.4-17-2.4 -1.2 0-1.3 1.2-1.3 1.2 2 2.1 3 3 2.7 4.4 -.4 1.5.7 2 .7 2 -2.5-.2-2.6-3-2.6-3 0 1.2-.5 1.2-1.3 2.5s0 2.8 0 2.8c-1.1-.9-3-2-1.2-4.5 1.3-2-2.8-4.5-2.8-4.5 -1.7-1.7-6-.1-6-.1 -9 1.7-14.2-4-14.2-4 -1 0-3-.5-3-.5 -9.5 4.2-17.9-5-17.9-5 -7.1 1.4-10.4-2-12.5-5.5v0c-1.24-2.36-3.2-4.26-5.6-5.4 -2.8-1.6-5.5-6.6-2.8-9.2 2.2-2.3 1.6-2.8 1.6-2.8 -3.8-6.3 6.5-8.2 6.8-9.8 .2-2.1 2.4-3.5 4.7-3.7 2.4-.1 2.4 0 4-1.4 1.4-1.7 4.3.3 4.3.3 .7-.4 5.8-4.4 10.3-2.4 4.6 2 8.4.7 8.4.7 3.2-.7 29.9-4.3 29.9-4.3 1.6-2.7 3-5.8 10.3-7.4 7.3-1.6 12.8-6.4 12.8-6.4 -1.3-1.4-3.5-1.3-4.6-1.4 -1.1-.1-3.4-2.2-3.4-2.2 -1.4.7-2 .4-11.7 6.3 -8.7 5.2-9-5.2-9-5.2h-18.7c-.3 4-3.3 5.6-3.3 5.6l-7 .3c-3.7-2-3.7-8.8-3.7-8.8v0c-11.22-.25-22.31 2.4-32.2 7.7 -23.4-11.9-41.7-14.7-41.7-14.7 28.4-3 43.5-11 43.5-11v0c9.21 5.61 19.63 8.94 30.4 9.7 .5-5.7 4.4-7.1 4.4-7.1Z"/><path fill="#FFC221" d="M301 335.7c-5.9 3.4-4.8 5.3-4.3 6.4 .5 1 .6 2.1-1 3.8 -1.7 1.6-1.5 2.2-1.5 2.2 .3 5.7 4.3 7 6 8.4 1.5 1.1 3.9 4.9 3.9 4.9l-.001-.001c1.83 2.99 5.2 4.69 8.7 4.4 2.4 0 2.2-.2 1-1.3l-3.6-3v0c2.35 1.05 4.46 2.59 6.2 4.5 6 6.6 11.6 5.7 14 5.4 2.5-.3 2.1-1.8 2.1-1.8 -.1-.2-2.4-.4-2.4-.4 -9.2-.8-11.9-6.8-11.9-6.8v0c4.62 4.06 10.54 6.33 16.7 6.4 2.6-.1 2.4.7 1.9.8 -.6.1-1.3 0-2.6-.1 -1.2 0-1.2.2-1 .8 .4.4 1.5.5 3 .4 1.4 0 .2.2 4 3 3.8 3 13 .6 13 .6 -6-1.5-6.8-4.3-6.8-4.3 -8.2 1-11.5-3.9-11.5-3.9l-.001 0c-1.84-1.43-3.82-2.67-5.9-3.7 -4.6-2-5.3-6.2-5.3-6.2 1.3 2 3.8 4 7 5 3.3.8 4.1 1.2 4.1 1.2v0c-.81.18-1.64.11-2.4-.2 -3.2-1-1.4.3-1.4.3 3.6 2.9 4.5 2.6 4.5 2.6 9.3 1 4.7-2.7 4.7-2.7 6.5 1.6 7.7-.9 7.7-.9 1.4 3 6.4 1.8 6.4 1.8 -6.7 3.3-1.7 2.3-1.7 2.3 6.8-1.2 8.2.5 8.2.5 1.7 1.7 3.6 1.5 3.6 1.5s1.2 0 3.7.5c2.6.5 6.6 2.7 10.3 2.3 3.6-.5 4.3.6 4.3.6 -.8-.2-2.4-.5-5.2.8 -2.9 1.3-7.9 1.7-15.2 0 -7.3-1.7-7.8-1.4-7.8-1.4v0c1.58 1.06 2.83 2.55 3.6 4.3 .3 1.2 1.6 1.3 1.6 1.3 .5-1.6 2.6-2.3 2.6-2.3 1.5 1.3 5.4 3 5.4 3 .4-.8 0-1.4 0-1.4 2.7 2.7 6 1.9 6 1.9 .8-.6.6-2.2.6-2.2 1.1 0 1.3.7 2 1.3 1 .4 3.4.1 3.4.1 -1-.4-1.7-1.8-1.7-1.8 3.8-2.5 11.7-1.5 11.7-1.5 5.7 1.1 5 4.9 5 4.9 1.2.5 2.8 2.3 2.8 2.3 .5-1.4 0-2.7 0-2.7 2.7 1.2 3.2 4.3 3.2 4.3 3-3.5-2.9-7.4-2.9-7.4 2.9-.4 6-.1 8 .1v0c2.58.45 5 1.59 7 3.3h0c1.88 1.26 3.98 2.17 6.2 2.7 0-.8-2.2-2.1-2.7-2.4 -.5-.2-.7-1-.7-1 2 .4 3.3.2 3.3.2v0c-3.13-1.74-6.05-3.82-8.7-6.2 2.6.3 4.1-1.3 4.1-1.3 -5.5 0-5.7-1.3-5.7-1.3 .7.1 3.2.8 6.5.1 3.3-.7 7.8 0 7.8 0 -2.4-3.8-11.5-3.1-14.5-3 -3 .2-4-.2-4-.2 .4-.2 1-.7 3.2-.8 2.3 0 4.6.3 7.2-1.6 2.5-1.7 6.1-1.1 6.1-1.1 -.8-1.8-5-2.4-8.6 0 -3.6 2.2-7 1.6-7 1.6 5.8-.8 7.4-2.9 7.4-2.9 -1.6-.5-2.6.1-6 .8 -3.5.7-4.4-.5-4.4-.5 3.7-2.2 6.4-3.1 6.4-3.1 -3.2-.8-6.2-2.2-6.2-2.2 -3.3 3.2-6 5-12.4 1.7 -6.4-3.5-9.8-3-9.8-3v-.001c4.92-2.78 10.99-2.55 15.7.6 4.2 2.5 5.5.5 5.5.5 -1.4-.8-1.2-1.6-1.2-1.6 10.2 5.2 14.7 2 17 .5 2.2-1.6-1.1-3.6-1.1-3.6 -.2 3.2-4.4 4.9-7.7 3.7 -3.3-1.1-6.3-2.5-11-4.6 -4.8-2-10.6-.9-16.2.3 -5.6 1.1-6.2.6-6.8.2 -.5-.5-.7-1.8-3.6-.7 -2.8 1.2-9.4-1.9-13.5-2.9l0 0c-5.65-1.03-11.48-.07-16.5 2.7 -5.8 3.3-8.7 2.5-10.4 1.7 -1.7-.8-2.9-3-1-5s2-2.4 1.9-5.2c-.2-2.8-3-4.5-3-4.5 2.6-2.6 3.2-3.3 2.3-4.4 -.8-1.1.5-1.1 2-1.8 1.5-.6.8-.7.5-1.6 -.4-.8-1.2-.6-1.2-.6 -3.4.1-5.3-.9-5.3-.9 -5.5-2.5-10.8 2.5-10.8 2.5 -3.1-2.5-3.9-.8-4.5-.3 -.4.6-1.6 1-3 1.2 -1.4.1-3.5.6-4.1 2 0 0-.7 1 0 2 0 0 .9 1.4-.6 3 -1.6 1.6-2.2 1.9-1.6 3.4 .4 1.5.3 2.7-.4 3.6 0 0-.7-.8-.5-1.8 .2-1 .2-1.7 0-2.2 0 0-1.6 1.5-1.8 2.6 0 0-.7-1.7 1.6-4 2.2-2.2 3.3-3.3 2.6-4.2 -.5-.7-2.1.4-2.5.7Z"/><path d="M307.5 360.6s-2.8-2.2-2.5-5.2c.3-3 .3-3.2 0-4 0 0-.6.3-.5 1.5l-.2 2.4s-1.5-2.4-2.2-2.9c0 0 .6-2.6-.2-3.7s-1.6-1.2-2.5-.8c-1.4.4-2.3 1.6 2 5.2 0 0 1.6 1.3 2.7 4 1.1 2.9 3 3.3 3.3 3.5Zm14-8.3s-.3-1.6 1.3-4.6v0c1.04-1.85 1.11-4.09.2-6 -.3-.8-.5-.5 1-1.8 2-1.6-.7-3.6 2.5-6.4 0 0 2-1.7 2.4-2.4 0 0-3.2 1.7-5.4 2.6 -2.2.9-10.3 4.9-8.5 7.6 1.8 2.7 1.6 2.8 1.3 4 0 0-5-2.6-3.1-6.8 0 0 .7-1.6 2.7-3.6 2-1.7.9.4 4.6-1.8 0 0 3-1.8 4.6-4.1 0 0-2 1.2-2.7 1.4 0 0-4.4.8-6.2 2.6 -1.7 2-5.5 5.1-4.3 8.7 0 0-4.3-.5-5.3-5 0 0-8.1 9.9 9 14.6 0 0 3 .9 5.9 1Z"/><path fill="#FFC221" d="M396.2 318.9c6.4-.9 43.2-6.5 46.6-6.9 3.6-.3 5-.8 6.2 2.2 1.4 3.2-5 3.3-5 3.3l-44 5c-2 .2-2.5-.6-2.5-.6l-1.7-2.2s-.5-.6.4-.8Z"/><path fill="#5A3719" d="M306.4 339s-4.8 9.9 13.9 12.3c0 0 0-1 .8-2.7 .8-1.5 2.4-4.7.8-6.7 -1.5-2 1.3-1 1.6-3.7 .5-2.6-.2-2.3 1.1-4 0 0-5.8 2.1-8 4.7 -2.3 2.6 3 4.5 0 7.4 0 0-2.8-1-4.3-3.9 0 0-3.6.1-6-3.5Z"/><path d="M324.7 351.2s4.6 4 10 3.8c5.5-.2 7.9-1.6 9.3-3.8 0 0 1 1.6 1 2.7 0 0 4.8-3.9 13-.4s5.6 2.4 7.4 2.7c0 0-3.5-.6-11.4 3 -8.2 3.7-29.6 2.4-29.4-8Z"/><path fill="#5A3719" d="M317 333.5s2 .4 4-2c0 0-2.7.6-4 2Zm-15.7 18.6s-3.8-3-1.4-3.6c0 0 1.8-.4 1.4 3.6Z"/><path d="M385.1 371s2.2-3.7 8-3.7c6 0 6.6 2.8 14 3.3 0 0-8.9 2.5-15.1.3v0c-2.22-.9-4.71-.86-6.9.1Z"/><path fill="#5A3719" d="M326.6 353.9s9 5.3 16.8-.5c0 0 .6.6 1.2 2 0 0 6-5.7 16.6.5 0 0-1.3-.2-6.3 2 -6.5 2.8-22.9 4.7-28.3-4.1Z"/><path d="M360.8 359.3s8.5 1 15.6.5c4.4-.2 9.2-1 6.9.4 -2.5 1.5-1.3 1.7 8.9.8 10-1-.1 1.9 6.8 2.8 0 0-16.9 8.6-38.2-4.5Z"/><path fill="#5A3719" d="M383 353.9s5-1.8 9.7.3c4.5 2.2 3.8 2.4 6.9 2.7 0 0-2.1 3-7.2.6 -5-2.5-6.4-3-9.4-3.6Zm5.6 15.2s4.9-2.4 10.3.1c.6.4 2 1 3.5 1.3 0 0-4.1 1.3-8.4 0v0c-1.76-.64-3.57-1.11-5.4-1.4Zm-24.2-8.7s11 1 16.8-.2c0 0-6.8 3.3 10.4 1.8 0 0 3.7-.4 3.3.2 -.5.6-.8 1 1.1 1.6 0 0-12.7 5.8-31.6-3.4Z"/><path d="M310 351.2s.1.8 2.5 1.9c2.5 1 3.8 3 4.3 4v0c.74 1.5 2.08 2.63 3.7 3.1 0 0-8.6 1.8-12.3-2.7 0 0-3-3.1 1.7-6.3"/><path fill="#5A3719" d="M377.2 370.9s-3.3-.3-8-1.8c-4.6-1.7-5.8-.3-8.4-2.2 -2.6-2-7.9-.8-8.8-.6 -1 0-3.8 0-.4-2.3 0 0-2.7 0-3.8-1.5 0 0-1.2 1.3-6 .8 0 0 2.2 3.3-6.3 2.3h-.001c2.89 3.39 7.56 4.69 11.8 3.3 0 0-.6 2.6 3.3 3.6 4 1 4.7 1.7 6.8 2.5 0 0 .2-1.6-5-5.4 0 0 2.8-.1 6.8.9s13.1 3.2 18 .4Zm2.1 3.9s.9 2 3.5 1.5c2.5-.5 6.7-1.2 10.8.9 0 0 .8-3.5-7.5-3.7 0 0-5.1.2-6.8 1.3Zm-69.6-22.4s-3.2 2.6-.3 5.3c2.6 2.5 6.7 2.3 8.7 2.2 0 0-1.3-.6-2.2-2.2 -1.1-1.5-1.1-2.6-3.3-3.6 -2.2-1-2.5-1.2-2.9-1.7Zm-3.2-13.5s-4.9 10 13.9 12.4c0 0 0-1 .8-2.7 .6-1.5 2.3-4.7.8-6.7 -1.6-2 1.2-1 1.6-3.7 .4-2.6-.3-2.3 1-4 0 0-5.8 2.1-8 4.7 -2.3 2.6 3 4.5 0 7.4 0 0-2.8-1-4.3-3.8 0 0-3.6 0-6-3.6Z"/><path d="M355.4 362s4-.7 13.9 3c10 3.7 14.1 2.8 15.6 2.8 0 0-5.6 2.9-14.3-1 -7.7-3.4-8.2-2-15.2-4.8Z"/><g fill="#FFC221"><path d="M417.8 359.8s2.2-.1 3.6.4c0 0 .8-.7 3-1 0 0-1.4-1.2-6.6.6Zm-6.8-5.6s2.2 0 3-1.2c0 0-1.3-1.4-3-2.2 0 0 .4 1.7 0 3.4Zm-76.5-25.4s-.5-1.2 2-1.5l33.3-4.8s1.6 0 1.9 1c.2 1.3-.2 2.1-7.7 3 -7.5.8-27.3 3.3-27.3 3.3s-2 .4-2.2-1Z"/><path d="M364.7 327.4s0 4.4 4.5 5c4.3.7 5.8-.2 7-2.5 .3-.6 1.6-5.2-.3-5.5l0-.001c-1.05-.14-2.11-.04-3.1.3 -1.5.7-2.9 1.4-2.5 2.1 1.2 1.7 1.4 2 1 2.2 -1.1.3-1.9-.7-2.1-1.4 -.2-.8.6-1.3-2.3-.8 -1.2.1-2.2.1-2.2.6Z"/><path d="M383.3 324c2.2.3 2 5.1-.6 7.3 -3 2.4-5.7 1.5-5.7 1.5 -1.6-.6-1.3-.4-.2-2.1 1-1.7 1.6-3.9 1-5.4 -.2-.5.3-1 1-1 0 0 2.2-.5 4.5-.3Z"/><path d="M385.3 324.5s1.6 2-.4 5.8c0 0-1 1.1 1.1 1 2-.2 6.6-2.3 6-5.1 0 0 0-.7-1.3-.7 -1.2.1-.2-.6.3-.8 .5 0 2-.7-2-3.3 0 0-.6-.5-1.4-.3 -.6.3-2.7 1-2.7 2.4 0 .5.4 1 .4 1Z"/><path d="M389.6 321s3.3 2.3 3.2 3c0 .6-.3 1.6.6 1.4 .8 0 4.2-.8 3.3-3 -1-2.3-2-3-3.5-3.7 -1.6-.5-2 .2-3.4 1.3 0 0-1 .6-.2 1Zm-17.1 3.2s.5-1.6-2.4-2.3c0 0 1.2-1 3.7-.5 2.3.5 2.1 2.2 2.1 2.3 0 0-1.9 0-3.4.5Zm6.2-.4s3.2-.6 4.7-.4c0 0-1.6-3.6-6-2.5 0 0 1.6 2 1.3 2.9Zm5.6-.8s0-1.2 2.8-2.3c0 0-1.3-1.3-3.3-1.1 -2.1 0-2.6.8-2.6.8s2.5.9 3.1 2.5Zm1-4s1.9.6 3 1.5c0 0 1.6-1.8 3-2.2 0 0-2.7-1.4-6 .8Z"/></g><path fill="#5A3719" d="M294 310.3s7.7-6.5 12-5.7c4.3.8 2.2.3 6.8-.5 4.8-.7 9.6-1.2 11.6-1 0 0-5.8-4-15.9-4 0 0-7.1 2.5-12 5.8 0 0-9.6-5.3-19.4-2.2 0 0 10.7 4 17 7.6Z"/><path fill="#FFC221" d="M375.6 321.6l1.3-.2s2.1 2.6.6 2.6c-1.3 0-.9-.3-1-1h0c-.16-.58-.52-1.07-1-1.4Zm-9.7.2s-.8 1 .7.8c1.8-.3 1.5 0 3.3-1.3 0 0 1.3-1.3 3.5-.5 0 0 1.8.6 3.3-.1 1.6-.8 1.9-.7 2.7-.7 .8.1.8.3 1.8-.5 1.2-.8 3-.2 4.2-1.2 1.2-1 2.7-.1 0-2 0 0-.6-.6-.5-1 0 0 1 .3 1.9 1 .8.7 2 .5 2.3.3 0 0 .2-2.4 2.5-4.6 2.4-2.2 2.4-2.3 1-2.3s-3.7-.6-4.5 0c-.8.6-7.7 5.1-11.8 5.9 -4 .8-7.7 2-10.4 6.2Zm-108-25s12.5 3.2 15.2 4.5c0 0 .7-2-5-3.6 0 0 13.8-.4 28.2 6.2 0 0 7-6 29.6-4.2 0 0 0-2 .2-3.5 0 0-15.8-.5-30.3-9.3 0 0-13.1 6.4-37.9 10Zm69 6c-.7-12.7 4-13.9 4-13.9s2.4.1 4.8.5c0 0-3.8 4.6-2.8 13.7 0 0 .4 1.4-2.8 1.4 -3.2 0-3.1-1.5-3.1-1.5Z"/><path fill="#5A3719" d="M330.3 311.2s-2.4-2.4-2.6-5.2c0 0 0-.7 2.3-.7 2.4.1 2.7-.1 3.3 1.3 .5 1.3 2 4.1 2.4 4.5Z"/><path fill="#FFC221" d="M335.4 304.9v0c-.24-1.63-.34-3.27-.3-4.9 .2-7 1.3-6.4 1.8-5.5h2.5s-1.8-8-4-3.3h-.001c-1.59 3.5-2.14 7.39-1.6 11.2 .2 2.1.4 3.4.7 4.2Z"/><path fill="#5A3719" d="M362.8 304.9s4.6.8-2.5 2.4c0 0 .3 8.7 8.7 2.6 0 0 5.1-3.2 8.5-4.5 0 0 1.8-.5 1.6-1.9 0 0 .2-1.6-1.6-1.2 0 0-1.5 0-2.5-.3 0 0-1-1.2-1.6-.8 -.7.5-2.3.2-1 1.8 1.2 1.4 1.6 1 2.2.6 .6-.4 3.3-1.4.8.8s-4.4-1.3-5.2-2Zm-23.5 1h-2s-1.2 1.6-2-1l-.7 1.7s2.4 9.3 4.7-.7Z"/><path fill="#FFC221" d="M336.4 295.1s-1.1 6.2.3 9.8l22.5.5s-.3-4.3 0-10.3H356s-.5 5 0 8h-.6s-.4-4.2 0-8h-2.6s-.4 4.6-.1 8h-.5s-.4-4 0-8h-2.5s-.5 4.1 0 8h-.7s-.5-4.1 0-8h-2.9s-.6 3.9 0 8h-.5s-.7-3.9 0-8h-2.9s-.6 4.4 0 8h-.6s-.4-4.2.1-8h-2.7s-.7 3.7 0 8h-.7s-.4-3.2.2-8h-2.7Zm23.7 11.1s-.5-11 1.5-13.8c2.1-2.8 2.6-2.3 6.2 0s8.2 4.8 9 5c.7.3 1.8.6 1.8 2.6s.3 2.6-2.8 0c-.4-.3-1.9-1.6-3-2 -2.7-.8.7.6 1.7 2.1 .8 1.2 1.6 1-.6 1.6v0c-4.65 1.35-9.25 2.85-13.8 4.5Z"/><path d="M368 298.3s-1.7-2 .5-2.4c2-.5 2.2 3.2 2.6 5.4 .3 2.3-2.6-2.2-3-2.9Zm-3 9.7s-2.4.9-.8 1.6c1.6.8 6-2.9 4.5-2.6 -1.6.2-3.7 1-3.7 1Zm3.3-3.4s2.1-.2 1.6.7c-.3 1-1.1.4-1.4.1 -.4-.1-1.8-.7-.2-.8Z"/><g fill="#FFC221"><path d="M379.7 301.7s.5 4.2 4.1 5.3c0 0 2.2.5 1.7-1.3l-.6-2.2c-.3-.7-1.8-1.1-2-1.2 -.1 0-.3-.5.7-.1 1 .3 1.1.4 1-.4 0-.7-.6-.4-1.5-.8 -.3-.2 0-.5.4-.4 .4 0 1.3.4 1.3-1 0 0 .2-.9-.9-.9 -1.2 0-1.1-.6-.8-.7 .4 0 1.6.8 2-.7 .4-1.4-1.7-.5-1.4-1.3 .3-.8 1.8.4 1.8-.5 .2-.8 1.4-1.2-.7-1.5 -.9-.1 0-.6 1-.4 1.2.1 1.9-1.2 2.5-1.7 .8-.5 4.5-2.7-.6-2 -5 .7-6.5 3.2-6.7 3.7v0c-1.24 2.5-1.7 5.33-1.3 8.1Z"/><path d="M391.4 305c.7-.1 1.3 0 1.5.4 .8 1.7-1 1.2-2.1 2.4s-1.2 1-2.6.6c-1.5-.5-2-2.7-2-2.7 -.2-.8.4-.8 1.1-.7 0 0 2.5.3 4.1 0Zm-5.4-.9s0 .4 1 .5c.7 0 3.2.3 4.8-.2 0 0 .4 0 .2-1 0 0 0-.7-1.3-.4 -1.4.2-3.3 0-4-.1 -.6-.2-1 0-.7 1.1Zm-.2-3s0 1.2 1.2 1.4h3.7c.6 0 1.5-.3 1.6-1 0-.9.3-1.4-1.4-1 -1.7.4-3.6.1-3.8 0 -.2 0-1.3-.3-1.3.5Zm.6-2.8s-.4.7-.3 1.2c0 .6 1 .9 2.7.9 1.7 0 3.3-.3 3.4-.9 .1-.6.5-1.3-.8-1v0c-1.26.2-2.55.2-3.8 0 -.7-.3-1.2-.4-1.2-.2Z"/></g><path fill="#5A3719" d="M450.2 305.1s0 1.1.9 2.4l-48.2-1.4s.6-.4.8-2.3Z"/><g fill="#FFC221"><path d="M386.8 296.4s-.4 1.2.4 1.4c.8.3 2.3.5 4.3.2 0 0 1 0 1.3-1 .4-1 .3-.5-2.4-1 0 0-.9-.3 1.6-.3 0 0 1.5 0 1.6-.2 .3-.2 2.2-1.8-.3-1.6 -2.4 0-1.2-.5 0-.5 1.3 0 1.6.3 2 0 .4-.3 0-.2-.6-.9s-.2-.5.3 0c.5.3.8.4 1.3 0 .6-.6-.4-1.3 0-1.2 .4 0 .7.9 2.2.2 1.7-.9 3.8-.5 4.4 0 .5.4 2.2 1 3.2 0s-1.2-2-.3-2c1-.2 1.6.2 2-.6 .4-.8-1.5-1.4.3-2 1.7-.4.2-5.3-.3-5.7 0 0-2 1.1-4.1 4.5 -2.2 3.5-3.5 5.6-6.4 4.5 -4-1.6-6.3.7-7 1 -1 .7 2.2 1 .3 1 -1.8 0-1.8.2-2 .5 -.1.2 0 .5.4.6 .3 0 1 .6-.1.6 -1.2 0-2-.2-1.6 1 0 0 0 .2.6.3 .7 0 1 .8-.3.8 -.8 0-.8.3-.8.4Zm4.4 12s-.8.6.3.7c1.2 0 1.8.3 2.2-.3 .4-.6 2-.4 1-1.3 -1.2-.9-1.9-.4-3.5 1Z"/><path d="M396.2 293.9s4-3.8 7.3-1.2l3.8 3s.4.3-.5 1.1c-1 .9 0 .9 1 .3 1-.5 1 0 1.5.6 .5.5 1.2.8-.4.8H404s-2.2.2-1-.8c1-.9.8-2 .3-2 -.6 0 0 .6-.4 1s-1.1.8-2 .8c-.9 0-1.4.6-.2 1 1.3.5-.1.8-.8.8 -.7 0-3.7.2-.6.6 3.2.4-.3.3 2 1.6 2.7 1.5.8 4.6-.2 4.9 0 0-1 .6.3.4 1.4-.2 2.1-.3 1.1.4 -.9.8-2.8 3.1-5.4 1.3 0 0-1.3-.5.9-.7 2.2 0-1.8-.6-2.5-1 -.6-.4-3-3-1.5-2.7 1.6.3 1-.6 0-.9 -.9-.3-1-1.7 0-1.5 1 .4 2.2 1 3.1.9 .9 0 .6-.4-1.2-.9 -1.8-.6-2.5-.7-2.1-2.2 .4-1.5 2.4.6 2-.5 -.5-1.2-2.3-.6-1.4-2 .9-1.4 1.2-.9 1.6-.7 .4.1 1 0 0-.8 -.9-.6 0-1.4.2-1.6Z"/></g><path d="M399 295s0-.5.8-.4c.7 0 .5-.3.7-.5 .2 0 2 .6.3 1.2 -.6.2-1.6 0-1.7-.3Z"/><path fill="#FFC221" d="M403 299.2s-1.4.7-.2 2.1c1 1.3 1 1.7 1 2.5 -.1.8 46.4 1.3 46.4 1.3s-.1-3 1.8-4.7l-49-1.2Z"/><path fill="#5A3719" d="M450.9 304.3s.2-2.6 1.6-3.4c.8-.5 1.8-.2 2.2 1.8 .7 2.9-1.8 5.4-2.9 4.3 -1-1-.8-2.7-.8-2.7Z"/><path fill="#7B3C20" d="M397.6 315.1s3.1-2.7 3.6-3.8c0 0 8.4 6 7.9.5 0 0 0-1.5.2-2.9 0 0 3 .4 3.5-2l-7.8-.3s-.8-.2-2 1.1 -3.7 2.7-6 1.5c0 0-1-.8-2-.1 -1 .7-1 .8-.2 1.6s2.5 3.1 2.8 4.4Zm18-16.4l-4.6-.1s-1.6-2.4-4.9-5c0 0-1-.4.8-1.9 2-1.5 2.5-3 2.5-3.8 0-.6 0-1.8.7-1 .6.9 5.3 5.2 6 4 .7-1.3.9-1.9.9-2.3 .2-.4.3-1.6 1-.3 .7 1.2 1.1.9 1.2 4 0 0 0 3.3.6 4.4 0 0-6-1.9-4.1 2Zm-19.8-9.8s3.5 2 5.2-.6c1.6-2.6 2.8-3 1.5-5.7 -1.3-2.4 0-3.6 1-4.7 1-1 1.9-.8 2-5 .1-4 3-5.3 4.2-6.6 1.3-1.2 4.4-3.1-.4-4 -4.7-.7-14.3-3.2-16.7-6.9 -2.5-3.7-3.6-1.5-3.6-1.4 0 .2-.8 2.9 1.6 7.8 2.4 4.9 4.5 8 7 9.6 2.3 1.7 4.4 2.5 3.2 5.8 -1.2 3.3-3.2 9.1-5 11.8Z"/><g fill="#5A3719"><path d="M408.7 278.5s.5 8.5 6.7 11.5c0 0 1.4-3.3.8-6.6 0 0 2 .2 2.6 1.1 0 0 0-2.4-2.8-3.3 -3-.9-1.5-6.4-.5-7 1-.6.7-1.8 0-2.8 -.7-1-.8-2.4 1.6-1.8 2.4.6 2-.6.5-1.8 -1.4-1.2-1.3-2.7.7-2.7s5.5-2 3.4-2.6c-2-.6-2.7-1.3 0-2 2.9-1 4.3-1.9 2.2-2.1 -2.2-.3-3.6-1-1.5-1.3 2-.4-.3-2.5-2.7-2.6 -2.5-.1-7.5.8-3.5-2.4s-5.7-.8-1.7-3c4-2-1.4-1.2-2.2-1.2 -.7 0-.7 0-.4-1 .3-1.1-.5-1.7-1.8-1 -1.1.7-1.1.7-1-.8 0-1.5-1.4-.4-2.3 0 -1 .4-3.1 2-4.1 1.2 -.8-1-1.3-1.9-4-.3 -2.9 1.7-2.2.3-2.1-.5 0-.8 1-3.6-2.7-.5s-.8-3.3-3.7-1.2c-3 2.2-3.3 2.6-3.8 1.7 -.4-1-1-1.8-4.3.3 -3.3 2-.8-1.3-.4-2 .5-.8 1.9-5.5-1-1.8 0 0-1.4 2.6-4.5-2 0 0-3.2 4.6-4.1 2.5 -.9-2-1.7-2.2-2.8-.9 -1 1.3-.3 0-.7-1.2 -.5-1-.8-3.1-6.3.8 -5.4 4.1 2 1.2-2.2 3s-14.3 7.5-5.1 6.2c9.3-1.3-4.5 3.6-1.3 4.5 3.2.9 2.2 3.7 14.3.4 12-3.3 10-.5 16.2-3.2 6.2-2.6-1.4.9 6.8.8 8.3-.3 1.4 0 3 1.6 1.7 1.7 8.6 5.7 15 6.5 6.6.6 8.2-1.8 6.4 1 -2 2.8-2.6 3.9-3.7 5 -1 .8-4.2 3.1-4.3 7 0 3.9-5 4.5-3.2 8.9l4.5-4.4Z"/><path d="M419.4 288s-1.5-1.1-1.5-3c0 0 1 .2 1.5.8 0 0 3.7-4.2-.9-5.7 -4.4-1.6-2.2-5.6-.6-5.6 1.5 0 1.8-.4.5-2.2 -1.3-1.6-1.2-1.8 1.4-2.2 2.4-.4 2.2-1 1-1.6v-.001c-.75-.43-1.43-.97-2-1.6 0 0 7.2-3.1 4.9-4.6 -2.4-1.4 0-1 2-2.5 2.2-1.5 2.5-1.8 2.7-2.4 0 0-2 .2-3.6 0 0 0 1.8-1 0-2.5s-2.4-2.7-5.4-2c-2.8.6-1.8-.3-.8-1.5 1.2-1.2.7-1.9-1.4-2.2 0 0 .3-1.2 1.8-2.7 0 0-3.9.3-5.2-.4 0 0 1.6-1 1.6-2.4 0 0-2 .8-4.8.5 0 0 1.7-1.4 1.7-2.6 0 0-4.8 1-7 2.7 0 0-.4 0-.7-.6 -.4-.4-.7-1-5.9.6 0 0 .6-2.3 1.9-3.3 1.2-.8 1-2.6-7 2.4 0 0-1.1-.6-2-3 0 0-1.8 2.4-3.1 3.2 0 0-1.2.5-1-1 .2-1.7-.8-.6-1.6 0 -.8.3-1.4 1.5-1-1.7 .4-3.2-1.2-3.9-1.2-3.9s-2.4 3.6-3.9 4c0 0-2.6-2.6-3.6-4.3 -.9-1.6-.9-2.3-1.8.7 -1 3-2 3.2-2 3.2s-1.7-1.4-1.9-2.2c0 0-.2.9-.8 1.2 0 0-1.4-1.7-1.3-4 0 0-8.7 4.8-9.8 7.7 0 0-8.2-.5-11.5.1 0 0 .8-2.6 3-4 0 0-2.2-.2-2.3-2.4 0 0 1.7.2 2.8 0 1-.3-1.5-3.4 1.2-3.5 2.7 0 4.4 1.3 3.3-2.3 -1.3-3.6-.8-3.6-.8-3.6s4.8 2.8 5.5 2c.8-.6-.6-2 3.6-1.4 4.2.8 3-1.6 4.7-1.8 1.6 0 2.4 1 1.4-6.5s5.1 3.7 1-7.7c0 0-1-3.5-3.6-5 0 0-.6 2.5-3.3.4 -2.9-2.3-8.4-3-6-4.8 2.3-1.8 3.4-4 2.7-5.5 0 0-2.8 2.8-7.5.8 -3.8-1.7-4.6 1.3-8.4.5 0 0 0-1 3.2-3.6 3.3-2.6-1.8.8-3.8 1.3 -2 .5-2.6 0 1.6-3.3 4.3-3.3 12.8-9 11.6-13.9 0 0 2 2.6 7.3.7 5.2-1.8 9.2-2.5 10.7-5.3 1.6-2.6 5.7-5.3 6.8-6 1.1-.6 2.5-1 .9 1.6 -1.7 2.6-4.3 7-11.5 10 -7.3 3-10 5.1-11.4 6.8 -1.3 1.5-8 5-3.6 4.5 4.3-.7 11.7 0 8.2-1 -3.4-1-7.4.6-4.2-2.3s3.8-3.8 8.4-5.8c4.7-2 9.8-6.4 9.3-1.6 -.5 4.6-9.2 9.7-11.3 11.2 -2.1 1.6-1.3 1.4-1.3 2 0 .6-.3 1.9-1.2 2.4 -.9.6-.6 1.3-.4 2.6 .3 1.4-.2 1.9.4 2.1 .7.2 1.3.3 1.5 1.2 .3 1 .7 1.1 2 1 1.2-.1 2 0 2 .8 .2.7 1.4 1.7 1.5-.5 .1-2.3 1-2.7-1.3-1.7 -2.3 1-2.8.7-2.7-.4 0-1-.3-.8-1.2-.9 -1 0-1.3-1.4.4-2.3 1.7-.9 1.7 0 3.8-1.8 2.1-1.8 2.1-2.2 2.5-3 .3-.9-3 2.4-4.7 3.1 -1.6.8-1.1-.5-.8-2.3 .2-1.8 4.2-4.3 6-4.3 1.9 0 6 1 4.3 3.6 -1.8 2.5-6.9 5.5-4.8 5.7 2.2.2 2.6-.6 3.9.4 1.2 1.2 0 3.5-.5 4.7v0c-.58 1.16-1.4 2.18-2.4 3 0 0-2.3-4.2-2.2-.9 0 3.3-.5 4.4 0 4.5 .5.2 3 1.9 3.8 1.9 .8 0-4.4 2.4-2.2 2.6 2.2.2 5.8-1 7-3.3 0 0-4.6-1-6.3-2.7 0 0 5.1-1.2 3.7-6.2 0 0 5.2 1.4 3 3.8 -2.3 2.3-3.7 2-1.7 2.6 2 .6 2.8 1.2 2.8 1.2s1.4.7.6 1.7c-.8 1.2-.8 2.8 0 2.7 .5 0 2.7-1 1-2 -2-1.2 2-1 .3-2 -1.6-1-2.1-1.1-2.5-1.6 -.5-.4 21-13 10.1-8.3 0 0 2.3-5 5.5-5 3 0 3.3 2.5 1.6 4.5 -1.9 1.9-3 4.9-7.2 5.5 0 0 6 3-1.1 7.8 0 0-1.6.7-1 1.2 .6.6 4.8-1.8 5.4-3.2v0c.57-1.44 1.68-2.58 3.1-3.2 1.6-.8 9.6-6.2 12-10.3 2.4-4 3-4.1 7.6-7.9 4.6-3.8 3.9-3 4.5-3.9 .6-.9.8-2.4 3-3.6 2-1.2 10.4-5.8 13-7.7 2.6-1.9 8-5.4 10.2-8.3 2.3-2.9 8.5-6.6 10-6 1.6.8 0 3-3.7 5.7s-12.6 10-14.1 11.2v-.001c-3.64 2.9-7.68 5.26-12 7 -2.8.4-2.5 1.4-4.2 3.3 -1.7 1.9-5.7 5.7-7 6.7 -1.3 1.2-4.5 3.3-4.7 4.9 -.1 1.5.6 1.7-2 4 -2.5 2.5-9.9 7.9-12.7 8.7 0 0 4.8 1.6 2 4.9 -2.9 3.2-2.7 2.7-2.9 3 0 0 7.2-1.2 2.2 4.5 0 0-1.1 1.7 1.2 0 2.4-2 1.4-4.4 1.1-4.7 0 0 3.9-2.5 8.4-2.5 4.4 0 4.2-.4.2-1.5 0 0 2.9-3.5 5.2-1.7 2.5 1.6 1.7 2.7-.8 4 -2.6 1.4-6.3 1.8-9 3.4 0 0 5.2 1 8-1.1 2.8-2.2 3-1.1 3.3-.7 .4.4.7 1-.5 2.9 -1.3 1.8-1.4 1.8-1.3 2.2 0 .5-.2 1.7-2.7 2 -2.4.5-3.7 1.6-2.8 2.8 .8 1.2.8 4.1-1.3 3.9 -2.1-.3-1.6-2-2.4-2.7 -.8-.6-2-1.6-5.8.3 -3.8 2-4-.4-3.9-1.7 0 0-2.4 2.2-4.5.3 -2-2-.2-2.8 1-3.8s6-3.1 3.1-2.7c-3 .3-7.2.5-8.1-1.6 -1.1-2.3 2-2 2.6-1.8 .5.1 2.4 1.8 2.6-.3 0-2.3 3.2-2.5 2.1-3 -1-.3-2.6 1-3 1.6 0 0-2.2-3.1-5.8-2.2 -3.6 1.1 1.1.7 2 .9 1 .1.4 2-2.8 4.9 -3.2 2.8-1.8 2 .6 2 2.5 0 8.3 0 5 2.7 -3.5 2.9-4.9 4.2-6.6 3.8 -1.8-.5.1-1.7 1-2.3 .8-.4 1.2-1.3-.5-.6 -1.7.6-2.2.7-3.6-1.6 -1.3-2.5-.8-1.7-.2-3.3 .6-1.6 1.9-3.2.3-2.6 -1.6.6-1.4.6-1.3-1.2 .1-1.8-1.8-2.2-1.8-2.2s.9 1.8.1 3c-.6 1.1-.7 1.5.4 1.8 1.2.3 2.2 1.3.7 2.3 -1.6 1-1.3.9-.4 1.5 1 .7 2.4 1.4.9 2.9 -1.5 1.4-.3 1 .5 1s2.4.6 2.4 2c0 1.5 0 1.8 2.4.5 2.4-1.4 7.2-1.2 7.2.6 -.1 2-.7 2.5 2 .8 2.5-1.6 3.6 1.5 5.4 0 1.7-1.5 2.9-3 5-.4 2 2.6 1.3 3.3-1.2 5.2 -2.4 1.8 1.3.4 3.1-.6s7.2-1.6 10.3-.2c3 1.3 3.9 1 6 0 2.4-.8 3.5-1 6.9 1.2v0c2.25 1.68 4.98 2.6 7.8 2.6 0 0-3.7 1.5-8 1.7 -4.2.4-6.4 1-7.2 1.7 0 0 2.5 1.7 3 3.5 0 0 2.8-.4 4.1.1 0 0-.6 2 1 3.1 1.8 1.1 3 1.5 1.7 3s2 .8.1 2.8c-1.8 2.2-2.3 3.1-2.4 4.9 0 1.6.4 1.8-1.2 2 -1.6.2.3 2-.5 4.3 -.7 2-5.3 1.8-5.1 7.7 0 0 1.3-2.8 4-5.4 2.7-2.4 2.8-2.7 2.7-4.2 0-1.5-.1-1.2 1.4-2.3 1.3-1.2-.7-2.2.8-3.9 1.4-1.6.1-1.3 1.9-2.9 1.6-1.6-1.6-1.8.2-3.5 1.6-1.6-4.3-3.7-2.5-4.7 1.7-1.1 4.6-2.7-5.3-2.5 0 0 2.4-4 10.7-3.1 0 0-2 1.6-2.3 3.1l1.6.7s-.4 1.1-2 2.4c0 0 4.5 2.5 5.2 4 0 0-2.7.8-3.4 2 0 0 1.2 1.4 1.6 3 0 0-3-.3-3.4 2 -.4 2.2-1.3.7-1.3 2s0 1.9-1 2.1c-1 .2-.2 1.3 0 2 .1.8.5 2.5.4 3 0 0-1.6 0-2.3.2 0 0 .5 3.3-1.3 3.7 -1.8.5 1 1.2-1 1.5 -1.9.3-1.6.5-4 4.7 0 0 2-1.1 4-2.5 2.2-1.4 0-1 3.4-4.3 3.4-3.5 2.8-3.7 2.5-5.4 -.3-1.7-.3-3.1.9-4.8 1.3-1.6 1.6-3.5 6.1-3.2 0 0-1.3-3-3-3.7 0 0 2.2-1.5 4.4-1.6 0 0-2-2.5-6-4.7 0 0 3.3-2.9 4.1-4.2 0 0-1.5.3-2.8 0 0 0 .6-1.3 3.6-3.3 0 0 1.7 1.5 1.5 3.1 0 0 5.2-2.9 8-2.5 0 0 1.5 3.6-5.6 10.5 0 0 4.4.4 6.3.2 0 0-1 3.3-6.4 5.3 -5.3 2 1.1 4.4-4.3 4 -5.4-.4-3.8 1.4-3.6 4.1 .1 2.8.3 5.7.2 6.4 0 0-4.3-1.4-4.2 2.8 0 4.2-2.3 5.1-2.7 5.5 0 0-1.3-1-3.2-1.8 0 0-2.7 5.1-7 8.1Z"/></g><path fill="#7B3C20" d="M413.2 235.2s1.4-.2 4 1.4c2.4 1.6 4.9-1.7 2.2-2.5 -2.9-.8 0-1.9 2.4.2 2.6 2 3.6 1 4.5.3 1-.7 2-1.2.3-2.3 -1.7-1.2 1.2-.6 2.5.3 1.3.8.8 1.6.6 1.8 -.2.3-.3 3 2.2.5 2.6-2.6 3.9-5.1 3.8-6.4 0 0 1.4.9 1.6 2.5 .2 1.6 2.2-.8 2.8-1.7 .7-.8 1.7-3.1 1.6-4.8 0 0 1.7 2.7 4.3 0 2.5-2.6 1.5-1 4.5-1.8l0-.001c3.46-.94 6.58-2.85 9-5.5 2.1-2.6 2.3-.8 5-1.5s8.1-4.4 8.6-6.5c.5-2 .4-3.3-.3-2.5 -.8.6-.5 0-1.6-.6 -1.3-.8-3 .9-3 .9s1.7 1.3.4 1.9c-1.3.5-2.4 2.4-5 1.6 -2.4-.7-5 2.4-5 2.4s2.2 1.7-.8 2.8c-2.8 1.2-2.4 1.5-4.1.3 0 0-3.1 3.9-5 4.7 0 0-.7 0-1.2-.8 0 0-2 2.3-3 2.7 0 0-1.4-1.2-2.5-1.6 0 0-2.5 3-4.5 4 0 0-.6-1.2-1.9-2 0 0-.6 4-4.9 6.3 0 0 .3-1-1.9-2.5 0 0-5.3 4.6-7.3 5.1 -2.1.4-.3-1 0-1.6 .3-.6 1.6-2.5-1-3.3 -2.6-.8-2 .6-2.6.8 -.6.3-.6-.5-2.4-.2 -1.6.2-1.4 1-2.1 1.3 -.8.2-3.8-.5-3.6 1.4 .2 2 1.6 3.4-1 4.5 -2.7 1.2 1 1 4.4.4Z"/><g fill="#5A3719"><path d="M423.9 229.7s.6-2.6-1.6-3.8c0 0 14-2.2 3.4-7.6 0 0 12.7-2.5 9.7-6.5s-6-3.3-6.3-3.1c-.4 0 2.7-2.4 3.5-2 .8.3 11 4.1 8.3.8 -2.5-3.3-2.3-3.1-2.7-4.1 0 0 3.3 0 8.4 4.9 0 0 1-1 1-3.1 0 0 3.5 1 4.7 2.1 0 0 .6-1.2.3-2 0 0 3.2 1.7 4.3 3.5 0 0 1.4-1.2 1.6-2.7 0 0 3.1 1.3 4 2.3 0 0 1-1.4.6-3.3 0 0 5.1 1.5 5.9-1.6 0 0 5.1 1 1.8 3 -4.4 2.7-.5-.6-5 2.5 -3.4 2.5-5.3 5.3-7 4.7 -1.2-.5-2.7 3-4.3 1.4 -1.6-1.8-1.6-1-2.9.8l0-.001c-.89 1.32-1.89 2.56-3 3.7 0 0-.8-.5-1.6-1.3 0 0-1 1.7-2.2 3 0 0-1-1.4-2.7-2.2 0 0-2.6 3-4.1 4 0 0-1.6-1.5-3.1-2 0 0-.3 4-3.4 6 0 0-.6-1.2-2.7-2 0 0-1.5 2.4-4.9 4.5Z"/><path d="M416.5 223.5s-1.7 1.3-.6 2.7c1.1 1.4 1.2-.3 2.6-.3 1.4-.2 18.6-3.2 3-7.8 0 0 .6-.7 3.3-.8 2.7-.4 12.5-3 8-6.5 -4.6-3.4-8.5 1.2-4.6-3 3-3.3.6-4.9.6-4.9s-9 6-11 7.2c-2 1-5 3.3-1.5 4.3 3.4 1 5.7-3.7 6-2.6 .3 1-6.9 5-5.8 6.9 1 1.8.8 3.4 2.5 3 1.8-.3 6.6.9 2.7.8 -3.9-.2-5.2 1-5.2 1Z"/></g><path d="M422.7 214.8s-1.6 1.2.5.6 6.3-1.5 5.6-2.5c-.9-1.2-3.6.1-6 2Z"/><path fill="#7B3C20" d="M450.4 196.9s8-.3 11.3 2c3.3 2.2 4.9 3.7 5.9 4 0 0-.2 3-5.3.8 0 0 .3 1.5-.3 3 0 0-1.9-1.4-4-1.8 0 0-.5 1.1-1.1 1.8 0 0-2.3-2.3-5-3l-.8 1.6s-2.8-1.7-5-1.7c0 0 .5 1.7 0 2.5 0 0-5.7-4.7-10.9-4.1 0 0 2.5 3.7 4.1 5.5 0 0-10.5-.8-8.7-6.5 1.7-5.6-.1-4.2 6.7-4.1h13.1Z"/><g fill="#5A3719"><path d="M401.3 212.5s-1.2 1 0 1.8 5.3-2.2 5.9-2.6c.6-.5 2-.4 0 1.2s-4 3.2-5.5 4.9c0 0 7-2 11.5-5.8 4.5-4-.2-1.4 7.5-5.1 7.7-3.8 11.7-9.7 7.6-9 -4.1.6-7.9 5.3-11.1 7.1 -3.2 1.8-5 2-4.5 1s2.8-.7 7.3-4.2c4.4-3.6 3.4-3.2 3.4-4.5 0-1.3-1.6-4.4 5-7.9 6.7-3.5 27.4-15.5 29.2-19.8 0 0-6 .7-14 6.6l-.001 0c-4.42 3.68-9.26 6.83-14.4 9.4 -2.2.8-2 .2-3.3 2v0c-3.46 3.61-7.06 7.08-10.8 10.4 -1.4 1-1.9 1.8-2 4 0 1.1-9 8-11.7 10.5Z"/><path d="M428.7 196.7s-1.7.6-3.1 0c-1.5-.8-1-4 2.6-5.9h0c4.21-2.3 8.72-4.02 13.4-5.1 0 0-.5 4-10.8 7.6 0 0 .7 2-2.1 3.4Z"/></g><path fill="#AA5323" d="M432.3 194s.3 1 0 1.9c0 0 19 1.8 29-9.8 0 0-13.6 1.3-19 4.5 0 0 3.5-4.2 13.6-7.7s14.3-8 15.2-10.3c0 0-13 4.5-19 4.5 0 0-1.2 0-2.4.6 -1.2.7-9.3 6.6-11.5 7.6 0 0 4.6-.4 6.2-1.8 0 0-3.2 8.5-12.1 10.5Z"/><path fill="#5A3719" d="M395.7 204.9s-2.5 1.8-1.5 2.6c1 .9 2.8 1 6.5-2 3.8-3.3 12.9-11 7.1-11.3 0 0-7.3-.5-7 4 .2 4.5-4.8 6.4-5.1 6.7Zm-17-2.7s4.9 2.9 3 5.2c0 0 14.9-12.6 10.6-15.4 -4-2.7-7.3 2.5-6.3 3s3.1-.4 2.4.5v-.001c-3.07 2.46-6.32 4.7-9.7 6.7Zm-3.9-4s3.3 1 3.5 2.4c0 1.3 9.8-6.9 7.2-10.4 -1.2-1.5-6.5-2.2-6.8 1 -.3 3 4.9-.4 3 1.8 -2.2 3-6.1 4.7-6.9 5.2Zm34.8-6.9s-2 1.5-.1 2.4c1.9.9 3-.5 4-1.3 .9-.9 5.5-4.3 6.5-6.4 1.2-2.2 2.7-2.9 4.4-4 1.7-1 13.5-7 20.8-13.5 7.3-6.5 4.2-4.8 11.7-9 7.5-4.2 12.5-8 14.1-12.6 0 0-3.5 1.2-6.5 3.2 -3.1 2-10 6.3-11.5 7 -1.4.5-3.2.6-4.3 1.7 -1 1.1-1 2.4-4.6 5.4 -3.7 3-22.4 16.2-24.7 18.1v0c-3.33 2.93-6.59 5.93-9.8 9Z"/><g fill="#AA5323"><path d="M394.6 195.7s2-1.1 5.9-.8c3.8.2 19-14.6 23.4-17.5l0-.001c6.83-4.68 13.5-9.58 20-14.7 2-1.9 2.3-3.8 3.9-4.9 1.6-1 3.1-.9 6.8-3 3.7-2.1 21.6-12.8 20.6-19 0 0-26.7 15.9-32.8 21.1l0 0c-8.51 6.65-17.29 12.95-26.3 18.9 -3 2-5.4 5.2-10.5 9.4 -5.1 4-10.2 7.6-11 10.5Z"/><path d="M389 190s4.9-.5 5.6 2c0 0 10.5-7.3 13-10.3 2.4-3-.9-1.3 5.1-5.2v-.001c9.82-6.53 19.45-13.34 28.9-20.4 2.8-2.5 8.3-5.8 12.6-8.8 4.4-2.9 21.3-11.2 19.4-18l-15.2 10.1c-2.8 1.9-4 .8-6.8 3 -3 2.3-9.2 6.7-10.3 8.2h-.001c-4.88 4.21-9.99 8.15-15.3 11.8 -4.7 3-15 9.1-20.1 13.5l0-.001c-5.59 4.76-11.26 9.43-17 14Z"/><path d="M373.7 188.6s2.4 0 3.3 1c0 0 4.5-4.1 9.4 0 0 0 18-12.3 19.8-15.3 1.8-3 4.8-3.1 11.7-8.2 7-5.1 11.4-7.3 16-10.8 4.7-3.7 8.7-7.8 12-10 3.3-2.1 11.8-7.7 10.4-12.4 0 0-6.9 3.8-11.3 8.7 -4.5 5-4 .8-8.6 4.8v-.001c-5.27 4.89-11.11 9.12-17.4 12.6 -5.8 2.9-2.3 2.6-6.6 5.3 -4.1 2.7-3.8 2.3-5.4 2.7h-.001c-2.09.49-3.97 1.61-5.4 3.2v0c-3.16 2.69-6.62 5-10.3 6.9v0c-6.25 3.3-12.18 7.19-17.7 11.6Z"/><path d="M379 179.3s-.9-2 .8-3.5c1.7-1.4 5-5.2 5.4-7.5 .5-2.5.1-2 5-4.1v-.001c14.45-6.05 28.14-13.77 40.8-23 2-1.6 7-5 8.9-6.6 0 0 .9 2.6-1.3 4.5v0c-7.35 5.71-15.03 10.98-23 15.8 -2.3 1.3-8 4.2-10.1 6 -2 1.6-1.7 2.1-10.9 6.6 -9.1 4.4-9.5 5-9.3 5.3 .3.4 4.4-1.4 6.4-2.6 2-1.1 9.4-4.6 11.7-6.4 2.2-1.8 6-4.5 7.6-5.4 1.6-.8 15-9 19-11.9 3.8-2.8 4.9-3.7 5.7-3.2 .8.4 2.2.4.5 2 -1.7 1.6-7.2 6.6-9.3 8 -2.1 1.3-8.7 5.2-10.5 6.1 -1.8 1-2.5 2.7-3.6 3.5 -1 .8-4 2.8-7.6 3.6 -3.6.8-4.2 3.6-6.6 5.2 -2.4 1.5-19.3 10.6-19.8 11 0 0 1-1 .3-3.4Z"/><path d="M437.5 141.3s-.9.8-.4 1.3c.6.7 3 2.3 6-.6h0c4.18-3.94 8.66-7.55 13.4-10.8 2.4-1.5 3.7-2.9 3.6-5 0 0-12.1 6.5-22.6 15.1Zm16.7-1s1.8-3.2 6.4-6.1c4.6-3 11.5-7.2 12.3-8.2 0 0 1.6 1.8-1.9 4.1v0c-3.86 2.42-7.66 4.92-11.4 7.5v0c-1.61 1.22-3.45 2.1-5.4 2.6Z"/></g><path fill="#7B3C20" d="M361.4 174s-5 2.7-3.2 4.4c1.8 1.6 4.5 1.1 5.7.6 1-.4 3.2-1 3.5-1 .3-.1 4.7-1.4 5.9-3.5 1-2 4-4.4 6.4-6 2.4-1.7 3.3-3.5 2.9-4.7 0 0-20 9.4-21.2 10.2Zm-30.2 23.4s3.6-2.1 8.5-.8c0 0-.2-1.1-1-1.8 0 0 6-1.5 7.3-4.2 1.3-2.7 1.6-2 2.7-2.8 1.2-.8 9.2-7.3 8.3-8.7 -1-1.4-1.1-3.2-1.8-3.9 0 0-1.6 2.3-9.5 6 -7.8 3.9-16.5 6.7-22.9 15.2 -6.3 8.6-5.6 13.5 2.1 15.7 0 0 5.4-3.4 18.7-2.3 13.3 1.3 17.8 6.2 18.7 7.1 .8 1 3.5 4.2.9 9.8 0 0 2.7 1.1 2.8-1.4 .3-2.6.4-2 1-1.7 .7.5 1.4.5 1-1.4 -.2-2-1-6.3-2.4-7.8 -1.1-1.5.3-.8 1-.6 .8.4 3.6 2.7 2-1.6 -1.7-4-2.2-2-2.3-1.9 0 .3-.3 1.3-4-1.4v0c-2.81-2.17-6-3.8-9.4-4.8 -2.4-.6-.7-.6.8-1.1 1.5-.6 3.3-.8 4-2.5 0 0-1.4.4-4-.6v0c-4.22-1.24-8.78-.43-12.3 2.2 0 0 1.3-5-2.6-4.7 -4 .3-6.6.2-10.8 3.5 0 0-.2-5 3.7-7.6 4-2.6 3.4-1 5.6-1.7 2.2-.6 2.4-2.8 1.4-3.6 0 0 5.2 1 13.8-6.2 0 0-4.7 6-10.3 7.3 0 0-.9 3.3-6 4 -5 .6-4.9 3.6-4.9 4.3Z"/><path fill="#5A3719" d="M316.6 227s2.4-15.1 16.6-16.2c12.2-1 16.2.6 18.6 1.4 2.4.8 8.5 2.5 6.1 4.5 -2.3 1.9-3.6 1.6-3.6 1.6s2.6-3 .2-3.6c-2.5-.4-2.6 1-3 2.2 -.4 1.4-.4 2.8-1.7 3.8 0 0-1.2-1.4-3-.2s-.2 1.3.5 1.1c.7-.2 1.6-.6 1.4.6 -.2 1-1.1 3-4 4.5 -3 1.4-2.9 1.4-6.3 2 -3.5.5-6.7 1.9-11.1 5.6 -4.5 3.9-9.3 2.6-10.3-1.6 -.8-3.7-.4-5.7-.4-5.7Z"/><path d="M332.7 226.4s1.3-3-1-4.3c0 0-7.4 1.3-9.7-.9 0 0 8-.5 13-2.5 5-1.8 3.6-3.2 1.9-3.6 -1.8-.3-5 .5-5.3 2 0 0-1-1.5.3-2.7 1.3-1.1 3.2-1.3 5-.8 1.8.5 3.3 1.3 9.1-1.7 0 0 3.4.8 3.5 3 0 2.3-.2 3.2-.6 3.5 -.2.4-.6 1-1.3 1 -.7 0-1.7-.2-2.5 1.3 -.8 1.6-1.4 3-2.9 4 0 0 1.7-4.9-2.6-6 0 0-3.5 2-6.2 2.2 0 0 3.5 3.2-.8 5.5Z"/><path fill="#5A3719" d="M340.4 217.4s-1.6-1.7.5-2c2.2 0 5 1.5 4.4 2.9 -.5 1.3-3 1.2-4.9-.9Z"/><path fill="#FFF" d="M461.4 193.7s-4 1.1-.3 3.6c3.6 2.4 5.4 4.5 8 5.1 2.7.7 5.4 1.6 5.4 4.3 0 2.6-.6 3.7-2 5.5 -1.5 1.9.8 2.6 2.7 1.6l4.8-2.3c1.2-.8 3.3-.7 1.5.3 -2 1-4 1.6-1.5 1.6 2.4.1 17.3.4 20.4-.6 3.1-1 7.2-1.3 7.5-5.3 0 0 .2-1.8 1.3-2.6 1.2-.8 2-2.5.3-1.4 -1.7 1.3-3 1.8-3.3 1.5 -.3-.4-.5-.6.8-1.2 1.2-.6 1.9 0 3-1.6 1.2-1.8 1.1-1.5.5-2.2 -.6-.6-2-1-1.3-1.8 .7-.9 1.3-3.3-1.4-2 -2.7 1.5-8.1 5.2-10.7 5.8 -2.4.6-4.3 1.3-7.6 2h-.001c-3.17.64-6.21 1.78-9 3.4 -3.6 2-3.3-1.2-2.7-1.6 0 0 1.4 2.5 5-.7 3.6-3.1 2.4-.2 11.3-3.1 8.8-2.9 6.7-3.4 10.1-5.1 3.6-1.8 6.8-2 4.4-4.4 -2.5-2.4-2.7-2.6-5.8 0v0c-4.99 3.73-10.84 6.14-17 7 0 0 20-8.6 18-9.8v0c-1.77-1.17-3.69-2.08-5.7-2.7 -1.4-.4-1.8-.7-5 .8 -3.2 1.4-3.7 1.7-4.6 1.8 -1 0-3.7.6-7.5 2.6s-5.8 2.8-8.5 4.3c0 0 1.8-3.6 9.8-6 7.8-2.3 11.8-4.4 11-4.8 -.8-.4-2.9-.9-4.3-.5 -1.5.2-1-.2-6 1.8 -4.7 1.8-2.7 1.4-6.5 2.3 -4 .8-5.5 1.6-7.4 2.4 0 0 .8-1 3.4-2 1.4-.4-1.5-1 2.3-1.1h1v0c3.21-.69 6.31-1.84 9.2-3.4 -.8-.2-5.4-.7-10.2 1.6 -4.7 2.1-2.6 1.4-4.2 1.6 -1.6.4-5.2 2.6-6.4 3.6 -1.2 1-2.8 1.7-2.8 1.7Z"/><path fill="#5A3719" d="M344.1 215.3s1.9.6 2.4 1.9c.5 1.3 1.6-.6 1.6-1.2 0-.5-1.2-3.2-3.2-2 -2 1.2-1 1.2-.8 1.3Z"/><path fill="#7B3C20" d="M339 241.1s3.9-1.8 7.3-1.6c0 0-1.4-4.7 1-4 2.3.9 1.6.6 2.1.6 0 0 .2-3.1-.5-4.4 0 0 2.5.6 4.9.6 0 0-2.3-4.4.2-7.5v0c.93 1.79 2.55 3.13 4.5 3.7v-2.6s1.8-.2 3.3.5c1.4.8 2.6-8-1.7-10 0 0-1 1.7-5 2.5s-4 1.6-5.6 4.7c-1.6 3.1-3 3-6.5 5.2h-.001c-2.4 1.82-4.29 4.23-5.5 7 0 0 1.7 2 1.5 5.3Z"/><path fill="#999" d="M472.5 189.7c1.4-.2-1.5-1 2.3-1.1h1v0c3.21-.69 6.31-1.84 9.2-3.4 -.8-.2-5.4-.7-10.2 1.5 -4.8 2.2-2.6 1.5-4.2 1.8v-.001c-2.32.8-4.48 1.98-6.4 3.5 -1.2 1-2.8 1.7-2.8 1.7s-4 1.1-.3 3.6c3.6 2.4 5.4 4.5 8 5.1 2.7.7 5.4 1.6 5.4 4.3v0c.11 2.03-.61 4.01-2 5.5 -1.5 1.9.8 2.6 2.7 1.6l4.8-2.3c1.2-.8 3.3-.7 1.4.3 -2 1-3.9 1.6-1.4 1.6 2.4.1 17.3.4 20.4-.6 3.1-1 7.2-1.3 7.5-5.3 0 0 .2-1.8 1.3-2.6 1.2-.8 2-2.5.3-1.4 -1.7 1.3-3 1.8-3.3 1.5 -.3-.4-.5-.6.8-1.2 1.2-.6 1.9 0 3-1.6 1.2-1.8 1.1-1.5.5-2.2 -.4-.3-.9-.5-1.1-.9 0 0-1-.8-2-.1v-.001c-2.33 1.26-4.82 2.2-7.4 2.8 -1.8.2-3.8 1-7 2.6s-8.8 5-9.7 1.8l-2.8 1.2c-3.7 1.9-3.4-.8-2.7-1.6 0 0-2 2.2-1.9.3 0-2 1.3-1.7 3.5-2.3 2.1-.7 5.5-2 4.1-3.2 -1.4-1.1-2.9 1.2-4.4 1.9 -1.6.7-4.7 1.3-5.2-1 -.5-2.2-.5-3.8-4.6-4 -4.2-.2-4.1-2.9-3-4 1.3-1.1 2.2-3 6.2-3.8Z"/><path d="M485.9 210s6.5-2.9 12.5-4.3 1.3.2.3.5 -10.4 3.4-12.6 4.5c-2.2 1-1.8.1-.2-.5Zm1.4 1.5s7.4-2.5 8.8-1.5c1.4 1 .2.6-1.4.8 -1.6.2-6 1-7.2 1 -1.2 0-.2-.3-.2-.3Zm11.9-2.6s1.4-.3 1.5.3c.1.5-.6.6-1.4.5 -.8-.2-1.4-.6-.1-.8Z"/><g fill="#FFF"><path d="M305 273s-.3-6.5 3-9.8c3.3-3.3 19-19.7 21.4-24.3 0 0 2 1.4 2.1 4 0 0 2.7-4.5 4.8-6.3 0 0 1.9 2 1.6 5.8 0 0 3.8-2 9.7-2 0 0-2.3 2.4-2.3 4 0 0 8.1-1 12.5-.2 0 0-11.3 6.2-8.2 6.8 3.3.6 6.5 0 6.5 0s-3.6 3.6-9.3 4.3c0 0 7.3 0 8.8 1.6 0 0-7.1 1-12.8 5.4 0 0-.6-.3-.6-1.9 0 0-.2 1.5-1.8 2.9 -1.7 1.3-5.5 4.2-7 5.7 -1.4 1.4-4 4.3-7 4.2 0 0 .6-2.3-1.5-3v0c-2.24-.75-4.7-.13-6.3 1.6 0 0-7.6.2-10.1.5 0 0 1.7-2.7 3.3-2.7 1.6 0 8 1 8.6-3.4 .5-4.3-4.1-3.2-2.4-5.7 1.8-2.6 1.4-2.5 1.5-2.8 0 0-1.5.8-2.3 3.1v0c-.7 2.59-2.3 4.86-4.5 6.4v0c-2.13 1.33-3.91 3.15-5.2 5.3 0 0-1.4.2-2.6.5Z"/><path d="M312.3 269s.2-.7 2.4-1.2c2.3-.4 2.5-1.4 2.1-2 -.3-.3-1.6-.3.5-2.9 0 0 .8.3 1.3.9 .6.6 3 5.8-6.3 5.3Z"/></g><path fill="#999" d="M307 264.5c0 4.3 5.7 2.7 5.7 2.7l-.001-.001c-1.52 1.06-2.89 2.3-4.1 3.7 .4-2-3.2-2.6-3.2-2.6v0c.32-1.35.86-2.63 1.6-3.8Zm20.6-23l1.8-2.6s2 1.4 2.1 4c0 0 2.7-4.5 4.8-6.3 0 0 1.9 2 1.6 5.8 0 0 3.8-2 9.7-2 0 0-2.3 2.4-2.3 4 0 0 8.1-1 12.5-.2 0 0-11.3 6.2-8.2 6.8 3.3.6 6.5 0 6.5 0s-3.6 3.6-9.3 4.3c0 0 7.3 0 8.8 1.6 0 0-2.2.3-5 1.3 0 0-2-2-8.1-1.6 0 0 4.7-2.7 8.5-3.6 0 0-1.6-2.1-4.3-.2 0 0-5.1-3.5-.8-6.5 0 0-3-.6-5 .8 0 0 0-2.5 2.2-3.5 0 0-5.7-1-7 3.2 0 0-1.2-1.7-.6-3.6 0 0-3.5 2-5.1 4.2 0 0-.6-4.3-2.8-5.9m-11 27.3c-1 .3-2.5.4-4.3.3 0 0 .1-.6 1.4-1 0 0 .3.7 2.8.7"/><path d="M327 252.6s2.6 2 3.5 3.2c0 0 2.4-1.6 3.2-3 0 0 2 1.2 2.5 3 0 0 1.4-.8 1.6-2 0 0 3.3.6 4.4 1.6 0 0 .5-3 0-5.1 0 0 2.3.2 3.7.8 0 0-1.3-2.1 5.3-4.8 0 0-5 1.1-7 3.2 0 0-2 .2-3-.4v4.7s-1.2-.6-3.7-1.2c0 0-.6 1.1-1 1.4 0 0-1.7-1.4-2.3-2.9 0 0-2.5 2.2-3.3 3.1 0 0-2.4-1.6-4-1.6Z"/><g fill="#FFC221"><path d="M312 285.2s1 .5 3.4-1.5 9.3-6.3 9.9-9.8c.7-3.5-2.2-3.7-4.4-2.7 -2.3 1-1.3 3-1.2 3.6 0 .6.2 3-3.5 6.4l-4.3 4Z"/><path d="M311.2 286.2s-5.5-2.3-.6-4.7c4.9-2.4 7.1-3.1 7.7-5.2 .6-2 .3-1.7-1.6-.9 -1.8.9-8.8 4.1-9.8 1.1 0 0 2.8 1.1 6.4-.6 3.6-1.8 6.6-2.3 4.3-3 -2.3-.7-10.6.2-11.9.6 -1.4.4-1 .3-1.3 1.6 -.2 1.4-1.7 4.3-2.3 5 -.5.9-2 4.4.6 6v0c2.64 1.41 5.82 1.45 8.5.1Z"/></g><path d="M309 274.3s-1.2.2-1 .7c.3.4.6.4 1 .4 .5 0 1.2-.3 1.3-.5 0-.4-.8-.8-1.2-.6Z"/><path fill="#FFF" d="M310.8 285s-2.5-1.2.4-2.8c3-1.6 6-3.2 6.5-3.8 0 0-1.4 2-6.8 6.6Z"/></svg>