<svg viewBox="0 0 512 512" xmlns="http://www.w3.org/2000/svg"><defs><clipPath id="a"><path d="M60.8 337h175v175h-175Z"/></clipPath></defs><g clip-path="url(#a)" transform="matrix(2.9257 0 0 2.9257-178-986)"><g fill="#18B637" fill-rule="evenodd"><path d="M0 337l146.6 87.5L0 512Zm293.1 0l-146.5 87.5L293 512Z"/><path fill="#CF0921" d="M0 337l146.6 87.5L293 337Zm0 175l146.6-87.5L293 512Z"/><g fill="#FFF"><path d="M293.1 337h-27.3L0 495.7V512h27.3l265.8-158.7Z"/><path d="M197.2 424.5v0c0 27.94-22.66 50.6-50.6 50.6 -27.95 0-50.6-22.66-50.6-50.6v0c0-27.95 22.65-50.6 50.6-50.6 27.94 0 50.6 22.65 50.6 50.6Z"/><path d="M0 337v16.3L265.8 512h27.3v-16.3L27.3 337Z"/></g><path fill="#CF0921" fill-rule="evenodd" stroke="#18B637" stroke-width="1.333" d="M156.5 405.4l-6.6.1 -3.4 5.6 -3.4-5.6 -6.5-.1 3.2-5.8 -3.2-5.7 6.6-.2 3.4-5.6 3.4 5.7h6.5l-3.1 5.8Zm-22 38.2h-6.6l-3.4 5.7 -3.4-5.6 -6.6-.2 3.2-5.7 -3.1-5.8 6.5-.1 3.4-5.6 3.4 5.6 6.6.2 -3.2 5.7Zm44.6 0h-6.6l-3.4 5.7 -3.4-5.6 -6.5-.2 3.1-5.7 -3.1-5.8 6.6-.1 3.4-5.6 3.4 5.6 6.5.2 -3.2 5.7Z"/></g></g></svg>