<svg viewBox="0 0 512 512" xmlns="http://www.w3.org/2000/svg" xmlns:xlink="http://www.w3.org/1999/xlink"><defs><path d="M509.2 308c-1.2.2-1.8 1.2-2.4 2.1 -.3.9.8 1.8 1 2.8v0c1.3 3.3 1.78 6.87 1.4 10.4 -.1 2.5.8 5 2 7h0c.46-1.58 1.85-2.7 3.5-2.8 .5 0 1.4.2 1-.7 -.4-4.8-1.1-9.6-2.8-14v-.001c-.5-1.74-1.47-3.3-2.8-4.5 -.2-.2-.6-.4-1-.3Z" id="g"/><path d="M481.5 302.7c-3.2 3.3-.7 9.3-1 13.5 1.8 13.2 3.9 26.5 8.8 39 6 12 18.8 18.5 26.5 29.2 2.8 5.1 1.8 11.3 2.4 17 .4 15.3.3 30.7 0 46 7 3.6 14.5 7 22.5 5.7 4.7-1.1 13.5-1.8 14.5-6.5l-1-79.5c-2.7-8.1-11-12.3-17.1-17.5v0c-5.1-5.04-9.85-10.42-14.2-16.1 -2.6-4.5-12.9-6-9.2 1.6 2.2 6.7 7.7 11.6 9.1 18.6 .3 3.9 5 11 1 13.2v0c-2.47-4.35-6.2-7.84-10.7-10 -4.4-3.3-11.7-4.7-13.3-10.5v-.001c-1.45-8.25-5.27-15.9-11-22 1.5-7.4 0-16.7-6.4-21.5l-.9-.2Z" id="d"/><path d="M499.7 306.6c-2 .6-1.6 3.2-1 4.7v0c.87 4.34 1.2 8.77 1 13.2 3.9 3 6.2 7.4 8.4 11.6 1.4 2.8 2.6 5.8 3.1 8.9 3.1 1 5.8 3 8.2 5 -1-2.8-3-5-4.5-7.7s-3-5.6-3.7-8.7c-3-3.1-4.6-7.6-4-12 .2-4.7-1.3-9.6-4.5-13.2 -.8-.8-1.8-1.7-3-1.8Z" id="f"/><path d="M514.8 459.5c-2.5-.4-4.7 2.6-3.7 5 2 2.8 5.3 4.3 8.4 5.6v-.001c5.4 2.12 11.19 3.1 17 2.9h1.5v0c4.93.02 9.83-.94 14.4-2.8 2.7-1.1 6.1-2.2 7.3-5.2 .9-1.7.2-4.1-2-4.3 -1.8 0-3.5 1.2-5.3 1.7v-.001c-6.52 2.69-13.58 3.78-20.6 3.2 -4.4-.5-8.5-2.1-12.5-4 -1.5-.7-2.8-1.8-4.5-2Z" id="b"/><path d="M491.4 304.2c-3 .5-2.8 4.2-1.5 6.2v0c1.48 4.3 1.86 8.91 1.1 13.4l-.001-.001c5.48 6.1 9.15 13.62 10.6 21.7 0 3 3.2 4 5.3 5.5 4.9 3.1 10.3 5.4 14.7 9.3 .9 1 1.6 2 1 0 -.7-2.6-1-5.4-3-7.3 -2.8-3-6.2-5.6-10.2-6.4 -.3-4.2-2.3-8-4.1-11.6 -2-3.5-4.1-7.2-7.5-9.4 0-6.1 0-12.5-2.6-18.2 -.8-1.4-2-3.1-3.8-3.2Z" id="e"/><path d="M518.3 449.6c-2.2-.3-3.7 2.2-3.3 4.1 .3 1.8 1.8 3 3.1 4v-.001c5.44 3.77 11.98 5.63 18.6 5.3h1.6v0c4.15-.04 8.25-.99 12-2.8 2.5-1 5.4-2.3 6.3-5.2 .4-1.3.6-3.2-.9-4 -1.6-.8-3.1.5-4.5 1v0c-4.79 2.51-10.1 3.85-15.5 3.9v0c-4.64-.19-9.15-1.57-13.1-4 -1.5-.7-2.7-2-4.3-2.3Z" id="c"/><path d="M512 469.9c-2.5-.4-5.3 2.1-4.3 4.7 1.8 2.6 5 4 7.8 5.2v0c7.37 2.88 15.29 4.1 23.2 3.6v0c5.79 0 11.55-1.02 17-3 3-1 6.8-2 8-5.4 1.3-2.1-1-4.3-3.1-3.9 -3 .7-6 2-9 2.9v0c-6.6 1.86-13.47 2.54-20.3 2l-.001-.001c-4.98-.73-9.82-2.14-14.4-4.2 -1.6-.7-3.1-1.7-4.9-1.9Z" id="a"/></defs><path fill="#F7E017" d="M0 0h512v512H0Z"/><path fill="#FFF" d="M0 35.6V263l512 106.7v-121Z"/><path d="M0 156.4v106.7l512 213.3V369.8Z"/><g transform="matrix(.71111 0 0 .71111-256 0)"><g fill="#CF1126"><path d="M695.7 569.7v0c-17.56-1.94-34.44-7.82-49.4-17.2 -2.4-1.6-4.6-3-5-3 -.4 0-.6 1.9-.6 4.1 0 6.4-2.6 9.6-9 11.3 -6.2 1.6-15.6-1.6-23.2-8v0c-7.21-6.17-15.62-10.77-24.7-13.5v0c-9.47-2.26-19.42-.98-28 3.6v0c-.85.59-1.8 1.03-2.8 1.3 -1.1 0-1-6.9.2-9 1.5-3 5.1-5.8 9.4-7.3 2.2-.8 4-1.8 4-2.3 0-.4-.8-2-1.7-3.6 -2.9-5.1-1.7-10 3.4-13.9 5.2-4 14-4.6 21.7-1.7v0c1.3.55 2.63 1.02 4 1.4 1 0 .4-1.5-2.4-5.6 -3.2-4.7-3.9-7-3.5-12.7v0c.56-7.21 6.29-12.94 13.5-13.5 5.8-.4 9.4 1.6 18 9.7v0c23.09 23.24 53.43 37.92 86 41.6 8.3 1 24.8.5 34.5-1v0c30.72-5.13 59.21-19.34 81.8-40.8 6.4-6 9.4-7.6 14.7-7.6 4.5 0 7.7 1.4 11 5 3 3.3 4 6.4 3.6 11.5 -.2 3.2-.7 4.7-2.6 7.9 -2.8 4.5-2.3 5 3.2 2.8 7.6-3 16.9-1.6 21.9 3.2 4.4 4.2 4.8 8.4 1.4 14 -1.3 2.1-2.3 4-2.3 4.4 0 .6 1 .8 5.5 1.6 6 1 9.5 5.4 9.5 12.2 0 2-.3 3.7-.6 3.7s-2.6-.9-5-1.9c-7-2.9-11-3.6-19.2-3.5 -6.2 0-8.3.3-12.6 1.7h0c-7.2 2.5-13.83 6.41-19.5 11.5 -6.4 5.7-10.4 7.5-16.6 7.4 -5.8 0-9.7-1.7-11.8-5 -1.1-1.8-1.3-2.8-1-6.8 .2-2.6.1-4.7 0-4.7 -.3 0-2.5 1.4-5 3.1v0c-5.71 4.09-11.93 7.42-18.5 9.9v0c-26.32 9.53-54.49 12.85-82.3 9.7Z"/><path d="M706.3 525.2h0c-39.14-3.6-74.82-23.9-97.9-55.7 -24.4-33.2-32-77.1-24.6-117.2 4-18.3 12-36.6 25.5-49.6v0c-11.13 23.09-14.2 49.25-8.7 74.3 9 49.8 51 91.9 101.3 99.2 20 5.7 40.5-.4 59.5-6.5 42-14.8 74-54.6 77.8-99.1 3.3-24-.3-49.1-11.2-71 6.2 3.3 14 16.2 18.6 24.8 16 31 16.7 68.1 7.3 101.2 -12.8 42.1-45 79-87.5 92.4v0c-19.39 6.05-39.73 8.49-60 7.2Z"/><use xlink:href="#a"/><use xlink:href="#b"/><use xlink:href="#c"/><use xlink:href="#d"/><use xlink:href="#e"/><use xlink:href="#f"/><use xlink:href="#g"/></g><g transform="matrix(-1 0 0 1 1440 0)"><g fill="#CF1126"><use xlink:href="#a"/><use xlink:href="#b"/><use xlink:href="#c"/><use xlink:href="#d"/><use xlink:href="#e"/><use xlink:href="#f"/><use xlink:href="#g"/></g></g><g fill="#CF1126"><path d="M715.7 476v0c-13.8-1.5-25.47-10.86-29.9-24 .3-2.2 3 1.2 4.3 1.5v0c2.43 1.45 5.17 2.34 8 2.6 3.5 1.5 5.7 5 9.1 6.9 1.6 1.2 7.2 3.6 6.1-.3 -1.3-2-2.2-4.6-1-7 1.8-4.1 4.7-7.7 7.7-11.2 2.1-.7 3.6 3.6 5.1 5 2.1 3.3 4.7 7.3 3.4 11.3 -1.2 1.5-2 6 1.3 4.6 4-1.8 7.3-4.8 10.6-7.6 3-2 6.7-2.1 9.7-4 1.5-.3 4.4-3.1 5-1.6v0c-1.8 4.47-4.29 8.62-7.4 12.3v0c-4.81 5.7-11.46 9.56-18.8 10.9 -4.4.8-8.8 1-13.2.6Z"/><path d="M731.5 460.2c.3-2.7-.3-5.4-1.7-8 -2.1-4.2-5-8-8-11.9 -2.8-1.6-4.3 3.7-6.1 5.2 -2.9 4.3-6.5 8.7-6.7 14 -1.6 2.5-4.6-2-5.9-3.5v0c-2.67-3.43-4.08-7.67-4-12l-.001 0c-.25-7.05.98-14.06 3.6-20.6 2-5.6 5.1-11 4.8-17 .2-4.7-.7-9.7-4.4-12.8 -3.6-2.8 2.3-3.4 4.1-2 3.2.3 4.9 5.5 7.8 4.2 1.1-2.7 1.4-6 3.8-8.1 2.3-3.2 4.7 1.3 5.5 3.5 1.7 1.8 0 6.5 2.6 6.6 3.2-2.3 5.5-6 9.6-6.9 1.7-1 4.5 0 2.3 1.8 -3 2.9-5.6 6.4-6.2 10.7 -.9 5.3.4 10.7 2.7 15.4 4.5 9.4 8 20 5.7 30.5 -1 4.6-4.2 8.6-8 11.3 -.5.3-1.3.3-1.5-.4Z"/><path d="M726.7 389.6v-.001c-1.35-2.71-3.26-5.1-5.6-7 -2.4 0-3.9 3-5.5 4.6 -1.1 2.1-2.5 5.6-5.3 2.9 -4.5-2.6-5.2-8.3-5.2-13 -.3-7.6 2.8-14.7 5.5-21.6 1.7-4.3 1.3-9.2.2-13.6 -1.3-5-5.4-8.6-8.5-12.6 .2-1.5 4.2-.7 5.7-.4 3.4.9 5.4 3.8 7.9 6 1.8-.6 1-4.2 1.9-5.9 0-2.4 3.2-5.5 4.5-2.1 2 2.2 0 6.5 2.5 7.8 2.4-.9 3.6-3.5 5.8-4.7v0c2.33-1.52 5.28-1.71 7.8-.5 .9 2.2-2.6 4-3.6 6v-.001c-4.06 5.05-5.47 11.73-3.8 18 1.4 5 3.8 9.5 4.7 14.5v0c1.07 5.7.9 11.57-.5 17.2 -.9 3.4-3.8 5.6-6.8 7 -.8-.7-1.2-1.7-1.7-2.6Z"/><path d="M711.6 326.9c-3.4-2.5-4.5-4.8-4.5-9.5 0-2.3.5-3.6 2-5.8 2.4-3.2 2-4.2-1.3-3.3 -5.3 1.5-7.8.2-8-4.3 0-2.2.4-3.1 3.3-6.7 2.4-2.8 3.3-4.3 2.8-4.8 -.5-.4-3.3 2-9 7.8v0c-3.58 3.76-7.39 7.3-11.4 10.6 -9.8 6.6-19.2 7.6-23.5 2.5 -2.2-2.6-2.1-4 .4-5.6v0c1.59-1.08 3.06-2.32 4.4-3.7v0c4.9-4.48 10.3-8.37 16.1-11.6 3.6-1.8 4.4-3 2.1-3 -3 0-12.5 6.2-19.8 12.8 -2.1 2-5.2 4.2-6.8 5v0c-4.45 1.62-9.27 1.96-13.9 1 -2.2-.7-6.3-4.5-6.3-5.9 0-.3 1-1.1 2-1.8v0c1.62-.93 3.16-2 4.6-3.2 5.8-5 16.8-10.3 25.5-12.2 2.8-.5 1.7-2-1.4-1.8v0c-9.18 1.75-17.78 5.77-25 11.7 -8.3 6.9-20.8 6.2-24.8-1.3 -.7-1.3-1.2-2.5-1-2.7l-.001 0c7.08-1.79 13.93-4.41 20.4-7.8v0c5.57-3.29 11.71-5.49 18.1-6.5 2.8-.5 3-1.9.3-2.2 -3.6-.4-9 1.4-18.5 6 -12.3 6.1-15.8 7.2-22.2 6.8 -6-.4-9.3-1.9-14-6.4 -3.2-3-7.6-10.5-6.8-11.4h0c5.19 1.09 10.49 1.52 15.8 1.3 8.3 0 10.6-.2 15-1.5v0c8.59-2.73 16.69-6.81 24-12.1v0c10.29-8.71 23.31-13.53 36.8-13.6 12.4 0 20.2 2.8 27.2 9.9 2.4 2.4 4.4 3.9 4.7 3.6 .3-.3.6-4.5.7-9.3 0 0 3.7-.4 4.5.7 0 7.7 0 8.4 1.2 8.4 .7 0 1.5-.8 2-2 1-2.5 5-6 9.2-8.2 9-4.5 24.7-4.7 37.3-.3v0c6.02 2.28 11.65 5.49 16.7 9.5v0c7.35 5.17 15.44 9.21 24 12 6.8 2 19 2.5 25.1 1v-.001c1.78-.42 3.58-.75 5.4-1 2.3 0-1.6 7.6-6.2 12.1 -8.4 8.2-19.3 8.1-34.6-.1 -9.6-5.2-21-8-21-5.2 0 .6.6 1 1.5 1 3.3 0 9.7 2.2 18.7 6.5v0c5.65 3.26 11.85 5.46 18.3 6.5 2.3 0 2.4 1.5.2 4.7 -2.3 3.4-6.2 5-11.7 5 -5.3 0-8.3-1.1-13-5 -8-6.6-27.6-14-26.9-10 .2.7 1.1 1.2 3.2 1.5v0c8.44 1.83 16.35 5.59 23.1 11l5.9 4.3c1.1.6 1.1.8.2 2.5 -1.4 2.8-5.2 4.9-9.2 5.3 -5.2.6-9.8-1-14.5-5 -10-8.3-19.3-14.3-22.3-14.3 -2.5 0-1.4 1.4 3 3.7v0c5.69 3.01 10.99 6.7 15.8 11 2 1.9 4.3 3.7 5 4.1 1.9 1 1.8 2.4-.2 5s-5.4 3.8-9.7 3.3c-8.6-.9-15.4-5-26-16v0c-2.53-2.82-5.27-5.43-8.2-7.8 -1.4 0-.5 1.9 2.2 5 3.4 3.7 4 5.8 2.7 9 -1.1 2.6-3 3.3-6.8 2.2 -4-1-4.6 0-2 3.1 3.8 4.9 3.3 10.7-1.5 14.8v0c-1 .95-2.15 1.73-3.4 2.3 -.4 0-1.4-1-2.3-2.4 -3-4.6-5.7-4.6-8.7 0v0c-.64 1.02-1.3 2.02-2 3v0c-1.02-.72-2.02-1.46-3-2.2Z"/><path d="M726.7 233l-5.2 4 -4.6-3.4v27.8h9.8Z"/><path d="M694.9 204.3v0c-.91 11.24-3.97 22.2-9 32.3l11.1-10.3 7.7 9.2 8.4-9.4 8.5 8 8.2-8.3 8.5 10 7.4-8.2 12.6 9c-4.6-10-10.7-18.6-10-32.8 -12.1 9-41 10.6-53.4.4Z"/><path d="M717 197.6c-4.5 0-9.2.1-13.4 1v0c-2.79.44-5.44 1.46-7.8 3 .3 8.6 41 12.1 51.9.2v0c-2.46-1.7-5.26-2.83-8.2-3.3 -4-.8-8.6-.8-12.9-1v7.1H717v-7Z"/><path d="M724.9 154h-6.3v49.4h6.4Z"/><path d="M724.9 155.2l-2.4 23.7 24.3 11.9 -12.3-16.5 16.8-5.5Zm-2.7-6.1c-3.7 0-6.4 1.4-6.4 3s2.7 3 6.4 3 6.4-1.4 6.4-3 -2.7-3-6.4-3Z"/></g></g><g fill="#F7E017"><path d="M249.6 401c2.9-1 4.5-2.7 5.6-6v0c.47-1.26.81-2.57 1-3.9 -.3-1-1.6-1-2.9.2 -1 .7-1 1.1-.8 2.7 .7 4-.7 5-8.3 5.8 -.7 0-2.9 0-4.8-.3 -3.6-.4-4.8 0-3.5 1h-.001c.66.45 1.41.79 2.2 1 2 .5 9.4.2 11.5-.6Zm15.7-.7c.4-.4 1.8-1 3.2-1.5 1.8-.6 2.8-1.2 3.5-2.4 2.2-3.3 1.8-6.1-1.4-10 -1.8-2-2.6-2-4 .4 -1.2 2-1.2 2 .6 2.5 1 .2 1.8 1 2.3 1.8 1.9 3.3 1.3 5.3-1.5 5.3 -2.6 0-3.3.4-4 2v-.001c-.29.67-.49 1.37-.6 2.1 0 .7 1 .6 1.9-.2Zm-5.2-3.8c.5-1.3.7-3.6.6-8.4 0-3.7-.1-6.8-.3-7 -.4-.3-2.5 1-2.8 1.9 -.1.5.1 1.5.5 2.3 .7 1.3.8 2.5.6 7.5 -.3 6.3.1 7.3 1.4 3.7Z"/><path d="M248.1 393.6c.3-1.2.6-3.6.7-5.4 .2-1.7.5-4 .8-5 .8-2.4 0-3-2-1.6l-1.4 1 .3 3.5c.3 3.2-.2 9.1-1 11.4 -.1.7.2.5 1-.4v0c.78-1.08 1.32-2.31 1.6-3.6Zm-10.7 1.7c2.6-2.2 2.3-6 2.9-9 0-2 1.3-4.4.4-6.1 -2.4.4-4 2.7-2.7 5 .1 2.7 0 5.6-1.3 8 -1.1 1.5-4.7 1-4.5-1.1 .9-3.3-3-1.7-4.6-.8 -1.2.8-3.7.9-2.8-1.2 -.6-2.8-4.1-1-6-1 -1.8 0-.2-3.7-2.8-3 -4.8-.5-10.2 0-14.4-3 -2.4-1.1-2-4-.8-6 1.6-2.6 2-5.9 4.4-7.9 2.4-2.3-2.2-1.3-3.3-.5 -2.3 1.2-.2 4.5-2 6.3 -1.2 2-2.7 4.5-5.2 4.2 -3.8-.7-6-4.2-8.6-6.5 -2.3-.5-1 3.7.2 4.6h-.001c2.36 1.75 5.04 3.04 7.9 3.8 2.8-.5 2.9 3.2 5.3 3.8 4.4 2 9.3 2.6 14 2.9 2 .1.9 3.5 3.4 2.8 1.4.4 4.5-.5 4.6 1.1 -2 2.5 2 2.5 3.6 2 2-.3 4.4-1 5 1.6 1.6 1.8 4.6 1.5 6.5.5l.8-.5Z"/><path d="M195 373.7c.7-1 1.9-3 2.6-4.5v0c.54-1.32 1.25-2.56 2.1-3.7 1.3-1.4.6-2.2-1.5-1.7 -1 .2-1.5.6-1.6 1.5 -.6 3-1.7 6.1-2.7 7.5 -1.8 2.6-1.8 2.7-1 2.7 .3 0 1.2-.8 2-1.8ZM168.2 357c-2 0-2 1.3-.1 2 .9.3 1.7 1 2.3 2.4 2 3.7 3 4.4 8 4.8l3.3.3 .1 2c.1 1 .4 2 .6 2 .3 0 1.5-.6 2.8-1.2 2.3-1.2 4.6-4 4.6-5.7 0-1.1-2-2.4-3.6-2.4v-.001c-1.25.18-2.43.7-3.4 1.5 -3.6 2.6-7.4 2-9.5-1.3 -1.7-2.8-3.5-4.4-5.1-4.4Zm17.4 7c1 0 1.2.7.7 2 -.4 1-1.6 1-2 0 -.3-1 .3-2 1.3-2Zm134.9-4.4c-1.3 0-1.7.3-2.5 1.6 -1.4 2-1.5 6.3-.2 7.8 .7 1 .8 1 2.5.3 2.3-1 2.7-.9 2.6.3 0 3.2-4.5 9.2-9.2 12.5v0c-.97.53-1.82 1.24-2.5 2.1 -.4 1 1.4.7 3.5-.4 3-1.5 6.8-5.4 8.4-8.5 1.2-2.5 1.4-3.3 1.6-7.6 0-4 0-5.1-.7-6.5 -.7-1.5-1-1.6-2.9-1.6h-.6Zm.2 2.8c1 0 1.1.2 1.2 1.6 .1 1.2 0 1.9-.7 2.5 -1 .8-1 .8-1.8-.4 -1-1.7-.4-3.7 1.3-3.7Zm-21.6 30.3v0c3.57-1.49 6.48-4.23 8.2-7.7h-.001c.52-1.07.96-2.17 1.3-3.3 0-.6-2-1.5-3.3-1.5 -1.3 0-1.4-.9-1-3.2 .6-2.3 0-5.1-1-5.1 -.4 0-1 .5-1.4 1.1 -.7 1-.7 1.5-.2 3 .7 2 .1 3.7-1.8 5 -1 .7-1.5 1.5-1.5 2.2 0 .6.1 1.1.2 1.1l2.3-1.1 2-1.2 1.3 1c.6.5 1.2 1.4 1.2 1.9 0 2.5-7.2 6.8-12.2 7.2 -2.6.2-3 0-4-.8 -.7-.8-1-1.4-.8-2.3l.6-2.7c.5-2.2-.5-1.9-2.1.7 -1.4 2-1.8 4.4-1 5.6 .6 1 4.7 1.9 7.6 1.7 1.8-.1 3.7-.6 5.6-1.6Zm27.7-15.5c2.6-2.6 3.8-5.8 3.8-10.7v-3.7l2.1-1c2.8-1.3 5.5-4 5.5-5.4 0-1.6-.7-1.5-1.9.2 -.9 1.2-2 1.9-6.4 3.9 -1.1.5-1.2.8-1.4 5.4 -.3 5.3-1 7.2-4 10.9 -1.8 2.1-1.9 2.4-.6 2.4 .5 0 1.8-.8 3-2Zm-28.5-3c.3-.7-1.2-1.2-1.8-.6 -.3.3-.3.7-.1 1 .4.7 1.7.5 2-.3Zm39.3-10.1c.3-.8-1.2-1.3-1.8-.7 -.3.3-.3.8-.1 1 .4.7 1.7.5 2-.3Zm-47.3-27.6c-1 .5-1.5 1.6-2.2 2.5 -.5.3-.1.6.2 1 1.8 1.9 2.5 4.5 3.4 7 .8 2.8 1.9 5.9 1 8.9 -.4 1.1-1.3 2.3-2.6 2 -2.2-.2-4.3-.7-6.4-.7 -2 0-3.5 1.8-5.4 1.6 -1.3.1-1.2-2.5-2.4-1.8 -.6 1.4-.3 2.9-.4 4.4 .3.2.9 0 1.2 0h4c.2 1.4.1 3 1.1 4 1.4.5 2.9 0 4.1-.5 1.4-.6 1.6-2.3 2-3.5 .4-1.4 2.2-1 3.3-1.6v0c2.57-.89 4.24-3.38 4.1-6.1 -.1-4.1-1.7-8-2.9-11.8 -.6-1.7-1-3.4-1.7-5.1 0-.1-.2-.3-.4-.2Zm-6.4 23.3c1.4 0 2 1.7 1.8 2.9 -.6 1.6-2.6.6-3-.6 -.7-1-.2-2.4 1.2-2.3Z"/><path d="M230.4 346.5h-.001c-.76 0-1.5.25-2.1.7 -3.8 2.7-4.8 5.8-2.2 7 1.9.9 1.4 2-1.6 3.5 -4.2 2-8 1.8-15-1.1 -1.8-.8-2.3-.5-1.9 1.1 .4 1.6 1.9 2.4 5.4 3.3 3.9.8 8.5.6 11.5-.7h0c1.75-.89 3.31-2.11 4.6-3.6l2.3-2.5 2.7.3c3.3.4 3.4.5 3.4 2 0 1.3 0 1.4 3.1 1.6l5 .3c1.4 0 2.2.3 2.6 1 .6.7 1 .8 6 .3 4.6-.4 5.6-.4 7.7.4 1.5.5 3.1.7 4.4.5 3.6-.4 8.5-3.3 9.2-5.5 .1-.2 1.4-.7 2.9-1 3.6-.7 3.8-1.5.4-1.9v-.001c-1.68-.23-3.32-.64-4.9-1.2h-.001c-1.19-.48-2.43-.79-3.7-.9 -1.8 0-3.6 1.1-3.6 2.3 0 .8.3.9 2.5.7 2-.3 2.6-.2 3.6.7 .8.6 1.2 1.2 1 1.4 -.4.8-4.6 2.7-6.5 3v0c-1.09.22-2.21.08-3.2-.4 -1.7-.8-4.1-1-4.6-.3 -.1.4-.7.2-1.4-.5l-1-1 -2.6 1c-2.6 1-3.5 1-3.5-.2 0-.6-.7-.6-4.5-.4 -4.2.3-4.6.2-5.4-.6 -.7-.8-.7-1.1-.2-2 .5-.7.5-1 0-1.5 -.4-.4-1-.4-2.6 0 -4.1 1.1-5.3.5-5.3-2.7 0-2-1.1-3.1-2.5-3.1Zm-1 3c.2 0 .3 0 .6.4 .4.3.6 1 .4 1.4 -.3 1-2.1.9-2.5-.1 -.1-.5 0-1 .6-1.4l.8-.4Z"/><path d="M222 352.4c2.4-1.6 2.4-1.4 2.7-5.9 .3-3 .3-3.3-.6-3.3 -1.2 0-1.9 1.3-1.9 3.9 0 1.6-.2 2.4-1 3.3 -2.2 2-7.4 1.1-8-1.5 -.2-.9 0-1.7 1.1-3.2 2.3-3.2 1.8-4-1-1.6 -2 1.7-2.3 1.7-1.9.3 .3-1.3-.4-1.9-2-1.5 -.7.2-1.1.7-1.3 1.7 -.2 1-.7 1.5-1.4 1.6 -1.3.4-3.4-.8-3.4-1.9 0-.7 3.2-4.6 7.3-9h-.001c1.09-.99 2.06-2.1 2.9-3.3 0-.2-.9-.4-1.9-.4 -1.5 0-1.8.2-1.8.9 0 .4-2.1 3.2-4.7 6 -5.3 6-5.7 7.3-3 8.8l0-.001c2.14 1.28 4.83 1.2 6.9-.2l1.7-1.2v2.2c0 2.7.5 3.6 2.7 4.8v0c2.71 1.36 5.96 1.17 8.5-.5Zm111.3-36.9c-2 1.2-.5 3.7-.2 5.3 -.8 2.2-3.6 2.8-5.7 3.3 -3 .4-5.1 3-6.2 5.6 -.6 1.7-2.1 4.3-3.7 1.7 -1.4-1.4-4-2.5-5.6-.9 -1.3 1.2-1.6 3-2.1 4.6 -.7-1.2-1-3-2.6-3.4 -2.5.3-1.6 3.5-.5 4.8 1.1 1.5 2.1 3.5 1 5.3 -.8 2.2-4 3.6-6 1.8 -1.7-1-.5-4.3-2.2-4.5 -.9.7-1 4.1-2.3 2.2 -1-1.6-.5-3.8-1.7-5.2 -1.4.2-2.6 2.6-2.1 4v-.001c1.72 2.66 2.88 5.66 3.4 8.8 .5 1.3 0 3.7 1.1 4.2 .8-2 0-4.2.7-6.2 1.8-.2 4 .6 5.9.2 2.8-.4 5-2.7 5.9-5.2 .3-2 0-3.8-.1-5.7 2.2.3 4.5.3 6.6 1 1 1.6-.3 3.9-.6 5.6 -1.1 3.6-4 6.2-6.7 8.6 -1.1.7-1.3 2.5.4 1.6 3.7-1.6 6.4-5 8-8.6 1.2-2.7.2-5.8 1-8.6 1.1-2.2 3.8-1.7 5.8-1.7 2-.1 3.8-2.5 3-4.5 -.6-2.3 1.9-3.4 3.5-4.2 2.2-1.1 4-3.4 3.8-6 -.1-1.3 0-3.8-1.8-3.9Zm-7.9 13.3c2.4.7-.4 5.2-1.7 2.3 -.3-1 .6-2.3 1.7-2.3Zm-11 3.3c3.1-.2 2 4.3-.6 2.3 -1.4-.7-1-2.4.6-2.3Zm-111.7 17.4c.1-.5-.1-.8-.5-.8 -.9 0-1.4.8-1 1.4 .4.7 1.4.3 1.5-.6Zm36.2-4c0-.7-.3-1-.8-.8 -1.2.2-1.4 1.7-.2 1.7 .7 0 1-.3 1-1Zm-44.7-21.7c-1.5-.3-2.4.9-2.9 2 -1 1.9-2.4 3.7-4.3 4.7 -1.4.4-3-.2-4.1-.9 -1.5-.7-1.1-2.4-1.8-3.6 -1-.8-2.8.3-2.8 1.6 -.1 1.7 1.5 2.7 2.8 3.3 1.1.7 2.7 1.1 3.2 2.5 0 1.2.4 2.5 1.9 2 1.6 0 2 2 1.3 3.2v0c-.74 1.3-1.02 2.81-.8 4.3 .8.7 1.6-1 2.2-1.6l1.1-1.5c2.8.2 5.7.5 8.5.4 2 0 3.8-1.3 5-2.7 1.9-2 3.4-4.2 5.5-5.8 1.5-.4.7-3.2-.9-2.4 -1.4.6-1.8 2.1-2.8 3.1 -1.6 2-3.3 4-5.4 5.6 -1.5.6-3.2.4-4.8 0 -.6-.5 1.3-1 1.6-1.6 .9-1 2-1.8 2.4-3 -.5-1-2-1.1-3-1.1 -2.7.3-4.7 2.5-7.3 2.7 -2 0-1-2.1 0-2.8 1.7-2.1 3.6-4.1 5.5-6.2 .5-.6 2.4-1.2 1.2-2 -.4-.2-.9-.2-1.3-.2Zm1.3 10.6c1.3.7-.9 2-1.8 1.8 -1.2.3-1.2-.9-.2-1.1 .6-.3 1.3-.7 2-.7Zm-4.1 2.8c.7 0 2.3.7.8 1.1 -1 .8-2.2-.8-.8-1.1Z"/><path d="M223.4 339c0-1-1.8-.9-2 .2 -.1.6 0 .8 1 .7 .5-.1 1-.5 1-.9Zm79.7-7c.2-1-1.2-1.6-1.9-1 -.7.8 0 2.1 1 2 .4-.2.8-.6.9-1Zm-124-9.8c1.2-1 1.2-1.1.7-3.5 -.8-3.3-.7-3.7.5-4 1.6-.4 5.7 1.8 6.6 3.5 .7 1.4.7 1.4-.5 2.5 -1.3 1.2-1.3 2.6 0 2.6 1 0 4-2.8 4-3.8 0-1.3-3.3-4.6-5.8-5.8v0c-1.57-.71-3.28-1.05-5-1 -3.3 0-3.7.7-2.9 4.5 1 4.4-.3 5-4 1.7v-.001c-2.58-2.34-3.91-5.74-3.6-9.2 0-4.4 1.7-6.6 5.4-7 2.6-.4 2.5-1 0-1.4 -3.9-.6-7 2-8.3 6.4 -1.3 5 1.8 11.1 7.2 14.2 2.9 1.7 4 1.7 5.7.3Zm148.5-5.5c.3-.3.5-1 .5-1.5s.6-1.7 1.2-2.5h-.001c.5-.6.91-1.28 1.2-2 0-.9-1.5-.8-2.6 0 -1.2 1-2 1-2 .1 0-.2.5-.7 1.2-1 1.7-.8 1.8-1.6.4-2.3 -1.9-.8-3.7.7-3.9 3.2 -.1 1.7 0 2 1.3 2.7 1.2.7 1.4 1.1 1.2 2 -.3 1.8.4 2.4 1.5 1.3Zm14-1.6c1-.9 1.8-2 1.8-2.3 0-.3.9-1.2 2-2 3-2.2 3.7-4.4 2.3-7.9 -.5-1.3-2.2-3.2-5.8-6.5v-.001c-1.75-1.72-3.66-3.26-5.7-4.6 -1 0-.9 3.7.1 4 1.9.6 3 1.4 5.8 4 3.4 3 4.9 5.8 4 7.3 -.7 1.5-1.8 1-4.8-2 -1.5-1.7-3-3-3.3-3 -.4 0-.6.5-.6 1.4 0 1 .5 2 2 3.7 2.5 2.8 2.8 4.4 1 5.9 -.8.5-1.4 1-1.6 1v0c-2.43-4.14-5.66-7.75-9.5-10.6 -.5 0-.7.4-.7 1.5 0 1.3.3 1.8 1.3 2.3 1.2.6 4.4 3.8 7.5 7.6 .9 1 1.8 2 2 2 .1 0 1.1-.8 2.1-1.8Zm6.2-17.8c-.4-1.3-9-10-9.8-10 -.5 0-.6.5-.5 1.9 0 1.7.3 2 1.4 2.2 .8.3 3 2 5 4s3.8 3.4 4 3.3l-.1-1.4Zm-51 98.7l-.001-.001c.27.61-.04 1.31-.7 1.56 -.67.25-1.43-.04-1.7-.65 -.14-.3-.14-.63 0-.93v0c-.2-.64.2-1.31.89-1.49 .69-.19 1.4.18 1.6.82 .06.21.06.44 0 .65Zm4.6-1.5v0c0 .66-.59 1.2-1.3 1.2 -.72 0-1.3-.54-1.3-1.2v0c0-.67.58-1.2 1.3-1.2 .71 0 1.3.53 1.3 1.2Z"/></g></svg>