<svg viewBox="0 0 512 512" xmlns="http://www.w3.org/2000/svg"><g fill="#229E45" fill-rule="evenodd"><path d="M0 0h512v512H0Z"/><path fill="#F8E509" d="M261.4 405.4l229.8-149.2L260 106.6l-230.7 150 232 148.8Z"/><path fill="#2B49A3" d="M361.5 256h0c1.66 53.65-40.49 98.5-94.14 100.16 -53.66 1.66-98.51-40.49-100.17-94.14 -.07-2.08-.07-4.16 0-6.24l0-.001c1.77-53.66 46.7-95.71 100.36-93.94 51.23 1.69 92.34 42.89 93.93 94.13Z"/><g fill="#FFFFEF"><path d="M232.3 314.2l-3-1.8 -3.1 1.6 .7-3.5 -2.4-2.5 3.4-.4 1.6-3.2 1.5 3.3 3.4.6 -2.6 2.4m65.7 20l-3-1.8 -3.2 1.6 .7-3.5 -2.4-2.5 3.5-.4 1.6-3.2 1.4 3.3 3.4.6 -2.5 2.4m-27.6-22.9l-2.6-1.5 -2.7 1.3 .6-3 -2-2.2 2.9-.3 1.4-2.7 1.2 2.8 3 .5 -2.2 2m66.2-6.4l-2.6-1.5 -2.6 1.3 .6-2.9 -2-2.1 2.9-.4 1.3-2.6 1.3 2.7 2.9.5 -2.2 2m-66.6-16.7l-3-1.8 -3.1 1.6 .7-3.5 -2.4-2.5 3.4-.4 1.6-3.1 1.5 3.2 3.4.6 -2.6 2.4M188 245l-3-1.8 -3 1.6 .6-3.5 -2.4-2.5 3.5-.4 1.6-3.2 1.4 3.3 3.4.6 -2.5 2.4m10.1 43.5l-3-1.7 -3.1 1.5 .7-3.4 -2.4-2.6 3.4-.4 1.6-3 1.5 3.1 3.4.7 -2.6 2.3m100.6-51.3l-2.6-1.5 -2.8 1.3 .6-3 -2-2.3 3-.3 1.4-2.8 1.3 2.9 3 .5 -2.3 2.1m-5 29.2L290 255l-2.1 1 .4-2.4 -1.6-1.7 2.4-.3 1.1-2.2 1 2.3 2.4.4 -1.8 1.6m-108.4 38.5l-2-1.2 -2.1 1 .4-2.3 -1.6-1.7 2.4-.2 1-2 1 2 2.3.5 -1.7 1.6m152.6 11.5l-1.7-.8 -1.7.7 .4-1.7 -1.3-1.3 1.9-.2 .9-1.5 .7 1.6 1.9.3 -1.4 1.2"/><path d="M183.5 292.3l-2-1.2 -2.1 1 .5-2.3 -1.7-1.7 2.3-.2 1.1-2 1 2 2.3.5 -1.7 1.6"/><path d="M183.5 292.3l-2-1.2 -2.1 1 .5-2.3 -1.7-1.7 2.3-.2 1.1-2 1 2 2.3.5 -1.7 1.6m32.2 2.3l-2-1.2 -2 1 .4-2.3 -1.6-1.7 2.3-.2 1-2.1 1 2.1 2.3.5 -1.7 1.6m-3.7 13l-2-1.2 -2 1 .4-2.3 -1.6-1.7 2.3-.3 1-2 1 2 2.3.5 -1.7 1.6m66.7-17l-2-1.2 -2.1 1 .4-2.3 -1.6-1.7 2.3-.2 1.1-2.1 1 2.1 2.2.4 -1.7 1.6m-19.1 2.4l-2-1.2 -2.1 1 .5-2.3 -1.6-1.7 2.3-.2 1-2.1 1 2.1 2.3.4 -1.7 1.6m-52.5-4.4l-1.2-.7 -1.3.6 .2-1.5 -1-1 1.5-.2 .7-1.3 .5 1.4 1.5.2 -1 1M333.2 310l-2-1.1 -2.1 1 .5-2.3 -1.6-1.7 2.3-.3 1-2 1 2 2.3.5 -1.7 1.6m-16 4.4l-1.6-1 -1.7 1 .4-2 -1.4-1.4 2-.2 .8-1.7 .8 1.7 2 .4 -1.5 1.3m8 1.8l-1.6-1 -1.6.9 .3-1.8 -1.2-1.3 1.8-.2 .8-1.6 .7 1.6 1.8.3 -1.3 1.3m22.2-17.4l-1.5-.9 -1.6.8 .4-1.7 -1.2-1.3 1.7-.2 .8-1.5 .7 1.6 1.7.3 -1.3 1.2M317 322.9l-2-1.1 -2 1 .5-2.2 -1.6-1.5 2.2-.3 1.1-1.9 1 2 2.1.4 -1.6 1.4m.4 10.9l-1.8-1 -1.8.9 .4-2.2 -1.4-1.5 2-.3 1-1.9 .8 2 2 .4 -1.5 1.4M302.3 312l-1.5-.9 -1.6.8 .4-1.8 -1.2-1.2 1.7-.2 .8-1.6 .7 1.6 1.7.3 -1.3 1.2m-13.5 1.8l-1.5-.9 -1.6.8 .4-1.8 -1.2-1.2 1.7-.2 .8-1.6 .7 1.6 1.7.3 -1.2 1.2M265 291.4l-1.5-.9 -1.6.8 .4-1.7 -1.2-1.3 1.7-.2 .8-1.5 .7 1.6 1.7.3 -1.3 1.1m2.9 43.5l-1.3-.7 -1.3.7 .3-1.5 -1-1 1.4-.3 .7-1.3 .6 1.4 1.5.2 -1.1 1m-35.2-66l-3-1.7 -3.1 1.5 .7-3.4 -2.4-2.6 3.4-.4 1.6-3.1 1.5 3.2 3.4.6 -2.6 2.4"/></g><path fill="#FFF" d="M355.1 291v0c1.88-4.91 3.35-9.96 4.4-15.1 -51.6-45.4-109.2-68.7-182-63.9v0c-2.61 5.09-4.76 10.41-6.4 15.9v0c67.58-6.83 134.78 16.18 184 63Z"/></g><g fill="#309E3A"><path d="M331.9 265.4l1.8 1v0c-.29.55-.36 1.19-.2 1.8 .1.4.5.9 1 1.2 .6.4 1.1.6 1.6.6 .4 0 .8-.3 1-.6 .1-.2.2-.4.1-.7l-.3-.8 -1.2-1.3v0c-.64-.65-1.12-1.44-1.4-2.3v0c-.37-1.35.32-2.76 1.6-3.3v0c.53-.24 1.12-.31 1.7-.2v-.001c.72.15 1.4.46 2 .9h-.001c.86.6 1.55 1.43 2 2.4v0c.24.89.06 1.85-.5 2.6l-1.8-1.1c.2-.5.3-1 .2-1.4 -.1-.3-.5-.7-1-1 -.5-.4-1-.5-1.4-.5v-.001c-.24 0-.46.11-.6.3h-.001c-.15.2-.18.46-.1.7 0 .4.5 1 1.2 1.7l1.5 2 0-.001c.55 1.01.47 2.26-.2 3.2v0c-.35.49-.84.87-1.4 1.1v0c-.6.27-1.27.34-1.9.2v0c-.76-.2-1.48-.54-2.1-1h0c-.95-.57-1.66-1.46-2-2.5 -.3-.9-.2-1.9.4-3Zm-8.8-5.7l2 1h0c-.24.49-.31 1.05-.2 1.6 .1.5.5 1 1 1.3 .6.4 1.1.5 1.6.4 .4 0 .8-.2 1-.6v0c.09-.19.12-.4.1-.6 0-.3-.1-.5-.4-.8l-1.2-1.3v0c-.66-.62-1.18-1.37-1.5-2.2v0c-.27-.81-.16-1.69.3-2.4h-.001c.29-.45.71-.79 1.2-1v0c.53-.24 1.12-.3 1.7-.2 .6 0 1.2.3 2 .8 1 .7 1.8 1.4 2 2.3v-.001c.3.86.19 1.82-.3 2.6l-1.9-1.1c.3-.5.3-1 .2-1.3 -.2-.4-.5-.7-1-1v0c-.43-.34-.96-.51-1.5-.5v0c-.26.03-.48.17-.6.4v0c-.11.22-.11.47 0 .7 0 .3.5.9 1.2 1.7 .8.7 1.3 1.4 1.6 1.8v0c.62 1.02.59 2.31-.1 3.3v0c-.7 1.05-1.96 1.6-3.2 1.4h0c-.79-.16-1.54-.46-2.2-.9v0c-.96-.54-1.71-1.38-2.1-2.4h0c-.29-1.01-.18-2.08.3-3Zm-10.8-3l5.6-9 6.7 4 -1 1.6 -4.8-3 -1.3 2 4.6 2.8 -1 1.6 -4.5-2.8 -1.5 2.5 5 3 -.9 1.6 -6.9-4.2Zm-15.8-12.9l.9-1.6 4 2.2 -1.9 3.7v-.001c-1.63.35-3.32.14-4.8-.6v0c-.9-.47-1.66-1.16-2.2-2l0-.001c-.53-.77-.81-1.68-.8-2.6 0-1 .3-1.9.8-2.8v0c.46-.93 1.14-1.72 2-2.3 .7-.6 1.7-.9 2.7-.9 .7 0 1.6.3 2.5.7v0c.98.46 1.79 1.23 2.3 2.2 .4.8.5 1.7.3 2.7l-2.1-.6h0c.11-.51.04-1.04-.2-1.5v-.001c-.27-.5-.69-.88-1.2-1.1v0c-.72-.45-1.6-.56-2.4-.3 -.7.3-1.4 1-2 2v0c-.49.91-.67 1.97-.5 3 .2.8.7 1.4 1.6 1.8l1.3.4h1.3l.6-1.2 -2.2-1.2Zm-68.8-17l1.6-10.6 3.2.5 .8 7.5 3-7 3.1.5 -1.5 10.6 -2-.3 1.2-8.3 -3.3 8 -2-.3 -.9-8.7 -1.2 8.4 -2-.3Zm-10.7-1.3l1-10.6 7.8.7 -.1 1.8 -5.8-.5 -.2 2.3 5.3.5 -.1 1.8 -5.3-.5 -.3 3 5.9.5 -.2 1.8 -8-.8Z"/><path d="M181.4 218.8c0-1 .2-2 .5-2.7l1-1.4 1.5-1h-.001c.73-.26 1.52-.36 2.3-.3v-.001c1.4-.01 2.74.57 3.7 1.6 1 1 1.3 2.3 1.3 4 0 1.8-.6 3.1-1.5 4v0c-1.02.98-2.4 1.49-3.8 1.4h-.001c-1.39.03-2.73-.51-3.7-1.5v0c-1.01-1.08-1.48-2.55-1.3-4Z"/></g><path fill="#F7FFFF" d="M183.6 218.8c0 1.2.2 2.2.8 2.8 .5.7 1.2 1 2 1v0c.82.01 1.62-.31 2.2-.9 .5-.6.8-1.5.9-2.7 0-1.3-.2-2.2-.8-2.8h-.001c-.5-.61-1.23-.98-2-1 -1 0-1.7.3-2.2.9 -.6.6-.9 1.5-1 2.7Z"/><path fill="#309E3A" d="M194 224.4l.1-10.7h4.5c1.2 0 2 .2 2.5.4s1 .5 1.2 1c.2.5.5 1 .5 1.7 0 .8-.3 1.4-.7 2 -.5.5-1.2.8-2.2 1 .5.2.9.5 1.2.8l1.2 1.8 1.3 2H201l-1.5-2.3v0c-.37-.56-.77-1.1-1.2-1.6v0c-.17-.18-.38-.32-.6-.4v0c-.33-.12-.66-.19-1-.2h-.5v4.5H194Z"/><path fill="#FFF" d="M196.2 218.2h1.6v0c.66.08 1.33.08 2 0l.5-.5c.2-.2.3-.5.3-.8 0-.4-.1-.7-.3-.9v0c-.22-.23-.5-.37-.8-.4h-3.2v2.6Z"/><path fill="#309E3A" d="M206.2 214.2l3.9.2v0c.67.01 1.34.11 2 .3v0c.56.21 1.08.55 1.5 1h0c.46.55.8 1.2 1 1.9 .2.7.2 1.5.2 2.5v0c.06 1.54-.57 3.04-1.7 4.1 -.4.3-.9.6-1.5.8h-2l-4-.1 .6-10.7Z"/><path fill="#FFF" d="M208.2 216.1l-.3 7 1.6.2h1.3l.9-.5c.3-.2.4-.5.6-1l.3-2 -.1-1.8c-.2-.5-.3-.8-.6-1v0c-.27-.3-.62-.51-1-.6h-.001c-.56-.12-1.13-.19-1.7-.2h-1Z"/><path fill="#309E3A" d="M258.5 233.3l2.5-10.4 3.3.8c1.3.3 2.1.6 2.5.8 .5.3 1 .7 1.2 1.3 .3.7.3 1.4.1 2.2v-.001c-.19 1.04-.91 1.92-1.9 2.3v-.001c-.35.16-.72.27-1.1.3v0c-.75-.07-1.49-.2-2.2-.4l-1.4-.3 -1 3.9 -2-.5Z"/><path fill="#FFF" d="M262.6 225.2l-.7 3 1.2.2c.8.2 1.4.3 1.7.2l0-.001c.56-.06 1.04-.46 1.2-1l-.1-1.1v0c-.18-.33-.46-.58-.8-.7l-1.5-.4 -1-.2Z"/><path fill="#309E3A" d="M268.4 236.3l3.5-10.1 4.3 1.5v0c.77.22 1.52.55 2.2 1 .4.4.7.9.9 1.5 .2.6 0 1.1-.2 1.7 -.2.8-.7 1.3-1.3 1.6v0c-.7.4-1.53.51-2.3.3l.8 1.2 .6 2 .5 2.4 -2.4-.8 -.7-2.7v0c-.16-.65-.36-1.29-.6-1.9v0c-.09-.23-.23-.44-.4-.6v0c-.31-.23-.65-.39-1-.5l-.4-.1 -1.5 4.2 -2-.7Z"/><path fill="#FFF" d="M272.4 231.2l1.5.5 1.9.5c.3 0 .5 0 .7-.2l.5-.7v-1 0c-.13-.27-.34-.48-.6-.6l-1.5-.5 -1.6-.6 -.9 2.6Z"/><path fill="#309E3A" d="M280.9 235.9h-.001c.25-.92.69-1.77 1.3-2.5 .3-.5.8-.8 1.3-1.1v0c.49-.28 1.03-.45 1.6-.5 .7 0 1.5 0 2.3.3v0c1.37.34 2.53 1.25 3.2 2.5 .6 1.2.7 2.7.1 4.3v0c-.34 1.45-1.24 2.71-2.5 3.5v-.001c-1.25.62-2.7.69-4 .2v0c-1.38-.35-2.54-1.26-3.2-2.5v0c-.59-1.34-.63-2.85-.1-4.2Z"/><path fill="#FFF" d="M283 236.5c-.3 1.1-.3 2 0 2.8 .4.8 1 1.3 1.8 1.6 .8.2 1.5.1 2.2-.3 .7-.4 1.3-1.2 1.7-2.4 .3-1.2.3-2.1 0-2.9h-.001c-.35-.75-1.01-1.3-1.8-1.5v0c-.78-.26-1.62-.15-2.3.3 -.7.4-1.2 1.2-1.6 2.4Z"/><path fill="#309E3A" d="M301.7 250.8l4.9-9.5 4 2c1 .6 1.7 1 2 1.4 .4.5.6 1 .7 1.5 .1.5 0 1.2-.4 1.7 -.3.7-.8 1.2-1.5 1.5 -.7.2-1.4.2-2.3-.1 .3.4.5.9.6 1.3l.3 2.1 .2 2.5 -2.3-1.2 -.3-2.8 -.3-2v0c-.09-.23-.23-.44-.4-.6v-.001c-.27-.25-.58-.45-.9-.6l-.4-.2 -2 4 -1.9-1Z"/><path fill="#FFF" d="M306.4 246.3l1.4.7 1.8.8c.3 0 .5 0 .7-.2v-.001c.55-.29.86-.89.8-1.5v0c-.11-.3-.33-.55-.6-.7v-.001c-.43-.29-.86-.55-1.3-.8l-1.5-.7 -1.3 2.4Z"/><path fill="#309E3A" d="M341.2 270.3c.6-1 1.2-1.6 2-2l0 0c.48-.33 1.02-.57 1.6-.7h-.001c.52-.11 1.07-.11 1.6 0 .7.1 1.5.4 2.2 1v0c1.19.72 2.02 1.92 2.3 3.3v0c.14 1.45-.25 2.91-1.1 4.1v0c-.77 1.3-2.04 2.24-3.5 2.6v0c-1.37.25-2.79-.08-3.9-.9v0c-1.2-.73-2.03-1.93-2.3-3.3v0c-.23-1.45.13-2.93 1-4.1Z"/><path fill="#FFF" d="M343 271.4c-.6 1-.9 2-.8 2.8v0c.13.81.6 1.54 1.3 2v0c.64.44 1.44.59 2.2.4 .8-.2 1.6-.8 2.3-1.9 .7-1 1-1.9.8-2.7 0-.8-.5-1.4-1.2-2 -.7-.6-1.5-.6-2.3-.4 -.8.2-1.5.8-2.2 1.8Z"/><path fill="#309E3A" d="M246.4 229l1.7-7.6 5.6 1.3 -.3 1.3 -4-1 -.4 1.7 3.7.9 -.3 1.3 -3.7-1 -.5 2.1 4.2 1 -.3 1.3 -5.7-1.3Z"/></svg>