<svg viewBox="0 0 512 512" xmlns="http://www.w3.org/2000/svg"><path fill="#FFD520" d="M0 0h512v512H0Z"/><path fill="#FF4E12" d="M0 512h512V0Z"/><g stroke-width=".4" fill="#FFF" stroke="#000"><path d="M281.9 162.5c-4-1.4-6.4.6-6.3 5.7 .1 5 2.8 7.9 6.7 6l-.4-11.7Z"/><path d="M285.3 153.1c-3.2-2.6-6.3-1.5-7.8 3.3s.1 8.4 4.4 7.9l3.4-11.2Z"/><path d="M290.7 144c-2.8-3-6-2.5-8.2 2 -2.2 4.5-1.3 8.3 3 8.5l5.2-10.5Zm-3.5 44.2c-4.8 1.8-5.3 8.3-2.3 12.3s8.5 4.8 11.6 0l-9.4-12.3Z"/><path d="M281.6 174.4c-4.5-1.5-8.6 4.6-9.3 10 -.8 7-10.6 9.2-5.2 19.7 1.1-6.7 5.5-10.3 9-10.6 3.5-.2 8.8-1 11-5.3l-5.5-13.8Zm14.3 26.9c-5.2 1.3-6 8.3-2.2 13.3 3.2 4.3 13.3 3.3 13-1L296 201.3Zm15 42.3c.2-4.5-7-6.3-10.5-5.4 -3.6.9-10.3-.1-11.9-3.9 -1.2 3 .6 6.3 5.7 8 3.8 1.2 3.8 4 2.6 5.2 3 .5 11.5.5 14-3.9Z"/><path d="M306.8 214.7c-5.2-2.2-8.3 1.2-10.2 4.6 -3 4.9-11.8-1.4-14.8 5.1 4-1.7 8.2 2 10.1 3.3 5.6 3.6 16.2 2.5 17.7-6l-2.9-7Z"/><path d="M309.8 220.8c-5.2 3.8-7.2 8.5-7 11.6 0 3.2 4.5 10 9.2 10.5 2.8-5.7 4.2-17.6-2.2-22.1ZM288.4 245c0-1.9 2.8-2.6 4.7-2 1.8.6 4.7 2.5 3.7 4.5l-8.4-2.5ZM260 234.7c-.5-2.3 3.2-6.2 8-4 5 2.1 5.6 6.3 3.6 7.9l-11.6-3.9Z"/><path d="M272 238.8c-.4-1.2 3.1-3.7 9.1-2.2s7.5 5.4 7.3 8.4l-16.4-6.2Zm-12.6-4.1c3.1-2.4 2-7-.9-8.3 -5.1-2.5-3.2-9-6.5-10.3 -3.3-1.2-6.4-3.5-6.5-5.8 -1.7 3.2-.7 6 1.6 8s-1.8 10.2 1.1 12.4l11.2 4Zm-67.3-1.8c-2.6-4.1-9-3.3-11.5-.5 -2.7 3-2.3 7.2.2 9l11.3-8.5Zm15-6.1c-1-5.5-7.6-6.2-11.2-4.8 -3.7 1.4-6.2 7-3.8 11l15-6.2Z"/><path d="M217.2 226c2.4-4.6-2.2-11.5-7.5-12.5 -4.4-.9-9.6-.8-11.3-5.2 -1 3.8 1.7 6.2 5 8.3 3.3 2.2-.6 7.7 4.7 10.8l9.1-1.4Z"/><path d="M216.7 226.2c-1-3.3 1.2-7.8 5.7-7.5 4.5.4 7 3.6 5 7.7l-10.7-.2Z"/><path d="M226.8 226.4c-.7-3.4 2.2-7.5 6.6-6.5 4.4.9 6.5 4.5 4 8.3l-10.6-1.8Z"/><path d="M236.7 228c-.4-3.4 2.6-7.4 7-6.2 4.4 1.1 6.3 4.8 3.5 8.5l-10.5-2.3ZM161 285.6c-8.4 0-10.5 2-11.7 10.6 -1.5 10.8 13.2 12 11.7-10.6Z"/><path d="M164.7 274.3c-12.9-5-20 15.5-32.7 11.9 4.6 7.3 15.7 0 19.8.7 7 1.3 22.2-1.3 13-12.6Zm-8.4 28c-6.4-3-13.3 6.8-12 11.1 1.6 5.5 16.2 1 12-11.1Zm-29.9 42.1c3.6 1 7.8 3 7 9.8 -.7 6.8-13.5 20.6-25 21.4 -11.6.7-15.7 14.7-25.7 10.8 9.3-1.8 9.3-12.3 16.6-15.6 -5.3-1.9-8 10-14.8 10 -6.8 0-10 10.9-18.3 10.1 -8.3-.7-9.2 13.1-25.8 13.3 -12.6.1-28.3 15-34 8.6 12.3-1.8 17.3-8.6 24.6-16.1 11.8-12 25.1-6.7 29.7-17.3h-.001c-5.29 3.53-11.55 5.35-17.9 5.2 -7.7-.1-16.2 12.3-24.8 6.8 5-.6 8.3-2.8 13.5-8.3 5.4-5.6 13.3-2 19.6-7.8 9.8-9 18.2-1.5 27.6-12.8 -2.6-1.2-8.3-.3-13.5 2.4 -5.3 2.8-12-1.9-18.1 1.4 .7-7.4 14.8-3.2 23.6-8.3 10-5.8 18.1-4 26-3.4 -11 0-15.2-10.4-30.3-7.4 -6.5 1.3-11.8-9-18.3-3.8 .2-3.9 7-7 14-3.2 7 3.7 10-3.3 24 5.5 5.7 3.6 15.6-2.3 21.9 1.6 -.8-2.4-4.4-3.9-8.6-3.5 2.6-5.4 19.6-4.7 27 .7Z"/><path d="M137.6 336.3c-5.5-4.3-13.2.9-18.4-1.2 0 3.6 1.7 8.8 7.5 10.8h0c3.83-3.01 7.5-6.21 11-9.6Z"/><path d="M146.3 324.1c-8.7-4.4-10.2 6.5-17 4.3 .3 3.1 2.8 7 8.3 7.9l8.7-12.2Z"/><path d="M151.4 314.2c-12.8-5-14.4 7.3-22 4.9 1.8 4.2 12.6 6.5 18.1 5l4-10Zm17.6-53.9c-3.4-4.8-10.5-.9-11.7 4.8 -1.1 5.6 1.7 13.5 6.4 11.8l5.3-16.6Z"/><path d="M177.7 245.2c-6-1.3-12.7-.7-12 5 -2.2 1-2.9 8.5 3.3 10.1l8.7-15Z"/><path d="M181.6 241.3c-5.8-6.7-12.3-6.6-15.9-3.7 -6.6 5.3-13 2.2-13.3 7.5 4-3 7.6.6 10.8-.5 3.3-1.1 5.7 5.2 14.7 2.5l3.7-5.8Zm-14 101.4c.9 1.6 6.3 2.4 9-.4 3.4-3.7-.4-13.8-6-14.6 -5.5-.7-6 11.5-3 15Z"/><path d="M161.3 343c8 2.8 11.3-3.7 7-7.9h-.001c-2.16 2.75-4.5 5.35-7 7.8Z"/><path d="M131.7 353.7c-1.5 4.6-9.3 5.3-18 19.4 -8.9 14-17.3 8.1-19.4 17.8 10.5-8.5 18.8-2.9 25.1-11.3 9.6-12.8 17.4-11 21.1-19.6 5.3-12.3 28.4-12 29.6-31.4 -7.7-1.5-32.4 19.4-38.4 25.1ZM330 164c10 3.3 10.3 16.3 21.8 20.6 11.6 4.2 12.7 14.5 22.1 12 -8.8-2.4-8.2-12.5-17.3-15 -10.8-3-14.8-19.4-23.4-21.9m42.8 72.5c1.8 4 1.5 11.1-4.7 13 3.4 2.2 8.4.1 11.1-4.5 -4.1 9.2-1.3 17.5 5.2 19 -3.1-6.3 3.9-9.3 1.6-13.5 4.2 1.8 7.8 7.4 7.7 11 5.4-6-4-14.1-2.3-19.8l-18.6-5.2Zm-65 64.5c-6.2-5.4-8.8 1.4-11.8-1 -2.8-2.1-6.6-2.4-8-.2 5.2.1 2.7 4.2 12.9 5.2 -10.2.7-8.4 12.1-15.2 11.6 7.3 6.9 11-6.2 17-4 -1.8.5 2.7 4.6-.4 10.1 5-.1 7.1-7.1 7.8-10.8l-2.3-10.9Zm-135.5 58.6c-2.3-1.8-8.8-2.7-11.3-1.2 -2.5 1.5-1.6 1.9 1.4 2.1 3 .3 6.9 5.1.4 5.4 -3 .1-2 7.4-8.3 8 2.5 3 9.9 1 12.5-2.5 -.5 2.9 3.3 5.4 1.8 8.8 4.6.5 2-9.4 9.3-8.9 -3 .4-1.8 7.2 3.5 5.4 -3.1 1.5-1.5 5.2 2 4.3 -2.2.7-3 3.6.1 5.3 3-4.2-.3-19-11.4-26.7ZM449 216.7v0c9.6 0 17.4-7.8 17.4-17.4 0-9.61-7.8-17.4-17.4-17.4v0c-9.61 0-17.4 7.79-17.4 17.4 0 9.6 7.79 17.4 17.4 17.4Z"/><path d="M358 237.7c5.3-5 13.3-7.5 18.8-3.7 5.5 3.7 23.9 8.2 33 2 9-6.3 13.2-9.6 17.2-8.8 3 4.5 6.7 6.6 11.2 7 1.4 1.5 6.3 2.8 9 2.4 4 1 9-.3 12.9-4.5 6 .8 11.6-3.7 13.8-10.5 6.4-.7 6.8-7.9 2.7-12.6 -3.7-.8-.8-13.5-14.5-11 5.7 3.5 1.3 10.6 6.1 13.8 -3.2 0-7.4 1.4-8.4 6.3 1.2-3.4-.2-5.6-1.1-6.4 .1-2.9-6.3-10-12.3-7.4 4.3 1 1.9 8 5 10.6v0c-2.38.12-4.58 1.29-6 3.2 -1.7-2.9-7.4-5.9-11-6.1 0-1-.1-3-.6-4v0c-1.93-3.4-2.71-7.33-2.2-11.2 -3 3.2-5.6 7.8-7 11 -4.8-3.2-16.6 1.5-22.2 2.8 -5.5 1.3-24-1.8-28.3-6.3v0c-5.95-4.75-12.95-8-20.4-9.5 -10.7-3.1-10.8-14.8-22.6-22.9 -.2 14.6 21.9 60.8 26.9 65.8Zm-123 111v0c9.27 0 16.8-7.53 16.8-16.8 0-9.28-7.53-16.8-16.8-16.8v0c-9.28 0-16.8 7.52-16.8 16.8 0 9.27 7.52 16.8 16.8 16.8Z"/><path d="M194.7 335.8c3.4 4.4 9.2 4.1 11.6 3.7 2 5.3 8.4 5.2 11.2 8 2.7 3 12.2 2.7 15 1 -2.6-.2-5.9-1.7-9-4.3 -3.8-3.2-2-9.5-5-11.8 2.2-2.5 2.6-6.7 2.1-8.3 2.4-1.4 4.2-3.6 4.4-4.8h0c3.46-.22 6.75-1.63 9.3-4 2.1 2 7.5-.6 10.4 2.8 .7-8.3-7.3-12.7-12.5-10 -2.2-1-7.8-.3-8.8 1.2 -1.8-.8-6.7 1.7-9 3.4 2.6-1.4 3-5.5 2-7 2-1 4.5-3.8 4.7-6 3 .5 7.5-1.5 9.6-1 -3.3-4.2-8.7-5.7-14.2-5.4 -5.8.4-8.2 4.4-9 8.7 -3.3 2-4.5 8.8-3.2 11.2 -2 0-3.8 1.8-4.5 2.9v0c-2.89-1.21-5.98-1.89-9.1-2m1.2-6.8c-1.2-3.3.3-6.2 1-8.8 2-6.6.8-8.3-5-7.4l0 0c.33 5.59 1.69 11.08 4 16.2Z"/><path d="M187.5 291.4c1.5 1.6 6.9 2.3 7.4-2.5 .7-5.5-1.5-7.6-6.3-5.5 -.4 1.3-.8 6.4-1 8Z"/><path d="M188.7 283.2c2 .8 6.3 2.5 8.7-2.2 2-3.9-.6-6.9-4.8-6.6 -1 1.1-3 5.1-4 8.8Z"/><path d="M192.4 274c.5 1.5 5.6 6.5 9.4 2.9 3.7-3.6 3.7-9-1.9-11 -1.5.2-6 5.5-7.5 8.1Z"/><path d="M199.9 265.8c1.1 3.2 4.6 8.6 11.2 6 6.5-2.4 3.7-10.6.7-12.2 -1.7 0-8.9 3.3-12 6.2Z"/><path d="M211.8 259.6c-.5 2.7 0 10.3 9 10.1 8.8 0 6.3-10.5 4-12 -3.6 0-9.7.1-13 1.9Z"/><path d="M225.3 258c-1 2.2-3.3 16.2 14.1 12.4 2.3-.5 8.2-13.5-14.2-12.3Z"/><path d="M234.8 259.3c-1.8 1.8 2.8 16 14.6 13.6 11.8-2.4 1.9-15.9-14.6-13.6Z"/><path d="M244.8 261.4c-1.8 4 1 15.5 15.5 15.5 13.3 0-.6-15.2-15.4-15.5Z"/><path d="M256.3 264.8c-1 2.2-2.1 14.4 15 15.5 12.5.7 9.5-16.9-15-15.5Z"/><path d="M274.7 270c-2.1 3.8-4.4 13.2 14.5 14 12 .4 4.6-13.8-14.5-14Z"/><path d="M290.4 272.9c-2.7 3.7-.7 11.1 6.3 12.5 8.8 1.8 10-6.5 4-10.5s-10.3-2-10.3-2Z"/><path d="M299 274.6c-2 3.5-.8 12 12.5 12 2.8 0 13.3-10.7-12.5-12ZM195.9 438.4v0c10.79 0 19.55-8.76 19.55-19.55 0-10.8-8.76-19.55-19.55-19.55v0c-10.77 0-19.5 8.73-19.5 19.5 0 10.76 8.73 19.5 19.5 19.5Z"/><path d="M339.1 154.3c-1.5 1.5-4.6 6-5.2 7.8 -6.6 19.6 10.9 34.3 21 55.3v-.001c8.55 19.35 6.47 41.75-5.5 59.2 -4.3 5.7-3 7.3-8.5 13.1 -2.1 2.2-4.5 5-3.8 13 3.6-1.2 8.6 2 9.6 4.8 2.5-1.2 6-.7 7.3.8 4.2-2 7.8-1 11.5 3 3.3-.5 6.8 0 10 3.5 1.8-3.5 5.3-4.8 7.8-4 -.2-4.5 4.3-7.8 8.3-6h-.001c-1-3.97 1.4-7.99 5.36-8.99 1.39-.36 2.86-.29 4.23.18 4.5-3.5 13.5-3.8 18 1.5 -8-2.3-7.7 6.3-14.5 5.5 1.8 5-2.8 8-7.3 9.5 2.9-1.3 6-3 7-1.2 2.5-2.2 7.6-1.4 8.8-.3 3.4-1 6.6-.2 8 3.8 4.6 2.8 7.6 9.8 4.3 15 -1-5.5-4.7-5.2-6.2-7.5 -3.6 1.3-7 1.3-8-1 -2 2-8.9 3.8-11.9.8 -1.1 4.5-5 8.3-9.5 8.3 1.2 3.5-2.3 9.5-5 12.5 4.2 2.3 3 7.3 2 10.3 6.5 1 1 6.8 12.3 10.6 -5.6 1.7-16.4 0-17.9-6.8 -5.5-.3-9.3-5.8-9-11.6 -4.3-4-5-9.7 1-13.8 -5 1.5-7.8-6.5-15-3.2 -3.7 1.6-13.2-1.2-13.1-4.5 -1.5 2.5-10.7 1.5-12-2.8 -3 1.6-10-1.1-9.9-5.3 -3.9 1.8-9.1-1.4-8.9-5.4 -3.6-.5-4-3.7-3.8-6.5 -3.2-1.5-2.3-4.7-1-8.4 -2.3-2.5-1.3-6 .4-9.3 -2.5-2.5-2-5.5-1.2-9 -12.1-1-27.2-4-61.8-14.6 -52.2-16-66.3 21.6-54.8 45.2 13.4 27.2-1.5 33.1 3 53.5 4.8 1 7.3 5 7 9.3 2.9 0 5 2.7 4 7.7v-.001c2.69-.44 5.42.41 7.4 2.3 1.7-3.3 7.5-4 10.5-.2 6.6-.5 9.8 4.7 9.6 11.3h0c3.18 6.02 2.59 13.35-1.5 18.8 .3-2.6 0-6.4-.2-8.7 -.2-4.1-6-5-5.4-8.4 -3 .3-5.9-1.4-6.9-3.6v0c-1.78 1.49-4.21 1.95-6.4 1.2 3.4 1.5 6 7.6 5 11.6 1.8 3 1.4 8.5-.7 11 -1 4.8-4.8 6.6-9.7 4.4v0c2.47-1.67 3.88-4.53 3.7-7.5v0c-1.65-1.67-2.64-3.87-2.8-6.2 -4.9.8-11.7-3.4-13-5h-.001c-10.77.05-19.46 8.83-19.41 19.59 0 0 0 0 0 0 -.5-4-5.6-8-5-11.4 -3-9.3 1.3-18 13.6-19.7 -1.5-3.5 3.7-7.2 1.7-11.2h0c-3.91-7.12-8.72-13.71-14.3-19.6 4.3-7.3 3-17 .5-23.1 -3.6-8.7-7-6.5-19.8 7.5 -21 23-48.8 16.6-73.4 31.7 -6.5 4-13 5.5-6-1.5s25.6-14 37.7-20.1c22.6-11.3 41.7-30.2 49.2-66.8 17.7-86.2 82.9-57.8 124-41.7 38.7 15 31.7-19.1 12.1-39.7 -23.5-24.7-18.8-44.2-7.8-59.8 19.9-2.7 57.9 4.2 50.2 10.8Z"/><path d="M409 366v0c11.87 0 21.5-9.63 21.5-21.5 0-11.88-9.63-21.5-21.5-21.5v0c-11.88 0-21.5 9.62-21.5 21.5 0 11.87 9.62 21.5 21.5 21.5Z"/><g fill="none"><path d="M327.1 155.3c-4.8 21.1-.8 30.7 6.3 40 14.5 19.2 26 63 9.5 91.6"/><g stroke-linecap="round" stroke-width=".4" stroke="#000" fill="none"><path d="M352.2 262.2c2-.8 5.8-3.1 6.7-7.3m-5.2-1.9c.6-3.6 6.3-5.2 6.4-9m-6.3-5.2c-.3-3.7 5.7-7.1 4.8-10.9m-8-2.6c-.5-2.1 5-6.2 3.5-9.6m-7.7-3.6c-1.1-2.4 2.7-5.1 1-7.7m-7-2.9c-.4-1.6 2-5.2.7-7.3m-6.7-5c.5-.7 2.5-2.2 1.7-4.1m-5.9-5c.9-.5 3.3-1.3 3-3.1"/><path fill="none" stroke="#000" stroke-linecap="round" stroke-linejoin="round" stroke-width=".4" d="M204.5 416.8c-5-1.8-11.3.7-12.5 5m3.7 3.9c.7-4.3 7.2-6.2 9.2-4.2 -4.1-2.2-6.1 5.8-2.5 6m33.8-101.1c-3 1.5-4 7 0 11.1m4.5-9.9c-2.1 1.8-2 7 1.1 8.3 -2.6-1.9 0-5.1 2-5.3 1.8 0 3 2.2.8 4.4m172.5 5c-7-1.8-12.7 6.3-6.3 13.6 0-7 5-11.7 11-10.4m-2.7 4.8v-.001c-1.44-.06-2.65 1.06-2.7 2.49 -.01.06-.01.13 0 .2 0 1.4 1.2 2.7 3.1 2.7 1.3 0 2.3-1.4 2.3-2.6m22-157c1.2 4.4 7 6.1 11.7 5.1m0-2.8c-3.6.2-6.6-3.2-6.4-6.1 0 2.1 5 3.1 6.4 1.7"/><path d="M206.3 339.5c-1-2.5 3-5 3.1-7.4 .2-2.4 4.6-4.2 9 .3m-2-26.8c-1 .4-1.7 1-2.4 1.2m11 12.5c-1 0-3.3 0-4.5-.9m.1 5.7c-.9.4-2.8 1.2-4 1.4m-39 74.4c-.2 2.3 2 5.6 3.3 6.6m6.4-12c-1.2 2-2 5.2-1.2 7.4m20 .2c-2.3-1.5-.8-5.4-1-8 -.3-2.5 2.6-6.5 8.2-3m-28.4-3.3c2.3-.4 4.7-.3 6.2.3m22.5-7.5v0c-.8 1.15-1.28 2.5-1.4 3.9m12-4.2c-1.8 0-3.3 1.3-4.1 2.6M199.8 316c2 .7 7.2 3.9 7.4 7.2m13.9-23.6c-6.2 0-8.5-6.4-3.9-6.4m15 14.8c-2.4 1-1.3 5.2 2 7.2m-16.7 32.3c-1.2-1.5.3-6 4.2-4.6m5 50.4c.2-3.8 5-6 7-1.8m-24.9 12.7c-.3-4.2 1.8-5.6 3.7-5.8 1.9-.3 4.6 1.3 5.8 4m-47 5c.3-2.5 2.5-5.2 4.7-4.8M401.2 296c-1.7 1.2-2.7 6.5 3.5 7m-13 1.8c0 .6.7 1.5 1.2 1.8m28.3 8.2c-1.6-1.3-5.8 3.8-2 7.5M381.3 357c-1-3.6 2.4-4.5 5.5-3.8m-13.5-21.6c1.9-1.2 3.8-2.6 6.1-3.2m-7.1 17c0-3 1.5-5.5 2.9-6.2m8.1-28.4l0-.001c-.06 3.16.77 6.28 2.4 9m27.5-8.8c-1.8.6-3.4 1.3-4.1 2.8m2.1 7.5c.9-.7 1.9-1.6 2.3-2.2m45.2-107.4c0 3.5-4.4 5.4-7.3 3.2m16.8-3c2 1.4 8.7 0 7.1-3.9m-15.3 24v0c-1.83-.52-3.47-1.57-4.7-3m18.6-7.4l0-.001c-1.68.43-3.45.25-5-.5m-30.7 13.1c1.3 0 4.3-.5 6.3-1.6m-10-20.6v0c-1.31-.25-2.67 0-3.8.7m29 5.4v0c-.47 1.96-1.51 3.74-3 5.1"/><path fill="none" stroke="#000" stroke-linecap="round" stroke-linejoin="round" stroke-width=".4" d="M430.2 223.7c3.1-1.4 7 9.3 14.5 5.5m.7-11c-1 1.3-1.7 3.4-1.8 5.3"/></g><path d="M295.2 201.8c1-.1 2.8-.5 3.1-1.8M166 318.8c3.8 2.1 6.4 5.8 4.8 11.2m167.8-139.6c1.2.7 5.4.7 7.8-.2m3 2.7c0 1.7.4 8.4-3 9.8m1.3-1c3.1 1 9.4.7 11.4-5m-4.4 4.8v-.001c2.08 3.18 1.18 7.46-2.01 9.55 -.26.16-.53.31-.8.44m4-5.8c3.7 1.2 12.1 1.3 11.2-5.8m-2.8 5.8c2.5 3.5 13.5 7.6 11.8.3m-22 9.8c4.3 1 10.3-1.9 7.8-9.4m12 3.8c.7 2.9 14.7 5.9 12.8-.6m-2.6 3.7c2.6 6 16.6 5.6 12.2-2.5m-2.3 6.2c2.8 3.4 15 1.4 10.2-6.8m-.1 6.7c7.6 5.7 16.5-2.5 6.9-8.6m4.4 6.7c6.7 5.4 15-4.4 9.1-7.2m-62.8 5c2.2.6 6.7.3 7.7-3.6m-1.7 2.6c-.2 5.8 9.4 8 11.8 1.4m-3.2 3.5c1.8 3.8 10.2 5.3 11.6 0m-1.4 2.4c1.4 3.8 8.7 3.4 10.7-.5m-2.7 2.5c2.3 5 11.6 5 13.7-2.2m-1.6 3.1c3.6 2.3 11.4 1.4 10.8-5.6m-1.5 5c5.4 4.4 13 .1 9.3-7.3m-.4 13c2.9-.4 4.4-6.2 1.4-7.7m-68.3 8.8c6-3.3 7.1-8.8 3-14.2m2.1 8.7c3.8 2.2 11-.2 12.2-5.7m-7 6.3c2 2.7 2.5 6.1-.3 9.3m2-5.8c6.7-4.2 15 3.5 8.8 8.2m-1.1-8.6c1.5-.4 4.1-3.1 4.4-6.3m-1.4 9.2c2.7-2.9 21.6 3 9.7 9m-1-17c3.7 1.5 5.6 6.6 0 8.4m4.8 4.3c4-4.2 16.6-1.5 12.1 3.7m-3-5.4c2.2-7.6 15.7-2.9 11.3.3m-14-8c.3 1.6.4 5.3-2 7.3m13.2-8.7l0-.001c.51 1.68.25 3.51-.7 5m9.3-5c.7 1.5 2 4-.8 6.2m-106.7-63.9c.1 7.2 2.6 12 12.3 7.4m-9.3 1.2c-4.8 6.4.6 13.3 10 6.4m-24.7-3.3c6.5 7 18.2 1.9 10.7-8.8m7.9 14.8c-1.3 7 4.4 8.3 9 5.2m-33.4-10c1.2 6.9 8.3 12.4 15.2 8m-6.5 1.6c0 9.9 13.7 11 16.8.7m-5 6.3c4.5 9 14 5.4 17.2-.1m-27-14.5c1.8 4.5 5.3 9.4 13.5 5.7m-38.6-7.8c1.1 3.7 7.7 8 15.2 3m-10.5 1.7c-4 5.9 4 11.4 13.6 2.6m-8.9 4.7c1.7 8.2 5 14.9 16.7 4.2m-5.9 4.3c4.3 5.3 10.8 8.5 17-.4"/><path d="M322.7 200.3c-.4 6.3.9 9.4 5.8 9.2 3.8-.2 7.5-3.3 9.6-6.6m-10.5 6.6c-.1 7.1 5.5 12.8 16 5.5m-11.6 2.9c-2 5.4 4 14.2 15.8 9.6m-40.8-24c-.8 7 5.7 11.6 16 2.7m-11 5c.4 5.7 6.8 12.5 16.2 2.7m-11.7 4.5c-.7 9.6 8.2 12.4 15.7 5m-29-12.2c2 .1 3.5-1.6 4.5-2.9m-.3 10c1.7.3 4.7-1.3 5.7-3.3m-1.3 14.7c2 2.1 8.8.6 9.6-2.3m-2 2.1c3.7 8.8 13.7 8.5 17.9-1.5m-2 3.6c2 5.1 6.7 8.4 14.5 6.6m-10.7-1.4c-4.4 7.2 1.4 15.6 11.2 7.3m-8.8 3.4c-.5 4.5 3.7 9.7 9.3 10.3M323 234.3c-1.5 10.2 5.8 15 15 9.7m-25.6-4.8c2.4 1.9 6.6 2.1 10.6.6m5 6c-2.3 8.5 6.5 14.6 14 5.1m-26.2-10.3c0 4.4 4.4 9.2 11.8 7.8m20.7 8.8c-5 3.4-6 9.4 1 13.3m-13.3-15c.2 5 2.6 8 8.3 8.4m-15.7-11.1c-7.6 6.9-.2 15 8.8 8.1m-3.6 2.2c-2.5 7.9 7 12.7 12 4.6m-27.5-21.5c-2.8 7.8.7 13 7.1 12.5m-17-14c.3 4.7 4.3 6.3 8.9 5.3m-6-.4c-3.5 6.6 1.7 10 8.5 7.6m20.6 14.5c-1.1 4.2-.5 7.2 5.6 8.6m-5.2-2.7c-7.5 3.4-8 10.6-2.3 15.2m-3.7-23.1h0c-3.1 2.66-3.45 7.33-.78 10.43 .53.62 1.17 1.15 1.87 1.56m-34-35c-4.3 4.3-.3 15.9 9.2 9.5m15.2 5.2c-5.8 4.8-3.1 13.5 6.4 11m-16-14.6c-3 8.5 0 11.5 6.7 11.7"/><path d="M295.4 246.4v0c-3.63 2.52-4.53 7.5-2.01 11.13 .18.26.38.52.6.76 2.2 2.5 6.5 1.4 7.8-1.9m-17.2-13.4c-5.7 7.4 0 16.2 8.2 13.6m22.7 8.4c-5.9 2-10.4 7.5-6.7 12.1 2 2.8 11.4 3.2 14-7.5m-18-11.5c-3.3 4.9-2.2 9.5 4 11.9m-4.3-2.8c-3.6 2-6 4.4-5.2 8.8m-3-16.4c-1.3 5.9.3 9.5 4 11.3m-4.1-4.3c-5.6-.4-8.5 2-6.6 7.5m.5-6.1c-5.6-2-6.4-6.8-4-11.8m-.8 7.4c-6 .2-8.7 3.2-8.7 7.4"/><path d="M277.1 240.1c-4.4 1.9-5.8 7.8-4.1 11 1.6 3.3 6.8 3.6 9.9 1.4m-18-17c-4.1 4.5.5 13.3 7.7 11.1m-18-14.7c-3.8 5.3.3 14.1 10 11.6m.5 24.5c-1-6.3 5.5-10.4 13.5-2.3m-3.9-12.7v-.001c-2.29 2.12-3.44 5.19-3.1 8.3m-27.4-32.3c-4.1 7 .9 13.5 9.8 11m13.5 6.5c-6 5.9-4 11.8.5 15.2m-4.3-8.3c-9 .1-9.4 10.4-2.1 13.7m-4.7-24c-3.6 2.5-4.8 9.4 1.5 12.2m-1.7 3.2c-3.8-1.7-8.3.4-8 4.8m2.3-4.6c-3.4-8-13.3-6.7-12.4 1.6m15.2-11.6c-2.2.4-6.4 1.7-8 5m.6-14c-4 4.5-1 10 2.3 11m-14.3-23.7c-.7 5.4 1.4 8 8.2 7.6m-5.8-.7c-2.6 6.6.9 9.4 7.7 9m-6.2-1c-4 4.8-1.2 10 2.7 12.1m-4.6-6c-7.1-.9-8.2 7.4-5.9 11.3"/><path d="M230.7 226.3c-4.4 1.9-7 7.4-4.6 10.8 2.4 3.4 7.2 2.3 9.8.5m-8.3 1c-3.6 5.5-.3 9.7 3.6 11.3"/><path d="M213.6 225.7c-3 3-1.1 9.1 5.9 9.3 5.6 0 8.5-5.3 6.8-9m-7.8 9c-2.3 5-.9 10.4 7.6 9.5m3.7 7.9c-5.3-2.4-12.3 0-9.3 6.3m-.8-15.2c-2.1 3-1.3 7.3 1 10m-1.3-2c-3.6.6-7 2.5-4.8 8m-.5-4.5c-4.5-1.3-10.3 2-6.8 6.6m-.8-4.4c-3.8-.6-8.5 3.5-4.7 7.6m-1.5-3.4c-3.5 1-7.7 5-4 8m21.7-27.7c-5 2.3-5.6 8-3.2 12m-2.1-22.4c-7.5 2.9-7.4 13 .9 16m-3.5-2.2c-4.6 2.7-5.4 7.7-2.4 11m-5.5-28.6c-3 1-2.8 10.3 5.2 10m-13.5-6.8c-6 4 1.2 14.2 11 6.9m-5.4 2.5c-.9 4.1.3 8.7 7 9.2m-6.6-3.7v0c-3.21 1.62-4.49 5.53-2.87 8.73 1.11 2.2 3.39 3.59 5.86 3.56m-18.2-21.2c-6.1 5.7 5 10.6 9.2 2.4m-17.7 7c-3 3.7 7.5 13.2 12.1-2.7m1.2-.3c.2 3.8 2.5 6 7.1 6.3m0 3.6c-7.5 1.2-9.9 10.5-1.6 12.5m-12.2-13.7c-.2 3.5 3.4 6.4 7.6 5.8m3.7 7.6c-6.8 1.5-7.6 10.3-1.6 9.8m-3.1 8.2c-5.7-1.7-5.8-8.4-.8-11"/><path d="M184.7 277.3c-4.8 2.8-2.9 9.8-.4 10.8s4.5-.3 4.8-2.4m-.4 9.6c.5 3.3-11.6 2-5.4-8.1m0 8.7c-4.1 6.4 2.5 11.6 6.7 6.2m-6.2 1.5c-1.6 5.2 4.6 8.9 8.6 4.9m-22.1-53c-2.3 4.6 9 6.3 9.8-3.2m-13 10c-2.2 9 14.8 7.2 10.4-4.5m.4 6v0c4 1.86 8.76.13 10.63-3.87 .33-.71.55-1.47.66-2.24m-5.1 6.4h0c.64 2.57 2.3 4.77 4.6 6.1m-12.8-3.7c-.7 4.9 4.2 8.9 9.8 8.5m-9-3.8c-2.7 3.8-3.5 11 5.1 11.6m-18.2-10.3c-1.4 3.9 6.8 7.9 11.6 1.5m-14.1 8.4c-.7 3 6.7 7 10.8-5.6m-3.3 6.4c1.8 3.1 7.7 5.6 11.3-.5m-5.9 3.7c-1.5 4.4 2.7 8.6 7.7 7.3m-17-8.3c-1 6.3 6.2 10 10.7 6.7m-15.6-4c-2.1 8.1 8.2 11.1 12 5.1m-2.5 2.4c.3 4.5 7.4 8.4 12.9 4.6m-25.5-.8c-.5 2 8 4 9.2-3m-4.3 4.7c2 5.2 8.8 6.4 12.7.1m-2.3 2.5c.9 4.8 7 7.5 12.5 4.2m2.2 1.9c-1.4 6.4 5.3 11.5 9.4 8m-20-9.1c-2 7 6.7 11 11.6 7.1m-22.2-10.7c-.5 6.6 4.6 10.5 10.5 7.6m-21.7-7c-1.7 4.3 7.6 7.8 12 4.2m-17.8 7.5c2.4 2.8 10.7 0 11.5-6.1m-2.3 4.5c3 3.5 10.2 5.4 13-2.1m-2.4 3.9c-.2 5.4 9.5 9.3 12.6-.7m11.4 2c-.9 2.6 1.2 6.8 5.5 7.3m-13.5-9c-.6 3 3.8 7.3 8.4 5.6m1 1.2c-1.3 3.3-.3 8 4.1 8m-3.7-1.9c-3.3 2.8-2 7.7 2.8 7.9m-4.5-3.2c-4.7 3.1-3 10 3.1 9.6m-17.2-23c0 6.8 8.4 7.8 10 1.6m-3.2 4c-1.3 4 2 7.9 7.1 6.8m-6.1 41.7c1.1 1.6 5.8-1.2 4.5-4 -1.2-2.7-6.2-1.2-5.6 1.7m4.5-2.8c.6-5.5-6-6.4-7.6-1.6m2.4-2.8c1.7-2.7-3.9-6.5-6.1-2.5m2-1.6c1.5-4-4.8-5.8-5.3-2.1m-1.4-5.3c.8-2 7.8-.8 4.8 3.4m5.4 5c2.8-2.5-1.9-7.7-4.8-5.8m23.4 13.5c-2.2.2-4.5 1.6-2.9 6.3 1.2 3.2 6 3.4 6.7 1.4"/><path d="M199 372.9c-2-1.4-6.7 1-4.6 5.4 1.6 3.4 5.7 2 6.3.3m-13.6.7c1 2 6.4 1.1 7.3-1m-3.7-5.2c1.2-.7 3.2.2 3.7 1.2m-4-32.1c-3.7 2.4-1.4 9.6 4.2 7.8m-5.4-2c-2.9 2.3-.2 9.4 5.2 6.7m-4.3 0c-2 2 0 7.6 5.2 6.6m-6-3.8c-1-.5-4-.1-5.3 1.7m2-27.1c-2.7 2.6-1.4 8 3.8 8.4m-4.7-3c-4 2-4 9.9 4 10.2m-4.3-1.3c-2.2 1.8-1.2 8.6 4.5 7.7m-2.7-.2c-.8.8-1 2.8-.3 3.7m-2.2-6.3c-2 0-4.7 1.5-5.4 3.6m-3.6-7.3c.8-2 7-1.9 7.4 4m.6-7v0c-1.42.29-2.57 1.32-3 2.7m.3-21.1c-2.7 2.4-4 10.1 4.2 11.6m-9.6 4.3c0-2 5.6-3.8 7.5-.7m-11.1-10.5c.8 1.5 4.7 3.7 7 2m-27.2-14.3v0c-.14 3.42 2.52 6.3 5.94 6.44 .35.01.7-.01 1.05-.05 4.2-.5 5-4.2 3.8-6.6m-3.2 6.7c-2.7 3.4.7 8.2 3.8 6.8m-.6-9.2c1.6-.6 7-1.4 8.6 1.1m-26 0c-1.3 1.8 6.5 3.7 9 0m-2.5 2c-.3 2.4 1 6.7 7.4 5"/><path d="M159.5 334.6c1-2-3.8-5.6-7.4-1.7 -3.7 3.9.5 8.3 2.7 6.8m-12-13.5c-2 3.3 5.4 9.3 9.5 3.7"/><path d="M138 331.9c-2.7 2.7.6 7.6 4.5 6.1 4-1.5 3.6-5.6 2.7-6.7"/><path d="M132.8 336.9c-2 2 0 6.5 3 6.5s4.7-2.3 4.1-5.2m5-1.7c-.5 3 3.8 5 6.6 2.2m.1-5.2c.4-.7 0-1.7-.6-2.2m-22.7 9.5c-2.5 2 2.8 7.4 6.1 2.4m12.8-3.5c-1.6 1.5.9 5.5 3.4 4.3m-12-1.5c.3 2.7 5.6 4.7 9 .6m-6.2 2c-.8 1.8.9 4.5 2.9 4.1m47.1 11.5c-2 3.8 4.3 8.3 8.8 3.7m-4.3 2c-1 2 .2 5 2 6m-7.9-1.7c.5-1.8 3.2-3.6 5.6-2.7m-8.8-2.2c.3-1.7 2.6-3.4 4.3-3m143.5-75.4c-8.9.2-5.1 14.5 2.5 11.6m-5.4-1c-1.7 2.9 1.7 7.5 5.4 4.8m-1 .5c-2.6 4.4 6.8 11.1 10.6 4.2m-3 2.7c0 4.1 12.2 6.7 10.4-1.5m-1.1 4.5c2.8 4.9 13.6 5.4 12.5-2m-2.4 5.1c2.3 3.3 12.8 5.3 12.5-1.5M320.3 275c1.5 3.9 6.7 5.3 12.3 3m-15.6-.2c3.6 2.2-1.6 12.5-7 8.4m7-2c4 1.8 8.7.5 10-5m-2.3 4.2c.4 2.9 4.5 5.2 10 4m-19.7-1c5 4.3-2.2 13-5.5 9m7.4-5.7c2.4 1.7 8.6.7 9.2-4m-2.8 4c.5 3 3 4.1 6.3 4.3m-14-.2c2.5 3.5 8.7 4.6 11.5-.1m-2.8 2.6c-.2 3.4 3.5 6.2 7.4 5.4m-21 2.2c3.2 1.6 6.7-4.5 4-8.8m-.3 15.3c4 .3 4.4-5.7.8-9m8.1 14.4c3.3-.8 2.3-8-5.6-8.5m15.5 13.8c3.2-.9.7-8.8-8-8.3m20 11c2.1-3.2-5-8.8-10.7-5.9m16.6 10.5c3.9 1 6.5-9.2-5.8-7.6m13 7.6c3.3-1 5.7-7-4.2-5m11.7 5.5c3 1.5 4.4-7.3-4.8-5m-45.8-22.4c3.7 2.1 9.6-.4 9.1-5.2m-1.5 4.2c1.3 2.2.8 6.6-1.6 7.8m2-2.5c2.5 1 5.9 0 7.9-4m-3.5 4c.7 1.7 1 5.2-.6 7m1.2-4c2.8 1.5 6-.5 7.4-3.4m-1.7 2.5c2 1.2 3.7 7.1.4 9.5m1.8-2.7c2.4.1 6 .1 8.2-3m-1.6 1.7c2.1.6 4.6 4.2 3.7 7.3m.2-1.1c2.4-.3 6.5-2 7.6-4.8m-1.1 1.9v0c2.17 1.31 3.38 3.77 3.1 6.3m0-2c2.4-.2 4.5-1.4 5.2-4m-.7 1.7c1.8.6 4 2.6 4 5m-.2-1.5c1.8-.3 3-1.4 4.2-3.1m4.7-.3c2.3 2.3-.7 9.8-5.4 8.4m-42.8-160.6c-4.6 2.8-17.8 2-11.3-9m12.6 1.6c-9.2 3.7-20.5-3.4-8.7-11m-3.1-2.5c-7.7 0-12.8 12.3-2.5 16.5m-27.3-11.4c-2 4 5.2 8.2 10 4.3 3.9-3 3.6-11.2 1.3-14.3M281 160c-2.5 8.3 16 8.8 13-4.4m-14 16.7c.6 6.3 17.7 4.3 12.2-8.4m2-3.5c1.4 1.9 5.1 5.1 11.5 4.5m-8.5-13.4c.6 2.2 4.4 4 9.3 2.3M125.9 342.6c-4.4 3.1 2.3 8 4.7 2.6m-8.1-.2c-4.3 3 2.3 8 4.8 2.6m-8.4-.3c-4.3 3.1 2.3 8 4.8 2.6m-8.6-.4c-4.1 2.2.7 7.6 5 2.8m-9-.8c-4.2 2.2.7 7.6 4.9 2.9m16-9.3c0 3.2 6.1 4.5 8.3-.3M136 348c-1.9 2.4 1.6 5.4 3.5 4.3m-11.6-4.7c-.2 2.7 5.1 4.2 7.7 1.3m-4.8 1.5c-1.7 2.2 1.6 5.2 3.8 4.3m-10.2-4.7c.2 2.2 3.2 4.6 6.5 3.2m-4.6-.3c-1.2 1.1-.6 3.8 1.2 4.6m-7.7-4.8c-.5 2 2.8 5.4 6.2 3.2m-5.5-1c-2 1.7-1.8 4 .8 4.4m-5.6-4.6c-.3 1.3 1.4 3.5 3.6 3.2m-14.4-3.3c-2 1 3.2 6.5 6.4 1.5m-11.3.8c-2.5 1.2 3.7 7.2 6.5 1m9.8-1.3c-2 .5-3.2 3.3-1.6 4.4m-4.8-3.4c-.2 1.2 2.1 3 4 2.3m-5.6-1.8c-2 1.2-1 4.5 1.3 4m-8-1.8c-1.8 1.3-.6 4 1.8 3.3m1.4-3.5c0 .7 1.6 1.8 2.9 1.4M95.4 359c-2.2 1-2.1 6.5 5.3 3.5m-10.3-1.3c-3 1.5-2 5.7 4.7 1.7m.5.3c-.8.6-1.7 3.4 1.4 2.3m-7-1c-1.3 1.1-.5 3.5 2.3 2.6m-8.8-2.2c-2.3 1.3 2.7 3 6-.4m-4.5 2c-1 1-1 4 1.6 3m-8-1.8c-1.5 1.2 1 2.7 5.8.6m-4 1c-1.7 1.5-1.5 3.3 1 2.8m-6.1-2c-2 1.8.8 3 4.2 1.6m-4.2.4c-3.3 1.5-1.9 4.3.2 3.2m111 6.4c-.8 1.7 1.7 3 4.1 2.7 2.3-.4 4.5-2.3 2.8-5m0 3.3c2.3 1.8 6.4-.2 6.4-2.9"/></g><path d="M332 116.7c-10-5-30.9-14.4-36.8-6.8 5.4-2.3 21.2.1 34.3 12.2l2.5-5.4Z"/><path d="M338 116.1c-11.5-13.5-18.4-10.5-26.7-15.1 -7.9-4.4-20.4-5.3-22.8 1.7 11.5-5.6 22 3 28.4 4 9 1.4 14 8.3 16.6 11.5l4.6-2Zm43.8-1.7c-6-13.8-18.9-10.2-24.6-16 -8.3-8.6-29.2-16.5-37.9-10.6 19-1 27.2 13.1 37.4 18 7.3 3.6 15 11.1 25.1 8.6Z"/><path d="M359.2 112.9c-10.3-12.8-26-24.1-33.4-19.8 9.6.5 12.6 7.1 19.4 11.4 6.8 4.3 3.7 10.4 14 8.4Zm-49 22.6c-10.7-4-31.8-6-41.6 6.3 16.3 2.7 41 1.2 41.7-6.3Z"/><path d="M308.3 140.3c-10.8-5-19.3 2-29.4 1 -19.4-1.9-33.2-.8-35 8.5 11.1-9.9 29.7-1.7 37.2-3.8 7.6-2 35.4-.2 44.2 3.6 -4.5-5.6-11.5-7-17-9.3Zm33.9-28.8c-2.6-8.3-2.4-17 10-16.4 -3.1-4-14.7-6-16.6 8.6 -13.7-10-28.6-11.8-31.4-3.1 7-6 18-1.6 31 13.2v0c2.19-1.14 4.55-1.92 7-2.3Z"/><path d="M323.3 123c-7.8-5-18.3-13.2.1-16.5 -7.8-4.3-19.4-2.4-18.1 12.2 -21.2-8.6-36.3-5.7-39.5 2.7 -3.5 9.3 9.6 14.5 11.8 8.6 -2.4 1-10.5-1.8-6.3-7 4.3-5.3 26.2-1.4 47 9.5 5.8 3 25.6 2.5 5-9.5Z"/><path d="M317.8 136.8c-6-12.3-25.5-1.2-29.4-13 -5.4 17.4 27.7 7.7 29.4 13Zm124 13.3c4 2 7.6-1.2 1.3-3.7 4 2 7.7-1 1.4-3.6 4.1 2 7.7-1 1.4-3.6 -1.7 1.7-4 7.9-4.2 10.9Zm2-23.6c9.1-9.6-.7-12.8 10.4-22.6 9-8 1.7-13.4 10.3-19.6 2.7-2 8.7-6 9.3-10 3.6 9-11.3 10.2-10.3 24.8 .6 9.3-5.7 8.5-8 24 -.6 3.4-2.8 10.7-11.6 3.4Z"/><path d="M447.9 130.7c5-10.8 10.8-10.6 13.5-14.8 5.3-8 16.5 1.4 26-5.8 -1.7 10.2-14.4 6.6-20 13.1 -5.4 6.5-10 9.5-19.5 7.5Z"/><path d="M449.1 134.3c8.8-7 15.3-2.4 21.4-6 15.3-9.4 21.5 1.8 35.1-2.6 -3.6 8.8-23.8 1.3-32.6 7.8s-39.7 12.8-23.9.8Zm-25.6 50v0c-.48-4.95-4.21-8.97-9.1-9.8 -5.3-.6-7.6-6.1-11.6-6.4 -4-.2-6.7-8.2-12.2-8.1 -5.5.1-7.8 7.3 5.2 13.8 13 6.5 27.2 14 27.7 10.5Zm-16.3 3.4c-5.5.3-6.3 8.3-11.6 8.6 7.3 3.9 12.6-1.8 16.4-6.8l-4.8-1.8Z"/><path d="M411.7 188.7c-4.7 4-6.1 12.5.8 14.9 -4.2-5.7 7.3-8.3 3.7-13.6l-4.5-1.3Z"/><path d="M416.5 189c-3.8 7.3 5.9 8.2 3.4 13.7 5.5-1.3 6.4-11.7 1.4-14.5l-4.8.8Z"/><path d="M379.6 173.4c9-.5 17.3 4.4 22.8 12.3 3.5 5 15.3 7 19.4 3 4-4 1.7-12.5-8.3-9.8 -2.5-4.2-9.8-2.7-13.3-6.2 -3.5-3.6-17.1-13.6-20.6.7Z"/><path fill="#FFF" stroke="#000" stroke-linecap="round" stroke-width=".4" d="M413.5 179c-2.4.4-3.2 4.6-1.7 6.7m6.8-4.2c.8 1.2.3 3-.1 3.9m-24.6-11.6c4.6.2 5.5 3.6 10.5 4.9"/><path d="M390.8 162.4c16 4 28.8 7.5 36.7 12v0c9.55 4.76 20.54 5.76 30.8 2.8 10.7-3 31.3-5.8 30.3 7.5 5.6-6.6-1.5-13.8-15.8-15 .3-6.6-6.7-12.5-11.7-8.6 4.6-.6 8.6 8-.5 11.6h0c1.33-4.33-1.1-8.92-5.43-10.26 -2.06-.64-4.28-.44-6.18.55 4.3 1.3 8.7 8.5-1 11.3 -6.1 1.8-15-.5-21.6-4.5 -6.6-4-43.8-18.6-35.7-7.5Z"/><path d="M431.3 155.8c-5 2.3-1.8 7.6-9.5 10.6 -7.8 3-13.2 10-11.5 15.8 5.3-11.5 14.6-11 17.9-15.6 3.2-4.5 8-11.1 3.1-10.8Z"/><path d="M432.7 156.6c-.3 9.2-7.5 5.8-4.7 18.7v0c1.84 5.52 1.76 11.51-.2 17 8-5.8 2.9-18.2 6.5-22.9v-.001c2.1-2.66 3.79-5.63 5-8.8 -2 5.3-1.8 15 3.3 17.6 -4.1-9.8 11.2-17.8.6-29.1 -1.5 2.7-6.2 7.6-10.5 7.5Zm-25.6-9.2c1.2 2 2.5 6.7 1.4 9.3v-.001c3.02-2.03 5.49-4.78 7.2-8 5.2.7 7.2 7.1 2.3 10 3 0 8.2 0 11-3.5 -3.5-3.9-14.4-9.9-22-7.8Z"/><path d="M329 129.4v0c-1.36-1.08-2.99-1.77-4.7-2 -7.6-1.5-3.6-8.3 2.8-8.3 13.8-15 21.6-3.4 38.4-8.2 6-1.7 10-1.2 13.2.2 7.5-5 16.3-3.6 22.7 2.3 .7-1.1 1.7-2 3-2.4 6-1.6 10.7 3.4 12.3 10 4.6-1 9.9 1.4 13.4 4.5 4.7-2.5 8-2.6 9.2 0 4.3-2 9.8-3.3 12.6 3.5 2.8 6.8-6.5 4.7-8 19 -1 8.9-10.8 12.4-18.6 7 -12.5-8.3-24.6-9.7-30.7 3.1 -6 12.8-10.7 20.3-25.3 16 -5.3-1.4-12 .6-16.3 6.4 -4.3 5.7-10.8.3-18.6 1 9.8-1.5 6-4 14.5-4.6 7.8-.5 5.8-7.7 10.8-8.8 -19.5 5-18.8-2.2-34.9 2.8 7-9 18.1-4 23.6-9.3 -14.5-.2-21-9.7-27.6-5.8 -10.3 6.3-5.8 24.2-32.6 22.6 -13-.7-21.4 1-29.2 8.8 13.6-28 32-12.6 41-21.6v0c4.65-4.18 8.69-8.99 12-14.3v0c.81-1.58 2.27-2.71 4-3.1 -22.4-7-8.9-18 13-18.8Z"/><path fill="#FFF" stroke="#000" stroke-linecap="round" stroke-width=".4" d="M439.3 125.5c.4.7.5 1.6.5 2.7 0 5.6-8.2 5.8-8.7 14 -.3 4.2-.8 6.6-3.7 6.1 -2.9-.5-5.4-5-2.6-10.3"/><path d="M333.1 121.2v0c-1.75-1.27-3.85-1.96-6-2m51.5-8.1c6.7 2.9 9.9 9.8 19.6 10 9.3.4 15 13.9 30.6 5.1l1.2-.6m-28.6-12.2l-.001-.001c-1.33 2.44-1.79 5.26-1.3 8m-29 20.4c-11.9 0-14.9 6-14.9 11.8 0 5.8 5.6 13.3 15.3 13.3 9.8 0 15.1-6 15.1-12.6s-6-12.5-15.6-12.5Z"/><path d="M373.2 166.6c-.3-3.2-6.2-2.7-6-5.2 .2-2.5 3.3-3.6 3.3-7s5.3-3.8 7-1c1.8 2.7 7.1 8 8.2 5.3m-8.1-5.4v0c-3.34 3.55-3.51 9.03-.4 12.8m4.1-8.5c-.8 1.9-1 4.8 0 6.5"/><path fill="none" d="M428.2 148.4c9.3.7 10.8-9.4 4-10m-15.3-17.5c-3.2-4-10.6-5.4-10.7 3.2"/><path d="M405.3 134c-3.1-7.8-11.2-9-15.4-5 -3.6 3.2-3.7 11.6 4 13.4 2.6-3.1 7.8-7.3 11.4-8.4Zm-3.4-4.9c-4.6-4-11.2 3.6-5.2 10.6M316 148c3-.7 7.4.8 14.2 4 4.3 2 17 6.3 25.1 2 -8.3 3-14.5-9.6-20.8-8 -6.3 1.5-17.8 3.8-22.6-.8 11.8.8 18.1-8.6 31.6-.5v0c3.83 2.39 8.28 3.61 12.8 3.5 -11-13.3-25.6-4.8-27.1-15.6 6.7 7.2 23-1.6 31.2 11.8m-28.8-9.8c-1.6-1.9-.9-3.8-2.5-5.3"/></g><path d="M416.9 121c-2.8-3-8.8-.7-7.1 5.3v-.001c1.28-2.86 3.91-4.88 7-5.4Zm-17.1 16v0c1.66-1.28 3.52-2.29 5.5-3v0c-.76-2-2.04-3.76-3.7-5.1 -1.4-1-5.6 4.6-1.8 8.1Z"/><path fill="none" stroke="#000" stroke-linecap="round" stroke-width=".4" d="M392.4 126.8c-4.5-3-8.7-2.7-10-.2 -3.3-.1-6 2.3-6.2 7m7 2c-5.4-3.7-12.8-2.3-12.3 6m-3.2 4.7c2.6-2.1 6.4-3.6 9.2.1m31-8.3c-1 1.4-1.7 3.6 0 6.8 -2-2.6-7.1-2.6-12.5 4.4m24.5-11.5c-6.5.7-6.4 5-1.1 6.9m-45.4-22.9c-5.5-1.1-9.5 2.2-1.9 5M384 118c-7.8-2-11 0-7.4 1.8m-15.1 29.4c-.3 2.8 1.3 6.4 5.8 2.3m-4.3 6c0 .8-.1 1.6-.6 2.3m-17.5-39c-4.7-1.5-5.6-5.9-.1-5.5m-1.5 15.6c-5.3-1.8-5.3-7-.9-6.4m10.7 3.7c-6.2-1.5-6.4-5.7-1.8-5.1m2.5-8c-3.2-.2-8.3 3.5.2 5.6m9 1.8c-7.7-1.2-7.5 2-3 4m8.8-11.3c-6-1.1-8 2.4-4 3.9M350.3 137c-1.4-1.2-2.6-6.9 4.3-5.2m10 3.4c-4.6-1.2-9 3.3-4.8 6m11-11.4c-5-.8-9 .5-6.4 2.3"/><path fill="#FFF" stroke="#000" stroke-width=".4" d="M416.6 121l-.001 0c-3 .54-5.54 2.52-6.8 5.3"/></svg>