<svg viewBox="0 0 512 512" xmlns="http://www.w3.org/2000/svg"><path fill="#039" d="M0 0h512v512H0Z"/><g stroke-width="29.3" fill="none" stroke="#FC0"><path d="M256 234a32.5 32.5 0 1 0 0 65 32.5 32.5 0 1 0 0-65Z"/><path d="M256 172.3a94.2 94.2 0 1 0 0 188.4 94.2 94.2 0 1 0 0-188.4Z"/></g><path fill="#039" d="M346.3 176.1l90.3 90.3 -90.3 90.3 -90.3-90.3Z"/><g fill="#FC0"><path d="M102.1 251.8h63.2v29.3h-63.2Zm276.4 0h94.2v29.3h-94.2Zm-76.6-51.9l41.3-41.3 20.7 20.7 -41.3 41.3ZM241.3 51.8h29.3V166h-29.3Z"/><path d="M154.8 155.6a14.7 14.7 0 1 0 0 29.4 14.7 14.7 0 1 0 0-29.4Z"/><path d="M68.6 251.8a14.7 14.7 0 1 0 0 29.4 14.7 14.7 0 1 0 0-29.4Z"/><path d="M256 392.1a14.7 14.7 0 1 0 0 29.4 14.7 14.7 0 1 0 0-29.4Z"/><path d="M256 439.2a14.7 14.7 0 1 0 0 29.4 14.7 14.7 0 1 0 0-29.4Z"/><path d="M350.2 251.8a14.7 14.7 0 1 0 0 29.4 14.7 14.7 0 1 0 0-29.4Z"/><path d="M136.9 364.3l20.7-20.7 20.7 20.7 -20.7 20.7Zm218.5 22.3L376 366l20.7 20.7 -20.7 20.8Z"/></g></svg>