<svg viewBox="0 0 512 512" xmlns="http://www.w3.org/2000/svg" xmlns:xlink="http://www.w3.org/1999/xlink"><defs><path d="M243 425.2h-.001c-.12-.05-.22-.12-.3-.2v-.1l-1.4-1.4v0c-1.41-1.58-2.74-3.22-4-4.9l-5.3-6.6 -.7-.9 -6.6-2 -4.8-2.3 2.5-2.9 9 3.8 6.6 1.4 12.2 9 -.001 0c-2.35 2.04-4.62 4.18-6.8 6.4v0c-.09.12-.15.26-.2.4l.8-.5 .8.7 -1.7.1Zm-45.5-13.7c-5.8 0-11.5-1.6-17-4.8 -5.5-3.2.8-1.3 2.5-2.6 1.6-1.2 4.6-2.7 9.5-2.7 5.8 0 12.8 2 20.9 5.8 -.3.2-6.7 4.3-15.9 4.3Zm-25-5.5c-1.1 0-2-.5-2.8-1.2v0c-.61-.72-1.03-1.58-1.2-2.5v-.001c-.27-1.15-.37-2.33-.3-3.5h0c.43-.23.91-.37 1.4-.4 2.2 0 3.9 2 4.6 3.8 .4 1 .5 1.9.3 2.6 -.2.7-1.1 1.1-2 1.1Zm44-5.2c-14.8-2-21-7.4-23.7-11.6v0c-1.71-2.5-2.52-5.49-2.3-8.5 0 0 1-.2 2.3-.2 4 0 14 2 23.7 20.3Zm-30.3-2.9c-6.3 0-11.2-1-14.3-3.2v0c-1.39-.88-2.49-2.13-3.2-3.6v0c-.26-.54-.43-1.12-.5-1.7v0c2.41-.98 4.99-1.45 7.6-1.4 5 0 12.4 1.6 20.2 9.2h0c-3.26.4-6.53.64-9.8.7Zm-30.6-1.2c-6.7 0-15.9-2-21.6-7.7h-.001c4.75-1.13 9.61-1.74 14.5-1.8 6.3 0 11 1.2 14.2 3.6 1.2.8 1.8 1.6 1.9 2.4 .1.6-.2 1.3-.9 1.8 -1.4 1-4 1.7-7.6 1.7h-.5Zm-21.7-11v0c-.78-.03-1.51-.4-2-1v0c-.51-.65-.86-1.4-1-2.2 -.4-1.6-.3-3.1-.3-3.1l-.001-.001c.3-.19.64-.3 1-.3 1 0 1.8.5 2.3 1v0c.62.62 1.1 1.37 1.4 2.2 .3 1 .4 1.7.2 2.3 -.2.5-.8 1-1.6 1Zm50-1.2c-1.1 0-2-.4-2.7-1.1v0c-.61-.72-1.03-1.58-1.2-2.5v0c-.28-1.18-.38-2.4-.3-3.6v-.001c.41-.18.85-.28 1.3-.3 2.2 0 4 1.9 4.6 3.7 .4 1 .5 2 .3 2.6 -.3.7-1.1 1.2-2 1.2Zm-24.4-1c-13.4-.5-20.4-4.3-23.8-7.4v0c-1.53-1.32-2.78-2.92-3.7-4.7v0c-.31-.64-.54-1.32-.7-2 0 0 1.2-.5 3.3-.5h.3c4.5 0 13.8 1.9 24.6 14.6Zm14.6-1.4v0c-7.66-.83-14.79-4.33-20.1-9.9v0c-2.01-2.12-3.55-4.65-4.5-7.4 0 0 1.4-.3 3.4-.4v0c.29-.01.6-.01.9 0 5.4.1 15.3 2.6 20.3 17.7Zm-55.4-5.2c-3.6 0-7-.3-10.2-1.2 -5.7-1.4-8.1-3.5-9.2-5.1l0 0c-.43-.67-.7-1.42-.8-2.2v-.001c-.04-.3-.04-.61 0-.9 0 0 3.7-1 8.9-1.1v0c2.65-.05 5.29.18 7.9.7v0c5.45 1.13 10.31 4.18 13.7 8.6 0 0-4.3 1.2-10.3 1.2Zm25-9c-1 0-2-.5-2.7-1.2v0c-.61-.72-1.03-1.58-1.2-2.5v0c-.27-1.15-.37-2.33-.3-3.5h-.001c.41-.18.85-.28 1.3-.3h.1c2.2 0 3.9 1.8 4.6 3.7 .4 1 .5 1.8.2 2.6 -.3.7-1 1.1-2 1.1Zm-18.8-2.7c-.1 0-5.1-1.2-10.2-4.4 -4.8-3-10.5-8-11.3-16 -.8-8 .5-.2 1.2-.2h.2c1.4 0 4.3.4 7.8 3 4.5 3.4 8.6 9.4 12.3 17.7Zm12.3-.4s-3.6-1.4-8-5.2v0c-6.34-5.38-11.28-12.21-14.4-19.9 0 0 1-.5 2.5-.6v0c.09-.01.2-.01.3 0h.4c2 0 5.1.9 8.6 4.7v0c5 6.15 8.62 13.31 10.6 21Zm-32-1c-4 0-5.4-2.2-5.9-3.1h-.001c-.4-1.02-.53-2.12-.4-3.2l-.001 0c.65-.18 1.32-.28 2-.3h.2c3.2 0 5.8 1.7 6.9 3.3 .2.3.9 1.5.3 2.3 -.4.7-1.4 1-3 1Zm-9-11.4c-2.3 0-5.8-.2-9.5-.8 -3.7-.7-5.8-3.8-6.9-6.3h0c-.74-1.7-1.25-3.48-1.5-5.3 11.3.3 16.7 3.6 19.2 6.3v0c1.55 1.63 2.5 3.75 2.7 6h-4Zm11.8-11.8l-.001-.001c-.93-1.16-1.8-2.36-2.6-3.6 -1.4-2.1-2.6-4.3-2.6-6h-.001c-.1-2.48-.3-4.95-.6-7.4l-.7-5c.3.2 7.1 2.7 7.1 9.1 0 6.4-.6 12.8-.6 12.9Zm-8.8-.6h-.3c-2-.4-5.5-2-9.4-4.2h-.001c-3.71-1.97-7.08-4.5-10-7.5 -1.8-2.1-3-5.5-3.2-10v0c-.17-2-.17-4.01 0-6v0c.37-.18.78-.28 1.2-.3 1.5 0 3 .7 5.2 2.2h0c1.99 1.4 3.87 2.97 5.6 4.7h0c2.15 2.15 4.19 4.42 6.1 6.8h0c2.12 3.96 3.96 8.07 5.5 12.3v1.5l0-.001c-.09.17-.23.31-.4.4v0c-.14.02-.27.02-.4 0Z" id="a"/></defs><path fill="#FFF" d="M0 0h512v512H0Z"/><g fill="#435125"><use xlink:href="#a"/><use transform="matrix(-1 0 0 1 462.7 0)" xlink:href="#a"/></g><path fill="#D47600" d="M468.3 81.5l-2 .8 -.8.3 -2.4-.2 -2.3 1.1 -4 2.8 -.2.1 -1.5.4 -1.4-.6 -.8.4 -.3 1.6 -.7 1.2 -1 .7 -3.2.3 -2.7 1.4 -3.6-1 -1.6.7 -3.5 3.1 -1.8.9h-.6l-2.4-.2 -1 .4L429 97l-2.8.2 -.9.6 -1.4 2.8 -1.5 1.6 -.8.1 -1-.3 -.7.1 -.3 1.8 -.6.8 -2 .6 -1.4 1.3 -1.4.6H412l-1.7 1 -3.4.3 -1.3 1.3 -.4.3 -.6.4 -1 .6 -.3.2 -1.3-.3 -1.5.6 -.6-1 -1 .7h-1.4l-1.7-.7 -1.3-.6 -1 .2 -.3 1.6v.2l-1 1.3 -1.9 1.1 -.2.4 -2.1 2.7 -4 4.3 -3.5 1.7 -3.5 1 -2.5 2 -6.5 3.3 -10.2 5.1 -2.1.7 -3 .4 -5.3 2 -4.8 1.4 -.3.1 -.9.3 -6.6 2 -3.1-.3 -1.9.7 -4.8-.6 -3.3.1 -2 .4 -4 2 -6.7 3.1 -2.2 2 -3.5 1.9 -4 1.2v-1.7l-1.4.4 -1 .3 -3.3.5h-1.8l-1.1-.3h-.2l-6.7 2.3 -7.4.7 -3.7 1.2h-2.8l-1.8.4 -3.4.5 -1.2-.4h-.3l-10 .4 -4.6-.5 -2.2.5 -3.6-1.3 -5.4-.6 -1.2-.4 -2.8-.8 -1.3.7 -1 .1 -2.2-.8h-.9l-1.8.7 -1.1-.3 -1-.8 -2.4-.3 -1.4-1.3 -8 1.1 -2.2-.6 -7.3-2.2 -1.2.1 -1.4 1 -2.2.9 -1.9.5h-2.6l-3-.7 -3-1.5 -1.2-.3 -2.5.3h-.8l-4.6-2.5 -6-3.7 -4.1-2 -1.6-.2 -.2.7 .8 2.4 .3 2.4 -.1 2.1v1.4l.3 1.2 1.5 1.6 .6 1.7 .5 4.5v4.6l-.8 7.3 -.2 1 -.9 3.9 -.7 3.4 -3 9.3 -.9 1.1 -2 1.4 -4.7 3.2 -3.4 2 -1 .4 -2.8.2 -1.7-.1 -2.2-1.2 -2-.5 -2.8-2 -3.1-.6 -3.4-2 -.8-1 -1.9-.2 -2.5-.8 -1-.2 -.6-.2 -3.2-.1 -3-1.4 -1.6-.4 -2.2-.1 -2.3 1 -1.1.6 -1.5-.6h-1l-1.3 1.9 -.1.3 -.8.4H108l-.8.3 -1.2.5 -1 .5 -.5.2h-.4l-.5.2h-.7l-1.2-.6 -.6-.4 -1.1-.2 -.6.4v2l-.6 1.1L97 196l-1.7 1.5 -1.2 1.8 -3.1 7.1 -2 3 -.6.6 -2 2.3 -1.9 1.4 -4.2 3.2 -4 1.5 -3.4.7h-1.6l-3.2-.4 -2.8-.9 -3.1-2 -3.5-2.7 -4.9-4.9 -.7-.4H53l-1.5-1h-1.2l-.4.7 -.3 1 -.2 1 -.5 5.5v.3l.3 2.2 3.8 5.3 1.1 2.8 .2.3 .8 1.3 .6 1L57 232l-.9 2.2 .5 1.4 -1.2.9 -.2 1.2 3.4 4.3 .7 1.8 -.8 2.6 -1.3 1.4 -.4.4 .2 1.1 1.6 1.4 2.6 2.4 1.4 3.5 1 .9 1.3-.3 .7.6h1l1 1 .7.3 1.1.5 .8 1.1 .2 3.3 1.6 4.2v2.6l1 1.6 .3 1.3 -.5 3.5 1.2 1.1 1.3-.3 .9.2 1.4 1.1 1.7 2.6 1.6-.2 1 .5 5 4.5 1.2.6 1 .4 1 1 1.5-1h.2l1.7-.2 .8.5 1.4 1h2l4 1.3 1.9.4 3.6 2.3 1.6 1 .9.7 1.2 1 2.4 1 2 .5 1.2.3 .9.3 4.5 1.8 2.4.5 2.3.9 1.6.6h1.2l1.7-1.5h1.7l1.4.3 1.3-.2 2.1-1.3 .5-.7 1.5-.7 5-.6 1.5.5 3.8-1.7 2.6.7 2.2-.8 5 1.1 1.3 1 1.4 1.6h1.8l-.6 1.2 2.1 2.3 2 3v.3l1.5 4.1 1 1.5 .8 2v1.4l-1.1.9 -.2.5v.2l.2.5 .4-.2 .8-.5 1-.1 1.8.2h1.1l1.9-.8 1.2-.6 2 .8h2.1l.9.4 2.6 1.1 1.3.2 .5-.4 .3-.7 -.2-.8 -1-1.2 -2.1-2.5 -1-1.3 -.6-1.8 -.2-2.4 -.2-1.6 .3-2.1 .6-.8 .4-1.7 .1-.4 1.2-1.6 3.2-2 3.4-3 2.7-1.9 2.8-1.2v-.3l.4.1 7-2.4h.2l3.1-.6 21.3 1.5 .8-.2 .7-2 .4-.4 .2-.2 2.4-1 1-.2 3 .8 1.3.3 2-1.1h1.4l3-1.6h1.8l.6-.2 3.5-2.6 3.4-1 1-.4 .2-.2 3.5-1.8 2.2-1.7 1.9-1 2-.5 5.5-.4 1.1-1.8 2.3-.4 1.5-1.6 1.6-.6 1.1-1.7 1-1.4 1.4-.8 4.3-.2 5.2.6 .7-.4 1.1-4.2 1.2-.8 3.3-4.7V252l.6-2.1 -.4-3.8 .5-3.8 2-4.8 1.8-2 2.9-1.9 1.5-.6 2-.4h.4l.5-.1 7.2-.1h2.6l2.4-.1 6 1 .5.2 2 .6 2.4 1.9 2.5 2.4 .5.5 1.6.6 .5.3 1.4-.3 1.9-1 1.4-1.2 2-1v-.1l1.1-1.7 .5-.7 3.8-1.5 4.5-.2 .5-.3 .3-.1 1.1-1.4h1.1l2.7 1 1.9-.4 1.5.6 1.1-.2 2.2-.2 2.4 1.6 1.4.2 4.8 2.8h.4l.2.1 .6-.1 .9-.3 .2.1 .5.8 .8.1 .9-1.2 -.4-.5 -.1-.2 -1.7-.4 -1.6-2.6 1.5-1.6 -2.3-2.8 -.4-.5 -.1-.2 -.8-1.2 -4-6.2 -5.4-4.2 -1.8-1.5 -.7-.5 -2.8-2.9 -2-2.6 -.3-.6 -.4-1 -1.2-2.5 -2-1.7 -1.8-1.8v-.1l-3.6-4.8 -.6-.8 -.8-.5h-1.8l-.2-.2v-.1l.8-1 1-.2 .4-.9 -1.8-5.2v-.2l-.2-1.6 1.5-7.6 .2-1 2.5-5 1.6-1.3 1.6-3.3 1.5-2.1 1.4-1.4 .2-.1 2.5-1.5 2.1-.3 2-.3 3.5 1h4l1.5-.2 2.5-.8 1.2-.7 .6-1 1.2-4.2 .5-1.4 .7-1.4 4.6-5.3 3.4-3.1 7.7-5.7 3.8-2.2 1.9-1.2 17.2-7.6 4.4-4.5 2.3-2.4 4.2-2.7 4.8-2 4.1-3.3 .9-1.1 1.2-3.7 .9-.2 .9-1.9 .2-.5 3.4-2.4 .4-.2L456 95l2 .2 1-1.5 3.8-.6 .6-.2 1-.4 .8-1.4v-.3l.1-3.6 .8-1 .5-2.4 .4-.6 .4-.5 1.1-.8 -.2-.5Z"/></svg>