<svg viewBox="0 0 512 512" xmlns="http://www.w3.org/2000/svg" xmlns:xlink="http://www.w3.org/1999/xlink"><defs><path d="M0-1v1h.5" id="a"/></defs><path fill="#CE1126" d="M0 0h512v512H0Z"/><path fill="#007A5E" d="M71.7 71.7h368.6v368.6H71.7Z"/><path fill="#FCD116" d="M71.7 71.7h368.6L71.7 440.4h368.6Z"/><path fill="#CE1126" d="M255.9 194.7a61.4 61.4 0 1 0 0 122.8 61.4 61.4 0 1 0 0-122.8Z"/><g transform="matrix(56.32 0 0 56.32 256 256)"><use fill="#FCD116" transform="rotate(18 0-1)" xlink:href="#a"/><g transform="scale(-1 1)"><use fill="#FCD116" transform="rotate(18 0-1)" xlink:href="#a"/></g><g transform="rotate(72)"><use fill="#FCD116" transform="rotate(18 0-1)" xlink:href="#a"/><g transform="scale(-1 1)"><use fill="#FCD116" transform="rotate(18 0-1)" xlink:href="#a"/></g></g><g transform="rotate(144)"><use fill="#FCD116" transform="rotate(18 0-1)" xlink:href="#a"/><g transform="scale(-1 1)"><use fill="#FCD116" transform="rotate(18 0-1)" xlink:href="#a"/></g></g><g transform="rotate(-144)"><use fill="#FCD116" transform="rotate(18 0-1)" xlink:href="#a"/><g transform="scale(-1 1)"><use fill="#FCD116" transform="rotate(18 0-1)" xlink:href="#a"/></g></g><g transform="rotate(-72)"><use fill="#FCD116" transform="rotate(18 0-1)" xlink:href="#a"/><g transform="scale(-1 1)"><use fill="#FCD116" transform="rotate(18 0-1)" xlink:href="#a"/></g></g></g><g transform="translate(-116.4-.1)"><g transform="matrix(33.28 0 0 33.28 256 35.9)"><use fill="#FCD116" transform="rotate(18 0-1)" xlink:href="#a"/><g transform="scale(-1 1)"><use fill="#FCD116" transform="rotate(18 0-1)" xlink:href="#a"/></g><g transform="rotate(72)"><use fill="#FCD116" transform="rotate(18 0-1)" xlink:href="#a"/><g transform="scale(-1 1)"><use fill="#FCD116" transform="rotate(18 0-1)" xlink:href="#a"/></g></g><g transform="rotate(144)"><use fill="#FCD116" transform="rotate(18 0-1)" xlink:href="#a"/><g transform="scale(-1 1)"><use fill="#FCD116" transform="rotate(18 0-1)" xlink:href="#a"/></g></g><g transform="rotate(-144)"><use fill="#FCD116" transform="rotate(18 0-1)" xlink:href="#a"/><g transform="scale(-1 1)"><use fill="#FCD116" transform="rotate(18 0-1)" xlink:href="#a"/></g></g><g transform="rotate(-72)"><use fill="#FCD116" transform="rotate(18 0-1)" xlink:href="#a"/><g transform="scale(-1 1)"><use fill="#FCD116" transform="rotate(18 0-1)" xlink:href="#a"/></g></g></g></g><g transform="matrix(33.28 0 0 33.28 256 35.9)"><use fill="#FCD116" transform="rotate(18 0-1)" xlink:href="#a"/><g transform="scale(-1 1)"><use fill="#FCD116" transform="rotate(18 0-1)" xlink:href="#a"/></g><g transform="rotate(72)"><use fill="#FCD116" transform="rotate(18 0-1)" xlink:href="#a"/><g transform="scale(-1 1)"><use fill="#FCD116" transform="rotate(18 0-1)" xlink:href="#a"/></g></g><g transform="rotate(144)"><use fill="#FCD116" transform="rotate(18 0-1)" xlink:href="#a"/><g transform="scale(-1 1)"><use fill="#FCD116" transform="rotate(18 0-1)" xlink:href="#a"/></g></g><g transform="rotate(-144)"><use fill="#FCD116" transform="rotate(18 0-1)" xlink:href="#a"/><g transform="scale(-1 1)"><use fill="#FCD116" transform="rotate(18 0-1)" xlink:href="#a"/></g></g><g transform="rotate(-72)"><use fill="#FCD116" transform="rotate(18 0-1)" xlink:href="#a"/><g transform="scale(-1 1)"><use fill="#FCD116" transform="rotate(18 0-1)" xlink:href="#a"/></g></g></g><g transform="translate(116.4 0)"><g transform="matrix(33.28 0 0 33.28 256 35.9)"><use fill="#FCD116" transform="rotate(18 0-1)" xlink:href="#a"/><g transform="scale(-1 1)"><use fill="#FCD116" transform="rotate(18 0-1)" xlink:href="#a"/></g><g transform="rotate(72)"><use fill="#FCD116" transform="rotate(18 0-1)" xlink:href="#a"/><g transform="scale(-1 1)"><use fill="#FCD116" transform="rotate(18 0-1)" xlink:href="#a"/></g></g><g transform="rotate(144)"><use fill="#FCD116" transform="rotate(18 0-1)" xlink:href="#a"/><g transform="scale(-1 1)"><use fill="#FCD116" transform="rotate(18 0-1)" xlink:href="#a"/></g></g><g transform="rotate(-144)"><use fill="#FCD116" transform="rotate(18 0-1)" xlink:href="#a"/><g transform="scale(-1 1)"><use fill="#FCD116" transform="rotate(18 0-1)" xlink:href="#a"/></g></g><g transform="rotate(-72)"><use fill="#FCD116" transform="rotate(18 0-1)" xlink:href="#a"/><g transform="scale(-1 1)"><use fill="#FCD116" transform="rotate(18 0-1)" xlink:href="#a"/></g></g></g></g><path fill="#CE1126" d="M99.8 256.8c7.7 14.3 22.6 29.8 35.7 35.3 .2-14.5-5-33.2-12-48l-23.7 12.7Z"/><path fill="#FCD116" d="M86.8 207.6c11.1 23.3-29 78.7 37.8 91.7v0c-8.97-13.09-13.04-28.92-11.5-44.7v-.001c14.77 6.9 26.91 18.41 34.6 32.8 17.5-63.4-44.8-59.5-61-79.8Z"/><g transform="translate(-116.4 442)"><g transform="matrix(33.28 0 0 33.28 256 35.9)"><use fill="#FCD116" transform="rotate(18 0-1)" xlink:href="#a"/><g transform="scale(-1 1)"><use fill="#FCD116" transform="rotate(18 0-1)" xlink:href="#a"/></g><g transform="rotate(72)"><use fill="#FCD116" transform="rotate(18 0-1)" xlink:href="#a"/><g transform="scale(-1 1)"><use fill="#FCD116" transform="rotate(18 0-1)" xlink:href="#a"/></g></g><g transform="rotate(144)"><use fill="#FCD116" transform="rotate(18 0-1)" xlink:href="#a"/><g transform="scale(-1 1)"><use fill="#FCD116" transform="rotate(18 0-1)" xlink:href="#a"/></g></g><g transform="rotate(-144)"><use fill="#FCD116" transform="rotate(18 0-1)" xlink:href="#a"/><g transform="scale(-1 1)"><use fill="#FCD116" transform="rotate(18 0-1)" xlink:href="#a"/></g></g><g transform="rotate(-72)"><use fill="#FCD116" transform="rotate(18 0-1)" xlink:href="#a"/><g transform="scale(-1 1)"><use fill="#FCD116" transform="rotate(18 0-1)" xlink:href="#a"/></g></g></g></g><g transform="matrix(33.28 0 0 33.28 256 478)"><use fill="#FCD116" transform="rotate(18 0-1)" xlink:href="#a"/><g transform="scale(-1 1)"><use fill="#FCD116" transform="rotate(18 0-1)" xlink:href="#a"/></g><g transform="rotate(72)"><use fill="#FCD116" transform="rotate(18 0-1)" xlink:href="#a"/><g transform="scale(-1 1)"><use fill="#FCD116" transform="rotate(18 0-1)" xlink:href="#a"/></g></g><g transform="rotate(144)"><use fill="#FCD116" transform="rotate(18 0-1)" xlink:href="#a"/><g transform="scale(-1 1)"><use fill="#FCD116" transform="rotate(18 0-1)" xlink:href="#a"/></g></g><g transform="rotate(-144)"><use fill="#FCD116" transform="rotate(18 0-1)" xlink:href="#a"/><g transform="scale(-1 1)"><use fill="#FCD116" transform="rotate(18 0-1)" xlink:href="#a"/></g></g><g transform="rotate(-72)"><use fill="#FCD116" transform="rotate(18 0-1)" xlink:href="#a"/><g transform="scale(-1 1)"><use fill="#FCD116" transform="rotate(18 0-1)" xlink:href="#a"/></g></g></g><g transform="translate(116.4 442.2)"><g transform="matrix(33.28 0 0 33.28 256 35.9)"><use fill="#FCD116" transform="rotate(18 0-1)" xlink:href="#a"/><g transform="scale(-1 1)"><use fill="#FCD116" transform="rotate(18 0-1)" xlink:href="#a"/></g><g transform="rotate(72)"><use fill="#FCD116" transform="rotate(18 0-1)" xlink:href="#a"/><g transform="scale(-1 1)"><use fill="#FCD116" transform="rotate(18 0-1)" xlink:href="#a"/></g></g><g transform="rotate(144)"><use fill="#FCD116" transform="rotate(18 0-1)" xlink:href="#a"/><g transform="scale(-1 1)"><use fill="#FCD116" transform="rotate(18 0-1)" xlink:href="#a"/></g></g><g transform="rotate(-144)"><use fill="#FCD116" transform="rotate(18 0-1)" xlink:href="#a"/><g transform="scale(-1 1)"><use fill="#FCD116" transform="rotate(18 0-1)" xlink:href="#a"/></g></g><g transform="rotate(-72)"><use fill="#FCD116" transform="rotate(18 0-1)" xlink:href="#a"/><g transform="scale(-1 1)"><use fill="#FCD116" transform="rotate(18 0-1)" xlink:href="#a"/></g></g></g></g></svg>