<svg viewBox="0 0 512 512" xmlns="http://www.w3.org/2000/svg"><g fill="#0D5EAF" fill-rule="evenodd"><path d="M0 0h512v57H0Z"/><path fill="#FFF" d="M0 57h512v57H0Z"/><path d="M0 114h512v57H0Z"/><path fill="#FFF" d="M0 171h512v57H0Z"/><path d="M0 228h512v56.9H0Z"/><path fill="#FFF" d="M0 284.9h512v57H0Z"/><path d="M0 341.9h512v57H0Z"/><path fill="#FFF" d="M0 398.9h512v57H0Z"/></g><path fill="#0D5EAF" d="M0 0h284.9v284.9H0Z"/><g fill="#FFF" fill-rule="evenodd"><path d="M114 0h57v284.9h-57Z"/><path d="M0 114h284.9v57H0Z"/><path fill="#0D5EAF" d="M0 455h512v57H0Z"/></g></svg>