<svg viewBox="0 0 512 512" xmlns="http://www.w3.org/2000/svg"><path fill="#FFF" d="M0 170.7h512v170.6H0Z"/><path fill="#CE1126" d="M0 0h512v170.7H0Z"/><path d="M0 341.3h512V512H0Z"/><g transform="matrix(1.8686 0 0 1.8686-276.6-99)"><g fill="#007A3D"><path d="M325.5 173.2v0c-.53-.25-1-.59-1.4-1 -.3-.5-.1-.5 1.2-.2 2.3.7 3.8.4 5.3-.8l1.3-1.1 1.5.7c.9.5 1.8.8 2 .7 .7-.2 2.1-2 2-2.6 0-.7.6-.5 1 .3 .6 1.6-.3 3.5-2 3.9 -.7.2-1.4.1-2.6-.3 -1.4-.5-1.7-.5-2.4 0v0c-1.72 1.29-4.03 1.45-5.9.4Zm5.8-5.3v0c-.68-1.23-1.03-2.61-1-4 .1-.6.3-.8.8-.6 1 .3 1.2 1 1 3 0 1.8-.3 2.3-.8 1.6Zm-67.6-1.9c-.1 1.3 2.4 4.6 3.5 5.2 -.8.3-1.7.2-2.4.5 -4 4-18.4 18-21 21.4 7.8.2 16.4-.1 23.7-.4 0-5.3 5-5.6 8.4-7.5 1.7 2.7 6 2.5 6.6 6.6v17.6H216v0c-1 5.26-6.07 8.72-11.33 7.73 -.33-.07-.66-.15-.98-.24 2-2 5.4-2.8 6.6-5.7 1-6.4-2-10.3-4-14v0c2.51-.81 4.88-2.03 7-3.6 -2.3 7 6.2 6.3 12.4 6.1 .2-2.4.1-5.2-1.7-5.6 2.3-.9 2.7-1.2 6.6-4.4v9.6l46.1-.1c0-3 .8-7.9-1.6-7.9 -2.2 0 0 6.2-1.8 6.2h-35.7v-6c1.5-1.6 1.3-1.5 11.6-11.8 1-1 8.3-7.6 14.6-13.7Zm89.1-.3c2.5 1.4 4.5 3.2 7.5 4 -.3 1.3-1.5 1.8-1.8 3.1v27c3.4.7 4.2-1.3 5.8-2.3 .4 4.3 3.2 8.5 3 12h-14.5v-43.7Zm-19.4 14.5s5.3-4.5 5.3-4.7V199h3.8l-.1-26.3c1.5-1.6 4.6-3.8 5.3-5.4v42h-33.4c-.5-8.7-.6-17.7 9.6-15.8V190c-.3-.6-.9.1-1-.7 1.6-1.6 2.1-2 6.5-5.8l.1 15.5h3.9v-18.8Zm-12.6 18.6c.7 1 3.2 1 3-.8 -.3-1.5-3.5-1-3 .8Z"/><path d="M224 212.4a2 2 0 1 0 0 4 2 2 0 1 0 0-4Z"/><path d="M287 165.8c2.5 1.3 4.5 3.2 7.6 4 -.4 1.2-1.5 1.7-1.8 3v27c3.4.7 4.1-1.2 5.7-2.3 .5 4.3 3.2 8.6 3.1 12H287v-43.7Z"/></g></g></svg>