<svg viewBox="0 0 512 512" xmlns="http://www.w3.org/2000/svg" xmlns:xlink="http://www.w3.org/1999/xlink"><defs><path d="M-28.6 47.5l1.8 1 46.7-81c2.7-.6 4.2-3.2 5.7-5.8 1-1.8 5-8.7 6.7-17.7l0-.001c-4.75 4.21-8.77 9.18-11.9 14.7 -1.5 2.6-3 5.2-2.3 7.9Z" id="a"/><path d="M1 5.8s4 8 4 21 -4 21-4 21Z" id="c"/><path d="M316.6 332.8v-.001c9.89-24.44 15.31-50.45 16-76.8v-.001c-.69-26.36-6.11-52.37-16-76.8v0c-9.9 24.43-15.32 50.44-16 76.8v-.001c.68 26.35 6.1 52.36 16 76.8" id="b"/></defs><path fill="#FFF" d="M0 0h512v512H0Z"/><path d="M0 0h512v153.6H0Z"/><path fill="#060" d="M0 358.4h512V512H0Z"/><g transform="matrix(3.2 0 0 3.2 255.8 256)"><use stroke="#000" stroke-miterlimit="10" xlink:href="#a"/><use fill="#FFF" xlink:href="#a"/></g><g transform="matrix(-1 0 0 1 511.7 0)"><g transform="matrix(3.2 0 0 3.2 255.8 256)"><use stroke="#000" stroke-miterlimit="10" xlink:href="#a"/><use fill="#FFF" xlink:href="#a"/></g></g><path fill="#B00" d="M255.8 102.4c-19.2 0-51.2 51.2-60.8 76.8H0v153.6h195c9.7 25.6 41.7 76.8 60.9 76.8 19.2 0 51.2-51.2 60.8-76.8H512V179.2H316.6c-9.6-25.6-41.6-76.8-60.8-76.8Z"/><g><use xlink:href="#b"/><use transform="matrix(-1 0 0 1 511.7 0)" xlink:href="#b"/></g><g transform="matrix(3.2 0 0 3.2 255.8 256)"><g fill="#FFF"><path d="M0-6A4 6 0 1 0 0 6 4 6 0 1 0 0-6Z"/><use xlink:href="#c"/><use transform="rotate(180)" xlink:href="#c"/><use transform="scale(-1 1)" xlink:href="#c"/><use transform="scale(1-1)" xlink:href="#c"/></g></g></svg>