<svg viewBox="0 0 512 512" xmlns="http://www.w3.org/2000/svg"><path fill="#D3AE3B" d="M0 0h512v512H0Z"/><path fill="#C40308" d="M25.6 25.6h460.8v460.8H25.6Z"/><path fill="#B96B29" d="M367.4 251.8c3-.8 13.5-3.9 20.8-9.8 7.3-6 8.8-10.7 9.4-13.3 .6-2.6.8-4.6-1-3.2 -2 1.5-7.7 6-11.6 8.2v0c-3.05 1.61-6.27 2.85-9.6 3.7 -2 .6-3.8 1-1.7.2 2-.8 8.6-3.1 13.7-8.2 5.1-5.2 9.2-12.8 9.3-17.6 0-4.7-.3-4.3-1.8-3.1 -1.5 1.1-6.9 7.8-10 10.3v0c-3.27 2.65-6.72 5.09-10.3 7.3 -2.4 1.4-5.8 3-1-.2 4.8-3.3 13.8-11 17.5-21 3.7-10 3-16 3-17 -.1-1-1-3-1.8-1.1 -.8 1.8-6.9 14-11.8 19.2 -4.8 5.2-3.7 4.2-4.8 5 -1 .8-3 2.3-.5-.6 2.3-3 7.2-9.7 9.7-16.5v0c2.02-5.56 3.13-11.4 3.3-17.3 0-3.9-1.6-9.2-2.4-10.8 -.7-1.6-1.5-2.8-1.7-1 -.2 1.8-4.2 13.8-6.3 19.6v-.001c-1.89 4.79-4.27 9.38-7.1 13.7 -.8 1.2-3 3.8-.7-.6l-.001-.001c4.29-9.26 6.83-19.23 7.5-29.4v0c.88-7.56-.08-15.21-2.8-22.3 -1.6-3.3-3.1-4.5-3.1-4.5s.3 8.3-2.2 20.3 -6.1 18.2-6.1 18.2 -1.5 1.8-.5-1.1c.7-2 2.2-6.2 2.8-13.4 .7-7.5.8-16.1-1.4-23.4 -2.4-8-6.5-12-6.5-12 -1.2 11.4-1 26-5.2 38 -.7-.7-1.8-2-2.2.7h-.001c-1.33 7.22-3.83 14.18-7.4 20.6 -5.2 9.4-7.3 10.6-7.3 10.6l-1.6-3.5c-.7-1.3-1-2-2-.2 -.8 1.7-3.7 8.3-10 15.6 -6.3 7.2-9.8 10.8-9.6 16.2 .2 5.5 3 8.3 6.9 10.7 3.8 2.5 4.5 3.9 3.9 6.8 -.6 3-4 4-7 4.1 -3 .1-6.7-.1-8 .6 -1.3.8-1.4 2.7-2.8 4 -1.3 1.4-1.9 2.1-3.1 2.3l-1 .2c-.4-14.4 5.2-20.8 5.2-20.8l-15.5-18.3 -2.4 1.1v-.001c-.12-.25-.25-.48-.4-.7v-.001c-1.95-2.32-2.95-5.28-2.8-8.3 .8.1 2.3.7 3.8.4 1.4-.3.3-1.7-.1-3h0c-.72-3.4-.79-6.89-.2-10.3 0 0 2.3 2.4 3.7 2.4 1.4 0 1.3-1.4 1.5-3v0c.29-2.59 1.41-5.01 3.2-6.9 0 0 2.5 1.7 5.3 1.7 2.9 0 6.7-.7 9.7-3.6 3-3 3-3.6 3-3.6s5.6 2 10 2.2c4.2.2 8.8-.5 11-5 2.2-4.6-.6-8.8-1.1-9.5 -.5-.7-2-1.3-2 0s.1 4.7-2.5 6.4c-2.6 1.7-4.6 1.6-7.1.8v0c-4.51-1.64-9.43-1.75-14-.3 .2-.2 3.4-3.5 6.6-4.5 3.2-1 5.1.4 6.2 1.6 1 1.3 2 3.4 2.8.4 .9-3 .4-6.4-1-8.6v0c-1.77-2.43-4.74-3.67-7.7-3.2 -3.1.3-4.3.8-4.3.8s-1.6-4.6-5.7-5.4c-5-1-10.5.8-14.8 3.2 0 0-3.4.8-6.8-.2v0c-2.1-.68-4.09-1.65-5.9-2.9l0-.001c.39-1.24.79-2.47 1.2-3.7l2-.7c1-.4.8-.8 1-1.6 .1-.9-2-2.4-2-2.4s-.3-2.6 3.1-4.3l3-1.5s2 .3 2.9-.2c.8-.6.8-1 .8-1s1.5-.5 2-1.4c.6-1 .7-2.2.3-3.3 -.4-1-1-1.3-.4-1.8h0c.65-.69 1.07-1.57 1.2-2.5v-1s1.2-.5 1.1-2.3c0-1.7-1-2.4-1.6-2.6l-.9-.1s0-1.1-1-2.5c-.9-1.4-1.5-2-1.5-2s.7-.5.3-1.7v0c-.28-.99-1.03-1.78-2-2.1 -.7-.3-1.6 0-1.6 0l-4-2.3 -1.5-.8s0-1.1-.5-1.7c-.4-.6-1.5-.9-2-.9 -.6 0-1.2.3-1.2.3s-4.5-1.1-6.4-1.4c-1.9-.3-2-.5-2-.5s-4-1.9-5.5-2.2l-2-.5s1.6-2 1.7-4.2v0c.01-2.21-1.13-4.25-3-5.4l-1.7-.8v-1.6l3 .3 .2-4.8 -3 .4 .5-3h-6.2l.5 2.9 -3-.2 .3 4.8 3-.4 -.2 1.8s-1.1.2-2.1.9l0-.001c-1.84 1.03-2.95 2.99-2.9 5.1h-.001c.13 1.53.64 3.01 1.5 4.3l-2 .4c-1.5.3-5.6 2.2-5.6 2.2s0 .2-2 .5l-6.3 1.4s-.6-.3-1.2-.3c-.5 0-1.6.3-2 .9 -.5.6-.5 1.7-.5 1.7l-1.6.8 -4 2.3s-.8-.3-1.6 0v0c-.98.32-1.73 1.11-2 2.1 -.3 1.2.3 1.7.3 1.7s-.6.6-1.5 2 -1 2.5-1 2.5l-.9.1c-.5.2-1.5.9-1.5 2.6 -.1 1.8 1 2.2 1 2.2l.1 1c0 1 .6 2.1 1.1 2.6 .6.5 0 .7-.3 1.8v0c-.42 1.07-.34 2.28.2 3.3 .6.9 2 1.4 2 1.4s0 .4.9 1c.8.5 2.8.2 2.8.2s-.4-.3 3 1.4c3.4 1.8 3.1 4.4 3.1 4.4s-2 1.5-2 2.4c.2.8 0 1.2 1 1.6l2 .7 1.2 3.7c-1.3.9-3.5 2.3-5.8 3 -3.4 1-6.8.1-6.8.1v0c-4.42-2.75-9.65-3.88-14.8-3.2 -4.1.8-5.8 5.4-5.8 5.4s-1.1-.5-4.3-.8v0c-2.94-.43-5.86.8-7.6 3.2v0c-1.49 2.61-1.85 5.71-1 8.6 .8 3 1.7 1 2.8-.4 1-1.2 3-2.6 6.2-1.6v0c2.45 1.02 4.67 2.56 6.5 4.5 0 0-.5-.4-4-.9 -4-.5-7.4.4-10 1.2 -2.4.8-4.4.9-7-.8 -2.7-1.7-2.6-5.1-2.6-6.4 0-1.3-1.4-.7-1.9 0s-3.3 4.9-1.1 9.4c2.2 4.5 6.8 5.3 11 5 4.4-.2 10-2.2 10-2.2s0 .8 3 3.7c3 2.9 6.8 3.6 9.6 3.6s5.3-1.7 5.3-1.7v0c1.84 1.9 3 4.36 3.3 7 .2 1.5 0 3 1.5 3s3.6-2.5 3.6-2.5l.4 2.4c.2 1.7-.1 6.5-.5 7.8 -.4 1.4-1.5 2.8 0 3 1.3.4 2.9-.2 3.7-.3v0c.14 3.02-.86 5.98-2.8 8.3v0c-.16.22-.29.45-.4.7v0c-.78-.35-1.55-.72-2.3-1.1l-15.7 18.3s5.6 6.4 5.3 20.9v-.1l0-.001c-.41-.06-.81-.13-1.2-.2 -1.2-.2-1.8-1-3.1-2.3 -1.3-1.3-1.4-3.2-2.8-4 -1.3-.8-5-.5-8-.6 -3 0-6.4-1.1-7-4 -.5-3 .1-4.4 4-6.9 3.8-2.4 6.6-5.2 6.8-10.7 .2-5.4-3.3-9-9.6-16.2 -6.3-7.3-9.2-13.9-10-15.6 -1-1.7-1.3-1-2 .2l-1.6 3.5s-2-1.2-7.2-10.6v0c-3.63-6.45-6.16-13.44-7.5-20.7 -.4-2.6-1.4-1.3-2.2-.6 -4.2-12-4-26.7-5.1-38 0 0-4.2 4-6.6 12h-.001c-1.91 7.64-2.39 15.58-1.4 23.4 .6 7.2 2.1 11.5 2.8 13.4 1 2.9-.5 1.1-.5 1.1s-3.6-6.3-6-18.2c-2.6-12-2.3-20.3-2.3-20.3s-1.4 1.2-3.1 4.5v0c-2.73 7.09-3.69 14.74-2.8 22.3 .6 12.2 5.1 25 7.5 29.4 2.4 4.4.2 1.8-.7.5 -.8-1.2-5-7.8-7.1-13.6h-.001c-2.35-6.45-4.42-12.99-6.2-19.6 -.3-1.8-1-.6-1.8 1s-2.4 7-2.4 10.8v0c.16 5.9 1.27 11.74 3.3 17.3h-.001c2.47 5.93 5.77 11.49 9.8 16.5 2.3 3 .5 1.4-.6.6 -1.1-.8 0 .1-4.8-5h-.001c-4.66-5.93-8.62-12.37-11.8-19.2 -.8-1.9-1.7.1-1.7 1.2 -.1 1-.8 6.9 2.9 16.9h0c3.74 8.53 9.84 15.82 17.6 21 4.8 3.2 1.3 1.6-1.1.2v-.001c-3.63-2.21-7.1-4.64-10.4-7.3 -3-2.5-8.4-9.2-9.9-10.3 -1.5-1.2-1.8-1.6-1.7 3.2 0 4.7 4 12.3 9.2 17.4 5 5.2 11.7 7.5 13.7 8.3 2 .8.4.4-1.7-.2v0c-3.34-.85-6.57-2.09-9.6-3.7 -3.9-2.2-9.6-6.7-11.5-8.2 -1.9-1.4-1.6.6-1 3.2 .5 2.5 2 7.3 9.3 13.3 7.4 6 17.8 9 20.8 9.8 3 .9.9.9.9.9l-7.3-1.5c-6-1.4-15.3-6.2-17.8-7.8 -2.5-1.5-2.8-2.1-2.5 1.2 .3 3.3 3.9 10.3 9.5 13.6v0c5.74 2.78 11.94 4.51 18.3 5.1 2.6.2 2 .5.8.6h0c-7.03.15-14.02-1.04-20.6-3.5v0c-.2-.7-.36-1.4-.5-2.1 -.2-1.3-.9-1-1.3-.8 -.4.3-.6.5-2 1.2s-1.5-.1-1.5-.6l-.4-3.1c0-1-.5-1-1.2-.7l-5 2c-1 .6 0 1.5.6 2.6h0c.49.93.99 1.87 1.5 2.8l-3.8 1c-1 .2-.7.9-.4 1.5l2 4.9c.4 1 1.2.4 1.2.4l3-1.8 1 4c-.1 0-1.4.3-2.9 1.3s-1 2.4.7 2.9c1.8.5 3.8 1.4 6.1 5.6 2.3 4.1 2.9 11.6 4.3 23.4 1.4 11.8 9 17.8 10 18.5 1 .8.4 1.4.4 1.4s-1 1.5-.6 3.7v0c.43 1.82 1.74 3.32 3.5 4 1 .4.8 1.5.8 1.5s-.6 2.5 0 7c.5 4.7 4.2 9.9 5.3 10.8 1 .8 1 1.3 1 1.7 -.2.3-.9 0-2.1 1 -1.3 1-2.7 2.3-3.6 4 -.9 1.6-.6 2.5-.3 4.7 .3 2.3 3.6 4.3 3.6 4.3s-.6.1-.8 1.8c-.1 1.6 1 3.4 2.6 4.6 1.4 1.2 4.2 1.8 4.2 1.8l.4 2.4c.2 1 2 2 3.2 2.6 1.2.6 3.5.3 4.4-.2 1-.4 1.7.1 2.2 1 .6 1 .4 4.7.4 6.2s-.9 3-.4 3.8c.6.7 2 .2 3.4-.6s1.7-.2 3 .6 3.3 1.6 3.8 1.5c.5 0 .3-1.4.3-2.5 0-1.2.2-3.7.7-4 .2-.2 2.4-.4 4-1 .9-.4 1.8-.7 2-1.5 0-.7-1.1-.7-3.6-2 -2.4-1.3-2.8-2-4.4-3 -1.5-1-.8-1.4-.8-1.9 0-.4.7-1 1-1.5 .3-.6.2-2 .2-2l1.8-1.9c.6-.7 1.4-1.7 2.2-2.4 .8-.6 2-3.8 2.9-4.9 .8-1 2.6-2.1 3.7-3.5s4-3.7 5.8-4.8c1.7-1.2 6.3-3.3 6.3-3.3s-.1 2.7 1 4c1.3 1.4 2.8-1 8-4.7s9.3-5 9.3-5l2.5 3.5c1.4 1.7 2.7-.1 9.1-9 5-7 11.8-13.4 14.4-15.8l1.4.6 -.4 1.2c-.6 1.8-1.5 3-2.8 5.6 -1.2 2.5-3.2 3.1-5.4 6.6v-.001c-1.8 2.76-2.74 6-2.7 9.3 -.2 3.6 1.8 4.3 1.8 4.3s-3.3 3.2-4.2 5.5c-1 2.4-1.5 7.2-1.5 7.2s-.5.2-1.7 2.6c-1.2 2.5-3.3 2.8-6.4 6 -3.1 3-6.6 4.4-8.2 5.3 -1.6 1-1.2 2-.7 3.2 .4 1.2 2.6 2.5 5.2 3.4 2.6 1 3.5.6 5.2.6 1.8-.1.4 1.3-.3 2 -.8.8-1.7 3.3-1.6 6.2 .2 2.9 2.3 2.2 5 1.8 2.6-.5 5.7-1.8 5.7-1.8l-.3.8c-.3.8-.4 1.4-.4 3.7 0 2.3.3 3.4 1 4 .7.6 2-.7 3-1 .9-.3 2.5-1.2 4.9-1.7 2.3-.6 3.2-1.6 3.2-1.6s-.6.7-.7 2.4v0c-.17 1.8-.06 3.62.3 5.4v0c.55 1.78 1.59 3.37 3 4.6 1.6 1.5 2 .8 3.2-1 1.2-1.9 3.6-4.2 3.6-4.2l1.8 5.8c1.6 5.2 6.9 9.5 6.9 9.5s5.3-4.3 6.9-9.5l1.8-5.9s2.4 2.4 3.6 4.2c1.2 1.9 1.5 2.5 3.1 1h-.001c1.39-1.2 2.43-2.76 3-4.5 .4-1.4.5-3.8.4-5.4 -.2-1.7-.8-2.4-.8-2.4s.9 1 3.3 1.6c2.3.5 4 1.4 4.9 1.7 1 .3 2.3 1.6 3 1 .6-.6 1-1.7 1-4v0c.09-1.26-.08-2.52-.5-3.7l-.3-.8s3.1 1.3 5.8 1.8c2.6.4 4.8 1 5-1.8v0c.09-2.18-.47-4.34-1.6-6.2 -.8-.7-2.2-2.1-.4-2 1.8 0 2.7.4 5.2-.6 2.6-1 4.8-2.2 5.3-3.4 .4-1.3.9-2.2-.8-3.2 -1.6-1-5-2.3-8.1-5.4 -3.1-3-5.3-3.4-6.5-5.9 -1.1-2.4-1.6-2.6-1.6-2.6s-.6-4.8-1.5-7.2c-1-2.3-4.2-5.5-4.2-5.5s2-.7 1.8-4.3c-.3-3.5-.6-5.9-2.8-9.3 -2.2-3.5-4.1-4-5.4-6.6 -1.3-2.6-2.2-3.8-2.8-5.6h0c-.1-.41-.2-.81-.3-1.2v0c.63-.28 1.26-.54 1.9-.8 2.5 2.4 9.3 8.8 14.4 15.9 6.4 8.9 7.6 10.7 9 9 1.5-1.8 2.6-3.5 2.6-3.5s4 1.3 9.2 5c5.2 3.7 6.8 6 8 4.8 .6-.8.7-2 .8-2.8l6.5 2h-.001c2.02.74 4.02 1.54 6 2.4 4.6 2 5.1 3 8.7 5.8 3.7 2.9 8.8 2.6 13.7 1.1 4.9-1.5 17.8-5.8 23-8 5.3-2.3 9-4.2 9.5-5.3h0c.65-1.6 1.06-3.29 1.2-5 0-1-1.2-2.6-1.6-2.9 -.3-.2-.2-1 0-1.7 0-.7-.3-2.6-1.1-3.5 -.8-1-.7-1.2-.6-3.8v0c-.08-6.06-3.56-11.56-9-14.2 0 0-.2-.7-.6-1 -.4-.4-1.2-.7-1.2-.7v-3.8c0-.6.4-.6.7-.4 .4.2 1 1 1.9 1.2 .8.2 1.4-.4 1.6-1.4 .1-1 .9-3 1.2-4 .3-1 0-1.1-.5-1.2 -.4-.2-1.7-.3-2.3-.4 -.6-.2-.6-.2-.5-.6l1.2-2c.8-1.3 0-1.3-.7-1.6v0c-1.72-.58-3.45-1.08-5.2-1.5 -1-.1-1.2.7-1.2 1v3c.1.6-.5.4-.9.2l-1.8-1.2c-.7-.5-1.2 0-1.4.7l-1.3 4.6c-.3 1-.2 1.6.2 1.8h3c1 0 .5.5.5.5l-1.5 2.5c-.3.7-1 .8-1.8.8h-2.2s-5.7.2-9.8 3.3v0c-2.61 1.77-4.69 4.23-6 7.1 -.6 1.5-1.3 1.2-2 1.7 -.6.6-2.4 2.5-2.4 3.6 0 1.2.4 1.8-1.4 3 -1.8 1.2-3.3 6.3-.8 9 2.4 2.6 3.4 5.2 4.1 6.5 .7 1.3 0 1.8-.6 1.8l0 0c-4.15-2.89-8.22-5.89-12.2-9 -2.4-1.7-.7-1.5-.7-1.5s.6 0 2-.5c1.5-.6 1.7-1.4.3-1.8 -1.4-.5-4.2-2-5-2.8 -.6-.7-1-1.5.4-2.3 1.4-.7 4.5-2.7 2-3.4l-7.6-1.8c-2.4-.7-2.6-1.4-2.6-1.4l1.5-2.2s1.3-1.8-.2-2c-1.5-.2-5-.7-8.3-2v0c-5.92-2.34-10.38-7.35-12-13.5v-.1c1.3 2.4 4.1 6.9 8.4 7 5.8.2 6.5-1.6 5.1-3.5 -1.3-2-2.8-3.7-3.2-4.2 -.4-.6-.5-1.4 1 0 1.6 1.5 4.5 6.4 13.2 5.8 8.8-.6 8.8-2.3 8.8-2.8 0-1.7-1.8-2-2.9-3 -.5-.5-.8-1.3 1-.7 1.7.7 6 1.5 12 .2 2.3-.5 8.5-3.2 9-6.3 0 0-3.8-.2-6.6-1.4 -2.7-1.2-4.4-2.1-1.5-1.6 3 .6 8.6 1.8 13.6.1 2.9-1 6.7-3.3 6.7-7.6 0 0-5.4-1.2-7.4-1.9s-2.8-1.2-2.8-1.2 7.8 2.4 14.8-1.1c7-3.6 7.3-8.5 7.3-9.6 0-1.1-.2-1.5-.2-1.5s-6.4 1.6-11.1 1.5c-4.8 0-6.3-.4-6.3-.4s13.4-.4 20-4.5c6.8-4.1 7.2-12.2 7.2-12.2s-7.6 2.7-12.4 3.3v0c-2.96.37-5.93.5-8.9.4 -1.1 0-1.8-.4.8-.6 2.6 0 12.7-1.8 18.4-5v0c4.82-3.14 8.2-8.07 9.4-13.7 .4-3.3 0-2.7-2.5-1.2v0c-7.73 4.53-16.19 7.68-25 9.3 0 0-2.4-.1.6-1Zm-240.1 15.4l-2.7 1.5 -1.4-2.8c-.2-.7-.1-1 .3-1l2.3-.4h.4l1.2 2.6h-.1Zm81.9 48h0c-2.37 3.36-5.62 5.99-9.4 7.6 -3.2 1.4-6.8 1.8-8.2 2 -1.5.3-.3 2-.3 2l1.6 2.3s-.2.6-2.6 1.3c-2.4.7-5.2 1.2-7.7 1.9 -2.4.6.7 2.6 2 3.4 1.5.7 1.1 1.5.4 2.3h0c-1.49 1.14-3.14 2.06-4.9 2.7 -1.4.5-1.2 1.2.2 1.8 1.4.6 5.3 1.3 5.3 1.3l-2.5 2c-2.3 1.7-6.5 3-9.2 3 -2.7.2-7 .4-12.6.1l-6-.3 -.6-4.6v0c-.55-2.96-1.67-5.78-3.3-8.3l-4-5.3 .3-1.6c.2-1 0-1.9-.5-3.5 -.7-1.7-3.9-4.1-3.9-4.1l-.1-3.5c0-1.7-1.2-8.2-2.2-11.3 -1-3-6-11.1-8.3-15v0c-3.33-6.49-4.92-13.72-4.6-21l.5-1.3v0c1.02 1.31 2.27 2.43 3.7 3.3 6.7 4 20 4.5 20 4.5s-1.4.4-6.1.4c-4.8 0-11.2-1.5-11.2-1.5s-.2.3-.2 1.5 .3 6 7.3 9.6c7 3.5 14.8 1 14.8 1s-.7.6-2.6 1.3h0c-2.44.74-4.91 1.37-7.4 1.9 0 4.3 3.7 6.6 6.6 7.6 5 1.7 10.7.5 13.6 0 2.9-.6 1.3.3-1.5 1.5 -2.7 1.2-6.7 1.4-6.7 1.4 .6 3.1 6.8 5.8 9.2 6.3 5.9 1.3 10.2.5 12-.2 1.8-.6 1.4.2.9.7 -1 1-2.9 1.3-2.9 3 0 .5 0 2.2 8.8 2.8 8.8.6 11.7-4.3 13.2-5.7 1.5-1.5 1.4-.7 1-.1 -.3.5-1.9 2.3-3.2 4.2 -1.3 1.9-.7 3.7 5.2 3.5 4.3-.1 7-4.7 8.3-7l.3.4v0c-.73 1.91-1.57 3.78-2.5 5.6ZM280 125l-1.2-2.2s3.3 1.5 5.3 3.8c2 2.2 1.9 3.4 2.2 4.5 .3 1 0 3-.3 5 -.3 1.8-.3 3 0 3.7l.8 1s-1.5.3-2.9.9c-1.3.5-3.1 1-4.1.2 -1-.9-1.3-1.4-.7-2 .6-.5 3-1.2 3.3-5.2 .3-4-1.6-8.2-2.4-9.7Zm-18 11c.7-2 1-3.8.4-7.7 -.4-3.3-1-6.1-1.2-9.7 0 0 2.4.6 6 3.8 3.4 3.2 4.2 6.5 4.2 8 0 1.7-.8 3.7-1 5.2 -.2 1.5.5 3 .5 3s-1.3.5-2.5 1.3 -2 1.3-3.7 1.2c-1.8 0-2.8-.9-3.9-1.4 -1-.6-1.7-.7-1.7-.7s2-1.1 2.8-3Zm-17.2-13.6v-.001c1.66-1.73 3.72-3.04 6-3.8 -.2 3.6-.8 6.4-1.3 9.7 -.6 4-.3 5.8.5 7.7 .7 1.9 2.8 3 2.8 3l-1.7.7c-1 .5-2 1.3-3.9 1.4 -1.7.1-2.5-.4-3.7-1.2 -1.2-.8-2.5-1.3-2.5-1.3s.6-1.4.5-3c-.1-1.5-1-3.5-1-5.1 0-1.6.8-5 4.3-8.1ZM232.2 142c-1 .8-2.8.3-4.2-.2 -1.4-.6-2.9-1-2.9-1l.8-1c.3-.6.3-1.8 0-3.6 -.3-2-.5-4-.3-5 .3-1.1.3-2.3 2.3-4.5 2-2.3 5.2-3.8 5.2-3.8L232 125c-.8 1.5-2.7 5.6-2.4 9.7 .3 4 2.7 4.7 3.3 5.2 .6.6.4 1.2-.6 2Zm46.8 33.7c-3.5 2-5.5 1.5-5.3 3 .1 1.3 3.2 2.4 3.2 2.4s-3.2 3.4-5.6 5c-2.5 1.5-5.4 2.5-5.4 2.5s-1 .1-.4 1.7v0c.41 1.22 1.21 2.28 2.3 3l1.2.6s-4.3 4.6-6.2 6.1v0c-1.36 1.1-2.88 1.97-4.5 2.6 -1.6.7-.8 3.2-.4 4.3v0c.42 1.24 1.27 2.3 2.4 3 .8.2 1 .7.1 2.3l-4.4 6 -4.4-6c-1-1.6-.7-2.1 0-2.4 .8-.2 2.1-1.7 2.5-2.9 .3-1 1.1-3.6-.4-4.3v0c-1.64-.62-3.15-1.5-4.5-2.6 -2-1.5-6.3-6-6.3-6l1.2-.7h0c1.11-.7 1.96-1.76 2.4-3 .5-1.6-.5-1.7-.5-1.7s-2.8-1-5.3-2.5c-2.5-1.6-5.7-5-5.7-5s3.1-1 3.3-2.5c.1-1.4-1.8-1-5.3-2.9s-4.6-4.3-4.6-4.3 4-1.3 6-5.4v0c.61-1.17.89-2.49.8-3.8h.2c6.4 2.2 13.9 3 20.6 3 6.7 0 14.2-.8 20.6-3h.2c-.1 1.1 0 2.4.8 3.8 2 4 6 5.4 6 5.4s-1.2 2.4-4.6 4.3Z"/><path fill="#D4AF3A" d="M300 253.6c0-10.9 5-17.7 5-17.7l-13.7-15.6c-12.9 5-24.8 5.3-35.3 0 -10.6 5.3-22.4 5-35.4 0L207 236s5 6.8 5 17.7c0 10.9-2 19-3.3 24.2 -1.2 5.2-2.2 15 .6 22 2.7 7 5.7 13.2 17.8 18.2 12 5.1 18.4 7.7 22.6 11.2 4.2 3.6 6.3 6.4 6.3 6.4s2.1-2.9 6.3-6.4c4.2-3.4 10.5-6 22.6-11.2 12-5 15-11.2 17.9-18.2 2.8-7 1.7-16.8.5-22 -1.2-5.2-3.3-13.3-3.3-24.2Z"/><path fill="#B96B29" d="M295.7 258v0c-.79-6.77.72-13.61 4.3-19.4L288.3 225c-9 5-21.4 4.3-32.3-.7 -10.8 5-23.3 5.7-32.2.7L212 238.6s6 9.1 4.3 19.5c-1.7 10.3-5.4 26.8-4.5 33.4 1 6.7 5.7 14.5 10.5 18.5h-.001c5.18 4.04 10.99 7.21 17.2 9.4v0c4.49 1.77 8.7 4.2 12.5 7.2 2.4 1.8 4 3.4 4 3.4s1.5-1.6 3.9-3.4c2.3-1.8 7.3-5.4 12.4-7.2v0c6.22-2.16 12.06-5.3 17.3-9.3v0c5.42-4.88 9.08-11.43 10.4-18.6 1-6.7-2.7-23-4.4-33.4Z"/><path fill="#1D5E91" d="M294.6 259.3v0c-.97-6.92.18-13.96 3.3-20.2l-10.5-11.7c-8.8 4.6-19.6 3.4-31.4-.7 -11.7 4-22.5 5.3-31.4.7l-10.5 11.7s5 9 3.4 20.2c-1.7 11.2-4.3 23.9-3.8 31.3 0 .5 0 1 .2 1.6h9.5s.6-.7 1.6-1.1c1.1-.5 1.4-.8 1.4-.8s.2-2 1.4-2.3c1.1-.4 1.6-.4 2.1-.4s.8-.1 1.4-.7c.6-.6 2-2 2.7-3.9 .7-1.9 1-2.7 1-4 0-1.3.5-3.2.5-3.2s-.2-.6-1.2-.3c-1 .4-1.1-.6-1.2-1.6 -.1-1 0-2.9.5-3.8l.8-1.2 -.4-1.6s-6.1 1.3-7.2-3.5c-1-4.7-1.2-7-1.4-7.5 -.1-.5-.3-.7-1.1-.7s-2.5-.5-3.8-3c-1.2-2.4-1.3-3.4-1-4.4 .4-1 1-.6 1.3-.3 .2.3 1.8 2.7 2.5 2 .6-.6.3-.6-.6-2.5 -1-1.8-.6-2.4-.5-3.3 0-1-.3-2.2-.3-2.7s.5-.9 1-.6v0c.53.22 1.01.56 1.4 1 .2.2.3.7.9.4 .5-.3.2-2 .2-2.5 0-.6.6-1 1.4-.6v0c.71.41 1.17 1.17 1.2 2 0 .6 0 1.1.4 1.1 .3 0 .7-.9.7-1.5s.4-1.5 1-.7 .7 1.8.5 3c-.2 1.2.2.6-.2 2.6s-.6 3-.5 4.5c0 1.5 0 2.4.8 4.2 .8 2 1.4 4.1 2.8 4.2h1.8s1.6-3 2.8-3.8c1.2-.7 3-.8 4.2-1 1.2 0 1.7-.4 1.7-.7 0-.3-.4-.4-1.9-.6 -1.4-.2-2.7-.6-2.7-1.7s.2-2.1-.7-2.2c-1 0-3.4-.8-4.2-2.4 -.9-1.5-.7-1.9-.6-2.7 .1-.9 1.2-2.6 2-1s1.1 1.8 1.7 2.2c.6.3 1.4.4 1-.7v0c-.38-.82-.56-1.71-.5-2.6 0-.8.6-1.2 1.3-1.3l3.6-1 1.1-.3s.1-.7 1.4-1.1h-.001c1.03-.35 2.11-.52 3.2-.5 1 0 1.6.2 2.9-.4h0c.92-.5 1.95-.74 3-.7v0c.76.06 1.49.33 2.1.8 .6.4.4 1 .4 1.5s.1.8 1 .8c.8 0 1.6 0 2.4.4 .8.4 2 .7 1.2 1.6 -.7.8-.7 1.8-1.2 1.8 -.4 0-.4.4-.6.7 -.2.3-.3.6.2.9 .5.3.5.6 1.2 1.3 .7.7 1.8 1.3.7 2.4 -1 1-3 2-3 2s-1 .4.2 1.2c1.3.6 1.8 2.1 2.3 2.4l1.2.8c.3.1.2 1.2.2 1.2l-1.5.8c-1 .3-1.9.7-2.8.7 -.8 0-1.3 0-1 .8l1.2 2.2 .4 1.3s1.4.3 2.6.3c1.3 0 1.9 0 4.6-.3 2.7-.3 3.6-.4 6.3 0 2.7.2 3.1.1 3.8.4l1.4.6s3.8 0 6-.5c2-.5 2.5-1.8 2.2-2.5 -.3-.7-.3-1.8-3.9-2.3 -3.6-.5-5.1-.3-8-.9 -2.9-.5-7.4-2-8.2-5.6 -.8-3.6 2.1-5.2 3.6-5.9 1.5-.7 4.6-1.8 6.1-2.4v0c2.22-.86 4.63-1.13 7-.8 2.8.4 4.5 1.2 5.6.5 1-.7 2-.2 1.8.9 -.2 1-1.3 3-4.5 4s-7 1.1-9.1.5c-2.1-.5-3.7-1.3-5-.9 -1.2.5-2.6 2-1.3 4 1.4 1.8 8.4 2.4 10.3 2.6 1.9.2 8.8-.3 10.8 3.1 2 3.5.4 7.3-2 8.2v0c-1.94.77-3.95 1.34-6 1.7l-1.8.2s.8 1.9.8 2.6c0 .8-.1 2.2.8 2.8 .9.6 2 1 3.5.8 1.5-.2 3.3.8 3.4 2.2 0 1.3.5 3.1.6 5.8 .2 2.6 0 4.8 0 4.8s0 1-.4 2l-2.2 4.7h10.2v0c.05-.54.08-1.07.1-1.6 .5-7.5-2.1-20.2-3.8-31.4Z"/><path fill="#6D8C3E" d="M215 297.1c2 5.8 6.2 11.5 12.5 15.3 8.7 5.3 12.4 4.6 20.7 10 8.2 5.3 7.7 6.2 7.8 6.2 .1 0-.4-1 7.8-6.3 8.3-5.3 12-4.6 20.7-9.9v-.001c5.78-3.52 10.16-8.92 12.4-15.3h-81.8Z"/><g fill="#D4AF3A"><path d="M222.2 253c1 1 1.6 1.3 3 1.1 1.5-.1 1.8 1 2 2 .3 1.2.3 3.9 1.4 6.3 1 2.5 4.4 2.6 4.4 2.6 .1-1.2.6-2.8 1-4 .2-.3.6-1.4-.6-1.4s-1.2-.5-2-1.7h-.001c-1.11-1.98-1.92-4.1-2.4-6.3 -.4-2 .3-5 .6-6.1 .3-1.1.4-1.9 0-2 -.4-.3-1.2 0-1.2 0s.3.9 0 1c-.4.2-.7-.5-1-1.2 -.2-.7-.5-.6-1-.5 -.5 0-.5.5-.1 1 .3.5.1 1.4.1 1.4l-1.5-1c-.4-.2-1.5.2-1.6.8 0 .6.4 2 1.4 2.9 1 .8 1 2.4.6 3.1 -.3.8-1.7.7-2 .3v0c-.3-.34-.8-.37-1.13-.08 -.03.02-.05.04-.08.07 -.4.5-.8.7.1 1.7Zm-.5-2.6l-.8-.7 -.6-.8v.9c0 .6.6 1.2.6 1.2l.8-.6Zm2-6.8c.5-.2.8-.3.5-.8 -.4-.5-.7-1-1-1.2h-.6l.4 1.4c.1.6.3.8.7.6Zm2.6-2.1c0 .4 0 .6.4.4 .4-.2.6-.7.4-1.1 -.2-.4-.7-.7-.7-.7l-.3-.2 .2 1.6Zm3.7.6l-.2-1s0 .5-.2.9c-.3.3-.2.2 0 .5 .3.3.3 0 .4-.4Zm5.8 25c.7 1.7 2.5-1 4.2-3 1.7-2.2 1.6-.6 1.4 1.2h0c-.12 1.64.27 3.27 1.1 4.7 .7 1.2 1.3.5 1.5-.3 .3-.8.5-2.6 1-3.4 .7-.9 1.2-.1 1.3.6v0c.3 1.21.88 2.34 1.7 3.3 .9 1 1.3-.3 1.5-1.5l.9-3.7c.2-.7 1-.1 1-.1l1.7 1.6c1 1 1.2-.6 1.3-1.4 .1-.9-.2-2.7.2-3 .3-.3 1.2.4 2.7 1.1 1.5.7 1.4-.7 1.2-1.4v0c-.37-1.37-1.1-2.61-2.1-3.6 -1.2-1-1.4-2.2-1-2.7 .4-.5 1.8 0 2.7-.2 .9 0 1.3-.2 2-.3 .7-.1.7-.8.7-.8s-.5-.8-1.5-1.7c-1-.9-1.5-1.5-2.7-1.8 -1.1-.2-2.7 0-2.7 0l-.2-.3c-.2-.3-.5-.3-.7 0l-1.3 1.2c-.4.4-.7.6-1 .4 -.3-.1.3-.5.3-.5s.6-.5 1.1-1.6c.6-1.1.7-2.2.3-2.7 -.4-.5-1.7 0-2.3 0 -.7 0-1.1.1-1.2-.2 0-.4.7-.2 1.5-.3 .9-.1 1.4-1.1 1.7-2 .2-.8.5-.7 1-.2 .5.5 1 .4 1 0l1.1-2c.6-.8 1-2 .3-2.7 -.6-.8-2.1-.7-2.7-.2 -.6.5-1 1-1.2 2.2 -.1 1.3-.5.6-.5.2 0-.4-.5-1-.3-1.5 .3-.5 0-1 0-1s0-1.1-1.2-1.4v0c-1.25-.13-2.51.01-3.7.4 -1.2.3-1 1.3-1 1.3l-1.8.1c-1 .1-2 .5-3 .8 -.9.2-1.2.3-1.2.7l.2 1.2s.7 0 1 .2c.5.3.3.7-.2.8 -.4.2-.6.2-.6.8 0 .6.2.7.7.7 .4 0 1.4 0 2.5.5 1 .5 1.4 1.5 1.3 2 -.2.6-1.7 1.3-2.5 1.3s-1 .2-1 .7c0 .5 1 .5 1 .5l2.7.2c1.9.3 2.2.6 3 1.4 .8.7.2.9-.2 1 -.4.3-1 .8-1.6 1 -.6.3-1 .7-1.6.8 -.5.1-2 0-4.5 1s-3.4 4.5-3.4 4.5l1.5-.8 4-2.1c1.3-.8 1.3.4.6 1.6 -.7 1.2.6 1 1 .6s.9-.7 2.2-1.4c1.3-.6.8.4.8.4s-.4.8-.5 2.7c-.1 1.8 1.9 0 2.7-1.1 1-1.2 1.3 0 .7 1.3 -.7 1.4-2 2.4-2.7 2.4 -.7 0-1.3-.7-1.4-1.2 0-.4.3-1.8-.2-2.1 -.4-.4-1.7 0-2.7.6 -1 .6-1.1.1-1.4-.4 -.2-.5.4-.7.2-1 -.3-.3-.8 0-1.2.2l-3 1.5c-1.7 1-1.6 1.4-1.6 2.7 0 1.3.3 1.6 1 3.3Z"/><path d="M252.5 239.1l1-.5 1.6-.3c.8 0 .6-.5.5-.9 -.2-.3-.5-.5-1.5-.5s-1.6.5-2.1.7c-.6.3-1.3.4-1.3.4l.5.7c.4.6 1 .7 1.3.4Zm4 4l.9-.2 1.3-.6c.7-.3 1-.4 1.4-1.1 .4-.8-.5-.8-1.6-1.1 -1.2-.3-1.7 0-1.9.5 0 .4 0 1-.5 1.8s0 .7.4.7Zm-.3 1c-1.1 0-2.4 1.7-2.9 2 -.4.3-.2.6-.2.6v0c-.02 1.07.22 2.13.7 3.1h.8c.6 0 1-.3 1.7-.7v0c.58-.44 1.27-.71 2-.8h-.001c.82-.14 1.6-.45 2.3-.9 1-.5-.5-1.4-1.6-2.3v-.001c-.78-.69-1.78-1.04-2.8-1Zm-15 3.9c1-.1 1.4-.6 1.4-1 0-.6-.5-1-1.6-1 -2.8.3-5.5-.7-6-3.5 0 0-1 1.7.8 3.7 1.7 1.9 4.6 1.9 5.5 1.8Zm-9.4 43.7l.5.5h4.3c.7-.2.7-.9.7-1.3 0-.6.5-2.1 1-5 .7-2.8 1.7-4.8 2.1-6 .4-1.1-.4-1.5-.7-2.2 -.3-.7-.8-2-.9-2.6 -.1-.7-1.1-.6-1.7-.5 -.5 0-.6 1-.7 1.7 0 .9-.5 3.4-.9 5.5 -.4 2.2-2.8 5-3.5 5.7 -.7.6-1.2.9-1.7.9s-1.5 0-2 .3 -1 1-1 1.7c0 .6 1 1 1 1l1-.9c.3-.4 1-.4 1.7-.6 .7-.1.7.2.5.5 -.3.3-.2.4.3 1.3Zm-6.5-.2c-.3 0-.6.4-.7.7h2.8v0c-.04-.26-.15-.5-.3-.7 -.3-.4-1.2-.2-1.8 0Z"/><path d="M229 291.4h-.001c-.36.2-.66.47-.9.8h3c.1-.3.2-.7-.2-1 -.7-.5-1.4 0-1.8.2Zm26-1.2c-.3 0-.6.3-1 .6 -.5.3-.7.8-.7 1.2h0c-.03.06-.03.13-.001.2h1.3l-.001 0c.03-.07.03-.14 0-.2 0-.4.2-.7.7-1.2 .6-.4 0-.6-.2-.6Zm2.5 1.3c0-.4-.1-.7-.4-.7 -.3 0-.8.6-1.2.8l-.5.6h2l.1-.7Z"/><path d="M269 277.7c1-.6.8-.8.9-1.5 0-.7 0-.9-.3-1.1 -.4-.3-1.8-.9-3-.9s-3.6.3-4.6 1c-.9.5-1.3 2.8-1.3 4 0 1 .2 1.2.5 1.2s.9-.8.9-.8l1.9 2.7c.7 1 .4 1.5 0 2.3 -.3.8-1.4 3-2.4 3.5s-1.6 0-2.8-.1c-1-.2-1.7.1-2.3.8 -.7.6 0 1.1.3 1.1 .4 0 1 0 1.4.5 .3.4 0 1.3 0 1.8h5.5c.9-.4 1.6-1.7 1.8-2.4 .3-.8 1.5-1.9 2-2.4 .7-.6.7-1 .7-2.1v0c.01-.95-.23-1.89-.7-2.7v0c-.51-.85-.75-1.82-.7-2.8 .1-.7 1.3-1.5 2.2-2.1Z"/><path d="M260 264c.5.8.3 1-.5 1.2 -.8.1-1.7.3-3 .2 -1.3-.1-1.1 0-1.2.7v0c.01 1.02-.27 2.02-.8 2.9 -.8 1-1.7.5-2.2.2 -.6-.4-.9-.3-1 .4l-1.2 2.2c-.6 1-1 1-1.4 1 -.4-.2-.8-.8-1.2-.8 -.4 0-1.1-.9-1.7-1.9 -.6-1-1 .1-1.4 1 -.4.9-.8 1.5-1.6 1.4 -.8-.1-1.7-1.6-2.1-2.5 -.5-1-.8-1.8-1.4-1.7 -.7 0-1.9 1.4-2.6 1.8 -.8.4-1 .3-1.3-.2 -.4-.5-.8.2-1.3 1.3 -.4 1.1 0 2.1.7 2.4 .6.3 1.8-.6 2.7-1.1 .8-.6 1.2-.4 2-.4 .9 0 .8 1.4 1.2 3.4 .4 2.1 1.6 2.4 1.6 2.4s.4.3 1.3-1.2c1-1.6 1-3.2 2-3.2 .9 0 1 .2 1.8 1.5 1 1.2 1.7 2.1 2.2 1.2 .5-1 1-2.3 1.6-2.8 .5-.5 1-.6.5.3 -.6.9-1 1.8.4 1.5 1.2-.4 6-2.4 8-2.8l5-.5 4.4-.3c1 0 1 0 1.1-.8 0-.7-.5-.5-2.4-.5 -2 0-3.3.2-4.6.4 -1.4.2-2 .2-1.8-.2 .3-.3.7-.6 2.2-.8h-.001c2.12-.25 4.26-.38 6.4-.4 1.7 0 1.1.4 1 1.6 -.1 1 .1 2.7.2 3.7s.2 1.4 1 2.8c1 1.5 4 2.4 5 2.8 .9.5.7 0 .7-.8 0-.9.7-.9 1.5-.4 .8.4 2 .8 3 1 1 .3 1 .5 1 1l.3 2.5c.1 1 0 1.3-.4 2l-2.1 2.4s-.8 0-2.5.4 -2.2 1.2-2.4 1.9c-.2.7.3.9.4 1.1v.9h.4v0c.17-.35.37-.69.6-1 .6-.7 2-.9 3-.4 .7.3.7 1 .6 1.4h3.9l2-4.2c.5-.9.7-1.5.7-2.8 0-1.2.2-6.2 0-6.4 -.3-.3 0-1.1 0-2.5 -.1-1.4 0-2.4-2.6-2.7 -2.5-.2-3.3-1.3-4.2-2.2 -.9-.8-.6-2.8-1.3-5.2 -.7-2.5-2.4-2.8-5.4-3.4v0c-2.47-.55-4.99-.72-7.5-.5 -2.2.2-5 .6-6.6.4 -1.5-.2-1.2.3-.7 1.2Z"/><path d="M274.5 291.6v0c-.25.15-.45.35-.6.6h2.6 -.001c.05-.29-.03-.58-.2-.8 -.4-.5-1.2-.2-1.8.2Zm4.7-.1v0c-.39.14-.74.38-1 .7h2.7v-.3c0-.4-.9-.9-1.7-.4ZM214 293l.6 2.5h82.8v0c.24-.83.44-1.66.6-2.5h-84Zm55.8-39.6c2.7 1.8 11 1.9 14.9 2.6 3.9.8 3.6 3.8 2.4 5.4 -1.2 1.5-6.7 1.7-7.7 1.8 .6.4 1.4 1.6 1.4 1.6l2.2-.2v0c2.33-.09 4.59-.85 6.5-2.2 2-1.7 1.9-4.3.1-6.1 -1.7-1.8-4.6-2-7.6-2.3l-8.5-1.1c-3.3-.6-4.9-2-4.9-3.8 0-2 1.8-3 3-3.3 1.4-.4 3.4-1 5.3-.3 1.8.7 4 .8 7.6.3 3.6-.4 4.4-3 4.4-3s-.4.3-2.3.3c-1.8 0-3.1-.7-6.5-.8 -3.3 0-4.5 1.2-6 1.7 -1.6.6-5.8 1-7 3.7 -1.3 2.7.1 4 2.8 5.7Z"/></g><g fill="#B96B29"><path d="M248.1 239.5a1.6 1.5 0 1 0 0 3 1.6 1.5 0 1 0 0-3Z"/><path d="M281.6 243.7c-2-.2-4.8.3-4.8.3s.6.4 1.3.4c.6 0 1.9-.1 3.9.3 2 .3 3.5-.6 3.5-.6l-3.9-.5Z"/></g><path fill="#1D5E91" d="M262 282.2c-.5-.8-.7-.7-1.2-.2 -.6.5-1.2-1.2-1.3-2.3l.4-4.4s-2.8.5-4.3 1 -3 .7-4.2 1c-1.2.3-1.9.6-2.5.4v0c-1.03-.16-2.07-.23-3.1-.2 -1.1 0-1 .2-2.1 1.3 -1.1 1-1.4 1.7-2.3 3.7 -.8 2-1.1 3.9-1.4 6.4 -.2 1.6-.5 2.7-.7 3.3h13l.5-1.4v0c.33-.62.85-1.12 1.5-1.4 .6-.3 1-.3 1.2-.8 .3-.6 1-1 1.6-1.4 .7-.3 1.9-.1 3 .2 1 .3 1.4-.5 1.7-.9l1-1.7c.6-.8.2-1.4.2-1.4s-.5-.4-1-1.2Zm20.8.4c-.2-.8-.1-.9-.5-1 -.5 0-1.2-.2-1.9-.5 -.6-.3-.6 1.5-.6 1.5s-1.5.1-3.2 0c-1.7-.3-3.8-1.8-4.5-2.3 -.7-.6-1.5-1.7-1.5-1.7l-1 .8c-.6.3-1 1.4-1 2.5 -.1 1 1.2 2.4 1.3 3.5 .1 1-1.2 3.3-1.8 4.1 -.4.6-1 2-1.3 2.7h6.2l.7-1c.6-.7 1.7-.9 1.7-.9l.3-.8c.2-.6.9-1.3 2.4-1.9 1.6-.6 3.4-.7 3.4-.7s.8-.6 1.3-1.5c.6-.8.2-2 0-2.8Z"/><g fill="#D4AF3A"><path d="M230.6 351.6c1.2.4 3.4-.4 4.5-1.8 1-1.3 1.4-3.3 2.2-4.5l1.4-2s-.2 2-1.2 4.5v0c-.88 2.32-1.23 4.82-1 7.3 .5 2.8 2.4 3.3 3.5 3 .8-.4 2-1.7 3.2-3.6l1-2c.7-1.5 1.4-3.8 1.7-3.7 .7.1.3 1.7 0 2.8 -.6 2.2-1.6 5.4-1.7 7.3 -.1 2 .1 5.5 2 5.7 2 .1 3-1.6 4.1-5.6 1.1-4 1.3-5.2 1.8-5.2s.5 2.7.5 3.9v0c0 2.72.58 5.41 1.7 7.9 1 .8 1.7.7 1.7.7s.8.1 1.7-.7c1-.9 1.7-6.7 1.7-7.9 0-1.2 0-3.9.5-3.9s.7 1.3 1.8 5.2c1 4 2 5.7 4 5.6 2-.2 2.2-3.7 2.1-5.6 0-2-1.1-5.2-1.7-7.4 -.5-2.1.3-2 1.7.8l1.4 2.7c1 1.6 2 2.6 2.8 3 1.1.3 3-.2 3.5-3 .4-3-1.7-11.2-1.7-11.2l.9 1.4c.8 1.2 1.2 3.2 2.2 4.5 1.1 1.4 3.3 2.2 4.5 1.8 1.2-.4 1.3-2.5.4-6.4 -.8-4-4.3-6.1-6.8-9.2 -2.3-2.9-4-8-4.3-8.7v0c-3.14 1.47-5.99 3.5-8.4 6l-6.3 6.6s-1-1.3-6.2-6.7v0c-2.45-2.5-5.33-4.54-8.5-6 -.2.7-2.4 5.6-4.7 8.4 -1.1 1.5-2.7 2.6-3.9 4h-.001c-1.27 1.64-2.12 3.56-2.5 5.6 -.9 3.8-.7 6 .5 6.4Z"/><path d="M230.5 364.8l2.3-2s1-1 .8.8c-.3 1.7-.9 5.3-.5 6.8 .4 1.6.6 3 2.5 1.8s2.3-1.9 3.2-2.8c1-1 2-1.4 1.7.1 -.2 1.5-1 3.8-.6 6.9 .3 3 1.8 3.5 3.8.9v-.001c1.45-1.97 2.69-4.08 3.7-6.3 .6-1.3 1.8-2.4 1.8 0 0 5.1 1.2 12.6 6.8 14.5 5.7-2 6.8-9.4 6.8-14.5 0-2.4 1.2-1.3 1.8 0v0c1 2.22 2.24 4.33 3.7 6.3 2 2.6 3.5 2.1 3.8-1 .4-3-.3-5.3-.6-6.8 -.2-1.5.8-1 1.7-.1 .9 1 1.4 1.6 3.3 2.8 1.9 1.1 2-.2 2.4-1.8 .4-1.5-.2-5-.5-6.8 -.2-1.8.9-.8.9-.8l2.2 2c1.5 1.3 3.6 1.4 3.6 1.4s1-5.3-1.3-8.5l-3-4.3s-1.3 0-2.2-.4c-1-.4-2-1.1-2-1.1v3l3.4 3.3c.7.8 2 2.1 0 .9v0c-1.14-.83-2.24-1.7-3.3-2.6 0 0-.4 2.7-1.2 3.4 -.8.7-1.9.8-2.3.6l-.5-.2 -.1 1s1.7 3.2 2 4.5c.1 1.2-.2 1.1-1-.5 -.8-1.7-2.3-3.8-3-5 -.7-1-1.7-1.8-1.6-.4 .1 1.5-.5 4.1-1 5l-.8 1.4 1.2 4.4c.1.6 0 1.4-.6.5 -.6-.8-2.2-4.5-2.2-4.5s-2.3 0-3-.7c-.6-.6-1.6-3.1-1.6-3.1s-.9 3.1-1.6 4.1c-.8 1-2.6 2-2.6 2l-.2 6.5c-.1 1-.2 1.4-.6 1.4 -.4 0-.4-.4-.6-1.4l-.2-6.4s-1.8-1-2.5-2c-.8-1-1.7-4.2-1.7-4.2s-1 2.5-1.6 3.1c-.7.6-3 .7-3 .7s-1.6 3.7-2.2 4.5c-.6 1-.7.1-.5-.6 0-.6 1.1-4.3 1.1-4.3l-.8-1.3v0c-.67-1.59-1-3.29-1-5 .1-1.5-1-.8-1.6.4 -.7 1.1-2.2 3.2-3 4.9 -.7 1.6-1.1 1.7-.9.5 .3-1.3 2-4.5 2-4.5l-.2-1 -.4.2c-.5.2-1.6 0-2.4-.6 -.7-.7-1.1-3.4-1.1-3.4l-3.4 2.6c-2 1.2-.6 0 0-.9l-.001 0c1.09-1.14 2.23-2.24 3.4-3.3v-3s-1 .7-2 1v0c-.71.26-1.45.43-2.2.5l-3 4.3c-2.2 3.2-1.3 8.5-1.3 8.5s2.1 0 3.6-1.4Zm27.5 35.7c-1.5-1.7-2-2.5-2-2.5s-.4.8-1.9 2.5c-1.4 1.7-4.8 4.3-4.8 4.3h-.001c.32 4.85 2.77 9.32 6.7 12.2 2.2-1.4 3.5-3.3 4.9-5.3 1.6-2.4 1.9-6.9 1.9-6.9s-3.4-2.6-4.8-4.3Z"/></g><path fill="#B96B29" d="M255.3 406c.1 1 0 3.6.7 3.6 .6 0 .5-2.6.7-3.6l.1-3.5h-1.7s0 2.4.2 3.5Z"/><g fill="#D4AF3A"><path d="M256 161.4v0c-5.75.17-11.49-.57-17-2.2l-4.2 1v0c6.77 2.5 13.97 3.66 21.2 3.4 9.3-.1 14.7-1 21.1-3.5l-4.2-.9v0c-5.52 1.63-11.26 2.37-17 2.2Zm21.9-5v0c-1.29-.98-2.62-1.88-4-2.7 -.7-.4-.1-1.4 0-1.8v0c1.57-.81 3.25-1.39 5-1.7 1.6-.4 1.4-.8 1.4-.8s-1-1.1-7.2-1.8 -17.1-.5-17.1-.5 -11-.2-17.1.5c-6.2.7-7.2 1.8-7.2 1.8s-.3.4 1.4.8c1.7.5 4.8 1.3 5 1.7 0 .4.6 1.4 0 1.8l0-.001c-1.41.79-2.74 1.69-4 2.7 -.5.4-.5 1 .2 1 .8 0 .8 0 3-.4l0 0c12.39-2.35 25.1-2.35 37.5 0 2 .5 2.1.5 2.9.4 .7 0 .7-.6.2-1Z"/><path d="M270.8 159c-4.2-.5-7-1-14.8-1 -7.9 0-10.6.5-14.8 1 2.6 1 7 1.6 14.8 1.6 7.8 0 12.2-.5 14.8-1.6Zm-19.4-61l3.5-.4 -.2 3 3.2-.2 -.3-2.9 3.5.5 .2-2.8 -3.7.3 .6-3h-4l.7 3 -3.5-.3Zm10.4 7.2h-4.4v-3.7 0c-.43-.08-.87-.12-1.3-.1v0c-.37-.04-.74-.04-1.1 0v3.8h-4.5v0c-.22.67-.29 1.39-.2 2.1H262v-.6 -.001c-.04-.52-.14-1.02-.3-1.5Z"/></g><path fill="#1D5E91" d="M256.1 112c2.6 0 4.8-1.5 5.6-3.6h-11.2c.8 2.1 3 3.6 5.6 3.6Zm2.4-10.2v2.6h3v0c-.65-1.21-1.72-2.13-3-2.6Zm-4.8 0v0c-1.25.49-2.27 1.41-2.9 2.6h3v-2.6Z"/><path fill="#B96B29" d="M259.5 149.3l-3.5-1.6 -3.5 1.8c-1.3.6-1.1.4-1.5 1.4 -.4.8 0 1.2.6 1.4l4.4 2.3 4.9-2.3c.9-.4.7-.9.5-1.6 -.3-.6-.8-.9-2-1.4Z"/><g fill="#D4AF3A"><path d="M259.9 150.4l-4-1.8 -3.7 1.8 3.9 2Zm-4-15s-.3 1.4-.7 2c-.4.5-.7 1-.6 1.8 .1.7.9 1.1 1.4 1.1 .4 0 1.2-.4 1.4-1.1 0-.7-.2-1.3-.7-1.8 -.4-.6-.7-2-.7-2Z"/><path d="M256 141a.7.7 0 1 0 0 1.4 .7.7 0 1 0 0-1.4Z"/><path d="M253.4 138s1.3-1.4 1.7-2.3l.9-1.6 .8 1.6c.5.9 1.7 2.3 1.7 2.3s1.8-1 2.8-4.3c1-3.4-.3-7-.7-10.8l0 0c-.38-3.46-.65-6.93-.8-10.4v0c-1.16.68-2.46 1.06-3.8 1.1v0c-1.35-.04-2.65-.42-3.8-1.1 0 0-.4 6.6-.9 10.4 -.4 3.9-1.7 7.4-.7 10.8 1 3.4 2.8 4.3 2.8 4.3Z"/></g><g fill="#B96B29"><path d="M256 127.5a3 2.9 0 1 0 0 5.8 3 2.9 0 1 0 0-5.8Z"/><path d="M256 120.7a2.9 2.8 0 1 0 0 5.6 2.9 2.8 0 1 0 0-5.6Z"/><path d="M256 114.3a2.8 2.7 0 1 0 0 5.4 2.8 2.7 0 1 0 0-5.4Z"/></g><g fill="#D4AF3A"><path d="M256 128.3a1.6 1.6 0 1 0 0 3.2 1.6 1.6 0 1 0 0-3.2Z"/><path d="M256 121.5a1.6 1.5 0 1 0 0 3 1.6 1.5 0 1 0 0-3Z"/><path d="M256 115.2a1.4 1.3 0 1 0 0 2.6 1.4 1.3 0 1 0 0-2.6Z"/></g><path fill="#B96B29" d="M255.9 358.5c.2 0 .2-.5.2-1.4l.4-4.3c.2-1.2-.3-1.2-.7-1 -.3 0-.5 1-.5 1.5l.2 4.4c0 .7.2.7.4.8Z"/><g fill="#D4AF3A"><path d="M224.4 383c1.4-.8 2.6-1.7 5.6-3.8v0c1.71-1.05 3.15-2.49 4.2-4.2h-1c-.7 0-1.2-.8-1.2-1.7 0-.8 0-2.4.2-4.4 .2-2-.3-3.5-.3-3.5s-1.3 1.2-3.3 2.3c-2 1-2.8.5-2.8.5l-.5-2 -2 4c-1.2 2-4.5 4.4-6.8 6.2v0c-2.11 1.69-4.43 3.1-6.9 4.2 -1.9.7-.8 1.6-.8 1.6s2 2 7 2.8c5 1 7.3-1 8.6-2Z"/><path d="M241.9 381.1c-1.8-.2-2.9-.8-3.2-2.8 -.2-1.2 0-6 0-6l-1.2 1.2c-.7.9-2.2 1-2.2 1s-.2.7-.9 1.8v0c-.78 1.4-1.87 2.6-3.2 3.5h0c-1.73 1.03-3.4 2.17-5 3.4l0 0c-1.4 1.23-2.91 2.34-4.5 3.3v0c-1.94 1.03-3.33 2.85-3.8 5 -.6 2.5-.2 3.3 1.8 3.2 2-.2 2.2 0 5.4-.8s7.7-4.4 11-6.5c3.4-2 5.8-6.3 5.8-6.3Z"/><path d="M250.7 384s-1.3-1.7-1.8-3.6l-1.5-5.8 -1.5 3.5c-1 2.3-3 2.9-3 2.9s0 1-1.5 2.9v0c-1.7 2-3.73 3.69-6 5h-.001c-2.69 1.37-5.07 3.28-7 5.6 -1.6 2.3-1.7 4.7-1 5.7 .8 1 1.9-.2 3.4-1 1.5-.7 5.9-1.4 12-4.6 6-3.2 7.9-10.6 7.9-10.6Z"/><path d="M253.3 397.5c1.7-2.5 2-8.5 2-8.5l-1.5-1 -2.3-3.1 -2 4v0c-1.04 1.77-2.39 3.33-4 4.6 -2.2 2.1-5.2 4.1-6.5 6.3 -1.3 2.3-.6 6.7.2 8.1 .9 1.5 2 1 3.3-.2l3.9-3.4c2.2-1.9 5.3-4.3 7-6.8Z"/></g><path fill="#B96B29" d="M233.6 347h-.001c.68-1.78 1.59-3.46 2.7-5v0c.5-.8.94-1.64 1.3-2.5 0 0-2.1 2-3 3.4v0c-.78 1.3-1.35 2.72-1.7 4.2 -.4 1.5-.2 1.7.7 0Zm8.5 1.6v0c.17-.67.34-1.34.5-2 0 0 .4-1.2.2-1.3 -.2 0-1 .8-1.7 2.7 -.6 2-1.5 4.8-1.3 5 .1 0 2-3.2 2.3-4.4Zm6.7 5.4l.4-1s.7-2.1.7-2.6 -.2-1-.8.2c-.6 1.1-.6 2.2-.7 2.7 -.2.5-.8 2.2-.6 2.4 .2.1.6-.9 1-1.7ZM228 374.4l-.9-.5 -1.3 1.5c-.7.8-1.6 1.2-2.2 2h0c-.75.99-1.71 1.81-2.8 2.4 -1.4.7-2 1-1.7 1.1 .3.3 1.2-.3 1.2-.3s.4 0 2.1-1c1.7-1 2-1.6 3.1-2.5 1.1-1 2.5-2.7 2.5-2.7Zm7.3 8.7c.7-.7 1.3-1.2 1-1.5 -.4-.4-.8-.4-1.4.1l-3 2.8 -2.2 1.7c-.7.6-2.4 1.5-3.2 1.9 -.8.5 0 .5 0 .5l1.3-.5 2.6-1.1 1.8-1.1v0c1.1-.85 2.14-1.79 3.1-2.8Zm8.4 5.8c.6-1.1 0-.8-1-.4 -.8.3-2.8 2.5-4 3.3 -1.2.8-2.2 1.2-3.1 1.7 -1 .5-1 .7-1 1 0 .2.5.2.9 0l1.8-1 1-.2c.6 0 1.4-.7 2.6-1.7 1.2-1 2.3-1.7 2.8-2.7Zm4 7.7c-1.6.9-4.1 2.9-4.8 4.2 -.7 1.4-1.1 2.3-.9 2.6 .2.2 1-.3 1.3-.8 .3-.6 1-1.4 1-1.4s2.5-2.5 3.4-3h-.001c1.22-.85 2.22-1.98 2.9-3.3 .3-1 0-1.5 0-1.5s-1.5 2.3-3 3.2Z"/><path fill="#C52126" d="M208 181.3v0c-5.84-3.17-12.73-3.76-19-1.6 -2.3.6-4.2.7-6 .2 -2.8-.7-5-3.2-5.7-6.3 0 0-2.6 3.3 0 6.8h0c1.07 1.6 2.71 2.74 4.6 3.2 5.5 1 10.8-2.3 15.3-2.6 4.4-.2 7.8 2.5 7.8 2.5s1 .9 2.5 0c1.4-.8 1.8-1.5.5-2.3Z"/><g fill="#D4AF3A"><path d="M192.3 338.7l-1.3-.2v0c-.96-.22-1.9-.52-2.8-.9 -.5-.2-1.2-.2-1.7.3s-4.4 2.9-4.4 2.9h6.5c2.2 0 3.7-2.2 3.7-2.2Z"/><path d="M210.5 337.6v-.7l-.8-1.8s-1 .6-2 1.6c-1.3 1.3-2.6 3.2-3.2 4 -1.1 1.3-2.6 2.6-1.3.4s1.7-3.2 2.7-4.6c1-1.5 1.8-2.1 1.7-2.2l-3.7-.6c-2.7-.3-4.4-1.4-5.6-2.1l-3.5-2s-4.6 2-6.3 2.4c-1.8.5-2.8.7-1.1 1.5 1.7.9 3.1 1.1 4 1.6 .7.6 3.3 1.4 4.8 1.4 1.6 0 4.2 0 3.2 1 -1 1.2-2.2 3.3-3.3 6.4v0c-.83 2.37-1.24 4.88-1.2 7.4l.2 2.7s1.9-2.1 7-5.3c5-3.2 7-4.3 7.9-4.7 1-.4 1.4-.4 1.2-1.6l-.7-4.8Z"/><path d="M230 322.1l-1-.4h0c-.07-.01-.14-.01-.2 0 -.6.4-3.7 2.4-5 4.5 -1.3 2.1-2.5 2.2-1.1 0v0c.94-1.64 2.12-3.12 3.5-4.4l1-1h0c-2.72-1.29-5.33-2.8-7.8-4.5 -.3.7-1 2-1.7 2.7 -1 1.1-3.5 2.1-3.5 2.1s2-2 2.6-3.5l.8-2.6h-.001c-1.87-1.46-3.58-3.1-5.1-4.9v0c-.81 2.94-2.32 5.65-4.4 7.9 -4 4.5-12 6.7-12 6.7s-2.8.3-.5 1c2.2.5 3.8 1.5 8.3.8 4.4-.8 4.7-1 5.3-1.2 .6-.1 2.2 0 0 .8s-7.4 1.6-9.3 1.4c-2-.1-4.7-.6-1.9 1 2.8 1.6 4 2 5.7 2 1.8 0 2.5.6 4.2.6 1.7 0 2.1-.3 3.3-.6 1.2-.2 2 .2 2 .7 0 .5-1.6 1.8-1.6 5 0 3.3.3 5.5.6 6.4 .3 1 1 2.5 1.5 3.4 .5 1 .7 1.8 1.1 0 .5-2 1.6-4.7 2-6.6 .4-1.8.7-1.9.8-2.9 .2-.9 1.2-1.6.8.1v0c-.51 1.82-.97 3.65-1.4 5.5 -.4 1.5-1.2 4.4.2 2.1 1.5-2.2 6.8-8.3 7.7-9.3 1-1 1.6-2.1 2.3-3 .6-.9 2.5-2 3.4-3.4 .8-1.2 3.2-3.5 4.2-4.3l-4.8-2.2Zm-74.2-137.7c.1 3.3 3.8 9.6 5.8 13 2.1 3.3 2.7 4.6 2.3 4.8 -.3.3-1.2-1.5-2.3-3l-5.2-7.6c-1.9-2.6-4.6-9-5-9.5 -.3-.6-.5-1-1.4-.2 -1 .7-2.7 7.6-.6 12.3 2.2 4.8 5.4 8.2 6.7 9.8 1.4 1.7 3.2 4.2 2.9 4.5 -.3.2-.8-.5-2.4-2.2l0-.001c-2.14-2.21-4.21-4.48-6.2-6.8v0c-1.51-2.06-2.84-4.24-4-6.5 -.3-.5-.7-.4-1-.1 -.5.6-1.4 2-1 5.7 .5 5.2 3.3 8.2 5.7 10.9 2.4 2.6 4.8 4.8 4.5 5.2 -.4.3-2.9-1.9-4.6-3.5 -1.7-1.7-6-5.7-6.8-6.9 -1-1.1-2.3-.6-2.2 4 0 4.4 5 9 7 11.5 2.2 2.5 4.7 4 4.5 4.5 -.2.5-2.3-.8-3.6-1.7 -1.4-1-6.4-4.2-7.4-5 -1-.6-1.5.7-.3 5 1.3 4.3 5 7.7 7.2 9.3 2.3 1.6 5.8 3.5 5.6 4 -.2.5-1.7-.1-3.8-1.1 -2-1-4.5-2-6.3-2.5 -1.8-.5-1.8.8-1.8.8s-.4 3.7 2.3 6.6v0c2.2 2.48 5.21 4.1 8.5 4.6 2.8.5 3.3.6 3.2 1 0 .5-.4.5-1 .5 -.7 0-3.3.3-5.7.3 -2.4 0-3.7.6-3.7 1.7 0 1-.1 2.5 3.5 4.9 3.7 2.4 7.7 2.8 9.5 3.1 1.7.4 1.7.5 1.4 1 -.4.5-1.2.5-3.9.8 -2.7.2-4.3 1.3-4.7 2 -.4.8.2 2.9 2.4 4.4 2.2 1.5 5.1 2 9.4 1.7 4.3-.3 5.3-.3 5.5.4 .1.7-1.3.9-3.4 1.3 -2.2.3-3.8.3-5 1.3 -1.2 1-.3 3 1.7 4.6 2.1 1.5 7.2 1.5 9.4 1.3 2.1-.1 5.4-.9 5.6-.3 .2.6-1.5 1.4-3.8 2.2 -2.2.8-2.8 1.3-3.2 2.2 -.5 1-.1 1.8 2.5 2.8 2.7 1 6.5 1 8.5 0 2-.8 3.1-1.2 3.5-.8 .3.3 0 .7-.5 1.2v0c-1.21 1.15-2.69 1.97-4.3 2.4 -2.2.6-2.5.6-3.2 2.4 -.8 1.8 1.2 3.2 5.2 3.3 4 .2 9.3-1.4 11-2.4 1.7-1 2.4-1.2 2.7-.9 .3.4.2.6-.7 1.2 -.8.7-3.5 2.6-4.9 3 -1.4.3-1.5 1.3-1.5 2.3 0 .9-.4 2.8 3.2 3.6 3.6.9 7.8.2 11.6-2.5l0 0c.92-.58 1.74-1.33 2.4-2.2 -.3-3.7-.1-6.2.3-8.5v0c-1.24-.14-2.45-.45-3.6-.9 -2.2-.8-3-2.8-3.5-4 -.5-1-1.3-1-2.1-.7 -.9.3-1.7.7-3 .6v0c-2.19-.23-4.2-1.31-5.6-3 -1.8-2.2-1.5-4.3-1.6-5.4 0-1-1.7-.3-2.6-.3 -.9 0-3.3-.3-5.6-1.9 -2.3-1.6-2.3-3.7-2.5-4.6 -.2-.8-1.2-1.4-1.9-1.7 -.7-.3-1.8-.6-3.4-1.8 -1.6-1.2-2.1-3.8-2.2-4.7 0-.8-1-1-4.2-2.6s-3-5-2.8-6.4c.1-1.4 1.6-2.5 1.6-3s-1-.6-2.1-1.3c-1-.6-3.8-1.7-3.9-5.7 0-4 2.6-4.4 2.6-4.4l-1.6-.9c-1-.6-4-2.6-4-5s1.1-3.4 1.9-4c.8-.6 3-1.1 3-1.1s-1.4-1-2-2.8c-.6-1.8-.8-4.1.6-5.8 1.3-1.6 3.6-1.6 4.8-1.6 1.2 0 2.3.7 2.7.3 .4-.4.5-.6.1-1.6s-.5-3.2-.2-4c.4-.8.5-2.3 3.5-3.3s6.3 1 7.3 1.6c1 .6.6-.8.6-1.8s-2-3.5-4.4-7v-.001c-5.06-7.67-8.71-16.17-10.8-25.1 -.4-1.8-1-1-1-1s-.8.3-2.4 4.5h0c-1.4 3.56-2.01 7.38-1.8 11.2Z"/><path d="M209.6 257.5v0c-2.49-.27-4.71-1.67-6-3.8 -1.9-2.7-4.6-3.3-9.4-3.2 -4.8 0-7-2.2-8.2-5.5 -1.2-3.4.2-7.1 5-9.5 5-2.4 7.1-5.1 7.3-9.2 .2-4.2-4.9-9.3-9.9-15.1 -5-5.8-9-14-9-14s-1.5 1.9-1.5 3.8c0 2 .8 4 0 4.5 -.7.6-1-.8-4-2s-5.3-1.5-7.1.6c-1.8 2.1 0 5.8 1.7 7.5 1.6 1.8 3 3 2.5 3.7 -.4.7-3-1-3.7-1.6 -.9-.5-2.8-2.6-5.7-2.4 -2.8.3-3.8 1.1-4 3.5 -.4 2.4 2.5 4.6 4.3 5.5 1.9.9 2.6 1.7 2.1 2 -.4.5-.9 0-1.7-.2 -.8-.3-3.1-.5-4.6 0 -1.5.6-3.9 2.6-1.7 5 2.2 2.6 6.8 3.5 7.8 3.7 .9.2 1.3-.1 1.4.6 .1.8-1.9.8-4.4.9 -2.5 0-3.2 2.4-2.8 4.3 .3 1.8 4.5 3.8 6.8 4.2 2.3.4 3 0 3.3.7 .2.6-.3.9-1.6 1.2 -1.3.4-3.8.7-4.2 2.7 -.5 2-.6 3 1.4 4.7 1.9 1.8 5 1.5 6 1.3 .9-.2 2-1.2 2.9-.3 .9 1-.8 1.7-2.4 2.8 -1.6 1-1.5 3.2 1.2 4.7v0c1.97 1.02 4.28 1.21 6.4.5 1.1-.3 2.6-2 3.3-1 .8 1.1-2.3 1.5-3.6 3 -1.2 1.6-.8 4.2 1.8 5.8 2.6 1.5 6.8.4 7.5-.2 .8-.7 1.7-1 2.2-.4 .6.6-.2 2-.8 3.3 -.5 1.3-1.5 5 2.3 6.6 3.9 1.4 7.4-1.9 8-2.5 .7-.7 1.3-.8 1.8-.5 .6.3.3.8-.1 1.5h-.001c-1.09 1.82-.51 4.18 1.3 5.3v0c1.47.96 3.26 1.32 5 1 .6-2.1 1.3-4.4 2-7.6h-.5c-.4 0-.4.5-.4.7 0 .3 0 .4-.3.4s-.3.2-.8.6c-.5.3-1 .7-1.2.5 -.2-.2 1-.8 1.3-1.2 .4-.4 1-1 1-1.5 .1-.5.3-.7 1-1.3l.5-.5c.4-2.2.9-4.7 1.3-7.7v0c.22-1.96.36-3.93.4-5.9h-1.2ZM131.1 200c4 8.3 9.9 13 9.9 13s-.8-2.1-1.1-3.5c-.4-1.4-.1-3-.1-3s-1.5-2-4.1-6c-2.7-4.2-4.2-10.3-4.2-10.3s2.5 6.1 4.5 9.3h0c1.25 2.09 2.65 4.1 4.2 6 0 0 .8-3 1.3-3 .6-.2 1 .2 1.5.9 .5.6.9.5.9.5l-1.7-3c-.5-.7-1.2-1.5-1.6-2.3 -1.6-2.4-4.9-7-6.6-11.6 -1.7-4.6-5.4-16.1-6-19.5 -.6-3.4-1.3-1.6-2 1h-.001c-1.04 3.67-1.34 7.51-.9 11.3h0c.72 7.04 2.76 13.89 6 20.2Zm5.3 22.4v0c1.25.92 2.51 1.82 3.8 2.7l-.6-1.9 -.3-3 -3.1-2.7v0c-2.21-1.93-4.22-4.08-6-6.4 -3-3.8-.6-1.5 2 1.3s7.4 6.8 7.4 6.8v-1c0-.8.3-1.4.7-2 .5-.6.3-.6-2.5-2.7l0-.001c-7.95-7.34-14.31-16.23-18.7-26.1 0 0-1.6 9.5 4.2 20 5.8 10.5 11.5 13.9 13 15Zm30.4 60c3.2-1.2 2.3-4.3 2.3-4.4l-3.7 1.3c-1.8.7-6.2 2-8 2 -1.7 0-1.7-.2-1.8-.4 0-.3 1.4 0 3.9-.5s6.9-2.8 7.7-3.3c.7-.5.6-.6-.5-.7v0c-.92-.09-1.78-.44-2.5-1 -.4-.3-1.6.2-4.5.9h0c-7.52 1.93-15.37 2.21-23 .8 -.6-.2-1.4.2.8 3.9 2.2 3.7 10 5.7 15.4 5.6 5.3 0 10.7-3 13.9-4.1Zm-14.3-7.6c5.5 0 7.6-1.6 7.6-1.6s0-.3-.7-1.4c-.8-1.1-.6-3-.6-3l-3.7.5c-2.3.4-5 .7-8 .2 -2.9-.6-1.6-.9.7-.6 2.4.3 7-.6 8.4-1 1.4-.6.8-1-.2-1.4 -1-.3-3.6-2-3.6-2s-6.8.8-13 .1c-6.3-.7-10.2-2.3-11.5-2.5 -1.3-.2-1.2.3-1.2.3s-.4.6 1.8 4v0c2.48 3.27 6.01 5.6 10 6.6h-.001c4.56 1.21 9.27 1.81 14 1.8Zm-1.4-13l-.6-1.4c-.3-1.2.6-2 .6-2s-1.3-.4-5.4-1c-4.1-.4-4.4-.8-7-1.3 -2.4-.6-4.1-1.3-4.1-1.6 0-.3.8.1 2.4.7 1.4.5 7.8 1.2 10.5 1.6 2.7.4 4.2.6 4.6.4 .5-.3 2.2-.7 2.2-.7l-2.6-.6 0-.001c-1.22-.23-2.38-.71-3.4-1.4 -.8-.5-1-.6-4.4-1 -3.4-.4-6.1-1.5-12.2-3.7 -6-2.2-10.6-4.8-11.8-5.8 -1.3-1-1.2-.3-.8 1 .3 1.2.3 2.8 3.3 6.4 3 3.6 4.6 5.1 12.3 8 7.7 2.8 16.4 2.4 16.4 2.4ZM128.3 243v0c4.96 3.38 10.58 5.7 16.5 6.8 .3-.4-.4-2 0-3 .4-1.2 1.1-1.2 2.7-1.3 1.7 0 .6-.4.2-.4l-3.2-.8c-2.7-.7-5.5-1-9.2-2.5 -3.8-1.4-5-2.5-4.8-2.7 0-.3 1.7.9 5.2 2.2 3.5 1.3 7.5 1.8 9.7 2.3 2.2.5.3-.5-.7-1.1 -1-.6-2.5-2.9-2.5-2.9s-2.5-.4-6.5-1.6c-4-1.2-7.3-2.6-10.6-4.5 -1.2-.6-2.3-1.5-3.5-2.3l-5.5-4c-1.3-1-1-.2-.8.4 .2.6 1.1 3.5 3.3 6.6 2.1 3 2.8 4 9.7 8.8Zm-1.2-13.5c6.8 5.3 12.5 7 13.5 7.4 1 .4 1-.1.7-.7 -.2-.6-.3-2.4-.3-2.4l-5-3c-2.8-1.5-5.7-3.6-7.7-5 -2-1.3-.8-1.2-.2-.7 .6.5 3.4 2 6 3.8l7 4.1s0-.9.6-1.4c.6-.6 2-.4 2-.4l-1.1-1.4c-.5-.7-2.7-1.4-5.2-2.6v-.001c-3.64-2.06-7.06-4.47-10.2-7.2 -3.3-2.8-9.7-9.8-10.1-10.3 -.5-.6-.7-.5-.8.2 0 .7-.3 1.2.4 4.4s3.7 9.9 10.4 15.2Zm23.8-50.3l2.2 3.8v0c.52.82 1.02 1.65 1.5 2.5V184v0c-.2-1.23-.2-2.48 0-3.7 .1-.9.3-1.7.2-2.4 0-.9-.3-1.6-.4-2 -.2-1-1.2-4.9-1.7-7.7v-.001c-.59-3.37-.89-6.79-.9-10.2 0-3.5.5-1.7.5 0s.2 4.3.8 8.3c.5 4 2.2 10 2.2 10s0-.9.6-2.2c.5-1.4 1.3-2.9 2-4.5s.4-2 .4-2 -2.4-11.3-3-16.6c-.6-5.3-1.6-19.4-1.6-19.4 -3.5 3.5-6 12.6-6.5 21.3 -.3 6.5.7 12.5 1 15v0c.31 3.88 1.22 7.69 2.7 11.3Zm-7.6 17.8c0-2.6.7-4.5 2.3-5 0 0-1.4-2.6-2.7-6.3v0c-.91-2.68-1.58-5.42-2-8.2 -.9-6-1.6-12.3.2-2 1.8 10.2 4 13.8 4 13.8l2.6 4.3v0c-.36-1.75-.46-3.53-.3-5.3 0-2 .3-4.8 1-7 0 0-3.2-6.3-5.2-13.9h-.001c-2.26-7.84-3.41-15.95-3.4-24.1 0 0-3.3 2.4-4.4 14.8l-.001 0c-.67 9.75.62 19.54 3.8 28.8l-.001-.001c1.24 3.36 2.57 6.7 4 10Zm35.4 94.5l-2-1.3c-1.5-1-1-4-1-4l-1.6 1.1c-1.2.8-2.4 1.7-4 2.3L167 291c-1 .3-.8 0 0-.5 .9-.5 1.1-.8 3.2-1.6 2-.8 6.1-4.4 6.1-4.4l-2.6-.1c-1.7-.1-3.9-1-3.9-1s-1.7 1.6-8.5 4.5c-6.8 3-12.6 3.7-12.6 3.7s.7 3.5 4 4.7c2.7 1.1 6.5 1.9 13.8.1v0c4.3-1.01 8.44-2.63 12.3-4.8Zm9 7c.6-2.9-1-4.9-1-4.9l-1.4 1.1c-1 1-2.6 2.7-5.4 4.1 -2.9 1.5-4 1.4-1.2-.1s6.9-5.7 6.9-5.7l-1.1-.4c-1-.4-3 .3-10.6 4.9 -7.7 4.6-12.2 4.8-12.2 4.8s3.4 4.1 12.7 3.8c9.4-.3 12.7-4.7 13.3-7.6Zm17.6-3.4s-1 1.5-2.4 2.4c-1.4 1-5 1.5-5 1.5l-1 1.3v0c-1.01 1.67-2.34 3.13-3.9 4.3 -1.6 1.2-4.2 2-4.3 1.7 -.2-.3 1.5-1 3-2 1.7-.9 3-2.7 4.2-4 1-1.2-.5-1-.5-1h-3.7c-1.8-.2-1.5 0-2 .8 -.5.9-1.2 1.7-2.6 3.2l-4.7 5.4c-1 1.3-.2 1.6-.2 1.6s.4.8 4.6 1.3c2.5.2 5.3 0 8.2-1.8v0c2.09-1.32 3.98-2.94 5.6-4.8 5-5.4 4.7-9.9 4.7-9.9Zm2.2 11.3l-1.5 1.9s.7-2.2 1.3-3.3l1-1.4v0c-.73-1.61-1.3-3.29-1.7-5 -.5 1.5-1.9 5.8-3.7 8.6 -2.1 3.5-4 4.7-2.8 5.6 1.3 1 3.7 1.2 6.4-.2l-.001-.001c2.04-1.04 3.43-3.03 3.7-5.3h-.001c-.48-.75-.91-1.52-1.3-2.3 -.3.2-.8.6-1.3 1.4Z"/><path d="M206.9 167.4a1.9 1.8 0 1 0 0 3.6 1.9 1.8 0 1 0 0-3.6Z"/><path d="M203 165.9c1.7 0 2.6-.9 4.5-.7l0-.001c3.22.65 6.3 1.87 9.1 3.6h-.001c3.28 1.51 7 1.83 10.5.9 1-.3 2-1 3-1.5 4.6-2.5 3.5-7.6 3.5-7.6v0c-3.29 2.44-7.32 3.67-11.4 3.5l1 .8c.6.7 1.8 1.5 1.4 1.8 -.4.3-2-1.3-3.4-2.3l0 0c-2.1-1.57-4.48-2.73-7-3.4 -3.4-1-7.4-1.1-10 .3 -2.7 1.5-2.9 3.3-2.5 4 .2.5.7.6 1.2.6Zm49.2 37c-.8-.2-2.2-.5-4-2.2l0-.001c-2.39-2.29-4.63-4.73-6.7-7.3 -.5-1-.3-1.8 1-2.3 1.2-.5 2-2 2-2s-2.7-1.1-4.5-2.4c-1.8-1.3-6-5.2-6.6-6.1 -.6-1-.3-1.1.5-1.4 1-.3 1.1-1 1.1-1s-2-1.1-3.8-2.6v0c-1.49-1.28-2.92-2.62-4.3-4 -2.7 1.2-7 .7-9.3.3 -4.1-.7-7.1-2.4-7.1-2.4l-.7 1.9c-.5 1.3-2.4 2-4.3.7 -2-1.2-1.5-4-1.5-4s-1.5-.9-4.7-2c-3.1-1.2-5.7-1.4-8.2-.2 -2.6 1.2-3.8 4.7-3.8 7.3 0 2.7 1.4 1.6 1.6 1.2 .3-.4 1-2.3 4.1-2.8 3.3-.5 6.2 1 9.8 4 3.7 3 4.5 3.3 6.3 5.2 1.9 1.9.4 3-2.7 4 -3.2 1-7.2-1-7.4-1 -.6.3 1.4 3.1 4.1 4.2 2.7 1 6.2.3 8.9-.7 1.8-.8 2.2 0 2.7.5 3 3.2 3.7 6 4.2 9.7v0c1.45-.52 2.52-1.78 2.8-3.3 .1-.6.3-1.9 1.3-1 1 1 1.9 6.3 1.9 8.7 0 2.5-.8 5.7-.8 5.7l.8-.1c.4 0 1.3-.6 2.5-1.2 1.1-.7 1.2 0 1.2 1.4 0 1.3.4 3.8 2.2 8.3 1.7 4.4 4.3 5.9 4.3 5.9s.5-.9 1-2.7c.5-1.7 1-5.2 1-8.2 0-3-.9-9.4-.9-9.4s3.7 4.4 7.5 5.5c3.8 1.1 7.6.5 9.2-1.4 1.6-1.8.1-2.6-.7-2.8Z"/><path d="M227.2 214.5s-1.2 2.5-1.8 3.4c-.6 1-.9 1-.9 1s1.2 1 2.8 1.6l3.2.8s-1.9-2.6-2.5-4.4l-.8-2.4Zm22.9-1.5l-1-2.3v0c-3.02.23-6.03-.4-8.7-1.8 0 0 1.8 3.6 3.5 4.8 1.8 1.3 2 1.3 2 1.3s-1.7.3-4-2c-2.4-2.3-3.5-5-3.5-5s.6 6.2-.4 10l-1.1 4.2s5 1 10.5-.6 6-2 6-2 .6-.2-.3-1.4h-.001c-1.18-1.63-2.18-3.38-3-5.2Z"/></g><path fill="#B96B29" d="M240 199.4l-1.9-2.4s-.6.6 0 1.4c.6.8 2.9 3 4.5 4v0c1.03.56 2.14.96 3.3 1.2v-.3s-4.2-2-5.9-3.9Zm-6.8 12.9l-.4-9c0-1-.7-.8-.7-.8l-.8.4 1.6 11.3c.2 1.2.8 1.1 1.1 1 -.6-.2-.7-2.6-.8-3Zm-10.4-33.6c-.6-.6-2-1-.7.5 1.4 1.5 3.2 3.4 3.7 5s.8 3.5 0 3c-1-.3-1.6-.3-2.5-1.1 -1-.8-2.8-2.1-3.5-2.3 -.7-.3-2 0-1 1.1v0c1.26 1.37 2.67 2.61 4.2 3.7l4.2 2.9 2.1 1.4s-1-6.4-2.7-9.1v0c-1.08-1.81-2.35-3.49-3.8-5Zm-34.1 105.9c-1.3 1-3 1.4-3 1.4s-.8 0-.8.2 1 0 1.9-.1c1-.2 2.3-1.2 2.8-1.5 .5-.4 1.2-.8 1-1.5 -.3-.6-.7.5-2 1.5Zm11 5.9l-2.4 2 -1.4.6c-.7.3-.9.7-.9.7s.2.2 1 0 2.9-1.8 3.6-2.5c.7-.6 1-.8.7-1 -.2-.3-.4-.1-.6.2ZM155 211.1c.4.5.9 1.1 1 1 .3-.3 0-.5-.5-1.1l-.8-1 -1.2-1.6c-.4-.4-1.1-.7-.3.4l1.8 2.3Zm-3.4 7.4l1.5 1.4c.5.6.9 1.2 1.2 1 .3-.4-.8-1-1.3-1.7v0c-.44-.57-.94-1.07-1.5-1.5v0c-.45-.31-.92-.57-1.4-.8l1.5 1.6Zm1.3 12c.8 1 2 1.2 2.2.8 .2-.3 0-.6-.8-1h0c-1.42-.77-2.76-1.67-4-2.7 -.3-.4-.8-.7-1-.6 0 .1 1.2 1.6 1.6 1.8 .4.2 1.1.9 2 1.7Zm2.4 9.7c0-.4 0-.6-.6-.6l-1.7-.2s-1.4-.5-1.5-.3c0 .3 1.2.8 1.7 1v0c.52-.01 1.04.13 1.5.4 .3.2.6 0 .6-.3Zm1 10.4c-1.4 0-2.7-.3-2.8-.1 -.1.2.7.6 1.4.8 .8.3 2.2.4 3.2.4s1.1-.1 1-.6c0-.5-1.2-.5-2.7-.5Zm11.8 11.5c-.2-.3-.7 0-1.6 0 -.8.3-2.2.5-3 .5v0c-.84-.05-1.67-.08-2.5-.1l-1 .2c0 .3 1.3.2 3.2.4 1.8.2 3-.2 4-.3 .8-.1 1.2-.5 1-.7Zm4.9 8.1c-1 .4-1.6.4-2.3.4l-2.4.3s-.8.2-.7.5c.2.3.4 0 1.1-.1h2.5c1.2 0 2-.4 2.7-.6 .8-.1 1.6-.5 1.2-1 -.4-.5-1.2.1-2.1.5Zm9.5 6.2l-2.6 1.9 -1.2.7c-.8.4-.7.6-.6.8 .1.2.6-.3 1-.5 .5-.2 2-1.2 2.7-1.8 .8-.6 1.7-1 1.6-1.5 -.2-.5-.4-.2-1 .4Zm-15.8-79.8l1.8 2.5c1.6 2 .8 0 .4-.5s-2.8-3.9-3.7-4.8c-.8-1-.9-.5-.5.1l2 2.7Zm-3.4 10.5c.2-.2-.3-.5-1.3-1.6v0c-.94-1.2-1.88-2.4-2.8-3.6 0 0-.5-1.1-.7-1 -.1.1.7 1.9 1.4 2.6 .8.8 1.8 2.3 2.3 2.9 .5.6.8 1 1 .7Zm4.5 19.7c0-.6-1.9-.5-2.7-.7l-2.3-.5s-1.8-.3-1.8 0c0 .2.3.4 1.3.6l3.5.8c1.1.1 2 .4 2-.2Zm-4.5-10.7l2.6 1.9c.7.3 1.2.8 1.6.4 .3-.4-.3-.7-1.4-1.1 -1-.5-1.5-1-1.5-1l-1.2-.5c-.5-.3-1.4-.6-.1.3Zm10.5-7l-1.4-1s-1-.8-1-.5c-.3.3 1 1.1 1.5 1.7 .6.5 1.7 2 2.2 1.7 .5-.3-.5-1.2-1.3-1.9Zm-6.9 27.5l-1.7.4c-.6.2-.7.5.5.5s1.7-.3 3-.5c1.1-.3 1.5-.4 1.3-.8 -.2-.4-.8-.2-1.3-.1l-1.8.5Zm1.9 10c-.1.1.8 0 1.4-.3l2.7-1.1c.8-.2.8-.4.8-.8 0-.5-.8-.1-1.8.2 -1 .3-2.2 1.3-2.2 1.3l-1 .6Zm12.8 6c.8-.6 1-1 .7-1.3 -.3-.2-.6-.2-1.3.4l-2 1.5 -1.3.6c-.6.3-1.2.7-1 1 .2.2 1.3 0 1.9-.6 .5-.4 2-1.1 3-1.7Zm6 8c.3-.4 1.4-.8 1.9-1.1 .5-.4.8-1.4.4-1.6 -.4-.1-.6.5-1.5 1.1l-3.7 2.5 -.7.3c-.8.3-.5.6.2.5 .7-.1 1-.1 1.9-.7 .8-.7 1.2-.8 1.5-1Zm9 7.5c.7-.3 1.8-1.3 2.3-1.8 .5-.5 1.2-1.1.8-1.4 -.4-.3-.8 0-1.4.7 -.7.5-2.3 2.2-2.3 2.2l-1.1.8c-.9.7 0 .6.3.3 .4-.3.6-.5 1.3-.8Z"/><path fill="#D4AF3A" d="M232.3 150.9l-2.7 2.2 3.3 1.4 3.6-2.5Z"/><path fill="#B96B29" d="M244.4 148.3a3.4 3.3 0 1 0 0 6.6 3.4 3.3 0 1 0 0-6.6Z"/><g fill="#D4AF3A"><path d="M244.4 148.8a2.1 2 0 1 0 0 4 2.1 2 0 1 0 0-4Z"/><path d="M237.3 140.2c.9.3 2 .2 2 .2s.4-1.6-.5-2.3c-.8-.8-1.6-1.3-2-1.8l-.7-.6v2.1c-.1.8.3 2 1.2 2.4Z"/><path d="M239.1 141.2a.6.6 0 1 0 0 1.2 .6.6 0 1 0 0-1.2Z"/><path d="M234.4 141.2l-.8 1s.7 0 1.2.4c.6.4 1.4.8 2 .7v0c.55-.05.96-.53.91-1.08 -.01-.05-.01-.09-.02-.13 -.2-.5-.5-1-1.6-1.3 -1.1-.4-1.4 0-1.7.4Z"/><path d="M236.8 145.2c-2.1.2-5-2.2-5-2.2 -.3 2-1.4 3-3.3 3.3h.2s1.7 1 3.7 1.2c.9.2 1.7 0 2.7-.2v0c1.11-.16 2.19-.49 3.2-1 1.3-.8.9-2.9.9-2.9s-.2 1.6-2.4 1.8Zm-8.4-2.1c-.9-.4-2.2-1-2.8-1 -.5 0-1.3-.2-1.2.8 .2 1 1.2 1.5 2.2 1.6 1 0 1.6-.4 2.2-.7 .6-.3.5-.4-.4-.7Zm-6.7-3.7c-1-.7-1.9-.9-1.9-.9s-.6 1.7-.2 2.7c.4 1 1 1.3 2 1.3 .9 0 2.3-.5 1.9-1.2v0c-.43-.81-1.05-1.5-1.8-2Z"/><path d="M222.5 143.6a.8.5 0 1 0 0 1 .8.5 0 1 0 0-1Z"/><path d="M224.6 135.8c-.6-2.9-.5-6 2.2-9.9 2.7-4 7.4-5.5 7.4-5.5l1.6-1.9c1.5-1.6 4.5-3.6 4.5-3.6l-5.5 1.5v.1 0c.05 1.32-.98 2.44-2.3 2.49 -.04 0-.07 0-.11 0v0c-.5.01-.99-.13-1.4-.4v0c-2 .77-3.89 1.82-5.6 3.1 .2.4.4.8.4 1.3v-.001c.05 1.32-.98 2.44-2.3 2.5 -.07 0-.14 0-.21-.001 -.4 0-.7-.1-1-.3v0c-.14.16-.28.32-.4.5v0c-.69 1.28-1.26 2.61-1.7 4h-.001c.64.5 1.01 1.28 1 2.1 0 1.4-.9 2.5-2 2.5v0c-.11.52-.11 1.07 0 1.6 0 .8.3 1.3 1.7 1.7 1.4.4 3.3 2.8 3.3 2.8 .1 0 1.1-1.8.4-4.6Z"/><path d="M233.2 117.6c.5-.4.6-1 .2-1.4 -.4-.4-1.2-.3-1.7.1s-.6 1-.2 1.4c.4.4 1.2.3 1.7-.1Zm-9 6.1c.5-.5.6-1.3.2-1.8 -.5-.4-1.3-.4-1.9.2 -.6.5-.7 1.3-.2 1.7 .4.5 1.3.4 1.9 0Z"/><path d="M218.8 130a1.4 1.4 0 1 0 0 2.8 1.4 1.4 0 1 0 0-2.8Z"/><path d="M248.9 112c-.8.2-2.1.6-4.1 1.7 1.4 0 2.5.9 2.5 2s-1.3 2.4-2.6 2.4v0c-1.29 0-2.35-1.02-2.4-2.3 0-.3 0-.6.2-.8l-1.9 1.2c-4.4 3-5.5 4.5-7.7 8.5 -2.2 4.1-3 8.6-2 11.2 1 2.7 4.4 3.2 4.5 3.2 0 0-.4-.4-.5-.9l.3-1.7v-2.2s.8-.1 1.3.4l1.5 1.8 1.7 1.6s.7-1 .7-2.2c0-1.2-.8-2.5-1-4.6 -.1-2 1-5.8 3-8.6l0 0c1.95-2.33 4.32-4.26 7-5.7v0c.82-.33 1.37-1.12 1.4-2l.3-2c0-1.3-1-1.2-2.2-1Z"/><path d="M244.5 116.8c.8 0 1.5-.7 1.5-1.4 0-.6-.6-1.1-1.4-1.1 -.8 0-1.4.5-1.4 1.1 0 .7.5 1.4 1.3 1.4Zm6.6 26c1 .4 2.2.2 2.8-.2 .6-.4.8-1.3 0-1.9h-.001c-.64-.48-1.49-.56-2.2-.2l-2 1.4s.3.5 1.4.9Z"/><path d="M254.5 144c-.4.6-.7 1-1.9 1s-2.5 0-3.2-.8v0c-.53-.57-.96-1.21-1.3-1.9h-1.4s-.4 1.9-1 2.4 -2.7.6-3.6 0c-.9-.8-1.7-1.6-1.9-1.5 -.1.1 0 .8 1 1.6s1.5 1.3 3 1.3h8.5s1.8.1 2.3-1c.5-1 .5-1.6.2-1.9 -.2-.2-.3.2-.7.8Z"/><path d="M241.5 142.6c1.3.7 2 .2 2.5-.3l.5-.9s-1.2-.4-1.8-.8c-.5-.3-1-.6-1.5-.6l-.7.2s-.2 1.6 1 2.4Z"/></g><g fill="#B96B29"><path d="M235.4 127.2a2.8 2.8 0 1 0 0 5.6 2.8 2.8 0 1 0 0-5.6Z"/><path d="M240.3 120.2c-1.1-.7-2.8-.4-3.7.7 -1 1.2-.8 2.7.4 3.5 1.1.7 2.8.4 3.7-.7 1-1.2.7-2.7-.4-3.5Z"/></g><g fill="#D4AF3A"><path d="M235.3 128a1.6 1.6 0 1 0 0 3.2 1.6 1.6 0 1 0 0-3.2Z"/><path d="M239.1 120.5c-.7-.2-1.6.2-2 .8 -.4.7 0 1.4 1 1.6 1.8.3 2.6-2 1-2.4Zm-43.4 219.8s-4.3 2-5.7 2.4l-1.8.4s-3 2.7-5.1 4v0c-2.32 1.42-4.91 2.34-7.6 2.7 -3.5.3-12.9.2-17.1 0 -4.2 0-6.8 1-8.7 3 -1.8 2-2.2 5 0 7.2 2.4 2.3 5 1.1 5.8-.2 .9-1.4.4-3.2 0-4 -.3-.8.8-1 2-1.1v0c3.94-.06 7.84.79 11.4 2.5 1.4.7.6.8-.4.6v-.001c-1.27-.29-2.51-.69-3.7-1.2v0c-1.38-.55-2.83-.89-4.3-1 -1 0-.7.6-.4 1l1 1.7 -.4 2 .5 1 .9-1.5c.2-.6 0-1.6.2-2 .2-.6 1-.6 1.8.2h0c.97 1.05 1.6 2.37 1.8 3.8 .4 2-.3 3.5-.3 3.5s.9.7 1 1.2c.2.5-.2 2.4-.2 2.4s.6.4 1.2-.7v0c.53-1.24.96-2.51 1.3-3.8 .2-.7.6-2 1.5-1v0c.7.78 1.25 1.7 1.6 2.7l.2 1s1.9-1.8 2.5-2.9v0c1.03-1.6 2.31-3.02 3.8-4.2 1.8-1.5 5-4.5 6.5-5.5l6.8-4c1.2-.7 1.4-.7 1.6-2.8 .3-2.1 1.3-4 1.8-5.4l.5-2Zm-70.1-78.7c0-.3-.8-1.6-1-2.2 -.1-.7-.8-.3-.8-.3s-1.4.8-2.4 1.1c-1 .3-1.2-.1-1.3-.6l-.5-3.4c-.2-1.2-.4-1.1-.9-1l-2.6 1c-.9.5-.6.9-.3 1.4l1.8 3.4c.5.7 0 1-.5 1.3l-2.4.7c-1 .4-1 .6-.9 1l1.2 2.5c.4.6.8.2.8.2s1.1-1 2-1.5c1-.5 1.1-.3 1.4.4l1.5 5.2c.2.7.6.6 1.1.4l1.8-.5c.5-.2.7-1.3.7-1.3l-2.6-4.8c-.6-1 0-1.2.4-1.2l2.7-.5c1-.3.8-1 .8-1.3Zm23.8 103c-.2-.9 0-1.8-.7-2.5v0c-.9-.91-1.58-2-2-3.2 -.2-1.1.4-1.7.3-2.3 -.1-.7-1-.7-1.9 0 -.8.7-2 1.4-2 3.4s.8 4.5 3.6 5.3c2.9.9 2.8.3 2.7-.7Zm2.8-1s-.5-.3-.8.2c-.3.5-.2.8.5 2s1.2 1.5 2.1 2c.9.5.3-.5.2-.9 -.1-.3 0-.7-.3-1 -.2-.2-.3-.6-.3-1.4 0-.8-1.4-.8-1.4-.8Z"/><path d="M155.7 373.3c.6-.8 1-1 2.3-1.6 1.3-.6 3.7-.9 4.5-1 .8 0 2.6-1.6 2.3-3.2 -.3-1.6-1.4-2.2-2.5-2.4 -1-.3-1.9-.3-2.2.2v0c-.48.71-1.19 1.23-2 1.5 -1.2.4-1.3.8-2 1 -.7.2-.2.6-.8 1.1 -.6.5-1.4 0-2.3-.2 -.9-.3-1-.5-2-.5l-3.6-.2h-.7c-.6 0-.7 0-1 .7 -.2.6.1 2.2.8 3 .6.8 2.7 1.2 4 1.6v0c1.07.34 2.18.61 3.3.8 1.3.2 1.4 0 2-.8Zm13 1.3c1.1-.7.5-2 .2-2.8 -.2-.8-1.8-1-2.6-1s-1.2 0-1.7.4c-.4.3-1 .9-2.1 1.3 -1.2.3-2.1.8-3.7 1.4 -1.6.6-2.1 1.7-2.8 2.2 -.7.4-2 0-2 0s-1-.3-1.3 0c-.3.2 0 .8.6 1.5s1.9.6 3.3 1c1.4.5 1.6.1 2.2-.2 .5-.4 1-1.2 1.9-1.8 1-.6 3-.7 4-.8 1.1-.1 3-.4 4-1.2Zm0-4.9c.5.5 1 1 1.5.3 .4-.7 1-2.1.6-3l-1-1.6 -1.2 3.1c-.4.7-.3.8.1 1.2Zm-4.3-7.4c0-1.4-1-3-1-3s-.3 1.2-.9 2.3v0c-.33.61-.73 1.18-1.2 1.7l2 .4c.5 0 1.1 0 1.1-1.4Zm-8 3c1.5-.3 2.3-1 3-1.5 .5-.5 1-2 .5-2.7 -.4-.8-1.5-1.6-2-1.6h-.7s-.5 1.4-1 2.1c-.6.7-1.3 1.2-1.3 2.1 0 1 0 1.9 1.5 1.6Zm3-6.8c0-.7-.2-1.5-.7-2l-.8-.8 -.2 1.7 -.2.7 .8.6c.4.1 1 .5 1-.2ZM141 320.4l1-6.3c-.7-6.3-4-12.3-6.6-16.5h0c-2.62-4.45-4.8-9.14-6.5-14v0c-1.16-3.46-1.83-7.06-2-10.7 0-2.5 1-3.8 1-3.8s.5-.6 0-1c-.3-.5-1 0-1.7.6h0c-.72.81-1.27 1.76-1.6 2.8l-.3 1.2s-1.4-.3-3.5-.2c-2.2.2-3.2.4-3.3.8 0 .5.3.9 1.9 1.5 1.6.6 2.5 1 3.3 2 .8.8 2.8 5.5 3.4 7.7h0c1.06 4.28 1.86 8.62 2.4 13h-.001c.67 5.29 2.15 10.45 4.4 15.3 .7 1.6 4.7 9.1 8.1 7.6Zm4 11.1c-1.5.8-1.5 6.8-.8 10 .6 3 3.7 6.9 4.6 8 1 1 1.1 1 1.6.7l.7-.3s1.3-.4 2.3-1.2c1-.7.6-2.6.4-4.3 -.1-1.7-1.4-5-3.8-9s-3.6-4.7-5-3.9Zm1.5-4.8c0-2-1.7-3.4-3.6-3.4 -1 0-1.7.2-2.2.6 -2 1.8-.8 6.3 2 6.3 1 0 2.3-.2 3-1 .7-.5.9-1.6.9-2.5Zm28.3 56.2v0c-2.29-.89-4.27-2.42-5.7-4.4 -.3-.8-.3-.8-1.4-.5 -1 .4-2.7.4-3.8.4 -1.2 0 .1 1.4 1 2.6 .7 1.3.5 5.4.5 5.4l-.2 1c-.2.6 0 1 .3 1.2 .3.1.5-.2 1.3-1.1 .8-1 2.3-3.5 2.3-3.5l1.6.3c1.3.3 3.3.2 4.4-.1 1-.4.5-1.1-.2-1.3Z"/><path d="M169.8 386.1c-.5 0-.8-.1-1 .3 -.3.3-.5 1-.7 1.4 -.1.4 0 .7.3 1l.7.6s.5.5 1 .7c.4.2.5-.5.5-1l.3-2c0-.6-.5-.9-1-1Z"/></g><path fill="#1D5E91" d="M378.6 345.8c-1.4-.3-2-.9-2-.9s-.5 0-1 .8c-.4.8-2.1 2-2.1 2s-2.4.6-2.8 2.2c-.3 1.7.9 2.3 2 2 1.2-.1 4-.7 5.2-2.2 1.2-1.4 1.4-2.3 1.7-2.8 .2-.6.3-.8-1-1.1Zm3.8-13.2c-1-3.7-3.3-8.3-7.9-10.6l-2.2 8c-.5 2-.5 1.9 1 2.2l7 1.7c1 .3 2.6 1 2-1.4Zm-22-3.5c1.2.2 1-.2 1.4-1.7l2.3-8.7s-4.8-.2-9 1.8c-4.3 2-6.1 5.8-6.1 5.8s1 .5 4 1.1l7.5 1.7Zm-11.2 10l-2.3-.5s1 4.2 2.8 6.5c1.8 2.3 3.8 3.4 7.5 3.5 3.7 0 6.5-2 7-3.6l0 0c.27-.99.67-1.93 1.2-2.8 0 0-6.7-.9-9.5-1.5 -2.7-.7-5-1.3-6.7-1.6Z"/><g fill="#D4AF3A"><path d="M348 336.5l16.5 3.3c1.2.2 2.1.5 2.5.2 .3-.4.5-.6 1.7-1 1.2-.5 1.1-1.7 1.1-1.7l.5-2.3c0-1.2.7-1.5 2 0 1.4 1.3 1.7 3.4 2 5.3 .2 2 3.3 2.5 4.5 2.7 1.3.2 1.8-.2 2.5-1.3h0c.7-1.59 1.14-3.28 1.3-5 .2-1.4 0-1.3-1.5-1.7l-9.9-2.3c-1.2-.3-1-1.1-.8-2l3-9.9v0c-2.51-1.35-5.27-2.16-8.1-2.4 0 0-2 9.2-2.5 10.6 -.4 1.4-1.3 1.4-2.7 1.2h-.001c-4.01-.9-8.01-1.83-12-2.8l-1 2h0c-.69 1.78-1.07 3.68-1.1 5.6 0 1.2.4 1.2 2 1.5Z"/><path d="M384.3 344.8c-1.4-.9-2.4-1.2-3.2.6 -.7 1.7-.8 4.2-2.6 6 -1.8 1.7-4.4 3.6-7 3.4 -2.5-.2-4-.8-3.4-3.7 .6-3 4.5-3.9 5.5-5.4v0c.95-1.46.65-3.41-.7-4.5 -1.4-1.2-3.3-1.4-3.9-1h0c-1.33.98-2.34 2.34-2.9 3.9 -.8 2.2-1.3 4-3 5.4v0c-2.79 1.86-6.2 2.58-9.5 2 -3.4-.8-4.7-1.8-6-5.2 -1.2-3.4-2.7-9-3.4-9.6 -.7-.6-1.6-1-3 0 -1.5 1-1.6 2.6-1.8 3.8 -.2 1.2 0 2.6 1.5 4.4 1.4 1.8 3 3.5 3.5 5.4 .6 1.8 2.2 4.6-.1 4.7 -2.3.1-3.4.2-5.1-1.5 -1.8-1.7-8.7-6.4-10.6-8l-2.7-2c-3.2 0-6.4-1.3-9.6-3.5 0 0 1.9 4.7 2.2 6.5 .4 1.7.3 2.7.3 2.7l9.7 5v0c3.73 1.86 7.4 3.87 11 6 2.7 1.8 5 4.3 9.7 3.3 4.8-1 14.5-3.9 17.6-4.8 3.1-1 11.7-3 14.9-5.3 3.2-2.2 3.5-2 4-4.2 .6-2.2 0-3.4-1.4-4.3Zm-18.4-33l2.4-.3c1.6-.2 1 1.4.7 2 -.2.6-.7 1.8-1.4 2.9 -.7 1.1.2 1.3.7 1.5l2.4.6c1.3.3 1-.6 1.1-1.1 0-.5.1-3 .3-4 0-1 1-.7 1.3-.5l1.8 1c.6.3 1 0 1-.4l.8-2.2c.3-1-.3-.8-1-.8h-2.6c-1 0-.4-1-.4-1l1.4-2.3c.6-1 .4-1.1-.2-1.3l-3-.7c-.5-.2-.8 0-.8.3v2.9c0 .7-.1 1.1-1 1.1 -1 0-1.5-.5-2.3-1.3 -.7-.8-1-.5-1.1-.2l-.8 3.3c-.2.7.2.6.7.5Zm5.2 23.3s-.1 1.8-.3 2.4c-.2.7-.6 1.6.1 1.9 .8.3 1.5.6 2 .4 .4 0 .2-1 0-1.7h-.001c-.27-.88-.71-1.7-1.3-2.4l-.5-.6Zm11.2 7.3c.2.6.8.8 1.1.9 .4.1 1 .1 1-.6s0-1.6-.5-2.4c-.6-.7-.9-1.3-1.2-.2 -.4 1.2-.7 1.8-.4 2.3Zm-39.1-7.4l1.5.4s0-1.7.3-3c.2-1.2.7-2 .3-2 -.5 0-.7.4-1 .9 -.4.5-1.3.6-1.6 2.1 -.3 1.4.2 1.5.5 1.6Z"/></g><g fill="#B96B29"><path d="M350.8 329.4a2.5 2.5 0 1 0 0 5 2.5 2.5 0 1 0 0-5Z"/><path d="M357.8 331.1a2.5 2.5 0 1 0 0 5 2.5 2.5 0 1 0 0-5Z"/><path d="M378.3 335.5a2.5 2.5 0 1 0 0 5 2.5 2.5 0 1 0 0-5Z"/><path d="M364.9 332.8a2.5 2.5 0 1 0 0 5 2.5 2.5 0 1 0 0-5Z"/><path d="M366.7 326.7a2.5 2.5 0 1 0 0 5 2.5 2.5 0 1 0 0-5Z"/><path d="M368.5 320.6a2.5 2.5 0 1 0 0 5 2.5 2.5 0 1 0 0-5Z"/></g><g fill="#D4AF3A"><path d="M351 330.5a1.2 1.2 0 1 0 0 2.4 1.2 1.2 0 1 0 0-2.4Z"/><path d="M358 332.1a1.3 1.3 0 1 0 0 2.6 1.3 1.3 0 1 0 0-2.6Z"/><path d="M378.5 336.4a1.3 1.3 0 1 0 0 2.6 1.3 1.3 0 1 0 0-2.6Z"/><path d="M365.1 333.8a1.3 1.3 0 1 0 0 2.6 1.3 1.3 0 1 0 0-2.6Z"/><path d="M366.9 327.6a1.3 1.3 0 1 0 0 2.6 1.3 1.3 0 1 0 0-2.6Z"/><path d="M368.7 321.5a1.3 1.3 0 1 0 0 2.6 1.3 1.3 0 1 0 0-2.6Z"/><path d="M287.5 383c-1.4-.8-2.5-1.7-5.6-3.8 -3-2-4.1-4.2-4.1-4.2h1c.6 0 1.1-.8 1.2-1.7 0-.8 0-2.4-.3-4.4 -.2-2 .3-3.5.3-3.5s1.3 1.2 3.3 2.3c2 1 2.8.5 2.8.5l.5-2 2 4c1.3 2 4.5 4.4 6.9 6.2 2.3 1.7 4.9 3.6 6.8 4.2 2 .7.8 1.6.8 1.6s-2 2-6.9 2.8c-5 1-7.4-1-8.7-2Z"/><path d="M270 381.1c1.8-.2 3-.8 3.3-2.8 .2-1.2-.1-6-.1-6l1.2 1.2c.7.9 2.2 1 2.2 1s.2.7 1 1.8v0c.77 1.4 1.86 2.6 3.2 3.5v0c1.72 1.03 3.39 2.17 5 3.4v0c1.39 1.23 2.9 2.34 4.5 3.3v0c1.93 1.03 3.32 2.85 3.8 5 .6 2.5.1 3.3-1.9 3.2 -2-.2-2.1 0-5.3-.8 -3.2-.8-7.8-4.4-11-6.5 -3.4-2-5.8-6.3-5.8-6.3Z"/><path d="M261.2 384s1.4-1.7 1.9-3.6l1.4-5.8 1.5 3.5c1.1 2.3 3 2.9 3 2.9s0 1 1.6 2.9v0c1.69 2 3.72 3.69 6 5 2.3 1.4 5.3 3.3 6.9 5.6 1.6 2.3 1.8 4.7 1 5.7s-1.8-.2-3.4-1c-1.5-.7-5.9-1.4-11.9-4.6 -6-3.2-8-10.6-8-10.6Z"/><path d="M258.6 397.5c-1.6-2.5-1.9-8.5-1.9-8.5l1.4-1c.8-.8 2.4-3.1 2.4-3.1l2 4c1.1 1.9 1.6 2.6 3.9 4.6 2.2 2.1 5.3 4.1 6.6 6.3 1.3 2.3.6 6.7-.3 8.1 -.8 1.5-2 1-3.3-.2l-3.8-3.4c-2.3-1.9-5.3-4.3-7-6.8Z"/></g><path fill="#B96B29" d="M278.4 347c-1-1.8-1.9-4-2.7-5v0c-.55-.79-1.01-1.63-1.4-2.5 0 0 2.2 2 3 3.4h0c.81 1.29 1.41 2.71 1.8 4.2 .3 1.5.2 1.7-.7 0Zm-8.5 1.6v0c-.22-.67-.42-1.33-.6-2 0 0-.3-1.2-.1-1.3 .2 0 1 .8 1.7 2.7 .6 2 1.5 4.8 1.3 5 -.2 0-2-3.2-2.3-4.4ZM263 354l-.4-1s-.6-2.1-.6-2.6 .2-1 .7.2c.6 1.1.7 2.2.8 2.7 .1.5.8 2.2.6 2.4 -.2.1-.7-.9-1-1.7Zm20.9 20.4l.9-.5 1.3 1.5c.8.8 1.6 1.2 2.2 2h0c.77 1 1.76 1.82 2.9 2.4 1.4.7 1.9 1 1.6 1.1 -.2.3-1.2-.3-1.2-.3s-.4 0-2-1 -2.1-1.6-3.2-2.5l-2.5-2.7Zm-7.3 8.7c-.6-.7-1.3-1.2-1-1.5 .4-.4.9-.4 1.5.1l3 2.8c.7.7 1.4 1 2.1 1.7 .8.6 2.4 1.5 3.2 1.9 .9.5.1.5.1.5l-1.3-.5 -2.6-1.1 -1.8-1.1v0c-1.15-.85-2.22-1.79-3.2-2.8Zm-8.4 5.8c-.5-1.1 0-.8 1-.4 .9.3 2.9 2.5 4 3.3 1.2.8 2.2 1.2 3.2 1.7s1 .7 1 1c-.1.2-.5.2-1 0l-1.7-1 -1.1-.2c-.6 0-1.3-.7-2.6-1.7 -1.2-1-2.2-1.7-2.8-2.7Zm-3.9 7.7c1.5.9 4 2.9 4.7 4.2 .7 1.4 1.2 2.3 1 2.6 -.3.2-1-.3-1.3-.8 -.3-.6-1-1.4-1-1.4s-2.6-2.5-3.5-3v0c-1.2-.86-2.16-1.99-2.8-3.3 -.4-1-.1-1.5-.1-1.5s1.6 2.3 3 3.2Z"/><path fill="#C52126" d="M304 181.3v0c5.83-3.17 12.72-3.76 19-1.6 2.3.6 4.1.7 6 .2v0c2.91-.87 5.08-3.31 5.6-6.3 0 0 2.6 3.3 0 6.8v-.001c-1.08 1.6-2.72 2.74-4.6 3.2 -5.4 1-10.8-2.3-15.3-2.6 -4.3-.2-7.7 2.5-7.7 2.5s-1 .9-2.5 0c-1.5-.8-1.9-1.5-.5-2.3Z"/><g fill="#D4AF3A"><path d="M319.6 338.7l1.3-.2c.8-.1 2.4-.6 2.8-.9 .5-.2 1.3-.2 1.7.3 .5.5 4.4 2.9 4.4 2.9h-6.4c-2.3 0-3.8-2.2-3.8-2.2Z"/><path d="M301.4 337.6v-.7l.9-1.8s1 .6 2 1.6c1.2 1.3 2.6 3.2 3.2 4 1 1.3 2.6 2.6 1.3.4s-1.7-3.2-2.8-4.6c-1-1.5-1.8-2.1-1.7-2.2l3.7-.6c2.7-.3 4.4-1.4 5.6-2.1l3.5-2s4.6 2 6.4 2.4c1.7.5 2.7.7 1 1.5 -1.6.9-3 1.1-3.9 1.6h0c-1.51.84-3.18 1.32-4.9 1.4 -1.5 0-4.2 0-3.1 1 1 1.2 2.2 3.3 3.3 6.4v0c.82 2.37 1.23 4.88 1.2 7.4l-.2 2.7s-2-2.1-7-5.3c-5-3.2-7-4.3-8-4.7 -.9-.4-1.4-.4-1.2-1.6l.7-4.8Z"/><path d="M282 322.1l1-.4h.2c.6.4 3.7 2.4 5 4.5 1.2 2 2.4 2.2 1 0v0c-.92-1.63-2.06-3.11-3.4-4.4v0c-.36-.35-.73-.68-1.1-1 2.5-1.2 5.2-2.6 7.8-4.5 .4.7 1 2 1.8 2.7 1 1.1 3.4 2.1 3.4 2.1s-1.9-2-2.5-3.5c-.5-1-.7-2-.9-2.6l0-.001c1.9-1.45 3.64-3.09 5.2-4.9v0c.8 2.94 2.31 5.65 4.4 7.9 4 4.5 12 6.7 12 6.7s2.8.3.5 1c-2.3.5-3.9 1.5-8.3.8 -4.4-.8-4.7-1-5.3-1.2 -.6-.1-2.2 0 0 .8s7.3 1.6 9.3 1.4c2-.1 4.7-.6 1.8 1 -2.8 1.4-4 2-5.7 2 -1.7 0-2.4.6-4.1.6 -1.7 0-2.1-.3-3.3-.6 -1.2-.2-2 .2-2 .7 0 .5 1.6 1.8 1.5 5v0c.04 2.14-.16 4.29-.6 6.4 -.3 1-1 2.5-1.5 3.4 -.4 1-.6 1.8-1 0 -.6-2-1.6-4.7-2-6.6 -.5-1.8-.7-1.9-.9-2.9 -.2-.9-1.2-1.6-.7.1l1.4 5.5c.3 1.5 1.2 4.4-.3 2.1 -1.4-2.2-6.8-8.3-7.7-9.3 -.9-1-1.6-2.1-2.2-3 -.7-.9-2.5-2-3.4-3.4v0c-1.26-1.57-2.67-3.01-4.2-4.3l4.8-2.1Zm74.2-137.7c-.2 3.3-3.8 9.6-5.9 13 -2 3.3-2.6 4.6-2.3 4.8 .4.3 1.2-1.5 2.4-3s3.3-5 5.2-7.6c1.8-2.6 4.5-9 5-9.5 .3-.6.4-1 1.3-.2 1 .7 2.8 7.6.6 12.3 -2.1 4.8-5.3 8.2-6.7 9.8 -1.4 1.7-3.1 4.2-2.9 4.5 .3.2.8-.5 2.5-2.2l-.001-.001c2.1-2.21 4.13-4.48 6.1-6.8 1.4-1.7 3.4-5.2 4.1-6.5 .3-.5.6-.4.8-.1 .7.6 1.6 2 1.2 5.7 -.6 5.2-3.3 8.2-5.7 10.9 -2.5 2.6-4.9 4.8-4.5 5.2 .3.3 2.8-1.9 4.5-3.5 1.8-1.7 6-5.7 6.9-6.9 1-1.1 2.3-.6 2.2 4 0 4.4-5 9-7.1 11.5 -2.1 2.5-4.7 4-4.5 4.5 .3.5 2.3-.8 3.7-1.7 1.3-1 6.4-4.2 7.4-5 1-.6 1.5.7.2 5s-5 7.7-7.2 9.3c-2.2 1.6-5.8 3.5-5.6 4 .3.5 1.7-.1 3.8-1.1 2-1 4.6-2 6.4-2.5 1.8-.5 1.8.8 1.8.8s.3 3.7-2.3 6.6v0c-2.21 2.48-5.22 4.1-8.5 4.6 -2.9.5-3.3.6-3.2 1 0 .5.3.5 1 .5 .6 0 3.3.3 5.7.3 2.4 0 3.7.6 3.7 1.7 0 1 0 2.5-3.6 4.9 -3.6 2.4-7.7 2.8-9.4 3.1 -1.7.4-1.8.5-1.4 1 .3.5 1.1.5 3.8.8 2.7.2 4.4 1.3 4.7 2 .4.8-.2 2.9-2.4 4.4 -2.2 1.5-5 2-9.3 1.7 -4.3-.3-5.4-.3-5.5.4 -.2.7 1.3.9 3.4 1.3 2.1.3 3.8.3 5 1.3 1.2 1 .3 3-1.8 4.6 -2 1.5-7.2 1.5-9.3 1.3 -2.2-.1-5.5-.9-5.7-.3 -.2.6 1.6 1.4 3.8 2.2 2.2.8 2.8 1.3 3.3 2.2 .4 1 0 1.8-2.6 2.8 -2.6 1-6.5 1-8.5 0 -2-.8-3-1.2-3.4-.8 -.4.3 0 .7.4 1.2s2.2 1.8 4.4 2.4c2.2.6 2.4.6 3.2 2.4 .8 1.8-1.2 3.2-5.2 3.3v0c-3.81.04-7.57-.78-11-2.4 -1.8-1-2.4-1.2-2.7-.9 -.3.4-.2.6.6 1.2 .9.7 3.6 2.6 5 3 1.3.3 1.4 1.3 1.4 2.3 0 .9.4 2.8-3.2 3.6 -3.6.9-7.8.2-11.6-2.5h0c-.93-.58-1.75-1.33-2.4-2.2 .3-3.7.2-6.2-.3-8.5 .8 0 2.2-.3 3.7-.9 2.1-.8 3-2.8 3.5-4 .5-1 1.2-1 2-.7 1 .3 1.8.7 3 .6v0c2.18-.23 4.19-1.31 5.6-3 1.9-2.2 1.5-4.3 1.6-5.4 0-1 1.8-.3 2.6-.3 .9 0 3.4-.3 5.7-1.9 2.3-1.6 2.3-3.7 2.5-4.6 .2-.8 1.1-1.4 1.8-1.7 .7-.3 1.9-.6 3.4-1.8 1.6-1.3 2.2-3.8 2.3-4.7 0-.8 1-1 4.2-2.6s2.9-5 2.8-6.4c-.2-1.4-1.7-2.5-1.7-3s1-.6 2.2-1.3c1-.6 3.7-1.7 3.8-5.7 0-4-2.6-4.4-2.6-4.4l1.6-.9c1.1-.6 4-2.6 4-5s-1-3.4-1.8-4c-.8-.6-3-1.1-3-1.1s1.4-1 2-2.8c.5-1.8.7-4.1-.6-5.8 -1.4-1.6-3.6-1.6-4.9-1.6 -1.3 0-2.2.7-2.7.3 -.4-.4-.5-.6 0-1.6s.5-3.2 0-4c-.3-.8-.3-2.3-3.4-3.3 -3-1-6.3 1-7.3 1.6 -1 .6-.6-.8-.6-1.8s2.1-3.5 4.5-7v0c4.99-7.69 8.61-16.18 10.7-25.1 .4-1.8 1.1-1 1.1-1s.7.3 2.4 4.5h-.001c1.39 3.56 2 7.38 1.8 11.2Z"/><path d="M302.3 257.5v0c2.48-.27 4.7-1.67 6-3.8 2-2.7 4.7-3.3 9.5-3.2 4.7 0 7-2.2 8.1-5.5 1.2-3.4-.1-7.1-5-9.5 -4.9-2.4-7.1-5.1-7.3-9.2 -.2-4.2 4.9-9.3 10-15.1 5-5.8 9-14 9-14s1.4 1.9 1.4 3.8c0 2-.7 4 0 4.5 .8.6 1-.8 4-2 3-1.4 5.3-1.5 7.2.6 1.9 2.1 0 5.8-1.7 7.5 -1.7 1.8-3 3-2.6 3.7 .5.7 3-1 3.8-1.6 .8-.5 2.8-2.6 5.6-2.4 2.9.3 3.9 1.1 4.1 3.5 .3 2.4-2.5 4.6-4.4 5.5 -1.8.9-2.5 1.7-2 2 .4.5.8 0 1.7-.2 .8-.3 3-.5 4.6 0 1.4.6 3.8 2.6 1.6 5 -2.2 2.6-6.8 3.5-7.7 3.7 -1 .2-1.4-.1-1.5.6 0 .8 2 .8 4.4.9 2.5 0 3.2 2.4 2.9 4.3 -.4 1.8-4.5 3.8-6.8 4.2 -2.3.4-3.1 0-3.3.7 -.2.6.2.9 1.5 1.2 1.3.3 3.8.7 4.3 2.7 .4 2 .5 3-1.4 4.7 -2 1.8-5 1.5-6 1.3 -1-.2-2-1.2-3-.3 -.9 1 .9 1.7 2.5 2.8 1.5 1 1.4 3.2-1.2 4.7v0c-2.01 1.05-4.36 1.23-6.5.5 -1-.3-2.6-2-3.3-1 -.7 1.1 2.3 1.5 3.6 3 1.3 1.6.8 4.2-1.8 5.8 -2.5 1.5-6.8.4-7.5-.2 -.7-.7-1.6-1-2.2-.4 -.5.6.3 2 .8 3.3 .6 1.3 1.6 5-2.3 6.6 -3.8 1.4-7.3-1.9-8-2.5 -.6-.7-1.3-.8-1.8-.5 -.6.3-.3.8.2 1.5h0c1.08 1.82.5 4.18-1.3 5.3v0c-1.48.96-3.27 1.32-5 1 -.6-2.1-1.4-4.4-2.1-7.6h.5c.4 0 .5.5.5.7 0 .3-.1.4.2.4 .3 0 .4.2.8.6 .5.3 1 .7 1.2.5 .3-.2-1-.8-1.3-1.2 -.3-.4-1-1-1-1.5s-.3-.7-1-1.3v0c-.16-.15-.29-.32-.4-.5h0c-.53-2.55-.97-5.12-1.3-7.7h-.001c-.27-1.96-.43-3.93-.5-5.9h1.2ZM381 200c-4.1 8.3-10 13-10 13l1.2-3.5c.3-1.4 0-3 0-3l4.2-6c2.7-4.2 4.1-10.3 4.1-10.3s-2.5 6.1-4.4 9.3c-2 3.3-4.2 6-4.2 6s-.8-3-1.4-3c-.5-.2-1 .2-1.4.9 -.5.6-1 .5-1 .5l1.8-3 1.6-2.3c1.5-2.4 4.8-7 6.5-11.6 1.7-4.6 5.4-16.1 6-19.5 .7-3.4 1.3-1.6 2 1v0c1.02 3.67 1.36 7.5 1 11.3v0c-.73 7.04-2.77 13.89-6 20.2Zm-5.3 22.4l-3.8 2.7 .6-1.9 .3-3 3-2.7c1.3-1.1 2.9-2.5 6-6.4 3.1-3.8.6-1.5-2 1.3l-.001-.001c-2.32 2.39-4.76 4.66-7.3 6.8v-1 0c-.04-.74-.32-1.45-.8-2 -.5-.6-.2-.6 2.5-2.7v0c8.09-7.2 14.48-16.12 18.7-26.1 0 0 1.6 9.5-4.2 20 -5.8 10.5-11.5 13.9-13 15Zm-30.5 60c-3.1-1.2-2.3-4.3-2.3-4.4l3.8 1.3c1.8.7 6.2 2 8 2 1.7 0 1.7-.2 1.7-.4 0-.3-1.3 0-3.8-.5s-7-2.8-7.7-3.3c-.8-.5-.7-.6.4-.7 1.2-.1 2.1-.6 2.5-1 .5-.3 1.6.2 4.5.9v0c7.51 1.93 15.36 2.2 23 .8 .6-.2 1.4.2-.8 3.9 -2.2 3.7-10 5.7-15.3 5.6 -5.4 0-10.8-3-14-4.1Zm14.3-7.6c-5.5 0-7.6-1.6-7.6-1.6s0-.3.8-1.4c.8-1.1.6-3 .6-3l3.6.5c2.3.4 5 .7 8 .2 3-.5 1.7-.9-.7-.6 -2.4.3-6.9-.6-8.3-1 -1.5-.6-.9-1 .1-1.4 1-.3 3.7-2 3.7-2s6.7.8 13 .1c6.2-.7 10.2-2.3 11.5-2.5 1.2-.2 1.2.3 1.2.3s.3.6-1.8 4v0c-2.49 3.27-6.02 5.6-10 6.6v0c-4.57 1.21-9.28 1.81-14 1.8Zm1.5-13l.5-1.4c.4-1.2-.6-2-.6-2s1.3-.4 5.4-1c4.2-.4 4.4-.8 7-1.3 2.5-.6 4.2-1.3 4.1-1.6 0-.3-.8.1-2.3.7 -1.5.5-7.9 1.2-10.6 1.6 -2.6.4-4.1.6-4.6.4 -.5-.3-2.1-.7-2.1-.7l2.5-.6v0c1.21-.23 2.37-.71 3.4-1.4 .8-.5 1-.6 4.4-1 3.4-.4 6.1-1.5 12.2-3.7 6-2.2 10.6-4.8 11.9-5.8 1.2-1 1.1-.3.8 1 -.4 1.2-.3 2.8-3.4 6.4 -3 3.6-4.5 5.1-12.3 8 -7.8 2.9-16.3 2.4-16.3 2.4Zm22.8-18.8v0c-4.97 3.38-10.59 5.7-16.5 6.8 -.4-.4.4-2 0-3 -.4-1.2-1.1-1.2-2.8-1.3 -1.6 0-.6-.4-.2-.4 .4 0 .5 0 3.2-.8 2.7-.7 5.5-1 9.3-2.5 3.7-1.4 4.9-2.5 4.8-2.7 -.1-.3-1.8.9-5.2 2.2 -3.5 1.3-7.6 1.8-9.8 2.3 -2.2.5-.3-.5.8-1.1 1-.6 2.5-2.9 2.5-2.9s2.4-.4 6.4-1.6c4-1.2 7.3-2.6 10.7-4.5 1.1-.6 2.3-1.5 3.4-2.3l5.5-4c1.4-1 1-.2.8.4 -.1.6-1 3.5-3.2 6.6 -2.2 3-2.9 4-9.7 8.8Zm1.1-13.5c-6.7 5.3-12.5 7-13.5 7.4 -1 .4-.9-.1-.7-.7 .2-.6.3-2.4.3-2.4l5.1-3c2.7-1.5 5.7-3.6 7.6-5 2-1.3.8-1.2.2-.7 -.6.5-3.3 2-6 3.8l-7 4.1s0-.9-.6-1.4c-.5-.6-2-.4-2-.4l1.2-1.4c.4-.7 2.6-1.4 5.1-2.6v0c3.66-2.05 7.11-4.46 10.3-7.2 3.3-2.8 9.7-9.8 10-10.3 .5-.6.8-.5.8.2s.3 1.2-.4 4.4 -3.7 9.9-10.4 15.2ZM361 179.3l-2.2 3.8c-1 1.5-1.4 2.5-1.4 2.5s-.2-.5 0-1.5c0-.9.2-2.2 0-3.7l-.3-2.4c0-.9.3-1.6.5-2l1.6-7.7c.5-2.7 1-6.7 1-10.2 0-3.5-.6-1.7-.6 0s-.2 4.3-.7 8.3c-.5 4-2.2 10-2.2 10s-.1-.9-.7-2.2c-.5-1.4-1.3-2.9-2-4.5s-.4-2-.4-2 2.4-11.3 3-16.6c.6-5.3 1.6-19.4 1.6-19.4 3.5 3.5 6 12.6 6.5 21.3 .4 6.5-.7 12.5-1 15 -.6 4.8-1.4 8.6-2.7 11.3Zm7.7 17.8c-.1-2.6-.7-4.5-2.4-5 0 0 1.5-2.6 2.7-6.3v0c.99-2.65 1.66-5.4 2-8.2 1-6 1.6-12.3-.2-2v0c-.58 4.78-1.93 9.44-4 13.8l-2.6 4.3c.4-2 .5-3.2.4-5.3l-.001-.001c-.09-2.37-.43-4.71-1-7 0 0 3.2-6.3 5.2-13.9v0c2.24-7.84 3.39-15.95 3.4-24.1 0 0 3.2 2.4 4.3 14.8l0-.001c.64 9.75-.65 19.54-3.8 28.8 -1.6 4.5-4 10-4 10Zm-35.5 94.5l2-1.3c1.6-1 1.1-4 1.1-4v0c1.78 1.2 3.62 2.34 5.5 3.4l3.3 1.3c1 .3.7 0-.1-.5 -.8-.5-1-.8-3.1-1.6 -2-.8-6.2-4.4-6.2-4.4l2.7-.1c1.7-.1 3.8-1 3.8-1s1.7 1.6 8.5 4.5c6.9 3 12.7 3.7 12.7 3.7s-.8 3.5-4 4.7c-2.8 1.1-6.5 1.9-13.8.1h-.001c-4.35-1-8.52-2.62-12.4-4.8Zm-9 7c-.5-2.9 1.1-4.9 1.1-4.9l1.4 1.1c1 1 2.5 2.7 5.4 4.1 2.8 1.5 3.9 1.4 1.1-.1s-6.8-5.7-6.8-5.7l1-.4c1.1-.4 3 .3 10.7 4.9l-.001 0c3.64 2.51 7.82 4.15 12.2 4.8 0 0-3.5 4.1-12.8 3.8 -9.3-.3-12.7-4.7-13.3-7.6Zm-17.6-3.4s1 1.5 2.4 2.4c1.4 1 5 1.5 5 1.5l1 1.3c.7 1 2.3 3.2 3.9 4.3 1.6 1.2 4.2 2 4.4 1.7 .1-.3-1.5-1-3.1-2 -1.6-.9-3-2.7-4.1-4 -1-1.2.4-1 .4-1h3.8c1.8-.2 1.4 0 2 .8 .4.9 1.2 1.7 2.5 3.2l4.7 5.4c1 1.3.3 1.6.3 1.6s-.5.8-4.7 1.3c-2.5.2-5.3 0-8.2-1.8v0c-2.1-1.32-3.99-2.94-5.6-4.8 -5-5.4-4.7-9.9-4.7-9.9Zm-2.2 11.3l1.6 1.9s-.7-2.2-1.4-3.3v0c-.29-.48-.59-.95-.9-1.4h0c.72-1.61 1.29-3.29 1.7-5 .4 1.5 1.8 5.8 3.6 8.6 2.2 3.5 4 4.7 2.8 5.6 -1.2 1-3.6 1.2-6.3-.2 -2.7-1.3-3.4-3.5-3.8-5.3v0c.47-.75.9-1.52 1.3-2.3 .3.2.8.6 1.4 1.4Z"/><path d="M-305 167.4a1.9 1.8 0 1 0 0 3.6 1.9 1.8 0 1 0 0-3.6Z" transform="scale(-1 1)"/><path d="M309 165.9c-1.7 0-2.7-.9-4.6-.7v0c-3.19.66-6.24 1.88-9 3.6v0c-3.29 1.51-7.01 1.83-10.5.9 -1-.3-2-1-3-1.5 -4.6-2.5-3.5-7.6-3.5-7.6v0c3.25 2.42 7.24 3.65 11.3 3.5l-1 .8c-.6.7-1.8 1.5-1.4 1.8 .4.3 2-1.3 3.4-2.3v0c2.09-1.57 4.47-2.73 7-3.4 3.5-1 7.4-1.1 10 .3 2.7 1.5 3 3.3 2.6 4 -.2.5-.7.6-1.3.6Zm-49.3 37c.8-.2 2.2-.5 4-2.2v0c2.42-2.29 4.69-4.73 6.8-7.3 .5-1 .3-1.8-1-2.3 -1.2-.5-2.1-2-2.1-2s2.7-1.1 4.5-2.4c1.9-1.4 6.1-5.2 6.7-6.1 .6-1 .3-1.1-.6-1.4 -.9-.3-1-1-1-1s1.9-1.1 3.7-2.6v-.001c1.48-1.28 2.91-2.62 4.3-4 2.8 1.2 7 .7 9.4.3 4.1-.7 7.1-2.4 7.1-2.4l.7 1.9c.5 1.3 2.4 2 4.3.7 1.9-1.2 1.4-4 1.4-4s1.6-.9 4.7-2c3.2-1.2 5.7-1.4 8.3-.2 2.5 1.2 3.8 4.7 3.8 7.3 0 2.7-1.4 1.6-1.7 1.2 -.3-.4-.9-2.3-4.1-2.8 -3.2-.5-6.1 1-9.8 4 -3.7 3-4.5 3.3-6.3 5.2 -1.8 1.9-.4 3 2.8 4 3.1 1 7.2-1 7.3-1 .6.3-1.4 3.1-4 4.2 -2.8 1-6.3.3-9-.7 -1.8-.8-2.1 0-2.6.5 -3 3.2-3.8 6-4.3 9.7v-.001c-1.46-.52-2.53-1.78-2.8-3.3 0-.6-.3-1.9-1.3-1 -1 .9-1.8 6.3-1.8 8.7 0 2.5.7 5.7.7 5.7l-.7-.1c-.5 0-1.3-.6-2.5-1.2 -1.2-.7-1.3 0-1.3 1.4 0 1.3-.4 3.8-2.2 8.3 -1.7 4.4-4.3 5.9-4.3 5.9s-.5-.9-1-2.7c-.5-1.7-.9-5.2-.9-8.2 0-3 .8-9.4.8-9.4s-3.6 4.4-7.4 5.5c-3.8 1.1-7.6.5-9.2-1.4 -1.6-1.8-.2-2.6.6-2.8Z"/><path d="M284.8 214.5s1.1 2.5 1.7 3.4c.7 1 1 1 1 1s-1.2 1-2.9 1.6l-3.2.8s2-2.6 2.6-4.4l.8-2.4Zm-22.9-1.5l.9-2.3v0c3.01.23 6.02-.4 8.7-1.8 0 0-1.8 3.6-3.5 4.8 -1.8 1.3-2 1.3-2 1.3s1.7.3 4.1-2c2.3-2.3 3.4-5 3.4-5s-.5 6.2.4 10l1.2 4.2s-5 1-10.5-.6c-5.6-1.6-6-2-6-2s-.7-.2.2-1.4v0c1.2-1.63 2.24-3.37 3.1-5.2Z"/></g><path fill="#B96B29" d="M272 199.4l1.8-2.4s.6.6.1 1.4c-.5.9-3 3-4.6 4v0c-1.05.54-2.16.95-3.3 1.2v-.3s4.2-2 6-3.9Zm6.7 12.9l.4-9c0-1 .7-.8.7-.8l.9.4 -1.7 11.3c-.1 1.2-.7 1.1-1 1 .6-.2.7-2.6.7-3Zm10.4-33.6c.7-.6 2.1-1 .7.5 -1.3 1.5-3.1 3.4-3.7 5 -.5 1.6-.8 3.5 0 3 1-.3 1.6-.3 2.6-1.1s2.7-2.1 3.5-2.3c.7-.3 2 0 1 1.1l-.001-.001c-1.3 1.38-2.74 2.62-4.3 3.7l-4.2 2.9v0c-.66.48-1.32.95-2 1.4 0 0 .9-6.4 2.6-9.1v0c1.07-1.81 2.34-3.49 3.8-5Zm34.2 105.9c1.3 1 3 1.4 3 1.4s.7 0 .7.2 -.9 0-1.9-.2c-1-.1-2.3-1.1-2.7-1.5 -.5-.3-1.2-.8-1-1.4 .2-.6.6.5 1.9 1.5Zm-11 5.9v0c.76.67 1.56 1.31 2.4 1.9l1.3.7c.7.3 1 .7 1 .7h-1c-.8-.1-3-1.8-3.6-2.5 -.8-.6-1-.8-.8-1 .3-.3.4-.1.7.2ZM357 211c-.4.5-1 1.1-1.1 1 -.3-.3 0-.5.5-1.2l.9-.9s.7-1.2 1.1-1.6c.5-.4 1.1-.7.3.3l-1.8 2.4Zm3.3 7.4L359 220c-.5.6-1 1.2-1.2 1 -.3-.4.8-1 1.2-1.7v0c.43-.57.93-1.07 1.5-1.5v0c.44-.34.91-.64 1.4-.9l-1.5 1.7Zm-1.2 12c-.9 1-2.1 1.2-2.3.8 -.2-.3.1-.6.8-1v0c1.41-.77 2.75-1.68 4-2.7 .4-.4.8-.7 1-.6 .1.1-1.2 1.5-1.6 1.8 -.4.2-1 .9-2 1.7Zm-2.5 9.7c0-.4 0-.6.7-.6l1.6-.2s1.4-.5 1.5-.3c.1.3-1.1.8-1.7 1 -.5 0-1.2.2-1.5.4 -.3.1-.6 0-.6-.3Zm-1 10.4c1.5 0 2.8-.4 2.9-.1 0 .2-.7.5-1.5.8 -.8.3-2.2.4-3.1.4 -1 0-1.2-.2-1.1-.7 0-.4 1.3-.4 2.8-.4ZM343.8 262c.2-.2.8 0 1.6.2 .9.2 2.2.4 3 .4l2.5-.1 1 .2c0 .2-1.3.2-3.1.4 -1.9.2-3.1-.2-4-.3 -.9-.1-1.2-.5-1-.8Zm-4.9 8.2v0c.77.25 1.58.38 2.4.4l2.3.3s.8.1.7.4c-.1.3-.4 0-1 0h-2.6c-1.2-.1-2-.5-2.7-.6 -.7-.1-1.6-.5-1.2-1 .4-.5 1.2.1 2.1.5Zm-9.4 6.1v0c1.15 1 2.39 1.9 3.7 2.7 .8.4.8.5.7.8 -.2.2-.7-.3-1.1-.5v0c-.96-.52-1.86-1.12-2.7-1.8 -.7-.6-1.7-1.1-1.5-1.6 .2-.4.3 0 .9.5Zm15.7-79.7l-1.8 2.4c-1.6 2-.7.2-.3-.4l3.6-4.8c.8-1 1-.5.5.1l-2 2.7Zm3.5 10.5c-.3-.3.3-.5 1.2-1.7l2.8-3.5s.5-1.1.7-1c.2.1-.6 1.9-1.4 2.6 -.8.8-1.7 2.2-2.3 2.9 -.5.6-.8 1-1 .7Zm-4.6 19.7c0-.6 1.9-.5 2.7-.7l2.4-.5s1.7-.3 1.8 0c0 .1-.4.4-1.4.5 -1 .2-2.4.7-3.5.8 -1 .2-2 .4-2-.1Zm4.6-10.7c-1.3 1-2 1.5-2.7 1.8 -.7.4-1.2 1-1.5.5 -.4-.4.3-.7 1.3-1.2l1.6-.8 1.1-.6c.5-.3 1.4-.7.2.3Zm-10.6-7l1.4-1s1-.8 1.1-.5c.2.3-1 1.1-1.6 1.6 -.6.6-1.6 2-2.2 1.8 -.5-.3.6-1.2 1.3-1.9Zm7 27.5l1.6.4c.7.2.7.5-.5.5s-1.7-.3-2.9-.5c-1.2-.3-1.6-.4-1.4-.8 .2-.4.8-.3 1.3-.1l1.8.5Zm-2 9.9c.1.2-.8 0-1.4-.2 -.6-.3-1.9-1-2.7-1.1 -.7-.3-.7-.4-.7-.8 0-.5.8-.1 1.8.2 1 .3 2.2 1.3 2.2 1.3s.8.4.9.6Zm-12.7 6c-1-.5-1-1-.8-1.2 .3-.3.6-.2 1.3.4l2 1.5 1.3.6c.5.3 1.2.7 1 1 -.1.2-1.2 0-1.8-.6l-3-1.7Zm-6 8l-2-1c-.4-.4-.7-1.4-.3-1.6 .3-.1.6.5 1.4 1 .8.7 3.7 2.6 3.7 2.6l.8.3c.8.3.4.6-.2.5 -.7-.1-1.2-.1-2-.7 -.7-.7-1.1-.8-1.4-1.1Zm-9 7.6c-.7-.3-1.8-1.3-2.4-1.8 -.5-.5-1.2-1.1-.8-1.4 .4-.3.9 0 1.5.6l2.2 2.3s.3 0 1.1.8c1 .7 0 .6-.3.3s-.5-.5-1.3-.8Z"/><path fill="#D4AF3A" d="M279 154.5l-3.6-2.5 4.3-1.1 2.7 2.2Z"/><path fill="#B96B29" d="M-267.5 148.3a3.4 3.3 0 1 0 0 6.6 3.4 3.3 0 1 0 0-6.6Z" transform="scale(-1 1)"/><g fill="#D4AF3A"><path d="M-267.5 148.8a2.1 2 0 1 0 0 4 2.1 2 0 1 0 0-4Z" transform="scale(-1 1)"/><path d="M274.7 140.2c-1 .3-2 .2-2 .2s-.4-1.6.4-2.3l2.1-1.8 .6-.6 .1 2.1c0 .8-.3 2-1.2 2.4Z"/><path d="M-272.8 141.2a.6.6 0 1 0 0 1.2 .6.6 0 1 0 0-1.2Z" transform="scale(-1 1)"/><path d="M277.5 141.2l.9 1s-.7 0-1.3.4c-.6.4-1.3.8-2 .7v0c-.55-.1-.91-.62-.81-1.17 0-.02 0-.03 0-.04 .1-.5.5-1 1.6-1.3 1-.4 1.4 0 1.6.4Z"/><path d="M275.1 145.2c2.2.2 5-2.2 5-2.2 .3 2 1.5 3 3.3 3.3h-.2s-1.7 1-3.7 1.2c-.9.2-1.7 0-2.6-.2h-.001c-1.12-.18-2.19-.51-3.2-1 -1.3-.8-1-2.9-1-2.9s.3 1.6 2.4 1.8Zm8.4-2.1c1-.4 2.2-1 2.8-1 .5 0 1.3-.2 1.2.8 -.1 1-1.2 1.5-2.2 1.6 -1 0-1.6-.4-2.2-.7 -.6-.3-.5-.4.4-.7Zm6.8-3.7c1-.7 1.8-.9 1.8-.9s.6 1.7.3 2.7c-.3 1-1.1 1.3-2 1.3 -1 0-2.3-.5-2-1.2 .5-.7 1-1.2 1.9-2Z"/><path d="M-289.4 143.6a.8.5 0 1 0 0 1 .8.5 0 1 0 0-1Z" transform="scale(-1 1)"/><path d="M287.3 135.8c.6-2.9.5-6-2.2-9.9 -2.7-4-7.3-5.5-7.3-5.5l-1.7-1.9v-.001c-1.4-1.34-2.9-2.54-4.5-3.6l5.5 1.5v.1 0c-.06 1.32.97 2.44 2.29 2.49 .03 0 .06 0 .1 0v0c.49.01.98-.13 1.4-.4 1.1.2 4.7 2.3 5.7 3.1v0c-.26.38-.39.83-.4 1.3v0c-.06 1.32.97 2.44 2.29 2.49 .03 0 .06 0 .1 0v0c.38 0 .77-.1 1.1-.3l.3.5 -.001 0c.71 1.27 1.31 2.61 1.8 4v0c-.65.5-1.02 1.28-1 2.1 0 1.4.8 2.5 2 2.5v1.6c0 .8-.4 1.3-1.8 1.7 -1.4.4-3.3 2.8-3.3 2.8 -.1 0-1-1.8-.4-4.6Z"/><path d="M278.8 117.6c-.5-.4-.6-1-.2-1.4 .4-.4 1.1-.3 1.6.1s.6 1 .2 1.4c-.4.4-1.1.3-1.6-.1Zm9 6.1c-.6-.5-.7-1.3-.2-1.8 .4-.4 1.2-.4 1.8.2 .6.5.7 1.3.2 1.7 -.4.5-1.2.4-1.8 0Z"/><path d="M-293.2 130a1.4 1.4 0 1 0 0 2.8 1.4 1.4 0 1 0 0-2.8Z" transform="scale(-1 1)"/><path d="M263 112c.8.2 2.1.6 4.1 1.7 -1.4 0-2.5.9-2.5 2s1.3 2.4 2.7 2.4c1.4 0 2.3-1.2 2.3-2.3 0-.3 0-.6-.2-.8l2 1.2c4.4 3 5.4 4.5 7.6 8.5 2.2 4.1 3 8.6 2 11.2 -.9 2.7-4.4 3.2-4.4 3.2s.4-.4.4-.9l-.2-1.7c-.2-1 0-2.2 0-2.2s-.9-.1-1.3.4l-1.6 1.8 -1.6 1.6s-.7-1-.7-2.2c0-1.2.8-2.5 1-4.6 .1-2-1-5.8-3-8.6v0c-1.96-2.33-4.33-4.26-7-5.7v0c-.87-.3-1.47-1.09-1.5-2l-.2-2c-.1-1.3 1-1.2 2.2-1Z"/><path d="M267.5 116.8c-.8 0-1.5-.7-1.5-1.4 0-.6.6-1.1 1.4-1.1 .8 0 1.4.5 1.4 1.1 0 .7-.5 1.4-1.3 1.4Zm-6.6 26v0c-.92.35-1.95.28-2.8-.2 -.6-.4-.8-1.3-.1-1.9v0c.65-.52 1.56-.6 2.3-.2l2 1.4s-.3.5-1.4.9Z"/><path d="M257.5 144c.4.6.6 1 1.8 1 1.2 0 2.5 0 3.3-.8v0c.52-.57.95-1.21 1.3-1.9h1.3s.5 1.9 1 2.4c.7.5 2.7.6 3.6 0 1-.8 1.7-1.6 1.9-1.5 .1.1 0 .8-1 1.6s-1.5 1.3-3 1.3h-8.5s-1.7.1-2.2-1c-.5-1-.5-1.6-.3-1.9 .2-.2.4.2.8.8Z"/><path d="M270.4 142.6c-1.3.7-2 .2-2.4-.3l-.6-.9s1.2-.4 1.8-.8c.6-.3 1-.6 1.6-.6l.6.2s.3 1.6-1 2.4Z"/></g><g fill="#B96B29"><path d="M-276.6 127.2a2.8 2.8 0 1 0 0 5.6 2.8 2.8 0 1 0 0-5.6Z" transform="scale(-1 1)"/><path d="M271.6 120.2v-.001c1.26-.73 2.87-.43 3.8.7 .9 1.2.7 2.7-.4 3.5v-.001c-1.25.66-2.79.37-3.7-.7 -1-1.2-.8-2.7.3-3.5Z"/></g><g fill="#D4AF3A"><path d="M-276.7 128a1.6 1.6 0 1 0 0 3.2 1.6 1.6 0 1 0 0-3.2Z" transform="scale(-1 1)"/><path d="M272.8 120.5c.8-.2 1.7.2 2 .8 .4.7 0 1.4-1 1.6 -1.8.3-2.6-2-1-2.4Z"/></g></svg>