<svg viewBox="0 0 512 512" xmlns="http://www.w3.org/2000/svg"><path fill="#DA2032" d="M0 0h512v512H0Z"/><path fill="#0066B3" d="M170.7 0h170.6v512H170.7Z"/><path fill="#FFD900" d="M85.3 161.6a35 35 0 1 0 0 70 35 35 0 1 0 0-70Z"/><path fill="#DA2032" d="M85.3 142.5a38.2 38.2 0 1 0 0 76.4 38.2 38.2 0 1 0 0-76.4Z"/><g fill="#FFD900"><path d="M85.3 161.5a25.5 25.5 0 1 0 0 51 25.5 25.5 0 1 0 0-51Z"/><path d="M88 104.3h-.001c-2.67 1.14-4.46 3.7-4.6 6.6 -.2 2.2.8 4.6.9 6.7 0 3.7-3.8 4.9-3.8 10.1 0 1.8 1.7 3.8 1.7 8.4 -.3 2.5-1.7 3-3.2 3.2v0c-1.77 0-3.2-1.44-3.2-3.2v0c0-.83.32-1.61.9-2.2h-.001c.09-.11.19-.21.3-.3 .7-.7 1.7-1 1.7-3 0-1-.6-1.8-1.2-3.6l0-.001c-.57-2.15-.12-4.43 1.2-6.2 -2.2.8-3.6 3-4.3 4.9 -.7 2.3-.1 3.7-1.1 5.7 -.6 1.2-1.4 1.7-2 2.8 -.9 1.2-1.8 3.8-1.8 5.1h-.001c.98 8.78 8.9 15.1 17.68 14.11 7.42-.84 13.28-6.7 14.11-14.12 0-1.3-1-4-1.8-5.1 -.7-1-1.5-1.6-2-2.8 -1-2-.4-3.4-1.2-5.7 -.7-2-2-4-4.3-5v0c1.38 1.78 1.86 4.11 1.3 6.3 -.7 1.8-1.3 2.7-1.3 3.7 0 1.9 1 2.2 1.7 3v0c.1.06.2.12.3.2v0c.6.57.96 1.36 1 2.2v0c0 1.76-1.44 3.2-3.2 3.2 -.04 0-.07-.01-.11-.01 -1.7-.2-3-1-3.2-3.2 0-6.1 2.7-6.5 2.7-11 0-6.5-5.8-9.6-5.8-14.3 0-1.6.3-4.3 2.6-6.5ZM15.3 237.9h31.9v152.8H15.3Zm108.2 0h31.8v152.8h-31.8Zm-70 0h63.7L85.3 257Zm0 25.5h63.7V276H53.5Zm0 89h63.7v12.8H53.5Zm0 19.2h63.7l-31.9 19Z"/><path d="M85.3 282.5a31.8 31.8 0 1 0 0 63.6 31.8 31.8 0 1 0 0-63.6Z"/></g><g transform="matrix(.63636 0 0 .63636-42 66.1)"><g fill="#DA2032"><path d="M200 353.5a10 10 0 1 0 0 20 10 10 0 1 0 0-20Z"/><path d="M200 406.5a10 10 0 1 0 0 20 10 10 0 1 0 0-20Z"/><path d="M200 334v0c16.29 0 29.5 13.2 29.5 29.5 0 16.29-13.21 29.5-29.5 29.5v0c-12.98 0-23.5 10.52-23.5 23.5 0 12.97 10.52 23.5 23.5 23.5v6 0c-16.3 0-29.5-13.21-29.5-29.5 0-16.3 13.2-29.5 29.5-29.5v0c12.97 0 23.5-10.53 23.5-23.5 0-12.98-10.53-23.5-23.5-23.5Z"/></g></g></svg>