<svg viewBox="0 0 512 512" xmlns="http://www.w3.org/2000/svg" xmlns:xlink="http://www.w3.org/1999/xlink"><defs><radialGradient id="a" cx="842.3" fr="0%" fx="842.3" fy="103.7" gradientUnits="userSpaceOnUse" cy="103.7" r="25.9" gradientTransform="matrix(.11321.02876-.02762.11359 180.2 193.2)"><stop offset="0%" stop-color="#FFF"/><stop offset="100%" stop-color="#F15770"/></radialGradient><radialGradient id="b" cx="651.5" fr="0%" fx="651.5" fy="550.5" gradientUnits="userSpaceOnUse" cy="550.5" r="25.9" gradientTransform="matrix(-.10753-.04307.03971-.09991 375.3 9.8)" xlink:href="#a"/><radialGradient id="c" cx="380.8" fr="0%" fx="380.8" fy="740.4" gradientUnits="userSpaceOnUse" cy="740.4" r="25.9" gradientTransform="matrix(.06029.00225-.00274.11843 377.4-120)" xlink:href="#a"/></defs><path fill="#CE1126" d="M341.3 0H512v512H341.3Z"/><path fill="#FFF" d="M170.7 0h170.6v512H170.7Z"/><path fill="#006847" d="M0 0h170.7v512H0Z"/><g stroke-width=".2" fill="#FCCA3E" stroke="#AA8C30"><path d="M284.6 295.6l.2 3.5 1.4-.9 -1-3Z"/><path d="M284.5 293.5a1.1 1.1 0 1 0 0 2.2 1.1 1.1 0 1 0 0-2.2Z"/><path d="M289 301.1l-2.7-2.5 -1.2 1 3.6 2Z"/><path d="M288.7 302.6c-.4-.6-.3-1.3.3-1.7 .5-.4 1.2-.3 1.6.2 .3.5.2 1.2-.3 1.6 -.5.4-1.2.3-1.6-.2Zm20.3-38.9l2.7 2.6 .4-1.3 -2.5-1.7Z"/><path d="M308.7 261.9a1.1 1.1 0 1 0 0 2.2 1.1 1.1 0 1 0 0-2.2Z"/><path d="M316.1 265.3l-4 1.1 .3-1.3 3.5-.4Z"/><path d="M316.8 263.6a1.1 1.1 0 1 0 0 2.2 1.1 1.1 0 1 0 0-2.2Z"/><path d="M302.3 285.5l-2.5-4 .4-.1 2.9 3.3Z"/><path d="M299.6 279.5a1.2 1.2 0 1 0 0 2.4 1.2 1.2 0 1 0 0-2.4Z"/><path d="M302.5 285.6l3.2.6 .1-.5 -2.7-1Z"/><path d="M306.6 285.1a1.1 1.1 0 1 0 0 2.2 1.1 1.1 0 1 0 0-2.2Z"/><path d="M227.7 294.4c0 .6-.4 1-.8 1s-.8-.5-.8-1 .4-1 .8-1 .8.5.8 1Zm0 1.8l.7 4 -1-.3 -.3-3.5Z"/><path d="M228.6 294.9c.4.6-.3 1.5-1.2 1.7 -.8.3-1.9-.1-1.9-.9 0-.9 1.3-.4 1.6-.5 .5-.2 1-1 1.5-.3Z"/><path d="M221.6 300.1a1.3.9 0 1 0 0 1.8 1.3.9 0 1 0 0-1.8Z"/><path d="M223.7 300.8l3.9-.2 -.7-.8 -3.2.4Z"/><path d="M224 300.4c.4 1 .4 2.3-.7 2.1 -1.1-.1-.9-1.1-1-1.5 -.1-.7-.8-1.3-.1-2 .6-.6 1.5.4 1.8 1.4Z"/><path d="M211.5 278.3a.8 1.1 0 1 0 0 2.2 .8 1.1 0 1 0 0-2.2Z"/><path d="M211.5 281.9l.1 3.7 -1-.9 .1-3Z"/><path d="M213 280.8c.2.8-1.1 1.3-2 1.1 -.8-.1-1.5-.6-1.3-1.4 0-.7 1.2-.6 1.5-.4 .4.3 1.5-.6 1.8.7Z"/><path d="M204.9 284.6a1.3.6 0 1 0 0 1.2 1.3.6 0 1 0 0-1.2Z"/><path d="M207.3 285.2l2.9-.2 1.2 1 -4.2-.2Z"/><path d="M206.2 283.6c.8 0 1.3.9 1.2 1.8 0 1-.8 1.7-1.5 1.6 -.8-.1-.7-.8-.7-1l.5-.8c0-.3-.2-1-.1-1.2 0-.3.2-.4.6-.4Zm-2.4-22.7c-.3.6-1 1-1.2.7 -.3-.2-.2-.9.1-1.4 .3-.5.8-.8 1.2-.6 .3.2.3.8 0 1.3Zm-3.2 5.9l1.6-3.9 -.2-.2 -1.9 2.7Z"/><path d="M202 263c-.9-.6-1-1.3-.8-1.9 .3-.5.9-.2.9-.2l.7.7c.2.1.7-.1 1 .4 .4.5.2 1 0 1v0c-.6.32-1.31.32-1.9 0Zm-6.9-.6c.6.4 1 1 .7 1.3 -.2.4-.8.4-1.4 0 -.6-.4-.9-.8-.7-1.2 .2-.4.9-.4 1.4 0Zm1.7 1.7l3 1.8v1.5l-3.3-2.8Z"/><path d="M196.8 264.5c-.7.7-1.3.8-1.8.5 -.6-.3-.1-.9-.1-.9l.6-.6c.2-.3 0-.8.6-1 .5-.4 1-.1 1 .2 .1.3.3 1.2-.3 1.8Z"/></g><g fill="#AA8C30"><path d="M285.3 295.8l-.4.4 -.2.7v-1.1l.4-.3 .2.3Z"/><path d="M285.4 295s-.2.5-.9.5c-.6 0-1-.3-1-.7l.1-.9 -.3.4v.7l.5.6h.4l.4.1 .5-.2 .3-.2v-.2Zm3.4 6h-.6v0c-.96-.37-1.86-.84-2.7-1.4l3 2 .3-.6Zm1.9.8s0 .6-.6.8c-.6.3-1 .2-1.2 0v0c-.27-.27-.38-.64-.3-1l-.1.5 .3.6 .6.3h.5l.3-.2 .4-.4 .2-.4 -.1-.2Zm19.4-38v.8l-.7-.7 .3-.4 .4.3Zm-.3-1c0 .5-.8 1.3-1.3 1 -.6-.2-1-.8-.7-1.4l-.2.3 .1.8 .6.5h.6l.6-.2 .3-.6v-.4Zm8 1.4s-.1-.3 0 0c0 .5-.5 1.4-1.1 1.3 -.7 0-1-.6-.9-1.1v.8l.3.3 .5.3h.5l.6-.4 .2-.5v-.3l-.1-.4Z"/><path d="M315 264.9s0 .2-.3.4v0c-.34.19-.67.39-1 .6l2.2-.6 -.2-.6 -.7.2Zm-13.6 17.9l-.2.4v.6l-1.2-2 .4-.2 1 1.2Zm-.7-2c-.3.6-1.2 1-1.6.7 -.5-.3-.8-1.2-.3-1.6l-.3.2 -.1.6 .2.5 .4.5 .4.2 .7-.2 .5-.3s.3-1 0-.5Zm4.4 4.7s0 .2-.4.2h-1.2l2 .4 .2-.4 -.6-.2Z"/><path d="M307.7 286c.2.7-.4 1.4-1.2 1.1 -.8-.3-1-1-.8-1.5l-.2.6 .2.6 .5.4 .5.2 .5-.2 .5-.5 .1-.6v-.1Zm-79.2 8.9c.2.2-.1 1.2-1 1.5 -1 .4-1.4 0-1.6-.3l-.2-.6 -.2.2 .2.4 .4.4 .8.2 .6-.1 .6-.3 .3-.3 .3-.4v-.5l-.1-.2Z"/><path d="M227.7 296.9l-.3.3 -.2.6v-1l.4-.3 .1.4Zm-3 3.2s-.1.2.1.4l.8.2h-1.4l-.2-.5 .7-.1Zm-.5 1v0c0 .17-.03.34-.1.5 -.2.4-.3.8-.8.7v0c-.44-.09-.77-.46-.8-.9v0c-.02-.19-.09-.36-.2-.5v.5l.3.8 .6.3h.4l.4-.2 .2-.5v-.8Zm-3.8-.2s.2.7 1 .7c.7 0 1-.2 1-.2v.3l-.3.1 -.6.1 -.6-.1 -.3-.2 -.2-.4v-.3Zm-7.5-20.3v.3c-.1.3-.6.9-1.5.9 -.8 0-1.2-.3-1.4-.6 -.3-.3-.3-.7-.3-.7v.5l.3.5 .9.4h.8l.8-.2 .4-.4v-.7Zm-1.4 1.8l-.5.2v0c-.11.09-.21.19-.3.3v-1h.8v.6Zm-3.8 2.8l.4.3c.4.2 2.5.4 2.5.4l-3.3-.1 .2-.6h.2Zm-.3 0l-.2.5c-.2.3-.6 1.2-1.3 1.1 -.7-.1-.6-.6-.6-.7v-.2l-.1.5 .2.3 .2.2h.6l.4-.1 .4-.4 .2-.4 .2-.5v-.3Zm-1.8.1s0 .2-.6.2l-1.3-.2 .3.3 .4.1h1l.2-.4Zm-1.7-23s.1.3-.2.5c-.3.2-1 .4-1.4.1 -.4-.2-1.2-1-1.2-1l.4.6 .5.5 .8.2h.8l.3-.4 .1-.2v-.4Z"/><path d="M201.6 263.3v.4l-.1 1 .6-1.6 -.2-.2 -.3.4Zm-4.3 1.2l.1.3c.2.5 2 2.1 2 2.1l-2.8-2.2 .3-.5 .4.3Zm-.9.2l-.7.3c-.2 0-.8 0-.8-.4v-.5l-.2.5 .1.3 .4.2h.6l.5-.2 .1-.1Zm-1-1.1h-.6c-.5 0-1-.6-1-.6l.3.6 .9.4 .3-.4Z"/></g><path fill="#9CA168" d="M319.9 256.1c-.3 3-3.3 4.7-4.9 5.8v0c-.94.7-1.72 1.58-2.3 2.6l-.6 1.8 -.2 1.1v.4l.2 1.7 -.1 3.4 2.1-1.5 1.6-.6h.4s-1.7 1.6-2.3 3.4c-.7 1.9-2 5.8-4.3 7 -2.3 1.3-3.8.8-4.6 1.5l-.8.9 -1 1.3 -.8 1 -.7.6 -.5.3c0 .4 0 1-.2 1.4l-.5 1.9 1-.4h1.1l-.6 1c-.1.5.1 3.7-2.9 5.6 -3 1.9-10.7 1.6-10.7 1.6l-1.4.6 -1.4 1 -1.2 1.4 -.1.3s-1 1.2-1.7 1.6l-2.2 1.5 1.8.1 2.8 1.2s-1.8 0-3 .4c-1.1.5-6.5 3.5-9 3.4 -2.7 0-6.4-3.8-6.4-3.8l-1.6-1.2 -2.8-.6 -3.5-.2v-.4l.1-.6 3 .1c1.7.2 2.2.8 3.6 1v0c.94.13 1.9.02 2.8-.3l4.7-3.8 4.7-1.6 1.8.2 .8.2 .7.2 -.8 1 -1.2.7 .6.5 3-.5 1 .3 .2.1 .4-1c.4-.5 2-1.8 2.8-2.3 .7-.5.9-.5 1-.8 .3-.2 1.3-2.7 1.3-2.7l.1-1.3 3.3-3.1 2.2-2.4 1-2.7 -.1-.5s.7.8.6 2.5c-.1 1.7-.5 2.2-.5 2.2s2.2-1.5 3.4-2c1-.5 1.7-.4 2-.4v0c.63-.39 1.17-.9 1.6-1.5 .7-1 .8-1.2.8-1.6l.1-2.2 -.2-5.7 2-4.2 2.8-2.5 .5-.3 -.3 1v1s1.4-1.8 2.1-2.2l.5-.2 .6-1.6c.2-1 .2-2.5.2-2.5v-2.3l-.4-1.8 -1.3-3.5v-4.6l-1-1.3s.9-.1 2 1.5v0c.76 1.22 1.27 2.58 1.5 4l2.7-8.1s.7 1 1.2 2.5l.7 2.7 1-2.2 .1.8c.2.7 1.8 1.7 1.6 4.7Zm-53.8 52s-.6-1.2-3.1-2.5v0c-1.44-.69-2.95-1.19-4.5-1.5v1l4 1.7 2 1.6 1.6-.3Z"/><path fill="#717732" d="M284.3 300.5v0c1.05-1.07 2.22-2.01 3.5-2.8v0c.81-.39 1.69-.62 2.6-.7 1.5-.3 1.7 0 5.2-2s4.3-4.1 5-4.7c.7-.5 1.9-.7 1.9-.7l-2.7 3.2c-1.3 1.4-2.7 2.3-4.7 3.6 -2 1.3-6 1.4-6 1.4v0c-1.25.21-2.41.8-3.3 1.7 -1 .8-1.6 1.7-1.6 1.7s-.2-.4 0-.7Zm9.7-10.2c-3.3 3-4.3 5.8-4.3 5.8l4.3-4c1.5-1.4 3.6-2 4.5-3 1-.8 1-1.5 1.6-2l1-.9s-1.4-1-7.1 4.1Zm-6.9 6.9s1.4-.6 2-1.9c.3-.9.1-1.1.7-2.2 0 0 3.4-3.2 4.6-4.6 2.1-2.5 1.2-4.6 1.2-4.6s.2 1-.7 2.2c-.9 1-5.2 4-5.8 5.8 -.5 1.7-.2 1.7-.4 2.7 -.6 2-1.6 2.6-1.6 2.6Zm-2.2 8.4s-1.7-1.1-3.6-1c-3.9.3-7.2 2.6-9.7 2.7 -2.6 0-3.6-1.2-5.6-2.6 -2.1-1.4-7.3-1.2-7.3-1.2v.1l-.1.2s3.6 0 5.1.4c3 .9 4.5 4 7.9 3.7 4.3-.2 7.8-2.9 9.6-2.9 3 0 3.7.6 3.7.6Zm-19.3-2s3 .6 5.4-1.1c2.3-1.7 5.1-4 6.6-4.1 1.6-.1 3.2.3 3.2.3s-2-1-3.5-.9v0c-1.61-.05-3.2.32-4.6 1.1 -1.5.9-2.2 2.5-3.8 3.5 -1.5 1-3.3 1.3-3.3 1.3Zm-.5 4.1c-.4 0-.9.3-1 .2 -.2 0-1-1-2.4-1.6 -1.3-.7-3.2-1.1-3.2-1.1s-.2 0 .2.2l3 1.1v0c.84.44 1.59 1.05 2.2 1.8 0 .1.4.6 1.2.6 .7 0 1-.5 1-.7 -.1-.3-.6-.5-1-.5Zm2.1-3s1.2.8 3.2.7c4.2 0 6.8-3 9.6-4s4.2-.2 4.2-.2v-.2 0c-.92-.64-2-.99-3.1-1 -4.6.1-9 3-10.9 3.8 -1.8.8-3 1-3 1ZM312 273c-1.5 1.5-3.6 6.2-4.5 7.4 -1 1.3-2.1 1.7-2.6 2.2l-2.5 3.3c-.4.6-.5.4-.8.6 -.3.3-.4.3 0 .2 .5-.1.6-.4 1.3-1.2 .7-.8.7-1.2 1.8-2.2 1.1-1 3.1-2.1 4.1-3.3 1-1.3 3-6 4.2-7.2 1.1-1.2 3.1-2 3.1-2s-1.6-.4-4.1 2.2Zm-7.2 8.9s0-.9 1-2.1c1-1.2 1.4-1 2.2-2.9 .8-1.8 1.2-3.6 1.9-5.5 .6-2 1.8-3.8 1.8-3.8s-1.1 0-2.2 1.6v0c-1.6 2.13-2.88 4.49-3.8 7 -1 2.6-1 5.7-1 5.7Zm-1.4 1.8s.4-.3.5-2.6c0-2.3-.1-5.6.5-7.3 .7-1.6 4.3-5.5 4.3-5.5s-1.5.3-3.6 2c-2 1.7-3 3.7-2.8 5.3 0 1.6 1 3.4 1 5l.1 3Zm8.5-16.2l1.2-4c.4-.7.4-1.2 2.2-3.2 1-1.1 2-1.9 2.5-3.5 .4-1.6.4-6.1.4-6.1s-.5.4-.8 1.2c-.4.8-.1 3.7-.8 5 -.7 1.4-2.2 4.6-3 5.3 0 0-.1-2.3.1-4.6 .3-2.3 1-3 1.4-4.5 .4-1.5.2-5.4.2-5.4s-1.3 1.2-1.9 2.7c-.6 1.5-1 4-1 6s.5 3.6.6 4.7c0 1.1.1 1.7-.3 2.9 -.5 1.2-.2.4-.5 1.6v0c-.18.67-.38 1.34-.6 2h.3Zm-2.8-17.2s1 1.3.9 2.9c-.2 1.5-.8 3.6-.2 5.2 .6 1.6 1.5 1.7 1.8 2.7 .2.9.2 2.7.2 2.7s.5-3.4.2-4.4c-.4-1-.5-.5-1-1.5s0-3.7-.4-5.3v0c-.2-.93-.74-1.75-1.5-2.3Z"/><g fill="#9CA168"><path d="M245.4 307.9s.3-1 2.5-2 5.4-2.5 5.7-2.3c.4.2-.1 1.3-.1 1.3l-2.1.7 -1.7 1 -2 1.3h-2.3Z"/><path d="M251 302.1c-2.9.1-4.4.8-5 1 -.1 0-.5.2-.9 0 -.6-.2-1.2-1.1-1.2-1.1l-.6-.5 -.1 2 -4-3.6 -.5 2.4 -.5 1 -4-3.8 .1 3h-1l-3-2 -.8.4 1 1.7 -3.7.3 -.8.6 -.7.9v.3h1.4c.3-.2.5-.7.6-.5 .1.2.2 1 .7 1 .5-.2 2.2-1.4 3.4-.9 1.3.7-1.8 1.6-1.4 2.5 .3 1 2.5.6 3 .3 .6-.3 2.3-2.4 3-1.6 1 1-2 2-1.5 3 .6 1.1 2.2.9 3 .4 .8-.5 2.7-3.3 3.1-2.7 .7 1-1.6 2.1-1 3 .6.8 1.9 0 2.7-.7 .9-.6 1.2-2 2.4-2.7 1.1-.6 1-.3 1.4-.4 .3 0 1.2-.9 1.2-.9l2.7-1.1h1.4l.7.4 1.4.2 .1-1.2s-1.6-.7-2.7-.7Zm-22 0l.5-1 -.3-.5s-1-.5-1.9-1.4v0c-.45-.54-.99-.98-1.6-1.3h-.001c-.58-.36-1.15-.72-1.7-1.1l-.6-2.3 -.4-.6 -1 .4 -1.4-4.9 -.3-.9h-.6l-1.1 3 -1.3-1.9 -.3-4 -.8.9 -1 1 -1.8-3.7s-.2 0-.3.3c0 .3-.2 1.4 0 2.1v0c-.89-.54-1.72-1.14-2.5-1.8 -1.8-1.6-2.3-2.4-2.3-2.4l-.8-2 .8-1.7 .4-2 -1.8.7 -.3-4.6 -.3-1.4 -2.1 3 -.8-1.2v-3l-.6-.1 -.9 1.6s-.8-1.7-1.2-2c.1-.7.2-2.3-.2-3.6 -.5-1.6-1-2.5-.9-3.8 .2-1.4.8-1.5.7-2 0-.7-1 .3-.6-.5 .3-.7 3-2.5 2.5-3.4 -.6-1-3.3 1.4-2.7-.2 .7-1.6 3.2-1.6 3.4-3.9 0-1.3-2.5 1-2.7.2 -.2-.7 1.6-2.1 1.6-3 0-1 .3-1-.2-1.5s-2 1.9-2 1.9l-1.7-.6 -.6 2.4 -.5 2 -2.1-1.2 .5 2.5 .5 2.4 -2.1-.6 1.1 2.1 1.5 1.5 1 1.3 .6.3 1 1 .2 1.2 .5 1.5 .1 1.5v2.3l-.1.8c-.4 0-1-.6-1.3-.2 -.3.5 1.2 1.6 1 2 -.3.2-2.6-.5-2.7.2 -.1.7.2 1.7 1.5 2 1.3.3 4.2 1 3.7 1.6 -.5.6-3.7-1.8-3.5 0v0c.05 1.22.84 2.29 2 2.7 .9.3 4.1 0 4 .7 -.3.7-2.7-.3-3 .8 -.2 1.1 1.8 1.3 2.2 1.3 .4 0 1.7 0 2.3.4l3.4 3.2c1 .9 3.1 2.3 3.7 2.7 -.6 0-1.9-.2-2.1.3 -.3.6 4.9 2.4 3.4 3 -1.5.6-3-1.6-3.5-.3 -.4 1.3 1 2.4 1.8 3 .8.4 5.3 0 4.5 1 -1 1-4.2-.7-4.3.6 0 1.2 2.2 3.1 3.4 3 1.1 0 2.4-1.8 2.9-.8s-.9 1.4.2 1.6c1.1.2 1.9-1 3.2-.8 1.2.2 3.2 1 4.4 2h0c.75.74 1.48 1.51 2.2 2.3Z"/></g><path fill="#717732" d="M246.7 307.3c.8 0 .9.4 1 .4 0 0 1.4-1.1 2.7-1.8 1.2-.7 3-1 3-1h.2s-2.3.7-3.3 1.4l-2.5 1.7c0 .2-.6.5-1.4.5 -.7 0-1-.4-1-.6 0-.3.5-.6 1.3-.6Zm6.8-3.4s-.7 0-1-.3h0c-.62-.42-1.36-.63-2.1-.6v0c-1.21.06-2.34.56-3.2 1.4 0 0-.2.5-1.1 1 .3.1.9-.3 1.5-.8v0c.87-.64 1.91-1.02 3-1.1 .8-.1 1.3.3 1.7.6 .4.3 1.2.2 1.2.2v-.4Zm-40.4-16.5v-.6s-.6-.2-1.7-1c-1.3-.7-4.1-2.9-4.1-2.9l2.3 2.1v0c1.01.84 2.08 1.6 3.2 2.3h.3Zm28.5 20.2l1.2-1.8c.8-1.2 1.4-1.6 1.5-1.7 .1-.1-.3-.7-.5-1.2 -.2-.4-.2-.9-.2-1 0 0 .3.8.8 1.2l1 .7s1-.1 1-.3c0-.2 0-.4-.2-.5 -.2 0-.4.2-.9 0 -1-.5-1.4-2-2-2 -.6-.1-.2 1.6-.5 1.6 -1 0-1.6-3.5-4-3.6 -1.5-.1-1.8.2-1.9.6 0 .3 2 2.4 1.3 2.7 -.7.3-2.8-3.3-4.4-3.3 -1.6 0-1.7.5-1.6.9 .1.3 1.8.6 1.4 1.7 -.4 1.1-2-1.7-3.4-1.5 -1.4.1-1.6.3-1.7.7 0 .4.5 1 .3 1.1 -.2.2-1 .1-1.8.6 -.7.5-1.7 1.9-1.7 1.9s.9-1.4 2.2-1.5h4.4l-.9-.7c-.5-.4-.9-1.3-.9-1.3l1.4 1.3 1.5 1s1.4 0 1.5.2c0 .2 0 .5-.6 1.1v0c-.45.45-.92.88-1.4 1.3l1.6-1.2 1.2-1s1 .2 1.1.1c.1 0 0-.3-.6-1.3v0c-.46-.66-.89-1.33-1.3-2 0 0 .8.7 1.6 1.8 .9 1 .7 1.6 1 1.6l1.2.2c.3 0 .3.4-.3 1.3s-1 2-1 2l1.3-1.6c.6-.6 1-1.4 1.2-1.4h1.2l-.7-1.3c-.4-1-.5-2.2-.5-2.2s.4 1.2 1 2l1.1 1.6h1.3c0 .4 0 .6-.5 1.4l-.8 1.7Zm-17.2-10l1.3.3s-1.3-.8-1.7-2c-.3-1 0-3.4-.6-3.4 -.5 0-.9 1.8-1.4 1.4 -.6-.3.2-3.5-.5-4.8 -.6-1.4-2-2.3-2.4-1.8 -.3.5-.2 3.4-1.1 2.8 -1-.7 0-3.2-.2-4.3 -.3-1.1-1-2-1.5-1.7 -.5.3.2 2.4-.6 2.5 -.9 0-.7-1.5-1-1.7 -.4-.1-.6.3-.7 0 -.2-.3-.1-1.3-.6-1.2 -.4 0-.3 1-.2 1.4l.6 1.4c.1.3.8.7.7 1 0 .2-.4.4-.8.4h-1.4l1.4.3c.4 0 1.2-.1 1.4.2l1.1 1.7s.3-.7.4-1.9v-2.1s.3 1.3.3 2.1l-.3 2.4s.9.7.6 1h-2.3c-1 0-2.6-.3-2.6-.3s1.4.6 2.4.8c1 .2 3 .2 3 .2l1.4 1.6s.7-1.1.8-2.3V289l.4 2.2v0c-.01 1.01-.18 2.03-.5 3v0c-.44.37-.95.64-1.5.8 -1 .3-2.9.5-2.9.5s1.8.3 3 0c1.3-.3 1.4-.7 1.8-.5l.7.6 1 .8 -.8.5 -1.2.6 1.8-.6 .9-.3 .4.2 -.1-1 -.3-1.4s.5.6.6 1.3l.1 1.2s.1.2 1 .6ZM199.5 269s.3-1.4.3-3c0-1.5-1-3.9-1.3-4.1v0c-.08-.17-.15-.33-.2-.5l.7-1 -1 .7 -1-.4c-.4-.3-.6-.7-.6-.7l1 .5c.4.2.5.1.5.1l-.3-1.5 -1.6-.8c-1-.6-2-1.5-2-1.5l2.2 1.2 1.3.3s.9-.2 1.3-.5l1.3-.9s-.8.5-1.4.6l-1.2.2 -.3-1.9 -.9-.9c-.7-1-1.2-2.2-1.2-2.2s.7.9 1.3 1.3c.6.5 1.1 1.2 1.1 1.2l1.3-.8 2.3-1.6 -2.2 1 -1.3.6v-1.2c.2-.4.6-1 .6-1.3 -.1-.4-.4-.2-.5-.5l.4-2.1v1c.1.3 0 .7.4.7s2.6-2.1 2.8-2.5c.3-.4.7-1.5-.4-1 -1.1.4-.9 1.3-1.8 1.3 -.3 0-.6-1.2-1-1 -.3.3-1 1-1.2 2 -.2.8.2 2-.3 2.4 -.5.4-1-1.4-1.8-1.2 -1 .3-1.2 1.6-1 2 .1.6 2.1 3 1.5 3.2 -.6.3-2.2-2-3-.4 -1 1.5 2.6 3.1 3 3.5 .5.4 0 .5.7 1.3 .6.8 1.5 1 1.9 1.5 .4.5 1.7 3 1.7 4.6v2.3Zm9.4 13.6s-.9-1-.6-2.6c.3-1.7 1.5-4.6 1-5 -.3-.4-1.6 1.8-1.9 1.3 -.3-.5.7-3.4.2-4.6 -.5-1.2-.6-2-1.6-1.9 -1 .1-1.5 3.5-2 3 -.5-.7.3-2.2 0-3 -.4-.8-.5-1.1-1-1 -.6.1-.8 1.7-1.2 1.7 -.3 0-1-2-1.7-1.6 -.7.2 1.8 3.5 1.8 3.5s.5-.4.7-1l.5-1.1s.2 1 0 1.5c-.2.4-.3 1.4-.3 1.4s-.7.2-1.7 0c-1-.1-1.9-.5-1.9-.5s.7.4 1.8.7l2.2.6 .7 1 .9 1.1 .6-1.6 1-2.8s-.2 2-.5 3l-.5 2.5s-1 0-2.1-.3l-3-.6 3 1 2.3.6 1 1.4 .8-1.1c.5-.7.8-1.5.8-1.5s-.2 1.1-.5 1.8l-.6 1.1 -1.4.2h-2 0c1.16.37 2.37.6 3.6.7 0 0 0 .4.5 1.1h0c.26.39.6.73 1 1Z"/><path fill="#FFF" d="M251.6 312.7s-.5-.6-1.2-1c-.7-.3-1-.2-1-.2h-.3l.7-1.6 4.4-4.3 .7-4.3h2.7v5.9l.8.3 5 3v1.3l-.8.3 -.6.3 -1.8.2 -3.3-2.4 -1.4-1.4 -2.4 3.1 -1.6.8Z"/><path fill="#016848" d="M255 301.3v1c0 .6 0 4-.2 4.5 -.1.5-2.5 1.4-4 2.6 -1.3 1.2-1.3 2.1-1.3 2.1l-1.3.4c-.9.3-1.3.8-1.3.8s.5-2.2 2.8-4.1c2.2-2 3.3-2.2 3.5-2.5 .2-.3 0-4.1 0-4.4 .1-.3.4-.3.6-.3h1.3Zm5.7 12.6l.6-.9 .7-.6 -1-.6c-1.3-.5-2-.4-2.8-1v0c-.65-.48-1.23-1.06-1.7-1.7l-1.2 1 1.4 1.7c.6.6 2.1.8 2.8 1.2l1.2 1Z"/><g fill="#CD202A"><path d="M257.2 301.3l1.5.1 .2.5c0 .1 0 3.2-.2 4.2v0c-.16.89-.5 1.74-1 2.5 -.4.3-2.4 2-3.3 3 -1 .9-1.9 2.2-1.9 2.2l-.6-.8c-.3-.4-.6-.5-.6-.7v-.001c.65-1.14 1.58-2.1 2.7-2.8 1.5-1 2.9-2.2 3.1-3.9 .3-1.7.1-4.3.1-4.3Z"/><path d="M266 312s-.3-.3-1.4-.4c-1.2 0-1.2.2-1.2.2s-.7-.8-1.6-1.4c-1-.7-1.8-.6-2.8-1.3 -1-.7-1.6-1.7-1.6-1.7l.8-1.6s.9 1.3 1.8 2c1 .7 3 1.3 3.7 2 .7.5 2.3 2.2 2.3 2.2Z"/></g><g stroke-width=".4" fill="#30C2DC" stroke="#0872A7"><path d="M276 293s-3-1-2.7-2c.2-1 6.6-2.7 6.6-2.7l.1-1.7s-1 0-2.5.5v0c-2.26.76-4.62 1.16-7 1.2 -1.6 0-2.5-.2-3-.3l0-.001c-7.73-.53-15.47-1-23.2-1.4v0c-.4.01-.81.01-1.2 0 -3-.3-4.9-4.8-4.9-4.8l-1.4.2s.4 2.3-.3 2.5c-1.5.4-11.1-4.8-11.1-4.8l-.6 2.1s6 3.2 5.8 4.3c-.2 1.2-2 1.1-2 1.1l.8 1.4c.3 0 9.7.5 9.9 3.3 0 1.2-2.3 1.9-2.3 1.9l.8 1v.4s5.2 0 6.7.9c1.4.8 2.2 2 4 3h0c5.19.81 10.48.88 15.7.2 2.1-.6 3.4-3 6.9-4 3.5-1.1 4.6-1.2 4.6-1.2Z"/><g fill="#FFF" stroke-width=".8"><path d="M227.6 286.9a1.7 1.7 0 1 0 0 3.4 1.7 1.7 0 1 0 0-3.4Z"/><path d="M237.2 279.1a1.7 1.7 0 1 0 0 3.4 1.7 1.7 0 1 0 0-3.4Z"/><path d="M277.2 291.5a1.7 1.7 0 1 0 0 3.4 1.7 1.7 0 1 0 0-3.4Z"/></g></g><path fill="#F8C83C" d="M220.1 278.3c-.5 1.2 1.6 3.6 3.1 3.9 1.5.2 2.4-.1 2.6-.9 .3-.7 0-1.5-.3-2 -1-1.3-4.8-2.3-5.4-1Z"/><path fill="#FFF" d="M224.8 280.2c0-.8-1.3-1.5-2-1.5s-1.7 0-1.5.4c.1.4 2.2 1 2.2 1.2 0 .2-.6.5-.3.8 .4.3.8.1 1.1-.1 .4-.3.6-.4.5-.8Z"/><path fill="#F8C83C" d="M238.2 294.6c.3 1.1-.6 1.7-1.7 2.2 -1.1.5-3.4.2-4-.7 -.4-1 1-2.4 2.3-2.7 1.4-.3 3 .2 3.4 1.2Z"/><path fill="#FFF" d="M235.8 295.3c.5-.1.5.6.9.6s.7-.7.6-1.1c-.1-.5-.8-1-1.5-1 -.6 0-2.4 1.6-2.2 2 .2.5.6.4 1 .2 .3-.1.8-.7 1.2-.7Z"/><path fill="#F8C83C" d="M279.4 288.8c1 1.4 2.8.1 3.3-.4s2-1.4 1.4-2.2c-.6-1-1.7-.9-2.4-.8 -.7 0-2 1-2.3 1.5 -.3.5-.5 1.3 0 2Z"/><path fill="#FFF" d="M279.7 288s.1-1.5 1.5-1.6c.7 0 .8.2 1.4.6 .5.3.8-.5.8-.5s0 1-1 1.1c-.9 0-.5-.4-1.5-.6 -.8 0-1.2 1-1.2 1Z"/><g stroke-linecap="round" stroke-width=".4" stroke="#953220" fill="#F9AA51" stroke-linejoin="round"><path d="M257.5 285.1l-.7-.4h-5l2.7 8 3.3 4.6 1.2.4 2.5-.1 .5-1.3 -1-7.6 -3.5-3.6Z"/><path d="M248.5 285.6l.1-.9 1.5-.1v0c.56-.09 1.14-.06 1.7.1 .1 0 2 2.3 2.5 3.8 .6 1.4 1.4 3.8 2.2 5.3v0c.77 1.36 1.61 2.7 2.5 4h-3.2l-1.5-.5 -4.6-7.2 -1.2-4.5Z"/><path d="M246.6 284.6l2 .1c.2.1 2.3 2 3.1 4.2 .9 2.3.4 2.6 1.5 5 1 2.3 2.6 4 2.6 4s-3.2 0-5-.2c-1.7-.3-2.3-.3-2.7-.8h-.001c-.43-.39-.9-.73-1.4-1h-1.8l.5-2.5 -.5-5.5V285l1.7-.4Zm18.7 1.5l-3-1.2 -5.5-.3 .4 2.8c.2 1.4 1.2 4.6 2 6.2 1 1.6 1.9 3.5 2.4 4 .4.4 3.6-.9 3.6-.9l2.1-.3 -.3-2.3 -.3-.7 .5-6.4 -.4-1h-1.5Z"/><path d="M245.7 286.1c0 .7.7.8 1 .7 .1 0 .8-.3.8-1.2 0-.9-.6-1.7-1.8-1.8 -1.1 0-2 1.4-2 2.4s1 1.5 1 1.9c0 0-1 .9-1 2.5s1.4 2.8 1.4 2.8 -1.4 1.1-1.4 2.2 1 1.9 2 1.9 2.3-.7 2.3-1.5c0-.9-.8-1.4-1.4-1.4 -.6 0-.9.4-.9.7m20.5-8.7c0 .7-.4.7-.8.7s-.9-.2-.9-1.1c0-.9 1.1-1.3 1.9-1.3 .7 0 2 1 2 2.2 0 1.2-1 2-1 2s.6.3.6 1.8 -1 2.6-1 2.6 1.3.5 1.3 2.1 -1 2.1-1.8 2.1 -2.1-.5-2.1-1.5 .7-1.5 1.2-1.5 1 .6 1 1.2"/></g><path fill="#953220" d="M247.6 295l.3.4c.2.3.3.8.6 1 .7.7 5.8.9 7.4.9 1.6 0 6.2.2 7.1-.3 1-.6 1-1.4 1.5-1.8l.7-.4 -.6.6v1l.3.7s0 .3-.6.6c-.6.4-1 .5-1.8.6 -.8 0-10.6 0-12.2-.2 -1.6-.3-1.5-.3-2-.6v0c-.27-.2-.51-.44-.7-.7l.3-.7 -.3-1.2Zm16-9.5l.8.4s-.7.2-1.3 1.8c-.6 1.5 0 2-.5 2.2H258l-.7-1.8 6.3-2.6Z"/><g fill="#231F20"><path d="M277.1 284.9s-.7-.3-1-1c-.4-.5-.7-1.3-.4-1.4 .3-.2.8.3.8.8s.6 1.6.6 1.6Zm8.4-2.3l.7 1 1 .5s-1.2 0-1.6-.3v0c-.31-.38-.58-.78-.8-1.2h.7Z"/><path d="M288 283.3s-.7.4-1.3.2c-.6-.2-1-.6-.9-.8 .3-.3.4-.2.7.2 .4.3 1.5.4 1.5.4Zm4.2-3.6s-.6.6-1 .6 -1.2-.2-1.2-.4 1-.3 1.2-.3l1 .1Zm-6.3-8.3s-1 .2-1.3.7c-.3.5-.2 1 .2 1s.5-.6.5-.7c0-.2.6-1 .6-1Zm-4.2 2.3s-.7.4-.9.8c-.2.4-.3 1.2 0 1.3 .5 0 .6-.7.7-1l.2-1.2Z"/></g><path fill="#8CBEBF" stroke="#04534E" stroke-width=".4" d="M274.2 278.7l-2.3 2.4s5.3 3 9.4 2.8c4 0 8.6-3.3 9-4 .2-.6 0-3.4-.5-4.3 -.6-.9-3.4-3-4.4-3 -1 .1-3 1.6-4.7 3.2 -1.7 1.7-1.6 3.2-4 3l-2.5-.1Z"/><path fill="#0C8489" d="M273.6 279.7s5.7.8 7.3-.6c1.6-1.5 3.4-4.3 4.5-5 1.2-.6 1.7-.6 1.7-.6l1.2 1 1.5 1.1 .4 2.7v1.5l-1.7 1.4 -3.3 1.5 -3 1 -2.7-.1 -5.3-1.6 -1.4-.9 -.3-.3 1.1-1.1Z"/><path fill="#04534E" d="M282.2 276.4c0-.5.4-.4.8-.4s.9 0 .9.5 -.5 1.2-1 1.2c-.3 0-.7-.8-.7-1.3Zm2.3 1.4c0-.4.3-.6.8-.6 .6 0 1 .6 1 1s-.4.8-.9.8 -.9-.7-.9-1.2Zm-.8 3.4c0-.5.4-.6.9-.6s.8.2.8.7c0 .5-.4 1-1 1 -.4 0-.7-.5-.7-1Zm-3-1c0-.6.6-.8 1-.8 .5 0 .9.5.9 1 0 .6-.4 1.1-.8 1.1 -.5 0-1-.7-1-1.3Zm-4.7.6v0c0-.64.51-1.15 1.15-1.15 .63 0 1.15.51 1.15 1.15v0c0 .63-.52 1.15-1.15 1.15 -.64 0-1.15-.52-1.15-1.15Z"/><path fill="#8CBEBF" d="M284.5 277.8c0-.4.5-.6.8-.6 .4 0 .6.3.6.7 0 .4-.2.7-.5.7 -.4 0-.9-.4-.9-.8Zm-.8 3.3c0-.5.5-.7 1-.7 .4 0 .8.2.8.7 0 .5-.4.8-.9.8s-.9-.4-.9-.8Zm-3-1c0-.5.9-.7 1.2-.7 .3 0 .3.3.3.8s-.3.9-.6.9c-.4 0-.8-.5-.8-1Zm1.5-3.7c0-.5.3-.5.6-.5s.5.1.5.6c0 .4-.2.8-.5.8s-.6-.5-.6-1Zm-6.2 4c0-.5.5-1 1.1-1 .7 0 1.4.2 1.4.7 0 .6-.8 1.5-1.5 1.5s-1-.7-1-1.2Z"/><g fill="#231F20"><path d="M278.2 279.5s-.8.1-1.2.5c-.4.4-.5.9-.2 1 .2.1.5-.3.5-.5l.9-1Zm3.7-.8s-.7.5-.8 1c0 .6 0 .8.2.8s.3-.6.3-1c-.1-.2.3-.8.3-.8Z"/><path d="M282.5 279.5s-.4 0-.8.3c-.3.3-.6.7-.4.7 .2 0 .6-.1.6-.3 0-.2.6-.7.6-.7Zm.8-4.4l-.5.5c-.2.2-.5.7-.2.9 .2 0 .4-.1.6-.5 .2-.4.2-.9.2-.9Zm2.9 1.8s-.7.1-1 .5c-.2.3-.4.6 0 .6s.3-.1.5-.4c0-.3.5-.7.5-.7Zm-.5 3.4s-.1.5-.6.7c-.4.3-.5.5-.7.2 -.2-.4 0-.5.3-.6v-.001c.33-.11.66-.21 1-.3Z"/></g><path fill="#04534E" d="M290.3 278s.3 1.6-1 2.3c-1.4.8-5.2 3.5-8.8 3.2 -3.6-.4-7.7-2.4-7.7-2.4l-.5.3 .9.4 2.8 1.1 3.1 1h2l1.7-.1 3.2-1.1 2.7-1.4 1.4-1 .3-.5v-1.6l-.1-.2Z"/><path fill="#231F20" d="M219.9 257.8s.8.7.8 1.3c-.1.6-.3.8-.6.7 -.2 0-.2-.7-.2-1v-1Zm6.2 5.7s-.3 1-.7 1.1c-.4.1-.7-.3-.7-.5 .1-.2.5 0 .7-.2l.6-.4Zm-13.4.8s.3.6.8.7c.6.1.8-.3.7-.5h-.6l-1-.2Zm2.4 4.7s.5.6 1.1.6v0c.46.08.91-.17 1.1-.6 0-.1-.8-.1-1 .1 -.3.2-1.2-.1-1.2-.1Zm4.2 3.6s1-.2 1.3-.5c.2-.3.4-.8.2-1 -.2-.4-.4.3-.5.6l-1 .9Z"/><path fill="#8CBEBF" stroke="#04534E" stroke-width=".4" d="M226.1 269.7s.7-4.9-3.2-8.3c-4-3.4-6.5-2.6-7.9-1.3 -1.3 1.2-2.5 5.4 1.7 9 4.2 3.6 9.3 2.5 9.3 2.5l.1-1.9Z"/><path fill="#0C8489" d="M214 264.6s0-2.7 1.3-3.5v0c2.68-1.43 6.01-.41 7.43 2.27 .02.04.04.08.06.12 2 4 2 6 1.5 8h-2.2l-3.4-1.4 -2.8-2.1 -1.8-3.4Z"/><g fill="#04534E"><path d="M225.6 270.4s-.7.8-2.1.7c-1.5 0-8-1.8-9.7-7.7v1.3l.1.4 .5 1.2 1.4 2 1.7 1.5 2.2 1.2 1.6.4 2 .4h1.2l1-1.4Z"/><path d="M222.1 268.7c0-.5.3-.5.7-.5 .4 0 .8-.2.8.3s-.3 1.3-.7 1.3c-.5 0-.8-.6-.8-1Zm.3-3.1c0-.4.3-.7.8-.7s.7.3.7.7c0 .3-.3.6-.7.6 -.4 0-.8-.3-.8-.6Zm-3 3.4c0-.3.4-.5.9-.5 .4 0 .8.2.8.5s-.8.7-1.3.7 -.4-.4-.4-.7Zm-.3-3.7c0-.4.3-.3.7-.3 .4 0 .9.1.9.6s-.5 1.1-1 1.1c-.3 0-.6-.9-.6-1.4Zm-2.7.7c0-.4.2-1 .7-1 .5 0 1 .6 1 1 0 .3-.4.7-.9.7s-.9-.4-.9-.7Zm.5-3.3c0-.4.2-.4.7-.4 .5 0 1 .2 1 .6 0 .4-.6 1-1.1 1 -.6 0-.6-.8-.6-1.2Zm3-.3c0-.4.3-.3.8-.3s.8.3.8.7c0 .4-.6.8-1 .8 -.5 0-.6-.8-.6-1.2Z"/></g><path fill="#8CBEBF" d="M216.9 262.6c0-.3.2-.5.6-.5 .4 0 .7 0 .7.5 0 .4-.3.7-.7.7 -.3 0-.7-.3-.6-.7Zm-.6 3.2c0-.4.2-.8.6-.8 .4 0 .7 0 .7.5s-.3.8-.7.8c-.4 0-.6 0-.6-.5Zm3.5-3.4c0-.3.3-.3.7-.3 .4 0 .7 0 .7.4 0 .3-.4.5-.7.5 -.4 0-.6-.3-.6-.6Zm-.6 3.1c0 .4.3.8.7.8 .4 0 .8-.4.8-.8s-.5-.8-.8-.8c-.5 0-.7.4-.7.8Zm3.3-.5c0 .4.4.8.8.8s.8-.4.8-.8c0-.3-.4-.7-.8-.7s-.8.4-.8.7Zm-3.2 4c0-.3.3-.7.7-.7 .4 0 .7.2.7.6 0 .3-.6.8-1 .8 -.3 0-.4-.4-.4-.7Zm2.9-.5c0-.4.3-.5.7-.5 .4 0 .7 0 .7.5s-.4.8-.8.8c-.5 0-.7-.4-.7-.8Z"/><g fill="#231F20"><path d="M223 263.6s.4.5.5 1l-.1.9c-.2 0-.4-.3-.5-.7v-1.3Zm-2.6-2.7s.3.4.3.8 0 .8-.3.8c-.2 0-.2-.4-.2-.7l.2-1Zm-3 .4s.3.4.3.8 0 .8-.2.8 -.2-.4-.2-.7l.1-1Z"/><path d="M216.4 261.8l.7.4c.4.3.5.6.4.7 -.2.2-.5 0-.5-.2l-.6-.9Zm2.3 3.1s.5 0 .9.3c.3.3.5.6.3.8 -.1.2-.6-.2-.8-.4v0c-.15-.23-.29-.46-.4-.7Zm-2.8 0l.8.2c.3.2.3.6.2.7 -.1 0-.3 0-.5-.3l-.5-.7Zm6.7 2l.1 1c0 .5.1 1-.1 1s-.3-.6-.3-1l.3-1Z"/><path d="M221.8 268l.7.3c.2.2.2.5 0 .5l-.3-.4 -.4-.5Zm-3 .1l.8.2c.2.2.2.8.2 1 0 0-.4 0-.5-.4h0c-.12-.28-.25-.55-.4-.8Z"/></g><path fill="#04534E" d="M217.7 259s-2.6.6-3 2.3c-.6 1.7-.6 3.6-.6 3.6l-.4-2.2 .6-1.3 .7-1.3 1.2-.7 1-.4h.5Zm8.2 10s.2-.6-.5-2.6c-.8-2.1-2.4-4.8-2.4-4.8l1.2 1.4 1 1.6 .5 1.4 .4 1.3v1.3l-.2.5Z"/><path fill="#231F20" d="M228.5 265.7s1 .6 1 1v.5c-.3 0-.7-.3-.8-.5l-.2-1Zm-3.8 10.3s.4-.8 1-1c.6-.4 1-.3 1.1-.2 .2.2-.3.7-.7.8l-1.4.4Zm6.4 2.5s.7-.3 1-.8c.5-.4.5-.7.4-.9 -.2-.1-.7.1-1 .5l-.4 1.2Zm-.7-.6s.2-.8.5-1.1c.2-.3.5-.4.7-.3 .3.2.1.5 0 .7l-1.2.7Z"/><path fill="#8CBEBF" stroke="#04534E" stroke-width=".4" d="M241.2 273s-4-5.8-10.3-6.1c-5-.3-6.5 4.2-6.3 5.5 .1 1.4 2 4.3 8.7 4.7 6.6.5 7.7-3 8-3.3 .2-.1-.1-.8-.1-.8Z"/><path fill="#0C8489" d="M236.5 269s1.6 1.3 2.3 2.3c.7 1 .9 1.7.5 1.8 -.4.2-4-3.2-7-3.9 -3-.7-5.5 0-6.1 1.4 -.6 1.4-.4 3.5 1 4.4 1.3.9 7.7 2 7.7 2l3-.5 1.8-1 .4-1 .4-1.4 .2-.5 -1.5-1.7 -2.7-1.9Z"/><path fill="#04534E" d="M231.4 269.8c0 .4-.4.6-.8.6s-.7-.2-.7-.6c0-.4.3-.7.7-.7 .4 0 .8.3.8.7Zm-3.7 1.3c0-.3.4-.3.9-.3s.7.3.7.6c0 .4-.7 1-1 .8 -.5-.3-.6-.7-.6-1Zm4 2.2c0-.5.3-.9.8-.9s1 .4 1 .9 -.7 1-1.2 1 -.7-.5-.7-1Z"/><path fill="#8CBEBF" d="M228.7 274.2c0-.4.4-.5.8-.5 .3 0 .8.4.8.8s-.5.7-.8.7c-.4 0-.8-.6-.8-1Z"/><path fill="#04534E" d="M234 275.6c0-.3.2-.6.5-.6 .4 0 .8.2.8.5s-.3.7-.7.7v0c-.34 0-.6-.27-.6-.6Zm2.4-1.8c0-.4.2-.4.6-.4 .5 0 .9.3.9.7 0 .4-.5.6-1 .6 -.4 0-.5-.5-.5-1Z"/><path fill="#8CBEBF" d="M231.1 269.5c0 .3-.1.5-.4.5 -.4 0-.8-.2-.8-.5 0-.4.2-.5.5-.5s.7.1.7.5Zm-1.9 1.5c0 .4-.5.6-.9.6s-.5-.2-.5-.6c0-.3.2-.4.6-.4 .3 0 .8 0 .8.4Zm.9 3.1c0 .3-.1.6-.5.6s-.9-.3-.9-.6 .2-.5.5-.5c.4 0 .9.2.9.5Zm3.1-1c0 .3-.6.7-1 .7s-.5-.6-.5-1c0-.3.3-.6.7-.6 .3 0 .8.5.8.9Zm4.7 1c0 .3-.6.3-1 .3 -.2 0-.5-.4-.5-.8 0-.3 0-.6.9-.5 .3 0 .6.6.6 1Zm-2.8 1.3c0 .4-.2.7-.6.7v0c-.34-.001-.6-.27-.6-.6 0-.4.3-.5.6-.5 .4 0 .6.1.6.5Z"/><g fill="#231F20"><path d="M235.6 273.5s.6-.2 1-.1c.6 0 .6.2.6.3l-.6.2 -1-.4Zm-2.7 2.3l.9-.4c.4 0 .7 0 .6.3 0 .3-.1.3-.5.3l-1-.2Zm-1.8-4s1.1.5 1.4 1c.2.4.3.5 0 .6 -.2.2-.4-.1-.6-.3h-.001c-.28-.43-.55-.87-.8-1.3Z"/><path d="M230.8 273.3l1.3-.3c.4 0 .5 0 .5.2s0 .3-.4.3l-1.4-.3Zm-2.7 0s1 .1 1.2.4c.2.2.2.4.1.6 -.1.1-.5 0-.7-.1 -.2-.1-.6-.9-.6-.9Z"/><path d="M228 274.6s.3-.5.7-.6c.3-.1.7 0 .8 0 0 .3-.3.5-.6.6h-1Zm-.7-4l.9.2c.3.3.4.5.3.6h-.7c-.4-.3-.6-.8-.6-.8Zm2-2.4s1 .3 1.2.7c.3.4.3.7.2.8l-.8-.4 -.6-1.1Z"/></g><path fill="#04534E" d="M240 275s-1.9 1.6-6.2 1.5c-4.3-.2-8.3-2-9.2-4l.4 1 1 1.2 3 1.6 3.4.7 2.7.2 2.5-.4 2-1 .3-.5 .2-.3Zm.6-2l-1.7-2v0c-1.62-1.22-3.28-2.35-5-3.4l3.2 1.4 2.1 1.8 1.5 1.6v.5Z"/><g fill="#231F20"><path d="M240.8 269s1.1.5 1.3.8l.4.5s-.3.7-.5.4l-.6-.7h-.001c-.23-.32-.43-.66-.6-1Zm3.3-1.7s1 .5 1.3 1c.4.5.3.9.2 1 -.2 0-.9-.6-1-.8 0-.3-.5-1.2-.5-1.2Z"/><path d="M245 267.1s1 .7 1.2 1c.2.4.5.8.2 1 -.3 0-.8-.5-1-.8l-.3-1.2Zm5.6 1.3s.7.3.8 1v1l-.6-.6v-.5l-.2-.9Zm1.4.5s.6.6.7 1c0 .4.1.7-.2.7 -.3.1-.5-.3-.5-.6v-1Zm-9.8 12s.5.2.9 0c.5-.1.8-.5.7-.8 0-.2-.3-.5-.6-.1 -.3.3-.2.5-.4.6l-.6.3Zm5.4 1.5s.7-.1 1.2-.7c.5-.5.7-.9.4-1 -.3-.1-.8 0-.9.4v0c-.17.46-.4.9-.7 1.3Zm4.4.1l1-.7c.4-.4.7-.6.4-1 -.3-.2-.5 0-.7.1l-.1.6h-.001c-.18.34-.38.68-.6 1Z"/><path d="M253.4 282.5s.6-.7.7-1.1c.1-.4.2-.9 0-.8 -.3 0-.6.4-.7.6l0-.001c-.01.43-.01.86 0 1.3Z"/></g><path fill="#8CBEBF" stroke="#04534E" stroke-width=".4" d="M239.9 275.3c0-2 2.8-6.5 6-6.4 1.3 0 4 .7 6 1.7 1.8.8 2.4 1.6 3.5 2 1.2.2 3 0 3 0l4-.5 -3.2 4.6 -1 1s-1 2-4 3c-2.7 1.1-7.5.3-9.7-.2 -2.1-.5-4.7-2.6-4.6-5.2Z"/><path fill="#04534E" d="M239.9 275.3h.2c0-.4.2-1 .5-1.7v0c.5-1.13 1.21-2.15 2.1-3 1-.9 2-1.5 3.1-1.5h0c2.06.27 4.07.81 6 1.6l-.001 0c.72.28 1.4.69 2 1.2v0c.9.72 2.04 1.08 3.2 1l1.4-.1 3.5-.4 -2.8 4.2 -1.2 1v0c-.86 1.39-2.17 2.44-3.7 3 -1 .3-2.2.5-3.5.5 -2.3 0-4.8-.5-6.1-.8v0c-1.14-.3-2.17-.89-3-1.7h-.001c-.92-.82-1.46-1.98-1.5-3.2v-.1h-.4v0c.01 1.36.59 2.66 1.6 3.6h0c.89.86 1.99 1.48 3.2 1.8 1.4.3 3.8.8 6.2.8v0c1.25.01 2.51-.19 3.7-.6 2.9-1.1 3.9-3 3.9-3.1l-.2-.1 .1.2 1.2-1 3.4-5 -4.5.5h-1.3 0c-.51.02-1.01-.02-1.5-.1 -.6-.1-1-.4-1.5-.7 -.5-.4-1-.8-2-1.2l0-.001c-1.07-.49-2.18-.89-3.3-1.2 -1.1-.3-2.1-.5-2.8-.5 -1 0-1.7.3-2.5.8h0c-1.06.73-1.95 1.69-2.6 2.8h0c-.61.89-.99 1.92-1.1 3h.2Z"/><path fill="#0C8489" d="M259.2 275.9c-.4.3-.7.3-1.1.3 -.5 0-9.3-5.4-12-5.2 -2.8.2-5.4 1.4-5.5 4.2 0 2.9.6 2.9 1.2 3.7 .6.8 6 2 6 2h3.2l2.7-.4 2.3-1.3 1.3-1 .9-1 1-1.3Z"/><path fill="#04534E" d="M245.2 274.5c0 .5-.2 1-.8 1 -.5 0-.9-.3-.9-.9 0-.5.3-.7.8-.7s.9 0 .9.6Zm1-2.5c0-.4.4-.6.9-.6s.9.1.9.6 -.4.8-1 .8 -.9-.3-.9-.8Zm5.2 1.5c0-.4.4-.8.8-.8s.8.4.8.8 -.4.7-.8.7h0c-.39.05-.74-.22-.8-.6 -.01-.04-.01-.08-.01-.11Zm1 3.2c0-.5.4-1 1-1 .4 0 .8.3.8.8s-.2 1-.6 1c-.5 0-1.1-.3-1.1-.8Zm-2.5 2c0-.4.4-.7.9-.7s.8.3.8.8c0 .4-.3.7-.8.7 -.4 0-.9-.3-.9-.7Zm-4.9-.8c0-.4.4-.7.8-.7h0c.41-.16.87.05 1.02.47 .15.41-.06.87-.48 1.02 -.18.06-.38.06-.56 0v0c-.45 0-.8-.36-.8-.8Z"/><path fill="#8CBEBF" d="M245.2 274.4c0 .4-.4.8-.9.8v0c-.45 0-.8-.36-.8-.8 0-.5.4-.6.8-.6 .5 0 .9.1.9.5Zm2.5-2.5c0 .4-.1.7-.5.7 -.5 0-1-.3-1-.8 0-.4.3-.7.7-.7 .5 0 .8.3.8.8Zm5.2 1.3c0 .4-.4.7-.8.7s-.7-.3-.7-.7c0-.3.3-.6.7-.6 .4 0 .8.3.8.6Z"/><path fill="#04534E" d="M250.1 275.4c0 .6-.2 1-.7 1 -.5 0-1-.3-1-.9 0-.5.3-.7.9-.7 .6 0 .8 0 .8.6Z"/><path fill="#8CBEBF" d="M246.4 277.8c0 .4-.3.7-.8.7l0-.001c-.41 0-.75-.3-.8-.7 0-.5.5-.7 1-.7 .4 0 .6.2.6.6Zm3.6-2.5v-.001c0 .44-.36.8-.8.8v0c-.45 0-.8-.36-.8-.8v0c0-.45.35-.8.8-.8v0c.44 0 .8.35.8.8Zm4.2 1c0 .6-.3 1-.8 1v0c-.5.05-.95-.3-1-.79 -.01-.08-.01-.15 0-.22 0-.4.2-.6.7-.6 .5 0 1 .2 1 .7Zm-2.7 2.3c0 .4-.3.7-.8.7s-.9-.3-.9-.7c0-.5.4-.7.9-.7 .4 0 .8.3.8.7Z"/><g fill="#231F20"><path d="M251.8 276s1.3-.2 1.6 0c.2.3.2.6 0 .8l-.7-.1 -.9-.7Zm-1.3-4.3s1 .3 1.4.7c.4.4.4.8.3.9 0 0-.5.2-.7-.2l-1-1.4Zm-3 2s1.2.7 1.4 1c.3.4.4.7.2.9 0 .1-.7 0-.8-.3h0c-.27-.54-.53-1.07-.8-1.6Z"/><path d="M247 274.6s1.3.2 1.6.5c.4.2.6.2.6.4s-.2.4-.4.4l-1-.4c0-.2-.8-.8-.8-.8Zm-1.6-3.8s1.4.2 1.7.4c.3.2.3.8 0 1 -.3.2-.6-.2-.8-.4 0-.3-.9-1-.9-1Zm-2.9 2s1.3.6 1.7 1.2c.2.3.4.5 0 .6 -.4.2-.8-.5-.8-.6h0c-.26-.44-.56-.84-.9-1.2Z"/><path d="M242.3 274.4l1.1-.1c.4 0 1-.2 1 .1 0 .3-.5.4-.8.3l-1.3-.3Zm6.8 4.5s1-.6 1.3-.5c.5.1.6 0 .6.3s-.5.2-.6.2h-.001c-.4 0-.81 0-1.2 0Zm-4.8-.7s.4-.5.7-.6l.6.1c0 .2-.3.5-.5.5h-.8Z"/></g><path fill="#04534E" d="M258 277.3s-1.2 1.6-3 2.4c-2 .8-3.3 1-5.9.9h0c-1.97-.04-3.89-.55-5.6-1.5v0c-1.31-.63-2.44-1.55-3.3-2.7 -.3-.6.3 1 .3 1l1.5 2 2 .8 2.7.7 2.6.3h2l2.4-.4 1.6-.5 1-.7 .8-.6 1-1.7Zm-2.4-4.7s-.7.2-2.3-.7c-1.6-1-3.5-2.3-7-2.3 -3.6 0-4.8 2.4-5 2.6l1.6-2.1 1.6-1 1.3-.1h1.2l1.6.5 1.4.4 1.7.6 1.5.8 1.7.9 .7.4Zm4.8 1h-2.7c-.6.1-.6.2-.7.4h-.001c-.06.13-.13.27-.2.4l-.7-1.4 2.9-.4 1.6.6 -.2.5Z"/><path fill="#0C8489" stroke="#04534E" stroke-width=".4" d="M256.6 288.3c.1.4.4.8.8.8h1.4l2.8-.2 1-1.1 .6-2.6 .8-1 2.6-1.5 2.3-.6 1.5-.2 2-.7 1.5-.7 .6-1 .7-1.5 -.7-2 -1.6-2 -2.6-1.1H268l-2.5.9 -4.3 1s-2.5 1-3.5 3c-1 1.8-1 2.3-1.1 4.8 -.2 2.5 0 5.7 0 5.7Z"/><g fill="#8CBEBF"><path d="M257.7 287.4c.9 0 .2-1.4 1.2-3 1-1.7 2-3.7 2.4-3.7 .3 0 .3.3.7.2 .3-.1 1-.7 1-.8 0-.2 0-1 .7-1.7 .7-.6 1.8-1.4 2.2-1.5 .5-.1.7-.2.8 0 .1.2-.2.5.1.7 .3 0 1 0 1.3-.5 .2-.5.1-.7.1-.7s.5-.5 1.5-.3 1 .2 1.1.5c.1.4-.4.4-.3.7 .1.3 0 .2 0 .4 .1.2.3.8 1 .8 .6 0 .8-.4.8-.4l.2-.3s.2-.4 0-.6c-.3-.2-.2-.4 0-.2 .3 0 1.2 1.4 1.6.9 .3-.6.3-1.4.2-1.6l-1.6-2.2 -2.4-.9 -3.2.3 -3.2 1.8 -2.9 1.5s-.1 2.4-.6 2c-.6-.5-1.3-1.6-1.5-1.3l-1 3c-.3.9-1.2 3.5-1 4.5 0 1 .5 2.4.8 2.4Z"/><path d="M260.6 283.6l-.6.3v0c-.21.2-.29.51-.2.8 .1.3.6.6.6.6h.4l.7-.2s.3-.3.3-.7c0-.4-.2-.5-.3-.5l-.9-.3Zm5-4.1c-.5-.2-.7.1-.7.2v.5s0 .6.3.7c.2.1.8.3 1 .1 .2-.2.4-.3.4-.7 0-.4-.6-.6-.6-.6l-.4-.2Zm4 1c0-.2-.4-.3-.7-.3 -.3 0-.6.4-.5.9 .1.5.6.5 1 .4 .4 0 .3-.6.3-.7l-.1-.4Zm-11.6.7c0 .3.5.7 1 .7v0c.48 0 .9-.33 1-.8 0-.3-.3.3-.7.4 -.4 0-.7.2-.9 0l-.3-.3Z"/></g><g fill="#04534E"><path d="M261.8 284.4s0 .5-.3.8l-.8.2c-.2 0-.5 0-.6-.2l-.3-.6s.4.7 1 .5c.7-.1 1-.7 1-.7Zm10.7-6.6s0 .5-.4.7c-.4.2-.6.3-.8.2 -.2 0-.5 0-.6-.3 -.5-.7-.2-1.2-.2-1.2s.3 1.3 1 1.2c.7-.1 1-.6 1-.6ZM263 280s-.4 1-1 1c-.7 0-.6-.1-.6-.3 0 0 .3.2.6 0 .3 0 1-.6 1-.6Zm1.8-.1s0 .7.2 1c.2.2.5.3.8.3 .3 0 .5 0 .7-.3 .2-.3 0-.6 0-.6l-.1.3v0c-.14.19-.37.3-.6.3 -.2 0-.6 0-.7-.3l-.3-.7Zm3.4-3.5s.2.5-.2 1c-.4.4-1.2.2-1.2.2s.6.1 1-.2c.3-.4.4-1 .4-1Z"/><path d="M257.4 288.9s4.2 0 4.5-.7c.4-.5-.3-2.8 2.2-4.6 2.5-1.8 4.5-1.8 5.9-1.9 1.3 0 4.2-1 4.8-3.6 .3-1.6-1.9-1.7-2.7-3.2 -.8-1.5-2.9-.9-3-.9 0 0-2.4 0-3.5 1 -.6.7-.5 1.5-.9 1.8 -.2.4-3 0-3.3.5 -.3.4 0 1.4-.2 1.6 -.2.2-.8-.6-.8-.6l.2-2.3 3.5-2 4-2.3h2.8l2.8 1.5 1.4 1.6s.3.6.4 1.8l0 0c.06.53.03 1.07-.1 1.6v0c-.82 2.31-2.96 3.89-5.4 4 -2.4.1-4.6 1.2-5.6 2 -1.1.8-1.7 4.3-1.7 4.7 0 .5-5.2.2-5.2.2l-.1-.2Z"/></g><g fill="#231F20"><path d="M259.1 280.7c-.2.2-.5.1-.6-.1 -.2-.7.3-1.7.3-1.7v1.2c.1.2.3.2.4.3v.3Zm2.7-.6c-.2 0-.2-.7 0-1l1.3-1.1 -.5 1.2c-.1.3-.5 1-.8 1Zm-1 4.3c-.2 0-.3-.3-.3-.8s.8-1.3.8-1.3l-.2 1v.7c0 .3-.2.4-.3.4Z"/><path d="M262.7 283.2l-.8.7c-.4.2-.9.6-1.1.5 -.3 0 .1-.6.3-.7l1.6-.5Zm3.6-5.1l-.7 1c-.2.5-.3 1 0 1 .2.2.5-.6.5-.8l.2-1.2Z"/><path d="M267.6 279.9s-.3-.3-.9-.5c-.6-.1-.9 0-1 .2 0 .2-.4.4-.2.6l.7-.3c.1 0 .4-.2.7-.1h.8Zm-.7-3.5c.2.1.5-.2.8-.5l.5-1 -.8.5c-.3.2-.6.8-.5 1Zm5.5-.2l-1 .7c-.2.3-.5.6-.3.8 .3.2.5-.2.7-.4l.6-1Zm-1.6 3.7s-.2.5-.7.8c-.4.3-1 .4-1 .3 -.2-.2 0-.5.2-.6l.7-.2c.4 0 .8-.3.8-.3Z"/></g><path fill="url(#a)" d="M272.7 225.8a2.3 3.4 0 1 0 0 6.8 2.3 3.4 0 1 0 0-6.8Z" transform="rotate(8.70001)"/><g stroke-width=".2" fill="#FCCA3E" stroke="#AA8C30"><path d="M236.3 261.5l-1.4 3.5 1.1-.2 .7-3Z"/><path d="M237 260c-.6 0-1 .4-1 1 -.1.4.2.9.7 1 .5 0 1-.3 1-.9 0-.5-.3-1-.8-1Zm58.8 8.6l-3.4 3.2 1.4.3 2.3-3Z"/><path d="M297.3 267.3c-.6-.3-1.3 0-1.7.5v0c-.33.44-.23 1.07.22 1.39 .05.04.11.07.17.1 .5.3 1.3 0 1.6-.5v0c.32-.45.22-1.08-.23-1.4 -.06-.05-.12-.08-.18-.11Zm-87.1-16.9l1.8 3.9 .8-1 -2-3Z"/><path d="M209.5 248.7v0c-.43.39-.47 1.05-.1 1.5 .4.5 1 .6 1.5.2v0c.42-.4.46-1.06.1-1.5v0c-.31-.47-.93-.6-1.39-.29 -.05.02-.08.05-.12.08Z"/></g><g fill="#AA8C30"><path d="M237.3 260.2s.2.2 0 0c-.4 0-1.2.3-1.2.9 0 .5.4.8.8.8h-.6l-.2-.4 -.2-.4 .1-.5 .3-.4 .4-.1h.3l.3.1Z"/><path d="M236.5 262.5s-.2 0-.4.3l-.6.8 .7-1.9 .5.2 -.2.6Zm61 5.1s.3.3 0 0 -1.4-.2-1.7.4c-.2.6 0 1.1.5 1.3 .5.2-.2 0-.2 0l-.5-.4 -.1-.4v-.6l.4-.4 .6-.3h.5l.3.2 .3.2Z"/><path d="M295.5 269.8h-.6l-1.2.7 1.9-1.7 .4.5 -.5.5Zm-85.6-21.3s.3-.1 0 0c-.3.3-.6 1.2-.2 1.6v0c.37.32.92.32 1.3 0 .4-.3 0 .2 0 .2l-.6.3h-.4l-.5-.2 -.3-.5v-.6l.1-.5 .3-.2 .3-.1Z"/><path d="M211.2 251s-.2.2-.1.6l.2 1.2 -1-2.2 .5-.2 .4.6Z"/></g><path fill="url(#b)" d="M327.1-75.8a3.7 2.5 0 1 0 0 5 3.7 2.5 0 1 0 0-5Z" transform="rotate(62.9)"/><g fill="#E92736"><path d="M210 257s.8.2 1.2 0c.5-.3.5-.6.6-.7l.2-.7v0c-.17-.46-.44-.88-.8-1.2h-.8c-.1-.2 0-.4-.2-.5 -.2 0-1.3 1.3-1.1 1.5 .2.2.3-.1.4 0v1l.6.6Z"/><path d="M211.2 254.5c0 .2.5.8.7.8h.9c.1 0 .7-.5.7-.8l-.1-.6c-.1-.2 0-.8-.3-.9 -.2 0-.2 0-.3-.2 -.2 0 0-.3-.2-.5 -.1-.3-2 .8-1.8 1 .1.2.3 0 .4.2v1Z"/><path d="M215.4 254l-.1-1.4c-.2-.1-.5-.1-.6-.3 0-.1.3-.2.3-.4s-2 .1-2 .3c.2.3.5.1.5.3l-.4.5 .2.9c.1.1 0 .3.2.4l.5.1h1.1c.1-.1.2 0 .3-.4Zm17.5 10.3s.3.6.7.7h.7c.1 0 .5-.1.6-.3l.3-1.1 -.5-.6c0-.2.3-.2.2-.4 -.1-.2-1.6 0-1.6.2s.2.1.2.3l-.6.5v.7Z"/><path d="M235 263.6v1l.5.5h.9v0c.14-.14.25-.31.3-.5 .1-.2.5-.5.4-.6l-.1-.4c0-.1.3-.2.3-.4s-1.7-.8-1.7-.6c-.1.3.2.2.1.4 0 0-.6.4-.6.6Z"/><path d="M237.8 266c.2-.1.8-.7.8-1l-.1-.4 .4-.1c0-.1-1.3-1.3-1.3-1 -.1.2.2.3 0 .4h-.4l-.5.7c0 .1-.2.1-.1.3l.1.4 .7.7h.4Zm52.9 4.4s0 .6.3 1l.6.3h.6c.2 0 .7-.7.7-.9v-.7c0-.1.2 0 .2-.2s-1.3-.9-1.4-.6v.3l-.7.2 -.3.6Z"/><path d="M292.7 270.8l-.5.6v.7l.9.4v0c.14-.04.28-.11.4-.2 .2 0 .7-.1.7-.3v-.3c.1-.1.3 0 .5-.2 .1-.1-1-1.3-1.1-1.2 -.2.2 0 .3 0 .3l-.9.2Z"/><path d="M293.2 273.8h1l.3-.4 .3.1c.2 0 0-1.5-.1-1.4 -.2 0-.1.3-.2.3 -.2 0-.3-.2-.4-.3l-.7.1c-.2.1-.3 0-.4.2l-.1.3v.9l.3.2Z"/></g><path fill="#F7E204" d="M211.3 255.3c.2.2 0 .8-.2 1 -.1.2-1 0-1-.2v-.7c.1-.1.4-.5.7-.5 .2 0 .5.3.5.4Zm.3-1.2c-.1.3 0 .5.2.6 0 .2.7.3 1 .2 0 0 .4-1.1.2-1.3 0-.1-.4-.2-.6-.1v0c-.3.15-.57.35-.8.6Zm2.2-1v.6s.5.4.8.4c.2 0 .3-.8.3-1 0-.2 0-.1-.2-.2l-1 .2Zm20.9 11c0 .3-.6.5-.8.5 -.2 0-.5-.7-.4-.8 0-.1.2-.3.4-.3h.7v.6Zm.8-.5c-.2 0-.2.3-.2.5 0 .1.2.6.4.7 .2 0 1-.4 1-.6l-.3-.4 -.9-.2Zm2 .8c-.2 0-.4.3-.4.4 0 0 0 .5.2.7 .2.1.7-.2.8-.3v-.3l-.6-.5Zm54.8 6.6c-.2.1-.7 0-.8 0 -.2 0-.2-.9 0-.9 0 0 .3-.2.4-.1 .2 0 .5.2.5.4v.6Zm.8 0l-.5.2v.8c.1.1 1 .2 1 0 .2 0 .1-.4.1-.4l-.6-.6Zm.9 1.6h-.5l-.3.6c0 .2.5.3.6.3 .1 0 .2 0 .3-.2l-.1-.7Z"/><path fill="url(#c)" d="M398.3-35a1.8 3.6 0 1 0 0 7.2 1.8 3.6 0 1 0 0-7.2Z" transform="rotate(47.9)"/><path fill="#A8AC71" d="M228.6 223.4s-3 .3-5.2 0c-2-.4-1.6-5.9-1.7-6 0-.2-1.3-1.5-1-2.7 .2-1.2 4-4.4 4.6-4.6 .4-.1 1.2.2 1.2.2s1-1 1.3-1c.3 0 .7.6.6.8 -.2.3-1.5 1-1.6 1.7 -.1.6 0 1.2-.4 1.8 -.4.6-1.1 1.4-1.2 1.9 -.1.5-.3 1 0 1.1 .4.2 1.7 0 2.8-.5 1.1-.5 1.6-1.1 1.7-1 .2 0-.6 1.3-1.8 1.8 -1.3.5-2 1.1-2.7 1 0 0-.6 1.6 1.4 1.7 2.1.1 3.3-.4 3.3-.4l-1.3 4.2Zm-12 12.8s1.7.6 1.7 2.4c0 1.8-1.8 3.3-1.7 6.5 0 3.2.5 3.2 4.7 6.6 .1 0 1 1 1.2 2 .3 1 1 7 5 7s4.6-2.5 4.6-2.5l-1.7-2.5s-1.4.4-2.2.2v-.001c-.84-.26-1.5-.89-1.8-1.7 -.5-1-.6-3.3-1.3-4.3 -1.7-2.5-4.7-3-4.7-5.6 0-2.7 1.9-3 1.3-6.1 -.6-3.1-4.3-4.7-4.3-4.7l-1.5-.6 -.5 3.1 1.3.2Z"/><path fill="#F1A720" d="M227.8 214.1c1.3-.3.5-3.8.5-3.8l-.9.7s.6.8.6 1.6 -.2 1.5-.2 1.5Z"/><path fill="#A8AC71" d="M230.2 249.2l-.7-.6c-.4-.3-2.6-2-2.2-7 .4-5.8 8.7-8.8 9.2-11.1 .7-2.6 2.6-3.7-4.1-8.9l-1.6 1.9 2.8 2s.6-.3.6.5c0 .7-.7 1.4-1 2 0 .5-4.2 3.4-4.5 3.7l-2.4 2s-1.1 1-2.1 3.2 -.5 5-.5 5 0 6.2 6.5 7.3Z"/><path fill="#78732E" d="M226.2 252.4l.4 2.2 -1.3.5h-.6l-.4.1 -1 1h-.3l-.2-.7h0c-.03-.37-.06-.74-.1-1.1l1.2.5h.5l.3-.1 .5-1.2 1-1.2Zm-4 .4l-.5-.8 -.8-.7 1-.5h1l-.2 1.2 -.4.8Zm2.3-3.5s.6.3.8.8l.5 1 -1.6-.1 -1.1-.4 .7-1 .7-.3Zm-.6 9.6s-.3-.2-.5-.7l-.3-1.3 1-.2 1.2.5h.3l-.3.6 -1.1 1h-.3Zm4-3.3s-.8-.3-1-.7c-.1-.5-.2-.4-.2-.4l-.3 1.2 -.4 1.2 .1.2 1-.3 .6-.7 .3-.5Zm-3.7 3.8l1 .6c.7.4 1 .4 1 .4l.6-.5 .4-1 .1-.1 -2.5.2 -.6.4Zm3.5-1l2.1-1.2 .1-1.1 -.4-.3h-1.2l-.3 1.4 -.3 1.3Zm-1.5 2s1.5.7 4-.2c1.2-.5 1.4-1 1.4-1l-1-.4 -1 .8 -3.4.8Zm-2-16.2l-.3-1 -.1-1 .7.4 1.1.8 -.7.6 -.7.2Zm1.8 3l-.7-.8v0c-.19-.33-.36-.66-.5-1l.8.2 .9.5 -.4 1.1h-.1Z"/><path fill="#C6C7A6" d="M221.3 213.7c-.2.5-.4 1.4.3 1.6 .4 0 2 0 3.7-2 .8-1 .8-2 .8-2l.4-1s-.7-.5-1.8.2h-.001c-1.21.98-2.35 2.05-3.4 3.2Z"/><path fill="#1C242F" d="M226 210.6a.3.3 0 1 0 0 .6 .3.3 0 1 0 0-.6Z"/><path fill="#A8AC71" d="M223.8 211.2c-.8.6-1.4 1.3-1.4 1.3s1.1-.3 2-1.1h0c.61-.51 1.41-.73 2.2-.6 .2 0 .1-.3 0-.4 -.3-.2-1.1-.3-1.3-.2 0 0-.8.4-1.5 1Z"/><g fill="#78732E"><path d="M227.3 243.6v-1.8l-.7.6 -.7 1 1 .3 .4-.1Zm-3.6-2v-1.9c0-.9.4-2.5.4-2.5l.4 1.1 1.3 2 .4.3 -1 .7 -1.2.4 -.3-.1Zm3.6-.6l.2-.8 .4-1 -1.1 1 -.5.4 .6.5h.5m-3-4.7s.2-.6.7-1.3l1.1-1.5 .5 2 .3 1.6v.3l-.5.2c-.1 0-1.3 0-1.5-.3l-.6-1Zm3.8 2.2l.7-.7 .8-.8 -2.6.5 .4.8 .7.2Zm-1.5-5.3l.9-.8c.7-.7 1-.6 1-.6l.3 2.8 -1.3-.4 -1-1Z"/><path d="M229.8 237l1.6-1.6 -2.6-.8 .5 1.8Zm1.1-4.2l.2-2.7 -1.2.8 -1 .8 .3.4 1 .6h.7Zm2.3-2.6v-2l-.9.9h0c-.22.18-.42.38-.6.6l.7.4 .8.1Zm1 2.8l1.2-1h-.001c.47-.37.87-.81 1.2-1.3l-3.3-.3 .1 1.4 .8 1.2Zm-7.8-11v1.5h2.7l-.7-1 -.8-.5 -.8-.8Zm5.4 13l1.2-1 1-.8 -2.7-.3 .1 1.8 .4.3Zm5-4.8s.3-1 .3-2v0c0-.51-.07-1.02-.2-1.5l-2 1.3 .3 1 .8.9 .8.3Z"/><path d="M233.4 227.8s.6-.7.7-1.1v-.3h1.6l.9.1 .1.1 -.7.8 -1 .6 -1.2.1 -.4-.3Zm3.2-1.5l-1-1.7 -.6-.8 -.8 2.2v.3h2.4Z"/></g><path fill="#FFF" d="M217.3 241.8l-.3.6s1-.6 1.9-.5c.8 0 1.7 1 1.7 1l.2-.7s-1.1-1-1.8-1.1c-.7 0-1.7.7-1.7.7Zm.5-4.7l.3.3c0 .1 0-.7 1.1-1.2 1-.4 1.7 0 1.7 0s-.2-.7-.7-.8c-.5-.1-1 0-1.5.4 -.6.4-.9 1.3-.9 1.3Zm3.6 3.5s-.5-1-1.4-1.3c-.8-.2-1.9.5-1.9.5l-.2.5s1.2-.6 2-.3c.9.4 1.3 1.4 1.3 1.4l.2-.8Zm-4-4l.3.3s-.2-1 .4-1.7l.9-.8 -.5-.2s-.7.5-1 1c-.2.5-.2 1.1-.1 1.3Zm-.5-2c.3-.5 1-.7 1-.7l-.3-.2h-.3s-.4.2-.7.8c-.3.7-.3 1.6-.3 1.6l.5.2s-.1-1 .1-1.6Zm6.3-15.2c.7-.4 1.2-.3 1.2-.3s-1 1-.5 2.3c-.6 1-.8 1.9-.8 1.9h.6l.3-1.5v0c.36.67.87 1.25 1.5 1.7h.8s0-1 .5-2v0c.42.52.97.94 1.6 1.2v-.3s-.9-.5-1.4-1.2v-.1c.6-1 1.4-1.3 1.4-1.3l.6.4 .1-.1 -.4-.6h-.5l-1.4 1.4v0c-.25-.42-.45-.85-.6-1.3h-.4s-.8 0-1.6 1.3c-.1-1 1-2 1-2l-.1-.3 -2 .4c-.7.3-1.2 1-1.2 1v.6s.7-.8 1.3-1.2Zm1.2 1.7c.5-.7 1.5-1.2 1.5-1.2s0 .6.7 1.3c-.4.8-.6 1.9-.6 1.9s-.9-.6-1.6-1.6v0c-.05-.1-.08-.2-.1-.3v0c-.01-.04-.01-.07 0-.1Zm-6 16.9v.6s.6-.7 1.5-.7c1 0 1.8.7 1.8.7v-.9c-.2 0-1-.5-1.7-.5 -.8 0-1.7.8-1.7.8Zm17-9v0c-.12-.27-.22-.53-.3-.8l.4-.2v-.001c.5-.39.97-.83 1.4-1.3l-.3-.4h-1.3l-1.1-.1 .4-1.4 .4-1.1 -.4-.4s.1.4-.7.5v0c-.77-.11-1.52-.35-2.2-.7v.4l2 .5 1-.2v-.001c-.2.31-.37.65-.5 1l-.2.8 .2.1 -.1.7 1.1.1 1.4.1s-.7.8-1.4 1.1v-.001c-.1.04-.2.07-.3.1l-.8-1.2v.4l.5 1 -1.2-.2 -.3.3v2l-1.4-.4 -.3.2 -.3.2s-.3 1.2-.3 2.6c-1.2-.3-1.9-1-1.9-1l-.3.2s-.2 1.2.1 2.6v0c-.76-.23-1.45-.64-2-1.2l-.4.4 .4 3.5 .1.3v0c-.2.01-.41.01-.6 0 -1 0-1.8-1.1-1.8-1.1l-.3.8s.4 2.2 1.6 3.2l.3.2c-1 .8-2.3 1-2.3 1l.1.6h-.001c.55.45 1.12.88 1.7 1.3 -.6.5-1.3.7-1.3.7l.2.4 1.4-1v0c.48.18.98.32 1.5.4v-.4l-1.2-.2v-.1c.5-.4 1.2-1.5 1.2-1.5v-.8s-.4 0-.9-.4c1.5-1 1.5-1.5 1.5-1.5l.3-.5s-.5-.2-.9-1v0c.81-.06 1.62-.23 2.4-.5l.2-.2s-.6-.9-.9-2l2.4.5 .4-.4s-.3-.9-.4-2l2.5.3 .3-.3s-.8-1.5-.8-2.3v-.1h3.2l.2-.4s-1-.7-1.4-1.2Zm-8.4 12.4s-.3.8-1 1.6l-.3.2v-.001c-.14-.06-.28-.13-.4-.2 -.8-.5-1-1-1-1l2-1.3 .7.7Zm.7-2.5l-1.5 1.5v0c-.11-.13-.22-.26-.3-.4 -.7-.9-1.6-1.6-1.5-3 0 0 .5 1 1.7.9l.8-.2c.3.8.8 1.2.8 1.2Zm1.6-2l-2 .5v-.001c-.08-.1-.14-.2-.2-.3 -.4-1.3-.4-3.2-.4-3.2s.9.6 2 .9l.6 2Zm-.3-2.4c-.2-1.1 0-2.3 0-2.3s.7.6 1.9.8c0 1.1.2 1.7.2 1.7l-2.1-.2Zm4.6-1.8s-.7.3-2.2.1h0c-.08-.94-.08-1.87-.001-2.8 .2 0 1 .4 1.8.5v.1 0c.03.71.17 1.42.4 2.1Zm0-2.5h-.2v-2.1s.8.2 1.4.1c.1.4 0 .5.4 1 .3.6.9 1 .9 1s-1.9.2-2.6 0Zm-6 15l-.2-.5s-.7.5-1 1.1h0c-.07 0-.14 0-.2 0l-1.6-.7 .2.3 1.5.6 -.3 1.2 .2.3s0-.8.4-1.4h1l-.2.7v0c-.11.39-.21.79-.3 1.2l.3.2h1.7l-.3-.3h-.6v0c-.3-.05-.61-.05-.9 0l.3-1 .2-.6 -.2-.6 -.9.1 .8-.7Zm-9.1-1.1h0c.65.05 1.28.29 1.8.7v-.5s-.8-1-1.7-1c-1 0-2 .9-2 .9v1s.9-1.1 1.9-1.1Zm10.6 15.5c-1 .5-2.2.5-2.2.5l.7-1.3c2-.5 2.4-1.9 2.4-1.9l-.1-.5s-.5 1.3-2.2 2l.6-2.6 -.5-.2s-.8 1-1.6 1.3v0c.33-.69.54-1.44.6-2.2l-.2-.4s-.6.5-1.4.6h-.5c.5-.6 1.4-2.5 1.4-2.5l-.1-.4s-.7 1.7-1.4 2.5l-.3.3h-.001c-.6-.22-1.17-.48-1.7-.8v.3s.7.5 1.5.8l-1 1v.8l2.4.3v0c-.42.66-.96 1.24-1.6 1.7l.3.5s1.1 0 3-.5c-.5 1-1 1.5-1 1.5s1.8.1 3-.5 1.6-1.2 1.6-1.2l-.4-.4s-.2.9-1.3 1.3Zm-5.5-3.3l1-1.1c1.2.3 1.6-.1 1.6-.1s.2.7-.5 1.8v0c-.7-.1-1.37-.3-2-.6Zm1.1 2.5l1-1.3v0c.1-.1.2-.2.3-.3 1.2 0 1.9-1 1.9-1s.1 1-.4 2.2c-1.6.6-2.8.4-2.8.4Zm-1.5-7.9c1.2.1 2.6.6 2.6.6l-.1-.6 -2.3-.4c.4-.9 1.2-1.3 1.2-1.3l-.4-.2s-.4 0-1 1.2l-.2.2v0c-.1-.01-.21-.01-.3 0 -1 0-1.9.6-1.9.6l.2.3s.9-.4 1.8-.4l-.6 2 .2.5 .8-2.5Zm-2.4-4.9l-.2-.6s-1.3-.4-2.2 0c-1 .5-1.6 1.5-1.6 1.5l.4.8s.6-1.2 1.5-1.5c.8-.3 2.1-.2 2.1-.2Zm2.4 1.9l-.8-.4s-1.3.3-1.8.8 -.9 1.7-.7 2c.1.4.5.6.5.6s.2-1.3.9-1.9c.6-.6 1.9-1.1 1.9-1.1Zm-3-.4c.4-.5 1.4-.7 1.4-.7l-.5-.5s-1.2.2-1.8.7l-1.4 1.7 .7.7 1.5-1.9Zm4-35.8c.7-.8 1.3-.8 1.5-.8h.6v0c-.33.62-.57 1.3-.7 2 -.2.8-.5 1-.8 1.5 -.3.5-.9 1.5-1 2.3 0 .8.2 1.2.5 1.3 .2 0 .5-.4.5-.5 0-.3-.2 0-.4 0s0-.3-.2-.8c0-.5.6-1.8.8-2.2 .3-.4.8-1 .9-1.6 0-.7.5-2 .5-2 0-.1-.3-.2-1-.2v0c-.62.05-1.17.38-1.5.9 -.4.5-1.4.9-1.4.9s1.1 0 1.7-.8Z"/><g fill="#78732E"><path d="M228.2 219.6h-2l.5 1.5Zm-2.4 0l-.4-.4v-.001c-.09-.12-.19-.22-.3-.3l-.7.5 -.4 1.5 .2.2 1.6-1.6Zm-.3 4l-1.4-2.2 -.8 1.7 .4.2 1 .1 .8.1Zm6 35.7h-.1 -.001c-1.13.74-2.45 1.16-3.8 1.2 -.8 0-1.8-.2-2.7-.7v0c-.55-.37-.97-.89-1.2-1.5 -.5-.9-.6-2-.8-3.1v-.001c-.15-1.06-.49-2.07-1-3 -.6-1-1.8-1.7-3-2.6v0c-1.29-1.04-2.09-2.56-2.2-4.2v0c-.01-.2-.01-.41 0-.6l-.001-.001c.04-1.25.35-2.48.9-3.6 .4-1 .9-2 .9-2.8v-.4c-.2-.6-.8-1.1-1.2-1.5l-1-.6 -.8-.3v.3l.7.2v-.1 .1 0c.35.2.68.43 1 .7 .5.4.9.8 1 1.3v.3c0 .7-.4 1.6-.9 2.7h0c-.55 1.15-.86 2.41-.9 3.7l-.001 0c-.05 1.95.84 3.81 2.4 5 1.2 1 2.4 1.6 3 2.6 .6 1 .7 2.5 1 4 .2.7.3 1.4.6 2 .3.7.7 1.2 1.4 1.6v-.001c.84.5 1.81.78 2.8.8 2.3 0 4-1.3 4-1.3l-.1-.2Z"/><path d="M229.7 255.4l-1 .2v0c-.53-.01-1.04-.23-1.4-.6 -.6-.6-.8-1.1-.9-1.8 -.1-.7-.3-1.6-.7-2.7 -.5-1.1-1.7-2-2.9-2.9 -1-.9-2.1-1.8-2.3-2.7v-.001c-.02-.17-.02-.34 0-.5 0-.8.3-1.6.6-2.6 .4-.9.8-2 .8-3.2v-.6c-.2-1.6-1.5-2.8-2.6-3.6h-.001c-.73-.46-1.5-.83-2.3-1.1v.2h.1c.4.2 1.5.7 2.5 1.5 1 .7 1.8 1.7 2 3v.6c0 1.2-.3 2.2-.7 3.1 -.3 1-.7 1.8-.7 2.7v-.001c-.02.16-.02.33 0 .5 .3 1.1 1.4 2 2.5 2.9 1.1.9 2.3 1.8 2.7 2.8 .5 1.1.6 2 .7 2.6v-.001c.1.75.45 1.46 1 2 .6.5 1.1.7 1.6.7v0c.42.01.83-.09 1.2-.3l-.2-.2Z"/></g><path fill="#A8AC71" d="M237 249.3s1.5.3 1.4 1.4c0 1.2-.6 2.7-.6 2.7l-2-1.7 1.1-1 .4-.5 -.2-1Z"/><g stroke-width=".2" fill="#F8C83C" stroke="#977C2E"><path d="M213.1 235.6s-1.4.5-1.7-.1c-.2-.6-.1-1-.1-1.2 0-.1-.9-.2-.8-1 0-.8 1-.7 1.3-.7 .2 0 .3-1.2 1-1.2s1 .9 1 .9l-.7 3.3Z"/><path d="M214.6 236s-1.1.6-1.5 0c-.4-.5 0-1.3-.1-1.4 -.2-.1-.9-.4-.7-1 0-.8.8-.5 1-.7 .3-.1.5-1.1 1.3-1 .7.2.8.8.8.8l-.8 3.3Z"/><path d="M216.6 236.3s-.3.7-1.2.5c-.8-.1-.5-1.3-.7-1.5 -.1-.2-.7-.4-.6-1.2 .1-.7.9-.6 1.2-.7 .2-.1.5-1.3 1-1.1 .6.1 1.2.8 1 1.1 0 0-1.1.4-1.3 1.2 -.1.8.6 1.7.6 1.7Z"/></g><path fill="#AF7029" d="M235 249l-1.8-2.1 -1.8-2.2 -1.8-.9 -1.2-1.9v-2.2l.4-1.3 .7-1s-3.7 1.4-1.8 8.5c.8 3 2.8 3.4 2.8 3.4l3.4-.2 1-.1Z"/><path fill="#816C2A" d="M233.3 225.4c.3 0 .5 0 .6.2l.1.6v0c0 .06 0 .13 0 .2l.1.1c-1.3 2.7-3.9 4-6.2 5.6v0c-1.2.82-2.22 1.87-3 3.1v0c-1.02 1.65-1.5 3.56-1.4 5.5 .1 4 1.6 6.3 3.3 7.4v0c1.24.83 2.7 1.28 4.2 1.3h.3l1.2-.1v0c.79-.11 1.59-.17 2.4-.2v0c.46-.01.93.03 1.4.1 .4 0 .6.2.7.3v0c.11.1.18.24.2.4 0 .3-.2.7-.5 1l-.7.5v.3l.9-.6c.3-.4.5-.7.5-1.2v0c-.02-.19-.09-.36-.2-.5 -.2-.2-.5-.3-.9-.4v0c-.47-.07-.94-.11-1.4-.1l-3.6.2v.2 -.2 0c-.07 0-.14 0-.2 0 -.7 0-2.5 0-4.1-1.2 -1.6-1-3.1-3.2-3.2-7.2v-.3c0-2.2.5-3.8 1.2-5 1.2-2 3-3 4.8-4.3 1.8-1.2 3.5-2.4 4.4-4.5 .9-2.1 0-.2 0-.4l-.1-.7c-.1-.2-.4-.4-.8-.4v.3Z"/><path fill="#FFF" d="M238.3 250.1s-1 1.6-1.2 1.7c-.2 0 .8.2 1 .6l-.2.4s-1-.7-1.5-.7l-.1-.6s.5-.2.9-.6c.3-.3.7-1.1.7-1.3l.3.5Z"/><path fill="#FCCA3D" d="M241.7 251.2l-2.2.6 -1.1-.7s0-.9-.4-1.3c-.5-.4-.8-.5-1.3-.7 -.4-.2-2-.2-2-.2l-4-4.3 1.5.2 2.4-.3 2.1-.2 1.2.2 1.2.3 .6.6 .7.6 .7 1 .4 1.3 .2 1.3v1.6Z"/><path fill="#AF7029" d="M241.8 251s-.8.3-1.8.3 -1.6-.2-1.6-.2l-.2.7 -.4 1v2.6l2.1.4 1.1-.4 .6-2.8 .1-1.5Z"/><path fill="#FCCA3D" d="M241.2 250v1h.5v-.8Zm-2-24l-.2-1.7 -.7-1.2 -.9-1.2 -.9-1 -.5-.5 -.2-.3 -2.3.1 -1.2 1.4s3 2.2 4.3 4.6c1 .3 1.8 1 2.2 1.4l.1-.2 .3-1.4Z"/><path fill="#AF7029" d="M237 228c0 1.7-.3 2.6-.6 3l1.4-1.6 1-1.8v0c-.62-.64-1.37-1.11-2.2-1.4 .2.6.4 1.2.4 1.8Z"/><path fill="#816C2A" d="M240.2 254.3l-1.1-1.3 -1-.7 -.2.2h.1l1 .7v-.001c.36.41.69.84 1 1.3l.2-.2Z"/><path fill="#6F5B24" d="M241.6 252.4s-.2.8-1 1.5 -1.8 1.1-1.8 1.1l2.2.9 1.5-1.4 -1-2.1Z"/><path fill="#404118" d="M241.9 254.3l-.2.2 -.4.4 -.3.4 .6-2.4 .4.7v.4Z"/><path fill="none" stroke="#78732E" stroke-width=".2" d="M228.6 223.4s-3 .3-5.2 0c-2-.4-1.6-5.9-1.7-6 0-.2-1.3-1.5-1-2.7 .2-1.2 4-4.4 4.6-4.6 .4-.1 1.2.2 1.2.2s1-1 1.3-1c.3 0 .7.6.6.8 -.2.3-1.5 1-1.6 1.7 -.1.6 0 1.2-.4 1.8 -.4.6-1.1 1.4-1.2 1.9 -.1.5-.3 1 0 1.1 .4.2 1.7 0 2.8-.5 1.1-.5 1.6-1.1 1.7-1 .2 0-.6 1.3-1.8 1.8 -1.3.5-2 1.1-2.7 1 0 0-.6 1.6 1.4 1.7 2.1.1 3.3-.4 3.3-.4l-1.3 4.2Z"/><path fill="#AB6D29" stroke="#4D2A15" stroke-width=".3" d="M255 200.5s-5.7-1-5.6 3.6c0 1.5.4 2 1.5 2.3 1.2.3 3.6.5 5.6 2.3 2 1.8 2.2 3.1 2.2 4.2 0 1-.5 2-.5 2l1.3 6.2 1.2 4.6 3.8-2.2 2.3-6.8 -2.9-12.2 -9-4Z"/><path fill="#4D2A15" d="M260.5 224s2-.8 2.5-2.4c0-.4-2-2.3-2-2.3l1.5 1c.5.5 1 .7 1 .6 .3 0 1.2-2.1.8-2.6 -.3-.4-.9-1.5-1.7-2 -.8-.6-1.9-.5-1.9-.5s1.5-.5 2.3 0c.7.3.8.8.9.6v0c0-1.03-.17-2.04-.5-3 -.4-.6-.7-1-1.6-1.1 -1-.2-1.9-.1-1.9-.1s1.3-.8 2.3-.5c1 .2 1 .7 1 .6h-.001c-.14-.8-.38-1.57-.7-2.3v0c-.46-.62-1.04-1.13-1.7-1.5l-1.4-.2h-.5s.7-.5 1.7-.4c1 .1 1 .4 1.1.4 .2 0 0-.2-.7-.6v0c-1.11-.59-2.25-1.13-3.4-1.6h-2.5s0-.7.7-.8c.7-.1 1 0 .9-.1 0-.2-2.2-.7-2.2-.7h-1.7l-2.4.3 .5-.7c.3-.3.8-.4 1.1-.5 .9-.2-.4-.9-.4-.9l.6-1 3.2.2 6.5 3.9 3.1 2.6 2 5 -.6 8.6 -4.4 3.6 -2 .2 .5-1.8Z"/><path fill="#D2A567" d="M254.8 202.7s-.2-.6-.2-1.4v-.7s-2-.3-3.5.9c-1.6 1.2-.7 3.3-.7 3.3s.7-.6 1.5-1c.9-.3 2.4-.2 2.4-.2 .2-.2-.3-.8-.9-.9l-1.7-.1s.7-.5 1.8-.4c1.1.1 1.3.5 1.3.5Z"/><path fill="#8F4620" d="M261.3 224.7l-1.4.5 .9 6 5.7 9.7 3-.5 1-1.8 .7.3c.4.4 1.5 2.3 2.4 2.7 1 .3 1.4.2 2.3.9 .8.6 3.9 5.2 4 5.3 .2.2-.2-1.9-.2-1.9l-.9-2.7 -1.1-1.9 -.2-.5h1.5l1 .6 1.5 1.3 .8.9 .4 1 .2.8 .4 1.3 .8 1.7 1 1.7 .3-.6 -.5-2 -1.5-4.9 -1-1.6 1.6 1c.4 0 1.5 1.8 1.5 1.8l.7 1.7 .5 1.6 .4 1.4 .5 1.5 .9-.5 -.2-1.1 -.8-3.4 -.3-3.6s.4 0 1 .6c.5.6 1 1.9 1 1.9l.3 3.2 .5 3 1 3 1 2 .7 1v-1.5l-1.2-12.8 .1-.5s.2-.1.6.5l.9 1.5 .3 2 .2 1.4 .3 2.6 .3 2.8 1.3 3 .7 1.7 .4-2 -.6-13.6 .3-.4 1 1 .6.8 .5 3 .3 8.7 .3 2.2 2.6-22.6 1.5-.3 .2-.5 -1.1-.8 -2.6-4 -1.7-3.9 -3-5.6 -5.3-6.4 -4.1-3.4 -1.5-1 .2-.9 .9-1.4h-.8l-1.8.3 -1.8-.6 -3.5-2.4 -3.7-1.8 -2.2-.8 -5.3-1.3 -5.3-.7h-2.3l-2.2.3s-1 .5-1.4 1.2c-.4.6-.4 1.1-.3 2.1 .1 1 .7 1.5 2.2 2.1 1.5.6 5 3 5 3l1.6 1.6 .6.8 .1.6 1.2 9 -2.3 4.8 -1.6.8Z"/><path fill="#AB6D29" d="M267 238.6s1 1.6 2.3.3c1.4-1.2-.6-4.8-.5-5 0-.2.6-.3.6-.3l1 1.9s.6 1 .3 2.5c-.2 1.6-1.7 3-1.7 3l-1.7-.5 -.3-2Z"/><path fill="#4D2A15" d="M300.2 259.4l-1.2-3.6 -.4-2.8 -.3-7.5c-.1-1 0-2.3-.2-2.5l-1.3-1.8 -.5-.5 .3-.3s.5.5.6.3c.1-.3 0-1.6-.5-3.6s-3-6.7-3-6.7l.2.3 .7.7 1.5 1.2 3.3 1.2 1.7.3 1.2 2.3s.8 3.9.7 5.9c0 2-.1 3.6-.9 5.6 -.8 2-1 8.2-1 9.2l-.5 2 -.4.3Z"/><path fill="#8F4620" d="M300.2 249s.7-.9 1-2c.3-1 .4-9.9-.6-11v0c-.95-.85-2.08-1.47-3.3-1.8l.8 2.9 .7 1 .5 1.5c0 .7.7 2.5.8 4.8l.1 4.5Z"/><g fill="#4D2A15"><path d="M295.4 254.4s.5-4.1.3-7.1 -.5-3.4-.8-4v0c-.84-1.6-1.51-3.27-2-5 -.7-2.6-1.2-4.5-1.6-5 -.5-.5-1.4-1.6-1.6-1.3 -.2.3-.2.9-.2.9l-1.3-.3 -.3-.8 .4-1.3v-.6l-.2-.9 1.6 1.3 3.3 2.2 1.7 7 1.5 4.2 .2 7.2 -.1 6.4 -.9-2.9Zm2-19.7l1.3 1c.5.4 1.5 1 1.3 1l-1.6-.6 -1-.7v-.7Z"/><path d="M291 252.8s.6-1.4.5-3.3c-.1-1.8-1-6.3-1.3-6.8 -.3-.6-1.6-1.4-2.7-4 -1.2-2.4-1.1-3-1.9-3.8h-.001c-.55-.66-1.08-1.33-1.6-2l.3-2.7 2.8 1.5 1.3.6 1.4 7 1.3 2 .6 2.7 .7 6.5 .3 5.2 -.2.5 -1.6-3.4Zm-3.4-3s0-2-.4-3.8c-.5-1.9-1-3.2-1.5-3.8v0c-1.23-1.23-2.33-2.57-3.3-4v0c-.96-1.4-2-2.73-3.1-4v-2.7l1.7 1.2v0c.6.31 1.2.65 1.8 1l.8 3 1 2.1 1.4 2 1 .8 .5 3.2 .3 1.8 .8 2.6 -.3 1.3 -.7-.6Zm-2.4 0l-.8-.7s.5-.5.3-1.5c-.3-1-.5-2-1-3s-.6-1.6-.9-1.9v-.001c-1.15-1.1-2.31-2.17-3.5-3.2l-3-2.6c-.8-.5-1.4-.6-1.4-.6l-.4-3.2s1 1.4 1.7 1.6l1.6.6 2.3 4 .8 1 2 1.7 .9 1.7 .6 2 .8 2.7 .2 1.7 -.2-.2Zm-4.4-.8s-1.3-1.5-1.6-2.5c-.2-1 .2-1-.2-2.1v0c-.67-1.47-1.71-2.75-3-3.7 -1.1-1-2.7-2.3-2.6-3 0-.7.3-.8.3-.8l.7.6 3.5 3.8 1.1 2 .9 2.5 .5 1.1 .5 1.5 -.1.6Zm12.8-18.6s2.5 3 3.1.2c.3-1.2-.8-3.6-.8-3.6l-3-5 -4.7-5.8 -2.8-1.3 1 1.6s2 2 4.7 6.7c2.7 4.6 2.1 7 2.1 7l.4.2ZM279.4 212s4.9 4.2 8 8.7c3.1 4.5 4.4 7.5 3.7 8 -.7.7-2.7-.3-3.5-1.5 -.8-1.3-1.5-3.5-4.4-6.9 -3-3.4-4.4-3.9-4.4-3.9l-2.2-3.4 2.8-1Zm-2.6 10s3 2.4 4.7 4.3v-.001c1.01 1.06 1.95 2.19 2.8 3.4l1.1 1.1s-.6-1.2-.2-1.6c.3-.4.8-.2.8-.2l-9.2-9.7v2.7Zm-.6.2s1 1.8 2.5 3.3v-.001c1.05 1.04 2.12 2.07 3.2 3.1l.7 2.4s-4.2-3.2-4.2-2.4v0c.18.85.51 1.66 1 2.4l-1.3-.7 -1.8-2.5 -1-2.3 -1.2-3 2.1-.3Z"/><path d="M263.6 232.2s2.2 2 3.4 0c1.2-1.9.2-4 .2-4s3.1 4.5 4 .2c.1-.8-1.9-3.7-1.9-3.7l.7-.7 1.6 2.6s1.5-.6 1.5-2.4c0-1.8-1.6-4.2-1.6-4.2l1.5 1.6s2.8 0 2.9-1.7c0-1.7-2.4-3.5-2.4-3.5s2 .1 2-1c-.1-1.2-2.7-2-2.8-2.7 0-.7.8-1.9 2-1.2 1.2.6 2.8 1.2 3.5-.1 .7-1.3 0-1.6 0-1.6l-1.7-.4 -2.8-1.4 -2.1-.8 -2.2-.3 .8 1.7 .6 4.5v2.1l.4 4.6 -1 3.8 -.7.7 -.4.5 -1 2 -1.2 1.5 -1.7 2.2 -1.6 1.7Z"/></g><path fill="#AB6D29" d="M279 240.7s-.5-1.3-1.7-2.3c-1.2-.9-3-1-3-1l3.2 3.4h1.5Zm4.5.8s-1-2-2.2-3.3c-1.2-1.3-2-3-2.4-3l-.5.1 .3 2.6 2.2 2.2s2 1.5 2.6 1.4Zm3.7-.2s-.5-2.4-1.7-4.7c-1.2-2.3-2.6-3.3-2.6-3.3l.3 2.5 1 2.4 1.7 2.4 1.3.7Zm3-1.3s.9-5 .1-6.3v0c-.49-.84-1.28-1.45-2.2-1.7l-.5.7 .5 3.6 1.1 2.7 1 1Zm3-8.3s.7.4 1.6 2c.9 1.7 2.1 6.7 2.1 7 0 .2-.5.1-.6 0l-3-4.7 -.6-4.3h.5Z"/><g fill="#D2A567"><path d="M272.3 237.5s1.6-.4 1.6-1c0-.5-2-1.6-1.8-2.5 .1-.4 1.6.1 1.7-.2 .2-.3-1.5-3-1-3.6 .5-.6 2 2.9 2 2.9s.8 1.6.5 2.5c-1 3-3 1.9-3 1.9Zm3.7-3.6c0-.2 2.5.3 2.5.1 .1-.5-2.2-2.3-2.2-2.3s-.5-1-.3-1.1c.1-.2 1.6.1 1.7 0 0-.3-1.7-2.6-1.7-3 0-.4.5 0 .5 0s1.3 1.4 2 2.5c.8 1.2 1.5 2.1 1.2 4 -.2 2-4 .4-3.7-.2Zm11-3.6s-.5-1.7-.2-1.9l.8-.4s-1.3-.8-1.9-.8c-.6 0-.7-.2-.8 0 -.2.3 1 2 1 2l1 1Z"/><path d="M279.6 231.5s3.7 1 3.8.7c.2-.3-3-3.2-3-3.2v-.7c0-.2 1.3-.2 1.7.1 .3.3 0 1 0 1.2 .2.2 1.4 2 1.6 1.7 .2-.3-.2-2.5-.1-2.6 0-.2 1.4 1.2 1.7 1.5 .4.2 2.5 1.8 2.7 1 .2-.7.3-.8.3-1.3 -.1-.4.6 2.1-.3 2.4 -1 .4-2.1-.3-2.1-.3l-.9-.7 -.5-.5s.6 2 0 2.2c-.7.2-1.5.1-1.5.1l-1.5-.2 -2-1.4Zm8.5-2.5s4 2.4 4.3 2c.4-.5-1-6-.8-6.6 .2-.5 3.2 6.3 1.8 7.2 -1.2.7-1.7.2-1.7.2l-2-1 -1.6-1.8Zm11 10l.9.4 .5.2 -1.1.2 -.3-.8Zm-3.8-13.1l.6.3 .5.2 -.5.2v0c-.11-.03-.21-.06-.3-.1l-.3-.6Zm-1.2-2s.4.2 1-.1c.6-.3.5-.7.5-.8 0-.2-.9-.2-1.2-.4 -.2-.2-.2-.5-.2-.5H293l1.1 1.9Zm3.5 11.6l1.6.7c.3 0 .9.4.8.5 0 .1-1 .2-1.4 0 -.5-.3-.6-.2-.6-.2l-.4-1Zm-6.5-18.1h1c.2.2 0 1-.3 1.3l-.8.4v-.001c-.46-.59-.89-1.19-1.3-1.8l1.4.1Zm-5.7-5l1.2-.1c.4 0 .9.3 1.2.5 .4.2.7 2.6.5 3 -.2.5-2.8-1.5-2.9-1.7 0-.2-1.2-2-1.2-2l1.2.2Zm-2.5-1.2s2 .2 1.8-1v-.001c-.09-.74-.45-1.42-1-1.9l-2.4 1.7 1.6 1.2Zm-5.2-2.2s.5.2 1.1 0c.6-.2 2.1-2.2 3.2-2.4 1.1-.3 1.4-.3 1.6 0 .2.2 0 1.4-.2 1.7 -.2.3-3.5 1.7-3.5 1.7l-1.2-.2 -1-.3v-.5Zm-.6-3.6c-.5-1.2-1.4-1.6-1.7-1.6 -.3.1 1.1 1.3 1.3 2.8l.2 2.8h.7v-.5l.2-.5v-.4l-.1-.8 -.2-.6 -.1-.5 -.3-.7Zm-4.6-1.7v0c-1.23-1.31-2.74-2.34-4.4-3 -.2 0 3.2 2 4 3.4 .7 1.2.7 3 1 3.2 .4.3.7 0 .7-.1 0 0 .3-.4.2-.5l-.2-.9 -.5-.8 -.3-.6 -.5-.7Zm-4.4-1.8h-.001c-2.34-1.67-5.14-2.55-8-2.5 -2.9 0-4.3.2-3.9 1.8 .4 1.5 1.7 2.1 4 2.1 2.4 0 3-.2 4.2.2 1.2.4 2.4 1 2.9 1.6 .4.4-1-1.2-2.1-2l-2-1.5s-.2-.5 1.4-.2c1.6.2 3.8 1.2 4.3 2.6 .6 1.3.5 2 .5 2.4 0 .2.6-.2.6-.2l.2-.7s.1-.5-.2-1c-.3-.7-.4-.9-1.1-1.7l-.8-.9Zm-7.7 22.8c1.2 0 3.8-2.2 4.2-5.4v0c-.02-3.47-.7-6.9-2-10.1 -.5-.7.7-.3 1.4.3 .6.7 2 5.2 2 8.5s-.8 4.3-2.5 6c-1.8 1.6-3.2 1.5-3.2 1.5l.1-.8Zm4.1 9.3s.6.7 1.2.5c1.2-.5 3.1-1.4 3.1-3 0-1.2-1.4-2.2-1.5-2.6v-.8l1.3.3 .3 1.8s.5.5 1 .3c.6-.2 2-1.3 1.9-2.4 -.2-1-1.7-2.3-1.8-2.8v0c-.1-.33-.1-.68-.001-1l1.2.2 .4 1.5s.3.6 1 .4c.7-.1 2-1.4 1.7-2l-1.3-2.1v-.7l.5.3s.4.2 1.4-.1c.9-.3 1.8-1 1.8-1.6 0-.6-.7-1.2-.8-1.6v-.5l.6.1 .8 1 .2 1 -.3 1 -1.1 1.3 -1.2.4h-.3l.7 1.2 -.2 1.6 -1 1 -1.4.7v1.5l-.8 1.6 -1.7 1h-.5l-.2 1 -1 1.5 -2 1.3 -1.3.2 -.8-1.1 .1-.4Z"/><path d="M274.7 217.1s3.1 1 3-1c0-1.2-3-3.7-3.2-4.1 -.2-.5-.1-1-.1-1l1.5 1.4s2 .5 2.6-.7c.5-1.1 0-1.8 0-1.9h.4l1 .1 -.2 1.8 -1 4.4s.3 1.7-1 1.9c-1.4 0-3-.9-3-.9Zm3 23.6s0-.9-.7-1.5 -2-1.2-2.2-1.4v0c.69.96 1.43 1.89 2.2 2.8l.7.1Zm4.5.1l-2-2.5c-.2-.7-1-2.1-1.7-2.2 -.6 0 .6 2.4.6 2.4l2.5 2.3h.6Zm4.3 0l-1.7-3.3c-.3-.7-1-2.7-1.8-3.3 -.8-.5 0 1 0 1l1 2.6 1.4 2.3 1 .7Zm3.1-1.8s-.1-2.2-.4-3.7v0c-.18-1.05-.71-2-1.5-2.7l.1 2.7 1.8 3.7Zm6.5 1.6l-1.5-3.8v0c-.45-1.16-1.02-2.27-1.7-3.3l.3 2.3 1.4 3.8 1.5 1Zm5.6-6.8s-1-1-3.1-1.9v-.001c-1.39-.51-2.84-.82-4.3-.9l.2.3 1 .8 2.2 1.2 3 .7 1-.2Z"/></g><g fill="#202020"><path d="M278.6 235s0 2 1 3.1l3.7 3.7c.4.4.8 2.7 1.5 4.6 .6 2 .8 3.5 1.1 4 .3.6.9 1.5.5 1.4 -.5 0-1-.6-1.2-1.3 -.3-.7-.2-.7-.1-1.7 0-1-1.5-5.9-2.2-6.4 -.7-.6-3.9-3.2-5.1-5 -1.2-1.9-1-2.3-1-2.3h1.8Z"/><path d="M283.7 247.5c-.7-1.4-.8-2.7-1-3.5v0c-.93-1.37-2.12-2.52-3.5-3.4 -.5-.2-1.5.1-2-.2l-2.9-3.2s-.3.4-.2.5c.1 0 2.7 3 3.7 3.8 1 1 1.5 3 2.2 4.6 .6 1.6.4 1.2.4 2 .1.8.6 1.2 1 1.2s.7-.2.5-.3h-.001c-.75-.82-1.33-1.77-1.7-2.8 -.6-1.4-1.2-4-2-4.9l-.3-.2 1-.1c.7 0 3.4 2.4 3.6 3.1 .2.7 0 1 1 3.4 1.2 2.4 1.7 3 1.7 3h.2l-1.7-3Zm-4.1-16l2.4 1.4 1 .2s.3 3.5 1.7 5.5 2.6 2.7 2.6 2.7 0 3.8 1 6.4v-.001c.81 1.99 1.15 4.15 1 6.3 -.2.5-1-1.5-1.6-3.3l-1.5-5v0c-.42-1.33-1.1-2.55-2-3.6 -.7-.5-.2-.4.2 0v0c.91 1 1.6 2.19 2 3.5 .6 2 .9 4 1.2 4 .4 0 .6-.3.6-.7 0-.4-.4-1.4-.7-3.3 -.4-2-.7-3.2-1-3.7 -.3-.6-.8-.6-2-2.8v0c-.87-1.3-1.55-2.72-2-4.2v-1c-.3-.2-.4 0-1.4-.5 -1-.5-1.5-1.9-1.5-1.9Z"/><path d="M284.5 230.8s1.2 1 1.9 1.2c.6.3 1.6.3 1.6.3s-.3 3.4 1 5.5c1.3 2.2 2.7 3.4 2.7 3.4s.2.8.6 5.5l.6 6.6c0 1.8.1 8.4-.1 8.2 -1-.8-.2-4.3-.7-5.8 -.5-1.5-1.3-1.7-2.3-6 -1-4-.3-5-1-6.6 -.7-1.6-1.6-1.7-1.6-1.7s1.3.2 1.8 1.6c.5 1.3.6 4.8 1 6.5 1 4 2.4 6 2.4 6s-.3-5-.7-7.8c-.4-2.8-.3-5.1-.9-6.2 -.5-1-1.6-2-2.3-3.3 -.7-1.5-.9-4.3-1.2-5 -.3-.7-.5-.5-1-.7 -1.5-.6-1.8-1.7-1.8-1.7Z"/><path d="M288 229s1.1 1.2 2.6 2c1.4.9 2.2.6 2.4.8 .2.2-.3 3.1 1.2 5.8 1.5 2.8 2 2.8 2.1 3.2l.5 11c.2 2.8.4 12-.7 12s-.1-6.8-.7-8.4c-.5-1.6-.5-1.1-1-2.4 -.6-1.2-.6-6.2-1.4-9.2 -.7-2.2-1.3-2.6-1.3-2.6s1 .6 1.6 2.5c.5 1.8.6 8 1.2 8.9 .6 1 1.4 2.2 1.6 3 .2 1 0-11.5-.4-12.3 -.2-.8-2.7-5.3-3-7.8 -.1-2.5-.2-2.8-.4-3 -.3-.2-1 0-2.2-1.1 -1.2-1.2-2-2.4-2-2.4Z"/><path d="M293.8 230.4c0-.2.8 1.4 3 2.3 2.3.9 4.5.7 4.8 1l0-.001c1.18 2.53 1.77 5.3 1.7 8.1 0 4.5-.8 4.1-1.5 8 -.7 4-.7 11.8-1.1 13 -.2.5-.5.7-.7 1.5 -.3.7.2 2.2-.5 2.2s-.8-1.1-.8-1.7c0-.6.7-2.8.7-5s-.4-2.4-.8-5c-.3-2.5-.3-10.7-.6-11.5 -.3-.8-1.7-2.5-1.7-2.5s1.5 1 1.9 2c.4 1.2.4 10.3.8 12.1 .4 1.9.3-.4.4-1.5 .2-1 .7-5.5.7-7.9 -.1-2.4-1.1-7.6-2-8.4 0 0 .5.5 1 1.6l.6.5 .8.4v0c-.28-.02-.55-.09-.8-.2l-.5-.3v0c.69 2.06 1.03 4.22 1 6.4 .1 4-.5 13 .1 13.2 .7 0 .5-5 1.2-9s1.6-4.6 1.3-8c-.3-3.2-1.2-6.8-1.9-7.3 -.6-.4-2.6-.3-4.4-1.4 -1.8-1.1-2.8-2.3-2.7-2.6Zm-28.6 4.6s.6.3 1.4 0c.7-.4 2.7-2 2.7-2.7V231s0 .3.7.4c.5 0 2.2-1.2 2.3-2V227c-.3-.2.4.3.8 0 .3-.3 1.9-1.3 1.9-2.4 0-1-1-2-1-2h1.3c.5-.1 2-1 2-2s-.6-2.4-1.8-2.5c0 0 .9.2 1.8 0 .9-.4 1.2-1 1.2-2s-1.8-3-2.1-3.2c-.4-.2 1.9.6 2.5-.3 .5-1 .6-1.5.4-2 -.1-.5-.6-.7-.6-.7s1 .3 2.3-.4c1.3-.6 2.4-1.5 3-1.5 .6 0-1.9 1.4-2 2.1 0 .3.7.8 1.8 1.7l.2.1c.5.3 2.5.4 2.6.5 .2 0-1.9 0-1.7.2v0c1.69 1.25 3.23 2.69 4.6 4.3 0 0 .3.3.7.4l1 .2H290v0c.92 1.22 1.78 2.49 2.6 3.8 0 0 .4.5.7.6l1 .2c0 .2-1.2 0-1 .2h-.001c.93 1.56 1.8 3.16 2.6 4.8 0 0-2.5-4.3-5.5-7.6 -3-3.4-3.6-3.8-3.8-3.5 -.2.3 2.2 3.3 3.5 5.3 1.3 2.1 2.4 4.7 2.4 4.7s-3-6.2-7.2-10c-4.2-3.9-4.6-4.5-5-4.3 -.6.1-1 3-.6 3.5 .3.6 3.3 3 6 6 2.6 3 5.9 8.4 5.9 8.4s-2.4-3.8-6.4-8 -5.5-5.3-5.8-5.3c-.3 0-.4.8-.8 1.5 -.5.6-1.5.5-1.5.8 0 .3 3.4 3.4 4 3.8 .7.4 1.1.2 1.6.5l1.1.7 -1.2-.4c-.5-.2-1-.2-1 0s2.7 3.5 3.2 3.7c.4.2.7.1 1.3.4 .6.2 1.5.8 1.5.8l-1.6-.7c-.7 0-1 0-1 .2s2.1 2.9 2 3c0 0-3.2-3.8-5.8-6.1 -2.7-2.4-3.9-2.9-4-2.8 -.1.1 0 .8-.7 1 -.6.3-1.2.3-1.2.6 0 .2 2.3 2.5 4 4.3v0c1.09 1.21 2.15 2.44 3.2 3.7l-3.6-3.5c-1.9-1.8-2.8-2.5-3-2.4 -.2.1-.2 1 0 1.3 .1.2 3.6 4.3 3.5 4.4 -.1.1-4.1-4.9-4.4-4.9 -.2 0-.4.6-.6 1 -.3.2-1.4.2-1.4.6 0 .4 5.6 6 5.4 6 0 0-4.6-4-4.8-3.7 -.1.2 2 4 1.9 4.1 -.2.1-2.8-4-3-4 -.2 0-.2.5-.9 1.1 -.7.6-1.5.4-1.5.6 0 .3 3.8 4.6 3.7 4.7 0 0-4-4.1-4-3.9 0 0-.3.3-.2.6 .3 1 1.2 2.9 1 3 0 0-1.2-2.5-1.5-2.4 -.3 0-.3.6-1 1 -.5.3-1 .2-1 .5s.7.7 1 1.3c.3.6.6 2 .6 2s-.4-1.2-1-1.9c-.5-.7-1-1.2-1.4-1.2 -.4 0-.7.4-.7.4l-.4-.9Z"/><path d="M301.6 233.7s1.2-.1 1.4-.4c.1-.3-.5 0-1.6-1.3 -1.2-1.2-4-9.7-7.3-14 -5.2-6.9-10-10-10-10s5.7 3.3 10.2 9.9c4.6 6.6 5.7 11.9 7 13.2 1.3 1.4 2.5 1.6 2.4 2 0 .4-.2.7-.7.8l-1.7.1 .2-.3Zm-38.4-1.9l.2.1c.3 0 1.9-1.5 1.8-2 0 0-.7-.2-1.3-.8 -.6-.6-.7-1.5-.7-1.5s.5 1 1 1.3c.4.3 1.1.5 1.4.3 .2-.3 2.5-2 2.4-2.6 0 0-.7 0-1.4-.5s-.8-1.6-.8-1.6 .4.9 1.1 1.2c.7.3 1.4.2 1.6 0 .2-.3 1.7-2.4 1.5-3 0 0-.7 0-1.4-.4 -.7-.5-1.1-1.7-1.1-1.7s.5 1 1.4 1.2c.9.2 1.6-.4 1.7-1 .2-.6.7-3 0-3.6 0 0-1.2.4-2 0s-1.1-1.5-1.1-1.5 .6 1 1.6 1c.9.2 1.3-.3 1.4-.7 .2-.3.2-1.7 0-2.4 -.3-.7-.9-.7-1-1.8 0 0-.3.4-1.5.4s-1.8-1.3-1.8-1.3 1 .9 1.9.8c.9 0 1.2-.8 1.3-1.4 0-.6-.5-1.2-.8-1.8 -.2-.6-.3-1.3-.4-1.2 -.2 0-.4.6-1.6.4 -1.2-.2-1.5-1-1.5-1s.9.6 1.5.6c.7 0 1.2-.4 1.2-.9 0-.4-.3-1.3-1.8-2.6v0c-.91-.77-1.84-1.51-2.8-2.2 0 0 2 1.1 3.3 2.2 1.3 1 2 2.1 2 2.1s1.4.5 1.5 0c.2-.5.2-1-.3-2 -.4-.7-1.6-2-1.6-2s1.2 1 1.8 2.1c.6 1.1.4 1.9.4 2.1 0 .3 2.7 1.3 3.3 1 .6-.4.3-1.2-.2-2l-1-1.4s.7.7 1.2 1.5c.4.7.8 1.4.6 1.7 -.2.4-.5.5-.5.7l1.8 1c.9.5 1.9 1 2 .7 .2-.3.2-.9.2-1.8 -.1-.8-.6-2.1-.6-2.1s.6 1.2.7 2.1v2c.3.2 1 .3 1 .3s-.6.4-1.7 0c-1.2-.3-6.2-2.8-6.4-2.6 -.2.3 2.3 1.8 3.5 3 1.2 1 1.7 2.2 1.7 2.2s-.9-.8-1.8-1.3 -3.5-1.8-3.7-1.6c-.1.2 1 .4 1.1.6 .1.2-.8 1-.8 1.4 0 .3 3.8 3 3.7 3.2 -.2.3-1 1-1.2 1 -.1 0-2-1.5-2-1.3 0 .3 1 1.2 1 1.4 0 .2-.6.6-.5 1 .1.5 2.1 2.1 2 2.7 0 .5-1 1-.8 1.4l1.2 1.6 -1.5-1.1c-.3-.4-1-1.2-1.1-1.1h0c-.39.61-.66 1.29-.8 2 0 .4 1 .9 1.1 1.8 .2 1-.1 2-.2 2 0 0-1.3-1.7-1.5-1.7 -.3 0-.6 0-.8.5 -.2.4-1 1.7-.8 2 0 .1 1.3.4 1.3 1.4 0 1-.8 1.9-.9 1.9l-1.6-2c-.2 0-1.8 1.9-1.8 2 0 .3 1 1.1.9 1.4 -.2.4-1 0-1.5.2l-1.3.5c-.2 0-.4-.5-.4-.5Z"/><path d="M284 208s.1-.5.4-.8c.2-.2 1.2-1.3.8-1.6 -.3-.2-1.6.2-2.4.2 -.8-.1-1.3 0-3.7-1.9 0 0-7.4-5.1-18.9-5.8 -3.6-.2-5.2 1-5.4 1.8 0 .1 1-1.5 4.6-1.5v0c6.77.24 13.38 2.2 19.2 5.7 .3.3 2.3 2.2 4.1 2 1.9-.3 2.3-.5 2.2-.2 0 .2-.6 1-.7 1.2l-.3 1v-.1Zm-20 1.5v0c-.58-1-1.32-1.88-2.2-2.6l0-.001c-1.99-1.39-4.14-2.53-6.4-3.4 -.2 0 4.8 2.3 6.2 3.7l2.4 2.3Z"/></g><path fill="#D2A567" d="M264 217.8s-.4-.5-1.4-1.2v0c-.63-.4-1.3-.7-2-.9l2.4.6c.6.6 1 1.5 1 1.5Zm-.7-4.3s-.3-.5-1.7-1c-1.4-.4-1.7-.3-1.7-.3s1.3-.6 2.3 0v0c.58.22 1.02.7 1.2 1.3Zm-.8-3.6s-.3-.6-1.5-1c-1.3-.5-2.1-.6-2.1-.6s1.3-.3 2.5.2c1.3.5 1.1 1.4 1.1 1.4Zm-1.5-2.2s-.3-.5-2.7-1c-2.3-.6-3.2-.6-3.2-.6s3.3-.3 4.2 0c.9.4 1.7 1.6 1.7 1.6Zm-4.3-2.5s-1.4-.4-2.8-.5l-3.5.1s4-.6 5-.4c1.1.3 1.3.8 1.3.8Z"/><g stroke-width=".2" fill="#F8C83C" stroke="#977C2E"><path d="M243.6 254.7s.7 1.3 2 1.3c1.5 0 2.6 2 2.6 2l-1.5 1.6 -3.7.2 -1.2-2 1.8-3Zm0-1.2c.2-.3-1-2.7-1.9-3 -.8-.5.3.7.1 1.2 -.2.5-.3 1-.2 1.2 0 0 .7 1 .3 1.5 -.3.5 1.8-1 1.8-1Z"/><path d="M243 257.1s.7.3 1.2.2c.5-.2 1-.7 1-.7m-2.9-.4s2.1-1.5 2-2.3c-.2-.8-.7-.8-1-.7v0c-.61.33-1.16.77-1.6 1.3l.6 1.7Z"/><path d="M240.9 257.2s.3 1 1 1 1.7-.5 1.7-1c0-.3-.7-1-1.1-1.3 -.5-.2-1.5.3-1.5.3l-.1 1Z"/><path d="M242.8 255.8c-.2.3-1.5 1-1.9 1 -.4 0-1.3-1-1-1.2l1.2-.3c.3-.2.4-.7.6-.7 .2 0 .7.2.9.5 .2.3.3.4.2.7Z"/><path d="M241.4 256.7s-2 2.8-2.9 2.6c-.8-.1.4-3.9.4-3.9l1 .4c.6.2 1.3.5 1.5 1Z"/><path d="M237.8 254.8s2.6.4 2.7.8c.1.5-1.2 1-2 1 -.7 0-.7-1.9-.7-1.9Z"/></g><path fill="#202220" d="M231.2 258.7s.4 1.3 1.5 1.4c1.2 0 2.2-1.2 2.2-1.2l-2.7-1 -1 .8Z"/><path fill="#4B4139" d="M231.2 258.7l.3.7c.3.3.6.7 1.2.7h.1c1.1 0 2.2-1.2 2.2-1.2l-2.8-1.2 -1 1 1-.8 2.7 1 -.2.1c-.3.4-1.1 1-1.9 1 -.6 0-1-.3-1.2-.7h-.001c-.08-.13-.15-.27-.2-.4v0c-.04-.04-.07-.07-.1-.1Z"/><path fill="#202220" d="M232 258.4s.4 1 2 1c1.4 0 2.6-1.2 2.6-1.2l-2.4-1.9 -2.2 2Z"/><g fill="#4B4139"><path d="M232 258.4s.4 1 2 1v0c.98-.07 1.91-.5 2.6-1.2l-2.4-2 -2.3 2.2h.1l2.2-2 2.4 1.8h-.1v0c-.68.64-1.57 1.03-2.5 1.1v0c-.58.03-1.15-.15-1.6-.5h0c-.12-.09-.22-.19-.3-.3v0c-.01-.04-.01-.07 0-.1h-.1Z"/><path d="M232.2 258.6s.6.5 1.4.6l1.8-.2 -1 .3h-1.2l-.5-.2 -.4-.3 -.1-.2Z"/></g><path fill="#202220" d="M234 257.3s.6 1.6 2 1.4c1.3-.1 1.4-1 1.4-1l-1.6-2.2 -1.9 1.8Z"/><g fill="#4B4139"><path d="M234 257.3h-.1l.4.8c.3.3.8.7 1.5.7h.2c.7-.1 1-.3 1.2-.6h-.001c.09-.12.16-.26.2-.4l-1.6-2.4 -2 1.9h.1l2-1.7 1.4 2.2c0 .1-.1.7-1.3.9h-.001c-.07 0-.14 0-.2 0 -.6 0-1-.4-1.4-.7v0c-.12-.16-.22-.33-.3-.5v0c-.01-.07-.01-.14 0-.2v0c-.04 0-.07 0-.1 0Z"/><path d="M234.1 257.6s.9 1 1.6 1c.7 0 1.2-.3 1.2-.3v.1l-.4.2 -.6.1h-.7l-.6-.4 -.5-.7Zm-2.6 1.6s.6.7 1.2.7 1.5-.5 1.5-.5h.1l-.1.1 -.6.4 -.8.2 -.6-.1 -.4-.3 -.3-.3v-.2Z"/></g><g stroke-width=".2" fill="#F8C83C" stroke="#977C2E"><path d="M237.6 254.6c.6 0 2 1.7 2 2.6 0 .9-.4 2.2-1 2.1 -.7 0-2.2-1.3-2.5-2 -.3-.6-.7-1.1-.4-1.4 .2-.4 2-1.3 2-1.3Zm-6.4.2s-1-.8-1.5-.4c-.4.4-.3 1.8 0 2 .3.4 1.5-.6 1.5-.6v-1Z"/><path d="M231 255.8s-1.4 0-1.4.7 .7 1.3.8 1.5c.2.1 1.4-.6 1.4-.6l-.8-1.6Z"/><path d="M231.6 256.9s-1.5.4-1.5 1c0 .4.7 1.3 1.1 1.3 .5 0 .8-.9 1-1 .2-.2-.6-1.3-.6-1.3Zm.7-4.1s-.3-.4-.9-.2c-.6.3-1.3.9-1.1 1.8 0 1 .4 1.6.4 1.6l2.1-.7 -.5-2.5Z"/><path d="M232.4 254.4s-1.8.6-1.9 1.3c0 .8.4 1.5 1 1.6 .4.1 2-1.4 2-1.4l-1-1.4Z"/><path d="M234 257.4s-1.8 1.2-2 1.2c-.3 0-1-1-.8-1.6 .2-.6 1.4-1.1 1.9-1.3 .4-.2 1 1.7 1 1.7Zm1.6-6.6s-.6-.4-1.7-.4c-1 .1-1.9 1.5-2 2.3 -.1.7 0 2 .4 2.2 .4.2 2.7-1.6 2.7-1.6l.6-2.5Z"/><path d="M233.4 256.2c-.8 0-1.4-1.1-1.3-1.8 .1-.6 1.6-1.8 2.4-1.6 .8 0 .6 2 .6 2s-1 1.5-1.7 1.4Z"/><path d="M235.8 256s-.4 1-1.1 1.3c-.8.4-1.3.1-1.7-.5 -.5-.7.2-1 .5-1.3 .4-.3 1.4-.5 1.4-.5l.9 1Z"/><path d="M234.6 253.8s-.9.6-.4 1.4c.5.8.9 1 1.5 1.2 .6.1 1-.1 1.5-.7s1.2-.9 1.1-1.6c0-.7-.3-1.3-.8-1.5 -.4-.2-1.7 0-3 1.1Z"/></g><path fill="#202220" d="M237 250.4s-.9-.4-1.6 0c-.6.4-1.1 1.2-1.1 2l.1 1.7s1-.2 1.5-.7c.5-.5.8-.7.7-1 0 0-.3-.3-.3-.9 0-1 .7-1.1.7-1.1Z"/><path fill="#4B4139" d="M237 250.4s-1-.2-1.5.1c-.5.3-1 .8-1.1 1.5 -.2.7 0 .8 0 .8s-.2-.5 0-1.1c.2-.6.7-1.2 1.2-1.4v0c.46-.12.93-.12 1.4 0Z"/><g stroke-width=".2" fill="#F8C83C" stroke="#977C2E"><path d="M263 269.6l1.3-.6 1.6-1 .3 1.8 -1.4 1h-1.2l-.7-.5 .2-.7Z"/><path d="M261.1 269.7h.9l1-.1c.2 0 .5 1 .5 1l-.4.5 -1.2.7 -1-.6 -.1-1.4h.3Zm9.7-.5l-.7-.9 -1.7-1.5v4h1.8l.8-1.3 -.2-.3Z"/><path d="M261.1 269.7s-.3-.4-1-.3c-.8.1-1.6.7-1.7 1.3 0 .5 0 2 .4 2.3 .4.3 1 .5 1.8.3 .8-.3 5-2.9 5-2.9l-1 .3 -1.2-.2s-.5.7-1.2.8c-.7.1-.8-.3-1-.6l-.1-1Z"/><path d="M264 271.1l-1 .4v0c-.32.19-.66.36-1 .5l.3 1.3 1.8.4 1.1-1v-1.2l-1.3-.4Zm8.3-.9l-.6-.6c-.3-.4-.8-.5-.9-.4l-1 1.1v.9l1 .5 .7.1 1-.6 -.2-1Z"/><path d="M266.1 269.6l-1.2.7 -1 .8 1 1 .9.2 2-1.4 -.2-1.3h-1.5Zm7.6 1.6l-.4-.6c-.4-.3-.8-.4-1-.4 -.2 0-1 1.2-1 1.2l-.1.3 .7.8 1.3.3 .9-.8 -.4-.8Z"/><path fill="#F8C83C" stroke="#977C2E" stroke-linecap="round" stroke-linejoin="round" stroke-width=".2" d="M270.4 272.6l1 .2s-.1.2.2.4c.2.2.3 0 .3 0s0 1 1 1.7c0 0 1.2.4 1.7 0 .6-.3.5.1.5.1l1.6-2s0-.4-.4-.4c0 0 .3-1.2-.7-1.5 -1-.3-1.9.1-1.9.1s-.8 1.5-1.2 1.3l-.001-.001c-.23-.1-.43-.23-.6-.4l-.6-.7 -.7-.2c-.4-.2-.7-.9-.7-.9s-.6 0-.8-.3v0c-.2-.18-.37-.38-.5-.6l-1.5 1s0 .5-.9 1.1c-.8.7-1.4.7-1.4.7s-.2 1.3-1.2 1c-1-.1-1.6-1.2-1.6-1.2s-.7-.1-1.1.5c-.5.6-.7.8-.7 1.4 0 .6.4 1.4.7 1.7 .3.3 1.3 1 2.4.4 1.2-.6.8-1.5.8-1.5l.6-.4c.7-.5 1.5-1.2 2-1.4"/><path d="M268.6 264.7v2.5s.4 2.3-.1 3c-.5.7-2.3.6-2.6 0 -.2-.7-.1-2.6-.1-2.6l2.8-3Z"/><path fill="#F8C83C" stroke="#977C2E" stroke-linecap="round" stroke-linejoin="round" stroke-width=".2" d="M266.6 272.4s-.4.7.8.8v0c.26.02.53-.09.7-.3 .3-.3.3-.6.3-.6s-.1.9 1 1c1.1 0 1-1.1 1-1.1"/></g><path fill="#202220" d="M257 274.5s-.7-1.1 0-1.5c.8-.4 1.3 0 1.7 0 .5 0 .3-1.2.2-1.4 0-.3-.3-.8-.5-1 -.2 0-2.8.2-2.7 1.9 0 1.7 1.3 2 1.3 2Zm4 4.1s-.8-1.2-.4-1.9c.5-.7.8-.2 1-.3 .2 0 .3-.5 0-1.3s-.9-1.1-1.2-1.2c-.2 0-1.8 1.1-1.5 2.6 .4 1.8 2 2.1 2 2.1Zm14.5-1.4s2.8 1.2 3-1.7c.1-1.5-1.3-2.5-1.7-2.5 -.3 0-.5.2-1 .8 -.5.6-.9 1-.7 1.2 .2.3 1-.2 1.4.7 .6 1.5-1 1.5-1 1.5Z"/><path fill="#4B4139" d="M261 278.6s-2.2-.5-2.2-2.6c0-1.4 1.6-2 1.6-2s-1.4.7-1.5 2c0 2.1 2 2.6 2 2.6Zm-4-4.1s-1.3-.3-1.4-2.1c-.2-1.8 2.8-1.7 2.8-1.7s-2.8 0-2.7 1.8c.2 1.8 1.3 2 1.3 2Zm18.5 2.7s.6.3 1.2.2c.7 0 1.4-.2 1.7-1.2 .3-1.1.1-1.6-.6-2.5 -.5-.7-1-.7-1-.7s.6.1 1 .7 .9 1.3.5 2.5 -1.5 1.2-2 1.2l-.8-.2Z"/><path fill="#904720" d="M242.1 217.9l-.5-.1 .4-.9 1.4-.5 1.5-.1h1.5l.7.4 .8 1.9 -2.9 1.7 -.5.2 -.1-.8 -.5-1.1Z"/><path fill="#202020" d="M269.5 260.4l-.1-4.4 -12 3.6 4.8 4.4Z"/><g fill="#D2A567"><path d="M247.6 252.7l-1-.8 -1.1-.6h-1l-.1.2 .1.4 1.1 1.3 1.8 1 .7.5 .4.2 -1-2.2Zm-.3 1.9h.7l.6.9 .5.8 .5 1 .2.7 -1.3-.3 -3.9-1.2 .4-.9 .6-.6 .6-.2 .8-.2Z"/><path d="M249.8 257.8l.6-.1 .4-.4 -.2-1.4 .3-4.6 -3.1-3.7 -.7 2.1 1 3.8 .6 2.2Z"/></g><g fill="#AB6D29"><path d="M247.5 249.3s-.2.4.1 1.6c.3 1.2.7 4 1.8 5.8 1 1.8-1-1.5-1-1.5s-1.7-3.7-1.5-6.5c.3-2.9.6.6.6.6Z"/><path d="M249.8 251.7s-.7.8-.8 1.5v1.7s0-.8.7-1c.7-.2.6 1.9.6 2.1l.4-3.8 -.9-.5Zm.4 7.7l-3.5-.8c-1.9-.8-2.8-1.5-2.8-2 0-.4 3.2.2 3.7.3 .5.1 1.9.8 1.9.8h.8l1.5-.6 .2 1.6 -1.8.7Zm-6-.7s1 .6.5.9c-.4.3-1.5.3-1.8.2l3.4.8 .6-.6 0-.001c-.87-.44-1.74-.88-2.6-1.3Z"/></g><path fill="#D2A567" d="M243.4 257.8c0-.2.2.5 1.4.6 1.2.2 1.8-.2 1.8-.2l.5.4 .6.1 -.5.9 -2.3-.7 -1.2-.6 -.3-.5Z"/><path fill="#AB6D29" d="M251.3 256.2l.6.9 .4-2v-2l-1.3-.8Z"/><path fill="#4D2A15" d="M247.8 253l-1-1.8 -1.4-2.5 .8-1.4 1 1.4s-.3 1 0 2c0 1 .6 2.2.6 2.2Z"/><path fill="#D2A567" d="M240.6 259.2s.5-.7 1.5-.8c1.1-.1 2 .1 2 .1l2 1.2 .5.7 -4-.6 -2-.6Z"/><path fill="#8F4620" d="M251.2 252l.1 3.3c.1.7.6 1.5.5 1.8 0 .3-.2.4-.8.6 -.5.2-1.5 0-1.5 0s1-.1 1-.3c.1-.2-.2-1.1-.3-2 0-.8 0-1.7-.2-1.7 -.3 0-.6.3-.7.4 0 .1.3-3 .6-3.3 .4-.4 1.3 1.3 1.3 1.3Z"/><path fill="#AB6D29" d="M243.8 258.4s-.4-.3-.4-.6 .4 1.3 2.7 1.2c2.2-.1 2-.2 2-.2h1.1s-.2 1-.4 1.1c-.2 0-1.7 1.1-1.8 1.2l-.5.3v-.2l-.3-1.7 -1.9-.7 -.5-.4Z"/><path fill="#8F4620" d="M247.8 253s-2.6-2.8-3.5-4.5c-.8-1.8-.3-4.2-.3-4.2l2.4 3.2s-.3.6-.2 1.6c.1 1 1.6 3.8 1.6 3.8Z"/><path fill="#AB6D29" d="M246.1 262.6c0-.2-.2-.8.3-1.4v0c1.54-1.48 3.38-2.6 5.4-3.3v2.4l-5 2.4 -.7-.1Z"/><path fill="#8F4620" d="M246.4 260.8l1.1-1c0-.3-.6-.4-1.7-.6v-.001c-.7-.18-1.38-.45-2-.8 0 0 1.3 1.1 1.9 1.3 .5.2.5.4.4.6l.3.5Zm6.6.6l-1-1.7 -.2-1.8 -.8.6 -1.5.5s1.6 0 1.6.5c0 .6-2.4.8-2.4.9 0 0 1.9-.4 1.8 0 -.2.5-1 .5-2 1h-.001c-.84.32-1.64.72-2.4 1.2 0 0 .4.3 1.2.2 .7 0 2.3-.4 2.3-.4l3-1.2 .4.2Z"/><path fill="#AB6D29" d="M253 261.4s-.8-.3-1.4-3.9c-.6-3.6-.5-4.5-.5-4.5l1.5 1 1.3 2.3 -.9 5Z"/><path fill="#8F4620" d="M253.5 255.4s-.7 2-.7 3.2c0 1.2 0 2 .2 2.8v0c.39.68.9 1.28 1.5 1.8l.5-.5 .3-1.6v-2.7l-1.8-3Z"/><path fill="#202020" d="M255.5 258.2s.4 5-1 5.1c-.5.1-1.4-1.9-1.5-2 0 0 1.1 2 1.6 1.7 .8-.3.5-5.2.5-5.2l.4.4Zm-2.5 3.2l-.5-.7c-.4-.6 0 .5-2.8 1.5s-3.6.4-3.6.4 .9.7 3.6-.1c2.7-.8 2.5-1 2.8-1l.5-.1Z"/><path fill="#AB6D29" d="M248 255s.5.3 1 1.3l.8 1.7 .1-.1 -.8-1.7 -1.7-2.6 .6 1.4Z"/><path fill="#8F4620" d="M246.4 261.2s.3-1 0-1.1c-.3-.2-.5 0-2.4-.2v-.001c-1.15-.17-2.29-.4-3.4-.7 0 0 1.3.8 2.5 1.1v0c.89.24 1.79.47 2.7.7h.5l.1.2Z"/><path fill="#202020" d="M246.4 261.2l-.2-.4c-.2-.2-.5 0-2.8-.5l-2.8-1s.8.6 2.8 1.1l3 .8Z"/><path fill="#AB6D29" d="M247.4 254.6s-1.7 0-2.2.5c-.5.4-1.3 1.6-1.3 1.6l1.1.1s-.1-1 .4-1.5 1.3-.6 2-.7Z"/><g fill="#8F4620"><path d="M244.2 251.4s.7.9 1.4 1.2c.7.3 1.4.6 1.7 1 .4.3.7 1.4.7 1.4s-2.4-1.1-2.8-1.6c-.5-.6-1-2-1-2Z"/><path d="M246.6 252s-.3-.4-1-.7c-.6-.3-1-.3-1.3-.1 -.1.1 0 .2 0 .2l.8 1.3 .5-.1s-1.3-.8-1-1c.6-.6 2 .3 2 .3Z"/></g><path fill="#202020" d="M253 248.9l13.6-7 6.4 9 -11.7 3 -6.2.6 -3-2.2Z"/><g fill="#4D2A15"><path d="M271.2 252.7l16.8 14.6 -1.8 1.3 -4-1.1 -8.2-8.1 -3-3.1Z"/><path d="M292.8 264.4l-9.7-7.3L271 248l.3 4.3 13.9 12.8 4.6 2.2 2.3-.7 1.2-1.2 -.5-1Z"/></g><path fill="#803F1D" d="M271.1 254.1s4.9 5.5 8.6 8.3c3.7 2.8 7.2 5.8 8 5.4 .7-.4.4-.9.4-.9l-17-13.9v1.1Z"/><path fill="#4D2A15" d="M283 268.1l-1.6 1.3 -2-.8L269 258l.5-2 1.5.3Z"/><path fill="#202020" d="M292.8 264.4s-1.3 3-4 2.3c-2.7-.7-17.6-14.8-17.6-14.8v1.5s15 13.8 18 14.3c2.9.6 5.3-2 5-2.2v0c-.46-.35-.93-.68-1.4-1Z"/><path fill="#803F1D" d="M269.5 256.3s4.8 6.2 7.3 8.4c2.6 2.3 4.8 4.1 5.8 3.9 1-.2-.6-1.4-.6-1.4l-7.3-7.1 -3.7-3.8s-1.5-.6-1.5 0Z"/><path fill="#202020" d="M270.7 256.3s12.2 12.4 13.1 12.7c2 .6 5-1.5 5-1.5l-1-.6 -.2.4s-.5 1.2-3.2.7v0c-4.87-3.54-9.33-7.6-13.3-12.1l-.4.4Z"/><path fill="#4D2A15" d="M275.3 268.2l-4.5-5.1 -1-1.7 -.2-2.2 8.8 9 -1.2.8 -1.1-.4Z"/><g fill="#202020"><path d="M283.3 268.4s-1 1.6-2.5 1.3v0c-.9-.21-1.71-.7-2.3-1.4L270 260l-.2-1.3s9.3 9.9 11 10.3c1.2.3 2-1.2 2-1.2l.5.6Z"/><path d="M278.6 268.1s-.4 1.2-1.7 1c-1.2-.1-1.6-.6-1.6-.6l-5.2-6.2 -.1-1.6s5.4 7.4 6.6 7.9c1.3.4 1.6-.9 1.6-.9l.4.4Z"/></g><path fill="#B07229" d="M273 251.9s5 4.3 5.5 4.5c.4.2 2.2.3 2.3.6 0 .2-1.2 0-1.3.2 0 .3 2.6 2.4 3 2.5 .4 0 2.5 0 2.5.3s-1.5 0-1.5.3 2.2 2.2 2.7 2.2c.4.1 3 .1 3 .4 0 .3-2.1 0-2 .4 0 .4 3.6 2.7 3.5 3 -.2.3-4.4-2.8-4.5-2.7v0c-.08.49-.25.96-.5 1.4 -.3.1 0-1.4-.2-2 -.2-.6-2.7-2.5-3-2.3 -.2.3 0 1.4-.2 1.4s0-1.4-.2-1.9c-.3-.5-2.6-2.4-2.9-2.4 -.3 0-.1 1-.3 1.2 -.2.2-.2-1.2-.5-1.6 -.3-.4-5.6-5.2-5.4-5.5Z"/><g fill="#4D2A15"><path d="M264.4 265.9s0 1.9-.8 2.2c-.8.3-2.5-3.5-2.5-3.5l-.4-3.6 2.5 2.4 1.2 2.5Zm6.7-1v-1l-.2-1.2 -.2-2 -.4-1.2 -.4-.9h-.6l-1.3 1 -.4 1.3 .7 2.4 .6 2.1 1 .4 1.2-.9Z"/><path d="M269.4 268.3c.3-.2-.3-2.8-.3-2.8l-1.5-3.8 -.5-1.4 -1.2-.5 -.8 1 .1 1.5 1.9 3.5c.5.8 1.8 2.6 2.3 2.4Z"/></g><g fill="#202020"><path d="M268 260c.5.4 1 1.4 1.1 2.1 0 0 1 2.9.9 3.1 -.1.3-.8.3-.8.3s1.4 1.5 1.8 1.3c.5-.2.3-1.6.1-1.9 -.1-.3-.5 0-.7-.4 -.2-.3-.7-2.2-.7-3.3V259c.2-.3 1.2 2.3 1.2 3.7l.5.6 -.5-2.6 -.5-1.8 .2-1.2v-.8l.7.4c.2 0 .5-.4.6-1.6 .1-1.2-.1-4.8-.1-4.8l-5.4 7.1 1.6 2Z"/><path d="M268 259.4s-.2 2 .5 4c.7 1.9.9 2 1 2.2 .2.3.2 2.4 0 2.6 0 0-1.5-3.5-2-5.2 -.4-1.8-.5-2.4-.8-2.6l-.6-.1 2-.9Z"/></g><path fill="#4D2A15" d="M267.5 269.6c.1 0 0-.8 0-.8l-.2-1.8 -1.9-4 -2-1.8 -1.1-1.7 -.2 3.2s1.5 3.2 2.5 4.2c1 .9 2.6 2.8 2.9 2.7Z"/><path fill="#202020" d="M259.7 260.9s.4.8.4 1.4v1l1.4 2.8c.7 1.3 1.4 2.5 2 2.3 .5-.3.7-1.2.8-1.3 0-.1-.7 1-1 .8 -.4-.1-2-5.2-1.9-5.3l-.8-.6 -.9-1.1Zm5.7 4.3l-1.4-2.5c-.4-.8-1-1.4-1.1-1.4 -.2 0-.4-1.5-.4-1.5s.5 1 1.3 1.4c.7.3 1.1.6 1.5.5l.2 1.6 -.1 2Z"/><path fill="#5C3A1D" d="M262 262.6s.3 1.1 1 2.2l1.9 2.3s-1.3-1.2-2-2.2c-.7-1-1.1-2.3-1.1-2.3h.1Z"/><path fill="#202020" d="M265.6 261.3s.4-1 .7-1l.9-.2s-.5-.1-1-.6c-.4-.6-.5-.5-1-1l.3 1.5 .1 1.3Zm-.3.3l2 4.4c.3 1.2.3 2.8.3 2.8l-.6-2.1c-.3-1-1.7-3.7-1.8-4 -.2-.3 0-1 0-1Z"/><path fill="#4D2A15" d="M267.4 259.5l.4-4.8 -.4-1.8 -2.2-4.8s-.1.7-.7.7v0c-.93-.26-1.77-.78-2.4-1.5v0c-.42 1.25-.49 2.6-.2 3.9l4.3 7.9 1.2.4Z"/><g fill="#8B441F"><path d="M259 262.7s.7.8 1 .7c.4-.1.3-1.6-.2-2.5 -.5-.8-5.6-7.7-6.4-8.1 -.7-.4 5.6 9.9 5.6 9.9Z"/><path d="M262.5 259.9c.1.3.5 2.5-.4 2.7 -1.2.2-6.9-7.5-7.7-8.6 0 0-3.6-2.2-3.6-2.8 0-.5 3.8.8 3.8.8l7.5 7.2 .4.7Z"/></g><path fill="#202020" d="M259 262.7s-.6-1.1-.7-2c0-.7-.3-1.1-.3-1.4v0c-1.44-2.27-2.98-4.47-4.6-6.6l-1.8-1.1 -.001 0c.01.63.08 1.27.2 1.9 0 0 1.3 2.4 3.2 4.6l4 4.6Z"/><path fill="#4D2A15" d="M265.3 261.6c.5-.3.3-2.2 0-2.8 -.1-.6-3.5-7.6-3.5-7.6l-1 .4 -1.9-1.5 -1-1.1 .3 2.5v1.3l2.6 4.6 4.5 4.2Zm3.8-4.2l.8-1 -.5-3.5 -2.2-7.6s-.5.2-1-.2v0c-.44-.29-.85-.62-1.2-1l.5 4.5 2.3 6.4 .2 1.9 1 .5Z"/><path fill="#202020" d="M262.1 259.2s-2.2-2.4-3-3.6l-1.3-2.4s-.6.3-1.4 0c-.7-.4-1.8-1.5-1.8-1.5s-.6 1.2 2.6 4.5c3.7 3.7 5 3 5 3Z"/><path fill="#8B441F" d="M267.5 260c1-.4 1-4.3 0-7 -.9-2.6-2.3-5-2.3-5s1.8 4.4 2.2 6c.4 1.8 0 3-.3 3 -.3-.1-.3-1-1-2.7 -.8-1.7-1.3-2.1-1.3-2.1s2.6 7 1.9 6.9c-.7-.2-4.3-8-4.5-8.2 -.1-.2-.2.3-.2.3s3.2 9.8 5.5 8.8Z"/><path fill="#4D2A15" d="M269.6 241l1.6 3.4 .5 3.5 .1 3s.1 6-.6 6c-.7.2-1.1-.5-1.1-.7l-1.4-6.6 -1.4-6.8 .5-.4 .2-1 1-.1 .6-.3Z"/><path fill="#8B441F" d="M265.3 261.6c.6 0 0-1.6 0-1.6s-.5.7-1 .2c-.4-.5-1-2.5-1-2.5l-.4-1.2s-.5 1.3-1 1.3c-.7 0-3.7-5.1-3.7-5.1l-.4.5s4.3 8.9 7.5 8.4Z"/><path fill="#202020" d="M263.3 257.7s.5-1.2.3-2.4h0c-.48-1.39-1.08-2.73-1.8-4l-1-.1 -1.9-1v0c1.09 2.7 2.57 5.22 4.4 7.5Zm2.5-1.8s-.4-2.7-1.7-5.2v0c-.49-1.23-1.17-2.38-2-3.4v2.8s1.2.5 2 2v0c.66 1.22 1.22 2.49 1.7 3.8Zm3.4-4.6s-.2-3-.7-4.7l-1-4 .3-.2h.5c.7.1 1 1.7 1 1.7l-.2-2.5v0c-.07-.14-.14-.27-.2-.4h-1.1s.2.7-.1 1c-.3.3-.5-.1-.6-.2l-.1.3 .2 1.6v1.4s.4 1.7 1 2.8l1 3.2Zm2.6-.4s.5-4.2-.4-7h-.001c-.35-1.25-.97-2.41-1.8-3.4l-.5.6s1.5 2.3 2 4.4c.4 2.3.7 5.4.7 5.4Zm-4.3 2.2s-.4-3.4-1-5.5l-.8-3 -.9-.7s.5 2.2.5 2.9l-.1 1s.4 1.2 1 2.2c.6 1 1.3 3 1.3 3Z"/><g fill="#904720"><path d="M269.8 258.3c.8 0 0-4.8-.3-6l-2.3-7s2.4 8.2 2.2 8.6c-.3.6-1.2-2.5-1.4-2.4 -.2 0 1.8 5.5 1 5.6 -.6 0-1-1.2-1-1.2v1.2s.5 1.2 1.8 1.2Z"/><path d="M270.8 255.9c.6 0-.2-4.5-.6-6.6l-1.5-6s1.1 2.8 1.8 6c.6 3.2 1 7.3.5 7.4 -.7 0-1-.6-1-.6v-.7s.2.5.8.5Z"/></g><path fill="#312317" d="M263 261.2c0 .3 0 1.9-.8 1.8 -.8-.1-2.3-1.5-2.6-2.5 0 0 1.8 2 2.4 2 .6 0 .6-2 .5-2.6 0-.5.5 1.3.5 1.3Z"/><path fill="#D2A567" d="M267.3 239.6s1 .7 2 .2v-.001c.78-.56 1.26-1.45 1.3-2.4 0-.6 0-1.2-.5-1.9 -.6-.7.8.6.8 1.9 0 1.2 0 3.4-2 3.9s-1.1-.1-1.1-.1l-.5-1.6Z"/><path fill="#8F4620" d="M265.7 235.8s1.3 2 1.8 4c.5 1.8.4 2.5 0 2.6 -.3 0-.4-.2-.4-.7l-1.4-6Z"/><path fill="#1E2121" d="M243.3 238.3l8.4 12.3 10.7-12 -6.7-6.8Z"/><path fill="#4D2A15" d="M254 230.8l-.5 2 1 3.2 1.8 1.8 2 1.4 .5-1.5 .5-1.8 .5-.2 1.3.5 .9-1.3 1.4-2.4 -.3-1 -.4-.7 -2.1-3.7 -.7 1.4 -.7.4 -1.2-.7 -1.5 2 -1.9-.9Z"/><g fill="#5C3818"><path d="M258.4 239.2s.3-.3.5-1.2c.1-1 .2-4-.1-5.2 -.3-1.2-1-3.5-1.2-3.3 -.2.1 1.2 2.5 1 5.5 -.2 2.9 0 3.7-.7 4 -.6.3.5.2.5.2Z"/><path d="M258.8 234.3s1.4 2 2.1 1.2c.7-.7.3-3.2 0-4.2l-1-2.5 .4-.4 .7 2.7c.3 1.1 1 4.2.1 4.8 -.9.5-2.2-1.2-2.2-1.2v-.4Z"/></g><path fill="#8F4620" d="M254.3 235.6s.5-.7 1.1-.7c.7 0 .8.2.8.2l.6 1.6 .9 1.7 .8.9 -.4.5h-.7l-2-1 -.6-.8 -.5-2.4Z"/><path fill="#D2A567" d="M257.6 253c-.6.4-2.1-.3-3-1.1l-5.4-5.4 -.6-2.5 1.8.4 3-1.3 .6-1 3.7-2 2-1 4.5-.2 1-2.1s1.6 2.6 1.8 3.6c.2 1 .2 4.3-.2 4.5 -.4.3-1.8-1-2-1 -.3 0 1 4.6 0 4.8 -1.1.1-3-1.8-3-1.8s.8 4.2 0 4.2c-1 0-3.2-1-4.1-2 0 0 1 3.4 0 4Z"/><g fill="#8F4620"><path d="M256.8 247.7l.9 1.4c.2.3 0 2.3-.2 2.6 -.3.8-1.3-.9-1.8-2.3l-1.8-3c0-.4 2.9 1.3 2.9 1.3Zm8.7-10.3s1.5 6.5.8 6.7c-.8.2-3-2-3.2-2.4l-3.3-5.1 -.6-.7 .2-.3 1.3.5 4.8 1.3Z"/><path d="M254.3 249.8c-.3.3-1-.8-1.3-1l-2.4-2.7c-1-1-1.8-1.8-1.8-2 0-.3-.7-1-.7-1l.6-.6 .7-.1s4.3 3.4 4.6 4c.3.5.5 3.3.3 3.5Zm6.5.1c-.2.2-3-1.9-4.3-3.6 -1.2-1.7-2.4-3.2-2.7-4h-.001c-.18-.5-.35-1-.5-1.5l.8.2s7 8.6 6.7 8.9Zm1-3c-.2.2-1.4-.7-2.2-1.7 -.7-1-.3-2.3-.3-2.3s2.6 3.8 2.5 4Zm1.6-.4c-.4.2-2-1.8-3.4-4 -1-1.6-1.3-1.9-1.5-2v0c-.32-.15-.66-.25-1-.3l-.2-.2 .7-.2 .6-.7 .8-1 3.4 6.8s.8 1.5.6 1.6Z"/></g><path fill="#AB6D29" d="M254.6 251.9c0 .3 0 .5-1 .4 -.8 0-5.7-2.7-7.8-6.2l-.001-.001c-.84-1.34-1.67-2.67-2.5-4l1-1.1 7.6 8.7 2.7 2.2Z"/><path fill="#8F4620" d="M254.6 251.9c.1.4-.4.5-.8.4 -.6-.1-2.5-.8-5.5-4.2 -3-3.4-4.3-5.9-4.3-6l-.1-1.4 .9-.4 5.2 8 4.6 3.6Z"/><path fill="#4D2A15" d="M259.7 248.5s-1.6-1.2-2.6-2.4 -3-4-3-4.6c0-.5 1-.5 1-.5l-.1-1.5 .2-.4 1.5.6 1.9 2.3 .7 1s1.2 2.8 1 3c-.3.4-2-1.5-2.2-1.3 -.2.2 2 3.5 1.6 3.8Zm-3-.8s.6.8.3 1.3c-.2.6-.4.9-1.2-.3 -.8-1.2-1.7-2.5-1.8-2.4 0 .1.1 1.8-.3 1.8s-1.6-1.4-2.4-2.6l-2-3s.2-.5.1-1.8l-.1-2s0 .4.2.7l.4.6 2.8 3.3 .8-.5 1.7 3.3 1.6 1.6Zm-10.8-5s2.2 4 4.3 6.1v0c1.25 1.3 2.74 2.36 4.4 3.1L248 244l-2-1.2Zm17 2.4c-.1 0-1.5-1.4-2.4-2.7v0c-.79-1.2-1.27-2.58-1.4-4l.2-2.8s2.3 2.4 2.8 3.5c.4 1 1.3 2.6 1.1 2.8 -.2.1-1.7-1-1.9-.8 -.2.3 1.8 3.8 1.6 4Zm2.6-2.5c-.3.1-1.5-1.2-1.8-2 -.3-1-.4-2.6-.4-2.6l-1-2.4 .1-2.6 1-.2 1.5 2.1s.6 1.3.6 3c0 1.9.3 4.5 0 4.7Zm-18 6.5c-2-2.5-3.3-5-3.3-5l-.7-2.2 .4.3s.6 2.6 3.7 5.7c3.2 3.1 3.9 3.4 3.9 3.4s.6 1.7.3 2.3c0 0-2.3-2-4.3-4.5Z"/><g fill="#202020"><path d="M250.9 252.7s-2.7-2.4-4.9-5c-2.1-2.8-3.5-5.4-3.5-5.4l1-.9s1.8 4.2 3 5.9l0 0c1.45 1.8 2.92 3.6 4.4 5.4Zm3.7-.8L250 247h-.001c-.98-1.06-1.82-2.24-2.5-3.5l1.3.5s.5 1.4 1.7 2.8l4.2 5.1Zm-.6-5.6s-1.7-2-2.5-3.4l-1.7-3s2.3 2.7 3 2.8c.7.2.7 0 .7 0s-.3 1 0 1.8c.1.8.5 1.8.5 1.8Zm.7-8.4s.3 1.4.1 2.3c-.2.9-.7.8-.7.8l1.5 1.8c.5.6 1.8 1.5 1.8 1.5l-1.5-2.2c-.4-.7-1-1.6-.7-2.3 .2-.7 1.6.5 2 .8l2 2.3s-.5-2-1.4-2.7v0c-.97-.82-1.97-1.58-3-2.3Z"/><path d="M261.6 242.3l-1.4-3.5 -1.3-4v2.2c0 1-.4 2.4-.8 2.6 -.4.2-.5.2-1.3 0 -.7-.2.6.4.6.4s.8 0 1-.4c.4-.4.5-1.2.9-1.1 .3.1.7 1.3 1 1.9l1.3 1.9Z"/><path d="M259 234.7s1.6 1.9 2.3 1c.7-.8.3-3.1.3-3.1s1 .3 1.3 0c.3-.2.2-1 .2-1s1.8 2.5 2.6 4.2c.9 1.6 1.3 4.6 1.3 4.6s-1.5-2.4-2.2-4.6c-.7-2.1-1.7-3-1.9-2.8 -.1.2-.4 1.6-.2 2.4 .2.7.8 1.7 1.2 2.7 .5 1.1 1 2.8 1 2.8l-1.4-2c-.5-.7-1-1-1.4-1.3 -.3-.3-.8-1-1.3-1.1 -.5-.2-1.5-.7-1.5-.3l-.2-.8 -.2-.7Z"/></g><path fill="#171717" d="M253.4 242.6l1.6 2.8 1.8 2.3s-1.6-1.4-2.2-2.3c-.6-1-1.2-2.8-1.2-2.8Z"/><path fill="#8F4620" d="M264.1 243c-.2.2-1-.1-1 .2 -.1.3.4 1.3 1 1.9 .5.6.7.6.9.5l-.2-1.1V243c-.1-.2-.7 0-.7 0Z"/><path fill="#D2A567" d="M244.7 231.5l-1 .6 -1 2.3 .3 4.3 1.7 2.4c.6 1 2.8 3.4 3.3 3.2 .6-.1 1.2-1.8 1.2-2.7l.2-2.6s.5 1 1.4 1.9c.9 1 1.7 1.9 2 1.8 .5 0 1.7-2.5 1.8-2.9 0-.3-3.2-8-3.2-8l-1.4-.7 -5.3.4Z"/><path fill="#AB6D29" d="M251.8 238l.9 2.9c.3 1 0 1.8.2 1.8 .1 0 1.8-2.2 1.8-3.2s0-2-.4-5c-.5-3.1.1-4 .1-4l-1-.8 -1.5 3.3v5Zm-5.5-1.8l.5 4c.2 1 .8 2.6 1.1 2.5 .3 0 1.3-2.6 1.4-3.5 0 0-.7-1.3-.7-4.4 0-3.2-.3-3.5-.3-3.5l-2 4.9Z"/><path fill="#45392D" d="M242 230s-2.5 3.6-2.4 5.6c0 2 .3 1.6 1 3.4 .5 1.8.8 4.4.8 4.6 0 .3.4 0 .5-.3l.1-13.3Z"/><path fill="#AB6D29" d="M242 230.5s-2.2 3.3-2 5.2c.1 1.9.4 1.8 1 3.5 .7 1.6.7 4.4.7 4.4s.7-.2 1.5-.8v0c.58-.49 1.09-1.06 1.5-1.7l-.8-1.7 -.6-1.5 -.6-1 .2-3.1 .6-2.4v-.8l-1.5-.1Z"/><path fill="#DBAD6C" d="M253.8 236.3l-1.6-.5c-.4-.3-.6-1-.6-1l.3-.6 1.9 2Z"/><path fill="#D2A567" d="M242.4 230.8s-1.5 3.4-1.4 5.8h-.001c.25 1.85.83 3.64 1.7 5.3v-7.7l.7-2.3v-1.2l-1 .1Z"/><path fill="#8F4620" d="M246.3 231.6v1.4c-.1.5-1 1-1.3 1.6l-.8 2.3s.3-1 .9-1.5c.5-.5.7-1 .8-.6 .1.3.3 1.6.2 1.9 -.1.2-.6.6-.8 1.6v0c-.19.61-.19 1.28 0 1.9l.4-1.8c.1-.5.5-.7.5-.7l1 1.8V238c.2-.7 1-1.6 1.1-1.6 .3 0 .6-.2-.2-.6 -.3-.2-.1-3.4 0-3.6 .3-.1 1.5-.1 1.4-.6h0c-.37-.62-.8-1.19-1.3-1.7l-2 1.7Z"/><path fill="#DBAD6C" d="M253.6 238.5l-1.2-.2v0c-.22-.08-.38-.28-.4-.5v-.5l1 .5 .6.7Z"/><path fill="#8F4620" d="M243.6 238.9c0 .3-.3.7-.5 1.2l-.3 1.2 -.3-2.6 -.3-1.9 -.5.5s0-1.2.2-1.8c.3-.6.4-1.4.2-1.6 -.2 0-.6.3-.8.6l-.6 1 .5-1.5c.3-.4 1.4-1.7 1.7-2.3l.2-1 .8-.1s.9.7.9 1.3c0 .3-.9.6-.9.7 0 0-.7 0-.8 2.6 -.2 2.7.5 2.5.5 3.7Zm7.4-7s.2 1.5 0 2c-.1.4-.5.8-.8 1.3 -.4.6-.3 2-.3 2l.4-1 .5-.9c.1 0 .5.5.7 1.3l.6 2s-.2-1 0-1 .4 0 .8.3l.7.6s0-.4-.5-1 -.8-.4-1-1.1c-.1-.7-.2-1.5-.1-1.7 0-.3.4.1.7.5l1.2 1.1 -.5-.8v-2.3c0-.8 0-1.6.2-1.8 .3-.2.4-1.2.2-1.4 0-.2-2.8 2-2.8 2Z"/><path fill="#1E2121" d="M259.7 228.9s0 1.6.3 2.6l.9 3s-.9-1.5-1.3-2.8c-.4-1.4-.7-2.8-1-3 -.4 0-.8.7-.8 1.3v0c.06 1.17.33 2.32.8 3.4 .5.7-.7-1-1-1.9l-.6-1.7s-.3.7-.2 1.6c.2.9.9 2.1.9 2.1l-.8-.8 -.5-.5s0 1.2.3 1.7l1 1.3 -1-.9v0c-.16-.15-.3-.32-.4-.5 0 0 .1 1.7.5 2.6l1.2 2.3s-1-.7-1.6-2.2v0c-.61-2.12-.88-4.31-.8-6.5l1-1.5c.4-.7 1-3.8 1-3.8s.6 2.9 1.1 3.5c.5.5 1 .7 1 .7Zm-6.9-.9l.6 1.1 .5.8s-.9 1-1.8 1.7c-1 .7-2.2 1.5-2.5 1.1 -.3-.4-.3-.8-.3-.8s1-.6 1.9-1.5v0c.54-.48.98-1.06 1.3-1.7l.3-.7Zm-8.7 2.9s.1 1.8.9 1.7c.8 0 3-2.3 3.1-2.4 .2 0 .3-.6.3-.8v-.6s-2.5 2.4-3.3 2.5v-.001c-.39.07-.78-.09-1-.4Zm0-2.4l-.2 1.6c0 .4.2.7.2.7s-1.7.6-2 0c-.3-.5-.1-1.2-.1-1.2l1.2-.1c.4-.1 1-1 1-1Zm16.3-2.5s.7 1.8 1.2 2.6l1.1 2.2 -1.5-1.6h0c-.34-.27-.67-.54-1-.8l.2-.9V226Z"/><path fill="#DBAD6C" d="M241.7 229.6h1l.7-.1 .6-1s-.3 1.1 0 2c.2.8.6.9.8.9h0c.69-.12 1.33-.47 1.8-1l1.7-1.4s-.2 1 .2 2c.3 1.1 1 1.1 1.8.5 .8-.7 1.6-1.8 2-2.3l.6-.8 .9-.7 .8-4.4 -.5-.6 -1 .6 -1.4-.6 -.4-.5 -.8 1.3 -.8.5h-.4l-1 .3 -.4-.9 -.2-.6 -.5-.2 -2 2 -1-.1 -1.1 1.7 -.8 1 -.8 2 .2.4Z"/><path fill="#8F4620" d="M251.1 225.2s.2 1-.4 2.9c-.6 1.9-1.3 3-1.3 3s2-1.1 2.9-3.2c1-2.2.7-4.6.7-4.6l-1.9 1.9Zm2.4-2s.2.3 0 2l-.6 3.2 .5.9c.2.5.9 1.4 1.4 1.3 .4-.2 1.2-.7 1.7-1.8l1-2.3c.3-.2.3 0 .4.2 0 0 .2 1 .7 1.4 .5.4 1 1 1.4.8 .3-.2.5-.7.5-1l-1-3.2 -1.3-3.2 -.8-1.2 -2.3.2 -1.6 2.7Z"/><path fill="#AB6D29" d="M257.4 220.3s.6 1.3.7 2.8c0 1.5-.3 3-.3 3v-3c-.1-1.2-.6-1.7-.6-2l.2-.8Z"/><path fill="#4D2A15" d="M260.5 226v2c-.2.5-1-.5-1.6-2.5 -.5-2-.4-2.4-.8-3.4 -.5-1-.7-1.8-.7-1.8l1.1-.2 2 6Zm-5.6 3.8s2.2-1.3 2.5-5c0-1.7-1-4.5-1-4.5s0 3-.8 5l-1.5 3.1 .8-.5 .6-.9v1.3l-.6 1.5Zm-1.9-6.5s0 .8-1 1.5c-.9.8-2.5 1.6-2.5 1.6s1.2-1.1 1.6-2.1c.5-1 .1-1.6.1-1.6s-.1.5-.6 1 -1.3.4-1.3.4 0-.5.5-1c.1-.1 0-.4.2-.6 .2-.8.9-1.9.9-1.9s.5 1.2 1 1.7l1.1 1Z"/><path fill="#1E2121" d="M259.8 218.9s.5 1.3.7 3.2c.2 1.8 0 4 0 4l-1.4-2.5c-.3-.7-.3-1.7-.5-2.3v0c-.24-.34-.55-.61-.9-.8l-.8-.1s.7-.3.7-.9v-.8 0c.69.3 1.46.37 2.2.2Zm-4.9 7.8s1.2-1.6 1.5-3.7c.3-2 0-2.7 0-2.7s-.5-.1-1-.5 -1-1.4-1-1.4 .2 1 0 2.4c-.2 1.3-1.4 2.5-1.4 2.5s.6.2 1.2-.1c1.2-.7 1-2 1-2s.3.2.3 1.8 -.6 3.7-.6 3.7Z"/><path fill="#8F4620" d="M241 229.5c-.3 0 .7-1.6 1.4-2.7l1.7-2.7s.2.2.6.2v0c.82-.13 1.55-.6 2-1.3v0c.31-.64.55-1.31.7-2 0-.3 0 1.4.8 2.3 .8 1 .7.9 1 .8 0 0 0 1.2-.3 2.2l-.6 2.7s.1-2-.2-2.6c-.3-.6-.5 0-.8.8 -.3.7-.9 1.2-.9 1.2l.8-1.8c.3-1 .1-1 0-1 0 0-.2 0-.5.3 -.3.4-.7.5-.7.5s.4-.3.6-.8c0-.5.5-1.2.7-1.4l.4-.8c0-.2 0-.6-.2-.6s-.4.3-1.1 1c-.8.7-1 .7-1 1l-.7 2h-.001c-.23.79-.53 1.56-.9 2.3l-.4.4 .6-2c.4-1 1-2.5.8-2.7 -.1-.2-.4-.2-.5 0 -.1.2-1 1.1-1.7 2.2s-.7 2.5-.9 2.6h-.7Z"/><path fill="#874F20" d="M260.5 217.7c0 .1.1 1-.7 1.2v0c-.66.19-1.37.16-2-.1v-1.2l2.7.1Z"/><path fill="#B27129" d="M244.8 220.3l-.6 1.7c-.5 1-1.2 1.7-1.1 1.8 0 .1.5.6 1.2.5 .6 0 .8-3.8.8-3.8v-.2h-.3Z"/><path fill="#DBAD6C" d="M254.8 218.2s-.4 5-1.8 5 -2-2.5-2-2.5 -.2 3.5-2 3.5c-.9 0-1.7-2.7-1.6-3.2 0 0-.3 1.8-1.2 2.5 -1.7 1.4-2.8.7-2.8.5 -.1-.2 1.4-1.7 1.6-3.7 0 0 .3.1.7-.5 .4-.6.7-1.2 1-1.1 .5 0 2.6-.9 2.6-.9l1-1.3s.2.4 1-.1v-.001c.46-.36.81-.85 1-1.4l2.2 1.8 .2 1.4Z"/><path fill="#B27129" d="M249.1 213.3l2.2 3 .5-.4c.2.4.4.7.3 1 -.3.7-1 1.8-.5 3 0 0-.1-.7.2-1.5 .3-.8.5-1.1.7-1 .2 0 .5 4.6.8 4.6 .3 0 .7-2.1.7-3.6s.3-.3.5 0c.1.3 1.4 2.4 2.5 2 1-.2 1-2.2.9-2.6 0-.4-.8-3-.8-3l-4.9-3 -.4 1.2c-.3.8-2.7.3-2.7.3Z"/><path fill="#8F4620" d="M256 212.8s.3.3.8 1.5 .5 5.1 0 5.1c-.7 0-2-.7-2.2-1.3 -.2-.5.1-2.4-.3-3v0c-.47-.67-.81-1.42-1-2.2l.1-1.5 1.1-.4 1.6 1.8Z"/><path fill="#4D2A15" d="M255.7 211.6l2 3.1 2 2.6 .8.4v0c-.64.71-1.68.87-2.5.4 -.7-.4-.3-1.6-1.2-3.6v0c-.61-1.21-1.5-2.24-2.6-3l.6-.5 1 .6Z"/><path fill="#1E2121" d="M254.6 210s1.8 1.1 2.5 2.5l1.8 3.4c.8 1.3 1.7 1.7 1.6 1.8 0 .1-.5.2-1 0v0c-.43-.36-.77-.8-1-1.3l-2-3.4v0c-.54-.62-1.19-1.12-1.9-1.5 0 .1.5.4 1.3 1.7v-.001c.49.74.8 1.6.9 2.5l-1-1.6c-.6-1.2-2.1-2.7-2.2-2.5l1.2 2.4 1 2.6 -1.4-2.3c-.8-1.3-1-1.1-1.3-1.5l-1.1-1.4s.7.2 1.5-.3c.7-.5 1-1.2 1-1.2Z"/><path fill="#8F4620" d="M249.8 213.3s1.2.3 1.9.2h.9s.4.5.4 1.1c0 .6-.5 1.7-.6 1.8 -.2 0-.2-1-.5-1.4v0c-.64-.61-1.3-1.18-2-1.7Z"/><path fill="#B27129" d="M250.5 216.5s.4 1.3 0 3c-.2 1.9-1.3 3.7-1.5 3.7 -.3 0-.2-2-.3-3v0c0-.14 0-.27 0-.4l-.5 1.2c0-.1.4-1.9.3-2v-.7l1.3-1.6 .7-.2Z"/><path fill="#8F4620" d="M248.2 217.8c-.4.5-1 .3-1.4.5 -.5.1-.7.9-.7.9s.4-.3.6-.2c.2 0 .4 0 0 1 -.4.8-1.8 2.3-1.7 2.4 0 0 1.6-1.3 2-2 .6-.8.5-1.2.6-1.5 .1-.3.7-.6.9-.6 0 0 .4 0 .5.6l.4 2v0c.31-.64.54-1.31.7-2l.1-2.3 -.5-.1 -1.2-.7s.2 1.4-.3 2Z"/><path fill="#DBAD6C" d="M254.6 208.6s.5 1.3-.5 2.1c-.3.3-.6.4-1.1.5 -.6 0-1.4-.5-1.4-.5l-3.1-1.3 -1.7-.5 -.8-.2 .1-.9 2.5.1 2.4 1 1 .3 1 .1h.6l.6-.1 .3-.3 .1-.3Z"/><path fill="#AB6D29" d="M254.6 208.6c.1.2-.2 1-.4 1 -.2.1-.7.3-1.6.1 -1-.2-1.9-.8-3-1 -1-.4-1.7-.6-2.5-.6s-.5-.4-.5-.4 1.9-.2 3.5.4c1.6.6 2.3 1 3.1 1 1.2 0 1.4-.5 1.4-.5Z"/><path fill="#4D2A15" d="M246.1 207.7h.7c.3 0 .5-.2.5-.2l-.1.5h-1v-.3Z"/><g fill="#DBAD6C"><path d="M252.2 211.5s1.1 1 .8 2l-2-1 -3.5-1.4 -1.8-.6 -.3-.3 .6-.6v-.6l2.3.3 2.4.7 1.5 1.5Z"/><path d="M249.9 213s2 2.5 1.5 3.4l-4.5-3 -1.7 2.7 -3.7-1.8s3-2.3 3.4-2.8l.3-.6 1.7.4 2.7.8 .3 1Z"/></g><path fill="#AB6D29" d="M248.8 209.3s1.6.4 2.7 1c1 .4 2.4.6 2.4.6s-.6.6-1.7.6c-.3 0-1.1-.6-1.6-1s-2-.8-2-.8l.2-.4Z"/><path fill="#4D2A15" d="M246 208.4l1.9.6c.7.3.7.2 1 .2l.1-.2s.2.7-.4.7c-.6 0-.7-.2-1.4-.5s-1.2 0-1.2 0v-.7Z"/><path fill="#AB6D29" d="M252.3 212.9s.9.5.7.6c-.1 0-.6.3-1.3.3 -.7 0-1 0-1.5-.2s-.8-1.1-2-1.6v0c-.75-.34-1.52-.6-2.3-.8l-1-.2 .8-.3 2.6.5 2.2.7 1.3.6 .5.4Zm-4.3 1.5l.5 2 -.3 1.3 -.7.4 -.6-.2 -.2-.4s.3-.5 0-.9 -1.6-1-1.6-1 .5-1 1-1.2c.7-.2.4-1 .4-1l1.5 1Z"/><path fill="#4D2A15" d="M245.4 210.2s.4.4 1.3.5l1.7.3c.2.1.8-.2.9-.2l-.5.3 2 .7c.9.4 1.6 1 1.6 1l-1.6-.7v0c-.78-.31-1.59-.54-2.4-.7 -1.6-.3-3.1-.2-3.5-.3 -.3-.1.2-.1.3-.3 .2-.2.2-.6.2-.6Z"/><path fill="#AB6D29" d="M251.2 215.8s.5.6 0 .8c-.5.2-2 .1-2.6-.6l-.4-1c-.3-.3-1.3-1-2-1.3 -.5-.4.3-.5.3-.5l2.9 1.3c.8.4 1.8 1.3 1.8 1.3Z"/><path fill="#4D2A15" d="M251.3 215.9s-1-1.4-4-2.6l.9-.2h-1.5 0c-.24-.11-.47-.21-.7-.3 -1.6-.4-1.7-.4-1.8-.6 0-.2-.3 0-.4.3v0c-.19.27-.39.54-.6.8v0c.64-.21 1.33-.24 2-.1 .9.2.9.5.8.9 0 .3-1.1 1.6-1 1.6 .1 0 .7-1.2 1.5-1 .8.2 1 .6 1 .6l-.1-.7c-.2-.2-1-1-.8-1 .2 0 1.2.3 2.6 1 1.4.7 1.6.9 2 1.3Z"/><path fill="#DBAD6C" d="M246.5 213.6s2.2.7 2.1 3c0 2.4-1.8 2-2 1.1 -.1-.9.3.4.9.3 .7-.1.8-.8.8-1.7 0-.9-.3-1.3-.8-1.8v0c-.32-.33-.65-.63-1-.9Z"/><path fill="#6C3F18" d="M236.8 208s.3 0-.4 1.8v0c-.38 1.22-1.03 2.35-1.9 3.3 -1.8 2-2.6 2-2.4 2.8 .2.9.9.7 1 .7 .2 0 3.5-4.8 3.5-4.8l.7-2.8 -.2-.8 -.2-.3Z"/><path fill="#DBAD6C" d="M244.9 204.5s1 1.4.6 4c-.3 2.7-3.8 5-3.8 5l-5 3.6 -2.2-.2h-.6c-.4-.1-.7-.4-.7-.4 -.2 0-.4-1-.4-1l.6-.8 1.9-1.8 1.1-1.7s.6-1 .6-1.9c.1-1-.1-1.4-.1-1.4l.4.7 .2 1.4 -.2 1.6 1.4-1 1.7-.7s.5-.1.9-1c.3-1 .6-2.5.6-3.2v-1.4h.2c0 .1.5 1 .5 1.4l.3 2.2 .9-.8 .7-1.2c.2-.4.4-1 .4-1.4Z"/><path fill="#904720" d="M245.5 217.8s.3.2.2 1.2c-.1 1-1 1.5-1.3 1.5v-1.3l-1.1-1 -1.2-.3 .2-.2c.1-.2 1.4-.7 1.4-.7l1.8.8Z"/><path fill="#AB6D29" d="M244.6 217.8s.3.3.9.2c.6-.1.8-1 .5-1.4 -.3-.4-.2.8-.5 1 -.4 0-.8-1-1.3-1 -.5-.2-1.3.2-1.5.5 -.2.3.8 0 .8 0l.6.2 .4.1v.4Z"/><path fill="#904720" d="M237.2 214.1s.7.2 1.4.1 2.5-.8 2.5-.8l1.4-1c.6-.7 2.5-1.8 2.7-4.2 .2-2.3-.3-3.7-.3-3.7s2.8 3 .3 6.5c-1.6 2.3-3 3-3 3s2.8-.8 3-.1c.2.6-.1 1.6-.2 1.8 0 0 1.5.3 1.8 1.1 .1.5-1.8-.5-3.2-.2h0c-.78.17-1.49.59-2 1.2 0 0-.3-.4-1.5-.4 -1.3 0-1.9.6-2.6.5 -.7 0-3-.5-3.4-1.1l1.5-1.7c.7-1.3 1.6-1 1.6-1Z"/><path fill="#AB6D29" d="M243 207.8s1.1-1 1.5-1.9l.4-1.4s.1.8-.5 1.8v0c-.42.58-.88 1.11-1.4 1.6v-.1Z"/><path fill="#904720" d="M242.7 205.4s1 3.4 0 4.9c-1 1.4-5.1 3.2-5.1 3.2s3.1-1.7 4-3.6c1-2 1-3.6 1-3.6l.1-1Z"/><path fill="#1E2121" d="M238.6 214.2s1.3 0 2-.5c.8-.4 1.9-1.4 1.9-1.4s-1 .9-1.3.9c-.3 0-.5-.5-.4-.8 0 0-.2.7-.8 1.1v0c-.42.32-.9.56-1.4.7Zm3-4.3s1.2-1.2 1.2-3.6c0-2.4-1-2-1-2s.8.6.6 2.4c-.1 1.9-.7 3.2-.7 3.2Zm1.4.2s1.3-.3 1.7-1c.5-.8.5-2.2.5-2.2s-.2 1.3-.5 1.8c-.4.5-1.7 1.4-1.7 1.4Zm-.7 7.6s.6-1.2 1.4-1c.9.4.9 1 .9 1s-.3-.4-1-.5v0c-.48.04-.93.21-1.3.5Zm-2.4-2.2l3-.8 2.3-.8s-.9 1-2.2 1.9c-1.4.7-2.5.8-2.5.8s2.5-1.1 2.7-1.6c0 0-2.4.7-3.3.5Z"/><path fill="#FFF" d="M237 212.7l-.001-.001c.96.66 1.21 1.98.54 2.95 -.67.96-1.99 1.21-2.95.55"/><path fill="#F16E16" d="M236.9 212.9l-.001-.001c.7.78.63 1.98-.15 2.68 -.57.5-1.38.63-2.06.31"/><path d="M236 214h-.001c.43-.05.82.28.87.72 .04.43-.29.82-.73.87 -.39.03-.75-.22-.85-.6"/><path fill="#D5D3CA" d="M236.2 214.9v0c-.03.13-.17.22-.3.2 -.14-.03-.23-.17-.2-.3v0c-.02-.11.06-.22.17-.23 .04-.01.09 0 .12.02 0 0 .2.1.2.3Z"/><path fill="#AB6D29" d="M237.5 211.3s1.2-1.2 1.5-2.8c.2-1.6 0-2.5 0-2.5l.7.7 .3 1.2 -.4 2 1.3-.6v0c.75-1.56 1.1-3.28 1-5 0 0 .3.7-.2 3s-.9 2.6-2.6 3.6v0c-1.31.77-2.36 1.92-3 3.3h0c-.53.9-1.17 1.74-1.9 2.5 0 0 .9-1.2 1.3-2.2 .7-1.4 1.4-2.2 1.4-2.2l.6-1Z"/><path fill="#904720" d="M236.9 212.3s.5-1.6.5-2.5c0-.9-.6-1.9-.6-1.9s.8 0 .9 1.8c0 2-.3 2-.8 2.6Z"/><path fill="#4D2A15" d="M239.3 210.3s.6-1.5.6-2.4c0-1-.8-1.9-.8-1.9s1 .2 1 2c0 1.7-.2 1.7-.8 2.3Z"/><path fill="#AB6D29" d="M233.7 216.8s-.5-.6-.4-1c0-.5 0-.6 1.1-1.8v0c.81-.71 1.48-1.56 2-2.5 .3-.6 1.2-2.3.5-3.6 0 0 .5 2-.6 3.4v0c-.74 1.13-1.65 2.15-2.7 3 -1 .7-1 1-1 1.4 0 .4.1.7.3.8 .3.2.8.2.8.2Z"/><g fill="#6C4119"><path d="M244.4 220.5s.2 0 .4-.3c.1-.2.1-.7-.3-1.2v0c-.32-.47-.78-.82-1.3-1l-1.6-.2s.3.6 1 1c.4.2 1 0 1.4.3 .3.4.4 1.4.4 1.4Z"/><path d="M244.4 220.5s1.2-.4 1.3-1.6l-.1-1s.2.4.7.6l.4-.2s-.7 2.3-2.3 2.2Z"/></g><path fill="#BF802D" d="M235.8 220.3l.7.6 .7.7 3-.8 1-.9 -.9-1.3h-2.1l-2.4 1.7Z"/><path fill="#F9C83A" stroke="#8F4620" stroke-width=".3" d="M243 219.3l-.5-.8s-.2-.3-.6-.5c-.4-.3-2.2-.2-2.2-.2l-1.3.2s-.4.4-1 .2l-2.2-.7 -1.4-.7s-1.1-.4-1.4-.3c-.2 0-1 1-1 1s-.3.6.1.6c.3 0-.5.2-.5.2s-2.3 1.2-2.6 3.4c-.4 2.2 3.7 5.5 5.2 3.8 0 0-2.2-1.6-1.8-3 .4-1.3 1.5-2.2 3.2-2.3 1.7 0 1.8-.3 2.6-.8 .7-.6 2.1-.9 3.2.2 1 1.1-4 2.1-4 2.1l.6.8s6.1-2.1 5.6-3.2Z"/><path fill="#FCF3D8" d="M231.5 224.5s-2.5-.6-2.3-2.9v0c.22-1.5 1.26-2.73 2.7-3.2 .4-.1.3-1.3.7-1.4 .4-.1 1.2 0 1.6.3 .3.4 1.1.7 1.1.7s-4.4 2-4.5 4.5c0 1.7.7 2 .7 2Z"/><path fill="#FDEAAF" d="M243 219s-.3.2-.4 0c-.4-.8-1.5-1-2.4-1 -1.1 0-1.9.4-2.7.4l-1.4-.2c-1 0-2.8-1.4-3.3-1.3 -.4.2-.6.7-.5 1 0 .2-.8.3-1 0 -.2-.3.7-1.4 1.5-1.4 2.1 0 3.7 1.4 4.7 1.4s1.3-.5 2.7-.5c1.4 0 2.8.6 2.8 1.6Z"/><path fill="#513625" d="M236.2 220.7l1.7-.6 1.8-.6 -1.6 1 -1.7.4 -.3-.2Z"/><path fill="#F9C83A" d="M232.6 225.8c-.1.1-1 0-2.4-.9s-1.8-2.5-1.8-2.5 -.3-1.5 1.2-3c1.4-1.6 1.6-1.1 1.7-1v.1l-1.3 1 -.7 1.1 -.5 1v1l.7 1.2 2 1.3 1.1.7Z"/><path fill="#8B5122" d="M231.9 217.2l-.1-.2v.2 -.2 .2 -.2l-.2.1h.2v-.1l-.2.1 .2-.1h-.2v.1l.2-.1h-.2 .2l-.2-.1h.2 -.2 .2 -.2 .2 -.2v0c-.15.15-.29.32-.4.5v0c-.12.14-.19.31-.2.5 0 .2.2.4.3.5h1.2v0c.08-.08.09-.2.01-.29 -.01-.01-.02-.02-.02-.02v0c-.05-.08-.12-.12-.2-.1h-.5v0c-.1.02-.21.02-.3 0v-.1 0c-.02-.07-.02-.14 0-.2v0c.08-.15.18-.28.3-.4v-.1h.1v-.2l0 0c.01-.09-.03-.16-.1-.2v0c-.11-.02-.22.06-.23.17 -.01.04 0 .09.02.12l-.001-.001c.07.08.19.09.28.01 0-.01.01-.02.01-.02Z"/><path fill="#F9C83A" d="M236.1 219.3l-3 .9c-.3.2.9 0 1.8 0h0c.36-.06.73-.06 1.1 0h.7c1.2-.5 3.6-1.4 3.8-.4 .2 1-3.3 1.7-3.3 1.7v.3l2.8-.7 1.4-.7 .5-.8 -1.4-1h-2l-1 .3 -1.4.4Z"/><path fill="#8F4620" d="M231.8 223.6c.2.6.7 1.5 1.2 1.8 0 0 .1 0 0 0 0 .2-.4.4-1.3.2 -1-.3-2.4-.7-3.3-3.3v.5l.5 1 1 1 1.4 1 1 .2 .9-.2 .4-.3 -.9-.8 -1-1.8v.7Z"/><path fill="#FCCA3D" d="M241.7 250.1v1h-.6l.1-1.3Zm-3.8-27.5l-1-1.1h-.6l1 1.4Z"/><path fill="#816C2A" d="M241.6 252.4l-1.3-.8 -2-.5v.3h.2v-.001c.59.06 1.16.23 1.7.5v0c.44.2.88.43 1.3.7l.1-.2Zm0-2.5h-2.2c-.8.2-1.2.6-1.2.6l.1.2h0c.59-.46 1.34-.68 2.1-.6h0c.36-.02.73-.02 1.1 0v-.2Zm-.3-2.1l-2 1 -1.4 1 .2.2 .4-.3 .9-.6h-.001c.64-.39 1.3-.72 2-1l-.1-.3Zm-1.4-2.2v0c.02.34-.05.68-.2 1l-.001 0c-.16.2-.33.4-.5.6l-1.3 1.4 -.7.7 .1.2v-.001c.4-.4.8-.8 1.2-1.2l.9-1 .5-.6c.3-.5.3-1 .3-1h-.3Zm-1.7-1v0c.12.59.09 1.21-.1 1.8l-.8 1.7 -.4.8 -.1.3h.2s1-1.7 1.3-2.7v0c.13-.39.2-.8.2-1.2v-.7h-.3Zm-1.7-.2v-.001c-.03.33-.03.66 0 1v0c.02.43-.01.87-.1 1.3l0 0c-.17.5-.33 1-.5 1.5l-.3.8h.2l.8-2.2c.2-.4.2-1 .2-1.5v-.9h-.3Zm-1.3 0v1l-.1 1.5v0c-.15.66-.29 1.33-.4 2h.2l.1-.6 .3-1.3c.2-.9.2-2.6.2-2.6h-.3Zm-1.3.3v0c-.09.73-.09 1.46 0 2.2 -.3.8-.4 2-.4 2h.3v0c.06-.64.16-1.28.3-1.9v-2.4h-.2Zm-1.1 0v.2c0 .3 0 1-.3 1.8l-.4 1.5 -.2.8 .2.1 .7-2.3v0c.15-.63.22-1.27.2-1.9v-.1h-.2Zm-1.3.1v.5c0 .5 0 1.2-.3 1.7 -.2.5-.7.9-1 1.2l0-.001c-.23.17-.46.34-.7.5h-.1l.1.2s1.4-.8 2-1.8v0c.29-.73.39-1.53.3-2.3h-.3Zm-.7-.2v.1 0c-.19.53-.46 1.04-.8 1.5l-1 1 -.5.2 -.2.1 .1.3s1.2-.7 1.8-1.4c.5-.7.8-1.8.8-1.8h-.2Zm-1.2-.6v.1 -.001c-.13.17-.26.33-.4.5 0 .2-.2.4-.3.5l-.8.5v0c-.17.1-.34.2-.5.3l.1.2 .5-.3 .8-.5 .6-.7 .2-.5 -.2-.1Zm-.6-.8l-.2.3v0c-.23.24-.46.47-.7.7v0c-.13.14-.26.27-.4.4l-.3.2v.2l.6-.3 1.2-1.3 -.2-.2Zm-.2-.5l-.2.2 -.7.4 -.7.3v.3c.2 0 .3 0 .5-.2l1.2-.8 -.1-.2Zm-.3-.5l-.6.3h0c-.14.06-.27.13-.4.2h0c-.13.08-.26.15-.4.2v.2l.5-.1 1-.6v-.2Zm-.2-1.1l0-.001c-.16.15-.32.28-.5.4l-.7.3v.2c.4 0 .7-.2 1-.4v0c.14-.09.27-.19.4-.3l-.2-.2Zm0-1.8l-.4.4 -.6.8v-.001c-.03.03-.07.07-.1.1v.3l.2-.1h-.001c.04-.06.07-.13.1-.2 0-.2.3-.4.6-.7l.3-.2 .1-.2 -.1-.2Zm8.6-10.2h1.3v-.2 .2 -.1 .1 -.1 .1 -.1l-.1.1v-.1 .1 -.1h-.1 .1 -.1v-.1h.1 -1.2v.2Zm0-.8h.1l.6-.1 .8-.5 .3-.3v0c.09-.03.2-.03.3 0v-.3l-.5.2 -.8.5 -.7.3v.2Zm0-1.2c.1 0 .3 0 .5-.2l1-.6 .7-.3v-.3l-.5.2 -1 .6 -.8.4v.2Zm-.5-1l1.2-1 1.3-.9 -.1-.2 -1.3 1 -1.2.8 .1.2Zm-.8-1.3l2.6-1.9 -.2-.2 -2.6 1.9 .2.2Zm-1.2-1.3l1.5-1 1.2-.8 -.1-.2 -1.2.8 -1.5 1 .1.2Zm-.8-.7v-.001c.69-.51 1.39-1.01 2.1-1.5l.6-.4v-.2h0c-.24.08-.48.18-.7.3l0-.001c-.75.52-1.48 1.05-2.2 1.6l.2.2Z"/><path fill="#78732E" d="M235.6 220.3l.1.1h0c.73.59 1.4 1.26 2 2 .8 1 1.4 2.2 1.4 3.3v.4 0c-.26 1.5-.96 2.89-2 4 -1.5 1.9-3.8 3.5-5.6 5.1v-.001c-.9.73-1.71 1.57-2.4 2.5v0c-.61.81-.96 1.78-1 2.8v.1c0 1 .4 2 1 2.7h-.001c.55.87 1.47 1.46 2.5 1.6h-.001c.19.01.4.01.6 0 1.4 0 3-.5 4.5-.5 1.2 0 2.4.3 3.5 1.5 1 1.1 1.3 2.9 1.3 4.6v0c-.01 1.1-.11 2.21-.3 3.3v0c-.09.5-.19 1-.3 1.5h.2s.7-2.3.7-4.8c0-1.7-.4-3.6-1.4-4.8l0 0c-.95-1.03-2.31-1.58-3.7-1.5 -1.6 0-3.1.4-4.5.4h-.6 0c-.94-.12-1.77-.63-2.3-1.4v-.001c-.55-.77-.86-1.67-.9-2.6v-.1c0-1.3.6-2.4 1.6-3.5 1.4-1.6 3.6-3.2 5.5-5 2-1.6 3.6-3.5 3.9-6v-.3c0-1.4-1-2.8-1.9-3.9l0 0c-.55-.62-1.16-1.19-1.8-1.7l-.1.2Z"/><path fill="#A8AC71" d="M233.7 222.8l-.3-.3 -.3.1 .5.4Zm.8.7l-.2-.2h-.2l.2.3Z"/><path fill="#78732E" d="M235.6 224.8l-.2-.3 -.1.2 .2.2Zm.8 1.2v-.2h-.3l.3.3Zm.5 1.2v-.3h-.1v.3Zm0 1.2v-.4 .4Zm0 .7v-.3 .4Zm-9.7 11.9l.1-.6c.1-.3-.2.1-.2.1v.4h.1Z"/><path fill="#FFF" d="M227.1 241.7h-.1v.4h.1v-.4Z"/><path fill="#78732E" d="M227.2 243.1v-.3h-.2v.5Z"/><path fill="#FFF" d="M227.3 243.9v-.3h-.2v.3Zm.2 1.1l-.1-.3v.4Zm.3 1.2l-.2-.4v.4Z"/><path fill="#A8AC71" d="M228.5 247.8l-.1-.3h-.2l.2.3Zm1.2 1.1l-.4-.3c-.2-.2-.1.2-.1.2l.3.2 .2-.1Zm7.8.6l-.3-.2 .2.3v-.1Z"/><path fill="#FFF" d="M238.2 250l-.3-.2v.2h.2Z"/><path fill="#A8AC71" d="M238.3 250.3l-.2.2 .3.2 -.1-.4Zm0 1.1v-.4c0-.1 0 0 0 0v.4Z"/><path fill="#FFF" d="M238 252.6v-.3l-.2.3Zm-12-41.7s.5-.1.1.4l.3-.4 -.2-.1 -.2.1Z"/><path fill="#F9C83A" d="M235.7 220l.3.3 -.4-.1 .1-.2Z"/><path fill="#8F4620" d="M236 220.3h-.6l.2-.1h.4Z"/><path fill="#977C2E" d="M240.7 255.3s.4 0 .5-.3c.2-.2 0 .3 0 .3l-.3.1 -.2-.1Z"/></svg>