<svg viewBox="0 0 512 512" xmlns="http://www.w3.org/2000/svg"><path fill="#C00" d="M0 0h512v512H0Z"/><path fill="#FFF" d="M.4 42.5h511.2v41H.4Zm0 84h511.2v41H.4Zm0 84.1h511.2v41H.4Z"/><path fill="#006" d="M0 0h256v298.7H0Z"/><path fill="#FC0" d="M172.5 86.8l5.6 38.2 21.6-32 -11.6 36.8 33.3-19.4 -26.4 28.1 38.5-3 -36 13.8 36 14 -38.5-3.1 26.4 28L188 169l11.6 36.7 -21.6-31.9 -5.6 38.1 -5.6-38 -21.5 31.8 11.5-36.7 -33.2 19.4 26.3-28.1 -38.4 3 36-13.9 -36-13.9 38.4 3.1 -26.3-28.1 33.2 19.4L145.4 93l21.5 32Zm-31.2 1.6v-.001c-33.67-14.97-73.08.19-88.05 33.85 -14.97 33.66.19 73.07 33.85 88.04 17.24 7.66 36.93 7.66 54.18 0h0c-33.67 24.13-80.52 16.41-104.66-17.25 -24.14-33.67-16.42-80.52 17.24-104.66 26.12-18.74 61.28-18.74 87.4-.001Z"/><path fill="#FFF" d="M.4 294.6h511.2v41H.4Zm0 83.5h511.2v41H.4ZM0 471h511.2v41H0Z"/></svg>