<svg viewBox="0 0 512 512" xmlns="http://www.w3.org/2000/svg" xmlns:xlink="http://www.w3.org/1999/xlink"><defs><clipPath id="a"><use xlink:href="#b"/></clipPath><path id="b" d="M0 0h512v512H0Z"/></defs><g clip-path="url(#a)"><g fill="#FFF" fill-rule="evenodd"><use xlink:href="#b"/><path fill="#3662A2" d="M-108.2.2l.8 368.6L466.6 0l-574.8.2Z"/><path fill="#38A100" d="M630.7 511.5l-1.4-383.2 -579 383.5 580.4-.3Z"/><path fill="#C70000" d="M-107.9 396.6l.5 115.4 125.3-.2 611.7-410.1L629 1.4 505.2.2l-613 396.4Z"/><path fill="#FFE700" d="M154 183.4l-23.1-14L117.5 193l-13-23.8L81 183l.6-27.1 -27 .2 14-23.2L45 119.5l23.8-13L55 83l27 .6 -.1-27.1 23.2 14 13.4-23.6 13 23.7L155.2 57l-.6 27 27-.1 -14 23.2 23.6 13.3 -23.8 13.1 13.7 23.4 -27-.5Z"/><path fill="#3662A2" d="M167.8 120c0 27.2-22.3 49.3-49.8 49.3 -27.5 0-49.7-22.1-49.7-49.4 0-27.3 22.3-49.3 49.8-49.3 27.5 0 49.7 22 49.7 49.3Z"/><path fill="#FFE700" d="M157 120v0c1.09 21.51-15.47 39.83-36.98 40.92 -21.52 1.09-39.84-15.47-40.93-36.98 -.07-1.32-.07-2.64 0-3.95v0c1.09-21.52 19.41-38.07 40.92-36.98 19.98 1.01 35.96 16.98 36.97 36.97Z"/></g></g></svg>