<svg viewBox="0 0 512 512" xmlns="http://www.w3.org/2000/svg" xmlns:xlink="http://www.w3.org/1999/xlink"><defs><clipPath id="a"><path d="M500 226.4l-63.7 110.3h127.4Z"/></clipPath><linearGradient id="b" x1="498.7" x2="500.6" gradientUnits="userSpaceOnUse" y1="289.1" y2="283.4"><stop offset="0%" stop-color="#510000"/><stop offset="30%" stop-color="#8A0000"/><stop offset="100%" stop-color="#A00"/></linearGradient><linearGradient id="c" x1="501.4" x2="502.9" gradientUnits="userSpaceOnUse" y1="291.4" y2="287.4"><stop offset="0%" stop-color="#FF2A2A"/><stop offset="100%" stop-color="#F00"/></linearGradient><linearGradient id="d" x1="444.5" x2="634.4" gradientUnits="userSpaceOnUse" y1="317.5" y2="317.5"><stop offset="0%" stop-color="#025"/><stop offset="50%" stop-color="#04A"/><stop offset="100%" stop-color="#025"/></linearGradient><linearGradient id="e" x1="444.5" x2="634.4" gradientUnits="userSpaceOnUse" y1="317.5" y2="317.5" xlink:href="#d"/><linearGradient id="f" x1="444.5" x2="634.4" gradientUnits="userSpaceOnUse" y1="317.5" y2="317.5" xlink:href="#d"/><linearGradient id="g" x1="444.5" x2="634.4" gradientUnits="userSpaceOnUse" y1="317.5" y2="317.5" xlink:href="#d"/><linearGradient id="h" x1="444.5" x2="634.4" gradientUnits="userSpaceOnUse" y1="317.5" y2="317.5" xlink:href="#d"/><linearGradient id="i" x1="444.5" x2="634.4" gradientUnits="userSpaceOnUse" y1="317.5" y2="317.5" xlink:href="#d"/><linearGradient id="j" x1="444.5" x2="634.4" gradientUnits="userSpaceOnUse" y1="317.5" y2="317.5" xlink:href="#d"/><linearGradient id="k" x1="444.5" x2="634.4" gradientUnits="userSpaceOnUse" y1="317.5" y2="317.5" xlink:href="#d"/><linearGradient id="l" x1="444.5" x2="634.4" gradientUnits="userSpaceOnUse" y1="317.5" y2="317.5" xlink:href="#d"/><linearGradient id="m" x1="444.5" x2="634.4" gradientUnits="userSpaceOnUse" y1="317.5" y2="317.5" xlink:href="#d"/><linearGradient id="n" x1="444.5" x2="634.4" gradientUnits="userSpaceOnUse" y1="317.5" y2="317.5" xlink:href="#d"/><linearGradient id="o" x1="484.8" x2="484.8" gradientUnits="userSpaceOnUse" y1="311.7" y2="317.6"><stop offset="0%" stop-color="#F5F549"/><stop offset="100%" stop-color="#97C924"/></linearGradient><linearGradient id="p" x1="484.8" x2="484.8" gradientUnits="userSpaceOnUse" y1="311.7" y2="317.6" xlink:href="#o"/><linearGradient id="q" x1="484.8" x2="484.8" gradientUnits="userSpaceOnUse" y1="311.7" y2="317.6" xlink:href="#o"/><linearGradient id="r" x1="484.8" x2="484.8" gradientUnits="userSpaceOnUse" y1="311.7" y2="317.6" xlink:href="#o"/><linearGradient id="s" x1="484.8" x2="484.8" gradientUnits="userSpaceOnUse" y1="311.7" y2="317.6" xlink:href="#o"/><linearGradient id="t" x1="98.9" x2="125" gradientUnits="userSpaceOnUse" y1="1440.2" y2="1440.2" gradientTransform="scale(4.45715.22436)" xlink:href="#d"/><linearGradient id="u" x1="47.9" x2="61.7" gradientUnits="userSpaceOnUse" y1="3054.2" y2="3054.2" gradientTransform="scale(9.12405.1096)" xlink:href="#d"/><linearGradient id="v" x1="47.9" x2="61.7" gradientUnits="userSpaceOnUse" y1="3054.2" y2="3054.2" gradientTransform="scale(9.12405.1096)" xlink:href="#d"/><linearGradient id="w" x1="47.9" x2="61.7" gradientUnits="userSpaceOnUse" y1="3054.2" y2="3054.2" gradientTransform="scale(9.12405.1096)" xlink:href="#d"/><linearGradient id="x" x1="47.9" x2="61.7" gradientUnits="userSpaceOnUse" y1="3054.2" y2="3054.2" gradientTransform="scale(9.12405.1096)" xlink:href="#d"/><linearGradient id="y" x1="47.9" x2="61.7" gradientUnits="userSpaceOnUse" y1="3054.2" y2="3054.2" gradientTransform="scale(9.12405.1096)" xlink:href="#d"/><linearGradient id="z" x1="47.9" x2="61.7" gradientUnits="userSpaceOnUse" y1="3054.2" y2="3054.2" gradientTransform="scale(9.12405.1096)" xlink:href="#d"/><linearGradient id="A" x1="47.9" x2="61.7" gradientUnits="userSpaceOnUse" y1="3054.2" y2="3054.2" gradientTransform="scale(9.12405.1096)" xlink:href="#d"/><linearGradient id="B" x1="47.9" x2="61.7" gradientUnits="userSpaceOnUse" y1="3054.2" y2="3054.2" gradientTransform="scale(9.12405.1096)" xlink:href="#d"/><linearGradient id="C" x1="47.9" x2="61.7" gradientUnits="userSpaceOnUse" y1="3054.2" y2="3054.2" gradientTransform="scale(9.12405.1096)" xlink:href="#d"/><path id="I" d="M530.6 297.5h.4v10.8 0c-.1 2.27-.79 4.47-2 6.4 -.5 1.6-1 1-2.3 2.9v0c-1.69.58-3.43.98-5.2 1.2 -2.5.4-8 .8-10.9.1v0c3.72-1.14 7.09-3.21 9.8-6v0c.74-.8 1.44-1.63 2.1-2.5v0c1.11-1.39 2.11-2.86 3-4.4l1-2v0c.47-.95.91-1.92 1.3-2.9v-.001c.38-.99.71-1.99 1-3l.3-.3 .6-.2 1-.1Z"/><path id="Q" d="M489.6 307.3v0c3.23 6.33 8.33 11.53 14.6 14.9h2.5c-4.4-2.4-11.5-5.8-17-15Z"/><path id="H" d="M530.6 297.5c-.8 0-1.2.1-1.5.3l-.3.3v0c-1.5 5.53-4.4 10.59-8.4 14.7 -4 4.1-9 6.9-14.6 6.9h-7.7v9.9H559l-5.7-10c-4.7-.7-9-3.2-12.4-6.8v-.001c-4.01-4.11-6.91-9.17-8.4-14.7l-.3-.3v0c-.5-.26-1.05-.37-1.6-.3Z"/><path id="F" d="M449.7 321.4v-.001c-1.58-.01-3.15.09-4.7.3l-.5.9c2.4-.3 4.7-.7 7.2-.7 3.2 0 6.2.8 9.7.8h4.6c3.5 0 6.4-.8 9.7-.8 3.3 0 6.3.8 9.8.8h4.6c3.5 0 6.4-.8 9.7-.8 3.3 0 6.3.8 9.8.8h4.5c3.5 0 6.5-.8 9.8-.8 3.3 0 6.3.8 9.8.8h4.5c3.5 0 6.5-.8 9.8-.8 2.6 0 5 .5 7.5.7l-.5-1v-.001c-1.47-.16-2.94-.22-4.4-.2h-4.5c-3.5 0-6.5.7-9.8.8 -3.3 0-6.3-.8-9.8-.8H522c-3.5 0-6.5.7-9.8.8 -3.3 0-6.3-.8-9.8-.8H498c-3.5 0-6.5.7-9.8.8 -3.3 0-6.3-.8-9.8-.8h-4.5c-3.5 0-6.5.7-9.8.8 -3.3 0-6.2-.8-9.7-.8h-4.6Z"/><path id="N" d="M483.4 298.9c-.6 9-5.6 20.5-11.3 22.4 -1.9.7-5.1.9-6.2 1v0c8.91-4.96 15.31-13.46 17.6-23.4Z"/><path id="P" d="M485.4 298.9c.5 6 2.3 13.2 6.7 17.8 1.6 1.3 3.6 2.6 5.6 2.3v0c-6.11-5.25-10.41-12.28-12.3-20.1Z"/><path id="K" d="M524.5 309.3c-1 2.7-4.8 6.7-8.8 10h-2.9c2.5-.2 8.3-5 11.7-10Z"/><path id="E" d="M500 277.5h-.1l.1 3 .1-3h-.1Z"/><path id="R" d="M450.3 334.8c-3.4 0-6.4.8-9.6.9v0c-1.21-.04-2.41-.14-3.6-.3l-.5.8h6c3.5 0 6.4-.8 9.6-.9 3.3.1 6.2 1 9.7 1h4.5c3.4 0 6.4-.9 9.6-1 3.3.1 6.3 1 9.7 1h4.5c3.5 0 6.4-.9 9.7-1 3.2.1 6.1 1 9.6 1h4.5c3.4 0 6.4-.9 9.7-1 3.2.1 6.2 1 9.6 1h4.5c3.5 0 6.4-.9 9.6-1 3.3.1 6.2 1 9.7 1h4.5l1.8-.1 -.5-.8c-1 .1-2.1.3-3.2.3 -3.3 0-6.2-1-9.7-1h-4.5c-3.4 0-6.4 1-9.6 1 -3.3-.1-6.2-1-9.7-1h-4.5c-3.4 0-6.4 1-9.6 1 -3.3-.1-6.2-1-9.7-1h-4.5c-3.5 0-6.4 1-9.6 1 -3.3-.1-6.2-1-9.7-1h-4.5c-3.4 0-6.4 1-9.6 1 -3.3-.1-6.2-1-9.7-1h-4.5Z"/><path id="D" d="M500 226.4l-2.4 4 2.4 55 2.4-55Z"/><path id="J" d="M530 298.9c-.5 6-2.3 13.2-6.7 17.8 -1.6 1.3-3.7 2.6-5.6 2.3 6.7-5.5 10.8-14 12.2-20.1Z"/><path id="G" d="M530.6 297c-1.7 0-2.2.9-2.2.9 -2.7 10.6-11.8 21.3-22.6 21.3h-8V330h61.4l-6.2-11c-9.7-1.4-17.6-11.3-20.1-21.1 0 0-.6-.9-2.3-.9Z"/><path id="M" d="M484.8 297.5c-.8 0-1.3.2-1.6.3l-.3.3v0c-1.69 5.48-4.44 10.58-8.1 15 -3.4 4.3-9.7 8.6-14 9l-4.3 7.5h48v-10.7 0c-3.62-1.2-6.88-3.26-9.5-6v-.001c-4.03-4.14-6.92-9.23-8.4-14.8l-.3-.3v-.001c-.47-.24-.99-.34-1.5-.3Z"/><path id="O" d="M484.8 297.5h-.5v10.8c0 2.3.9 4.2 2 6.4l.2.5c.5 1.1.8 1.5 2.3 2.7v0c4.29 3.06 9.54 4.48 14.8 4 -1.1-.9-2.3-1.7-3.4-2.4l4.5-.5 0-.001c-3.71-1.22-7.05-3.35-9.7-6.2v0c-.49-.49-.96-.99-1.4-1.5l-.6-.8h0c-1.19-1.42-2.26-2.92-3.2-4.5v0c-.36-.66-.69-1.33-1-2h-.001c-.62-1.27-1.15-2.57-1.6-3.9h0c-.23-.66-.43-1.33-.6-2l-.3-.3v-.001c-.19-.1-.4-.17-.6-.2h-.001c-.33-.08-.67-.12-1-.1Z"/><path id="L" d="M484.8 297c-1.8 0-2.3.9-2.3.9 -2.5 9.8-11.8 22.3-21.5 23.8l-4.8 8.3h49v-11.3c-8.8-2.4-15.9-11.7-18.2-20.8 0 0-.5-.8-2.3-.8Z"/></defs><path fill="#0067C6" d="M0 0h512v512H0Z"/><path fill="#FFF" d="M0 170.7h512v170.6H0Z"/><path fill="#C8A400" d="M179.2 255.4l8.5.6 .1-1.3 -3.4-.2 .3-4 3.6-2.6v-1.6l-3.7 2.7c-.1-.9-.6-1.8-1.5-2.1 -.8-.3-1.7-.4-2.4.2 -.8.6-1 1.8-1.1 2.7l-.4 5.6Zm1.3-1.1l.3-4.2c.1-.7.2-1.5.8-2l0 0c.43-.35 1.06-.27 1.4.16 .09.12.16.27.19.43 .5 1 .3 2.2.2 3.3l-.2 2.5 -2.7-.2Zm-.2-12l8.3 2 2-8.1 -1.3-.3 -1.6 7 -2.5-.7 1.4-6.2 -1.1-.3 -1.5 6.2 -2.2-.5 1.5-6.6 -1.2-.3 -1.8 7.8Zm3-11.1l8 2.8 .5-1.2 -3.2-1 1.3-3.7c.2-1 .4-2.2-.2-3.1l-.001-.001c-.49-.69-1.27-1.1-2.1-1.1 -1 0-1.7.7-2.1 1.5 -.6 1.1-1 2.4-1.4 3.6l-.8 2.2Zm1.6-.8l1.3-3.6c.2-.7.6-1.4 1.3-1.6 .6-.2 1.3.3 1.3 1 .2 1-.3 2.2-.7 3.2l-.6 2 -2.6-1Zm2.9-9.5l4.5 2.6c.9.5 2 .8 2.9.2 1.2-.6 2-2 2.6-3.1 .4-1 .8-2.3.2-3.4 -.7-1-1.9-1.5-2.9-2.2l-3-1.7 -.5 1c1.4 1 2.9 1.8 4.3 2.6 .7.4 1.3 1.2 1.1 2v0c-.17.98-.59 1.91-1.2 2.7 -.5.7-1.3 1.2-2.1 1 -1-.1-1.6-.7-2.4-1.1l-3-1.7 -.5 1Zm6.1-10l6.8 5.1 3.1-4.1c.6-.9 1.2-2 .8-3v0c-.38-.91-1.23-1.53-2.2-1.6 -.4 0-1 .2-1.2.4 .2-1-.5-1.8-1.3-2 -1-.4-2 .3-2.7 1 -.8.8-1.5 1.8-2.2 2.7l-1.1 1.4Zm1.7-.3l2.4-3c.4-.5 1-1 1.6-.7 .6.3.7 1 .4 1.4 -.4 1-1 1.6-1.6 2.4l-1 1.3 -1.8-1.4Zm2.8 2l2.4-3c.5-.5 1-1.1 1.7-1 .6.2 1 .8.9 1.4 -.4 1.1-1.2 2-1.9 3l-1 1.3 -2.1-1.6Zm3.2-10.8l5.8 6.2 5-4.8 -.8-.8 -4 3.8h-.2l-5-5.3Zm7.5-6.6l5.2 6.8 1-.8 -5.2-6.8Zm7.6-5.2v-.001c-.79.49-1.47 1.14-2 1.9v0c-1.05 1.29-1.13 3.11-.2 4.5v0c.41.67.99 1.22 1.7 1.6 .7.3 1.4.5 2.2.4v0c2.04-.38 3.84-1.58 5-3.3v0c.38-.78.49-1.66.3-2.5l-1.2.5c.3 1.7-.8 2.5-2 3.3 -2 1.1-3.8 1-5-.7 -1.1-2 .2-3.6 1.8-4.7 1.2-.7 2.3-1.2 3.4-.5l1-.8v0c-.65-.45-1.42-.66-2.2-.6 -.9 0-1.8.3-2.8 1Zm10.1-5l-.9 9.5 1.4-.5 .2-3 4.4-1.7 2.2 2 1.3-.6 -7.2-6.3 -1.4.6Zm1.2 1l2.8 2.4 -3.2 1.3 .4-3.7Zm17.5-6.3l.6 8.5 4.6-.3c1.2-.1 2.5-.4 3.3-1.4h-.001c.94-1.26 1.24-2.89.8-4.4v0c-.47-1.33-1.62-2.29-3-2.5 -1.2-.3-2.5-.1-3.9 0l-2.4.1Zm1.3 1.1l3.7-.2v-.001c.71-.04 1.42.17 2 .6h0c.86.61 1.32 1.64 1.2 2.7v0c-.07 1.19-.87 2.22-2 2.6l-2 .3 -2.5.1 -.4-6Zm10.6-1.6l-.5 8.5 8.3.5V187l-7-.4 .2-2.6 6.3.4 .1-1.2 -6.3-.4v-2.3l6.9.4v-1.2l-8-.5Zm22.3 3.6l-3 8 1 .3 2.5-6.3v-.3l.2.4 3 8.4 1.4.6 3-8 -1-.4 -2.5 6.3v.3l-.2-.3 -3-8.5Zm11.5 4.9l-4 7.6 -1-.6 3.8-7.6Zm6.4 3.8v-.001c-.76-.53-1.61-.9-2.5-1.1v0c-1.63-.43-3.33.26-4.2 1.7v0c-.45.61-.72 1.34-.8 2.1 0 .8.2 1.6.6 2.3v0c.58.81 1.33 1.49 2.2 2 1 .7 1.9 1 2.8 1.1 1 0 1.7-.2 2.5-.7l-1-1c-1.4 1-2.6.4-3.8-.4 -1.9-1.2-2.6-3-1.5-4.7 1.3-2 3.4-1.5 5-.4 1.2.7 2.1 1.6 2 2.9l1 .5v0c.17-.78.06-1.6-.3-2.3v-.001c-.5-.83-1.18-1.51-2-2Zm8.1 6l-8.9 3.6 1 1 2.8-1.1 3.6 3 -.7 3 1 .9 2.3-9.4 -1-1Zm-.3 1.6l-1 3.6 -2.5-2.2 3.5-1.4Zm6.8 4.4l-6.6 5.4 .8 1 2.6-2.1 2.6 3.1 -.8 4.3 1 1.3 .8-4.6c.8.6 1.9 1 2.7.4 .8-.3 1.5-1 1.5-1.9 .1-1.2-.7-2.1-1.4-3l-3.2-3.9Zm-.2 1.7c1 1.2 2 2.3 2.8 3.5 .4.6 1 1.4.4 2.1 -.3.6-1.2.6-1.7.2 -1-.7-1.7-1.8-2.6-2.7l-1-1.3 2.1-1.8Zm10.1 11.9l-9.6.4 .8 1.3 3-.2 2.3 4 -1.7 2.6 .8 1.2 5.2-8 -.7-1.3Zm-.8 1.3l-2 3.1 -1.7-3 3.7-.1Zm6.3 10c-.5-1.5-1.4-3-2.8-3.7v0c-1.65-.81-3.62-.39-4.8 1 -1 1.2-1 2.8-.8 4.2v0c.29 1.67 1.05 3.23 2.2 4.5l-.6.2 .4 1.1 4-1.4 -1.6-4.3 -.9.3 1.2 3.2 -1.4.5h0c-1.14-1.08-1.91-2.48-2.2-4 -.3-1.2-.3-2.6.6-3.4 1-1 2.7-1.4 4-.5v0c1.05.93 1.76 2.2 2 3.6 .3.9.3 2-.4 2.7 -.2.1 0 .3.1.5l.4.5v0c.71-.59 1.12-1.48 1.1-2.4 0-.9-.2-1.8-.5-2.6Zm2.5 6.7l-4.8.9c-.9.2-1.5.4-2 .8 -.4.4-.7.9-.9 1.6v0c-.14.86-.11 1.74.1 2.6 .2 1 .5 1.8 1 2.4 .3.6.8 1 1.3 1.2 .6.1 1.3.2 2.2 0l4.7-1 -.2-1.2 -4.6 1c-2.1.3-2.8-.8-3.2-2.6 -.4-2-.1-3.2 2-3.6l4.6-1 -.2-1.1Zm2.6 14.5l-8.8-3.8v1.4l2.8 1.2 .3 4.6 -2.5 1.6 .1 1.4 8.2-5 -.1-1.4Zm-1.3.8l-3.2 2 -.3-3.5 3.5 1.5Zm-145.6 21.3l-1.2.3 1.3 5.2 1.3-.3Zm140.4 0l1.2.3 -1.3 5.2 -1.3-.3ZM199 293.5l-9.5 1.1 .8 1.2 3-.3 2.5 3.9 -1.4 2.6 .8 1.2 4.6-8.5 -.8-1.2Zm-.7 1.4l-1.8 3.3 -2-2.9 3.8-.4Zm4.4 3.9l-6.1 5.6 .8 1 5.1-4.9 -2.7 7.4 1 1 7.3-2.2 -5 4.7 .8.8 6-5.6 -1.2-1.4 -7.4 2.3 2.8-7.3Zm8.8 9l-5.1 6.8 6.6 5 .7-1 -5.6-4.2 1.6-2 5 3.7 .8-1 -5.1-3.8 1.4-1.8 5.4 4.1 .7-1 -6.4-4.8Zm8.4 6.1l-4 7.5 1 .6 1.6-3 3.7 2 .8 4.3 1.4.7 -.9-4.5c1 .3 2 .1 2.7-.6 .5-.6.9-1.5.6-2.3 -.3-1.1-1.4-1.7-2.3-2.2l-4.6-2.5Zm.5 1.7l3.9 2c.5.5 1.3 1 1.2 1.8 0 .7-.8 1-1.4 1 -1.3-.3-2.3-1-3.4-1.6l-1.6-.8 1.3-2.4Zm9.1 3.3l-3.2 8 1.2.4 3.2-7.9Zm7.7 2.7v0c-.87-.31-1.79-.45-2.7-.4l0-.001c-1.67.01-3.12 1.1-3.6 2.7h-.001c-.28.73-.34 1.52-.2 2.3 .2.8.6 1.5 1.2 2v0c.74.68 1.63 1.19 2.6 1.5 1.1.4 2.1.4 3 .3h0c.87-.19 1.66-.69 2.2-1.4l-1.1-.6c-1.2 1.3-2.5 1-3.9.6 -2.1-.8-3.2-2.3-2.6-4.3 .7-2.2 2.8-2.2 4.7-1.6 1.3.4 2.4 1 2.6 2.3l1.2.1v0c-.1-.77-.46-1.47-1-2v0c-.67-.7-1.49-1.21-2.4-1.5Zm8.6 2l-5.6 7.7 1.4.2 1.7-2.4 4.6.7 1 2.8 1.4.2 -3.1-9 -1.4-.3Zm.5 1.4l1.2 3.5 -3.4-.5 2.2-3Zm19.5-1.4v0c-.93.16-1.81.5-2.6 1v0c-1.43.83-2.16 2.48-1.8 4.1v0c.15.74.5 1.43 1 2 .5.7 1.2 1 2 1.3 .8.2 1.8.2 3 0v0c.99-.19 1.92-.64 2.7-1.3v-.001c.68-.56 1.14-1.34 1.3-2.2H270c-.3 1.7-1.6 2-3 2.4 -2.3.4-4-.4-4.4-2.4 -.4-2.3 1.4-3.4 3.3-3.8 1.3-.3 2.6-.3 3.3.7l1.2-.4v0c-.44-.63-1.08-1.09-1.8-1.3v0c-.98-.3-2.01-.34-3-.1Zm5.7-1l2.4 8.2 8-2.4 -.4-1.2 -6.7 2 -.8-2.4 6.1-1.9 -.3-1.1 -6.1 1.8 -.7-2.2 6.5-2 -.3-1.1 -7.7 2.3Zm9.2-3l3.6 7.8 1-.5 -3-6.4 8.3 3.8h.6l1-.6 -3.5-7.7 -1 .5 2.9 6.4 -8.5-3.9 -1.4.7Zm9.4-4.3l.7 1 3-2 .1-.1 4 6.1 1-.7 -3.9-6v-.2l3.1-2 -.6-1Zm8.6-6l5.8 6.4 .9-.9 -2.3-2.4 3-2.8 4.4.5 1.1-1 -4.6-.6c.6-.8.8-2 .3-2.8 -.4-.7-1.1-1.3-2-1.3 -1.2 0-2 .8-3 1.6l-3.6 3.4Zm1.7.1l3.3-3c.5-.4 1.4-1 2.1-.5 .6.4.6 1.2.2 1.8 -.6 1-1.6 1.8-2.5 2.7l-1.2 1 -1.9-2Zm8.2-10l3.8 8.9 1-1.1 -1.3-2.8 3-3.6 2.9.7 .9-1.2 -9.4-2 -.9 1.2Zm1.5.4l3.7.7 -2.2 2.7 -1.5-3.4Zm2.2-5.2l7.2 4.7 3.7-5.8 -1-.7 -3 4.6v.2l-.2-.1 -6-4Z"/><g clip-path="url(#a)" transform="matrix(.85333 0 0 .85333-170.7 0)"><path fill="#FFF" d="M500 226.4l-31.5 54.5 -15.4 26.7h93.8l-14.7-25.4 -32.2-55.8Z"/><use opacity=".6" fill="#17C0EB" stroke="#17C0EB" stroke-width=".1" xlink:href="#D"/><use fill="#FFF" xlink:href="#E"/><g transform="rotate(72 500 285.5)"><use opacity=".6" fill="#17C0EB" stroke="#17C0EB" stroke-width=".1" xlink:href="#D"/><use fill="#FFF" xlink:href="#E"/></g><g transform="rotate(144 500 285.5)"><use opacity=".6" fill="#17C0EB" stroke="#17C0EB" stroke-width=".1" xlink:href="#D"/><use fill="#FFF" xlink:href="#E"/></g><g transform="rotate(-144 500 285.5)"><use opacity=".6" fill="#17C0EB" stroke="#17C0EB" stroke-width=".1" xlink:href="#D"/><use fill="#FFF" xlink:href="#E"/></g><g transform="rotate(-72 500 285.5)"><use opacity=".6" fill="#17C0EB" stroke="#17C0EB" stroke-width=".1" xlink:href="#D"/><use fill="#FFF" xlink:href="#E"/></g><g transform="rotate(8.00001 500 285.5)"><use opacity=".6" fill="#17C0EB" stroke="#17C0EB" stroke-width=".1" xlink:href="#D"/><use fill="#FFF" xlink:href="#E"/><g transform="rotate(72 500 285.5)"><use opacity=".6" fill="#17C0EB" stroke="#17C0EB" stroke-width=".1" xlink:href="#D"/><use fill="#FFF" xlink:href="#E"/></g><g transform="rotate(144 500 285.5)"><use opacity=".6" fill="#17C0EB" stroke="#17C0EB" stroke-width=".1" xlink:href="#D"/><use fill="#FFF" xlink:href="#E"/></g><g transform="rotate(-144 500 285.5)"><use opacity=".6" fill="#17C0EB" stroke="#17C0EB" stroke-width=".1" xlink:href="#D"/><use fill="#FFF" xlink:href="#E"/></g><g transform="rotate(-72 500 285.5)"><use opacity=".6" fill="#17C0EB" stroke="#17C0EB" stroke-width=".1" xlink:href="#D"/><use fill="#FFF" xlink:href="#E"/></g></g><g transform="rotate(16 500 285.5)"><use opacity=".6" fill="#17C0EB" stroke="#17C0EB" stroke-width=".1" xlink:href="#D"/><use fill="#FFF" xlink:href="#E"/><g transform="rotate(72 500 285.5)"><use opacity=".6" fill="#17C0EB" stroke="#17C0EB" stroke-width=".1" xlink:href="#D"/><use fill="#FFF" xlink:href="#E"/></g><g transform="rotate(144 500 285.5)"><use opacity=".6" fill="#17C0EB" stroke="#17C0EB" stroke-width=".1" xlink:href="#D"/><use fill="#FFF" xlink:href="#E"/></g><g transform="rotate(-144 500 285.5)"><use opacity=".6" fill="#17C0EB" stroke="#17C0EB" stroke-width=".1" xlink:href="#D"/><use fill="#FFF" xlink:href="#E"/></g><g transform="rotate(-72 500 285.5)"><use opacity=".6" fill="#17C0EB" stroke="#17C0EB" stroke-width=".1" xlink:href="#D"/><use fill="#FFF" xlink:href="#E"/></g></g><g transform="rotate(24 500 285.5)"><use opacity=".6" fill="#17C0EB" stroke="#17C0EB" stroke-width=".1" xlink:href="#D"/><use fill="#FFF" xlink:href="#E"/><g transform="rotate(72 500 285.5)"><use opacity=".6" fill="#17C0EB" stroke="#17C0EB" stroke-width=".1" xlink:href="#D"/><use fill="#FFF" xlink:href="#E"/></g><g transform="rotate(144 500 285.5)"><use opacity=".6" fill="#17C0EB" stroke="#17C0EB" stroke-width=".1" xlink:href="#D"/><use fill="#FFF" xlink:href="#E"/></g><g transform="rotate(-144 500 285.5)"><use opacity=".6" fill="#17C0EB" stroke="#17C0EB" stroke-width=".1" xlink:href="#D"/><use fill="#FFF" xlink:href="#E"/></g><g transform="rotate(-72 500 285.5)"><use opacity=".6" fill="#17C0EB" stroke="#17C0EB" stroke-width=".1" xlink:href="#D"/><use fill="#FFF" xlink:href="#E"/></g></g><g transform="rotate(32 500 285.5)"><use opacity=".6" fill="#17C0EB" stroke="#17C0EB" stroke-width=".1" xlink:href="#D"/><use fill="#FFF" xlink:href="#E"/><g transform="rotate(72 500 285.5)"><use opacity=".6" fill="#17C0EB" stroke="#17C0EB" stroke-width=".1" xlink:href="#D"/><use fill="#FFF" xlink:href="#E"/></g><g transform="rotate(144 500 285.5)"><use opacity=".6" fill="#17C0EB" stroke="#17C0EB" stroke-width=".1" xlink:href="#D"/><use fill="#FFF" xlink:href="#E"/></g><g transform="rotate(-144 500 285.5)"><use opacity=".6" fill="#17C0EB" stroke="#17C0EB" stroke-width=".1" xlink:href="#D"/><use fill="#FFF" xlink:href="#E"/></g><g transform="rotate(-72 500 285.5)"><use opacity=".6" fill="#17C0EB" stroke="#17C0EB" stroke-width=".1" xlink:href="#D"/><use fill="#FFF" xlink:href="#E"/></g></g><g transform="rotate(40 500 285.5)"><use opacity=".6" fill="#17C0EB" stroke="#17C0EB" stroke-width=".1" xlink:href="#D"/><use fill="#FFF" xlink:href="#E"/><g transform="rotate(72 500 285.5)"><use opacity=".6" fill="#17C0EB" stroke="#17C0EB" stroke-width=".1" xlink:href="#D"/><use fill="#FFF" xlink:href="#E"/></g><g transform="rotate(144 500 285.5)"><use opacity=".6" fill="#17C0EB" stroke="#17C0EB" stroke-width=".1" xlink:href="#D"/><use fill="#FFF" xlink:href="#E"/></g><g transform="rotate(-144 500 285.5)"><use opacity=".6" fill="#17C0EB" stroke="#17C0EB" stroke-width=".1" xlink:href="#D"/><use fill="#FFF" xlink:href="#E"/></g><g transform="rotate(-72 500 285.5)"><use opacity=".6" fill="#17C0EB" stroke="#17C0EB" stroke-width=".1" xlink:href="#D"/><use fill="#FFF" xlink:href="#E"/></g></g><g transform="rotate(48 500 285.5)"><use opacity=".6" fill="#17C0EB" stroke="#17C0EB" stroke-width=".1" xlink:href="#D"/><use fill="#FFF" xlink:href="#E"/><g transform="rotate(72 500 285.5)"><use opacity=".6" fill="#17C0EB" stroke="#17C0EB" stroke-width=".1" xlink:href="#D"/><use fill="#FFF" xlink:href="#E"/></g><g transform="rotate(144 500 285.5)"><use opacity=".6" fill="#17C0EB" stroke="#17C0EB" stroke-width=".1" xlink:href="#D"/><use fill="#FFF" xlink:href="#E"/></g><g transform="rotate(-144 500 285.5)"><use opacity=".6" fill="#17C0EB" stroke="#17C0EB" stroke-width=".1" xlink:href="#D"/><use fill="#FFF" xlink:href="#E"/></g><g transform="rotate(-72 500 285.5)"><use opacity=".6" fill="#17C0EB" stroke="#17C0EB" stroke-width=".1" xlink:href="#D"/><use fill="#FFF" xlink:href="#E"/></g></g><g transform="rotate(56 500 285.5)"><use opacity=".6" fill="#17C0EB" stroke="#17C0EB" stroke-width=".1" xlink:href="#D"/><use fill="#FFF" xlink:href="#E"/><g transform="rotate(72 500 285.5)"><use opacity=".6" fill="#17C0EB" stroke="#17C0EB" stroke-width=".1" xlink:href="#D"/><use fill="#FFF" xlink:href="#E"/></g><g transform="rotate(144 500 285.5)"><use opacity=".6" fill="#17C0EB" stroke="#17C0EB" stroke-width=".1" xlink:href="#D"/><use fill="#FFF" xlink:href="#E"/></g><g transform="rotate(-144 500 285.5)"><use opacity=".6" fill="#17C0EB" stroke="#17C0EB" stroke-width=".1" xlink:href="#D"/><use fill="#FFF" xlink:href="#E"/></g><g transform="rotate(-72 500 285.5)"><use opacity=".6" fill="#17C0EB" stroke="#17C0EB" stroke-width=".1" xlink:href="#D"/><use fill="#FFF" xlink:href="#E"/></g></g><g transform="rotate(64 500 285.5)"><use opacity=".6" fill="#17C0EB" stroke="#17C0EB" stroke-width=".1" xlink:href="#D"/><use fill="#FFF" xlink:href="#E"/><g transform="rotate(72 500 285.5)"><use opacity=".6" fill="#17C0EB" stroke="#17C0EB" stroke-width=".1" xlink:href="#D"/><use fill="#FFF" xlink:href="#E"/></g><g transform="rotate(144 500 285.5)"><use opacity=".6" fill="#17C0EB" stroke="#17C0EB" stroke-width=".1" xlink:href="#D"/><use fill="#FFF" xlink:href="#E"/></g><g transform="rotate(-144 500 285.5)"><use opacity=".6" fill="#17C0EB" stroke="#17C0EB" stroke-width=".1" xlink:href="#D"/><use fill="#FFF" xlink:href="#E"/></g><g transform="rotate(-72 500 285.5)"><use opacity=".6" fill="#17C0EB" stroke="#17C0EB" stroke-width=".1" xlink:href="#D"/><use fill="#FFF" xlink:href="#E"/></g></g><path fill="#F00" d="M500 265.8l-.001 0c-10.66-.02-20.96 3.82-29 10.8l-14.6 25.4h0c-.53 2.73-.8 5.51-.8 8.3h5v0c1.09-21.74 19.6-38.47 41.33-37.37 20.19 1.01 36.34 17.16 37.36 37.36h5v0c.02-2.79-.22-5.57-.7-8.3l-14.6-25.4v0c-8.06-6.97-18.35-10.81-29-10.8Z"/><path fill="#F60" d="M500 266.7v-.001c-11.31-.03-22.17 4.35-30.3 12.2l-12 20.9h-.001c-.85 3.4-1.29 6.89-1.3 10.4h4.3v0c1.54-21.71 20.4-38.05 42.1-36.5 19.54 1.39 35.09 16.94 36.49 36.49h4.3v0c-.01-3.54-.45-7.07-1.3-10.5l-12-20.8v0c-8.14-7.85-19-12.23-30.3-12.2Z"/><path fill="#FF0" d="M500 267.5v0c-12.23-.04-23.88 5.17-32 14.3l-8.7 15h-.001c-1.39 4.36-2.07 8.92-2 13.5h3.3 -.001c1.09-21.74 19.6-38.47 41.33-37.37 20.19 1.01 36.34 17.16 37.36 37.36h3.5c0-4.7-.8-9.2-2.1-13.4l-8.8-15.1 0-.001c-8.1-9.12-19.72-14.32-31.9-14.3Z"/><path fill="#0F0" d="M500 268.3v0c-14.01-.01-27.1 6.96-34.9 18.6l-2.8 4.9v-.001c-2.84 5.75-4.31 12.08-4.3 18.5h2.7 0c1.54-21.71 20.4-38.05 42.1-36.5 19.54 1.39 35.09 16.94 36.49 36.49h2.7v0c0-6.42-1.47-12.75-4.3-18.5l-2.8-5v0c-7.81-11.64-20.9-18.61-34.9-18.6Z"/><path fill="#0CF" d="M500 269v-.001c-22.76-.01-41.21 18.44-41.21 41.19 -.01.03 0 .06 0 .1h1.9v0c1.54-21.71 20.4-38.05 42.1-36.5 19.54 1.39 35.09 16.94 36.49 36.49h1.9 -.001c.05-22.76-18.35-41.25-41.1-41.3 -.04-.01-.07-.01-.11-.01Z"/><path fill="#00F" d="M500 269.8v0c-22.32 0-40.4 18.08-40.4 40.4h1.4v0c0-21.54 17.46-39 39-39 21.53 0 39 17.46 39 39h1.4v0c-.12-22.24-18.17-40.21-40.4-40.2Z"/><path fill="#800080" d="M500 270.7v0c-21.88-.01-39.61 17.72-39.61 39.59 -.01.23 0 .47 0 .7h.8v-.8h0c.22-21.43 17.77-38.63 39.2-38.4 21.42.22 38.62 17.77 38.4 39.2h.8v-.8 0c0-21.88-17.73-39.6-39.6-39.6Z"/><path fill="#510000" d="M500.4 288.1c-.7 0-1.2-.5-1.8-.6v0c-.6.52-.87 1.32-.7 2.1 .3.1.3.4.9.9 .6.5.5.7.4 2 0 .4.1 1.5.6 1.6 .5.1 1-.3 1.1-1.2 .1-.7.4-1.2.7-1.6 .3-1.9-.2-2.6-1.2-3.2Z"/><path fill="#F00" d="M497.2 283.5c-.6 0-1.6 1-2 .5 -.2-.3-.3-.9 0-1.4v-.001c.45-1 1.22-1.81 2.2-2.3 2.3-1.4 3.9-1 5 1 1.1 1.8 2.2 3.8 2.3 5.4 0 .5.3 1.4-.2 1.9 -1.3 1.4-4.6-1.5-6.5-1 -.6.1-1.4.6-2 .2 -.4-.3 0-1 .3-1.3 .6-.5 1.5-2.4 1.4-3.2 0-.4 0 .2-.5.2Z"/><path fill="url(#b)" d="M497 282.6c-1.2.4-1 1-1.6 1.5 .2.1.8.3 1.4-.3 .2-.2.5-.3.7-.3l-.7.7v0c-.6.48-1.08 1.1-1.4 1.8 -.3.8-.4 1.7-.3 1.8 0 0 .4.8 1.5 1.2 2 .8 2.4 2.5 4.5 2.5 1.6 0 1.4-1.1 2.7-.9 1 .2 1.7-.7.6-1.2v0c-1.79-.36-3.62-.36-5.4 0 -.4-4 0-2.6-.1-4.4 -.1-1.7-.7-1.8 0-3.3 -.5 1-1.2.8-2 .8Z"/><path fill="#FF2A2A" d="M501 279.8l-.1.6 .3 1 .2 1c0 .3.4.4.7.6 .4.3 0 1 .3 1.1 .2 0 .5-1 .5-1.2v-.7 0c-.16-.31-.33-.61-.5-.9v0c-.07-.11-.13-.21-.2-.3h0c-.23-.34-.5-.64-.8-.9v0c-.1-.08-.2-.14-.3-.2l-.2-.1Z"/><path fill="url(#c)" d="M501.3 287.4l-2-.7c-1.3-.4-2.6-1.2-3.5-.8 -.3.1-.3.4-.4.9 0 .5-.5 1.3 0 1 .6-.4 2.4.8 3 1.1 .3.2 1 .6 1.1 1 .2.6 0 1.8 0 2.4 0 .5.2 1.8.7 2 .6.1 1.1-.4 1.3-1.3 .3-.9.4-1.4.8-1.9s.8-.8 1.3-.9c.6 0 1.4.5 1.4-.2 0-.4-.4-.8-.2-1.4 .1-.5-.4-.4-.9-.6l-2.7-.6Z"/><path fill="#910000" d="M498.4 288.9c-.4-.2-2.3-1.5-3-1 -.3 0-.4 0-.4-.3l.2-.9c0-.3.2-.8.5-1 .7-.6 2.3.5 3.1.8l-.4 2.4Z"/><path fill="#FF3A3A" d="M501.8 291.4c.9-1.6 1.5-1.4 2.6-1.4 .4 0 .5-.3.4-.7 -.3.6-1.7 0-2.5.3 -1.5.7-1.2 3.7-2 4 .8.7 1.1-1.7 1.5-2.2Z"/><path fill="#FFF" d="M453.1 307.6l-10 17.3H557l-10-17.2h-93.8Z"/><use fill="url(#d)" xlink:href="#F"/><use fill="url(#e)" xlink:href="#F" x="0" y="-1.1"/><use fill="url(#f)" xlink:href="#F" x="0" y="-2.2"/><g transform="translate(0-3.3)"><use fill="url(#g)" xlink:href="#F"/><use fill="url(#h)" xlink:href="#F" x="0" y="-1.1"/><use fill="url(#i)" xlink:href="#F" x="0" y="-2.2"/></g><g transform="translate(0-6.7)"><use fill="url(#j)" xlink:href="#F"/><use fill="url(#k)" xlink:href="#F" x="0" y="-1.1"/><use fill="url(#l)" xlink:href="#F" x="0" y="-2.2"/></g><path fill="url(#m)" d="M453.2 307.5v.2h93.7l-.1-.2h-93.6Zm-.2.3l-.1.3H547l-.1-.3h-94Zm-.2.4l-.2.3h94.8l-.2-.3h-94.4Zm-.3.5l-.3.5h95.6l-.3-.5h-95Zm-.4.7l-.3.5h96.4l-.3-.5h-95.8Zm-.4.7l-.2.4h97l-.2-.4h-96.6Zm-.4.7l-.2.4H549l-.3-.4h-97.4Zm-.4.7l-.3.6h98.8l-.3-.6H451Z"/><path fill="url(#n)" d="M457.4 312.3c3.4.7 3.7 0 3.7 0Zm81.5 0s.3.7 3.7 0Z"/><use fill="url(#o)" xlink:href="#G"/><use fill="#97C924" xlink:href="#H"/><use fill="#EDE71F" xlink:href="#I"/><use fill="#C6CB24" xlink:href="#J"/><use fill="#9ECB34" xlink:href="#K"/><g transform="translate(-15.3 0)"><use fill="url(#p)" xlink:href="#G"/><use fill="#97C924" xlink:href="#H"/><use fill="#EDE71F" xlink:href="#I"/><use fill="#C6CB24" xlink:href="#J"/><use fill="#9ECB34" xlink:href="#K"/></g><path fill="url(#q)" d="M502.2 298c2.8 10.5 11.8 21.2 22.6 21.2h8.1V330h-65.8v-10.8h8c10.8 0 19.9-10.7 22.6-21.3 0 0 .6-.8 2.3-.8 1.7 0 2.2.8 2.2.8Z"/><path fill="#97C924" d="M500 297.5c.8 0 1.2.2 1.5.3l.3.3h0c1.49 5.53 4.39 10.59 8.4 14.7 4 4.1 9 6.9 14.6 6.9h7.7v9.9h-65v-10h7.7c5.5 0 10.6-2.7 14.6-6.8v0c3.97-4.12 6.82-9.18 8.3-14.7l.3-.3v0c.49-.25 1.04-.35 1.6-.3Z"/><path fill="#EDE71F" d="M499.3 297.5v0c-.1-.01-.21-.01-.3 0l-.6.3 -.3.3v0c-.28 1.01-.62 2.01-1 3v0c-.36 1.01-.76 2.01-1.2 3v0c-.32.64-.65 1.27-1 1.9v0c-.89 1.54-1.89 3.01-3 4.4v0c-.66.83-1.36 1.63-2.1 2.4v-.001c-2.7 2.83-6.07 4.93-9.8 6.1 2.8.7 4 0 6.5-.4 2-.3 4.2-.6 6-1.2 1.5-2 1-1.3 1.5-2.9 1.2-2.2 3-4.2 3.4-6.7 1.6-3 1.9-8.6 1.9-10.2Z"/><path fill="#C6CB24" d="M499.3 298.9c-.4 6-2.3 13.2-6.7 17.8 -1.6 1.3-3.6 2.6-5.6 2.3 6.8-5.5 10.9-14 12.3-20.1Z"/><path fill="#9ECB34" d="M493.8 309.3v-.001c-2.18 3.93-5.18 7.34-8.8 10h-2.8c2.5-.2 8.2-5 11.6-10Z"/><path fill="#EDE71F" d="M501 297.6l.5.2 .4.3h0c.28 1.01.61 2.01 1 3h-.001c.35 1.01.75 2.01 1.2 3l1 1.9v-.001c.88 1.54 1.88 3.01 3 4.4v0c.65.83 1.35 1.63 2.1 2.4v0c2.67 2.94 6.04 5.17 9.8 6.5 -7.3 0-10.4-.6-13-4v0c-1.9-2.01-3.33-4.39-4.2-7 -.5-2-2-6.5-1.9-10.7Z"/><path fill="#C6CB24" d="M501.5 298.9c.4 6 2.2 12 6.6 16.6 1.6 1.4 3.6 2.6 5.6 2.3v0c-6.29-4.56-10.64-11.3-12.2-18.9Z"/><use fill="url(#r)" xlink:href="#L"/><use fill="#97C924" xlink:href="#M"/><use fill="#93BC30" xlink:href="#N"/><use fill="#EDE71F" xlink:href="#O"/><use fill="#CCD11E" xlink:href="#P"/><use fill="#9ECB34" xlink:href="#Q"/><g transform="translate(-15.4 0)"><use fill="url(#s)" xlink:href="#L"/><use fill="#97C924" xlink:href="#M"/><use fill="#93BC30" xlink:href="#N"/><use fill="#EDE71F" xlink:href="#O"/><use fill="#C6CB24" xlink:href="#P"/><use fill="#9ECB34" xlink:href="#Q"/></g><path fill="#FFF" d="M556.5 324.7c-.6.2-4.4-.2-6.4 0l-1.3.3h-3.3c-3.6 0-6.7 1-10.1 1 -3.4 0-6.5-1-10-1H522c-3.6 0-6.7 1-10.1 1 -3.4 0-6.5-1-10-1h-3.4c-3.6 0-6.7 1-10 1 -3.5 0-6.5-1-10.1-1H475c-3.6 0-6.6 1-10 1 -3.5 0-6.5-1-10.1-1h-3.4c-2.8 0-6.2.6-8.9.8l-6.3 10.9h127.4Z"/><path fill="url(#t)" d="M548 323.1h-.6c-3.2.1-5.6 1.1-11.2 1.1s-6.2-1-12.6-.8c-6 0-8.4 1.2-11.7 1.2 -3.2 0-8.4-.7-12.5-.3 -4 .4-8.8 1.3-12 1.3 -3.9 0-7.8-.7-11.8-.3 -4.1.4-6 1.5-11.1 1.5 -4.4 0-9-.7-12.8-.7 -3.4 0-7.2 1-10 1.4l-.9 1.5c2.3-.3 8.6-1.3 10.8-1.3 2.4 0 10.7.5 15.3.3 4.7-.1 5.2-1.2 10.7-1.2 3.8 0 6.6.4 10.5.4 2.5 0 4.7-1.2 8.4-1.2l2.8-.1c3.1-.5 8.4 0 12 .2 3.3.2 5.5-.6 9-.7l4.4-.1c3.5-.2 6.4.6 9.7.6 3.2-.2 6.4-1 9.8-1l4.5-.2c2.3 0 5.9 0 8.3.5l-.8-1.4c-2.4-.1-5.3-.7-8.2-.7Z"/><use fill="url(#u)" xlink:href="#R"/><use fill="url(#v)" xlink:href="#R" x="0" y="-1.3"/><use fill="url(#w)" xlink:href="#R" x="0" y="-2.6"/><g transform="translate(0-3.9)"><use fill="url(#x)" xlink:href="#R"/><use fill="url(#y)" xlink:href="#R" x="0" y="-1.3"/><use fill="url(#z)" xlink:href="#R" x="0" y="-2.6"/></g><g transform="translate(0-7.7)"><use fill="url(#A)" xlink:href="#R"/><use fill="url(#B)" xlink:href="#R" x="0" y="-1.3"/><use fill="url(#C)" xlink:href="#R" x="0" y="-2.6"/></g><path fill="#97C924" d="M443.9 324.7l-2.5 4.2c2.9-.5 7.1-1.7 10.7-1.7 3.6 0 8 .9 12.4 1 5 0 7-1.2 11-1.6 4.1-.4 8 .5 12 .6 3.1 0 7.9-1.1 12-1.5 4-.5 7.7.3 12.5.3 4.9.1 5.7-1.2 11.6-1.3 6.4-.1 7 .9 12.6.9 4.2.2 7.9-.9 11.7-1.1 3.8-.3 5.5 0 8.3 0l-1.9-3.2 -101.3 2.3Z"/><path fill="#FFF" d="M550 324.6l4 .3v0c.96.11 1.93.21 2.9.3l-.4-.5c-.6.2-4.4-.2-6.4 0Z"/></g><path fill="#C8A400" d="M256 191.9l-27.4 47.5 -28 48.6h110.8L284 240.5l-28-48.6Zm0 2.5l27 46.7 26.3 45.6H202.8l26.9-46.6Z"/></svg>