<svg viewBox="0 0 512 512" xmlns="http://www.w3.org/2000/svg" xmlns:xlink="http://www.w3.org/1999/xlink"><defs><path d="M191 141.6v3.4h-4v-3.4h4Z" id="d"/><path d="M193.9 140.6c0-.6.9-.6.9 0v1.6h-.9v-1.6" id="f"/><path d="M240.2 198.2a1.5 1.5 0 1 0 0 3 1.5 1.5 0 1 0 0-3Z" id="k"/><path d="M244.4 202.4a1.5 1.5 0 1 0 0 3 1.5 1.5 0 1 0 0-3Z" id="m"/><path d="M236.1 202.4a1.5 1.5 0 1 0 0 3 1.5 1.5 0 1 0 0-3Z" id="l"/><path d="M186.8 147.7l-.7 6.3h4.2c0-5.2 4-6 4-6 .1 0 4 1.1 4.1 6h4.2l-.8-6.4h-15Zm-1 6.4h17c.3 0 .6.3.6.7 0 .5-.3.8-.6.8h-17c-.3 0-.6-.3-.6-.8 0-.4.3-.7.7-.7Z" id="b"/><path d="M244.4 194.2a1.5 1.5 0 1 0 0 3 1.5 1.5 0 1 0 0-3Z" id="j"/><path d="M188.6 142.8c0-.6.8-.6.8 0v1.2h-.8v-1.2" id="g"/><path d="M192 154c0-3.3 2.3-4.2 2.3-4.2s2.3 1 2.3 4.2H192m-5.8-9h16.3c.3 0 .6.4.6.8 0 .3-.3.6-.6.6h-16.3c-.3 0-.6-.3-.6-.7 0-.3.3-.6.6-.6Zm.4 1.5H202c.3 0 .6.3.6.7 0 .4-.3.7-.6.7h-15.5c-.4 0-.6-.3-.6-.7 0-.4.2-.7.6-.7Zm5-10.6h1.2v.8h.9v-.8h1.3v.9h.9v-1h1.2v2c0 .4-.2.6-.5.6h-4.4c-.3 0-.6-.2-.6-.5v-2Zm4.6 2.7l.3 6.4h-4.3l.3-6.5h3.7" id="c"/><path d="M232.6 202.4v0c-.02 2.11.76 4.14 2.2 5.7v0c1.35 1.5 3.27 2.38 5.3 2.4 2.1 0 4-1 5.3-2.4h0c1.43-1.56 2.21-3.59 2.2-5.7v-10.8h-15v10.8" id="h"/><path d="M236.1 194.2a1.5 1.5 0 1 0 0 3 1.5 1.5 0 1 0 0-3Z" id="i"/><path d="M190.2 154.4c.1-5.5 4-6.8 4-6.8 .1 0 4.3 1.4 4.3 6.9h-8.3" id="a"/><path d="M186.3 139h1.2v1h.9v-1h1.2v1h.9v-1h1.2v2c0 .4-.2.6-.5.6h-4.3v0c-.34 0-.6-.27-.6-.6v-2Z" id="e"/></defs><path fill="#F00" d="M204.8 0H512v512H204.7Z"/><path fill="#060" d="M0 0h204.8v512H-.1Z"/><g stroke-linecap="round" stroke-width=".7" fill-rule="evenodd" stroke="#000" fill="#FF0" stroke-linejoin="round"><path d="M293.8 326.6c-34.4-1-192-99.4-193-115.1l8.6-14.5C125 219.7 286.2 315.4 302 312l-8.2 14.6"/><path d="M107.6 195c-3.1 8.3 41.1 35.6 94.3 68 53.2 32.3 99 52.3 102.5 49.5l1.5-2.9c-.6 1-2.2 1.3-4.6.6 -14.4-4.2-51.9-21.4-98.3-49.5s-86.8-54.1-93-65.1h0c-.52-1.03-.76-2.16-.7-3.3h-.2l-1.3 2.3 -.2.4Zm187 132c-.6 1.1-1.7 1.1-3.7 1 -12.9-1.5-52-20.5-98-48.1 -53.8-32.2-98.2-61.5-93.3-69.1l1.3-2.4 .2.1c-4.3 13 87.6 65.5 93 68.9 53.1 33 98 52.2 102 47.2l-1.5 2.4Z"/><path d="M205 221c34.3-.3 76.8-4.7 101.2-14.4L301 198c-14.5 8-57.1 13.3-96.3 14 -46.4-.4-79.1-4.7-95.5-15.7l-5 9.1c30.2 12.7 61 15.5 100.8 15.6"/><path d="M307.7 206.8c-.9 1.3-16.8 6.8-40.3 10.8v0c-20.73 3.1-41.65 4.64-62.6 4.6v-.001c-20.07.08-40.11-1.19-60-3.8 -24.5-3.9-37.3-9.3-42-11.2l1.2-2.3 0 0c13.29 5.24 27.15 8.93 41.3 11l-.001-.001c19.72 2.58 39.6 3.81 59.5 3.7v0c20.78.01 41.54-1.53 62.1-4.6 24-3.9 37.2-8.9 39-11.2l1.8 3ZM303 198c-2.6 2-15.6 6.7-38.4 10.3l-.001 0c-19.71 2.82-39.6 4.23-59.5 4.2v0c-19.2.14-38.39-1.1-57.4-3.7 -23.3-3-35.6-8.5-40-10.1l1.3-2.3c3.4 1.8 15.4 6.6 39 10v-.001c18.93 2.45 38 3.62 57.1 3.5l0-.001c19.74.02 39.46-1.38 59-4.2 23-3.2 35.4-9 37.3-10.5l1.6 2.8ZM92 262.4c21.2 11.4 68.1 17.2 112.6 17.6 40.5 0 93.3-6.3 113-16.8l-.6-11.4c-6.1 9.7-62.6 19-112.8 18.6 -50.2-.4-96.8-8.2-112.3-18.2v10.2"/><path d="M318.7 260.8v2.7c-3 3.6-21.6 9-44.9 12.7h0c-23.08 3.35-46.38 4.95-69.7 4.8 -27.4 0-49.2-2-66.2-4.6v0c-16.32-1.86-32.26-6.14-47.3-12.7v-3.2c10.4 6.9 38.3 11.9 47.7 13.4 16.8 2.6 38.5 4.5 65.8 4.5 28.7 0 51.7-2 69.3-4.7 16.8-2.4 40.6-8.7 45.3-12.9Zm0-9.7v2.8c-3 3.5-21.6 8.9-44.9 12.6h0c-23.08 3.35-46.38 4.95-69.7 4.8 -27.4 0-49.2-2-66.1-4.5v0c-16.35-1.88-32.33-6.2-47.4-12.8v-3.2c10.4 6.9 38.3 12 47.7 13.4 16.9 2.6 38.6 4.6 65.8 4.6 28.7 0 51.7-2 69.3-4.8 16.8-2.4 40.6-8.7 45.3-12.9Zm-114.2 73.5c-48.6-.3-90.3-13.2-99.1-15.4l6.4 10c15.5 6.6 56.2 16.4 93.2 15.3 37-1.1 69.3-4 92-15l6.6-10.5c-15.5 7.3-68.3 15.6-99 15.6"/><path stroke-width=".6" d="M299.5 317.1v0c-.98 1.48-1.98 2.95-3 4.4h-.001c-11.35 3.76-22.95 6.73-34.7 8.9h0c-18.87 3.47-38.02 5.21-57.2 5.2 -43.1-.6-78.4-9-95-16.2l-1.4-2.3 .3-.4 2.2.9h-.001c30.36 10.06 62.11 15.29 94.1 15.5 20 .1 40-2.3 56.1-5.1 24.8-5 34.8-8.7 37.9-10.4l.7-.5Zm5.7-9.4h.1v0c-.73 1.27-1.46 2.53-2.2 3.8 -5.7 2-21.3 6.6-44 9.8 -15 2-24.3 4-54 4.6l-.001 0c-34.03-.37-67.85-5.42-100.5-15l-1.2-2.5 0-.001c33.16 9.1 67.31 14.13 101.7 15 27.2-.6 38.8-2.6 53.6-4.7 26.5-4 39.8-8.4 43.8-9.7v0c-.04-.07-.07-.14-.1-.2l2.8-1.1Z"/><path d="M305.8 253.4c.2 32-16.2 60.8-29.4 73.5v0c-19.39 18.85-45.26 29.59-72.3 30 -32.3.6-62.7-20.5-70.9-29.7 -16-18.1-29-41-29.4-72 2-35 15.7-59.3 35.6-76v-.001c19.25-15.84 43.46-24.41 68.4-24.2 25.4.7 55.2 13.2 75.7 38 13.4 16.2 19.3 33.8 22.3 60.5ZM204.4 143.8c62 0 113 50.5 113 112.3v0c-.39 62.13-50.87 112.3-113 112.3 -62 0-112.6-50.4-112.6-112.3s50.6-112.3 112.6-112.3"/><path d="M204.7 143.4c62 0 112.6 50.7 112.6 112.7s-50.6 112.7-112.6 112.7v-.001c-62.22-.17-112.6-50.59-112.7-112.8v0c.16-62.18 50.52-112.54 112.7-112.7ZM94.5 256.1c0 60.6 49.8 110.2 110.2 110.2 60.4 0 110.1-49.6 110.1-110.2s-49.7-110.1-110.1-110.1v0c-60.74.21-109.93 49.36-110.2 110.1Z"/><path d="M204.8 152.8c56.5 0 103.1 46.5 103.1 103.2 0 56.8-46.6 103.2-103.1 103.2v0c-56.95-.17-103.09-46.26-103.3-103.2 0-56.7 46.6-103.2 103.2-103.2ZM104 256c0 55.4 45.5 100.7 100.8 100.7 55.2 0 100.7-45.3 100.7-100.7 0-55.4-45.5-100.7-100.8-100.7s-100.7 45.3-100.7 100.7Z"/><path d="M209.3 143h-9.7v226.4h9.7Z"/><path d="M208.3 141.7h2.5v229h-2.5v-229Zm-9.6 0h2.5v229h-2.5v-229Z"/><path d="M317.4 260.5V252l-6.8-6.3 -38.7-10.3 -55.8-5.7 -67 3.4 -47.9 11.4 -9.6 7.2v8.3l24.4-11 58-9h55.8l41 4.5 28.4 6.9Z"/><path d="M204.7 238.7l-.001-.001c24.44-.1 48.85 2.07 72.9 6.5 21.1 4.2 36 9.5 41 15.4v3c-6-7.4-26-12.8-41.5-16 -20.3-3.9-46-6.4-72.4-6.4 -28 0-54 2.7-74 6.6 -16 3.2-37.4 9.5-40.1 15.8v-3c1.5-4.4 17.4-10.9 39.8-15.4v0c24.51-4.45 49.38-6.63 74.3-6.5Zm0-9.7v0c24.48-.1 48.91 2.08 73 6.5 21 4.2 36 9.5 41 15.5v2.9c-6.1-7.4-26.2-12.8-41.6-15.9 -20.3-4-46-6.5-72.4-6.5h0c-24.76-.08-49.46 2.13-73.8 6.6 -15.5 3-37.8 9.6-40.3 15.8v-3c1.5-4.3 17.8-11 39.8-15.3v-.001c24.51-4.49 49.38-6.7 74.3-6.6Zm-.5-49.3c41.9-.2 78.5 5.9 95.2 14.5l6.1 10.5c-14.5-7.8-54-16-101.3-14.7 -38.5.2-79.6 4.2-100.3 15.2l7.3-12.2c17-8.8 57-13.2 93-13.3"/><path d="M204.7 188.4c24 0 47 1.3 65.4 4.6 17.1 3.2 33.5 8 35.8 10.6l1.8 3.2c-5.7-3.7-19.8-7.9-38-11.3v0c-21.5-3.43-43.25-4.93-65-4.5 -27 0-48 1.3-66 4.5 -19 3.5-32.2 8.6-35.5 11l1.8-3.3c6.3-3.3 16.4-7.2 33.3-10.2 18.6-3.4 39.7-4.4 66.4-4.6Zm0-9.6h0c21.12-.34 42.23 1.13 63.1 4.4 13.9 2.7 27.6 6.9 32.7 10.6l2.6 4.2c-4.5-5-21.4-9.7-36.4-12.3 -17.4-3-39.1-4.2-62-4.4 -24 0-46.2 1.5-63.4 4.6 -16.4 3.2-27 6.9-31.5 9.8l2.3-3.6c6.2-3.2 16.2-6.2 28.8-8.7 17.3-3.1 39.7-4.6 63.8-4.6Zm56 124.1l0-.001c-18.49-3.19-37.25-4.6-56-4.2 -69.9.8-92.4 14.3-95.2 18.4l-5.2-8.5c17.7-12.9 55.7-20.1 100.7-19.4 23.3.4 43.4 2 60.4 5.2l-4.8 8.5"/><path stroke-width=".6" d="M204.3 297.5c19.4.3 38.5 1 57 4.5l-1.4 2.4v0c-18.33-3.17-36.91-4.61-55.5-4.3 -25.8-.2-52 2.2-74.6 8.7 -7.2 2-19 6.6-20.3 10.4l-1.3-2.2c.4-2.2 7.6-6.9 21-10.6 26-7.5 50.3-8.7 75-9Zm.9-9.8h-.001c20.48-.02 40.92 1.75 61.1 5.3l-1.4 2.5v-.001c-19.66-3.6-39.62-5.34-59.6-5.2 -25.9 0-53.3 1.9-78.3 9.1 -8 2.4-22 7.4-22.4 11.4l-1.3-2.3c.3-3.6 12.3-8.4 23.2-11.6h-.001c25.67-6.72 52.16-9.82 78.7-9.2Z"/><path d="M304.4 309.9l-8.4 13 -24.1-21.4 -62.6-42 -70.5-38.8 -36.7-12.5 7.8-14.5 2.7-1.4 22.8 5.7 75 38.7 43.3 27.3 36.3 26 14.8 17.1Z"/><path d="M100.8 208.5c6.5-4.3 53.7 16.7 103 46.5 49.3 29.9 96.4 63.6 92.2 70l-1.4 2.1 -.7.5c.2 0 .9-1 0-3.3 -2.2-6.9-35.5-33.5-91-67 -54-32.2-99-51.6-103.5-46l1.4-2.8Zm205.3 101.2c4-8-39.7-41-94-73.1 -55.5-31.5-95.6-50-102.9-44.5l-1.6 3c0 .1 0-.2.4-.5 1.3-1.1 3.5-1 4.5-1 12.6.1 48.6 16.6 99 45.6 22.1 12.8 93.4 58.6 93.1 71.4 0 1.1.1 1.3-.3 1.9l1.8-2.8Z"/></g><g transform="translate(-68.3 28.4) scale(1.13778)"><g stroke-width=".7" fill="#FFF" stroke="#000"><path d="M180.6 211h0c.02 15.67 6.33 30.69 17.5 41.7h-.001c11.03 11.2 26.07 17.53 41.8 17.6v0c15.75-.01 30.86-6.27 42-17.4v-.001c11.12-11.07 17.38-26.11 17.4-41.8v-79.2l-118.7-.2v79.3Z"/><path fill="#F00" stroke-width=".5" d="M182.8 211.1v-.001c.04 15.04 6.09 29.44 16.8 40v0c10.64 10.7 25.1 16.74 40.2 16.8h-.001c15.06 0 29.52-5.97 40.2-16.6v-.001c10.67-10.58 16.68-24.98 16.7-40v-77h-113.7v76.8m91-53.7v48.9l-.1 5.1v0c.06 9.02-3.55 17.69-10 24v0c-6.36 6.38-15 9.97-24 10 -9.4 0-17.7-4-23.9-10.2v0c-6.39-6.36-9.98-15-10-24v-54l68 .2Z"/></g><g fill="#FF0"><use xlink:href="#a"/><g stroke-width=".5" fill="#FF0" stroke="#000"><use xlink:href="#b"/><use xlink:href="#c"/><use xlink:href="#d"/><use xlink:href="#d" x="10.6" y="0"/><use xlink:href="#e"/><use xlink:href="#e" x="10.6" y="0"/></g></g><g><use xlink:href="#f"/><use xlink:href="#g"/><use xlink:href="#g" x="10.6" y="0"/></g><g transform="translate(0 46.3)"><g fill="#FF0"><use xlink:href="#a"/><g stroke-width=".5" fill="#FF0" stroke="#000"><use xlink:href="#b"/><use xlink:href="#c"/><use xlink:href="#d"/><use xlink:href="#d" x="10.6" y="0"/><use xlink:href="#e"/><use xlink:href="#e" x="10.6" y="0"/></g></g><g><use xlink:href="#f"/><use xlink:href="#g"/><use xlink:href="#g" x="10.6" y="0"/></g></g><g transform="rotate(-45.2 312.8 180)"><g fill="#FF0"><use xlink:href="#a"/><g stroke-width=".5" fill="#FF0" stroke="#000"><use xlink:href="#b"/><use xlink:href="#c"/><use xlink:href="#d"/><use xlink:href="#d" x="10.6" y="0"/><use xlink:href="#e"/><use xlink:href="#e" x="10.6" y="0"/></g></g><g><use xlink:href="#f"/><use xlink:href="#g"/><use xlink:href="#g" x="10.6" y="0"/></g></g><g transform="translate(45.7 0)"><g fill="#FF0"><use xlink:href="#a"/><g stroke-width=".5" fill="#FF0" stroke="#000"><use xlink:href="#b"/><use xlink:href="#c"/><use xlink:href="#d"/><use xlink:href="#d" x="10.6" y="0"/><use xlink:href="#e"/><use xlink:href="#e" x="10.6" y="0"/></g></g><g><use xlink:href="#f"/><use xlink:href="#g"/><use xlink:href="#g" x="10.6" y="0"/></g></g><g transform="matrix(-1 0 0 1 479.8 0)"><g fill="#FF0"><use xlink:href="#a"/><g stroke-width=".5" fill="#FF0" stroke="#000"><use xlink:href="#b"/><use xlink:href="#c"/><use xlink:href="#d"/><use xlink:href="#d" x="10.6" y="0"/><use xlink:href="#e"/><use xlink:href="#e" x="10.6" y="0"/></g></g><g><use xlink:href="#f"/><use xlink:href="#g"/><use xlink:href="#g" x="10.6" y="0"/></g><g transform="translate(0 46.3)"><g fill="#FF0"><use xlink:href="#a"/><g stroke-width=".5" fill="#FF0" stroke="#000"><use xlink:href="#b"/><use xlink:href="#c"/><use xlink:href="#d"/><use xlink:href="#d" x="10.6" y="0"/><use xlink:href="#e"/><use xlink:href="#e" x="10.6" y="0"/></g></g><g><use xlink:href="#f"/><use xlink:href="#g"/><use xlink:href="#g" x="10.6" y="0"/></g></g><g transform="rotate(-45.2 312.8 180)"><g fill="#FF0"><use xlink:href="#a"/><g stroke-width=".5" fill="#FF0" stroke="#000"><use xlink:href="#b"/><use xlink:href="#c"/><use xlink:href="#d"/><use xlink:href="#d" x="10.6" y="0"/><use xlink:href="#e"/><use xlink:href="#e" x="10.6" y="0"/></g></g><g><use xlink:href="#f"/><use xlink:href="#g"/><use xlink:href="#g" x="10.6" y="0"/></g></g></g><use fill="#039" xlink:href="#h"/><g fill="#FFF"><use xlink:href="#i"/><use xlink:href="#j"/><use xlink:href="#k"/><use xlink:href="#l"/><use xlink:href="#m"/></g><g transform="translate(0-26)"><use fill="#039" xlink:href="#h"/><g fill="#FFF"><use xlink:href="#i"/><use xlink:href="#j"/><use xlink:href="#k"/><use xlink:href="#l"/><use xlink:href="#m"/></g></g><g transform="translate(-20.8 0)"><use fill="#039" xlink:href="#h"/><g fill="#FFF"><use xlink:href="#i"/><use xlink:href="#j"/><use xlink:href="#k"/><use xlink:href="#l"/><use xlink:href="#m"/></g></g><g transform="translate(20.8 0)"><use fill="#039" xlink:href="#h"/><g fill="#FFF"><use xlink:href="#i"/><use xlink:href="#j"/><use xlink:href="#k"/><use xlink:href="#l"/><use xlink:href="#m"/></g></g><g transform="translate(0 25.8)"><use fill="#039" xlink:href="#h"/><g fill="#FFF"><use xlink:href="#i"/><use xlink:href="#j"/><use xlink:href="#k"/><use xlink:href="#l"/><use xlink:href="#m"/></g></g></g></svg>