<svg viewBox="0 0 512 512" xmlns="http://www.w3.org/2000/svg"><defs><clipPath id="a"><path d="M27.7 0h708.6v708.7H27.7Z"/></clipPath></defs><g clip-path="url(#a)" transform="matrix(.72249 0 0 .72249-20 0)"><g fill="#FFF" fill-rule="evenodd"><path d="M0 0h1063v708.7H0Z"/><path fill="#DF0000" d="M0 0h1063v354.3H0Z"/><path d="M245.2 59.4v-.001c-67.29 14.41-110.15 80.65-95.74 147.93 10.36 48.37 48.36 86.03 96.83 95.96v0c-67.27 19.68-137.75-18.89-157.44-86.15 -19.69-67.27 18.88-137.75 86.14-157.44 22.89-6.71 47.22-6.82 70.18-.32Z"/><path d="M202 162.4l-18.9-13.8 23.5-.2 7.2-22.3 7.5 22.3h23.4l-18.8 14 7.2 22.3L214 171l-19 13.8Zm26 76.9l-19-13.8 23.5-.2 7.3-22.3 7.4 22.2h23.5l-19 14 7.3 22.3 -19-13.6 -19 13.8Zm86.3-.6l-19-13.8 23.4-.2 7.3-22.3 7.4 22.3H357l-18.9 14 7.3 22.3 -19.1-13.7 -19 13.8Zm25.7-76.2l-19-13.8 23.5-.2 7.2-22.3 7.5 22.2h23.4l-18.8 14 7.2 22.3 -19.1-13.6 -19 13.8ZM271.7 112l-19-13.8 23.5-.2 7.3-22.3 7.4 22.3h23.5l-19 14 7.3 22.2 -19-13.6 -19 13.8Z"/></g></g></svg>