<svg viewBox="0 0 512 512" xmlns="http://www.w3.org/2000/svg" xmlns:xlink="http://www.w3.org/1999/xlink"><defs><path d="M0-200V0h100" id="a"/></defs><path fill="#12AD2B" d="M0 0h512v512H0Z"/><path fill="#FFCE00" d="M0 146.3h512v219.4H0Z"/><path fill="#D21034" d="M0 0v512l192-256"/><g transform="translate(276.9 261.5) scale(.33167)"><use transform="rotate(18 2.26838e-14-200)" xlink:href="#a"/><g transform="scale(-1 1)"><use transform="rotate(18 2.26838e-14-200)" xlink:href="#a"/></g><g transform="rotate(72)"><use transform="rotate(18 2.26838e-14-200)" xlink:href="#a"/><g transform="scale(-1 1)"><use transform="rotate(18 2.26838e-14-200)" xlink:href="#a"/></g></g><g transform="rotate(144)"><use transform="rotate(18 2.26838e-14-200)" xlink:href="#a"/><g transform="scale(-1 1)"><use transform="rotate(18 2.26838e-14-200)" xlink:href="#a"/></g></g><g transform="rotate(-144)"><use transform="rotate(18 2.26838e-14-200)" xlink:href="#a"/><g transform="scale(-1 1)"><use transform="rotate(18 2.26838e-14-200)" xlink:href="#a"/></g></g><g transform="rotate(-72)"><use transform="rotate(18 2.26838e-14-200)" xlink:href="#a"/><g transform="scale(-1 1)"><use transform="rotate(18 2.26838e-14-200)" xlink:href="#a"/></g></g></g><g transform="translate(149.1 0)"><g transform="translate(276.9 261.5) scale(.33167)"><use transform="rotate(18 2.26838e-14-200)" xlink:href="#a"/><g transform="scale(-1 1)"><use transform="rotate(18 2.26838e-14-200)" xlink:href="#a"/></g><g transform="rotate(72)"><use transform="rotate(18 2.26838e-14-200)" xlink:href="#a"/><g transform="scale(-1 1)"><use transform="rotate(18 2.26838e-14-200)" xlink:href="#a"/></g></g><g transform="rotate(144)"><use transform="rotate(18 2.26838e-14-200)" xlink:href="#a"/><g transform="scale(-1 1)"><use transform="rotate(18 2.26838e-14-200)" xlink:href="#a"/></g></g><g transform="rotate(-144)"><use transform="rotate(18 2.26838e-14-200)" xlink:href="#a"/><g transform="scale(-1 1)"><use transform="rotate(18 2.26838e-14-200)" xlink:href="#a"/></g></g><g transform="rotate(-72)"><use transform="rotate(18 2.26838e-14-200)" xlink:href="#a"/><g transform="scale(-1 1)"><use transform="rotate(18 2.26838e-14-200)" xlink:href="#a"/></g></g></g></g></svg>