<svg viewBox="0 0 512 512" xmlns="http://www.w3.org/2000/svg"><path fill="#006" d="M512 512V0H0v512Z"/><g stroke-width="3.5" fill="#8FC5FF" stroke="#FFF"><path d="M471.1 219.4c0 57.8-9.2 120.2-84.4 150 -74.8-29.8-84-92.2-84.4-150Z"/><path fill="#366CC9" stroke="#000" d="M386.7 369v-.001c28.49-9.97 52.26-30.18 66.7-56.7h-7.1c-2.1-.3-72-7-80.5-10.6 -7-2.5-34.8 2.5-47.5 7h-.001c14 28.31 38.56 50 68.4 60.4Z"/></g><path fill="#5D3100" stroke="#000" stroke-width=".4" d="M334.2 333.6h4.3c1 0 1 0 1.4-1 .4-1.1 1.4-.8 2.1-.4 .7.3 2.2 0 2.9-.7 .7-.7.7-.7 1.4 0s1 .3 1.8 0c.3 0 1.7-.7 2-1.8 .4-1 1.5-1.4 1.9-.7 .3.7 1 .7 1.7.7 .8 0 .8.4.8 1.4 0 .7 0 1 1.7-.3 1.4 1.4 1.8.7 1.8-.7 0-1.5 0-7.1-.7-7.5 -.7-.3-1-2.8-1.4-4.6 0-3.5 0-3.5-3.6-5.3 0-1-.7-1.4-3.5-1.4 .3-.4 0-1.5-.7-1.8 -.7-.4-.7-.7 0-2.1 .7 0 2 0 2.4-1.1 .8-.7 2.9-.7 4.3 0s2.8.7 5.3 0l4.3-2.1c1.8-1 2.1-1.4 2.1-2.9 0-3.5-1-7-1.8-8.8 -1-1.8-1-3.6-2.4-6.8 -1.5-2.8-1.5-3.5-2.9-5.3 -.7-.7-1-1-1-2.1l-.001-.001c-.11-1.4-.75-2.69-1.8-3.6 -2.9-2.4-3.6-10.6-5-16.6 -.7-3.6 0-11.7-1.4-13.2 -2.5-1.7-3.6-1.4-5.3-2 -1.4-1.9-1.8-5-3.2-8.2 -1.8.3-2.9 2-4 2.8 -1 .7-1.3.7-1.3 2.5 0 1.4-1.1 3.5-2.5 6.4 -1.4 2.8-4.6 1.7-7.1 5.6 -5-6-5-7.8-5.3-9.5 0-1.8-1.1-2.2-4-4.7v-5.3c-2.4-1.7-3.8-1.4-4.9 0 -1 1-1.8 2.9-3.5 3.6 -.8 1.4-3.6 4.2-5.7 8.1 2.1 32 9.2 63.9 30.8 89.4Z"/><path fill="#FF0" stroke="#FFF" stroke-width="3.5" d="M471.1 219.4c0-22-1-43.3-.7-61.7v-.001c-26.68-10.37-55.09-15.56-83.7-15.3 -18.8 0-55.7 2.9-83.7 15.3 .7 18.4-.7 39.7-.7 61.7Z"/><g fill="#CF6200"><path d="M307 244.5c.9 1.5 2.6 4 2.7 5.4 .8-1.3 1.2-2 1.3-2.7 .2-.8 1.2-2.5.8-3.3 -.5-.9-.6-1.6.4-1 1 .7.8 1.8.6 3.4 -.6 4.5-2.5 5.5-2.8 8.6 2.7 6.3.7 8.6 3.6 14.9 .5.3 1.7-.2 2.1 0 1.6-1.2 2.7-.8 5-.4 2.1.5 3.3 2 3.3 3.5 0 1.4 0 1.7.5 2.5 .5 1 1.5 2.2 1.2 3 -.2 1 .2 1.5.5 2s-.1 1.4-.4 2.1c-.3.8-.2 1.5 1 3 1 1.3 3.6 7 3.6 10.5 0 3.3.2 5 1.6 5.6 1.4.7 1.9 1.2 1.6 2.7v0c.08 3.44.38 6.88.9 10.3 .2 1.2.6 1 1.1 1.6 .6.6 1 1.4 2.8 1.4 2 0 3.6-.3 4.9 0 1.6 2.2 2.6 5.3 3 7.3 .3 2 .3 4.6 1 4.6 .6 0 1.3 0 1-2.3 -.2-2.4-.3-2.8-1.1-4 -.9-1.2-1.3-1.8-.9-2.5 .5-.7.6-2 .4-2.9 -.2-.9-.4-2.3 1.1-.5l2.6 3c.5.7.6 1.8.5 3 -.1 1 .1 1.5.7 1 .7-.6 1.5.4 1.1 1.6 -.3 1.2 0 2 1.2 2.3 1.2.3 1.6.6 1.8 1.4 .2.8 1.3 1.2 1.3-.4 0-1.7-.7-5.2-1.1-6.3 -.5-1.1-.9-3.5-1-5 0-1.3-.3-1.6-1-2 -.6-.2-1.2-.6-1.3-1.4 0-.7-.7-.7-1-.7 -.4 0-.8-.4-1-.8 -.2-.5-.5-.5-1-.6 -.4 0-1.2.2-1.4-.5 -.2-.7-.6-1.8-1-2.4 -.4-.7-.9-.8-1-3 0-2 0-2.2-.7-3v0c-.84-1.1-1.58-2.27-2.2-3.5 -.4-.7-1-1.6-1 .1 0 1.7 0 2.7 1.2 3.3 1.1.7 1.4.7.9 1.6 -.5.9 0 1.6.2 2.2 .2.7.6 1.3 0 2 -.6.6-1.1.4-1-.6v0c.04-1.05-.2-2.09-.7-3 -.5-.9-.9-1.5-1.4-1 -.6.5-1 0-.7-.4 .4-.3.3-.7 0-1 -.3-.1-.3-.5.2-1 .5-.6.4-.9.1-2.2 -.3-1.2-2.3-7.7-3.2-9.2 -1-1.5-.8-2.6.3-1 1.2 1.4 2.3 2.6 2.3 3.9 .2 1.2.5 2 .7 2.4 .3.5.8.2.9-.7 .1-1 1-.7-.4-2.7 -1.2-1.9-3.6-5.1-4.5-11 -1-5.8-1.3-9.6-2.3-11.1 -.9-1.6-1.2-2-1.3-3.5 0-1.5 0-3-.7-4s-1-1.3-1.1.4v0c-.13 2.01.04 4.03.5 6 .5.6.3 2.2.1 3.2 -.1.9-1.5 1.8 1.5 3.7 1.2.7 1 1.7.8 2.3 -.1.7-.3.6-1-.4 -.6-1-1.3-1.8-2-2.4 -.6-.6-.6-1-.6-2.2 .1-1.2.4-2.2 0-2.7 -.3-.4-.5 0-.7.7 -.2.7-.3 2.7-.7 3.2 -.4.5-.6.3-.9-1 -.3-1.2.1-3 .7-5.1 .7-2.2 1.1-4.3.6-7.1 -.6-2.8-.3-3.6-2.5-6 -2.1-2.2-4.4-4.4-5.5-7.3 -1-2.9-1.2-5.3-2.3-6.6v-.001c-1.04-1.34-2.29-2.49-3.7-3.4v-4.4c0-1-.5-1.6-1.6-1.4 -1.2.2-2 1.1-2.7 2.6 -.7 1.3-1.3.7-2.3 3 -1.1 2.4-2.5 3.6-2.5 6.2Z"/><path d="M313.7 271.6c.7.5 1.4.7 2.5.2 1-.5 2.4-2.2 4-.6v0c1.41 1.75 2.18 3.94 2.2 6.2 0 2 0 5.8 2.3 7.9 2.3 2.1 3.6 4.3 3.6 7.1 .1 2.8 1.1 7 1.5 8.2 .2 1 .8 2.3 1.5 3 .8.8 1.3 3 1.5 5 0 2.4-.3 4 0 5s0 2-.9 1.4c-.8-.5-1-.7-1.4-1.7 -.4-1-1.1-.7-.6.7 .5 1.5 1.8 2.6 3 2.6s1.6.2 2.3 1c.7.7.9 1.1 2.2 1.1 1.3 0 1.4 0 2.6.4 1.2.3 1.2.1 1.9 0 .6-.2 1.3.3 1.7 1.5 .4 1.3 1.6 4.6 1.6 5.4 0 .9 0 1.9.6 2.8 .7 1 .5 1.9-.3 1.3 -.7-.6-.7-.3-1.2-.3 -.6.1-1-.1-1.7-.6s-.3-.4-1-1.5c-.7-1-1.2-1.5-1.2-.7s0 1.9-.7 1.5c-.5-.5-.8-.5-1.3 0s-.6.8-1.2-.1c-.5-.9-1.1-1-1.7-1.2 -.6-.2-.6-.1-.8-1 -.3-.8-1.1-1-1.9-1 -.7 0-1.1-.3-1.2-.9 0-.6-.5-1-.9-1.2 -.4-.3-.1-1-.3-1.6 -.1-.6-.6-.4-1-.5 -.4-.1-.6 0-.6-1s-.4-1.2-.7-1.9c-.2-.7 0-1.3.2-2v0c.16-.63.01-1.31-.4-1.8 -.6-.7-.1-1.3-1.6-2.6 -1.4-1.3-2.2-.2-2.7-3.3h0c-.36-3.51-1.1-6.96-2.2-10.3 -.7-1-1.4-1.7-2.2-2 -.8-.3-1.4 0-1.4-1.9 -.2-1.7-.7-3.9-1.8-5l-2.2-2c-.5-.3-.7-1.2 0-2.8 .8-1.6.5-3.7.4-4.7 0-1-.4-2.3-.1-3.4 .2-1 0-2.5-.3-3.2 -.2-.7-.6-1-.1-1.5Zm22.2-26.2v0c-1.22 1.6-2.67 3.02-4.3 4.2 -1.8 1.2-4 2.1-2.8 4.3 1.3 2 2.3 2.3 2.5 3.9 .3 1.6.6 2.9 1.8 3.3 1.3.4 1.8.1 1.8 2.7s0 3.6 1.1 4.5c1.2 1 1 2 1.4 4.4 .5 2.3.5 7.3 2 10.7 1.6 3.4 4.9 10 4.5 11.3 -.4 1.3-.9 2.4.6 4v0c1.33 1.49 2.23 3.32 2.6 5.3 .1 1.4.3 1.9 1.8 1.4s2.2-1 2.7-1.7c.5-.6 1.4-.4 2.8.3s3.5 1.4 4.7.7c1.2-.7 1.9-1.8 3-1.8 1.7-1.3 2.3-3.9 2.7-4.6 .3-.7 0-.7-.7-1.4s-.3-2-.5-3.2v0c-.23-2.06-.92-4.04-2-5.8 -1.5-2.7-2.4-6-3.4-7 -1-.8-1.4-2.8-1.5-3.8 -.2-1-1.3-1.9-2-2.6 -.8-.7-1.5-1.8-2.3-6.2 -.9-4.3-1.5-7.3-1.5-8 0-.8-.2-1-1-1.1 -.6-.3-1-1.5-.8-2.2 .2-.6-.2-1.2-.5-2 -.3-.6 0-2 .5-2.8 .5-.7.4-2.8-.1-4.5 -.5-1.7-1-3.2-2.9-3.5 -2-.2-2.3-.7-3.1-2.3 -.8-1.6-1.5-4.4-1.8-5 -.2-.7-.5-.7-2 .5s-2 1.6-2 3.9c0 1.4.2 2 .7 2.9 .5.8.7 1 1 3.4 .4 2.4 2.5 6-.2 8.1 -2.8 2.2-2.3 2.6-2.2 4 0 1.5-.7 2.5-1.2.4 -.5-2 0-3.3 1.4-4.3 1.5-1 2.9-2.2 1.9-3.6 -1-1.3-1.4-4.5-1.4-6 -.1-1.4-.5-2-1.3-.8Z"/></g><path fill="#00B800" d="M314 276.7l.2 3c0 1 .4 3.1-.4 4.6 -.7 1.6-.5 2.5 0 3h-.001c1.16-.34 1.83-1.56 1.49-2.73 -.03-.1-.07-.19-.1-.28v0c-.41-.91-.33-1.96.2-2.8 .4-.8.4-1.3 0-1.9 -.4-.6-.4-.6 0-2.4 .5-1.5-.6-1.5-1.4-.5Zm15.8 23.9c-.4-1.2-1.4-5.4-1.5-8.2v0c-.17-2.77-1.47-5.34-3.6-7.1 -1.8-1.6-2.1-4.3-2.3-6.3 -1.3-.9-1.9-.5-1.7 1 0 1.7 1.7 2.5 1.5 4.8 -.3 2.5-.3 1.8.9 3 1.1 1.3 1.6 2.3 1 2.8 -.6.5-.7 1.3.1 1.6 .9.4 1 1.3.8 2.2 0 .8.7 1 1.2 1.6v0c.53.92.53 2.07 0 3 -.4.8-.5 2.1.4 1.4 .9-.7 1.2 0 1.9 1.2 .5 1 1 .7 1.7.3v0c-.22-.45-.38-.92-.5-1.4Zm11.9 21.4c-.6 1-1.2.7-1.7.1 -.6-.5-1.3-.5-1-1.5 .3-1 .2-1.2-.6-1.8v0c-.07-.01-.14-.01-.2 0h-.8c-1.3 0-1.5-.5-2.2-1.2v0c-.13-.18-.26-.35-.4-.5v.7c0 1 0 .8-1 1.1 -1 .3-.9-1-1.1-1.8v0c-.02-.17-.06-.34-.1-.5 -1.1-.2-2.3-1.4-2.7-2.6 -.5-1.5 0-1.6.5-.7 .4.8.7 1.2 1.5 1.7s1-.3.8-1.4v0c-.06-.4-.06-.81 0-1.2 -.3-.4-.5-.7-.9-.9 -1.4-.6-1-.8-.9-2 0-1.1-.2-1.1-1.1-.6 -1 .8-1 0-1-1.9 0-1.8-1.3-1.8-1.5-.5 -.3 1.3-.7.4-1.3-1.4 -.5-1.9-1.3-2.3-1.4-.5 0 1.4-.4 1.8-1.4 1l.4 2.8c.5 3 1.2 2 2.7 3.3 1.5 1.3 1 2 1.5 2.6 .6.6.7 1 .5 1.8 -.2.7-.5 1.4-.2 2 .3.7.7 1 .7 1.8 0 .9.2.9.6 1.1l.7.1 .7-1c1.2-1 3 .1 3.4 1.5 .5 1.3 1.2 1.8 2 .7 .8-1 .6-1 1.5 0 .8 1 1.3.9 1.3.9s1-.4 1.6.2c.6.5 1 .4 2.1-1.3 1.3-1.7-.5-1.2-1 0Zm3.3-50.6c.3-2.7 0-5.4 1.2-6.4 1-1 2.4-2.9 2.3 1.3 0 4.1-.2 4-1 4.8 -1 1-1.7 1.3-.8 3 .9 1.5 1 1.6.9 4 -.2 2.5-.2 3.5.8 4.7 1 1.3 1.2 1.4 1.4 2.8v0c.36 1.53 1.11 2.94 2.2 4.1 1 1 2.4 3.8 2.5 5.8 .2 2 1.9 2.5 3.5 3.8 1.5 1.4-.4 2.3-1.6 1.8 -1.2-.8-.7 0-1.5.7 -.7 1-1 1-1.6-.4 -.7-1.4-2.7-2.5-3.7-2.9 -.9-.3-1.8-1.9-2.7-3.5v0c-.69-1.41-2.05-2.35-3.6-2.5 .5 1 .7 1.9.5 2.2 -.3 1.4-.8 2.4.7 4v0c1.33 1.49 2.23 3.32 2.6 5.3 0 1.3.3 1.8 1.7 1.3 1.6-.5 2.3-1 2.8-1.6 .5-.6 1.4-.5 2.8.3 1.3.7 3.4 1.4 4.6.7 1.3-.7 1.9-1.8 3-1.8 1.8-1.3 2.3-3.9 2.7-4.6 .4-.7.1-.7-.6-1.4s-.3-2-.5-3.2c-.1-1.3-.6-3.1-2.1-5.8 -1.5-2.8-2.3-6-3.3-7 -1-.8-1.4-2.8-1.6-3.9 0-1-1.2-1.8-2-2.6 -.7-.7-1.4-1.7-2.3-6l-1.4-7.4c-.8 1.5-1.4 1.8-1.8.8 -.3-1-.8-1.7-1.3-1s-.7-.6-.7-1.2 0-.7-.7-.7c-.6 0-.1-1-.4-2.9 -.2-1.8-.6-2-.8.2 -.2 2.2-1.4 3.5-1 4 .5.5.3 1.5-.2 3 -.5 1.4-.3 2.3.1 3.3s-.3 2.9-.5 4.4c-.3 1.6 1 3.2 1.4.5Zm-22.5-22c-1 0-1.6.8-1 3.6 .3 1.7-1 1.4-1.4.5 -.6-.9-1-2.7-2-4.3 -.9-1.6-.5 1-.5 2.6 -.2 1.4.8 1.4 1.7 2.7 .9 1.3 0 1.7-.9 1.7s-.5 2-.3 3.3c.3 1.4-.2 1.6-.9.5s-.3-2.8-.1-5c.1-2 .2-1.5-1.2-2 -1.3-.5-1-.7-.6-2 .5-1.2 1-1.8.4-2.5 -.6-.5-.5-.9.5-1 1-.2.6-.9 1.4-1.2 .9-.2 1.3.2 1.5-1.4 0-1.4.5-2.2 1.4-1.7 .7 2 1.4 5.2 2 6.1Zm12.3 14.4c0 2.6 0 3.6 1.1 4.5 1.2 1 1 2 1.5 4.4 .5 2.3.5 7.3 2 10.7l1.6 3.7v-.001c.75-.63 1.37-1.42 1.8-2.3 .4-.8-.7-2.5-1.6-4 -.9-1.5.1-2 1-3.8 .8-2-.2-2-1.5-2.5 -1.4-.5-1.4-1.7-2.1-3.7 -.7-2-.6-2.8 0-3.9 .3-1.1 0-2-1-2.2 -1-.3-.7-1-.4-2.2 .5-1.3.7-1.5-.8-1.2 -1.1.3-1.4.5-1.8 1 .2.3.2.8.2 1.5Z"/><path fill="#5D3100" d="M349 269c0 1.4 0 2.1-.4 2.6s-.2 1.3.2 2c.3.8.6 1.8.3 3 -.4 1.4.2 2.6.9 3 .7.3 1.1 0 .9 1.7v0c-.18 1.58.37 3.16 1.5 4.3 .9.7 1.5 1.9 1.5 2.6 -.2.7.5 1.5 1.4 1.9 .9.3.7.5.7 1s.4.5 1.4.7c1 .2 1.7.9 2.9 2.2 1.1 1.4 2.6 2.2 2.4.6 -.2-1.6 0-2.4-1.4-3.2 -1.6-.7-2.7-4.3-3.3-6.7v0c-.63-2.47-1.91-4.71-3.7-6.5 -.1-1.6.1-2.5-1-3.3h0c-.9-.7-1.42-1.77-1.4-2.9 0-.9-.7-2-1.1-2.1 -.5-.3-.7-1-.7-1.7s-1-.6-1 .7Z"/><path fill="#00D860" d="M342.5 334.8v0c3.05-.42 6.04-1.23 8.9-2.4v0c1.51 1.14 3.25 1.96 5.1 2.4 -2.1.5-3.5.2-4-.2 .2.7 1 1.7 1.4 1.8 -2-.1-4.3-.6-5-1.3 -1.8.7-4.7.9-6.4-.2Zm4 3l5.2.7c-1.3 1.2-.2 2.2 2 2 -1.1.2-2.2.6-1.5.7h0c2.73.03 5.45-.48 8-1.5 -1.7 2.2-10.2 4.3-13.7-2Zm3.5 5.4c1-.5 3.7-.3 5 .3 -1.5.5-4.2.5-5-.3Z"/><path d="M354 343.2c1.8-.3 7.1 1 9-.2 -.7 1.7-4 2-5.1 1.6 -1.2-.4-2.2-.9-3-.8 .3-.3-.3-.3-1-.6Z"/><g fill="#00D860"><path d="M355.9 345.8c1.4.2 6.5-.4 8-1 1.7.5 5 1.5 5.7 1.3 -1.5 1-4.5.4-5.5 0 -2.8 1-5 1.2-8.2-.3Z"/><path d="M358.3 346.7c2.1.4 3.8.1 5.8-.6v0c1.11.43 2.3.63 3.5.6 1 .5 2.2 1.2 3.4 1.3v0c-2.25.37-4.55.2-6.7-.5h-.001c-2.51-.03-4.99.44-7.3 1.4 0-.7.4-1.6 1.3-2.2Z"/></g><path d="M355.9 336.3c1.6.5 7.4.3 10.3-1 1.2-.7 1.9.2.5.7 -4.7 1.6-8.5 2.3-11.3.9 -1.1-.7-1.2-1.2.5-.6Z"/><path fill="#00D860" d="M384.1 328.4c-7 3.4-11.7 4.4-21.6 1.4 -.9-.3-1.5 0-.5.6v0c2.46 1.06 5.04 1.8 7.7 2.2 1.3 0 .8.7 0 .9 -.8.2-1 .8 0 .3 1.2-.4 7-.5 9.5.8 1 .5 1.4.4 1.2 0 -.1-.5.5-.7 1.3-.8 .8 0 1.2-.3.6-.6 -.5-.3-.7-.4-.2-.6 .5-.2.5-.4-.2-.6 -.7 0-1.1-.3-.5-.7 .7-.3 1.6-.5 2.4-.5 .1-.5-.2-2 .3-2.3Z"/><path d="M372.4 329.3v0c5.64.07 11.12-1.84 15.5-5.4 1.3.8 3.3 1.7 4.3 2 1 .1 2 1 .3 1 -1.5 0-3.8-.7-4.8-1v0c-4.61 2.77-9.93 4.13-15.3 3.9 -1-.1-1.4-.6 0-.5Z"/><g fill="#00D860"><path d="M360.4 307.2v0c1.99 1.56 4.46 2.37 7 2.3v0c1.53 1.14 3.25 1.99 5.1 2.5 -2.1.9-4.4 1.6-5 2.3 -1-.9-2.2-.7-2.6-1.2 -.8.7-.7 1.2-.1 1.6 .5.4 5.2 1.1 6.4.8 1.1-.4 1.4.7.5 1 -2.6.8-7.4 0-9-2.7 -1.7-2.6-3-3.6-7.6-1.2 -.5-1.3-.5-1.6-1.4-1.6 -1 0-2.5-1.2-1.3-1.1 1.3 0 5-.5 8-2.7Z"/><path d="M361.5 313c-.7.3-3 1.5-3.8 1.5 -.7.1-2.1 1.3-.7 1.3 1.5 0 3.3-1.5 4.3-1.7 1.1-.2 1.1-1.3.2-1Zm4.4 4.8c-.5 0-2.9.6-3.6.5 -.7 0-1.2.2-1.1.6 0 .5.2.7-.7.7 -1 0-1.9.3-2.2.5 -.3.3-.3.6.7.8 1 .1 1.4.1 2.5-.4 1.2-.5 2.2-1.3 3.4-1.4 1.2 0 2.4-1.5 1-1.4Z"/></g><path d="M362.6 320.6c1 .7 6 2.3 7.8 2.2 1.8-.1 1.5.7.1 1 -2.8.6-6.2-.6-8.6-2.4 -1-1 0-1.3.7-.8Z"/><g fill="#00D860"><path d="M386.2 323c-3.8 1.2-7.7.8-9.2.4 -1.6-.3-3-.5-2 .5 1.1 1 4.5 1.7 6.5 1.2 -6.9 1.6-8.7 1.4-10.4 1.1h-.001c-2.1-.21-4.21-.21-6.3 0 -1 0-2.4 0-3-.5 -.5-.4-.8-1 1-.8 1.8.2 2-.2.5-.5 -1.6-.2-3.8.5-1.6 1.8 2.1 1.4 6.7 0 9.7.8 3 .8 9.2 1.4 15.2-3.4 .3-.2.8-1-.4-.6Zm-18.7-5.6v1.3c-.1.3-.1.7.4.3 .6-.4 1-1 1.6-.7v-.001c.94.26 1.92.33 2.9.2 .7 0 .8-.2-.2-.7 -1-.4-2-.5-2.6-.5 -.5.1-1.2 0-1.7-.2 -.5-.3-.5-.1-.4.3Z"/><path d="M377.3 319.2v0c-.97-.1-1.91-.34-2.8-.7 -.8-.3-2-.4-1.1.6 .8 1.1 4.2 1.7 5.4 1.2 1.3-.5.7-1 1.9-.4 1.2.7 2.4 1.3 3.3 1.3 .9 0 1.2 0 .2-.6 -1-.5-1.4-.7-1.4-1.1 0-.4-.3-.7.6-.4 .8.3 1.8.7 2.5.3 .8-.3 2-1.1 3.2-1.1l.3-.7c-1.7-.2-2.7.3-3.3.5v0c-.67.25-1.4.32-2.1.2 -.9-.2-2-.3-2.3-.5 -.3-.2-.3-.5.4-.6 .7-.1 1-.6 0-.4 -1 .2-3.7 0-5.1-.4 -1.5-.4-2-.5-2.7-.3 -.6.2-.5.9.4 1 .8 0 2.8.2 3.6.8 .7.7.5.7-.3.4 -.7-.4-2.1-.2-.7 1Z"/><path d="M389.3 317.6l-.2.7v0c2.44-.11 4.89.27 7.2 1.1 1.3-1 1-1.3 2-1.1 1 .1 2 .5 2.6.2 .5-.3.8-.2 1.4-.2 .5.2 1.7 0 2.4-.5 .6-.4 2.1-1 3-1 .8 0 1.8-.1.3-.4l0 0c-1.56-.09-3.11.07-4.6.5 -.8.3-3.2.5-4.6.5 -1.3 0-3.3.7-4.8.3 -1.6-.4-3.8-.1-4.7-.1Z"/></g><path d="M410.7 316.8c-2.7 2-6.1 2.4-10 2.7 -1.2 0-.8.4.2.5 4 .4 8.9-1 10.4-2.8 .5-.4.5-1.2-.6-.4Z"/><g fill="#00D860"><path d="M391.9 321.4c1.1 0 5.3 1.2 6.7 1.6 1 0 1.3-.3 1-.7 -.2-.4-.3-.7 1.5-.7h7c.6-.2 2-1.3 2.7-1.4 -1.7.2-8.7.5-9.5.4l0-.001c-.65-.12-1.32-.01-1.9.3 -.6.3-.8.5-1.6.2 -.7-.2-1.9-.7-2.5-.2 -.8.4-2.2 0-3.4.5Z"/><path d="M408 321.6c.7-.2 2.1-1.4 2.8-1.4 1.2 0 2.5.4 3.2.5 .6 0 1.3 0 .8-.5s0-1.4 2-1.1c1.8.2 2.8.5 4.6.3 1.8-.1 2.7 1.2 6.1-.2 -.2 1.4.5 1.4 1.1 1.2 .7-.2 1.4-.2 2.5.7 1 .8 7.8 1 9.4.6 1.5-.3 2.4.5 1.2 1 -1.2.3-1.5.8-1.2 1.2 .2.4.5.8-1 .7 -1.4-.2-1.7.2-2.4.8 -.7.6-1 .7-3 .3 -2-.3-2.4 0-3.5.2 -1.2.2-1.3.1-2.5-.2v0c-1.61-.57-3.34-.67-5-.3 -1.5.4-2.5 1-3.8.6 -1.3-.4-1.4-.3-.6-1 .9-.8 1-.8 2.6-1 1.6-.2 2.8-.7 1.7-1.3 -1.2-.6-1.5-.6-3 .2 -1.4.7-2.2 1.2-3.9.3 -1.6-1-2.4-.8-3.6-.5 -1.1.3-2.9-.3-4.5-1Zm5.6 2.8c-2.2.3-2.7-1-5-.7 -.6 0-2 1-.2.8 1.7-.1 3.6.8 5.2.7 1.7-.2 1-.9 0-.8ZM411 326c1.2-.4 3.5.4 4.4.2 1-.1 2 .4.9.8 -1.1.3-3.5-.6-4.6-.3 -1 .3-2.2-.1-.7-.7Zm-22 6c1.5 0 7-.2 9.2-4.8 .1-.4.3-.5 1 0 .6.5 3.2 2 8 2.3 1.3.2 2.7.8 0 .6 -2.7-.2-6.9-.8-8.3-1.8 -2.4 3.8-6.7 4.3-10 4.2 -1.8 0-1.3-.6 0-.5Z"/><path d="M401 325.7c-.8 1-3.3 2.8-4.4 3 -1.3 0-4.7-.4-5.6-.7 -.8-.3-2-.2-.7.7h-.001c1.72.9 3.66 1.28 5.6 1.1 1.3-.2 2.7-.7 3.6 0 1 .7 2.9 1.7 3.9 1.5h-.001c1.32-.27 2.69-.24 4 .1 .6.3 1.8 1.3 0 .7 -1.8-.6-3.2 0-4.1-.5 1 1.3 3 3.4 4.8 3.4 .4 0 .7.7-.2 1.1 .8.5 2.9.8 4-.2 -.3.4-.1.7.3.9 .4.2 1 .6.2.6 -.8.1-2.7.3-3.3.1 1.8 1.1 6.5 3 11.2 2 1 0 1.4-.5 0-.4 -3.2 0-3.3 0-3.9-.3 -.6-.3-.4-.6.5-.9 .8-.3 3-.5 4-.5 .9 0 1.8-.5 0-.5s-4.3 0-5.2-.3c-.9-.2-1.6-.7-.7-1.4 1-.7 2-.4 2.5-1 -3 0-6.8-1.6-4.7-3.2 .5-.3.3-.3-.5-.4 -.8 0-3-.7-4-1.3 -1-.6-.3-1 .4-1.1 -1.7.3-5.3-.7-7.8-2.5Zm27-.1h0c-1.84 1.13-3.95 1.75-6.1 1.8 -1.3 0-1.6.4-.5.6 1 .1 2.1.2 2.6.1s.7-.1 1.5.1v0c1.08.42 2.28.46 3.4.1v0c1.39-.39 2.84-.56 4.3-.5 .9 0 1.9 0 0-.4v0c-1.72-.33-3.49-.33-5.2 0 -.6.1-2.5 0-1.5-.2v0c.84-.29 1.62-.73 2.3-1.3 -.3 0-.5-.2-.8-.3Zm-.9 3.6v0c-1.64 1.21-3.58 1.94-5.6 2.1 2 .7 3.6 2.8 4.8 2.7 -.6.3-1.4.8-2.1 1 1.2.3 3.2 0 4.8-1 2.8.8 6.4.3 7.6-.7v0c-1.75 0-3.46-.52-4.9-1.5 .9 0 1.7-.5 2.2-1 -2.2.3-5.8-.8-6.8-1.6Z"/><path d="M424.2 335c.8 0 1.5-.7 2.1-1v0c-3.56.25-7.11-.55-10.2-2.3 -1.9-1.8-1.9-.4-.5.8v0c2.29 2.17 5.49 3.1 8.6 2.5Zm4.8 4.2c-.8.5-4.8.7-6 .5 -1.3-.3-2-.2-1.6.3 .4.5.5 1-.6.9v0c-1.25-.16-2.51-.06-3.7.3 -.7.3-1.8 1 0 .7 1.5-.2 3-.6 4.3-.2 1.2.3 5.7.4 6.6 0 .8-.5.3-.4-.2-.4 -.4 0-.5-.2 0-.5 .6-.3 1.1-1 1.2-1.6Zm-38.3-5.4v0c-2.79 1.03-5.67 1.8-8.6 2.3v0c-1.34.7-2.8 1.14-4.3 1.3 .7.6 3.1 1.2 4.1.9v0c-.69.59-1.46 1.06-2.3 1.4 1.5-.1 3.2.2 4 .3h-.001c-1.84.99-3.92 1.44-6 1.3 .4.7 1 1.3 2 1.3v0c-1.64.45-3.36.49-5 .1 .4 1 .9 1.5 1.5 1.6 -1.4.2-3.3.4-4.9-.5 1.2 1.6 3.9 2.2 8 1.7v0c2.9-.33 5.68-1.36 8.1-3 -1.7.2-3.9.3-5 0v-.001c2.78-.69 5.45-1.81 7.9-3.3l-.001 0c-.89.02-1.76-.23-2.5-.7 1.2.1 5.8-.4 7.1-1h-.001c-1.24-.28-2.34-.99-3.1-2v0c5 1.46 10.3 1.63 15.4.5 .7-.2.9-1.2-.6-1 -2.6.1-7.6-.6-8.9-1.2v0c1.09.8 2.36 1.34 3.7 1.6 -2.4.7-5.8 1.2-10.6-1.6Z"/><path d="M379.6 339.8l2.3-1.4v0c-1.43.07-2.84-.24-4.1-.9 .9 0 2.4-.5 4.3-1.3 -3.4-.1-5.7-.1-7-.7v-.001c-1.35-.48-2.8-.58-4.2-.3 -.8.2-.5 1.5 3 1.2v0c-2.16 1-4.56 1.35-6.9 1 .4 1.2.7 2.4.3 3 2 1.1 7 2.6 9.5 2.3 -2.2-.8-3.4-1.7-1.6-1.9 1.8-.2 2.8-.6 4.4-1Z"/></g><path d="M374 345.8c4.3-.4 10.2-.5 15-4.4 1.2-1.1 2-.7.8.3v0c-4.22 3.21-9.31 5.06-14.6 5.3 -2.4 0-3.5-1-1.2-1.2Z"/><g fill="#00D860"><path d="M407 338.4c-1.1.5-4.2 1-5.1.9 -1-.1-2.3-.2-3 .2 -.8.4-.8.7.2.9l3 .1v-.001c-.63.34-1.18.82-1.6 1.4 1.4-.4 4.2.3 5 .8 -.7.1-1.3-.1-1.8-.4 2.5 2.7 9.9 2.7 11 2.2 -.5.4-1 .8-1.6 1 2.1.3 4.5.3 6.8-1.1l0 0c-1.24.04-2.48-.03-3.7-.2v0c.51-.48 1.12-.82 1.8-1v0c-1.51-.19-3.04-.08-4.5.3 .3-.6.7-1.3 1.3-1.5v0c-3.27.23-6.56-.11-9.7-1 2.6.3 5.4-1.2 6.7-1.2 -2 0-4.3-.5-4.8-1.4Zm-9.3 2.1h0c-1.77.32-3.51.79-5.2 1.4 -.8.4-1.5.8 0 .8v0c.19-.07.39-.14.6-.2 -.6 0-1.4 0-.2-.4s2.8-1.2 4.8-1.6Zm-3.6 4.3c.6 0 3.5 0 4.5-1 1.2.9 3.4 2.2 4.8 2.2 1.5 0 1.3.3 0 .5 -1.2.1-3.6-.7-4.8-1.6 -1.7.6-3.1.1-4.6-.2Zm-21.4 12.4c2.9 1.1 6.6 2 9.4 1 1.6 1.4 4.8 1.5 6.6 1.1 1.7-.3 3.3-.6 5.2 0 2 .7 5.9.8 7 1.7 -1 0-3.1 0-3.7.2 -.5.1-.2.4.7 1h0c-3.57-.13-7.1.73-10.2 2.5v-.001c.93-2.13 3.07-3.48 5.4-3.4 -1.6-.6-7-.6-8.7.4 -.5-.5-1.1-1.4-1.1-1.7 -2.9 1.5-8.3-.8-10.6-2.8Zm-7.3-5.2c3.4-.4 5.8-1.5 6.8-2.6 .5.6 3 1.2 5.7.3v-.001c-.47.38-.63 1.03-.4 1.6v0c-2.18.18-4.31.72-6.3 1.6 -1.1.5-4.5 1-5.6.4 -1-.6-1.1-1.2-.2-1.3Z"/><path d="M377.5 351.3c-1.8 0-5.1 1-6.3 1.6l.5 1.7v0c4.44-1.29 9.08-1.8 13.7-1.5 -1.3 0-4 1.5-5.4 1.7 3.6-.3 7 .5 8 .7 .9.2 1 1 .4 1.6 -.7.6-1 .7.5.7 1.4 0 4.5 0 5.9-1.4 -.6-.6-2-.4-2.4-.8h0c.9-.32 1.72-.83 2.4-1.5v0c-1.41.06-2.82-.04-4.2-.3 -.8-.2-1.4-.4-.4-1h0c.68-.35 1.29-.83 1.8-1.4 -1.8.5-4.6 1-7-1 1 .4 3 .2 3.7-.1 -.8-.5-1.4-.7-2-.7 1.8-1 5.5-1.8 10.2 0h-.001c2.17-.18 4.36-.05 6.5.4 .8-.7 2.3-2.5 3.1-2.9 -5.4.4-15.1-.6-15-3.4 -1.7 2.3-5.7 3.6-7.5 3.2 -.2.8.5 1.8 1.1 2.4 -1.7.3-4.9.7-6.4.3 .8.9 2.4 1.6 3.4 1.5 -2 0-3 .4-4.6.2Z"/><path d="M388.9 357.8c1.4 0 4.5 0 5.9-1.4 -.6-.6-2-.4-2.4-.8v0c.9-.32 1.71-.83 2.4-1.5 3.9-.4 7.3-.2 9-.7 1.7-.5 6-.2 6.7-.5 -3.6.7-4.3 1-4.6 1.6 -.2.6 1.3 1 2.1 1 -1.6 0-3.7 1.7-4 2.4 -2-1.2-3.1.3-3.4.8v0c-1.93-.48-3.96-.12-5.6 1 -2-.5-3.3-.9-5.3-.5 1.3-.3 1-1.2-.8-1.3Zm17.6-10.8c1.3 0 4 .2 5 0h0c-.64.29-1.21.7-1.7 1.2 3.2-.4 7.4-.6 8.6-.4 -1.4-.3-3 .7-3.8 1.3 -.8.5-.3.7.7.9 1.1.1 2.6 1 .6.7v0c-2.23-.25-4.47-.28-6.7-.1 -.9.1-1.4-.3 0-.5 1.2-.3 2.2-.7 2.8-1v0c-1.26.2-2.55.2-3.8 0 -.7-.2-1.1-.6-.4-.7 .7-.1.3-.5-.5-.4 -.8.2-2.8 1-3.9 2 1.2-1.2 2.3-2.3 3.1-2.9Z"/></g><path d="M392.5 349.2h0c1.55 1.78 3.83 2.77 6.2 2.7 .6 0 1.7.8.2.9 -3.8.1-5.7-.7-7.4-3.2 -.4-.6.2-1.3 1-.5Zm23-32.3l0 0c2.98 1.19 6.18 1.76 9.4 1.7 .6 0 1.6.5.3.7v0c-3.42.41-6.88-.25-9.9-1.9 -.7-.4-.5-.8.3-.5Z"/><g fill="#00D860"><path d="M417.6 317c3.2-.2 5.6-.2 6.5.8 1.8-.6 5-1 5.7-.7 .8.2 1.6-.3-.1-.7 -1.7-.4-5.7-.6-6.9-.3 -1.2.2-5 .4-6.4.2 .5.1.9.2 1.2.5Zm12.2 1.1c1.5-.8 5.8 0 7-.6 -1 1.1 3 1.2 6.3.3 -1.3.8-4 1-5.2 1.5 -1.2.5-1.9.1-2.8-.2 -1-.4-3.3-1.3-5.3-1Z"/><path d="M443.1 317.8c-3.3 1-7.2.8-6.2-.3 -1.4.6-5.6-.2-7 .6 1.4-.9 2.6-.2 3.7-2.1 .8.2 2.3.3 3-.5h0c1.06.21 2.08.62 3 1.2 .6.5 1.4-.1.7-1 1.4-.5.5.8 4.1-.2 .7-.2 2.5-.5 3.2-.5v-.001c-1.35 1.1-2.83 2.04-4.4 2.8Z"/></g><g stroke-width=".4" fill="#FF0" stroke="#000"><path d="M377.9 302.4l-.8-78.7c0-3.6-1.7-2.9-1.7 0v78Zm25.5-83l2.8 83 -.3.7H404l-1.8-83.7Zm24.1 70.2l-1.4-67.4c0-2-1.8-1.7-1.8.4l1.4 67Z"/><path fill="#FFF" d="M389.2 233.2l-24.8-.3c-1 5 5 4.6 7 3.5 3 1.8 5 1.8 6.5 0 2 1.8 5 1.4 6 0 2.8 2.5 6 0 5.3-3.5Zm1.8 12.1h-24.8c-4.7 4.3 1 6.4 6 3.5 .7 1.5 3.5 2.2 5.7 1.1 2 1.4 5 .4 6.3-1 2.5 1 5.7 1.4 7.1-3.6Zm-.7 16h-24.1c-.4 3.9 4.6 3.5 6.3 2.4 1.8 2.9 6 2.2 7.5.4 2.5 1.8 4.6 1.4 5.7 0 2.4 2.1 5-.7 4.6-2.8Zm1.4 15.6l-27.3-.4c-1.4 4.6 2.8 5.3 4.6 4.3 .7 2.4 4.2 1.7 5.3 0 1.4 1 3.2.3 4-.7 .3 2.4 3.5 2.8 6 .7 5 3.5 9.5-.7 7-4Zm23.7-6.4h-22.3c1 4.2 3.2 5.3 6.7 2.8 2.9 2.9 7.1 1.8 8.2.4 5 3.9 7.4-.7 7.4-3.6Zm-2-15.6l-22-.7c.3 5.6 5.6 5.3 8.4 3.2 1.8 2.4 5.4 1.7 7.1 0 2.5 2.8 7.1 1 6.4-2.5Zm2.8-17.4h-23.4c0 3.9 5.3 6 9.2 2.5 1 4.6 5.3 3.2 7 1.4 2.9 3.5 9-.7 7.2-3.6Zm-1.5-11.7l-21.2.3c0 3.6 5 5 6.7 2.2 1 1.7 4.6 1.4 5.7 0 1.4 2.5 3.5.7 4.2 0 2.5 1.7 5 .7 4.6-2.5Zm24.5 7.8l-25.5-.4c0 2.5 2.5 3.6 4.2 2.5 0 2.9 3.6 3.6 6 1.4 1.5 2.5 6 2.9 7.9 0 3.5 3.2 7.8.7 7-3.5Zm-.3 21H414c0 3.5 4 4.5 6.4 2.8 .4 2.8 3.6 3.1 5.3 1.4 2.5 2.5 6 2.8 8.2 0 2.8 1 5.3-1.4 5-4.3Zm-1.5 18.7h-19.8c0 3.6 4.2 3.6 6 1.8 2.1 2.5 5 2.5 6.7.7 2.5 2.1 6.8 1.4 7.1-2.5Z"/><g fill="#000"><path d="M405.9 303.1c-10.7 0-21.7 0-29.1-.7 -7.5-.7-9.6-2.1-14.9-5.3L342 285c-1.7-.8-3.5.3-1 1.7l19.8 13.1c5.4 3.6 8.9 6.8 12 10.7 4.3 4.6 7.2 4.6 9.3 3.9 2.1-.7 5-1.8 8.2-1.1 2.8.7 7 1 9.2.7 1.8 1.8 6.4 1.4 8.9.7v0c1.94-.61 4-.72 6-.3h6c1.8 0 6.4-1.1 9.6-.7 3.5.7 6.7 0 8.9 0h-.001c2.28-.6 4.66-.74 7-.4v0c1.73-1.21 3-2.98 3.6-5 2.1-.3 2.8-.7 3.2-1.7l2.1-5.7h.7v-2.1l-1.4-2.2 .7-3.5 1.8-.7 -.7-3.6 -31.2.7v0c-1.16 1.05-1.94 2.45-2.2 4l-9.2 1.4c-1 .3-2.1.3-3.2 1.7Z"/><path d="M443.1 289.3l4.6-17.4c.7-1.8-1-2.1-1.8 0l-4.6 17.4Z"/></g><path fill="#FFF" d="M461.2 269.8c-3.9 1.7-6 2.8-7.8 2.1 -1.8-.7-4-1-5.3-.4v0c.01.13.01.26 0 .4h-.001c-1.32 4.5-2.65 9-4 13.5 3 1 7.9 1 9 0 1.4-1.4 4.6-1 6.3-1 1-1.5 1.4-3.3 1-4 -.3-.7 0-2.5 0-3.5 0-1.1 1.5-5 .8-7.1Z"/><path fill="none" d="M371.8 236.4h-.001c-6.86 17.9-16.4 34.66-28.3 49.7m7 4.2l-.001-.001c15.74-12.66 29.41-27.71 40.5-44.6m-24.8 15.2c-1.1 9.6-4 26.6-5.4 35.5m9.3-14.2c-3.6 3.5-8.2 9.2-12.1 12.4m45-31.6c-2.8 2.9-6 6.4-9.2 7.1m11-6.4v-.001c2.6 3 5.9 5.33 9.6 6.8m-11.4-22v-.001c-3.09 2.7-6.7 4.74-10.6 6m12-5.7v0c2.2 2.5 4.89 4.54 7.9 6m-19.3-17.2l-.001 0c3.55-1.03 6.83-2.84 9.6-5.3m1 0c2.5 2.5 7.1 5 9.6 5.6m-19.5-11.7v0c3.33-.6 6.35-2.38 8.5-5m1-.6c2.6 2.1 7.2 5 9.7 5.3m11.3 2.8c-1.4 1.8-5.3 4.6-7.8 4.6m9.6-4.6c1 1.8 3.9 4.6 5.7 4.6m-17 21.3v-.001c3.78-1.42 7.17-3.72 9.9-6.7m1.7.3v0c1.72 2.64 4.05 4.83 6.8 6.4m-14.5 18.4c1.5 0 5.4-2.2 6.4-4.6m2.2-1.1l0 0c1.93 2.41 4.31 4.45 7 6m-66.3 3.2v0c6.89-2.72 13.08-6.96 18.1-12.4m-8.5 6.7v0c3.4 2.66 7.27 4.7 11.4 6m-22-15.9v-.001c3.12-1.25 6-3.05 8.5-5.3m1.7-.4c1.1 1.4 8.6 6 11.8 6m-13.5-20.9v-.001c-2.71 2.09-5.71 3.77-8.9 5m10.6-5c2.5 1.8 7.8 5 11 5m-12.7-19.2v-.001c-2.43 2.73-5.31 5.03-8.5 6.8m10.2-6.4c1.5 2.5 5.7 6 8.6 6.4m28.3 9.1v0c7.75 13.4 18.29 25 30.9 34m-50-47.1c10 14.2 29 45 47.5 56.4m3.5-12h0c-4.74 6.41-10.6 11.9-17.3 16.2m16-12.4c-6.1-10-9.3-22.3-14.3-39m-49.6 44l7 21.3m-8.4-21.7l6.7 21.3m-8.5-22.3l6.4 22m-7.1-21.7l5 21.7m0-.8h6m-.7-2h-5.7m5-1.9h-5.7m5-1.7h-5.7m4.6-2.2h-4.6m-.4-1.7h4.6m-5-1.4h4.7m-5-1.8h4.3m-4.6-1.4h3.9m-4.3-1.8h3.6m-4-1.4h3.6m-3.9-1.1h3.5m-3.5-1.4h3.2m-9.2 0l-4.3 17.7m5.3-17.7l-3.5 18.4m4.6-19.1l-2.8 19.5m4.2-19.9l-2.1 20.6m2.5-1.4h-7.1m7-1.8h-8m8-2.1h-7.3m7.1-1.8h-6.7m7-1.8h-6.7m6.8-2.1h-6m6-1.8h-6m5.6-1.8h-5.3m5.3-1.7h-4.6m4.6-1.8h-4.2m4.2-1h-3.9m3.6 19.4v-20.9m23-7l-14.2 28.7m15.3-29.1l-12 29.4m12.7-29.8l-9.6 29.8m10.7-29l-7.8 29m.3-1h-8.9m9.6-2.9h-8.5m8.9-2.1h-7.3m8.5-2.1h-7.1m7.4-2.2h-6.7m7.5-2.1h-6.4m7-2.5h-5.6m6-1.8h-5.3m6-2h-5m5.4-1.5h-4.6m5-1.4h-5m4.6-1.4h-3.6m3.6-1.1h-3.2m3.5-1.4h-2.8m3.5-1.4h-2.7m2.8-1.1h-2.4m12-.4l6 19.9m-5-19.5l7.5 19.1m-6.4-19.1l9 18.8m2-1.8l-9.9-17.4m10 17.8h-7.2m6.4-2.9h-7m6-2.1h-6.8m5.3-2.5h-6m4.6-2.1h-5.3m4-2.5h-4.7m3.5-2.5h-4.2m2.8-2.1h-3.5m11.3.4l-6.4 18.4m8.2-19.2l-5.7 18.8m2.5-.3l4.3-17.7m1 .7l-3.5 16.6m-6-1h6m-5.3-2.2h6m-5.3-2.4h5.7m-4.7-2.2h5.4m-4.7-2.5h5m-4.2-2h4.6m-3.6-2.6h4.3m-3.6-2h3.6m3.2.3l2.8 12.7m-1.8-13.4l4 13m-2.5-13l4.2 13m-2.5-12.3l4.6 12.4m-.3-1h-6m5.3-1.9h-5.7m5-1.7h-5.4m4.7-2.2h-5.4m4.3-1.7h-5m4.3-1.8h-4.6m3.9-1.8h-4.3"/></g><path fill="#00B800" d="M374.2 309.7v0c3.21-1.75 7.12-1.59 10.2.4 3-1.7 8.3-1.2 10.8 1 3.8-2.6 7-3 10.7-.5 3-2 7.2-2.2 10.7.2 3.3-1.6 7-2.9 10.2.6 -2-1.4-6-2.6-10.2.6 -3.3-3.2-8.9-2-10.7.2v0c-2.62-2.86-7.04-3.05-9.89-.44 -.22.19-.43.4-.62.63 -3.3-2.8-8.3-2.9-11-.7 -2.1-1.7-5.2-3.1-10.2-2Z"/><g fill="#CF6200"><path d="M424.5 305.8v0c-17.84 1.87-35.85 1.54-53.6-1 -2.3-.7-1.7-1.5.3-1v-.001c11.52 1.57 23.18 1.97 34.8 1.2l5.7-7.7c1-1.1 1.2-1.3 3-1.6l8-1.3v1.1l-.6.6c0 1.8.4 6.4.7 8.2 .4 0 .9-.3 1-.3 .8-.2 1.4 1.5.8 1.7Z"/><path d="M448.6 306.5h1.9v0c.83-.05 1.55-.61 1.8-1.4l2-5.8 -1.5-2.2h0c.26-1.6.49-3.2.7-4.8l2-.7c0-.4-.1-1.6-.6-2 -6.3.3-25 1-28.6 1 -.8 0-1.2 0-1.5 1.1 -1.8 6.6.7 15.8 7.3 21 .5.5 1 .1.2-.6v0c-1.52-1.49-2.84-3.17-3.9-5l4.7-.2c.4 1.5 1.5 4.8 1.8 5.3 .2.6.7.8.5 0 -.7-2-1-4.3-1.3-5.3l5-.1 .2 4.7c0 .7.6.7.6 0v-4.8l4.3-.1 -.4 4.7c0 .7.3 1.2.5 0l.7-4.7h3c0 .8-1 3.9-1.3 4.6 -.2.8.1.8.4 0v0c.67-1.51 1.18-3.09 1.5-4.7Z"/></g><g><path d="M427.6 305.7c-.4-1-2-4.6-2.1-7.2l6.2-.2h-.001c.27 2.45.67 4.88 1.2 7.3Zm5.3-7.4l1 7.3h5l-.2-7.4Zm-7.2-6.4c-.2 1.3-.3 4.1-.2 5.4l6.1-.1 -.5-5.5Zm6.6-.2l.4 5.4 6-.1 -.3-5.5Zm7.3-.2c0 1.2.2 4.6.1 5.5l5.3-.2c0-1.2.2-4.6.1-5.5Zm6.5-.2l-.1 5.5 5.6-.2c.3-1.1.8-4.3.8-5.6Zm5.8 6.5l-6 .2h-.001c-.16 2.43-.36 4.87-.6 7.3l5.7-.2h-.001c.77-1.83 1.44-3.7 2-5.6l-1.1-1.7Zm-12 .3l.1 7.3 4.3-.1 .6-7.3 -5 .1Zm-24.6-1.4l-2.3.5h-.001c-1.87 2.68-3.8 5.32-5.8 7.9l8.4-.2 -.3-8.1Zm1.1-.2l.3 8.3 5-.4 -.7-8.7Z"/><path stroke="#000" stroke-width=".4" d="M391.7 276.9h-27.3v-.7l27.3.3Zm21.3-22c.3 0 .3 0 0 0l-21.3-.4c-.4 0-.4 0 0 0H413Zm-22.7 6c.3 0 .3.4 0 .4h-24.1c-.4 0 0-.4 0-.4Zm.7-15.6c.3 0 .3.4 0 .4h-25.2c-.4 0-.4-.4 0-.4Zm-1.8-12.4c.4 0 .4.3 0 .3h-24.5c-.3 0 0-.7 0-.7l24.9.4Z"/></g><g stroke-width=".4" fill="#FFF" stroke="#000"><path d="M414.7 225.8l-21.2.3Z"/><path fill="#000" d="M415.8 237.8c.4 0 .4 0 0 0h-23c-.4 0-.4 0 0 0Zm23 16.4v.3H414c-.7 0-.7 0 0 0h25Zm0-21c.8 0 .8.4 0 .4h-25.1c-.4 0-.4-.4 0-.4h25.5Zm-23.4 37c.4 0 .4.3 0 .3h-22.6v-.4Zm22 3.1c.4 0 .4 0 0 0h-19.8Z"/><path fill="#EF072D" d="M455.5 276.9v0c.39-1.65.39-3.36 0-5v0c-.69.19-1.42.19-2.1 0v0c-.32-.26-.66-.49-1-.7 0 1.4-.8 5.3-1.5 6.7 -1 0-3.5 0-4.6-.7l-1 3.6h0c1.74.38 3.55.38 5.3 0 0 2-.4 3.9-1.5 5.3 1.8 0 3.6 0 4-1 1-1.5 1-3.6 1.4-4.7l1.7-.3 1.8-.8 2.5-.3v-2.1l.7-1.5 -5.7 1.8Z"/><path fill="#000" d="M367.6 157v0c-3.59-.18-7.18.05-10.7.7 -1 .7-1.4 1 .7 1.4 2.2.4 6 1.8 8.2 2.8v-.001c2.33 1.58 3.66 4.28 3.5 7.1h-.001c-1.61 8.98 2.7 17.99 10.7 22.4 .3.3.7.7.3 2.1l-1 4c0 .6-.4 1.3.7 1v0c-1.11 1.95-2.32 3.85-3.6 5.7 -5.6-.8-10.6 0-10.6 6.3 0 .7 0 1.5.7 0 1-1.4 2.1-2.8 4.6-3.5 -1.4 2.5-2.1 4.6-1.8 6 0 1 .8 1.8 1.5 0 .3-1.4 1.7-2.8 2.8-3.9 .7-.3.7-.3.4.7 -.4 1 .3 3.2 1 4 .7.6 1 .3.7-.8 0-1.4 0-3.9 1.8-4.6 2.1-1.4 4.3-.7 5 .7 1 1.8 1.7 0 .7-1.4s-2.2-3.2-3.6-3.2l3.6-6c0-.7.7-1 1.4-.7 0 .3.7.3 1-.7l2.5-5 2.2-.7 3.5 5.3v2.1c0 1.5-1.4 4.6-1.8 5.7 -4.2 0-6.3 0-7.8 2.5 -.7 1 .4 1.4 1.5 1v-.001c1.05-.64 2.26-.99 3.5-1 .7 0 1 .7 0 1 -2.5 1.1-4.3 2.9-4.3 5.4 0 .7.8 1 1.1 0 1-1.8 2.9-3.2 4.6-3.6 0 1.8.4 4.6 1.8 5.3 1 .8 1 0 .7-1 -.7-1.8 0-3.6 1-4.6 1.8-2.2 6.1.7 7.2 1.4 .7.7 1.4 1 .7-1 -.4-2.6-4-3.6-7.1-4.3l4.2-15c1.8 1.1 3.6-1.7 6.4-.6 5 2.1 12.4 6.7 13.5 7.8 1.4 1 1.8.7 2.5 0 .7-.4 1.8 0 2.8 0 .7.3 1.4.7.4-1.4v0c-2.02-3.77-4.94-6.96-8.5-9.3 2.8 0 6.3 0 6.3-.7s-4.2-2.1-6-2.1h-.001c2.12-.39 4.09-1.36 5.7-2.8 .7-.8 0-1.1-2.9-1.1 -7.4 0-11.3 0-15.2-2.1 -6.4-3.6-10.3-7.8-13.5-9.3 -1.4-1-2.5-3.2-3.5-5 -1.8-5.2-1.8-8-6.4-9.9v0c-4.58-1.33-9.52-.24-13.1 2.9Z"/><path d="M368 158.4h-6.1s-.7 0 0 0l5.3 1.4c1 0 .7 1 0 .7 -.7-.3-1.4 0-.7.7 3.6 2.5 4.3 3.6 3.6 13.2l1.7 1.4c.7 0 .4.7 0 .3 -.3-.3-1.7 0-.7.7 1 .8 1.8.8.7.8 -1 0-2.1.7 0 .3 1.8 0 2.9.7 0 1 -2.1 0-1.4.8 0 .8 2.5 0 1.8.7 1 .7 -.6 0-1 .7.8.7h2.5c.3 0 .7 0 0 .4 -.7 0-.7.7.3.7 1.1 0 1.8 0 .7.3 -.3 0-1 .4 0 .7 2.5 0 2.9.7 2.2 1 -.7.4-1 .4 0 .4s2.1.4 1 .8c-.7 0-1 .7 0 .7 1.1 0 1.8.7 1.1 1 -.7.4-1 .7 0 .7s1.4.4.7.7c-.7.8-1 .8-1.8 0 0-.7-.7-.7-.7 0l-.7-1c-.3-1-1-1-1 0s-.8.3-1.5 0v0c3.51 4.1 9.38 5.25 14.2 2.8 .4 0 .7 0 1 1l2.2 4c.4.7 1 0 1-.7l2.2-6c0-1.1 1.4-1.8 1 1 1.1-.7 5.4-1 9 0v0c3.37 1.36 6.56 3.14 9.5 5.3h-.001c.5.4 1.17.55 1.8.4 1 0 1.4 0-.4-1.8 -1.7-1.8-1-2.5 0-1.8 1.1.8 1.8.4.7-.7l-3.5-3.2c-.4 0-.4-.7-2.1-.7h-5.4c-.7 0-1.4 0 .8.7 2 .7 6 3.6 7 4.3 1.1.7 1.5 2.1-.3.7v0c-4.04-2.73-8.33-5.07-12.8-7 -9.5 1-17.4 2-23-4 -2.9-3.2-2.9-10 1.7-12.8 -.7-.7-.7-1.4-.3-1.4v-2.1c-.7-.4-1.4-1-1.4-1.8 -1 0-1.8-1.8-3.6-1 -1.7.7-2.1 0-2.8-.4 -.4-.7-.7-.7-1.8-.7 -1 0-1.8 0-1.8-.7s.8-.7 2.2 0c2.5 1 4.6 1.8 6.4-.7 1.4-2.2-.8-4-3.6-4.6 -3.2-.7-5.3 1.7-6.7 2.8Z"/><path d="M383.5 157.3v0c-1.02-.9-2.21-1.58-3.5-2 -1 0-1 .6-.7 1v2.1c.7.4 1 1 0 1 -.7.8 0 3.3 1 2.5h.7s0 1.1.8 1.1c.7 0 0 .7 0 1h.7c.7 0 .3 1.5-.4 1.8 1 0 1.4 0 1.4.8 .4.7 1.4 1 1.4 2 0 1.2 0 1.2-1.4.8 -1.4-.4-1.4 0-1.7.7 -.4.7-.8 1 0 1 .7 0 1.4.4.3.8 -1 .3-2.1 0-2.5 1 0 1.1 0 1.5.7 1.1l2.5-1.4 1.8.3c.7.4 0 1.8-.7 1.1s-1.4 0-1.8.4l-1.8.7c-.7 0-1.4 0-1 1.7 0 5 3.9 8.6 11 8.6H402c-2.2-1.5-3.6-2.2-4.6-2.2h-1.1c.4-.3 0-1-.4-1 -.3 0-1-.7-1.7 0l-3.6 1.7c-.7 0-1.7 0-.7-.7l3.2-1.4c.7 0 .4-.7.4-.7s0-1 1-.7v0c1.93 1.42 4.09 2.5 6.4 3.2 1 0 1.4-.7.7-1v0c-.56-.32-.93-.87-1-1.5 0-.4.3-.7 1.7 0v0c1.42.91 2.97 1.61 4.6 2.1 1.1.4 1.8.4 0-.7l-8.1-6c-1-1-1 0-.7.7 .3.7-1 1-1.8.4 -.7-.8-1-1.1 0-1.5 1-.3.7-.7-.4-1.7 -1.4-1.1-1.7-1.1-1.4 0 .4 1 .4 1.7-.7 1.4 -1-.4-2.1-1-1-1.4 .7-.7 1.7-1.1 0-2.2 -1.8-1-.8 0-1.1.7 -.4.8-1.4.8-1.8 0 -.3-.7-1-1-.7-1.4 .4-.3.4-.7 1 0 .8.7 1.5 0 .4-1 -1-1.1-1.4-.7-1 0 .3.7-.7 1.4-2.2 0 -.7-.4-.7-1.1 0-1.5 .7 0 .7-.3 0-1 -2.5-4.3-1.4-7.5-4.2-10.7Z"/></g><path fill="#CF6200" d="M383.7 158c-.2.4-.3.4-.7.7 -.6.3-.7 1.4.2 1.2 .7 0 1-.5 1.2-.7v0c-.2-.42-.44-.83-.7-1.2Zm-2.9-2.3c-.7.7-.8 1-.5 1 .5 0 .3 0 0 .5s.6.7 1 .5c.3-.3.4-.5.6 0 .2.3.7 0 1.2-.4h0c-.69-.64-1.47-1.18-2.3-1.6Zm-1.3 4c-.9.5-.5 2.8.8 2.2 .5-.2.9-.2.8.2v.6 0c.61-.24 1.15-.62 1.6-1.1 .9-1 0-1-1.2-1 -1.3 0-1.7-.1-.4-.9 1-.7.3-1.1-1.2-.9 .2.3 0 .7-.4.9Zm5.4 5.4c-.8-.7-.3-1.1.5-1.4l.3-.4 -.6-2.3c-.4 0-.8.9-1 1.4 -.1.6-.3 1-.9.7 -.6-.1-1.1.5-1.2 1.2h.3c.3 0 .5.4.4.7 1.7 0 2 1.1 2.2 2 .3.8.7.6 1 .2 .2-.5-.4-1.4-1-2.2Z"/><path fill="#FF0" d="M385.3 174.7c-.3.7-.3.7-1.3.7s-2.2.3-2.7.8c-.3.3-2 .4-2 1.2 0 .7 0 1.3.7 1.4 .7 0 .8.2.6.7 -.3.5-.5 1.5.7 1.5 1.3.1 2.3-.2 2.6.5 .3.7 0 2 .2 2.3 .3.5 1.2.8 2.5 1.2 1 .2 4.3.4 5.4.3 1-.2.7-.7-.4-.9 -1 0-1.9-.2-2.2-1 -.2-.7-.4-1.1.3-1.8 .5-.7 1.1-1.1.8-2.2 -.4-1-1-2.4-2.2-2.7 -1.2-.3-.8-2-2-2.1l-1 .1Z"/><path fill="#CF6200" d="M379.3 184.8c1.1 0 2 .3 1.2.6 -1 .2-1.5.7-.3.8 1.1.1 2 .5 1.2.8 -.8.3-1 .8 0 .7 1 0 1.5.6.8 1s-1.2.7-1.7 0c-.4-.7-.7-1-.9-.4 -.1.5-.4.1-.8-.7 -.3-.9-1-1-.8-.4 .2.7-.7.7-1.5.4v-.001c.81.82 1.72 1.56 2.7 2.2 1-.4 2.4 0 2.8 0 .4 0 1.9.4 2.6.7 .8.4 1.3-.3 1-1 -.3-1-.4-.6-.7-.2 -.5.5-.5-.2-.5-1.2 0-.7-.5-.5-.8 0 -.2.5-.5-.3-.3-.8s0-.7-.5-.6c-.4.2-.4 0-.5-1 0-.9-.4-.7-.5-.4 -.2.4-.5-.1-1.1-.8 -.5-.7-1-.3-2 .1l.7.2Z"/><path fill="#FF0" d="M390.5 190.4c-5 2.1-8.6 1.2-11.4-.7 1.2-.3 2.5 0 2.9 0v0c.9.16 1.78.46 2.6.9 .8.4 1.3-.4 1-1.2 .8.9 1.2 1.5 2 1.5 1-.1 2.2-.2 3-.5Zm-10.7-23.1c-.3-1-.6-1.3-1.2-1.3l-1.4-.2c-.6-.3-1.5 0-1.5 1.1 0 1.2-.8 1.7-1.7 2.3 -1 .7-1.5 1.3-1.5 2.4 0 1-.3 1.4-.8 2.1l-1.1 1.2 1.2.8c.6.2.4.7-.3.5 -.7-.1-1.3.2-.2.5 1 .2 1.6.7.6.7 -1.1 0-2.3.8-.2.6 2-.2 2.8.7.4.7 -2.5.2-1.5 1-.2 1 2.3 0 1.6.6 1 .6 -.6 0-.9.7.6.6h.1c.2-.2.4-.5.5-.9 .2-.7.5-2.8 1.4-3.5 .8-.6 1.3-1.4 1.3-2v0c.34-1.5 1.07-2.87 2.1-4 .9-.7 1.2-2.2 1-3.2Z"/><path fill="#CF6200" d="M378 167.3c-.9-.6-1.8-.2-1.8.8 0 1.1-.5 1.5-1.2 1.8v-.001c-.8.48-1.35 1.28-1.5 2.2 -.2.8.1 1.4-.6 2.1 -.5.7-.7 1.2-.2 1.6 .5.4.5.4.6 1 .2.5 1.2 0 1.2-.7s.3-.7 1-1c.7-.4 1.8-2.2 1.5-2.7 -.2-.4-.8-.8 0-1.5 .8-.8 1.6-.8 1.6-1.5s.2-.8.5-1.1c.2-.2-.6-.6-1.1-1Z"/><g><path d="M378 166.4c-.6-.2-.9 1-.1 1.2 .8.1.9-1 0-1.2Zm-.2 1.6c-.5 0-1.3.8-.2.7 1-.1 1.4-.9.2-.7Zm-1.1 1.4c-.7.4-.5 1.2.3.6 .9-.7 1.2-1.3-.3-.5Zm-1 1.4c-.7.3-.5 1.1.4.5 .9-.6 1.2-1.3-.4-.5Z"/><path d="M374.4 171.3c-.7.3-.2 1.2.7.6 1-.5.9-1.4-.7-.5Zm.7.8c-.6.3-.1 1.2.7.6 .9-.6 1-1.4-.7-.6Z"/><path d="M374.1 172.4c-.7.4-.3 1.2.7.6s.8-1.4-.7-.6Zm.7 1c-.7.3-.3 1.1.7.5 .9-.6.8-1.3-.8-.5Z"/><path d="M373.7 173.9c-.7.3-.2 1.1.8.5 1-.5.7-1.3-.8-.5Z"/><path d="M373.8 174.7c-.7.3-.3 1.1.7.5 1-.5.8-1.3-.7-.5Z"/></g><path fill="#CF6200" d="M373.3 182.5c-.7 0-1 1-.3 1.1 .8.2 1 .2 1 .9 0 .6.2 1.4 1.1 1.5 .9 0 1.7-1 .9-1.2 -.8-.3-1.5-.6-1.5-1.2 0-.8-.7-1.2-1.2-1.1Z"/><path fill="#FF0" d="M396 177.2l.3.4c.6.5 1.8 0 1.6-.4 -.1-.5-.7-1.8.7-.7l8.5 5.9c1.7 1.2.6 1.4-.2 1l-4.5-2.1c-1.4-.8-1.5-.5-1.8-.3 -.1.3 0 .8.5 1.3 -.8.1-2.1 0-2.5-1 -.5-1-1.6-2.3-2.3-3.3 -.3-.4-.5-.6-.4-.8Z"/><path fill="#00D860" d="M441.7 328.2c-1.2.7-2.8 2.1-1.7 4l.3-.2v0c4.41-5.37 8.33-11.13 11.7-17.2v-.5 0c-1.21 1.02-2.56 1.86-4 2.5 .5 1.5-2 3.4-3.5 4 .6 1 .4 2.3-.8 2.6 .3.8-.7.8-1.7 1.3 -1.1.5-1.7.7-2 1.4 .5-.4 1.4-.7 1.8-.5 .4.2.6.8-.3 1 -.8.2-1.4.6-1.6 1 1.2-.4 2.9-.2 1.7.6Z"/><path stroke="#000" stroke-width=".4" d="M387 175.4c-1.3-1-1.7-.3-1.3 0 .3.4 0 1.4-1.1 1.8H381c-.7 0-1.7 1.4 0 1l5.7-1c.7 0 1.4-.7 0-1.8Zm2.6 2.2c-1.1-1.1-1.5-.8-1.1 0 .4.7-.4 1-1 1l-5 1.4c-1.5 0-1.5 1.1.3 1.1s5.3-1.8 5.7-1.8c.4 0 .7-1 1-.7 .4.4 1.1 0 0-1Zm1 2.8l-3.5 1.8c-1 0-1.8 1 0 1s3.5-1.7 4.2-2.1l1.5-.7s1.4-.4 0-1.4c-1.5-1-2.9 0-2.2.3 .7.4 0 1 0 1Z"/><path d="M376.1 157.3c-2.2-1.4-4.8 1.6-2.3 3.3 2.2 1.5 4.5-1.9 2.3-3.3Z"/><path fill="#FFF" d="M373.3 158.7h.7c-.2.7.5 1.7 1.6 1.5 -.9.6-2.5-.1-2.3-1.5Zm8.8 33.5c.7.2 3 .5 3.8.5l-1 2c-.3.6-.4.7-.4-.2 0-1-.6-1.6-1-.6l-1 1.7c-.2.4-.6.6-.5-.4v-2.9Z"/><path fill="none" stroke="#000" stroke-width="1.1" d="M471.1 219.4c0 57.8-9.2 120.2-84.4 150 -74.8-29.8-84-92.2-84.4-150Zm0 0c0-22-1-43.3-.7-61.7v-.001c-26.68-10.37-55.09-15.56-83.7-15.3 -18.8 0-55.7 2.9-83.7 15.3 .7 18.4-.7 39.7-.7 61.7Z"/><path fill="#012169" d="M0 0h256v256H0Z"/><path fill="#FFF" d="M256 0v32l-95 96 95 93.5V256h-33.5L127 162l-93 94H0v-34l93-93.5L0 37V0h31l96 94 93-94Z"/><path fill="#C8102E" d="M92 162l5.5 17L21 256H0v-1.5Zm62-6l27 4 75 73.5V256ZM256 0l-96 98 -2-22 75-76ZM0 .5L96.5 95 67 91 0 24.5Z"/><path fill="#FFF" d="M88 0v256h80V0ZM0 88v80h256V88Z"/><path fill="#C8102E" d="M0 104v48h256v-48ZM104 0v256h48V0Z"/></svg>