<svg viewBox="0 0 512 512" xmlns="http://www.w3.org/2000/svg" xmlns:xlink="http://www.w3.org/1999/xlink"><defs><path d="M488533-158734l-790463 574305L.02-513674l301930 929245 -790463-574305Z" id="c"/><path d="M695.3 376.6v0c-1.91 20.9-20.4 36.29-41.3 34.38 -8.42-.77-16.34-4.32-22.51-10.09v0c-8.04 20.28-31 30.2-51.28 22.16 -3.03-1.2-5.89-2.77-8.53-4.67 3.7 36.4 58.3 29 62.3-6.4 17.2 30.1 55 21.5 66-15.4Z" id="a"/><path d="M658.8 441.3c-7.6 16.5-22.8 19.3-36.1 6 0 0 5.3-3.8 11-4.8v0c-.71-5.17.86-10.39 4.3-14.3v0c4.27 2.77 7.45 6.94 9 11.8 8-1 11.8 1.3 11.8 1.3Z" id="b"/></defs><path fill="#060" d="M0 0h512v512H0Z"/><path fill="#FFF" d="M0 0h512v365.7H0Z"/><path fill="#C00" d="M0 0h512v146.3H0Z"/><g transform="matrix(.73143 0 0 .73143-256 0)"><path fill="#F8C300" d="M672 340.7v0c3.47-5.97 11.12-8 17.08-4.53 3.73 2.16 6.07 6.1 6.21 10.42v50h9.4v-50 0c.21-6.91 5.97-12.33 12.87-12.12 4.31.13 8.25 2.48 10.42 6.21v0c5.12-15.47-3.25-32.16-18.72-37.29 -15.47-5.13-32.16 3.24-37.29 18.71 -2 6.02-2 12.54 0 18.57"/><path fill="#FFF" d="M678.7 327.6v0c8.42-1.72 17 2.15 21.3 9.6v0c4.29-7.45 12.87-11.32 21.3-9.6v0c-1.62-11.77-12.47-20-24.23-18.38 -9.56 1.31-17.07 8.82-18.38 18.37"/><g fill="#F8C300"><use xlink:href="#a"/><use transform="matrix(-1 0 0 1 1400 0)" xlink:href="#a"/><use xlink:href="#b"/><use transform="rotate(9.40001 700 804)" xlink:href="#b"/><use transform="rotate(18.7 700 804)" xlink:href="#b"/></g><path fill="none" stroke="#F8C300" stroke-width="16" d="M603 478v0c63.29-18.85 130.7-18.85 194 0"/><g transform="translate(700 380)"><g transform="translate(0-140)"><use fill="#F8C300" transform="scale(5e-05)" xlink:href="#c"/></g><g transform="translate(-70-121.2)"><use fill="#F8C300" transform="scale(5e-05)" xlink:href="#c"/></g><g transform="translate(-121.2-70)"><use fill="#F8C300" transform="scale(5e-05)" xlink:href="#c"/></g><g transform="translate(-140 0)"><use fill="#F8C300" transform="scale(5e-05)" xlink:href="#c"/></g><g transform="scale(-1 1)"><g transform="translate(-70-121.2)"><use fill="#F8C300" transform="scale(5e-05)" xlink:href="#c"/></g><g transform="translate(-121.2-70)"><use fill="#F8C300" transform="scale(5e-05)" xlink:href="#c"/></g><g transform="translate(-140 0)"><use fill="#F8C300" transform="scale(5e-05)" xlink:href="#c"/></g></g></g></g></svg>