<svg viewBox="0 0 512 512" xmlns="http://www.w3.org/2000/svg" xmlns:xlink="http://www.w3.org/1999/xlink"><defs><path d="M663.9 587h-.001c-2.91 3.14-6.09 6.02-9.5 8.6 -21.2-22-46.2-46.2-69.9-46.2 -14.7 0-25.2 11.2-37.6 19 -17.1 11-40.6 17.2-60.7 9.1v0c-11.37-3.9-21.47-10.81-29.2-20h-.001c17.26 10.76 38.63 12.62 57.5 5 19.7-8.2 39.9-19.1 62.4-19.1 33.2 0 64.8 22.5 87 43.6Zm-245.6-69c22 25 57.9 17 87.2 23.2 4.1 1 8 2.3 12.4 1.6 -3.5-2.2-8.2-2.5-12.2-4 -22.8-8.6-26.3-33-38.8-49.7 16 10.6 29.1 25 44 38.7v0c10.5 8.68 23.2 14.29 36.7 16.2 -3.2 1.2-7.4 1-11 1.8 -24 6-50.6 15.4-76.2 7v0c-17.86-5.96-32.84-18.37-42-34.8Zm-35.2-58c13.7 31.1 48.2 33.6 71 52.6v0c4.08 3.63 8.62 6.72 13.5 9.2l.3-.2v0c-5.64-4.92-10.71-10.45-15.1-16.5 -13.1-19-8.8-45-18.9-65.2h-.001c9.38 10.42 17.16 22.18 23.1 34.9 8.5 20.2 11.4 43.3 30.5 58.7 -20.7-6.8-44.5-5.5-63-17.6 -19.6-12.8-37.7-33-41.4-55.8Zm-14.7-62.8c2 27.4 31 42 45 64.5 3 4.8 6 9.8 10.3 13.6 -.7-2.9-3-5.5-4.4-8.3h-.001c-4.6-10.11-6.42-21.26-5.3-32.3 1.3-14 7.1-27 4.9-41.7 12 25.9 8.1 58.2 15 86.1 1.6 6.2 5.3 11.6 7.6 17.5 -11.7-9-27.1-17-40-27v0c-12.87-9.25-22.91-21.89-29-36.5h-.001c-3.93-11.54-5.33-23.78-4.1-35.9Zm.8-50.4c1.4-6.1 2.5-12.4 5.1-18 -5 25.8 12.2 44.4 18 66.8 2.2 8.4 3 17.3 6.4 25.2 .3.1.6-.2.8-.4 -8.5-23.8 4-45.8 16-64.5v0c2.94-5.14 5.03-10.71 6.2-16.5 1.3 10.8-1 23.2-3 34.3 -2.5 14.3-7.4 27.7-11.3 41.5h0c-2.12 8.99-2.29 18.33-.5 27.4l-1.3-1c-9-16.6-26.8-29.6-32.1-47.8h0c-5.07-15.12-6.54-31.22-4.3-47Zm9.5-27.8v0c.32-18.37 7.04-36.05 19-50 .3-.2.6-.5 1-.4 -12.6 19-1.1 43.2-2.8 64.9l-1.6 22.2c.2.2.2.9.8.6 .8-2.5 1-5.1 1.4-7.7 3-18 18.8-30.4 32.1-43v0c3.07-2.91 5.46-6.46 7-10.4 -1.1 9-3.6 18.1-7.6 26.2 -10.3 20.8-30.1 37.6-33.7 61.3 -1.7-22.7-15.6-39.6-15.6-63.7Zm33-65.9v0c5.74-6.92 13.39-11.99 22-14.6 -16.5 11.3-15.6 31.4-20.6 48.2 -1.8 6.1-4.5 11.9-6 18.2l.5.4v0c2.94-7.57 7.56-14.37 13.5-19.9 11.5-10.8 28.8-17.4 34.5-33.3 -.3 22.1-19.1 38.9-36.3 51.9v0c-7.66 5.77-13.89 13.23-18.2 21.8 .6-6 1-11.2.4-17.1 -1.8-19.3-3-41 10.3-55.6Zm66.5-37.1c-12.1 10.7-20.2 24.4-29.6 36.7 -7.7 10.3-18.4 16.6-27.5 25.2 5-10.2 5.8-22 12.1-31.9 10.7-17 28.5-23.6 45-30Z" id="a"/></defs><path fill="#4B92DB" fill-rule="evenodd" d="M0 0h512v512H0Z"/><g transform="matrix(.64 0 0 .64-128.7 0)"><g fill="#FFF"><use xlink:href="#a"/><use transform="matrix(-1 0 0 1 1202.2 0)" xlink:href="#a"/></g></g><g fill="#FFF"><path d="M351 279.5l-2.4-1.3v0c-4.84 9.99-11.26 19.14-19 27.1l-13.4-13.4v0c6.5-6.71 11.84-14.45 15.8-22.9l-2.3-1.2v0c-3.84 8.19-9.01 15.69-15.3 22.2l-12.2-12.2v0c5.16-5.34 9.35-11.53 12.4-18.3l-2.3-1.2v0c-2.92 6.54-6.94 12.53-11.9 17.7L287 262.7v0c3.69-3.92 6.61-8.5 8.6-13.5l-2.3-1.2v0c-1.86 4.77-4.61 9.15-8.1 12.9L273 248.7v0c3.48-3.87 5.53-8.81 5.8-14H296l-.001-.001c-.14 4.55-1.05 9.05-2.7 13.3l2.3 1.2v0c1.82-4.59 2.84-9.47 3-14.4h19v-.001c-.18 8.14-1.99 16.16-5.3 23.6l2.3 1.2v0c3.48-7.85 5.35-16.32 5.5-24.9h17.2v0c-.15 11.48-2.74 22.79-7.6 33.2l2.3 1.2c5-10.6 7.7-22.3 7.9-34.4h19l-.001-.001c-.19 15.08-3.71 29.93-10.3 43.5l2.3 1.3v0c6.97-14.34 10.6-30.07 10.6-46 0-13.8-2.7-27.2-7.7-39.6l-2.3 1c4.7 11.7 7.2 24.3 7.4 37.3h-19v0c-.18-10.19-2.21-20.25-6-29.7l-2.3 1v0c3.62 9.14 5.55 18.86 5.7 28.7h-17.2v0c-.13-7.53-1.59-14.98-4.3-22l-2.3 1v-.001c2.54 6.71 3.9 13.82 4 21h-19v0c-.11-4.58-.96-9.1-2.5-13.4l-2.4 1v0c1.45 3.98 2.26 8.16 2.4 12.4h-17.2l-.001 0c-.27-5.2-2.32-10.14-5.8-14l12.2-12.1v0c3.73 3.93 6.63 8.6 8.5 13.7l2.3-1v0c-1.99-5.4-5.05-10.33-9-14.5l13.4-13.5v0c5.65 5.89 10.07 12.86 13 20.5l2.4-1v0c-3.08-7.94-7.7-15.18-13.6-21.3l12.2-12.1v0c7.42 7.64 13.27 16.68 17.2 26.6l2.4-1v0c-4.08-10.22-10.13-19.53-17.8-27.4l13.5-13.5 0-.001c9.37 9.57 16.77 20.88 21.8 33.3l2.3-1h-.001c-5.31-13.11-13.2-25.02-23.2-35v-.001c-10.04-10.07-22.02-18-35.2-23.3l-1 2.4h-.001c12.48 5 23.87 12.4 33.5 21.8l-13.5 13.5v0c-7.75-7.55-16.89-13.53-26.9-17.6l-1 2.4v0c9.71 3.92 18.58 9.7 26.1 17l-12.2 12.2v0c-5.81-5.64-12.63-10.11-20.1-13.2l-1 2.4v0c7.17 2.94 13.71 7.21 19.3 12.6l-13.4 13.4v0c-3.74-3.52-8.07-6.33-12.8-8.3l-1 2.4v0c4.42 1.82 8.49 4.43 12 7.7l-12.2 12.2v0c-3.87-3.49-8.81-5.54-14-5.8v-17.2 -.001c4.91.11 9.75 1.12 14.3 3l1-2.3v0c-4.83-2.03-9.98-3.15-15.2-3.3v-19 0c7.55.16 15.01 1.72 22 4.6l1-2.4v0c-7.32-2.98-15.11-4.57-23-4.7v-17.4 0c10.05.16 19.98 2.2 29.3 6l1-2.4v-.001c-9.64-3.9-19.91-5.97-30.3-6.1v-19c13 .1 25.5 2.7 37.2 7.4l1-2.4h0c-12.57-5.02-25.98-7.57-39.5-7.5v0c-16.4-.01-32.56 3.82-47.2 11.2l1.2 2.2v0c13.88-6.95 29.17-10.64 44.7-10.8v19h0c-12.47.17-24.74 3.14-35.9 8.7l1.2 2.2v0c10.79-5.36 22.65-8.23 34.7-8.4v17.3 0c-9.26.16-18.38 2.35-26.7 6.4l1.1 2.2h-.001c7.99-3.87 16.72-5.95 25.6-6.1v19h0c-5.79.17-11.47 1.53-16.7 4l1.1 2.2h0c4.89-2.28 10.2-3.54 15.6-3.7v17.3c-2.7.1-5.2.8-7.6 1.8l1.2 2.2v0c2.44-1 5.05-1.51 7.7-1.5v0c5.37.01 10.52 2.17 14.3 6v0c3.82 3.77 5.98 8.92 6 14.3 0 11.1-9.1 20.3-20.3 20.3v0c-5.42.02-10.61-2.15-14.4-6v0c-3.79-3.8-5.91-8.94-5.9-14.3 0-5.5 2.1-10.6 6-14.4v0c1.88-1.89 4.13-3.39 6.6-4.4l-1.2-2.3h0c-2.31.97-4.44 2.32-6.3 4l-12.2-12.1v0c3.05-2.98 6.56-5.44 10.4-7.3l-1-2h0c-4.12 1.92-7.9 4.48-11.2 7.6l-13.5-13.6v0c4.65-4.48 9.98-8.19 15.8-11l-1.1-2.2v0c-6.04 2.95-11.57 6.83-16.4 11.5l-12.2-12.3h-.001c6.06-5.91 13.01-10.84 20.6-14.6l-1.2-2.2h-.001c-7.8 3.87-14.96 8.93-21.2 15l-13.5-13.5v0c7.62-7.44 16.36-13.65 25.9-18.4l-1.2-2.2v0c-20.55 10.34-37.19 27.08-47.4 47.7l2.2 1.2v0c4.79-9.77 11.1-18.71 18.7-26.5l13.5 13.5h-.001c-6.29 6.49-11.49 13.95-15.4 22.1l2.2 1.2v0c3.8-7.94 8.87-15.2 15-21.5l12.2 12.2v0c-4.95 5.12-9 11.04-12 17.5l2.2 1.2h0c2.85-6.28 6.74-12.02 11.5-17l13.5 13.5h-.001c-3.46 3.68-6.24 7.94-8.2 12.6l2.2 1.2v0c1.85-4.44 4.49-8.51 7.8-12l12.2 12.2h0c-3.46 3.83-5.51 8.74-5.8 13.9h-17.2v0c.13-4.85 1.15-9.63 3-14.1l-2.2-1.2v0c-2.08 4.84-3.23 10.03-3.4 15.3h-19 0c.16-8.44 2.07-16.74 5.6-24.4l-2.2-1.2v0c-3.76 8.02-5.81 16.74-6 25.6h-17.2v0c.19-11.72 2.92-23.25 8-33.8l-2.2-1.2h0c-5.29 10.92-8.12 22.86-8.3 35h-19v0c.17-15.27 3.76-30.3 10.5-44l-2.2-1.3v0c-7.18 14.48-10.91 30.43-10.9 46.6v0c.01 10.05 1.46 20.05 4.3 29.7l2.5-.6v0c-2.68-9.07-4.09-18.46-4.2-27.9h19 0c.1 7.86 1.31 15.67 3.6 23.2l2.5-.6v0c-2.23-7.34-3.41-14.94-3.5-22.6h17.2v0c.1 6.24 1.11 12.44 3 18.4l2.5-.6v0c-1.87-5.76-2.88-11.76-3-17.8h19 0c.14 4.47.98 8.89 2.5 13.1l2.5-.6 -.001 0c-1.47-4.02-2.28-8.24-2.4-12.5h17.2v0c.26 5.19 2.31 10.13 5.8 14l-12.2 12.2h-.001c-3.71-3.95-6.56-8.62-8.4-13.7l-2.5.6v0c1.96 5.54 5.06 10.61 9.1 14.9l-13.4 13.4h0c-6.47-6.69-11.32-14.76-14.2-23.6l-2.5.6h0c2.99 9.3 8.09 17.78 14.9 24.8l-12.2 12.2h-.001c-8.99-9.24-15.64-20.48-19.4-32.8l-2.5.6v0c3.85 12.76 10.71 24.42 20 34l-13.3 13.4v-.001c-11.74-11.97-20.36-26.63-25.1-42.7l-2.5.6v0c4.94 16.96 14.09 32.41 26.6 44.9 8.6 8.6 18.5 15.5 29.1 20.6l1.3-2.2h0c-10.28-4.89-19.67-11.45-27.8-19.4l13.5-13.4v0c6.88 6.67 14.87 12.12 23.6 16.1l1.2-2.2v0c-8.52-3.88-16.3-9.19-23-15.7l12.2-12.2h-.001c5.6 5.4 12.14 9.74 19.3 12.8l1.3-2.2v0c-6.98-2.94-13.36-7.15-18.8-12.4l13.4-13.4v0c4.26 3.98 9.29 7.05 14.8 9l1.3-2.2h-.001c-5.32-1.83-10.2-4.76-14.3-8.6l12.2-12.2v0c3.86 3.48 8.8 5.53 14 5.8v17.2h0c-4.09-.12-8.14-.86-12-2.2l-1.2 2.3v0c4.21 1.48 8.63 2.29 13.1 2.4v19 0c-7.73-.14-15.37-1.74-22.5-4.7l-1.3 2.2h-.001c7.53 3.2 15.61 4.94 23.8 5.1v17.2 0c-11.15-.16-22.15-2.61-32.3-7.2l-1.2 2.2h0c10.52 4.82 21.92 7.41 33.5 7.6v19c-15-.2-29.6-3.6-43-10l-1.2 2.3v-.001c14.22 6.84 29.81 10.4 45.6 10.4 16.8 0 33-4 47.5-11.3l-1.2-2.4v0c-13.97 7.06-29.36 10.82-45 11v-19 -.001c12.6-.16 25.01-3.17 36.3-8.8l-1.2-2.3v0c-10.91 5.47-22.91 8.42-35.1 8.6v-17.2 -.001c9.48-.19 18.8-2.48 27.3-6.7l-1.2-2.3h-.001c-8.12 4.07-17.03 6.29-26.1 6.5v-19 0c6.04-.18 11.97-1.65 17.4-4.3l-1.2-2.3v0c-5.06 2.46-10.58 3.82-16.2 4v-17.2 0c5.16-.29 10.06-2.34 13.9-5.8l12.2 12.2v0c-2.95 2.74-6.28 5.04-9.9 6.8l1.2 2.3v-.001c3.84-1.9 7.38-4.36 10.5-7.3l13.4 13.4v0c-4.5 4.31-9.63 7.92-15.2 10.7l1.2 2.3h0c5.8-2.92 11.12-6.69 15.8-11.2l12.2 12.2v0c-5.97 5.76-12.78 10.58-20.2 14.3l1.2 2.3v-.001c7.64-3.85 14.66-8.84 20.8-14.8l13.4 13.4v-.001c-7.53 7.32-16.13 13.46-25.5 18.2l1.2 2.4v0c9.98-5.07 19.09-11.68 27-19.6v-.001c8.34-8.33 15.24-18 20.4-28.6Z"/><path d="M261.4 209v.9h.7v-.8Zm-1-1h1v.7h-1Zm-.7 0v-.7l-.7-.1v.6Zm-1.4-.4l-.7-.1v-.7l.8.1Zm-6.1-.8h.8v.6h-.8ZM251 208v-.6l-.7-.1v.6Zm-.7 1l-.9-.3 .2-.6 .8.2Zm-1.5.7l-.1-.6 .6-.1 .1.6ZM165 275h-.5v1h.9v1.5h.6l-.1-1.7 -.9-.3Zm8.4 9.4l-.4.7 -1.2-1 -.8-1.2 -.4-1 -.8-2 1.6.8 .5 1.5 .8.6ZM195 313l-.8-1.3 1.3.2 1.3 1.2 .6 1.4 -.8.4 -.4-.6 -1-.3Zm57.8-97h-1.2l-.2-2.4 .7-.5V212h-3.8v-1l.5-.4 -.9-.3 -.6.9 -.2 1 -1.1.2v.5h-.8v1.4l-3 2.5 -5.9-.2c-.4 1-1.5-.1-1.5-.1 -.2-.7-1.7 0-1.7 0 0 1.1-2-.6-2-.6l-3.7-2.7c-2.1-2-5.3.6-5.4 1.1 0 1.5-2.5.3-2.5.3s-2.1-.6-2.4.2c-.4.9-1.7.7-1.7.7l-.3.4 -1 .2 -.2.7 -1.3.2 3.2-.1c.8-.1-.3 1.8-.9 1.7l-1.5.1 -.5.6h-1.4l-.6.8h-2s-1.2.9-1.1 1.2c.1.3-.2 1.3-.5 1.3s-1 1-.8 1.3c.2.3-.6 1.4-.6 1.4l-.2 1 -.7.3v3l-1.2.8v1.3l-2 2 .3 1.8 -1.6 1.7 .2 1.7 -1 .3 -.2.8 -.4 2.3h1c.6-.1.5 1.5 0 1.7 -.4.2-1.6.6-1 1 .7.5-1.6.4-1.6-.3 0-.6-1.3-1.1-1.6-1 -.3.3-.9-.9-.9-.9 -1.1-1.2-4.7.1-4.7.1l-.6 1.7c-1.2.3-1.9 2.2-1.9 2.2 -1 .3-1.7 1.5-1.4 1.8 .3.4-.5.5-.5.5v2.3l-.5.8v2.6c.7 0 .6 1.2.6 1.2 -1 0-.9 1.5-.9 1.5l-2.2.7 -.4.7 -2.8-.1 -.7.7 -.8-.7h-5.3l-.2-.6 -1-.2 -.2-1.2 -1.6.1 -.3.7h-1.7c.1 1.2-1.7 2.8-2 2.4 -.1-.5-1.3-1.6-.8-1.9l2-.4v-.8h-4l-.4.6H161v1.8l-.7.2c-.6.4 0 1.5 0 1.5 .8.8 0 2 0 2 -.7.6.5 1.8.5 1.8 .8.2-.5.9-.5.9 .2 1 .8 1.4.8 1.4 -.6 1 .4 1.6.4 1.6l.1 1.8 .8.5v1.2l.4.7h1.7l-.1-2.7c-1.5-1.7 1.3-2.1 1.4-1.5 0 .7 1.3 1 1.3 1 .2 1.6 2 2.6 2.5 1 .5-1.7 1-.7 1.3 0 .3.8 2.3 2.7 2.3 2.7h1.6l.2 1.5c1.8-.1 2.4 0 3.1 2.6v0c.42 1.37 1.45 2.48 2.8 3h1.5c0-1.3 1.5.2 1.5.9 0 .6 2.8 3 2.8 3l3 .7 2.6 2.2 2-.2h.9c.5-1.9 3 0 3.3.7 .2.7 1.9 1.8 2 1.2 .3-.5 1.5-.2 1.7 1.4 .2 1.6 1 1.3 1 1.3h6l2.1-2h5.4c2.8-.1 1.1-4 .6-4 -1-.7.3-3.8.3-3.8l-7.8-7.2c-1.8 0-.2-2.7-.2-2.7 1.4-.8-.3-2.2-.3-2.2 .2-1.3-.7-2.8-.7-2.8 -2-1.3-1.4-3.8-1.4-3.8v-1.7c-1.6-1.5.6-1.8.6-1.8 .8-1.3-.5-2.2-.5-2.2l-.1-1.4 -1.7-.2 -.2-5.1 -3.9-5.5c-.7-.2-.2-1.5-.2-1.5 1-.6-.2-1.9-.2-1.9l-.1-2.3 2.2-.3 .6-.8h1v-2.8c.4-1.4 1.7-.7 1.7-.7l1.5.1 .9-1.6 .2-1.3h-1.2c-1.3-.9-.6-3.7-.6-3.7 2-3 4.3-1.3 4.3-1.3h1.5c2.3 1.4.2 4.3.2 4.3 -.4.6-.2 2.7-.2 2.7l.6 3.4 -1.4 1.2c-1.2.6-1.2 2.2 0 2.5 1 0 .6 2.1-.7.7 -1.9 0 1 1.8.2 1.3 2 1 1.5-.8 1.5-.8l2.6-2c1-.8 2.6 1.5 2.6 1.9 0 .3 4.3 0 4.3 0 1.2.8 1.6 2.8 1.6 2.8 1.2-1.5 3.6-.1 1.8.7 1.7 1.1 1.7 2 1.7 2 1.4-.4 1.4.7 1.4 1l.4-1.6c-1.6-1.2 2.1-1.6 1 .6l-.6 1 1.1.8 .1 2.5c2.4-.2 1.7-3.1 1.7-3.1l1-.3c0-1 .8-.4.8-.4 -.7-3.7 1.7-4.3 1.7-4.3 1.4-.3 1.5-3.3 1.5-3.3 -1-.4-.4-1.9.7-.6 1 1.3-.7-2.6-.7-2.6l-.8-.7 -1.2-.2 -.1-1.1h-2l-.2 1.5 -.8.2 -.2-.4 -.3 1.1h-2v-1.3l1.1-.3 .5-.6 .3-1.8h1.4l1.8-.5c0-1.8 1-1.4 1-1.4l.7.5 1 .8v.6l-.6.4 -.1.8 .3 1.2h.9c.3-1.7 2.5-1.7 3.2-.6l.6-1.5c-1.5-.8 0-2 .4-1.4 .4.5 1.4-1.4 1.4-1.4s.7 1 0-.4c-.8-1.3.5-2 .5-2 -.2-1.2 1.4-1 1.4-1l.1-1.7 -1.5-.1c-.3 1.5-1.6.2-1-.1 .6-.3 1.3-1 1.3-1v-1l.7-.3v-1h1.7l1.4-.7 .3-.6h1.5l2.1-2 -.2-.9c-1.3 0 0-1 0-1l.2-1.6Z"/><path d="M209.8 237.4l-1.9-.2 .1.8h.6c.8 1.5 0 5.1 0 5.1s-1.2.1-1.4-.5c-.2-.7-.8 1.4-.3 1.7 .4.3 1.9 0 2 1.2 0 1.2 1-.7 1-.7v-7.4Z"/><path d="M210.3 249.5l.2-1 -.8-.3 .1-1.6 .7-.1v-.8l-1.5 1.1 -1-.6v2.6l1.6 2.2Zm.4 2.8l-.8.1v.9h.8Zm-1 5.5l-.9.1v.8l1-.1Zm1.3-2.6c.2 0 .4-.1.4-.4 0-.3-.2-.5-.4-.5s-.5.2-.5.5c0 .2.2.4.5.4Z"/><path d="M211.7 256.6a.5.5 0 1 0 0 1 .5.5 0 1 0 0-1Z"/><path d="M211.7 244.2a.5.5 0 1 0 0 1 .5.5 0 1 0 0-1Z"/><path d="M241.5 241.4l.3-1 .6-.4v-1l.5-.8 .7-.8 .2-.9 1-.6 1.3-.2 .5-.7 .3-1.3v-1l.5-.6 1.3-.5v-2h-.7v-.8l-1.2-.1 -.3.5h-.5l-.1.9h.6l.1.6 -.4.4 -.2.6 -.8.2 -2 1.8v.9l-.6.8 -.6 1.6h-2.3l-.4 2 .3 1.6Zm9.4-5.3v-1.5l-.2-1.4 -1.6-.8 -1.2 1.1 -.2 1.5v1l-1 .2 -.3 3 -.8.3v1l-1 .4 -1.3.3 -.2 1.4 -.8.5 -.4 1.3 -.6 3.2s1 1.8 1.5 1h-.001c.29-.53.8-.9 1.4-1l.3-.8 2.9.1c.2-1.2 1.6-.7 1.6-.2 0 .5 1 .1 1 .1l.8-1.2h1.2v-1.3l.6-.3v-2c1.7-.5 1.5-2.1 1.5-2.1l.4-.5 -.2-.8c-.9-.3-.4-1 .1-.9 .5.3-.7-1-.7-1 -.7.6-1.2-.6-1.2-.6h-1.6Zm1.7 13c-.1 1.4-1.7 1.8-1.7 1.8l-1.2-.3 -.6-.6 -.1-1.5h1l.1.6h2.5Zm5.7-6.8c.3 1 .2-1.5.7-1.4 .4 0 0-1.5 0-1.5l-1.8 1.4c1 0 1 1 1.1 1.5Zm5.7-5.7c.4 1 .3 2.4 1.9 3.5 .5.4-.3 1-.9.8 -.5-.4-2-2.7-2-2.7v-1.4c.3-.9.8-.6 1-.1Zm1.4 32.6l-.7-.3 -.7.6 .3.3 .3.5Zm-4-1.5v1.4m16.2-3.5l-.4-.5 -.8.5 .3.6Zm29.9 23.1l1 .4v1.9c1.3 1.3 5.5.2 5.5-.1l-.2-4 -.6-.6v-2.7c.4-1.4-2-3.4-2.3-3 -.2.4-1.6.1-1.6.5 0 .5-.9 2.6-.4 3.4 .4.7-.3.7-.5 1.5 0 .8-1.1 2-1 2.7Zm-2.4-4.3c-.2.8-.9 1.3-1.3 1 -.5-.4.5.5.7 1v0c.18.27.55.35.83.16 .06-.05.12-.11.16-.17 .3-.5.2-1.5.4-2 .2-.3-.6-.4-.8 0Zm-4.9-19.8h.7v2h-.7Zm11-20.8c-.5-.6 2.1-1.7 2.6-.4 .4 1.3 0 1-.5 1 -.4-.2-1.5.2-2-.6Zm2.2-13.8l1.2.2v-.7l-1-.2Zm-2.8 1.4l.6-.3 -.2-.5 -.2-.3 -.3.1 -.8.5 -.7-.5 -.3.6 .9.5 .1.1h.2l.6-.4Zm4-26.5h-1.7s.5.2-1-1.2 -2.4.3-2.4.3l-1.7.3v1.7l-.8.3v1h1.2s0 1.3.4.7c.4-.6 3 .1 2.7 1.4 0 .6 2.7 2 2.4 3.7 1.3.2 1 1.6 1 1.6l1.8.3 .6-1.1h.5v-.6l-1.2-.3 -.2-3.4 -.7-.6 .2-.8 -.9-.4 .5-1.4 -.8-1.5Zm4.6 11h-.9l-1.9.2 -1 2s.5.4 1 1.2c.3.7.6 5.2-.7 6 -1.3.7 0 .2 0 .2l-.1 2.4c.3 1 .8.6 1.1 0 .4-.5.7-.6 1.1-1.2v0c.55-.64.96-1.39 1.2-2.2 0-.8.6-2 .3-2.3 -.3-.3.3-1.8.3-1.8s.4-1 0-1.8 .1-1.8.4-2.2l-.8-.5Zm1.3 4.4v-.8h.7v1Zm0 3l-.6-.3 .3-.6 .6.3Zm-1-8.6l-.4-1s0-.8.2-1.2c.2-.5-.4-.9-.8-1 -.3-.1-.2-1-.3-1.4 0-.4-.8-.8-.8-.8l-.2-1.9c0-.3-1-.8-.7-1l.9-1c.3-.3-.3-1.8.2-1.5 .5.4.5 1 .7 1.3 .2.5 0 2 .5 2.3 .5.3-.1 1.4.7 1.4 .9 0 .3 2 .3 2s-.2 1.6.3 1.7c.6 0 .3 2.7.3 2.7l-.9-.6Zm-6.9-17.5c.3.5 1 .8 1 1.2 0 .5-.3.8.4.9 .6.1 1-.1 1.3.4h-.001c.2.61.2 1.28 0 1.9 0 .4.2 1 .7 1 .5 0 .6.2.6.5s.7-1.2.7-1.2c-.6-.4-1-1.4-1-1.4l-.5-1.7c0-.3-.7-.5-1-.6 -.4 0-1-1-1-1h-1.2Zm1-1v-.001c-.27-.38-.61-.68-1-.9 -.4-.2-.7-.4-1.2-.4v-.001c-.39-.02-.69-.35-.67-.74 0-.1.02-.19.06-.27 .2-.5-.3-.8-.3-1.2 0-.4.3-.4.8 0 .6.2.5.3.9.9 .4.5.6 1 1 1 .5-.2.8 1 1.2.6 .4-.3.3.8.3.8l-1 .3Zm-12.4 12.3c.6.6-3.2.4-3.2 0s.4-2 1.3-1.7c1 .4 1-1.9 1-1.9s-.8.1 0-.3c.7-.4 0-1-.4-1.4l-.6-.9h1.5c.6-.4.8-2.5.8-2.5 1.3.5 2-.4 2-.4s.2.7.6 1.2c.4.5-1 .8-.5 1 .5.4.7 1.4.5 1.7 -.2.3-1.4 0-1.4-.3 0-.5-.4.5 0 1 .4.6-.5 1.4-.7 1.4 -.2 0-1.6.2-.5.8 1.2.7 2.5.3 2.5.3s1 0 1.3.5c.3.5-.1.6-.7.6l-3-.2s-.8.8-.5 1Zm-6.8 1c.5-.2 1.8-.3 2 0 .2.4-.7.8-.7.8l-1.3.2c-.4-.5-.5-1 0-1Zm13.7-9.1c.9-.5 2.7-.5 2.6-1.1 -.1-.7 1-.9 1-.9l.4 1.3 1 .7v1.2s.4-.2-.8 0c-1.2.4-.4 1-.4 1h-2.6l-.3-1 -.9-1.2Zm-4.1-5.9c.6 0-.2 2.5 1.5 2.3 1.7-.2 0 .8 1.4.9 1.2 0 1-1 1.3-1.8 .5-.7.3-1.1-.5-1.4 -.7-.2-.7-.2-1-1 -.2-.9-1-1.1-1-1.1l-.3-1.3 -1.4.9 -1.4 1.8c0 1.4.7.7 1.4.7Zm2.8 9.2l.3-.7 .6.3 -.3.7Zm-1.1-1h.6v.7h-.6Zm.5-14.4l.1 1h-.6l-.1-1Zm-1.8 10h.7v.6h-.7Zm-1.7 0v-.6l1-.1 .1.6Zm-8.7 10.4l-.6-.3 .3-.7 .6.2Zm-3.4-2v-.6l1-.1v.6Zm-20.8 0v.6l2.4-.1v-.7Zm-1.5.8l-.2-1 .6-.1 .2 1Zm-.5.6l-.2-.6h.3l.2.5Zm5.3-1.8v.8h1s.6.5.6.8c0 .3.8.7 1.2.7 .4 0 1.6-.9 1.6-.9s.5-1.5 0-1.4c-.3.1-1.2.8-1.3.1 0-.6-1.4-.3-1.4-.3l-1.7.2Zm5.3-1.2c0 .4-.2.8.5.9 .6 0 1.8-.4 1.9.2 0 .7 0 1 1 1.4v0c.63.26 1.31.4 2 .4l2-.2s1.5.3 1.8.6c1.2 1.2 2 1.5 2.2 1 .4-.6 0-1.8-.2-2.2 0-.4-1.6-2.5-2.1-2 -.5.4-.6 0-1.6.3s-3 0-3-.4c-.2-.4-1.7-.6-1.7-1 0-.5-1-1-1-.4 .2.7-.7 1-1 .8 -.1-.2-.8.6-.8.6Zm24.5-13.8l.8-2.4c-1.1-.2-.9-1.4-.9-1.4 0-1-1.6-2-2.1-1.7 -.5.3-.3-2.3-.3-2.3s1-.6 1.4-.3c.4.3-3.7-5.4-4.5-4.9 -.9.6-2.8-.5-2.7-1.5 .1-1-3.8-4.2-3.8-4.2s-1.3-.8-1.5-.2c-.2.6-.6 1 0 1.4 .6.3.5-.5 1.3.2 .7.8 2.1 1.7 1.6 2.4 -.6.6-1.2.9-1.2.9l.8.8h1.1l.2 1.9s1.3.6 1.6 1.4c.4.7.4 1.2 0 1.6 -.3.4-1 1.2-.8 2 0 .7 1 1 1 1l.8.1 .6.3v1.4c.9-.2 2.3 1 2.2 1.8 -.1.7.2.3 1.2 1 1 .8.8 1 1.5 1.5 .8.5 1.4.2 1.7-.8Z"/><path d="M285.4 176.6c-.1-.4-.4-2 .3-1.8 .6 0 .2 0 1 .3 .7.3.8-.5.8-.5h1.2l1.5 1.2 -.3 1h-1c-.6-.8-1.6-.5-1.4.3 .2.7-.5 2.1-1 2.2 -.4.1-1.8.1-1.7-.5l.6-2.2Zm-.9-2.9v-.9s0-.8-.6-.8 -1.5-.7-1.3-1.1c.2-.4-1.8-.9-1.8-.9s-1.8-1.7-1.2-1.5c.7.2.3-.7.3-.7s-1.2.2-1.6 0c-.3 0-.2-1-.2-1s-1.3-.3-1.3 0 .5.3.7 1c.2.6 0 1.7 1 2 1 .1 1.2.3 1.3.8 .1.4 1.3.5 1.3.5l.9.4 2.5 2.2Zm-11.8-11.9l-.8-.2v1h1.1Zm0-3.6c-1.1-.9 1.5.6 1.5.6 .8 0 1.4.7 1.4 1 0 .3 1.1.2 1.1.2l.2-.8 -.9-1 -.7-.6s-1.2 0-1.2-.4c0-.3-1 1.3-1.4 1Zm19.6.6c-.3 1-.5 2.3-1 2.3s-.3 1.4-.3 1.4h1.8c.4.2.4 1.3.4 1.3 1.6-.1 2.3 2 2 2.6 -.1.5.7.5.7.5s0 1.7-.2 2.2c-.2.4 1.4.7 1.8 1.4 .4.6-.2 2.8-.5 2.9 -.4 0 .8.4.7 1 -.1.5.3 0 .4.8l.4 2.7 1.4.1c.3-1.4 3-1.4 3.4-1.3 1.9.7 3.2 3.5 3.2 4.1 0 .7-1.1.8-1.1.8l.2 3.1c1.8.6 3.3 3.2 3 3.6 -.2.4 1.3.3 1.3.3 .2-2 2-1.3 2.2-.6 0 .6.4 2 .4 2l.5 1 .8.7h1.1l.3.6 1.4.2s1.2 1.3 1.3 1.6c.1.3 1.7.2 2.1.3 .5.1 1.1.5 1.2 1 .1.6.8 1.4.8 1.4s1.2.3 1.3.8l.7 1.4 1 .8 .1 1 1.2.1 .3 1.3h2l1-.8c1.4-.8 2.4-1.8 2.5-2.2 0-.4.3-2 1.3-1.7 1.1.3.4-2.4.4-2.4s-1.5-1-1.4-1.6c0-.6-1.5-1.6-1.4-2 .1-.5-1.4-1.4-1.3-1.8 .1-.4-.7-1.6-.7-1.6l-1.6-1.5 -.2-1 -1.3-.1 -2.6-3.1 .1-1h-.7v-1.2l-.7-.4 -1.2-.1 -2.4-2.6 -.2-1.2h-1.1l.2-2.3c.7-1 .3-2.8.3-2.8s-1.5.8-2.2.4c-.8-.3.3-1 .3-1v-1l-.7-.6s-1.8.3-1.9 0l-.4-1.8 -.1-1.8 -.8-.4v-.6h-1.2v-1.2l-.7-.2 -.6-.3 -.1-1.3 -2.4-.1 -.7-1.1 -.9-1.3 -2.6-.2 -.7-.7 -1-.2 -.8-.3 -.3.5 -2 .1 -.1.7c-1 .5-5.3 0-5.4.4Zm11.1-2.8c-.1-.8 2.2-1.6 2.7-1 .5.7 2 .8 2.2 4 .1 1.2-1.9-1.2-1.9-1.2l-1.6-.5c-.8-.2-1.3-.8-1.4-1.3Zm-31.1 1.3l-.6-.2 .4-1 .6.3Zm-5.6-10.6l-1.3-1.4v-1.2l-.5-.4 -.4-1.5 -1.4-.4 -1.4.5 -1.4 1 -1.7.2 -.8 1 3.4.3 .6 1 2.5.3 1.6 1.6c1.4.4 1.7-.2.8-1Zm-.2-5.3c-.2-1-1.6 1.2-.2 1.6 1.4.5 2.8 0 2.8 0l.3-.6 5.3.1 .7-1s1.2-.5 1.8-.3c.5.2 0-1.5-.5-1.3 -.5.2-1.6.1-1.6.1h-1.9c0-.7-1.8-.4-1.9 0 0 .4-.7.6-.7.6l-2.5.2c-.2.6-1.5 1-1.6.6ZM256 159.6c1.6.6 2.2.2 2.3-.3 .1-.4.2-.5.9-.6 .6-.1-.1-1.4-.7-1.3 -.7.1-1.3-.2-1.4-.8 -.1-.5-1.2-1.9-1.3-.8 -.1 1-.8 1-.7 1.8 .2.8.5 2 .9 2Zm-12.2 1.3c-.1-.4 2.1-.5 2.4-.2 .3.4.1 1 1 1s.6.6.5.9c-.1.3-1.2.2-1.3-.1 0-.4-1.7-.5-1.7-.5s-.8-.6-1-1.1Zm35.3-22.5l-.5-.6 -.5.5 .8.8 .2.2 .2-.2 1-.9 -.3-.5Zm-5.7-3l-.3.5 .8.5 .2.1h.2l1.1-.8 -.3-.6 -1 .7Zm-2.9 22.5h-1l-.1.6h.9l.7 1.1 .5-.3 -.8-1.2v-.1Zm-35 30.2v1.2h1.7c.6 0-.6-.8-.6-.8s-1.2.1-1.1-.4Zm2 0l.4-.5 .6.5 -.4.5Zm-19.4-20.2l.5-.5 .6.7 -.4.5ZM248 306.3l-.3.6 .6.4 -.2.2 .5.4 .5-.5 .3-.3 -.4-.2Zm-7.6-7.7l-.7.5 -.3.3 .4.3 .7.5 .4-.5 -.4-.3 .3-.3Zm79.5-20c-.1-.5-.8-.8-.8-.8l-.2.6 .2.1v.8l.4.4c.3-.4.5-.7.4-1Zm0-2.1v-1l1 .2v.9Zm25.6-8.3c.5-.3 1-.9 1 .3 0 1.3-.6.9-1 1.3s-.6-1.2 0-1.7Zm5.4-4.6v-.2 -.001c0-.21-.04-.41-.1-.6l-.6.2v.5c.1.2.1.4.3.5l.4.1v-.6Zm-1.4.5l.4 1.3 .6-.2v0c-.16-.43-.29-.86-.4-1.3l-.6.2Zm-2.3 2.5h-.6c0 .5 0 1.1.5 1.2l.2-.6 -.1-.5Zm-2.8-12.8v0c-.01-.21-.13-.4-.3-.5 -.5-.2-1.3.1-1.7.4l.3.5c.5-.2 1-.4 1.1-.3l.6-.1Zm-29.5-34.5c-.4.4-1.3.6-1.3.6l-.4 1.2 -.5.4v1.1c-.1.8-1 1.2-1 1.2l-.5.5s-2.5.2-2.9 0c-1-.4-.3-1.7.4-1.6 .6.1-.1-1.8-.1-1.8l.8-.1s.1-2 .4-2c.3 0 0-.6-.5-1 -.4-.3-1-1.3-1.4-1.2h-2.1l-.3.6 -1.2.2s.1.9-.1 1.1c-.6.8-3.1 2.4-2-.3l.3-.6v-1l-2-.1s-.9-.4-.9-.8v-1l-2.3-2.4 -2.7-.4 -.2-.5 -1.6-.2c-2-1-3.6-.1-3.3 1.5 .3 1.6.9 2.3-.2 2.3 -1 0-1.3-1-1.3-1s-.8-.2-.8.2 -.3 1.3 0 1.7c.3.5-.4 1.1-.8.8 -.3-.3-1.1-1.3-1-1.6 .3-.4-1.4-2.4.3-2.7 1.7-.4-.1-1.3.5-1.5l.9-.5h.8l.6-.4 -1.4-.2 -.9-.1 -1.6-.1v0c-.88.52-1.55 1.33-1.9 2.3 -.8 1.7-2.9-.6-2.1-1.5 .7-.8-2.4 0-2.9.4s-2.1.2-2.1.2c-.3 1-1.8-.1-1.4-.8 .4-.6.4-1 .4-1l-.5-.2 -.6 1.2c-1.5 0-2 .9-1.6 1.4 .3.6-.5 0-.7.7 -.2.7.1.7.8 1 .6.4-.4.4 0 .9 .5.5 1.8 0 1 .8 -.7.7-2.2.4-2.2.4 -.1 1-2.1.7-2.3.4v0c-.62-.75-1.26-1.48-1.9-2.2l-2-.1c-.2-1.6 1-.8 1.4-2 .4-1.2.6-3.1.6-3.1s-1.7-.1-1.8.4c0 .5-1.1.9-1.1.9s-.9.3-.6.7c.4.5-.6.7-.6.7s.2.7-.1 1c-.9.8-3 0-3.3-.3l-1.3-.5 -1.3-.9 -1.5.7 -.4.4H253v1.3l2.8.3 .2 2.7 -1.2-.4h-.7l-.3-.7h-.7v2.3l.7.5 .5.6h1l.3 1.4h2.6l.4.6 1.6.1 3 3.2 -.2 1 -.5.3c.2.7-1.4.3-1.4.3v.6l.8.1 .7.5 1-1.9c1.2-.7 1.8.4 1.9 1 0 .7-.6.6-.6.6v1.5l.7.2c1 1.3-.4 2-.4 2l-.4 1.1c-.3 1-1.5.8-1.5.8l-.4.6 -1.3.3 2.6.4c.2-.9.8-1.1 1.2-.7 .3.4.3 1.2.3 1.2l.6.1v1.2l.6.2v3.5l.7.8c1.3-.5 1.3.4.6.8 -.7.4-.2 2.4-.2 2.4l-.5.5v.9l-.6.4v1.2c-1.1-.6-2.4-.3-2.7 0 -1-.7-3-.4-3 .1 .7.9-.7 1-.7 1l-.8 1c.6 1-.5 1.1-.5 1.1v2l-1.3 1.3 .1 2.8c0 .7 1.6.8 2 .4 .3-.4 1.5.9 1.5.9h1l.2-2 -.6-.3v-3.1l1-1.2c1.3-.5.9 2.8.9 3.1 0 1.2.6 1.1 1.2.9 1-.5.2 1.2-.7 1 -.8 0-.3 1.1-.3 1.1l.5.3 -1 .7 -.8 1 -1-.3 -1.3-.1 -.4-.8 -.8-.1 -.1 1.5 -.5.7 -1.3 1.3c1.7 0-.2 1.1-.6 1.1 1 .4-.1 1.3-2.6.6v.7l-.9.1 .8.9 .8.1 -.3 1.8c0 1.4-3.5.5-3.8.1l-.1 2h-.6v3.2l1.1-.2v.8h2.9l4.1-4.3 2.5-.6c.2-1 1.3.2 1.3.2 1 0 1.2.7 1.2.7l1.4.2c1.2.3.5.4.6.9 0 .6.6.4.6.4l.2-1.4h.7l-.7-.7 -1.2-.5 -1.2-.5c-.9-1.2.2-1 1-1h1.4s1.6 2.3 1.6 2.8 .8.6.8.6h.9l.3.7h1l.3.6h2v-1l-1.8-.3v-1l-1.4-.4c-.4-1.8.4-2.3.9-1.5l.6.1 -.2-1.6 .8-.2 -.3-2.3 -.6-.2v-.7h2.7c-.2-1.3 0-2 0-2h.8l.1.6 3.3.3 2.3-2.7c-.1-.2.2-.3 0-.6 -.4-.3-.8 0-1.3-.3 -.6-.3 0-2.1-.1-2.6 -.1-.4 1.8-1 1.5 0 -.4.9 0 1.3 0 1.3 1.3-1.3 2.5.1 2.4.5 -.1.3.7.6 1.3.3 .5-.3 1.2 1 1 1.6 -.3.6-2.2.5-2.3-.1 -.1-.7-.4-.4-.6-.1 -.2.3-1.2.5-1.7.2v0c-.09-.05-.16-.12-.2-.2l-2.3 2.7h.1c1.3.7.7 1.7.2 2l-1.1.1 -.2.5 -2.8.2 -.2 1c-1.4-.1-2 1.4-1.6 2.1 .3.8 0 1.4 0 1.4l1.1.6 1.5-.5c.2-1 1.2-1.3 2-2 .9-.6 2.3 1.3 1.9 2.1 -.5.9-.5 1.2-.5 1.2l.1 1 -1 .4 -.9.5v.5h-3l-.5.5 -1.4.1 -.4.7 -1 .1s-1.5.8-.9 1.6c.6.9-2.7.8-3.4-.4 -.2 1-1.4 0-1.4 0l-1.2-.2v-1.6c-.3-1.1-2.3-1.1-2.2-.4 .1.8-3.8.4-3.8.4l-1.3.6 -1.2.7v.5l-2 .2 -.8.4 -.4-.6h-.8l-.9 1.2c-2.2 0-4.3 1.4-4.1 2 .2.5-.9 1-.9 1l-1 .3 -.6 1 -1.2.4 -.2 2.3 -.7.4v1l-.7.2v.6h-1.1l.6 1.7 .9.4c1.5.2.8 2 .8 2l.9.2 .4 1.2 .9 1.7c.3 1.3 1.3 1 1.7.9 .4-.1.8 1.3.8 1.3h4.3s-.2.5.5.7c.8.2 5.7.4 5.9.1 -.2-1 2.6-1.2 3.8-.3 1.2.9 2.8.3 2.8.3l1.6 2 1 2.3 1.8.6 1.3.3 .4 1.8 1 .1 .3 1.2c1.2.9-.3 2.7-.3 2.7v2.4l.8.4v.9l1.3 1.4 1.6.1 4 4.3 3.3 1 .5 1.7h.8l.7-.6 2.5-.1 1.3-1.2 1.4-.2 11.8-10 -1-.7V301c1.8-1.4 2-3.9.1-4 -1.3-.3-.7-1.7.6-2l.7-.2v-1l2.5-2.3v-1.7l-5.3-4.4c-2.4-1 0-6.1 1.5-6 1.6.1 0-8 0-8l-1-.4 .3-2.6H298l-1.9 2.5 -.5 1.7c-.2 2.3-6.8 1.8-7.1 1.5l-2.6-1.3s-1.7-1.4-2-1c-.3.5-1.8-.5-1.8-.2 0 .4-1.4-.7-1.4-.7l-2.1-.8 1.6-.3 -.4-1.3 2.8 1.4c.3.4 1.7.3 1.7.3l.4.6s.9-.1 1.4.5c.5.7 3.3.1 3.3.1l.8.7 1.1.4 3.3.1 .1-2 .7-.7 -.1-1.3 .7-.6v-1.1l.6-.2 .1-2.4 .6-.1V259l-1.6-1.5c-.1.5-1.8.5-1.8.5s-.4.8-.8.8 .5 1 .2 1.6c-.2.7-1 .7-1 .7l-1.6.4 -.4.5h-1.7l-.3-1.4 2-.5 1-.6 .6-1c0-1.1 1.3-1 1.3-1s2.5-2 2.6-3c0-1 1-3.7 2.4-3.7h2.8c1-.4.7-1.8.7-1.8l1.4-.3 .2.8s2 .2 2.2-.1c.2-.3.6-1 1.1-.8 .6.4 2.3-.7 2.3-.7 0-.8 2.7-.5 2.7-.5l.4-1s-1.9-2.4-2.2-2.4c-.3 0-2-1.5-2.2-1 -1.7-.4-1.6-2.8-1.6-2.8l-.6-1.5c0-.9-1.6-2.7-2-2.5 -1.6-1.2-.4-2.6 0-2.7 .5 0 1.5-1.6 1.5-1.6l.6-1.5 1.8-.5 .2-1.4 -1-.2s1-2 1.6-2l4.4-.1c.3-.2 1-2 1-2.3 0-.3.8-.4 1.1-.5 .3-.1 1-1 1.3-1.4 .2-.5-.5-3.2-1-2.7Z"/><path d="M256 258.2c.2-.2.3.5.6.4 .4 0 .5.6.2.6s-.3.4-.3.5c0 .2 0 .6-.3.8 -.2.3-.4.1-.8 0 -.3-.2-.4-.2-.8-.2s-.1.6-.1.6 -1.7 0-1.4-.3c.4-.2.7-.3.4-.5 -.2-.1 0-.3 0-.6s.8-.2.6-.4c-.2-.3 0-1.2.4-.7l.2-.5c-.2-.3 0-.3-.5-.5s-.1-1.1-.1-1.1v-.7c.2-.8 1.8-.9 1.9-.2v1.3l.5.1s-.1.5-.5.5 0 .3-.2.5l.2.4Zm-5.3.8c.3-.5.8-2.6 1.5-2 .6.7 1 0 1 0s.3.4.2 1c-.2.7-.4 1.3-.8 1.4 -.4 0-.7.3-1.2.4 -.4.1-.7-.8-.7-.8Z"/></g></svg>