<svg viewBox="0 0 512 512" xmlns="http://www.w3.org/2000/svg" xmlns:xlink="http://www.w3.org/1999/xlink"><defs><path d="M0-5L-1.5-.2l2.8.9Z" id="a"/></defs><path fill="#CF142B" d="M0 0h512v512H0Z"/><path fill="#00247D" d="M0 0h512v341.3H0Z"/><path fill="#FC0" d="M0 0h512v170.7H0Z"/><g transform="matrix(4.265 0 0 4.265 256.3 358.4)"><g transform="rotate(10)"><g transform="translate(0-36)"><g fill="#FFF"><use xlink:href="#a"/><use transform="scale(-1 1)" xlink:href="#a"/></g><g transform="rotate(72)"><g fill="#FFF"><use xlink:href="#a"/><use transform="scale(-1 1)" xlink:href="#a"/></g></g><g transform="rotate(-72)"><g fill="#FFF"><use xlink:href="#a"/><use transform="scale(-1 1)" xlink:href="#a"/></g></g><g transform="rotate(144)"><g fill="#FFF"><use xlink:href="#a"/><use transform="scale(-1 1)" xlink:href="#a"/></g><g transform="rotate(72)"><g fill="#FFF"><use xlink:href="#a"/><use transform="scale(-1 1)" xlink:href="#a"/></g></g></g></g></g><g transform="rotate(30)"><g transform="translate(0-36)"><g fill="#FFF"><use xlink:href="#a"/><use transform="scale(-1 1)" xlink:href="#a"/></g><g transform="rotate(72)"><g fill="#FFF"><use xlink:href="#a"/><use transform="scale(-1 1)" xlink:href="#a"/></g></g><g transform="rotate(-72)"><g fill="#FFF"><use xlink:href="#a"/><use transform="scale(-1 1)" xlink:href="#a"/></g></g><g transform="rotate(144)"><g fill="#FFF"><use xlink:href="#a"/><use transform="scale(-1 1)" xlink:href="#a"/></g><g transform="rotate(72)"><g fill="#FFF"><use xlink:href="#a"/><use transform="scale(-1 1)" xlink:href="#a"/></g></g></g></g></g><g transform="rotate(40)"><g transform="rotate(10)"><g transform="translate(0-36)"><g fill="#FFF"><use xlink:href="#a"/><use transform="scale(-1 1)" xlink:href="#a"/></g><g transform="rotate(72)"><g fill="#FFF"><use xlink:href="#a"/><use transform="scale(-1 1)" xlink:href="#a"/></g></g><g transform="rotate(-72)"><g fill="#FFF"><use xlink:href="#a"/><use transform="scale(-1 1)" xlink:href="#a"/></g></g><g transform="rotate(144)"><g fill="#FFF"><use xlink:href="#a"/><use transform="scale(-1 1)" xlink:href="#a"/></g><g transform="rotate(72)"><g fill="#FFF"><use xlink:href="#a"/><use transform="scale(-1 1)" xlink:href="#a"/></g></g></g></g></g><g transform="rotate(30)"><g transform="translate(0-36)"><g fill="#FFF"><use xlink:href="#a"/><use transform="scale(-1 1)" xlink:href="#a"/></g><g transform="rotate(72)"><g fill="#FFF"><use xlink:href="#a"/><use transform="scale(-1 1)" xlink:href="#a"/></g></g><g transform="rotate(-72)"><g fill="#FFF"><use xlink:href="#a"/><use transform="scale(-1 1)" xlink:href="#a"/></g></g><g transform="rotate(144)"><g fill="#FFF"><use xlink:href="#a"/><use transform="scale(-1 1)" xlink:href="#a"/></g><g transform="rotate(72)"><g fill="#FFF"><use xlink:href="#a"/><use transform="scale(-1 1)" xlink:href="#a"/></g></g></g></g></g></g></g><g transform="rotate(-80 256.3 358.4)"><g transform="matrix(4.265 0 0 4.265 256.3 358.4)"><g transform="rotate(10)"><g transform="translate(0-36)"><g fill="#FFF"><use xlink:href="#a"/><use transform="scale(-1 1)" xlink:href="#a"/></g><g transform="rotate(72)"><g fill="#FFF"><use xlink:href="#a"/><use transform="scale(-1 1)" xlink:href="#a"/></g></g><g transform="rotate(-72)"><g fill="#FFF"><use xlink:href="#a"/><use transform="scale(-1 1)" xlink:href="#a"/></g></g><g transform="rotate(144)"><g fill="#FFF"><use xlink:href="#a"/><use transform="scale(-1 1)" xlink:href="#a"/></g><g transform="rotate(72)"><g fill="#FFF"><use xlink:href="#a"/><use transform="scale(-1 1)" xlink:href="#a"/></g></g></g></g></g><g transform="rotate(30)"><g transform="translate(0-36)"><g fill="#FFF"><use xlink:href="#a"/><use transform="scale(-1 1)" xlink:href="#a"/></g><g transform="rotate(72)"><g fill="#FFF"><use xlink:href="#a"/><use transform="scale(-1 1)" xlink:href="#a"/></g></g><g transform="rotate(-72)"><g fill="#FFF"><use xlink:href="#a"/><use transform="scale(-1 1)" xlink:href="#a"/></g></g><g transform="rotate(144)"><g fill="#FFF"><use xlink:href="#a"/><use transform="scale(-1 1)" xlink:href="#a"/></g><g transform="rotate(72)"><g fill="#FFF"><use xlink:href="#a"/><use transform="scale(-1 1)" xlink:href="#a"/></g></g></g></g></g><g transform="rotate(40)"><g transform="rotate(10)"><g transform="translate(0-36)"><g fill="#FFF"><use xlink:href="#a"/><use transform="scale(-1 1)" xlink:href="#a"/></g><g transform="rotate(72)"><g fill="#FFF"><use xlink:href="#a"/><use transform="scale(-1 1)" xlink:href="#a"/></g></g><g transform="rotate(-72)"><g fill="#FFF"><use xlink:href="#a"/><use transform="scale(-1 1)" xlink:href="#a"/></g></g><g transform="rotate(144)"><g fill="#FFF"><use xlink:href="#a"/><use transform="scale(-1 1)" xlink:href="#a"/></g><g transform="rotate(72)"><g fill="#FFF"><use xlink:href="#a"/><use transform="scale(-1 1)" xlink:href="#a"/></g></g></g></g></g><g transform="rotate(30)"><g transform="translate(0-36)"><g fill="#FFF"><use xlink:href="#a"/><use transform="scale(-1 1)" xlink:href="#a"/></g><g transform="rotate(72)"><g fill="#FFF"><use xlink:href="#a"/><use transform="scale(-1 1)" xlink:href="#a"/></g></g><g transform="rotate(-72)"><g fill="#FFF"><use xlink:href="#a"/><use transform="scale(-1 1)" xlink:href="#a"/></g></g><g transform="rotate(144)"><g fill="#FFF"><use xlink:href="#a"/><use transform="scale(-1 1)" xlink:href="#a"/></g><g transform="rotate(72)"><g fill="#FFF"><use xlink:href="#a"/><use transform="scale(-1 1)" xlink:href="#a"/></g></g></g></g></g></g></g></g></svg>