<svg viewBox="0 0 512 512" xmlns="http://www.w3.org/2000/svg"><defs><clipPath id="a"><path d="M70.1 0h499.6v499.6H70.1Z"/></clipPath></defs><g clip-path="url(#a)" transform="matrix(1.0248 0 0 1.0248-71.9 0)"><g fill-rule="evenodd"><path d="M0 397.9v-296l220.4 147.9L0 397.9Z"/><path fill="#000C8A" d="M150.4 499.7l247.4-166.5h351.6v166.5h-599Z"/><path fill="#E1392D" d="M134.5 0h615v166.6H397.7s-259.9-168.2-263.2-166.6Z"/><path fill="#FFB915" d="M0 62.5v39.3l220.4 148L0 397.8v39.4l277.6-187.4L0 62.5Z"/><path fill="#007847" d="M0 62.5V0h92.6l294 199h362.8v101.7H386.6l-294 198.9H0v-62.4l277.6-187.4L0 62.5Z"/><path fill="#FFF" d="M92.6 0h57.8l247.4 166.6h351.6V199H386.6L92.6 0Zm0 499.7h57.8l247.4-166.5h351.6v-32.4H386.6l-294 198.8Z"/></g></g></svg>