<svg viewBox="0 0 301 201" xmlns="http://www.w3.org/2000/svg"><path fill="#CF142B" d="M.5.5h300v200H.5Z"/><path fill="#00247D" d="M.5.5h300v133.333H.5Z"/><path fill="#FC0" d="M.5.5h300v66.667H.5Z"/><path fill="#FFF" d="M86.15 117.263l4.8 3.68 -2.02 5.7 4.98-3.44 4.8 3.68 -1.73-5.81 4.98-3.44 -6.06-.16 -1.73-5.81 -2.02 5.7Zm11.9-20.78l3.19 5.14 -3.91 4.628 5.878-1.45 3.19 5.14 .43-6.04 5.87-1.45 -5.61-2.29 .43-6.04 -3.91 4.628Zm14.19-6.25l6.02.64 1.24 5.92 2.47-5.53 6.02.64 -4.5-4.06 2.47-5.53 -5.25 3.01 -4.491-4.06 1.24 5.92Zm19.604-10.09l5.44 2.64 -.84 5.99 4.19-4.37 5.44 2.64 -2.86-5.35 4.19-4.37 -5.97 1.06 -2.86-5.35 -.84 5.997Zm21.7-2.67l4.2 4.35 -2.85 5.34 5.44-2.66 4.2 4.35 -.85-6 5.44-2.66 -5.97-1.06 -.85-6 -2.85 5.34Zm21.4 5.06l2.46 5.53 -4.5 4.05 6.01-.64 2.46 5.53 1.25-5.93 6.02-.64 -5.25-3.03 1.25-5.93 -4.5 4.05Zm13.28 20.045l5.88 1.43 .45 6.03 3.17-5.16 5.88 1.43 -3.92-4.616 3.17-5.16 -5.61 2.29 -3.92-4.616 .45 6.03Zm10.59 14.86l4.96 3.47 -1.77 5.79 4.83-3.65 4.96 3.47 -1.98-5.73 4.83-3.65 -6.06.1 -1.98-5.73 -1.77 5.79Z"/></svg>