<svg viewBox="0 0 301 151" xmlns="http://www.w3.org/2000/svg" xmlns:xlink="http://www.w3.org/1999/xlink"><defs><path d="M34.59 66.106c2.35 5.125 2.94 5.46 8.82 7.47 5.881 2.01 22.497 3.92 24.13 4.11 -1.08-1.08-19.79-14.94-23.631-17.708 -3.85-2.78-4.92-4.04-4.92-4.04s-3.47-6.24-4.67-8.07c-1.2-1.83-3.41-4.42-6.31-4.42 -2.9 0-4.663 1.7-5.503 4.72 -.47.12-2.95 1.63-2.86 3.19 .71-.09 5.21-1.35 6.76 3.73 1.55 5.08 1.63 13.4.04 17.519 -1.6 4.11-4.08 7.22-4.08 10.83 0 .5.33 1.51 1.17 1.51 .29 1.59 2.64 12.982 2.64 12.982h33.52l5.32-20.586" id="a"/></defs><path fill="#319208" d="M.5.5h300v150H.5Z"/><path fill="#FFD200" d="M.5 21.92h300v107.143H.5Z"/><path fill="#DE2010" d="M.5 43.357h300v64.286H.5Z"/><g><path d="M.5 64.785h300v21.42H.5Z"/><path d="M5.956.5l100 75 -100 75H.49V.5Z"/></g><path fill="#FFF" d="M.5.5l100 75 -100 75"/><path fill="#DE2010" d="M4.74 63.72L26.49 79.116l-4.77 22.86 19.24-11.01 19.24 11.01 -4.77-22.87L77.186 63.71l-25.04-3.64 -11.2-22.69 -11.2 22.68Z"/><use fill="#FFC618" xlink:href="#a"/><g stroke-width=".063" fill-rule="evenodd" stroke="#000" fill="none"><use xlink:href="#a"/><path d="M23.583 85.01s7.14-.42 9.07-.42c1.93 0 19.921.02 29.958 2.34"/><path d="M26.1 84.87s-.72-.87-.26-2.59c.46-1.73 5.5-6.18 5.5-12.48m-.93 14.78s-.59-2.82 5.84-5.21c1.8-.55 6.97-3.45 7.14-5.8m-7.83 6.06s15.76.06 28.24 2.59"/><path d="M39.539 77.768s5.41.18 6.3-.07c.88-.26 2.44-.91 3.06-2.76m-6.16 2.88s2.89-1.51 3.46-3.47m-12.22 23.62s-1.24-8.6-1.5-13.41l3.23 3.08 3.42-3 2.94 3.14 3.4-2.89 2.94 3.3 3.36-2.87 2.68 3.11 3.36-2.43 3.99 3.79m-.71 2.71c-12.01-1.72-28.06-1.61-28.06-1.61m-5.58-29.7s9.76-4.67 11.48-5.32"/><g stroke-width=".298"><path d="M32.77 87.995l3.28 2.98L39.01 88 42 91.09l3.23-2.87 2.98 3.13 3.36-2.78 2.747 3.2 3.34-2.56 3.51 3.1"/><path d="M42.089 81.02a1.3 1.3 0 1 0 0 2.6 1.3 1.3 0 1 0 0-2.61Z"/><path d="M47.58 81.39a1.3 1.3 0 1 0 0 2.6 1.3 1.3 0 1 0 0-2.61Z"/><path d="M27.12 46.5a1 1 0 1 0 0 2.01 1 1 0 1 0 0-2.02Z"/></g></g></svg>