<svg viewBox="0 0 301 201" xmlns="http://www.w3.org/2000/svg"><path fill="#CF142B" d="M150.5.5h150v200h-150Z"/><path fill="#FFF" d="M.5.5h150v200H.5Z"/><path fill="#F1EEEE" d="M34.006 30.996c0 .33-.38.59-.84.59 -.47 0-.84-.27-.84-.6 0-.33.37-.6.83-.6 .46-.01.83.26.83.59Z"/><path fill="#E60D2E" d="M7.9 28.1v15.15h15.15c0 2.52 2.52 5.05 5.05 5.05v15.15H43.25V48.29c2.52 0 5.05-2.53 5.05-5.05h15.15V28.08h-15.16c0-2.53-2.53-5.05-5.06-5.05V7.87H28.07v15.15c-2.53 0-5.06 2.52-5.06 5.05H7.85Z"/><path fill="#96877D" d="M8.91 29.11v13.13h15.151c0 2.52 2.52 5.05 5.05 5.05v15.15h13.13V47.28c2.52 0 5.05-2.53 5.05-5.05h15.15V29.09H47.28c0-2.53-2.53-5.05-5.06-5.05V8.88H29.09V24.03c-2.526 0-5.06 2.526-5.06 5.05H8.87Z"/><path fill="#CCC" d="M9.42 29.62v12.12h15.15c0 2.52 2.52 5.05 5.05 5.05v15.15h12.12V46.78c2.52 0 5.05-2.53 5.05-5.06h15.15V29.59H46.78c0-2.53-2.53-5.05-5.06-5.05V9.38H29.59v15.15c-2.53 0-5.06 2.52-5.06 5.05H9.37Z"/><path fill="#96877D" d="M28.67 24.393c.88.88.64 2.56-.54 3.75 -1.19 1.18-2.87 1.42-3.75.53 -.89-.89-.65-2.567.53-3.75 1.18-1.19 2.86-1.43 3.75-.54Z"/><path fill="#D0D0D0" d="M24.215 27.072l.35-.36 1.42.71 -.72-1.43 .35-.36 1.42 2.85Zm4.64-.36l-.71.7 -2.15-2.15 .7-.71Z"/><path fill="#96877D" d="M46.977 28.67c-.89.88-2.57.64-3.75-.54 -1.19-1.19-1.43-2.87-.54-3.75 .88-.89 2.56-.65 3.75.53 1.18 1.18 1.42 2.86.53 3.75Z"/><path fill="#D0D0D0" d="M44.29 24.215l.35.35 -.72 1.42 1.42-.72 .35.35 -2.86 1.42Zm.35 4.64l-.71-.71 2.14-2.15 .7.7Z"/><path fill="#96877D" d="M42.69 46.978c-.89-.89-.65-2.57.53-3.75 1.18-1.19 2.86-1.43 3.75-.54 .88.88.64 2.56-.54 3.75 -1.19 1.18-2.87 1.42-3.76.53Z"/><path fill="#D0D0D0" d="M47.156 44.3l-.36.35 -1.43-.72 .71 1.42 -.36.35 -1.43-2.86Zm-4.65.35l.7-.71 2.14 2.14 -.71.7Z"/><path fill="#96877D" d="M24.393 42.69c.88-.89 2.56-.65 3.75.53 1.18 1.18 1.42 2.86.53 3.75 -.89.88-2.57.64-3.75-.54 -1.19-1.19-1.43-2.87-.54-3.75Z"/><path fill="#D0D0D0" d="M27.07 47.15l-.36-.36 .71-1.43 -1.43.71 -.36-.36 2.85-1.43Zm-.36-4.66l.7.7 -2.15 2.14 -.71-.71Z"/><g stroke-width=".172" fill-rule="evenodd" stroke="#96877D" fill="none"><path d="M46.29 35.685c0 5.85-4.747 10.6-10.61 10.6 -5.86 0-10.607-4.75-10.61-10.61 -.01-5.86 4.747-10.61 10.6-10.61 5.85 0 10.6 4.75 10.6 10.6v0Z"/><path d="M43.76 35.68v0c0 4.46-3.62 8.08-8.09 8.08s-8.09-3.62-8.081-8.09h-.001c0-4.47 3.61-8.081 8.08-8.09 4.46 0 8.08 3.61 8.08 8.08v0Z"/></g><path d="M32.15 44.27v0c0 .27-.23.5-.51.5s-.51-.23-.51-.51v0c-.01-.28.22-.51.5-.51 .27-.01.5.22.5.5 0 0 0 0 0 0Zm8.08 0v-.001c-.01.27-.23.5-.51.5 -.09-.01-.18-.03-.26-.07v0c-.25-.14-.33-.45-.19-.7 .13-.25.44-.33.69-.19 .15.09.25.25.25.43Zm-4.89 0v.52h-.68c-.68 0-.68.52 0 .52h.67v.52c0 .54.58.61.63.04l.04-.57h.67c.67 0 .67-.53 0-.53h-.68v-.53c0-.53-.68-.53-.68 0v-.01Z"/><g stroke-width=".068" fill="#96877D" stroke="#000"><path d="M41.45 37.22c.17-.05.47-.01.47-.01s.02.12-.06.16c.08.04.39.03.39.03s-.12.09-.18.12c.11.01.24.15.24.15s-.26.04-.37-.02c.06.13.06.25.06.25s-.42-.11-.57-.38m-.71-.57c-.1.24-.84-.22-.84-.22s.32.51.81.57m-9.172 4.36h8.62l.66-.53 -1.11-.6 -1.71-.59 -.69-.38 -1.27.06 -1.06.56 -1.46.17 -.35.39 -1.08.08 -1.7-.04 2.81.44 -2.33-.12Z"/><path d="M36.207 39.244c-1.08-.59-1.4.85-1.87 1.19 .62.1 1.1-.49 1.64-.77 .4 1.11 1.05.37 1.05.37s.67 1.06 1.56.58c.24.18.51.01.51.01s.32.06.39-.09c.17.06.35-.16.35-.16s.37 0 .44-.19c.55.09 1.28-1.13 1.28-1.13l.22-.43 .32-.07s.02-.22-.16-.21c-.01-.13-.12-.2-.28-.18 .03-.08-.09-.14-.09-.14 -.31.07-.33.85-.33.85s-.54.41-.74.51c-.01-.45-.76-1.05-.6-1.34 .15-.29.63.44 1.05.3 .42-.14.63-.69.64-1.11 -.12-.29-.41-.77-.41-.77l-.28-.02 -.24-.59s-.51.32-.5.61c0 .28.53.52.53.52s-.3.18-.59.1c-.03.29.34.23.47.23 .06.2.27.32.27.32s.12.32-.21.29c-.34-.03-.73-.8-1.2-.45 -.5.37.22 1.05.22 1.05s-.44.23-.7.82c-1.064-.9-1.69-.48-2.87-.24Z"/><path d="M34.652 37.72c.44.41.13 1.11.3 1.24 .18.14.44-.07.44-.07 .46.12 1.29-.14 1.29-.14 .36.2.22-.1.44-.09 .19.5.85.41.85.41s-.61-.62-.98-.79c-.29.17-1.12.19-1.27.17 -.17-.03-.06-.23-.14-.35 .3-.3.06-1.04-.11-1.32 -.68-.46-1.49.32-.87.9v0Zm-2.96-1.26c-.56.15-1.53-.73-1.99-.39 -.46.33-.25 1.15.06 1.57 .29.4-.44.54-.63.78 -.19.22.06.48.06.48l.2.13 -.04.3 .1.36s.1.08.13-.03c.09.09.01.36.24.39 -.09-.18.06-.66.06-.66s.4.03.5-.15c.1-.18-.1-.56-.1-.56h.12c-.14-.1-.19-.38-.19-.38s.56-.18.55-.61c-.01-.43-.92-.88-.58-1.1 .36-.25 1 .63 1.55.23 .54-.4.19-.02.19-.02s.24-.57-.31-.42Zm2.88-5.99c-.75-.32-2.28-.34-3.13-.76 -.38.02-.54.31-.56.43 -.4-.02-.66.59-.6.71 -.72-.29-1.05.83-.82 1.06 -.61.02-.532.8-.59 1.01 -.2.47.04.63.42.46 .05.2-.03.32-.2.35 1.05 1.2 1.64-.75 2.57-.74 1.15-.34 1.6-.91 1.6-.91l.45.06 .82-1.73Z"/><path fill="#96877D" stroke="#000" stroke-linecap="round" stroke-width=".068" d="M36.65 29.628v0c0 .6-.5 1.1-1.11 1.1 -.61 0-1.11-.5-1.11-1.11v0c0-.61.49-1.11 1.1-1.11 .6 0 1.1.49 1.1 1.1v0Z"/><path d="M33.61 38.305c-.69-.13-1.82-.84-1.93-1.76 .63-2.5 3.91-1.2 4.2-3.08 -.08-1.24.15-2.47.83-3.51 .32-.41.73-.52.73-.52s.07.26-.04.44c.54-.06 1.28.24 1.79.27 .14.3.13.41.1.59 -.04.18-.24.13-.24.13 -.14.12-.3.25-.65.18 -.27.2-.84.25-.84.25s1.18 1.25.99 1.64c.24.11.61.66.61.66s.81-.43 1.07-.82c.47 0 1.23.49 1.62.54 .47.38.93.76.93.76s-.56.36-.81-.12c-.3.02-.94-.68-1.811-.47 -.03.78-.89 1.33-.89 1.33s.8-.12 1.24.15c.45.38 1.12.9 1.12.9l.59 1.02s-.55.09-.76-.62c-.21.57-.22-.36-1.03-.79 -.25.03-.38.04-.59-.12 -.59.15-1.28.49-2.11.41 -.59.18-1.02.67-1.61.93 -.6.26-.77.13-.77.13l-.48.01c-.07.28-.03.72-.29.8 .16.17-.12.94-.41 1.07 .13.49.53.64.95.88 0 0 .37-.18.61.05 .24.22.49.85.49.85s-.51.03-.67-.04c-.16-.07-.18-.24-.36-.19 -1.16-1.03-1.77-.62-1.88-.86 -.12-.25.27-.87.15-1.27v0Z"/><path d="M30.83 33.718c.06-.08.48.08.48.08l.77.48 1.57 1.01 .55.8 -1.01-.33 -1.39-1.2 -.75-.49s-.31-.32-.25-.39Zm9.28 2.57c-.55-.14-1.88 1.48-1.88 1.48l1 1.09s.03-1.87.87-2.58Z"/><path d="M33.5 31.76c-.3.37-.33 1.14.06 1.45 .03.46.43 1.39.74 1.48 .33.09 1.69.41 2.22.32 -.11.85.57 1.54 1.19 1.99v0c-.02.09.01.18.06.26 .07.09.39.1.41.05 .14.2.84.29.9.2 .04-.09-1.04-.85-1.28-1.08 -.21-.39-.6-1.24-.69-1.92 -.54-.64-1.45-.63-1.45-.63l.02-1.25 .05-1.41 -.5-.26s.1-.05.15-.11c.12.05.34-.19.37-.26 .11.04.21.04.23-.03 .01-.06.03-.3.07-.42 .37-.33-.06-1.03-.63-1.04 -.57-.02-.7.67-.69.72 .05.21.04.32 0 .37 -.05.05-.24.17-.24.17s-.32-.15-.71 0c-.39.14-.82.35-.84.59 -.18.02-.47.25-.52.44 -.16-.03-.36.09-.69.63 -.59.26-.63 1.52-.63 1.52s-.16.23-.17.35c-.01.12.05.23.13.21 0 .08.11.15.16.12 .01.08.13.12.2.11 0 .05.23.04.25-.01 .02-.06-.03-.34 0-.36 .02-.02.21.12.26.08 .05-.04-.01-.17-.04-.21 -.03-.05-.19-.09-.23-.29 -.04-.21.1-.48.1-.48s.64-.51.71-.94c.48.04.73-.38.87-.54v0Z"/><path d="M32.393 29.956c.14-.36.67-.33.67-.33s.18-.5.9-.21c.26-.21.97.09.97.09s.26-.36.61-.32c.64.07.74.66.7.76 -.36.08-.96-.29-1.43-.18 -.27.15-.71.31-.88.53 -.43.04-.89-.4-1.58-.38v0Zm1.33.59c.16-.1.55-.28.82-.06 .28.3.7.58.7.58l.48.2 .22.13 -.15 2.22c-.46-.47-.88-.55-1.2-1.09 -.18-.24-.05-.8-.35-1.17 -.31-.37-.63-.62-.56-.85Z"/><path d="M34.9 31.19s.25-.05.32.01c.08.03.17.05.19.13 .09.02.16.07.16.15 .09.02.12.18.12.18l-.09.12s-.1-.1-.11-.19c-.07-.03-.2-.07-.23-.16 -.11-.02-.18-.07-.2-.16 -.1.02-.2-.12-.2-.12Z"/><path d="M37.06 29.739c-.15-.17-.41-.05-.41-.05l-.69 1.17 -.3.24 -.03.92 .24.86 -.09.66s.34-.33.38-.51c.03-.18-.13-.74-.13-.74s-.21-.35.04-1c.24-.65.81-1.19.94-1.6v0Z"/><path d="M38.746 30.78s-1.07 1.52-2.82 2.067c-.49.11-.31-1.13-.31-1.13l-.12.03s-.27 1.21.37 1.23c1.75-.35 3.07-2.2 3.07-2.2l-.21-.02Zm.72 8.76s-.17.12-.38 0c-.12-.26-.41-.28-.41-.28s-.2-.56-.5-.4c-.05-.29-.38-.14-.38-.14s-.01-.42-.4-.36c.12-.48-.53-.45-.53-.45s-.03-.54-1-.43c2.08-.94 3.74 1.46 3.74 1.46m.82.76s.48.54.73.54 .27-.53.27-.53 .08.23.2.17c-.02.16.15.2.15.2s-.44 1.01-1.68.05m-3.47-.24l-.18.7s-.22.19-.16.23c.06.04.41-.07.41-.07s.53-.07.7-.23v0c.06.14.19.25.35.27 0 0 .01-.11-.02-.18 .11.02.22-.02.22-.02s.06-.2-.09-.28c.01-.15.09-.28-.18-.26 -.2.2-.67.44-.79.35 -.12-.09.47-.35.3-.69"/></g><path d="M25.81 38.3l.69-.17 -.08-.33c-.02-.08-.05-.13-.09-.16 -.05-.03-.12-.04-.21-.03l-.02-.05 .59-.15 .01.04v0c-.06 0-.11.03-.15.06v0c-.03.02-.05.05-.06.08l0 0c-.01.04-.01.09 0 .13l.07.32 .55-.14v0c.06-.02.11-.04.17-.06v0c.02-.02.03-.05.04-.07h-.001c.01-.05.01-.09 0-.13l-.02-.07 .04-.02 .18.75 -.05.01 -.02-.07c-.02-.08-.06-.13-.11-.15 -.04-.02-.11-.01-.21.01l-1.15.27v0c-.07.01-.12.03-.18.05v0c-.03.01-.04.04-.05.06v0c-.02.04-.02.08-.01.12l.01.06 -.05.01 -.32-1.32 .38-.11 .01.04h-.001c-.07.03-.12.07-.17.12v0c-.04.03-.06.08-.06.13v0c-.01.07 0 .14.02.21l.09.38Zm-.45-3.14v0c.01-.24.12-.45.3-.6h-.001c.18-.17.43-.25.68-.23h-.001c.25 0 .49.11.67.29 .17.18.25.4.23.64h0c-.01.23-.12.46-.31.61 -.19.16-.43.23-.71.21v0c-.27-.01-.52-.13-.69-.34h-.001c-.15-.18-.23-.4-.21-.63Zm.09.03h-.001c-.02.15.04.3.15.4 .14.13.35.2.64.22 .29.01.52-.04.69-.16h-.001c.12-.09.2-.23.2-.375v0c.01-.17-.06-.33-.18-.44 -.13-.12-.34-.19-.62-.21 -.31-.02-.55.03-.71.14v0c-.13.09-.21.23-.21.39Zm2.63-3.32l-.18.45 -1.02.27 -.04.1 -.02.03v0c-.01.01-.02.02-.02.03l.49.18c.1.04.17.05.21.04 .04-.02.08-.06.11-.13l.02-.07 .04.01 -.28.72 -.05-.02 .02-.07c.02-.08.02-.14-.02-.19 -.02-.03-.08-.06-.18-.1l-1.1-.42c-.11-.05-.18-.06-.22-.05 -.05.01-.09.06-.11.12l-.03.06 -.05-.02 .23-.62v0c.04-.14.11-.27.19-.39v0c.05-.08.13-.14.22-.17l-.001 0c.09-.04.19-.04.28 0 .1.04.18.1.23.2v-.001c.05.11.06.25.04.37l.62-.17v0c.1-.03.2-.07.3-.13v0c.06-.06.12-.13.15-.2l.04.01Zm-1.34.87h-.001c0-.02.01-.03.01-.05l.01-.03c.06-.17.07-.3.03-.41h0c-.04-.11-.12-.19-.23-.23v0c-.1-.05-.21-.04-.3 0h-.001c-.1.04-.17.12-.2.22h-.001c-.03.06-.05.13-.06.2l.7.26Zm3.86-6.02l.35.45 -.04.02h-.001c-.1-.09-.21-.15-.33-.18l0 0c-.16-.03-.31 0-.44.09h-.001c-.19.1-.3.3-.3.51h0c0 .19.06.38.17.54 .09.14.2.26.34.34v0c.11.07.25.12.39.12h0c.11-.01.23-.04.33-.1l-.001 0c.11-.08.2-.18.26-.29l-.29-.45v0c-.03-.06-.07-.11-.12-.14v0c-.03-.02-.06-.03-.09-.02h-.001c-.06.01-.1.03-.15.06l-.03-.05 .59-.39 .02.04 -.03.01c-.06.03-.09.08-.09.13l-.001-.001c.01.06.04.12.08.17l.3.46 -.001 0c-.06.09-.12.18-.19.26 -.07.07-.16.14-.26.21 -.3.19-.58.24-.86.15H30.2c-.21-.07-.38-.2-.49-.38v0c-.09-.14-.14-.29-.16-.45h0c-.02-.19.01-.38.09-.55v0c.07-.15.19-.27.33-.36h0c.05-.04.1-.07.16-.09 .05-.02.12-.05.23-.07l-.001 0c.03-.01.06-.02.1-.04 .01-.01.02-.03.02-.05 0-.02-.01-.05-.04-.09l.04-.03Zm2.95.2l-.68.18 -.05.3v0c-.02.05-.02.1-.01.16 0 .02.02.04.05.06 .03.01.09.01.17-.01l.01.04 -.56.14 -.02-.05c.07-.04.11-.07.12-.09v0c.04-.1.07-.19.07-.3l.23-1.61 .04-.02 .99 1.29c.08.1.14.16.19.19v0c.05.02.12.02.18.01l.01.04 -.7.18 -.02-.05c.06-.03.11-.05.13-.08v-.001c.01-.03.02-.06.01-.09V27.2c-.03-.07-.06-.12-.1-.17l-.18-.23Zm-.07-.09l-.49-.63 -.12.79 .6-.17Zm3.2-.01l.04.01 -.18.48 -1.41-.06 0-.05 .06 0c.07 0 .13-.02.16-.07 .02-.03.03-.1.03-.2l.04-1.18c0-.12-.01-.19-.03-.22 -.04-.05-.09-.07-.16-.07l-.07-.01 0-.05 .82.03 -.01.05v0c-.07-.01-.14-.01-.21.01v0c-.04.01-.07.03-.09.06v-.001c-.03.06-.04.13-.03.2l-.05 1.14v0c-.01.05-.01.1.01.15 .01.01.02.03.04.04 .02.01.09.01.2.02l.13 0v0c.09 0 .19 0 .29-.02v0c.06-.03.11-.06.15-.11v0c.06-.08.1-.16.14-.25Zm2.41.64l.03.02 -.31.41 -1.34-.45 .01-.05 .06.02c.07.02.13.01.18-.02 .02-.03.05-.09.08-.18l.36-1.12c.03-.11.04-.18.03-.22 -.03-.05-.07-.09-.13-.11l-.07-.03 .01-.05 .78.25 -.02.04v0c-.07-.03-.14-.04-.21-.04v0c-.04 0-.08.01-.1.04v-.001c-.04.05-.07.12-.09.18L38 27.22v0c-.02.04-.03.09-.03.15v0c0 .02.01.04.03.05v-.001c.06.03.12.06.19.07l.12.04v-.001c.09.03.18.05.28.06v0c.06-.01.12-.03.18-.06v0c.07-.06.15-.12.21-.2Zm1.95 1.032l-.58-.41 -.27.16v0c-.05.02-.1.06-.13.1 -.02.02-.02.05-.01.08 0 .03.04.07.11.13l-.03.04 -.47-.33 .02-.04c.07.03.12.04.15.04v-.001c.09-.03.19-.07.27-.13l1.38-.86 .03.02 -.36 1.59v0c-.03.08-.04.18-.03.27v0c.01.06.05.11.1.15l-.03.04 -.59-.42 .02-.05c.06.03.1.05.14.05v0c.02-.01.05-.02.07-.04v-.001c.03-.06.05-.12.06-.19l.06-.28Zm.02-.11l.17-.78 -.69.41 .5.36Zm2.15.39l.29.39 -.44 1.7 .84-.63c.09-.07.13-.12.14-.16 .01-.05-.01-.11-.05-.16l-.04-.06 .04-.03 .37.5 -.04.03 -.04-.06c-.05-.07-.1-.1-.16-.09 -.04 0-.1.03-.18.09l-1.23.91 -.03-.04 .46-1.84 -.9.66c-.09.06-.14.11-.15.15 -.01.05 0 .1.04.16l.03.05 -.04.02 -.38-.51 .04-.03 .03.05c.04.06.09.09.15.09 .03-.01.09-.04.17-.1l1.01-.76v0c.01-.06.02-.12.02-.17v0c-.01-.05-.02-.09-.03-.13l-.001 0c-.02-.04-.04-.08-.07-.11l.03-.03Zm2.29 4.22l-.4.16 -.02-.05v0c.05-.03.09-.06.13-.1v0c.03-.04.06-.09.07-.15h-.001c0-.07-.01-.13-.03-.19l-.09-.25 -1.31.46c-.11.03-.17.07-.19.1 -.03.04-.03.1-.01.16l.02.06 -.05.01 -.26-.73 .04-.02 .02.06c.02.07.06.11.12.13 .03 0 .09-.01.19-.04l1.3-.47 -.08-.21v0c-.02-.06-.05-.12-.08-.17v0c-.04-.04-.09-.07-.14-.08v0c-.07-.02-.14-.02-.21.01l-.02-.05 .4-.13 .49 1.39Zm-1.44 3.22l-.03-.49 .81-.66v0c-.01-.04-.01-.08-.01-.12l-.01-.04v-.05l-.53.02c-.12 0-.19.02-.22.04 -.04.03-.06.08-.06.15l0 .07 -.05 0 -.04-.78 .04-.01 0 .06c0 .07.03.13.08.16 .02.01.09.02.19.01l1.17-.07c.11-.01.18-.03.21-.05 .03-.04.05-.09.05-.16l-.01-.07 .04-.01 .03.66c.01.19 0 .33-.02.42v0c-.03.09-.08.17-.15.24v0c-.08.06-.17.1-.27.11v0c-.11 0-.22-.03-.3-.1h-.001c-.1-.09-.17-.21-.2-.33l-.51.4 -.001 0c-.09.06-.17.14-.23.23v0c-.04.07-.07.15-.07.24l-.06 0Zm.86-1.34l0 .04 0 .03c0 .17.05.3.13.38v0c.07.08.18.12.29.11v0c.1-.01.2-.05.27-.12v0c.06-.08.1-.19.09-.29v0c-.01-.08-.02-.15-.04-.21l-.76.03Zm.49 3.73l-.17.61 -.05-.02 0-.04v0c0-.04 0-.08-.01-.11v0c-.01-.05-.03-.1-.06-.14v0c-.05-.07-.1-.13-.15-.18l-.56-.6 -.44-.12c-.11-.03-.18-.04-.22-.02 -.05.02-.08.07-.1.14l-.02.05 -.05-.02 .19-.75 .04.01 -.02.06c-.02.07-.02.13.02.17 .02.02.08.05.18.07l.41.1 .86-.29c.1-.04.16-.06.19-.08v0c.04-.03.07-.07.11-.11v0c.01-.03.02-.05.03-.08l.04.01 -.2.75 -.05-.02 .01-.04v0c.01-.04.01-.08 0-.12v0c-.01-.04-.04-.07-.08-.08 -.04-.01-.1 0-.19.03l-.67.21 .45.48c.06.07.12.11.16.125v0c.02 0 .04 0 .07-.01v0c.02-.01.04-.03.05-.05v0c.02-.04.03-.07.04-.11l.04.01Z"/></svg>