<svg viewBox="0 0 300 200" xmlns="http://www.w3.org/2000/svg" xmlns:xlink="http://www.w3.org/1999/xlink"><defs><radialGradient id="a" fr="0%" fx="50.045%" fy="49.891%" cx="50.045%" cy="49.891%" r="50.391%" gradientTransform="matrix(1 0 0 .87357 0 .063)"><stop offset="0%" stop-color="#FFEF5D"/><stop offset="100%" stop-color="#EA5700"/></radialGradient><radialGradient id="b" fr="0%" fx="50.008%" fy="50.024%" cx="50.008%" cy="50.024%" r="75.651%" gradientTransform="matrix(.6661 0 0 1 .167 0)" xlink:href="#a"/><radialGradient id="c" fr="0%" fx="49.988%" fy="49.673%" cx="49.988%" cy="49.673%" r="50.391%" gradientTransform="matrix(1 0 0 .91207 0 .044)"><stop offset="0%" stop-color="#952D1A"/><stop offset="100%" stop-color="#520900"/></radialGradient><radialGradient id="d" fr="0%" fx="50%" fy="50.103%" cx="50%" cy="50.103%" r="75.628%" gradientTransform="matrix(.66631 0 0 1 .167 0)" xlink:href="#c"/><path id="g" d="M133.632 146.87s-.98 1.01-1.14 2.68c-.08 1.3.77 2.03 1.87 1.95 1.54-.08 2.15-2.2 1.42-3.38l-2.16-1.27"/><path id="h" d="M166.39 146.87s.97 1.01 1.13 2.68c.12 1.3-.78 2.03-1.88 1.95 -1.55-.08-2.12-2.2-1.43-3.38l2.15-1.27"/><path id="i" d="M115.482 90.5l.24-1.96 .4.04 -.09 2.03 -.57-.13"/><path id="j" d="M118.046 88.87l-.17 2.11h.28l.28-2.12h-.41"/><path id="e" d="M149.585 111.631l-2.41.89 2.4.08v-.98"/><path id="f" d="M165.45 64.37s-.78 1.34-1.67 1.46l1.42-.29s.4-.21 1.01-.86l-.78-.33"/><path id="k" d="M184.542 90.5l-.21-1.96 -.45.04 .12 2.03 .52-.13"/></defs><path fill="#CE1126" d="M.001 0h300v200H0Z"/><path fill="#003F87" d="M.001 14.28h300v171.429H0Z"/><path fill="#FFF" d="M228.572 100c0 43.39-35.18 78.572-78.572 78.572 -43.4 0-78.572-35.178-78.572-78.571 0-43.394 35.17-78.58 78.572-78.58 43.39 0 78.572 35.17 78.572 78.57Z"/><path fill="none" fill-rule="evenodd" stroke="#552300" stroke-width="2.494" d="M214.978 99.615c0 35.98-29.15 65.152-65.1 65.152 -35.96 0-65.1-29.17-65.1-65.16 0-35.982 29.146-65.16 65.09-65.16 35.95 0 65.09 29.17 65.09 65.15Z"/><path fill="#007F00" d="M142.73 31.06c5.89-6.32 11.21.98 11.07 4.4 -.15 3.42-6.09 10.96-11.46 4.89 5.56 1.42 7.23-4.81 10.05-4.87 -2.82.06-3.97-6.11-9.67-4.44Z"/><path fill="#005800" d="M142.348 40.35c5.56 1.42 6.96-4.73 9.78-4.79 -1.65 1.96-5.94 6.96-9.79 4.78Zm.38-9.3c5.89-6.32 11.21.98 11.07 4.4 -4.79-8.34-6.28-7.05-11.08-4.4Z"/><path fill="#007F00" d="M81.44 80.596c-3.09-8.08 5.84-9.55 8.86-7.9 3.01 1.65 7.19 10.32-.66 12.393 3.74-4.32-1.13-8.59.06-11.125 -1.19 2.53-7.253.8-8.27 6.62Z"/><path fill="#005800" d="M89.645 85.098c3.74-4.33-1.18-8.32.01-10.86 1.04 2.34 3.65 8.4-.02 10.85Zm-8.21-4.51c-3.09-8.08 5.84-9.55 8.86-7.9 -9.622.53-9.125 2.43-8.87 7.89Z"/><path fill="#007F00" d="M213.56 72.64c8.05 3.14 3.13 10.74-.13 11.863 -3.26 1.12-12.48-1.62-8.73-8.82 .67 5.67 7.11 4.94 8.19 7.52 -1.08-2.59 4.28-5.91.66-10.57Z"/><path fill="#005800" d="M204.71 75.68c.67 5.67 6.94 4.71 8.02 7.3 -2.44-.81-8.68-2.95-8.03-7.31Zm8.85-3.05c8.05 3.14 3.13 10.74-.13 11.863 6.08-7.48 4.33-8.39.12-11.87Z"/><path fill="#007F00" d="M108.89 157.048c-8.6-.85-5.95-9.5-3.125-11.46 2.82-1.96 12.44-1.82 10.8 6.13 -2.21-5.29-8.2-2.84-9.94-5.04 1.74 2.19-2.51 6.85 2.25 10.36Z"/><path fill="#005800" d="M116.57 151.72c-2.21-5.29-7.97-2.67-9.71-4.87 2.56.11 9.14.48 9.71 4.86Zm-7.68 5.32c-8.6-.85-5.95-9.5-3.125-11.46 -3.81 8.84-1.88 9.256 3.125 11.46Z"/><path fill="#007F00" d="M195.284 151.57c.12 8.64-8.78 6.99-11.04 4.41 -2.27-2.59-3.2-12.15 4.88-11.44 -5.006 2.79-1.9 8.46-3.89 10.44 1.99-1.98 7.08 1.7 10.04-3.43Z"/><path fill="#005800" d="M189.13 144.56c-5.006 2.79-1.76 8.22-3.75 10.2 -.18-2.56-.54-9.15 3.74-10.21Zm6.15 7.01c.12 8.64-8.78 6.99-11.04 4.41 9.21 2.76 9.4.8 11.03-4.42Z"/><path fill="#007F00" d="M87.73 64.259c-.79-8.61 8.21-7.64 10.66-5.24 2.45 2.4 4.11 11.87-4 11.76 4.77-3.16 1.24-8.58 3.08-10.704 -1.84 2.12-7.2-1.17-9.753 4.17Z"/><path fill="#005800" d="M94.41 70.792c4.77-3.16 1.12-8.329 2.95-10.454 .36 2.53 1.23 9.076-2.96 10.454Zm-6.68-6.54c-.79-8.61 8.21-7.64 10.66-5.24 -9.41-2.07-9.45-.1-10.67 5.23Z"/><path fill="#007F00" d="M96.965 144.7c-8.53-1.42-5.3-9.88-2.35-11.64 2.95-1.77 12.53-.99 10.36 6.83 -1.84-5.42-7.99-3.38-9.57-5.69 1.58 2.31-2.97 6.66 1.54 10.48Z"/><path fill="#005800" d="M104.986 139.903c-1.84-5.42-7.78-3.2-9.36-5.5 2.54.28 9.09 1.09 9.36 5.5Zm-8.021 4.8c-8.53-1.42-5.3-9.88-2.35-11.64 -4.4 8.57-2.5 9.1 2.34 11.64Z"/><path fill="#007F00" d="M164.15 32.19c7.75-3.81 10.11 4.91 8.76 8.06 -1.36 3.14-9.6 8.08-12.45.49 4.68 3.32 8.46-1.91 11.11-.97 -2.65-.95-1.53-7.122-7.44-7.59Z"/><path fill="#005800" d="M160.472 40.74c4.68 3.31 8.18-1.94 10.84-.99 -2.24 1.25-8.03 4.4-10.84.99Zm3.67-8.56c7.75-3.81 10.11 4.91 8.76 8.06 -1.49-9.5-3.35-8.83-8.77-8.07Z"/><path fill="#007F00" d="M181.067 162.34c-3.85 7.73-11.03 2.24-11.863-1.08 -.84-3.33 2.71-12.25 9.58-7.95 -5.75.21-5.57 6.66-8.25 7.52 2.68-.86 5.53 4.72 10.52 1.5Z"/><path fill="#005800" d="M178.792 153.315c-5.75.21-5.33 6.51-8.02 7.37 1.01-2.35 3.7-8.37 8.01-7.37Zm2.27 9.02c-3.85 7.73-11.03 2.24-11.863-1.08 6.95 6.63 8.01 4.97 11.863 1.07Z"/><path fill="#007F00" d="M218.787 87.915c6.52 5.67-.68 11.15-4.13 11.11 -3.45-.05-11.21-5.74-5.24-11.24 -1.29 5.56 5.03 7.04 5.17 9.84 -.14-2.8 6.03-4.11 4.19-9.72Z"/><path fill="#005800" d="M209.42 87.79c-1.29 5.56 4.94 6.78 5.08 9.57 -2.03-1.58-7.18-5.7-5.09-9.58Zm9.36.125c6.52 5.67-.68 11.15-4.13 11.11 8.26-4.98 6.92-6.43 4.12-11.12Z"/><path fill="#007F00" d="M109.236 42.59c1.94-8.42 10.19-4.73 11.78-1.686 1.58 3.04.2 12.55-7.48 9.95 5.53-1.54 3.86-7.77 6.27-9.23 -2.41 1.45-6.49-3.33-10.58.95Z"/><path fill="#005800" d="M113.54 50.863c5.53-1.53 3.67-7.57 6.07-9.03 -.45 2.52-1.66 9-6.08 9.02Zm-4.31-8.27c1.94-8.42 10.19-4.73 11.78-1.686 -8.3-4.86-8.96-3-11.79 1.686Z"/><path fill="#007F00" d="M83.57 114.472c-7.6-4.131-1.75-11.05 1.62-11.75 3.375-.7 12.17 3.18 7.54 9.84 .05-5.72-6.44-5.8-7.18-8.497 .73 2.69-5.006 5.31-2 10.396Z"/><path fill="#005800" d="M92.74 112.573c.05-5.72-6.3-5.56-7.04-8.256 2.31 1.1 8.23 4.01 7.03 8.256Zm-9.17 1.89c-7.6-4.131-1.75-11.05 1.62-11.75 -6.99 6.64-5.37 7.77-1.63 11.74Z"/><path fill="#007F00" d="M193.38 47.92c8.55-1.23 8.07 7.8 5.8 10.38 -2.27 2.57-11.64 4.72-11.97-3.39 3.41 4.6 8.63.8 10.85 2.52 -2.22-1.72.78-7.247-4.69-9.53Z"/><path fill="#005800" d="M187.21 54.92c3.41 4.6 8.38.69 10.6 2.41 -2.52.49-9 1.7-10.6-2.42Zm6.16-7c8.55-1.23 8.07 7.8 5.8 10.38 1.55-9.494-.42-9.44-5.8-10.39Z"/><path fill="#007F00" d="M144.54 170.63c-7.91 3.49-9.91-5.33-8.43-8.42 1.48-3.09 9.91-7.69 12.45.02 -4.55-3.51-8.54 1.56-11.15.5 2.61 1.05 1.22 7.18 7.11 7.88Z"/><path fill="#005800" d="M148.57 162.24c-4.55-3.51-8.26 1.6-10.869.54 2.28-1.16 8.2-4.07 10.87-.55Zm-4.03 8.39c-7.91 3.49-9.91-5.33-8.43-8.42 1.09 9.55 2.97 8.95 8.42 8.41Z"/><path fill="#007F00" d="M215.591 122.61c3.56 7.87-5.27 9.87-8.38 8.4 -3.12-1.48-7.8-9.88-.09-12.41 -3.49 4.53 1.63 8.5.6 11.1 1.03-2.61 7.19-1.24 7.85-7.11Z"/><path fill="#005800" d="M207.13 118.608c-3.49 4.53 1.67 8.23.63 10.83 -1.18-2.28-4.16-8.17-.64-10.84Zm8.45 4c3.56 7.872-5.27 9.87-8.38 8.4 9.57-1.11 8.96-2.98 8.37-8.41Z"/><path fill="#007F00" d="M80.12 97.32c-4.97-7.08 3.33-10.68 6.67-9.81 3.33.87 9.5 8.25 2.38 12.17 2.58-5.1-3.2-8.05-2.66-10.8 -.54 2.74-6.85 2.54-6.41 8.42Z"/><path fill="#005800" d="M89.187 99.695c2.58-5.1-3.18-7.78-2.64-10.52 1.58 2.01 5.59 7.25 2.63 10.52Zm-9.07-2.37c-4.97-7.08 3.33-10.68 6.67-9.81 -9.21 2.85-8.262 4.57-6.68 9.8Z"/><path fill="#007F00" d="M127.169 164.758c-8.12 2.95-9.52-5.98-7.84-8.97 1.68-2.99 10.41-7.01 12.41.85 -4.3-3.81-8.62.98-11.16-.25 2.53 1.22.74 7.24 6.56 8.35Z"/><path fill="#005800" d="M131.755 156.64c-4.3-3.81-8.35 1.04-10.88-.19 2.35-1.01 8.45-3.51 10.88.18Zm-4.59 8.1c-8.12 2.95-9.52-5.98-7.84-8.97 .44 9.6 2.36 9.14 7.83 8.96Z"/><path fill="#007F00" d="M124.56 34.552c4.82-7.17 11.22-.8 11.62 2.6 .39 3.4-4.29 11.79-10.55 6.63 5.72.53 6.38-5.88 9.15-6.39 -2.78.5-4.88-5.41-10.25-2.86Z"/><path fill="#005800" d="M125.64 43.79c5.72.53 6.13-5.77 8.9-6.27 -1.32 2.19-4.77 7.81-8.91 6.26Zm-1.09-9.25c4.82-7.17 11.22-.8 11.62 2.6 -6.04-7.477-7.31-5.98-11.63-2.61Z"/><path fill="#007F00" d="M207.936 139.608c.51 8.62-8.45 7.38-10.83 4.9 -2.38-2.48-3.76-12 4.35-11.64 -4.88 3.01-1.51 8.53-3.41 10.6 1.89-2.07 7.15 1.38 9.875-3.88Z"/><path fill="#005800" d="M201.47 132.874c-4.88 3.01-1.38 8.29-3.28 10.36 -.29-2.55-.96-9.11 3.27-10.36Zm6.46 6.73c.51 8.62-8.45 7.38-10.83 4.9 9.33 2.35 9.43.38 10.82-4.91Z"/><path fill="#007F00" d="M205.08 58.83c8.47 1.68 4.97 10.03 1.97 11.7 -3.01 1.67-12.57.58-10.143-7.16 1.66 5.47 7.87 3.62 9.38 5.98 -1.52-2.36 3.17-6.57-1.22-10.53Z"/><path fill="#005800" d="M196.9 63.38c1.66 5.47 7.66 3.43 9.18 5.79 -2.54-.37-9.06-1.39-9.19-5.8Zm8.17-4.55c8.47 1.68 4.97 10.03 1.97 11.7 4.66-8.43 2.78-9.03-1.98-11.71Z"/><path fill="#007F00" d="M98.102 52.54c.08-8.64 8.93-6.79 11.14-4.16 2.2 2.63 2.9 12.22-5.16 11.31 5.07-2.68 2.1-8.42 4.13-10.35 -2.04 1.93-7.05-1.88-10.13 3.186Z"/><path fill="#005800" d="M104.08 59.7c5.07-2.68 1.95-8.177 3.98-10.11 .11 2.56.32 9.15-3.99 10.11Zm-5.99-7.17c.08-8.64 8.93-6.79 11.14-4.16 -9.15-2.99-9.387-1.03-11.14 4.15Z"/><path fill="#007F00" d="M87.857 130.011c-7.73-3.87-2.13-10.99 1.22-11.8 3.34-.82 12.27 2.76 7.87 9.58 -.15-5.72-6.63-5.58-7.46-8.247 .83 2.67-4.82 5.48-1.64 10.46Z"/><path fill="#005800" d="M96.956 127.8c-.15-5.72-6.48-5.34-7.32-8.012 2.35 1.02 8.36 3.73 7.31 8.012Zm-9.1 2.21c-7.73-3.87-2.13-10.99 1.22-11.8 -6.753 6.88-5.1 7.95-1.23 11.79Z"/><path fill="#007F00" d="M180.26 38.461c8.09-3.02 9.57 5.9 7.9 8.9 -1.67 2.997-10.36 7.09-12.43-.76 4.33 3.77 8.613-1.06 11.15.15 -2.55-1.21-.8-7.24-6.64-8.296Z"/><path fill="#005800" d="M175.74 46.607c4.33 3.77 8.33-1.11 10.88.09 -2.35 1.02-8.43 3.57-10.88-.1Zm4.51-8.146c8.09-3.02 9.57 5.9 7.9 8.9 -.53-9.61-2.44-9.12-7.91-8.9Z"/><path fill="#007F00" d="M161.29 168.73c-6.97 5.1-10.84-3.07-10.06-6.4 .78-3.34 8.02-9.637 12.17-2.67 -5.21-2.45-8.01 3.36-10.79 2.89 2.77.46 2.75 6.74 8.66 6.16Z"/><path fill="#005800" d="M163.418 159.67c-5.21-2.45-7.73 3.34-10.51 2.87 1.98-1.63 7.13-5.74 10.5-2.88Zm-2.12 9.05c-6.97 5.1-10.84-3.07-10.06-6.4 3.13 9.08 4.84 8.1 10.05 6.39Z"/><path fill="#007F00" d="M218.32 103.819c5.91 6.3-1.81 11.03-5.23 10.64 -3.43-.4-10.57-6.84-4.08-11.71 -1.84 5.41 4.29 7.51 4.15 10.31 .14-2.8 6.42-3.48 5.15-9.25Z"/><path fill="#005800" d="M209.02 102.748c-1.84 5.41 4.23 7.247 4.09 10.04 -1.86-1.78-6.57-6.4-4.1-10.04Zm9.3 1.07c5.91 6.3-1.81 11.03-5.23 10.64 8.72-4.12 7.53-5.7 5.23-10.64Z"/><path fill="#289400" d="M107.34 126.97c.61.28 0-2 .2-2.85 .24-.9 1.99 2.19 2.84 2.6 .89.44 6.34-2.16 6.34-2.16l1.3-2.45 .69 1.99s1.5-1.75 1.95-2.41c.44-.66 0 1.3-.45 1.95 -.45.65 1.3.89 1.1 2.19 -.21 1.3 1.74-.9 1.74-.9l5.04.44s.85-3.06 2.19-4.81l.4 1.95 2.07-2.12c2.31 6.1 7.2 12.73 17.21 16.36 9.4-3.42 14.24-9.49 16.76-15.27l2.8 2.89s2.19-.66 2.6-.9c.44-.21 5.16 1.67 5.16 1.67s.85.32 1.3.65c.44.32.12-1.43.12-1.43s2.4.44 2.19 1.75c0 0 .53-1.22.97-1.43 .44-.21 1.5 1.1 1.75 1.54 .2.4 5.37 1.05 6.1 1.5 0 0 .57.65.57 1.1 0 0 1.1-.13 1.95-.13 0 0-.65.32-.65 1.01 0 .65-.33 1.18-.98 1.5 -.66.32 0 .57.85.65 .89.12 0 1.22-1.75 1.87 0 0-.41.97.32 1.3 0 0-1.51.12-1.75-.33 0 0-.53 1.01-.53 1.54 0 0-1.63-.53-2.08-.78 0 0-.66.65-.21.97 0 0-2.97-.33-3.54-1.43 0 0-1.06.32-.86.69 0 0-2.08-1.43-2.73-1.43l-.45.73s-1.43-.86-1.88-.86c-.41 0-.09.65-.09.65l-2-1.23 -.78 1.22s-1.63-.78-2.08-1.1c-.41-.33-.53.65-.86.77 0 0-.65-.9-1.55-.78 0 0-.33 1.1-.21 1.42 0 0-2.53-.53-2.97-.65 -.45-.13-.21.52 0 .97 0 0-1.88-.53-2.28-.86l-.13.85s-1.55-.13-1.88-.45l-.98 1.34h-1.43l-.33 1.18s-2.73-.78-2.97-.33c-.21.44.12 1.1.12 1.1s-2.2 0-2.41-.33l-.21.97s-2.77-.86-3.42-.45c0 0-.86.89-1.43 1.1 -.53.24 0-.33 0-.33l-.86-1.18s-.98.52-1.55.32c-.53-.25-2.28.85-2.85.53 0 0 0-.78-.45-.98 -.41-.21-1.18-.21-1.51.32 0 0-.33-.45-.9-1.31 -.53-.9-1.31.08-1.31.08l-.13-1.06s-.65 0-1.51-.13c-.9-.13-1.1-.9-1.1-.9s-2.32.24-2.65.12l.57-.53s-3.18.65-3.83.4c-.7-.21.73-1.1.73-1.1s-2.93-.74-3.5-.86c-.53-.13-3.71.52-4.15.52 -.45 0-.66-.74-.66-.74s-.78.65-1.43.85c0 0-.53-1.31-.21-1.43 0 0-2.08.57-2.2 1.1 0 0-.53-.86-.45-1.23 0 0-.98 1.54-1.43 1.87 -.45.32-.09-.78-.09-.78s-1.22 1.54-1.67 1.66v-1.1s-3.5 1.87-4.48 1.62c0 0 0-.78.32-.98 0 0-1.63 0-2.2-.12 -.53-.09-1.18-.33-1.75-.45 -.53-.09.77-.66 1.66-.41 0 0-2.45-.9-3.18-.45 0 0-.33-.9.97-1.22 0 0-1.67-1.63-2.65-1.51 0 0 1.1-.66 1.99-.33 0 0-1.02-2.77-1.67-3.1 0 0 2.31-.41 2.97-.09"/><path fill="none" fill-rule="evenodd" stroke="#060" stroke-width=".5" d="M107.34 126.97c.61.28 0-2 .2-2.85 .24-.9 1.99 2.19 2.85 2.6 .89.44 6.34-2.16 6.34-2.16l1.3-2.45 .69 1.99s1.5-1.75 1.95-2.41c.44-.66 0 1.3-.45 1.95 -.45.65 1.3.89 1.1 2.19 -.21 1.3 1.74-.9 1.74-.9l5.04.44s.85-3.06 2.19-4.81l.4 1.95 2.07-2.12c2.31 6.1 7.2 12.73 17.214 16.36 9.4-3.42 14.24-9.49 16.76-15.27l2.8 2.89s2.19-.66 2.6-.9c.44-.21 5.16 1.67 5.16 1.67s.85.32 1.3.65c.44.32.12-1.43.12-1.43s2.4.44 2.19 1.75c0 0 .53-1.22.97-1.43 .44-.21 1.5 1.1 1.75 1.54 .2.4 5.37 1.05 6.1 1.5 0 0 .57.65.57 1.1 0 0 1.1-.13 1.95-.13 0 0-.65.32-.65 1.01 0 .65-.33 1.18-.98 1.5 -.65.32 0 .57.85.65 .89.12 0 1.22-1.75 1.87 0 0-.41.97.32 1.3 0 0-1.51.12-1.75-.33 0 0-.53 1.01-.53 1.54 0 0-1.63-.53-2.08-.78 0 0-.66.65-.21.97 0 0-2.97-.33-3.54-1.43 0 0-1.06.32-.86.69 0 0-2.08-1.43-2.73-1.43l-.45.73s-1.43-.86-1.88-.86c-.41 0-.09.65-.09.65l-2-1.22 -.78 1.22s-1.63-.78-2.08-1.1c-.41-.33-.53.65-.86.77 0 0-.65-.9-1.55-.78 0 0-.33 1.09-.21 1.42 0 0-2.53-.53-2.97-.66 -.45-.12-.21.53 0 .97 0 0-1.88-.53-2.28-.86l-.13.85s-1.55-.13-1.88-.45l-.98 1.34h-1.43l-.33 1.18s-2.73-.78-2.97-.33c-.21.44.12 1.09.12 1.09s-2.2 0-2.41-.33l-.21.97s-2.77-.86-3.42-.45c0 0-.86.89-1.43 1.1 -.53.24 0-.33 0-.33l-.86-1.18s-.98.53-1.55.32c-.53-.25-2.28.85-2.85.52 0 0 0-.78-.45-.98 -.41-.21-1.18-.21-1.51.32 0 0-.33-.45-.9-1.31 -.53-.9-1.31.08-1.31.08l-.13-1.06s-.66 0-1.51-.13c-.9-.13-1.1-.9-1.1-.9s-2.32.24-2.65.12l.57-.53s-3.18.65-3.83.4c-.7-.21.73-1.1.73-1.1s-2.94-.74-3.5-.86c-.53-.13-3.71.52-4.16.52 -.45 0-.66-.74-.66-.74s-.78.65-1.43.85c0 0-.53-1.31-.21-1.43 0 0-2.08.57-2.2 1.1 0 0-.53-.86-.45-1.23 0 0-.98 1.54-1.43 1.87 -.45.32-.09-.78-.09-.78s-1.22 1.54-1.67 1.66v-1.1s-3.5 1.87-4.48 1.62c0 0 0-.78.32-.98 0 0-1.63 0-2.2-.13 -.53-.08-1.18-.33-1.75-.45 -.53-.09.77-.66 1.66-.41 0 0-2.45-.9-3.18-.45 0 0-.33-.9.97-1.22 0 0-1.67-1.63-2.65-1.51 0 0 1.1-.66 1.99-.33 0 0-1.02-2.77-1.67-3.1 0 0 2.32-.41 2.97-.09l-.01-.01Z"/><path fill="#9DD7FF" d="M134.89 124.777v0c-1.02-1.72-1.85-3.53-2.49-5.42l17.62-15.51 17.62 15.46c-.62 1.79-1.43 3.7-2.57 5.53l-.09.12c-.33-.12-1.39-.41-1.39-.41s-.57.53-1.02.57c-.61.08-1.14-.53-1.14-.53s-.78.65-1.55.52c-.78-.09-1.1-.57-1.1-.57s-.82.65-1.39.53c-.53-.13-.9-.49-.9-.49s-.49.61-1.18.49c-.65-.13-1.27-.49-1.27-.49s-1.02.44-1.67.53c-.65.12-1.22-.57-1.22-.57s-.86.57-1.18.57c-.33 0-1.55-.57-1.55-.57s-1.27.4-1.71.4c-.41 0-1.67-.53-1.67-.53s-1.18.32-1.71.32c-.57 0-1.39-.33-1.39-.33s-.98.44-1.51.32c-.57-.13-1.02-.33-1.02-.33s-1.06.44-1.75.32c-.65-.13-1.43-.57-1.43-.57s-.13.32-1.39.56h-.04"/><path fill="none" fill-rule="evenodd" stroke="#000" stroke-width=".5" d="M153.94 115.905s3.5 1.99 0 5.82"/><path fill="#730000" d="M137.865 121.072s.97.53 3.62 1.46c2.23.77 4.84 1.13 8.62 1.13 7.69 0 7.56-1.31 7.56-1.31l-2.73 2.76s-11.44.08-12.95-.7c-.78-.41-2.45-1.75-4.15-3.378"/><g stroke-width=".5" fill-rule="evenodd" stroke="#000" fill="none"><path d="M137.865 121.07s.97.53 3.62 1.46c2.23.77 4.84 1.13 8.62 1.13 7.69 0 7.56-1.31 7.56-1.31l-2.73 2.76s-11.44.08-12.95-.7c-.78-.41-2.45-1.75-4.15-3.378v0 0Z"/><path d="M138.19 121.277l5.04-4.81 -.57 6.43m2.64.57V112.72m8.62 10.744v-11.4m-4.36 11.59V111.4"/></g><path fill="#FF0018" d="M145.31 113.298l-2.28.73 2.28.24v-.98"/><path fill="none" fill-rule="evenodd" stroke="#000" stroke-width=".5" d="M145.31 113.3l-2.28.73 2.28.24v-.98"/><use fill="#FF0018" xlink:href="#e"/><use fill="none" fill-rule="evenodd" stroke="#000" stroke-width=".5" xlink:href="#e"/><path fill="#FF0018" d="M153.939 112.281l-2.41.89 2.4.12v-1.02"/><path fill="none" fill-rule="evenodd" stroke="#000" stroke-width=".5" d="M153.94 112.281l-2.41.89 2.4.12v-1.02Z"/><path fill="#FFF" d="M138.964 120.62l4.27-4.16 -.21 2.48s-2.2 1.42-2.2 2.44l-1.88-.78"/><path fill="none" fill-rule="evenodd" stroke="#000" stroke-width=".5" d="M138.964 120.62v0l4.27-4.16 -.21 2.48s-2.2 1.42-2.2 2.44l-1.88-.78"/><path fill="#FFF" d="M141.242 121.479s.44-1.31 1.66-1.96l-.13 2.6 -1.55-.66"/><path fill="none" fill-rule="evenodd" stroke="#000" stroke-width=".5" d="M141.242 121.48s.44-1.31 1.66-1.96l-.13 2.6 -1.55-.66v0Z"/><path fill="#FFF" d="M147.38 114.276s1.75-.25 3.05 0c0 0-.21 1.75 0 2.07 0 0-2.4-.57-3.38.32 0 0-.33-1.63.32-2.4"/><path fill="none" fill-rule="evenodd" stroke="#000" stroke-width=".5" d="M147.38 114.276s1.74-.25 3.05 0c0 0-.21 1.75 0 2.07 0 0-2.4-.57-3.38.32 0 0-.33-1.63.32-2.4v0Z"/><path fill="#FFF" d="M143.684 114.723s1.75-.25 3.05 0c0 0-.33 1.95-.13 2.28 0 0-1.96-1.1-2.93-.21 0 0-.66-1.35 0-2.08"/><path fill="none" fill-rule="evenodd" stroke="#000" stroke-width=".5" d="M143.684 114.724s1.75-.25 3.05 0c0 0-.33 1.95-.13 2.28 0 0-1.96-1.1-2.93-.21 0 0-.66-1.35 0-2.08Z"/><path fill="#FFF" d="M143.562 117s1.75-.21 3.05 0c0 0-.21 1.75 0 2.07 0 0-2.28-.53-3.26.32 0 0-.45-1.63.2-2.4"/><path fill="none" fill-rule="evenodd" stroke="#000" stroke-width=".5" d="M143.562 117s1.75-.21 3.05 0c0 0-.21 1.75 0 2.07 0 0-2.28-.53-3.26.32 0 0-.45-1.63.2-2.4Z"/><path fill="#FFF" d="M147.062 116.67s2.52-.33 3.82-.13c0 0-.53 1.42.12 2.4 0 0-2.73-.74-3.75.12 0 0-.86-1.63-.21-2.4"/><path fill="none" fill-rule="evenodd" stroke="#000" stroke-width=".5" d="M147.062 116.677s2.52-.33 3.82-.13c0 0-.53 1.42.12 2.4 0 0-2.73-.74-3.75.12 0 0-.86-1.63-.21-2.4v0Z"/><path fill="#FFF" d="M143.35 119.404s2.07 0 3.37.24c0 0-.33 2.48-.13 2.8 0 0-2.73-.65-3.26.24 0 0-.9-2.28 0-3.3"/><path fill="none" fill-rule="evenodd" stroke="#000" stroke-width=".5" d="M143.35 119.4s2.07 0 3.37.24c0 0-.33 2.48-.13 2.81 0 0-2.73-.66-3.26.24 0 0-.9-2.28 0-3.3v0Z"/><path fill="#FFF" d="M147.184 119.4s2.93-.21 4.27 0c0 0-.78 1.87.08 3.5 0 0-3.83-1.1-4.36-.21 0 0-.9-2.28-.01-3.3"/><path fill="none" fill-rule="evenodd" stroke="#000" stroke-width=".5" d="M147.18 119.4s2.92-.21 4.27 0c0 0-.78 1.87.08 3.5 0 0-3.83-1.1-4.36-.21 0 0-.9-2.28 0-3.3v0Z"/><path fill="#FFF" d="M151.66 114.276s1.75-.25 3.05 0c0 0-.21 1.75 0 2.07 0 0-2.41-.57-3.38.32 0 0-.33-1.63.32-2.4"/><path fill="none" fill-rule="evenodd" stroke="#000" stroke-width=".5" d="M151.66 114.276s1.74-.25 3.05 0c0 0-.21 1.75 0 2.07 0 0-2.41-.57-3.38.32 0 0-.33-1.63.32-2.4Z"/><path fill="#FFF" d="M151.66 116.67s1.75-.21 3.05 0c0 0-.21 1.75 0 2.07 0 0-2.41-.53-3.38.32 0 0-.33-1.63.32-2.4"/><path fill="none" fill-rule="evenodd" stroke="#000" stroke-width=".5" d="M151.66 116.67s1.74-.21 3.05 0c0 0-.21 1.75 0 2.07 0 0-2.41-.53-3.38.32 0 0-.33-1.63.32-2.41Z"/><path fill="#FFF" d="M151.863 119.2s1.75-.25 3.09 0c0 0-.45 2.72-.25 3.05 0 0-2-.94-2.93-.13 0 0-.57-2.16.08-2.94"/><path fill="none" fill-rule="evenodd" stroke="#000" stroke-width=".5" d="M151.863 119.2s1.75-.25 3.09 0c0 0-.45 2.72-.25 3.05 0 0-2-.94-2.93-.13 0 0-.57-2.16.08-2.94v0Z"/><path fill="#FF0018" d="M155.36 117.45c-.13-.49 1.42-.45 1.42-.45s.44 1.63 0 2.64l-1.31-.25s.12-1.1-.13-1.96"/><path fill="none" fill-rule="evenodd" stroke="#000" stroke-width=".5" d="M155.363 117.45c-.13-.49 1.42-.45 1.42-.45s.44 1.62 0 2.64l-1.31-.25s.12-1.1-.13-1.96v0Z"/><path fill="#FFF" d="M155.48 119.4s.57 2.07 1.3 2.32l-.98 1.18s-1.18-.86-1.31-1.83c0 0 .77-.9.97-1.67"/><path fill="none" fill-rule="evenodd" stroke="#000" stroke-width=".5" d="M155.48 119.4s.57 2.07 1.3 2.32l-.98 1.18s-1.18-.86-1.31-1.83c0 0 .77-.9.97-1.67Z"/><path fill="#006AC8" d="M165.008 125.02c-2.81 4.68-7.41 9.07-14.98 11.8 -7.7-2.77-12.38-7.37-15.14-12.01l.04-.04c1.26-.25 1.38-.57 1.38-.57s.77.44 1.42.57c.69.12 1.75-.33 1.75-.33s.44.2 1.01.32c.53.12 1.5-.33 1.5-.33s.81.32 1.38.32c.52 0 1.71-.33 1.71-.33s1.26.52 1.66.52c.44 0 1.71-.41 1.71-.41s1.22.57 1.54.57c.32 0 1.18-.57 1.18-.57s.57.69 1.22.57c.65-.09 1.66-.53 1.66-.53s.61.36 1.26.48c.69.12 1.18-.49 1.18-.49s.36.36.89.48c.57.12 1.38-.53 1.38-.53s.32.48 1.1.57c.77.12 1.54-.53 1.54-.53s.52.61 1.14.52c.44-.04 1.01-.57 1.01-.57s1.01.32 1.38.44"/><path fill="none" fill-rule="evenodd" stroke="#000" stroke-width=".5" d="M164.31 126.07c-.62.04-.7-.37-.7-.37s-.82.69-1.59.57c-.82-.13-1.18-.66-1.18-.66s-.86.69-1.43.57c-.57-.09-.98-.49-.98-.49s-.53.61-1.22.48c-.7-.09-1.31-.49-1.31-.49s-1.1.44-1.8.57c-.7.12-1.26-.66-1.26-.66s-1.59.53-1.92.53c-.37 0-1.51-.53-1.51-.53s-.78.49-1.23.49c-.49 0-1.8-.57-1.8-.57s-1.22.32-1.8.32c-.57 0-1.43-.33-1.43-.33s-1.06.44-1.63.32h-.001c-.35-.08-.7-.19-1.02-.33 0 0-1.14.44-1.84.32 -.7-.13-1.51-.57-1.51-.57s-.12.28-1.47.57h-.04"/><path fill="#FFF" d="M150.033 86.029v17.82l-17.62 15.59c-1.71-4.97-1.84-9.41-1.84-11.32v-22.11h19.45"/><path fill="none" fill-rule="evenodd" stroke="#000" stroke-width=".5" d="M150.032 86.03v17.82l-17.63 15.58c-1.71-4.97-1.83-9.41-1.83-11.32V86h19.45"/><path fill="#FFD83C" d="M150.03 86.029v17.82l17.58 15.59c1.71-4.97 1.83-9.41 1.83-11.32v-22.11h-19.42"/><path fill="none" fill-rule="evenodd" stroke="#000" stroke-width=".5" d="M150.032 86.03v17.82l17.58 15.58c1.7-4.97 1.83-9.41 1.83-11.32V86h-19.41"/><path fill="#B34B00" d="M132.004 90.912l11.07 12c.52.4 1.01 1.58 1.01 2.68 0 .4 1.14.97 1.3 1.05 .48.2.61-.74.56-.86 -.13-.33-.33-.61-.33-.61 .12-.13.44.36.93.56 .4.2.77-.37.57-.94 -.17-.57-.41-.74-.9-.98 0 0-1.27-.37-1.47-.7 -.37-.7-1.39-1.88-1.67-2.2l-8.35-12.46c-.74-.74-1.92-.98-2.69-.41 -.49.36-.78 2.03-.09 2.8"/><path fill="none" fill-rule="evenodd" stroke="#000" stroke-width=".5" d="M132.004 90.91l11.07 12c.52.4 1.01 1.58 1.01 2.68 0 .4 1.14.97 1.3 1.05 .48.2.61-.74.56-.86 -.13-.33-.33-.61-.33-.61 .12-.13.44.36.93.56 .4.2.77-.37.57-.94 -.17-.57-.41-.74-.9-.98 0 0-1.27-.37-1.47-.7 -.37-.7-1.39-1.88-1.67-2.2l-8.35-12.46c-.74-.74-1.92-.98-2.69-.41 -.49.36-.78 2.03-.09 2.8v-.01Zm.48-2.04l10.94 13.67"/><path fill="#730000" d="M132.493 106.05l10.86-12.91s.52.77 1.42 1.3l-10.62 12.82s-.98.08-1.67-1.22"/><path fill="none" fill-rule="evenodd" stroke="#000" stroke-width=".5" d="M132.49 106.05l10.86-12.91s.52.77 1.42 1.3l-10.62 12.82c0-.01-.98.08-1.67-1.22Z"/><path fill="#FFF" d="M142.26 91.6s-.13-1.75 2.07-2.41c0 0 3.17 1.1 4.02 3.5 0 0-.86 2.4-2.41 2.31 0 0-2.08-.45-3.71-3.42"/><g stroke-width=".5" fill-rule="evenodd" stroke="#000" fill="none"><path d="M142.26 91.6s-.13-1.75 2.07-2.4c0 0 3.17 1.1 4.02 3.5 0 0-.86 2.4-2.41 2.31 0 0-2.08-.45-3.71-3.42Z"/><path stroke="#7E4B7E" stroke-width=".57" d="M142.91 91.402s.65 1.5 2.6 2.72c0 0-.33-1.96 2.07-1.43"/></g><path fill="#730000" d="M168.508 106.38c-.37.28-1.1.44-1.1.44 -.7-.82-1.63-2.04-2.61-3.1l-10.63-13.07 1.09-1.06 9.56 11.19c.28.28 2.31 2.4 3.9 4.47 0 0 .24.73-.25 1.09"/><path fill="none" fill-rule="evenodd" stroke="#000" stroke-width=".5" d="M168.508 106.38c-.37.28-1.1.44-1.1.44 -.7-.82-1.63-2.04-2.61-3.1l-10.63-13.07 1.09-1.06 9.56 11.19c.28.28 2.32 2.4 3.9 4.47 0 0 .24.73-.25 1.09Z"/><path fill="#FFF" d="M157.805 92.338l-1.71-2.04s-1.31.16-1.55.85c0 0-.94 1.54-3.42 1.71 0 0 .69 2.88 3.58 4.43 0 0 1.06-2.97 2.07-3.5 0 0 1.05-.78 1.01-1.47"/><g stroke-width=".5" fill-rule="evenodd" stroke="#000" fill="none"><path d="M157.8 92.338l-1.71-2.04s-1.31.16-1.55.85c0 0-.94 1.54-3.42 1.71 0 0 .69 2.88 3.58 4.43 0 0 1.05-2.98 2.07-3.5 0 0 1.06-.78 1.02-1.47v0Z"/><path stroke="#7E4B7E" d="M154.794 91.524c.44.44 1.7 2.07 1.7 2.07m-1.14-1.18c-.08.24-.25.93-.61 1.3m.81-1.14c-.04.16-.04.69-.61 1.22m.81-.98c-.09.28-.13.48-.33.69m.44-.45c0 .2-.12.24-.17.36m-1.35-1.14c-.17.16-1.35.93-2 1.18m1.66-.74c-.17.16-.9.73-1.31.89m1.18-.41c-.25.16-.66.57-.98.69m.73-.21c-.17.2-.41.36-.61.48"/></g><path fill="#FFF" d="M153.289 101.61l12.04-11.97 2.97 3.17s-.61-.25-.86-.09c-.21.16.24.77.24.77s-.57-.21-.82-.04c-.29.16 0 .85 0 .85s-.49-.37-.74-.21c-.21.16 0 .93 0 .93s-.66-.21-.82-.05c-.17.16 0 .85 0 .85s-.66-.33-.98 0c-.33.32.16.77.16.77s-.82-.33-1.14.16c-.33.49.04.93.04.93s-.65-.33-.82-.17c-.17.16 0 .93 0 .93s-.57-.33-.94.08c-.37.44.04.81.04.81s-.53-.33-.82-.17c-.29.16.08.93.08.93s-.53-.37-.9 0c-.37.4 0 .81 0 .81s-.45-.41-.9 0c-.41.44 0 .89 0 .89s-.66-.33-.9 0c-.29.32.08.77.08.77s-.49-.29-.82-.13c-.33.16 0 .89 0 .89s-.49-.53-.7-.25c-.25.28.04.97.04.97s-.45-.53-.7-.25c-.29.24.16.85.16.85s-.82-.37-.61-.37c.04 0-2.49-2.81-2.49-2.81"/><path fill="none" fill-rule="evenodd" stroke="#000" stroke-width=".5" d="M153.289 101.618l12.04-11.97 2.97 3.17s-.61-.25-.86-.09c-.21.16.24.77.24.77s-.57-.21-.82-.04c-.29.16 0 .85 0 .85s-.49-.37-.74-.21c-.21.16 0 .93 0 .93s-.66-.21-.82-.04c-.17.16 0 .85 0 .85s-.66-.33-.98 0c-.33.32.16.77.16.77s-.82-.33-1.14.16c-.33.49.04.93.04.93s-.65-.33-.82-.17c-.17.16 0 .93 0 .93s-.57-.33-.94.08c-.37.44.04.81.04.81s-.53-.33-.82-.17c-.29.16.08.93.08.93s-.53-.37-.9 0c-.37.4 0 .81 0 .81s-.45-.41-.9 0c-.41.44 0 .89 0 .89s-.65-.33-.9 0c-.29.32.08.77.08.77s-.49-.29-.82-.13c-.33.16 0 .89 0 .89s-.49-.53-.7-.25c-.25.28.04.97.04.97s-.45-.53-.7-.25c-.29.24.16.85.16.85s-.82-.37-.61-.37c.04 0-2.49-2.81-2.49-2.81v0h0Z"/><path fill="#7E4B7E" d="M164.642 90.62l-.94.93 .2 3.21s.2-.94.48-.29c0 0 .08-.78.28-.65 -.17-.09-.04-3.22-.04-3.22m-1.75 1.75l-.7.65 .24 3.21s.2-1.22.48-.25c0 0-.04-.82-.04-1.1v-2.53m-7.29 7.2l-.66.69 .16 1.95s.2-1.26.48-.29c0 0-.09-.82-.09-1.1 0 .2.08-1.27.08-1.27"/><path fill="#730000" d="M153.533 101.37c-.25-.08-.49 0-.86.2 -.33.2-.74.12-.7-.29 .04-.37 0-.33.44-.61 .65-.37 1.5-.41 2.03-.21l-.94.89"/><path fill="none" fill-rule="evenodd" stroke="#000" stroke-width=".5" d="M153.533 101.373c-.25-.09-.49 0-.86.2 -.33.2-.74.12-.7-.29 .04-.37 0-.33.44-.61 .65-.37 1.5-.41 2.03-.21l-.94.89"/><path fill="#730000" d="M165.13 89.81c-.08-.29-.17-.57.12-.94 .28-.33.28-.9-.41-.61 -.7.28-.94 1.05-.37 2.23l.65-.7"/><path fill="none" fill-rule="evenodd" stroke="#000" stroke-width=".5" d="M165.13 89.81c-.09-.29-.17-.57.12-.94 .28-.33.28-.9-.41-.61 -.7.28-.94 1.05-.37 2.23l.65-.7v0Z"/><path fill="#730000" d="M196.91 77.97c.2.08.77-.82.2-1.23 0 0-.21-.78-.86-.82 0 0-.53-.78-1.31-.66 0 0-.86-.61-1.18-.57 -.37.08-1.18.89-1.23 1.18 -.04.24 0 .73.2.97 .24.2.4-.04.44-.41 0 0-.17.61.32.89 .48.28.44.04.48-.29 0 0 .12.65.44.77s.53-.17.77-.17c0 0-.41.32-.13.52 .28.24.61.12.81-.04 .24-.17.12-.7.97-.21"/><g stroke-width=".5" fill-rule="evenodd" stroke="#000" fill="none"><path d="M196.91 77.97c.2.08.77-.82.2-1.22 0 0-.21-.78-.86-.82 0 0-.53-.78-1.31-.66 0 0-.86-.61-1.18-.57 -.37.08-1.18.89-1.22 1.18 -.04.24 0 .73.2.97 .24.2.4-.04.44-.41 0 0-.17.61.32.89 .48.28.44.04.48-.29 0 0 .12.65.44.77s.53-.17.77-.17c0 0-.41.32-.13.52 .28.24.61.12.81-.05 .24-.17.12-.7.97-.21Zm-3.67-1.51c.2-.7.89-1.26 1.62-1.14"/><path d="M194.02 77.076c.08-.17.12-.33.24-.49 .36-.61 1.18-.61 1.83-.74m-1.02 1.79c.24-.17.32-.45.57-.57 .4-.21.85-.37 1.3-.29"/></g><path fill="#730000" d="M162.363 50.7s.24-.57.69-.25c.4.32.52 1.75.52 1.75l-.66.32c-.01-.01.36-.53-.57-1.84"/><path fill="none" fill-rule="evenodd" stroke="#000" stroke-width=".5" d="M162.36 50.7s.24-.57.69-.25c.4.32.52 1.75.52 1.75l-.66.32s.36-.53-.57-1.83Z"/><path fill="#730000" d="M158.66 63.48s.32-.45-.13-1.43l.65-.21s.24.77-.09 1.62h-.45"/><path fill="none" fill-rule="evenodd" stroke="#000" stroke-width=".5" d="M158.66 63.481s.32-.45-.13-1.43l.65-.21s.24.77-.09 1.62h-.45"/><path fill="#6F6" d="M163.54 50.17s-.49-.04-.94-.37l.93.36"/><path fill="none" fill-rule="evenodd" stroke="#060" stroke-width=".5" d="M163.54 50.17s-.49-.04-.94-.37"/><path fill="#730000" d="M169.93 61.24l-1.55.93 .77.36 1.87-1.1 -1.1-.21"/><path fill="none" fill-rule="evenodd" stroke="#000" stroke-width=".5" d="M169.933 61.241l-1.55.93 .77.36 1.87-1.1 -1.1-.21"/><path fill="#730000" d="M149.21 67.305c-.41.32-.45.89-.7 1.22 -.21.32-.82.77-.86 1.26 -.09.48-.13.81.08 1.46 .24.65 1.26 3.54.85 5.74 -.45 2.19-.29 3.13-.13 3.45 .16.32.65 1.22.93 1.22 .65-.08.36-.29.61-.7 .61-1.06 0-9.24-.29-11.52 -.21-1.75-1.02-3.34-1.1-3.5 -.09-.21-.25-.74-.37-1.06 -.61-1.47-1.35-2.73-1.35-5.78 0 0-2 .44-3.71-3.42 -.9-1.96-2.2-1.76-3.75-2.41l.69-.45s1.3.65 1.95.65c.65 0 .44-1.31.44-1.31l.65-.65v2.84c0 1.3 1.79 3.09 2.84 3.622 .65.32 1.5-1.02 1.3-2.32 -.21-1.31 0-3.06 0-3.06l.89.52s-.33.57-.25.89c.12.32.57-.33.89-.66 0 0 .08.08.4.08 0 0-.66 1.09-.98 1.67 -.33.52-.33 2.6-.33 3.37s.28 2.56.28 3.13c0 .4.77 2.07 1.38 3.09 .2.4.69 1.46.69 1.46 .48.77.53 1.3.81 1.95 .16.32.44 1.26.65 2.89 .08.4.16 1.95.28 2.97 .12.97.93.2 1.91-.49 .97-.74.97-2.49.97-2.49s.77-.66.65-.29c-.09.4.4.81.4.81 -.62 1.38-.25 1.22.36 1.18 .61-.08 2.72-1.67 2.72-1.67 .28-.09 1.54-.09 1.34 0 -.25.12-.57.73-.57.73l1.38-.17c-.49.36-2.32 1.42-2.73 1.66 -.45.28-2.65 1.34-3.59 1.71 -.94.4-2.77 1.3-2.85 2.23 -.04.93.12 3.46 0 4.27 -.09.81-.41 4.43-.41 4.43h-4.36s.85-3.18-.04-4.03c-.86-.9-2.85-3.5-4.16-4.4 -1.31-.86.85-.21.85-.21v-.9l1.99 2.4s3.46-3.06 0-7.21c-1.1-1.31-2.2-3.3-3.06-3.5 -.9-.25-1.35-.45-2.85 0 -1.55.44-5.25.44-6.8-2l1.3-.21 1.09-.45s-.45 1.54 2.64 1.54c3.05 0 3.5 0 3.25-2.85l.89-.45 .65.65s-.45 1.54-.21 2.19c.2.65 1.3 1.1 2.15 1.75 .36.28.65.32.89.32 .36-.05.44-.05.93-.53 .73-.82.57-.78 1.3-1.43 0 0 .36-.57.44-.66l.44 1.18"/><path fill="none" fill-rule="evenodd" stroke="#000" stroke-width=".5" d="M149.21 67.306c-.41.32-.45.89-.7 1.22 -.21.32-.82.77-.86 1.26 -.09.48-.13.81.08 1.46 .24.65 1.26 3.54.85 5.74 -.45 2.19-.29 3.13-.13 3.45 .16.32.65 1.22.93 1.22 .65-.08.36-.29.61-.7 .61-1.06 0-9.24-.29-11.52 -.21-1.75-1.02-3.34-1.1-3.5 -.09-.21-.25-.74-.37-1.06 -.61-1.47-1.35-2.73-1.35-5.78 0 0-2 .44-3.71-3.42 -.9-1.96-2.2-1.75-3.75-2.4l.69-.45s1.3.65 1.95.65c.65 0 .44-1.31.44-1.31l.65-.66v2.85c0 1.3 1.79 3.09 2.84 3.62 .65.32 1.5-1.02 1.3-2.32 -.21-1.31 0-3.06 0-3.06l.89.52s-.33.57-.25.89c.12.32.57-.33.89-.66 0 0 .08.08.4.08 0 0-.66 1.09-.98 1.67 -.33.52-.33 2.6-.33 3.378 0 .77.28 2.56.28 3.13 0 .4.77 2.07 1.38 3.09 .2.4.69 1.46.69 1.46 .48.77.53 1.3.81 1.95 .16.32.44 1.26.65 2.89 .08.4.16 1.95.28 2.97 .12.97.93.2 1.91-.49 .97-.74.97-2.49.97-2.49s.77-.66.65-.29c-.09.4.4.81.4.81 -.62 1.38-.25 1.22.36 1.18 .61-.09 2.72-1.67 2.72-1.67 .28-.09 1.54-.09 1.34 0 -.25.12-.57.73-.57.73l1.38-.17c-.49.36-2.32 1.42-2.73 1.66 -.45.28-2.65 1.34-3.58 1.71 -.94.4-2.77 1.3-2.85 2.23 -.04.93.12 3.46 0 4.27 -.09.81-.41 4.43-.41 4.43h-4.36s.85-3.18-.04-4.03c-.86-.9-2.85-3.5-4.16-4.4 -1.31-.86.85-.21.85-.21v-.9l1.99 2.4s3.46-3.06 0-7.21c-1.1-1.31-2.2-3.3-3.06-3.5 -.9-.25-1.35-.45-2.85 0 -1.55.44-5.25.44-6.8-2l1.3-.21 1.09-.45s-.45 1.54 2.64 1.54c3.05 0 3.5 0 3.25-2.85l.89-.45 .65.65s-.45 1.54-.21 2.19c.2.65 1.3 1.1 2.15 1.75 .36.28.65.32.89.32 .36-.04.44-.04.93-.53 .73-.82.57-.78 1.3-1.43 0 0 .36-.57.44-.66l.44 1.18 0-.01Z"/><path fill="#730000" d="M149.87 65.15c.16-.17.48-.78.77-1.31 .48-.82 1.05-1.31 1.71-2.32 .61-.94.85-2.32.61-3.3l.57.32 .04 1.54s.77-.65 1.1-.82l.32.16s-2.45 2.52-4.72 6.59l-.41-.9"/><path fill="none" fill-rule="evenodd" stroke="#000" stroke-width=".5" d="M149.87 65.15c.16-.17.48-.78.77-1.31 .48-.82 1.05-1.31 1.71-2.32 .61-.94.85-2.32.61-3.3l.57.32 .04 1.54s.77-.66 1.1-.82l.32.16s-2.45 2.52-4.72 6.59l-.41-.9v0Z"/><path fill="#730000" d="M128.464 56.682c.32.57.65 1.67 1.62 2.52l.65-.21s-1.51-1.75-1.51-2.53l-.78.2"/><path fill="none" fill-rule="evenodd" stroke="#000" stroke-width=".5" d="M128.464 56.68c.32.56.65 1.67 1.62 2.52l.65-.21s-1.51-1.75-1.51-2.53l-.78.2"/><path fill="#730000" d="M132.29 55.706s.2 2.07-.33 2.85l.65-.33s.44-1.43.32-2.2l-.65-.33"/><path fill="none" fill-rule="evenodd" stroke="#000" stroke-width=".5" d="M132.29 55.706s.2 2.07-.33 2.85l.65-.33s.44-1.43.32-2.2l-.65-.33v-.01 0Z"/><path fill="#730000" d="M153.735 49.153s-.13 2.93.44 4.72l.77-.25s-.13-.53.52-.78c.65-.21 2.19-.86 2.97-1.51l-.25-.65s-1.18.93-1.75 1.17c-.53.2-.86.44-1.31.32 -.45-.12-.98-.86-.65-2.53l-.78-.53"/><path fill="none" fill-rule="evenodd" stroke="#000" stroke-width=".5" d="M153.73 49.15s-.13 2.93.44 4.72l.77-.25s-.13-.53.52-.78c.65-.21 2.19-.86 2.97-1.51l-.25-.65s-1.18.93-1.75 1.17c-.53.2-.86.44-1.31.32 -.45-.13-.98-.86-.65-2.53l-.78-.53"/><path fill="#730000" d="M162.36 62.82s-.21 2.07-.09 2.97l.69.16s-.17-2.49.28-2.69l-.9-.45"/><path fill="none" fill-rule="evenodd" stroke="#000" stroke-width=".5" d="M162.36 62.82s-.21 2.07-.08 2.97l.69.16s-.17-2.49.28-2.69l-.9-.45"/><use fill="#730000" xlink:href="#f"/><use fill="none" fill-rule="evenodd" stroke="#000" stroke-width=".5" xlink:href="#f"/><g stroke-width=".5" fill="#289400" stroke="#030"><path d="M153 58.23l.53.32 .57.08s.61.57 1.3 1.09c.53.44.53-.08.53-.08l.32 1.3h.44s-.13.85-.13 1.3l.77-.66 .89.77s.65-.57.97-.57c.32 0 .44-.33.44-.33h.04c-2.16-1.02-3.1-2.08-2.44-3.18 1.05-1.84 2.8-.66 3.37-.41l7.89 4.23s.52-.33.16-.66c-.41-.33-.57-1.14-.45-1.47 .12-.33 1.01 1.01 1.46 1.13 .44.12 1.46.28 1.46.28l-.04-.41s1.3.89 1.3 1.34c0 0 .93-.49.61-.78 -.33-.29 1.42.69 1.54 1.22l.36-.41c-.04 0 .12-1.31.57-1.92 .4-.61.85-.78.85-.78s.4-.7.81-.7c0 0-.41-.29-.57-.61 -.21-.33-.7-.49-.7-.49s.61-.45.77-.65c.16-.25.32-.29.32-.29s-.94-.78-1.59-.9c0 0-.04-1.06-.86-1.14h.36s-.61-1.14-1.18-1.18c0 0 .36-.41.69-.45 0 0-.7-.9-1.63-.57l.61-.25s-.45-.49-1.83-.25c0 0 .12-.57-.49-1.02 0 0-.53.04-.53.44 0 0-.49-.45-1.1-.45 -.62 0 .2.65.2.65s-.82-.53-1.31-.37c0 0 .2-.94-.33-1.43 0 0-.61.32-.78.73l-.17-.41s-.82.97-.98.69c-.13-.17-.25-.86-.25-.86l-.49.73 .08-1.02s-.57.32-1.02 1.38c0 0-.57.52-.57 1.01 0 0-.45-.53-.86 0 -.37.57 0 .44 0 .44s-.17.2-.57.28l.08.32s-.53-.29-.94-.17l.2.48s-1.06.08-1.1-.78c0 0-.9-.45-1.02.04 0 0-.74 0-.66.4 0 0-.21-.41-.57-.49 -.41-.13-.09.52-.09.52s-.13-.49-.61-.74c-.49-.21-.09.44-.09.44s-.66-.53-.33-.94c0 0-.61.57-.33 1.1l-.41.28s-.21-.21-.17-.37c.04-.17-.7.48-.7.48s-.45-1.06 0-1.06c.04 0-.78-.04-.9.89 -.13.89 0 0 0 0s-.53.04-1.02.2c-.53.16.36.53.36.53s-.78-.17-1.22.08l.28.36s-.29-.29-.98-.05c-.74.2.16.32.16.32s-.74-.17-1.1 0c-.37.16.12.44.12.44s-1.35-.41-1.55-.29c-.21.12.44.77.44.77s-.82.2-.98.81l.73.28s-.33.16-.49.48c-.17.32.48.16.48.16s-.9.65-.9 1.14c0 0 .65.2 1.13-.29 .48-.49.16-.33.16-.33l.04.32s.93-.41.93-.65c0-.21-.17.32-.17.32l.93-.49 .61.4v-.01 0Z"/><path d="M152.23 45.53l-.21-.9s1.09 0 2.07.24l.36-.86s.97.44 1.3.77c0 0 1.91-.49 2.48-.29l-.25.89s1.74.12 2.32.32c.52.2-.25.65-.25.65s1.99.24 2.85.77c.89.52.89.97.44 1.09l1.09 1.75s-1.75.2-2.08.65c-.33.44-.65-.45-.65-.45l-.33 1.22s-1.1-.57-1.55-.98c0 0-.53.65-.21.97 0 0-1.43 0-2-1.31 0 0-.86-.13-.86.65 0 0-.98-1.1-1.23-1.43l-1.1.32s-.33-.45-.74-.57c-.45-.08-.13.57-.13.57l-.66-.78 -.65-.78s-.57.77-1.02.77c-.41 0-.41-.53-.33-.9 .12-.33-1.31-.41-1.43 0 0 0-.41-1.63 1.09-2.08l1.54-.41h0Z"/><g stroke-width=".5" fill-rule="evenodd" stroke="#030" fill="none"><path d="M144.335 51.107l-.7.65 -.41-.21 -.82.89 -.17-.49 -.45.73 -.7-.25 -.33.53 -.61-.13s-.53.49-.86.61c-.33.08 0-.74 0-.74s-.49.81-.86.81c-.33 0-.21-.37-.21-.37s-.21.52-.61.61c-.37.04-.21-.41-.21-.41l-.66.48v-.41l-.29-.13s.16-.74.44-.9c.28-.17-.29-.66-.29-.66l.28-.33s-.82-.21-.82-.04c0 0 .4-1.1.97-1.31l.04-1.22s.57-.49 1.1-.53c.56-.08-.17-.94-.17-.94l1.3-.78 .16-.94 1.99.16 .4-.86 1.58.4 1.34-.7 .97 1.13 1.46.12s-.04 1.01-.04 1.3c0 0 1.74.52 1.95.69 0 0-.33 1.05-.33 1.26 0 0 1.22-.33 1.58-.25 0 0 .12 1.14.16 1.42 0 0 2.07.65 2.19 1.01 0 0-.45.28-.7.65 0 0 .24 1.26.24 1.66l-.17.24s-.62-.57-1.1-.66l-.41.89 -.74-.49 -.45.04s-.37-.45-.65-.45l-.05-.41 -.57.36s-.9-.45-.9-.74c0-.25.04-.66.04-.66l-.94.65s-.21-.49-.17-.7c.04-.21-.37.48-.37.48s-.49-.86-.45-1.02l-.13.69s-.98-.33-1.1-.98h0Z"/><path d="M131.313 55.095s1.71.85 1.71 1.26c0 0 .44-.9.2-1.23l.65.44s.2-.82-.04-1.06c-.21-.21 1.46-.9 1.83.2 0 0 1.01-1.06-.94-1.96 0 0-.17-.66 1.01-.49 0 0-.09-.41-.37-.57h1.13s-.7-.57-1.71-.74c-.98-.17-.37-.29-.41-.49 -.09-.21 0-.94 0-.94s-.57-.21-1.02.04l.16-.21s-1.06-.29-1.47-.04c0 0-.62-.25-.53-.9 0 0-.61-.04-.9.61 0 0-.57.65-1.35.65 -.17 0-.74-.33-.74-.33l-.49 1.14 -.78-.04 .24.44s-1.18-.33-1.55 0c0 0 .44.69.32 1.18 0 0-.94.16-1.14.32 -.25.16.32.28.32.28s-1.06.32-1.31.65l.4.32 -.49.65 .4.08s-.7.2-1.06.32c-.37.12.65.2.65.2l-.49.44 .77.12s-.62 1.63-.66 2.4c0 0 .93-1.14 1.18-1.22l-.74 1.22s1.38-.45 1.5-.66c.12-.25.24-.45.24-.45l.04.69s.53-.74.61-1.02c.04-.29.85.28.85.28v-.41s.73.24.97.28c.28.04.32-.13.32-.13l.69-.08 -.13.56s.48-.33.61-.65c.08-.33.32 0 .32 0l.32-1.31h.69 -.01Zm-5.58 5.78l.65 1.34c-.53.04-1.31.65-1.31.65 .12 2.23-.45 2.11-.45 2.11 .16.4-.21.89-.21.89l3.33-1.67 .04-.21 3.82-1.8 .12.2 1.1-.61 .77 2.03 -.78.44c.04.69.85 1.91.85 1.91l1.01-.25 1.09-.41s.04.61.04.4c0-.17 1.18-.57 1.18-.57s.08.57.53.53c.4-.05 1.13-1.02 1.13-1.02l.85.32s.28-.49.28-.86c0-.33 1.05-.33 1.05-.33l.73.52 .93-.78s.28.56.65.65c.4.04 1.42.81 1.42.65 0-.17.44-1.06.44-1.06l1.7.69c-.25-.78-.82-1.71-.82-1.71s.81-.65.65-.82c-.17-.17-.65 0-.65 0l.48-.98h-.66l.2-.25 -1.06-.45 .57-1.14c-.25-.29-3.06-.86-3.06-.86l.65-.61s-.33-.49-.65-.49c-.33 0-2.04.04-2.12-.13 -.04-.17-.74-.78-.74-.78l-1.06.77 -.53-.17 -.94.36s0 .52-.13.16c-.12-.33-.98-1.18-.98-1.18 -.17.28-1.27 1.58-1.27 1.58s-.17.69-.53.2c-.41-.49-1.27-1.02-1.39-.61 -.13.44-.9.85-1.06.73 -.17-.13-1.06-.04-1.14.2 -.04.28-1.02 1.01-1.02 1.01 -.61-.29-1.59-.13-1.59-.13s-.29.44-.33.81l-2 .52h0v-.01Zm18.39 16.48v-.86l.97.65 .57-.66 .73.73 .44-.74v1.18l1.09-.98 .65.28v-.94s.77-1.31.44-1.55l.65-.21s-1.1-1.1-1.43-1.31c-.33-.25-.78-.25-.78-.25s-.86-.86-1.43-1.1c-.53-.21-.86.24-.86.24s-.33-.65-.9-.78c-.53-.12-.53.44-.53.44s-.41-.41-.94-.62c-.53-.25-.17.48-.17.48l-1.88-.57 .24.57 -1.75-.45 .2.65 -1.22-.21 -.09.53 -1.75.32 .32.56 -1.1-.45v.77l-1.22.44 .44.4s-1.63.77-1.96 1.01c-.33.2.65.65.65.65l-1.75-.25 .65.57 -1.55 1.42 1.09.77 -.66.97 1.62.32 .65 1.1 1.34-.25v1.22l1.95-1.55s1.42 1.26 1.54.89c.08-.33.08-1.43.08-1.43h.69v-1.1l.52.44 .89-1.31 1.18 1.62 .89-2.08 1.3.2v0Zm7.97-4.93l-.21-1.88 -.57.57 .24-1.75 -.9-.17 .32-1.71 -.66-.33 .16-.82 .65-.49 1.18-1.14 2.72.04 .32-.9s1.62 0 1.95.32c.32.36 1.34-.74 1.34-.74h.4l.44.85s1.42-.21 2.07.24l-.78 1.05 1.42.12 .97.2 1.01-.33 1.3-.09 .32.53H167l-.41.48 1.58.73 -.33.32s.89.32 1.54.32h.32s.32.77-.13 1.09c0 0 .44 1.1 1.42 1.3 .97.2.97.2 1.09.44 .12.2 0 1.3-1.1 1.3v1.1s-.86.77-.98 1.09l-.66-.45s-.57.65-.57 1.1c0 0-1.43-1.88-1.96-1.96 -.57-.13-.45 1.06-.45 1.06l-1.55-1.31 -.21.89 -1.31-1.1 -.78.52 -1.39-1.43 -1.35.16 .52-.7h-1.63l-.33-1.43 -.25 1.18 -.98-.66 -1.27 1.38s-.17-.17-.37-.82c-.21-.66-.78.77-.78.77l-.45-1.02 -.53 1.01s-.45-.78-.9-1.02c-.41-.21-.86 1.22-.98 1.87l0 0Zm.24 4.27l.08-.65 2.32-.9 1.95-.74 .97-.45 .44.77 .57-1.1 .89 1.14 .48-.62 .77.57h.65l.12.85s1.62.12 1.75-.21c.12-.33.32 1.09.32 1.09l1.54.2 .32 1.75s.77 1.62.53 2.27c-.21.69-.86-.86-.86-.86s-.13 1.22-.25 1.54c-.09.32-2.08-.33-2.08-.33l-.86 1.62s-.9-1.31-1.31-1.31c-.45 0-.45 1.3-.45 1.3s-1.31-1.55-1.88-2.2c-.53-.65-.65.65-.65.65s-.86-1.43-.86-1.84c0-.45-.78-.9-.78-.9s-1.35 1.54-2.32 1.95c0 0 .12-.98-.21-1.31 -.33-.33-1.31.65-1.31.65s-.7-1.51 0-3.06h0Z"/><g stroke="#004B00"><path d="M163.09 52.45l.2.81s.73-.17 1.22-.13c0 0-.13.65-.29.93 0 0 .97-.17 1.42.12l-.21.48s.61 0 1.14.48l-1.06.85s1.71.61 2.03 1.1c0 0-1.1.77-1.27.73 -.17-.09-.04.32.24.69l-.94-.04s.36.85.32 1.18c-.04.32-1.55.24-1.55.24m5.86-2.2s.28-1.63-.17-2.04c0 0 1.05.89 1.74.93 .73.04-.04-1.35-.04-1.35s1.01.52 1.5.65c.48.08-.37-1.02-.37-1.02s.28-.53 1.1-.04m-18.93-6.48s.04-.37-.13-.57c-.98-1.35 1.01 1.01 1.42 1.1m1.87-.001s.65.48.97.48c.32 0-.21-1.31-.37-1.47 -.17-.17 1.18.52 1.67.61 .48.12.56-.82.56-.82s1.5.24 1.83.44m-10.46-.29s-.13-.86-.17-1.23m-10.1 5.29c-.09-.17.4-.9.2-1.23 0 0 .28.24.57.28 .24.04.16-.94.16-.94l.32.12s.85-.41.69-.74c-.17-.33.57.48.57.48s.48-.49.48-.69c0-.21.56.48.56.48s.61-.13.61-.49c0-.37.77.12.77.12s.32-.45.28-.74m-8.22 4.07s.36-.86-.04-1.43m-9.85 4.11c.04-.41.24-1.51.04-1.67 -.21-.16.4.16.89.28m3.86-.17c-.49-.49-.78-.74-1.55-.74m-6.72 3.45c.12-.29.32-.98.2-1.39m10.41 21.57l.53-1.1 .65 1.54 .44-.98 .16.32 .97-1.06 1.05 1.58m16.97-6.88l.69-1.39 .93.48 .44-1.35 .97.61 .57-1.26 1.09.28 .08-.9s.77.44.97.77c.24.32 0-1.1 0-1.1l.89.4s.65-.66-.25-1.02"/><path d="M160.084 68.52l.97 1.42 .81-.94 .73 1.58 .93-.57 1.34.77 .61-.49 1.46 1.05 .61-1.26 1.3.4 .85-1.47"/></g></g></g><path fill="#289400" d="M125.738 60.87l.65 1.34c-.53.04-1.31.65-1.31.65 .12 2.23-.45 2.11-.45 2.11 .16.4-.21.89-.21.89l3.33-1.67 .04-.21 3.82-1.79 .12.2 1.09-.61 .77 2.03 -.78.44c.04.69.85 1.91.85 1.91l1.01-.25 1.1-.41s.04.61.04.4c0-.17 1.18-.57 1.18-.57s.08.57.53.53c.4-.04 1.13-1.02 1.13-1.02l.85.32s.28-.49.28-.86c0-.33 1.05-.33 1.05-.33l.73.53 .93-.78s.28.57.65.65c.4.04 1.42.81 1.42.65 0-.17.44-1.06.44-1.06l1.7.69c-.25-.78-.82-1.71-.82-1.71s.81-.66.65-.82c-.17-.17-.65 0-.65 0l.48-.98h-.65l.2-.25 -1.06-.45 .57-1.14c-.25-.29-3.06-.86-3.06-.86l.65-.61s-.33-.49-.66-.49 -2.04.04-2.12-.13c-.04-.17-.74-.78-.74-.78l-1.06.77 -.53-.17 -.94.36s0 .52-.13.16c-.13-.33-.98-1.18-.98-1.18 -.17.28-1.27 1.58-1.27 1.58s-.17.69-.53.2c-.41-.49-1.27-1.02-1.39-.61 -.13.44-.9.85-1.06.73 -.17-.13-1.06-.04-1.14.2 -.04.28-1.02 1.01-1.02 1.01 -.61-.29-1.59-.13-1.59-.13s-.29.44-.33.81l-2 .52m26.61 15.83l.08-.65 2.32-.9 1.95-.74 .97-.45 .44.77 .57-1.1 .89 1.14 .48-.61 .77.56h.65l.12.85s1.62.12 1.75-.21c.12-.33.32 1.1.32 1.1l1.54.2 .32 1.75s.77 1.62.52 2.28c-.21.69-.86-.86-.86-.86s-.13 1.22-.25 1.54c-.09.32-2.08-.33-2.08-.33l-.86 1.62s-.9-1.31-1.31-1.31c-.45 0-.45 1.3-.45 1.3s-1.31-1.55-1.88-2.2c-.53-.65-.66.65-.66.65s-.86-1.43-.86-1.84c0-.45-.78-.9-.78-.9s-1.35 1.54-2.32 1.95c0 0 .12-.98-.21-1.31 -.33-.33-1.31.65-1.31.65s-.7-1.51 0-3.06"/><g fill="none" fill-rule="evenodd"><path d="M153 58.23l.53.32 .57.08s.61.57 1.3 1.1c.52.44.52-.09.52-.09l.32 1.3h.44s-.13.85-.13 1.3l.77-.66 .89.77s.65-.57.97-.57c.32 0 .44-.33.44-.33h.04c-2.16-1.02-3.1-2.08-2.45-3.18 1.05-1.83 2.8-.65 3.37-.41l7.89 4.23s.52-.33.16-.65c-.41-.33-.57-1.14-.45-1.47 .12-.33 1.01 1.01 1.46 1.13 .44.12 1.46.28 1.46.28l-.04-.41s1.3.89 1.3 1.34c0 0 .93-.49.61-.78 -.33-.29 1.42.69 1.54 1.22l.36-.41c-.05 0 .12-1.31.57-1.92 .4-.61.85-.78.85-.78s.4-.7.81-.7c0 0-.41-.29-.57-.61 -.21-.33-.7-.49-.7-.49s.61-.45.77-.66c.16-.25.32-.29.32-.29s-.94-.78-1.59-.9c0 0-.04-1.06-.86-1.14h.36s-.61-1.14-1.18-1.18c0 0 .36-.41.69-.45 0 0-.7-.9-1.63-.57l.61-.25s-.45-.49-1.84-.25c0 0 .12-.57-.49-1.02 0 0-.53.04-.53.44 0 0-.49-.45-1.1-.45 -.61 0 .2.65.2.65s-.82-.53-1.31-.37c0 0 .2-.94-.33-1.43 0 0-.61.32-.78.73l-.17-.41s-.82.97-.98.69c-.13-.16-.25-.86-.25-.86l-.49.73 .08-1.02s-.57.32-1.02 1.38c0 0-.57.52-.57 1.01 0 0-.45-.53-.86 0 -.37.57 0 .44 0 .44s-.17.2-.57.28l.08.32s-.53-.29-.94-.17l.2.48s-1.06.08-1.1-.78c0 0-.9-.45-1.02.04 0 0-.74 0-.66.4 0 0-.21-.41-.57-.49 -.41-.13-.09.52-.09.52s-.13-.49-.62-.74c-.49-.21-.09.44-.09.44s-.65-.53-.33-.94c0 0-.61.57-.33 1.1l-.41.28s-.21-.21-.17-.37c.04-.17-.7.48-.7.48s-.45-1.06 0-1.06c.04 0-.78-.04-.9.89 -.13.89 0 0 0 0s-.53.04-1.02.2c-.53.16.36.53.36.53s-.78-.17-1.23.08l.28.36s-.29-.29-.98-.04c-.74.2.16.32.16.32s-.74-.17-1.1 0c-.37.16.12.44.12.44s-1.35-.41-1.55-.29c-.21.12.44.77.44.77s-.82.2-.98.81l.73.28s-.33.16-.49.48c-.17.32.48.16.48.16s-.9.65-.9 1.14c0 0 .65.2 1.14-.29 .48-.49.16-.33.16-.33l.04.32s.93-.41.93-.65c0-.21-.17.32-.17.32l.93-.49 .61.4"/><path d="M152.23 45.53l-.21-.9s1.09 0 2.07.24l.36-.86s.97.44 1.3.77c0 0 1.91-.49 2.48-.29l-.25.89s1.75.12 2.32.32c.52.2-.25.65-.25.65s1.99.24 2.84.77c.89.52.89.97.44 1.1l1.09 1.74s-1.75.2-2.08.65c-.33.44-.66-.45-.66-.45l-.33 1.22s-1.1-.57-1.55-.98c0 0-.53.65-.21.97 0 0-1.43 0-2-1.31 0 0-.86-.13-.86.65 0 0-.98-1.1-1.22-1.43l-1.1.32s-.33-.45-.74-.57c-.45-.09-.13.57-.13.57l-.66-.78 -.65-.78s-.57.77-1.02.77c-.41 0-.41-.53-.33-.9 .12-.33-1.31-.41-1.43 0 0 0-.41-1.63 1.09-2.08l1.54-.41"/></g><g fill="#289400"><path d="M144.335 51.106l-.7.65 -.41-.21 -.82.89 -.17-.49 -.45.73 -.7-.25 -.33.52 -.61-.13s-.53.48-.86.61c-.33.08 0-.74 0-.74s-.49.81-.86.81c-.33 0-.21-.37-.21-.37s-.21.52-.61.61c-.37.04-.21-.41-.21-.41l-.66.48v-.41l-.29-.13s.16-.74.44-.9c.28-.17-.29-.66-.29-.66l.28-.33s-.82-.21-.82-.05c0 0 .4-1.1.97-1.31l.04-1.22s.57-.49 1.1-.53c.57-.09-.17-.94-.17-.94l1.3-.78 .16-.94 1.99.16 .4-.86 1.58.4 1.34-.7 .97 1.14 1.46.12s-.04 1.01-.04 1.3c0 0 1.74.53 1.95.69 0 0-.33 1.05-.33 1.26 0 0 1.22-.33 1.58-.25 0 0 .12 1.13.16 1.42 0 0 2.07.65 2.19 1.01 0 0-.45.28-.7.65 0 0 .24 1.26.24 1.67l-.17.24s-.61-.57-1.1-.65l-.41.89 -.74-.49 -.45.04s-.37-.45-.66-.45l-.04-.41 -.57.36s-.9-.45-.9-.74c0-.25.04-.65.04-.65l-.94.65s-.21-.49-.17-.69c.04-.21-.37.48-.37.48s-.49-.86-.45-1.02l-.13.69s-.98-.33-1.1-.98"/><path d="M131.313 55.09s1.7.85 1.7 1.26c0 0 .44-.9.2-1.22l.65.44s.2-.82-.04-1.06c-.21-.21 1.46-.9 1.83.2 0 0 1.01-1.06-.94-1.96 0 0-.17-.65 1.01-.49 0 0-.09-.41-.37-.57h1.13s-.7-.57-1.71-.74c-.98-.17-.37-.29-.41-.49 -.09-.21 0-.94 0-.94s-.57-.21-1.02.04l.16-.21s-1.06-.29-1.47-.04c0 0-.61-.25-.53-.9 0 0-.61-.04-.9.61 0 0-.57.65-1.35.65 -.17 0-.74-.33-.74-.33l-.49 1.14 -.78-.04 .24.44s-1.18-.33-1.55 0c0 0 .44.69.32 1.18 0 0-.94.16-1.14.32 -.25.16.32.28.32.28s-1.06.32-1.31.65l.4.32 -.49.65 .4.08s-.7.2-1.06.32c-.37.12.65.2.65.2l-.49.44 .77.12s-.61 1.63-.65 2.4c0 0 .93-1.14 1.18-1.23l-.74 1.22s1.38-.45 1.5-.66c.12-.25.24-.45.24-.45l.04.69s.52-.74.61-1.02c.04-.29.85.28.85.28v-.41s.73.24.97.28c.28.04.32-.13.32-.13l.69-.09 -.13.57s.48-.33.61-.66c.08-.33.32 0 .32 0l.32-1.31h.69m12.81 22.26v-.86l.97.65 .57-.66 .73.73 .44-.74v1.18l1.09-.98 .65.28v-.94s.77-1.31.44-1.55l.65-.21s-1.1-1.1-1.43-1.31c-.33-.25-.78-.25-.78-.25s-.86-.86-1.43-1.1c-.53-.21-.86.24-.86.24s-.33-.65-.9-.78c-.53-.13-.53.44-.53.44s-.41-.41-.94-.62c-.53-.25-.17.48-.17.48l-1.88-.57 .24.57 -1.75-.45 .2.65 -1.23-.21 -.09.53 -1.75.32 .32.56 -1.1-.45v.77l-1.22.44 .44.4s-1.63.77-1.96 1.01c-.33.2.65.65.65.65l-1.75-.25 .65.57 -1.55 1.42 1.09.77 -.66.97 1.62.32 .65 1.09 1.34-.25v1.22l1.95-1.55s1.42 1.26 1.54.89c.08-.33.08-1.43.08-1.43h.69v-1.1l.52.44 .89-1.31 1.18 1.62 .89-2.08 1.3.2m7.97-4.93l-.21-1.88 -.57.56 .24-1.75 -.9-.17 .32-1.71 -.65-.33 .16-.82 .65-.49 1.18-1.14 2.72.04 .32-.9s1.62 0 1.95.32c.32.36 1.34-.74 1.34-.74h.4l.44.85s1.42-.21 2.07.24l-.78 1.05 1.42.12 .97.2 1.01-.33 1.3-.09 .32.52h1.22l-.41.48 1.58.73 -.33.32s.89.32 1.54.32h.32s.32.77-.13 1.1c0 0 .44 1.09 1.42 1.3 .97.2.97.2 1.09.44 .12.2 0 1.3-1.1 1.3v1.1s-.86.77-.98 1.09l-.66-.45s-.57.65-.57 1.09c0 0-1.43-1.88-1.96-1.96 -.57-.13-.45 1.05-.45 1.05l-1.55-1.31 -.21.89 -1.31-1.1 -.78.52 -1.39-1.43 -1.35.16 .53-.69h-1.63l-.33-1.43 -.25 1.18 -.98-.66 -1.27 1.38s-.17-.17-.37-.82c-.21-.66-.78.77-.78.77l-.45-1.02 -.53 1.01s-.45-.78-.9-1.02c-.41-.21-.86 1.22-.98 1.87"/><path fill="#289400" stroke="#004B00" stroke-width=".504" d="M134.568 65.231s.57-.98.36-1.43c-.25-.45 1.18.77 1.18.77s.32-.98.12-1.43c-.25-.45 1.62 1.3 1.62 1.3s.32-1.51 0-1.84c-.33-.33 1.79.44 1.79.44s.85-.25.53-.7c-.33-.45 1.42.65 1.42.65s.4-1.1 0-1.51c-.45-.45 1.3.53 1.3.53l-.66-1.18 1.42.08 -.13-1.31"/></g><path fill="#28AF00" stroke="#004B00" stroke-width=".504" d="M156.17 78.45l.93-.45 .81.81 .89-1.43 1.09 1.05 .16-1.06 1.18.49 .24-.66 1.3.69 .12-.98 .65.2 .12-.66"/><path fill="#FFF" d="M150.03 151.354c9.15.08 14.56-3.26 17.54-5.25 6.95-4.68 8.42-4.85 9.56-4.77 1.3.12 3.21.57 3.29 1.71 .12 1.75-2.73 2.52-4.36 2.52 -1.67 0-6.03-1.1-6.03-1.1l-1.14.77c.77.36 9.68 3.33 11.39.52 1.75-2.85 3.5-7.45 3.5-7.45s-1.96-3.5-6.31-3.5c-4.4 0-8.67 2.76-11.52 4.84 -2.85 2.07-6.43 4.92-15.96 4.92 -9.53 0-13.15-2.85-16-4.93 -2.85-2.08-7.13-4.85-11.48-4.85 -4.4 0-6.35 3.5-6.35 3.5s1.75 4.6 3.5 7.45c1.71 2.8 10.622-.17 11.39-.53l-1.1-.78s-4.4 1.1-6.03 1.1c-1.67 0-4.52-.78-4.4-2.53 .08-1.14 1.99-1.59 3.29-1.72 1.14-.08 2.6.08 9.56 4.76 2.97 1.99 8.38 5.21 17.58 5.25"/><path fill="none" fill-rule="evenodd" stroke="#000" stroke-width=".5" d="M150.03 151.35c9.15.08 14.56-3.26 17.54-5.25 6.95-4.69 8.42-4.85 9.56-4.77 1.3.12 3.21.57 3.29 1.71 .12 1.75-2.73 2.52-4.36 2.52 -1.67 0-6.03-1.1-6.03-1.1l-1.14.77c.77.36 9.68 3.33 11.39.52 1.75-2.85 3.49-7.45 3.49-7.45s-1.96-3.51-6.31-3.51c-4.4 0-8.67 2.76-11.52 4.84 -2.85 2.07-6.43 4.92-15.96 4.92 -9.53 0-13.15-2.85-16-4.93 -2.85-2.08-7.13-4.85-11.48-4.85 -4.4 0-6.35 3.5-6.35 3.5s1.74 4.6 3.5 7.44c1.7 2.8 10.62-.17 11.39-.53l-1.1-.78s-4.4 1.09-6.03 1.09c-1.67 0-4.52-.78-4.4-2.53 .08-1.14 1.99-1.59 3.29-1.71 1.14-.08 2.6.08 9.56 4.76 2.97 1.99 8.38 5.21 17.58 5.25v0Z"/><path fill="#69F" d="M129.97 144.476s-4.36 1.1-5.99 1.1c-1.67 0-4.52-.78-4.4-2.53 .08-1.14 1.99-1.59 3.29-1.71 .97-.09 2.23.04 7.08 3.13"/><path fill="none" fill-rule="evenodd" stroke="#000" stroke-width=".5" d="M129.97 144.476s-4.36 1.1-5.99 1.1c-1.67 0-4.52-.78-4.4-2.53 .08-1.14 1.99-1.59 3.29-1.71 .97-.09 2.23.04 7.08 3.13Z"/><path fill="#69F" d="M170.055 144.476s4.35 1.1 6.02 1.1c1.62 0 4.47-.78 4.35-2.53 -.09-1.14-2-1.59-3.3-1.71 -.98-.09-2.24.04-7.09 3.13"/><path fill="none" fill-rule="evenodd" stroke="#000" stroke-width=".5" d="M170.054 144.476s4.35 1.1 6.02 1.1c1.62 0 4.47-.78 4.35-2.53 -.09-1.14-2-1.59-3.3-1.71 -.98-.09-2.24.04-7.09 3.13v0Z"/><path fill="#69F" d="M135.3 140.61v-.001c-.45-.32-.88-.65-1.31-.98 -.62-.45-1.22-.86-1.88-1.31 0 0 .89-1.14 1.34-1.27 .69-.25 1.54.12 1.71 1.58 .12 1.13.12 1.95.12 1.95"/><path fill="none" fill-rule="evenodd" stroke="#000" stroke-width=".5" d="M135.3 140.61v-.001c-.45-.32-.88-.65-1.31-.98 -.61-.45-1.22-.86-1.88-1.31 0 0 .89-1.14 1.34-1.27 .69-.25 1.54.12 1.71 1.58 .12 1.13.12 1.95.12 1.95Z"/><path fill="#FFF" d="M135.301 140.57s0-.78-.13-1.92c-.17-1.47-1.02-1.84-1.71-1.63 -.45.16-1.35 1.26-1.35 1.26v.04c-.41-.29-.82-.53-1.27-.78 .32-.37 2.19-1.51 2.64-1.51 .4 0 6.02 2.28 7.81 3.82 .44.4.77 2.93.53 3.74 -3.02-.78-4.97-1.92-6.56-3.02v-.04"/><path fill="none" fill-rule="evenodd" stroke="#000" stroke-width=".5" d="M135.3 140.57s0-.78-.13-1.92c-.17-1.47-1.02-1.84-1.71-1.63 -.45.16-1.35 1.26-1.35 1.26v.04c-.41-.29-.82-.53-1.27-.78 .32-.37 2.19-1.51 2.64-1.51 .4 0 6.02 2.28 7.81 3.82 .44.4.77 2.93.53 3.74 -3.02-.78-4.97-1.92-6.56-3.02"/><path fill="#FFF" d="M132.61 146.268s-1.22 1.22-1.27 3.46c-.04 2.64 1.87 2.76 3.13 2.72 1.5-.04 2.72-.9 2.68-3.71 -.01 0-2.49-1.06-4.56-2.49"/><path fill="none" fill-rule="evenodd" stroke="#000" stroke-width=".5" d="M132.61 146.268s-1.22 1.22-1.27 3.46c-.04 2.64 1.87 2.76 3.13 2.72 1.5-.04 2.72-.9 2.68-3.71 0 0-2.49-1.06-4.56-2.49h-.01Z"/><use fill="#FFF" xlink:href="#g"/><use fill="none" fill-rule="evenodd" stroke="#000" stroke-width=".5" xlink:href="#g"/><path fill="#69F" d="M132.33 152.08c.77.44 1.62.4 2.15.36 1.5-.04 2.72-.9 2.68-3.71 0 0 1.87.93 4.92 1.67 0 0 .48.61.56 1.83 .12 1.01-.57 2.11-1.39 2.03 0 0-4.28-.78-6.88-1.22 -1.51-.29-2.08-.98-2.08-.98"/><g stroke-width=".5" fill-rule="evenodd" stroke="#000" fill="none"><path d="M132.33 152.089c.77.44 1.62.4 2.15.36 1.5-.05 2.72-.9 2.68-3.71 0 0 1.87.93 4.92 1.67 0 0 .48.61.56 1.83 .12 1.01-.57 2.11-1.39 2.03 0 0-4.28-.78-6.88-1.22 -1.51-.29-2.08-.98-2.08-.98Z"/><path stroke="#FFF" d="M141.771 151.151s1.34.97-.29 2.19m-3.75-2.85l4.11 1.79m-3.42-.86l3.01 1.3m-1.96-2.08l2.27 1.01"/></g><path fill="#69F" d="M164.724 140.61l1.34-.98c.57-.45 1.18-.86 1.83-1.31 0 0-.9-1.14-1.35-1.27 -.7-.25-1.51.12-1.67 1.58v0c-.08.64-.13 1.3-.17 1.95"/><path fill="none" fill-rule="evenodd" stroke="#000" stroke-width=".5" d="M164.724 140.61c.44-.33.89-.66 1.34-.98 .57-.45 1.18-.86 1.83-1.31 0 0-.9-1.14-1.35-1.27 -.7-.25-1.51.12-1.67 1.58v0c-.08.64-.13 1.3-.17 1.95v0Z"/><path fill="#FFF" d="M164.724 140.57s.04-.78.16-1.92c.16-1.47.97-1.84 1.66-1.63 .44.16 1.34 1.26 1.34 1.26v.04c.4-.29.81-.53 1.26-.78 -.33-.37-2.2-1.51-2.61-1.51 -.45 0-6.07 2.28-7.86 3.82 -.41.4-.74 2.93-.53 3.74 3.05-.78 4.96-1.92 6.55-3.02v-.04"/><path fill="none" fill-rule="evenodd" stroke="#000" stroke-width=".5" d="M164.724 140.57s.04-.78.16-1.92c.16-1.47.97-1.84 1.66-1.63 .44.16 1.34 1.26 1.34 1.26v.04c.4-.29.81-.53 1.26-.78 -.33-.37-2.2-1.51-2.61-1.51 -.45 0-6.07 2.28-7.86 3.82 -.41.4-.74 2.93-.53 3.74 3.05-.78 4.96-1.92 6.55-3.02"/><path fill="#FFF" d="M167.409 146.268s1.22 1.22 1.26 3.46c.08 2.64-1.88 2.76-3.14 2.72 -1.51-.04-2.69-.9-2.69-3.71 0 0 2.48-1.06 4.55-2.49"/><path fill="none" fill-rule="evenodd" stroke="#000" stroke-width=".5" d="M167.409 146.268s1.22 1.22 1.26 3.46c.08 2.64-1.88 2.76-3.14 2.72 -1.51-.04-2.69-.9-2.69-3.71 0 0 2.48-1.06 4.55-2.49v0h-.01Z"/><use fill="#FFF" xlink:href="#h"/><use fill="none" fill-rule="evenodd" stroke="#000" stroke-width=".5" xlink:href="#h"/><path fill="#69F" d="M167.694 152.08c-.78.44-1.63.4-2.16.36 -1.51-.04-2.69-.9-2.69-3.71 0 0-1.88.93-4.89 1.67 0 0-.53.61-.62 1.83 -.09 1.01.61 2.11 1.38 2.03 0 0 4.31-.78 6.87-1.22 1.5-.29 2.07-.98 2.07-.98"/><g stroke-width=".5" fill-rule="evenodd" stroke="#000" fill="none"><path d="M167.694 152.089c-.78.44-1.63.4-2.16.36 -1.51-.05-2.69-.9-2.69-3.71 0 0-1.88.93-4.89 1.67 0 0-.53.61-.62 1.83 -.09 1.01.61 2.11 1.38 2.03 0 0 4.31-.78 6.87-1.22 1.5-.29 2.07-.98 2.07-.98Z"/><path stroke="#FFF" d="M158.29 151.151s-1.39.97.24 2.19m3.74-2.85l-4.11 1.79m3.45-.86l-3.02 1.3m1.91-2.08l-2.24 1.01"/></g><path d="M121.464 140.61c.04-.09.04-.66.04-.86 0-.13-.04-.7-.04-.86l.12.04c0 .08.04.36.04.44 .2.32.52.52.85.52 .44-.05.73-.33.73-.74 -.04-.41-.41-.62-.78-.82 -.53-.29-.94-.53-.98-1.14 -.04-.41.2-.94.97-.98 .32-.05.61 0 .73.04 .04-.17.04-.33.04-.45l.12-.04c-.04.52-.04 1.01 0 1.46l-.13-.05c0-.21-.04-.33-.04-.41v0c-.14-.28-.43-.45-.74-.41 -.45.04-.66.32-.62.57 0 .32.4.48.81.69 .44.24.89.53.97 1.18 .04.73-.49 1.18-1.22 1.22 -.25.04-.57 0-.74-.05 0 .08-.04.32-.09.52l-.13.04m3.82-2.65c.2-.45.44-.94.48-1.1 -.09-.09-.25-.17-.37-.25l.04-.09c.12.04.44.2.81.36 .2.12.57.28.69.32l-.09.08c-.13-.04-.33-.13-.49-.17 -.09.08-.37.69-.57 1.1l-.29.61c-.49 1.01-.25 1.54.28 1.79 .32.16.57.2.77.12 .4-.13.65-.53.93-1.1l.2-.41c.08-.17.48-1.02.53-1.22 -.09-.05-.37-.25-.49-.29v-.13c.12.08.48.24.77.36 .24.12.48.24.61.28l-.09.08c-.12-.04-.25-.09-.37-.09v0c-.16.24-.29.5-.41.77l-.13.2c-.09.2-.17.44-.25.61 -.29.52-.57.93-1.1 1.1 -.33.08-.7.08-1.14-.17 -1.02-.45-1.18-1.31-.78-2.12l.36-.74m8.994 5.37c.24-.41.48-.94.57-1.06 -.09-.08-.21-.17-.33-.29l.04-.09c.12.08.4.24.73.44 .24.12.57.32.69.36l-.09.08c-.13-.04-.33-.17-.49-.21 -.09.08-.41.65-.61 1.06l-.37.56c-.57.97-.33 1.54.16 1.83 .28.16.52.2.77.16 .4-.09.69-.45.97-1.02l.24-.41c.08-.17.57-.98.65-1.14 -.12-.09-.37-.29-.49-.37l.04-.13c.12.08.44.28.73.44 .24.12.48.28.57.32l-.09.04c-.13 0-.25-.04-.37-.08 -.04.04-.41.61-.45.73l-.13.2c-.13.2-.25.4-.33.57 -.29.53-.66.89-1.18 1.01 -.33.08-.7.04-1.14-.25 -.94-.53-1.02-1.35-.57-2.16l.4-.7m6.34 5.33c.08 0 .48.08.57.12 .04-.21.36-2.61.4-2.98 -.25.24-2 2.32-2.24 2.56 -.04-.37-.17-3.18-.17-3.38h-.04c-.37.73-1.1 1.99-1.31 2.64 .08.04.32.2.4.24v.08c-.09-.04-.65-.21-.74-.25 -.17-.04-.41-.13-.57-.17l.08-.12v0c.11.05.24.07.36.08 .2-.29 1.58-2.57 1.79-2.98 -.13-.04-.45-.21-.49-.21v-.13c.08.04.44.16.73.24 .2.08.61.2.73.24l-.04.08c-.17-.04-.29-.04-.41-.04 0 .48.08 2.32.08 2.76 .24-.25 1.79-2.04 1.83-2.16 -.09-.04-.21-.13-.29-.17v-.13c.16.08.48.2.65.24 .16.04.61.2.73.2l-.09.12c-.04-.04-.33-.08-.45-.08 -.09.61-.37 3.05-.37 3.41 .08.04.28.16.36.2v.08c-.17-.04-.45-.17-.7-.25 -.25-.09-.78-.25-.94-.29l.04-.09m16.92-1.59c-.13-.45-.37-1.27-.41-1.43 -.09 0-.41.08-.57.08l-.04-.09c.16-.04.69-.17.89-.25 .2-.04 1.5-.41 1.58-.49 0-.04 0-.25-.04-.37l.12-.08c0 .24.16.89.24 1.3l-.12-.04c0-.09-.09-.29-.13-.37 -.25-.13-1.06.04-1.31.12 0 .08.24.97.32 1.34l.04.12c.24-.08.89-.29 1.05-.37 0-.08-.04-.25-.04-.33l.12-.05c.04.24.12.77.24 1.13h-.13c-.04-.13-.09-.29-.17-.41 -.13-.09-.78.08-1.06.16l.04.16c.12.4.4 1.3.44 1.42 .2 0 .48-.08.61-.08l.04.08c-.21.04-.61.16-.94.24 -.29.08-.66.2-.86.28v-.13c.04-.04.36-.13.52-.21 -.04-.13-.25-.98-.41-1.55l-.13-.29m3.25-1.26v0c-.18-.4-.35-.79-.53-1.18 -.13.04-.41.12-.53.16l-.09-.09c.12-.04.57-.21.85-.37 .32-.13.77-.33.89-.41v.12c-.13.08-.37.2-.53.32 .04.16.32.85.48 1.22l.08.2c.28.61.69 1.54.77 1.63 .57-.25.89-.53 1.01-.74 0-.21-.04-.49-.04-.61l.08-.09c.12.44.24 1.01.44 1.71h-.13c-.04-.09-.17-.45-.21-.57 -.13.04-1.18.48-1.43.57 -.25.12-.7.32-.82.4l-.04-.13c.08-.04.4-.21.48-.29 -.09-.25-.49-1.18-.7-1.63l-.13-.29m10.78-6.15v0c-.22-.43-.45-.85-.7-1.27 -.09 0-.41.12-.53.16l-.04-.09c.2-.13.61-.29.81-.41 .16-.08 1.26-.65 1.38-.74 -.04-.08-.04-.17-.09-.25l.08-.08c.04.12.36.85.4 1.01l-.13.04c0-.05-.13-.25-.17-.37 -.17-.09-.9.24-1.14.36 0 .08.44.97.61 1.26l.04.08c.4-.21.81-.49.93-.57 -.04-.09-.04-.17-.09-.21l.12-.09c0 .08.24.77.32.93h-.13c-.04-.09-.13-.21-.17-.33 -.17 0-.57.16-.98.36l.08.12c.12.28.65 1.3.77 1.42 .44-.25.85-.53 1.01-.74v0c-.04-.17-.08-.33-.13-.49l.12-.09c.04.16.28.93.4 1.18h-.13c-.09-.12-.13-.21-.17-.25 -.13.04-1.18.53-1.47.69 -.17.08-.53.28-.74.36v-.09c.04-.04.32-.25.44-.33 -.04-.09-.45-.98-.74-1.47l-.125-.25m-42.08.77c.2-.33.61-1.02.69-1.23v0c-.13-.13-.27-.23-.41-.33l.04-.13c.12.08 1.01.61 1.3.77 .85.52.77.97.61 1.22 -.09.12-.13.2-.37.32 -.33.16-.7.12-.86.12 .36.32.65.97.36 1.42 -.33.52-.98.61-1.59.2 -.13-.09-.57-.41-.78-.53 -.09-.04-.53-.33-.66-.41l.04-.09c.12.04.4.2.53.24 .2-.29.61-.98.85-1.35l.2-.29"/><path fill="#FFF" d="M129.725 141.26c-.21.32-.53.89-.53.97 .04.12.16.2.24.24 .36.24.61.12.77-.13v0c.18-.29.18-.66 0-.94 -.09-.17-.29-.29-.37-.37l-.12.2m.32-.53c.08.08.28.16.44.16v0c.19-.05.37-.16.48-.33 .2-.29.12-.61-.17-.78 -.04-.04-.09-.09-.13-.09 -.04.04-.37.53-.53.81l-.13.2"/><path d="M143.97 147.407c.04-.41.12-1.22.12-1.43 -.17-.04-.37-.09-.53-.13v-.13c.16.04 1.18.12 1.5.16 1.01.12 1.09.56 1.09.81 -.04.16-.04.28-.21.48 -.25.28-.57.4-.78.44v.04c.53.12 1.01.57.93 1.14 -.09.56-.61.93-1.35.81 -.13 0-.7-.13-.9-.17 -.13 0-.66-.08-.82-.08l.04-.09h.57c.08-.37.16-1.14.24-1.59l.04-.33"/><path fill="#FFF" d="M144.497 148.098c-.04.32-.09.93-.09.97h-.001c.09.07.2.11.32.12 .36.08.57-.13.61-.41 .04-.25-.09-.57-.37-.78 -.13-.09-.33-.17-.45-.17l-.04.24m.04-.65v0c.17.05.37.02.52-.09 .16-.09.24-.25.28-.45 .04-.37-.13-.62-.45-.66h-.17c-.04.04-.13.61-.17.97l-.04.2"/><path d="M147.671 147.73c0-.21.04-1.22 0-1.31 -.09-.04-.45-.08-.53-.08l-.04-.13 1.13.04c.48 0 1.13.04 1.46.2 .28.12.44.32.44.61 0 .32-.37.73-.78.97 .04.12.85 1.5 1.38 2.11l-.25.04c-.37-.21-1.71-1.83-1.8-1.96h-.49v.16c-.04.32-.04 1.13-.04 1.38 .08 0 .44.08.57.08v.12c-.13-.04-.66-.04-.9-.09h-.9l.04-.13c.08 0 .4 0 .53-.05 .04-.17.08-1.18.12-1.71l0-.33"/><path fill="#FFF" d="M148.323 147.89c.12.04.32 0 .48-.04h-.001c.28-.09.48-.36.48-.66 0-.25-.21-.57-.9-.62 -.04.2-.09.89-.09 1.18v.12"/><path d="M168.06 141.62c-.09-.17-.61-1.02-.7-1.1v0c-.18.09-.35.17-.53.24l-.04-.09 .97-.61c.4-.25.93-.57 1.34-.61 .28-.05.53.04.69.28 .16.28.08.81-.13 1.22 .08.08 1.54.81 2.32 1.06l-.21.12c-.41.04-2.45-.62-2.57-.66 -.17.12-.33.24-.41.28l.08.12c.16.28.57.97.73 1.17 .08-.04.4-.17.48-.25l.08.08c-.13.08-.57.32-.78.44 -.21.12-.66.4-.78.49v-.13c.04-.04.32-.25.4-.33 -.04-.17-.57-1.02-.86-1.51l-.17-.29"/><path fill="#FFF" d="M168.712 141.5c.16-.08.28-.21.44-.33 .12-.17.28-.53.04-.9 -.13-.25-.53-.41-1.18 0 .08.16.44.85.61 1.1l.08.12"/><path d="M153.289 149.767c.16-.04.36-.09.52-.12 -.13-.25-.57-1.35-.7-1.47 -.17 0-1.02.12-1.18.16 -.04.08-.25 1.05-.25 1.46 .12.04.28.04.44.04v.12c-.17 0-.62.04-.78.04v0c-.21 0-.42.03-.62.08v-.13c.16-.05.32-.09.44-.13 .16-.33.97-3.22 1.05-3.42 -.13-.04-.33-.04-.45-.04v-.13c.16 0 .61-.05.69-.05 .2 0 .73-.09.89-.09v.12c-.17 0-.29.04-.41.08 .08.24.44 1.01.69 1.54 .16.4.57 1.26.85 1.71 .12 0 .28.04.44.04l.04.08c-.09 0-.61.04-.9.08 -.17 0-.74.04-.9.08l.04-.13"/><path fill="#FFF" d="M152.515 146.71h-.04c-.09.36-.29 1.1-.33 1.22l.85-.04c-.13-.25-.41-.98-.49-1.18"/><path d="M164.642 145.941c-.53-.13-.86-.41-1.1-.82 -.57-.86-.37-2.12.85-2.89 .48-.33.89-.49 1.46-.45 .52.04.97.36 1.26.77 .65 1.1.28 2.32-.82 3.01 -.45.28-.98.52-1.67.36"/><path fill="#FFF" d="M166.43 143.37c-.45-.74-1.31-.94-1.88-.57 -.45.32-.78.93-.33 1.67 .4.61 1.26.89 1.95.44 .48-.29.61-.98.24-1.55"/><path d="M175.42 139.634c-.49-.25-.7-.57-.86-1.06 -.33-.98.2-2.16 1.58-2.57 .52-.17.97-.25 1.54-.05 .48.16.85.57.97 1.05 .4 1.22-.29 2.32-1.51 2.68 -.53.16-1.14.24-1.75-.09"/><path fill="#FFF" d="M177.82 137.63c-.29-.82-1.02-1.22-1.67-1.02 -.53.16-.98.69-.74 1.46 .2.69.97 1.22 1.75.97 .52-.17.85-.82.65-1.43"/><path fill="#730000" d="M103.96 79.23l29.62-15.35 -.78-2.04 -25.6 12.25c-.53.2-5.21 2.15-7.61 5.04 -1.35 1.63-.66 2.6-.66 2.6s.4-.21.89-.21c0 0 .2.93-.29 1.3 -.21.16-.04.65.36.73 .44.04.73-.17 1.22-1.02 .48-.82 2.07-2.69 2.8-3.34"/><path fill="none" fill-rule="evenodd" stroke="#000" stroke-width=".5" d="M103.96 79.232l29.62-15.35 -.78-2.04 -25.6 12.25c-.53.2-5.21 2.15-7.61 5.04 -1.35 1.62-.66 2.6-.66 2.6s.4-.21.89-.21c0 0 .2.93-.29 1.3 -.21.16-.04.65.36.73 .44.04.73-.17 1.22-1.02 .48-.82 2.07-2.69 2.8-3.34v0Z"/><path fill="#FFF" d="M127.813 64.05l3.82-1.84s1.3.97 1.18 2.07c0 0 .28 2.52 3.41 4.27 0 0-2.65 3.29-7.29 3.58 0 0 .36-4.52-.61-5.78 0 0-.98-1.47-.53-2.32"/><g stroke-width=".5" fill-rule="evenodd" stroke="#000" fill="none"><path d="M127.813 64.05l3.82-1.84s1.3.97 1.18 2.07c0 0 .28 2.52 3.42 4.27 0 0-2.65 3.29-7.29 3.58 0 0 .36-4.52-.61-5.78 0 0-.98-1.47-.53-2.32v0Z"/><path stroke="#7E4B7E" d="M132.29 64.579c-.82.32-3.46 1.71-3.46 1.71m2.19-.9c-.04.4-.29 1.38 0 2.07m-.37-1.96c0 .2-.33.93.04 1.91m-.45-1.71c-.09.4-.17.65 0 1.1m-.33-.86c-.09.24 0 .36 0 .52m2.4-.66c.12.32 1.22 2.03 1.87 2.72m-1.71-1.96c.12.32.73 1.5 1.18 1.95m-1.27-1.27c.16.4.48 1.14.81 1.54m-.82-.74c.08.32.24.73.48 1.01"/></g><path fill="url(#a)" d="M117.232 62.01c-.29 1.3-.29 2.44-.25 3.7 .04.85.44 1.83.81 2.68 .24.57.57 1.22 1.09 1.54 1.42.93 2.76-.08 3.54-.41 .36-.13.93-.66 1.1-.98 .2-.49.12-.86.32-1.79 -.04.04.32-.17.28-.17 .36-.62.28-.82.48-1.23 .2-.41-.25-.86-.74-.78 .24-.78.4-1.63.16-2.37 -.09-.25.2-.9-.25-.74 -1.84.73-3.99.57-5.95.57 -.17 0-.29-.33-.53-.29 -.04 0-.08.12-.13.2"/><path fill="none" fill-rule="evenodd" stroke="#000" stroke-width=".5" d="M117.232 62.015c-.29 1.3-.29 2.44-.25 3.7 .04.85.44 1.83.81 2.68 .24.57.57 1.22 1.09 1.54 1.42.93 2.76-.09 3.54-.41 .36-.13.93-.66 1.1-.98 .2-.49.12-.86.32-1.79 -.04.04.32-.17.28-.17 .36-.62.28-.82.48-1.23 .2-.41-.25-.86-.74-.78 .24-.78.4-1.63.16-2.37 -.09-.25.2-.9-.25-.74 -1.84.73-3.99.57-5.95.57 -.17 0-.29-.33-.53-.29 -.04 0-.08.12-.13.2v0Z"/><path d="M117.07 62.7c-.21-.17-.25-.53 0-1.31 .28-.78 0-.82.44-1.27 .44-.45.32-.66.61-.78 .28-.09 1.14-.09 1.42-.21 .24-.13.61-.29 1.18-.37 .61-.13 1.83-.08 2.4.24 .61.32 1.01 1.14 1.38 1.42 .4.28.65 1.46.57 3.17 -.13 1.71-.45 1.38-.45 1.38s-.49-.82-.9-.13c0 0 0-.66.08-1.14 .04-.49-.25-1.39.04-2 0 0-2.32.73-3.5.69 -1.22-.09-2.93-.37-3.02-.66l-.29.89"/><path fill="none" fill-rule="evenodd" stroke="#000" stroke-width=".5" d="M117.068 62.706c-.21-.17-.25-.53 0-1.31 .28-.78 0-.82.44-1.27 .44-.45.32-.66.61-.78 .28-.09 1.14-.09 1.42-.21 .24-.13.61-.29 1.18-.37 .61-.13 1.83-.09 2.4.24 .61.32 1.01 1.14 1.38 1.42 .4.28.65 1.46.57 3.17 -.13 1.71-.45 1.38-.45 1.38s-.49-.82-.9-.13c0 0 0-.66.08-1.14 .04-.49-.25-1.39.04-2 0 0-2.32.73-3.5.69 -1.23-.08-2.93-.37-3.02-.66l-.29.89"/><path fill="#FFF" d="M118.25 61.283c-.13-.25-.74-1.14-.25-1.43 .44-.25.16 1.1.77 1.38 0 0-.21.61-.53.04"/><path fill="none" fill-rule="evenodd" stroke="#FFF" stroke-width=".5" d="M118.25 61.28c-.13-.25-.74-1.14-.25-1.43 .44-.25.16 1.09.77 1.38 -.01 0-.21.61-.53.04v0Z"/><path fill="url(#b)" d="M124.15 66.615c-.09.24-.29.08-.29.16 -.17.85-.13 1.3-.33 1.79 -.29.57-1.31 1.1-1.27 1.05 -.82.24-1.79 1.22-3.38.32 -.09-.04-.17-.13-.25-.21 0 0 .44 1.66-1.18 2.48 -.57.28-6.31 3.29-6.31 3.29s-.61 1.1-.21 2.6c.04.24.12.44-.13.61 -.37.28-1.06 1.1-1.47 2.4 0 0-1.22-.53-1.22-1.31s.48-1.18.61-1.76c.12-.53.44-1.88.28-2.28 -.17-.45-.9-.61-1.18-.78 -.25-.17-.57.16-.53.53 .04.4.32.32.65.4 0 0-.37.77-.33 1.34l-3.71 1.91s.48.65.65.93c.16.28.53 4.07 1.62 5.86s1.46 1.3 1.71 1.54c.2.2.52.52.81.77 .28.2 1.54.32 1.79-.37 .28-.66.48-1.06 1.26-1.67 .77-.61 2.36-2.16 2.36-2.85 0 0 .93 2.68.81 4.92 0 0 3.41.69 6.47.77 3.05.04 4.6-.61 4.6-.61s.4-2.57.24-3.06c0 0 .48 1.67.85 2.23 .4.69.85 2.11 1.75 2.19 .85.04 1.58-.86 1.66-1.22v-2.69h3.46c0-.04 1.54.56 2.03.48 .48-.04.77-.49.32-.65l-.17-.13c.44 0 1.01.28 1.01.28h1.71c.04-.04 0-.17-.04-.21 -.13-.49-1.02-.9-1.67-1.18 -.65-.25-1.39-.53-1.88-.57 -.78-.09-1.31-.04-2.49.16 -.33.04-1.55.16-2.32.52 -.21.12-.41.16-.33-.37 .12-.57.08-3.14-.53-4.24 -.45-.78-.41-1.43-.33-2.08 .04-.66.08-2.89 0-3.55 -.13-.65-1.02-1.55-2.65-1.75 -1.55-.21-2.85-1.47-2.93-2.49 -.13-1.02.16-2.89.32-3.71"/><g stroke-width=".5" fill-rule="evenodd" stroke="#000" fill="none"><path d="M124.15 66.61c-.08.24-.29.08-.29.16 -.17.85-.13 1.3-.33 1.79 -.29.56-1.31 1.1-1.27 1.05 -.82.24-1.8 1.22-3.378.32 -.09-.04-.17-.13-.25-.21 0 0 .44 1.67-1.18 2.48 -.57.28-6.31 3.29-6.31 3.29s-.61 1.1-.21 2.6c.04.24.12.44-.13.61 -.37.28-1.06 1.09-1.47 2.4 0 0-1.22-.53-1.22-1.31s.48-1.18.61-1.75c.12-.53.44-1.88.28-2.28 -.17-.45-.9-.62-1.18-.78 -.25-.17-.57.16-.53.52 .04.4.32.32.65.4 0 0-.37.77-.33 1.34l-3.71 1.91s.48.65.65.93c.16.28.53 4.07 1.62 5.86s1.46 1.3 1.7 1.54c.2.2.52.52.81.77 .28.2 1.54.32 1.79-.37 .28-.66.48-1.06 1.26-1.67 .77-.61 2.36-2.16 2.36-2.85 0 0 .93 2.68.81 4.92 0 0 3.41.69 6.47.77 3.05.04 4.59-.61 4.59-.61s.4-2.57.24-3.06c0 0 .48 1.67.85 2.24 .4.69.85 2.11 1.75 2.19 .85.04 1.58-.86 1.66-1.22V85.9h3.46c0-.05 1.54.56 2.03.48 .48-.04.77-.49.32-.65l-.17-.13c.44 0 1.01.28 1.01.28h1.71c.04-.05 0-.17-.04-.21 -.13-.49-1.02-.9-1.67-1.18 -.65-.25-1.39-.53-1.88-.57 -.78-.08-1.31-.04-2.49.16 -.33.04-1.55.16-2.32.53 -.21.12-.41.16-.33-.37 .12-.57.08-3.14-.53-4.24 -.45-.78-.41-1.43-.33-2.08 .04-.65.08-2.89 0-3.54 -.13-.66-1.02-1.55-2.65-1.75 -1.55-.21-2.85-1.47-2.93-2.49 -.13-1.02.16-2.9.32-3.71l-.01 0Z"/><path d="M138.597 86.03c-.25-.29-.41-.41-.74-.53 -.25-.12-.57-.29-.82-.41 -.29-.17-.7-.21-.94-.37m.16 1.05c-.13-.09-.21-.13-.33-.21 -.13-.04-.29-.04-.41-.08 -.04 0-.04-.09-.09-.09 -.37-.04-.74-.21-.98-.53m-25.11-3.75c.36.28 1.26.89 1.34 2.07 .08.61.4 1.22.4 1.22m-5.25-3.14c.2.69.24 2.97 2.4 5.37m-2-8.55c-.17.44-.37.85.08 1.18m5.77 4.27c.44-1.02 1.83-.94 1.83-1.92"/><path d="M114.18 83.46c-.13-1.14-.37-1.79-.17-3.46 .08-.49.16-2.36 0-3.26 0 0 .65 3.13-1.47 3.74m13.75 5.006c0-1.59.36-2.49.36-2.49 .48-2.24-.45-3.1-.09-3.67 .32-.49.81-1.51.16-3.55 0 0 1.13 4.19-1.8 4.19 -2.97 0-2.85-1.1-2.85-1.1"/><path d="M114.01 76.75c0 .85 0 3.378 3.622 3.378 1.09 0 2.27-.78 2.93-1.31m.89-1.1c-.13-.78-.13-1.75-.13-2.77m-5.46-1.39c.97-.13 1.75-.25 3.58-.25m.12-2.53c.2.89-.13 2.32 1.54 2.52m1.75-2.85c-.25.65-.25 1.3-.33 1.75m.08 1.1c.69 0 1.99-.45 3.622-.13m.57 9.11c.32.65.4 1.5 1.42 2.48m-12.7-4.56c.08.53-.7 2.27-.13 3.7 .52 1.42.44 3.05-.45 4.43m2.64-7.62c-.33.65-.9 1.3-1.02 1.87m2.64-.65c0 .4-1.1 3.5-1.88 4.35 0 0 1.42.57 1.22 2.64m2.93-8.43c0 .52-.09.65.36.97m.97-.01c.52.65 2.19 2.6 1.83 3.7m-2.93-2.61c.12.4.12 2.52-.25 3.58m-.86-.09h-.001c-.63.01-1.14.48-1.22 1.1m3.49-1.23c.44-.13 1.34.65 1.34 2.84m6.26-4.12c-.86.24-1.22.69-.98.44 -.45.36-.86.61-.86.61m-9.16-21.21c-.21.69-.29.85-.37 1.26m4.23.65c.08.24.16.12.36.16m.16-1.59c.2-.25.48-.13.32.49"/></g><path d="M116.17 79.76c.24 0 .44-.17.44-.37 0-.17-.21-.33-.45-.33 -.21 0-.41.16-.41.32 0 .2.2.36.4.36"/><path fill="none" fill-rule="evenodd" stroke="#000" stroke-width=".5" d="M116.17 79.76c.24 0 .44-.17.44-.37 0-.17-.21-.33-.45-.33 -.21 0-.41.16-.41.32 0 .2.2.36.4.36Z"/><path d="M125.412 79.883c.2 0 .4-.17.4-.37 0-.21-.21-.33-.41-.33 -.25 0-.45.12-.45.32 -.01.2.2.36.44.36"/><path fill="none" fill-rule="evenodd" stroke="#000" stroke-width=".5" d="M125.41 79.88c.2 0 .4-.17.4-.37 0-.21-.21-.33-.41-.33 -.25 0-.45.12-.45.32s.2.36.44.36Zm-8.18-16.24c.36.12.73.24 1.1.4 .61.24.24 1.13.08 1.7 -.09.28-.41.77-.25 1.01 .2.32.44.12.81.16 0-.12.24-.21.32-.21 .28-.04.44.2.65.12 .24-.13.2-.49.12-.7m-.05-1.8c.04-.17.4-.33.61-.37 .85-.17 1.46-.29 2.15.2"/><path fill="#FFF" d="M117.191 64.61c.28-.04.61-.37 1.26.12 .44.28-.74.57-.53.52 -.53.08-.7-.21-.74-.45 0-.09-.09-.21 0-.21"/><path fill="none" fill-rule="evenodd" stroke="#000" stroke-width=".5" d="M117.191 64.619c.28-.04.61-.37 1.26.12 .44.28-.74.57-.53.53 -.53.08-.7-.21-.74-.45 0-.08-.09-.21 0-.21v0Z"/><path d="M117.76 65.1c.16 0 .28-.17.28-.33 0-.21-.13-.37-.29-.37 -.21 0-.33.16-.33.36v0c-.01.17.13.32.31.32 0 0 0 0 .01 0"/><path fill="none" fill-rule="evenodd" stroke="#000" stroke-width=".5" d="M117.76 65.1c.16 0 .28-.17.28-.33 0-.21-.13-.37-.29-.37 -.21 0-.33.16-.33.36h-.001c-.01.17.13.32.31.32 0 0 0 0 .01 0Zm2.76 3.54c-.7.16-1.43.28-2.08-.09m0-.33c.32-.17.44-.33.85-.13 0-.04.44-.17.44-.17 .32 0 .52.12.85.32m-2.2.12c.36-.13 1.34-.13 2.15.04"/><path fill="#FFF" d="M120.529 64.94c.28-.58.73-.45 1.13-.33 .4.12.28.04.65.24 -.45.08-.33.12-.65.28 -.37.16-.7.24-.94.08 -.09-.09-.29-.21-.29-.37 0 .04.04.08.08.08"/><path fill="none" fill-rule="evenodd" stroke="#000" stroke-width=".5" d="M120.529 64.94c.28-.58.73-.45 1.13-.33 .4.12.28.04.65.24 -.45.08-.33.12-.65.28 -.37.16-.7.24-.94.08 -.09-.09-.29-.21-.29-.37 0 .04.04.08.08.08Z"/><path d="M121.22 65.18c.16 0 .28-.16.28-.37h0c0-.18-.14-.33-.32-.33 -.01-.01-.01-.01-.02 0 -.17 0-.29.12-.29.32s.16.36.32.36"/><path fill="none" fill-rule="evenodd" stroke="#000" stroke-width=".5" d="M121.22 65.18c.16 0 .28-.16.28-.37h0c0-.18-.14-.33-.32-.33 -.01-.01-.01-.01-.02 0 -.17 0-.29.12-.29.32s.16.36.32.36Z"/><path fill="#FFB366" d="M102.54 76.505c-.21.12-.45-.82.16-1.18 0 0 .16-.78.81-.86 0 0 .52-.74 1.3-.65 0 0 .89-.62 1.22-.53 .32.04 1.14.85 1.18 1.14 .08.28 0 .77-.21.97 -.25.24-.41-.04-.45-.37 0 0 .16.61-.33.85 -.49.28-.45.08-.49-.25 0 0-.13.65-.45.73 -.33.12-.53-.17-.78-.17 0 0 .4.32.12.57 -.29.2-.62.12-.82-.04 -.21-.21-.45-.74-1.31-.25"/><g stroke-width=".5" fill-rule="evenodd" stroke="#000" fill="none"><path d="M102.54 76.505c-.21.12-.45-.82.16-1.18 0 0 .16-.78.81-.86 0 0 .52-.74 1.3-.65 0 0 .89-.61 1.22-.53 .32.04 1.14.85 1.18 1.14 .08.28 0 .77-.21.97 -.25.24-.41-.04-.45-.37 0 0 .16.61-.33.85 -.49.28-.45.08-.49-.25 0 0-.13.65-.45.73 -.33.12-.53-.17-.78-.17 0 0 .4.32.12.57 -.29.2-.62.12-.82-.04 -.21-.21-.45-.74-1.31-.25l0-.01Zm3.98-1.51c-.21-.66-.86-1.23-1.63-1.14"/><path d="M105.79 75.61c-.13-.17-.17-.33-.29-.49 -.37-.62-1.14-.57-1.79-.74m.97 1.83c-.25-.17-.33-.49-.57-.61 -.41-.17-.82-.37-1.31-.29"/></g><path fill="#FFF" d="M112.47 96.488c.48-3.18 1.99-5.82 2.03-6.07 0 0 1.54.32 4.23.56 2.64.28 3.37.16 4.59.08 1.18-.13 2.72-.33 2.72-.33s.48.97.52 1.95c.12 2.07.89 11.07.97 13.47 0 0 .32 1.42.32 4.92 0 3.82 1.05 11.6 1.05 15.75l-1.06.2s-5.78.44-5.78-.33c0-.86-.33-10.83.53-16.85 0 0-.21-1.18-.53-2.2 -.33-.98-1.75-4.03-1.75-4.68 0 0-2.28 6.43-2.4 7.53 -.13 1.01-.45 15.34-.66 16.52 0 0-3.3 2.52-3.75 2.76 -.45.2-3.622-1.35-3.71-1.75 -.13-.45.32-5.3 1.83-13.27 .57-2.85.24-3.38.24-4.16 0-.78.04-10.988.52-14.17"/><g stroke-width=".5" fill-rule="evenodd" stroke="#000" fill="none"><path d="M112.47 96.49c.48-3.18 1.99-5.82 2.03-6.07 0 0 1.54.32 4.23.57 2.64.28 3.37.16 4.59.08 1.18-.12 2.72-.33 2.72-.33s.48.97.53 1.95c.12 2.07.89 11.07.97 13.47 0 0 .32 1.42.32 4.92 0 3.82 1.05 11.6 1.05 15.75l-1.06.2s-5.78.44-5.78-.33c0-.86-.33-10.83.53-16.85 0 0-.21-1.18-.53-2.2 -.33-.98-1.75-4.03-1.75-4.68 0 0-2.28 6.43-2.4 7.53 -.13 1.01-.45 15.34-.66 16.52 0 0-3.3 2.52-3.75 2.76 -.45.2-3.622-1.35-3.71-1.75 -.13-.45.32-5.3 1.83-13.27 .57-2.85.24-3.38.24-4.15 0-.78.04-10.99.53-14.17v0Zm2.97-5.09c-.13.52-.9 2.93-2.85 4.35m5.69-3.91c-.45 1.42-2.2 9.07-2.53 18.152m2.19.52c-.25.89-.66 1.75-1.43 2.32m-.9 0c-.09.85-.53 7.2-.65 8.3m-.33 1.22c-.21.44-1.1 4.15-1.1 7.44m12.9-14.37c-.09.77-.41 6.26 1.42 11.19"/><path d="M120.48 92.257c-.13.89-.33 6.67-.33 7.122 0 .44.65 1.09.97 1.22 0 0-.66.2-.78 2.4m-1.63-5.17c-.13.69-.78 3.42-1.23 4.51m5.25-10.18s1.95.4 2.07 0c0 0 .65 11.8 1.54 18.35m-4.48-16.86c0 .77-.25 6.59-.25 6.59m.97.85s.77 1.09.57 1.62m-7.122-11.24c.65.2 1.22.32 1.22.32m2.07.65c-.13.32-.25 1.83-.25 1.83m3.49 15.54c.24.32.57.77.32 1.75"/></g><path fill="#9B5F00" d="M114.221 90.342s0-1.3.48-1.96c0 0 1.38.28 3.33.48 1.99.2 3.58.36 5.04.2 1.46-.17 2.97-.53 2.97-.53s.4 1.91.2 2.19c0 0-1.59.32-3.34.4 -1.8.12-4.77-.17-5.78-.33 -1.35-.17-2.53-.41-2.93-.49"/><path fill="none" fill-rule="evenodd" stroke="#000" stroke-width=".5" d="M114.221 90.34s0-1.31.48-1.96c0 0 1.38.28 3.33.48 1.99.2 3.58.36 5.04.2 1.46-.17 2.97-.53 2.97-.53s.4 1.91.2 2.19c0 0-1.59.32-3.34.4 -1.8.12-4.77-.17-5.78-.33 -1.35-.17-2.53-.41-2.93-.49v0Z"/><use fill="#FFF" xlink:href="#i"/><use fill="none" fill-rule="evenodd" stroke="#000" stroke-width=".5" xlink:href="#i"/><path fill="#FFF" d="M124.31 88.877l.04 2.19 .48-.09 -.04-2.24 -.49.12"/><path fill="none" fill-rule="evenodd" stroke="#000" stroke-width=".5" d="M124.31 88.87l.04 2.19 .48-.09 -.04-2.24 -.49.12"/><use fill="#FFF" xlink:href="#j"/><use fill="none" fill-rule="evenodd" stroke="#000" stroke-width=".5" xlink:href="#j"/><path fill="#FFA54B" d="M110.96 128.888c-.13.52-.33 1.26-.41 2.19 0 .2-.21 1.3.4 1.34 .44.04.57-1.14.57-1.14s-.41 1.3.12 1.46c.73.16.81-1.43.81-1.43 -.09.44-.57 1.58.12 1.71 .73.12.93-1.55.93-1.55s-.62 1.66.12 1.71c.69.04.69-1.63.69-1.63s-.37 1.99.61 1.83c.53-.08.65-.78.77-1.18 .16-.61.53-1.39.08-2.65 -.33-.94-.21-1.18-.21-1.18s-1.14.85-2.04 1.42c-.41.24-2.61-.94-2.61-.94"/><path fill="none" fill-rule="evenodd" stroke="#000" stroke-width=".5" d="M110.96 128.888c-.13.53-.33 1.26-.41 2.19 0 .2-.21 1.3.4 1.34 .44.04.57-1.14.57-1.14s-.41 1.3.12 1.46c.73.16.81-1.43.81-1.43 -.09.44-.57 1.58.12 1.7 .73.12.93-1.55.93-1.55s-.62 1.66.12 1.7c.69.04.69-1.63.69-1.63s-.37 1.99.61 1.83c.53-.09.65-.78.77-1.18 .16-.62.53-1.39.08-2.65 -.33-.94-.21-1.18-.21-1.18s-1.14.85-2.04 1.42c-.41.24-2.61-.94-2.61-.94v0Z"/><path fill="#FFA54B" d="M122.848 127.13c-.21-.13-.17.73-.25 1.13 -.04.4.08 1.3 1.46 1.22 1.34-.13 2.68-.41 3.54-.21 .85.24 2.11.28 2.8.28s1.13-.08 1.46-.21c.28-.13.89.16 1.18.16 .28 0 .73-.45.69-.74 -.04-.53-.53-.53-1.22-.57 -.66-.09-1.55-.21-2-.37 -.45-.17-1.27-.61-2.28-.82 0 0-1.96.08-2.36.08 -.41 0-2.81.12-3.06 0"/><path fill="none" fill-rule="evenodd" stroke="#000" stroke-width=".5" d="M122.849 127.13c-.21-.13-.17.73-.25 1.13 -.04.4.08 1.3 1.46 1.22 1.34-.13 2.68-.41 3.54-.21 .85.24 2.11.28 2.8.28s1.13-.08 1.46-.21c.28-.13.89.16 1.18.16 .28 0 .73-.45.69-.74 -.04-.53-.53-.53-1.22-.57 -.66-.08-1.55-.21-2-.37 -.45-.17-1.27-.61-2.28-.82 0 0-1.96.08-2.36.08 -.41 0-2.81.12-3.06 0Z"/><path fill="#B34B00" d="M160.084 61.68l36.01 17.54c2.07.44 1.3 1.67 2.76 3.33 .65.73.77.97 1.22 1.01 1.14.04 1.01-1.63.81-1.83 -.53-.53-1.14-.98-1.14-.98 .16-.33.65.89 1.79.89 .97 0 1.09-.57.2-1.55 -.86-.98-1.18-.98-2.32-1.1 0 0-2.04-.78-2.77-1.31 -1.31-1.02-3.1-2.08-3.67-2.32l-32.4-17.5c-.53-.21-2.28-1.43-3.38.44 -.7 1.13.44 2.27 2.84 3.33"/><path fill="none" fill-rule="evenodd" stroke="#000" stroke-width=".5" d="M160.084 61.68l36.01 17.54c2.07.44 1.3 1.67 2.76 3.33 .65.73.77.97 1.22 1.01 1.14.04 1.01-1.63.81-1.84 -.53-.53-1.14-.98-1.14-.98 .16-.33.65.89 1.79.89 .97 0 1.1-.57.2-1.55 -.86-.98-1.18-.98-2.32-1.1 0 0-2.04-.78-2.77-1.31 -1.31-1.02-3.1-2.08-3.67-2.32l-32.393-17.5c-.53-.21-2.28-1.43-3.38.44 -.7 1.13.44 2.27 2.84 3.33Zm-.66-2.49l16.726 8.87"/><path fill="url(#c)" d="M182.792 62.01c.36 1.34.44 1.66.44 2.11 0 .48-.21.57-.04 1.1 .28.97-.29 2.03-.98 3.17 -.33.52-.57 1.22-1.1 1.54 -1.35.85-2.97-.17-3.83-.54v0c-.38-.17-.68-.47-.82-.86 -.17-.49-.21-.94-.33-1.59 0-.13.04-.49-.25-.37 -.49-.57-.41-.82-.61-1.23 -.21-.41.36-.86.81-.78 -.25-.78-.37-1.63-.13-2.37 .08-.25-.21-.9.2-.74 1.83.73 3.98.57 5.94.57 .16 0 .28-.33.52-.29 .04-.01.08.12.12.2"/><path fill="none" fill-rule="evenodd" stroke="#000" stroke-width=".5" d="M182.792 62.01c.36 1.34.44 1.67.44 2.11 0 .48-.21.57-.04 1.1 .28.97-.29 2.03-.98 3.17 -.33.52-.57 1.22-1.1 1.54 -1.35.85-2.97-.17-3.83-.53l-.001 0c-.38-.17-.68-.47-.82-.86 -.17-.49-.21-.94-.33-1.59 0-.13.04-.49-.25-.37 -.49-.57-.41-.82-.61-1.23 -.21-.41.36-.86.81-.78 -.25-.78-.37-1.63-.13-2.36 .08-.25-.21-.9.2-.74 1.83.73 3.98.57 5.94.57 .16 0 .28-.33.52-.29 .04 0 .08.12.12.2v0Z"/><path d="M182.95 62.7c.2-.17.08-.94-.13-1.75 -.09-.41-.41-.57-.86-1.02 -.45-.45-.62-.45-.9-.57 -.25-.09-.82-.09-1.1-.21 -.25-.13-.9-.04-1.51.04 -.82.12-1.27.08-1.88.4 -.61.32-1.1.69-1.31 1.3 -.17.44-.45 1.01-.33 2.72 .08 1.71.4 1.38.4 1.38s.44-.66.73-.25c0 0-.04-.9-.13-1.43 -.04-.49 0-1.1.2-1.84 0 0 1.87.69 3.62.69 1.22 0 2.8-.13 2.84-.41l.28.89"/><path fill="none" fill-rule="evenodd" stroke="#000" stroke-width=".5" d="M182.95 62.7c.2-.17.08-.94-.13-1.75 -.09-.41-.41-.57-.86-1.02 -.45-.45-.62-.45-.9-.57 -.25-.09-.82-.09-1.1-.21 -.25-.13-.9-.05-1.51.04 -.82.12-1.27.08-1.88.4 -.61.32-1.1.69-1.31 1.3 -.17.44-.45 1.01-.33 2.72 .08 1.71.4 1.38.4 1.38s.44-.66.73-.25c0 0-.04-.9-.13-1.43 -.04-.49 0-1.1.2-1.84 0 0 1.87.69 3.62.69 1.22 0 2.8-.13 2.85-.41l.28.89v0Z"/><path fill="url(#d)" d="M175.91 66.615c.28-.13.2.24.24.36 .12.52.12 1.1.32 1.58 .24.44.32.61.73.81 .65.36 2.56 1.42 3.9.57v0c.1-.06.2-.13.28-.21 0 0-.49 1.67 1.18 2.48 .53.28 6.26 3.29 6.26 3.29s.61 1.1.24 2.6c-.09.24-.17.44.08.61 .4.28 1.05 1.1 1.5 2.4 0 0 1.18-.53 1.18-1.31s-.49-1.18-.62-1.75c-.09-.53-.41-1.88-.25-2.28 .16-.45.85-.61 1.13-.78 .28-.17.61.16.52.53 -.04.4-.33.32-.66.4 0 0 .4.77.32 1.34l3.74 1.91s-.49.65-.66.93c-.21.28-.57 4.07-1.67 5.86s-1.47 1.3-1.67 1.54c-.25.2-.57.52-.86.77 -.25.2-1.51.32-1.79-.37 -.29-.66-.49-1.06-1.27-1.67 -.78-.61-2.37-2.16-2.37-2.85 0 0-.94 2.68-.82 4.92 0 0-3.38.69-6.47.77 -3.06.04-4.6-.61-4.6-.61s-.41-2.57-.25-3.06c0 0-.49 1.67-.82 2.23 -.45.69-.9 2.11-1.75 2.19 -.9.04-1.59-.86-1.71-1.22V85.9h-3.46c0-.04-1.51.56-2.04.49 -.49-.05-.74-.49-.33-.66l.16-.12c-.45 0-1.02.28-1.02.28h-1.71c0-.04.04-.17.04-.21 .12-.49 1.01-.9 1.71-1.18 .65-.25 1.34-.53 1.83-.57 .77-.08 1.3-.04 2.48.16 .32.04 1.58.16 2.31.53 .2.12.44.16.32-.37 -.13-.57-.49-2.24.12-3.34 .4-.78.36-1.43.32-2.08 -.09-.7-.45-2.24-.45-2.93 0-2.28 1.75-3.22 3.29-3.71 1.71-.53 2.84-1.1 2.76-2.12 -.04-1.06.24-2.81.08-3.63"/><g stroke-width=".5" fill-rule="evenodd" stroke="#000" fill="none"><path d="M175.915 66.615c.28-.13.2.24.24.36 .12.52.12 1.1.32 1.58 .24.44.32.61.73.81 .65.36 2.56 1.42 3.9.57 .08-.04.2-.13.28-.21 0 0-.49 1.67 1.18 2.48 .53.28 6.26 3.29 6.26 3.29s.61 1.1.24 2.6c-.09.24-.17.44.08.61 .4.28 1.05 1.1 1.5 2.4 0 0 1.18-.53 1.18-1.31s-.49-1.18-.62-1.75c-.09-.53-.41-1.88-.25-2.28 .16-.45.85-.61 1.13-.78 .28-.17.61.16.52.53 -.04.4-.33.32-.66.4 0 0 .4.77.32 1.34l3.74 1.91s-.49.65-.66.93c-.21.28-.57 4.07-1.67 5.86s-1.47 1.3-1.67 1.54c-.25.2-.57.52-.86.77 -.25.2-1.51.32-1.8-.37 -.29-.66-.49-1.06-1.27-1.67 -.78-.61-2.37-2.16-2.37-2.85 0 0-.94 2.68-.82 4.92 0 0-3.38.69-6.47.77 -3.06.04-4.6-.61-4.6-.61s-.41-2.57-.25-3.06c0 0-.49 1.67-.82 2.24 -.45.69-.9 2.11-1.75 2.19 -.9.04-1.59-.86-1.71-1.22v-2.69h-3.46c0-.04-1.51.56-2.04.48 -.49-.04-.74-.49-.33-.65l.16-.13c-.45 0-1.02.28-1.02.28h-1.71c0-.04.04-.17.04-.21 .12-.49 1.01-.9 1.71-1.19 .65-.25 1.34-.53 1.83-.57 .77-.08 1.3-.04 2.48.16 .32.04 1.58.16 2.32.52 .2.12.44.16.32-.37 -.12-.57-.49-2.24.12-3.34 .4-.78.36-1.43.32-2.08 -.09-.7-.45-2.24-.45-2.94 0-2.28 1.75-3.22 3.29-3.71 1.7-.53 2.84-1.1 2.76-2.12 -.04-1.06.24-2.81.08-3.622h0Z"/><path d="M161.42 86.03c.28-.29.4-.41.73-.53 .28-.12.56-.29.81-.41 .28-.17.69-.21.93-.37m-.17 1.05c.12-.09.2-.13.32-.21 .12-.04.28-.04.44-.08 0 0 0-.09.04-.09 .4-.04.73-.21.97-.53m25.15-3.75c-.41.28-1.27.89-1.39 2.07 -.04.61-.37 1.22-.37 1.22m5.25-3.14c-.25.69-.29 2.97-2.45 5.37m1.99-8.55c.16.44.36.85-.09 1.18m-5.79 4.27c-.45-1.02-1.8-.94-1.8-1.92"/><path d="M185.844 83.46c.12-1.14.4-1.79.16-3.46 -.04-.49-.17-2.36 0-3.26 0 0-.65 3.13 1.5 3.74m-13.8 5.006c0-1.59-.33-2.49-.33-2.49 -.49-2.24.4-3.1.04-3.67 -.33-.49-.82-1.51-.17-3.55 0 0-1.14 4.19 1.79 4.19 2.97 0 2.85-1.1 2.85-1.1"/><path d="M186 76.75c0 .85 0 3.378-3.58 3.378 -1.1 0-2.32-.78-2.98-1.31m-.9-1.1c.12-.78.12-1.75.12-2.77m5.49-1.39c-1.02-.13-1.75-.25-3.63-.25m-.13-2.53c-.21.89.12 2.32-1.55 2.52m-1.75-2.85c.24.65.24 1.3.36 1.75m-.13 1.1c-.65 0-2-.13-3.46.12m-.7 8.87c-.33.65-.45 1.5-1.43 2.48m12.69-4.56c-.13.53.65 2.27.08 3.7V83.9c-.55 1.46-.38 3.1.44 4.43m-2.61-7.62c.32.65.85 1.3.97 1.87m-2.65-.65c0 .4 1.09 3.5 1.87 4.35 0 0-1.43.57-1.22 2.64m-2.94-8.43c0 .52.08.65-.33.97m-1.02-.01c-.53.65-2.16 2.6-1.83 3.7m2.93-2.61c-.09.4-.09 2.52.24 3.58m.85-.09v0c.62.01 1.13.48 1.22 1.1m-3.5-1.23c-.45-.13-1.31.65-1.31 2.84m-6.31-4.12c.85.24 1.26.69.97.44 .44.36.89.61.89.61m9.11-21.21c.24.69.04.48.16.93m-4.12.81c0 .32-.25.24-.41.24"/></g><path d="M183.85 79.76c-.25 0-.41-.17-.41-.37 0-.17.16-.33.4-.33 .24 0 .4.16.4.32 0 .2-.17.36-.41.36"/><path fill="none" fill-rule="evenodd" stroke="#000" stroke-width=".5" d="M183.85 79.76c-.25 0-.41-.17-.41-.37 0-.17.16-.33.4-.33 .24 0 .4.16.4.32 0 .2-.17.36-.41.36Z"/><path d="M174.653 79.883c-.25 0-.45-.17-.45-.37 0-.21.2-.33.44-.33 .2 0 .4.12.4.32s-.21.36-.41.36"/><path fill="none" fill-rule="evenodd" stroke="#000" stroke-width=".5" d="M174.653 79.88c-.25 0-.45-.17-.45-.37 0-.21.2-.33.44-.33 .2 0 .4.12.4.32s-.21.36-.41.36Zm8.34-15.8c-.37-.29-1.06-.08-1.39.04 -.62.28-.29.89-.09 1.46 .08.28.4.69.2.97 -.17.32-.29.16-.66.2 .04-.13-.33 0-.45 0 -.25-.04-.37.16-.57.08 -.25-.13-.21-.49-.13-.69m.04-1.8c0-.17-.53-.33-1.1-.37 -.9-.04-.98.04-1.67.53"/><path fill="#FFF" d="M182.833 64.61c-.29-.04-.41-.37-1.27.12 -.45.24.73.57.57.52 .48.08.65-.21.69-.45 0-.09.08-.21 0-.21"/><path fill="none" fill-rule="evenodd" stroke="#000" stroke-width=".5" d="M182.833 64.619c-.29-.04-.41-.37-1.27.12 -.45.24.73.57.57.53 .48.08.65-.21.69-.45 0-.08.08-.21 0-.21Z"/><path d="M182.304 65.1l0-.001c-.18 0-.33-.14-.33-.32 -.01-.01-.01-.01 0-.02 0-.21.12-.37.32-.37 .16 0 .28.16.28.36 0 .16-.13.32-.29.32"/><path fill="none" fill-rule="evenodd" stroke="#000" stroke-width=".5" d="M182.304 65.1l0-.001c-.18 0-.33-.14-.33-.32 -.01-.01-.01-.01 0-.02 0-.21.12-.37.32-.37 .16 0 .28.16.28.36 0 .16-.13.32-.29.32Zm-.49 3.01c-.17-.25-.41-.37-.86-.17 0-.09-.62-.17-.62-.17 -.33 0-.53.12-.86.28m2.23.24c-.37-.25-1.31-.08-2.24-.08m.08.32c.69.2 1.38.32 2.07 0"/><path fill="#FFF" d="M179.49 64.94c0-.33-.74-.45-1.14-.33 -.41.12-.25.04-.61.24 .4.08.28.12.61.28 .36.16.44.32.93.08v0c.15-.07.27-.21.32-.37 -.05.04-.09.08-.13.08"/><path fill="none" fill-rule="evenodd" stroke="#000" stroke-width=".5" d="M179.49 64.946c0-.33-.74-.45-1.14-.33 -.41.12-.25.04-.61.24 .4.08.28.12.61.28 .36.16.44.32.93.08v-.001c.15-.07.27-.21.32-.37 -.04.04-.09.08-.13.08Z"/><path d="M178.804 65.18c-.17 0-.29-.16-.29-.37h-.001c-.01-.18.13-.33.31-.33 0-.01 0-.01.01 0 .16 0 .28.12.28.32s-.13.36-.33.36"/><path fill="none" fill-rule="evenodd" stroke="#000" stroke-width=".5" d="M178.8 65.18c-.17 0-.29-.16-.29-.37v0c-.01-.18.13-.33.31-.33 0-.01 0-.01.01 0 .16 0 .28.12.28.32s-.13.36-.33.36Z"/><path fill="#FFF" d="M187.554 96.488c-.49-3.18-1.96-5.82-2.04-6.07 0 0-1.51.32-4.2.56 -2.69.28-3.42.16-4.6.08 -1.22-.13-2.77-.33-2.77-.33s-.49.97-.53 1.95c-.13 2.07-.86 11.07-.98 13.47 0 0-.33 1.42-.33 4.92 0 3.82-1.06 11.6-1.06 15.75l1.05.2s5.77.44 5.77-.33c0-.86.32-10.83-.53-16.85 0 0 .2-1.18.53-2.2 .32-.98 1.75-4.03 1.75-4.68 0 0 2.27 6.43 2.4 7.53 .12 1.01.44 15.34.69 16.52 0 0 3.25 2.52 3.7 2.76 .44.2 3.62-1.35 3.7-1.75 .12-.45-.33-5.3-1.84-13.27 -.57-2.85-.25-3.38-.25-4.16 0-.78-.04-10.988-.53-14.17"/><g stroke-width=".5" fill-rule="evenodd" stroke="#000" fill="none"><path d="M187.554 96.49c-.49-3.18-1.96-5.82-2.04-6.07 0 0-1.51.32-4.2.57 -2.69.28-3.42.16-4.6.08 -1.22-.12-2.77-.33-2.77-.33s-.49.97-.53 1.95c-.13 2.07-.86 11.07-.98 13.47 0 0-.33 1.42-.33 4.92 0 3.82-1.06 11.6-1.06 15.75l1.05.2s5.78.44 5.78-.33c0-.86.32-10.83-.53-16.85 0 0 .2-1.18.53-2.2 .32-.98 1.75-4.03 1.75-4.68 0 0 2.27 6.43 2.4 7.53 .12 1.01.44 15.34.69 16.52 0 0 3.25 2.52 3.7 2.76 .44.2 3.62-1.35 3.7-1.75 .12-.45-.33-5.3-1.84-13.27 -.57-2.85-.25-3.38-.25-4.15 0-.78-.04-10.99-.53-14.17h-.01Zm-2.98-5.09c.12.52.89 2.93 2.84 4.35m-5.7-3.91c.44 1.42 2.19 9.07 2.52 18.152m-2.2.52c.24.89.69 1.75 1.42 2.32m.89 0c.12.85.52 7.2.65 8.3m.32 1.22c.24.44 1.09 4.15 1.09 7.44m-12.9-14.37c.08.77.4 6.26-1.43 11.19"/><path d="M179.577 92.257c.08.89.32 6.67.32 7.122 0 .44-.65 1.09-1.02 1.22 0 0 .69.2.77 2.4m1.67-5.17c.08.69.73 3.42 1.18 4.51m-5.25-10.18s-1.96.4-2.08 0c0 0-.66 11.8-1.55 18.35m4.51-16.86c0 .77.2 6.59.2 6.59m-.98.85s-.78 1.09-.57 1.62m7.12-11.24c-.66.2-1.18.32-1.18.32m-2.08.65c.08.32.2 1.83.2 1.83m-3.5 15.54c-.25.32-.57.77-.33 1.75"/></g><path fill="#9B5F00" d="M185.804 90.342s0-1.3-.49-1.96c0 0-1.39.28-3.34.48 -2 .2-3.59.36-5.05.2 -1.47-.17-2.97-.53-2.97-.53s-.41 1.91-.21 2.19c0 0 1.58.32 3.33.4 1.79.12 4.76-.17 5.81-.33 1.3-.17 2.48-.41 2.88-.49"/><path fill="none" fill-rule="evenodd" stroke="#000" stroke-width=".5" d="M185.804 90.34s0-1.31-.49-1.96c0 0-1.39.28-3.34.48 -2 .2-3.58.36-5.05.2 -1.47-.17-2.97-.53-2.97-.53s-.41 1.91-.21 2.19c0 0 1.58.32 3.33.4 1.79.12 4.76-.17 5.82-.33 1.3-.17 2.48-.41 2.88-.49v0Z"/><use fill="#FFF" xlink:href="#k"/><use fill="none" fill-rule="evenodd" stroke="#000" stroke-width=".5" xlink:href="#k"/><path fill="#FFF" d="M175.752 88.877l-.09 2.19 -.49-.09 .04-2.24 .53.12"/><path fill="none" fill-rule="evenodd" stroke="#000" stroke-width=".5" d="M175.752 88.87l-.09 2.19 -.49-.09 .04-2.24 .53.12"/><path fill="#FFF" d="M181.97 88.87l.16 2.11h-.29l-.29-2.12h.4"/><path fill="none" fill-rule="evenodd" stroke="#000" stroke-width=".5" d="M181.97 88.87l.16 2.11h-.29l-.29-2.12Z"/><path fill="#730000" d="M189.1 128.888c.08.52.32 1.26.36 2.19 0 .2.2 1.3-.41 1.34 -.41.04-.57-1.14-.57-1.14s.4 1.3-.13 1.46c-.7.16-.82-1.43-.82-1.43 .12.44.61 1.58-.13 1.71 -.74.12-.94-1.55-.94-1.55s.61 1.66-.09 1.71c-.74.04-.74-1.63-.74-1.63s.4 1.99-.62 1.83c-.53-.08-.61-.78-.74-1.18 -.17-.61-.57-1.39-.13-2.65 .32-.94.2-1.18.2-1.18s1.18.85 2.03 1.42c.4.24 2.64-.94 2.64-.94"/><path fill="none" fill-rule="evenodd" stroke="#000" stroke-width=".5" d="M189.1 128.888c.08.53.32 1.26.36 2.19 0 .2.2 1.3-.41 1.34 -.41.04-.57-1.14-.57-1.14s.4 1.3-.13 1.46c-.7.16-.82-1.43-.82-1.43 .12.44.61 1.58-.13 1.7 -.74.12-.94-1.55-.94-1.55s.61 1.66-.09 1.7c-.74.04-.74-1.63-.74-1.63s.4 1.99-.61 1.83c-.53-.09-.61-.78-.74-1.18 -.17-.62-.57-1.39-.13-2.65 .32-.94.2-1.18.2-1.18s1.18.85 2.03 1.42c.4.24 2.64-.94 2.64-.94v0Z"/><path fill="#730000" d="M177.17 127.13c.2-.13.2.73.24 1.13 .04.4-.04 1.3-1.43 1.22 -1.39-.13-2.73-.41-3.58-.21 -.86.24-2.12.28-2.81.28 -.7 0-1.14-.08-1.43-.21 -.29-.13-.94.16-1.22.16 -.29 0-.74-.45-.7-.74 .08-.53.53-.53 1.22-.57 .69-.09 1.54-.21 1.99-.37 .44-.17 1.26-.61 2.32-.82 0 0 1.95.08 2.36.08 .36 0 2.8.12 3.01 0"/><path fill="none" fill-rule="evenodd" stroke="#000" stroke-width=".5" d="M177.176 127.13c.2-.13.2.73.24 1.13 .04.4-.04 1.3-1.43 1.22 -1.39-.13-2.73-.41-3.59-.21 -.86.24-2.12.28-2.81.28 -.7 0-1.14-.08-1.43-.21 -.29-.13-.94.16-1.22.16 -.29 0-.74-.45-.7-.74 .08-.53.53-.53 1.22-.57 .69-.08 1.54-.21 1.99-.37 .44-.17 1.26-.61 2.32-.82 0 0 1.95.08 2.36.08 .36 0 2.8.12 3.01 0v0Z"/><path fill="#5AC800" d="M116.296 130.02l-.09-1.88 .77.65 .2-1.43c.32-.09.85.57.85.57l-.09-1.43 1.18 1.3s-.09-1.1.32-1.76c0 0 .89.77.89 1.66 0 .77.77-1.1.77-1.1 .2.65.65 2.07.65 2.07l.53-.78 .44 1.62 .97-1.43 .77 1.67 1.75-.13 .2.97 .77-.86 1.01.65s.85-.25 1.3-.25c.44 0 .97.57.97.57s.32-.57.65-.78c.32-.21.77.32.89.65l.65-1.18s.85.85.97 1.18c0 0 .12-.98.32-1.31 .2-.33.53.12.77.52l.53-1.75s.56.12.97.77c.44.65.44-.98.44-.98s.97 1.3 1.22 2.19c0 0-6.74 2.31-11.49 1.68 -5.6-.75-10.2-1.81-10.2-1.81"/><path fill="none" fill-rule="evenodd" stroke="#060" stroke-width=".5" d="M116.296 130.027l-.09-1.88 .77.65 .2-1.43c.32-.08.85.57.85.57l-.09-1.43 1.18 1.3s-.09-1.1.32-1.75c0 0 .89.77.89 1.67 0 .77.77-1.1.77-1.1 .2.65.65 2.07.65 2.07l.53-.78 .44 1.62 .97-1.43 .77 1.67 1.75-.13 .2.97 .77-.86 1.01.65s.85-.25 1.3-.25c.44 0 .97.57.97.57s.32-.57.65-.78c.32-.21.77.32.89.65l.65-1.18s.85.85.97 1.18c0 0 .12-.98.32-1.31 .2-.33.53.12.77.53l.53-1.75s.56.12.97.77c.44.65.44-.98.44-.98s.97 1.3 1.22 2.19"/><path fill="#5AC800" d="M162.48 129.824s.32-.9.77-1.35c0 0 .85 1.01.85 1.34 0 0 .24-.13.69-.45l.65.65 .77-.53 .73.65 1.34-.57 .53.57 2.07-.25 .77.32 .73-.94 .69.73 1.09-1.1s.53.44.65.77c0 0 .89-.45 1.09-.78 0 0 .85-.33.97.2 0 0 .52-.41.48-.86 -.04-.45.61-.13.81.44 0 0 .24-.9.89-.98 0 0 .44.52.32 1.5 0 0 .97-.78 1.42-.86 0 0 .2 1.1-.13 2.07 0 0 1.01-1.67 1.22-1.1 .08.32.32 1.42.08 2.19l.89-.57 .32 1.1 .97-.21s-5.78.88-11.22.36c-5.45-.53-10.55-2.45-10.55-2.45"/><path fill="none" fill-rule="evenodd" stroke="#060" stroke-width=".5" d="M162.485 129.824s.32-.9.77-1.35c0 0 .85 1.01.85 1.34 0 0 .24-.13.69-.45l.65.65 .77-.53 .73.65 1.34-.57 .52.57 2.07-.25 .77.32 .73-.94 .69.73 1.09-1.1s.53.44.65.77c0 0 .89-.45 1.09-.78 0 0 .85-.33.97.2 0 0 .52-.41.48-.86 -.04-.45.61-.12.81.44 0 0 .24-.9.89-.98 0 0 .44.53.32 1.5 0 0 .97-.78 1.42-.86 0 0 .2 1.09-.13 2.07 0 0 1.01-1.67 1.22-1.1 .08.32.32 1.42.08 2.19l.89-.57 .32 1.1 .97-.21"/><path fill="#5AC800" d="M156.964 133.11c2.92-1.65 4.41-3.15 5.59-5.06 -1.21.84-.86.69-1.43.61 -.57-.12-.98-.53-.98-.53s-.53.61-1.22.52c-.7-.12-1.31-.53-1.31-.53s-.9.61-1.8.57c-.7-.05-1.27-.66-1.27-.66s-1.59.52-1.92.52c-.37 0-1.51-.53-1.51-.53s-.78.49-1.22.49c-.49 0-1.8-.57-1.8-.57s-1.22.32-1.79.32c-.57 0-1.43-.33-1.43-.33s-1.02.44-1.63.32v0c-.35-.08-.69-.19-1.02-.33 0 0-1.14.44-1.83.32 -.7-.12-1.51-.57-1.51-.57s-.13.32-1.47.56c0 0 .67-.18-.04.04 1.2 1.73 3.12 3.45 4.84 4.62 1.28-.35 1.59-.78 1.59-.78s1.17.65 1.87.77c.69.12 1.6-.53 1.6-.53s.78.4 1.35.52c.57.12 1.27-.39 1.27-.39s1.05.37 1.62.37c.57 0 1.67-.39 1.67-.39s1.03.57 1.52.57c.44 0 1.01-.36 1.01-.36s.29.36 1.14.32Z"/><g stroke-width=".5" fill="#FFD800" stroke="#000"><path d="M150.108 136.77c3.98-1.66 4.7-2.11 7.1-3.59 -.42.01-1.65-.39-1.2-.51 0 0-.49.44-.98.44 -.45 0-1.75-.57-1.75-.57s-1.22.32-1.79.32c-.57 0-1.43-.33-1.43-.33s-1.06.44-1.63.32v0c-.35-.08-.69-.19-1.02-.33 0 0-1.18.44-1.83.32 -.7-.12-1.51-.57-1.51-.57s-1.01.53-1.63.59c1.92 1.4 3.94 2.78 7.64 3.86Z"/><path fill="none" fill-rule="evenodd" stroke="#000" stroke-width=".5" d="M162.74 128.1s-.95.62-1.52.54c-.57-.13-.98-.53-.98-.53s-.53.61-1.22.53c-.7-.13-1.31-.53-1.31-.53s-.9.61-1.8.57c-.7-.04-1.27-.66-1.27-.66s-1.59.53-1.92.53c-.37 0-1.51-.53-1.51-.53s-.78.49-1.22.49c-.49 0-1.8-.57-1.8-.57s-1.22.32-1.79.32c-.57 0-1.43-.33-1.43-.33s-1.02.44-1.63.32v0c-.35-.08-.69-.19-1.02-.33 0 0-1.14.44-1.83.32 -.7-.12-1.51-.57-1.51-.57s-.13.32-1.47.56l-.04.04"/></g><path fill="#5AC800" d="M158.46 133.863c.26-.17-1.82 4.28-6.87 4.52 -7.03.33-13.03-3.18-13.03-3.18s.73-1.22 1.17-1.55c0 0 .97.77 1.3 1.75 0 0 .12-.66.44-1.23 0 0 1.22.56 1.42 1.34 0 0 .44-.78.77-.98 .32-.25.65.85.65 1.5 0 0 .77-.82 1.22-.86 0 0 .85.4 1.1 1.83 0 0 .81-.78 1.09-.66 0 0 .97.65.73 1.54 -.13.49.97-.57 2.32-.9l1.18.89s1.09-1.47 1.42-1.96c0 0 .89.32.89.85 0 0 .4-1.55.73-1.71 .32-.21.77.48.77.93 0 0 .12-1.18.77-1.43 0 0 .65.44.65.89 0-.01.69-1.35 1.22-1.67Z"/><g stroke-width=".5" fill-rule="evenodd" stroke="#000" fill="none"><path d="M169.444 86.03v22.1c0 4.39-.61 21.89-19.42 28.69 -18.85-6.8-19.46-24.3-19.46-28.7v-22.1h38.86"/><path stroke="#060" d="M138.53 135.21s.73-1.22 1.17-1.55c0 0 .97.77 1.3 1.75 0 0 .12-.66.44-1.23 0 0 1.22.56 1.42 1.34 0 0 .44-.78.77-.98 .32-.25.65.85.65 1.5 0 0 .77-.82 1.22-.86 0 0 .85.4 1.1 1.83 0 0 .81-.78 1.09-.66 0 0 .97.65.73 1.54 -.13.49.97-.57 2.32-.9l1.18.89s1.09-1.47 1.42-1.96c0 0 .89.32.89.85 0 0 .4-1.55.73-1.71 .32-.21.77.48.77.93 0 0 .12-1.19.77-1.43 0 0 .65.44.65.89 0 0 .69-1.35 1.22-1.67"/></g></svg>