<svg viewBox="0 0 301 193" xmlns="http://www.w3.org/2000/svg" xmlns:xlink="http://www.w3.org/1999/xlink"><defs><path d="M178.98 90.993h-2.96v6.26h2.95Z" id="a"/><path d="M122.09 90.993h2.95v6.26h-2.96Z" id="c"/><path d="M102.09 113.115c.84-.43 1.8-1.44 2.12-2.56h92.676c.31 1.12 1.27 2.12 2.12 2.55H102.08Z" id="b"/></defs><path fill="#E00025" d="M.5 48.5h300v96H.5Z"/><path fill="#032EA1" d="M.5.5h300v48H.5Zm0 144h300v48H.5Z"/><g stroke-width=".45" fill="#FFF" stroke="#000"><path d="M149.37 58.994s-.07-1.98 1.08-2c1.15.02 1.08 1.99 1.08 1.99h-2.16Zm47.5 51.6v-9.85c.32-1.25 1.38-2.36 2.17-2.58v-9.24c-1.21 0-1.8 1.57-1.8 1.57l-2.05 9.03v10.985l1.66.07Z"/><use fill="#FFF" stroke="#000" stroke-linecap="square" stroke-linejoin="bevel" stroke-width=".485" xlink:href="#a"/><path fill="#FFF" stroke="#000" stroke-linejoin="bevel" stroke-width=".45" d="M123.46 90.99h54.625v21.018H123.46V90.99Z"/><path d="M104.218 110.561v-9.81c-.33-1.25-1.39-2.36-2.18-2.58v-8.637l1.79.97 2.05 9.03v11.02h-1.67v0Z"/><path d="M104.218 110.6v-9.85c-.33-1.25-1.39-2.36-2.18-2.58v-9.24c1.2 0 1.79 1.57 1.79 1.57l2.05 9.03v10.985l-1.67.07Z"/><use xlink:href="#b"/><path fill="#FFF" stroke="#000" stroke-linecap="square" stroke-linejoin="bevel" stroke-width=".45" d="M175.262 102.596h1.72v7.91h-1.73Z"/><g stroke-width=".45" stroke="#000" fill="#FFF" stroke-linejoin="bevel"><path d="M123.46 98.68h54.62v2.44h-54.63Zm0-3.32h54.62v2.15h-54.63Z"/><path stroke-width=".443" d="M123.46 92.066h54.62v2.09h-54.63Z"/><use fill="#FFF" stroke="#000" stroke-linecap="square" stroke-linejoin="bevel" stroke-width=".485" xlink:href="#a"/></g><path d="M198.072 113.11c-.84-.375-2.04-1.4-2.04-2.44V98.4l.57-1.02h-20.9l.81 1.01v12.26c0 1.03-.83 2.05-1.67 2.43h23.2Z"/><path fill="#FFF" stroke="#000" stroke-linecap="square" stroke-linejoin="bevel" stroke-width=".45" d="M137.83 102.596h1.72v7.91h-1.73Zm23.51 0h1.72v7.91h-1.73Z"/><path d="M164.23 113.11c-.98-.375-2.39-1.4-2.39-2.44V99l1.26-1.62h-25.34l1.21 1.61v11.66c0 1.03-.98 2.05-1.95 2.43h27.18Z"/><path fill="#FFF" stroke="#000" stroke-linecap="square" stroke-linejoin="bevel" stroke-width=".45" d="M142.284 102.596h1.72v7.91h-1.73Zm14.55 0h1.72v7.91h-1.73Z"/><path d="M137.32 84.134v13.27h25.93v-2.86l.03-10.42c-1.07.41-1.25 1.37-1.25 1.37v5.65h-23.4v-5.66s-.27-.96-1.33-1.38Z"/><path d="M159.738 113.115c-.85-.375-2.7-1.4-2.7-2.44v-13.06c.18-.73 1.16-1.16 1.8-1.62h-17.2c.81.43 1.73.79 2.05 1.61v13.05c0 1.03-1.46 2.05-2.31 2.43h18.33Z"/><path d="M162.045 96.157v-9.41h-2.36v-.92H141.04v.91h-2.36v9.4Z"/><path fill="#FFF" stroke="#000" stroke-linecap="square" stroke-linejoin="bevel" stroke-width=".45" d="M123.892 102.596h1.72v7.91h-1.73Z"/><path d="M102.94 113.11c.83-.375 2.04-1.4 2.04-2.44V98.4l-.57-1.02h20.89l-.82 1.01v12.26c0 1.03.83 2.05 1.66 2.43H102.93Z"/><path fill="#FFF" stroke="#000" stroke-linecap="square" stroke-linejoin="bevel" stroke-width=".45" d="M105.17 89.24h1.92v7.15h-1.93Zm-.02-1.53h1.92v1.5h-1.93Z"/><path d="M121.93 113.11c-.84-.375-2.04-1.4-2.04-2.44V99l1.73-1.62h-14.21l1.73 1.61v11.66c0 1.03-1.21 2.05-2.04 2.43h14.8Z"/><path d="M119.94 113.11c-.83-.375-2.04-1.4-2.04-2.44v-10.55l1.13-1.62H110l1.13 1.61v10.54c0 1.03-1.21 2.05-2.04 2.43h10.82Zm73.883 0c-.83-.375-2.04-1.4-2.04-2.44V99l1.73-1.62H179.3l1.73 1.61v11.66c0 1.03-1.21 2.05-2.04 2.43h14.8Z"/><path d="M191.834 113.11c-.83-.375-2.04-1.4-2.04-2.44v-10.55l1.13-1.62h-9.03l1.13 1.61v10.54c0 1.03-1.21 2.05-2.04 2.43h10.82Zm-79.47-14.59h4.31v14.59h-4.32V98.52Zm43.65 14.58c-.83-.375-2.04-1.4-2.04-2.44V99.51l.68-1.02h-8.5l.68 1.01v11.143c0 1.03-1.21 2.05-2.04 2.43h11.2Z"/><path stroke-width=".46" d="M148.268 98.53h4.3v14.58h-4.31Z"/><path d="M184.265 98.526h4.31v14.59h-4.31Z"/><g stroke-width=".45" stroke="#000" fill="#FFF" stroke-linejoin="bevel"><path d="M146.101 92.98h8.637v3.18h-8.637Z"/><path d="M154.83 95.321c.01-.96 2.8-1.01 4.23-1.83H141.8c1.43.81 4.16.88 4.16 1.82l.58 1.86 7.14.28 1.12-2.15Z"/></g><path d="M158.206 85.17c0-2.35.09-3.26.82-3.26v7.48c-1.78.64-3.04 2.9-3.04 2.9h-11.15s-1.27-2.26-3.04-2.91V81.9c.89 0 .89.94.89 3.25h15.49Z"/><path d="M145.015 86.56c1.43 1.72 1.3 4.64 1.28 6.37h8.32c-.02-1.73-.15-4.65 1.28-6.37h-10.9Z"/><path fill="#FFF" stroke="#000" stroke-linecap="square" stroke-linejoin="bevel" stroke-width=".45" d="M106.506 102.596h1.72v7.91h-1.73Zm87.45-13.35h1.92v7.15h-1.93Z"/><use fill="none" fill-rule="evenodd" stroke="#000" stroke-width=".45" xlink:href="#b"/><path fill="#FFF" stroke="#000" stroke-linecap="square" stroke-linejoin="bevel" stroke-width=".45" d="M121.26 102.596h1.72v7.91h-1.73Z"/><path d="M103.82 86.8v10.59h1.2V86.76c-.44-.22-.85-.26-1.21.02Z"/><path d="M103.86 93.666c1.49.76 2.97 1.64 3.34 3.74h-3.35v-3.74Z"/><use fill="#FFF" stroke="#000" stroke-linecap="square" stroke-linejoin="bevel" stroke-width=".485" xlink:href="#c"/><path d="M124.587 90.49v6.91h.97v-6.94c-.31-.15-.73-.17-.98.01Zm18.78-5.32v-2.66c-.04-1.33-1.33-1.43-1.37-2.4 0 0-.17-1.46.21-2.12 .52 1.94 1.46 1.58 1.46.78 0-.7-.54-1.35-1.64-3.04 -.36-.54-.14-2.24.35-2.85 .19 1.47.4 2.18 1.04 2.18 .38 0 .7-.26.7-.99 0-.94-.64-1.42-.95-2.27 -.37-1-.12-2.02.49-2.59 .26 1.45.18 2.03.82 2.03 1.3-.42 0-2.3-.28-2.78 -.32-.56.43-1.66.43-1.66 .41 1.29.54 1.39.99 1.27 .56-.15.49-.99-.2-1.67 -.44-.43-.39-1.06.07-1.57 .46.91 1.06.85 1.125.31l-.38-2.11h8.28l-.42 2.04c-.12.58.67.71 1.16-.25 .46.51.51 1.14.07 1.57 -.69.67-.76 1.51-.2 1.66 .44.12.58.01.99-1.28 0 0 .67.75.43 1.66 -.28.47-1.58 2.36-.28 2.77 .64 0 .56-.58.82-2.04 .6.56.85 1.58.49 2.58 -.32.85-.95 1.33-.95 2.26 0 .73.31.99.7.99 .63 0 .85-.71 1.04-2.18 .49.6.71 2.3.35 2.84 -1.1 1.69-1.64 2.34-1.64 3.04 0 .79.94 1.15 1.46-.79 .38.66.21 2.11.21 2.11 -.04.97-1.33 1.06-1.37 2.39v2.65h-14.16v0Z"/><path fill="none" fill-rule="evenodd" stroke="#000" stroke-width=".375" d="M146.41 65.631h8.22"/><path d="M149.694 66.82l-1.15-.59v-1.68c.46.14.99.19 1.04.94 .16-1.06.45-1.01.91-1.43 .46.41.75.36.91 1.42 .05-.75.57-.8 1.04-.94v1.68l-1.14.58h-1.63Z"/><path fill="none" fill-rule="evenodd" stroke="#000" stroke-width=".375" d="M145.43 68.197h10.04"/><path d="M149.61 69.58l-1.9-1.31v-1.55c.66.15 1.41.21 1.48 1.03 .23-1.17.64-1.77 1.3-2.22 .65.45 1.07 1.05 1.3 2.21 .07-.82.81-.88 1.48-1.03v1.54l-1.9 1.3h-1.79Z"/><path fill="none" fill-rule="evenodd" stroke="#000" stroke-width=".375" d="M144.464 71.312h11.95"/><path d="M149.485 73.87l-2.18-1.92v-2.28c.76.22 1.62.31 1.7 1.51 .26-1.71.74-2.6 1.49-3.26 .75.66 1.23 1.55 1.49 3.25 .08-1.2.94-1.29 1.7-1.52v2.27l-2.18 1.91h-2.06Zm4.01 2.54l-1.97 2.72h-2.23l-1.97-2.73Zm-7.31 4.57c.98.54 1.34 1.61 1.45 3.625h5.54c.1-2.02.46-3.09 1.45-3.625h-8.46Z"/><path fill="none" fill-rule="evenodd" stroke="#000" stroke-width=".375" d="M143.44 75.12h14.17m-14.51 4.33h14.6"/><g stroke-width=".45" stroke="#000" fill="#FFF" stroke-linejoin="bevel"><path d="M154.732 76.41v-2.74c-.94.25-1.55.81-1.82 1.56 0-.91-1.2-3.01-2.5-4.05 -1.31 1.16-2.53 3.06-2.5 4.04 -.23-.72-.88-1.31-1.82-1.57v2.73h8.62Z"/><path d="M155.146 80.98v-2.74c-1.03.25-1.69.81-1.99 1.56 0-.91-1.31-3.01-2.74-4.05 -1.44 1.16-2.77 3.06-2.74 4.04 -.25-.72-.97-1.31-1.99-1.57v2.73h9.45Z"/><path d="M156.3 86.604v-3.16c-1.28.33-2.07 1.27-2.48 1.82 0-1.71-1.93-4.32-3.41-5.17 -1.52.87-3.41 3.57-3.41 5.17 -.42-.55-1.2-1.5-2.48-1.83v3.15h11.76Z"/><path d="M155.6 93.61v-3.25c-1.13.44-1.47 1.52-1.82 2.26 .13-3.3-1.86-6.83-3.38-7.73 -1.52.89-3.55 4.51-3.38 7.72 -.37-.74-.7-1.83-1.82-2.27v3.24h10.37Z"/><path fill="#FFF" stroke="#000" stroke-linecap="square" stroke-linejoin="bevel" stroke-width=".45" d="M193.974 87.71h1.92v1.5h-1.93Zm-15.93 14.88h1.72v7.91h-1.73Zm14.75 0h1.72v7.91h-1.73Z"/></g><path fill="none" fill-rule="evenodd" stroke="#000" stroke-width=".45" d="M138.68 93.612h23.357m-15.95 0h8.65v3.18h-8.66Z"/><path d="M154.81 98.526v-3.25c-1.18.28-1.26.71-1.63 1.44 .13-1.97-1.26-4.21-2.78-5.11 -1.52.89-2.92 3.14-2.78 5.1 -.375-.73-.43-1.17-1.63-1.45v3.24h8.79Zm-29.26-4.86c-1.5.76-2.98 1.64-3.35 3.74h3.34v-3.74Z"/><g stroke-linecap="square" stroke-width=".45" stroke="#000" fill="#FFF" stroke-linejoin="bevel"><path d="M105.03 89.24h2.07v8.116h-2.08Zm0-1.53h2.06v1.5h-2.06V87.7Z"/><use stroke-width=".485" xlink:href="#c"/></g><path d="M107.07 97.3V83.4c.59 0 .68 2.03 2.03 2.03 .7 0 .63-.85.23-1.53 -.36-.61-.79-1.45-.2-3.02 .4 1.19 1.49 1.57 1.29.82 -.35-1.29-1.35-1.51-.6-3.51 .25 1.67 1.33 1.59 1.07.62 -.3-1.1-.9-1.55-.16-3.09 .41 1.75.98 1.65.98.56 0-1.61-.07-3.34 2.01-3.99 0 0 .12-1.48.87-1.48s.87 1.47.87 1.47c2.07.64 2.01 2.37 2.01 3.98 0 1.08.56 1.19.98-.57 .74 1.54.14 1.99-.16 3.08 -.26.97.81 1.04 1.07-.63 .74 2.003-.25 2.21-.6 3.5 -.21.75.88.37 1.29-.83 .59 1.56.15 2.4-.2 3.01 -.4.68-.48 1.53.23 1.53 1.35 0 1.44-2.04 2.04-2.04V97.2h-15.14Z"/><path d="M115.687 77.46l.87-.74v-.94c-.32.03-.5.14-.73.45 -.2-.63-.64-1.11-1.23-1.41 -.59.3-1.03.76-1.23 1.38 -.24-.31-.41-.4-.73-.43v.93l.87.73h2.17v0Z"/><path d="M116.15 79.81l.4-.88v-1.22c-.32.03-.5.14-.73.45 -.2-.63-.64-1.13-1.23-1.43 -.59.3-1.03.77-1.23 1.4 -.24-.32-.41-.4-.73-.44v1.21l.4.87h3.1Z"/><path d="M116.21 82.988l1.29-1.58v-1.56c-.48.05-.74.24-1.09.77 -.3-1.07-.96-1.3-1.83-1.82 -.88.51-1.53.71-1.83 1.78 -.35-.53-.61-.68-1.09-.74v1.55l1.29 1.57h3.23v0Z"/><path d="M116.593 86.115s1.5-1.32 1.59-2.04V82.4c-.59.06-1.14.22-1.57.9 -.37-1.38-.94-1.77-2.03-2.43 -1.09.66-1.66 1.05-2.03 2.43 -.44-.69-.99-.84-1.57-.91v1.66c.19.72 1.59 2.03 1.59 2.03h3.98Z"/><path d="M117.236 91.88s2.06-2.29 2.11-3.18v-2.6c-.78.1-1.51.63-2.08 1.7 -.49-2.15-1.25-3.65-2.68-4.69 -1.43 1.04-2.19 2.54-2.68 4.68 -.58-1.07-1.31-1.6-2.08-1.71v2.59c.14.89 2.11 3.17 2.11 3.17h5.27Z"/><path d="M117.236 95.296s1.76-1.8 2.11-2.58v-2.6c-.78.1-1.51.63-2.08 1.7 -.49-2.15-1.25-3.378-2.68-4.42 -1.43 1.04-2.19 2.27-2.68 4.42 -.58-1.07-1.31-1.6-2.08-1.71v2.59c.44.78 2.11 2.57 2.11 2.57h5.27Z"/><path d="M117.94 97.282c-.52-2.24-.96-3.91-3.44-5.59 -2.48 1.68-2.93 3.34-3.44 5.58h6.87Z"/><path d="M119.225 98.526v-3.25c-1.13.44-2.15 1.09-2.52 1.82 -.42-1.81-1.23-2.6-2.24-3.69 -1.01 1.09-1.68 1.88-2.1 3.68 -.375-.73-1.4-1.38-2.52-1.83v3.24h9.37Zm-15.396-11.72v10.59h1.2v-10.63c-.44-.22-.85-.26-1.21.02Z"/><path d="M103.866 93.666c1.49.76 2.97 1.64 3.34 3.74h-3.35v-3.74Zm20.72-3.18v6.91h.97v-6.94c-.31-.15-.73-.17-.98.01Z"/><path d="M125.56 93.612c-1.5.76-2.98 1.64-3.35 3.74h3.34v-3.74Zm71.67-6.81v10.59h-1.21v-10.63c.43-.22.84-.26 1.2.02Zm-18.32 10.49v-13.9c.59 0 .68 2.03 2.03 2.03 .7 0 .63-.85.23-1.53 -.36-.61-.79-1.45-.2-3.02 .4 1.19 1.49 1.57 1.29.82 -.35-1.29-1.35-1.51-.6-3.51 .25 1.67 1.33 1.59 1.07.62 -.3-1.1-.9-1.55-.16-3.09 .41 1.75.98 1.65.98.56 0-1.61-.07-3.34 2.01-3.99 0 0 .12-1.48.87-1.48s.87 1.47.87 1.47c2.07.64 2.01 2.37 2.01 3.98 0 1.08.56 1.19.98-.57 .74 1.54.14 1.99-.16 3.08 -.26.97.81 1.04 1.07-.63 .74 2.003-.25 2.21-.6 3.5 -.21.75.88.37 1.29-.83 .59 1.56.15 2.4-.2 3.01 -.4.68-.48 1.53.23 1.53 1.35 0 1.44-2.04 2.03-2.04v13.89h-15.14Z"/><path d="M187.535 77.46l.87-.74v-.94c-.32.03-.5.14-.73.45 -.2-.63-.64-1.11-1.23-1.41 -.59.3-1.03.76-1.23 1.38 -.24-.31-.41-.4-.73-.43v.93l.87.73h2.17v0Z"/><path d="M188 79.81l.4-.88v-1.22c-.32.03-.5.14-.73.45 -.2-.63-.64-1.13-1.23-1.43 -.59.3-1.03.77-1.23 1.4 -.24-.32-.41-.4-.73-.44v1.21l.4.87h3.1Z"/><path d="M188.063 82.988l1.29-1.58v-1.56c-.48.05-.74.24-1.09.77 -.3-1.07-.96-1.3-1.83-1.82 -.88.51-1.53.71-1.83 1.78 -.35-.53-.61-.68-1.09-.74v1.55l1.29 1.57h3.23v0Z"/><path d="M188.44 86.115s1.5-1.32 1.59-2.04V82.4c-.59.06-1.14.22-1.57.9 -.37-1.38-.94-1.77-2.03-2.43 -1.09.66-1.66 1.05-2.03 2.43 -.44-.69-.99-.84-1.57-.91v1.66c.19.72 1.59 2.03 1.59 2.03h3.98Z"/><path d="M189.084 91.88s2.06-2.29 2.11-3.18v-2.6c-.78.1-1.51.63-2.08 1.7 -.49-2.15-1.25-3.65-2.68-4.69 -1.43 1.04-2.19 2.54-2.68 4.68 -.58-1.07-1.31-1.6-2.08-1.71v2.59c.14.89 2.11 3.17 2.11 3.17h5.27Z"/><path d="M189.084 95.296s1.76-1.8 2.11-2.58v-2.6c-.78.1-1.51.63-2.08 1.7 -.49-2.15-1.25-3.378-2.68-4.42 -1.43 1.04-2.19 2.27-2.68 4.42 -.58-1.07-1.31-1.6-2.08-1.71v2.59c.44.78 2.11 2.57 2.11 2.57h5.27Z"/><path d="M189.79 97.282c-.52-2.24-.96-3.91-3.44-5.59 -2.48 1.68-2.93 3.34-3.44 5.58h6.87Zm7.4-3.62c-1.5.76-2.82 1.64-3.19 3.74h3.18v-3.74Zm-20.72-3.18v6.91h-.98v-6.94c.3-.15.72-.17.97.01Z"/><path d="M175.506 93.666c1.49.76 2.97 1.64 3.34 3.74h-3.35v-3.74Z"/><path d="M176.48 90.49v6.91h-.98v-6.94c.3-.15.72-.17.97.01Z"/><path d="M175.506 93.666c1.49.76 2.97 1.64 3.34 3.74h-3.35v-3.74Zm-16.48-9.46c0-2.7 2.32-3 2.32-3v2.4c-.89-.04-1.32.75-1.32 1.94 0 1.18.71 1.2.71 1.2v6.81H159v-9.36h0Zm-17.21 0c0-2.7-2.33-3-2.33-3v2.4c.88-.04 1.31.75 1.31 1.94 0 1.18-.72 1.2-.72 1.2v6.81h1.72v-9.36 0Zm49.28 14.27v-3.25c-1.125.44-2.15 1.09-2.52 1.82 -.42-1.81-1.23-2.6-2.24-3.69 -1.01 1.09-1.68 1.88-2.1 3.68 -.375-.73-1.4-1.38-2.52-1.83v3.24h9.37ZM91.608 124.96h117.757v6.01H91.608Z"/><path d="M88.51 130.978h123.96v6.006H88.5Zm9.28-15.01h105.389v3.89H97.789Z"/><path d="M94.72 119.842h111.55v5.09H94.71Zm4.92-6.86H201.34v2.96H99.64Z"/><path stroke-width=".49" d="M110.68 113h7.68v23.96h-7.69Z"/><path stroke-width=".489" d="M112.387 113h4.28v23.96h-4.28Z"/><path fill="none" fill-rule="evenodd" stroke="#000" stroke-width=".45" d="M112.309 115.95h4.43m-4.44 3h4.43m-4.44 3h4.43m-4.44 3h4.43m-4.44 3h4.43m-4.44 3h4.43m-4.44 3h4.43"/><path stroke-width=".49" d="M146.525 113h7.68v23.96h-7.69Z"/><path stroke-width=".489" d="M148.28 113h4.28v23.96h-4.28Z"/><path fill="none" fill-rule="evenodd" stroke="#000" stroke-width=".45" d="M148.3 115.952h4.13m-4.14 3h4.13m-4.14 3h4.13m-4.14 3h4.13m-4.14 3h4.13m-4.14 3h4.13m-4.14 3h4.13"/><path stroke-width=".49" d="M182.57 113h7.68v23.96h-7.69Z"/><path stroke-width=".489" d="M184.28 113h4.28v23.96h-4.28Z"/><path fill="none" fill-rule="evenodd" stroke="#000" stroke-width=".45" d="M184.202 115.95h4.43m-4.44 3h4.43m-4.44 3h4.43m-4.44 3h4.43m-4.44 3h4.43m-4.44 3h4.43m-4.44 3h4.43"/><path fill="#FFF" stroke="#000" stroke-linecap="square" stroke-linejoin="bevel" stroke-width=".45" d="M127.26 102.596h1.72v7.91h-1.73Zm3.6 0h1.72v7.91h-1.73Zm3.6 0h1.72v7.91h-1.73Zm30.15 0h1.72v7.91h-1.73Zm3.6 0h1.72v7.91h-1.73Zm3.6 0h1.72v7.91h-1.73Z"/><path d="M146.84 63.08l-.2-1.5h7.6l-.19 1.5Zm.5-1.53l-.17-1.24h6.53l-.17 1.23Zm1.03-1.28l-.11-1.24h4.34l-.11 1.23Z"/></g></svg>