<svg viewBox="0 0 301 380" xmlns="http://www.w3.org/2000/svg"><path fill="#003893" d="M.5 380V0l300 188.4H102.37l191.04 191.59Z"/><path fill="#DC143C" d="M7.17 181.74h270.18L7.16 12.05v361.27h270.18L7.15 102.36Z"/><g fill="#FFF"><path d="M20.9 118.11c11.68 29.8 45.242 44.47 74.96 32.75v0c14.96-5.91 26.79-17.78 32.66-32.76 0 29.8-24.1 53.96-53.82 53.96s-53.812-24.17-53.812-53.97"/><path d="M74.72 118.11a25.04 25.11 0 1 0 0 50.22 25.04 25.11 0 1 0 0-50.23Z"/><path d="M84.303 120.022l-2.8-11.01 -6.79 9.09m17.7 7.35l1.61-11.241 -9.738 5.79m13.55 13.59l5.78-9.77 -11.21 1.61m7.33 17.75l9.06-6.81 -10.98-2.81m-.01 19.22l10.97-2.81 -9.07-6.81m-7.34 17.75l11.2 1.61 -5.79-9.77M65.05 119.93l2.79-11.01 6.78 9.09"/><path d="M57.013 125.46l-1.62-11.241 9.73 5.79m-13.56 13.59l-5.79-9.77 11.21 1.61"/><path d="M49.67 143.224l-9.07-6.81 10.97-2.81m-.001 19.22l-10.98-2.81 9.06-6.81m-3.87 84.09l2.98 24.21 -24.143-2.99 14.65 19.47 -22.399 9.51L39.266 287 24.6 306.47l24.143-2.99 -2.98 24.21 19.41-14.7 9.49 22.46 9.49-22.47 19.41 14.69 -2.98-24.22 24.14 2.98 -14.66-19.48 22.4-9.52 -22.4-9.52 14.65-19.48 -24.15 2.98 2.98-24.22 -19.42 14.69 -9.5-22.47 -9.5 22.46Z"/></g></svg>