<svg viewBox="0 0 301 151" xmlns="http://www.w3.org/2000/svg"><path fill="#0099B5" d="M.5.5h300v48H.5Z"/><path fill="#CE1126" d="M.5 48.5h300v54H.5Z"/><path fill="#FFF" d="M.5 51.5h300v48H.5Z"/><path fill="#1EB53A" d="M.5 102.5h300v48H.5Z"/><path fill="#FFF" d="M42.5 6.5a18 18 0 1 0 0 36 18 18 0 1 0 0-36Z"/><path fill="#0099B5" d="M48.5 6.5a18 18 0 1 0 0 36 18 18 0 1 0 0-36Z"/><path fill="#FFF" d="M78.596 8.988l2.11 1.53 -.81 2.487 2.11-1.54 2.11 1.53 -.81-2.487 2.11-1.54h-2.62l-.81-2.49 -.81 2.48Zm14.4 0l2.11 1.53 -.81 2.487 2.11-1.54 2.11 1.53 -.81-2.487 2.11-1.54h-2.62l-.81-2.49 -.81 2.48Zm14.4 0l2.11 1.53 -.81 2.487 2.11-1.54 2.11 1.53 -.81-2.487 2.11-1.54h-2.62l-.81-2.49 -.81 2.48ZM78.84 23.383l2.11 1.53 -.81 2.48 2.11-1.54 2.11 1.53 -.81-2.49 2.11-1.54h-2.62l-.81-2.49 -.81 2.48Zm14.4 0l2.11 1.53 -.81 2.48 2.11-1.54 2.11 1.53 -.81-2.49 2.11-1.54h-2.62l-.81-2.49 -.81 2.48Zm14.4 0l2.11 1.53 -.81 2.48 2.11-1.54 2.11 1.53 -.81-2.49 2.11-1.54h-2.62l-.81-2.49 -.81 2.48Zm-43.2 0l2.11 1.53 -.81 2.48 2.11-1.54 2.11 1.53 -.81-2.49 2.11-1.54h-2.62l-.81-2.49 -.81 2.48Zm14.22 14.4l2.11 1.53 -.81 2.48 2.11-1.54 2.11 1.53 -.81-2.49 2.11-1.54h-2.62l-.81-2.49 -.81 2.48Zm14.4 0l2.11 1.53 -.81 2.48 2.11-1.54 2.11 1.53 -.81-2.49 2.11-1.54h-2.62l-.81-2.49 -.81 2.48Zm14.4 0l2.11 1.53 -.81 2.48 2.11-1.54 2.11 1.53 -.81-2.49 2.11-1.54h-2.62l-.81-2.49 -.81 2.48Zm-43.2 0l2.11 1.53 -.81 2.48 2.11-1.54 2.11 1.53 -.81-2.49 2.11-1.54h-2.62l-.81-2.49 -.81 2.48Zm-14.4 0l2.11 1.53 -.81 2.48 2.11-1.54 2.11 1.53 -.81-2.49 2.11-1.54h-2.62l-.81-2.49 -.81 2.48Z"/></svg>