<svg viewBox="0 0 300 159" xmlns="http://www.w3.org/2000/svg"><path fill="#FFF" d="M0 .55h300v157.89H0Z"/><path fill="#B22234" d="M0 .55h300v12.14H0ZM0 24.84h300v12.146H0Zm0 24.29h300V61.27H0Zm0 24.29h300v12.146H0Zm0 24.29h300v12.146H0ZM0 122h300v12.146H0Zm0 24.29h300v12.14H0Z"/><path fill="#3C3B6E" d="M0 .55h120v85.02H0Z"/><path fill="#FFF" d="M5.63 7.45l2.859 2.07 -1.1 3.36 2.85-2.077 2.859 2.077 -1.1-3.37 2.85-2.077h-3.54l-1.1-3.36 -1.1 3.36Zm19.89 0l2.85 2.07 -1.1 3.36 2.85-2.077 2.85 2.077 -1.1-3.37 2.85-2.077h-3.54l-1.1-3.36 -1.1 3.36Zm19.89 0l2.85 2.07 -1.1 3.36 2.85-2.077 2.85 2.077 -1.1-3.37 2.85-2.077h-3.54l-1.1-3.36 -1.1 3.36Zm19.89 0l2.85 2.07 -1.1 3.36L69.9 10.8l2.85 2.077 -1.1-3.37L74.5 7.43h-3.54l-1.1-3.36 -1.1 3.36Zm19.89 0l2.85 2.07 -1.1 3.36 2.85-2.077 2.85 2.077 -1.1-3.37 2.85-2.077h-3.54l-1.1-3.36 -1.1 3.36Zm19.89 0l2.85 2.07 -1.1 3.36 2.85-2.077 2.85 2.077 -1.1-3.37 2.85-2.077h-3.54l-1.1-3.36 -1.1 3.36ZM15.55 15.97l2.85 2.07 -1.1 3.36 2.85-2.08 2.85 2.07 -1.1-3.36 2.85-2.08h-3.54l-1.1-3.37 -1.1 3.36Zm19.89 0l2.85 2.07 -1.1 3.36 2.85-2.08 2.85 2.07 -1.1-3.36 2.85-2.08h-3.54l-1.1-3.37 -1.1 3.36Zm19.89 0l2.85 2.07 -1.1 3.36 2.85-2.08 2.85 2.07 -1.1-3.36 2.85-2.08h-3.54l-1.1-3.37 -1.1 3.36Zm19.89 0l2.85 2.07 -1.1 3.36 2.85-2.08 2.85 2.07 -1.1-3.36 2.85-2.08h-3.54l-1.1-3.37 -1.1 3.36Zm19.89 0l2.85 2.07 -1.1 3.36 2.85-2.08 2.85 2.07 -1.1-3.36 2.85-2.08h-3.54l-1.1-3.37 -1.1 3.36ZM5.58 24.49l2.85 2.07 -1.1 3.36 2.85-2.08 2.859 2.07 -1.1-3.37 2.85-2.08h-3.54l-1.1-3.36 -1.1 3.36Zm19.89 0l2.85 2.07 -1.1 3.36 2.85-2.08 2.85 2.07 -1.1-3.37 2.85-2.08h-3.54l-1.1-3.36 -1.1 3.36Zm19.89 0l2.85 2.07 -1.1 3.36 2.85-2.08 2.85 2.07 -1.1-3.37 2.85-2.08h-3.54l-1.1-3.36 -1.1 3.36Zm19.89 0l2.85 2.07 -1.1 3.36 2.85-2.08 2.85 2.07 -1.1-3.37 2.85-2.08h-3.54l-1.1-3.36 -1.1 3.36Zm19.89 0l2.85 2.07 -1.1 3.36 2.85-2.08 2.85 2.07 -1.1-3.37 2.85-2.08H90.8l-1.1-3.36 -1.1 3.36Zm19.89 0l2.85 2.07 -1.1 3.36 2.85-2.08 2.85 2.07 -1.1-3.37 2.85-2.08h-3.54l-1.1-3.36 -1.1 3.36Zm-89.29 8.555l2.85 2.07 -1.1 3.36 2.85-2.08 2.85 2.07 -1.1-3.37 2.85-2.08h-3.54l-1.1-3.37L19.2 33Zm19.89 0l2.85 2.07 -1.1 3.36 2.85-2.08 2.85 2.07 -1.1-3.37 2.85-2.08h-3.54l-1.1-3.37 -1.1 3.36Zm19.89 0l2.85 2.07 -1.1 3.36 2.85-2.08 2.85 2.07 -1.1-3.37 2.85-2.08h-3.54l-1.1-3.37 -1.1 3.36Zm19.89 0l2.85 2.07 -1.1 3.36 2.85-2.08 2.85 2.07 -1.1-3.37 2.85-2.08h-3.54l-1.1-3.37 -1.1 3.36Zm19.89 0l2.85 2.07 -1.1 3.36 2.85-2.08 2.85 2.07 -1.1-3.37 2.85-2.08h-3.54l-1.1-3.37 -1.1 3.36ZM5.83 41.49l2.859 2.07 -1.1 3.36 2.85-2.08 2.859 2.07 -1.1-3.37 2.85-2.08h-3.54l-1.1-3.37 -1.1 3.36Zm19.89 0l2.85 2.07 -1.1 3.36 2.85-2.08 2.85 2.07 -1.1-3.37 2.85-2.08h-3.54l-1.1-3.37 -1.1 3.36Zm19.89 0l2.85 2.07 -1.1 3.36 2.85-2.08 2.85 2.07 -1.1-3.37 2.85-2.08h-3.54l-1.1-3.37 -1.1 3.36Zm19.89 0l2.85 2.07 -1.1 3.36 2.85-2.08 2.85 2.07 -1.1-3.37 2.85-2.08h-3.54l-1.1-3.37 -1.1 3.36Zm19.89 0l2.85 2.07 -1.1 3.36 2.85-2.08 2.85 2.07 -1.1-3.37 2.85-2.08h-3.54l-1.1-3.37 -1.1 3.36Zm19.89 0l2.85 2.07 -1.1 3.36 2.85-2.08 2.85 2.07 -1.1-3.37 2.85-2.08h-3.54l-1.1-3.37 -1.1 3.36ZM5.99 58.27l2.85 2.07 -1.1 3.36 2.859-2.08 2.85 2.07 -1.1-3.37 2.859-2.08h-3.54l-1.1-3.36 -1.1 3.36Zm19.89 0l2.85 2.07 -1.1 3.36 2.85-2.08 2.85 2.07 -1.1-3.37 2.85-2.08h-3.54l-1.1-3.36 -1.1 3.36Zm19.89 0l2.85 2.07 -1.1 3.36 2.85-2.08 2.85 2.07 -1.1-3.37 2.85-2.08h-3.54l-1.1-3.36 -1.1 3.36Zm19.89 0l2.85 2.07 -1.1 3.36 2.85-2.08 2.85 2.07 -1.1-3.37 2.85-2.08h-3.54l-1.1-3.36 -1.1 3.36Zm19.89 0l2.85 2.07 -1.1 3.36 2.85-2.08L93 63.69l-1.1-3.37 2.85-2.08h-3.54l-1.1-3.36 -1.1 3.36Zm19.89 0l2.85 2.07 -1.1 3.36 2.85-2.08 2.85 2.07 -1.1-3.37 2.85-2.08h-3.54l-1.1-3.36 -1.1 3.36ZM5.72 75.25l2.85 2.07 -1.1 3.36 2.859-2.08 2.85 2.07 -1.1-3.37 2.859-2.08H11.4l-1.1-3.36 -1.1 3.36Zm19.894 0l2.85 2.07 -1.1 3.36 2.85-2.08 2.85 2.07 -1.1-3.37 2.85-2.08h-3.54l-1.1-3.36 -1.1 3.36Zm19.89 0l2.85 2.07 -1.1 3.36 2.85-2.08 2.85 2.07 -1.1-3.37 2.85-2.08h-3.54l-1.1-3.36 -1.1 3.36Zm19.89 0l2.85 2.07 -1.1 3.36 2.85-2.08 2.85 2.07 -1.1-3.37 2.85-2.08h-3.54l-1.1-3.36 -1.1 3.36Zm19.89 0l2.85 2.07 -1.1 3.36 2.85-2.08 2.85 2.07 -1.1-3.37 2.85-2.08h-3.54l-1.1-3.36 -1.1 3.36Zm19.89 0l2.85 2.07 -1.1 3.36 2.85-2.08 2.85 2.07 -1.1-3.37 2.85-2.08h-3.54l-1.1-3.36 -1.1 3.36ZM15.71 49.8l2.85 2.07 -1.1 3.36 2.85-2.08 2.85 2.07 -1.1-3.36 2.85-2.08h-3.54l-1.1-3.37 -1.1 3.36Zm19.89 0l2.85 2.07 -1.1 3.36 2.85-2.08 2.85 2.07 -1.1-3.36 2.85-2.08h-3.54l-1.1-3.37 -1.1 3.36Zm19.89 0l2.85 2.07 -1.1 3.36 2.85-2.08 2.85 2.07 -1.1-3.36 2.85-2.08h-3.54l-1.1-3.37 -1.1 3.36Zm19.89 0l2.85 2.07 -1.1 3.36 2.85-2.08 2.85 2.07 -1.1-3.36 2.85-2.08h-3.54l-1.1-3.37 -1.1 3.36Zm19.89 0l2.85 2.07 -1.1 3.36 2.85-2.08 2.85 2.07 -1.1-3.36 2.85-2.08h-3.54l-1.1-3.37 -1.1 3.36ZM15.63 66.75l2.85 2.07 -1.1 3.36 2.85-2.08 2.85 2.07 -1.1-3.37 2.85-2.08h-3.54l-1.1-3.36 -1.1 3.36Zm19.89 0l2.85 2.07 -1.1 3.36 2.85-2.08 2.85 2.07 -1.1-3.37 2.85-2.08h-3.54l-1.1-3.36 -1.1 3.36Zm19.89 0l2.85 2.07 -1.1 3.36 2.85-2.08 2.85 2.07 -1.1-3.37 2.85-2.08h-3.54l-1.1-3.36 -1.1 3.36Zm19.89 0l2.85 2.07 -1.1 3.36 2.85-2.08 2.85 2.07 -1.1-3.37 2.85-2.08h-3.54l-1.1-3.36 -1.1 3.36Zm19.89 0l2.85 2.07 -1.1 3.36 2.85-2.08 2.85 2.07 -1.1-3.37 2.85-2.08h-3.54l-1.1-3.36 -1.1 3.36Z"/></svg>