<svg viewBox="0 0 301 151" xmlns="http://www.w3.org/2000/svg"><path fill="#0098C3" d="M.5.5h300v150H.5Z"/><path fill="#E00034" d="M.5 50.5h300v50H.5Z"/><path fill="#00AE65" d="M.5 100.5h300v50H.5Z"/><path fill="#FFF" d="M145.75 53a22.5 22.5 0 1 0 0 45 22.5 22.5 0 1 0 0-45Z"/><path fill="#E00034" d="M150.5 56.75a18.75 18.75 0 1 0 0 37.5 18.75 18.75 0 1 0 0-37.5Z"/><path fill="#FFF" d="M179.59 84.333l-6.45-3.06 -2.39 6.72 -2.4-6.73 -6.45 3.06 3.06-6.45 -6.73-2.39 6.72-2.4 -3.07-6.45 6.44 3.06 2.38-6.73 2.39 6.72 6.44-3.07 -3.06 6.44 6.72 2.38 -6.73 2.39Z"/></svg>