<svg viewBox="0 0 301 201" xmlns="http://www.w3.org/2000/svg"><defs><mask id="a"><path fill="#FFF" d="M.72.5h299.777v200H.72Z"/></mask></defs><path fill="#006233" d="M.5.5h299.777v200H.5Z"/><path fill="#FFC400" d="M150.389 10.91a64.535 64.583 0 1 0 0 129.166 64.535 64.583 0 1 0 0-129.166Z"/><path mask="url(#a)" fill="#006233" d="M150.389-3.67a62.45 62.5 0 1 0 0 125 62.45 62.5 0 1 0 0-125Z"/><path fill="#FFC400" d="M126.63 51.1l14.68 10.67 -5.61 17.27 14.68-10.68 14.68 10.67 -5.61-17.275 14.68-10.68h-18.15L150.37 33.8l-5.61 17.275Z"/></svg>