<svg viewBox="0 0 301 301" xmlns="http://www.w3.org/2000/svg" xmlns:xlink="http://www.w3.org/1999/xlink"><defs><linearGradient id="a" x1="96.926%" x2="14.001%" y1="101.452%" y2="1.441%"><stop offset="0%" stop-opacity=".784"/><stop offset="100%" stop-opacity="0"/></linearGradient><radialGradient id="b" fr="0%" fx="49.96%" fy="50.001%" cx="49.96%" cy="50.001%" r="57.257%" gradientTransform="matrix(1 0 0 .98445 0 .008)"><stop offset="0%" stop-color="#FFF"/><stop offset="100%" stop-color="#C9C9C9"/></radialGradient><radialGradient id="c" fr="0%" fx="49.982%" fy="50.005%" cx="49.982%" cy="50.005%" r="56.344%" gradientTransform="matrix(1 0 0 .9848 0 .008)" xlink:href="#b"/><radialGradient id="d" fr="0%" fx="50.012%" fy="49.979%" cx="50.012%" cy="49.979%" r="56.329%" gradientTransform="matrix(1 0 0 .9848 0 .008)" xlink:href="#b"/><radialGradient id="e" fr="0%" fx="49.964%" fy="49.987%" cx="49.964%" cy="49.987%" r="57.11%" gradientTransform="matrix(1 0 0 .98482 0 .008)" xlink:href="#b"/><radialGradient id="f" fr="0%" fx="49.985%" fy="50.019%" cx="49.985%" cy="50.019%" r="56.333%" gradientTransform="matrix(1 0 0 .98543 0 .007)" xlink:href="#b"/><radialGradient id="g" fr="0%" fx="49.983%" fy="50.017%" cx="49.983%" cy="50.017%" r="56.303%" gradientTransform="matrix(1 0 0 .98543 0 .007)" xlink:href="#b"/><radialGradient id="h" fr="0%" fx="49.986%" fy="50.032%" cx="49.986%" cy="50.032%" r="57.274%" gradientTransform="matrix(1 0 0 .98432 0 .008)" xlink:href="#b"/><radialGradient id="i" fr="0%" fx="49.995%" fy="49.965%" cx="49.995%" cy="49.965%" r="56.326%" gradientTransform="matrix(1 0 0 .98477 0 .008)" xlink:href="#b"/><radialGradient id="j" fr="0%" fx="50.012%" fy="50%" cx="50.012%" cy="50%" r="56.325%" gradientTransform="matrix(1 0 0 .98477 0 .008)" xlink:href="#b"/><radialGradient id="k" fr="0%" fx="49.96%" fy="50.038%" cx="49.96%" cy="50.038%" r="57.104%" gradientTransform="matrix(1 0 0 .9847 0 .008)" xlink:href="#b"/><radialGradient id="l" fr="0%" fx="49.996%" fy="50.005%" cx="49.996%" cy="50.005%" r="55.314%" xlink:href="#b"/><radialGradient id="m" fr="0%" fx="49.99%" fy="50.05%" cx="49.99%" cy="50.05%" r="54.122%" xlink:href="#b"/><path id="n" d="M238.972 137.849v0c-.77.05-1.38.66-1.42 1.43 1.13.28 2.55 1.72 2.83 2.87 .78 0 1.43-.67 1.41-1.44 -.62-1.49-1.42-2.21-2.84-2.88Z"/></defs><path fill="#FFF" d="M.5.5h300v300H.5Z"/><path fill="#FFE000" d="M.5.5h150v300H.5Z"/><g stroke-width=".15" fill="#C80035" stroke="#000"><path d="M237.071 135.55c0 .97-5.15 1.77-11.5 1.77s-11.5-.8-11.5-1.77c0-.98 5.14-1.77 11.49-1.77 6.34-.01 11.49.79 11.49 1.77Z"/><g stroke-linecap="round" stroke-width=".15" stroke="#000" fill="#FFF" stroke-linejoin="round"><path d="M224.4 134.374l-4.67-4.54c-2.61 9.732-9.66 17.03-13.04 14.27l4.67 4.54c3.37 2.76 10.42-4.54 13.03-14.28Z"/><path fill="#FFBD03" d="M223.815 133.8c-2.61 9.732-9.66 17.03-13.04 14.26l.58.57c3.37 2.76 10.42-4.54 13.03-14.28l-.59-.58Zm-4.08-3.97c-2.61 9.732-9.66 17.03-13.04 14.26l.6.58c3.39 2.64 10.387-4.63 12.98-14.31v-.02l-.56-.54Z"/></g><path fill="#FFBD03" d="M220.529 134.95c-.29.71-.56 1.43-.9 2.15l-1.14-.95h-.001c-.31.67-.67 1.33-1.07 1.96l1.34.45c-.65 1.03-1.32 2.06-2.26 3.09l1.53 1.14c.69-1.23 1.31-2.45 1.77-3.67l1.09.87c.39-.62.7-1.29 1.03-1.97l-1.3-.46 1.24-1.92 -1.38-.75Z"/><g stroke-linecap="round" stroke-width=".15" stroke="#000" fill="#FFF" stroke-linejoin="round"><path d="M226.47 134.374l4.67-4.54c2.6 9.732 9.65 17.03 13.03 14.27l-4.67 4.54c-3.38 2.76-10.43-4.54-13.04-14.28Z"/><path fill="#FFBD03" d="M231.14 129.83c2.6 9.732 9.65 17.03 13.03 14.26l-.61.58c-3.4 2.64-10.387-4.63-12.982-14.31v-.02l.55-.54Z"/></g><path fill="#BB0D0D" d="M226.63 207.295c-.4 0-1.89.01-2.34 1.79 -.46 1.77.3 5.46.3 5.46s.69.75 2.03.75c1.33 0 2.03-.76 2.03-.76s.76-3.69.3-5.47c-.46-1.78-1.95-1.8-2.34-1.8Z"/><path fill="none" fill-rule="evenodd" stroke="#000" stroke-linecap="round" stroke-linejoin="round" stroke-width=".15" d="M226.63 215.31v-4.81m-.46 4.74c-.03-1.67-.24-3.19-.08-4.85m-.38 4.77c-.03-1.67-.38-3.29-.11-4.92m-.35 4.71c-.02-1.67-.53-3.33-.15-4.99m-.31 4.75c0-1.67-.64-3.44-.15-5.1m2.4 5.59c.02-1.67.23-3.19.07-4.85m.375 4.77c.02-1.67.37-3.29.11-4.92m.34 4.71c.01-1.67.52-3.33.14-4.99m.3 4.75c0-1.67.63-3.44.14-5.1"/><g stroke-linecap="round" stroke-width=".15" stroke="#000" fill="#BB0D0D" stroke-linejoin="round"><path d="M228.65 207.27v0c0 1.11-.91 2.02-2.02 2.02 -1.12 0-2.02-.91-2.03-2.02 -.001-.01-.001-.01 0-.01v0c0-1.12.9-2.02 2.02-2.02 1.11 0 2.01.9 2.01 2.01Z"/><path d="M225.42 158.66v47.327h0c0 .66.53 1.2 1.2 1.2 .66 0 1.2-.54 1.2-1.2v-49.11l-2.4 1.78Z"/></g><path fill="#BB0D0D" d="M225.06 208.348c-.4 0-1.89.01-2.34 1.79 -.46 1.77.3 5.46.3 5.46s.69.75 2.03.75c1.33 0 2.03-.76 2.03-.76s.75-3.7.3-5.47c-.46-1.78-1.95-1.8-2.34-1.8Z"/><path fill="none" fill-rule="evenodd" stroke="#000" stroke-linecap="round" stroke-linejoin="round" stroke-width=".15" d="M225.06 216.36v-4.81m-.46 4.74c-.03-1.67-.24-3.19-.08-4.85m-.375 4.77c-.03-1.67-.38-3.29-.11-4.92m-.35 4.71c-.02-1.67-.53-3.33-.15-4.99m-.31 4.75c0-1.67-.64-3.44-.15-5.1m2.4 5.59c.02-1.67.23-3.19.07-4.85m.37 4.77c.02-1.67.37-3.29.11-4.92m.34 4.71c.01-1.67.52-3.33.14-4.99m.3 4.75c0-1.67.63-3.44.14-5.1"/><g stroke-linecap="round" stroke-width=".15" stroke="#000" fill="#BB0D0D" stroke-linejoin="round"><path d="M227.08 208.33h-.001c0 1.11-.91 2.02-2.02 2.02 -1.12 0-2.02-.91-2.03-2.02 -.001-.01-.001-.01 0-.01v0c0-1.12.9-2.02 2.02-2.02 1.11 0 2.01.9 2.01 2.01Z"/><path d="M223.84 157.71v49.339h0c0 .66.53 1.2 1.2 1.2 .66 0 1.2-.54 1.2-1.2v-51.12l-2.4 1.78Z"/></g><g fill="#BB0D0D"><path d="M226.6 156.899c0 7.09 2.11 16.381 5.38 23.21 1.63 3.41 3.57 6.21 5.53 7.82 1.96 1.61 3.75 2.08 5.77 1.23 1.43-.61 2.57-.88 3.63-.73 0 0-1.35 1.06-.21 2.44 -.01-.05-.01-.08 0-.09 -.01.01-.02.02-.15.01 -.31-.05-1.14.05-2.36.56 -2.88 1.2-5.84.38-8.24-1.59 -2.41-1.98-4.45-5.04-6.18-8.65 -3.46-7.23-5.625-16.69-5.625-24.25h2.39Z"/><path d="M224.65 156.899c0 7.09-2.12 16.381-5.39 23.21 -1.64 3.41-3.57 6.21-5.54 7.82 -1.97 1.61-3.76 2.08-5.78 1.23 -1.44-.61-2.58-.88-3.64-.73 0 0 1.34 1.06.21 2.44 0-.05 0-.08-.01-.09 0 .01.01.02.14.01 .3-.05 1.13.05 2.35.56 2.87 1.2 5.83.38 8.23-1.59 2.4-1.98 4.44-5.04 6.17-8.65 3.45-7.23 5.625-16.69 5.625-24.25h-2.4v0Z"/></g><path fill="#FFBD03" d="M184.278 114.38v0c-.03 1.1.85 2.02 1.96 2.05 1.1.02 2.02-.86 2.05-1.97 0-.03 0-.06 0-.09v0c-.03-1.11-.95-1.99-2.06-1.97 -1.08.02-1.95.88-1.97 1.96v0Z"/><g fill="#C0C0C0"><path d="M187.91 114.71l2.12 2.15 -1.42 1.43 -2.13-2.16c-.71-.72.71-2.16 1.41-1.44Z"/><path d="M190.75 116.15l2.12 2.16 19.4 19.67 -2.84 2.87 -19.41-19.68 -2.13-2.16c.28-1.15 1.7-2.6 2.84-2.88Zm22.69 23.01l12.76 12.94 -2.84 2.87 -12.77-12.95c.28-1.15 1.7-2.59 2.83-2.88Z"/></g><path fill="#FFBD03" d="M192.88 118.31l2.12 2.15c1.41 1.43 6.38 7.91 6.38 7.91s6.64 5.29 8.05 6.73l2.12 2.15c-1.42-1.44-10.19-7.46-10.19-7.46s5.22 8.17 7.34 10.33l-2.13-2.16c-1.42-1.44-6.64-8.18-6.64-8.18 -.01 0-5.68-4.32-7.1-5.753l-2.84-2.88c1.41 1.43 9.92 7.19 9.92 7.19s-5.68-8.63-7.09-10.07Z"/><path fill="#BFBFBF" d="M196.58 141.773v0 -2.29l-1.47 1.14Zm53.31 24.99c8.44 0 15.3 6.85 15.3 15.3 0 8.44-6.86 15.3-15.3 15.3 -8.45 0-15.3-6.86-15.3-15.3 0-8.45 6.85-15.3 15.3-15.3Zm1.86 4.11v0c-.47 0-.84.37-.84.84v0c0 .56-.46 1.01-1.02 1.01 -.57 0-1.02-.46-1.02-1.02v-.001c-.01-.47-.38-.84-.85-.84 -.06 0-.11 0-.16.01l-.001 0c-4.73.85-8.4 4.58-9.19 9.32 -.01.02-.01.05-.01.07l1.85-.22v2.07c0 .56-.46 1.01-1.02 1.01h0c-.47 0-.84.37-.84.84 0 .02 0 .05 0 .07 0 .02 0 .05.01.07v0c.81 4.7 4.47 8.39 9.17 9.244h-.001c.45.08.89-.22.98-.67 0-.06.01-.11.01-.16h-.001c-.02-.57.42-1.04.98-1.05 .56-.02 1.03.42 1.04.98 0 .02 0 .04 0 .06v0c0 .46.37.83.84.83 .05-.01.1-.01.15-.02l-.001 0c4.72-.86 8.39-4.59 9.18-9.33 0-.03 0-.06 0-.08v0c-.01-.47-.38-.84-.84-.84v-.001c-.57 0-1.02-.46-1.02-1.02 -.01-.01-.01-.01 0-.01v-2.12l1.85.25v0c-.01-.06-.01-.11-.02-.16v0c-.82-4.71-4.48-8.4-9.18-9.25v0c-.06-.02-.11-.02-.16-.02Z"/><path fill="#D72B2B" d="M260.874 167.81v0c0 1.19.96 2.16 2.16 2.16 1.19 0 2.16-.97 2.16-2.17v0c0-1.2-.97-2.17-2.17-2.17s-2.17.96-2.17 2.16v0Z"/><g fill="#BFBFBF"><path d="M221.24 145.637l-4.26 4.31c-.79 0-1.44-.67-1.42-1.44 0 0 0-1.44 1.41-2.88s2.83-1.44 2.83-1.44c.65.09 1.21.71 1.41 1.43Z"/><path d="M221.246 145.637l2.83 4.31 -2.84 2.87 -4.26-2.88c-.17-.14 0-1.44 1.41-2.88s2.77-1.41 2.83-1.44Z"/><path d="M223.374 150.671c-1.16-1.18-2.84-2.88-4.97-3.6 .71 2.15 2.38 3.85 3.54 5.03l1.41-1.44Z"/><path d="M221.24 152.82l.7-.72 -1.42-1.44c-1.42-1.44-3.55-.72-3.55-.72l4.256 2.87Zm2.83-2.88l-.71.71 -1.42-1.44c-1.42-1.44-.71-3.6-.71-3.6l2.83 4.31Z"/><path d="M224.08 149.95c4.96 5.03 10.637 7.91 14.18 11.506 2.83 2.87.87 5.07.08 5.77 -.8.69-2.95 2.88-5.76-.03 -3.55-3.6-6.39-9.35-11.35-14.39 0-1.44 1.42-2.88 2.83-2.88Z"/><path d="M241.54 165.254l-1.63-1.88 -5.62 5.52 1.62 1.87Z"/></g><path fill="#FFBD03" d="M243.24 166.676l-1.79-2.06 -6.19 6.06 1.78 2.05Zm15.43.84v-.001c.83.6 1.61 1.29 2.31 2.05v0c.7.76 1.32 1.59 1.86 2.47l.8-.51v0c-1.13-1.87-2.63-3.49-4.39-4.76l-.6.73v0Z"/><g fill="#BFBFBF"><path d="M191.965 121.23l-2.31 2.28 2.3 2.28 -1.16 1.14 -2.31-2.29 -4.61 4.56 2.3 2.28 -1.16 1.14 -2.31-2.29 -2.31 2.28 6.9 6.84 4.6-4.57 -2.31-2.29 -1.15 1.14 -1.16-1.15 4.6-4.57 1.15 1.14 -1.15 1.14 2.3 2.28 2.3-2.29 -1.16-1.15 1.15-1.15 4.6 4.56 -1.16 1.14 -1.16-1.15 -2.31 2.28 2.3 2.28 1.15-1.15 1.15 1.14 -4.61 4.56 -1.16-1.15 1.15-1.15 -2.31-2.29 -4.61 4.56 6.9 6.84 2.3-2.29 -2.31-2.29 1.15-1.15 2.3 2.28 4.6-4.57 -2.31-2.29 1.15-1.15 2.3 2.28 2.3-2.29Z"/><path d="M198.869 146.33v2.28l-5.76 5.7v-4.57l1.15-1.15h2.3Zm5.75-5.66l-4.58 4.53 -.06 2.26 4.625-4.59v-2.22Z"/><path d="M200.02 147.47l-2.31-2.29v-2.29l2.3 2.28Zm5.75-5.71l-2.31-2.29v-2.29l2.3 2.28Zm-2.31-4.57v2.28l-1.16-1.15Zm-5.76 5.7v2.28l-1.15-1.15Z"/></g><path fill="#A5A5A5" d="M208.097 137.21l-2.33 2.28v2.28l2.32-2.36Z"/><g fill="#BFBFBF"><path d="M194.266 134.92l-2.31-2.29v-2.29l2.3 2.28Zm4.6 4.56l-2.31-2.29v-2.29l2.3 2.28Zm1.15-5.71l-3.46-3.43v-2.29l4.6 4.56Zm-3.46-5.71v2.28l-1.16-1.15Z"/><path d="M194.266 134.92l2.3-2.29v-2.29l-2.31 2.28Zm-5.76-1.15l3.45-3.43v-2.29l-4.61 4.56Zm3.45 1.14l-4.61 4.56h-2.31l-1.15 1.14v4.56l8.05-8.01v-2.26Zm4.6 13.69l-6.91-6.85h-2.31l6.9 6.84Z"/><path d="M193.11 149.76l-6.91-6.85 1.15-1.15 6.9 6.84Zm-.01 0v4.56l-6.91-6.85v-4.57Zm-5.76-10.27l-6.91-6.85h-2.31l6.9 6.84Zm-3.46 1.14l-6.91-6.85 1.15-1.15 6.9 6.84Zm0 0v4.56l-6.91-6.85v-4.57Zm1.15-7.99l-1.15-1.15v-2.29l2.3 2.28Zm5.75-5.71l-1.16-1.15v-2.29l2.3 2.28Zm8.05 12.55l2.3-2.29 -1.16-1.15 -1.16 1.14v2.28Zm-6.91-9.13l1.15-1.15 -1.15-1.15Z"/></g><g fill="#FFBD03"><path d="M262.33 188.8l.85.4v2.11l-.001-.001c-1.26 1.77-2.87 3.28-4.73 4.42l-.58-.63 -.03-2.16 -.001 0c1.75-1.08 3.26-2.49 4.46-4.16Z"/><path d="M258.47 193.58c.86-.53 1.56-1.03 2.33-1.75 .77-.73 1.76-1.77 2.35-2.59"/><path d="M257.9 193l.57.56v2.1"/></g><path fill="#D72B2B" d="M260.289 193.92v0c0 1.19.96 2.16 2.16 2.16 1.19 0 2.16-.97 2.16-2.17v0c0-1.2-.97-2.17-2.17-2.17s-2.17.96-2.17 2.16v0Z"/><path opacity=".8" fill="#BFBFBF" d="M200.02 136.068v2.28l-1.16 1.13v-2.28Z"/><path fill="#FFBD03" stroke="#000" stroke-linecap="round" stroke-linejoin="round" stroke-width=".15" d="M227.064 133.8c2.6 9.732 9.65 17.03 13.03 14.26l-.59.57c-3.38 2.76-10.43-4.54-13.04-14.28l.58-.58Z"/><path fill="#FFBD03" d="M230.35 134.95c.28.71.55 1.43.89 2.15l1.13-.95c.3.65.63 1.3 1.06 1.96l-1.35.45c.64 1.03 1.31 2.06 2.25 3.09l-1.54 1.14c-.7-1.23-1.32-2.45-1.78-3.67l-1.1.87c-.4-.62-.71-1.29-1.04-1.97l1.3-.46 -1.25-1.92 1.38-.75Z"/><g fill="#BFBFBF"><path d="M249.895 164.605c8.44 0 15.3 6.85 15.3 15.3 0 8.44-6.86 15.3-15.3 15.3 -8.45 0-15.3-6.86-15.3-15.3 0-8.45 6.85-15.3 15.3-15.3Zm1.86 4.11v0c-.47 0-.84.37-.84.84v0c0 .56-.46 1.01-1.02 1.01 -.57 0-1.02-.46-1.02-1.02v0c-.01-.47-.38-.84-.85-.84 -.06 0-.11 0-.16.01v0c-4.73.85-8.4 4.58-9.19 9.32 -.01.02-.01.05-.01.07 0 .46.37.84.84.84v-.001c.56 0 1.01.45 1.01 1.01s-.46 1.01-1.02 1.01h0c-.47 0-.84.37-.84.84 0 .02 0 .05 0 .07 0 .02 0 .05.01.07v0c.81 4.7 4.47 8.39 9.17 9.24v0c.45.08.89-.22.98-.67 0-.06.01-.11.01-.16v0c0-.57.45-1.02 1.01-1.02s1.01.45 1.01 1.01v0c0 .46.37.83.84.83 .05-.01.1-.01.15-.02l0-.001c4.72-.86 8.39-4.59 9.18-9.33 0-.03 0-.06 0-.08h-.001c0-.47-.38-.84-.84-.84v0c-.57 0-1.02-.46-1.02-1.02 0-.57.45-1.02 1.01-1.02v0c.46-.001.84-.38.84-.84 0-.03-.01-.06-.01-.08v0c-.79-4.74-4.47-8.47-9.19-9.33h-.001c-.06-.02-.11-.02-.16-.02Z"/><path d="M250.371 166.288c7.03.09 13.31 6.46 13.15 13.53 .05 5.75-3.86 11.4-9.45 13.05 -4.99 1.61-10.887.14-14.32-3.87 -3.59-3.95-4.61-10.1-2.2-14.91 2.18-4.68 7.17-7.96 12.35-7.83 .14-.01.29 0 .44 0Zm-2.27.73c-5.79.65-10.86 5.77-11.05 11.65 .05.51.45.96.76 1.3 -1.14 1.11-.92 2.9-.3 4.22 1.57 4.7 6.05 8.56 11.13 8.68 .52-.02.89-.63 1.26-.74 1.12 1.11 2.9.85 4.21.23 4.7-1.61 8.53-6.15 8.56-11.24 -.06-.49-.53-.86-.74-1.2 1.12-1.12.88-2.92.27-4.24 -1.58-4.69-6.03-8.51-11.08-8.67 -.53.04-.97.54-1.31.76l0 0c-.46-.5-1.1-.79-1.77-.82Z"/></g><path fill="none" fill-rule="evenodd" stroke="#000" stroke-width=".15" d="M227.62 156.42c2.83 4.31 5.67 7.19 6.38 7.91 1.34 1.36 2.83 1.43 2.83 1.43s0-1.44-1.42-2.88l0-.001c-2.39-2.41-5-4.58-7.81-6.48Z"/><g fill="#FFBD03"><path d="M237.44 188.8l-.86.4v2.11 0c1.26 1.77 2.86 3.28 4.72 4.42l.57-.63 .02-2.16h-.001c-1.76-1.08-3.27-2.49-4.47-4.16Z"/><path d="M241.315 193.58c-.87-.53-1.57-1.03-2.34-1.75 -.77-.73-1.77-1.77-2.36-2.59"/><path d="M241.88 193l-.58.56v2.1"/></g><path fill="#D72B2B" d="M235.24 193.92v0c-.03 1.19.92 2.18 2.11 2.2 1.19.02 2.18-.93 2.2-2.12 0-.04 0-.07-.01-.1v0c-.03-1.2-1.02-2.15-2.21-2.12 -1.16.02-2.09.95-2.12 2.11v0Z"/><path fill="#FFBD03" d="M212.027 137.72v0c.76.05 1.37.66 1.41 1.43 -1.14.28-2.55 1.72-2.84 2.87 -.79 0-1.44-.67-1.42-1.44 .61-1.49 1.41-2.21 2.83-2.88Zm-20.27-20.55v0c.76.05 1.37.66 1.42 1.43l-.01 0 -.3-.31c-1.14.28-2.56 1.72-2.84 2.87l.3.3c-.79 0-1.44-.67-1.42-1.44 .61-1.49 1.41-2.21 2.83-2.875v0Z"/><path fill="#C0C0C0" d="M266.72 114.5v0c.02 1.1-.86 2.02-1.97 2.05 -1.11.02-2.03-.86-2.06-1.97 -.01-.03-.01-.06-.01-.09v0c.02-1.11.94-1.99 2.05-1.97 1.07.02 1.94.88 1.96 1.96v0Z"/><g fill="#FFBD03"><path d="M263.083 114.834l-2.13 2.15 1.41 1.43 2.12-2.16c.7-.72-.71-2.16-1.42-1.44Z"/><path d="M260.246 116.27l-2.13 2.16 -19.41 19.67 2.83 2.87 19.4-19.68 2.13-2.16c-.29-1.15-1.71-2.6-2.84-2.88Zm-22.7 23.01l-12.77 12.94 2.83 2.87 12.76-12.95c-.29-1.15-1.71-2.59-2.84-2.88Z"/></g><path fill="#C0C0C0" d="M258.119 118.43l-2.13 2.15c-1.42 1.43-6.39 7.91-6.39 7.91s-6.64 5.29-8.06 6.73l-2.13 2.15c1.41-1.44 10.18-7.46 10.18-7.46s-5.23 8.17-7.35 10.33l2.12-2.16c1.41-1.44 6.64-8.18 6.64-8.18s5.67-4.32 7.09-5.753l2.83-2.88c-1.42 1.43-9.93 7.19-9.93 7.19s5.67-8.63 7.09-10.07Z"/><g fill="#FFBD03"><path d="M229.753 145.757l4.25 4.31c.78 0 1.43-.67 1.41-1.44 0 0 0-1.44-1.42-2.88s-2.84-1.44-2.84-1.44c-.66.09-1.22.71-1.42 1.43Z"/><path d="M229.753 145.757l-2.84 4.31 2.83 2.87 4.25-2.88c.16-.14 0-1.44-1.42-2.88s-2.78-1.41-2.84-1.44Z"/><path d="M227.625 150.791c1.16-1.18 2.83-2.88 4.96-3.6 -.71 2.15-2.39 3.85-3.55 5.03l-1.42-1.44Z"/><path d="M229.753 152.948l-.71-.72 1.41-1.44c1.41-1.44 3.54-.72 3.54-.72l-4.26 2.87Zm-2.84-2.88l.71.71 1.41-1.44c1.41-1.44.71-3.6.71-3.6l-2.84 4.31Z"/><path d="M226.916 150.072c-4.97 5.03-10.637 7.91-14.19 11.506 -2.84 2.87-.88 5.07-.09 5.77 .79.69 2.94 2.88 5.75-.03 3.54-3.6 6.38-9.35 11.34-14.39 0-1.44-1.42-2.88-2.84-2.88Z"/><path d="M209.45 165.374l1.62-1.88 5.62 5.52 -1.63 1.87Z"/></g><path fill="#C0C0C0" d="M207.75 166.796l1.78-2.06 6.18 6.06 -1.79 2.05Z"/><path fill="none" fill-rule="evenodd" stroke="#000" stroke-width=".15" d="M223.37 156.54c-2.84 4.31-5.68 7.19-6.39 7.91 -1.35 1.36-2.84 1.43-2.84 1.43s0-1.44 1.41-2.88c.7-.72 3.54-3.6 7.8-6.48Z"/><path fill="#FFBD03" d="M254.41 141.893v0 -2.29l1.46 1.14Zm-53.32 24.99c-8.45 0-15.3 6.85-15.3 15.3 0 8.44 6.85 15.3 15.3 15.3 8.44 0 15.3-6.86 15.3-15.3 0-8.45-6.86-15.3-15.3-15.3Zm-1.87 4.11v0c.46 0 .84.37.84.84v0c0 .56.45 1.01 1.01 1.01s1.01-.46 1.01-1.02v0c0-.47.37-.84.84-.84 .05 0 .1 0 .15.01v0c4.72.85 8.39 4.58 9.18 9.32 0 .02 0 .05 0 .07l-1.86-.22v2.07c0 .56.45 1.01 1.01 1.01h0c.46-.01.84.37.84.83 0 .02-.01.05-.01.07 -.01.02-.01.05-.02.07v0c-.82 4.7-4.48 8.39-9.18 9.244h0c-.46.08-.9-.22-.99-.67 -.01-.06-.02-.11-.02-.16h0c.01-.57-.43-1.04-.99-1.05 -.57-.02-1.04.42-1.05.98 -.01.02-.01.04 0 .06v0c-.01.46-.38.83-.85.83 -.06-.01-.11-.01-.16-.02v0c-4.73-.86-8.4-4.59-9.19-9.33 -.01-.03-.01-.06-.01-.08h-.001c0-.47.37-.84.84-.84 .56 0 1.01-.46 1.01-1.02v-2.12l-1.86.25v0c-.01-.06 0-.11.01-.16v0c.81-4.71 4.47-8.4 9.17-9.244v0c.05-.02.1-.02.15-.02Z"/><path fill="#D72B2B" d="M190.125 167.929v-.001c0 1.19-.97 2.16-2.16 2.16 -1.2 0-2.17-.97-2.17-2.16v0c-.01-1.2.96-2.17 2.15-2.17 1.19-.01 2.16.96 2.16 2.15v0Z"/><path fill="#C0C0C0" d="M261.36 115.13v-.001c-.77.05-1.37.67-1.42 1.43l.3-.31c1.13.28 2.55 1.73 2.83 2.88l-.3.3c.77-.01 1.43-.67 1.41-1.44 -.62-1.49-1.42-2.21-2.84-2.89Zm-2.13 2.16v0c-.77.05-1.38.66-1.43 1.43l0 0 .3-.31c1.13.28 2.55 1.72 2.83 2.87l-.3.3c.78 0 1.43-.67 1.41-1.44 -.62-1.49-1.42-2.21-2.84-2.88Zm-66.93 50.34v0c-.84.6-1.62 1.29-2.32 2.05h0c-.71.76-1.33 1.59-1.87 2.47l-.81-.51v0c1.12-1.87 2.62-3.49 4.38-4.76l.59.73Z"/><g fill="#FFBD03"><path d="M259.034 135.048l4.6 4.56h2.3l1.15 1.14v4.56l-8.06-8.01v-2.26Zm-1.15 14.83l6.9-6.85 -1.16-1.15 -6.91 6.84Z"/><path d="M257.884 149.88v4.56l6.9-6.85v-4.57Zm5.75-10.27l6.9-6.85h2.3l-6.91 6.84Zm2.3-6.85l1.15-1.15v-2.29l-2.31 2.28Zm-5.76-5.71l1.15-1.15v-2.29l-2.31 2.28Z"/></g><path fill="#C0C0C0" d="M188.66 188.92l-.86.4v2.11 0c1.25 1.77 2.86 3.28 4.72 4.42l.57-.63 .02-2.16v0c-1.76-1.08-3.28-2.49-4.47-4.16Z"/><g stroke-width=".15" fill-rule="evenodd" stroke="#000" fill="none"><path d="M192.529 193.706c-.87-.53-1.57-1.03-2.34-1.75 -.77-.73-1.77-1.76-2.36-2.59"/><path d="M193.096 193.12l-.58.56v2.1"/></g><path fill="#D72B2B" d="M190.71 194.041v0c0 1.19-.97 2.16-2.16 2.16 -1.2 0-2.17-.97-2.17-2.16v0c-.01-1.2.96-2.17 2.15-2.17 1.19-.01 2.16.96 2.16 2.15v0Z"/><g fill="#FFBD03"><path d="M201.105 164.725c-8.45 0-15.3 6.85-15.3 15.3 0 8.44 6.85 15.3 15.3 15.3 8.44 0 15.3-6.86 15.3-15.3 0-8.45-6.86-15.3-15.3-15.3Zm-1.87 4.11v0c.46 0 .84.37.84.84v0c0 .56.45 1.01 1.01 1.01s1.01-.46 1.01-1.02v-.001c0-.47.37-.84.84-.84 .05 0 .1 0 .15.01v0c4.72.85 8.39 4.58 9.18 9.32v0c.04.46-.3.87-.76.91 -.03 0-.06 0-.08 0v-.001c-.57 0-1.02.45-1.02 1.01s.45 1.01 1.01 1.01v-.001c.46-.01.84.37.84.83 0 .02-.01.05-.01.07 -.01.02-.01.05-.02.07l-.001-.001c-.82 4.7-4.48 8.39-9.18 9.24h0c-.46.08-.9-.22-.99-.67 -.01-.06-.02-.11-.02-.16h0c0-.57-.46-1.02-1.02-1.02 -.57 0-1.02.45-1.02 1.01v0c-.01.46-.38.83-.85.83 -.06-.01-.11-.01-.16-.02h-.001c-4.73-.86-8.4-4.59-9.19-9.33 -.01-.03-.01-.06-.01-.08h-.001c0-.47.37-.84.84-.84v0c.56.01 1.03-.43 1.04-.99 .01-.57-.43-1.04-.99-1.05 -.03-.01-.05-.01-.07 0v0c-.47-.01-.84-.38-.84-.85 0-.06 0-.11.01-.16v0c.81-4.71 4.47-8.4 9.17-9.244h0c.05-.02.1-.02.15-.02Z"/><path d="M200.628 166.4c-7.04.09-13.32 6.46-13.16 13.53 -.06 5.75 3.85 11.4 9.44 13.05 4.98 1.61 10.887.14 14.32-3.87 3.59-3.95 4.6-10.1 2.19-14.91 -2.19-4.68-7.17-7.96-12.36-7.83 -.15-.01-.3 0-.45 0Zm2.26.73c5.79.65 10.86 5.77 11.04 11.65 -.06.51-.46.96-.77 1.3 1.13 1.11.91 2.9.29 4.22 -1.57 4.7-6.06 8.56-11.13 8.68 -.53-.02-.9-.63-1.27-.74 -1.13 1.11-2.91.85-4.22.23 -4.7-1.61-8.54-6.15-8.57-11.24 .06-.49.52-.86.73-1.2 -1.13-1.12-.89-2.92-.28-4.24 1.57-4.69 6.03-8.51 11.07-8.67 .53.04.96.54 1.3.76v0c.45-.5 1.09-.79 1.76-.82Z"/></g><path fill="#C0C0C0" d="M213.55 188.92l.85.4v2.11 0c-1.27 1.77-2.87 3.28-4.73 4.42l-.58-.63 -.03-2.16v0c1.75-1.08 3.26-2.49 4.46-4.16Z"/><g stroke-width=".15" fill-rule="evenodd" stroke="#000" fill="none"><path d="M209.685 193.706c.86-.53 1.56-1.03 2.33-1.75 .77-.73 1.76-1.76 2.35-2.59"/><path d="M209.118 193.12l.57.56v2.1"/></g><path fill="#D72B2B" d="M215.75 194.041v0c0 1.19-.97 2.16-2.17 2.16s-2.17-.97-2.17-2.17v0c0-1.2.96-2.17 2.16-2.17 1.19 0 2.16.96 2.16 2.16v0Z"/><g fill="#FFBD03"><path d="M256.73 135.048l2.3-2.29v-2.29l-2.31 2.28Zm-2.31-6.85v2.28l1.15-1.15Zm2.3 6.84l-2.31-2.29v-2.29l2.3 2.28Zm5.75-1.15l-3.46-3.43v-2.29l4.6 4.56Zm-8.06 14.83l6.9-6.85h2.3l-6.91 6.84Z"/><path d="M259.034 130.484l-1.15-1.15 1.15-1.15Z"/><path d="M259.034 121.356l2.3 2.28 -2.31 2.28 1.15 1.14 2.3-2.29 4.6 4.56 -2.31 2.28 1.15 1.14 2.3-2.29 2.3 2.28 -6.91 6.84 -4.61-4.57 2.3-2.29 1.15 1.14 1.15-1.15 -4.61-4.57 -1.15 1.14 1.15 1.14 -2.31 2.28 -2.31-2.29 1.15-1.15 -1.16-1.15 -4.61 4.56 1.15 1.14 1.15-1.15 2.3 2.28 -2.31 2.28 -1.16-1.15 -1.16 1.14 4.6 4.56 1.15-1.15 -1.16-1.15 2.3-2.29 4.6 4.56 -6.91 6.84 -2.31-2.29 2.3-2.29 -1.15-1.15 -2.31 2.28 -4.61-4.57 2.3-2.29 -1.16-1.15 -2.31 2.28 -2.31-2.29Z"/></g></g><use opacity=".8" fill="url(#a)" xlink:href="#n"/><g stroke-width=".15" fill="#FFBD03" stroke="#000"><path d="M267.08 140.75l6.9-6.85 -1.16-1.15 -6.91 6.84Z"/><path d="M267.08 140.753v4.56l6.9-6.85v-4.57Z"/><use fill="#C0C0C0" xlink:href="#n"/><path d="M252.131 146.45v2.28l5.75 5.7v-4.57l-1.16-1.15h-2.31Zm-5.76-5.66l4.57 4.53 .05 2.26 -4.625-4.59Z"/><path d="M250.98 147.59l2.3-2.29v-2.29l-2.31 2.28Zm-5.76-5.71l2.3-2.29v-2.29l-2.31 2.28Zm2.3-4.57v2.28l1.15-1.15Z"/><path d="M253.281 143.034v2.28l1.15-1.15Z"/><path fill="#D8A002" d="M242.903 137.33l2.32 2.28v2.28l-2.33-2.36Z"/><path d="M252.131 139.612l2.3-2.29v-2.29l-2.31 2.28Zm-1.16-5.71l3.45-3.43v-2.29l-4.61 4.56Z"/><path d="M252.131 139.612l-2.31-2.29 1.15-1.15 1.15 1.14v2.28Z"/><path opacity=".8" d="M250.98 136.18v2.28l1.15 1.13v-2.28Z"/><g stroke-linecap="round" stroke-width=".15" stroke="#000" fill="#BB0D0D" stroke-linejoin="round"><path d="M224.311 151.99c-1.43.04-2.82.22-3.98.69l0-.001c-.61.26-.88.97-.61 1.58 .25.57.91.85 1.51.63 .9-.37 2.71-.56 4.43-.52 1.72.04 3.44.29 4.12.5h0c.62.21 1.31-.12 1.53-.74 .07-.22.08-.46.03-.68v0c-.11-.43-.44-.77-.86-.88 -1.14-.36-2.88-.57-4.77-.62l-.001 0c-.48-.02-.96-.02-1.43-.01Z"/><path d="M225.54 148.32v0c-.67.02-1.18.58-1.15 1.24 0 .12.02.24.06.35 .19.57.44 2.6.47 4.54 .02 1.94-.17 4.01-.4 4.75v0c-.21.63.14 1.3.78 1.5 .63.2 1.3-.15 1.5-.78 .44-1.41.53-3.44.51-5.52 -.03-2.08-.17-4.01-.61-5.3h-.001c-.17-.52-.66-.86-1.2-.83v0Z"/></g><path fill="#BB0D0D" d="M204.93 188.4c-.21 0-.41.01-.61.04 -1.06.15-2.01 1.07-2.16 2.07 -.16.99.13 1.95.63 2.99 .49 1.03 1.24 2.13 2.2 3.25 3.85 4.5 11.32 9.47 20.62 9.47s16.774-4.98 20.62-9.48c.96-1.13 1.7-2.23 2.2-3.26 .49-1.04.79-2 .63-3 -.16-1-1.11-1.92-2.16-2.07v0c-.21-.03-.41-.05-.61-.05 -.9 0-1.87.27-3.03.76 -.05.01-.09.03-.13.04v0c.93.68 1.96 1.22 3.05 1.59 .15-.02.27-.01.35 0 .06 0 .12.03.13.07 .02.17-.05.79-.43 1.57s-1.01 1.73-1.87 2.73c-3.43 3.99-10.35 8.63-18.81 8.63 -8.47 0-15.39-4.64-18.81-8.64 -.86-1-1.49-1.96-1.87-2.74 -.38-.79-.46-1.4-.43-1.58 0-.06.07-.07.13-.08 .08-.02.23-.02.4 0l-.001-.001c1.05-.4 2.04-.95 2.93-1.64l-.06-.03c-1.17-.5-2.14-.77-3.03-.77Z"/><path fill="#FFF" d="M225.5 92.29c-8.76 6.43-13.58 12.27-13.58 28.93 0 5.18 1.68 9.29 2.31 12.9 3.31-.81 6.28-1.61 11.25-1.61 4.96-.01 7.94.8 11.25 1.6 .62-3.61 2.31-7.72 2.31-12.9 0-16.66-4.82-22.5-13.58-28.94Z"/><path d="M224.477 84.618l.24 2.27 -1.83-.24v2.23l1.82-.24 -.24 4.02h2.04l-.24-4.03 1.82.24v-2.23l-1.83.24 .24-2.28Z"/><g stroke-width=".15" stroke="#000" fill="#FFBD03" stroke-linejoin="round"><path d="M212.04 107.393c3.42-1.12 7.66-1.76 12.96-1.78 5.29.01 10.68.63 14.09 1.76l-.49 2.57c-3.1-1.06-8.125-1.86-13.03-1.86 -4.9 0-10.78.83-13.23 1.83 -.03.21-.32-2.54-.32-2.54Z"/><path fill="none" fill-rule="evenodd" stroke="#000" stroke-linejoin="round" stroke-width=".15" d="M238.61 109.755l-1.58-1.625 1.92-.56"/></g><path d="M237.395 105.93l-.92-1.54s-.86.97-1.95.8c-1.08-.17-1.38-1.98-1.38-1.98s-1.43 1.68-2.42 1.6c-.99-.09-1.48-.84-1.48-.84s-.81.77-1.76.7c-.95-.09-2.24-2-2.24-2s-.85 1.94-1.8 2.03c-.95.07-2.11-1.38-2.11-1.38s-.43 1.23-1.64 1.44c-1.21.2-1.97-1.44-1.97-1.44s-.59 1.82-1.41 2.11c-.82.29-1.91-.8-1.91-.8l-1.16 1.33 .64.73c2.96-.87 6.96-1.41 11.5-1.41s8.65.54 11.62 1.41l.3-.83h-.01v0Z"/><path d="M210.23 104.285c.62 1.24 1.51 2.42 2.91 2.13 1.39-.29 1.45-1.49 1.45-1.49s.86 1.13 1.82.9c.97-.24 1.28-1.91 1.28-1.91s1.05 1.44 2.19 1.32c1.13-.13 1.55-1.37 1.55-1.37s.56 1.18 1.87 1.13c1.36-.06 2.05-1.79 2.05-1.79s.95 1.77 2.16 1.77c1.2-.01 1.68-1.02 1.68-1.02s.37 1.15 1.57 1.22c1.19.07 2.27-1.45 2.27-1.45s.5 1.76 1.48 1.96c1.04.2 1.88-.84 1.88-.84s.37 1.36 1.41 1.52c.99.15 2.04-.97 2.73-2.33 -1.09.6-1.82 1.81-2.59 1.57 -.73-.24-1.45-1.8-1.45-1.8s-1.07 1.21-1.93.92c-.85-.29-1.29-3.31-1.29-3.31s-1.26 3.15-2.44 2.83c-1.17-.32-1.73-1.83-1.73-1.83s-.46 1.64-1.7 1.7c-1.3.06-2.13-3.61-2.13-3.61s-1.07 3.64-2.08 3.62c-1.02-.03-1.97-1.69-1.97-1.69s-.32 1.77-1.47 1.72c-1.15-.06-2.74-2.7-2.74-2.7s.1 3.13-.81 3.41c-.86.26-2.39-1.32-2.39-1.32s.43 1.76-.66 2.06c-1.08.28-1.74-.89-3.07-1.44v0Z"/><g stroke-width=".15" stroke="#000" fill="#FFBD03" stroke-linejoin="round"><path d="M225.545 105.9c-5.17 0-9.81.64-13.13 1.67 -.23.07-.51-.11-.58-.32 -.07-.23.09-.5.3-.58 3.34-1.07 8.1-1.75 13.39-1.75 5.28 0 10.05.68 13.4 1.74 .21.07.37.35.3.57 -.07.2-.35.38-.57.31 -3.34-1.04-8-1.68-13.15-1.68Z"/><path fill="#CE1126" d="M212.24 109.1l-.59-.52 .39-.54 1.07.23Zm26.44 0l.66-.4 -.43-.62 -1.05.21Z"/></g><path d="M228.54 100.736s-1.9-.02-2.14-.29v0c-.27-.29-.25-.74.03-1.01 0-.01.01-.02.02-.03 .23-.21.78-.44 1.13-.375 .35.06.81.15.84.54 .02.32-1.09.55-1.09.55s1.41-.27 1.63.01c.24.3.39.75.07 1.15 -.24.29-1.77-.1-1.77-.1s1.32.24 1.13.85c-.11.33-.8.48-1.29.4 -.5-.09-.94-.37-1.04-.85 -.11-.49.14-.87.51-.91 .48-.06 1.89 0 1.89 0v0Zm-6.3.05s1.89.05 2.14-.21l-.001 0c.27-.28.27-.73-.01-1.01 -.01-.01-.02-.02-.03-.02 -.23-.22-.77-.47-1.13-.42 -.36.05-.82.12-.87.5 -.04.32 1.05.6 1.05.6s-1.41-.32-1.64-.05c-.26.29-.43.74-.13 1.15 .22.3 1.76-.03 1.76-.03s-1.33.19-1.17.81c.09.34.77.51 1.26.45 .49-.07.94-.34 1.06-.81 .11-.48-.11-.87-.49-.93 -.49-.08-1.89-.08-1.89-.08Z"/><path d="M225.402 97.06s-.06 1.92.2 2.17v0c.26.27.69.28.96.02 .01-.02.02-.03.03-.05 .21-.23.46-.78.41-1.14 -.05-.37-.13-.83-.51-.88 -.32-.04-.6 1.07-.6 1.07s.31-1.43.04-1.66c-.3-.26-.73-.43-1.14-.13 -.31.22.02 1.79.02 1.79s-.19-1.35-.8-1.19c-.34.09-.51.78-.45 1.28s.32.96.79 1.08c.47.12.85-.11.91-.49 .07-.5.07-1.93.07-1.93Z"/><path fill="#CE1126" stroke="#000" stroke-linecap="round" stroke-width=".15" d="M226.22 100.727c-.02.81-.4 1.47-.84 1.46 -.45-.01-.8-.68-.79-1.5 .01-.82.39-1.48.83-1.47 .44 0 .79.67.78 1.49Z"/><path d="M236.5 101.96s-1.86-.4-2.04-.72c-.21-.37-.09-.8.26-.99 .26-.16.85-.28 1.18-.14 .33.13.76.31.72.7 -.04.32-1.17.32-1.17.32s1.43.03 1.59.34c.17.34.23.82-.16 1.15 -.29.24-1.71-.45-1.71-.45s1.24.5.94 1.07c-.17.31-.87.31-1.34.13 -.47-.18-.85-.56-.85-1.04 -.01-.5.3-.82.68-.79 .48.04 1.85.38 1.85.38Zm-6.18-1.23s1.84.44 2.13.23h0c.32-.22.41-.66.19-.99 -.01-.01-.02-.02-.02-.03 -.18-.26-.66-.62-1.02-.64 -.37-.03-.83-.05-.95.32 -.11.31.91.8.91.8s-1.32-.6-1.59-.38c-.31.23-.57.64-.35 1.1 .15.34 1.73.33 1.73.33s-1.34-.08-1.31.55c.02.35.65.65 1.15.69 .49.04.99-.14 1.2-.58 .21-.45.06-.88-.3-1.01 -.46-.17-1.84-.46-1.84-.46Z"/><path d="M234.156 97.727s-.44 1.87-.24 2.17c.23.34.67.41.99.18 .25-.18.6-.67.62-1.04 .02-.37.04-.84-.32-.96 -.31-.11-.8.93-.8.93s.58-1.34.37-1.62c-.24-.32-.63-.57-1.09-.36 -.34.16-.33 1.76-.33 1.76s.07-1.37-.55-1.33c-.35.02-.65.66-.69 1.17 -.04.5.13 1.01.56 1.22 .43.21.86.06.98-.3 .16-.47.45-1.87.45-1.87v0Z"/><path fill="#058E6E" stroke="#000" stroke-linecap="round" stroke-width=".15" d="M234.245 101.488c-.18.79-.68 1.36-1.11 1.26 -.44-.1-.65-.83-.48-1.63 .17-.8.67-1.37 1.1-1.27 .43.1.64.82.47 1.625Z"/><path d="M214.223 101.915s1.86-.36 2.05-.67h-.001c.21-.33.11-.77-.22-.98 -.01-.01-.02-.02-.03-.02 -.27-.17-.85-.3-1.19-.17 -.34.12-.78.29-.74.68 .03.32 1.16.35 1.16.35s-1.44-.01-1.61.3c-.19.34-.26.81.12 1.15 .28.24 1.71-.41 1.71-.41s-1.26.47-.97 1.04c.16.31.86.33 1.33.16 .47-.17.85-.53.87-1.02 .01-.5-.29-.83-.67-.8 -.49.03-1.87.34-1.87.34Zm6.2-1.08s-1.86.39-2.15.18v-.001c-.33-.23-.4-.67-.18-.99 0-.01.01-.02.01-.03 .18-.26.66-.6 1.03-.62 .36-.02.82-.03.93.34 .09.31-.94.78-.94.78s1.32-.57 1.59-.35c.3.24.54.65.32 1.11 -.17.34-1.74.29-1.74.29s1.34-.05 1.29.58c-.03.35-.68.64-1.18.67 -.5.02-1-.16-1.19-.61 -.2-.46-.05-.88.31-1 .46-.16 1.85-.42 1.85-.42v0Z"/><path d="M216.67 97.733s.39 1.88.18 2.17c-.25.34-.69.4-1 .16 -.26-.19-.6-.68-.61-1.05 -.02-.37-.03-.84.34-.96 .3-.1.77.95.77.95s-.56-1.35-.34-1.63c.24-.31.64-.56 1.09-.33 .33.17.28 1.76.28 1.76s-.05-1.37.58-1.31c.34.02.63.68.66 1.18 .02.5-.16 1-.6 1.2 -.45.2-.87.04-.99-.32 -.16-.47-.41-1.88-.41-1.88Z"/><path fill="#058E6E" stroke="#000" stroke-linecap="round" stroke-width=".15" d="M216.499 101.49c.15.8.64 1.37 1.07 1.29 .43-.09.66-.82.5-1.62 -.16-.81-.64-1.38-1.08-1.29 -.44.08-.67.81-.51 1.61Z"/><path d="M238.06 102.61s1.59 1.04 1.93.95v0c.37-.1.6-.48.51-.86 -.01-.02-.01-.03-.01-.04 -.09-.31-.42-.81-.75-.95 -.34-.15-.77-.33-1-.02 -.2.25.6 1.07.6 1.07s-1.04-1.01-1.37-.9c-.37.12-.74.41-.7.92 .03.37 1.52.9 1.52.9s-1.24-.54-1.42.08c-.1.34.4.84.85 1.05 .45.2.98.21 1.32-.13 .34-.35.35-.8.05-1.05 -.38-.32-1.59-1.06-1.59-1.06Z"/><path d="M243.038 100.772c.04-.59-.15-.93-.61-.63 -.39.25-.86 1.7-.86 1.7s.52-1.26-.08-1.44c-.34-.1-.84.4-1.04.86 -.21.46-.22.99.12 1.34 .34.35.9.23 1.21.02 .99-.7 1.19-1.43 1.22-1.88Z"/><path fill="#CE1126" stroke="#000" stroke-linecap="round" stroke-width=".15" d="M241.5 104.651c-.43.69-1.09 1.05-1.47.81 -.38-.25-.34-1 .09-1.69 .42-.7 1.08-1.06 1.46-.82 .37.24.33.99-.1 1.68Z"/><path d="M212.632 102.586s-1.6 1.04-1.94.95l0 0c-.38-.1-.61-.48-.52-.86 0-.02 0-.03 0-.04 .08-.31.41-.81.74-.95 .33-.15.76-.33.99-.02 .2.25-.6 1.07-.6 1.07s1.03-1.01 1.37-.9c.36.12.74.41.69.92 -.04.37-1.53.9-1.53.9s1.23-.54 1.41.08c.09.34-.4.84-.86 1.05 -.46.2-.99.21-1.33-.13 -.35-.35-.36-.8-.06-1.05 .37-.32 1.58-1.06 1.58-1.06Z"/><path d="M207.66 100.74c-.04-.59.15-.93.6-.63 .38.25.85 1.7.85 1.7s-.53-1.26.08-1.44c.33-.1.83.4 1.03.87 .2.46.21.99-.13 1.34 -.35.35-.91.23-1.22.02 -1-.7-1.2-1.42-1.23-1.88Z"/><g stroke-linecap="round" stroke-width=".15" stroke="#000" fill="#CE1126"><path d="M209.197 104.62c.43.69 1.08 1.05 1.46.81 .37-.25.33-1-.1-1.69 -.43-.7-1.09-1.06-1.47-.82 -.38.24-.34 1 .09 1.69Z"/><path fill="url(#b)" d="M237.2 103.813v0c0 .29-.24.54-.54.54 -.01 0-.01 0-.01 0v0c-.3-.01-.55-.25-.54-.55 0-.01 0-.01 0-.01 0-.31.24-.55.53-.55 .29 0 .53.24.53.54Z"/><path fill="url(#c)" d="M229.885 102.44l-.001-.001c0 .34-.28.62-.62.62 -.01 0-.01 0-.01 0v0c-.35-.01-.62-.29-.62-.63 0-.01 0-.01 0-.01v-.001c-.01-.35.27-.63.61-.63 0-.01 0-.01 0-.01 .34 0 .61.28.61.625Z"/><path fill="url(#d)" d="M222.06 102.52v0c0 .34-.28.62-.62.62 -.01 0-.01 0-.01 0v0c-.35-.01-.62-.29-.62-.63 0-.01 0-.01 0-.01v-.001c-.01-.35.27-.63.61-.63 0-.01 0-.01 0-.01v0c.34 0 .61.28.61.62 -.01 0-.01 0-.01 0Z"/><path fill="url(#e)" d="M214.554 103.75c0 .3-.25.56-.56.56h-.001c-.31-.01-.56-.26-.56-.56 0-.01 0-.01 0-.01 0-.31.24-.56.55-.56 .3 0 .55.25.55.56Z"/></g><g stroke-width=".15" stroke="#000" fill="#FFBD03" stroke-linejoin="round"><path d="M225.439 108.813c-4.98 0-9.45.64-12.66 1.67 -.22.07-.49-.11-.56-.32 -.07-.23.08-.5.29-.58 3.22-1.07 7.8-1.75 12.9-1.75 5.09 0 9.69.67 12.92 1.74 .21.07.36.35.29.57 -.07.2-.34.38-.55.31 -3.22-1.04-7.71-1.68-12.68-1.68Z"/><path fill="#CE1126" d="M225.42 107.33l.94-.41 -.87-.53 -1.01.46Z"/><path fill="#058E6E" d="M217.28 107.12l1.77-.22v0c.17-.03.33.1.36.28l0 .06v0c.02.17-.1.33-.28.35 -.01 0-.01 0-.01 0l-1.78.21v0c-.18.02-.34-.11-.37-.29l-.01-.07v0c-.03-.18.09-.34.27-.36 0-.01 0-.01 0-.01Z"/><path fill="none" fill-rule="evenodd" stroke="#000" stroke-linecap="round" stroke-linejoin="round" stroke-width=".15" d="M217.02 106.84l2.21-.29c.31-.04.59.13.62.39l.05.41c.03.26-.2.5-.51.54l-2.22.28c-.32.04-.6-.14-.63-.4l-.06-.42c-.04-.26.19-.51.5-.55Z"/><path fill="#058E6E" d="M233.32 107.092l-1.77-.23v0c-.18-.03-.34.1-.37.27 -.01 0-.01 0-.01 0l-.02.09v0c-.03.17.1.33.28.36l1.76.22v0c.17.02.33-.11.36-.28 0-.01 0-.01 0-.01l.01-.09v0c.02-.18-.11-.34-.29-.37Z"/><g stroke-width=".15" fill-rule="evenodd" stroke="#000" fill="none" stroke-linejoin="round"><path d="M233.632 106.8l-2.25-.29c-.31-.04-.58.14-.61.4l-.06.41c-.04.26.18.5.48.54l2.24.28c.3.03.57-.15.6-.41l.05-.42c.03-.26-.19-.51-.49-.55Z"/><path fill="none" fill-rule="evenodd" stroke="#000" stroke-linecap="round" stroke-linejoin="round" stroke-width=".15" d="M225.43 107.84l1.92-.91 -1.8-1.01 -2.03.89Zm-13.08 1.84l1.69-1.61 -1.97-.52"/><path d="M228.83 106.874h0c-.15-.01-.27-.13-.27-.28v0c-.01-.15.11-.28.26-.28 0-.01 0-.01 0-.01h0l-.001-.001c.14 0 .26.12.26.26 -.01 0-.01 0-.01 0v0c0 .14-.12.27-.27.27h-.01Zm0 .77h0c-.15-.01-.27-.13-.27-.28v0c-.01-.15.11-.28.26-.28 0-.01 0-.01 0-.01h0v0c.14 0 .26.12.26.27v0c0 .14-.12.27-.27.27h-.01Zm-7.08-.74v-.001c-.15-.01-.27-.13-.27-.28v0c-.01-.15.11-.28.26-.28h0c.14 0 .26.12.26.27v0c0 .14-.12.27-.27.27v0Zm0 .77l0 0c-.15-.01-.27-.13-.27-.27 0-.01 0-.01 0-.01v0c-.01-.15.11-.28.26-.28h0c.14 0 .26.12.26.27v0c0 .14-.12.27-.27.27v0Zm13.94.1v-.001c-.15-.03-.25-.17-.23-.32v0c.02-.15.15-.25.3-.23 0 0 0 0 0 0h0v0c.14.03.23.17.2.32 -.04.13-.16.22-.29.2h-.01Zm-.13.76h-.001c-.15-.03-.25-.17-.23-.32v0c.02-.15.15-.25.3-.23 0 0 0 0 0 0h0v0c.14.02.24.16.22.31l0 0c-.03.14-.16.24-.31.22 -.01-.01-.01-.01-.01-.01s0 0 0 0Zm-20.29-.77v0c.14-.03.24-.17.22-.32h-.001c-.03-.15-.16-.25-.31-.23 -.01 0-.01 0-.01 0h-.01v0c-.15.03-.24.17-.21.32 .03.13.15.22.29.21v0Zm.12.76l0-.001c.14-.03.24-.17.22-.32 -.03-.15-.17-.25-.32-.23h-.01v0c-.15.02-.25.16-.23.31h0c.02.14.15.24.3.22 0-.01 0-.01 0-.01h0Z"/></g><path d="M213.75 133.031c3-.99 6.72-1.55 11.38-1.56 4.65.01 9.381.56 12.38 1.54l-.43 2.26c-2.72-.93-7.14-1.63-11.45-1.64 -4.3 0-9.47.72-11.619 1.6 -.03.19-.29-2.23-.29-2.23Z"/></g><path d="M236.02 131.751l-.8-1.36s-.76.85-1.71.71c-.95-.15-1.21-1.74-1.21-1.74s-1.26 1.47-2.13 1.4c-.87-.08-1.3-.74-1.3-.74s-.71.68-1.55.61c-.84-.08-1.97-1.75-1.97-1.75s-.74 1.71-1.58 1.78c-.84.06-1.86-1.22-1.86-1.22s-.38 1.08-1.44 1.26c-1.07.18-1.73-1.27-1.73-1.27s-.52 1.6-1.24 1.86c-.72.25-1.67-.71-1.67-.71l-1.02 1.17 .56.64c2.6-.76 6.12-1.23 10.1-1.24 3.98 0 7.6.47 10.21 1.24l.26-.73h-.01Z"/><path d="M212.16 130.3c.54 1.09 1.33 2.13 2.56 1.87 1.22-.26 1.27-1.31 1.27-1.31s.75.99 1.6.79c.85-.21 1.12-1.68 1.12-1.68s.93 1.26 1.93 1.15c.99-.11 1.36-1.2 1.36-1.2s.49 1.04 1.64.99c1.19-.05 1.8-1.57 1.8-1.57s.83 1.56 1.9 1.56c1.06-.01 1.47-.9 1.47-.9s.32 1.01 1.38 1.07c1.05.06 2-1.28 2-1.28s.43 1.55 1.3 1.72c.91.18 1.65-.74 1.65-.74s.33 1.19 1.23 1.33c.87.13 1.79-.85 2.4-2.05 -.96.53-1.6 1.59-2.28 1.37 -.64-.21-1.27-1.58-1.27-1.58s-.94 1.07-1.69.81c-.74-.26-1.14-2.9-1.14-2.9s-1.11 2.77-2.14 2.49c-1.03-.28-1.52-1.6-1.52-1.6s-.41 1.44-1.5 1.5c-1.14.05-1.87-3.17-1.87-3.17s-.94 3.2-1.83 3.18c-.89-.02-1.73-1.49-1.73-1.49s-.28 1.55-1.29 1.51c-1.01-.05-2.41-2.37-2.41-2.37s.08 2.75-.71 2.99c-.76.23-2.1-1.16-2.1-1.16s.38 1.55-.58 1.8c-.94.25-1.52-.78-2.69-1.26Z"/><path fill="#FFBD03" stroke="#000" stroke-linejoin="round" stroke-width=".15" d="M225.61 131.72c-4.54 0-8.61.56-11.53 1.47 -.2.06-.45-.09-.51-.28 -.07-.2.07-.44.27-.51 2.93-.94 7.11-1.54 11.762-1.54 4.64 0 8.83.59 11.77 1.53 .19.06.33.3.27.5 -.06.18-.31.34-.5.27 -2.93-.91-7.02-1.47-11.55-1.48Z"/><path d="M228.24 127.183s-1.67-.02-1.88-.26l0 0c-.24-.26-.22-.65.03-.88 0-.01.01-.02.02-.02 .2-.19.68-.39.99-.33 .31.05.71.13.74.47 .02.28-.95.49-.95.49s1.24-.23 1.43.01c.21.26.34.66.06 1.01 -.21.26-1.55-.09-1.55-.09s1.16.21.99.75c-.09.29-.7.42-1.13.35 -.44-.08-.83-.33-.91-.75 -.09-.43.12-.76.45-.8 .42-.05 1.66-.01 1.66-.01Zm-5.53.04s1.66.05 1.88-.18v-.001c.24-.25.24-.64 0-.89 -.01-.01-.02-.02-.02-.02 -.2-.2-.67-.42-.99-.37 -.32.04-.72.11-.76.44 -.04.28.93.52.93.52s-1.24-.28-1.44-.05c-.23.26-.38.65-.11 1.01 .19.26 1.54-.03 1.54-.03s-1.17.17-1.03.71c.07.3.67.45 1.11.39 .43-.06.83-.3.93-.71 .1-.43-.1-.77-.43-.82 -.43-.07-1.67-.07-1.67-.07Z"/><path d="M225.48 123.95s-.05 1.69.17 1.91v0c.22.23.6.24.84.02 .01-.02.02-.03.03-.04 .18-.2.4-.68.36-1.01 -.05-.33-.11-.73-.44-.77 -.29-.04-.52.94-.52.94s.27-1.26.04-1.46c-.26-.23-.65-.38-1-.11 -.27.2.02 1.57.02 1.57s-.17-1.19-.71-1.05c-.3.08-.45.68-.39 1.13 .05.44.28.84.69.95 .41.1.75-.1.79-.44 .06-.44.06-1.69.06-1.69Z"/><path fill="#CE1126" stroke="#000" stroke-linecap="round" stroke-width=".15" d="M226.212 127.174c-.02.71-.35 1.29-.74 1.28 -.4-.01-.7-.6-.69-1.32 .01-.72.34-1.3.73-1.29 .39 0 .7.59.68 1.31Z"/><path d="M235.24 128.26s-1.63-.36-1.79-.63v0c-.18-.3-.09-.68.2-.86 0-.01.01-.01.02-.02 .23-.14.74-.24 1.04-.12 .29.12.67.27.63.61 -.04.28-1.03.28-1.03.28s1.26.02 1.4.3c.15.3.2.72-.14 1.01 -.26.21-1.5-.4-1.5-.4s1.09.44.83.94c-.15.27-.77.27-1.18.11 -.42-.16-.75-.49-.75-.92 -.01-.44.27-.72.6-.69 .42.04 1.62.33 1.62.33Zm-5.43-1.08s1.62.38 1.87.2v0c.28-.2.36-.58.17-.87 -.01-.01-.01-.02-.02-.03 -.16-.23-.58-.54-.9-.57 -.32-.02-.73-.04-.84.28 -.09.27.8.7.8.7s-1.16-.53-1.4-.34c-.27.2-.5.56-.31.97 .14.3 1.52.29 1.52.29s-1.18-.07-1.15.49c.01.31.57.57 1.01.61 .43.03.87-.12 1.05-.51 .18-.4.05-.77-.26-.89 -.41-.15-1.62-.41-1.62-.41Z"/><path d="M233.17 124.54s-.39 1.64-.21 1.9h-.001c.17.28.54.36.82.19 .01-.01.02-.02.04-.03 .22-.16.53-.59.55-.91 .02-.33.03-.74-.28-.85 -.27-.1-.7.82-.7.82s.51-1.18.32-1.42c-.21-.28-.56-.5-.96-.31 -.3.14-.29 1.54-.29 1.54s.06-1.2-.49-1.17c-.31.01-.57.58-.61 1.03 -.04.44.11.88.49 1.07 .38.18.75.05.86-.26 .14-.41.39-1.64.39-1.64Z"/><path fill="#058E6E" stroke="#000" stroke-linecap="round" stroke-width=".15" d="M233.253 127.843c-.16.7-.6 1.19-.98 1.11 -.39-.09-.57-.73-.42-1.43 .15-.71.59-1.2.97-1.12 .38.08.56.72.41 1.42Z"/><path d="M215.666 128.21s1.63-.32 1.8-.59v-.001c.18-.29.1-.68-.19-.87 -.01-.01-.02-.01-.03-.02 -.24-.15-.75-.26-1.05-.15 -.3.11-.68.26-.65.6 .02.28 1.02.31 1.02.31s-1.27-.01-1.41.26c-.17.3-.23.71.11 1.01 .24.21 1.5-.36 1.5-.36s-1.11.42-.86.91c.14.27.75.29 1.17.14 .41-.15.75-.47.76-.9 .01-.44-.26-.73-.59-.7 -.43.03-1.64.29-1.64.29Zm5.44-.95s-1.63.34-1.89.16l0 0c-.29-.2-.36-.59-.16-.87 0-.01 0-.02.01-.03 .16-.23.58-.53.9-.54 .31-.02.72-.03.82.3 .08.27-.83.68-.83.68s1.16-.5 1.4-.31c.26.21.48.57.28.97 -.15.29-1.53.25-1.53.25s1.17-.05 1.13.51c-.03.31-.59.56-1.03.59 -.44.02-.88-.14-1.05-.53 -.18-.4-.04-.77.27-.88 .4-.14 1.62-.37 1.62-.37Z"/><path d="M217.819 124.54s.34 1.65.15 1.91v0c-.19.27-.56.35-.84.16 -.02-.01-.03-.02-.04-.03 -.22-.17-.52-.6-.54-.92 -.02-.33-.03-.74.29-.84 .27-.09.67.83.67.83s-.49-1.19-.3-1.43c.21-.27.56-.49.96-.29 .29.14.25 1.55.25 1.55s-.05-1.2.51-1.16c.3.02.55.59.58 1.04 .02.44-.14.88-.52 1.06 -.39.17-.76.04-.87-.28 -.14-.42-.36-1.65-.36-1.65Z"/><g stroke-linecap="round" stroke-width=".15" stroke="#000" fill="#058E6E"><path d="M217.665 127.845c.13.7.56 1.21.94 1.13 .38-.08.58-.72.44-1.42 -.14-.71-.57-1.22-.95-1.14 -.39.07-.59.71-.45 1.41Z"/><path fill="url(#f)" d="M229.424 128.681v0c0 .3-.25.54-.55.54v0c-.31-.01-.55-.25-.55-.55 0-.01 0-.01 0-.01 0-.31.24-.55.54-.55 .29 0 .54.24.54.54Z"/><path fill="url(#g)" d="M222.55 128.74v0c0 .3-.24.54-.55.54 -.01 0-.01 0-.01 0v0c-.31-.01-.55-.25-.55-.55 0-.01 0-.01 0-.01 0-.31.24-.55.54-.55 .29 0 .54.24.54.54Z"/></g><g stroke-width=".15" stroke="#000" fill="#FFBD03" stroke-linejoin="round"><path d="M225.51 134.278c-4.37 0-8.3.56-11.12 1.47 -.2.06-.43-.09-.49-.28 -.06-.2.07-.44.26-.51 2.83-.94 6.85-1.53 11.33-1.54 4.47 0 8.51.59 11.34 1.53 .18.06.32.3.26.5 -.06.18-.3.34-.48.27 -2.82-.91-6.77-1.47-11.131-1.48Z"/><path fill="#CE1126" d="M225.508 132.975l.83-.36 -.77-.46 -.89.4Z"/><path fill="#058E6E" d="M218.356 132.792l1.55-.2 0-.001c.15-.02.29.09.31.24l0 .05v0c.02.15-.09.29-.24.31 -.01 0-.01 0-.01 0l-1.56.19h0c-.16.01-.3-.1-.32-.25l-.01-.06v0c-.03-.16.08-.3.24-.32 0-.01 0-.01 0-.01Z"/><path fill="none" fill-rule="evenodd" stroke="#000" stroke-linecap="round" stroke-linejoin="round" stroke-width=".15" d="M218.124 132.547l1.94-.25c.27-.04.51.12.54.35l.04.36c.02.22-.18.44-.45.47l-1.95.25c-.28.03-.52-.13-.55-.36l-.05-.37c-.03-.23.17-.45.44-.48Z"/><path fill="#058E6E" d="M232.442 132.766l-1.55-.2v0c-.16-.03-.3.08-.32.24 -.01 0-.01 0-.01 0l-.01.07v0c-.02.15.09.29.24.31l1.54.19c.15.02.29-.09.31-.25l.01-.08v0c.01-.16-.1-.3-.25-.32Z"/><g stroke-width=".15" fill-rule="evenodd" stroke="#000" fill="none" stroke-linejoin="round"><path d="M232.71 132.514l-1.98-.26c-.27-.04-.51.12-.54.35l-.05.36c-.03.22.16.44.42.47l1.97.25c.26.03.5-.13.53-.36l.04-.37c.02-.23-.17-.45-.43-.48Z"/><path fill="none" fill-rule="evenodd" stroke="#000" stroke-linecap="round" stroke-linejoin="round" stroke-width=".15" d="M225.51 133.423l1.69-.8 -1.58-.89 -1.78.78Z"/><path d="M228.49 132.57h-.001c-.14-.01-.24-.11-.24-.24 0-.01 0-.01 0-.01 0-.14.1-.24.23-.24h0v0c.13 0 .23.1.23.23h0c0 .13-.11.23-.24.23 -.01 0-.01 0-.01 0v0Zm0 .68v0c-.14-.01-.24-.11-.24-.24 0-.14.1-.24.23-.24h0c.12 0 .23.1.23.23h0c0 .13-.11.23-.24.23 -.01 0-.01 0-.01 0v0Zm-6.22-.65v0c-.14-.01-.24-.11-.24-.24 0-.14.1-.24.23-.24h0c.12 0 .23.1.23.23h-.001c0 .13-.11.23-.24.23v0Zm0 .67v0c-.14-.01-.24-.11-.24-.24 0-.01 0-.01 0-.01 0-.14.1-.24.23-.24h0 -.001c.13 0 .23.1.23.23h-.001c0 .12-.11.23-.24.23 -.01 0-.01 0-.01 0v0Zm-5.68.09l0 0c.12-.03.21-.15.19-.28v0c-.02-.13-.14-.22-.27-.2 -.01 0-.01 0-.01 0h-.01v0c-.13.02-.22.14-.2.27 .02.13.14.21.27.19v0Zm.1.67v-.001c.12-.03.21-.15.19-.28v0c-.02-.13-.14-.22-.27-.2 -.01 0-.01 0-.01 0h-.01 0c-.13.02-.22.14-.2.27 .02.13.14.21.26.19h0Z"/></g><path d="M211.466 121.17c3.59-1.18 8.04-1.85 13.61-1.87 5.56.01 11.21.67 14.8 1.84l-.52 2.7c-3.25-1.11-8.54-1.95-13.69-1.96 -5.15 0-11.32.87-13.9 1.92 -.03.23-.34-2.66-.34-2.66Z"/></g><path d="M238.09 119.647l-.96-1.62s-.91 1.02-2.04.85c-1.13-.18-1.44-2.08-1.44-2.08s-1.5 1.76-2.54 1.68c-1.04-.1-1.55-.88-1.55-.88s-.85.81-1.85.73c-1-.1-2.35-2.1-2.35-2.1s-.89 2.04-1.89 2.13c-1 .08-2.22-1.45-2.22-1.45s-.46 1.3-1.72 1.51c-1.27.21-2.07-1.52-2.07-1.52s-.62 1.91-1.48 2.22c-.86.3-2-.84-2-.84l-1.21 1.4 .68.77c3.1-.91 7.31-1.48 12.08-1.48 4.76 0 9.09.56 12.2 1.48l.31-.87h-.01v-.01Z"/><path d="M209.567 117.91c.65 1.31 1.59 2.55 3.06 2.247 1.46-.31 1.52-1.57 1.52-1.57s.9 1.19 1.92.94 1.34-2.01 1.34-2.01 1.11 1.51 2.3 1.38c1.18-.13 1.63-1.44 1.63-1.44s.59 1.24 1.96 1.19c1.42-.06 2.16-1.88 2.16-1.88s1 1.86 2.27 1.86c1.26-.01 1.76-1.08 1.76-1.08s.38 1.21 1.65 1.28c1.25.07 2.39-1.53 2.39-1.53s.52 1.85 1.56 2.06c1.09.21 1.98-.89 1.98-.89s.39 1.43 1.48 1.6c1.04.16 2.14-1.01 2.87-2.45 -1.14.63-1.91 1.9-2.72 1.64 -.77-.25-1.52-1.89-1.52-1.89s-1.12 1.28-2.02.97c-.89-.31-1.36-3.47-1.36-3.47s-1.33 3.31-2.56 2.97c-1.23-.34-1.82-1.92-1.82-1.92s-.48 1.73-1.79 1.79c-1.36.06-2.24-3.79-2.24-3.79s-1.12 3.83-2.18 3.8c-1.07-.03-2.07-1.78-2.07-1.78s-.34 1.86-1.54 1.81c-1.21-.06-2.88-2.84-2.88-2.84s.1 3.29-.85 3.58c-.9.27-2.51-1.39-2.51-1.39s.45 1.85-.7 2.16c-1.14.3-1.83-.93-3.22-1.51Z"/><path fill="#FFBD03" stroke="#000" stroke-linejoin="round" stroke-width=".15" d="M225.64 119.616c-5.43 0-10.3.67-13.79 1.76 -.24.07-.53-.11-.61-.33 -.08-.24.09-.52.32-.6 3.51-1.13 8.5-1.83 14.06-1.84 5.54 0 10.56.71 14.07 1.83 .23.08.39.36.32.6 -.07.22-.37.4-.6.32 -3.5-1.09-8.4-1.76-13.81-1.77Z"/><path d="M228.79 114.18s-2-.02-2.25-.31v0c-.28-.31-.27-.78.04-1.06 0-.01.01-.02.02-.03 .24-.22.81-.47 1.19-.4 .375.06.85.16.88.56 .02.34-1.14.58-1.14.58s1.48-.28 1.71.01c.25.32.41.79.08 1.21 -.25.31-1.85-.1-1.85-.1s1.38.25 1.19.9c-.11.35-.84.5-1.35.42 -.52-.09-.99-.39-1.09-.89 -.11-.51.14-.91.54-.95 .51-.06 1.99 0 1.99 0v0Zm-6.61.05s1.98.06 2.25-.22v0c.29-.3.29-.77 0-1.06 -.01-.01-.02-.02-.03-.03 -.24-.23-.81-.5-1.18-.44 -.38.05-.86.13-.91.53 -.05.34 1.11.63 1.11.63s-1.48-.34-1.72-.06c-.27.31-.45.77-.13 1.21 .23.32 1.85-.03 1.85-.03s-1.4.2-1.23.85c.09.36.81.53 1.33.47 .52-.07.99-.35 1.12-.85 .125-.51-.12-.92-.51-.97 -.51-.08-1.99-.08-1.99-.08Z"/><path d="M225.495 110.32s-.06 2.02.21 2.28c.31.3.78.28 1.05-.03 .22-.24.48-.82.43-1.2 -.06-.39-.13-.88-.53-.93 -.34-.05-.63 1.13-.63 1.13s.32-1.5.05-1.74c-.31-.27-.77-.46-1.2-.13 -.32.23.02 1.88.02 1.88s-.2-1.42-.84-1.25c-.36.09-.53.82-.47 1.35 .06.53.34 1.01.83 1.13 .49.12.89-.12.95-.52 .07-.52.07-2.02.07-2.02Z"/><path fill="#CE1126" stroke="#000" stroke-linecap="round" stroke-width=".15" d="M226.363 114.175c-.02.85-.41 1.54-.88 1.53 -.47-.01-.84-.72-.83-1.57 .01-.86.41-1.55.88-1.54 .46 0 .83.71.82 1.57Z"/><path d="M237.16 115.476s-1.95-.42-2.14-.75c-.23-.39-.09-.84.27-1.04 .28-.17.89-.29 1.24-.15 .35.14.8.33.75.73 -.04.34-1.23.34-1.23.34s1.5.03 1.67.36c.18.36.25.86-.16 1.2 -.31.25-1.8-.48-1.8-.48s1.3.53.99 1.12c-.18.32-.92.32-1.41.13 -.5-.19-.89-.58-.89-1.1 -.01-.52.32-.86.72-.82 .5.04 1.94.4 1.94.4Zm-6.49-1.29s1.93.46 2.24.24v0c.34-.23.43-.7.2-1.04 -.01-.01-.02-.02-.02-.03 -.19-.28-.69-.65-1.07-.67 -.38-.03-.87-.05-1 .33 -.11.32.96.84.96.84s-1.38-.63-1.67-.4c-.33.25-.59.67-.37 1.16 .16.36 1.81.34 1.81.34s-1.41-.09-1.37.58c.02.37.68.69 1.21.73 .52.04 1.04-.14 1.26-.61 .22-.47.07-.92-.31-1.06 -.49-.18-1.93-.48-1.93-.48v0Z"/><path d="M234.68 111.02s-.46 1.96-.25 2.28c.24.36.71.44 1.04.19 .26-.19.63-.7.66-1.09 .02-.39.04-.88-.34-1.01 -.32-.11-.84.98-.84.98s.61-1.4.39-1.7c-.25-.33-.67-.6-1.15-.37 -.36.17-.35 1.84-.35 1.84s.08-1.43-.58-1.39c-.37.02-.69.69-.73 1.23 -.05.53.13 1.06.59 1.28 .46.22.9.07 1.03-.31 .17-.49.47-1.97.47-1.97Z"/><path fill="#058E6E" stroke="#000" stroke-linecap="round" stroke-width=".15" d="M234.78 114.974c-.19.83-.71 1.43-1.17 1.32 -.46-.11-.68-.87-.5-1.71 .18-.84.7-1.44 1.16-1.33 .45.1.67.86.49 1.7Z"/><path d="M213.75 115.422s1.95-.38 2.15-.7h0c.22-.35.12-.81-.23-1.03 -.01-.01-.02-.02-.03-.02 -.28-.18-.89-.31-1.25-.18s-.81.31-.78.71c.03.34 1.22.37 1.22.37s-1.51-.01-1.69.32c-.2.36-.28.85.13 1.21 .29.26 1.8-.43 1.8-.43s-1.32.5-1.02 1.1c.16.33.9.34 1.4.17 .49-.18.9-.56.91-1.07 .01-.52-.31-.87-.7-.84 -.52.03-1.96.35-1.96.35Zm6.51-1.14s-1.95.41-2.26.19v0c-.34-.24-.42-.7-.19-1.04 0-.01.01-.02.01-.03 .19-.27.7-.63 1.08-.65 .38-.02.86-.03.98.36 .1.32-.99.82-.99.82s1.39-.6 1.67-.36c.31.25.57.68.33 1.16 -.18.35-1.83.3-1.83.3s1.4-.05 1.35.61c-.03.37-.71.67-1.23.7 -.53.03-1.05-.17-1.25-.63 -.22-.48-.05-.92.33-1.05 .48-.17 1.94-.44 1.94-.44Z"/><path d="M216.329 111.031s.41 1.97.19 2.28c-.26.36-.72.42-1.05.16 -.27-.2-.62-.72-.64-1.1 -.02-.39-.03-.88.35-1 .32-.11.8 1 .8 1s-.59-1.42-.36-1.71c.25-.32.67-.59 1.15-.35 .35.17.3 1.85.3 1.85s-.05-1.44.6-1.38c.36.03.66.71.69 1.24 .02.53-.17 1.05-.63 1.26 -.47.21-.91.04-1.03-.34 -.17-.5-.43-1.98-.43-1.98Z"/><path fill="#058E6E" stroke="#000" stroke-linecap="round" stroke-width=".15" d="M216.14 114.97c.16.84.67 1.44 1.13 1.35 .46-.1.7-.86.53-1.7 -.17-.85-.68-1.45-1.14-1.36 -.46.09-.7.85-.54 1.69Z"/><path d="M238.79 116.15s1.67 1.09 2.03 1v0c.39-.1.63-.51.53-.9 -.01-.02-.01-.03-.01-.04 -.09-.32-.44-.85-.79-1 -.35-.16-.8-.34-1.05-.02 -.21.27.63 1.125.63 1.125s-1.1-1.06-1.44-.95c-.39.125-.78.43-.73.97 .03.39 1.59.94 1.59.94s-1.3-.56-1.49.08c-.11.35.42.88.89 1.1 .48.21 1.03.22 1.38-.14 .36-.37.36-.84.06-1.1 -.4-.34-1.66-1.12-1.66-1.12Z"/><path d="M244.01 114.22c.04-.62-.16-.98-.64-.66 -.41.27-.9 1.78-.9 1.78s.55-1.32-.09-1.51c-.36-.11-.88.42-1.09.91 -.22.48-.23 1.04.13 1.41 .36.37.95.25 1.28.02 1.04-.73 1.25-1.5 1.28-1.97Z"/><path fill="#CE1126" stroke="#000" stroke-linecap="round" stroke-width=".15" d="M242.403 118.295c-.46.72-1.14 1.1-1.54.85 -.4-.26-.36-1.05.09-1.78 .45-.73 1.13-1.11 1.53-.86 .39.25.35 1.04-.1 1.77Z"/><path d="M212.08 116.12s-1.68 1.09-2.04 1v-.001c-.4-.1-.64-.51-.54-.9 0-.02 0-.03 0-.04 .08-.32.43-.85.78-1 .35-.16.8-.34 1.04-.02 .21.27-.63 1.125-.63 1.125s1.09-1.06 1.43-.95c.38.125.77.43.72.97 -.04.39-1.6.95-1.6.95s1.29-.56 1.48.08c.1.35-.42.88-.9 1.1 -.48.21-1.03.22-1.39-.14 -.37-.37-.37-.84-.06-1.1 .39-.34 1.65-1.12 1.65-1.12Z"/><path d="M206.86 114.194c-.05-.62.15-.98.63-.66 .4.27.89 1.78.89 1.78s-.56-1.32.08-1.51c.35-.11.87.42 1.08.91 .21.48.22 1.04-.14 1.41 -.36.36-.96.25-1.28.02 -1.05-.73-1.26-1.5-1.29-1.97Z"/><g stroke-linecap="round" stroke-width=".15" stroke="#000" fill="#CE1126"><path d="M208.476 118.268c.45.72 1.13 1.1 1.53.85 .39-.26.35-1.05-.1-1.78 -.46-.73-1.14-1.11-1.54-.86 -.4.25-.36 1.04.09 1.77Z"/><path fill="url(#h)" d="M237.88 117.415v-.001c0 .31-.26.57-.57.57h-.001c-.32-.01-.57-.26-.57-.58v0c-.01-.32.25-.58.56-.58h0c.31 0 .56.25.56.57Z"/><path fill="url(#i)" d="M230.2 115.97v0c0 .36-.29.65-.65.65 -.01 0-.01 0-.01 0h-.001c-.36-.01-.65-.3-.65-.66 0-.01 0-.01 0-.01v0c-.01-.36.28-.66.64-.66 0-.01 0-.01 0-.01v0c.35 0 .64.29.64.65 -.01 0-.01 0-.01 0Z"/><path fill="url(#j)" d="M221.985 116.05v0c0 .35-.29.65-.65.65 -.01 0-.01 0-.01 0h0c-.37-.01-.65-.3-.65-.66 0-.01 0-.01 0-.01 0-.37.29-.66.64-.66 .35 0 .64.29.64.65Z"/><path fill="url(#k)" d="M214.102 117.354c0 .32-.26.58-.58.58h0c-.33-.01-.59-.27-.58-.59 0-.33.26-.59.57-.59 .31 0 .57.26.57.58Z"/></g><g stroke-width=".15" stroke="#000" fill="#FFBD03" stroke-linejoin="round"><path d="M225.533 122.66c-5.23 0-9.93.68-13.29 1.76 -.23.08-.51-.11-.58-.33 -.08-.24.09-.53.31-.6 3.38-1.13 8.2-1.84 13.55-1.84 5.34 0 10.18.71 13.56 1.83 .22.07.38.36.31.6 -.07.21-.36.4-.58.32 -3.37-1.09-8.09-1.76-13.31-1.77Z"/><path fill="#CE1126" d="M225.52 121.11l.99-.43 -.92-.55 -1.06.48Z"/><path fill="#058E6E" d="M216.971 120.891l1.86-.23v0c.18-.03.35.1.38.29l0 .06v0c.02.18-.11.35-.3.37 -.01 0-.01 0-.01 0l-1.86.22v-.001c-.19.02-.36-.11-.39-.3l-.01-.07v0c-.03-.19.1-.36.29-.38 0-.01 0-.01 0-.01Z"/><path fill="none" fill-rule="evenodd" stroke="#000" stroke-linecap="round" stroke-linejoin="round" stroke-width=".15" d="M216.692 120.59l2.32-.3c.32-.05.62.14.65.41l.05.43c.03.27-.21.53-.54.57l-2.33.29c-.33.04-.63-.15-.66-.42l-.06-.44c-.04-.28.2-.53.53-.58Z"/><path fill="#058E6E" d="M233.812 120.85l-1.85-.24 0 0c-.19-.03-.36.1-.38.29 -.01 0-.01 0-.01 0l-.02.09v-.001c-.03.18.1.35.29.38l1.85.23 -.001 0c.18.02.35-.11.37-.29 0-.01 0-.01 0-.01l.01-.1v-.001c.02-.19-.11-.36-.3-.39Z"/><g stroke-width=".15" fill-rule="evenodd" stroke="#000" fill="none" stroke-linejoin="round"><path d="M234.13 120.55l-2.37-.31c-.32-.04-.61.14-.64.42l-.06.43c-.04.27.19.52.51.56l2.36.3c.31.04.6-.15.63-.43l.05-.44c.03-.28-.2-.53-.52-.57Z"/><path fill="none" fill-rule="evenodd" stroke="#000" stroke-linecap="round" stroke-linejoin="round" stroke-width=".15" d="M225.524 121.645l2.02-.95 -1.89-1.06 -2.13.93Z"/><path d="M229.097 120.63h0c-.16-.01-.29-.13-.29-.29 0-.01 0-.01 0-.01v-.001c-.01-.16.12-.29.27-.29 0-.01 0-.01 0-.01h0l-.001 0c.15 0 .28.12.28.28 -.01 0-.01 0-.01 0v0c0 .15-.13.28-.28.28 -.01 0-.01 0-.01 0v0Zm0 .81v0c-.16-.01-.29-.13-.29-.29 0-.01 0-.01 0-.01h0c-.01-.16.12-.29.27-.29 0-.01 0-.01 0-.01h0c.15 0 .28.12.28.28v-.001c0 .15-.13.28-.29.28v0Zm-7.43-.78v0c-.16-.01-.29-.13-.29-.29 0-.01 0-.01 0-.01 0-.16.125-.29.28-.29h0c.15 0 .28.12.28.28h0c0 .15-.13.28-.29.28v0Zm0 .81h0c-.16-.01-.29-.13-.29-.29 0-.01 0-.01 0-.01 0-.16.125-.29.28-.29h0v0c.15 0 .28.12.28.28 -.01 0-.01 0-.01 0l0-.001c0 .15-.13.28-.29.28v0Zm12.86 11.89v0c-.13-.03-.22-.15-.2-.28v-.001c.01-.13.13-.22.26-.2 0 0 0 0 0 0h0v-.001c.12.02.21.14.19.27v0c-.02.12-.14.21-.27.19 -.01-.01-.01-.01-.01-.01h-.01Zm-.11.67h0c-.13-.03-.22-.15-.2-.28v-.001c.01-.13.13-.22.26-.2 0 0 0 0 0 0h0v0c.12.02.21.14.19.27v0c-.02.12-.14.21-.27.19 -.01-.01-.01-.01-.01-.01v0Z"/></g><path fill="#CE1126" d="M213.933 134.529l-.52-.46 .34-.47 .94.2Z"/></g><path d="M214.26 128.8s-1.4.91-1.71.83h-.001c-.34-.09-.54-.42-.46-.75 0-.02 0-.03 0-.03 .07-.27.36-.71.65-.84 .29-.13.66-.29.87-.02 .17.22-.53.94-.53.94s.91-.89 1.2-.79c.32.1.65.36.6.81 -.04.33-1.34.79-1.34.79s1.08-.47 1.24.07c.08.29-.36.74-.76.92 -.41.18-.87.18-1.17-.12 -.31-.31-.31-.71-.05-.92 .33-.28 1.38-.94 1.38-.94Z"/><path d="M209.9 127.19c-.04-.52.13-.82.53-.55 .33.22.74 1.49.74 1.49s-.47-1.11.07-1.26c.29-.09.73.35.91.76 .18.4.18.87-.12 1.17 -.31.3-.8.2-1.08.01 -.875-.61-1.05-1.25-1.08-1.65Z"/><g stroke-linecap="round" stroke-width=".15" stroke="#000" fill="#CE1126"><path d="M211.251 130.598c.37.6.95.92 1.28.71 .33-.22.29-.88-.09-1.49s-.96-.93-1.29-.72c-.34.21-.3.87.08 1.48Z"/><path fill="url(#l)" d="M215.95 129.834v0c0 .26-.22.48-.49.49 -.01 0-.01 0-.01 0v0c-.27-.01-.49-.23-.49-.5 0-.01 0-.01 0-.01 0-.28.21-.5.48-.5 .26 0 .48.22.48.49Z"/><path fill="none" fill-rule="evenodd" stroke="#000" stroke-linecap="round" stroke-linejoin="round" stroke-width=".15" d="M214.02 135.04l1.48-1.41 -1.73-.46"/></g><g stroke-width=".15" stroke="#000" fill="#CE1126" stroke-linejoin="round"><path d="M211.68 122.968l-.62-.55 .41-.56 1.13.24Z"/><path fill="none" fill-rule="evenodd" stroke="#000" stroke-linecap="round" stroke-linejoin="round" stroke-width=".15" d="M211.78 123.57l1.77-1.69 -2.07-.55"/><path fill="none" fill-rule="evenodd" stroke="#000" stroke-linejoin="round" stroke-width=".15" d="M214.88 121.593v0c.15-.03.25-.18.23-.33v0c-.03-.16-.17-.26-.32-.24 -.01 0-.01 0-.01 0h-.01v0c-.16.02-.27.17-.24.32 .02.15.16.25.32.23l0-.01Zm.12.8l-.001 0c.15-.03.25-.18.23-.33v0c-.03-.16-.17-.26-.32-.24 -.01 0-.01 0-.01 0h-.01v0c-.16.03-.26.18-.22.33 .03.14.16.23.3.22h0Z"/></g><path d="M236.61 128.83s1.39.91 1.7.83v0c.33-.09.53-.42.45-.75 -.01-.02-.01-.03-.01-.04 -.08-.27-.37-.71-.66-.84 -.3-.13-.67-.29-.88-.02 -.18.22.52.94.52.94s-.92-.89-1.21-.79c-.33.1-.65.36-.61.81 .03.33 1.33.79 1.33.79s-1.09-.47-1.25.07c-.09.29.35.74.75.92 .4.18.86.18 1.16-.12 .3-.31.3-.71.05-.92 -.33-.28-1.39-.94-1.39-.94Z"/><path d="M240.977 127.214c.03-.52-.14-.82-.54-.55 -.34.22-.75 1.49-.75 1.49s.46-1.11-.07-1.26c-.3-.09-.74.35-.92.76 -.18.4-.19.875.11 1.18 .3.3.79.2 1.07.01 .87-.61 1.05-1.25 1.07-1.65Z"/><path fill="none" fill-rule="evenodd" stroke="#000" stroke-linejoin="round" stroke-width=".15" d="M239.36 123.65l-1.66-1.71 2.01-.59"/><g stroke-width=".15" stroke="#000" fill="#CE1126" stroke-linejoin="round"><path d="M239.44 122.97l.69-.42 -.45-.65 -1.1.22Z"/><path fill="none" fill-rule="evenodd" stroke="#000" stroke-linejoin="round" stroke-width=".15" d="M236.315 121.59v-.001c-.16-.04-.26-.19-.22-.34 .03-.15.16-.24.3-.23h0v0c.15.03.25.18.21.33 -.04.14-.17.23-.31.22v0Zm-.13.8v0c-.16-.03-.26-.18-.24-.33v-.001c.02-.16.16-.26.32-.24 0 0 0 0 0 0v0c.15.03.25.18.21.33 -.04.14-.17.23-.31.22h-.01Zm.9 12.71l-1.39-1.43 1.68-.49"/><path d="M237.157 134.532l.58-.36 -.38-.54 -.92.19Z"/></g><g stroke-linecap="round" stroke-width=".15" stroke="#000" fill="#CE1126"><path d="M239.628 130.62c-.38.6-.96.92-1.29.71 -.34-.22-.3-.88.08-1.49 .37-.61.95-.93 1.28-.72 .33.21.29.87-.09 1.48Z"/><path fill="url(#m)" d="M235.85 129.88v0c0 .26-.21.47-.48.47h0c-.27-.01-.48-.22-.48-.48 0-.01 0-.01 0-.01 0-.27.21-.48.47-.48s.47.21.47.48Z"/><path fill="#FFBD03" stroke="#000" stroke-linecap="round" stroke-linejoin="round" stroke-width=".15" d="M225.5 91.651c-.63 0-1.18.06-1.69.25 -.15.47-.12 1.1 0 1.66 .42-.21 1.24-.27 1.68-.27 .43 0 1.25.05 1.68.26 .11-.56.14-1.19 0-1.67 -.51-.19-1.06-.26-1.69-.26Z"/></g><path d="M189.63 115.019v0c.76.05 1.36.67 1.41 1.43l-.3-.31c-1.14.28-2.56 1.73-2.84 2.88l.3.3c-.78-.01-1.43-.67-1.42-1.44 .61-1.49 1.41-2.21 2.83-2.88Z"/><g stroke-linecap="round" stroke-width=".15" stroke="#000" fill="#FFBD03" stroke-linejoin="round"><path d="M194.4 114.19v0c.04.01.08.05.1.1v0c.01.04.01.1-.01.14 -.33.73-.75 1.42-1.56 1.64v0c-.07.02-.14 0-.19-.04l0 0c-.08-.07-.08-.19-.01-.26 .02-.03.06-.05.09-.06 .65-.18 1-.74 1.31-1.45v-.001c.03-.09.13-.14.22-.1v0Z"/><path d="M194.64 114.391h-.001c.09.02.15.12.13.21 -.01.01-.01.02-.02.03 -.33.74-.79 1.41-1.45 1.91v0c-.08.06-.19.05-.26-.02 -.03-.03-.04-.07-.05-.11v0c-.01-.07.02-.14.08-.17 .6-.45 1.02-1.07 1.33-1.77v0c.03-.09.12-.13.2-.11Z"/><path d="M194.88 114.65v0c.09.02.15.12.13.21 -.01.01-.01.02-.02.03 -.32.72-.73 1.51-1.39 2l-.001 0c-.08.06-.2.05-.26-.03 -.07-.08-.06-.2.02-.26 0-.01 0-.01 0-.01 .57-.43.96-1.16 1.27-1.87v-.001c.03-.09.12-.13.21-.11v0Zm.51.55v0c.09.03.14.13.11.22 -.01 0-.01.01-.01.01 -.33.73-.77 1.51-1.36 2.05v0c-.08.06-.19.06-.26-.02s-.07-.19.01-.26c.52-.48.96-1.22 1.27-1.93h-.001c.03-.09.13-.13.22-.1Z"/><path d="M195.14 114.935v0c.09.02.15.11.13.21 -.01.01-.01.02-.02.03 -.17.37-.38.76-.66 1.05 -.28.29-.65.49-1.07.4v0c-.1-.03-.16-.12-.14-.22 .02-.1.11-.16.21-.14 .27.05.49-.06.72-.3 .23-.24.43-.6.58-.95v-.001c.03-.09.11-.13.2-.11v0Zm.48.54h0c.09.02.15.11.13.21 -.01.01-.01.02-.02.03 -.33.73-.76 1.39-1.57 1.85h0c-.09.04-.2.01-.25-.07 -.05-.09-.02-.2.06-.25 .73-.42 1.1-.99 1.41-1.69h0c.03-.09.12-.13.2-.11Z"/><path d="M195.871 115.738v0c.04.01.08.05.1.1v0c.01.04.01.1-.01.14 -.33.73-.76 1.39-1.57 1.85v0c-.09.04-.2.01-.25-.07v0c-.05-.09-.02-.2.06-.25 .73-.42 1.1-.99 1.41-1.69h-.001c.03-.09.13-.14.22-.11v0Z"/><path d="M196.137 115.99v0c.04.01.08.05.1.1v0c.01.04.01.1-.01.14 -.33.75-.83 1.33-1.63 1.79h-.001c-.09.04-.2.01-.25-.07 -.05-.09-.02-.2.06-.25 .74-.43 1.17-.93 1.47-1.63v0c.03-.09.13-.14.22-.11v0Z"/><path d="M196.427 116.29v0c.04.01.08.05.1.1v-.001c.01.04.01.1-.01.14 -.33.75-.8 1.2-1.59 1.66v0c-.09.04-.2.01-.25-.07 -.01-.01-.01-.01-.01-.01v-.001c-.05-.09-.02-.2.06-.25 0-.01 0-.01 0-.01 .75-.43 1.13-.81 1.43-1.5v0c.03-.09.13-.13.22-.1v0Z"/><path d="M196.67 116.483v0c.09.03.14.13.11.22 -.01 0-.01.01-.01.01 -.33.73-.71 1.41-1.52 1.64l-.001 0c-.1.02-.2-.03-.23-.13s.02-.2.12-.23c.66-.19.97-.73 1.28-1.44v0c.03-.09.13-.13.22-.1Z"/><path d="M196.945 116.751v0c.09.03.14.13.11.22 -.01 0-.01.01-.01.01 -.32.71-.62 1.46-1.44 1.93v0c-.09.04-.2.01-.25-.07 -.05-.09-.02-.2.06-.25 .71-.41.97-1.05 1.28-1.77v0c.03-.09.13-.13.22-.1Z"/><path d="M197.21 117.004v0c.09.03.14.13.11.22 -.01 0-.01.01-.01.01 -.33.73-.76 1.41-1.49 1.91v0c-.06.04-.13.05-.19.02v0c-.07-.03-.11-.09-.11-.16v0c-.01-.07.03-.14.09-.17 .66-.45 1.05-1.06 1.36-1.76v0c.03-.09.13-.13.22-.1v0Z"/><path d="M197.48 117.27v0c.04.01.08.05.1.09l0-.001c.02.04.02.09-.01.14 -.33.73-.76 1.39-1.57 1.85l-.001 0c-.09.04-.2.01-.25-.07 -.01-.01-.01-.01-.01-.01v0c-.05-.09-.02-.2.06-.25 0-.01 0-.01 0-.01 .73-.42 1.1-.99 1.41-1.69v0c.03-.09.13-.14.22-.1v0Z"/><path d="M197.74 117.554v0c.04.01.08.05.1.1v0c.01.04.01.1-.01.14 -.33.73-.75 1.42-1.56 1.64v0c-.07.02-.14 0-.19-.04v0c-.08-.07-.08-.19-.01-.26 .02-.03.06-.05.09-.06 .65-.18 1-.74 1.31-1.45v0c.03-.09.13-.13.22-.1Z"/><path d="M197.99 117.752l-.001-.001c.09.02.15.11.13.21 -.01.01-.01.02-.02.03 -.33.74-.79 1.41-1.45 1.91v0c-.08.06-.19.05-.26-.02 -.03-.03-.04-.07-.05-.1v0c-.01-.07.02-.14.08-.17 .6-.45 1.02-1.07 1.33-1.77v0c.03-.09.12-.13.2-.11Z"/><path d="M198.22 118.013v0c.09.02.15.12.13.21 -.01.01-.01.02-.02.03 -.32.73-.73 1.51-1.39 2v0c-.08.06-.19.05-.26-.02 -.03-.03-.04-.07-.05-.11v0c-.01-.07.02-.14.08-.17 .56-.43.96-1.16 1.27-1.87l0-.001c.03-.09.12-.13.2-.11v0Zm.51.55v0c.09.03.14.13.11.22 -.01 0-.01.01-.01.01 -.33.73-.77 1.51-1.36 2.05v-.001c-.08.06-.2.05-.26-.03 -.07-.08-.06-.18.01-.25 .52-.48.96-1.22 1.27-1.93v-.001c.03-.09.13-.13.22-.1Z"/><path d="M198.51 118.238v0c.09.02.15.11.13.21 -.01.01-.01.02-.02.03 -.17.37-.38.76-.66 1.05 -.28.29-.65.49-1.07.4v0c-.1-.03-.16-.12-.14-.22 .02-.1.11-.16.21-.14 .27.05.49-.06.72-.3 .23-.24.43-.6.58-.95v-.001c.03-.09.11-.13.2-.11v0Z"/><path fill="#FFF" d="M206.31 114.91l-4.7-4.57c.31.29.6.68.85 1.16 3.69 7.15-1.99 27.49 4.23 32.586l4.67 4.54c-6.22-5.09-.54-25.44-4.24-32.59v-.001c-.22-.43-.5-.81-.83-1.14v0Z"/><path d="M201.95 110.71c.18.23.36.49.51.8 3.67 7.12-1.95 27.33 4.15 32.52 -5.2-5.93-.05-25.09-3.61-31.98l-.001 0c-.22-.43-.5-.81-.83-1.14v-.001c-.08-.08-.16-.15-.25-.21Z"/></g><path d="M205.55 125.17l-.01 2.33 -.94-.88 -.05 2.2 .92.41c-.04 1.28-.22 2.6-.19 3.94l1.1.75c-.06-1.37-.14-2.76-.08-4.13l1.04.93c.02-.78.04-1.52.06-2.23l-1.06-.46c.02-.76.12-1.47.26-2.16l-1.11-.77v0Z"/><g stroke-linecap="round" stroke-width=".15" stroke="#000" fill="#FFBD03" stroke-linejoin="round"><path d="M206.553 115.48c3.56 6.89-1.6 26.05 3.6 31.98l.55.54c-5.16-5.96-.03-25.07-3.59-31.96v0c-.22-.43-.5-.81-.83-1.14 -.96-1.03.01.14.24.57Z"/><path fill="#FFF" d="M206.311 114.91l-4.7-4.57c-2.19-2.06-5.81-.05-7.44 3.89l4.67 4.54c1.64-3.96 5.28-5.97 7.46-3.88Z"/><path d="M203.61 113.507c-1.97.03-4.18 1.87-5.36 4.71l.58.57c1.57-3.8 4.97-5.79 7.17-4.12v0c-.07-.08-.13-.15-.2-.23l-.07-.07 -.05-.05c-.01-.01-.02-.01-.02-.02v-.001c-.56-.55-1.32-.85-2.1-.83Zm-4.11-3.97c-1.96.04-4.16 1.88-5.34 4.71l.55.54c1.64-3.96 5.27-5.96 7.45-3.87l-.58-.57v-.001c-.57-.55-1.33-.85-2.11-.82Zm56.96 4.65v-.001c-.1.03-.15.13-.12.22 0 0 0 .01 0 .01 .32.73.74 1.42 1.55 1.64v0c.06.02.13 0 .18-.04v0c.04-.05.06-.12.04-.19v0c-.03-.07-.08-.12-.15-.125 -.66-.18-1.01-.74-1.32-1.45v0c-.04-.09-.14-.14-.23-.1v0Z"/><path d="M256.22 114.391v0c-.06.01-.1.04-.12.09v0c-.03.04-.03.1-.01.15 .32.74.78 1.41 1.44 1.91v0c.07.05.19.04.25-.04 .05-.08.04-.2-.04-.26 -.61-.45-1.03-1.07-1.34-1.77v-.001c-.04-.09-.13-.13-.21-.11Z"/><path d="M255.99 114.65v-.001c-.06.01-.1.04-.12.09l0 0c-.03.04-.03.1-.01.15 .32.72.72 1.51 1.38 2v0c.07.06.19.05.25-.03s.05-.2-.03-.26c-.01-.01-.01-.01-.01-.01 -.57-.43-.97-1.16-1.28-1.87v0c-.04-.09-.13-.13-.21-.11v0Zm-.52.55v0c-.05.01-.09.05-.11.09v-.001c-.03.04-.03.09 0 .14 .32.73.76 1.51 1.35 2.05v-.001c.07.06.19.05.25-.03s.05-.18-.02-.25c-.53-.48-.97-1.22-1.28-1.93v0c-.04-.09-.14-.13-.23-.1Z"/><path d="M255.735 114.935l-.001 0c-.1.02-.16.11-.14.21 0 .01 0 .02.01.03 .16.37.37.76.65 1.05 .27.29.64.49 1.06.4v0c.09-.02.16-.12.14-.22 -.02-.1-.12-.17-.22-.15 -.01 0-.01 0-.01 0 -.27.05-.5-.06-.73-.3 -.24-.24-.44-.6-.59-.95h0c-.04-.09-.12-.13-.21-.11v0Zm-.49.54h-.001c-.1.02-.16.11-.14.21 0 .01 0 .02.01.03 .32.73.75 1.39 1.56 1.85v0c.08.04.19.01.24-.07v0c.04-.09.01-.2-.07-.25 -.01-.01-.01-.01-.01-.01 -.74-.42-1.11-.99-1.42-1.69h0c-.04-.09-.13-.13-.21-.11Z"/><path d="M255 115.738v0c-.05.01-.09.05-.11.1v0c-.03.04-.02.1 0 .14 .32.73.75 1.39 1.56 1.85v0c.08.04.19.01.24-.07v0c.04-.09.01-.2-.07-.25 -.74-.42-1.11-.99-1.42-1.69h0c-.04-.09-.14-.14-.23-.11v0Z"/><path d="M254.74 115.99v0c-.1.03-.15.13-.12.22 0 0 0 .01 0 .01 .32.75.83 1.33 1.62 1.79v0c.08.04.19.01.24-.07v0c.04-.09.01-.2-.07-.25 -.01-.01-.01-.01-.01-.01 -.75-.43-1.18-.93-1.48-1.63v0c-.04-.09-.14-.14-.23-.11v0Z"/><path d="M254.45 116.29v-.001c-.05.01-.09.05-.11.1v0c-.02.04-.02.1 0 .14 .33.75.79 1.2 1.58 1.66h0c.08.04.19.01.24-.07 0-.01 0-.01 0-.01v0c.04-.09.01-.2-.07-.25 -.01-.01-.01-.01-.01-.01 -.76-.43-1.14-.81-1.44-1.5v0c-.04-.09-.14-.13-.23-.1v0Z"/><path d="M254.19 116.483v0c-.1.03-.15.13-.12.22 0 0 0 .01 0 .01 .32.73.71 1.41 1.51 1.64v0c.09.02.19-.03.22-.13 .02-.1-.03-.2-.13-.23 -.66-.19-.98-.73-1.29-1.44v0c-.04-.09-.14-.13-.23-.1Z"/><path d="M253.933 116.751v0c-.1.03-.15.13-.12.22 0 0 0 .01 0 .01 .31.71.61 1.46 1.43 1.93v0c.08.04.19.01.24-.07 .04-.09.01-.2-.07-.25 -.72-.41-.98-1.05-1.29-1.77v0c-.04-.09-.14-.13-.23-.1Z"/><path d="M253.664 117.004v0c-.1.03-.15.13-.12.22 0 0 0 .01 0 .01 .32.73.75 1.41 1.48 1.91v0c.05.04.12.05.18.02v0c.06-.03.1-.09.1-.16h0c0-.07-.04-.14-.1-.17 -.67-.45-1.06-1.06-1.37-1.76v-.001c-.04-.09-.14-.13-.23-.1v0Z"/><path d="M253.39 117.27v0c-.1.03-.15.13-.12.22 0 0 0 .01 0 .01 .32.73.75 1.39 1.56 1.85v-.001c.08.04.19.01.24-.07 .04-.09.01-.2-.07-.25 -.74-.42-1.11-.99-1.42-1.69v-.001c-.04-.09-.14-.14-.23-.1v0Z"/><path d="M253.13 117.55v0c-.1.03-.15.13-.12.22 0 0 0 .01 0 .01 .32.73.74 1.42 1.55 1.64v0c.06.02.13 0 .18-.04v0c.07-.07.07-.19 0-.26 -.03-.03-.07-.05-.1-.06 -.66-.18-1.01-.74-1.32-1.45v0c-.04-.09-.14-.14-.23-.1Z"/><path d="M252.888 117.752h-.001c-.1.02-.16.11-.14.21 0 .01 0 .02.01.03 .32.74.78 1.41 1.44 1.91l-.001-.001c.07.06.18.05.25-.02 .06-.08.05-.19-.02-.26 -.01-.01-.02-.02-.02-.02 -.61-.45-1.03-1.07-1.34-1.77v0c-.04-.09-.13-.13-.21-.11Z"/><path d="M252.653 118.013v0c-.1.02-.16.12-.14.21 0 .01 0 .02.01.03 .32.73.72 1.51 1.38 2h-.001c.07.06.18.05.25-.02 .02-.03.03-.07.04-.11v0c0-.07-.03-.14-.09-.17 -.57-.43-.97-1.16-1.28-1.87v0c-.04-.09-.13-.13-.21-.11v0Zm-.52.55h-.001c-.05.01-.09.05-.11.09v0c-.03.04-.03.09 0 .14 .32.73.76 1.51 1.35 2.05v0c.07.06.18.06.25-.02 .06-.08.06-.19-.02-.26 -.53-.48-.97-1.22-1.28-1.93v-.001c-.04-.09-.14-.13-.23-.1Z"/><path d="M252.365 118.238h0c-.1.02-.16.11-.14.21 0 .01 0 .02.01.03 .16.37.37.76.65 1.05 .27.29.64.49 1.06.4v0c.09-.03.15-.12.13-.22 -.03-.1-.12-.16-.22-.14 -.27.05-.5-.06-.73-.3 -.23-.24-.44-.6-.59-.95v0c-.04-.09-.12-.13-.21-.11v0Z"/><path fill="#FFF" d="M244.56 114.91l4.69-4.57 0-.001c-.35.33-.64.72-.86 1.16 -3.7 7.15 1.98 27.49-4.23 32.58l-4.67 4.54c6.21-5.09.53-25.44 4.23-32.59 .24-.47.52-.85.82-1.14v0Z"/></g><path d="M245.324 125.17l0 2.33 .93-.88 .04 2.2 -.93.41c.03 1.28.21 2.6.18 3.94l-1.11.75c.05-1.37.13-2.76.07-4.13l-1.05.93c-.03-.78-.05-1.52-.07-2.23l1.05-.46v0c-.03-.73-.12-1.45-.27-2.16l1.1-.77v0Z"/><g stroke-linecap="round" stroke-width=".15" stroke="#000" fill="#FFBD03" stroke-linejoin="round"><path d="M248.92 110.71c-.19.23-.36.49-.52.8 -3.68 7.12 1.94 27.33-4.16 32.52 5.19-5.93.04-25.09 3.6-31.98 .24-.47.52-.85.82-1.14 .07-.08.16-.15.24-.21Zm-4.61 4.76c-3.56 6.89 1.59 26.05-3.61 31.98l-.56.54c5.15-5.96.02-25.07 3.58-31.96 .24-.47.52-.85.82-1.14 .95-1.03-.01.14-.25.57Z"/><path fill="#FFF" d="M244.56 114.91l4.69-4.57c2.18-2.06 5.8-.05 7.44 3.89l-4.67 4.54c-1.65-3.96-5.29-5.97-7.47-3.88Z"/><path d="M247.26 113.507c1.96.03 4.17 1.87 5.35 4.71l-.59.57c-1.58-3.8-4.98-5.79-7.18-4.12 .06-.08.12-.16.19-.23l.06-.07 .04-.05c0-.01.01-.01.01-.02v-.001c.55-.55 1.31-.85 2.09-.83Zm4.1-3.97c1.95.04 4.15 1.88 5.33 4.71l-.56.54c-1.65-3.96-5.28-5.96-7.46-3.87l.57-.57 0 0c.56-.55 1.32-.85 2.1-.82Z"/></g><path d="M202.03 111.046c-.72-.09-1.1.12-1.67.32l-.55-.96c-.65.05-1.65.56-2.06 1 .47.21.94.4 1.36.72 -1.17.82-2.4 1.77-3.06 2.66l1.5 1.47c.56-1.27 1.33-2.503 2.4-3.34 .35.31.55.7.8 1.06v0c.58-.5 1.31-.81 2.07-.88 -.44-.35-1.12-.74-1.62-.98 .51-.18 1.13-.3 2.08.12l-1.34-1.26v0Zm46.81 0c.71-.09 1.09.12 1.66.32l.54-.96c.64.05 1.64.56 2.05 1 -.48.21-.95.4-1.37.72 1.16.82 2.39 1.77 3.05 2.66l-1.51 1.47c-.57-1.27-1.34-2.503-2.41-3.34 -.36.31-.56.7-.81 1.06v0c-.59-.5-1.32-.81-2.08-.88 .43-.35 1.11-.74 1.61-.98 -.52-.18-1.14-.3-2.09.12l1.33-1.26v0Z"/></g></svg>