<svg viewBox="0 0 301 151" xmlns="http://www.w3.org/2000/svg"><path fill="#DB161B" d="M.5.5h300v150H.5Z"/><path fill="#FFF" d="M75.5.5h225v50h-225Z"/><path fill="#008000" d="M75.5 100.5h225v50h-225Z"/><g stroke-width=".142" fill="#FFF" stroke="#DB161B"><path d="M17.767 26.16h8.06c.44 0 .8.33.8.75v3.79c0 .41-.36.75-.81.75h-8.06c-.45 0-.81-.34-.81-.76v-3.8c0-.42.36-.76.8-.76Z"/><path stroke-width=".132" d="M17.974 26.38h7.64c.42 0 .76.3.76.69v3.48c0 .38-.35.69-.77.69h-7.65c-.43 0-.77-.31-.77-.7v-3.48c0-.39.34-.7.76-.7Z"/><path stroke-width=".083" d="M21.476 27.708l.46.01 .02.21 .37.19 .29-.24 .35.19 -.34.21 .08.29 .42-.02v.38l-.34-.02 -.17.24 .37.27 -.3.22 -.32-.25 -.47.09 .02.35 -.51.03 -.07-.34 -.43-.18 -.24.24 -.36-.18 .21-.28 -.26-.18h-.36l-.03-.5 .35.03 .25-.29 -.3-.23 .37-.26 .27.21 .46-.07Z"/><path stroke-width=".5" d="M21.61 27.755a1 1 0 1 0 0 2 1 1 0 1 0 0-2Z"/><path stroke-width=".132" d="M18.451 26.603l-.75.66m1.24-.67l-.75.66m1.23-.67l-.75.66m1.23-.67l-.75.66m1.24-.67l-.75.66m1.23-.67l-.75.66m1.24-.67l-.75.66m1.23-.67l-.75.66m1.24-.67l-.75.66m1.24-.67l-.75.66m1.23-.67l-.75.66m1.24-.67l-.75.66m-1.24-.67l-.75.66m3.22-.67l-.75.66m1.24-.67l-.75.66m1.24-.67l-.75.66m1.23-.67l-.75.66m0-.67l.74.66m-1.24-.67l.74.66m-1.24-.67l.74.66m-1.24-.67l.74.66m-1.24-.67l.74.66m-1.24-.67l.74.66m-1.24-.67l.74.66m-1.24-.67l.74.66m-1.25-.67l.74.66m-1.24-.67l.74.66m-1.24-.67l.74.66m-1.24-.67l.74.66m1.24-.67l.74.66m-3.23-.67l.74.66m-1.24-.67l.74.66m-1.24-.67l.74.66m-1.24-.67l.74.66m0 3.09l-.75.66m1.24-.67l-.75.66m1.23-.67l-.75.66m1.23-.67l-.75.66m1.24-.67l-.75.66m1.23-.67l-.75.66m1.24-.67l-.75.66m1.23-.67l-.75.66m1.24-.67l-.75.66m1.24-.67l-.75.66m1.23-.67l-.75.66m1.24-.67l-.75.66m-1.24-.67l-.75.66m3.22-.67l-.75.66m1.24-.67l-.75.66m1.24-.67l-.75.66m1.23-.67l-.75.66m0-.67l.74.66m-1.24-.67l.74.66m-1.24-.67l.74.66m-1.24-.67l.74.66m-1.24-.67l.74.66m-1.24-.67l.74.66m-1.24-.67l.74.66m-1.24-.67l.74.66m-1.25-.67l.74.66m-1.24-.67l.74.66m-1.24-.67l.74.66m-1.24-.67l.74.66m1.24-.67l.74.66m-3.23-.67l.74.66m-1.24-.67l.74.66m-1.24-.67l.74.66m-1.24-.67l.74.66"/><path d="M58.23 26.16h-8.06c-.45 0-.81.33-.81.75v3.79c0 .41.36.75.8.75h8.06c.44 0 .8-.34.8-.76v-3.8c-.01-.42-.37-.76-.81-.76Z"/><path stroke-width=".132" d="M58.026 26.38h-7.65c-.43 0-.77.3-.77.69v3.48c0 .38.34.69.76.69h7.64c.42 0 .76-.31.76-.7v-3.48c0-.39-.35-.7-.77-.7Z"/><path stroke-width=".083" d="M54.524 27.708l-.47.01 -.03.21 -.38.19 -.3-.24 -.36.19 .33.21 -.09.29 -.43-.02v.38l.33-.02 .16.24 -.38.27 .29.22 .31-.25 .46.09 -.03.35 .5.03 .06-.34 .42-.18 .23.24 .35-.18 -.21-.28 .25-.18h.35l.02-.5 -.36.03 -.26-.29 .29-.23 -.38-.26 -.28.21 -.47-.07Z"/><path stroke-width=".5" d="M54.38 27.755a1 1 0 1 0 0 2 1 1 0 1 0 0-2Z"/><path stroke-width=".132" d="M57.55 26.603l.74.66m-1.24-.67l.74.66m-1.24-.67l.74.66m-1.24-.67l.74.66m-1.24-.67l.74.66m-1.24-.67l.74.66m-1.25-.67l.74.66m-1.24-.67l.74.66m-1.24-.67l.74.66m-1.24-.67l.74.66m-1.24-.67l.74.66m-1.24-.67l.74.66m1.23-.67l.74.66m-3.23-.67l.74.66m-1.24-.67l.74.66m-1.24-.67l.74.66m-1.24-.67l.74.66m-.001-.67l-.75.66m1.23-.67l-.75.66m1.24-.67l-.75.66m1.24-.67l-.75.66m1.24-.67l-.75.66m1.23-.67l-.75.66m1.24-.67l-.75.66m1.24-.67l-.75.66m1.23-.67l-.75.66m1.24-.67l-.75.66m1.23-.67l-.75.66m1.24-.67l-.75.66m-1.24-.67l-.75.66m3.22-.67l-.75.66m1.23-.67l-.75.66m1.24-.67l-.75.66m1.24-.67l-.75.66m-.001 3.09l.74.66m-1.24-.67l.74.66M56.29 30l.74.66m-1.24-.67l.74.66m-1.24-.67l.74.66m-1.24-.67l.74.66m-1.25-.67l.74.66m-1.24-.67l.74.66m-1.24-.67l.74.66m-1.24-.67l.74.66m-1.24-.67l.74.66m-1.24-.67l.74.66m1.23-.67l.74.66m-3.23-.67l.74.66m-1.24-.67l.74.66m-1.24-.67l.74.66m-1.24-.67l.74.66m-.001-.67l-.75.66m1.23-.67l-.75.66m1.24-.67l-.75.66m1.24-.67l-.75.66m1.24-.67l-.75.66m1.23-.67l-.75.66m1.24-.67l-.75.66m1.24-.67l-.75.66m1.23-.67l-.75.66m1.24-.67l-.75.66m1.23-.67l-.75.66m1.24-.67l-.75.66m-1.24-.67l-.75.66m3.22-.67l-.75.66m1.23-.67l-.75.66m1.24-.67l-.75.66m1.24-.67l-.75.66"/><path stroke-width=".212" d="M32.12 37.28C20.09 49.042 14.96 50.53 17.36 51.478c2.4.94 10.154-5.13 18.21-13.19 8.06-8.07 12.99-15.24 10.58-16.187 -2.41-.95-1.26 2.66-14.05 15.17Z"/><g stroke-width=".165"><path d="M22 45.827l4.21 1.1c-3.965 3.75-8.427 5.305-9.666 4.64 -1.24-.67 2.23-2.21 5.45-5.75v0Z"/><path d="M22 46.27l3.47.88c-3.87 3.61-7.69 4.64-8.68 4.2 -1-.45 2.064-1.69 5.2-5.09Z"/><path fill="none" fill-rule="evenodd" stroke="#DB161B" stroke-width=".165" d="M34.94 36.76c-.01.05-.04.31-.07.41 0 .14-.02.24-.03.35 -.04.09-.04.18-.16.21l0 0c-.06.09-.15.15-.25.19v0c-.1.06-.21.12-.31.16v-.001c-.12.04-.25.05-.37.02 -.11-.07-.19-.14-.28-.19 -.03-.09-.04-.22-.07-.3 .03.08.05.22.06.35 -.02.13-.07.19-.13.3m.43.29v0c-.02-.01-.03-.02-.03-.03 .07.06.04.03-.125-.06v0c-.13-.06-.27-.1-.4-.11h-.43c-.17 0-.28.02-.4.05 -.09.07-.22.12-.31.19v0c-.09.05-.15.12-.19.21 -.09.07-.14.19-.22.24 -.04.125-.11.12-.16.21 .14.01.26.02.33.1 .13.06-.11-.06-.16-.11 -.11-.03-.13-.06-.28-.06 -.14-.04-.23.03-.37.05 -.09.04-.11.05-.22.05m1.26.57c-.07 0-.35.05-.47 0h0c-.12-.03-.22-.1-.28-.2 -.04-.08 0 .13 0 .22 -.02.16-.07.16-.16.27 -.09.05-.19.12-.28.16h0c-.09.06-.18.1-.28.13 -.1.03-.21.07-.28.13 -.11.06-.1.14-.16.24 .01.13.03.21.12.27 .03.09.11.18.18.24 .07.125.16.18-.04.21 -.11.04-.17 0-.28 0m-.07.19v-.001c-.16-.04-.32-.09-.47-.14h-.43c-.17.01-.2.05-.34.1l-.001 0c-.08.08-.18.14-.28.19 -.07.07-.2.2-.25.3h-.001c-.05.11-.07.23-.07.35 0 .15.05.18.06.32 .03.11.09.22.18.32 .01.03.02.04.06.05m.04.35c-.02 0-.05.07-.09.13 -.1.1-.11.1-.27.1 -.14-.01-.13-.06-.22-.09 -.05-.07-.11-.13-.16-.22 -.04-.06-.07-.15-.11-.2 -.04-.07-.09-.12-.14-.18 -.04-.02-.06-.04-.11-.05 .125.02.13.06.21.12 .03.06.07.125.11.19 .01.09.04.16.04.28 0 .11 0 .2-.05.3 -.06.05-.09.11-.16.15v0c-.06.05-.11.1-.16.17 -.07.04-.12.07-.2.13 -.07.03-.14.07-.24.08 -.13-.01-.17-.05-.27-.09 -.09-.06-.15-.1-.22-.15v0c-.06-.05-.12-.11-.16-.18 -.12-.03-.2-.02-.27.04v0c-.06.04-.12.09-.16.15 -.04.01-.1.07-.14.08m.25.05c.03.01.16.1.21.13 .03.11.09.17.1.29 .03.11.02.24.02.37 -.03.13-.09.23-.14.34 -.09.06-.13.1-.25.16l-.001 0c-.12.01-.24.02-.36.02 -.09.02-.25.04-.33 0 -.12-.02-.22-.07-.3-.11 -.11-.06-.17-.11-.28-.17 -.06-.08-.14-.15-.22-.25 -.07-.09-.12-.14-.17-.24 .04.11.1.21.13.32 .06.11.09.15.1.29 .03.11.02.24.02.375 -.02.08-.02.25-.06.32v.08m-2.58.42v.04c0-.11-.01-.06.04.15 .08.09.27.11.43.07 .14-.11.13-.19.39-.24 .24.01.34.08.48.15 .16.07.24.11.35.27 .05.13.08.22-.09.27v0c-.15.08-.32.14-.49.15 -.21 0-.35-.03-.44.07 -.14.12-.14.2-.14.42 -.05.07-.06.27-.09.35v0c-.13.05-.26.08-.4.07 -.05-.12-.1-.34-.14-.47 -.04-.14-.05-.34-.14-.43l0 0c-.09-.11-.19-.21-.31-.28h-.001c-.08-.08-.17-.13-.27-.16 .17.07.19.16.21.35 -.16.06-.2.11-.44.11 -.25-.02-.3-.08-.4-.2 -.02.19-.09.26-.14.43 -.09.11-.13.23-.22.38 .03.19.12.19.13.43 .05.15.05.29.17.39 .05.06.09.07.21.07 -.26 0-.41-.03-.57-.12 -.13-.07-.23-.16-.35-.24v0c-.17-.11-.34-.19-.53-.24 -.21 0-.35-.02-.44.07 -.13.08-.21.21-.27.39 -.04.2-.06.33.04.46 .07.15.09.21 0 .39 -.11.12-.26.14-.49.19h-.001c-.15-.01-.3-.04-.44-.08"/></g><path stroke-width=".168" d="M45.853 26.665c5.33-9.22 8.88-17.055 7.9-17.51 -.98-.45-6.1 6.66-11.43 15.88l3.52 1.62Z"/><path stroke-width=".147" d="M45.5 26.502c5.14-8.889 8.695-16.393 7.91-16.752 -.78-.36-5.59 6.564-10.738 15.45"/><g stroke-width=".167"><path d="M44.615 21.865c-.63 1.03-1.29 2.22-1.94 3.33l2.82 1.29c.64-1.12 1.34-2.282 1.93-3.34l-2.82-1.3Z"/><path d="M44.85 22.224c-.625 1.03-1.07 1.83-1.71 2.94l2.11.97c.64-1.12 1.12-1.89 1.7-2.95l-2.12-.98Z"/></g><path stroke-width=".168" d="M46.38 23.427l-1.41-.65 -1.26 2.16 1.4.64Z"/><path stroke-width=".167" d="M46.38 23.428l-2.66 1.51m1.4.64l-.16-2.81m7.78-10.35l-1.41-.65"/><path fill="#DB161B" stroke-width=".5" d="M52.685 10.03a1 1 0 1 0 0 2 1 1 0 1 0 0-2Z" transform="rotate(-104.406 52.685 11.038)"/><path stroke-width=".212" d="M43.873 37.28c12.02 11.762 17.159 13.25 14.75 14.198 -2.41.94-10.16-5.13-18.214-13.19 -8.06-8.07-13-15.24-10.587-16.187 2.407-.95 1.25 2.66 14.05 15.17Z"/><g stroke-width=".165"><path d="M53.99 45.827l-4.22 1.1c3.96 3.75 8.427 5.305 9.66 4.64 1.23-.67-2.24-2.21-5.46-5.75v0Z"/><path d="M53.99 46.27l-3.47.88c3.86 3.61 7.68 4.64 8.67 4.2 .99-.45-2.064-1.69-5.21-5.09Z"/><path fill="none" fill-rule="evenodd" stroke="#DB161B" stroke-width=".165" d="M41.05 36.76c.01.05.03.31.06.41 0 .14.01.24.03.35 .04.09.03.18.15.21h-.001c.05.08.14.15.24.19 .07.05.19.11.31.16v-.001c.11.04.24.05.36.02 .11-.07.18-.14.27-.19 .02-.09.04-.22.06-.3v0c-.04.11-.06.23-.07.35 .01.13.06.19.12.3m-.43.29v0c.01-.01.02-.02.03-.03 -.08.06-.05.03.125-.06 .11-.06.24-.09.4-.11h.43c.16 0 .28.02.4.05 .08.07.21.12.3.19v0c.08.05.14.12.18.21 .08.07.14.19.21.24 .03.125.1.12.15.21 -.15.01-.27.02-.34.1 -.13.06.1-.06.15-.11 .1-.03.12-.06.27-.06 .14-.04.22.03.37.05 .08.04.1.05.21.05m-1.27.57c.06 0 .35.05.46 0 .125-.03.2-.09.27-.2 .03-.08 0 .13 0 .22 .01.16.06.16.15.27 .09.05.18.12.27.16 .07.06.17.1.27.13 .09.03.2.07.27.13 .1.06.09.14.15.24 -.01.13-.04.21-.13.27v0c-.05.09-.11.17-.19.24 -.08.125-.16.18.03.21 .1.04.16 0 .27 0m.06.19l-.001-.001c.15-.04.3-.09.46-.14h.43c.16.01.2.05.34.1v0c.07.08.17.14.27.19 .06.07.19.2.24.3v0c.04.11.06.23.06.35 -.01.15-.05.18-.07.32v0c-.04.12-.1.23-.19.32 -.02.03-.03.04-.06.05m-.05.35c.01 0 .04.07.08.13 .09.1.11.1.26.1 .13-.01.12-.06.21-.09 .04-.07.1-.13.15-.22 .03-.06.06-.15.11-.2 .04-.07.09-.12.13-.18 .04-.02.05-.04.1-.05 -.125.02-.14.06-.22.12 -.04.06-.08.125-.11.19 -.02.09-.05.16-.05.28v0c-.01.1 0 .2.04.3 .05.05.09.11.15.15 .05.04.11.11.15.17 .06.04.11.07.19.13 .06.03.13.07.24.08 .13-.01.16-.05.26-.09 .08-.06.14-.1.22-.15v0c.05-.05.11-.11.15-.18 .11-.03.19-.02.26.04 .06.04.11.09.15.15 .03.01.09.07.13.08m-.26.05c-.04.01-.16.1-.22.13 -.04.11-.09.17-.11.29 -.03.11-.03.24-.03.37 .03.13.08.23.13.34 .08.06.13.1.24.16 .1.01.21.02.35.02 .08.02.24.04.32 0 .12-.02.21-.07.29-.11 .1-.06.16-.11.27-.17 .05-.08.13-.15.21-.25 .06-.09.11-.14.16-.24 -.05.11-.11.21-.14.32 -.07.11-.1.15-.11.29 -.04.11-.03.24-.03.375 .01.08.01.25.05.32v.08m2.57.42v.04c0-.11 0-.06-.05.15 -.09.09-.28.11-.44.07 -.15-.11-.14-.19-.4-.24 -.25.01-.35.08-.49.15 -.17.07-.25.11-.35.27 -.06.13-.09.22.08.27 .13.08.29.13.48.15 .2 0 .34-.03.43.07 .13.12.13.2.13.42 .04.07.05.27.08.35 .12.05.19.07.39.07 .04-.12.09-.34.13-.47 .03-.14.04-.34.13-.43 .08-.11.18-.2.3-.28v0c.07-.08.16-.13.26-.16 -.18.07-.2.16-.22.35 .15.06.19.11.43.11 .24-.02.3-.08.39-.2 .01.19.08.26.13.43 .09.11.12.23.21.38 -.04.19-.13.19-.14.43 -.06.15-.05.29-.18.39 -.06.06-.1.07-.22.07 .25 0 .4-.03.56-.12 .13-.07.22-.16.35-.24 .15-.1.34-.2.52-.24 .2 0 .34-.02.43.07 .12.08.2.21.26.39 .04.2.05.33-.05.46 -.08.15-.1.21 0 .39 .1.12.25.14.48.19 .16-.01.32-.04.43-.08"/></g><path stroke-width=".168" d="M30.148 26.665c-5.337-9.22-8.88-17.055-7.91-17.51 .97-.45 6.093 6.66 11.43 15.88l-3.53 1.62Z"/><path stroke-width=".147" d="M30.5 26.502C25.35 17.613 21.805 10.1 22.58 9.75c.77-.36 5.587 6.564 10.73 15.45"/><g stroke-width=".167"><path d="M31.38 21.865c.62 1.03 1.29 2.22 1.93 3.33l-2.82 1.29c-.65-1.12-1.35-2.282-1.94-3.34l2.81-1.3Z"/><path d="M31.148 22.224c.625 1.03 1.06 1.83 1.7 2.94l-2.12.97c-.65-1.12-1.12-1.89-1.71-2.95l2.11-.98Z"/></g><path stroke-width=".168" d="M29.61 23.427l1.4-.65 1.25 2.16 -1.41.64Z"/><path stroke-width=".167" d="M29.61 23.428l2.66 1.51m-1.41.64l.15-2.81m-7.79-10.35l1.41-.65"/><path fill="#DB161B" stroke-width=".5" d="M23.33 10.063a1 1 0 1 0 0 2 1 1 0 1 0 0-2Z" transform="rotate(-75.558 23.33 11.063)"/><path stroke-width=".153" d="M34.315 21.74c0 7.73.04 10.65-.53 11.05 -.54.42-15.587 0-15.587 2.21s12.395 4.42 16.112 4.42c4.95 0 7.43-2.21 7.43-6.63V21.73H34.3Z"/><g stroke-width=".132"><path d="M34.315 23.94v1.1 0c2.46.36 4.97.36 7.43 0v-1.11 0c-2.47.36-4.98.36-7.44 0Zm0-2.21v1.1c2.48.36 4.95.36 7.43 0v-1.11 -.001c-2.47.36-4.98.36-7.44 0Z"/><path d="M34.315 22.844v1.1 0c2.46.36 4.97.36 7.43 0v-1.11 0c-2.47.36-4.98.36-7.44 0Zm0 2.21v1.1c2.48.36 4.95.36 7.43 0v-1.11 0c-2.47.36-4.98.36-7.44 0Z"/></g><g stroke-width="2.231"><path d="M34.653 22.473a1 1 0 1 0 0 2 1 1 0 1 0 0-2Z"/><path d="M36.005 22.592a1 1 0 1 0 0 2 1 1 0 1 0 0-2Z"/></g><g stroke-width="2.232"><path d="M37.358 22.71a1 1 0 1 0 0 2 1 1 0 1 0 0-2Z"/><path d="M38.71 22.71a1 1 0 1 0 0 2 1 1 0 1 0 0-2Z"/></g><g stroke-width="2.231"><path d="M40.061 22.592a1 1 0 1 0 0 2 1 1 0 1 0 0-2Z"/><path d="M41.41 22.473a1 1 0 1 0 0 2 1 1 0 1 0 0-2Z"/></g><path stroke-width=".132" d="M34.315 27.265l7.43 5.96m-6.7-5.97l6.695 5.3m-5.71-5.09l5.7 4.42m-4.96-4.42l4.95 3.75m-4.22-3.76l4.21 3.09m-3.48-3.1l3.47 2.43m-2.73-2.44l2.72 1.76m-1.99-1.77l1.98 1.32m-1.25-1.33l1.24.88m-.5-.89l.49.44m-7.44 0l7.43 5.96m0-6.63l-8.18 6.63m7.43-6.63l-7.19 5.74m6.198-5.53l-5.71 4.42m4.95-4.42l-4.96 3.75m4.21-3.76l-4.22 3.09m3.47-3.1l-3.47 2.43m2.72-2.44l-2.73 1.76m1.98-1.77l-1.99 1.32m1.23-1.33l-1.24.88m.49-.89l-.5.44m7.43 0l-8.18 6.63m8.18-5.97l-8.18 6.63m8.18-5.97l-8.18 6.63m8.18-5.968l-8.18 6.63m8.18-5.97l-8.18 6.63m8.18-5.97l-8.18 6.63m8.18-5.97l-8.18 6.63m8.18-5.97l-8.18 6.63m8.18-5.97l-7.69 6.18m7.68-5.53l-6.942 5.52m6.692-4.64l-5.46 4.42m5.2-3.54l-4.46 3.53m3.96-2.44l-2.23 1.76m-4.22-9.95l7.18 5.747m-7.19-5.09l7.18 5.74m-7.19-5.09l6.94 5.52m-6.94-4.87l6.94 5.52m-6.94-4.87l6.692 5.3m-6.94-4.87l6.692 5.3m-6.692-4.65l6.19 4.86m-6.445-4.42l6.198 4.86m-6.45-4.43l5.948 4.64m-5.948-3.98l5.7 4.42m-5.7-3.76l4.95 3.97m-4.22-12.38v1.1c2.48.36 4.95.36 7.43 0v-1.11 -.001c-2.47.36-4.98.36-7.44 0Zm-.75 9.06l4.46 3.53m-4.46-2.88l3.96 3.09m-3.97-2.43l3.47 2.65m-3.47-1.99l2.47 1.99m-2.48-1.33l1.98 1.54m-1.99-.89l1.23.88"/><g stroke-width="2.231"><path d="M34.653 25.78a1 1 0 1 0 0 2 1 1 0 1 0 0-2Z"/><path d="M36.005 25.907a1 1 0 1 0 0 2 1 1 0 1 0 0-2Z"/></g><g stroke-width="2.232"><path d="M37.358 26.026a1 1 0 1 0 0 2 1 1 0 1 0 0-2Z"/><path d="M38.71 26.026a1 1 0 1 0 0 2 1 1 0 1 0 0-2Z"/></g><g stroke-width="2.231"><path d="M40.061 25.907a1 1 0 1 0 0 2 1 1 0 1 0 0-2Z"/><path d="M41.41 25.78a1 1 0 1 0 0 2 1 1 0 1 0 0-2Z"/></g><path stroke-width=".132" d="M23.65 37.653l8.92-4.65m-9.42 4.42l8.427-4.42m-8.674 3.98l7.68-3.98m-7.933 3.53l6.69-3.54m-7.19 3.09l6.19-3.1m-5.948 2.43l4.21-2.21m-4.47 1.76l3.22-1.77m-3.23 1.1l2.23-1.11m0 4.64l8.427-4.42m-7.69 4.64l7.93-4.2m-7.19 4.42l7.43-3.98m-6.692 4.19l6.19-3.32m-5.21 3.31l5.45-2.872m-4.71 3.09l4.71-2.433m-3.97 2.65l3.71-1.99M30 38.88l2.97-1.55m-1.99 1.77l1.98-1.11m-.99 1.1l1.23-.67m.49-5.75h-1.24v0c-.42 2.19-.42 4.43 0 6.63h1.24l-.001 0c-.42-2.2-.42-4.44 0-6.63Zm-14.625 3.09l2.97-2.21m-2.98.66l2.97 2.65"/><path stroke-width=".094" d="M23.65 33.23l-1.49.22c-.34 1.4-.34 2.57 0 3.97l1.48.44c-.33-1.41-.33-3.24 0-4.65v0Z"/><path stroke-width=".162" d="M41.74 22.181v-1.12c-1.12 0-1.86-.66-1.86-1.33l-3.72 0c0 .66-.75 1.32-1.86 1.32v1.1h7.42Z"/><path stroke-width=".137" d="M36.438 18.424h3.18v1.32h-3.19Zm.26-1.33h2.65v1.32h-2.66Zm0-1.33h2.65v1.32h-2.66Zm.26-1.77h2.12v1.76h-2.13Z"/><path d="M36.878 12.457h2.3v1.54h-2.31Z"/><path stroke-width=".5" d="M38.157 8.92a3.07 2.099 0 1 0 0 4.198 3.07 2.099 0 1 0 0-4.198Z"/><g stroke-width=".134"><path d="M39.69 10.91c0 .58.76 1.54.76 1.54 -.56.38-1.46.66-2.31.66 -.85 0-1.91-.16-2.31-.67 0 0 .76-.968.76-1.55 0-.58-.77-1.33-.77-1.33 .55-.38 1.45-.67 2.3-.67 .84 0 1.74.28 2.3.66 0 0-.77.74-.77 1.32Z"/><path d="M39.183 10.91c0 .58.76 1.76.76 1.76 -.56.38-.95.44-1.8.44 -.85 0-1.4.06-1.8-.45 0 0 .76-1.19.76-1.77 0-.58-.77-1.55-.77-1.55 .55-.38.94-.45 1.79-.45 .84 0 1.23.06 1.79.44 0 0-.77.968-.77 1.54Z"/></g><g stroke-width=".5"><path d="M35.08 10.13a1 1 0 1 0 0 2 1 1 0 1 0 0-2Z"/><path d="M41.231 10.13a1 1 0 1 0 0 2 1 1 0 1 0 0-2Z"/><path d="M38.157 10.13a1 1 0 1 0 0 2 1 1 0 1 0 0-2Z"/><path d="M38.157 7.92a1 1 0 1 0 0 2 1 1 0 1 0 0-2Z"/><path d="M35.907 20.51a1 1 0 1 0 0 2 1 1 0 1 0 0-2Z"/><path d="M40.152 20.51a1 1 0 1 0 0 2 1 1 0 1 0 0-2Z"/></g><path stroke-width=".137" d="M36.173 19.75h3.71l-1.86 1.98Z"/><path stroke-width=".5" d="M38.029 20.298a1.061 1 0 1 0 0 2 1.061 1 0 1 0 0-2Z"/><g stroke-width=".165"><path d="M34.252 27.93h5.08c.17 0 .31.1.31.23v.85c0 .13-.14.23-.31.23h-5.09c-.18 0-.31-.11-.31-.24v-.86c0-.13.13-.24.31-.24Zm7.12-1.11c-.69 0-1.24.51-1.24 1.15v1c0 .64.55 1.15 1.24 1.15 .68 0 1.24-.52 1.24-1.16v-1.01c0-.64-.56-1.16-1.24-1.16Zm0 .44c-.42 0-.75.41-.75.92v.58c0 .51.33.92.74.92s.74-.41.74-.93v-.59c0-.52-.33-.93-.75-.93Z"/><path d="M34.935 27.048c-.42 0-.75.41-.75.92v1.02c0 .51.33.92.74.92s.74-.42.74-.93v-1.03c0-.52-.33-.93-.75-.93Zm0-.45c-.69 0-1.24.51-1.24 1.15v1.44c0 .64.55 1.15 1.24 1.15 .68 0 1.24-.52 1.24-1.16v-1.45c0-.64-.56-1.16-1.24-1.16Z"/><path d="M32.952 27.48c-.42 0-.75.41-.75.92v.24c0 .51.33.92.74.92s.74-.42.74-.93v-.24c0-.52-.33-.93-.75-.93Zm0-.44c-.69 0-1.24.51-1.24 1.15v.66c0 .64.55 1.15 1.24 1.15 .68 0 1.24-.52 1.24-1.16v-.67c0-.64-.56-1.16-1.24-1.16Z"/><path d="M29.97 26.87c-.75 0-1.34.46-1.34 1.032v1.14c0 .57.59 1.032 1.33 1.032 .74 0 1.33-.46 1.33-1.032v-1.15c0-.58-.6-1.032-1.34-1.032Zm0-.5c-1.24 0-2.23.57-2.23 1.29v1.61c0 .71.99 1.29 2.23 1.29 1.23 0 2.23-.58 2.23-1.29v-1.62c0-.72-1-1.3-2.23-1.3Zm16.11.71c-.75 0-1.34.46-1.34 1.03v1.14c0 .57.59 1.032 1.34 1.032 .74 0 1.33-.46 1.33-1.032V28.1c0-.58-.6-1.04-1.34-1.04Zm0-.5c-1.24 0-2.24.57-2.24 1.29v1.61c0 .71.99 1.29 2.23 1.29 1.23 0 2.23-.58 2.23-1.29v-1.62c0-.72-1-1.29-2.23-1.29Z"/><path d="M42.036 27.93h2.65c.08 0 .16.1.16.23v.85c0 .13-.08.23-.17.23h-2.66c-.09 0-.17-.11-.17-.24v-.86c0-.13.07-.24.16-.24Zm-2.8-.22h1.54c.05 0 .09.14.09.31v1.14c0 .17-.05.31-.1.31h-1.55c-.06 0-.1-.14-.1-.32V28c0-.18.04-.32.09-.32Zm-8.18 0h1.54c.05 0 .09.14.09.31v1.14c0 .17-.05.31-.1.31h-1.55c-.06 0-.1-.14-.1-.32V28c0-.18.04-.32.09-.32Zm-5.37-.23h3.09c.1 0 .18.17.18.39v1.42c0 .21-.09.39-.19.39h-3.1c-.11 0-.19-.18-.19-.4v-1.43c0-.22.08-.4.18-.4Zm21.55.22h2.87c.09 0 .17.17.17.39v1.42c0 .21-.08.39-.18.39h-2.88c-.1 0-.18-.18-.18-.4v-1.43c0-.22.07-.4.17-.4Z"/></g></g></svg>