<svg viewBox="0 0 300 200" xmlns="http://www.w3.org/2000/svg"><g fill="#00209F" fill-rule="evenodd"><path d="M300 59.865H0V0h300v59.865Z"/><path fill="#009543" d="M0 139.985h300v60.01H0v-60.02Z"/><path fill="#FFF" d="M0 59.86h300v80.12H0Z"/></g><path d="M136.8 79.97c.11-6.21 2.36-11.59 6.9-13.96 1.12-.59 2-.48 3.3-1.05 .92-.41 1.56-1.48 2.85-1.5 1.35-.03 1.93.88 2.85 1.5 6.63 1.01 9.31 5.98 10.2 12.75 .09.5-.2 1.39.15 1.65v.45c-.35.25-.06 1.14-.15 1.65 -.67 5.88-2.42 10.68-4.5 15.15 5.03 7.21 10.46 14.04 15.75 21 .98-.27 1.72-.79 2.7-1.05 1.97 3.73 3.67 7.73 5.7 11.4 -7.3 4.8-16.73 7.47-27.899 8.4 -.46.09-1.3-.2-1.5.15h-6c-11.88-.53-21.17-3.64-29.25-7.96 1.6-4.15 3.65-7.86 5.4-11.86 .89.4 1.91.68 2.85 1.05 5.41-6.59 10.31-13.69 15.45-20.56 -2.04-4.77-3.98-9.63-4.65-15.76 -.1-.46.18-1.3-.16-1.51Zm15.9-11.71c.01-.04-.03-.12 0-.15 -1.21 1.94.15 7.49-.16 10.05 1.39 1.76 3.18 3.11 4.8 4.65 -1.02.8-2.71-.6-3.6.15 -1 .82.34 6.78 0 7.5 .61 1.28 1.5 2.29 2.39 3.3 1.55-3.7 3.02-7.48 3.45-12.31 .25-.86.25-2.75 0-3.61 -.58-4.93-2.2-8.81-6.9-9.61Zm-5.41 4.35v-4.36c-4.51.99-6.55 4.45-7.05 9.45 -.25.9-.25 2.84 0 3.75 .53 4.97 1.89 9.11 3.75 12.75 .34-1.37 2.16-2.16 2.55-3.75 .52-2.18-.39-4.56 0-7.21h-3.75c.72-.98 1.79-1.61 2.39-2.71v0c.56-.44 1.06-.94 1.5-1.5 .25-.2.59-.31.6-.75 .25-1.56.25-4.15 0-5.71Zm23.101 49.51c.56 1.23 1.61 1.98 2.24 3.15 1.17-.88 1.82-2.28 2.54-3.6 -.75-2.34-3.17.12-4.8.45Zm-44.101 2.54c-.55-.86-.6-2.21-1.2-3 -.57 1.28-1.33 2.37-1.8 3.75 1.01-.24 2.21-.29 3-.75Zm1.95-2.85v0c.46 1.51.96 3.01 1.5 4.5 1.36-.34 2.81-.59 3.9-1.2 -.49-2.42-3-2.81-5.4-3.31Zm34.8 2.55c.48 1.26 1.4 2.09 2.25 3 1.14-1.39 5.4-2.88 2.25-4.2 -1.62.28-2.85.95-4.5 1.2Zm11.4 3.15c1.21-.09 1.89-.71 2.99-.91 -.34-1.12-1.02-1.89-1.35-3 -.86.95-2.19 2.03-1.65 3.9Zm-38.25-3.46c.42 1.52 1.14 2.76 1.65 4.2 1.51-.24 2.54-.96 3.9-1.36 -.49-2.32-3.2-2.41-5.55-2.85Zm18.3 1.5c.71.98 1.19 2.2 1.95 3.15 1.28-.82 2.86-1.34 4.2-2.11 -.25-2.78-4.1-1.45-6.15-1.05Zm-8.1-.16c-.41-.35-1.45-.06-2.11-.15 .02.17-.03.42.15.45 .68 1.16 1.18 2.51 2.09 3.45 1.64-.91 3.89-1.21 5.4-2.26 -.34-.31-.47-.84-.61-1.35h-1.65c-.36-.35-1.35-.06-1.95-.16l-1.35 0Zm-19.35.75c-.97-.24-2 .68-3.16.75 .8.94 2.43 1.06 3.6 1.65 -.01-.95-.45-1.46-.45-2.4Zm44.7 3c-.21-1.02-1.375-2.32-2.25-3.16 -1.13.92-2.43 1.67-3.45 2.7 .41.38.62.97.89 1.5 1.8-.15 3.02-.88 4.8-1.05Zm-37.8-2.4c-1.03.42-2.21.69-3.3 1.05 .06.83.31 1.48.6 2.1 1.8.2 3.1.9 4.95 1.05 -.76-1.4-1.12-3.19-2.25-4.21Zm27.75 1.04c-1.56.6-2.89 1.41-4.36 2.1 .29 3.23 4.69 1.28 6.9.9 -.89-.97-1.71-2-2.55-3.01Zm-18.91.6c-1.57.28-2.72.98-4.2 1.35 .12.67.43 1.16.6 1.8 2.05.14 3.82.57 5.85.75 -.56-1.5-1.68-2.43-2.25-3.9Zm9.3 3.9h3.15c-.57-1.54-1.64-2.57-2.4-3.91 -1.88.57-3.57 1.33-5.4 1.95 .13.91.7 1.39 1.05 2.1h1.05c.8-.1 1.99.19 2.55-.15Z"/></svg>