<svg viewBox="0 0 300 173" xmlns="http://www.w3.org/2000/svg"><path fill="#239F40" d="M0 .5h300v172H0Z"/><path fill="#FFF" d="M0 57.833h300v57.333H0Z"/><path fill="#DA0000" d="M0 115.16h300v57.33H0Z"/><path fill="none" fill-rule="evenodd" stroke="#FFF" stroke-linecap="square" stroke-width="1.717" d="M138 49.13h16m-16 5.35V51.8h5.33v2.67h5.33v-2.68h-2.67m8 2.67h-2.67v-2.68h5.33V49.1m0 2.67v2.67h5.33v-5.36m-2.67 0v5.35m-21.34 2.96h10.66m2.66 0h10.66m-24 61.06h16m-16 5.35v-2.68h5.33v2.67h5.33v-2.68h-2.67m8 2.67h-2.67v-2.68h5.33v-2.68m0 2.67v2.67h5.33v-5.36m-2.67 0v5.35m-21.34-8.32h10.66m2.66 0h10.66m2.66-66.411h16m-16 5.35v-2.68h5.33v2.67h5.33v-2.68h-2.67m8 2.67h-2.67v-2.68h5.33v-2.68m0 2.67v2.67h5.33v-5.36m-2.67 0v5.35m-21.333 2.96h10.66m2.66 0h10.66m-24 61.06h16m-16 5.35V121h5.33v2.67h5.33v-2.68h-2.67m8 2.67h-2.67v-2.68h5.33v-2.68m0 2.67v2.67h5.33v-5.36m-2.67 0v5.35m-21.333-8.32h10.66m2.66 0h10.66M84.47 48.9h16m-16 5.35v-2.68h5.33v2.67h5.33v-2.68h-2.67m8 2.67h-2.67v-2.68h5.33v-2.68m0 2.67v2.67h5.33v-5.36m-2.67 0v5.35M84.45 57.16h10.66m2.66 0h10.66m-24 61.06h16m-16 5.35v-2.68h5.33v2.67h5.33v-2.68h-2.67m8 2.67h-2.67v-2.68h5.33v-2.68m0 2.67v2.67h5.33v-5.36m-2.67 0v5.35M84.4 115.2h10.66m2.66 0h10.66m2.66-66.411h16m-16 5.35v-2.68h5.33v2.67h5.33v-2.68h-2.67m8 2.67h-2.67v-2.68h5.33v-2.68m0 2.67v2.67h5.33v-5.36m-2.67 0v5.35m-21.34 2.96h10.66m2.66 0h10.66m-24 61.06h16m-16 5.35v-2.68h5.33v2.67h5.33v-2.68h-2.67m8 2.67h-2.67v-2.68h5.33v-2.68m0 2.67v2.67h5.33v-5.36m-2.67 0v5.35m-21.34-8.32h10.66m2.66 0h10.66M244.28 48.68h16m-16 5.35v-2.68h5.33v2.67h5.33v-2.68h-2.67m8 2.67h-2.67v-2.68h5.33v-2.68m0 2.67v2.67h5.33v-5.36m-2.67 0v5.35m-21.34 2.96h10.66m2.66 0h10.66m-24 61.06h16m-16 5.35v-2.68h5.33v2.67h5.33v-2.68h-2.67m8 2.67h-2.67v-2.68h5.33v-2.68m0 2.67v2.67h5.33v-5.36m-2.67 0v5.35m-21.34-8.32h10.66m2.66 0h10.66m2.66-66.411h16m-16 5.35v-2.68h5.33v2.67h5.33v-2.68h-2.67m8 2.67h-2.67v-2.68h5.33v-2.68m0 2.67v2.67h5.33v-5.36m-2.67 0v5.35m-21.34 2.96h10.66m2.66 0h10.66m-24 61.06h16m-16 5.35v-2.68h5.33v2.67h5.33v-2.68h-2.67m8 2.67h-2.67v-2.68h5.33v-2.68m0 2.67v2.67h5.33v-5.36m-2.67 0v5.35m-21.34-8.32h10.66m2.66 0h10.66m-104-66.411h16m-16 5.35v-2.68h5.33v2.67h5.33v-2.68h-2.67m8 2.67h-2.67v-2.68h5.33v-2.68m0 2.67v2.67h5.33v-5.36m-2.67 0v5.35m-21.333 2.96h10.66m2.66 0h10.66m-24 61.06h16m-16 5.35v-2.68h5.33v2.67h5.33v-2.68h-2.67m8 2.67h-2.67v-2.68h5.33v-2.68m0 2.67v2.67h5.33v-5.36m-2.67 0v5.35m-21.333-8.32h10.66m2.66 0h10.66m2.66-66.411h16m-16 5.35v-2.68h5.33v2.67h5.33v-2.68h-2.67m8 2.67h-2.67V51h5.33v-2.68m0 2.67v2.67h5.33V48.3m-2.67 0v5.35m-21.34 2.96h10.66m2.66 0h10.66m-24 61.06h16m-16 5.35v-2.68h5.33v2.67h5.33v-2.68h-2.67m8 2.67h-2.67v-2.68h5.33v-2.68m0 2.67v2.67h5.33v-5.36m-2.67 0v5.35m-21.34-8.32h10.66m2.66 0h10.66m-184-66.411h16m-16 5.35v-2.68h5.33v2.67h5.33V50.9H65.2m8 2.67h-2.67v-2.68h5.33v-2.68m0 2.67v2.67h5.33v-5.36m-2.67 0v5.35M57.18 56.5h10.66m2.66 0h10.66m-24 61.06h16m-16 5.35v-2.68h5.33v2.67h5.33v-2.68h-2.67m8 2.67h-2.67v-2.68h5.33v-2.68m0 2.67v2.67h5.33v-5.36m-2.67 0v5.35m-21.34-8.32h10.66m2.66 0h10.66M3.78 48.13h16m-16 5.35V50.8h5.33v2.67h5.33v-2.68h-2.67m8 2.67H17.1v-2.68h5.33V48.1m0 2.67v2.67h5.33v-5.36m-2.67 0v5.35M3.75 56.39h10.66m2.66 0h10.66m-24 61.06h16m-16 5.35v-2.68h5.33v2.67h5.33v-2.68h-2.67m8 2.67h-2.67v-2.68h5.33v-2.68m0 2.67v2.67h5.33v-5.36m-2.67 0v5.35M3.71 114.43h10.66m2.66 0h10.66m2.66-66.411h16m-16 5.35v-2.68h5.33v2.67h5.33v-2.68h-2.67m8 2.67h-2.67v-2.68H49v-2.68m0 2.67v2.67h5.33v-5.36m-2.67 0v5.35m-21.34 2.96h10.66m2.66 0H54.3m-24 61.06h16m-16 5.35v-2.68h5.33v2.67h5.33V120h-2.67m8 2.67h-2.67v-2.68h5.33v-2.68m0 2.67v2.67h5.33v-5.36m-2.67 0v5.35m-21.34-8.32h10.66m2.66 0h10.66"/><g fill="#DA0000"><path d="M158.73 71.13s15.5 12.16 4.1 29.65c10.73-6.59 11.66-24.69-4.11-29.65ZM150 69.4c-2.47 2.79-6.71.01-5.26-3.03 2.55 4.58 5.25.88 5.25.88s2.7 3.7 5.25-.89c1.45 3.04-2.79 5.81-5.26 3.02Z"/><path d="M150 107.29l-1.78-2.33s-4.18 1.39-9.68-.54c4.506 0 7.02-.8 7.95-1.27 0 0-10.21-5.52-10.006-16.753 .59-11.37 6.62-14.83 6.62-14.83s-10.74 15.68 5.03 28.8l-.7-16.23v-11.92c.89-.22 2.53-2.12 2.53-2.12s1.64 1.89 2.53 2.11v11.91l-.7 16.22c15.76-13.113 5.03-28.81 5.03-28.81s6.03 3.45 6.62 14.82c.19 11.235-10.01 16.753-10.01 16.753 .92.46 3.44 1.26 7.95 1.26 -5.5 1.92-9.68.53-9.68.53l-1.78 2.32 0 0Z"/><path d="M141.271 71.13s-15.51 12.16-4.11 29.65c-10.74-6.59-11.67-24.69 4.1-29.65Z"/></g></svg>