<svg viewBox="0 0 301 201" xmlns="http://www.w3.org/2000/svg"><path fill="#006C35" d="M.5.5h300v200H.5Z"/><path fill="#FFF" d="M129.812 47.736c-.16-.01-.39.08-.72.27 -.74.49-2.18 2-2.23 3.73 -.05.98-.23.97.41 1.6 .46.66.92.6 1.86.11 .53-.4.71-.65.9-1.32 .22-1.12-1.18.52-1.35-.72 -.32-1.16.57-1.63 1.42-2.74 .02-.53.02-.96-.32-.97Zm13.625.07c-.27.03-.59.37-1.03 1.17 -.32.84-1.69 2.11-.7 4.75 .81 1.66 1.14 4.38.77 7.4 -.57.85-.69 1.15-1.43 2.01 -1.04 1.11-2.16.82-3.02.41 -.81-.55-1.44-.82-1.8-2.54 .06-2.74.22-7.23-.28-8.18 -.74-1.48-1.96-.95-2.48-.5 -2.5 2.28-3.74 6.14-4.49 9.21 -.7 2.23-1.44 1.59-1.95.68 -1.27-1.19-1.36-10.433-2.875-8.92 -2.45 6.97 1.4 14.61 4.06 13.87 1.92.79 3.13-2.86 3.92-6.87 .53-1.13.94-1.26 1.22-.68 -.08 5.32.38 6.5 1.75 8.125 3.05 2.35 5.57.29 5.77.1l2.375-2.375c.52-.56 1.22-.59 1.97-.1 .72.66.63 1.79 2.18 2.58 1.3.52 4.1.12 4.75-1 .87-1.5 1.08-2.01 1.48-2.58 .62-.83 1.68-.47 1.68-.2 -.1.46-.73.91-.3 1.75 .74.55.91.19 1.35.07 1.54-.74 2.71-4.1 2.71-4.1 .06-1.26-.65-1.16-1.1-.9 -.6.36-.64.48-1.23.85 -.76.11-2.23.61-2.95-.52 -.75-1.36-.75-3.24-1.32-4.6 0-.1-1-2.15-.08-2.28 .46.08 1.45.34 1.61-.49 .48-.81-1.05-3.11-2.09-4.27 -.91-1-2.16-1.12-3.37-.1 -.85.77-.73 1.65-.89 2.47 -.22.94-.18 2.122.78 3.375 .84 1.66 2.38 3.8 1.875 6.82 0 0-.9 1.43-2.47 1.25 -.66-.15-1.73-.43-2.29-4.62 -.43-3.17.1-7.61-1.24-9.69 -.31-.79-.57-1.55-1-1.49Zm-4.32.33c-.41.03-.86.5-1.23 1.42 -.32.69-.7 4.33-.64 4.33 -.26 1.08 1.13 1.54 1.76.15 .94-2.56.94-3.65 1.01-4.73 -.15-.83-.51-1.23-.92-1.19Zm15.92.28c-.42.03-.75.28-.875.9 -.17 1.45-.09 2.24.16 3.45 .18.8 1.36 2.15 1.93 2.93 2.75 3.7 5.41 7.433 7.97 11.28 .4 2.86.69 5.66.88 8.45 .41 6.11.54 13.72.16 20.16 1.14.04 2.98-1.85 3.625-4.625 .41-3.84-.15-11.68-.19-13.94 -.03-.95-.09-2.07-.15-3.24v0c3.12 5.1 6.03 10.34 8.71 15.7 1.03-.5.8-6.32.2-7.14 -2.28-4.9-5.42-9.72-6.42-11.58 -.37-.67-1.6-2.55-3.05-4.7 -.27-3.08-.56-5.69-.75-6.48 -.47-3.26 1.33.36 1.08-1.53 -.59-3.26-2.38-5.46-4.5-8.44 -.69-.97-.67-1.17-1.73.23 -.63 1.43-.63 2.62-.44 3.73v0c-.35-.51-.72-1.01-1.12-1.48 -1.83-1.57-1.95-1.66-3.47-2.94 -.48-.34-1.4-.87-2.09-.8Zm47.2.48c-.21-.04-.43.06-.68.43 -.48.41-1 1.17-.98 2.15 .11 1.71.42 3.47.53 5.18l.125.68v-.001c-.14-.18-.29-.35-.44-.52 -3.35-3.52 1.53-.58-.64-3.29 -1.84-2.02-2.38-2.67-3.95-3.875 -.79-.51-1.27-1.49-1.53.17 -.11 1.45-.21 3.14-.12 4.375 -.01.68.7 1.96 1.31 2.72l-.001 0c2.32 2.85 4.58 5.75 6.8 8.7 .48 6.2.61 11.89 1.1 18.11 -.07 2.65-.89 6.19-1.67 6.52 0 0-1.19.68-1.98-.08 -.58-.24-2.875-3.84-2.875-3.84 -1.18-1.08-1.97-.78-2.8 0 -2.31 2.23-3.36 6.4-4.93 9.28 -.41.64-1.55 1.18-2.82-.05 -3.22-4.4-1.34-10.66-1.74-9.05 -2.87 3.23-1.6 8.58-.95 9.73 .94 1.89 1.71 3.1 3.55 4.03 1.67 1.23 2.98.46 3.7-.4 1.68-1.75 1.7-6.22 2.5-7.1 .55-1.63 1.94-1.35 2.625-.625 .65.94 1.43 1.56 2.4 2.07 1.57 1.38 3.45 1.63 5.3.375 1.26-.71 2.08-1.64 2.82-3.45 .79-2.13.4-13.26.22-19.45v0c1.19 1.68 2.37 3.39 3.52 5.11 .51 5.43.74 10.79.57 15.92 -.13 1.02 3.56-3.05 3.53-4.98 -.02-1.69 0-3.22 0-4.64l-.001 0c1.79 2.85 3.5 5.74 5.15 8.68 1.01-.54.66-6.28.02-7.07 -1.72-2.88-3.91-5.98-5.6-8.375 -.34-3.03-.8-6.61-1-7.7 -.33-1.71-.65-4.28-1.14-6.3 -.14-.8-.54-3.32-.42-3.57 .2-.57.95.01 1.32-.64 .55-.61-1.93-7.04-3.19-8.875 -.46-.83-1.28-.54-2.29.8 -.95.88-.6 2.88-.24 4.8 .93 4.87 1.76 9.82 2.42 14.77l-.001 0c-1.38-2.06-2.77-4.1-4.18-6.13 -.04-.21-.19-.96-.19-.97 0-.09-.21-3.99-.375-4.92 -.03-.38-.12-.49.27-.44 .41.35.47.37.73.48 .42.07.79-.64.53-1.3 -1.31-2.42-2.62-4.84-3.93-7.25 -.16-.16-.34-.32-.54-.35ZM80.42 49.02c-.73-.03-1.53.42-1.22 1.3 -.19.47 1.41 2.08 1.7 2.96 .25.62-.25 2.65.27 2.83 .48.2 1.14-1.4 1.4-2.89 .14-.82.03-3.61-1.87-4.18v-.001c-.1-.03-.2-.04-.3-.04Zm138.76.01c-.17.01-.37.28-.68.93 -.75 1.21-1 3.39-.7 5.31 1.78 12.08 3.11 23.78 3.38 34.48 -.16 1.01-.2 1.55-.68 2.83 -1.06 1.35-2.22 3.04-3.32 3.86 -1.1.81-3.43 1.59-4.19 2.2 -2.42 1.39-2.43 3-.48 3.06 3.36-.4 7.35-.67 10.1-4.82 .73-1.17 1.59-4.32 1.63-6.24 .25-11.3-.15-22.35-1.84-30.52 -.11-.8-.46-2.63-.33-2.87 .21-.56 1.32.05 1.71-.59 .57-.59-2.85-4.98-4.05-6.85 -.24-.48-.39-.86-.6-.84Zm-35.33.18c-.14.02-.35.23-.73.73 -.95 3.07-1.28 5.58-.92 7.5 2.41 12.613 4.89 24.1 4.5 36.11 1.14 0 2.47-2.63 3.03-5.23 .31-3.59-.21-5.77-.3-7.875 -.1-2.11-2.39-19.21-2.85-20.8 -.56-3.02 2.23-.4 1.92-2.15 -.97-2.22-3.38-5.43-4.125-7.35 -.29-.52-.32-.99-.55-.95Zm-86.012.23c-.3.05-.59.29-.69.7 -.07.26.11.7-.125.83 -.14.13-.66.04-.64-.69 0-.24-.18-.48-.28-.625 -.11-.07-.18-.09-.37-.09 -.23 0-.23.07-.35.26 -.06.19-.13.38-.13.61 -.03.26-.14.34-.33.38 -.22 0-.17.02-.34-.09 -.11-.12-.23-.16-.23-.35 0-.2-.06-.52-.12-.65 -.1-.12-.24-.19-.4-.23 -.9 0-.97 1.03-.92 1.42 -.07.07-.11 1.9 1.125 2.41 1.64.78 4.73.45 4.6-2.2 0-.24-.06-1.03-.08-1.24 -.17-.4-.48-.54-.78-.49l0-.01Zm22.07.02v0c-.53.02-1.04.16-1.5.41 -1.1 1.04-1.35 2.71-.49 3.76 .83.39 1.67 1.23 1.11 1.7 -2.37 2.52-8.515 6.74-8.83 7.51l-.02.02v.03s0 .02.01.02v0s0 0 .01.01h.01s.01.01.01.01h.01l.01.01c.31.21 4.16.2 4.58.01 0-.01.01-.02.01-.02h.01v-.02c1.32-.49 7.6-7.67 7.6-7.67 -.33-.28-.625-.49-.95-.77 -.35-.31-.32-.6 0-.9 1.55-.91 1.06-2.9.25-3.8v0c-.59-.28-1.23-.41-1.88-.375Zm57.7.02c-.17.01-.37.27-.68.92 -.75 1.21-1.25 3.33-1.19 5.31 1.6 11.12 2.1 20.86 3.15 31.98 .08 1.07-.08 2.63-.79 3.26 -2.65 2.76-6.47 6.16-10.62 7.73 -.45.5 1.11 2.63 3.125 2.63 3.36-.4 6.32-2.29 9.07-7.27 .73-1.17 2.02-3.65 2.06-5.58 .25-11.3-.57-20.09-2.27-28.25 -.11-.8-.04-1.74.1-1.98 .21-.27.95 0 1.35-.64 .57-.59-1.54-5.47-2.74-7.34 -.24-.48-.39-.85-.6-.83Zm-89.39.34c-.47.05-.91.43-1.12.93 -.08 1.78-.09 3.56.11 5.21 .81 2.88 1.06 5.42 1.46 8.37 .1 3.95-2.29 1.71-2.18-.25 .55-2.55.4-6.56-.09-7.58 -.39-1.02-.85-1.27-1.79-1.1 -.76-.05-2.7 2.07-3.24 5.57 0 0-.46 1.79-.65 3.4 -.27 1.81-1.47 3.09-2.3-.25 -.73-2.43-1.17-8.42-2.375-7.02 -.35 4.67-.76 12.89 3.21 13.73 4.8.46 2.14-8.12 3.88-9.68 .32-.77.93-.79.98.18v7.28c-.05 2.36 1.51 3.07 2.72 3.56 1.25-.1 2.09-.07 2.58 1.16 .19 4.2.4 8.41.6 12.613 0 0 2.91.83 3.05-7.09 .13-4.66-.93-8.56-.3-9.47 .02-.89 1.16-.94 1.95-.5 1.25.88 1.81 1.97 3.76 1.53 2.96-.82 4.756-2.26 4.8-4.54 -.18-2.17-.43-4.34-1.37-6.5 .13-.4-.57-1.42-.44-1.82 .53.83 1.34.76 1.52 0 -.51-1.67-1.3-3.26-2.57-3.95 -1.05-.93-2.59-.73-3.15 1.2 -.27 2.22.8 4.85 2.42 7.01 .34.84.82 2.24.61 3.5 -.87.49-1.72.28-2.44-.48 0 0-2.37-1.77-2.37-2.17 .62-4.02.13-4.48-.22-5.59 -.25-1.54-.98-2.03-1.57-3.08 -.6-.63-1.4-.63-1.78 0 -1.05 1.81-.56 5.69.2 7.43 .54 1.6 1.38 2.6.98 2.6 -.33.9-1 .69-1.49-.35 -.7-2.16-.84-5.375-.84-6.83 -.21-1.8-.45-5.64-1.625-6.62 -.32-.44-.69-.59-1.05-.54Zm16.863.02c-.24.03-.51.16-.82.23 -1.03.32-1.98 1.2-1.68 2.92 1.2 7.33 1.99 12.92 3.2 20.262 .18.85-.54 1.99-1.47 1.875 -1.58-1.07-1.97-3.23-4.67-3.14 -1.95.02-4.18 2.14-4.45 4.18 -.33 1.62-.45 3.38 0 4.8 1.37 1.64 3.01 1.47 4.45 1.1 1.18-.49 2.15-1.66 2.57-1.375 0 0 .01-.01.01 0v.01c.25.45-.03 4.26-5.58 7.21 -3.42 1.53-6.13 1.89-7.59-.89 -.91-1.75.06-8.37-2.17-6.84 -6.59 16.98 15.43 19.35 17.9.7 .15-.53.64-1.06.98-.93 .15.06.28.26.33.65 -.52 16.89-17.042 18.05-19.85 12.738 -.7-1.26-.91-4.05-.98-5.72 -.13-1.02-.39-1.6-.68-1.83 -.67-.51-1.57.8-1.77 3.08 -.28 1.83-.2 2.33-.2 4.1 .88 13.34 22.155 7.61 25.613-3.42 1.71-5.7-.04-10 .53-10.53 0-.01.02-.01.02-.02v0c0-.01.01-.01.02-.02l.02-.02h-.001c.02-.01.04-.02.07-.02 2.11 2.27 5.07.28 5.72-.5 .27-.4.97-.65 1.46-.14 1.64 1.18 4.53.62 5.13-1.47 .34-2.05.64-4.15.71-6.33 -1.08.33-1.94.58-2.29.95v0c-.09.08-.14.18-.17.3 -.1.6-.19 1.2-.28 1.81h-.001c-.01.04-.03.09-.05.13v0c-.06.07-.12.14-.2.18 -.38.2-1.05.08-1.08-.47 -.52-2.33-2.62-2.63-3.89.97 -.86.69-2.43.83-2.59-.22 .2-2.42-.77-2.74-2.72-1.6 -.63-4.78-1.25-9.35-1.875-14.13 .81-.03 1.55.56 2.3-.37 -.81-2.5-2.51-7.59-3.47-8.07 -.01-.01-.02-.01-.03-.02v-.001c-.07-.07-.13-.14-.2-.19v-.001c-.06-.04-.13-.07-.19-.09h0c-.09-.03-.18-.04-.27-.03Zm65.736.03c-.85-.03-1.78.5-1.42 1.56 -.22.57 1.81 2.53 2.13 3.6 .58 1.64-.45 3.21.16 3.43 .56.25 1.34-1.7 1.63-3.5 .33-1.46-.71-4.45-2.18-5.07v0c-.12-.03-.24-.04-.35-.04Zm-51.212 1.8c.38-.04.84.31 1.07.81 .24.53.12 1.04-.28 1.13 -.4.09-.91-.26-1.15-.79 -.25-.54-.13-1.06.27-1.15v0c.02-.01.04-.01.07-.02Zm95 2.46c-.77-.03-1.61.55-1.28 1.7 -.2.62 1.64 2.74 1.93 3.9 .26.82-.41 3.48.15 3.72 .51.27 1.23-1.84 1.5-3.79 .14-1.07-.65-4.82-1.99-5.49v0c-.11-.03-.22-.05-.33-.05Zm-52.53 1.3c.07.31.14.62.18.95 .15.69.29 1.38.43 2.06 -.61-.84-1.11-1.52-1.33-1.75 -1.38-1.64.03-1.08.7-1.27Zm12.1 5.95c-.3.05-.59.3-.69.71 -.07.26.12.69-.12.82 -.14.13-.68.05-.65-.68 0-.24-.18-.49-.28-.64 -.11-.07-.18-.09-.37-.09 -.23 0-.23.07-.35.26 -.06.19-.125.39-.125.61 -.03.26-.12.34-.32.38 -.22 0-.18.02-.35-.09 -.11-.12-.23-.16-.23-.35 0-.2-.06-.52-.12-.65 -.1-.12-.24-.17-.4-.22 -.9 0-.96 1.02-.9 1.41 -.07.07-.12 1.91 1.11 2.42 1.64.78 4.74.44 4.61-2.22 0-.24-.07-1.03-.09-1.24 -.17-.4-.48-.54-.78-.49Zm-55.247.55c-.21-.03-.47.05-.78.23 -1.46.78-2.02 3.12-1.12 4.48 .84 1.2 2.18.76 2.36.76 1.42.17 2.27-2.68 2.27-2.68s.04-.81-1.65.71c-.72.13-.81-.13-.99-.53 -.15-.75-.12-1.5.22-2.24 .15-.45 0-.73-.34-.77Zm78.1.36c-.81-.04-1.67.48-1.89 1.58 0 .65.29 1 .23 1.6 -.09.33-.44.56-1.27.16 .13-.12-.54-1.07-.54-1.07 -.65-.4-1.52.02-2.08.38v0c-.41.77-.48 1.68-.19 2.51 .92 1.71 4.11 4.64 5.63 4.67 .02-1.55.17-3.61.26-4.89 .03-.49.14-1.02.61-1.14 .46-.13 1.26.46 1.27-.04 -.09-.99-.29-2.44-.84-3.13v0c-.29-.41-.75-.66-1.24-.68Zm-64.648 5.38c-.03 0-.05.02-.07.03v0c-.02 0-.03.01-.04.02 -.17.12-.36.4-.78.7 -.72.81-.85 1.38-.8 3.01 .04.17 1.35 3.83 2.47 6.41 .75 2.67 1.44 5.74.93 8.637 -1.77 3.82-5.31 7.26-8.73 9.125 -1.75.55-3.247.36-3.65-.02l-.02-.02c-1-.68-1.03-1.87-.97-2.08v-.02l.01-.02c2.88-2.01 6.18-3.64 8.762-9.07 .76-2.08.99-3.32.23-6.53 -.3-1.2-.66-2.18-1.48-3.03l.01-.02c.49-.24 1.76.7 1.96.11 -.31-1.54-1.34-3.59-2.52-4.64 -1.03-.94-2.15-1.05-3.09-.19 -1.06.59-1.29 2.7-.78 4.56 .56 1.39 2.09 1.64 3.18 4.45v.01c.02.17.37 2.09-.18 2.875 -.45 1.39-6.17 5.9-6.58 6.17 -.01 0-.04.02-.04.02h-.001c-.01 0-.02.01-.03.02v0c-.01 0-.01 0-.02.01h-.03l-.02-.02v-.02l-.02-.03c-.02-.12.01-.4 0-.87 -.04-.85.31-2.76.28-3.09v-.02 0c-.01-.01-.01-.01-.02-.02v-.02h-.02c-1.9 1.22-2.52 4.96-2.87 6.07 -4.79 3.31-10.229 5.77-13.37 9.125 -1.64 2.54 11.241-2.93 12.73-3.59 .01 0 .02.02.03.03 .28.31.3 1.4 1.16 2.38 1.33 1.81 4.18 2.92 6.95 2.23 4.64-1.68 7.31-4.85 10.03-8.35 .38-.57.99-1.02 1.56-.58 1.87 4.18 7.26 7.16 14.238 7.47 1.61-1.97.84-2.93.18-3.34 -.21-.14-3.47-1.41-3.98-2.68 -.32-1.18.45-2.23 2.01-3.02 4.47-.55 8.87-1.15 13.137-2.52 .04-1.44.88-3.58 1.45-4.5 .39-.65.64-.71.73-.8 0-.01.01-.01.01-.02l.01-.02 .01-.02v-.03 0c0-.05-.01-.09-.02-.125l-.73-.43 -14.29-.07h-.001c-.14-.05-.27-.12-.39-.2l-.03-.03 -.02-.02c-.01-.01-.02-.01-.02-.02l-.02-.03 -.02-.02v-.02l-.02-.02v-.02 -.02 -.02 -.02 -.02 -.02 -.02 -.02l.01-.02v0c0-.01 0-.02.01-.03 .07-.1.23-.19.45-.27 3.41-.47 9.47-1.46 9.875-7.29 -.07-3.04-1.3-5.03-5.03-5.58 -2.74.21-4.69 2.86-4.375 5.77 -.14.78.26 2.32-.54 2.5 -5.26.48-10.982 3.77-11.18 6.125h-.02l-.02.01v0c-.01 0-.02 0-.03.01h-.03v0c-.02 0-.03 0-.04.01h-.08v0c-.02-.01-.04-.01-.05-.02 -.35-.1-.79-.66-.72-1.45 -.2-4.08-1.53-8.68-3.6-12.23 -.74-.75-1.07-1.05-1.28-1.08h-.09c-.01 0-.01 0-.02 0Zm13.67 2.15c-.3.05-.59.29-.69.7 -.07.26.12.7-.12.83 -.14.13-.68.05-.65-.68 0-.24-.18-.49-.28-.64 -.11-.07-.17-.09-.35-.09 -.23 0-.24.07-.37.26 -.06.19-.125.39-.125.61 -.03.26-.13.34-.32.38 -.22 0-.17.02-.34-.09 -.11-.12-.24-.16-.24-.35 0-.2-.04-.52-.1-.65 -.1-.12-.25-.17-.42-.22 -.9 0-.96 1.02-.9 1.41 -.07.07-.12 1.91 1.11 2.42 1.64.78 5.56.32 4.61-2.22 0-.24-.07-1.03-.09-1.24 -.17-.4-.48-.54-.78-.49Zm55.18 2.26v0c-.05-.01-.1-.01-.14.01 0 0-7.63 5.42-7.82 5.61 -.76.67-.38 3.03 0 2.76 .54.21 8.22-5 8.07-5.6 .33.02.49-2.68-.13-2.79Zm-47.99.8c.31-.04.72.07 1.11.3 .56.32.92.82.875 1.18 -.01.01 0 .02 0 .03 -.01.01-.03.02-.03.03l-.02.03v0c-.01 0-.01.01-.02.02l-.02.02v0c-.03.03-.05.06-.08.08 -.28.25-.91.21-1.5-.125 -.57-.33-.92-.83-.875-1.19 0-.01.01-.03.01-.04v0c0-.05.02-.09.05-.125 0-.02.01-.04.02-.05l.01-.02v0c.01-.03.03-.05.06-.07v0c.1-.08.23-.13.36-.14Zm-66.77 1.375c-3.95.07-9.735 5.17-9.89 8.01 4.16-2.01 8.26-3.93 12.5-6 -.69-1.03-.05-1.95-2.62-2.02Zm12.8 1.77c.38 0 .79.19 1.01.73v0c.16.43.07.92-.23 1.27v.01c-.01 0-.01.02-.02.02 -.17.21-.75.125-1.17.125 -.51-.03-.75-.11-1.05-.52 -.15-.46.29-.9.48-1.24 0-.01.01-.01.01-.02v0c.02-.04.05-.07.08-.1 .15-.14.4-.27.68-.3 .05-.01.1-.02.16-.02Zm100.46 1.57c-.71.08-1.37.75-1.07 1.81 -.2.62.95 2.8 1.25 3.96 .26.82-.35 3.15.21 3.4 .51.27 1.86-1.39 1.81-3.47 .14-1.07-.39-5.01-1.73-5.68v0c-.16-.05-.33-.06-.49-.04Zm-85.324 3.85c-.63.04-1.18.375-.93 1.25 -.04.63 1.75 1.4 1.86 2.875 .25.6-.39 2.54.15 2.72 .48.2 1.16-1.35 1.42-2.78 .14-.79-.62-3.54-1.9-4.03v-.001c-.21-.05-.41-.07-.62-.05Zm25.53 3.48c.04-.01.08 0 .13 0h.02c1.59.43 3.93.47 5.97.68 1.65.1 2.47 1.4.92 1.95 -1.54.52-3.01.93-3.02 3.15 .2 1.09.15 1.67-.02 1.93v0c-.02.02-.04.04-.05.06l-.02.01 -.02.01 -.02.01 -.02.01 -.03.01 -.001 0c-.03.01-.05.02-.08.03 -.03 0-.06 0-.08.01 -.37.05-.9-.3-1.29-.5 -.95-.68-3.6-2.33-3.98-5.85 -.06-.8.54-1.49 1.5-1.56Zm-62.38 2.71c-.1 0-.3.3-.57.63 -2.35 3.74-2.56 9.33-1.27 11 .68.78 1.82 1.13 2.66.88 1.47-.64 2.125-3.64 1.77-4.73 -.5-.78-.89-.9-1.375-.24 -1.04 2.1-1.48.66-1.57-.52 -.16-2.24.05-4.3.3-5.93 .13-.84.125-1.13.02-1.125Zm80.06 4.91v0c-.2-.02-.38.02-.55.11 -.04 0-1.69 1.11-2.22 1.88 -.33.24-.29.46-.19.88 .25.57.69.39 1.2.125 .66-.1.99.34.93 1.15 -.31 1 .13 1.375.13 1.43 0 .06.64.61 1.4.17 1.59-.61 2.59-1.21 4.82-1.69 .58-.02.55-1.59-.375-1.64 -1.21.06-2.33.12-3.54 1.07 -.75.17-.88-.29-1.04-.69 -.19-1.01.42-1.72.3-2.48 .03.03-.38-.34-.9-.37Zm51.26 1.91c-.3 0-.61.05-1.07.08 -.49.1-.67.31-.75.91 .03.9.58.85 1.15 1.21 .32.41.53.79-.03 1.47 -.54.49-.92.76-1.45 1.25 -.26.43-.41 1.09.36 1.3 1.42.4 4.72-1.75 4.72-1.79 .53-.41.35-1.17.31-1.17 -.32-.36-1.02-.15-1.49-.2 -.23 0-.97-.11-.62-.77 .29-.41.4-.65.6-1.15 .22-.49.02-.82-.78-1.09v0c-.33-.07-.66-.1-.99-.09Zm-21.42 43.36c-.01 0-.01.01-.02.01 -2.38.6-2.3 3.07-.78 4.15 -25.04 0-63.46-.43-71.7-.43 -4.61 0-19.2-.55-19.48-.55 3.128 4.57 7.65 5.506 13.58 5.6 11.12 0 62.64-.14 77.312-.14 -1.05 1.85.09 4.83.91 5.375v0c.05.03.1.05.16.07 .01 0 .02-.01.03 0 .97.22 1.39-.48 1.72-.99 1.57.13 10.43.26 11.25-.02 0-.01.01-.02.01-.02 .54.8 1.09 1.57 2.13 1.43 1.82-.4 3.26-.6 3.31-4.3 0 0-.19-6.33-4.34-5.93 -.99.14-3.74.42-3.74.42 -3.19-.38-5.53-.42-9.12-.55 .33-.42.91-2.13.2-2.74 -.19-.16-.47-.25-.85-.22H188c-.01-.01-.01-.02-.02-.02 -.02-.01-.03-.01-.04-.02v0c-.03-.02-.05-.04-.07-.07 -.01-.01-.03-.02-.03-.03 -.19-.27-.28-.92-.4-1.08l-.02-.02 -.02-.02 -.03-.02h-.02c-.01 0-.02 0-.02 0Zm1.7 9.03c0-.01 0 0 .01 0 3.65.17 7.08.03 10.738.21 .57.49.28 1.62-.09 1.82v0c-.02.01-.05.01-.07.02 -.02 0-.04 0-.05 0 -.02 0-.04 0-.05 0 -1.19-.03-1.875-.06-3.07-.09v0c-.01-.06-.01-.12-.03-.18 -.29-.84-2.32-.78-2.8-.125l-.03.03c-.01.01-.02.03-.03.05v0c-.01.02-.02.04-.03.06 -.01.02-.01.06-.02.08 -.01.03-.02.06-.02.1 -1.61.19-3.05-.06-4.65-.12 -.47-.59-.42-1.65.13-1.9Z"/></svg>