<svg viewBox="0 0 301 181" xmlns="http://www.w3.org/2000/svg" xmlns:xlink="http://www.w3.org/1999/xlink"><defs><mask id="a"><use fill="#FFF" xlink:href="#g"/></mask><mask id="b"><use fill="#FFF" xlink:href="#g"/></mask><mask id="c"><use fill="#FFF" xlink:href="#g"/></mask><mask id="d"><use fill="#FFF" xlink:href="#g"/></mask><mask id="e"><use fill="#FFF" xlink:href="#g"/></mask><mask id="f"><use fill="#FFF" xlink:href="#g"/></mask><path id="g" d="M24.7.07a24.56 24.83 0 1 0 0 49.66 24.56 24.83 0 1 0 0-49.67Z"/></defs><path fill="#E8112D" d="M.5.5h300v180H.5Z"/><g fill="#FFEF00"><path d="M153.22 58.281c-2.52-6.6 2.88-16.8-2.52-21.6 1.8 7.2-4.2 15-2.52 21.6 1.68 6.6 7.56 6.6 5.04 0Z"/><path d="M158.26 59.074c-1.46-6.92 5.47-16.143.89-21.73 .65 7.39-6.5 14.15-5.87 20.94 .62 6.78 6.43 7.7 4.97.78Z"/><path d="M163.11 60.646c-.36-7.06 7.93-15.09 4.27-21.33 -.52 7.4-8.63 12.96-9.08 19.76 -.45 6.79 5.15 8.61 4.79 1.55Z"/><path d="M167.659 62.95c.75-7.03 10.19-13.67 7.56-20.39 -1.67 7.23-10.56 11.45-12.06 18.1 -1.5 6.64 3.74 9.31 4.49 2.28Z"/><path d="M171.78 65.95c1.84-6.83 12.2-11.9 10.65-18.96 -2.78 6.88-12.22 9.66-14.74 15.99 -2.52 6.32 2.23 9.78 4.07 2.96Z"/><path d="M175.39 69.553c2.88-6.45 13.91-9.85 13.49-17.06 -3.82 6.36-13.58 7.63-17.06 13.49 -3.48 5.85.67 10.012 3.56 3.56Z"/><path d="M178.39 73.67c3.85-5.92 15.28-7.55 15.994-14.735 -4.77 5.68-14.61 5.41-18.96 10.65 -4.36 5.23-.9 9.99 2.96 4.07Z"/><path d="M180.71 78.21c4.73-5.25 16.27-5.07 18.1-12.06 -5.6 4.872-15.28 3.06-20.39 7.56 -5.12 4.49-2.45 9.732 2.28 4.49Z"/><path d="M182.297 83.066c5.49-4.44 16.86-2.46 19.76-9.08 -6.3 3.93-15.57.64-21.33 4.27 -5.76 3.63-3.95 9.229 1.55 4.79Z"/><path d="M183.09 88.102c6.125-3.53 17.04.21 20.94-5.87 -6.83 2.9-15.48-1.81-21.73.89 -6.256 2.69-5.34 8.49.78 4.97Z"/><path d="M183.1 93.2c6.6-2.52 16.8 2.88 21.6-2.52 -7.2 1.8-15-4.2-21.6-2.52 -6.6 1.67-6.6 7.55 0 5.04Z"/><path d="M182.311 98.239c6.91-1.46 16.143 5.47 21.72.89 -7.4.65-14.16-6.5-20.94-5.87 -6.79.62-7.71 6.43-.79 4.97Z"/><path d="M180.74 103.09c7.05-.36 15.08 7.93 21.32 4.27 -7.41-.52-12.97-8.63-19.77-9.08 -6.8-.45-8.613 5.15-1.56 4.79Z"/><path d="M178.42 107.636c7.02.75 13.66 10.19 20.39 7.56 -7.24-1.67-11.46-10.56-18.11-12.06 -6.65-1.5-9.32 3.74-2.29 4.491Z"/><path d="M175.435 111.76c6.82 1.84 11.89 12.2 18.95 10.65 -6.89-2.78-9.67-12.22-15.994-14.735 -6.33-2.52-9.79 2.23-2.97 4.07Z"/><path d="M171.83 115.37c6.44 2.88 9.84 13.91 17.05 13.49 -6.37-3.82-7.64-13.58-13.5-17.06 -5.86-3.48-10.02.67-3.57 3.56Z"/><path d="M167.71 118.375c5.91 3.85 7.54 15.28 14.73 15.99 -5.69-4.77-5.42-14.61-10.66-18.96 -5.24-4.36-10-.9-4.08 2.96Z"/><path d="M163.168 120.694c5.24 4.73 5.06 16.27 12.05 18.1 -4.88-5.6-3.07-15.28-7.57-20.39 -4.5-5.12-9.74-2.45-4.5 2.28Z"/><path d="M158.32 122.27c4.43 5.49 2.45 16.86 9.07 19.76 -3.94-6.3-.65-15.57-4.28-21.33 -3.64-5.76-9.23-3.94-4.8 1.55Z"/><path d="M153.283 123.07c3.52 6.12-.22 17.04 5.86 20.94 -2.91-6.83 1.8-15.48-.89-21.73 -2.7-6.256-8.5-5.34-4.98.78Z"/><path d="M148.18 123.08c2.52 6.6-2.88 16.8 2.52 21.6 -1.8-7.2 4.2-15 2.52-21.6 -1.68-6.6-7.56-6.6-5.04 0Z"/><path d="M143.147 122.288c1.45 6.91-5.48 16.14-.89 21.72 -.66-7.4 6.49-14.16 5.86-20.94 -.63-6.79-6.44-7.71-4.98-.79Z"/><path d="M138.295 120.71c.35 7.05-7.93 15.08-4.28 21.32 .51-7.41 8.63-12.97 9.07-19.77 .44-6.8-5.16-8.62-4.8-1.56Z"/><path d="M133.74 118.4c-.76 7.02-10.2 13.66-7.57 20.39 1.66-7.24 10.55-11.46 12.05-18.11 1.5-6.65-3.74-9.32-4.5-2.29Z"/><path d="M129.62 115.412c-1.85 6.82-12.21 11.89-10.66 18.95 2.77-6.89 12.21-9.67 14.73-16 2.52-6.33-2.24-9.79-4.08-2.97Z"/><path d="M126.01 111.81c-2.89 6.44-13.92 9.84-13.5 17.05 3.81-6.37 13.57-7.64 17.05-13.491 3.48-5.86-.68-10.02-3.57-3.57Z"/><path d="M123.01 107.687c-3.86 5.91-15.29 7.54-16 14.735 4.76-5.69 14.604-5.42 18.95-10.66 4.35-5.24.89-10-2.97-4.08Z"/><path d="M120.691 103.14c-4.74 5.24-16.28 5.06-18.11 12.05 5.59-4.88 15.27-3.07 20.39-7.57 5.11-4.5 2.44-9.732-2.29-4.491Z"/><path d="M119.111 98.29c-5.5 4.43-16.87 2.45-19.77 9.07 6.29-3.94 15.56-.65 21.32-4.28 5.75-3.64 3.94-9.229-1.56-4.8Z"/><path d="M118.309 93.26c-6.125 3.52-17.05-.22-20.94 5.86 6.83-2.91 15.47 1.8 21.72-.89 6.256-2.7 5.33-8.5-.79-4.98Z"/><path d="M118.304 88.161c-6.6 2.52-16.8-2.88-21.6 2.52 7.2-1.8 15 4.2 21.6 2.52 6.6-1.68 6.6-7.56 0-5.04Z"/><path d="M119.09 83.124c-6.92 1.45-16.143-5.48-21.73-.89 7.39-.66 14.15 6.49 20.94 5.86 6.78-.63 7.7-6.44.78-4.98Z"/><path d="M120.66 78.273c-7.06.35-15.09-7.94-21.33-4.28 7.4.51 12.96 8.63 19.76 9.07 6.79.44 8.613-5.15 1.55-4.8Z"/><path d="M122.98 73.727c-7.03-.76-13.67-10.2-20.39-7.57 7.23 1.66 11.45 10.55 18.1 12.05 6.64 1.5 9.31-3.74 2.28-4.49Z"/><path d="M125.973 69.59c-6.83-1.85-11.9-12.21-18.96-10.66 6.88 2.77 9.66 12.21 15.99 14.73 6.32 2.52 9.78-2.24 2.96-4.08Z"/><path d="M129.576 65.989c-6.45-2.89-9.85-13.92-17.06-13.5 6.36 3.81 7.63 13.57 13.49 17.05 5.85 3.48 10.01-.68 3.56-3.57Z"/><path d="M133.69 62.98c-5.92-3.86-7.55-15.29-14.74-16 5.68 4.76 5.41 14.604 10.65 18.95 5.23 4.35 9.99.89 4.07-2.97Z"/><path d="M138.24 60.66c-5.25-4.74-5.07-16.28-12.06-18.11 4.87 5.59 3.06 15.27 7.56 20.39 4.49 5.11 9.73 2.44 4.49-2.29Z"/><path d="M143.089 59.089c-4.44-5.5-2.46-16.87-9.08-19.77 3.93 6.29.64 15.564 4.27 21.32 3.63 5.75 9.23 3.94 4.79-1.56Z"/><path d="M148.125 58.286c-3.53-6.125.21-17.05-5.87-20.94 2.9 6.83-1.81 15.47.89 21.72 2.69 6.25 8.49 5.33 4.97-.79Z"/></g><path fill="#E8112D" d="M150.7 58.28a32.4 32.4 0 1 0 0 64.8 32.4 32.4 0 1 0 0-64.8Z"/><path fill="none" fill-rule="evenodd" stroke="#FFEF00" stroke-linecap="round" stroke-linejoin="round" stroke-width="2.4" d="M182.599 90.19c0 17.59-14.26 31.863-31.86 31.86 -17.6 0-31.87-14.26-31.87-31.86v-.01c-.01-17.6 14.26-31.87 31.85-31.87 17.59-.01 31.86 14.26 31.86 31.85v0Z"/><path fill="#FFEF00" d="M150.7 64.61a24.02 24.293 0 1 0 0 48.58 24.02 24.293 0 1 0 0-48.59Z"/><g fill="#E8112D"><path mask="url(#a)" d="M48.73 11.61c-18.77 0-33.982 15.381-33.982 34.355 0 18.97 15.21 34.355 33.982 34.355l-1.93 1.33c-19.494 0-35.3-15.98-35.3-35.686 0-19.71 15.8-35.686 35.29-35.686l1.92 1.33Z" transform="translate(126 64)"/><path mask="url(#b)" d="M45.529 9.338C25.51 9.338 9.3 25.73 9.3 45.966c-.001 20.22 16.22 36.62 36.22 36.62l-1.93 1.48c-20.821 0-37.7-17.07-37.7-38.114C5.89 24.9 22.76 7.83 43.59 7.83l1.92 1.48Z" transform="translate(126 64)"/><path mask="url(#c)" d="M42.325 6.81C20.93 6.81 3.59 24.33 3.59 45.96c0 21.62 17.33 39.15 38.72 39.15l-1.93 1.61C18.11 86.72.06 68.47.06 45.95 .06 23.43 18.11 5.18 40.38 5.18l1.92 1.61Z" transform="translate(126 64)"/><path mask="url(#d)" d="M.67 11.61c18.76 0 33.982 15.381 33.982 34.35 0 18.97-15.22 34.35-33.982 34.35l1.92 1.33c19.49 0 35.29-15.98 35.29-35.69 0-19.71-15.81-35.69-35.298-35.69L.65 11.59Z" transform="translate(126 64)"/><path mask="url(#e)" d="M3.87 9.338c20.009 0 36.23 16.399 36.23 36.62 0 20.22-16.22 36.62-36.23 36.62l1.92 1.48c20.821 0 37.69-17.07 37.69-38.114C43.48 24.89 26.6 7.83 5.78 7.83L3.85 9.31Z" transform="translate(126 64)"/><path mask="url(#f)" d="M7.083 6.81c21.387 0 38.72 17.528 38.72 39.15 0 21.62-17.338 39.15-38.73 39.15l1.92 1.61c22.26 0 40.32-18.25 40.32-40.77 0-22.513-18.052-40.77-40.32-40.77L7.06 6.79Z" transform="translate(126 64)"/></g></svg>