<svg viewBox="0 0 301 181" xmlns="http://www.w3.org/2000/svg"><defs><mask id="a"><path fill="#FFF" d="M.5.5h300v180H.5Z"/></mask></defs><path fill="#CE1126" d="M.5.5h300l-300 180h300Z"/><path fill="#1EB53A" d="M.5.5v180l300-180v180Z"/><path mask="url(#a)" stroke="#FFF" stroke-width="22.5" d="M.5.5l300 180m0-180l-300 180"/><path fill="#FFF" d="M150.5 39.5a51 51 0 1 0 0 102 51 51 0 1 0 0-102Z"/><path fill="#1EB53A" d="M140.108 58.1l3.46 6 -3.47 6h6.92l3.46 6 3.46-6h6.92l-3.47-6 3.46-6h-6.93l-3.47-6 -3.47 6Z"/><path fill="#CE1126" d="M141.97 59.18l2.84 4.92 -2.84 4.92h5.68l2.84 4.92 2.84-4.92h5.68l-2.85-4.92 2.84-4.92h-5.69l-2.85-4.92 -2.84 4.92Z"/><path fill="#1EB53A" d="M117.233 97.475l3.46 6 -3.47 6h6.92l3.46 6 3.46-6h6.92l-3.47-6 3.46-6h-6.93l-3.47-6 -3.47 6Z"/><path fill="#CE1126" d="M119.1 98.55l2.84 4.92 -2.84 4.92h5.68l2.84 4.92 2.84-4.92h5.68l-2.85-4.92 2.84-4.92h-5.69l-2.85-4.92 -2.84 4.92Z"/><path fill="#1EB53A" d="M163.18 97.73l3.46 6 -3.47 6h6.92l3.46 6 3.46-6h6.92l-3.47-6.01 3.46-6h-6.93l-3.47-6 -3.47 6Z"/><path fill="#CE1126" d="M165.055 98.811l2.84 4.92 -2.85 4.92h5.68l2.84 4.91 2.84-4.92h5.68l-2.84-4.92 2.84-4.92h-5.69l-2.84-4.92 -2.85 4.91Z"/></svg>