<svg viewBox="0 0 301 201" xmlns="http://www.w3.org/2000/svg"><path fill="#EFB22D" d="M.5.5h300v200H.5Z"/><path fill="#E23D28" d="M.5 200.5h300V.5Z"/><g stroke-width=".167" fill="#FFF" stroke="#000"><path d="M161.08 63.03c-1.67-.59-2.74.26-2.69 2.41 .05 2.14 1.18 3.38 2.84 2.57l-.17-5Z"/><path d="M162.542 59.01c-1.39-1.1-2.68-.625-3.32 1.42 -.64 2.05.03 3.58 1.86 3.35l1.45-4.78Z"/><path d="M164.846 55.12c-1.2-1.31-2.55-1.05-3.51.875 -.96 1.92-.55 3.53 1.3 3.6l2.19-4.49Zm-1.52 18.91c-2.04.75-2.26 3.54-.97 5.25 1.28 1.71 3.64 2.03 4.93 0l-3.98-5.26Z"/><path d="M160.974 68.127c-1.94-.65-3.68 1.95-3.98 4.29 -.375 2.95-4.57 3.91-2.26 8.37 .48-2.85 2.36-4.4 3.86-4.51 1.5-.11 3.75-.43 4.72-2.26l-2.37-5.91Zm6.11 11.48c-2.26.53-2.58 3.54-.97 5.68 1.37 1.83 5.68 1.39 5.58-.43l-4.62-5.259Zm6.38 18.08c.1-1.94-3.01-2.69-4.51-2.31 -1.51.37-4.38-.06-5.05-1.67 -.54 1.28.24 2.68 2.41 3.38 1.64.52 1.61 1.71 1.12 2.25 1.23.21 4.88.21 6-1.67Z"/><path d="M171.706 85.35c-2.2-.97-3.51.5-4.35 1.93 -1.24 2.09-5.05-.59-6.34 2.2 1.74-.76 3.52.85 4.34 1.39 2.36 1.55 6.92 1.07 7.56-2.58l-1.24-2.96Z"/><path d="M172.993 87.92c-2.2 1.66-3.06 3.64-3.01 4.99 .05 1.34 1.93 4.29 3.97 4.45 1.18-2.42 1.77-7.52-.97-9.45Zm-9.13 10.35c0-.81 1.18-1.13 1.98-.86 .8.26 2.03 1.07 1.61 1.93l-3.6-1.08Zm-12.13-4.4c-.22-.97 1.34-2.63 3.43-1.72 2.09.91 2.36 2.68 1.5 3.38l-4.94-1.67Z"/><path d="M156.842 95.65c-.17-.54 1.34-1.61 3.91-.97 2.57.64 3.2 2.3 3.11 3.59l-7.04-2.63Zm-5.37-1.78c1.34-1.02.83-2.96-.38-3.55 -2.2-1.08-1.4-3.87-2.79-4.4 -1.4-.54-2.74-1.51-2.79-2.47 -.7 1.34-.27 2.57.69 3.43 .96.85-.76 4.34.48 5.25l4.77 1.71Zm-28.77-.76c-1.13-1.78-3.81-1.45-4.94-.22 -1.13 1.23-.97 3.05.1 3.86l4.83-3.65Zm6.43-2.63c-.43-2.37-3.28-2.63-4.83-2.04 -1.56.59-2.63 2.95-1.61 4.66l6.43-2.63Z"/><path d="M133.447 90.18c1.02-1.99-.97-4.94-3.22-5.366 -1.89-.36-4.11-.35-4.83-2.2 -.46 1.61.75 2.63 2.14 3.54 1.39.91-.27 3.27 1.98 4.61l3.91-.6Z"/><path d="M133.232 90.25c-.47-1.43.48-3.32 2.41-3.19 1.92.13 3.02 1.53 2.17 3.28l-4.59-.11Z"/><path d="M137.525 90.35c-.27-1.48.94-3.22 2.83-2.82 1.89.4 2.78 1.94 1.69 3.55l-4.53-.75Z"/><path d="M141.786 91.035c-.2-1.49 1.1-3.17 2.97-2.67 1.86.49 2.68 2.08 1.51 3.63l-4.49-.98Zm-32.38 24.58c-3.6 0-4.48.85-4.991 4.56 -.65 4.61 5.63 5.15 4.991-4.57Z"/><path d="M111.01 110.78c-5.53-2.1-8.54 6.65-14.01 5.09 1.95 3.11 6.7 0 8.47.32 3 .53 9.49-.59 5.52-5.42Zm-3.6 11.96c-2.74-1.24-5.69 2.95-5.16 4.77 .68 2.31 6.92.42 5.15-4.78ZM94.63 140.77c1.5.42 3.32 1.28 3 4.18 -.33 2.89-5.8 8.8-10.732 9.12 -4.94.32-6.71 6.27-10.95 4.61 3.97-.75 3.97-5.26 7.08-6.66 -2.26-.81-3.44 4.29-6.34 4.29s-4.3 4.61-7.84 4.29c-3.55-.33-3.92 5.61-11 5.68 -5.42.05-12.13 6.38-14.55 3.64 5.259-.76 7.381-3.67 10.51-6.87 5.04-5.15 10.732-2.85 12.66-7.41h0c-2.25 1.51-4.91 2.3-7.62 2.25 -3.31-.07-6.93 5.25-10.625 2.89 2.14-.27 3.54-1.19 5.79-3.55 2.308-2.42 5.69-.86 8.37-3.33 4.18-3.87 7.78-.65 11.8-5.48 -1.13-.54-3.55-.17-5.8 1.02 -2.26 1.18-5.16-.81-7.73.59 .32-3.17 6.33-1.36 10.08-3.55 4.23-2.47 7.75-1.75 11.1-1.45 -4.67-.03-6.5-4.46-12.94-3.17 -2.81.56-5.05-3.87-7.84-1.61 .08-1.67 3-3.01 6.01-1.4 3 1.61 4.21-1.41 10.19 2.36 2.46 1.55 6.7-.97 9.39.69 -.35-1.02-1.88-1.67-3.68-1.53 1.125-2.31 8.396-2.01 11.56.29Z"/><path d="M99.426 137.29c-2.37-1.83-5.634.37-7.89-.49 0 1.5.75 3.75 3.21 4.61 .75-.54 4.13-3.49 4.66-4.14Z"/><path d="M103.12 132.09c-3.71-1.88-4.35 2.79-7.244 1.82 .1 1.34 1.18 3 3.54 3.38l3.7-5.21Z"/><path d="M105.329 127.85c-5.48-2.15-6.18 3.11-9.39 2.09 .75 1.82 5.366 2.79 7.72 2.14l1.66-4.24Zm7.51-23.02c-1.45-2.04-4.51-.38-4.99 2.03 -.49 2.41.69 5.79 2.73 5.04l2.253-7.09Z"/><path d="M116.54 98.39c-2.53-.59-5.42-.33-5.1 2.14 -.97.42-1.24 3.59 1.39 4.29l3.7-6.44Z"/><path d="M118.2 96.728c-2.47-2.9-5.23-2.83-6.77-1.61 -2.85 2.25-5.61.96-5.69 3.21 1.71-1.32 3.21.26 4.61-.22 1.39-.49 2.41 2.2 6.27 1.07l1.55-2.47Zm-5.96 43.3c.37.69 2.68 1.02 3.81-.17 1.49-1.57-.17-5.91-2.53-6.23 -2.37-.33-2.58 4.88-1.29 6.38Z"/><path d="M109.568 140.13c3.38 1.23 4.82-1.56 3-3.33 -.49.59-2.26 2.73-3.01 3.32Z"/><path d="M96.9 144.753c-.65 1.93-3.98 2.25-7.73 8.26 -3.76 6-7.36 3.48-8.27 7.62 4.5-3.65 8.04-1.23 10.732-4.83 4.07-5.48 7.43-4.69 9.015-8.38 2.25-5.26 12.12-5.16 12.66-13.42 -3.33-.65-13.85 8.26-16.42 10.73Zm84.67-81.14c4.29 1.39 4.4 6.97 9.33 8.8 4.93 1.82 5.42 6.22 9.44 5.15 -3.76-1.02-3.49-5.366-7.41-6.44 -4.6-1.26-6.34-8.27-9.99-9.34m18.29 30.96c.75 1.71.64 4.77-2.04 5.58 1.44.91 3.59.05 4.77-1.94 -1.78 3.91-.59 7.45 2.2 8.15 -1.35-2.74 1.66-4.03.69-5.8 1.77.75 3.32 3.16 3.27 4.66 2.3-2.58-1.72-6.01-.97-8.43l-7.95-2.253Zm-27.8 27.58c-2.63-2.31-3.76.6-5.05-.41 -1.21-.94-2.82-1.08-3.44-.14 2.25.08 1.15 1.82 5.52 2.25 -4.38.29-3.57 5.17-6.5 4.93 3.11 2.95 4.72-2.63 7.24-1.72 -.76.21 1.18 1.98-.17 4.34 2.17-.06 3.05-3.06 3.32-4.62l-.97-4.67Zm-57.9 25.05c-.97-.81-3.76-1.19-4.83-.54 -1.08.64-.7.8.59.91 1.28.1 2.95 2.19.16 2.3 -1.29.05-.86 3.16-3.55 3.38 1.1 1.34 4.23.45 5.366-1.02 -.22 1.2 1.39 2.3.75 3.75 1.98.21.83-4.03 3.97-3.81 -1.29.16-.76 3.05 1.5 2.3 -1.35.64-.65 2.2.85 1.82 -.97.32-1.29 1.55.05 2.25 1.28-1.77-.16-8.11-4.89-11.375ZM232.4 86.16v-.001c4.1-.01 7.43-3.34 7.43-7.44v0c0-4.11-3.33-7.44-7.44-7.44 -4.11-.01-7.44 3.32-7.44 7.43 0 0 0 0 0 0v0c-.01 4.1 3.32 7.43 7.43 7.43 0 0 0-.01 0-.01Z"/><path d="M193.599 95.17c2.25-2.15 5.68-3.22 8.04-1.61 2.36 1.61 10.19 3.54 14.06.85 3.86-2.69 5.68-4.08 7.4-3.76 1.28 1.93 2.84 2.84 4.77 3 .59.64 2.68 1.18 3.86 1.02 1.71.42 3.81-.11 5.47-1.94 2.57.375 4.99-1.56 5.9-4.46 2.73-.33 2.89-3.39 1.18-5.42 -1.61-.33-.375-5.75-6.23-4.67 2.46 1.5.59 4.5 2.63 5.9 -1.4 0-3.2.59-3.63 2.68 .53-1.45-.09-2.42-.46-2.74 .05-1.24-2.69-4.27-5.26-3.17 1.85.4.8 3.38 2.14 4.5 -.97.05-1.99.53-2.58 1.39 -.7-1.24-3.17-2.53-4.67-2.63 0-.43-.09-1.29-.27-1.72 -.68-1.29-1.24-2.82-.97-4.78 -1.29 1.39-2.37 3.32-3.01 4.72 -2.04-1.4-7.09.64-9.45 1.18 -2.37.53-10.31-.76-12.13-2.69 -1.83-1.94-5.37-3.12-8.7-4.08 -4.58-1.33-4.62-6.34-9.66-9.77 -.11 6.22 9.33 25.97 11.48 28.11Zm-52.59 47.43v0c3.97 0 7.19-3.22 7.19-7.19 0-3.98-3.22-7.19-7.19-7.19 -.01 0-.01 0-.01 0v0c-3.98 0-7.19 3.21-7.19 7.19 0 3.97 3.21 7.19 7.19 7.19Z"/><path d="M123.842 137.08c1.44 1.87 3.91 1.77 4.93 1.61 .85 2.25 3.59 2.2 4.77 3.43 1.18 1.23 5.2 1.12 6.38.42 -1.08-.11-2.47-.75-3.81-1.88 -1.62-1.36-.86-4.08-2.15-5.05 .96-1.08 1.12-2.85.91-3.55 1.02-.6 1.77-1.56 1.87-2.04 1.77-.11 3.32-1.02 3.97-1.72 .91.85 3.21-.27 4.45 1.18 .26-3.55-3.12-5.42-5.37-4.24 -.92-.49-3.33-.17-3.76.48 -.76-.33-2.85.75-3.81 1.44 1.07-.59 1.23-2.37.8-3.01 .91-.38 1.93-1.61 2.03-2.53 1.28.21 3.21-.65 4.07-.43 -1.4-1.83-3.71-2.47-6.07-2.31 -2.45.13-3.49 1.85-3.81 3.7 -1.45.85-1.94 3.75-1.4 4.77 -.84-.03-1.61.77-1.94 1.23 -1.13-.49-2.74-.84-3.9-.84m.51-2.93c-.49-1.4.15-2.66.48-3.76 .83-2.82.32-3.55-2.2-3.17 -.22 1.34 1.07 5.74 1.71 6.92Z"/><path d="M120.756 118.13c.64.64 2.92.93 3.16-1.1 .27-2.35-.68-3.247-2.71-2.34 -.17.53-.35 2.73-.46 3.43Z"/><path d="M121.239 114.62c.85.34 2.71 1.04 3.73-.94 .85-1.67-.27-2.96-2.04-2.85 -.43.48-1.29 2.2-1.7 3.78Z"/><path d="M122.822 110.67c.21.64 2.41 2.79 4.02 1.23 1.61-1.56 1.61-3.87-.81-4.73 -.65.1-2.58 2.36-3.22 3.48Z"/><path d="M126.042 107.19c.48 1.34 1.98 3.64 4.77 2.57 2.79-1.08 1.61-4.57.32-5.26 -.76.05-3.82 1.44-5.1 2.68Z"/><path d="M131.13 104.509c-.22 1.18 0 4.4 3.81 4.34 3.81-.06 2.73-4.51 1.77-5.16 -1.56 0-4.19.05-5.59.8Z"/><path d="M136.88 103.865c-.43.91-1.4 6.91 6.06 5.25 .96-.22 3.48-5.741-6.07-5.26Z"/><path d="M140.95 104.4c-.75.75 1.18 6.81 6.22 5.79 5.04-1.02.8-6.77-6.23-5.8Z"/><path d="M145.25 105.313c-.81 1.66.4 6.6 6.62 6.6 5.64 0-.3-6.5-6.63-6.6Z"/><path d="M150.13 106.76c-.41.92-.9 6.15 6.43 6.6 5.31.32 4.02-7.19-6.44-6.6Z"/><path d="M158.02 108.96c-.92 1.61-1.88 5.634 6.17 5.95 5.15.2 1.98-5.85-6.18-5.96Z"/><path d="M164.73 110.196c-1.18 1.61-.32 4.76 2.68 5.366 3.75.75 4.29-2.79 1.71-4.51 -2.58-1.72-4.4-.86-4.4-.86Z"/><path d="M168.379 110.94c-.86 1.5-.33 5.15 5.36 5.15 1.18 0 5.68-4.62-5.37-5.16Zm-44.06 69.977h-.001c4.61.08 8.41-3.59 8.5-8.2 .08-4.62-3.59-8.42-8.2-8.51 -.11-.01-.22-.01-.32 0v0c-4.62.08-8.28 3.89-8.19 8.5 .08 4.48 3.7 8.1 8.19 8.18Z"/><path d="M185.55 59.54c-.65.64-1.99 2.57-2.26 3.32 -2.79 8.37 4.65 14.62 9.01 23.61 3.43 7.08 3 18.244-2.37 25.32 -1.84 2.42-1.29 3.11-3.65 5.58 -.91.94-1.94 2.14-1.61 5.58 1.5-.54 3.64.85 4.07 2.03 1.07-.54 2.57-.33 3.11.32 1.82-.86 3.32-.43 4.93 1.28 1.39-.22 2.89 0 4.29 1.5 .75-1.51 2.25-2.04 3.32-1.72 -.11-1.94 1.82-3.33 3.54-2.58 -.54-2.58 1.82-4.51 4.07-3.76 1.93-1.51 5.79-1.61 7.72.64 -3.44-.97-3.33 2.68-6.23 2.36 .75 2.14-1.19 3.38-3.12 4.07 1.23-.59 2.57-1.29 3-.54 1.07-.94 3.21-.59 3.75-.11 1.42-.46 2.79-.11 3.43 1.61 1.93 1.18 3.21 4.18 1.82 6.43 -.43-2.37-2.04-2.26-2.69-3.22 -1.51.53-3.01.53-3.44-.43 -.86.85-3.76 1.61-5.05.32 -.49 1.93-2.15 3.54-4.08 3.54 .53 1.5-.97 4.07-2.15 5.36 1.82.96 1.28 3.11.85 4.4 2.79.42.42 2.89 5.25 4.5 -2.36.75-6.98 0-7.62-2.9 -2.37-.11-3.98-2.47-3.87-4.94 -1.83-1.72-2.1-4.19.42-5.91 -2.15.64-3.33-2.79-6.44-1.4 -1.55.69-5.64-.49-5.58-1.94 -.65 1.07-4.57.64-5.1-1.18 -1.29.69-4.3-.49-4.24-2.26 -1.67.75-3.92-.59-3.81-2.31 -1.56-.22-1.72-1.61-1.61-2.79 -1.4-.65-1.02-1.99-.49-3.6 -.97-1.08-.54-2.58.21-3.98 -1.08-1.08-.86-2.37-.54-3.87 -5.16-.43-11.61-1.68-26.4-6.23 -22.33-6.87-28.34 9.23-23.4 19.31 5.69 11.64-.65 14.16 1.28 22.86 2.03.42 3.11 2.14 3 3.97 1.2.05 2.06 1.17 1.63 3.32 1.02-.19 2.33.1 3.19.96 .75-1.4 3.22-1.72 4.5-.11 2.79-.22 4.18 2.03 4.07 4.82 1.5 2.68.96 5.95-.65 8.04 .16-1.13 0-2.74-.06-3.71 -.1-1.78-2.58-2.15-2.31-3.6 -1.29.1-2.53-.6-2.96-1.56 -.76.64-1.83.85-2.74.53 1.44.64 2.57 3.21 2.14 4.93 .75 1.28.59 3.65-.33 4.66 -.43 2.09-2.04 2.84-4.14 1.93 1.18-.75 1.61-2.1 1.55-3.22 -.76-.65-1.13-1.88-1.19-2.63 -2.1.32-4.99-1.45-5.53-2.15v0c-4.62-.01-8.35 3.73-8.35 8.34 -.001 0 0 0 0 0 -.22-1.72-2.39-3.41-2.12-4.86 -1.29-3.98.53-7.68 5.79-8.43 -.65-1.51 1.61-3.06.75-4.78 -1.1-2.2-3.12-5.05-6.12-8.38 1.82-3.12 1.28-7.3.21-9.88 -1.55-3.7-3.01-2.79-8.48 3.21 -8.92 9.79-20.82 7.08-31.34 13.52 -2.8 1.71-5.58 2.36-2.58-.65s10.94-6.01 16.098-8.59c9.64-4.83 17.81-12.88 21.03-28.55 7.56-36.821 35.41-24.69 53.01-17.82 16.524 6.44 13.52-8.16 5.15-16.96 -10.07-10.58-8.05-18.89-3.33-25.55 8.47-1.19 24.738 1.76 21.46 4.61Z"/><path d="M215.44 149.994v0c5.07.07 9.24-3.98 9.31-9.05 .07-5.08-3.98-9.25-9.05-9.32 -.1-.01-.19-.01-.28 0v0c-5.08-.08-9.25 3.97-9.32 9.04 -.08 5.07 3.97 9.24 9.04 9.31 .09 0 .18 0 .27 0Z"/><g stroke-width=".167" fill-rule="evenodd" stroke="#000" fill="none"><path d="M180.399 59.97c-2.04 9.01-.33 13.09 2.68 17.06 6.21 8.2 11.16 26.93 4.07 39.17"/><g stroke-linecap="round" stroke="#000" fill-rule="evenodd" stroke-width=".167" fill="none"><path d="M191.13 105.63c.85-.33 2.46-1.35 2.84-3.12m-2.2-.81c.26-1.56 2.68-2.23 2.73-3.89m-2.69-2.18c-.17-1.61 2.41-3.06 2.03-4.67m-3.44-1.13c-.22-.92 2.14-2.63 1.5-4.08m-3.28-1.56c-.49-1.02 1.12-2.2.42-3.28m-3.01-1.24c-.17-.7.83-2.23.29-3.14m-2.88-2.18c.21-.27 1.07-.92.72-1.72m-2.5-2.18c.34-.19 1.39-.51 1.26-1.29"/><path fill="none" fill-rule="evenodd" stroke="#000" stroke-linecap="round" stroke-linejoin="round" stroke-width=".167" d="M128.02 171.69c-2.15-.76-4.83.32-5.366 2.14m1.61 1.66c.26-1.83 3.05-2.63 3.91-1.78 -1.78-.97-2.63 2.46-1.08 2.57m14.43-43.25c-1.29.64-1.67 3 0 4.77m1.93-4.24c-.92.75-.86 3 .48 3.54 -1.13-.81 0-2.2.8-2.26 .8-.06 1.34.91.375 1.87m73.72 2.14c-3.01-.81-5.42 2.68-2.69 5.79 -.06-3.01 2.09-5 4.72-4.46m-1.21 2.07c-.74 0-1.16.57-1.16 1.14 0 .59.51 1.15 1.34 1.15 .53 0 .96-.62.96-1.1m9.44-67.074c.48 1.82 3 2.57 4.99 2.14m0-1.18c-1.56.05-2.85-1.4-2.74-2.63 0 .91 2.09 1.34 2.73.75"/><path d="M128.77 138.69c-.43-1.08 1.28-2.15 1.34-3.17 .05-1.02 1.93-1.83 3.86.1m-.92-11.43c-.38.16-.7.37-1.02.48m4.72 5.36c-.46.02-1.4-.03-1.91-.38m.02 2.41c-.38.18-1.21.51-1.7.61m-16.72 31.79c-.06.96.91 2.36 1.44 2.79m2.73-5.1c-.54.8-.86 2.2-.54 3.16m8.53.05c-.97-.65-.33-2.31-.43-3.39 -.11-1.08 1.12-2.79 3.54-1.35m-12.13-1.4c.96-.17 1.98-.11 2.62.16m9.6-3.22c-.43.59-.54 1.23-.59 1.66m5.09-1.78c-.76 0-1.4.53-1.72 1.07m-8.7-28.55c.85.29 3.08 1.66 3.16 3.08m5.95-10.07c-2.63-.06-3.65-2.74-1.67-2.74m6.38 6.33c-1.02.42-.54 2.2.91 3.05m-7.19 13.78c-.51-.65.16-2.53 1.82-1.96m2.09 21.54c.1-1.64 2.17-2.61 3-.76m-10.63 5.42c-.14-1.8.77-2.39 1.58-2.5 .8-.11 1.95.56 2.49 1.74m-20.07 2.09c.1-1.08 1.02-2.2 1.98-2.04m96.21-45.61c-.7.51-1.16 2.79 1.5 3m-5.59.75c0 .26.34.64.56.8m12.1 3.48c-.7-.54-2.5 1.63-.86 3.22m-16.21 14.8c-.41-1.53 1.02-1.94 2.36-1.61m-5.8-9.23c.8-.54 1.61-1.13 2.62-1.4m-3.06 7.29c0-1.29.64-2.36 1.23-2.69m3.48-12.13c-.11 1.55.53 3.05 1.02 3.86m11.75-3.76c-.78.24-1.48.53-1.78 1.18m.91 3.21c.37-.33.8-.7.99-.97m19.29-45.88c0 1.5-1.88 2.3-3.12 1.34m7.19-1.29c.83.64 3.7.02 3.03-1.64m-6.52 10.27c-.59-.11-1.61-.76-2.04-1.29m7.94-3.17c-.97.21-1.61 0-2.1-.22m-13.15 5.58c.53 0 1.82-.22 2.71-.68m-4.32-8.83c-.7-.08-1.21.05-1.61.32m12.42 2.3c-.19.67-.68 1.71-1.27 2.17"/><path fill="none" fill-rule="evenodd" stroke="#000" stroke-linecap="round" stroke-linejoin="round" stroke-width=".167" d="M224.453 89.162c1.34-.59 3 3.97 6.22 2.36m.26-4.73c-.43.59-.7 1.5-.76 2.3"/></g><path d="M166.76 79.82c.42-.06 1.18-.22 1.34-.76m-56.56 50.7c1.61.91 2.73 2.46 2.03 4.77m71.743-59.67c.48.32 2.3.32 3.32-.06m1.28 1.12c-.06.75.16 3.59-1.29 4.18m.53-.38c1.34.42 4.02.26 4.88-2.2m-1.88 2.09c.69 1.07.91 3.16-1.18 4.29m1.71-2.53c1.55.53 5.15.59 4.77-2.47m-1.24 2.46c1.07 1.5 5.79 3.27 5.04.16m-9.4 4.18c1.82.42 4.4-.81 3.32-4.03m5.15 1.61c.26 1.23 6.27 2.52 5.47-.27m-1.13 1.6c1.12 2.57 7.08 2.36 5.2-1.08m-.97 2.68c1.18 1.44 6.44.59 4.34-2.9m-.06 2.84c3.27 2.46 7.08-1.08 2.95-3.65m1.87 2.84c2.89 2.3 6.44-1.88 3.91-3.06m-26.84 2.09c.91.26 2.84.16 3.27-1.51m-.73 1.12c-.11 2.44 3.99 3.38 5.04.56m-1.37 1.53c.75 1.61 4.34 2.25 4.93-.06m-.59 1.07c.59 1.61 3.7 1.44 4.56-.22m-1.13 1.07c.96 2.09 4.93 2.09 5.84-.97m-.7 1.34c1.55.96 4.88.59 4.61-2.42m-.65 2.14c2.3 1.87 5.58.05 3.97-3.12m-.17 5.58c1.23-.22 1.87-2.69.59-3.33m-29.19 3.75c2.57-1.4 3.05-3.76 1.28-6.07m.91 3.7c1.61.96 4.66-.06 5.2-2.42m-3.01 2.68c.91 1.18 1.07 2.62-.11 3.97m.85-2.47c2.84-1.78 6.38 1.5 3.75 3.48m-.49-3.65c.64-.17 1.77-1.35 1.87-2.69m-.59 3.91c1.18-1.24 9.23 1.28 4.13 3.86m-.38-7.25c1.55.59 2.36 2.79 0 3.54m2.03 1.82c1.71-1.78 7.08-.65 5.15 1.61m-1.29-2.31c.96-3.28 6.7-1.24 4.82.1m-6.01-3.38c.16.64.21 2.25-.86 3.11m5.68-3.76c.21.53.16 1.55-.33 2.2m3.97-2.15c.32.59.85 1.71-.33 2.62m-45.61-27.32c.05 3.05 1.12 5.09 5.25 3.16m-3.98.48c-2.04 2.73.26 5.68 4.29 2.73M168.96 69c2.79 3 7.78.8 4.56-3.76m3.38 6.33c-.54 2.95 1.87 3.54 3.86 2.2m-14.28-4.3c.5 2.96 3.54 5.31 6.49 3.48m-2.85.59c0 4.23 5.84 4.72 7.19.32m-2.1 2.68c1.87 3.86 5.95 2.3 7.29-.06m-11.43-6.12c.75 1.87 2.25 3.97 5.74 2.41m-16.48-3.33c.48 1.55 3.27 3.43 6.49 1.28m-4.51.69c-1.72 2.52 1.71 4.88 5.84 1.12m-3.82 1.98c.69 3.54 2.09 6.38 7.13 1.82m-2.53 1.82c1.82 2.25 4.61 3.64 7.24-.17"/><path d="M178.52 79.181c-.17 2.68.375 4.02 2.46 3.91 1.65-.09 3.21-1.4 4.13-2.79m-4.51 2.79c-.06 3.05 2.36 5.47 6.86 2.36m-4.99 1.23c-.86 2.3 1.71 6.06 6.76 4.13m-17.45-10.25c-.33 2.95 2.41 4.93 6.81 1.12m-4.67 2.14c.16 2.41 2.89 5.31 6.92 1.12m-4.99 1.93c-.33 4.13 3.48 5.31 6.7 2.14M170.1 83.8c.85.05 1.55-.7 1.98-1.24m-.17 4.23c.75.16 2.04-.54 2.46-1.4m-.59 6.27c.85.91 3.75.26 4.131-.97m-.92.91c1.61 3.75 5.9 3.59 7.67-.65m-.81 1.5c.8 2.2 2.84 3.59 6.17 2.84m-4.57-.59c-1.88 3.05.59 6.65 4.77 3.11m-3.76 1.44c-.22 1.93 1.55 4.13 3.97 4.4m-11.92-10.04c-.65 4.34 2.46 6.43 6.38 4.13m-10.95-2.04c1.02.8 2.84.91 4.56.26m2.09 2.52c-.97 3.64 2.79 6.27 6 2.2m-11.22-4.4c.05 1.87 1.87 3.91 5.04 3.32m8.85 3.75c-2.15 1.44-2.58 4.02.42 5.68m-5.69-6.44c.1 2.2 1.12 3.43 3.54 3.64m-6.71-4.78c-3.22 2.95-.06 6.38 3.75 3.48m-1.51.91c-1.08 3.38 2.95 5.42 5.09 1.98m-11.76-9.18c-1.18 3.32.32 5.52 3.05 5.31m-7.3-5.96c.16 1.98 1.87 2.68 3.81 2.25m-2.58-.17c-1.45 2.79.75 4.29 3.65 3.21m8.8 6.22c-.49 1.77-.22 3.05 2.41 3.64m-2.26-1.13c-3.17 1.44-3.44 4.5-.97 6.49m-1.59-9.9c-1.67 1.5-1.35 4.1.48 5.12M169.32 98.8c-1.83 1.79-.09 6.76 3.94 4.05m6.52 2.22c-2.47 2.03-1.35 5.74 2.73 4.72m-6.82-6.28c-1.29 3.64-.06 4.93 2.84 4.991"/><path d="M166.876 98.874c-2.2 1.66-1.61 4.02-.65 5.09 .96 1.07 2.78.59 3.37-.81m-7.36-5.75c-2.47 3.16 0 6.92 3.48 5.79m9.71 3.59c-2.53.91-4.45 3.2-2.9 5.2 .91 1.18 4.88 1.34 6.01-3.22m-7.68-4.94c-1.45 2.09-.97 4.07 1.71 5.09m-1.88-1.19c-1.56.85-2.58 1.87-2.2 3.75m-1.29-7.03c-.59 2.52.1 4.07 1.66 4.82m-1.72-1.83c-2.42-.17-3.65.85-2.85 3.22m.21-2.63c-2.37-.86-2.74-2.9-1.72-5.05m-.32 3.16c-2.58.1-3.71 1.39-3.71 3.16"/><path d="M159.04 96.191c-1.88.8-2.47 3.32-1.78 4.72 .69 1.39 2.89 1.5 4.24.59m-7.73-7.3c-1.72 1.93.26 5.68 3.32 4.77m-7.73-6.28c-1.61 2.25.16 6.01 4.29 4.93m.21 10.46c-.43-2.69 2.36-4.46 5.79-.97m-1.67-5.42c-1.02.91-1.51 2.36-1.35 3.54m-11.7-13.85c-1.78 3 .37 5.74 4.18 4.66m5.74 2.79c-2.53 2.52-1.67 5.04.21 6.49m-1.83-3.55c-3.81.05-4.03 4.45-.92 5.84m-1.99-10.25c-1.56 1.07-2.04 4.02.64 5.2m-.76 1.39c-1.61-.76-3.55.16-3.39 2.03m.96-1.99c-1.45-3.44-5.69-2.85-5.32.69m6.49-4.94c-.92.16-2.74.69-3.44 2.09m.26-5.96c-1.72 1.93-.38 4.23 1.02 4.72m-6.12-10.15c-.33 2.3.59 3.43 3.48 3.22m-2.47-.27c-1.13 2.79.375 4.02 3.27 3.86m-2.63-.43c-1.72 2.03-.54 4.23 1.12 5.15m-1.93-2.58c-3.06-.38-3.55 3.16-2.53 4.82"/><path d="M139.187 90.28c-1.88.8-2.96 3.16-1.94 4.61 1.02 1.44 3.05.96 4.18.21m-3.55.42c-1.56 2.36-.17 4.13 1.5 4.82"/><path d="M131.89 90.021c-1.24 1.28-.49 3.91 2.52 3.97 2.41.04 3.64-2.26 2.89-3.87m-3.33 3.86c-.97 2.14-.375 4.45 3.27 4.07m1.55 3.38c-2.26-1.02-5.26 0-3.98 2.68m-.33-6.5c-.92 1.28-.59 3.11.42 4.23m-.59-.81c-1.51.26-2.96 1.07-2.04 3.43m-.22-1.94c-1.94-.59-4.4.8-2.9 2.79m-.33-1.88c-1.67-.27-3.65 1.5-2.04 3.27m-.65-1.45c-1.51.37-3.28 2.09-1.72 3.43m9.28-11.86c-2.15.96-2.37 3.38-1.35 5.15m-.92-9.61c-3.22 1.23-3.17 5.52.375 6.86m-1.51-.97c-1.94 1.12-2.31 3.27-1.02 4.66m-2.37-12.19c-1.29.42-1.19 4.4 2.25 4.29m-5.8-2.96c-2.58 1.71.53 6.06 4.72 2.95m-2.31 1.07c-.38 1.77.1 3.7 2.95 3.91m-2.79-1.56c-2.04.75-2.42 4.93 1.28 5.25m-7.79-9.07c-2.63 2.41 2.14 4.5 3.91 1.02m-7.57 3c-1.29 1.55 3.21 5.634 5.2-1.19m.48-.11c.1 1.61 1.07 2.57 3.05 2.68m-.06 1.55c-3.17.48-4.19 4.45-.65 5.31m-5.21-5.85c-.11 1.5 1.44 2.73 3.22 2.46m1.6 3.27c-2.9.64-3.28 4.4-.7 4.18m-1.35 3.48c-2.42-.73-2.47-3.6-.33-4.67"/><path d="M119.549 112.07c-2.04 1.23-1.24 4.18-.17 4.61 1.07.42 1.93-.11 2.03-1.02m-.17 4.13c.21 1.39-4.97.85-2.31-3.49m-.03 3.72c-1.75 2.73 1.1 4.96 2.89 2.63m-2.66.67c-.7 2.2 1.95 3.78 3.67 2.06m-9.47-22.68c-.97 1.98 3.86 2.73 4.18-1.35m-5.53 4.29c-.97 3.86 6.33 3.05 4.45-1.94m.16 2.57c1.01.59 4.07.64 4.82-2.63m-2.2 2.73c.21 1.02 1.12 2.25 1.98 2.63m-5.48-1.61c-.33 2.09 1.77 3.81 4.18 3.64m-3.82-1.61c-1.19 1.61-1.56 4.72 2.14 4.93m-7.78-4.4c-.59 1.66 2.89 3.38 4.93.64m-6.01 3.59c-.3 1.26 2.84 2.95 4.61-2.42m-1.4 2.73c.75 1.34 3.27 2.41 4.82-.22m-2.53 1.61c-.65 1.87 1.12 3.64 3.27 3.11m-7.3-3.55c-.43 2.68 2.68 4.23 4.61 2.84m-6.66-1.67c-.92 3.43 3.48 4.72 5.15 2.14m-1.13 1.02c.16 1.93 3.16 3.59 5.52 1.98m-10.9-.375c-.22.85 3.38 1.71 3.91-1.29m-1.83 2.03c.85 2.2 3.75 2.73 5.42.05m-.97 1.07c.37 2.03 3 3.16 5.31 1.77m.96.8c-.59 2.73 2.25 4.93 4.02 3.43m-8.59-3.92c-.86 3 2.89 4.72 4.99 3.05m-9.497-4.57c-.22 2.79 1.98 4.45 4.5 3.21m-9.29-2.96c-.76 1.82 3.21 3.32 5.09 1.77m-7.57 3.22c1.02 1.18 4.56 0 4.88-2.63m-.97 1.93c1.28 1.5 4.34 2.3 5.58-.92m-1.08 1.66c-.06 2.3 4.07 3.97 5.42-.27m4.85.83c-.38 1.12.51 2.92 2.36 3.13m-5.77-3.84c-.27 1.28 1.61 3.08 3.59 2.36m.37.53c-.54 1.39-.09 3.4 1.79 3.38m-1.61-.78c-1.4 1.18-.81 3.27 1.2 3.35m-1.94-1.37c-1.99 1.34-1.29 4.29 1.34 4.13m-7.36-9.82c0 2.89 3.59 3.32 4.29.64m-1.4 1.71c-.54 1.71.85 3.38 3.05 2.89m-2.63 17.81c.48.69 2.46-.49 1.93-1.67 -.54-1.19-2.64-.54-2.42.69m1.93-1.19c.26-2.37-2.53-2.74-3.22-.7m1.02-1.19c.69-1.19-1.67-2.79-2.63-1.08m.85-.7c.64-1.72-2.04-2.47-2.26-.92m-.59-2.26c.32-.86 3.32-.33 2.03 1.44m2.3 2.14c1.18-1.08-.81-3.28-2.04-2.47m9.98 5.74c-.94.1-1.91.72-1.21 2.71 .48 1.37 2.54 1.44 2.84.61"/><path d="M125.693 152.93c-.92-.59-2.9.4-1.99 2.33 .68 1.45 2.41.85 2.68.1m-5.83.32c.45.8 2.73.45 3.13-.43m-1.59-2.23c.48-.33 1.36.07 1.55.48m-1.72-13.71c-1.56 1.02-.59 4.13 1.82 3.32m-2.31-.81c-1.24.96-.11 3.97 2.2 2.84m-1.83-.01c-.86.85-.03 3.24 2.2 2.79m-2.53-1.61c-.49-.22-1.75-.06-2.29.75m.88-11.62c-1.18 1.12-.62 3.43 1.58 3.62m-2.02-1.27c-1.7.83-1.7 4.18 1.69 4.31m-1.83-.54c-.94.75-.49 3.64 1.93 3.27m-1.16-.11c-.35.34-.41 1.23-.11 1.61m-.97-2.71c-.86.02-1.99.64-2.29 1.52m-1.56-3.12c.32-.86 2.97-.81 3.16 1.71m.26-3.01c-.38.08-1.1.42-1.29 1.15m.13-9.02c-1.16 1.04-1.72 4.34 1.79 4.99m-4.14 1.82c0-.89 2.38-1.64 3.22-.33m-4.75-4.49c.34.67 2.01 1.58 3.03.83m-11.68-6.09c-.06 1.55 1.23 2.95 3 2.73 1.77-.22 2.14-1.78 1.61-2.79m-1.35 2.84c-1.19 1.44.26 3.48 1.61 2.89m-.27-3.92c.69-.27 3-.59 3.7.48m-11.16-.06c-.54.8 2.79 1.61 3.91.05m-1.13.8c-.11 1.07.42 2.89 3.16 2.14"/><path d="M108.763 136.597c.42-.92-1.61-2.42-3.17-.76 -1.56 1.66.21 3.54 1.18 2.89m-5.16-5.75c-.81 1.39 2.3 3.94 4.07 1.58"/><path d="M99.56 135.41c-1.13 1.15.26 3.27 1.95 2.62 1.69-.65 1.52-2.42 1.12-2.87"/><path d="M97.38 137.563c-.92.83-.03 2.79 1.23 2.79s2.03-1 1.79-2.26m2.09-.7c-.17 1.23 1.66 2.09 2.84.94m.05-2.26c.16-.27.02-.73-.25-.94m-9.74 4.07c-1.05.83 1.2 3.13 2.62 1.01m5.44-1.48c-.68.64.4 2.33 1.47 1.82m-5.16-.65c.16 1.15 2.41 2.01 3.83.24m-2.61.91c-.35.72.34 1.87 1.2 1.71m20.14 4.91c-.84 1.63 1.82 3.54 3.75 1.55m-1.83.88c-.41.88.08 2.11.8 2.57m-3.33-.73c.18-.81 1.34-1.56 2.38-1.18m-3.79-.95c.16-.73 1.12-1.45 1.85-1.26m61.33-32.23c-3.81.05-2.2 6.17 1.07 4.93m-2.31-.43c-.76 1.23.69 3.19 2.3 2.03m-.43.24c-1.13 1.87 2.89 4.74 4.5 1.79m-1.29 1.12c.05 1.77 5.2 2.89 4.45-.65m-.49 1.93c1.23 2.09 5.84 2.3 5.36-.81m-1.02 2.14c.96 1.39 5.47 2.25 5.31-.65m-23.62-17.01c.64 1.66 2.84 2.25 5.25 1.28m-6.66-.11c1.5.96-.7 5.36-3.01 3.59m3-.86c1.66.8 3.7.21 4.29-2.15m-1.02 1.82c.16 1.23 1.93 2.2 4.23 1.71m-8.38-.43c2.14 1.82-.97 5.58-2.37 3.86m3.16-2.47c1.02.75 3.64.32 3.91-1.67m-1.19 1.66c.21 1.28 1.23 1.77 2.68 1.82m-6.01-.06c1.07 1.5 3.75 1.93 4.93-.06m-1.18 1.12c-.11 1.44 1.5 2.62 3.16 2.3m-9.02.91c1.39.69 2.89-1.94 1.71-3.76m-.11 6.54c1.66.1 1.87-2.42.32-3.81m3.48 6.11c1.39-.33.96-3.38-2.42-3.65m6.65 5.9c1.34-.38.26-3.76-3.44-3.55m8.53 4.72c.91-1.4-2.1-3.76-4.57-2.53m7.08 4.45c1.66.48 2.79-3.92-2.47-3.22m5.52 3.21c1.45-.375 2.46-3.01-1.77-2.15m4.99 2.36c1.28.64 1.87-3.12-2.04-2.1m-19.59-9.61c1.61.91 4.13-.17 3.91-2.2m-.65 1.77c.53.96.32 2.84-.7 3.32m.85-1.08c1.07.42 2.52.05 3.38-1.67m-1.51 1.66c.32.75.42 2.25-.27 3m.53-1.72c1.18.64 2.57-.22 3.16-1.45m-.76 1.07c.85.53 1.61 3.05.16 4.07m.8-1.18c1.01.05 2.52.05 3.48-1.24m-.7.69c.91.26 1.98 1.77 1.61 3.11m.05-.49c1.02-.11 2.79-.81 3.27-2.04m-.49.8c.86.48 1.45 1.5 1.34 2.68m0-.86c1.02-.06 1.93-.59 2.2-1.72m-.27.75c.75.26 1.66 1.12 1.71 2.14m-.11-.65c.75-.11 1.28-.59 1.77-1.35m2.03-.11c.96.96-.33 4.18-2.31 3.59m-18.3-68.63c-1.99 1.18-7.63.8-4.83-3.87m5.36.69c-3.92 1.55-8.75-1.45-3.71-4.73m-1.35-1.08c-3.28 0-5.48 5.259-1.08 7.08m-11.65-4.89c-.86 1.66 2.2 3.48 4.29 1.82 1.62-1.29 1.5-4.78.53-6.12m-6.5 8.26c-1.08 3.54 6.81 3.75 5.58-1.88m-6.01 7.13c.26 2.68 7.56 1.82 5.2-3.6m.86-1.51c.59.8 2.2 2.2 4.93 1.93m-3.65-5.75c.24.96 1.87 1.71 3.97.99M93.88 139.5c-1.86 1.31.99 3.38 2.03 1.1m-3.49-.08c-1.86 1.31.99 3.37 2.03 1.09m-3.57-.11c-1.86 1.31.99 3.38 2.03 1.1m-3.65-.19c-1.78.93.29 3.24 2.09 1.2m-3.84-.33c-1.78.93.29 3.24 2.09 1.2m6.89-3.98c-.03 1.36 2.57 1.93 3.51-.11m-1.88 1.36c-.81 1.02.67 2.28 1.47 1.82m-4.94-2.02c-.09 1.15 2.17 1.82 3.27.56m-2.04.64c-.73.93.69 2.2 1.61 1.82m-4.35-1.99c.08.91 1.36 1.95 2.76 1.36m-1.94-.14c-.54.48-.27 1.61.48 1.96m-3.28-2.05c-.22.83 1.2 2.3 2.65 1.34m-2.37-.38c-.86.67-.76 1.69.34 1.82m-2.42-1.94c-.11.56.61 1.47 1.53 1.36m-6.12-1.43c-.86.45 1.34 2.79 2.7.61m-4.83.34c-1.08.51 1.58 3.08 2.76.45m4.18-.57c-.84.18-1.37 1.39-.68 1.87m-2.04-1.45c-.11.48.91 1.28 1.74.99m-2.45-.78c-.81.51-.38 1.93.56 1.71m-3.44-.78c-.76.56-.25 1.69.8 1.42m.56-1.51c.02.29.69.75 1.26.56m-5.24-1.05c-.94.4-.89 2.76 2.28 1.47m-4.4-.54c-1.32.64-.89 2.41 1.98.72m.24.13c-.35.26-.73 1.44.59.99m-3.01-.43c-.54.48-.19 1.47.99 1.1m-3.76-.94c-.97.56 1.15 1.31 2.57-.19m-1.94.88c-.43.42-.43 1.69.69 1.23m-3.44-.73c-.65.48.45 1.12 2.46.24m-1.67.45c-.76.61-.68 1.39.42 1.15m-2.66-.81c-.84.75.37 1.26 1.82.64m-1.8.18c-1.43.64-.81 1.82.08 1.36m47.4 2.73c-.33.71.75 1.28 1.77 1.12 .97-.16 1.91-.97 1.18-2.1m.05 1.39c.96.75 2.68-.11 2.68-1.24"/></g><path d="M182.49 43.444c-4.3-2.15-13.2-6.12-15.73-2.9 2.3-.97 9.06.05 14.64 5.2l1.07-2.31Z"/><path d="M185.09 43.216c-4.97-5.79-7.89-4.49-11.46-6.48 -3.36-1.88-8.7-2.26-9.73.72 4.89-2.39 9.39 1.28 12.15 1.72 3.79.6 5.93 3.54 7.04 4.89l1.98-.87Zm18.7-.74c-2.58-5.91-8.09-4.37-10.518-6.87 -3.54-3.65-12.51-7.029-16.21-4.51 8.15-.43 11.62 5.62 15.99 7.727 3.11 1.5 6.44 4.72 10.732 3.64Z"/><path d="M194.13 41.83c-4.4-5.48-11.17-10.303-14.28-8.48 4.07.21 5.36 3.05 8.26 4.88 2.89 1.82 1.6 4.45 6 3.59Zm-20.93 9.65c-4.62-1.72-13.63-2.58-17.82 2.683 6.97 1.18 17.49.53 17.81-2.683Z"/><path d="M172.35 53.53c-4.62-2.15-8.22.85-12.56.42 -8.262-.81-14.17-.33-14.92 3.64 4.72-4.24 12.66-.76 15.88-1.61 3.21-.86 15.13-.11 18.887 1.5 -1.94-2.36-4.94-3.01-7.3-3.97Zm14.48-12.29c-1.08-3.55-1.02-7.3 4.29-7.03 -1.35-1.67-6.28-2.53-7.09 3.7 -5.85-4.3-12.24-5.05-13.42-1.35 3-2.58 7.67-.7 13.25 5.634 .48-.27 1.77-.81 2.95-.97Z"/><path d="M178.789 46.127c-3.33-2.15-7.84-5.634.05-7.03 -3.39-1.83-8.32-1.02-7.79 5.2 -9.02-3.65-15.49-2.42-16.85 1.18 -1.51 3.97 4.07 6.17 5.04 3.64 -1.02.42-4.51-.76-2.69-3.01 1.82-2.26 11.17-.57 20.07 4.07 2.46 1.28 10.94 1.07 2.14-4.08Z"/><path d="M176.42 52.03c-2.57-5.241-10.893-.49-12.58-5.56 -2.3 7.43 11.84 3.32 12.57 5.55Zm52.96 5.68c1.74.86 3.25-.5.58-1.57 1.74.86 3.27-.47.6-1.54 1.74.86 3.27-.47.6-1.54 -.72.71-1.74 3.34-1.79 4.634Zm.91-10.09c3.86-4.08-.33-5.48 4.4-9.66 3.86-3.43.73-5.71 4.4-8.38 1.18-.86 3.75-2.58 3.97-4.3 1.55 3.86-4.84 4.4-4.41 10.625 .27 3.96-2.41 3.61-3.44 10.302 -.22 1.39-1.18 4.509-4.94 1.39Z"/><path d="M232.01 49.45c2.14-4.62 4.61-4.53 5.79-6.34 2.25-3.44 7.02.59 11.05-2.47 -.7 4.34-6.12 2.79-8.48 5.58 -2.37 2.79-4.3 4.07-8.38 3.22Z"/><path d="M232.55 50.95c3.75-3.01 6.52-1 9.12-2.58 6.54-3.98 9.17.8 15.02-1.08 -1.56 3.75-10.2.53-13.96 3.32 -3.76 2.79-16.958 5.47-10.2.32ZM221.6 72.36c-.06-1.72-1.67-3.92-3.92-4.19 -2.26-.27-3.22-2.63-4.94-2.74 -1.72-.11-2.85-3.55-5.21-3.49 -2.37.05-3.33 3.11 2.2 5.9 5.52 2.79 11.643 6.01 11.85 4.5Zm-6.98 1.44c-2.37.1-2.69 3.54-4.94 3.64 3.11 1.66 5.36-.76 6.97-2.9l-2.04-.76Z"/><path d="M216.56 74.24c-2.04 1.71-2.63 5.31.32 6.33 -1.78-2.45 3.11-3.55 1.61-5.8l-1.94-.54Z"/><path d="M218.604 74.352c-1.61 3.11 2.52 3.48 1.44 5.84 2.36-.54 2.73-4.991.59-6.18l-2.04.32Z"/><path d="M202.82 67.698c3.86-.22 7.39 1.87 9.76 5.259 1.5 2.14 6.54 3 8.26 1.28 1.71-1.72.75-5.366-3.55-4.19 -1.08-1.83-4.19-1.19-5.69-2.69 -1.51-1.51-7.3-5.8-8.81.32Z"/><path fill="#FFF" stroke="#000" stroke-linecap="round" stroke-width=".167" d="M217.31 70.059c-1.02.21-1.35 1.98-.7 2.89m2.89-1.83c.32.53.1 1.28-.06 1.66m-10.52-4.94c1.98.1 2.36 1.55 4.5 2.09"/><path d="M207.63 62.976c6.85 1.71 12.29 3.22 15.67 5.15 3.37 1.93 8.59 2.46 13.16 1.18 4.57-1.29 13.38-2.47 12.95 3.21 2.39-2.85-.66-5.91-6.75-6.44 .11-2.79-2.88-5.32-5.03-3.65 1.98-.27 3.7 3.43-.22 4.93 .76-2.79-2.02-5.32-4.9-4.08 1.85.53 3.72 3.63-.42 4.82 -2.62.75-6.43-.22-9.25-1.94 -2.83-1.72-18.72-7.95-15.24-3.22Z"/><path d="M224.936 60.18c-2.15.96-.76 3.21-4.08 4.5 -3.33 1.28-5.64 4.23-4.89 6.76 2.25-4.94 6.22-4.73 7.619-6.66 1.39-1.94 3.43-4.78 1.34-4.62Z"/><path d="M225.52 60.5c-.11 3.91-3.19 2.49-1.99 7.99 .37 1.71 1.07 4.5-.11 7.29 3.46-2.53 1.23-7.82 2.79-9.82 .75-.97 1.71-2.47 2.09-3.76 -.81 2.25-.76 6.439 1.44 7.51 -1.78-4.19 4.77-7.62.26-12.45 -.65 1.18-2.69 3.27-4.51 3.22Zm-10.95-3.92c.53.8 1.07 2.84.59 3.97 1.07-.65 2.63-2.31 3.11-3.44 2.2.32 3.05 3.05.96 4.23 1.28 0 3.48 0 4.72-1.45 -1.51-1.67-6.17-4.24-9.39-3.33Z"/><path d="M181.2 48.892c-.35-.32-.94-.62-1.99-.84 -3.25-.67-1.58-3.6 1.19-3.57 5.9-6.439 9.21-1.48 16.4-3.52 2.51-.72 4.244-.51 5.61.09 3.22-2.15 6.99-1.55 9.73.97 .3-.49.71-.86 1.28-1.02 2.52-.7 4.56 1.44 5.25 4.24 1.96-.37 4.21.6 5.68 1.95 2.04-1.05 3.45-1.1 3.97-.02 1.82-.86 4.18-1.4 5.369 1.5 1.18 2.89-2.79 2.03-3.44 8.15 -.4 3.77-4.62 5.259-7.95 3 -5.33-3.61-10.52-4.186-13.1 1.28 -2.58 5.47-4.6 8.65-10.84 6.86 -2.26-.65-5.16.21-6.98 2.68 -1.83 2.46-4.62.16-7.95.42 4.18-.65 2.58-1.7 6.22-1.94 3.32-.22 2.46-3.33 4.61-3.76 -8.38 2.14-8.05-.97-14.92 1.18 3-3.87 7.72-1.72 10.08-3.98 -6.23-.11-9.01-4.18-11.81-2.47 -4.4 2.683-2.47 10.32-13.96 9.65 -5.59-.33-9.13.42-12.45 3.75 5.79-12.02 13.67-5.42 17.49-9.229 2.25-2.26 3.97-3.98 5.15-6.12 .41-.76.97-1.19 1.68-1.36 -9.55-3.01-3.78-7.69 5.56-8.01Z"/><path fill="#FFF" stroke="#000" stroke-linecap="round" stroke-width=".167" d="M228.364 47.203c.14.3.22.69.22 1.17 0 2.36-3.55 2.46-3.76 5.95 -.12 1.82-.33 2.84-1.56 2.62 -1.24-.22-2.31-2.15-1.13-4.4"/><path d="M182.974 45.37c-.89-.63-1.78-.88-2.58-.89m22.01-3.45c2.84 1.23 4.22 4.18 8.35 4.32 3.97.14 6.44 5.9 13.09 2.14 .18-.11.35-.2.52-.29m-12.23-5.2c-.6.94-.73 2.25-.57 3.41m-12.43 8.72c-5.05 0-6.34 2.57-6.34 5.04 0 2.46 2.36 5.68 6.54 5.68s6.43-2.58 6.43-5.37c0-2.8-2.58-5.366-6.66-5.366Z"/><path d="M200.092 64.801c-.11-1.4-2.63-1.19-2.53-2.26 .1-1.08 1.39-1.51 1.39-3.01 0-1.51 2.25-1.61 3-.43 .75 1.18 3 3.48 3.48 2.3m-3.49-2.31c-1.18 1.18-1.72 3.59-.17 5.47m1.77-3.65c-.375.8-.49 2.03-.06 2.79"/><path fill="none" fill-rule="evenodd" stroke="#000" stroke-width=".167" d="M223.62 56.993c3.94.32 4.61-4.03 1.66-4.3m-6.52-7.44c-1.37-1.75-4.51-2.34-4.57 1.36"/><path d="M213.82 50.84c-1.35-3.33-4.78-3.81-6.61-2.15 -1.52 1.38-1.56 4.991 1.71 5.74 1.12-1.35 3.32-3.12 4.88-3.6Zm-1.48-2.1c-1.94-1.72-4.78 1.53-2.2 4.5"/></g><path d="M218.765 45.26c-1.18-1.27-3.76-.27-3.04 2.28 .56-1.18 1.77-2.18 3.03-2.29Zm-7.3 6.87c.81-.59 1.65-1.08 2.35-1.3 -.39-.96-.95-1.68-1.59-2.18 -.62-.43-2.38 1.94-.78 3.47Z"/><path fill="none" fill-rule="evenodd" stroke="#000" stroke-linecap="round" stroke-width=".167" d="M208.301 47.79c-1.94-1.29-3.71-1.18-4.3-.11 -1.4-.06-2.55.96-2.61 3m2.98.85c-2.31-1.59-5.48-1-5.26 2.54m-1.4 2.01c1.12-.92 2.73-1.56 3.97.05m13.25-3.55c-.43.59-.76 1.5-.06 2.89 -.86-1.13-3.01-1.13-5.32 1.87m10.46-4.94c-2.79.32-2.74 2.14-.49 2.95m-19.38-9.77c-2.37-.49-4.08.91-.81 2.09m5.31-3.71c-3.33-.81-4.67.05-3.17.8m-6.44 12.55c-.11 1.18.53 2.73 2.46.96m-1.83 2.57c0 .32-.06.69-.27.96m-7.46-16.69c-2.04-.59-2.42-2.47-.06-2.31m-.65 6.65c-2.26-.76-2.26-2.96-.38-2.74m4.56 1.61c-2.63-.65-2.74-2.47-.75-2.2m1.07-3.38c-1.4-.11-3.55 1.44.05 2.36m3.86.75c-3.28-.49-3.22.85-1.29 1.71m3.75-4.83c-2.53-.49-3.39 1.02-1.67 1.66m-6.28 7.61c-.62-.51-1.13-2.96 1.82-2.23m4.29 1.47c-1.99-.54-3.87 1.39-2.04 2.52m4.66-4.83c-2.1-.38-3.87.21-2.74.96"/><path fill="#FFF" stroke="#000" stroke-width=".167" d="M175.6 56.88c1.29-.31 3.18.32 6.08 1.689 1.82.85 7.29 2.683 10.732.85 -3.55 1.28-6.23-4.08-8.91-3.44 -2.69.64-7.6 1.63-9.66-.33 5.04.32 7.756-3.68 13.52-.22 1.61.96 3.65 1.61 5.47 1.5 -4.73-5.69-10.95-2.04-11.59-6.66 2.84 3.05 9.79-.7 13.33 5.04m24.06-10.09c-1.18.21-2.24.91-2.93 2.28m-33.46 3.61c-.67-.83-.37-1.65-1.08-2.31"/></svg>