<svg viewBox="0 0 301 151" xmlns="http://www.w3.org/2000/svg"><path fill="#C4272F" d="M.5.5h300v150H.5Z"/><path fill="#015197" d="M100.5.5h100v150h-100Z"/><path fill="#F9CF02" d="M50.5 38a13.75 13.75 0 1 0 0 27.5 13.75 13.75 0 1 0 0-27.5Z"/><path fill="#C4272F" d="M50.5 30.5a15 15 0 1 0 0 30 15 15 0 1 0 0-30Z"/><g fill="#F9CF02"><path d="M50.5 38a10 10 0 1 0 0 20 10 10 0 1 0 0-20Z"/><path d="M44.25 29.25v-.001c.06 3.45 2.91 6.19 6.36 6.13 3.36-.07 6.07-2.78 6.13-6.14 0-2.5-1.57-2.82-1.57-3.75 0-.94.93-2.19-.94-3.75 .93 1.56-.625 1.875-.625 3.43 0 1.56.625 1.56.625 2.81v0c0 .69-.56 1.25-1.25 1.25 -.7 0-1.25-.56-1.25-1.25 0-1.25 1.25-2.5 1.25-4.375s-.32-2.5-1.25-4.07c-.94-1.57-2.5-2.82-1.25-4.07 -1.875.625-.94 3.125-.94 4.68 0 1.56-1.25 2.5-1.25 4.375s.93 2.18.93 3.43v0c0 .69-.56 1.25-1.25 1.25 -.7 0-1.25-.56-1.25-1.25 0-1.25.625-1.25.625-2.82 0-1.57-1.57-1.875-.625-3.44 -1.875 1.56-.94 2.81-.94 3.75 0 .93-1.561 1.25-1.561 3.75ZM23 68h12.5v60H23Zm42.5 0H78v60H65.5ZM38 78h25v5H38Zm0 35h25v5H38Zm0-45l12.5 7.5L63 68Zm0 52.5l12.5 7.5 12.5-7.5Z"/><path fill="#F9CF02" stroke="#C4272F" stroke-width="1.5" d="M50.5 84.75a13.25 13.25 0 1 0 0 26.5 13.25 13.25 0 1 0 0-26.5Z"/></g><path fill="none" fill-rule="evenodd" stroke="#C4272F" stroke-width="1.5" d="M50.5 84.75v0c3.65 0 6.625 2.96 6.625 6.625 0 3.65-2.97 6.625-6.625 6.625v0c-3.66 0-6.625 2.96-6.625 6.625 0 3.65 2.96 6.625 6.625 6.625"/><g fill="#C4272F"><path d="M50.5 88.87a2.5 2.5 0 1 0 0 5 2.5 2.5 0 1 0 0-5Z"/><path d="M50.5 102.12a2.5 2.5 0 1 0 0 5 2.5 2.5 0 1 0 0-5Z"/></g></svg>