<svg viewBox="0 0 301 151" xmlns="http://www.w3.org/2000/svg"><path fill="#0038A8" d="M.5.5h300v150H.5Z"/><path fill="#CE1126" d="M.5 75.5h300v75H.5Z"/><path fill="#FFF" d="M130.404 75.5L.5 150.5V.5"/><g fill="#FCD116"><path d="M47.167 60.5a15 15 0 1 0 0 30 15 15 0 1 0 0-30Z"/><path d="M15.5 75.5l1.94 1.94 29.719-1.95 -29.719-1.95Z"/><path d="M18.83 79.23l1.59 1.58 26.74-5.32Z"/><path d="M18.83 71.77l1.59-1.59 26.74 5.32Z"/><path d="M24.77 53.1v2.75l22.392 19.63 -19.64-22.4Zm-.29 4.99v2.24l22.673 15.14Zm5.276-5.28h2.24l15.14 22.67Zm17.397-9l-1.95 1.94 1.94 29.719 1.94-29.719Z"/><path d="M43.437 47.16l-1.59 1.59 5.32 26.74Zm7.46 0l1.59 1.59 -5.32 26.74Zm18.662 5.942h-2.76L47.16 75.49l22.39-19.64Zm-5-.28h-2.25l-15.15 22.67Zm5.27 5.27v2.24L47.14 75.47Zm8.99 17.39l-1.95-1.95 -29.72 1.94 29.71 1.94Z"/><path d="M75.5 71.77l-1.59-1.59 -26.744 5.32Z"/><path d="M75.5 79.23l-1.59 1.58 -26.744-5.32Zm-5.95 18.66v-2.76l-22.4-19.637 19.637 22.39Zm.28-5v-2.25L47.15 75.49Zm-5.28 5.27H62.3L47.15 75.48Z"/><path d="M47.167 107.166l1.94-1.95 -1.95-29.72 -1.95 29.71Zm3.73-3.34l1.59-1.59 -5.32-26.744Zm-7.46 0l-1.59-1.59 5.32-26.744Z"/><path d="M24.77 97.892h2.75l19.637-22.4L24.76 95.12Z"/><path d="M29.77 98.17h2.24l15.14-22.68Z"/><path d="M24.494 92.89v-2.25l22.67-15.15ZM4.01 22.43l5.92.74 1.36 5.811 2.53-5.41 5.94.5 -4.36-4.09 2.31-5.5 -5.23 2.87 -4.52-3.91 1.12 5.86Zm0 106.12l5.106 3.08 -1.13 5.86 4.51-3.91 5.22 2.87 -2.32-5.5 4.353-4.09 -5.95.5 -2.54-5.41 -1.36 5.81Zm96.31-57.96l3.4 4.89 -3.41 4.89 5.71-1.73 3.6 4.75 .12-5.97 5.63-1.96 -5.64-1.96 -.13-5.97 -3.61 4.756Z"/></g></svg>