<svg viewBox="0 0 301 181" xmlns="http://www.w3.org/2000/svg"><path fill="#00209F" d="M.5.5h300v180H.5Z"/><path fill="#D21034" d="M.5 90.5h300v90H.5Z"/><path fill="#FFF" d="M122.1 67.87h56.78v45.205h-56.79Z"/><g stroke-width=".15" fill="#016A16" stroke="#016A16"><path d="M161.928 100.55l-11.59.33 -11.54.13s-5.93 2.19-8.35 2.68c-2.42.49-2.11 1.28-3.98 1.7 -1.5.33-1.67.43-2.55.49 -.54.03-1.19.44-1.83.89v6.27h56.78v-5.97 0c-.58-.31-1.18-.57-1.81-.77 -.84-.29-1.4-.6-2.9-.93 -1.87-.42-1.56-1.22-3.98-1.71 -2.43-.49-8.3-3.16-8.3-3.16Zm-12.18-24.7l-.28 5.44h1.74l-.26-5.4 1.81-.26 -.21-2.15 -4.51.17 .02 1.95Z"/><g fill="#F1B517" stroke="#000"><path d="M145.64 90.82l-1.52-3.26 .65-.14 2.76 5.4Z"/><path fill="#FFF" d="M142.14 83.767l1.67 4.57h.85Z"/><path d="M147.218 86.6l.83-.02 1.53 6.44 -.33 2.03Z"/><path d="M147.933 93.25l-2.58-6.93 .96-.06 3 8.46Z"/><path fill="#FFF" d="M144.151 82.386l1.06 4.81h.85Zm2.18-.08l.57 4.97 .61-.04Z"/><path fill="#0A328C" d="M145.84 91.319l-6.87-7.491c-2.15 1.69-1.75 4.81-1.75 4.81l7.77 6.1 .83-3.43Z"/><path fill="#D20014" d="M149.816 95.44l-5.09-5.16c-2.16.07-.45 3.28-.34 3.69l5.42 4.64v-3.18Z"/><path d="M149.383 94.55l-10.53-11.27 -.41.29 11.13 12.37Zm-11.131-12l-.24-.27 .02-.54 -2.18-1.39 .97 2.18 .73.13 .23.26Z"/><path d="M137.14 83.36c.37-.45.8-.9 1.59-1.32l.6.86 -1.3 1.09 -.91-.65Z"/><path fill="#0A328C" d="M142.85 93.3l-8.62-6.85c-1.48 1.5-.25 6.13-.25 6.13l8.42 4.56 .44-3.86Z"/><path fill="#D20014" d="M150 98.85l-7.1-5.69c-2.43.34-.52 3.9-.38 4.29l7.48 4.06 -.03-2.68Z"/><path d="M149.71 97.7l-15.34-11.509 -.36.35 16.1 12.57Zm-16.07-12.12l-.28-.23 -.08-.54 -2.39-1 1.34 1.98 .75 0 .27.22Z"/><path d="M132.7 86.56v0c.33-.61.78-1.15 1.33-1.57l.74.75 -1.08 1.29 -1.01-.49Z"/><path fill="#0A328C" d="M142.23 97.49c-.12-.03-11.11-6.27-11.11-6.27 -.8 1.35-.08 3.31.27 3.61 .02.9-.37 1.38.42 3.26 .23 1.22.79 2.34 1.62 3.01 1 3.85 4.93 4.1 6.44.97l2.34-4.61Z"/><path fill="#D20014" d="M149.511 101.607l-7.53-4.42c-2.43.34.05 4.83.19 5.22l7.27 2.58 .06-3.4Z"/><path d="M148.24 100.007l-17.01-9.06 -.29.4 17.94 9.988Zm-17.83-9.55l-.31-.18 -.16-.52 -2.52-.63 1.65 1.76 .74-.11 .3.18Z"/><path d="M129.64 91.569v-.001c.22-.65.58-1.25 1.06-1.75l.86.63 -.86 1.43 -1.07-.33Z"/></g><path fill="#0A328C" stroke="#0A328C" d="M135.98 85.26l.35.61c.21-.09 2.41-2.08 2.41-2.08l1.57-.05 .45-.51c-1.16-1.25-2.26.17-2.26.17l-2.56 1.83Z"/><path fill="#D20014" stroke="#D20014" d="M137.246 86.3c.08-.56 1.12-1.93 1.27-1.98 .78.23 1.5.68 2.3-1.11 -.69.875-2.09-.02-2.09-.02l-.61.5 .01.24 -1.83 1.7 .92.64Z"/><path fill="#0A328C" stroke="#0A328C" d="M131.85 88.485l.09.63c.2-.12 2.13-2.24 2.13-2.24l1.55-.29 .31-.5c-1.08-1.27-2.23.41-2.23.41l-1.88 1.96Z"/><path fill="#D20014" stroke="#D20014" d="M133.08 89.62c-.08-.59.73-2.32.87-2.39 .92.27 1.73.69 2.07-1.25 -.54.96-2.08.21-2.08.21l-.52.58 .07.31 -1.57 2.02 1.13.48Z"/><path fill="#0A328C" stroke="#0A328C" d="M128.96 93.6l.35.7c.18-.14 1.8-2.747 1.8-2.747l1.49-.5 .28-.61c-1.21-1.11-2.1.8-2.1.8l-1.84 2.34Z"/><path fill="#D20014" stroke="#D20014" d="M130.56 94.6c-.12-.6.29-2.52.42-2.61 .93.28 1.71.35 1.93-1.58 -.55.91-2 .57-2 .57l-.43.65 .09.22 -1.24 2.37 1.21.35Z"/><g fill="#F1B517" stroke="#000"><path d="M148.121 104.17l-4.24-1.32 -1.85-3.16 -6.54-.33 .22 2.36 5.56 1.06 .52.94 6.4 1.78Z"/><path fill="#503200" d="M143.697 105.05l-6.69-9.84 -.33.24 6.63 9.88Z"/><path fill="#FFF" d="M137.63 95.6l-.72-1.2c-.14-.22-.34-.3-.64-.14 -.3.15-.27.45-.15.67l.66 1.11 .83-.46Z"/><path d="M144.491 98.976l-13.5-1.38 -.33 1.96 13.43 1.35Z"/><path d="M130.753 97.09l-.35 2.72h.56l.39-2.5Zm2.25.44l-.16 2.44 .35.04 .28-2.18Zm9.14 1.05l-.33 2.3 .65-.03 .26-2.28Zm2.01.06l-.47 2.66 .74.1 .21-1.4c.06.28.31.49.62.49v0c.34 0 .63-.28.64-.62l-.001-.001c-.01-.35-.3-.63-.65-.62v0c-.26-.01-.49.16-.57.41l.13-1 -.69-.05Zm-4.88.43l-1.86 2.08 .21.25 2.38-1.63Zm-4.32 5.2l1.85-2.09 -.22-.26 -2.39 1.62Zm4.85-.53l-2.26-1.75 -.24.16 1.77 2.253Zm-5.57-4.03l2.29 1.68 .27-.21 -1.8-2.26Zm2.49-1.4l.21 2.74 .3-.02 .72-2.68Zm.75 6.65l-.22-2.75 -.34-.04 -.42 2.77h.97Zm3.03-3.7l-2.88.3 -.05.27 2.91.38Zm-6.85.95l2.8-.45 .05-.22 -2.91-.33Z"/><g stroke-linecap="round" stroke-width=".15" stroke="#000" fill="#F1B517"><path d="M137.87 101.62v0c-.01.41-.35.74-.77.73h0c-.42 0-.76-.33-.77-.74 0-.41.34-.74.76-.74s.76.32.76.73Z"/><path d="M141.16 101.62c0 2.15-1.82 3.9-4.05 3.9 -2.24 0-4.05-1.75-4.05-3.91s1.81-3.91 4.04-3.91 4.04 1.75 4.04 3.9Zm-.81 0c0 1.72-1.46 3.12-3.24 3.12 -1.79 0-3.24-1.4-3.24-3.13s1.45-3.13 3.23-3.13 3.23 1.39 3.23 3.12Z"/></g><path fill="none" fill-rule="evenodd" stroke="#000" stroke-width=".15" d="M134.58 99.658l-.64-.48m5.16.01l.54-.56m.61 5.47l-.67-.53m-5.03 1.11l.57-.62"/><path d="M148.21 97.773l.69 3.53 -.57.29 -.61-3.78Z"/><g fill="#FFF"><path d="M147.85 97.31c-.33-.14-.74.09-1.43-.78 -1.13 1.03-.07 1.18.1 2.21 .31.13.51-.8 1.38-.89l1.37-.13 -.32-.44c-.01-.01-.89.02-1.125 0Z"/><path d="M148.315 98.01l-.13-1.06c-.14-.38-.6-.06-.6.16l.11.97 .6-.09Z"/></g><path fill="#F1B517" stroke="#000" stroke-linecap="round" stroke-width=".15" d="M140.46 106.733v0c-.01.15-.09.29-.23.37v0c-.14.07-.31.07-.45 0v0c-.14-.08-.23-.22-.23-.38s.08-.3.22-.38v0c.13-.08.3-.08.44 0v0c.13.07.22.21.22.37Zm-1.14-.81h0c-.01.15-.09.29-.23.37v0c-.14.07-.31.07-.45 0v0c-.14-.08-.23-.22-.23-.38s.08-.3.22-.38v-.001c.13-.08.3-.08.44 0v-.001c.13.07.22.21.22.37Zm-1.53.52h0c-.01.15-.09.29-.23.37v0c-.14.07-.31.07-.45 0v0c-.21-.12-.29-.37-.17-.58 .03-.08.09-.14.16-.17v-.001c.13-.08.3-.08.44 0v-.001c.13.07.22.21.22.37Zm-2.37.51v0c-.01.15-.09.29-.23.37v0c-.14.07-.31.07-.45-.001v0c-.14-.08-.23-.22-.23-.38s.08-.3.22-.38v0c.13-.08.3-.08.44-.001l-.001-.001c.13.07.22.21.22.37Zm-1 .11h-.001c-.01.15-.09.29-.23.37v0c-.14.07-.31.07-.45-.001v0c-.14-.08-.23-.22-.23-.38s.08-.3.22-.38v-.001c.13-.08.3-.08.44 0v-.001c.13.07.22.21.22.37Zm-.99 0v0c-.01.15-.09.29-.23.37v0c-.14.07-.31.07-.45 0v0c-.14-.08-.23-.22-.23-.38s.08-.3.22-.38v-.001c.13-.08.3-.08.44 0v0c.13.07.21.21.22.37Zm-1-.03v0c-.01.15-.09.29-.23.37v0c-.14.07-.31.07-.45 0h-.001c-.14-.08-.23-.22-.23-.38s.08-.3.22-.38v-.001c.13-.08.3-.08.44 0v0c.13.07.22.21.22.37Zm.48-.76v0c-.01.15-.09.29-.23.37v0c-.14.07-.31.07-.45-.001v0c-.14-.08-.23-.22-.23-.38s.08-.3.22-.38v-.001c.13-.08.3-.08.44 0v-.001c.13.07.21.21.22.37Zm.97.04v0c-.01.15-.09.29-.23.37h0c-.14.07-.31.07-.45 0v0c-.21-.12-.29-.38-.17-.58 .03-.08.09-.13.16-.17v0c.13-.08.3-.08.44-.001h0c.13.07.22.21.22.37Zm.92-.12v0c-.01.15-.09.29-.23.37v0c-.14.07-.31.07-.45 0v0c-.14-.08-.23-.22-.23-.38s.08-.3.22-.38h-.001c.13-.08.3-.08.44 0v-.001c.13.07.22.21.22.37Zm-.47-.75v0c-.01.15-.09.29-.23.37v0c-.14.07-.31.07-.45-.001v0c-.14-.08-.23-.22-.23-.38s.08-.3.22-.38v-.001c.13-.08.3-.08.44 0v-.001c.13.07.22.21.22.37Zm-.91-.02v0c-.01.15-.09.29-.23.37v0c-.14.07-.31.07-.45 0v0c-.14-.08-.23-.22-.23-.38s.08-.3.22-.38v-.001c.13-.08.3-.08.44 0v0c.13.07.22.21.22.37Z"/><path fill="#FFF" d="M141.065 103.897c-.39-.16-.38.7-.38.7l.6 0c.26.12.47.5.3.69 -.14.15-1.31-.27-1.39-.03 .2 1.16 1.75 1.61 2.3 1.1 .54-.5.68-1.83-1.1-2.18l-.37-.31Z"/><path fill="none" fill-rule="evenodd" stroke="#000" stroke-width=".15" d="M141.422 104.21l-.18.38m-11.78-.27l-.58-2.43m1.28 2.28l-.89-1.9m2.41 1.39l-2.01-1.08m2.86.85l-3.72-1.62"/></g><path fill="#D20014" stroke="#D20014" d="M126.629 100.108s-1.36-.03-1.6.07c-.1.03.34.49.24.66 -.34.64-2.64.56-2.82.41 -.32-.25 2.14-.46 2.15-.62 .01-.19-.37-.69-.31-1 .07-.4 1.07-.55 1.07-.55l1.23.99Z"/><g fill="#503200" stroke="#000"><path d="M128.44 101.331l-3.07-2.54s-.14-.15-.25-.02c-.11.12.04.25.04.25l3.15 2.6 .11-.32Z"/><path fill="#F1B517" d="M131.38 103.83c-.06-.06-2.5-2.17-2.5-2.17l-.17-.62s-.38.25-.52.38 -.36.49-.36.49l.68.03 2.15 1.97 .68-.11Zm13.57-2.91l.01.98c-.33.11-.28.35-.27.7l.01 2.86c-.12.19-.47.19-.64.34 -.17.14-.15.43.61.62l.58.02c.89-.2 1.07-.49.62-.66 -.24-.09-.56-.2-.67-.34l.02-.69 .57.02c.15 0 .45-.4.46-.72l0-1.49c-.03-.84-.66-.94-.83-.93l.01-.78 -.54 0Zm.97 1.63c.01-.24-.34-.46-.48-.46 -.14-.01-.45.28-.46.52v.6c.02.22.19.96.55 1.02 .16.02.38-.24.38-.46l-.02-1.23Z"/></g><g stroke="#000"><path d="M150.39 73.63c-4.66-4.67-8.33-2.39-9.2-1.75 .57.11 1.09-.25 1.36-.29 -.17.21-.52.73-.52.73s1.44-.68 1.6-.62c-.21.16-.44.56-.44.56 .1.04.91-.64 1.07-.65 -.25.27-.33.91-.33.91l.7-.33c.18.12-.05.37.1.36 1.16-.1 2.8 1.06 3.03 1.42"/><path d="M149.237 74.492c-.49-1.12-9.36-3.003-11.14.14 .69.17 1.36-.59 1.36-.59l-.07.7 1.18-.91 -.43.93 .94-.77 -.03.76 1.15-1.26 -.16.73 1.03-.44 -.13.61"/><path d="M148.843 74.668c-2.28-1.53-5.8-.5-5.8-.5 -2.25 1.25-3.45 1.03-3.74 3.36 .21-.09.81-.82.81-.82l.45.9 .15-1.29 .36.99 .54-1.64 .12 1.11 .85-1.12 .39.32 .36-.85 .33.55s.57-.36.91-.15l.63-.74 .15.52 .54-.65 .21.46 .54-.5 -.03.35 1.88.02"/><path d="M148.32 74.932c-1.59-.03-6.14 1.68-7.32 3.48 .46-.27.75-.39.75-.39l.23.72 .28-.73 .06.55c.17-.44.37-.49.69-.03l.12-.68 .18.64 .3-.71s.19.76.3.73c0 0 .5-1.32.72-1.38l.06.82 .3-.82 .27.61 .06-.88 .3.67s.15-.67.39-.79l.45.41 2.02-1.46"/><path d="M148.63 75.3c-2.12.81-4.01 3.7-3.86 4.93 .93-1.17.73-1.01 1.15.33 0 0 .15-1.18.31-1.32l.27.86 .1-1.14 .28.01 -.08-.72 .42.32c-.1-.41-.21-.55.23-.9 0 0-.55.07-.12-.93l.4.39s-.08-.44.07-.6l1.49-.52"/><path d="M148.83 75.524l-.8 1.52 .4.11 -.93.69 .77-.08s-1.19.43-1.33 1.59l1.2-.54s-1.03 1.04-1.17 1.67l.69-.62s-.68.73-.58 1.83l.51-.58c-.13 1.34-.09 1.46.53 2.48 0 0-.17-1.58.02-1.78l1.35 1.4 -.76-2s.83 1.26 1.35 1.14l-1.07-1.62 1.04.84 -1.19-1.78 1.1.33s-.8-1.01-.74-1.64l.75.82s-.29-.95-.21-1.23l.38.07 -.76-.87 .51-.1 -.07-.58 .36-.12 -.03-.64"/><path fill="none" fill-rule="evenodd" stroke="#000" stroke-width=".15" d="M149.63 75.978c-1.31 1.77-.64 4.52-1.42 5.92"/><g fill="#F1B517" stroke="#000"><path d="M142.38 107.29c0-.19-.47-.11-.47-.33 0-.25.7-.07.8.15 .39-.36.56-.1.8.01 .34-.52.77-.5 1.18-.12 .24-.27.84-.18 1.05.11 .39-.4.75-.3 1.02-.02 .11-.21.27-.17.39-.02 .21-.38.74-.27.96-.02 .2-.22.4-.05.66.11 .17-.17.46-.14.46.03s-.38.11-.38.28c0 .15.27.07.27.26 0 .15-.41.21-.48-.04 -.14.26-.64.16-.69-.09v0c-.17.19-.47.22-.67.05 -.04-.03-.07-.06-.09-.1 -.18.14-.38.15-.48.01 -.31.33-.84.26-1.02-.11l-.18 0v0c-.17.25-.51.31-.76.14 -.07-.05-.12-.1-.16-.16 -.52.36-.82.25-1.11.01 -.33.4-.83.37-.95 0 -.23.16-.69.19-.69.01 0-.19.39-.12.39-.29Zm.99.09c0 .08-.12.15-.27.15 -.15 0-.27-.07-.27-.16s.11-.16.26-.16c.14 0 .26.07.26.15Zm1.09-.14c0 .1-.15.18-.32.18 -.18 0-.32-.09-.32-.19 0-.11.14-.19.31-.19 .17 0 .31.08.31.18Zm2.14.11c0 .1-.13.19-.29.19 -.16 0-.29-.09-.29-.19 0-.11.12-.19.28-.19 .15 0 .28.08.28.18Zm-1.15-.05c0 .13-.13.23-.28.23 -.16 0-.28-.11-.28-.24 0-.14.125-.24.27-.24 .15 0 .27.1.27.24Zm2.43 0c0 .11-.12.21-.25.21 -.14 0-.25-.1-.25-.22s.11-.22.24-.22 .24.09.24.21Zm-.75.05c0 .07-.08.13-.17.13 -.09 0-.17-.07-.17-.14 0-.08.07-.14.16-.14 .08 0 .16.06.16.13Zm1.45.05c0 .11-.09.19-.19.19s-.19-.09-.19-.2c0-.11.08-.2.18-.2 .1 0 .18.09.18.19Zm6.65-16.61l1.51-3.26 -.66-.14 -2.76 5.4Z"/><path fill="#FFF" d="M158.767 83.767l-1.68 4.57h-.86Z"/><path d="M153.697 86.6l-.84-.02 -1.54 6.44 .32 2.03Z"/><path d="M152.98 93.25l2.57-6.93 -.96-.06 -3.01 8.46Z"/><path fill="#FFF" d="M156.76 82.386l-1.07 4.81h-.86Zm-2.19-.08l-.58 4.97 -.62-.04Z"/><path fill="#0A328C" d="M155.06 91.319l6.86-7.491c2.14 1.69 1.74 4.81 1.74 4.81l-7.78 6.1 -.84-3.43Z"/><path fill="#D20014" d="M151.099 95.44l5.09-5.16c2.15.07.44 3.28.33 3.69l-5.43 4.64v-3.18Z"/><path d="M151.532 94.55l10.52-11.27 .41.29 -11.137 12.37Zm11.13-12l.23-.27 -.03-.54 2.17-1.39 -.97 2.18 -.74.13 -.24.26Z"/><path d="M163.772 83.36l-.001-.001c-.44-.55-.98-1-1.6-1.32l-.61.86 1.29 1.09 .9-.65Z"/><path fill="#0A328C" d="M158.06 93.3l8.62-6.85c1.47 1.5.24 6.13.24 6.13l-8.43 4.56 -.45-3.86Z"/><path fill="#D20014" d="M150.91 98.85l7.09-5.69c2.42.34.51 3.9.37 4.29l-7.49 4.06 .02-2.68Z"/><path d="M151.197 97.7l15.33-11.509 .35.35 -16.11 12.57Zm16.06-12.12l.27-.23 .07-.54 2.38-1 -1.35 1.98 -.76 0 -.28.22Z"/><path d="M168.206 86.56v0c-.34-.61-.79-1.15-1.34-1.57l-.75.75 1.07 1.29 1-.49Z"/><path fill="#0A328C" d="M158.681 97.49c.11-.03 11.11-6.27 11.11-6.27 .8 1.35.07 3.31-.28 3.61 -.02.9.36 1.38-.43 3.26 -.24 1.22-.8 2.34-1.62 3.01 -1.01 3.85-4.94 4.1-6.45.97l-2.35-4.61Z"/><path fill="#D20014" d="M151.404 101.607l7.52-4.42c2.42.34-.06 4.83-.2 5.22l-7.27 2.58 -.07-3.4Z"/><path d="M152.66 100.007l17.01-9.06 .29.4 -17.95 9.988Zm17.82-9.55l.3-.18 .15-.52 2.52-.63 -1.66 1.76 -.75-.11 -.31.18Z"/><path d="M171.27 91.569v-.001c-.23-.65-.59-1.25-1.07-1.75l-.87.63 .85 1.43 1.06-.33Z"/></g></g><path fill="#0A328C" stroke="#0A328C" d="M164.92 85.26l-.36.61c-.22-.09-2.42-2.08-2.42-2.08l-1.58-.05 -.46-.51c1.15-1.25 2.25.17 2.25.17l2.55 1.83Z"/><path fill="#D20014" stroke="#D20014" d="M163.66 86.3c-.09-.56-1.13-1.93-1.28-1.98 -.79.23-1.51.68-2.31-1.11 .68.875 2.08-.02 2.08-.02l.6.5 -.02.24 1.83 1.7 -.93.64Z"/><path fill="#0A328C" stroke="#0A328C" d="M169.06 88.485l-.1.63c-.21-.12-2.14-2.24-2.14-2.24l-1.56-.29 -.32-.5c1.07-1.27 2.22.41 2.22.41l1.87 1.96Z"/><path fill="#D20014" stroke="#D20014" d="M167.832 89.62c.07-.59-.74-2.32-.88-2.39 -.93.27-1.74.69-2.08-1.25 .53.96 2.07.21 2.07.21l.51.58 -.08.31 1.56 2.02 -1.14.48Z"/><path fill="#0A328C" stroke="#0A328C" d="M171.955 93.6l-.36.7c-.19-.14-1.81-2.747-1.81-2.747l-1.5-.5 -.29-.61c1.2-1.11 2.09.8 2.09.8l1.83 2.34Z"/><path fill="#D20014" stroke="#D20014" d="M170.35 94.6c.12-.6-.29-2.52-.42-2.61 -.94.28-1.72.35-1.94-1.58 .54.91 1.99.57 1.99.57l.42.65 -.09.22 1.23 2.37 -1.22.35Z"/><g fill="#F1B517" stroke="#000"><path d="M152.79 104.17l4.23-1.32 1.84-3.16 6.53-.33 -.23 2.36 -5.57 1.06 -.53.94 -6.4 1.78Z"/><path fill="#503200" d="M157.218 105.05l6.68-9.84 .32.24 -6.64 9.88Z"/><path fill="#FFF" d="M163.285 95.6l.71-1.2c.13-.22.33-.3.63-.14 .29.15.26.45.14.67l-.66 1.11 -.84-.46Z"/><path d="M156.42 98.976l13.49-1.38 .32 1.96 -13.44 1.35Z"/><path d="M170.16 97.09l.35 2.72h-.57l-.4-2.5Zm-2.26.44l.15 2.44 -.35.04 -.29-2.18Zm-9.15 1.05l.32 2.3 -.66-.03 -.27-2.28Zm-2.02.06l.46 2.66 -.75.1 -.22-1.4v0c-.07.29-.33.49-.63.49v0c-.35 0-.64-.28-.65-.62v0c0-.35.29-.63.64-.62 .24 0 .46.14.56.41l-.14-1 .69-.05Zm4.87.43l1.85 2.08 -.22.25 -2.39-1.63Zm4.31 5.2l-1.86-2.09 .21-.26 2.38 1.62Zm-4.86-.53l2.25-1.75 .23.16 -1.78 2.253Zm5.56-4.03l-2.29 1.68 -.28-.21 1.79-2.26Zm-2.5-1.4l-.22 2.74 -.31-.02 -.73-2.68Zm-.75 6.65l.21-2.75 .33-.04 .41 2.77h-.98Zm-3.04-3.7l2.87.3 .04.27 -2.91.38Zm6.84.95l-2.81-.45 -.06-.22 2.9-.33Z"/><g stroke-linecap="round" stroke-width=".15" stroke="#000" fill="#F1B517"><path d="M163.037 101.62c0 .4.34.73.76.73v0c.41 0 .75-.33.76-.74v-.001c-.01-.42-.35-.75-.77-.74 -.01 0-.01 0-.01 0v0c-.42-.01-.76.32-.77.73Z"/><path d="M159.752 101.62c0 2.15 1.81 3.9 4.04 3.9s4.04-1.75 4.04-3.91 -1.82-3.91-4.05-3.91c-2.24 0-4.05 1.75-4.05 3.9Zm.8 0c0 1.72 1.45 3.12 3.23 3.12s3.23-1.4 3.23-3.13 -1.46-3.13-3.24-3.13c-1.79 0-3.24 1.39-3.24 3.12Z"/></g><path fill="none" fill-rule="evenodd" stroke="#000" stroke-width=".15" d="M166.32 99.658l.63-.48m-5.17.01l-.55-.56m-.62 5.47l.66-.53m5.02 1.11l-.58-.62"/><path d="M152.698 97.773l-.7 3.53 .56.29 .6-3.78Z"/><g fill="#FFF"><path d="M153.06 97.31c.32-.14.73.09 1.42-.78 1.12 1.03.06 1.18-.11 2.21 -.32.13-.52-.8-1.39-.89l-1.38-.13 .31-.44c0-.01.88.02 1.125 0Z"/><path d="M152.6 98.01l.12-1.06c.13-.38.6-.06.6.16l-.12.97 -.61-.09Z"/></g><g stroke-linecap="round" stroke-width=".15" stroke="#000" fill="#F1B517"><path d="M160.45 106.733c0 .15.08.29.22.37v0c.13.07.3.07.44 0v0c.13-.08.22-.22.22-.38h-.001c-.01-.16-.09-.3-.23-.38v-.001c-.14-.08-.31-.08-.45 0v-.001c-.14.07-.23.21-.23.37Zm1.13-.81h0c0 .15.08.29.22.37v0c.13.07.3.07.44-.001v0c.13-.08.22-.22.22-.38h-.001c-.01-.16-.09-.3-.23-.38v-.001c-.14-.08-.31-.08-.45 0v-.001c-.14.07-.23.21-.23.37Zm1.52.52c0 .15.08.29.22.37v0c.13.07.3.07.44 0v0c.13-.08.22-.22.22-.38h-.001c-.01-.16-.09-.3-.23-.38v0c-.14-.08-.31-.08-.45-.001v0c-.14.07-.23.21-.23.37Zm2.36.51h-.001c0 .15.08.29.22.37v0c.13.07.3.07.44-.001v-.001c.13-.08.22-.22.22-.38v0c-.01-.16-.09-.3-.23-.38v-.001c-.14-.08-.31-.08-.45 0v0c-.14.07-.23.21-.23.37Zm1 .11v0c0 .15.08.29.22.37v0c.13.07.3.07.44 0v0c.13-.08.22-.22.22-.38v0c-.01-.16-.09-.3-.23-.38v0c-.14-.08-.31-.08-.45-.001v0c-.14.07-.23.21-.23.37Zm.98 0c0 .15.08.29.22.37v0c.13.07.3.07.44-.001v0c.2-.12.28-.37.17-.58 -.04-.08-.1-.14-.18-.18v0c-.14-.08-.31-.08-.45-.001v0c-.14.07-.23.21-.23.37Zm1-.03c0 .15.08.29.22.37v0c.13.07.3.07.44-.001v0c.2-.12.28-.37.16-.58 -.04-.08-.1-.14-.17-.17v0c-.14-.08-.31-.08-.45-.001v0c-.14.07-.23.21-.23.37Zm-.49-.76c0 .15.08.29.22.37v0c.13.07.3.07.44 0v0c.13-.08.22-.22.22-.38v0c-.01-.16-.09-.3-.23-.38v0c-.14-.08-.31-.08-.45 0v-.001c-.14.07-.22.21-.23.37Zm-.97.04h0c0 .15.08.29.22.37v0c.13.07.3.07.44-.001v0c.2-.12.28-.37.16-.58 -.04-.08-.1-.14-.17-.17v0c-.14-.08-.31-.08-.45-.001v0c-.14.07-.23.21-.23.37Zm-.93-.12v0c0 .15.08.29.22.37v0c.13.07.3.07.44-.001l0 0c.13-.08.22-.22.22-.38v0c-.01-.16-.09-.3-.23-.38v-.001c-.14-.08-.31-.08-.45 0v0c-.14.07-.23.21-.23.37Zm.46-.75c0 .15.08.29.22.37v0c.13.07.3.07.44-.001v0c.2-.12.28-.37.16-.58 -.04-.08-.1-.14-.17-.17v0c-.14-.08-.31-.08-.45-.001v0c-.14.07-.23.21-.23.37Z"/><path d="M167.463 105.46c0 .15.08.29.22.37v0c.13.07.3.07.44-.001v0c.2-.11.28-.37.17-.57 -.04-.08-.1-.14-.18-.18v0c-.14-.08-.31-.08-.45-.001v0c-.14.07-.23.21-.23.37Z"/></g><path fill="#FFF" d="M159.85 103.897c.38-.16.37.7.37.7l-.61 0c-.27.12-.48.5-.31.69 .13.15 1.3-.27 1.38-.03 -.21 1.16-1.75 1.61-2.31 1.1 -.55-.5-.69-1.83 1.09-2.18l.36-.31Z"/><path fill="none" fill-rule="evenodd" stroke="#000" stroke-width=".15" d="M159.493 104.21l.17.38m11.78-.27l.57-2.43m-1.28 2.28l.88-1.9m-2.42 1.39l2-1.08m-2.87.85l3.71-1.62"/></g><path fill="#D20014" stroke="#D20014" d="M174.286 100.108s1.35-.03 1.59.07c.09.03-.34.49-.25.66 .33.64 2.63.56 2.81.41 .31-.25-2.15-.46-2.16-.62 -.02-.19.36-.69.3-1 -.08-.4-1.08-.55-1.08-.55l-1.24.99Z"/><g fill="#503200" stroke="#000"><path d="M172.475 101.331l3.06-2.54s.13-.15.24-.02c.11.12-.05.25-.05.25l-3.16 2.6 -.11-.32Z"/><path fill="#F1B517" d="M169.52 103.83l-.001-.001c.82-.73 1.66-1.45 2.49-2.17l.16-.62s.37.25.51.38c.13.13.35.49.35.49l-.69.03 -2.16 1.97 -.69-.11Zm-13.58-2.91l-.02.98c.32.11.27.35.26.7l-.02 2.86c.11.19.46.19.63.34 .16.14.14.43-.62.62l-.59.02c-.9-.2-1.08-.49-.63-.66 .23-.09.55-.2.67-.34l-.02-.69 -.58.02c-.16 0-.46-.4-.47-.72l-.01-1.49c.02-.84.65-.94.82-.93l-.02-.78 .53 0Zm-.98 1.63c-.01-.24.33-.46.47-.46 .13-.01.44.28.45.52v.6c-.03.22-.2.96-.55 1.02 -.17.02-.39-.24-.39-.46l.01-1.23Z"/></g><g stroke="#000"><path d="M150.525 73.63c4.65-4.67 8.32-2.39 9.2-1.75 -.58.11-1.1-.25-1.37-.29 .16.21.51.73.51.73s-1.44-.68-1.61-.62c.2.16.43.56.43.56 -.11.04-.92-.64-1.08-.65 .24.27.32.91.32.91l-.71-.33c-.19.12.05.37-.11.36 -1.17-.1-2.81 1.06-3.04 1.42"/><path d="M151.678 74.492c.48-1.12 9.35-3.003 11.13.14 -.7.17-1.37-.59-1.37-.59l.06.7 -1.19-.91 .42.93 -.95-.77 .03.76 -1.16-1.26 .15.73 -1.04-.44 .12.61"/><path d="M152.072 74.668c2.27-1.53 5.79-.5 5.79-.5 2.24 1.25 3.44 1.03 3.73 3.36 -.22-.09-.82-.82-.82-.82l-.46.9 -.16-1.29 -.37.99 -.55-1.64 -.13 1.11 -.85-1.12 -.4.32 -.37-.85 -.34.55s-.58-.36-.92-.15l-.64-.74 -.16.52 -.55-.65 -.22.46 -.55-.5 .03.35 -1.89.02"/><path d="M152.58 74.932c1.58-.03 6.13 1.68 7.31 3.48 -.47-.27-.76-.39-.76-.39l-.24.72 -.29-.73 -.07.55c-.18-.44-.37-.49-.7-.03l-.13-.68 -.19.64 -.31-.71s-.19.76-.31.73c0 0-.51-1.32-.73-1.38l-.07.82 -.31-.82 -.28.61 -.06-.88 -.31.67s-.16-.67-.4-.79l-.46.41 -2.03-1.46"/><path d="M152.283 75.3c2.11.81 4 3.7 3.85 4.93 -.94-1.17-.74-1.01-1.16.33 0 0-.16-1.18-.32-1.32l-.28.86 -.11-1.14 -.29.01 .07-.72 -.42.32c.09-.41.2-.55-.24-.9 0 0 .55.07.11-.93l-.41.39s.07-.44-.08-.6l-1.5-.52"/><path d="M152.078 75.524l.79 1.52 -.41.11 .92.69 -.78-.08s1.18.43 1.33 1.59l-1.21-.54s1.02 1.04 1.16 1.67l-.7-.62s.67.73.57 1.83l-.52-.58c.12 1.34.08 1.46-.54 2.48 0 0 .16-1.58-.03-1.78l-1.36 1.4 .75-2s-.84 1.26-1.36 1.14l1.06-1.62 -1.05.84 1.18-1.78 -1.11.33s.79-1.01.73-1.64l-.76.82s.28-.95.2-1.23l-.39.07 .75-.87 -.52-.1 .06-.58 -.37-.12 .02-.64"/><path fill="none" fill-rule="evenodd" stroke="#000" stroke-width=".15" d="M151.28 75.978c1.31 1.77.63 4.52 1.41 5.92"/><g fill="#F1B517" stroke="#000"><path d="M158.533 107.29c0-.19.46-.11.46-.33 0-.25-.71-.07-.8.15 -.4-.36-.57-.1-.81.01 -.35-.52-.78-.5-1.19-.12 -.25-.27-.85-.18-1.06.11 -.4-.4-.76-.3-1.03-.02 -.12-.21-.28-.17-.4-.02 -.22-.38-.75-.27-.97-.02 -.2-.22-.41-.05-.67.11 -.18-.17-.47-.14-.47.03s.37.11.37.28c0 .15-.28.07-.28.26 0 .15.4.21.47-.04 .13.26.63.16.68-.09v0c.16.19.46.22.66.05 .03-.03.06-.06.08-.1 .17.14.37.15.47.01 .31.33.83.26 1.01-.11l.17 0v0c.16.25.5.31.75.14 .06-.05.11-.1.15-.16 .51.36.81.25 1.1.01 .32.4.82.37.94 0 .22.16.68.19.68.01 0-.19-.4-.12-.4-.29Zm-1 .09c0 .08.11.15.26.15 .14 0 .26-.07.26-.16s-.12-.16-.27-.16c-.15 0-.27.07-.27.15Zm-1.1-.14c0 .1.14.18.31.18 .17 0 .31-.09.31-.19 0-.11-.15-.19-.32-.19 -.18 0-.32.08-.32.18Zm-2.15.11c0 .1.12.19.28.19 .15 0 .28-.09.28-.19 0-.11-.13-.19-.29-.19 -.16 0-.29.08-.29.18Zm1.14-.05c0 .13.125.23.27.23 .15 0 .27-.11.27-.24 0-.14-.13-.24-.28-.24 -.16 0-.28.1-.28.24Zm-2.44 0c0 .11.11.21.24.21s.24-.1.24-.22 -.12-.22-.25-.22c-.14 0-.25.09-.25.21Zm.74.05c0 .07.07.13.16.13 .08 0 .16-.07.16-.14 0-.08-.08-.14-.16-.14 -.09 0-.17.06-.17.13Zm-1.46.05c0 .11.08.19.18.19 .1 0 .18-.09.18-.2 0-.11-.09-.2-.19-.2 -.11 0-.19.09-.19.19Zm-1.24-7.02s.71-5.97.71-8.54c-.01-2.03-.49-6.51-.49-6.51h-2.05s-.32 4.45-.27 6.47c.06 2.56.71 8.56.71 8.56h1.38Z"/><path d="M149.105 85.67h2.375l-.28-1.6h-1.73Z"/><path d="M149.256 84.39h2.12l-.4-1.6h-1.31Z"/><path d="M149.39 83.093h1.77l-.3-1.6h-1.13Z"/><path d="M150.92 81.304h-1.24l-.125.57h1.46Z"/><path fill="none" fill-rule="evenodd" stroke="#000" stroke-width=".15" d="M151.17 99.12h-1.58m1.65-1.17h-1.77m1.99-1.19h-2.24m2.35-1.3h-2.34m2.35-1.3h-2.47m2.55-1.18h-2.67m2.67-1.08h-2.8m2.77-1.3h-2.79m2.69-1.29h-2.7M151.4 88h-2.44m2.32-1.18h-2.21"/></g></g><g stroke-linecap="round" stroke-width=".15" stroke="#0A328C" fill="#0A328C"><path d="M150.4 99.93c-1.51 0-2.73.56-2.73 1.26v0c0 .12.03.24.1.34 .32.37 1.38.65 2.63.65 1.17 0 2.17-.25 2.56-.59v0c.09-.12.14-.27.15-.42 0-.7-1.23-1.27-2.73-1.27Z"/><path fill="#F1B517" stroke="#000" d="M153.156 101.28v4.23c0 .49-1.23.89-2.75.89s-2.75-.41-2.75-.9v-4.24c0 .49 1.22.9 2.74.9 1.51 0 2.74-.41 2.74-.9Z"/></g><path fill="#D20014" stroke="#D20014" d="M147.66 101.28v.64l1.33 4.1 1.06-3.16 1.16 3.28 .85-3.1 1.07 2.08v-1.16l-1-2.02c-.12.03-.23.05-.36.08l-.62 2.28 -.87-2.17v0c-.15-.01-.29-.01-.43-.02l-.88 2.17 -1-2.62c-.23-.14-.36-.28-.36-.45Z"/><g stroke-linecap="round" stroke-width=".15" stroke="#0A328C" fill="#0A328C"><path d="M153.156 104.732v.79c0 .49-1.23.89-2.75.89s-2.75-.41-2.75-.9v-.8c0 .49 1.22.9 2.74.9 1.51 0 2.74-.41 2.74-.9Z"/><g fill="#F1B517" stroke="#000"><path d="M151.54 105.551h-.001c-.24.03-.48.05-.72.07l0 .79c.25-.02.48-.04.71-.07l-.01-.8Zm-2.93-.14l-.01.78c.21.06.45.11.71.14v-.8 0c-.24-.04-.48-.08-.71-.15Zm-.96-.68v.79c0 .14.11.28.3.4l.01-.78c-.21-.13-.32-.27-.32-.42Zm5.48.08l-.02 0c-.05.16-.23.3-.5.43l0 .78c.31-.15.5-.33.5-.52v-.71Z"/><path fill="none" fill-rule="evenodd" stroke="#000" stroke-linecap="round" stroke-width=".15" d="M153.156 101.316v4.2c0 .49-1.23.89-2.75.89s-2.75-.41-2.75-.9v-4.21"/></g><path fill="#FFF" stroke="#FFF" d="M152.535 101.012c0 .3-.95.54-2.13.54s-2.13-.25-2.13-.55c0-.3.95-.55 2.12-.55 1.17 0 2.12.24 2.12.54Z"/><path fill="#F1B517" stroke="#000" d="M149.71 101.41l.09.75c.18.01.37.02.57.02l.13-.78h-.81Zm2.46-.19l-.55.14 .03.7c.18-.04.36-.07.52-.12l-.01-.74Zm-3.25-1.15c-.16.04-.31.1-.44.15l.07.56 .34-.12 0-.62Zm1.46-.23c-.08 0-.15 0-.22 0l.11.71 .36-.01 .14-.7v0c-.14-.02-.28-.02-.41-.02Zm1.6.25l-.08.62 .41.14 .04-.61h0c-.13-.07-.26-.12-.39-.16Z"/></g><path fill="#F1B517" stroke="#000" d="M148.09 101.78l.11-.78 -.57-.31 .01.87Zm5.04-.17l.02-.78 -.53.15Z"/><path fill="#016A16" stroke="#FFF" stroke-linecap="round" stroke-width=".15" d="M143.621 96.651c-.16-.3-.64-.52-1.2-.52 -.57 0-1.04.21-1.2.51v0c-.04-.07-.06-.15-.06-.22 0-.41.56-.73 1.25-.73s1.25.32 1.25.72v0c0 .07-.02.15-.06.21Zm-.11.89c0 .77-.49 1.41-1.1 1.41 -.61 0-1.1-.64-1.1-1.42v-.77h2.18v.76 0Z"/></g><path fill="#FFF" d="M143.507 96.538c0 .29-.49.53-1.09.53 -.6 0-1.09-.25-1.09-.54 -.01-.3.48-.54 1.08-.54 .59 0 1.08.24 1.08.53Z"/><g stroke-width=".15" fill="#016A16" stroke="#F1B517"><path d="M142.176 97.145l-.19-1.98h.82l-.14 1.97Z"/><path fill="#016A16" stroke="#FFF" stroke-linecap="round" stroke-width=".15" d="M143.623 96.57c-.16.29-.64.51-1.2.51 -.57 0-1.04-.22-1.2-.52v0c-.04.06-.06.14-.06.21 0 .4.56.72 1.25.72s1.25-.33 1.25-.73v0c-.01-.08-.03-.15-.06-.22Z"/><g fill="#F1B517" stroke="#000"><path d="M141.57 100.664l2.19.22 .34-1.95 -2.58-.27"/><path d="M142.151 98.596l-.33 2.3 .65-.03 .26-2.28Zm16.56-2.08c.49-.07 1.23.61 1.28 1.46 .03.67-1.02.63-1.02.63 -.06.27-.64.52-1.11.55 -.46.02.125-.86.125-.86 -.29-.76.08-1.65.08-1.65l.62-.14Z"/><path fill="none" fill-rule="evenodd" stroke="#000" stroke-width=".15" d="M158 98.27l.48-.02s.03.24.125.25c.09.01.19-.24.19-.24l.73-.02"/></g><path fill="#D20014" d="M158.97 97.016c.4-.3.05-.89-.24-.9l-.66.01c-.32 0-.84.34-.77.63 .06.25.23.37.49.32 .12-.02.37-.34.49-.35 .16-.01.52.35.65.25Z"/><path fill="#0A328C" stroke="#0A328C" d="M150.446 71.926c-.42-.2-1.35-.79-1.08-1.15l.42-.73c.6-1.37-.02-.84-.08-1.27 -.07-.41 2.31-.09 2.35.83 0 .25-.18.1-.16 1.56l-.46.875c-.34.03-.74-.01-1.04-.15Z"/><path fill="#F1B517" stroke="#000" d="M150.73 75.46l-.6-.5 .16-4.27 .58.17Z"/><path fill="#D20014" stroke="#D20014" d="M151.503 72.04c.37-.22.61-.87.39-1.26 -.61-.78-1.01-.46-2.03-.81 -.21.21-.64.63-.55.94 1.34.63.82.09 1.26.17 .23.04.39.32.9.93Z"/><g fill="#F1B517" stroke="#000"><path d="M129.046 105.41c-.37.04-.44.47-.3.86 -1.62.45-3.06 1.04-4.48 1.44 -.06-.29.7-1.11.7-1.11 .2.09.35.55.35.55 .05-.95.98-1.58.98-1.58 -.56-.08-2.24.58-2.44.84 0 0 .65-.08.75 0 0 0-1.29 1.38-1.35 1.79 .2.45 2.41.78 2.41.78 -.04.11-.66.55-.66.55 .88.19 2.21-.44 2.6-.82 0 0-1.04-.09-1.85-.74 0 0 .16.4.06.6 0 0-1.26-.37-1.4-.58 0-.02 2.97-.79 4.42-1.2 .05.25.33.74.68.62 .22-.08.15-.52.07-.84 .08.06.18.11.3.11v0c.24 0 .45-.2.46-.44 0-.01 0-.01 0-.01v0c-.01-.25-.22-.45-.47-.45v0c-.2-.01-.37.12-.44.3 -.06-.27-.21-.81-.49-.78Zm1.13.91l0-.001c-.01.11-.1.2-.22.2 -.01-.01-.01-.01-.01-.01v0c-.12 0-.22-.09-.22-.21 -.01-.01-.01-.01-.01-.01v0c0-.12.09-.21.21-.21 0 0 0 0 0 0v0c.11-.01.21.08.21.2 0 0 0 0 0 0Zm46.16.9c.11-.22-.1-1.33-.1-1.33 -.23.02-.53.4-.53.4 .28-.91-.52-2.43-.52-2.43 .54.11 2.36 1.87 2.46 2.19 0 0-.8-.29-.92-.25 .13.9.75 1.32.99 1.79 0 0-1.04.22-.94 1.09l-.68.01c-.24-.29.09-.77.09-.77l-4.65-1.95c-.3-.125-.98-.44-.88-.79 .1-.37 1.21.15 1.48.23l4.16 1.76Z"/><path d="M171.88 106.425l.54-1.01c.19-.27-.21-.56-.5-.22l-.62.91c-.28.5.29.63.55.3Z"/><g fill="#FFF"><path d="M139.32 108.72l-.04-1.1 -1.33.07 -.08 1.19Z"/><path d="M129.64 110.254l-1.78-1c7.3.66 8.79-1.88 10.55-2.02 1.08-.09 1.25 1.2-.85.58l.54 1.34s-5.19 2.91-10.28 1.71l1.79-.64Zm31.8-1.54l.03-1.1 1.62.03 .07 1.19Z"/><path d="M171.46 109.986l1.66-.91c-8.37.25-6.46-1.38-10.65-1.83 -1.09-.12-1.9 1.27.84.58l-.55 1.34 1.31 0c2.84 1.87 6.69 2.04 9.24 1.44l-1.89-.64Z"/><path d="M137.55 107.845v1.89s4.63 1.72 12.91 1.72c8.31 0 12.91-1.72 12.91-1.72v-1.9s-3.51 1.61-12.92 1.61c-9.37 0-12.92-1.62-12.92-1.62Z"/></g></g></g><path d="M138.24 109.748l.4-1.39 .19.05 -.37 1.22 .7.19 -.05.16 -.9-.25Zm1.34-.61l.02-.28 .06-.24 .2.04 -.07.23 -.12.24 -.11-.03Zm1.99-.1l.19.03 -.18.81h-.001c-.02.11-.07.22-.13.32v0c-.06.07-.14.13-.23.16v0c-.12.03-.25.04-.36.01v0c-.12-.02-.23-.07-.33-.14v0c-.08-.06-.13-.15-.15-.24v0c-.02-.13-.02-.25.01-.37l.17-.82 .19.03 -.18.81v0c-.03.09-.04.18-.03.27v0c.01.06.04.11.09.15v0c.05.04.12.07.2.08 .14.02.25.01.32-.04s.13-.17.16-.35l.17-.82Zm.21 1.5l.24-1.43 .2.03 .58 1.23 .18-1.12 .18.02 -.25 1.42 -.2-.04 -.59-1.24 -.19 1.11 -.19-.03Zm1.52.23l.2-1.43 .19.02 -.21 1.42 -.2-.03Zm.56-.63c.02-.24.11-.42.26-.54v0c.15-.13.34-.18.53-.15v0c.12.01.25.05.35.13v0c.1.07.17.17.22.29 .04.11.05.25.04.39v0c-.02.13-.07.26-.14.38v0c-.08.1-.18.18-.29.23v-.001c-.25.09-.53.06-.74-.09v0c-.11-.08-.18-.18-.22-.3v0c-.05-.12-.06-.25-.05-.37Zm.2.02v0c-.03.14 0 .3.09.42v-.001c.08.1.2.17.34.18h0c.13.01.27-.03.38-.11 .1-.09.17-.23.19-.42h-.001c.01-.11 0-.22-.03-.32v0c-.03-.09-.09-.17-.16-.23v0c-.08-.06-.17-.1-.26-.11v0c-.14-.02-.27.01-.375.09 -.12.08-.18.22-.21.44Zm1.38.85l.12-1.44 .2.01 .68 1.19 .09-1.13 .18.01 -.13 1.43 -.21-.02 -.69-1.19 -.1 1.12 -.19-.02Zm2.09.14l.06-1.44 1 .04 -.01.17 -.81-.04 -.03.44 .7.03 -.01.17 -.7-.03 -.03.65 -.2-.01Zm1.1.04l.6-1.43 .21 0 .58 1.45 -.23-.01 -.17-.44 -.625-.02 -.18.43 -.21-.01Zm.44-.59l.5.01 -.15-.41h0c-.04-.1-.08-.2-.1-.31 -.03.09-.05.18-.09.27l-.18.41Zm1.14.6l0-1.44h.19l-.01 1.44h-.2Zm.92-.01l-.02-1.28 -.5 0 -.01-.17 1.18-.02 0 .17 -.5 0 .01 1.27 -.2 0Zm1.46-.04l-.07-1.44 .19-.01 .06 1.26 .73-.04 0 .17 -.94.04Zm1-.05l.46-1.48 .21-.02 .71 1.39 -.23.01 -.21-.43 -.63.04 -.14.44 -.21.01Zm.38-.62l.5-.04 -.19-.39v0c-.05-.1-.09-.2-.13-.3v0c-.02.09-.04.18-.06.28l-.14.43Zm1.75.45l-.17-1.44 1-.11 .01.16 -.81.08 .05.44 .69-.08 .01.16 -.7.07 .07.65 -.2.02Zm1.09-.83c-.04-.24 0-.44.11-.59l-.001-.001c.11-.16.28-.26.48-.28v0c.12-.02.26-.01.38.04v0c.11.04.21.12.28.22v0c.07.11.12.23.14.37l-.001-.001c.02.13.01.27-.04.4v-.001c-.05.11-.12.22-.22.29l-.001 0c-.11.07-.23.12-.35.13v0c-.14.02-.27 0-.39-.05v0c-.12-.05-.22-.13-.29-.24v0c-.08-.11-.12-.23-.14-.35Zm.2-.03v0c.01.15.08.29.2.38 .11.08.23.11.38.09v0c.13-.02.26-.09.34-.2 .08-.12.1-.27.08-.45h0c-.02-.11-.05-.21-.11-.3v0c-.06-.08-.13-.15-.21-.18v-.001c-.09-.04-.19-.05-.28-.04v0c-.14.01-.26.08-.34.18 -.09.1-.12.26-.09.47Zm1.56.48l-.27-1.42 .65-.12v0c.1-.03.2-.03.3-.02v0c.07.01.13.05.18.1v0c.05.05.08.12.1.2v0c.02.09 0 .19-.06.27 -.06.08-.16.14-.29.18 .05.01.1.03.13.05 .06.04.13.09.19.16l.32.34 -.25.04 -.25-.27v0c-.06-.06-.12-.12-.18-.18v0c-.04-.04-.08-.06-.12-.08v0c-.04-.02-.07-.03-.1-.03v0c-.04 0-.08 0-.11.01l-.23.04 .11.62 -.2.03Zm.04-.83l.41-.08v0c.07-.02.13-.04.2-.07v0c.08-.05.13-.15.11-.24v0c-.02-.07-.05-.13-.11-.16 -.06-.04-.15-.05-.26-.03l-.47.08 .08.47Zm2.35-.16l.2 0 -.001-.001c0 .14-.05.28-.14.39l0 0c-.1.1-.22.17-.36.2v0c-.14.03-.28.03-.41-.01v0c-.12-.05-.22-.12-.29-.22l-.001-.001c-.08-.11-.14-.23-.17-.36v-.001c-.04-.14-.04-.27-.01-.41h-.001c.02-.12.09-.23.18-.31v0c.09-.09.21-.14.33-.17v0c.13-.04.26-.03.39.02 .11.05.2.13.27.25l-.18.08v0c-.05-.09-.12-.15-.2-.2v0c-.09-.04-.18-.04-.26-.02l-.001 0c-.1.01-.2.06-.27.13v0c-.07.06-.11.15-.11.24v0c-.02.09-.01.18.01.27 .02.12.07.22.12.3v-.001c.05.07.12.13.21.16v0c.08.02.17.03.26.01v0c.09-.02.18-.08.25-.15v-.001c.06-.09.09-.2.08-.3Zm.54.39l-.41-1.39 1.04-.28 .04.16 -.85.22 .12.42 .79-.22 .04.16 -.8.21 .13.47 .88-.24 .04.16 -1.08.28Z"/><path fill="none" fill-rule="evenodd" d="M137.55 109.52s4.63 1.72 12.91 1.72c8.31 0 12.91-1.72 12.91-1.72"/></svg>