<svg viewBox="0 0 301 151" xmlns="http://www.w3.org/2000/svg"><path fill="#00AFCA" d="M.5.5h300v150H.5Z"/><g fill="#FEC50C"><path d="M18.19 44.32c0 3.04 2.72 4.6 4.875 4.6 2.89 0 4.42-1.73 4.42-3.99 0-1.29-.24-2.09-.83-3.314 0 0-4.77-9.92-6.63-13.75 -.24-.48-.31-1.03-.31-1.83 0-1.24 1.19-2.24 2.44-2.28 1.14-.03 2.38 1.06 2.38 2.31 0 1.51-.79 2.189-1.6 2.189 -1 0-1.39-.41-1.39-1.11 0-.49.23-.7.57-.7 .85 0 .61 1.14.61 1.14 .42-.1.77-.53.57-1.064 .3-.07.59-.24.82-.5 -.23-.23-.49-.4-.83-.45 .19-.66-.07-.98-.65-1.12 .11.25.12.48.08.7 -.907-.26-2.3.15-2.3 1.71 0 1.55 1.07 2.86 3.1 2.53 -.49.23-.73.7-.78 1.22 .36-.15.77-.17.77-.17 -.24.41-.57.77-.56 1.596 .375-.18.72-.49 1.2-.29 -.76 1.48.17 3.52 2.53 4.01 -.87-1.02-1.29-2.11-1.29-3.192 0-3.53.97-4.12.97-6.567 0-1.03-.53-2.14-1.58-2.89v.04c.69-.19 1.13-.53 1.38-.99 -1.58-.45-3.87-.44-5.11.04 -1.42.16-2.41 1.25-2.7 1.8 -.3.55-.86 2.54 0 4.337 .93 1.96 5.35 11.33 6.73 14.28 .29.625.47 1.28.47 2 0 1.8-1.66 2.43-2.6 2.43 -1.13 0-2.27-.86-2.27-1.93 0-.68.36-1.09.89-1.09 1.26 0 1.19 1.07.93 1.76 .79-.36 1.24-.99 1.12-1.66 .44-.07.87-.28 1.26-.72 -.31-.39-.69-.69-1.27-.7 .25-1.04-.45-1.48-1.13-1.72 .21.76.35 1.63-.94 1.63 -.95 0-1.69.16-2.13.77 -.03-.82-.11-4.06-.11-4.06 -.06-1.22 1.62-1.18 2.69-.82 -.41-1.4-1.23-2.16-3.15-1.97 .46-.2.95-.64.95-1.48 0-1.14-.93-2.41-1.54-2.78l-.31 11.857Zm148.84-3.31c1.17.21 1.76-.43 1.94-1.311 .23-1.18-.27-7.11-.27-7.11s-2.74 5.28-2.97 6.45c-.18.88.11 1.72 1.29 1.95Zm4.3 1.3c1.11.44 1.81-.08 2.16-.91 .45-1.11 1.12-7.02 1.12-7.02s-3.71 4.64-4.17 5.75c-.35.83-.23 1.7.88 2.16Zm3.96 2.11c1 .65 1.79.28 2.29-.47 .66-1 2.46-6.67 2.46-6.67s-4.55 3.83-5.22 4.83c-.5.74-.56 1.63.44 2.29Zm3.47 2.85c.85.83 1.7.625 2.34-.02 .84-.85 3.72-6.06 3.72-6.06s-5.21 2.87-6.06 3.72c-.64.63-.86 1.49-.02 2.34Zm2.85 3.47c.67.98 1.55.94 2.3.44 .99-.67 4.83-5.22 4.83-5.22s-5.67 1.8-6.67 2.46c-.75.49-1.14 1.29-.47 2.29Zm2.11 3.96c.47 1.1 1.33 1.23 2.16.88 1.1-.46 5.75-4.17 5.75-4.17s-5.91.66-7.02 1.12c-.84.34-1.37 1.05-.91 2.16Zm1.3 4.3c.24 1.17 1.07 1.46 1.95 1.29 1.17-.24 6.45-2.97 6.45-2.97s-5.93-.51-7.11-.27c-.89.17-1.55.76-1.31 1.94Zm.44 4.47c.01 1.19.76 1.64 1.66 1.64 1.2 0 6.91-1.65 6.91-1.65s-5.72-1.65-6.92-1.65c-.9 0-1.67.45-1.67 1.64Zm-.45 4.47c-.22 1.17.42 1.76 1.31 1.94 1.17.23 7.1-.27 7.1-.27s-5.29-2.74-6.46-2.97c-.89-.18-1.73.11-1.96 1.29Zm-1.31 4.3c-.45 1.11.07 1.81.9 2.16 1.1.45 7.01 1.12 7.01 1.12s-4.65-3.71-5.76-4.17c-.84-.35-1.71-.23-2.17.88Zm-2.12 3.96c-.66 1-.29 1.79.46 2.29 .99.66 6.66 2.46 6.66 2.46s-3.84-4.55-4.84-5.22c-.75-.5-1.64-.56-2.3.44Zm-2.86 3.47c-.84.85-.625 1.7.01 2.34 .84.84 6.05 3.72 6.05 3.72s-2.88-5.21-3.73-6.06c-.64-.64-1.5-.86-2.35-.02Zm-3.48 2.85c-.99.67-.95 1.55-.45 2.3 .66.99 5.21 4.83 5.21 4.83s-1.81-5.67-2.47-6.67c-.5-.75-1.3-1.14-2.3-.47Zm-3.97 2.11c-1.11.47-1.24 1.33-.89 2.16 .45 1.1 4.16 5.75 4.16 5.75s-.67-5.91-1.13-7.02c-.35-.84-1.06-1.37-2.16-.91Zm-21.51-2.12c-1.01-.66-1.8-.28-2.3.46 -.67.99-2.47 6.66-2.47 6.66s4.54-3.84 5.21-4.84c.49-.75.55-1.64-.45-2.3Zm-3.48-2.86c-.86-.84-1.71-.63-2.35.01 -.85.84-3.73 6.05-3.73 6.05s5.2-2.88 6.05-3.73c.63-.64.85-1.5.01-2.35Zm-2.86-3.48c-.68-.99-1.56-.95-2.3-.45 -1 .66-4.84 5.21-4.84 5.21s5.66-1.81 6.66-2.47c.74-.5 1.13-1.3.46-2.3Zm-2.12-3.97c-.48-1.11-1.34-1.24-2.17-.89 -1.11.45-5.76 4.16-5.76 4.16s5.9-.67 7.01-1.13c.83-.35 1.36-1.06.9-2.16Zm-1.31-4.31c-.25-1.18-1.08-1.47-1.96-1.3 -1.18.23-6.46 2.96-6.46 2.96s5.92.5 7.1.26c.88-.18 1.54-.77 1.31-1.95Zm-.44-4.48c-.02-1.2-.77-1.65-1.67-1.65 -1.2 0-6.92 1.64-6.92 1.64s5.71 1.64 6.91 1.64c.89 0 1.66-.45 1.66-1.65Zm.44-4.48c.21-1.18-.43-1.77-1.32-1.95 -1.18-.24-7.11.26-7.11.26s5.28 2.73 6.45 2.96c.88.17 1.72-.12 1.95-1.3Zm1.3-4.31c.44-1.12-.08-1.82-.91-2.16 -1.11-.46-7.02-1.13-7.02-1.13s4.64 3.7 5.75 4.16c.83.34 1.71.22 2.16-.89Zm2.11-3.97c.65-1.01.28-1.8-.47-2.3 -1-.67-6.67-2.47-6.67-2.47s3.83 4.54 4.83 5.21c.74.5 1.63.55 2.29-.45Zm2.85-3.48c.83-.86.62-1.71-.02-2.35 -.85-.85-6.06-3.73-6.06-3.73s2.87 5.2 3.72 6.05c.63.63 1.49.85 2.34.01Z"/><path d="M162.54 43.344a20.18 20.18 0 1 0 0 40.364 20.18 20.18 0 1 0 0-40.364Z"/><path d="M162.571 40.576c1.2-.02 1.64-.77 1.64-1.67 0-1.2-1.65-6.92-1.65-6.92s-1.65 5.71-1.65 6.91c0 .89.44 1.66 1.64 1.66Zm4.47 45.4c-1.18.24-1.47 1.07-1.3 1.95 .23 1.17 2.96 6.45 2.96 6.45s.5-5.93.26-7.11c-.18-.89-.77-1.55-1.95-1.31Zm-4.48.44c-1.2.01-1.65.76-1.65 1.66 0 1.2 1.64 6.91 1.64 6.91s1.64-5.72 1.64-6.92c0-.91-.45-1.67-1.65-1.67Zm-4.48-.45c-1.18-.22-1.77.42-1.95 1.31 -.24 1.17.26 7.1.26 7.1s2.73-5.28 2.96-6.46c.17-.89-.12-1.72-1.3-1.96Zm-4.3-1.31c-1.12-.45-1.82.07-2.17.9 -.46 1.1-1.13 7.01-1.13 7.01s3.71-4.65 4.16-5.76c.34-.84.22-1.71-.89-2.17Zm-3.97-40.24c.98-.68.94-1.56.44-2.3 -.67-1-5.22-4.84-5.22-4.84s1.8 5.66 2.46 6.66c.5.74 1.29 1.13 2.29.46Zm3.96-2.12c1.1-.48 1.23-1.34.88-2.17 -.46-1.11-4.17-5.76-4.17-5.76s.66 5.9 1.12 7.01c.34.83 1.05 1.36 2.16.9Zm4.3-1.31c1.17-.25 1.46-1.08 1.29-1.96 -.24-1.18-2.97-6.46-2.97-6.46s-.51 5.92-.27 7.1c.17.88.76 1.54 1.94 1.31Z"/><path d="M161.87 98.742l-.35.69 -.39.89 -.24.42 -.2.38 -.16.31 -.2.19 -.47-.39 -.51-.35 -.55-.28 -.58-.24 -.62-.16 -.62-.16 -.62-.12 -.66-.08 -1.36-.12 -1.36-.04 -1.32-.08 -1.24-.16 -.7-.12 -.66-.16 -.35-.12 -.35-.12 -.31-.16 -.28-.16 -.43-.28 -.43-.31 -.47-.35 -.43-.39 -.89-.86 -.89-.86 -.89-.82 -.82-.74 -.39-.28 -.39-.28 -.35-.16 -.35-.12 -.66-.16 -.58-.2 -.59-.2 -.59-.28 -.51-.24 -.51-.31 -.47-.31 -.43-.31 -.47-.35 -.39-.35 -.39-.39 -.39-.39 -.74-.82 -.7-.86 -1.4-1.82 -1.47-1.86 -.86-.89 -.89-.89 -.51-.47 -.51-.43 -.55-.39 -.58-.43 -.12.03 -.12.11 -.12.15 -.08.19 -.12.34 -.04.15 -.28-.12 -.24-.12 -.28-.12 -.24-.08h-.51l-.28.07 -.28.11 .27.34 .34.46 .34.54 .31.58 .31.61 .23.58 .07.31 .07.23 .03.27v.23h-2.09l.31.46 .34.46 .38.46 .42.42 .42.42 .42.42 .42.34 .38.27 -.43.03 -.59.03 -.59.07 -.43.03 .34.31 .42.31 .46.34 .5.34 .5.31 .5.27 .46.15 .42.11 .19.03 .15.03 .11.03 .07.07 .03.03v.15l-.04.07 -.08.23 -.04.23 -.04.15v.11l.03.19 .03.15 .07.07 .11.07 .15.07 .19.03 .19.07 .19.07 .19.07 .15.11 .03.03v.07l-.04.03 -.16.11 -.16.11 -.16.15 -.16.19v.15l-.04.15 .03.19 .03.23 .65.23 .69.23 .31.07 .3.11 .23.11 .19.11 -1.28 1 .34.31 .42.23 .54.27 .54.19 .61.19 .58.11 .5.11h.46l-.43.31 -.55.34 -.58.31 -.43.31 .38.27 .54.27 .61.31 .73.34 1.7.73 1.85.73 1.93.69 1.89.61 .85.27 .77.19 .69.19 .61.11 -1.24-.12 -1.17-.16 -1.17-.2 -1.09-.24 -1.09-.31 -1.05-.31 -1.01-.35 -.97-.39 -1.9-.78 -1.78-.78 -.86-.35 -.86-.35 -.82-.31 -.82-.31 .19-.12 .23-.08 .31-.12 .34-.08 .73-.24 .65-.24 -1.17-.2 -1.59-.31 -.78-.24 -.66-.2 -.28-.12 -.24-.12 -.2-.12 -.12-.12v-.04l.03-.04 .11-.04 .11-.08 .31-.12 .42-.12 .92-.28 .77-.28 -1.9-.35 -1.48-.24 -.55-.12 -.43-.16 -.16-.08 -.16-.12 -.12-.08 -.08-.12 .11-.08 .34-.08 .5-.08 .58-.12 .61-.08 .54-.16 .27-.08 .23-.08 .15-.12 .15-.12 -.31-.12 -.31-.12 -.39-.08 -.39-.08 -.89-.12 -.89-.12 -.47-.12 -.43-.08 -.43-.16 -.43-.16 -.39-.2 -.35-.28 -.31-.28 -.24-.35 .07-.04 .15-.04h.19l.31.03 .69.03 .77.03 .85.07h1.08l.31-.04 .23-.08 .15-.08 -.93-.39 -1.24-.55 -.7-.35 -.74-.35 -.74-.39 -.74-.39 -.7-.43 -.66-.47 -.62-.47 -.55-.47 -.24-.28 -.24-.24 -.16-.24 -.16-.28 -.16-.24 -.08-.28 -.04-.24 -.04-.28h.27l.31.03 .31.11 .31.11 .61.38 .69.38 .31.19 .34.19 .34.15 .31.11 .34.07 .31.03h.34l.31-.12 -.93-.7 -1.05-.9 -1.2-1.05 -1.2-1.17 -1.2-1.24 -1.13-1.24 -.51-.66 -.51-.62 -.43-.62 -.39-.59 -.08-.16v-.28l.03-.12 .03-.12 .11-.08 .11-.12 .11-.08 .15-.04 .15-.04h.31l.19.03 .15.03 .15.11 .11.11 .69.69 .81.81 .85.89 .92.89 .92.81 .92.77 .46.31 .42.27 .46.23 .42.15 -.31-.2 -.35-.35 -.47-.47 -.51-.59 -1.13-1.36 -1.24-1.59 -.62-.86 -.58-.86 -.55-.86 -.55-.82 -.47-.78 -.39-.7 -.28-.66 -.24-.55 -.04-.2v-.31l.03-.12 .07-.12 .07-.12 .07-.08 .11-.08 .27-.08 .23-.08h.54l.15.03 .11.03 .15.07 .11.11 .31.27 .31.38 .69.89 .73 1.12 .85 1.19 .89 1.23 .46.58 .46.58 .5.5 .54.46 -.66-1.28 -.74-1.47 -.39-.82 -.35-.82 -.35-.86 -.31-.86 -.28-.89 -.28-.86 -.2-.86 -.16-.86 -.08-.82 -.04-.78 .03-.39 .03-.35 .03-.35 .07-.35 .07-.12 .03-.12 .11-.12 .07-.08 .27-.12 .27-.08h.27l.23.03 .11.03 .07.03 .03.07 .03.11 .38 1.23 .34 1.31 .34 1.35 .34 1.31 .34 1.31 .46 1.23 .23.58 .27.58 .31.54 .34.54 -.24-1.13 -.16-1.01 -.16-.93 -.08-.86 -.08-.74 -.04-.66 .03-.55 .03-.47 .07-.39 .11-.31 .07-.12 .07-.12 .07-.08 .11-.08 .11-.04h.34l.31.11 .31.15 .27 1.23 .27 1.19 .31 1.12 .34 1.08 .38 1.08 .42 1.08 .46 1.12 .54 1.12 .38.73 .38.73 .42.73 .42.73 .46.69 .46.69 .5.69 .5.69 .92 1.16 .96 1.08 1 1.08 1.04 1 1.08 1 1.12.92 1.16.89 1.2.85 .81.54 .85.5 .89.5 .85.46 1.35.65 1.31.61 1.39.54 1.39.5 1.31.42 1.35.34 1.39.31 1.35.27 1.43.19 1.39.15 1.43.11 1.43.08m3.52 11.76l.65.07 .31.11 .07.03v.03h-.08l-.08.03 -.62.11h-.51l-1.625-.12 -1.98-.04 -2.13-.04 -2.21.03 -1.05.03 -1.05.07 -.93.07 -.89.07 -.74.11 -.66.15 -.24.07 -.24.07 -.2.07 -.16.11 .07-.39 .15-.39 -.28.07 -.28.07 -.24.11 -.24.11 -.2.11 -.16.15 -.12.19 -.04.19 -.12-.28 -.08-.24 -.04-.28 -.04-.24 .03-.2 .03-.24 .03-.2 .11-.2 .07-.16 .15-.2 .15-.16 .15-.16 .42-.28 .46-.28c.25.15.53.26.81.34 .24.03.53-.01.81-.08 .47.41 1.1.36 1.5-.08v0c.08-.09.15-.2.19-.31 .06-.23.05-.52 0-.78l.46-.04 .54-.08 .58-.16 .61-.16 .61-.12 .58-.16 .54-.08 .46-.04 -.2.15 -.47.34 -.55.42 -.39.27 .5.11 .42.07 -.31.34 -.31.34 -.31.34 -.24.31 .31.11 .31.07 .34.07h.69l.34-.08 .34-.08 .27-.16 .31.15 .31.11 .31.07 .31.07 .69.07 .73.07h2.93"/><path d="M153.51 108.301l.11.03 .11.03 .03.11 .03.11 -.04.11 -.04.11 -.12.07h-.28l-.08-.08 -.08-.12 -.04-.12 .03-.12 .07-.12 .07-.04 .15-.04"/><path d="M153.47 108.455l.07.03 .03.07 -.04.07 -.08.03 -.08-.04 -.04-.08 .03-.08 .07-.04"/><path d="M153.5 108.98v0c-.2 0-.36-.16-.36-.36 -.01-.2.15-.36.35-.36 0 0 0-.001 0-.001v0c.19-.01.35.15.35.35 0 .19-.16.35-.36.35Z"/><path d="M182.33 112.4l-.27.11 -.28.03 -.24.03 -.2-.04 -.2-.04 -.2-.08 -.16-.08 -.2-.12 -.31-.24 -.31-.24 -.16-.12 -.2-.08 -.16-.04h-.2l-.35.73 -.47.92 -.16.23 -.16.19 -.16.11 -.16.11 -.2.07h-.2l-.2-.08 -.24-.12 -.08-.12 -.08-.12 -.08-.16 -.08-.2 -.08-.35 -.04-.24 -.24.19 -.24.27 -.2.31 -.24.34 -.28.34 -.28.27 -.16.15 -.2.11 -.2.07 -.24.07h-.12l-.2.03 -.2-.04 -.16-.08 -.47-.55 -.51-.55 -.35.54 -.39.46 -.2.19 -.2.19 -.2.15 -.2.11 -.16.07 -.2.03h-.2l-.16-.04 -.16-.08 -.12-.12 -.16-.2 -.08-.24 -.08-.24 -.16-.39 -.04-.2 -.08-.16 -.08-.08h-.09l-1.05 1.7 -.16.15 -.28.11 -.31.07 -.31.07h-.35l-.27-.08 -.08-.04 -.12-.12 -.04-.08V115l.15-1.71 -.12.03 -.16.07 -.16.07 -.16.15 -.31.34 -.35.38 -.35.42 -.43.34 -.2.15 -.2.15 -.24.11 -.2.03 -.28.04 -.2-.04 -.08-.04 -.08-.08 -.04-.12v-.12l.03-.51 .07-.51 .03-.28 -.04-.24 -.04-.24 -.16-.28 -.24.34 -.39.5 -.47.5 -.51.5 -.28.19 -.28.19 -.24.07 -.2.07 -.08-.04h-.12l-.08-.08 -.04-.04 -.08-.12 -.04-.12v-.16l-.04-.2 .03-1.47 -.97.65 -1.17.73 -.27.11 -.31.15 -.28.07 -.31.07 -.28.07h-.27l-.28-.04 -.24-.08 .11-.31 .11-.28 .11-.28 .15-.24 .15-.24 .15-.24 .19-.2 .19-.2 .42-.31 .5-.31 .5-.24 .58-.2 .58-.16 .65-.12 .65-.12 .65-.08 1.43-.08 1.47-.04h2.94l.73-.04 .69-.04 .69-.04 .65-.08 .65-.12 .58-.12 .58-.16 .54-.24 .5-.24 .42-.31 .42-.31 .34-.43 -.39-.78 .31-.04 .31-.08 .31-.16 .27-.2 .11-.08 .11-.12 .07-.16 .07-.12 .03-.16v-.28l-.08-.16 .65-.12 .69-.08 .73-.04h.77l1.58.07 1.625.11 1.66.19 1.625.15 1.58.15 1.47.07v.54l-.04.23 -.08.23 -.08.23 -.08.19 -.12.15 -.16.19 -.27.27 -.35.23 -.35.15 -.39.07 -.43.07 -.43-.04 -.39-.04 -.43-.12 -.39-.2 -.39-.2 -.31-.28 -.31-.31v.65l-.12.85 -.08.42 -.12.38 -.08.15 -.12.11 -.08.11 -.12.07m-31.11-3.64l.89.38 .23-.2 .31-.24 .34-.2 .31-.2 1.16-.47 1-.47 .5-.2 .42-.24 .42-.24 .34-.24 .89-.59 .89-.58 .85-.55 .77-.55 .58-.47 .46-.43 .5-.47 .54-.51 .19-.2 .23-.16 .27-.16 .31-.16 .65-.31 .65-.24 .89-.24 .96-.24 1-.2 1.12-.2 1.35-.16 1.35-.2 1.39-.16 1.35-.24 .46-.08 .42-.12 .46-.12 .46-.12 .46-.59 .73-.82 .5-.51 .58-.47 .65-.51 .77-.51 1.16-.7 1.23-.62 1.27-.66 1.23-.58 1.16-.59 1.08-.55 .89-.47 .69-.47 .19-.59 .27-.58 .34-.58 .42-.59 .46-.62 .58-.62 .61-.7 .77-.74 .69-.62 .73-.62 .38-.28 .38-.28 .42-.24 .42-.24 .42-.2 .42-.16 .46-.12 .42-.12 .46-.04 .42-.04 .46.03 .42.07 -.04.46 -.12.46 -.16.46 -.2.5 -.27.5 -.35.5 -.43.54 -.51.54 .38-.04 .34-.08 .27-.08 .27-.12 .23-.08 .27-.08 .34-.04 .38-.04 .03.27v.27l-.04.27 -.08.23 -.12.23 -.16.23 -.16.19 -.2.19 -.82.77 -.82.73 .46.03 .5.15 .5.15 .38.07 -.47.34 -.55.34 -.55.34 -.62.34 -.62.34 -.62.38 -.62.42 -.59.46 .27.03 .34.15 .15.03 .15.07 .11.03 .11-.04 -.78.42 -.97.46 -.47.23 -.39.23 -.2.11 -.12.11 -.08.11 -.08.11 .03.15 .07.11 .15.11 .11.11 -.04.15 -.08.11 -.16.11 -.16.11 -.35.19 -.47.19 -.47.15 -.43.15 -.31.15 -.24.11 .77.77 -.28.27 -.28.19 -.24.11 -.28.11 -.55.07h-.74l.07.34 .11.34 .07.38 .07.38 -.66.5 -.82.58 -.89.58 -1.01.58 -.59.31 -.58.27 -.62.23 -.66.23 -.7.23 -.74.15 -.78.15 -.82.11 1.43.03h1.23l1.16-.12 1.04-.12 .96-.2 .85-.24 .85-.31 .81-.31 1.08-.51 1.04-.58 1-.62 1.04-.62 -.62-.31 -.62-.2 -.31-.12 -.31-.16 -.35-.16 -.35-.2 .31-.24 .34-.16 .42-.16 .46-.12 .92-.2 .96-.12 .85-.12 .77-.08 .31-.08 .27-.08 .15-.08 .11-.12 -.04-.04 -.08-.08 -.12-.04 -.16-.08 -.43-.08 -.55-.08 -.55-.04 -.55-.08 -.47-.12 -.31-.12 1.04-.24 1.04-.24 .92-.2 .77-.2 .65-.2 .58-.24 .27-.12 .19-.12 .19-.12 .15-.16 -.04-.04 -.08-.08 -.16-.04 -.2-.04 -.51-.04h-.59l-.62-.04 -.59-.04 -.51-.08 -.31-.08 .27-.12 .27-.12 .92-.28 .81-.24 .73-.2 .69-.24 .73-.24 .73-.31 .34-.2 .31-.2 .11-.12 .11-.16 .11-.12 .03-.12 -.04-.12 -.12-.08 -.12-.04h-1.09l-.51.03h-.7l-.2-.04 -.16-.08 -.16-.08 1.54-1.01 1.43-.93 1.27-.82 1.12-.78 .46-.39 .42-.39 .34-.39 .31-.39 .23-.43 .19-.43 .11-.47v-.51h-.27l-.28.03 -.31.11 -.31.11 -.62.38 -.66.38 -.35.19 -.31.19 -.35.15 -.35.11 -.31.07 -.31.03h-.35l-.31-.12 .92-.7 1.04-.89 1.19-1.05 1.2-1.17 1.2-1.24 1.12-1.24 .5-.66 .5-.62 .42-.62 .38-.58 .07-.16 .03-.12 -.04-.16 -.04-.12 -.04-.12 -.12-.08 -.12-.12 -.12-.04 -.16-.08 -.16-.04h-.31l-.16.03 -.2.03 -.12.11 -.16.11 -.7.69 -.82.81 -.86.89 -.93.89 -.93.81 -.93.77 -.47.31 -.43.27 -.47.23 -.39.19 .27-.24 .34-.35 .46-.47 .5-.58 1.12-1.36 1.23-1.59 .61-.86 .58-.86 .58-.82 .5-.86 .46-.78 .38-.7 .31-.66 .19-.55 .03-.2v-.31l-.04-.12 -.08-.12 -.08-.12 -.08-.08 -.12-.04 -.24-.12 -.28-.08h-.55l-.16.03 -.12.03 -.16.07 -.12.11 -.31.27 -.31.38 -.7.89 -.74 1.12 -.82 1.19 -.89 1.23 -.51.58 -.47.58 -.51.5 -.55.46 .69-1.28 .69-1.47 .38-.82 .34-.82 .34-.86 .31-.86 .27-.89 .27-.86 .19-.86 .15-.86 .07-.82 .03-.78 -.04-.39 -.04-.35 -.04-.35 -.08-.35 -.04-.12 -.08-.12 -.12-.12 -.08-.08 -.27-.12 -.28-.08h-.28l-.24.03 -.08.03 -.12.03 -.04.07 -.04.11 -.39 1.27 -.35 1.27 -.35 1.35 -.35 1.31 -.35 1.31 -.47 1.23 -.24.61 -.28.54 -.31.58 -.35.5 .23-1.13 .15-1.01 .15-.93 .07-.86 .07-.74 .03-.66 -.04-.55 -.04-.47 -.08-.39 -.12-.31 -.08-.12 -.08-.12 -.08-.08 -.12-.04 -.12-.04 -.12-.04h-.12l-.12.03 -.31.07 -.31.15 -.28 1.23 -.28 1.2 -.31 1.12 -.35 1.08 -.39 1.08 -.43 1.08 -.47 1.12 -.55 1.12 -.39.73 -.39.73 -.43.73 -.43.73 -.47.69 -.47.69 -.51.69 -.51.69 -.93 1.16 -.97 1.08 -1.01 1.08 -1.05 1 -1.09 1 -1.13.92 -1.17.89 -1.2.85 -.82.54 -.86.54 -.86.5 -.86.5 -1.36.61 -1.36.61 -1.4.5 -1.4.5 -1.17.34 -1.17.34 -1.2.27 -1.2.27 -1.2.19 -1.24.15 -1.2.15 -1.24.07 -.12.03 -.12.03 -.24.11 -.28.19 -.39.34 -.51.46 -.62.61 -.74.81 -.7.81 -.82.89 -.43.42 -.43.42 -.51.38 -.51.38 -.39.27 -.39.23 -.43.19 -.43.19 -.93.38 -.93.34 -.93.34 -.82.31 -.35.15 -.35.19 -.31.15 -.24.15 -.24.23 -.2.19 -.12.19 -.08.19 -.04.27 .01.14"/><path fill="#FEC50C" stroke="#00AFCA" stroke-width=".191" d="M153.47 108.72v-.001c-.09 0-.15-.07-.15-.15 0-.09.06-.15.14-.15v0c.08 0 .14.06.14.14 0 .08-.07.14-.15.14Z"/><path d="M18.5 139.562s-1.45 1.21-1.94.6c-.79-.98 2.42-5.85 2.42-7.56 0-2.82-1.88-3.58-4.2-3.99 -1.56-.27-4.089.11-4.089.11 .47.64.78.82 1.59.88 -.9.46-1.81 1.47-1.81 3.04 0 2.42.99 3.41.99 6.14 0 1.51-1.25 3.44-1.25 3.44 2.19-.22 3.282-2.26 2.66-3.875 .34-.05.66.02.93.28 .16-.45-.1-.98-.44-1.43 .27-.15.47-.06.91.03 -.05-.47-.32-.96-1-1.42 1.97.51 3.18-.87 3.18-2.31 0-1.09-.77-1.87-1.51-1.87 -.25 0-.6.1-.8.24 -.15-.3-.07-.7.07-1 -.55.14-.9.46-.65 1.14 -.42.03-.76.18-.98.45 .23.29.57.46.98.45 -.31.63.03.98.53 1.26 0 0-.32-1.27.49-1.27 .36 0 .69.11.69.65 0 .46-.41 1.1-1.35 1.06 -.94-.05-1.7-.65-1.7-2.15 0-1.39 1.11-2.07 2.58-2.12 1.32-.05 2.32.67 2.32 2.04 0 1.81-2.63 5.96-2.63 7.58 0 1.21 1.09 1.89 2.16 1.89 1.38 0 2.55-1.375 2.55-1.375l-.82-1.03 -.01 0Zm-.31-32.89c0-3.05 2.72-4.61 4.875-4.61 2.89 0 4.42 1.72 4.42 3.99 0 1.28-.24 2.08-.83 3.31 0 0-4.77 9.91-6.63 13.74 -.24.47-.31 1.02-.31 1.82 0 1.23 1.19 2.24 2.44 2.27 1.14.02 2.38-1.07 2.38-2.32 0-1.52-.79-2.19-1.6-2.19 -1 0-1.39.4-1.39 1.1 0 .48.23.69.57.69 .85 0 .61-1.15.61-1.15 .42.09.77.52.57 1.06 .3.06.59.23.82.49 -.23.22-.49.39-.83.45 .19.65-.07.98-.65 1.11 .11-.26.12-.49.08-.71 -.91.25-2.3-.16-2.3-1.72s1.07-2.87 3.1-2.54c-.49-.23-.73-.71-.78-1.23 .36.14.77.16.77.16 -.24-.42-.57-.78-.56-1.6 .375.17.72.48 1.2.28 -.76-1.49.17-3.53 2.53-4.01 -.87 1.01-1.29 2.1-1.29 3.19 0 3.52.97 4.11.97 6.56 0 1.02-.53 2.13-1.58 2.88v-.05c.69.18 1.13.52 1.38.98 -1.58.44-3.87.43-5.11-.05 -1.42-.17-2.41-1.25-2.7-1.8 -.3-.55-.86-2.55 0-4.34 .93-1.97 5.35-11.34 6.73-14.28 .29-.625.47-1.29.47-2.01 0-1.81-1.66-2.44-2.6-2.44 -1.13 0-2.27.85-2.27 1.92 0 .67.36 1.08.89 1.08 1.26 0 1.19-1.08.93-1.76 .79.35 1.24.98 1.12 1.65 .44.06.87.27 1.26.71 -.31.39-.69.68-1.27.69 .25 1.03-.45 1.47-1.13 1.71 .21-.77.35-1.64-.94-1.64 -.95 0-1.69-.17-2.13-.78 -.03.81-.11 4.05-.11 4.05 -.06 1.21 1.62 1.18 2.69.81 -.41 1.39-1.23 2.15-3.15 1.96 .46.19.95.63.95 1.47 0 1.13-.93 2.4-1.54 2.77l-.31-11.854Z"/><path d="M18.8 106.68c0-3.05-2.73-4.61-4.88-4.61 -2.89 0-4.429 1.72-4.429 3.99 0 1.28.23 2.08.82 3.31 0 0 4.76 9.91 6.62 13.74 .23.47.3 1.02.3 1.82 0 1.23-1.2 2.24-2.45 2.27 -1.15.02-2.388-1.07-2.388-2.32 0-1.52.78-2.19 1.59-2.19 .99 0 1.388.4 1.388 1.1 0 .48-.24.69-.58.69 -.86 0-.62-1.15-.62-1.15 -.43.09-.77.52-.58 1.06 -.31.06-.6.23-.827.49 .22.22.49.39.827.45 -.2.65.06.98.64 1.11h-.001c-.11-.23-.13-.47-.09-.71 .907.25 2.29-.16 2.29-1.72s-1.08-2.87-3.11-2.54c.48-.23.72-.71.77-1.23 -.37.14-.78.16-.78.16 .23-.42.56-.78.55-1.6 -.375.17-.73.48-1.21.28 .75-1.49-.18-3.53-2.53-4.01 .86 1.01 1.28 2.1 1.28 3.19 0 3.52-.98 4.11-.98 6.56 0 1.02.52 2.13 1.57 2.88v-.05c-.69.18-1.14.52-1.39.98 1.577.44 3.87.43 5.1-.05 1.41-.17 2.4-1.25 2.69-1.8 .29-.56.85-2.55 0-4.34l0-.001c-2.26-4.76-4.5-9.52-6.74-14.28 -.3-.625-.47-1.29-.47-2.01 0-1.81 1.65-2.44 2.59-2.44 1.12 0 2.26.85 2.26 1.92 0 .67-.37 1.08-.9 1.08 -1.27 0-1.2-1.08-.94-1.76 -.79.35-1.25.98-1.13 1.65 -.45.06-.88.27-1.27.71 .3.39.68.68 1.26.69 -.26 1.03.44 1.47 1.12 1.71 -.22-.77-.36-1.64.93-1.64 .94 0 1.68-.17 2.12-.78 .02.81.1 4.05.1 4.05 .05 1.21-1.63 1.18-2.7.81 .4 1.39 1.22 2.15 3.14 1.96 -.47.19-.96.63-.96 1.47 0 1.13.92 2.4 1.53 2.77l.3-11.854Zm-.31 32.88s1.44 1.21 1.93.6c.78-.98-2.43-5.85-2.43-7.56 0-2.82 1.87-3.58 4.19-3.99 1.55-.27 4.08.11 4.08.11 -.48.64-.79.82-1.6.88 .89.46 1.8 1.47 1.8 3.04 0 2.42-1 3.41-1 6.14 0 1.51 1.24 3.44 1.24 3.44 -2.2-.22-3.29-2.26-2.67-3.875 -.35-.05-.67.02-.94.28 -.17-.45.09-.98.43-1.43 -.28-.15-.48-.06-.91.03 .04-.47.31-.96.99-1.42 -1.98.51-3.186-.87-3.186-2.31 0-1.09.76-1.87 1.5-1.87 .24 0 .59.1.79.24 .14-.3.06-.7-.08-1 .54.14.89.46.64 1.14 .41.03.75.18.98.45v0c-.24.3-.6.46-.98.45 .3.63-.04.98-.53 1.26 0 0 .31-1.27-.49-1.27 -.37 0-.7.11-.7.65 0 .46.4 1.1 1.34 1.06 .93-.05 1.7-.65 1.7-2.15 0-1.39-1.12-2.07-2.59-2.12 -1.33-.05-2.33.67-2.33 2.04 0 1.81 2.62 5.96 2.62 7.58 0 1.21-1.1 1.89-2.17 1.89 -1.39 0-2.56-1.375-2.56-1.375l.81-1.03v0Zm-.31-86.12c0-3.05 2.72-4.61 4.875-4.61 2.89 0 4.42 1.72 4.42 3.99 0 1.28-.24 2.08-.83 3.314 0 0-4.77 9.91-6.63 13.74 -.24.47-.31 1.02-.31 1.82 0 1.23 1.19 2.24 2.44 2.27 1.14.02 2.38-1.07 2.38-2.32 0-1.52-.79-2.19-1.6-2.19 -1 0-1.39.4-1.39 1.1 0 .48.23.69.57.69 .85 0 .61-1.15.61-1.15 .42.09.77.52.57 1.06 .3.06.59.23.82.49 -.23.22-.49.39-.83.45 .19.65-.07.98-.65 1.11 .11-.26.12-.49.08-.71 -.91.25-2.3-.16-2.3-1.72s1.07-2.87 3.1-2.54c-.49-.23-.73-.71-.78-1.23 .36.14.77.16.77.16 -.24-.42-.57-.78-.56-1.6 .375.17.72.48 1.2.28 -.76-1.49.17-3.53 2.53-4.01 -.87 1.01-1.29 2.1-1.29 3.19 0 3.52.97 4.11.97 6.56 0 1.02-.53 2.13-1.58 2.88v-.05c.69.18 1.13.52 1.38.98 -1.58.44-3.87.43-5.11-.05 -1.42-.17-2.41-1.25-2.7-1.81 -.3-.56-.86-2.55 0-4.34 .93-1.97 5.35-11.34 6.73-14.28 .29-.625.47-1.29.47-2.01 0-1.81-1.66-2.44-2.6-2.44 -1.13 0-2.27.85-2.27 1.92 0 .67.36 1.08.89 1.08 1.26 0 1.19-1.08.93-1.76 .79.35 1.24.98 1.12 1.65 .44.06.87.27 1.26.71 -.31.39-.69.68-1.27.69 .25 1.03-.45 1.47-1.13 1.71 .21-.77.35-1.64-.94-1.64 -.95 0-1.69-.17-2.13-.78 -.03.81-.11 4.05-.11 4.05 -.06 1.21 1.62 1.18 2.69.81 -.41 1.39-1.23 2.15-3.15 1.96 .46.19.95.63.95 1.47 0 1.13-.93 2.4-1.54 2.77l-.31-11.86Z"/><path d="M18.8 53.442c0-3.05-2.73-4.61-4.88-4.61 -2.89 0-4.429 1.72-4.429 3.99 0 1.28.23 2.08.82 3.314 0 0 4.76 9.91 6.62 13.74 .23.47.3 1.02.3 1.82 0 1.23-1.2 2.24-2.45 2.27 -1.15.02-2.388-1.07-2.388-2.32 0-1.52.78-2.19 1.59-2.19 .99 0 1.388.4 1.388 1.1 0 .48-.24.69-.58.69 -.86 0-.62-1.15-.62-1.15 -.43.09-.77.52-.58 1.06 -.31.06-.6.23-.827.49 .22.22.49.39.827.45 -.2.65.06.98.64 1.11v0c-.11-.23-.13-.47-.09-.71 .907.25 2.29-.16 2.29-1.72s-1.08-2.87-3.11-2.54c.48-.23.72-.71.77-1.23 -.37.14-.78.16-.78.16 .23-.42.56-.78.55-1.6 -.375.17-.73.48-1.21.28 .75-1.49-.18-3.53-2.53-4.01 .86 1.01 1.28 2.1 1.28 3.19 0 3.52-.98 4.11-.98 6.56 0 1.02.52 2.13 1.57 2.88v-.05c-.69.18-1.14.52-1.39.98 1.577.44 3.87.43 5.1-.05 1.41-.17 2.4-1.25 2.69-1.81 .29-.56.85-2.55 0-4.34l0-.001c-2.26-4.76-4.5-9.52-6.74-14.28 -.3-.625-.47-1.29-.47-2.01 0-1.81 1.65-2.44 2.59-2.44 1.12 0 2.26.85 2.26 1.92 0 .67-.37 1.08-.9 1.08 -1.27 0-1.2-1.08-.94-1.76 -.79.35-1.25.98-1.13 1.65 -.45.06-.88.27-1.27.71 .3.39.68.68 1.26.69 -.26 1.03.44 1.47 1.12 1.71 -.22-.77-.36-1.64.93-1.64 .94 0 1.68-.17 2.12-.78 .02.81.1 4.05.1 4.05 .05 1.21-1.63 1.18-2.7.81 .4 1.39 1.22 2.15 3.14 1.96 -.47.19-.96.63-.96 1.47 0 1.13.92 2.4 1.53 2.77l.3-11.86Z"/><path d="M18.8 44.32c0 3.04-2.73 4.6-4.88 4.6 -2.89 0-4.429-1.73-4.429-3.99 0-1.29.23-2.09.82-3.314 0 0 4.76-9.92 6.62-13.75 .23-.48.3-1.03.3-1.83 0-1.24-1.2-2.24-2.45-2.28 -1.15-.03-2.388 1.06-2.388 2.31 0 1.51.78 2.189 1.59 2.189 .99 0 1.388-.41 1.388-1.11 0-.49-.24-.7-.58-.7 -.86 0-.62 1.14-.62 1.14 -.43-.1-.77-.53-.58-1.064h-.001c-.33-.08-.62-.25-.83-.5 .22-.23.49-.4.827-.45 -.2-.66.06-.98.64-1.12 -.12.25-.12.48-.09.7 .907-.26 2.29.15 2.29 1.71 0 1.55-1.08 2.86-3.11 2.53 .48.23.72.7.77 1.22 -.37-.15-.78-.17-.78-.17 .23.41.56.77.55 1.596 -.375-.18-.73-.49-1.21-.29 .75 1.48-.18 3.52-2.53 4.01 .86-1.02 1.28-2.11 1.28-3.192 0-3.53-.98-4.12-.98-6.567 0-1.03.52-2.14 1.57-2.89v.04c-.69-.19-1.14-.53-1.39-.99 1.577-.45 3.87-.44 5.1.04 1.41.16 2.4 1.25 2.69 1.8 .29.55.85 2.54 0 4.337l0 0c-2.26 4.75-4.5 9.51-6.74 14.28 -.3.625-.47 1.28-.47 2 0 1.8 1.65 2.43 2.59 2.43 1.12 0 2.26-.86 2.26-1.93 0-.68-.37-1.09-.9-1.09 -1.27 0-1.2 1.07-.94 1.76 -.79-.36-1.25-.99-1.13-1.66 -.45-.07-.88-.28-1.27-.72 .3-.39.68-.69 1.26-.7 -.26-1.04.44-1.48 1.12-1.72 -.22.76-.36 1.63.93 1.63 .94 0 1.68.16 2.12.77 .02-.82.1-4.06.1-4.06 .05-1.22-1.63-1.18-2.7-.82 .4-1.4 1.22-2.16 3.14-1.97 -.47-.2-.96-.64-.96-1.48 0-1.14.92-2.41 1.53-2.78l.3 11.857Zm0 53.239c0 3.04-2.73 4.6-4.88 4.6 -2.89 0-4.429-1.73-4.429-3.99 0-1.29.23-2.09.82-3.32 0 0 4.76-9.92 6.62-13.75 .23-.48.3-1.03.3-1.83 0-1.24-1.2-2.24-2.45-2.28 -1.15-.03-2.388 1.06-2.388 2.31 0 1.51.78 2.18 1.59 2.18 .99 0 1.388-.41 1.388-1.11 0-.49-.24-.7-.58-.7 -.86 0-.62 1.14-.62 1.14 -.43-.1-.77-.53-.58-1.07h-.001c-.33-.08-.62-.25-.83-.5 .22-.23.49-.4.827-.45 -.2-.66.06-.98.64-1.12 -.12.25-.12.48-.09.7 .907-.26 2.29.15 2.29 1.71 0 1.55-1.08 2.86-3.11 2.53 .48.23.72.7.77 1.22 -.37-.15-.78-.17-.78-.17 .23.41.56.77.55 1.59 -.375-.17-.73-.49-1.21-.29 .75 1.48-.18 3.52-2.53 4.01 .86-1.02 1.28-2.11 1.28-3.2 0-3.53-.98-4.12-.98-6.57 0-1.03.52-2.14 1.57-2.89v.04c-.69-.19-1.14-.53-1.39-.99 1.577-.45 3.87-.44 5.1.04 1.41.16 2.4 1.25 2.69 1.8 .29.55.85 2.54 0 4.33l-.001 0c-2.26 4.75-4.5 9.51-6.74 14.27 -.3.625-.47 1.28-.47 2 0 1.8 1.65 2.43 2.59 2.43 1.12 0 2.26-.86 2.26-1.93 0-.68-.37-1.09-.9-1.09 -1.27 0-1.2 1.07-.94 1.75 -.79-.36-1.25-.99-1.13-1.66 -.45-.07-.88-.28-1.27-.72 .3-.39.68-.69 1.26-.7 -.26-1.04.44-1.48 1.12-1.72 -.22.76-.36 1.63.93 1.63 .94 0 1.68.16 2.12.77 .02-.82.1-4.05.1-4.05 .05-1.22-1.63-1.18-2.7-.82 .4-1.4 1.22-2.16 3.14-1.97 -.47-.2-.96-.64-.96-1.48 0-1.14.92-2.4 1.53-2.78l.3 11.85Z"/><path d="M18.19 97.559c0 3.04 2.72 4.6 4.875 4.6 2.89 0 4.42-1.73 4.42-3.99 0-1.29-.24-2.09-.83-3.32 0 0-4.77-9.92-6.63-13.75 -.24-.48-.31-1.03-.31-1.83 0-1.24 1.19-2.24 2.44-2.28 1.14-.03 2.38 1.06 2.38 2.31 0 1.51-.79 2.18-1.6 2.18 -1 0-1.39-.41-1.39-1.11 0-.49.23-.7.57-.7 .85 0 .61 1.14.61 1.14 .42-.1.77-.53.57-1.07 .3-.07.59-.24.82-.5 -.23-.23-.49-.4-.83-.45 .19-.66-.07-.98-.65-1.12 .11.25.12.48.08.7 -.907-.26-2.3.15-2.3 1.71 0 1.55 1.07 2.86 3.1 2.53 -.49.23-.73.7-.78 1.22 .36-.15.77-.17.77-.17 -.24.41-.57.77-.56 1.59 .375-.17.72-.49 1.2-.29 -.76 1.48.17 3.52 2.53 4.01 -.87-1.02-1.29-2.11-1.29-3.2 0-3.53.97-4.12.97-6.57 0-1.03-.53-2.14-1.58-2.89v.04c.69-.19 1.13-.53 1.38-.99 -1.58-.45-3.87-.44-5.11.04 -1.42.16-2.41 1.25-2.7 1.8 -.3.55-.86 2.54 0 4.33 .93 1.96 5.35 11.33 6.73 14.27 .29.625.47 1.28.47 2 0 1.8-1.66 2.43-2.6 2.43 -1.13 0-2.27-.86-2.27-1.93 0-.68.36-1.09.89-1.09 1.26 0 1.19 1.07.93 1.75 .79-.36 1.24-.99 1.12-1.66 .44-.07.87-.28 1.26-.72 -.31-.39-.69-.69-1.27-.7 .25-1.04-.45-1.48-1.13-1.72 .21.76.35 1.63-.94 1.63 -.95 0-1.69.16-2.13.77 -.03-.82-.11-4.05-.11-4.05 -.06-1.22 1.62-1.18 2.69-.82 -.41-1.4-1.23-2.16-3.15-1.97 .46-.2.95-.64.95-1.48 0-1.14-.93-2.4-1.54-2.78l-.31 11.85Zm.3-86.13s1.44-1.22 1.93-.61c.78.97-2.43 5.84-2.43 7.56 0 2.814 1.87 3.57 4.19 3.98 1.55.27 4.08-.12 4.08-.12 -.48-.65-.79-.83-1.6-.89 .89-.47 1.8-1.48 1.8-3.05 0-2.43-1-3.42-1-6.15 0-1.52 1.24-3.45 1.24-3.45 -2.2.22-3.282 2.25-2.67 3.875 -.35.05-.67-.03-.94-.29 -.17.45.09.97.43 1.42 -.28.14-.48.05-.91-.04 .04.46.31.95.99 1.42 -1.98-.52-3.186.86-3.186 2.3 0 1.08.76 1.86 1.5 1.86 .24 0 .59-.1.79-.25 .14.29.06.7-.08.99 .54-.15.89-.47.64-1.15 .41-.04.75-.18.98-.45v0c-.24-.31-.6-.47-.98-.45 .3-.63-.04-.99-.53-1.27 0 0 .31 1.26-.49 1.26 -.37 0-.7-.12-.7-.66 0-.47.4-1.11 1.34-1.07 .93.04 1.7.64 1.7 2.14 0 1.38-1.12 2.07-2.59 2.11 -1.33.04-2.33-.68-2.33-2.05 0-1.82 2.62-5.97 2.62-7.587 0-1.22-1.1-1.9-2.17-1.9 -1.39 0-2.56 1.37-2.56 1.37l.81 1.02v-.01Z"/><path d="M18.5 11.43s-1.45-1.22-1.94-.61c-.79.97 2.42 5.84 2.42 7.56 0 2.814-1.88 3.57-4.196 3.98 -1.56.27-4.089-.12-4.089-.12 .47-.65.78-.83 1.59-.89 -.9-.47-1.81-1.48-1.81-3.05 0-2.43.99-3.42.99-6.15 0-1.52-1.25-3.45-1.25-3.45 2.19.22 3.282 2.25 2.66 3.875 .34.05.66-.03.93-.29 .16.45-.1.97-.44 1.42 .27.14.47.05.91-.04 -.05.46-.32.95-1 1.42 1.97-.52 3.186.86 3.186 2.3 0 1.08-.77 1.86-1.51 1.86 -.25 0-.6-.1-.8-.25 -.15.29-.07.7.07.99 -.55-.15-.9-.47-.65-1.15 -.42-.04-.76-.18-.98-.45v0c.23-.31.59-.47.98-.45 -.31-.63.03-.99.53-1.27 0 0-.32 1.26.49 1.26 .36 0 .69-.12.69-.66 0-.47-.41-1.11-1.35-1.07 -.94.04-1.7.64-1.7 2.14 0 1.38 1.11 2.07 2.58 2.11 1.32.04 2.32-.68 2.32-2.05 0-1.82-2.63-5.97-2.63-7.587 0-1.22 1.09-1.9 2.16-1.9 1.38 0 2.55 1.37 2.55 1.37l-.82 1.02 -.01-.01Z"/></g></svg>