<svg viewBox="0 0 301 151" xmlns="http://www.w3.org/2000/svg" xmlns:xlink="http://www.w3.org/1999/xlink"><defs><mask id="a"><path fill="#FFF" d="M.5.5h150v75H.5Z"/></mask><mask id="b"><path fill="#FFF" d="M.5.5V38h175v37.5h-25L.5.5Zm150 0h-75V88H.5V75.5l150-75Z"/></mask><path id="c" d="M.5.5l150 75m0-75l-150 75"/></defs><path fill="#00008B" d="M.5.5h300v150H.5Z"/><g stroke-width="17.578" stroke="#FFF"><use mask="url(#a)" xlink:href="#c"/><use mask="url(#b)" stroke="#F00" stroke-width="9.375" xlink:href="#c"/><path stroke-width="23.438" d="M75.5.5V88M.5 38h175"/><path stroke="#F00" stroke-width="14.063" d="M75.5.5v80.273M.5 37.99h155.27"/></g><path fill="#00008B" d="M.5 75.5h150V.5h50v100H.5Z"/><path fill="#FFF" d="M75.5 90.5l4.33 13.491 13.25-5.02 -7.85 11.8 12.18 7.23 -14.12 1.22 1.94 14.03 -9.762-10.28 -9.762 10.27 1.94-14.04 -14.12-1.23 12.18-7.24 -7.85-11.81 13.25 5.01Zm150 24.28l2.06 6.42 6.31-2.39 -3.74 5.62 5.8 3.44 -6.73.58 .92 6.68 -4.65-4.9 -4.65 4.89 .92-6.69 -6.73-.59 5.8-3.45 -3.74-5.63 6.31 2.39ZM188 55.406l2.06 6.42 6.31-2.39 -3.74 5.62 5.8 3.44 -6.73.58 .92 6.68 -4.65-4.9 -4.65 4.89 .92-6.69 -6.73-.59 5.8-3.45 -3.74-5.63 6.31 2.39Zm37.5-40.63l2.06 6.42 6.31-2.39 -3.74 5.62 5.8 3.44 -6.73.58 .92 6.68 -4.65-4.9 -4.65 4.89 .92-6.69 -6.73-.59 5.8-3.45 -3.74-5.62 6.31 2.39Zm33.33 30.62l2.06 6.42 6.31-2.39 -3.74 5.62 5.8 3.44 -6.73.58 .92 6.68 -4.65-4.9 -4.65 4.89 .92-6.69 -6.73-.59 5.8-3.45 -3.74-5.63 6.31 2.39Zm-18.34 30.08l1.63 4.003 4.31.31 -3.31 2.79 1.03 4.19 -3.68-2.28 -3.68 2.27 1.03-4.2 -3.31-2.79 4.31-.32Z"/></svg>