<svg viewBox="0 0 301 151" xmlns="http://www.w3.org/2000/svg"><g transform="translate(1 1)"><path fill="#FFF200" d="M0 0h300v150H0Z"/><g stroke-width=".26" fill="#005A9B" stroke="#000"><path d="M0-.001h149.89v74.995H-.01Z"/><path fill="#FFF" d="M0 24.99h31.63L-.01 9.11V-.01h18.1l44.25 22.061V-.02h24.921V22.04L131.511-.02h18.36V9.09l-31.91 15.87h31.9v25.009h-31.91l31.9 15.87v9.11h-18.37L87.221 52.89v22.064H62.3V52.89L18.04 74.954H-.07v-9.12l31.63-15.88H-.08Z"/><path fill="#ED1C2E" stroke="#000" stroke-linejoin="bevel" stroke-width=".26" d="M138.015-.001l-50 25.007h11.96L149.885-.01Zm11.88 74.995l-49.97-25h12.021l37.94 19.03ZM50.09 25L-.01-.01v5.97l38.02 19.03Zm-.11 24.99L-.01 74.984H11.95l49.997-25Z"/><path fill="#ED1C2E" d="M0 30.179h67.66V-.01h14.643v30.17h67.59v14.64h-67.59v30.17H67.66v-30.18H-.01Z"/><path d="M74.975 24.85a12.58 12.58 0 1 0 0 25.17 12.58 12.58 0 1 0 0-25.18Z"/><path fill="#FFF200" stroke-width=".13" d="M31.23 32.506l-1.22 3.79h-4.02l3.26 2.36 -1.26 3.79 3.22-2.36 3.22 2.35 -1.24-3.83 3.24-2.32h-4ZM74.98 7.25l1.22 3.79h4.01l-3.26 2.36 1.25 3.79 -3.23-2.36 -3.23 2.35 1.23-3.83 -3.25-2.32h3.99Zm0 50.068l1.22 3.79h4.01l-3.26 2.36 1.25 3.79 -3.23-2.36 -3.23 2.35 1.23-3.83 -3.25-2.32h3.99Zm-.02-31.2l-2.52 7.82h-8.29l6.72 4.87 -2.59 7.82 6.66-4.86 6.66 4.86 -2.55-7.89 6.69-4.78h-8.26Zm43.75 6.38l1.22 3.79h4.01l-3.26 2.36 1.25 3.79 -3.23-2.36 -3.23 2.35 1.23-3.83 -3.25-2.32h3.99Z"/></g></g></svg>