<svg viewBox="0 0 301 201" xmlns="http://www.w3.org/2000/svg"><path fill="#ED1C24" d="M.5.5h300v200H.5Z"/><path fill="#FFF" d="M.5 50.5h300v100H.5Z"/><path fill="#00A651" d="M149.13 50.5l-1.64 2.73c-.91 1.5-3.09 3.75-4.85 5.009 -1.77 1.25-3.89 3.11-4.74 4.13l-1.55 1.86 1.64-.43c.89-.24 2.06-.62 2.6-.85 .53-.23.97-.11.97.28v.03 -.001c-.01.02-.01.05-.02.07 -.24.96-3.06 3.17-5.29 4.09 -2.14.88-5.31 3.2-5.73 4.12 -.01.02-.02.05-.03.07 -.01.01-.01.02-.02.03 -.01.01 0 .03 0 .03v.05c0 .01 0 .03.01.03 0 0 0 .02.01.02v0s0 0 .01.01l.01.01 .01.01 .03.02c.25.17.93.2 1.73.02 1.39-.31 1.97-.12 2.43.83 .7 1.45.3 2.1-1.33 2.1 -1.97 0-4.76 1.97-5.14 3.63 -.26 1.11-1.33 2.02-3.63 3.07 -3.753 1.71-8.6 4.98-8.94 5.99v0c-.01.02-.02.06-.02.09 0 1.42 3.16 1.32 7.74-.25 1.02-.36 1.47 0 2.25 1.77 .95 2.18.94 2.23-1.29 5.11 -1.56 2-2.93 3.04-4.42 3.35 -2.97.62-3.89 1.22-7.73 5.06 -1.84 1.83-3.69 3.35-4.11 3.36 -.17 0-.28.03-.33.07l-.02.01v0c-.01 0-.01 0-.02.01l-.02.01v.01l-.02.01v.07 0c0 .02.01.04.02.06l.01.02c.3.56 2.33 1.69 3.48 1.69 .83 0 2.872-.96 4.51-2.12 2.89-2.05 3.03-2.08 4.2-.92 .66.66 1.21 1.95 1.21 2.84 0 1.37-.74 1.99-4.54 3.92 -2.81 1.43-6.11 3.88-8.69 6.46 -3.47 3.46-4.45 4.1-5.93 3.86 -.93-.16-1.46-.22-1.62-.12 -.01 0-.02 0-.03.01l-.02.01 -.02.01h-.001c-.01.01-.02.03-.02.05 0 .17.31.53.87 1.15 .53.58 1.76 1.06 2.73 1.06 2.65 0 11.04-3.13 13.628-5.08 2.4-1.81 4.73-2.16 6.66-1.02 2.99 1.76-2.02 5.32-11.44 8.13 -3.47 1.03-6.47 2.04-6.86 2.29 -.01 0-.02 0-.03.01l-.02.01 -.02.01v.01c-.14.22.06.81.47 1.35 .98 1.3 5.93 1.37 10.15.11 1.69-.51 5.9-2.21 9.357-3.78 6.26-2.85 6.29-2.84 8.48-1.7 5.09 2.66 4.62 7.33-1.5 14.99 -2.67 3.34-5.04 4.82-9.34 5.88 -1.6.38-4.87 3.47-4.87 4.57 0 .1.02.19.04.27h1.09v0c.27-.22.52-.47.73-.76 1.35-1.81 4.09-3.01 6.85-3.02 3-.02 6.68-1.67 9.45-4.25 2.42-2.27 4.87-2.94 6.71-1.85 1.02.6 1.95.66 3.18.19 2.19-.84 3.28-.43 3.28 1.21 0 .73.77 1.72 1.82 2.32 1.01.57 2.81 1.98 4 3.13 .9.87 1.56 1.27 1.91 1.27 .01 0 .03 0 .04 0 0-.01.02 0 .03 0l.02-.02 .02-.02c.01-.01.03-.02.04-.03l.01-.02 .01-.02 .01-.02 .01-.02c0-.01 0-.02.01-.03v0c0-.01 0-.02.01-.03l.01-.03c0-.01.01-.03.01-.04 0-.02-.01-.04 0-.06 .03-.39-.27-1.16-.96-2.25 -.41-.65-.62-1.28-.56-1.6 0-.02 0-.04.01-.06l.01-.03v-.02 -.001c0-.01 0-.01.01-.02 0-.02.01-.03.02-.04l.01-.02c0-.01.01-.01.02-.02 0-.01 0-.02.01-.02l.02-.02c.38-.15 2.41-.08 4.63.18 3.9.44 4.38.68 6.69 3.35 1.13 1.32 2.07 2.15 2.83 2.49h1.56c.33-.15.57-.37.625-.59 0-.01.01-.02.01-.03 0-.01-.01-.03 0-.04v-.03 -.03 -.02 -.02c-.14-.45-2.45-2.66-5.23-4.97 -6.32-5.27-7.29-7.2-7.31-14.5 -.02-4.37.19-5.49 1.21-6.61 1.59-1.76 2.46-1.72 6.37.32 2.95 1.53 3.86 1.66 10.57 1.52 7.2-.16 7.41-.12 11.03 2.01 2.02 1.19 4.5 2.78 5.52 3.55 2.23 1.68 4.51 1.8 5.05.26 .63-1.83-3.63-5.36-11.63-9.62 -7.96-4.24-8.79-5.43-5.13-7.35 2.08-1.1 2.23-1.08 5.53.76 2.64 1.47 3.86 1.79 5.55 1.44l2.17-.46 -4.78-3.92c-2.63-2.16-5.17-4.44-5.66-5.09 -1.4-1.88-4.1-3.13-6.75-3.13 -1.25 0-2.41-.24-2.73-.54 -.02-.01-.03-.03-.04-.04l-.02-.02c-.01-.01-.01-.03-.02-.03 -.75-1.34 1.5-1.97 7.77-2.22 8.45-.34 9.61-1.32 3.78-3.2 -2.33-.76-5.82-1.71-7.76-2.12 -2.37-.51-3.68-1.07-4-1.71v0c-.04-.08-.06-.16-.08-.24v0c-.01-.07-.01-.13 0-.19 .02-.22.15-.45.37-.69 .39-.44 2.29-.39 5.52.15 3.61.61 5.6.74 5.95.32 .37-.49-1.3-1.7-4.98-3.74 -3.36-1.86-7.6-4.87-9.53-6.77 -1.92-1.89-4.76-4.03-6.31-4.77 -2.05-.97-2.71-1.63-2.45-2.38 .46-1.33 3.67-1.34 5.75-.03 .84.53 3.06.96 4.92.95l3.38-.03 -2.25-.92c-2.24-.91-8.33-5.24-8.81-6.22v0c-.01-.03-.02-.05-.03-.07v-.03 -.02 -.02l.01-.02 .01-.02 .01-.02c.24-.19 1.65-.27 3.33-.17l3.38.19 -4.88-3.76c-3.58-2.76-5.78-3.95-8.3-4.48v0c-1.61-.34-3.21-.7-4.81-1.06 -2.03-.48-5.42-4.02-6.8-7.09l-1.21-2.7Zm-11.11 18.96c.07-.01.15 0 .23 0 .62 0 1.08.15 1.27.39 0 0 .02.02.02.02s0 .02.01.02v0c.02.03.03.07.04.11 0 .01.01.02.01.03v.09 0c-.01.03-.02.06-.03.1 -.14.43-.84 1.22-1.59 1.76 -.57.41-.91.64-1.1.61 -.02-.01-.04-.01-.05-.02l-.03-.02c-.02-.01-.03-.03-.04-.04 -.13-.16-.16-.58-.16-1.33 0-1.37.25-1.75 1.35-1.79Zm16.43 1.69h.03c.95 0 1.6.44 1.73 1.19 .16.92-.23 1.18-1.74 1.18 -.85 0-1.35-.09-1.59-.33 -.18-.19-.22-.46-.15-.86 .12-.74.75-1.19 1.68-1.2Zm-4.82.4c.83-.07 1.16.42 1.16 1.48 0 1.27-.49 1.66-2.78 2.25 -1.45.36-2.77.53-3.05.4v0c-.01-.01-.02-.01-.03-.02l-.02-.02c-.8-.88-.1-2 1.87-3.04 1.27-.67 2.18-1.04 2.8-1.08Zm11.07.01c1.22-.04 1.375.53.77 2.25 -.21.58-1.06 1.06-1.89 1.06 -1.22 0-1.48-.3-1.33-1.53 .14-1.1.67-1.59 1.88-1.75 .2-.03.38-.05.54-.06Zm-18.69 3.31c.04-.01.09 0 .13 0 1.48 0 .55 2.79-1.35 4.07 -1.7 1.13-3.5 1.62-4 1.18l-.02-.02v0c-.04-.04-.07-.08-.09-.12l-.02-.03 -.02-.04c-.01-.01-.02-.02-.02-.03 -.01-.01 0-.03 0-.04 -.01-.02-.02-.05-.02-.07v-.02c.04-1.53 3.6-4.77 5.35-4.92Zm13.91 6.46c.7-.09 1.15.68.9 2.1 -.14.79-.85 1.33-1.9 1.47 -.81.1-1.31.06-1.5-.16l-.02-.02c-.01-.02-.02-.03-.03-.04l-.02-.03c-.01-.01-.02-.02-.02-.02 -.01-.02-.01-.04-.02-.06 -.1-.38.29-1.09 1.15-2.23 .49-.67.99-1.01 1.4-1.06Zm-5.54.31c.03-.01.06 0 .09 0 1.41 0 1.64 1.24.36 2 -.6.34-1.17.6-1.36.63 -.01 0-.02.01-.03.01 -.01 0-.02-.02-.03-.02 -.11-.04-.89-.29-1.74-.58l-1.54-.52 1.73-.78c.89-.4 1.96-.73 2.47-.77Zm11.92 1.56h-.001c.72-.03 1.43.1 2.1.39 1.28.53 1.53 1 1.28 2.4 -.33 1.9-1.38 2.12-4.94.98 -1.75-.56-1.93-.83-1.37-1.98 .53-1.11 1.63-1.75 2.91-1.81Zm-26.41.46h.11c2.59 0 2.94.45 1.68 2.1l0-.001c-.54.67-1.14 1.3-1.8 1.87 -.87.72-1.14.64-1.69-.5 -.66-1.36-.87-2.25-.55-2.79 .29-.48 1.02-.7 2.21-.71Zm-6.82 1.14c1.1-.03 1.78.49 2.66 2l1.23 2.13 -1.86.71c-1.7.65-1.98.52-3.38-1.45 -.89-1.25-1.22-2.07-.98-2.59v0c.02-.06.05-.1.08-.15l.03-.04 .03-.04c.31-.32.95-.49 1.92-.58 .07-.01.15-.03.22-.03Zm40.8 6.38c1.22-.1 2.48.76 2.3 2.15 -.23 1.77-2.17 2.28-3.76 1 -.95-.77-.99-1.05-.25-2.16v0c.37-.59 1-.96 1.69-1.01Zm-23.17 3.31c.04-.01.09 0 .14 0v0c.15 0 .3.04.43.13v0c.01.01.03.02.04.03l.02.02 .02.02 .02.02c.18.24.25.65.17 1.22 -.25 1.82-1.46 2.36-1.97.87 -.47-1.33-.02-2.28 1.09-2.35Zm-7.74 1.4c.52-.08 1.37.27 2.23.98 .58.48.82.95.81 1.3v0c-.01.03-.01.06-.02.1 -.01.01-.01.04-.02.06 -.01.01-.02.03-.03.05v0c-.02.02-.03.04-.04.06 -.01 0-.01.02-.02.02l-.03.02v0c-.03.02-.05.05-.08.07 -.01 0-.02.02-.03.02 -.36.27-1.11.21-1.97-.46 -.72-.55-1.31-1.27-1.36-1.64v-.03 -.03c0-.36.18-.55.49-.59Zm12.3.26c.24-.03.48.21.9.67 .52.58 1.14 1.69 1.36 2.47 .54 1.87-.32 2.66-1.99 1.8 -1.8-.92-2.23-2.37-1.2-4 .39-.63.64-.94.89-.97Zm4.29 2.55c.45-.07 1.07.62 1.22 1.76 .08.67-.01 1.24-.22 1.41l-.02.01 -.03.01c-.01 0-.03.01-.04.01 -.01 0-.01.01-.02.01h-.06c-.88 0-1.38-.8-1.38-2.2 0-.68.22-1.01.5-1.05Zm-26.98 2.7c.9-.01 1.69.04 2.21.15 .86.17 1.43.42 1.71.71v0c.05.06.1.13.14.2h-.001c.01.03.02.07.03.11v0c.01.07.01.15 0 .23 -.11.52-.87 1.17-2.27 1.91 -1.17.61-3.14 1.32-4.39 1.56 -2.08.39-2.37.24-3.24-1.6 -.52-1.1-.94-2.14-.95-2.35v-.02c0-.01-.01-.03 0-.03 0-.01.01-.01.01-.02s0-.03.01-.03l.01-.02c.43-.45 4.03-.87 6.69-.88Zm41.839 6.08c2.42-.11 3.73 1.53 1.09 3.56 -1.7 1.3-4.18 1.36-5.73.11 -1.11-.9-1.06-1.03.96-2.39 1.27-.86 2.57-1.26 3.65-1.3Zm8.82 1.91c.04-.01.09 0 .13 0 .35-.01 1.18.42 1.84.95 1.16.94 1.16 1-.3 2.71 -.76.88-1.53 1.58-1.8 1.63h-.05c-.2-.06-1.27-.23-2.36-.38 -1.23-.17-2-.66-2-1.27 0-.03 0-.07.01-.1 .19-1.02 3.21-3.42 4.5-3.58Zm-44.38 2.7c.11-.01.24 0 .38 0 1.66 0 2.58 1.37 2.58 3.86 0 3.34-2.05 3.08-2.99-.39 -.83-3.03-.91-3.43.01-3.48Zm12.68.94c1-.04 3.43.52 3.75.91v0s0 0 .01.01l.01.01v.01s.01.01.01.01v.03c-.04.25-.69 1.31-1.47 2.36l-1.44 1.93 -.76-2.5c-.38-1.25-.61-2.37-.56-2.66v-.02c0-.01.01-.01.01-.02v-.02c0-.01.01-.02.01-.02l.01-.02 .01-.02c0-.01.01 0 .01 0l.01-.02 .02-.02c.07-.03.18-.05.32-.06Zm-6.18 1.1c.18-.02.46.02.86.09 .79.12 1.51.78 1.64 1.48 .14.85.06 1.44-.15 1.75v0c-.05.06-.11.12-.17.16v0c-.05.02-.1.05-.15.06v0c-.03 0-.05 0-.08.01v0c-.04 0-.08 0-.12 0 -.42-.06-.95-.57-1.41-1.55 -.54-1.14-.78-1.68-.69-1.9v-.001c0-.02.02-.04.03-.06v0c.05-.05.11-.08.18-.08Z"/></svg>