<svg viewBox="0 0 301 151" xmlns="http://www.w3.org/2000/svg"><path fill="#CC0001" d="M.5.5h300v150H.5Z"/><path fill="#FFF" d="M.5 139.786h300v10.71H.5Zm0-21.43h300v10.71H.5Zm0-21.43h300v10.71H.5Zm0-21.43h300V86.2H.5Zm0-21.43h300v10.71H.5Zm0-21.43h300v10.71H.5Zm0-21.43h300v10.71H.5Z"/><path fill="#010066" d="M.5.5h150v85.71H.5Z"/><g fill="#FC0"><path d="M62.214 11.21c-17.81 0-32.25 14.401-32.25 32.143 0 17.74 14.44 32.143 32.25 32.143h0c6.19 0 12.25-1.77 17.45-5.12v0c-3.01 1.03-6.17 1.56-9.36 1.56 -15.79 0-28.6-12.768-28.6-28.51 0-15.74 12.81-28.51 28.59-28.51 3.48 0 6.83.62 9.92 1.76v0c-5.33-3.59-11.61-5.51-18.03-5.5Z"/><path d="M115.697 60.09L102.107 53l4.01 14.5 -9.09-12.134 -2.84 14.76 -2.79-14.78 -9.13 12.107 4.06-14.494 -13.607 7.04 10.1-11.34 -15.4.59 14.15-5.939 -14.14-5.99 15.393.63 -10.08-11.37 13.58 7.08 -4.02-14.506 9.08 12.134 2.83-14.77 2.78 14.77 9.12-12.107 -4.07 14.494 13.607-7.05 -10.11 11.33 15.39-.6 -14.16 5.939 14.13 5.98 -15.393-.64Z"/></g></svg>