<svg viewBox="0 0 301 201" xmlns="http://www.w3.org/2000/svg"><path fill="#FFF" d="M.5.5h300v200H.5Z"/><path d="M101.92 38.1L74.18 79.7 46.44 61.209 74.17 19.59Z"/><path fill="#FFF" d="M86.904 23.082l-32.36 48.53 -3.47-2.32 32.35-48.538Zm10.47 6.916l-32.36 48.53 -3.47-2.32 32.35-48.54Z"/><path d="M254.465 139.808l-27.74 41.6 -27.74-18.49 27.73-41.61Z"/><g fill="#FFF"><path d="M239.526 124.75l-32.36 48.53 -3.47-2.32 32.357-48.54Zm10.31 6.96l-32.357 48.53 -3.47-2.32 32.357-48.54Z"/><path d="M245.221 161.183l-2.32 3.46 -34.672-23.113 2.31-3.47Z"/></g><path fill="#C60C30" d="M150.5 50.5a50 50 0 1 0 0 100 50 50 0 1 0 0-100Z"/><path fill="#003478" d="M108.89 72.76c-7.66 11.488-4.56 27.01 6.93 34.669 11.488 7.65 27.01 4.55 34.669-6.94 7.65-11.488 23.18-14.6 34.66-6.94 11.488 7.65 14.59 23.18 6.93 34.66 -15.32 22.97-46.37 29.18-69.34 13.86 -22.98-15.32-29.19-46.37-13.869-69.34"/><path d="M74.18 121.31l27.73 41.6 -27.74 18.49 -27.74-41.61Z"/><path fill="#FFF" d="M54.54 129.401l32.357 48.53 -3.47 2.31L51.07 131.7Zm10.482-6.96l32.35 48.53 -3.47 2.31 -32.36-48.54Z"/><path d="M226.73 19.62l27.73 41.6 -27.74 18.49 -27.74-41.61Z"/><g fill="#FFF"><path d="M207.162 27.67l32.35 48.53 -3.47 2.31 -32.36-48.54Zm10.32-6.9l32.357 48.53 -3.47 2.31 -32.357-48.539Z"/><path d="M242.948 36.4l2.31 3.46 -34.67 23.11 -2.32-3.47Z"/></g><path d="M227.94 43.842l4.62 6.933 -6.94 4.62 -4.63-6.933Z"/><path fill="#FFF" d="M79.992 145.026l2.31 3.46 -13.87 9.24 -2.31-3.47Z"/></svg>