<svg viewBox="0 0 301 201" xmlns="http://www.w3.org/2000/svg"><path fill="#198A00" d="M.5.5h300v200H.5Z"/><path fill="#EF7D00" d="M264.78 71.92h35.71v128.57H264.77Z"/><path d="M229.072 71.92h35.714v128.57h-35.714Z"/><path fill="#DE2010" d="M193.35 71.92h35.714v128.57H193.35Z"/><g stroke-linecap="round" stroke-width=".321" stroke="#000" fill="#EF7D00" stroke-linejoin="round"><path d="M274.275 24.54s12.28-4.82 13.47-5.808c.54.59-4.93 6.65-15.54 8.886 9.63-2.09 17.86-8.64 19.53-8.439 .48.09.37 6.404-21.71 11.864 15.262-3.68 24.13-10.425 24.03-9.68 .1.14-1.52 5.31-14.89 9.332 3.73-.8 13.85-6.46 13.74-5.37 .32.44-9.8 12.36-28.089 8.489 14.613 3.47 24.08-4.92 25.43-4.77 .27.05-2.71 7.34-21.11 7.79 8.82-.85 6.27-.05 6.27-.05s-5.2 3.72-11.48 1.19c4.92 1.24 5.46 1.29 5.57 1.68 -.33.49-4.39 1.24-8.29-.7 3.13 1.19 5.95 1.39 6 1.83 -.06.14-2.06 1.19-3.85.44s-18.24-10.03-18.24-10.03l28.03-7.05 1.03.34Zm-32.96 25.11c-2.47 0-2.54 2.01-2.54 2.01s-.21.14-.07 1.12c.4-.67.61-.88.61-.88 .27.04 1.4.35 3.18-.94 -1.63 1.55-.66 2.13-.66 2.13s-.39 1.22.85 1.47c-.39-.5-.16-.94-.16-.94s1.74-.17 1.62-2.12c.06 1.76 1.1 2.19 1.1 2.19s0 .97 1.13 1.05c-.61-.5-.48-1.27-.48-1.27s1.47-.98.22-2.64c.74-.4 1.35-1.5 1.35-1.5s-1.02-.4-1.5-.73c-.23-.44-.03-2.83-.03-2.83l-.62-3.1 -1.75 4.81c.07-.69.11 2.07-2.35 2.07Z"/><path d="M253.49 42.71c.05.05 1.84 1.88 3.57 1.78 .64-.5-1.36-1.59-1.36-1.84 .7.59 3.68 2.92 5.57 2.08 .75-1-1.36-.85-3.69-3.53 1.62.99 5.68 3.17 7.57 2.33 .81-.8-4.23-3.28-5.9-5.22l-4.33-2.04 -5.9 4.41 4.43 1.98Zm-6.66-15.1s2-1.1 10.01-.55c.86.09 5.46-1.44 6.92-1.89 2.32-.4 9.74-1.89 11.74-3.276 1.4-.15-.38 2.38-2.17 2.97 -1.9.79-8.77 2.97-11.21 2.68 2.92.05 1.29 2.23-3.58 1.19 2.32 1.19 1.46 1.39 1.46 1.39s-4.12.19-5.2-.65c2.76.94 1.62 1.29 1.62 1.29s-2.82.24-4.12-.3c2 .54.97.89.97.89s-1.63.24-2.98-.2c-1.36-.45-3.41-3.58-3.52-3.58Zm3.21 16.12l.29 4.85s-.16.24-.3.39c-.14.14-3.76-.52-3.26 2.01 0 1.03.02 1.3.79 1.88 -.21-.69-.14-1.17-.14-1.17s1.01.56 2.01-.98c-.68 1.51-.21 2.05-.05 2.09 .15.27-.28 1.49 1.08 1.47 -.52-.46-.28-1.12-.28-1.12s1.42-.21.92-2.58c.52-.48.72-.03.72-.03s.15 1.41 1.4 1.12c.56.29-.09 1.05-.09 1.05s.9.02 1.17-.69c.27-.71.58-1.98-.91-2.49 -.19-.5.58-.54.58-.54s.95.29 1.22.72 .18-1.15-1-1.31c-1.45-.05-1.54-.32-1.54-.38 0-.07-.25-3.53-.37-4.53l-2.33.14Z"/><path d="M255.08 47.882c.01-.23-2.47-3.3-1.84-3.7 .63.11 1.66 1.51 2.5 1.06 -.26-.55-1.01-.24-1.86-1.64 -.85-1.58-.98-3.942-3.96-6.53 1.92 2.73 6.29 4.33 6.48 3.53 .18-.8-3.85-3.81-3.65-4.54 .8 1.49 4.85 4.811 7.83 4.53 .2-.64-2.45-1.93-3.13-3.14 -1.91-1.18-7.01-5.21-7.12-6.15 -1.86-2.49-3.02-3.24-3.56-3.53 -.21-.23-.27-.45-.31-.58 -1.16-2.5.37-3.31 1.26-3.43 .73-.08.94.02 1.47-.21 -.63-.23-1.26-.44-1.88-.66 .81.55 2.9.06 2.45 1.64 .91-.32 2.86-2.45-2.21-2.93 -1.65-1.74-8.43-2.74-10.13 4.84 .13.1.2.19.63.48 -2.15-.96-7.92-1.686-10-2 -5.63-1.49-11.47-5.08-12.03-4.64 -.76.3 3.39 3.846 3.18 3.92 -3.6-1.93-6.89-3.29-9.95-4.53 -2.16-.74-4.31-2.46-4.55-2.128 -.8 1.5 3.44 5.285 4.23 5.73 .78.42 6.99 3.06 6.9 3.09 -9.35-3.89-10.91-4.6-11.38-5.05 -.83-.17-2.83-2.66-3.39-2.5 -.31.27.3 4.2 4.76 5.96 .72.48 9.55 3.39 9.47 3.61 -.03.05-10.12-3.82-10.506-3.96 -1.95-.7-4.34-3.16-4.78-2.88 -.43.25 1.1 2.9 3.06 3.73 1.03.41 4.98 2.21 8.54 3.35 .22.07-6.41-2.31-9.59-3.53 -1.45-.74-2.13-1.66-2.35-1.46 -.33.19.52 4.12 10.76 6.33 .27.1 3.6-.73 3.44-.62 -.05.02-3.32.68-3.64.65 -.29-.04-2.08.19-2.11.28 -.11.26.64 1.67 5.93 1.37 .67-.04 4.34-1.23 4.03-.97 -.16.12-5 1.57-5.37 1.59 -.32.04-2.03.2-2.09.37 -.08.22 1.25 1.22 4.09 1.38 2.51.12 7.29-1.41 7.19-1.31 -.1.09-4.61 1.51-4.73 1.6 -.17.08-1.82.16-1.88.28 -.14.28 2.38 2.44 9.82.14 -.75.92-4.36 1.56-4.36 1.72 -.02.12.79.84 2.05 1.09 .63.12 1.49.1 2.28-.02 1.41-.26 2.91-.78 4.8-2.39 .22.5-4.74 2.81-4.506 3.03 1.07.91 4.65-.12 4.88-.24 .23-.12 6.88-3.561 6.86-3.96 .1.51-8.58 4.83-8.49 5.01 .55.81 3.52-.05 3.66-.12 .14-.08 3.78-1.88 3.88-1.94 .1-.06-4.29 2.35-3.9 2.71 -.19 1.56 6.84-1.08 7.39-1.41 .27-.17-3.38 1.47-3.39 2.25 1.17 1.82 4.94 1.24 5.52.84 .29-.21-.35 1.35-.14 1.21 .07-.03.82-.85 1.1-1.43 -.1.51-.51 1.31-.75 2.23 -.25.92-.31 1.96-.65 3.06 -.08.48 2.32-.95 1.97-4.38 .2 1.78-.76 5.116-.51 5.28 .5.34 1.89-1.66 2.03-3.02 .41.68 1.28 2.11 2.02 2.44 -.09-1.04.01-.99-.33-2.01 .19-1.36.22-3.23.26-5.34 2.02 3.564 2.83 5.06 2.27 7.79 .6.23 1.56-1.91 1.48-3.01 .77 3.05 4.11 3.51 4.16 3.42Z"/><path d="M221.29 25.255s-1.39.95-3.1.9c.43 1.57 3.98.36 3.98.36s-1.72 1.74-2.95 2.026c.73.56 3.83.36 4.35.08 .52-.29 1.44-1.38 1.44-1.38s-3.2 3.37-3.66 3.349c-.07.39 3.34.25 4.05-.34 .7-.6 2.48-1.47 2.48-1.47s-4.67 2.98-4.88 2.98c1.74.42 5.24-.51 7.48-1.78 -3.32 2.026-3.62 2.39-5.31 3.06 1.5.31 2.27 1.23 7.36-.79 2.91-1.27 4.57-3.58 4.57-3.58 -1.81 2.22-4.67 4.1-7.83 5.96 -.19.33 3.375 1.71 7.91-2.62m8.71 2.59s.3 1.32 1.53 2.33c1.22 1.01 1.31 1.99 1.31 1.99m-3.47-12.95s.42 1.18 1.68 1.94c1.28.76 3.22 3.15 3.375 3.57 .14.51.89 4.19.82 4.58"/><path d="M237.526 27.872c.09.45-1.81 2.73.79 5.4 -2.37 2.64-2.37 2.98-2.37 2.98s1.31.67 3.68-1.19c3.89 4.39 2.59 6.39 2.59 6.39"/><path d="M241.931 38.376s-.36-.48.28-2.24c.57.63 1.21.77 1.49 1.03 .28.25 3.22.64 3.41 2.45m-1.74-17.778c0-.14-.6-1.3-2.81.15 1.18.06 2.35.68 2.8-.16Zm21.09 5.33c.1.05 6.6 1.34 8.76.69 -2.76 3.375-8.29 1.09-8.29 1.09 2.7.74 2.81.69 3.68 1.39 .27.64-4.98.34-6.72-.55 4.81 1.39 4.92 1.29 5.08 1.83 .21.74-7.91-.2-8.61-1.2 2.16 1.53 3.35 1.83 4.54 2.532 -1.47.59-4.17 1.19-9.15-2.035 6.54 5.46 12.44 5.11 13.36 6.1 -2.28 3.07-11.1-1.84-15.16-4.32 -4.06-2.49 8.87 6 10.06 5.85 -.6.84-4.88.09-5.15-.3m9.2-5.42c-.76.09-3.04.09-3.36.05m-45.41-8.59s4.93 2.39 7.02 2.22c-.56.47-1.39.67-1.39.67 .52.19 1.96.9 4.14.45 -.53.47-1.2 1.01-1.2 1.01s1.87.64 3.98-.37c-.65.73-1.02 1.26-1.02 1.26l1.47.08"/></g></svg>