<svg viewBox="0 0 301 151" xmlns="http://www.w3.org/2000/svg"><path fill="#CE1126" d="M.5.5h300v150H.5Z"/><g stroke-width=".75" fill="#FCD116" stroke="#BD9C08"><path d="M175.195 71.14c4.37 1.17 11 .88 13.98 4.35 -4.38-1.18-9.78 5.9-13.99 4.35 3.71 2.6-54.03 0-49.39 0 -4.38-1.18-11.006-.89-13.982-4.36 4.37 1.17 9.77-5.91 13.982-4.36 -3.72-2.6-10.16-4.62-11.65-8.88 3.71 2.6 11.26-2.23 14.62.69 -2.6-3.72-8.04-7.79-7.92-12.323 2.6 3.71 11.35 1.72 13.51 5.65 -1.18-4.38-4.71-10.03-3.22-14.29 1.17 4.37 9.988 5.46 10.762 9.93 .39-4.52-1.2-11.052 1.86-14.53 -.4 4.51 7.56 8.54 6.71 13.01 1.91-4.11 2.97-10.75 6.71-13.02 -1.92 4.1 4.33 10.59 1.86 14.52 3.2-3.21 6.29-9.15 10.762-9.94 -3.21 3.2.21 11.372-3.22 14.28 4.1-1.92 8.95-6.439 13.51-5.66 -4.11 1.91-3.71 10.77-7.92 12.323 4.51-.4 10.58-2.96 14.62-.69 -4.52.39-7.02 8.87-11.65 8.87Z"/><path fill="#FCD116" stroke="#BD9C08" stroke-linejoin="round" stroke-width=".75" d="M129.67 75.501l-15.8-6.46 17.04-.67 -12.64-11.47 16.24 5.2 -7.95-15.1 13.48 10.44 -2.31-16.91 9.1 14.43 3.61-16.68 3.61 16.67 9.1-14.44 -2.31 16.905 13.48-10.45 -7.95 15.09 16.24-5.21 -12.64 11.46 17.04.66 -15.8 6.45L187 81.86h-73.226Z"/><path fill="#FCD116" stroke="#BD9C08" stroke-linecap="round" stroke-width=".9" d="M171.179 75.5c0 11.42-9.26 20.67-20.68 20.67s-20.68-9.26-20.68-20.68c0-11.43 9.25-20.68 20.67-20.68 11.42 0 20.67 9.25 20.67 20.67Z"/></g><path fill="#003F87" d="M.5 83h300v67.5H.5Z"/><path fill="#FFF" d="M.5 129.071c10 0 20 6.42 30 6.42s20-6.43 30-6.43 20 6.42 30 6.42 20-6.43 30-6.43 20 6.42 29.99 6.42c10 0 20-6.43 30-6.43s20 6.42 30 6.42 20-6.43 30-6.43 20 6.42 30 6.42 20-6.43 30-6.43V118.3c-10 0-20 6.42-30 6.42s-20-6.43-30-6.43 -20 6.42-30 6.42 -20-6.43-30-6.43 -20 6.42-30 6.42 -20-6.43-30-6.43 -20 6.42-30 6.42 -20-6.43-30-6.43 -20 6.42-30 6.42 -20-6.43-30-6.43v10.71Z"/><g stroke-width=".6" fill="#FCD116" stroke="#BD9C08"><path d="M157.3 25.431l11.08.07c.07-.47-.96-1.41-1.83-1.54 -2.81-.45-4.92.46-8.32.5l-.95.96Z"/><path d="M135.21 22.822c2.6 3.29 7.65 5.57 12.47 5.6 6.5.04 13.7-5.22 22.42-6.84l-28.46-.59c-3.69-2.53-6.48-2.21-8.39-.64l-5.45.16c-.77.41.63 2.17 1.77 2.23l5.6.04Z"/><path d="M148.08 20.934c-1.04-4.759-4.86-6.81-9.45-7.42 -5.31-.71-17.52-1.423-25.62-3.76 3.5 3.45 10.85 5.173 15.95 5.952 5.4.82 10.66 2.02 14.83 5.176l4.27.04Z"/><g stroke-linecap="round" stroke-width=".6" stroke="#BD9C08" fill="#FCD116"><path d="M144.63 24.11c1.69 2.17 4.32 2.05 7.15.15 2.81-1.9 5.88-7.23 7.36-7.311 10.34-.61 22.86-4.97 28.833-8.35 -7.57 1.07-15.08 2.28-22.71 2.317 -13.03.05-14.57 5.98-19.88 10.14"/><path fill="none" fill-rule="evenodd" stroke="#BD9C08" stroke-linecap="round" stroke-width=".6" d="M146.65 21.552c2.77-1.77 5.03-4.08 7.631-6.01 4.3-3.2 9.27-3.285 14.61-3.35 4.73-.06 13.02-2.035 17.52-3.09"/></g><g stroke-width=".6" fill-rule="evenodd" stroke="#BD9C08" fill="none"><path d="M143.767 20.718c-.82-4.256-4.81-5.54-9.84-6.3 -5.48-.84-11.06-1.3-16.52-2.81 -1.36-.38-2.62-1.04-3.93-1.56"/><path fill="none" fill-rule="evenodd" stroke="#BD9C08" stroke-linecap="round" stroke-width=".6" d="M145.511 26.991c5.13.37 8.95-1.17 13.33-3.36m-31.04-2.23h6.48"/></g></g><path fill="#BD9C08" d="M137.185 20.719v0c0 .44-.37.81-.81.81 -.45 0-.81-.37-.81-.81v0c0-.45.36-.81.81-.81 .44 0 .81.36.81.81Z"/><path fill="#FFF" d="M.5 86.21c10 0 20 6.42 30 6.42s20-6.43 30-6.43 20 6.42 30 6.42 20-6.43 30-6.43 20 6.42 29.99 6.42c10 0 20-6.43 30-6.43s20 6.42 30 6.42 20-6.43 30-6.43 20 6.42 30 6.42 20-6.43 30-6.43V75.44c-10 0-20 6.42-30 6.42s-20-6.43-30-6.43 -20 6.42-30 6.42 -20-6.43-30-6.43 -20 6.42-30 6.42 -20-6.43-30-6.43 -20 6.42-30 6.42 -20-6.43-30-6.43 -20 6.42-30 6.42 -20-6.43-30-6.43V86.1Zm0 21.42c10 0 20 6.42 30 6.42s20-6.43 30-6.43 20 6.42 30 6.42 20-6.43 30-6.43 20 6.42 29.99 6.42c10 0 20-6.43 30-6.43s20 6.42 30 6.42 20-6.43 30-6.43 20 6.42 30 6.42 20-6.43 30-6.43V96.86c-10 0-20 6.42-30 6.42s-20-6.43-30-6.43 -20 6.42-30 6.42 -20-6.43-30-6.43 -20 6.42-30 6.42 -20-6.43-30-6.43 -20 6.42-30 6.42 -20-6.43-30-6.43 -20 6.42-30 6.42 -20-6.43-30-6.43v10.71Z"/></svg>