<svg viewBox="0 0 301 201" xmlns="http://www.w3.org/2000/svg" xmlns:xlink="http://www.w3.org/1999/xlink"><defs><mask id="a"><use fill="#FFF" xlink:href="#c"/></mask><mask id="b"><use fill="#FFF" xlink:href="#c"/></mask><path id="c" d="M40.919 100.5C24.46 92.57.94 76.85.94 45.749 .94 14.64 2.42.49 2.42.49h76.971s1.48 14.14 1.48 45.25c0 31.1-23.53 46.829-39.973 54.751Z"/></defs><path fill="#EE1C25" d="M.5.5h300v200H.5Z"/><path fill="#0B4EA2" d="M.5.5h300v133.333H.5Z"/><g fill="#FFF"><path d="M.5.5h300v66.667H.5Z"/><path d="M105.91 155c-17.93-8.64-43.57-25.774-43.57-59.678C62.34 61.41 63.96 46 63.96 46h83.89s1.62 15.41 1.62 49.322c0 33.9-25.65 51.04-43.57 59.678Z"/></g><path fill="#EE1C25" d="M105.91 150.5c-16.45-7.93-39.973-23.646-39.973-54.76 0-31.104 1.48-45.25 1.48-45.25h76.97s1.48 14.146 1.48 45.25c0 31.1-23.53 46.82-39.98 54.75Z"/><path mask="url(#a)" fill="#FFF" d="M44.43 37.59c4.45.07 13.14.24 20.87-2.35 0 0-.21 2.76-.21 5.994 0 3.22.2 5.994.2 5.994 -7.1-2.375-15.86-2.43-20.88-2.37v17.18h-7.04V44.85c-5.02-.07-13.79-.02-20.88 2.36 0 0 .2-2.77.2-5.994 0-3.23-.21-5.994-.21-5.994 7.73 2.58 16.425 2.41 20.87 2.34V26.78c-4.06-.04-9.91.15-16.53 2.37 0 0 .2-2.77.2-5.994 0-3.23-.21-6-.21-6 6.6 2.21 12.44 2.4 16.5 2.37 -.21-6.84-2.2-15.45-2.2-15.45s4.09.32 5.73.32c1.63 0 5.73-.32 5.73-.32s-1.99 8.61-2.2 15.44c4.05.03 9.9-.17 16.503-2.38 0 0-.21 2.76-.21 5.99 0 3.22.2 5.994.2 5.994 -6.62-2.22-12.47-2.41-16.521-2.38v10.78Z" transform="translate(65 50)"/><path mask="url(#b)" fill="#0B4EA2" d="M40.194 110.7L6.116 80.32s4.35-14.1 12.86-14.1c6.75 0 9.22 5.44 9.22 5.44s4.43-11.49 12.71-11.49c8.28 0 12.72 11.48 12.72 11.48s2.46-5.45 9.22-5.45c8.5 0 12.86 14.09 12.86 14.09l-35.53 30.37Z" transform="translate(65 50)"/></svg>