<svg viewBox="0 0 300 201" xmlns="http://www.w3.org/2000/svg"><path fill="#A90000" d="M103.49 184v0c1.65 0 3 1.34 3 3v3 0c0 1.65-1.35 3-3 3h-3v-9h3Zm0 12c3.31 0 6-2.69 6-6.01v-3 0c0-3.32-2.69-6-6-6h-6v15h6Zm-12-15h3v15h-3v-15Zm-6 0h3v15h-3l-6-9.42v9.41h-3v-15h3l6 9.41v-9.42Zm-45 0h9v3h-6v3h6v3h-6v2.99h6v3h-9v-15Zm-12-.01h3v12h6v3h-9v-15Zm31.5 12h3c2.48 0 4.5-2.02 4.5-4.5 0-2.49-2.06-4.5-4.5-4.5h-3v3h3v0c.82 0 1.5.67 1.5 1.5 0 .82-.68 1.5-1.5 1.5h-3v3Zm3-15c5.79 0 10.5 4.7 10.5 10.5 0 5.79-4.71 10.5-10.5 10.5 -5.8 0-10.5-4.71-10.5-10.51s4.7-10.5 10.5-10.5Zm0 3h0c4.14-.07 7.55 3.23 7.62 7.37 .06 4.14-3.24 7.55-7.38 7.62 -.09 0-.17 0-.25-.01h0c-4.15-.07-7.45-3.49-7.38-7.63 .06-4.05 3.33-7.32 7.37-7.38Z"/><path fill="#28AE66" d="M0 .5h300v200H0Z"/><path fill="#CA3745" d="M36 .5h54v200H36Z"/><path fill="#FFF" d="M148.94 22.68c8.86 3.8 15.07 12.61 15.07 22.87 0 13.741-11.143 24.88-24.89 24.88v0c-5.92 0-11.63-2.1-16.125-5.94v-.001c2.76 1.18 5.71 1.85 8.71 1.98 13.72.59 25.34-10.05 25.94-23.78 .34-7.97-3.1-15.23-8.732-20.04Zm-19.18 2.17l-2.82-2.05 1.07-3.314 -2.82 2.04 -2.82-2.05 1.07 3.314 -2.82 2.04h3.48l1.07 3.314 1.07-3.314Zm0 12.8l-2.82-2.05 1.07-3.32 -2.82 2.04 -2.82-2.05 1.07 3.31 -2.82 2.04h3.48l1.07 3.31 1.07-3.32Zm0 12.8l-2.82-2.05 1.07-3.32 -2.82 2.04 -2.82-2.05 1.07 3.31 -2.82 2.04h3.48l1.07 3.31 1.07-3.32Zm-12.65-6.56l-2.82-2.05 1.07-3.32 -2.82 2.04 -2.82-2.05 1.07 3.31 -2.82 2.04h3.48l1.07 3.31 1.07-3.32Zm16.167-12.49l2.81-2.05 -1.08-3.32 2.82 2.04 2.81-2.05 -1.08 3.31 2.81 2.04h-3.49l-1.08 3.31 -1.08-3.32Z"/><path fill="#383739" d="M56.327 33.28l-6.22-3.5h-3.27l-4.09-2.47v-3.38l-4.33-2.66v-6.38l4.32-2.654V8.85l4.08-2.47h3.26l6.21-3.5h13.34l6.21 3.49h3.26l4.08 2.46v3.37l4.32 2.654v6.37l-4.33 2.65v3.37l-4.09 2.46H75.8l-6.22 3.49Z"/><path fill="#28AE66" d="M69.63 33.137l6.21-3.5h3.26l3.98-2.4v-3.38L87.4 21.2v-6.22l-4.33-2.66V8.94l-3.99-2.4h-3.27L69.59 3.04H56.32L50.1 6.54h-3.27l-3.99 2.4v3.37l-4.33 2.65v6.21l4.32 2.654v3.37l3.98 2.4h3.26l6.21 3.49Z"/><path fill="#383739" d="M56.72 31.845l-6.22-3.497h-3.25l-3.04-1.83v-3.37l-4.33-2.654v-4.792l4.32-2.654v-3.37l3.03-1.83h3.24l6.21-3.5h12.55l6.21 3.49h3.24l3.03 1.82v3.36l4.32 2.654v4.79l-4.33 2.654v3.36l-3.04 1.82h-3.25l-6.22 3.497Z"/><path fill="#FAAE29" d="M78.696 28.206l2.93-1.77v-3.37l4.32-2.66v-2.25h-22.89v13.52h6.16l6.21-3.5ZM44.37 9.767v3.36l-4.33 2.65v2.24h22.884V4.491h-6.17l-6.22 3.49h-3.25Z"/><path fill="#FFF" d="M44.37 26.44l2.93 1.76h3.24l6.21 3.49h6.16V18.16H40.02v2.24l4.32 2.65ZM81.62 13.13V9.76l-2.94-1.77h-3.25l-6.22-3.5h-6.17v13.52h22.88v-2.25Z"/><path fill="#383739" d="M73.372 13.192l-.83-.87 2.5-2.37V8.34l1.46.9 1.06-1 1.05.65 -1.07.99 1.36.84h-2.99Z"/><path fill="#CA3745" d="M77.598 8.446l-.96.89 .8.49 .95-.9 -.81-.5Zm-2.41.16v1.4l-2.45 2.3 .62.66 2.51-2.38h2.54l-3.25-2.01Z"/><path fill="#383739" d="M68.331 12.756l-.83-.88 2.5-2.37V7.902l1.46.9 1.06-1 1.05.65 -1.07.99 1.37.84h-2.99Z"/><path fill="#CA3745" d="M72.556 8.01l-.96.89 .8.49 .95-.9 -.81-.5Zm-2.41.16v1.4l-2.45 2.3 .62.66 2.51-2.38h2.54l-3.25-2.01Z"/><path fill="#383739" d="M73.742 16.044l-.83-.87 2.5-2.37v-1.61l1.46.9 1.06-1 1.05.65 -1.07.99 1.37.84h-2.99Z"/><path fill="#CA3745" d="M77.96 11.29l-.96.89 .8.49 .95-.9 -.81-.5Zm-2.41.16v1.4l-2.45 2.3 .62.66 2.51-2.38h2.54l-3.25-2.01Z"/><path fill="#383739" d="M73.372 23.01l-.83.87 2.5 2.36v1.6l1.46-.91 1.06.99 1.05-.65 -1.07-1 1.36-.85h-2.99Z"/><path fill="#CA3745" d="M77.598 27.76l-.96-.9 .8-.5 .95.89 -.81.49Zm-2.41-.17v-1.41l-2.45-2.31 .62-.67 2.51 2.37h2.54l-3.25 2Z"/><path fill="#383739" d="M68.331 23.45l-.83.87 2.5 2.36v1.6l1.46-.91 1.06.99 1.05-.65 -1.07-1 1.37-.85h-2.99Z"/><path fill="#CA3745" d="M72.556 28.198l-.96-.9 .8-.5 .95.89 -.81.49Zm-2.41-.17v-1.41l-2.45-2.31 .62-.67 2.51 2.37h2.54l-3.25 2Z"/><path fill="#383739" d="M73.742 20.164l-.83.87 2.5 2.36v1.6l1.46-.91 1.06.99 1.05-.65 -1.07-1 1.37-.85h-2.99Z"/><path fill="#CA3745" d="M77.96 24.91l-.96-.9 .8-.5 .95.89 -.81.49Zm-2.41-.17v-1.41l-2.45-2.31 .62-.67 2.51 2.37h2.54l-3.25 2Z"/><path fill="#383739" d="M52.62 23.01l.82.87 -2.51 2.36v1.6l-1.47-.91 -1.07.99 -1.06-.65 1.06-1 -1.37-.85H50Z"/><path fill="#CA3745" d="M48.4 27.76l.95-.9 -.81-.5 -.96.89 .8.49Zm2.4-.17v-1.41l2.44-2.31 -.63-.67 -2.52 2.37h-2.55l3.24 2Z"/><path fill="#383739" d="M57.66 23.45l.82.87 -2.51 2.36v1.6l-1.47-.91 -1.07.99 -1.06-.65 1.06-1 -1.37-.85h2.99Z"/><path fill="#CA3745" d="M53.442 28.198l.95-.9 -.81-.5 -.96.89 .8.49Zm2.4-.17v-1.41l2.44-2.31 -.63-.67 -2.52 2.37h-2.55l3.24 2Z"/><path fill="#383739" d="M52.256 20.164l.82.87 -2.51 2.36v1.6l-1.47-.91 -1.07.99 -1.06-.65 1.06-1 -1.37-.85h2.98Z"/><path fill="#CA3745" d="M48.03 24.91l.95-.9 -.81-.5 -.96.89 .8.49Zm2.4-.17v-1.41l2.44-2.31 -.63-.67 -2.52 2.37h-2.55l3.24 2Z"/><path fill="#383739" d="M52.62 13.192l.82-.87 -2.51-2.37V8.34l-1.47.9 -1.07-1 -1.06.65 1.06.99 -1.37.84H50Z"/><path fill="#CA3745" d="M48.4 8.446l.95.89 -.81.49 -.96-.9 .8-.5Zm2.4.16v1.4l2.44 2.3 -.63.66 -2.52-2.38h-2.55l3.24-2.01Z"/><path fill="#383739" d="M57.667 12.756l.82-.88 -2.51-2.37V7.902l-1.47.9 -1.07-1 -1.06.65 1.06.99 -1.37.84h2.99Z"/><path fill="#CA3745" d="M53.44 8.01l.95.89 -.81.49 -.96-.9 .8-.5Zm2.4.16v1.4l2.44 2.3 -.63.66 -2.52-2.38h-2.55l3.24-2.01Z"/><path fill="#383739" d="M52.256 16.044l.82-.87 -2.51-2.37v-1.61l-1.47.9 -1.07-1 -1.06.65 1.06.99 -1.37.84h2.98Z"/><path fill="#CA3745" d="M48.03 11.29l.95.89 -.81.49 -.96-.9 .8-.5Zm2.4.16v1.4l2.44 2.3 -.63.66 -2.52-2.38h-2.55l3.24-2.01Z"/><path fill="#383739" d="M71.42 7.93l.47-1.16 -2.04-1.06h-2.76l-1.42-1.37h-5.4L58.85 5.7h-2.76l-2.04 1.05 .47 1.15 1.814-.952h.79l2.78 3.216 3.03-1.85 3.03 1.84 2.78-3.216h.79Zm0 20.34l.47 1.15 -2.04 1.05h-2.76l-1.42 1.36h-5.4l-1.42-1.37h-2.76l-2.04-1.06 .47-1.16 1.814.95h.79l2.78-3.22 3.03 1.84 3.03-1.85 2.78 3.21h.79ZM48.6 15.615h-1.4l-.32-.38v-.99l.78-.52 -1.29-.49 -.04.02 -1.67 1.15v.31L42 18.075l2.66 3.36v.31l1.69 1.17 1.28-.48 -.79-.52v-.99l.31-.38h1.39Z"/><path fill="#CA3745" d="M44.85 21.7v-.29l-2.63-3.314 2.62-3.32v-.29l1.56-1.09 .95.35 -.62.4v1.11l.38.46h1.31v4.68H47.1l-.39.46v1.11l.61.4 -.96.35Z"/><path fill="#383739" d="M77.393 15.619h1.39l.31-.38v-.99l-.79-.52 1.28-.49 .03.02 1.66 1.15v.31l2.66 3.36 -2.66 3.36v.31l-1.7 1.17 -1.29-.48 .78-.52v-.99l-.32-.38h-1.4Z"/><path fill="#CA3745" d="M81.148 21.703v-.29l2.62-3.32 -2.63-3.32v-.29l-1.57-1.09 -.96.35 .61.4v1.11l-.39.46H77.5v4.68h1.31l.38.46v1.11l-.62.4 .95.35Zm-18.23-17.2v3.72l-2.94 1.78 -2.75-3.18h-.9l-1.71.89 -.37-.89 1.88-.98h2.77l1.41-1.37h2.567v0Zm.14.4v3.31l2.93 1.78 2.74-3.18h.89l1.7.89 .36-.89 -1.89-.98h-2.78l-1.42-1.37h-2.57v.4h0Zm-.15 26.79v-3.73l-2.94-1.79 -2.75 3.17h-.9l-1.71-.9 -.37.89 1.88.97h2.77l1.41 1.36h2.567Zm.14-.41V27.96l2.93-1.79 2.74 3.17h.89l1.7-.9 .36.89 -1.89.97h-2.78l-1.42 1.36H63v-.41h0Z"/><path fill="#383739" d="M49.59 18.74h-2.54l-1.11 1.12 .75-.01 -1.31 1.05 -.73-.63v-.31l-1.56-1.9 1.55-1.9v-.31l.72-.63 1.3 1.05 -.76-.01 1.11 1.12h2.53l1.99-1.56V11.7h4.98l5.79-3.56V7.2l-.89-.59h-.29l-.97.64 -.15.48 -.76-1.03 1.46-1.24h.23l1.65-1.22h.62l1.65 1.21h.23l1.46 1.23 -.76 1.03 -.15-.49 -.97-.65h-.29l-.89.59v.93l5.79 3.55h4.98v4.11l1.99 1.55h2.53l1.11-1.13 -.76 0 1.3-1.06 .72.62v.3l1.55 1.89 -1.56 1.89v.3l-.73.62 -1.3-1.06 .75 0 -1.11-1.13H76.2l-2 1.55v4.11h-4.99l-5.79 3.55v.93l.88.59h.28l.96-.65 .15-.49 .75 1.03 -1.47 1.23h-.24l-1.66 1.21h-.63l-1.66-1.22h-.24l-1.47-1.24 .75-1.03 .15.48 .96.64h.28l.88-.59v-.94l-5.79-3.56h-4.99v-4.12Z"/><path fill="#FAAE29" d="M63.07 29.607l.63.48 -.64.48v-.97Zm-2.02.88h.02l1.65 1.21h.19v-.95l-.87-.67 .86-.67v-1.78l-6.2-3.81h-4.58v-3.83l-2.37-1.85h-3.57l-.9 1.01 -.9-1.02h-1.06l1.45 1.77v.28l.57.5 .92-.72 -.55 0v-.18l1.2-1.24h2.65l2.08 1.63v4.03h4.884l5.89 3.61v1.08l-.99.65h-.37l-1.05-.7 -.08-.26 -.51.69 1.32 1.11h.2v0ZM45.31 17.22l.7.79h-1.42l.7-.8Zm17.6-11.61l-.64.48 .63.484v-.97ZM79.95 18.16l.7.79 .7-.8h-1.42ZM64.89 5.7l-1.66-1.22h-.2v.94l.86.66 -.87.66v1.77l6.19 3.8h4.58v3.82l2.36 1.85h3.56l.89-1.02 .89 1.01h1.05l-1.46-1.78v-.29l-.58-.5 -.93.72 .54-.01v.18l-1.21 1.23h-2.66l-2.09-1.64V11.84h-4.89l-5.9-3.62V7.13l.98-.657h.36l1.04.69 .08.25 .5-.7 -1.33-1.12h-.23Z"/><path fill="#FFF" d="M62.92 30.575l-.64-.49 .63-.49v.968Zm-16.899-12.4l-.71.79 -.71-.8h1.41Zm18.91 12.31h-.03l-1.66 1.21h-.2v-.95l.86-.67 -.87-.67V27.62l6.19-3.81h4.58v-3.83l2.36-1.85h3.56l.89 1.01 .89-1.02h1.05l-1.46 1.77v.28l-.58.5 -.93-.72 .54 0v-.18l-1.21-1.24h-2.66l-2.09 1.63v4.038h-4.89l-5.9 3.61v1.08l.98.657h.36l1.04-.7 .08-.26 .5.69 -1.33 1.11h-.21v0Zm15.73-13.26l-.71.79h1.41l-.71-.8ZM61.061 5.7l1.65-1.22h.19v.94l-.87.66 .86.66v1.77l-6.2 3.8h-4.59v3.82l-2.37 1.85h-3.57l-.9-1.02 -.9 1.01h-1.06l1.45-1.78v-.29l.57-.5 .92.72 -.55-.01v.18l1.21 1.23h2.65l2.08-1.64V11.84h4.88l5.89-3.62V7.139l-.99-.657h-.37l-1.05.69 -.08.25 -.51-.7 1.32-1.12h.22Zm1.99.88l.63-.49 -.64-.49v.97Z"/><path fill="#28AE66" d="M62.92 8.727l-6.16 3.77h-4.48v3.74L50 18.01h12.91Zm.14 18.75l6.15-3.78h4.47v-3.75l2.27-1.78H63.04Z"/><path fill="#CA3745" d="M75.98 18.03l-2.28-1.78V12.5h-4.48l-6.16-3.78v9.305Zm-25.97.14l2.27 1.78v3.74h4.47l6.15 3.77v-9.31Z"/><path fill="#383739" d="M59.515 17.453l.82-.88 -2.51-2.37v-1.61l-1.47.9 -1.07-1 -1.06.65 1.06.99 -1.37.84h2.98Z"/><path fill="#CA3745" d="M55.29 12.7l.95.89 -.81.49 -.96-.9 .8-.5Zm2.4.16v1.4l2.44 2.3 -.63.66 -2.52-2.38h-2.55l3.24-2.01Z"/><path fill="#383739" d="M66.482 18.755l-.83.87 2.5 2.36v1.6l1.46-.91 1.06.99 1.05-.65 -1.07-1 1.37-.85h-2.99Z"/><path fill="#CA3745" d="M70.707 23.5l-.96-.9 .8-.5 .95.89 -.81.49Zm-2.41-.17v-1.41l-2.45-2.31 .62-.67 2.51 2.37h2.54l-3.25 2Z"/><path fill="#383739" d="M59.51 18.755l.82.87 -2.51 2.36v1.6l-1.47-.91 -1.07.99 -1.06-.65 1.06-1 -1.37-.85h2.98Z"/><path fill="#28AE66" d="M55.29 23.5l.95-.9 -.81-.5 -.96.89 .8.49Zm2.4-.17v-1.41l2.44-2.31 -.63-.67 -2.52 2.37h-2.55l3.24 2Z"/><path fill="#383739" d="M66.482 17.453l-.83-.88 2.5-2.37v-1.61l1.46.9 1.06-1 1.05.65 -1.07.99 1.37.84h-2.99Z"/><path fill="#28AE66" d="M70.7 12.7l-.96.89 .8.49 .95-.9 -.81-.5Zm-2.41.16v1.4l-2.45 2.3 .62.66 2.51-2.38h2.54l-3.25-2.01Z"/><path fill="#383739" d="M69.619 18.1l-6.62 4.41 -6.62-4.42 6.62-4.42Z"/><path fill="#FFF" d="M62.92 13.91l-6.19 4.12h6.18V13.9Zm.14 4.12h6.18l-6.19-4.13v4.12Zm-6.33.14l6.18 4.12v-4.13h-6.19Zm6.32 4.122l6.18-4.13h-6.19v4.12Z"/><path fill="#383739" stroke="#000" stroke-width=".057" d="M64.77 15.37v1.21h2.29v3.035h-2.29v1.21h-3.55v-1.22h-2.3V16.57h2.29v-1.22Z"/><path fill="#CA3745" d="M61.372 15.51v1.21h-2.3v1.3h3.84V15.5h-1.56Zm1.69 2.51h3.84v-1.31h-2.3v-1.22h-1.56V18Zm-3.99.14v1.3h2.29v1.21h1.55v-2.52h-3.85Zm3.99 2.51h1.55v-1.22h2.29v-1.31h-3.85v2.51Z"/><path fill="#383739" d="M57.03 68.37v1.94h11.92v-1.95h5.32v-1.95h5.33v-1.95h5.32V46.9h-5.33v-1.95h-5.33V43h-5.33v-1.95H57v1.94h-5.33v1.94h-5.33v1.94h-5.33v17.56h5.32v1.94h5.33v1.94Z"/><path fill="#CA3745" d="M68.82 68.227v1.94H57.17v-1.95h-5.33v-1.95h-5.33v-1.95h-5.33V47.04h5.33v-1.95h5.32v-1.95h5.32v-1.95h11.64v1.94h5.32v1.94h5.33v1.94h5.32V64.28h-5.33v1.94H74.1v1.94Z"/><path fill="#383739" d="M58.59 66.816v1.94h8.81v-1.95h5.33v-1.95h5.32V62.9h5.33V48.44h-5.33v-1.95h-5.33v-1.95h-5.33v-1.95h-8.82v1.94h-5.33v1.94h-5.33v1.94h-5.33v14.45h5.32v1.94h5.32v1.94Z"/><path fill="#CA3745" d="M67.26 66.67v1.94h-8.54v-1.95h-5.33v-1.95h-5.33v-1.95h-5.33V48.59h5.33v-1.95h5.32v-1.95h5.33v-1.95h8.53v1.94h5.33v1.94h5.32v1.94h5.33v14.16h-5.33v1.94h-5.33v1.94Z"/><path fill="#383739" d="M57.35 46.17l-.01-1.4 -1.36 1.21 -1.36-1.21 -.01 1.39 -1.38-1.05v2l-1.33.84 -.01-1.26 -1.27 1.13 -1.27-1.14 -.01 1.25 -1.47-.94v1.85l-1.19.85 -.01-1.14 -1.41 1.01 -1.41-1.02 -.01 1.13 -1.33-.96v5.62h-1.56v2.56h1.55v5.62l1.32-.97 0 1.13 1.4-1.02 1.4 1.01 0-1.14 1.18.85v1.85l1.46-.94 0 1.25 1.26-1.14 1.26 1.13 0-1.26 1.32.84v2l1.38-1.05 0 1.4 1.35-1.21 1.35 1.21 0-1.4 1.23.93v2.13l1.85-1.69v1.98l2.56-1.65 2.558 1.64V66.4l1.85 1.68v-2.14l1.23-.94 0 1.4 1.35-1.21 1.35 1.21 0-1.4 1.38 1.04v-2.01l1.32-.84 0 1.25 1.26-1.14 1.26 1.13 0-1.26 1.46.93v-1.86l1.18-.86 0 1.13 1.4-1.02 1.4 1.01 0-1.14 1.32.96v-5.63h1.55v-2.57h-1.56v-5.63l-1.33.96 -.01-1.14 -1.41 1.01 -1.41-1.02 -.01 1.13 -1.19-.86v-1.86l-1.47.93 -.01-1.26 -1.27 1.13 -1.27-1.14 -.01 1.25 -1.33-.85V44.76l-1.39 1.04 -.01-1.4 -1.36 1.21 -1.36-1.21 -.01 1.39 -1.24-.94v-2.14l-1.86 1.68V42.4l-2.558 1.64 -2.56-1.65v1.98l-1.85-1.69v2.13Z"/><path fill="#28AE66" d="M41.19 56.84v-2.28h1.55v-5.49l1.32.96 0-1.14 1.26.91 .04-.04 1.22-.89 0 1.13 1.32-.96v13.256l-1.33-.96 -.01 1.13 -1.27-.92 -1.27.91 -.01-1.14 -1.33.96v-5.49Z"/><path fill="#FAAE29" d="M49.53 63.17l-1.47.93V47.29l1.46.93 0-1.2 1.12 1.01 1.12-1.02 0 1.19 1.46-.94v16.8l-1.47-.93 -.01 1.19 -1.13-1.02 -1.13 1.01Z"/><path fill="#28AE66" d="M54.78 64.94l-1.38 1.04V45.4l1.38 1.04 0-1.37 1.21 1.08 1.21-1.09 0 1.36 1.38-1.05v20.57l-1.38-1.05 -.01 1.36 -1.22-1.09 -1.22 1.08Z"/><path fill="#FAAE29" d="M63 44.619h-.01l-2.42-1.56v2.04l-1.85-1.686V67.97l1.85-1.69v2.04l2.41-1.56h0l2.41 1.55v-2.05l1.85 1.68v-24.57l-1.85 1.686v-2.05Z"/><path fill="#28AE66" d="M84.8 56.84v-2.28h-1.56v-5.49l-1.33.96 -.01-1.14 -1.27.91 -.05-.04 -1.23-.89 -.01 1.13 -1.33-.96v13.256l1.32-.96 0 1.13 1.26-.92 1.26.91 0-1.14 1.32.96v-5.49Z"/><path fill="#FAAE29" d="M76.46 63.17l1.46.93V47.29l-1.47.93 -.01-1.2 -1.13 1.01 -1.13-1.02 -.01 1.19 -1.47-.94v16.8l1.46-.93 0 1.19 1.12-1.02 1.12 1.01Z"/><path fill="#28AE66" d="M71.21 64.94l1.38 1.04V45.4l-1.38 1.04 -.01-1.37 -1.21 1.08 -1.22-1.09 -.01 1.36 -1.38-1.05v20.57l1.37-1.05 0 1.36 1.21-1.09 1.21 1.08Z"/><path fill="#383739" d="M64.621 48.33l-.58.49v-1.45l1.29-.96 -2.35-1.73 -2.35 1.72 1.29.95v1.44l-.58-.5v-.8l-1.38 1.12 1.47 1.35 -.58.79h4.19l-.58-.8 1.47-1.36 -1.37-1.13Z"/><path fill="#CA3745" d="M61.235 47.839v.56l.85.73v-1.83l-1.2-.89 2.1-1.55 2.1 1.54 -1.2.88v1.83l.85-.74v-.57l1.01.83 -1.45 1.33 .48.66h-3.64l.48-.67 -1.45-1.34Z"/><path fill="#383739" d="M62.99 47.212l1.07-.79 -1.08-.79 -.05.03 -1.03.75Z"/><path fill="#28AE66" d="M62.999 45.81l.83.61 -.83.61 0-.001c-.28-.21-.56-.41-.83-.62l.83-.62Z"/><path fill="#383739" d="M72.451 57.458h7.17v-.94h2.34v-1.64h-2.35v-.94h-7.18l-5-3.28H58.5l-4.991 3.27h-7.18v.93h-2.35v1.64h2.34v.93h7.17l4.991 3.27h8.92Z"/><path fill="#CA3745" d="M46.52 57.315v-.94h-2.35v-1.36h2.34v-.94h7.07l4.991-3.28h8.83l4.99 3.27h7.07v.93h2.34v1.35h-2.35v.93h-7.07l-5 3.27h-8.84l-4.991-3.28Z"/><path fill="#383739" d="M76.97 56.65v-1.92h-5.11v-.46l-4.56-3h-8.62l-4.56 2.99v.45h-5.11v1.91h5.11v.45l4.56 2.99h8.62l4.56-3v-.46Z"/><path fill="#CA3745" d="M49.16 54.889h5.11v-.52l4.46-2.93h8.53l4.45 2.92v.51h5.11v1.62H71.7v.52l-4.46 2.92H58.7l-4.46-2.93v-.52h-5.11Z"/><path fill="#383739" d="M63.789 51.906l-.79.59 -.79-.6h-1.48l1.52 1.14 -2.79 2.09 -1.48-1.11 .45-.35 .53.39 .73-.56 -1.27-.96 -1.94 1.44 2.21 1.66 -2.22 1.66 1.93 1.45 1.27-.96 -.74-.56 -.54.39 -.46-.35 1.47-1.11 2.79 2.09 -1.53 1.14h1.47l.79-.6 .79.59h1.47l-1.53-1.15 2.79-2.1 1.47 1.1 -.46.34 -.54-.4 -.74.55 1.27.95 1.93-1.45 -2.22-1.67 2.21-1.67 -1.94-1.45 -1.27.95 .73.55 .53-.4 .45.34 -1.48 1.1 -2.79-2.1 1.52-1.15h-1.48Zm-.79 1.7l2.79 2.09 -2.79 2.09 -2.79-2.1 2.79-2.1Z"/><path fill="#FAAE29" d="M64.838 52.05l-1.34 1 3.02 2.27 1.71-1.29 -.7-.52 -.54.39 -.5-.38 1.03-.78 1.69 1.27 -2.22 1.66 2.21 1.66 -1.7 1.27 -1.04-.78 .5-.38 .53.39 .69-.52 -1.72-1.29 -3.03 2.27 1.33 1h-1.01l-.84-.63 -.84.62h-1.01l1.33-1.01 -3.03-2.28 -1.72 1.28 .69.52 .53-.4 .5.37 -1.04.77 -1.7-1.28 2.21-1.67 -2.22-1.67 1.69-1.28 1.03.77 -.5.37 -.54-.4 -.7.52 1.71 1.28 3.02-2.28 -1.34-1.01h1l.83.62 .83-.63h1Zm-1.89 1.41l-2.99 2.24 3.02 2.27 3.02-2.28 -3.03-2.28 -.05.03Z"/><path fill="#383739" d="M55.05 55.703l1.29.86 1.29-.87 -1.3-.87Z"/><path fill="#28AE66" d="M56.35 55.013l1.04.69 -1.04.69 -1.04-.69Z"/><path fill="#383739" d="M61.7 55.703l1.29.86 1.29-.87 -1.3-.87Z"/><path fill="#28AE66" d="M63 55.013l1.03.69 -1.04.69 -1.04-.69Z"/><path fill="#383739" d="M70.94 55.703l-1.3.86 -1.3-.87 1.29-.87Z"/><path fill="#28AE66" d="M69.646 55.013l-1.04.69 1.03.69 1.04-.69Z"/><path fill="#383739" d="M44.76 53.289v0c.14.15.35.24.57.24 .22 0 .41-.09.57-.25 .5-.51.52-1.44.51-2.1l-.7.73 -.41-.7 -.41.69 -.7-.73c-.01.66.01 1.58.51 2.09Z"/><path fill="#FFF" d="M45.338 51.513l.37.64 .57-.61c-.02.74-.19 1.34-.48 1.63v0c-.25.26-.66.27-.92.02 -.01-.01-.02-.02-.03-.03 -.29-.29-.46-.89-.48-1.63l.56.6 .375-.65Z"/><path fill="#383739" d="M51.767 49.7l-1.1-.95 -1.1.94 .75.64v1.5l-.43-.43v-.85l-.98.9 1.75 1.75 1.75-1.76 -.98-.91v.84l-.43.42v-1.51Z"/><path fill="#CA3745" d="M50.465 50.29l-.68-.59 .88-.76 .88.75 -.68.58v1.91l.71-.72v-.58l.63.58L50.65 53l-1.55-1.55 .63-.59v.58l.71.71Z"/><path fill="#383739" d="M57.096 48.021l-1.1-.95 -1.1.94 .75.64v1.5l-.43-.43v-.85l-.98.9 1.75 1.75 1.75-1.76 -.98-.91v.84l-.43.42V48.6Z"/><path fill="#FFF" d="M55.79 48.604l-.68-.59 .88-.76 .88.75 -.68.58v1.91l.71-.72v-.59l.63.58 -1.55 1.54 -1.55-1.55 .63-.59v.58l.71.71Z"/><path fill="#383739" d="M51.767 61.69l-1.1.94 -1.1-.95 .75-.65v-1.51l-.43.42v.84l-.98-.91 1.75-1.76 1.75 1.75 -.98.9v-.85l-.43-.43v1.5Z"/><path fill="#CA3745" d="M50.465 61.115l-.68.58 .88.75 .88-.76 -.68-.59v-1.92l.71.71v.58l.63-.59 -1.55-1.55 -1.55 1.54 .63.58v-.58l.71-.72Z"/><path fill="#383739" d="M74.232 49.7l1.1-.95 1.1.94 -.76.64v1.5l.42-.43v-.85l.97.9 -1.75 1.75 -1.76-1.76 .98-.91v.84l.42.42v-1.51Z"/><path fill="#CA3745" d="M75.534 50.29l.67-.59 -.88-.76 -.89.75 .67.58v1.91l-.72-.72v-.58l-.63.58L75.29 53l1.54-1.55 -.63-.59v.58l-.72.71Z"/><path fill="#383739" d="M74.232 61.69l1.1.94 1.1-.95 -.76-.65v-1.51l.42.42v.84l.97-.91 -1.75-1.76 -1.76 1.75 .98.9v-.85l.42-.43v1.5Z"/><path fill="#CA3745" d="M75.534 61.115l.67.58 -.88.75 -.89-.76 .67-.59v-1.92l-.72.71v.58l-.63-.59 1.54-1.55 1.54 1.54 -.63.58v-.58l-.72-.72Z"/><path fill="#383739" d="M57.096 63.384l-1.1.94 -1.1-.95 .75-.65v-1.51l-.43.42v.84l-.98-.91 1.75-1.76 1.75 1.75 -.98.9v-.85l-.43-.43v1.5Z"/><path fill="#FFF" d="M55.79 62.8l-.68.58 .88.75 .88-.76 -.68-.59v-1.92l.71.71v.58l.63-.59 -1.55-1.55 -1.55 1.54 .63.58v-.59l.71-.72Z"/><path fill="#383739" d="M68.903 48.021l1.1-.95 1.09.94 -.76.64v1.5l.42-.43v-.85l.97.9 -1.75 1.75 -1.76-1.76 .97-.91v.84l.42.42V48.6Z"/><path fill="#FFF" d="M70.205 48.604l.67-.59 -.88-.76 -.89.75 .67.58v1.91l-.72-.72v-.59l-.63.58 1.54 1.54 1.54-1.55 -.64-.59v.58l-.72.71Z"/><path fill="#383739" d="M68.903 63.384l1.1.94 1.09-.95 -.76-.65v-1.51l.42.42v.84l.97-.91 -1.75-1.76 -1.76 1.75 .97.9v-.85l.42-.43v1.5Z"/><path fill="#FFF" d="M70.205 62.8l.67.58 -.88.75 -.89-.76 .67-.59v-1.92l-.72.71v.58l-.63-.59 1.54-1.55 1.54 1.54 -.64.58v-.59l-.72-.72Z"/><path fill="#383739" d="M44.76 58.117v0c.14-.16.35-.25.57-.25 .22 0 .41.08.57.24 .5.51.52 1.43.51 2.09l-.7-.73 -.41.69 -.41-.7 -.7.73c-.01-.67.01-1.59.51-2.1Z"/><path fill="#FFF" d="M45.338 59.89l.37-.65 .57.6c-.02-.75-.19-1.35-.48-1.63v0c-.25-.27-.66-.28-.92-.03 -.01 0-.02.01-.03.02 -.29.28-.46.88-.48 1.63l.56-.61 .375.64Z"/><path fill="#383739" d="M81.236 53.289v0c-.15.15-.36.24-.58.24v0c-.22 0-.43-.09-.58-.25 -.51-.51-.53-1.44-.52-2.1l.69.73 .4-.7 .4.69 .69-.73c0 .66-.02 1.58-.52 2.09Z"/><path fill="#FFF" d="M80.66 51.51l-.375.64 -.57-.61c.01.74.18 1.34.47 1.63v0c.24.26.65.27.91.02 0-.01.01-.02.02-.03 .28-.29.45-.89.47-1.63 -.17.17-.57.6-.57.6l-.375-.65Z"/><path fill="#383739" d="M81.236 58.11v0c-.15-.16-.36-.25-.58-.25v0c-.22-.01-.43.08-.58.24 -.51.51-.53 1.43-.52 2.09l.69-.73 .4.69 .4-.7 .69.73c0-.67-.02-1.59-.52-2.1Z"/><path fill="#FFF" d="M80.66 59.893l-.375-.65 -.57.6c.01-.75.18-1.35.47-1.63v0c.24-.27.65-.28.91-.03 0 0 .01.01.02.02 .28.28.45.88.47 1.63l-.57-.61c-.13.21-.26.43-.375.64Z"/><path fill="#383739" d="M64.621 63.07l-.58-.49v1.44l1.29.95 -2.35 1.72 -2.35-1.73 1.29-.96v-1.45l-.58.49v.79l-1.38-1.13 1.47-1.36 -.58-.8h4.19l-.58.79 1.47 1.35 -1.37 1.12Z"/><path fill="#CA3745" d="M61.235 63.56v-.57l.85-.74v1.83l-1.2.88 2.1 1.54 2.1-1.55 -1.2-.89v-1.83l.85.73v.56l1.01-.83 -1.45-1.34 .48-.67h-3.64l.48.66 -1.45 1.33Z"/><path fill="#383739" d="M62.99 64.194l1.07.78 -1.08.78 -.05-.04 -1.03-.76Z"/><path fill="#28AE66" d="M62.999 65.59l.83-.62 -.83-.62 -.83.61 .83.61Z"/><path fill="#383739" d="M44.82 92.27v-1.35l-2.561 1.62 -1.03-.8 -1.061.12 -.51.72 .91.69 -.92.69 .5.72 1.061.12 1.02-.8 2.561 1.62v-1.36l-1.62-1.03Z"/><path fill="#28AE66" d="M42.251 92.729l2.42-1.55v1.01l-1.74 1.1 1.73 1.1v1.01l-2.43-1.55 -1.061.81 -.94-.11 -.4-.56 .95-.73 -.96-.73 .39-.56 .93-.11Z"/><path fill="#383739" d="M44.82 87.586v-1.36l-2.561 1.62 -1.03-.8 -1.061.12 -.51.72 .91.69 -.92.69 .5.72 1.061.12 1.02-.8 2.561 1.62v-1.36l-1.62-1.03Z"/><path fill="#28AE66" d="M42.251 88.036l2.42-1.55v1.01l-1.74 1.1 1.73 1.1v1.01l-2.43-1.55 -1.061.81 -.94-.11 -.4-.56 .95-.73 -.96-.73 .39-.56 .93-.11Z"/><path fill="#383739" d="M44.82 99.01v1.35l-2.561-1.63 -1.03.79 -1.061-.13 -.51-.72 .91-.7 -.92-.7 .5-.72 1.061-.13 1.02.79 2.561-1.63v1.35l-1.62 1.02Z"/><path fill="#28AE66" d="M42.251 98.568l2.42 1.54v-1.02l-1.74-1.11 1.73-1.11v-1.02l-2.43 1.54 -1.061-.82 -.94.1 -.4.55 .95.72 -.96.72 .39.55 .93.1Z"/><path fill="#383739" d="M81.17 92.27v-1.35l2.56 1.62 1.02-.8 1.06.12 .51.72 -.92.69 .91.69 -.51.72 -1.06.12 -1.03-.8 -2.57 1.62v-1.36l1.61-1.03Z"/><path fill="#28AE66" d="M83.748 92.729l-2.43-1.55v1.01l1.73 1.1 -1.74 1.1v1.01l2.42-1.55 1.06.81 .94-.11 .39-.56 -.96-.73 .95-.73 -.4-.56 -.94-.11Z"/><path fill="#383739" d="M81.17 87.586v-1.36l2.56 1.62 1.02-.8 1.06.12 .51.72 -.92.69 .91.69 -.51.72 -1.06.12 -1.03-.8 -2.57 1.62v-1.36l1.61-1.03Z"/><path fill="#28AE66" d="M83.748 88.036l-2.43-1.55v1.01l1.73 1.1 -1.74 1.1v1.01l2.42-1.55 1.06.81 .94-.11 .39-.56 -.96-.73 .95-.73 -.4-.56 -.94-.11Z"/><path fill="#383739" d="M81.17 99.01v1.35l2.56-1.63 1.02.79 1.06-.13 .51-.72 -.92-.7 .91-.7 -.51-.72 -1.06-.13 -1.03.79 -2.57-1.63v1.35l1.61 1.02Z"/><path fill="#28AE66" d="M83.748 98.568l-2.43 1.54v-1.02l1.73-1.11 -1.74-1.11v-1.02l2.42 1.54 1.06-.82 .94.1 .39.55 -.96.72 .95.72 -.4.55 -.94.1Z"/><path fill="#383739" d="M75.576 79.077v1.95h1.42v.86h1.39v-1.58h-1.25v-1.25h-1.58Z"/><path fill="#28AE66" d="M77.004 79.21v1.24h1.24v1.28h-1.11v-.87h-1.42v-1.67l1.28 0Z"/><path fill="#383739" d="M79.761 82.15v1.95h1.41v.86h1.39v-1.58h-1.25v-1.25h-1.57Z"/><path fill="#28AE66" d="M81.189 82.298v1.24h1.24v1.28h-1.11v-.87h-1.42v-1.67h1.28Z"/><path fill="#383739" d="M50.42 79.077v1.95H49v.86h-1.4v-1.58h1.24v-1.25h1.57Z"/><path fill="#28AE66" d="M48.99 79.21v1.24h-1.25v1.28h1.1v-.87h1.42v-1.67l-1.29 0Z"/><path fill="#383739" d="M75.576 107.52v-1.96h1.42v-.87h1.39v1.57h-1.25v1.24h-1.58Z"/><path fill="#28AE66" d="M77.004 107.384v-1.25h1.24v-1.29h-1.11v.86h-1.42v1.66l1.28 0Z"/><path fill="#383739" d="M50.42 107.52v-1.96H49v-.87h-1.4v1.57h1.24v1.24h1.57Z"/><path fill="#28AE66" d="M48.99 107.384v-1.25h-1.25v-1.29h1.1v.86h1.42v1.66l-1.29 0Z"/><path fill="#383739" d="M79.761 104.44v-1.96h1.41v-.87h1.39v1.57h-1.25v1.24h-1.57v-.01Z"/><path fill="#28AE66" d="M81.189 104.306v-1.25h1.24v-1.29h-1.11v.86h-1.42v1.66h1.28Z"/><path fill="#383739" d="M46.23 82.15v1.95h-1.42v.86h-1.4v-1.58h1.24v-1.25h1.57Z"/><path fill="#28AE66" d="M44.81 82.298v1.24h-1.25v1.28h1.1v-.87h1.42v-1.67h-1.29Z"/><path fill="#383739" d="M46.23 104.44v-1.96h-1.42v-.87h-1.4v1.57h1.24v1.24h1.57v-.01Z"/><path fill="#28AE66" d="M44.81 104.306v-1.25h-1.25v-1.29h1.1v.86h1.42v1.66h-1.29Z"/><path fill="#383739" d="M68.251 79.031l-1.09-1.06 -1.07.98 .92.9 -1.2 1.16h1.77l.63-.63 .64.62h1.77l-1.2-1.17 .92-.9 -1.07-.99 -1.09 1.05Z"/><path fill="#28AE66" d="M67.16 78.17l1.08 1.05 1.08-1.06 .85.79 -.93.89 1.05 1.02h-1.37l-.7-.68 -.7.67h-1.37l1.05-1.02 -.93-.9 .85-.8Z"/><path fill="#383739" d="M63 79.031v-.001c-.37-.36-.73-.71-1.09-1.06l-1.064.98 .92.9 -1.2 1.16h1.77l.64-.63 .64.62h1.77l-1.2-1.17 .92-.9 -1.07-.99 -1.09 1.05Z"/><path fill="#28AE66" d="M61.91 78.17l1.08 1.05 1.08-1.06 .85.79 -.93.89 1.05 1.02h-1.37l-.7-.68 -.7.67H60.9l1.05-1.02 -.93-.9 .85-.8Z"/><path fill="#383739" d="M57.748 79.031l1.08-1.06 1.064.98 -.93.9 1.19 1.16h-1.78l-.64-.63 -.64.62h-1.78l1.19-1.17 -.93-.9 1.064-.99 1.08 1.05Z"/><path fill="#28AE66" d="M58.83 78.17l-1.09 1.05 -1.09-1.06 -.86.79 .92.89 -1.06 1.02h1.36l.69-.68 .69.67h1.36l-1.05-1.02 .92-.9 -.86-.8Z"/><path fill="#383739" d="M68.251 107.573l-1.09 1.05 -1.07-.99 .92-.9 -1.2-1.17h1.77l.63.62 .64-.63h1.77l-1.2 1.16 .92.9 -1.07.98 -1.09-1.06Z"/><path fill="#28AE66" d="M67.16 108.42l1.08-1.06 1.08 1.05 .85-.8 -.93-.9 1.05-1.02h-1.37l-.7.67 -.7-.68h-1.37l1.05 1.02 -.93.89 .85.79Z"/><path fill="#383739" d="M63 107.573l-1.09 1.05 -1.064-.99 .92-.9 -1.2-1.17h1.77l.64.62 .64-.63h1.77l-1.2 1.16 .92.9 -1.07.98 -1.09-1.06Z"/><path fill="#28AE66" d="M61.91 108.42l1.08-1.06 1.08 1.05 .85-.8 -.93-.9 1.05-1.02h-1.37l-.7.67 -.7-.68H60.9l1.05 1.02 -.93.89 .85.79Z"/><path fill="#383739" d="M57.748 107.573l1.08 1.05 1.064-.99 -.93-.9 1.19-1.17h-1.78l-.64.62 -.64-.63h-1.78l1.19 1.16 -.93.9 1.064.98c.36-.35.72-.71 1.08-1.06Z"/><path fill="#28AE66" d="M58.83 108.42l-1.09-1.06 -1.09 1.05 -.86-.8 .92-.9 -1.06-1.02h1.36l.69.67 .69-.68h1.36l-1.05 1.02 .92.89c-.1.08-.77.71-.86.79Z"/><path fill="#383739" d="M48.86 80.886v3.07h-4.183v18.67h4.183v3.07h28.27v-3.08h4.18V83.93h-4.19v-3.08Z"/><path fill="#CA3745" d="M76.99 81.029v3.07h4.18v18.39h-4.19v3.07h-28v-3.08H44.79V84.08h4.183V81Z"/><path fill="#383739" d="M75.186 82.21H50.8v3.7h-4.82v14.771h4.81v3.7h24.37v-3.71h4.81v-14.78h-4.82Z"/><path fill="#CA3745" d="M75.043 82.353v3.7h4.81v14.485h-4.82v3.7H50.94v-3.71h-4.82V86.03h4.81v-3.71Z"/><path fill="#383739" d="M46 97.87l8.82 6.51h16.34l8.82-6.52v-9.15l-8.83-6.52H54.8l-8.83 6.51Z"/><path fill="#28AE66" d="M71.126 82.35l8.72 6.44v9.003l-8.73 6.44H54.863l-8.729-6.45V88.78l8.729-6.45h16.253Z"/><path fill="#383739" d="M72.87 84.197H53.04v1.57H50.5v15.06h2.53v1.57h19.89v-1.58h2.53V85.74h-2.54v-1.58h-.08Z"/><path fill="#CA3745" d="M72.805 84.34v1.57h2.53v14.77h-2.54v1.57h-19.62v-1.58h-2.54V85.89h2.53v-1.58Z"/><path fill="#383739" d="M51.135 98.785l4.31 3.622h15.1l4.31-3.622v-10.97l-4.32-3.63h-15.11l-4.32 3.62Z"/><path fill="#28AE66" d="M70.499 84.34l4.22 3.54v10.83l-4.23 3.54h-15l-4.23-3.55V87.86l4.22-3.55h14.99Z"/><path fill="#383739" d="M51.88 98.43l3.83 3.22h14.55l3.83-3.22V88.16l-3.84-3.22H55.69l-3.84 3.22Z"/><path fill="#CA3745" d="M70.22 85.09l3.74 3.14v10.12l-3.75 3.14H55.76l-3.75-3.15V88.21l3.74-3.15h14.44Z"/><path fill="#383739" d="M57.461 84.34h11.07v-.58l-1.17-1.01 -1.1.94 -1.1-.95 -1.1.94 -1.1-.95 -1.1.94 -1.1-.95 -1.1.94 -1.1-.95 -1.17 1Z"/><path fill="#CA3745" d="M68.395 84.197h-2.05v-.37l1.02-.88 1.02.88Z"/><path fill="#FAAE29" d="M66.208 84.197h-2.05v-.37l1.02-.88 1.02.88Z"/><path fill="#CA3745" d="M64.021 84.197h-2.05v-.37l1.02-.88 1.02.88Z"/><path fill="#FAAE29" d="M61.83 84.197h-2.05v-.37l1.02-.88 1.02.88Z"/><path fill="#CA3745" d="M59.648 84.197h-2.05v-.37l1.02-.88 1.02.88Z"/><path fill="#383739" d="M47.21 95.489l.94 1.09 -.95 1.09 1 1.16h2.43V87.74h-2.44l-1.01 1.16 .94 1.09 -.95 1.09 .94 1.09 -.95 1.09 .94 1.09Z"/><path fill="#FAAE29" d="M48.28 98.698l-.88-1.03 .88-1.03h2.22v2.04Z"/><path fill="#CA3745" d="M48.28 96.51l-.88-1.03 .88-1.03h2.22v2.04Z"/><path fill="#FAAE29" d="M48.28 94.324l-.88-1.03 .88-1.03h2.22v2.04Z"/><path fill="#CA3745" d="M48.28 92.137l-.88-1.03 .88-1.03h2.22v2.04Z"/><path fill="#FAAE29" d="M48.28 89.95l-.88-1.03 .88-1.03h2.22v2.04Z"/><path fill="#383739" d="M57.461 102.26h11.07v.57l-1.17 1 -1.1-.95 -1.1.94 -1.1-.95 -1.1.94 -1.1-.95 -1.1.94 -1.1-.95 -1.1.94 -1.17-1.01Z"/><path fill="#CA3745" d="M68.395 102.4h-2.05v.37l1.02.88 1.02-.88Z"/><path fill="#FAAE29" d="M66.208 102.4h-2.05v.37l1.02.88 1.02-.88Z"/><path fill="#CA3745" d="M64.021 102.4h-2.05v.37l1.02.88 1.02-.88Z"/><path fill="#FAAE29" d="M61.83 102.4h-2.05v.37l1.02.88 1.02-.88Z"/><path fill="#CA3745" d="M59.648 102.4h-2.05v.37l1.02.88 1.02-.88Z"/><path fill="#383739" d="M78.78 95.489l-.95 1.09 .94 1.09 -1.01 1.16h-2.44V87.74h2.43l1 1.16 -.95 1.09 .94 1.09 -.95 1.09 .94 1.09 -.95 1.09Z"/><path fill="#FAAE29" d="M77.71 98.698l.88-1.03 -.88-1.03h-2.23v2.04Z"/><path fill="#CA3745" d="M77.71 96.51l.88-1.03 -.88-1.03h-2.23v2.04Z"/><path fill="#FAAE29" d="M77.71 94.324l.88-1.03 -.88-1.03h-2.23v2.04Z"/><path fill="#CA3745" d="M77.71 92.137l.88-1.03 -.88-1.03h-2.23v2.04Z"/><path fill="#FAAE29" d="M77.71 89.95l.88-1.03 -.88-1.03h-2.23v2.04Z"/><path fill="#FFF" d="M57.931 101.51l.81-.79 .81.78Z"/><path fill="#383739" d="M58.75 99.07l-.8-.65 -.81.34 -.15.91 .76.67 -1.26 1.21h1.55l.68-.66 .68.65h1.55l-1.26-1.22 .76-.68 -.15-.92 -.81-.35Z"/><path fill="#28AE66" d="M57.276 98.87l.65-.29 .82.65 .04-.04 .77-.63 .65.28 .12.76 -.82.72 1.19 1.15h-1.15l-.82-.79 -.82.78h-1.15l1.19-1.16 -.82-.73Z"/><path fill="#FFF" d="M62.18 101.51l.82-.79 .81.78Z"/><path fill="#383739" d="M63 99.07l-.81-.65 -.81.34 -.15.91 .76.67 -1.26 1.21h1.55l.68-.66 .68.65h1.55l-1.26-1.22 .76-.68 -.15-.92 -.81-.35Z"/><path fill="#28AE66" d="M61.525 98.87l.65-.29 .82.65 .04-.04 .77-.63 .65.28 .12.76 -.82.72 1.19 1.15h-1.15l-.82-.79 -.82.78H61l1.19-1.16 -.82-.73Z"/><path fill="#FFF" d="M68.068 101.51l-.82-.79 -.82.78Z"/><path fill="#383739" d="M67.24 99.07l.8-.65 .8.34 .14.91 -.77.67 1.25 1.21H67.9l-.69-.66 -.69.65h-1.56l1.25-1.22 -.77-.68 .14-.92 .8-.35Z"/><path fill="#28AE66" d="M68.723 98.87l-.66-.29 -.83.65 -.05-.04 -.78-.63 -.66.28 -.12.76 .82.72 -1.2 1.15h1.14l.81-.79 .81.78h1.14l-1.2-1.16 .82-.73Z"/><path fill="#FFF" d="M57.931 85.094l.81.78 .81-.79Z"/><path fill="#383739" d="M58.75 87.533l-.8.64 -.81-.35 -.15-.92 .76-.68 -1.29-1.24h1.55l.71.68 .71-.69h1.55l-1.29 1.24 .76.67 -.15.91 -.81.34Z"/><path fill="#28AE66" d="M57.276 87.726l.65.28 .82-.66 .04.03 .77.62 .65-.29 .12-.76 -.82-.73 1.19-1.16h-1.15l-.82.78 -.82-.79h-1.15l1.19 1.15 -.82.72Z"/><path fill="#FFF" d="M62.18 85.094l.82.78 .81-.79Z"/><path fill="#383739" d="M63 87.533l-.81.64 -.81-.35 -.15-.92 .76-.68 -1.29-1.24h1.55l.71.68 .71-.69h1.55l-1.29 1.24 .76.67 -.15.91 -.81.34Z"/><path fill="#28AE66" d="M61.525 87.726l.65.28 .82-.66 .04.03 .77.62 .65-.29 .12-.76 -.82-.73 1.19-1.16h-1.15l-.82.78 -.82-.79H61l1.19 1.15 -.82.72Z"/><path fill="#FFF" d="M68.068 85.094l-.82.78 -.82-.79Z"/><path fill="#383739" d="M67.24 87.533l.8.64 .8-.35 .14-.92 -.77-.68 1.28-1.24h-1.56l-.72.68 -.71-.69h-1.56l1.28 1.24 -.77.67 .14.91 .8.34Z"/><path fill="#28AE66" d="M68.723 87.726l-.66.28 -.83-.66 -.05.03 -.78.62 -.66-.29 -.12-.76 .82-.73 -1.2-1.16h1.14l.81.78 .81-.79h1.14l-1.2 1.15 .82.72Z"/><path fill="#FFF" d="M73.96 89.222v1.07h-.01l-.65-.54Z"/><path fill="#383739" d="M72.97 88.965l-.68-.62 -.91.11 -.36.65 .63.63 -.64.63 .35.65 .9.11 .67-.62 1.06.88v-1.27l-.5-.42 .49-.42v-1.13l-.09-.07c-.33.27-.66.54-.99.81Z"/><path fill="#28AE66" d="M73.96 89.222l-.65.53 .65.53v.89l-1-.83 -.72.65 -.77-.1h-.001c-.1-.17-.19-.34-.28-.5l.66-.66 -.67-.66 .27-.5 .76-.1 .71.65 1-.83v.89Z"/><path fill="#FFF" d="M73.96 92.76v1.07h-.01l-.65-.54Z"/><path fill="#383739" d="M72.97 92.5l-.68-.62 -.91.11 -.36.65 .63.63 -.64.63 .35.65 .9.11 .67-.62 1.08.89v-1.27l-.52-.43 .51-.43v-1.27l-1.09.89Z"/><path fill="#28AE66" d="M73.96 92.76l-.65.53 .65.53v.89l-1-.83 -.72.65 -.77-.1h-.001c-.1-.17-.19-.34-.28-.5l.66-.66 -.67-.66 .27-.5 .76-.1 .71.65 1-.83v.89Z"/><path fill="#FFF" d="M73.96 97.38V96.3h-.01l-.65.53Z"/><path fill="#383739" d="M72.97 97.639l-.68.61 -.91-.12 -.36-.66 .63-.64 -.64-.64 .35-.66 .9-.12 .67.61 1.08-.9v1.26l-.52.42 .51.42v1.11l-.09.07c-.33-.28-.67-.55-1-.83Z"/><path fill="#28AE66" d="M73.96 97.38l-.65-.54 .65-.54v-.9l-1 .82 -.72-.65 -.77.09 -.28.5 .66.66 -.67.66 .27.5 .76.09 .71-.65 1 .82v-.9Z"/><path fill="#FFF" d="M52.03 89.222v1.07h0l.64-.54Z"/><path fill="#383739" d="M53.028 88.965l.67-.62 .9.11 .35.65 -.64.63 .63.63 -.36.65 -.91.11 -.68-.62 -1.07.87v-1.27l.49-.42 -.5-.42v-1.15l.07-.06c.33.27.66.54.99.82Z"/><path fill="#28AE66" d="M52.032 89.222l.65.53 -.65.53v.89l1-.83 .71.65 .77-.1 .27-.5 -.67-.66 .66-.66 -.28-.5 -.77-.1 -.72.65 -1-.83v.89Z"/><path fill="#FFF" d="M52.03 92.76v1.07h0l.64-.54Z"/><path fill="#383739" d="M53.02 92.507l.67-.62 .9.11 .35.65 -.64.63 .63.63 -.36.65 -.91.11 -.68-.62 -1.07.88v-1.27l.5-.42 -.5-.42v-1.27l1.07.88Z"/><path fill="#28AE66" d="M52.032 92.76l.65.53 -.65.53v.89l1-.83 .71.65 .77-.1 .27-.5 -.67-.66 .66-.66 -.28-.5 -.77-.1 -.72.65 -1-.83v.89Z"/><path fill="#FFF" d="M52.03 97.38V96.3h0l.64.53Z"/><path fill="#383739" d="M53.02 97.63l.67.61 .9-.12 .35-.66 -.64-.64 .63-.64 -.36-.66 -.91-.12 -.68.61 -1.07-.89v1.26l.5.41 -.5.41v1.13l.07.06c.33-.28.66-.55.99-.82Z"/><path fill="#28AE66" d="M52.032 97.38l.65-.54 -.65-.54v-.9l1 .82 .71-.65 .77.09 .27.5 -.67.66 .66.66 -.28.5 -.77.09 -.72-.65 -1 .82v-.9Z"/><path fill="#383739" d="M66.63 95.74v-1.27h1.76V92.1h-1.77v-1.27h-1.28v-1.39h-4.72v1.38h-1.28v1.26h-1.77v2.36h1.76v1.26h1.27v1.38h4.71v-1.39Z"/><path fill="#FAAE29" d="M59.508 92.262v-1.27h1.27v-1.39h2.14v1.42l-2.03 1.15v1.03h-3.17v-.97Zm6.98 2.08v1.26h-1.28v1.38h-2.15v-1.43l2.02-1.16v-1.04h3.16v.96Z"/><path fill="#FFF" d="M66.49 90.998v1.26h1.76v.96h-3.17v-1.04l-2.03-1.16v-1.43h2.14v1.38Zm-5.71 4.6H59.5v-1.27h-1.77v-.97h3.16v1.03l2.02 1.15v1.42h-2.15Z"/><path fill="#CA3745" d="M61.04 93.374v.96l1.88 1.07v-2.04Z"/><path fill="#28AE66" d="M62.92 91.198l-1.89 1.07v.96h1.88Z"/><path fill="#CA3745" d="M64.953 93.231v-.97l-1.89-1.07v2.03Z"/><path fill="#28AE66" d="M63.071 95.4l1.88-1.07v-.97h-1.89Z"/><path fill="#383739" d="M45.88 118.41v3.9h-3.73v3.54h-3.78v10.08h3.77v3.54h3.72v3.9h13.53l2.38 1.43 -1.15.68h-4.83l-.42-.47h4.37l-1.24-1.24H52.24l2.83 2.95h5.866l2-1.21 2.003 1.2H70.8l2.83-2.95H67.38L66.14 145h4.37l-.42.46h-4.83l-1.15-.69 2.38-1.43h13.53v-3.91h3.72v-3.55h3.77v-10.09h-3.78v-3.55h-3.73v-3.91h-13.54l-2.38-1.43 1.14-.69h4.82l.41.47h-4.38l1.23 1.24h6.256l-2.84-2.96H64.85l-2.003 1.2 -2.01-1.21H54.97l-2.84 2.95h6.256l1.23-1.24h-4.38l.41-.47h4.82l1.14.68 -2.38 1.43Z"/><path fill="#CA3745" d="M83.695 126h3.77v9.8h-3.78v3.54h-3.73v3.9H66.52l-2.62 1.57 1.38.82h4.93l.67-.76h-4.35l.94-.96h5.86l-2.56 2.66H65l-2.05-1.23 -2.05 1.22h-5.77l-2.56-2.67h5.86l.94.95h-4.35l.67.75h4.92l1.38-.83 -2.62-1.58H45.94v-3.91h-3.73v-3.55h-3.78v-9.81h3.77v-3.55h3.72v-3.91h13.42l2.61-1.58 -1.39-.83h-4.93l-.67.75h4.34l-.95.95h-5.86l2.55-2.67h5.76l2.04 1.22 2.04-1.23h5.76l2.55 2.66h-5.86l-.95-.96h4.34l-.67-.76h-4.93l-1.39.83 2.61 1.57h13.43v3.9h3.72Z"/><path fill="#383739" d="M63 144.265l4.02-2.42h11.54v-3.91h3.72v-3.55h3.77v-7h-3.78v-3.55h-3.73v-3.91H66.99l-4.03-2.42 -4.03 2.41H47.38v3.9h-3.73v3.54h-3.78v6.99h3.77v3.54h3.72v3.9H58.9Z"/><path fill="#FAAE29" d="M78.42 137.798v3.9H66.97l-3.99 2.39 -3.99-2.4H47.54v-3.91h-3.73v-3.55h-3.78v-6.71h3.77v-3.55h3.72v-3.91h11.44l3.98-2.4 3.98 2.39h11.44v3.9h3.72v3.54h3.77v6.7h-3.78v3.54Z"/><path fill="#383739" d="M63 143.122l3.75-2.26h10.83v-3.91h3.72v-3.55h3.77v-5.04h-3.78v-3.55h-3.73v-3.91H66.72l-3.76-2.26 -3.76 2.25H48.36v3.9h-3.73v3.54h-3.78v5.03h3.77v3.54h3.72v3.9h10.83Z"/><path fill="#28AE66" d="M77.44 136.81v3.9H66.7l-3.72 2.23 -3.72-2.24H48.52v-3.91h-3.73v-3.55h-3.78v-4.75h3.77v-3.55h3.72v-3.91h10.73l3.71-2.24 3.71 2.23h10.73v3.9h3.72v3.54h3.77v4.74h-3.78v3.54Z"/><path fill="#383739" d="M49.95 135.45v3.78h5.89l-5.9-3.92Z"/><path fill="#CA3745" d="M50.1 135.58l5.28 3.5h-5.29Z"/><path fill="#383739" d="M66.816 135.16v-1.94h-.66l-3.16-1.98 -.04.02 -3.12 1.95h-.66v1.93h-1.88v2.07h1.87v1.93h.65l3.15 1.97 3.15-1.98h.65v-1.93h1.87v-2.08Z"/><path fill="#FAAE29" d="M63 131.42l2.88 1.8H60.1l2.89-1.81Zm2.88 7.74l-2.89 1.8 -2.89-1.81h5.77v-.01Z"/><path fill="#CA3745" d="M66.67 137.236v1.78h-3.61v-1.79Zm-3.75 0v1.78h-3.61v-1.79Zm5.61-1.94v1.78h-3.61v-1.79Zm-3.75 0v1.78h-3.61v-1.79Zm-3.75 0v1.78h-3.61v-1.79Zm5.61-1.93v1.78h-3.61v-1.79Zm-3.75 0v1.78h-3.61v-1.79Z"/><path fill="#383739" d="M57.482 129.865v-1.94h-.66l-3.16-1.98 -.04.02 -3.13 1.95h-.66v1.93h-1.49v2.07h1.48v1.93h.65l3.15 1.97 3.15-1.98h.65v-1.93h2.26v-2.08Z"/><path fill="#CA3745" d="M53.66 126.128l2.88 1.8h-5.78l2.88-1.81Zm2.88 7.74l-2.89 1.8 -2.89-1.81h5.77Z"/><path fill="#FAAE29" d="M57.339 131.93v1.78h-3.61v-1.79Zm-3.75 0v1.78h-3.61v-1.79Zm6.006-1.93v1.78h-3.61v-1.79Z"/><path fill="#CA3745" d="M55.85 130v1.78h-3.61v-1.79Z"/><path fill="#FAAE29" d="M52.108 130v1.78h-3.61v-1.79Zm5.23-1.93v1.78h-3.61v-1.79Zm-3.75 0v1.78h-3.61v-1.79Z"/><path fill="#383739" d="M68.51 129.865v-1.94h.65l3.15-1.98 .03.02 3.12 1.95h.65v1.93h1.48v2.07H76.1v1.93h-.66l-3.16 1.97 -3.16-1.98h-.66v-1.93h-2.27v-2.08Z"/><path fill="#CA3745" d="M72.33 126.128l-2.89 1.8h5.77l-2.89-1.81Zm-2.89 7.74l2.88 1.8 2.88-1.81h-5.78Z"/><path fill="#FAAE29" d="M68.66 131.93v1.78h3.6v-1.79Zm3.74 0v1.78H76v-1.79ZM66.39 130v1.78h3.6v-1.79Z"/><path fill="#CA3745" d="M70.144 130v1.78h3.6v-1.79Z"/><path fill="#FAAE29" d="M73.89 130v1.78h3.6v-1.79Zm-5.23-1.93v1.78h3.6v-1.79Zm3.74 0v1.78H76v-1.79Z"/><path fill="#383739" d="M66.816 126.64v1.93h-.66l-3.16 1.97 -.04-.03 -3.12-1.96h-.66v-1.93h-1.88v-2.08h1.87v-1.94h.65l3.15-1.98 3.15 1.97h.65v1.93h1.87v2.07Z"/><path fill="#FAAE29" d="M63 130.377l2.88-1.81H60.1l2.89 1.8Zm2.88-7.75l-2.89-1.81 -2.89 1.8h5.77Z"/><path fill="#CA3745" d="M66.67 124.567v-1.79h-3.61v1.78Zm-3.75 0v-1.79h-3.61v1.78Zm5.61 1.93v-1.79h-3.61v1.78Zm-3.75 0v-1.79h-3.61v1.78Zm-3.75 0v-1.79h-3.61v1.78Zm5.61 1.93v-1.79h-3.61v1.78Zm-3.75 0v-1.79h-3.61v1.78Z"/><path fill="#383739" d="M49.95 126.353v-3.78h5.89l-5.9 3.91Z"/><path fill="#CA3745" d="M50.1 126.21l5.28-3.503h-5.29v3.503Z"/><path fill="#383739" d="M76.042 135.45v3.78h-5.9l5.9-3.92Z"/><path fill="#CA3745" d="M75.9 135.58l-5.29 3.5h5.28v-3.51Z"/><path fill="#383739" d="M76.042 126.353v-3.78h-5.9l5.9 3.91Z"/><path fill="#CA3745" d="M75.9 126.21l-5.29-3.51h5.28v3.5Z"/><path fill="#383739" d="M51.11 130.405v.99h-1.62v-1Z"/><path fill="#FFF" d="M50.96 130.55h-1.314v.68h1.314Z"/><path fill="#383739" d="M52.6 128.474v.99h-1.62v-1Z"/><path fill="#FFF" d="M52.44 128.627h-1.314v.68h1.314Z"/><path fill="#383739" d="M56.347 128.474v.99h-1.62v-1Z"/><path fill="#FFF" d="M56.19 128.627h-1.314v.68h1.314Z"/><path fill="#383739" d="M54.862 130.405v.99h-1.62v-1Z"/><path fill="#FFF" d="M54.709 130.55h-1.32v.68h1.31Z"/><path fill="#383739" d="M58.6 130.405v.99h-1.62v-1Z"/><path fill="#FFF" d="M58.45 130.55h-1.314v.68h1.314Z"/><path fill="#383739" d="M56.347 132.335v.99h-1.62v-1Z"/><path fill="#FFF" d="M56.19 132.48h-1.314v.68h1.314Z"/><path fill="#383739" d="M52.6 132.335v.99h-1.62v-1Z"/><path fill="#FFF" d="M52.44 132.48h-1.314v.68h1.314Z"/><path fill="#383739" d="M61.936 123.17v.99h-1.62v-1Z"/><path fill="#FFF" d="M61.784 123.32H60.47v.68h1.314Z"/><path fill="#383739" d="M65.68 123.17v.99h-1.62v-1Z"/><path fill="#FFF" d="M65.52 123.32H64.2v.68h1.31Z"/><path fill="#383739" d="M60.063 125.107v.99h-1.62v-1Z"/><path fill="#FFF" d="M59.91 125.259h-1.32v.68h1.31Z"/><path fill="#383739" d="M63.8 125.107v.99h-1.62v-1Z"/><path fill="#FFF" d="M63.656 125.259h-1.314v.68h1.314Z"/><path fill="#383739" d="M67.554 125.107v.99h-1.62v-1Z"/><path fill="#FFF" d="M67.402 125.259h-1.32v.68h1.31Z"/><path fill="#383739" d="M61.936 127.037v.99h-1.62v-1Z"/><path fill="#FFF" d="M61.784 127.189H60.47v.68h1.314Z"/><path fill="#383739" d="M65.68 127.037v.99h-1.62v-1Z"/><path fill="#FFF" d="M65.52 127.189H64.2v.68h1.31Z"/><path fill="#383739" d="M71.271 128.474v.99h-1.62v-1Z"/><path fill="#FFF" d="M71.118 128.627h-1.32v.68h1.31Z"/><path fill="#383739" d="M75.016 128.474v.99h-1.62v-1Z"/><path fill="#FFF" d="M74.86 128.627h-1.32v.68h1.31Z"/><path fill="#383739" d="M69.01 130.405v.99h-1.62v-1Z"/><path fill="#FFF" d="M68.85 130.55h-1.32v.68h1.31Z"/><path fill="#383739" d="M72.755 130.405v.99h-1.62v-1Z"/><path fill="#FFF" d="M72.603 130.55h-1.32v.68h1.31Z"/><path fill="#383739" d="M76.501 130.405v.99h-1.62v-1Z"/><path fill="#FFF" d="M76.349 130.55h-1.32v.68h1.31Z"/><path fill="#383739" d="M71.271 132.335v.99h-1.62v-1Z"/><path fill="#FFF" d="M71.118 132.48h-1.32v.68h1.31Z"/><path fill="#383739" d="M75.016 132.335v.99h-1.62v-1Z"/><path fill="#FFF" d="M74.86 132.48h-1.32v.68h1.31Z"/><path fill="#383739" d="M61.936 133.77v.99h-1.62v-1Z"/><path fill="#FFF" d="M61.784 133.925H60.47v.68h1.314Z"/><path fill="#383739" d="M65.68 133.77v.99h-1.62v-1Z"/><path fill="#FFF" d="M65.52 133.925H64.2v.68h1.31Z"/><path fill="#383739" d="M60.063 135.7v.99h-1.62v-1Z"/><path fill="#FFF" d="M59.91 135.85h-1.32v.68h1.31Z"/><path fill="#383739" d="M63.8 135.7v.99h-1.62v-1Z"/><path fill="#FFF" d="M63.656 135.85h-1.314v.68h1.314Z"/><path fill="#383739" d="M67.554 135.7v.99h-1.62v-1Z"/><path fill="#FFF" d="M67.402 135.85h-1.32v.68h1.31Z"/><path fill="#383739" d="M61.936 137.63v.99h-1.62v-1Z"/><path fill="#FFF" d="M61.784 137.785H60.47v.68h1.314Z"/><path fill="#383739" d="M65.68 137.63v.99h-1.62v-1Z"/><path fill="#FFF" d="M65.52 137.785H64.2v.68h1.31Z"/><path fill="#383739" d="M83.44 172.71l-14.018 7.54H56.57l-14.02-7.55v-12.44l14.01-7.55H69.4l14.018 7.54Z"/><path fill="#28AE66" d="M69.386 180.11l13.91-7.49v-12.26l-13.92-7.49H56.59l-13.91 7.48v12.25l13.91 7.48Z"/><path fill="#383739" d="M82.3 172.032l-13.17 7.08H56.85l-13.168-7.09v-11.07l13.168-7.09h12.27l13.16 7.08Z"/><path fill="#FAAE29" d="M82.16 171.946v-5.375h-19.1v12.4h6.03Zm-38.33-5.52h19.09v-12.41h-6.04l-13.061 7.03Z"/><path fill="#FFF" d="M56.89 178.975h6.03v-12.41h-19.1v5.375Zm25.26-17.93l-13.07-7.03h-6.04v12.4h19.092Z"/><path fill="#383739" d="M69.11 171.512l-3.76 2.38v2.57l2.46 1.8h-3.65v-3.63l-1.18.74 -1.18-.75v3.62h-3.65l2.46-1.81v-2.58l-3.753-2.39H54.23v-10.03h2.622l3.753-2.39v-2.58l-2.47-1.81h3.64v3.62l1.17-.75 1.17.74v-3.63h3.64l-2.47 1.8V159l3.75 2.38h2.62v10.02Z"/><path fill="#FAAE29" d="M69.07 161.63l-3.86-2.45v-2.73l2.16-1.59H64.3v3.74l-1.25-.79v8.6h8.52v-4.8Zm-12.15 9.738l3.85 2.44v2.72l-2.17 1.59h3.06v-3.75l1.24.78v-8.61h-8.521v4.79Z"/><path fill="#FFF" d="M64.31 178.13h3.06l-2.17-1.59v-2.73l3.85-2.45h2.52v-4.8h-8.52v8.6l1.24-.79Zm-3.54-18.95l-3.86 2.44h-2.53v4.79h8.521v-8.61l-1.25.79v-3.75h-3.07l2.16 1.58Z"/><path fill="#383739" d="M68.809 162.538h1.88v7.92h-1.89l-5.81 3.68 -5.81-3.69h-1.89v-7.93h1.88l5.81-3.69 .03.02Z"/><path fill="#CA3745" d="M68.768 162.681l-5.77-3.67 -5.77 3.66h-1.78v7.63h1.77l5.76 3.66 5.76-3.66h1.78v-7.64h-1.76Z"/><path fill="#383739" d="M64.52 162.842v.52h.66v1.06h-1.73v-2.65h3.9v1.84h1.89v2.7h-1.98v-1.06h.92v-.59h-1.24l-2.98 1.81 2.97 1.81h1.23v-.59h-.93v-1.06h1.98v2.7h-1.9v1.84H63.4v-2.65h1.72v1.06h-.67v.53h1.8v-1.02l-3.33-2.03 -3.33 2.02v1.01h1.8v-.53h-.67v-1.06h1.72v2.64h-3.91v-1.85h-1.9v-2.71h1.98v1.06h-.93v.58h1.23l2.97-1.82 -2.98-1.82h-1.24v.58h.92v1.05H56.6v-2.71h1.89v-1.85h3.9v2.64h-1.73v-1.06h.66v-.53h-1.81v1.01l3.32 2.02 3.32-2.03v-1.02Z"/><path fill="#FFF" d="M57.631 167.589h.92v-.78h-1.7v2.41h1.89v1.84h3.62v-2.37h-1.44v.77h.66v.81h-2.09v-1.24l3.47-2.12 3.47 2.11v1.23h-2.09v-.82H65v-.78h-1.44V171h3.62v-1.85h1.89v-2.42h-1.7v.77h.92v.86h-1.42l-3.22-1.96 3.21-1.96h1.41v.86h-.93v.77h1.69v-2.42h-1.9v-1.85H63.5v2.36h1.43v-.78h-.67v-.82h2.08v1.23l-3.47 2.11 -3.47-2.12v-1.24h2.08v.81h-.67v.77h1.43v-2.37h-3.63v1.84h-1.9V166h1.69v-.78h-.93v-.87h1.41l3.21 1.95 -3.22 1.95h-1.42Z"/><path fill="#383739" d="M75.99 167.12v1.38h1.68v-1.39h1.66v3.92h-1.67v-1.39h-1.69v1.38H74.3v-3.93Zm-5.97 5.2v1.38h1.68v-1.39h1.66v3.92h-1.67v-1.39H70v1.38h-1.67v-3.93Zm5.97-6.47v-1.39h1.68v1.38h1.66v-3.92h-1.67v1.38h-1.69v-1.39H74.3v3.92Zm-26 1.25v1.38H48.3v-1.39h-1.67v3.92h1.66v-1.39h1.68V171h1.66v-3.93Zm0-1.26v-1.39H48.3v1.38h-1.67v-3.92h1.66v1.38h1.68v-1.39h1.66v3.92Zm20.02-5.21v-1.39h1.68v1.38h1.66v-3.92h-1.67v1.38h-1.69v-1.39h-1.67v3.92Zm-14.06 11.66v1.38h-1.69v-1.39h-1.67v3.92h1.66v-1.39h1.68v1.38h1.66v-3.93Zm0-11.67v-1.39h-1.69v1.38h-1.67v-3.92h1.66v1.38h1.68v-1.39h1.66v3.92Z"/><path fill="#CA3745" d="M74.472 167.27v3.63h1.38v-1.39h1.96v1.38h1.38v-3.64H77.8v1.38h-1.97v-1.39Zm-5.97 5.2v3.63h1.38v-1.39h1.96v1.38h1.38v-3.64h-1.39v1.38h-1.97v-1.39Zm5.97-6.75v-3.64h1.38v1.38h1.96v-1.39h1.38v3.63H77.8v-1.39h-1.97v1.38Zm-22.95 1.54v3.63h-1.39v-1.39h-1.97v1.38h-1.39v-3.64h1.38v1.38h1.96v-1.39Zm0-1.55v-3.64h-1.39v1.38h-1.97v-1.39h-1.39v3.63h1.38v-1.39h1.96v1.38Zm16.97-5.21v-3.64h1.38v1.38h1.96v-1.39h1.38v3.63h-1.39v-1.39h-1.97v1.38Zm-11.01 11.95v3.63h-1.39v-1.39h-1.97v1.38h-1.39v-3.64h1.38v1.38h1.96v-1.39Zm0-11.96v-3.64h-1.39v1.38h-1.97v-1.39h-1.39v3.63h1.38v-1.39h1.96v1.38Z"/><path fill="#383739" d="M79.9 160.89l-5.54-2.98v2.97Z"/><path d="M46.093 172.1l5.53 2.97v-2.98Zm0-11.21l5.53-2.98v2.97Z"/><path fill="#383739" d="M79.9 172.1l-5.54 2.97v-2.98Z"/><path fill="#FAAE29" d="M74.516 160.75v-2.6l4.82 2.59Zm-23.04 11.49v2.59l-4.823-2.6Z"/><path fill="#FFF" d="M51.483 160.75v-2.6l-4.823 2.59Zm23.03 11.49v2.59l4.82-2.6Z"/><g fill="#FAAE29"><path d="M40.38 177.442c.26 1.13 1.17 1.99 1.38 3.17 .43-1.23.82-2.26.53-3.61 -.22-.97-1.03-1.65-1.12-2.64 -.89.79-1.08 1.91-.81 3.06Zm-.23 4.75c.74 1.02 1.78 1.81 2.93 2.33 -.23-.9.19-1.58.66-2.29 .56-.86.84-1.71.38-2.69 -.22.51-.51.94-.85 1.37 -.51.68-.84 1.29-.91 2.17 -.58-.43-.84-1.08-1.15-1.7 -.48-.9-1.24-1.64-2.12-2.13 .23 1 .41 2.05 1.03 2.9Zm4.19 3.05c-.16.56-.3 1.13-.27 1.72 -.5-.54-1.15-.94-1.74-1.37 -.8-.65-1.73-1.1-2.38-1.92 .09 1.2.61 2.19 1.59 2.92 1.03.77 2.28 1.19 3.311 2 -.16-1.1.25-1.98.59-2.99 .28-.97 0-1.95-.65-2.68 0 .81-.25 1.51-.48 2.28Zm2.32 3.71c.21.83.81 1.51 1.22 2.25 -1.1-.35-2.07-.94-3.064-1.5 -1.19-.65-2.47-1.06-3.55-1.91 .53 1.97 1.85 3.12 3.78 3.7 1.32.39 2.43.2 4.04.84 -.19-1.09-.51-2.26-1.03-3.24 -.4-.71-.85-1.41-1.09-2.19 -.36.64-.53 1.29-.34 2.02Zm4.04 3.02l0 0c.37.64.88 1.2 1.49 1.62 -1.561.09-2.817-.89-4.34-.94 -.94-.03-1.84.26-2.8.17 1.13.76 2.32 1.43 3.71 1.61 1.8.23 3.46-.22 5.44-.05 -.93-.66-1.4-1.54-1.98-2.48 -.76-1.18-1.47-2.02-2.93-2.21 .58.66.93 1.47 1.37 2.23Zm5.54 2.59c-2.75.46-5.39 1.07-8.2 1.1 3.14 1.09 6.1 1.29 9.22.16 1.68-.62 2.97-.94 4.25-.85 1.85.13 4.12.86 6.62 3.5l.98-.79c-3.59-3.2-8.28-3.92-12.884-3.14Z"/><path d="M85.63 177.442c-.27 1.13-1.17 1.99-1.39 3.17 -.44-1.23-.83-2.26-.54-3.61 .21-.97 1.02-1.65 1.11-2.64 .88.79 1.07 1.91.8 3.06Zm.22 4.75c-.75 1.02-1.79 1.81-2.94 2.33 .22-.9-.2-1.58-.67-2.29 -.57-.86-.85-1.71-.39-2.69 .21.51.5.94.84 1.37 .5.68.83 1.29.91 2.17 .58-.43.83-1.08 1.14-1.7 .47-.9 1.23-1.64 2.11-2.13 -.24 1-.42 2.05-1.04 2.9Zm-4.2 3.05c.16.56.29 1.13.26 1.72 .49-.54 1.15-.94 1.73-1.37 .79-.65 1.72-1.1 2.37-1.92 -.1 1.2-.62 2.19-1.6 2.92 -1.04.77-2.29 1.19-3.32 2 .15-1.1-.26-1.98-.6-2.99 -.29-.97-.01-1.95.64-2.68 -.01.81.24 1.51.47 2.28Zm-2.33 3.71c-.22.83-.82 1.51-1.22 2.25 1.1-.35 2.07-.94 3.06-1.5 1.18-.65 2.47-1.06 3.54-1.91 -.54 1.97-1.86 3.12-3.79 3.7 -1.33.39-2.44.2-4.05.84 .18-1.09.5-2.26 1.02-3.24 .39-.71.84-1.41 1.08-2.19 .35.64.52 1.29.33 2.02Zm-4.05 3.02h-.001c-.38.64-.89 1.19-1.5 1.625 1.56.09 2.81-.89 4.33-.94 .94-.03 1.83.26 2.79.17 -1.14.76-2.33 1.43-3.72 1.61 -1.8.23-3.46-.22-5.45-.05 .92-.66 1.39-1.54 1.97-2.48 .75-1.18 1.46-2.02 2.93-2.21 -.59.66-.93 1.47-1.38 2.23Zm-5.55 2.59c2.75.46 5.38 1.07 8.19 1.1 -3.15 1.09-6.11 1.29-9.23.16 -1.69-.62-2.98-.94-4.25-.85 -1.86.13-4.12.86-6.63 3.5l-.99-.79c3.58-3.2 8.27-3.92 12.884-3.14Z"/></g><path fill="#383739" d="M40.11 44.36l1.02.95 -5.14 4.78v-1.96l3.03-2.83 -1.03-.96 2.16-2.02 -.95-.88v1.25h-1.87v-1.51l4.19-3.91h2.1l.24 1.38h-1.23l1.32 1.23 3.31-3.03 -3.32-3.03 -1.33 1.23h1.22l-.25 1.38h-2.11l-4.2-3.91v-1.51h1.86v1.25l.94-.88 -2.17-2.02 1.02-.96 -3.04-2.84V23.6l5.13 4.78 -1.03.95 2.16 2.01 -1.86 1.73 1.22 1.14L43.86 32l5.19 4.77 -5.19 4.77 -2.37-2.21 -1.23 1.14 1.85 1.73Z"/><path fill="#FAAE29" d="M42.325 35.253l1.69-1.58 3.53 3.22 -3.54 3.22 -1.7-1.58h1.41l-.2-1.1h-1.92l-4.11 3.82v1.3h1.561v-1.46l1.3 1.22 -2.17 2.01 1.02.95 -3.26 3.03v1.55l4.92-4.59 -1.03-.96 2.16-2.02 -1.86-1.73 1.44-1.35 2.36 2.2 4.97-4.58 -4.98-4.58 -2.37 2.2 -1.45-1.35 1.85-1.73 -2.17-2.02 1.02-.96 -4.93-4.59v1.55l3.25 3.032 -1.03.95 2.16 2.01 -1.31 1.22v-1.46H37.37v1.3l4.1 3.82h1.91l.19-1.1Z"/><path fill="#383739" d="M45.85 36.84l-1.1 1.01 -.18-1.02 .17-1.02Z"/><path fill="#FAAE29" d="M44.861 36.116l-.13.72 .12.72 .77-.73Z"/><path fill="#383739" d="M38.47 37.93l1.02-1.04 -1.03-1.04h-1.27V34.4l-1.21-1.21v7.37l1.2-1.21V37.9Z"/><path fill="#FAAE29" d="M38.41 36.01l.88.89 -.89.88h-1.35v1.53l-1.07 1.06V33.4l1.064 1.06v1.53Z"/><path fill="#383739" d="M40.11 81.96l1.02.95 -5.14 4.78v-1.96l3.03-2.84 -1.03-.96 2.16-2.02 -.95-.88v1.25h-1.87v-1.51l4.19-3.91h2.1l.24 1.38h-1.23l1.32 1.23 3.31-3.03 -3.32-3.03 -1.33 1.23h1.22l-.25 1.38h-2.11l-4.2-3.91V68.6h1.86v1.25l.94-.88 -2.17-2.02 1.02-.96 -3.04-2.84v-1.96l5.13 4.78 -1.03.95 2.16 2.01 -1.86 1.72 1.22 1.14 2.36-2.21 5.19 4.77 -5.19 4.77 -2.37-2.21 -1.23 1.14 1.85 1.73Z"/><path fill="#FAAE29" d="M42.325 72.85l1.69-1.58 3.53 3.22 -3.54 3.22 -1.7-1.58h1.41l-.2-1.1h-1.92l-4.11 3.82v1.3h1.561v-1.46l1.3 1.21 -2.17 2.01 1.02.95 -3.26 3.03v1.55l4.92-4.59 -1.03-.96 2.16-2.02 -1.86-1.73 1.44-1.35 2.36 2.2 4.97-4.58 -4.98-4.58 -2.37 2.2 -1.45-1.35 1.85-1.73 -2.17-2.02 1.02-.96 -4.93-4.59v1.55l3.25 3.03 -1.03.95 2.16 2.01 -1.31 1.21v-1.46H37.37v1.3l4.1 3.82h1.91l.19-1.1Z"/><path fill="#383739" d="M45.85 74.43l-1.1 1.02 -.18-1.02 .17-1.02Z"/><path fill="#FAAE29" d="M44.861 73.715l-.13.72 .12.72 .77-.73Z"/><path fill="#383739" d="M38.47 75.535l1.02-1.04 -1.03-1.04h-1.27V72l-1.21-1.21v7.37l1.2-1.21v-1.45Z"/><path fill="#FAAE29" d="M38.41 73.613l.88.89 -.89.88h-1.35v1.53l-1.07 1.06v-6.97l1.064 1.06v1.53Z"/><path fill="#383739" d="M40.11 119.559l1.02.95 -5.14 4.78v-1.96l3.03-2.83 -1.03-.96 2.16-2.02 -.95-.88v1.25h-1.87v-1.51l4.19-3.91h2.1l.24 1.38h-1.23l1.32 1.23 3.31-3.03 -3.32-3.03 -1.33 1.23h1.22l-.25 1.38h-2.11l-4.2-3.91v-1.51h1.86v1.25l.94-.88 -2.17-2.02 1.02-.96 -3.04-2.84v-1.96l5.13 4.78 -1.03.95 2.16 2.01 -1.86 1.73 1.22 1.14 2.36-2.21 5.19 4.77 -5.19 4.77 -2.37-2.21 -1.23 1.14 1.85 1.73Z"/><path fill="#FAAE29" d="M42.325 110.45l1.69-1.58 3.53 3.22 -3.54 3.22 -1.7-1.58h1.41l-.2-1.1h-1.92l-4.11 3.82v1.3h1.561v-1.46l1.3 1.22 -2.17 2.01 1.02.95 -3.26 3.03v1.55l4.92-4.59 -1.03-.96 2.16-2.02 -1.86-1.73 1.44-1.35 2.36 2.2 4.97-4.58 -4.98-4.58 -2.37 2.2 -1.45-1.35 1.85-1.73 -2.17-2.02 1.02-.96 -4.93-4.59v1.55l3.25 3.03 -1.03.95 2.16 2.01 -1.31 1.22v-1.46H37.37v1.3l4.1 3.82h1.91l.19-1.1Z"/><path fill="#383739" d="M45.85 112.038l-1.1 1.01 -.18-1.02 .17-1.02Z"/><path fill="#FAAE29" d="M44.861 111.31l-.13.72 .12.72 .77-.73Z"/><path fill="#383739" d="M38.47 113.133l1.02-1.03 -1.03-1.04h-1.27v-1.45l-1.21-1.21v7.37l1.2-1.21v-1.45Z"/><path fill="#FAAE29" d="M38.41 111.212l.88.89 -.89.88h-1.35v1.53l-1.07 1.06v-6.97l1.064 1.06v1.53Z"/><path fill="#383739" d="M40.11 157.15l1.02.95 -5.14 4.78v-1.96l3.03-2.83 -1.03-.96 2.16-2.02 -.95-.88v1.25h-1.87v-1.51l4.19-3.91h2.1l.24 1.38h-1.23l1.32 1.23 3.31-3.03 -3.32-3.03 -1.33 1.23h1.22l-.25 1.38h-2.11l-4.2-3.91v-1.51h1.86v1.25l.94-.88 -2.17-2.02 1.02-.96 -3.04-2.84v-1.96l5.13 4.78 -1.03.95 2.16 2.01 -1.86 1.72 1.22 1.14 2.36-2.21 5.19 4.77 -5.19 4.77 -2.37-2.21 -1.23 1.14 1.85 1.73Z"/><path fill="#FAAE29" d="M42.325 148.05l1.69-1.58 3.53 3.22 -3.54 3.22 -1.7-1.58h1.41l-.2-1.1h-1.92l-4.11 3.82v1.3h1.561v-1.46l1.3 1.21 -2.17 2.01 1.02.95 -3.26 3.03v1.55l4.92-4.59 -1.03-.96 2.16-2.02 -1.86-1.73 1.44-1.35 2.36 2.2 4.97-4.58 -4.98-4.58 -2.37 2.2 -1.45-1.35 1.85-1.73 -2.17-2.02 1.02-.96 -4.93-4.59v1.55l3.25 3.03 -1.03.95 2.16 2.01 -1.31 1.21v-1.46H37.37v1.3l4.1 3.82h1.91l.19-1.1Z"/><path fill="#383739" d="M45.85 149.637l-1.1 1.02 -.18-1.02 .17-1.02Z"/><path fill="#FAAE29" d="M44.861 148.91l-.13.72 .12.72 .77-.73Z"/><path fill="#383739" d="M38.47 150.73l1.02-1.04 -1.03-1.04h-1.27v-1.45l-1.21-1.21v7.375l1.2-1.21v-1.45Z"/><path fill="#FAAE29" d="M38.41 148.811l.88.89 -.89.88h-1.35v1.53l-1.07 1.06v-6.98l1.064 1.06v1.53Z"/><path fill="#383739" d="M85.888 44.36l-1.03.95 5.13 4.78v-1.96l-3.04-2.83 1.02-.96 -2.17-2.02 .94-.88v1.25h1.86v-1.51l-4.2-3.91h-2.11l-.25 1.38h1.22l-1.33 1.23 -3.32-3.03 3.31-3.03 1.32 1.23H82l.24 1.38h2.1l4.19-3.91v-1.51h-1.87v1.25l-.95-.88 2.16-2.02 -1.03-.96 3.03-2.84V23.6l-5.14 4.78 1.02.95 -2.17 2.01 1.85 1.73 -1.23 1.14L81.83 32l-5.2 4.77 5.19 4.77 2.36-2.21 1.22 1.14 -1.86 1.73Z"/><path fill="#FAAE29" d="M83.67 35.253l-1.7-1.58 -3.54 3.22 3.53 3.22 1.69-1.58h-1.42l.19-1.1h1.91l4.1 3.82v1.3h-1.56v-1.46l-1.31 1.22 2.16 2.01 -1.03.95 3.25 3.03v1.55l-4.93-4.59 1.02-.96 -2.17-2.02 1.85-1.73 -1.45-1.35 -2.37 2.2 -4.98-4.58 4.97-4.58 2.36 2.2 1.44-1.35 -1.86-1.73 2.16-2.02 -1.03-.96 4.92-4.59v1.55l-3.26 3.032 1.02.95 -2.17 2.01 1.3 1.22v-1.46h1.56v1.3l-4.11 3.82h-1.92l-.2-1.1Z"/><path fill="#383739" d="M80.145 36.84l1.09 1.01 .17-1.02 -.18-1.02Z"/><path fill="#FAAE29" d="M81.137 36.116l.12.72 -.13.72 -.78-.73Z"/><path fill="#383739" d="M87.52 37.93l-1.03-1.04 1.02-1.04h1.26V34.4l1.2-1.21v7.37l-1.21-1.21V37.9Z"/><path fill="#FAAE29" d="M87.588 36.01l-.89.89 .88.88h1.34v1.53l1.06 1.06V33.4l-1.07 1.06v1.53Z"/><path fill="#383739" d="M85.888 81.96l-1.03.95 5.13 4.78v-1.96l-3.04-2.84 1.02-.96 -2.17-2.02 .94-.88v1.25h1.86v-1.51l-4.2-3.91h-2.11l-.25 1.38h1.22l-1.33 1.23 -3.32-3.03 3.31-3.03 1.32 1.23H82l.24 1.38h2.1l4.19-3.91V68.6h-1.87v1.25l-.95-.88 2.16-2.02 -1.03-.96 3.03-2.84v-1.96l-5.14 4.78 1.02.95 -2.17 2.01 1.85 1.72 -1.23 1.14 -2.37-2.21 -5.2 4.77 5.19 4.77 2.36-2.21 1.22 1.14 -1.86 1.73Z"/><path fill="#FAAE29" d="M83.67 72.85l-1.7-1.58 -3.54 3.22 3.53 3.22 1.69-1.58h-1.42l.19-1.1h1.91l4.1 3.82v1.3h-1.56v-1.46l-1.31 1.21 2.16 2.01 -1.03.95 3.25 3.03v1.55l-4.93-4.59 1.02-.96 -2.17-2.02 1.85-1.73 -1.45-1.35 -2.37 2.2 -4.98-4.58 4.97-4.58 2.36 2.2 1.44-1.35 -1.86-1.73 2.16-2.02 -1.03-.96 4.92-4.59v1.55l-3.26 3.03 1.02.95 -2.17 2.01 1.3 1.21v-1.46h1.56v1.3l-4.11 3.82h-1.92l-.2-1.1Z"/><path fill="#383739" d="M80.145 74.43l1.09 1.02 .17-1.02 -.18-1.02Z"/><path fill="#FAAE29" d="M81.137 73.715l.12.72 -.13.72 -.78-.73Z"/><path fill="#383739" d="M87.52 75.535l-1.03-1.04 1.02-1.04h1.26V72l1.2-1.21v7.37l-1.21-1.21v-1.45Z"/><path fill="#FAAE29" d="M87.588 73.613l-.89.89 .88.88h1.34v1.53l1.06 1.06v-6.97l-1.07 1.06v1.53Z"/><path fill="#383739" d="M85.888 119.559l-1.03.95 5.13 4.78v-1.96l-3.04-2.83 1.02-.96 -2.17-2.02 .94-.88v1.25h1.86v-1.51l-4.2-3.91h-2.11l-.25 1.38h1.22l-1.33 1.23 -3.32-3.03 3.31-3.03 1.32 1.23H82l.24 1.38h2.1l4.19-3.91v-1.51h-1.87v1.25l-.95-.88 2.16-2.02 -1.03-.96 3.03-2.84v-1.96l-5.14 4.78 1.02.95 -2.17 2.01 1.85 1.73 -1.23 1.14 -2.37-2.21 -5.2 4.77 5.19 4.77 2.36-2.21 1.22 1.14 -1.86 1.73Z"/><path fill="#FAAE29" d="M83.67 110.45l-1.7-1.58 -3.54 3.22 3.53 3.22 1.69-1.58h-1.42l.19-1.1h1.91l4.1 3.82v1.3h-1.56v-1.46l-1.31 1.22 2.16 2.01 -1.03.95 3.25 3.03v1.55l-4.93-4.59 1.02-.96 -2.17-2.02 1.85-1.73 -1.45-1.35 -2.37 2.2 -4.98-4.58 4.97-4.58 2.36 2.2 1.44-1.35 -1.86-1.73 2.16-2.02 -1.03-.96 4.92-4.59v1.55l-3.26 3.03 1.02.95 -2.17 2.01 1.3 1.22v-1.46h1.56v1.3l-4.11 3.82h-1.92l-.2-1.1Z"/><path fill="#383739" d="M80.145 112.038l1.09 1.01 .17-1.02 -.18-1.02Z"/><path fill="#FAAE29" d="M81.137 111.31l.12.72 -.13.72 -.78-.73Z"/><path fill="#383739" d="M87.528 113.133l-1.03-1.03 1.02-1.04h1.26v-1.45l1.2-1.21v7.37l-1.21-1.21v-1.45Z"/><path fill="#FAAE29" d="M87.588 111.212l-.89.89 .88.88h1.34v1.53l1.06 1.06v-6.97l-1.07 1.06v1.53Z"/><path fill="#383739" d="M85.888 157.15l-1.03.95 5.13 4.78v-1.96l-3.04-2.83 1.02-.96 -2.17-2.02 .94-.88v1.25h1.86v-1.51l-4.2-3.91h-2.11l-.25 1.38h1.22l-1.33 1.23 -3.32-3.03 3.31-3.03 1.32 1.23H82l.24 1.38h2.1l4.19-3.91v-1.51h-1.87v1.25l-.95-.88 2.16-2.02 -1.03-.96 3.03-2.84v-1.96l-5.14 4.78 1.02.95 -2.17 2.01 1.85 1.72 -1.23 1.14 -2.37-2.21 -5.2 4.77 5.19 4.77 2.36-2.21 1.22 1.14 -1.86 1.73Z"/><path fill="#FAAE29" d="M83.67 148.05l-1.7-1.58 -3.54 3.22 3.53 3.22 1.69-1.58h-1.42l.19-1.1h1.91l4.1 3.82v1.3h-1.56v-1.46l-1.31 1.21 2.16 2.01 -1.03.95 3.25 3.03v1.55l-4.93-4.59 1.02-.96 -2.17-2.02 1.85-1.73 -1.45-1.35 -2.37 2.2 -4.98-4.58 4.97-4.58 2.36 2.2 1.44-1.35 -1.86-1.73 2.16-2.02 -1.03-.96 4.92-4.59v1.55l-3.26 3.03 1.02.95 -2.17 2.01 1.3 1.21v-1.46h1.56v1.3l-4.11 3.82h-1.92l-.2-1.1Z"/><path fill="#383739" d="M80.145 149.637l1.09 1.02 .17-1.02 -.18-1.02Z"/><path fill="#FAAE29" d="M81.137 148.91l.12.72 -.13.72 -.78-.73Z"/><path fill="#383739" d="M87.528 150.73l-1.03-1.04 1.02-1.04h1.26v-1.45l1.2-1.21v7.375l-1.21-1.21v-1.45Z"/><path fill="#FAAE29" d="M87.588 148.811l-.89.89 .88.88h1.34v1.53l1.06 1.06v-6.98l-1.07 1.06v1.53Z"/><path fill="#383739" d="M39.234 5.06v1.258h-1.87V4.813L41.554.9h2.1l.24 1.38h-1.23l1.32 1.23L47.29.48h1.86l-5.19 4.77 -2.37-2.21 -1.23 1.14 1.85 1.73 -2.17 2.01 1.02.95 -5.14 4.785v-1.96l3.03-2.84 -1.03-.96 2.16-2.02Z"/><path fill="#FAAE29" d="M39.254 8.91l-3.26 3.03v1.55l4.92-4.59 -1.03-.96 2.16-2.02 -1.86-1.73 1.44-1.35 2.36 2.203L48.95.46h-1.44l-3.54 3.226 -1.7-1.576h1.41l-.2-1.1h-1.92l-4.11 3.82v1.3h1.561V4.67l1.3 1.21 -2.17 2.01Z"/><path fill="#383739" d="M45.786.5l-1.03.95 -.17-.96Z"/><path fill="#FAAE29" d="M44.746.5l.11.661 .71-.661Z"/><path fill="#383739" d="M39.49.5h-3.5v3.68l1.2-1.21V1.52h1.26L39.47.48Z"/><path fill="#FAAE29" d="M36 3.98V.49h3.29l0 0 -.89.888h-1.35V2.9Z"/><path fill="#383739" d="M86.76 5.06v1.258h1.86V4.813L84.42.9h-2.11l-.25 1.38h1.22l-1.33 1.23L78.63.48h-1.87l5.19 4.77 2.36-2.21 1.22 1.14 -1.86 1.73 2.16 2.01 -1.03.95 5.13 4.785v-1.96l-3.04-2.84 1.02-.96 -2.17-2.02Z"/><path fill="#FAAE29" d="M86.74 8.91l3.25 3.03v1.55L85.06 8.9l1.02-.96 -2.17-2.02 1.85-1.73 -1.45-1.35 -2.37 2.203L76.96.46h1.43l3.53 3.226 1.69-1.576h-1.42l.19-1.1h1.91l4.1 3.82v1.3h-1.56V4.67l-1.31 1.21 2.16 2.01Z"/><path fill="#383739" d="M80.213.5l1.02.95 .16-.96Z"/><path fill="#FAAE29" d="M81.253.5l-.12.661 -.71-.661Z"/><path fill="#383739" d="M86.501.5h3.49v3.68l-1.21-1.21V1.52h-1.27L86.48.48Z"/><path fill="#FAAE29" d="M90 3.98V.49h-3.3l-.01 0 .88.888h1.34V2.9Z"/></svg>