<svg viewBox="0 0 301 151" xmlns="http://www.w3.org/2000/svg" xmlns:xlink="http://www.w3.org/1999/xlink"><defs><mask id="a"><use fill="#FFF" xlink:href="#b"/></mask><path id="b" d="M.5.5h300v150H.5Z"/></defs><use fill="#215B33" xlink:href="#b"/><path fill="#0051BA" d="M.5 150.5V.5h300"/><path mask="url(#a)" fill="none" fill-rule="evenodd" stroke="#FCD116" stroke-width="15" d="M300.5.5l-300 150"/><path fill="#FFF" d="M9.12 15.48l8.81 6.4 -3.37 10.36 8.81-6.41 8.81 6.4 -3.37-10.37 8.81-6.41h-10.9L23.35 5.08 19.98 15.45Zm59.22 0l8.81 6.4 -3.37 10.36 8.81-6.41 8.81 6.4 -3.37-10.37 8.81-6.41h-10.9L82.57 5.08 79.2 15.45ZM38.72 40.86l8.817 6.4 -3.37 10.36 8.817-6.41 8.817 6.4 -3.37-10.37 8.81-6.41h-10.9l-3.37-10.37 -3.37 10.36ZM9.1 66.24l8.81 6.4L14.54 83l8.81-6.41 8.81 6.4 -3.37-10.37 8.81-6.41H26.7l-3.37-10.37 -3.37 10.36Zm59.22 0l8.81 6.4L73.76 83l8.81-6.41 8.81 6.4 -3.37-10.37 8.81-6.41h-10.9l-3.37-10.37 -3.37 10.36Z"/></svg>