<svg viewBox="0 0 301 201" xmlns="http://www.w3.org/2000/svg"><path d="M.5.5h300v200H.5Z"/><path fill="#FFF" d="M.5.5h300v68.75H.5Z"/><path fill="#007168" d="M.5.5h300V63H.5Z"/><path fill="#FFF" d="M.5 131.666h300v68.833H.5Z"/><path fill="#FCE100" d="M.5 138h300v62.5H.5Z"/><path fill="#D21034" d="M.5.5v200l131.25-100Z"/><path fill="#FCE100" d="M68.62 137.995l-24.39-17.854 -24.36 17.85 9.44-28.708L4.8 91.63l30.22.11 9.2-28.762 9.23 28.777 30.19-.14 -24.515 17.67Z"/><g stroke-linecap="round" stroke-width=".417" stroke="#000" fill="#FFF" stroke-linejoin="round"><path d="M23.07 117.976h17.56c1.41 1.58 4.56 2.23 7.57-.02 5.506-3.02 16.158.01 16.158.01l2.09-2.23 -5.12-16.78 -1.84-1.97s-3.94-2.36-11.41-1.58c-7.48.78-10.1-.27-10.1-.27s-6.56.78-8.39 1.7c-.21.16-2.1 2.09-2.1 2.09l-4.46 19.009Z"/><path fill="none" fill-rule="evenodd" stroke="#000" stroke-linecap="round" stroke-linejoin="round" stroke-width=".417" d="M26.61 113.65s16.78-2.1 21.63 4.32c-2.74 1.87-5.16 2.02-7.74.13 .41-.69 6.03-6.56 20.31-4.59"/><path fill="#000" d="M44.574 96.87l-.14 18.48m15.07-18.23l3.14 14.68M29.78 96.88l-1.75 7.57m-16.39 15.51l4.131 4.84c.48.28.91.27 1.34 0l6.122-7.35 2.57-3.19c.39-.48.52-1 .49-1.47l4.916-4.37c.4.02.64.07 1.04.1 -.48-.13-.83-.36-.45-.875l1.1-.86 .85 1.1s-1.23 1.59-1.35 1.59h-1.35l-2.58 2.32 1.12.99 1.69 4.63 2.08-1.47 -1.35-4.78 2.939-3.19 -1.11-1.72 .73-.98s10.171 6.4 14.09 4.69c.1.03.23-4.57.23-4.57s-10.53-1.11-10.78-3.19c-.25-2.09 2.32-2.33 2.32-2.33l-1.11-1.6 .24-.86 1.83 2.32 4.16-3.56 24.49 27.91c1.33-.55 1.62-.87 1.71-2.21 -.04-.04-24-27.56-24-27.56l1.83-1.96c.36-.41.48-.59.49-1.23l2.81-2.45c.84.29 1.38.79 1.83 1.46l7.74-6.57c.2.2.82.4 1.24.17l12.8-12.29L62.53 81.29l-.49-.37c0-.41.5-.51 0-1.23 -.55-.65-1.35.61-1.47.61 -.13 0-2.02-.67-2.44-1.52l-.14 2.25 -3.56 3.3 -2.7-.13 -3.92 3.79 -.49 1.46 .61 1.22s-2.09 1.83-2.09 1.71c0-.13-.43-.55-.44-.6l1.78-1.61 .24-1.11 -.6-.94c-.19.13-2.47 2.52-2.59 2.27l-6.62-7.47 .36-1.35 -4.17-4.54c-1.52-.53-3.92-.62-4.41 2.69 -.39.77-3.56.12-3.56.12l-1.72.36 -9.673 13.71 5.388 6.49 11.02-13.96 .32-3.96 2.31 2.58c.77.09 1.5.1 2.2-.25l6.52 7.28 -1.09 1.06c.36.4.62.66.98 1.07 .36-.25.71-.54 1.08-.79 .12.16.32.47.45.63 -.55.29-.94.69-1.48.99 -.88-.58-1.73-1.29-1.66-2.42l-3.68 3.06 -.13.61 -10.898 9.06 -.98.12 -.25 2.81 7.102-5.88v-.86l.73.61 5.51-4.41s.36.49.24.49c-.13 0-4.9 4.4-4.9 4.4l-.13.49 -.86.73 -.49-.37 -6.62 5.87h-.98l-3.68 3.67c-.95.08-1.77.18-2.58.73l-6.59 5.8Z"/></g></svg>