<svg viewBox="0 0 301 189" xmlns="http://www.w3.org/2000/svg" xmlns:xlink="http://www.w3.org/1999/xlink"><defs><radialGradient id="a" fr="0%" fx="7.626%" fy="42.568%" cx="7.626%" cy="42.568%" r="73.824%" gradientTransform="matrix(.81786 0 0 1 .014 0)"><stop offset="25.92%" stop-color="#4C0505" stop-opacity="0"/><stop offset="100%" stop-color="#4C0505"/></radialGradient><radialGradient id="b" fr="0%" fx="50.04%" fy="49.94%" cx="50.04%" cy="49.94%" r="10.77%"><stop offset="0%" stop-color="#FFF"/><stop offset="100%" stop-color="#FFF" stop-opacity="0"/></radialGradient><path id="d" d="M141.91 99.331s-1.25.23-1.51-1.74c-.19-1.4.68-1.6.68-1.6l2.88.48 .01 2.57 -2.09.26Z"/><path id="e" d="M141.099 95.99s1.84-.14 2.8-.26l.4 1.78 -2.22.13s-.16-1.62-.99-1.67Z"/><path id="f" d="M140.712 94.642s2.36-.58 2.66 2.02c.07.68-.3 2.24-1.46 2.66l4.33-.46 -.4-4.69 -1.47.12s-3.1.1-3.69.33Z"/><path id="c" d="M141.665 100.18s-1.93.2-2.47-2.45c-.58-2.84 1.65-3.15 1.65-3.15s2.53-.25 4.1-.29l.7 5.61 -4.01.26Z"/><path id="g" d="M140.16 76.88l2.75-.16 .28 2.83 -2.41.1s.77-2.28-.64-2.8Z"/><path id="h" d="M155.38 79.93c2.08-.34 2.06-3.15.63-4.28 -4.85-.18-11.22-.05-15.83.3 .52-.02 1.98.11 2.14 2.03 .07.89-.37 1.71-.96 2.18 -.58.45-1.23.45-1.23.45 .07.03.67 0 1.12-.03 .23-.02.79-.09.95-.11 6.56-.87 13.12-.57 13.12-.57l.02 0v-.01Z"/></defs><path fill="#4997D0" d="M.35.78h300v187.5H.35Z"/><path fill="#FFF" d="M100.35.78h100v187.5h-100Z"/><path fill="none" fill-rule="evenodd" stroke="#24420E" stroke-width=".017" d="M141.63 118.74c.83-.13 1.31-.36 1.88-.56m.69-1.27c.42.44.75.92.93 1.44m-2.54-1.59c.43.41.74.84.98 1.29m-15.5-42.69c-.33.5-.97.85-1.5 1.07m-.11-.07c.01-.43-.08-.95.01-1.38m-.62 1.56c.03.11.13.43.21.63m.63.28c-.12.02-.48.08-.64.1m-1.24-.28c-.01.78.08 1.73.16 2.44m-.56-.31c.14.23.29.47.48.58M123.45 82c.15.29.29.66.4 1.23m1.16-1.45c-.13.06-.38.29-.61.48m.49 1.37c-.31.27-.69.47-1.08.66m-1.2 12.628c.36.59.75 1.11 1.23 1.46m.18.52v0c-.33-.04-.64-.15-.92-.31m1.37 2.62l.52.3m-.14 1.08c.39.25.78.71 1.17 1.2m-.46.89c.43.09.77.2 1.01.33m-.34.75l.66.02m.37-1.69c-.04.47-.08.92-.16 1.32m.31.49l.13-.52m1.46 1.87l-.05 1.01m12.25 8.72l-.37.49m-.76-1.23l-.22-.58"/><g stroke-width=".017" fill="#67923D" stroke="#24420E"><path d="M127.331 104.41c-.88-1.97-.43-6.753-.07-7.36 2.07 4.06 1.38 7.41.06 7.35Z"/><g fill="#406325"><path d="M127.35 104.36c1.32.06 2-3.25-.09-7.31 .37 3.85.37 6.97.08 7.3Z"/><path d="M152.26 121.07c-.25-.4-.66-.64-1.03-.83 -2.42-1.27-4.82-1.83-7.54-2.27 -.63-.11-1.26-.7-1.91-1 -1.56-.74-3.28-1.03-4.79-1.79 -.11-.05-.49-.28-.66-.49 -.6-.7-1.69-.91-2.36-1.56 -2.61-2.46-5.37-4.73-6.81-7.99 -1.75-3.97-3.91-8.06-3.62-12.58 .19-2.86-.24-5.74.46-8.46 1.03-4.03 2.37-8.02 4.81-11.35l-.41.25c-2.46 3.33-3.79 7.31-4.83 11.34 -.71 2.71-.28 5.59-.47 8.45 -.3 4.51 1.87 8.6 3.61 12.58 1.43 3.24 4.21 5.5 6.8 7.98 .67.63 1.75.84 2.35 1.55 .17.19.57.43.65.48 1.5.75 3.23 1.04 4.78 1.76 .64.31 1.27.89 1.9.99 2.72.43 5.12 1.01 7.53 2.26 .38.19.77.43 1.02.83l.42-.26"/></g><path d="M141.664 118.596c-2.22.11-6.45 2.9-6.84 3.56 4.71.03 7.506-2.29 6.83-3.57Zm2.33-1.34c-2.14-1.71-4.44-7.4-4.39-8.29 4.72 3.38 5.91 7.58 4.38 8.28Z"/><path d="M142.417 117.27c-2.18-1.33-4.94-6.29-4.99-7.11 4.75 2.56 6.31 6.29 4.98 7.11Zm-4.87-2.12c.3-2.45-1.78-7.58-2.37-8.12 -.93 5.14.93 8.61 2.37 8.11Zm-8.54-7.59c-.72-1.77-.2-6.04.14-6.57 1.72 3.65 1.02 6.63-.15 6.56Z"/><path fill="#406325" d="M130.846 110.61c-1.4-1.71-6.06-3.54-6.79-3.49 2.77 3.77 6.21 4.71 6.78 3.48Zm-7.63-16.56c-.36-2.52-3.86-7.1-4.61-7.49 .47 5.36 3.29 8.34 4.6 7.49Zm2.62 10.71c-1.56-1.15-5.93-1.67-6.55-1.48 3.16 2.59 6.31 2.64 6.54 1.47v0Zm-2.93-7.76c-.91-1.78-4.63-4.22-5.28-4.29 1.72 3.87 4.55 5.29 5.27 4.28Zm.85-14.86c.28-2.37-1.73-7.33-2.3-7.87 -.9 4.97.91 8.33 2.29 7.86Z"/><path d="M124.73 83.55c1.12-2.08 5.744-4.91 6.55-4.98 -2.12 4.55-5.64 6.19-6.56 4.97Z"/><path d="M124.958 81.81c.67-2.28 4.64-6.02 5.42-6.27 -1.17 4.9-4.28 7.244-5.43 6.26Z"/><g fill="#406325"><path d="M125.163 77.49c.83-2.03.23-7.009-.17-7.63 -2.01 4.22-1.2 7.7.16 7.63Z"/><path d="M126.73 75.1c.98-1.5 1.3-5.53 1.08-6.09 -2.27 3.03-2.18 5.92-1.09 6.08Zm1.85-1.92c1.375-1.09 2.88-4.85 2.83-5.45 -3.05 2.17-3.82 4.95-2.84 5.44Zm-5.02 13.5c.03.27-.31-2.56-3.15-5.73 .12 4.63 1.95 6.381 3.14 5.72Z"/></g><path d="M133.646 112.8c-1.56-1.93-2.51-7.46-2.28-8.238 3.52 3.91 3.76 7.88 2.27 8.238Z"/><path fill="#406325" d="M133.74 113.49c-1.93-1.43-7.31-2.11-8.06-1.86 3.92 3.23 7.77 3.29 8.05 1.85Z"/><path d="M122.982 86.38c1.27-1.46 5.45-2.86 6.125-2.77 -2.52 3.25-5.61 3.91-6.125 2.77Z"/><g fill="#406325"><path d="M137.523 115.126c-1.42.49-3.27-2.95-2.36-8.09 .87 4.36 1.93 7.83 2.35 8.08Zm4.15 3.48c.66 1.27-2.1 3.57-6.81 3.53 3.73-1.53 6.63-3.09 6.8-3.54Zm2.3-1.4c1.52-.71.34-4.86-4.38-8.24 2.68 4.12 4.51 7.68 4.37 8.24Z"/><path d="M142.4 117.238c1.33-.84-.22-4.52-4.97-7.08 2.93 3.49 5.02 6.55 4.96 7.07v0Zm-13.38-9.69c1.16.06 1.86-2.9.14-6.54 .22 3.43.13 6.24-.15 6.53v0Z"/></g><path d="M130.81 110.62c-.57 1.22-3.97.28-6.77-3.49 3.4 2.13 6.32 3.59 6.76 3.48Zm-7.63-16.58c-1.32.85-4.11-2.11-4.59-7.47 2.06 4.12 4.07 7.3 4.58 7.46Zm2.63 10.732c-.24 1.16-3.34 1.12-6.52-1.48 3.35 1.06 6.16 1.66 6.52 1.47Zm-2.96-7.8c-.73 1.01-3.53-.4-5.26-4.27 2.56 2.49 4.84 4.29 5.25 4.26Zm.86-14.86c-1.39.48-3.18-2.84-2.28-7.82 .83 4.21 1.85 7.55 2.27 7.81Z"/><g fill="#406325"><path d="M124.731 83.57c.92 1.21 4.39-.41 6.51-4.98 -3.18 2.91-6.01 5.02-6.52 4.97v0Z"/><path d="M124.99 81.822c1.15.98 4.23-1.35 5.39-6.25 -2.53 3.51-4.89 6.16-5.4 6.24Z"/></g><path d="M125.132 77.479c-1.35.07-2.15-3.38-.15-7.61 -.26 4-.16 7.26.14 7.6Zm1.57-2.4c-1.09-.17-1.17-3.02 1.1-6.06 -.86 3.11-1.3 5.73-1.1 6.05Zm1.87-1.9c-.98-.52-.22-3.26 2.82-5.42 -1.73 2.7-2.92 5.05-2.83 5.41Zm-5.03 13.5c-1.19.65-3-1.1-3.13-5.73 1.59 3.65 2.68 5.56 3.12 5.72Z"/><path fill="#406325" d="M133.656 112.78c1.48-.36 1.23-4.31-2.27-8.21 1.56 4.19 2.5 7.73 2.26 8.21Z"/><path d="M133.731 113.5c-.28 1.44-4.11 1.375-8.03-1.85 4.11 1.33 7.57 2.09 8.02 1.84Z"/><g fill="#406325"><path d="M122.96 86.406c.5 1.13 3.57.47 6.09-2.78 -3.74 2.12-5.23 3.04-6.1 2.77Z"/><path d="M123.54 91.959c.64-2.62-.54-7.07-1.35-7.99 -1.48 4.82-.08 8.31 1.34 7.98Z"/></g><path d="M123.455 92.58c-1.85.41-2.71-3.77-1.28-8.47 .33 4.23.88 8.17 1.27 8.46Zm1.23 8.82c-2.16.34-6.68-1.45-7.17-1.98 4.54-.99 7.59.64 7.16 1.98Z"/><path fill="#406325" d="M124.636 101.39c.44-1.33-2.6-2.93-7.13-1.96 3.83.68 6.88 1.57 7.12 1.95Z"/><path d="M124 98.38c.25-1.75 2.7-4.94 3.23-5.21 -.35 3.73-2.33 5.81-3.24 5.2v0Z"/><path fill="#406325" d="M124.029 98.389c.9.59 2.86-1.46 3.21-5.2 -1.46 2.87-2.87 5.08-3.22 5.19Z"/><path d="M123.08 92.56c-.18-2.36 2.16-7.22 2.78-7.73 .62 4.93-1.4 8.22-2.79 7.72v0Z"/><path fill="#406325" d="M123.113 92.534c1.37.51 3.39-2.74 2.76-7.68 -1.1 4.14-2.33 7.42-2.77 7.67Z"/><path d="M123.51 95.549c0-2.378 2.64-6.95 3.3-7.381 .26 5.05-1.98 8.07-3.31 7.381Z"/><path fill="#406325" d="M123.54 95.595c1.32.69 3.53-2.31 3.27-7.36 -1.38 4.01-2.83 7.15-3.28 7.35Z"/><path d="M131.178 110.538c-1.26-1.36-2.24-5.43-2.11-6.02 2.81 2.73 3.19 5.67 2.1 6.01Z"/><path fill="#406325" d="M131.184 110.524c1.08-.34.7-3.27-2.1-6 1.37 3.03 2.25 5.628 2.09 5.99Z"/><path fill="#BA1F3E" stroke="#511124" stroke-linecap="round" stroke-linejoin="round" stroke-width=".017" d="M124.7 79.301v0c0 .18-.14.34-.33.35 -.19 0-.35-.14-.36-.33 -.01-.02-.01-.03 0-.04v0c.01-.19.17-.34.35-.33 .17 0 .31.14.32.32v0Zm2.61-1.94v0c.01.18-.14.34-.33.35 -.19.01-.35-.14-.36-.33 -.01-.02-.01-.03 0-.04v0c.01-.19.17-.34.35-.33 .17 0 .31.14.32.32Zm-1.14-1.06v0c.01.18-.14.34-.33.35 -.19.01-.35-.14-.36-.33 -.01-.02-.01-.03 0-.04v0c.01-.19.17-.34.35-.33 .17 0 .31.14.32.32v0Zm-2.78 22.31v0c.01.22-.16.4-.38.41 -.23.01-.41-.16-.42-.38 -.01-.02-.01-.03 0-.04v0c.01-.23.19-.4.41-.38 .2.01.36.17.37.37Zm.79-5v0c0 .22-.18.39-.4.39 -.23 0-.4-.18-.4-.4v0c0-.23.17-.4.39-.4s.39.17.39.39Zm4.11 11.66v0c.01.22-.16.4-.38.41 -.23.01-.41-.16-.42-.38 -.01-.02-.01-.03 0-.04v0c.01-.23.19-.4.41-.38 .2.01.36.17.37.37Zm-1.82.61v0c0 .22-.18.39-.4.39 -.23 0-.4-.18-.4-.4v0c0-.23.17-.4.39-.4s.39.17.39.39c0-.01 0 0 0 0Zm13.84 9.74v-.001c-.02.22-.21.38-.43.37 -.2-.02-.36-.18-.38-.38v0 -.001c.01-.23.2-.39.42-.38 .19.01.35.17.37.37Zm.91 2.21v0c.01.22-.16.4-.38.41 -.23.01-.41-.16-.42-.38 -.01-.02-.01-.03 0-.04v0c.01-.23.19-.4.41-.38 .2.01.36.17.37.37Z"/><path d="M125.902 102.726c-1.12-1.81-1.22-6.54-.92-7.18 2.58 3.69 2.26 7.05.91 7.17Z"/><path fill="#406325" d="M125.15 102.749c-.84-1.96-4.63-4.84-5.31-4.96 1.54 4.26 4.45 5.98 5.3 4.95Zm.73-.08c1.35-.12 1.66-3.45-.92-7.14 .83 3.7 1.18 6.77.91 7.14Z"/><path d="M125.081 102.755c-.86 1.03-3.73-.68-5.28-4.95 2.54 2.84 4.83 4.94 5.27 4.94Zm14.95 13.92c-2.65.13-7.7 3.47-8.17 4.256 5.63.04 8.97-2.74 8.16-4.256Z"/><path fill="#406325" d="M140.02 116.726c.8 1.52-2.49 4.27-8.14 4.22 4.46-1.83 7.93-3.69 8.13-4.23Z"/><path fill="none" fill-rule="evenodd" stroke="#24420E" stroke-width=".017" d="M175.7 81.709c.19.19.36.25.71.59m-2.08-5.92c-.02-.43-.2-1.13-.29-1.56m1.07.93c.01.61-.07 1.19-.34 1.72m-1.3-.17c.54.49 1.09.96 1.64 1.21m1.19.38v0c.02.62-.05 1.25-.22 1.85m.1.47l.41-.71m-.59 3.82c.43.09.87.6 1.09 1.08m.15-.41l.51-.69m.53 9.6v0c-.23.38-.49.74-.77 1.08m-1.24-.03c.24.45.48.92.81 1.25m.76 1.83c-.41.55-.87.98-1.39 1.25m.04 1.4c-.35.23-.76.92-1.16 1.47m2.63-6.31l-.67.27m-.44-2.34l.39.34m-2.91 11.68c-.27-.04-.46 0-.67.02m-.63-.61l.19.51m-2.42 1.6c-.09.58-.03 1.16.06 1.75m1.34-2.82l.32.7m1.19-.07l-.79.12m-9.64 7.89l-.29.54m3.71-1.23c-.47.05-.87-.02-1.28-.07m-1.71 1.85l-.001-.001c-.3-.12-.61-.22-.92-.3m-4.61.83c-.29.24-.63.76-.96 1.28m-.18-1.43c-.76.39-1 1.15-1.39 1.81m.87.89c-.49-.15-1.07-.39-1.67-.64m5.23-.22c-.73-.38-1.49-.34-2.23-.46m3.36-.11c-1.14-.23-2.19-.2-3.22-.05m2.43-.82l-.44-.19m-1.73 1.71l-.73-.41"/><path fill="#2CA02C" d="M175.864 102.724c-.4.25-.79.71-1.18 1.2"/><path fill="#406325" d="M173.36 105.343c.85-2.32-.01-7.77-.47-8.43 -2.08 4.8-1.05 8.59.46 8.42Z"/><path d="M173.33 105.29c-1.51.17-2.53-3.58-.44-8.37 -.16 4.43.07 8 .43 8.37Z"/><path fill="#406325" d="M148.598 121.04c.24-.4.65-.64 1.02-.83 2.41-1.27 4.81-1.83 7.53-2.27 .62-.11 1.25-.7 1.9-1 1.55-.74 3.27-1.03 4.78-1.79 .1-.05.48-.28.65-.49 .6-.7 1.68-.91 2.35-1.56 2.6-2.46 5.37-4.73 6.8-7.99 1.74-3.97 3.9-8.06 3.61-12.58 -.19-2.86.23-5.74-.47-8.46 -1.04-4.03-2.38-8.02-4.82-11.35l.41.25c2.45 3.33 3.79 7.31 4.82 11.34 .7 2.71.27 5.59.46 8.45 .29 4.51-1.88 8.6-3.62 12.58 -1.44 3.24-4.22 5.5-6.81 7.98 -.68.63-1.76.84-2.36 1.55 -.18.19-.58.43-.66.48 -1.51.75-3.24 1.04-4.79 1.76 -.65.31-1.28.89-1.91.99 -2.73.43-5.13 1.01-7.54 2.26 -.38.19-.78.43-1.03.83l-.43-.26"/><path d="M156.66 118.933c2.21.11 6.44 2.9 6.83 3.56 -4.72.03-7.51-2.29-6.84-3.57Zm0-2.49c.65-2.49 4.69-6.628 5.47-6.93 -1.13 5.35-4.3 7.97-5.48 6.92Zm6.64-1.32c-.31-2.45 1.77-7.58 2.37-8.12 .92 5.14-.94 8.616-2.37 8.11Z"/><path fill="#406325" d="M171.14 107.54c.72-1.77.19-6.04-.15-6.57 -1.73 3.65-1.02 6.631.14 6.56Z"/><path d="M170.012 110.586c1.39-1.71 6.05-3.54 6.78-3.49 -2.78 3.77-6.22 4.71-6.79 3.48Zm8.06-16.65c.28-1.98 3.03-5.59 3.62-5.9 -.38 4.22-2.6 6.56-3.63 5.89Z"/><path d="M174.42 105.83c1.81-1.35 6.9-1.95 7.625-1.72 -3.7 3.02-7.36 3.07-7.625 1.72Zm3.21-7.67c.94-1.87 4.86-4.43 5.54-4.5 -1.82 4.06-4.79 5.56-5.55 4.5v0Zm-.47-14.24c-.04-2.39 2.49-7.11 3.11-7.58 .36 5.04-1.79 8.19-3.12 7.57Z"/><g fill="#406325"><path d="M176.39 84.37c-1.03-1.91-5.28-4.51-6.02-4.57 1.94 4.17 5.17 5.68 6.01 4.56Z"/><path d="M175.9 81.86c-.56-1.9-3.88-5.02-4.53-5.22 .97 4.08 3.56 6.03 4.52 5.21Z"/></g><path d="M175 75.837c-.73-1.65-.35-5.76-.03-6.28 1.73 3.42 1.14 6.3.02 6.27Zm-1.33-.69c-1.65-1.47-3.33-6.18-3.26-6.91 3.67 2.89 4.49 6.36 3.25 6.9Zm3.63 10.79c-.1.25.92-2.41 4.44-4.79 -1.26 4.46-3.46 5.71-4.45 4.78Z"/><path fill="#406325" d="M166.547 113.465c1.35-2.08 1.73-7.68 1.43-8.43 -3.11 4.24-2.94 8.22-1.44 8.42Z"/><path d="M166.65 114.04c2.18-1.62 8.29-2.39 9.13-2.11 -4.46 3.67-8.82 3.74-9.14 2.1Z"/><path fill="#406325" d="M177.38 86.54c-1.11-1.27-4.74-2.48-5.32-2.41 2.18 2.82 4.86 3.39 5.31 2.4Zm-14.05 28.56c1.41.49 3.26-2.95 2.35-8.09 -.88 4.36-1.94 7.83-2.36 8.08Zm-6.7 3.84c-.67 1.27 2.09 3.57 6.8 3.53 -3.74-1.53-6.64-3.09-6.81-3.54Zm.05-2.52c1.18 1.04 4.31-1.55 5.44-6.91 -2.54 3.88-4.92 6.81-5.44 6.9v0Z"/><path d="M171.134 107.53c-1.17.06-1.87-2.9-.15-6.54 -.23 3.42-.14 6.24.14 6.53v0Z"/><path fill="#406325" d="M170.042 110.6c.56 1.22 3.96.28 6.76-3.49 -3.41 2.13-6.33 3.59-6.77 3.48Zm8.04-16.67c1.03.67 3.23-1.66 3.61-5.88 -1.63 3.24-3.21 5.753-3.62 5.87Zm-3.66 11.91c.28 1.35 3.89 1.3 7.59-1.72 -3.91 1.24-7.19 1.94-7.6 1.71Zm3.23-7.71c.76 1.06 3.7-.42 5.52-4.49 -2.7 2.61-5.09 4.51-5.52 4.48Zm-.47-14.24c1.32.63 3.45-2.49 3.09-7.53 -1.28 4.1-2.65 7.31-3.1 7.52Z"/><path d="M176.4 84.38c-.85 1.11-4.03-.375-5.98-4.57 2.91 2.67 5.51 4.6 5.97 4.56Zm-.54-2.52c-.96.81-3.53-1.12-4.5-5.21 2.1 2.92 4.07 5.14 4.49 5.2Z"/><path fill="#406325" d="M175.025 75.82c1.1.02 1.69-2.83-.05-6.25 .29 3.28.28 5.96.04 6.24Zm-1.33-.71c1.24-.55.41-3.98-3.26-6.866 2.02 3.44 3.39 6.42 3.25 6.866Zm3.63 10.83c.99.92 3.16-.34 4.42-4.8 -2.44 3.15-3.97 4.741-4.43 4.79Z"/><path d="M166.53 113.44c-1.51-.2-1.67-4.16 1.42-8.4 -1.14 4.32-1.71 7.95-1.43 8.39Z"/><path fill="#406325" d="M166.678 114.056c.31 1.64 4.66 1.56 9.1-2.09 -4.67 1.51-8.6 2.37-9.11 2.09Z"/><path d="M177.39 86.562c-.44.98-3.11.41-5.29-2.41 3.24 1.84 4.53 2.64 5.28 2.4Zm.12 5.53c-.3-2.43 1.24-6.3 2.07-7.04 .8 4.49-.84 7.48-2.08 7.03Z"/><path fill="#406325" d="M177.539 92.667c1.61.57 2.83-3.1 2.06-7.48 -.76 3.77-1.69 7.253-2.07 7.47Zm-1.04 8.35c1.91.3 5.92-1.29 6.35-1.76 -4.04-.88-6.74.57-6.36 1.75Z"/><path d="M176.55 101.001c-.39-1.18 2.3-2.6 6.32-1.74 -3.41.6-6.12 1.39-6.33 1.73Z"/><path fill="#406325" d="M176.45 99.254c-.02-1.77-2-5.27-2.49-5.61 -.18 3.74 1.5 6.07 2.48 5.6Z"/><path d="M176.43 99.254c-.98.45-2.64-1.84-2.47-5.59 1.05 3.04 2.13 5.43 2.46 5.58Z"/><path fill="#406325" d="M177.77 92.543c.17-2.36-2.17-7.22-2.79-7.73 -.63 4.93 1.39 8.22 2.78 7.72Z"/><path d="M177.74 92.508c-1.38.51-3.4-2.74-2.77-7.68 1.09 4.14 2.32 7.42 2.76 7.67Z"/><path fill="#406325" d="M176.58 94.98c-.01-2.378-2.65-6.95-3.31-7.381 -.27 5.05 1.97 8.07 3.3 7.381Z"/><path d="M176.564 95.02c-1.33.69-3.54-2.31-3.28-7.36 1.37 4.01 2.82 7.15 3.27 7.35Z"/><path fill="#406325" d="M168.83 111.63c1.02-1.55 1.33-5.72 1.11-6.28 -2.35 3.15-2.24 6.116-1.12 6.27Z"/><path d="M168.82 111.62c-1.13-.16-1.22-3.11 1.1-6.26 -.87 3.22-1.32 5.91-1.11 6.25Z"/><path fill="#BA1F3E" stroke="#511124" stroke-linecap="round" stroke-linejoin="round" stroke-width=".017" d="M176.45 80.435v0c0 .18.15.33.34.33 .18-.01.33-.16.33-.34 -.01-.19-.16-.34-.34-.34h0c-.19-.01-.34.15-.34.33v0Zm1.18 3.72v0c0 .18.15.33.33.33 .18-.01.33-.16.33-.34 -.01-.19-.16-.34-.34-.34 -.19 0-.34.15-.34.33v0Zm.35 11.71v0c0 .22.17.39.39.39s.39-.18.39-.4v0 0c0-.23-.18-.4-.4-.4 -.23 0-.4.17-.4.39Zm-1.6-2.19v0c0 .22.17.39.39.39s.39-.18.39-.4v0 0c0-.23-.18-.4-.4-.4 -.23 0-.4.17-.4.39Zm-4.61 12.46v0c0 .22.17.39.39.39s.39-.18.39-.4v0c0-.23-.18-.4-.4-.4 -.23 0-.4.17-.4.39Zm1.96.85v0c-.01.21.17.39.39.39 .21 0 .39-.18.39-.4 0-.01 0-.01 0-.01v0c0-.22-.18-.4-.4-.4 -.22-.01-.4.17-.4.39Zm-13.25 10.11v0c0 .22.17.39.39.39s.39-.18.39-.4v0c0-.23-.18-.4-.4-.4 -.23 0-.4.17-.4.39Zm-2.19 1.57v0c-.02.22.15.4.37.41 .22.01.4-.16.41-.38 0-.02 0-.03 0-.04v0c-.02-.23-.2-.4-.42-.38 -.21.01-.37.17-.38.37Z"/><path d="M176.121 79.048c-.68-1.84 0-6.27.38-6.81 1.65 3.83.82 6.91-.39 6.8Z"/><path fill="#406325" d="M176.14 79.036c1.19.1 2.02-2.95.37-6.78 .1 3.57-.09 6.48-.38 6.77Z"/><path d="M157.97 116.59c.77-2.53 5.06-6.59 5.87-6.85 -1.36 5.44-4.71 7.97-5.88 6.84Z"/><path fill="#406325" d="M158 116.57c1.18 1.13 4.49-1.38 5.84-6.83 -2.77 3.86-5.31 6.75-5.85 6.82v0Zm16.95-13.87c1.11-1.81 1.21-6.54.91-7.18 -2.59 3.69-2.27 7.05-.92 7.17Z"/><path d="M175.01 103.598c.83-1.96 4.62-4.84 5.3-4.95 -1.55 4.26-4.46 5.98-5.31 4.95Zm-.04-.95c-1.36-.12-1.67-3.45.91-7.14 -.84 3.7-1.19 6.77-.92 7.13Z"/><path fill="#406325" d="M175.083 103.604c.85 1.03 3.72-.68 5.27-4.95 -2.55 2.84-4.84 4.94-5.28 4.94Zm-15.03 14.89c1.39 1.72 6.14 3.47 6.9 3.4 -2.76-3.83-6.28-4.71-6.91-3.41Z"/><path d="M160.097 118.486c.63-1.3 4.1-.44 6.86 3.4 -3.44-2.11-6.4-3.54-6.87-3.41Z"/><path fill="none" fill-rule="evenodd" stroke="#24420E" stroke-width=".017" d="M175.258 79.051l-.68-.23"/><path fill="#BA1F3E" stroke="#511124" stroke-linecap="round" stroke-linejoin="round" stroke-width=".017" d="M174.09 78.67v0c0 .18.15.33.33.33 .18-.01.33-.16.33-.34 -.01-.19-.16-.34-.34-.34 -.19 0-.34.15-.34.33v0Z"/><path fill="#8C959D" stroke="#485654" d="M136.054 105.86c-.05.33.26.73.66.64 .12-.03.19-.19.04-.16 -.14.03-.28-.03-.375-.12h-.001c-.17-.16-.22-.4-.13-.6l-.21.22v0Z"/></g><path fill="#8C959D" d="M136.98 106.51c-.32.36-.81.52-1.08.26 -.18-.18-.25-.38-.15-.6 -.14.15-.26.28-.35.38 .01.02.22.4.53.54 .38.17.92-.09 1.25-.49 .23-.29.48-.76.3-1.13 -.12-.23-.39-.45-.62-.54l-.33.34c.15-.08.35-.05.53.09 .39.32.16.78-.12 1.1Z"/><path fill="#485654" d="M136.98 106.51v0c-.11.12-.23.22-.37.29v0c-.14.08-.31.11-.46.09v0c-.09-.02-.16-.05-.23-.1v0c-.07-.06-.12-.12-.16-.19v0c-.05-.07-.08-.15-.08-.23v0c-.01-.09.01-.17.04-.24l.03.02 -.35.38 0-.04c.08.15.19.29.32.4v0c.12.12.29.18.46.17 .17-.01.34-.07.49-.15 .15-.09.28-.2.4-.33 .11-.13.21-.28.29-.44h0c.08-.16.12-.33.11-.5v0c-.01-.09-.03-.17-.07-.25v-.001c-.05-.08-.1-.15-.16-.21v0c-.13-.13-.27-.23-.43-.3l.02-.01 -.33.34 -.03-.04v0c.07-.04.15-.05.23-.04v0c.07 0 .15.03.22.07 .13.08.25.2.28.35v0c.03.15 0 .31-.07.45s-.17.26-.27.37Zm0 0c.09-.12.18-.25.24-.39l-.001-.001c.06-.14.08-.3.05-.44v0c-.05-.15-.15-.27-.29-.34v0c-.13-.08-.29-.1-.43-.04l-.03-.04 .31-.35 .01-.02 .01 0v0c.17.06.32.16.45.3v0c.06.06.12.13.16.21 .04.08.07.17.07.26 .01.18-.05.36-.12.53v0c-.08.16-.18.31-.3.45 -.13.13-.27.25-.43.33 -.16.08-.34.15-.53.15v0c-.1 0-.19-.02-.28-.05v0c-.09-.04-.17-.09-.24-.15v0c-.14-.13-.25-.27-.34-.43l-.01-.02 .01-.02 .35-.39 .03.02 0 0c-.04.06-.05.14-.05.21v0c0 .07.02.14.06.21 .03.06.09.12.14.17v-.001c.05.04.12.07.2.09v0c.15.01.31-.02.44-.09 .13-.08.26-.17.36-.29Z"/><path fill="#6C301E" stroke="#351710" stroke-linejoin="round" stroke-width=".017" d="M161.363 78.67l-12.55 12.34c-.96.94-11.87 11.369-12.85 12.3 -.35.41-1.33 1.51-1.43 1.67 -.67.72-1.39 1.66-2.25 2.5 -.16.19-.36.12-.55.23 -.57.32-1.16.89-1.58 1.36l-3.82 4.22c-.25.26-.32.43-.15.58l2.07 2.76c.38.37.82.57.99.25 .98-1.71 3.42-4.3 4.34-6.36 .55-1.23 1.24-3.46 1.73-4 .6-.68 2.24-2.42 3.68-3.97l.29-.32 .29-.32c7.34-7.49 15.84-16.58 22.04-22.99 -.25-.25-.1-.1-.33-.33v0Z"/><g stroke-width=".017" fill="#8C959D" stroke="#485654"><path d="M135.316 103.31c-.39.01-.64-.23-.89-.44 .36.1.73.24 1.07.1l-.19.33Z"/><path fill="#B2B6BA" d="M174.429 69.56l-9.94 8.19c-.1.11-.2.08-.29 0l-.91-.76c0-.02 0-.03 0-.04v0c-.01-.05-.01-.1-.03-.15l.44-.46c.05-.07.03-.1-.04-.18 -.06-.06-.11-.12-.19-.19 -.08-.06-.13-.02-.21.05l-.45.46v0c-.24.01-.42.19-.43.42 -6.02 5.85-11.19 11.07-17.17 16.83l-7.06 6.73c-.26.32-1.35.9-2.07 1.37 -.26.16-.48.31-.57.48l-.58 1.69c-.19.37-.76 1.25-.79 1.31 .74.74.7.69 1.2 1.16 .56-.64 2.09-2.23 3.47-3.71 .11-.12.11-.14.26-.31v0c-.14-.19-.28-.36-.44-.52 -.13-.12-.26-.24-.375-.35 -.08-.07-.15-.13-.2-.18 -.06-.05.07-.14.13-.21 8.27-7.994 17.17-16.78 24.46-23.94v0c.1.03.22.02.32-.03l.87 1c.2.2.37.2.54.12l9.95-8.92v0Z"/></g><path fill="#485654" d="M135.023 104.026h-.001c.06.01.12.01.18.01v0c.06-.01.12-.03.17-.06l-.01 0c.07-.25.14-.5.22-.75 .07-.25.15-.5.23-.74l0 0 0-.001c-.06-.08-.14-.13-.23-.16v0c.09.02.17.07.24.14l0 0 -.01 0c-.08.24-.15.49-.23.74 -.08.24-.16.49-.24.73l-.01 0 -.01 0v0c-.06.02-.13.04-.19.04v0c-.07 0-.13-.01-.19-.02Z"/><path fill="none" fill-rule="evenodd" stroke="#485654" stroke-linecap="round" stroke-linejoin="round" stroke-width=".017" d="M137.474 103.32v-.001c0 .1-.09.19-.2.19v0c-.11 0-.2-.09-.2-.2 0-.11.08-.2.19-.2v0c.1 0 .19.08.19.19Zm-1.17 1.17v0c0 .1-.09.19-.2.19h-.001c-.11-.01-.19-.11-.18-.21 0-.1.08-.18.17-.18 .1 0 .19.08.19.19Z"/><path fill="#485654" d="M138.153 101.52v-.001c-.1-.08-.2-.16-.29-.25v0c-.1-.09-.18-.18-.26-.27h0c.19.15.37.32.54.5Z"/><path fill="#8C959D" stroke="#485654" stroke-width=".017" d="M158.369 82.8l.2-.19 -1.09-1.07 -.21.18v0Zm5.5 23.57c.02.33-.3.71-.7.61 -.12-.04-.19-.2-.03-.16 .13.04.27-.01.37-.1v0c.16-.15.23-.39.15-.6 .06.08.12.17.18.23v0Z"/><path fill="#8C959D" d="M162.9 106.979c.3.37.77.56 1.06.31 .19-.17.26-.37.17-.6 .12.16.24.29.32.39 -.02.02-.25.39-.57.51 -.39.15-.93-.14-1.24-.56 -.22-.3-.46-.78-.25-1.15 .12-.23.41-.43.64-.5l.3.36c-.16-.08-.36-.07-.54.07 -.42.3-.21.77.06 1.11Z"/><path fill="#485654" d="M162.9 106.979c.1.12.22.22.35.3v-.001c.13.08.28.11.44.1v0c.07-.01.14-.04.21-.09v-.001c.06-.05.11-.11.15-.17v0c.04-.07.06-.14.07-.22v0c0-.08-.01-.16-.04-.23l.04-.03c.1.13.21.26.33.39l.01.01 -.02.01v-.001c-.1.15-.22.29-.36.4v0c-.08.05-.16.1-.24.13v0c-.09.03-.19.04-.28.03h0c-.19-.02-.36-.09-.52-.19l-.001-.001c-.16-.1-.3-.22-.41-.36v0c-.12-.15-.21-.3-.28-.47v0c-.08-.17-.11-.36-.1-.54v0c.01-.1.04-.19.09-.27v-.001c.15-.23.38-.4.64-.49l.01-.01 .01.01 .29.36 -.03.03h0c-.14-.07-.3-.07-.43.01v0c-.14.06-.25.18-.3.32h0c-.05.14-.04.3.03.44 .05.14.13.27.22.39Zm0 0v0c-.1-.12-.19-.25-.25-.39h-.001c-.07-.15-.09-.31-.05-.46v-.001c.02-.08.06-.15.11-.21v0c.05-.06.11-.11.18-.15v0c.14-.09.31-.09.46-.02l-.03.03 -.31-.36 .02 0v0c-.25.08-.47.24-.62.46v0c-.05.07-.08.15-.09.23 -.03.17.02.34.09.5 .06.16.16.31.27.44 .11.13.24.25.39.34 .14.09.31.16.48.17v0c.08 0 .17-.01.25-.03h0c.08-.03.15-.08.22-.125 .13-.11.25-.25.35-.39l0 .03c-.11-.14-.22-.27-.33-.41l.04-.03 -.001 0c.06.15.04.33-.06.47l0-.001c-.05.06-.11.12-.17.17v0c-.07.04-.15.07-.23.08v0c-.17 0-.33-.04-.46-.13v0c-.14-.09-.26-.2-.35-.32Z"/><path fill="#6C301E" stroke="#351710" stroke-linejoin="round" stroke-width=".017" d="M139.876 77.995l11.92 12.94c.9.99 11.29 11.93 12.22 12.92 .32.42 1.24 1.58 1.34 1.74 .62.75 1.3 1.73 2.12 2.62 .14.19.34.14.53.25 .54.35 1.11.94 1.5 1.44l3.6 4.4c.23.27.28.44.11.58l-2.2 2.66c-.41.36-.86.53-1.02.2 -.9-1.75-3.21-4.46-4.04-6.56 -.5-1.26-1.08-3.52-1.55-4.08 -.58-.71-2.12-2.52-3.49-4.15 -.1-.12-.19-.22-.28-.33 -.1-.12-.19-.22-.29-.34 -6.98-7.84-15.02-17.34-20.89-24.039 .25-.24.09-.1.34-.32v0Z"/><g stroke-width=".017" fill="#8C959D" stroke="#485654"><path d="M164.731 103.869c.38.02.63-.19.91-.4 -.37.09-.75.2-1.08.05l.16.33Z"/><path fill="#B2B6BA" d="M127.32 68.24l9.52 8.67c.08.12.18.09.29.01l.93-.72 0-.04v0c0-.05.01-.1.03-.15l-.43-.48c-.06-.08-.04-.11.04-.18 .05-.07.11-.12.19-.19 .07-.06.12-.01.19.06l.42.48c.22.02.4.22.39.44 5.71 6.14 10.63 11.6 16.32 17.65l6.71 7.07c.23.34 1.29.97 1.98 1.47 .24.17.45.34.54.51l.48 1.72c.16.38.69 1.28.71 1.34 -.78.7-.74.65-1.27 1.1 -.54-.66-1.99-2.33-3.3-3.88 -.11-.13-.12-.14-.25-.32 .11-.15.3-.36.46-.5 .13-.12.26-.23.38-.32 .07-.06.15-.12.2-.17 .05-.05-.07-.14-.13-.21 -7.87-8.39-16.34-17.6-23.27-25.11v0c-.05 0-.09.01-.13.01v0c-.07-.01-.14-.03-.2-.06l-.93.95c-.21.19-.39.18-.56.1l-9.47-9.4v0Z"/></g><path fill="#485654" d="M164.98 104.593v0c-.07 0-.13.01-.2 0v0c-.07-.01-.13-.03-.19-.06l-.01-.01 -.01-.01c-.07-.25-.14-.5-.2-.75v0c-.07-.26-.13-.51-.19-.76l-.01-.01 0-.01v0c.03-.04.07-.06.11-.09v0c.04-.03.08-.04.13-.05 -.1.01-.18.07-.24.14l0-.01c.06.24.13.5.19.75s.12.5.18.75l-.01-.01v-.001c.05.03.11.05.17.06 .06 0 .12 0 .19 0Z"/><path fill="none" fill-rule="evenodd" stroke="#485654" stroke-linecap="round" stroke-linejoin="round" stroke-width=".017" d="M162.58 103.771v0c-.02.1.06.2.17.21 .1.01.2-.07.21-.18 0-.01 0-.02 0-.02v0c0-.11-.09-.2-.2-.2 -.1-.01-.19.07-.2.17Zm1.1 1.22v0c-.02.1.06.2.17.21 .1.01.2-.07.21-.18 0-.01 0-.02 0-.02v0c0-.11-.09-.2-.2-.2 -.1-.01-.19.07-.2.17Z"/><path fill="#485654" d="M161.98 101.93v0c.17-.18.36-.35.57-.49 -.09.09-.18.17-.28.25 -.1.08-.2.15-.3.22Z"/><g stroke-width=".017" fill="#8C959D" stroke="#485654"><path d="M143.84 81.24v0l-1.14 1.01 -.2-.2 1.14-1.01Z"/><g fill="#67923D" stroke="#24420E"><path d="M135.946 114.95c-2.46-1.04-8.41-.21-9.131.29 5.08 2.5 9.23 1.43 9.131-.3Z"/><path fill="#406325" d="M135.9 114.99c.1 1.72-4 2.77-9.09.28 4.78.29 8.68.11 9.08-.29Z"/><path d="M163.767 115.99c2.45-1.04 8.4-.21 9.131.29 -5.09 2.49-9.24 1.43-9.131-.3Z"/><path fill="#406325" d="M163.813 116.02c-.1 1.72 3.99 2.77 9.08.28 -4.78.29-8.69.12-9.09-.29Z"/></g><path fill="#B2B6BA" d="M159.253 113.277c-6.48-9.42-16.25-17.07-23.79-21.25 1.11-.06 3.58 1.21 4.58 1.85 7.48 4.82 13.84 11.18 20.52 18.69 -.4.38-.66.61-1.08.95l-.25-.26Z"/></g><path fill="#8C959D" d="M159.89 113.2l-.46.43c-7.2-9.256-17.22-18.11-23.96-21.61 9.4 4.32 17.31 13.05 24.38 21.14l.02.02Z"/><path fill="#485654" d="M159.89 113.2l-.46.43 -.01 0 -.01-.01v0c-1.67-2.13-3.43-4.19-5.27-6.17v-.001c-1.84-1.99-3.76-3.9-5.74-5.73v0c-1.99-1.84-4.05-3.59-6.2-5.24v0c-1.08-.83-2.17-1.62-3.3-2.37v0c-1.13-.76-2.29-1.45-3.48-2.08l.03-.07c2.46 1.13 4.79 2.56 6.99 4.15 2.2 1.59 4.27 3.34 6.25 5.19 1.98 1.85 3.88 3.79 5.72 5.78 1.84 1.98 3.63 4.02 5.42 6.07Zm0 0c-1.8-2.04-3.6-4.07-5.45-6.05 -1.85-1.99-3.75-3.93-5.74-5.77 -1.99-1.85-4.07-3.6-6.27-5.19 -2.2-1.59-4.53-3.01-6.99-4.134l.03-.07v-.001c1.19.63 2.36 1.32 3.48 2.08v-.001c1.12.75 2.22 1.54 3.29 2.37v0c2.14 1.65 4.2 3.4 6.18 5.24v0c1.98 1.83 3.89 3.75 5.73 5.74v-.001c1.83 1.98 3.58 4.05 5.24 6.18h-.01l.45-.44Z"/><g stroke-width=".017" fill="#FAB81C" stroke="#6C301E"><path d="M162.07 111.73v0c-.59.14-1.14.37-1.65.69 -.08.43-.61.92-1.13 1.03 -.1-.12-.12-.16-.19-.25v-.001c-.02-.02-.04-.03-.06-.02 -.05.02-.11.05-.18.1v0c-.23-.04-.44.09-.52.3 -.12.3.12.7.38.96 .28.22.43.33.76.28 .33-.07.52-.38.6-.48 1.16 1.4 2.03 2.16 3.5 3.32 .65 0 1-.41.78-.88 -.08-.16-.27-.27-.42-.21v0c.01-.05.01-.1 0-.15 .77-.71 1.09-1.59.28-3.09 -.7-1.26-1.48-1.69-2.22-1.69l-.01-.01Zm1.95 1.41c.13.23.21.43.32.64 .46.93.06 2.06-.73 2.4 -.04-.01-.03-.01-.07 0 .12-.22-.26-.68-.46-.52 .09-.24-.21-.64-.46-.53 .13-.23-.17-.6-.45-.48 .14-.24-.11-.59-.39-.53 .08-.26-.14-.55-.43-.5 .02-.23-.05-.35-.16-.46 .34-.27.73-.68 1.07-.86 .85-.37 1.37.33 1.72.78v0Z"/><path d="M164.38 114.14c-.17-.08-.24-.24-.19-.35 .05-.11.21-.14.38-.06 .16.07.25.23.19.34 -.06.1-.24.14-.4.06v0Z"/></g><path fill="#FAB81C" d="M160.123 114.406c.21-.56.64-1.07 1.09-1.19"/><path fill="#6C301E" d="M160.123 114.406v0c.08-.27.22-.52.4-.73v0c.09-.11.19-.21.3-.29 .11-.09.24-.15.37-.18v0c-.14.04-.26.11-.37.19 -.11.08-.21.18-.3.28 -.18.2-.32.45-.44.7Z"/><path fill="#FAB81C" d="M160.567 114.93c.51.11 1.02-.38 1.22-.76"/><path fill="#6C301E" d="M160.567 114.93h-.001c.12.02.25.01.37-.03s.23-.1.33-.18v0c.2-.15.38-.34.51-.56l-.001 0c-.06.11-.13.22-.22.32 -.09.09-.18.18-.29.26h0c-.11.07-.23.13-.35.16v0c-.13.03-.26.03-.39 0Z"/><path fill="#FAB81C" d="M161.031 115.432c.61.02.98-.42 1.16-.75"/><path fill="#6C301E" d="M161.031 115.432v0c.24-.01.48-.08.68-.22 .1-.07.18-.15.27-.24 .08-.09.15-.19.21-.3h-.001c-.11.22-.27.41-.47.56v0c-.11.06-.22.12-.34.15 -.12.03-.25.04-.37.03Z"/><path fill="#FAB81C" d="M161.505 115.9c.51 0 .99-.43 1.13-.76"/><path fill="#6C301E" d="M161.505 115.9c.24-.02.46-.11.66-.24 .09-.07.18-.15.26-.24v-.001c.08-.09.15-.19.21-.29v0c-.05.11-.11.21-.19.3v-.001c-.16.18-.37.32-.6.4v0c-.12.03-.24.05-.36.05Z"/><path fill="#FAB81C" d="M161.961 116.34c.56-.03.96-.28 1.13-.65"/><path fill="#6C301E" d="M161.961 116.34v-.001c.11-.02.22-.04.33-.06 .11-.03.21-.07.31-.13v0c.2-.11.37-.27.47-.47v0c-.05.1-.11.2-.19.29 -.08.08-.18.15-.28.2v0c-.21.1-.44.15-.67.14Z"/><path fill="#FAB81C" d="M162.47 116.79c.51.03.93-.28 1.07-.59"/><path fill="#6C301E" d="M162.47 116.79v0c.21-.01.42-.06.61-.15 .09-.05.18-.11.26-.19v0c.07-.08.14-.16.19-.25v0c-.05.1-.11.19-.19.26v-.001c-.24.23-.57.34-.9.31Z"/><path fill="#FAB81C" d="M160.195 114.482c.39.08 1.03-.39 1.18-.81"/><path fill="#6C301E" d="M160.195 114.482v0c.12.01.25-.01.36-.06v-.001c.23-.11.43-.25.6-.44v0c.08-.1.15-.2.21-.32v0c-.05.12-.11.23-.2.33h0c-.09.09-.18.18-.29.26v0c-.11.07-.22.13-.34.18v0c-.12.04-.26.06-.38.03Z"/><path fill="#FAB81C" d="M163.03 117.24v0c.41.03.81-.21.98-.6"/><path fill="#6C301E" d="M163.03 117.243c.1-.01.2-.02.3-.04v0c.19-.06.37-.16.5-.31 .06-.08.125-.16.17-.25v0c-.08.19-.22.35-.39.46h-.001c-.18.1-.39.15-.6.125Z"/><g stroke-width=".017" fill="#FAB81C" stroke="#6C301E"><path d="M164.284 113.826c-.17-.08-.24-.24-.19-.35 .05-.11.21-.14.38-.06 .16.07.25.23.19.34 -.06.1-.24.14-.4.06v0Z"/><path d="M164.09 113.47c-.17-.08-.24-.24-.19-.35 .05-.11.21-.14.38-.06 .16.07.25.23.19.34 -.06.1-.24.14-.4.06v0Z"/><path d="M163.84 113.154c-.17-.08-.24-.24-.19-.35 .05-.11.21-.14.38-.06 .16.07.25.23.19.34 -.06.1-.24.14-.4.06v0Z"/><path d="M163.52 112.84c-.17-.08-.24-.24-.19-.35 0-.02 0-.05.01-.04 .06.03.2.05.18-.05 -.02-.04-.05-.08-.03-.05v0c.06.01.13.03.19.06 .16.07.25.23.19.34 -.06.1-.24.14-.4.06v-.01 0Z"/><g fill="#406325" stroke="#24420E"><path d="M128.23 75.78c2.25-.74 5.85-4.83 6.08-5.6 -4.88 1.29-7.12 4.48-6.09 5.59Z"/><path fill="#67923D" d="M128.23 75.78c-1.04-1.12 1.18-4.28 6.04-5.57 -3.43 2.62-6 5.05-6.05 5.56v0Z"/><path d="M173.78 77.255c-.54-2.21-4.15-5.95-4.87-6.23 .86 4.73 3.72 7.11 4.86 6.22Z"/><path fill="#67923D" d="M173.78 77.255c-1.15.9-3.98-1.46-4.84-6.18 2.23 3.45 4.35 6.09 4.83 6.17Z"/></g><path fill="none" fill-rule="evenodd" stroke="#000" stroke-width=".017" d="M137.41 115.061l.28.54"/><path fill="#B2B6BA" stroke="#485654" d="M141 112.477c7.02-9.01 17.23-16.07 25-19.8 -1.11-.12-3.65.99-4.69 1.58 -7.76 4.36-14.49 10.34-21.6 17.43 .36.41.61.65 1.01 1.01l.26-.25Z"/></g><path fill="#8C959D" d="M140.36 112.363l.42.46c7.73-8.82 18.26-17.05 25.2-20.137 -9.65 3.76-18.06 11.99-25.61 19.65l-.03.02Z"/><path fill="#485654" d="M140.36 112.36l.42.46h-.01v-.001c1.78-2.04 3.65-4 5.6-5.87l-.001 0c1.95-1.88 3.97-3.68 6.06-5.39v-.001c2.08-1.73 4.25-3.35 6.48-4.88v0c1.11-.77 2.26-1.49 3.42-2.17v0c1.16-.69 2.36-1.32 3.6-1.88l.02.06c-2.53.98-4.94 2.26-7.23 3.71 -2.29 1.45-4.47 3.07-6.56 4.8 -2.1 1.72-4.11 3.54-6.07 5.41 -1.97 1.86-3.89 3.78-5.8 5.71Zm0 0c1.9-1.94 3.81-3.87 5.77-5.74 1.96-1.875 3.97-3.7 6.06-5.43 2.09-1.73 4.26-3.36 6.55-4.82 2.28-1.46 4.69-2.74 7.22-3.73l.02.06v-.001c-1.24.55-2.44 1.17-3.6 1.86v0c-1.17.68-2.32 1.4-3.43 2.16v-.001c-2.24 1.52-4.41 3.14-6.5 4.85h0c-2.1 1.71-4.12 3.5-6.08 5.37v-.001c-1.96 1.86-3.84 3.81-5.63 5.84l-.01 0 -.01-.01 -.43-.47Z"/><path fill="#FAB81C" stroke="#6C301E" stroke-width=".017" d="M141.867 112.87v0c-.07-.22-.28-.36-.5-.34 -.08-.06-.13-.09-.18-.12l-.001 0c-.02-.02-.05-.01-.06 0 -.08.08-.1.11-.2.22 -.51-.15-1.02-.66-1.06-1.1v0c-.49-.35-1.03-.62-1.6-.8h-.01c-.74-.05-1.55.33-2.32 1.54 -.9 1.44-.625 2.34.1 3.09v0c-.02.04-.02.09-.01.14 -.15-.07-.35.02-.43.17 -.25.45.07.88.73.92 1.53-1.07 2.45-1.78 3.7-3.11 .07.1.23.42.57.51 .33.06.48-.04.78-.25 .27-.25.54-.64.44-.94Zm-3.01-.13c-.29-.07-.53.21-.46.47 -.29-.08-.55.24-.42.49 -.27-.14-.59.21-.48.44 -.25-.12-.57.25-.49.5 -.19-.18-.61.26-.49.48 -.04-.02-.03-.02-.07-.02 -.77-.4-1.11-1.54-.59-2.45 .11-.21.2-.4.35-.63v0c.37-.43.94-1.1 1.77-.69 .32.2.69.63 1.02.91v-.001c-.14.1-.21.27-.19.44Z"/><path fill="#FAB81C" d="M140.07 113.55c-.18-.57-.58-1.11-1.03-1.26"/><path fill="#6C301E" d="M140.07 113.55v0c-.1-.27-.23-.51-.4-.73h0c-.09-.12-.18-.22-.28-.31v-.001c-.11-.1-.23-.17-.36-.22 .13.03.25.11.36.19 .11.08.2.19.29.3v0c.16.22.29.47.36.75Z"/><path fill="#FAB81C" d="M139.597 114.056c-.53.08-1.01-.45-1.19-.83"/><path fill="#6C301E" d="M139.597 114.056v0c-.13.02-.26.01-.39-.03v0c-.13-.05-.24-.11-.34-.19v0c-.11-.09-.2-.18-.27-.28v0c-.08-.11-.15-.22-.2-.34v0c.12.22.28.42.48.58 .09.08.2.14.32.19v0c.11.04.24.06.37.04Z"/><path fill="#FAB81C" d="M139.1 114.52c-.62-.02-.97-.48-1.13-.82"/><path fill="#6C301E" d="M139.1 114.52v0c-.13 0-.25-.02-.37-.06v0c-.12-.05-.23-.1-.33-.18l0-.001c-.2-.16-.35-.36-.44-.59 .05.1.12.21.19.3s.16.18.25.25v0c.19.14.42.23.66.25Z"/><path fill="#FAB81C" d="M138.602 114.968c-.52-.03-.97-.49-1.1-.83"/><path fill="#6C301E" d="M138.602 114.96v0c-.13-.01-.25-.03-.36-.07h0c-.12-.05-.22-.11-.32-.19v0c-.1-.08-.19-.17-.26-.26l-.001 0c-.08-.1-.14-.21-.18-.32v0c.1.21.25.4.44.54 .18.14.4.25.64.27Z"/><path fill="#FAB81C" d="M138.121 115.37c-.57-.06-.95-.34-1.09-.72"/><path fill="#6C301E" d="M138.121 115.378v0c-.24-.01-.46-.08-.66-.19v0c-.1-.07-.19-.14-.27-.23v0c-.08-.09-.14-.2-.17-.31 .04.1.11.2.18.28 .07.08.16.15.26.21 .09.06.2.1.3.14 .1.03.22.05.33.07Z"/><path fill="#FAB81C" d="M137.583 115.79c-.52-.01-.92-.34-1.04-.65"/><path fill="#6C301E" d="M137.583 115.792v0c-.11 0-.22-.01-.33-.04v-.001c-.22-.06-.41-.18-.56-.34v0c-.08-.09-.13-.18-.17-.28l0-.001c.04.09.1.18.18.26v0c.14.15.33.26.54.32 .1.03.2.04.31.05Z"/><path fill="#FAB81C" d="M139.995 113.624c-.4.05-1.01-.45-1.14-.88"/><path fill="#6C301E" d="M139.995 113.624v0c-.13.01-.26-.01-.375-.06v0c-.12-.06-.23-.13-.33-.21v-.001c-.1-.09-.19-.18-.27-.28v0c-.08-.11-.14-.22-.18-.35 .04.11.11.22.19.32v0c.15.19.35.35.58.47v0c.11.05.23.08.36.08Z"/><path fill="#FAB81C" d="M137.001 116.212h0c-.43 0-.8-.26-.95-.65"/><path fill="#6C301E" d="M137.001 116.212H137c-.21.01-.42-.05-.59-.16v0c-.17-.12-.3-.3-.36-.49 .04.09.09.17.15.25v0c.19.23.47.38.78.39Z"/><g stroke-width=".017" fill="#FAB81C" stroke="#6C301E"><path d="M135.837 113.03c.16-.07.25-.23.2-.34 -.05-.11-.22-.15-.38-.08 -.17.06-.27.21-.22.32 .04.11.22.15.39.08v0Z"/><path d="M135.952 112.725c.16-.07.25-.23.2-.34 -.05-.11-.22-.15-.38-.08 -.17.06-.27.21-.22.32 .04.11.22.15.39.08v0Z"/><path d="M136.167 112.38c.16-.07.25-.23.2-.34 -.05-.11-.22-.15-.38-.08 -.17.06-.27.21-.22.32 .04.11.22.15.39.08v0Z"/><path d="M136.429 112.081c.16-.07.25-.23.2-.34 -.05-.11-.22-.15-.38-.08 -.17.06-.27.21-.22.32 .04.1.22.15.39.08v0Z"/><path d="M136.767 111.791c.16-.07.25-.23.2-.34 -.01-.02 0-.05-.02-.04 -.07.03-.21.04-.19-.06 .02-.04.05-.07.02-.05v0c-.08 0-.14.02-.21.05 -.17.06-.27.21-.22.32 .04.11.22.15.39.08l0-.01Z"/><use fill="#F9F0AA" stroke="#999270" xlink:href="#c"/></g><g fill="#F9F0AA"><use xlink:href="#c"/><g stroke-width=".017" fill="#F9F0AA" stroke="#999270"><use xlink:href="#d"/><use xlink:href="#d"/><use xlink:href="#e"/></g><use xlink:href="#e"/><use fill="#F9F0AA" stroke="#999270" stroke-width=".017" xlink:href="#f"/><use xlink:href="#f"/><path fill="#F9F0AA" stroke="#999270" stroke-width=".017" d="M141.664 100.18c.01 0 16.22-1.1 17.88-1.03 4.92-2.7-.03-13.3-4.17-19.229 .47-1.34-9.34-4.35-13.77-4.07 -.56.03-1.1.07-1.62.11 -2.41.25-2.43 3.34-1.45 5.28 .95 1.88 9.47 17.22 3.48 18.84l-.37.07Z"/><path d="M159.036 86.19v0c-1.06-2.19-2.28-4.28-3.67-6.27 .47-1.34-9.34-4.35-13.77-4.07 -.56.03-1.1.07-1.62.11 -2.41.25-2.43 3.34-1.45 5.28 .29.59 1.34 2.51 2.45 4.91"/></g><path fill="#999270" d="M159.036 86.198v-.001c-.54-1.09-1.11-2.16-1.72-3.2v0c-.62-1.05-1.27-2.07-1.96-3.06l-.01-.01 0-.01v0c.02-.07.02-.15-.01-.21v0c-.03-.07-.07-.13-.11-.19v0c-.1-.12-.21-.22-.33-.3v0c-.24-.18-.49-.33-.76-.46 -.53-.28-1.07-.5-1.62-.72h0c-1.11-.42-2.23-.78-3.37-1.08v-.001c-1.14-.31-2.3-.57-3.46-.77v0c-.59-.11-1.17-.19-1.75-.26v0c-.59-.07-1.18-.11-1.77-.11 -.3-.01-.59.01-.89.03l-.89.05 -.45.03c-.15.01-.29.04-.44.08h0c-.29.07-.55.21-.78.4 -.23.18-.4.43-.53.69v0c-.13.26-.22.54-.27.83v0c-.1.58-.08 1.17.04 1.75 .11.57.3 1.14.58 1.65 .27.52.54 1.04.81 1.57v0c.53 1.05 1.05 2.11 1.54 3.18v0c-.5-1.07-1.02-2.13-1.57-3.18l-.82-1.57v0c-.29-.53-.49-1.09-.6-1.67v0c-.12-.59-.14-1.18-.05-1.77 .04-.3.13-.58.26-.85s.31-.52.53-.71c.22-.2.49-.34.78-.42 .14-.04.28-.07.43-.09l.44-.04 .88-.07c.29-.02.59-.04.88-.04 .59 0 1.18.04 1.76.1 .58.06 1.17.14 1.75.24 1.16.2 2.31.46 3.45.77 1.14.3 2.26.65 3.37 1.08 .55.21 1.09.44 1.62.71 .26.13.51.28.75.46 .11.09.23.18.32.3v0c.04.05.08.12.11.19v0c.02.07.03.15 0 .22l-.01-.02v0c.69.99 1.34 2.01 1.94 3.06v0c.6 1.04 1.17 2.11 1.7 3.2Z"/><path fill="#F9F0AA" d="M142.552 89.82c1.73 4.57 2.7 9.41-.52 10.28l-.37.07c.01 0 16.22-1.1 17.88-1.03 2.66-1.47 2.43-5.26 1-9.357"/><path fill="#999270" d="M142.55 89.82c.35.92.67 1.85.94 2.8 .27.94.49 1.91.6 2.89 .05.49.08.98.05 1.47v0c-.02.49-.12.98-.28 1.45v-.001c-.17.47-.47.88-.86 1.19h0c-.2.15-.42.27-.65.36v0c-.12.04-.24.08-.36.11l-.37.07 -.01-.04 4.46-.3 4.46-.29c1.49-.09 2.98-.18 4.47-.26 .74-.05 1.49-.08 2.23-.12 .37-.02.74-.04 1.11-.05 .37-.02.74-.03 1.12-.02l-.01 0v0c.75-.41 1.33-1.07 1.65-1.87 .32-.79.41-1.66.39-2.5h-.001c-.03-.86-.14-1.7-.33-2.53v0c-.19-.84-.43-1.65-.71-2.46 .28.8.52 1.61.71 2.44 .18.83.32 1.67.34 2.52 .01.42-.01.85-.07 1.27v0c-.06.42-.17.83-.33 1.23l0 0c-.16.39-.39.76-.67 1.08v0c-.29.32-.63.58-1 .79l-.01 0h-.01c-.38-.01-.75 0-1.12.02 -.38.01-.75.03-1.12.04 -.75.03-1.49.07-2.24.11 -1.49.08-2.98.17-4.47.26l-4.47.28 -4.47.28 -.01-.04 .36-.08v0c.11-.04.23-.08.34-.12v0c.22-.1.44-.22.63-.37 .38-.3.67-.73.84-1.19 .17-.46.25-.96.27-1.45 .02-.5 0-.99-.06-1.48 -.12-.98-.33-1.95-.6-2.9h0c-.28-.95-.59-1.89-.94-2.81Z"/><path fill="#B07E09" d="M148.33 88.492c.01.04.04.08.06.1 .02.02.05.04.08.06 .03.01.06.02.1.03 .04 0 .08.01.13.01 .01 0 .03.01.04.02v0c.01.01.02.02.03.04v0c0 .01 0 .02 0 .04 -.01.01-.02.02-.04.02 -.04 0-.07 0-.11 0h-.25v0c-.08 0-.15 0-.22.01l-.12.01 -.12.01h-.001c-.04 0-.07 0-.11.01v0c-.03 0-.05-.01-.06-.02v0c-.02-.02-.03-.03-.04-.05h0c-.01-.02-.01-.03-.01-.05 0-.02.01-.03.03-.03 .04-.01.08-.02.12-.03h0c.03-.01.05-.03.08-.05v0c.01-.02.03-.05.03-.07v0c0-.04-.01-.08-.03-.11l-.41-.98v0c-.02-.03-.03-.05-.04-.08v0c-.01-.02-.03-.04-.04-.05v0c-.02-.01-.03-.02-.05-.02v0c-.03-.01-.06-.01-.08-.01 -.02 0-.05 0-.07 0l-.09.01v0c-.03 0-.05-.01-.07-.02v0c-.02-.02-.03-.03-.04-.05h0c-.01-.02-.01-.03-.01-.04 0-.02.01-.03.02-.04l0-.001c.07-.03.15-.06.23-.09v0c.07-.04.15-.07.23-.1v0c.02-.01.04-.01.06 0 .02 0 .04.02.05.04l.55 1.33Zm.23-1.41c.03-.01.07-.01.12-.01l.16 0h0c.1 0 .21 0 .32 0h0c.01 0 .03-.01.05-.02v0c.01-.01.02-.02.02-.04h-.001c0-.02.01-.03.01-.04l-.001 0c0-.02 0-.03 0-.04 0-.02.01-.03.03-.03V86.9c.02-.01.05 0 .07.02 .01.01.02.02.02.04l.01.06v0c0 .04 0 .09 0 .14v0c-.01.02-.01.04-.02.06l-.001-.001c-.02.02-.03.03-.05.05v-.001c-.03.01-.06.02-.08.02 -.05 0-.09 0-.13 0 -.05 0-.09-.01-.14-.01v0c-.05-.01-.1-.01-.15-.01l-.13 0v0c.03.1.07.2.11.31l.01.04 0 .02c-.02-.01-.02-.01 0-.02h-.001c.06-.03.13-.04.19-.05v0c.25-.01.5.09.68.28 .06.06.1.13.13.21 .04.09.05.18.05.26l0 0c-.01.07-.03.13-.07.19V88.5c-.05.05-.11.1-.18.12v0c-.09.03-.18.05-.27.05v0c-.05 0-.1 0-.14-.01v0c-.05-.01-.1-.02-.15-.03v0c-.05-.02-.1-.04-.14-.07v0c-.05-.03-.08-.07-.1-.12v0c-.02-.04-.02-.07-.02-.11 0-.05.03-.07.08-.07v0c.01-.01.03 0 .05 0v0c.04.01.07.03.1.06v-.001c.01.01.02.03.03.05 0 .01 0 .02 0 .02l-.01.02 -.01.01 0 .01s.01.01.02.01 .02.01.04.01v0c.02 0 .04 0 .06 0l.07-.01c.11-.01.18-.05.2-.13 .02-.09 0-.2-.06-.33v0c-.05-.11-.12-.21-.21-.28l-.001-.001c-.15-.11-.34-.13-.5-.05 -.04 0-.07-.01-.09-.02h0c-.03-.02-.04-.05-.05-.07v0c-.09-.22-.17-.44-.24-.66 -.01-.02-.01-.03 0-.04 0-.02.02-.03.05-.03Zm2.14.32v0c-.02-.05-.05-.1-.07-.14l-.001 0c-.02-.04-.05-.07-.08-.1v-.001c-.03-.03-.06-.05-.09-.06v0c-.04-.02-.08-.02-.12-.02h0c-.02 0-.04-.01-.06-.02v0c-.02-.02-.03-.03-.03-.05h-.001c-.01-.02-.01-.03-.01-.05 0-.02.01-.03.03-.03l.07-.01h.07v0c.11 0 .23-.01.35-.02 .06-.01.12-.02.19-.02 .13-.01.27.01.4.04v0c.26.07.5.23.68.44 .09.1.16.22.21.35v0c.05.11.07.24.08.37v0c0 .09-.03.19-.09.27v0c-.06.07-.14.13-.22.17v-.001c-.11.04-.22.06-.33.06v0c-.08 0-.15 0-.22 0v0c-.1-.01-.19-.01-.28 0l-.08 0 -.08.01 -.09.01 -.001 0c-.03 0-.05-.01-.06-.02v0c-.02-.02-.03-.03-.04-.05v0c-.01-.02-.01-.03-.01-.05 0-.02.01-.03.03-.03v-.001c.02-.01.05-.02.08-.03v0c.01-.01.03-.02.04-.04v0c.01-.02.01-.04.01-.06v0c-.01-.04-.02-.07-.03-.1l-.39-.96Zm.63.76c.03.08.06.14.08.19 .02.04.05.07.07.09v0c.02.02.06.03.09.03s.09 0 .15 0v0c.06-.01.12-.02.17-.06v0c.04-.04.08-.09.09-.14v0c.01-.08.02-.15.01-.22v0c-.02-.11-.05-.21-.09-.3v0c-.05-.11-.1-.22-.17-.32v0c-.11-.18-.28-.3-.48-.35v0c-.12-.03-.23-.04-.35-.04 -.03 0-.04 0-.05.01 -.01 0-.01.02 0 .04l.4 1Zm2.01-1.34v0c.01-.01.03 0 .04 0 .02 0 .04.03.06.06v0c0 .01 0 .02.01.04l.01.04 .01.04c.01.03.03.07.04.11 .01.03.03.06.04.09 0 .01 0 .02-.01.03v0c-.02 0-.03.01-.04.01v0c-.02-.01-.03-.01-.05-.01 -.02-.01-.03-.02-.05-.04h-.001c-.03-.05-.06-.1-.09-.14l0-.001c-.02-.03-.05-.06-.08-.08v0c-.03-.02-.06-.03-.09-.03v-.001c-.05-.01-.09-.01-.14-.01l-.15 0v0c-.04 0-.07 0-.11 0 -.03 0-.04 0-.05.01 -.01 0-.01.02-.01.03h0c0 .03.01.06.03.09l.17.43c0 .01.01.02.01.02l0 0c.07-.01.13-.01.16-.02s.06-.02.07-.04c.01-.02.01-.04.01-.06v0c-.01-.04-.02-.07-.03-.11 -.01-.02 0-.03.01-.04v-.001c.01-.01.02-.02.04-.02 .01 0 .03 0 .04.01v0c.01 0 .02.02.03.03h-.001c.01.04.03.09.04.13l.01.06v0c.02.07.05.14.08.2v0c.02.04.04.09.06.15 0 .01 0 .03-.01.03v-.001c-.02 0-.03.01-.04.01v0c-.02 0-.04-.01-.05-.01v0c-.02-.01-.04-.02-.04-.04h0c-.02-.04-.04-.08-.07-.12v0c-.02-.03-.04-.05-.06-.06v0c-.04-.02-.07-.03-.1-.03v0c-.06-.01-.12-.01-.18-.01l-.01 0c-.01 0 0 0 0 .01l.12.32c.03.07.05.13.07.17 .02.04.04.06.07.08v0c.03.01.06.02.1.03v0c.09 0 .19 0 .28-.01v0c.04-.01.09-.03.12-.06V88.1c.01-.02.02-.03.03-.05 0-.02.01-.05 0-.08v-.001c-.01-.05-.02-.09-.03-.12 -.01-.02 0-.03.01-.04v0c.01-.01.02-.02.04-.02v0c.01-.01.03 0 .05.01v0c.01 0 .03.02.03.04l.05.19c.01.06.03.12.06.18l0 .01v0s-.01.01-.01.02v0c-.01 0-.02.01-.02.01v0c-.02 0-.03 0-.04 0l-.89.03v0c-.06 0-.12 0-.18.01l-.16.01v-.001c-.03 0-.05-.01-.06-.02l-.001 0c-.02-.02-.03-.03-.04-.05v0c-.01-.02-.01-.03-.01-.04 0-.02.01-.03.03-.03v0c.02-.01.05-.02.08-.03v-.001c.01-.01.03-.02.04-.04v0c.01-.02.01-.04.01-.06h-.001c-.01-.04-.02-.07-.03-.1l-.375-.96v0c-.02-.04-.03-.07-.05-.11v0c-.02-.04-.04-.07-.06-.1l-.001-.001c-.02-.03-.04-.05-.06-.07v-.001c-.03-.02-.05-.03-.08-.04v0c-.02-.01-.04-.01-.06-.01 -.03-.01-.04-.01-.06-.01v0c-.02 0-.04-.01-.05-.02v0c-.02-.02-.03-.03-.03-.05v0c-.01-.02-.01-.03-.01-.05 0-.02.01-.03.03-.03 .05-.01.1-.01.15-.01 .04 0 .09 0 .15-.01l.87-.04Zm-4.11 7.47v0c-.02-.05-.03-.1-.05-.14h0c-.02-.04-.04-.07-.06-.1v0c-.03-.03-.05-.05-.08-.06v0c-.04-.02-.08-.02-.12-.02v0c-.02 0-.04-.01-.05-.02v0c-.02-.02-.02-.03-.03-.05v0c-.01-.02-.01-.03 0-.05 0-.02.01-.03.03-.03l.07-.01 .07-.01 .06-.01 .08-.01c.07-.01.14-.02.2-.02 .06-.01.12-.02.19-.02v0c.26-.02.52.05.74.2 .1.07.19.16.26.26s.12.22.15.35v0c.03.12.04.25.02.37v0c-.02.1-.06.19-.13.27l-.001-.001c-.07.07-.15.13-.25.17 -.1.04-.22.06-.34.07v0c-.08 0-.15 0-.22 0v0c-.15-.01-.3 0-.44.03l-.09.01h0c-.02 0-.05-.01-.06-.02v0c-.02-.02-.03-.03-.03-.05v0c-.01-.02-.01-.03 0-.05 0-.02.01-.03.03-.03v0c.03-.01.06-.02.08-.03v0c.02-.01.03-.02.05-.04v0c.01-.02.01-.04.01-.06v0c0-.04-.01-.07-.02-.1l-.24-.96Zm.51.76c.02.08.03.14.05.19h-.001c.01.03.03.07.06.09 .02.02.05.03.09.03h-.001c.05 0 .1 0 .15 0v0c.12-.01.24-.08.29-.2h-.001c.03-.08.04-.15.04-.23v0c-.01-.22-.06-.42-.15-.61v0c-.05-.09-.1-.16-.18-.22v0c-.08-.06-.16-.11-.25-.13 -.1-.03-.21-.04-.34-.03 -.03 0-.04 0-.05.01 -.01 0-.01.02 0 .04l.24 1Zm2.2-1.39v0c.01-.01.03-.01.04 0 .02 0 .04.02.04.06 0 .01 0 .02 0 .04l.01.04 .01.04c0 .03.01.07.03.11 .01.03.02.06.02.09 0 .01-.01.02-.02.03v0c-.02 0-.03.01-.05.01h-.001c-.02 0-.03-.01-.05-.01 -.02-.01-.03-.02-.04-.04v0c-.03-.05-.05-.1-.07-.14v-.001c-.02-.03-.04-.06-.06-.08v0c-.03-.02-.06-.03-.09-.03v0c-.05-.01-.09-.01-.14-.01l-.15 0v-.001c-.04 0-.07 0-.11 0 -.03 0-.04 0-.05.01 -.01 0-.01.02-.01.04h-.001c0 .03.01.06.01.09l.1.43c0 .01 0 .02 0 .02s0 0 0 0c.07-.01.13-.02.17-.02 .03-.01.06-.02.07-.04v0c.01-.02.02-.04.02-.07l0-.001c0-.04-.01-.08-.01-.11 -.01-.02 0-.03.01-.04v-.001c.01-.01.02-.02.04-.02v0c.01-.01.03 0 .04.01 .01 0 .02.02.03.03v0c0 .02.01.04.01.07l.01.06 .01.06 .01.07c.01.05.02.09.03.13 0 .01.01.04.02.07v0c0 .02.01.05.02.08 0 .01 0 .03-.02.03v0c-.02 0-.03.01-.05.01v0c-.02 0-.04-.01-.05-.01v0c-.02-.01-.03-.02-.04-.04v0c-.02-.04-.03-.08-.05-.12h0c-.02-.03-.03-.05-.06-.06v0c-.03-.02-.07-.03-.1-.03v0c-.06-.01-.12-.01-.18 0 -.01 0-.01 0-.01 0 -.01 0-.01 0 0 .01l.07.32c.01.07.03.13.05.17v0c.01.03.03.06.05.08v0c.02.01.06.02.09.03v0c.09 0 .19 0 .28-.02v0c.02-.01.04-.01.06-.02v0c.02-.02.04-.03.06-.04v0c.01-.02.03-.04.04-.05v0c.01-.03.01-.05.01-.08v0c0-.05 0-.09-.01-.12 -.01-.02 0-.03.01-.04v0c.01-.01.02-.02.04-.02v0c.01-.01.03 0 .05.01v0c.01 0 .02.02.03.03l.02.19c0 .06.01.12.03.18 0 0 0 .01 0 .01v-.001c-.01 0-.01.01-.01.02v0c-.01 0-.02.01-.03.01h-.001c-.02 0-.03 0-.04 0l-.89.05 -.001 0c-.07 0-.13 0-.18.01l-.16.01v0c-.02 0-.04-.01-.06-.02v0c-.02-.02-.03-.03-.03-.05v0c-.01-.02-.01-.03 0-.04 0-.02.01-.03.03-.03v0c.03-.01.06-.02.08-.03v-.001c.02-.01.03-.03.05-.04v0c.01-.02.01-.04.02-.06l-.001-.001c0-.04-.01-.07-.02-.1l-.23-.96 -.001 0c-.01-.04-.02-.07-.03-.11v0c-.01-.04-.03-.07-.04-.1v0c-.02-.03-.03-.05-.05-.07v-.001c-.02-.02-.05-.03-.07-.04v0c-.02-.01-.04-.01-.06-.01l-.06-.01v0c-.02 0-.04-.01-.05-.02v0c-.02-.02-.02-.03-.03-.05v0c-.01-.02-.01-.04 0-.05 0-.02.01-.03.03-.03 .05-.01.1-.01.15-.01 .04 0 .09-.01.15-.01l.87-.06Zm2.02 1.28c.01.04.02.08.04.1v0c.01.02.04.04.07.06v-.001c.03.01.06.02.1.03 .04 0 .08.01.13.01h0c.01 0 .03 0 .04.02v0c.01.01.01.02.02.04v0c0 .01 0 .02-.01.04 -.01.01-.03.02-.05.02v-.001c-.04 0-.08 0-.12 0l-.13-.01 -.13-.01c-.05 0-.08 0-.12 0 -.03 0-.07 0-.11 0v0c-.04 0-.08 0-.12.01l-.12.01v0c-.04 0-.07 0-.11 0v-.001c-.02 0-.04-.01-.06-.02v0c-.02-.02-.03-.03-.03-.05v0c-.01-.02-.01-.03 0-.05 0-.02.01-.03.03-.03 .04-.01.09-.02.12-.03h0c.03-.01.06-.03.09-.05l0 0c.02-.02.04-.04.04-.07v0c0-.04 0-.08-.01-.11l-.23-.98 0-.001c-.01-.03-.02-.05-.03-.08v-.001c-.01-.02-.02-.03-.03-.05v-.001c-.02-.02-.03-.02-.05-.02v-.001c-.03-.01-.05-.01-.08-.01v0c-.06 0-.11.01-.17.01 -.03 0-.05-.01-.06-.02v0c-.02-.02-.03-.03-.03-.05h0c-.01-.02-.01-.03 0-.04 0-.02.01-.03.03-.04 .08-.03.17-.06.25-.09v0c.08-.04.16-.07.25-.09l-.001-.001c.02-.01.04-.01.06 0 .02 0 .03.02.04.04l.3 1.33Zm1.15-1.04v0c-.02-.08-.05-.15-.1-.21 -.05-.05-.11-.07-.19-.07 -.07 0-.13.02-.16.07 -.04.04-.04.11-.03.19v0c0 .03.02.06.04.09 .02.02.05.05.08.07v0c.03.02.07.04.11.06l.14.06 -.01-.01c-.01-.01-.01-.01-.01-.01l-.001-.001c.03-.04.06-.08.07-.13v0c.01-.06.01-.13-.01-.19Zm.26.9h-.001c-.01-.05-.04-.09-.06-.13v-.001c-.04-.04-.07-.07-.11-.1v0c-.05-.03-.09-.06-.14-.08l-.17-.08c-.01-.01 0-.01 0-.01V94.4c-.05.03-.09.09-.12.14v0c-.03.05-.03.12-.02.18h0c.01.09.06.19.13.26 .06.06.14.08.23.08 .08-.01.15-.04.19-.1v-.001c.04-.07.05-.15.03-.22Zm.27-.07v0c.01.07.01.14-.01.21v0c-.03.06-.06.11-.11.15v0c-.05.04-.11.07-.18.09v0c-.07.02-.14.03-.21.03v0c-.08 0-.15-.01-.22-.02v0c-.07-.02-.14-.04-.2-.08v-.001c-.13-.07-.23-.2-.25-.34v0c-.03-.1-.02-.21.03-.3v0c.04-.09.12-.15.22-.18v-.001c-.09-.04-.18-.09-.25-.15v-.001c-.13-.11-.18-.28-.15-.44v0c.01-.06.04-.11.08-.15l0 0c.04-.05.09-.08.14-.1v0c.12-.05.26-.06.39-.02v0c.12.03.24.1.32.2 .04.05.06.11.08.18v0c.01.08 0 .16-.05.23l-.001-.001c-.03.03-.06.06-.09.09v0c-.03.02-.07.04-.11.05v0c.04 0 .09.02.14.04v0c.05.02.1.05.14.09V94.3c.09.07.15.18.18.3Zm1.02.17c.06-.01.11-.03.14-.06 .02-.04.04-.11.04-.21 0-.02 0-.03.01-.04v0c.01-.01.02-.02.03-.02v0c.01-.01.03 0 .05.01 .01.01.03.02.03.04v-.001c.01.05.01.11.02.17v0c0 .05-.01.11-.02.16l-.001 0c-.02.04-.04.08-.07.12v0c-.04.03-.09.05-.14.05l0 0c-.06 0-.12 0-.17-.01h0c-.06-.01-.12-.01-.17-.02l-.16-.02c-.05-.01-.09-.01-.13-.01v0c-.05-.01-.09 0-.13.02v0c-.04.01-.07.02-.1.03 -.04 0-.07-.01-.08-.03v0c-.02-.02-.03-.04-.03-.07h-.001c-.01-.02-.01-.04-.01-.05v0c.02-.14.07-.27.16-.38 .03-.05.07-.1.11-.13l.11-.12c.03-.04.07-.08.1-.11v0c.1-.11.14-.26.1-.4v0c-.02-.1-.06-.19-.12-.26v0c-.07-.07-.17-.11-.26-.1v0c-.05 0-.09.01-.12.03l-.001 0c-.03.01-.06.03-.08.06v0c-.02.02-.03.04-.04.07v0c-.01.01-.01.03-.01.05v0s0 .01 0 .02v0c0 .02.02.03.04.04v0c.01 0 .03 0 .04 0 .04-.01.08 0 .1.03v0c.02.02.04.05.04.08v-.001c0 .03 0 .07-.02.1 -.02.02-.06.04-.11.04v0c-.05 0-.09-.01-.125-.03v0c-.04-.02-.07-.04-.09-.07v0c-.03-.03-.04-.06-.06-.09l0-.001c-.04-.09-.05-.18-.03-.26v0c.01-.06.04-.11.07-.16v0c.04-.05.09-.09.14-.11v0c.06-.03.13-.05.21-.05V93.2c.08-.01.17 0 .25.02v-.001c.06.01.13.05.19.09v0c.05.04.09.09.13.14l-.001 0c.03.05.05.12.07.18v0c.02.08.01.17-.01.26v0c-.03.07-.07.14-.12.2v0c-.06.06-.12.11-.18.16 -.03.01-.06.04-.09.06h-.001c-.04.02-.06.05-.09.07v0c-.05.04-.09.08-.13.13v0c-.03.04-.04.09-.03.13 -.01-.02 0-.03.02-.04v0c.07-.03.16-.03.24-.02 .03 0 .06 0 .09 0 .02 0 .05 0 .07 0v0c.02 0 .04 0 .07 0Zm1.23-.14c.01.04.02.08.04.1v0c.01.02.04.04.06.06l0-.001c.03.01.06.02.1.03 .04 0 .08.01.13.01v0c.01 0 .03.01.04.02v-.001c.01.01.01.02.02.04h-.001c0 .01 0 .02-.01.04 -.01.01-.03.02-.05.02v0c-.04 0-.08 0-.12-.01l-.13-.01 -.13-.01 -.12-.01h0c-.04 0-.08 0-.11 0l-.13.01 -.12.01v0c-.04 0-.07 0-.11 0v0c-.02 0-.04-.01-.06-.03v0c-.02-.02-.03-.03-.03-.05v0c-.01-.02-.01-.03 0-.05 0-.02.02-.03.03-.03 .04-.01.09-.02.12-.03l-.001-.001c.03-.01.06-.03.09-.04l-.001 0c.02-.02.04-.04.05-.07v0c.01-.04.01-.08 0-.11l-.21-.98v-.001c-.01-.03-.02-.05-.02-.08v0c-.01-.02-.02-.04-.03-.05v-.001c-.02-.02-.03-.02-.05-.02v-.001c-.03-.01-.06-.01-.08-.01l-.08 0 -.1.01c-.03 0-.05-.01-.06-.02v0c-.03-.03-.04-.06-.03-.09 0-.02.01-.03.03-.03 .08-.03.17-.06.25-.08 .08-.03.16-.06.25-.09v0c.02-.01.04-.01.06 0 .02 0 .03.02.04.04l.27 1.33Zm-14.33-10.48v0c-.02-.05-.04-.09-.07-.13h-.001c-.02-.03-.04-.06-.07-.08v0c-.03-.02-.06-.04-.08-.05v0c-.04-.01-.08-.02-.12-.02v0c-.02 0-.04-.01-.06-.02v-.001c-.02-.02-.03-.03-.04-.05 -.01-.02-.01-.03-.01-.05 0-.02.01-.03.03-.03 .04-.01.1-.01.18-.01v0c.09-.01.19-.01.28-.02l.08-.01v0c.05-.01.11-.02.17-.02v0c.01-.01.03 0 .05.01V83.8c.01.01.02.02.02.03 0 .01 0 .03 0 .04 -.01.01-.02.02-.03.02v-.001c-.04 0-.08.01-.11.02s-.04.02-.05.04v-.001c-.01.02-.01.05 0 .08s.02.07.05.13l.36.86c.02.05.04.09.06.12 .01.03.03.06.05.07 .02.01.04.03.06.04v0c.05.02.1.03.16.03l.08-.01v0c.04-.01.09-.02.13-.03v0c.03-.02.05-.03.07-.06v0c.01-.04.02-.07.03-.11v0c0-.06-.01-.12-.02-.18 -.01-.02 0-.03.01-.04v0c.01-.01.02-.02.04-.02h0c.01-.01.03 0 .05 0v0c.01 0 .03.01.03.03l.07.21c.02.07.05.13.07.2v0s0 .01 0 .01v0s-.01.01-.01.02v0c-.01 0-.02.01-.02.01v0c-.02 0-.03 0-.04 0l-.88.06v0c-.06 0-.12.01-.18.01l-.17.02v0c-.02 0-.04-.01-.06-.02v0c-.02-.02-.03-.03-.04-.05v0c-.01-.02-.01-.04-.01-.05v0c0-.02.01-.03.02-.03 .04-.01.08-.02.1-.03 .02-.01.04-.02.04-.04s0-.04 0-.07v0c-.02-.05-.03-.09-.05-.12l-.42-.98 -.01-.01Zm1.5-.11h-.001c-.02-.05-.04-.09-.07-.125v0c-.02-.03-.04-.06-.07-.08v0c-.03-.02-.06-.04-.08-.05v0c-.04-.02-.08-.02-.12-.02v0c-.02 0-.04-.01-.06-.02v-.001c-.02-.02-.03-.03-.04-.05v-.001c-.01-.02-.01-.03-.01-.05 0-.02.01-.03.03-.03 .04-.01.1-.01.17-.01 .06 0 .13-.01.19-.01 .03-.01.07-.01.09-.01l.08-.01 .08-.02c.03-.01.06-.01.09-.01v0c.01-.01.03 0 .05.01v0c.01.01.02.02.02.04h-.001c0 .01 0 .02 0 .04 -.01.01-.02.02-.03.02v0c-.04 0-.08.01-.11.02v0c-.03 0-.04.02-.05.04h0c-.01.02-.01.05 0 .08s.02.07.05.13l.41.97v-.001c.01.04.03.08.05.12v0c.01.02.03.04.05.05v0c.02.01.04.02.07.02 .03 0 .07 0 .11.01 .02 0 .03 0 .05.02v0c.01.01.02.02.03.04h-.001c0 .01 0 .02 0 .04 -.01.01-.02.02-.04.02 -.07 0-.13 0-.2 0v0c-.13-.01-.25 0-.37.02v0c-.06.01-.12.01-.18.02v0c-.02 0-.04-.01-.06-.02v0c-.02-.02-.03-.03-.03-.05v-.001c-.01-.02-.01-.03-.01-.05 0-.02.01-.03.02-.03v-.001c.03-.01.07-.02.1-.03 .02-.01.04-.02.04-.04s0-.04 0-.07v0c-.02-.05-.03-.09-.05-.13l-.42-.98Zm1.39.22v0c0 .01.01.02.01.03 0 0 .01 0 .03 0l.04-.01v0c.04-.01.09-.01.13-.03v0c.03-.01.06-.03.08-.06v0c.02-.03.03-.07.03-.1v0c-.01-.06-.02-.11-.04-.16v0c-.02-.05-.05-.1-.08-.14v0c-.05-.07-.13-.12-.21-.13v0c-.05-.01-.1-.02-.14-.01l-.09 0c-.02 0-.02 0-.03 0 -.01 0-.01 0-.01.01 0 0 0 .01 0 .02l.02.05 .19.46Zm.2.49c.03.09.06.15.09.2 .02.04.05.08.07.1v0c.02.02.04.03.07.03 .03 0 .07 0 .12 0 .1-.01.16-.04.18-.09 .02-.06.01-.14-.04-.24v0c-.03-.07-.07-.13-.11-.19v-.001c-.08-.09-.17-.14-.28-.15v0c-.06-.01-.11-.01-.17-.01l-.05 0c-.03 0-.04 0-.05.01 -.01 0 0 .02.01.06l.09.23Zm-.64-.75v0c-.02-.04-.03-.07-.05-.11v0c-.02-.04-.04-.07-.06-.1v0c-.02-.03-.04-.05-.07-.07v-.001c-.03-.02-.05-.03-.08-.04l-.001 0c-.02-.01-.04-.01-.06-.01l-.06-.01v0c-.02 0-.04-.01-.05-.02v-.001c-.02-.02-.03-.03-.04-.05v-.001c-.01-.02-.01-.03-.01-.05 0-.02.01-.03.03-.03v0c.02-.01.04-.01.07-.01l.07-.01 .06-.01 .08-.01 .08-.01 .08-.01 .09-.01 .07-.01v0c.09-.01.19-.01.28.01 .05 0 .09.02.15.04v0c.1.03.19.09.26.18v0c.07.08.11.18.12.29h-.001c0 .07-.04.15-.09.2v0c-.03.02-.06.04-.1.06 0-.01 0-.01 0-.01l0-.001c-.01-.01-.01-.01-.02-.01 .14.02.27.07.37.14 .1.07.18.17.24.3 .03.09.05.16.04.22v-.001c-.01.05-.03.1-.07.15v0c-.05.03-.1.06-.15.08h0c-.07.01-.13.02-.2.03v0c-.08 0-.15 0-.23 0l-.13 0 -.12 0 -.1 0 -.08 0 -.08.01 -.09.01v0c-.02 0-.05-.01-.06-.02v0c-.02-.02-.03-.03-.04-.05 -.01-.02-.01-.03-.01-.05 0-.02.01-.03.02-.03v0c.03-.01.05-.02.08-.03v0c.01-.01.03-.02.04-.04 0-.02.01-.04 0-.06v0c-.01-.04-.02-.07-.03-.1l-.4-.95Zm2.31-.6v0c.01-.01.03-.01.04 0 .02 0 .04.02.06.06 0 .01 0 .02.01.04l.01.04 .01.04c.01.03.03.07.04.11 .01.03.03.06.04.09 0 .01 0 .02-.01.03v0c-.02 0-.03.01-.04.01h-.001c-.02 0-.03-.01-.05-.01 -.02-.01-.03-.02-.05-.04v0c-.03-.05-.06-.1-.1-.14v0c-.02-.03-.05-.06-.08-.08h0c-.03-.02-.06-.03-.09-.03h-.001c-.05-.01-.09-.01-.14-.01l-.15 0c-.05 0-.08 0-.11 0s-.04 0-.05.01c-.01 0-.01.02 0 .03 0 .01.01.05.03.09l.17.43V84.2s0 .01.01.02v0c.05-.01.11-.01.17-.02 .03-.01.06-.02.07-.04 .01-.02.01-.04.01-.06v0c-.01-.04-.02-.08-.03-.11 -.01-.02 0-.03.01-.04v0c.01-.01.02-.02.04-.02v0c.01-.01.03 0 .04.01 .01 0 .02.02.03.03l.02.07 .02.06 .02.06h0c.02.07.05.14.09.2v0c.02.04.04.09.07.15 0 .01 0 .03-.01.03v0c-.02 0-.03.01-.04.01v0c-.02 0-.04-.01-.05-.01v0c-.02-.01-.04-.02-.05-.04v0c-.02-.04-.05-.08-.07-.12v0c-.02-.03-.04-.05-.07-.06v0c-.04-.02-.07-.03-.1-.03v0c-.06-.01-.12-.01-.18 0l-.01 0c-.01 0 0 0 0 .01l.13.32c.03.07.05.13.08.17 .02.04.04.06.07.08v-.001c.03.01.06.02.1.03v0c.09 0 .18 0 .28-.02h0c.02-.01.04-.01.06-.02v0c.02-.02.04-.03.06-.04h-.001c.01-.02.02-.04.03-.05h0c0-.03 0-.05 0-.08v0c-.01-.05-.02-.09-.03-.12 -.01-.02 0-.03.01-.04v0c.01-.01.02-.02.04-.02v0c.01-.01.03 0 .05.01 .02 0 .03.02.03.03l.05.19c.01.06.04.12.06.18v0s0 .01 0 .01v0s-.01.01-.01.02l0 0c-.01 0-.02.01-.02.01v0c-.02 0-.03 0-.04 0l-.89.05c-.07 0-.12 0-.18.01l-.16.01v-.001c-.03 0-.05-.01-.06-.02V85c-.02-.02-.03-.03-.04-.05 -.01-.02-.01-.03-.01-.04 0-.02.01-.03.03-.03v0c.02-.01.05-.02.08-.03v0c.01-.01.03-.03.04-.04v0c0-.02.01-.04.01-.06v0c-.01-.04-.02-.07-.03-.1l-.4-.96v0c-.02-.04-.03-.07-.05-.11v0c-.02-.04-.04-.07-.06-.1v-.001c-.02-.03-.04-.05-.07-.07v-.001c-.03-.02-.05-.03-.08-.04h-.001c-.02-.01-.04-.01-.06-.01l-.06-.01h0c-.02 0-.04-.01-.05-.02v0c-.02-.02-.03-.03-.03-.05 -.01-.02-.01-.03-.01-.05 0-.02.01-.03.03-.03 .05-.01.1-.01.15-.01 .04 0 .09-.01.15-.01l.87-.05Zm.72.41h0c-.02-.04-.03-.07-.05-.11v0c-.03-.06-.07-.12-.12-.16v0c-.03-.02-.05-.03-.08-.04v-.001c-.02-.01-.04-.01-.06-.01 -.03-.01-.04-.01-.06-.01h-.001c-.02 0-.04-.01-.05-.02v0c-.02-.02-.03-.03-.03-.05v0c-.01-.02-.01-.03-.01-.05 0-.02.01-.03.03-.03l.07-.01h.14l.08-.01h0c.07-.01.15-.02.23-.02 .07-.01.13-.02.18-.02v0c.07-.01.14 0 .21.01v0c.15.02.28.1.39.21v0c.1.1.16.24.17.38h-.001c0 .09-.05.17-.12.22v0c-.05.02-.09.04-.13.05 0-.01 0-.01 0-.01v-.01 0c.1.03.21.09.3.16v0c.03.02.06.06.09.09v0c.05.06.09.13.14.2 .01.03.04.06.06.1 .02.03.04.06.06.07 .02.01.03.01.04.01 .01-.01.02-.01.03-.02 0-.02.01-.04 0-.07 -.01-.02-.01-.03 0-.04v0c0-.01.02-.02.03-.02v0c.02-.01.04 0 .05.01v0c.01.01.03.02.04.04 .01.04.01.08 0 .11l-.001-.001c-.01.06-.06.11-.12.13v0c-.06.02-.13.02-.19.01v0c-.09-.02-.18-.07-.23-.14v0c-.03-.03-.05-.06-.07-.1l-.07-.1 -.07-.1 -.06-.09h0c-.06-.08-.12-.16-.2-.21h-.001c-.06-.05-.13-.06-.2-.06 -.03 0-.04 0-.05.01 -.01 0-.01.02 0 .05l.13.33v0c.01.04.03.08.06.12 .02.03.04.05.07.06h-.001c.02.01.05.02.09.03l-.001-.001c.03 0 .07 0 .11.01v0c.01-.01.03 0 .05.02v0c.01.01.02.02.03.04 0 .01 0 .03 0 .04 -.01.01-.02.02-.04.02l-.12 0 -.11-.01 -.1-.01v0c-.09-.01-.18 0-.27.02 -.06.01-.12.01-.18.01v0c-.02 0-.04-.01-.06-.02v0c-.02-.02-.03-.03-.04-.05 -.01-.02-.01-.03-.01-.05 0-.02.01-.03.02-.03v-.001c.03-.01.06-.02.1-.03 .02-.01.03-.03.04-.04 0-.02 0-.04 0-.07v0c-.01-.04-.03-.08-.04-.12l-.38-.94Zm.43.27c.01.03.02.04.03.05v0c.03 0 .06 0 .1 0v0c.04-.01.09-.01.14-.03v0c.03-.01.05-.04.07-.06l-.001-.001c.01-.04.01-.07 0-.11v0c-.02-.06-.03-.11-.05-.17v0c-.03-.06-.05-.11-.08-.16l0 0c-.03-.04-.06-.07-.09-.1v0c-.04-.03-.08-.04-.11-.05 -.05-.01-.09-.02-.15-.01 -.06 0-.09 0-.1.01 -.02.01-.01.04 0 .08l.19.49Zm2.25.53v0c.01.04.03.08.05.12v0c.01.02.02.04.05.05h0c.02.01.04.02.07.02 .03 0 .07.01.125.01 .02 0 .03.01.05.02v-.001c.01.01.02.02.03.04v0c0 .01 0 .02 0 .04 -.01.01-.02.02-.04.02l0-.001c-.07 0-.13 0-.2-.01v0c-.13-.01-.25-.01-.37.01v0c-.06 0-.12.01-.18.01v0c-.02 0-.04-.01-.06-.02v0c-.02-.02-.03-.03-.03-.05v0c-.01-.02-.01-.03-.01-.05 0-.02.01-.03.02-.03v0c.03-.01.07-.02.11-.03 .02-.01.04-.02.04-.04s.01-.04 0-.07v0c-.02-.05-.03-.09-.04-.12l-.44-1.11c-.02-.06-.05-.09-.08-.1v0c-.05-.02-.1-.02-.15-.02h0c-.05 0-.1 0-.14.01v0c-.03 0-.06.02-.07.04v-.001c-.02.02-.03.06-.02.09 0 .04 0 .09.02.15 0 .01 0 .03-.02.03l0 0c-.02 0-.03 0-.05 0v0c-.02-.01-.04-.01-.05-.02v0c-.02-.01-.03-.03-.04-.04v0c-.04-.13-.09-.26-.15-.38 -.02-.04-.01-.06.02-.07v0c.02-.02.05-.02.08-.02l1.3-.06v0c.03-.01.06 0 .09 0v0c.03 0 .05.02.06.05V83.2c.01.05.03.11.05.16l.04.1 .05.1c0 .01 0 .02-.01.03v-.001c-.01 0-.03.01-.04.01v0c-.02 0-.04 0-.05-.01l0-.001c-.02-.01-.04-.02-.05-.04v0c-.03-.06-.07-.11-.11-.16v0c-.03-.04-.06-.07-.1-.09v0c-.04-.03-.07-.04-.11-.04v0c-.05-.01-.1-.01-.14-.01 -.07 0-.12.01-.14.02 -.03.01-.03.04-.01.09l.43 1.1Zm1.16-.29c-.02 0-.03 0-.04 0 -.01 0-.01.01-.01.03l0 .29v0c0 .01 0 .03 0 .05l0-.001c0 .01.01.02.02.04 .01.01.02.01.04.02v0c.01 0 .04.01.06.01v0c.02 0 .04 0 .06 0v0c.02-.01.04 0 .05.02v0c.01.01.02.02.02.04v-.001c0 .01 0 .02 0 .04 -.01.01-.02.02-.04.02 -.03 0-.05 0-.07-.01l-.08-.01 -.08-.01 -.07-.01v0c-.04 0-.08 0-.12.01v-.001c-.05 0-.09.01-.13.01l0-.001c-.03 0-.05-.01-.06-.03v0c-.02-.02-.03-.03-.04-.05v0c-.01-.02-.01-.03-.01-.04 0-.02.01-.03.03-.03l.03-.01v0c.01-.01.03-.02.05-.03v0c.01-.01.02-.02.03-.04l0 0c.01-.02.01-.04.02-.06h0c0-.05 0-.09 0-.13l0-1.42c-.01-.03.01-.04.05-.04 .03-.01.06 0 .09.03l.26.34 .28.36 .28.36c.09.11.18.23.28.35l0-.001c.02.03.06.07.09.1v0c.02.02.04.03.07.05v0c.01.01.03.01.06.02l.06.01v-.001c.01 0 .03.01.04.02v0c.01.01.02.02.02.04v0c0 .01 0 .02 0 .04 -.01.01-.02.02-.04.02v0c-.06 0-.11 0-.16-.01 -.03-.01-.06-.01-.08-.01v0c-.1-.01-.19 0-.28.01v0c-.06 0-.12.01-.18.01v0c-.03 0-.05-.01-.06-.03v0c-.02-.02-.03-.03-.04-.05v0c-.01-.02-.01-.03-.01-.05 0-.02.01-.03.03-.03v0c.03-.01.07-.02.1-.04 .01-.01.01-.03 0-.07v0c-.01-.02-.02-.03-.02-.04 -.01-.02-.03-.04-.04-.06v0c-.07-.09-.13-.17-.19-.25 -.02-.02-.03-.03-.04-.03l0-.001c-.02-.01-.04-.01-.06-.01l-.44.01Zm.36-.16c.01 0 .02-.01.02-.01 0-.01 0-.01-.01-.01l-.45-.59s0 0 0 0c0-.01 0-.01 0-.01v.59c-.01.01-.01.01-.01.01h.01l.39-.02Zm.95-.58h0c-.02-.05-.04-.1-.07-.14v0c-.02-.04-.05-.07-.07-.1v0c-.03-.03-.06-.05-.09-.06v0c-.04-.02-.08-.03-.12-.03v-.001c-.02 0-.04-.01-.06-.02v0c-.02-.02-.03-.03-.03-.05h0c-.01-.02-.01-.03-.01-.05 0-.02.01-.03.03-.03h.07c.02 0 .05 0 .07 0l.06 0 .08-.01c.07-.01.14-.01.2-.01 .06-.01.12-.01.19-.01 .13-.01.27.01.4.06v0c.26.08.5.24.68.45 .08.1.15.22.2.35v0c.04.11.07.24.07.37v0c-.01.09-.04.19-.1.26v0c-.06.07-.14.13-.23.16v0c-.11.03-.23.05-.34.05v0c-.08 0-.15-.01-.23-.01v0c-.07-.01-.13-.01-.19-.01v0c-.04 0-.07 0-.1 0l-.08 0 -.08 0 -.09.01v0c-.03 0-.05-.01-.06-.02v0c-.02-.02-.03-.03-.04-.05v-.001c-.01-.02-.01-.03-.01-.04 0-.02.01-.03.03-.03h-.001c.02-.01.05-.02.08-.03v0c.01-.01.03-.02.04-.04 .01-.02.01-.04.01-.06v0c-.01-.04-.02-.07-.03-.1l-.36-.96Zm.61.78c.03.08.05.14.08.19v0c.01.03.04.07.07.09v-.001c.02.02.06.03.09.03h0c.05 0 .1 0 .15 0h0c.06 0 .12-.02.17-.05v0c.04-.04.08-.08.1-.14l0-.001c.02-.08.02-.15.02-.22v0c-.04-.22-.12-.43-.23-.62v0c-.11-.18-.28-.31-.47-.36v0c-.12-.04-.24-.05-.35-.05 -.03 0-.04 0-.05.01 -.01 0-.01.02 0 .04l.37 1Zm-10.1 6.69v0c.01.04.03.08.06.11v-.001c.02.02.06.05.09.07v-.001c.03.02.07.03.11.05l.12.04c.07.02.15.05.22.08 .07.02.14.06.2.1v0c.06.04.12.09.17.15v-.001c.05.06.09.14.12.22l-.001 0c.02.07.03.15.02.23v0c-.02.06-.05.11-.1.16v0c-.05.04-.11.07-.17.1v0c-.13.04-.25.05-.38.03v0c-.07-.01-.13-.03-.19-.06v0c-.01-.01-.02-.01-.03-.01 -.01-.01-.02-.01-.03-.01 -.01 0-.02 0-.02.01 -.01 0-.01.02-.02.04l-.001 0c-.01.01-.01.02-.03.03v0c-.02 0-.03.01-.04 0v0c-.02-.01-.03-.01-.05-.02v0c-.02-.01-.03-.03-.03-.04v0c-.01-.04-.02-.08-.03-.12h-.001c-.04-.14-.09-.26-.15-.39 -.01-.02-.01-.04 0-.05h-.001c0-.02.02-.03.03-.03v0c.01-.01.03 0 .04 0v0c.01 0 .02.01.03.03l-.001 0c.03.06.07.12.11.18v0c.04.04.08.09.13.12 .04.03.1.05.15.07h-.001c.05.01.1.02.16.01v0c.03-.01.07-.02.11-.03h-.001c.03-.02.05-.04.08-.06v0c.02-.03.03-.06.03-.09v-.001c0-.04-.01-.08-.02-.12v0c-.02-.06-.05-.11-.09-.15v0c-.04-.04-.08-.08-.125-.11l0-.001c-.05-.03-.1-.06-.15-.07l-.16-.06 -.19-.07v0c-.07-.03-.13-.06-.19-.09v0c-.06-.04-.12-.09-.16-.14v0c-.06-.06-.09-.13-.12-.21v0c-.03-.07-.04-.15-.03-.22h-.001c.01-.06.04-.11.08-.15v0c.04-.05.1-.08.16-.09v0c.1-.04.21-.05.32-.04 .03 0 .07.01.12.02l.05.01v0c.01 0 .02 0 .03 0 0-.01.01-.01.01-.02 0-.02 0-.03.02-.03v0c.01-.01.02-.01.03-.01v0c.01 0 .02 0 .04.01 .01 0 .02.01.03.03 0 .03 0 .05.01.08v0c.01.07.04.14.07.2 .01.03.03.07.05.125 0 .01 0 .02-.01.03v-.001c-.01 0-.03.01-.04.01v0c-.02 0-.03 0-.05-.01v0c-.02-.01-.03-.02-.04-.03v-.001c-.04-.07-.08-.12-.12-.18V90.8c-.03-.04-.07-.08-.11-.1v0c-.04-.03-.08-.04-.12-.05v0c-.05-.01-.1-.01-.15-.01v0c-.04 0-.07.01-.11.02v0c-.03.01-.06.02-.08.05v0c-.02.02-.03.04-.04.07l0 0c-.01.03-.01.06 0 .09Zm2.09-.52v0c.01-.01.03-.01.04 0 .02 0 .04.02.05.06 0 .01 0 .02 0 .04l.01.04 .01.04c.01.03.02.07.04.11 .01.03.02.06.03.09 0 .01 0 .02-.02.03v0c-.02 0-.03.01-.04.01v0c-.02 0-.03-.01-.05-.01 -.02-.01-.03-.02-.04-.04h0c-.03-.05-.06-.1-.08-.14v0c-.02-.03-.05-.06-.07-.08v0c-.03-.02-.06-.03-.09-.03v0c-.05-.01-.09-.01-.14 0l-.15.01c-.05 0-.08 0-.11 0s-.04 0-.05.01c-.01 0-.01.02-.01.04v0c0 .03.01.06.02.09l.14.43c0 .01 0 .02.01.02v0c.05-.01.11-.01.17-.02 .03-.01.06-.03.07-.04v0c.01-.02.01-.04.01-.07l-.001 0c-.01-.04-.01-.08-.02-.11v0c-.01-.02 0-.04.01-.04v0c.01-.01.02-.02.04-.02v0c.01-.01.03 0 .04.01v0c.01 0 .02.02.03.03l.02.07 .01.06 .01.06v0c.01.07.04.14.07.2v0c.02.04.04.09.06.15 0 .01 0 .03-.01.04v0c-.02 0-.03.01-.04.01v0c-.02 0-.04-.01-.05-.01V91.7c-.02-.01-.04-.02-.04-.04v0c-.02-.04-.04-.08-.06-.12v0c-.02-.03-.04-.05-.06-.06v0c-.04-.02-.07-.03-.1-.03v0c-.06-.01-.12 0-.18 0 -.01 0-.01 0 0 .01l.11.32c.02.07.04.13.06.17 .02.04.04.06.06.08v0c.03.01.06.02.1.02v0c.09 0 .18-.01.28-.02v0c.04-.01.09-.03.13-.06v-.001c.01-.02.03-.04.03-.06v0c0-.03.01-.05.01-.08h-.001c-.01-.05-.01-.09-.02-.12 -.01-.02 0-.03.01-.04v0c.01-.01.02-.02.04-.02v0c.01-.01.03 0 .05.01v0c.01 0 .03.02.03.03l.04.19c.01.06.03.12.05.18v0s0 .01 0 .01v-.001s-.01.01-.01.02v0c-.01 0-.02.01-.03.01v0c-.02 0-.03 0-.04 0l-.89.06c-.07 0-.12.01-.18.01l-.16.02v0c-.02 0-.04-.01-.06-.02v-.001c-.02-.02-.03-.03-.03-.05v0c-.01-.02-.01-.03-.01-.04 0-.02.01-.03.03-.03v0c.02-.01.05-.02.08-.03v0c.01-.01.03-.03.04-.04v-.001c.01-.02.01-.04.01-.06l0-.001c-.01-.04-.01-.07-.02-.1l-.33-.96v0c-.02-.04-.03-.07-.04-.11v0c-.02-.04-.03-.07-.05-.1h0c-.02-.03-.04-.05-.06-.07v-.001c-.03-.02-.05-.03-.07-.04v0c-.04-.01-.08-.02-.12-.02v0c-.02 0-.04-.01-.05-.02v0c-.02-.02-.03-.03-.03-.05v0c-.01-.02-.01-.04-.01-.05 0-.02.01-.03.03-.03 .05-.01.1-.01.15-.01 .04-.01.09-.01.15-.01l.87-.07Zm1.3 1.29l-.001 0c.01.04.03.08.05.12 .02.03.04.05.06.06v0c.02.01.05.02.09.03v-.001c.03 0 .07 0 .12 0 .02-.01.04 0 .05.02 .01.01.02.03.02.04v0c0 .01 0 .02 0 .04 -.01.01-.02.02-.04.02h0c-.08 0-.16 0-.24 0v0c-.13-.01-.25 0-.36.02 -.06.01-.12.01-.18.02v0c-.02 0-.04-.01-.05-.02v0c-.02-.02-.03-.03-.03-.05v0c-.01-.02-.01-.03-.01-.05 0-.02.01-.03.03-.03v0c.03-.01.06-.02.1-.03v-.001c.01-.01.03-.02.04-.04v0c0-.03.01-.05 0-.07v0c-.01-.04-.02-.08-.03-.12l-.31-.93 -.04-.11v-.001c-.02-.04-.03-.07-.05-.1h0c-.02-.03-.04-.05-.06-.07v0c-.02-.02-.05-.03-.07-.03v0c-.03-.01-.05-.01-.07-.01 -.02-.01-.04-.01-.06-.01v0c-.02 0-.04-.01-.05-.02v0c-.02-.02-.03-.03-.03-.05h-.001c-.01-.02-.01-.03-.01-.05 0-.02.01-.03.03-.03 .05-.01.1-.01.15-.01 .04 0 .1 0 .18-.01 .08-.01.15-.02.21-.03v0c.05-.01.11-.02.18-.02 .06-.01.13-.01.2 0v-.001c.14.01.27.08.37.19 .05.05.08.12.11.2 .03.09.04.17.02.24v0c-.02.06-.06.12-.11.16v0c-.06.04-.13.08-.2.1 -.09.02-.17.04-.27.05 -.02 0-.02 0-.02 0 -.01 0 0 0 0 .02l.12.36Zm-.18-.54v0s0 0 0 0l.02-.01v0c.06-.01.12-.02.18-.03v0c.03-.02.07-.04.1-.07v0c.02-.04.03-.07.02-.11v0c-.01-.06-.02-.12-.04-.17 -.05-.13-.1-.21-.15-.26 -.06-.05-.15-.07-.25-.06 -.06 0-.1.01-.11.02 -.02.01-.01.04 0 .08l.18.56Zm1.92.44c.01.05.03.09.04.12v0c.01.02.02.04.04.05h0c.02.01.04.02.07.02v0c.04 0 .08 0 .12.01 .02 0 .03.01.05.02h0c.01.01.02.02.02.04v0c0 .01 0 .02 0 .04 -.01.01-.02.02-.04.02l0-.001c-.07 0-.13 0-.2 0h-.001c-.06-.01-.12-.01-.18 0 -.06 0-.13.01-.19.02 -.07.01-.13.01-.18.02v0c-.02 0-.04-.01-.05-.02v0c-.02-.02-.03-.03-.03-.05v0c-.01-.02-.01-.03-.01-.05 0-.02.01-.03.02-.03h0c.03-.01.07-.02.11-.03 .02-.01.04-.02.05-.04 0-.02.01-.04 0-.07v-.001c-.01-.05-.02-.09-.04-.12l-.37-1.11c-.02-.06-.04-.09-.07-.1v0c-.05-.02-.1-.02-.15-.01v0c-.05 0-.1 0-.14.02v0c-.03 0-.06.02-.08.04v0c-.02.02-.03.06-.03.09v0c-.01.05 0 .1.01.15 0 .01-.01.03-.02.03v0c-.02 0-.03 0-.05 0v0c-.02-.01-.04-.01-.05-.02v0c-.02-.01-.03-.03-.04-.04l0-.001c-.03-.13-.07-.26-.13-.38 -.02-.04-.01-.06.02-.07v0c.02-.02.05-.02.08-.02l1.3-.08v0c.03-.01.06-.01.09 0v0c.03 0 .05.02.06.05 0 .02 0 .04.01.07v-.001c.02.1.06.2.1.3 0 .01 0 .02-.01.03v0c-.01.01-.03.01-.04.01v0c-.02 0-.04 0-.05-.01v0c-.02-.01-.04-.02-.04-.04v0c-.03-.06-.06-.11-.09-.16v0c-.03-.04-.06-.07-.09-.09v0c-.04-.03-.07-.04-.11-.04v0c-.05-.01-.09-.01-.14-.01v0c-.05-.01-.1 0-.14.02 -.03.01-.03.04-.01.09l.36 1.1Zm.65-1.03v0c-.02-.05-.03-.09-.05-.125v0c-.02-.03-.04-.06-.06-.08v0c-.03-.02-.05-.04-.08-.05v0c-.04-.02-.08-.02-.12-.02v-.001c-.02 0-.04-.01-.05-.02v0c-.02-.02-.03-.03-.03-.05v0c-.01-.02-.01-.03 0-.05 0-.02.01-.03.03-.03 .04-.01.1-.01.17-.01v0c.09 0 .19-.01.29-.02l.08-.01 .08-.01 .09-.01c.02-.01.03 0 .05.02 .01.01.02.02.02.04v-.001c0 .01 0 .02 0 .04 -.01.01-.02.02-.04.02v0c-.04 0-.08.01-.11.02v0c-.03 0-.04.02-.05.04v0c-.01.02-.01.05-.01.07 0 .03.01.07.03.13l.31.97 0-.001c.01.04.02.08.04.12 .01.02.03.04.04.05v0c.02.01.04.02.07.02 .03 0 .07 0 .11.01 .02 0 .03.01.05.02v0c.01.01.02.02.02.04v0c0 .01 0 .02-.01.04 -.01.01-.02.02-.04.02v0c-.07 0-.13 0-.2 0v0c-.13-.01-.25 0-.37.02 -.07.01-.13.01-.18.02h-.001c-.02 0-.04-.01-.06-.02v0c-.02-.02-.03-.03-.03-.05v0c-.01-.02-.01-.03-.01-.05 0-.02.01-.03.03-.03v0c.03-.01.07-.02.11-.03 .02-.01.04-.02.05-.04 0-.02.01-.04 0-.07v0c-.01-.05-.02-.09-.04-.13l-.32-.98Zm1.8-.5v0c.01-.01.03 0 .04 0 .02 0 .04.02.05.06v-.001c0 .01 0 .02 0 .04l.01.04 .01.04c.01.03.02.07.03.11 .01.03.02.06.03.09 0 .01 0 .02-.02.03v0c-.02 0-.03.01-.04.01v0c-.02 0-.03-.01-.05-.01 -.02-.01-.03-.02-.04-.04v0c-.03-.05-.05-.1-.08-.14v0c-.02-.03-.04-.06-.07-.08h-.001c-.03-.02-.06-.03-.09-.03v0c-.05-.01-.09-.01-.14-.01l-.15 0v0c-.04 0-.07 0-.11 0 -.03 0-.04 0-.05.01 -.01 0-.01.02-.01.03 0 .01.01.05.02.09l.13.43c0 .01 0 .02.01.02v0c.05-.01.11-.01.17-.02v0c.02-.01.05-.02.07-.04 .01-.02.01-.04.01-.06h0c-.01-.04-.01-.08-.02-.11 -.01-.02 0-.03.01-.04v0c.01-.01.02-.02.04-.02v-.001c.01-.01.03 0 .04.01 .01 0 .02.02.03.03v0c0 .02.01.04.02.07l.01.06 .01.06h-.001c.01.07.04.14.07.2v0c.01.02.02.04.02.07l.02.08c0 .01 0 .03-.01.03v0c-.02 0-.03.01-.04.01v0c-.02 0-.04-.01-.05-.01v0c-.02-.01-.04-.02-.04-.04v0c-.02-.04-.04-.08-.06-.12h-.001c-.02-.03-.04-.05-.06-.06v0c-.04-.02-.07-.03-.1-.03v0c-.06-.01-.12-.01-.18 0l-.01 0c-.01 0-.01 0 0 .01l.1.32c.02.07.04.13.06.17h-.001c.01.03.03.06.06.08v0c.03.01.06.02.1.03v0c.09 0 .18 0 .28-.02v0c.02-.01.04-.01.06-.02v0c.02-.02.04-.03.06-.04v-.001c.01-.02.03-.04.04-.05v-.001c0-.03.01-.05.01-.08s-.01-.07-.02-.12c-.01-.02 0-.03.01-.04v0c.01-.01.02-.02.04-.02v0c.01-.01.03 0 .05.01 .01 0 .03.02.03.03l.04.19c.01.06.02.12.05.18v0s0 .01 0 .01v0s-.01.01-.01.02v0c-.01 0-.02.01-.03.01v-.001c-.02 0-.03 0-.04 0l-.89.04v0c-.12 0-.23.01-.34.03l0 0c-.02 0-.04-.01-.06-.02v0c-.02-.02-.03-.03-.03-.05v0c-.01-.02-.01-.03-.01-.04 0-.02.01-.03.03-.03h-.001c.02-.01.05-.02.08-.03v0c.01-.01.03-.03.05-.04v0c.01-.02.01-.04.01-.06v0c-.01-.04-.01-.07-.02-.1l-.31-.96v0c-.02-.04-.03-.07-.04-.11h-.001c-.02-.04-.03-.07-.05-.1v0c-.02-.03-.04-.05-.06-.07h0c-.02-.02-.05-.03-.07-.04v0c-.02-.01-.04-.01-.06-.01 -.03-.01-.04-.01-.06-.01v0c-.02 0-.04-.01-.05-.02v-.001c-.02-.02-.02-.03-.03-.05v-.001c-.01-.02-.01-.04-.01-.05 0-.02.01-.03.03-.03 .05-.01.1-.01.15-.01 .04 0 .09-.01.15-.01l.87-.05Zm.62.3l-.001 0c-.02-.04-.03-.08-.05-.11l0-.001c-.02-.03-.03-.05-.05-.06v-.001c-.02-.02-.05-.03-.07-.03v0c-.04-.01-.07-.01-.11-.01l-.001 0c-.02 0-.04-.01-.05-.02v0c-.02-.02-.03-.03-.03-.05v0c-.01-.02-.01-.04 0-.05 0-.02.01-.03.03-.03v0c.05-.01.1-.01.16-.01l.12-.01v0c.07-.01.14 0 .21 0 .02 0 .04.01.05.03l.86 1.15v0c-.01-.01-.01-.01-.02-.01s-.01 0-.02 0l.12-1.21c-.01-.02.02-.03.06-.04v0c.14-.02.29-.04.43-.04v0c.01-.01.03 0 .05.02 .01.01.02.02.02.04v-.001c0 .01 0 .02 0 .04 -.01.01-.02.02-.03.02h-.001c-.04 0-.08.01-.12.03 -.03 0-.04.02-.05.04h-.001c-.01.02-.01.05 0 .08 0 .04.02.1.05.18l.28.91v0c.01.04.02.08.04.12 .01.02.03.04.04.05h0c.02.01.04.02.07.02 .03 0 .07.01.12.01 .02 0 .03.01.04.02v0c.01.01.02.02.02.04v-.001c0 .01 0 .02-.01.04 -.01.01-.02.02-.05.02h0c-.07 0-.13 0-.2-.01h0c-.13-.01-.25-.01-.37.01v0c-.06 0-.12.01-.18.01h-.001c-.02 0-.04-.01-.05-.02v0c-.02-.02-.03-.03-.03-.05v0c-.01-.02-.01-.03-.01-.05 0-.02.01-.03.03-.03v-.001c.03-.01.07-.02.11-.03 .02-.01.04-.02.05-.04v0c.01-.02.01-.05 0-.07l-.001 0c-.01-.05-.02-.09-.03-.13l-.29-.93s0 0 0 0l0 0 -.09.85 -.001 0c-.01.06-.02.12-.02.19l-.01.21v0c0 .01-.01.02-.02.02v0c-.02 0-.03 0-.04 0v0c-.02 0-.03-.01-.04-.01v0c-.02-.01-.03-.02-.04-.03l-.94-1.23 0-.01c0-.01 0-.01 0-.01l.28.92c.01.05.03.1.05.13 .01.02.03.05.05.06v0c.02.01.04.02.06.02 .02 0 .05 0 .09.01v0c.01 0 .03.01.04.02l0-.001c.01.01.01.02.02.04v-.001c0 .01 0 .02 0 .04 -.01.01-.02.02-.04.02v0c-.05 0-.09 0-.13-.01v0c-.11-.01-.21-.01-.32.01v0c-.05 0-.09.01-.13.01h-.001c-.02 0-.04-.01-.05-.02v0c-.02-.02-.03-.03-.03-.05v0c-.01-.02-.01-.03-.01-.05 0-.02.01-.03.03-.03 .04-.01.07-.02.09-.02 .02-.01.04-.02.05-.04 .01-.02.01-.04.01-.07v0c-.01-.05-.02-.09-.04-.14l-.33-1.04Zm2.73.26c0 .01.01.02.01.03 0 0 .01 0 .02 0l.04-.01v0c.04-.01.09-.01.13-.02v0c.03-.01.06-.03.09-.05v0c.02-.03.03-.06.04-.1l-.001 0c0-.11-.03-.21-.09-.3v0c-.03-.04-.06-.07-.09-.09v-.001c-.04-.03-.08-.04-.11-.05v-.001c-.05-.01-.1-.02-.14-.02l-.09 0v0c-.01-.01-.02 0-.03 0 -.01 0-.01 0-.01.01 0 0 0 .01 0 .02l.01.05 .14.46Zm.15.49c.02.09.05.15.07.2v0c.01.03.03.07.06.1v-.001c.02.02.04.03.07.03 .02 0 .07 0 .12 0 .1-.01.17-.04.19-.09 .02-.06.02-.13-.01-.24v0c-.02-.07-.05-.13-.09-.19v-.001c-.07-.09-.16-.15-.27-.16h-.001c-.06-.01-.11-.02-.17-.01l-.05 0c-.03 0-.04 0-.05.01 -.01 0 0 .02.01.06l.06.23Zm-.56-.76c-.02-.04-.03-.07-.04-.11V90.5c-.02-.04-.03-.07-.05-.1h0c-.02-.03-.04-.05-.06-.07v0c-.02-.02-.05-.03-.07-.04v-.001c-.02-.01-.04-.01-.06-.01l-.06-.01v0c-.02 0-.04-.01-.05-.02v-.001c-.02-.02-.03-.03-.03-.05h0c-.01-.02-.01-.03-.01-.05 0-.02.01-.03.03-.03l.07-.01v0c.04-.01.09-.01.14 0l.08-.01 .08-.01 .08-.01 .09-.01 .08-.01c.04-.01.08-.01.13 0v0c.1 0 .2.02.29.06l0 0c.09.03.18.1.25.18h0c.06.08.09.18.09.29v0c-.01.03-.02.07-.04.11v0c-.03.03-.05.06-.08.08v0c-.04.02-.07.04-.1.05 0-.01 0-.01 0-.01 -.01-.01-.01-.01-.01-.01v0c.13.02.25.07.36.15 .1.07.17.17.21.3 .02.09.03.16.01.22v0c-.02.05-.05.1-.09.14v0c-.05.03-.11.06-.16.07v0c-.07.01-.14.02-.21.02v0c-.04 0-.08 0-.11 0h-.25l-.001 0c-.07-.01-.14 0-.21 0v0c-.06 0-.11 0-.16.01v0c-.03 0-.06 0-.09.01v0c-.02 0-.04-.01-.06-.02v0c-.02-.02-.03-.03-.03-.05h0c-.01-.02-.01-.03-.01-.05 0-.02.01-.03.03-.03l-.001 0c.03-.01.06-.02.09-.03v0c.01-.01.03-.02.05-.04v0c.01-.02.01-.04.01-.06l0 0c-.01-.04-.01-.07-.02-.1l-.3-.96Zm1.56-.06v0c-.01-.04-.03-.07-.04-.11v0c-.02-.04-.03-.07-.05-.1h-.001c-.02-.03-.04-.05-.06-.07h-.001c-.02-.02-.05-.03-.07-.04v-.001c-.04-.01-.08-.02-.12-.02v0c-.02 0-.04-.01-.05-.02v0c-.02-.02-.02-.03-.03-.05v0c-.01-.02-.01-.03 0-.05 0-.02.01-.03.03-.03l.07-.01 .07 0 .06 0 .08-.01v0c.14-.01.28-.02.42-.03v0c.07-.01.14 0 .21.01v0c.07.01.14.04.2.07h-.001c.19.1.31.3.3.52v0c-.01.09-.07.17-.15.22v0c-.05.02-.09.04-.14.05 0-.01 0-.01 0-.01 -.01-.01 0-.01 0-.01v0c.1.03.2.09.28.17v0c.03.03.06.06.08.1 .02.03.04.06.06.1 .02.03.03.06.05.1 .01.03.03.06.05.1v0c.01.02.03.05.05.07v0c.01.01.02.01.04.01 .01 0 .02-.01.03-.02 .01-.02.01-.04.01-.07 -.01-.02 0-.03.01-.04v-.001c0-.01.02-.02.03-.02 .01 0 .03 0 .05.01 .02.01.03.02.03.05v0c0 .03 0 .07-.01.11h0c-.01.03-.03.06-.05.08v0c-.03.02-.06.03-.09.04v0c-.09.03-.19.02-.27-.02v0c-.03-.02-.06-.03-.08-.05v0c-.03-.02-.05-.05-.06-.07v0c-.03-.03-.04-.07-.06-.1l-.06-.1 -.06-.1v0c-.02-.03-.04-.06-.05-.09v0c-.05-.09-.11-.16-.18-.21V90.9c-.06-.05-.13-.07-.2-.06v0c-.02-.01-.04 0-.05.01 -.02 0-.02.02-.01.05l.09.33v0c.01.04.02.08.05.12 .02.03.04.05.06.07v0c.02.01.05.02.08.03h0c.03 0 .07.01.11.01v0c.01-.01.03 0 .05.02 .01.01.02.03.02.04v0c0 .01 0 .03-.01.04 -.01.01-.02.02-.04.02h0c-.08 0-.15 0-.23-.01l-.1-.01v0c-.09-.01-.18 0-.27.01v0c-.06 0-.12.01-.18.01v0c-.02 0-.04-.01-.05-.02v0c-.02-.02-.03-.03-.03-.05l0-.001c-.01-.02-.01-.03-.01-.05 0-.02.01-.03.03-.03v-.001c.03-.01.07-.02.1-.03V91.4c.01-.01.03-.02.04-.04 0-.02.01-.04 0-.07v-.001c-.01-.04-.02-.08-.03-.12l-.28-.94Zm.41.28c0 .03.01.04.03.05h0c.03 0 .06 0 .1 0l-.001 0c.04-.01.09-.01.14-.03v0c.03-.01.05-.03.07-.06v0c.01-.04.02-.07.01-.11v0c-.01-.06-.02-.11-.04-.17v-.001c-.02-.06-.04-.11-.07-.16v-.001c-.04-.08-.11-.13-.19-.15v0c-.05-.02-.1-.02-.15-.02 -.06 0-.1 0-.1.01 -.02.01-.02.04-.01.08l.14.49Zm2.15-.8c.01 0 .03 0 .04 0 .02 0 .04.03.05.06 0 .01 0 .02 0 .04l.01.04 .01.04c.01.03.02.07.03.11 .01.03.02.06.03.09 0 .01 0 .02-.02.03v0c-.02 0-.03.01-.05.01v0c-.02-.01-.03-.01-.05-.01 -.02-.01-.03-.02-.04-.04v0c-.03-.05-.05-.1-.08-.14h-.001c-.02-.03-.04-.06-.07-.08v0c-.03-.02-.06-.03-.09-.03v0c-.05-.01-.09-.01-.14-.01l-.15 0v0c-.04 0-.07 0-.11 0 -.03 0-.04 0-.05.01 -.01 0-.01.02-.01.03 0 .01.01.04.02.09l.12.43c0 .01 0 .02.01.02h0c.05 0 .11-.01.17-.02 .03-.01.06-.02.07-.04v-.001c.01-.02.02-.04.02-.06v0c-.01-.04-.01-.07-.02-.11 -.01-.02 0-.03.01-.04v0c.01-.01.02-.02.04-.02 .01 0 .03 0 .04.01v0c.01 0 .02.02.03.03 0 .02.01.04.01.07l.01.06 .01.06v0c.01.07.03.14.06.2h-.001c.02.04.03.09.05.15 0 .01 0 .03-.02.03l-.001 0c-.02 0-.03.01-.05.01v0c-.02-.01-.04-.01-.05-.01v-.001c-.02-.01-.03-.03-.04-.04v0c-.02-.04-.04-.08-.05-.12h0c-.02-.03-.04-.05-.06-.06l-.001 0c-.03-.02-.07-.03-.1-.03v0c-.06-.01-.12-.01-.18-.01l-.01 0c-.01 0-.01 0 0 .01l.09.32c.02.07.04.13.05.17l0-.001c.01.03.03.06.06.08v0c.03.01.06.03.1.03v0c.09 0 .19 0 .28-.01v0c.04-.01.09-.03.13-.06v-.001c.01-.02.03-.03.04-.05v0c.01-.03.01-.05.01-.08v0c0-.04-.01-.08-.01-.12 -.01-.02 0-.03.01-.04v0c.01-.01.02-.02.04-.02 .01 0 .03 0 .05.01 .01 0 .03.02.03.04l.03.19c.01.06.02.12.04.18v0s0 .01 0 .01v0c-.01 0-.01.01-.01.02v0c-.01 0-.02.01-.03.01v0c-.02 0-.03 0-.04 0l-.9.01v0c-.07 0-.13 0-.19 0l-.16.01v0c-.02 0-.04-.01-.06-.03v0c-.02-.02-.03-.03-.03-.05v0c-.01-.02-.01-.03 0-.04 0-.02.01-.03.03-.03v-.001c.03-.01.05-.02.08-.03l0 0c.02-.01.03-.02.05-.04v-.001c.01-.02.01-.04.01-.06V91.2c-.01-.04-.01-.07-.02-.1l-.28-.96v0c-.01-.04-.03-.07-.04-.11h-.001c-.02-.04-.03-.07-.05-.1v-.001c-.02-.03-.04-.05-.06-.07v0c-.02-.02-.05-.03-.07-.04 -.02-.01-.04-.01-.06-.02v0c-.02-.01-.04-.01-.06-.01v0c-.02 0-.04-.01-.05-.02v0c-.02-.02-.02-.03-.03-.05v0c-.01-.02-.01-.03-.001-.05 0-.02.01-.03.03-.03 .05-.01.1 0 .15 0 .04 0 .09 0 .15 0l.88-.02Z"/><path fill="#F9F0AA" stroke="#999270" stroke-width=".017" d="M140.16 76.88c-1.16 0-1.46 1.11-1.44 1.81 .04 1.84 1.43 1.93 1.43 1.93l1.86-.11 .89-3.81 -2.76.15Z"/><g fill="#F9F0AA"><path d="M140.16 76.87c-1.16 0-1.46 1.11-1.44 1.81 .04 1.84 1.43 1.93 1.43 1.93l1.86-.11 .89-3.81 -2.76.15Z"/><use fill="#F9F0AA" stroke="#999270" stroke-width=".017" xlink:href="#g"/><use xlink:href="#g"/><use fill="#F9F0AA" stroke="#999270" stroke-width=".017" xlink:href="#h"/></g><use fill="#F7ECA5" xlink:href="#h"/><g stroke-width=".017" fill="#A50A0A" stroke="#4C0505"><path d="M149.037 69.345l-1.18 1.4c-.375 1.63.55 2.87 2.39 3.94 1.48.92 4.23.76 5.1.01l-4.29-3.7 -2.03-1.67Z"/><path fill="url(#a)" d="M149.037 69.34l-1.18 1.4c-.375 1.63.55 2.87 2.39 3.94 1.48.92 4.23 1.15 5.1.41l-4.29-4.09 -2.03-1.67Z"/><path fill="#448127" stroke="#34541F" d="M157.71 111.488c-.21-.26-.43-.51-.64-.76 -2.68 3.53-6.02 6.69-10.2 8.93 4.71-1.34 7.79-4.77 10.82-8.18Zm-4.83 11.16c1.66-3.37 3.66-6.74 5.68-10.1 -.23-.28-.45-.55-.67-.83 -2.3 3.8-5 8.33-5.02 10.92Zm13.04-35.79c-.31-1.33-.71-2.77-1.35-4.08 -.84-1.7-2.07-3.39-3.7-5.26 -2.94-3.18-5.87-6.25-9.98-8.52l.02-.05 .02.01h.05l-.05-.07h.14l-.08-.08h.13l-.11-.125h.14l-.11-.11h.15l-.09-.12 .12.01 -.12-.13 .17-.04 -.14-.09 .15-.03 -.13-.09 .18-.06 -.17-.1 .2-.09 -.2-.15 .2-.08 -.23-.1 .19-.1 -.23-.05 .15-.18 -.22.01 .1-.19 -.21.01 -.02-.02 .11-.15 -.22.03 .09-.2 -.21.1 .05-.23 -.2.13 .03-.23 -.19.15 .01-.22 -.16.16 .01-.23 -.16.19 -.02-.23 -.13.17 -.07-.22 -.11.21 -.06-.23 -.1.22 -.05-.23 -.09.22 -.07-.22 -.07.21 -.05-.19 -.08.22 -.07-.22 -.08.24 -.1-.22 -.04.25 -.11-.21 -.02.24 -.12-.19 -.01.24 -.13-.18 .01.21 -.14-.12 .06.23 -.17-.1 .06.2 -.14-.08 .04.19 -.13-.04 .06.14 -.01.02 -.1-.02 .05.11v0c-.12.32-.13.71-.11 1.09 0 .07.18.14.21.19 .08.13.07.2.07.2 -.5.8-.95 1.42-1 2.35 .4-.51.81-1.125 1.39-1.125 -.29.48-.43 1.92-.11 2.14l.24-.43c0 .33.05.56.12.72 .1-.21.2-.4.3-.55 .02.47.08.84.22 1.03h-.001c.12-.21.29-.38.5-.5 -.07.26-.17.52-.13.84 .2-.35.4-.55.6-.79 -.12.49-.01.86.13 1.41 .125-.65.17-.72.47-1 .03.59-.08 1.13.04 1.46 .27-.53.45-.45.62-.79 -.04.49-.14 1.02-.01 1.46 .1-.45.38-.68.6-.84 .01.68.17.57-.25 1.15 .18.08.79-.12 1.12-.26 -.17.36-.12.65-.28.91 .33-.17.625-.45.9-.73 -.14.42-.48.84-.31 1.26 .07-.4.39-.72.7-.78 -.05.22-.08.67-.4.9 .76.07 1.06-.44 1.44-.85 -.05.42-.04.76.48 1.36 -.11-.76.07-.61.42-1.06 .16.67.35 1.38 1.05 1.87 -.29-.71-.35-1.08-.18-1.52 .09.46.52 1.01.63 1.45 .06-.49.13-.96.3-1.27 .2.54.37 1.11.42 1.75 .15-.32.27-.64.36-.97 6.16 6.44 7.54 14.637.78 23.29 2.42-1.65 3.05-4.24 4.4-6.46 -1.32 2.9-1.91 6.16-4.23 8.56 2.24-1.94 2.72-3.72 4.07-5.59 -1.44 3.9-3.44 8.18-6.2 12.107v0c.49.53.98 1.07 1.47 1.62 .42-.72.85-1.43 1.28-2.14 2.92-4.83 7.7-11.72 5.28-22.235Z"/><path fill="#EAC102" stroke="#A08307" d="M148.212 68.057c-.32.07-.44.2-.66.45h0c.25.05.52.08.78.08 .08-.01.1-.11.08-.19l-.04-.3c-.01-.07-.19-.07-.28-.03l.09-.03Z"/><path fill="#000" stroke="#000" d="M149.626 68.35c.13 0 .24-.12.24-.26h0c0-.14-.11-.25-.25-.25v0c-.14 0-.25.11-.25.24 0 .14.11.25.24.25Z"/></g><g fill="#34541F"><path d="M152.907 122.56c.14-.47.3-.93.47-1.39 .17-.46.36-.91.55-1.36 .39-.9.83-1.78 1.29-2.64 .46-.87.95-1.71 1.45-2.55 .25-.42.5-.84.76-1.26l.78-1.24 -.76 1.25c-.26.41-.51.83-.75 1.26v-.001c-.5.84-.98 1.69-1.45 2.55 -.47.86-.91 1.73-1.31 2.625v-.001c-.41.89-.77 1.8-1.09 2.72Zm-5.89-2.96v0c.51-.23 1.02-.48 1.52-.75v0c1.5-.79 2.91-1.75 4.19-2.85v-.001c.85-.74 1.66-1.53 2.42-2.37 .38-.42.75-.85 1.11-1.29 .36-.44.71-.88 1.06-1.33v0c-.34.45-.69.9-1.04 1.34 -.36.44-.73.87-1.1 1.29v0c-.76.84-1.57 1.64-2.42 2.38v-.001c-.87.73-1.79 1.4-2.75 1.99v0c-.97.59-1.98 1.1-3.03 1.54Zm11.65-9.17c.24-.34.46-.69.68-1.03 .22-.35.44-.7.65-1.06v-.001c.42-.71.84-1.43 1.23-2.15 .4-.73.78-1.46 1.17-2.19l1.14-2.2 -.55 1.11 -.56 1.1v0c-.38.73-.77 1.46-1.16 2.19v0c-.4.72-.82 1.43-1.26 2.14 -.44.7-.9 1.39-1.39 2.05Zm1.84-7.85v-.001c.53-.64 1.02-1.31 1.46-2.01 .44-.7.84-1.43 1.19-2.18 .69-1.51 1.2-3.1 1.55-4.71 .04-.21.08-.41.12-.61l0 0c.1-.62.17-1.23.21-1.85 .05-.83.05-1.66-.01-2.49v0c-.07-.83-.2-1.65-.39-2.46v0c-.2-.81-.45-1.6-.76-2.37 .31.76.58 1.55.78 2.36 .19.8.33 1.62.4 2.45 .06.82.07 1.66.02 2.48v-.001c-.04.62-.11 1.24-.21 1.85 -.04.2-.09.4-.13.61 -.37 1.62-.88 3.21-1.58 4.71v0c-.36.75-.76 1.47-1.21 2.17 -.46.69-.96 1.36-1.5 1.98Z"/><path d="M159.99 100.8v-.001c.57-.56 1.08-1.17 1.53-1.83 .44-.66.83-1.36 1.18-2.07 .34-.72.65-1.46.94-2.2 .14-.38.28-.75.42-1.12l.1-.28c.03-.1.06-.19.09-.29 .05-.19.11-.39.18-.58l-.01 0c.15-.79.24-1.6.25-2.4 .01-.81-.06-1.61-.18-2.41v0c-.13-.8-.31-1.59-.55-2.36v0c-.23-.78-.5-1.54-.8-2.29 .31.74.59 1.5.83 2.27 .23.77.42 1.55.55 2.35 .12.79.19 1.6.19 2.41v0c-.01.8-.09 1.61-.25 2.4v0l-.01 0c-.07.18-.13.37-.19.56 -.03.09-.06.19-.1.28l-.11.28c-.15.37-.29.74-.44 1.11l-.001 0c-.3.74-.61 1.47-.96 2.19v0c-.35.71-.75 1.4-1.2 2.06v0c-.46.65-.98 1.26-1.56 1.8Z"/><path d="M158.17 109.91c.375-.52.74-1.04 1.11-1.57l.55-.79c.18-.27.37-.52.54-.8 .33-.55.62-1.12.9-1.7 .28-.58.56-1.15.84-1.73 .55-1.16 1.09-2.32 1.55-3.51 .45-1.2.82-2.43 1.07-3.68 .26-1.26.44-2.52.58-3.79 .13-1.27.14-2.56.01-3.83h-.001c-.14-1.28-.43-2.53-.86-3.74 -.43-1.21-.98-2.37-1.6-3.49 .62 1.11 1.19 2.27 1.625 3.47 .43 1.2.72 2.46.86 3.73s.13 2.56 0 3.83c-.15 1.27-.32 2.54-.58 3.79l0 0c-.27 1.25-.63 2.48-1.1 3.68 -.47 1.19-1.01 2.35-1.57 3.5 -.28.57-.57 1.14-.86 1.72v0c-.28.57-.59 1.14-.92 1.69 -.17.27-.37.52-.55.78l-.57.77c-.38.51-.76 1.03-1.14 1.55Z"/><path d="M159.04 110.857c.73-1.2 1.47-2.4 2.17-3.62 .7-1.22 1.4-2.45 2.02-3.71v0c.62-1.26 1.14-2.57 1.56-3.92 .2-.68.375-1.36.51-2.05v0c.07-.35.13-.69.18-1.04 .05-.35.1-.7.14-1.05v0c.18-1.4.28-2.8.28-4.21v0c0-1.41-.13-2.82-.38-4.2v0c-.26-1.39-.68-2.74-1.25-4.02h0c-.58-1.29-1.31-2.5-2.18-3.61h-.001c.88 1.1 1.62 2.3 2.2 3.59v0c.57 1.28.99 2.63 1.25 4.02 .26 1.38.38 2.79.38 4.2v0c-.01 1.4-.1 2.81-.28 4.21 -.05.34-.1.69-.16 1.04v0c-.17 1.04-.41 2.07-.72 3.08v0c-.42 1.34-.95 2.65-1.58 3.91 -.63 1.26-1.33 2.48-2.04 3.7l-.001-.001c-.72 1.21-1.46 2.41-2.21 3.6Z"/></g><path fill="url(#b)" d="M149.68 68.161c.06 0 .1-.06.1-.12v0c0-.06-.05-.11-.11-.11 -.01-.01-.01-.01-.01-.01v0c-.06 0-.11.04-.11.1 0 .06.04.11.1.11Z"/><path fill="none" fill-rule="evenodd" d="M147.55 68.508l.66-.16"/><path fill="#A08307" d="M147.55 68.508c.1-.04.21-.07.32-.1 .11-.03.22-.05.33-.06v0c-.11.03-.22.06-.33.09v0c-.12.02-.23.04-.34.06Z"/><path fill="#34541F" d="M150.35 69.771c.14-.01.29.01.44.03 .14.02.29.05.43.09 .28.07.56.17.83.29 .54.24 1.05.55 1.53.9 .47.35.91.75 1.33 1.18 .2.21.4.43.59.66 .19.22.37.46.55.69v-.001c-.19-.23-.38-.46-.58-.68v0c-.2-.23-.4-.44-.61-.65v0c-.42-.43-.86-.82-1.34-1.17v0c-.48-.36-.98-.67-1.52-.92v0c-.27-.13-.55-.23-.83-.32v-.001c-.29-.09-.58-.14-.88-.16Z"/><path fill="#448127" d="M155.46 73.147s.95.56 1.47 1.38c0 0-1.48-.28-2.53-1.46"/><path fill="#34541F" d="M155.46 73.14c.15.08.29.17.43.27 .13.1.27.2.4.32 .12.11.24.23.36.36 .11.12.22.26.31.41l.04.06 -.08-.02v0c-.49-.12-.95-.3-1.38-.55v0c-.44-.25-.82-.57-1.14-.94 .33.35.73.65 1.16.89 .21.11.43.22.66.31 .22.08.46.16.7.21l-.04.05h-.001c-.1-.15-.2-.28-.31-.41v-.001c-.23-.26-.47-.49-.74-.7v0c-.14-.11-.27-.21-.41-.31Z"/><path fill="#448127" d="M153.34 72.869s2.25 1.44 2.58 1.55c0 0-.51-1.09-1.58-1.56"/><path fill="#34541F" d="M153.34 72.86l1.29.77v0c.32.19.64.38.97.57 .1.06.21.12.32.17l-.04.04v0c-.09-.17-.18-.33-.29-.48v-.001c-.11-.16-.23-.3-.36-.44v0c-.13-.14-.28-.26-.43-.37v0c-.16-.12-.32-.21-.49-.29 .17.06.34.16.49.26 .15.1.3.22.43.36v-.001c.27.26.49.57.67.91l.03.07 -.08-.04c-.24-.11-.45-.24-.67-.37v0c-.65-.39-1.29-.8-1.91-1.22Z"/><path fill="#448127" d="M154.24 72.144s1.17.5 1.44 1.36c0 0-2.11-.89-2.49-1.36"/><path fill="#34541F" d="M154.24 72.144v0c.31.12.61.3.87.52 .13.11.25.23.35.37 .1.13.19.29.24.46l.02.06 -.07-.03v0c-.22-.1-.44-.2-.66-.3 -.22-.11-.43-.21-.64-.32 -.22-.11-.42-.23-.63-.35v0c-.11-.07-.21-.13-.3-.2v-.001c-.1-.07-.19-.15-.27-.24 .07.08.17.15.27.22 .09.06.2.12.3.18 .2.11.41.22.63.33 .42.2.85.4 1.29.58l-.05.04v0c-.06-.16-.13-.31-.23-.45v0c-.11-.14-.22-.26-.35-.37v-.001c-.13-.12-.27-.22-.41-.31v0c-.15-.1-.29-.19-.44-.26Z"/><path fill="#448127" d="M152.462 73.04s2.07 1.48 2.69 1.48c0 0-.61-1.02-1.69-1.49"/><path fill="#34541F" d="M152.46 73.04v0c.42.28.86.56 1.3.82 .22.13.44.26.67.375 .11.05.23.11.35.15 .11.04.24.09.36.09l-.03.04v0c-.11-.16-.22-.32-.34-.46v-.001c-.13-.15-.26-.29-.39-.41v0c-.14-.13-.29-.25-.45-.36v0c-.16-.11-.32-.21-.49-.29 .35.14.67.35.96.6 .14.12.27.26.4.4 .125.14.24.29.34.45l.03.05 -.06-.01h-.001c-.14-.01-.27-.05-.39-.1v0c-.13-.05-.24-.11-.36-.17v0c-.23-.12-.46-.25-.68-.39v0c-.44-.28-.87-.57-1.28-.88Z"/><path fill="#448127" d="M152.462 73.51s1.08.91 1.69.91c0 0-.61-1.02-1.69-1.49"/><path fill="#34541F" d="M152.46 73.513c.13.09.26.19.39.28 .13.09.27.17.41.26 .13.08.28.15.43.22 .07.03.14.05.22.07v0c.07.02.15.03.23.03l-.03.04v-.001c-.11-.16-.22-.32-.34-.46h-.001c-.13-.15-.26-.29-.39-.41v0c-.14-.13-.29-.25-.45-.36v0c-.16-.11-.32-.21-.49-.29 .35.14.67.35.96.6v0c.28.25.54.54.74.86l.03.04h-.06c-.18 0-.34-.06-.49-.13v0c-.15-.07-.3-.15-.44-.24v0c-.28-.18-.54-.38-.78-.6Z"/><path fill="#448127" d="M151.92 71.46s2.25 1.59 2.51 2.46c0 0-2.04-.94-2.42-1.41"/><path fill="#34541F" d="M151.92 71.46v0c.49.33.96.7 1.4 1.09v0c.22.19.43.4.64.62 .1.11.19.22.28.34 .08.12.16.25.21.4l.02.07 -.07-.04v-.001c-.43-.2-.85-.42-1.26-.64l-.001 0c-.21-.12-.41-.24-.61-.36v0c-.1-.07-.2-.14-.29-.21v0c-.1-.07-.19-.15-.26-.24 .07.08.17.15.26.22 .09.06.19.12.29.18 .2.12.4.23.61.34 .41.21.83.42 1.25.62l-.05.04v0c-.05-.14-.12-.27-.21-.39v0c-.09-.12-.18-.24-.28-.35v0c-.21-.22-.42-.43-.64-.63v-.001c-.22-.2-.45-.4-.68-.58 -.23-.19-.47-.38-.7-.56Z"/><g stroke-width=".017" fill="#406325" stroke="#24420E"><path d="M139.41 116.507c-1.53 1.13-5.8 1.69-6.39 1.5 3.1-2.59 6.16-2.65 6.39-1.5Z"/><path fill="#67923D" d="M139.405 116.49c-.23-1.15-3.27-1.08-6.37 1.49 3.26-1.08 6.01-1.69 6.36-1.5v0Z"/><path d="M161.21 117.897c1.64 1.49 6.59 2.51 7.33 2.33 -3.3-3.37-6.91-3.71-7.34-2.34Z"/><path fill="#67923D" d="M161.253 117.877c.42-1.38 3.99-1.05 7.3 2.33 -3.72-1.57-6.86-2.54-7.31-2.34Z"/></g></svg>