<svg viewBox="0 0 301 151" xmlns="http://www.w3.org/2000/svg"><path fill="#0073CF" d="M.5.5h300v150H.5Z"/><path fill="#FFF" d="M.5 50.5h300v50H.5Z"/><path fill="#0073CF" d="M142.575 72.92l4.89 3.55 -1.88 5.75 4.89-3.56 4.89 3.55 -1.88-5.76 4.89-3.56h-6.06l-1.88-5.76 -1.88 5.75Zm41.666-13.34l4.89 3.55 -1.88 5.75 4.89-3.56 4.89 3.55 -1.88-5.76 4.89-3.56h-6.06l-1.88-5.76 -1.88 5.75Zm0 25l4.89 3.55 -1.88 5.75 4.89-3.56 4.89 3.55 -1.88-5.76 4.89-3.56h-6.06l-1.88-5.76 -1.88 5.75Zm-83.34 0l4.89 3.55 -1.88 5.75 4.89-3.56 4.89 3.55 -1.88-5.76 4.89-3.56h-6.06l-1.87-5.76 -1.88 5.75Zm0-25l4.89 3.55 -1.88 5.75 4.89-3.56 4.89 3.55 -1.88-5.76 4.89-3.56h-6.06l-1.87-5.76 -1.88 5.75Z"/></svg>