<svg viewBox="0 0 24 24" xmlns="http://www.w3.org/2000/svg"><path fill="none" d="M0 0h24v24H0Z"/><g><path d="M18 13c0 3.31-2.69 6-6 6s-6-2.69-6-6 2.69-6 6-6v4l5-5 -5-5v4c-4.42 0-8 3.58-8 8s3.58 8 8 8 8-3.58 8-8h-2Z"/><path d="M10.86 15.94l0-4.27 -.09 0L9 12.3l0 .69 1.01-.31 0 3.26Z"/><path d="M12.25 13.44v.74c0 1.9 1.31 1.82 1.44 1.82 .14 0 1.44.09 1.44-1.82v-.74c0-1.9-1.31-1.82-1.44-1.82 -.14 0-1.44-.09-1.44 1.82Zm2.04-.12v.97c0 .77-.21 1.03-.59 1.03s-.6-.26-.6-1.03v-.97c0-.75.22-1.01.59-1.01 .38-.01.6.26.6 1.01Z"/></g></svg>