<svg viewBox="0 0 512 512" xmlns="http://www.w3.org/2000/svg"><path d="M272 288h-64c-44.2 0-80 35.8-80 80 0 8.8 7.2 16 16 16h192c8.83 0 16-7.17 16-16 0-44.2-35.8-80-80-80Zm-32-32c35.35 0 64-28.65 64-64s-28.65-64-64-64c-35.34 0-64 28.65-64 64s28.7 64 64 64Zm256 64h-16v96h16c8.83 0 16-7.17 16-16v-64c0-8.8-7.2-16-16-16Zm0-256h-16v96h16c8.8 0 16-7.2 16-16V80c0-8.84-7.2-16-16-16Zm0 128h-16v96h16c8.8 0 16-7.2 16-16v-64c0-8.8-7.2-16-16-16ZM384 0H96C60.65 0 32 28.65 32 64v384c0 35.35 28.65 64 64 64h288c35.35 0 64-28.65 64-64V64c0-35.35-28.7-64-64-64Zm16 448c0 8.83-7.17 16-16 16H96c-8.84 0-16-7.17-16-16V64c0-8.84 7.16-16 16-16h288c8.83 0 16 7.16 16 16v384Z"/></svg>