<svg viewBox="0 0 448 512" xmlns="http://www.w3.org/2000/svg"><path d="M256 32v17.88C328.5 61.39 384 124.2 384 200v33.4c0 45.4 15.5 89.5 43.8 125l14.9 18.6c5.8 7.2 6.9 17.1 2.9 25.4 -4 8.3-12.4 13.6-21.6 13.6H24c-9.23 0-17.64-5.3-21.64-13.6s-2.88-18.2 2.89-25.4l14.91-18.6c28.37-35.5 43.83-79.6 43.83-125V200c0-75.8 55.5-138.61 128-150.12V32c0-17.67 14.3-32 32-32s32 14.33 32 32v0Zm-40 64c-57.4 0-104 46.6-104 104v33.4c0 47.9-13.88 94.6-39.69 134.6H375.7c-25.8-40-39.7-86.7-39.7-134.6V200c0-57.4-46.6-104-104-104h-16Zm72 352c0 16.1-6.7 33.3-18.7 45.3s-29.2 18.7-45.3 18.7c-17 0-33.3-6.7-45.3-18.7s-18.7-29.2-18.7-45.3h128Z"/></svg>