<svg viewBox="0 0 640 512" xmlns="http://www.w3.org/2000/svg"><path d="M183.6 118.6c22.9-36.02 60.5-61.76 104.4-68.72V32c0-17.67 14.3-32 32-32 17.7-.001 32 14.32 32 31.99v17.88c72.5 11.51 128 74.32 128 150.12v33.4c0 45.4 15.5 89.5 43.8 125l14.9 18.6c4.4 6.5 6.7 15.2 3.9 23l88.2 69.1c10.4 8.2 12.3 23.3 4.1 33.7 -8.2 10.4-23.3 12.3-33.7 4.1L9.19 42.88C-1.25 34.7-3.08 19.62 5.1 9.18 13.28-1.26 28.35-3.09 38.79 5.09L183.58 118.57Zm38.1 29.8l229 178.7c-12.3-28.9-18.7-61-18.7-93.7V200c0-57.4-46.6-104-104-104h-16c-38.7 0-72.4 21.1-90.3 52.4v0Zm-61.7 85v-11.3l46.7 36.8c-4 38.8-17.2 76.3-38.4 109.1h176.9l61 48H120c-9.2 0-17.6-5.3-21.63-13.6 -4-8.3-2.87-18.2 2.93-25.4l14.9-18.6c28.3-35.5 43.8-79.6 43.8-125v0ZM384 448c0 16.1-6.7 33.3-18.7 45.3s-29.2 18.7-45.3 18.7c-17 0-33.3-6.7-45.3-18.7s-18.7-29.2-18.7-45.3h128Z"/></svg>