<svg viewBox="0 0 448 512" xmlns="http://www.w3.org/2000/svg"><path d="M152 64h144V24c0-13.25 10.7-24 24-24s24 10.75 24 24v40h40c35.3 0 64 28.65 64 64v320c0 35.3-28.7 64-64 64H64c-35.35 0-64-28.7-64-64V128c0-35.35 28.65-64 64-64h40V24c0-13.25 10.7-24 24-24s24 10.75 24 24v40ZM48 248h80v-56H48v56Zm0 48v64h80v-64H48Zm128 0v64h96v-64h-96Zm144 0v64h80v-64h-80Zm80-104h-80v56h80v-56Zm0 216h-80v56h64c8.8 0 16-7.2 16-16v-40Zm-128 0h-96v56h96v-56Zm-144 0H48v40c0 8.8 7.16 16 16 16h64v-56Zm144-216h-96v56h96v-56Z"/></svg>