<svg viewBox="0 0 448 512" xmlns="http://www.w3.org/2000/svg"><path d="M391.9 464H55.95c-13.25 0-23.1 10.75-23.1 23.1 0 12.35 9.85 24.9 23.1 24.9h335.1c13.25 0 23.1-10.75 23.1-23.1 0-12.35-8.95-24.9-22.25-24.9ZM448 216c0-11.82-3.79-23.51-11.08-33.17 -10.3-14.39-27-22.88-44.73-22.88L247.9 160v-56H279c13.2 0 24.06-10.8 24.06-24s-9.96-24-23.16-24h-31.1V23.1C247.9 10.8 237.2 0 223.1 0c-14.1 0-23.2 10.8-23.2 23.1V56h-32c-13.2 0-23.97 10.8-23.97 24s10.77 24 23.97 24H199v56H55.95c-31.23 0-55.95 25.3-55.95 55.9 0 5.7.88 11.5 2.704 17.1l65.74 199h50.5L48.32 218.4c-.24-.8-.35-1.5-.35-2.3 0-3.8 2.95-8.1 7.97-8.1h335.9c6.07 0 8.11 5.494 8.11 8.113 0 .63-.08 1.26-.25 1.88l-70.93 214h50.62l65.1-199.2c2.68-5.5 3.48-11.1 3.48-16.8Z"/></svg>