<svg viewBox="0 0 512 512" xmlns="http://www.w3.org/2000/svg"><path d="M272.9 135.7c-4.6-4.9-11-7.7-17.7-7.7 -7.7.3-14.1 2.9-17.7 7.8l-87.25 96c-6.45 7.1-8.05 17.2-4.15 25.9 3.8 8.7 12.4 14.3 21 14.3h56l.9 88c0 13.25 10.75 24 24 24h16c13.25 0 23.1-10.75 23.1-24v-88h56c9.53 0 18.16-5.66 22-14.38 3.81-8.75 2.09-18.91-4.38-25.91l-87.83-96.01ZM256 0c-141.4 0-256 114.6-256 256s114.6 256 256 256 256-114.6 256-256C512 114.6 397.4 0 256 0Zm0 464c-114.7 0-208-93.31-208-208s93.3-208 208-208 208 93.31 208 208 -93.3 208-208 208Z"/></svg>