<svg viewBox="0 0 512 512" xmlns="http://www.w3.org/2000/svg"><path d="M344 240h-56l-.9-88c0-13.25-10.75-24-24-24h-16c-12.4 0-24 10.8-24 24l.9 88h-56c-9.54 0-18.16 5.65-22 14.38 -3.8 8.72-2.1 18.92 4.4 25.92l88.75 96c4.55 4.9 10.95 7.7 17.65 7.7 7.78-.32 13.25-2.875 17.75-7.85l87.25-96c6.4-7.04 8.03-17.19 4.18-25.88 -3.85-8.69-12.488-14.28-21.988-14.28ZM256 0C114.6 0 0 114.6 0 256c0 141.4 114.6 256 256 256s256-114.6 256-256C512 114.6 397.4 0 256 0Zm0 464c-114.7 0-208-93.31-208-208s93.3-208 208-208 208 93.31 208 208 -93.3 208-208 208Z"/></svg>