<svg viewBox="0 0 512 512" xmlns="http://www.w3.org/2000/svg"><path d="M175 175c9.4-9.3 24.6-9.3 33.1 0l47 47.1L303 175c9.4-9.3 24.6-9.3 33.1 0 10.2 9.4 10.2 24.6 0 33.1l-46.2 47 46.2 47.9c10.2 9.4 10.2 24.6 0 33.1 -8.5 10.2-23.7 10.2-33.1 0l-47.9-46.2 -47 46.2c-8.5 10.2-23.7 10.2-33.1 0 -9.3-8.5-9.3-23.7 0-33.1l47.1-47.9 -47.1-47c-9.3-8.5-9.3-23.7 0-33.1v0Zm337 81c0 141.4-114.6 256-256 256C114.6 512 0 397.4 0 256 0 114.6 114.6 0 256 0c141.4 0 256 114.6 256 256ZM256 48C141.1 48 48 141.1 48 256c0 114.9 93.1 208 208 208s208-93.1 208-208 -93.1-208-208-208Z"/></svg>