<svg viewBox="0 0 576 512" xmlns="http://www.w3.org/2000/svg"><path d="M512 32H64C28.65 32 0 60.65 0 96v320c0 35.35 28.65 64 64 64h448c35.35 0 64-28.65 64-64V96c0-35.35-28.7-64-64-64Zm16 384c0 8.82-7.18 16-16 16H64c-8.83 0-16-7.18-16-16V96c0-8.83 7.17-16 16-16h448c8.82 0 16 7.17 16 16v320ZM236.5 222.1c9.375 9.375 24.56 9.375 33.94 0 9.375-9.375 9.375-24.56 0-33.94 -37.44-37.44-98.31-37.44-135.7 0C116.5 206.2 106.5 230.4 106.5 256c0 25.6 9.1 49.75 28.12 67.88 18.72 18.72 43.28 28.08 67.87 28.08 24.59 0 49.16-9.36 67.87-28.08 9.375-9.375 9.375-24.56 0-33.94 -9.375-9.375-24.56-9.375-33.94 0 -18.69 18.72-49.19 18.72-67.87 0C159.5 280.9 154.5 268.8 154.5 256c0-12.8 5-24.88 14.06-33.94 18.74-18.76 49.24-18.76 67.94.04Zm192 0c9.375 9.375 24.56 9.375 33.94 0 9.375-9.375 9.375-24.56 0-33.94 -37.44-37.44-98.31-37.44-135.7 0C308.5 206.2 298.5 230.4 298.5 256c0 25.6 9.1 49.75 28.12 67.88 18.72 18.72 43.28 28.08 67.87 28.08 24.59 0 49.16-9.36 67.87-28.08 9.375-9.375 9.375-24.56 0-33.94 -9.375-9.375-24.56-9.375-33.94 0 -18.69 18.72-49.19 18.72-67.87 0C351.5 280.9 346.5 268.8 346.5 256c0-12.8 5-24.88 14.06-33.94 18.74-18.76 49.24-18.76 67.94.04Z"/></svg>