<svg viewBox="0 0 512 512" xmlns="http://www.w3.org/2000/svg"><path d="M256 0C114.6 0 0 114.6 0 256c0 141.4 114.6 256 256 256s256-114.6 256-256C512 114.6 397.4 0 256 0Zm0 464c-114.7 0-208-93.31-208-208s93.3-208 208-208 208 93.31 208 208 -93.3 208-208 208Zm-.9-288s0 0 0 0c21.06 0 40.92 8.31 55.83 23.38 9.375 9.34 24.53 9.5 33.97.15 9.4-9.35 9.46-24.53.15-33.97 -24-24.22-55.95-37.56-89.95-37.56 0 0 .03 0 0 0 -33.97 0-65.95 13.34-89.95 37.56 -49.44 49.88-49.44 131 0 180.9 24 24.22 55.98 37.56 89.95 37.56 .03 0 0 0 0 0 34 0 65.95-13.34 89.95-37.56 9.31-9.44 9.25-24.62-.16-33.97 -9.44-9.32-24.59-9.22-33.97.15 -14.91 15.06-34.77 23.38-55.83 23.38 0 0 .03 0 0 0 -21.09 0-40.95-8.32-55.89-23.38 -30.94-31.22-30.94-82.03 0-113.3 14.99-15.06 34.79-23.36 55.89-23.36Z"/></svg>