<svg viewBox="0 0 512 512" xmlns="http://www.w3.org/2000/svg"><path d="M493.6 163c-24.88-19.62-45.5-35.37-164.3-121.6C312.7 29.21 279.7 0 256.4 0h-.8c-23.3 0-56.3 29.21-73 41.38C63.88 127.6 43.25 143.4 18.38 163c-11.63 9-18.38 23-18.38 37.8V448c0 35.3 28.65 64 64 64h384c35.35 0 64-28.67 64-64.01V200.8c0-14.8-6.7-28.8-18.4-37.8ZM464 448c0 8.82-7.18 16-16 16H64c-8.83 0-16-7.18-16-16V276.7l136.1 113.4c20.2 16.7 45.7 25.9 71.9 25.9 26.2 0 51.75-9.22 71.97-26.01L464 276.7V448Zm0-233.8L297.2 352.3c-23.19 19.28-59.34 19.27-82.47.01L48 214.19l.1-13.48c23.24-18.33 42.25-32.97 162.9-120.6 3.08-2.26 6.67-5.03 10.63-8.1 7.76-6.04 25.06-19.44 34.36-23.41 9.31 3.97 26.62 17.37 34.41 23.41 3.95 3.06 7.55 5.84 10.76 8.18C421.59 167.67 440.69 182.37 463.99 200.77v13.4Z"/></svg>