<svg viewBox="0 0 576 512" xmlns="http://www.w3.org/2000/svg"><path d="M160 256c0-70.7 57.3-128 128-128s128 57.3 128 128 -57.3 128-128 128 -128-57.3-128-128Zm128 80c44.2 0 80-35.8 80-80s-35.8-80-80-80c-.7 0-1.3 0-2.9 0 2.2 5.1 2.9 10.5 2.9 16 0 35.3-28.7 64-64 64 -5.5 0-10.9-.7-16-2.9 0 1.6 0 2.2 0 2 0 45.1 35.8 80.9 80 80.9v0ZM95.42 112.6C142.5 68.84 207.2 32 288 32c80.8 0 145.5 36.84 192.6 80.6 46.8 43.4 78.1 94.5 92.9 131.1 3.3 7.9 3.3 16.7 0 24.6 -14.8 35.7-46.1 86.8-92.9 131.1C433.5 443.2 368.8 480 288 480c-80.8 0-145.5-36.8-192.58-80.6 -46.8-44.3-78.08-95.4-92.96-131.1 -3.29-7.9-3.29-16.7 0-24.6C17.33 207.1 48.61 156 95.419 112.6v0ZM288 80c-65.2 0-118.8 29.6-159.9 67.7 -38.5 35.8-65.08 77.4-78.66 108.3 13.58 30 40.16 72.5 78.66 108.3C169.2 402.4 222.8 432 288 432c65.2 0 118.8-29.6 159.9-67.7 38.5-35.8 64.2-78.3 78.7-108.3 -14.5-30.9-40.2-72.5-78.7-108.3C406.8 109.6 353.2 80 288 80v0Z"/></svg>