<svg viewBox="0 0 512 512" xmlns="http://www.w3.org/2000/svg"><path d="M130.7 313.9c-4.2-13.5 7.1-25.9 20.4-25.9h213.4c14.2 0 25.4 12.4 21.3 25.9 -17.7 54.5-67.6 94.1-127.6 94.1s-110.7-39.6-127.5-94.1v0Zm86.9-85.1v0l-.2-.3c-.2-.2-.4-.5-.7-.9 -.7-.8-1.6-1.9-2.8-3.3 -2.5-2.9-6-6.6-10.2-11.2 -8.8-6.9-18.9-13.1-27.7-13.1s-18.9 6.2-27.7 13.1c-4.2 4.6-7.7 8.3-10.2 11.2 -1.2 1.4-3 2.5-2.8 3.3 -1.2.4-.5.7-.7.9l-.2.3v0c-2.1 2.8-5.7 3.9-8.9 2.8 -3.3-1.1-5.5-4.2-5.5-7.6 0-17.9 6.7-35.6 16.6-48.8 9.8-13 23.9-23.2 39.4-23.2s29.6 10.2 39.4 23.2c9.9 13.2 16.6 30.9 16.6 48.8 0 3.4-2.2 6.5-5.5 7.6 -3.2 1.1-6.8 0-8.9-2.8v0Zm160 0l-.2-.3c-.2-.2-.4-.5-.7-.9 -.7-.8-1.6-1.9-2.8-3.3 -2.5-2.9-6-6.6-10.2-11.2 -8.8-6.9-18.9-13.1-27.7-13.1s-18.9 6.2-27.7 13.1c-4.2 4.6-7.7 8.3-10.2 11.2 -1.2 1.4-3 2.5-2.8 3.3 -1.2.4-.5.7-.7.9l-.2.3v0c-2.1 2.8-5.7 3.9-8.9 2.8 -3.3-1.1-5.5-4.2-5.5-7.6 0-17.9 6.7-35.6 16.6-48.8 9.8-13 23.9-23.2 39.4-23.2s29.6 10.2 39.4 23.2c9.9 13.2 16.6 30.9 16.6 48.8 0 3.4-2.2 6.5-5.5 7.6 -3.2 1.1-6.8 0-8.9-2.8v0ZM512 256c0 141.4-114.6 256-256 256C114.6 512 0 397.4 0 256 0 114.6 114.6 0 256 0c141.4 0 256 114.6 256 256ZM256 48C141.1 48 48 141.1 48 256c0 114.9 93.1 208 208 208s208-93.1 208-208 -93.1-208-208-208Z"/></svg>