<svg viewBox="0 0 512 512" xmlns="http://www.w3.org/2000/svg"><path d="M344 288c30.9 0 56 25.1 56 56s-25.1 56-56 56H168c-30.9 0-56-25.1-56-56s25.1-56 56-56h176Zm-176 32c-13.3 0-24 10.7-24 24s10.7 24 24 24h8v-48h-8Zm40 48h32v-48h-32v48Zm96-48h-32v48h32v-48Zm32 48h8c13.3 0 24-10.7 24-24s-10.7-24-24-24h-8v48ZM208.4 208c0 17.7-14.4 32-32 32 -17.7 0-32-14.3-32-32s14.3-32 32-32c17.6 0 32 14.3 32 32Zm96 0c0-17.7 14.3-32 32-32 17.6 0 32 14.3 32 32s-14.4 32-32 32c-17.7 0-32-14.3-32-32ZM0 256C0 114.6 114.6 0 256 0c141.4 0 256 114.6 256 256s-114.6 256-256 256C114.6 512 0 397.4 0 256ZM256 48C141.1 48 48 141.1 48 256c0 114.9 93.1 208 208 208s208-93.1 208-208 -93.1-208-208-208Z"/></svg>