<svg viewBox="0 0 512 512" xmlns="http://www.w3.org/2000/svg"><path d="M144.4 208c0-17.7 14.3-32 32-32 17.6 0 32 14.3 32 32s-14.4 32-32 32c-17.7 0-32-14.3-32-32Zm224 0c0 17.7-14.4 32-32 32 -17.7 0-32-14.3-32-32s14.3-32 32-32c17.6 0 32 14.3 32 32ZM328 328c13.3 0 24 10.7 24 24s-10.7 24-24 24H184c-13.3 0-24-10.7-24-24s10.7-24 24-24h144Zm184-72c0 141.4-114.6 256-256 256C114.6 512 0 397.4 0 256 0 114.6 114.6 0 256 0c141.4 0 256 114.6 256 256ZM256 464c114.9 0 208-93.1 208-208s-93.1-208-208-208C141.1 48 48 141.1 48 256c0 114.9 93.1 208 208 208Z"/></svg>