<svg viewBox="0 0 384 512" xmlns="http://www.w3.org/2000/svg"><path d="M365.3 93.38l-74.63-74.64C278.6 6.74 262.3-.001 245.4-.001H64c-35.35 0-64 28.65-64 64l0 384c0 35.34 28.65 64 64 64h255.99c35.2 0 64-28.8 64-64V138.6c0-16.9-6.7-33.2-18.7-45.22ZM336 448c0 8.83-7.17 16-16 16H64.02c-8.84 0-16-7.17-16-16L48 64.13c0-8.84 7.16-16 16-16h160V128c0 17.67 14.33 32 32 32h79.1v288ZM214.6 248c-3.3-9.6-12.4-16-22.6-16 -10.2 0-19.25 6.4-22.62 16l-24.68 70.1 -25.89-77.66C114.6 227.8 101 221.2 88.41 225.2c-12.58 4.2-19.36 17.8-15.18 30.4l48 144c3.27 9.7 12.27 16.3 22.57 16.4 10.17 0 19.45-6.41 22.83-16L192 328.1l25.4 71.9c3.4 9.6 12.4 16 22.6 16 10.27-.1 19.53-6.69 22.77-16.41l48-144c4.18-12.59-2.6-26.16-15.17-30.38 -12.61-4.125-26.2 2.59-30.36 15.19l-25.89 77.66L214.6 248Z"/></svg>