<svg viewBox="0 0 384 512" xmlns="http://www.w3.org/2000/svg"><path d="M162.1 257.8c-7.82-7.82-20.47-7.82-28.28 0l-48 48c-7.82 7.81-7.82 20.5 0 28.31l48 48C137.8 386.1 142.9 388 148 388c5.1 0 10.23-1.94 14.14-5.85 7.81-7.82 7.81-20.5 0-28.31l-33.84-33.85 33.86-33.84c6.94-7.86 6.94-20.46-.06-28.36ZM365.3 93.38l-74.63-74.64C278.6 6.74 262.3 0 245.4 0H64c-35.35 0-64 28.65-64 64l0 384c0 35.34 28.65 64 64 64h255.99c35.2 0 64-28.8 64-64V138.6c0-16.9-6.7-33.2-18.7-45.22ZM336 448c0 8.83-7.17 16-16 16H64.02c-8.84 0-16-7.17-16-16L48 64.13c0-8.84 7.16-16 16-16h160V128c0 17.67 14.33 32 32 32h79.1v288ZM221.9 257.8c-7.82 7.81-7.82 20.5 0 28.31L255.7 320l-33.86 33.84c-7.82 7.81-7.82 20.5 0 28.31C225.8 386.1 230.9 388 236 388c5.1 0 10.23-1.94 14.14-5.85l48-48c7.81-7.82 7.81-20.5 0-28.31l-48-48c-7.84-7.85-20.44-7.85-28.24-.05Z"/></svg>