<svg viewBox="0 0 384 512" xmlns="http://www.w3.org/2000/svg"><path d="M365.3 93.38l-74.63-74.64C278.6 6.74 262.3-.001 245.4-.001L64-.01c-35.35 0-64 28.65-64 64l0 384c0 35.34 28.65 64 64 64h255.99c35.2 0 64-28.8 64-64v-309.4c0-16.9-6.7-33.2-18.7-45.22ZM336 448c0 8.83-7.17 16-16 16H64.02c-8.84 0-16-7.17-16-16L48 64.13c0-8.84 7.16-16 16-16h160V128c0 17.67 14.33 32 32 32h79.1v288ZM171.5 259.5L136 296H92c-6.62 0-12 5.4-12 12v56c0 6.7 5.38 12 12 12h44l35.5 36.5c7.6 7.5 20.5 2.3 20.5-8.5V268c0-10.7-12.9-16.1-20.5-8.5Zm63.6 1.2c-6.25 6.25-6.25 16.38 0 22.62 .2.18 20.9 21.78 20.9 52.68 0 30.94-20.77 52.53-20.91 52.69 -6.25 6.25-6.25 16.38 0 22.62 3.11 3.09 7.21 4.69 11.31 4.69 4.1 0 8.18-1.57 11.31-4.69 .39-1.22 30.29-30.82 30.29-75.32 0-44.5-29.05-74.06-30.28-75.31 -6.22-6.29-16.42-6.29-22.62.01Z"/></svg>