<svg viewBox="0 0 384 512" xmlns="http://www.w3.org/2000/svg"><path d="M365.3 93.38l-74.63-74.64C278.6 6.74 262.3-.001 245.4-.001L64-.01c-35.35 0-64 28.65-64 64l0 384c0 35.34 28.65 64 64 64h255.99c35.2 0 64-28.8 64-64v-309.4c0-16.9-6.7-33.2-18.7-45.22ZM336 448c0 8.83-7.17 16-16 16H64.02c-8.84 0-16-7.17-16-16L48 64.13c0-8.84 7.16-16 16-16h48V64h64V48.13h48.01L224 128c0 17.67 14.33 32 32 32h79.1v288ZM176 96h-64v32h64V96Zm0 64h-64v32h64v-32Zm0 64h-64L81.44 340.5c-7.93 39 22.26 75.5 62.86 75.5 40.26 0 70.45-36.3 62.68-75.15L176 224Zm-16 144h-32c-8.84 0-16-7.17-16-16 0-8.84 7.16-16 16-16h32c8.83 0 16 7.16 16 16 0 8.83-7.2 16-16 16Z"/></svg>