<svg viewBox="0 0 384 512" xmlns="http://www.w3.org/2000/svg"><path d="M365.3 93.38l-74.63-74.64C278.6 6.74 262.3-.001 245.4-.001H64c-35.35 0-64 28.65-64 64l0 384c0 35.34 28.65 64 64 64h255.99c35.2 0 64-28.8 64-64V138.6c0-16.9-6.7-33.2-18.7-45.22ZM336 448c0 8.83-7.17 16-16 16H64.02c-8.84 0-16-7.17-16-16L48 64.13c0-8.84 7.16-16 16-16h160V128c0 17.67 14.33 32 32 32h79.1v288Zm-96-160c0-17.67-14.33-32-32-32h-96c-17.67 0-32 14.33-32 32v96c0 17.67 14.33 32 32 32h96c17.67 0 32-14.33 32-32v-16.52l43.84 30.2c8.46 5.82 20.16-.08 20.16-10.28V284.6c0-10.16-11.64-16.16-20.16-10.32L240 304.5V288Z"/></svg>