<svg viewBox="0 0 384 512" xmlns="http://www.w3.org/2000/svg"><path d="M365.3 93.38l-74.63-74.64C278.6 6.74 262.3-.001 245.4-.001H64c-35.35 0-64 28.65-64 64l0 384c0 35.34 28.65 64 64 64h255.99c35.2 0 64-28.8 64-64V138.6c0-16.9-6.7-33.2-18.7-45.22ZM336 448c0 8.83-7.17 16-16 16H64.02c-8.84 0-16-7.17-16-16L48 64.13c0-8.84 7.16-16 16-16h160V128c0 17.67 14.33 32 32 32h79.1v288ZM215.3 292c-4.68 0-9.06 2.34-11.65 6.23L164 357.79l-11.68-17.53c-2.62-3.97-7.02-6.27-11.62-6.27 -4.69 0-9.06 2.34-11.65 6.23l-46.67 70c-2.87 4.29-3.14 9.82-.7 14.37 2.4 4.59 7.15 7.39 11.41 7.39h196c5.16 0 9.9-2.85 12.34-7.4 2.43-4.56 2.17-10.07-.7-14.37l-74.67-112c-1.68-3.94-6.08-6.24-10.78-6.24Zm-87.3-4c17.67 0 32-14.33 32-32s-14.3-32-32-32 -32 14.3-32 32 14.3 32 32 32Z"/></svg>