<svg viewBox="0 0 512 512" xmlns="http://www.w3.org/2000/svg"><path d="M476.3 0c-6.37 0-13.01 1.35-19.34 4.23 -45.69 20.86-79.56 27.94-107.8 27.94C289.2 32.17 254.35.31 185.26.3c-34.63 0-77.87 8.003-137.2 32.05v-8.36C48 10.74 37.25-.01 24-.01c-13.25 0-24 10.75-24 24v464c0 13.3 10.75 24 24 24s24-10.75 24-24v-104c53.59-23.86 96.02-31.81 132.8-31.81 73.63 0 124.9 31.78 198.6 31.78 31.91 0 68.02-5.98 111.1-23.09 13.6-4.98 21.5-16.48 21.5-28.78V30.72c0-19.63-16.7-30.73-35.7-30.73ZM464 319.8c-30.31 10.82-58.08 16.1-84.6 16.1 -30.8 0-58.31-7-87.44-14.41 -32.01-8.15-68.29-17.37-111.1-17.37 -42.35 0-85.99 9.09-132.8 27.73V84.14l18.03-7.31c47.39-19.2 86.38-28.54 119.2-28.54 28.24 0 49.12 6.71 73.31 14.48 25.38 8.14 54.13 17.39 90.58 17.39 35.43 0 72.24-8.5 114.9-26.61v266.241Z"/></svg>