<svg viewBox="0 0 448 512" xmlns="http://www.w3.org/2000/svg"><path d="M448 48v336c-63.09 22.54-82.34 32-119.5 32 -62.82 0-86.6-32-149.3-32 -21.69 0-38.48 3.79-53.74 8.76C110.1 397.49 96 386.09 96 371.69v-.75c0-9.28 5.73-17.6 14.42-20.86 18.68-7.3 39.78-14.1 68.78-14.1 62.73 0 86.51 32 149.3 32 25.5 0 42.85-4.61 71.47-14.7v-240c-20.77 7.3-42.27 14.7-71.47 14.7 -.01 0 0 0 0 0 -62.81 0-86.61-32-149.3-32 -57.1 0-80.4 26.1-131.2 30.1v329.9c0 13.3-10.75 24-24 24s-24-10.7-24-24v-400c0-13.26 10.75-24 24-24s24 10.74 24 24v22.99c50.8-4.85 74.1-30.99 131.2-30.99 62.77 0 86.45 32 149.3 32 37.6 0 58.3-10.15 119.5-32Z"/></svg>