<svg viewBox="0 0 512 512" xmlns="http://www.w3.org/2000/svg"><path d="M152 120c-26.51 0-48 21.49-48 48s21.49 48 48 48 48-21.49 48-48 -21.5-48-48-48Zm295.1-88h-384C28.65 32-.01 60.65-.01 96v320c0 35.35 28.65 64 63.1 64h384c35.35 0 64-28.65 64-64V96c0-35.35-27.8-64-64-64Zm16 377.3L326.3 223.4c-2.5-4.6-8.2-7.4-14.3-7.4 -6.12 0-11.82 2.76-15.21 7.37l-106.6 144.1 -37.09-46.1c-3.45-4.28-8.94-6.81-14.77-6.81 -5.85 0-11.33 2.52-14.78 6.8l-75.52 93.81c0-.03 0 .02 0 0l-.04-319.19c0-8.83 7.17-16 16-16h384c8.82 0 16 7.17 16 16v313.3Z"/></svg>