<svg viewBox="0 0 576 512" xmlns="http://www.w3.org/2000/svg"><path d="M512 32H160c-35.35 0-64 28.65-64 64v224c0 35.35 28.65 64 64 64h352c35.35 0 64-28.65 64-64V96c0-35.35-28.7-64-64-64Zm16 288c0 8.82-7.18 16-16 16h-16L386.7 175.1c-3-4.4-8-7.1-13.4-7.1 -5.36 0-10.35 2.67-13.31 7.125l-62.74 94.11 -22.35-30.64c-3-4.2-7.8-6.6-12.9-6.6 -5.11 0-9.92 2.44-12.93 6.57L176 335.985h-16c-8.83 0-16-7.18-16-16v-224c0-8.83 7.17-16 16-16h352c8.82 0 16 7.17 16 16v224ZM224 112c-17.67 0-32 14.33-32 32s14.33 32 32 32c17.68 0 32-14.33 32-32s-14.3-32-32-32Zm232 368H120C53.83 480 0 426.2 0 360V120c0-13.2 10.75-24 24-24s24 10.8 24 24v240c0 39.7 32.3 72 72 72h336c13.25 0 24 10.75 24 24s-10.7 24-24 24Z"/></svg>