<svg viewBox="0 0 576 512" xmlns="http://www.w3.org/2000/svg"><path d="M512 64H64C28.65 64 0 92.65 0 128v256c0 35.35 28.65 64 64 64h448c35.35 0 64-28.65 64-64V128c0-35.35-28.7-64-64-64Zm16 320c0 8.82-7.18 16-16 16H64c-8.83 0-16-7.18-16-16V128c0-8.83 7.17-16 16-16h448c8.82 0 16 7.17 16 16v256ZM140 152h-24c-6.66 0-12 5.34-12 12v24c0 6.65 5.34 12 12 12h24c6.65 0 12-5.35 12-12v-24c0-6.7-5.3-12-12-12Zm56 48h24c6.65 0 12-5.35 12-12v-24c0-6.66-5.35-12-12-12h-24c-6.66 0-12 5.34-12 12v24c0 6.7 5.3 12 12 12Zm80 0h24c6.65 0 12-5.35 12-12v-24c0-6.66-5.35-12-12-12h-24c-6.66 0-12 5.34-12 12v24c0 6.7 5.3 12 12 12Zm80 0h24c6.65 0 12-5.35 12-12v-24c0-6.66-5.35-12-12-12h-24c-6.66 0-12 5.34-12 12v24c0 6.7 5.3 12 12 12Zm104-48h-24c-6.66 0-12 5.34-12 12v24c0 6.65 5.34 12 12 12h24c6.65 0 12-5.35 12-12v-24c0-6.7-5.3-12-12-12Zm-320 80h-24c-6.66 0-12 5.34-12 12v24c0 6.65 5.34 12 12 12h24c6.65 0 12-5.35 12-12v-24c0-6.7-5.3-12-12-12Zm56 48h24c6.65 0 12-5.35 12-12v-24c0-6.66-5.35-12-12-12h-24c-6.66 0-12 5.34-12 12v24c0 6.7 5.3 12 12 12Zm80 0h24c6.65 0 12-5.35 12-12v-24c0-6.66-5.35-12-12-12h-24c-6.66 0-12 5.34-12 12v24c0 6.7 5.3 12 12 12Zm80 0h24c6.65 0 12-5.35 12-12v-24c0-6.66-5.35-12-12-12h-24c-6.66 0-12 5.34-12 12v24c0 6.7 5.3 12 12 12Zm104-48h-24c-6.66 0-12 5.34-12 12v24c0 6.65 5.34 12 12 12h24c6.65 0 12-5.35 12-12v-24c0-6.7-5.3-12-12-12Zm-60 88H176c-8.9 0-16 7.1-16 16v16c0 8.875 7.125 16 16 16h224c8.875 0 16-7.125 16-16v-16c0-8.9-7.1-16-16-16Z"/></svg>