<svg viewBox="0 0 448 512" xmlns="http://www.w3.org/2000/svg"><path d="M384 32H64.01C28.66 32-.001 60.65-.001 96l-.01 319.1c-.002 36.2 28.65 64.9 64 64.9h232.1c25.46 0 49.88-10.12 67.89-28.12l55.88-55.89c18.03-18.89 28.13-42.39 28.13-67.89V96c0-35.2-28.8-64-64-64ZM52.69 427.3C50.94 425.6 48 421.8 48 416l.01-319.1c0-9.72 7.18-16.9 16-16.9h319.98c8.67 0 16 7.32 16 16v192h-88c-30.9 0-56 25.1-56 56v88h-192c-5.77 0-9.56-2.9-11.31-4.7Zm277.41-9.4c-7.2 7.2-16.3 11.7-26.1 13.3V344c0-4.41 3.59-8 8-8h87.23c-1.62 9.81-6.12 18.88-13.29 26.05L330.1 417.9Z"/></svg>