<svg viewBox="0 0 512 512" xmlns="http://www.w3.org/2000/svg"><path d="M502.6 198.6l-61.25-61.25C435.4 131.4 427.3 128 418.8 128H256c-35.3 0-64.9 28.7-64 64l0 255.1c-.01 36.2 28.69 64.9 63.99 64.9h192c35.2 0 64-28.8 64-64l0-226.7c-.01-8.5-3.41-16.7-9.41-22.7ZM464 448c0 8.83-7.17 16-16 16H256c-8.84 0-16-7.17-16-16V192.1c0-8.84 7.16-16 16-16h128V224c0 17.67 14.33 32 32 32h48.01v192ZM317.7 96c-7.1-27.55-31.9-48-61.7-48h-40.8C211.3 20.93 188.1 0 160 0c-28.1 0-51.3 20.93-55.2 48H64C28.65 48 0 76.65 0 112v272c0 35.34 28.65 64 64 64h96v-48H64c-8.84 0-16-7.17-16-16V112c0-8.8 7.18-16 16-16h16v16c0 17.67 14.33 32 32 32h61.35C190 115.4 220.6 96 256 96h61.7ZM160 72c-8.83 0-16-7.18-16-16 0-8.83 7.17-16 16-16 8.82 0 16 7.17 16 16 0 8.82-7.2 16-16 16Z"/></svg>