<svg viewBox="0 0 576 512" xmlns="http://www.w3.org/2000/svg"><path d="M568.5 142.6L424.5 7.5c-9.625-9.16-24.81-8.66-33.91.96 -9.125 9.62-8.69 24.81.96 33.91l100.1 94.56h-163.4c-40.76-2.74-78.56 14.06-107.26 42.46 -29 28.8-45 67.3-45 108.6v87.1c0 13.25 10.75 23.1 24 23.1s24-8.9 24-22.2v-88c0-28.37 10.94-54.84 30.78-74.5 19.52-19.3 44.12-30.5 73.22-29.5h163.6l-100.1 94.56c-9.66 9.09-10.09 24.28-.97 33.91 4.71 4.1 11.06 7.53 17.44 7.53 5.9 0 11.84-2.16 16.47-6.57l144-135.1c4.85-5.44 7.55-11.74 7.55-18.34s-2.7-12.9-7.5-17.4ZM360 384c-13.25 0-24 10.75-24 23.1v47.1c0 4.4-3.6 7.1-8 7.1H56c-4.41 0-8-3.6-8-7.1V184c0-4.41 3.59-7.1 8-7.1h56c13.25 0 24-10.75 24-23.1 0-12.35-10.75-23.1-24-23.1H56c-30.88 0-56 25.12-56 55.1v271.1c0 30 25.13 55.1 56 55.1h272c30.88 0 56-25.12 56-55.1v-47.1c0-15-10.7-25.8-24-25.8Z"/></svg>