<svg viewBox="0 0 512 512" xmlns="http://www.w3.org/2000/svg"><path d="M484.4 294.4c1.71 6.4.67 12.89-2.4 18.21 -3.08 5.32-8.18 9.46-14.57 11.18l-31.46 8.43 32.96 19.03c11.46 6.55 15.46 21.25 8.86 32.75 -6.6 11.5-21.38 15.41-32.86 8.78l-32.96-19.03 8.43 31.46c3.43 12.81-4.17 25.96-16.97 29.39 -12.81 3.43-25.96-4.17-29.39-16.97l-20.85-77.82 -73.2-42.22v84.49l56.97 56.97c9.375 9.375 9.375 24.56 0 33.94 -4.67 4.7-10.87 7-16.97 7s-12.28-2.35-16.97-7.04l-23.03-23.07v38.1c0 13.25-10.75 24-24 24s-24-10.75-24-24v-38.06l-23.03 23.03c-9.375 9.375-24.56 9.375-33.94 0 -9.38-9.375-9.375-24.56 0-33.94l56.97-56.93v-84.5l-73.17 42.25 -20.85 77.82c-3.44 12.81-16.58 20.4-29.39 16.97 -12.81-3.43-20.4-16.58-16.97-29.39l8.43-31.46 -32.96 19.03c-11.48 6.58-26.24 2.68-32.87-8.82 -6.63-11.5-2.62-26.16 8.85-32.79l32.96-19.03 -31.46-8.43c-12.81-3.44-20.4-16.58-16.97-29.39 3.43-12.81 16.58-20.4 29.39-16.97l77.82 20.85 73.18-43.14 -73.2-41.3 -77.79 20.8c-12.81 3.4-25.96-4.2-29.39-17 -3.43-12.8 4.16-25.96 16.97-29.39l31.46-8.44 -32.97-18.98c-11.47-6.6-15.48-21.3-8.86-32.8 6.62-11.5 21.38-15.41 32.86-8.79l32.96 19.03 -8.42-31.45c-3.44-12.82 4.16-25.97 16.98-29.41 12.82-3.44 25.96 4.16 29.39 16.97l20.85 77.82 73.16 42.22v-84.5l-57-56.93c-9.375-9.375-9.375-24.56 0-33.94 9.375-9.38 24.56-9.375 33.94 0l23.06 23.03V23.96c0-13.25 10.8-24 24-24s24 10.75 24 24v38.06l23.03-23.03c9.375-9.375 24.56-9.375 33.94 0 9.38 9.375 9.375 24.56 0 33.94l-56.97 56.93v84.49l73.17-42.25L374 94.28c3.43-12.81 16.58-20.4 29.39-16.97 6.4 1.71 11.5 5.86 14.57 11.18 3.07 5.31 4.1 11.81 2.39 18.21l-8.43 31.46 32.96-19.03c11.49-6.57 26.29-2.67 32.89 8.83 6.6 11.5 2.61 26.16-8.86 32.78l-32.96 19.03 31.46 8.43c12.81 3.43 20.4 16.58 16.97 29.39 -3.43 12.81-16.58 20.4-29.39 16.97l-77.82-20.85 -73.21 41.34 73.17 42.25 77.82-20.85c12.81-3.4 25.11 5.1 29.41 17.9Z"/></svg>