<svg viewBox="0 0 448 512" xmlns="http://www.w3.org/2000/svg"><path d="M241.6 175.7c-4.5-4.9-10.9-7.7-17.6-7.7 -6.7 0-13.1 2.8-17.6 7.7l-96 104c-6.47 7-8.19 17.19-4.375 25.91 3.77 8.69 12.47 14.39 21.07 14.39h192c9.53 0 18.16-5.66 22-14.38 3.81-8.72 2.09-18.91-4.375-25.91L241.59 175.7ZM384 32H64C28.65 32 0 60.66 0 96v320c0 35.34 28.65 64 64 64h320c35.35 0 64-28.66 64-64V96c0-35.34-28.7-64-64-64Zm16 384c0 8.82-7.18 16-16 16H64c-8.83 0-16-7.18-16-16V96c0-8.82 7.17-16 16-16h320c8.82 0 16 7.18 16 16v320Z"/></svg>