<svg viewBox="0 0 448 512" xmlns="http://www.w3.org/2000/svg"><path d="M384 32H64C28.66 32 0 60.66 0 96v320c0 35.34 28.66 64 64 64h320c35.34 0 64-28.66 64-64V96c0-35.34-28.7-64-64-64Zm16 384c0 8.82-7.18 16-16 16H64c-8.82 0-16-7.18-16-16V96c0-8.82 7.18-16 16-16h320c8.82 0 16 7.18 16 16v320ZM273.6 138c-8.72-3.82-18.91-2.1-25.91 4.375l-104 96c-4.89 4.52-7.69 10.92-7.69 17.625 0 6.7 2.81 13.09 7.71 17.62l104 96c7 6.46 17.19 8.18 25.91 4.375 8.67-3.8 14.37-12.5 14.37-22v-192c0-9.5-5.7-18.2-14.4-22Z"/></svg>