<svg viewBox="0 0 512 512" xmlns="http://www.w3.org/2000/svg"><path d="M128 288V64.03c0-17.67-14.33-31.1-32-31.1H32c-17.67 0-32 14.33-32 31.1v223.1c0 17.67 14.33 31.1 32 31.1h64c17.7 1.77 32-12.53 32-30.23Zm353.5-58.9c1.23-5.1 1.875-10.32 1.875-15.64 0-22.7-11.44-43.13-29.28-55.28 .42-3.02.64-6.08.64-9.13 0-22.32-11.06-42.6-28.83-54.83 -2.44-34.71-31.47-62.2-66.8-62.2h-52.53c-35.94 0-71.55 11.87-100.3 33.41l-36.68 27.49c-6.29 4.71-9.6 11.85-9.6 19.13 0 12.76 10.29 24.04 24.03 24.04 5.01 0 10.07-1.57 14.38-4.82l36.66-27.51c20.48-15.34 45.88-23.81 71.5-23.81h52.53c10.45 0 18.97 8.497 18.97 18.95 0 3.5-1.11 4.94-1.11 9.45 0 26.97 29.77 17.91 29.77 40.64 0 9.25-6.4 10.96-6.4 22.25 0 13.97 10.85 21.95 19.58 23.59 8.95 1.67 15.45 9.48 15.45 18.56 0 13.04-11.39 13.37-11.39 28.91 0 12.54 9.7 23.08 22.36 23.94 9.85-.17 17.65 8.93 17.65 17.83 0 10.43-8.52 18.93-18.97 18.93h-137.63c-12.44 0-24 10.02-24 23.1 0 4.03 1.02 8.07 3.06 11.72 17.93 33.85 25.53 65.95 25.53 73.35 0 8.04-5.99 20.79-22.06 20.79 -12.53 0-14.27-.91-24.94-28.07 -24.75-62.91-61.74-99.9-80.98-99.9 -13.8 0-24.02 11.27-24.02 23.99 0 7.04 3.08 14.02 9.01 18.76 69.08 55.23 42.38 133.23 120.88 133.23 43.9 0 70.1-35 70.1-68.8 0-12.7-5.33-35.21-14.83-59.33h99.86c36.07.03 66.97-29.97 66.97-67.77 0-22.3-12.1-43.1-30.5-55Z"/></svg>