<svg viewBox="0 0 24 24" xmlns="http://www.w3.org/2000/svg"><path fill="none" d="M0 0h24v24H0Z"/><path d="M20 20v0c0 .55-.45 1-1 1H5v0c-.56 0-1-.45-1-1v-9H1l10.327-9.388v0c.38-.35.96-.35 1.346 0L23 11h-3v9ZM8.592 13.808l-1 .57 1 1.73 .99-.58v0c.39.37.87.65 1.4.81v1.14h2v-1.15h-.001c.52-.16 1-.44 1.4-.81l.99.57 1-1.74 -1-.58v0c.12-.54.12-1.09 0-1.62l.99-.58 -1-1.74 -1 .57 -.001 0c-.4-.38-.89-.66-1.41-.81V8.43h-2.01v1.14 0c-.53.15-1.01.43-1.41.81l-1-.58 -1.01 1.73 .99.57v0c-.13.53-.13 1.08 0 1.62Zm3.4.69v-.001c-.83 0-1.51-.68-1.51-1.5 -.01-.83.67-1.51 1.49-1.51v0c.82-.01 1.5.67 1.5 1.49s-.68 1.5-1.5 1.5Z"/></svg>