<svg viewBox="0 0 24 24" xmlns="http://www.w3.org/2000/svg"><path fill="none" d="M0 0h24v24H0Z"/><path d="M19 21H5v0c-.56 0-1-.45-1-1v-9H1l10.327-9.388v0c.38-.35.96-.35 1.346 0L23 11h-3v9 0c0 .55-.45 1-1 1ZM6 19h12V9.157L12 3.7 6 9.157V19Zm2.59-5.2v0c-.13-.54-.13-1.09 0-1.63l-1-.58 1-1.74 .99.57v0c.39-.38.87-.66 1.404-.82V8.45h2v1.14c.532.15 1.01.44 1.404.81l.99-.58 1 1.73 -1 .57v0c.12.53.12 1.08 0 1.62l.99.57 -1 1.73 -1-.58h0c-.4.37-.88.65-1.41.81v1.14h-2v-1.15 0c-.53-.16-1.01-.44-1.41-.82l-1 .57 -1-1.73 .99-.58Zm3.404.68l0-.001c.82.03 1.52-.62 1.55-1.45 .03-.83-.62-1.53-1.45-1.56 -.04-.01-.08-.01-.11 0v0c-.83.03-1.48.72-1.45 1.55 .02.78.65 1.41 1.44 1.44Z"/></svg>