<svg viewBox="0 0 24 24" xmlns="http://www.w3.org/2000/svg"><path fill="none" d="M0 0h24v24H0Z"/><path d="M21 13.24v6.75h1v2H2v-2h1v-6.76h0c-1.26-.84-2.01-2.24-2-3.75 0-.827.22-1.63.633-2.303L4.34 2.48v0c.17-.31.5-.5.86-.5h13.57v0c.35 0 .68.19.86.5l2.7 4.68v0c1.23 2.05.64 4.72-1.36 6.06Zm-2 .73h0c-1.4.15-2.79-.35-3.75-1.36v0c-.85.88-2.03 1.38-3.25 1.38v-.001c-1.23 0-2.41-.51-3.25-1.39v0C7.78 13.6 6.39 14.1 5 13.94v6.02h14v-6.03ZM5.78 3.99L3.34 8.2h0c-.52 1.27.09 2.73 1.37 3.25 1.14.46 2.45.02 3.08-1.04 .33-.84 1.52-.84 1.85 0v0c.51 1.28 1.96 1.9 3.24 1.39 .63-.26 1.14-.76 1.39-1.4 .33-.84 1.52-.84 1.85 0v0c.51 1.27 1.97 1.89 3.25 1.37 1.27-.52 1.89-1.98 1.37-3.26 -.05-.13-.11-.24-.18-.36l-2.43-4.2H5.71Z"/></svg>