<svg viewBox="0 0 24 24" xmlns="http://www.w3.org/2000/svg"><path fill-rule="evenodd" d="M17.95 15.571c-.19 1.64-1.04 3.09-2.28 4.06 -.35.83-.98 1.52-1.76 1.96 -.23.86-1.01 1.49-1.94 1.49 -.94 0-1.72-.64-1.94-1.5 -.79-.44-1.41-1.13-1.76-1.96 -1.24-.97-2.09-2.41-2.27-4.05 -1.1.82-2.65.82-3.75-.1 -1.27-1.07-1.44-2.96-.37-4.23l4.09-4.88C6.23 3.28 8.8.87 11.94.87c3.12 0 5.69 2.39 5.97 5.45l4.12 4.91c1.06 1.26.89 3.16-.37 4.22 -1.11.92-2.68.92-3.77.07Zm-2.33-2.67l-1.68-2h-3.9l-1.68 2h7.25Zm2.36-.3l1.03 1.22c.35.42.98.47 1.4.12 .42-.36.47-.99.12-1.41l-2.57-3.06v3.11Zm-2-3.71v-2c0-2.21-1.8-4-4-4 -2.21 0-4.01 1.79-4.01 4v2h8ZM4.97 13.82l1-1.21V9.49l-2.54 3.02c-.355.42-.3 1.05.12 1.4 .42.35 1.05.29 1.4-.13Zm7 5.06c-2.21 0-4.01-1.8-4.01-4h8c0 2.2-1.8 4-4 4Z"/></svg>