<svg viewBox="0 0 24 24" xmlns="http://www.w3.org/2000/svg"><g><path d="M12 11c1.1 0 2-.9 2-2 0-1.11-.9-2-2-2 -1.11 0-2 .89-2 2 0 1.1.89 2 2 2Z"/><path d="M11 13c0 1.1-.9 2-2 2 -1.11 0-2-.9-2-2 0-1.11.89-2 2-2 1.1 0 2 .89 2 2Z"/><path d="M15 15c1.1 0 2-.9 2-2 0-1.11-.9-2-2-2 -1.11 0-2 .89-2 2 0 1.1.89 2 2 2Z"/><path fill-rule="evenodd" d="M3 4c0-1.66 1.34-3 3-3h12c1.65 0 3 1.34 3 3v16c0 1.65-1.35 3-3 3H6c-1.66 0-3-1.35-3-3V4Zm3-1h12c.55 0 1 .44 1 1v16c0 .55-.45 1-1 1H6c-.56 0-1-.45-1-1V4c0-.56.44-1 1-1Z"/></g></svg>