<svg viewBox="0 0 24 24" xmlns="http://www.w3.org/2000/svg"><g fill-rule="evenodd"><path d="M22.775 8c.14.65.22 1.32.22 2h-9V1c.67 0 1.34.07 2 .22 .49.11.97.26 1.44.46 1.09.45 2.08 1.11 2.91 1.95 .83.83 1.49 1.82 1.95 2.91 .19.46.34.95.46 1.44Zm-2.07 0c-.07-.23-.15-.46-.25-.68 -.36-.85-.87-1.63-1.52-2.28 -.65-.66-1.43-1.17-2.28-1.52 -.23-.1-.45-.18-.68-.25v4.7h4.7Z"/><path d="M1 14c0-4.98 4.02-9 9-9 .67 0 1.34.07 2 .22v6.77h6.77c.14.65.22 1.32.22 2 0 4.97-4.03 9-9 9 -4.98 0-9-4.03-9-9Zm15.8 0H9.99V7.19c-3.76 0-6.81 3.04-6.81 6.8 0 3.75 3.04 6.8 6.8 6.8 3.75 0 6.8-3.05 6.8-6.81Z"/></g></svg>