<svg viewBox="0 0 24 24" xmlns="http://www.w3.org/2000/svg"><g><path d="M10.54 19c3.86 0 7-3.14 7-7 0-3.87-3.14-7-7-7 -1.94 0-3.69.78-4.95 2.05L3.46 4.92l-.02.01c1.81-1.83 4.31-2.95 7.08-2.95 5.52 0 10 4.47 10 10 0 5.52-4.48 10-10 10 -2.77 0-5.27-1.12-7.08-2.93l2.12-2.13c1.26 1.26 3.01 2.05 4.94 2.05Z"/><path d="M10.54 14c.59 0 1.12-.26 1.49-.67l2.12 2.12c-.92.95-2.2 1.54-3.62 1.54 -2.77 0-5.01-2.24-5.01-5 0-2.77 2.23-5 5-5 1.42 0 2.7.59 3.61 1.54L12 10.65c-.37-.42-.9-.67-1.5-.67 -1.11 0-2.01.89-2.01 2 0 1.1.89 2 2 2Z"/></g></svg>