<svg viewBox="0 0 24 24" xmlns="http://www.w3.org/2000/svg"><path fill-rule="evenodd" d="M12 17.456c-.77.34-1.61.54-2.5.54 -3.32 0-6-2.69-6-6 0-3.32 2.68-6 6-6 .89 0 1.73.19 2.5.54 .76-.35 1.6-.55 2.5-.55 3.31 0 6 2.68 6 6 0 3.31-2.69 6-6 6 -.9 0-1.74-.2-2.5-.55Zm-2-1.49c-.17.02-.34.03-.51.03 -2.21 0-4-1.8-4-4 0-2.21 1.79-4 4-4 .16 0 .33.01.5.03 -.94 1.05-1.51 2.44-1.51 3.96s.56 2.91 1.5 3.96Zm3.99-7.94c.16-.03.33-.04.5-.04 2.2 0 4 1.79 4 4 0 2.2-1.8 4-4 4 -.17 0-.34-.02-.51-.04 .93-1.06 1.5-2.45 1.5-3.97 0-1.53-.57-2.92-1.51-3.97Zm-2 .84c.91.73 1.5 1.85 1.5 3.12 0 1.26-.59 2.38-1.5 3.12 -.92-.74-1.5-1.86-1.5-3.13 0-1.27.58-2.39 1.5-3.13Z"/></svg>