<svg viewBox="0 0 24 24" xmlns="http://www.w3.org/2000/svg"><g fill-rule="evenodd"><path d="M7.75 6.34l4.24-4.25 4.24 4.24 -4.25 4.24 -4.25-4.25Zm2.82 0l1.41-1.42 1.41 1.41 -1.42 1.41 -1.42-1.42Z"/><path d="M2.1 11.99l4.24-4.25 4.24 4.24 -4.25 4.24 -4.25-4.25Zm2.82 0l1.41-1.42 1.41 1.41 -1.42 1.41 -1.42-1.42Z"/><path d="M13.41 11.99l4.24 4.24 4.24-4.25 -4.25-4.25 -4.25 4.24Zm4.24-1.42l-1.42 1.41 1.41 1.41 1.41-1.42 -1.42-1.42Z"/><path d="M7.75 17.65l4.24-4.25 4.24 4.24 -4.25 4.24 -4.25-4.25Zm2.82 0l1.41-1.42 1.41 1.41 -1.42 1.41 -1.42-1.42Z"/></g></svg>