<svg viewBox="0 0 24 24" xmlns="http://www.w3.org/2000/svg"><g><path d="M15.3 6.99c-.95-.63-2.09-1-3.31-1 -3.32 0-6 2.68-6 6 0 3.31 2.68 6 6 6 1.22 0 2.36-.37 3.31-1h-3.32v-1h4.47c.51-.58.92-1.26 1.18-2.01h-5.67v-1h5.91c.05-.33.08-.66.08-1 0-.34-.03-.66-.08-.98h-5.93v-1h5.66c-.27-.76-.68-1.45-1.21-2.04h-4.47v-1h3.3Z"/><path fill-rule="evenodd" d="M22 12c0-5.53-4.48-10-10-10C6.47 2 2 6.47 2 12c0 5.52 4.47 10 10 10 5.52 0 10-4.48 10-10Zm-10 8c4.41 0 8-3.59 8-8 0-4.42-3.59-8-8-8 -4.42 0-8 3.58-8 8 0 4.41 3.58 8 8 8Z"/></g></svg>