<svg viewBox="0 0 24 24" xmlns="http://www.w3.org/2000/svg"><g><path d="M15.46 11.29c-.4-.4-1.03-.4-1.42 0 -.4.39-.4 1.02 0 1.41 .39.39 1.02.39 1.41 0 .39-.4.39-1.03 0-1.42Z"/><path d="M16.17 9.17c.39-.4 1.02-.4 1.41 0 .39.39.39 1.02 0 1.41 -.4.39-1.03.39-1.42 0 -.4-.4-.4-1.03 0-1.42Z"/><path d="M19.71 11.29c-.4-.4-1.03-.4-1.42 0 -.4.39-.4 1.02 0 1.41 .39.39 1.02.39 1.41 0 .39-.4.39-1.03 0-1.42Z"/><path d="M16.17 13.41c.39-.4 1.02-.4 1.41 0 .39.39.39 1.02 0 1.41 -.4.39-1.03.39-1.42 0 -.4-.4-.4-1.03 0-1.42Z"/><path d="M6 13H4v-2h2V9h2v2h2v2H8v2H6v-2Z"/><path fill-rule="evenodd" d="M7 5c-3.87 0-7 3.13-7 7 0 3.86 3.13 7 7 7h10c3.86 0 7-3.14 7-7 0-3.87-3.14-7-7-7H7Zm10 2H7c-2.77 0-5 2.23-5 5 0 2.76 2.23 5 5 5h10c2.76 0 5-2.24 5-5 0-2.77-2.24-5-5-5Z"/></g></svg>