<svg viewBox="0 0 24 24" xmlns="http://www.w3.org/2000/svg"><g><path d="M9 8c-.56 0-1 .44-1 1 0 .55.44 1 1 1h2v2c0 .55.44 1 1 1 .55 0 1-.45 1-1v-2h2c.55 0 1-.45 1-1 0-.56-.45-1-1-1h-2V6c0-.56-.45-1-1-1 -.56 0-1 .44-1 1v2H9Z"/><path fill-rule="evenodd" d="M4 9c0-4.42 3.58-8 8-8 4.41 0 8 3.58 8 8 0 4.41-3.59 8-8 8 -4.42 0-8-3.59-8-8Zm8 6c-3.32 0-6-2.69-6-6 0-3.32 2.68-6 6-6 3.31 0 6 2.68 6 6 0 3.31-2.69 6-6 6Z"/><path d="M5 20c-.56 0-1 .44-1 1 0 .55.44 1 1 1h14c.55 0 1-.45 1-1 0-.56-.45-1-1-1H5Z"/></g></svg>