<svg viewBox="0 0 24 24" xmlns="http://www.w3.org/2000/svg"><g><path d="M14.82 12l1.41 1.41 2.82-2.83c1.56-1.57 1.56-4.1 0-5.66 -1.57-1.57-4.1-1.57-5.66 0l-2.83 2.82 1.41 1.41 2.82-2.83c.78-.79 2.04-.79 2.82 0 .78.78.78 2.04 0 2.82l-2.83 2.82Z"/><path d="M12 14.82l1.41 1.41 -2.83 2.82c-1.57 1.56-4.1 1.56-5.66 0 -1.57-1.57-1.57-4.1 0-5.66l2.82-2.83 1.41 1.41 -2.83 2.82c-.79.78-.79 2.04 0 2.82 .78.78 2.04.78 2.82 0l2.82-2.83Z"/><path d="M14.82 10.58c.39-.4.39-1.03 0-1.42 -.4-.4-1.03-.4-1.42 0L9.15 13.4c-.4.39-.4 1.02 0 1.41 .39.39 1.02.39 1.41 0l4.24-4.25Z"/></g></svg>