<svg viewBox="0 0 24 24" xmlns="http://www.w3.org/2000/svg"><path fill-rule="evenodd" d="M13 10c0 1.1.89 2 2 2 1.1 0 2-.9 2-2V5c0-1.11-.9-2-2-2 -1.11 0-2 .89-2 2v5ZM5 8c-1.11 0-2 .89-2 2 0 1.1.89 2 2 2h5c1.1 0 2-.9 2-2 0-1.11-.9-2-2-2H5Zm10 5c-1.11 0-2 .89-2 2 0 1.1.89 2 2 2h5c1.1 0 2-.9 2-2 0-1.11-.9-2-2-2h-5Zm-5 9c-1.11 0-2-.9-2-2v-5c0-1.11.89-2 2-2 1.1 0 2 .89 2 2v5c0 1.1-.9 2-2 2ZM8 5c0-1.11.89-2 2-2 1.1 0 2 .89 2 2v2h-2c-1.11 0-2-.9-2-2ZM3 15c0 1.1.89 2 2 2 1.1 0 2-.9 2-2v-2H5c-1.11 0-2 .89-2 2Zm14 5c0 1.1-.9 2-2 2 -1.11 0-2-.9-2-2v-2h2c1.1 0 2 .89 2 2Zm5-10c0-1.11-.9-2-2-2 -1.11 0-2 .89-2 2v2h2c1.1 0 2-.9 2-2Z"/></svg>