<svg viewBox="0 0 24 24" xmlns="http://www.w3.org/2000/svg"><path fill-rule="evenodd" d="M7.03 6.5c0-2.77 2.23-5 5-5 2.76 0 5 2.23 5 5v4c0 2.76-2.24 5-5 5 -2.77 0-5.01-2.24-5.01-5v-4Zm8 0v4c0 1.65-1.35 3-3 3 -1.66 0-3.01-1.35-3.01-3v-4c0-1.66 1.34-3 3-3 1.65 0 3 1.34 3 3Z"/><g><path d="M12.03 16.5c-.56 0-1 .44-1 1v4c0 .55.44 1 1 1 .55 0 1-.45 1-1v-4c0-.56-.45-1-1-1Z"/><path d="M7.74 16.43c.18-.52.76-.79 1.28-.6 .51.18.78.76.59 1.28l-1.37 3.75c-.19.51-.77.78-1.29.59 -.52-.19-.79-.77-.6-1.29l1.36-3.76Z"/><path d="M14.97 15.84c-.52.18-.79.76-.6 1.28l1.36 3.75c.18.51.76.78 1.28.59 .51-.19.78-.77.59-1.29l-1.37-3.76c-.19-.52-.77-.79-1.29-.6Z"/></g></svg>