<svg viewBox="0 0 24 24" xmlns="http://www.w3.org/2000/svg"><path fill-rule="evenodd" d="M12.74 16.31c-.71.79-1.66 1.36-2.75 1.58v3.1c0 .55-.45 1-1 1 -.56 0-1-.45-1-1v-3.1c-2.29-.47-4-2.49-4-4.9v-6c0-2.77 2.23-5 5-5 2.6 0 4.75 1.99 4.97 4.54 .59-.35 1.28-.55 2.02-.55 2.2 0 4 1.79 4 4v4c0 1.86-1.28 3.42-3 3.87v3.12c0 .55-.45 1-1 1 -.56 0-1-.45-1-1v-3.13c-.93-.24-1.721-.8-2.26-1.56Zm-.75-9.32v6c0 1.3-.84 2.41-2 2.82v-2.83c0-.56-.45-1-1-1 -.56 0-1 .44-1 1v2.82c-1.17-.42-2-1.53-2-2.83v-6c0-1.66 1.34-3 3-3 1.65 0 3 1.34 3 3Zm5 8.73v-2.74c0-.56-.45-1-1-1 -.56 0-1 .44-1 1v2.73c-.6-.35-1-1-1-1.74v-4c0-1.11.89-2 2-2 1.1 0 2 .89 2 2v4c0 .74-.41 1.38-1 1.73Z"/></svg>