<svg viewBox="0 0 24 24" xmlns="http://www.w3.org/2000/svg"><path fill-rule="evenodd" d="M14 6h-4c-.56 0-1 .44-1 1v10c0 .55.44 1 1 1h4c.55 0 1-.45 1-1V7c0-.56-.45-1-1-1Zm-4-2C8.34 4 7 5.34 7 7v10c0 1.65 1.34 3 3 3h4c1.65 0 3-1.35 3-3V7c0-1.66-1.35-3-3-3h-4Z"/><g><path d="M6 7.45l-2.51-.42c-1.83-.31-3.5 1.1-3.5 2.95v4.91c0 1.85 1.66 3.26 3.49 2.95l2.5-.42v-2.03l-2.84.47c-.61.1-1.17-.37-1.17-.99V9.95c0-.62.55-1.09 1.16-.99l2.83.47V7.4Z"/><path d="M18 7.45l2.5-.42c1.82-.31 3.49 1.1 3.49 2.95v4.91c0 1.85-1.67 3.26-3.5 2.95l-2.51-.42v-2.03l2.83.47c.6.1 1.16-.37 1.16-.99V9.95c0-.62-.56-1.09-1.17-.99l-2.84.47V7.4Z"/></g></svg>