<svg viewBox="0 0 24 24" xmlns="http://www.w3.org/2000/svg"><g fill-rule="evenodd"><path d="M11 12c0 .35-.07.68-.18 1h2.34c-.12-.32-.18-.65-.18-1 0-1.66 1.34-3 3-3 1.65 0 3 1.34 3 3 0 1.65-1.35 3-3 3h-8c-1.66 0-3-1.35-3-3 0-1.66 1.34-3 3-3 1.65 0 3 1.34 3 3Zm-2 0c0 .55-.45 1-1 1 -.56 0-1-.45-1-1 0-.56.44-1 1-1 .55 0 1 .44 1 1Zm8 0c0 .55-.45 1-1 1 -.56 0-1-.45-1-1 0-.56.44-1 1-1 .55 0 1 .44 1 1Z"/><path d="M23 12c0 6.07-4.93 11-11 11C5.92 23 1 18.07 1 12 1 5.92 5.92 1 12 1c6.07 0 11 4.92 11 11Zm-2 0c0 4.97-4.03 9-9 9 -4.98 0-9-4.03-9-9 0-4.98 4.02-9 9-9 4.97 0 9 4.02 9 9Z"/></g></svg>