<svg viewBox="0 0 16 16" xmlns="http://www.w3.org/2000/svg"><path d="M2.87 11.29V4.13H1.69L-.01 5.36v1.13l1.64-1.18h.06v5.961h1.17ZM6.08 6.2v-.07c0-.62.44-1.17 1.19-1.17 .67 0 1.17.44 1.17 1.1 0 .62-.42 1.1-.81 1.52l-2.66 2.94v.74h4.78v-.99H6.623v-.07l1.76-1.99c.65-.73 1.237-1.34 1.237-2.27 -.01-1.14-.93-1.99-2.34-1.99 -1.58 0-2.36 1.064-2.36 2.15v.05H6.05Zm6.55 1.88h.78c.82 0 1.37.48 1.37 1.17 .01.7-.55 1.21-1.43 1.21 -.77-.01-1.33-.42-1.38-.96h-1.1c.04 1.05.93 1.91 2.46 1.91 1.47 0 2.64-.84 2.62-2.144 -.02-1.15-.93-1.66-1.56-1.72v-.07c.53-.09 1.34-.66 1.32-1.68 -.03-1.06-.94-1.86-2.359-1.85 -1.5 0-2.317.88-2.35 1.89h1.11c.03-.5.49-.95 1.2-.95 .7 0 1.2.43 1.2 1.07 0 .64-.51 1.1-1.2 1.1h-.75v.96Z"/></svg>