<svg viewBox="0 0 16 16" xmlns="http://www.w3.org/2000/svg"><path d="M16 8v0c0 4.41-3.59 8-8 8 -4.42 0-8-3.59-8-8v0c0-4.42 3.58-8 8-8 4.41 0 8 3.58 8 8Zm-8.082.41c.92 0 1.53.54 1.54 1.31 .01.79-.62 1.36-1.588 1.35C7 11.06 6.38 10.6 6.33 10H5.1c.04 1.17 1.05 2.14 2.75 2.14 1.65 0 2.95-.94 2.93-2.4 -.03-1.28-1.04-1.85-1.734-1.92v-.07c.59-.1 1.5-.74 1.48-1.88C10.49 4.69 9.47 3.79 7.88 3.8c-1.68 0-2.59.98-2.625 2.12H6.5c.03-.556.55-1.06 1.34-1.06 .78 0 1.34.48 1.34 1.19s-.57 1.237-1.35 1.237h-.84v1.072h.87Z"/></svg>