<svg viewBox="0 0 16 16" xmlns="http://www.w3.org/2000/svg"><path d="M2 0v0C.89 0 0 .89 0 2v12 0c0 1.1.89 2 2 2h12v0c1.1 0 2-.9 2-2V2v0c0-1.11-.9-2-2-2H2Zm5.918 8.414h-.88V7.342h.83c.78 0 1.34-.53 1.34-1.237 0-.71-.57-1.2-1.35-1.2 -.79 0-1.32.49-1.35 1.05H5.25c.03-1.14.95-2.12 2.625-2.121 1.59-.02 2.6.88 2.63 2.062 .02 1.13-.89 1.77-1.49 1.875v.07c.7.07 1.71.64 1.734 1.91 .02 1.45-1.28 2.39-2.93 2.39 -1.705 0-2.71-.97-2.76-2.144h1.22c.05.59.68 1.06 1.54 1.06 .97 0 1.6-.57 1.58-1.36 -.01-.78-.63-1.32-1.55-1.32Z"/></svg>