<svg viewBox="0 0 16 16" xmlns="http://www.w3.org/2000/svg"><g><path d="M7.994 12.15c-1.57 0-2.654-.91-2.72-2.12H6.51c.14.72.83 1.03 1.529 1.03 .79 0 1.57-.6 1.57-1.69 0-.97-.74-1.57-1.59-1.57 -.77 0-1.242.45-1.44.8H5.431l.34-4.64h4.705v1.1H6.84L6.64 7.4h.06c.17-.258.71-.68 1.61-.68 1.38 0 2.561.944 2.561 2.58 0 1.68-1.19 2.8-2.93 2.8Z"/><path d="M0 2v0C0 .89.89 0 2 0h12v0c1.1 0 2 .89 2 2v12 0c0 1.1-.9 2-2 2H2v0c-1.11 0-2-.9-2-2V2Zm15 0v0c0-.56-.45-1-1-1H2v0c-.56 0-1 .44-1 1v12 0c0 .55.44 1 1 1h12v0c.55 0 1-.45 1-1V2Z"/></g></svg>