<svg viewBox="0 0 16 16" xmlns="http://www.w3.org/2000/svg"><g><path d="M8.111 7.86c-.92 0-1.57.65-1.57 1.57 0 1.032.7 1.63 1.55 1.63 .86 0 1.55-.54 1.55-1.63 0-1.06-.75-1.59-1.55-1.59Z"/><path d="M2 0v0C.89 0 0 .89 0 2v12 0c0 1.1.89 2 2 2h12v0c1.1 0 2-.9 2-2V2v0c0-1.11-.9-2-2-2H2Zm6.21 3.85c1.612 0 2.51.99 2.57 1.899H9.49c-.1-.36-.51-.82-1.32-.82 -1.08 0-1.82 1.09-1.81 3.03h.08c.22-.55.85-1.16 1.98-1.16 1.25 0 2.5.88 2.5 2.55 0 1.77-1.218 2.78-2.85 2.78 -.94 0-1.84-.33-2.409-1.26 -.37-.61-.6-1.46-.6-2.65 0-3.02 1.24-4.407 3.11-4.407Z"/></g></svg>