<svg viewBox="0 0 16 16" xmlns="http://www.w3.org/2000/svg"><g><path d="M10.97 9.803c0 1.39-1.218 2.35-2.99 2.35 -1.763 0-2.96-.96-2.96-2.35 0-1.28.95-1.86 1.64-2.003v-.07c-.63-.2-1.33-.74-1.33-1.79 0-1.23 1.09-2.13 2.66-2.13s2.654.89 2.654 2.12c0 1.061-.74 1.59-1.34 1.782v.06c.7.15 1.64.74 1.64 1.99ZM6.62 6.09c0 .73.58 1.25 1.38 1.25 .79 0 1.37-.516 1.37-1.26 0-.74-.58-1.23-1.38-1.23 -.8 0-1.383.49-1.383 1.23Zm-.29 3.64c0 .83.72 1.41 1.66 1.41s1.65-.58 1.65-1.42c0-.843-.72-1.43-1.66-1.43 -.944 0-1.67.58-1.67 1.42Z"/><path d="M0 2v0C0 .89.89 0 2 0h12v0c1.1 0 2 .89 2 2v12 0c0 1.1-.9 2-2 2H2v0c-1.11 0-2-.9-2-2V2Zm15 0v0c0-.56-.45-1-1-1H2v0c-.56 0-1 .44-1 1v12 0c0 .55.44 1 1 1h12v0c.55 0 1-.45 1-1V2Z"/></g></svg>