<svg viewBox="0 0 16 16" xmlns="http://www.w3.org/2000/svg"><g><path d="M7.777 12.14c-1.593 0-2.425-.89-2.52-1.798h1.29c.1.35.53.72 1.24.72 1.36 0 1.88-1.36 1.83-3.03h-.08c-.24.62-.88 1.18-1.94 1.18 -1.4 0-2.566-.97-2.566-2.67C5.03 4.82 6.27 3.81 7.9 3.81c1.51 0 2.971.867 2.971 4.01 0 2.83-1.02 4.3-3.123 4.3Zm.11-3.98c.8 0 1.53-.53 1.53-1.6s-.67-1.68-1.56-1.68c-.84 0-1.52.61-1.52 1.65 0 1.072.7 1.61 1.54 1.61Z"/><path d="M0 2v0C0 .89.89 0 2 0h12v0c1.1 0 2 .89 2 2v12 0c0 1.1-.9 2-2 2H2v0c-1.11 0-2-.9-2-2V2Zm15 0v0c0-.56-.45-1-1-1H2v0c-.56 0-1 .44-1 1v12 0c0 .55.44 1 1 1h12v0c.55 0 1-.45 1-1V2Z"/></g></svg>