<svg viewBox="0 0 16 16" xmlns="http://www.w3.org/2000/svg"><path d="M8 0c-.79 0-1.3.592-1.572 1.151l0-.001c-.28.57-.43 1.2-.43 1.84v3.691l-2 1v-.2 0c0-.28-.23-.5-.5-.5h-1v0c-.28 0-.5.22-.5.5v1.19l-1.17.58h0c-.51.25-.83.77-.83 1.34v1.38h0c0 .27.22.49.5.49 .02-.01.05-.01.08-.01l1.631-.28 .31.93v0c.08.26.37.4.63.31 .14-.05.26-.17.31-.32l.4-1.22 2.21-.37 .375 2.253 -1.32 1.31v0c-.2.19-.2.51-.01.7 .09.09.22.14.35.14h5v0c.27 0 .5-.23.5-.5 0-.14-.06-.27-.15-.36l-1.32-1.32 .375-2.253 2.21.36 .4 1.21v0c.08.26.37.4.63.31 .14-.05.26-.17.31-.32l.31-.94 1.63.27v0c.27.04.53-.14.57-.42 0-.03 0-.06 0-.09v-1.39 0c-.01-.57-.33-1.09-.83-1.35l-1.17-.59v-1.2 0c0-.28-.23-.5-.5-.5h-1v0c-.28 0-.5.22-.5.5v.19l-2-1V2.82c0-.57-.14-1.271-.43-1.849C9.21.41 8.7-.18 7.91-.18Z"/></svg>