<svg viewBox="0 0 16 16" xmlns="http://www.w3.org/2000/svg"><path d="M6 .5v0c0-.28.22-.5.5-.5h3v0c.27 0 .5.22.5.5 0 .27-.23.5-.5.5H9v1.07 0c3.82.55 6.48 4.1 5.92 7.92 -.27 1.8-1.22 3.43-2.66 4.54l.6.6v0c.19.19.19.51 0 .7 -.2.19-.52.19-.71 0l-.75-.75v0c-1.05.58-2.23.89-3.43.89h0c-1.2 0-2.38-.31-3.43-.9l-.746.74H3.79c-.2.19-.52.19-.71-.01 -.2-.2-.2-.52 0-.71l.6-.61h0C.61 12.11.04 7.72 2.4 4.66c1.11-1.45 2.74-2.4 4.54-2.66V.93h-.5v0c-.28 0-.5-.23-.5-.5Zm2.5 5v0c0-.28-.23-.5-.5-.5 -.28 0-.5.22-.5.5v3.362l-1.43 2.38 0-.001c-.15.23-.07.54.17.68 .23.14.54.06.68-.18l1.5-2.5v0c.04-.08.07-.17.07-.26v-3.5ZM.86 5.38v0C-.19 4.47-.3 2.89.61 1.85 1.51.8 3.09.69 4.13 1.6c.08.07.16.15.24.24l0-.001c-1.53.77-2.76 2-3.53 3.52Zm10.753-3.53v0c.9-1.05 2.48-1.16 3.52-.25 1.04.9 1.15 2.48.24 3.52 -.08.08-.16.16-.25.24l0-.001c-.78-1.53-2.01-2.76-3.53-3.527Z"/></svg>