<svg viewBox="0 0 16 16" xmlns="http://www.w3.org/2000/svg"><path fill-rule="evenodd" d="M8 3v0c2.76 0 4.99 2.24 4.99 5 -.01 2.76-2.25 4.99-5.01 4.99 -2.77-.01-5-2.25-5-5.01 0-.72.15-1.44.45-2.09v0c.1-.26-.02-.55-.28-.66 -.25-.1-.52 0-.64.23l-.001 0c-1.39 3.01-.07 6.57 2.94 7.95s6.57.06 7.95-2.95c1.38-3.02.06-6.58-2.95-7.96 -.79-.37-1.64-.55-2.51-.55v1Z"/><path d="M8 4.46V.52v0C7.99.38 7.88.27 7.74.27c-.06 0-.12.02-.16.05L5.22 2.286v0c-.11.08-.13.24-.04.35 0 .01.02.02.03.03l2.36 1.96v0c.1.08.26.07.35-.04 .03-.05.05-.11.05-.16Z"/></svg>