<svg viewBox="0 0 16 16" xmlns="http://www.w3.org/2000/svg"><g><path d="M11.53 7h3.93v0c.13 0 .24.11.24.25 -.01.05-.03.11-.06.15l-1.97 2.36v0c-.09.1-.25.12-.36.03 -.02-.01-.03-.03-.04-.04L11.3 7.39v0c-.09-.11-.08-.27.03-.36 .04-.04.1-.06.15-.06Zm-11 2h3.93v0c.13-.01.24-.12.24-.26 -.01-.06-.03-.12-.06-.16L2.67 6.22v0c-.09-.11-.25-.13-.36-.04 -.02 0-.03.02-.04.03L.3 8.57h0c-.09.1-.08.26.03.35 .04.03.1.05.15.05Z"/><path fill-rule="evenodd" d="M8 3c-1.56 0-2.94.7-3.86 1.81v0c-.17.21-.49.25-.71.09 -.22-.17-.26-.49-.1-.71 0-.01.01-.02.02-.03h0c2.11-2.56 5.89-2.92 8.44-.81 1.11.91 1.85 2.2 2.09 3.62h-1.02 -.001c-.48-2.33-2.53-4-4.9-4ZM3.1 9H3.09c.55 2.7 3.19 4.45 5.9 3.89 1.11-.23 2.12-.84 2.85-1.72v0c.16-.22.48-.26.7-.1 .21.16.25.48.09.7 -.01 0-.02.01-.03.02v0c-2.12 2.55-5.9 2.91-8.45.8 -1.12-.92-1.86-2.21-2.1-3.63h1.01Z"/></g></svg>