<svg viewBox="0 0 16 16" xmlns="http://www.w3.org/2000/svg"><path fill-rule="evenodd" d="M1 8v0c0-.28.22-.5.5-.5h13v0c.27 0 .5.22.5.5 0 .27-.23.5-.5.5h-13v0c-.28 0-.5-.23-.5-.5Zm7-8v0c.27 0 .5.22.5.5v3.793l1.14-1.15v0c.19-.2.51-.2.7 0 .19.19.19.51 0 .7l-2 2v-.001c-.2.19-.52.19-.71 0 -.01-.01-.01-.01-.01-.01l-2-2v0c-.2-.2-.2-.52 0-.71 .19-.2.51-.2.7 0l1.14 1.14V.46v0c0-.28.22-.5.5-.5Zm-.5 11.7l-1.146 1.14v0c-.2.19-.52.19-.71 0 -.2-.2-.2-.52-.001-.71l2-2v0c.19-.2.51-.2.7-.01 0 0 0 0 0 0l2 2v0c.19.19.19.51 0 .7 -.2.19-.52.19-.71 0l-1.15-1.15v3.79 0c0 .27-.23.5-.5.5 -.28 0-.5-.23-.5-.5v-3.8Z"/></svg>