<svg viewBox="0 0 16 16" xmlns="http://www.w3.org/2000/svg"><path fill-rule="evenodd" d="M5.82 10.172h-.001c-.2-.2-.52-.2-.71 0l-4.096 4.096v-2.77 0c0-.28-.23-.5-.5-.5 -.28 0-.5.22-.5.5v3.97 0c0 .27.22.5.5.5h3.97v0c.27 0 .5-.23.5-.5 0-.28-.23-.5-.5-.5H1.71L5.81 10.87v0c.19-.2.19-.52 0-.71Zm4.34 0v0c.19-.2.51-.2.7 0l4.096 4.096v-2.77 0c0-.28.22-.5.5-.5 .27 0 .5.22.5.5v3.97 0c0 .27-.23.5-.5.5h-3.98v0c-.28 0-.5-.23-.5-.5 0-.28.22-.5.5-.5h2.76L10.14 10.87v0c-.2-.2-.2-.52 0-.71Zm0-4.35v0c.19.19.51.19.7 0l4.096-4.096v2.76 0c0 .27.22.5.5.5 .27 0 .5-.23.5-.5V.5v0c0-.28-.23-.5-.5-.5h-3.98V0c-.28 0-.5.22-.5.5 0 .27.22.5.5.5h2.76L10.14 5.1v0c-.2.19-.2.51 0 .7Zm-4.35 0v0c-.2.19-.52.19-.71 0L1 1.72V4.49v0c0 .27-.23.5-.5.5 -.28 0-.5-.23-.5-.5V.51v0c0-.28.22-.5.5-.5H4.47v0c.27 0 .5.22.5.5 -.01.27-.23.5-.5.5H1.71L5.8 5.1v0c.19.19.19.51 0 .7Z"/></svg>