<svg viewBox="0 0 16 16" xmlns="http://www.w3.org/2000/svg"><path fill-rule="evenodd" d="M1 8v0c0-.28.22-.5.5-.5h13v0c.27 0 .5.22.5.5 0 .27-.23.5-.5.5h-13v0c-.28 0-.5-.23-.5-.5ZM7.646.14v0c.19-.2.51-.2.7-.01 0 0 0 0 0 0l2 2v0c.19.19.19.51 0 .7 -.2.19-.52.19-.71 0L8.48 1.68V5.47v0c0 .27-.23.5-.5.5 -.28 0-.5-.23-.5-.5V1.68L6.33 2.82v0c-.2.19-.52.19-.71 0 -.2-.2-.2-.52-.01-.71 0-.01 0-.01 0-.01l2-2ZM7.99 10v0c.27 0 .5.22.5.5v3.79l1.14-1.15v0c.19-.2.51-.2.7 0 .19.19.19.51 0 .7l-2 2v0c-.2.19-.52.19-.71 0 -.01-.01-.01-.01-.01-.01l-2-2v0c-.2-.2-.2-.52 0-.71 .19-.2.51-.2.7 0l1.14 1.14v-3.8 0c0-.28.22-.5.5-.5Z"/></svg>