<svg viewBox="0 0 16 16" xmlns="http://www.w3.org/2000/svg"><path fill-rule="evenodd" d="M7.646.14v0c.19-.2.51-.2.7-.01 0 0 0 0 0 0l2 2v0c.19.19.19.51 0 .7 -.2.19-.52.19-.71 0L8.48 1.68V5.47v0c0 .27-.23.5-.5.5 -.28 0-.5-.23-.5-.5V1.68L6.33 2.82v0c-.2.19-.52.19-.71 0 -.2-.2-.2-.52-.01-.71 0-.01 0-.01 0-.01l2-2Zm.35 9.854v0c.27 0 .5.22.5.5v3.79l1.14-1.15v0c.19-.2.51-.2.7 0 .19.19.19.51 0 .7l-2 2v0c-.2.19-.52.19-.71 0 -.01-.01-.01-.01-.01-.01l-2-2v0c-.2-.2-.2-.52 0-.71 .19-.2.51-.2.7 0l1.14 1.14v-3.8 0c0-.28.22-.5.5-.5ZM.13 8.344h0c-.2-.2-.2-.52-.01-.71 0-.01 0-.01 0-.01l2-2h0c.19-.2.51-.2.7-.01 .19.19.19.51 0 .7 -.01 0-.01 0-.01 0l-1.15 1.14h3.793v0c.27 0 .5.22.5.5 0 .27-.23.5-.5.5H1.66L2.8 9.59v0c.19.19.19.51-.001.7 -.2.19-.52.19-.71 0l-2-2Zm9.854-.36v0c0-.28.22-.5.5-.5h3.79L13.13 6.33V6.33c-.2-.2-.2-.52 0-.71 .19-.2.51-.2.7 0l2 2v0c.19.19.19.51 0 .7 -.01 0-.01 0-.01 0l-2 2v0c-.2.19-.52.19-.71 0 -.2-.2-.2-.52-.001-.71l1.14-1.15h-3.8v0c-.28 0-.5-.23-.5-.5Z"/></svg>