<svg viewBox="0 0 16 16" xmlns="http://www.w3.org/2000/svg"><g><path d="M0 3.5v0C0 2.67.67 2 1.5 2h13v0c.82 0 1.5.67 1.5 1.5v9 0c0 .82-.68 1.5-1.5 1.5h-13v0C.67 14 0 13.32 0 12.5v-9ZM1.5 3v0c-.28 0-.5.22-.5.5v9 0c0 .27.22.5.5.5h13v0c.27 0 .5-.23.5-.5v-9 0c0-.28-.23-.5-.5-.5h-13Z"/><path d="M2 4.5v0c0-.28.22-.5.5-.5h3v0c.27 0 .5.22.5.5 0 .27-.23.5-.5.5H3v2.5 0c0 .27-.23.5-.5.5 -.28 0-.5-.23-.5-.5v-3Zm12 7v0c0 .27-.23.5-.5.5h-3v0c-.28 0-.5-.23-.5-.5 0-.28.22-.5.5-.5H13V8.5v0c0-.28.22-.5.5-.5 .27 0 .5.22.5.5v3Z"/></g></svg>