<svg viewBox="0 0 16 16" xmlns="http://www.w3.org/2000/svg"><path d="M15.683 3v0c0-1.11-.9-2-2-2h-7.08V.999c-.59-.01-1.14.25-1.52.698L.23 7.347H.23c-.33.37-.33.92-.001 1.3l4.84 5.65v0c.38.44.93.69 1.51.69h7.08v0c1.1 0 2-.9 2-2v-10ZM5.82 5.85h-.001c-.2-.2-.2-.52-.01-.71 .19-.2.51-.2.7-.01 0 0 0 0 0 0l2.14 2.14 2.14-2.15v0c.19-.2.51-.2.7 0 .19.19.19.51-.01.7L9.33 7.96l2.14 2.14v0c.19.19.19.51 0 .7 -.2.19-.52.19-.71 0l-2.15-2.15 -2.15 2.14v0c-.2.19-.52.19-.71-.01 -.2-.2-.2-.52 0-.71l2.14-2.146 -2.15-2.15Z"/></svg>