<svg viewBox="0 0 16 16" xmlns="http://www.w3.org/2000/svg"><g><path d="M9.85 5.146v0c.19.19.19.51 0 .7 -.01 0-.01 0-.01 0L7.69 7.992l2.14 2.14v0c.19.19.19.51 0 .7 -.2.19-.52.19-.71 0L6.97 8.68l-2.15 2.14h0c-.2.19-.52.19-.71 0 -.2-.2-.2-.52-.001-.71l2.14-2.15 -2.15-2.15 0 0c-.2-.2-.2-.52-.001-.71 .19-.2.51-.2.7-.001l2.14 2.14 2.14-2.15v0c.19-.2.51-.2.7-.01 0 0 0 0 0 0Z"/><path d="M2 1v0C.89 1 0 1.89 0 3v10 0c0 1.1.89 2 2 2h7.08v0c.58 0 1.13-.26 1.51-.7l4.843-5.651v0c.32-.38.32-.93 0-1.31l-4.85-5.649v0c-.39-.45-.94-.71-1.52-.7H1.98Zm7.08 1v-.001c.29-.01.56.12.76.35l4.84 5.65 -4.85 5.65v0c-.19.22-.47.34-.76.35H1.99v0c-.56 0-1-.45-1-1v-10V2.99c0-.56.44-1 1-1h7.08Z"/></g></svg>