<svg viewBox="0 0 16 16" xmlns="http://www.w3.org/2000/svg"><path fill-rule="evenodd" d="M8 7.5v0c.27 0 .5.22.5.5v1.5H10v0c.27 0 .5.22.5.5 0 .27-.23.5-.5.5H8.5V12v0c0 .27-.23.5-.5.5 -.28 0-.5-.23-.5-.5v-1.5H6v0c-.28 0-.5-.23-.5-.5 0-.28.22-.5.5-.5h1.5V8v0c0-.28.22-.5.5-.5Z"/><path d="M8 1v0c1.38 0 2.5 1.11 2.5 2.5V4h-5v-.5 0C5.5 2.11 6.61 1 8 1Zm3.5 3v-.5 0C11.5 1.56 9.93 0 8 0 6.06 0 4.5 1.56 4.5 3.5V4H1v10 0c0 1.1.89 2 2 2h10v0c1.1 0 2-.9 2-2V4h-3.5ZM2 5h12v9 0c0 .55-.45 1-1 1H3v0c-.56 0-1-.45-1-1V5Z"/></svg>