<svg viewBox="0 0 16 16" xmlns="http://www.w3.org/2000/svg"><path fill-rule="evenodd" d="M10.5 3.5v0C10.5 2.11 9.38 1 8 1 6.61 1 5.5 2.11 5.5 3.5V4h5v-.5Zm1 0V4H15v10 0c0 1.1-.9 2-2 2H3v0c-1.11 0-2-.9-2-2V4h3.5v-.5 0C4.5 1.56 6.06 0 8 0c1.93 0 3.5 1.56 3.5 3.5ZM6.85 8.14H6.84c-.2-.2-.52-.2-.71 0 -.2.19-.2.51 0 .7l1.14 1.14 -1.15 1.14v0c-.2.19-.2.51 0 .7 .19.19.51.19.7 0l1.14-1.15 1.14 1.14v0c.19.19.51.19.7 0 .19-.2.19-.52 0-.71L8.65 9.95l1.14-1.15v0c.19-.2.19-.52 0-.71 -.2-.2-.52-.2-.71 0L7.93 9.23 6.78 8.08Z"/></svg>