<svg viewBox="0 0 16 16" xmlns="http://www.w3.org/2000/svg"><path d="M8.277.08v0c-.17-.12-.39-.12-.56-.001l-7.5 5h0c-.23.15-.3.46-.14.69 .09.13.24.22.41.22H2.36v7H1.48v0c-.28 0-.5.22-.5.5 0 .27.22.5.5.5h13v0c.27 0 .5-.23.5-.5 0-.28-.23-.5-.5-.5h-.875v-7h1.875v0c.27-.01.49-.23.49-.51 -.01-.17-.09-.33-.23-.42l-7.5-5Zm4.09 5.916v7h-1.25v-7h1.25Zm-2.5 0v7H8.61v-7h1.25Zm-2.5 0v7H6.11v-7h1.25Zm-2.5 0v7H3.61v-7h1.25Zm3.12-2v0c-.56 0-1-.45-1-1 0-.56.44-1 1-1v0c.55 0 1 .44 1 1 0 .55-.45 1-1 1Zm-7.5 11v0c-.28 0-.5.22-.5.5 0 .27.22.5.5.5h15v0c.27 0 .5-.23.5-.5 0-.28-.23-.5-.5-.5h-15Z"/></svg>