<svg viewBox="0 0 16 16" xmlns="http://www.w3.org/2000/svg"><path d="M5.757 1.07V1.06c.23.14.31.44.17.68 -.01 0-.01 0-.01 0l-2.55 4.24h9.23l-2.55-4.243v0c-.15-.24-.07-.55.17-.69 .23-.15.54-.07.68.17 0 0 0 0 0 0l2.85 4.757h1.21v0c.55 0 1 .44 1 1v1 0c0 .55-.45 1-1 1v4.5 0c0 1.38-1.12 2.5-2.5 2.5h-9v0c-1.39 0-2.5-1.12-2.5-2.5v-4.5 0c-.56 0-1-.45-1-1v-1 0c0-.56.44-1 1-1h1.21L5.01 1.22v0c.14-.24.44-.32.68-.18 0 0 0 0 0 0ZM1.99 8.999v4.5 0c0 .82.67 1.5 1.5 1.5h9v0c.82 0 1.5-.68 1.5-1.5v-4.5h-12Zm-1-2v1h14v-1h-14Zm3 3v0c.27 0 .5.22.5.5v3 0c0 .27-.23.5-.5.5 -.28 0-.5-.23-.5-.5v-3 0c0-.28.22-.5.5-.5Zm2 0v0c.27 0 .5.22.5.5v3 0c0 .27-.23.5-.5.5 -.28 0-.5-.23-.5-.5v-3 0c0-.28.22-.5.5-.5Zm2 0v0c.27 0 .5.22.5.5v3 0c0 .27-.23.5-.5.5 -.28 0-.5-.23-.5-.5v-3 0c0-.28.22-.5.5-.5Zm2 0v0c.27 0 .5.22.5.5v3 0c0 .27-.23.5-.5.5 -.28 0-.5-.23-.5-.5v-3 0c0-.28.22-.5.5-.5Zm2 0v0c.27 0 .5.22.5.5v3 0c0 .27-.23.5-.5.5 -.28 0-.5-.23-.5-.5v-3 0c0-.28.22-.5.5-.5Z"/></svg>