<svg viewBox="0 0 16 16" xmlns="http://www.w3.org/2000/svg"><path d="M5.07 1.24v-.001c.14-.24.44-.32.68-.18 .23.14.31.44.17.68L3.37 5.98h9.23L10.05 1.73v0c-.15-.24-.07-.55.17-.69 .23-.15.54-.07.68.17 0 0 0 0 0 0l2.85 4.757h1.71v0c.27 0 .5.22.5.5v2 0c0 .27-.23.5-.5.5h-.5v5 0c0 1.1-.9 2-2 2h-10v0c-1.11 0-2-.9-2-2v-5h-.5v0c-.28 0-.5-.23-.5-.5v-2 0c0-.28.22-.5.5-.5h1.71L5.02 1.21Zm-1.58 9.257v0c0-.28-.23-.5-.5-.5 -.28 0-.5.22-.5.5v3 0c0 .27.22.5.5.5 .27 0 .5-.23.5-.5v-3Zm2.5 0v0c0-.28-.23-.5-.5-.5 -.28 0-.5.22-.5.5v3 0c0 .27.22.5.5.5 .27 0 .5-.23.5-.5v-3Zm2.5 0v0c0-.28-.23-.5-.5-.5 -.28 0-.5.22-.5.5v3 0c0 .27.22.5.5.5 .27 0 .5-.23.5-.5v-3Zm2.5 0v0c0-.28-.23-.5-.5-.5 -.28 0-.5.22-.5.5v3 0c0 .27.22.5.5.5 .27 0 .5-.23.5-.5v-3Zm2.5 0v0c0-.28-.23-.5-.5-.5 -.28 0-.5.22-.5.5v3 0c0 .27.22.5.5.5 .27 0 .5-.23.5-.5v-3Z"/></svg>