<svg viewBox="0 0 16 16" xmlns="http://www.w3.org/2000/svg"><path d="M4.65 3c.46 0 .88.03 1.27.14 .39.07.71.21.99.391 .28.17.49.42.641.74 .14.32.21.71.21 1.13 0 .49-.11.92-.36 1.242 -.22.32-.57.6-1 .81 .6.17 1.06.49 1.34.92 .28.42.46.95.46 1.56 0 .49-.11.92-.29 1.27v0c-.18.35-.45.66-.782.88 -.32.21-.72.39-1.14.49l-.001-.001c-.42.11-.85.16-1.28.17l-4.76 0V2.939h4.65Zm-.29 3.97c.39 0 .71-.11.95-.29s.35-.5.35-.89c0-.22-.04-.43-.11-.57v0c-.08-.15-.19-.27-.32-.36v0c-.15-.08-.31-.14-.47-.18 -.18-.04-.36-.04-.57-.04H2.13v2.31c0-.01 2.2-.01 2.2-.01Zm.1 4.193c.21 0 .42-.04.6-.07 .17-.04.35-.11.49-.22s.25-.22.35-.39c.07-.18.14-.391.14-.641 0-.5-.14-.86-.43-1.11 -.29-.22-.68-.32-1.14-.32H2.13v2.734h2.3v0Zm6.858-.04c.28.28.71.42 1.27.42 .39 0 .74-.11 1.032-.29 .28-.22.46-.43.53-.64h1.74c-.29.85-.72 1.45-1.28 1.84 -.57.35-1.25.56-2.06.56v0c-.53 0-1.05-.1-1.53-.29v0c-.44-.17-.83-.44-1.14-.782v0c-.33-.33-.58-.73-.72-1.18 -.18-.47-.25-.96-.25-1.53 0-.54.07-1.032.25-1.5 .18-.46.42-.86.74-1.21 .32-.32.71-.61 1.13-.782v0c.47-.19.98-.29 1.49-.29 .6 0 1.13.1 1.59.35 .46.25.81.532 1.1.95 .28.39.49.851.641 1.34 .07.49.1.99.07 1.56h-5.15c0 .58.21 1.11.49 1.39Zm2.24-3.74c-.25-.25-.65-.391-1.11-.391 -.32 0-.57.07-.79.17 -.22.1-.36.25-.5.39h0c-.14.13-.22.31-.25.49 -.04.17-.07.32-.07.46h3.19c-.07-.53-.25-.89-.5-1.14Zm-3.13-3.728h3.97v.95h-3.98v-.96Z"/></svg>