<svg viewBox="0 0 16 16" xmlns="http://www.w3.org/2000/svg"><path d="M4.5 1v0C3.67 1 3 1.67 3 2.5V3h4v-.5 0C7 1.67 6.32 1 5.5 1h-1ZM7 4v1h2V4h4v.88 0c0 .18.1.36.27.44l.89.44v-.001c.5.25.82.77.82 1.34v5.88h-6v-1.5 0c-.01-.14.05-.27.14-.36l.85-.86v-.8 0c0-.28-.23-.5-.5-.5h-3v0c-.28 0-.5.22-.5.5v.79l.85.85h-.001c.09.09.14.22.14.35v1.5h-6V7.05l0 0c0-.57.32-1.09.83-1.35l.89-.45v0c.16-.09.27-.26.27-.45v-.89h4ZM1 14v.5 0c0 .82.67 1.5 1.5 1.5h3v0c.82 0 1.5-.68 1.5-1.5V14H1Zm8 0v.5 0c0 .82.67 1.5 1.5 1.5h3v0c.82 0 1.5-.68 1.5-1.5V14H9Zm4-11H9v-.5 0c0-.83.67-1.5 1.5-1.5h1v0c.82 0 1.5.67 1.5 1.5V3Z"/></svg>