<svg viewBox="0 0 16 16" xmlns="http://www.w3.org/2000/svg"><path d="M3 2.5v0C3 1.67 3.67 1 4.5 1h1v0C6.32 1 7 1.67 7 2.5V5h2V2.5v0c0-.83.67-1.5 1.5-1.5h1v0c.82 0 1.5.67 1.5 1.5v2.38 0c0 .18.1.36.27.44l.89.44v-.001c.5.25.82.77.82 1.34v7.38 0c0 .82-.68 1.5-1.5 1.5h-3v0c-.83 0-1.5-.68-1.5-1.5v-3 0c-.01-.14.05-.27.14-.36l.85-.86v-.8 0c0-.28-.23-.5-.5-.5h-3v0c-.28 0-.5.22-.5.5v.79l.85.85h-.001c.09.09.14.22.14.35v3h0c0 .82-.68 1.5-1.5 1.5h-3v0c-.83 0-1.5-.68-1.5-1.5V7.05l-.001 0c0-.57.32-1.09.83-1.35l.89-.45v0c.16-.09.27-.26.27-.45V2.41ZM4.5 2v0c-.28 0-.5.22-.5.5V3h2v-.5 0c0-.28-.23-.5-.5-.5h-1ZM6 4H4v.88 0c-.01.56-.33 1.08-.83 1.34l-.9.44v0c-.17.08-.28.25-.28.44v5.88h4v-1.3l-.86-.86h0c-.1-.1-.15-.23-.15-.36v-1H4.97c0-.83.67-1.5 1.5-1.5h3v0c.82 0 1.5.67 1.5 1.5v1 0c0 .13-.06.26-.15.35l-.86.85v1.29h4V7.06v0c-.01-.19-.11-.37-.28-.45l-.9-.45v0c-.51-.26-.83-.78-.83-1.35v-.89h-2v1.5 0c0 .27-.23.5-.5.5h-3v0c-.28 0-.5-.23-.5-.5v-1.5Zm4-1h2v-.5 0c0-.28-.23-.5-.5-.5h-1v0c-.28 0-.5.22-.5.5V3Zm4 11h-4v.5 0c0 .27.22.5.5.5h3v0c.27 0 .5-.23.5-.5V14Zm-8 0H2v.5 0c0 .27.22.5.5.5h3v0c.27 0 .5-.23.5-.5V14Z"/></svg>