<svg viewBox="0 0 16 16" xmlns="http://www.w3.org/2000/svg"><path d="M2.5 3v0c-.28 0-.5.22-.5.5 0 .27.22.5.5.5h11v0c.27 0 .5-.23.5-.5 0-.28-.23-.5-.5-.5h-11Zm5 3v0c-.28 0-.5.22-.5.5 0 .27.22.5.5.5h6v0c.27 0 .5-.23.5-.5 0-.28-.23-.5-.5-.5h-6Zm0 3v0c-.28 0-.5.22-.5.5 0 .27.22.5.5.5h6v0c.27 0 .5-.23.5-.5 0-.28-.23-.5-.5-.5h-6Zm-5 3v0c-.28 0-.5.22-.5.5 0 .27.22.5.5.5h11v0c.27 0 .5-.23.5-.5 0-.28-.23-.5-.5-.5h-11Zm.79-5.373c.11-.08.26-.17.44-.28l-.21-.36c-.13.07-.28.17-.46.28 -.18.11-.35.26-.51.42h-.001c-.16.16-.3.35-.4.56 -.11.2-.17.43-.17.69 0 .36.07.65.21.87 .14.21.38.32.72.32 .21 0 .383-.07.504-.22v0c.11-.13.18-.3.18-.47 0-.23-.07-.41-.22-.53 -.137-.13-.33-.19-.57-.19h-.29c.02-.21.06-.37.12-.5h-.001c.06-.14.14-.27.25-.37H2.88c.1-.12.21-.22.34-.3Zm2.16 0c.11-.08.26-.17.44-.28l-.21-.36c-.13.07-.28.17-.46.28 -.18.11-.35.26-.51.42v0c-.16.16-.3.35-.4.56 -.11.2-.17.43-.17.69 0 .36.07.65.21.87 .14.21.38.32.72.32 .21 0 .383-.07.5-.22V8.9c.11-.13.18-.3.18-.47 0-.23-.07-.41-.22-.53 -.14-.13-.33-.19-.57-.19h-.29V7.71c.01-.17.05-.34.11-.5 .05-.13.14-.26.25-.375v0c.1-.12.21-.22.34-.3Z"/></svg>