<svg viewBox="0 0 16 16" xmlns="http://www.w3.org/2000/svg"><g><path d="M14 0v0c.27 0 .5.22.5.5V2h.5v0c.55 0 1 .44 1 1v2H0V3v0c0-.56.44-1 1-1h12.5V.5v0c0-.28.22-.5.5-.5ZM2 3.5v0c0 .27.22.5.5.5 .27 0 .5-.23.5-.5v0c0-.28-.23-.5-.5-.5 -.28 0-.5.22-.5.5Zm2 0v0c0 .27.22.5.5.5 .27 0 .5-.23.5-.5v0c0-.28-.23-.5-.5-.5 -.28 0-.5.22-.5.5Zm7.5.5v0c.27 0 .5-.23.5-.5 0-.28-.23-.5-.5-.5v0c-.28 0-.5.22-.5.5 0 .27.22.5.5.5Zm1.5-.5v0c0 .27.22.5.5.5 .27 0 .5-.23.5-.5v0c0-.28-.23-.5-.5-.5 -.28 0-.5.22-.5.5ZM9.5 3h-3v0c-.28 0-.5.22-.5.5 0 .27.22.5.5.5h3v0c.27 0 .5-.23.5-.5 0-.28-.23-.5-.5-.5ZM6 10.5v0c0 .82-.68 1.5-1.5 1.5 -.83 0-1.5-.68-1.5-1.5v0C3 9.67 3.67 9 4.5 9c.82 0 1.5.67 1.5 1.5Zm-1.5.5v0c.27 0 .5-.23.5-.5 0-.28-.23-.5-.5-.5v0c-.28 0-.5.22-.5.5 0 .27.22.5.5.5Zm7 1v0c.82 0 1.5-.68 1.5-1.5 0-.83-.68-1.5-1.5-1.5v0c-.83 0-1.5.67-1.5 1.5 0 .82.67 1.5 1.5 1.5Zm.5-1.5v0c0 .27-.23.5-.5.5 -.28 0-.5-.23-.5-.5v0c0-.28.22-.5.5-.5 .27 0 .5.22.5.5Z"/><path d="M0 6h16v8 0c0 .55-.45 1-1 1H1v0c-.56 0-1-.45-1-1V6Zm2 4.5v0C2 11.88 3.11 13 4.5 13 5.88 13 7 11.88 7 10.5v0C7 9.11 5.88 8 4.5 8 3.11 8 2 9.11 2 10.5Zm7 0v0c0 1.38 1.11 2.5 2.5 2.5 1.38 0 2.5-1.12 2.5-2.5v0C14 9.11 12.88 8 11.5 8 10.11 8 9 9.11 9 10.5Z"/></g></svg>