<svg viewBox="0 0 16 16" xmlns="http://www.w3.org/2000/svg"><g><path d="M1.161 8L1.16 8c0 3.77 3.06 6.84 6.84 6.84 3.77-.01 6.84-3.07 6.84-6.84 -.01-3.78-3.07-6.84-6.84-6.84v0c-.33 0-.58-.26-.58-.58C7.42.25 7.67 0 8 0V-.01c4.41 0 7.99 3.58 7.99 8 -.01 4.41-3.59 7.99-8.01 7.99 -4.42-.01-8-3.59-8-8.01 0-1.65.5-3.25 1.44-4.59L.75 2.81H.74c-.25-.22-.27-.58-.06-.82 .07-.09.17-.15.28-.18l2.52-.69v0c.3-.09.62.09.71.4 .02.07.02.15.01.22l-.34 2.59v0c-.05.31-.34.54-.65.5 -.12-.02-.23-.07-.31-.14l-.65-.56 -.001 0c-.77 1.12-1.17 2.46-1.17 3.82Z"/><path d="M6.641 11.671v-2.83h1.57l1.49 2.82h1.314l-1.65-3.01c.89-.3 1.42-1.11 1.42-2.1 0-1.37-.95-2.25-2.46-2.25h-2.85v7.35h1.141Zm0-3.75V5.27h1.57c.88 0 1.41.49 1.41 1.32 0 .84-.51 1.32-1.39 1.32h-1.6Z"/></g></svg>