<svg viewBox="0 0 16 16" xmlns="http://www.w3.org/2000/svg"><path d="M0 0v16h1V0H0Zm1.906 1h.938V0h-.94v1Zm1.87 0h.93V0h-.94v1Zm1.875 0h.93V0h-.94v1Zm1.87-.04v.03h.93V.95h.03V.481h-.04v-.5H7.5v.5h-.03v.46h.03Zm1.875.03h.93v-1h-.94v1Zm1.875 0h.93v-1h-.94v1Zm1.875 0h.93v-1h-.94v1Zm1.875 0h.46V.95h.5V-.02h-.97v.5h-.04v.46H15v.03Zm-7.54.9v.938h1v-.94h-1Zm7.5 0v.938h1v-.94h-1Zm-7.5 1.87v.93h1v-.94h-1Zm7.5 0v.93h1v-.94h-1Zm-7.5 1.87v.93h1v-.94h-1Zm7.5 0v.93h1v-.94h-1ZM1.88 8.47h.93v-1h-.94v1Zm1.87 0h.93v-1h-.94v1Zm1.875 0h.93v-1h-.94v1Zm2.81 0v-.04h.03v-.94h-.04v-.03h-.94v.03h-.03v.93h.03v.03h.93Zm.93 0h.93v-1h-.94v1Zm1.875 0h.93v-1h-.94v1Zm1.875 0h.93v-1h-.94v1Zm1.875 0h.46v-.04h.5v-.94h-.5v-.03h-.47v.03h-.04v.93h.03v.03Zm-7.54.9v.93h1v-.94h-1Zm8.5.93v-.94h-1v.93h1Zm-8.5.93v.93h1v-.94h-1Zm8.5.93v-.94h-1v.93h1Zm-8.5.93v.93h1v-.94h-1Zm8.5.93v-.94h-1v.93h1ZM1.86 15.92h.93v-1h-.94v1Zm1.87 0h.93v-1h-.94v1Zm1.875 0h.93v-1h-.94v1Zm1.875-.5v.5h.93v-.5h.03v-.47H8.4v-.04h-.94v.03h-.03v.46h.03Zm1.87.5h.93v-1h-.94v1Zm1.875 0h.93v-1h-.94v1Zm1.875 0h.93v-1h-.94v1Zm1.875-.5v.5h.96v-.97h-.5v-.04h-.47v.03h-.04v.46h.03Z"/></svg>