<svg viewBox="0 0 16 16" xmlns="http://www.w3.org/2000/svg"><path d="M.969 0H0v.969h.5v.03h.46v-.04h.03V.49H.95v-.5Zm.93 1h.93V0h-.94v1Zm1.875 0h.93V0h-.94v1Zm1.87 0h.93V0h-.94v1Zm2.84 15h-1V0h1v16Zm.9-15h.93V0h-.94v1Zm1.875 0h.93V0h-.94v1Zm1.875 0h.93V0h-.94v1Zm1.875 0h.46V.96h.5V-.01h-.97v.5h-.04v.46h.03v.03ZM.97 2.84V1.9h-1v.93h1Zm14-.94v.93h1v-.94h-1Zm-14 2.81v-.94h-1v.93h1Zm14-.94v.93h1v-.94h-1Zm-14 2.81v-.94h-1v.93h1Zm14-.94v.93h1v-.94h-1ZM.47 8.48h.46v-.04h.03V7.5H.92v-.03H.45v.03h-.5v.93h.5v.03Zm1.406 0h.938v-1h-.94v1Zm1.87 0h.93v-1h-.94v1Zm1.875 0h.93v-1h-.94v1Zm3.75 0h.93v-1h-.94v1Zm1.875 0h.93v-1h-.94v1Zm1.875 0h.93v-1h-.94v1Zm1.875 0h.46v-.04h.5V7.5h-.5v-.03h-.47v.03h-.04v.93h.03v.03Zm-15.04.9v.93h1v-.94h-1Zm16 .93v-.94h-1v.93h1Zm-16 .93v.93h1v-.94h-1Zm16 .93v-.94h-1v.93h1Zm-16 .93v.93h1v-.94h-1Zm16 .93v-.94h-1v.93h1Zm-16 1.9H.93v-.5h.03v-.47H.92v-.04H.45v.03h-.5v.96Zm1.906 0H2.8v-1h-.94v1Zm1.87 0h.93v-1h-.94v1Zm1.875 0h.93v-1h-.94v1Zm3.75 0h.93v-1h-.94v1Zm1.875 0h.93v-1h-.94v1Zm1.875 0h.93v-1h-.94v1Zm1.875-.5v.5h.96v-.97h-.5v-.04h-.47v.03h-.04v.46h.03Z"/></svg>