<svg viewBox="0 0 16 16" xmlns="http://www.w3.org/2000/svg"><path d="M.969 0H0v.969h.5v.03h.46v-.04h.03V.49H.95v-.5Zm.93 1h.93V0h-.94v1Zm1.875 0h.93V0h-.94v1Zm1.87 0h.93V0h-.94v1ZM7.519.96v.03h.93V.95h.03V.481h-.04v-.5h-.94v.5h-.03v.46h.03Zm1.875.03h.93v-1h-.94v1Zm1.875 0h.93v-1h-.94v1Zm1.875 0h.93v-1h-.94v1Zm1.875 0h.46V.95h.5V-.02h-.97v.5h-.04v.46h.03v.03ZM.98 2.83v-.94h-1v.93h1Zm6.5-.94v.93h1v-.94h-1Zm7.5 0v.93h1v-.94h-1ZM.98 4.7v-.94h-1v.93h1Zm6.5-.94v.93h1v-.94h-1Zm7.5 0v.93h1v-.94h-1Zm-14 2.81v-.94h-1v.93h1Zm6.5-.94v.93h1v-.94h-1Zm7.5 0v.93h1v-.94h-1Zm-15 2.84v-1h16v1h-16Zm0 .9v.93h1v-.94h-1Zm7.5 0v.93h1v-.94h-1Zm8.5.93v-.94h-1v.93h1Zm-16 .93v.93h1v-.94h-1Zm7.5 0v.93h1v-.94h-1Zm8.5.93v-.94h-1v.93h1Zm-16 .93v.93h1v-.94h-1Zm7.5 0v.93h1v-.94h-1Zm8.5.93v-.94h-1v.93h1Zm-16 1.9H.95v-.5h.03v-.47H.94v-.04H.47v.03h-.5v.96Zm1.906 0h.938v-1h-.94v1Zm1.87 0h.93v-1h-.94v1Zm1.875 0h.93v-1h-.94v1Zm1.875-.5v.5h.93v-.5h.03v-.47h-.04v-.04h-.94v.03h-.03v.46h.03Zm1.87.5h.93v-1h-.94v1Zm1.875 0h.93v-1h-.94v1Zm1.875 0h.93v-1h-.94v1Zm1.875-.5v.5h.96v-.97h-.5v-.04h-.47v.03h-.04v.46h.03Z"/></svg>