<svg viewBox="0 0 16 16" xmlns="http://www.w3.org/2000/svg"><path d="M0 0h.969v.5h.03v.46h-.04v.03H.49V.95h-.5V-.02Zm2.844 1h-.94V0h.93v1Zm1.87 0h-.94V0h.93v1Zm1.875 0h-.94V0h.93v1Zm.93 0V.96h-.04V.491h.03v-.5h.93v.5h.03v.46h-.04v.03h-.94Zm2.81 0h-.94V0h.93v1Zm1.875 0h-.94V0h.93v1Zm1.875 0h-.94V0h.93v1Zm1.4 0h-.47V.96h-.04V.491h.03v-.5h.96V.96h-.5v.03Zm-14.5.9v.938h-1v-.94h1Zm6.5.938v-.94h1v.93h-1Zm7.5 0v-.94h1v.93h-1Zm-14 .93v.93h-1v-.94h1Zm6.5.93v-.94h1v.93h-1Zm7.5 0v-.94h1v.93h-1Zm-14 .93v.93h-1v-.94h1Zm6.5.93v-.94h1v.93h-1Zm7.5 0v-.94h1v.93h-1ZM.94 8.458H.47v-.04h-.5v-.94h.5v-.03h.46v.03h.03v.93H.92v.03Zm1.87 0h-.94v-1h.93v1Zm1.87 0h-.94v-1h.93v1Zm1.875 0h-.94v-1h.93v1Zm1.875-.04v.03h-.94V8.4h-.03v-.94h.03v-.03h.93v.03h.03v.93h-.04Zm1.875.03h-.94v-1h.93v1Zm1.875 0h-.94v-1h.93v1Zm1.875 0h-.94v-1h.93v1Zm1.4 0h-.47V8.4h-.04v-.94h.03v-.03h.46v.03h.5v.93h-.5v.03Zm-15.5 1.84v-.94h1v.93h-1Zm7.5 0v-.94h1v.93h-1Zm8.5-.94v.93h-1v-.94h1Zm-16 2.814v-.94h1v.93h-1Zm7.5 0v-.94h1v.93h-1Zm8.5-.94v.93h-1v-.94h1Zm-16 2.81v-.94h1v.93h-1Zm7.5 0v-.94h1v.93h-1Zm8.5-.94v.93h-1v-.94h1ZM.93 15.93h-.97v-.97h.5v-.04h.46v.03h.03v.46H.91v.5Zm1.87 0h-.94v-1h.93v1Zm1.87 0h-.94v-1h.93v1Zm1.875 0H5.6v-1h.93v1Zm.93 0v-.5h-.04v-.47h.03v-.04h.93v.03h.03v.46h-.04v.5h-.94Zm2.81 0h-.94v-1h.93v1Zm1.875 0h-.94v-1h.93v1Zm1.875 0h-.94v-1h.93v1Zm.93 0v-.5h-.04v-.47h.03v-.04h.46v.03h.5v.96h-.97Z"/></svg>