<svg viewBox="0 0 16 16" xmlns="http://www.w3.org/2000/svg"><path d="M1 3.5v0c0-.28.22-.5.5-.5h13v0c.27 0 .5.22.5.5v1 0c0 .27-.23.5-.5.5h-13v0c-.28 0-.5-.23-.5-.5v-1Zm0 4v0c0-.28.22-.5.5-.5h5v0c.27 0 .5.22.5.5v1 0c0 .27-.23.5-.5.5h-5v0c-.28 0-.5-.23-.5-.5v-1Zm0 4v0c0-.28.22-.5.5-.5h1v0c.27 0 .5.22.5.5v1 0c0 .27-.23.5-.5.5h-1v0c-.28 0-.5-.23-.5-.5v-1Zm8 0v0c0-.28.22-.5.5-.5h1v0c.27 0 .5.22.5.5v1 0c0 .27-.23.5-.5.5h-1v0c-.28 0-.5-.23-.5-.5v-1Zm-4 0v0c0-.28.22-.5.5-.5h1v0c.27 0 .5.22.5.5v1 0c0 .27-.23.5-.5.5h-1v0c-.28 0-.5-.23-.5-.5v-1Zm8 0v0c0-.28.22-.5.5-.5h1v0c.27 0 .5.22.5.5v1 0c0 .27-.23.5-.5.5h-1v0c-.28 0-.5-.23-.5-.5v-1Zm-4-4v0c0-.28.22-.5.5-.5h5v0c.27 0 .5.22.5.5v1 0c0 .27-.23.5-.5.5h-5v0c-.28 0-.5-.23-.5-.5v-1Z"/></svg>