<svg viewBox="0 0 16 16" xmlns="http://www.w3.org/2000/svg"><path d="M.969 0H0v.969h.5v.03h.46v-.04h.03V.49H.95v-.5Zm.93 1h.93V0h-.94v1Zm1.875 0h.93V0h-.94v1Zm1.87 0h.93V0h-.94v1ZM7.519.96v.03h.93V.95h.03V.481h-.04v-.5h-.94v.5h-.03v.46h.03Zm1.875.03h.93v-1h-.94v1Zm1.875 0h.93v-1h-.94v1Zm1.875 0h.93v-1h-.94v1Zm2.84-1h-1v16h1v-16Zm-15 2.844v-.94h-1v.93h1Zm6.5-.94v.93h1v-.94h-1Zm-6.5 2.81v-.94h-1v.93h1Zm6.5-.94v.93h1v-.94h-1Zm-6.5 2.81v-.94h-1v.93h1Zm6.5-.94v.93h1v-.94h-1Zm-7 2.84h.46v-.04h.03v-.94H.93v-.03H.46v.03h-.5v.93h.5v.03Zm1.406 0h.938v-1h-.94v1Zm1.87 0h.93v-1h-.94v1Zm1.875 0h.93v-1h-.94v1Zm2.81 0v-.04h.03v-.94h-.04v-.03h-.94v.03h-.03v.93h.03v.03h.93Zm.93 0h.93v-1h-.94v1Zm1.875 0h.93v-1h-.94v1Zm1.875 0h.93v-1h-.94v1Zm-13.16.9v.93h1v-.94h-1Zm7.5 0v.93h1v-.94h-1Zm-7.5 1.87v.93h1v-.94h-1Zm7.5 0v.93h1v-.94h-1Zm-7.5 1.87v.93h1v-.94h-1Zm7.5 0v.93h1v-.94h-1Zm-7.5 2.84H.93v-.5h.03v-.47H.92v-.04H.45v.03h-.5v.96Zm1.906 0H2.8v-1h-.94v1Zm1.87 0h.93v-1h-.94v1Zm1.875 0h.93v-1h-.94v1Zm1.875-.5v.5h.93v-.5h.03v-.47h-.04v-.04h-.94v.03h-.03v.46h.03Zm1.87.5h.93v-1h-.94v1Zm1.875 0h.93v-1h-.94v1Zm1.875 0h.93v-1h-.94v1Z"/></svg>