<svg viewBox="0 0 16 16" xmlns="http://www.w3.org/2000/svg"><g fill-rule="evenodd"><path d="M6.36 2.5v0c0-.28.22-.5.5-.5h6.63v0c.82 0 1.5.67 1.5 1.5v10 0c0 .82-.68 1.5-1.5 1.5h-10v0c-.83 0-1.5-.68-1.5-1.5V6.86v0c0-.28.22-.5.5-.5 .27 0 .5.22.5.5v6.63 0c0 .27.22.5.5.5h10v0c.27 0 .5-.23.5-.5v-10 0c0-.28-.23-.5-.5-.5H6.85v0c-.28 0-.5-.23-.5-.5Z"/><path d="M11 10.5v0c0 .27-.23.5-.5.5h-5v0c-.28 0-.5-.23-.5-.5 0-.28.22-.5.5-.5h3.79L1.14 1.85H1.13c-.2-.2-.2-.52-.01-.71 .19-.2.51-.2.7-.01 0 0 0 0 0 0l8.146 8.14v-3.8 0c0-.28.22-.5.5-.5 .27 0 .5.22.5.5v5Z"/></g></svg>