<svg viewBox="0 0 16 16" xmlns="http://www.w3.org/2000/svg"><g fill-rule="evenodd"><path d="M3.5 6v0c-.28 0-.5.22-.5.5v8 0c0 .27.22.5.5.5h9v0c.27 0 .5-.23.5-.5v-8 0c0-.28-.23-.5-.5-.5h-2v0c-.28 0-.5-.23-.5-.5 0-.28.22-.5.5-.5h2v0c.82 0 1.5.67 1.5 1.5v8 0c0 .82-.68 1.5-1.5 1.5h-9v0c-.83 0-1.5-.68-1.5-1.5v-8 0C2 5.67 2.67 5 3.5 5h2v0c.27 0 .5.22.5.5 0 .27-.23.5-.5.5h-2Z"/><path d="M7.646.14v0c.19-.2.51-.2.7-.01 0 0 0 0 0 0l3 3v0c.19.19.19.51 0 .7 -.2.19-.52.19-.71 0L8.48 1.68v8.793 0c0 .27-.23.5-.5.5 -.28 0-.5-.23-.5-.5V1.68L5.33 3.82v0c-.2.19-.52.19-.71 0 -.2-.2-.2-.52-.01-.71 0-.01 0-.01 0-.01l3-3Z"/></g></svg>