<svg viewBox="0 0 16 16" xmlns="http://www.w3.org/2000/svg"><g fill-rule="evenodd"><path d="M6 12.5v0c0 .27.22.5.5.5h8v0c.27 0 .5-.23.5-.5v-9 0c0-.28-.23-.5-.5-.5h-8v0c-.28 0-.5.22-.5.5v2 0c0 .27-.23.5-.5.5 -.28 0-.5-.23-.5-.5v-2 0C5 2.67 5.67 2 6.5 2h8v0c.82 0 1.5.67 1.5 1.5v9 0c0 .82-.68 1.5-1.5 1.5h-8v0c-.83 0-1.5-.68-1.5-1.5v-2 0c0-.28.22-.5.5-.5 .27 0 .5.22.5.5v2Z"/><path d="M.14 8.35h0c-.2-.2-.2-.52-.01-.71 0-.01 0-.01 0-.01l3-3v0c.19-.2.51-.2.7-.01 .19.19.19.51 0 .7 -.01 0-.01 0-.01 0L1.67 7.46h8.793v0c.27 0 .5.22.5.5 0 .27-.23.5-.5.5h-8.8L3.8 10.6v0c.19.19.19.51-.001.7 -.2.19-.52.19-.71 0l-3-3Z"/></g></svg>