<svg viewBox="0 0 16 16" xmlns="http://www.w3.org/2000/svg"><g fill-rule="evenodd"><path d="M8.636 12.5v0c0 .27-.23.5-.5.5H1.49v0c-.83 0-1.5-.68-1.5-1.5v-10 0C-.01.67.66 0 1.49 0h10v0c.82 0 1.5.67 1.5 1.5v6.63 0c0 .27-.23.5-.5.5 -.28 0-.5-.23-.5-.5V1.49v0c0-.28-.23-.5-.5-.5h-10v0c-.28 0-.5.22-.5.5v10 0c0 .27.22.5.5.5h6.63v0c.27 0 .5.22.5.5Z"/><path d="M16 15.5v0c0 .27-.23.5-.5.5h-5v0c-.28 0-.5-.23-.5-.5 0-.28.22-.5.5-.5h3.79L6.14 6.85v0c-.2-.2-.2-.52 0-.71 .19-.2.51-.2.7 0l8.146 8.147v-3.8 0c0-.28.22-.5.5-.5 .27 0 .5.22.5.5v5Z"/></g></svg>