<svg viewBox="0 0 16 16" xmlns="http://www.w3.org/2000/svg"><path d="M7.752.06v0c.15-.09.34-.09.49-.001l3.75 2.14v0c.15.08.25.25.25.43v3.99l3.49 2v-.001c.15.08.25.25.25.43v4.28h-.001c-.01.17-.1.34-.26.43l-3.75 2.14v0c-.16.08-.35.08-.5 0l-3.502-2 -3.502 2v0c-.16.08-.35.08-.5 0l-3.75-2.15v0c-.16-.09-.26-.26-.26-.44v-4.29h0c0-.18.09-.35.25-.44l3.498-2v-4 0c0-.18.09-.35.25-.44L7.7-.02ZM4.25 7.49l-2.742 1.56 2.742 1.56 2.742-1.57 -2.742-1.57Zm3.25 2.42l-2.75 1.57v3.13l2.75-1.58V9.89Zm1 3.13l2.75 1.57v-3.14L8.5 9.89v3.13Zm.5-4l2.74 1.56 2.74-1.57 -2.75-1.57 -2.75 1.56Zm2.24-2.433V3.47L8.49 5.04v3.13L11.24 6.6ZM7.49 8.18V5.04L4.74 3.46V6.59l2.75 1.57ZM5.248 2.61L7.99 4.17l2.74-1.57 -2.75-1.57 -2.742 1.56ZM14.99 9.9l-2.75 1.57v3.13l2.75-1.58V9.88ZM3.74 14.6v-3.14L.99 9.88v3.13l2.75 1.57Z"/></svg>