<svg viewBox="0 0 16 16" xmlns="http://www.w3.org/2000/svg"><path d="M12 8v0c0 2.2-1.8 4-4 4 -2.21 0-4-1.8-4-4v0c0-2.21 1.79-4 4-4 2.2 0 4 1.79 4 4ZM8.5 2.5v0c0 .27-.23.5-.5.5 -.28 0-.5-.23-.5-.5v0c0-.28.22-.5.5-.5 .27 0 .5.22.5.5Zm0 11v0c0 .27-.23.5-.5.5 -.28 0-.5-.23-.5-.5v0c0-.28.22-.5.5-.5 .27 0 .5.22.5.5Zm5-5v0c-.28 0-.5-.23-.5-.5 0-.28.22-.5.5-.5v0c.27 0 .5.22.5.5 0 .27-.23.5-.5.5Zm-11 0v0c-.28 0-.5-.23-.5-.5 0-.28.22-.5.5-.5v0c.27 0 .5.22.5.5 0 .27-.23.5-.5.5Zm9.74-4.04v0c-.2.19-.51.2-.71.01 -.2-.2-.21-.51-.02-.71 0-.01 0-.01.01-.02v0c.19-.2.51-.19.7.01 .18.19.18.5 0 .69Zm-7.78 7.77v0c-.2.19-.51.2-.71.01 -.2-.2-.21-.51-.02-.71 0-.01 0-.01.01-.02v0c.19-.2.51-.19.7.01 .18.19.18.5-.001.69Zm7.072 0v0c-.2-.2-.21-.51-.02-.71 .19-.2.5-.21.7-.02 0 0 0 0 .01.01v0c.19.19.18.51-.02.7 -.2.18-.51.18-.7 0Zm-7.78-7.78h0c-.2-.2-.21-.51-.02-.71 .19-.2.5-.21.7-.02 0 0 0 0 .01.01v0c.19.19.18.51-.02.7 -.2.18-.51.18-.7 0Z"/></svg>