<svg viewBox="0 0 16 16" xmlns="http://www.w3.org/2000/svg"><path d="M13.384 3.4c.53.27 1.22 1.15 1.55 1.96v0c.48 1.23.66 2.57.5 3.89l-.01.07h0c-.01.07-.02.14-.03.22v0c-.74 4.22-4.75 7.05-8.97 6.31C2.7 15.2-.01 11.98-.02 8.21v-.04C0 7.8.03 7.44.09 7.08 .1 7 .17 6.66.18 6.59l.01-.06 0 0c.18-.85.54-1.65 1.04-2.35 .21-.31.46-.6.72-.87 .23-.238.48-.46.758-.65l0 0c.08-.06.16-.1.26-.137 -.02.26-.04 1.553.26 1.94h0v0c.51-.61 1.15-1.1 1.86-1.443L5.09 3.01c-.17.62-.16 1.27.02 1.89 .07.04.13.09.2.15 .1.09.22.2.45.43l.06.06 0 0v0c.06.06.13.12.21.18 .383.28.94.56 1.306.74 .2.1.34.16.359.19l0 0c-.02.19-.7.85-.94.85 -2.21 0-2.564 1.33-2.564 1.33 .08.99.71 1.83 1.51 2.35h0c.14.09.28.17.43.24 .07.03.15.06.22.09 .32.11.665.18 1.01.19 3.04.14 4.15-2.81 3.12-4.75v-.01 -.001c-.19-.35-.44-.66-.74-.9v0c-.18-.15-.37-.27-.58-.37l-.01-.01V5.66c.65-.09 1.32.07 1.87.45v0c-.7-1.23-2-1.98-3.4-1.99 -.08 0-.16 0-.23.01l-.05 0v-.01h-.01v0c-.28.01-.54.06-.8.14l0 0c-.11-.11-.22-.22-.34-.32l-.001 0c-.07-.06-.14-.11-.2-.16v0c-.04-.13-.07-.26-.09-.383L5.9 3.4c.43-.17.88-.26 1.35-.29l.05-.01c.05-.01.125-.01.2-.02 .31-1.09 1.04-2.46 2.48-3.3l-.01 0 0-.001 0-.002h0l0-.002v0c0-.01.01-.01.01 0V-.23s0 0 .01 0V-.23c.05.16.12.32.2.48 .06.1.12.2.18.29 .49.774 1.02 1.379 1.54 1.96 .77.87 1.51 1.71 2.03 3.02l-.01-.02h-.001c-.14-.83-.41-1.62-.79-2.36Z"/></svg>