<svg viewBox="0 0 16 16" xmlns="http://www.w3.org/2000/svg"><g><path d="M4.97.855v0c-.07-.27-.35-.43-.61-.37 -.27.06-.43.34-.37.6 0 .01 0 .02.01.04l.41 1.35h0c-.92.93-1.44 2.19-1.44 3.5h10 -.001c0-1.32-.52-2.57-1.44-3.51l.41-1.36v0c.09-.27-.05-.55-.31-.64 -.27-.1-.55.04-.64.3 -.01.01-.01.02-.02.04l-.3.95v0c-.82-.54-1.77-.82-2.74-.82v0C6.95.92 6 1.21 5.18 1.74L4.89.78Z"/><path d="M13 6v1H8.5v8.97 0c2.55-.26 4.5-2.41 4.5-4.975h.5v0c.27 0 .5.22.5.5v.5 0c0 .27.22.5.5.5 .27 0 .5-.23.5-.5v-.5 0c0-.83-.68-1.5-1.5-1.5H13v-1h1.5v0c.27 0 .5-.23.5-.5 0-.28-.23-.5-.5-.5H13v-1h.5v0c.82 0 1.5-.68 1.5-1.5v-.5 0c0-.28-.23-.5-.5-.5 -.28 0-.5.22-.5.5v.5 0c0 .27-.23.5-.5.5H13Zm-5.5 9.97V6.99H3v-1h-.5v0c-.28 0-.5-.23-.5-.5v-.5 0c0-.28-.23-.5-.5-.5 -.28 0-.5.22-.5.5v.5 0c0 .82.67 1.5 1.5 1.5H3v1H1.5v0c-.28 0-.5.22-.5.5 0 .27.22.5.5.5H3v1h-.5v0c-.83 0-1.5.67-1.5 1.5v.5 0c0 .27.22.5.5.5 .27 0 .5-.23.5-.5v-.5 0c0-.28.22-.5.5-.5H3v0c-.01 2.56 1.94 4.71 4.5 4.975Z"/></g></svg>