<svg viewBox="0 0 16 16" xmlns="http://www.w3.org/2000/svg"><path d="M4.35.52v0c.26-.08.54.06.62.33l.29.956H5.25c.81-.54 1.76-.82 2.73-.82 1 0 1.94.29 2.731.81l.29-.96v0c.07-.27.35-.42.62-.34 .26.07.41.35.33.62 -.01 0-.01 0-.01 0l-.41 1.35V2.46c.91.93 1.43 2.19 1.43 3.5h.5v0c.27 0 .5-.23.5-.5v-.5 0c0-.28.22-.5.5-.5 .27 0 .5.22.5.5v.5 0c0 .82-.68 1.5-1.5 1.5h-.5v1h1.5v0c.27 0 .5.22.5.5 0 .27-.23.5-.5.5h-1.5v1h.5v0c.82 0 1.5.67 1.5 1.5v.5 0c0 .27-.23.5-.5.5 -.28 0-.5-.23-.5-.5v-.5 0c0-.28-.23-.5-.5-.5h-.5v0c0 2.76-2.24 5-5 5 -2.77 0-5-2.24-5-5h-.5v0c-.28 0-.5.22-.5.5v.5 0c0 .27-.23.5-.5.5 -.28 0-.5-.23-.5-.5v-.5 0c0-.83.67-1.5 1.5-1.5h.5v-1h-1.5v0c-.28 0-.5-.23-.5-.5 0-.28.22-.5.5-.5h1.5v-1h-.5v0c-.83 0-1.5-.68-1.5-1.5v-.5 0c0-.28.22-.5.5-.5 .27 0 .5.22.5.5v.5 0c0 .27.22.5.5.5h.5c0-1.37.54-2.61 1.43-3.51l-.41-1.352v0c-.08-.27.06-.55.33-.63ZM3.99 6.99v4 0c-.01 2.01 1.49 3.71 3.5 3.97v-7.97h-3.5Zm4.5 0v7.97 0c2-.26 3.5-1.96 3.5-3.97v-4h-3.5Zm3.5-1V5.99c0-1.14-.49-2.23-1.34-2.99V3c-.74-.66-1.69-1.02-2.67-1.02v0c-.99-.01-1.94.36-2.667 1.01v0c-.85.75-1.34 1.84-1.34 2.98h8Z"/></svg>