<svg viewBox="0 0 16 16" xmlns="http://www.w3.org/2000/svg"><path d="M1 8v0c0 3.86 3.13 7 7 7 3.86 0 7-3.14 7-7v0c0-3.87-3.14-7-7-7C4.13 1 1 4.13 1 8Zm15 0v0c0 4.41-3.59 8-8 8 -4.42 0-8-3.59-8-8v0c0-4.42 3.58-8 8-8 4.41 0 8 3.58 8 8ZM8.14 4.992c-1.22 0-1.93.92-1.93 2.502v1.06c0 1.57.7 2.46 1.92 2.46 .97 0 1.641-.59 1.72-1.42h1.295v.09c-.1 1.44-1.36 2.46-3.03 2.46 -2.1 0-3.269-1.34-3.269-3.61V7.45c0-2.261 1.2-3.638 3.27-3.638 1.68 0 2.93 1.05 3.029 2.572v.08h-1.3c-.09-.88-.77-1.52-1.73-1.52Z"/></svg>