<svg viewBox="0 0 16 16" xmlns="http://www.w3.org/2000/svg"><g><path d="M8.14 4.99c-1.22 0-1.93.92-1.93 2.502v1.06c0 1.57.7 2.46 1.92 2.46 .97 0 1.641-.59 1.72-1.42h1.295v.09c-.1 1.44-1.36 2.46-3.03 2.46 -2.1 0-3.269-1.34-3.269-3.61v-1.08c0-2.261 1.2-3.638 3.27-3.638 1.68 0 2.93 1.05 3.029 2.572v.08h-1.3c-.09-.88-.77-1.52-1.73-1.52Z"/><path d="M0 2v0C0 .89.89 0 2 0h12v0c1.1 0 2 .89 2 2v12 0c0 1.1-.9 2-2 2H2v0c-1.11 0-2-.9-2-2V2Zm15 0v0c0-.56-.45-1-1-1H2v0c-.56 0-1 .44-1 1v12 0c0 .55.44 1 1 1h12v0c.55 0 1-.45 1-1V2Z"/></g></svg>