<svg viewBox="0 0 16 16" xmlns="http://www.w3.org/2000/svg"><path d="M2 2v0c0-1.11.89-2 2-2h8v0c1.1 0 2 .89 2 2v12 0c0 1.1-.9 2-2 2H4v0c-1.11 0-2-.9-2-2V2Zm2 .5v2 0c0 .27.22.5.5.5h7v0c.27 0 .5-.23.5-.5v-2 0c0-.28-.23-.5-.5-.5h-7v0c-.28 0-.5.22-.5.5Zm0 4v1 0c0 .27.22.5.5.5h1v0c.27 0 .5-.23.5-.5v-1 0c0-.28-.23-.5-.5-.5h-1v0c-.28 0-.5.22-.5.5ZM4.5 9v0c-.28 0-.5.22-.5.5v1 0c0 .27.22.5.5.5h1v0c.27 0 .5-.23.5-.5v-1 0c0-.28-.23-.5-.5-.5h-1ZM4 12.5v1 0c0 .27.22.5.5.5h1v0c.27 0 .5-.23.5-.5v-1 0c0-.28-.23-.5-.5-.5h-1v0c-.28 0-.5.22-.5.5ZM7.5 6v0c-.28 0-.5.22-.5.5v1 0c0 .27.22.5.5.5h1v0c.27 0 .5-.23.5-.5v-1 0c0-.28-.23-.5-.5-.5h-1ZM7 9.5v1 0c0 .27.22.5.5.5h1v0c.27 0 .5-.23.5-.5v-1 0c0-.28-.23-.5-.5-.5h-1v0c-.28 0-.5.22-.5.5Zm.5 2.5v0c-.28 0-.5.22-.5.5v1 0c0 .27.22.5.5.5h1v0c.27 0 .5-.23.5-.5v-1 0c0-.28-.23-.5-.5-.5h-1ZM10 6.5v1 0c0 .27.22.5.5.5h1v0c.27 0 .5-.23.5-.5v-1 0c0-.28-.23-.5-.5-.5h-1v0c-.28 0-.5.22-.5.5Zm.5 2.5v0c-.28 0-.5.22-.5.5v4 0c0 .27.22.5.5.5h1v0c.27 0 .5-.23.5-.5v-4 0c0-.28-.23-.5-.5-.5h-1Z"/></svg>