<svg viewBox="0 0 16 16" xmlns="http://www.w3.org/2000/svg"><g><path d="M9.4 10.24c.625 0 1.18-.484 1.18-1.18 0-.84-.53-1.23-1.16-1.23 -.59 0-1.17.38-1.17 1.21 0 .81.54 1.2 1.14 1.2Z"/><path d="M3.5 0v0c.27 0 .5.22.5.5V1h8V.5v0c0-.28.22-.5.5-.5 .27 0 .5.22.5.5V1h1v0c1.1 0 2 .89 2 2v11 0c0 1.1-.9 2-2 2H2v0c-1.11 0-2-.9-2-2V3v0c0-1.11.89-2 2-2h1V.5v0c0-.28.22-.5.5-.5Zm9.954 3H2.545c-.3 0-.55.22-.55.5v1c0 .27.24.5.54.5h10.91c.3 0 .54-.23.54-.5v-1c0-.28-.25-.5-.55-.5Zm-4.12 9.79c1.25 0 2-1.07 2-2.872 0-1.94-.79-2.668-1.96-2.668 -.93 0-1.8.67-1.8 1.8 0 1.16.82 1.77 1.67 1.77 .74 0 1.23-.38 1.38-.79h.02c-.01 1.31-.47 2.16-1.31 2.16 -.67 0-1.01-.45-1.05-.82h-.69c.04.64.59 1.4 1.7 1.4ZM6.44 7.35H5.81 5.81c-.46.24-.9.51-1.32.8v.69c.375-.26.96-.62 1.258-.78h.01v4.61h.67V7.33Z"/></g></svg>