<svg viewBox="0 0 16 16" xmlns="http://www.w3.org/2000/svg"><g><path d="M6.146 7.146v0c.19-.2.51-.2.7-.01 0 0 0 0 0 0l1.146 1.14 1.14-1.15V7.12c.19-.2.51-.2.7 0 .19.19.19.51 0 .7l-1.15 1.14 1.14 1.14v0c.19.19.19.51 0 .7 -.2.19-.52.19-.71 0l-1.15-1.15 -1.146 1.14h0c-.2.19-.52.19-.71 0 -.2-.2-.2-.52-.001-.71l1.14-1.15 -1.15-1.15v0c-.2-.2-.2-.52-.01-.71 0-.01 0-.01 0-.01Z"/><path d="M3.5 0v0c.27 0 .5.22.5.5V1h8V.5v0c0-.28.22-.5.5-.5 .27 0 .5.22.5.5V1h1v0c1.1 0 2 .89 2 2v11 0c0 1.1-.9 2-2 2H2v0c-1.11 0-2-.9-2-2V3v0c0-1.11.89-2 2-2h1V.5v0c0-.28.22-.5.5-.5ZM1 4v10 0c0 .55.44 1 1 1h12v0c.55 0 1-.45 1-1V4H1Z"/></g></svg>