<svg viewBox="0 0 16 16" xmlns="http://www.w3.org/2000/svg"><path d="M3.5 0v0c.27 0 .5.22.5.5V1h8V.5v0c0-.28.22-.5.5-.5 .27 0 .5.22.5.5V1h1v0c1.1 0 2 .89 2 2v11 0c0 1.1-.9 2-2 2H2v0c-1.11 0-2-.9-2-2V3v0c0-1.11.89-2 2-2h1V.5v0c0-.28.22-.5.5-.5Zm9.954 3H2.545c-.3 0-.55.22-.55.5v1c0 .27.24.5.54.5h10.91c.3 0 .54-.23.54-.5v-1c0-.28-.25-.5-.55-.5Zm-6.6 5.14v0c-.2-.2-.52-.2-.71 0 -.2.19-.2.51 0 .7l1.14 1.14 -1.15 1.14v0c-.2.19-.2.51 0 .7 .19.19.51.19.7 0l1.14-1.15 1.14 1.14v0c.19.19.51.19.7 0 .19-.2.19-.52 0-.71l-1.15-1.15 1.14-1.15v0c.19-.2.19-.52 0-.71 -.2-.2-.52-.2-.71 0L7.94 9.23 6.79 8.08Z"/></svg>