<svg viewBox="0 0 16 16" xmlns="http://www.w3.org/2000/svg"><g><path d="M4.68 12.523v-2.3h2.261v-.61H4.68V7.79h2.46v-.61H3.99v5.33h.68Zm3.29 0h.67V9.97c0-.56.22-1.01.95-1.01 .125 0 .25 0 .32.01v-.62 0c-.09-.02-.17-.02-.26-.02 -.59 0-.891.32-1.02.56h-.02v-.51h-.68v4.105Zm2.8-5.1c0 .23.19.42.43.42v0c.23.01.43-.18.44-.41 .01-.24-.18-.44-.41-.45 -.02-.01-.03-.01-.05 0h-.001c-.24-.01-.43.18-.43.42 -.01 0-.01 0 0 0Zm.09 5.09h.67V8.408h-.68v4.105Z"/><path d="M3.5 0v0c.27 0 .5.22.5.5V1h8V.5v0c0-.28.22-.5.5-.5 .27 0 .5.22.5.5V1h1v0c1.1 0 2 .89 2 2v11 0c0 1.1-.9 2-2 2H2v0c-1.11 0-2-.9-2-2V3v0c0-1.11.89-2 2-2h1V.5v0c0-.28.22-.5.5-.5ZM2 2v0c-.56 0-1 .44-1 1v11 0c0 .55.44 1 1 1h12v0c.55 0 1-.45 1-1V3v0c0-.56-.45-1-1-1H2Z"/><path d="M2.5 4v0c0-.28.22-.5.5-.5h10v0c.27 0 .5.22.5.5v1 0c0 .27-.23.5-.5.5H3v0c-.28 0-.5-.23-.5-.5V4Z"/></g></svg>