<svg viewBox="0 0 16 16" xmlns="http://www.w3.org/2000/svg"><g><path d="M6.445 12.68V7.34h-.633l-.001-.001c-.46.24-.9.51-1.32.8v.69c.375-.26.96-.62 1.258-.78h.01v4.61h.67Zm1.18-1.31c.04.64.59 1.4 1.7 1.4 1.25 0 2-1.07 2-2.88 0-1.94-.79-2.67-1.96-2.67 -.93 0-1.8.67-1.8 1.8 0 1.16.82 1.77 1.67 1.77 .74 0 1.23-.38 1.38-.79h.02c-.01 1.31-.47 2.16-1.31 2.16 -.67 0-1.01-.45-1.05-.82h-.69Zm2.95-2.317c0 .69-.56 1.18-1.19 1.18 -.61 0-1.15-.39-1.15-1.2 0-.83.58-1.21 1.16-1.21 .63 0 1.16.39 1.16 1.23Z"/><path d="M3.5 0v0c.27 0 .5.22.5.5V1h8V.5v0c0-.28.22-.5.5-.5 .27 0 .5.22.5.5V1h1v0c1.1 0 2 .89 2 2v11 0c0 1.1-.9 2-2 2H2v0c-1.11 0-2-.9-2-2V3v0c0-1.11.89-2 2-2h1V.5v0c0-.28.22-.5.5-.5ZM2 2v0c-.56 0-1 .44-1 1v11 0c0 .55.44 1 1 1h12v0c.55 0 1-.45 1-1V3v0c0-.56-.45-1-1-1H2Z"/><path d="M2.5 4v0c0-.28.22-.5.5-.5h10v0c.27 0 .5.22.5.5v1 0c0 .27-.23.5-.5.5H3v0c-.28 0-.5-.23-.5-.5V4Z"/></g></svg>