<svg viewBox="0 0 16 16" xmlns="http://www.w3.org/2000/svg"><g><path d="M2.56 11.332l.54-1.61h1.984l.54 1.6h.718l-1.9-5.34h-.7l-1.9 5.33h.71ZM4.1 6.8l.79 2.37H3.27l.8-2.375h.02Zm5.74.42h-.68v2.54c0 .65-.42 1.02-1.01 1.02 -.54 0-.98-.25-.98-1.02v-2.56h-.68v2.74c0 .94.6 1.42 1.45 1.42 .65 0 1.04-.28 1.18-.61h.02v.53h.66v-4.11Zm2.25 5.046c-.57 0-.91-.31-.99-.64h-.69c.09.68.625 1.19 1.66 1.19 .93 0 1.74-.53 1.74-1.58V7.19h-.65v.57h-.02c-.2-.35-.64-.64-1.2-.64 -.97 0-1.64.67-1.64 1.88v.34c0 1.23.68 1.9 1.64 1.9 .55 0 1-.3 1.17-.65h.02v.6c0 .64-.43 1.02-1.08 1.02Zm0-4.53c.64 0 1.06.52 1.06 1.35v.25c0 .84-.39 1.36-1.07 1.36 -.7 0-1.1-.52-1.1-1.37v-.26c0-.87.4-1.36 1.09-1.36Z"/><path d="M3.5 0v0c.27 0 .5.22.5.5V1h8V.5v0c0-.28.22-.5.5-.5 .27 0 .5.22.5.5V1h1v0c1.1 0 2 .89 2 2v11 0c0 1.1-.9 2-2 2H2v0c-1.11 0-2-.9-2-2V3v0c0-1.11.89-2 2-2h1V.5v0c0-.28.22-.5.5-.5ZM1 4v10 0c0 .55.44 1 1 1h12v0c.55 0 1-.45 1-1V4H1Z"/></g></svg>