<svg viewBox="0 0 16 16" xmlns="http://www.w3.org/2000/svg"><path d="M4 .5v0c0-.28-.23-.5-.5-.5 -.28 0-.5.22-.5.5V1H2v0C.89 1 0 1.89 0 3v1h16V3v0c0-1.11-.9-2-2-2h-1V.5v0c0-.28-.23-.5-.5-.5 -.28 0-.5.22-.5.5V1H4V.5ZM16 14V5H0v9 0c0 1.1.89 2 2 2h12v0c1.1 0 2-.9 2-2ZM9.5 7h1v0c.27 0 .5.22.5.5v1 0c0 .27-.23.5-.5.5h-1v0c-.28 0-.5-.23-.5-.5v-1 0c0-.28.22-.5.5-.5Zm3 0h1v0c.27 0 .5.22.5.5v1 0c0 .27-.23.5-.5.5h-1v0c-.28 0-.5-.23-.5-.5v-1 0c0-.28.22-.5.5-.5ZM2 10.5v0c0-.28.22-.5.5-.5h1v0c.27 0 .5.22.5.5v1 0c0 .27-.23.5-.5.5h-1v0c-.28 0-.5-.23-.5-.5v-1Zm3.5-.5h1v0c.27 0 .5.22.5.5v1 0c0 .27-.23.5-.5.5h-1v0c-.28 0-.5-.23-.5-.5v-1 0c0-.28.22-.5.5-.5Z"/></svg>