<svg viewBox="0 0 16 16" xmlns="http://www.w3.org/2000/svg"><path d="M3.5 0v0c.27 0 .5.22.5.5V1h8V.5v0c0-.28.22-.5.5-.5 .27 0 .5.22.5.5V1h1v0c1.1 0 2 .89 2 2v11 0c0 1.1-.9 2-2 2H2v0c-1.11 0-2-.9-2-2V3v0c0-1.11.89-2 2-2h1V.5v0c0-.28.22-.5.5-.5Zm9.954 3H2.545c-.3 0-.55.22-.55.5v1c0 .27.24.5.54.5h10.91c.3 0 .54-.23.54-.5v-1c0-.28-.25-.5-.55-.5Zm-2.24 4.85v0c.23.01.43-.18.44-.41 .01-.24-.18-.44-.41-.45 -.02-.01-.03-.01-.05 0v0c-.24-.01-.43.18-.43.42 -.01 0-.01 0 0 0 0 .23.19.42.43.42Zm.33.56h-.68v4.105h.67V8.41Zm-6.87 4.105v-2.3H6.93v-.61H4.66v-1.82h2.46v-.61H3.97v5.332h.68Zm3.29 0h.67v-2.55c0-.56.22-1.01.95-1.01 .125 0 .25 0 .32.01v-.62h-.001c-.09-.02-.17-.02-.26-.02 -.59 0-.891.32-1.02.56H8.6v-.51h-.68v4.105Z"/></svg>