<svg viewBox="0 0 16 16" xmlns="http://www.w3.org/2000/svg"><g><path d="M5 8c0-1.657 2.343-3 4-3V4v0C6.79 4 5 5.79 5 8Z"/><path d="M12.318 3h2.01c.92 0 1.66.746 1.66 1.66v6.66c0 .92-.75 1.66-1.67 1.66h-2.02l0-.001c-.99.65-2.14 1-3.32 1v0c-1.19 0-2.34-.35-3.32-1h-4.02c-.92 0-1.67-.75-1.67-1.67V4.64c0-.92.746-1.67 1.667-1.67h.33v0c0-.56.44-1 1-1h1v0c.55 0 1 .44 1 1h.68l0-.001c.98-.66 2.13-1.01 3.31-1 1.22 0 2.36.36 3.31 1ZM2 4.5v0c0-.28-.23-.5-.5-.5 -.28 0-.5.22-.5.5v0c0 .27.22.5.5.5 .27 0 .5-.23.5-.5ZM14 8v0c0-2.77-2.24-5-5-5C6.23 3 4 5.23 4 8v0c0 2.76 2.23 5 5 5 2.76 0 5-2.24 5-5Z"/></g></svg>