<svg viewBox="0 0 16 16" xmlns="http://www.w3.org/2000/svg"><g><path d="M4 9v0c0 .55-.45 1-1 1 -.56 0-1-.45-1-1v0c0-.56.44-1 1-1 .55 0 1 .44 1 1Zm10 0v0c0 .55-.45 1-1 1 -.56 0-1-.45-1-1v0c0-.56.44-1 1-1 .55 0 1 .44 1 1ZM6 8v0c-.56 0-1 .44-1 1 0 .55.44 1 1 1h4v0c.55 0 1-.45 1-1 0-.56-.45-1-1-1H6ZM4.86 4.27L3.9 6.18h0c-.13.25-.02.55.23.68 .08.03.17.05.26.04 .91-.08 2.35-.17 3.59-.17 1.24 0 2.68.09 3.59.17v0c.28.02.52-.19.54-.48 0-.09-.02-.18-.05-.27l-.96-1.92h0c-.09-.17-.26-.28-.45-.28H5.26v0c-.19 0-.37.1-.45.27Z"/><path fill-rule="evenodd" d="M2.52 3.51l-.001-.001c.39-.92 1.29-1.52 2.3-1.52h6.36c1 0 1.904.59 2.298 1.51l.79 1.84c.07.17.21.31.38.4 .5.25.85.71.96 1.26l.33 1.67c.03.16.04.32.04.49v.41c0 .81-.39 1.54-1 1.99v1.89 0c0 .27-.23.5-.5.5h-2v0c-.28 0-.5-.23-.5-.5V12.1c-1.3.04-2.75.08-4 .08 -1.26 0-2.708-.04-4-.09v1.33 0c0 .27-.23.5-.5.5h-2v0c-.28 0-.5-.23-.5-.5v-1.9c-.61-.46-1-1.19-1-2V9.1h0c0-.17.01-.33.04-.49l.33-1.68c.11-.55.46-1.02.964-1.27v0c.17-.09.3-.23.38-.41l.79-1.85Zm2.3-.52v0c-.61 0-1.15.35-1.38.91l-.8 1.84v0c-.17.39-.48.71-.86.9H1.77c-.23.11-.39.31-.43.56L1 8.87v0c-.02.09-.03.19-.03.29v.41c0 .79.62 1.44 1.408 1.48 1.55.07 3.786.15 5.59.15 1.8 0 4.03-.09 5.59-.16v0c.79-.04 1.41-.7 1.4-1.484v-.42c0-.1-.01-.2-.03-.3l-.34-1.68v0c-.05-.25-.21-.46-.43-.57v-.001c-.39-.2-.69-.52-.86-.91l-.8-1.85v-.001c-.24-.56-.78-.91-1.38-.91H4.76Z"/></g></svg>