<svg viewBox="0 0 16 16" xmlns="http://www.w3.org/2000/svg"><path d="M0 2.5v0c0-.28.22-.5.5-.5H2v0c.22 0 .42.15.48.37l.4 1.62h11.61v0c.27 0 .49.22.49.5 -.01.04-.01.08-.02.12l-1.5 6v0c-.06.22-.26.37-.49.37h-9v0c-.23-.01-.43-.16-.49-.38L1.57 2.97H.46v0c-.28 0-.5-.23-.5-.5ZM3.14 5l1.25 5h8.22l1.25-5H3.14ZM5 13v0c-.56 0-1 .44-1 1 0 .55.44 1 1 1v0c.55 0 1-.45 1-1 0-.56-.45-1-1-1Zm-2 1v0c0-1.11.89-2 2-2 1.1 0 2 .89 2 2v0c0 1.1-.9 2-2 2 -1.11 0-2-.9-2-2Zm9-1v0c-.56 0-1 .44-1 1 0 .55.44 1 1 1v0c.55 0 1-.45 1-1 0-.56-.45-1-1-1Zm-2 1v0c0-1.11.89-2 2-2 1.1 0 2 .89 2 2v0c0 1.1-.9 2-2 2 -1.11 0-2-.9-2-2Z"/></svg>