<svg viewBox="0 0 16 16" xmlns="http://www.w3.org/2000/svg"><path d="M2 0v0C.89 0 0 .89 0 2v12 0c0 1.1.89 2 2 2h12v0c1.1 0 2-.9 2-2V2v0c0-1.11-.9-2-2-2H2Zm3.4 5.89c-.83 0-1.32.64-1.32 1.75v.742c0 1.1.47 1.72 1.31 1.72 .69 0 1.138-.44 1.18-1.05h1.14v.11c-.06 1.14-1.029 1.93-2.343 1.93 -1.612 0-2.518-1.03-2.518-2.73v-.75c0-1.7.91-2.75 2.518-2.75 1.319 0 2.29.81 2.343 1.99v.11H6.56c-.05-.64-.51-1.11-1.19-1.11Zm5.404 0c-.84 0-1.32.64-1.32 1.75v.742c0 1.1.48 1.72 1.31 1.72 .69 0 1.138-.44 1.186-1.05h1.14v.11c-.06 1.14-1.03 1.93-2.35 1.93 -1.62 0-2.52-1.03-2.52-2.73v-.75c0-1.7.91-2.75 2.51-2.75 1.31 0 2.29.81 2.34 1.99v.11h-1.15c-.05-.64-.51-1.11-1.186-1.11Z"/></svg>