<svg viewBox="0 0 16 16" xmlns="http://www.w3.org/2000/svg"><path d="M16 8c0 3.86-3.59 7-8 7v0c-.8 0-1.59-.11-2.35-.31 -.59.29-1.93.86-4.181 1.234 -.2.03-.36-.18-.28-.37 .35-.84.67-1.95.77-2.97 -1.23-1.23-1.97-2.84-1.97-4.6 0-3.87 3.582-7 8-7 4.41 0 8 3.13 8 7ZM7.19 6.766v-.001c-.07-.1-.15-.19-.23-.28H6.95c-.14-.14-.3-.25-.47-.33l-.01-.01v0c-.24-.11-.5-.17-.76-.17 -.96 0-1.734.74-1.734 1.66 0 .92.77 1.66 1.734 1.66 .34 0 .66-.1.931-.26 -.14.38-.39.8-.81 1.22H5.83c-.17.15-.17.41-.01.57 0 0 .01.01.01.01 .17.16.44.15.61-.01 1.33-1.33 1.37-2.76.94-3.71v0c-.07-.15-.14-.28-.23-.4Zm3.8 2.3c-.14.38-.39.8-.81 1.22v0c-.16.15-.17.41-.01.57 0 0 .01.01.01.01 .17.16.44.15.61-.01 1.33-1.33 1.37-2.76.94-3.71v0c-.07-.15-.14-.28-.23-.4v0c-.07-.1-.15-.2-.23-.28v0c-.14-.14-.3-.25-.47-.33l-.01-.01v0c-.24-.11-.5-.17-.76-.17 -.96 0-1.734.74-1.734 1.66 0 .92.77 1.66 1.734 1.66 .34 0 .66-.1.93-.26Z"/></svg>