<svg viewBox="0 0 16 16" xmlns="http://www.w3.org/2000/svg"><path d="M16 2v0c0-1.11-.9-2-2-2H2v0C.89 0 0 .89 0 2v8 0c0 1.1.89 2 2 2h9.586v0c.26 0 .51.1.7.29l2.85 2.85v0c.19.19.51.19.7 0 .09-.1.14-.23.14-.36V1.987ZM7.19 4.766c.08.12.16.26.22.4 .42.94.39 2.377-.95 3.7h0c-.17.16-.44.16-.62.01v0c-.17-.16-.18-.41-.03-.58 0-.01.01-.02.01-.02 .41-.42.67-.84.8-1.22 -.27.16-.59.26-.93.26 -.96 0-1.74-.75-1.74-1.67 0-.92.77-1.67 1.734-1.67 .27 0 .52.06.75.16l0 0c.16.07.32.18.46.32 .08.08.16.17.22.27Zm3.8 2.3c-.27.16-.59.26-.93.26 -.96 0-1.74-.75-1.74-1.67 0-.92.77-1.67 1.734-1.67 .27 0 .52.06.75.16l0 0c.17.07.32.18.46.32 .08.08.16.17.22.27 .08.12.16.26.22.4 .42.94.39 2.377-.95 3.7h0c-.17.16-.44.16-.62.01v0c-.17-.16-.18-.41-.03-.58 0-.01.01-.02.01-.02 .42-.42.67-.84.81-1.22Z"/></svg>