<svg viewBox="0 0 16 16" xmlns="http://www.w3.org/2000/svg"><path d="M0 2v0C0 .89.89 0 2 0h12v0c1.1 0 2 .89 2 2v8 0c0 1.1-.9 2-2 2h-2.5v0c-.32 0-.62.14-.8.4l-1.9 2.53v0c-.34.44-.96.53-1.4.2 -.08-.06-.15-.13-.2-.2l-1.9-2.54v0c-.19-.26-.49-.4-.8-.4H2v0c-1.11 0-2-.9-2-2v-8Zm3.5 1v0c-.28 0-.5.22-.5.5 0 .27.22.5.5.5h9v0c.27 0 .5-.23.5-.5 0-.28-.23-.5-.5-.5h-9Zm0 2.5v0c-.28 0-.5.22-.5.5 0 .27.22.5.5.5h9v0c.27 0 .5-.23.5-.5 0-.28-.23-.5-.5-.5h-9Zm0 2.5v0c-.28 0-.5.22-.5.5 0 .27.22.5.5.5h5v0c.27 0 .5-.23.5-.5 0-.28-.23-.5-.5-.5h-5Z"/></svg>