<svg viewBox="0 0 16 16" xmlns="http://www.w3.org/2000/svg"><path d="M16 8c0 3.86-3.59 7-8 7v0c-.8 0-1.59-.11-2.35-.31 -.59.29-1.93.86-4.181 1.234 -.2.03-.36-.18-.28-.37 .35-.84.67-1.95.77-2.97 -1.23-1.23-1.97-2.84-1.97-4.6 0-3.87 3.582-7 8-7 4.41 0 8 3.13 8 7ZM4.5 5v0c-.28 0-.5.22-.5.5 0 .27.22.5.5.5h7v0c.27 0 .5-.23.5-.5 0-.28-.23-.5-.5-.5h-7Zm0 2.5v0c-.28 0-.5.22-.5.5 0 .27.22.5.5.5h7v0c.27 0 .5-.23.5-.5 0-.28-.23-.5-.5-.5h-7Zm0 2.5v0c-.28 0-.5.22-.5.5 0 .27.22.5.5.5h4v0c.27 0 .5-.23.5-.5 0-.28-.23-.5-.5-.5h-4Z"/></svg>