<svg viewBox="0 0 16 16" xmlns="http://www.w3.org/2000/svg"><g><path d="M14 1v0c.55 0 1 .44 1 1v12 0c0 .55-.45 1-1 1H2v0c-.56 0-1-.45-1-1V2v0c0-.56.44-1 1-1h12ZM2 0v0C.89 0 0 .89 0 2v12 0c0 1.1.89 2 2 2h12v0c1.1 0 2-.9 2-2V2v0c0-1.11-.9-2-2-2H2Z"/><path d="M10.97 4.97v0c.29-.3.76-.29 1.06 0 .28.28.29.75.01 1.04l-4 4.99v0c-.29.3-.76.32-1.06.03 -.01-.01-.02-.02-.03-.02L4.3 8.36v0c-.31-.29-.32-.76-.04-1.06 .28-.31.75-.32 1.06-.04 .01.01.02.02.03.03l2.09 2.093 3.47-4.425v0c0-.01.01-.02.02-.03Z"/></g></svg>