<svg viewBox="0 0 16 16" xmlns="http://www.w3.org/2000/svg"><g><path d="M2.5 8v0c-.01-3.04 2.46-5.51 5.49-5.51 .96-.01 1.91.25 2.75.73v0c.24.13.54.05.68-.19 .13-.24.05-.55-.19-.68h0C8.12.55 4.14 1.62 2.35 4.72c-1.8 3.1-.73 7.08 2.37 8.87 3.1 1.79 7.08.72 8.87-2.38 .57-.99.87-2.11.87-3.25v0c0-.28-.23-.5-.5-.5 -.28 0-.5.22-.5.5v0c0 3.03-2.47 5.5-5.5 5.5 -3.04 0-5.5-2.47-5.5-5.5Z"/><path d="M15.354 3.35v-.001c.19-.2.19-.52-.01-.71 -.2-.2-.52-.2-.71 0L7.984 9.28l-2.65-2.65v0c-.2-.2-.52-.2-.71-.001 -.2.19-.2.51-.001.7l3 3h0c.19.19.51.19.7 0 0-.01 0-.01 0-.01l7-7Z"/></g></svg>