<svg viewBox="0 0 16 16" xmlns="http://www.w3.org/2000/svg"><g><path d="M10 .5v0c0-.28-.23-.5-.5-.5h-3v0c-.28 0-.5.22-.5.5v0c0 .27-.23.5-.5.5v0c-.28 0-.5.22-.5.5V2v0c0 .27.22.5.5.5h5v0c.27 0 .5-.23.5-.5v-.5 0c0-.28-.23-.5-.5-.5v0c-.28 0-.5-.23-.5-.5Z"/><path d="M4.085 1H3.5v0C2.67 1 2 1.67 2 2.5v12 0c0 .82.67 1.5 1.5 1.5h9v0c.82 0 1.5-.68 1.5-1.5v-12 0c0-.83-.68-1.5-1.5-1.5h-.59c.05.15.08.32.08.5V2v0c0 .82-.68 1.5-1.5 1.5h-5v0c-.83 0-1.5-.68-1.5-1.5v-.5c0-.18.03-.35.08-.5ZM8.5 6.5V8H10v0c.27 0 .5.22.5.5 0 .27-.23.5-.5.5H8.5v1.5 0c0 .27-.23.5-.5.5 -.28 0-.5-.23-.5-.5V9H6v0c-.28 0-.5-.23-.5-.5 0-.28.22-.5.5-.5h1.5V6.5v0c0-.28.22-.5.5-.5 .27 0 .5.22.5.5Z"/></g></svg>