<svg viewBox="0 0 16 16" xmlns="http://www.w3.org/2000/svg"><path fill-rule="evenodd" d="M10 1.5v0c0-.28-.23-.5-.5-.5h-3v0c-.28 0-.5.22-.5.5v1 0c0 .27.22.5.5.5h3v0c.27 0 .5-.23.5-.5v-1Zm-5 0v0C5 .67 5.67 0 6.5 0h3v0c.82 0 1.5.67 1.5 1.5v1 0c0 .82-.68 1.5-1.5 1.5h-3v0C5.67 4 5 3.32 5 2.5v-1Zm-2 0h1v1H3v0c-.56 0-1 .44-1 1V14v0c0 .55.44 1 1 1h10v0c.55 0 1-.45 1-1V3.5v0c0-.56-.45-1-1-1h-1v-1h1v0c1.1 0 2 .89 2 2V14v0c0 1.1-.9 2-2 2H3v0c-1.11 0-2-.9-2-2V3.5v0c0-1.11.89-2 2-2Zm6.97 3.856v0c-.08-.27-.36-.42-.63-.34 -.18.05-.31.19-.35.37l-1.1 5.094 -.94-3.135H6.94c-.08-.27-.36-.42-.63-.34 -.12.03-.21.1-.28.2L4.17 9.97h-.74v0c-.28 0-.5.22-.5.5 0 .27.22.5.5.5h1v0c.16-.01.32-.09.41-.23L6.25 8.63l1.19 3.98v0c.07.26.35.41.62.33 .17-.06.3-.2.34-.38l1.09-5.1 .94 3.135v0c.06.21.25.35.48.35h1.5v0c.27 0 .5-.23.5-.5 0-.28-.23-.5-.5-.5h-1.13l-1.4-4.644Z"/></svg>