<svg viewBox="0 0 16 16" xmlns="http://www.w3.org/2000/svg"><g fill-rule="evenodd"><path d="M10.058.501v0c0-.28-.23-.51-.5-.501H6.57c-.28 0-.5.225-.5.501H6.07c0 .27-.23.49-.5.499V.999c-.28 0-.5.22-.5.497v.5 0c0 .27.22.5.5.5h4.968v0c.27 0 .5-.23.5-.5v-.51 -.001c0-.28-.23-.5-.5-.5 -.01-.01-.01 0-.01 0h-.001c-.28-.01-.5-.23-.5-.5Z"/><path d="M4.17 1H3.6v0c-.83 0-1.5.67-1.5 1.5v12 0c0 .82.67 1.5 1.5 1.5h9v0c.82 0 1.5-.68 1.5-1.5v-12 0c0-.83-.68-1.5-1.5-1.5h-.65c.05.15.08.32.08.5V2c0 .82-.67 1.5-1.5 1.5H5.55v0c-.83-.01-1.5-.68-1.5-1.5v-.5c0-.18.03-.35.08-.5Zm3.894 5.482c1.65-1.673 5.795 1.25 0 5.018 -5.795-3.77-1.66-6.69 0-5.018Z"/></g></svg>