<svg viewBox="0 0 16 16" xmlns="http://www.w3.org/2000/svg"><g><path d="M6.5 0v0C5.67 0 5 .67 5 1.5v1 0C5 3.32 5.67 4 6.5 4h3v0c.82 0 1.5-.68 1.5-1.5v-1 0C11 .67 10.32 0 9.5 0h-3Zm3 1v0c.27 0 .5.22.5.5v1 0c0 .27-.23.5-.5.5h-3v0c-.28 0-.5-.23-.5-.5v-1 0c0-.28.22-.5.5-.5h3Z"/><path d="M4 1.5H3v0c-1.11 0-2 .89-2 2V14v0c0 1.1.89 2 2 2h10v0c1.1 0 2-.9 2-2V3.5v0c0-1.11-.9-2-2-2h-1v1 0C12 3.88 10.88 5 9.5 5h-3v0C5.11 5 4 3.88 4 2.5v-1Zm4.5 6V9H10v0c.27 0 .5.22.5.5 0 .27-.23.5-.5.5H8.5v1.5 0c0 .27-.23.5-.5.5 -.28 0-.5-.23-.5-.5V10H6v0c-.28 0-.5-.23-.5-.5 0-.28.22-.5.5-.5h1.5V7.5v0c0-.28.22-.5.5-.5 .27 0 .5.22.5.5Z"/></g></svg>