<svg viewBox="0 0 16 16" xmlns="http://www.w3.org/2000/svg"><path fill-rule="evenodd" d="M8 7v0c.27 0 .5.22.5.5V9H10v0c.27 0 .5.22.5.5 0 .27-.23.5-.5.5H8.5v1.5 0c0 .27-.23.5-.5.5 -.28 0-.5-.23-.5-.5V10H6v0c-.28 0-.5-.23-.5-.5 0-.28.22-.5.5-.5h1.5V7.5v0c0-.28.22-.5.5-.5Z"/><g><path d="M4 1.5H3v0c-1.11 0-2 .89-2 2V14v0c0 1.1.89 2 2 2h10v0c1.1 0 2-.9 2-2V3.5v0c0-1.11-.9-2-2-2h-1v1h1v0c.55 0 1 .44 1 1V14v0c0 .55-.45 1-1 1H3v0c-.56 0-1-.45-1-1V3.5v0c0-.56.44-1 1-1h1v-1Z"/><path d="M9.5 1v0c.27 0 .5.22.5.5v1 0c0 .27-.23.5-.5.5h-3v0c-.28 0-.5-.23-.5-.5v-1 0c0-.28.22-.5.5-.5h3Zm-3-1v0C5.67 0 5 .67 5 1.5v1 0C5 3.32 5.67 4 6.5 4h3v0c.82 0 1.5-.68 1.5-1.5v-1 0C11 .67 10.32 0 9.5 0h-3Z"/></g></svg>