<svg viewBox="0 0 16 16" xmlns="http://www.w3.org/2000/svg"><g><path d="M8.51 1.019v0C8.33.99 8.16.99 7.99.99v-1 0c.19 0 .39 0 .58.02l-.08.99Zm2 .45v-.001c-.33-.13-.65-.23-.99-.3L9.73.19c.38.08.76.2 1.12.34l-.36.93Zm1.37.71v-.001c-.15-.1-.29-.19-.44-.27l.49-.87v-.001c.34.19.66.41.97.65l-.62.78v0c-.14-.11-.28-.21-.42-.31Zm1.83 1.79v-.001c-.2-.29-.42-.55-.66-.8l.72-.69c.27.28.52.59.74.91l-.82.57Zm.74 1.35v0c-.07-.16-.14-.32-.22-.47l.89-.45v0c.17.35.32.71.45 1.088l-.95.31v0c-.06-.17-.12-.33-.18-.49Zm.53 2.5h0c-.01-.35-.05-.69-.1-1.03l.98-.17c.06.38.1.77.11 1.17l-1 .02Zm-.14 1.53c.03-.17.06-.34.08-.51l.99.12 0 0c-.05.39-.13.77-.23 1.15l-.97-.27c.04-.17.08-.34.12-.51Zm-.952 2.37c.18-.29.34-.6.48-.91l.91.4c-.16.36-.35.7-.56 1.03l-.85-.54Zm-.97 1.205c.12-.13.23-.25.35-.38l.75.65v-.001c-.13.14-.27.29-.41.43l-.71-.71Z"/><path d="M8 1v0C4.13 1 1 4.13 1 8c0 3.86 3.13 6.99 7 6.99 1.85-.01 3.63-.74 4.94-2.05l.7.7v0c-3.13 3.12-8.19 3.12-11.32 0C-.81 10.51-.81 5.45 2.31 2.32 3.81.81 5.84-.03 7.97-.03v1Z"/><path d="M7.5 3v0c.27 0 .5.22.5.5v5.21l3.24 1.85v0c.23.14.31.44.16.68 -.14.22-.44.3-.67.18l-3.5-2v0c-.16-.09-.26-.26-.26-.44v-5.5 0c0-.28.22-.5.5-.5Z"/></g></svg>