<svg viewBox="0 0 16 16" xmlns="http://www.w3.org/2000/svg"><path d="M13.4 8.527v0c-.54-2.71-3.17-4.47-5.88-3.94 -1.62.32-2.97 1.41-3.63 2.92h0C1.96 7.27.23 8.657.01 10.577c-.23 1.92 1.15 3.65 3.07 3.87 .13.01.26.02.39.02h9.5l0 0c1.65 0 3-1.34 3-3 0-1.51-1.11-2.78-2.6-2.98Zm-4.91-3.03v0c2.03-.01 3.74 1.53 3.97 3.55v0c.02.25.24.44.5.44h.02v0c1.1 0 1.99.89 1.99 2 -.01 1.1-.9 1.99-2.01 1.99h-9.5l0-.001c-1.39-.01-2.5-1.13-2.5-2.51 0-1.39 1.12-2.5 2.5-2.5 .2 0 .4.02.6.07v0c.25.06.51-.09.59-.33v0c.54-1.64 2.07-2.75 3.79-2.75Z"/></svg>