<svg viewBox="0 0 16 16" xmlns="http://www.w3.org/2000/svg"><path d="M4.158 12.02v-.001c.26.08.4.37.31.63 -.01 0-.01 0-.01 0l-.5 1.5H3.95c-.1.25-.39.38-.65.29 -.25-.1-.38-.36-.31-.61l.5-1.5v0c.08-.27.36-.41.63-.32Zm6 0v-.001c.26.08.4.37.31.63 -.01 0-.01 0-.01 0l-.5 1.5v0c-.1.25-.39.38-.65.29 -.25-.1-.38-.36-.31-.61l.5-1.5H9.49c.08-.27.36-.41.63-.32Zm-3.5 1.5v-.001c.26.08.4.37.31.63 -.01 0-.01 0-.01 0l-.5 1.5v0c-.1.25-.39.38-.65.29 -.25-.1-.38-.36-.31-.61l.5-1.5v0c.08-.27.36-.41.63-.32Zm6 0v-.001c.26.08.4.37.31.63 -.01 0-.01 0-.01 0l-.5 1.5v0c-.08.26-.36.41-.62.34 -.27-.08-.42-.36-.34-.62 0-.02 0-.03.01-.04l.5-1.5v0c.08-.27.36-.41.63-.32Zm.74-8.5h0c-.54-2.71-3.17-4.47-5.88-3.94C5.89 1.4 4.54 2.49 3.88 4h0C1.95 3.77.22 5.15 0 7.07c-.23 1.92 1.15 3.65 3.07 3.87 .13.01.26.02.39.02h9.5l0 0c1.65 0 3-1.34 3-3 0-1.51-1.11-2.78-2.6-2.98Z"/></svg>