<svg viewBox="0 0 16 16" xmlns="http://www.w3.org/2000/svg"><path d="M3 13.5v0c0-.28.22-.5.5-.5h9v0c.27 0 .5.22.5.5 0 .27-.23.5-.5.5h-9v0c-.28 0-.5-.23-.5-.5Zm0 2v0c0-.28.22-.5.5-.5h9v0c.27 0 .5.22.5.5 0 .27-.23.5-.5.5h-9v0c-.28 0-.5-.23-.5-.5Zm10.4-9.48v0c-.54-2.71-3.17-4.47-5.88-3.94C5.9 2.4 4.55 3.49 3.89 5h0C1.96 4.77.23 6.15.01 8.07c-.23 1.92 1.15 3.65 3.07 3.87 .13.01.26.02.39.02h9.5 0c1.65 0 3-1.34 3-3 0-1.51-1.11-2.78-2.6-2.98ZM8.49 2.99v0c2.03-.01 3.74 1.53 3.97 3.55v0c.02.25.24.44.5.44h.02v0c1.1 0 2 .89 2 2 0 1.1-.9 2-2 2h-9.5l0-.001c-1.39-.01-2.5-1.13-2.5-2.51 0-1.39 1.12-2.5 2.5-2.5 .2 0 .4.02.6.07v0c.25.06.51-.09.59-.33l-.001 0c.54-1.64 2.07-2.75 3.79-2.745Z"/></svg>