<svg viewBox="0 0 16 16" xmlns="http://www.w3.org/2000/svg"><path fill-rule="evenodd" d="M3.11 5.11l0-.001c-.08.19-.14.4-.17.61 -1.68.37-2.95 1.83-2.95 3.59 0 2.048 1.708 3.68 3.781 3.68h7.21l-1-1h-6.22c-1.55 0-2.79-1.22-2.79-2.69 0-1.37 1.064-2.513 2.46-2.67l.44-.05v-.45c0-.08 0-.16.01-.24l-.82-.82Zm2.55-1.45l-.73-.73v0c.9-.61 1.97-.94 3.06-.94 2.69 0 4.923 2 5.166 4.57 1.59.22 2.83 1.55 2.83 3.19v0c-.01 1.1-.58 2.12-1.52 2.71l-.74-.74c.74-.38 1.24-1.125 1.24-1.98 0-1.22-1.02-2.23-2.32-2.23h-.5v-.5c0-2.22-1.86-4.045-4.19-4.045 -.875 0-1.678.26-2.34.661Z"/><path d="M13.64 14.35l-12-12 .7-.71 12 12 -.71.7Z"/></svg>