<svg viewBox="0 0 16 16" xmlns="http://www.w3.org/2000/svg"><g><path d="M11.473 11v0c-.28-2.48-2.5-4.26-4.97-3.98 -1.73.19-3.18 1.35-3.76 2.98v-.001c-1.66.13-2.89 1.58-2.75 3.23 .12 1.55 1.42 2.75 2.99 2.75h8.5v0c1.38 0 2.5-1.12 2.5-2.5 0-1.39-1.12-2.5-2.5-2.5h-.03Z"/><path d="M11.28 1.77V1.76c.15-.23.09-.55-.14-.7 -.13-.09-.29-.11-.43-.07v0C8.57 1.65 7.22 3.779 7.53 6l0-.001c.35.03.71.1 1.05.2v0c-.32-1.35.16-2.75 1.23-3.618v0c-.64 2.45.83 4.96 3.29 5.59 .33.08.67.13 1.01.14v0c-.66.45-1.45.67-2.25.63 .16.31.29.65.39 1h0c1.46-.07 2.81-.83 3.62-2.04v0c.15-.23.09-.55-.14-.7 -.13-.09-.29-.11-.43-.07v0c-1.9.59-3.91-.46-4.51-2.36 -.33-1.04-.17-2.17.43-3.07Z"/></g></svg>