<svg viewBox="0 0 16 16" xmlns="http://www.w3.org/2000/svg"><path d="M2.37 13.5v0c.13 0 .25.11.25.25v.57l.5-.29h0c.12-.07.27-.03.33.1 .06.11.02.26-.1.33l-.5.28 .49.28h0c.12.06.16.21.1.33 -.07.12-.22.16-.34.1 -.01-.01-.01-.01-.02-.01l-.51-.29v.56 0c0 .13-.12.25-.25.25 -.14 0-.25-.12-.25-.25v-.57l-.51.28v0c-.12.07-.28.03-.35-.09 -.08-.12-.04-.28.08-.35 0-.01 0-.01.01-.01l.49-.29 -.5-.29v0c-.13-.07-.17-.22-.11-.34 .06-.13.21-.17.33-.11 0 0 0 0 .01 0l.5.28v-.57 0c0-.14.11-.25.25-.25Zm1.84-2.45v0c.24.12.34.42.22.67l-.5 1h-.001c-.14.24-.44.33-.68.2 -.24-.13-.33-.41-.22-.65l.5-1H3.52c.12-.25.42-.35.67-.23Zm2.15 2.44v0c.13 0 .25.11.25.25v.57l.5-.29h0c.11-.07.27-.03.34.09 .06.11.02.27-.1.34l-.5.28 .49.28v0c.12.06.16.21.1.33 -.07.12-.22.16-.34.1 -.01-.01-.01-.01-.02-.01l-.51-.29v.56 0c0 .13-.12.25-.25.25 -.14 0-.25-.12-.25-.25v-.57l-.51.28v0c-.12.07-.28.03-.35-.09 -.08-.12-.04-.28.08-.35 0-.01 0-.01.01-.01l.49-.29 -.5-.29v0c-.13-.07-.17-.22-.11-.34 .06-.13.21-.17.33-.11 0 0 0 0 .01 0l.5.28v-.57 0c0-.14.11-.25.25-.25Zm1.84-2.45v0c.24.12.34.42.22.67l-.5 1v0c-.14.24-.44.33-.68.2 -.24-.13-.33-.41-.22-.65l.5-1v0c.12-.25.42-.35.67-.23Zm2.151 2.44v0c.13 0 .25.11.25.25v.57l.5-.29h0c.11-.07.27-.03.34.09 .06.11.02.27-.1.34l-.5.28 .49.28v0c.12.06.16.21.1.33 -.07.12-.22.16-.34.1 -.01-.01-.01-.01-.02-.01l-.51-.29v.56 0c0 .13-.12.25-.25.25 -.14 0-.25-.12-.25-.25v-.57l-.51.28 -.001-.001c-.12.07-.28.03-.35-.09 -.08-.12-.04-.28.08-.35 0-.01 0-.01.01-.01l.49-.29 -.5-.29v0c-.13-.07-.17-.22-.11-.34 .06-.13.21-.17.33-.11 0 0 0 0 .01 0l.5.28v-.57 0c0-.14.11-.25.25-.25Zm1.84-2.45v0c.24.12.34.42.22.67l-.5 1h0c-.12.25-.42.36-.67.24 -.26-.12-.37-.42-.25-.67 0-.01 0-.02.01-.03l.5-1v0c.12-.25.42-.35.67-.23ZM13.37 4v0C12.831 1.29 10.2-.47 7.49.06 5.87.38 4.52 1.47 3.86 2.98h0C1.93 2.75.2 4.13-.02 6.05 -.25 7.97 1.13 9.7 3.05 9.92c.13.01.26.02.39.02h9.5 0c1.65 0 3-1.34 3-3 0-1.51-1.11-2.78-2.6-2.98Z"/></svg>