<svg viewBox="0 0 16 16" xmlns="http://www.w3.org/2000/svg"><path d="M4.4 3.34v0C5.39 2.47 6.67 2 7.99 1.99c2.69 0 4.923 2 5.166 4.57 1.59.22 2.83 1.55 2.83 3.19 0 1.79-1.5 3.22-3.32 3.22H3.75c-2.08 0-3.79-1.64-3.79-3.69 0-1.763 1.266-3.23 2.94-3.593 .14-.87.698-1.73 1.464-2.383Zm.65.75c-.76.65-1.153 1.44-1.153 2.056v.44l-.45.04c-1.4.15-2.47 1.3-2.47 2.66 0 1.46 1.23 2.68 2.781 2.68h8.906c1.29 0 2.31-1.02 2.31-2.23 0-1.22-1.02-2.23-2.32-2.23h-.5v-.5c0-2.22-1.86-4.045-4.19-4.045v0c-1.09 0-2.13.39-2.95 1.1Z"/></svg>