<svg viewBox="0 0 16 16" xmlns="http://www.w3.org/2000/svg"><g><path d="M11.473 11v0c-.28-2.48-2.5-4.26-4.97-3.98 -1.73.19-3.18 1.35-3.76 2.98v-.001c-1.66.13-2.89 1.58-2.75 3.23 .12 1.55 1.42 2.75 2.99 2.75h8.5v0c1.38 0 2.5-1.12 2.5-2.5 0-1.39-1.12-2.5-2.5-2.5h-.03Z"/><path d="M10.5 1.5v0c0-.28-.23-.5-.5-.5 -.28 0-.5.22-.5.5v1 0c0 .27.22.5.5.5 .27 0 .5-.23.5-.5v-1Zm3.74 1.964v0c.19-.2.2-.51.01-.71 -.2-.2-.51-.21-.71-.02 -.01 0-.01 0-.02.01l-.71.7v-.001c-.2.19-.2.51-.001.7 .19.19.51.19.7 0l.7-.71Zm-7.78-.71v-.001c-.2-.2-.52-.19-.71.01 -.19.19-.19.5 0 .69l.7.7v0c.19.19.51.19.7 0 .19-.2.19-.52 0-.71l-.71-.71Zm1.73 3.374v0c.48-1 1.67-1.42 2.67-.94 .99.48 1.41 1.67.93 2.67 -.09.16-.19.32-.31.45 .19.28.37.58.516.89v0c1.22-1.12 1.32-3.01.21-4.24 -1.12-1.23-3.01-1.33-4.24-.22 -.38.33-.66.75-.82 1.22 .35.01.69.05 1.02.12Zm4.484 4.074c.6.21 1.125.59 1.52 1.07v0c.21-.18.24-.49.07-.71 -.02-.02-.03-.03-.04-.04l-.71-.71v0c-.2-.2-.52-.2-.71-.01 -.11.09-.16.23-.15.37Zm1.81-3.705v0c-.28 0-.5.22-.5.5 0 .27.22.5.5.5h1v0c.27 0 .5-.23.5-.5 0-.28-.23-.5-.5-.5h-1Z"/></g></svg>