<svg viewBox="0 0 16 16" xmlns="http://www.w3.org/2000/svg"><path d="M4.176 11.032v0c.25.09.38.38.29.64l-1.5 4H2.96c-.11.25-.4.37-.66.26 -.25-.11-.37-.38-.29-.62l1.5-4v0c.09-.26.38-.39.64-.3 0 0 0 0 0 0Zm3 0v0c.25.09.38.38.29.64l-1.5 4h-.001c-.11.25-.4.37-.66.26 -.25-.11-.37-.38-.29-.62l1.5-4v0c.09-.26.38-.39.64-.3 0 0 0 0 0 0Zm3 0v0c.25.09.38.38.29.64l-1.5 4v0c-.11.25-.4.37-.66.26 -.25-.11-.37-.38-.29-.62l1.5-4v0c.09-.26.38-.39.64-.3 0 0 0 0 0 0Zm3 0v0c.25.09.38.38.29.64l-1.5 4v0c-.11.25-.4.37-.66.26 -.25-.11-.37-.38-.29-.62l1.5-4v0c.09-.26.38-.39.64-.3 0 0 0 0 0 0Zm.22-7.005l0-.001c-.54-2.71-3.17-4.47-5.88-3.94 -1.62.32-2.97 1.41-3.63 2.92v0C1.95 2.776.22 4.156 0 6.076c-.23 1.92 1.15 3.65 3.07 3.87 .13.01.26.02.39.02h9.5 0c1.65 0 3-1.34 3-3 0-1.51-1.11-2.78-2.6-2.98Z"/></svg>