<svg viewBox="0 0 16 16" xmlns="http://www.w3.org/2000/svg"><path d="M13.4 4.02v0C12.86 1.31 10.23-.45 7.52.08 5.9.4 4.55 1.49 3.89 3v0C1.96 2.77.23 4.15.01 6.07c-.23 1.92 1.15 3.65 3.07 3.87 .13.01.26.02.39.02h9.5 0c1.65 0 3-1.34 3-3 0-1.51-1.11-2.78-2.6-2.98ZM8.49.99v0c2.03-.01 3.74 1.53 3.97 3.55v0c.02.25.24.44.5.44h.02v0c1.1 0 2 .89 2 2 0 1.1-.9 2-2 2h-9.5 0C2.09 8.97.98 7.85.98 6.47c0-1.39 1.12-2.5 2.5-2.5 .2 0 .4.02.6.07v0c.25.06.51-.09.59-.33l0 0C5.21 2.07 6.74.96 8.46.96Zm-6.125 12.5v0c.13 0 .25.11.25.25v.57l.5-.29h0c.12-.07.27-.03.33.1 .06.11.02.26-.1.33l-.5.28 .49.28h0c.11.07.15.22.08.34 -.07.11-.22.15-.34.09l-.51-.29v.56 0c0 .13-.12.25-.25.25 -.14 0-.25-.12-.25-.25v-.57l-.51.28h0c-.13.06-.28.02-.34-.11 -.07-.12-.03-.27.09-.34l.49-.29 -.5-.29v0c-.12-.08-.16-.23-.09-.35 .06-.12.21-.16.33-.1l.5.28v-.57 0c0-.14.11-.25.25-.25Zm1.84-2.45v0c.24.12.34.42.22.67l-.5 1h0c-.12.25-.42.36-.67.24 -.26-.12-.37-.42-.25-.67 0-.01 0-.02.01-.03l.5-1v0c.12-.25.42-.35.67-.23Zm2.15 2.44v0c.13 0 .25.11.25.25v.57l.5-.29v0c.12-.07.27-.03.33.1 .06.11.02.26-.1.33l-.5.28 .49.28v0c.11.07.15.22.08.34 -.07.11-.22.15-.34.09l-.51-.29v.56 0c0 .13-.12.25-.25.25 -.14 0-.25-.12-.25-.25v-.57l-.51.28v0c-.13.06-.28.02-.34-.11 -.07-.12-.03-.27.09-.34l.49-.29 -.5-.29v0c-.12-.08-.16-.23-.09-.35 .06-.12.21-.16.33-.1l.5.28v-.57 0c0-.14.11-.25.25-.25Zm1.84-2.45v0c.24.12.34.42.22.67l-.5 1v0c-.12.25-.42.36-.67.24 -.26-.12-.37-.42-.25-.67 0-.01 0-.02.01-.03l.5-1v0c.12-.25.42-.35.67-.23Zm2.151 2.44v0c.13 0 .25.11.25.25v.57l.5-.29v0c.12-.07.27-.03.33.1 .06.11.02.26-.1.33l-.5.28 .49.28v0c.11.07.15.22.08.34 -.07.11-.22.15-.34.09l-.51-.29v.56 0c0 .13-.12.25-.25.25 -.14 0-.25-.12-.25-.25v-.57l-.51.28v0c-.13.06-.28.02-.34-.11 -.07-.12-.03-.27.09-.34l.49-.29 -.5-.29v0c-.12-.08-.16-.23-.09-.35 .06-.12.21-.16.33-.1l.5.28v-.57 0c0-.14.11-.25.25-.25Zm1.84-2.45v0c.24.12.34.42.22.67l-.5 1h0c-.12.25-.42.36-.67.24 -.26-.12-.37-.42-.25-.67 0-.01 0-.02.01-.03l.5-1v0c.12-.25.42-.35.67-.23Z"/></svg>