<svg viewBox="0 0 16 16" xmlns="http://www.w3.org/2000/svg"><path d="M8.5 3v0c-1.73-.01-3.26 1.1-3.8 2.74v0c-.08.26-.36.41-.62.34 -.27-.08-.42-.36-.35-.62 0-.02 0-.03.01-.04v0c.86-2.63 3.69-4.05 6.32-3.18 1.7.56 2.98 2 3.33 3.77h0c1.64.22 2.79 1.73 2.57 3.37 -.21 1.48-1.48 2.6-2.98 2.59h-8.5v0c-.28 0-.5-.23-.5-.5 0-.28.22-.5.5-.5h8.5 0c1.1 0 2-.9 2-2 0-1.11-.9-2.01-2-2.01h-.03v0c-.26 0-.48-.2-.5-.45h0c-.23-2.03-1.94-3.56-3.98-3.56ZM0 7.5v0c0-.28.22-.5.5-.5h5v0c.27 0 .5.22.5.5 0 .27-.23.5-.5.5h-5v0C.22 8 0 7.77 0 7.5Zm2 2v0c0-.28.22-.5.5-.5h9v0c.27 0 .5.22.5.5 0 .27-.23.5-.5.5h-9v0c-.28 0-.5-.23-.5-.5Zm-2 4v0c0-.28.22-.5.5-.5h9v0c.27 0 .5.22.5.5 0 .27-.23.5-.5.5h-9v0c-.28 0-.5-.23-.5-.5Z"/></svg>