<svg viewBox="0 0 16 16" xmlns="http://www.w3.org/2000/svg"><path d="M2.658 11.026l0-.001c.26.08.4.37.31.63l-.5 1.5h0c-.08.26-.36.41-.62.34 -.27-.08-.42-.36-.34-.62 0-.02 0-.03.01-.04l.5-1.5h-.001c.08-.27.37-.41.63-.32Zm9.5 0v0c.26.08.4.37.31.63l-.5 1.5v0c-.1.25-.39.38-.65.29 -.25-.1-.38-.36-.31-.61l.5-1.5v0c.08-.27.37-.41.63-.32Zm-7.5 1.5v0c.26.08.4.37.31.63l-.5 1.5v0c-.08.26-.36.41-.62.34 -.27-.08-.42-.36-.34-.62 0-.02 0-.03.01-.04l.5-1.5H4.01c.08-.27.37-.41.63-.32Zm9.5 0v0c.26.08.4.37.31.63l-.5 1.5v0c-.1.25-.39.38-.65.29 -.25-.1-.38-.36-.31-.61l.5-1.5v0c.08-.27.37-.41.63-.32Zm-7.11-1.25v0c.08-.17.25-.28.44-.28h1v0c.27 0 .49.22.49.5 -.01.05-.01.1-.03.15l-.28.84h.8v0c.27 0 .49.22.49.5 -.01.11-.04.22-.11.31l-2 2.5v0c-.18.21-.49.24-.71.07 -.16-.13-.22-.33-.18-.51l.34-1.38h-.86v0c-.28-.01-.5-.23-.5-.51 0-.08.01-.16.05-.23l1-2Zm6.35-7.25h0c-.54-2.71-3.17-4.47-5.88-3.94 -1.62.32-2.97 1.41-3.63 2.92v0C1.958 2.776.22 4.156 0 6.076c-.23 1.92 1.15 3.65 3.07 3.87 .13.01.26.02.39.02h9.5 0c1.65 0 3-1.34 3-3 0-1.51-1.11-2.78-2.6-2.98Z"/></svg>