<svg viewBox="0 0 16 16" xmlns="http://www.w3.org/2000/svg"><path d="M13.4 4.02v0C12.86 1.31 10.23-.45 7.52.08 5.9.4 4.55 1.49 3.89 3v0C1.96 2.77.23 4.15.01 6.07c-.23 1.92 1.15 3.65 3.07 3.87 .13.01.26.02.39.02h9.5 0c1.65 0 3-1.34 3-3 0-1.51-1.11-2.78-2.6-2.98ZM8.49.99v0c2.03-.01 3.74 1.53 3.97 3.55v0c.02.25.24.44.5.44h.02v0c1.1 0 2 .89 2 2 0 1.1-.9 2-2 2h-9.5 0C2.09 8.97.98 7.85.98 6.47c0-1.39 1.12-2.5 2.5-2.5 .2 0 .4.02.6.07v0c.25.06.51-.09.59-.33l0 0C5.21 2.07 6.74.96 8.46.96ZM7.043 11.266v0c.08-.17.25-.28.44-.28h1v0c.27 0 .49.22.49.5 -.01.05-.01.1-.03.15l-.28.84h.8v0c.27 0 .49.22.49.5 -.01.11-.04.22-.11.31l-2 2.5v0c-.18.21-.49.24-.71.07 -.16-.13-.22-.33-.18-.51l.34-1.38h-.86v0c-.28-.01-.5-.23-.5-.51 0-.08.01-.16.05-.23l1-2Z"/></svg>