<svg viewBox="0 0 16 16" xmlns="http://www.w3.org/2000/svg"><path d="M4.176 11.03v0c.25.09.38.38.29.64l-1.5 4H2.96c-.09.26-.37.4-.64.31 -.27-.09-.41-.37-.32-.64 0-.02 0-.03.01-.04l1.5-4H3.51c.09-.26.38-.39.64-.3 0 0 0 0 0 0Zm3 0v0c.25.09.38.38.29.64l-1.5 4v0c-.09.26-.37.4-.64.31 -.27-.09-.41-.37-.32-.64 0-.02 0-.03.01-.04l1.5-4v0c.09-.26.38-.39.64-.3 0 0 0 0 0 0Zm3 0v0c.25.09.38.38.29.64l-1.5 4v0c-.09.26-.37.4-.64.31 -.27-.09-.41-.37-.32-.64 0-.02 0-.03.01-.04l1.5-4v0c.09-.26.38-.39.64-.3 0 0 0 0 0 0Zm3 0v0c.25.09.38.38.29.64l-1.5 4v0c-.11.25-.4.37-.66.26 -.25-.11-.37-.38-.29-.62l1.5-4v0c.09-.26.38-.39.64-.3 0 0 0 0 0 0Zm.22-7.01l0-.001C12.85 1.3 10.226-.46 7.51.07 5.89.39 4.54 1.48 3.88 2.99v0C1.95 2.76.22 4.14 0 6.06c-.23 1.92 1.15 3.65 3.07 3.87 .13.01.26.02.39.02h9.5 0c1.65 0 3-1.34 3-3 0-1.51-1.11-2.78-2.6-2.98ZM8.486.99v0c2.03-.01 3.74 1.53 3.97 3.55v0c.02.25.24.44.5.44h.02v0c1.1 0 2 .89 2 2 0 1.1-.9 2-2 2h-9.5 0C2.08 8.973.97 7.85.97 6.47c0-1.39 1.12-2.5 2.5-2.5 .2 0 .4.02.6.07v0c.25.06.51-.09.59-.33l0 0C5.206 2.07 6.73.96 8.456.96Z"/></svg>