<svg viewBox="0 0 16 16" xmlns="http://www.w3.org/2000/svg"><path d="M10.47 1.64v0c.08-.27-.07-.55-.34-.63 -.27-.09-.55.06-.625.33l-4 13v0c-.09.26.06.54.33.625 .26.08.54-.07.62-.34l4-13ZM4.84 4.139v0c.19.19.19.51 0 .7 -.01 0-.01 0-.01 0L1.68 7.985l3.14 3.14v0c.19.19.19.51-.001.7 -.2.19-.52.19-.71 0l-3.5-3.5h0c-.2-.2-.2-.52-.01-.71 0-.01 0-.01 0-.01l3.5-3.5v0c.19-.2.51-.2.7-.01 0 0 0 0 0 0Zm6.29 0v0c-.2.19-.2.51-.01.7 0 0 0 0 0 0l3.14 3.146 -3.15 3.14v0c-.2.19-.2.51 0 .7 .19.19.51.19.7 0l3.5-3.5v0c.19-.2.19-.52 0-.71 -.01-.01-.01-.01-.01-.01l-3.5-3.5v0c-.2-.2-.52-.2-.71-.01 -.01 0-.01 0-.01 0Z"/></svg>