<svg viewBox="0 0 16 16" xmlns="http://www.w3.org/2000/svg"><path d="M2.5 3.5v0c-.28 0-.5-.23-.5-.5 0-.28.22-.5.5-.5h11v0c.27 0 .5.22.5.5 0 .27-.23.5-.5.5h-11Zm2-2v0c-.28 0-.5-.23-.5-.5 0-.28.22-.5.5-.5h7v0c.27 0 .5.22.5.5 0 .27-.23.5-.5.5h-7ZM0 13v0c0 .82.67 1.5 1.5 1.5h13v0c.82 0 1.5-.68 1.5-1.5V6v0c0-.83-.68-1.5-1.5-1.5h-13v0C.67 4.5 0 5.17 0 6v7Zm6.258-6.437v0c.15-.09.35-.09.5.01l4 2.5v0c.23.14.3.45.15.68 -.05.06-.1.11-.16.15l-4 2.5v0c-.24.14-.55.07-.69-.16 -.05-.08-.08-.18-.08-.27v-5 0c0-.19.09-.35.258-.44Z"/></svg>