<svg viewBox="0 0 16 16" xmlns="http://www.w3.org/2000/svg"><g><path d="M6.5 6v0c-.28 0-.5.22-.5.5v3 0c0 .27.22.5.5.5h3v0c.27 0 .5-.23.5-.5v-3 0c0-.28-.23-.5-.5-.5h-3Z"/><path d="M5.5.5v0C5.5.22 5.27 0 5 0c-.28 0-.5.22-.5.5V2v0C3.11 2 2 3.11 2 4.5H.5v0c-.28 0-.5.22-.5.5 0 .27.22.5.5.5H2v1H.5v0c-.28 0-.5.22-.5.5 0 .27.22.5.5.5H2v1H.5v0c-.28 0-.5.22-.5.5 0 .27.22.5.5.5H2v1H.5v0c-.28 0-.5.22-.5.5 0 .27.22.5.5.5H2v0C2 12.88 3.11 14 4.5 14v1.5 0c0 .27.22.5.5.5 .27 0 .5-.23.5-.5V14h1v1.5 0c0 .27.22.5.5.5 .27 0 .5-.23.5-.5V14h1v1.5 0c0 .27.22.5.5.5 .27 0 .5-.23.5-.5V14h1v1.5 0c0 .27.22.5.5.5 .27 0 .5-.23.5-.5V14v0c1.38 0 2.5-1.12 2.5-2.5h1.5v0c.27 0 .5-.23.5-.5 0-.28-.23-.5-.5-.5H14v-1h1.5v0c.27 0 .5-.23.5-.5 0-.28-.23-.5-.5-.5H14v-1h1.5v0c.27 0 .5-.23.5-.5 0-.28-.23-.5-.5-.5H14v-1h1.5v0c.27 0 .5-.23.5-.5 0-.28-.23-.5-.5-.5H14v0C14 3.11 12.88 2 11.5 2V.5v0c0-.28-.23-.5-.5-.5 -.28 0-.5.22-.5.5V2h-1V.5v0C9.5.22 9.27 0 9 0c-.28 0-.5.22-.5.5V2h-1V.5v0C7.5.22 7.27 0 7 0c-.28 0-.5.22-.5.5V2h-1V.5Zm1 4.5h3v0c.82 0 1.5.67 1.5 1.5v3 0c0 .82-.68 1.5-1.5 1.5h-3v0C5.67 11 5 10.32 5 9.5v-3 0C5 5.67 5.67 5 6.5 5Z"/></g></svg>