<svg viewBox="0 0 16 16" xmlns="http://www.w3.org/2000/svg"><path d="M0 5h-.001c0 2.38 1.68 4.43 4.027 4.9h0c.06-.72.24-1.42.54-2.08 -.88-.3-1.44-.97-1.58-1.93h-.5v-.43h.46v-.44c0-.05 0-.1 0-.14h-.47v-.43h.51c.22-1.25 1.202-1.99 2.67-1.99 .31 0 .59.03.819.08v.73 0c-.27-.06-.55-.09-.82-.09 -.92 0-1.54.46-1.734 1.25h1.91v.42H3.85c-.01.04-.01.09-.01.14v.42h1.983v.42h-1.94c.11.6.46 1.03 1.005 1.229L4.88 7.05c1.06-1.77 2.91-2.93 4.97-3.12v0C9.3 1.22 6.66-.53 3.95.01 1.62.47-.06 2.52-.07 4.89Zm16 5.5v0c0 3.03-2.47 5.5-5.5 5.5C7.46 16 5 13.53 5 10.5v0C5 7.46 7.46 5 10.5 5c3.03 0 5.5 2.46 5.5 5.5Zm-7.75 1.32c.06.83.74 1.48 1.96 1.56v.61h.54v-.62c1.25-.09 1.99-.74 1.99-1.69 0-.87-.57-1.31-1.57-1.54l-.43-.1V8.36c.54.06.88.34.96.74h.94c-.07-.81-.78-1.44-1.92-1.51V6.97h-.54v.62c-1.08.1-1.81.73-1.81 1.62 0 .78.54 1.28 1.45 1.49l.35.08v1.78c-.56-.08-.92-.38-1.01-.79h-.97Zm1.96-1.9c-.532-.12-.82-.37-.82-.74 0-.41.31-.72.82-.81v1.54h-.01Zm.62 1.04c.64.14.94.38.94.79 0 .47-.37.8-1.02.86v-1.68l.07.01Z"/></svg>