<svg viewBox="0 0 16 16" xmlns="http://www.w3.org/2000/svg"><path d="M5.5 13v1.25c0 .13.11.25.25.25h1v0c.13 0 .25-.12.25-.25V13h.5v1.25c0 .13.11.25.25.25h1v0c.13 0 .25-.12.25-.25V13h.08c1.99 0 3.41-1.04 3.41-2.82 0-1.51-1.01-2.33-2.186-2.44v-.09c.97-.242 1.68-.98 1.68-2.19 0-1.532-1.15-2.47-2.91-2.47h-.1V1.74v0c0-.14-.12-.25-.25-.25h-1v0c-.14 0-.25.11-.25.25v1.25h-.58V1.74v0c0-.14-.12-.25-.25-.25h-.93v0c-.14 0-.25.11-.25.25v1.25l-2 .01v0c-.14 0-.25.11-.25.25v.98c0 .13.11.25.24.25l.75-.01v0c.41 0 .74.33.74.75v5.505 0c0 .41-.34.75-.75.75l-.75.01v0c-.14 0-.25.11-.25.25v1c0 .13.11.25.25.25l1.99-.02Zm1.42-8.513h1.71c.9 0 1.43.49 1.43 1.31 0 .87-.58 1.362-1.88 1.362H6.9V4.47Zm0 4.051h1.84c1.13 0 1.75.58 1.75 1.52 0 .95-.63 1.45-2.16 1.45H6.91V8.52Z"/></svg>