<svg viewBox="0 0 16 16" xmlns="http://www.w3.org/2000/svg"><path d="M8 0c-.18 0-.35.006-.53.017l.06.99 -.001-.001c.3-.02.61-.02.91 0L8.49 0v0c-.18-.02-.35-.02-.53-.02ZM6.44.15c-.35.069-.69.16-1.02.27l.32.94c.28-.1.58-.18.88-.24l-.2-.98Zm4.132.271l-.001 0c-.34-.12-.67-.21-1.02-.27l-.2.98c.3.06.59.14.88.23l.32-.95Zm1.87.925v0c-.3-.2-.6-.37-.91-.524l-.45.89c.27.13.54.29.79.45l.55-.831ZM4.452.82c-.32.15-.62.33-.91.524l.556.83 0-.001c.25-.17.51-.33.79-.46l-.45-.9Zm-1.74 1.16c-.262.23-.51.47-.74.74l.752.66c.2-.23.41-.45.64-.65L2.7 1.98Zm11.29.74v-.001c-.24-.27-.48-.51-.74-.74l-.66.75c.23.2.44.41.64.64l.75-.66Zm1.16 1.73l-.001-.001c-.16-.32-.33-.62-.53-.91l-.83.556c.16.25.32.51.45.79l.89-.45ZM1.33 3.542c-.2.28-.37.59-.53.9l.89.44c.13-.28.29-.54.45-.8L1.31 3.52ZM.4 5.412l0 0c-.12.33-.21.66-.27 1.01l.98.19c.06-.31.14-.6.23-.89l-.95-.33Zm15.425 1.01v0c-.07-.35-.16-.69-.27-1.02l-.95.32c.09.28.17.58.23.88l.98-.2ZM-.01 7.459l-.001 0c-.03.34-.03.69 0 1.04l.998-.07h0c-.02-.31-.02-.62 0-.92l-.998-.07Zm15.983.52v0c-.01-.18-.01-.35-.02-.53l-1 .06v0c.01.3.01.61 0 .91l.99.06v0c.01-.18.01-.35.01-.53ZM.13 9.539c.06.34.16.68.27 1.01l.94-.33v0c-.1-.29-.18-.59-.24-.89l-.98.19Zm15.42 1.01c.11-.33.2-.67.27-1.02l-.98-.2c-.06.3-.14.59-.24.88l.94.32Zm-14.76.96l-.001 0c.15.31.32.61.52.9l.83-.56H2.14c-.17-.26-.33-.52-.46-.8l-.896.44Zm13.82.9c.19-.29.37-.6.52-.91l-.9-.45c-.14.27-.29.54-.46.79l.83.55Zm-12.67.83c.23.26.47.51.74.74l.66-.76v0c-.23-.21-.45-.42-.65-.65l-.752.66Zm11.29.74c.26-.23.51-.48.74-.74l-.76-.66c-.21.23-.42.44-.65.64l.66.75Zm-1.74 1.16c.31-.16.61-.33.9-.53l-.56-.83v0c-.26.16-.52.32-.8.45l.44.89Zm-7.99-.53c.28.19.59.37.9.52l.44-.9H4.84c-.28-.14-.54-.29-.8-.46l-.556.83Zm1.87.92c.32.11.66.2 1.01.27l.19-.98h0c-.3-.06-.6-.14-.89-.24l-.33.94Zm4.13.27v0c.34-.07.68-.16 1.01-.27l-.33-.95v0c-.29.09-.59.17-.89.23l.19.98Zm-2.09.13h-.001c.34.02.69.02 1.04 0l-.07-1v0c-.31.01-.62.01-.92 0l-.07.99Zm-2.98-8.49v0c-.28 0-.5.22-.5.5 0 .27.22.5.5.5h7v0c.27 0 .5-.23.5-.5 0-.28-.23-.5-.5-.5h-7Z"/></svg>