<svg viewBox="0 0 16 16" xmlns="http://www.w3.org/2000/svg"><g><path d="M5 8V4h6v4H5Z"/><path d="M4 0v0C2.89 0 2 .89 2 2v12 0c0 1.1.89 2 2 2h8v0c1.1 0 2-.9 2-2V2v0c0-1.11-.9-2-2-2H4Zm0 1.5v0c0 .27-.23.5-.5.5 -.28 0-.5-.23-.5-.5v0c0-.28.22-.5.5-.5 .27 0 .5.22.5.5Zm9 0v0c0 .27-.23.5-.5.5 -.28 0-.5-.23-.5-.5v0c0-.28.22-.5.5-.5 .27 0 .5.22.5.5ZM3.5 11v0c.27 0 .5-.23.5-.5 0-.28-.23-.5-.5-.5v0c-.28 0-.5.22-.5.5 0 .27.22.5.5.5Zm9.5-.5v0c0 .27-.23.5-.5.5 -.28 0-.5-.23-.5-.5v0c0-.28.22-.5.5-.5 .27 0 .5.22.5.5ZM4.75 3h6.5v0c.41 0 .75.33.75.75v4.5 0c0 .41-.34.75-.75.75h-6.5v0C4.33 9 4 8.66 4 8.25v-4.5 0c0-.42.33-.75.75-.75ZM5 12h6v0c.55 0 1 .44 1 1v2h-1v-2h-.75v2h-1v-2H8.5v2h-1v-2h-.75v2h-1v-2H5v2H4v-2 0c0-.56.44-1 1-1Z"/></g></svg>