<svg viewBox="0 0 16 16" xmlns="http://www.w3.org/2000/svg"><path d="M3 0v0C1.34 0 0 1.34 0 3v10 0c0 1.65 1.34 3 3 3h10v0c1.65 0 3-1.35 3-3V3v0c0-1.66-1.35-3-3-3H3Zm2.5 4v0c0 .82-.68 1.5-1.5 1.5 -.83 0-1.5-.68-1.5-1.5v0c0-.83.67-1.5 1.5-1.5 .82 0 1.5.67 1.5 1.5Zm8 0v0c0 .82-.68 1.5-1.5 1.5 -.83 0-1.5-.68-1.5-1.5v0c0-.83.67-1.5 1.5-1.5 .82 0 1.5.67 1.5 1.5ZM12 13.5v0c-.83 0-1.5-.68-1.5-1.5 0-.83.67-1.5 1.5-1.5v0c.82 0 1.5.67 1.5 1.5 0 .82-.68 1.5-1.5 1.5ZM5.5 12v0c0 .82-.68 1.5-1.5 1.5 -.83 0-1.5-.68-1.5-1.5v0c0-.83.67-1.5 1.5-1.5 .82 0 1.5.67 1.5 1.5ZM8 9.5v0c-.83 0-1.5-.68-1.5-1.5 0-.83.67-1.5 1.5-1.5v0c.82 0 1.5.67 1.5 1.5 0 .82-.68 1.5-1.5 1.5Z"/></svg>