<svg viewBox="0 0 16 16" xmlns="http://www.w3.org/2000/svg"><path d="M6.5 0v0C5.67 0 5 .67 5 1.5v3 0c0 .27-.23.5-.5.5h-3v0C.67 5 0 5.67 0 6.5v3 0c0 .82.67 1.5 1.5 1.5h3v0c.27 0 .5.22.5.5v3 0c0 .82.67 1.5 1.5 1.5h3v0c.82 0 1.5-.68 1.5-1.5v-3 0c0-.28.22-.5.5-.5h3v0c.82 0 1.5-.68 1.5-1.5v-3 0c0-.83-.68-1.5-1.5-1.5h-3v0c-.28 0-.5-.23-.5-.5v-3 0C11 .67 10.32 0 9.5 0h-3Zm1.28 2.34v0c.07-.12.22-.16.34-.08 .03.02.05.04.07.07L8.98 3.6v0c.07.11.03.27-.09.34 -.04.02-.09.03-.14.03h-1.6v0c-.14-.01-.25-.12-.25-.26 0-.05.01-.1.03-.14l.79-1.279Zm0 11.32l-.8-1.28v0c-.08-.12-.04-.28.07-.35 .03-.03.08-.04.13-.04h1.59v0c.13-.01.25.11.25.24 0 .04-.02.09-.04.13l-.8 1.27v0c-.08.11-.23.15-.35.07 -.04-.03-.06-.05-.08-.08ZM3.61 9.01L2.33 8.212v0c-.12-.08-.16-.23-.08-.35 .02-.04.04-.06.07-.08l1.279-.8v0c.11-.08.27-.04.34.08 .02.03.03.08.03.13v1.59 0c-.01.13-.12.24-.26.24 -.05-.01-.1-.02-.14-.04Zm10.043-.798l-1.28.79v0c-.12.07-.28.03-.35-.08 -.03-.04-.04-.09-.04-.14v-1.6 0c-.01-.14.11-.26.24-.26 .04-.01.09.01.13.03l1.27.79v0c.11.07.15.22.07.34 -.03.03-.05.05-.08.07Z"/></svg>