<svg viewBox="0 0 16 16" xmlns="http://www.w3.org/2000/svg"><g><path d="M7.788 2.34l-.8 1.278v0c-.08.11-.04.27.08.34 .03.02.08.03.13.03h1.59v0c.13-.01.24-.12.24-.26 -.01-.05-.02-.1-.04-.14l-.8-1.279v-.001c-.08-.12-.23-.16-.35-.08 -.04.02-.06.04-.08.07Zm0 11.32l-.8-1.28v0c-.08-.12-.04-.28.07-.35 .03-.03.08-.04.13-.04h1.59v0c.13-.01.25.11.25.24 0 .04-.02.09-.04.13l-.8 1.27v0c-.08.11-.23.15-.35.07 -.04-.03-.06-.05-.08-.08ZM3.6 9.01l-1.28-.8v0c-.12-.08-.16-.23-.08-.35 .02-.04.04-.06.07-.08l1.278-.8v0c.11-.08.27-.04.34.08 .02.03.03.08.03.13v1.59 0c0 .13-.12.25-.25.25 -.05 0-.1-.02-.14-.04Zm10.043-.8l-1.28.79v0c-.12.07-.28.03-.35-.08 -.03-.04-.04-.09-.04-.14v-1.6 0c-.01-.14.11-.26.24-.26 .04-.01.09.01.13.03l1.27.79v0c.11.07.15.22.07.34 -.03.03-.05.05-.08.07Z"/><path d="M6.5 0v0C5.67 0 5 .67 5 1.5v3 0c0 .27-.23.5-.5.5h-3v0C.67 5 0 5.67 0 6.5v3 0c0 .82.67 1.5 1.5 1.5h3v0c.27 0 .5.22.5.5v3 0c0 .82.67 1.5 1.5 1.5h3v0c.82 0 1.5-.68 1.5-1.5v-3 0c0-.28.22-.5.5-.5h3v0c.82 0 1.5-.68 1.5-1.5v-3 0c0-.83-.68-1.5-1.5-1.5h-3v0c-.28 0-.5-.23-.5-.5v-3 0C11 .67 10.32 0 9.5 0h-3ZM6 1.5v0c0-.28.22-.5.5-.5h3v0c.27 0 .5.22.5.5v3 0c0 .82.67 1.5 1.5 1.5h3v0c.27 0 .5.22.5.5v3 0c0 .27-.23.5-.5.5h-3v0c-.83 0-1.5.67-1.5 1.5v3 0c0 .27-.23.5-.5.5h-3v0c-.28 0-.5-.23-.5-.5v-3 0c0-.83-.68-1.5-1.5-1.5h-3v0c-.28 0-.5-.23-.5-.5v-3 0c0-.28.22-.5.5-.5h3v0C5.32 6 6 5.32 6 4.5v-3Z"/></g></svg>