<svg viewBox="0 0 16 16" xmlns="http://www.w3.org/2000/svg"><g fill-rule="evenodd"><path d="M7.21.8C7.69.29 8 0 8 0c.1.363.23.708.37 1.038 .81 1.946 2.07 3.35 3.19 4.6 1.31 1.45 2.43 2.7 2.43 4.362v0c0 3.31-2.69 6-6 6 -3.32 0-6-2.69-6-6 0-3.34 3.58-7.49 5.21-9.2Zm.41 1.021l0-.001c-.65.69-1.26 1.41-1.83 2.16 -.726.95-1.436 2.008-1.96 3.07 -.53 1.07-.84 2.07-.84 2.94 0 0 2.5 1.5 5 .5s5-.5 5-.5c0-1.21-.8-2.157-2.19-3.7l-.03-.04C9.73 5.09 8.48 3.7 7.6 1.8Z"/><path d="M4.553 7.77c.82-1.641 1.71-2.753 2.093-3.13l.7.7c-.29.29-1.13 1.311-1.907 2.87l-.9-.45Z"/></g></svg>