<svg viewBox="0 0 16 16" xmlns="http://www.w3.org/2000/svg"><path d="M8.5 0v0C5.46 0 3 2.46 3 5.5v7.047 0c-.01 1.9 1.54 3.45 3.45 3.45 1.44 0 2.73-.9 3.23-2.25l.51-1.37 0-.001c.16-.44.38-.84.67-1.2l2-2.59v0c1.81-2.33 1.39-5.69-.94-7.5 -.94-.73-2.1-1.13-3.28-1.13h-.16ZM7 5.5v2.69c.11-.06.22-.13.33-.2 .32-.21.577-.44.72-.73v0c.12-.25.42-.35.67-.23 .24.12.34.42.22.67 -.01 0-.01 0-.01 0 -.26.51-.673.86-1.08 1.12v-.001c-.29.17-.57.32-.87.46v2.18 0c0 .27-.23.5-.5.5 -.28 0-.5-.23-.5-.5v-6 0c0-1.39 1.11-2.5 2.5-2.5 1.38 0 2.5 1.11 2.5 2.5v.5 0c0 .27-.23.5-.5.5 -.28 0-.5-.23-.5-.5v-.5 0c0-.83-.68-1.5-1.5-1.5 -.83 0-1.5.67-1.5 1.5Z"/></svg>