<svg viewBox="0 0 16 16" xmlns="http://www.w3.org/2000/svg"><g><path d="M8.447.27v0c-.13-.25-.43-.35-.68-.23 -.1.04-.18.12-.23.22l-.37.724H2.47v0c-.83 0-1.5.67-1.5 1.5v7.5h14v-7.5 0c0-.83-.68-1.5-1.5-1.5h-4.7L8.4.254Z"/><path fill-rule="evenodd" d="M.5 11v0c-.28 0-.5.22-.5.5 0 .27.22.5.5.5h2.86l-.85 3.37v0c-.07.26.1.53.37.59 .26.05.52-.1.59-.36l.4-1.63h8.22l.4 1.62h0c.07.26.34.42.61.34 .25-.08.41-.34.35-.6l-.85-3.38h2.86v0c.27 0 .5-.23.5-.5 0-.28-.23-.5-.5-.5h-15Zm3.64 2l.25-1h7.22l.25 1H4.14Z"/></g></svg>