<svg viewBox="0 0 16 16" xmlns="http://www.w3.org/2000/svg"><path d="M8-.001v0c.21-.01.4.13.47.33l.57 1.66h4.95v0c.55 0 1 .44 1 1v7 0c0 .55-.45 1-1 1h-1.85l1.32 3.83 -.001 0c.09.26-.05.54-.31.63 -.27.09-.55-.05-.64-.31 -.01-.01-.01-.01-.01-.01l-1.44-4.17h-2.6v3 0c0 .27-.23.5-.5.5 -.28 0-.5-.23-.5-.5v-3h-2.6L3.41 15.12h0c-.1.26-.38.4-.64.31 -.27-.1-.41-.38-.31-.64 0-.01 0-.01 0-.01l1.32-3.84H1.93v0c-.56 0-1-.45-1-1v-7V2.94c0-.56.44-1 1-1H6.89L7.46.27v0c.06-.21.25-.34.47-.34Zm-6 3v7h12v-7H2Z"/></svg>