<svg viewBox="0 0 16 16" xmlns="http://www.w3.org/2000/svg"><path d="M8 16v0c4.41 0 8-3.59 8-8 0-4.42-3.59-8-8-8v0C3.58 0 0 3.58 0 8c0 4.41 3.58 8 8 8ZM7 6.5c0 .5-.17.39-.42.23 -.17-.11-.367-.24-.585-.24 -.22 0-.42.13-.585.23 -.26.16-.42.26-.42-.24 0-.83.44-1.5 1-1.5 .55 0 1 .67 1 1.5Zm5.33 3v0c.17.3.17.69 0 1v0c-.9 1.54-2.55 2.5-4.34 2.5v0c-1.79 0-3.44-.96-4.33-2.5v0c-.28-.48-.12-1.09.36-1.37 .15-.09.32-.14.49-.14h6.93v0c.35 0 .68.19.86.5Zm-1.75-2.77c-.17-.11-.37-.24-.59-.24 -.22 0-.42.13-.59.23 -.26.16-.42.26-.42-.24 0-.83.44-1.5 1-1.5 .55 0 1 .67 1 1.5 0 .5-.17.39-.42.23Z"/></svg>