<svg viewBox="0 0 16 16" xmlns="http://www.w3.org/2000/svg"><g><path d="M8 15v0c-3.87 0-7-3.14-7-7 0-3.87 3.13-7 7-7v0c3.86 0 7 3.13 7 7 0 3.86-3.14 7-7 7Zm0 1v0c4.41 0 8-3.59 8-8 0-4.42-3.59-8-8-8v0C3.58 0 0 3.58 0 8c0 4.41 3.58 8 8 8Z"/><path d="M11.31 10.014v0c.26-.07.53.1.6.37 .02.12.01.25-.06.36v0c-.81 1.39-2.29 2.25-3.9 2.25H7.94c-1.61 0-3.1-.86-3.9-2.25v0c-.14-.24-.06-.55.18-.69 .11-.07.24-.09.36-.06h0l.01 0 .06.01 .25.05c.21.04.51.1.85.16 .69.12 1.52.24 2.152.24 .63 0 1.46-.12 2.15-.25v-.001c.37-.07.74-.15 1.1-.23l.06-.02 .01-.01 0-.01ZM4.75 4.56c.76-1.424 4.02-.12.952 3.43 -4.496-1.6-2.35-4.3-.952-3.44Zm6.48 0c1.39-.87 3.54 1.838-.952 3.43 -3.067-3.56.19-4.86.952-3.44Z"/></g></svg>