<svg viewBox="0 0 16 16" xmlns="http://www.w3.org/2000/svg"><path d="M8 16v0c4.41 0 8-3.59 8-8 0-4.42-3.59-8-8-8v0C3.58 0 0 3.58 0 8c0 4.41 3.58 8 8 8ZM7 6.5C7 7.32 6.55 8 6 8c-.56 0-1-.68-1-1.5C5 5.67 5.44 5 6 5c.55 0 1 .67 1 1.5Zm-2.715 5.933v0c-.24-.14-.33-.45-.19-.69H4.09c.8-1.4 2.28-2.26 3.89-2.25v0c1.6-.01 3.09.85 3.89 2.25v0c.13.24.05.54-.19.68 -.24.13-.55.05-.68-.19v0c-.63-1.09-1.79-1.76-3.032-1.75v0c-1.26-.01-2.41.66-3.04 1.75v0c-.14.23-.45.32-.69.18ZM10 8c-.56 0-1-.68-1-1.5 0-.83.44-1.5 1-1.5 .55 0 1 .67 1 1.5 0 .82-.45 1.5-1 1.5Z"/></svg>