<svg viewBox="0 0 16 16" xmlns="http://www.w3.org/2000/svg"><path d="M8 16v0c4.41 0 8-3.59 8-8 0-4.42-3.59-8-8-8v0C3.58 0 0 3.58 0 8c0 4.41 3.58 8 8 8ZM4.053 4.276v0c.12-.25.42-.35.67-.23l2 1v0c.24.12.34.42.22.67 -.02.03-.04.06-.06.08 .07.2.11.44.11.68 0 .82-.45 1.5-1 1.5 -.56 0-1-.68-1-1.5 0-.41.1-.78.28-1.05l-1.01-.51v0c-.25-.13-.35-.43-.23-.67Zm.23 8.157v0c-.24-.14-.33-.45-.19-.69h-.001c.8-1.4 2.28-2.26 3.89-2.25v0c1.6-.01 3.09.85 3.89 2.25v0c.13.23.05.54-.18.68 -.24.13-.55.05-.69-.18 -.01-.01-.01-.01-.01-.01v0c-.63-1.09-1.79-1.76-3.032-1.75v0c-1.26-.01-2.41.66-3.04 1.75v0c-.14.23-.45.32-.69.18ZM9.99 8c-.56 0-1-.68-1-1.5 0-.25.04-.48.11-.69v0c-.18-.22-.14-.54.07-.71 .02-.03.05-.05.08-.06l2-1V4.03c.24-.13.54-.03.67.21 .12.24.02.54-.22.67 -.01 0-.01 0-.01 0l-1.01.5c.17.27.28.64.28 1.04 0 .82-.45 1.5-1 1.5Z"/></svg>