<svg viewBox="0 0 16 16" xmlns="http://www.w3.org/2000/svg"><g><path d="M8 15v0c-3.87 0-7-3.14-7-7 0-3.87 3.13-7 7-7v0c3.86 0 7 3.13 7 7 0 3.86-3.14 7-7 7Zm0 1v0c4.41 0 8-3.59 8-8 0-4.42-3.59-8-8-8v0C3.58 0 0 3.58 0 8c0 4.41 3.58 8 8 8Z"/><path d="M4 10.5v0c0 .27.22.5.5.5h7v0c.27 0 .5-.23.5-.5 0-.28-.23-.5-.5-.5h-7v0c-.28 0-.5.22-.5.5Zm3-4C7 5.67 6.55 5 6 5c-.56 0-1 .67-1 1.5C5 7.32 5.44 8 6 8c.55 0 1-.68 1-1.5Zm4 0c0-.83-.45-1.5-1-1.5 -.56 0-1 .67-1 1.5 0 .82.44 1.5 1 1.5 .55 0 1-.68 1-1.5Z"/></g></svg>