<svg viewBox="0 0 16 16" xmlns="http://www.w3.org/2000/svg"><path d="M8 16v0c4.41 0 8-3.59 8-8 0-4.42-3.59-8-8-8v0C3.58 0 0 3.58 0 8c0 4.41 3.58 8 8 8ZM2.31 5.243v0c-.14-.54.19-1.08.72-1.22 .07-.02.16-.03.24-.03h2.72v0c.55 0 1 .44 1 1v.11 0c.32-.08.66-.12 1-.12 .35 0 .69.04 1 .11v-.12 0c0-.56.44-1 1-1h2.72v0c.55 0 .99.44.99 1 -.01.08-.02.16-.03.24l-.32 1.242h0c-.23.89-1.03 1.51-1.94 1.51h-.44v0c-1.05 0-1.92-.81-2-1.84v0c-.33-.12-.67-.17-1.01-.17 -.4 0-.74.06-1.01.16v0c-.09 1.03-.96 1.83-2 1.83h-.44v0c-.92-.01-1.72-.63-1.94-1.52L2.25 5.18ZM4.96 9.75v0c.62 1.08 1.78 1.75 3.03 1.75v0c1.25 0 2.4-.67 3.032-1.75v0c.13-.25.44-.33.68-.19 .24.13.32.44.18.68 -.01 0-.01 0-.01 0v0c-.81 1.39-2.29 2.25-3.9 2.25H7.97c-1.61 0-3.1-.86-3.9-2.25h0c-.14-.25-.06-.55.18-.69 .23-.14.54-.06.67.18Z"/></svg>