<svg viewBox="0 0 16 16" xmlns="http://www.w3.org/2000/svg"><g><path d="M8 15v0c-3.87 0-7-3.14-7-7 0-3.87 3.13-7 7-7v0c3.86 0 7 3.13 7 7 0 3.86-3.14 7-7 7Zm0 1v0c4.41 0 8-3.59 8-8 0-4.42-3.59-8-8-8v0C3.58 0 0 3.58 0 8c0 4.41 3.58 8 8 8Z"/><path d="M12.331 9.5v0c.17.3.17.69 0 1v0C11.431 12.04 9.78 13 8 13v0c-1.79 0-3.44-.96-4.33-2.5v0c-.28-.48-.12-1.09.36-1.37 .15-.09.32-.14.49-.14h6.93v0c.35 0 .68.19.86.5ZM7 6.5c0 .82-.45 0-1 0 -.56 0-1 .82-1 0C5 5.67 5.44 5 6 5c.55 0 1 .67 1 1.5Zm4 0c0 .82-.45 0-1 0 -.56 0-1 .82-1 0 0-.83.44-1.5 1-1.5 .55 0 1 .67 1 1.5Z"/></g></svg>