<svg viewBox="0 0 16 16" xmlns="http://www.w3.org/2000/svg"><path fill-rule="evenodd" d="M12.493 13.36l-.001-.001c-2.97 2.48-7.38 2.08-9.87-.88C.13 9.5.53 5.09 3.49 2.609c2.96-2.49 7.37-2.09 9.86.87 1.16 1.39 1.74 3.18 1.61 5 .34.03.68.14.97.32h-.001c.46-4.4-2.73-8.34-7.12-8.8C4.411-.48.47 2.71.01 7.1c-.47 4.39 2.72 8.33 7.11 8.79 2.23.23 4.46-.48 6.14-1.97v0c-.29-.2-.56-.4-.81-.63Zm-3.731-3.22H8.76c-.38.08-.75.19-1.11.31v0c-.26.09-.55-.04-.65-.3 -.1-.26.03-.55.29-.65 .01-.01.02-.01.03-.02 .38-.125.8-.26 1.19-.35 .37-.09.78-.16 1.1-.11 .16.02.39.08.56.28 .18.22.18.49.13.7V9.99c-.07.21-.18.41-.31.59 -.08.1-.17.22-.28.34 .1.12.19.24.27.34 .14.19.25.39.31.59 .05.2.05.47-.14.7 -.17.2-.41.26-.57.28 -.33.04-.74-.03-1.11-.12v0c-.41-.1-.8-.22-1.2-.35v0c-.27-.08-.42-.36-.35-.62 .07-.27.35-.42.61-.35 .01 0 .02 0 .03.01 .37.12.76.24 1.1.32 .17.04.32.06.44.08h0c-.16-.21-.33-.41-.51-.59v0c-.19-.2-.19-.51 0-.7v0c.17-.19.34-.38.5-.58h0c-.16.01-.31.04-.45.08Zm.766-.09l-.01-.01 -.01-.01s0 0 0 0Zm0 1.86l-.01 0h0c0-.01 0-.01 0-.01ZM5.99 7.98c.55 0 1-.68 1-1.5 0-.83-.45-1.5-1-1.5 -.56 0-1 .67-1 1.5 0 .82.44 1.5 1 1.5Zm2.75-.57v0c.24.13.54.04.67-.2 0-.01 0-.01 0-.01V7.19c.16-.31.47-.49.81-.5 .33 0 .64.19.81.49v0c.13.24.43.32.68.19 .24-.14.32-.44.19-.68v0c-.34-.62-.99-1.01-1.69-1.01 -.73 0-1.36.41-1.69 1L8.52 6.68c-.14.24-.05.54.19.67 0 0 0 0 0 0ZM13.99 9.8c1.11-1.14 3.88.85 0 3.42 -3.89-2.57-1.11-4.57 0-3.43Z"/></svg>