<svg viewBox="0 0 16 16" xmlns="http://www.w3.org/2000/svg"><path fill-rule="evenodd" d="M16 8v0c-.01-4.42-3.59-8-8.01-8s-8 3.58-8 8c0 4.41 3.58 7.99 8 7.99 1.95-.01 3.83-.72 5.3-2.02 -.98-.67-1.64-1.36-1.99-2.07 -.39-.77-.42-1.561-.08-2.23 .49-.97 1.73-1.47 2.76-1.05 .65-.27 1.38-.17 1.95.19 .02-.28.04-.56.04-.84ZM7 6.5C6.999 7.32 6.55 8 6 8c-.56 0-1-.68-1-1.5C5 5.67 5.44 5 6 5c.55 0 1 .67 1 1.5Zm1.51 3.64c-.35.08-.74.19-1.11.31v0c-.26.09-.55-.04-.65-.3 -.1-.26.03-.55.29-.65 .01-.01.02-.01.03-.02 .38-.125.8-.26 1.19-.35 .37-.09.78-.16 1.1-.11 .16.02.39.08.56.28 .18.22.18.49.13.7v-.001c-.07.21-.18.41-.31.59 -.08.1-.17.22-.28.34 .1.12.19.24.27.34 .14.19.25.39.31.59 .05.2.05.47-.14.7 -.17.2-.41.26-.57.28 -.33.04-.74-.03-1.11-.12v0c-.41-.1-.8-.22-1.2-.35v0c-.27-.08-.42-.36-.35-.62 .07-.27.35-.42.61-.35 .01 0 .02 0 .03.01 .37.12.76.24 1.109.32 .17.04.32.06.44.08h0c-.16-.21-.33-.41-.51-.59v0c-.19-.2-.19-.51 0-.7v0c.17-.19.34-.38.5-.58v0c-.16.01-.31.04-.45.08Zm.76-.09l-.01-.01s0 0 0 0Zm0 1.86h-.01l-.01 0v0c0-.01 0-.01 0-.01Zm.15-4.69v0c-.14.24-.44.32-.68.19 -.25-.14-.33-.44-.2-.68v-.001c.33-.62.98-1.01 1.68-1.01 .73 0 1.35.41 1.68 1v0c.13.24.04.54-.2.68 -.25.13-.55.04-.68-.2v0c-.17-.31-.48-.49-.82-.5v0c-.35 0-.66.19-.82.49Zm4.56 2.58c1.11-1.14 3.88.85 0 3.42 -3.89-2.57-1.11-4.57 0-3.43Z"/></svg>