<svg viewBox="0 0 16 16" xmlns="http://www.w3.org/2000/svg"><path d="M8 0v0C3.58 0 0 3.58 0 8c0 4.41 3.58 8 8 8v0c4.41 0 8-3.59 8-8 0-4.42-3.59-8-8-8ZM4.75 4.566c.76-1.424 4.02-.12.952 3.434C1.2 6.404 3.352 3.702 4.75 4.56Zm6.55 5.44v0c.26-.07.53.1.6.37 .02.12.01.25-.06.36v0c-.81 1.39-2.29 2.25-3.9 2.25H7.93c-1.61 0-3.1-.86-3.9-2.25v0c-.14-.24-.06-.55.18-.69 .11-.07.24-.09.36-.06h0l.01 0 .06.01 .25.05c.21.04.51.1.85.16 .69.12 1.52.24 2.152.24 .63 0 1.46-.12 2.15-.25v-.001c.37-.07.74-.15 1.1-.23l.06-.02 .01-.01 0-.01Zm-.07-5.448c1.39-.87 3.54 1.838-.96 3.43 -3.067-3.56.19-4.858.952-3.44Z"/></svg>