<svg viewBox="0 0 16 16" xmlns="http://www.w3.org/2000/svg"><g><path d="M8 15v0c-3.87 0-7-3.14-7-7 0-3.87 3.13-7 7-7v0c3.86 0 7 3.13 7 7 0 3.86-3.14 7-7 7Zm0 1v0c4.41 0 8-3.59 8-8 0-4.42-3.59-8-8-8v0C3.58 0 0 3.58 0 8c0 4.41 3.58 8 8 8Z"/><path d="M4.285 12.433v0c.23.13.54.05.68-.19l-.001 0c.62-1.09 1.78-1.76 3.03-1.75 1.295 0 2.426.7 3.032 1.75v0c.13.23.44.31.68.17 .23-.14.31-.45.18-.68v0c-.81-1.4-2.29-2.26-3.9-2.25v0c-1.61-.01-3.1.85-3.9 2.25v0c-.14.23-.06.54.18.68ZM7 6.5C7 7.32 6.55 8 6 8c-.56 0-1-.68-1-1.5C5 5.67 5.44 5 6 5c.55 0 1 .67 1 1.5Zm4 0c0 .82-.45 1.5-1 1.5 -.56 0-1-.68-1-1.5 0-.83.44-1.5 1-1.5 .55 0 1 .67 1 1.5Z"/></g></svg>