<svg viewBox="0 0 16 16" xmlns="http://www.w3.org/2000/svg"><g><path d="M8 1v0C4.13 1 1 4.13 1 8c0 3.86 3.13 7 7 7v0c3.86 0 7-3.14 7-7 0-3.87-3.14-7-7-7Zm0-1v0c4.41 0 8 3.58 8 8 0 4.41-3.59 8-8 8v0c-4.42 0-8-3.59-8-8 0-4.42 3.58-8 8-8Z"/><path d="M4.28 6.43v0c.23.13.54.05.68-.19V6.23c.62-1.09 1.78-1.76 3.03-1.75 1.29 0 2.42.7 3.032 1.75v0c.13.23.44.31.68.17 .23-.14.31-.45.18-.68v0c-.81-1.4-2.29-2.26-3.9-2.25v0c-1.61-.01-3.1.85-3.9 2.25v0c-.14.23-.06.54.18.68Zm2.715 3.06c0-.83-.45-1.5-1-1.5 -.56 0-1 .67-1 1.5 0 .82.44 1.5 1 1.5 .55 0 1-.68 1-1.5Zm4 0c0-.83-.45-1.5-1-1.5 -.56 0-1 .67-1 1.5 0 .82.44 1.5 1 1.5 .55 0 1-.68 1-1.5Z"/></g></svg>