<svg viewBox="0 0 16 16" xmlns="http://www.w3.org/2000/svg"><g><path d="M.05 3.55H.049c.2-.91 1.01-1.56 1.95-1.56h12v0c.93-.01 1.74.64 1.95 1.55l-7.95 4.85L.04 3.53ZM0 4.69v7.104l5.803-3.558L0 4.68Zm6.761 4.133L.19 12.849H.19c.33.69 1.03 1.14 1.8 1.14h6.256v0c-.17-.49-.26-.99-.26-1.5v0c-.01-1.33.58-2.6 1.6-3.45l-.37-.23 -1.24.75 -1.24-.76ZM16 4.69v4.97 0c-.86-1.06-2.15-1.68-3.5-1.68v0c-.69-.01-1.36.15-1.97.45l-.34-.21 5.8-3.55Z"/><path d="M14.97 10.02v0c-1.37-1.37-3.59-1.37-4.95-.001 -1.37 1.36-1.37 3.58 0 4.95v0c1.36 1.36 3.58 1.36 4.95-.001 1.36-1.37 1.36-3.59 0-4.95Zm-4.243.7h0c.84-.85 2.15-.98 3.14-.32L10.4 13.86v0c-.66-1-.53-2.31.31-3.15Zm.39 3.85l3.46-3.465v0c.76 1.15.44 2.7-.71 3.465 -.84.55-1.92.55-2.76 0Z"/></g></svg>