<svg viewBox="0 0 16 16" xmlns="http://www.w3.org/2000/svg"><g><path d="M.05 3.55H.049c.2-.91 1.01-1.56 1.95-1.56h12v0c.93-.01 1.74.64 1.95 1.55l-4.2 2.56v0c-.02-.04-.04-.08-.06-.11 -.67-1.3-2.37-1.92-3.699-1.25 -1.34-.67-3.04-.05-3.699 1.25l-.05.1L.03 3.52ZM11.58 8.9v0c-.03.04-.05.09-.08.13l4.48 2.75V4.67L11.977 7.11c.02.56-.11 1.16-.42 1.76Zm-4.135 3.05c-1.048-.7-1.84-1.39-2.4-2.09L.18 12.83H.18c.33.69 1.03 1.14 1.81 1.14h12v0c.77 0 1.47-.45 1.8-1.15l-4.86-2.98c-.56.69-1.35 1.38-2.4 2.08l-.56.36 -.56-.37ZM4.405 8.9c-.31-.61-.44-1.21-.42-1.77L-.02 4.68v7.104l4.49-2.76h-.001c-.03-.05-.06-.1-.08-.14Z"/><path d="M8 5.99c1.66-1.72 5.82 1.28 0 5.13 -5.83-3.85-1.67-6.85 0-5.14Z"/></g></svg>