<svg viewBox="0 0 16 16" xmlns="http://www.w3.org/2000/svg"><g><path d="M8.53 1.02h-.001c-.28-.03-.52.18-.54.46 -.03.27.18.51.46.53v-.001c3.3.25 5.77 3.14 5.51 6.44 -.26 3.3-3.15 5.77-6.45 5.51 -2.95-.23-5.3-2.58-5.52-5.53v0c-.03-.28-.27-.48-.55-.46 -.27.02-.48.25-.46.52v0c.29 3.85 3.66 6.73 7.51 6.44 3.85-.3 6.73-3.67 6.44-7.52 -.27-3.45-3-6.18-6.45-6.45Z"/><path d="M7.096 7.82h0c.19.19.51.18.7-.02 .18-.2.18-.51 0-.7L2.7 2h2.768v0c.27 0 .5-.23.5-.5 0-.28-.23-.5-.5-.5h-3.98v0c-.28 0-.5.22-.5.5v3.97 0c0 .27.22.5.5.5 .27 0 .5-.23.5-.5V2.7l5.096 5.09Z"/></g></svg>