<svg viewBox="0 0 16 16" xmlns="http://www.w3.org/2000/svg"><g><path d="M14 13.5v-7 0c0-.28-.23-.5-.5-.5H12V4.5v0c0-.28-.23-.5-.5-.5h-1v-.5 0c0-.28-.23-.5-.5-.5H6v0c-.28 0-.5.22-.5.5V4h-1v0c-.28 0-.5.22-.5.5V6H2.5v0c-.28 0-.5.22-.5.5v7 0c0 .27.22.5.5.5h11v0c.27 0 .5-.23.5-.5ZM3.75 11h.5v0c.13 0 .25.11.25.25v1.5 0c0 .13-.12.25-.25.25h-.5v0c-.14 0-.25-.12-.25-.25v-1.5 0c0-.14.11-.25.25-.25Zm2 0h.5v0c.13 0 .25.11.25.25v1.5 0c0 .13-.12.25-.25.25h-.5v0c-.14 0-.25-.12-.25-.25v-1.5 0c0-.14.11-.25.25-.25Zm1.75.25v0c0-.14.11-.25.25-.25h.5v0c.13 0 .25.11.25.25v1.5 0c0 .13-.12.25-.25.25h-.5v0c-.14 0-.25-.12-.25-.25v-1.5ZM9.75 11h.5v0c.13 0 .25.11.25.25v1.5 0c0 .13-.12.25-.25.25h-.5v0c-.14 0-.25-.12-.25-.25v-1.5 0c0-.14.11-.25.25-.25Zm1.75.25v0c0-.14.11-.25.25-.25h.5v0c.13 0 .25.11.25.25v1.5 0c0 .13-.12.25-.25.25h-.5v0c-.14 0-.25-.12-.25-.25v-1.5Z"/><path d="M2 0v0C.89 0 0 .89 0 2v12 0c0 1.1.89 2 2 2h12v0c1.1 0 2-.9 2-2V2v0c0-1.11-.9-2-2-2H2ZM1 2v0c0-.56.44-1 1-1h12v0c.55 0 1 .44 1 1v12 0c0 .55-.45 1-1 1H2v0c-.56 0-1-.45-1-1V2Z"/></g></svg>