<svg viewBox="0 0 16 16" xmlns="http://www.w3.org/2000/svg"><g><path d="M6.95.43c.58-.58 1.52-.58 2.1 0l6.51 6.51c.58.58.58 1.51 0 2.09l-6.52 6.51c-.58.58-1.52.58-2.098 0L.42 9.02H.42c-.58-.58-.59-1.52-.01-2.1 0-.01 0-.01 0-.01L6.924.39Zm1.4.7v-.001c-.2-.2-.51-.2-.7 0L1.13 7.644v0c-.2.19-.2.5-.001.7l6.516 6.516v0c.19.19.5.19.7 0l6.51-6.516v0c.19-.2.19-.51 0-.7L8.33 1.12Z"/><path d="M7.002 11H7c-.01-.56.44-1 1-1 .55-.01 1 .44 1 1 0 0 0 0 0 0v0c0 .55-.45 1-1 1 -.56 0-1-.45-1-1Zm.09-6.01v0c-.06-.5.3-.95.8-1 .49-.06.94.3.99.8 0 .06 0 .12 0 .19l-.35 3.5v0c-.03.3-.3.52-.6.5 -.27-.03-.49-.24-.51-.51l-.35-3.51Z"/></g></svg>