<svg viewBox="0 0 16 16" xmlns="http://www.w3.org/2000/svg"><g><path d="M7.938 2.016v-.001c.01-.02.04-.02.06-.02v0c.02-.01.04 0 .06.01v-.001c.02.01.04.03.05.05l6.85 11.667c.03.06.03.12 0 .18h-.001c-.02.02-.04.04-.06.06v0c-.02.01-.05.01-.07.01H1.1h0c-.03 0-.05-.01-.07-.02h0c-.03-.02-.05-.04-.06-.06v0c-.04-.06-.04-.13 0-.19L7.82 2.03v0c.01-.03.03-.05.05-.06Zm1.04-.45v0c-.32-.55-1.01-.73-1.55-.42 -.18.09-.32.24-.42.41L.14 13.22c-.457.77.09 1.76.98 1.76h13.713c.88 0 1.43-.99.98-1.77L8.96 1.54Z"/><path d="M7.002 12H7c-.01-.56.44-1 1-1 .55-.01 1 .44 1 1 0 0 0 0 0 0v0c0 .55-.45 1-1 1 -.56 0-1-.45-1-1Zm.09-6.01v0c-.06-.5.3-.95.8-1 .49-.06.94.3.99.8 0 .06 0 .12 0 .19l-.35 3.5v0c-.03.3-.3.52-.6.5 -.27-.03-.49-.24-.51-.51l-.35-3.51Z"/></g></svg>