<svg viewBox="0 0 16 16" xmlns="http://www.w3.org/2000/svg"><path d="M11.46.14v0c-.1-.1-.23-.15-.36-.15H4.88v0c-.14 0-.26.05-.36.14L.12 4.524h0c-.1.09-.15.22-.15.35v6.21 0c0 .13.05.25.14.35l4.39 4.394h0c.09.09.22.14.35.14h6.21v0c.13-.01.25-.06.35-.15l4.39-4.4v0c.09-.1.14-.23.14-.36v-6.22 0c-.01-.14-.06-.26-.15-.36L11.396.08ZM8 3.994c.53 0 .95.46.9.99l-.35 3.5v0c-.03.3-.3.52-.6.5 -.27-.03-.49-.24-.51-.51l-.35-3.51h0c-.05-.5.31-.95.81-1 .02-.01.05-.01.08-.01Zm0 6v0c.55 0 1 .44 1 1 0 .55-.45 1-1 1v0c-.56 0-1-.45-1-1 0-.56.44-1 1-1Z"/></svg>