<svg viewBox="0 0 16 16" xmlns="http://www.w3.org/2000/svg"><g><path d="M10.79 12.912l-1.62-1.62v0c-1.83.65-3.83-.3-4.474-2.12 -.28-.77-.28-1.6 0-2.36L2.63 4.75C.92 6.26-.02 7.98-.02 7.98s3 5.5 8 5.5v0c.96-.01 1.9-.21 2.79-.59ZM5.21 3.08v0c.88-.39 1.82-.59 2.79-.59 5 0 8 5.5 8 5.5s-.94 1.721-2.641 3.23l-2.07-2.07V9.15c.65-1.83-.3-3.83-2.12-4.48 -.77-.28-1.6-.28-2.36 0L5.18 3.05Z"/><path d="M5.52 7.646v-.001c-.2 1.36.75 2.63 2.12 2.82 .23.03.47.03.7 0l-2.83-2.83Zm4.95.7l-2.83-2.83v0c1.36-.2 2.63.75 2.82 2.12 .03.23.03.47 0 .7Zm3.17 6l-12-12 .7-.71 12 12 -.71.7Z"/></g></svg>