<svg viewBox="0 0 16 16" xmlns="http://www.w3.org/2000/svg"><path d="M13.35.64v0c-.48-.48-1.24-.48-1.71-.01 -.01 0-.01 0-.01 0L8.48 3.77l-.65-.65v0c-.2-.2-.52-.2-.71 0 -.2.19-.2.51 0 .7l1.14 1.14 -7.15 7.146h0c-.1.09-.15.22-.15.35v1.79l-.86.85h0c-.2.19-.2.51 0 .7 .19.19.51.19.7-.01 0 0 0-.01 0-.01l.85-.86h1.79v0c.13 0 .26-.06.35-.15l7.146-7.15 1.14 1.14v0c.19.19.51.19.7 0 .19-.2.19-.52 0-.71l-.65-.65 3.14-3.15v0c.47-.48.47-1.24 0-1.71 -.01-.01-.01-.01-.01-.01l-2-2ZM1.99 12.701l7-7 1.29 1.29 -7 7h-1.3v-1.3Z"/></svg>