<svg viewBox="0 0 16 16" xmlns="http://www.w3.org/2000/svg"><g><path d="M10 3c0 1.31-.31 2.508-.8 3.4v0c-.43-.32-.96-.46-1.49-.38 -.28-.99-.91-2.04-1.838-2.97v0c-.16-.16-.33-.31-.5-.46l-.001 0c.81-.4 1.7-.6 2.61-.6 .69 0 1.35.11 1.97.33 .01.21.02.44.02.66Zm0 5c0 .07-.01.14-.02.21 1.01-.02 2.2-.36 3.33-1.01v0c.19-.12.38-.24.57-.37v0c-.31-1.56-1.22-2.94-2.53-3.83v0c-.05.21-.09.42-.15.64 -.34 1.26-.95 2.346-1.66 3.07 .27.34.44.78.44 1.25Zm-.14.72v0c-.2.49-.58.89-1.07 1.109 .52.87 1.4 1.72 2.53 2.37 .2.11.4.22.6.31v0c1.2-1.05 1.94-2.53 2.05-4.12 -.21.07-.43.14-.65.19 -1.27.33-2.5.35-3.49.11ZM7.99 9.99c-.45 0-.87-.15-1.2-.4 -.5.89-.8 2.08-.8 3.391 0 .23.01.45.02.67h0c.63.21 1.29.33 1.96.33 .94 0 1.83-.22 2.62-.61v0c-.18-.15-.34-.3-.5-.46 -.93-.93-1.56-1.99-1.84-2.96 -.1.01-.2.02-.29.02Zm-2-2c0-.08 0-.16.01-.24 -1.02.01-2.205.351-3.34 1H2.65c-.2.11-.39.23-.57.35h0c.29 1.56 1.2 2.94 2.52 3.83l-.001-.001c.04-.22.08-.44.14-.66 .34-1.27.94-2.35 1.65-3.08h0c-.28-.36-.44-.79-.43-1.24ZM2.64 7.35c1.267-.34 2.49-.36 3.488-.11 .19-.5.58-.89 1.07-1.1 -.524-.88-1.41-1.74-2.55-2.388l-.001 0c-.2-.12-.4-.22-.6-.32h0c-1.21 1.04-1.95 2.51-2.06 4.1 .2-.08.41-.14.637-.2Zm5.34 1.63v0c.55 0 1-.45 1-1 0-.56-.45-1-1-1v0c-.56 0-1 .44-1 1 0 .55.44 1 1 1Z"/><path d="M8 15v0c-3.87 0-7-3.14-7-7 0-3.87 3.13-7 7-7v0c3.86 0 7 3.13 7 7 0 3.86-3.14 7-7 7Zm0 1v0c4.41 0 8-3.59 8-8 0-4.42-3.59-8-8-8v0C3.58 0 0 3.58 0 8c0 4.41 3.58 8 8 8Z"/></g></svg>