<svg viewBox="0 0 16 16" xmlns="http://www.w3.org/2000/svg"><g><path d="M8.79 5.09v0c-.23-.17-.54-.11-.7.11 -.07.08-.1.18-.1.28v1.88L4.78 5.067v0c-.23-.17-.54-.11-.7.11 -.07.08-.1.18-.1.28v5 0c0 .27.22.49.5.49 .1-.01.2-.04.28-.1l3.21-2.3v1.88 0c0 .27.22.49.5.49 .1-.01.2-.04.28-.1l3.5-2.5v0c.22-.17.27-.48.11-.7 -.04-.05-.08-.09-.12-.12l-3.5-2.5Z"/><path d="M0 4v0c0-1.11.89-2 2-2h12v0c1.1 0 2 .89 2 2v8 0c0 1.1-.9 2-2 2H2v0c-1.11 0-2-.9-2-2V4Zm15 0v0c0-.56-.45-1-1-1H2v0c-.56 0-1 .44-1 1v8 0c0 .55.44 1 1 1h12v0c.55 0 1-.45 1-1V4Z"/></g></svg>