<svg viewBox="0 0 16 16" xmlns="http://www.w3.org/2000/svg"><path d="M9.293 0H4v0C2.89 0 2 .89 2 2v12 0c0 1.1.89 2 2 2h8v0c1.1 0 2-.9 2-2V4.7v-.001c-.01-.27-.11-.52-.3-.71L9.99.28V.28c-.19-.19-.45-.3-.71-.3Zm.2 3.5v-2l3 3h-2v0c-.56 0-1-.45-1-1Zm1.5 3.14v1.75l-2 .5v3.61c0 .49-.31.88-.67 1.12 -.37.24-.84.37-1.34.37 -.5 0-.98-.14-1.338-.38 -.36-.24-.67-.63-.67-1.13 0-.5.3-.89.66-1.13 .36-.25.83-.38 1.338-.38 .35 0 .7.06 1 .19V6.854H7.97c0-.46.31-.86.75-.97l1-.25v0c.53-.14 1.07.19 1.21.72 .01.07.02.16.02.24Z"/></svg>