<svg viewBox="0 0 16 16" xmlns="http://www.w3.org/2000/svg"><path d="M9.293 0H4v0C2.89 0 2 .89 2 2v12 0c0 1.1.89 2 2 2h8v0c1.1 0 2-.9 2-2V4.7v-.001c-.01-.27-.11-.52-.3-.71L9.99.28V.28c-.19-.19-.45-.3-.71-.3Zm.2 3.5v-2l3 3h-2v0c-.56 0-1-.45-1-1Zm-2.5 2.75v0c0 .41-.34.75-.75.75 -.42 0-.75-.34-.75-.75v0c0-.42.33-.75.75-.75 .41 0 .75.33.75.75Zm-.87 1.54l1.33.88L9.3 6.81v0c.07-.08.19-.1.28-.05l1.88.97v1.75 0c0 .27-.23.5-.5.5h-6v0c-.28 0-.5-.23-.5-.5v-.5s1.54-1.274 1.63-1.21ZM4.98 10.99h6v0c.27 0 .5.22.5.5 0 .27-.23.5-.5.5h-6v0c-.28 0-.5-.23-.5-.5 0-.28.22-.5.5-.5Zm0 2h3v0c.27 0 .5.22.5.5 0 .27-.23.5-.5.5h-3v0c-.28 0-.5-.23-.5-.5 0-.28.22-.5.5-.5Z"/></svg>