<svg viewBox="0 0 16 16" xmlns="http://www.w3.org/2000/svg"><g><path d="M5.5 7v0c-.28 0-.5.22-.5.5 0 .27.22.5.5.5h5v0c.27 0 .5-.23.5-.5 0-.28-.23-.5-.5-.5h-5ZM5 9.5v0c0-.28.22-.5.5-.5h5v0c.27 0 .5.22.5.5 0 .27-.23.5-.5.5h-5v0c-.28 0-.5-.23-.5-.5Zm0 2v0c0-.28.22-.5.5-.5h2v0c.27 0 .5.22.5.5 0 .27-.23.5-.5.5h-2v0c-.28 0-.5-.23-.5-.5Z"/><path d="M9.5 0H4v0C2.89 0 2 .89 2 2v12 0c0 1.1.89 2 2 2h8v0c1.1 0 2-.9 2-2V4.5L9.5 0Zm0 1v2 0c0 .82.67 1.5 1.5 1.5h2V14v0c0 .55-.45 1-1 1H4v0c-.56 0-1-.45-1-1V2v0c0-.56.44-1 1-1h5.5Z"/></g></svg>