<svg viewBox="0 0 16 16" xmlns="http://www.w3.org/2000/svg"><path fill-rule="evenodd" d="M14 4.5V11h-1V4.5h-2v0c-.83 0-1.5-.68-1.5-1.5V1H4v0c-.56 0-1 .44-1 1v9H2V2v0c0-1.11.89-2 2-2h5.5L14 4.5ZM7.86 14.841h0c.01.31.15.61.4.82 .13.1.29.19.47.25 .19.06.41.09.66.09 .33 0 .62-.06.85-.16 .23-.11.41-.26.54-.44v0c.12-.2.19-.43.18-.66 0-.23-.05-.41-.14-.56v-.001c-.1-.15-.23-.28-.375-.36v0c-.18-.1-.37-.17-.57-.21l-.63-.15v0c-.15-.03-.29-.09-.41-.18v0c-.1-.08-.15-.19-.15-.3 0-.16.06-.29.18-.39 .125-.11.29-.16.51-.16 .14 0 .26.02.37.06v0c.09.03.17.1.24.18v0c.06.07.1.16.12.25h.75v0c-.02-.21-.09-.4-.2-.57v0c-.13-.18-.3-.33-.5-.41l-.001 0c-.25-.11-.52-.16-.78-.16 -.3 0-.56.05-.78.15 -.23.09-.4.24-.53.42s-.19.39-.19.63c0 .2.04.37.12.52 .08.14.19.27.35.36 .15.09.33.16.54.21l.61.14c.2.04.36.11.46.19h0c.1.07.15.19.15.32v0c0 .1-.03.2-.09.29v0c-.07.08-.16.15-.26.19 -.12.04-.25.07-.42.07 -.12 0-.23-.02-.32-.04v0c-.09-.03-.18-.07-.25-.12v0c-.14-.09-.23-.23-.26-.39h-.77Zm-3.726-2.91h.89l-1.274 2L5 15.921h-.91l-.85-1.42H3.2l-.86 1.41h-.87l1.24-2.016 -1.228-1.99h.93l.83 1.43h.03l.823-1.44Zm1.923 3.32H7.75v.67h-2.49v-4h.79v3.32Zm7.63-3.33h.89l-1.28 2 1.25 1.99h-.91l-.85-1.42h-.04l-.86 1.41h-.87l1.24-2.016 -1.23-1.99h.93l.83 1.43h.03l.82-1.44Z"/></svg>