<svg viewBox="0 0 16 16" xmlns="http://www.w3.org/2000/svg"><g><path d="M7 6v0c0-.56.44-1 1-1 .55 0 1 .44 1 1v1H7V6ZM6 8.3c0-.05.02-.11.1-.18H6.09c.11-.09.25-.13.39-.125h3v0c.14-.01.28.04.39.125 .08.06.1.13.1.17v2.4c0 .04-.02.1-.11.17l-.001-.001c-.12.08-.26.12-.4.125h-3 -.001c-.15 0-.29-.05-.4-.125 -.09-.07-.11-.14-.11-.18v-2.4Z"/><path d="M12 0H4v0C2.89 0 2 .89 2 2v12 0c0 1.1.89 2 2 2h8v0c1.1 0 2-.9 2-2V2v0c0-1.11-.9-2-2-2Zm-2 6v1.07c.54.16 1 .59 1 1.22v2.4c0 .81-.79 1.3-1.5 1.3h-3c-.72 0-1.5-.484-1.5-1.3v-2.4c0-.63.46-1.06 1-1.23V5.98v0c0-1.11.89-2 2-2 1.1 0 2 .89 2 2Z"/></g></svg>