<svg viewBox="0 0 16 16" xmlns="http://www.w3.org/2000/svg"><g><path d="M10.3 3.13v0c.54-.11 1.06.24 1.17.78 .01.06.01.12.01.19v1.8l-2.5.5v5.09c0 .49-.31.88-.67 1.12 -.37.24-.84.37-1.34.37 -.5 0-.98-.14-1.338-.38 -.36-.24-.67-.63-.67-1.13 0-.5.3-.89.66-1.13 .36-.25.83-.38 1.338-.38 .35 0 .7.06 1 .19V4.36v0c0-.48.33-.89.8-.98l1.5-.3Z"/><path d="M4 0v0C2.89 0 2 .89 2 2v12 0c0 1.1.89 2 2 2h8v0c1.1 0 2-.9 2-2V2v0c0-1.11-.9-2-2-2H4Zm0 1h8v0c.55 0 1 .44 1 1v12 0c0 .55-.45 1-1 1H4v0c-.56 0-1-.45-1-1V2v0c0-.56.44-1 1-1Z"/></g></svg>