<svg viewBox="0 0 16 16" xmlns="http://www.w3.org/2000/svg"><path fill-rule="evenodd" d="M14 4.5V14v0c0 1.1-.9 2-2 2v-1 0c.55 0 1-.45 1-1V4.5h-2v0c-.83 0-1.5-.68-1.5-1.5V1H4v0c-.56 0-1 .44-1 1v9H2V2v0c0-1.11.89-2 2-2h5.5L14 4.5ZM0 14.841h0c.01.31.15.61.4.82 .13.1.28.19.478.25 .19.06.41.09.66.09 .33 0 .62-.06.85-.16 .23-.11.41-.26.54-.44h0c.12-.2.19-.43.18-.66 0-.23-.05-.41-.14-.56h-.001c-.1-.15-.23-.28-.375-.36h-.001c-.18-.1-.37-.17-.57-.21l-.621-.15 -.001 0c-.15-.03-.29-.09-.41-.18v0c-.1-.08-.15-.19-.15-.3 0-.16.06-.29.18-.39 .125-.11.29-.16.51-.16 .14 0 .266.02.37.06h0c.09.03.17.1.24.18v-.001c.06.07.1.16.12.25H3v-.001c-.02-.21-.09-.4-.2-.57v0c-.13-.18-.3-.33-.5-.41v0c-.25-.11-.52-.16-.78-.16 -.3 0-.552.05-.776.15 -.23.09-.4.24-.528.42 -.127.18-.19.39-.19.63 0 .2.04.37.123.52 .08.14.199.27.35.36 .15.09.33.16.54.21l.61.14c.2.04.36.11.46.19l-.001-.001c.1.07.15.19.15.32v0c0 .1-.03.2-.09.29h-.001c-.07.08-.16.15-.26.19 -.12.04-.25.07-.42.07 -.12 0-.23-.02-.32-.04h0c-.09-.03-.18-.07-.25-.12v0c-.14-.09-.23-.23-.26-.39h-.77Zm4.575 1.09h.952l1.327-4h-.88l-.89 3.138h-.04l-.9-3.138h-.92l1.33 4Zm5.483-3.3c.07.15.12.31.14.49h-.78v0c-.02-.09-.06-.18-.1-.25v0c-.05-.08-.11-.14-.17-.19v0c-.08-.06-.16-.1-.24-.13v0c-.1-.04-.2-.05-.3-.05 -.29 0-.51.1-.67.3 -.16.2-.24.484-.24.85v.49c0 .23.03.44.09.61v0c.05.16.16.3.3.41v-.001c.15.1.33.15.51.14v0c.15 0 .31-.03.45-.1h-.001c.11-.06.2-.16.27-.27 .06-.11.09-.23.09-.37v-.26h-.83v-.59h1.57v.798c0 .19-.04.37-.1.55v-.001c-.07.17-.17.32-.3.45h0c-.15.13-.31.24-.5.31 -.2.07-.43.11-.7.11H8.54c-.26 0-.52-.04-.76-.14h0c-.21-.09-.39-.22-.54-.38h0c-.15-.17-.26-.37-.32-.58v0c-.08-.25-.11-.5-.11-.75v-.51c0-.36.06-.68.19-.95 .13-.28.32-.49.58-.64 .25-.16.56-.23.92-.23 .23 0 .45.03.63.1 .18.06.34.15.48.27 .13.11.23.25.31.4Z"/></svg>