<svg viewBox="0 0 16 16" xmlns="http://www.w3.org/2000/svg"><path fill-rule="evenodd" d="M14 4.5V11h-1V4.5h-2v0c-.83 0-1.5-.68-1.5-1.5V1H4v0c-.56 0-1 .44-1 1v9H2V2v0c0-1.11.89-2 2-2h5.5L14 4.5ZM1.41 15.29l-.001-.001c-.07-.15-.11-.3-.12-.45h.76v0c.02.15.12.29.25.38H2.29c.07.05.16.09.25.11 .09.02.2.04.31.04 .16 0 .3-.03.41-.07v-.001c.1-.04.19-.11.25-.2H3.51c.05-.09.08-.19.08-.29v0c0-.13-.06-.25-.16-.33 -.11-.08-.26-.15-.47-.2l-.62-.15H2.34c-.2-.05-.38-.12-.54-.22h0c-.15-.09-.27-.22-.36-.37H1.44c-.09-.17-.13-.35-.13-.53 0-.25.06-.46.19-.64 .12-.19.3-.33.528-.43 .22-.1.484-.15.77-.15 .3 0 .56.05.77.15 .21.1.38.23.5.41 .12.17.18.359.2.56h-.75v0c-.02-.1-.06-.19-.12-.26H3.4c-.07-.08-.16-.15-.25-.19v0c-.12-.05-.25-.08-.37-.07 -.22 0-.39.05-.52.15v0c-.12.09-.19.23-.19.38 0 .12.04.22.14.3h0c.11.08.25.14.4.17l.62.14c.21.05.4.12.56.21 .16.09.28.21.375.35 .09.14.13.33.13.56 0 .24-.07.46-.19.65v0c-.14.19-.33.34-.54.43 -.24.1-.52.15-.86.15 -.26 0-.476-.03-.665-.09v0c-.18-.06-.34-.14-.478-.26h0c-.13-.11-.23-.24-.29-.375Zm4.188-.39l-.32 1.02h-.8l1.34-4h.92l1.33 4h-.84l-.32-1.03h-1.34Zm1.178-.59l-.49-1.62h-.04l-.49 1.61h1.01Zm1.35.52v0c.01.31.15.61.4.82 .13.1.28.19.47.25 .19.06.41.09.66.09 .33 0 .62-.06.85-.16 .23-.11.41-.26.53-.44 .125-.19.18-.41.18-.66 0-.23-.05-.41-.14-.56v0c-.1-.15-.23-.28-.375-.36v-.001c-.18-.1-.37-.17-.57-.21l-.63-.15v0c-.15-.03-.29-.09-.41-.18h0c-.1-.08-.15-.19-.15-.3 0-.16.06-.29.18-.39 .12-.11.29-.16.51-.16 .14 0 .26.02.37.06v0c.09.03.18.1.24.18v0c.06.07.1.16.12.25h.75v0c-.02-.21-.09-.4-.2-.57v0c-.13-.18-.3-.33-.5-.41v0c-.25-.11-.52-.16-.78-.16 -.3 0-.56.05-.78.15 -.23.09-.4.24-.53.42s-.19.39-.19.63c0 .2.04.37.12.52 .08.14.2.27.35.36 .15.09.33.16.53.21l.61.14c.2.04.36.11.46.19h0c.1.07.15.19.15.32v0c0 .1-.03.2-.09.29v-.001c-.07.08-.16.15-.26.19 -.12.04-.25.07-.42.07 -.12 0-.23-.02-.32-.04l0-.001c-.09-.03-.18-.07-.25-.12h0c-.14-.09-.23-.23-.26-.39h-.77Zm3.503.44v-.001c-.07-.15-.11-.3-.12-.45h.76 0c.02.15.12.29.25.38 .07.04.15.08.25.11 .09.02.2.04.31.04 .16 0 .3-.03.41-.07v0c.1-.04.19-.11.25-.2h-.001c.05-.09.08-.19.08-.29v0c0-.13-.06-.25-.16-.33 -.11-.08-.26-.15-.47-.2l-.62-.15v0c-.2-.05-.38-.12-.54-.22v0c-.15-.1-.27-.22-.36-.37v-.001c-.09-.17-.13-.35-.13-.53 0-.25.06-.46.19-.64 .12-.19.3-.33.52-.43 .22-.1.48-.15.77-.15 .3 0 .56.05.77.15 .21.1.38.23.5.41 .12.17.18.359.2.56h-.75 0c-.02-.1-.06-.19-.12-.26v0c-.07-.08-.16-.15-.25-.19l-.001 0c-.12-.05-.25-.08-.37-.07 -.22 0-.39.05-.52.15v0c-.12.09-.19.23-.19.38 0 .12.04.22.14.3v0c.11.08.25.14.4.17l.62.14c.21.05.4.12.56.21 .16.09.28.21.375.35 .09.14.13.33.13.56 0 .24-.07.46-.19.65v0c-.14.19-.33.34-.54.43 -.24.1-.52.15-.86.15h0c-.23 0-.45-.03-.67-.09v0c-.18-.06-.34-.14-.48-.26v0c-.13-.11-.23-.24-.29-.38Z"/></svg>