<svg viewBox="0 0 16 16" xmlns="http://www.w3.org/2000/svg"><g><path d="M8 5v0c.55 0 1 .44 1 1v1H7V6v0c0-.56.44-1 1-1Zm2 2.07V5.99v0c0-1.11-.9-2-2-2 -1.11 0-2 .89-2 2v1.07c-.54.16-1 .59-1 1.22v2.4c0 .81.78 1.3 1.5 1.3h3c.71 0 1.5-.49 1.5-1.3v-2.4c0-.63-.46-1.06-1-1.23ZM6.1 8.11v0c.11-.09.25-.13.39-.13h3v0c.14-.01.28.04.39.12 .08.06.1.13.1.17v2.4c0 .04-.02.1-.11.17h-.001c-.12.08-.26.12-.4.12h-3H6.46c-.15 0-.29-.05-.4-.125 -.09-.07-.11-.14-.11-.18v-2.4c0-.05.02-.11.1-.18Z"/><path d="M4 0v0C2.89 0 2 .89 2 2v12 0c0 1.1.89 2 2 2h8v0c1.1 0 2-.9 2-2V2v0c0-1.11-.9-2-2-2H4Zm0 1h8v0c.55 0 1 .44 1 1v12 0c0 .55-.45 1-1 1H4v0c-.56 0-1-.45-1-1V2v0c0-.56.44-1 1-1Z"/></g></svg>