<svg viewBox="0 0 16 16" xmlns="http://www.w3.org/2000/svg"><g><path d="M8.5 9.43v-.94h-1v.93h-.001c-.01.08-.02.16-.03.24l-.4 1.59 .93.62 .93-.62 -.4-1.6v0c-.02-.08-.03-.17-.03-.25Z"/><path d="M4 0h8v0c1.1 0 2 .89 2 2v12 0c0 1.1-.9 2-2 2H4v0c-1.11 0-2-.9-2-2V2v0c0-1.11.89-2 2-2Zm2.5 8.5v.93l-.4 1.59v0c-.11.4.06.83.41 1.07l.93.62v0c.33.22.77.22 1.1 0l.93-.62v0c.35-.24.51-.67.41-1.08l-.4-1.6v-.94 0c0-.56-.45-1-1-1h-1v0c-.56 0-1 .44-1 1Zm1-5.5h-1v1h1v1h-1v1h1v1H9V6H8V5h1V4H8V3h1V2H8V1H6.5v1h1v1Z"/></g></svg>