<svg viewBox="0 0 16 16" xmlns="http://www.w3.org/2000/svg"><path d="M12 0H4v0C2.89 0 2 .89 2 2v12 0c0 1.1.89 2 2 2h8v0c1.1 0 2-.9 2-2V2v0c0-1.11-.9-2-2-2ZM5 4h6v0c.27 0 .5.22.5.5 0 .27-.23.5-.5.5H5v0c-.28 0-.5-.23-.5-.5 0-.28.22-.5.5-.5Zm-.5 2.5v0c0-.28.22-.5.5-.5h6v0c.27 0 .5.22.5.5 0 .27-.23.5-.5.5H5v0c-.28 0-.5-.23-.5-.5ZM5 8h6v0c.27 0 .5.22.5.5 0 .27-.23.5-.5.5H5v0c-.28 0-.5-.23-.5-.5 0-.28.22-.5.5-.5Zm0 2h3v0c.27 0 .5.22.5.5 0 .27-.23.5-.5.5H5v0c-.28 0-.5-.23-.5-.5 0-.28.22-.5.5-.5Z"/></svg>