<svg viewBox="0 0 16 16" xmlns="http://www.w3.org/2000/svg"><g><path d="M8 4v0c.27 0 .5.22.5.5V6H10v0c.27 0 .5.22.5.5 0 .27-.23.5-.5.5H8.5v1.5 0c0 .27-.23.5-.5.5 -.28 0-.5-.23-.5-.5V7H6v0c-.28 0-.5-.23-.5-.5 0-.28.22-.5.5-.5h1.5V4.5v0c0-.28.22-.5.5-.5Zm-2.5 6.5v0c0-.28.22-.5.5-.5h4v0c.27 0 .5.22.5.5 0 .27-.23.5-.5.5H6v0c-.28 0-.5-.23-.5-.5Z"/><path d="M2 2v0c0-1.11.89-2 2-2h8v0c1.1 0 2 .89 2 2v12 0c0 1.1-.9 2-2 2H4v0c-1.11 0-2-.9-2-2V2Zm10-1H4v0c-.56 0-1 .44-1 1v12 0c0 .55.44 1 1 1h8v0c.55 0 1-.45 1-1V2v0c0-.56-.45-1-1-1Z"/></g></svg>