<svg viewBox="0 0 16 16" xmlns="http://www.w3.org/2000/svg"><g><path d="M14 4.5V14v0c0 1.1-.9 2-2 2H4v0c-1.11 0-2-.9-2-2V2v0c0-1.11.89-2 2-2h5.5L14 4.5Zm-3 0v0c-.83 0-1.5-.68-1.5-1.5V1H4v0c-.56 0-1 .44-1 1v12 0c0 .55.44 1 1 1h8v0c.55 0 1-.45 1-1V4.5h-2Z"/><path d="M8.64 6.646v0c.19-.2.51-.2.7-.01 0 0 0 0 0 0l2 2v0c.19.19.19.51 0 .7 -.01 0-.01 0-.01 0l-2 2v0c-.2.19-.52.19-.71-.001 -.2-.2-.2-.52 0-.71l1.64-1.65 -1.65-1.65v0c-.2-.2-.2-.52-.01-.71 0-.01 0-.01 0-.01Zm-1.3 0v0c-.2-.2-.52-.2-.71-.01 -.01 0-.01 0-.01 0l-2 2v0c-.2.19-.2.51-.01.7 0 0 0 0 0 0l2 2h0c.19.19.51.19.7-.001 .19-.2.19-.52 0-.71l-1.65-1.65L7.3 7.329v0c.19-.2.19-.52 0-.71 -.01-.01-.01-.01-.01-.01Z"/></g></svg>