<svg viewBox="0 0 16 16" xmlns="http://www.w3.org/2000/svg"><g><path d="M5.884 6.68v0c-.18-.22-.49-.26-.71-.09 -.22.17-.26.48-.09.7 0 0 .01.01.01.01l2.23 2.68 -2.24 2.68h0c-.18.21-.14.53.08.7 .2.16.51.13.68-.07l2.11-2.54 2.11 2.54v0c.17.21.49.24.7.06 .21-.18.24-.5.06-.71L8.58 9.96l2.23-2.68v0c.17-.22.13-.54-.09-.71 -.21-.17-.52-.14-.69.06L7.91 9.16 5.79 6.62Z"/><path d="M14 14V4.5L9.5 0H4v0C2.89 0 2 .89 2 2v12 0c0 1.1.89 2 2 2h8v0c1.1 0 2-.9 2-2ZM9.5 3v0c0 .82.67 1.5 1.5 1.5h2V14v0c0 .55-.45 1-1 1H4v0c-.56 0-1-.45-1-1V2v0c0-.56.44-1 1-1h5.5v2Z"/></g></svg>