<svg viewBox="0 0 16 16" xmlns="http://www.w3.org/2000/svg"><path fill-rule="evenodd" d="M14 4.5V14v0c0 1.1-.9 2-2 2h-1v-1h1v0c.55 0 1-.45 1-1V4.5h-2v0c-.83 0-1.5-.68-1.5-1.5V1H4v0c-.56 0-1 .44-1 1v9H2V2v0c0-1.11.89-2 2-2h5.5L14 4.5ZM3.39 14.841h0c.01.31.15.61.4.82 .13.1.28.19.47.25 .19.06.41.09.665.09 .33 0 .62-.06.859-.16 .23-.11.41-.26.53-.44 .125-.19.18-.41.18-.66 0-.23-.05-.41-.14-.56v0c-.1-.15-.23-.28-.38-.36v0c-.18-.1-.37-.17-.57-.21l-.63-.15v0c-.15-.03-.29-.09-.41-.18v0c-.1-.08-.15-.19-.15-.3 0-.16.06-.29.18-.39 .125-.11.29-.16.51-.16 .14 0 .266.02.37.06l0-.001c.09.03.18.1.24.18v-.001c.06.07.1.16.12.25h.75v-.001c-.02-.21-.09-.4-.2-.57h0c-.13-.18-.3-.33-.5-.41v0c-.25-.11-.52-.16-.78-.16 -.3 0-.56.05-.78.15 -.23.09-.4.24-.53.42s-.19.39-.19.63c0 .2.04.37.12.52 .08.14.2.27.35.36 .15.09.33.16.53.21l.61.14c.2.04.36.11.46.19h0c.1.07.15.19.15.32h-.001c0 .1-.03.2-.09.29h-.001c-.07.08-.16.15-.26.19 -.12.04-.25.07-.42.07 -.12 0-.23-.02-.32-.04v-.001c-.09-.03-.18-.07-.25-.12h-.001c-.14-.09-.23-.23-.26-.39h-.77Zm-2.6-1.15c0-.25.03-.46.1-.64H.88c.05-.16.16-.3.3-.4H1.18c.14-.1.3-.15.47-.14 .15 0 .28.03.39.09l-.001 0c.11.06.2.15.27.26v0c.06.11.11.24.12.38h.76v-.08 0c-.02-.38-.19-.73-.47-.97h0c-.15-.13-.31-.22-.49-.28h0c-.2-.07-.4-.1-.61-.1 -.36 0-.66.07-.911.22 -.25.14-.44.359-.58.63 -.13.27-.2.6-.2.97v.49c0 .37.064.7.193.97 .131.27.32.48.57.62 .25.14.55.21.91.21 .29 0 .554-.06.78-.17 .23-.11.41-.26.55-.46v0c.13-.2.21-.44.22-.68v-.08h-.77v0c-.01.12-.05.25-.12.36h0c-.07.1-.17.19-.28.25v0c-.13.06-.27.09-.401.08v0c-.17 0-.34-.05-.48-.14h0c-.14-.1-.25-.24-.3-.4h0c-.08-.21-.11-.42-.11-.63v-.5Zm5.974 1.59v-.001c-.07-.15-.11-.3-.12-.45h.76H7.4c.02.15.12.29.25.38 .07.04.15.08.25.11 .09.02.2.04.31.04 .16 0 .3-.03.41-.07v0c.1-.04.19-.11.25-.2v0c.05-.09.08-.19.08-.29v0c0-.13-.06-.25-.16-.33 -.11-.08-.26-.15-.47-.2l-.62-.15v0c-.2-.05-.38-.12-.54-.22v0c-.15-.1-.27-.22-.36-.37v0c-.09-.17-.13-.35-.13-.53 0-.25.06-.46.19-.64 .12-.19.3-.33.52-.43 .22-.1.484-.15.77-.15 .3 0 .56.05.77.15 .21.1.38.23.5.41 .12.17.18.359.2.56h-.75v0c-.02-.1-.06-.19-.12-.26l0-.001c-.07-.08-.16-.15-.25-.19v0c-.12-.05-.25-.08-.37-.07 -.22 0-.39.05-.52.15H7.61c-.12.09-.19.23-.19.38 0 .12.04.22.14.3h0c.11.08.25.14.4.17l.62.14c.21.05.4.12.56.21 .16.09.28.21.375.35 .09.14.13.33.13.56 0 .24-.07.46-.19.65v-.001c-.14.19-.33.34-.54.43 -.24.1-.52.15-.86.15 -.26 0-.48-.03-.67-.09h0c-.18-.06-.34-.14-.48-.26h0c-.13-.11-.23-.24-.29-.375Z"/></svg>