<svg viewBox="0 0 16 16" xmlns="http://www.w3.org/2000/svg"><path fill-rule="evenodd" d="M14 4.5V14v0c0 1.1-.9 2-2 2v-1 0c.55 0 1-.45 1-1V4.5h-2v0c-.83 0-1.5-.68-1.5-1.5V1H4v0c-.56 0-1 .44-1 1v9H2V2v0c0-1.11.89-2 2-2h5.5L14 4.5ZM.7 15.849v-2.66h.03l.95 2.16H2.2l.94-2.16h.03v2.66h.71v-4h-.8l-1.14 2.596h-.03L.77 11.849h-.81v3.99H.66Zm5.27-4h-1.6v3.99h.79v-1.35h.8c.28 0 .53-.06.73-.18 .2-.12.35-.28.46-.48v-.001c.1-.21.16-.45.16-.68 0-.25-.06-.48-.16-.68v0c-.11-.2-.27-.37-.46-.48l-.001 0c-.23-.13-.48-.19-.74-.18Zm.54 1.33l-.001-.001c0 .13-.03.26-.09.38v0c-.06.1-.14.18-.24.24v0c-.12.05-.25.08-.375.08h-.66v-1.41h.66c.21 0 .39.06.51.18s.18.29.18.52Zm1.5-.04c.266-.44.53-.87.79-1.31h1.14v2.62h.49v.63h-.49v.74h-.75v-.75H7.25v-.65c.23-.44.484-.88.74-1.31Zm-.03 1.298v.02h1.21v-2.03h-.05c-.21.31-.41.64-.61.984 -.2.33-.391.67-.58 1.01Z"/></svg>