<svg viewBox="0 0 16 16" xmlns="http://www.w3.org/2000/svg"><g><path d="M5 6v0c-.26 0-.47.18-.5.43l-.5 4v0c-.04.27.16.52.43.55 .02 0 .04 0 .06 0h3v2.016c-.87.05-1.5.25-1.5.484 0 .27.89.5 2 .5 1.1 0 2-.23 2-.5 0-.24-.64-.43-1.5-.484V10.98h3v0c.27-.01.49-.23.49-.51 -.01-.03-.01-.05-.01-.07l-.5-4h0c-.04-.26-.25-.44-.5-.44h-6Zm2 3.78V7.22c0-.1.1-.16.19-.11l2.13 1.27v0c.05.03.07.11.04.17 -.02.01-.03.03-.05.04L7.18 9.87v0c-.06.03-.14.01-.18-.05 -.02-.03-.02-.05-.02-.07Z"/><path d="M14 14V4.5L9.5 0H4v0C2.89 0 2 .89 2 2v12 0c0 1.1.89 2 2 2h8v0c1.1 0 2-.9 2-2ZM9.5 3v0c0 .82.67 1.5 1.5 1.5h2V14v0c0 .55-.45 1-1 1H4v0c-.56 0-1-.45-1-1V2v0c0-.56.44-1 1-1h5.5v2Z"/></g></svg>