<svg viewBox="0 0 16 16" xmlns="http://www.w3.org/2000/svg"><path fill-rule="evenodd" d="M14 4.5V14v0c0 1.1-.9 2-2 2h-.5v-1h.5v0c.55 0 1-.45 1-1V4.5h-2v0c-.83 0-1.5-.68-1.5-1.5V1H4v0c-.56 0-1 .44-1 1v9H2V2v0c0-1.11.89-2 2-2h5.5L14 4.5ZM3.11 14.841h0c.01.31.15.61.4.82 .13.1.28.19.47.25 .19.06.41.09.66.09 .33 0 .62-.06.85-.16 .23-.11.41-.26.54-.44v0c.12-.2.19-.43.18-.66 0-.23-.05-.41-.14-.56v0c-.1-.15-.23-.28-.38-.36H5.69c-.18-.1-.37-.17-.57-.21l-.63-.15v0c-.15-.03-.29-.09-.41-.18v0c-.1-.08-.15-.19-.15-.3 0-.16.06-.29.18-.39 .125-.11.29-.16.51-.16 .14 0 .266.02.37.06v0c.09.03.17.1.24.18v-.001c.06.07.1.16.12.25h.75v-.001c-.02-.21-.09-.4-.2-.57v0c-.13-.18-.3-.33-.5-.41v0c-.25-.11-.52-.16-.78-.16 -.3 0-.56.05-.78.15 -.23.09-.4.24-.528.42 -.13.18-.19.39-.19.63 0 .2.04.37.12.52 .08.14.19.27.351.36 .15.09.33.16.54.21l.61.14c.2.04.36.11.46.19L5.2 14.39c.1.07.15.19.15.32H5.35c0 .1-.03.2-.09.29H5.26c-.07.08-.16.15-.26.19 -.12.04-.25.07-.42.07 -.12 0-.23-.02-.32-.04v0c-.09-.03-.18-.07-.25-.12v0c-.14-.09-.23-.23-.26-.39h-.77Zm-1.52-2.91h-1.6v4h.79v-1.343h.8c.28 0 .53-.06.73-.18 .2-.12.35-.28.46-.48l-.001 0c.1-.21.16-.45.16-.68 0-.25-.06-.48-.16-.68h-.001c-.11-.2-.27-.37-.46-.48 -.2-.12-.45-.18-.732-.18Zm.54 1.33v0c0 .13-.03.26-.09.38v0c-.06.1-.14.18-.24.24l-.001 0c-.12.05-.25.08-.38.08H.76v-1.41h.66c.21 0 .389.06.512.18 .12.12.18.29.18.52Zm4.609 2.66v-4h1.45c.4 0 .74.07 1 .23 .26.15.46.38.59.68 .13.29.19.65.19 1.07 0 .42-.07.78-.2 1.08 -.13.3-.33.53-.6.68 -.27.15-.6.23-1 .23H6.71Zm1.35-3.36h-.57v2.7h.56c.18 0 .34-.03.48-.09v-.001c.13-.06.24-.14.33-.26v0c.09-.13.16-.27.19-.43 .04-.17.06-.37.06-.6v-.001c0-.26-.04-.52-.12-.76v0c-.07-.19-.19-.35-.36-.46 -.16-.11-.36-.16-.609-.16Z"/></svg>