<svg viewBox="0 0 16 16" xmlns="http://www.w3.org/2000/svg"><path fill-rule="evenodd" d="M14 4.5V14v0c0 1.1-.9 2-2 2v-1 0c.55 0 1-.45 1-1V4.5h-2v0c-.83 0-1.5-.68-1.5-1.5V1H4v0c-.56 0-1 .44-1 1v9H2V2v0c0-1.11.89-2 2-2h5.5L14 4.5ZM.7 15.849v-2.66h.03l.95 2.16H2.2l.94-2.16h.03v2.66h.71v-4h-.8l-1.14 2.596h-.03L.77 11.849h-.81v3.99H.66Zm5.237-4c-.27.43-.53.86-.79 1.3 -.27.43-.52.87-.75 1.31v.64h1.93v.74h.74v-.75h.49v-.64h-.49v-2.62h-1.14Zm-.82 2.62v-.03c.18-.34.37-.68.57-1.02 .2-.34.4-.67.6-.984h.04v2.02H5.11Zm2.89-2.62h1.6c.28 0 .53.06.73.17 .2.11.35.27.46.47 .1.2.15.42.15.67 0 .25-.06.47-.16.67 -.11.19-.26.35-.47.47v-.001c-.23.12-.48.18-.74.17h-.81v1.34h-.79v-4Zm2.06 1.71v0c.05-.12.08-.25.08-.39 0-.23-.07-.4-.19-.53 -.13-.13-.3-.19-.52-.19h-.66v1.4h.66 -.001c.12 0 .25-.03.37-.09H9.81c.1-.06.18-.14.23-.24Z"/></svg>