<svg viewBox="0 0 16 16" xmlns="http://www.w3.org/2000/svg"><path fill-rule="evenodd" d="M14 4.5V11h-1V4.5h-2v0c-.83 0-1.5-.68-1.5-1.5V1H4v0c-.56 0-1 .44-1 1v9H2V2v0c0-1.11.89-2 2-2h5.5L14 4.5ZM4.151 15.29l-.001-.001c-.07-.15-.11-.3-.12-.45h.76v-.001c.02.15.12.29.25.38 .07.04.15.08.25.11 .09.02.2.04.31.04 .16 0 .3-.03.41-.07L6 15.297c.1-.04.19-.11.25-.2v0c.05-.09.08-.19.08-.29v0c0-.13-.06-.25-.16-.33 -.11-.08-.26-.15-.47-.2l-.62-.15v0c-.2-.05-.38-.12-.54-.22v0c-.15-.09-.27-.22-.36-.37h0c-.09-.17-.13-.35-.13-.53 0-.25.06-.46.19-.64 .12-.19.3-.33.52-.43 .22-.1.484-.15.77-.15 .3 0 .56.05.77.15 .21.1.38.23.5.41 .12.17.18.359.2.56h-.75 -.001c-.02-.1-.06-.19-.12-.26H6.13c-.07-.08-.16-.15-.25-.19H5.88c-.12-.05-.25-.08-.37-.07 -.22 0-.39.05-.52.15v0c-.12.09-.19.23-.19.38 0 .12.04.22.14.3h0c.11.08.25.14.4.17l.62.14c.21.05.4.12.56.21h0c.15.08.28.2.375.35 .09.14.13.33.13.56 0 .24-.07.46-.19.65v0c-.14.19-.33.34-.54.43 -.24.1-.52.15-.86.15 -.26 0-.476-.03-.665-.09v0c-.18-.06-.34-.14-.48-.26v0c-.13-.11-.23-.24-.29-.375Zm-3.104-.04l-.001 0c-.06-.15-.09-.31-.09-.47h.764v0c0 .09.02.18.07.27h0c.09.16.26.25.45.24 .19 0 .33-.06.42-.17 .09-.11.13-.27.13-.47V11.9h.79v2.72c0 .44-.12.77-.36 1 -.24.23-.57.34-.99.34v0c-.2 0-.39-.03-.57-.1h0c-.16-.06-.3-.15-.41-.266H1.24c-.11-.12-.19-.25-.25-.39Zm9.09-1.59v.52c0 .25-.04.47-.12.641v-.001c-.07.15-.18.29-.33.38v0c-.15.08-.31.12-.47.12v0c-.17 0-.33-.05-.47-.13v-.001c-.15-.1-.26-.23-.32-.39l-.001-.001c-.09-.21-.13-.43-.12-.641v-.53c0-.26.03-.48.11-.641v0c.06-.16.17-.3.32-.39h0c.14-.09.3-.14.47-.13 .17 0 .33.04.47.12v0c.14.09.25.22.32.38 .07.17.11.38.11.641Zm.8.51v-.52c0-.38-.07-.71-.21-.98v0c-.13-.27-.34-.49-.59-.63 -.26-.15-.56-.22-.92-.22s-.67.07-.92.22v0c-.26.14-.47.36-.59.62 -.14.27-.21.59-.21.97v.51c0 .375.06.69.2.97 .13.27.33.48.58.62 .25.14.56.21.92.21 .35 0 .66-.08.91-.22 .25-.15.45-.36.58-.63 .13-.28.2-.6.2-.98Zm1.29-.94v2.67h-.75v-4h.66l1.75 2.66h.03V11.9h.75v4h-.66l-1.77-2.676h-.04Z"/></svg>