<svg viewBox="0 0 16 16" xmlns="http://www.w3.org/2000/svg"><g><path d="M6.85 7.14v0c-.2-.2-.52-.2-.71 0 -.2.19-.2.51 0 .7l1.14 1.14 -1.15 1.14v0c-.2.19-.2.51 0 .7 .19.19.51.19.7 0L7.97 9.67l1.14 1.14h-.001c.19.19.51.19.7 0 .19-.2.19-.52 0-.71l-1.15-1.15 1.14-1.15v0c.19-.2.19-.52 0-.71 -.2-.2-.52-.2-.71-.001L7.94 8.22 6.79 7.07Z"/><path d="M14 14V4.5L9.5 0H4v0C2.89 0 2 .89 2 2v12 0c0 1.1.89 2 2 2h8v0c1.1 0 2-.9 2-2ZM9.5 3v0c0 .82.67 1.5 1.5 1.5h2V14v0c0 .55-.45 1-1 1H4v0c-.56 0-1-.45-1-1V2v0c0-.56.44-1 1-1h5.5v2Z"/></g></svg>