<svg viewBox="0 0 16 16" xmlns="http://www.w3.org/2000/svg"><path fill-rule="evenodd" d="M14 4.5V14v0c0 1.1-.9 2-2 2v-1 0c.55 0 1-.45 1-1V4.5h-2v0c-.83 0-1.5-.68-1.5-1.5V1H4v0c-.56 0-1 .44-1 1v9H2V2v0c0-1.11.89-2 2-2h5.5L14 4.5ZM0 14.841l0-.001c.01.31.15.61.4.82 .13.1.28.19.478.25 .19.06.41.09.66.09 .33 0 .62-.06.85-.16 .23-.11.41-.26.54-.44h0c.12-.2.19-.43.18-.66 0-.23-.05-.41-.14-.56v0c-.1-.15-.23-.28-.375-.36h-.001c-.18-.1-.37-.17-.57-.21l-.63-.15 -.001 0c-.15-.03-.29-.09-.405-.18H.98c-.1-.08-.15-.19-.15-.3 0-.16.06-.29.18-.39 .125-.11.29-.16.51-.16 .14 0 .266.02.37.06h0c.09.03.17.1.24.18h0c.06.07.1.16.12.25H3v-.001c-.02-.21-.09-.4-.2-.57v0c-.13-.18-.3-.33-.5-.41l-.001 0c-.25-.11-.52-.16-.78-.16 -.3 0-.552.05-.776.15 -.23.09-.4.24-.528.42 -.127.18-.19.39-.19.63 0 .2.04.37.123.52 .08.14.199.27.35.36 .15.09.33.16.54.21l.61.14c.2.04.36.11.46.19h0c.1.07.15.19.15.32 0 .11-.03.2-.09.29v-.001c-.07.08-.16.15-.26.19 -.12.04-.25.07-.42.07 -.12 0-.23-.02-.32-.04h0c-.09-.03-.18-.07-.25-.12h0c-.14-.09-.23-.23-.26-.39H-.11Zm6.878 1.48l-.51-.74c.17-.17.31-.37.4-.6 .09-.24.13-.51.13-.81v-.51c0-.38-.07-.7-.21-.97v0c-.13-.27-.34-.49-.59-.64 -.26-.15-.57-.23-.92-.23 -.351 0-.66.07-.92.22 -.26.14-.46.36-.6.63l-.001 0c-.15.3-.22.63-.21.96v.5c0 .37.06.69.2.96 .13.27.33.48.59.63h0c.27.15.59.23.91.22h0c.2 0 .4-.04.6-.1l.29.42h.78Zm-2.62-2.13v-.53c0-.25.03-.46.11-.63h-.001c.06-.17.18-.3.32-.4v0c.14-.1.31-.15.49-.14 .19 0 .35.04.49.13v0c.14.09.25.23.32.39 .07.17.11.38.11.63v.52c0 .16-.02.31-.06.44 -.04.13-.09.24-.16.34l-.11-.14 -.11-.15h-.74l.45.65v0c-.08.03-.17.04-.26.04v0c-.18 0-.35-.06-.49-.15H4.61c-.15-.11-.26-.25-.32-.41v0c-.08-.21-.12-.43-.11-.65Zm3.98 1.05h1.69v.67H7.43v-4h.79v3.32Z"/></svg>