<svg viewBox="0 0 16 16" xmlns="http://www.w3.org/2000/svg"><path d="M9.293 0H4v0C2.89 0 2 .89 2 2v12 0c0 1.1.89 2 2 2h8v0c1.1 0 2-.9 2-2V4.7v-.001c-.01-.27-.11-.52-.3-.71L9.99.28V.28c-.19-.19-.45-.3-.71-.3Zm.2 3.5v-2l3 3h-2v0c-.56 0-1-.45-1-1ZM6.84 7.146l1.14 1.14 1.14-1.15V7.13c.19-.2.51-.2.7 0 .19.19.19.51 0 .7l-1.15 1.14 1.14 1.14v0c.19.19.19.51 0 .7 -.2.19-.52.19-.71 0l-1.15-1.15 -1.146 1.14h0c-.2.19-.52.19-.71 0 -.2-.2-.2-.52-.001-.71l1.14-1.15 -1.15-1.15v0c-.2-.2-.2-.52 0-.71 .19-.2.51-.2.7 0Z"/></svg>