<svg viewBox="0 0 16 16" xmlns="http://www.w3.org/2000/svg"><path fill-rule="evenodd" d="M14 4.5V14v0c0 1.1-.9 2-2 2H8v-1h4v0c.55 0 1-.45 1-1V4.5h-2v0c-.83 0-1.5-.68-1.5-1.5V1H4v0c-.56 0-1 .44-1 1v9H2V2v0c0-1.11.89-2 2-2h5.5L14 4.5ZM3.186 15.29l-.001-.001c-.07-.15-.11-.3-.12-.45h.76 -.001c.02.15.12.29.25.38 .07.04.15.08.24.11 .09.02.2.04.31.04 .16 0 .3-.03.41-.07H5.03c.1-.04.19-.11.25-.2h0c.05-.09.08-.19.08-.29v0c0-.13-.06-.25-.16-.33 -.11-.08-.26-.15-.47-.2l-.62-.15v0c-.2-.05-.38-.12-.54-.22l0-.001c-.15-.1-.27-.22-.36-.37v0c-.09-.17-.13-.35-.13-.53 0-.25.06-.46.19-.64 .12-.19.3-.33.528-.43 .22-.1.48-.15.77-.15 .3 0 .56.05.78.15 .21.1.383.23.5.41 .12.17.18.359.2.56h-.75v0c-.02-.1-.06-.19-.12-.26v-.001c-.07-.08-.16-.15-.25-.19v0c-.12-.05-.25-.08-.37-.07 -.22 0-.39.05-.52.15H4.04c-.12.09-.19.23-.19.38 0 .12.04.22.14.3v0c.11.08.25.14.4.17l.62.14c.21.05.4.12.56.21 .16.09.28.21.375.35 .09.14.13.33.13.56 0 .24-.07.46-.19.65v0c-.14.19-.33.34-.54.43 -.24.1-.52.15-.86.15 -.26 0-.476-.03-.665-.09h0c-.18-.06-.34-.14-.48-.26v0c-.13-.11-.23-.24-.29-.375ZM.08 15.25l0 0c-.06-.15-.09-.31-.09-.47H.75h0c0 .09.02.18.07.27H.826c.09.16.26.25.45.24 .19 0 .33-.06.42-.17 .09-.11.13-.27.13-.47V11.9h.79v2.72c0 .44-.12.77-.36 1 -.24.23-.57.34-.99.34v0c-.2 0-.39-.03-.57-.1h0c-.16-.06-.3-.15-.41-.266H.28c-.11-.12-.19-.25-.25-.39Z"/></svg>