<svg viewBox="0 0 16 16" xmlns="http://www.w3.org/2000/svg"><path fill-rule="evenodd" d="M14 4.5V14v0c0 1.1-.9 2-2 2H8v-1h4v0c.55 0 1-.45 1-1V4.5h-2v0c-.83 0-1.5-.68-1.5-1.5V1H4v0c-.56 0-1 .44-1 1v9H2V2v0c0-1.11.89-2 2-2h5.5L14 4.5ZM3.62 15.29h0c-.07-.15-.11-.3-.12-.45h.76v-.001c.02.15.12.29.25.38 .07.04.15.08.24.11 .09.02.2.04.32.04 .16 0 .3-.03.41-.07v0c.1-.04.19-.11.25-.2H5.73c.05-.09.08-.19.08-.29v0c0-.13-.06-.25-.16-.33 -.11-.08-.26-.15-.47-.2l-.62-.15v0c-.2-.05-.38-.12-.54-.22V13.9c-.15-.1-.27-.22-.35-.37l-.001-.001c-.09-.17-.13-.35-.13-.53 0-.25.06-.46.19-.64 .12-.19.3-.33.528-.43 .22-.1.48-.15.77-.15 .3 0 .56.05.78.15 .21.1.383.23.5.41 .12.17.18.359.2.56h-.75v0c-.02-.1-.06-.19-.12-.26v-.001c-.07-.08-.16-.15-.25-.19h-.001c-.12-.05-.25-.08-.37-.07 -.22 0-.39.05-.52.15h0c-.12.09-.19.23-.19.38 0 .12.04.22.14.3h0c.11.08.25.14.4.17l.62.14c.21.05.4.12.56.21 .16.09.28.21.375.35 .09.14.13.33.13.56 0 .24-.07.46-.19.65v0c-.14.19-.33.34-.54.43 -.24.1-.52.15-.86.15v0c-.23 0-.45-.03-.665-.09v0c-.18-.06-.34-.14-.48-.26v0c-.13-.11-.23-.24-.29-.38ZM.9 13.06l0-.001c-.08.2-.11.41-.11.63v.49c0 .24.03.45.1.62v0c.05.15.16.29.29.39l0 0c.14.09.3.13.47.13v0c.13 0 .27-.03.4-.09v0c.11-.06.2-.15.27-.25h0c.06-.11.1-.24.11-.37h.76v.07h0c-.01.24-.09.47-.23.67 -.137.19-.32.34-.56.45v0c-.25.11-.52.16-.79.16 -.36 0-.67-.08-.914-.22h0c-.25-.15-.45-.37-.58-.63 -.13-.28-.2-.6-.2-.98v-.5c0-.38.065-.71.196-.98h0c.12-.27.32-.49.57-.64 .252-.15.55-.23.91-.23 .22 0 .42.03.6.09s.35.15.49.27H2.69c.28.24.45.59.46.96v.07h-.77v0c-.01-.14-.06-.27-.12-.38l-.001-.001c-.07-.12-.16-.21-.28-.27H1.97c-.13-.07-.26-.1-.4-.1l-.001 0c-.17-.01-.34.04-.48.13v0c-.14.1-.25.23-.31.39Z"/></svg>