<svg viewBox="0 0 16 16" xmlns="http://www.w3.org/2000/svg"><path fill-rule="evenodd" d="M14 4.5V11h-1V4.5h-2v0c-.83 0-1.5-.68-1.5-1.5V1H4v0c-.56 0-1 .44-1 1v9H2V2v0c0-1.11.89-2 2-2h5.5L14 4.5ZM1.5 11.85h1.6c.28 0 .53.06.73.17 .2.11.35.27.46.47 .1.2.15.42.15.67 0 .25-.06.47-.16.67 -.11.19-.26.35-.47.47v-.001c-.23.12-.48.18-.74.17h-.81v1.34h-.79v-4Zm2.06 1.71l0 0c.05-.12.08-.25.08-.39 0-.23-.07-.4-.19-.53 -.13-.13-.3-.19-.52-.19h-.66v1.4h.66v0c.12 0 .25-.03.37-.09v0c.1-.06.18-.14.23-.24Zm1.302-1.72h1.6c.28 0 .53.06.73.17 .2.11.35.27.46.47 .1.2.15.42.15.67 0 .25-.06.47-.16.67 -.11.19-.26.35-.47.47v-.001c-.23.12-.48.18-.74.17h-.81v1.34h-.79v-4Zm2.06 1.71v0c.05-.12.08-.25.08-.39 0-.23-.07-.4-.19-.53 -.13-.13-.3-.19-.52-.19h-.66v1.4h.66v0c.12 0 .25-.03.37-.09v-.001c.1-.06.18-.14.23-.24Zm2.85 2.285v-3.34h1.13v-.67H7.83v.66h1.13v3.33h.79Zm3.79-4h.89l-1.28 2 1.25 1.99h-.91l-.85-1.42h-.04l-.86 1.41h-.87l1.24-2.016 -1.23-1.99h.93l.83 1.439h.03l.82-1.439Z"/></svg>