<svg viewBox="0 0 16 16" xmlns="http://www.w3.org/2000/svg"><path fill-rule="evenodd" d="M14 4.5V14v0c0 1.1-.9 2-2 2v-1 0c.55 0 1-.45 1-1V4.5h-2v0c-.83 0-1.5-.68-1.5-1.5V1H4v0c-.56 0-1 .44-1 1v9H2V2v0c0-1.11.89-2 2-2h5.5L14 4.5ZM1.78 15.849l.74-2.79h.03l.74 2.78h.73l1.05-4h-.86l-.6 2.9h-.05l-.706-2.91h-.69l-.706 2.9h-.04l-.6-2.91h-.86L1.01 15.8h.73Zm3.71 0l.31-1.03h1.33l.31 1.02h.84l-1.34-4h-.93l-1.35 3.99h.8Zm1-3.234l.49 1.61h-1.02l.49-1.62h.03Zm3.6 3.234H9.14l-1.34-4h.91l.89 3.138h.03l.88-3.138h.87l-1.33 3.99Z"/></svg>