<svg viewBox="0 0 16 16" xmlns="http://www.w3.org/2000/svg"><path fill-rule="evenodd" d="M14 4.5V14v0c0 1.1-.9 2-2 2v-1 0c.55 0 1-.45 1-1V4.5h-2v0c-.83 0-1.5-.68-1.5-1.5V1H4v0c-.56 0-1 .44-1 1v9H2V2v0c0-1.11.89-2 2-2h5.5L14 4.5Zm-3.76 8.132c.07.15.12.31.14.49H9.6h0c-.02-.09-.06-.18-.1-.25h0c-.05-.08-.11-.14-.17-.19v0c-.08-.06-.16-.1-.24-.13h0c-.1-.04-.2-.05-.3-.05 -.29 0-.51.1-.67.3 -.16.2-.24.484-.24.85v.49c0 .23.03.43.09.61v0c.05.16.16.3.3.41v0c.15.1.33.15.51.14v0c.15 0 .31-.03.45-.1h0c.11-.06.2-.16.27-.27 .06-.11.09-.23.09-.37v-.26h-.83v-.59h1.57v.798c0 .19-.04.37-.1.55v0c-.07.17-.17.32-.3.45v0c-.15.13-.31.24-.5.31 -.2.07-.43.11-.7.11h0c-.26 0-.52-.04-.76-.14v0c-.21-.09-.39-.22-.54-.38h-.001c-.15-.17-.26-.37-.32-.58l0-.001c-.08-.25-.11-.5-.11-.75v-.51c0-.37.06-.68.2-.95 .13-.28.32-.49.58-.64 .25-.16.56-.23.92-.23 .23 0 .45.03.63.1 .18.06.34.15.48.27 .13.11.23.25.31.4Zm-8.64-.71h-1.6v4h.79v-1.343h.8c.28 0 .53-.06.73-.18 .2-.12.35-.28.46-.48l-.001 0c.1-.21.16-.45.16-.68 0-.25-.06-.48-.16-.68H2.77c-.11-.2-.27-.37-.46-.48 -.2-.12-.45-.18-.732-.18Zm.54 1.33v0c0 .13-.03.26-.09.38l0-.001c-.06.1-.14.18-.24.24h0c-.12.05-.25.08-.38.08H.77v-1.41h.66c.21 0 .389.06.512.18 .12.12.18.29.18.52Zm1.96 2.66v-2.68h.03l1.76 2.67h.65v-4h-.75v2.66h-.04L3.99 11.9h-.67v4h.74Z"/></svg>