<svg viewBox="0 0 16 16" xmlns="http://www.w3.org/2000/svg"><g><path d="M6.5 7.5v0c0-.56.44-1 1-1h1v0c.55 0 1 .44 1 1v.93l.4 1.59v0c.1.4-.07.83-.42 1.07l-.93.62v0c-.34.22-.78.22-1.109 0l-.93-.62H6.51c-.36-.24-.52-.67-.42-1.08l.4-1.6v-.94Zm2 0h-1v.93h-.001c-.01.08-.02.16-.03.24l-.4 1.59 .93.62 .93-.62 -.4-1.6v0c-.02-.08-.03-.17-.03-.25v-.94Z"/><path d="M2 2v0c0-1.11.89-2 2-2h8v0c1.1 0 2 .89 2 2v12 0c0 1.1-.9 2-2 2H4v0c-1.11 0-2-.9-2-2V2Zm5.5-1H4v0c-.56 0-1 .44-1 1v12 0c0 .55.44 1 1 1h8v0c.55 0 1-.45 1-1V2v0c0-.56-.45-1-1-1H9v1H8v1h1v1H8v1h1v1H7.5V5h-1V4h1V3h-1V2h1V1Z"/></g></svg>