<svg viewBox="0 0 16 16" xmlns="http://www.w3.org/2000/svg"><path fill-rule="evenodd" d="M14 4.5V14v0c0 1.1-.9 2-2 2H9v-1h3v0c.55 0 1-.45 1-1V4.5h-2v0c-.83 0-1.5-.68-1.5-1.5V1H4v0c-.56 0-1 .44-1 1v9H2V2v0c0-1.11.89-2 2-2h5.5L14 4.5ZM3.27 13.12h0c-.02-.18-.07-.34-.14-.5h0c-.08-.16-.19-.3-.32-.41l-.001 0c-.15-.13-.31-.22-.48-.28v0c-.21-.07-.42-.11-.64-.1 -.37 0-.67.07-.93.22H.76c-.26.14-.46.36-.59.63h0c-.14.29-.21.62-.2.95v.5c0 .27.03.52.1.74 .07.22.17.41.32.58 .14.16.32.28.533.37 .21.08.46.13.75.13 .26 0 .5-.04.69-.12v0c.36-.13.65-.41.78-.77 .06-.18.09-.36.09-.56v-.8H1.65v.58h.823v.25c0 .13-.03.25-.09.36v0c-.07.11-.16.2-.28.26h0c-.15.06-.3.1-.46.09v0c-.19 0-.37-.05-.52-.15v0c-.15-.11-.25-.25-.31-.42h0c-.07-.2-.11-.41-.1-.62v-.5c0-.37.07-.65.23-.85 .15-.2.38-.31.665-.31v0c.1-.01.2.01.3.04 .09.03.17.07.23.12H2.14c.06.05.12.11.17.19v0c.04.07.07.16.09.25h.77Zm1.35 2.801v-4h-.8v4h.79Zm1.49-1.59v1.59h-.8v-4h2.54v.65H6.09v1.11h1.6v.63h-1.61Z"/></svg>