<svg viewBox="0 0 16 16" xmlns="http://www.w3.org/2000/svg"><g><path d="M8 5v0c.27 0 .5.22.5.5V7H10v0c.27 0 .5.22.5.5 0 .27-.23.5-.5.5H8.5v1.5 0c0 .27-.23.5-.5.5 -.28 0-.5-.23-.5-.5V8H6v0c-.28 0-.5-.23-.5-.5 0-.28.22-.5.5-.5h1.5V5.5v0c0-.28.22-.5.5-.5Zm-2.5 6.5v0c0-.28.22-.5.5-.5h4v0c.27 0 .5.22.5.5 0 .27-.23.5-.5.5H6v0c-.28 0-.5-.23-.5-.5Z"/><path d="M14 14V4.5L9.5 0H4v0C2.89 0 2 .89 2 2v12 0c0 1.1.89 2 2 2h8v0c1.1 0 2-.9 2-2ZM9.5 3v0c0 .82.67 1.5 1.5 1.5h2V14v0c0 .55-.45 1-1 1H4v0c-.56 0-1-.45-1-1V2v0c0-.56.44-1 1-1h5.5v2Z"/></g></svg>