<svg viewBox="0 0 16 16" xmlns="http://www.w3.org/2000/svg"><g><path d="M10 7v1.07c.54.16 1 .59 1 1.22v2.4c0 .81-.79 1.3-1.5 1.3h-3c-.72 0-1.5-.49-1.5-1.3v-2.4c0-.63.46-1.06 1-1.23V6.98v0c0-1.11.89-2 2-2 1.1 0 2 .89 2 2ZM7 7v1h2V7v0c0-.56-.45-1-1-1 -.56 0-1 .44-1 1ZM6 9.3v2.4c0 .04.02.1.1.17h0c.11.08.25.12.39.12h3v0c.14 0 .28-.05.39-.125 .08-.07.1-.14.1-.18v-2.4c0-.05-.02-.11-.11-.18v0c-.12-.09-.26-.13-.4-.125h-3H6.46c-.15-.01-.29.04-.4.125 -.09.06-.11.13-.11.17Z"/><path d="M14 14V4.5L9.5 0H4v0C2.89 0 2 .89 2 2v12 0c0 1.1.89 2 2 2h8v0c1.1 0 2-.9 2-2ZM9.5 3v0c0 .82.67 1.5 1.5 1.5h2V14v0c0 .55-.45 1-1 1H4v0c-.56 0-1-.45-1-1V2v0c0-.56.44-1 1-1h5.5v2Z"/></g></svg>