<svg viewBox="0 0 16 16" xmlns="http://www.w3.org/2000/svg"><g><path d="M8 15v0c-3.87 0-7-3.14-7-7 0-3.87 3.13-7 7-7v0c3.86 0 7 3.13 7 7 0 3.86-3.14 7-7 7Zm0 1v0c4.41 0 8-3.59 8-8 0-4.42-3.59-8-8-8v0C3.58 0 0 3.58 0 8c0 4.41 3.58 8 8 8Z"/><path d="M7 11.5v0c0-.28.22-.5.5-.5h1v0c.27 0 .5.22.5.5 0 .27-.23.5-.5.5h-1v0c-.28 0-.5-.23-.5-.5Zm-2-3v0c0-.28.22-.5.5-.5h5v0c.27 0 .5.22.5.5 0 .27-.23.5-.5.5h-5v0c-.28 0-.5-.23-.5-.5Zm-2-3v0c0-.28.22-.5.5-.5h9v0c.27 0 .5.22.5.5 0 .27-.23.5-.5.5h-9v0c-.28 0-.5-.23-.5-.5Z"/></g></svg>