<svg viewBox="0 0 16 16" xmlns="http://www.w3.org/2000/svg"><path d="M6.174 1.18v-.001C6.62.16 7.804-.3 8.814.15c.44.2.8.56 1.01 1.01v0c.89-.65 2.14-.46 2.79.44 .28.39.42.89.37 1.38v0c1.09-.12 2.08.68 2.19 1.78 .05.49-.09.98-.38 1.38v-.001c1 .45 1.46 1.63 1.01 2.64 -.21.44-.57.8-1.02 1.01v0c.64.89.45 2.14-.45 2.79 -.4.28-.9.42-1.39.37v0c.11 1.09-.69 2.08-1.79 2.19 -.5.05-.99-.09-1.39-.38v0c-.46 1-1.64 1.46-2.65 1.01 -.45-.21-.81-.57-1.02-1.02v0c-.9.64-2.15.45-2.8-.45 -.29-.4-.43-.9-.38-1.39v0c-1.1.11-2.09-.69-2.2-1.79 -.06-.5.08-.99.37-1.39h0C.07 9.27-.39 8.09.06 7.08c.2-.45.56-.81 1.01-1.02v0c-.65-.9-.46-2.15.44-2.8 .39-.29.89-.43 1.38-.38H2.89c-.12-1.1.68-2.09 1.78-2.2 .49-.06.98.08 1.38.37ZM7.99.99v0c-.56 0-1 .44-1 1 0 0 0 .01 0 .02L7 2.1c.01.07.02.17.05.29 .04.24.12.54.21.887 .18.68.42 1.51.67 2.31l.04.14 .04-.15c.24-.8.49-1.63.67-2.32 .09-.35.16-.65.21-.887v0c.02-.13.04-.26.06-.39l0-.04v0c0-.56-.45-1-1-1Zm-6 8l.03-.01 .09-.01v0c.09-.02.19-.04.29-.06 .24-.05.54-.13.88-.22l0-.001c.77-.21 1.54-.44 2.31-.68l.14-.05 -.15-.05 0 0c-.77-.25-1.54-.47-2.32-.68l-.001-.001c-.3-.08-.59-.16-.89-.22h-.001c-.13-.03-.26-.05-.39-.07l-.04-.01v0c-.56 0-1 .44-1 1 0 .55.44 1 1 1Zm7 5l-.01-.03h-.001c-.02-.13-.04-.26-.07-.39l-.001-.001c-.07-.3-.14-.6-.22-.89l0-.001c-.21-.78-.44-1.55-.68-2.314l-.05-.15 -.05.14c-.25.8-.5 1.62-.68 2.314 -.1.34-.17.64-.22.88l-.001 0c-.03.12-.05.25-.07.38l-.01.03v0c0 .55.44 1 1 1 .55 0 1-.45 1-1Zm-5.7-2.14l.02-.02h0c.1-.08.2-.17.3-.25 .18-.17.4-.38.66-.63l-.001-.001c.56-.57 1.12-1.16 1.66-1.75l.1-.12 -.15.03 0-.001c-.79.17-1.57.36-2.35.57 -.35.09-.64.18-.88.25H2.65c-.13.04-.25.08-.37.13l-.03.01v0c-.49.27-.65.88-.38 1.36 .27.48.88.64 1.36.37 0-.01 0-.01.01-.01Zm1.19 2.19v0c.47.27 1.08.11 1.36-.37l.01-.03c.01-.02.02-.05.03-.09v0c.03-.1.07-.19.1-.29 .07-.24.16-.53.258-.88l-.001 0c.2-.78.39-1.56.57-2.35l.03-.15 -.11.1 0 0c-.6.54-1.18 1.09-1.75 1.66l0 0c-.22.21-.43.43-.63.66H4.35c-.09.09-.17.19-.25.3l-.02.02v0c-.28.47-.12 1.08.36 1.36Zm9.19-8.196v0c.47-.28.63-.9.35-1.37 -.28-.48-.89-.64-1.36-.37l-.03.01V4.11c-.11.07-.21.16-.31.24V4.35c-.23.2-.45.41-.67.62l-.001 0c-.57.56-1.13 1.15-1.67 1.74l-.11.11 .14-.04 0 0c.78-.18 1.56-.37 2.34-.58 .34-.1.64-.18.875-.258h0c.12-.05.24-.09.36-.14v0c0-.01.01-.01.02-.02Zm-2.2-3.93v0c-.48-.28-1.09-.12-1.37.36l-.02.02c-.01.02-.03.04-.04.08l-.001 0c-.04.09-.08.18-.11.28 -.08.23-.17.53-.26.875l0-.001c-.21.77-.4 1.55-.58 2.34L9.05 6l.11-.11 0-.001c.59-.55 1.17-1.1 1.74-1.67 .25-.26.46-.48.62-.66h0c.08-.1.16-.2.24-.31l.01-.03V3.22c.27-.48.11-1.09-.37-1.37Zm2.5 7.062v0c.55 0 1-.45 1-1 0-.56-.45-1-1-1l-.03 0V6.97c-.13.01-.26.03-.39.06 -.25.04-.55.12-.89.21 -.69.18-1.513.42-2.314.67l-.15.04 .14.04c.8.24 1.62.49 2.314.67 .34.09.64.16.88.21l0 0c.12.02.25.04.38.06l.03 0ZM1.91 4.47h0c-.28.47-.12 1.08.36 1.36 0 0 .01 0 .02.01l.08.03c.07.03.16.06.28.1 .23.07.53.16.87.258l0 0c.77.2 1.55.39 2.34.57l.14.03 -.11-.12 -.001 0c-.55-.6-1.1-1.18-1.67-1.75v0c-.22-.22-.44-.43-.66-.63l0-.001c-.1-.09-.2-.17-.31-.25l-.03-.02v0c-.48-.28-1.09-.12-1.37.36Zm2.19-1.2l.01.02v0c.07.1.16.2.24.3 .16.18.37.4.62.661l-.001 0c.56.56 1.15 1.12 1.74 1.66l.11.1 -.04-.15h0c-.18-.79-.37-1.57-.58-2.35 -.1-.35-.18-.65-.258-.875v0c-.05-.13-.09-.25-.14-.367l-.02-.03v0c-.28-.49-.89-.65-1.37-.38 -.49.27-.65.88-.38 1.36 0 0 0 0 0 .01Zm9.92 8.196v0c.27-.48.11-1.09-.37-1.37l-.03-.02v0c-.13-.06-.25-.1-.37-.14 -.24-.08-.53-.17-.875-.26l0-.001c-.78-.21-1.56-.4-2.35-.58l-.15-.04 .1.11 -.001-.001c.54.59 1.09 1.17 1.66 1.74 .25.25.47.46.66.62v0c.09.08.19.16.3.24l.02.01v0c.47.27 1.08.11 1.36-.37Zm-3.93 2.19v0c.27.47.89.63 1.36.35 .47-.28.63-.89.36-1.36l-.02-.03v0c-.08-.11-.17-.21-.25-.31l0-.001c-.21-.23-.42-.45-.63-.67l0 0c-.57-.57-1.16-1.13-1.75-1.67l-.12-.11 .03.14 0-.001c.17.78.36 1.56.57 2.34 .09.34.18.64.25.875v0c.04.12.08.24.13.36h0s0 .01.01.02ZM7.952 9.46v0c.82 0 1.5-.68 1.5-1.5 0-.83-.68-1.5-1.5-1.5v0c-.83 0-1.5.67-1.5 1.5 0 .82.67 1.5 1.5 1.5Z"/></svg>