<svg viewBox="0 0 16 16" xmlns="http://www.w3.org/2000/svg"><g><path d="M.5 3l.04.87 0-.001c-.27.38-.39.84-.35 1.31l.637 7H.82c.09 1.02.95 1.81 1.99 1.81h6.17v-1H2.8v0c-.52-.01-.95-.4-1-.91l-.637-7H1.16c-.05-.56.35-1.04.9-1.09 .02-.01.05-.01.09-.01h11.62v0c.55-.01 1 .44 1 .99 0 .03-.01.06-.01.09l-.27 2.91h1l.25-2.82v0c.09-1.11-.72-2.08-1.82-2.18 -.06-.01-.13-.01-.19-.01H9.74v0c-.54-.01-1.04-.22-1.42-.59l-.83-.83v0C7.11 1.15 6.6.94 6.07.94H2.4v0c-1.11 0-2 .89-2 2Zm5.672-1v0c.26 0 .51.1.7.29l.7.7h-5.4c-.24 0-.47.04-.69.12l-.01-.14h0c.01-.55.45-.99 1-.98h3.672Z"/><path d="M11 11.5v0c0-.28.22-.5.5-.5h4v0c.27 0 .5.22.5.5 0 .27-.23.5-.5.5h-4v0c-.28 0-.5-.23-.5-.5Z"/></g></svg>