<svg viewBox="0 0 16 16" xmlns="http://www.w3.org/2000/svg"><g><path d="M3.5 2v0c-.28 0-.5.22-.5.5v5 0c0 .27.22.5.5.5h5v0c.27 0 .5-.23.5-.5v-5 0c0-.28-.23-.5-.5-.5h-5ZM4 14V9h1.79c.5 0 .91.09 1.237.29 .32.19.56.47.72.85 .16.37.242.82.242 1.34 0 .52-.08.98-.242 1.35H7.74c-.15.35-.41.65-.74.86 -.33.19-.734.29-1.23.29h-1.8Zm1.66-4.2h-.7v3.385h.69c.22 0 .42-.04.59-.11v0c.16-.07.3-.18.41-.32 .1-.15.18-.32.24-.53 .05-.21.08-.46.08-.74 0-.38-.05-.69-.15-.94h0c-.08-.24-.24-.44-.44-.57 -.2-.13-.45-.19-.75-.19Z"/><path d="M3 0v0C1.89 0 1 .89 1 2v13H.5v0c-.28 0-.5.22-.5.5 0 .27.22.5.5.5h11v0c.27 0 .5-.23.5-.5 0-.28-.23-.5-.5-.5H11v-4 0c.55 0 1 .44 1 1v.5 0c0 .82.67 1.5 1.5 1.5 .82 0 1.5-.68 1.5-1.5V8h.5v0c.27 0 .5-.23.5-.5V4.32c0-.62 0-1.43-.3-2.081V2.23c-.17-.38-.45-.7-.8-.91 -.38-.23-.85-.34-1.42-.34v0c-.28 0-.5.22-.5.5 0 .27.22.5.5.5 .43 0 .71.08.9.19V2.17c.17.1.31.26.39.45 .14.32.19.746.2 1.222h-1.5v0c-.28 0-.5.22-.5.5v3.125 0c0 .27.22.5.5.5h.5v4.5 0c0 .27-.23.5-.5.5 -.28 0-.5-.23-.5-.5v-.5 0c0-1.11-.9-2-2-2v-8 0c0-1.11-.9-2-2-2h-6Zm7 2v13H2V2v0c0-.56.44-1 1-1h6v0c.55 0 1 .44 1 1Z"/></g></svg>