<svg viewBox="0 0 16 16" xmlns="http://www.w3.org/2000/svg"><g><path d="M8 4.754v0c-1.8-.01-3.25 1.45-3.25 3.24 -.01 1.79 1.45 3.24 3.24 3.24 0 0 0 0 0 0v0c1.79 0 3.24-1.46 3.24-3.25 0-1.8-1.46-3.25-3.25-3.25Zm-2.25 3.24v0c-.01-1.25 1-2.25 2.24-2.25 1.24-.01 2.24 1 2.24 2.24 0 0 0 0 0 0v0c0 1.24-1.01 2.24-2.25 2.24 -1.25 0-2.25-1.01-2.25-2.25Z"/><path d="M9.796 1.34c-.53-1.79-3.07-1.79-3.6 0l-.1.31v0c-.14.46-.63.72-1.09.59 -.06-.02-.12-.05-.18-.08L4.52 2c-1.64-.9-3.44.9-2.54 2.54l.15.29v-.001c.23.42.07.95-.35 1.18 -.06.02-.12.05-.18.07l-.32.09c-1.79.52-1.79 3.06 0 3.59l.31.09H1.59c.46.13.72.62.59 1.08 -.02.05-.05.11-.08.17l-.16.29c-.9 1.64.9 3.43 2.541 2.54l.29-.16h-.001c.42-.24.95-.08 1.18.34 .02.05.05.11.07.17l.09.31c.52 1.79 3.06 1.79 3.59 0l.09-.32v0c.13-.47.62-.73 1.08-.6 .05.01.11.04.17.07l.29.16c1.64.89 3.43-.91 2.54-2.55l-.16-.3v0c-.24-.43-.08-.96.34-1.19 .05-.03.11-.06.17-.08l.31-.1c1.79-.53 1.79-3.07 0-3.6l-.32-.1v0c-.47-.14-.73-.63-.6-1.09 .01-.06.04-.12.07-.18l.16-.3c.89-1.64-.91-3.433-2.55-2.54l-.3.15v0c-.43.23-.96.07-1.19-.35 -.03-.06-.06-.12-.08-.18l-.1-.32Zm-2.633.28c.24-.84 1.42-.84 1.67 0l.09.31V1.92c.29.99 1.33 1.55 2.32 1.26 .12-.04.25-.09.36-.16l.29-.16c.76-.42 1.6.42 1.18 1.18l-.16.29v0c-.5.9-.16 2.04.74 2.54 .11.06.23.11.36.15l.31.09c.83.24.83 1.428 0 1.67l-.32.09v0c-1 .29-1.56 1.33-1.27 2.32 .03.12.08.25.15.36l.16.29c.41.76-.42 1.6-1.19 1.18l-.3-.16 -.001 0c-.91-.5-2.05-.16-2.55.74 -.07.11-.12.23-.16.36l-.1.31c-.25.83-1.428.83-1.68 0l-.1-.32v-.001c-.3-1-1.34-1.56-2.33-1.27 -.13.03-.25.08-.37.15l-.3.16c-.77.41-1.6-.42-1.19-1.19l.15-.3h0c.49-.91.16-2.05-.75-2.55 -.12-.07-.25-.12-.37-.16l-.32-.1c-.84-.25-.84-1.43 0-1.68l.31-.1v0c.99-.3 1.55-1.34 1.26-2.33 -.04-.13-.09-.25-.16-.37l-.16-.3c-.42-.77.42-1.6 1.18-1.19l.29.15v0c.9.49 2.04.15 2.54-.75 .06-.12.11-.24.15-.37l.09-.32Z"/></g></svg>