<svg viewBox="0 0 16 16" xmlns="http://www.w3.org/2000/svg"><path d="M7.068.72c.24-.97 1.62-.97 1.86 0l.07.28v0c.12.51.64.82 1.16.69 .17-.05.33-.14.45-.27l.2-.22c.69-.72 1.888-.03 1.61.931l-.08.28h-.001c-.15.5.14 1.04.65 1.18 .17.04.35.04.52 0l.28-.09c.96-.28 1.65.91.93 1.61l-.22.2h0c-.39.36-.4.97-.03 1.35 .12.12.28.22.45.26l.28.07c.97.24.97 1.62 0 1.86l-.29.07h0c-.52.12-.83.64-.7 1.16 .04.17.13.33.26.45l.21.2c.71.69.03 1.88-.94 1.61l-.29-.08v0c-.51-.15-1.05.14-1.19.65 -.05.17-.05.35 0 .52l.08.28c.27.96-.92 1.65-1.62.93l-.21-.22v0c-.37-.39-.98-.4-1.36-.03 -.13.12-.23.28-.27.45l-.08.28c-.25.97-1.62.97-1.87 0l-.08-.29v0c-.13-.52-.65-.83-1.17-.7 -.18.04-.34.13-.46.26L5 14.6c-.7.71-1.888.03-1.62-.94l.08-.29 -.001-.001c.14-.51-.15-1.05-.66-1.19 -.18-.05-.36-.05-.53-.01l-.29.08c-.96.27-1.65-.92-.94-1.62l.21-.21v0c.38-.37.39-.98.02-1.36 -.13-.13-.29-.23-.46-.27l-.29-.08c-.97-.25-.97-1.62 0-1.87l.28-.08h0c.51-.13.82-.65.69-1.17 -.05-.18-.14-.34-.27-.46L1 4.92c-.719-.7-.03-1.89.93-1.62l.28.08v0c.5.14 1.04-.15 1.18-.66 .04-.18.04-.36 0-.53L3.3 1.9C3.02.94 4.21.25 4.91.96l.2.21v0c.36.38.97.39 1.35.02 .12-.13.22-.29.26-.46l.07-.29Zm5.9 7.773h-4.73l-2.84 3.779h0c2.36 1.42 5.43.66 6.86-1.7 .38-.64.62-1.35.69-2.09Zm0-1v0c-.28-2.75-2.73-4.75-5.48-4.48 -.74.07-1.46.31-2.09.69l2.83 3.78h4.72Zm-7.93-3.54c-.03.02-.06.04-.09.06l.08-.07Zm-.44.35v-.001c-1.04.94-1.62 2.27-1.62 3.67 0 1.45.62 2.76 1.61 3.67l2.758-3.68 -2.76-3.68Zm.34 7.646l.08.06 -.09-.07Z"/></svg>