<svg viewBox="0 0 16 16" xmlns="http://www.w3.org/2000/svg"><path fill-rule="evenodd" d="M11.5 1v0c-.28 0-.5-.23-.5-.5 0-.28.22-.5.5-.5h4v0c.27 0 .5.22.5.5v4 0c0 .27-.23.5-.5.5 -.28 0-.5-.23-.5-.5V1.7l-3.45 3.45v0c1.01 1.96.25 4.37-1.71 5.39 -.42.21-.88.36-1.35.41v2.03h1.5v0c.27 0 .5.22.5.5 0 .27-.23.5-.5.5h-1.5v1.5 0c0 .27-.23.5-.5.5 -.28 0-.5-.23-.5-.5v-1.5h-1.5v0c-.28 0-.5-.23-.5-.5 0-.28.22-.5.5-.5h1.5v-2.03 0c-2.2-.28-3.75-2.28-3.47-4.47 .27-2.2 2.27-3.75 4.46-3.47 .95.12 1.82.57 2.46 1.28L14.26.96h-2.8Zm-1 4.346v-.001c-.92-1.39-2.78-1.77-4.16-.85 -1.39.91-1.77 2.77-.85 4.15 0 0 0 0 0 0v0c.91 1.38 2.77 1.76 4.15.84 1.38-.92 1.76-2.78.84-4.16Z"/></svg>