<svg viewBox="0 0 16 16" xmlns="http://www.w3.org/2000/svg"><path fill-rule="evenodd" d="M0 .5v0C0 .22.22 0 .5 0h3v0c.27 0 .5.22.5.5 0 .27-.23.5-.5.5H1.7l1.79 1.79 .64-.65v0c.19-.2.51-.2.7 0 .19.19.19.51 0 .7l-.65.64L5 4.3v0c.75-.85 1.83-1.33 2.971-1.33 1.18 0 2.23.51 2.971 1.32l3.32-3.33h-2.8v0c-.28 0-.5-.23-.5-.5 0-.28.22-.5.5-.5h4v0c.27 0 .5.22.5.5v4 0c0 .27-.23.5-.5.5 -.28 0-.5-.23-.5-.5V1.66l-3.45 3.45v0c1.01 1.96.25 4.37-1.71 5.39 -.42.21-.88.36-1.35.41v2.03h1.5v0c.27 0 .5.22.5.5 0 .27-.23.5-.5.5h-1.5v1.5 0c0 .27-.23.5-.5.5 -.28 0-.5-.23-.5-.5v-1.5h-1.5v0c-.28 0-.5-.23-.5-.5 0-.28.22-.5.5-.5h1.5v-2.03 0c-2.2-.28-3.75-2.28-3.47-4.47 .05-.48.2-.93.41-1.35l-.95-.95 -.65.64v0c-.2.19-.52.19-.71 0 -.2-.2-.2-.52-.001-.71l.64-.65 -1.8-1.8v1.79 0c0 .27-.23.5-.5.5 -.28 0-.5-.23-.5-.5v-3Zm5.49 4.856v0c-.91 1.38-.53 3.24.86 4.15 1.38.9 3.24.52 4.15-.87 0-.01 0-.01 0-.01v0c.9-1.39.52-3.25-.87-4.16 -1.39-.91-3.25-.53-4.16.86Z"/></svg>