<svg viewBox="0 0 16 16" xmlns="http://www.w3.org/2000/svg"><path fill-rule="evenodd" d="M4 4h-.001c0-2.21 1.79-4 4-4 2.2 0 3.99 1.79 3.99 4 -.01 2.01-1.51 3.71-3.5 3.96v5.53 0c0 .27-.23.5-.5.5 -.28 0-.5-.23-.5-.5V7.96v0C5.47 7.7 3.97 6 3.98 3.98Zm2.49 8.57v0c.04.27-.14.52-.42.57 -.72.11-1.28.29-1.66.49v0c-.14.06-.27.15-.37.26v0c-.03.02-.05.05-.06.09v0l0 0v0c0 .01 0 .02.01.03v0c.03.05.08.1.14.15 .16.13.43.27.81.39 .75.25 1.82.41 3.024.41 1.2 0 2.27-.17 3.024-.42 .37-.13.64-.27.81-.4h-.001c.05-.05.1-.1.14-.15v0c0-.02.01-.03.01-.04l0-.01v-.01h-.001c-.02-.04-.04-.07-.06-.09h-.001c-.11-.11-.24-.2-.37-.27 -.38-.2-.95-.375-1.66-.5v0c-.28-.04-.47-.29-.43-.57 .03-.28.28-.47.56-.43 0 0 .01 0 .02 0 .77.12 1.452.32 1.95.59 .46.24.96.64.96 1.24 0 .42-.26.75-.55.97 -.29.22-.68.41-1.12.55 -.88.29-2.06.46-3.34.46 -1.29 0-2.47-.18-3.34-.47 -.44-.15-.83-.33-1.116-.56 -.29-.23-.544-.56-.544-.98 0-.6.5-1 .96-1.25 .5-.27 1.18-.47 1.95-.6v0c.27-.05.52.13.57.41Z"/></svg>