<svg viewBox="0 0 16 16" xmlns="http://www.w3.org/2000/svg"><g><path d="M12.166 8.94c-.53 1.06-1.234 2.12-1.96 3.07l0-.001c-.69.89-1.43 1.75-2.21 2.57h0c-.79-.82-1.52-1.68-2.21-2.57 -.726-.95-1.436-2.01-1.96-3.07 -.53-1.08-.84-2.08-.84-2.94v0c0-2.77 2.23-5 5-5 2.76 0 5 2.23 5 5 0 .86-.31 1.867-.84 2.94ZM8 16s6-5.686 6-10v0c0-3.32-2.69-6-6-6C4.68 0 2 2.68 2 6c0 4.31 6 10 6 10Z"/><path d="M8 8v0c-1.11 0-2-.9-2-2 0-1.11.89-2 2-2v0c1.1 0 2 .89 2 2 0 1.1-.9 2-2 2Zm0 1v0c1.65 0 3-1.35 3-3 0-1.66-1.35-3-3-3v0C6.34 3 5 4.34 5 6c0 1.65 1.34 3 3 3Z"/></g></svg>