<svg viewBox="0 0 16 16" xmlns="http://www.w3.org/2000/svg"><path d="M3 2.5v0C3 1.11 4.11 0 5.5 0 6.88 0 8 1.11 8 2.5v0C8 1.11 9.11 0 10.5 0 11.88 0 13 1.11 13 2.5v0c0 .07 0 .27-.04.49h2.03v0c.55 0 1 .44 1 1v1 0c0 .55-.45 1-1 1h-14v0c-.56 0-1-.45-1-1v-1 0c0-.56.44-1 1-1h2.03v0c-.03-.17-.04-.33-.04-.5v-.01Zm1.06.5h2.93v-.5 0c0-.83-.68-1.5-1.5-1.5 -.83 0-1.5.67-1.5 1.5 0 .08 0 .274.04.43v0c0 .02.01.04.02.07Zm4.932 0h2.93v0c0-.03.01-.05.02-.07 .04-.16.04-.35.04-.43v0c0-.83-.68-1.5-1.5-1.5 -.83 0-1.5.67-1.5 1.5V3Zm6 4v7.5 0c0 .82-.68 1.5-1.5 1.5h-4.5V7h6Zm-12.5 9v0c-.83 0-1.5-.68-1.5-1.5V7h6v9h-4.5Z"/></svg>