<svg viewBox="0 0 16 16" xmlns="http://www.w3.org/2000/svg"><path d="M15.69 7.287L8.7.29V.29C8.29-.12 7.64-.12 7.24.28c-.01 0-.01 0-.01 0L5.78 1.73l1.84 1.84v0c.63-.22 1.33.12 1.55.76 .08.25.08.53-.01.79L10.93 6.9v0c.63-.23 1.33.11 1.56.74 .15.44.04.94-.3 1.27v0c-.48.48-1.26.48-1.74 0 -.36-.36-.46-.88-.27-1.34L8.52 5.91v4.35 -.001c.6.3.85 1.03.55 1.64 -.31.6-1.04.85-1.65.55 -.61-.31-.86-1.04-.56-1.65 .13-.27.35-.48.63-.6v-4.4 0c-.63-.26-.93-.98-.67-1.6 0-.01 0-.01 0-.01L5 2.36 .21 7.15H.2c-.41.4-.41 1.05-.01 1.45 0 0 0 0 0 0l6.98 6.98H7.17c.4.4 1.05.4 1.45 0 0-.01 0-.01 0-.01l6.95-6.96v0c.4-.41.4-1.06 0-1.46"/></svg>