<svg viewBox="0 0 16 16" xmlns="http://www.w3.org/2000/svg"><g><path d="M4 8v0c0-.83.67-1.5 1.5-1.5C6.32 6.5 7 7.17 7 8v0c0 .82-.68 1.5-1.5 1.5C4.67 9.5 4 8.82 4 8Zm7.5-1.5v0c-.83 0-1.5.67-1.5 1.5 0 .82.67 1.5 1.5 1.5v0c.82 0 1.5-.68 1.5-1.5 0-.83-.68-1.5-1.5-1.5Z"/><path d="M0 1.5v0c0-.28.22-.5.5-.5h1v0c.27 0 .5.22.5.5V4h13.5v0c.27 0 .5.22.5.5v7 0c0 .27-.23.5-.5.5H2v2.5 0c0 .27-.23.5-.5.5 -.28 0-.5-.23-.5-.5V2H.5v0C.22 2 0 1.77 0 1.5Zm5.5 4v0C4.11 5.5 3 6.61 3 8c0 1.38 1.11 2.5 2.5 2.5v0C6.88 10.5 8 9.38 8 8c0-1.39-1.12-2.5-2.5-2.5ZM9 8v0c0 1.38 1.11 2.5 2.5 2.5 1.38 0 2.5-1.12 2.5-2.5v0c0-1.39-1.12-2.5-2.5-2.5C10.11 5.5 9 6.61 9 8Z"/><path d="M3 12.5h3.5v1 0c0 .27-.23.5-.5.5H3.5v0c-.28 0-.5-.23-.5-.5v-1Zm4 1v-1h4v1 0c0 .27-.23.5-.5.5h-3v0c-.28 0-.5-.23-.5-.5Z"/></g></svg>