<svg viewBox="0 0 16 16" xmlns="http://www.w3.org/2000/svg"><path d="M1 2v0c0-.56.44-1 1-1h2v0c.55 0 1 .44 1 1v2 0c0 .55-.45 1-1 1H2v0c-.56 0-1-.45-1-1V2Zm5 0v0c0-.56.44-1 1-1h2v0c.55 0 1 .44 1 1v2 0c0 .55-.45 1-1 1H7v0c-.56 0-1-.45-1-1V2Zm5 0v0c0-.56.44-1 1-1h2v0c.55 0 1 .44 1 1v2 0c0 .55-.45 1-1 1h-2v0c-.56 0-1-.45-1-1V2ZM1 7v0c0-.56.44-1 1-1h2v0c.55 0 1 .44 1 1v2 0c0 .55-.45 1-1 1H2v0c-.56 0-1-.45-1-1V7Zm5 0v0c0-.56.44-1 1-1h2v0c.55 0 1 .44 1 1v2 0c0 .55-.45 1-1 1H7v0c-.56 0-1-.45-1-1V7Zm5 0v0c0-.56.44-1 1-1h2v0c.55 0 1 .44 1 1v2 0c0 .55-.45 1-1 1h-2v0c-.56 0-1-.45-1-1V7ZM1 12v0c0-.56.44-1 1-1h2v0c.55 0 1 .44 1 1v2 0c0 .55-.45 1-1 1H2v0c-.56 0-1-.45-1-1v-2Zm5 0v0c0-.56.44-1 1-1h2v0c.55 0 1 .44 1 1v2 0c0 .55-.45 1-1 1H7v0c-.56 0-1-.45-1-1v-2Zm5 0v0c0-.56.44-1 1-1h2v0c.55 0 1 .44 1 1v2 0c0 .55-.45 1-1 1h-2v0c-.56 0-1-.45-1-1v-2Z"/></svg>