<svg viewBox="0 0 16 16" xmlns="http://www.w3.org/2000/svg"><path d="M1 2.5v0C1 1.67 1.67 1 2.5 1h3v0C6.32 1 7 1.67 7 2.5v3 0C7 6.32 6.32 7 5.5 7h-3v0C1.67 7 1 6.32 1 5.5v-3ZM2.5 2v0c-.28 0-.5.22-.5.5v3 0c0 .27.22.5.5.5h3v0c.27 0 .5-.23.5-.5v-3 0c0-.28-.23-.5-.5-.5h-3Zm6.5.5v0c0-.83.67-1.5 1.5-1.5h3v0c.82 0 1.5.67 1.5 1.5v3 0c0 .82-.68 1.5-1.5 1.5h-3v0C9.67 7 9 6.32 9 5.5v-3Zm1.5-.5v0c-.28 0-.5.22-.5.5v3 0c0 .27.22.5.5.5h3v0c.27 0 .5-.23.5-.5v-3 0c0-.28-.23-.5-.5-.5h-3ZM1 10.5v0C1 9.67 1.67 9 2.5 9h3v0c.82 0 1.5.67 1.5 1.5v3 0c0 .82-.68 1.5-1.5 1.5h-3v0c-.83 0-1.5-.68-1.5-1.5v-3Zm1.5-.5v0c-.28 0-.5.22-.5.5v3 0c0 .27.22.5.5.5h3v0c.27 0 .5-.23.5-.5v-3 0c0-.28-.23-.5-.5-.5h-3Zm6.5.5v0c0-.83.67-1.5 1.5-1.5h3v0c.82 0 1.5.67 1.5 1.5v3 0c0 .82-.68 1.5-1.5 1.5h-3v0c-.83 0-1.5-.68-1.5-1.5v-3Zm1.5-.5v0c-.28 0-.5.22-.5.5v3 0c0 .27.22.5.5.5h3v0c.27 0 .5-.23.5-.5v-3 0c0-.28-.23-.5-.5-.5h-3Z"/></svg>