<svg viewBox="0 0 16 16" xmlns="http://www.w3.org/2000/svg"><path d="M8.864 15.674c-.96.24-1.843-.484-1.91-1.42 -.08-1.05-.23-2.02-.43-2.59 -.125-.36-.48-1.02-1.04-1.638 -.56-.63-1.282-1.18-2.131-1.41 -.68-.19-1.36-.766-1.36-1.62v-4c0-.85.68-1.464 1.448-1.546C4.51 1.33 5 1.03 5.509.72l.04-.03c.27-.17.57-.349.97-.49 .39-.14.86-.22 1.46-.22h3.5c.93 0 1.59.47 1.93 1.064 .16.28.25.607.25.913 0 .15-.03.31-.08.46 .2.262.38.577.48.9 .11.33.17.76 0 1.15 .06.13.12.26.15.4 .07.27.11.56.11.85 0 .28-.04.58-.12.85 -.04.12-.08.24-.14.36 .39.57.41 1.2.23 1.73 -.21.59-.69 1.1-1.2 1.27 -.85.28-1.81.27-2.516.21h-.001c-.15-.02-.3-.04-.45-.05h0c.34 1.48.32 3.03-.07 4.51 -.14.5-.55.84-1.02.96l-.27.06ZM11.494 1h-3.5c-.51 0-.87.06-1.14.16 -.29.09-.51.22-.78.393l-.04.02c-.56.33-1.2.73-2.49.86 -.34.03-.56.29-.56.55v4.001c0 .25.22.54.62.65 1.09.3 1.97.99 2.614 1.7 .63.71 1.064 1.47 1.23 1.97 .24.7.4 1.76.48 2.85 .02.36.36.59.66.51l.26-.07c.16-.04.25-.15.28-.26h0c.4-1.56.35-3.2-.15-4.73v0c-.09-.27.05-.55.31-.64 .08-.03.18-.04.27-.02h0l.01 0 .05.01 -.001 0c.34.07.68.12 1.03.15 .66.06 1.45.05 2.11-.17 .17-.06.45-.31.57-.66 .1-.31.08-.67-.266-1.021l-.36-.36 .35-.36c.04-.05.1-.14.15-.32 .04-.17.07-.37.07-.59 0-.22-.03-.42-.08-.59 -.05-.18-.12-.28-.16-.32l-.36-.36 .35-.36c.04-.05.1-.18 0-.488V3.5c-.11-.31-.29-.58-.51-.81l-.36-.36 .35-.36c0-.01.04-.05.04-.17h0c-.01-.15-.05-.29-.13-.42 -.17-.29-.51-.57-1.07-.57Z"/></svg>