<svg viewBox="0 0 16 16" xmlns="http://www.w3.org/2000/svg"><path d="M8.5 4.466V1.75v0C8.5.78 7.71 0 6.75 0 5.78 0 5 .78 5 1.75v5.34l-1.2.24 0-.001c-.77.15-1.29.86-1.2 1.63l.34 3.106v0c.04.39.18.77.4 1.11l1.43 2.15 0 0c.27.41.74.66 1.24.66h6.38v0c.53-.01 1.03-.29 1.3-.76l1.39-2.45v0c.24-.43.39-.9.44-1.39l.27-2.715h-.001c.1-1.1-.7-2.08-1.8-2.19 -.07-.01-.14-.01-.2-.01h-.59v0c-.07-.09-.13-.17-.2-.25 -.2-.23-.51-.57-.88-.72 -.37-.15-.85-.14-1.16-.11l-.14.01h-.001c-.11-.28-.31-.5-.56-.65v0c-.24-.14-.48-.23-.74-.29 -.31-.07-.74-.06-1.05-.05l-.05 0Z"/></svg>