<svg viewBox="0 0 16 16" xmlns="http://www.w3.org/2000/svg"><path d="M8.5 1.75v2.71l.04-.01c.31-.02.74-.02 1.05.04 .28.05.54.18.73.28 .27.15.45.38.56.64l.13-.02c.31-.03.79-.04 1.15.1 .37.14.68.48.88.71 .07.09.14.17.19.24h.58v-.001c1.1 0 1.99.89 1.99 2 -.01.06-.01.13-.01.19l-.28 2.715v0c-.05.48-.21.96-.45 1.38l-1.4 2.44v0c-.27.46-.77.75-1.31.75H6.04h0c-.57-.01-1.09-.33-1.35-.83l-1.22-2.43 -2.5-4.16h0c-.43-.72-.2-1.66.52-2.08 .59-.36 1.35-.27 1.84.22l1.55 1.55V1.63v0c0-.97.78-1.75 1.75-1.75 .96 0 1.75.78 1.75 1.75Z"/></svg>