<svg viewBox="0 0 16 16" xmlns="http://www.w3.org/2000/svg"><g><path d="M14 10v0c.55 0 1 .44 1 1v1 0c0 .55-.45 1-1 1H2v0c-.56 0-1-.45-1-1v-1 0c0-.56.44-1 1-1h12ZM2 9v0c-1.11 0-2 .89-2 2v1 0c0 1.1.89 2 2 2h12v0c1.1 0 2-.9 2-2v-1 0c0-1.11-.9-2-2-2H2Z"/><path d="M5 11.5v0c0 .27-.23.5-.5.5 -.28 0-.5-.23-.5-.5v0c0-.28.22-.5.5-.5 .27 0 .5.22.5.5Zm-2 0v0c0 .27-.23.5-.5.5 -.28 0-.5-.23-.5-.5v0c0-.28.22-.5.5-.5 .27 0 .5.22.5.5ZM14 3v0c.55 0 1 .44 1 1v1 0c0 .55-.45 1-1 1H2v0c-.56 0-1-.45-1-1V4v0c0-.56.44-1 1-1h12ZM2 2v0C.89 2 0 2.89 0 4v1 0c0 1.1.89 2 2 2h12v0c1.1 0 2-.9 2-2V4v0c0-1.11-.9-2-2-2H2Z"/><path d="M5 4.5v0c0 .27-.23.5-.5.5 -.28 0-.5-.23-.5-.5v0c0-.28.22-.5.5-.5 .27 0 .5.22.5.5Zm-2 0v0c0 .27-.23.5-.5.5 -.28 0-.5-.23-.5-.5v0c0-.28.22-.5.5-.5 .27 0 .5.22.5.5Z"/></g></svg>