<svg viewBox="0 0 16 16" xmlns="http://www.w3.org/2000/svg"><g><path d="M4.5 11v0c.27 0 .5-.23.5-.5 0-.28-.23-.5-.5-.5v0c-.28 0-.5.22-.5.5 0 .27.22.5.5.5ZM3 10.5v0c0 .27-.23.5-.5.5 -.28 0-.5-.23-.5-.5v0c0-.28.22-.5.5-.5 .27 0 .5.22.5.5Z"/><path d="M16 11v0c0 1.1-.9 2-2 2H2v0c-1.11 0-2-.9-2-2V9.51c0-.42.1-.83.305-1.2l2.47-4.54v0c.26-.49.76-.79 1.31-.79h7.81v0c.54-.01 1.05.29 1.31.78l2.47 4.53c.2.36.3.78.3 1.19v1.49ZM3.65 4.26L1.58 8.04c.13-.03.268-.05.4-.05h12c.14 0 .27.01.4.04l-2.07-3.782v0c-.09-.17-.26-.27-.44-.26h-7.82v0c-.19-.01-.36.09-.44.26ZM.99 10v1 0c0 .55.44 1 1 1h12v0c.55 0 1-.45 1-1v-1 0c0-.56-.45-1-1-1h-12v0c-.56 0-1 .44-1 1Z"/></g></svg>