<svg viewBox="0 0 16 16" xmlns="http://www.w3.org/2000/svg"><g><path d="M8 1.248c1.85 0 3.526.641 4.65 1.79v0c.92.12 1.79.49 2.51 1.09C13.89 1.47 11.28-.01 7.99-.01 4.74-.01 2.11 1.47.83 4.11l0-.001c.66-.54 1.44-.9 2.28-1.05 1.1-1.21 2.841-1.83 4.867-1.83Z"/><path d="M12 12v-.001c-1.05 0-2.05-.41-2.79-1.13l-.01-.01v-.001c-.09-.07-.18-.13-.28-.17v0c-.3-.14-.62-.21-.94-.21 -.42 0-.73.1-.94.2H7.03c-.1.04-.2.1-.28.16l-.01 0v0c-1.59 1.53-4.12 1.5-5.66-.09s-1.51-4.12.08-5.66c.74-.73 1.74-1.14 2.78-1.13h8v0c2.2 0 4 1.79 4 4 0 2.2-1.8 4-4 4Z"/></g></svg>