<svg viewBox="0 0 16 16" xmlns="http://www.w3.org/2000/svg"><path fill-rule="evenodd" d="M1.47 9c1.227 1.84 3.3 3.87 6.525 6 3.221-2.13 5.298-4.16 6.52-6h-2.53v0c-.21-.01-.39-.13-.47-.32l-1.46-3.65 -1.6 5.593v0c-.08.26-.36.41-.62.34 -.15-.05-.27-.16-.33-.3L5.855 6.54l-1.48 2.21v0c-.1.13-.25.22-.42.22H1.42Zm-.6-1C-2.44 1.68 4.401-2 7.81 1.14c.06.05.11.11.17.17l0 0c.05-.06.11-.12.17-.17 3.41-3.15 10.25.53 6.94 6.85H12.3L10.42 3.3v0c-.11-.26-.4-.39-.66-.28 -.15.05-.26.17-.3.32l-1.6 5.59L6.4 5.28v0c-.11-.26-.4-.39-.66-.28 -.1.03-.18.1-.23.18L3.65 7.95H.79Z"/></svg>