<svg viewBox="0 0 16 16" xmlns="http://www.w3.org/2000/svg"><path d="M6 0v0c-.56 0-1 .44-1 1v1 0c-.56 0-1 .44-1 1v4H1v0c-.56 0-1 .44-1 1v7 0c0 .55.44 1 1 1h6v-2.5 0c0-.28.22-.5.5-.5h1v0c.27 0 .5.22.5.5V16h6v0c.55 0 1-.45 1-1V8v0c0-.56-.45-1-1-1h-3V3v0c0-.56-.45-1-1-1V1v0c0-.56-.45-1-1-1H6Zm2.5 5.034v1.1l.95-.55 .5.867 -.96.54 .95.55 -.5.86 -.96-.55v1.1h-1v-1.1l-.96.55 -.5-.87 .95-.55 -.96-.55 .5-.87 .95.55v-1.1h1ZM2.25 9h.5v0c.13 0 .25.11.25.25v.5 0c0 .13-.12.25-.25.25h-.5v0C2.11 10 2 9.88 2 9.75v-.5 0c0-.14.11-.25.25-.25Zm0 2h.5v0c.13 0 .25.11.25.25v.5 0c0 .13-.12.25-.25.25h-.5v0c-.14 0-.25-.12-.25-.25v-.5 0c0-.14.11-.25.25-.25ZM2 13.25v0c0-.14.11-.25.25-.25h.5v0c.13 0 .25.11.25.25v.5 0c0 .13-.12.25-.25.25h-.5v0c-.14 0-.25-.12-.25-.25v-.5ZM13.25 9h.5v0c.13 0 .25.11.25.25v.5 0c0 .13-.12.25-.25.25h-.5v0c-.14 0-.25-.12-.25-.25v-.5 0c0-.14.11-.25.25-.25ZM13 11.25v0c0-.14.11-.25.25-.25h.5v0c.13 0 .25.11.25.25v.5 0c0 .13-.12.25-.25.25h-.5v0c-.14 0-.25-.12-.25-.25v-.5Zm.25 1.75h.5v0c.13 0 .25.11.25.25v.5 0c0 .13-.12.25-.25.25h-.5v0c-.14 0-.25-.12-.25-.25v-.5 0c0-.14.11-.25.25-.25Z"/></svg>