<svg viewBox="0 0 16 16" xmlns="http://www.w3.org/2000/svg"><path d="M6.99 2.6v-.001c2.7-1.39 6.01-.31 7.39 2.39 .39.77.6 1.63.6 2.5v0c0 .27.22.5.5.5 .27 0 .5-.23.5-.5v0c0-3.59-2.92-6.5-6.5-6.5 -3.59 0-6.5 2.91-6.5 6.5H2.97c-.01 2.76 2.23 5 4.99 5 .33 0 .67-.04 1-.11v0c-2.71 1.38-6.02.3-7.4-2.4 -.4-.78-.61-1.64-.61-2.51v0c0-.28-.23-.5-.5-.5 -.28 0-.5.22-.5.5v0c0 3.58 2.91 6.5 6.5 6.5 3.58 0 6.5-2.92 6.5-6.5v0c0-2.77-2.24-5.01-5-5.01 -.34-.01-.68.03-1.01.1Zm3 4.9v0c0 1.1-.9 2-2 2 -1.11 0-2-.9-2-2v0c0-1.11.89-2 2-2 1.1 0 2 .89 2 2Z"/></svg>