<svg viewBox="0 0 16 16" xmlns="http://www.w3.org/2000/svg"><path d="M4.98 1v0c-.16 0-.3.06-.39.18L1.54 4.99H6v0c.27 0 .5.22.5.5v0c0 .82.67 1.5 1.5 1.5 .82 0 1.5-.68 1.5-1.5v0c0-.28.22-.5.5-.5h4.46l-3.05-3.82v0c-.1-.12-.24-.19-.39-.19H4.98Zm9.954 5h-4.49 -.001c-.28 1.35-1.6 2.22-2.95 1.95 -.99-.2-1.76-.97-1.96-1.96H1.04l.32 2.56v0c.03.25.24.43.498.43h12.23V8.97c.25-.01.46-.19.49-.44l.31-2.57ZM3.8.56V.55c.28-.36.71-.57 1.17-.57h6.038v0c.45-.01.88.2 1.17.56l3.7 4.62v0c.08.1.12.24.1.37l-.39 3.12v0c-.1.75-.74 1.31-1.49 1.31H1.87 1.87c-.76 0-1.4-.57-1.49-1.32l-.39-3.13H-.01c-.02-.14.02-.27.1-.38L3.79.51ZM.12 11.16h0c.09-.11.23-.17.37-.17h5.5v0c.27 0 .5.22.5.5v0c0 .82.67 1.5 1.5 1.5 .82 0 1.5-.68 1.5-1.5v0c0-.28.22-.5.5-.5h5.5v-.001c.27 0 .49.22.49.5 -.01.02-.01.04-.01.06l-.39 3.12v0c-.1.75-.74 1.31-1.49 1.314H1.86 1.86c-.76 0-1.4-.57-1.49-1.314l-.39-3.13v0c-.02-.15.02-.29.12-.4Zm.94.83l.32 2.56v0c.03.25.24.43.49.43h12.23v0c.25-.01.46-.19.49-.44l.32-2.57h-4.49 -.001c-.28 1.35-1.6 2.22-2.95 1.95 -.99-.2-1.76-.97-1.96-1.96H1.03Z"/></svg>