<svg viewBox="0 0 16 16" xmlns="http://www.w3.org/2000/svg"><g><path d="M7.5 3.75v0c0 .41-.34.75-.75.75 -.42 0-.75-.34-.75-.75v0c0-.42.33-.75.75-.75 .41 0 .75.33.75.75Zm-.87 1.54l1.33.88 1.854-1.86v0c.07-.08.19-.1.28-.05l.88.47v2.25 0c0 .27-.23.5-.5.5h-5v0c-.28 0-.5-.23-.5-.5v-.5s1.54-1.274 1.63-1.21ZM4.99 9.49v0c0-.28.22-.5.5-.5h5v0c.27 0 .5.22.5.5 0 .27-.23.5-.5.5h-5v0c-.28 0-.5-.23-.5-.5Zm0 2v0c0-.28.22-.5.5-.5h2v0c.27 0 .5.22.5.5 0 .27-.23.5-.5.5h-2v0c-.28 0-.5-.23-.5-.5Z"/><path d="M3 0h10v0c1.1 0 2 .89 2 2v12 0c0 1.1-.9 2-2 2H3v0c-1.11 0-2-.9-2-2v-1h1v1 0c0 .55.44 1 1 1h10v0c.55 0 1-.45 1-1V2v0c0-.56-.45-1-1-1H3v0c-.56 0-1 .44-1 1v1H1V2v0c0-1.11.89-2 2-2Z"/><path d="M1 5v-.5 0c0-.28.22-.5.5-.5 .27 0 .5.22.5.5V5h.5v0c.27 0 .5.22.5.5 0 .27-.23.5-.5.5h-2v0C.22 6 0 5.77 0 5.5c0-.28.22-.5.5-.5H1Zm0 3v-.5 0c0-.28.22-.5.5-.5 .27 0 .5.22.5.5V8h.5v0c.27 0 .5.22.5.5 0 .27-.23.5-.5.5h-2v0C.22 9 0 8.77 0 8.5c0-.28.22-.5.5-.5H1Zm0 3v-.5 0c0-.28.22-.5.5-.5 .27 0 .5.22.5.5v.5h.5v0c.27 0 .5.22.5.5 0 .27-.23.5-.5.5h-2v0c-.28 0-.5-.23-.5-.5 0-.28.22-.5.5-.5H1Z"/></g></svg>