<svg viewBox="0 0 16 16" xmlns="http://www.w3.org/2000/svg"><g><path d="M5 0h8v0c1.1 0 2 .89 2 2v10 0c0 1.1-.9 2-2 2v0c0 1.1-.9 2-2 2H3v0c-1.11 0-2-.9-2-2h1v0c0 .55.44 1 1 1h8v0c.55 0 1-.45 1-1V4v0c0-.56-.45-1-1-1H3v0c-.56 0-1 .44-1 1H1v0c0-1.11.89-2 2-2h8v0c1.1 0 2 .89 2 2v9 0c.55 0 1-.45 1-1V2v0c0-.56-.45-1-1-1H5v0c-.56 0-1 .44-1 1H3v0c0-1.11.89-2 2-2Z"/><path d="M1 6v-.5 0c0-.28.22-.5.5-.5 .27 0 .5.22.5.5V6h.5v0c.27 0 .5.22.5.5 0 .27-.23.5-.5.5h-2v0C.22 7 0 6.77 0 6.5c0-.28.22-.5.5-.5H1Zm0 3v-.5 0c0-.28.22-.5.5-.5 .27 0 .5.22.5.5V9h.5v0c.27 0 .5.22.5.5 0 .27-.23.5-.5.5h-2v0c-.28 0-.5-.23-.5-.5 0-.28.22-.5.5-.5H1Zm0 2.5v.5H.5v0c-.28 0-.5.22-.5.5 0 .27.22.5.5.5h2v0c.27 0 .5-.23.5-.5 0-.28-.23-.5-.5-.5H2v-.5 0c0-.28-.23-.5-.5-.5 -.28 0-.5.22-.5.5Z"/></g></svg>