<svg viewBox="0 0 16 16" xmlns="http://www.w3.org/2000/svg"><g><path d="M13.5 1v0c.55 0 1 .44 1 1v12 0c0 .55-.45 1-1 1h-11v0c-.56 0-1-.45-1-1V2v0c0-.56.44-1 1-1h11Zm-11-1v0C1.39 0 .5.89.5 2v12 0c0 1.1.89 2 2 2h11v0c1.1 0 2-.9 2-2V2v0c0-1.11-.9-2-2-2h-11Z"/><path d="M6.5 3v0c0-.56.44-1 1-1h1v0c.55 0 1 .44 1 1v3 0c0 .55-.45 1-1 1h-1v0c-.56 0-1-.45-1-1V3Zm-4 0v0c0-.56.44-1 1-1h1v0c.55 0 1 .44 1 1v7 0c0 .55-.45 1-1 1h-1v0c-.56 0-1-.45-1-1V3Zm8 0v0c0-.56.44-1 1-1h1v0c.55 0 1 .44 1 1v10 0c0 .55-.45 1-1 1h-1v0c-.56 0-1-.45-1-1V3Z"/></g></svg>