<svg viewBox="0 0 16 16" xmlns="http://www.w3.org/2000/svg"><g><path d="M8.35 15.85v0c-.2.19-.52.19-.71 0 -.01-.01-.01-.01-.01-.01l-3-3h0c-.2-.2-.2-.52-.01-.71 0-.01 0-.01 0-.01l1-1v0c.19-.2.51-.2.7-.01 0 0 0 0 0 0l.64.64v-7.8h-6v0c-.56 0-1-.45-1-1v-2 0c0-.56.44-1 1-1h14v0c.55 0 1 .44 1 1v2 0c0 .55-.45 1-1 1h-6v7.79l.64-.65v0c.19-.2.51-.2.7-.01 0 0 0 0 0 0l1 1v0c.19.19.19.51 0 .7 -.01 0-.01 0-.01 0l-3 3Z"/><path d="M1 9v0c-.56 0-1-.45-1-1V6v0c0-.56.44-1 1-1h4.5v0c.27 0 .5.22.5.5 0 .27-.23.5-.5.5H1v2h4.5v0c.27 0 .5.22.5.5 0 .27-.23.5-.5.5H1Zm9.5 0v0c-.28 0-.5-.23-.5-.5 0-.28.22-.5.5-.5H15V6h-4.5v0c-.28 0-.5-.23-.5-.5 0-.28.22-.5.5-.5H15v0c.55 0 1 .44 1 1v2 0c0 .55-.45 1-1 1h-4.5Z"/></g></svg>