<svg viewBox="0 0 16 16" xmlns="http://www.w3.org/2000/svg"><path d="M2 6v-.001C1.99 2.679 4.68-.02 7.99-.02c3.31-.01 6 2.68 6 5.99 0 1.62-.66 3.18-1.83 4.31 -.21.19-.359.4-.46.61l-.77 1.76v0c-.08.18-.26.3-.46.3v0c.27 0 .5.22.5.5 0 .27-.23.5-.5.5v0c.27 0 .5.22.5.5 0 .27-.23.5-.5.5l-.23.44v0c-.17.33-.52.55-.9.55H6.57v0c-.38-.01-.73-.22-.9-.56l-.23-.45v0c-.28 0-.5-.23-.5-.5 0-.28.22-.5.5-.5v0c-.28 0-.5-.23-.5-.5 0-.28.22-.5.5-.5v0c-.2 0-.39-.12-.46-.31l-.77-1.77v0c-.11-.24-.27-.45-.46-.62l0 0C2.58 9.1 1.92 7.54 1.92 5.92Zm6-5h-.001c-2.77-.01-5.01 2.23-5.01 4.99 -.01 1.35.54 2.65 1.52 3.59 .26.25.51.56.67.94l.63 1.46h4.34l.63-1.47c.16-.38.41-.69.67-.95v0c1.98-1.93 2.03-5.09.11-7.08C10.6 1.5 9.319.95 7.95.95Z"/></svg>