<svg viewBox="0 0 16 16" xmlns="http://www.w3.org/2000/svg"><path d="M8 0c4.41 0 8 2.91 8 6.492 0 1.43-.56 2.723-1.72 3.99 -1.68 1.93-5.44 4.285-6.285 4.645 -.83.35-.734-.2-.7-.42l0-.02 .11-.69c.02-.21.05-.53-.03-.73 -.09-.23-.45-.34-.71-.4 -3.85-.51-6.7-3.2-6.7-6.41 0-3.58 3.59-6.492 8-6.492ZM5.02 7.686H3.49V4.918v0c0-.09-.07-.16-.16-.16h-.57v0c-.09-.001-.16.06-.16.15v3.48c0 .04.01.08.04.1v0l0 0 0 0v0c.02.02.06.04.1.04H4.98c.08 0 .15-.07.15-.16V7.8v0c0-.09-.07-.16-.16-.16 -.01-.01-.01-.01-.01-.01Zm.79-2.93v0c-.09 0-.16.06-.16.15v3.48c0 .08.07.15.15.15h.56c.08 0 .15-.07.15-.16V4.88v0c0-.09-.07-.16-.16-.16h-.57Zm3.86 0v0c-.09 0-.16.06-.16.15v2.07l-1.6-2.16v0c-.01-.01-.01-.02-.02-.02v-.01 -.001c-.01-.01-.01-.01-.01-.01l-.01-.01v0c-.01-.01-.01-.01-.02-.01h-.01l-.01-.01 -.01-.01v0c-.01-.01-.01-.01-.01-.01l-.01-.01h-.01l-.01-.01 -.01-.01 -.01-.01v0c-.01-.01-.01-.01-.01-.01h-.01l-.01-.01 -.01-.01h-.01l-.01-.01h-.01l-.01-.01H7.1v0c-.09-.01-.16.06-.16.15v3.48c0 .08.07.15.15.15h.56c.08 0 .15-.07.15-.16V6.18l1.6 2.16H9.39c.01.01.02.02.03.03l0 0 .01 0 0 0h0s0 0 0 0l0 0 0 0v0s0 0 .01 0h0v0c.01 0 .02 0 .04 0h.56c.08 0 .15-.07.15-.16V4.72v0c0-.09-.07-.16-.16-.16h-.57Zm3.81.71V4.9h0c0-.09-.07-.16-.16-.16 -.01-.01-.01-.01-.01-.01h-2.25 0c-.05 0-.08.01-.11.04h-.01l-.01 0 -.01 0v0c-.03.02-.05.06-.05.1v3.48c0 .04.01.08.04.1l0 0 0 0v0c.02.02.06.04.1.04h2.24c.08 0 .15-.07.15-.16v-.56h0c0-.09-.07-.16-.16-.16 -.01-.01-.01-.01-.01-.01H11.7v-.59h1.52c.08 0 .15-.07.15-.16v-.56h0c0-.09-.07-.16-.16-.16 -.01-.01-.01-.01-.01-.01h-1.53v-.59h1.52c.08 0 .15-.07.15-.16Z"/></svg>