<svg viewBox="0 0 16 16" xmlns="http://www.w3.org/2000/svg"><path d="M0 1.14C0 .5.526-.01 1.175-.01h13.65c.64 0 1.17.513 1.17 1.14v13.7c0 .63-.53 1.14-1.18 1.14H1.16c-.65 0-1.18-.52-1.18-1.15V1.11Zm4.94 12.24V6.15H2.53v7.22h2.401ZM3.74 5.16c.83 0 1.35-.56 1.35-1.25 -.02-.71-.52-1.25-1.342-1.25 -.83 0-1.359.54-1.359 1.24 0 .694.52 1.24 1.327 1.24h.01Zm4.9 8.212V9.34c0-.22.01-.44.08-.59 .17-.44.56-.88 1.23-.88 .86 0 1.21.66 1.21 1.63v3.865h2.401v-4.15c0-2.22-1.19-3.252-2.77-3.252 -1.28 0-1.85.7-2.17 1.19v.02h-.02l0-.001c0-.01.01-.02.01-.03V6.11h-2.4c.03.67 0 7.22 0 7.22h2.4Z"/></svg>