<svg viewBox="0 0 16 16" xmlns="http://www.w3.org/2000/svg"><path fill-rule="evenodd" d="M5 11.5v0c0-.28.22-.5.5-.5h9v0c.27 0 .5.22.5.5 0 .27-.23.5-.5.5h-9v0c-.28 0-.5-.23-.5-.5Zm0-4v0c0-.28.22-.5.5-.5h9v0c.27 0 .5.22.5.5 0 .27-.23.5-.5.5h-9v0c-.28 0-.5-.23-.5-.5Zm0-4v0c0-.28.22-.5.5-.5h9v0c.27 0 .5.22.5.5 0 .27-.23.5-.5.5h-9v0c-.28 0-.5-.23-.5-.5Zm-3 1v0c.55 0 1-.45 1-1 0-.56-.45-1-1-1v0c-.56 0-1 .44-1 1 0 .55.44 1 1 1Zm0 4v0c.55 0 1-.45 1-1 0-.56-.45-1-1-1v0c-.56 0-1 .44-1 1 0 .55.44 1 1 1Zm0 4v0c.55 0 1-.45 1-1 0-.56-.45-1-1-1v0c-.56 0-1 .44-1 1 0 .55.44 1 1 1Z"/></svg>