<svg viewBox="0 0 16 16" xmlns="http://www.w3.org/2000/svg"><path fill-rule="evenodd" d="M2 2.5v0c-.28 0-.5.22-.5.5v1 0c0 .27.22.5.5.5h1v0c.27 0 .5-.23.5-.5V3v0c0-.28-.23-.5-.5-.5H2ZM3 3H2v1h1V3Z"/><g><path d="M5 3.5v0c0-.28.22-.5.5-.5h9v0c.27 0 .5.22.5.5 0 .27-.23.5-.5.5h-9v0c-.28 0-.5-.23-.5-.5ZM5.5 7v0c-.28 0-.5.22-.5.5 0 .27.22.5.5.5h9v0c.27 0 .5-.23.5-.5 0-.28-.23-.5-.5-.5h-9Zm0 4v0c-.28 0-.5.22-.5.5 0 .27.22.5.5.5h9v0c.27 0 .5-.23.5-.5 0-.28-.23-.5-.5-.5h-9Z"/><path fill-rule="evenodd" d="M1.5 7v0c0-.28.22-.5.5-.5h1v0c.27 0 .5.22.5.5v1 0c0 .27-.23.5-.5.5H2v0c-.28 0-.5-.23-.5-.5V7ZM2 7h1v1H2V7Zm0 3.5v0c-.28 0-.5.22-.5.5v1 0c0 .27.22.5.5.5h1v0c.27 0 .5-.23.5-.5v-1 0c0-.28-.23-.5-.5-.5H2Zm1 .5H2v1h1v-1Z"/></g></svg>