<svg viewBox="0 0 16 16" xmlns="http://www.w3.org/2000/svg"><path fill-rule="evenodd" d="M5 11.5v0c0-.28.22-.5.5-.5h9v0c.27 0 .5.22.5.5 0 .27-.23.5-.5.5h-9v0c-.28 0-.5-.23-.5-.5Zm0-4v0c0-.28.22-.5.5-.5h9v0c.27 0 .5.22.5.5 0 .27-.23.5-.5.5h-9v0c-.28 0-.5-.23-.5-.5Zm0-4v0c0-.28.22-.5.5-.5h9v0c.27 0 .5.22.5.5 0 .27-.23.5-.5.5h-9v0c-.28 0-.5-.23-.5-.5Z"/><path d="M1.71 11.86v-.48h.28c.21 0 .363-.14.363-.32 0-.19-.16-.31-.37-.31 -.23 0-.367.15-.373.31h-.59c.01-.47.373-.79.98-.79 .58-.01.95.29.95.7v0c0 .29-.21.54-.492.59v.03h0c.32.02.57.3.56.63 0 .53-.51.8-1.06.8 -.66 0-1-.37-1.008-.8h.58c0 .17.18.3.42.3 .254 0 .42-.15.42-.35 -.01-.2-.16-.35-.42-.35h-.3ZM1.7 7.161h-.61v-.04c0-.41.29-.85.95-.85 .58 0 .96.32.96.75 0 .38-.26.617-.476.84l-.54.57v.03h1.05v.5H1.11v-.4l.95-.99c.13-.15.29-.31.29-.508 0-.18-.15-.32-.35-.32V6.74c-.19-.01-.34.13-.35.31 -.01 0-.01.01-.01.02v.04Zm.85-2.17H1.91V2.91h-.04l-.6.42v-.57l.629-.45h.63v2.66Z"/></svg>