<svg viewBox="0 0 16 16" xmlns="http://www.w3.org/2000/svg"><path d="M8.5 1.5v0c0-.28-.23-.5-.5-.5 -.28 0-.5.22-.5.5v5.243l-.5.35v-2.38c0-.95-.77-1.72-1.72-1.72 -.524 0-1.03.27-1.45.59 -.44.33-.847.77-1.22 1.22 -.74.9-1.35 1.94-1.58 2.48 -.18.4-.393 1.16-.556 2.01 -.17.85-.29 1.85-.241 2.75 .04.86.23 1.79.838 2.33 .67.6 1.62.55 2.74-.01l1.79-.9H5.6c.84-.43 1.38-1.29 1.38-2.24v-.77 0c0-.28-.23-.5-.5-.5 -.28 0-.5.22-.5.5v.76 0c-.01.56-.33 1.08-.83 1.34l-1.8.89c-.98.48-1.415.34-1.63.15 -.28-.25-.47-.81-.51-1.63 -.04-.8.06-1.71.22-2.53 .15-.82.357-1.5.49-1.8 .19-.44.75-1.4 1.44-2.25 .34-.43.7-.8 1.049-1.07 .35-.28.63-.39.83-.39v0c.39 0 .72.32.72.72v3.09L4.16 9.01v0c-.22.17-.26.48-.09.7 .15.2.44.24.66.11l3.21-2.3 3.21 2.29v0c.21.16.53.12.7-.1 .16-.22.12-.54-.1-.71 -.01-.01-.02-.02-.03-.02l-1.79-1.28v-3.1h-.001c0-.4.32-.72.72-.72 .19 0 .47.11.83.38 .34.266.7.64 1.05 1.06 .68.85 1.24 1.811 1.439 2.24 .13.3.33.98.49 1.8 .15.81.26 1.73.22 2.52 -.04.82-.23 1.38-.51 1.63 -.22.19-.65.33-1.63-.16l-1.795-.9v0c-.51-.26-.83-.78-.83-1.35v-.77 0c0-.28-.23-.5-.5-.5 -.28 0-.5.22-.5.5v.76 0c0 .94.53 1.81 1.38 2.23l1.795.89c1.12.56 2.07.6 2.74 0 .6-.54.798-1.47.83-2.33 .04-.91-.08-1.91-.24-2.76 -.17-.86-.38-1.61-.56-2.02 -.24-.54-.843-1.58-1.58-2.479 -.37-.46-.79-.9-1.22-1.229 -.42-.33-.92-.6-1.45-.6 -.95 0-1.72.77-1.72 1.72v2.38l-.5-.36V1.28Z"/></svg>