<svg viewBox="0 0 16 16" xmlns="http://www.w3.org/2000/svg"><path d="M9.5 2.67v0c0 .27.22.5.5.5 .27 0 .5-.23.5-.5V.84v0c0-.28-.23-.5-.5-.5 -.28 0-.5.22-.5.5v1.82Zm4.5.03v-.001c.19-.2.18-.52-.02-.71 -.2-.19-.51-.19-.7 0l-1.3 1.29v-.001c-.2.19-.21.5-.02.7 .19.19.5.2.7.01 0-.01 0-.01.01-.02l1.29-1.3ZM7.29 3.99v0c.19.19.5.2.7.01 .19-.2.2-.51.01-.71 -.01-.01-.01-.01-.02-.02l-1.3-1.3v0c-.2-.2-.52-.19-.71.01 -.19.19-.19.5 0 .69l1.29 1.29Zm-.63 2.5v0c.27 0 .5-.23.5-.5 0-.28-.23-.5-.5-.5H4.83v0c-.28 0-.5.22-.5.5 0 .27.22.5.5.5h1.82Zm8.485 0v0c.27 0 .5-.23.5-.5 0-.28-.23-.5-.5-.5h-1.83v0c-.28 0-.5.22-.5.5 0 .27.22.5.5.5h1.82Zm-1.87 3.5v0c.19.19.5.2.7.01 .19-.2.2-.51.01-.71 -.01-.01-.01-.01-.02-.02l-1.3-1.3v0c-.2-.2-.51-.21-.71-.02 -.2.19-.21.5-.02.7 0 0 0 0 .01.01l1.29 1.29Zm-3.8 1.157v0c0 .27.22.5.5.5 .27 0 .5-.23.5-.5v-1.83 0c0-.28-.23-.5-.5-.5 -.28 0-.5.22-.5.5v1.82Zm1.85-5.1v0c.19-.2.19-.52 0-.71l-.71-.71v0c-.2-.2-.52-.2-.71 0L8.6 5.91v0c-.2.19-.2.51 0 .7l.7.7v0c.19.19.51.19.7 0l1.29-1.3Zm-3 3v0c.19-.2.19-.52 0-.71l-.71-.71v0c-.2-.2-.52-.2-.71 0l-6.3 6.29v0c-.2.19-.2.51 0 .7l.708.7H1.31c.19.19.51.19.7 0L8.3 9.02Z"/></svg>