<svg viewBox="0 0 16 16" xmlns="http://www.w3.org/2000/svg"><path fill-rule="evenodd" d="M8.21 5.24c.92-1.26 1.95-2.25 3.26-2.25 2.47 0 4.51 3.15 4.51 6.9 0 2.29-.99 3.72-2.76 3.72 -1.55 0-2.4-.87-3.93-3.43l-.67-1.13 -.12-.2 -.001 0c-.18-.3-.36-.59-.53-.88L6.79 10.05c-1.673 2.92-2.62 3.54-3.923 3.54 -1.82 0-2.91-1.42-2.91-3.66 0-3.585 1.99-6.973 4.598-6.973 .31 0 .625.03.92.12 .31.08.61.22.91.4 .577.359 1.154.915 1.782 1.71Zm1.516 2.224c-.26-.41-.5-.79-.73-1.133l-.01-.01c.84-1.31 1.54-1.96 2.372-1.96 1.72 0 3.1 2.537 3.1 5.653 0 1.18-.39 1.87-1.2 1.87 -.78 0-1.15-.51-2.61-2.87L9.7 7.44Zm-4.89-2.72c.72.1 1.38.63 2.34 2L7.17 6.74c-.56.84-1.1 1.69-1.64 2.54 -1.36 2.12-1.826 2.6-2.581 2.6 -.78 0-1.24-.69-1.24-1.9C1.71 7.37 3 4.71 4.55 4.71c.09 0 .18 0 .27.01Z"/></svg>