<svg viewBox="0 0 16 16" xmlns="http://www.w3.org/2000/svg"><g><path d="M13 8c0 .56-.1 1.1-.27 1.61l-.82-.82h0c.05-.27.08-.54.08-.8v-1 0c0-.28.22-.5.5-.5 .27 0 .5.22.5.5v1Zm-5 4c.81 0 1.57-.25 2.21-.67l.718.71v0c-.72.51-1.56.83-2.43.92v2.02h3v0c.27 0 .5.22.5.5 0 .27-.23.5-.5.5h-7v0c-.28 0-.5-.23-.5-.5 0-.28.22-.5.5-.5h3v-2.03 0c-2.56-.26-4.51-2.41-4.5-4.98v-1 0c0-.28.22-.5.5-.5 .27 0 .5.22.5.5v1 0c0 2.2 1.79 4 4 4Zm3-9v4.879l-1-1V2.99v0C10 1.88 9.11.98 8 .98 6.93.97 6.05 1.8 5.99 2.87l-.85-.85v0C5.67.45 7.37-.39 8.94.14c1.21.41 2.03 1.55 2.03 2.83Z"/><path d="M9.486 10.607l-.75-.75v0c-1.03.4-2.19-.1-2.6-1.13 -.1-.24-.15-.49-.15-.74v-.88l-1-1v1.87 0c-.01 1.65 1.34 3 2.99 3 .52 0 1.03-.14 1.48-.4ZM1.64 1.35l12 12 .7-.71 -12-12 -.71.708Z"/></g></svg>