<svg viewBox="0 0 16 16" xmlns="http://www.w3.org/2000/svg"><path d="M4 15v0c-.56 0-1-.45-1-1 0-.56.44-1 1-1v0c.55 0 1 .44 1 1 0 .55-.45 1-1 1Zm0 1v0c1.1 0 2-.9 2-2 0-1.11-.9-2-2-2v0c-1.11 0-2 .89-2 2 0 1.1.89 2 2 2Zm8-1v0c-.56 0-1-.45-1-1 0-.56.44-1 1-1v0c.55 0 1 .44 1 1 0 .55-.45 1-1 1Zm0 1v0c1.1 0 2-.9 2-2 0-1.11-.9-2-2-2v0c-1.11 0-2 .89-2 2 0 1.1.89 2 2 2ZM.11 3.18H.11C.2 3.06.34 2.99.49 3h15v0c.27 0 .49.22.49.5 -.01.03-.01.06-.01.09l-1.5 8v0c-.05.23-.26.4-.5.4h-12v0c-.25-.01-.45-.18-.5-.41l-1.5-8h0c-.03-.15.01-.3.1-.42Zm.98.82L2.4 11h11.17l1.31-7H1.09Z"/></svg>