<svg viewBox="0 0 16 16" xmlns="http://www.w3.org/2000/svg"><path d="M6 .27v0c.19.24.23.58.08.85h-.001c-.58 1.06-.89 2.25-.88 3.46 0 4.02 3.27 7.27 7.318 7.27 .52 0 1.04-.06 1.53-.16v0c.3-.07.62.05.81.31h-.001c.19.27.18.63-.04.89h0c-1.59 1.95-3.98 3.08-6.49 3.07 -4.61 0-8.344-3.72-8.344-8.29C-.02 4.22 2.09 1.27 5.1.02v0c.3-.14.66-.05.87.21ZM4.85 1.303h0c-2.36 1.26-3.84 3.72-3.84 6.39 0 4.02 3.279 7.276 7.31 7.276h-.001c1.95 0 3.82-.78 5.2-2.17 -.34.04-.68.06-1.029.06 -4.61 0-8.343-3.72-8.343-8.29 0-1.17.242-2.28.681-3.29Z"/></svg>