<svg viewBox="0 0 16 16" xmlns="http://www.w3.org/2000/svg"><g><path d="M12 13c0 1.1-1.12 2-2.5 2C8.12 15 7 14.1 7 13c0-1.11 1.12-2 2.5-2s2.5.89 2.5 2Z"/><path fill-rule="evenodd" d="M12 3v10h-1V3h1Z"/><path d="M11 2.82v0c0-.48.33-.89.8-.98l3-.6v0c.54-.11 1.06.24 1.17.78 .01.06.01.12.01.19v1.78l-5 1V2.81Z"/><path fill-rule="evenodd" d="M0 11.5v0c0-.28.22-.5.5-.5H4v0c.27 0 .5.22.5.5 0 .27-.23.5-.5.5H.5v0c-.28 0-.5-.23-.5-.5Zm0-4v0c0-.28.22-.5.5-.5H8v0c.27 0 .5.22.5.5 0 .27-.23.5-.5.5H.5v0C.22 8 0 7.77 0 7.5Zm0-4v0c0-.28.22-.5.5-.5H8v0c.27 0 .5.22.5.5 0 .27-.23.5-.5.5H.5v0C.22 4 0 3.77 0 3.5Z"/></g></svg>