<svg viewBox="0 0 16 16" xmlns="http://www.w3.org/2000/svg"><g><path d="M8 10v0c.55 0 1-.45 1-1 0-.56-.45-1-1-1v0c-.56 0-1 .44-1 1 0 .55.44 1 1 1Z"/><path d="M4.5 9v0c0-1.94 1.56-3.5 3.5-3.5 1.93 0 3.5 1.56 3.5 3.5v0c0 1.93-1.57 3.5-3.5 3.5 -1.94 0-3.5-1.57-3.5-3.5ZM8 6.5v0C6.61 6.5 5.5 7.61 5.5 9c0 1.38 1.11 2.5 2.5 2.5v0c1.38 0 2.5-1.12 2.5-2.5 0-1.39-1.12-2.5-2.5-2.5Z"/><path d="M2 14.5v0c0 .27.22.5.5.5h11v0c.27 0 .5-.23.5-.5v-3.05 0c1.35-.28 2.22-1.6 1.95-2.95 -.2-.99-.97-1.76-1.96-1.96V4.49v0c0-.14-.06-.27-.15-.36l-2-2v0c-.1-.1-.23-.15-.36-.15h-7v0c-.14-.01-.27.05-.36.14l-2 2v0c-.1.09-.15.22-.15.35v2.05l-.001 0C.6 6.79-.27 8.11 0 9.46c.19.98.96 1.75 1.95 1.95v3.05Zm1-.5v-3 0c0-.28-.23-.5-.5-.5v0C1.67 10.5 1 9.82 1 9c0-.83.67-1.5 1.5-1.5v0c.27 0 .5-.23.5-.5V4.707l1.7-1.71h6.58l1.7 1.7V6.99v0c0 .27.22.5.5.5v0c.82 0 1.5.67 1.5 1.5 0 .82-.68 1.5-1.5 1.5v0c-.28 0-.5.22-.5.5v3h-10Z"/></g></svg>