<svg viewBox="0 0 16 16" xmlns="http://www.w3.org/2000/svg"><g><path d="M0 .5v0C0 .22.22 0 .5 0h5v0c.27 0 .5.22.5.5v5.277l4.14-4.131v0c.19-.2.51-.2.7 0l3.535 3.53v0c.19.19.19.51 0 .7 -.01 0-.01 0-.01 0l-4.128 4.11h5.23v0c.27 0 .5.22.5.5v5 0c0 .27-.23.5-.5.5H2.96v0c-.8 0-1.56-.32-2.13-.88h0c-.56-.56-.87-1.3-.88-2.08m6-.21l7.32-7.3 -2.83-2.828 -4.5 4.48v5.647Zm-1.5.16v0c0-.83-.68-1.5-1.5-1.5 -.83 0-1.5.67-1.5 1.5v0c0 .82.67 1.5 1.5 1.5 .82 0 1.5-.68 1.5-1.5Zm10.5 2v-4h-5.75l-4.015 4h9.75ZM-.05.47v12.49V.46Z"/><path d="M0 12.99v0 -.001c0-.01 0-.01 0-.01Z"/></g></svg>