<svg viewBox="0 0 16 16" xmlns="http://www.w3.org/2000/svg"><g><path d="M8 5v0c.82 0 1.5-.68 1.5-1.5C9.5 2.67 8.82 2 8 2v0c-.83 0-1.5.67-1.5 1.5C6.5 4.32 7.17 5 8 5Zm4 3v0c.82 0 1.5-.68 1.5-1.5 0-.83-.68-1.5-1.5-1.5v0c-.83 0-1.5.67-1.5 1.5 0 .82.67 1.5 1.5 1.5ZM5.5 7v0c0 .82-.68 1.5-1.5 1.5 -.83 0-1.5-.68-1.5-1.5v0c0-.83.67-1.5 1.5-1.5 .82 0 1.5.67 1.5 1.5Zm.5 6v0c.82 0 1.5-.68 1.5-1.5 0-.83-.68-1.5-1.5-1.5v0c-.83 0-1.5.67-1.5 1.5 0 .82.67 1.5 1.5 1.5Z"/><path d="M16 8c0 3.15-1.87 2.58-3.567 2.07 -1.013-.31-1.97-.6-2.433-.07 -.61.68-.48 1.81-.36 2.92 .17 1.57.34 3.08-1.65 3.08v0c-4.42 0-8-3.59-8-8 0-4.42 3.58-8 8-8 4.41 0 8 3.58 8 8Zm-8 7c.61 0 .65-.18.65-.18 .07-.15.12-.47.07-1.12 -.02-.17-.04-.37-.07-.6 -.06-.47-.12-1.01-.12-1.47 -.01-.71.08-1.61.7-2.314 .36-.42.84-.58 1.27-.62 .4-.04.81.02 1.16.1 .34.07.702.18 1.02.28l.02 0c.34.1.65.19.95.266 .65.14.9.08.99.02 .03-.03.32-.25.32-1.41v0c0-3.87-3.14-7-7-7 -3.87 0-7 3.13-7 7 0 3.86 3.13 7 7 7Z"/></g></svg>