<svg viewBox="0 0 16 16" xmlns="http://www.w3.org/2000/svg"><g><path d="M5.5 5v0c-.28 0-.5.22-.5.5 0 .27.22.5.5.5h5v0c.27 0 .5-.23.5-.5 0-.28-.23-.5-.5-.5h-5Zm0 2v0c-.28 0-.5.22-.5.5 0 .27.22.5.5.5h3v0c.27 0 .5-.23.5-.5 0-.28-.23-.5-.5-.5h-3Z"/><path d="M8 2v0c1.1 0 2-.9 2-2h2.5v0c.82 0 1.5.67 1.5 1.5v13 0c0 .82-.68 1.5-1.5 1.5h-9v0c-.83 0-1.5-.68-1.5-1.5v-13 0C2 .67 2.67 0 3.5 0H6v0c0 1.1.89 2 2 2Zm0 1h-.001c-1.28 0-2.41-.81-2.83-2H3.49V.999c-.28 0-.5.22-.5.5v13 0c0 .27.22.5.5.5h9v0c.27 0 .5-.23.5-.5v-13 0c0-.28-.23-.5-.5-.5h-1.67V.99c-.43 1.19-1.56 2-2.83 2Z"/></g></svg>