<svg viewBox="0 0 16 16" xmlns="http://www.w3.org/2000/svg"><path d="M8 1v0c0-.56.44-1 1-1h6v0c.55 0 1 .44 1 1v14 0c0 .55-.45 1-1 1H9v0c-.56 0-1-.45-1-1V1Zm1 13.5v0c0 .27.22.5.5.5 .27 0 .5-.23.5-.5v0c0-.28-.23-.5-.5-.5 -.28 0-.5.22-.5.5Zm2 0v0c0 .27.22.5.5.5 .27 0 .5-.23.5-.5v0c0-.28-.23-.5-.5-.5 -.28 0-.5.22-.5.5ZM9.5 1v0c-.28 0-.5.22-.5.5 0 .27.22.5.5.5h5v0c.27 0 .5-.23.5-.5 0-.28-.23-.5-.5-.5h-5ZM9 3.5v0c0 .27.22.5.5.5h5v0c.27 0 .5-.23.5-.5 0-.28-.23-.5-.5-.5h-5v0c-.28 0-.5.22-.5.5ZM1.5 2v0C.67 2 0 2.67 0 3.5v7 0c0 .82.67 1.5 1.5 1.5H6v2h-.5v0c-.28 0-.5.22-.5.5 0 .27.22.5.5.5H7v-4H1.5v0c-.28 0-.5-.23-.5-.5v-7 0c0-.28.22-.5.5-.5H7V2H1.5Z"/></svg>