<svg viewBox="0 0 16 16" xmlns="http://www.w3.org/2000/svg"><path d="M1 6v0c-.56 0-1 .44-1 1v3 0c0 .55.44 1 1 1h14v0c.55 0 1-.45 1-1V7v0c0-.56-.45-1-1-1H1Zm11.5 1v0c.27 0 .5.22.5.5 0 .27-.23.5-.5.5v0c-.28 0-.5-.23-.5-.5 0-.28.22-.5.5-.5Zm2 0v0c.27 0 .5.22.5.5 0 .27-.23.5-.5.5v0c-.28 0-.5-.23-.5-.5 0-.28.22-.5.5-.5ZM1 7.5v0c0-.28.22-.5.5-.5h5v0c.27 0 .5.22.5.5 0 .27-.23.5-.5.5h-5v0c-.28 0-.5-.23-.5-.5ZM1.25 9h5.5v0c.13 0 .25.11.25.25 0 .13-.12.25-.25.25h-5.5v0c-.14 0-.25-.12-.25-.25 0-.14.11-.25.25-.25Z"/></svg>