<svg viewBox="0 0 16 16" xmlns="http://www.w3.org/2000/svg"><g><path d="M15.502 1.94v0c.19.19.19.51 0 .7l-1.05 1.04 -2-2L13.492.63V.63c.19-.2.51-.2.7 0l1.29 1.29Zm-1.75 2.45l-2-2L4.93 9.204v0c-.06.05-.1.12-.13.19l-.81 2.41v0c-.05.13.02.27.15.31 .05.01.1.01.15 0l2.41-.81v0c.07-.03.14-.07.19-.12l6.813-6.82Z"/><path fill-rule="evenodd" d="M1 13.5v0c0 .82.67 1.5 1.5 1.5h11v0c.82 0 1.5-.68 1.5-1.5v-6 0c0-.28-.23-.5-.5-.5 -.28 0-.5.22-.5.5v6 0c0 .27-.23.5-.5.5h-11v0c-.28 0-.5-.23-.5-.5v-11 0c0-.28.22-.5.5-.5H9v0c.27 0 .5-.23.5-.5 0-.28-.23-.5-.5-.5H2.5v0C1.67 1 1 1.67 1 2.5v11Z"/></g></svg>