<svg viewBox="0 0 16 16" xmlns="http://www.w3.org/2000/svg"><path d="M12.14.14v0c.19-.2.51-.2.7-.01 0 0 0 0 0 0l3 3v-.001c.19.19.19.51 0 .7 -.01 0-.01 0-.01 0l-10 10v0c-.05.04-.11.08-.17.11l-5 2h0c-.26.1-.55-.03-.65-.28 -.05-.12-.05-.26 0-.38l2-5v0c.02-.07.06-.13.11-.17l10-10Zm-.94 2.35l2.29 2.29 1.29-1.3 -2.3-2.293 -1.3 1.29Zm1.58 3l-2.3-2.293 -6.5 6.5v.29h.5v0c.27 0 .5.22.5.5v.5h.5v0c.27 0 .5.22.5.5v.5h.29l6.5-6.5ZM3.01 10.66l-.11.1 -1.528 3.82 3.82-1.53 .1-.11v0c-.2-.08-.33-.26-.33-.47v-.5h-.5v0c-.28 0-.5-.23-.5-.5v-.5h-.5v0c-.21-.01-.4-.13-.47-.33Z"/></svg>