<svg viewBox="0 0 16 16" xmlns="http://www.w3.org/2000/svg"><path d="M15 14s1 0 1-1 -1-4-5-4 -5 3-5 4 1 1 1 1h8Zm-7.98-1v0c-.01-.01-.02-.01-.03-.01 0-.27.16-1.03.76-1.72 .55-.65 1.52-1.28 3.24-1.28 1.71 0 2.68.63 3.24 1.27 .593.69.75 1.45.76 1.72l-.01 0v0c-.01 0-.01 0-.02 0H7Zm3.97-6v0c1.1 0 2-.9 2-2 0-1.11-.9-2-2-2v0c-1.11 0-2 .89-2 2 0 1.1.89 2 2 2Zm3-2v0c0 1.65-1.35 3-3 3 -1.66 0-3-1.35-3-3v0c0-1.66 1.34-3 3-3 1.65 0 3 1.34 3 3ZM6.926 9.28v0c-.41-.13-.82-.21-1.23-.25v0c-.24-.03-.48-.04-.71-.04 -4 0-5 3-5 4 0 .66.33 1 1 1h4.216v0c-.15-.32-.23-.66-.22-1 0-1.01.37-2.042 1.09-2.904 .24-.3.52-.57.84-.82ZM4.9 10v0c-.6.88-.92 1.93-.92 3h-3c0-.26.16-1.03.76-1.73 .54-.64 1.49-1.26 3.16-1.28ZM1.48 5.5v0c0-1.66 1.34-3 3-3 1.65 0 3 1.34 3 3v0c0 1.65-1.35 3-3 3 -1.66 0-3-1.35-3-3Zm3-2v0c-1.11 0-2 .89-2 2 0 1.1.89 2 2 2v0c1.1 0 2-.9 2-2 0-1.11-.9-2-2-2Z"/></svg>