<svg viewBox="0 0 16 16" xmlns="http://www.w3.org/2000/svg"><path d="M13.442 2.558l-.001-.001c.24.24.24.63 0 .88 -.01 0-.01 0-.01 0l-10 10H3.43c-.25.24-.64.24-.89 0 -.25-.25-.25-.64-.01-.89 0 0 0-.01 0-.01l10-10v0c.24-.25.63-.25.88-.01 0 0 0 0 0 0ZM4.5 6v0C3.67 6 3 5.32 3 4.5 3 3.67 3.67 3 4.5 3v0C5.32 3 6 3.67 6 4.5 6 5.32 5.32 6 4.5 6Zm0 1v0C5.88 7 7 5.88 7 4.5 7 3.11 5.88 2 4.5 2v0C3.11 2 2 3.11 2 4.5 2 5.88 3.11 7 4.5 7Zm7 6v0c-.83 0-1.5-.68-1.5-1.5 0-.83.67-1.5 1.5-1.5v0c.82 0 1.5.67 1.5 1.5 0 .82-.68 1.5-1.5 1.5Zm0 1v0c1.38 0 2.5-1.12 2.5-2.5 0-1.39-1.12-2.5-2.5-2.5v0C10.11 9 9 10.11 9 11.5c0 1.38 1.11 2.5 2.5 2.5Z"/></svg>