<svg viewBox="0 0 16 16" xmlns="http://www.w3.org/2000/svg"><g><path d="M1.5 1v0c-.28 0-.5.22-.5.5v3 0c0 .27-.23.5-.5.5 -.28 0-.5-.23-.5-.5v-3 0C0 .67.67 0 1.5 0h3v0c.27 0 .5.22.5.5 0 .27-.23.5-.5.5h-3ZM11 .5v0c0-.28.22-.5.5-.5h3v0c.82 0 1.5.67 1.5 1.5v3 0c0 .27-.23.5-.5.5 -.28 0-.5-.23-.5-.5v-3 0c0-.28-.23-.5-.5-.5h-3v0c-.28 0-.5-.23-.5-.5ZM.5 11v0c.27 0 .5.22.5.5v3 0c0 .27.22.5.5.5h3v0c.27 0 .5.22.5.5 0 .27-.23.5-.5.5h-3v0C.67 16 0 15.32 0 14.5v-3 0c0-.28.22-.5.5-.5Zm15 0v0c.27 0 .5.22.5.5v3 0c0 .82-.68 1.5-1.5 1.5h-3v0c-.28 0-.5-.23-.5-.5 0-.28.22-.5.5-.5h3v0c.27 0 .5-.23.5-.5v-3 0c0-.28.22-.5.5-.5Z"/><path d="M3 14s-1 0-1-1 1-4 6-4 6 3 6 4 -1 1-1 1H3Zm8-9v0c0 1.65-1.35 3-3 3C6.34 8 5 6.65 5 5v0c0-1.66 1.34-3 3-3 1.65 0 3 1.34 3 3Z"/></g></svg>