<svg viewBox="0 0 16 16" xmlns="http://www.w3.org/2000/svg"><path fill-rule="evenodd" d="M1 14s-1 0-1-1 1-4 6-4 6 3 6 4 -1 1-1 1H1Zm5-6v0c1.65 0 3-1.35 3-3 0-1.66-1.35-3-3-3v0C4.34 2 3 3.34 3 5c0 1.65 1.34 3 3 3Zm6.14-2.86v0c.19-.2.51-.2.7-.01 0 0 0 0 0 0l1.14 1.14 1.14-1.15V5.11c.19-.2.51-.2.7 0 .19.19.19.51-.001.7l-1.15 1.146 1.14 1.14V8.1c.19.19.19.51 0 .7 -.2.19-.52.19-.71 0l-1.15-1.15 -1.15 1.14v0c-.2.19-.52.19-.71 0 -.2-.2-.2-.52-.001-.71l1.14-1.15 -1.15-1.146v0c-.2-.2-.2-.52-.01-.71 0-.01 0-.01 0-.01Z"/></svg>