<svg viewBox="0 0 16 16" xmlns="http://www.w3.org/2000/svg"><path d="M7.96 1.52c-2.98 0-5.571 1.7-6.32 4.12h-.55v0c-.56 0-1 .44-1 1 0 .05 0 .11.01.17L.35 8.27H.35c.12.71.74 1.24 1.47 1.24h.26c.3.51.68.97 1.145 1.38l-.73 2.47h0c-.08.26.07.54.33.62 .04.01.09.02.14.02h2v0c.21 0 .39-.14.47-.34l.48-1.36c.63.17 1.31.26 2.01.26 .7 0 1.388-.1 2.02-.28l.54 1.37v0c.07.19.25.31.46.31h2v0c.27-.01.49-.23.49-.51 -.01-.05-.01-.1-.03-.15l-.77-2.51c1.09-.99 1.782-2.317 1.782-3.81 0-.15-.01-.29-.02-.44 .26-.11.5-.266.7-.45 .31.3.81.3.81-.42 0 .22-.5.22-.47-.03v0c.04-.09.07-.17.09-.26h-.001c.04-.24-.03-.48-.21-.65h-.001c-.19-.2-.48-.24-.71-.1v0c-.21.11-.35.32-.375.56 -.03.24.08.48.32.65v0c-.09.05-.17.1-.26.15 -.54-2.67-3.29-4.595-6.442-4.595Zm7.17 3.87h0c-.02.07-.06.14-.1.21v-.001c-.02-.01-.03-.02-.05-.03 -.15-.09-.16-.18-.16-.23v0c0-.08.05-.14.11-.18 .04-.03.08-.03.11.01v0c.05.04.08.12.06.19ZM6.13 4.74v0c-.27.08-.55-.06-.64-.32 -.09-.27.05-.55.31-.64 .01-.01.03-.01.04-.02v0c.68-.2 1.39-.3 2.1-.3 .76 0 1.49.11 2.18.31l-.001-.001c.26.07.41.35.33.62 -.08.26-.36.41-.63.33v0c-.62-.19-1.26-.28-1.9-.28 -.64 0-1.26.09-1.83.25ZM4.99 6.23v0c0 .41-.34.75-.75.75 -.42 0-.75-.34-.75-.75v0c0-.42.33-.75.75-.75 .41 0 .75.33.75.75Z"/></svg>