<svg viewBox="0 0 16 16" xmlns="http://www.w3.org/2000/svg"><g><path d="M5 6.25v0c0 .41-.34.75-.75.75 -.42 0-.75-.34-.75-.75v0c0-.42.33-.75.75-.75 .41 0 .75.33.75.75Zm1.138-1.5l-.001-.001c.59-.17 1.2-.26 1.82-.26 .66 0 1.3.09 1.89.27v0c.26.07.54-.09.61-.35 .07-.26-.08-.53-.33-.61V3.79c-.71-.22-1.45-.32-2.18-.32 -.734 0-1.45.1-2.11.29v0c-.27.07-.42.35-.35.61s.35.41.61.34Z"/><path fill-rule="evenodd" d="M7.96 1.52c-2.98 0-5.571 1.7-6.32 4.12h-.55v0c-.56 0-1 .44-1 1 0 .05 0 .11.01.17L.35 8.27H.35c.12.71.74 1.24 1.47 1.24h.26c.3.51.68.97 1.145 1.38l-.73 2.47h0c-.08.26.07.54.33.62 .04.01.09.02.14.02h2v0c.21 0 .39-.14.47-.34l.48-1.36c.63.17 1.31.26 2.01.26 .7 0 1.388-.1 2.02-.28l.54 1.37v0c.07.19.25.31.46.31h2v0c.27-.01.49-.23.49-.51 -.01-.05-.01-.1-.03-.15l-.77-2.51c1.09-.99 1.782-2.317 1.782-3.81 0-.15-.01-.29-.02-.44 .26-.11.5-.266.7-.45 .31.3.81.3.81-.42 0 .22-.5.22-.47-.03v0c.04-.09.07-.17.09-.26h-.001c.04-.24-.03-.48-.21-.65h-.001c-.19-.2-.48-.24-.71-.1v0c-.21.11-.35.32-.375.56 -.03.24.08.48.32.65v0c-.09.05-.17.1-.26.15 -.54-2.67-3.29-4.595-6.442-4.595ZM2.51 6.253c.45-2.066 2.66-3.74 5.44-3.74 3.14 0 5.536 2.114 5.536 4.54 0 1.25-.63 2.41-1.67 3.24v0c-.16.12-.23.33-.17.53l.66 2.17h-.99l-.59-1.49h-.001c-.1-.25-.38-.38-.63-.29 -.67.23-1.39.35-2.157.35v0c-.74 0-1.47-.12-2.157-.36v0c-.26-.1-.55.04-.64.3l-.53 1.471h-.98l.63-2.15v0c.05-.2-.01-.41-.17-.54H4.09c-.54-.42-.98-.95-1.29-1.55v0c-.09-.17-.26-.28-.45-.28h-.56v0c-.25-.01-.46-.18-.492-.42L1.04 6.57h.93v0c.23-.01.43-.17.488-.4Zm12.62-.86v0c-.02.07-.06.14-.1.21V5.6c-.02-.01-.03-.02-.05-.03 -.15-.09-.16-.18-.16-.23v0c0-.08.05-.14.11-.18 .04-.03.08-.03.11.01v0c.05.04.08.12.06.19Z"/></g></svg>