<svg viewBox="0 0 16 16" xmlns="http://www.w3.org/2000/svg"><path d="M9.828.722v0c.13-.01.26.05.35.14l4.95 4.95v0c.19.19.19.51 0 .7 -.48.48-1.08.58-1.51.58 -.18 0-.34-.02-.46-.04l-3.14 3.13v0c.08.33.13.67.16 1.013 .04.702-.04 1.68-.72 2.375v0c-.2.19-.52.19-.71 0l-2.83-2.83 -3.19 3.18c-.2.19-1.22.9-1.414.7 -.2-.2.512-1.22.7-1.42l3.18-3.19 -2.83-2.83H2.36c-.2-.2-.2-.52 0-.71 .68-.69 1.67-.77 2.37-.72v-.001c.34.02.68.07 1.013.16l3.13-3.133h0c-.03-.16-.04-.31-.04-.47 0-.43.1-1.022.58-1.503v0c.09-.1.22-.15.35-.15Z"/></svg>