<svg viewBox="0 0 16 16" xmlns="http://www.w3.org/2000/svg"><path d="M8-.001v-.001c-4.42-.01-8.01 3.57-8.01 7.99 -.01 3.29 2.01 6.25 5.09 7.45 -.07-.64-.14-1.61.02-2.3 .14-.625.93-3.98.93-3.98s-.24-.48-.24-1.19c0-1.12.64-1.95 1.44-1.95 .68 0 1.01.51 1.01 1.12 0 .68-.44 1.71-.67 2.66 -.19.79.4 1.44 1.18 1.44 1.42 0 2.51-1.5 2.51-3.67 0-1.915-1.38-3.26-3.35-3.26C5.63 4.3 4.29 6 4.29 7.77c0 .68.26 1.42.59 1.82H4.87c.05.06.07.14.05.23 -.07.25-.2.79-.23.907 -.04.14-.12.17-.27.1 -1-.47-1.63-1.93-1.63-3.1 0-2.53 1.83-4.84 5.286-4.84 2.77 0 4.93 1.97 4.93 4.62 0 2.75-1.74 4.97-4.151 4.97 -.82 0-1.58-.43-1.84-.92l-.5 1.9c-.19.69-.67 1.56-1 2.09v0c4.22 1.3 8.7-1.06 10-5.28 1.3-4.23-1.06-8.71-5.28-10.01C9.47.02 8.68-.1 7.88-.1Z"/></svg>