<svg viewBox="0 0 16 16" xmlns="http://www.w3.org/2000/svg"><path fill-rule="evenodd" d="M1 8l-.001-.001c0-3.87 3.13-7 7-7 3.86 0 6.99 3.13 6.99 7 -.01 3.86-3.14 6.99-7.01 6.99 -1.48-.01-2.91-.47-4.11-1.33 -.17-.13-.22-.41-.01-.62l1.8-1.8 -.001-.001c1.39 1.04 3.34.9 4.57-.33l1.41-1.42v0c.19-.2.19-.52 0-.71l-.71-.71 1.55-1.57v0c.19-.2.2-.51.01-.71 -.2-.2-.51-.21-.71-.02 -.01 0-.01 0-.02.01l-1.56 1.56 -1.42-1.42 1.56-1.57v0c.2-.19.21-.51.02-.71 -.19-.21-.51-.22-.71-.03 -.02 0-.02.01-.03.02L8.05 5.18l-.71-.71v0c-.2-.2-.52-.2-.71 0L5.21 5.88H5.21c-1.24 1.23-1.38 3.17-.33 4.57l-1.8 1.8c-.58.58-.62 1.6.121 2.13h0c3.57 2.58 8.58 1.78 11.17-1.8C16.95 9 16.15 3.99 12.57 1.4 8.99-1.19 3.98-.39 1.39 3.19 .4 4.55-.13 6.19-.13 7.87v0c0 .27.22.5.5.5 .27 0 .5-.23.5-.5Z"/></svg>