<svg viewBox="0 0 16 16" xmlns="http://www.w3.org/2000/svg"><path fill-rule="evenodd" d="M2 2v0C.89 2 0 2.89 0 4v8 0c0 1.1.89 2 2 2h12v0c1.1 0 2-.9 2-2V4v0c0-1.11-.9-2-2-2H2Zm6 2.5v0c0-.28-.23-.5-.5-.5 -.28 0-.5.22-.5.5v7 0c0 .27.22.5.5.5 .27 0 .5-.23.5-.5v-7Zm3.5.87c1.48-1.42 4.79 1.39 0 4.622 -4.795-3.23-1.49-6.043 0-4.63ZM2 5.49v0c0-.28.22-.5.5-.5h3v0c.27 0 .5.22.5.5 0 .27-.23.5-.5.5h-3v0c-.28 0-.5-.23-.5-.5Zm0 2v0c0-.28.22-.5.5-.5h3v0c.27 0 .5.22.5.5 0 .27-.23.5-.5.5h-3v0c-.28 0-.5-.23-.5-.5Zm0 2v0c0-.28.22-.5.5-.5h3v0c.27 0 .5.22.5.5 0 .27-.23.5-.5.5h-3v0c-.28 0-.5-.23-.5-.5Z"/></svg>