<svg viewBox="0 0 16 16" xmlns="http://www.w3.org/2000/svg"><g><path d="M3.5 1v0c.55 0 1-.45 1-1h1v0c0 .55.44 1 1 1 .55 0 1-.45 1-1h1v0c0 .55.44 1 1 1 .55 0 1-.45 1-1h1v0c0 .55.44 1 1 1 .55 0 1-.45 1-1H15v1 0c-.56 0-1 .44-1 1 0 .55.44 1 1 1v1 0c-.56 0-1 .44-1 1 0 .55.44 1 1 1v1 0c-.56 0-1 .44-1 1 0 .55.44 1 1 1v1 0c-.56 0-1 .44-1 1 0 .55.44 1 1 1v1 0c-.56 0-1 .44-1 1 0 .55.44 1 1 1v1h-1.5v0c0-.56-.45-1-1-1 -.56 0-1 .44-1 1h-1v0c0-.56-.45-1-1-1 -.56 0-1 .44-1 1h-1v0c0-.56-.45-1-1-1 -.56 0-1 .44-1 1h-1v0c0-.56-.45-1-1-1 -.56 0-1 .44-1 1H1v-1 0c.55 0 1-.45 1-1 0-.56-.45-1-1-1v-1 0c.55 0 1-.45 1-1 0-.56-.45-1-1-1V9v0c.55 0 1-.45 1-1 0-.56-.45-1-1-1V6v0c.55 0 1-.45 1-1 0-.56-.45-1-1-1V3v0c.55 0 1-.45 1-1 0-.56-.45-1-1-1V0h1.5v0c0 .55.44 1 1 1ZM3 3v10 0c0 .55.44 1 1 1h8v0c.55 0 1-.45 1-1V3v0c0-.56-.45-1-1-1H4v0c-.56 0-1 .44-1 1Z"/><path d="M8 11C2.175 7.23 6.33 4.31 8 5.982 9.66 4.309 13.82 7.232 8 11Z"/></g></svg>