<svg viewBox="0 0 16 16" xmlns="http://www.w3.org/2000/svg"><g><path d="M4.75 3v0c-.42 0-.75.33-.75.75v8.5c0 .41.33.75.75.75h6.5v0c.41 0 .75-.34.75-.75v-8.5 0c0-.42-.34-.75-.75-.75h-6.5ZM11 12H5V4h6v8Z"/><path d="M3.5 1v0c.55 0 1-.45 1-1h1v0c0 .55.44 1 1 1 .55 0 1-.45 1-1h1v0c0 .55.44 1 1 1 .55 0 1-.45 1-1h1v0c0 .55.44 1 1 1 .55 0 1-.45 1-1H15v1 0c-.56 0-1 .44-1 1 0 .55.44 1 1 1v1 0c-.56 0-1 .44-1 1 0 .55.44 1 1 1v1 0c-.56 0-1 .44-1 1 0 .55.44 1 1 1v1 0c-.56 0-1 .44-1 1 0 .55.44 1 1 1v1 0c-.56 0-1 .44-1 1 0 .55.44 1 1 1v1h-1.5v0c0-.56-.45-1-1-1 -.56 0-1 .44-1 1h-1v0c0-.56-.45-1-1-1 -.56 0-1 .44-1 1h-1v0c0-.56-.45-1-1-1 -.56 0-1 .44-1 1h-1v0c0-.56-.45-1-1-1 -.56 0-1 .44-1 1H1v-1 0c.55 0 1-.45 1-1 0-.56-.45-1-1-1v-1 0c.55 0 1-.45 1-1 0-.56-.45-1-1-1V9v0c.55 0 1-.45 1-1 0-.56-.45-1-1-1V6v0c.55 0 1-.45 1-1 0-.56-.45-1-1-1V3v0c.55 0 1-.45 1-1 0-.56-.45-1-1-1V0h1.5v0c0 .55.44 1 1 1ZM3 3v10 0c0 .55.44 1 1 1h8v0c.55 0 1-.45 1-1V3v0c0-.56-.45-1-1-1H4v0c-.56 0-1 .44-1 1Z"/></g></svg>