<svg viewBox="0 0 16 16" xmlns="http://www.w3.org/2000/svg"><g fill-rule="evenodd"><path d="M5.5 6v0c-.28 0-.5.22-.5.5v4 0c0 .27.22.5.5.5 .27 0 .5-.23.5-.5V9h.29l2 2 -1.15 1.14v0c-.2.19-.2.51 0 .7 .19.19.51.19.7 0l1.14-1.15 1.14 1.14v0c.19.19.51.19.7 0 .19-.2.19-.52 0-.71l-1.15-1.15 1.14-1.15v0c.19-.2.19-.52 0-.71 -.2-.2-.52-.2-.71-.001l-1.15 1.14 -1.31-1.31H7.63c.82-.11 1.39-.87 1.28-1.69 -.1-.75-.74-1.31-1.49-1.31h-2ZM6 7v1h1.5v0c.27 0 .5-.23.5-.5 0-.28-.23-.5-.5-.5H6Z"/><path d="M2 1v0c0-.56.44-1 1-1h10v0c.55 0 1 .44 1 1v2 0c0 .55-.45 1-1 1v10.5 0c0 .82-.68 1.5-1.5 1.5h-7v0c-.83 0-1.5-.68-1.5-1.5V4v0c-.56 0-1-.45-1-1V1Zm2 3h8v10.5 0c0 .27-.23.5-.5.5h-7v0c-.28 0-.5-.23-.5-.5V4ZM3 3V1h10v2H3Z"/></g></svg>