<svg viewBox="0 0 16 16" xmlns="http://www.w3.org/2000/svg"><g><path d="M2.5 8v0c.27 0 .5-.23.5-.5 0-.28-.23-.5-.5-.5v0c-.28 0-.5.22-.5.5 0 .27.22.5.5.5Z"/><path d="M5 1v0c-1.11 0-2 .89-2 2v2H2v0C.89 5 0 5.89 0 7v3 0c0 1.1.89 2 2 2h1v1 0c0 1.1.89 2 2 2h6v0c1.1 0 2-.9 2-2v-1h1v0c1.1 0 2-.9 2-2V7v0c0-1.11-.9-2-2-2h-1V3v0c0-1.11-.9-2-2-2H5ZM4 3v0c0-.56.44-1 1-1h6v0c.55 0 1 .44 1 1v2H4V3Zm1 5v0c-1.11 0-2 .89-2 2v1H2v0c-.56 0-1-.45-1-1V7v0c0-.56.44-1 1-1h12v0c.55 0 1 .44 1 1v3 0c0 .55-.45 1-1 1h-1v-1 0c0-1.11-.9-2-2-2H5Zm7 2v3 0c0 .55-.45 1-1 1H5v0c-.56 0-1-.45-1-1v-3 0c0-.56.44-1 1-1h6v0c.55 0 1 .44 1 1Z"/></g></svg>