<svg viewBox="0 0 16 16" xmlns="http://www.w3.org/2000/svg"><g><path d="M14 7.5v0c0 .82-.68 1.5-1.5 1.5 -.83 0-1.5-.68-1.5-1.5v0c0-.83.67-1.5 1.5-1.5 .82 0 1.5.67 1.5 1.5ZM2.5 6v0c-.28 0-.5.22-.5.5 0 .27.22.5.5.5h4v0c.27 0 .5-.23.5-.5 0-.28-.23-.5-.5-.5h-4Zm0 2v0c-.28 0-.5.22-.5.5 0 .27.22.5.5.5h4v0c.27 0 .5-.23.5-.5 0-.28-.23-.5-.5-.5h-4Z"/><path d="M0 6v0c0-1.11.89-2 2-2h12v0c1.1 0 2 .89 2 2v3 0c0 1.1-.9 2-2 2v0c0 .55-.45 1-1 1h-1v0c-.56 0-1-.45-1-1H5v0c0 .55-.45 1-1 1H3v0c-.56 0-1-.45-1-1v0c-1.11 0-2-.9-2-2V6Zm2-1v0c-.56 0-1 .44-1 1v3 0c0 .55.44 1 1 1h12v0c.55 0 1-.45 1-1V6v0c0-.56-.45-1-1-1H2Z"/></g></svg>