<svg viewBox="0 0 16 16" xmlns="http://www.w3.org/2000/svg"><path d="M9.05.43c-.58-.58-1.52-.58-2.1 0L.43 6.94c-.58.58-.58 1.51 0 2.098l6.516 6.516c.58.58 1.51.58 2.09 0l6.516-6.516c.58-.58.58-1.52 0-2.098L9.03.42ZM5.49 6.02v0c-.14 0-.24-.11-.25-.24 -.01-.01 0-.01 0-.02 .09-1.7 1.48-2.29 2.75-2.29 1.39 0 2.67.73 2.67 2.24 0 1.08-.64 1.59-1.25 2.05 -.74.55-1.01.76-1.01 1.48v.1 0c0 .13-.12.25-.25.25h-.81v-.001c-.14 0-.25-.11-.25-.25l-.01-.22c-.04-.93.49-1.5 1.16-1.987 .59-.45.96-.74.96-1.38 0-.83-.63-1.17-1.32-1.17 -.81 0-1.26.47-1.35 1.13 -.02.13-.13.25-.266.25h-.83Zm2.325 6.44c-.59 0-1.01-.4-1.01-.93 0-.56.42-.94 1.01-.94 .6 0 1.02.38 1.02.94 0 .53-.42.92-1.03.92Z"/></svg>