<svg viewBox="0 0 16 16" xmlns="http://www.w3.org/2000/svg"><path d="M5.25 5.78v0c-.01.13.09.24.22.24 0 0 0 0 .01 0h.82c.13 0 .24-.12.266-.25 .09-.66.54-1.14 1.34-1.14 .68 0 1.31.34 1.31 1.16 0 .63-.38.92-.97 1.37 -.68.48-1.21 1.06-1.17 1.987l0 .21v0c0 .13.11.24.25.24h.81v0c.13 0 .25-.12.25-.25v-.11c0-.718.27-.93 1.01-1.49 .6-.47 1.24-.98 1.24-2.06 0-1.52-1.28-2.25-2.68-2.25 -1.27 0-2.66.59-2.75 2.28Zm1.55 5.76c0 .53.42.92 1.01.92 .6 0 1.02-.4 1.02-.93 0-.56-.42-.94-1.03-.94 -.59 0-1.01.38-1.01.94Z"/></svg>