<svg viewBox="0 0 16 16" xmlns="http://www.w3.org/2000/svg"><path d="M11.46.14v0c-.1-.1-.23-.15-.36-.15H4.88v0c-.14 0-.26.05-.36.14L.12 4.524h0c-.1.09-.15.22-.15.35v6.21 0c0 .13.05.25.14.35l4.39 4.394h0c.09.09.22.14.35.14h6.21v0c.13-.01.25-.06.35-.15l4.39-4.4v0c.09-.1.14-.23.14-.36v-6.22 0c-.01-.14-.06-.26-.15-.36L11.396.08ZM5.496 6.02v0c-.14 0-.24-.11-.25-.24 -.01-.01 0-.01 0-.02 .09-1.7 1.48-2.29 2.74-2.29 1.39 0 2.67.73 2.67 2.24 0 1.08-.64 1.59-1.25 2.05 -.74.55-1.01.76-1.01 1.48v.1 0c0 .13-.12.25-.25.25h-.81v-.001c-.14 0-.25-.11-.25-.25l-.01-.22c-.04-.93.49-1.5 1.16-1.987 .59-.45.96-.74.96-1.38 0-.83-.63-1.17-1.314-1.17 -.81 0-1.26.47-1.35 1.13 -.02.13-.13.25-.266.25h-.83Zm2.32 6.44c-.59 0-1.01-.4-1.01-.93 0-.56.42-.94 1.01-.94 .609 0 1.02.38 1.02.94 0 .53-.42.92-1.029.92Z"/></svg>