<svg viewBox="0 0 16 16" xmlns="http://www.w3.org/2000/svg"><g><path d="M6.95.43c.58-.58 1.52-.58 2.1 0l6.51 6.51c.58.58.58 1.51 0 2.09l-6.52 6.51c-.58.58-1.52.58-2.098 0L.42 9.02H.42c-.58-.58-.59-1.52-.01-2.1 0-.01 0-.01 0-.01L6.924.39Zm1.4.7v-.001c-.2-.2-.51-.2-.7 0L1.13 7.644v0c-.2.19-.2.5-.001.7l6.516 6.516v0c.19.19.5.19.7 0l6.51-6.516v0c.19-.2.19-.51 0-.7L8.33 1.12Z"/><path d="M5.25 5.78v0c-.01.13.09.24.22.24 0 0 0 0 .01 0h.82c.13 0 .24-.12.266-.25 .09-.66.54-1.14 1.34-1.14 .68 0 1.31.34 1.31 1.16 0 .63-.38.92-.97 1.37 -.68.48-1.21 1.06-1.17 1.987l0 .21v0c0 .13.11.24.25.24h.81v0c.13 0 .25-.12.25-.25v-.11c0-.718.27-.93 1.01-1.49 .6-.47 1.24-.98 1.24-2.06 0-1.52-1.28-2.25-2.68-2.25 -1.27 0-2.66.59-2.75 2.28Zm1.55 5.76c0 .53.42.92 1.01.92 .6 0 1.02-.4 1.02-.93 0-.56-.42-.94-1.03-.94 -.59 0-1.01.38-1.01.94Z"/></g></svg>