<svg viewBox="0 0 16 16" xmlns="http://www.w3.org/2000/svg"><g><path d="M8 1v0C4.13 1 1 4.13 1 8c0 3.86 3.13 7 7 7v0c3.86 0 7-3.14 7-7 0-3.87-3.14-7-7-7ZM0 8v0c0-4.42 3.58-8 8-8 4.41 0 8 3.58 8 8v0c0 4.41-3.59 8-8 8 -4.42 0-8-3.59-8-8Z"/><path d="M9.65 5.496v0c-.5-.33-1.07-.5-1.66-.5 -.61 0-1.18.18-1.66.49L4.67 2.97l0-.001c.98-.65 2.13-1 3.3-1 1.22 0 2.35.36 3.3.992l-1.66 2.5Zm1.34 2.324v0c.05.86-.27 1.7-.89 2.31v0c-.23.22-.49.4-.77.55l1.34 2.683c.57-.29 1.09-.66 1.53-1.11v-.001c1.22-1.22 1.87-2.9 1.76-4.63l-3 .18Zm-5.68 5.548l1.34-2.69v0C5.57 10.13 4.92 9 4.99 7.8l-3-.18 0 0c-.15 2.39 1.15 4.65 3.3 5.72ZM9.99 8v0c0 1.1-.9 2-2 2 -1.11 0-2-.9-2-2v0c0-1.11.89-2 2-2 1.1 0 2 .89 2 2Z"/></g></svg>