<svg viewBox="0 0 16 16" xmlns="http://www.w3.org/2000/svg"><g><path d="M3 4.5v0c0-.28.22-.5.5-.5h6v0c.27 0 .5.22.5.5 0 .27-.23.5-.5.5h-6v0c-.28 0-.5-.23-.5-.5Zm0 2v0c0-.28.22-.5.5-.5h6v0c.27 0 .5.22.5.5 0 .27-.23.5-.5.5h-6v0c-.28 0-.5-.23-.5-.5Zm0 2v0c0-.28.22-.5.5-.5h6v0c.27 0 .5.22.5.5 0 .27-.23.5-.5.5h-6v0c-.28 0-.5-.23-.5-.5Zm0 2v0c0-.28.22-.5.5-.5h6v0c.27 0 .5.22.5.5 0 .27-.23.5-.5.5h-6v0c-.28 0-.5-.23-.5-.5Zm0 2v0c0-.28.22-.5.5-.5h6v0c.27 0 .5.22.5.5 0 .27-.23.5-.5.5h-6v0c-.28 0-.5-.23-.5-.5ZM11.5 4v0c-.28 0-.5.22-.5.5 0 .27.22.5.5.5h1v0c.27 0 .5-.23.5-.5 0-.28-.23-.5-.5-.5h-1Zm0 2v0c-.28 0-.5.22-.5.5 0 .27.22.5.5.5h1v0c.27 0 .5-.23.5-.5 0-.28-.23-.5-.5-.5h-1Zm0 2v0c-.28 0-.5.22-.5.5 0 .27.22.5.5.5h1v0c.27 0 .5-.23.5-.5 0-.28-.23-.5-.5-.5h-1Zm0 2v0c-.28 0-.5.22-.5.5 0 .27.22.5.5.5h1v0c.27 0 .5-.23.5-.5 0-.28-.23-.5-.5-.5h-1Zm0 2v0c-.28 0-.5.22-.5.5 0 .27.22.5.5.5h1v0c.27 0 .5-.23.5-.5 0-.28-.23-.5-.5-.5h-1Z"/><path d="M2.35.64V.639c-.2-.2-.52-.2-.71-.01 -.04.03-.07.08-.1.13l-.5 1v0c-.04.06-.06.14-.06.22v13h-.5v0c-.28 0-.5.22-.5.5 0 .27.22.5.5.5h15v0c.27 0 .5-.23.5-.5 0-.28-.23-.5-.5-.5h-.5v-13 0c-.01-.08-.02-.16-.06-.23l-.5-1V.74c-.13-.25-.43-.35-.68-.23 -.05.02-.1.05-.13.09l-.65.64 -.65-.65V.59c-.2-.2-.52-.2-.71-.01 -.01 0-.01 0-.01 0l-.65.64 -.65-.65V.57c-.2-.2-.52-.2-.71-.01 -.01 0-.01 0-.01 0l-.65.64 -.65-.65v0c-.2-.2-.52-.2-.71-.01 -.01 0-.01 0-.01 0l-.65.64 -.65-.65v0c-.2-.2-.52-.2-.71-.01 -.01 0-.01 0-.01 0l-.65.64 -.65-.65v0c-.2-.2-.52-.2-.71-.01 -.01 0-.01 0-.01 0l-.65.64 -.65-.65Zm-.22 1.19l.51.51v0c.19.19.51.19.7 0l.64-.65 .64.64v0c.19.19.51.19.7 0 0-.01 0-.01 0-.01l.64-.65 .64.64v0c.19.19.51.19.7 0 0-.01 0-.01 0-.01l.64-.65 .64.64v0c.19.19.51.19.7 0 0-.01 0-.01 0-.01l.64-.65 .64.64v0c.19.19.51.19.7 0 0-.01 0-.01 0-.01l.64-.65 .64.64v0c.19.19.51.19.7 0 0-.01 0-.01 0-.01l.5-.51 .13.274V14.88h-12V2L2 1.72Z"/></g></svg>