<svg viewBox="0 0 16 16" xmlns="http://www.w3.org/2000/svg"><g><path d="M6.16 8v-.001c-.46 0-.83.37-.83.83 0 .45.37.84.83.83v0c.45-.02.81-.41.8-.86 -.02-.44-.37-.79-.81-.81Zm1.843 3.64c.31 0 1.4-.04 1.97-.62v-.001c.07-.09.07-.22 0-.31v0c-.09-.09-.22-.09-.31-.01 -.01 0-.01 0-.01 0 -.36.36-1.13.48-1.67.48 -.55 0-1.31-.13-1.68-.49v0c-.09-.09-.22-.09-.31-.01 -.01 0-.01 0-.01 0v0c-.09.08-.09.21-.01.3 0 0 0 0 0 0 .56.56 1.65.61 1.97.61Zm.99-2.81c0 .45.37.83.83.83 .45 0 .83-.39.83-.83v0c-.03-.46-.42-.82-.88-.79 -.43.02-.77.36-.79.78Z"/><path d="M16 8v0c0 4.41-3.59 8-8 8 -4.42 0-8-3.59-8-8v0c0-4.42 3.58-8 8-8 4.41 0 8 3.58 8 8Zm-3.83-1.165c-.32 0-.61.12-.82.32 -.81-.58-1.9-.95-3.13-1l.53-2.501 1.73.37h0c.02.45.41.81.86.79 .45-.03.81-.42.79-.87 -.03-.45-.39-.8-.83-.8v0c-.32 0-.61.18-.75.46l-1.94-.41 0 0c-.06-.02-.11-.01-.16.02v-.001c-.05.02-.08.07-.09.13l-.6 2.78c-1.24.03-2.36.41-3.17.992 -.21-.2-.5-.33-.81-.33v0c-.65-.01-1.17.51-1.17 1.16 -.01.45.26.87.68 1.06 -.02.11-.03.23-.03.35 0 1.79 2.09 3.25 4.66 3.25 2.577 0 4.66-1.46 4.66-3.26 0-.12-.01-.24-.03-.36 .4-.19.68-.6.68-1.07 0-.65-.53-1.165-1.17-1.165Z"/></g></svg>