<svg viewBox="0 0 16 16" xmlns="http://www.w3.org/2000/svg"><g><path d="M8.09 5.01v0c.07-.04.15 0 .18.07 0 .01.01.03.01.06v1.15 0c0 .27.22.5.5.5 .66 0 2.013 0 3.3.82 .984.62 1.99 1.76 2.59 3.87 -1.02-.99-2.19-1.52-3.205-1.8v-.001c-.63-.18-1.28-.28-1.93-.31h0c-.27-.02-.54-.01-.798 0h-.02l-.01 0h-.01l.04.49 -.05-.5v0c-.26.02-.46.24-.45.49v1.15c0 .1-.11.17-.21.13L4.03 8.19V8.19c-.02-.02-.03-.02-.05-.03v0c-.07-.05-.1-.14-.06-.21 .01-.03.02-.04.05-.06v0c.01-.01.02-.02.04-.03L8 4.93Zm1.2 5.37c.06 0 .14 0 .22 0 .43.02 1.03.08 1.7.27 1.32.36 2.89 1.2 3.94 3.08v0c.13.24.43.32.68.19 .17-.1.27-.3.25-.5 -.47-3.71-1.89-5.662-3.46-6.66 -1.25-.79-2.53-.95-3.34-.98v-.66 0c0-.64-.52-1.15-1.15-1.15 -.23-.01-.44.06-.63.18l-4 2.94v0c-.54.33-.71 1.04-.37 1.58 .09.14.21.27.36.36l3.99 2.94v0c.52.34 1.23.19 1.58-.34 .12-.19.18-.41.18-.63v-.67Z"/><path d="M5.23 4.29v0c-.17-.23-.48-.28-.7-.11 -.01 0-.01 0-.01 0L.52 7.12 .52 7.11c-.54.33-.71 1.04-.37 1.58 .09.14.21.27.36.36l3.99 2.94v0c.21.16.53.12.7-.1 .16-.22.12-.54-.1-.71 -.01-.01-.01-.01-.02-.02L1.06 8.2h0c-.02-.02-.03-.02-.05-.03H1.01c-.07-.05-.1-.14-.06-.21 .01-.03.02-.04.05-.06l0 0c.01-.01.02-.02.04-.03l4.01-2.96v0c.22-.17.26-.48.1-.7Z"/></g></svg>