<svg viewBox="0 0 16 16" xmlns="http://www.w3.org/2000/svg"><g><path d="M7.21 5.09v0c.22-.17.53-.11.69.11 .06.08.09.18.09.28v1.88l3.21-2.293v0c.22-.17.53-.11.69.11 .06.08.09.18.09.28v5 0c-.01.27-.23.49-.51.49 -.11-.01-.21-.04-.29-.1l-3.21-2.3v1.88 0c-.01.27-.23.49-.51.49 -.11-.01-.21-.04-.29-.1l-3.5-2.5v0c-.23-.17-.28-.48-.12-.7 .03-.05.07-.09.11-.12l3.5-2.5Z"/><path d="M0 4v0c0-1.11.89-2 2-2h12v0c1.1 0 2 .89 2 2v8 0c0 1.1-.9 2-2 2H2v0c-1.11 0-2-.9-2-2V4Zm15 0v0c0-.56-.45-1-1-1H2v0c-.56 0-1 .44-1 1v8 0c0 .55.44 1 1 1h12v0c.55 0 1-.45 1-1V4Z"/></g></svg>