<svg viewBox="0 0 16 16" xmlns="http://www.w3.org/2000/svg"><g><path d="M9.77 9.41v0c-.77.79-2.04.81-2.83.04 -.8-.77-.82-2.04-.05-2.83 .01-.02.03-.04.04-.05v0c.79-.77 2.06-.75 2.82.04 .74.77.74 2 0 2.77Z"/><path d="M2.5 0v0C1.67 0 1 .67 1 1.5V3H.5v0c-.28 0-.5.22-.5.5 0 .27.22.5.5.5H1v3.5H.5v0c-.28 0-.5.22-.5.5 0 .27.22.5.5.5H1V12H.5v0c-.28 0-.5.22-.5.5 0 .27.22.5.5.5H1v1.5 0c0 .82.67 1.5 1.5 1.5h12v0c.82 0 1.5-.68 1.5-1.5v-13 0c0-.83-.68-1.5-1.5-1.5h-12Zm3.03 4.46l1.09 1.09V5.54c1.04-.74 2.43-.74 3.47 0l1.09-1.09v0c.19-.2.51-.2.7 0 .19.19.19.51-.01.7l-1.09 1.09c.74 1.037.74 2.44 0 3.476l1.09 1.09v-.001c.19.19.19.51 0 .7 -.2.19-.52.19-.71 0l-1.09-1.09v0c-1.05.73-2.44.73-3.48 0l-1.09 1.09v0c-.2.19-.52.19-.71-.001 -.2-.2-.2-.52-.001-.71l1.09-1.09v0c-.74-1.05-.74-2.44 0-3.48l-1.09-1.09v0c-.2-.2-.2-.52 0-.71 .19-.2.51-.2.7 0Zm8.464 2.03v3 0c0 .27-.23.5-.5.5 -.28 0-.5-.23-.5-.5v-3 0c0-.28.22-.5.5-.5 .27 0 .5.22.5.5Z"/></g></svg>