<svg viewBox="0 0 16 16" xmlns="http://www.w3.org/2000/svg"><g><path d="M6.563 8H5.03v0c.08-.58.31-1.13.66-1.596l1.08 1.08c-.1.16-.17.33-.22.516Zm.92-1.23l-1.08-1.08v0c.46-.36 1.01-.58 1.596-.67v1.52c-.19.04-.36.12-.516.21Zm1.516-.22V5.02v0c.57.08 1.12.31 1.596.66L9.51 6.76v0c-.17-.1-.34-.17-.516-.22Zm1.22.92l1.08-1.08c.34.45.577 1 .66 1.596h-1.53 -.001c-.05-.19-.12-.36-.22-.52Zm.21 1.516h1.52v0c-.09.57-.32 1.12-.67 1.596l-1.08-1.08c.09-.16.16-.34.21-.516Zm-.93 1.22l1.08 1.08v-.001c-.47.35-1.02.57-1.596.66v-1.53c.18-.05.35-.12.516-.22Zm-1.516.21v1.52 0c-.58-.09-1.13-.32-1.6-.67l1.08-1.08c.16.09.33.16.51.21Zm-1.23-.93l-1.08 1.08v0c-.36-.47-.58-1.02-.67-1.596h1.52c.04.18.12.35.21.516Zm.72-1.016v0c0-.56.44-1 1-1 .55 0 1 .44 1 1v0c0 .55-.45 1-1 1 -.56 0-1-.45-1-1Z"/><path d="M2.5 1v0C1.67 1 1 1.67 1 2.5V3H.5v0c-.28 0-.5.22-.5.5 0 .27.22.5.5.5H1v4H.5v0c-.28 0-.5.22-.5.5 0 .27.22.5.5.5H1v4H.5v0c-.28 0-.5.22-.5.5 0 .27.22.5.5.5H1v.5 0c0 .82.67 1.5 1.5 1.5h12v0c.82 0 1.5-.68 1.5-1.5v-12 0c0-.83-.68-1.5-1.5-1.5h-12Zm6 3v0C10.98 4 13 6.01 13 8.5c0 2.48-2.02 4.5-4.5 4.5v0C6.01 13 4 10.98 4 8.5 4 6.01 6.01 4 8.5 4Z"/></g></svg>