<svg viewBox="0 0 16 16" xmlns="http://www.w3.org/2000/svg"><g><path d="M6.25 3.5v0c0-.42-.34-.75-.75-.75 -.42 0-.75.33-.75.75v2 0c0 .41.33.75.75.75 .41 0 .75-.34.75-.75v-2Zm2 0v0c0-.42-.34-.75-.75-.75 -.42 0-.75.33-.75.75v2 0c0 .41.33.75.75.75 .41 0 .75-.34.75-.75v-2Zm2 0v0c0-.42-.34-.75-.75-.75 -.42 0-.75.33-.75.75v2 0c0 .41.33.75.75.75 .41 0 .75-.34.75-.75v-2Zm2 0v0c0-.42-.34-.75-.75-.75 -.42 0-.75.33-.75.75v2 0c0 .41.33.75.75.75 .41 0 .75-.34.75-.75v-2Z"/><path fill-rule="evenodd" d="M5.914-.001H12.5v0c.82 0 1.5.67 1.5 1.5v13 0c0 .82-.68 1.5-1.5 1.5h-9v0c-.83 0-1.5-.68-1.5-1.5V3.91c0-.4.15-.78.44-1.06L4.853.43V.43c.28-.29.66-.44 1.061-.44ZM13 1.499v0c0-.28-.23-.5-.5-.5H5.914v0c-.14 0-.26.05-.36.14L3.13 3.55v0c-.1.09-.15.22-.15.35V14.49v0c0 .27.22.5.5.5h9v0c.27 0 .5-.23.5-.5v-13Z"/></g></svg>