<svg viewBox="0 0 16 16" xmlns="http://www.w3.org/2000/svg"><g><path d="M15.964.68L15.96.679c.1-.26-.03-.55-.28-.65 -.12-.05-.26-.05-.38-.001L.75 5.84H.75c-.39.15-.58.59-.42.97 .05.14.16.26.29.35l4.995 3.17 1.53 2.4h0c.15.23.46.29.69.14 .22-.15.29-.45.15-.68l-1.38-2.17L14.1 2.53 12.2 7.27v0c-.11.25.01.54.26.65 .25.1.54-.02.65-.27 0-.01 0-.02 0-.02l2.8-7Zm-2.54 1.183l-7.5 7.494L1.58 6.59l11.83-4.74Z"/><path d="M12.5 16v0c1.93 0 3.5-1.57 3.5-3.5 0-1.94-1.57-3.5-3.5-3.5v0C10.56 9 9 10.56 9 12.5c0 1.93 1.56 3.5 3.5 3.5Zm.5-5v1.5 0c0 .27-.23.5-.5.5 -.28 0-.5-.23-.5-.5V11v0c0-.28.22-.5.5-.5 .27 0 .5.22.5.5Zm0 3v0c0 .27-.23.5-.5.5 -.28 0-.5-.23-.5-.5v0c0-.28.22-.5.5-.5 .27 0 .5.22.5.5Z"/></g></svg>