<svg viewBox="0 0 16 16" xmlns="http://www.w3.org/2000/svg"><g><path d="M15.964.68L15.96.679c.1-.26-.03-.55-.28-.65 -.12-.05-.26-.05-.38-.001L.75 5.84H.75c-.39.15-.58.59-.42.97 .05.14.16.26.29.35l4.995 3.17 1.53 2.4h0c.15.23.46.29.69.14 .22-.15.29-.45.15-.68l-1.38-2.17L14.1 2.53 12.2 7.27v0c-.11.25.01.54.26.65 .25.1.54-.02.65-.27 0-.01 0-.02 0-.02l2.8-7Zm-2.54 1.183l-7.5 7.494L1.58 6.59l11.83-4.74Z"/><path d="M14.97 10.02v0c-1.37-1.37-3.59-1.37-4.95-.001 -1.37 1.36-1.37 3.58 0 4.95v0c1.36 1.36 3.58 1.36 4.95-.001 1.36-1.37 1.36-3.59 0-4.95Zm-4.243.7h0c.84-.85 2.15-.98 3.14-.32L10.4 13.86v0c-.66-1-.53-2.31.31-3.15Zm.39 3.85l3.46-3.465v0c.76 1.15.44 2.7-.71 3.465 -.84.55-1.92.55-2.76 0Z"/></g></svg>