<svg viewBox="0 0 16 16" xmlns="http://www.w3.org/2000/svg"><g><path d="M15.964.68L15.96.679c.1-.26-.03-.55-.28-.65 -.12-.05-.26-.05-.38-.001L.75 5.84H.74l-.452.18H.29c-.26.1-.39.39-.28.64 .03.09.1.18.19.23l.41.26 0 0L5.6 10.33l1.59 2.49c.77 1.14.77.14.77-.36v0c-.01-2.49 2.01-4.51 4.49-4.51 .17-.01.35.01.52.03l2.93-7.35Zm-1.84 1.89l-7.5 7.494 -.22-.34v0c-.04-.07-.1-.12-.16-.16l-.34-.22 7.494-7.5 1.17-.48 -.47 1.178Z"/><path d="M16 12.5v0c0 1.93-1.57 3.5-3.5 3.5 -1.94 0-3.5-1.57-3.5-3.5v0C9 10.56 10.56 9 12.5 9c1.93 0 3.5 1.56 3.5 3.5Zm-3.5-2v0c-.28 0-.5.22-.5.5v1h-1v0c-.28 0-.5.22-.5.5 0 .27.22.5.5.5h1v1 0c0 .27.22.5.5.5 .27 0 .5-.23.5-.5v-1h1v0c.27 0 .5-.23.5-.5 0-.28-.23-.5-.5-.5h-1v-1 0c0-.28-.23-.5-.5-.5Z"/></g></svg>