<svg viewBox="0 0 16 16" xmlns="http://www.w3.org/2000/svg"><path d="M13.5 1v0c-.83 0-1.5.67-1.5 1.5 0 .82.67 1.5 1.5 1.5v0c.82 0 1.5-.68 1.5-1.5 0-.83-.68-1.5-1.5-1.5ZM11 2.5v-.001c-.01-1.39 1.11-2.51 2.49-2.51 1.38-.01 2.5 1.11 2.5 2.49 0 1.38-1.12 2.5-2.5 2.5 -.73 0-1.43-.32-1.9-.88L4.872 7.21v0c.15.48.15 1.01 0 1.5l6.718 3.12v-.001c.9-1.05 2.47-1.17 3.52-.27 1.04.9 1.16 2.47.26 3.52 -.91 1.04-2.48 1.16-3.53.26 -.76-.66-1.06-1.7-.76-2.65L4.362 9.57v0c-.9 1.04-2.48 1.16-3.53.26C-.22 8.93-.34 7.35.56 6.3c.89-1.05 2.47-1.17 3.52-.27 .09.08.18.17.26.26l6.71-3.12v0c-.08-.25-.12-.5-.12-.76Zm-8.5 4v0C1.67 6.5 1 7.17 1 8c0 .82.67 1.5 1.5 1.5v0C3.32 9.5 4 8.82 4 8c0-.83-.68-1.5-1.5-1.5Zm11 5.5v0c-.83 0-1.5.67-1.5 1.5 0 .82.67 1.5 1.5 1.5v0c.82 0 1.5-.68 1.5-1.5 0-.83-.68-1.5-1.5-1.5Z"/></svg>