<svg viewBox="0 0 16 16" xmlns="http://www.w3.org/2000/svg"><g><path d="M5.338 1.59l-.001 0c-.96.26-1.9.54-2.84.85v0c-.18.05-.31.2-.33.39 -.554 4.15.726 7.19 2.253 9.18l0 0c.64.85 1.41 1.6 2.287 2.23 .34.24.65.42.89.53 .12.05.21.09.29.11v-.001c.03.01.06.01.1.02v0c.03-.01.06-.02.1-.03 .07-.03.17-.07.29-.12 .24-.12.54-.29.89-.54v0c.86-.63 1.64-1.38 2.28-2.24 1.52-2 2.8-5.04 2.253-9.19v0c-.03-.19-.16-.34-.33-.39 -.66-.22-1.75-.56-2.84-.855C9.52 1.22 8.49 1 7.96 1c-.53 0-1.56.22-2.662.524ZM5.072.56C6.152.26 7.302 0 8 0c.69 0 1.843.265 2.92.56 1.11.3 2.22.655 2.88.87V1.42c.56.18.96.67 1.04 1.262 .59 4.477-.79 7.795-2.465 9.99v0c-.72.93-1.57 1.76-2.52 2.45h0c-.34.23-.69.44-1.05.62 -.28.13-.59.24-.83.24 -.25 0-.55-.11-.83-.24l-.001-.001c-.37-.18-.72-.39-1.05-.63l-.001-.001c-.96-.69-1.81-1.52-2.517-2.46C1.89 10.459.5 7.13 1.1 2.66H1.1c.07-.59.48-1.08 1.04-1.262L2.14 1.4c.95-.32 1.91-.61 2.88-.87Z"/><path d="M7 11h0c0-.56.44-1 1-1 .55 0 1 .44 1 1v0c0 .55-.45 1-1 1 -.56 0-1-.45-1-1Zm.09-6.01v0c-.06-.5.3-.95.8-1 .49-.06.94.3.99.8 0 .06 0 .12 0 .19l-.35 3.5v0c-.04.3-.31.52-.61.49 -.26-.03-.47-.24-.5-.5l-.35-3.51Z"/></g></svg>