<svg viewBox="0 0 16 16" xmlns="http://www.w3.org/2000/svg"><path fill-rule="evenodd" d="M8 0c-.69 0-1.843.265-2.928.56 -1.11.3-2.229.655-2.887.87h-.001c-.57.18-.97.67-1.05 1.262 -.596 4.477.78 7.795 2.465 9.99l-.001-.001c.71.93 1.56 1.76 2.51 2.45 .38.27.74.48 1.048.625 .28.13.58.24.82.24s.54-.11.82-.24v0c.36-.18.71-.39 1.04-.625v0c.95-.69 1.8-1.52 2.51-2.46 1.67-2.2 3.061-5.513 2.465-9.99V2.68c-.08-.59-.49-1.08-1.05-1.27L13.76 1.4c-.96-.32-1.92-.61-2.89-.87 -1.09-.3-2.24-.56-2.93-.56Zm2.14 5.146v-.001c.19-.2.51-.2.7 0 .19.19.19.51 0 .7l-3 3v0c-.2.19-.52.19-.71 0 -.01-.01-.01-.01-.01-.01l-1.5-1.5v0c-.2-.2-.2-.52 0-.71 .19-.2.51-.2.7 0l1.14 1.14 2.64-2.65Z"/></svg>