<svg viewBox="0 0 16 16" xmlns="http://www.w3.org/2000/svg"><path fill-rule="evenodd" d="M8 0c-.69 0-1.843.265-2.928.56 -1.11.3-2.229.655-2.887.87h-.001c-.57.18-.97.67-1.05 1.262 -.596 4.477.78 7.795 2.465 9.99l-.001-.001c.71.93 1.56 1.76 2.51 2.45 .38.27.74.48 1.048.625 .28.13.58.24.82.24s.54-.11.82-.24v0c.36-.18.71-.39 1.04-.625v0c.95-.69 1.8-1.52 2.51-2.46 1.67-2.2 3.061-5.513 2.465-9.99V2.68c-.08-.59-.49-1.08-1.05-1.27L13.76 1.4c-.96-.32-1.92-.61-2.89-.87 -1.09-.3-2.24-.56-2.93-.56Zm-.55 8.502L7.1 4.99v0c-.06-.5.3-.95.8-1 .49-.06.94.3.99.8 0 .06 0 .12 0 .19l-.35 3.5v0c-.03.3-.3.52-.6.5 -.27-.03-.49-.24-.51-.51Zm.55 3.49v0c-.56 0-1-.45-1-1 0-.56.44-1 1-1v0c.55 0 1 .44 1 1 0 .55-.45 1-1 1Z"/></svg>