<svg viewBox="0 0 16 16" xmlns="http://www.w3.org/2000/svg"><path d="M2.97 1.35V1.34c.19-.23.46-.36.76-.35h8.54v0c.29-.01.56.12.76.35l2.6 3.044v-.001c.23.27.36.61.36.97v.25 -.001c0 1.31-1.07 2.37-2.38 2.37 -.74 0-1.43-.34-1.88-.92V7.06c-.45.57-1.15.91-1.875.91v0c-.74 0-1.43-.34-1.88-.92v0c-.45.57-1.15.91-1.88.91v0c-.74 0-1.43-.34-1.88-.92v0c-.81 1.03-2.3 1.22-3.34.41 -.58-.46-.92-1.15-.92-1.88v-.26 0c0-.36.12-.71.361-.976L2.92 1.28Zm1.78 4.275v0C4.75 6.375 5.36 7 6.125 7 6.875 7 7.5 6.38 7.5 5.625v0c0-.28.22-.5.5-.5 .27 0 .5.22.5.5v0C8.5 6.375 9.11 7 9.875 7c.75 0 1.375-.62 1.375-1.375v0c0-.28.22-.5.5-.5 .27 0 .5.22.5.5v0c0 .75.61 1.375 1.375 1.375C14.375 7 15 6.38 15 5.625v-.26 0c0-.12-.05-.24-.12-.33L12.27 1.99H3.73L1.12 5.035H1.11c-.08.09-.13.2-.12.32v.25 0c0 .75.61 1.375 1.37 1.375 .75 0 1.375-.62 1.375-1.375v0c0-.28.22-.5.5-.5 .27 0 .5.22.5.5ZM1.5 8.5v0c.27 0 .5.22.5.5v6h1v-5 0c0-.56.44-1 1-1h3v0c.55 0 1 .44 1 1v5h6V9v0c0-.28.22-.5.5-.5 .27 0 .5.22.5.5v6h.5v0c.27 0 .5.22.5.5 0 .27-.23.5-.5.5H.5v0c-.28 0-.5-.23-.5-.5 0-.28.22-.5.5-.5H1V9v0c0-.28.22-.5.5-.5ZM4 15h3v-5H4v5Zm5-5v0c0-.56.44-1 1-1h2v0c.55 0 1 .44 1 1v3 0c0 .55-.45 1-1 1h-2v0c-.56 0-1-.45-1-1v-3Zm3 0h-2v3h2v-3Z"/></svg>