<svg viewBox="0 0 16 16" xmlns="http://www.w3.org/2000/svg"><g><path d="M8.335 6.982l.8 1.38H9.13c.06.11.22.16.34.09 .05-.03.08-.08.1-.14l1.06-2.89v0c.04-.13-.02-.28-.15-.33 -.02-.01-.03-.01-.05-.02L7.4 4.54v0c-.14-.03-.27.06-.29.2 -.02.05 0 .11.02.16l.66 1.154 -.63.37 0 0c-.76.45-1.22 1.26-1.22 2.14v2.36h1V8.55H6.94c0-.53.27-1.02.72-1.29l.6-.37Z"/><path fill-rule="evenodd" d="M6.95.43c.58-.58 1.52-.58 2.1 0l6.51 6.51c.58.58.58 1.51 0 2.09l-6.52 6.51c-.58.58-1.52.58-2.098 0L.42 9.02H.42c-.58-.58-.59-1.52-.01-2.1 0-.01 0-.01 0-.01L6.924.39Zm1.4.7v-.001c-.2-.2-.51-.2-.7 0L1.13 7.644v0c-.2.19-.2.5-.001.7l6.516 6.516v0c.19.19.5.19.7 0l6.51-6.516v0c.19-.2.19-.51 0-.7L8.33 1.12Z"/></g></svg>