<svg viewBox="0 0 16 16" xmlns="http://www.w3.org/2000/svg"><g><path d="M10.48 5.32h-.28v1.35h.28c.37 0 .54-.23.54-.68 0-.45-.17-.68-.54-.68Z"/><path fill-rule="evenodd" d="M7.02 14.43v0c.31.54 1 .72 1.54.41 .17-.1.31-.25.41-.42l6.85-11.67c.45-.78-.1-1.77-.98-1.77H1.12c-.89 0-1.44.99-.98 1.767l6.85 11.66ZM5.5 6.22v.76h-.4v-.76l-.67-1.24h.44l.42.84h.01l.42-.85h.42L5.47 6.2Zm1.12-1.24v2h-.4v-2h.39Zm.68 1.67h.89v.32H6.9v-2h1.28v.32h-.9v.51h.84v.3h-.85v.53Zm1.52-.02h.84v.33H8.41v-2h.39v1.66Zm.97.33v-2h.73c.6 0 .89.36.89.99s-.3 1-.9 1h-.73Z"/></g></svg>