<svg viewBox="0 0 16 16" xmlns="http://www.w3.org/2000/svg"><g><path d="M3.16 10.08c-.931 0-1.45-.5-1.5-1.14h.65c.06.34.39.58.891.58 .524 0 .83-.25.83-.62 0-.31-.21-.47-.64-.58l-.66-.17c-.61-.15-.98-.51-.98-1.08 0-.71.59-1.19 1.444-1.19 .85 0 1.38.47 1.436 1.08h-.65c-.07-.32-.36-.55-.8-.55 -.48 0-.77.24-.77.6 0 .26.19.43.55.52l.65.16c.67.16 1.06.48 1.06 1.11 0 .73-.58 1.22-1.55 1.22Zm3.42-3.51V10h-.665V6.57h-1.17V6h3v.56h-1.18Z"/><g fill-rule="evenodd"><path d="M11.045 7.73v.54c0 1.13-.64 1.8-1.67 1.8 -1.03 0-1.67-.68-1.67-1.81v-.55c0-1.14.63-1.81 1.66-1.81 1.02 0 1.66.67 1.66 1.8Zm-.68.54v-.56c0-.827-.43-1.234-.99-1.234 -.58 0-.99.4-.99 1.234v.55c0 .83.41 1.23.99 1.23 .56 0 .98-.41.98-1.24Zm1.15-2.28h1.53c.82 0 1.31.55 1.31 1.29s-.51 1.28-1.33 1.28h-.87v1.41h-.67v-4Zm1.436 2.03c.46 0 .73-.28.73-.75 0-.48-.28-.75-.74-.75h-.78V8h.77Z"/><path d="M4.893 0v0c-.14 0-.26.05-.36.14L.13 4.534h0c-.1.09-.15.22-.15.35v6.21 0c0 .13.05.25.14.35l4.39 4.394h0c.09.09.22.14.35.14h6.21v0c.13-.01.25-.06.35-.15l4.39-4.4v0c.09-.1.14-.23.14-.36v-6.22 0c-.01-.14-.06-.26-.15-.36L11.4.09v0c-.1-.1-.23-.15-.36-.15h-6.22ZM1 5.1L5.1 1h5.8L15 5.1v5.8L10.9 15H5.1L1 10.9V5.1Z"/></g></g></svg>