<svg viewBox="0 0 16 16" xmlns="http://www.w3.org/2000/svg"><g><path d="M10.37 8.27v-.56c0-.827-.43-1.234-.99-1.234 -.58 0-.99.4-.99 1.234v.55c0 .83.41 1.23.99 1.23 .56 0 .98-.41.98-1.24Zm2.58-.24c.46 0 .73-.28.73-.75 0-.48-.28-.75-.74-.75h-.78v1.48h.77Z"/><path fill-rule="evenodd" d="M4.893 0v0c-.14 0-.26.05-.36.14L.13 4.534h0c-.1.09-.15.22-.15.35v6.21 0c0 .13.05.25.14.35l4.39 4.394h0c.09.09.22.14.35.14h6.21v0c.13-.01.25-.06.35-.15l4.39-4.4v0c.09-.1.14-.23.14-.36v-6.22 0c-.01-.14-.06-.26-.15-.36L11.4.09v0c-.1-.1-.23-.15-.36-.15h-6.22ZM3.15 10.08c-.931 0-1.45-.5-1.494-1.14h.65c.06.34.39.58.891.58 .524 0 .83-.25.83-.62 0-.31-.21-.47-.637-.58l-.66-.17C2.12 8 1.75 7.64 1.75 7.07c0-.71.59-1.19 1.44-1.19s1.38.47 1.436 1.08h-.65c-.07-.32-.36-.55-.8-.55 -.472 0-.77.24-.77.6 0 .26.19.43.55.52l.65.16c.67.16 1.06.48 1.06 1.11 0 .73-.58 1.22-1.544 1.22Zm3.42-3.51V10H5.9V6.57H4.73V6h3v.56h-1.18Zm4.458 1.16v.54c0 1.13-.64 1.8-1.67 1.8 -1.03 0-1.67-.68-1.67-1.81v-.55c0-1.14.63-1.81 1.66-1.81 1.02 0 1.66.67 1.66 1.8Zm.47-1.73h1.53c.82 0 1.31.55 1.31 1.29s-.51 1.28-1.33 1.28h-.87v1.41h-.67v-4Z"/></g></svg>