<svg viewBox="0 0 16 16" xmlns="http://www.w3.org/2000/svg"><g><path d="M2 1.5v0C2 .67 2.67 0 3.5 0h7.086v0c.39 0 .77.15 1.06.44l1.91 1.914v0c.28.28.43.66.43 1.06V14.5v0c0 .82-.68 1.5-1.5 1.5h-9v0c-.83 0-1.5-.68-1.5-1.5v-13ZM3.5 1v0c-.28 0-.5.22-.5.5v13 0c0 .27.22.5.5.5h9v0c.27 0 .5-.23.5-.5V3.41v0c-.01-.14-.06-.26-.15-.36l-1.92-1.92v0c-.1-.1-.23-.15-.36-.15H3.484Z"/><path d="M5.5 4v0c-.28 0-.5.22-.5.5V6h2.5V4h-2Zm3 0v2H11V4.5v0c0-.28-.23-.5-.5-.5h-2ZM11 7H5v2h6V7Zm0 3H8.5v2h2v0c.27 0 .5-.23.5-.5V10Zm-3.5 2v-2H5v1.5 0c0 .27.22.5.5.5h2ZM4 4.5v0C4 3.67 4.67 3 5.5 3h5v0c.82 0 1.5.67 1.5 1.5v7 0c0 .82-.68 1.5-1.5 1.5h-5v0c-.83 0-1.5-.68-1.5-1.5v-7Z"/></g></svg>