<svg viewBox="0 0 16 16" xmlns="http://www.w3.org/2000/svg"><g><path d="M8 15v0c-3.87 0-7-3.14-7-7 0-3.87 3.13-7 7-7v0c3.86 0 7 3.13 7 7 0 3.86-3.14 7-7 7Zm0 1v0c4.41 0 8-3.59 8-8 0-4.42-3.59-8-8-8v0C3.58 0 0 3.58 0 8c0 4.41 3.58 8 8 8Z"/><path d="M4.27 5.05v0c.16-.09.36-.08.52.03l2.7 1.93V5.48v0c0-.28.22-.5.5-.5 .1 0 .2.03.28.09L10.98 7V5.47v0c0-.28.22-.5.5-.5 .27 0 .5.22.5.5v5 0c0 .27-.23.5-.5.5 -.28 0-.5-.23-.5-.5V8.94l-2.71 1.93v0c-.23.16-.54.1-.7-.12 -.07-.09-.1-.19-.1-.29V8.93l-2.71 1.93h0c-.23.16-.54.1-.7-.12 -.07-.09-.1-.19-.1-.29v-5h0c-.01-.19.1-.36.27-.45Z"/></g></svg>