<svg viewBox="0 0 16 16" xmlns="http://www.w3.org/2000/svg"><path d="M4.671 0c.88 0 1.73.24 2.468.702h-.001c2.22-.24 4.43.54 6.02 2.11v-.001c1.38 1.38 2.16 3.25 2.16 5.21 0 .34-.03.68-.08 1.02h0c.39.69.59 1.48.6 2.28v0c0 1.23-.5 2.42-1.37 3.29v0c-.88.87-2.07 1.36-3.31 1.36 -.84 0-1.66-.23-2.37-.65v-.001c-2.26.26-4.51-.51-6.12-2.11h0C1.27 11.82.49 9.95.49 7.996c0-.37.02-.73.08-1.09l0-.001c-1.04-1.83-.73-4.12.76-5.59l0 0c.87-.88 2.06-1.37 3.3-1.37Zm.44 7.01c.18.3.43.57.72.76l0 0c.39.25.81.47 1.25.65 .492.2.87.38 1.14.52 .22.11.43.26.61.44 .13.14.21.33.21.52v0c.01.28-.12.55-.34.72 -.3.19-.64.28-.99.26h0c-.36 0-.72-.07-1.048-.21h-.001c-.18-.08-.36-.17-.532-.26v0c-.19-.1-.39-.15-.59-.15v0c-.19-.01-.37.05-.51.17h0c-.14.12-.21.3-.2.49v0c-.01.17.04.34.14.48h0c.12.15.27.27.45.35v0c.69.3 1.45.44 2.21.41v0c.55.01 1.1-.08 1.62-.27v0c.43-.16.8-.44 1.08-.81 .26-.39.4-.86.38-1.327h0c.01-.39-.09-.77-.28-1.11h0c-.2-.32-.46-.59-.78-.8v0c-.4-.26-.82-.48-1.26-.65v0c-.05-.03-.1-.05-.15-.06v0c-.35-.14-.68-.29-1.013-.45L7.22 6.68c-.21-.1-.39-.23-.54-.39H6.68c-.14-.14-.21-.32-.2-.508h0c-.02-.3.13-.58.38-.73H6.86c.29-.18.62-.26.968-.25 .26-.01.52.03.77.09 .27.07.54.17.8.29 .1.04.22.07.33.07v0c.17 0 .33-.07.45-.19v0c.12-.14.18-.32.18-.5h0c0-.18-.06-.35-.17-.48v0c-.16-.17-.35-.29-.56-.36V3.72c-.23-.09-.47-.15-.71-.19V3.53c-.34-.06-.68-.09-1.03-.08V3.45c-.53-.01-1.05.08-1.54.258v0c-.46.15-.86.42-1.18.78h-.001c-.31.35-.47.81-.45 1.28 -.01.37.07.73.25 1.06Z"/></svg>