<svg viewBox="0 0 16 16" xmlns="http://www.w3.org/2000/svg"><path fill-rule="evenodd" d="M0 10.5v0c0 .27.22.5.5.5h4v0c.27 0 .5-.23.5-.5 0-.28-.23-.5-.5-.5H3V1.5v0c0-.28-.23-.5-.5-.5 -.28 0-.5.22-.5.5V10H.5v0c-.28 0-.5.22-.5.5ZM2.5 12v0c-.28 0-.5.22-.5.5v2 0c0 .27.22.5.5.5 .27 0 .5-.23.5-.5v-2 0c0-.28-.23-.5-.5-.5Zm3-6.5v0c0 .27.22.5.5.5h1.5v8.5 0c0 .27.22.5.5.5 .27 0 .5-.23.5-.5V6H10v0c.27 0 .5-.23.5-.5 0-.28-.23-.5-.5-.5H6v0c-.28 0-.5.22-.5.5ZM8 1v0c-.28 0-.5.22-.5.5v2 0c0 .27.22.5.5.5 .27 0 .5-.23.5-.5v-2 0c0-.28-.23-.5-.5-.5Zm3 9.5v0c0 .27.22.5.5.5h4v0c.27 0 .5-.23.5-.5 0-.28-.23-.5-.5-.5H14V1.5v0c0-.28-.23-.5-.5-.5 -.28 0-.5.22-.5.5V10h-1.5v0c-.28 0-.5.22-.5.5Zm2.5 1.5v0c-.28 0-.5.22-.5.5v2 0c0 .27.22.5.5.5 .27 0 .5-.23.5-.5v-2 0c0-.28-.23-.5-.5-.5Z"/></svg>