<svg viewBox="0 0 16 16" xmlns="http://www.w3.org/2000/svg"><path d="M15.943 11.526c-.12-.31-.33-.47-.57-.6v0c-.04-.03-.09-.05-.13-.07l-.22-.12c-.76-.4-1.34-.91-1.75-1.5v0c-.12-.17-.22-.35-.3-.54 -.04-.1-.04-.16-.01-.21h0c.02-.04.05-.08.09-.1 .12-.09.26-.18.35-.24 .16-.11.28-.19.37-.25 .3-.22.52-.45.66-.702v0c.19-.36.21-.79.06-1.16 -.21-.54-.72-.88-1.33-.88l0-.001c-.17-.01-.33.02-.49.06 0-.37-.01-.76-.04-1.14 -.12-1.35-.59-2.048-1.077-2.61v0c-.32-.36-.69-.65-1.1-.89C9.7.14 8.86-.08 7.94-.08c-.92 0-1.76.21-2.505.641 -.42.23-.782.53-1.1.883 -.49.56-.96 1.267-1.08 2.61 -.04.38-.04.77-.04 1.138v0c-.16-.05-.33-.07-.49-.07 -.62 0-1.124.33-1.328.87H1.4c-.15.37-.13.8.06 1.16 .13.25.35.48.66.7 .08.05.21.14.371.24l.33.22v0c.04.02.08.06.1.11 .02.05.02.11-.02.21l-.001 0c-.09.18-.19.35-.3.52 -.4.58-.968 1.077-1.7 1.47 -.39.2-.786.34-.96.8 -.13.34-.05.74.28 1.07 .119.125.257.23.4.31h0c.31.17.65.3 1 .4v0c.07.01.14.04.2.09 .11.1.1.26.25.48 .07.11.18.22.29.3 .33.22.7.24 1.09.25 .355.01.75.03 1.21.18 .19.06.38.18.61.32 .55.33 1.3.8 2.566.8 1.26 0 2.02-.47 2.57-.81 .22-.14.42-.26.609-.33 .46-.16.86-.17 1.218-.19 .39-.02.76-.03 1.09-.26v-.001c.13-.1.25-.23.33-.37 .11-.2.11-.33.21-.42v0c.05-.04.12-.07.19-.09h0c.35-.1.69-.23 1.01-.41 .16-.09.3-.2.42-.34l0-.01c.3-.33.38-.71.25-1.05Zm-1.13.6c-.69.37-1.14.33-1.5.56 -.3.19-.13.61-.34.76 -.27.18-1.061-.02-2.09.32 -.85.27-1.39 1.08-2.91 1.08 -1.52 0-2.045-.81-2.904-1.09 -1.03-.34-1.82-.14-2.09-.33 -.22-.15-.05-.57-.35-.77 -.36-.23-.81-.19-1.492-.57 -.44-.24-.19-.39-.05-.46 2.47-1.2 2.87-3.05 2.89-3.19 .02-.17.04-.3-.14-.47 -.18-.17-.97-.65-1.18-.81 -.36-.26-.52-.51-.41-.82 .08-.22.28-.3.49-.3H2.73c.06 0 .13 0 .19.02 .39.08.78.28 1 .33 .02 0 .05.01.08.01 .11 0 .16-.06.15-.2 -.03-.44-.09-1.28-.02-2.066 .09-1.084.44-1.63.859-2.097 .2-.23 1.13-1.22 2.93-1.22 1.79 0 2.73.98 2.93 1.21 .41.47.766 1.013.859 2.098 .06.78 0 1.63-.02 2.06 -.01.14.03.19.15.19v0c.02-.01.05-.01.08-.01 .22-.06.6-.26 1-.34V6.02c.06-.02.13-.03.19-.03 .21 0 .4.08.49.29 .11.3-.04.56-.41.81 -.22.15-1.01.63-1.18.8 -.19.16-.16.3-.14.46 .01.14.41 1.99 2.89 3.189 .14.07.39.22-.05.46Z"/></svg>