<svg viewBox="0 0 16 16" xmlns="http://www.w3.org/2000/svg"><g><path d="M12.43 1.66v5.33h-1.05V2.67h-.06l-1.22.85v-.97l1.26-.91h1.04Z"/><path fill-rule="evenodd" d="M11.36 14.09c-1.14 0-1.71-.657-1.77-1.28h1c.05.22.34.45.77.45 .82 0 1.16-.83 1.13-1.86h-.06c-.15.39-.57.74-1.27.74 -.91 0-1.72-.62-1.72-1.76 0-1.15.84-1.84 1.97-1.84 1.09 0 2.06.63 2.06 2.68 0 1.86-.73 2.84-2.15 2.84Zm.06-2.74c.5 0 .93-.34.93-.98 0-.64-.4-1.01-.94-1.01 -.52 0-.93.375-.93 1 0 .64.41.98.93.98Z"/><path d="M4.5 13.5v0c0 .27-.23.5-.5.5 -.28 0-.5-.23-.5-.5V3.7l-1.15 1.14v0c-.2.19-.52.19-.71 0 -.2-.2-.2-.52-.01-.71 0-.01 0-.01 0-.01l2-2 0-.01V2.11c.19-.19.5-.19.7 0l2 2v0c.19.19.19.51 0 .7 -.2.19-.52.19-.71 0 0 0-.01-.01-.01-.01L4.46 3.65v9.793Z"/></g></svg>