<svg viewBox="0 0 16 16" xmlns="http://www.w3.org/2000/svg"><g><path d="M12.96 7H9.02v-.7l2.57-3.72v-.06H9.08V1.65h3.785v.69l-2.567 3.72v.05h2.64v.86Z"/><path fill-rule="evenodd" d="M10.082 12.629l-.42 1.37h-1.07l1.78-5.34h1.234l1.78 5.33h-1.12l-.42-1.38h-1.79Zm1.57-.79l-.66-2.16h-.05l-.66 2.15h1.35Z"/><path d="M4.5 2.5v0c0-.28-.23-.5-.5-.5 -.28 0-.5.22-.5.5v9.793l-1.146-1.15v0c-.2-.2-.52-.2-.71 0 -.2.19-.2.51 0 .7l2 1.99 0 0H3.64c.19.19.5.18.7-.01l2-2v0c.19-.2.19-.52 0-.71 -.2-.2-.52-.2-.71-.01l-1.15 1.14V2.45Z"/></g></svg>