<svg viewBox="0 0 16 16" xmlns="http://www.w3.org/2000/svg"><path d="M3.5 13.5v0c0 .27-.23.5-.5.5 -.28 0-.5-.23-.5-.5V4.7l-1.146 1.14H1.35c-.2.19-.52.19-.71 0 -.2-.2-.2-.52-.01-.71 0-.01 0-.01 0-.01l2-2 0-.01V3.11c.19-.19.5-.19.7 0l2 2v0c.19.19.19.51 0 .7 -.2.19-.52.19-.71 0 0 0-.01-.01-.01-.01L3.46 4.65v8.793Zm4-9.5v0c-.28 0-.5-.23-.5-.5 0-.28.22-.5.5-.5h1v0c.27 0 .5.22.5.5 0 .27-.23.5-.5.5h-1Zm0 3v0c-.28 0-.5-.23-.5-.5 0-.28.22-.5.5-.5h3v0c.27 0 .5.22.5.5 0 .27-.23.5-.5.5h-3Zm0 3v0c-.28 0-.5-.23-.5-.5 0-.28.22-.5.5-.5h5v0c.27 0 .5.22.5.5 0 .27-.23.5-.5.5h-5ZM7 12.5v0c0 .27.22.5.5.5h7v0c.27 0 .5-.23.5-.5 0-.28-.23-.5-.5-.5h-7v0c-.28 0-.5.22-.5.5Z"/></svg>