<svg viewBox="0 0 16 16" xmlns="http://www.w3.org/2000/svg"><path fill-rule="evenodd" d="M10.082 5.629l-.42 1.37h-1.07l1.78-5.34h1.234l1.78 5.33h-1.12l-.42-1.38h-1.79Zm1.57-.79l-.66-2.16h-.05l-.66 2.15h1.35Z"/><path d="M12.96 14H9.02v-.7l2.57-3.72v-.06H9.08v-.87h3.785v.69l-2.567 3.72v.05h2.64v.86Zm-8.46-.5v0c0 .27-.23.5-.5.5 -.28 0-.5-.23-.5-.5V3.7l-1.15 1.14v0c-.2.19-.52.19-.708 0 -.2-.2-.2-.52-.01-.71 0-.01 0-.01 0-.01l2-2 0-.01V2.11c.19-.19.5-.19.7 0l2 2H6.33c.19.19.19.51 0 .7 -.2.19-.52.19-.71 0 0 0-.01-.01-.01-.01l-1.15-1.15v9.793Z"/></svg>