<svg viewBox="0 0 16 16" xmlns="http://www.w3.org/2000/svg"><g><path d="M12 1v0c.55 0 1 .44 1 1v12 0c0 .55-.45 1-1 1H4v0c-.56 0-1-.45-1-1V2v0c0-.56.44-1 1-1h8ZM4 0v0C2.89 0 2 .89 2 2v12 0c0 1.1.89 2 2 2h8v0c1.1 0 2-.9 2-2V2v0c0-1.11-.9-2-2-2H4Z"/><path d="M8 4.75v0c-.42 0-.75-.34-.75-.75 0-.42.33-.75.75-.75v0c.41 0 .75.33.75.75 0 .41-.34.75-.75.75ZM8 6v0c1.1 0 2-.9 2-2 0-1.11-.9-2-2-2v0c-1.11 0-2 .89-2 2 0 1.1.89 2 2 2Zm0 3v0c-.83 0-1.5.67-1.5 1.5 0 .82.67 1.5 1.5 1.5v0c.82 0 1.5-.68 1.5-1.5C9.5 9.67 8.82 9 8 9Zm-3.5 1.5v0C4.5 8.56 6.06 7 8 7c1.93 0 3.5 1.56 3.5 3.5v0c0 1.93-1.57 3.5-3.5 3.5 -1.94 0-3.5-1.57-3.5-3.5Z"/></g></svg>