<svg viewBox="0 0 16 16" xmlns="http://www.w3.org/2000/svg"><g><path d="M8 4v0c.27 0 .5.22.5.5V6v0c0 .27-.23.5-.5.5 -.28 0-.5-.23-.5-.5V4.5v0c0-.28.22-.5.5-.5ZM3.73 5.73v0c.19-.2.51-.2.7 0l.915.91v0c.19.19.19.51-.001.7 -.2.19-.52.19-.71 0l-.92-.915h0c-.2-.2-.2-.52-.001-.71ZM1.99 9.99v0c0-.28.22-.5.5-.5h1.58v0c.27 0 .5.22.5.5 0 .27-.23.5-.5.5H2.48v0c-.28 0-.5-.23-.5-.5Zm9.5 0v0c0-.28.22-.5.5-.5h1.5v0c.27 0 .5.22.5.5 0 .27-.23.5-.5.5h-1.5v0c-.28 0-.5-.23-.5-.5Zm.75-4.246v-.001c-.15-.15-.38-.16-.53-.02l-4.18 3.57h0c-.39.32-.44.89-.11 1.28 .32.38.89.43 1.28.1 .04-.05.09-.09.12-.14l3.43-4.297h0c.12-.16.11-.38-.03-.52Z"/><path fill-rule="evenodd" d="M0 10v0c0-4.42 3.58-8 8-8 4.41 0 7.99 3.58 7.99 8 -.01.9-.16 1.79-.46 2.64 -.45 1.25-1.85 1.6-2.94 1.25 -1.31-.43-3.14-.92-4.62-.92s-3.31.48-4.62.91c-1.09.35-2.49 0-2.94-1.25l-.001 0c-.31-.86-.46-1.76-.46-2.67Zm8-7v0C4.13 2.99.99 6.13.99 9.99c-.01.79.13 1.58.39 2.33 .2.57.923.87 1.68.63 1.32-.43 3.28-.96 4.92-.96 1.64 0 3.6.532 4.92.96 .75.24 1.47-.06 1.68-.64v0c1.28-3.65-.63-7.65-4.28-8.94 -.75-.27-1.54-.4-2.34-.4Z"/></g></svg>