<svg viewBox="0 0 16 16" xmlns="http://www.w3.org/2000/svg"><g><path d="M8.21 11.06c1.21 0 1.94-.87 1.94-2.31v-.71c0-1.44-.73-2.31-1.93-2.31 -.742 0-1.33.34-1.5.88h-.07V3.95H5.36v7.017h1.27v-.8h.06c.21.532.77.86 1.49.86Zm-.43-1.03c-.66 0-1.12-.52-1.12-1.28V8.1c0-.83.42-1.35 1.09-1.35 .68 0 1.07.51 1.07 1.41v.45c0 .88-.39 1.4-1.06 1.4ZM2.19 11.06c.76 0 1.2-.36 1.4-.74h.05v.65h1.21V7.48c0-1.314-.95-1.79-2.11-1.79 -1.42 0-2.03.68-2.09 1.53H1.87c.06-.33.31-.56.84-.56 .52 0 .86.24.86.77v.46H2.3c-1.21 0-1.85.61-1.85 1.54 0 .97.69 1.58 1.7 1.58Zm.42-.95c-.44 0-.85-.24-.85-.718 0-.4.26-.69.84-.69h.99v.53c0 .5-.45.86-.99.86Zm8.897.56c-.577-.4-.9-1.09-.9-1.99v-.65c0-1.42.89-2.34 2.3-2.34 1.35 0 2.11.82 2.13 1.8h-1.19c-.04-.36-.29-.78-.92-.78 -.68 0-1.045.51-1.045 1.32v.625c0 .46.12.83.34 1.06l-.74.92Z"/><path d="M14.46 9.414v0c.32.25.37.73.11 1.05 -.01 0-.01 0-.01 0l-4 5v0c-.26.32-.74.37-1.06.11 -.03-.02-.05-.04-.07-.06l-2.5-2.5 0 0c-.31-.29-.32-.76-.04-1.06 .28-.31.75-.32 1.06-.04 .01.01.02.02.03.03l1.9 1.907L13.35 9.5v0c.25-.33.73-.38 1.05-.12 0 0 0 0 0 0Z"/></g></svg>