<svg viewBox="0 0 16 16" xmlns="http://www.w3.org/2000/svg"><path d="M8 0v0C3.58 0 0 3.58 0 8c0 4.41 3.58 8 8 8v0c4.41 0 8-3.59 8-8 0-4.42-3.59-8-8-8Zm3.66 11.53v0c-.15.23-.45.3-.69.16 -.01-.01-.01-.01-.01-.01 -1.88-1.15-4.243-1.407-7.028-.77v-.001c-.27.06-.54-.11-.6-.38 -.07-.27.1-.54.37-.6 3.04-.7 5.66-.4 7.77.89v0c.23.14.3.45.16.68Zm.97-2.18h-.001c-.19.29-.57.38-.86.2C9.61 8.22 6.34 7.84 3.79 8.61v0c-.34.07-.68-.13-.76-.47 -.08-.31.09-.63.39-.74 2.905-.89 6.51-.46 8.986 1.06h0c.29.18.38.56.2.85Zm.08-2.27C10.13 5.54 5.87 5.4 3.41 6.15v-.001c-.4.11-.82-.11-.94-.5 -.12-.4.1-.82.49-.94 2.82-.86 7.523-.7 10.492 1.07v0c.35.21.47.67.26 1.02 -.22.35-.68.47-1.03.26 -.01-.01-.01-.01-.01-.01Z"/></svg>