<svg viewBox="0 0 16 16" xmlns="http://www.w3.org/2000/svg"><g><path d="M14.12 10.163l1.71.85c.22.11.22.42 0 .53l-7.57 3.78v0c-.17.08-.37.08-.54 0L.15 11.53h0c-.15-.08-.21-.26-.14-.41 .02-.06.07-.11.13-.14l1.71-.86 5.31 2.65c.5.25 1.1.25 1.6 0l5.317-2.66ZM7.73.06V.06c.16-.09.36-.09.53 0l7.56 3.78v0c.14.07.2.25.13.4 -.03.05-.08.1-.14.13L8.24 8.15v0c-.17.08-.37.08-.54 0L.13 4.36H.13c-.15-.08-.21-.26-.14-.41 .02-.06.07-.11.13-.14L7.681.02Z"/><path d="M14.12 6.576l1.71.85c.22.11.22.42 0 .53L8.26 11.73v0c-.17.08-.37.08-.54-.001L.15 7.951H.15c-.15-.08-.21-.26-.14-.41 .02-.06.07-.11.13-.14l1.71-.86L7.16 9.2c.5.25 1.1.25 1.6 0l5.317-2.66Z"/></g></svg>