<svg viewBox="0 0 16 16" xmlns="http://www.w3.org/2000/svg"><path d="M2.86 14.85c-.08.44.36.79.74.593l4.39-2.26 4.38 2.25c.38.19.82-.15.74-.6l-.83-4.73 3.52-3.36c.33-.32.16-.89-.29-.95l-4.898-.7L8.422.766V.765c-.13-.26-.43-.37-.69-.25 -.11.05-.2.13-.25.24l-2.19 4.32 -4.898.69c-.45.06-.62.63-.29.95l3.52 3.35 -.83 4.73Zm4.905-2.77L4.07 13.97l.694-3.96h-.001c.03-.19-.03-.38-.17-.51L1.69 6.73l4.052-.58v0c.17-.03.31-.14.39-.29L7.97 2.2l1.84 3.65v0c.07.15.22.26.39.28l4.052.57 -2.91 2.77v0c-.14.13-.2.32-.17.5l.69 3.95 -3.686-1.9v0c-.15-.08-.32-.08-.47 0Z"/></svg>