<svg viewBox="0 0 16 16" xmlns="http://www.w3.org/2000/svg"><g><path d="M.329 10.33h0c1.03 3.36 4.13 5.66 7.66 5.66 4.42 0 8.01-3.59 8.01-8 0-4.42-3.59-8-8.009-8h0C3.77-.02.28 3.25-.01 7.45l.003 0 4.3 1.76h0c.38-.26.84-.39 1.31-.37l1.96-2.85 -.01-.04H7.55c0-1.68 1.36-3.05 3.04-3.043v0c1.67 0 3.04 1.36 3.04 3.04v0c-.01 1.68-1.37 3.04-3.05 3.04 -.03-.01-.05-.01-.07-.01l-2.81 2v0c.03 1.22-.94 2.24-2.17 2.27 -.32 0-.63-.05-.91-.17l-.001 0c-.67-.28-1.16-.87-1.32-1.57L.26 10.25Z"/><path d="M4.86 12.683v0c.88.33 1.87-.11 2.21-1 .32-.85-.07-1.81-.9-2.18v0c-.41-.17-.86-.18-1.27-.02l1.02.42v0c.64.26.94 1 .68 1.65 -.27.64-1.01.94-1.65.68 -.01-.01-.01-.01-.01-.01l-.99-.41v0c.18.37.49.67.88.84Zm3.726-6.69h-.001c0 1.11.9 2.02 2.02 2.02v0c1.11-.01 2.02-.91 2.02-2.029v0c-.01-1.12-.91-2.03-2.03-2.027v0c-1.12 0-2.03.9-2.03 2.027Zm2.03-1.53l0-.001c.84 0 1.52.68 1.52 1.52 -.01.84-.69 1.52-1.53 1.52 -.01-.001-.01-.001-.01-.001v0c-.85-.01-1.53-.69-1.53-1.53 0-.85.68-1.53 1.52-1.53Z"/></g></svg>