<svg viewBox="0 0 16 16" xmlns="http://www.w3.org/2000/svg"><g><path d="M8 5v0c.82 0 1.5-.68 1.5-1.5C9.5 2.67 8.82 2 8 2v0c-.83 0-1.5.67-1.5 1.5C6.5 4.32 7.17 5 8 5Zm0 4v0c.82 0 1.5-.68 1.5-1.5C9.5 6.67 8.82 6 8 6v0c-.83 0-1.5.67-1.5 1.5C6.5 8.32 7.17 9 8 9Zm1.5 2.5v0c0 .82-.68 1.5-1.5 1.5 -.83 0-1.5-.68-1.5-1.5v0c0-.83.67-1.5 1.5-1.5 .82 0 1.5.67 1.5 1.5Z"/><path d="M4 2v0c0-1.11.89-2 2-2h4v0c1.1 0 2 .89 2 2h2c-.17.5-.8 1.6-2 2v2h2c-.17.5-.8 1.6-2 2v2h2c-.17.5-.8 1.6-2 2v1 0c0 1.1-.9 2-2 2H6v0c-1.11 0-2-.9-2-2v-1c-1.2-.4-1.84-1.5-2-2h2V8c-1.2-.4-1.84-1.5-2-2h2V4c-1.2-.4-1.84-1.5-2-2h2Zm2-1v0c-.56 0-1 .44-1 1v11 0c0 .55.44 1 1 1h4v0c.55 0 1-.45 1-1V2v0c0-.56-.45-1-1-1H6Z"/></g></svg>