<svg viewBox="0 0 16 16" xmlns="http://www.w3.org/2000/svg"><path fill-rule="evenodd" d="M6 0v0C4.89 0 4 .89 4 2H2c.16.5.8 1.6 2 2v2H2c.16.5.8 1.6 2 2v2H2c.16.5.8 1.6 2 2v1 0c0 1.1.89 2 2 2h4v0c1.1 0 2-.9 2-2v-1c1.2-.4 1.83-1.5 2-2h-2V8c1.2-.4 1.83-1.5 2-2h-2V4c1.2-.4 1.83-1.5 2-2h-2v0c0-1.11-.9-2-2-2H6Zm3.5 3.5v0C9.5 4.32 8.82 5 8 5c-.83 0-1.5-.68-1.5-1.5v0C6.5 2.67 7.17 2 8 2c.82 0 1.5.67 1.5 1.5Zm0 4v0C9.5 8.32 8.82 9 8 9c-.83 0-1.5-.68-1.5-1.5v0C6.5 6.67 7.17 6 8 6c.82 0 1.5.67 1.5 1.5ZM8 13v0c-.83 0-1.5-.68-1.5-1.5 0-.83.67-1.5 1.5-1.5v0c.82 0 1.5.67 1.5 1.5 0 .82-.68 1.5-1.5 1.5Z"/></svg>