<svg viewBox="0 0 16 16" xmlns="http://www.w3.org/2000/svg"><path d="M3 5v0c-1.11 0-2 .89-2 2v.5H.5v0c-.28 0-.5.22-.5.5 0 .27.22.5.5.5H1V9v0c0 1.1.89 2 2 2h1v0c1.65 0 3-1.35 3-3v0c0-.56.44-1 1-1 .55 0 1 .44 1 1v0c0 1.65 1.34 3 3 3h1v0c1.1 0 2-.9 2-2v-.5h.5v0c.27 0 .5-.23.5-.5 0-.28-.23-.5-.5-.5H15V7v0c0-1.11-.9-2-2-2h-2v0c-.85-.01-1.61.53-1.888 1.338v-.001c-.33-.23-.72-.34-1.112-.34v0c-.4-.01-.79.11-1.112.33v0c-.29-.81-1.04-1.34-1.888-1.34H3Zm0 1h.94c.26 0 .34.35.11.47l-.46.22 -.001-.001c-.39.19-.71.5-.9.89l-.23.45c-.12.23-.48.15-.48-.12v-.94 0c0-.56.44-1 1-1Z"/></svg>