<svg viewBox="0 0 16 16" xmlns="http://www.w3.org/2000/svg"><path d="M7.646 4.85v0c.19.19.51.19.7 0 0-.01 0-.01 0-.01l1.5-1.5v0c.19-.2.19-.52 0-.71 -.2-.2-.52-.2-.71-.001l-.65.64v-1.8 0c0-.28-.23-.5-.5-.5 -.28 0-.5.22-.5.5v1.79l-.65-.65L6.83 2.6c-.2-.2-.52-.2-.71 0 -.2.19-.2.51 0 .7l1.5 1.5Zm-5.303-.51v0c.19-.2.51-.2.7 0l1.41 1.41v0c.19.19.18.51-.02.7 -.2.18-.51.18-.7 0L2.31 5.03H2.31c-.2-.2-.2-.52 0-.71Zm11.314 0v0c.19.19.19.51 0 .7l-1.42 1.41v-.001c-.2.19-.51.2-.71.01 -.2-.2-.21-.51-.02-.71 0-.01 0-.01.01-.02l1.41-1.42v0c.19-.2.51-.2.7 0Zm-1.95 7.15v0c.82-2.05-.17-4.38-2.22-5.21 -2.05-.83-4.38.16-5.21 2.21 -.39.96-.39 2.03 0 2.99H.47v0c-.28 0-.5.22-.5.5 0 .27.22.5.5.5h15v0c.27 0 .5-.23.5-.5 0-.28-.23-.5-.5-.5h-3.79ZM-.01 9.99v0c0-.28.22-.5.5-.5h2v0c.27 0 .5.22.5.5 0 .27-.23.5-.5.5h-2v0c-.28 0-.5-.23-.5-.5Zm13 0v0c0-.28.22-.5.5-.5h2v0c.27 0 .5.22.5.5 0 .27-.23.5-.5.5h-2v0c-.28 0-.5-.23-.5-.5Z"/></svg>