<svg viewBox="0 0 16 16" xmlns="http://www.w3.org/2000/svg"><path d="M15.85.14V.139c.19.19.19.51 0 .7 -.01 0-.01 0-.01 0L11.69 4.98h2.79v0c.27 0 .5.22.5.5 0 .27-.23.5-.5.5h-4v0c-.28 0-.5-.23-.5-.5v-4V1.48c0-.28.22-.5.5-.5 .27 0 .5.22.5.5v2.79L15.12.12v0c.19-.2.51-.2.7-.01 0 0 0 0 0 0ZM3.65 1.32v0c-.23-.3-.66-.35-.96-.12 -.03.01-.05.03-.07.05L1.58 2.28c-.49.484-.67 1.169-.45 1.77l-.001 0c.87 2.48 2.3 4.74 4.16 6.608h0c1.86 1.86 4.12 3.29 6.6 4.16 .6.21 1.28.03 1.77-.45l1.03-1.04v0c.26-.27.26-.7 0-.96 -.03-.03-.05-.04-.07-.06l-2.31-1.8v0c-.17-.13-.38-.18-.58-.13l-2.19.54h0c-.6.14-1.23-.03-1.66-.46L5.41 7.99v0c-.44-.44-.61-1.07-.46-1.66L5.5 4.14v0c.05-.21 0-.42-.13-.58L3.58 1.25ZM1.88.5v0c.68-.69 1.78-.69 2.46-.01 .05.05.09.1.14.16l1.79 2.3c.32.42.44.97.31 1.49l-.55 2.19v0c-.06.23.01.47.17.64L8.65 9.72v0c.16.16.41.23.64.17l2.189-.55V9.34c.51-.14 1.07-.02 1.49.31l2.3 1.79c.82.64.9 1.87.16 2.61l-1.04 1.03c-.74.74-1.846 1.06-2.88.7v0c-2.64-.93-5.04-2.44-7.01-4.42l0 0C2.5 9.38.99 6.98.07 4.35 -.3 3.32.03 2.21.77 1.48L1.8.44Z"/></svg>