<svg viewBox="0 0 16 16" xmlns="http://www.w3.org/2000/svg"><g><path d="M8 14v0c.82 0 1.5-.68 1.5-1.5 0-.83-.68-1.5-1.5-1.5v0c-.83 0-1.5.67-1.5 1.5 0 .82.67 1.5 1.5 1.5Z"/><path d="M8 0v0C6.61 0 5.5 1.11 5.5 2.5v7.55 -.001c-1.36 1.38-1.34 3.59.05 4.94 1.38 1.35 3.59 1.33 4.94-.06 1.33-1.37 1.33-3.54 0-4.9v-7.55h-.001c0-1.39-1.12-2.5-2.5-2.5ZM6.5 2.5v0C6.5 1.67 7.17 1 8 1c.82 0 1.5.67 1.5 1.5v7.987l.16.15h-.001c1.02.92 1.11 2.5.19 3.53 -.93 1.02-2.51 1.11-3.54.19 -1.03-.93-1.12-2.51-.2-3.54 .06-.07.12-.14.19-.2l.16-.15V2.47Z"/></g></svg>