<svg viewBox="0 0 16 16" xmlns="http://www.w3.org/2000/svg"><g><path d="M5 12.5v-.001c-.01.82-.68 1.49-1.51 1.49 -.83-.01-1.5-.68-1.5-1.51 0-.64.4-1.21.99-1.42V2.474v0c0-.28.22-.5.5-.5 .27 0 .5.22.5.5v8.585h0c.59.21 1 .77 1 1.41Z"/><path d="M1 2.5v0C1 1.11 2.11 0 3.5 0 4.88 0 6 1.11 6 2.5v7.55 -.001c1.35 1.38 1.33 3.59-.06 4.94 -1.39 1.35-3.6 1.33-4.95-.06 -1.34-1.37-1.34-3.54-.001-4.9v-7.55ZM3.5 1v0C2.67 1 2 1.67 2 2.5v7.987l-.17.15 0-.001c-1.03.92-1.12 2.5-.2 3.53 .92 1.02 2.5 1.11 3.53.19 1.02-.93 1.11-2.51.19-3.54 -.07-.07-.13-.14-.2-.2l-.17-.16V2.46v0c0-.83-.68-1.5-1.5-1.5Zm5 1v0c.27 0 .5.22.5.5v1 0c0 .27-.23.5-.5.5 -.28 0-.5-.23-.5-.5v-1 0c0-.28.22-.5.5-.5Zm4.24 1.75v0c.19.19.19.51 0 .7l-.71.7v-.001c-.2.19-.52.19-.71 0 -.2-.2-.2-.52-.001-.71l.7-.71v0c.19-.2.51-.2.7 0ZM7.99 5.49v0c0-.28.22-.5.5-.5v0c1.65 0 3 1.34 3 3 0 1.65-1.35 3-3 3v0c-.28 0-.5-.23-.5-.5 0-.28.22-.5.5-.5v0c1.1 0 2-.9 2-2 0-1.11-.9-2-2-2v0c-.28 0-.5-.23-.5-.5Zm4.5 2.5v0c0-.28.22-.5.5-.5h1v0c.27 0 .5.22.5.5 0 .27-.23.5-.5.5h-1v0c-.28 0-.5-.23-.5-.5Zm-1.18 2.82v0c.19-.2.51-.2.7-.01 0 0 0 0 0 0l.7.7v0c.19.19.18.51-.02.7 -.2.18-.51.18-.7 0l-.71-.71v0c-.2-.2-.2-.52-.01-.71 0-.01 0-.01 0-.01Zm-2.83 1.17v0c.27 0 .5.22.5.5v1 0c0 .27-.23.5-.5.5 -.28 0-.5-.23-.5-.5v-1 0c0-.28.22-.5.5-.5Z"/></g></svg>