<svg viewBox="0 0 16 16" xmlns="http://www.w3.org/2000/svg"><g><path d="M5 12.5v-.001c-.01.82-.68 1.49-1.51 1.49 -.83-.01-1.5-.68-1.5-1.51 0-.64.4-1.21.99-1.42V9.46v0c0-.28.22-.5.5-.5 .27 0 .5.22.5.5v1.58h0c.59.21 1 .77 1 1.41Z"/><path d="M1 2.5v0C1 1.11 2.11 0 3.5 0 4.88 0 6 1.11 6 2.5v7.55 -.001c1.35 1.38 1.33 3.59-.06 4.94 -1.39 1.35-3.6 1.33-4.95-.06 -1.34-1.37-1.34-3.54-.001-4.9v-7.55ZM3.5 1v0C2.67 1 2 1.67 2 2.5v7.987l-.17.15 0-.001c-1.03.92-1.12 2.5-.2 3.53 .92 1.02 2.5 1.11 3.53.19 1.02-.93 1.11-2.51.19-3.54 -.07-.07-.13-.14-.2-.2l-.17-.16V2.46v0c0-.83-.68-1.5-1.5-1.5Zm5 1v0c.27 0 .5.22.5.5v1.29l.64-.65v0c.19-.2.51-.2.7 0 .19.19.19.51 0 .7L8.98 5.19v1.92l1.66-.97 .49-1.85v0c.07-.27.34-.43.61-.36 .26.07.42.34.35.61 -.01 0-.01 0-.01 0l-.24.88 1.12-.65v0c.24-.14.54-.06.68.18 .13.23.05.54-.19.67l-1.12.64 .88.23v0c.26.07.42.34.35.61 -.08.26-.35.42-.62.35 -.01-.01-.01-.01-.01-.01l-1.85-.5 -1.67.96 1.66.96 1.84-.5v0c.26-.08.54.07.61.34 .07.26-.08.54-.35.61 -.01 0-.02 0-.02 0l-.89.23 1.12.64v0c.23.13.31.44.17.68 -.14.23-.45.31-.68.18l-1.12-.65 .23.88v0c.07.26-.08.54-.35.61 -.27.07-.55-.08-.62-.35 -.01-.01-.01-.02-.01-.02l-.5-1.85 -1.67-.97v1.92l1.35 1.35v0c.19.19.19.51 0 .7 -.2.19-.52.19-.71 0l-.65-.65v1.29 0c0 .27-.23.5-.5.5 -.28 0-.5-.23-.5-.5v-11 0c0-.28.22-.5.5-.5Z"/></g></svg>