<svg viewBox="0 0 16 16" xmlns="http://www.w3.org/2000/svg"><g><path d="M4 4.85v.9h1v-.9H4Zm7 0v.9h1v-.9h-1Zm-7 1.8v.9h1v-.9H4Zm7 0v.9h1v-.9h-1Zm-7 1.8v.9h1v-.9H4Zm7 0v.9h1v-.9h-1Zm-7 1.8v.9h1v-.9H4Zm7 0v.9h1v-.9h-1Z"/><path d="M1.5 3v0C.67 3 0 3.67 0 4.5V6v0c0 .27.22.5.5.5h0C1.32 6.5 2 7.17 2 8c0 .82-.68 1.5-1.5 1.5v0c-.28 0-.5.22-.5.5v1.5h-.001c0 .82.67 1.5 1.5 1.5h13v0c.82 0 1.5-.68 1.5-1.5V10v0c0-.28-.23-.5-.5-.5v0c-.83 0-1.5-.68-1.5-1.5 0-.83.67-1.5 1.5-1.5v0c.27 0 .5-.23.5-.5V4.5v0c0-.83-.68-1.5-1.5-1.5h-13ZM1 4.5v0c0-.28.22-.5.5-.5h13v0c.27 0 .5.22.5.5v1.05 0c-1.36.27-2.23 1.59-1.96 2.94 .19.98.96 1.75 1.95 1.95v1.05 0c0 .27-.23.5-.5.5h-13v0c-.28 0-.5-.23-.5-.5v-1.05 0c1.35-.28 2.22-1.6 1.95-2.95 -.2-.99-.97-1.76-1.96-1.96V4.48Z"/></g></svg>