<svg viewBox="0 0 16 16" xmlns="http://www.w3.org/2000/svg"><g><path d="M9.46 10h2.53v0c1.1 0 2 .89 2 2 0 1.1-.9 2-2 2H9.45c.34-.59.53-1.28.53-2 0-.73-.2-1.42-.54-2Z"/><path d="M6 15v0c1.65 0 3-1.35 3-3 0-1.66-1.35-3-3-3v0c-1.66 0-3 1.34-3 3 0 1.65 1.34 3 3 3Zm0 1v0c-2.21 0-4-1.8-4-4 0-2.21 1.79-4 4-4v0c2.2 0 4 1.79 4 4 0 2.2-1.8 4-4 4Zm.53-10l0 0c-.19-.32-.32-.65-.41-1H3.99v0c-.56 0-1-.45-1-1 0-.56.44-1 1-1h2.12c.09-.355.23-.69.41-1H3.98v0c-1.11 0-2 .89-2 2 0 1.1.89 2 2 2h2.53Z"/><path d="M14 4v0c0 2.2-1.8 4-4 4C7.79 8 6 6.2 6 4v0c0-2.21 1.79-4 4-4 2.2 0 4 1.79 4 4Z"/></g></svg>