<svg viewBox="0 0 16 16" xmlns="http://www.w3.org/2000/svg"><path d="M4.5 9v0C2.56 9 1 10.56 1 12.5 1 14.43 2.56 16 4.5 16h7v0c1.93 0 3.5-1.57 3.5-3.5 0-1.94-1.57-3.5-3.5-3.5h-7Zm7 6v0C10.11 15 9 13.88 9 12.5c0-1.39 1.11-2.5 2.5-2.5v0c1.38 0 2.5 1.11 2.5 2.5 0 1.38-1.12 2.5-2.5 2.5Zm-7-14v0C3.11 1 2 2.11 2 3.5 2 4.88 3.11 6 4.5 6v0C5.88 6 7 4.88 7 3.5 7 2.11 5.88 1 4.5 1Zm2.45 0v0C7.62 1.65 8 2.55 8 3.5v0c0 .94-.38 1.84-1.05 2.5h4.55v0C12.88 6 14 4.88 14 3.5 14 2.11 12.88 1 11.5 1H6.95ZM4.5 0h7v0C13.43 0 15 1.56 15 3.5 15 5.43 13.43 7 11.5 7h-7v0C2.56 7 1 5.43 1 3.5 1 1.56 2.56 0 4.5 0Z"/></svg>