<svg viewBox="0 0 16 16" xmlns="http://www.w3.org/2000/svg"><path d="M1.125 2.45h0c-.09-.14-.13-.3-.13-.45 0-.26.11-.474.258-.64l-.001-.001c.14-.16.32-.29.51-.389 .387-.21.91-.385 1.52-.525C4.502.15 6.17-.02 7.991-.02c1.82 0 3.48.17 4.709.452 .6.14 1.13.314 1.52.52 .19.1.37.23.51.389 .14.16.25.37.25.63 0 1.01-.35 1.612-.64 2.1 -.04.07-.08.13-.12.2v0c-.15.24-.26.52-.32.8v0c-.05.29-.06.59-.02.89v0c.27-.05.52.14.56.41 .02.15-.03.31-.15.43 -.06.06-.14.12-.22.19 .2 1.11.08 1.99-.3 2.71 -.46.84-1.24 1.38-2.02 1.85 -.21.12-.42.24-.62.36 -1.45.83-2.93 1.689-3.74 3.7v0c-.11.25-.4.38-.65.27 -.04-.02-.07-.04-.1-.06l-.01-.01 -.01-.01 -.01-.01 -.01-.01h0c-.06-.04-.1-.08-.15-.12h0c-.53-.45-.94-1.02-1.18-1.66l-.001-.001c-.16-.42-.25-.86-.25-1.3h0c-.09-.1-.13-.21-.13-.34v-.02H4.88c0-.03 0-.06 0-.08H4.88c.02-.15.08-.28.18-.39 .09-.49.27-1.02.57-1.58v0c-.25-.13-.35-.43-.22-.68 .05-.12.16-.21.28-.25h0c.2-.07.4-.12.617-.15l.15-.2c.28-.36.4-.64.43-.87V8.14c.03-.22-.02-.44-.13-.62 -.25-.46-.82-.91-1.62-1.43 -.2-.13-.4-.258-.609-.4l-.12-.08H4.41c-.42-.09-.84-.21-1.25-.34v0c-.27-.09-.41-.38-.32-.64 0-.03.01-.06.03-.08l-.23-.18C1.93 3.79 1.27 3.1.93 2.23ZM3.09 3.5c.11.1.23.2.35.3 .472.38.99.72 1.51 1.06 1.54.31 3.63.5 5.43.14v0c.27-.06.53.12.58.39 .05.27-.13.53-.4.58 -1.22.24-2.54.26-3.76.15 .399.32.74.68.96 1.08 .2.37.3.79.23 1.24 -.05.33-.19.657-.39.98 .07.01.14.03.22.05l0 0c.48.12.86.21 1.47.01v0c.26-.09.54.05.63.31 .08.26-.06.54-.32.63 -.01 0-.01 0-.01 0 -.89.29-1.51.14-2.03.01l-.01-.01H7.55c-.22-.06-.43-.11-.65-.13 -.37.55-.6 1.05-.726 1.49 .14.04.29.11.46.19v0c.24.12.34.42.22.66 -.13.24-.43.34-.67.22 -.01-.01-.01-.01-.01-.01v0c-.05-.03-.1-.05-.15-.07 .01.34.08.64.18.89 .14.36.34.66.52.88 .992-1.91 2.583-2.814 3.885-3.56 .2-.12.39-.23.58-.34 .77-.47 1.34-.89 1.65-1.48 .21-.4.33-.9.26-1.617V7.54c-.99.54-2.1.82-3.218.83v0c-.28 0-.5-.23-.5-.5 0-.28.22-.5.5-.5v0c1.06-.01 2.11-.31 3.01-.88v0c-.01-.01-.01-.02-.01-.03 -.14-.673-.14-1.21-.06-1.665 .08-.46.25-.81.42-1.113l.13-.23c.06-.12.12-.22.18-.33 -.29.1-.62.2-.98.28 -1.221.28-2.89.45-4.708.45 -1.83 0-3.49-.17-4.71-.46 -.07-.02-.13-.03-.2-.05ZM13.96 1.99v0c-.07-.06-.14-.11-.22-.15 -.28-.15-.7-.3-1.266-.43C11.34 1.14 9.76.98 7.99.98c-1.77 0-3.36.16-4.484.42 -.569.13-1 .28-1.266.42v0c-.08.03-.15.08-.22.14 .04.03.1.08.21.14 .27.14.69.29 1.266.42 1.13.26 2.71.42 4.484.42 1.76 0 3.35-.17 4.484-.43 .56-.13.99-.28 1.266-.43V2.07c.07-.04.14-.09.21-.15Z"/></svg>