<svg viewBox="0 0 16 16" xmlns="http://www.w3.org/2000/svg"><path fill-rule="evenodd" d="M5.73-.001v0c-.24 0-.47.05-.67.15L1.82 1.76v0c-.51.25-.83.77-.83 1.34v5.51l2-.6V4.98v0c0-.56.44-1 1-1h8v0c.55 0 1 .44 1 1V8l2 .6V3.09v0c-.01-.57-.33-1.09-.83-1.35L10.926.12v0c-.21-.11-.44-.16-.68-.16h-4.53Zm9.264 9.672l-5.503-1.65v0c-.05-.02-.1-.03-.15-.03h-.86v8h4v0c1.38 0 2.5-1.12 2.5-2.5v-3.83Zm-7.5 6.32v-8h-.86v0c-.05-.01-.1 0-.15.02L.98 9.66v3.82 0c0 1.38 1.11 2.5 2.5 2.5h4Zm-1-14v0c-.28 0-.5.22-.5.5 0 .27.22.5.5.5h3v0c.27 0 .5-.23.5-.5 0-.28-.23-.5-.5-.5h-3Zm5.5 3v2.72l-2.22-.665V7.04c-.14-.05-.29-.07-.43-.07h-.86v-2h3.5Zm-4.5 0v2h-.86V6.99c-.15-.01-.3.02-.44.06l-2.22.66V4.98h3.5Zm-4 5v0c-.28 0-.5.22-.5.5 0 .27.22.5.5.5v0c.27 0 .5-.23.5-.5 0-.28-.23-.5-.5-.5Zm9 0v0c-.28 0-.5.22-.5.5 0 .27.22.5.5.5v0c.27 0 .5-.23.5-.5 0-.28-.23-.5-.5-.5Zm-7.5 3v0c0 .55-.45 1-1 1 -.56 0-1-.45-1-1v0c0-.56.44-1 1-1 .55 0 1 .44 1 1Zm7 1v0c.55 0 1-.45 1-1 0-.56-.45-1-1-1v0c-.56 0-1 .44-1 1 0 .55.44 1 1 1Z"/></svg>