<svg viewBox="0 0 16 16" xmlns="http://www.w3.org/2000/svg"><g><path d="M4.545 6.71L4.1 7.99H2.99l1.862-5h1.28l1.854 5h-1.17L6.38 6.7H4.52Zm1.63-.74l-.68-2.03h-.05l-.68 2.02h1.4Z"/><path d="M0 2v0C0 .89.89 0 2 0h7v0c1.1 0 2 .89 2 2v3h3v0c1.1 0 2 .89 2 2v7 0c0 1.1-.9 2-2 2H7v0c-1.11 0-2-.9-2-2v-3H2v0c-1.11 0-2-.9-2-2V2Zm2-1v0c-.56 0-1 .44-1 1v7 0c0 .55.44 1 1 1h7v0c.55 0 1-.45 1-1V2v0c0-.56-.45-1-1-1H2Zm7.138 9.99c.19.3.4.58.63.84 -.75.57-1.673 1-2.77 1.29 .17.21.45.63.55.86 1.125-.359 2.08-.85 2.88-1.5 .77.66 1.73 1.16 2.93 1.47 .13-.26.41-.673.62-.89 -1.125-.26-2.06-.7-2.82-1.29 .68-.75 1.22-1.66 1.62-2.76h1.19V7.96h-3V9h.76c-.32.84-.74 1.54-1.28 2.13h-.001c-.15-.16-.29-.33-.42-.5h0c-.29.18-.61.28-.94.31Z"/></g></svg>