<svg viewBox="0 0 16 16" xmlns="http://www.w3.org/2000/svg"><g><path d="M5.5 5.5v0c.27 0 .5.22.5.5v6 0c0 .27-.23.5-.5.5 -.28 0-.5-.23-.5-.5V6v0c0-.28.22-.5.5-.5Zm2.5 0v0c.27 0 .5.22.5.5v6 0c0 .27-.23.5-.5.5 -.28 0-.5-.23-.5-.5V6v0c0-.28.22-.5.5-.5Zm3 .5v0c0-.28-.23-.5-.5-.5 -.28 0-.5.22-.5.5v6 0c0 .27.22.5.5.5 .27 0 .5-.23.5-.5V6Z"/><path fill-rule="evenodd" d="M14.5 3v0c0 .55-.45 1-1 1H13v9 0c0 1.1-.9 2-2 2H5v0c-1.11 0-2-.9-2-2V4h-.5v0c-.56 0-1-.45-1-1V2v0c0-.56.44-1 1-1H6v0c0-.56.44-1 1-1h2v0c.55 0 1 .44 1 1h3.5v0c.55 0 1 .44 1 1v1ZM4.11 4l-.12.05v8.94 0c0 .55.44 1 1 1h6v0c.55 0 1-.45 1-1V4.04l-.12-.06H4.1ZM2.49 3V2h11v1h-11Z"/></g></svg>