<svg viewBox="0 0 16 16" xmlns="http://www.w3.org/2000/svg"><path d="M11 1.5v1h3.5v0c.27 0 .5.22.5.5 0 .27-.23.5-.5.5h-.54l-.86 10.66v0c-.09 1.03-.96 1.84-2 1.84H4.87v0c-1.05 0-1.92-.81-2-1.84L2.01 3.5h-.54v0c-.28 0-.5-.23-.5-.5 0-.28.22-.5.5-.5h3.5v-1 0c0-.83.67-1.5 1.5-1.5h3v0c.82 0 1.5.67 1.5 1.5Zm-5 0v1h4v-1 0c0-.28-.23-.5-.5-.5h-3v0c-.28 0-.5.22-.5.5ZM4.5 5.029l.5 8.5v0c.01.27.24.49.51.47 .27-.02.49-.25.47-.52 -.01-.01-.01-.02-.01-.02l-.5-8.5v0c-.02-.28-.25-.5-.52-.48 -.28.01-.5.24-.48.51 0 0 0 .01 0 .01Zm6.53-.53v0c-.28-.02-.52.19-.53.47l-.5 8.5h0c-.01.27.2.5.48.51 .26 0 .49-.2.51-.46l.5-8.5v0c.01-.28-.2-.52-.47-.53ZM8 4.489v0c-.28 0-.5.22-.5.5v8.5 0c0 .27.22.5.5.5 .27 0 .5-.23.5-.5v-8.5 0c0-.28-.23-.5-.5-.5Z"/></svg>