<svg viewBox="0 0 16 16" xmlns="http://www.w3.org/2000/svg"><path d="M2.5 1v0c-.56 0-1 .44-1 1v1 0c0 .55.44 1 1 1H3v9 0c0 1.1.89 2 2 2h6v0c1.1 0 2-.9 2-2V4h.5v0c.55 0 1-.45 1-1V2v0c0-.56-.45-1-1-1H10v0c0-.56-.45-1-1-1H7v0c-.56 0-1 .44-1 1H2.5Zm3 4v0c.27 0 .5.22.5.5v7 0c0 .27-.23.5-.5.5 -.28 0-.5-.23-.5-.5v-7 0c0-.28.22-.5.5-.5ZM8 5v0c.27 0 .5.22.5.5v7 0c0 .27-.23.5-.5.5 -.28 0-.5-.23-.5-.5v-7 0c0-.28.22-.5.5-.5Zm3 .5v7 0c0 .27-.23.5-.5.5 -.28 0-.5-.23-.5-.5v-7 0c0-.28.22-.5.5-.5 .27 0 .5.22.5.5Z"/></svg>