<svg viewBox="0 0 16 16" xmlns="http://www.w3.org/2000/svg"><g><path d="M8 9.5v0c1.1 0 2-.9 2-2 0-1.11-.9-2-2-2v0c-1.11 0-2 .89-2 2 0 1.1.89 2 2 2Z"/><path d="M9.5 2c-.9 0-1.75.21-2.51.6v-.001c2.7-.56 5.34 1.19 5.89 3.89 .06.32.1.66.1 1v0c0 3.58-2.92 6.5-6.5 6.5 -3.59 0-6.5-2.92-6.5-6.5v0c0-.28.22-.5.5-.5 .27 0 .5.22.5.5v0c-.01 3.03 2.46 5.5 5.49 5.5 .87 0 1.72-.21 2.5-.61v-.001c-2.71.55-5.35-1.2-5.9-3.9 -.07-.33-.11-.67-.11-1.01l0 0c0-3.59 2.91-6.5 6.5-6.5 3.58 0 6.5 2.91 6.5 6.5v0c0 .27-.23.5-.5.5 -.28 0-.5-.23-.5-.5v0c-.001-3.04-2.47-5.5-5.5-5.5ZM8 3.5v0c-2.21 0-4 1.79-4 4 0 2.2 1.79 4 4 4v0c2.2 0 4-1.8 4-4 0-2.21-1.8-4-4-4Z"/></g></svg>