<svg viewBox="0 0 16 16" xmlns="http://www.w3.org/2000/svg"><path fill-rule="evenodd" d="M3.5 0v0C2.11 0 1 1.11 1 2.5v9c0 .81.393 1.54 1 2v2 0c0 .27.22.5.5.5h2v0c.27 0 .5-.23.5-.5V14h6v1.5 0c0 .27.22.5.5.5h2v0c.27 0 .5-.23.5-.5v-2c.6-.46 1-1.19 1-2v-9 0C15 1.11 13.88 0 12.5 0h-9ZM3 3v0c0-.56.44-1 1-1h8v0c.55 0 1 .44 1 1v3.9c0 .625-.57 1.09-1.17.99 -.91-.15-2.63-.4-3.83-.4 -1.21 0-2.925.24-3.83.39v0c-.55.08-1.07-.29-1.16-.84 -.01-.06-.02-.11-.02-.17v-3.9Zm1 9v0c.55 0 1-.45 1-1 0-.56-.45-1-1-1v0c-.56 0-1 .44-1 1 0 .55.44 1 1 1Zm8 0v0c.55 0 1-.45 1-1 0-.56-.45-1-1-1v0c-.56 0-1 .44-1 1 0 .55.44 1 1 1Zm-5-2v0c-.56 0-1 .44-1 1 0 .55.44 1 1 1h2v0c.55 0 1-.45 1-1 0-.56-.45-1-1-1H7Z"/></svg>