<svg viewBox="0 0 16 16" xmlns="http://www.w3.org/2000/svg"><path d="M.03 12.314h0c.1-.26.39-.39.65-.28l1.75.7H2.42c.35.14.75.14 1.11 0l1.01-.41v-.001c.59-.24 1.26-.24 1.85 0l1.01.4v0c.35.14.75.14 1.11 0l1.01-.41h0c.59-.24 1.26-.24 1.85 0l1.01.4h-.001c.35.14.75.14 1.11 0l1.75-.71v0c.25-.11.54.01.65.26 .1.25-.02.54-.27.65 -.01 0-.02 0-.02 0l-1.76.7 0-.001c-.6.23-1.27.23-1.86 0l-1.02-.41v0c-.36-.15-.76-.15-1.12 0l-1.02.4v0c-.6.23-1.27.23-1.86 0l-1.02-.41v0c-.36-.15-.76-.15-1.12 0l-1.02.4v0c-.6.23-1.27.23-1.86 0L.19 12.88H.19c-.26-.11-.39-.4-.28-.65Zm0 2h0c.1-.26.39-.39.65-.28l1.75.7h0c.35.14.75.14 1.11 0l1.01-.41v-.001c.59-.24 1.26-.24 1.85 0l1.01.4v-.001c.35.14.75.14 1.11 0l1.01-.41 0 0c.59-.24 1.26-.24 1.85 0l1.01.4v0c.35.14.75.14 1.11-.001l1.75-.71v0c.25-.11.54.01.65.26 .1.25-.02.54-.27.65 -.01 0-.02 0-.02 0l-1.76.7 0-.001c-.6.23-1.27.23-1.86 0l-1.02-.41v0c-.36-.15-.76-.15-1.12 0l-1.02.4 0 0c-.6.23-1.27.23-1.86-.001l-1.02-.41h0c-.36-.15-.76-.15-1.12 0l-1.02.4 0 0c-.6.23-1.27.23-1.86 0L.19 14.87H.19c-.26-.11-.39-.4-.28-.65ZM2.65 8.08c-.46 1.06-.994 2.09-1.842 2.8h0c-.22.17-.54.13-.71-.09 -.17-.21-.14-.52.06-.69C.81 9.55 1.27 8.71 1.72 7.67c.14-.33.28-.68.42-1.05 .3-.76.62-1.56 1.01-2.308 .58-1.14 1.34-2.23 2.51-3.04C6.83.46 8.386-.03 10.468-.03c1.46 0 2.51.4 3.17 1.058 .67.66.89 1.518.81 2.3 -.08.77-.45 1.516-1.02 1.96v0c-.54.43-1.27.53-1.904.27 -.65.64-.907 1.67-.71 2.61 .21 1 .92 1.79 2.13 1.79h2.5v0c.27 0 .5.22.5.5 0 .27-.23.5-.5.5h-2.5c-1.79 0-2.83-1.22-3.12-2.59 -.24-1.1 0-2.38.75-3.29L10.42 5l-.78.38v0c-.15.07-.31.07-.45 0l-1-.5v0c-.25-.14-.34-.44-.21-.68 .12-.24.4-.33.64-.22l.77.38 .77-.39v0c.14-.08.3-.08.44 0l1 .5V4.47c.01 0 .02.01.03.01 .44.26.81.19 1.1-.04 .32-.26.58-.73.63-1.27 .05-.53-.1-1.076-.53-1.5 -.43-.42-1.19-.77-2.48-.77 -1.92 0-3.26.44-4.24 1.123 -.99.67-1.66 1.61-2.2 2.66 -.37.71-.66 1.43-.95 2.16 -.15.37-.31.75-.47 1.13Z"/></svg>