<svg viewBox="0 0 16 16" xmlns="http://www.w3.org/2000/svg"><path d="M2.27 9.53v0c1.25 0 2.27-1.02 2.27-2.28 0-1.26-1.02-2.28-2.28-2.28v0C1 4.97-.02 5.98-.02 7.24c0 1.25 1.01 2.27 2.27 2.27Zm9.46-4.99v0C12.98 4.54 14 3.52 14 2.26 14 1 12.98-.01 11.72-.01v0C10.46-.01 9.44 1 9.44 2.26c0 1.25 1.01 2.27 2.27 2.27ZM7.39 13.1v-.001c-1.63-.35-3.02-1.41-3.78-2.88h0c-.61.27-1.29.36-1.95.24h0c.92 2.28 2.91 3.95 5.32 4.465 .53.11 1.07.16 1.61.16v-.001c-.42-.55-.66-1.22-.67-1.9v0c-.19-.03-.38-.06-.56-.1Zm3.82 2.285v-.001c1.25 0 2.27-1.02 2.27-2.28 0-1.26-1.02-2.28-2.28-2.28v0c-1.26 0-2.28 1.01-2.28 2.27 0 1.25 1.01 2.27 2.27 2.27Zm3.16-3.11l0-.001c1.99-2.53 2.14-6.05.37-8.73v0c-.27.61-.71 1.14-1.28 1.49v-.001c.92 1.74.85 3.85-.19 5.53v0c.53.43.91 1.02 1.08 1.69ZM2.07 3.98v0c.66-.04 1.32.13 1.89.48l0 0c1.01-1.47 2.67-2.36 4.46-2.39 .03-.67.27-1.313.69-1.843L9.11.23C6.23.01 3.48 1.47 2.05 3.974Z"/></svg>