<svg viewBox="0 0 16 16" xmlns="http://www.w3.org/2000/svg"><path d="M7 2.5v0c0-.28.22-.5.5-.5h7v0c.27 0 .5.22.5.5v1 0c0 .27-.23.5-.5.5h-7v0c-.28 0-.5-.23-.5-.5v-1ZM0 12v0c0-1.66 1.34-3 3-3 1.65 0 3 1.34 3 3v0c0 1.65-1.35 3-3 3 -1.66 0-3-1.35-3-3Zm7-1.5v0c0-.28.22-.5.5-.5h7v0c.27 0 .5.22.5.5v1 0c0 .27-.23.5-.5.5h-7v0c-.28 0-.5-.23-.5-.5v-1Zm0-5v0c0-.28.22-.5.5-.5h5v0c.27 0 .5.22.5.5 0 .27-.23.5-.5.5h-5v0c-.28 0-.5-.23-.5-.5Zm0 8v0c0-.28.22-.5.5-.5h5v0c.27 0 .5.22.5.5 0 .27-.23.5-.5.5h-5v0c-.28 0-.5-.23-.5-.5ZM3 1v0C1.34 1 0 2.34 0 4c0 1.65 1.34 3 3 3v0c1.65 0 3-1.35 3-3 0-1.66-1.35-3-3-3Zm0 4.5v0c-.83 0-1.5-.68-1.5-1.5 0-.83.67-1.5 1.5-1.5v0c.82 0 1.5.67 1.5 1.5 0 .82-.68 1.5-1.5 1.5Z"/></svg>