<svg viewBox="0 0 16 16" xmlns="http://www.w3.org/2000/svg"><path fill-rule="evenodd" d="M8 0v0c.27 0 .5.22.5.5v.514c4.125.22 7.5 3.2 7.5 6.986 0 0 0 .5-.5.5 -.15 0-.36-.15-.36-.15l-.01-.01 -.03-.03v0c-.18-.15-.36-.29-.56-.4h0c-.48-.28-1.02-.43-1.564-.44 -.64 0-1.18.21-1.564.43l0 0c-.2.11-.39.24-.56.39l-.03.02 -.01 0s-.21.14-.36.14 -.36-.15-.36-.15l-.01-.01 -.03-.03v0c-.18-.15-.36-.29-.56-.4V7.85c-.33-.2-.69-.33-1.064-.39v5.95h-.5 .5v.03l-.01.08v0c-.03.38-.13.75-.3 1.1v0c-.18.35-.44.65-.77.88 -.38.24-.85.39-1.44.39s-1.061-.15-1.44-.4v0c-.33-.23-.6-.53-.77-.88l-.001 0c-.19-.37-.29-.78-.31-1.19v-.03l-.01-.01v-.01s0-.01.5-.01h-.5v-.5h0c0-.28.22-.5.5-.5 .27 0 .5.22.5.5v.5l0 .04V13.4c.01.25.08.49.19.72 .09.19.23.36.42.49 .19.12.46.22.87.22s.68-.11.87-.23c.19-.13.32-.31.42-.5v0c.11-.25.18-.51.19-.77V7.36L7.33 7.36c-.38.06-.74.19-1.064.39V7.75c-.21.11-.41.25-.58.41l-.01 0s-.21.14-.36.14 -.36-.15-.36-.15l-.01-.01v0c-.18-.16-.38-.3-.58-.42l0-.001c-.48-.28-1.02-.43-1.564-.44 -.64 0-1.177.21-1.564.43H1.24c-.21.11-.41.25-.58.41l-.01 0s-.21.14-.36.14c-.5 0-.5-.5-.5-.5C-.21 3.98 3.16 1 7.29.77V.25v0c0-.28.22-.5.5-.5Z"/></svg>