<svg viewBox="0 0 16 16" xmlns="http://www.w3.org/2000/svg"><path d="M6 .5v0c0-.28.22-.5.5-.5h4v0c.27 0 .5.22.5.5v4H6v-4ZM7 1v1h1V1H7Zm2 0v1h1V1H9ZM6 5v0c-.56 0-1 .44-1 1v4.39c0 .49.14.97.42 1.38l1.03 1.55c.35.53.54 1.15.54 1.78 0 .48.39.87.87.87h1.25c.48 0 .87-.39.87-.88 0-.64.18-1.26.54-1.79l1.04-1.56v0c.27-.42.41-.9.41-1.39V5.95v0c0-.56-.45-1-1-1h-5Zm0 1h5v4.39 0c-.01.29-.09.58-.26.83L9.7 12.77h-.001c-.44.65-.69 1.42-.71 2.21H7.97h0c-.03-.8-.27-1.56-.71-2.22L6.22 11.2h0c-.17-.25-.26-.54-.26-.84v-4.4Z"/></svg>