<svg viewBox="0 0 16 16" xmlns="http://www.w3.org/2000/svg"><path d="M6.717 3.55v0c.17.08.28.25.28.45v8H6.99c-.01.27-.23.49-.51.49 -.12-.01-.23-.04-.32-.11L3.8 10.49H1.47v0c-.28 0-.5-.23-.5-.5v-4 0c0-.28.22-.5.5-.5h2.32L6.15 3.6v0c.15-.13.35-.15.52-.06Zm-.72 1.49l-1.69 1.35v0c-.09.07-.2.1-.32.11h-2v3h2v0c.11 0 .22.03.31.11l1.68 1.35V5.04Zm7.85.6v0c.19.19.19.51 0 .7 -.01 0-.01 0-.01 0l-1.65 1.646 1.64 1.64v0c.19.19.19.51 0 .7 -.2.19-.52.19-.71 0l-1.65-1.65 -1.65 1.64v0c-.2.19-.52.19-.71 0 -.2-.2-.2-.52-.001-.71l1.64-1.65 -1.65-1.65v0c-.2-.2-.2-.52 0-.71 .19-.2.51-.2.7 0l1.64 1.64 1.64-1.65v0c.19-.2.51-.2.7-.01 0 0 0 0 0 0Z"/></svg>