<svg viewBox="0 0 16 16" xmlns="http://www.w3.org/2000/svg"><g><path d="M11.536 14.01v0c1.59-1.6 2.49-3.76 2.49-6.01v0c0-2.26-.9-4.42-2.49-6.01l-.71.7 0-.001c1.4 1.4 2.19 3.31 2.19 5.3 0 2.07-.84 3.94-2.2 5.3l.7.7Z"/><path d="M10.12 12.596v0c1.22-1.22 1.9-2.88 1.9-4.6l-.001-.001c0-1.73-.69-3.38-1.904-4.6l-.71.7v0c1.03 1.03 1.61 2.42 1.61 3.88v0c0 1.45-.58 2.85-1.61 3.89l.7.7Z"/><path d="M8.7 11.182v0c.84-.85 1.31-1.99 1.31-3.19v0c0-1.2-.48-2.34-1.32-3.19l-.71.7v0C8.63 6.15 9 7.04 9 7.97v0c0 .92-.37 1.81-1.03 2.47l.7.7ZM6.71 3.54v0c.17.08.28.25.28.45v8H6.98c-.01.27-.23.49-.51.49 -.12-.01-.23-.04-.32-.11L3.79 10.48H1.46v0c-.28 0-.5-.23-.5-.5v-4 0c0-.28.22-.5.5-.5h2.32L6.14 3.59v0c.15-.13.35-.15.52-.06Z"/></g></svg>