<svg viewBox="0 0 16 16" xmlns="http://www.w3.org/2000/svg"><g><path d="M11.536 14.01v0c1.59-1.6 2.49-3.76 2.49-6.01v0c0-2.26-.9-4.42-2.49-6.01l-.71.7 0-.001c1.4 1.4 2.19 3.31 2.19 5.3 0 2.07-.84 3.94-2.2 5.3l.7.7Z"/><path d="M10.12 12.596v0c1.22-1.22 1.9-2.88 1.9-4.6l-.001-.001c0-1.73-.69-3.38-1.904-4.6l-.71.7v0c1.03 1.03 1.61 2.42 1.61 3.88v0c0 1.45-.58 2.85-1.61 3.89l.7.7Z"/><path d="M10.025 8v0c0 1.19-.48 2.33-1.32 3.18l-.71-.71h-.001c.65-.66 1.02-1.55 1.02-2.48 0-.97-.4-1.85-1.03-2.48l.7-.71v0c.84.84 1.31 1.98 1.31 3.18ZM6.99 4H6.99c-.01-.28-.23-.5-.51-.5 -.12 0-.23.03-.32.1L3.8 5.49H1.47v0c-.28 0-.5.22-.5.5v4 0c0 .27.22.5.5.5h2.32l2.363 1.89v0c.21.17.53.13.7-.08 .07-.09.1-.2.1-.32v-8ZM4.3 6.39l1.68-1.35v5.92L4.29 9.61v0c-.09-.08-.2-.11-.32-.11h-2v-3h2v0c.11-.01.22-.04.31-.11Z"/></g></svg>