<svg viewBox="0 0 16 16" xmlns="http://www.w3.org/2000/svg"><g><path d="M8.5 5v0c0-.28-.23-.5-.5-.5 -.28 0-.5.22-.5.5v2.5H6v0c-.28 0-.5.22-.5.5 0 .27.22.5.5.5h2v0c.27 0 .5-.23.5-.5V5Z"/><path d="M5.66 16c-.92 0-1.67-.75-1.67-1.67v-1.86h0c-1.28-1.14-2.01-2.77-2-4.48 0-1.78.77-3.38 2-4.472V1.64C3.98.72 4.73-.02 5.65-.02h4.666c.92 0 1.66.746 1.66 1.667v1.86 0c1.01.9 1.69 2.13 1.91 3.48v0c.27-.05.53.14.57.41 0 .02 0 .05 0 .07v1 0c-.01.27-.23.49-.51.49 -.03-.01-.06-.01-.09-.01h0c-.23 1.34-.91 2.57-1.92 3.48v1.86c0 .92-.75 1.66-1.67 1.66H5.59Zm7.33-8v0c0-2.77-2.24-5-5-5 -2.77 0-5 2.23-5 5v0c0 2.76 2.23 5 5 5 2.76 0 5-2.24 5-5Z"/></g></svg>