<svg viewBox="0 0 16 16" xmlns="http://www.w3.org/2000/svg"><g><path d="M0 6v0c0-1.11.89-2 2-2h12v0c1.1 0 2 .89 2 2v3 0c0 1.1-.9 2-2 2H9.269c.14.16.33.32.53.47v-.001c.28.21.59.4.9.57l.01 0 0 0v0c.24.12.34.42.22.67 -.09.16-.26.27-.45.27h-5v0c-.28-.01-.5-.23-.5-.51 0-.19.1-.37.27-.45l0-.01 .01-.01v0c.09-.05.18-.1.26-.15l0-.001c.22-.13.43-.27.63-.43 .2-.15.38-.32.53-.48h-4.74v0c-1.11 0-2-.9-2-2v-3Zm2-1v0c-.56 0-1 .44-1 1v3 0c0 .55.44 1 1 1h12v0c.55 0 1-.45 1-1V6v0c0-.56-.45-1-1-1H2Z"/><path d="M8 6.5v0c-.56 0-1 .44-1 1 0 .55.44 1 1 1v0c.55 0 1-.45 1-1 0-.56-.45-1-1-1Zm-2 1v0c0-1.11.89-2 2-2 1.1 0 2 .89 2 2v0c0 1.1-.9 2-2 2 -1.11 0-2-.9-2-2Zm7 0v0c0 .27-.23.5-.5.5 -.28 0-.5-.23-.5-.5v0c0-.28.22-.5.5-.5 .27 0 .5.22.5.5Z"/></g></svg>