<svg viewBox="0 0 16 16" xmlns="http://www.w3.org/2000/svg"><g><path d="M11.17 14.429c-2.67 0-4.83-1.8-4.83-4.02 0-2.22 2.15-4.02 4.82-4.02 2.66 0 4.82 1.8 4.82 4.02 0 1.21-.65 2.301-1.67 3.03v0c-.12.08-.17.23-.12.36l.21.81v0c.01.03.02.07.02.11h-.001c-.01.08-.08.15-.17.16v0c-.04-.01-.07-.02-.1-.03l-1.06-.61v-.001c-.08-.05-.17-.08-.26-.08v0c-.05 0-.1 0-.15.02v0c-.52.14-1.05.22-1.58.22ZM9.05 9.53V9.53c.19.29.59.38.89.18 .29-.2.38-.6.18-.9 -.12-.18-.32-.29-.53-.3v0c-.36-.01-.65.28-.65.64 -.01 0-.01 0 0 0v0c-.01.12.02.24.09.35Zm3.23 0V9.53c.19.29.59.38.89.18 .29-.2.38-.6.18-.9 -.12-.19-.32-.3-.54-.3v0c-.36 0-.65.28-.65.64v0c-.01.12.03.24.09.35Z"/><path d="M0 6.826c0 1.45.78 2.76 2.001 3.65h0c.13.09.19.27.14.43l-.17.6 -.1.37 -.001 0c-.02.04-.03.09-.04.14v0c-.01.1.08.19.19.19 0 0 0 0 0 0 .03 0 .07-.01.11-.03l1.26-.74h0c.09-.06.19-.09.3-.09 .05 0 .11 0 .17.02v0c.52.15 1.07.23 1.62.26l-.001-.001c-.12-.41-.18-.83-.18-1.26 0-2.936 2.78-5.02 5.82-5.02 .05 0 .1 0 .15 0 -.74-1.97-2.94-3.4-5.528-3.4C2.54 1.94-.06 4.1-.06 6.77Zm4.632-1.56v0c0 .42-.35.77-.77.77 -.43 0-.77-.35-.77-.77v0c0-.43.34-.77.77-.77 .42 0 .77.34.77.77Zm3.875 0v0c0 .42-.35.77-.77.77 -.43 0-.77-.35-.77-.77v-.001c0-.43.34-.77.77-.77 .42 0 .77.34.77.77Z"/></g></svg>