<svg viewBox="0 0 16 16" xmlns="http://www.w3.org/2000/svg"><path d="M10.706 3.294v0c-.89-.2-1.8-.3-2.71-.3 -2.75 0-5.277.88-7.34 2.37h0c-.22.16-.26.46-.1.67 .01.02.03.03.05.05H.6c.18.17.46.19.66.05l-.001-.001c1.95-1.42 4.3-2.17 6.71-2.17 .63 0 1.24.05 1.85.14l.85-.86ZM7.99 6c-1.91 0-3.68.56-5.166 1.52v0c-.22.14-.28.44-.13.66 .01.02.04.05.06.07H2.75c.17.17.44.19.65.06H3.4c1.06-.68 2.25-1.12 3.51-1.27l1.06-1.07Zm2.596 1.404l.78-.79c.63.24 1.22.54 1.78.907v0c.21.15.27.44.12.66 -.02.02-.04.05-.07.07l0 0c-.18.17-.45.19-.66.06h0c-.62-.4-1.29-.71-1.98-.94ZM7.99 10l.93-.94v0c.7.1 1.38.31 2.013.63 .28.14.32.52.1.75l-.02.01v0c-.17.15-.41.19-.62.09v0c-.76-.37-1.59-.57-2.42-.56Zm4.9-4.905l.74-.75c.59.3 1.15.64 1.68 1.03v0c.21.16.25.46.09.67 -.02.02-.04.04-.06.05l-.001 0c-.19.17-.47.19-.67.05v0c-.57-.42-1.18-.77-1.82-1.07ZM9 11.77c.23.14.23.46.04.66l-.71.7v0c-.2.19-.52.19-.71 0l-.71-.71c-.2-.2-.2-.52.04-.66H6.95c.3-.19.66-.28 1.02-.28 .37 0 .72.1 1.02.28Zm4.355-9.91v0c.2-.21.54-.21.75-.001 .2.2.2.54 0 .75L3.36 13.36h0c-.21.2-.55.2-.75 0 -.21-.21-.21-.55-.001-.75L13.36 1.86Z"/></svg>