<svg viewBox="0 0 16 16" xmlns="http://www.w3.org/2000/svg"><path d="M13.229 8.271c.21-.22.19-.58-.07-.75v0c-1.54-1-3.34-1.53-5.17-1.53 -1.91 0-3.68.56-5.17 1.52v0c-.22.14-.28.44-.13.66 .01.02.04.05.06.07h0c.17.17.44.19.65.06L3.39 8.3c1.36-.88 2.95-1.34 4.57-1.34v0c1.62-.01 3.21.46 4.577 1.33 .2.13.48.1.65-.07Zm-2.183 2.183c.22-.23.18-.61-.1-.75h-.001c-.92-.47-1.93-.71-2.95-.71 -1.06 0-2.07.25-2.95.7 -.29.14-.33.52-.1.75l.01.01c.16.16.4.19.61.09v0c.75-.37 1.58-.57 2.42-.56 .86 0 1.69.2 2.42.56 .2.1.45.07.61-.1l.01-.02Zm-1.99 1.98c.19-.2.19-.52-.04-.66h-.001c-.31-.19-.67-.29-1.02-.28H7.99c-.36-.01-.72.09-1.02.28 -.24.14-.24.46-.04.66l.7.7h-.001c.19.19.51.19.7 0 0-.01 0-.01 0-.01l.7-.71Z"/></svg>