<svg viewBox="0 0 16 16" xmlns="http://www.w3.org/2000/svg"><path d="M12.5 2v0C11.11 2 10 3.11 10 4.5v0c0 .27-.23.5-.5.5 -.28 0-.5-.23-.5-.5v0C9 2.56 10.56 1 12.5 1 14.43 1 16 2.56 16 4.5 16 6.43 14.43 8 12.5 8H.5v0C.22 8 0 7.77 0 7.5c0-.28.22-.5.5-.5h12v0C13.88 7 15 5.88 15 4.5 15 3.11 13.88 2 12.5 2Zm-7 1v0c-.56 0-1 .44-1 1v0c0 .27-.23.5-.5.5 -.28 0-.5-.23-.5-.5v0c0-1.11.89-2 2-2 1.1 0 2 .89 2 2 0 1.1-.9 2-2 2h-5v0C.22 6 0 5.77 0 5.5c0-.28.22-.5.5-.5h5v0c.55 0 1-.45 1-1 0-.56-.45-1-1-1ZM0 9.5v0c0-.28.22-.5.5-.5h10.042v0c1.65 0 3 1.34 3 3 0 1.65-1.35 3-3 3 -1.66 0-3-1.35-3-3v0c0-.28.22-.5.5-.5 .27 0 .5.22.5.5v0c0 1.1.89 2 2 2 1.1 0 2-.9 2-2 0-1.11-.9-2-2-2H.5v0c-.28 0-.5-.23-.5-.5Z"/></svg>