<svg viewBox="0 0 16 16" xmlns="http://www.w3.org/2000/svg"><g><path d="M2.5 4v0c.27 0 .5-.23.5-.5 0-.28-.23-.5-.5-.5v0c-.28 0-.5.22-.5.5 0 .27.22.5.5.5Zm2-.5v0c0 .27-.23.5-.5.5 -.28 0-.5-.23-.5-.5v0c0-.28.22-.5.5-.5 .27 0 .5.22.5.5Zm1 .5v0c.27 0 .5-.23.5-.5 0-.28-.23-.5-.5-.5v0c-.28 0-.5.22-.5.5 0 .27.22.5.5.5Z"/><path d="M2 1v0C.89 1 0 1.89 0 3v10 0c0 1.1.89 2 2 2h12v0c1.1 0 2-.9 2-2V3v0c0-1.11-.9-2-2-2H2Zm12 1v0c.55 0 1 .44 1 1v2H1V3v0c0-.56.44-1 1-1h12ZM1 13V6h6.5v8H2v0c-.56 0-1-.45-1-1Zm7.5 1V6H15v7 0c0 .55-.45 1-1 1H8.5Z"/></g></svg>