<svg viewBox="0 0 16 16" xmlns="http://www.w3.org/2000/svg"><g><path d="M12.633 7.653c0-.85-.31-1.44-.57-1.9l-.08-.13c-.32-.51-.6-.96-.6-1.48 0-.63.47-1.22 1.15-1.22 .02 0 .03 0 .05 0l.03 0h0c-1.27-1.17-2.92-1.81-4.634-1.81v0C5.65 1.1 3.5 2.27 2.23 4.2c.16 0 .31 0 .44 0 .71 0 1.82-.09 1.82-.09 .37-.03.41.52.04.56 0 0-.38.04-.79.06l2.5 7.43 1.5-4.51 -1.07-2.93c-.37-.03-.72-.07-.72-.07 -.37-.03-.33-.59.04-.57 0 0 1.13.08 1.8.08 .71 0 1.83-.09 1.83-.09 .37-.03.41.52.04.56 0 0-.38.04-.79.06l2.48 7.37 .68-2.29 .05-.18c.27-.86.46-1.5.46-2.05Zm-11.5.34l0 0c-.01 2.62 1.5 5.02 3.868 6.17l-3.28-8.97 0 0c-.4.87-.6 1.83-.6 2.79Z"/><path d="M6.06 14.58l2.06-5.99 2.1 5.78c.01.03.03.06.04.09v0c-1.36.47-2.84.51-4.218.1Zm7.96-9.88c.03.21.04.45.04.7 0 .69-.13 1.479-.53 2.458l-2.096 6.06v0c3.21-1.87 4.35-5.97 2.57-9.23Z"/><path fill-rule="evenodd" d="M0 8c0-4.42 3.589-8 8-8 4.41 0 8 3.589 8 8s-3.59 8-8 8c-4.42 0-8-3.59-8-8Zm.367 0c0 4.209 3.424 7.63 7.633 7.63 4.208 0 7.632-3.43 7.632-7.633 0-4.21-3.43-7.64-7.632-7.64C3.79.35.367 3.78.367 7.99Z"/></g></svg>