<svg viewBox="0 0 16 16" xmlns="http://www.w3.org/2000/svg"><path d="M.1 2.223H.099c-.43 1.6.52 3.24 2.13 3.67 .5.13 1.03.13 1.54-.01l6.34 6.25v0c-.47 1.59.44 3.26 2.03 3.72 .27.08.55.12.84.12h0c1.65-.01 2.99-1.35 2.99-3.01 -.01-1.66-1.35-3-3.01-3 -.29 0-.57.04-.85.12L5.849 3.74v0c.42-1.61-.53-3.25-2.13-3.68C3.2-.08 2.66-.08 2.15.05l2.14 2.14 -.37 1.758 -1.76.36L.02 2.16Zm13.37 9.01l.52.02 .28.44 .44.28 .02.52 .24.47 -.25.47 -.03.52 -.45.28 -.29.44 -.53.02 -.48.24 -.48-.25 -.53-.03 -.29-.45 -.45-.29 -.03-.53 -.25-.48 .24-.48 .02-.53 .44-.29 .28-.45 .52-.03 .47-.25 .47.24Z"/></svg>