<svg viewBox="0 0 16 16" xmlns="http://www.w3.org/2000/svg"><g><path d="M8 15v0c-3.87 0-7-3.14-7-7 0-3.87 3.13-7 7-7v0c3.86 0 7 3.13 7 7 0 3.86-3.14 7-7 7Zm0 1v0c4.41 0 8-3.59 8-8 0-4.42-3.59-8-8-8v0C3.58 0 0 3.58 0 8c0 4.41 3.58 8 8 8Z"/><path d="M4.646 4.646v0c.19-.2.51-.2.7-.01 0 0 0 0 0 0l2.646 2.64 2.64-2.65V4.62c.19-.2.51-.2.7 0 .19.19.19.51 0 .7l-2.65 2.64 2.64 2.64v0c.19.19.19.51 0 .7 -.2.19-.52.19-.71 0l-2.65-2.65 -2.646 2.64v0c-.2.19-.52.19-.71 0 -.2-.2-.2-.52-.001-.71l2.64-2.65 -2.65-2.65v0c-.2-.2-.2-.52-.01-.71 0-.01 0-.01 0-.01Z"/></g></svg>