<svg viewBox="0 0 16 16" xmlns="http://www.w3.org/2000/svg"><path d="M11.46.14v0c-.1-.1-.23-.15-.36-.15H4.88v0c-.14 0-.26.05-.36.14L.12 4.524h0c-.1.09-.15.22-.15.35v6.21 0c0 .13.05.25.14.35l4.39 4.394h0c.09.09.22.14.35.14h6.21v0c.13-.01.25-.06.35-.15l4.39-4.4v0c.09-.1.14-.23.14-.36v-6.22 0c-.01-.14-.06-.26-.15-.36L11.396.08ZM5.35 4.64l2.64 2.64 2.64-2.65V4.62c.19-.2.51-.2.7 0 .19.19.19.51 0 .7L8.68 7.96l2.64 2.64v0c.19.19.19.51 0 .7 -.2.19-.52.19-.71 0l-2.65-2.65 -2.646 2.64v0c-.2.19-.52.19-.71 0 -.2-.2-.2-.52-.001-.71l2.64-2.65 -2.65-2.65v0c-.2-.2-.2-.52 0-.71 .19-.2.51-.2.7 0Z"/></svg>