<svg viewBox="0 0 16 16" xmlns="http://www.w3.org/2000/svg"><g><path d="M14 1v0c.55 0 1 .44 1 1v12 0c0 .55-.45 1-1 1H2v0c-.56 0-1-.45-1-1V2v0c0-.56.44-1 1-1h12ZM2 0v0C.89 0 0 .89 0 2v12 0c0 1.1.89 2 2 2h12v0c1.1 0 2-.9 2-2V2v0c0-1.11-.9-2-2-2H2Z"/><path d="M4.646 4.646v0c.19-.2.51-.2.7-.01 0 0 0 0 0 0l2.646 2.64 2.64-2.65V4.62c.19-.2.51-.2.7 0 .19.19.19.51 0 .7l-2.65 2.64 2.64 2.64v0c.19.19.19.51 0 .7 -.2.19-.52.19-.71 0l-2.65-2.65 -2.646 2.64v0c-.2.19-.52.19-.71 0 -.2-.2-.2-.52-.001-.71l2.64-2.65 -2.65-2.65v0c-.2-.2-.2-.52-.01-.71 0-.01 0-.01 0-.01Z"/></g></svg>