<svg viewBox="0 0 16 16" xmlns="http://www.w3.org/2000/svg"><path d="M4.18 10.09l.73-.17v0c.02-.01.04-.02.07-.02v0c.43-.12.69-.57.57-1 -.03-.1-.07-.19-.13-.26H5.41c-.09-.11-.19-.2-.3-.26v0c-.14-.08-.28-.15-.43-.2l-.81-.3 -.001-.001c-.46-.17-.91-.34-1.37-.5 -.3-.11-.55-.2-.77-.27 -.05-.02-.09-.03-.13-.04h0c-.2-.07-.4-.11-.61-.12v0c-.22-.01-.43.08-.58.24L.41 7.18c-.04.04-.08.08-.11.13h0c-.07.09-.12.2-.16.3 -.15.44-.225.9-.22 1.37 .002.42.01.96.24 1.33H.16c.05.09.13.17.22.24 .16.11.333.12.5.14 .26.01.51-.05.764-.11l2.447-.57 0 0Zm8.21-3.92v0c-.21-.43-.48-.81-.8-1.14l0-.001c-.09-.08-.18-.16-.28-.21v0c-.05-.03-.1-.06-.15-.08v0c-.21-.09-.43-.08-.63.03 -.15.07-.3.18-.5.37 -.03.02-.07.06-.1.08 -.17.15-.36.35-.58.57 -.34.34-.68.69-1.01 1.04l-.6.62h0c-.11.11-.21.23-.3.36v0c-.08.1-.13.23-.16.36v0c-.02.09-.02.2 0 .3 0 0 0 0 0 .01h-.001c.09.42.51.69.94.61v0c.02-.01.04-.01.07-.02l3.18-.74c.25-.06.5-.12.73-.25 .15-.09.29-.18.39-.35l0-.001c.05-.1.08-.21.09-.32 .05-.44-.18-.93-.36-1.31ZM6.68 7.5c.23-.29.23-.73.25-1.08 .07-1.181.14-2.37.2-3.543 .02-.45.07-.89.04-1.34 -.03-.38-.03-.8-.26-1.104 -.42-.54-1.3-.5-1.91-.42 -.19.02-.37.06-.56.1v0c-.19.04-.37.09-.55.14 -.58.19-1.4.53-1.53 1.204 -.08.377.1.76.24 1.107 .17.41.41.79.625 1.185 .57 1.036 1.15 2.06 1.72 3.097 .17.3.36.69.69.85 .02.01.04.01.06.02 .15.05.31.06.46.03l.02-.01h-.001c.14-.04.27-.12.37-.23V7.5c.01-.02.03-.04.05-.06Zm-.28 3.16v0c-.21-.3-.6-.4-.923-.24v0c-.06.02-.1.05-.15.09v0c-.14.1-.25.22-.35.35 -.03.03-.05.07-.08.1l-.52.7c-.29.39-.58.79-.87 1.19 -.19.26-.35.47-.472.67l-.08.11c-.16.23-.238.4-.29.55h0c-.04.1-.05.2-.03.31 .01.11.05.21.1.31 .03.04.06.09.1.13H2.83c.07.08.16.16.25.23h0c.65.44 1.4.7 2.19.76v0c.11 0 .23-.01.34-.03v0c.05-.02.1-.03.16-.05h0c.1-.04.19-.1.27-.18h0c.07-.08.13-.17.17-.27 .05-.15.09-.34.12-.62l.01-.13c.02-.24.03-.51.04-.83 .02-.49.04-.98.06-1.47l.03-.87v0c.01-.21-.01-.42-.06-.63h-.001c-.03-.1-.07-.19-.12-.27Zm5.78 1.36h0c-.15-.15-.32-.28-.5-.38l-.12-.07c-.2-.12-.44-.25-.72-.4 -.43-.24-.86-.47-1.295-.7l-.77-.41c-.04-.02-.08-.04-.12-.06v0c-.15-.08-.31-.14-.47-.17v0c-.06-.02-.12-.02-.17-.02v0c-.36 0-.67.26-.73.61v0c-.02.09-.01.19.01.29 .03.2.13.4.22.58l.41.76c.22.43.45.86.69 1.29 .15.28.28.52.39.71 .02.03.04.07.06.11 .14.23.26.39.37.49h0c.15.15.37.22.59.2v0c.05-.01.11-.02.16-.03v0c.11-.04.22-.08.32-.13v0c.31-.18.59-.39.85-.64 .3-.3.577-.63.78-1.01 .03-.06.05-.11.07-.17h-.001c.01-.06.03-.11.05-.17 .01-.06.02-.12.02-.17v0c.01-.12-.01-.23-.04-.33h0c-.04-.11-.1-.2-.17-.27Z"/></svg>