<svg viewBox="0 0 16 16" xmlns="http://www.w3.org/2000/svg"><path d="M8.051 1.99h.08c.82 0 4.987.03 6.11.33v0c.69.18 1.22.72 1.41 1.42 .1.38.17.883.22 1.4l.01.1 .02.26 0 .1c.06.91.07 1.77.07 1.95v.07c-.01.19-.01 1.1-.09 2.06l-.01.1 -.01.1c-.05.57-.13 1.14-.24 1.55v0c-.19.69-.73 1.23-1.42 1.42 -1.16.31-5.57.33-6.18.33h-.15c-.31 0-1.59-.01-2.93-.06l-.17-.01 -.09-.01 -.18-.01 -.18-.01c-1.11-.05-2.17-.13-2.654-.26H1.66c-.7-.19-1.24-.73-1.42-1.42 -.12-.42-.185-.99-.24-1.56l-.01-.11 -.01-.11 0-.001c-.05-.68-.08-1.36-.09-2.04v-.13c.002-.22.01-.96.064-1.78l0-.11 0-.06 0-.11 .02-.26 .01-.11C.03 4.49.1 3.98.21 3.6H.2c.18-.7.72-1.24 1.415-1.42 .48-.13 1.544-.21 2.654-.26l.17-.01 .17-.01 .08-.01 .17-.01 0 0c.95-.04 1.9-.05 2.85-.06h.19ZM6.391 5.2v4.81l4.15-2.41 -4.16-2.41Z"/></svg>