<svg viewBox="0 0 24 24" xmlns="http://www.w3.org/2000/svg"><path d="M9.422 10.72H8.07v3.8h2.458v-4.048h2.94v4.337h-1.35v1.35h-1.35v2.45h2.458v-2.7h2.699v-5.21h-1.35V9.34H9.41Zm1.35 11.95h2.45v-2.46h-2.46v2.45Zm-2.676-20h-1.35v1.35H5.39v1.34H4.04v1.35H2.69v6.699H1.34v1.35H-.01v2.45h1.35v1.35h1.34v1.34H5.14V12.04H3.79V7.8h1.35V6.45h1.34V5.1h1.35V3.75h8.289V5.1h1.34v1.34h1.35v1.35h1.34v4.24h-1.35v7.85h2.45v-1.35h1.35v-1.35h1.34v-2.46h-1.35v-1.35h-1.35v-6.7h-1.35V5.32h-1.35V3.97h-1.35V2.62h-1.35V1.27H8.03v1.35Z"/></svg>