<svg viewBox="0 0 24 24" xmlns="http://www.w3.org/2000/svg"><path d="M23.903 13.932c0-.25-.16-.35-.39-.35h-1.78c-.87 0-1.09-.53-1.12-.85h2.41c.73 0 .96-.55.96-.89 0-.37-.24-.89-.97-.89h-1.34c-1.26 0-1.67.85-1.67 1.545 0 .75.46 1.54 1.66 1.54h2.2v-.12Zm-2.17-2.52h1.16c.42 0 .52.25.52.42 0 .15-.1.42-.53.42h-2.32c.04-.28.29-.85 1.16-.85Zm-5.16 2.45c-.14.17-.2.25-.33.25 -.18 0-.22-.08-.33-.26 -.27-.39-1.9-2.9-1.9-2.9h.23c.38 0 .5.17.61.36 .09.15 1.41 2.16 1.41 2.16s1.23-1.92 1.41-2.183c.11-.18.27-.35.63-.35h.17s-1.7 2.59-1.94 2.89Zm-12.193.19c-.29 0-.41-.12-.45-.35l-.08-.33c-.08.13-.47.67-1.314.67h-.87c-1.32 0-1.69-.89-1.69-1.55 0-.74.444-1.55 1.681-1.55h.92c.94 0 1.468.54 1.58 1.21 .09.56.34 1.875.34 1.875h-.16Zm-1.92-2.61h-.74C.83 11.44.54 12 .54 12.5c0 .5.29 1.06 1.18 1.06h.73c.92 0 1.18-.58 1.18-1.07 0-.43-.24-1.07-1.18-1.07Zm16.638-.99c.13 0 .27-.08.27-.25v-.1c0-.16-.14-.26-.27-.26 -.14 0-.27.07-.27.25v.09c0 .17.13.25.27.25Zm-.26.5h.11c.25 0 .4.13.4.4v2.686h-.12c-.26 0-.41-.16-.41-.43V10.94Zm-13.45.44c.11-.12.46-.45 1.14-.45h.87c1.31 0 1.7.88 1.7 1.54 0 .734-.47 1.54-1.7 1.54h-.93c-.95 0-1.63-.6-1.63-1.55V9.88h.15c.27 0 .38.13.38.36v1.12ZM6.6 13.55h.734c.87 0 1.18-.56 1.18-1.07s-.29-1.07-1.18-1.07H6.6c-.93 0-1.18.58-1.18 1.06 -.02.42.23 1.06 1.17 1.06Zm3.63-2.17c.11-.12.46-.45 1.14-.45h.87c1.314 0 1.68.88 1.68 1.54 0 .734-.45 1.54-1.68 1.54h-.93c-.95 0-1.63-.6-1.63-1.55v-2.59h.15c.27 0 .38.13.38.36v1.12Zm1.21 2.16h.73c.88 0 1.17-.56 1.17-1.07s-.29-1.07-1.18-1.07h-.74c-.93 0-1.18.58-1.18 1.06 -.02.42.23 1.06 1.17 1.06Z"/></svg>