<svg viewBox="0 0 24 24" xmlns="http://www.w3.org/2000/svg"><path d="M14.17 4.21c-.39 0-4.01.02-4.37.02 -.62 0-.78-.01-.88.1 -.06.06-.14.16.15.52 .28.35 8.77 11.22 8.99 11.481 .27.33.52.44.63.46 .17.02.4-.07.52-.12 .11-.05 4.32-1.79 4.41-1.84 .14-.08.13-.29.03-.45 -.1-.16-.23-.34-.31-.43 -.08-.1-7.7-9.2-7.78-9.3 -.15-.19-.37-.37-.45-.39 -.09-.03-.21-.1-1-.1Zm-4.02 5.13s-.45.06-.95.56c-.34.34-9.08 8.94-9.13 9.01 -.05.06-.15.17-.07.24 .04.03.45-.1.65-.18 .02 0 4.29-1.37 4.29-1.37 .02-.03-.01-.01.02-.02 -.02-.19-.03-.99-.04-1.04 -.02-.16.05-.23.1-.26 .05-.04.15-.08.15-.08l3.47-1.27c.02-.03 3.31-3.07 3.38-3.13v-.05c-.03-.03-.04-.06-.07-.09 -.02-.01-1.86-2.39-1.86-2.38Zm1.84 5.06c-.12 0-.37.02-.55.1 -.19.08-5.45 1.97-5.64 2.05 -.19.07-.43.13-.42.28 0 .09.07.1.17.13s11.27 2.52 11.54 2.57c.26.05 1.12.29 1.57.2 .24-.04.35-.1.43-.14 .07-.05 4.64-2.86 4.71-2.91 .07-.06.12-.09.13-.18 0-.04-.1-.11-.2-.14l0-.001c-.38-.08-.75-.15-1.12-.22l-.31-.06s-4.311 1.88-4.41 1.93c-.12.05-.3.1-.45.08 -.32-.03-.56-.21-.93-.64l-2.14-2.78s-.94-.16-1.27-.2c-.34-.05-1.07-.16-1.19-.16Z"/></svg>