<svg viewBox="0 0 24 24" xmlns="http://www.w3.org/2000/svg"><path d="M23.94 9.364c-.09-.12-.17-.2-.6-.23 -.12 0-.46-.03-1.05-.03 -1.56 0-2.64.48-3.18 1.41 .14-.94-.77-1.42-2.75-1.42 -2.324 0-3.798.93-4.4 2.83 -.23.7-.23 1.27-.06 1.73h-.57c-.43.02-1 .05-1.36.05 -.85 0-1.39-.15-1.59-.43 -.17-.26-.17-.74.05-1.45 .36-1.17 1.24-1.68 2.66-1.68 .73 0 1.44.08 1.44.08 .08 0 .14-.12.14-.2l-.03-.09 -.06-.4c-.03-.26-.23-.4-.57-.46 -.32-.03-.57-.03-.907-.03h-.03c-1.85 0-3.15.62-3.86 1.814 .25-1.22-.6-1.814-2.551-1.814 -1.11 0-1.9.02-2.353.08 -.37.05-.6.19-.68.45l-.17.51c-.03.08.02.14.14.14 .08 0 .42-.06.99-.09l0 0c.55-.05 1.11-.08 1.67-.09 1.077 0 1.55.28 1.38.82 -.03.11-.12.19-.26.22 -1.02.17-1.85.28-2.438.36 -1.7.22-2.7.73-2.947 1.58 -.37 1.16.53 1.72 2.72 1.72 1.07 0 2.013-.06 2.75-.2 .42-.09.65-.17.73-.46l.39-1.31c-.03 1.3.85 1.955 2.721 1.955 .79 0 1.55-.03 1.92-.09 .36-.06.56-.15.65-.43l.08-.4c.39.62 1.27.93 2.6.93 1.41 0 2.23-.03 2.46-.12v0c.16-.04.3-.16.36-.32l.02-.09 .17-.54c.02-.09-.03-.15-.15-.15l-.91.05c-.6.02-1.08.05-1.42.05 -.66 0-1.08-.06-1.34-.15 -.37-.15-.54-.4-.51-.83l2.86-.37c1.27-.17 2.15-.57 2.57-1.19l-1 3.31c-.03.05 0 .11.02.14 .02.02.08.05.19.05h1.19c.19 0 .28-.12.31-.2l1.04-3.66c.14-.49.56-.71 1.36-.71 .71 0 1.22 0 1.56.02h.02c.05 0 .17-.03.25-.17l.17-.51c0-.09 0-.17-.06-.23Zm-19.11 4.36c-.37.05-.91.08-1.59.08 -1.22 0-1.73-.26-1.59-.74 .11-.34.42-.57.93-.63l2.75-.37Zm12.66-2.95c-.12.36-.66.62-1.62.766l-2.295.31 .05-.2c.19-.63.45-1.02.79-1.25 .34-.23.907-.34 1.7-.34 1.05.02 1.5.25 1.36.7Z"/></svg>