<svg viewBox="0 0 24 24" xmlns="http://www.w3.org/2000/svg"><path d="M7.43 12.25c-.08.02-.15.07-.21.13 -.05.07-.08.15-.07.24 0 .15.03.25.12.3 .07.05.19.08.35.08 .08 0 .17-.02.26-.06 .09-.04.17-.1.24-.17v-.66c-.17.01-.31.03-.41.04 -.11.01-.21.03-.31.07ZM11.99 0l-12 12 12 12 12-12 -12-12Zm0 19.35c-4.07-.01-7.355-3.3-7.357-7.36 0-4.07 3.29-7.36 7.357-7.36 4.06 0 7.355 3.295 7.35 7.35 -.01 4.06-3.3 7.355-7.36 7.35Zm0-13.98v0c-3.654 0-6.62 2.96-6.62 6.62 0 3.654 2.96 6.62 6.62 6.62 3.654 0 6.62-2.97 6.62-6.62 0-3.66-2.97-6.62-6.62-6.63ZM9.12 13.61h-1v-.34l-.19.15c-.15.1-.31.18-.48.23 -.09.02-.21.03-.36.03 -.27 0-.52-.1-.7-.29 -.19-.19-.28-.43-.28-.72 0-.24.04-.43.14-.58 .1-.15.24-.27.4-.35 .2-.09.42-.16.64-.18 .25-.04.516-.06.8-.08v-.02c0-.18-.07-.3-.2-.37s-.33-.11-.58-.11c-.12 0-.26.02-.41.06 -.16.04-.31.1-.46.16h-.09v-.77c.09-.03.25-.07.48-.1 .21-.04.43-.06.66-.06 .55 0 .95.09 1.2.27 .25.18.375.46.375.83v2.16Zm3.22-.17c-.07.02-.14.05-.2.08 -.08.03-.15.05-.23.08 -.1.02-.19.04-.27.06 -.09.01-.2.02-.34.02 -.27 0-.51-.04-.73-.1 -.21-.07-.41-.17-.57-.31 -.17-.15-.3-.32-.38-.52 -.09-.21-.14-.46-.14-.74 -.01-.27.04-.54.14-.78 .09-.21.22-.39.39-.53 .16-.14.35-.24.56-.29 .22-.07.44-.1.67-.1 .37 0 .73.08 1.06.25v.85h-.13c-.05-.05-.1-.09-.15-.13 -.06-.05-.13-.09-.19-.13 -.17-.1-.36-.15-.55-.14 -.26 0-.45.08-.59.26 -.14.17-.21.41-.21.71 0 .32.07.56.22.71 .15.15.34.23.59.23 .11 0 .22-.02.33-.05 .15-.05.29-.12.41-.23 .04-.04.08-.09.12-.11h.13v.843Zm4.33.17v-1.6c0-.16 0-.29-.01-.4 -.01-.09-.02-.18-.06-.27 -.03-.07-.07-.12-.13-.15 -.16-.07-.33-.07-.48 0 -.09.04-.17.08-.25.14v2.263h-1v-1.6c0-.16-.01-.29-.01-.4 -.01-.09-.02-.18-.05-.27 -.03-.07-.08-.12-.14-.15 -.06-.04-.15-.05-.25-.05 -.09 0-.17.02-.24.05 -.08.04-.16.08-.23.13v2.26h-1v-3.19h.99v.35c.14-.125.29-.24.46-.33 .14-.08.31-.12.484-.12 .18-.01.36.04.51.14 .15.1.27.24.34.41 .19-.18.37-.32.54-.41 .17-.1.34-.15.51-.15 .13-.01.27.02.39.07 .11.04.22.11.3.21 .09.1.16.23.2.36 .04.14.06.32.06.55v2.07h-1Z"/></svg>