<svg viewBox="0 0 24 24" xmlns="http://www.w3.org/2000/svg"><path d="M12.04-.001c.41 0 .83.266 1.05.546 .22.28.19.34.21.529 .01.18.16.26.16.62 0 .355-.16.49-.28.64 -.12.15-.05.2-.14.4 -.1.2-.12.16-.2.33 -.08.16.12.46.31.61 .19.14.37.262.93.31 .56.05.68.03.96.05 .28.01.45.17.88.23 .43.05.44 0 .8 0 .35 0 .46.05.78.05 .31 0 .75-.14 1.14-.13 .39.01 1.43.11 1.86.11 .43 0 .93-.45 1.38-.43 .44.01.83.11.85.45 .01.33-.17.76-.37.83 -.21.07-.61-.07-.86-.07s-.5.03-.61.02c-.14-.01-.24-.09-.39-.06 -.15.03-.76.29-.99.31 -.23.02-.69-.04-.875 0 -.19.03-.83.15-1.09.16 -.27.02-.79-.02-1.03.01 -.25.03-.62.11-.84.11 -.23 0-.71-.18-.87-.06 -.4.28-.34.68-.532 1.24 -.19.53-.49.88-.53 1.29 -.04.41.22 1.73.35 2.205 .13.46.5 1.08.74 1.84 .24.766.58 2.31.71 2.94 .13.63 0 .62.11.97 .1.36.61.93.87 1.83 .26.89.54 2.74.64 3.23 .09.48.13.55.17.7 .03.15-.05.21.03.35 .37.61.84.84.79 1.22 -.06.37-.66.51-1.09.44 -.33-.05-.53-.68-.6-.86 -.08-.19 0-.24-.08-.37s-.09-.2-.13-.54c-.04-.34.01-.36-.04-.59 -.3-1.2-1.15-2.37-1.35-3.07 -.12-.4-.05-.45-.13-.8 -.08-.36-2.41-5.42-2.89-5.42 -.5 0-2.79 5-2.88 5.32 -.1.31-.04.63-.14.89s-1.21 2.38-1.36 3.04c-.1.42-.02.55-.07.8 -.06.24-.266 1.3-.66 1.5 -.4.2-1.09.04-1.178-.3 -.15-.52.67-.91.76-1.39 .07-.41.8-4.17 1.1-4.9 .29-.73.48-.66.61-1.064 .04-.13.04-.52.11-.95 .15-.94.43-2.3.76-3.21 .48-1.33 1.15-2.62 1.03-3.9 -.06-.54-.23-.61-.42-1.23 -.19-.62-.43-1.35-.67-1.39 -.25-.04-.45.09-.75.09s-.9-.13-1.12-.13c-.23 0-.992-.05-1.31-.05 -.32 0-.54-.09-.726-.07 -.19.02-.36 0-.59 0 -.28 0-1.017-.34-1.21-.34 -.19 0-.25.03-.42.03 -.17 0-.33-.07-.512-.07 -.19 0-.532.1-.71.1 -.19 0-.54-.42-.484-.89 .05-.47.8-.42.99-.42 .26 0 .88.35 1.13.39 .24.03 1.53-.11 1.81-.11s1.08.12 1.5.12c.43 0 1.01.01 1.36-.05 .35-.06.68-.25.9-.27 .22-.02 1.23.09 1.8-.31 .375-.27.41-.49.39-.66 -.02-.17-.14-.2-.24-.36 -.1-.17-.06-.31-.11-.42 -.06-.12-.27-.22-.28-.63 -.01-.33.03-.278.14-.6 .11-.32.11-.46.37-.71 .19-.184.57-.371.98-.371"/></svg>