<svg viewBox="0 0 24 24" xmlns="http://www.w3.org/2000/svg"><path d="M7.775-.001v0c-.48-.01-.94.18-1.28.52L.51 6.489H.51c-.34.33-.53.79-.53 1.27v8.45c0 .47.19.93.528 1.27l5.974 5.97h0c.33.33.79.52 1.27.52h8.45v0c.47 0 .93-.19 1.27-.53l5.97-5.98v0c.33-.34.52-.8.52-1.28V7.72v0c-.01-.48-.19-.94-.53-1.28L17.45.46V.46c-.34-.34-.8-.53-1.28-.53Zm4.427 3c1.02 0 .95 1.1.95 1.1v6.78s-.01.21.16.21c.18 0 .17-.23.17-.23l-.01-5.63s-.05-.99.95-.99c1.01 0 .97.98.97.98v7.621s.01.15.14.15c.12 0 .94-2.122.94-2.122s.45-1.5 2.57-1.1c.03 0-.17.68-.17.68l-2.29 6.55s-.95 3.64-4.92 3.64c-5.044 0-4.808-5.41-4.82-5.41V7.48s-.02-.99.89-.99c.85 0 .84.99.84.99l0 3.58s-.01.17.16.17c.16 0 .14-.18.14-.18l.01-5.93s-.06-1.162.96-1.162c1.04 0 .98 1.14.98 1.14v5.61s-.01.2.15.2 .15-.21.15-.21l.01-6.7s-.06-1.12.96-1.12Z"/></svg>