<svg viewBox="0 0 24 24" xmlns="http://www.w3.org/2000/svg"><path d="M7.02 0L-.01 7.02v9.94l7.02 7.03h9.94l7.03-7.04V7.01L16.95-.02Zm.2.48h9.54l6.74 6.74v9.542l-6.75 6.74H7.209L.45 16.75V7.21Zm.55 1.344L1.8 7.784v8.42l5.962 5.962h8.42l5.962-5.962V7.77L16.19 1.8ZM4.38 7.68H6.36l2.28 8.41H6.89l-.45-2.01H4.2l-.45 1.99H2.07Zm5.3 0h2.49c.35-.01.71.02 1.061.09 .3.05.59.17.85.34 .24.16.43.38.57.64 .14.26.2.6.2 1 0 .19-.03.38-.08.56 -.05.18-.12.36-.22.52 -.1.16-.23.31-.38.43 -.17.13-.35.22-.55.28v.05c.52.11.91.32 1.18.64 .26.31.39.75.39 1.33 0 .43-.08.8-.22 1.109 -.14.3-.35.56-.61.76 -.27.2-.58.36-.91.45 -.36.1-.74.15-1.109.14H9.62Zm6.667 0h2.66c.37-.01.74.04 1.11.13 .33.08.64.23.907.45 .26.22.48.51.61.84 .14.34.22.77.22 1.28 0 .49-.08.91-.23 1.27 -.14.34-.35.64-.63.88v0c-.27.23-.58.4-.91.51v0c-.36.11-.73.17-1.1.16h-1.02v2.85h-1.65ZM5.31 9.12c-.1.44-.19.907-.274 1.37 -.09.46-.2.91-.3 1.33l-.18.77H6.1l-.17-.78 -.001 0c-.12-.45-.22-.9-.31-1.34l-.001 0c-.1-.46-.19-.92-.3-1.37Zm6 .02v1.92h.77c.4 0 .69-.1.87-.28 .18-.19.27-.44.27-.76s-.1-.548-.28-.69c-.19-.14-.48-.21-.87-.21Zm6.68.03v2.54h.91c.89 0 1.34-.45 1.34-1.34 0-.44-.12-.75-.34-.94 -.23-.19-.57-.27-1.01-.27Zm-6.69 3.22v2.2h.93c.9 0 1.35-.39 1.35-1.15 0-.37-.11-.64-.34-.81 -.23-.17-.57-.25-1.02-.25Z"/></svg>