<svg viewBox="0 0 24 24" xmlns="http://www.w3.org/2000/svg"><path d="M11.936 17.95c0-.65.51-1.16 1.16-1.16 .64 0 1.16.51 1.16 1.16v0c0 .63-.52 1.15-1.16 1.16 -.01 0-.01 0-.01 0v0c-.64 0-1.16-.52-1.17-1.16 -.01-.01-.01-.01-.01-.01m4.72 0c0-.65.51-1.17 1.16-1.17 .64 0 1.16.51 1.16 1.16 0 .64-.52 1.16-1.16 1.16v-.001c-.64 0-1.16-.52-1.17-1.16 -.01-.01-.01-.01-.01-.01m-10.95 0c0-.65.51-1.17 1.16-1.17 .64 0 1.16.51 1.16 1.16 0 .64-.516 1.16-1.16 1.16v0c-.64 0-1.16-.52-1.17-1.16 -.01-.01-.01-.01-.01-.01m-4.73 0c-.001-.65.51-1.17 1.16-1.17 .64 0 1.161.51 1.161 1.16h0c0 .63-.52 1.15-1.16 1.16 -.01 0-.01 0-.01 0v-.001c-.64 0-1.16-.52-1.16-1.16 -.01-.01-.01-.01 0-.01m9.55-2.06H9.43v4.06h1.01V15.8ZM3.2 19.87h1.01V15.8H3.2v.32 0c-.36-.25-.78-.38-1.2-.38 -1.17 0-2.1.93-2.1 2.1C-.1 19 .83 19.94 2 19.94c.44 0 .85-.14 1.2-.38v.28Zm15.674 0h1.01V15.8h-1.01v.32h0c-.36-.25-.78-.38-1.2-.38 -1.17 0-2.1.93-2.1 2.1v0c-.01 1.15.92 2.09 2.08 2.09 0 0 .01 0 .01-.01 .44 0 .85-.14 1.2-.38v.28Zm1.38-1.32c.03.82.73 1.4 1.9 1.4 .95 0 1.74-.42 1.74-1.33 0-.64-.36-1.01-1.19-1.17l-.65-.13c-.42-.08-.7-.16-.7-.41 0-.27.27-.39.62-.39 .51 0 .71.25.73.55h1.01c-.06-.8-.7-1.33-1.718-1.33 -1.06 0-1.686.58-1.686 1.33 0 .92.74 1.07 1.39 1.19l.53.09c.38.07.54.18.54.4 0 .19-.2.39-.65.39 -.66 0-.88-.35-.89-.64h-1.04ZM7.92 14.42v1.71 0c-.36-.25-.78-.38-1.2-.38 -1.17 0-2.1.93-2.1 2.1 0 1.16.93 2.099 2.1 2.099 .44 0 .85-.14 1.2-.38v.28h1.01V14.4H7.92Zm6.22 0v1.71 0c-.36-.25-.78-.38-1.2-.38 -1.17 0-2.1.93-2.1 2.1h-.001c-.01 1.15.92 2.09 2.08 2.09 0 0 .01 0 .01-.01 .44 0 .85-.14 1.2-.38v.28h1.01v-5.45h-1.01ZM2.51 13.22l.68 1.2H7.9l-1.87-3.23 -3.53 2.02Zm7.913 2.21v-1.01h3.71l-3.96-6.86 -3.54 2.02L9.41 14.41v1.01h1.01Zm5.21-1.01h4.72L14.24 3.85 10.7 5.88l4.91 8.533Z"/></svg>