<svg viewBox="0 0 24 24" xmlns="http://www.w3.org/2000/svg"><path d="M23.63 15.3c-.71-.75-2.17-1.17-4.23-1.17 -1.1 0-2.38.1-3.77.35h-.001c-.85-.82-1.63-1.71-2.31-2.67 -.532-.71-1-1.49-1.42-2.24 .81-2.49 1.2-4.51 1.2-5.97 0-1.64-.61-3.34-2.35-3.34 -.532 0-1.07.32-1.35.78 -.78 1.38-.43 4.4.923 7.38h0c-.51 1.52-1.08 3.02-1.71 4.5 -.57 1.34-1.21 2.73-1.92 4.01C2.78 18.49.26 20.3-.02 21.72c-.11.53.07 1.03.46 1.42 .14.1.639.53 1.49.53 2.59 0 5.32-4.19 6.707-6.71 1.06-.36 2.13-.71 3.19-1h0c1.12-.31 2.25-.56 3.4-.75 2.73 2.44 5.14 2.83 6.35 2.83 1.49 0 2.02-.61 2.2-1.1 .32-.64.1-1.35-.22-1.71Zm-1.42 1.03c-.11.532-.64.88-1.39.88 -.22 0-.39-.04-.61-.08 -1.35-.32-2.63-1-3.91-2.06v0c.98-.17 1.98-.25 2.98-.25 .74 0 1.38.03 1.81.14 .49.1 1.27.42 1.1 1.34Zm-7.53-1.67l-.001-.001c-1 .18-1.98.41-2.95.67v0c-.85.22-1.69.46-2.52.74l-.001-.001c.43-.84.83-1.69 1.2-2.56 .42-1 .78-2.03 1.13-2.99 .35.6.74 1.2 1.13 1.73l0 0c.63.81 1.3 1.6 1.98 2.37ZM10.03 1.45v0c.12-.26.38-.43.67-.43 .74 0 .88.851.88 1.52 0 1.13-.36 2.87-.96 4.861 -1.03-2.768-1.1-5.074-.61-5.962ZM6.12 17.98C4.31 20.96 2.57 22.8 1.5 22.8v0c-.2 0-.38-.07-.54-.18 -.22-.22-.32-.47-.249-.75C.92 20.8 2.98 19.31 6.1 17.97Z"/></svg>