<svg viewBox="0 0 24 24" xmlns="http://www.w3.org/2000/svg"><path d="M19.75.3H4.25C1.9.3 0 2.2 0 4.55v14.9c0 2.35 1.9 4.25 4.25 4.25h15.5c2.35 0 4.25-1.9 4.25-4.25V4.55C24 2.2 22.1.3 19.75.3Zm-6.99 16.389c0 .05-.03.09-.06.12 -.03.02-.06.02-.11.02H6.25c-.11 0-.16-.07-.16-.18V6.429c-.01-.07.04-.13.11-.14h2c.05-.01.11.03.11.08v8.43h4.62c.1-.001.13.04.11.14l-.29 1.73Zm6.25-7.859v1.95c0 .08-.05.11-.16.11 -.65-.04-1.3.08-1.89.34 -.2.09-.39.21-.54.37v5.1c0 .1-.04.14-.13.14h-1.95c-.08.01-.15-.04-.16-.12v-5.59c0-.24 0-.49-.01-.75s-.01-.52-.02-.78c-.01-.22-.03-.44-.07-.66 -.01-.05.02-.1.07-.11 .01-.01.02-.01.04 0h1.75c.1 0 .18.07.21.16 .04.07.07.15.08.23 .02.1.03.21.05.31 .01.11.02.23.02.36 .29-.35.66-.64 1.06-.86 .46-.25.97-.37 1.49-.36 .06-.01.13.04.14.11 0 .01 0 .02 0 .04Z"/></svg>