<svg viewBox="0 0 24 24" xmlns="http://www.w3.org/2000/svg"><path d="M19.764.375H4.234v0C1.89.375-.01 2.26-.01 4.611V19.39v0c0 2.33 1.89 4.23 4.23 4.23h15.52l-.001-.001c2.33 0 4.23-1.9 4.23-4.24 0-.01-.01-.01-.01-.01V4.59v0c-.01-2.34-1.9-4.24-4.24-4.235Zm-3.25 6.53c-.25 0-.37-.19-.44-.44 -.26-.97-.59-1.26-.79-1.26 -.2 0-.5.36-.84 1.12 -.42.97-.76 1.97-1.01 2.99l1.73-.01c.11.28.01.6-.24.77H13.2c-.56 1.87-1.04 3.68-1.6 5.46v0c-.25.9-.62 1.76-1.11 2.56v0c-.58.81-1.5 1.3-2.484 1.33 -.78 0-1.53-.37-1.53-1.17 .03-.51.42-.91.92-.97l-.001 0c.17-.01.34.08.42.24 .37.68.742 1.07.9 1.07 .16 0 .3-.23.57-1.22l1.98-7.33 -1.43-.01v0c-.11-.28-.01-.6.22-.78h1.423c.25-.9.609-1.76 1.048-2.58v0c.59-1.29 1.85-2.14 3.27-2.2 1.13 0 1.6.54 1.6 1.242v0c-.01.56-.42 1.03-.97 1.12Z"/></svg>