<svg viewBox="0 0 24 24" xmlns="http://www.w3.org/2000/svg"><path d="M18.835.3H5.16V.299C2.3.299-.01 2.609-.01 5.45v13.07 0c-.001 2.85 2.31 5.16 5.16 5.16h13.67v0c2.85 0 5.16-2.32 5.16-5.17V5.44 5.44c0-2.86-2.32-5.17-5.17-5.17ZM12.72 16.79h-2.29c-.16 0-.28-.01-.34-.12 -.22-.42-.43-.84-.65-1.25h0c-.23-.43-.45-.85-.69-1.27l0 0c-.25-.44-.49-.87-.72-1.31h-.02 0c-.22.43-.44.86-.67 1.28 -.23.42-.46.85-.69 1.28h0c-.23.42-.46.84-.7 1.26 -.05.09-.12.1-.23.1h-2.21c-.05 0-.07.01-.08-.03h0c-.01-.04 0-.08.02-.12l3.1-5.11 -3.03-5.12c-.04-.05-.04-.08-.02-.11H3.5c.02-.03.06-.05.09-.04h2.27 -.001c.04-.01.09 0 .14.02v0c.03.02.07.05.09.08 .19.43.4.859.64 1.28 .23.42.47.85.71 1.27 .24.41.46.843.66 1.27h.01c.21-.44.43-.87.65-1.29 .22-.42.44-.84.67-1.27 .23-.43.45-.85.66-1.27v0c.01-.05.03-.08.06-.11v0c.03-.02.08-.03.12-.03h2.109v0c.04-.02.09.01.11.06h0c0 .03-.01.07-.04.09l0 0 -3 4.94 3.2 5.24c.02.03.02.08.01.12 -.01.03-.05.01-.12.02Zm7.68-.42v0c-.53.21-1.07.37-1.63.48v0c-.52.09-1.03.14-1.55.14v-.001c-.75.01-1.48-.15-2.15-.45v0c-.63-.3-1.16-.77-1.51-1.37v0c-.39-.7-.58-1.49-.548-2.28h-.001c-.01-.74.18-1.47.54-2.11v0c.37-.66.92-1.2 1.59-1.55V9.22c.84-.44 1.78-.64 2.73-.58 .08 0 .18.01.3.02V5.48c0-.08.03-.12.09-.12h2.02v0c.04-.01.09.02.09.07V5.43s0 .01 0 .02v9.517c0 .18 0 .38.02.59 .01.21.03.4.04.57h0c0 .06-.04.13-.1.15Zm-2.46-5.82c.09 0 .17.02.26.04v4.395 0c-.12.03-.24.05-.36.06v0c-.14.01-.28.01-.42.01v0c-.29 0-.57-.05-.83-.13v0c-.26-.08-.49-.22-.68-.41v0c-.2-.21-.36-.45-.46-.71v0c-.12-.34-.18-.68-.17-1.04h-.001c-.03-.45.09-.9.33-1.28 .21-.32.5-.58.84-.75 .35-.18.73-.27 1.12-.26 .11 0 .22 0 .33.01Z"/></svg>