<svg viewBox="0 0 24 24" xmlns="http://www.w3.org/2000/svg"><path d="M19.75.3H4.25C1.9.3 0 2.2 0 4.55v14.9c0 2.35 1.9 4.25 4.25 4.25h15.5c2.35 0 4.25-1.9 4.25-4.25V4.55C24 2.2 22.1.3 19.75.3ZM8.57 16.689c-.01.06-.03.1-.06.12 -.03.02-.06.02-.09.02H2.71c-.1 0-.14-.07-.14-.18V6.429c0-.1.04-.14.13-.14h1.77c.07 0 .1.04.1.11v8.4h4.16c.09 0 .12.04.1.14l-.26 1.73Zm5.6-5.92c0 .08-.05.11-.15.11 -.32-.02-.64 0-.95.07 -.26.06-.51.15-.75.27 -.18.09-.35.22-.49.37v5.1c0 .1-.04.14-.12.14H9.97c-.1 0-.14-.06-.14-.16v-5.54c0-.24 0-.49-.01-.75 0-.26-.01-.52-.02-.78 -.01-.23-.03-.45-.06-.67 0-.03 0-.06.02-.09 .03-.01.05-.02.08-.01h1.58c.09 0 .15.05.19.16 .03.07.06.15.07.23 .02.1.03.21.04.31 .01.11.01.23.01.36 .26-.34.59-.64.96-.86 .39-.24.87-.37 1.34-.36 .09 0 .13.05.13.14v1.95Zm7.2-1.61c.01.06-.03.11-.06.15 -.05.02-.09.02-.14 0 -.23-.12-.47-.2-.72-.24 -.31-.06-.63-.08-.94-.08 -.51-.01-1.02.12-1.46.38 -.41.25-.73.62-.94 1.05 -.23.5-.35 1.05-.33 1.6 -.02.4.05.79.16 1.16 .1.31.25.6.44.86 .17.22.37.43.62.58 .24.14.49.25.76.32 .25.06.52.11.78.11 .28 0 .58-.02.86-.05 .24-.03.48-.09.7-.17 .08-.06.13-.03.16-.01 .04.04.06.1.05.15v1.49c.01.11-.05.22-.15.27 -.26.1-.53.17-.81.2 -.34.05-.68.07-1.029.07 -.49 0-.99-.07-1.46-.2 -.47-.12-.9-.33-1.28-.6 -.38-.28-.71-.61-.98-.99 -.3-.42-.5-.89-.641-1.38 -.15-.58-.23-1.17-.23-1.76 0-.98.19-1.86.58-2.6 .38-.73.95-1.34 1.66-1.75 .71-.41 1.57-.62 2.55-.62 .34 0 .68.02 1.02.06 .23.03.46.08.67.17 .08.05.12.14.11.24v1.55Z"/></svg>