<svg viewBox="0 0 24 24" xmlns="http://www.w3.org/2000/svg"><path d="M11.64 9.88v2.93c0 .13.1.24.24.24h.46V9.87h1.76v5.15c0 .46-.39.84-.85.84H9.92v-1.24h2.4v-.53h-1.63c-.47 0-.85-.39-.85-.85V9.85h1.76Zm-8.27 0c.46 0 .84.38.84.84v3.38H.82c-.47 0-.85-.39-.85-.85v-.95c0-.47.38-.85.84-.85h.91v1.34c0 .13.1.24.24.24h.46v-1.88c0-.14-.11-.25-.25-.25L0 10.89V9.83Zm5.79-1.77v6H5.77c-.47 0-.85-.39-.85-.85v-2.54c0-.47.38-.85.84-.85h.91v2.93c0 .13.1.24.24.24h.46l0-4.95h1.76Zm9.03 1.76V9.86c.46 0 .84.38.84.84v.94c0 .46-.39.84-.85.84h-.92v-1.35c0-.14-.11-.25-.25-.25h-.47v1.87c0 .13.1.24.24.24h2.16v1.05h-3.33c-.47 0-.85-.39-.85-.85V9.8Zm4.94 0c.46 0 .84.38.84.84v3.38H22.2v-2.94c-.01-.14-.11-.25-.25-.25h-.47v3.17h-1.77V9.83Z"/></svg>