<svg viewBox="0 0 24 24" xmlns="http://www.w3.org/2000/svg"><path d="M9.066 12.725c-.06-.14-.1-.28-.15-.41l-6.675.4 1.35.69Zm.9 1.24c-.06-.05-.12-.1-.17-.15v0c-.11-.1-.21-.21-.29-.32l-3.333.67 1.41.5Zm2.64-.29c.16-.03.4-.13.58-.27l-.968-2.032 1-.51 -.85-.782c-.61.29-1.21.58-1.81.86l.43 1.02 .69-.33Zm1.65-4.241c.38.5.65 1.08.782 1.7h-.61 0c-.05-.2-.11-.39-.18-.57 -.41-1.15-1.25-1.96-2.22-2.633 -.13-.08-.25-.17-.37-.24 .12.04.24.08.37.13 .88.37 1.66.88 2.21 1.6m.18 6.51c-.23.11-.46.22-.69.33l-.57-1.2c-.37.13-.76.21-1.154.22 -.43.02-.85-.04-1.25-.18l-.49 1.14c-.16.01-.38 0-.52-.11v-.001c-.09-.06-.15-.14-.17-.23 .2-.36.38-.73.57-1.09 -.13-.09-.24-.16-.36-.27l.34-.44c.58.38 1.22.58 1.84.58 .62.02 1.25-.2 1.83-.63 .19.05.38.11.54.18 -.06.04-.1.08-.16.13 -.12.12-.22.24-.4.34 .18.39.38.78.58 1.17Zm7.78-3.44l1.76-1.19H14.4c0 .42-.06.78-.19 1.1 -.37 1-1.3 1.487-2.22 1.46 -.91-.03-1.84-.53-2.25-1.45v0c-.16-.36-.24-.75-.23-1.13H-.06l1.75 1.18L9 12.05c.13.55.39 1.03.74 1.39v0c.57.63 1.38 1 2.24 1.01v0c.85.02 1.66-.35 2.21-1 .31-.37.55-.83.69-1.39Zm-.48.19l-1.36.66 -5.41-.67 -.001-.001c.04-.14.08-.27.12-.41Zm-3.907 1.46l-1.48.52 0-.001c-.77-.25-1.53-.49-2.29-.74 .06-.06.125-.12.18-.2 .08-.08.15-.18.24-.26Zm.71-.09l1.17-.58 -4.86-.62c-.05.16-.18.29-.26.43Zm-13.116 0l-1.18-.55 4.885-.64c.09.15.17.28.27.42Z"/></svg>