<svg viewBox="0 0 24 24" xmlns="http://www.w3.org/2000/svg"><path d="M0 6.92v10.086h3.674v-.51H.53V7.42H5.05v-.51Zm18.944 0v.51h4.526v9.064h-3.15v.51h3.67V6.91Zm-7.727-.891v1.45h1.53v-.383h-1.05v-.2h.86v-.34h-.86v-.16h1.04v-.383h-1.05Zm1.76 0v1.45h1.39v-.43h-.9v-1.03Zm1.55 0v1.45h.49v-1.46Zm.64 0v.42h.55v1.02h.49V6.43h.55V6h-1.06Zm1.76 0v1.45h1.53v-.383h-1.05v-.2h.86v-.34h-.86v-.16h1.04v-.383h-1.05Zm-5.5 2.19l-3.785 0 .01 3.46 1.57 4.01h5.14l-.71-1.77H9.8v-3.94h2.32Zm-1.29 2.86v1.77h3.1l-.72-1.77Zm-3.9-5.06l-.75 1.45h.53l.12-.28h.69l.13.27h.53l-.76-1.46Zm1.36 0v1.45h1.39v-.43h-.9V6Zm1.55 0v1.45h1.39v-.43h-.9V6Zm-2.65.44l.18.391h-.38Zm16.29 1.73l-2.15 0 -1.37 3.47 -.94-3.47 -2.15 0 -.92 3.44 -1.36-3.44 -2.18 0 2.96 7.48h1.63l.93-3.47 .93 3.46h1.65Zm-16.844.02l-1.85 0 -2.95 7.47h2.18l.34-.9H5.99l-.69-1.75h-.96l.63-1.68 1.7 4.32h2.17Zm13.09 8.195c-.4 0-.67.14-.81.31v0c-.21.27-.2.64 0 .91 .6.625 1.57.13 1.63 0v-.63h-.9v.34h.4v.08c-.12.15-.6.14-.73-.06 -.13-.23-.04-.38 0-.45 .27-.3.75-.07.78 0l.36-.3h-.001c-.23-.17-.5-.26-.78-.26Zm-7.88.01v0c-.09 0-.18 0-.27.02 -.3.06-.48.2-.52.34 -.13.49.57.56.57.56 .62.03.57.09.57.12 -.07.13-.42.08-.53.07 -.23-.05-.43-.19-.43-.19l-.28.3c.76.48 1.38.22 1.48.17 .3-.18.29-.49.19-.63 -.08-.1-.31-.21-.54-.24 -.21-.05-.61-.02-.56-.15 .06-.12.68-.04.84.09l.24-.3c-.24-.17-.52-.22-.8-.22Zm-7.085.04l.5 1.39h.5l.27-.86 .266.85h.5l.5-1.4h-.5l-.258.86 -.3-.87h-.45l-.3.87 -.27-.88Zm2.69 0v1.39h.5v-.4h.31l.32.39h.59l-.39-.45c.6-.24.33-.93-.24-.95h-.06Zm1.89 0v1.39h1.53v-.33H9.12v-.2h.86v-.34h-.86v-.16h1.04v-.39Zm3.42 0v.41h.55v.98h.49v-.99h.55v-.42Zm1.75 0v1.39h1.39v-.39h-.9v-1.02Zm1.56 0v1.39h.49v-1.4Zm.766 0v1.39h.49v-.81l.77.8h.46v-1.4h-.5v.76l-.72-.77Zm-8.904.37h.53c.19-.01.18.28 0 .29h-.53Z"/></svg>