<svg viewBox="0 0 24 24" xmlns="http://www.w3.org/2000/svg"><path d="M11.06 11.29c0 .74-.39 1.16-1 1.3 -.01 0 .96 1.53.96 1.53H9.84l-1.43-2.28h1c.43 0 .59-.24.59-.532 0-.29-.16-.532-.59-.532H8.23v3.34H7.19v-4.27h2.2c1.096 0 1.62.61 1.62 1.42m-5.58 2.83h1.03v-4.27H5.42Zm-3.32-4.27l-2.174 4.26h1.16l.35-.72h1.75l-.44-.9h-.88l.64-1.32h.01l1.45 2.92H5.17L2.99 9.796Zm12.679 2.05c.4.14.68.52.68 1.02 0 .72-.577 1.19-1.46 1.19h-2.53v-4.27h2.42c.86 0 1.37.46 1.37 1.14 -.01.42-.18.72-.51.9m-2.26-.4h1.38l-.001-.001c.2 0 .37-.16.37-.36 0-.01 0-.02 0-.02h0c0-.21-.16-.38-.36-.38 -.01-.01-.01-.01-.02-.01H12.48Zm1.41 1.71H13.9c.24 0 .44-.19.44-.43 0-.01 0-.02 0-.02 0-.25-.2-.43-.45-.43h-1.42v.86h1.41m4.8-.99c0 .64-.3 1-.89 1 -.59 0-.89-.36-.89-1.01v-2.39H15.84v2.3c0 1.31.69 2.05 1.94 2.05s1.95-.74 1.95-2.05v-2.31H18.67Zm3.83-.69c-.99-.24-1.2-.27-1.2-.55 0-.22.24-.33.66-.33 .55 0 1.13.13 1.47.34l.33-.87c-.43-.23-1.06-.39-1.8-.39 -1.1 0-1.72.54-1.72 1.27 0 .79.46 1.11 1.51 1.33 .82.18.99.29.99.52 0 .25-.23.36-.68.36v0c-.6 0-1.19-.14-1.71-.42l-.32.9c.51.27 1.27.44 2.05.44 1.07 0 1.71-.5 1.71-1.34 0-.673-.44-1.11-1.35-1.33"/></svg>