<svg viewBox="0 0 24 24" xmlns="http://www.w3.org/2000/svg"><path d="M12.001 18.275c-1.36-1.7-2.15-3.19-2.42-4.46 -.27-1.03-.16-1.85.29-2.465 .47-.71 1.18-1.06 2.12-1.06 .93 0 1.64.34 2.12 1.06 .44.61.55 1.43.28 2.465 -.3 1.298-1.09 2.78-2.42 4.458Zm9.6 1.14c-.19 1.24-1.04 2.28-2.2 2.78 -2.253.98-4.49-.59-6.4-2.71 3.157-3.96 3.74-7.03 2.385-9.02 -.8-1.14-1.94-1.7-3.394-1.7 -2.95 0-4.57 2.49-3.93 5.382 .37 1.56 1.35 3.343 2.917 5.33 -.98 1.08-1.91 1.85-2.74 2.33 -.64.34-1.25.55-1.83.6 -2.68.39-4.78-2.2-3.83-4.88 .13-.35.395-.98.84-1.97l.02-.06C4.89 12.31 6.68 8.7 8.719 4.7l.05-.14 .58-1.116c.45-.83.63-1.19 1.35-1.643 .34-.21.77-.32 1.24-.32 .95 0 1.69.558 2.016 1.007 .15.23.34.55.58.95l.55 1.08 .08.15c2.04 4 3.82 7.608 5.27 10.794l.02.02 .53 1.22 .31.76c.24.61.29 1.22.21 1.85Zm1.22-2.39c-.19-.59-.51-1.28-.9-2.1v-.03c-1.89-4.006-3.65-7.608-5.31-10.844l-.12-.17c-1.19-2.44-2.04-3.9-4.51-3.9 -2.44 0-3.48 1.695-4.535 3.89l-.09.16c-1.67 3.23-3.43 6.843-5.31 10.847v.05l-.56 1.22c-.21.5-.32.76-.345.84 -1.35 3.71 1.43 6.97 4.8 6.97 .02 0 .13 0 .26-.03h.37c1.75-.22 3.55-1.33 5.384-3.317 1.82 1.98 3.635 3.1 5.38 3.317h.37c.13.02.23.02.26.02 3.37 0 6.15-3.27 4.802-6.98Z"/></svg>