<svg viewBox="0 0 24 24" xmlns="http://www.w3.org/2000/svg"><path d="M6.75 23.37c3.43.96 7.36-1.45 7.36-5.442V13.2c0-1.38 1.14-3.19 3.21-3.19 2.17 0 3.2 1.94 3.2 3.19 0 .79-.32 2.37-1.81 2.37 -1.19 0-1.95-1.21-1.58-2.2 -.09.33.09.657.44.657 .34 0 .53-.33.46-.73 0-.09-.11-.84-.94-.84 -.7 0-.93.63-.93.94v4.19c0 4.48-4.88 7.79-9.447 5.744m-3.25-3.39s2.303 2.33 5.338.57c2.01-1.17 2.07-3.6 2.07-3.6v-5.44s-.09-2.73 2.36-4.672c1.71-1.35 3.29-1.26 4.39-1.39 2.8-.35 4.05-2.12 4.05-2.12 .03.3-.28 3.55-3.79 4.48 -.72.18-4.58-.19-4.58 4.275v5.38c0 1.12-.27 3.11-2.38 4.52 -2.17 1.439-5.683 1.21-7.49-2.04M.96 8.67H3.76c0-.5.42-1.471 1.52-1.471 .42 0 .5.09 1.05-.02 .72-.24 1.04-.657 1.19-.99 0 0 .28 1.18-.85 1.81 -.64.34-1.62.07-1.62.07s-.8-.12-.9.593c.44 0 1.14.44 1.14 1.22v6.52c0 .46.375.96.94.96v0c.52-.01.94-.43.94-.96 -.01-.01-.01-.01-.01-.01v-4.58c0-6.757 5.25-9.56 8.31-9.79 2.53-.19 4.24.04 7.34-2.138 0 0-.97 3.796-5.36 4.703 -.81.16-3.23-.12-5.5 2.252 -1.81 1.87-1.99 3.6-1.99 5.891v4.03c0 1.76-1.42 3.54-3.59 3.54 -2.096 0-3.566-1.67-3.566-3.55v-6.85c0-.57-.41-1.08-1.06-1.08H.88Z"/></svg>