<svg viewBox="0 0 24 24" xmlns="http://www.w3.org/2000/svg"><path d="M15.65-.001c-.36.002-.72.09-1.05.276L4.47 5.923c-.46.26-.89.71-1.08 1.362L.67 16.725c-.326 1.13.31 2.314 1.423 2.64l15.968 4.54c1.11.33 2.27-.32 2.6-1.45l2.64-9.258c.17-.55.07-1.22-.2-1.737L17.56 1.15V1.14c-.39-.72-1.13-1.17-1.94-1.17Zm-2.69 6.37s-.01 4.23 0 4.225c.89-1.295 1.71-2.577 3.234-2.577 1.68-.01 2.59 1.4 2.6 2.59l-.01 7.59h-1.9L16.87 11c0-.99-.8-.99-.81-.99 -.64 0-1.82 1.6-3.13 3.38v4.79l-1.92 0L11 15.96s-1.27 2.21-3.16 2.22c-2.15 0-2.877-1.48-2.89-5.02 -.01-3.37.47-5.18 2.777-5.177 1.75-.01 3.25 2.55 3.25 2.55V8.92Zm-5.15 3.65c-.88 0-.96.93-.96 3.17 0 2.24.12 3.11.95 3.11 1.12-.01 2.89-2.86 2.89-2.86s-1.76-3.426-2.9-3.426Z"/></svg>