<svg viewBox="0 0 24 24" xmlns="http://www.w3.org/2000/svg"><path d="M13.539 5.4v0c.11 0 .21-.1.21-.22s-.1-.22-.22-.22v0c-.12 0-.22.09-.22.21 0 .11.09.21.21.21ZM4.22 6.97l-.66 1.29 -1.34-.7 -.276.55 0 0c.03-.01.06-.01.09-.01 .05 0 .11.01.15.03l1.49.78 .88-1.77Zm15.72.43l.31-.17 .5.97 .34-.19 -.51-.98 .29-.17 .73 1.4 .34-.19 -1.02-1.95c-.04.08-.11.15-.17.18l-1.46.78 1 1.93 .34-.19Zm-7.29-2.01v-.001c.11 0 .21-.1.21-.22s-.1-.22-.22-.22v0c-.12 0-.22.09-.22.21 0 .11.09.21.21.21Zm5.05 1.51l0 0c1.19 1.34 1.92 3.12 1.92 5.07 0 3.1-1.85 5.77-4.51 6.97 -.01 0-.02 0-.03.01l0-.01 .02-.02c.43-.21.73-.65.73-1.17 0-.72-.58-1.29-1.29-1.29l-1.36-.01v0c-.1 0-.17-.08-.17-.17 -.01-.1.07-.17.16-.17 0-.001 0-.001 0 0h2.28c1.07 0 1.94-.88 1.94-1.95 0-1.08-.88-1.95-1.95-1.95l-.3 0h-1.92v0c-.1 0-.17-.08-.17-.17 -.01-.1.07-.17.16-.17 0-.01 0-.01 0 0l1.68-.01c1.77 0 3.22-1.45 3.22-3.23v0c0-.63-.19-1.25-.54-1.78l-.01-.02 -.001 0c-.01-.01-.01-.01-.01-.02 0-.02.01-.03.02-.03 0 0 .01 0 .01 0Zm-3.26 12.31v0c-.8.26-1.63.4-2.46.4 -1.15 0-2.24-.26-3.22-.71v-6.03h2.16v0c-.09-.25-.13-.51-.13-.77 0-.41.09-.79.27-1.12H8.74V5.01c.97-.46 2.06-.71 3.21-.71 1.33 0 2.58.34 3.68.94h0c.15.09.26.27.26.47v0c0 .3-.25.55-.56.55 -.01 0-.01-.01-.01-.01l-.02-.01h-.18l-.76 0c-.27 0-.42.07-.51.15 -.27.23-.18.5-.72.5h-1.51c.2.46.66.8.78.88h1.84V7.76c.07 0 .13.04.16.11l0-.001c.01.03.01.06.01.09v0c-.02.08-.09.14-.18.14h-1.88c-.15.07-.59.34-.79.96h3.39 -.001c.22-.01.4.17.4.4 0 .22-.18.4-.41.4 -.01 0-.01 0-.01 0l-1.72-.01c-1.19 0-2.15.95-2.15 2.14 0 1.18.95 2.14 2.14 2.14h2.14c.09 0 .16.07.16.16v-.001c-.01.09-.08.16-.17.16 -.01-.01-.01-.01-.01-.01h-2.2c-.87 0-1.58.7-1.58 1.56 0 .86.7 1.57 1.57 1.57l.82 0c.41 0 .76.35.76.76 0 .33-.21.57-.43.71Zm-7.56-8.22h-2.49c.23-1.88 1.15-3.54 2.48-4.73Zm0 6.66c-1.36-1.21-2.27-2.9-2.5-4.79h2.49Zm5.09-13.76c-4.46-.001-8.06 3.6-8.06 8.05 0 4.45 3.6 8.05 8.05 8.05 4.45 0 8.05-3.61 8.05-8.06 0-4.46-3.61-8.06-8.06-8.06Zm-.31 2h1.9v0c.07-.01.14-.07.14-.15h0c-.01-.08-.07-.15-.15-.15h-1.91v0c-.08 0-.15.06-.15.14 0 .07.06.14.14.14Zm.07-.55l0-.001c.11 0 .21-.1.21-.22s-.1-.22-.22-.22c-.01-.001-.01-.001-.01 0v0c-.12 0-.22.09-.22.21 0 .11.09.21.21.21Zm.29 2.65l.02-.03v-.01l-.03-.03c-.43-.31-.61-.69-.73-.98 -.08-.21-.17-.37-.3-.49 -.14-.13-.23-.2-.42-.2l0 0c-.08 0-.16.01-.24.02l-.05.01 .02.05c.04.07.12.22.25.26v0c.01 0 .02 0 .03 0v0c.01-.01.02-.01.03-.01 0-.01.01-.01.02-.01 0 0 .01 0 .01 0 .14.08.22.71.22 1.03 0 .05-.03.07-.08.07s-.12-.03-.16-.07c-.09-.1-.22-.15-.35-.15 -.23 0-.46.14-.47.4v.05c0 .25.24.4.46.4 .13 0 .26-.06.34-.15 .03-.04.1-.07.15-.07 .04 0 .07.02.07.07 0 .31-.08.94-.23 1.03 0 0-.01 0-.02 0h-.001c-.01-.01-.02-.01-.03-.01v0c-.02-.01-.03-.01-.04-.01v0c-.02-.01-.03 0-.04 0 -.14.04-.22.18-.26.26l-.03.05 .04.01V9.47c.07.01.15.02.23.02 .19 0 .28-.07.41-.2 .12-.13.21-.29.29-.49 .11-.3.29-.68.72-.98Zm-9.45 2.12l-.13.8 -.7-.53Zm-1.28.63H1.29c.03-.02.06-.02.09-.02h0c.04-.01.08.01.12.03l0 0 1.52 1.17 .07-.51 -.32-.24 .18-1.23 .36-.13 .07-.51 -2.04.68Zm10.63 12.7C5.559 23.44.4 18.28.4 11.92 .4 5.55 5.55.4 11.929.4c6.36-.001 11.51 5.15 11.51 11.51 0 6.36-5.16 11.52-11.52 11.52Zm0-23.52c-6.63 0-12 5.37-12 11.99s5.37 11.99 12 11.99c6.62 0 12-5.38 12-12 0-6.63-5.38-12-12-12Zm2.66 2.64c.07-.23.27-.36.55-.36 .11 0 .23.02.36.06 .43.15.64.47.53.8 -.08.23-.28.35-.56.35 -.12 0-.24-.03-.37-.07 -.44-.16-.65-.48-.54-.81Zm.39 1.21c.19.07.38.1.57.1h0c.47 0 .83-.24.97-.63 .09-.28.05-.57-.13-.83 -.17-.25-.44-.45-.77-.57 -.2-.07-.39-.11-.57-.11 -.48 0-.85.23-.98.61 -.2.55.18 1.14.88 1.39Zm3.09.15l-.19 1.45 .02.02 1.39-.33 -.77 1.037 .37.35 1.16-1.54 -.44-.41 -1.22.27 .14-1.27 -.46-.43h-.01L17.99 3c-.01.09-.05.18-.1.23l-1.21 1.16 .37.35Zm3.62 7.48h0c-.04 0-.07 0-.1 0 -.31 0-.54-.27-.61-.69 -.08-.47.09-.81.43-.87v0c.02-.01.06-.01.09-.01 .29 0 .53.26.6.68 .07.46-.1.8-.44.86Zm.84-.95c-.12-.68-.55-1.15-1.05-1.15h-.001c-.05 0-.1 0-.15.01 -.57.09-.89.71-.77 1.46 .11.68.53 1.14 1.04 1.14v0c.05-.01.1-.01.15-.02 .56-.1.88-.72.76-1.48Zm-10.2-8.84h0c.16-.001.27.11.27.28 0 .17-.11.28-.28.28l-.99 0 -.01-.58Zm-1.5 1.52l.51-.01 -.01-.532 .85-.01 .37.52 .56-.01 -.44-.57 .05-.03c.21-.11.34-.33.34-.6 -.01-.44-.29-.72-.73-.72l-1.56.01v0l-.09 0c.05.06.08.14.09.22Zm-3.39.32l-.71.4 -.03-.88Zm-1.17-.43l0 0 .03 1.92 .44-.26 -.02-.39 1.07-.62 .32.2 .44-.26 -1.8-1.17 -.64.36v0c.06.03.11.1.12.17ZM3.61 5.44l1.2 1.16 .35-.39 -.45-.43 .74-.81 -.29-.28 -.75.8 -.35-.34 1.07-1.17 -.29-.28 -1.49 1.61c.07 0 .16.03.22.08l0 0Z"/></svg>