<svg viewBox="0 0 24 24" xmlns="http://www.w3.org/2000/svg"><path d="M3.16 0H3.15C1.4-.01-.01 1.4-.01 3.15c-.01 0-.01 0-.01 0v17.69 0c0 1.74 1.41 3.15 3.16 3.15h17.68c1.74 0 3.16-1.42 3.16-3.16V3.15c0-1.75-1.42-3.16-3.16-3.16H3.14Zm7.87 3.49h2.42v0c.57-.01 1.04.46 1.04 1.03 0 0 0 0 0 0v.82 0c0 .07-.06.14-.14.14 -.02 0-.03-.01-.04-.01v0c-.67-.19-1.36-.28-2.05-.28v-.001c-.72-.01-1.43.09-2.12.29 -.1.02-.19-.05-.19-.14v-.843 -.001c-.01-.58.46-1.04 1.04-1.04ZM6.68 5.71h0c.28-.01.55.1.75.3l.41.41c.05.06.05.16-.03.21L7.8 6.62c-.34.24-.65.5-.95.8H6.85c-.29.28-.56.6-.8.93 -.06.06-.16.08-.22.01l-.41-.41H5.42c-.41-.41-.41-1.07-.01-1.48 0-.01 0-.01 0-.01l.49-.5v0c.19-.2.45-.31.72-.31Zm5.59.35v0c3.74-.01 6.77 3.01 6.78 6.76 0 0 0 .01 0 .01v0c-.01 3.74-3.04 6.78-6.79 6.78 -.01-.01-.01-.01-.01-.01 -3.75 0-6.79-3.03-6.79-6.78v-.001c0-3.75 3.04-6.79 6.78-6.79 0 0 0 0 0 0Zm0 2v0c-2.64-.01-4.78 2.13-4.783 4.77H7.48c0 2.63 2.14 4.77 4.78 4.775v0c2.63 0 4.78-2.14 4.78-4.77 0-.01 0-.01 0-.01v0c-.01-2.64-2.15-4.78-4.79-4.776Zm.14.83v0c1.36.05 2.6.8 3.28 1.98 .03.07.01.16-.06.19l-3.17 1.638c-.1.05-.21-.03-.21-.125v-3.56h0c0-.08.07-.14.14-.14Z"/></svg>