<svg viewBox="0 0 24 24" xmlns="http://www.w3.org/2000/svg"><path d="M14.391 16.22c-.97.04-.87-.46-.31-1.234 1.32-1.77 3.82-4.24 3.9-5.99 .15-2.29-2.15-3.026-4.51-3.01 -1.65.02-3.35.492-4.51.9 -4 1.4-6.504 3.67-8.084 6.17 -1.68 2.47-1.13 4.84 2.41 4.92 2.71-.11 4.48-.87 6.32-1.81 .01 0-5.09 1.45-6.96.38l-.01-.01c-.2-.11-.41-.27-.46-.69 -.02-.89 1.46-1.81 2.28-2.1v-1.54 0c.62.24 1.28.36 1.955.36h0c1.27 0 2.5-.45 3.47-1.27 .03.13.05.27.04.44h.37c.04-.4-.18-.71-.18-.71 -.34-.53-.92-.52-.92-.52s.31.13.52.46v0c-1.3 1.08-3.06 1.43-4.665.93l1.21-1.2 -.34-.88c2.43-.86 4.48-1.51 7.81-2.085l-.75-.63 .38-.24c2.01.56 3.32.98 3.25 2.051v0c-.05.21-.12.41-.21.61 -.59 1.15-2.33 3.09-3.03 3.89 -.47.53-.92 1.06-1.25 1.56 -.34.5-.54.97-.56 1.42 .04 3.5 10.33-1.64 12.32-3.003 -2.95 1.266-6.12 2.48-9.609 2.718Z"/></svg>