<svg viewBox="0 0 24 24" xmlns="http://www.w3.org/2000/svg"><path d="M4.59 7.98v0c-.07 0-.13.05-.13.12v5.91 0c-.001.06.05.12.12.12h.72v0c.06 0 .12-.06.12-.13h-.01V8.08h-.001c0-.07-.06-.13-.13-.13Zm1.69 0v0c-.07 0-.13.05-.13.12v5.91 0c0 .06.05.12.12.12h.72v0c.06-.01.12-.06.12-.13V8.08v0c0-.07-.06-.13-.13-.13Zm12.66 1.77v0c-.5-.01-.97.18-1.32.532v0c-.35.32-.54.77-.54 1.25v2.48 0c0 .06.05.12.12.12h.72v0c.06 0 .12-.06.12-.13v-2.43c0-.76.5-1.12 1.314-.95v0c.06.02.14-.02.16-.09 0-.02 0-.04 0-.06v-.5c0-.13-.02-.18-.1-.21v0c-.17-.04-.34-.05-.51-.05Zm-4.63 0h-.001c-.68 0-1.32.31-1.74.84v0c-.56.8-.56 1.87 0 2.67h0c.4.54 1.05.85 1.73.84h-.001c.43 0 .86-.13 1.23-.38v.53c0 .71-.63.84-1.03.87h-.001c-.28 0-.56-.01-.83-.05 -.11-.02-.19 0-.19.11v.63 0c0 .05.05.1.11.1 .93.08 1.56.06 2.032-.21v0c.33-.2.57-.51.69-.88v0c.08-.29.12-.58.11-.88v-2.08h0v0c0-.48-.14-.95-.42-1.34v0c-.42-.54-1.06-.85-1.74-.85Zm-12.26 0l0-.001c-.52-.01-1.02.13-1.47.39H.57c-.03.01-.05.04-.05.08l.03.63 0 0c.01.06.06.1.12.09 .02-.01.04-.02.05-.03 .62-.39 1.38-.46 1.76-.27h0c.21.12.34.35.33.6v.09H1.76c-.45 0-1.83.16-1.83 1.43v.01 0c-.03.39.14.76.45 1.01h0c.32.22.71.34 1.11.32H3.6v0c.06 0 .12-.06.12-.13 0-.01-.01-.01-.01-.01v-2.51l-.01 0c0-.57-.13-1.01-.41-1.31 -.274-.3-.827-.45-1.34-.45Zm7.7 0c-1.28 0-1.84.85-2.02 1.58v0c-.05.19-.08.39-.08.6v0c-.01.47.13.94.41 1.33v0c.41.53 1.05.84 1.73.85 .69.02 1.15-.1 1.5-.3h0c.07-.05.1-.14.08-.22v-.56c0-.12-.07-.17-.17-.1v0c-.42.26-.91.38-1.4.33v0c-.58-.01-1.06-.45-1.12-1.02h2.84 -.001c.06 0 .11-.06.11-.12 .05-.78-.18-2.42-1.93-2.42Zm12.08 0v0c-.68 0-1.32.31-1.74.84v0c-.28.39-.42.86-.42 1.34v0c-.01.47.13.94.41 1.33v0c.74.95 2.12 1.13 3.07.38 .14-.12.27-.25.38-.39v0c.27-.4.41-.87.41-1.34v0c0-.48-.14-.95-.42-1.34v0c-.42-.54-1.06-.85-1.74-.85Zm-7.532.83c1.157 0 1.19 1.18 1.19 1.35 0 .17-.04 1.35-1.2 1.35 -.52 0-.89-.38-1.05-.85v0c-.12-.33-.12-.68 0-1.01 .15-.47.53-.85 1.04-.85Zm-4.55 0v0c.47-.03.88.33.91.8 0 .03 0 .07-.01.11H8.7v0c.02-.54.47-.95 1.01-.93 0 0 0 0 .01 0Zm12.078 0c.51-.02.89.37 1.04.84v0c.11.32.11.67 0 1v0c-.16.47-.54.83-1.05.84 -.52.01-.89-.38-1.05-.85h0c-.12-.33-.12-.68-.001-1.01 .15-.47.53-.84 1.04-.85ZM1.86 12.1h.99v1.24H1.6l0-.001c-.17-.01-.32-.06-.45-.16h0c-.14-.1-.22-.25-.21-.42 0-.23.15-.68.914-.68Z"/></svg>