<svg viewBox="0 0 24 24" xmlns="http://www.w3.org/2000/svg"><path d="M16.434 0v-.001c-.06-.01-.11-.01-.17 0l-3.43.543V.541c.22 1.43-.76 2.78-2.189 3.01v0c-1.44.22-2.79-.75-3.01-2.19 -.01-.01-.01-.01-.01-.01l-3.417.538v0c-.45.07-.75.48-.68.93l3.24 20.46v0c.07.44.48.74.931.67l3.423-.55v0c-.23-1.44.75-2.79 2.189-3.01v0c1.43-.23 2.78.74 3 2.18 0 0 0 0 0 0l3.42-.55v0c.44-.08.74-.49.67-.93L17.15.61l-.001 0c-.07-.39-.39-.67-.77-.69Zm-3.22 6.534c.06 0 .12 0 .18.01 .42.09.97.6 1.31.95 .17.18.19.51.04.73l-1.23 1.795v-.001c-.12.13-.27.23-.44.28 -.51.125-1.25-.95-1.78 1.5 -.53 2.458.59 1.77 1 2.09v0c.13.11.23.26.28.43l.39 2.14h0c.04.26-.1.53-.35.64 -.46.18-1.17.42-1.59.33 -.907-.2-2.35-2.4-1.57-6.05 .72-3.42 2.71-4.89 3.7-4.91Z"/></svg>