<svg viewBox="0 0 24 24" xmlns="http://www.w3.org/2000/svg"><path d="M5.998 1.6L0 11.993 5.998 22.38h12l5.99-10.393 -6-10.393H5.978Zm3.96 5.51l2.69 2.78 1.59 1.59 0-.01 2.41 2.36c-.2.14-.39.25-.57.34v0c-.16.08-.33.15-.5.21v0c-.14.04-.29.08-.43.11 -.14.02-.25.03-.36.03 -.13 0-.25-.02-.34-.04v0c-.09-.02-.17-.05-.24-.08v0c-.08-.03-.14-.07-.2-.12l-1.07-1.1 -3.04-3.05 -1.1 1.05 -3.07 3.07v0c-.07.04-.13.08-.2.11v0c-.08.03-.16.05-.24.07 -.1.02-.21.03-.34.03 -.11 0-.23-.01-.36-.04v0c-.15-.03-.29-.07-.43-.12v0c-.18-.07-.34-.14-.5-.22H3.65c-.2-.11-.39-.22-.57-.35l6.8-6.727Zm4.72.78l4.57 4.59 1.38 1.35v-.001c-.19.12-.37.24-.57.34v0c-.16.08-.33.15-.5.21v0c-.14.04-.29.08-.43.11 -.13.02-.26.03-.36.03 -.13 0-.25-.02-.34-.04v0c-.14-.03-.27-.08-.39-.15 -.04-.02-.05-.04-.06-.04l-1.24-1.218 -2.12-2.12 -.34.33 -1.56-1.55 1.89-1.9ZM8.7 12.01v2.529 0c-.12-.01-.24-.02-.36-.04v0c-.15-.03-.29-.07-.43-.12H7.91c-.17-.06-.34-.14-.49-.22v-.001c-.2-.11-.38-.22-.56-.34l1.82-1.83Z"/></svg>