<svg viewBox="0 0 24 24" xmlns="http://www.w3.org/2000/svg"><path d="M6.429 17.571h10.714V6.85H6.429v10.71ZM18 6.85h1.71v.85h-1.72v1.71h1.71v.85h-1.72v1.28h1.71v.85h-1.72v1.71h1.71v.85h-1.72v1.71h1.71v.85h-1.72v.05 0c-.01.44-.36.79-.8.79h-.06v1.71h-.86v-1.72h-1.72v1.71h-.86v-1.72h-1.29v1.71h-.86v-1.72H9.78v1.71h-.86v-1.72H7.2v1.71h-.86V18.3h-.06 0c-.45-.01-.8-.36-.8-.8v-.06H4.19v-.86h1.28v-1.72H4.18V14h1.28v-1.72H4.17v-.86h1.28v-1.29H4.16v-.86h1.28V7.55H4.15v-.86h1.28v-.06l0 0c0-.45.35-.8.8-.8h.05V4.11h.85v1.71h1.71V4.1h.85v1.71h1.71V4.09h.85V5.8h1.28V4.08h.85v1.71h1.71V4.07h.85v1.71h.05v0c.44 0 .79.35.79.79v.05ZM12.429 23.08v0c-.01.02-.03.05-.06.05H.9 .9c-.03 0-.06-.03-.06-.06V11.6c0-.03.02-.06.05-.06h2.52v-.86H.89v0c-.51 0-.91.4-.91.91V23.06c0 .5.4.91.91.91h11.46v0c.5 0 .91-.41.91-.91v-2.09h-.86ZM24 .9v11.46h0c0 .5-.41.91-.91.91h-2.52v-.86h2.51v-.001c.02-.01.05-.03.05-.06V.88 .88c0-.03-.03-.06-.06-.06H11.6v0c-.03-.01-.06.02-.06.05 -.01 0-.01 0-.01 0v2.52h-.86V.87c0-.502.4-.91.91-.91h11.466L23.04-.04c.5-.001.91.4.91.91Z"/></svg>