<svg viewBox="0 0 24 24" xmlns="http://www.w3.org/2000/svg"><path d="M1.8 12.403c-.07-.1-.15-.18-.15-.36v-.6c0-.26.01-.484-.17-.66 -.15-.15-.39-.2-.58-.2 -.37 0-.77.13-.86.58 -.01.04.02.07.05.08l.37.03c.03-.01.05-.04.066-.08 .03-.16.16-.23.3-.23 .07 0 .16.02.21.09 .05.07.04.18.04.27v.04c-.23.02-.511.04-.72.13 -.24.1-.41.31-.41.62 0 .39.25.59.57.59 .27 0 .41-.07.62-.28 .06.1.09.14.21.25 .02.01.06.01.09-.01l.29-.26c.03-.03.02-.07 0-.11m-.68-.58c0 .14 0 .27-.08.4 -.07.1-.16.17-.27.17 -.15 0-.24-.12-.24-.28 0-.33.29-.39.56-.39Zm5.68.57c-.07-.1-.15-.18-.15-.36v-.6c0-.26.01-.484-.17-.66 -.15-.15-.39-.2-.58-.2 -.37 0-.77.13-.86.58 -.01.04.02.07.05.08l.37.03c.03-.01.05-.04.06-.08 .03-.16.16-.23.3-.23 .07 0 .16.02.21.09 .05.07.04.18.04.27v.04c-.23.02-.52.04-.72.13 -.24.1-.41.31-.41.62 0 .39.25.59.57.59 .27 0 .42-.07.63-.28 .06.1.09.14.21.25v0c.02.01.06.01.08-.01l0 0c.07-.07.21-.19.29-.26 .03-.03.02-.07 0-.11m-.76-.18c-.07.1-.16.17-.27.17 -.15 0-.24-.12-.24-.28 0-.33.29-.39.56-.39v.08c0 .14 0 .27-.08.4m5.16.53h-.39 0c-.04-.01-.07-.04-.07-.08l-.01-1.97c0-.04.03-.07.07-.07h.35 -.001c.03 0 .05.02.06.05v.29h0c.1-.27.25-.4.52-.4 .17 0 .33.06.44.23 .09.15.09.42.09.61v1.23c-.01.03-.04.06-.08.06h-.39v0c-.04-.01-.07-.03-.07-.07v-1.07c0-.22.02-.53-.24-.53 -.1 0-.18.06-.23.15 -.06.11-.07.23-.07.37v1.05 0c-.01.03-.04.07-.08.07M9.3 10.28c.56 0 .87.48.87 1.1 0 .59-.34 1.07-.88 1.07 -.56 0-.86-.49-.86-1.1 0-.62.3-1.09.85-1.09m0 .4c-.29 0-.3.38-.3.62 0 .23-.01.75.29.75 .29 0 .31-.42.31-.67 0-.17-.01-.37-.06-.52 -.05-.14-.13-.19-.25-.19M2.2 12.38h-.39v0c-.04-.01-.07-.03-.07-.07l0-1.96c0-.04.03-.08.07-.08h.35c.03 0 .06.03.06.06v.25h0c.09-.25.26-.37.5-.37 .23 0 .38.11.49.36 .09-.25.3-.37.52-.37 .16 0 .33.06.44.21 .12.16.09.4.09.61l-.01 1.237c0 .03-.04.07-.08.07h-.39v0c-.04-.01-.07-.04-.07-.08v-1.04c0-.09 0-.29-.02-.37 -.03-.14-.12-.17-.23-.17 -.1 0-.19.06-.23.16 -.04.09-.04.26-.04.37v1.03c0 .03-.04.07-.08.07h-.39v0c-.04-.01-.07-.04-.07-.08l-.01-1.04c0-.22.03-.55-.24-.55 -.28 0-.27.31-.27.54l-.01 1.03c0 .03-.04.07-.08.07m4.57-1.75v-.28 -.001c-.01-.04.02-.07.06-.08 0-.01 0-.01 0 0h1.25c.04 0 .07.02.07.07v.24c-.01.04-.04.09-.1.17l-.66.92c.24-.01.49.03.71.15 .04.02.06.06.06.1v.29c0 .04-.05.08-.1.06 -.39-.21-.9-.23-1.33 0 -.05.02-.09-.03-.09-.07v-.29c0-.05 0-.13.04-.2l.75-1.09h-.66c-.04 0-.08-.03-.08-.08m.81 2.16c-.1-.12-.61-.06-.84-.03 -.07 0-.09-.06-.02-.1 .41-.29 1.08-.21 1.16-.11 .07.09-.03.77-.41 1.09 -.06.04-.12.02-.09-.05 .08-.22.28-.7.18-.82m-.3.34c-.72.52-1.76.81-2.66.81 -1.26 0-2.384-.47-3.24-1.24 -.07-.07-.01-.15.07-.1 .92.53 2.06.85 3.24.85 .79 0 1.66-.17 2.47-.51 .12-.06.22.07.1.16m15.52-.7c-.35 0-.61-.1-.79-.29 -.19-.19-.28-.46-.28-.81 0-.36.09-.64.28-.85 .18-.21.44-.31.78-.31 .25 0 .45.06.6.18 .14.12.21.28.21.49 0 .2-.08.36-.24.46 -.16.1-.39.15-.69.15 -.16 0-.3-.02-.41-.05 .01.18.07.31.16.39 .09.08.23.12.43.12 .07 0 .15-.01.22-.02s.17-.04.3-.07v0c.01-.01.03-.01.04-.01 .04 0 .07.03.07.09v.19c0 .04-.01.07-.02.09 -.02.01-.04.03-.08.04 -.21.07-.42.11-.65.11m-.14-1.3c.14 0 .24-.03.3-.07 .06-.05.09-.11.09-.2 0-.18-.11-.27-.32-.27 -.27 0-.42.16-.46.48 .11.02.23.03.36.03m-4.42 1.23c-.04 0-.07-.01-.08-.03 -.02-.02-.03-.05-.03-.08V9.95c0-.04 0-.07.02-.09 .01-.02.04-.03.07-.03h.29c.06 0 .1.03.11.09l.03.11c.14-.1.27-.17.39-.21 .11-.04.23-.06.36-.06 .24 0 .42.08.52.26 .14-.1.27-.17.39-.21 .12-.05.25-.07.38-.07 .19 0 .34.05.44.16 .1.1.15.25.15.45v1.46c0 .03-.01.06-.03.07 -.02.01-.05.02-.09.02h-.4c-.04 0-.07-.01-.08-.03 -.02-.02-.03-.05-.03-.08v-1.33c0-.19-.09-.29-.26-.29 -.15 0-.3.03-.46.1v1.5c0 .03-.01.06-.03.07 -.02.01-.05.02-.09.02h-.4c-.04 0-.07-.01-.08-.03 -.02-.02-.03-.05-.03-.08v-1.33c0-.19-.09-.29-.26-.29 -.16 0-.31.03-.46.11v1.49c0 .03-.01.06-.03.07 -.02.01-.05.02-.09.02Zm-.92-2.45c-.11 0-.19-.03-.26-.09s-.1-.14-.1-.24c0-.1.03-.18.09-.24s.14-.09.25-.09c.1 0 .18.02.25.08 .06.05.09.13.09.23 0 .09-.04.17-.1.23 -.07.05-.15.08-.26.08m-.2 2.44c-.04 0-.07-.01-.08-.03 -.02-.02-.03-.05-.03-.08V9.9c0-.04 0-.07.02-.09 .01-.02.04-.03.07-.03h.39c.03 0 .06 0 .08.02 .01.01.02.04.02.08v1.9c0 .03-.01.06-.03.07 -.02.01-.05.02-.09.02Zm-1.66 0c-.04 0-.07-.01-.08-.03 -.02-.02-.03-.05-.03-.08V9.9c0-.04 0-.07.02-.09 .01-.02.04-.03.07-.03h.29c.06 0 .1.03.11.09l.05.22c.11-.13.21-.21.31-.26v0c.09-.06.2-.08.31-.08h.05c.03 0 .06 0 .08.02 .01.01.02.04.02.08v.34c0 .03-.01.06-.03.07 -.02.01-.05.02-.09.02v0c-.03-.01-.05-.01-.08-.01v0c-.04-.01-.08-.01-.12-.01 -.07 0-.15 0-.24.02 -.1.01-.17.04-.24.06v1.38c0 .03-.01.06-.03.07 -.02.01-.05.02-.09.02Zm-2.48.85c-.04 0-.07-.01-.08-.03 -.02-.02-.03-.05-.03-.09V9.89c0-.04 0-.07.02-.09 .01-.02.04-.03.07-.03h.29c.06 0 .1.03.11.09l.02.1c.08-.08.18-.15.29-.2V9.76c.11-.05.23-.08.35-.08 .26 0 .47.09.63.29 .15.19.23.46.23.79 0 .22-.04.42-.12.59 -.08.17-.19.3-.32.39 -.14.09-.29.13-.46.13v0c-.11 0-.22-.02-.33-.06 -.11-.04-.19-.09-.27-.15v.9c0 .03-.01.06-.03.08 -.02.01-.05.02-.09.02Zm.9-1.27c.15 0 .26-.06.34-.16 .07-.11.1-.28.1-.5 0-.23-.04-.4-.11-.51 -.08-.11-.19-.16-.35-.16v0c-.15-.01-.29.03-.41.11v1.08c.12.07.25.11.4.11Z"/></svg>