<svg viewBox="0 0 24 24" xmlns="http://www.w3.org/2000/svg"><path d="M14.37 4.99c-.38-.33-.96-.49-1.75-.49 -.39 0-.78.03-1.17.1 -.4.07-.72.16-.99.27 -.1.04-.17.08-.2.13 -.04.04-.05.12-.05.24v.33c0 .14.05.22.16.22v0c.03-.01.07-.01.1-.02 .03-.02.06-.03.09-.04 .63-.2 1.24-.29 1.82-.29 .49 0 .84.09 1.04.274 .19.18.29.49.29.94v.82c-.58-.15-1.11-.22-1.57-.22 -.73 0-1.31.18-1.74.54 -.44.36-.65.84-.65 1.44 0 .56.17 1.01.52 1.34 .34.33.82.5 1.41.5 .35 0 .71-.08 1.07-.22 .36-.15.68-.35.98-.6l.06.41c.02.15.11.23.27.23h.53c.16 0 .24-.09.24-.25v-4.26c-.01-.68-.19-1.19-.56-1.51Zm-.61 4.6c-.28.2-.56.36-.86.47 -.3.1-.59.16-.86.16 -.33 0-.58-.09-.75-.26 -.18-.17-.27-.42-.27-.73 0-.73.46-1.09 1.4-1.09 .21 0 .43.01.66.04 .22.02.44.06.65.11Zm-5-3.2c-.13-.41-.3-.75-.52-1.03 -.23-.29-.5-.5-.83-.65 -.33-.15-.69-.23-1.09-.23 -.38 0-.74.07-1.1.21 -.36.14-.7.34-1.01.62l-.07-.4c-.03-.17-.13-.25-.29-.25H3.3c-.17 0-.25.08-.25.24v8.36c0 .16.08.24.24.24h.73c.16 0 .24-.09.24-.25v-2.91c.53.48 1.181.73 1.92.73 .4 0 .77-.09 1.1-.25 .33-.17.61-.39.84-.68 .23-.29.41-.65.54-1.06 .12-.42.19-.88.19-1.4 0-.51-.06-.96-.18-1.37Zm-2.8 3.73c-.57 0-1.12-.2-1.65-.6V6.05c.52-.39 1.07-.58 1.66-.58 1.12 0 1.69.77 1.69 2.32 -.01 1.54-.58 2.31-1.72 2.31Zm13 1.96l2.73-6.97c.05-.15.08-.25.08-.3 0-.1-.06-.15-.18-.15h-.7c-.14 0-.23.02-.28.06 -.05.04-.1.133-.15.274l-1.68 4.82 -1.75-4.83c-.05-.15-.1-.24-.15-.274 -.05-.05-.15-.07-.28-.07h-.75c-.12 0-.18.04-.18.14 0 .05.02.15.08.29l2.39 5.91 -.24.63c-.15.39-.3.67-.48.82 -.18.14-.42.22-.74.22 -.15 0-.26-.01-.34-.03 -.09-.02-.15-.03-.19-.03 -.13 0-.19.07-.19.23v.32c0 .11.02.2.06.25 .04.05.1.09.19.11 .2.05.44.08.7.08 .47 0 .85-.13 1.14-.38 .29-.25.55-.66.77-1.24m2.71 4.42c-2.63 1.93-6.44 2.97-9.72 2.97 -4.6 0-8.74-1.7-11.88-4.53 -.25-.23-.03-.53.26-.36 3.37 1.96 7.55 3.15 11.877 3.15 2.91 0 6.11-.61 9.05-1.86 .44-.19.81.29.38.61m1.09-1.25c.33.43-.38 2.2-.7 2.99 -.1.23.11.33.32.15 1.4-1.18 1.77-3.65 1.48-4.01 -.29-.36-2.76-.66-4.26.39 -.24.16-.2.38.06.35 .84-.11 2.73-.33 3.06.1Z"/></svg>