<svg viewBox="0 0 24 24" xmlns="http://www.w3.org/2000/svg"><path d="M20.913 13.14l.12-.9c.94.57 1.25.92 1.35 1.07 -.16.03-.57.04-1.48-.18Zm-2.18 7.98v0c-.01.02-.01.04-.01.07 0 .08-.21.4-1.13.76v0c-.47.17-.95.32-1.44.43 -1.41.32-3.128.5-4.853.5 -4.612 0-7.42-1.19-7.42-1.71v0c-.01-.03-.01-.05-.01-.08L1.77 5.55c.13.07.28.15.43.22 .04.02.08.03.12.05 .13.06.27.12.41.18l.17.06c.15.05.31.11.47.16 .04.01.08.02.13.04 .2.06.42.12.64.18l.17.04c.17.04.35.08.53.12l0 0c.27.06.56.11.84.17l.12.02c.25.04.508.08.76.12 .07.01.14.02.21.03 .2.02.4.05.6.07l.24.02c.24.02.49.05.74.07l.08 0c.27.02.55.04.83.05l.23.01c.21.01.42.01.63.02l0 0c.93.03 1.86.02 2.795-.03l.23-.02c.27-.02.55-.04.83-.06l.08-.01c.25-.02.49-.05.74-.08l.23-.03c.2-.03.4-.05.609-.08 .07-.01.14-.02.21-.03 .26-.04.51-.08.77-.13l.11-.02c.21-.04.42-.09.63-.125l.21-.05c.18-.05.36-.09.54-.13l.16-.05c.22-.06.44-.13.65-.19 .04-.02.07-.03.11-.04V6.1c.16-.06.33-.12.49-.18 .05-.03.11-.05.17-.07 .15-.06.29-.12.43-.19 .03-.02.07-.04.11-.06 .15-.08.3-.15.43-.23l-.98 7.24c-2.49-.78-5.805-2.292-7.311-3v0c-.01-.6-.49-1.09-1.09-1.09 -.6 0-1.09.48-1.09 1.08 0 .6.48 1.08 1.08 1.08 .19 0 .37-.06.53-.15 1.72.81 5.144 2.36 7.71 3.15ZM11.313 1.07c5.67 0 9.676 1.759 9.75 2.73l-.02.11c-.01.03-.04.06-.05.1 -.02.02-.03.05-.05.08 -.03.03-.06.06-.09.1 -.03.03-.06.06-.09.09 -.04.03-.09.07-.14.1 -.04.03-.08.06-.12.09 -.06.03-.12.07-.18.1 -.05.03-.1.06-.15.09 -.07.03-.15.07-.23.11 -.06.02-.12.05-.18.08 -.09.03-.18.07-.27.11 -.07.02-.13.05-.21.08 -.1.03-.21.07-.31.1 -.08.02-.15.05-.23.07 -.12.03-.24.06-.35.1 -.09.02-.17.05-.26.07 -.13.03-.26.06-.39.09 -.1.02-.19.04-.28.06 -.14.03-.29.06-.44.09 -.1.02-.2.04-.3.06 -.16.03-.32.05-.49.08 -.1.01-.2.03-.31.05 -.17.02-.35.04-.52.07 -.11.01-.22.03-.33.04 -.19.02-.38.04-.56.06 -.11.01-.22.02-.34.03 -.19.01-.39.02-.58.04 -.13 0-.24.02-.37.02 -.21.01-.43.02-.64.02 -.12 0-.24.01-.36.01V6.1c-.69.02-1.38.02-2.07 0 -.12-.01-.24-.02-.36-.02 -.22-.01-.43-.02-.64-.03 -.13-.01-.24-.02-.36-.03 -.2-.02-.4-.03-.59-.05 -.11-.01-.22-.03-.33-.04 -.19-.02-.39-.04-.57-.06l-.32-.05c-.18-.03-.36-.05-.53-.08 -.1-.02-.2-.04-.29-.05 -.17-.03-.34-.06-.5-.09 -.1-.02-.19-.04-.28-.06 -.16-.04-.31-.07-.45-.1 -.09-.02-.18-.05-.26-.07 -.14-.04-.28-.07-.41-.11 -.09-.03-.16-.05-.24-.07l0 0c-.13-.04-.25-.08-.37-.11 -.08-.03-.15-.05-.22-.08 -.11-.04-.23-.08-.33-.12 -.07-.03-.125-.06-.19-.08 -.1-.04-.2-.08-.29-.12 -.06-.03-.11-.06-.17-.08 -.08-.04-.17-.08-.24-.12 -.06-.03-.1-.06-.15-.09 -.07-.04-.13-.08-.19-.12 -.05-.03-.08-.06-.12-.09 -.05-.04-.1-.08-.139-.11 -.04-.03-.06-.06-.08-.09 -.04-.04-.07-.07-.1-.11 -.02-.03-.04-.06-.05-.09 -.02-.04-.04-.07-.05-.11l-.02-.12C1.38 2.57 5.38.81 11.05.81Zm12.182 12.12c-.12-.63-.84-1.3-2.31-2.128l.96-7.16v0c0-.03 0-.05 0-.08 0-2.27-5.72-3.86-10.84-3.86C6.17-.04.46 1.54.46 3.81h0c0 .02 0 .04 0 .07l2.33 17.327c.07 2 5.23 2.75 8.5 2.75 1.8 0 3.615-.19 5.09-.54 .59-.14 1.13-.3 1.59-.48 1.18-.47 1.78-1.06 1.81-1.74l.94-7.02c.55.13 1.01.19 1.38.19 .54 0 .9-.14 1.13-.42v0c.18-.23.26-.52.21-.81Z"/></svg>