<svg viewBox="0 0 24 24" xmlns="http://www.w3.org/2000/svg"><path d="M13.136 4.01v0c-.15-.01-.3.01-.45.04V4.04c-1.05.19-1.79 1.13-1.74 2.19 -.07.05-.14.11-.2.17l-.21.21c-.14.14-.28.27-.42.41 -.29.274-.58.54-.87.81 -.59.54-1.186 1.08-1.73 1.71h0c-.28.31-.52.65-.73 1.01v-.001c-.34.54-.56 1.15-.65 1.79l0-.001c-.02.1-.04.21-.04.32l-.01.08 -.01.07 -.01.15 -.01.03 -.01.04v.07l0 .16 0 .15c-.89-.3-2.123-.49-3.184-.47 -1.235.01-2.14.27-2.588.75h0c-.23.22-.35.52-.33.84 .034.95 1.117 1.51 2.91 1.51h.1c1.25-.02 2.76-.35 3.61-.77v0c.12.35.14.72.07 1.09v0c-.04.16-.1.31-.18.46h-.001c-.09.14-.19.26-.31.37h-.001c-.13.1-.27.18-.42.24h-.001c-.17.05-.33.09-.5.1l.04.63h.01c1.306.77 1.57 1.62 1.74 1.7 .21.1 1.02-.19.87-.86 -.09-.4-.55-.68-.98-.87 .08-.01.16-.02.23-.04h0c.01 0 .03-.01.05-.01l.05-.01 .05-.02h0c.07-.02.15-.03.23-.05l0-.01c1.22-.26 2.32-.72 3.2-1.32 .9.57 1.89 1.39 2.22 2.15 -.03.12-.14.26-.27.27l.33.61c1.05-.532 1.8-.24 2.32 0l.17.09c.02.01 0 0 .02.01l.08-.04c.15-.1.53-.46.44-.82 -.12-.46-.42-.63-.7-.58 -.29.05-1.01.5-.96.07l-.01-.01c.04-.33.08-.93 0-1.6 -.16-1.25-.71-2.22-1.6-2.817v0c.06-.21.11-.41.13-.62 .61.21 1.2.38 1.97.45 .27.02.9.03 1.37.02l.06.23h0s0 0 .01 0c0-.01 0-.01 0-.01l.25-.1v0c.02-.01.04-.02.07-.03 .02-.01.03-.01.03.01 -.01.05-.02.12-.03.14l-.06.28 -.04.16c-.01.06.03.09.1.06 .06-.03.15-.08.15-.08 .43-.19.91-.45 1.35-.63 .21-.09.31-.3.35-.51h-.001c.01-.14.01-.28-.01-.41l.69.05 0-.01 .2-.56 .58.05 .2-.56 .58.05 .2-.56 .58.06 .2-.56 .58.05 .2-.56 .58.05 .2-.56 .34.03 .08-.51 0-.02 -.3-1.42 -8.39 3.31v0c-.02 0-.03.02-.02.03 0 0 0 0 0 0l.38.38s.01.01.03 0l.17-.06h-.001c.05-.02.1 0 .13.05l.09.23s.01.03-.05.03l-.06-.01v-.001c-.07-.01-.14-.01-.21-.02v0c-.13-.02-.26-.03-.375-.06 -.07-.01-.13-.03-.19-.05 -.06-.02-.13-.04-.19-.06l-.18-.07 -.18-.08v0c-.12-.06-.24-.12-.35-.18 -.06-.04-.12-.07-.17-.1h0c-.18-.11-.34-.22-.51-.34 -.12-.08-.23-.16-.34-.24l-.03-.02c.12-1.49.52-2.1.83-2.36v0c.1-.09.22-.15.35-.18h-.001c-.03.12-.03.25-.03.38l.43.03 .03-.11c0-.04.02-.07.03-.11 .01-.04.02-.07.03-.11 .01-.04.03-.07.04-.1 .01-.04.03-.07.04-.1 .01-.03.03-.07.05-.1 .03-.07.07-.14.11-.2l.13-.22c.04-.08.08-.15.12-.24 .02-.05.04-.09.05-.13 .01-.05.03-.09.05-.14l.02-.07 .01-.04 .01-.04 .01-.06 .01-.03 0-.01 0-.03 0-.03 0-.03v-.04c0-.02 0-.02-.01-.05v0c-.01-.02-.01-.03-.01-.03l-.01-.03v0c-.09-.24-.22-.45-.4-.61v0c-.07-.07-.14-.13-.22-.18l.15 0c.14 0 .26 0 .35 0 .08 0 .13 0 .13 0l.05-.53s-.05-.01-.14-.03V5.19c-.12-.03-.24-.04-.36-.06l-.06-.01 .04-.01v0c-.24-1.02-1.14-1.74-2.18-1.76Zm.1.64l0-.001c.63.04 1.17.46 1.39 1.05l-.39-.03v0c-.2-.02-.39-.03-.58-.03h-.001c-.17-.01-.34-.01-.51-.01l-.21 0c-.07 0-.11 0-.16 0l-.14 0v0c-.03 0-.06 0-.08 0l-.001 0c-.34.01-.67.09-.98.21v0c.06-.39.28-.73.6-.95 .01-.01.02-.01.04-.01 .02-.01.05-.01.08-.01s.06-.01.1-.01h.11c.03 0 .07 0 .11.01 .04.01.08.01.125.02 .04.01.08.02.12.04v0c.03.01.07.02.11.04 .03.01.07.03.1.05 .03.02.06.03.09.05l0 0c.05.03.1.07.15.125v0s0 0 .01.01l.25-.18 -.01-.03h0c-.05-.08-.11-.15-.17-.21 -.03-.04-.07-.07-.1-.1 -.04-.03-.08-.07-.12-.1Zm-.49 1.64h.06l.07 0c.17 0 .36.03.54.06 .36.07.72.18 1.03.35 .15.08.3.18.42.29l-.001-.001c.08.07.15.17.2.28l-.01.01 -.01.03 -.01.02 -.02.04c-.01.03-.03.06-.05.1 -.02.03-.03.06-.05.1 -.02.03-.04.06-.06.1l-.05.1v0c-.04.07-.08.14-.12.22l-.03.05c-.11-.02-.51-.04-.94.29 -.56.43-.91 1.25-1.06 2.44 -.03-.02-.05-.04-.07-.05v0c-.12-.08-.25-.16-.37-.24l-.19-.12 -.2-.11v0c-.26-.14-.53-.26-.8-.35v0c-.07-.03-.14-.05-.21-.07v0c-.07-.03-.15-.05-.22-.06 -.07-.02-.15-.04-.21-.06l-.21-.05 -.09.31c.13.04.26.09.38.14 .06.02.12.05.18.07v-.001c.18.07.36.16.54.26h0c.11.06.23.13.34.2l.17.11 .16.11 .16.12 .16.12c.1.08.21.16.32.25l.32.26c.22.17.44.35.68.51 .05.04.12.08.18.11h0c.18.12.38.23.58.32 .06.03.13.06.2.09 .07.02.14.05.21.07 .07.02.14.04.22.06 .07.01.14.03.22.04 .15.02.3.04.45.05 .07 0 .15 0 .22 0l.09-.01v0c.08-.01.17-.03.24-.07l.05-.03s.05-.03.1-.07h0c.03-.05.08-.08.13-.12v0c.05-.04.11-.07.17-.08v0c.05-.02.1-.01.15 0 .01 0 .02 0 .03.01v0c.01 0 .02.01.03.02l0 0v0c0 .02 0 .04 0 .07h0c0 .06 0 .12-.01.18v0c-.03.2-.14.38-.3.5l-.01 0v0c-.03.01-.05.03-.08.05 -.03.01-.06.02-.09.04 -.03.01-.06.02-.09.04l-.08.03v0c-.02-.08-.03-.16-.04-.23v0c-.44 0-.87-.01-1.29-.03 -.89-.08-1.516-.31-2.31-.6v0c-.6-.23-1.2-.43-1.81-.6v0c-.48-.15-.97.11-1.12.58 -.09.27-.09.62-.01 1.04 .24 1.282.25 2.29.01 2.77H9.53c-.76.4-1.57.69-2.4.86h-.01l-.1.02 -.14.02H6.88c-.15.02-.3.04-.44.05H6.44c.09-.11.18-.23.26-.35 .11-.21.2-.43.25-.65H6.95c.1-.51.06-1.03-.11-1.51 -.02-.06-.04-.11-.06-.16 -.02-.06-.05-.11-.08-.16l-.07-.14H6.63c-.08-.17-.14-.33-.18-.51H6.44c-.05-.18-.08-.36-.09-.54l-.001 0c-.01-.1-.02-.19-.02-.28l-.01-.14v-.1l0-.04 .01-.15 0-.08 0-.07c0-.09.01-.18.03-.28v0c.08-.56.27-1.09.56-1.57 .19-.33.41-.63.66-.93 .5-.59 1.08-1.12 1.67-1.66 .29-.28.58-.55.87-.83 .14-.14.29-.29.43-.43l.03-.04 .03.04c.05.05.1.13.19.2 .07.07.16.14.27.21V7.12c.17.1.36.19.56.24v0c.21.05.43.09.65.11v0c.24.01.48.01.72 0l-.01-.28V7.19c-.23-.02-.45-.05-.67-.09v0c-.19-.05-.38-.11-.55-.18v0c-.06-.03-.11-.05-.16-.08v0c-.09-.05-.18-.11-.26-.17h0c-.07-.06-.13-.12-.18-.18 -.05-.06-.08-.11-.11-.15 -.03-.05-.04-.08-.06-.11 0-.01-.01-.01-.01-.01l.05-.04 .05-.03v0c.23-.13.48-.21.74-.26v0c.13-.03.26-.04.39-.04Zm.52.484c-.22 0-.39.13-.38.27 0 .14.19.24.41.24 .22-.01.38-.13.37-.27 -.01-.14-.19-.25-.41-.24Zm9.985 2.45l.05.28v0c.01.04-.02.09-.07.11 -.02 0-.03 0-.05 0 -.04-.01-.07 0-.08.03l-.2.51 -.59-.06 -.21.55 -.59-.06 -.21.55 -.59-.06 -.21.55 -.59-.06 -.21.55 -.59-.06 -.19.49h-.001c-.02.03-.06.06-.1.05l-.05-.01c-.04-.01-.26-.03-.27-.06l-.55-1.27Zm-6.02 2.49c.18-.02.3.07.38.24 .01.01.48 1.21.47 1.19v0c.08.14.06.31-.05.43 -.09.09-.28.16-.41.21 -.07.02-.07-.02-.09-.09l-.06-.16 .02-.05v0c.07-.15.11-.3.13-.45v0c.02-.16.01-.31-.01-.46l-.02-.08 -.01-.04 -.02-.05v-.01 0c-.02-.06-.06-.12-.11-.15v0c-.09-.07-.18-.13-.28-.18v0c-.04-.02-.08-.04-.11-.05 -.04-.02-.08-.03-.12-.03v0c-.04-.01-.08-.01-.12-.02l-.02-.01c-.02-.01-.05-.07-.04-.09h-.001c.07-.15.22-.24.38-.25Zm-6.55 1.09v0c0-.01 0-.01 0 0v0c.03-.01.07 0 .1.01 .63.17 1.15.35 1.6.52 -.08 1.032-.73 2.01-1.76 2.77 .08-.75-.03-1.67-.17-2.4 -.08-.4-.05-.63-.01-.75h0c.03-.1.12-.17.22-.17Zm-7.78.87c1.11-.02 2.49.22 3.28.55l.01.04H6.19c.03.15.08.3.13.44 -.68.34-2.09.69-3.36.71 -1.15.01-2.31-.25-2.332-.86v0c-.01-.14.04-.27.14-.36 .31-.34 1.089-.532 2.108-.55Zm9.75 1.12c1.51 1.14 1.263 3.37 1.18 3.85l-.22.04c-.43-.98-1.59-1.87-2.266-2.314 .55-.48 1-1.01 1.29-1.59Z"/></svg>