<svg viewBox="0 0 24 24" xmlns="http://www.w3.org/2000/svg"><path d="M21.89 15.256l-3.37-2.03V8.412v0c0-.15-.08-.29-.21-.37L13.46 5.21V1.13l8.42 4.976Zm.63-9.724L13.25.06V.05c-.21-.12-.46-.05-.58.15 -.04.06-.06.13-.06.21v5.05c0 .15.08.28.2.36l4.84 2.82v4.81 0c-.01.14.07.28.2.36l4.21 2.52v0c.19.12.45.05.57-.15 .04-.07.06-.15.06-.23V5.849v-.001c0-.15-.08-.29-.21-.37ZM11.96 23.1l-9.88-5.25V6.13L10.5 1.15v4.08L6.06 8.05v0c-.13.07-.2.21-.2.35v7.15l-.001-.001c-.01.15.08.3.22.37l5.66 2.94v0c.12.06.26.06.38 0l5.49-2.84 3.38 2.03 -9.074 5.01Zm10.13-5.36l-4.21-2.526v0c-.13-.08-.29-.09-.42-.02l-5.51 2.84L6.71 15.3V8.63l4.43-2.83v0c.12-.08.19-.22.19-.36V.39l0-.001c-.01-.24-.19-.43-.43-.43 -.08 0-.15.02-.22.05L1.41 5.47H1.41c-.13.07-.21.21-.21.36v12.21c0 .15.08.29.22.37l10.29 5.47h0c.12.06.27.06.4-.01l9.91-5.48v0c.2-.12.27-.38.16-.58 -.04-.07-.09-.12-.16-.16Z"/></svg>