<svg viewBox="0 0 24 24" xmlns="http://www.w3.org/2000/svg"><path d="M23.99 11.89l0 0c0-.07-.05-.13-.12-.13 -.01-.01-.01-.01-.02-.01h-2.27v-.001c-.07-.01-.13.04-.13.11 -.01 0-.01 0-.01.01v.19 0c-.01.07.05.14.12.14h1.41c.08 0 .08.04.08.14v.02c0 .1 0 .12-.09.12h-2.91v0c-.07 0-.13-.05-.13-.12 -.01-.01-.01-.01-.01-.02v-.83 0c-.01-.07.04-.13.11-.13 0-.01 0-.01.01-.01h3.72v0c.06 0 .12-.05.12-.12 0-.01 0-.01-.01-.02v-.32 0c0-.07-.05-.13-.12-.13 -.01-.01-.01-.01-.02 0H19.1v0c-.07-.01-.13.04-.13.11 -.01 0-.01 0 0 .01v2.05 0c-.01.06.04.12.11.12 0 0 0 0 .01 0h4.616v0c.06 0 .12-.05.12-.12 0-.01 0-.01 0-.02v-1.17m-7.37.55v0c-.06.04-.12.07-.2.08h-.6v0c-.08-.01-.14-.04-.2-.09l-1.13-.72c-.07-.05-.13-.03-.13.06v1.2 0c0 .06-.05.12-.12.12 -.01 0-.01 0-.02 0h-.593v0c-.08 0-.15-.06-.15-.13v-2.06c0-.09.06-.13.14-.13h.63v-.001c.06 0 .13.02.19.06l1.52.99v0c.05.04.13.04.19 0l1.52-1v-.001c.05-.05.12-.07.19-.07h.63v0c.06-.01.12.04.12.11 0 0 0 0-.01.01v2.05 0c0 .06-.05.12-.12.12 -.01 0-.01 0-.02 0h-.6v0c-.08 0-.15-.06-.15-.13v-1.21q0-.13-.13-.07Zm-6.61-1.02c-.05 0-.07.02-.11.06l-.36.46c-.03.04 0 .06.02.06H12c.08 0 .08-.05.08-.11v-.32c0-.11 0-.15-.09-.15H9.83Zm-1.53 1.71h-.77l-.001-.001c-.04 0-.08-.04-.08-.08 -.01-.02 0-.03 0-.04l1.63-2.12v0c.03-.05.08-.08.14-.09h3.51v0c.08 0 .15.08.14.16v2.01 0c0 .06-.05.12-.12.12 -.01 0-.01 0-.02 0h-.593v0c-.07 0-.13-.05-.13-.12 -.01-.01-.01-.01 0-.02v-.3c0-.09 0-.11-.09-.11h-3.1v0c-.06 0-.11.03-.13.08v.02l-.24.29v0c-.06.06-.15.11-.24.12Zm-1.55 0h0c.08-.02.16-.06.21-.13l1.58-2.06c.06-.09.02-.15-.05-.15h-.32 0c-.06 0-.12.03-.15.08L6.4 12.84h0c-.02.03-.01.07.02.09 .01 0 .02 0 .03 0h.27Zm-1.101 0h0c.08-.02.16-.06.21-.13l1.58-2.06c.06-.09.02-.15-.05-.15h-.45l-.001-.001c-.06 0-.12.03-.15.08l-1.64 2.11h0c-.02.03-.01.07.02.09 .01 0 .02 0 .03 0h.4Zm-1.8 0v-.001c-.04 0-.08-.04-.08-.08 -.01-.02 0-.03 0-.04l1.63-2.12v0c.03-.05.08-.08.14-.09h.65c.08 0 .1.06.04.14l-1.59 2.05v0c-.05.07-.13.11-.22.12h-.62Zm-1.51 0h0c-.04 0-.08-.04-.08-.08 -.01-.02 0-.03 0-.04l1.63-2.12H3.9c.03-.05.08-.08.14-.09h.86c.08 0 .1.06.04.14l-1.59 2.05v-.001c-.05.07-.13.11-.22.12H2.3Zm-2.46 0v0c-.04 0-.08-.04-.08-.08 -.01-.02 0-.03 0-.04l1.63-2.12H1.44c.03-.05.08-.08.14-.09H3.5c.08 0 .1.06.04.14l-1.59 2.05 0-.001c-.05.07-.13.11-.22.12H-.16Z"/></svg>