<svg viewBox="0 0 24 24" xmlns="http://www.w3.org/2000/svg"><path d="M19.11 8.97l-3.46 6.05h3.43l3.45-6.05Zm3.933 0l-3.46 6.05h.95l3.45-6.05Zm-10.01.78h1.76l.4 5.27h-1.31l-.03-.58v-.001c.01-.12-.08-.22-.19-.23 -.01-.01-.02-.01-.02-.01h-1.87l.42-.76h1.21c.15 0 .32.02.32-.21l-.21-2.37c0-.15-.13-.23-.23-.08l-2.15 4.18h-.89Zm-9.983 0h1.74l.35 5.27H3.83l-.03-.58h0c0-.13-.11-.23-.23-.23 -.01-.01-.01-.01-.01 0H1.54l.42-.76h1.38c.15 0 .32.02.32-.21l-.16-2.37c0-.15-.13-.23-.23-.08L.82 14.97h-.89Zm3.27 0h1.79l1.16 4.084c.05.12.15.1.17 0l.75-4.084h.782l-.94 5.27h-1.82l-1.14-4.04c-.03-.11-.16-.13-.18 0l-.71 4.03h-.84Z"/></svg>