<svg viewBox="0 0 24 24" xmlns="http://www.w3.org/2000/svg"><path d="M23.21 8.166s-1.01-.476-2.05-.17c-.782.23-1.64.82-2.125 2.05 -.94 2.36-.13 6.484-.45 6.484s-1.32-3.8-2.66-7.76 -2.497-8.061-4.59-7.73c-1.86.29-1.279 4.97-.56 9.36 .65 3.97 1.41 7.698.984 7.698 -.78 0-3.33-10.988-5.94-10.57 -2.613.41.75 12.52.04 12.54 -.59.01-2.006-7.37-4.13-7.04 -1.602.25-.18 6-.11 7.61 .01.4.14 1.15-.47 1.15h-1.2v1.11h1.958c.4-.02.72-.18.881-.57 .544-1.35-.89-7.042-.55-7.09 .23-.03.72 1.7 1.416 3.67 .69 1.96 1.38 3.99 2.696 3.99 2.83 0-.06-11.121.5-11.121 .29 0 1.1 2.26 1.99 4.73 1.08 3.02 2.41 6.38 4.01 6.38 1.91 0 1.29-4.34.69-8.495 -.52-3.6-1.12-6.98-.8-6.98 .72 0 3.44 15.467 6.72 15.467 1.64 0 1.65-3.24 1.65-6.72 0-2.45-.21-4.68 1.33-5.22 .73-.26 1.468.19 1.468.19Z"/></svg>