<svg viewBox="0 0 24 24" xmlns="http://www.w3.org/2000/svg"><path d="M16.467 9.95c.73-2 1.31-3.651 1.72-4.953 .41-1.302.61-2.102.61-2.4 0-.32-.07-.565-.21-.75v0c-.14-.18-.35-.28-.57-.27 -.31 0-.62.25-.94.766 -.32.51-.67 1.33-1.06 2.465l-1.65 4.76Zm-2.192 4.43c-.48-.03-.92-.08-1.35-.15v0c-.42-.08-.82-.19-1.22-.33 .17.35.33.7.47 1.05 .13.35.25.69.33 1.03 .26-.33.54-.63.83-.9v0c.28-.27.59-.51.91-.72ZM12.4 9.386L10.62 4.24c-.47-1.31-.82-2.17-1.08-2.57 -.26-.41-.53-.61-.83-.61l0 0c-.22-.01-.43.09-.56.26 -.15.17-.22.41-.22.7 0 .5.19 1.38.577 2.638 .38 1.25.96 2.89 1.73 4.928v0c.06-.12.15-.21.28-.26v0c.15-.06.32-.09.49-.08 .06 0 .19 0 .39.01 .19.01.52.03.97.08Zm-1.62 7.96c.18 0 .35-.09.51-.26h0c.14-.15.22-.35.23-.56 0-.21-.15-.7-.46-1.46h-.001c-.32-.79-.69-1.54-1.13-2.25 -.33-.55-.66-.97-.98-1.25 -.32-.28-.62-.42-.91-.42 -.23 0-.49.14-.77.43s-.42.56-.42.81c0 .26.13.66.41 1.18 .27.52.64 1.08 1.1 1.68 .48.65.94 1.15 1.36 1.51 .42.36.76.54 1.02.54Zm-4.945-.4c.15.18.36.46.64.82 .726 1 1.396 1.5 2.011 1.5v0c.2 0 .4-.07.56-.2 .16-.14.24-.27.24-.42 0-.17-.11-.44-.33-.83 -.22-.39-.53-.82-.91-1.31 -.44-.56-.81-.97-1.096-1.23 -.3-.26-.53-.39-.7-.39 -.39 0-.74.2-1.064.61 -.33.41-.49.89-.49 1.46 0 .45.11.95.33 1.5 .22.55.55 1.11.98 1.67v-.001c.63.85 1.45 1.54 2.41 2 .96.46 2.02.7 3.19.7 2.14 0 3.93-.8 5.382-2.4 1.44-1.6 2.16-3.61 2.16-6.01 0-.74-.06-1.33-.17-1.76 -.11-.44-.29-.75-.55-.95 -.45-.38-1.33-.71-2.63-1.01H15.8c-1.34-.31-2.71-.45-4.08-.45 -.4 0-.68.06-.84.19 -.17.13-.25.35-.25.67 0 .74.41 1.28 1.25 1.62 .83.33 2.186.5 4.05.5h.67c.15 0 .27.05.37.17 .09.11.15.28.19.52 -.19.17-.58.37-1.154.6 -.59.22-1.03.44-1.34.66v0c-.64.46-1.19 1.04-1.59 1.72 -.41.66-.61 1.29-.61 1.88 0 .36.08.8.25 1.31 .17.51.25.82.25.94v.11l-.04.14c-.49-.04-.87-.32-1.15-.85 -.28-.532-.42-1.25-.42-2.14v-.15 0c-.08.06-.17.12-.26.16v-.001c-.09.03-.18.05-.28.05 -.1 0-.2-.01-.28-.03l0-.001c-.11-.02-.2-.05-.3-.08h0c.05.2.08.41.09.62 0 .4-.16.75-.48 1.04H9.84c-.31.28-.72.44-1.14.43 -.7 0-1.396-.34-2.11-1.02 -.72-.68-1.072-1.34-1.072-1.99 0-.12.01-.23.04-.33H5.56c.02-.1.07-.18.14-.24Zm11.8-6.73c.98.18 1.68.6 2.093 1.25 .4.64.61 1.67.61 3.06 0 2.77-.84 5.03-2.497 6.8 -1.67 1.76-3.8 2.64-6.39 2.64h-.001c-1.02 0-2.03-.19-2.98-.56v0c-.93-.35-1.77-.87-2.48-1.55 -.8-.73-1.39-1.5-1.78-2.3h0c-.39-.77-.6-1.62-.6-2.48 0-.95.2-1.68.61-2.2 .4-.516 1.04-.87 1.928-1.06h0c-.14-.32-.27-.65-.37-.98 -.08-.27-.12-.47-.12-.61 0-.5.26-1 .78-1.52 .52-.516 1.01-.78 1.47-.78 .19 0 .4.03.62.1 .22.07.47.19.75.35 -.85-2.4-1.47-4.25-1.85-5.55 -.39-1.302-.577-2.2-.577-2.695C6.85 1.45 7.02.9 7.37.5c.35-.41.82-.61 1.43-.61C9.83-.11 11.14 2.2 12.72 6.82c.27.79.48 1.4.62 1.83l.51-1.45C15.43 2.62 16.79.34 17.93.34c.56 0 1 .19 1.343.56 .33.379.5.887.5 1.52 0 .484-.19 1.36-.56 2.654 -.37 1.28-.93 2.96-1.68 5.044"/></svg>