<svg viewBox="0 0 24 24" xmlns="http://www.w3.org/2000/svg"><path d="M12.997 10.75v0c-.34-.06-.67-.08-1-.09 -.12 0-.5 0-1 .08 -2.92.43-4.948 2.08-6.21 4.69 -.641 1.33-.36 2.25.8 3.16 .06.05.13.1.2.15 .21.14.42.28.62.41 3.026 1.97 4.13 2.67 4.58 2.88 .18.08.51.24.96.25h.04c.45-.02.77-.17.96-.26 .44-.21 1.55-.907 4.57-2.89 .2-.14.41-.28.62-.42V18.7c.06-.06.13-.11.2-.16 1.157-.92 1.44-1.83.8-3.17 -1.26-2.62-3.29-4.26-6.2-4.695Zm7.25 4.36c.63.77 1.2.83 1.843.38 .85-.6 1.89-2.86 1.9-4.724 -.05-5.12-5.337-8.666-10.65-9.093 -.22-.02-.54-.03-.78.15 -.25.18-.3.45-.12.81 .3.6.7 1.14 1.09 1.7 1.92 2.77 3.56 5.72 5.298 8.6 .44.73.85 1.49 1.39 2.157ZM5.13 12.95c1.73-2.89 3.37-5.84 5.29-8.607 .38-.56.78-1.1 1.09-1.7 .18-.355.13-.63-.12-.812 -.25-.18-.57-.18-.78-.16 -5.31.42-10.6 3.98-10.65 9.09 .01 1.86 1.057 4.128 1.908 4.724 .63.44 1.206.38 1.843-.39 .54-.67.95-1.43 1.39-2.157Z"/></svg>