<svg viewBox="0 0 24 24" xmlns="http://www.w3.org/2000/svg"><path d="M24 8.925h-5.866c-1.59-3.05-3.27-5.41-5.55-5.41 -2.97 0-4.37 2.593-5.717 5.11l-.12.22H-.01v1.5h3.93c1.39 0 1.67.46 1.67.46C4.5 12.49 3.19 14.16 1 14.16H-.03v1.57H1c4.234 0 6.083-3.44 7.56-6.2 1.36-2.55 2.31-4.08 3.99-4.08 1.74 0 3.58 3.8 5.2 7.15 .23.48.47.98.72 1.48 -6.2.19-9.16 1.64-11.56 2.83 -1.76.86-3.15 1.94-5.44 1.94H-.05v1.57H1.46c2.75 0 4.47-.85 6.295-1.76 2.53-1.25 5.398-2.66 12.157-2.66h3.907v-1.58h-2.21v0c-.37.02-.73-.12-.98-.4l-.001 0c-.4-.77-.77-1.55-1.14-2.33l-.52-1.05s.36-.4 1.38-.4h3.57Z"/></svg>