<svg viewBox="0 0 24 24" xmlns="http://www.w3.org/2000/svg"><path d="M12 0v0C5.37 0 0 5.37 0 12v0c0 6.62 5.37 12 12 12v0c6.62 0 12-5.38 12-12v0c0-6.63-5.38-12-12-12Zm-.8 5.3c2.192-.03 4.366 1.13 5.43 3.3 .9 1.85.87 3.61-.1 5.645 -.48.99-.49 1.06-.25 1.57 .21.45.72.77 1.221.77 .45 0 1.15-.59 1.25-1.06 .1-.46-.2-1.12-.61-1.38h0c-.14-.09-.27-.17-.4-.26 -.13-.1.42-.38.74-.38 .68 0 1.24.52 1.375 1.29 .05.33.13.42.44.5 .85.22 1.29 1.45.75 2.11 -.22.27-.23.27-.31.04 -.27-.81-.67-1.12-1.41-1.12 -.32 0-.58.12-1.1.55 -1.01.82-1.87 1.3-2.907 1.63 -1.28.38-2.76.47-4.086.15C9.06 18.21 7 16.54 5.98 14.39 4.7 11.7 5.08 8.93 6.98 7l0-.001c1.1-1.13 2.6-1.76 4.17-1.77Z"/></svg>