<svg viewBox="0 0 24 24" xmlns="http://www.w3.org/2000/svg"><path d="M10.81 0c-.43.01-.85.21-1.2.605l0 0c-.2.21-.36.46-.5.72 -.36.667-.43 1.41-.56 2.143l0-.001c-.25 1.36-.49 2.72-.726 4.08 -.03.16-.1.22-.25.27 -1.77.55-3.54 1.11-5.3 1.68 -.39.125-.78.28-1.12.5 -1.05.66-1.2 1.75-.42 2.71 .346.42.79.71 1.28.93 1.1.49 2.2.97 3.3 1.47 .01.01.03.01.05.01h-.01l1.306.53c0 .02 0 .04 0 .07 -.2 2.03-.39 4.06-.58 6.09 -.04.41-.02.83.13 1.23 .31.87 1.06 1.14 1.88.7 .37-.21.66-.5.93-.82 1.37-1.63 2.74-3.25 4.11-4.872 .11-.14.2-.15.36-.1 .34.11.69.23 1.045.34h0c.02.01.04.02.07.03l.14.04c1.24.41 2.68.77 3.92 1.19 .4.13.62.16 1.04.09 .31-.05.59-.07.82-.24 .6-.33.99-.96.98-1.69 -.01-.43-.16-.82-.35-1.186 -.82-1.56-1.64-3.12-2.47-4.666 -.08-.15-.08-.25.03-.375 1.38-1.62 2.75-3.24 4.13-4.86 .27-.32.51-.66.65-1.06 .3-.88-.09-1.57-1-1.75V3.8c-.42-.07-.84-.05-1.24.06 -1.98.52-3.95 1.04-5.92 1.57 -.18.04-.26.01-.36-.15l-.001-.001c-.8-1.35-1.61-2.69-2.43-4.02l-.001 0c-.19-.31-.41-.6-.66-.85 -.38-.37-.81-.549-1.23-.536Zm.17 3.7V3.69c.07.05.14.12.18.21 .87 1.44 1.74 2.89 2.609 4.33 .07.11.13.16.27.12 1.52-.41 3.05-.82 4.57-1.22 .36-.1.73-.2 1.1-.29v-.001c-.02.07-.05.14-.1.2 -1.26 1.48-2.52 2.96-3.78 4.438 -.11.13-.12.22-.04.37 .93 1.8 1.76 3.3 2.49 4.76l-3.7-1.02c-.54-.18-1.077-.36-1.62-.54 -.17-.06-.25-.03-.36.1 -1.25 1.48-2.51 2.97-3.76 4.45v0c-.05.06-.11.1-.18.13 .03-.38.06-.76.1-1.14 .14-1.58.29-3.144.45-4.72 -.03-.32.11-.41-.33-.55 -1.5-.593-3.35-1.33-4.82-1.91v0c.06-.07.15-.11.24-.14 1.79-.57 3.59-1.14 5.394-1.705 .12-.04.19-.1.21-.24 .01-.15.05-.3.07-.45 .24-1.37.48-2.726.72-4.088 .06-.39.14-.78.21-1.157Z"/></svg>