<svg viewBox="0 0 24 24" xmlns="http://www.w3.org/2000/svg"><path d="M17.195 16.822l4-4.102c2.35-2.42 2.73-7.566 2.8-12.29v0c0-.17-.1-.32-.25-.38L23.744.04c-.16-.07-.33-.03-.44.09l-6.5 6.65 -4.11-4.003C10.274.42 5.12.04.4-.03H.39l0 0c-.22-.01-.4.17-.4.39 -.01.1.04.21.12.28l6.65 6.494 -4.003 4.103C.4 13.65.02 18.8-.05 23.53v0c-.01.21.17.39.39.4 .1 0 .21-.05.28-.13l6.494-6.657 3.93 3.83 .17.16c2.41 2.35 7.56 2.73 12.28 2.8h0v0c.21 0 .39-.18.39-.4 0-.11-.05-.22-.13-.29l-6.66-6.5Zm-.41-9.476c.04.11.05.24.03.34 -.17.96-1.593 2.53-4.31 3.87v0c-.03-.03-.06-.06-.08-.08 1.43-3.16 1.82-5.61 1.17-7.33l3.05 2.984 .12.2Zm-.14 9.44h0c-.12.03-.24.04-.35.03 -.96-.18-2.54-1.6-3.87-4.31h0c.02-.03.05-.05.08-.08l-.01 0c3.15 1.43 5.61 1.83 7.32 1.17l-2.97 3.04M23.535.37v0c.01-.02.03-.02.05-.02 .01 0 .03.02.02.04 -.07 4.65-.44 9.72-2.71 12.05 -1.53 1.56-4.33 1.41-8.283-.38 0-.04.02-.07.02-.11 0-.05-.02-.09-.03-.13 2.83-1.39 4.31-3.04 4.5-4.12 .05-.33-.01-.55-.11-.69l6.5-6.67V.33ZM.35.4V.4C.33.38.33.36.33.35 .33.33.35.31.37.32c4.65.065 9.72.438 12.05 2.7l0 0c1.56 1.52 1.41 4.323-.38 8.28 -.04-.01-.07-.02-.1-.02h-.01c-.05 0-.09.01-.13.02 -1.39-2.83-3.04-4.32-4.12-4.506 -.33-.06-.55.01-.69.1L.31.39Zm11.94 11.563h-.001c0 .18-.15.33-.33.33 -.01 0-.01 0-.01 0h-.01l0 0c-.19-.02-.32-.18-.31-.37 .01-.16.13-.29.29-.31 .17.01.33.14.33.32h0Zm-5.12 4.661H7.17c-.04-.12-.05-.23-.03-.35 .17-.96 1.59-2.54 4.3-3.88 .01.01.01.03.03.05 .01.01.03.01.04.02 -1.44 3.15-1.83 5.61-1.18 7.32l-3.05-2.97M7.27 7.16v0c.11-.04.22-.05.34-.04 .96.17 2.54 1.59 3.87 4.3v0c-.03.02-.06.05-.08.08 -2.167-.99-4.01-1.484-5.5-1.484 -.68 0-1.29.1-1.83.3l2.96-3.05m-6.7 16.25c-.02.01-.04.01-.06.01 -.02-.01-.03-.03-.03-.05 .065-4.654.43-9.725 2.7-12.049 1.52-1.57 4.32-1.42 8.286.37 -.01.03-.02.06-.02.1 0 .04.01.08.02.12 -2.84 1.391-4.32 3.04-4.51 4.11 -.06.32.01.54.1.68L.31 23.48Zm23.14.04c-4.66-.07-9.73-.44-12.05-2.71l-.01-.01c-1.56-1.53-1.42-4.33.38-8.279 .03 0 .06.02.09.02h0c.04 0 .08-.02.12-.03 1.39 2.83 3.03 4.31 4.115 4.51 .08.01.16.02.23.02v-.001c.16 0 .31-.05.45-.14l6.68 6.51c.02.02.01.04.01.05v0c-.01.01-.03.02-.05.02Z"/></svg>