<svg viewBox="0 0 24 24" xmlns="http://www.w3.org/2000/svg"><path d="M3.19 13.23c.02.03.06.06.09.1l.02.02 0 0v-.001c.05.02.11.05.17.06l-.001 0c-.11-.58-.16-1.17-.14-1.76 .02-.8.17-1.47.46-2.06h-.001c.09-.18.2-.36.31-.52 0 0-.18 1.202-.21 1.673h-.001c-.03.62.02 1.25.16 1.86l.07-.05c-.05-.39-.05-.8 0-1.22l0-.001c.06-.59.2-1.17.41-1.73h-.001c.25-.67.57-1.31.97-1.9 -1.99.2-2.42 2.1-2.42 2.1s.01-.35.02-.44c.05-.65.12-.97.2-1.29 -.13.23-.22.48-.28.68 -.14.47-.22.94-.28 1.35h0c-.07.42-.1.85-.1 1.28 0 .38.02.82.17 1.263 .07.2.16.37.27.51Zm1.44-.74c.17-.12.38-.2.62-.27 .42-.12.88-.24 1.46-.38l.19-.05c.47-.12.97-.24 1.43-.42 .28-.11.55-.25.82-.44 .38-.26.72-.58 1.01-.96 .15-.2.23-.35.3-.61l.11-.38s.46.51-.01 1.436c.29-.11.58-.42.798-.79 .18-.32.49-1.46.49-1.46s.56.875-.11 2.01v0c.12-.06.24-.14.35-.23 2.5-2.49.34-3.9-.11-4.24h0c-.31-.22-.64-.4-.99-.53l-.06-.03c-.03-.02-.05-.04-.06-.05l-.33-.35 .56.15c.07.02.15.04.22.06 .61.18 1.08.4 1.47.68 .44.32 2.14 1.75.34 3.83 .55-.2 1.6-.78 1.96-1.28 1.71-2.41-.26-3.808-.17-3.808 .01 0 .04 0 .09.01h0c.02 0 .04 0 .06 0 .03 0 .09-.01.1-.05 .01-.05-.02-.13-.08-.17 -.16-.12-.33-.21-.54-.17 -1.78.27-2.4-.28-2.4-.28s2.48.129 2.56-.28V3.43c-.36-.37-.78-.68-1.23-.92v0c-.7-.38-1.45-.63-2.23-.75 -1.21-.18-2.13.05-2.13.05 .09-.121.57-.67 2.55-.52 .8.06 1.564.31 2.27.669 .18.09.29-.125.29-.23 0-.12.2.37.2.405 .01-.05.09-.31.11-.31 .04 0 .24.603.24.603 0-.03.25-.29.25-.29 .07.34.06.51.04.56 0-.01.26-.18.26-.18s.15.63.41.891c.08.08.23.29.32.52 .19-.133.42-.8.42-.8s.11.35.01.988c0-.01.3-.22.3-.22s.04.44-.15 1.008V4.91c-.02.03-.02.06-.03.09 .16-.1.4-.39.4-.39l-.05.18c-.05.21-.14.62-.33.95V5.73c-.13.21-.23.44-.29.68 .04-.05.09-.09.15-.12 .1-.07.19-.12.29-.16l.23-.09c.39-.15.78-.31 1.17-.48 .81-.359.63-.86.63-.86 -.21.4-.97.81-.97.81s.98-.88.56-1.91c-.12.27-.23.53-.33.79 -.15.35-.32.726-.59 1.05 -.15.16-.29.29-.45.37V5.81c-.04.01-.08.03-.12.04l-.05.01s.17-.29.18-1.07c0-.29.01-.58.01-.83V3.9c0-.14-.01-.27-.01-.395 0-.56.01-.99.13-1.38 -.02-.03-.01-.05-.02-.07 -.03-.05-.05-.1-.08-.16 -.04-.09-.07-.18-.11-.28 -.13-.36-.31-.538-.37-.59 -.04.11-.28.591-.28.591s0-.365-.01-.393c-.07-.52-1.33-.972-1.36-.988l.06.401s-.39-.03-.55-.29c-.04-.06-.09-.09-.13-.125l.09.3 .09.21s-.3-.03-.44-.269c-.04-.06-.08-.121-.12-.19L13.93.27c-.12-.22-.33-.37-.58-.4V-.13c-.2-.03-.4-.05-.61-.07L12.74-.2c-.17-.01-.33-.05-.48-.11l-.08-.04 .04.08c.01.02.02.05.04.09l0 .02 .03.07 .04.17s-.36-.02-.77-.3c-.09-.062-.21-.062-.33-.08l-.04-.01v0c-.12-.01-.23-.02-.34-.02v0c-.34-.01-.66.04-.98.14 .03-.01.07-.01.1-.01l.06 0c.67.01.88.41.88.41s-.61 0-.79.02c-.21.02-.42.05-.62.1v0c-.59.16-1.14.43-1.63.79 -.13.08-.26.17-.39.256 -.23.14-.43.34-.58.57l0 0c-.02.02-.03.04-.04.06 -.02.03-.01.03.01.05h0c.05.02.1.04.16.06l0-.001c.95.22 1.66 1.02 1.78 2l.01.12c.03.3.07.62.05.944H8.87c-.03.81-.35 1.59-.91 2.191 -.59.64-1.33.69-1.32.68 .43-.41.72-.95.87-1.66v0c.05-.28.02-.57-.09-.83L7.42 5.56c-.01.01-.02.03-.02.04 -.1.27-.22.59-.45.85 -.14.15-.32.32-.53.52 -.92.86-2.44 2.317-2.409 4.62 0 .13.02.3.05.42Zm13.967-5.836c-.12.09-.23.19-.35.29 -.21.17-.36.28-.67.39 -.28.09-.49-.13-.49-.13v0c.17-.1.32-.23.44-.39v-.001c-.41.2-.8.44-1.154.71v0c-.15.1-.28.22-.39.35 -.13.15-.21.31-.21.48v0c0-.01.04-.01.05-.01h0c.42-.12.83-.29 1.22-.49l0 0c.6-.32 1.19-.68 1.75-1.08V6.77c.02-.03.06-.04.09-.05l.37-.11 -.23.31v0c-.01.01-.02.02-.03.03 -.75.74-1.52 1.27-2.36 1.62v0c-.17.06-.33.12-.5.17v0c.51-.14 1.02-.31 1.51-.53 .53-.25.91-.49 1.22-.78 .47-.45.81-.99 1-1.58V5.85c.01-.04.01-.07.02-.1l-.12.03c-.13.03-.26.07-.38.13V5.91c-.16.07-.3.17-.43.28 -.16.12-.33.26-.46.383ZM1.57 14.974c.12.2.26.4.4.6l.02.03c-.351-1.24.22-1.99.22-1.99l.14.391c.03.1.09.19.16.3 .14-.28.32-.54.53-.79h0c-.19-.11-.35-.25-.48-.42 -.2-.27-.34-.59-.42-1v0c-.1-.52-.13-1.05-.07-1.57 .01-.18.03-.35.05-.53h0c-.71.79-1.27 1.71-1.63 2.71v0c-.01 0 0 .01 0 .02h0c.24.77.59 1.51 1.03 2.2ZM18.219 3.34v-.001c-.01-.67.11-1.32.36-1.94l.01-.05h-.001c-.1.06-.19.15-.25.25 -.17.242-.3.53-.4.93 -.19.68-.29 1.42-.34 2.308 .19-.21.5-.657.57-1.22 .01-.1.02-.2.02-.31Zm3.36 19.012c-.4-.07-1.24-.36-1.468-.95 -.29.7.3 1.221.75 1.45 .07.04.1.05.18.08 .08.03-.17.49.04.7 .21.21.4.14.48.14 0 0 .36.33.56.11 .05-.06.09-.27.02-.39 -.09-.16-.3-.13-.32-.13 -.41 0-.38-.19-.32-.27 .04-.06.13-.06.2-.06 .01 0 .03 0 .05 0 .09.01.18.01.26.01 .33 0 .72-.04.98-.18 .18-.11.49-.46.47-.7 -.02 0-.83.31-1.96.13Zm2.32-7.785c-.04-.1-.09-.2-.13-.29l-.06-.13c-.03-.05-.05-.1-.07-.14 -.06-.12-.12-.23-.16-.35 -.04-.11-.05-.22-.06-.32l0-.001c-.1-1.18-.82-2.22-1.89-2.72v0c-.05.15-.12.29-.22.41 -.09.12-.15.13-.27.13 -.16 0-.18-.18-.14-.27v0c.1-.17.16-.36.19-.55 .03-.38-.18-.79-.44-1.07 -.24-.27-.65-.57-.98-.67 -.08.3.01.81.12 1.109 .13.36.54 1.06.44 1.49 0 0-.03.27-.31.44 -.16.09-.22.05-.22.05 .29-.63.29-.891-.03-1.49 -.25-.45-.36-.9-.27-1.4 0-.02.01-.04.01-.06v0c-.03.06-.06.13-.09.19 -.25.43-.49.66-.63 1.12 -.15.5.01 1.05.32 1.59v0c-.29-.19-.49-.48-.56-.81h0c-.53.29-.98.68-1.34 1.16 -.08.1-.18.19-.26.26v-.001c-.57.51-1.25.89-1.98 1.09 -.5.14-1.01.26-1.51.38l-.14.03c-.69.16-1.41.35-2.1.657 -.8.35-1.42.75-1.92 1.23H9.19c-.73.68-1.2 1.6-1.33 2.593 -.12.78-.06 1.59.18 2.49 0 .03-1.03-.95-.5-3.75v0c-.08-.01-.16-.01-.24-.01l-.07 0C5.29 17 4.5 18.07 4.5 18.07s.12-1.19 1.987-1.58c.14-.03 1.31-.3 1.35-.31 .15-.32.34-.62.55-.89l-.17.02c-.32.05-.65.1-.98.14l-.26.03c-.577.07-1.18.14-1.74.31 -.6.17-1.06.42-1.43.76 -.39.36-.67.83-.86 1.44l-.03.08c-.02.05-.03.1-.05.15 -.02.05-.03.11.01.22 .34.92.94 1.72 1.77 2.37h0c.64.5 1.37.9 2.14 1.18 .02 0 .07.02.1.06l.34.33 -.55-.13c-.07-.02-.13-.03-.2-.05 -1.12-.31-2.085-.83-2.885-1.532 -.28-.1-1.67-.8-2.26-1.936l-.1-.19s.75.74 1.288.85h0c-.24-.39-.43-.8-.57-1.22l-.001-.001c-.02-.04-.03-.07-.05-.09 -.91-1.14-1.56-2.28-1.99-3.5L-.1 14.58c-.04-.09-.06-.18-.09-.27 -.05.35-.064.71-.064 1.05 0 .11.95 2.64.95 2.64s-.42-.47-.768-1.06c-.001 0-.07-.2-.07-.22 .14.89.43 1.74.86 2.52 1.167 2.14 2.95 3.55 5.47 4.212h0c.63.16 1.29.25 1.95.25l7.855 0c.36 0 .65-.03.91-.07l.04-.01v0c.09-.03.18-.04.28-.04 .1 0 .21.01.34.04l.06.01c.11.02.22.05.33.05 1.32.01 1.13-.79 1.13-.79 -.06-.21-.3-.36-.56-.42v0c-.1-.03-.19-.04-.28-.04 -.18 0-.37.04-.56.12l-.29.12 -.18.07v-.001c-.04.01-.07.02-.1.03v0c-.06.02-.12.03-.17.03 -.2 0-.21-.2-.22-.32h0c-.01-.15.05-.29.16-.38 .09-.08.19-.16.3-.23 .19-.14.39-.27.55-.45v0c.18-.2.3-.44.36-.7v0c.03-.16.01-.33-.05-.47 -.02-.04-.03-.05-.04-.05V20.2c-.13-.04-.25-.08-.37-.12 -.49-.14-.85-.35-1.13-.65v0c-.18-.21-.33-.43-.44-.68l-.001 0c-.18-.36-.32-.72-.42-1.1 -.16-.61-.54-1.09-1.15-1.48v0c-.48-.3-1.01-.48-1.56-.53 -.14-.02-.28-.03-.43-.03 -.04-.01-.13-.02-.21-.03 -.08-.01-.16-.03-.19-.03l-.21-.02s.05-.08.48-.25c.08-.04.16-.04.25-.06 .2-.04.4-.06.59-.06 .45 0 .891.1 1.28.31 .49.26.88.65 1.2 1.21 .17.3.3.62.41.99 .02.07.03.14.05.21 .03.13.07.27.12.39 .3.75.87 1.19 1.69 1.31 .21.03.42.04.62.04v0c.36 0 .72-.06 1.07-.17 .45-.15.8-.39 1.06-.72v0c.11-.15.2-.32.25-.5l.03-.13 .2.04c.04.01.08.02.13.03v0c.03 0 .06 0 .09 0 .09 0 .18-.03.28-.05l.01-.01c.07-.02.15-.02.22-.03l.06-.01c.07 0 .13.04.15.09 .03.05.08.08.17.1h-.001c.02 0 .04 0 .07 0 .22 0 .47-.21.47-.42 0-.08-.02-.13-.07-.17 -.05-.03-.09-.06-.14-.09l-.23-.15 .15-.12h0c.04-.04.09-.06.14-.06 .04 0 .08.01.12.02 0 0-.2-1.01-1.53-.72 0 0-.22.08-.33.13l-.06.02V16.7c-.04.01-.07.01-.11.01v0c-.06-.01-.12-.02-.17-.05 -.47-.24-.93-.14-1.01-.14h0c-.19 0-.37-.02-.54-.06v0c-.05-.01-.09-.04-.12-.07l-.09-.1v-.001c-.41.02-.81-.05-1.19-.2 -.44-.19-.79-.47-1-.91v0c-.11-.22-.16-.45-.15-.69l.02.06c.08.24.2.47.37.67 .3.37.7.63 1.15.81 .24.09.49.16.76.21 0 0 .95.03 1.38-.32 .32-.18.61-.27.91-.27h.06c1.02-.01 1.11-.5 1.11-.5s.11.07.28.05v0c.33-.04.58-.3.6-.63l-.34-.31 -.08-.07 -.14-.11 .09-.11v0c.05-.07.12-.1.2-.1 .04 0 .09.01.13.03 .06.03.11.07.16.11l.05.04 .06.05v0c0-.09-.01-.19-.04-.27Zm-1.27-.28c-.04.1-.09.12-.2.09v0c-.06-.02-.13-.02-.19-.02 -.12 0-.23.02-.34.02 -.28 0-.55-.05-.77-.23 -.32-.26-.38-.56-.18-.95l0 .03v0c0 .24.13.47.34.61 .18.12.38.17.59.19 .17.02.33.05.48.14l.04.02h0c0-.01 0-.01 0-.01 -.03-.05-.04-.19-.03-.25h-.001c.02-.1.02-.2 0-.3v0c-.05.12-.14.23-.25.3v0c-.02.01-.04.02-.06.02v0c-.23-.05-.45-.13-.66-.24 -.19-.11-.29-.27-.24-.484l0 0c.01-.07-.01-.15-.06-.19 -.03-.03-.05-.05-.07-.08 .05-.06.1-.1.15-.15 .05-.04.1-.08.15-.11 .43-.25 1.01-.07 1.2.38 .04.11.07.24.08.36 .02.25-.02.51-.1.75Zm-20.67 2.92c-.02-.24-.04-.48-.05-.76v0c0-.03-.01-.05-.03-.07 -.63-.91-1.089-1.7-1.446-2.48H.43c-.07-.13-.12-.27-.17-.4l0-.001c.22 1.35.8 2.63 1.68 3.69v-.01Zm18.991 4.1c.17.11.39.2.73.28 .34.08.65.125.96.125 .18 0 .33-.02.47-.06v-.001c.3-.09.53-.33.59-.64v0c.05-.24.09-.48.12-.72v0c.05-.48-.08-.95-.38-1.33 -.04.03-.07.06-.11.08l-.001 0c-.07.04-.13.08-.2.12v0c-.1.04-.19.07-.3.07v0c-.1-.01-.2-.03-.29-.08h-.001c-.15-.08-.31-.11-.47-.11 -.07 0-.14 0-.21.01 -.03 0-.04 0-.06.04 -.26.53-.69.9-1.3 1.154l-.02 0 -.01.01v0c-.04.14-.04.3-.01.45 .05.21.18.39.4.53ZM14.97 9.47c-.516.52-1.141.95-1.97 1.36 -.52.25-1.1.44-1.83.58 -.42.08-.83.15-1.25.23l-.09.01 -1.06.2c-.93.17-1.92.38-2.872.71 -.7.23-1.23.48-1.68.77 -.45.29-.75.59-.97.94H3.24c-.06.09-.11.19-.15.29h0c-.03.05-.05.1-.08.15l-.001 0c-.02.04-.05.08-.08.11 -.484.47-.69 1.064-.613 1.75 .04.41.17.82.395 1.23 .12-.85.57-1.5 1.32-1.92 .41-.24.86-.41 1.383-.52 .52-.12 1.06-.22 1.561-.31l.3-.06c.516-.1 1.05-.19 1.55-.35 .12-.04.23-.08.34-.13 .14-.06.27-.12.391-.21 .14-.11.28-.2.44-.3 -.66-.02-1.76-.02-2.11-.02 -.77-.01-1.3.06-1.97.31 -.694.26-2.68 1.27-2.68 1.27s.98-1.06 2.83-1.85v0c.93-.37 1.92-.55 2.92-.53 .27 0 .56.01.87.03 .51.03 1.02.07 1.53.11l.01 0c.02 0 .05-.01.07-.02v0c.51-.15 1.04-.26 1.57-.33 .17-.03.35-.07.52-.1 -.04-.02-.07-.02-.11-.03h-.001c-.05-.02-.08-.03-.12-.05l-.09-.04 -.35-.24 1.29.02c.27 0 3.03-.45 4.21-3.73 .07-.22.16-.44.22-.68v0c-.82.52-1.72.88-2.67 1.06v0c-.38.07-.76.11-1.14.12Zm4.78-1.88Zm1.7 5.62v0c-.01.14.12.27.26.27s.27-.13.27-.27c0-.01 0-.01 0-.01v0c-.01-.15-.13-.27-.28-.27 -.15 0-.27.12-.27.26Z"/></svg>