<svg viewBox="0 0 24 24" xmlns="http://www.w3.org/2000/svg"><path d="M8.932 20.806c-.37 0-.74 0-1.109 0 -.35-.01-.59-.21-.63-.5l-.001-.001c-.03-.33.2-.61.53-.64 .79-.07 1.58-.07 2.372-.01v0c.3.01.53.26.52.57 -.01.01-.01.02-.01.03 -.03.32-.26.52-.62.54ZM1.79 8.345c-.4 0-.79 0-1.18 0 -.33-.01-.58-.22-.62-.52 -.04-.3.14-.55.499-.62 .19-.04.388-.05.58-.04L1.07 7.16c.53-.01 1.06-.01 1.59 0 .16 0 .32.01.48.05 .28.07.44.31.41.61 -.04.29-.22.47-.52.48 -.43.01-.85 0-1.28 0Zm7.58 8.417h-5.09v-.001c-.11 0-.22 0-.33-.01 -.3-.04-.48-.21-.508-.51 -.03-.3.11-.51.391-.61 .17-.07.36-.06.54-.06 3.34 0 6.69 0 10.04-.01 1.17-.01 2.18-.44 2.99-1.3 .69-.74 1.05-1.63 1.16-2.635 .08-.79-.03-1.513-.52-2.16 -.55-.718-1.28-1.08-2.17-1.09 -3.17-.02-6.33-.01-9.487-.01 -.34 0-.673-.03-1.01-.06 -.29-.03-.45-.21-.47-.5 -.03-.32.14-.55.42-.6v0c.09-.02.19-.02.29-.02H15.79c1.71 0 3.18 1.03 3.72 2.654 .38 1.14.24 2.3-.19 3.41 -.83 2.135-2.77 3.44-5.055 3.45 -1.66 0-3.31 0-4.96 0Zm2.9-13.568c1.53-.001 3.06-.01 4.59-.001 2.93.01 5.62 1.892 6.65 4.62 .44 1.18.53 2.4.41 3.657 -.19 1.84-.74 3.55-1.78 5.084 -1.61 2.36-3.88 3.68-6.68 4.11 -.95.14-1.91.13-2.86.13 -.4 0-.61-.19-.64-.51 -.03-.36.19-.63.58-.65 .43-.03.87-.01 1.3-.02 2.64-.08 4.92-.99 6.74-2.94 1.26-1.37 1.91-3.04 2.13-4.878 .15-1.28.13-2.55-.37-3.76 -.78-1.85-2.16-2.99-4.07-3.51 -.74-.21-1.5-.25-2.26-.25 -2.84-.02-5.68-.01-8.52-.01 -.12 0-.24 0-.359-.01v0c-.29-.03-.51-.26-.52-.54V3.71c-.01-.28.18-.51.45-.56 .13-.02.26-.03.39-.02h4.76Z"/></svg>