<svg viewBox="0 0 24 24" xmlns="http://www.w3.org/2000/svg"><path d="M9.71 2.13v0c-.56-.57-1.46-.58-2.03-.03 -.01 0-.02.01-.03.02h-.01v-.001c-.28.27-.43.65-.43 1.04 0 .41.16.77.42 1.03l0 0c.25.26.61.42 1.01.42s.76-.17 1.02-.43l0-.01c.26-.262.42-.629.42-1.04 0-.41-.16-.78-.43-1.05h-.01ZM8.68 22.28c.4 0 .76-.17 1.02-.43l0-.01c.26-.27.42-.64.42-1.04 0-.41-.16-.78-.43-1.05h-.01v-.001c-.27-.28-.65-.44-1.03-.44v0c-.39-.01-.76.15-1.02.43h-.01c-.26.26-.43.63-.43 1.04 0 .4.16.77.42 1.03l0 0c.258.26.61.42 1.02.42Zm7.89-4.462c.35-.1.68-.33.88-.69l.02-.06v0c.17-.33.21-.71.11-1.07h0c-.1-.38-.34-.7-.68-.9l-.03-.02v-.001c-.33-.19-.72-.24-1.08-.14 -.36.09-.69.33-.89.68 -.2.34-.25.75-.15 1.11 .09.36.33.69.67.89h0c.34.2.73.23 1.1.14Zm-6.41-7.35v0c-.4-.4-.93-.63-1.49-.63 -.58 0-1.11.24-1.49.62 -.38.38-.62.91-.62 1.5s.23 1.12.61 1.51h-.001c.8.81 2.12.83 2.94.02 0-.01.01-.02.02-.03 .37-.39.61-.923.61-1.52 0-.6-.24-1.13-.62-1.51Zm-.84-2.51c.843.14 1.6.55 2.17 1.14h0c.09.09.18.19.26.29l1.44-.86v0c-.2-.59-.21-1.22-.05-1.81v0c.21-.81.73-1.51 1.45-1.93l.02-.02v0c.7-.42 1.55-.53 2.34-.31 .77.21 1.46.72 1.89 1.48v0c.43.75.51 1.62.31 2.4v0c-.21.81-.74 1.5-1.46 1.92l-.2.11h-.02v-.001c-.68.32-1.44.39-2.16.2v0c-.59-.17-1.12-.49-1.52-.95l-1.45.84v0c.34.92.34 1.94 0 2.87l1.44.84c.41-.47.93-.79 1.51-.95v0c.8-.23 1.65-.11 2.37.31l.04.02v0 -.001c.69.42 1.2 1.11 1.4 1.9v0c.21.81.1 1.67-.32 2.4l-.03.05 -.01-.01v0c-.42.7-1.09 1.21-1.87 1.436v0c-.81.21-1.66.1-2.38-.32V19h0c-.73-.43-1.25-1.12-1.46-1.93l0 0c-.16-.6-.15-1.23.04-1.81l-1.45-.85h-.001c-.09.1-.18.2-.27.29l-.01 0 -.001 0c-.59.6-1.35 1-2.18 1.13v1.69 0c.59.12 1.13.42 1.56.86l0 0c.56.57.91 1.36.91 2.24 0 .87-.35 1.66-.92 2.23l-.01 0v0c-.59.59-1.38.92-2.21.93h0c-.84-.01-1.63-.34-2.21-.93h-.01v-.01l0-.001c-.59-.6-.92-1.41-.92-2.24 0-.875.35-1.68.91-2.25v-.01h0 0c.42-.44.96-.74 1.55-.87v-1.7 0c-.83-.14-1.6-.54-2.18-1.138l-.01-.01v0c-.76-.77-1.18-1.8-1.173-2.88 0-1.13.45-2.14 1.173-2.872h0v0c.58-.61 1.34-1.01 2.17-1.15v-1.7H7.78c-.6-.14-1.14-.44-1.56-.87h-.01v-.01l0 0c-.59-.6-.92-1.41-.92-2.25 0-.871.35-1.669.91-2.25l0-.01L6.2.62c.57-.6 1.37-.94 2.2-.94 .86 0 1.64.355 2.21.932v0h0c.56.574.91 1.37.91 2.24 0 .87-.35 1.66-.92 2.24l-.01 0v0c-.43.43-.97.73-1.56.86v1.69Zm8.12-1.13l-.02-.02V6.81c-.2-.33-.51-.57-.87-.67V6.14c-.38-.11-.78-.05-1.11.14h0c-.35.2-.58.52-.68.89 -.1.36-.06.76.14 1.11l0 0c.2.34.51.57.87.673 .35.1.75.05 1.09-.15l.01-.01v0c.32-.2.56-.52.657-.89l0 0c.1-.38.05-.78-.15-1.12"/></svg>