<svg viewBox="0 0 24 24" xmlns="http://www.w3.org/2000/svg"><path d="M18.54.54H5.45L-.01 9.268l2.182 14.18h3.88l-.28-3.28h1.9l.27 3.27h8.04l.27-3.28h1.9l-.28 3.27h3.88l2.18-14.19L18.47.51Zm0 17.455H5.45L4.35 9.26l2.18-4.37h3.5l-.24 1.63h4.36l-.24-1.64h3.5l2.18 4.364 -1.1 8.727Zm-3-6.955c.3 0 .54.9.54 2.029 0 1.12-.25 2.029-.55 2.029 -.31 0-.55-.91-.55-2.029 0-1.12.24-2.029.54-2.029Zm-6.89.17c.3 0 .54.9.54 2.029 0 1.12-.25 2.029-.55 2.029 -.31 0-.55-.91-.55-2.029 -.001-1.13.24-2.029.54-2.029Z"/></svg>