<svg viewBox="0 0 24 24" xmlns="http://www.w3.org/2000/svg"><path d="M4.006 17.29c-.25.16-.54.36-.62.44 -.15.14-.33.45-.46.64 -.129.18-.49.26-.69.16 -.2-.11-.12-.08.12-.15 .16-.05.88-.65 1.4-1.11h.23Zm2.43-5.4c-.23-.02-.45-.01-.59.04 -.43.14-1.36.69-1.5 1.03 -.12.27-.25.51-.27.81v0c-.02.03-.04.08-.05.12l2.402-2.02Zm17.41 1.71s-.31-.32-.58-.44c-.27-.13-.26-.25-.42-.26h0c-.24-.03-.48-.09-.7-.18 -.24-.11-.93-.39-1.218-.55v0c-.2-.11-.39-.22-.57-.35 -.08-.07-.22-.06-.47-.02 0 0-.73.16-.98.28 -.14.06-.38.19-.58.3l.07.16c.08-.07.17-.13.28-.17 .33-.15.65-.29 1.03-.31 .375-.03.42-.06.42-.06s.17-.03.375.08c.2.1 1.39.71 1.56.77 .17.06.44.18.63.33 .18.14.33.13.33.13s.13.14.33.28c.2.13.26.2.38.22 .12.02.36.15.05-.29Zm-8.087 5.291c-.27-.1-.62-.32-.657-.39 -.04-.07-.16-.12-.16-.12s-.359-.43-.58-.84c0 0-.05-.11-.11-.26h-.26c.19.23.43.56.66.86 .25.32.11.35.19.35s.02.05.09.12c.06.06.42.28.52.34 .09.06.48.2.53.16 .05-.04.08-.18.08-.18s-.07.02-.34-.07Zm-2.43-5.22v0c.02-.03.03-.06.05-.08 .19-.3.42-.53.54-.78 .04.01.08.02.12.02 .01.25.12.45.21.61 .06.11.2.24.36.36h0c-.09.01-.17.03-.25.05 0 0-1.09.22-1.29.32 -.21.1-.37.24-.5.2 -.13-.05.21-.16.5-.39h-.001c.11-.09.19-.21.21-.34m.73-1.85H14c-.1.01-.19.03-.28.07v0c-.1-.14-.23-.25-.37-.34 .04-.11.1-.24.18-.37 .13-.19.26-.19.3-.04 .02.08.09.41.15.66m2 1.23c.13.01.13.05.26.25s.16.46.06.57c-.1.1-.22.13-.51-.26 -.29-.39-.01-.59.16-.57M8.42 10.3l0-.001c-.24.14-.47.29-.69.45l7.131-5.98h.08l3.24 7.59h-.001c-.11.05-.21.11-.31.18 0 0-.11 0-.15.05l-.02-.01c-.07-.04-.5-.46-.5-.46 -.22-.19-.58-.58-.81-.77 -.23-.19-1.15-.48-1.53-.45 -.36.03-.53.26-.62.49h0c-.07-.13-.15-.25-.24-.37l-.3-.35s-.25 0-.49.16c-.15.09-.36.31-.49.47v0c-.1-.01-.19.02-.26.07 -.18.14-1.17.84-1.205 1.01 -.03.1-.07.18-.12.22v0c-.12-.11-.28-.14-.42-.08l-.04.01c-.03-.49-.1-1.75-.125-1.88 -.04-.16-.12-.29-.26-.22 -.14.06-.26.25-.26.45s.08.3.1.38c.02.06.04 1.06.09 1.44 -.18.09-.34.21-.39.36 -.1.28-.08.38-.16.46v0c-.02.01-.03.02-.05.03 -.06-.06-.125-.11-.18-.17 -.03-.13-.04-.26.07-.33 .13-.09.13-.61 0-.657l-.14-.06s.24-.9.18-1.41c-.06-.51-.11-1.05-.22-1.13 -.11-.08-.34-.04-.34-.04s-.31.17-.7.4m2.85 4.88c.13 0 .22.14.22.14s-.02.25.17.3c.18.05.69-.19.81-.3 .12-.11.36.16.46.38 .1.22.67 1.17.87 1.4 .05.05.1.12.16.19H3.54c.25-.18.52-.36.56-.41 .06-.1 1.18-1.22 1.3-1.436H5.4c.08-.04.15-.1.21-.16v0c.06-.01.12-.02.18-.04 .36-.15.93-.61 1.21-1.01v0c.15-.22.28-.45.38-.69 .15-.12.27-.21.31-.21 .13-.03.34-.1.34.13 0 .22.22.72.42 1.01 .2.29.46.53.46.53s-.02.12.12.13c.13.01.25-.03.28.04 .06.16.34.04.48-.08 .13-.13.18.08.375-.04h-.001c.17-.11.27-.3.26-.5v0c-.01-.09-.05-.18-.12-.23l.01-.02s.16.01.32-.04h0c-.02.09-.02.18 0 .28 .04.33.26.55.4.55m-7.1 1.54c-.09.08-.37.33-.677.6H-.38L3.61 13.74c-.09.36-.07.88.24 1.54 0 0 .24.14.61.1 .08-.01.2-.02.33-.03 -.33.42-.73.95-.89 1.11m13.78-3.9c.05-.05.15-.17.3-.3l2.05 4.8h-6.12 -.001c-.11-.24-.21-.48-.32-.72 -.19-.42-.81-1.64-1.08-1.7v0c-.28-.07-.57 0-.79.17 -.19.16-.27.1-.37.04 -.1-.07.01-.23-.04-.46v0c-.03-.12-.07-.23-.12-.33h-.001c.06-.01.12-.06.14-.12 .05-.15.04-.22.22-.19 .02 0 .07 0 .12 0v0c-.03.03-.04.07-.05.11 -.01.15.11.42.29.48 .17.06.92.39 1.08.23 .15-.16.85-.54.98-.61 .125-.07.35-.12.43-.1 .07.01.24.6.51 1.09 .27.49.23.7.41.63 .18-.07.17.13.34.13 .16-.01.19.11.29.29 .09.18.19.41.43.45 .23.03 1.18.28 1.29.22 .11-.06.11-.21-.16-.27 -.28-.06-.92-.07-1.07-.17 -.15-.1-.18-.63-.33-.69 -.15-.06-.38-.14-.41-.2 -.03-.06-.57-1.01-.77-1.52 .27.11.69.28.95.36 .375.12 1.01.32 1.28.32 .17 0 .23-.06.26-.11v0c.01.03.02.06.04.1 .05.09.13.16.13.16s-.03.05.05.09c.08.04.63.12.83.3 .2.18.48.54.51.88 .02.33.24.69.34.71 .1.01.22 0 .12-.46 -.11-.46-.27-.82-.53-1.02 -.26-.21-.92-.53-1-.57 -.08-.04-.19-.15-.23-.15 -.04 0-.03-.04-.1-.27h0c-.02-.05-.03-.09-.04-.14 .01-.05.08-.22.1-.45 .02-.27-.1-.86-.2-1.01 0 0-.02-.1-.02-.18 .03.01.06.01.09-.01m-11.31-1v0c-.07-.01-.13-.02-.19-.02l.76-.65c-.12.16-.55.62-.55.62l-.03.04m2.44 1.91c.09.09.16.31.24.42 -.06.17-.08.26.09.31 .2.06.375-.03.375-.03s.02.02.06.06c-.17.09-.33.2-.38.27 -.08.1-.18.05-.18.05s-.33-.54-.46-1.04v0c-.02-.06-.04-.12-.06-.17 .1.02.2.02.28.09M8.53 9.6c.12-.07.22-.04.2.16 -.03.2-.16 1.01-.18 1.32 -.02.3.01.93.01.93s-.17.11-.15.24c-.05-.01-.09-.02-.11-.02 -.06-.02.1-.55-.1-.69 -.2-.14-.58.01-.71.08 -.11.05-.32.09-.39.1h0c-.03-.11-.1-.2-.19-.25 -.1-.05-.34-.12-.6-.16l.42-.46s.32-.03.55-.19c.22-.16 1.09-1.04 1.21-1.1m-1.14 3.05c-.1.04-.19.12-.29.19v0c0-.05 0-.09-.02-.13H7.04c-.03-.09-.04-.17-.03-.25 .06.04.2.12.32.18"/></svg>