<svg viewBox="0 0 24 24" xmlns="http://www.w3.org/2000/svg"><path d="M19.5 14.625c0 .99-.53 1.48-1.5 1.5H6c-.976-.02-1.5-.51-1.5-1.5 0-1 .524-1.49 1.5-1.5h12c.97.01 1.5.5 1.5 1.5m-1.5 2.25H6c-.976.01-1.5.5-1.5 1.5 0 .99.524 1.48 1.5 1.5h12c.97-.02 1.5-.51 1.5-1.5 0-1-.53-1.49-1.5-1.5m3.75-8.25v-.01c-.98.01-1.5.5-1.5 1.49v8.25c0 .99.52 1.48 1.5 1.5v-.01c1.46-.06 2.25-1.52 2.25-4.5v-3.75c0-1.99-.79-2.97-2.25-3m-19.5-.01C.786 8.61 0 9.59 0 11.58v3.75c0 2.984.78 4.446 2.25 4.49v0c.976-.02 1.5-.51 1.5-1.5v-8.25c0-1-.524-1.49-1.5-1.5m19.5-.75c0-2.49-1.31-3.705-3.75-3.748v-.01H6v0C3.56 4.1 2.25 5.32 2.25 7.81v0c1.464.02 2.25.75 2.25 2.24 0 1.49.78 2.22 2.25 2.24v0h10.5v-.01c1.46-.03 2.25-.76 2.25-2.25 0-1.5.78-2.23 2.25-2.25Z"/></svg>