<svg viewBox="0 0 24 24" xmlns="http://www.w3.org/2000/svg"><path d="M8.033 16.459l-.59 1.29h.14l.15-.35h.72l.15.34h.14l-.59-1.3h-.14Zm-.25.83l.31-.7 .31.69h-.62Zm1.15-.52v1.32h.13v-.54l0 0c.08.12.22.19.36.19 .27 0 .48-.2.48-.5v0c.01-.26-.19-.48-.45-.5 -.02-.01-.03-.01-.04-.01v0c-.16-.01-.3.07-.38.2v-.2h-.13Zm.49.1c.2 0 .36.15.36.37s-.16.37-.37.37 -.37-.16-.37-.38c0-.23.15-.38.36-.38Zm1.487.86v-.61c0-.25-.15-.38-.4-.38v-.001c-.15-.01-.29.04-.4.13l.05.09h0c.09-.08.2-.12.32-.12 .18 0 .27.09.27.25v.05h-.31c-.28 0-.38.125-.38.27 0 .16.13.28.35.28 .16 0 .27-.07.33-.16v.15h.125Zm-.13-.3c-.06.12-.17.19-.31.19 -.16 0-.25-.07-.25-.19 0-.1.06-.18.25-.18h.3v.15Zm.52-.2c0 .22.15.37.36.37v0c.11 0 .21-.05.28-.15l.09.06c-.08.125-.22.19-.38.19 -.29 0-.5-.21-.5-.5 0-.29.21-.5.5-.5 .16 0 .3.06.38.19l-.1.06v0c-.07-.1-.17-.15-.29-.15 -.22 0-.37.15-.37.37Zm1.12-.89v.56c.07-.12.19-.18.36-.18 .23 0 .39.13.39.41v.56h-.13v-.55c0-.21-.11-.31-.3-.31 -.21 0-.34.13-.34.35v.51h-.13v-1.37h.13Zm1.968.88c0-.3-.2-.5-.47-.5 -.28 0-.48.2-.48.49 0 .28.2.49.51.49v0c.14 0 .27-.06.37-.16l-.08-.09h0c-.08.08-.19.13-.3.12 -.22 0-.37-.14-.39-.34h.81l0-.04Zm-.82-.06v0c0-.19.16-.33.34-.33 .19 0 .32.13.34.32h-.69Zm1.72-.75v.78l.75-.78h.15l-.56.58 .59.7h-.17l-.53-.61 -.27.26v.34h-.14v-1.3h.13Zm1.29 1.38l.04-.1 -.44-.97h.13l.36.82 .36-.83h.13l-.49 1.08c-.08.19-.19.25-.33.25v0c-.09 0-.18-.03-.24-.09l.06-.1v0c.04.04.11.07.17.07 .08 0 .14-.04.2-.17Zm.92-1.47v1.36h-.14V16.3h.13Zm.36.39h.13v.97h-.13v-.97Zm.06-.22v0c-.06 0-.1-.05-.1-.1s.04-.1.09-.1v0c.05-.01.09.04.09.09 0 .05-.05.09-.1.09 -.01 0-.01 0-.01 0Zm.55.21v.18c.07-.12.2-.19.36-.19 .23 0 .39.13.39.41v.56h-.14v-.55c0-.21-.11-.31-.3-.31 -.21 0-.34.13-.34.35v.51h-.13v-.97h.125Zm-16.44-1.37c-1.83-.01-1.97-.02-2.03-.06 -.09-.06-.09-.14-.01-.31 .22-.45.78-.76 1.67-.95 .57-.12.917-.26 1.23-.49 .37-.29.41-.54.12-.69l-.001 0c-.35-.2-.65-.46-.87-.79 -.3-.45-.5-1.17-.5-1.78 0-.33.16-.94.36-1.33 .28-.57.68-.97 1.23-1.24h0c.39-.19.81-.29 1.25-.3 .08 0 .14-.02.17-.05 .05-.04.05-.06.02-.13 -.04-.12-.21-.266-.38-.33 -.16-.06-.34-.09-.81-.13 -.18-.02-.38-.04-.45-.06h0c-.17-.05-.31-.15-.42-.28 -.06-.09-.07-.13-.07-.26 0-.14.01-.18.09-.34 .09-.17.13-.27.2-.53 .02-.09.03-.11.09-.11 .03 0 .1.03.14.07 .29.23 1.18.53 1.57.53 .24 0 .36-.04.45-.14 .06-.08.07-.1.05-.19h0c-.05-.19-.14-.37-.27-.51 -.14-.14-.43-.29-.694-.36H4.16c-.17-.05-.34-.06-.51-.06 -.35-.01-.38 0-.57.16 -.16.13-.21.12-.39-.09 -.45-.53-.65-1.07-.52-1.37 .04-.1.09-.121.46-.19 .16-.03.49-.1.74-.15 .96-.21 1.49-.27 2.16-.27 .56 0 .585-.01.73-.24 .19-.3.27-.585.27-1.088 0-.41.01-.46.16-.46 .11 0 .27.08.35.17 .16.18.22.43.24 1.01 .01.351.03.5.08.68 .09.36.14.44.54.83 .49.48.64.72.73 1.16 .07.35.03.76-.11 1.08 -.18.39-.58.84-1.04 1.14 -.351.23-.76.42-2.31 1.09 -.3.12-.61.27-.7.31 -.56.28-1.09.81-1.283 1.31 -.06.14-.07.21-.08.44 -.02.43.07.72.34 1.07 .18.24.53.5.79.6 .32.12.77.12 1.154.01 .37-.11.79-.37.74-.45 -.03-.05-.08-.04-.25.04 -.63.29-1.32.34-1.71.11H4.17c-.22-.15-.41-.34-.55-.56 -.23-.39-.3-.94-.18-1.31l-.001 0c.06-.18.17-.35.31-.47 .24-.24.99-.62 2.46-1.26 .86-.38 1.04-.47 1.34-.67h0C8.6 6.44 9.23 5.26 9.22 4c0-.15.01-.27.02-.27 .02 0 .19.21.31.41 .62 1.02.843 2.39.54 3.44 -.29.97-.95 1.74-1.77 2.03v0c-.29.1-.59.15-.88.14v0c-.29 0-.58-.04-.86-.13 -.47-.14-.82-.15-1.19-.05 -.35.09-.52.23-.59.47v0c-.05.17-.02.36.08.51 .08.16.16.21.32.22 .23.01.54-.15.54-.29 0-.04-.07-.18-.16-.33 -.09-.15-.16-.3-.16-.33 0-.09.08-.14.25-.14 .22 0 .36.07.52.28 .15.19.3.3.47.34 .2.05.23.15.13.47 -.18.52-.62 1.13-1.43 1.96h0c-.21.2-.41.42-.6.66 -.23.31-.44.78-.57 1.22 -.09.3-.17.38-.41.41 -.04 0-.952 0-2.028-.01ZM9.67 2.57V2.57c1.63-.64 3.39-.85 5.13-.64 2.63.33 4.89 1.67 6.29 3.72 .49.72.69 1.14.7 1.45 0 .34-.25.53-.62.47v0c-.2-.04-.37-.14-.51-.28l-.001-.001c-.23-.26-.46-.52-.68-.79 -1.31-1.57-1.74-2.01-2.404-2.516v0c-.58-.43-1.2-.78-1.86-1.05 -1.82-.72-3.95-.81-6.106-.266 -.5.12-.48.06.03-.14Zm14.06 10.222c-.36.93-1.23 1.63-2.401 1.94 -.94.24-1.7.24-2.46-.01v-.001c-.53-.19-1.01-.48-1.42-.84 -.22-.21-.3-.23-.3-.1 0 .06.03.12.18.3 .23.28.33.48.31.61 -.02.12-.11.19-.27.21 -.19.02-2.55 0-2.593-.02 -.11-.06.01-.31.2-.45 .14-.11.27-.16.49-.2 .18-.04.24-.08.24-.16 0-.02-.06-.15-.12-.28v0c-.12-.23-.19-.48-.23-.73 -.03-.13-.18-.08-.32.11 -.25.33-.42.85-.53 1.62 -.06.37-.09.46-.18.5 -.05.02-.56.02-2.08.02l-.001-.001c-.7 0-1.39-.01-2.07-.02 -.22-.04-.18-.26.08-.48 .21-.19.7-.42 1.3-.62 .4-.14.45-.18.45-.36 -.01-.29-.24-.58-.88-1.06 -.68-.52-.87-1.516-.43-2.24 .26-.44.73-.782 1.2-.9 .8-.2 1.43.03 1.72.62 .11.22.18.47.16.56 -.03.08-.1.07-.28-.07 -.26-.2-.44-.27-.69-.28 -.26-.01-.42.03-.56.16 -.16.14-.2.24-.2.5 0 .2 0 .24.07.39 .37.79 1.59.95 2.45.3 .27-.21.62-.79.72-1.22 .04-.19.05-.27.04-.53 -.01-.27-.02-.35-.09-.52 -.16-.45-.35-.69-.68-.86 -.51-.26-1.14-.33-1.99-.22 -.73.09-1.5.05-1.95-.09 -.2-.07-.27-.12-.27-.2 0-.07.02-.08.3-.1 .42-.04.89-.15 1.65-.41 .24-.09.55-.19.68-.22 .78-.2 1.609-.26 2.218-.15 .26.04.57.2.81.4 .69.58 1.36 1.78 1.91 3.39 .16.49.32.83.5 1.11 .41.62.95 1.01 1.65 1.15 .08.01.28.03.44.02v0c.34 0 .69-.08 1-.24 .6-.29.97-.74 1.16-1.423 .06-.25.07-.85.01-1.09 -.15-.54-.5-.9-1.04-1.06 -.24-.08-.78-.1-.95-.04v0c-.25.08-.45.27-.54.51 -.05.11-.06.18-.06.4 -.01.23 0 .27.06.4 .17.37.5.54 1.03.548 .26 0 .3.02.27.14 -.03.13-.18.22-.44.26v0c-.34.05-.68.01-.99-.13 -.31-.15-.6-.48-.72-.84v0c-.08-.25-.09-.51-.03-.76l-.001-.001c.07-.27.2-.52.36-.74 .39-.5 1.06-.75 1.77-.68 1 .09 1.779.63 2.12 1.49 .27.69.28 1.79.02 2.48Zm-12.888.57c-.27.18-1.02.26-1.92.22 -.55-.03-.6-.02-.64.11 -.05.14.03.31.23.53 .27.29.29.44.07.56 -.1.05-.11.05-1.54.05 -1.2 0-1.46 0-1.52-.03 -.14-.06-.13-.27.02-.44 .133-.15.17-.17.65-.18 .38-.02.43-.02.46-.06v0c.01-.03.03-.07.03-.1 0-.09-.11-.31-.22-.47 -.18-.26-.21-.35-.21-.61 -.01-.26.02-.32.17-.42 .25-.18.93-.1 1.62.17 .67.26 1.32.37 2.3.37 .5 0 .58 0 .59.03 .01.04-.06.15-.16.22Zm10.19 5c.04.04.03.17-.02.29 -.13.24-.52.7-1.01 1.18 -.85.82-1.6 1.35-2.68 1.88 -1.593.78-3.18 1.16-4.87 1.14h-.001c-.23-.01-.46-.01-.68-.02h-.001c-.82-.07-1.62-.23-2.4-.48 -2.19-.72-4.05-2.16-5.4-4.19 -.375-.57-.52-.9-.54-1.26 -.02-.26.01-.37.12-.54H3.55c.05-.09.14-.16.24-.2 .15-.08.17-.09.39-.09 .5 0 .899.24 1.35.83 .08.11.32.44.53.75 .43.62.75 1.06 1.04 1.41 .25.3.72.77.976.97 .41.33 1.4.86 2.11 1.13 2.32.88 4.7.8 7.06-.25 1.22-.54 2.4-1.37 3.27-2.27 .29-.31.4-.39.45-.35Z"/></svg>