<svg viewBox="0 0 24 24" xmlns="http://www.w3.org/2000/svg"><path d="M4.23 0c-.32-.02-.665.07-.83.457 -.16.37-.29 1.18-.34 2.27l1.22.59c-.02-.74 0-1.43.07-2.066 -.03.29-.06.96 0 2.03 .01.34.04.72.08 1.15 0 .02 0 .04 0 .06l0-.001c.08.8.18 1.61.3 2.412 .05.36.12.75.19 1.16l-.01.01c.01.01.01.01.01.02l.03.16c.03.16.06.32.09.49l.1.55 .05.28 -.001 0c.14.69.29 1.38.45 2.06 .09.38.18.78.28 1.186 .09.38.19.78.3 1.19 .09.36.19.73.3 1.11 0 .01.01.03.01.05l0-.001c.11.39.22.79.34 1.18l.04.17c.07.26.15.53.242.8v0c-.1-.05-.2-.09-.3-.14l-.19-.66c-.02-.08-.05-.15-.07-.23l-.01-.01 -.01-.01c-.09-.3-.17-.61-.26-.92 -.03-.09-.05-.18-.07-.27l-.32-1.18c-.1-.39-.2-.77-.29-1.154 -.1-.39-.19-.78-.28-1.18 -.1-.41-.19-.8-.27-1.21 -.09-.4-.17-.798-.24-1.2l-.001-.001c-.08-.39-.15-.78-.22-1.17 -.01-.02-.01-.03-.01-.05l0-.01c-.06-.39-.12-.77-.18-1.15l0 0c-.06-.41-.11-.81-.16-1.21l-.001-.001c-.1-.81-.16-1.61-.18-2.41l-1.22-.59c-.01.07-.01.15-.02.23 -.02.29-.02.605-.03.93l0-.001c-.01.38-.01.77 0 1.15 0 .37.02.75.04 1.14 .02.33.04.67.07 1.02l0 .03 0 0c0 .02 0 .05 0 .07 .03.36.06.73.1 1.11l0 0c.07.71.17 1.41.3 2.125 .01.06.02.13.03.19v0c.14.78.32 1.55.54 2.32 .07.23.14.46.21.68 .06.18.13.36.19.54 .15.42.32.83.51 1.23l0 0v0c0 .01.01.03.02.05 .22.48.47.95.75 1.39 .01.01.02.03.03.04 -.46-.19-1.26-.1-1.26-.1 .83.28 1.55.64 2.016 1.17 -.19.2-.53.35-.96.47 .59.06.92-.04 1.045-.1 -.31.26-.49.73-.64 1.24 .35-.57.69-.95 1.03-1.1 .07.25.16.52.24.78l0 0c-.77 1.5-1.51 3.02-2.23 4.55v0c.18-.03.34-.15.43-.32 .13-.29.83-1.78 1.9-3.875 .41 1.3.88 2.67 1.38 4.1H8.55c.1-.14.13-.31.07-.47l-.001-.001c-.47-1.31-.9-2.63-1.31-3.95 .15-.3.31-.62.48-.94 .125.04.25.09.38.15 .2.18.35.49.48.84v0c.03-.4-.09-.79-.34-1.1 1.33.25 2.54.09 3.28-.81h0c.06-.09.13-.17.19-.26 -.33.3-.69.4-1.32.27 .99-.29 1.52-.62 2.03-1.22 .12-.15.24-.31.37-.48 -.95.72-1.93.82-2.9.49l-.05-.02c.91.02 2.2-.48 3.09-1.189 .41-.33.79-.73 1.17-1.21 .28-.359.55-.76.82-1.22 .23-.4.46-.83.7-1.3v0c-.24.07-.49.12-.74.13l-.15 0c-.05 0-.1 0-.15 0 .88-.2 1.5-.74 1.99-1.45 -.24.11-.63.26-1.07.29 -.06 0-.12 0-.19 0 -.02-.01-.03 0-.05-.01 .3-.08.57-.18.81-.31v0c.12-.08.24-.15.35-.24 .04-.04.08-.07.13-.11 .09-.09.19-.18.28-.29 .02-.04.05-.07.08-.1 .03-.05.07-.1.1-.15v0c.18-.27.35-.55.51-.83 .01-.04.03-.06.04-.09 .04-.09.08-.16.11-.23 .04-.1.07-.18.09-.24V7.56c-.04.02-.08.03-.11.05 -.28.11-.73.18-1.09.2 -.01 0-.01 0-.02 0h-.07c.72-.22 1.06-.45 1.42-.82h0c.41-.46.8-.93 1.15-1.43 .26-.37.5-.74.69-1.072V4.49c.1-.2.2-.39.29-.6 .06-.16.12-.31.17-.45 -.47.01-.99.01-1.48 0 .49.01 1.01 0 1.48-.01 .5-1.49.06-2.262.06-2.262s-.53-1.22-1.4-.86c-.43.17-1.18.73-2.09 1.56l.51 1.45 0-.001c.53-.58 1.1-1.11 1.7-1.61 -.26.22-.81.726-1.62 1.64 -.26.29-.54.62-.85.99 -.02.02-.04.03-.05.06l0 0c-.58.71-1.14 1.44-1.67 2.18 -.25.34-.5.7-.77 1.08h-.02c0 .02-.01.02-.01.03l-.11.15c-.11.15-.22.31-.32.47l-.36.53c-.07.09-.13.18-.19.27 -.19.28-.37.57-.56.87l0-.001c-.49.77-.97 1.55-1.43 2.33l-.001 0c-.46.77-.91 1.55-1.35 2.34 -.02.01-.02.04-.04.05l-.001 0c-.23.4-.45.81-.67 1.22l-.1.18c-.17.31-.35.64-.52.97 0 0-.01 0-.01.01 -.03.04-.05.09-.08.14 -.12.22-.22.42-.45.87v0c-.08-.07-.15-.14-.24-.19l.34-.65c.04-.09.09-.18.14-.27l.04-.08 .54-1.01 .13-.24v-.01l-.01-.01c.16-.31.34-.62.52-.94 .05-.09.1-.18.15-.27 .22-.4.45-.8.68-1.2l-.001-.001c.68-1.19 1.39-2.36 2.13-3.51 .24-.39.5-.77.75-1.16 .09-.14.18-.28.27-.41l-.001 0c.15-.24.31-.47.48-.71 0-.02.01-.03.02-.04h0c.26-.36.51-.72.77-1.07 .27-.38.55-.74.83-1.09v0c.56-.72 1.15-1.41 1.77-2.08l-.52-1.45c-.06.05-.13.11-.2.17l-.001 0c-.26.23-.51.48-.76.72 -.3.29-.6.6-.92.93l-.001-.001c-.57.59-1.11 1.21-1.64 1.83l-.03.03 0 0c-.02.02-.04.04-.06.06 -.27.32-.54.649-.81.98l-.001 0c-.51.63-.99 1.28-1.45 1.95 -.05.06-.09.12-.13.18l-.001 0c-.51.74-.98 1.51-1.41 2.3 -.13.24-.26.48-.37.71 -.1.19-.19.39-.28.59 -.21.46-.4.93-.57 1.39l0 0v-.001c-.02.01-.02.03-.03.05 -.11.3-.21.6-.29.91 -.14.17-.31.32-.49.46v0c-.05-.06-.09-.11-.14-.16h0c.44-.67.72-1.43.82-2.22v0c.05-.5.04-1-.02-1.49 -.05-.4-.13-.82-.24-1.28 -.1-.4-.22-.81-.37-1.25 -.1.18-.22.36-.38.54l-.09.09c-.03.03-.06.06-.1.09 .43-.68.48-1.4.35-2.15V7.12c-.12.31-.28.59-.49.85 -.04.03-.08.07-.11.11 -.01 0-.02.01-.04.02 .14-.24.25-.47.31-.7v0c.01-.05.02-.1.04-.15h0c.01-.08.02-.15.03-.23l.01-.15V6.87c0-.12 0-.24-.01-.36 -.01-.04-.01-.08-.01-.12 -.01-.06-.02-.11-.03-.16H6.73c-.05-.29-.12-.57-.2-.84 -.01-.03-.02-.06-.03-.09 -.03-.08-.05-.15-.08-.21v0c-.03-.08-.06-.15-.09-.21H6.33c-.01.03-.02.06-.04.1 -.11.24-.34.57-.56.8 -.01 0-.01 0-.01.01l-.04.04c.31-.58.39-.95.38-1.4H6.06c-.02-.55-.08-1.09-.16-1.62l-.001 0c-.06-.38-.14-.75-.24-1.11L5.66 1.7c-.06-.19-.12-.38-.18-.56l0-.001C5.42 1 5.36.87 5.3.75l0 0c0-.01 0-.01 0-.01C4.69-.51 3.93-.73 3.93-.73s-.27-.11-.59-.13Zm3.38 15.783l.03.08v0c-.06.03-.12.06-.18.09 -.02 0-.03.01-.04.01v0c.06-.07.12-.13.18-.2ZM7 17.403c.13.13.25.24.35.32l.07.22v0c-.09.01-.17.02-.25.05l-.03-.1c-.03-.09-.05-.17-.08-.26l-.03-.08Zm.26.875l-.001-.001c.09-.01.18 0 .27.01l.07.22V18.5c.08-.02.16-.02.24-.01l-.33.62 0-.001c-.09-.29-.18-.58-.27-.87Z"/></svg>