<svg viewBox="0 0 24 24" xmlns="http://www.w3.org/2000/svg"><path d="M12 1.59c-9.27-.01-13.92 11.2-7.37 17.75 2.97 2.97 7.44 3.86 11.33 2.25 3.88-1.61 6.42-5.41 6.42-9.62 0-5.75-4.66-10.41-10.4-10.41ZM6.1 6.77c.5-2.6 3.89-3.3 5.37-1.11 1.48 2.19-.43 5.08-3.02 4.58 -1.62-.31-2.67-1.87-2.36-3.48Zm4.322 8.98c-.51 2.59-3.9 3.28-5.38 1.09 -1.49-2.2.42-5.09 3.02-4.58 1.612.31 2.66 1.87 2.35 3.48Zm1.26-2.41c-1.16-.23-1.47-1.73-.5-2.39 .97-.67 2.25.18 2.04 1.33 -.14.71-.83 1.19-1.55 1.05Zm6.19 3.83c-.51 2.59-3.9 3.29-5.38 1.1 -1.49-2.2.42-5.09 3.02-4.59 1.61.3 2.66 1.86 2.35 3.47Zm-1.97-5.51c-2.6-.51-3.3-3.9-1.11-5.38 2.19-1.49 5.08.42 4.58 3.02 -.31 1.61-1.87 2.67-3.48 2.35Zm-2.34 11.56l2.26.61c1.98.52 4.01-.66 4.54-2.64l.63-2.41v0c-1.81 2.39-4.48 3.99-7.45 4.42ZM21.2 3.55l-2.37-.63v0c2.41 1.85 3.97 4.59 4.35 7.61l.64-2.46c.51-1.99-.67-4.01-2.65-4.54ZM.63 13.76L.08 15.8c-.53 1.98.65 4.01 2.63 4.54l2.1.56 0 0C2.56 19.13 1.06 16.58.6 13.75ZM10.31.65L8.1.07C6.11-.46 4.07.72 3.55 2.7l-.56 2.08v0C4.8 2.51 7.42 1.03 10.29.63Z"/></svg>