<svg viewBox="0 0 24 24" xmlns="http://www.w3.org/2000/svg"><path d="M12.152 6.896c-.95 0-2.42-1.08-3.96-1.04 -2.04.02-3.91 1.18-4.97 3.01 -2.117 3.67-.55 9.103 1.51 12.09 1.013 1.45 2.208 3.09 3.79 3.03 1.52-.07 2.09-.99 3.93-.99 1.83 0 2.35.98 3.96.94 1.63-.03 2.67-1.48 3.67-2.95 1.15-1.69 1.63-3.33 1.66-3.42 -.04-.02-3.19-1.221-3.22-4.86 -.03-3.04 2.48-4.494 2.59-4.56 -1.43-2.09-3.63-2.324-4.39-2.38 -2-.16-3.68 1.09-4.61 1.09Zm3.378-3.07c.84-1.012 1.4-2.427 1.24-3.83 -1.21.05-2.67.805-3.54 1.818 -.78.89-1.46 2.33-1.28 3.714 1.33.1 2.715-.69 3.55-1.71"/></svg>