<svg viewBox="0 0 24 24" xmlns="http://www.w3.org/2000/svg"><path d="M8.8 14.91l6.11-11.04c.08-.16.16-.31.24-.46 .06-.15.12-.29.16-.45 .08-.33.05-.67-.07-.98 -.13-.31-.35-.57-.63-.74V1.23c-.28-.17-.61-.24-.93-.2 -.33.04-.62.19-.85.42 -.11.11-.2.23-.29.369 -.1.14-.18.29-.26.44l-.39.69 -.39-.7c-.09-.16-.17-.31-.26-.45s-.18-.26-.29-.369c-.24-.24-.53-.39-.85-.43v0c-.32-.05-.65.02-.93.19 -.28.16-.5.42-.63.73s-.15.65-.07.97c.03.15.09.29.16.44 .07.15.15.3.24.45l1.24 2.25 -4.87 8.78H1.9c-.17 0-.34-.01-.51 0 -.16 0-.31.02-.45.07 -.32.09-.59.27-.78.548 -.195.26-.31.59-.31.92 0 .33.1.66.3.92 .196.26.46.45.77.54 .14.04.29.06.44.07 .16.01.33 0 .5 0h13.09c.01-.04.05-.13.1-.27 .41-1.42-.62-2.843-2.04-2.843Zm-5.7 3.62l-.8 1.5c-.09.15-.17.31-.24.47 -.07.14-.13.29-.17.45 -.08.33-.06.68.06 1 .12.31.33.58.6.75 .27.17.58.24.9.19 .31-.05.6-.2.82-.45 .1-.12.19-.25.27-.38 .09-.16.17-.31.25-.47l1.14-2.18c-.09-.15-.95-1.48-2.887-.93m20.58-3.01v0c-.2-.27-.47-.46-.78-.55 -.15-.05-.3-.07-.45-.08 -.17-.01-.34-.01-.51-.01h-3.33L14.16 7.01c-.67.7-.97 1.48-1.08 2.19 -.17 1.03.03 2.09.54 3l5.27 9.39c.08.14.16.29.25.44 .08.13.17.25.28.36 .23.23.52.38.84.42 .31.04.64-.03.92-.19 .27-.17.49-.43.62-.73 .12-.31.14-.65.06-.97 -.04-.16-.1-.3-.17-.44 -.08-.16-.16-.31-.25-.46l-1.22-2.17h1.596c.16 0 .33 0 .5-.01 .15-.01.3-.03.44-.08v0c.31-.09.58-.28.77-.55h0c.19-.27.3-.59.3-.92v0c0-.33-.11-.66-.31-.92Z"/></svg>