<svg viewBox="0 0 24 24" xmlns="http://www.w3.org/2000/svg"><path d="M7.83 4C4.09 4.09.58 6.816.05 11.01h0c-.36 2.83.83 5.64 3.12 7.36 2.75 2.08 6.19 2.04 8.82.53v0c3.82 2.21 8.71.9 10.92-2.92 2.21-3.83.9-8.72-2.92-10.93 -2.48-1.44-5.54-1.44-8.02 0v0C10.7 4.3 9.26 3.93 7.8 3.96Zm.12 1.48h-.001c3.23-.02 5.99 2.33 6.48 5.53 0 0 0 .01 0 .02 .02.14.03.28.04.43l0 .05c.01.15.01.3.01.45 0 .08-.01.16-.01.25 -.01.05-.01.11-.01.17h-.001c-.01.11-.02.22-.03.33l-.01.08c-.02.12-.04.24-.06.35l-.01.04c-.03.12-.05.24-.08.37l-.01.02h0c-.11.39-.24.78-.41 1.15 -.01.01-.02.03-.03.05v0c-.39.8-.95 1.52-1.62 2.11l-.06.04c-.08.06-.17.13-.25.19 -.06.04-.11.08-.17.125 -.04.03-.08.05-.13.08v-.001c-.36.23-.73.44-1.13.61v0c-2.15.9-4.61.6-6.47-.8C-.02 14.1.74 7.87 5.37 5.92l-.001 0C6.16 5.58 7 5.4 7.86 5.4Zm.61 3.72c-.19 0-.35.01-.36.03 -.01.02-.14.5-.27 1.07 -.14.57-.36 1.468-.48 2 -.24.97-.38 1.61-.38 1.69 0 .02.14.04.32.04h.32l.14-.65 .42-1.8c.15-.64.33-1.41.4-1.72 .07-.31.14-.6.15-.63 .01-.05-.07-.06-.31-.06Zm-2.45 1.6l-.44.47 -.44.47 .12.15c.07.08.26.29.42.47l.3.32h.85l-.41-.44c-.23-.24-.41-.46-.41-.49 0-.04.17-.25.37-.47 .2-.23.37-.43.37-.45 0-.02-.18-.04-.4-.04Zm3.27 0c-.24 0-.42.01-.42.02s.08.1.18.2c.36.36.62.67.61.74 -.01.03-.19.25-.41.484l-.39.42h.43l.43-.01 .4-.44c.22-.25.4-.46.4-.49 0-.03-.19-.25-.43-.5l-.43-.46Z"/></svg>