<svg viewBox="0 0 24 24" xmlns="http://www.w3.org/2000/svg"><path d="M5.393 10.02l-.48 1.95 .99 0 -.51-1.96Zm3.89.08v1.18c.54-.01.95.03 1.22-.04s.4-.22.4-.6c0-.34-.12-.47-.39-.53 -.27-.06-.68-.03-1.25-.04Zm5.32-.08l-.48 1.96h.99l-.51-1.96ZM11.988-.01L-.01 11.995 11.99 23.997 23.99 12.001 11.98-.01ZM5.37 8.893c.36 0 .6.11.77.29 .16.18.26.42.35.67l1.07 3.21s.13.27.14.56c.01.29-.11.59-.6.66 -.36-.06-.54-.16-.657-.35 -.13-.2-.19-.49-.31-.91h-1.53c-.15.46-.2.75-.3.94 -.1.18-.26.26-.62.31 -.508-.06-.64-.37-.64-.67 0-.31.129-.59.129-.59l1.01-3.16c.08-.25.17-.5.34-.69 .17-.19.42-.32.8-.32Zm9.19 0c.36 0 .6.11.77.29 .17.18.26.42.35.67l1.07 3.21s.13.27.14.56c.01.29-.11.59-.6.66 -.36-.06-.54-.16-.66-.35 -.13-.2-.19-.49-.31-.91h-1.53c-.15.46-.2.75-.3.94 -.1.18-.26.26-.62.31 -.51-.06-.64-.37-.64-.67 0-.31.12-.59.12-.59l1.016-3.16c.07-.24.17-.484.34-.68 .17-.19.42-.33.8-.33Zm3.346 0c.3 0 .48.11.58.29 .09.17.11.41.11.67v3.2c.21 0 1.23 0 1.23 0 .29 0 .53.02.69.1 .16.08.25.23.24.5 -.01.36-.18.51-.41.58 -.23.06-.51.03-.75.03h-1.77c-.375 0-.54-.17-.61-.44 -.07-.27-.04-.65-.04-1.07v-2.94c-.02-.26.02-.5.12-.68 .1-.18.28-.29.56-.29Zm-8.645.1h1.09c.25 0 .51-.01.76.08 .25.08.52.26.78.61 .28.37.35.93.22 1.41 -.13.48-.46.88-.98.96 .18.34.8 1.28.8 1.28s.06.11.07.266c.01.15-.03.35-.25.53 -.39.14-.64.1-.78.03 -.15-.08-.2-.2-.2-.2s-.57-.97-.91-1.64h-.65v1.33s.01.15-.07.3 -.24.29-.58.28c-.33 0-.49-.16-.57-.31 -.08-.16-.08-.31-.08-.31V9.77c0-.34 0-.55.17-.68 .16-.13.48-.18 1.11-.18Z"/></svg>