<svg viewBox="0 0 24 24" xmlns="http://www.w3.org/2000/svg"><path d="M18.417 9.88c-.69 1.11-1.83 1.72-2.99 1.85 -4.23.48-6.05-4.15-3.47-6.73 2.31-2.31 7.08-.9 7 2.89 -.02.61-.17 1.35-.55 1.97ZM11.95 7.85c.14 3.59 4.76 3.68 5.68 1.05 .81-2.33-1.12-4.2-3.19-3.9 -1.53.22-2.56 1.41-2.497 2.843Zm11.165-1.86c.28-.14.69-.42.83-.25 .21.25-.46.47-.75.66 -.92.6-1.74 1.22-2.48 2.04 -.96 1.05-1.95 2.37-2.55 3.81 .61.03 3.02.15 3.6 1.48 .46 1.06-.39 2.15-1.32 2.62 .66.41 1.81.94 1.74 1.89 -.16 2.343-3.7 2.24-5.18.69 -.25-.29-.36-.49-.25-.58 .15-.14.32.18.67.47 .22.18.37.25.57.35 1.3.68 3.33.4 3.47-.8 .06-.56-.67-.96-1.22-1.21 -.5-.23-1.52-.39-1.5-.96 .02-.56.52-.45 1.03-.65 .55-.22 1-.91 1-1.12 -.01-.91-2.07-.89-3.221-.92 -.28.6-.48 1.22-.7 2.15 -.14.58-.16 1.89-.75 2.02 -.74.16-1.02-.48-1.455-1 -.6-.69-1.436-1.64-1.95-2.23 -3.04 1-5.4 2.09-8.256 3.71 -1.311.74-2.063 1.59-2.545 1.35 -.4-.2-.34-.64-.15-.89 .393-.53.92-1.23 1.39-1.89 .6-.85 1.05-1.67 1.37-2.45 .69-1.69 1.23-4.72 1.47-5.86 .08-.42.3-.35.32-.15 .02.41-.24 2.04-.29 2.38 -.44 2.78-.78 4.41-2.01 6.349 2.19-1.36 4.805-3.02 7.59-3.96 -2.84-3.26-5.84-6.35-10.01-8.3C.94 4.36-.1 4.28-.1 4.04c0-.28.78-.06 1.043 0C3.33 4.63 5.75 6.19 7.55 7.49c2.14 1.56 4.714 3.96 5.679 5.08 .657-.23 2.28-.46 3.69-.5 .75-1.58 2.55-4.02 4.788-5.45 .41-.27.84-.6 1.31-.82Zm-8.594 8.07c.42.42.74.93 1.11 1.39 .17-.59.4-1.22.64-1.76 -.62.08-1.29.2-1.76.36Z"/></svg>