<svg viewBox="0 0 24 24" xmlns="http://www.w3.org/2000/svg"><path d="M12 1.6L0 22.38c1.45 0 .83-.89 1.565-.93 .7 0 .55.44 1.044.44 .84 0 .27-2.82 1.04-2.82 .665 0 .48 2.03 1.04 2.03 .28 0 .52-.82.52-1.81v-.95c0-1.31.23-2.37.52-2.37 .28 0 .52 1.06.52 2 0 1.17.23 2.43.52 2.43 .28 0 .52-1.27.52-2.81v-.44c0-1.69.23-3.07.52-3.07 .28 0 .52 1.36.52 2.96 0 1.66.23 3.09.52 3.09 .28 0 .52-1.44.52-3.18 0-1.737.23-3.15.52-3.15 .28 0 .52 1.42.52 3.27 0 1.78.23 3.14.52 3.14 .28 0 .52-1.37.52-2.87 0-1.39.23-2.657.52-2.657 .28 0 .52 1.27.52 2.83v.47c0 1.41.23 2.56.52 2.56 .28 0 .52-1.16.52-2.3 0-.98.23-1.99.52-1.99 .28 0 .52 1.01.52 2.25v.57c0 1.05.23 1.9.52 1.9 .28 0 .52-.84.52-1.62 0-.59.23-1.31.52-1.31 .28 0 .52.7.52 1.58v.53c0 .69.23 1.27.52 1.27 .59 0 .45-1.73 1.04-1.73 .28 0 .52.43.52.96v.45c0 .38.23.68.52.68 .59 0 .46-.79 1.04-.79 .76 0 .19 1.07 1.04 1.07 .51 0 .42-.18 1.04-.18 .56 0 .49.35 1.56.35Z"/></svg>