<svg viewBox="0 0 24 24" xmlns="http://www.w3.org/2000/svg"><path d="M0 1.73v20.524h24V1.73Zm5.93 5.54c.17 0 .43 0 .63.02 .23 0 .3.07.33.28 .05.79.23 4.21.25 4.9 0 .18-.11.23-.23.23h-.72c-.18 0-.26-.11-.26-.23 0-.26-.03-.92-.03-.92H3.95c-.21.35-.44.76-.54.94 -.08.15-.18.17-.31.17h-.82c-.18 0-.23-.13-.16-.29 1.09-2 2.5-4.167 3.117-4.89 .17-.23.383-.23.63-.26Zm-.1 1.19v0c-.02 0-.03.01-.03.03 -.46.56-1.048 1.48-1.38 2.122h1.5s-.05-1.484-.08-2.13c0 0 0-.05-.03-.04Zm14.666.23c.61 0 1.125.28 1.35.66 .1.15.07.25-.08.33h0c-.14.07-.29.14-.44.2 -.13.02-.23.02-.34-.11 -.44-.52-1.05-.34-1.08-.06 -.03.25.25.35.63.46 .58.17 1.25.48 1.04 1.27 -.21.81-1 1.22-1.92 1.22 -.59 0-1.26-.18-1.51-.8 -.06-.13-.03-.23.07-.28 .15-.11.3-.18.46-.24 .12-.03.23 0 .3.1 .18.25.38.38.71.38 .3 0 .63-.13.61-.41 -.03-.26-.41-.36-.62-.41 -.39-.11-1.18-.28-1.18-.92 0-.8.74-1.38 1.91-1.46Zm-3.84.07c1.22 0 1.79.81 1.53 1.99 -.23 1.17-1.15 1.99-2.38 1.99s-1.79-.82-1.54-2c.25-1.18 1.15-2 2.37-2Zm-4.43.02c.56 0 .86.33.94.46 0 .02.02.02.02 0 .02-.08.05-.13.05-.16 .02-.13.12-.23.3-.23h.51c.15 0 .28.1.23.3l0 0c-.24 1.02-.48 2.04-.75 3.06 -.39 1.48-1.15 2.224-2.3 2.224 -.46 0-1.23-.13-1.56-.67 -.08-.11-.11-.21.07-.34 .15-.11.33-.16.48-.21 .15-.05.2-.05.35.05v0c.16.12.36.18.56.17 .4 0 .94-.23 1.2-1.1 .02-.05 0-.05-.03-.03 -.18.23-.57.38-1 .38 -.54-.03-.87-.21-1.08-.54 -.23-.36-.21-1-.03-1.56 .28-.9.97-1.87 1.968-1.87Zm-3.86.02h.61c.12 0 .17.1.15.2 -.03.1-.06.17-.06.2 0 .02.02.02.02.02 .46-.41 1.04-.41 1.68-.41 .1 0 .15.1.07.17 -.23.23-.36.4-.52.63 -.11.15-.18.2-.36.2 -.41.02-.62.1-.77.2 -.16.1-.31.43-.39.81l-.001-.001c-.11.53-.22 1.07-.34 1.61H8.45c-.03.1-.12.18-.23.17H7.48c-.11 0-.18-.08-.16-.18 .12-.72.64-3.12.71-3.48 .02-.16.12-.21.25-.21Zm8.2.79c-.69 0-.98.56-1.15 1.15 -.16.58-.23 1.15.46 1.15 .69 0 .97-.57 1.15-1.15 .17-.59.23-1.15-.46-1.15Zm-4.22.02c-.52-.03-.87.38-1.1 1.15 -.13.41-.16 1.02.38 1.1 .53.02.89-.36 1.09-1.1 .12-.49.25-1.13-.39-1.15ZM2.3 13.9v0c.03 0 .06.01.09.02 3.68 1.5 6.058 2.07 9.406 2.07 3.34 0 5.72-.57 9.43-2.07 .25-.11.41.15.15.3 -1.46.92-4.805 2.81-9.585 2.81 -4.78 0-8.153-1.9-9.56-2.82 -.23-.14-.133-.35.06-.33Z"/></svg>