<svg viewBox="0 0 24 24" xmlns="http://www.w3.org/2000/svg"><path d="M12.58 0c.43.037.87.1 1.29.186 1.67.38 3.12 1.21 4.38 2.36 1.16 1.06 1.91 2.37 2.33 3.881 .08.32.21.56.58.62 .2.03.23.24.23.43 0 .64 0 1.29 0 1.94l-.01 1.21c-.01.35-.12.47-.47.47 -.22-.01-.3.11-.35.29 -.15.48-.33.96-.56 1.42 -.82 1.68-2.09 2.93-3.69 3.87 -.08.04-.16.08-.24.13 -.26.13-.26.14-.16.41 .11.29.35.52.66.625 .26.09.55.13.82.21v0c.08.01.16.04.23.09 -.07.08-.16.06-.24.08 -.36.07-.72.18-1.09.17v0c-.15 0-.3-.02-.44-.07 -.12-.05-.16-.01-.18.1v0c-.06.3-.09.61-.09.92 -.02.61-.08 1.23-.12 1.84 -.05.59-.02.65.55.84 .28.09.56.18.84.28 .06.02.15.03.19.11 -.04.05-.1.03-.15.03 -.5 0-.99 0-1.48 0 -.53-.01-.81-.29-.85-.81 -.06-.77-.12-1.53-.19-2.29v0c-.01-.05-.02-.09-.03-.12 -.08.45-.07.87-.09 1.29 -.03.52-.01 1.05-.01 1.58 0 .27.08.38.33.48 .35.13.71.29 1.11.26 .14-.02.27.06.4.12 .03.01.07.03.06.07 -.01.04-.05.04-.09.04 -.66-.02-1.32.06-1.98-.03 -.33-.05-.54-.24-.64-.56 -.1-.31-.12-.62-.14-.93 -.05-.63-.08-1.26-.12-1.88v0c0-.07-.02-.13-.07-.18v0c-.04.05-.05.12-.04.19 -.01.95-.01 1.91-.01 2.86 0 .38.12.57.49.7 .48.17.97.29 1.47.42 .11.02.22.04.24.19h-1.86c-.06-.01-.11-.03-.16-.03 -.71-.1-1.01-.38-1.15-1.05l-.07-.34 -.23-1.11c-.07.12-.12.25-.15.38 -.09.39-.16.8-.25 1.2 -.12.49-.45.76-.94.85l-.33.06H8.25c.05-.18.21-.19.35-.23 .47-.13.96-.23 1.41-.41v0c.22-.09.37-.29.39-.53 .05-.44 0-.87-.02-1.3v0c-.02-.11-.05-.22-.08-.32h-.001c-.05.06-.07.13-.08.2 -.03.29-.05.59-.08.88 -.04.43-.28.71-.68.81v0c-.13.02-.25.04-.37.04 -.56 0-1.12-.01-1.68-.01 -.05 0-.11.01-.15-.07 .17-.11.37-.17.58-.19v-.001c.31-.04.63-.11.93-.2 .42-.12.52-.25.51-.69 -.03-.94-.1-1.86-.07-2.8 0-.19 0-.37 0-.56v0c-.03.12-.05.25-.05.38h0c-.04.87-.1 1.75-.19 2.62 -.06.51-.3.74-.81.8 -.45.05-.89 0-1.34-.02 -.11-.01-.24.01-.34-.07 .04-.07.1-.07.16-.09 .36-.12.72-.23 1.08-.35 .24-.09.35-.24.35-.5v0c0-.08 0-.16-.01-.24v0c-.06-.72-.09-1.44-.11-2.15v0c-.01-.16-.02-.32-.04-.48 -.03-.19-.14-.29-.3-.26 -.51.09-.99-.01-1.48-.14 -.06-.02-.14-.01-.18-.09H5.94c.08-.05.18-.08.28-.09 .25-.06.5-.13.75-.21 .31-.12.56-.35.69-.66 .08-.21.05-.32-.12-.4 -1.42-.69-2.52-1.73-3.4-3.02v0c-.51-.75-.89-1.58-1.13-2.45 -.07-.25-.16-.3-.383-.26 -.31.05-.41 0-.54-.28V6.97c.14-.31.2-.35.53-.33 .23.01.24-.01.3-.242C3.31 4.89 4 3.52 5.09 2.41 6.4 1.05 8.02.26 9.84-.17c.45-.11.92-.15 1.38-.21h.85Zm7.97 8.94v0c0-.32-.02-.63-.05-.94l0-.001c-.03-.22-.06-.44-.1-.65 -.6-2.97-2.35-5.02-5.06-6.268C13.78.36 12.13.24 10.46.57 7.21 1.2 5.06 3.15 3.92 6.22c-.44 1.173-.5 2.4-.37 3.65 .08.93.33 1.846.74 2.69 .585 1.21 1.444 2.2 2.47 3.058 .34.28.71.52 1.12.71 .23.11.24.1.24-.15 0-.16 0-.32-.01-.48 -.125-1.02-.15-2.045-.17-3.07v0c0-.15-.07-.28-.19-.36 -.39-.27-.72-.6-.93-1.02 -.48-.97-.38-2.37.81-3.215 .13-.1.21-.19.19-.38v0c-.01-.15 0-.3.03-.45 .17-1.19.74-2.138 1.72-2.84 .68-.492 1.44-.78 2.28-.782 .48-.01.95.11 1.41.24 1.6.46 2.84 2.07 2.84 3.69V7.51c-.02.22.08.43.26.56 .46.37.82.83.94 1.42 .22 1.077-.09 1.98-.98 2.63 -.27.19-.35.4-.34.69 0 .04 0 .09-.01.14l-.07 1.439c-.03.58-.14 1.16-.12 1.75 0 .22 0 .22.2.12v0c.92-.47 1.73-1.12 2.39-1.91 1.32-1.577 2.07-3.372 2.05-5.52ZM9.11 12.09c1.48.02 2.44-1.58 1.71-2.88l0 0c-.35-.62-1-1-1.7-1 -1.1-.01-1.96.82-1.96 1.88 -.01 1.14.81 1.98 1.94 1.98Zm5.79 0c1.1 0 1.93-.83 1.93-1.92 0-1.1-.85-1.95-1.92-1.95 -1.064 0-1.94.86-1.95 1.91 -.01 1.1.83 1.94 1.92 1.94Zm-1.48 1.93c-.21.12-.41.27-.63.38 -.54.25-1.07.25-1.58-.05 -.16-.1-.31-.21-.47-.3 -.05-.03-.1-.11-.15-.07 -.05.03-.01.1-.01.15 .03.17.06.36.08.54 .02.56.29.99.74 1.31v0c.22.17.51.24.79.18 .56-.12 1.02-.62 1.12-1.218 .04-.266 0-.55.1-.81v-.001c.02-.05.01-.11-.03-.15ZM4.64 9.1c-.02-1.11.14-2.06.54-2.97C5.81 4.68 6.82 3.57 8.16 2.75V2.74c.15-.09.33-.06.45.06 .06.06.03.11.01.17v0c-.1.21-.27.39-.48.51 -1.08.63-1.83 1.57-2.36 2.68H5.77c-.45.93-.66 1.95-.62 2.98 .05 1.3.43 2.516 1.213 3.58 .08.1.14.23.17.36 .01.08.05.16-.04.22v0c-.09.06-.2.07-.29.04v-.001c-.1-.04-.18-.11-.24-.19 -.72-.98-1.2-2.06-1.34-3.28 -.04-.33-.01-.66-.04-.86ZM8.92 2.32v0c-.01-.21.15-.38.36-.39 0-.01 0-.01.01-.01 .21 0 .4.22.41.47 0 .13-.31.39-.48.38 -.19-.01-.32-.2-.32-.48Zm-.47 7.48v0c-.02-.34.24-.62.58-.64 .38-.01.67.27.67.63 0 .35-.27.62-.64.62 -.38-.01-.63-.25-.63-.63Zm6.496.62c-.39-.01-.625-.26-.63-.65v0c.01-.33.26-.6.59-.62v0c.36-.01.66.28.66.64 0 0 0 0 0 0 0 .35-.28.61-.65.61Z"/></svg>