<svg viewBox="0 0 24 24" xmlns="http://www.w3.org/2000/svg"><path d="M16.21 11.172l4.96-5.792c.94-1.3 1.49-1.83 1.07-3.94l-7.37 8.6 -.001-.001c-1.31 1.52-1.99 3.48-1.9 5.487l-3.22-3.66 0-.001c-.29-.32-.61-.59-.95-.83l-.001 0c-.57-.4-1.18-.73-1.82-.99 .21-.08.43-.14.649-.2 .38-.1.78-.15 1.17-.15 .44 0 .88.07 1.3.23 .41.16.82.43 1.21.85l.21.25 1.33-1.13c-.01-.02-.25-.29-.26-.3h0c-.52-.58-1.15-1.02-1.86-1.31v0c-.63-.25-1.29-.37-1.96-.37 -.16 0-.3 0-.45.01 -1.47.24-2.364 1.1-3.72 1.24 0 0-4.58 0-4.581 0 -.11 0-.12.14-.02.16 1.2.24 3.34.69 4.84 1.21 1.14.52 2.24 1.205 3.106 2.02 .17.13.31.27.43.4l4.28 4.87c.61.5 1.39.75 3.06.76v0c-.29-.42-.52-.87-.7-1.34h-.001c-.51-1.38-.52-2.89-.02-4.256l0-.001c.25-.7.63-1.35 1.11-1.91ZM24 22.552c-1.74-.03-2.49-.32-3.11-.89l-.97-1.093c-.07-.08-.13-.16-.2-.24l.01.02 -1.71-1.94V18.4c-1.16-1.32-1.51-3.16-.91-4.81h0c.19-.55.49-1.05.87-1.49l4.2-4.9c.43 2.17-.2 2.66-1.21 4.09l-1.67 1.93v0c-.48.55-.74 1.25-.74 1.98 0 .74.27 1.45.76 2.01l4.64 5.279Z"/></svg>