<svg viewBox="0 0 24 24" xmlns="http://www.w3.org/2000/svg"><path d="M5.41 8.53h1.61v6.91H5.4v-.72c-.71.82-1.573.93-2.07.93 -2.14 0-3.35-1.78-3.35-3.68 0-2.253 1.542-3.64 3.37-3.64 .5 0 1.4.13 2.049.984Zm-3.765 3.49c0 1.19.75 2.202 1.91 2.202 1.01 0 1.95-.74 1.95-2.19 0-1.52-.94-2.24-1.96-2.24 -1.17-.01-1.918.97-1.918 2.21Zm7.29-3.49h1.61v.61 0c.19-.23.41-.42.67-.58 .31-.19.61-.24.984-.24 .39 0 .82.06 1.26.32l-.66 1.46v-.001c-.25-.17-.53-.25-.83-.25 -.35 0-.69.05-1.01.37 -.45.47-.45 1.13-.45 1.593v3.58h-1.62Zm5.56 0h1.61v.63c.53-.66 1.17-.83 1.7-.83 .72 0 1.4.34 1.78 1.01 .57-.83 1.44-1.02 2.05-1.02 .84 0 1.57.39 1.96 1.08 .13.23.36.74.36 1.74v4.272h-1.62v-3.81c0-.78-.08-1.09-.16-1.23 -.11-.27-.35-.609-.93-.609 -.4 0-.75.21-.96.5 -.29.39-.32.984-.32 1.57v3.56h-1.62v-3.81c0-.78-.09-1.09-.16-1.23 -.11-.27-.35-.609-.93-.609 -.4 0-.74.21-.96.5 -.29.39-.32.984-.32 1.57v3.56h-1.58Z"/></svg>