<svg viewBox="0 0 24 24" xmlns="http://www.w3.org/2000/svg"><path d="M11.99 24c-.62 0-1.25-.18-1.79-.51l-7.51-4.3c-1.02-.62-1.65-1.72-1.65-2.91V7.7c0-1.26.63-2.37 1.76-3.02L10.22.43c1.08-.64 2.41-.64 3.49 0l7.41 4.23c1.08.59 1.77 1.73 1.76 3.01v8.58c0 .96-.45 2.16-1.64 2.89l-7.52 4.29c-.57.34-1.2.5-1.79.5Zm-.51-21.35l-7.55 4.3c-.21.15-.38.36-.38.76l0 8.67c.03.22.11.42.37.63l7.55 4.31c.26.17.66.21.98 0l7.51-4.3c.23-.15.37-.39.41-.66V7.68c0-.3-.14-.59-.38-.77l-7.55-4.32c-.4-.24-.76-.16-1.01 0Z"/></svg>