<svg viewBox="0 0 24 24" xmlns="http://www.w3.org/2000/svg"><path d="M21.75 8.67h-2.48l-1.42 4.08c.06-.34.07-.62.07-.73 0-1.72-.99-3.36-3.29-3.36h-2.65l0 4.06c-.23-1.16-1.29-1.47-2.6-1.87 -.5-.16-.76-.4-.67-.62 .08-.2.38-.26.74-.21 .55.07 1 .26 1.42.49l.58-1.45c-.14-.07-1.08-.64-2.27-.64 -1.66 0-2.72.8-2.72 1.99 0 1.06.65 1.67 1.85 2.026 1.29.37 1.62.52 1.58.89 -.04.32-.84.71-2.8-.5l-.59 1.2 -1.8-5.44H2.22l-2.34 6.75h1.95l.37-1.09h2.28l.38 1.09H6.9l-.24-.67c.69.4 1.55.76 2.57.76 1.57 0 2.42-.859 2.62-1.69v1.57h2.638c1.57 0 2.39-.75 2.82-1.56l-.54 1.55h1.94l.39-1.1h2.32l.34 1.09h2.05l-2.25-6.76ZM2.75 12.8l.72-2.32 .68 2.31Zm11.21.87v-3.28h.46c.66 0 1.38.26 1.38 1.63 0 1.21-.64 1.63-1.39 1.63Zm5.77-.88l.69-2.292 .72 2.292Z"/></svg>