<svg viewBox="0 0 24 24" xmlns="http://www.w3.org/2000/svg"><path d="M12 24C5.373 24 0 18.62 0 12 0 5.37 5.373 0 12 0c6.62 0 12 5.373 12 12 0 6.62-5.38 12-12 12ZM7.425 3.21c-.63 0-1.125.5-1.125 1.12v6h0c0 .62.5 1.125 1.125 1.125 .62 0 1.125-.51 1.125-1.125v-6c0-.62-.51-1.124-1.125-1.124Zm0 9.31c-.63 0-1.125.5-1.125 1.125v6h0c0 .62.5 1.125 1.125 1.125 .62 0 1.125-.51 1.125-1.125v-6c0-.63-.51-1.125-1.125-1.125Zm4.15-6.856c-.63 0-1.125.5-1.125 1.125v10.38 0c0 .62.5 1.125 1.125 1.125 .62 0 1.125-.51 1.125-1.125V6.78c0-.63-.51-1.13-1.125-1.13Zm4.151 6.856c-.62 0-1.13.5-1.13 1.125v1.05h-.001c0 .62.5 1.12 1.12 1.12 .62 0 1.12-.51 1.12-1.13v-1.06c0-.63-.51-1.125-1.125-1.125Zm0-4.37c-.62 0-1.13.5-1.13 1.12v1.05h-.001c0 .62.5 1.12 1.12 1.12 .62 0 1.12-.51 1.12-1.13V9.25c0-.62-.51-1.13-1.125-1.13Zm4.15 2.42c-.62 0-1.13.5-1.13 1.12v.57h0c0 .62.5 1.12 1.12 1.12 .62 0 1.12-.51 1.12-1.13v-.58c0-.62-.51-1.13-1.125-1.13Z"/></svg>