<svg viewBox="0 0 24 24" xmlns="http://www.w3.org/2000/svg"><path d="M19.848 7.84c-1 0-1.91.34-2.62.92 -.72-.58-1.63-.93-2.62-.93 -1 0-1.91.34-2.62.92 -.72-.58-1.63-.93-2.62-.93 -1 0-1.91.34-2.62.92 -.72-.58-1.63-.93-2.62-.93 -2.3 0-4.16 1.85-4.16 4.15 0 2.29 1.859 4.15 4.15 4.15 .992 0 1.9-.35 2.61-.93 .71.58 1.62.92 2.61.92 .99 0 1.9-.35 2.61-.93 .71.58 1.62.92 2.61.92 .99 0 1.9-.35 2.61-.93 .71.58 1.62.92 2.61.92 2.29 0 4.15-1.86 4.15-4.16s-1.86-4.16-4.16-4.16Zm-2.62 6.01c-.38-.53-.6-1.17-.6-1.87 0-.7.22-1.34.59-1.87 .37.52.59 1.17.59 1.86 0 .69-.23 1.34-.6 1.86Zm-5.24 0c-.38-.53-.6-1.17-.6-1.87 0-.7.22-1.34.59-1.87 .37.52.59 1.17.59 1.86 -.001.69-.23 1.34-.6 1.86Zm-5.232 0c-.38-.53-.6-1.17-.6-1.87 0-.7.22-1.34.59-1.87 .37.52.59 1.17.59 1.86 0 .69-.23 1.34-.6 1.86ZM.92 11.98c0-1.78 1.439-3.22 3.21-3.22 .73 0 1.41.24 1.95.66 -.55.7-.88 1.58-.88 2.54s.32 1.846.87 2.54c-.55.41-1.22.66-1.96.66 -1.78 0-3.22-1.439-3.22-3.22Zm6.49 2.54c.54-.71.87-1.59.87-2.55 0-.97-.33-1.846-.88-2.55 .54-.42 1.22-.67 1.95-.67s1.41.24 1.95.66c-.55.7-.88 1.58-.88 2.54s.32 1.846.87 2.54c-.55.41-1.22.66-1.96.66s-1.42-.25-1.96-.67Zm5.232 0c.54-.71.87-1.59.87-2.55 0-.97-.33-1.846-.88-2.55 .54-.42 1.22-.67 1.95-.67s1.41.24 1.95.66c-.55.7-.88 1.58-.88 2.54s.32 1.846.87 2.54c-.55.41-1.22.66-1.96.66s-1.42-.25-1.96-.67Zm7.18.66c-.74 0-1.42-.25-1.96-.67 .54-.71.87-1.59.87-2.55 0-.97-.33-1.846-.88-2.55 .54-.42 1.22-.67 1.95-.67 1.77 0 3.21 1.439 3.21 3.21 0 1.77-1.44 3.21-3.22 3.21Z"/></svg>