<svg viewBox="0 0 24 24" xmlns="http://www.w3.org/2000/svg"><path d="M15.716 4.636l-2.23 1.48L11.19 2.67l2.22-1.49Zm1.81 10.331l3.8 5.7 -4.54 3.02 -3.81-5.71 -.67-1 4.53-3.03Zm-5.71 3.81l.83 1.25 -3.45 2.3 -1.51-2.25 .75-.51 2.69-1.8Zm7.596-6.51l.968-.65 1.5 2.25 -2.23 1.487 -.84-1.26 1.26-.84Zm-.6 1.83l-.67-1 1.26-.84 .66.99ZM3.78 12.58l-.76.5L.73 9.64l3.45-2.31 1.61 2.41 -2.698 1.8 2.69-1.8 .68 1.029ZM11.5 5.94l.68 1.029L7.65 9.99l-.69-1.03 -3.77-5.65L7.72.28Zm3.23-.68l-1.26.84 -.69-1.03 -1.609-2.41 2.22-1.49L15.69 4.6ZM9.1 20.55l-.67-1 2.69-1.8 .66.99Zm9.69-6.48l-.67-1 1.26-.84 .66.99ZM3.769 12.56l-.69-1.03 2.697-1.8 .68 1.029Zm9.69-6.48l-.69-1.03 1.26-.84 .68 1.02Zm4.038 8.84l-4.54 3.02 -.67-1 4.53-3.03Zm-6.02-9.02l.68 1.02 -4.534 3.02 -.69-1.03Zm-9.006-.83l.85 1.28 -1.282.85 -.86-1.282Zm4.62 15.373l.85 1.28 -1.282.85 -.86-1.282Zm-3.38 1.29L-.05 16.05 20.02 2.63l3.93 5.58Z"/></svg>