<svg viewBox="0 0 24 24" xmlns="http://www.w3.org/2000/svg"><path d="M14.52 8.11h0c.69.44.9 1.37.45 2.06 -.01.01-.02.02-.03.03l-3.52 5.44v-.001c-.45.69-1.37.9-2.07.45 -.01-.01-.01-.01-.01-.01v0c-.7-.46-.9-1.39-.44-2.08l3.513-5.44c.21-.34.55-.57.94-.66 .39-.09.79-.04 1.13.17Zm-2.55 14.92C4.7 23.03-.01 17.79-.01 12.33v-.68C-.01 6.1 4.7.95 11.97.95c7.26 0 12.02 5.14 12.02 10.692v.67C23.99 17.76 19.27 23 11.97 23ZM20.1 11.72c0-3.98-2.89-7.51-8.133-7.51 -5.245 0-8.087 3.542-8.087 7.51v.49c0 3.97 2.888 7.57 8.087 7.57 5.198 0 8.133-3.61 8.133-7.58v-.5Z"/></svg>