<svg viewBox="0 0 24 24" xmlns="http://www.w3.org/2000/svg"><path d="M20.51.5v0H1.79C1.04.5.06 1.125-.02 2.26v17.13h.002v2.32c.08 1.13 1.05 1.76 1.8 1.76H3.28l0-.01H22.15c1.25-.06 1.76-1.07 1.82-1.7v-3.03h-.01V2.17c-.06-.64-.57-1.65-1.83-1.71h-1.66ZM3.4 1.615h17.15c.89 0 1.61.72 1.61 1.61v16.64c0 .89-.72 1.62-1.62 1.62H3.38h0c-.9 0-1.62-.73-1.62-1.62 -.01-.01-.01-.01 0-.01V3.215c0-.9.72-1.62 1.62-1.62ZM6.71 14.02l-1.9 5.03h.7l.52-1.47h2.02l.49 1.46h.74L7.45 14h-.78Zm8.43 0v5.03h.67v-1.77l.79-.76 1.76 2.52h.88l-2.154-3.01 2.09-2.04h-.94l-2.45 2.44v-2.45h-.68Zm-5.16.02v5.03h.68v-2.36h2.628v2.35h.68v-5.04h-.69v2.08H10.65v-2.09h-.69Zm-2.926.71h.01l.742 2.21H6.23l.8-2.22Z"/></svg>