<svg viewBox="0 0 24 24" xmlns="http://www.w3.org/2000/svg"><path d="M5.45 5.72v0c.26.15.48.38.61.66q.27.62.6 1.36c.22.49.44.98.66 1.49 .22.5.43.99.63 1.47 .2.47.38.91.54 1.31 .16.39.28.73.38 1h0c.07.17.11.35.14.54h0c-.01.14-.03.29-.06.43v0c-.04.14-.12.27-.22.39v0c-.13.12-.27.22-.44.28v0c-.24.07-.48.11-.73.1v0c-.26 0-.52-.04-.77-.125v0c-.19-.08-.35-.19-.49-.32v0c-.13-.13-.24-.27-.33-.42q-.13-.22-.27-.42v0c-.09-.13-.2-.24-.32-.32H5.37c-.15-.1-.31-.14-.48-.125h-.84v0c-.21-.01-.41.03-.58.125v0c-.14.07-.26.18-.36.31h0c-.1.13-.18.26-.26.41h0c-.09.14-.19.28-.31.41H2.54c-.14.13-.3.24-.48.31H2.06c-.26.09-.53.13-.79.125h0c-.39.03-.77-.09-1.07-.33h0c-.22-.2-.35-.48-.34-.77h0c.01-.21.06-.41.13-.6 .09-.29.21-.62.37-1.01 .16-.4.34-.83.54-1.31 .19-.48.41-.97.63-1.48 .22-.51.45-1.02.67-1.53q.33-.77.65-1.47l0 0c.12-.28.33-.5.6-.64v0c.28-.16.61-.24.94-.24v0c.31 0 .62.09.89.27Zm10.52.04h0c.22.19.34.48.33.78h-.001c-.02.24-.06.48-.14.71 -.1.29-.21.62-.36 1 -.15.37-.31.77-.5 1.21 -.19.43-.375.875-.57 1.32 -.26.61-.49 1.17-.67 1.66l0 0c-.16.43-.36.84-.58 1.25h-.001c-.17.3-.38.57-.64.79h0c-.25.19-.55.29-.86.28h-.001c-.31.01-.61-.07-.87-.23h0c-.26-.19-.48-.42-.63-.7h0c-.22-.38-.41-.77-.55-1.17 -.18-.47-.39-1.03-.64-1.67q-.28-.73-.56-1.43c-.2-.47-.37-.9-.53-1.29 -.16-.39-.29-.75-.39-1.05l0-.001c-.09-.24-.14-.48-.15-.73H7.65c-.03-.34.12-.67.4-.86v0c.3-.19.65-.28 1-.26V5.36c.29-.02.57.03.85.13v0c.19.08.37.2.52.35v0c.12.13.23.28.31.45v0c.11.21.2.43.29.65 .09.23.18.47.27.72 .09.24.17.46.25.67v0c.06.17.13.33.22.49 .07.125.14.18.2.18q.1 0 .21-.19v0c.08-.16.16-.33.22-.49 .07-.2.15-.42.24-.66 .08-.24.17-.48.25-.71V6.95c.08-.22.17-.44.28-.65v0c.07-.17.18-.32.3-.45V5.85c.08-.09.18-.17.28-.25v0c.09-.07.19-.13.3-.17l0-.001c.11-.05.24-.08.37-.1h-.001c.16-.03.33-.04.5-.04v0c.31-.02.63.09.87.3Zm4.42-.05v0c.26.15.48.38.61.66q.27.62.6 1.36c.22.49.44.98.66 1.49 .22.5.43.99.63 1.47 .2.47.38.91.54 1.31 .16.39.28.73.38 1v0c.07.17.11.35.14.54v0c-.01.14-.03.29-.06.43v0c-.04.14-.12.27-.22.39v0c-.12.12-.27.22-.44.28v-.001c-.24.07-.48.11-.73.1v0c-.26 0-.52-.04-.77-.125h0c-.19-.08-.35-.19-.49-.32v-.001c-.13-.13-.24-.27-.33-.42q-.13-.22-.27-.42v0c-.09-.13-.2-.24-.32-.32v0c-.15-.1-.31-.14-.48-.125H19v0c-.21-.01-.41.03-.58.125h0c-.14.07-.26.18-.36.31v0c-.1.13-.18.26-.26.41v0c-.09.14-.19.28-.31.41v0c-.14.13-.3.24-.48.31v0c-.26.09-.53.13-.79.125v0c-.39.03-.77-.09-1.07-.33v0c-.22-.2-.35-.48-.34-.77v0c.01-.21.06-.41.13-.6 .09-.29.21-.62.37-1.01 .15-.39.33-.83.53-1.3 .19-.48.41-.97.63-1.48 .22-.51.45-1.02.67-1.53q.33-.77.65-1.47V6.2c.12-.28.33-.5.6-.64v0c.28-.16.61-.24.94-.24v0c.32 0 .63.09.9.27ZM4.52 18.52v0c.07 0 .13-.04.17-.11 0-.01.28-.53.56-1.14 .14-.31.28-.64.39-.95 .05-.16.09-.31.13-.44v-.001c.03-.13.05-.25.05-.375v0c0-.42-.15-.82-.44-1.12v0c-.48-.49-1.25-.5-1.73-.03 -.01 0-.02.01-.03.02H3.61c-.29.29-.45.69-.44 1.11v0c0 .12.02.25.05.375H3.22c.07.26.15.53.26.78 .33.83.81 1.72.81 1.73v0c.03.06.1.09.17.1Zm14.94 0h0c.07 0 .13-.04.17-.11 0-.01.28-.53.56-1.14 .14-.31.28-.64.39-.95 .05-.16.09-.31.13-.44h0c.03-.13.05-.25.05-.375v0c0-.42-.15-.82-.44-1.12v0c-.48-.49-1.25-.5-1.73-.03 -.01 0-.02.01-.03.02v0c-.29.29-.45.69-.44 1.11v-.001c0 .12.02.25.05.375v0c.07.26.15.53.26.78 .33.83.81 1.72.81 1.73v0c.03.06.1.09.17.1Z"/></svg>