<svg viewBox="0 0 24 24" xmlns="http://www.w3.org/2000/svg"><path d="M10.87 17.58c1.96 0 4.42-1.81 4.42-4.27 0-.72-.16-1.44-.46-2.1l-3.42-8.34h5.72L15.62-.02H7.45l4.68 11.56c-2 .43-3.83 1.99-3.83 3.79 0 1.3.94 2.22 2.53 2.22 .02 0 0 0 5.1-11.51h3.34l3.56 6.15h-.001c.68 1.23 1.06 2.61 1.11 4.02 0 4.5-3.55 7.74-8.58 7.74H8.49c-5.04 0-8.58-3.24-8.58-7.74 .04-1.42.42-2.79 1.11-4.03l3.55-6.15h3.34l-4.18 7.26 0-.001c-.51.87-.8 1.85-.83 2.86 0 2.86 1.95 4.9 5.65 4.9h6.65c3.68 0 5.65-2.04 5.65-4.91h0c-.04-1.01-.32-2-.84-2.87L15.83 6h3.34 -3.35"/></svg>