<svg viewBox="0 0 24 24" xmlns="http://www.w3.org/2000/svg"><path d="M22.63 5.186H1.35c-.75 0-1.37.61-1.37 1.362v10.903c0 .75.614 1.36 1.363 1.36H22.61c.75 0 1.36-.62 1.36-1.37V6.53c0-.75-.62-1.362-1.37-1.362Zm1.03 12.265v0c0 .57-.47 1.03-1.04 1.04H1.34v0c-.58-.01-1.04-.47-1.04-1.04V6.548v0c0-.58.46-1.04 1.03-1.04h21.274 0c.57 0 1.03.46 1.03 1.03v10.9Zm-.69-5.491c-.12-.27-.42-.34-.69-.31v0c.36-.23.61-.6.69-1.01 .05-.29.04-.577.03-.87 -.02-1.03 0-2.12 0-3.07v0c-.01-.32-.26-.57-.57-.57 -2.26-.02-4.51.04-6.77-.02 -.36-.03-.75.15-.77.55 -.01 3.418 0 7.18-.01 10.55 -.1.74.96.79.91.05v-4.11l-.001-.001c.08-.42.33-.78.69-1.01 .96-.64 2.3.01 2.3 1.18 0 1.27 0 3.93 0 4.02 0 .22.16.42.39.45 .31 0 2.49 0 3.25 0 .3 0 .54-.28.54-.57v-2.07l-.01-2.635c0-.2.03-.43-.06-.62Zm-.88-2.05c0 .84-.74 1.484-1.58 1.49 -.843 0-1.58-.55-1.58-1.49V8.56c0-.94.67-1.577 1.57-1.577s1.57.71 1.57 1.577v1.35ZM8.91 15.394v-2.28c0-.59-.34-1.18-.83-1.49 .49-.31.85-.859.82-1.46 -.01-1.17.01-2.33-.01-3.5v0c-.01-.31-.27-.56-.57-.55 -2.29.01-4.566 0-6.851 0v0c-.3 0-.54.23-.55.53C.89 10.178.89 13.72.9 17.254c0 .28.249.55.55.55 2.175 0 4.67-.02 6.84-.01v0c.31 0 .57-.25.58-.57 0-.01 0-.02 0-.03 .01-.62-.01-1.24 0-1.86Zm-.9.12c0 .83-.66 1.46-1.48 1.468 -.82 0-1.59-.52-1.59-1.45v-1.98c0-1.06.71-1.58 1.59-1.58 .87 0 1.48.69 1.48 1.55v1.98Zm.02-5.74c-.03.85-.73 1.42-1.52 1.47 -.86.05-1.59-.59-1.59-1.48v-1.28c0-.93.7-1.56 1.58-1.56 .87 0 1.51.7 1.51 1.56v1.27Zm6.15 4.31c-.11-.06-.23-.04-.35-.04 0-.18-.01-.35 0-.52 0-.16.02-.36-.13-.46v0c-.05-.03-.11-.05-.16-.05 -.14-.01-.266.08-.3.22v.82h0c-.35-.01-.7-.01-1.05-.01 -.32-.01-.42-.26-.42-.54 .01-.35-.05-.702.04-1.04 .06-.2.23-.266.43-.266h1.07c.16 0 .29-.14.29-.3v0c-.01-.17-.14-.3-.31-.29 -.01 0-.01 0-.01 0h-3.14c-.16 0-.33-.02-.45.1 -.08.08-.1.18-.11.28 -.01.68 0 1.38 0 2.067 .02.13.13.23.27.23l-.001-.001c-.13 0-.24.08-.27.21 -.03.91 0 1.84-.01 2.763 0 .14-.01.29.09.4 .1.1.24.1.38.1 1.06 0 2.12-.02 3.18.01 .23 0 .52-.07.52-.36v-2.86h.2c.29 0 .39-.42.13-.55Zm-.9 2.72c0 .18-.15.32-.33.32h-.74c-.26 0-.42-.24-.42-.42V15.29c0-.3.09-.67.46-.67h1.02v2.16Z"/></svg>