<svg viewBox="0 0 24 24" xmlns="http://www.w3.org/2000/svg"><path d="M15.19 7.57c.48-.17 1.04-.31 1.53-.46 -1.41-.6-3.18-1.23-4.77-1.625 -.26.07-1.01.27-1.54.43 .54.16 2.32.577 4.76 1.64ZM6.29 14.35c.577.34 1.19.81 1.78 1.2 3.952-3.07 7.85-5.44 12.127-6.77 -.6-.31-1.12-.58-1.79-.91 -2.57.65-6.95 2.4-12.126 6.46ZM5.53 7.89C3.41 8.86 1.2 10.2-.01 10.97c.43.19.86.36 1.46.65C4.12 9.81 6.21 8.71 7.04 8.35c-.6-.22-1.154-.37-1.52-.47Zm8.06.23c-.69-.38-3.07-1.27-4.71-1.65 -.49.18-1.173.45-1.65.65 .59.16 2.81.758 4.71 1.71 .48-.24 1.173-.53 1.64-.73Zm-3.38 1.55c-.56-.27-1.173-.53-1.65-.74 -1.43.7-3.29 1.76-5.63 3.44 .5.27 1.04.59 1.62.92 1.8-1.34 3.62-2.6 5.64-3.63Zm1.73 8.825c3.79-3.25 9.113-6.407 12.03-7.55l0 0c-.65-.41-1.3-.79-1.95-1.16 -3.78 1.24-8.174 4-12.11 7.12 .66.5 1.37 1.02 2.02 1.57Zm2.85-.24h-.11l-.18-.27h-.11v.27h-.08v-.6h.27c.05 0 .1 0 .14.03 .05.01.07.07.07.12 0 .1-.09.16-.2.16Zm-.29-.35c.09 0 .19.01.19-.09 0-.08-.08-.09-.15-.09h-.17v.18Zm-.53.03c0-.29.23-.53.54-.53 .3 0 .54.23.54.52v0c-.01.29-.25.54-.55.54v0c-.3 0-.54-.24-.55-.53 -.01-.01-.01-.02 0-.02m.1 0c0 .23.19.43.45.43v0c.23 0 .42-.19.42-.43s-.19-.43-.43-.43c-.01 0-.01 0-.01 0 -.27 0-.45.19-.45.41"/></svg>