<svg viewBox="0 0 24 24" xmlns="http://www.w3.org/2000/svg"><path d="M12.65 22.453c-4.04 0-7.58-1.56-10.25-4.5H2.39c-.28-.31-.37-.75-.22-1.14 .7-1.89 2.59-6.29 5.02-6.3h.01c1.21 0 2.13.96 2.86 1.74 .21.23.55.58.78.76 .56-.56 1.67-2.42 2.54-4.28 .25-.56.92-.8 1.47-.55 .55.25.79.91.54 1.47 -2.63 5.65-4.02 5.65-4.48 5.65 -1.03 0-1.77-.79-2.48-1.55 -.33-.34-.99-1.045-1.25-1.045h-.01c-.57.09-1.81 2.05-2.7 4.2 2.19 2.17 4.92 3.27 8.12 3.27 4.39 0 7.683-1.2 9.09-3.3 -.49-5.59-3.57-13.17-9.1-13.17 -4.69 0-8.22 3.26-10.5 9.7 -.21.57-.85.88-1.42.67 -.58-.21-.882-.84-.68-1.42C2.61 5.23 6.84 1.46 12.569 1.46c7.48 0 10.93 9.56 11.34 15.58v0c.01.22-.04.43-.15.63 -1.75 3.02-5.72 4.68-11.21 4.68Z"/></svg>