<svg viewBox="0 0 24 24" xmlns="http://www.w3.org/2000/svg"><path d="M17.39 13.003c.24-1.31 1.79-1.98 2.936-1.91 .43.02.82.15 1.03.41 .09-.09.18-.2.26-.29 .05-.06.2-.04.34-.02 .15.02.32.09.42.09 .1 0 .36-.08.6-.12 .24-.04.46-.03.42.06l-.22.53 -.71 1.73c-.15.34.41.25 1.16-.55 .12.09.19.1.32.42 -.66.56-1.27.96-2.128 1.25 -.77.27-1.346-.12-1.53-.76 -1.11 1.02-2.628 1.013-3.064-.15 -.718.359-1.564.73-1.923.83 -.29.07-.53.14-.77.14 -.39 0-.8-.35-.67-.88 -.63.28-1.13.46-1.846.7 -.77.27-1.218-.03-1.4-.67 -1.11 1.02-2.628 1.013-3.064-.15 -.44.2-1.03.51-1.577.73 -.89.39-1.923.32-2.7-.49l.25-.4c.359.38.8.37 1.15.05 .37-.34.6-.98.43-1.513 -.08-.23-.34-.41-.84-.39l.15-.41c.5-.02.89-.09 1.11-.4 .3-.45.3-1.13-.35-1.12v0c-.14 0-.28.03-.41.07 -.12.33-.31.73-.48 1.14 -.38.95-.782 2-1.26 2.68 -.57.8-1.18.96-1.667.93 -.512-.04-.91-.2-1.474-.7 0-.22.01-.31.064-.577 .21.26.89.56 1.115.24 .488-.718 1.026-2.11 1.43-3 -.359.11-.71.34-1.18.68 0-.06-.16-.18-.16-.34 .77-.89 2.11-1.423 3.026-1.62 1.39-.3 2.88.12 3.115 1.013 .15.59-.54 1.14-1.2 1.218 .37.21.76.6.87 1.077 .05.23.03.48-.04.73 .21-.11.48-.23.65-.31 .27-1.89 3.192-2.487 3.987-1.59l.27-.29c.05-.06.2-.04.34-.02 .15.02.32.09.42.09 .1 0 .359-.08.6-.12 .24-.04.46-.03.42.06l-.91 2.269c-.21.51 1.3-.4 1.39-.45l.65-1.39 -.67.01 .11-.57h.74c.12-.17.15-.359.32-.48 .21-.17.71-.08.94-.23 .2-.13.35-.33.53-.63 .15-.26.74-.2.62.05l-.52 1.295h.65c.3.01.03.53-.31.53l-.54.01 -.63 1.62c-.21.5.59.02 1.19-.32Zm-6.02-1.12c-.08-.25-.29-.31-.48-.3 -.44.05-.859.53-1.077.87 -.35.53-.27 1.346.29 1.19 .577-.16 1.36-1.41 1.25-1.77Zm9.666 0c-.08-.25-.29-.31-.48-.3 -.44.05-.86.53-1.08.87 -.35.53-.27 1.346.29 1.19 .57-.16 1.35-1.41 1.25-1.77Z"/></svg>