<svg viewBox="0 0 24 24" xmlns="http://www.w3.org/2000/svg"><path d="M20.97 22.26c-.33 0-.66-.09-.95-.26v0c-.9-.52-1.21-1.67-.7-2.57 0-.01 0-.01 0-.01 1.91-3.3.77-7.54-2.54-9.45v0c-1.05-.61-2.24-.93-3.45-.92 -.33 0-.66-.09-.95-.26v0c-.9-.52-1.21-1.66-.7-2.56 0-.01 0-.01 0-.02 .33-.58.94-.93 1.62-.94 1.86 0 3.71.49 5.33 1.42v0c2.44 1.41 4.23 3.74 4.95 6.47v0c.73 2.73.35 5.64-1.07 8.09 -.33.57-.96.93-1.63.93l.04 0ZM9.49 23.57H9.48c-3.82-.01-7.34-2.04-9.26-5.34H.22c-.52-.9-.21-2.05.68-2.56 0-.01 0-.01 0-.01 .87-.51 2.066-.18 2.56.68v0c1.23 2.13 3.52 3.45 5.99 3.45 1.2 0 2.39-.32 3.44-.93l0-.001c1.04-.62 1.91-1.5 2.52-2.55 .16-.29.39-.53.69-.69 .85-.51 2.05-.18 2.55.67 .33.57.33 1.29-.02 1.87v0c-.94 1.62-2.29 2.96-3.91 3.9v0c-1.63.93-3.47 1.42-5.34 1.42l.05.02Zm.74-16.64v0C9.07 7.99 8.41 9.5 8.41 11.08c0 1.03.27 1.99.76 2.82 .27.46.42.99.42 1.56v-.001c-.01 1.2-.7 2.3-1.79 2.82 1.46.45 3.08.31 4.5-.52h0c.85-.5 1.57-1.22 2.07-2.07v0c.27-.48.67-.88 1.15-1.15v0c1.04-.61 2.35-.56 3.34.13v0c-.34-1.55-1.32-2.87-2.69-3.65v0c-.86-.5-1.83-.76-2.82-.76 -.54 0-1.08-.15-1.57-.42v0c-1.05-.61-1.66-1.77-1.55-2.98l-.05.01ZM6.46 17.35c-.67 0-1.29-.36-1.63-.94H4.82c-.94-1.62-1.44-3.46-1.43-5.34C3.39 5.18 8.16.4 14.059.4v0c1.03.03 1.84.9 1.81 1.94 -.04.99-.84 1.78-1.83 1.81 -3.82 0-6.91 3.1-6.91 6.9v0c-.01 1.21.31 2.4.92 3.45v-.001c.51.89.2 2.04-.7 2.56 -.29.16-.61.25-.94.25v0Z"/></svg>