<svg viewBox="0 0 24 24" xmlns="http://www.w3.org/2000/svg"><path d="M20.001 3.1c0-.06 0-.19.06-.19 .09 0 .16.19.19.27 .48 1.54.35 3.44-.35 5.58 2.75 1.47 4.33 3.38 4.052 5.16 -.38 2.34-3.83 3.72-8.47 3.56l-.001-.001c.54-.59 1.06-1.2 1.55-1.83 1.78-.35 3.06-1.06 3.4-2.19 .24-.83-.32-1.74-1.4-2.6 -1.77 3.72-4.73 7.05-7.46 8.98 1.32 1.68 2.55 2.85 3.96 3.51 .05.02.16.09.12.14 -.05.07-.26.05-.33.03 -1.59-.36-3.16-1.42-4.673-3.093 -2.66 1.65-5.1 2.06-6.51.92 -1.85-1.5-1.32-5.18 1.13-9.106 .19.63.5 1.52.806 2.253 -.6 1.72-.63 3.18.19 4.04 .59.62 1.66.59 2.94.08 -2.325-3.4-3.74-7.62-4.04-10.954 -2.13.3-3.76.78-5.03 1.67 -.05.03-.16.09-.2.04 -.05-.08.082-.24.137-.31 1.098-1.2 2.81-2.03 5.012-2.5 -.11-3.13.758-5.45 2.45-6.093C9.754-.39 12.674 1.9 14.85 6l-.001 0c-.78-.18-1.57-.33-2.36-.43 -1.2-1.38-2.45-2.13-3.6-1.86 -.84.2-1.35 1.14-1.55 2.5 4.1-.34 8.47.56 11.51 1.96 .8-1.984 1.19-3.64 1.06-5.19Zm-9.6 15.057c3.25-1.86 5.88-4.696 7.63-7.965 -3.24-1.88-7.013-2.75-10.72-2.63 -.01 3.74 1.12 7.45 3.08 10.594Z"/></svg>