<svg viewBox="0 0 24 24" xmlns="http://www.w3.org/2000/svg"><path d="M13.004 13c0 .74-.93.7-.93.7h-.93v-1.343h.92c.952-.01.92.64.92.64m-1.85-2.7h.7c.73.04.7.58.7.58 0 .67-.81.68-.81.68h-.6Zm1.67 1.53s.63-.27.62-.99c0 0 .09-1.173-1.46-1.32h-1.73v4.917h1.97s1.65 0 1.65-1.388c0 0 .04-.95-1.08-1.23M8.3 8.546h7.25v6.84H8.29Zm-3.74 4.42c0 .74-.93.7-.93.7H2.7V12.32h.92c.952-.01.92.64.92.64m-1.85-2.7h.7c.73.04.7.58.7.58 0 .67-.81.68-.81.68h-.6Zm1.67 1.53s.633-.27.62-.99c0 0 .09-1.173-1.46-1.32H1.79V14.4H3.77s1.65 0 1.65-1.388c0 0 .04-.95-1.08-1.23M-.13 8.51H7.13v6.84H-.13Zm22.52 1.31v.9s-.89-.55-1.87-.56c0 0-1.83-.04-1.91 1.75 0 0-.07 1.64 1.88 1.73 0 0 .82.09 1.93-.61v.94s-1.5.88-3.22.2c0 0-1.46-.53-1.51-2.28 0 0-.06-1.79 1.87-2.385 0 0 .51-.2 1.44-.11 0 0 .55.05 1.36.39m-5.78 5.52h7.259V8.46H16.58Z"/></svg>