<svg viewBox="0 0 24 24" xmlns="http://www.w3.org/2000/svg"><path d="M12 15.59v0c1.98-.01 3.59-1.62 3.59-3.6 -.01-1.99-1.62-3.6-3.6-3.6 -1.99 0-3.6 1.61-3.6 3.59v-.001c-.01 1.98 1.61 3.59 3.59 3.59 0 0 0 0 0 0Zm0-15.6V-.02c-1.23-.01-2.44.18-3.6.55v6.64h0c2.65-1.99 6.41-1.46 8.39 1.19 1.98 2.65 1.45 6.41-1.2 8.39 -2.66 1.98-6.42 1.45-8.4-1.2 -.78-1.04-1.2-2.31-1.2-3.6V1.55L5.98 1.55c-5.75 3.3-7.72 10.64-4.41 16.38 3.3 5.74 10.64 7.71 16.38 4.4 5.74-3.31 7.71-10.65 4.4-16.39 -2.15-3.72-6.1-6.01-10.39-6.01Z"/></svg>