<svg viewBox="0 0 24 24" xmlns="http://www.w3.org/2000/svg"><path d="M7.88.75c3.32-1.26 7.2-.94 10.26.89 2.82 1.69 5.055 4.71 5.55 7.5 -1.26 0-1.56.03-2.79.03 -.8-2.59-3.73-5.48-6.11-6.07 -3.13-.66-5.64-.2-7.81 1.33 -1.6 1.09-3.09 3-3.65 4.87 -.82 2.4-.16 5.81 1.23 7.92 1.09 1.57 3.005 3.06 4.836 3.64 1.79.55 4.71.03 6.48-.6 2.48-.92 4.31-3.19 5.11-5.7l-3.47.03c-.16 1.15-.34 1.55-1.04 2.88l-9.5-.02V6.36h9.473c1.13 1.43 1.31 3.68 1.33 5.57 0 0 3.8.02 6.12 0 -.04 3.6-1.56 7.16-4.42 9.39 -2.09 1.65-4.72 2.6-7.39 2.6 -3.73.05-7.43-1.74-9.66-4.72C.98 17.36.23 15.12-.07 12.85c-.08-1.4.02-2.09.03-2.17 .25-1.62.67-3.21 1.49-4.6C2.82 3.59 5.09 1.64 7.75.66M9.57 8.83v6.22l4.59.02c1.03-1.2.99-1.98-.04-3.07 1.03-1.1 1.09-2.25.02-3.19H9.56Z"/></svg>