<svg viewBox="0 0 24 24" xmlns="http://www.w3.org/2000/svg"><path d="M12 0v0C5.37 0 0 5.37 0 12v0c0 6.62 5.37 12 12 12v0c6.62 0 12-5.38 12-12v0c0-6.63-5.38-12-12-12ZM6.838 4.516c.74 0 1.37.36 1.9 1.09 .52.72.78 1.6.78 2.62v6.76c0 .53.27.8.8.8h4.17c.53 0 .8-.27.8-.81V11.77c0-.52-.27-.79-.81-.81h-.81c-1.05-.04-1.923-.31-2.64-.82C10.3 9.63 9.95 9 9.95 8.261h4.52c.97 0 1.79.34 2.47 1.02v0c.66.64 1.03 1.54 1.02 2.47v3.205c0 .97-.35 1.79-1.03 2.47 -.69.68-1.51 1.02-2.48 1.02h-4.18c-.97 0-1.795-.34-2.48-1.03h0c-.67-.65-1.04-1.55-1.03-2.48V4.45Z"/></svg>