<svg viewBox="0 0 24 24" xmlns="http://www.w3.org/2000/svg"><path d="M12.645 13.663h3.02c.86 0 1.4-.48 1.4-1.24 0-.72-.55-1.234-1.41-1.234h-3.03c-.1 0-.19.08-.19.17v2.125c.01.1.08.17.18.17Zm0 4.89h3.128c.96 0 1.53-.49 1.53-1.35 0-.75-.55-1.35-1.54-1.35H12.63c-.1 0-.19.08-.19.17v2.34c.01.11.08.18.18.18ZM23.72.04l-8.96 8.93h1.46c2.28 0 3.63 1.43 3.63 3 0 1.23-.84 2.14-1.73 2.54 -.15.05-.15.25.01.31 1.03.4 1.76 1.48 1.76 2.74 0 1.78-1.19 3.2-3.5 3.2h-6.35c-.1 0-.19-.09-.19-.18v-6.77l-9.83 9.79c-.13.13-.05.35.14.35h23.631v0c.08-.01.15-.08.15-.16V.13c.04-.16-.16-.25-.28-.13Z"/></svg>