<svg viewBox="0 0 24 24" xmlns="http://www.w3.org/2000/svg"><path d="M14.64 14.423l0-.01 -.001-.001c-.1.26-.27.49-.5.65 -.27.18-.65.33-1.19.36l-1.99 0v-2.93c.28 0 1.56-.02 2.11.01 .72.03 1.17.32 1.41.66 .26.35.29.82.14 1.22Zm-2.13-3.27c.5-.03.85-.17 1.1-.34 .21-.15.375-.37.46-.62 .13-.375.1-.81-.14-1.14 -.23-.32-.64-.59-1.31-.62 -.5-.03-1.42-.01-1.67-.01v2.7c.02 0 1.53-.01 1.545-.01Zm11.48.83c0 6.62-5.38 12-12 12 -6.63 0-12-5.38-12-12 0-6.63 5.373-12 12-12 6.62 0 12 5.373 12 12Zm-6.65 2.14c.02-1.48-1.24-2.34-1.91-2.58 .71-.5 1.2-1.05 1.2-2.09 0-1.66-1.65-2.43-2.65-2.529 -.09-.01-.31-.02-.31-.02V5.31h-1.64l0 1.58h-1.1V5.31H9.27V6.88c-.3 0-2.05 0-2.05 0v1.4h.57c.6.01.82.36.798.67v6.041 -.001c-.01.2-.17.37-.38.391 -.25.01-.63 0-.63 0l-.32 1.58h1.99v1.6h1.66v-1.6h1.09v1.59h1.62v-1.59c1.89.05 3.64-1.08 3.66-2.92Z"/></svg>