<svg viewBox="0 0 24 24" xmlns="http://www.w3.org/2000/svg"><path d="M23.638 14.904c-1.61 6.43-8.113 10.34-14.542 8.736C2.66 22.05-1.25 15.525.35 9.105 1.95 2.665 8.46-1.25 14.89.35c6.43 1.6 10.342 8.115 8.73 14.54v-.01Zm-6.35-4.62c.24-1.59-.98-2.45-2.64-3.03l.54-2.16 -1.32-.33 -.53 2.107c-.35-.09-.71-.17-1.064-.25l.52-2.127 -1.32-.33 -.54 2.165c-.29-.07-.57-.14-.84-.2l-1.82-.45 -.35 1.407s.97.22.95.23c.53.13.63.48.61.766l-1.48 5.92c-.08.16-.24.4-.62.31 .01.02-.96-.24-.96-.24l-.66 1.51 1.71.42 .93.24 -.54 2.19 1.32.32 .54-2.17c.36.1.7.19 1.05.27l-.51 2.15 1.32.33 .54-2.19c2.24.42 3.93.25 4.64-1.78 .57-1.64-.03-2.58-1.22-3.2 .85-.2 1.5-.76 1.68-1.93h.01Zm-3.01 4.22c-.41 1.64-3.157.75-4.05.53l.72-2.9c.89.23 3.75.67 3.33 2.37Zm.41-4.24c-.37 1.49-2.67.73-3.41.55l.65-2.64c.74.18 3.13.52 2.75 2.08v0Z"/></svg>