<svg viewBox="0 0 24 24" xmlns="http://www.w3.org/2000/svg"><path d="M13.05 21.26c-1.35.02-2.33-.41-2.39-1.59 -.03-.44-.02-.91 0-1.2 .13-1.72 1.33-2.95 2.53-3.19 1.48-.3 2.455.38 2.455 2.31 0 1.3-.36 3.61-2.59 3.657h-.02ZM11.91 0C5.3 0-.02 5.297-.02 12.22c0 3.59 1.92 7.06 4.62 9.14 .52.4 1.138.36 1.49.02 .29-.29.27-.99-.29-1.48 -2.16-1.89-3.66-4.76-3.66-7.635 0-5.15 4.58-9.49 9.74-9.49 6.28 0 9.636 5.1 9.636 9.43 0 2.65-1.29 5.84-3.63 7.87 .01 0 .49-.95.49-2.79 0-3.13-1.98-4.836-4.28-4.836 -1.67 0-2.667.59-3.34 1.15 0-1.28.04-3.66.04-3.66 0-1.58-.54-2.83-2.47-2.86 -1.11-.02-1.94.49-2.44 1.64 -.18.43-.12.91.25 1.125 .3.18.81.04 1.04-.29 .16-.21.25-.26.4-.24 .24.03.25.4.25.66 .01.19.19 2.9.08 9.86 -.01 1.91 1.5 4.11 5.11 4.11 1.56 0 2.75-.44 4.493-1.43 2.65-1.5 6.407-4.82 6.407-10.45C23.87 4.97 18.183-.07 11.85-.07"/></svg>