<svg viewBox="0 0 24 24" xmlns="http://www.w3.org/2000/svg"><path d="M23.51 13.45c-.28-1.89-.7-3.79-1-5.05 -.36-1.51-1.64-2.58-3.18-2.673 -1.52-.1-4.03-.21-7.37-.21 -3.35 0-5.85.1-7.37.2 -1.54.09-2.82 1.16-3.18 2.673 -.3 1.26-.72 3.16-1 5.04 -.191 1.27-.34 2.76-.46 4.46 -.06.94.25 1.84.88 2.55 .63.7 1.49 1.12 2.44 1.15 2.07.09 5.26.21 8.66.21 3.401 0 6.587-.12 8.66-.22 .94-.05 1.81-.46 2.44-1.16 .63-.71.94-1.62.88-2.56 -.14-1.7-.29-3.2-.48-4.47Zm-1.65 5.91c-.34.37-.79.58-1.29.6 -2.07.09-5.22.21-8.6.21s-6.53-.12-8.6-.22c-.51-.03-.96-.24-1.29-.61 -.34-.37-.51-.85-.47-1.35 .1-1.65.25-3.11.44-4.34 .26-1.83.66-3.68.96-4.91 .19-.8.85-1.37 1.68-1.42 1.49-.1 3.96-.21 7.26-.21 3.29 0 5.77.1 7.26.2 .81.04 1.49.62 1.68 1.42 .28 1.22.69 3.07.96 4.9 .17 1.22.32 2.68.44 4.33 0 .5-.17.97-.49 1.34ZM11.97 4.18c.56 0 1.02-.46 1.02-1.02 0-.57-.46-1.03-1.03-1.03 -.57 0-1.03.45-1.03 1.02 0 .54.46 1.01 1.02 1.01Zm5.96 7.84c-.91 0-1.65.73-1.65 1.64h3.29c0-.907-.73-1.65-1.65-1.65Zm-11.933 0c-.91 0-1.65.73-1.65 1.64h3.29c0-.907-.73-1.65-1.65-1.65Zm5.96 5.96c1.46 0 2.66-1.2 2.66-2.67H9.28c0 1.45 1.19 2.66 2.673 2.66Z"/></svg>