<svg viewBox="0 0 24 24" xmlns="http://www.w3.org/2000/svg"><path d="M4.15 7.78h-.001c0-.88.71-1.6 1.59-1.6 .87 0 1.59.71 1.59 1.59v0c0 .87-.72 1.59-1.6 1.59 -.88 0-1.6-.72-1.6-1.6Zm5.74 1.59v0c.87 0 1.59-.72 1.59-1.6 0-.88-.72-1.6-1.6-1.6v0c-.88 0-1.6.71-1.6 1.59 0 .87.71 1.59 1.59 1.59Zm4.218 0v0c.87 0 1.59-.72 1.59-1.6 0-.88-.72-1.6-1.6-1.6v0c-.88 0-1.6.71-1.6 1.59 0 .87.71 1.59 1.59 1.59Zm4.15 0v0c.87 0 1.59-.72 1.59-1.6 0-.88-.72-1.6-1.6-1.6v0c-.88 0-1.6.71-1.6 1.59 0 .87.71 1.59 1.59 1.59ZM5.74 10.4v0c-.88 0-1.6.71-1.6 1.59 0 .87.71 1.59 1.59 1.59h0c.87-.01 1.59-.72 1.59-1.6 -.01-.88-.72-1.6-1.6-1.6Zm8.36 0v0c-.88 0-1.6.71-1.6 1.59 0 .87.71 1.59 1.59 1.59h0c.87-.01 1.59-.72 1.59-1.6 -.01-.88-.72-1.6-1.6-1.6Zm4.15 0v0c-.88 0-1.6.71-1.6 1.59 0 .87.71 1.59 1.59 1.59h0c.87-.01 1.59-.72 1.59-1.6 -.01-.88-.72-1.6-1.6-1.6Zm4.15 3.18v0c.87 0 1.59-.72 1.59-1.6 0-.88-.72-1.6-1.6-1.6 -.01 0-.01 0-.01 0v0c-.88 0-1.6.71-1.6 1.59 0 .87.71 1.59 1.59 1.59ZM1.58 10.39v0c-.88-.01-1.6.71-1.6 1.59 -.01.87.71 1.59 1.59 1.59 0 0 0 0 0 0v0c.87-.01 1.59-.72 1.59-1.6 -.01-.88-.72-1.6-1.6-1.6Zm4.15 4.218v0c-.88 0-1.6.71-1.6 1.59 0 .87.71 1.59 1.59 1.59v0c.87-.01 1.59-.72 1.59-1.6 -.01-.88-.72-1.6-1.6-1.6Zm12.518 0v0c-.88 0-1.6.71-1.6 1.59 0 .87.71 1.59 1.59 1.59h0c.87-.01 1.59-.72 1.59-1.6 -.01-.88-.72-1.6-1.6-1.6Zm4.15 0v0c-.88 0-1.6.71-1.6 1.59 0 .87.71 1.59 1.59 1.59h0c.87-.01 1.59-.72 1.59-1.6 -.01-.88-.72-1.6-1.6-1.6Zm-20.818 0v0c-.88 0-1.6.71-1.6 1.59 0 .87.71 1.59 1.59 1.59v0c.87-.01 1.59-.72 1.59-1.6 -.01-.88-.72-1.6-1.6-1.6m8.3-4.218v0c-.88-.01-1.6.71-1.6 1.59 -.01.87.71 1.59 1.59 1.59 0 0 0 0 0 0v0c.87-.01 1.59-.72 1.59-1.6 -.01-.88-.72-1.6-1.6-1.6Z"/></svg>