<svg viewBox="0 0 24 24" xmlns="http://www.w3.org/2000/svg"><path d="M3.75 0h0C1.67 0 0 1.67 0 3.75v16.5 0C0 22.32 1.67 24 3.75 24h16.5v0c2.07 0 3.75-1.68 3.75-3.75V3.75v0C24 1.67 22.32 0 20.25 0Zm1.36 2.92h13.8c.2 0 .38.07.54.22v0c.14.14.22.33.22.53v9.2c0 .68-.14 1.36-.41 2.042v0c-.25.64-.59 1.24-1 1.79v0c-.43.55-.9 1.06-1.42 1.52 -.55.49-1.06.9-1.52 1.23 -.47.32-.95.63-1.45.92 -.51.29-.86.48-1.08.593 -.22.1-.39.18-.51.24l0 0c-.1.04-.21.07-.31.07l-.001 0c-.11 0-.22-.03-.32-.08v0c-.18-.08-.35-.16-.51-.24h-.001c-.37-.19-.72-.39-1.08-.6h-.001c-.5-.29-.99-.6-1.45-.93h0c-.53-.39-1.04-.8-1.52-1.24h0c-.52-.47-1-.98-1.42-1.53v-.001c-.42-.56-.75-1.16-1-1.8h0c-.27-.65-.4-1.35-.41-2.042v-9.2c0-.21.07-.387.22-.54H4.47c.14-.15.33-.23.54-.23Zm6.9 2.3v13.62c.95-.51 1.8-1.05 2.55-1.64 1.87-1.47 2.81-2.907 2.81-4.32V5.21Z"/></svg>