<svg viewBox="0 0 24 24" xmlns="http://www.w3.org/2000/svg"><path d="M23.83 8.1v0c-1.08 6.71-6.85 11.67-13.65 11.72h0c-.67.02-1.34-.02-2-.13v0c-2.85-.49-4.96-2.89-5.09-5.77h0c.02-3.28 2.7-5.92 5.98-5.89 3.2.02 5.8 2.59 5.88 5.79 .02.98-.41 1.84-1.28 1.87 -.94 0-1.38-.67-1.38-1.57v-2.51 0c0-.85-.68-1.53-1.52-1.54h-2.1v0c-2.02-.02-3.66 1.6-3.68 3.62 -.02 2.01 1.6 3.65 3.62 3.67 1.04 0 2.04-.44 2.74-1.22l.07-.11 .07.12v0c.51.69 1.33 1.08 2.2 1.04v0c1.57-.12 2.77-1.47 2.69-3.05v0c0-.66-.07-1.3-.22-1.94h0c-.87-4-4.82-6.54-8.81-5.67 -3.42.74-5.85 3.77-5.84 7.26l0-.001c.04 4.03 3.27 7.3 7.3 7.4 0 0 .54.05 1.16.03H9.96c3-.02 5.94-.9 8.47-2.53 .03-.03.07.02.04.06v0c-2.49 2.68-6.04 4.13-9.7 3.96h0c-4.83.08-8.82-3.76-8.91-8.59 -.01-.13-.01-.26 0-.39H-.14c0-2.86 1.34-5.54 3.63-7.25v0C5 5.35 6.83 4.74 8.71 4.74h2.81 -.001c2.22-.01 4.34-.94 5.83-2.58h0c.01-.02.03-.03.05-.04v0c.04-.02.09.01.11.05v0c.01.02.01.04.01.06v0c-.12 1.26-.55 2.48-1.23 3.54v0c-.02.01-.02.03-.02.06v0c0 .04.03.07.07.09v0c.01 0 .04 0 .06 0V5.92c2.63-.6 4.82-2.41 5.91-4.88v0c.01-.03.03-.04.05-.06v0c.04-.03.1-.03.14 0V.98c.02.01.04.03.05.05V1.03c1.1 2.11 1.47 4.52 1.05 6.87ZM8.89 11.62v0c-1.21-.01-2.19.97-2.19 2.18 -.01 1.2.97 2.18 2.18 2.18 1.2 0 2.18-.98 2.18-2.19 0-.01 0-.01 0-.01v-2.05 -.001c-.01-.09-.07-.15-.15-.15Z"/></svg>