<svg viewBox="0 0 24 24" xmlns="http://www.w3.org/2000/svg"><path d="M21.976 24H2.026C.9 24 0 23.1 0 21.97V2.02C0 .89.9-.01 2.025-.01h20.02c1.05 0 1.95.9 1.95 2.025v19.95c0 1.12-.9 2.02-2.03 2.02ZM11.99 3.97h-3C6.21 3.97 3.96 6.22 3.96 8.99v6c0 2.77 2.25 5.02 5.02 5.02h6c2.77 0 5.02-2.25 5.02-5.03V11c0-.6-.45-1.05-1.05-1.05h-.98c-.53 0-.98-.45-.98-.98 0-2.776-2.25-5.026-5.03-5.026Zm3.074 12H8.99c-.53 0-.98-.45-.98-.98s.45-.98.97-.98h6.074c.52 0 .97.45.97.97s-.45.97-.98.97Zm-2.55-7.95c.52 0 .97.45.97.97s-.45.97-.98.97h-3.6c-.53 0-.976-.45-.976-.98s.45-.98.97-.98h3.6Z"/></svg>