<svg viewBox="0 0 24 24" xmlns="http://www.w3.org/2000/svg"><path d="M6.37 23.999c-.95 0-1.95-.75-1.95-2.2v-3.4c0-1.35.85-2.9 2.05-3.548l4.75-2.8 -4.75-2.8c-1.15-.76-2.05-2.26-2.05-3.61V2.19c0-1.45 1-2.2 2.002-2.2 .4 0 .84.1 1.24.35l10.7 6.35c.75.45 1.15 1.149 1.15 1.84 0 .75-.46 1.45-1.15 1.85l-2.55 1.5 2.55 1.5c.75.45 1.2 1.15 1.2 1.85 0 .75-.46 1.45-1.2 1.85l-10.71 6.55c-.45.25-.85.35-1.3.35ZM13.52 13.4l-5.85 3.45c-.45.25-.9 1.05-.9 1.55v3.05l10.15-6ZM6.77 2.6v3.05c0 .5.45 1.3.9 1.55l5.85 3.45 3.45-2.05Z"/></svg>