<svg viewBox="0 0 24 24" xmlns="http://www.w3.org/2000/svg"><path d="M1.41 24v-1.19c.8-.03 1.45-.09 1.94-.19 .48-.11.86-.29 1.12-.53 .25-.25.43-.61.52-1.07 .09-.46.14-1.05.14-1.78V4.71c0-.73-.04-1.32-.11-1.77 -.08-.45-.22-.8-.44-1.06 -.22-.27-.54-.44-.96-.54 -.42-.1-.96-.17-1.63-.21V-.06h9.31c2.8 0 4.98.49 6.54 1.49 1.55.99 2.33 2.39 2.33 4.2 0 1.37-.44 2.49-1.3 3.36 -.87.87-2.23 1.58-4.1 2.15v.12c.64.06 1.2.13 1.68.21 .47.08.9.18 1.27.29 .37.11.72.25 1.04.42 .32.16.63.35.95.56 1.84 1.3 2.77 2.95 2.77 4.92 0 1.1-.31 2.12-.92 3.07 -.62.94-1.47 1.68-2.58 2.22 -.36.18-.72.33-1.1.45 -.38.11-.82.2-1.31.28 -.5.07-1.08.12-1.73.15 -.66.03-1.43.04-2.33.04H1.28Zm11.31-1.35c3.76 0 5.64-1.62 5.64-4.84 0-2.35-.97-3.99-2.9-4.93 -.34-.15-.66-.27-.97-.38 -.32-.11-.68-.19-1.1-.24 -.42-.06-.91-.09-1.49-.11 -.58-.03-1.28-.04-2.11-.04H8.38v6.95c0 1.26.33 2.17.99 2.72 .66.55 1.76.82 3.3.82Zm-2.56-12.07c.64 0 1.18-.02 1.62-.04 .43-.03.8-.06 1.12-.11 .31-.06.58-.13.82-.22 .23-.1.48-.23.73-.39 .66-.42 1.13-.92 1.41-1.5 .28-.59.42-1.35.42-2.28 0-1.65-.41-2.83-1.21-3.54 -.8-.72-2.06-1.08-3.76-1.08H8.9c-.36 0-.53.17-.53.53v8.6Z"/></svg>