<svg viewBox="0 0 24 24" xmlns="http://www.w3.org/2000/svg"><path d="M5.338 16.595v0c-.33-.06-.56-.34-.56-.66V7.86v0c-.01-.38.29-.68.66-.68 0-.01 0 0 .01 0h5.9c.15 0 .3.01.45.04v0c1.26.21 2.18 1.29 2.19 2.57v6.12 -.001c0 .18-.08.35-.21.47v0c-.16.15-.39.22-.6.18l0-.001c-.33-.06-.56-.34-.56-.66v-6.13 0c-.01-.71-.58-1.28-1.29-1.28 -.01 0-.01 0-.01 0h-1.29v7.398 0c-.01.37-.31.67-.69.67 -.05-.01-.09-.01-.13-.02v0c-.33-.06-.56-.34-.56-.66v-7.4H6.06v7.4 0c0 .18-.08.35-.21.47H5.85c-.16.15-.39.22-.61.18m9.81 3.51h-.001c-.33-.06-.57-.34-.56-.67 0-.19.07-.36.19-.48v0c.12-.13.3-.2.484-.2 .57 0 1.06-.37 1.23-.91l.7-2.31 -2.3-7.58v0c-.11-.36.09-.74.44-.85 0-.01 0-.01 0-.01h0c.35-.1.72.09.84.44l1.7 5.65L19.5 7.47c.08-.32.43-.52.78-.46l.04.01v0c.36.1.56.48.45.84 -.01 0-.01 0-.01 0l-2.37 7.77 -.75 2.48c-.2.57-.53 1.03-.96 1.34v0c-.47.33-1.02.52-1.59.52v0c-.05 0-.09-.01-.13-.02m8.85-12.94L22.45 4.73l-2.43 1.13 -1.36-2.278 -2.42 1.13 -1.36-2.277 -2.42 1.138L11.1 1.3 8.68 2.43 7.32.15 4.9 1.29 -.23 17.77l6.226 1.88 -.001-.001c.43-1.38 1.71-2.31 3.151-2.3 1.82 0 3.3 1.46 3.3 3.26l-.01.06c.01.29-.02.59-.11.88l6.33 1.91 5.1-16.5"/></svg>