<svg viewBox="0 0 24 24" xmlns="http://www.w3.org/2000/svg"><path d="M22.979 8.337c.2-.23.32-.52.32-.73 0-.15-.09-.24-.22-.24 -.23 0-.5.27-.5.69v0c-.01.05 0 .11.01.17 -.26.4-.53.8-.8 1.19v0c-.1-.02-.2-.03-.3-.03 -.65 0-1.32.48-1.32 1.36v0c-.01.21.03.43.11.63 -.56.63-1.05 1.04-1.375 1.04 -.13 0-.21-.08-.21-.22 0-.16.07-.41.22-.76l1.91-4.23 2.06-.242 .23-.49 -2 .06 .34-.77 -.78.09 -.35.69 -2.79.09 -.51.99 2.91-.35 -.59 1.16v0c-.35-.15-.72-.22-1.09-.22v0c-.62 0-1.22.14-1.77.42v0c-.25-.12-.52-.18-.8-.18 -.673 0-1.436.32-2.06.89 -.13-.39-.39-.62-.78-.62 -.46 0-.94.23-1.4.62 -.28-.23-.673-.29-1.1-.14v0c.22-.41.34-.86.35-1.32 0-.79-.37-1.354-1.032-1.7h0c.22-.19.46-.35.72-.5V5.68c-.08-.07-.16-.12-.24-.17V5.51c-.33.13-.65.29-.95.47 -.42-.14-.93-.21-1.5-.21C5.02 5.77 2.5 7.3 2.5 9.21c0 .83.47 1.13.94 1.13 .43 0 .86-.25 1-.55 -.39-.08-.61-.41-.61-.83 0-1.49 1.79-2.78 3.63-2.78 .41 0 .76.07 1.06.21 -1.12.86-1.98 2.03-2.69 3.282v0c-.1-.02-.2-.03-.3-.03 -.53 0-.91.22-.91.66 0 .29.19.55.49.73 -.44.91-.83 1.82-1.19 2.65 -.13-.26-.42-.42-.76-.42 -.81 0-1.42.71-1.42 1.59 0 .57.23 1.125.63 1.56 -.38.42-.796.67-1.28.69v0c-.16 0-.32-.04-.46-.12 .38-.05.692-.33.68-.7 -.01-.37-.32-.63-.734-.62H.57c-.44 0-.79.36-.79.8 0 0 0 0 0 .01 .017.69.608 1.06 1.38 1.04 .66-.02 1.24-.26 1.75-.66v0c.52.33 1.14.5 1.76.5 2.04 0 3.78-1.75 3.78-4.087 0-.93-.24-1.67-.6-2.24h0c.63-.23 1.22-.59 1.705-1.06 .63-.63 1.11-.58 1.38-.41 -1.06 1.09-1.92 2.86-1.92 4.05 0 .73.29 1.21.86 1.21 1.7 0 3.73-3.28 3.705-5.08 .54-.61 1.27-.97 1.86-.97v0c.1-.01.2.01.3.03 -1.33.94-2.157 2.54-2.157 3.782 0 .65.32 1.15.95 1.15 1.17 0 2.692-1.83 2.692-3.64 0-.56-.16-.98-.41-1.28v0c.4-.26.86-.39 1.34-.4v0c.28 0 .57.06.83.18l-1.18 2.32c-.28.56-.38.98-.38 1.29 0 .46.27.71.71.71 .63 0 1.38-.59 2.13-1.436 .32.4.82.57 1.24.57v0c.13-.01.27-.02.4-.04 -.32.39-.84.69-1.61.88l-10.17 2.54c-1.545.38-2.49 1.14-2.04 2.6 .35-.29.98-.58 2.63-1.08l9.232-2.82c1.35-.42 2.2-1.38 2.57-2.36 .62-.31 1.189-.89 1.189-1.7 0-.9-.75-1.43-1.03-2.08Zm-16.16 2.32h0c.11.09.22.2.32.33v0c-.17.03-.34.05-.51.06q.09-.2.18-.4Zm-1.6-.22c0-.24.27-.27.577-.24q-.17.3-.32.6c-.17-.11-.27-.24-.27-.37Zm-2.271 5.66c-.34-.32-.51-.73-.51-1.07v0c0-.17.04-.32.12-.47h0c.13.26.4.42.69.41v-.001c.12-.01.23-.03.35-.08h0c-.2.4-.42.8-.67 1.18Zm1.4.51v0c-.22 0-.44-.03-.65-.09 1.053-1.19 1.84-3.09 2.697-5v0c.33 0 .67-.03 1.013-.09 .17.36.27.8.27 1.33 0 1.72-1.266 3.83-3.35 3.83Zm3.36-5.82v0c-.21-.23-.45-.42-.7-.58 .6-1.26 1.28-2.44 2.13-3.335 .28.29.44.702.44 1.18 -.01 1.2-.8 2.26-1.88 2.72Zm2.59 3.57c-.17 0-.25-.15-.25-.39 0-1.05 1.77-4.474 2.673-4.474 .17 0 .24.14.24.38 -.01 1.05-1.77 4.468-2.673 4.468Zm4.58-1c-.17 0-.25-.14-.25-.39 0-.81.72-2.52 1.87-3.52 .12.21.18.48.18.76 0 1.34-1.23 3.13-1.82 3.13Zm5.744-2.37v0c-.03-.1-.04-.2-.04-.3 0-.53.37-.95.86-.95q.05 0 .09 0c-.32.44-.63.86-.94 1.23Zm1.86.593v0c-.23.16-.49.25-.77.25 -.39 0-.72-.16-.92-.44 .38-.47.77-1 1.13-1.54 .42.23.59.782.59 1.27h-.001c0 .14-.02.29-.05.43Zm.49-.6c-.02-.6-.32-1.18-.83-1.45 .2-.31.39-.62.57-.92 .19.39.47.81.47 1.36v0c0 .34-.08.68-.24.99Z"/></svg>