<svg viewBox="0 0 24 24" xmlns="http://www.w3.org/2000/svg"><path d="M0 8.14v6.023h2.006V8.14Zm2.324 0v1.2h1.488v1.28H2.324v1.048h1.488v1.28H2.324v1.2h2.32l1.2-1.21v-1.19l-.61-.61 .6-.61v-1.23l-1.21-1.21Zm5.569 1.2l-1.21 1.2v2.41l1.2 1.2h1.34V13.02h-.53v-2.5h.52V9.31Zm1.665 0v1.2h.5v2.49h-.5v1.125h1.34l1.202-1.21v-2.42l-1.202-1.21Zm3.45 0v4.82h2V9.34Zm3 0l-.68.67v.52h.85v1.17h2.01v-1.25l-.98-1.13Zm3.971 0l-1.21 1.2v2.41l1.2 1.2h1.09l.6-.6v-.54h-.89v-3.7Zm1.12 0v1.2h.89v4.253h-2.45v.44l.6.609h2.64l1.2-1.22v-4.1l-1.21-1.21Z"/></svg>