<svg viewBox="0 0 24 24" xmlns="http://www.w3.org/2000/svg"><path d="M12 0C5.373 0 0 5.373 0 12c0 6.62 5.373 12 12 12 6.62 0 12-5.38 12-12C23.99 5.374 18.62 0 12 0Zm0 22.88C5.99 22.88 1.12 18 1.12 12 1.11 5.99 5.99 1.12 12 1.12 18.009 1.11 22.88 5.99 22.88 12 22.87 18.006 18 22.87 12 22.88ZM16.95 4.5h-.83v4.1H7.88V4.49h-.85v0c-4.14 2.73-5.29 8.29-2.55 12.43 .66 1.01 1.53 1.88 2.54 2.54h.84v-4.11h8.24v4.1h.82v0c4.13-2.74 5.28-8.3 2.54-12.44 -.67-1.02-1.54-1.89-2.55-2.55ZM6.74 17.87v0c-3.25-2.89-3.54-7.86-.66-11.1 .2-.24.42-.46.65-.66v11.752Zm9.38-3.635H7.88V9.72h8.24v4.507Zm1.12 3.61V6.11v0c3.23 2.9 3.5 7.89.59 11.13 -.19.2-.39.4-.6.59Z"/></svg>