<svg viewBox="0 0 24 24" xmlns="http://www.w3.org/2000/svg"><path d="M23.54 11.756c-1.24-1.19-7.41-1.93-9.36-2.15 .09-.23.17-.46.24-.7 .266-.12.55-.23.84-.32 .03.1.2.51.3.7 3.91.1 4.11-2.91 4.27-3.74 .15-.81.14-1.59 1.49-3.018 -2.01-.59-4.88.9-5.85 3.11l0-.001c-.36-.14-.72-.24-1.09-.3 -.26-1.04-1.6-3.93-5.12-3.93 -2.28 0-4.574.94-6.301 2.58V3.98c-.93.88-1.67 1.94-2.18 3.12 -.56 1.279-.84 2.689-.84 4.19 0 5.22 3.568 9.807 5.584 9.807 .88 0 1.638-.66 1.81-1.25 .15.4.6 1.66.75 1.98 .22.47 1.24.88 1.69.39 .577.32 1.638.51 2.215-.35 1.11.23 2.09-.43 2.11-1.22 .54-.03.81-.8.69-1.41 -.09-.45-1.03-2.07-1.4-2.62 .72.59 2.56.75 2.78 0 1.16.91 2.99.43 3.13-.31 1.42.36 3.05-.45 2.782-1.423 2.282-.16 1.99-2.59 1.35-3.2Zm-5.95-4.03c-.6-.24-1.37-.39-1.9-.39 -.76 0-1.22.43-1.94.43 -.15 0-.51 0-.8-.11 .18.19.42.3.87.3 .27 0 .81-.14 1.24-.27 0 .09.01.18.02.274 -.82.19-1.68.71-1.92.84 -.55-1.218-.08-2.37.36-2.9 1.96 0 3.548 1.35 4.03 1.8Zm.85-.1l-.3-.28c-.31-.29-.63-.55-.96-.79 .49-.98 1.1-2.04 1.88-2.698 -.86.34-1.71 1.38-2.21 2.485v0c-.26-.16-.51-.31-.78-.44 .7-1.5 2.32-2.739 4.11-2.84 -1.2 1.088-.75 3.258-1.76 4.544l0 0Zm-2.47 1.01c-.14-.29-.266-.77-.25-1.05 .22-.01.65.07.71.09 -.03.13-.04.42-.04.45 .04-.08.16-.33.2-.43 .42.08.99.21 1.32.37 -.39.25-1.05.52-1.96.54ZM8.89 6.67c-.484-.18-.484-.62 0-.79 .48-.18 1.09.04 1.09.39 0 .34-.61.56-1.1.39Zm1.61.16h0c0-.7-.56-1.26-1.26-1.26 -.7-.01-1.26.55-1.26 1.25 -.01.44.23.86.62 1.08 .83.48 1.87-.13 1.87-1.09Zm2.78-1.58c-1.57 1.58-.95 3.59-.38 4.49 -.81 1.34-2.404 2.27-4.26 2.69 2.07 0 3.3-.54 4.01-1.06 .45-.34.7-.67.82-.85 3.08.19 7.96 1.19 8.43 1.513 .19.12.38.41.41.68 -2.32-.33-6.49-.67-7.58-.73 .77.11 6.43 1.18 7.414 1.43 -.3.48-.98.83-2.01.59 .55.75-.52 1.66-2.02 1.16 .33.74-1.01 1.4-2.52.63 .02.74-1.88.82-2.63 0 .01.09.1.28.14.36 -.25 2.16-2.02 3.5-3.83 3.5 -4.45 0-8.314-3.61-8.314-8.42 0-5.08 3.75-8.87 8.27-8.87 2.59 0 3.766 2.042 4.006 2.81Z"/></svg>