<svg viewBox="0 0 24 24" xmlns="http://www.w3.org/2000/svg"><path d="M15.68 0l2.096 2.38s1.84-.512 2.7.35c.86.87 1.58 1.63 1.58 1.63l-.57 1.38 .71 2.04s-2.11 7.98-2.35 8.955c-.49 1.91-.82 2.66-2.2 3.63 -1.38.97-3.89 2.66-4.3 2.91 -.41.25-.92.69-1.38.69 -.46 0-.97-.44-1.38-.7l0 0c-1.45-.96-2.88-1.93-4.3-2.92 -1.38-.98-1.72-1.72-2.2-3.64 -.25-.98-2.36-8.96-2.36-8.96l.71-2.05L1.87 4.3s.716-.77 1.58-1.638c.86-.87 2.7-.36 2.7-.36l2.09-2.38h7.36ZM12 14.936c-.14 0-1.04.31-1.76.69 -.72.37-1.25.63-1.41.74 -.17.1-.07.3.08.4 .15.1 2.19 1.69 2.39 1.86 .19.17.48.46.68.46 .19 0 .49-.29.68-.47 .19-.18 2.24-1.76 2.39-1.87 .15-.11.25-.31.08-.41 -.17-.11-.69-.37-1.41-.75s-1.62-.69-1.76-.69Zm0-11.28s-.41 0-1.03.2c-.62.2-1.28.46-1.59.46 -.31 0-2.59-.44-2.59-.44s-2.7 3.26-2.7 3.95c0 .69.33.88.68 1.24l2.02 2.14c.19.2.59.51.35 1.06s-.58 1.26-.2 1.97c.38.71 1.04 1.19 1.46 1.11 .42-.08 1.41-.6 1.77-.84 .36-.24 1.51-1.19 1.51-1.56 0-.37-1.2-1.02-1.42-1.17 -.22-.15-1.23-.73-1.25-.95 -.02-.23-.02-.3.28-.86 .29-.56.83-1.31.74-1.8 -.09-.5-.95-.76-1.57-.99 -.62-.24-1.8-.68-1.95-.74 -.15-.07-.11-.133.33-.18 .44-.05 1.71-.22 2.292-.06 .57.16 1.55.4 1.63.532 .07.13.14.13.06.57 -.09.44-.5 2.58-.55 2.96 -.04.38-.12.63.28.72 .4.09 1.09.25 1.33.25 .23 0 .92-.17 1.33-.26 .4-.1.32-.35.28-.73 -.04-.38-.46-2.516-.55-2.97 -.09-.45-.02-.45.06-.58 .08-.13 1.05-.38 1.63-.532 .57-.16 1.84 0 2.29.05 .44.04.48.1.33.17 -.15.06-1.34.508-1.95.74 -.62.23-1.48.49-1.57.98 -.09.49.44 1.24.74 1.8 .29.55.3.62.28.85 -.02.22-1.03.8-1.25.95 -.22.15-1.42.8-1.42 1.16 0 .36 1.154 1.31 1.51 1.55 .36.23 1.35.75 1.77.83 .42.07 1.08-.4 1.46-1.12 .38-.72.03-1.43-.2-1.98 -.24-.56.16-.87.35-1.07l2.02-2.15c.34-.37.68-.55.68-1.25s-2.7-3.96-2.7-3.96 -2.28.43-2.58.43c-.31 0-.98-.26-1.59-.47 -.62-.21-1.03-.21-1.03-.21Z"/></svg>