<svg viewBox="0 0 24 24" xmlns="http://www.w3.org/2000/svg"><path d="M23.48 13.252c-.25.21-.61.44-1.25.76 -1.35.72-2.2.98-2.2.98s-1.62-.24-4.21-1.01c0 0 1.3-.38 1.93-.59l-.001-.001c.65-.22 1.31-.44 1.95-.69 1.05-.4 1.73-.77 2.18-1.09 .03-.03.05-.05.08-.07 0 0 .32.03.593.11 .29.08.6.24.78.38 .19.14.28.3.3.35l-.001 0c.03.07.06.14.07.22 0 0 .01.08-.01.17v0c-.02.11-.07.22-.15.31Zm.51-1.06v0c-.02-.06-.05-.11-.08-.16l0-.001c-.06-.09-.13-.17-.2-.23v0c-.08-.07-.15-.13-.23-.18 -.36-.24-.81-.37-1.22-.42 -.63-.09-1.35-.07-1.42-.07 -.23-.01-1.73 0-2.11.01 -1.71.03-3.79.03-4.333.03 -5.64.02-8.089-.1-10.82-.65 -2.33-.47-3.62-.9-3.62-.9C2 9.54 13.96 9.05 16.14 8.99c1.42-.04 2.44-.05 3.253 0 .41.02.8.05 1.28.14h0c.36.06.71.15 1.06.28 .48.18.89.44 1.096.7 0 0 .06.06.14.17 .09.12.19.28.23.34 .29.44.43.73.48.82 .05.1.1.2.14.31 .04.1.06.16.07.21 .02.06.03.125.03.17Z"/></svg>