<svg viewBox="0 0 24 24" xmlns="http://www.w3.org/2000/svg"><path d="M10.97 23.845v0c-1.66.53-3.45-.37-3.98-2.03 -.54-1.66.36-3.45 2.02-3.98 0 0 0-.01 0-.01v0c1.65-.54 3.44.36 3.97 2.02 .53 1.65-.37 3.44-2.03 3.97Zm6.55-2.89c4.04-1.32 7.31-5.99 5.689-10.99 -1.63-5.01-7.02-6.86-11.058-5.55h-.001c-.95.3-1.49 1.28-1.26 2.24l.41 1.68v0c.24 1.01 1.27 1.63 2.28 1.38 .04-.02.08-.03.13-.04l.16-.06c1.86-.61 3.59.5 4.07 2.019 .5 1.5-.25 3.42-2.11 4.02l-.17.05V15.7c-1 .32-1.54 1.39-1.22 2.38 .01.04.02.08.04.12l.65 1.6v0c.37.91 1.39 1.38 2.33 1.08Zm-6.962-7.99L7.82 1.73l0-.001C7.518.49 6.278-.26 5.03.04c-.06.01-.11.02-.17.04l-2.96.95H1.9C.69 1.42.03 2.72.42 3.92c.01.05.03.1.05.15L4.87 14.75v0c.45 1.11 1.69 1.69 2.84 1.31l1.28-.42v0c1.14-.38 1.81-1.57 1.52-2.74Z"/></svg>