<svg viewBox="0 0 24 24" xmlns="http://www.w3.org/2000/svg"><path d="M11.079 3.17v0c0 1.52-.65 2.98-1.81 3.99 -.09.08-.02.23.09.18 1.07-.42 2.535-1.673 1.92-4.21 -.03-.15-.22-.11-.22.02Zm.72 0v-.001c.79 1.29.98 2.86.51 4.31 -.04.11.1.2.17.11 .7-.9 1.31-2.68-.52-4.6 -.1-.09-.24.04-.18.15Zm.88-.06l0-.001c1.24.87 2.04 2.25 2.192 3.76v0c-.01.05.04.1.09.11 .05 0 .09-.03.1-.08 .29-1.12.12-3.02-2.3-4.01 -.13-.05-.22.12-.11.19ZM6.76 6.43V6.42c1.47-.45 2.69-1.49 3.35-2.88 .05-.12.24-.07.21.05 -.56 2.56-2.407 3.09-3.56 3.02 -.13 0-.12-.17-.01-.21Zm5.21 15.99c-6.62 0-12-4.314-12-9.616 0-3.2 1.978-6.186 5.29-7.975 .96-.52 1.782-1.03 2.51-1.48 .4-.25.78-.49 1.15-.71 1.12-.67 2.08-1.11 3.04-1.11s1.79.38 2.84 1.004c.32.18.64.38.98.59 .79.49 1.69 1.05 2.88 1.68 3.31 1.78 5.28 4.77 5.28 7.975 0 5.3-5.39 9.61-12 9.61Zm0-20.08c-.78 0-1.6.4-2.64 1 -.37.21-.74.44-1.14.68 -.75.46-1.6.98-2.56 1.5C2.58 7.16.76 9.88.76 12.79c0 4.86 5.02 8.817 11.2 8.817 6.17 0 11.2-3.96 11.2-8.816 0-2.91-1.82-5.63-4.87-7.27 -1.21-.64-2.154-1.25-2.92-1.72 -.35-.22-.67-.42-.96-.59 -.97-.58-1.68-.9-2.452-.9Zm-1.23 14.08h0c.32-.42.81-.67 1.34-.67v0c.47.01.93.2 1.28.54 .07-.08.14-.17.21-.25v0c-.41-.39-.95-.61-1.51-.62v0c-.61 0-1.19.28-1.57.75 .07.08.15.16.24.23Zm1.25 1.02v0c-.54-.05-1.04-.28-1.43-.64h-.001c-.5-.42-.85-.99-1-1.62v0c-.03-.12 0-.24.08-.32v0c.08-.11.22-.17.36-.17h3.949v0c.13-.01.27.05.36.16v0c.07.08.1.2.08.32h0c-.16.63-.5 1.19-1 1.61h0c-.39.36-.89.59-1.42.64Zm-1.98-2.37c-.06 0-.07.02-.07.03v0c.13.54.44 1.03.87 1.39v0c.31.31.72.5 1.16.56v0c.43-.06.85-.25 1.16-.56v0c.43-.37.73-.86.87-1.4v0c-.02-.03-.04-.04-.07-.03Zm-3.76-3.04c0-.31.08-.62.23-.89 .681-1.18 2.37-1.18 3.05 0 .67 1.17-.18 2.644-1.532 2.64v0c-.98-.01-1.77-.8-1.76-1.77Zm7.93 0v0c0-.98.79-1.77 1.76-1.77s1.76.79 1.76 1.76c-.01.97-.8 1.76-1.77 1.76 -.01-.01-.01-.01-.02-.01v0c-.97-.01-1.76-.8-1.75-1.77Zm-6.72.11v0c.36 0 .66-.3.66-.66 0-.12-.03-.24-.09-.34H8.03c-.19-.32-.59-.43-.91-.25 -.32.18-.43.58-.25.9 .11.2.33.33.57.33Zm7.92 0v0c.36 0 .66-.3.66-.66 0-.12-.03-.24-.09-.34v0c-.19-.32-.59-.43-.91-.25 -.32.18-.43.58-.25.9 .11.2.33.33.56.33Z"/></svg>