<svg viewBox="0 0 24 24" xmlns="http://www.w3.org/2000/svg"><path d="M15.39 12.61c-.72 0-1.11.53-1.11 1.21v1.5c0 .125-.05.18-.12.18 -.06 0-.1-.04-.15-.14l-.98-1.89c-.37-.72-.76-.89-1.2-.89 -.734 0-1.14.55-1.14 1.24v4.314c0 .67.39 1.21 1.112 1.21 .72 0 1.112-.54 1.112-1.22v-1.51c0-.13.04-.19.11-.19 .05 0 .09.03.14.13l.97 1.88c.37.71.76.88 1.19.88 .73 0 1.14-.56 1.14-1.25v-4.32c0-.68-.4-1.22-1.12-1.22Zm-4.02-.41c.36 0 .68-.29.68-.65 0-.24-.1-.42-.23-.58 -.21-.266-.39-.5-.48-.74 -.02-.06-.01-.11.05-.16 .21-.17.46-.54.46-1.13 0-.89-.734-1.39-1.63-1.39h-.79c-.56 0-.82.32-.82.75v3.11c0 .41.24.75.69.75 .44 0 .69-.34.69-.76v-.74c0-.09.04-.14.11-.14 .08 0 .11.04.12.13 .06.35.23.83.42 1.08 .23.31.46.41.68.41Zm-1.15-2.67h-.1c-.12 0-.18-.07-.18-.17v-.48c0-.09.05-.16.17-.16h.09c.29 0 .38.2.38.39 0 .17-.1.4-.39.4Zm-3.77 2.66c1.13 0 1.73-.68 1.73-1.53V8.3c0-.42-.25-.76-.7-.76 -.45 0-.7.33-.7.75v2.276c0 .16-.1.36-.35.36 -.26 0-.34-.2-.34-.37V8.28c0-.42-.26-.76-.7-.76 -.45 0-.7.33-.7.75v2.35c0 .85.59 1.52 1.72 1.52Zm12.011-.04c.39 0 .7-.23.7-.65 0-.42-.31-.65-.7-.65h-.63c-.12 0-.18-.07-.18-.16v-.14c0-.1.05-.17.17-.17h.48c.33 0 .6-.21.6-.56 0-.36-.27-.56-.61-.56h-.49c-.12 0-.18-.07-.18-.16v-.12c0-.1.05-.17.17-.17h.62c.39 0 .7-.23.7-.65 0-.42-.31-.65-.7-.65h-1.33c-.56 0-.82.32-.82.75v3.07c0 .43.26.75.81.75h1.32Zm2.64 3.12h-.35c-.62 0-1.09.28-1.09.91 0 .57.51.84.9.84 .18 0 .32.05.32.2 0 .18-.23.3-.47.3 -.79 0-1.33-.54-1.33-1.54 0-1.11.73-1.52 1.3-1.52 .69 0 .8.34 1.28.34v0c.51 0 .92-.41.93-.92h0c0-.32-.15-.61-.4-.79 -.43-.32-1.07-.55-1.98-.55 -1.63 0-3.22 1.02-3.22 3.41 0 2.282 1.58 3.35 3.15 3.35 1.64 0 2.68-1.02 2.68-2.5 0-.94-.59-1.59-1.77-1.59Zm-12.43-2.69c-.79 0-1.21.58-1.21 1.32v4.132c0 .73.42 1.32 1.21 1.32 .78 0 1.21-.59 1.21-1.32V13.9c0-.74-.43-1.32-1.21-1.32Zm11.494-.41c.44 0 .69-.34.69-.76v-.74c0-.09.04-.14.11-.14 .08 0 .11.04.125.13 .06.35.23.83.42 1.08 .23.31.46.41.68.41 .36 0 .67-.29.67-.65 0-.24-.1-.42-.23-.58 -.24-.3-.39-.5-.48-.74 -.02-.06-.01-.11.05-.16 .21-.17.46-.54.46-1.13 0-.89-.74-1.39-1.63-1.39h-.79c-.56 0-.82.32-.82.75v3.11c0 .41.24.75.69.75Zm.61-3.301c0-.09.05-.17.17-.17h.09c.29 0 .38.21.38.391 0 .17-.09.4-.39.4h-.1c-.12 0-.18-.07-.18-.16ZM1.9 12.129h.98c.93 0 1.49-.63 1.49-1.4 0-.63-.37-.907-.46-.98 -.04-.03-.07-.06-.07-.09 0-.04.02-.05.05-.09 .13-.16.26-.4.26-.76 0-.84-.57-1.29-1.45-1.29h-.84c-.552 0-.817.32-.817.75v3.07c0 .43.26.75.81.75Zm.41-3.39c0-.09.05-.16.17-.16h.09c.3 0 .39.2.39.39 0 .16-.09.4-.391.4h-.1c-.12 0-.18-.07-.18-.16Zm0 1.63c0-.1.05-.17.17-.17h.12c.33 0 .43.22.43.42 0 .18-.1.44-.44.44h-.13c-.12 0-.18-.07-.18-.17Zm11.878 1.79c1.09 0 1.79-.7 1.79-1.718 0-.65-.391-1.096-1.18-1.096h-.23c-.42 0-.734.19-.734.63 0 .39.34.58.6.58 .13 0 .21.04.21.13 0 .125-.15.21-.32.21 -.53 0-.88-.37-.88-1.07 0-.77.48-1.05.86-1.05 .46 0 .53.23.86.23 .37 0 .62-.31.62-.63h0c0-.22-.1-.42-.266-.55 -.3-.22-.71-.38-1.33-.38 -1.09 0-2.14.71-2.14 2.36 0 1.57 1.05 2.31 2.09 2.31Zm-8.72 3.76l0-.001c-.05-.06-.07-.12-.07-.19 0-.08.04-.14.12-.21 .19-.19.67-.64.94-1.05 .2-.32.28-.6.28-.84 0-.61-.56-1.09-1.16-1.09 -.39 0-.75.21-1 .61 -.33.53-.72 1.14-.98 1.39 -.07.06-.1.07-.15.07 -.09 0-.12-.06-.12-.15v-.7c0-.69-.41-1.24-1.14-1.24 -.74 0-1.14.55-1.14 1.23v4.3c0 .68.399 1.23 1.14 1.23 .734 0 1.14-.56 1.14-1.24v-1c0-.09.03-.15.11-.15 .11 0 .14.11.16.16 .16.38.63 1.2 1.06 1.68 .29.32.657.52 1.04.52 .65 0 1.19-.57 1.19-1.18 0-.38-.17-.657-.47-1 -.4-.43-.86-.99-1.03-1.25Zm15.751 6.7c-1.82 1.02-4.94 1.31-9.25 1.31 -4.32 0-7.432-.3-9.25-1.32 -1.09-.62-1.65-1.46-1.65-2.06 0-.35.18-.54.587-.54h20.61c.4 0 .58.19.58.53 0 .6-.56 1.43-1.65 2.05Zm1.05-15.917H1.66c-.41 0-.59-.21-.59-.59 0-2.24 3.362-6.18 10.892-6.18 7.46 0 10.89 3.944 10.89 6.178 0 .37-.19.58-.59.58Z"/></svg>