<svg viewBox="0 0 24 24" xmlns="http://www.w3.org/2000/svg"><path d="M12.397 4.14h.88v.88h-.89Zm-1.63 0h.88v.88h-.89Zm4.91 1.05V8.59h-1.39V5.19h-.84V6.95h-2.99V5.18h-.84v3.4h-1.1v.84h1.91V7.8h2.98V9.42h5.44V5.17Zm2.35 3.39h-1.52V6.01h1.51ZM5.15 5.18v2.604H7.5v.8H5.14v.83h3.19V5.172Zm2.33 1.75H5.96V6H7.48ZM4.84 19.107v-9.41h4.17l2.95 2.95 2.95-2.96h4.17v9.4H14.91V15.64l-2.96 3.06L8.99 15.65v3.42ZM11.97-.03l-3.52 3.51H3.48v4.97l-3.52 3.51 3.51 3.51v4.97h4.97l3.51 3.51 3.51-3.52h4.97v-4.97l3.51-3.52 -3.52-3.52V3.45h-4.97Zm0 1.708l3.01 3.01h4.26v4.26l3.01 3.01 -3.02 3.01v4.26H14.97l-3.02 3.01 -3.02-3.02H4.66V14.96l-3.02-3.02 3.01-3.02V4.65h4.26Z"/></svg>