<svg viewBox="0 0 24 24" xmlns="http://www.w3.org/2000/svg"><path d="M12.14 4.04c-2.57 0-3.58 3.64-3.58 7.979 0 4.34 1 7.93 3.57 7.93 1.54 0 2.85-.91 2.86-1.65h-.001c-.01-.18-.08-.34-.2-.46 -.73-.71-1.016-1.42-1.02-2.04 -.01-1.189 1.02-2.08 1.97-2.08 1.3 0 2.07 1.02 2.07 2.35 0 1.26-.54 2.31-1.13 3.15v0c-.03.03-.04.06-.04.1 0 .06.04.12.09.12 .03 0 .07-.02.12-.07l6.561-6.35c.32-.28.53-.61.53-1.08 0-.47-.21-.8-.54-1.08l-6.561-6.35c-.05-.05-.09-.07-.13-.07 -.06 0-.1.05-.1.12 0 .03.01.07.03.1 .58.84 1.12 1.89 1.12 3.15 0 1.32-.77 2.35-2.08 2.35 -.95 0-1.99-.89-1.98-2.08 0-.63.28-1.33 1.01-2.04v0c.12-.12.19-.29.19-.46 -.01-.75-1.32-1.646-2.86-1.646m-5.043.53L.43 10.8c-.33.27-.54.6-.54 1.07 0 .46.21.79.537 1.07l6.56 6.34c.04.04.08.06.11.06 .06 0 .1-.06.1-.13v0c-.01-.05-.03-.1-.06-.13 -1.54-1.92-2.66-4.11-2.66-7.21 0-3.11 1.12-5.35 2.66-7.26h0c.03-.04.05-.08.05-.13 0-.07-.04-.13-.11-.13 -.04 0-.08.01-.12.06"/></svg>