<svg viewBox="0 0 24 24" xmlns="http://www.w3.org/2000/svg"><path d="M12 0C5.372 0 0 5.373 0 12c0 6.62 5.372 12 12 12 6.62 0 12-5.38 12-12 0-6.63-5.38-12-12-12Zm-.01 13.991v0c-1.14 0-2.06-.92-2.06-2.06 0-1.14.91-2.06 2.05-2.06v0c1.13 0 2.05.91 2.05 2.05 0 1.13-.92 2.05-2.06 2.05Zm4.99 4.85l-2.02-2.8v0c2.26-1.66 2.76-4.84 1.1-7.11 -1.66-2.27-4.84-2.77-7.11-1.11 -2.27 1.65-2.77 4.83-1.11 7.1 .31.42.69.8 1.12 1.11l-2.02 2.79v0c-3.82-2.76-4.68-8.09-1.93-11.91 1.6-2.23 4.17-3.54 6.91-3.54v0c4.7 0 8.52 3.81 8.52 8.526v0c0 2.72-1.31 5.29-3.52 6.898Z"/></svg>