<svg viewBox="0 0 24 24" xmlns="http://www.w3.org/2000/svg"><path d="M11.901 11.554l.8-4.1 .798 4.1Zm2.86-6.52h-4.15l-2.42 10.85 4.503-3.635 4.695 3.93ZM12.69 13.19L5.18 19.26h14.756Zm11.297-8.17v2.77h-2.07v11.45h-.89l-2.436-2.04V7.79h-2.06V5.02ZM6.86 16.86c.548-.46.64-1.03.64-1.532v-2.14h-2.98v2.89 0c0 .41-.34.74-.75.75 -.42 0-.722-.34-.722-.75V7.86c0-.42.3-.75.722-.75h0c.41 0 .74.33.74.75v2.91h2.97V7.74c0-1.67-1.1-3.05-3.75-3.05C1 4.69-.03 6.07-.03 7.74v8.56c0 1.65 1.314 2.907 2.99 2.907h.92Z"/></svg>