<svg viewBox="0 0 24 24" xmlns="http://www.w3.org/2000/svg"><path d="M18.94 20.15c-.69.32-1.72.3-2.99-.08l.21.54 -.39-.23 -1.54-.907h0l-.04-.16c.57.17 3.535 1.16 4.73.81ZM7.92 22.04c-.13.22.17.64.17.64 -.69-.54-1.28.34-1.28.34 -.04-.39.39-.67.39-.67 -.72.11-1.55.78-1.55.78 -.1-.34.31-.56.31-.56 0-.27.36-.24.76-.35 .27-.08.67-.19.91-.26 0-.01 0-.01.01-.02 0-.01.3-.35.67-.75 .29-.31.61-.65.86-.88 .11.01.22.03.29.03 -.25.19-.66.62-1 .99 -.26.28-.49.53-.6.66Zm2.23-7.97l8.82 6.05c-.02 0-.03.01-.05.01 -.01-.01-.17-.07-.33-.13 -.09-.04-.18-.08-.29-.12h-.01c-.01-.01-.02-.01-.02-.01 -.78-.32-2.27-.96-4.634-2.05 -2.4-1.12-3.82-1.8-5.03-2.388l0 0s-.01-.01-.01-.01l4.36 3.97 0 0 .01.01h0l.25.21 -1.16.34c-.01-.01-.01-.02-.01-.02 -.01-.02-.02-.04-.02-.06 -.01-.01-.01-.02-.01-.03 -.01-.02-.02-.04-.02-.05 -.01-.01-.01-.02-.01-.03 -.02-.03-.03-.05-.04-.08l-.21.09c.09.19.12.35.12.48 -.01.16-.07.28-.11.35 -.03.03-.07.08-.08.08l.06.08c-.01.01-.01.02-.02.03 -.35.54-.66 1.3-.79 1.65 -.05.11-.07.18-.07.18s0 0-.01 0c.22 0 .76.07.62.5l-.13.44c-.27-.48-.16-.61-.16-.61 -.79-.21-2.36.9-2.36.9 .05-.42.5-.7.76-.85 -.23-.03-.5.16-.64.28 .13-.27.33-.44.53-.53 -.01-.01-.01-.01-.01-.01 .35-.14.71-.07.75-.03l-.01 0c.12-.04.13-.05.24-.07 .03-.03.07-.12.08-.16 0-.01.36-1.02.81-1.78 -.22-.03-.39-.28-.39-.59 0-.02 0-.04 0-.06 -.48.06-.98.08-1.49.04 -.02 0-.04-.01-.05-.01 0 0 0 0 0 0 -.03-.01-.14-.02-.27-.03 -.95-.13-1.81-.45-2.51-.92l0 .01s-1.279-.69-1.56-2.24l-.31.19c0-1.39.23-2.365.56-3.12l-.38.03 .38-.54c-.05.1-.1.21-.15.33l.23-.04v-.01c.04-.1.09-.19.13-.27 .09-.17.18-.33.29-.484 .02-.04.06-.1.11-.16 .06-.08.14-.18.2-.25 .05-.06.16-.18.22-.23 .04-.04.11-.1.14-.12l-.23 1.07c.66-.84 1.91-2.08 2.53-2.67 -.12-.23-.25-.42-.39-.59l-.59.42 -.03.01s-.42.31-.57.41c-.41.26-.71-.07-.73-.09 .08.07.2.12.32.12 .14 0 .26-.06.35-.15 .09-.09.14-.21.14-.35 0-.07-.02-.14-.04-.2 -.05-.1-.12-.18-.22-.23h0s-.11-.06-.09-.16c.02-.1.2-.3.2-.3l.22-.23 .36-.37 .77-.79c.04-.06.07-.09.07-.09l-.69.29 -.01-.01c0-.01 0-.04.05-.13 .06-.12.22-.34.22-.35l0-.01 -1.27.9c0-.01 0-.01 0-.01 .07-.35.82-1.37.85-1.412l-.83.76c0-.01-.01-.01-.01-.01 -.05-.26.37-1.15.42-1.27 0-.01 0-.01 0-.01 -.31.3-.52.62-.53.63 0-.3.22-.71.22-.71 -.07.06-.13.12-.19.19 -.87.97-1.12 2.12-1.19 2.56 0 0 0 0-.01 0 -.15.08-.06-.02-.13.14 -.26.07-.47.2-.65.34 -.29.23-.46.51-.52.6 .03-.05.07-.09.1-.12 .53-.56 1.14-.5 1.14-.5s.68 1.26.54 1.4c-.02.01-.04.01-.08 0 -.09-.04-.15-.02-.19.02 -.11.11-.01.45-.01.46L3.95 11c.85-.32 1.47-.1 1.47-.1 0 .21.48.18.48.18v-.01h0c0-.2-.37-.43-.37-.43s-.33.13-.72 0c-.08-.03-.17-.04-.242-.04 -.08 0-.15.01-.22.03 -.21.05-.36.17-.36.17v-.01l-.01 0L5.11 6.65l.11 1.59 2.29-5.4 .03 4.037L13.79-.52 9.94 7.79l.02.04 2.71-1.96 -.58 1.149 3.79-1.49 -3.54 2.58 6.61-.81 -8.03 3.471 4.1-1.01 -5.46 3.76Zm1.34-2.77h0l-.01-.01s0 0 0 0Zm-2 .86c-.1-.4-.23-.76-.38-1.08l-.95 2.07 1.31-1.01Zm-2.3-1.1c.2-.08.31-.31.23-.53l-.21.07c.01.03.02.06.02.09s-.01.06-.02.08l.09.05c-.04.05-.09.09-.15.12 -.04.01-.08.02-.12.02 -.13 0-.24-.08-.29-.2 -.01-.01-.01-.03-.02-.04l-.1.03c.07.22.3.34.51.27Z"/></svg>