<svg viewBox="0 0 24 24" xmlns="http://www.w3.org/2000/svg"><path d="M11.95.25V.249C8.77.239 5.73 1.499 3.49 3.75v0c-2.25 2.24-3.51 5.28-3.51 8.45v0c-.01 1.81.41 3.6 1.2 5.24 .72 1.47 1.888 2.94 3.208 4.04 .86-.47 1.35-.99 1.45-1.55 .1-.54-.14-1.11-.74-1.81v0c-1.44-1.65-2.23-3.76-2.22-5.94 0-4.988 4.058-9.05 9.04-9.05h.08c4.99 0 9.048 4.059 9.048 9.04h-.001c0 2.18-.79 4.29-2.22 5.93 -.6.69-.84 1.29-.74 1.83 .1.55.59 1.06 1.44 1.52 1.32-1.1 2.48-2.57 3.2-4.05v0c.79-1.64 1.21-3.43 1.2-5.25v-.001c0-3.18-1.26-6.22-3.503-8.46v0C18.172 1.44 15.13.18 11.965.18h-.05Zm-.01 4.83v0c-1.33-.01-2.64.37-3.76 1.07v0c-.81.5-1.5 1.15-2.05 1.92l-.001 0c-.57.79-.96 1.69-1.17 2.65l0-.001c-.22 1.03-.21 2.09.04 3.125v0c.22.94.64 1.82 1.22 2.6 .15.2.32.39.5.59l.18.2 0 0s.01.01.02.02c.63.73.95 1.53.95 2.36v0c-.01 1.24-.69 2.39-1.79 2.98l0-.001c.84.47 1.74.83 2.68 1.08 .14-.09.61-.45 1.077-1.09l0 0c.63-.87.96-1.92.94-2.99h0c-.02-.82-.19-1.62-.49-2.37v0c-.31-.76-.75-1.44-1.31-2.04l-.01-.01 -.13-.15c-.21-.25-.43-.5-.61-.8v0c-.21-.36-.37-.74-.47-1.14v0c-.15-.61-.16-1.24-.03-1.85l-.001 0c.12-.57.35-1.1.68-1.57v0c.79-1.12 2.06-1.78 3.43-1.78h.08v0c1.36-.01 2.64.66 3.43 1.77 .33.46.56 1 .68 1.56v0c.12.61.11 1.24-.03 1.84 -.1.39-.25.77-.47 1.13 -.18.29-.391.54-.61.79l-.13.14 -.01 0v0c-.56.59-1 1.28-1.31 2.03h-.001c-.31.75-.48 1.55-.49 2.37l0 0c-.03 1.07.3 2.12.94 2.99 .46.64.93.99 1.07 1.08v0c.93-.26 1.83-.62 2.68-1.09v0c-1.11-.6-1.79-1.74-1.79-2.99 0-.82.31-1.59.95-2.36 0-.02.02-.03.02-.03l0-.01 .18-.21c.18-.2.35-.39.51-.6v0c.57-.78.99-1.67 1.22-2.61v0c.24-1.03.25-2.1.04-3.13v-.001c-.21-.96-.6-1.86-1.16-2.65v0c-.55-.77-1.25-1.43-2.05-1.93V5.97c-1.13-.71-2.44-1.08-3.77-1.08h-.09Zm.04 4.87v0c-1.31 0-2.36 1.05-2.362 2.36v0c0 1.3 1.05 2.35 2.362 2.36 1.3 0 2.36-1.06 2.36-2.36h0c-.01-1.31-1.06-2.37-2.36-2.37Z"/></svg>