<svg viewBox="0 0 24 24" xmlns="http://www.w3.org/2000/svg"><path d="M22.22 5.83l-10-5.77v0c-.15-.09-.32-.09-.47 0l-10 5.76H1.74c-.15.08-.24.23-.24.39v11.53c0 .16.08.31.23.39l9.99 5.76v0c.14.08.31.08.46 0l9.99-5.77v0c.14-.09.23-.24.23-.4V6.18 6.17c-.01-.17-.09-.32-.24-.4Zm-.64 11.7l-9.6 5.53 -9.6-5.54V6.44L11.97.9l9.59 5.53V17.5Zm-10.3-9.36c.38-.28.79-.5 1.21-.66 .42-.17.84-.25 1.26-.25 .25 0 .5.03.72.11 .22.07.41.18.58.32 .16.14.29.32.38.53 .09.21.14.45.14.72 0 .32-.07.65-.2.98 -.13.32-.31.62-.53.9 -.22.27-.48.51-.76.72 -.29.2-.59.35-.89.44l-.14-.23v0c.18-.1.35-.21.49-.36v0c.15-.15.28-.31.38-.49 .1-.18.19-.37.24-.58v-.001c.05-.2.08-.41.08-.62 0-.24-.04-.47-.11-.68 -.07-.22-.18-.4-.31-.56 -.14-.16-.3-.29-.5-.38 -.2-.1-.43-.14-.68-.14 -.32 0-.6.06-.86.18s-.5.28-.71.49c-.21.2-.39.44-.55.7v0c-.16.26-.29.54-.39.83v0c-.11.28-.18.58-.24.88 -.06.29-.08.57-.08.84 0 .26.02.54.08.83 .05.28.13.56.24.84 .1.27.24.53.4.78 .16.24.34.46.55.64v0c.2.18.44.33.7.44 .25.11.53.16.84.16 .2 0 .41-.03.6-.09l-.001 0c.19-.06.38-.14.56-.23l0 0c.18-.1.35-.21.516-.34h0c.16-.13.31-.27.45-.43l.21.2c-.2.25-.42.49-.68.72v0c-.27.23-.55.43-.85.61v0c-.3.17-.62.32-.96.42 -.34.1-.66.15-.99.15 -.32 0-.62-.06-.9-.17 -.28-.12-.54-.26-.77-.45 -.24-.19-.45-.41-.63-.67 -.19-.26-.34-.53-.47-.81 -.13-.29-.23-.58-.3-.89 -.07-.31-.11-.6-.11-.89 0-.42.07-.86.21-1.3 .14-.45.33-.88.58-1.3 .24-.42.53-.82.87-1.19 .33-.38.69-.7 1.08-.98Z"/></svg>