<svg viewBox="0 0 24 24" xmlns="http://www.w3.org/2000/svg"><path d="M16.42 9.86v.61c.3-.01.55.1.55.1 -.76.25-1.19 1.06-1.19 1.84v2.62c-.05.03-.07.06-.1.09 -.12-.35-.46-.76-.81-.96V12.13c0-.73.53-1.53 1.28-1.68v-.64c-.25-.06-.43-.28-.43-.54v0c-.01-.31.24-.56.54-.56 0-.01 0-.01 0-.01v0c.3-.01.55.24.55.54 0 0 0 0 0 0 0 .25-.19.48-.44.53m-3.03-.01v.63c.74.14 1.28.94 1.28 1.67v2.02c-.36.19-.7.6-.81.95 -.03-.04-.06-.07-.1-.1V12.3c0-.8-.43-1.59-1.18-1.85 0 0 .24-.11.55-.11v-.63 0c-.25-.06-.43-.28-.43-.54 0-.31.24-.56.54-.56v0c.3-.01.55.24.55.54 0 0 0 0 0 0 0 .25-.19.47-.44.53m1.51-.43l-.01.59c.29.03.55.24.64.48 -.35.22-.63.56-.77.99 -.14-.43-.42-.77-.77-1 .1-.25.35-.45.64-.49v-.6l-.001 0c-.25-.06-.43-.28-.43-.54h0c-.01-.31.24-.56.54-.56 0-.01 0-.01 0-.01 .3 0 .55.24.55.55 0 .26-.19.48-.44.53m-.13 7.58c1.71 0 2.1-1.44 2.15-1.81v-.49c-.54.13-1.01.41-1.327.83 -.12-.5-.43-.92-.83-1.19 -.41.27-.72.69-.84 1.18 -.32-.43-.8-.71-1.33-.84v.48c.05.36.43 1.8 2.15 1.8m-4.24-5.006c-.01-.74.49-1.33 1.51-1.33 .67 0 1.48.56 1.48 2.02v2.16c-.3-.2-.71-.38-.93-.38v-2.02c0-.78-.56-1-.82-1 .14.13.23.3.23.52 0 .41-.35.74-.76.74 -.42 0-.74-.31-.75-.75m8.46 0c0-.74-.5-1.33-1.52-1.33 -.68 0-1.5.56-1.5 2.02v2.16c.29-.2.7-.38.92-.38v-2.02c0-.78.55-1 .81-1 -.15.13-.24.3-.24.52 0 .41.34.74.75.74s.73-.31.75-.75m-3.06-1.99c-.27-.13-.45-.4-.45-.71 0-.44.35-.79.78-.79 .43 0 .78.35.78.78v0c0 .3-.18.57-.45.7v.22c.24.02.53.12.71.21v0c.09-.01.19-.02.29-.02 .98 0 1.68.65 1.68 1.55 0 .55-.5 1.06-1.06 1.06 -.57 0-1.08-.56-.98-1.11 0 0-.06.19-.06.42v2.83c-.03.32-.46 2.1-2.46 2.1 -2.01 0-2.44-1.79-2.47-2.11v-2.84c0-.24-.06-.43-.06-.43 .1.53-.41 1.1-.97 1.1 -.57 0-1.07-.51-1.07-1.07 0-.91.69-1.56 1.68-1.56 .1 0 .2 0 .28.01 .18-.1.48-.21.71-.22v-.23c-.27-.13-.45-.4-.45-.71 0-.44.35-.79.78-.79 .43 0 .78.35.78.78v0c0 .3-.18.57-.45.7v.29c.06.02.13.04.2.07 .12-.27.36-.47.64-.56v-.24c-.27-.13-.45-.4-.45-.71 0-.44.35-.79.78-.79H14.4c.43-.01.78.34.78.78 0 0 0 0 0 0 0 .31-.19.58-.45.7v.23c.27.09.51.29.63.55 .06-.03.13-.06.2-.08Zm8.02-6.596h-6.87L-.3 20.18h17.13Z"/></svg>