<svg viewBox="0 0 24 24" xmlns="http://www.w3.org/2000/svg"><path d="M0 1.24l1.43 3.18 -1.44 2.497 1.43 2.5 -1.44 2.497 1.43 2.42 -1.44 2.49 1.43 2.5 -1.44 3.4 2.8-.91c6.3.01 12.69 0 18.096 0l3.1.91 -2.05-3.64 1.13-1.9 -2.2-2.28 -.01-.02V1.95c-6.551-.01-12.25 0-18.091 0Zm19.688 1.968v7.03l-.23-.9 -1.44-4.39 -3.56.6L12.56 3.2Zm-11.695 0h4.56l-3.02 1.2Zm2.86 3.68v0c.55-.04 1.11.05 1.64.25 1.968.75 1.28 2.8.15 4.01 -.38.37-1.21.22-.61-.91 .22-.46.45-1.37-.23-1.59 -1.52-.53-3.26.68-3.64 2.27 -.38 1.36.6 2.801 2.34 2.423 1.439-.31 2.8-1.29 3.33-1.75 .53-.46.907.38.3 1.28 -.68.9-1.74 1.968-2.65 2.574 -3.558 2.423-6.67-.76-5.375-4.4 .67-1.85 2.45-4.05 4.72-4.19Zm6.52 2.03v0c.16 0 .33.06.45.18 .32.32.2.97-.27 1.44 -.48.47-1.13.593-1.45.26 -.33-.33-.21-.98.26-1.45 .29-.3.66-.47.99-.45Zm-.42 3.23v0c.16 0 .33.06.45.18 .32.32.2.97-.27 1.44 -.48.47-1.12.59-1.45.26 -.33-.33-.21-.98.26-1.45 .29-.3.66-.47.99-.46Z"/></svg>