<svg viewBox="0 0 24 24" xmlns="http://www.w3.org/2000/svg"><path d="M23.99 12.14c0-.01 0-.01 0-.01l-.01 0c-.01-.02-.07-.03-.18-.03l-1.6-.03c-2.44-.03-6.98-.07-7.19-.07h-.06v-.001c-.24-.02-.48.02-.71.09l-.1.02V12.1c-.26.09-.53.14-.8.17 -.29.01-1.37 0-1.41 0 -.05 0-1.13 0-1.41-.01v0c-.28-.03-.54-.09-.8-.18l-.1-.03v0c-.23-.08-.47-.11-.71-.1h-.05c-.21 0-4.75.02-7.19.04L.06 12c-.11 0-.18 0-.18.02l.09.02c.33.06.67.11 1.01.12 .65.01 5.43.13 5.54.13 .25-.01.51.03.75.13h1.49s-.61.03-.62.07H8.1c-.16 0-.61 0-.87-.02 0 0-.02.07.24.07 .09.06.18.12.27.16h1.28s-.51.03-.52.06c-.06 0-.28-.01-.5-.02l-.3-.01s-.02.06.22.06l.04.02c.48.21.99.36 1.52.43 .19.03.4.06.6.07 0 0 .24.02.2.02v-.001c-.58-.03-1.15-.1-1.71-.23v0c-.46-.12-.89-.3-1.28-.54l-.001-.001c-.22-.15-.48-.23-.74-.24 -.17-.02-5.65-.23-5.67-.23H.87c-.36-.02-.71-.06-1.05-.15l-.08-.03c0 .01.03.05.07.08 .16.15.8.46 1.18.55 .64.15 4.64.66 5.35.74l.39.04c1.07.11 2.42.26 3.1.33v0c.13.02.26.01.39-.03h-.001c.47-.18.98-.27 1.49-.26v-.001c.51-.01 1.02.08 1.5.25v0c.12.03.25.04.38.02 .68-.07 2.03-.22 3.1-.34l.39-.05c.7-.08 4.7-.57 5.35-.73 .37-.1 1.01-.41 1.18-.56 .03-.03.06-.07.06-.09l0-.01c0-.01-.01-.01-.01-.01Zm-12.27.99c-.8 0-1.59-.02-1.81-.07 -.55-.14-.8-.39-.85-.46 -.05-.08-.04-.08.03-.08h5.75c.06 0 .07 0 .03.07 -.04.06-.3.32-.85.45 -.23.05-1.02.06-1.81.06h-.53Zm12.18-.98v-.001c-.35.08-.7.12-1.05.14 -.02 0-5.5.19-5.67.21v0c-.27 0-.52.08-.74.23v0c-.4.24-.83.42-1.28.53v0c-.56.12-1.13.19-1.71.22 -.05 0 .2-.03.2-.03l-.001-.001c.2-.02.4-.05.6-.08l-.001-.001c.52-.08 1.03-.22 1.52-.44l.04-.03c.24 0 .22-.07.22-.07l-.3 0c-.22 0-.45.01-.5.01 -.01-.04-.52-.07-.52-.07h1.28v0c.09-.06.18-.11.27-.17 .26 0 .24-.08.24-.08 -.29 0-.81.01-.91.01 -.01-.04-.57-.08-.57-.08h1.44v-.001c.24-.1.5-.15.75-.14l5.55-.12h0c.34-.02.68-.06 1.01-.13l.06-.02 -.06.01Zm-11.97.532h.09l-.18.12v.09h-.14v-.1l-.19-.13h.15l.12.08 .12-.09Zm.8.18h.3v.04h-.44v-.23h.13v.18Zm.54 0h.31v.04h-.45v-.23h.43v.04h-.31v.05h.3v.04h-.31v.05Zm-2.53-.19h.13v.22h-.14v-.1h-.28v.09h-.14v-.23h.13v.09h.27l0-.1Zm.59.12l.16.09h-.15s-.14-.1-.17-.13c.13 0 .15-.01.15-.04s-.11-.04-.23-.03v.18h-.15v-.23h.3c.15 0 .19.03.19.06 0 .02-.06.05-.15.06Zm2.71-.06c0-.03-.11-.04-.23-.03v.18h-.14v-.23h.3c.15 0 .19.03.19.06 0 .02-.06.05-.15.05l.16.09h-.15s-.14-.1-.17-.13c.13 0 .16-.01.16-.04Zm-1.56.08c0 .05-.13.07-.26.07v0c-.07-.01-.14-.01-.21-.02l.01-.05v0c.06.01.12.01.18.01 .1 0 .11-.02.11-.03 0-.02-.04-.03-.08-.03l-.1-.02c-.1-.02-.14-.02-.14-.08s.12-.07.2-.07v0c.06 0 .13 0 .2.01l-.02.04v0c-.06-.01-.11-.02-.17-.02 -.09 0-.11 0-.11.01s.02.02.06.02l.11 0c.08.01.13.03.13.07Zm-2.67-.05c0 .05.12.07.21.07 .08 0 .16-.01.18-.01l-.02.04c-.03 0-.11.01-.2.01 -.17 0-.32-.05-.32-.13 0-.09.15-.13.31-.13 .09 0 .17 0 .19 0l.01.04v0c-.07-.01-.13-.01-.19-.01 -.09 0-.22.02-.22.07Zm.99-2.2l-.55-.5h.36l.2.17 .22.19 .04.03 .04-.04 .42-.38h.14c-.18.16-.51.49-.51.49l-.02.01v.43h-.35v-.43l-.03-.02Zm5.37.44h-1.48v-.95h.32v.82h1.14v.11Zm2.18-.01h-1.5v-.94h1.47v.11h-1.17v.29h1.14v.12h-1.15v.29h1.18v.11Zm-12.42 0h-.34v-.95h.33v.41h.91v-.42h.33v.94h-.34v-.42H5.9v.41Zm2.54-.01h-.34v-.95h.88c.16-.02.33.01.49.08v-.001c.06.02.11.09.11.16 -.01.1-.09.21-.37.24l-.09 0 .06.04c.08.07.31.29.41.39l0 0h-.39c-.06-.07-.38-.35-.52-.5v0c.13-.01.26-.03.39-.05v0c.05-.02.09-.08.09-.14v-.001c-.01-.04-.03-.08-.06-.1 -.09-.07-.27-.07-.49-.07h-.266v.82Zm4.9-.25c0-.06-.05-.09-.1-.1v0c-.07-.02-.14-.03-.21-.04 -.19-.03-.28-.04-.35-.05v0c-.12-.02-.24-.05-.35-.1v0c-.07-.04-.1-.11-.1-.18 -.01-.1.08-.17.22-.21 .14-.04.29-.06.44-.06 .23 0 .46.02.69.05l-.03.11v-.001c-.18-.04-.36-.05-.55-.06v0c-.1-.01-.2 0-.3.02 -.07.01-.1.05-.1.09v0c0 .04.04.08.08.09 .06.01.12.02.18.03 .1 0 .24.03.38.04v0c.11 0 .22.04.33.09l0-.001c.06.03.09.09.09.16 0 .09-.09.16-.25.22v0c-.2.05-.4.07-.59.07l0-.01h-.001c-.23-.01-.46-.02-.68-.06l.02-.14c.2.04.41.06.62.06v0c.11 0 .23-.01.35-.05v-.001c.04-.02.07-.06.07-.1ZM3.08 10.5c-.001-.16.1-.28.27-.36l0 0c.21-.1.44-.14.67-.13 .19 0 .38.01.57.04l.02.12v0c-.18-.03-.35-.04-.53-.04v0c-.15-.01-.3.02-.44.07s-.25.13-.25.26 .11.21.24.26c.14.05.28.07.43.07v0c.17-.01.34-.02.52-.04l-.04.13v0c-.19.02-.39.03-.58.04v0c-.23 0-.46-.04-.68-.13 -.18-.09-.28-.21-.28-.36Zm16.42.47h-.34v-.95h.88v0c.16-.01.33.01.49.08v0c.06.02.11.09.11.16 -.01.1-.09.21-.37.24l-.09 0 .06.04c.08.07.31.28.41.39v0h-.38c-.06-.07-.38-.35-.52-.5v-.001c.13-.01.26-.03.39-.05v-.001c.05-.02.09-.08.09-.14v0c-.01-.04-.03-.08-.06-.1 -.09-.07-.27-.07-.49-.07h-.27v.82Z"/></svg>