<svg viewBox="0 0 24 24" xmlns="http://www.w3.org/2000/svg"><path d="M19.42.45l-.001 0c-.62-.01-1.12.49-1.12 1.11 -.01 0 0 0 0 0V1.55c-.01.61.49 1.11 1.11 1.11 0 0 0 0 0 0 1.31 0 2.35 1.04 2.35 2.363 0 1.32-1.04 2.36-2.35 2.36H1.09v0c-.62 0-1.12.49-1.12 1.11h0c-.01.61.49 1.11 1.1 1.11 0 0 0 0 0 0h18.31c1.3 0 2.35 1.04 2.35 2.36 0 1.32-1.05 2.36-2.35 2.36H1.07 1.07c-.62 0-1.12.49-1.12 1.11 0 0 0 0 0 0v0c0 .61.49 1.11 1.113 1.11h18.31c1.3 0 2.35 1.04 2.35 2.36 0 1.32-1.05 2.36-2.35 2.36H1.06 1.06c-.62 0-1.12.49-1.12 1.11 0 0 0 0 0 0v0c-.01.61.49 1.11 1.11 1.11 0 0 0 0 0 0h18.31v0c.06-.01.13-.01.2-.03 2.42-.12 4.37-2.12 4.37-4.57 0-1.4-.65-2.64-1.63-3.48 .98-.85 1.63-2.09 1.63-3.48 0-1.4-.65-2.64-1.63-3.48 .98-.85 1.63-2.085 1.63-3.48 0-2.52-2.06-4.592-4.58-4.592Z"/></svg>