<svg viewBox="0 0 24 24" xmlns="http://www.w3.org/2000/svg"><path d="M22.56 9.054c.24-.48.45-1.125.23-1.79 -.25-.766-.94-1.28-2.06-1.52l-7.06-1.5L6.46.38C6.38.33 5.68-.03 4.91-.03c-.58 0-1.07.198-1.424.57 -.34.349-.54.83-.61 1.444l-.001 0c-.07-.01-.14-.01-.2-.01 -1.089 0-1.65.45-1.93.839 -.43.59-.49 1.39-.17 2.38L3.22 13.3l.25 7.03c.04 1.22.71 2.53 2.09 2.53 .26 0 .53-.06.82-.15 .32.55.92 1.23 1.86 1.23 .66 0 1.32-.36 1.95-1.07l5.11-5.7 6.78-4.29c.14-.1 1.44-.95 1.39-2.23 -.03-.65-.37-1.202-1.01-1.68ZM7.39 20.166l-2.33-7.134 -.32-8.847 8.326 1.771 6.77 3.62 -5.63 6.279 -6.83 4.3ZM20.37 7.51c.54.11.7.27.72.31 .02.06-.02.19-.09.34l-1.63-.87 .99.21ZM4.94 1.79c.26 0 .6.14.7.19l1.73.929 -2.7-.573c.01-.33.08-.484.12-.526 .01-.02.06-.03.13-.03Zm-2.61 2.88c-.2-.6-.1-.78-.1-.774 .01-.03.16-.1.476-.1 .08 0 .15 0 .22.01l.1 3.05 -.714-2.19Zm2.98 15.642l-.03-.8 .51 1.57v0c-.06.01-.12.03-.18.03 -.15 0-.3-.5-.31-.81Zm3.61 1.42c-.42.46-.62.46-.63.46 -.06 0-.19-.14-.31-.32l1.81-1.15 -.9.99ZM21.19 11.43l-1.45.91 1.69-1.89c.24.17.31.29.31.32 0 .13-.29.46-.57.64Z"/></svg>