<svg viewBox="0 0 24 24" xmlns="http://www.w3.org/2000/svg"><path d="M13.35 20.4c1.11 0 2.16-.23 3.13-.62l2.69 2.69c-1.73.96-3.72 1.51-5.84 1.51 -6.63 0-12-5.38-12-12C1.33 5.35 6.69-.03 13.32-.03c2.09 0 4.06.54 5.77 1.48l-2.65 2.64c-.97-.4-2.03-.62-3.14-.62 -4.64 0-8.4 3.77-8.4 8.44 -.001 4.66 3.75 8.43 8.39 8.43Zm2.17-12.16l5.51-5.52 1.57 1.57 -5.52 5.51Zm-2.24 5.63c-1.08 0-1.96-.88-1.96-1.97 0-1.09.87-1.97 1.95-1.97 1.07 0 1.95.87 1.95 1.96 0 1.08-.88 1.96-1.96 1.96Zm9.34 5.69l-1.58 1.57 -5.52-5.52 1.57-1.58Z"/></svg>