<svg viewBox="0 0 24 24" xmlns="http://www.w3.org/2000/svg"><path d="M12.85 13.53c-.05 1.79.07 3.86.14 4.91 .96.13 1.63.45 1.63.83 0 .49-1.2 1.07-2.67 1.07 -1.48 0-2.67-.58-2.67-1.07 0-.38.673-.7 1.63-.83 .07-1.06.19-3.13.15-4.917 -.05-1.62-.78-3.1-1.68-3.83 -.73-.59-1.18-1.43-1.17-2.36C8.22 5.56 9.89 4.14 11.93 4.14c2.04 0 3.708 1.42 3.72 3.186 0 .92-.44 1.763-1.17 2.35 -.9.73-1.64 2.208-1.68 3.82Zm6.214 6.596c.28-.12.61-.18.95-.19 -.01-.24-.17-.68-.31-.88 -.56-.1-1.28-.32-1.66-.69v0c-.13-.1-.2-.26-.19-.41 .02-.15.13-.26.27-.33v0c-.35-.2-.71-.38-1.08-.52v0c-.57.06-1.15.02-1.7-.13 -.31-.09-.77-.24-.82-.55 -.16-.03-.54-.09-.766-.12v0c-.03.1-.06.2-.07.31v0c-.1.41.15.83.56.95 1 .29 1.75.77 1.97 1.35 .44 1.19-1.42 2.35-4.24 2.35 -2.82 0-4.673-1.17-4.24-2.36 .21-.58.94-1.05 1.9-1.34H9.63c.42-.14.68-.57.58-1.01l-.06-.29c-.3.03-.78.1-1.04.14 -.02.31-.48.46-.76.56v0c-.56.15-1.14.2-1.71.14l0 0c-.37.15-.72.33-1.06.53 .54.23.31.73-.09.97 -.41.25-.85.4-1.38.51 -.06.08-.12.29-.17.43 -.02.13-.07.36-.06.45 .645.02 1.26.15 1.62.6 .28.5-.03.97-.51 1.36 .39.31.98.67 1.45.86v0c.86-.35 1.8-.45 2.71-.27 .718.16 1.5.58 1.74 1.28 .63.04 1.89.04 2.52-.05 .18-.74.907-1.15 1.6-1.33v0c.9-.2 1.84-.14 2.71.19 .35-.18 1.03-.61 1.3-.9 -.48-.36-.88-.8-.63-1.33 .08-.19.3-.33.54-.44Zm-9.54-5.85s.41-1.59-1.4-3.64v0c-.81-.92-1.25-2.09-1.25-3.31V7.32c0-2.79 2.26-5.04 5.04-5.04 2.82-.07 5.16 2.218 5.16 5.04v0c0 1.21-.45 2.39-1.25 3.3 -1.62 1.61-1.4 3.63-1.4 3.63v0c2.94-1.02 4.93-3.79 4.95-6.9C19.4 3.33 15.98-.12 11.96-.03 7.93-.12 4.51 3.33 4.54 7.35v0c.02 3.11 2 5.88 4.95 6.89Z"/></svg>