<svg viewBox="0 0 24 24" xmlns="http://www.w3.org/2000/svg"><path d="M16.15-.001h0c-1.11 0-2.17.44-2.94 1.22 -.99.98-1.34 2.28-1.18 3.53 -.46 2.548-2.85 2.9-3.89 2.94 -1.18-.1-2.36.32-3.24 1.21v0c-1.63 1.61-1.64 4.23-.03 5.85 0 0 .01.01.02.02h0c1.61 1.62 4.23 1.63 5.85.02 0-.01.01-.02.02-.03v0c.71-.72 1.14-1.67 1.2-2.68v-.23c.09-3.11 2.77-3.529 3.92-3.561h.52c.98-.07 1.92-.46 2.64-1.21v0c1.62-1.62 1.63-4.24.02-5.86 -.01-.01-.02-.02-.03-.03v-.001c-.78-.79-1.84-1.23-2.94-1.23Zm-.33 15.7h-.001c-2.3-.001-4.15 1.85-4.15 4.15v0c0 2.29 1.85 4.15 4.15 4.15v0c2.29 0 4.15-1.86 4.15-4.15v0c0-2.3-1.86-4.15-4.15-4.15Z"/></svg>