<svg viewBox="0 0 24 24" xmlns="http://www.w3.org/2000/svg"><path d="M11.98.31c-4.9 2.39-9.02.1-9.02.1C1.09 3.47.2 6.16-.01 8.51h23.99c-.22-2.36-1.11-5.04-2.97-8.1 0 0-4.119 2.29-9.02-.11ZM5.21 3.52c.42 0 .74.08.89.15l-.17.64v0c-.22-.09-.46-.14-.69-.14 -.65 0-1.16.38-1.16 1.18 0 .71.42 1.16 1.15 1.16 .24 0 .52-.06.68-.12l.12.63c-.16.07-.49.15-.93.15 -1.25 0-1.9-.78-1.9-1.8 0-1.22.879-1.9 1.97-1.9Zm6.31 0c1.1 0 1.71.82 1.71 1.8 0 1.17-.72 1.88-1.78 1.88 -1.08 0-1.7-.81-1.7-1.82 0-1.08.69-1.88 1.75-1.88Zm7.8.03c.68 0 1.13.12 1.47.38 .37.27.61.71.61 1.34 0 .68-.26 1.15-.6 1.44 -.39.31-.96.46-1.67.46 -.43 0-.73-.03-.93-.06V3.59c.29-.05.69-.08 1.1-.08Zm-12.35.02h.81v2.89h1.43v.67H6.95Zm7.17 0h.82v2.05c0 .61.23.92.65.92 .42 0 .66-.3.66-.93V3.55h.81V5.55c0 1.1-.57 1.62-1.51 1.62 -.92 0-1.45-.5-1.45-1.64Zm-2.68.58c-.56 0-.88.52-.88 1.21 0 .7.33 1.19.87 1.19 .55 0 .86-.53.86-1.22 0-.65-.31-1.2-.88-1.2Zm7.92.01c-.19 0-.31.01-.38.03v2.34c.06.01.18.01.28.01 .73 0 1.22-.4 1.22-1.26 0-.75-.44-1.14-1.14-1.14ZM-.05 9.76C-.34 20.03 11.92 23.64 11.92 23.64l.02 0s12.26-3.62 11.98-13.9h-.01Zm10.76 1.28v-.001c.1-.01.21 0 .32 0v1.41c-.22 0-.44 0-.74.02 -1.69.13-2.44.96-2.65 1.88h.03c.39-.4.96-.63 1.72-.63 1.36 0 2.5.93 2.5 2.56 0 1.55-1.24 2.83-3 2.83 -2.16 0-3.22-1.56-3.22-3.43 0-1.48.56-2.71 1.43-3.5 .81-.72 1.85-1.1 3.13-1.16l-.001 0c.14-.02.29-.02.43-.02Zm6.92 0v0c.1-.01.21 0 .32 0v1.41c-.22 0-.44 0-.74.02 -1.69.13-2.44.96-2.65 1.88h.03c.39-.4.96-.63 1.72-.63 1.36 0 2.5.93 2.5 2.56 0 1.55-1.24 2.83-3 2.83 -2.16 0-3.22-1.56-3.22-3.43 0-1.48.56-2.71 1.43-3.5 .81-.72 1.85-1.1 3.13-1.16v-.001c.14-.02.28-.02.43-.02Zm-8.85 4c-.52 0-.94.3-1.13.7 -.05.09-.08.24-.08.45 .03.83.44 1.58 1.31 1.58h.01c.66 0 1.08-.6 1.08-1.39 0-.73-.4-1.36-1.22-1.36Zm6.92 0c-.52 0-.94.3-1.13.7 -.05.09-.08.24-.08.45 .03.83.44 1.58 1.31 1.58h.01c.66 0 1.08-.6 1.08-1.39 0-.73-.4-1.36-1.22-1.36Z"/></svg>