<svg viewBox="0 0 24 24" xmlns="http://www.w3.org/2000/svg"><path d="M16.5 16.84c.14-.51.09-.98-.16-1.32 -.23-.32-.61-.5-1.07-.53l-8.66-.12h0c-.06 0-.11-.03-.14-.08 -.03-.05-.04-.1-.03-.16 .02-.09.11-.15.2-.16l8.73-.12c1.03-.05 2.16-.89 2.55-1.92l.49-1.31c.02-.06.02-.12.01-.17 -.57-2.55-2.84-4.45-5.55-4.45 -2.51 0-4.63 1.61-5.39 3.86 -.5-.37-1.12-.57-1.8-.5 -1.21.11-2.17 1.08-2.29 2.28 -.03.31-.01.61.06.89 -1.97.05-3.54 1.66-3.54 3.63 0 .17.01.35.03.52 .01.08.08.14.16.14h15.98c.09 0 .17-.07.2-.16l.12-.43Zm2.75-5.57c-.08 0-.17 0-.24.01 -.06 0-.11.04-.13.09l-.34 1.17c-.15.5-.1.97.15 1.31 .22.31.6.49 1.06.51l1.84.11c.05 0 .1.02.13.07 .02.04.03.1.02.15 -.03.08-.12.14-.21.15l-1.93.11c-1.05.04-2.16.88-2.56 1.91l-.15.35c-.03.07.02.14.09.14h6.59c.07 0 .14-.05.16-.13 .11-.41.17-.84.17-1.29 0-2.61-2.125-4.727-4.74-4.727"/></svg>