<svg viewBox="0 0 24 24" xmlns="http://www.w3.org/2000/svg"><path d="M12 0C5.383 0 0 5.382 0 12c0 6.61 5.383 12 12 12 6.61 0 12-5.39 12-12 0-6.62-5.39-12-12-12Zm0 1.799v-.001c5.62-.01 10.19 4.54 10.2 10.17 0 0 0 .01 0 .02v0c0 5.62-4.56 10.19-10.18 10.2 -.01 0-.02 0-.03-.01h0c-5.63 0-10.2-4.55-10.21-10.18 -.01-.02-.01-.03 0-.04v0C1.77 6.32 6.32 1.75 11.95 1.74c.01-.01.02-.01.03 0Zm4.01 5.285c-.49-.02-1.24.36-1.9 1.03l-1.44 1.43 -4.31-1.45 -.85.86 3.25 2.47 -.73.72 0 0c-.25.23-.46.5-.64.78l-1.96-.15 -.476.484 1.947 1.44 1.42 1.94 .48-.48 -.15-1.98c.24-.16.49-.37.74-.61l.76-.76 2.49 3.27 .86-.84 -1.455-4.34 1.39-1.39c.89-.89 1.298-1.92.91-2.33V7.17c-.11-.11-.25-.16-.4-.16Z"/></svg>