<svg viewBox="0 0 24 24" xmlns="http://www.w3.org/2000/svg"><path d="M10.36 0h0Zc-.01.004-.01.066.01.14 .19.78.39 1.67.39 1.7 0 .02-.25.24-.54.5 -.3.25-.63.552-.74.66l-.18.18h-.25c-1.53-.01-3.06.01-4.59-.01 -.58-.01-.86.4-.86.85 0 6.38 0 12.766 0 19.15 0 .54.28.82.82.82h15.06c.54 0 .82-.28.82-.83V4.01c0-.56-.28-.84-.83-.84 -1.64 0-3.27 0-4.9-.01h-.21l-.55-.532c-.94-.915-1.62-1.46-2.77-2.18l-.001 0c-.25-.17-.5-.32-.76-.47Zm.95 1.35c.03-.01.23.125.47.3v0c.9.68 1.74 1.45 2.497 2.31h0c.46.52.9 1.05 1.26 1.6 .35.53.93 1.54.93 1.64 0 .03.01.05.03.05 .02 0 .08-.17.14-.38 .12-.45.12-.45.38.4 .38 1.23.51 2.106.51 3.38 0 .99-.05 1.4-.23 2.12 -.06.2-.07.31-.04.31 .02 0 .18-.04.35-.09 .16-.05.31-.08.31-.08 .02.02-.4.75-.7 1.19 -1.25 1.82-2.718 2.91-4.36 3.2 -.92.16-1.763.1-2.61-.2 -.45-.16-.82-.35-1.4-.74 -1.25-.82-2.21-2.292-2.68-4.12 -.22-.82-.38-2.08-.38-2.9v-.39l.27.41c.4.6.89 1.21.93 1.17 0-.01-.11-.23-.25-.48 -.31-.54-.31-.53-.08-1.39 .36-1.41 1.112-2.862 2.1-4.098 .14-.18.39-.43.61-.67 .6-.65 1.29-1.32 1.34-1.27 .01.01-.01.12-.05.25 -.14.492-.33 1.33-.32 1.34 0 0 .12-.22.19-.34 .07-.13.09-.15.2-.35 .21-.38.39-.7.39-.706 0-.01.13.11.28.26 .22.22.27.25.25.16 -.02-.06-.13-.53-.25-1.028 -.12-.506-.22-.94-.21-.96 0-.01 0-.01 0-.01Zm4.08 2.59h3.71c.37 0 .49.11.49.48v13.9c0 .36-.12.45-.56.45H6.4c-.52 0-1.04 0-1.56 0 -.33-.01-.46-.13-.46-.45V4.39c0-.35.12-.47.46-.47 1.17-.01 2.34 0 3.513 0 .04 0 .09 0 .11 0h.1l-.01 0 -.14.16C7.46 5.22 6.64 6.71 6.25 7.99c-.06.17-.11.32-.11.32 -.01 0-.21-.29-.45-.64 -.24-.36-.45-.66-.47-.665 -.08-.05-.01 3.27.07 3.89 .3 2.22 1.05 3.926 2.292 5.21 .62.64 1.7 1.31 2.63 1.61 1.36.44 2.87.33 4.27-.32 1.37-.64 2.72-2 3.7-3.72 .36-.65.93-1.75.91-1.766 -.01-.01-.26.05-.55.13h0c-.18.05-.36.1-.54.14v-.001c0-.1.01-.2.03-.3 .09-.54.1-1.69.02-2.4 -.14-1.27-.35-2.09-.93-3.67 -.47-1.258-.48-1.274-.5-1.274 -.02 0-.1.23-.18.52 -.09.29-.16.52-.16.52v-.001c-.05-.06-.09-.11-.12-.17v0c-.31-.46-.64-.91-.98-1.34l-.18-.21c.08-.01.15-.02.23-.02Zm-3.6.71l-.04.23c-.03.2-.21.86-.31 1.157 -.05.13.26-.17.43-.43 .08-.12.15-.21.16-.21 .01 0 .17.14.35.32 .18.18.33.32.34.31 .03-.03-.21-.52-.38-.76V5.26c-.12-.16-.24-.31-.37-.45ZM9.31 6.58l-.14.125c-.18.17-.49.64-.63.96 -.15.33-.33.85-.33.94 0 .04.07-.06.15-.23 .15-.29.6-.88.67-.88 .02 0 .06.05.09.12 .06.13.36.55.37.53v0c-.01-.11-.03-.22-.05-.32 -.03-.17-.07-.47-.09-.66v0c-.02-.16-.03-.32-.06-.476Zm5.45 0c-.02 0-.04.11-.04.25 0 .24-.1 1-.16 1.24 -.03.1-.03.1.08-.02 .06-.08.16-.22.23-.33 .06-.11.12-.21.13-.22 .05-.07.71.81.78 1.05 .01.05.04.08.05.07 .03-.03-.19-.69-.33-.98 -.2-.42-.67-1.08-.77-1.08Zm-2.63 1.1h0Zc-.04 0-.28.5-.35.74 -.09.27-.19.97-.18 1.29v.3l.1-.41c.09-.37.25-.76.36-.93 .03-.05.08-.03.27.14 .12.11.26.22.31.25 .08.04.11 0 .04-.08 -.06-.06-.4-.86-.47-1.117 -.04-.12-.08-.22-.1-.22ZM9.54 10.9c-.73.02-1.38.593-1.58 1.44 -.09.37-.09.66.02 1.06 .2.79.65 1.32 1.36 1.59 .09.03.3.05.55.05 .34-.01.43-.03.65-.14 .51-.26.86-.8.96-1.47 .04-.3.04-.41-.03-.72 -.19-.95-.82-1.64-1.64-1.8 -.11-.02-.21-.03-.32-.03Zm5.087 0c-.03 0-.06 0-.09 0 -.85.05-1.65.85-1.81 1.88 -.15.93.33 1.89 1.07 2.183 .34.13.92.11 1.27-.05 .81-.38 1.35-1.44 1.22-2.38 -.12-.86-.66-1.48-1.41-1.62l-.001-.001c-.09-.02-.19-.03-.28-.03Zm-.52 2.06c.38.01.61.47.36.79 -.1.12-.34.2-.51.16 -.51-.11-.46-.88.06-.95h-.001c.02-.01.05-.01.07-.01Zm-3.968.01c.2 0 .24.02.35.14 .19.21.16.6-.05.71 -.19.1-.34.12-.47.06 -.33-.14-.43-.52-.2-.78 .11-.13.15-.15.35-.15Zm-1.52 6.55c.25 0 .49 0 .74 0 .49.01.68.22.68.71v1.16h-.01v1.14c-.01.41-.2.63-.61.64h0c-.55.01-1.09.01-1.63 0 -.42-.02-.61-.23-.61-.65 -.01-.78-.01-1.55 0-2.33 0-.47.2-.68.66-.69 .25-.01.49-.01.74-.01Zm6.23 0c.29 0 .577.01.86.02 .34.02.53.23.53.58 .01.81.01 1.63 0 2.45 -.01.39-.21.59-.61.6 -.54.02-1.08.02-1.62 0 -.43-.02-.61-.23-.61-.67v-1.16h-.01c0-.39-.01-.78 0-1.17 0-.42.16-.64.57-.66 .28-.02.57-.02.86-.02Zm-2.75 0c.29 0 .58 0 .88 0v.63h-1.452c-.31 0-.34.02-.34.34 0 .6 0 1.2-.01 1.8 -.01.2.07.27.27.27 .42-.01.84 0 1.27 0h.26l0 .6c-.05 0-.1.02-.15.02 -.53 0-1.06 0-1.58 0 -.516-.01-.72-.21-.72-.73v-2.24c0-.48.19-.7.67-.71 .29-.01.577-.01.86-.01Zm6.29 0c.35 0 .72 0 1.08 0v.62h-1.8c-.26 0-.29.02-.29.29 0 .72-.11.63.64.64 .29 0 .6-.01.89 0 .43.01.63.2.64.63 0 .27 0 .55-.01.83 -.02.38-.2.6-.58.62 -.74.02-1.48 0-2.23 0v-.62h.24c.55 0 1.11-.01 1.66 0 .18 0 .27-.08.26-.26v0c-.01-.15-.01-.3-.001-.44 0-.19-.08-.26-.27-.26 -.4.01-.81 0-1.21 0 -.54-.01-.73-.21-.73-.74 0-.25-.01-.49 0-.73 .01-.39.19-.61.56-.62 .35-.01.7-.01 1.06-.01Zm-12.84.02c.41-.01.82 0 1.237 0v.58c-.08 0-.16.01-.24.01 -.44 0-.88 0-1.32 0 -.18-.01-.25.07-.25.25 0 .63 0 1.27 0 1.91 0 .19.08.25.26.25 .43-.01.87-.01 1.31-.01h.22v.6c-.65 0-1.29.02-1.92-.01 -.35-.02-.51-.23-.52-.57 -.01-.83-.01-1.66 0-2.48 0-.32.15-.55.44-.56 .25-.02.51-.01.73-.02Zm9.8.6c-.36 0-.72 0-1.08 0 -.18 0-.25.08-.25.25 0 .64 0 1.28 0 1.92 0 .16.07.23.22.23 .38 0 .76 0 1.138 0 .17 0 .22-.09.22-.25 -.01-.32 0-.65-.01-.97 0-.32-.01-.63 0-.95h0c0-.19-.08-.26-.27-.26Zm-7.282 0c-.17-.01-.24.07-.24.24 0 .32 0 .64 0 .96 0 .32 0 .64-.01.96h0c-.01.17.06.24.23.24h1.11c.15 0 .23-.07.23-.24 -.01-.65-.01-1.29 0-1.93 0-.16-.06-.25-.23-.25 -.38 0-.75 0-1.12 0Z"/></svg>