<svg viewBox="0 0 24 24" xmlns="http://www.w3.org/2000/svg"><path d="M3.883 9.82h0c.58-2.14 1.97-3.96 3.87-5.07l.04-.03L5.99 1.6C3.27 3.197 1.26 5.747.42 8.78l-.02.08Zm5.941-5.94l-.001 0c.7-.19 1.43-.29 2.16-.29h0v-3.6h-.02V-.02c-1.07-.01-2.14.14-3.17.42l.08-.02Zm4.35 0l0 0c2.12.58 3.94 1.97 5.06 3.875l.02.04 3.11-1.8C20.76 3.277 18.214 1.26 15.17.42L15.08.4ZM-.01 11.983v0c0 1.1.14 2.16.42 3.17l-.02-.09 3.47-.93 -.001 0c-.2-.71-.29-1.44-.29-2.17v-.01Zm1.605 5.99c.55.94 1.18 1.75 1.9 2.47l2.55-2.54H6.04c-.51-.51-.95-1.08-1.32-1.7l-.03-.04Zm4.39 4.38l0 0c1.81 1.05 3.87 1.61 5.96 1.6h.02 -.01v-3.6h-.01v0c-1.49 0-2.95-.4-4.223-1.15l.03.02Zm13.264-6.18v-.001c-1.11 1.9-2.92 3.29-5.04 3.88l-.06.01 .93 3.47c3.12-.86 5.68-2.87 7.24-5.52l.03-.06Zm4.31-.984c.26-.95.42-2.035.42-3.16 0-1.09-.15-2.14-.42-3.15l.01.08 -3.49.93c.17.64.27 1.37.27 2.13 0 .79-.11 1.55-.32 2.28l.01-.06Z"/></svg>