<svg viewBox="0 0 24 24" xmlns="http://www.w3.org/2000/svg"><path d="M1.072.14V.139C.47.139-.01.609 0 1.209v21.572 -.001c0 .59.47 1.07 1.072 1.07h21.856v0c.59 0 1.07-.48 1.07-1.08V1.19v0c0-.6-.48-1.072-1.08-1.072Zm9.736 1.818V1.95c.35-.01.68.21.82.53v0c.33-.28.82-.23 1.1.1 .09.11.14.24.17.38v0c.09-.05.18-.07.29-.06 .33 0 .59.262.625.57v0c.14-.24.36-.42.62-.52v-.001c.67-.28 1.43.04 1.718.71v-.001c.08-.1.19-.18.3-.24v-.001c.54-.28 1.2-.07 1.48.47V3.89c.07.14.11.3.12.47v0c.5-.21 1.08.04 1.29.54 .08.21.09.44.02.66v-.001c.49-.09.95.24 1.04.73 .04.24-.02.5-.18.7v0c.4.16.59.61.43 1.01 -.06.13-.15.24-.26.33h0c.07.05.14.13.19.22v0c.1.19.09.42-.02.61v0c.17.04.33.12.48.23v0c.57.44.68 1.25.25 1.84v0c.12.02.24.07.35.15v0c.5.32.66 1 .33 1.51v-.001c-.09.13-.21.25-.35.34v0c.4.31.5.88.22 1.31v0c-.14.21-.36.37-.61.43v0c.32.38.27.95-.11 1.27 -.2.16-.45.23-.7.2v0c-.01-.02-.01-.03-.01-.04h-.001c.08.42-.2.83-.62.92 -.16.03-.32.01-.46-.05h0c-.02.09-.05.19-.1.28v0c-.1.15-.26.25-.43.28v0c.03.14.04.3.02.45v0c-.09.71-.73 1.23-1.44 1.17h0c.03.12.05.24.05.37v0c-.02.6-.53 1.08-1.13 1.07v0c-.17-.01-.33-.05-.47-.12h-.001c-.07.54-.56.93-1.11.87 -.23-.03-.44-.13-.6-.3v0c-.16.47-.68.72-1.15.56 -.25-.09-.44-.27-.55-.5h0c-.34.27-.83.22-1.11-.11 -.1-.12-.15-.25-.18-.39h-.001c-.1.04-.19.06-.29.06v0c-.33-.01-.6-.26-.63-.58l0-.01H10.2c-.16.23-.38.41-.64.52v0c-.67.26-1.44-.05-1.718-.71v0c-.09.09-.2.17-.31.23h0c-.55.27-1.21.06-1.48-.48H6.05c-.08-.15-.12-.31-.13-.48v0c-.52.2-1.09-.05-1.3-.56 -.09-.21-.1-.44-.03-.66v0c-.5.08-.97-.25-1.05-.74 -.05-.26.01-.51.17-.71v0c-.41-.17-.6-.62-.44-1.02 .05-.14.14-.25.25-.34v0c-.09-.06-.15-.14-.2-.23v0c-.1-.2-.1-.43.01-.61l.01 0v0c-.19-.05-.35-.13-.5-.24h0c-.58-.45-.69-1.27-.27-1.85v0c-.13-.03-.25-.08-.35-.15v0c-.52-.33-.67-1.01-.34-1.52H1.88c.08-.14.2-.26.34-.34H2.22c-.44-.34-.52-.96-.19-1.4 .13-.18.33-.31.55-.36H2.58c-.33-.39-.28-.96.1-1.28 .19-.17.44-.24.69-.21v0c-.07-.43.23-.83.66-.9 .14-.03.28-.01.42.05v0c.01-.1.04-.2.09-.28v0c.09-.16.25-.26.43-.29v0c-.04-.15-.05-.31-.03-.46v0c.08-.72.72-1.24 1.44-1.18v0c-.05-.13-.07-.25-.06-.38v0c.01-.61.52-1.09 1.12-1.08 0 0 0 0 0 0v0c.16 0 .32.04.47.11h0c.06-.55.55-.94 1.1-.87 .22.02.43.12.59.29v0c.12-.37.46-.62.85-.62Zm-7.125 5.55h0c0 .01 0 .02 0 .04l-.01-.04h-.001c-.01-.01-.01-.01-.01-.01Zm13.81 12.09h-.001c-.01-.01-.01-.01-.01-.01h-.04v0c.01 0 .02 0 .03 0ZM13.81 3.49V3.49c-.01 0-.01 0-.01.01l0-.02Zm-2.37-.02l-.01 0v0c-.18.17-.42.27-.67.27v0c-.22-.01-.43-.09-.59-.24v0c-.13.44-.53.74-.99.73v0c-.13-.01-.25-.03-.37-.08v0c-.03.57-.49 1.02-1.061 1.04v0c.11.22.15.48.12.73v0c-.06.44-.33.83-.73 1.03v0c.2.21.31.49.3.79v0c-.01.23-.09.46-.24.65 .32.18.53.52.52.91l-.001 0c-.01.11-.03.22-.07.33H7.65c.47.04.83.45.82.93v0c0 .04-.01.09-.01.13v0c.05-.01.1-.02.15-.01 .34 0 .62.25.702.57v0c.11-.08.24-.12.38-.12 .31 0 .56.22.63.51v0c.11-.07.25-.08.38-.02v0c.04-.24.14-.46.3-.63v0c-.06-.04-.1-.09-.12-.15v0c-.07-.13-.07-.27 0-.4h0c-.36-.09-.59-.44-.51-.8 .02-.13.08-.24.17-.33l-.001 0c-.16-.07-.29-.19-.359-.34v0c-.19-.37-.05-.81.32-1 .02-.02.04-.02.06-.03v0c-.03 0-.05.01-.06.02v0c-.09-.08-.16-.17-.21-.27v0c-.24-.45-.06-1.01.39-1.24 .07-.04.14-.07.22-.09v-.01h0c-.26-.5-.07-1.12.43-1.38v0c.16-.09.36-.13.55-.12v0c-.03-.44.2-.86.59-1.06h-.001c.01-.01.03-.02.06-.03l0 0c-.05-.07-.09-.14-.11-.21v0c-.14.08-.3.13-.46.13v0c-.28-.01-.53-.16-.67-.4Zm4.57 1.51v0c-.15.2-.36.36-.59.46h0c-.42.16-.89.11-1.26-.15v-.02h0c-.09.28-.29.52-.56.66H13.6c-.21.1-.45.14-.69.11v0c-.01.37-.22.71-.56.88h-.001c-.11.05-.22.08-.33.1v0c.18.44-.01.95-.43 1.16V8.18c-.05.02-.09.04-.13.05h-.001c.03.04.06.08.08.13v0c.15.3.08.66-.17.89l0-.001c.12.06.21.16.28.28v0c.13.26.07.59-.15.79v0c.06.03.11.09.15.16 .01.03.03.06.03.1v0c.21-.07.45-.07.67-.02v0c0-.06.02-.1.05-.15v0c.07-.12.2-.19.34-.2v0c-.12-.35.08-.73.42-.84 .11-.04.24-.05.36-.02h-.001c-.02-.17.02-.34.11-.48v0c.21-.35.66-.45 1.01-.23 0 0 0 0 0 0l0 0c.02-.11.06-.22.12-.31l-.001-.001c.26-.43.83-.56 1.26-.29 0 0 0 0 0 0h0c.06.04.12.09.17.15v0c.3-.48.93-.62 1.4-.32 0 0 0 0 0 0v0c.16.1.29.24.37.42 .35-.24.83-.27 1.21-.02v0c.07.04.14.1.2.17v0c.02-.04.05-.08.08-.11v0c-.15-.08-.26-.2-.34-.34v0c-.13-.25-.12-.54.03-.77h0c-.24-.07-.44-.24-.56-.46v0c-.1-.2-.13-.42-.08-.63v0c-.45.1-.91-.11-1.12-.52V5.61c-.06-.12-.1-.24-.11-.359v0c-.52.25-1.14.06-1.43-.43ZM5.23 7.34h0c0 .16-.04.32-.13.46V7.8c-.15.23-.41.36-.68.36 .06.23.02.49-.12.71h0c-.12.18-.3.31-.5.37 .31.32.37.82.12 1.22h0c-.07.1-.16.19-.26.26v0c.47.31.63.94.35 1.45v0c.25.02.49.11.69.27h0c.35.27.54.7.51 1.15 .28-.07.57-.02.84.15H6.05c.19.12.35.31.43.53v-.001c.32-.19.73-.18 1.05.03l0-.001c.09.06.18.13.25.23H7.78c.28-.39.82-.49 1.22-.23V14.3c.03.02.07.05.11.08v0c.01-.05.04-.1.07-.15h0c.18-.29.53-.41.85-.31h-.001c-.01-.14.02-.27.1-.39v-.001c.16-.26.47-.37.76-.28h-.001c0-.17.09-.31.24-.38v0c-.16-.15-.29-.33-.36-.53v-.01h0c-.08.05-.17.07-.25.07v-.001c-.14-.01-.27-.08-.35-.19h-.001c-.25.27-.67.29-.94.05 -.1-.09-.16-.19-.2-.3v0c-.14.1-.31.15-.47.14v0c-.41-.01-.73-.35-.72-.75 0-.01 0-.01 0-.01h0c-.11.03-.22.05-.33.04v0c-.51-.02-.91-.44-.9-.94 0-.09.01-.17.03-.25h-.01v0c-.57-.02-1.01-.48-1-1.04 0-.01 0-.01 0-.01v0c0-.2.06-.38.16-.54H5.78c-.41-.19-.66-.6-.64-1.04v0c0-.13.02-.25.06-.36h0c-.04-.01-.07-.02-.1-.02Zm11.12 2.13v0c-.29.38-.83.48-1.23.22V9.69c-.04-.03-.08-.06-.12-.09v0c-.02.04-.04.09-.07.14v0c-.19.28-.54.4-.86.3v0c0 .13-.04.27-.11.38v0c-.17.25-.48.36-.77.27v-.001c-.01.07-.03.14-.07.21v0c-.03.03-.05.06-.08.08v0c.14.15.25.35.31.56h0c.05-.03.12-.05.18-.04l-.001 0c.13 0 .26.07.34.19v0c.24-.28.66-.31.93-.07 .09.08.16.18.19.3l-.001-.001c.13-.11.29-.16.46-.16 .41 0 .72.34.72.75v0s0 0 0 0v-.01 0c.1-.04.21-.06.32-.06v-.001c.5.01.9.42.89.93 -.01 0-.01 0-.01 0v0c-.01.07-.02.15-.04.23 .56.01 1 .48.99 1.04v0c-.01.19-.07.37-.17.53v0c.4.18.65.59.64 1.03v0c-.01.12-.03.24-.08.36l0-.01 .1.01v0c-.01-.17.03-.33.12-.46V16.1c.14-.24.4-.37.68-.37l0 0c-.07-.25-.03-.5.11-.71v0c.11-.19.29-.32.5-.38v0c-.32-.34-.38-.84-.13-1.23l0 0c.06-.11.15-.2.25-.27v0c-.48-.32-.64-.96-.35-1.46v0c-.26-.03-.5-.12-.7-.28h-.01v0c-.36-.28-.55-.72-.52-1.16v0c-.29.06-.59.01-.84-.15h-.001c-.21-.13-.36-.32-.44-.54v0c-.33.18-.74.17-1.05-.03v0c-.1-.07-.19-.15-.26-.24Zm-.1 3.11l-.01.06 -.001-.001c0-.03 0-.05 0-.07Zm-2.87-.26v0c-.07.22-.2.43-.37.59v0c.08.03.15.1.19.18l-.001 0c.06.12.06.27-.01.39h-.001c.35.08.58.43.5.79 -.03.11-.09.22-.18.31l0-.001c.15.06.28.18.35.33l0 0c.18.36.04.8-.32.99h0c.08.07.14.16.19.26h0c.23.44.05.99-.39 1.22 -.01 0-.01 0-.02 0v0c-.08.03-.15.06-.23.08v0 0c.25.5.06 1.11-.44 1.37 -.01 0-.01 0-.01 0v0c-.17.08-.37.12-.55.1v0c.02.46-.24.89-.67 1.08v0c.05.06.08.13.11.21v0c-.01 0-.01 0-.01 0v0h0c.13-.1.29-.14.45-.14v0c.27 0 .52.15.66.39v0c.17-.18.41-.28.66-.27v0c.21 0 .42.08.58.23v0c.11-.45.52-.75.98-.74v0c.12 0 .24.03.36.07v.02 0c.01-.59.47-1.06 1.06-1.08v0c-.12-.23-.16-.49-.13-.74 .05-.46.34-.84.72-1.04l0 0v0c-.21-.22-.32-.5-.31-.8v0c0-.24.08-.47.23-.66h-.001c-.44-.25-.64-.78-.46-1.26v0c-.48-.05-.84-.46-.83-.94h-.001c0-.05 0-.1.01-.15h0c-.06.01-.11.01-.16.01h0c-.34-.02-.63-.25-.7-.58h0c-.12.07-.25.11-.39.11h-.001c-.31-.01-.56-.22-.63-.52v-.001c-.07.03-.15.05-.22.05l0 0c-.07-.01-.13-.02-.18-.05Zm-.97.93h-.001c-.11.02-.23.04-.34.04 -.12 0-.22-.02-.33-.04h-.001c.01.1-.01.2-.06.29v0c-.08.11-.21.19-.35.19h-.001c.1.35-.09.72-.44.83 -.12.03-.24.03-.36.01h0c.01.16-.03.33-.12.47v0c-.23.34-.68.44-1.02.22H9.38c-.03.1-.07.21-.13.3l-.001 0c-.28.42-.84.55-1.27.28 -.01-.01-.01-.01-.01-.01v0c-.07-.05-.13-.1-.19-.16v0H7.78c-.31.47-.94.61-1.41.31H6.37c-.17-.11-.3-.25-.38-.42 -.36.23-.83.26-1.22.01v0c-.08-.05-.15-.11-.21-.18v0c-.03.03-.06.07-.09.1h0c.14.07.26.19.33.33v0c.12.24.11.53-.04.77H4.76c.23.06.44.23.55.45H5.31c.09.19.12.41.07.62H5.38c.44-.11.91.1 1.12.51H6.5c.05.11.08.23.1.35H6.6c.51-.26 1.14-.07 1.431.43v0c.14-.21.35-.37.58-.46 .43-.18.89-.11 1.25.14v0c.08-.29.28-.52.54-.65v0c.21-.11.44-.15.68-.11v0c0-.38.21-.73.55-.9h-.001c.1-.06.21-.09.33-.11l-.001-.001c-.19-.45-.01-.96.42-1.17v0c.04-.03.08-.04.13-.06v-.001c-.04-.05-.07-.09-.09-.14l0 0c-.16-.3-.09-.67.16-.89v0c-.13-.07-.22-.17-.28-.29v-.001c-.14-.27-.08-.6.14-.8v0c-.07-.05-.12-.1-.15-.17v-.001c-.04-.08-.06-.16-.05-.24Z"/></svg>