<svg viewBox="0 0 24 24" xmlns="http://www.w3.org/2000/svg"><path d="M21.35 18.708c1.46 0 2.64 1.18 2.64 2.64 -.001 1.46-1.186 2.64-2.65 2.64 -1.46 0-2.65-1.186-2.65-2.65 0-1.46 1.18-2.65 2.64-2.65Zm-9.36-9.36c1.46 0 2.64 1.186 2.64 2.64 0 1.46-1.186 2.64-2.65 2.64 -1.46 0-2.65-1.19-2.65-2.65s1.18-2.65 2.64-2.65Zm9.354 0c1.46 0 2.64 1.18 2.64 2.64 0 1.46-1.186 2.64-2.65 2.64 -1.46 0-2.65-1.186-2.65-2.65 0-1.46 1.18-2.65 2.64-2.65ZM11.99-.02c1.46 0 2.64 1.185 2.64 2.646 0 1.46-1.186 2.646-2.65 2.646 -1.46 0-2.65-1.186-2.65-2.646s1.18-2.646 2.64-2.646Zm-9.354 0c1.46 0 2.64 1.185 2.64 2.646C5.27 4.09 4.09 5.28 2.63 5.28 1.17 5.28-.02 4.09-.02 2.63 -.02 1.17 1.16-.02 2.63-.02Zm18.708 0c1.46 0 2.64 1.185 2.64 2.646 0 1.46-1.186 2.646-2.65 2.646 -1.46 0-2.65-1.186-2.65-2.646s1.18-2.646 2.64-2.646Z"/></svg>