<svg viewBox="0 0 24 24" xmlns="http://www.w3.org/2000/svg"><path d="M12.071 0v0c-3.88 0-7.51 1.86-9.77 5.01 -2.913 4.075-2.88 9.77.06 13.82 .09.13.19.25.29.36 .27.3.54.59.782.82 .18.16.38.34.61.51 .41.33.86.63 1.343.87 -.43-.2-.84-.41-1.18-.58 -.08-.04-.14-.08-.21-.12 -.22-.11-.43-.23-.62-.34h0c-.27-.16-.52-.34-.75-.53 -.16 1.04-.754 1.89-1.792 2 -.975.09-.96 1.38 0 1.5 2.64.33 5.45.64 8.22.64 1.68.01 3.359-.13 5.013-.43 .38-.1.75-.19 1.07-.27 5.51-1.53 9.055-6.86 8.64-12.49v0c0-.04 0-.08 0-.11 -.61-4.85-3.9-9-8.697-10.301v0c-1-.27-2.03-.41-3.06-.41Zm-.11 3.025h-.001c.14 0 .28.05.39.14v0c.68.48 1.3 1.04 1.86 1.67l-.001 0c.94-.17 1.91-.25 2.87-.25h.43c.95.02.96 1.5.02 1.5h-.45c-.62 0-1.24.03-1.85.11v0c.72 1.08 1.31 2.25 1.76 3.48 .94-.2 1.91-.31 2.87-.33h.02c.95 0 .93 1.48-.02 1.5 -.81.02-1.6.11-2.39.26l0 0c.41 1.38.71 2.79.89 4.221 .05.47-.29.71-.66.71v0c-.43.01-.79-.3-.85-.72l-.001 0c-.07-.48-.15-.95-.23-1.42v-.001c-.17-.84-.38-1.66-.64-2.47v0c-.16-.48-.32-.96-.51-1.42v0c-.49-1.28-1.14-2.48-1.93-3.58 -.27.06-.52.125-.782.2v0c-.62.16-1.22.37-1.81.61h0c.72 1.19 1.33 2.46 1.79 3.79 .62-.3 1.27-.57 1.93-.782l.71 1.35h-.001c-.75.23-1.48.52-2.18.87l0-.001c.48 1.7.74 3.47.782 5.25h0c.01.38-.29.71-.68.72 -.03 0-.05 0-.07-.01h0c-.4.02-.74-.29-.76-.69 -.01-.02-.01-.03-.01-.05v-.23h0c-.05-1.46-.27-2.9-.64-4.31l0-.001c-.13-.5-.28-.99-.45-1.48l0-.001c-.46-1.35-1.06-2.63-1.8-3.84v-.001c-.22.11-.42.23-.62.36 -.92.548-1.77 1.22-2.502 1.99H6.44c-.13.14-.32.22-.51.23 -.57 0-1.08-.76-.57-1.29h0c.88-.93 1.9-1.73 3.02-2.37 .09-.07.2-.12.3-.18 -.23-.32-.46-.62-.72-.899v0c-.03-.04-.05-.07-.07-.09 -.49-.56.02-1.306.57-1.306v0c.19 0 .37.09.49.24 .38.44.74.899 1.07 1.37l.01 0 0 0c.62-.28 1.26-.52 1.92-.7 .13-.05.26-.08.39-.11v0c-.27-.27-.55-.51-.85-.73h0c-.02-.02-.05-.04-.07-.05 -.65-.47-.25-1.44.36-1.44Zm-1.39 9.299l.55 1.44 -.001 0c-.96.62-1.85 1.34-2.66 2.157 -.16.13-.34.21-.5.21 -.58 0-1.088-.76-.56-1.28l0 0c.95-.96 2.02-1.81 3.16-2.54Z"/></svg>