<svg viewBox="0 0 24 24" xmlns="http://www.w3.org/2000/svg"><path d="M12 0C5.372 0 0 5.372 0 12c0 6.628 5.372 12 12 12s12-5.372 12-12 -5.372-12-12-12Zm0 1.334c.82 0 1.63.19 2.37.56l0 0c.17.08.29.27.29.47v1.51l-.001-.001c-1.77-.3-3.57-.3-5.34 0V2.35c0-.2.11-.39.29-.474v-.001c.73-.37 1.54-.57 2.37-.56Zm5.14 4.59c.11.04.19.15.19.274v2.12l-.001-.001c-1.7-.8-3.49-1.36-5.34-1.68 -1.96.34-3.8.94-5.333 1.67V6.17c0-.13.07-.24.19-.274l-.001-.001c1.61-.61 3.31-.93 5.03-.94 1.92-.03 3.72.37 5.24.93Zm-5.15 2.07s3.75.625 6.41 2.48c.14.1.18.29.08.44 -1.11 1.74-1.97 3.92-2.596 5.83 1.25-1.28 2.24-2.09 4.1-2.11 .9 0 1.59.2 2.18.516 -1.77 5.43-6.69 7.53-10.19 7.484 -4.337.02-8.32-2.71-9.914-6.73 .8-.71 1.74-1.28 3.247-1.28 .92 0 1.62.21 2.22.53 -.56-1.48-1.24-3-2.048-4.28l0 0c-.1-.15-.06-.35.08-.45 2.65-1.86 6.411-2.49 6.411-2.49Zm0 1.33c-1.34 2 0 8 0 8s1.33-6 0-8Z"/></svg>