<svg viewBox="0 0 24 24" xmlns="http://www.w3.org/2000/svg"><path d="M5.37 2.65v0c0 1.45-1.17 2.63-2.62 2.65v0C1.29 5.29.11 4.1.12 2.65c0-.01 0-.01 0-.01V2.63C.11 1.17 1.29-.02 2.74-.02c0-.01 0-.01 0-.01h0c1.45.01 2.62 1.19 2.62 2.65Zm0 9.35v-.001c0 1.45-1.17 2.63-2.62 2.65v0c-1.46-.01-2.64-1.2-2.63-2.65 0-.01 0-.01 0-.01H.11c-.01-1.46 1.17-2.65 2.62-2.65 0-.01 0-.01 0-.01v0c1.45.01 2.62 1.19 2.62 2.65Zm0 9.35v0c0 1.45-1.17 2.63-2.62 2.65v0C1.29 23.99.11 22.8.12 21.35c0-.01 0-.01 0-.01v0c-.01-1.46 1.17-2.65 2.62-2.65 0-.01 0-.01 0-.01h0c1.45.01 2.62 1.19 2.62 2.65ZM11.31 0H11.3c-1.46.01-2.62 1.19-2.61 2.65l0 0c-.01 1.44 1.15 2.62 2.6 2.65h9.94V5.29c1.45-.01 2.63-1.2 2.63-2.65 -.01-.01-.01-.01-.01-.01v0c0-1.46-1.17-2.64-2.62-2.65ZM8.7 12v-.001c-.01-1.46 1.16-2.64 2.62-2.65H17v0c1.44.02 2.6 1.2 2.6 2.65v0c0 1.44-1.16 2.62-2.6 2.65h-5.7v0c-1.45-.03-2.61-1.21-2.6-2.65Z"/></svg>