<svg viewBox="0 0 24 24" xmlns="http://www.w3.org/2000/svg"><path d="M23.13 8.64l-5.98-3.62v0c-.14-.09-.32-.05-.4.09 -.01.01-.02.02-.02.03l-1.4 3.28 2.84 1.69v0c.25.14.34.46.19.72 -.05.08-.12.15-.2.19l-5.34 3.14 -2.27 5.27v0c-.05.05-.05.13.01.17 .01.01.02.01.04.02h0c.04.01.1 0 .13-.04l3.91-2.37 1.54 2.21v0c.06.1.18.16.3.16h3.7 0c.13 0 .26-.08.32-.2v0c.06-.13.05-.28-.02-.39l-2.52-3.86 5.08-3.077c.57-.35.86-.74.86-1.18V9.71c0-.44-.29-.83-.87-1.18ZM13.07 4.35L.83 12.05c-.58.34-.86.73-.85 1.17v1.173c.014.43.303.81.86 1.15l6.056 3.49h0c.13.07.31.03.39-.11 0-.02.01-.03.02-.05l1.36-3.29 -2.89-1.64v0c-.15-.08-.26-.22-.28-.39l-.001 0c-.04-.22.06-.43.25-.54l5.29-3.25L13.22 4.44v0c.01-.06 0-.11-.04-.15l-.001-.001c-.05-.04-.11-.04-.15-.01Z"/></svg>