<svg viewBox="0 0 24 24" xmlns="http://www.w3.org/2000/svg"><path d="M22.83 10.11l-5.9-2.88c-.07-.04-.11-.11-.15-.18l-2.92-5.896C13.36.12 12.08-.31 11.05.19v0c-.42.2-.76.54-.96.96l-2.92 5.89V7.04c-.04.06-.09.12-.15.17l-5.896 2.91c-1.03.49-1.457 1.77-.96 2.8H.16c.2.41.54.75.96.96l5.896 2.87c.07.03.1.1.14.14l2.94 5.89c.49 1.03 1.77 1.45 2.8.96v0c.41-.21.75-.55.95-.96l2.87-5.9c.03-.07.1-.15.14-.15l5.89-2.92c1.03-.5 1.45-1.78.96-2.81 -.18-.43-.54-.75-.96-.96Zm-4.37.42l-2.74 2.38c-.54.49-.93 1.13-1.07 1.84l-.71 3.551c-.04.14-.18.25-.32.21 -.08 0-.11-.04-.15-.11l-2.38-2.74c-.5-.54-1.14-.923-1.85-1.07l-3.56-.71c-.15-.04-.25-.18-.22-.32 0-.07.03-.11.1-.15l2.73-2.38c.53-.5.92-1.14 1.06-1.85l.71-3.551c.03-.15.17-.25.32-.22h-.001c.05 0 .1.03.14.07l2.38 2.73c.49.53 1.13.92 1.84 1.06l3.55.71c.14.03.24.17.21.32v0c-.02.06-.06.12-.11.17Z"/></svg>