<svg viewBox="0 0 24 24" xmlns="http://www.w3.org/2000/svg"><path d="M11.25 0c-.37.01-.74.041-1.11.095 -.55.05-1.09.32-1.68.59 -.76.32-1.52.64-2.22.7 -1.19.37-1.57.91-1.9 1.35 0 .05-.06.1-.06.1 -.44.86-.49 1.73-.33 2.59 .16.54.37 1.02.54 1.51 .37 1.02.75 2 .92 3.13 .16.32.32.75.43 1.18 .27.86.54 1.83 1.35 2.59l0-.01c.01.01.03.03.04.05 0-.01.01-.01.02-.01l-.03-.59c.64-.98 1.56-1.63 2.865-1.9 .51-.11 1.08-.15 1.66-.13l-.001 0c.6.01 1.2.09 1.79.23 1.45.37 2.59 1.13 2.64 1.78 .02.35.03.69.03 1.03 -.01.06-.01.12-.01.19l.13.06c.07-.04.14-.11.2-.2 0-.01 0-.01 0-.01 0-.01 0-.01 0-.01 .03-.06.07-.13.11-.2 .01-.04.03-.09.05-.13 .2-.47.36-1.16.53-1.97 .05-.28.1-.49.16-.71 .43-.98 1.02-1.84 1.62-2.65 .97-1.36 1.89-2.6 1.78-4.06 -1.79-3.47-4.28-4.01-5.57-4.272 -.22-.06-.33-.06-.49-.11 -1.34-.25-2.5-.4-3.61-.37Zm5.04 14.37v0c0-.33-.01-.66-.04-.99 -.06-.71-1.19-1.46-2.71-1.84 -.59-.14-1.18-.22-1.75-.24 -.54-.02-1.07.02-1.56.12 -1.25.27-2.22.91-2.811 1.89l.05 1.43c.66-.36 1.73-.88 3.13-1 .06-.01.13-.01.2-.01 .11-.02.26-.05.44-.05 1.6 0 3.26.53 4.87 1.64 .03-.28.06-.55.07-.83l.04.02c0-.07.01-.13.01-.19ZM11.24.04c.12-.01.25.01.37.01 -.23-.01-.46 0-.69.01 .1-.01.2-.03.3-.03Zm.49.01c.65.01 1.32.07 2.03.18 -.69-.1-1.37-.17-2.04-.19ZM10.41.1c-.08 0-.16.01-.23.02 -.82.11-1.78.7-2.75 1.045 .35-.14.71-.3 1.07-.46C9.04.42 9.63.15 10.12.1c.09-.02.18-.02.28-.03Zm-.23.24c.16 0 .37-.01.54.05 -.15-.04-.26-.03-.38-.02V.36c.1 0 .21.03.31.06 .57 1-.43 5.27-.68 8.14 .15 1.02.31 1.99.46 2.72 -.71-1.79-1.41-4.921-1.52-7.36 -.06-.98 0-1.84.21-2.49C9.33.78 9.65.34 10.14.29Zm3.13.271c-.82 2.1-.92 6.1-.98 7.35 -.06.54-.01 1.73.05 2.59 0 .21.05.43.05.64 0-.22-.06-.38-.06-.6 -.44-3.25-.98-7.14.91-10.002Zm3.35.37c-.28 2.16-1.41 3.191-1.79 5.29 -.11 1.67-.33 3.62-.38 5.29 -.06-1.68-.01-3.47.26-5.25 .27-1.84.86-3.68 1.89-5.36Zm-10.381.43c-.36.11-.64.248-.86.38 .23-.14.49-.27.85-.39Zm.21.19c.21 0 .43.07.6.23 -.01-.01-.01-.01-.02-.01 .13.09.26.2.39.38 -.21.96.25 3.03.03 4.66 .07 1.54.07 3.18.84 4.45 -.98-1.52-1.18-3.44-1.33-5.24 -.12-1.1-.21-2.1-.47-2.91 -.15-.31-.27-.58-.39-.83 -.03-.04-.05-.08-.08-.12 -.11-.11-.17-.27-.17-.38 0-.06.05-.17.1-.17 .05-.06.16-.06.21-.11v0c.06-.02.13-.02.21-.02Zm-1.35.61c-.07.02-.1.04-.15.06 .17-.04.36.03.51.31 -.19.89.43 3.36.42 5.1 .31 1.84.54 3.84 1.57 5.11 -1.19-1.36-1.68-3.74-2.06-5.74 -.33-1.57-.6-2.92-1.14-3.36 -.06-.11-.11-.17-.11-.28 0-.17-.01-.38.1-.6 -.28.63-.41 1.26-.38 1.9 -.05-.65.08-1.3.37-1.91 0-.06.05-.06.05-.11 .01-.02.03-.04.04-.06 .06-.1.13-.19.22-.26 .05-.07.09-.12.15-.19 -.06.05-.09.1-.14.16 .02-.02.05-.04.08-.06 .1-.11.21-.17.37-.17Zm-.38.16c-.01 0-.01.01-.02.01 .01-.01.02-.03.03-.03 -.01 0-.02 0-.03.01Zm14.76 1.13c-.01 0-.01.01-.01.01 .03-.01.07-.02.11-.02 -.04-.01-.08.01-.12.01 -.87 2.64-1.89 5.28-2.92 7.92h-.001c-.01 0-.01 0-.01 0 -.09.46-.24.88-.54 1.18 .43-.49.48-1.2.53-2.06 .05-.82.05-1.68.48-2.55 0-.06 0-.11.05-.16 0-.01 0-.01 0-.01 .09-.36.2-.69.31-1.02 .41-1.29 1.13-3.17 2.01-3.35 .01-.01.03-.02.04-.03Zm-11.2 12.65l-.33.1c.16.21.26.37.37.43 .1.05.21.1.37.1 .05 0 .16 0 .21-.06l.81-.27c.05 0 .1-.06.16-.06 .1 0 .16 0 .26.05l.27.26 .26-.06c-.11-.17-.27-.33-.38-.38 -.11-.06-.22-.11-.38-.11h-.11l-.87.32h-.17c-.11 0-.22 0-.27-.06 -.06-.06-.17-.17-.28-.33Zm-2.6.54c-.28.16-.65.43-1.19.64 -.55.21-.98.43-1.19.64 -.22.21-.33.43-.33.64 0 .1.05.16.16.21 .05.05.16.05.21.1 .75.32 1.51.7 2.21 1.08 .1.05.21.16.27.21 .05.05.1.05.16.05 .1 0 .26-.06.37-.17 .1-.11.16-.22.16-.33 0-.11-.06-.17-.17-.22 0 0-.44-.22-1.19-.55 -.49-.22-.92-.44-1.19-.6 .16-.28.48-.49.97-.71 .54-.22.91-.44 1.08-.6 .05-.06.05-.11.05-.17 0-.06-.06-.17-.11-.22 -.06-.06-.17-.11-.28-.11Zm11.24 0c-.06 0-.17.05-.22.1 -.06.1-.11.16-.11.21v.05c.16.16.37.26.7.37 .27.05.54.16.81.21 .32.1.54.26.64.48v.05c0 .05-.11.16-.33.26 -.11.05-.33.21-.6.43 -.28.16-.44.32-.6.37 -.22.1-.38.21-.44.32 -.06.05-.06.1-.06.16 0 .1.05.1.1.21 .05.1.16.1.21.1 .05 0 .1-.06.16-.06 .27-.17.64-.38 1.08-.76 .48-.38.86-.65 1.08-.82 .21-.11.32-.22.32-.38 0-.06 0-.17-.11-.22 -.38-.44-.92-.71-1.57-.92 -.11-.06-.28-.11-.6-.17 -.17-.06-.33-.11-.44-.11Zm-2.98.81c-.28 0-.49.05-.65.21 -.22.16-.27.43-.22.75 0 .27.1.48.26.7 .16.21.37.32.59.32 .16 0 .27-.06.43-.11 .27-.17.37-.44.37-.92 0-.38-.11-.65-.28-.82 -.17-.11-.33-.17-.55-.17Zm-4.49.05c-.28 0-.49.05-.65.21 -.22.16-.27.43-.22.75 0 .27.1.48.26.7 .16.21.37.32.59.32 .16 0 .27-.06.43-.11 .27-.17.37-.44.37-.92 0-.44-.11-.71-.27-.82 -.17-.11-.33-.17-.55-.17Zm0 .65c.16 0 .27.1.27.26s-.17.26-.28.26c-.17 0-.27-.11-.27-.27 0-.17.1-.27.26-.27Zm4.37.05c.16 0 .27.1.27.26 0 .1-.11.26-.28.26 -.17 0-.27-.11-.27-.27 0-.17.1-.27.26-.27Zm-2.71 2.1l.16.32c.05.1.1.16.21.27 .05.05.16.16.27.16h.1c.1 0 .16 0 .21-.06 .05-.06.16-.06.21-.11l.16-.17c.05-.06.1-.11.1-.17 .05-.06.05-.11.1-.17 0-.06.05-.11.05-.11 -.06.1-.17.21-.22.32 -.11.05-.17.16-.27.16 -.11.05-.22.05-.33.05 -.11 0-.22 0-.27-.06 -.11 0-.17-.06-.22-.11l-.17-.17c-.06-.06-.11-.17-.17-.22Zm-.87 1.02c-1.14 0-1.84 1.51-3.46.16 -.44 2.64 2.75 2.86 4.11 1.73 .91-.82.64-1.95-.66-1.9Zm2.86 0c-1.3-.06-1.57 1.08-.65 1.89 1.35 1.13 4.54.91 4.1-1.74 -1.63 1.35-2.28-.17-3.46-.17Z"/></svg>