<svg viewBox="0 0 24 24" xmlns="http://www.w3.org/2000/svg"><path d="M15.64 21.576c-.84-.04-2.15.46-2.43.2 -.38-.34.28-1.89.53-2.19 .17-.21.45-.53.6-.67 .59-.56.96-1.32.96-2.18 -.01-.95-.29-1.28.65-.54 .32.25.76.59 1.33.85 1.14.52-1.32-1.68-1.79-2.11 -.79-.7-1.045-1.08-.609-1.36 .34-.22.67-.46.97-.73 1.19-1.04 2.04-2.61 1.87-4.9 -.15-2.091-4.09-7.98-5.14-8.002 -.86-.02-2.58 2.1-3.53 3.25C8.02 4.43 6.41 6.6 6.09 7.87H6.09c-.1.38-.14.78-.14 1.18 0 1.44.75 2.78 1.89 3.74 .7.58 1.48 1.03.23 2.31 -.74.76-2.433 2.36-1.452 1.91 .57-.27 1-.62 1.34-.86 .71-.51.99-.67.83-.03 -.04.13-.03.27-.03.41 0 .89.37 1.69.95 2.27 .15.15.58.48.83.7 .58.5 1.19 1.86.81 2.2 -.29.25-1.593-.25-2.426-.21 -.84.03-2.276.56-2.239 1.56 .03.99 3.17.85 3.9.85 1.64.01 1.08-.65 1.64-.64 .55.01 0 .61 1.85.62 .73 0 3.67.15 3.71-.85 .04-1-1.4-1.53-2.234-1.57Zm-5.51 1.78c-.67.28-1.54.24-1.77-.15 -.23-.4 1.138-.72 1.49-.78 .359-.06 1.138-.14 1.42.39 .33.61-.5.24-1.16.52ZM8.24 9.08c0-.35.02-.69.1-1.01 .25-1.09 1.46-2.98 2.27-4.05 .74-.984 1.76-2.88 2.43-2.87 .82.02 4.27 5.173 4.39 6.96 .12 1.96-.54 3.3-1.47 4.193 -.81.76-1.79 1.36-2.939 1.36 -2.31 0-4.791-2.1-4.791-4.61Zm2.12 7.71c0-1.22.99-2.21 2.221-2.21v-.001c1.22-.01 2.21.98 2.21 2.2 0 0 0 0 0 0 0 1.21-.99 2.2-2.22 2.2v0c-1.22 0-2.22-.98-2.23-2.2 -.01-.01-.01-.01-.01-.01Zm1.92 4.98c-.24 0-.46-.91-.47-1.15 -.01-.36.03-.76.47-.76 .43 0 .47.39.47.75 0 .33-.25 1.14-.484 1.14Zm3.95 1.41c-.23.39-1.1.43-1.77.15 -.66-.29-1.487.08-1.16-.53 .28-.53 1.06-.46 1.423-.4 .35.05 1.72.375 1.49.77ZM15.044 5.82c-.46-.001-.85.31-1.18.77 -.16.23-.45.41-.83-.23 -.35-.593-.92-.93-1.51-.93 -1.18 0-2.135 1.41-2.135 3.15s.95 3.15 2.135 3.15c.73 0 1.37-.56 1.76-1.39 .15-.33.38-.27.56-.02 .33.45.71.77 1.17.77 .92 0 1.66-1.19 1.66-2.65 -.01-1.47-.75-2.652-1.67-2.652Zm-3.51 4.987c-.83 0-1.5-.99-1.5-2.21 0-1.23.67-2.216 1.49-2.216s1.49.99 1.49 2.21c0 1.218-.68 2.21-1.5 2.21Zm3.5-.49c-.641 0-1.17-.83-1.17-1.86 0-1.03.52-1.86 1.16-1.86 .64 0 1.16.82 1.16 1.85 0 1.02-.53 1.85-1.17 1.85Zm.47-1.91c0 .48-.19.87-.42.87 -.23 0-.42-.4-.42-.88 0-.49.18-.89.41-.89 .23 0 .42.39.42.88Zm-2.42 8.97h-.001c0 .23-.19.41-.42.41 -.24 0-.42-.19-.42-.42 0-.23.18-.42.41-.42 .22 0 .41.18.41.41ZM5.51 17.3c-.17 0-1.69.02-2.17.22 -.48.21.28.5.92.54 .32.02.22.26.07.45 -1.16 1.58-.27 1.26.51.56 .19-.17.26.05.28.26 .01.2.51 1.75.665-.21 .06-.81.11-1.25.07-1.53 -.04-.29-.2-.32-.39-.32Zm12.858 0c.16 0 1.68.02 2.16.22 .47.21-.29.5-.94.54 -.32.02-.22.26-.08.45 1.15 1.58.26 1.26-.51.56 -.2-.17-.27.05-.29.26 -.03.2-.52 1.75-.67-.21 -.07-.81-.12-1.25-.08-1.53 .04-.29.19-.32.38-.32ZM12.12 8.48c0 .6-.24 1.1-.53 1.1 -.29 0-.53-.5-.53-1.1 0-.61.23-1.11.52-1.11 .28 0 .52.49.52 1.1Zm3.37-.1c0 .48-.19.87-.42.87 -.23 0-.42-.4-.42-.88 0-.49.18-.89.41-.89 .23 0 .42.39.42.88Z"/></svg>