<svg viewBox="0 0 24 24" xmlns="http://www.w3.org/2000/svg"><path d="M11.986 23.97C5.41 23.97 0 18.55 0 11.98 0 5.4 5.41-.01 11.986-.01c6.57 0 11.986 5.41 11.986 11.986v0c-.01 2.63-.88 5.19-2.5 7.28l2.06 2.06c.29.29.45.69.45 1.1 0 .85-.71 1.56-1.57 1.56 -.42 0-.82-.17-1.11-.46l-2.07-2.07v-.001c-2.09 1.61-4.65 2.49-7.29 2.49Zm6.66-6.01v0c1.48-1.65 2.3-3.78 2.31-5.99 0-4.923-4.06-8.974-8.974-8.974 -2.702 0-5.141 1.22-6.792 3.135h5.25v2.458H3.67h0c-.25.59-.43 1.21-.54 1.84H9.2v2.45H3.04c.08.84.29 1.673.62 2.45h4.31v2.458h-2.8c1.65 1.91 4.09 3.13 6.792 3.13 2.29 0 4.39-.88 5.98-2.31h-.001c.15-.3.38-.53.67-.68Zm-9.43-.15h7.37V15.35H9.2v2.458Zm6.14-4.917h4.91v-2.46H15.34v2.45Zm-4.92 0h3.074v-2.46H10.43v2.45Zm1.84-4.31h4.91V6.12h-4.92v2.45Z"/></svg>