<svg viewBox="0 0 24 24" xmlns="http://www.w3.org/2000/svg"><path d="M1.95 9.425c-1.12 0-1.96.84-1.96 1.955 0 1.13.82 1.95 1.95 1.95 .73 0 1.374-.41 1.725-1.09l.01-.02 -.7-.37 -.01.02c-.21.43-.59.68-1.046.68 -.663 0-1.18-.53-1.18-1.2 0-.69.51-1.202 1.197-1.202 .44 0 .77.2 1 .61l.01.02 .66-.43 -.02-.02v0c-.35-.6-.99-.96-1.666-.95Zm20.78.18v.9h-.47v.673h.46v.87c0 .89.28 1.18 1.15 1.18h.1v-.71c-.46 0-.52-.07-.52-.5v-.87h.51v-.673h-.52v-.91Zm-9.858 0v.68h.75v-.68Zm-4.727.84c-.62 0-1.33.45-1.33 1.42 0 .96.73 1.42 1.31 1.42 .35 0 .64-.15.827-.37v.25c0 .35-.26.673-.67.673v0c-.33.01-.63-.18-.77-.47l-.67.37c.22.42.73.79 1.42.79 .92 0 1.41-.625 1.41-1.4v-2.67h-.75v.29 0c-.21-.23-.51-.36-.82-.35Zm9.599 0c-.62 0-1.34.45-1.34 1.42 0 .96.73 1.42 1.32 1.42 .35 0 .64-.15.82-.37v.3h.75v-2.74h-.75v.266c-.18-.19-.46-.33-.82-.33Zm-6.234 0v-.001c-.3-.01-.58.12-.76.36v-.31H10v2.73h.75v-1.5c0-.46.23-.66.52-.66 .33 0 .5.21.5.58v1.57h.76v-1.67c0-.71-.39-1.13-1.04-1.13Zm9.6 0v-.001c-.3-.01-.58.12-.76.36v-.31h-.75l-.01 2.73h.75v-1.5c0-.46.23-.66.52-.66 .33 0 .5.21.5.58v1.57h.76v-1.67c0-.71-.39-1.13-1.04-1.13Zm-15.9.01v0c-.79-.01-1.42.63-1.423 1.41l-.01.01 -.001-.001c0 .78.63 1.41 1.42 1.41 .78-.01 1.41-.64 1.41-1.43 -.01-.79-.64-1.42-1.42-1.42Zm8.7.04v.66h1.42l-1.44 1.4v.66h2.474v-.67H14.89l1.44-1.41v-.673Zm-1.06 0v2.73h.75v-2.74Zm-4.58.62c.4 0 .702.32.702.73 0 .4-.3.73-.71.73v0c-.4 0-.73-.31-.74-.71 -.01-.02-.01-.03 0-.04 0-.43.31-.74.73-.74Zm9.59 0c.4 0 .7.32.7.73 0 .4-.3.73-.7.73v0c-.4 0-.73-.31-.74-.71 -.01-.02-.01-.03 0-.04 0-.43.31-.74.73-.74Zm-12.671.02c.38 0 .69.32.69.71v-.001c0 .38-.31.7-.69.71 -.39 0-.69-.33-.69-.72 0-.39.29-.72.68-.72Z"/></svg>