<svg viewBox="0 0 24 24" xmlns="http://www.w3.org/2000/svg"><path d="M12 0v0C5.37 0 0 5.37 0 12v0c0 6.62 5.37 12 12 12v0c6.62 0 12-5.38 12-12v0c0-6.63-5.38-12-12-12Zm.46 5.81V5.8c.98-.03 1.95.26 2.75.83 1.21.88 1.46 1.85 1.46 2.5v0c0 .2-.03.4-.09.6v0c-.33 1.03-1.24 1.77-2.31 1.9v0c-.22.03-.44.04-.66.05 -1 0-1.33-.41-1.33-.87 0-.63.6-1.37 1.03-1.37v0c.05-.01.1.01.15.04v0c.11.06.24.09.375.09v0c.03 0 .07 0 .11 0v0c.29-.02.51-.27.51-.56 0-.55-.625-1.25-2-1.25v0c-.53 0-1.05.08-1.55.24v0c-.95.29-1.75.91-2.27 1.75v0c-.45.66-.69 1.44-.69 2.25h-.001c-.01.68.16 1.35.5 1.95v0c.77 1.29 2.18 2.07 3.69 2.06h.24c2-.11 2.46-1.09 2.9-1.28v0c.09-.04.19-.06.29-.07 .32 0 .74.16 1.03.86l0 0c.04.09.06.19.07.3 0 1.14-2.67 2.18-4.22 2.26h-.35 0c-2.28.02-4.4-1.18-5.55-3.14H6.54c-.51-.9-.78-1.91-.77-2.94H5.77c0-1.21.36-2.39 1.03-3.39l0 0c.8-1.21 1.99-2.09 3.38-2.5v0c.7-.24 1.44-.36 2.19-.36Z"/></svg>