<svg viewBox="0 0 24 24" xmlns="http://www.w3.org/2000/svg"><path d="M6.277 1.53v0c-.01 0-.01 0-.02 0L1.51 9.74l-1.4 2.41c.44.77.79 1.35 1.22 2.09C2 15.4 2.87 15.83 4.46 16.12l-.001 0c.2-.48.43-.95.69-1.4l2.78-4.83 2.78-4.826c.4-.702 1.29-2.143 2.57-2.965 -.04.02-.07.05-.11.08 .07-.05.13-.1.2-.14 .46-.28.98-.47 1.41-.52 .33-.04 1.46-.05 2.74-.05Zm11.59.5c-1.05-.01-1.47 0-2.545 0 -1.39 0-2.39.88-3.083 1.77 .37.49.68.97.86 1.28l0-.001c1.85 3.21 3.71 6.43 5.57 9.64 .4.7 1.2 2.19 1.28 3.71 .02.57-.08 1.16-.27 1.59 -.14.3-.66 1.2-1.26 2.253l5.56-9.64v-.01h0c-.01-.01-.01-.01-.01-.01ZM0 8.15l.09 4.94 -.096-4.95Zm.09 4.94l1.13 1.96 4.26 7.38H5.48s0 0 .01 0H17.75c.44-.78.66-1.15 1.311-2.282 .7-1.25.27-2.69-.04-3.48 -.62.07-1.18.09-1.55.09H6.33c-.81 0-2.505-.05-3.86-.75 -.52-.27-.972-.65-1.248-1.03 -.18-.24-.625-1.01-1.16-1.93Z"/></svg>