<svg viewBox="0 0 24 24" xmlns="http://www.w3.org/2000/svg"><path d="M16.66 0c-.07 0-.12.034-.17.095v0c-.11.11-.13.28-.07.43 .19.41.36.83.52 1.25 .01.02.02.04.03.06 -.04-.01-.05-.03-.07-.05 -.3-.31-.65-.56-1-.804 -.48-.34-.99-.603-1.51-.88L14.389.1c-.07-.04-.14-.06-.22-.07l-.39-.04c-.21-.025-.36.09-.36.29 0 .1-.05.132-.14.14 -.08 0-.19.11-.2.192V.61c-.04.23.05.46.22.61 .44.41.87.84 1.3 1.275l.01 0v0c.01.01.02.02.02.03 -.01 0-.02 0-.02 0l-.001-.001c-.02-.01-.03-.02-.04-.03 -.01-.01-.01-.01-.01-.01 -.07-.04-.13-.07-.19-.11 -.3-.2-.6-.41-.9-.6v-.001c-.14-.1-.3-.16-.47-.17v0c-.15-.02-.3.03-.4.14V1.74c-.08.06-.11.15-.09.25 .01.14.11.23.22.31 .5.33.95.734 1.36 1.174 .03.03.07.07.11.11 .11.09.19.22.26.35 .03.06.02.07-.05.07 -.43 0-.84.11-1.25.2 -.17.03-.34.09-.4.28 -.07.21-.1.32.16.39l0 0c.51.13 1 .3 1.49.516v0c.04.02.08.04.11.07 .12.1.23.21.36.3 .38.24.77.47 1.22.58 .05.01.1.03.15.05 .05.01.08.04.09.09 .02.17.13.27.3.33 .02 0 .03.02.06.02 .05.01.07.05.09.1 .06.24.13.47.21.71 .02.08 0 .1-.07.12 -.38.1-.75.22-1.12.33 -.14.04-.14.04-.07.16l.9 1.63c.12.23.13.23.36.11 .02-.02.05-.06.07-.02 .02.03.06.08.02.13 -.12.12-.19.28-.29.42 -.04.04-.04.07-.01.11 .1.16.2.33.3.5 .01.01.03.04.03.05l-.13.36v0c-.07-.26-.18-.5-.32-.72 -.18-.29-.41-.55-.62-.82 -.04-.04-.08-.08-.11-.12 -.2-.21-.46-.34-.7-.48h-.001c-.11-.07-.23-.11-.34-.13 -.38-.08-.75-.11-1.12 0 -.08.02-.12 0-.17-.06 -.1-.13-.17-.28-.29-.38 -.3-.24-.62-.46-.99-.59h-.001c-.28-.1-.57-.16-.87-.17h0c-.16-.01-.31 0-.47.01 -.4.03-.79.07-1.14.29 -.07.04-.15.06-.23.1 -.36.19-.72.38-1.016.67H8.59c-.32.29-.62.61-.9.94 -.33.38-.57.81-.79 1.26 -.02.03-.03.07-.07.09l-.12-.75c-.01-.05.02-.05.05-.04 .08.01.17.01.26.02 .06.01.1-.01.12-.08 .02-.11.04-.21.06-.32 .08-.4.2-.78.3-1.17 .02-.08 0-.1-.07-.12 -.39-.09-.77-.2-1.15-.29 -.08-.02-.11-.05-.09-.12 .08-.3.125-.61.24-.9V7.66c0-.04.02-.07.05-.09 .09-.08.17-.17.16-.31 -.01-.11.04-.17.14-.22 .18-.09.35-.19.53-.29v0c.13-.08.25-.2.32-.34 .32-.61.59-1.242.98-1.81 .03-.06.06-.11.1-.15 .25-.27.48-.55.77-.78 .08-.08.11-.18.11-.29 0-.13-.08-.22-.16-.31s-.16-.17-.28-.15c-.03 0-.06-.01-.09-.02 .01-.04.05-.05.07-.07 .33-.22.67-.44 1.016-.66 .41-.27.81-.53 1.23-.794 .05-.04.07-.06.01-.11 -.02-.02-.03-.03-.04-.05 -.09-.1-.09-.1-.2-.03L7.71 3.32c-.11.06-.11.06-.16-.05 -.12-.27-.18-.54-.27-.81 -.02-.07-.01-.1.04-.137 .28-.23.55-.49.82-.742v0c.1-.1.16-.23.18-.37 .02-.17-.09-.26-.25-.2v0c-.08.02-.15.06-.23.1 -.68.375-1.41.63-2.15.84 -.05.01-.09.02-.12-.02 -.08-.09-.19-.14-.28-.21v0c-.02-.02-.05-.03-.07-.02 -.1.02-.21.05-.266.14 -.16.23-.36.44-.51.68 -.17.28-.34.56-.53.82 -.04.05-.05.05-.09-.01l-.64-1.12V2.21c-.07-.12-.15-.24-.23-.34 -.1-.12-.21-.18-.36-.16 -.03 0-.06-.01-.07.03 -.02.11-.07.22-.06.33 .03.27.08.54.15.806 .11.45.24.91.38 1.36 .133.44.28.88.42 1.32 .01.03.03.07-.02.1 -.07.03-.18.05-.19.125 -.02.07.05.15.08.22l0 .01c.02.05.03.14.08.16 .05.02.11-.05.16-.09 .04-.03.06-.03.08.02 .12.29.25.58.38.87l0 0c.01.04.02.09 0 .13H3.98c-.09.23-.15.47-.2.72 -.02.07-.04.07-.09.05l-.001 0c-.28-.08-.56-.15-.84-.21 -.13-.04-.13-.04-.137.09v.01c-.06.66-.12 1.33-.19 1.99 -.01.06 0 .08.06.09 .19.02.38.05.57.08 .03 0 .06 0 .05.06 -.05.22-.08.45-.125.67v0c-.02.05-.01.11.03.16l.2.26c.04.06.08.14.03.2v0c-.03.03-.04.07-.04.11 0 .41 0 .83.02 1.24 .01.2 0 .4.01.6 .01.53.04 1.06.06 1.6 .01.26-.04.52-.03.78 0 .06.01.1.08.12 .16.05.31.11.47.16v0c.08.02.15.07.18.15v0c.03.06.04.14.03.21 -.01.07.02.11.08.15 .24.17.49.36.74.54 .65.48 1.3.96 1.95 1.44 .06.04.07.08.03.14 -.04.06-.06.13-.09.19 -.03.05-.03.09.03.13 .08.05.16.12.23.18 .06.05.06.14.04.2 -.02.05-.09 0-.14 0 -.04-.01-.07-.01-.1-.02 -.31-.05-.62-.13-.94-.16 -.5-.04-1.01-.09-1.51-.07 -.03 0-.07-.03-.08.03 -.01.04-.02.08.03.11 .02.01.05.02.07.03 .28.09.54.24.8.39 .16.09.33.2.51.26 .03.01.06.03.1 0 -.28-.22-.56-.45-.84-.67 .04-.03.07-.02.1-.02 .33.02.66.07.98.15 .71.17 1.42.36 2.122.57 .23.07.47.1.68.24 .05.03.08.06.07.13 .01.01.02.03.01.04 -.02.01-.04-.02-.05-.03 -.17-.02-.33-.03-.49-.05 -.47-.05-.93-.11-1.4-.1 -.35.01-.71-.02-1.05.01 -.5.03-.99.09-1.48.15 -.03 0-.07-.01-.07.02s.01.07.06.08h0c.03 0 .07.01.11.01 .25.01.49 0 .74.01 .62.01 1.24-.02 1.86.04 .22.02.45.01.66.05 1.03.19 2.05.39 3.07.61 .12.02.24.04.36.1 -.06.05-.13.06-.16.13 -.22.5-.37 1.04-.53 1.56 -.03.09.03.19.12.21v0c.14.04.3-.05.34-.19 0-.02 0-.03 0-.04 .02-.11.03-.22.05-.33 0-.04.01-.06.05-.07 .13-.06.26-.11.39-.16l0 0c.19-.08.37-.19.52-.33 .13-.13.24-.28.25-.47 0-.06.01-.1.06-.14 .22-.17.41-.37.61-.57v-.001c.18-.2.38-.37.6-.54 .02-.02.04-.05.08-.04l.56.22c-.38.22-.73.44-1.09.66 -.02.01-.04.01-.06.02v0c-.13.03-.25.1-.34.2 -.375.37-.57.81-.55 1.35 .01.36.22.53.57.45 .61-.15 1.14-.74 1.23-1.38 .02-.18.05-.36-.08-.52v0c-.06-.07-.12-.14-.18-.2 .02-.02.02-.02.03-.03 .77-.47 1.62-.78 2.47-1.07 1.04-.36 2.1-.65 3.16-.92l-.08-.02c-.07 0-.14.01-.21.02v0c-.3.01-.59.06-.88.13l-.02 0v0c-.03.01-.07.01-.1.01 -.02 0-.03 0-.05 0 .06-.07.25-.27.3-.25l0-.01h0c0-.01.01-.02.01-.02 .01-.03.04-.05.07-.05v-.001c.05-.08.11-.14.19-.19 .05-.03.1-.07.16-.09h-.01c.16 0 .31-.2.48-.27 -.01-.01-.01-.01-.02-.02 -.24.03-.48.07-.71.16 -.5.18-1.01.32-1.49.53 -.75.32-1.49.64-2.2 1.03h0c-.03.01-.06.02-.08.03l-.06-.51c-.01-.04.01-.05.04-.07 .63-.34 1.26-.67 1.92-.94 .54-.23 1.08-.47 1.62-.7 0-.01 0-.01.01-.01h0s0 0 0 0c0 .01 0 .02-.01.02s-.01 0-.01 0h-.01v0c-.15.2-.28.42-.38.66 .03.01.05-.01.06-.02 .11-.12.22-.24.33-.36 .21-.24.44-.46.7-.64 .01-.02.04-.03.03-.05 -.02-.03-.05-.02-.07-.01 -.25.05-.5.09-.74.15 -.09.01-.08-.01-.08-.07 -.01-.2.02-.39.03-.59v0c0-.09.02-.17.05-.25 .09-.23.19-.45.29-.68 .05-.12.08-.24.09-.36 .03-.2.05-.39.07-.58 .03-.3.13-.58.18-.875 .06-.38.11-.76.25-1.11 .125-.32.24-.64.37-.95 .17-.43.39-.84.5-1.29 .03-.16.07-.31 0-.46 -.04-.09-.06-.18-.09-.28v0c-.03-.07-.03-.14-.02-.21 .04-.25.07-.49-.07-.72 -.04-.07 0-.1.04-.14 .08-.09.09-.14.01-.23 -.09-.11-.18-.23-.27-.33 -.08-.09-.16-.18-.24-.27 -.06-.04-.05-.06.01-.08 .14-.05.27-.11.41-.16 .08-.03.1-.07.1-.15 .04-.61.09-1.213.13-1.82 0-.09-.01-.1-.1-.08 -.46.14-.91.28-1.37.42 -.14.04-.15.04-.21-.1 -.24-.52-.42-1.06-.6-1.59v0c-.05-.11-.04-.22 0-.32 .06-.19.02-.38.01-.57l0-.001c-.01-.01-.01-.02-.01-.03v0c-.05-.53-.13-1.04-.26-1.55v0c-.12-.45-.29-.87-.5-1.27 -.23-.44-.48-.86-.74-1.275 -.12-.18-.24-.34-.44-.43V-.97c-.09-.04-.17-.05-.26-.05Zm-2.65.26v0c.07-.01.13.01.2.05l0-.001c.5.24.99.51 1.46.8 .24.15.48.33.71.52 .11.08.19.21.28.33 .03.04.01.09-.03.12 -.03.02-.06.03-.09.05 -.04.02-.08.04-.06.08 .01.04.05.05.09.05v0c.05.01.1 0 .16-.02 .16-.07.31.04.41.16 .02.03.04.09.09.07 .05-.03.06-.09.05-.137 -.02-.15-.05-.3-.09-.45 -.09-.377-.27-.718-.42-1.073C16.71.68 16.66.55 16.6.42c-.03-.07.01-.132.04-.182 .03-.04.08-.01.12.01 .15.068.23.19.31.332 .08.15.17.29.26.43 .14.25.32.49.43.762 .16.38.38.758.48 1.17 .08.37.2.73.25 1.11 .01.14-.01.28 0 .42 .03.27-.01.54-.13.798 -.03.07-.03.13.01.2 .25.53.46 1.08.67 1.63 .02.07.01.1-.06.12 -.49.14-.97.28-1.45.43 -.07.02-.1 0-.12-.06 -.13-.33-.24-.65-.36-.97 -.03-.07-.06-.11-.13-.09 -.09.02-.14-.02-.18-.1 -.07-.13-.12-.28-.22-.36 -.11-.08-.27-.09-.41-.12 -.11-.03-.21-.06-.32-.08h0c-.23-.05-.44-.14-.62-.28 -.31-.23-.62-.43-.94-.63 -.11-.01-.21-.04-.31-.06 -.28-.06-.56-.12-.84-.17 -.07-.02-.08-.07-.09-.11 -.01-.06 0-.11.06-.15 .08-.06.19-.07.29-.08l0-.001c.44-.08.89-.12 1.34-.13 .11-.01.2.04.31.06v0c.05.01.11 0 .16-.03 .21-.15.43-.28.65-.43 .03-.03.09-.04.07-.1v0c-.01-.01-.01-.02-.02-.03 -.02-.01-.03-.02-.05-.02l-.05 0h-.01l0 0c-.24-.01-.48.06-.67.2 -.08.05-.26.01-.31-.06 -.34-.516-.83-.89-1.282-1.29 -.21-.18-.41-.37-.62-.53 -.06-.04-.08-.15-.05-.2 .04-.08.11-.05.16-.02 .18.08.36.17.52.29 .56.403 1.17.74 1.77 1.085v0c.01 0 .03.01.05.02 .09.03.14-.01.125-.11l0-.001c-.01-.05-.03-.1-.07-.14 -.49-.58-1.01-1.124-1.51-1.683 -.11-.12-.23-.22-.35-.32v0c-.1-.08-.17-.18-.22-.28V.67c-.04-.07-.03-.14.02-.19 .04-.05.07-.06.13-.03 .17.08.33.17.48.29 .266.2.53.403.8.605l.8.603c.02.01.04.03.06.05 .05.04.09.09.14.14l.02.02c.01.01.03.04.06.06 .05.03.11.06.17 0 .02-.02.02-.04.03-.06 0-.01 0-.02 0-.03l-.01-.01v0c-.01-.03-.03-.06-.05-.08l-.18-.19V1.85c-.1-.11-.21-.21-.32-.3 -.35-.29-.71-.58-1.07-.85 -.19-.14-.4-.24-.6-.348 -.08-.05-.12-.11-.18-.16V.19c-.04-.05-.05-.1-.03-.15 .02-.06.07-.06.12-.06ZM8.244 1.649v0c0-.01.02 0 .02 0 .04.02.03.07.03.135 .01.06-.03.11-.08.16 -.35.32-.71.62-1.08.92 -.15.11-.33.17-.49.262 -.04.01-.06 0-.08-.03 -.12-.16-.24-.31-.36-.47 -.05-.06.01-.06.04-.07 .25-.1.5-.2.75-.3 .36-.15.69-.35 1.04-.54 .03-.02.07-.05.1-.07 .02-.01.04-.04.07-.05Zm-2.62.83v0c.05 0 .09.02.13.06 .07.06.13.14.18.22 .17.28.41.5.64.73 .16.16.33.32.5.47 .05.05.06.12.09.19 .01.02 0 .04-.02.05 -.02 0-.03.01-.03.02 -.15.12-.28.1-.45.01h0c-.33-.17-.62-.39-.87-.65 -.01-.01-.02-.02-.03-.03 -.12-.09-.12-.09-.17.05 -.06.13-.09.274-.15.4 -.03.04.01.09.04.12s.06.09.13.08c.03-.01.04-.03.05-.06 .01-.08.04-.16.06-.26 .26.22.55.39.84.58l-.28.15c-.72.4-1.43.8-2.14 1.205 -.06.03-.09.03-.11-.04 -.28-.85-.56-1.69-.79-2.56 -.06-.2-.08-.41-.12-.62 -.02-.06.02-.1.06-.12 .05-.03.05.03.07.06 .37.52.63 1.11.94 1.66 .09.16.19.33.29.49 .02.03.03.05.08.04 .05-.02.04-.06.03-.09 -.04-.18-.13-.33-.2-.5v0c-.03-.06-.03-.12 0-.16 .13-.29.33-.54.48-.81 .14-.25.31-.47.45-.72v0c.03-.08.11-.12.2-.12Zm1.77.492c.01 0 .02.01.03.04 .12.27.2.55.3.83 .01.02.01.04-.02.06l-.26.15c-.01 0-.02 0-.05.02 -.01-.02-.02-.04-.04-.06l-.54-.62c-.03-.03-.05-.06 0-.09 .17-.11.31-.27.49-.35 .02-.02.04-.02.05-.02Zm1.92.48v0c.05-.01.1.01.14.04V3.49c.06.04.09.13.08.21v0c-.03.11-.08.21-.17.29h0c-.34.32-.64.69-.89 1.093 -.23.36-.46.718-.63 1.11v0c-.04.07-.09.14-.15.2 -.24.27-.53.48-.86.63v-.001c-.07.02-.11.08-.11.15 -.01.06-.03.11-.03.17v-.001c-.01.14-.08.28-.19.38 -.04.03-.05.08-.06.12l-.28.915s0 .01-.01.01c0 .01 0 .03-.02.03 -.04.01-.08-.01-.12-.03l-.001-.001c-.45-.11-.89-.22-1.33-.34 -.06-.02-.11-.03-.17-.04 -.09-.02-.1-.06-.06-.12 .05-.29.125-.56.29-.8 .03-.06.03-.1 0-.16 -.19-.32-.34-.66-.5-.99 -.03-.06-.02-.08.03-.11l0-.001c.86-.54 1.72-1.07 2.58-1.61 .04-.03.08-.02.13-.03 .15-.04.29-.08.43-.17 .01-.01.02-.02.03-.03 .09-.22.31-.29.49-.37 .41-.19.82-.36 1.189-.633l0 0c.02-.03.06-.04.09-.04Zm11.44 3.772v0l0-.01c-.03.25-.05.49-.07.74l-.05.53c-.01.06-.03.1-.1.13l-.001-.001c-1.13.38-2.25.77-3.37 1.17l-.04 0c-.04 0-.06-.02-.08-.06 -.22-.4-.44-.79-.67-1.18 -.03-.05-.04-.08.03-.1l4.25-1.25c.01-.01.03-.01.06-.02Zm-.41.38c-.16 0-.3.14-.29.29 0 .13.12.25.25.25 .13-.01.27-.16.26-.31 -.01-.17-.09-.25-.24-.25Zm-16.83.87c.01 0 .02 0 .04 0l1.93.5 1.93.51c.06.01.08.03.06.1l-.28.91c-.01.03-.02.07-.06.07l0 0c-.01 0-.02-.01-.02-.01l-1.04-.15c-.23-.03-.45-.07-.68-.1l-.001-.001c-.69-.1-1.37-.2-2.06-.29 -.05-.02-.06-.04-.05-.1 .05-.48.1-.96.15-1.43 0-.02 0-.02 0-.03H3.43c0-.01 0-.01 0-.02 0-.02.02-.02.03-.02Zm8.136.1l.11 0c.19.01.38.08.56.16 .08.03.15.07.23.1l.05.02c.05.02.11.05.17.09l.11.06c.03.02.07.04.1.07 .07.05.14.1.2.16 .21.2.37.44.46.72 .06.2.11.4.13.61 .01.2-.05.39-.1.593 -.01.03-.02.03-.03.03 -.02-.01-.03-.03-.04-.04l-.22-.25v0c-.28-.33-.64-.57-1.05-.69h0c-.33-.1-.66-.15-1-.16h-.001c-.28 0-.55.03-.81.09 -.22.04-.43.07-.64.11 -.14.02-.27.08-.39.14 -.06.02-.12.05-.18.07l-.02 0c-.38.13-.7.36-1.03.57 -.09.06-.17.14-.25.21l-.01 0 -.07.06c-.16.14-.3.29-.47.43 -.08.1-.18.17-.27.266 .02-.17.07-.33.14-.48v0c.07-.15.16-.3.26-.44 .04-.07.09-.14.14-.21v-.001c.1-.14.2-.27.31-.4 .08-.1.16-.2.24-.29l.25-.29 0 0c.03-.04.07-.07.11-.1l.02-.03c.07-.07.14-.14.23-.21l.01-.01 .06-.07c.24-.23.51-.41.79-.59 .02-.02.05-.04.08-.06l.11-.05c.01-.01.02-.01.02-.02v0c.05-.03.11-.05.17-.07l.11-.04c.14-.04.27-.08.41-.12h-.001c.25-.09.51-.12.78-.12Zm-7.57.44c-.07 0-.16-.01-.22.05v0c-.19.18-.19.47-.01.65 0 0 0 0 .01.01h0c.1.09.27.09.38 0 .14-.13.18-.32.09-.54 -.06-.14-.125-.19-.27-.19Zm15.84.06c.08-.01.16.05.23.14 .01.01.02.02.04.03 .02.01.03.04.05.06 .09.11.2.22.31.33v0s.01.01.01.02v0s0 .01-.01.02v0c-.01 0-.01.01-.02.01l-.01.01 -.01 0c-.01 0-.01 0-.01.01 0 0-.01 0-.01 0h0v0c-.15.14-.11.28.01.41 0 .01.01.02.01.03 .09.12.01.25 0 .38 -.01.01-.01.01-.02.02l-.01 0v0c-.02-.01-.03-.01-.03-.01l-.01-.01v0c-.09-.03-.17-.06-.26-.08 -.01 0-.02-.01-.02-.01 -.01 0-.02-.01-.02-.01v0c-.05 0-.09-.01-.12-.02v-.001c-.1-.05-.22-.03-.3.05h-.001c-.01 0-.01.01-.01.02 .04.06.1.07.16.09 .24.08.45.23.68.34 .05.03.06.09.05.15 -.01.03-.02.06-.02.1l-.08.31h0c0 .02-.01.05-.02.07 0 .16-.12.29-.17.43 -.01.01-.02.01-.02.04v0c-.04.1-.09.2-.13.29 0 0-.01.01-.02.02v-.01s-.01 0-.01 0l-.01.01c-.01 0-.01 0-.01 0 -.02.04-.02.09-.06.13h0c-.05.15-.11.29-.19.43 -.01.01-.02.01-.02.03 -.07.14-.13.31-.19.47 -.02.05-.03.11-.04.17l-.01.01s-.01 0-.01 0 -.01.01-.01.01v0c0 .06-.02.13-.04.19 -.02.03-.03.08-.04.12l0 0c-.01 0-.01.01-.01.02l-.21.91c-.06.25-.08.5-.12.75 -.04.23-.05.47-.11.7 -.04.16-.14.32-.22.48 -.08.14-.12.3-.21.44l-.01.01H18.6c-.01 0-.01.01-.02.03 -.01 0-.01.01-.01.01l-.01.03v0c-.01.01-.01.02-.01.03 0 .01 0 .02-.01.03v.03 0c0 .02-.01.04-.01.07 -.02.25-.06.51-.05.77 0 .04-.02.07-.06.09l-.06.02v0c-.04.01-.08.03-.12.04l-.06.02c-.04.01-.05.02-.1.03v-.01s-.01 0-.01 0l-.14.05 -.1.03h0c-.07.04-.14.07-.22.09l-.04.02 -.001 0c-.16.06-.32.13-.48.21 -.09.02-.17.07-.25.11 -.09.04-.18.07-.27.11 -.14.06-.28.12-.42.18 -.01 0-.02 0-.02 0 -.13.04-.26.11-.38.17 -.05.02-.12.05-.18.07 -.11.04-.14.03-.16-.08 -.08-.06-.08-.14-.11-.22 -.03-.08-.05-.15-.08-.23 -.01-.03-.02-.02-.02-.04 -.03-.04-.03-.07-.04-.1l-.01-.02c-.01-.01-.01-.02-.01-.02l-.01-.02h0c-.04-.1-.07-.2-.1-.3 -.03-.07-.07-.14-.08-.21v0c-.01-.03-.01-.05 0-.07l0-.04 0-.02c.02-.05.05-.1.07-.14 .01-.04.03-.08.04-.12 .01-.04.03-.07.04-.12 .03-.08.06-.16.11-.24 0-.02.01-.04.02-.06 .04-.15.09-.3.14-.44 0-.01-.01-.02-.01-.02 .01-.09.09-.12.14-.17v0c.02-.01.03-.03.04-.03 .01-.03.02-.04.04-.05v0c.03-.05.07-.1.1-.15 .04-.07.08-.14.13-.21 .01-.03.03-.06.05-.06 0 0 0 0 .01 0 .03.01.02.05.02.08v0c-.03.1-.03.21 0 .32 .01.08.02.16.03.25l-.01.03v0c.02.06.03.12.03.19 .02.08.03.16.06.24 .07.15.125.3.17.45l0-.01c.08.12.16.26.24.39 .02.03.05.06.07.09h0v.02c.02 0 .03.05.07 0 -.01-.03-.02-.03-.02-.03v0c-.02-.03-.03-.06-.03-.08 -.01-.02-.02-.04-.02-.05v0c-.01-.02-.01-.04-.02-.05 -.01-.01-.01-.02-.01-.03v0c-.01-.02-.01-.04-.01-.05l-.02-.08 -.02-.08c-.01-.01-.01-.02-.01-.03 -.01-.01-.01-.02-.01-.03 -.01-.03-.01-.06-.02-.09l-.03-.18c-.01-.03-.02-.06-.02-.09v0c-.03-.32-.02-.64.03-.95h.01c.02-.15.05-.31.08-.47 0 0 .01 0 .02 0 -.01.26.01.52.07.77 0 0 0 .01 0 .01 .03.09.07.19.1.29 0 .02.01.04.02.06v0c.01.03.03.06.05.09 0 .01.02.02.02.03 .02.01.03.04.05.06 .01.01.02.03.04.05 .05.04.1.09.16.15v-.001c-.01-.05-.02-.1-.02-.14 -.01-.05-.02-.09-.02-.14 0 0-.02-.01-.02-.02v0c-.01-.04-.01-.08-.01-.11l-.04-.33c0-.01 0-.02 0-.03 0-.01 0-.03 0-.03h-.001c-.02-.14-.03-.28-.02-.42l-.01-.02v0c-.03-.13-.03-.25-.01-.37 0-.04 0-.07 0-.11 0-.01-.01-.02-.01-.02 0-.16 0-.32.05-.48l0-.02c.01-.08.02-.16.03-.24 .01-.08.02-.16.03-.24 0-.04.01-.05.03-.05 .01 0 .02 0 .04.01l.05.03 .07.04c.02.01.04.03.07.05 0 0 0 0 0 0v0s.01 0 .01.01h0v-.01c.16.08.26.22.37.35v0c.05.03.08.08.11.15 .07.09.13.2.16.32 0 .01 0 .02.01.03 0 .01 0 0 0 .03 .02.02.03.05.04.08l.03.08 .01.04c0 .01.01.01.01.02v0c.01.01.02.02.04.02 .02-.09-.04-.18-.02-.26h0c0-.03-.01-.03-.01-.04 -.03-.16-.05-.31-.11-.46l-.01-.04c-.06-.15-.09-.29-.17-.42v0c-.02-.02-.04-.04-.04-.07 -.03-.03-.04-.06-.06-.09h0c-.02-.03-.03-.05-.04-.07v.01c0-.01-.01-.01-.01-.01v-.01 0c-.07-.1-.15-.2-.22-.28l-.01-.01c-.01-.01-.02-.01-.03-.04 -.06-.03-.12-.1-.17-.15 -.01-.01-.02-.01-.02-.02 -.01-.01 0-.01-.03-.02 -.12-.09-.21-.19-.32-.26 -.02-.03-.05-.01-.06-.05 .31-.02.61.01.92.03v-.02h0c.15.02.29.05.43.11 0 0 .01 0 .01 0v0c.09.02.18.06.27.1 .02.01.04.04.06.01 .01-.03-.01-.05-.03-.07 -.04-.05-.07-.1-.11-.16 -.01-.02-.02-.03-.02-.04 -.08-.07-.13-.15-.19-.22v-.001c-.03-.03-.05-.05-.06-.07v-.001c-.08-.05-.15-.11-.21-.17 -.02-.01-.03-.03-.04-.03 -.03 0-.07-.04-.1-.06 -.03-.03-.07-.04-.1-.07 -.02-.01-.03-.02-.04-.02 -.15-.06-.3-.11-.44-.16 -.01 0-.02-.01-.02-.01s-.02 0-.02-.01h-.001c-.03-.01-.06-.02-.08-.03v0c-.02-.01-.03-.03-.03-.04l-.01-.02c-.01-.02-.01-.05-.01-.07v0c0-.08 0-.15-.02-.22 -.01-.03-.01-.05-.02-.07v0c-.01-.03-.01-.05-.02-.06l-.02-.07v0c-.01-.04-.02-.07-.03-.09 0 0-.01-.01-.01-.01 -.03-.15-.08-.3-.13-.44l-.02-.06 0-.001c-.04-.06-.06-.11-.06-.17 0-.02 0-.04 0-.06l0-.03c0-.03.01-.06.02-.09l.03-.11c0-.01 0-.02 0-.02h-.01c.03-.17.09-.32.14-.47 0-.01 0-.01 0-.01l.01-.01c0-.01 0-.01 0-.01v-.001c.04-.06.05-.12.05-.19v-.001c-.01-.04-.02-.08-.03-.11 -.02-.05-.04-.09-.06-.13 -.01-.01-.01-.01-.02-.02s-.01-.01-.01-.01v0c-.1-.11-.17-.23-.21-.36l-.02-.04c-.01-.01-.01-.01-.01-.02l-.01-.01V9.77c-.01-.01-.01-.02-.01-.02l0 0 -.01-.01v0c0-.02 0-.03.01-.05 0-.01.01-.02.01-.03 0-.01.01-.02.02-.03l0-.01c.06-.1.125-.2.19-.29v0c.05-.07.07-.17.05-.26 -.04-.14-.04-.14.1-.19 .02-.01.31-.12.43-.16l.07-.03 .01-.01h-.001c.16-.07.33-.13.5-.19 0-.01.01-.01.01-.01 .14-.08.29-.12.44-.17 .02-.01.03-.02.06-.02 .02-.02.09-.04.12-.06 .12-.04.21-.1.32-.12v0c.04-.04.1-.07.16-.07Zm-5.44.6v0c.07 0 .15.01.23.03l.01 0c.25.08.52.14.77.26 .04.01.08.03.11.07 .16.11.3.24.43.4 .19.24.38.49.55.77 -.02-.01-.03-.01-.04-.02v-.01 0c-.07-.03-.13-.07-.19-.11v0c-.22-.14-.45-.26-.68-.36l-.001 0c-.11-.05-.22-.08-.34-.1l-.001 0c-.3-.06-.61-.07-.91-.05 -.09 0-.17 0-.26 0 -.07 0-.1-.03-.1-.1 0-.24.01-.48-.06-.7 -.02-.05.01-.07.05-.09v0c.11-.05.24-.07.37-.07Zm-2.75.77c.42-.02.81.1 1.16.32 .13.08.25.17.36.28l.01.01c.12.12.23.26.32.41 .08.13.05.27.03.41 -.08.4-.32.7-.6.98 -.27.26-.6.44-.91.64 -.44.29-.94.4-1.44.47 -.64.09-1.28.1-1.91.18 -.23.02-.47.04-.7.08v0c-.28.04-.52.19-.68.41 -.07.08-.1.18-.16.3v0c-.05-.13-.04-.28.02-.4v0c.1-.24.29-.43.53-.54 .41-.22.87-.27 1.32-.375 .36-.1.73-.15 1.08-.25v0c.49-.14.97-.32 1.42-.55 .24-.125.49-.26.65-.49v0c.11-.17.15-.37.12-.56 -.01-.04-.02-.05-.03-.06 -.02-.01-.03 0-.05.02 -.18.16-.37.31-.58.44 -.32.2-.673.33-1.04.42 -.58.14-1.17.266-1.77.31v-.001c-.43.02-.84.1-1.24.24 -.34.11-.69.23-.96.49 -.04.03-.08.05-.13.09l0-.04 -.03.01v-.01c.01-.01.01-.02.02-.02v0c.01-.08.04-.14.08-.2l.64-1.03v0c.01-.02.02-.04.04-.06 .33-.33.65-.68 1.02-.97 .61-.48 1.28-.86 2.05-1.02 .18-.05.37-.07.57-.07 .22-.01.44-.01.66-.02Zm-7.632.02c.01 0 .03 0 .04 0 .03.01.06 0 .09.01 .12.02.26.03.38.06 .01 0 .01 0 .03.01v0c.13 0 .26.02.4.05 .14.02.29.03.43.06 .03 0 .06-.01.09.01 0 0 .01-.01.01 0 .16.02.3.03.44.05h-.02v0c.09.01.16.02.23.03 .07.01.15.03.23.03h0s.01 0 .01 0l.02 0c.04 0 .06.02.07.07 .03.22.07.45.11.68 0 .01.01.03 0 .04l.02.11 .06.33c0 .01 0 .03 0 .03v.01c.02.14.05.27.07.41v.04h0c-.13.13-.23.29-.3.46 -.03.07-.07.15-.1.22l-.01 0c-.03.07-.07.15-.1.22 -.01 0-.01 0-.01.01 -.01 0-.01.02-.02.03v0 0c-.06.14-.12.28-.2.41 -.01.02-.03.03-.03.05 -.03.09-.05.18-.1.266v0c-.02.07-.04.15-.08.22l-.001-.001c-.04.13-.08.26-.13.39 -.01.01-.02.03-.02.05l-.01 0c-.01 0-.01.02-.01.02v0c-.01.01-.01.02-.01.03l-.01.01 -.04.74 .02 0 .09-.19c.03-.06.05-.13.09-.19 .01-.05.05-.09.05-.13 .07-.12.13-.24.21-.35 0-.02.02-.02.03-.05 .06-.1.13-.23.2-.34 .02-.05.05-.08.07-.13 .01-.05.04-.06.06-.08 .02-.03.03-.05.08-.07 0 .01 0 .03 0 .05l-.01.01s-.01.01-.01.02l-.01.01c-.01 0-.01.01-.01.01v0c-.01 0-.01.01-.01.02 0 0-.01.01-.01.01l-.01.01h0c-.03.14-.02.3-.03.45 0 0-.01.02-.01.02l0-.01c.02.14.04.28.06.43h-.01s0 .03 0 .04c.02.14.05.29.07.43l0 .01c0 .01 0 .01 0 .02 .02.11.11.19.16.29 .03.05.08.12.11.16h0v0c.12.1.22.21.35.31 .02 0 .03.02.05.02h-.01v.01c.04 0 .08.04.13.02v0c0-.01.01-.01.02-.02 0-.01.01-.01.02-.02 .01-.03-.01-.04-.03-.05 -.2-.125-.17-.33-.19-.53h0v-.01c.04.04.08.09.12.14h0c0 .01.01.01.02.02l.05.05c.03.03.07.07.1.1s.08.06.125.09c.02 0 .03.02.05.02H7.6c.14.07.26.13.4.2v0c.02 0 .05.01.08.03 .04.14.1.28.09.45 0 0 .01.01.01.03h0c0 .01 0 .02-.01.03 .01.14.01.28-.01.42v0c0 .01 0 .02-.01.03 -.01 0 0 0-.01.01h0c0 .14-.01.27-.04.41 -.01.13-.05.27-.06.4 0 0-.01.01-.01.01 -.01.02-.02.05.03.05v-.01c.13-.14.26-.27.38-.42v.01c0-.05.03-.08.05-.1 .05-.05.1-.13.15-.2 .05-.07.1-.14.15-.21l0-.02c0-.03.01-.04.02-.05 0-.01.01-.01.01-.01h.01 -.001c.01 0 .03 0 .05.02h0c.02.01.05.03.07.04 .14.07.3.13.41.26 .01.01.02.01.03.03 .05.02.09.08.13.13l.03.03s0 0 0 0c.19.16.2.24.06.46 -.01 0-.02.01-.02.01v0c-.01.01-.02.03-.03.05v0c-.01.01-.02.02-.02.03l-.01.01c-.04.05-.08.11-.09.18l0-.001c-.02.05-.02.11-.02.16 .02.09.05.19.07.28 .01.05.02.11.02.17 .02.14-.05.22-.17.28v-.01c-.03 0-.03.01-.04.02h0c-.01 0-.02.01-.02.01h0c-.02 0-.03.01-.04.02v0c-.04.02-.07.05-.08.08 0 0 0 0-.01.01 -.01 0 0 .01-.01.01h0v.01c-.03.07-.04.12-.05.15 -.01.01-.01.01-.01.02 -.01 0-.01.01-.01.01 -.01 0-.01.01-.01.01v0c-.01 0-.02.01-.03.01h-.01v0c-.02-.01-.04-.01-.05-.02 -.04-.02-.08-.03-.14-.05 -.01-.01-.01-.01-.02-.01v0c-.01-.01-.01-.01-.02-.01l-.03-.02h-.01v-.01h-.01c-.08-.03-.14-.04-.21-.07 -.04-.02-.08-.03-.12-.05 -.05-.02-.1-.04-.16-.04 -.14-.05-.29-.08-.42-.12 -.02 0-.02 0-.05 0v0c-.1-.02-.18-.05-.27-.06 -.09-.02-.13-.06-.12-.15 0-.04 0-.08 0-.12 0-.02-.01-.02-.01-.04 -.02-.03-.04-.06-.06-.09v0c-.01-.01-.02-.02-.02-.03 -.02-.02-.04-.03-.04-.04 -.03-.01-.02-.01-.03-.02 -.08-.07-.06-.17-.05-.26l0-.03 0-.06c0-.01 0-.02 0-.03 .03-.15.04-.29-.12-.38 -.02-.02-.03-.03-.06-.04v0 0c-.08-.06-.15-.12-.23-.17 -.02-.03-.02-.03-.04-.04v0c-.12-.07-.22-.14-.31-.23l-.08-.04h.01c-.02-.03-.04-.03-.05-.04 -.02-.02-.04-.03-.06-.04 -.12-.11-.29-.2-.42-.32 -.05-.02-.08-.05-.11-.08v-.01c-.13-.09-.26-.18-.38-.28h0c-.02 0-.02-.02-.04-.03 -.08-.04-.15-.1-.21-.15 -.02-.03-.04-.03-.06-.03 -.06-.05-.11-.07-.16-.12 -.02-.02-.04-.03-.06-.04v0c-.15-.09-.28-.18-.4-.29l-.02-.02 -.03-.03h0c-.02-.03-.04-.06-.04-.09v.01c-.09-.1-.15-.21-.22-.3l-.01-.02v0c-.01-.01-.01-.01-.01-.02v0c-.01-.01-.01-.02-.01-.03v0c0-.02.01-.04.02-.06 0-.01 0-.02 0-.02 .02-.16.1-.3.16-.44v-.04s0-.03-.01-.04l-.01-.02 -.01-.01v0c-.01-.01-.02-.01-.02-.01h-.01v0c-.03 0-.05 0-.06.02v0c-.02.01-.04.02-.06.04l-.02.01H4.04c-.01 0-.01.01-.02.01l-.01.01s-.01 0-.01 0 -.01 0-.01 0v0c-.05.05-.12.1-.19.15 -.02.01-.04.02-.04.03v-.01h-.01c-.02.02-.05.02-.08.01l-.31-.14c-.03-.02-.04-.04-.04-.07h0c-.01-.02-.01-.03-.01-.04l-.01-.03v0c-.04-.17.02-.3.05-.44 0-.02 0-.03 0-.04 .02-.14.03-.29.07-.43v-.07c-.02-.16-.03-.31-.04-.46l0-.08c-.02-.29-.04-.58-.05-.86 -.03-.6-.07-1.2-.06-1.79v-.001c0-.11-.03-.22-.08-.32l-.001-.001c-.04-.06-.07-.12-.1-.17v0c-.06-.07-.08-.16-.05-.24 .03-.14.06-.29.09-.43 0-.05.02-.09.06-.09Zm-.17.38l0 .01c0 .03-.01.06-.02.11H3.9c-.02-.03-.02-.06 0-.09h0c0-.02 0-.03.01-.05Zm10.715 0c.13-.01.25 0 .38.02 .22.01.42.05.55.16 .09.04.18.09.28.14 .22.13.44.26.66.4v0c.04.02.08.06.11.1l.22.31c.01.01.03.03.01.05v0c-.01 0-.02.01-.02.01 -.02 0-.04-.01-.05-.02 -.1-.06-.2-.11-.3-.17v0c-.38-.21-.78-.37-1.19-.46 -.11-.03-.21-.06-.33-.08l-.16-.04c-.01 0 0 .01.01.02 0 0 .01.01.01.01v0c.01.01.02.02.04.03l.02.01c.22.11.61.18.89.31l.05.02c.15.08.29.18.44.29l.26.2c.4.29.65.68.77 1.16 0 .01 0 .02.01.04l.01.01c.02.03.02.06.01.09 0 0 0 .01 0 .02 -.01.07-.06.04-.1.04v0c-.21-.02-.42-.05-.61-.11h-.01c-.06-.02-.12-.04-.17-.06 -.22-.08-.41-.17-.62-.24 -.26-.09-.45-.27-.67-.42l0 0c-.36-.25-.7-.52-1.01-.82h0c-.04-.03-.07-.07-.08-.11l0 0c-.03-.06-.05-.11-.07-.16l-.04-.1v0c-.01-.03-.02-.05-.03-.06l-.01-.01c-.01-.01-.01-.01-.01-.01v-.01l-.01-.01v0c-.02-.05-.02-.09 0-.13 0-.01 0-.01 0-.02l0-.02 0-.02c0-.01 0-.02 0-.02l0-.02 0-.02 0-.02 0-.02 0-.02 0-.02 0-.02 0-.02c0-.01 0-.01 0-.02s0-.02 0-.02v-.266c-.01-.09.02-.12.1-.12s.16-.01.24-.01l.07 0c.04-.01.08-.01.12-.01Zm.28.532v0s.01 0 .02 0h0c-.02 0-.03 0-.04.02 -.01-.02-.01-.03 0-.03Zm.88.34v0s0 0 .01 0h0Zm-1.91.17l0 0s.01.01.02.02c.07.15.18.28.3.39 .12.12.25.23.38.34 .26.24.54.48.81.71 .17.15.39.22.62.28 .51.13 1.04.18 1.57.25 .13.02.26.06.37.15h-.01c.01 0 .01.01.02.02 -.3-.05-.59-.04-.89-.05 -.33-.01-.65.03-.96.06v0c-.12.01-.23 0-.34-.03 -.31-.07-.6-.2-.89-.32 -.33-.14-.61-.36-.87-.59l-.06-.06v0c-.09-.09-.16-.18-.21-.29l-.01-.01c-.09-.22-.09-.45-.02-.71 .01-.07.04-.14.06-.21 0-.03.02-.04.03-.04Zm-.25 1.18c.06.23.23.39.375.57l.02.03 .02.03h-.001c.03.03.06.06.1.09 .01.01.03.02.04.03l.02.01 0 0c.17.13.35.26.53.39l.32.22c.14.1.3.19.46.266 .04.02.08.03.12.05 .12.05.25.09.37.14l.02 0c.08.02.16.02.25.03 .03 0 .06 0 .09.01v-.001c.02 0 .04.01.06.02v0c.02.01.04.03.06.05 .07.06.14.16.14.22 0 .01 0 .01-.01.02 -.01 0-.01 0-.01.01 -.01.01-.03.03-.04.04 -.03.05-.06.1-.09.15l-.02.02 0 0c-.04.08-.04.17 0 .26 .11-.12.21-.24.29-.38v0c.03-.07.06-.14.08-.21 .01-.03 0-.06.01-.09s-.03-.07-.01-.09c0-.01 0-.01 0-.01v0c0-.01 0-.01.01-.01 .01-.01.02-.01.02-.01 .01-.01.03-.01.05-.01 .04 0 .09 0 .14.02 .02.01.01.04.01.07v0c-.01.08-.04.16-.08.24v0c-.01.01-.02.03-.03.05v0c-.05.13-.12.25-.2.375 -.12.15-.26.3-.48.31h-.07c-.04 0-.08.01-.12.01v0c-.04-.01-.08.02-.09.05 -.02.03-.04.07-.06.11l-.01.01v-.001c-.1.21-.23.41-.41.57 -.08.07-.17.13-.25.2h-.001c-.15.09-.31.17-.47.22l-.04.01 -.04.01 -.02 0c-.01 0-.03 0-.03.01 -.04.01-.07.03-.05.09 .02.06.06.07.11.08 .01 0 .02 0 .04-.01v0c.05-.01.1-.02.15-.04 .04-.02.09-.04.14-.06 .03-.02.06-.03.1-.05 -.03.12-.05.23-.09.34l-.03.05 -.001 0c-.03.06-.06.12-.09.19 -.02.04-.04.08-.07.125 -.12.23-.25.45-.41.65h0c-.11.13-.23.24-.36.34v0c-.04.02-.07.04-.11.07h0c-.13.07-.25.14-.38.2l-.07.03 -.06.02 -.05.01c-.04.01-.09.03-.13.04v0c-.06.01-.12.03-.17.05h-.001c-.19.05-.38.1-.57.13 -.01 0-.02 0-.02 0 -.06.01-.11.01-.17.02 -.06 0-.12.01-.18.02v0c-.21.02-.41.01-.61-.02l-.03-.01v0c-.06-.02-.1-.04-.15-.06 -.07-.04-.12-.07-.19-.1h-.001c-.05-.03-.09-.05-.13-.08h0c-.06-.04-.11-.07-.16-.11v0c-.11-.07-.19-.17-.24-.28v0c-.03-.07-.06-.14-.1-.2 -.01-.02-.03-.04-.03-.06h0c-.09-.13-.18-.26-.28-.37h0c-.05-.05-.09-.1-.13-.15 -.03-.03-.04-.05-.07-.07l0-.001c-.09-.1-.18-.19-.26-.28l-.07-.07v0c-.12-.12-.24-.22-.37-.31v0c-.1-.08-.2-.14-.31-.2l-.06-.04H9c-.29-.18-.51-.45-.63-.77 -.05-.1-.11-.13-.22-.13l-.001-.001c-.09 0-.18-.02-.26-.05l-.01-.01 -.001 0c-.05-.03-.1-.05-.14-.09l-.03-.02c-.03-.03-.04-.06-.06-.09v0c-.15-.21-.28-.43-.39-.66 0 0 0 0 0 0l-.01-.02 0 0 -.001-.001c-.03-.07-.05-.14-.08-.2l-.04-.09v-.001c-.02-.05-.02-.11-.02-.16l0-.04c0-.01 0-.01 0-.02v0c0-.02 0-.03.01-.03v-.001c.03-.06.07-.11.12-.14v0c.02-.02.04-.04.06-.05 .04-.04.09-.07.14-.1 .07-.05.14-.09.21-.13 .27-.14.56-.24.85-.32 .01-.01.03-.01.05-.02 .03-.01.07-.01.1-.02s.07-.01.1-.01l.1-.01c.01 0 .03 0 .05-.01h0c.3-.02.6-.04.9-.07 .18-.02.36-.04.54-.06v0c.39-.05.77-.16 1.12-.33 .03-.02.07-.04.11-.06l.06-.04c.14-.08.28-.16.42-.24 .01-.02.03-.03.05-.04l.01-.01v.01 0c-.01.01-.01.02-.02.03l-.03.01c-.14.17-.34.3-.5.45v0c-.02.01-.04.02-.05.04 -.06.04-.11.08-.17.13 .2 0 .41-.03.59-.08v0c.34-.1.65-.32.86-.6 .1-.14.19-.3.27-.49Zm-3.27.01l0 0c-.11.05-.23.08-.35.1 -.56.13-1.13.22-1.7.32v0c-.41.07-.78.24-1.11.48 -.02.01-.04.03-.07.04 -.03.01-.04.01-.05-.01 -.01-.01-.01-.02-.01-.02 -.01-.15.03-.22.16-.28 .18-.09.36-.17.54-.26 .23-.11.48-.15.74-.17 .39-.05.79-.1 1.19-.14l.52-.09Zm2.38 1.24h-.03c-.04.01-.04.05-.04.08 0 .1 0 .2.02.3 .01.11.04.21.11.3v0c.12.17.3.29.51.33 .15.03.15.03.17.2 0 .06.01.13.08.17 .11.06.22.13.36.14 .08 0 .17.01.24.06v0c.09.06.2.09.32.09 .08 0 .17.01.25.02 .06.01.11-.01.16-.05 .23-.2.47-.4.69-.62 -.03-.03-.07-.04-.12-.02l-.001-.001c-.15.06-.28.14-.42.22v0c-.04.02-.08.03-.12.04l-.001-.001c-.24.04-.48.07-.73.07v-.001c-.14-.01-.27-.06-.37-.13 -.07-.05-.14-.11-.15-.21 .03-.02.07 0 .1 0 .12.01.25.06.38.05 .31-.02.6-.12.89-.22l.28-.11c.04-.02.05-.03.01-.07 -.05-.05-.1-.04-.15-.04l0 0c-.63.08-1.26.07-1.87-.05 -.18-.04-.38-.05-.45-.27 -.02-.06-.04-.12-.05-.19v0c-.02-.07-.05-.13-.1-.17v0c-.02-.03-.04-.04-.07-.04Zm-.58.06c-.05 0-.08.05-.11.09 -.06.1-.14.19-.21.29 -.11.14-.26.17-.42.15l-.001 0c-.57-.09-1.15-.15-1.72-.18 -.03-.01-.06-.01-.09.01 -.19.13-.37.26-.49.46 0 0 .01 0 .02 0 .01-.01.03-.01.05-.01 .29-.08.6-.1.92-.08 .39.03.79.11 1.18.16 .05 0 .1.01.15.03 .12.06.18.17.22.29 .07.18.09.37.1.56 .01.15-.03.27-.15.38v0c-.1.06-.17.16-.2.27 .15 0 .28.02.38.15 .06.08.14.14.22.21v0c.15.14.39.13.53-.02 .01-.03.03-.05.05-.07 .05-.1.11-.19.17-.29 .08-.13.17-.27.32-.32 .09-.03.05-.08.02-.12 -.07-.08-.18-.09-.28-.02 -.16.09-.266.23-.39.37 -.04.04-.07.08-.12.11 -.06.04-.11.04-.16-.01 -.06-.06-.12-.12-.18-.17 -.06-.05-.07-.09-.04-.15h-.001c.06-.13.09-.28.08-.42 -.03-.32-.08-.62-.3-.87 -.03-.03-.03-.04.01-.07v0c.23-.16.38-.42.4-.71 0-.08-.01-.14-.07-.16h0c-.01-.01-.02-.01-.03-.01Zm4.46.03c.2 0 .38.08.56.18 -.01 0-.01 0-.02 0l.03.01c-.27.04-.54.06-.81.03 -.09-.01-.17-.03-.26-.03 -.17 0-.31-.09-.46-.17h.01c-.02-.01-.03-.02-.04-.02 .02 0 .05 0 .07 0 .02 0 .05.01.08.01 .23.05.46-.02.7-.05v-.001c.02-.01.05-.01.08-.01Zm-8.689.71v0c-.01 0-.02 0-.02 0 -.05.01-.1.04-.12.11 -.05.22.05.43.27.55 .1.05.17.12.22.23 .01.03.01.1.07.09 .05-.02.01-.08.02-.11 0-.14-.02-.25-.13-.32 -.08-.05-.11-.12-.14-.21 -.04-.11-.05-.23-.14-.31 -.02-.03-.04-.07-.07-.07Zm1.843.35c-.11.02-.24.05-.36.1 -.09.03-.09.08-.02.13 .04.03.08.05.14.03v0c.16-.07.36-.03.49.09v-.001c.14.12.34.15.52.08 .1-.04.19-.1.29-.15v-.001c.03-.03.07-.04.11-.04 .14-.02.28-.04.43-.06 .03-.01.09.01.1-.04 .01-.05-.05-.08-.08-.11 -.02-.02-.05-.02-.07-.03v0c-.15-.05-.3-.05-.44-.02v0c-.3.06-.6.06-.89 0 -.08-.02-.17-.02-.26-.03Zm6.9.88s.01 0 .01 0h0s0 0 .01.01l0 0c.04.03-.01.11-.02.16 -.03.16-.06.33-.09.5 -.01.04-.02.09-.05.16l-.01-.05 -.02.02v0c-.05-.24-.07-.47-.08-.71 -.01-.06.03-.07.06-.08 .04-.02.1-.07.14-.06Zm-3.22.9l-.001-.001c-.01 0-.02 0-.03.01 -.19.1-.41.11-.62.13 -.09.01-.2-.02-.27.05 -.16.15-.3.09-.44-.02 -.01-.01-.02-.02-.03-.02 -.21-.11-.42-.15-.63-.01v0c-.08.05-.18.08-.27.06 -.08-.02-.14-.02-.19.03 -.03.02-.07.04-.1.07 -.1.06-.1.07-.01.14 .02.01.04.02.06.03 .2.06.38.01.56-.08 .18-.1.35-.1.51.03 .15.11.31.11.48.04h-.001c.2-.1.42-.17.65-.22 .03-.01.06-.02.09.01 .09.08.18.02.27-.01 .03-.02.04-.05.03-.08 -.01-.08-.07-.12-.1-.18 -.02-.03-.04-.04-.06-.03Zm-4.72.07s.02 0 .03.01c.03.03.07.07.11.11l.01.01c.01.01.02.03.01.06l-.23.45 -.03-.01c0-.01 0-.01 0-.02 .04-.2.02-.4.05-.6 0-.02 0-.03.01-.03Zm3.9.58c-.24 0-.48.04-.71.12 -.19.06-.4.1-.49.32 -.06.12-.05.25-.09.38 .01.1.01.19.07.28 .01.02.02.06.06.06 .04-.01.05-.04.07-.07 .04-.09.05-.2.08-.29 .04-.16.11-.28.28-.35 .17-.08.34-.14.516-.21v0c.03-.02.06-.02.1-.02 .21.03.43.02.62.14h0c.01.01.04.01.06.01 .07-.02.08-.04.03-.1v0c-.15-.21-.39-.32-.64-.3Zm-2.218.74l.01.01c.09.11.18.21.25.33 .15.29.37.5.66.65 .13.07.25.17.41.19l0 0h.01c.01 0 .04-.01.03.02 -.01.01-.02.01-.04.01h-.01c-.01 0-.01 0-.02-.01 -.17 0-.33.03-.5.06 -.09.01-.17.03-.26.05h-.001c-.09.01-.17.03-.25.05h-.01c-.04 0-.05.02-.05.05 0 .04.02.06.06.07v0c.09.01.18.02.27.01 .11-.01.23-.02.35-.04v-.001c.25-.04.52-.05.77-.01 -.43.07-.79.31-1.18.47 -.21.08-.36.24-.55.34 -.02.01-.03.04-.04.06 -.04.04-.04.11-.09.11h-.01c-.01 0-.01 0-.02 0h-.001c-.1-.01-.19-.04-.27-.09 -.03-.02-.03-.06-.03-.09v-.46c0-.04.01-.07-.02-.09 -.11-.07-.08-.19-.11-.28 -.01-.04.01-.06.03-.08l.27-.31c.06-.07.08-.15.04-.23 -.09-.17-.08-.32-.01-.49 .05-.13.09-.27.14-.42Zm4.58.17s.01 0 .01 0l0-.01c.03.02.04.05.05.07 .1.24.2.49.3.74 .02.05.03.1-.01.15h-.001c-.12.13-.14.32-.08.49 .06.2.01.34-.19.44v0c-.04.02-.08.03-.12.03h0c-.04 0-.07-.01-.09-.03 -.375-.26-.83-.35-1.25-.5 -.06-.02-.12-.05-.18-.06 -.08-.02-.07-.07-.06-.12 0-.04.02-.04.04-.04 .02-.01.04.01.06.01 .48.12.96.21 1.42.39 .01 0 .03.01.04.01 .03-.01.04-.04.03-.09 -.01-.11-.02-.22-.15-.27v0c-.31-.14-.64-.22-.98-.24 -.05-.01-.1-.01-.15-.01 .23-.15.5-.22.71-.41v0c.02-.03.05-.05.07-.07l.39-.49Zm-1.89 1.13h.02c.03-.01.05 0 .05.05 0 .04.01.08-.06.09v0c-.1.01-.19.02-.28.02 -.1 0-.19-.01-.28-.03 -.05-.02-.07-.05-.07-.09 0-.03.02-.03.04-.03v0c.01-.01.02-.01.03 0h.18v0c.11 0 .22 0 .34-.03Zm.03.39s.01 0 .02 0l.84.35c-.14.11-.26.2-.38.3 -.23.17-.44.35-.65.55 -.05.04-.09.05-.15.01h0c-.36-.21-.72-.39-1.1-.55 -.17-.07-.34-.1-.52-.16 .02-.04.05-.04.08-.05 .36-.14.74-.26 1.1-.42 .09-.05.18-.01.27 0 .13.02.27.02.39-.05h0c.01-.02.03-.02.05-.02Zm-2.17.69h0c.02 0 .05 0 .08.01 .19.07.38.18.56.27l-.001 0c.01-.01.02 0 .02.01 0 0 0 0 0 .01v0s-.01 0-.01 0c-.01 0-.01 0-.01 0l-.01-.01 0 0c-.01-.01-.01-.01-.02-.02l-.87-.22c.07-.06.13-.1.2-.1Zm8.17.53c-.15-.01-.26.06-.38.15 -.03.02-.05.04-.1.01 -.11-.08-.21-.06-.3.04v0c-.06.05-.09.11-.11.18 -.125.5-.26 1-.38 1.51 -.05.17.04.25.22.23 .15-.03.23-.12.26-.32 .02-.2.05-.4.11-.6 .15.18.29.36.43.53 .13.17.29.32.49.41 .14.06.26.02.38-.08h-.001c.05-.06.08-.14.05-.21v0c-.02-.08-.09-.13-.16-.125v0c-.06-.01-.12-.03-.16-.07h-.001c-.14-.12-.26-.26-.37-.4 -.09-.12-.1-.12.02-.21 .25-.18.34-.42.32-.71 -.02-.22-.14-.35-.34-.38v0c-.03-.01-.05-.01-.07-.01Zm-10.74.03c-.04 0-.08.02-.1.07 -.02.05-.06.04-.1.03v0c-.25-.05-.5.04-.67.22 -.38.37-.58.81-.56 1.35 .01.35.22.53.56.45 .68-.16 1.22-.84 1.25-1.59 0-.2-.17-.47-.34-.54v0c-.03-.02-.06-.02-.08-.02Zm-1.93.05v0c-.23 0-.45.08-.62.23 -.35.3-.55.69-.65 1.13v0c-.04.16-.02.33.07.48 .07.11.15.16.29.13v0c.3-.06.59-.17.87-.31v0c.08-.05.15-.11.22-.17h0c.05-.06.08-.13.08-.21 0-.08-.04-.1-.11-.11 -.07-.01-.13.02-.2.04 -.21.07-.41.16-.63.22 -.11.02-.14 0-.17-.11v0c-.01-.05-.01-.09 0-.13 .04-.17.09-.33.18-.49v0c.05-.12.14-.21.24-.29 .14-.09.28-.14.44-.04 .05.03.1.01.15-.02H6.63c.07-.05.12-.12.15-.2 .01-.05 0-.09-.05-.12v0c-.11-.07-.23-.11-.35-.12Zm9.2.07v-.001c-.2-.01-.39.06-.52.2 -.16.16-.19.32-.09.52 .07.15.17.28.27.41 .07.09.14.18.21.28 .04.07.02.125-.06.15v0c-.05.01-.1.01-.14-.01l0-.001c-.14-.06-.27-.13-.38-.23v0c-.04-.04-.07-.08-.09-.125 -.02-.08-.06-.11-.125-.12 -.09-.01-.16-.01-.21.08 -.08.13-.06.26.08.39 .27.24.6.35.93.38 .3 0 .48-.27.38-.53 -.05-.12-.12-.22-.19-.32 -.12-.16-.25-.32-.36-.48 -.09-.125-.05-.22.09-.27 .13-.05.25-.01.36.08 .13.1.24.04.26-.12 .01-.09-.03-.15-.09-.2v0c-.12-.1-.26-.16-.41-.16Zm1.9.06c-.14-.01-.28 0-.41.01 -.17.02-.32.06-.38.24 -.01.01-.02.02-.03.02 -.19.04-.26.2-.31.35 -.11.34-.2.69-.3 1.04 -.03.08.01.14.08.18 .05.03.11.03.17.01 .32-.08.64-.17.98-.15v0c.04 0 .08-.01.12-.03v-.001c.08-.05.12-.15.11-.24 -.02-.09-.09-.12-.17-.13v0c-.06-.01-.12-.02-.18-.02v0c-.21 0-.42.01-.62.05 .03-.23.04-.25.26-.25 .16 0 .32-.01.47-.08 .1-.05.16-.12.17-.23 0-.08-.03-.13-.11-.13v0c-.07-.01-.13-.01-.19 0l-.46.04c.02-.06.03-.1.06-.14 .04-.07-.01-.18.08-.21 .07-.03.16-.01.24-.01 .21-.01.42-.01.63-.08v0c.07-.03.14-.07.19-.13 .07-.11.04-.18-.09-.19 -.14-.01-.28-.02-.41-.02Zm-6.67 0c-.08-.01-.13.04-.19.09v0c-.15.13-.28.27-.4.43l-.37.45c-.02.02-.04.07-.08.05 -.03-.02-.02-.06-.02-.09 .01-.11.02-.22.03-.33 .01-.15.03-.29.01-.44 -.04-.18-.16-.22-.3-.12H9.58c-.04.02-.07.05-.1.09v0c-.12.12-.21.26-.3.41 -.23.34-.44.71-.71 1.02 -.05.06-.11.11-.15.18 -.05.07-.07.15-.03.23 .04.06.11.09.18.08 .08-.01.125-.07.16-.13l.62-.86c.01-.02.01-.05.05-.04v0c-.01.03-.01.07-.02.11 -.01.13-.04.27-.01.41 .03.16.16.22.3.15v0c.07-.05.14-.1.2-.16 .11-.12.22-.24.33-.37 .11-.15.22-.29.34-.45 .03.12.02.22.01.33 -.02.18-.05.375-.02.56 .02.11.09.18.18.19v0c.09 0 .19-.02.27-.07 .125-.08.13-.24.02-.35v0c-.04-.03-.06-.07-.07-.12 -.03-.13-.01-.26.01-.39 .03-.25.11-.49.1-.74 -.01-.1-.02-.19-.12-.24v0c-.03-.02-.05-.02-.08-.02Zm8.04.19c.11-.01.17.06.14.17v0c-.02.04-.04.09-.07.13 -.13.16-.3.27-.5.35v0c.01-.15.05-.29.11-.43s.16-.23.31-.24Zm-6.651.02v0c.05-.01.1 0 .15.03 .07.04.09.14.04.23h0c-.05.07-.12.13-.19.18v-.001c-.15.11-.31.19-.49.24 .07-.22.12-.42.24-.59v0c.05-.07.13-.11.22-.11Zm1.6.09v0c.07-.01.14 0 .21.03 .11.04.15.1.14.27v0c-.04.31-.19.6-.43.81h-.001c-.1.07-.21.12-.33.13 -.15.01-.27-.08-.25-.23 .02-.32.11-.63.33-.88v0c.07-.1.18-.15.3-.16Zm-5.882 0H8.01c.07-.01.14 0 .21.03 .11.04.14.09.14.26v-.001c-.04.31-.19.6-.43.81l0-.001c-.1.07-.21.12-.33.14 -.15.01-.266-.09-.26-.24 .03-.32.11-.62.32-.86H7.66c.07-.1.18-.16.31-.17Z"/></svg>