<svg viewBox="0 0 24 24" xmlns="http://www.w3.org/2000/svg"><path d="M15.53 11.13c-.12.13-.14.3-.14.38l.29-.01c0-.15.09-.24.14-.28 .03-.03.14-.08.23-.08 .14 0 .33 0 .33 0h1.22l0 0c.07 0 .13-.06.13-.14 0-.08-.06-.14-.14-.14h-1.17c-.18 0-.28-.01-.44-.01 -.24 0-.4.09-.51.22m4.72-.23h-.9s-1.08-.06-1.08 1.09c0 1.15 1.07 1.09 1.07 1.09h.89s1.07.05 1.07-1.1c0-1.05-.89-1.1-1.05-1.1 -.02 0-.03 0-.03 0m-1.69 1.09s-.07-.84.8-.84h.85c.87 0 .8.83.8.83s.06.83-.81.83h-.85c-.88 0-.81-.84-.81-.84m-8.5-1.1h-.9s-1.08-.06-1.08 1.09c0 1.15 1.07 1.09 1.07 1.09h.89s1.07.05 1.07-1.1c0-1.05-.89-1.1-1.05-1.1 -.02 0-.03 0-.03 0m-1.69 1.09s-.07-.84.8-.84h.85c.87 0 .8.83.8.83s.06.83-.81.83h-.86c-.88 0-.81-.84-.81-.84m-3.32 0c0 1.15 1.07 1.09 1.07 1.09h1.44s0 0 0 0c.07 0 .13-.06.13-.14 0-.08-.06-.14-.14-.14v-.01H5.95c-.88 0-.81-.84-.81-.84s-.07-.84.8-.84h1.42s0 0 0 0c.07 0 .13-.06.13-.14 0-.08-.06-.14-.14-.14H5.9s-.01-.01-.03-.01c-.16 0-1.05.04-1.05 1.09m-2.61-1.1c-.18 0-.32.14-.32.31v1.55c0 .17.14.31.31.31h1.23c.17 0 .31-.15.31-.32v-1.56c0-.18-.15-.32-.32-.32Zm-2.17 0c-.18 0-.32.14-.32.31l0 0s-.01 0-.01 0c0 .07.02.14.07.19l0 0 1.23 1.55 0 0c.05.06.14.11.24.11 0 0 0-.01 0-.01l0 0c.17 0 .31-.15.31-.32v-1.56c0-.18-.15-.32-.32-.32Zm21.49.13h-.01v2.05h2.05v-.01c.07 0 .13-.06.13-.14 0-.08-.06-.14-.14-.14h-1.8v-1.8c0-.08-.06-.14-.14-.14 -.08 0-.14.05-.14.13m-7.19-.09l-.01-.01 -1.4 1.39 -1.41-1.41 -.01 0c-.03-.02-.06-.04-.09-.04 -.08 0-.14.05-.14.13h-.01v2.05h.26v-1.75l1.27 1.27s.01 0 .01.01c0 0 0 0 .01 0 0 0 0 0 .01 0 0 0 0 0 0 0 .03.01.07.01.09-.01 0-.01 0-.01 0-.01 0-.01.01-.01.01-.01 0-.01 0-.01 0-.01 .01-.01.01-.02.01-.02v0l1.26-1.27v1.74h.26v-2.06h-.01c0-.08-.06-.14-.14-.14 -.04 0-.08.01-.1.04m.76.56c0 .08.02.25.13.38s.27.22.5.22c.16 0 .25-.01.43-.01h.01v0h.73c.09 0 .19.05.23.07 .05.04.14.12.14.27h.29c0-.09-.03-.26-.14-.39 -.12-.14-.28-.23-.51-.23 -.17 0-.26 0-.44 0h-.02v-.01h-.74c-.1 0-.2-.06-.24-.08 -.06-.05-.15-.13-.15-.28Zm2.21.96c0 .14-.1.23-.15.27 -.04.02-.15.07-.24.07 -.15 0-.34-.01-.34 0h-1.37v0c-.08 0-.14.05-.14.13 0 .07.05.13.13.13 0 0 0-.01.01-.01h1.29c.17 0 .27 0 .43 0 .23 0 .39-.1.5-.23 .11-.14.13-.31.13-.39Z"/></svg>