<svg viewBox="0 0 24 24" xmlns="http://www.w3.org/2000/svg"><path d="M23.96 11.24c-.05-.49-.13-.97-.24-1.44 -.06-.25-.14-.48-.2-.72l-.12-.34 -.07-.17 -.08-.19c-.18-.45-.39-.88-.64-1.29l-.001-.001c-.44-.75-.97-1.43-1.58-2.04l-.1-.1 -.05-.06 -.08-.07c-.07-.07-.13-.12-.19-.18 -.07-.06-.13-.12-.18-.17 -.08-.07-.14-.12-.21-.17l-.17-.14 -.09-.07 -.03-.03 -.06-.05 -.02-.02 -.05-.04c-.11-.08-.2-.14-.29-.2 -.17-.12-.29-.21-.38-.27 .1-.39.18-.78.24-1.18 .1-.6.52-1.84-.34-2.19 -.81-.34-1.87 1.18-1.87 1.18 -2.12 2.43-3.4 5.47-3.69 8.67 .53.11 1.04.34 1.47.67h.01c1.05-1.04 1.95-2.21 2.66-3.49 .68.42 1.28.97 1.76 1.61l.07.09 .07.11 .14.22c.08.14.17.27.24.42 .31.58.54 1.21.67 1.86 .06.3.1.6.12.92v0c.02.27.02.56 0 .84 -.02.23-.05.47-.09.7h-.001c-.03.18-.07.36-.12.54 -.09.29-.14.46-.14.46s.07-.17.19-.45c.05-.15.12-.33.18-.54 .07-.24.13-.48.17-.71 .05-.29.09-.577.11-.88v0c.02-.33.02-.66 0-.99 -.03-.36-.08-.71-.15-1.06v0c-.09-.37-.19-.72-.31-1.07 -.07-.18-.15-.36-.23-.53l-.12-.24 -.07-.13 -.04-.14c-.18-.33-.38-.63-.61-.93 -.39-.52-.85-.98-1.37-1.38 .15-.35.3-.7.42-1.07l.06.03 .3.16 .04.02 .01.01c.04.03-.07-.05-.06-.04l.02.01 .08.05 .17.11 .09.06 .05.03 .02.02h.01c.01.01-.06-.05-.04-.03l.01.01c.06.05.12.09.19.14l.2.15 .03.02c-.05-.04-.02-.02-.03-.03h.01l.01.01 .05.04 .1.08V5.63c.92.75 1.68 1.68 2.24 2.74l.07.14 .07.16 .15.31c.08.2.17.4.23.61 .29.84.47 1.73.5 2.62 .01.21.01.42.01.63 0 .21-.03.41-.04.6 -.04.37-.1.73-.18 1.11 -.08.31-.16.61-.26.92 -.09.27-.19.5-.26.69 -.09.19-.16.33-.2.43 -.06.1-.08.15-.08.15s.03-.06.09-.15c.05-.1.14-.24.24-.42 .09-.19.21-.41.32-.67 .13-.3.25-.6.34-.92 .12-.37.21-.74.29-1.13 .04-.21.08-.42.1-.63h-.001c.03-.22.05-.44.06-.66 .03-.46.03-.93-.02-1.39Zm-12.8.69v0c-1.45-.43-2.94-.64-4.45-.625 .04-.81.24-1.59.58-2.32l.05-.1 .06-.12 .12-.23c.08-.14.15-.28.25-.41 .36-.55.8-1.04 1.31-1.45 .23-.2.48-.38.74-.54 .23-.15.48-.28.73-.4l-.001-.001c.21-.1.43-.19.65-.27 .2-.08.38-.12.52-.16 .29-.07.47-.11.47-.11s-.18.01-.49.04c-.16.01-.35.03-.56.08l-.001 0c-.24.04-.48.1-.71.17 -.28.08-.55.18-.82.3 -.31.12-.59.28-.86.45 -.31.18-.59.38-.86.61 -.29.23-.55.48-.79.76 -.13.12-.25.28-.37.43l-.16.2 -.08.1 -.09.11c-.2.29-.38.61-.516.94l-.001-.001c-.28.58-.47 1.2-.57 1.84v.02c-.37.02-.73.07-1.1.13v-.19 -.4c.01-.05-.01.06-.01.05v-.03c0-.03.01-.06.01-.1 .01-.07.01-.13.02-.2 0-.04.01-.07.01-.11v-.09c0-.01-.01.06-.01.02v-.01c.01-.07.02-.15.03-.23 .01-.08.02-.16.04-.24v-.03c-.02.04 0 .01-.02.01v-.03l.01-.06 .02-.13c.25-1.141.7-2.24 1.36-3.2l.09-.13 .1-.14 .21-.28c.14-.16.27-.34.43-.5 .59-.65 1.295-1.22 2.064-1.66V3.69c.18-.11.36-.21.55-.3 .18-.1.37-.18.54-.258 .34-.15.69-.27 1.05-.38 .3-.09.61-.16.93-.22 .28-.06.52-.08.72-.11 .2-.02.36-.03.47-.04h.16l-.18-.01c-.12 0-.28-.01-.48-.01 -.21.01-.46 0-.75.02 -.33.02-.65.06-.97.129 -.39.06-.76.15-1.13.27v0c-.21.06-.41.13-.6.2 -.21.06-.41.15-.61.258 -.43.19-.83.41-1.23.66 -.41.25-.79.55-1.16.87 -.19.14-.37.33-.54.5l-.24.258 -.13.12 -.13.14c-.31.35-.59.74-.83 1.141 -.45.71-.8 1.48-1.05 2.29l-.05.11 -.03.05 -.03.08 -.07.23c-.03.07-.05.14-.07.22 -.03.08-.04.16-.06.24 -.01.06-.04.13-.05.19 -.02.02-.02.05-.03.09v.02l-.01.05v.05c-.02.11-.03.22-.05.33 -.04.3-.06.5-.07.59 -.36.08-.71.19-1.06.31 0 0-1.86.42-1.76 1.31 .1.84 1.92 1.01 1.92 1.01 3.14.63 6.41.28 9.34-1 -.16-.516-.2-1.06-.11-1.58Zm4.41 1.93c-.37.4-.81.72-1.32.92v.01c.38 1.48.98 2.89 1.77 4.19 -.7.36-1.45.61-2.23.71l-.12.01 -.14.01 -.27.02c-.17 0-.33.01-.49 0 -.67-.02-1.33-.13-1.96-.34 -.3-.1-.59-.22-.87-.35 -.26-.13-.5-.26-.73-.41 -.21-.14-.4-.27-.577-.42 -.18-.14-.31-.27-.43-.37 -.23-.22-.35-.35-.35-.35s.1.14.29.38c.1.12.22.26.37.41 .17.18.34.34.53.51 .22.19.45.36.69.53 .27.18.55.34.85.49 .31.15.64.28.98.39 .35.11.7.19 1.07.25 .18.03.37.05.56.07l.26.02 .13.01h.15c.36 0 .72-.03 1.09-.08 .61-.09 1.22-.25 1.81-.49 .22.3.45.6.69.88 -.02.01-.03.01-.04.02l-.3.18 -.05.02 -.02.01c-.06.02.06-.04.05-.03h-.02l-.03.01c-.04.01-.07.03-.1.04l-.19.09 -.11.05 -.06.03 -.03.01h-.02c-.01 0 .06-.04.03-.02l-.02.01 -.22.09c-.08.03-.16.06-.23.1l-.04.01c.05-.03.01 0 .02-.02h-.02l-.02.01 -.07.02 -.13.05v0c-1.11.43-2.3.63-3.49.59l-.16-.02 -.18-.02 -.36-.04c-.22-.04-.44-.06-.66-.11 -.89-.17-1.74-.45-2.54-.87 -.2-.11-.38-.21-.56-.31 -.19-.11-.35-.23-.52-.34 -.31-.22-.61-.45-.89-.7 -.25-.22-.47-.44-.68-.68 -.21-.21-.35-.41-.48-.58 -.14-.17-.22-.3-.29-.39l-.11-.15s.03.05.08.14c.06.09.13.24.24.41 .11.17.24.38.42.62 .19.26.4.52.61.75 .26.28.53.56.83.8 .16.13.32.27.49.39 .17.13.35.26.54.38h0c.39.25.8.48 1.22.68 .44.2.9.37 1.36.51 .23.07.48.12.72.18l.34.06 .17.03 .19.03c.47.06.95.09 1.42.09 .86-.02 1.71-.14 2.54-.36l.12-.04 .06-.03 .09-.04c.08-.04.16-.06.23-.09l.22-.08 .24-.1c.07-.04.13-.06.19-.08 .03-.02.06-.03.09-.05l.02-.02h.01l.06-.04 .01-.02 .04-.03 .3-.16c.16-.09.28-.15.38-.19 .26.25.52.5.81.72 0 0 1.32 1.37 2.05.81 .68-.54-.11-2.21-.11-2.21 -1.06-3.03-3.05-5.69-5.68-7.55Zm-.06-1.42v0c-.01 1.03-.85 1.88-1.89 1.88h0c-1.04 0-1.89-.85-1.89-1.89v0c0-1.04.84-1.89 1.88-1.89v0c1.03 0 1.88.84 1.88 1.88Z"/></svg>