<svg viewBox="0 0 24 24" xmlns="http://www.w3.org/2000/svg"><path d="M12.29 17.88h-.001c-1.71 1.6-3.86 2.66-6.18 3.03v0c-.81.12-1.61-.16-2.17-.75 -4.25-4.63-4.25-11.74 0-16.358v0c.55-.6 1.36-.88 2.17-.75V3.05c2.36.37 4.56 1.47 6.28 3.14l0 0c-.47 2-.7 4.04-.7 6.1l-.001 0c0 1.87.19 3.74.57 5.57Zm9.89-3.94v0c-.57-.17-1.18.04-1.53.52h-.001c-2.96 4.13-7.12 7.25-11.92 8.93H8.72c2.12.39 4.27.58 6.42.59h-.001c1.49-.01 2.98-.1 4.46-.28v0c1.47-.19 2.67-1.26 3.03-2.7 .46-1.89.64-3.89.51-5.82v0c-.04-.6-.44-1.1-1.01-1.27ZM20.65 9.6v0c.44.62 1.31.76 1.94.32 .34-.25.56-.65.58-1.07 .13-1.97-.05-3.97-.52-5.89v0c-.36-1.44-1.57-2.51-3.04-2.7v0c-1.48-.19-2.97-.28-4.47-.28h-.001c-2.16 0-4.31.19-6.43.59l0-.001c4.8 1.7 8.97 4.85 11.91 9.01Z"/></svg>