<svg viewBox="0 0 24 24" xmlns="http://www.w3.org/2000/svg"><path d="M.87 18.25c-.248.38-.53.875-.763 1.24h0c-.22.35-.1.82.25 1.04l4.965 3.05h-.001c.35.22.82.11 1.05-.25 0-.01 0-.01 0-.02 .19-.34.45-.77.73-1.23 1.96-3.247 3.94-2.86 7.5-1.15l4.95 2.33v0c.38.18.83.01 1.01-.37 0-.01 0-.02 0-.03l2.36-5.35v0c.16-.39-.01-.83-.39-1l0 0c-1.66-.78-3.32-1.57-4.97-2.37C10.84 10.89 5.151 11.1.8 18.18ZM23.131 5.73c.24-.41.53-.88.76-1.25v0c.2-.36.09-.82-.26-1.04L18.661.38v0c-.36-.23-.83-.12-1.06.24 -.01 0-.01 0-.01.01 -.2.33-.46.76-.74 1.22 -1.97 3.246-3.95 2.85-7.51 1.14L4.4.64v0C4.01.45 3.56.62 3.38 1c-.01 0-.01.01-.01.01L1 6.356l0-.001c-.17.38 0 .82.38 1 1.039.49 3.1 1.46 4.96 2.36 6.69 3.24 12.392 3.029 16.73-4.04Z"/></svg>