<svg viewBox="0 0 24 24" xmlns="http://www.w3.org/2000/svg"><path d="M12.39 0C5.63 0 .39 5.498.39 12c0 6.57 5.313 12 12 12 4.28 0 8.08-2.26 10.217-5.71v-.001c.16-.27.08-.63-.19-.79 -.01-.01-.01-.01-.02-.01l-5.55-3.21v0c-.27-.15-.6-.08-.76.17v0c-.83 1.23-2.22 1.98-3.71 1.98 -2.458 0-4.458-2-4.458-4.46s2-4.46 4.458-4.46c1.49 0 2.87.74 3.7 1.98v0c.16.24.49.32.76.17l5.55-3.21v0c.27-.16.36-.51.2-.79 -.01-.01-.01-.02-.01-.02v0C20.38 2.08 16.51-.08 12.35-.08Zm0 3.527c3.048 0 5.72 1.61 7.21 4.026l-2.99 1.72c-.04.02-.09.01-.11-.03v0c-.92-1.38-2.47-2.21-4.12-2.2v-.001c-2.74 0-4.95 2.21-4.947 4.94 0 .9.24 1.74.66 2.47l-2.35 1.35h0c-.16.09-.21.29-.12.44 0 0 0 0 0 .01v0c1.46 2.3 4 3.7 6.738 3.7v0c2.76 0 5.33-1.43 6.78-3.79l2.98 1.72h0c.03.02.05.07.03.1 -.01 0-.01 0-.01 0v0c-2.09 3.41-5.81 5.48-9.8 5.47C5.99 23.451.83 18.28.83 11.94c0-2.1.56-4.06 1.54-5.76l2.35 1.35c.15.08.34.04.43-.11v0c1.54-2.47 4.26-3.97 7.17-3.966Zm10.57 5.42h0c-.12-.01-.24.02-.34.08l-4.15 2.39v0c-.32.18-.42.58-.24.89 .05.09.13.17.23.23l4.14 2.39c.43.25.98-.07.98-.57v-4.79 0c-.01-.36-.29-.65-.65-.66Zm-.67 1.78v2.52l-2.19-1.27Z"/></svg>