<svg viewBox="0 0 24 24" xmlns="http://www.w3.org/2000/svg"><path d="M8.878 19.1c-2.87-.25-5.385-1.32-7.03-2.96C.9 15.2.33 14.188.08 12.99c-.12-.55-.12-1.45 0-2C.44 9.32 1.51 7.87 3.21 6.76c3.86-2.54 9.77-2.52 13.604.03 .5.33.83.6 1.29 1.06 .58.57.98 1.14 1.41 1.98 .01.03.09.07.17.08 .27.05.63.26.92.54 .22.21.4.44.83 1.093 .43.65 2.4 3.69 2.52 3.89 .04.07-.05.2-.15.2 -.08 0-.13-.05-.24-.22l-1.12-1.74c-1.9-2.95-2.003-3.08-2.54-3.35l-.28-.14h-.82c-.82 0-.82 0-.84.08 -.11.47-.13.58-.11.6 .01.01.47.27 1.03.58l1 .56 -.07.13c-.04.07-.08.13-.09.13 -.02 0-.86-.47-1.875-1.04 -1.02-.57-1.91-1.06-1.99-1.08 -.29-.08-.734.24-.734.52 0 .29.08.37 1.87 1.84 1.11.91 1.75 1.46 1.85 1.59 .17.23.35.58.52 1.01 .29.75.76 1.17 1.53 1.36l.25.06 -.03.14v0c-.01.05-.02.1-.04.15 -.04.03-.55-.13-.85-.27 -.47-.23-.79-.55-1.1-1.1v0c-.14.04-.28.08-.41.13 -.4.14-.41.15-.78.51 -1.58 1.53-3.84 2.52-6.57 2.85 -.45.05-2.15.07-2.63.03Zm2.71-.48c1.25-.17 2.22-.42 3.24-.83 1.06-.44 2.07-1.07 2.77-1.74l.27-.27 -.7-.34c-.75-.36-.82-.42-.92-.74 -.06-.2 0-.42.19-.63l.14-.17 -.33-.25c-.26-.2-.34-.28-.39-.41v0c-.08-.21-.06-.44.07-.62l.09-.14 -1.03-.18v-.001c-.4-.07-.78-.14-1.17-.23 -.16-.05-.31-.22-.35-.4 -.03-.1.48-2.54.59-2.89v0c.07-.19.23-.33.42-.38 .16-.04 3.18.49 3.33.58 .23.13.31.36.23.7l-.04.14h.16c.09 0 .31-.02.48-.03l.31-.03 -.16-.29c-.48-.89-1.33-1.77-2.39-2.48 -.5-.33-1.55-.85-2.19-1.08V5.9c-.99-.35-2.01-.57-3.05-.68 -.58-.06-2.09-.06-2.64 0 -1.34.14-2.56.44-3.617.9C2.44 7.16.78 8.9.36 10.88c-.11.51-.12 1.42-.02 1.89 .22 1.04.71 1.94 1.5 2.78 1.62 1.7 4.09 2.75 7.06 2.99 .39.03 2.12-.02 2.526-.07Zm-.55-1.87c-.16-.05-.31-.23-.34-.4 -.03-.12 0-.2.16-.51 .65-1.27.94-2.44.94-3.86 0-1.37-.26-2.44-.88-3.72 -.14-.28-.25-.53-.25-.57 0-.14.11-.34.23-.41 .16-.11.45-.09.58.04 .05.05.18.27.3.49 .44.88.75 1.84.9 2.85 .09.62.11 1.8.03 2.37v0c-.13 1.01-.42 1.99-.86 2.9 -.27.55-.44.78-.58.78h0c-.04 0-.07 0-.11.01v0c-.06 0-.12-.01-.18-.02Zm-1.83-.96c-.24-.07-.41-.36-.34-.58 .01-.06.12-.3.24-.54 .5-1.03.71-2.13.609-3.21 -.09-.89-.25-1.45-.65-2.27 -.27-.55-.29-.64-.125-.86 .14-.21.51-.25.71-.07 .13.12.55 1 .71 1.49v0c.53 1.64.45 3.42-.24 5.016 -.36.82-.6 1.08-.95.98Zm-1.89-.97v-.001c-.16-.08-.27-.22-.31-.38 -.03-.1.01-.2.18-.55 .63-1.28.63-2.52.02-3.77 -.28-.55-.28-.66-.05-.88 .11-.11.16-.13.32-.13 .26 0 .4.13.64.625 .36.75.51 1.4.516 2.24 0 .86-.15 1.452-.54 2.24 -.23.45-.34.57-.56.6v0c-.09 0-.17-.01-.25-.04Zm-1.76-.91h0c-.14-.08-.24-.2-.29-.34 -.05-.16-.01-.28.16-.56 .22-.37.274-.56.274-1.04s-.06-.68-.274-1.04H5.42c-.07-.11-.13-.22-.17-.33 -.08-.24.12-.54.39-.59 .22-.05.38.06.59.38h0c.6.96.6 2.19-.001 3.15 -.22.33-.46.45-.71.34Zm13.09 1.47c.2-.08.37-.15.39-.16 .01-.02-.03-.15-.09-.29 -.13-.31-.11-.3-.54-.22 -.47.09-.74.01-1.25-.37 -.14-.11-.29-.19-.32-.19 -.04 0-.12.05-.18.11 -.13.14-.15.36-.05.49 .09.11 1.37.72 1.53.72 .06 0 .28-.06.49-.13Zm-.21-.99c.19-.04.21-.06.17-.12 -.04-.07-1.82-1.55-1.97-1.64 -.13-.08-.23-.06-.34.05 -.31.33-.28.4.52 1.013 .96.73 1.06.782 1.59.67Zm-2.39-2.231c0-.01-.21-.19-.45-.39 -.61-.51-.74-.69-.74-1.06 0-.31.2-.61.53-.78v0c.19-.09.41-.11.62-.06 .11.03.64.32 1.38.74l.15.08 .12-.61c.13-.62.13-.782.01-.82 -.04-.02-.75-.14-1.58-.29 -1.48-.26-1.64-.28-1.71-.17 -.04.06-.6 2.65-.6 2.76 0 .05.02.12.06.15 .03.02.51.13 1.06.23 1.06.19 1.09.19 1.09.17Z"/></svg>