<svg viewBox="0 0 24 24" xmlns="http://www.w3.org/2000/svg"><path d="M12 .03C5.373.03 0 5.38 0 11.99c0 6.6 5.373 11.96 12 11.96 6.628 0 12-5.36 12-11.97C24 5.37 18.62.02 12 .02Zm-.55 4.8c1.91-.13 3.87.39 5.43 1.93 1.42 1.43 2.51 3.44 2.48 5.31h2.13l-4.45 4.96 -4.445-4.97h2.31c-.01-1.73-.43-2.75-1.78-4.08 -1.33-1.34-2.667-2.11-4.978-2.31v0c1.03-.5 2.14-.79 3.28-.88ZM6.92 6.94l4.44 4.96H9.04c0 1.72.42 2.74 1.77 4.07 1.32 1.33 2.667 2.11 4.97 2.3 -2.69 1.26-6.22 1.39-8.71-1.064 -1.43-1.44-2.52-3.44-2.489-5.32H2.44L6.88 6.91Z"/></svg>