<svg viewBox="0 0 24 24" xmlns="http://www.w3.org/2000/svg"><path d="M19.734 11.603c.07.37.11.76.11 1.14 0 1.44-.57 2.846-1.56 3.88 -.99 1.03-2.36 1.66-3.79 1.74 -1.45.07-2.885-.42-3.98-1.37 -1.08-.94-1.78-2.27-1.93-3.69 -.15-1.45.27-2.92 1.17-4.06 .87-1.12 2.16-1.88 3.574-2.1 1.439-.23 2.93.12 4.12.97 1.15.81 1.97 2.06 2.26 3.45ZM23.994 6v12c0 3.314-2.686 6-6 6h-12c-3.32 0-6-2.686-6-6V6c0-3.32 2.686-6 6-6h12c3.31 0 6 2.686 6 6Zm-2.18 3.48c-.47-1.4-1.28-2.68-2.34-3.697 -1.03-.99-2.279-1.74-3.64-2.16 .15.42.23.87.23 1.326 -1.109-1.455-2.81-2.4-4.632-2.564 -1.112-.1-2.25.08-3.27.53 .82.25 1.55.8 2.03 1.53 -1.85-.66-3.94-.45-5.611.56 -.69.41-1.3.95-1.79 1.58 1.15-.25 2.375.06 3.26.843 -.74.7-1.76 1.08-2.778 1.03 .15.25.33.48.54.68 -.01.01-.03.03-.04.05 -.7.31-1.29.84-1.68 1.49 -.44.72-.613 1.6-.498 2.442 .06.48.22.94.46 1.36 -.11-.94.68-1.76 1.62-1.686 .92.07 1.57.98 1.351 1.88 -.16.63-.74 1.1-1.39 1.14 .87 1.54 2.362 2.7 4.08 3.14 .6.15 1.23.22 1.86.2 -.48.35-1.029.6-1.64.71 1.49 1.01 3.27 1.56 5.08 1.57 1.455 0 2.9-.33 4.2-1 1.24-.64 2.34-1.57 3.18-2.69 .85-1.14 1.43-2.48 1.67-3.88 .26-1.49.14-3.05-.33-4.48Z"/></svg>