<svg viewBox="0 0 24 24" xmlns="http://www.w3.org/2000/svg"><path d="M20.11 14.104v0c.03.74-.5 1.38-1.24 1.5 -1.43.24-4.385.39-6.875.39s-5.454-.15-6.877-.4c-.82-.14-1.24-.79-1.24-1.51V9.39h0c0-.73.52-1.36 1.23-1.51l0-.001c.71-.1 1.43-.15 2.15-.14V7.74c.29 0 .52.25.52.54v3.3c1.463 0 2.72-.09 4.2-.09 1.47 0 2.72.08 4.19.08V8.29v0c-.03-.3.19-.55.49-.57h.02v0c.72-.01 1.44.04 2.15.14v0c.71.15 1.22.77 1.23 1.5ZM12 0C5.37 0-.01 5.374-.01 12c0 6.628 5.373 12 12 12 6.628 0 12-5.372 12-12 0-6.63-5.38-12-12-12Z"/></svg>