<svg viewBox="0 0 24 24" xmlns="http://www.w3.org/2000/svg"><path d="M11.327.51C7.51.54 3.88 3.7 4.146 8.26c.1 1.54.88 3.38 2.981 5.73H7.12c.13.14.36.16.51.02 .07-.07.11-.16.11-.26l.05-2.266v0c0-.1-.04-.19-.1-.26h0c-1.92-2.03-1.82-5.23.21-7.14 .86-.83 2-1.31 3.19-1.37 2.27-.11 4.01 1.23 4.753 2.74 .34.69.52 1.45.55 2.22h0c0 .18.15.33.34.34 .48.01.96.06 1.43.14v0c.19.03.38-.1.41-.29 0-.02 0-.04 0-.06v0c.02-2.26-1-4.4-2.769-5.788 -.84-.67-2.3-1.55-4.54-1.56Zm4.94 8.36l0 0c-.85.01-1.69.1-2.52.26l-.001 0c-.2.03-.33.22-.3.42 .01.08.05.15.12.21l1.69 1.43v0c.08.07.2.1.31.07v0c1.04-.25 2.13-.15 3.12.28 1.78.78 2.92 2.41 3.04 4.304 .2 3.18-2.48 5.53-5.28 5.37v0c-.61-.04-1.2-.18-1.76-.42l0-.001c-.16-.08-.35-.03-.45.11 -.29.38-.61.75-.94 1.09v0c-.14.14-.14.37.01.51 .02.02.04.03.07.05 1.88 1.07 3.936 1.16 6.01.32 3.3-1.31 4.63-4.523 4.54-6.85 -.1-2.641-1.48-5.08-4.09-6.41 -.93-.47-2.04-.82-3.65-.8ZM3.33 10.07v0c-.06 0-.11.02-.16.05 -1.41.827-2.22 2.05-2.798 3.77 -.29.89-.386 1.51-.386 2.436H-.01c.07 3.91 3.23 7.07 7.15 7.14 1.12.01 2.104-.24 2.96-.59 1.45-.62 3.14-1.6 4.65-4.92h-.001c.08-.19 0-.4-.19-.49 -.09-.04-.19-.05-.28-.01l-2.365.86h-.001c-.09.03-.16.09-.2.17h0c-.5.96-1.3 1.74-2.27 2.22 -3.49 1.66-7.01-.98-7.25-4.03 -.15-1.75.49-3.06 1.37-3.99 .29-.31.41-.48.66-.67v0c.14-.11.19-.32.09-.48H4.31c-.26-.43-.48-.87-.66-1.33h0c-.07-.16-.22-.25-.38-.23Z"/></svg>