<svg viewBox="0 0 24 24" xmlns="http://www.w3.org/2000/svg"><path d="M9.103.43c.43-.4 1.08-.54 1.65-.37 .21.07.4.203.6.33 .15.1.34.14.49.261 .07.05.01.15.01.23 .18.44.28.94.13 1.42 -.14.15-.37.2-.56.27 -.03.2.04.39.07.59 -.05.02-.08.05-.12.08 .27-.02.55-.08.82-.14 .1-.11.26-.05.39-.06 .01-.21.08-.4.08-.6 .02 0 .08-.02.11-.03 .01.14 0 .29.04.43 .07.05.18.02.27.04 0 .05 0 .11.01.17 1.68-.02 3.37 0 5.05 0v.24h.15v-.95h.18c0 .26-.02.5 0 .76v0c.01.01.04.02.07.02 0 .02.01.08.01.11 .05-.06.13-.11.21-.08 .01.04.02.08.04.14 -.06.05-.09.13-.06.21 .46.01.92 0 1.4 0 .04-.06.11-.09.18-.12 .02.01.07.04.08.05h.68c.02.11.02.23.01.33h-.7c-.02.01-.06.05-.09.07 -.08-.05-.14-.08-.21-.12h-1.27c-.25.07-.51.05-.76.01v.27h-2.08c-.09.07-.18.11-.29.13 .04.21-.21.27-.29.43 -.06.08-.15.14-.24.17 -.08.44.08.86.2 1.29 -.14.02-.28.07-.41.1 -.08.28-.15.59-.21.88 -.06.26-.27.47-.51.57 -.18.2-.41.4-.69.42 -.11.02-.18-.05-.25-.11 -.37.02-.7-.15-1.02-.29 -.35-.16-.67-.37-1-.56 .02.2-.08.37-.15.55 .15.07.37.13.46.3 .05.13.11.27.11.43 -.02.52-.08 1.04-.11 1.56 .01.37-.18.75-.44 1.029 -.18-.02-.32-.09-.48-.16 -.06.13-.19.26-.12.42 .05.18.05.39.14.56 .49.52.91 1.1 1.21 1.75 .3.62.53 1.27.78 1.92 .04 0 .13-.02.17-.02 .05.18 0 .4.11.57 .1.15.07.34.07.53 -.03.43-.06.86-.11 1.3 -.03.3-.11.6-.15.91 .01.23.11.46.1.69 -.02.21-.02.44-.19.6 .01.49-.12.98.05 1.46 .23.31.49.62.76.89 .3.14.66.17.92.43 .1.15.04.34.01.52v0c-.63.08-1.25.08-1.87 0 -.25-.06-.48-.16-.73-.19 -.34.01-.73.14-1.029-.09 -.03-.4.11-.77.18-1.15 .02-.14.15-.22.14-.35 -.03-.45-.06-.92-.09-1.37 -.06-.03-.16-.06-.15-.15 0-.22-.08-.44-.14-.64 -.11-.56-.15-1.12-.16-1.69 -.02-.16.08-.28.2-.38 .02-.25.05-.51.07-.76 -.05-.14-.15-.24-.21-.35 -.27.02-.64.08-.8-.19 -.38-.57-.77-1.15-1.15-1.72 -.16-.02-.35 0-.5-.11 -.16-.18-.27-.41-.37-.63 -.05.17-.08.36-.18.5 -.09.14-.24.24-.34.37 -.11.23-.19.46-.28.69 -.11.28-.25.57-.28.89 -.02.15-.05.3-.11.44 -.08.11-.21.15-.32.21 -.09.18-.15.37-.28.53 -.09.1-.24.13-.29.26 -.06.17-.15.33-.22.49 -.03.17.08.36.02.53 -.11.43-.32.84-.53 1.23 -.11.28-.18.59-.32.86 -.06.11-.21.14-.32.15 -.14.31-.28.62-.37.95 -.05.31-.05.65-.03.97 0 .14.08.26.14.39 .05.17.01.34-.02.52 -.57.07-1.15.13-1.7-.05 -.06-.05-.05-.12-.06-.18 -.05-.27-.08-.54.01-.79 .18-.69.34-1.37.53-2.05 -.08-.08-.18-.14-.18-.25 -.02-.19 0-.4.04-.58 .08-.32.31-.57.43-.87 .04-.14.02-.27.04-.4 0-.31.17-.56.3-.82 .13-.22.23-.45.4-.64 .11-.11.11-.27.2-.4 .08-.16.23-.29.23-.48 .02-.24-.06-.47-.03-.7 .05-.69.18-1.35.3-2.029 -.06-.08-.15-.15-.18-.25 .01-.08.02-.14.04-.21l-.14-.22c.05-.09.11-.19.17-.28 -.06-.05-.14-.11-.19-.15 .07-.22.04-.54.3-.64 .02.01.1.02.13.04 -.05-.38-.05-.77-.09-1.15 -.11-.41-.12-.83-.08-1.24 .14-.22.42-.31.66-.32 -.32-.08-.64-.11-.95-.21 -.02-.27.02-.53.07-.79 .13-.51.07-1.029.14-1.56 .07-.15.26-.18.42-.15 .18.02.37-.03.56-.09 0-.08.01-.16 0-.24 -.12-.51-.09-1.029 0-1.53 .11-.64.37-1.27.85-1.72 .31-.31.78-.45 1.21-.44 .14 0 .23.14.34.23 .05-.06.11-.12.15-.18 -.08-.25-.19-.51-.18-.77 .02-.58.21-1.18.65-1.57m4.52 4.1c.02.02.02.02 0 0m.2.02c.01.1.04.2-.02.28 -.08.02-.16.02-.24.07 .2 0 .4.01.6 0 .15-.05.1-.25.1-.37 -.11-.12-.32-.05-.47 0m-.51.6c.14.15.21.4.34.56 .18-.25.33-.51.55-.73 -.27-.02-.53.01-.79-.02 -.05.05-.08.11-.12.17Z"/></svg>