<svg viewBox="0 0 24 24" xmlns="http://www.w3.org/2000/svg"><path d="M11.374 23.97c-4.183-.21-8.006-2.63-9.96-6.35 -2.1-3.86-1.88-8.864.73-12.454 2.6-3.84 7.35-5.88 12.13-4.95 4.58.85 8.35 4.494 9.358 8.911 1.12 4.34-.43 9.173-3.93 12.04 -2.29 1.95-5.295 2.95-8.34 2.79Zm7.705-8.05l-.001 0c-1.06-.64-2.12-1.27-3.18-1.89 -.91 1.48-2.885 2.24-4.57 1.66 -2.03-.64-3.394-2.987-2.49-5.134 .8-2.01 2.79-2.71 4.35-2.47h-.001c1.05.19 1.99.79 2.62 1.66 1.07-.64 2.128-1.218 3.17-1.86C16.94 4.76 12.82 3.59 9.32 5.12 6.19 6.54 4.43 9.8 4.93 13.03c.54 3.59 3.73 6.48 7.71 6.4v0c2.6-.03 5.01-1.37 6.404-3.57Z"/></svg>