<svg viewBox="0 0 24 24" xmlns="http://www.w3.org/2000/svg"><path d="M0 12v12h24V0H0Zm13.195-6.19l1.16 3.51 2.25 0c1.23 0 2.91.01 3.72.03l1.47.02 -2.968 2.15c-1.63 1.18-2.98 2.18-2.99 2.21 -.01.03.48 1.62 1.1 3.54 .61 1.91 1.12 3.48 1.11 3.49 -.01.01-1.35-.95-2.99-2.12 -1.64-1.18-3-2.15-3.04-2.17 -.03-.01-1.42.94-3.07 2.13 -1.66 1.18-3.02 2.151-3.024 2.14 -.01-.01.49-1.58 1.11-3.5 .61-1.92 1.11-3.51 1.1-3.54 -.02-.04-1.36-1.03-2.99-2.22L2.17 9.32l1.472-.03c.81-.02 2.49-.04 3.72-.04l2.25-.01 1.16-3.52v0c.38-1.18.77-2.35 1.17-3.52 0 0 .53 1.58 1.17 3.516Z"/></svg>