<svg viewBox="0 0 24 24" xmlns="http://www.w3.org/2000/svg"><path d="M21.474-.001H2.526h-.001c-1.39-.01-2.53 1.11-2.53 2.5 -.01 0-.01.01-.001.02v18.94 0c-.01 1.38 1.11 2.52 2.5 2.526 0 0 .01 0 .02 0h18.94v0c1.39-.01 2.52-1.14 2.52-2.526V2.51h0c0-1.39-1.12-2.53-2.51-2.53 -.01-.01-.02-.01-.03-.001M11.91 14.6c.78 0 1.62-.31 2.442-1.04l1.12 1.29c-1.18.95-2.53 1.48-3.88 1.48 -2.667 0-4.35-1.77-3.96-4.27 .39-2.5 2.66-4.27 5.33-4.27 1.29 0 2.49.5 3.34 1.431l-1.58 1.29c-.45-.59-1.21-.99-2.05-.99 -1.6 0-2.84 1.03-3.09 2.526 -.23 1.48.67 2.52 2.3 2.52"/></svg>