<svg viewBox="0 0 24 24" xmlns="http://www.w3.org/2000/svg"><path d="M23.8 13.154v0c-.04-.02-.07-.03-.11-.03v-.001c-.08-.01-.14.01-.21.04 -.06.02-.1.08-.13.13 -.09.12-.15.26-.23.4 -.11.18-.25.35-.38.51 -.14.15-.29.29-.43.44 -.03.02-.08.04-.11.02s-.04-.06-.04-.09c.04-.38.07-.77.12-1.138 .02-.18.04-.34.06-.52 .02-.25.05-.49.08-.74l.23-1.83c.02-.13.03-.38-.14-.52v0c-.07-.07-.15-.11-.24-.12v0c-.09-.01-.18.01-.26.06 -.23.16-.3.5-.37.76 -.15.6-.18 1.24-.48 1.8h0c-.06.11-.13.21-.21.31l0-.001c-.05.07-.12.13-.19.18h0c-.08.04-.17.06-.25.05v0c-.11-.03-.2-.11-.24-.21h0c-.05-.11-.07-.22-.07-.33v0c-.02-.54.06-1.08.24-1.59 .04-.14.08-.26.1-.39 .02-.16.02-.38-.12-.516 -.14-.13-.34-.18-.51-.13 -.2.05-.31.24-.38.39 -.2.46-.25.95-.32 1.44 -.05.32-.13.64-.3.92v0c-.16.27-.37.51-.61.72 -.12.08-.23.12-.33.1v0c-.13-.02-.23-.1-.28-.21h-.001c-.06-.1-.09-.21-.1-.32v0c-.04-.21-.05-.41-.04-.62 0-.23 0-.44.04-.66 .07-.39.67-1.94.8-2.35 .13-.41.26-.83.35-1.25 .08-.38.12-.77.11-1.15 -.01-.28-.07-.58-.29-.74V5.96c-.18-.13-.41-.14-.61-.05V5.91c-.2.08-.36.23-.46.42v0c-.1.18-.18.38-.23.59h0c-.12.42-.21.85-.27 1.29 -.08.42-.14.84-.21 1.26 -.06.35-.21 1.61-.27 1.88 -.06.27-.18.54-.31.78 -.14.26-.26.53-.41.79v0c-.05.08-.11.16-.18.22 -.08.06-.19.08-.27.04 -.11-.05-.15-.18-.17-.3 -.08-.44-.02-.875.07-1.31 .08-.44.44-2.4.51-2.86 .09-.532.24-1.05.28-1.59 .02-.39.09-.88-.21-1.19 -.12-.14-.31-.16-.44-.14 -.18.03-.31.17-.39.29 -.1.12-.19.28-.26.46 -.12.28-.19.61-.27.91l-.04.12c-.09.38-.15.77-.19 1.16l-.001 0c-.03.21-.05.42-.06.63 -.01.1-.02.2-.03.3 0 .08 0 .16-.03.24v0c-.02.02-.04.04-.06.06 -.08.07-.21.06-.31.05 -.56-.02-1.045.3-1.35.75 -.18.25-.29.54-.39.83 -.01.04-.04.1-.06.15 -.06.14-.13.32-.23.51v0c-.1.16-.2.31-.32.46v0c-.12.14-.25.28-.39.41v0c-.15.13-.33.21-.52.26 -.18.04-.39-.05-.55-.21v-.001c-.13-.16-.2-.35-.21-.54 -.01-.06-.01-.12.02-.17 .05-.07.14-.08.23-.08v0c.61-.06 1.14-.45 1.375-1.02 .13-.34.17-.7.12-1.05v0c-.03-.18-.1-.34-.19-.48V9.83c-.1-.15-.24-.26-.4-.33 -.3-.14-.66-.13-1.01 0 -.58.23-.96.74-1.14 1.56l-.02.08c-.12.48-.23 1-.59 1.35 -.13.12-.27.16-.37.14 -.05-.01-.08-.04-.11-.08 -.1-.16 0-.532.15-1h0c.03-.13.07-.25.1-.37v0c.01-.18-.03-.35-.11-.5h0c-.09-.15-.22-.26-.38-.33 -.15-.07-.31-.06-.47-.06h-.05c-.05 0-.11 0-.16-.02l-.001-.001c-.07-.02-.13-.07-.15-.13v0c-.02-.08-.01-.16.01-.24 0-.02.01-.05.01-.08v0c.04-.16-.03-.33-.17-.42v0c-.15-.09-.32-.11-.47-.04L5.94 9.36c-.16.07-.29.19-.37.34v0c-.09.14-.13.31-.11.48 .04.13.07.32.04.47 -.06.28-.23.51-.39.74 -.04.05-.08.1-.11.16v0c-.21.3-.45.57-.71.82 -.38.33-.81.57-1.24.67 -.75.16-1.51-.06-1.91-.734 -.23-.38-.32-.827-.35-1.266v0c-.07-.87.08-1.73.42-2.52 .32-.76.81-1.52 1.71-1.62 .35-.04.75.08.91.4 .11.23.07.5 0 .75 -.08.24-.18.49-.18.75 -.01.26.12.54.37.61 .23.07.49-.08.63-.29 .13-.21.18-.46.24-.71l0-.001c.14-.58.36-1.13.66-1.64 .13-.24.29-.49.25-.76v0c-.04-.2-.19-.36-.38-.42H5.42c-.2-.06-.4 0-.54.14s-.21.37-.39.43c-.17.06-.35-.06-.51-.14 -.6-.32-1.34-.32-1.97-.05C1.37 6.22.86 6.7.48 7.26c-.55.8-.91 1.78-.99 2.75 -.03.34-.04.69 0 1.03 .036.46.1.85.21 1.2 .139.42.317.79.54 1.09 .266.34.58.6.94.74 .37.14.784.22 1.192.2v0c.4-.02.8-.12 1.177-.29H3.55c.37-.18.71-.41 1.02-.68 .3-.26.59-.56.84-.89 .16-.23.3-.46.44-.71h0c.06-.13.12-.26.17-.39 .04-.11.08-.22.2-.26 .05-.05.15-.02.2.01 .06.04.11.07.13.13 .04.11.02.23-.01.33v.01c-.03.1-.06.2-.1.3 -.14.42-.24.81-.16 1.19 .04.2.12.38.25.52v0c.13.14.31.23.5.26 .24.04.51-.03.72-.14 .14-.07.27-.16.39-.26 .06-.06.12-.12.17-.19 .04-.06.08-.15.17-.15v-.001c.04 0 .08.02.1.06 .02.03.04.07.06.11 .23.52.77.84 1.33.84h.07c.27 0 .55-.1.79-.22 .27-.14.48-.35.7-.56 .02-.02.04-.04.07-.05 .03-.01.07.01.09.04v-.001c.02.02.03.06.04.1 .13.34.46.6.82.66l-.001-.001c.36.05.74-.08.99-.36 .05-.06.1-.13.16-.18 .06-.05.15-.08.22-.05 .1.04.13.16.18.26 .1.23.35.37.61.375 .28 0 .55-.15.76-.34 .19-.19.35-.4.51-.61v-.001c.02-.04.06-.08.1-.1 .04-.03.09-.03.13 0 .03.02.04.06.06.09 .16.4.58.65 1.01.64 .41-.01.8-.23 1.1-.516 .09-.1.19-.2.32-.21 .14-.02.2.11.25.22 .07.14.11.23.25.33 .15.11.36.15.54.1 .17-.04.34-.16.47-.32 .07-.09.11-.21.19-.29 .09-.09.13.02.13.1 .01.11.01.23 0 .35 -.02.23-.06.47-.08.7 -.02.06-.02.13-.07.18 -.06.06-.17.08-.26.06v-.001c-.11-.02-.22-.03-.33-.03l-.14-.02c-.21-.02-.4-.04-.61-.05h-.19c-.41 0-.74.04-1.03.16 -.48.18-.86.57-1.01 1.01v0c-.08.2-.09.42-.06.64 .04.2.13.4.28.58 .26.31.68.51 1.14.54 .4.02.85-.07 1.29-.26 .84-.37 1.48-1.1 1.69-1.95 0-.02.01-.04.02-.05 .29-.11.57-.25.81-.43 .24-.19.46-.4.65-.65 .09-.12.17-.25.25-.37 .07-.125.13-.26.2-.38h-.001c.06-.1.1-.21.13-.32v0c.03-.12.01-.24-.05-.33v0c-.03-.06-.08-.11-.14-.13M9.34 10.79c.01-.08.04-.14.06-.21v0c.06-.19.14-.36.26-.51 .04-.05.08-.1.13-.14v0c.05-.05.12-.06.18-.05 .1.02.18.12.2.23 .03.18-.04.39-.12.55h0c-.07.16-.18.3-.31.41 -.06.04-.12.08-.18.11 -.03 0-.07.02-.12.02h-.02c-.06 0-.12-.03-.13-.09v0c-.03-.13-.02-.25.01-.37m4.308-.19c-.01.07-.03.14-.03.22l0-.001c-.03.25-.03.51 0 .77 .01.15.04.3-.02.44v0c-.1.28-.3.51-.57.64v0c-.08.03-.17.05-.25.05 -.02 0-.04-.01-.06-.01 -.12 0-.22-.1-.27-.18v-.001c-.05-.09-.09-.18-.1-.28V12.2c-.08-.38-.06-.77.07-1.13 .08-.22.2-.44.38-.6v0c.15-.15.35-.24.56-.24h0c.07-.01.14.01.2.06 .04.04.06.1.05.16h0c0 .01 0 .02 0 .04m6.43 4.65c-.02.04-.06.1-.08.14 -.05.08-.11.16-.17.23v0c-.1.11-.21.21-.32.3 -.24.18-.51.31-.78.38v0c-.16.04-.33.06-.49.07h-.04v0c-.19 0-.37-.07-.52-.18v0c-.09-.07-.14-.16-.16-.25v0c-.02-.11 0-.22.04-.31v0c.07-.17.21-.31.38-.39 .32-.16.68-.18 1.01-.16 .13 0 .26.01.4.02 .1 0 .21.01.32.02 .05 0 .11 0 .17.01 .04 0 .09-.01.13 0 .06 0 .06.03.06.07"/></svg>