<svg viewBox="0 0 24 24" xmlns="http://www.w3.org/2000/svg"><path d="M12.014 0c-.51.281-9.24 5.256-10.323 5.87v0c-.09.03-.15.13-.14.23v11.866l.08.15s6.52 3.74 10.24 5.884h.14c.52-.3 9.26-5.28 10.26-5.85v-.001c.1-.05.16-.16.16-.28 -.01-3.92-.01-7.83 0-11.74 0-.15-.04-.26-.18-.31L12.07-.03Zm.32.86c3.06 1.763 6.12 3.51 9.19 5.27 -.36.13-4.83 1.819-4.83 1.819l-.04.06c.03.08.07.17.09.26l.08.04c.11-.05 4.87-1.838 4.96-1.87v10.802c-.01-.01-3.29-5.692-3.63-6.282 -.06-.09-.06-.09-.15-.07 -.34.06-.21.03-.32.06l3.8 6.6H12.73l-.09-.08 -.05-1.26 -.07-.07c-.37.06-.75.07-1.11.01l-.07.06v.51l-.05.05c-.81-.12-.65.01-1.94-1.55 -.13-.15-.24-.31-.36-.47l-.01-.01 .01-.1c.39-.48.74-.85.7-1.53v0c-.02-.4-.24-.77-.59-.96 -.47-.28-1.05-.23-2.63-.23 -.18 0-.22.17-.09.22l.22.02c.23.04.25.12.25.63 0 3.3.01 3.08-.06 3.72 -.03.24-.16.17-.31.2l-.1.08 .08.14c.09.02 1.505.02 1.58 0 .16-.05.12-.22-.03-.23 -.36-.03-.44-.02-.46-.23 -.05-.35-.04-.3-.05-1.53l.08-.09c.62 0 .68-.04.78.11 .33.46.68.91 1.02 1.36 .33.44.65.59 1 .59 .97.01.86-.02.86.04v.41l-.08.08H2.4c-.09 0-.1.01-.06-.06l3.16-5.49 -.04-.07c-.29-.02-.351-.06-.43.07L2.03 17.09V6.28c.12.03 1.25.46 1.25.46 .1.04.14.04.5-.24l-1.45-.55 -.01-.02C5.35 4.2 8.38 2.47 11.42.74l.01.01h-.01C10.08 3.07 8.73 5.4 7.38 7.74c.16 0 .29 0 .43-.01C7.89 7.72 11.38 1.56 11.81.87c.39.68 3.79 6.587 3.84 6.66 .06.1.1.14.55.18l.01-.02Zm-.41 3.187h0c-.4.03-.69.36-.68.76 0 .29.15.51.41.65l.07.13c-.02.32-.02.09-.05 1.388l-.09.08c-1.43-.01-1.49.01-1.75-.09 -.1-.04-.14-.01-.16.09l-.16.843c-.01.05.07.27.18-.01 .16-.42.37-.375 1.88-.399l.06.05 0-.001c-.07 1.89-.13 3.79-.18 5.68l-.1.12c-.55.17-1.16.8-.94 1.7 .27 1.14 1.47 1.09 1.59 1.09 1.37-.07 1.57-1.2 1.51-1.75v0c-.04-.38-.26-.72-.59-.91h-.001c-.14-.08-.27-.14-.41-.19l-.06-.07 -.18-5.725 .04-.05c2.12.1 1.6.1 1.83.56l.12.01 .03-.96 -.13-.09v0c-.09.01-.18.03-.26.03v0c-.54.01-1.62.01-1.62.01l-.06-.06c-.06-1.62-.05-1.383-.05-1.42l.1-.21c.38-.25.43-.8.11-1.14v0c-.16-.18-.38-.26-.61-.23Zm.07.39c.47 0 .45.7-.01.69 -.45-.01-.46-.7 0-.7ZM5.34 6.54c-.21.01-.42.03-.65.08 -1.4.31-2.011 1.6-1.89 2.822 .31 3 4.3 2.4 4.375 1.97 0-.01.07-.39.16-.9v-.05l-.15-.11c-.28.01.11.86-1.17.96 -1.74.12-2.55-1.266-2.537-2.39C3.51 6.2 6.83 6.68 6.98 7.72c.01.13-.01.42.18.34l.07-.11c0-.04.05-.85.06-1.09 0-.14-.05-.18-.17-.19 -.7-.09-1.22-.22-1.819-.19Zm12.645 1.47l-.06.03c-.07.06-.02-.03-.87 1.95v0c-.06.14-.13.28-.2.42v0c-.06.1-.17.16-.28.16 -.12 0-.11.15.03.15h1.23c.18 0 .1-.15-.04-.18 -.21-.05-.64.04-.58-.11 .06-.18.13-.35.21-.516l.07-.05c.23-.02.45-.02.68-.01l.09.06c.06.16.12.32.19.47 .09.2-.11.23.02.26l.16.03c.13 0-.51-.01 2.37.01 .25 0 .19-.15.24-.49h-.01c.01-.11-.1-.27-.18.01 -.06.17-.13.17-.75.15l-.15-.12c-.03-.11-.02-1.86-.02-1.94v-.02l.12-.12c.3-.04.16-.16.05-.16 -1.06-.01-1.01 0-1.02.01 -.12.11-.01.14 0 .14 .15.02.25-.01.25.2v1.936c-.01.15-.03.2-.2.2 -.03 0-.21.03-.3-.1 -.25-.34-.97-2.279-1.11-2.433l-.02-.02Zm-2.37.02c-.4-.01-.87.08-1.2.4 -.46.46-.66 1.6.32 2.12 .62.33 1.45.17 1.53.16 .31-.05.28-.59.28-.6 -.05-.14-.09-.12-.15-.06 -.05.05-.05.27-.33.35 -.33.09-1.08.08-1.36-.65 -.27-.7.04-1.79 1.27-1.42 .21.06.33.2.35.42 .01.11.12.11.16.01 0-.04 0-.21.02-.46 0-.14-.03-.2-.15-.22 -.07-.02-.4-.1-.8-.11Zm-4.54.05l-.9 0c-.16.05-.16.14.03.16 .13 0 .15.05.15.31 -.01 2.12-.01 1.74-.03 1.904l-.11.09v0c-.17.02-.35-.03-.47-.15 -.49-.51-.77-.87-.82-.93 .09-.11.19-.21.29-.32 .41-.47.03-1.02-.375-1.06 -.35-.05-.86-.04-1.41-.04 -.1 0-.28.12.05.16 .13.01.15.07.15.23 0 .09-.02.67-.01 1.88 0 .33-.17.11-.28.28l.12.08h.91c.17 0 .17-.17-.05-.17 -.19 0-.15-.06-.19-.83 -.01-.1.31-.09.38.01 .5.68.63.97 1.13.97 .48-.01.97 0 1.45 0 .18 0 .11-.16 0-.16 -.23 0-.24-.06-.24-.11 -.02-.13-.04.05-.02-2.01 0-.17.02-.21.18-.22h.01c.16-.14-.03-.17-.05-.17Zm1.73 0c-.09 0-.14.08-.02.14 .07.03.22-.05.22.19 -.01 2.208.05 2.13-.16 2.13 -.16 0-.18.16 0 .16 .37 0 .7 0 1.013 0 .12 0 .12-.16 0-.16 -.15-.01-.29.02-.29-.17 -.04-1.98 0-2.05 0-2.06 .01-.14.15-.1.19-.12 .1-.06.06-.11.01-.14Zm-4.51.26v0c.26-.06.52.12.57.39 0 .01 0 .02 0 .03 .02.11.06.69-.58.62l-.1-.13c-.01-.23 0-.67 0-.88Zm9.578.49l.28.74h-.58c.09-.25.18-.49.29-.74Zm-9.96 3.49c.17 0 .36.03.4.05 .7.2.86 1.14.58 1.82 -.22.52-.66.39-1.2.34 -.12-.01-.13-.03-.13-.14v-1.95c-.01-.11.16-.14.33-.13Zm10.2.74c-.43.04-.06.02-1.75.02 -.18 0-.17.16.02.16l0 0c.17 0 .29-.23.18 2.4 -.01.14-.14.11-.2.12 -.12.02-.14.13-.01.16 .03 0-.09.01 1.65.01 .21 0 .21-.1.21-.12 .01-.15.03-.3.06-.46 .01-.12-.12-.14-.15-.03 -.1.26.01.29-.77.26 -.22-.01-.19-.19-.19-.77 0-.4-.12-.33.6-.28 .17 0 .11.15.17.24l.12-.02 .05-.54c.01-.17-.13-.09-.14-.09 -.26.08-.6.06-.74.07l-.08-.07v-.76l.07-.07c.63.02.718-.01.73.23 0 .13.15.1.15 0 .01-.16.03-.32.04-.48Zm-3.061.02h-1.09c-.12 0-.14.13-.02.15 .13.01.25 0 .26.17 .01.15.02 1.49-.02 2.24 -.01.15-.15.1-.24.13 -.08.01-.07.14.02.16l1.79 0c.05 0 .25.05.24-.59 0-.01-.05-.16-.13-.06 -.18.22.15.35-.89.29 -.11-.01-.16-.07-.16-.17 -.03-.59-.02-1.86-.02-1.95 0-.28.11-.24.23-.26 .16-.02.14-.16-.01-.16Zm-3.596.46c.01.09-.05 1.75-.06 1.84 -.02.39 1.19.59 1.18.12 0-.03-.06-1.74-.06-1.84l.01-.01c.57.44.48 1.46.25 1.82h-.001c-.22.35-.67.49-1.05.33 -.98-.41-.97-1.94-.3-2.292Zm1.28 4.4c9.039 0 8.5-.01 8.51.01 -.73.41-8.46 4.81-9.26 5.27h-.16c-.83-.48-9.063-5.21-9.185-5.29h8.57c.09 0 .09 0 .09.09H11.3c-.02.75-.04 1.5-.07 2.25 -.01.17.02.34.09.5 .2.48.39.97.59 1.45 .04.1.06.08.09 0 .65-1.54.6-1.43.63-1.51 .03-.12.05-.24.06-.36 0-.28-.06-2.36-.06-2.37Z"/></svg>