<svg viewBox="0 0 24 24" xmlns="http://www.w3.org/2000/svg"><path d="M16.11 17.793v0c-.61.01-1.2-.19-1.67-.57 -.55-.44-1.01-1.09-1.02-1.86 -.01-.39.41-.39.41-.39l1.01-.01c.33 0 .43.47.44.58 .12 1.04.71 1.49 1.16 1.7 .27.12.2.51-.37.52Zm-5.695-5.29l-1.93-.26c-.867-.22-.85-.99-.81-1.25l0-.001c.1-.77.38-1.49.81-2.13 .54-.81 1.3-1.508 2.29-2.08C12.62 5.7 15.22 5.1 18.08 5.1c2.09 0 4.256.27 4.29.27 .19.02.32.21.33.43H22.7c0 .2-.15.38-.36.39l-.92-.01c-2.91 0-4.968.39-6.506 1.24 -1.53.83-2.57 2.11-3.29 4.01 -.08.16-.34 1.12-1.24 1.02Zm2.53 7.823c-1.44 0-2.8-.63-3.83-1.75 -.87-.96-1.4-1.94-1.5-3.17 -.06-.82.3-1.1.78-1.05l1.98.21c.45.09.75.34.82.85 .39 2.73 2.122 3.814 3.15 4.04 .18.04.29.15.28.36v0c-.01.19-.14.35-.33.39 -.46.07-.94.07-1.4.07Zm-4.11 2.41v0c-.78-.01-1.55-.09-2.31-.22 -1.202-.22-2.208-.59-3.08-1.13 -2.07-1.31-3.32-3.62-3.47-6.36 -.04-.65-.11-1.89 1.427-1.8 .63.03 1.653.34 2.368.548 .88.24 1.31.93 1.31 1.6 0 3.85 3.49 6.4 5.02 6.4 .65 0 .41.7.12.77 -.51.13-1.15.15-1.42.15ZM3.49 11.4c-.605-.11-1.2-.36-1.768-.5C-.05 10.46.24 8.66.42 8.178 2.03 3.42 7.16 1.82 11.3 1.39c3.89-.4 7.97-.1 11.77.96 .31.08 1.26.32.718.891 -.35.35-1.7-.02-2.08-.05 -2.23-.17-4.44-.2-6.66.15 -2.349.35-4.77 1.09-6.71 2.66 -.94.758-1.76 1.72-2.32 2.86 -.15.3-.26.6-.36.9 -.11.32-.47 1.91-2.22 1.6Zm9.94.91c.33-1.49 1.81-3.85 6.38-3.686 1.05.03.57.74.05.73 -2.59-.09-3.82 1.57-4.46 3.27 -.22.54-.68.62-1.28.53 -.42-.08-.87-.13-.71-.85Z"/></svg>