<svg viewBox="0 0 24 24" xmlns="http://www.w3.org/2000/svg"><path d="M14.71 14.87c.29 0 .58.1.8.28l.01.01 -.15.23c-.19-.17-.43-.26-.68-.26 -.55 0-1 .44-1 .99 0 .54.44.99.99.99 .49 0 .91-.37.98-.85l0-.02h-.86l.17-.28h.96v.13c0 .7-.58 1.27-1.28 1.27 -.702 0-1.28-.58-1.28-1.28 -.01-.71.56-1.28 1.27-1.28Zm-13.442 0c.34 0 .68.14.91.39l.01.01 -.16.24c-.19-.24-.47-.37-.78-.37 -.549 0-.995.44-.995.99 0 .54.44.99.995.99 .28 0 .55-.13.74-.34l.01-.02 .21.18c-.24.28-.6.44-.97.44 -.701 0-1.272-.57-1.272-1.28 0-.71.57-1.28 1.272-1.28Zm2.44.01c.63 0 .89.3.89.73 0 .36-.19.61-.63.7l-.02 0 .702 1.07h-.34l-.67-1.06h-.48v1.05h-.28v-2.52Zm5.88 2.27v.24H7.85v-.25ZM5.57 14.87l.69 1.14c.02.04.03.08.04.11 .01-.03.01-.07.04-.11l0-.01 .68-1.15h.29L5.74 17.36h-.28l.64-1.05 -.89-1.468Zm17.522 2.27v.24h-1.73v-.25Zm-4.561-2.28l1.51 2.08c-.02-.06-.02-.09-.03-.13v-1.96h.27v2.51h-.26l-1.52-2.1c.01.03.02.07.02.14v1.95h-.28v-2.52Zm-1.37 0v2.51h-.28v-2.52Zm-6.4 0l1.51 2.08c-.02-.06-.02-.09-.03-.13v-1.96h.27v2.51h-.26l-1.52-2.1c.01.03.02.07.02.14v1.95h-.28v-2.52Zm12.317 1.06v.24h-1.73v-.25Zm-13.504 0v.24H7.84v-.25Zm-5.876-.83h-.52v.96h.51c.38 0 .61-.12.61-.48 -.01-.37-.24-.49-.62-.49Zm19.99-.57c.16 0 .29.13.29.29 0 .16-.14.29-.3.29 -.17 0-.3-.13-.3-.3 0-.17.13-.3.29-.3Zm-.62.32v.24h-1.73v-.25Zm-13.504 0v.24H8.09l.15-.25Zm14.11-.28c-.14 0-.25.1-.25.24 0 .13.1.24.24.24 .13 0 .24-.11.24-.25s-.11-.25-.25-.25Zm0 .09c.07 0 .1.03.1.09 0 .04-.02.07-.06.08l-.01 0 .08.12h-.06l-.07-.11c-.01-.01-.01-.01-.01-.02v-.01h-.06v.11h-.05v-.31h.11Zm0 .04h-.07v.09h.06c.04 0 .06-.02.06-.05 0-.04-.02-.05-.06-.05ZM10.86 6.53l.08-.01C8.58 7.06 7.18 8.85 7.18 9.08v0s0-.01 0 .03v0h0c.04.25.74 1.47 3.441 2.2 -3.09-.25-4.494-1.75-4.563-2.19l-.01-.02h-.01c0-.05-.01-.04-.01-.04l0-.02c.03-.46 1.928-2.32 4.794-2.56l.08-.01Zm.98-.02c3.2.16 5.07 2.075 5.093 2.6V9.1c0-.01-.01 0-.01.03v0h-.01c-.03.26-1.045 1.35-2.58 1.86 -1.87.61-4.866.39-4.866-1.95 0-1.1.89-1.99 1.99-1.99s1.99.89 1.99 1.99c0 .53-.24 1.05-.59 1.41 .32-.01 1.51-.1 2.638-1.02 .12-.13.2-.23.23-.29 0-.02.02-.05.02-.08 0-.24-1.29-2.09-3.955-2.61Zm-.36 1.42c-.625 0-1.14.5-1.14 1.13 0 .625.5 1.13 1.13 1.13 .62 0 1.13-.51 1.13-1.14 0-.63-.51-1.14-1.14-1.14Zm5.44 1.18Z"/></svg>