<svg viewBox="0 0 24 24" xmlns="http://www.w3.org/2000/svg"><path d="M12 0v0C5.37 0 0 5.37 0 12v0c0 6.62 5.37 12 12 12v0c6.62 0 12-5.38 12-12v0c0-6.63-5.38-12-12-12ZM9.426 7.12v0c.67 0 1.35.13 1.98.38v1.18h0c-.69-.39-1.47-.58-2.25-.57v0c-1-.04-1.95.36-2.625 1.08v0c-.71.8-1.07 1.84-1.02 2.9h0c-.06 1 .28 1.99.94 2.75v0c.63.68 1.54 1.05 2.48 1.02v0c.86.02 1.71-.2 2.46-.64l-.01 1.08v0c-.82.39-1.72.58-2.625.55v0c-1.22.05-2.39-.42-3.23-1.3h0c-.84-.94-1.27-2.16-1.22-3.41v0c-.06-1.36.43-2.68 1.36-3.67v0c.91-.94 2.17-1.44 3.47-1.4V7.06c.03-.01.07-.01.12-.01v0c.04-.01.08-.01.12 0Zm5.86.15h.83l-.56 2.652h1.66l.56-2.66h.81l-.56 2.65 1.73-.01 -.15.69h-1.73l-.42 1.98h1.85l-.18.69H17.3l-.58 2.625h-.83l.56-2.625h-1.65l-.56 2.625h-.81l.55-2.625h-1.74l.13-.7h1.74l.4-1.98h-1.83l.13-.7h1.82Zm.14 3.34l-.44 1.98h1.67l.42-1.98Z"/></svg>