<svg viewBox="0 0 24 24" xmlns="http://www.w3.org/2000/svg"><path d="M.803 14.81c0-.54.43-.97.96-.97s.96.43.96.96 -.44.96-.97.96c-.54 0-.97-.44-.97-.97m2.73 0c0-.2-.06-.38-.12-.56 -.24-.71-.88-1.22-1.66-1.22 -.13 0-.24.04-.36.07 -.81.16-1.42.84-1.42 1.69 0 .97.79 1.76 1.76 1.76s1.76-.8 1.76-1.77M1.7 7.61c.53 0 .96.43.96.96s-.44.96-.97.96c-.54 0-.97-.44-.97-.97 0-.54.43-.97.96-.97m0 2.73c.97 0 1.76-.8 1.76-1.77 0-.2-.06-.38-.12-.56 -.24-.71-.88-1.22-1.66-1.22 -.13 0-.24.04-.36.07C.49 7-.12 7.68-.12 8.53c0 .97.79 1.76 1.76 1.76m13.22-5.7c-.54 0-.97-.44-.97-.97v0c-.01-.54.43-.97.96-.97 0-.01 0-.01 0 0 .53 0 .96.43.96.96s-.44.96-.97.96m-9.6 16.51c-.54 0-.97-.44-.97-.97 0-.54.43-.97.96-.97v0c.53-.01.96.43.96.96 0 0 0 0 0 0 0 .53-.44.96-.97.96m9.6-19.25c-.98 0-1.77.79-1.77 1.76 0 .2.05.4.11.58L4.85 18.37c-.81.16-1.42.84-1.42 1.69 0 .97.79 1.76 1.76 1.76s1.76-.8 1.76-1.77c0-.2-.06-.38-.12-.56l8.34-14.28c.77-.19 1.36-.86 1.36-1.69 0-.98-.8-1.77-1.77-1.77m7.24 2.73c-.54 0-.97-.44-.97-.97v0c-.01-.54.43-.97.96-.97 0-.01 0-.01 0 0 .53 0 .96.43.96.96s-.44.96-.97.96m-9.6 16.51c-.54 0-.97-.44-.97-.97h0c-.01-.54.43-.97.96-.97 0-.01 0-.01 0 0 .53 0 .96.43.96.96s-.44.96-.97.96M21.95 1.7c-.98 0-1.77.79-1.77 1.76 0 .2.05.4.11.58l-8.31 14.22c-.81.16-1.42.84-1.42 1.69 0 .97.79 1.76 1.76 1.76s1.76-.8 1.76-1.77c0-.2-.06-.38-.12-.56L22.3 5.1c.77-.19 1.36-.86 1.36-1.69 0-.98-.8-1.77-1.77-1.77"/></svg>