<svg viewBox="0 0 24 24" xmlns="http://www.w3.org/2000/svg"><path d="M6.3 5.58l.391 1.67h-6.7s.112.5.167.55c.168.27.33.61.559.83 1.06 1.22 2.9 1.73 4.4 2 1.06.22 2.12.28 3.181.33l1.22 3.29h.67l.391 1.061h-.56l-.95 3.07h9.321l-.95-3.07h-.56l.39-1.061h.67s.55-3.404 2.28-4.97c1.67-1.57 3.74-1.79 3.74-1.79V5.53H6.26ZM15.67 14c-.45.27-.95.27-1.29.5 -.23.11-.34.44-.34.44 -.23-.51-.51-.67-.84-.79 -.34-.12-.95-.06-1.79-.782 -.56-.51-.62-1.18-.56-1.51v-.17c0-.06 0-.12.05-.17 .11-.34.39-.67.94-.9 0 0-.39.55 0 1.11 .22.33.67.5 1.061.27 .16-.12.27-.34.33-.51 .11-.39.11-.79-.23-1.06 -.51-.45-.62-1.06-.28-1.46 0 0 .11.5.61.44 .33 0 .33-.12.22-.23 -.06-.17-.782-1.23.27-2.01 0 0 .66-.45 1.45-.391 -.45.05-.95.33-1.12.782v.05c-.17.44-.06.94.27 1.39 .22.33.5.61.61 1.06 -.17-.06-.28 0-.391.11v0c-.13.13-.17.32-.12.5 .05.11.16.22.27.22h.16c.16-.06.27-.28.22-.45 .11.11.16.39.11.55 0 .16-.12.33-.17.44 -.06.11-.17.22-.23.33 -.06.11-.12.22-.12.33 0 .11 0 .27.05.39 .22.33.67 0 .782-.28 .16-.34.11-.73-.12-1.061 0 0 .39.22.67 1 .22.67-.17 1.45-.62 1.73Z"/></svg>