<svg viewBox="0 0 24 24" xmlns="http://www.w3.org/2000/svg"><path d="M5.283 9.03c-.05-.36.42-.74.87-1.06 .63-.46 1.68-.82 2.89-.97 1.093-.13 2.099-.05 2.81.18 .63.2 1.263.5 1.31.9 .04.4-.5.83-1.06 1.18 -.65.39-1.61.7-2.71.83 -1.21.14-2.31.02-3.03-.27 -.51-.21-1.053-.48-1.1-.83Zm16.77-1.55c.36-.03.74.61 1.05 1.21 .43.86.77 2.24.87 3.81 .08 1.42-.04 2.715-.31 3.62 -.24.79-.57 1.58-.99 1.61 -.42.02-.84-.72-1.17-1.47 -.38-.87-.67-2.14-.75-3.57 -.1-1.57.06-2.98.39-3.89 .23-.64.52-1.32.89-1.35Zm-8.16 6.44c-.03-.34.36-.68.72-.95 .52-.4 1.36-.68 2.33-.74 .87-.06 1.67.08 2.23.34 .49.23.98.55 1.01.93 .02.38-.43.76-.89 1.05 -.53.33-1.31.57-2.18.63 -.97.06-1.84-.12-2.41-.43 -.4-.23-.83-.51-.85-.85Zm4.26-7.53c.28.17.34.68.35 1.14 .02.65-.24 1.5-.74 2.32 -.46.74-1.03 1.31-1.57 1.62 -.48.27-1.02.48-1.35.28 -.33-.2-.38-.782-.36-1.33 .02-.63.27-1.4.73-2.14 .5-.83 1.14-1.44 1.73-1.71 .41-.2.89-.38 1.18-.21ZM.375 6.19c.29-.17.77.04 1.18.25 .58.31 1.22.96 1.722 1.83 .44.78.685 1.58.7 2.21 .01.56-.05 1.15-.39 1.34 -.34.19-.88-.06-1.35-.36 -.54-.34-1.11-.96-1.56-1.74C.17 8.85-.06 7.97-.03 7.3c.02-.47.085-.984.38-1.16Zm11.85 4.283c.32.18.34.82.32 1.4 -.04.82-.4 1.94-1.06 3.06 -.593 1.01-1.31 1.814-1.96 2.27 -.58.4-1.23.75-1.59.54 -.37-.22-.375-.95-.31-1.65 .08-.8.44-1.82 1.03-2.83 .65-1.12 1.45-1.98 2.15-2.41 .49-.31 1.06-.6 1.38-.41Z"/></svg>