<svg viewBox="0 0 24 24" xmlns="http://www.w3.org/2000/svg"><path d="M11.998 0C5.358 0 0 5.36 0 12v-.001c-.01 6.62 5.36 11.99 11.98 12 0 0 .01 0 .01 0 6.63 0 12-5.37 12-12 -.01-6.633-5.42-12-12.002-12ZM6.36 14.57c.39.52.91.74 1.657.74 .35 0 .69-.05 1-.18 .3-.13.65-.31 1.09-.57l1.22 1.74c-1.01.83-2.138 1.22-3.45 1.22 -1.048 0-1.92-.22-2.705-.66H5.17c-.77-.45-1.38-1.12-1.75-1.92 -.4-.83-.62-1.79-.62-2.93 0-1.09.21-2.1.61-2.923l0-.001c.37-.83.98-1.53 1.74-2.01 .74-.48 1.657-.7 2.66-.7 .69 0 1.35.08 1.87.3v-.001c.58.22 1.13.55 1.61.96l-1.23 1.65v0c-.32-.23-.65-.42-1.01-.57 -.31-.13-.7-.18-1.048-.18 -1.49 0-2.23 1.13-2.23 3.44 -.05 1.18.17 2 .524 2.532h-.01Zm12 2.705c-.44 1.35-1.1 2.35-2.01 3.09 -.92.74-2.138 1.13-3.67 1.26l-.31-2.05c1-.14 1.74-.35 2.22-.7 .17-.13.52-.53.52-.53L11.48 6.73h3.01l2.09 8.683L18.8 6.73h2.92l-3.41 10.51Z"/></svg>