<svg viewBox="0 0 24 24" xmlns="http://www.w3.org/2000/svg"><path d="M17.48 10.112v3.88h-1.11v-3.89h1.11Zm-1.93-.04v.78h-2.24c-.07 0-1.06.04-1.06 1.173 0 .92.69 1.17 1.06 1.17h2.22v.78h-2.42c-.15 0-.65-.02-1.12-.27 -.61-.32-.92-.88-.92-1.66 0-.83.34-1.42 1.01-1.75 .48-.24.98-.26 1.04-.26h2.39Zm-12.63-.01c.14 0 .64.01 1.12.26 .6.31.91.87.91 1.66 0 .82-.35 1.41-1.02 1.74 -.49.24-.99.25-1.05.25H-.03V10.04H2.89Zm18.19-.07c.05 0 .11 0 .17 0 .5.04.74.23.78.25 .19.15.38.47.49.67 .17.35.34.71.51 1.077 .25.53.58 1.24.9 1.97h-1.2l-.13-.28 -.03-.07 -.22-.46h-2.65l-.22.45 -.03.06 -.13.27h-1.2c.32-.74.65-1.44.9-1.98 .16-.36.33-.7.51-1.077 .1-.21.29-.53.49-.68 .03-.03.27-.22.78-.26 .05-.01.11-.01.17-.01h.02Zm-13.094 0c.05 0 .11 0 .17 0 .5.04.74.23.78.25 .19.15.38.47.49.67 .17.35.34.71.51 1.077 .25.53.58 1.24.9 1.97h-1.2l-.13-.28 -.03-.07 -.22-.46H6.63l-.22.45 -.03.06 -.13.27h-1.2c.32-.74.65-1.44.9-1.98 .16-.36.33-.7.51-1.077 .1-.21.29-.53.49-.68 .03-.03.27-.22.78-.26 .05-.01.11-.01.17-.01h.02Zm-5.291.85H1.07v2.34h1.65c.06-.01 1.06-.05 1.06-1.173 0-.93-.7-1.18-1.065-1.18Zm18.37.02c-.21 0-.28.09-.33.15h-.001c-.06.09-.11.19-.15.29l-.2.43 -.03.06 -.02.03 -.03.06 -.2.43 -.02.03 -.03.05h1.96s-.37-.81-.51-1.13c0 0-.12-.26-.15-.3 -.05-.06-.13-.16-.33-.16ZM8 10.862c-.21 0-.28.09-.33.15H7.66c-.06.09-.11.19-.15.29l-.2.43 -.03.06 -.02.03 -.03.06 -.2.43 -.02.03 -.03.05h1.96l-.24-.53 -.03-.07 -.24-.54s-.12-.26-.15-.3c-.05-.06-.13-.16-.33-.16Z"/></svg>