<svg viewBox="0 0 24 24" xmlns="http://www.w3.org/2000/svg"><path d="M18.281 8.572c-.18-1.68-.93-3.14-2.11-4.18v0c-1.16-1.02-2.64-1.58-4.18-1.58 -1.54 0-3.026.56-4.176 1.57 -1.178 1.04-1.93 2.5-2.104 4.173v0c.32-.07.65-.11.98-.11v0c1.85-.01 3.52 1.11 4.24 2.82l2.1-.01v0c.7-1.72 2.38-2.84 4.241-2.83v0c.33 0 .66.03.98.1ZM3.62 16.49L1.4 22.58H-.02l2.662-7.33H2.65c-.18-.34-.32-.69-.41-1.05H2.23c-.1-.38-.15-.77-.15-1.16v0c-.01-.8.19-1.59.57-2.29H2.65c.37-.68.91-1.25 1.57-1.65 .08-2.21.94-4.18 2.43-5.6v0c1.42-1.37 3.32-2.13 5.3-2.13 1.97 0 3.87.76 5.305 2.13 1.48 1.41 2.34 3.388 2.42 5.59l0 0c.65.39 1.2.96 1.57 1.64 .38.69.57 1.47.57 2.28 0 .39-.05.78-.15 1.15 -.1.36-.23.71-.41 1.04l2.66 7.32h-1.42l-2.22-6.1c-.41.36-.88.64-1.39.843h-.001c-.55.2-1.12.31-1.7.31v0c-1.17-.01-2.28-.45-3.14-1.23 -.827-.77-1.35-1.814-1.45-3.01h-1.44c-.11 1.19-.62 2.24-1.45 3H9.71c-.86.78-1.97 1.22-3.13 1.23v0c-.59 0-1.16-.11-1.7-.31h0c-.51-.2-.98-.49-1.39-.843Zm11.2-3.45v0c-.02 1.35 1.08 2.47 2.44 2.48 .01 0 .03 0 .04-.01v0c1.36-.01 2.46-1.12 2.46-2.48 -.01-1.37-1.12-2.47-2.48-2.47v0c-1.37-.01-2.47 1.09-2.47 2.45 -.01 0-.01 0-.01 0Zm-10.589.01v0c-.01 1.36 1.09 2.46 2.45 2.47 0 0 0 0 .01 0h0c1.36 0 2.47-1.11 2.47-2.47 0-.01 0-.01 0-.01v0c0-1.37-1.11-2.47-2.47-2.48 -.01-.01-.01-.01-.01 0v0c-1.37-.01-2.47 1.09-2.47 2.45 -.01 0-.01 0 0 .01Zm5.64 6c.03-.43.32-.71.7-.71v0c.37-.02.69.27.7.65 0 .01 0 .03 0 .05v2.82 0c.01.37-.28.69-.66.7 -.02 0-.04 0-.06 0 -.38-.01-.673-.29-.71-.71v-2.83Zm2.824 0c.03-.43.32-.71.7-.71v0c.37-.02.69.27.7.65 0 .01 0 .03 0 .05v2.82 0c.01.37-.28.69-.66.7 -.02 0-.04 0-.06 0 -.38-.01-.673-.29-.71-.71v-2.83Zm2.82 1.41c.03-.43.32-.71.7-.71v0c.37-.02.69.27.7.65 0 .01 0 .03 0 .05v1.41 0c.01.37-.28.69-.66.7 -.02 0-.04 0-.06 0 -.38-.01-.673-.29-.71-.71v-1.42Zm-8.47 0c.03-.43.32-.71.7-.71v0c.37-.02.69.27.7.65 0 .01 0 .03 0 .05v1.41 0c.01.37-.28.69-.66.7 -.02 0-.04 0-.06 0 -.38-.01-.673-.29-.71-.71v-1.42Z"/></svg>