<svg viewBox="0 0 24 24" xmlns="http://www.w3.org/2000/svg"><path d="M0 0v24h24V0Zm11.83 1.503l0 0c5.83-.13 10.66 4.49 10.78 10.32 0 .07 0 .15 0 .22 .06 5.76-4.68 10.5-10.56 10.5v0c-5.81 0-10.53-4.7-10.56-10.5v0c0-5.53 4.25-10.12 9.77-10.53v-.001c.18-.02.37-.03.56-.03ZM2.4 9.233c-.001 0 .18 1.2.18 2.82 0 1.56-.18 2.76-.18 2.76h2.04c.66 0 1.86-.48 1.86-2.76 -.06-2.34-1.2-2.82-1.86-2.82Zm4.68 0s-.12 1.44-.42 2.82c-.3 1.32-.72 2.76-.72 2.76h1.8s-.06-.24 0-.72 .18-.72.18-.72h.84s.12.3.18.72c.06.48 0 .72 0 .72h3.42s-.12-.36-.18-.96 0-.96 0-.96 .24.36.48.96c.18.6.18.96.18.96h1.98s-.3-.66-.72-1.38c-.42-.72-.66-1.08-.66-1.08s.96-.3.96-1.56v-.3c.12-.06.42-.12.9-.12 0 0 .06 1.02 0 1.98s-.18 2.52-.18 2.52h1.8s-.12-1.56-.18-2.52 0-1.98 0-1.98 .48 0 .96.18V9.41c.18.36.72 1.5.96 2.64 .3 1.44.12 2.76.12 2.76h1.8s-.18-1.38.12-2.76 1.08-2.82 1.08-2.82h-1.62l-.42 1.62 -.42-1.62h-4.98v.96 0c-.17-.54-.64-.93-1.2-.96h-2.52s.18 1.02.18 2.82c0 1.08-.06 1.92-.12 2.34 -.18-.54-.42-1.44-.6-2.34 -.3-1.32-.42-2.82-.42-2.82Zm5.16.96s.6 0 .6.72c.06.72-.6.72-.6.72Zm-8.187.11c.15-.01.74.05.74 1.68 0 1.92-.78 1.68-.78 1.68v-3.36s.01-.01.03-.01Zm4.346.06l.36 1.86h-.718Z"/></svg>