<svg viewBox="0 0 24 24" xmlns="http://www.w3.org/2000/svg"><path d="M20.89 7.71c0-.15-.15-.3-.36-.36l-2.51-.93c-.42-.18-.9.02-.9.32v10.48c0 .14.14.32.29.38l2.56.92c.38.14.89-.06.89-.39Zm-4.68-3.67c0-.15-.15-.3-.36-.36l-2.51-.93c-.42-.18-.9.02-.9.32v6.37c0 .14.14.32.29.38l2.56.92c.38.14.89-.06.89-.39Zm0 11.46c0-.15-.15-.3-.36-.36l-2.51-.93c-.42-.18-.9.02-.9.32v6.37c0 .14.14.32.29.38l2.56.92c.38.14.89-.06.89-.39Zm-4.68 1.28c0-.15-.15-.3-.36-.36l-2.51-.93c-.42-.18-.9.02-.9.32v6.79c0 .14.14.32.29.38l2.56.92c.38.14.89-.06.89-.39Zm0-15.46c0-.15-.15-.3-.36-.36L8.66.03c-.42-.18-.9.02-.9.32v6.79c0 .14.14.32.29.38l2.56.92c.38.14.89-.06.89-.39Zm-4.68.26c0-.15-.15-.3-.36-.36L3.98.29c-.42-.18-.9.02-.9.32v21.74c0 .14.14.32.29.38l2.561.92c.38.14.89-.06.89-.39Z"/></svg>