<svg viewBox="0 0 24 24" xmlns="http://www.w3.org/2000/svg"><path d="M10.023 17.416v-.001c-1.28.59-2.64.99-4.03 1.19l-.8.11 .4-.7 -.001 0c.26-.46.5-.93.72-1.41v0c.84-1.85 1.31-3.84 1.38-5.855l.01-.33 .32-.05v-.001c2.54-.35 4.96-1.31 7.04-2.801v0c1.07-1.29 1.89-2.77 2.42-4.356v0c-2.48 3.42-6.34 5.57-10.55 5.86l-.67.04 .01.66H6.27C6.32 11.91 5.89 14.04 5 16h0c-.48 1.05-1.09 2.04-1.81 2.95l-.88 1.1 1.412.02H3.72c2.12.02 4.23-.39 6.2-1.21v0c.03-.51.04-1.02.03-1.52Zm8.197-6.44c.53-1.19 1.09-4.145 1.06-4.366l-.001 0c-.56 1.04-1.22 2.02-1.98 2.92 -.11.29-.23.58-.36.87v0c-.94 2.06-2.35 3.87-4.13 5.28q.11.8.14 1.61h0c2.28-1.6 4.09-3.79 5.25-6.32Zm3.32-.77q.02-.24.03-.48v0c.17-2.75-.38-5.49-1.6-7.95l-.89-1.79 -.42 1.95V1.93c-.97 4.54-4.1 8.33-8.378 10.15l-.62.25 .23.62v0c.75 2 1.03 4.16.82 6.3h-.001c-.12 1.15-.37 2.29-.75 3.38l-.47 1.33 1.34-.45 -.001-.001c5.89-1.94 10.07-7.18 10.67-13.35ZM12.44 21.392l-.72.36 .15-.79v-.001c.1-.52.17-1.04.22-1.56l0-.001c.19-2.02-.01-4.05-.59-5.99l-.1-.32 .29-.15 0 0c3.27-1.64 5.86-4.37 7.33-7.72l.45-1.05 .27 1.1V5.26c.38 1.55.5 3.16.35 4.767v0c-.45 4.84-3.36 9.12-7.7 11.32Z"/></svg>