<svg viewBox="0 0 24 24" xmlns="http://www.w3.org/2000/svg"><path d="M21.18 8.02c1.064.19 1.93.34 2.13.79 .22.51-.94.54-1.52.55 -2.8.05-4.49.11-4.58 1.061 -.11 1.22 1.19 2.45 2.48 4.18 1.17 1.57 2.51 3.13 2.13 4.58 -.49 1.8-2.7 2.192-4.82 2.192 -2.03 0-3.94-.33-4.75-.49 -1.01-.2-.86-.7-.59-.86 .29-.18 2-.19 3.18-.26 .97-.06 3.8-.06 4.24-.79 .54-.89-.79-2.41-2.01-4.01 -1.52-1.984-3.19-4.04-2.31-5.54 1.14-1.94 4.48-1.81 6.35-1.47M7.41 10.9c1.77-.11 3.92.2 5.13 1.13v0c.69.53 1 1.43.78 2.27 -.7 2.75-3.31 6.08-9.1 8.64 -1.85.81-3.29 1.125-3.6.9 -.33-.24.62-2.06.9-2.66 .92-1.96 2.07-3.86 3.2-5.6 .41-.64 1.05-1.76 1.63-1.67 .51.08-.09 1.26-.49 2.01 -.68 1.26-2.53 4.76-1.912 4.96 1.35.46 7.68-4.36 6.74-7.04 -.44-1.25-3.19-1.37-4.92-1.37 -.79 0-2.508.18-2.61-.42 -.11-.56 2.61-1.12 4.19-1.22m4.37-10.97c2.06-.1 4.51.34 4.97 1.8 .74 2.39-3.05 5.87-6.34 7.58 -.81.42-1.3.53-1.51.5 -.2-.03-.23-.23-.17-.36 .11-.26.65-.77 1.36-1.33 3.71-2.91 4.92-5.03 4.22-5.9 -.45-.552-2.34-.937-4.29-.937 -.53 0-1.93.123-2.07-.367 -.12-.41 1.75-.94 3.8-1.03"/></svg>