<svg viewBox="0 0 24 24" xmlns="http://www.w3.org/2000/svg"><path d="M19.57 17.04l-2-1.32 -1.67 2.78 -1.94-.57 -1.71 2.6 .08.82 9.27-1.71 -.54-5.8Zm-8.649-2.5l1.48-.21c.24.1.4.15.69.22 .45.11.97.23 1.74-.16 .18-.09.55-.43.7-.625l6.09-1.11 .62 7.52 -10.45 1.88Zm11.32-2.72l-.61.11L20.471-.02 .77 2.27l2.42 19.693 2.306-.34c-.19-.27-.48-.59-.96-.99 -.68-.57-.44-1.53-.04-2.13 .53-1.03 3.26-2.33 3.106-3.96 -.06-.6-.15-1.37-.702-1.9 -.02.22.01.43.01.43s-.23-.29-.34-.69c-.12-.15-.2-.2-.32-.4 -.09.23-.08.5-.08.5s-.19-.44-.22-.81c-.11.16-.14.48-.14.48s-.25-.69-.19-1.07c-.11-.33-.44-.97-.35-2.43 .6.42 1.92.32 2.44-.44 .17-.26.28-.94-.09-2.293 -.24-.87-.835-2.16-1.07-2.651l-.03.02c.12.395.37 1.22.47 1.62 .29 1.218.37 1.64.23 2.2 -.12.48-.4.8-1.11 1.16 -.71.35-1.66-.52-1.713-.57C3.7 7.14 3.16 6.25 3.1 5.81c-.07-.48.27-.77.44-1.16 -.25.07-.52.19-.52.19s.32-.34.72-.63c.16-.11.26-.18.43-.33l0 0c-.16-.01-.31-.01-.46 0 0 0 .42-.23.85-.4 -.32-.02-.63-.01-.63-.01s.93-.42 1.678-.73c.5-.21 1-.15 1.28.25 .367.53.75.81 1.56.996 .5-.23.65-.34 1.28-.51 .55-.61.99-.69.99-.69s-.22.19-.28.51c.31-.25.66-.46.66-.46s-.14.16-.26.42l.03.04c.36-.22.79-.4.79-.4s-.13.15-.27.35c.27-.01.83.01 1.05.03 1.28.02 1.55-1.374 2.045-1.55 .61-.22.89-.353 1.94.68 .9.88 1.6 2.477 1.25 2.83 -.3.29-.88-.12-1.52-.92v0c-.37-.46-.62-.99-.72-1.57V2.75c-.07-.34-.25-.63-.5-.85 0 0 .23.51.23.96 0 .246.03 1.165.42 1.68 -.04.07-.06.37-.1.43 -.46-.56-1.45-.95-1.61-1.07 .54.44 1.79 1.468 2.27 2.449 .45.92.18 1.77.41 1.99 .06.06.97 1.19 1.15 1.76 .3.99.01 2.03-.39 2.68l-1.12.17c-.17-.05-.28-.07-.42-.16 .08-.15.24-.5.24-.58l-.07-.12c-.35.49-.93.97-1.42 1.24 -.64.359-1.37.3-1.84.15 -1.35-.42-2.63-1.327-2.93-1.57 0 0-.01.19.04.23 .34.38 1.11 1.077 1.87 1.56l-1.61.17 .75 5.9c-.34.04-.39.07-.76.12 -.33-1.15-.95-1.9-1.63-2.34 -.6-.39-1.43-.47-2.22-.32l-.05.05H6.15c.65-.08 1.31.08 1.86.44 .65.41 1.18 1.48 1.375 2.12 .24.82.42 1.7-.25 2.63 -.48.66-1.87 1.02-2.99.23 .3.48.7.87 1.25.95 .8.11 1.57-.03 2.1-.58 .45-.47.69-1.44.62-2.46l.71-.11 .25 1.83 11.82-1.43Zm-7.2-4.982c-.04.07-.09.125-.01.37l0 .01 .01.03 .03.07c.14.28.29.55.55.69 .06-.02.13-.02.2-.03 .24-.01.39.02.49.08 0-.05.01-.12 0-.23 -.02-.37.07-.99-.63-1.31 -.27-.13-.64-.09-.76.06h-.001c.01 0 .03 0 .05.01 .18.06.06.13.02.2m1.95 3.39c-.1-.05-.52-.03-.83 0 -.58.06-1.2.26-1.33.37 -.25.19-.14.52.04.66 .51.38.96.63 1.43.57 .29-.04.54-.5.72-.92 .12-.29.12-.6-.06-.7M11.83 7.21c.16-.16-.81-.36-1.56.15 -.56.37-.58 1.18-.05 1.646 .05.04.09.07.13.1v0c.44-.21.91-.35 1.39-.42 .11-.125.24-.35.21-.75 -.05-.55-.46-.46-.15-.75"/></svg>