<svg viewBox="0 0 24 24" xmlns="http://www.w3.org/2000/svg"><path d="M12 0v0C5.37 0 0 5.37 0 12c0 6.62 5.37 12 12 12 6.62 0 12-5.38 12-12v0c0-6.63-5.38-12-12-12Zm6.52 15.34h-6.03v-.94h6.026Zm-.74-8.73s-.42.54-.2 1.99c.41 2.724-1.02 5.15-3.56 5.15h-1.87s-1.84-.1-2.933 1.01c-3.263 3.269-4.04 4.11-4.274 4.23 -.15.08-.19-.1-.19-.1L14.39 6.99c-.21-2.15 2.34-2.715 3.27-1.13l.88-.25Zm-1.6-.62v0c-.27-.01-.48.2-.49.46 -.01.26.2.47.46.48 .26 0 .47-.21.48-.47 0-.01 0-.01 0-.01v0c-.01-.26-.22-.48-.47-.48Z"/></svg>