<svg viewBox="0 0 24 24" xmlns="http://www.w3.org/2000/svg"><path d="M3.91 10.64c-.46-.39-.88-.55-1.46-.55 -1.46 0-2.47 1.18-2.47 2.89 0 1.72 1.03 2.93 2.49 2.93 .54 0 1.03-.19 1.41-.57v.43h1.18V8.03l-1.18 0v2.57Zm-.14 3.4c-.17.43-.65.73-1.18.73 -.84 0-1.37-.69-1.37-1.76 0-1.12.53-1.81 1.4-1.81 .52 0 1.03.32 1.15.75 .07.21.09.5.09 1.1 0 .47-.04.76-.12.96Zm6.54-.13v-2.06c0-.67-.08-.93-.37-1.23 -.34-.37-.97-.57-1.74-.57 -.79 0-1.58.18-2.33.57l.49.94c.78-.34 1.17-.44 1.71-.44 .72 0 1.02.25 1.03.89v.17c-.95.09-1.27.13-1.65.19 -1.2.23-1.76.75-1.76 1.65 0 1.05.91 1.85 2.11 1.85 .64 0 1.14-.24 1.5-.69 .11.38.43.61.96.68l.6-.92c-.55-.23-.6-.34-.6-1.1Zm-1.2.1c0 .32-.05.45-.22.59 -.22.18-.58.31-.88.31 -.58 0-1.05-.375-1.05-.84 0-.375.24-.6.79-.73 .36-.09.66-.12 1.33-.19v.83Zm5.23.63l.15 1.04c-.39.1-.83.16-1.2.16 -1.11 0-1.54-.46-1.54-1.6v-3.05h-1.02v-1.02h1.01V8.44l1.18-.43v2.14h1.47v1.01h-1.47v2.65c0 .68.14.85.72.85 .19 0 .42-.03.66-.08Zm4.08 0l.15 1.04c-.39.1-.83.16-1.2.16 -1.11 0-1.54-.46-1.54-1.6v-3.05h-1.02v-1.02h1.01V8.44L17 8.01v2.14h1.46v1.01h-1.47l0 2.65c0 .68.14.85.72.85 .19 0 .42-.03.66-.08Zm2.81-4.6c-1.56 0-2.61 1.18-2.61 2.96 0 1.72 1.1 2.91 2.69 2.91 1.56 0 2.64-1.21 2.64-2.92 0-1.76-1.12-2.97-2.75-2.97Zm.04 4.725c-.87 0-1.44-.72-1.44-1.79s.58-1.81 1.45-1.81c.84 0 1.4.71 1.4 1.8 0 1.06-.58 1.78-1.43 1.78Z"/></svg>