<svg viewBox="0 0 24 24" xmlns="http://www.w3.org/2000/svg"><path d="M14.774 8.29l.77-2.596 .79 2.596Zm3.84 2.26l-2.03-6.13c-.05-.14-.1-.23-.16-.266 -.06-.05-.16-.07-.28-.07h-1.12v0c-.1-.01-.2.01-.29.06 -.06.04-.11.13-.15.26l-2.045 6.12c-.03.03-.04.09-.04.19 0 .14.09.22.27.22h.84c.07 0 .13-.01.18-.01v0c.04-.01.08-.03.11-.05v0c.03-.04.05-.08.07-.12 .02-.06.04-.12.07-.21l.31-1.08h2.3l.32 1.05c.02.09.05.16.07.21v0c.02.04.05.08.08.12 .03.02.07.04.11.05h0c.04 0 .1.01.17.01h.89c.18 0 .27-.08.27-.23v0c0-.04-.01-.07-.01-.09v0c-.01-.04-.03-.08-.04-.11l0 0Zm-1 2.46h-.65c-.17 0-.28.02-.34.07 -.06.04-.09.14-.09.29V17l-1.91-3.65c-.08-.16-.16-.26-.23-.3 -.08-.05-.21-.07-.39-.07h-.6c-.17 0-.28.02-.34.07 -.06.04-.09.14-.09.29v6.138c0 .14.02.24.07.29 .05.04.16.07.32.07h.65c.16 0 .27-.03.33-.08 .05-.05.08-.15.08-.3v-3.65l1.91 3.657c.07.15.15.25.22.29 .07.04.2.06.39.06h.59c.16 0 .27-.03.33-.08 .05-.05.08-.15.08-.3V13.3c0-.15-.03-.25-.09-.3 -.06-.05-.17-.08-.34-.08Zm3.2-.59l1.66 1.66v8.38H1.48v-8.39l1.66-1.67h0c.24-.25.24-.65 0-.89L1.47 9.84V1.45h20.991v8.38l-1.67 1.66v-.001c-.25.24-.25.64 0 .89ZM23.97-.03h-24V10.58l1.387 1.38 -1.387 1.38V23.96h24V13.34l-1.39-1.39 1.38-1.39Zm-13.33 18.46H7.93l2.85-4.02 -.001-.001c.03-.05.06-.1.08-.16v0c.01-.05.01-.09.01-.14v-.78c0-.15-.03-.25-.09-.3 -.06-.05-.17-.08-.34-.08H6.31c-.15 0-.25.02-.29.08 -.05.05-.07.16-.07.34v.58c0 .17.02.28.06.34 .04.05.14.08.29.08H8.84l-2.817 4.01h0c-.07.07-.11.17-.11.27v.79c0 .14.02.24.08.29 .05.04.16.07.33.07h4.25c.14 0 .24-.03.29-.09 .04-.06.06-.17.06-.35v-.58c0-.18-.03-.29-.07-.35 -.05-.06-.15-.09-.29-.09ZM9.37 8.19c0 .26-.02.484-.06.66 -.04.17-.1.32-.18.43v0c-.08.1-.2.18-.32.23v0c-.16.04-.33.07-.49.06h-.79V5.4h.79c.36 0 .63.11.79.32 .16.21.24.57.24 1.06v1.38Zm1.38-2.79c-.23-.46-.54-.8-.93-1.013 -.39-.22-.88-.33-1.47-.33H6.37c-.17 0-.28.02-.34.07 -.06.04-.09.14-.09.29v6.138c0 .14.02.24.08.29 .05.04.16.07.33.07h2.21c1.048 0 1.76-.45 2.15-1.35 .09-.21.15-.42.18-.63h0c.03-.27.05-.53.05-.8V6.83c0-.367-.02-.66-.06-.87l-.001-.001c-.04-.22-.1-.42-.2-.62l0 .01Z"/></svg>