<svg viewBox="0 0 24 24" xmlns="http://www.w3.org/2000/svg"><path d="M5.215 8.78h2.154c.601 0 1.08.48 1.08 1.08v4.95c0 .6-.49 1.08-1.088 1.08H6.04V9.44H6.04c0-.06-.03-.1-.07-.13ZM12 23.09v0c-3.37 0-6.56-1.53-8.66-4.16h-.001c-.02-.03-.02-.05 0-.07 0-.01.01-.01.02-.01h5.93v0c.05-.01.1-.02.15-.05l2.27-1.65v0c.04-.04.06-.08.06-.13V7.59h0c0-.06-.03-.1-.07-.13L9.43 5.81h0c-.05-.04-.1-.05-.16-.05H2.84v0c-.03-.01-.05-.03-.05-.05 0-.01 0-.02 0-.03h0C4.85 2.66 8.28.85 11.94.86c3.798 0 7.15 1.907 9.151 4.81l-.001 0c.01.02 0 .04-.02.06 -.01 0-.02 0-.03 0h-1.6c-.06 0-.1.03-.13.07l-.36.75 -1.09-.79v0c-.05-.04-.1-.05-.16-.05h-2.56 0c-.06-.01-.11.01-.16.05l-2.27 1.64V7.4c-.05.03-.07.07-.07.12v9.42c0 .05.02.09.06.12l2.27 1.64v0c.04.03.09.04.15.05h5.371c.03 0 .06.04.03.07l-.001-.001c-2.11 2.62-5.3 4.15-8.66 4.15ZM1.6 8.291l1.03.75c.04.03.06.08.06.13v8.73c0 .04-.06.06-.09.02H2.6C1.47 16.14.87 14.08.87 11.97c0-1.29.22-2.526.62-3.68l-.001 0c0-.03.03-.05.06-.04 0 0 0 0 .01 0Zm13.67.48h3.22v1.77c0 .04.03.08.08.08h2.7v0c.04-.01.08-.04.09-.09l.53-3.38c0-.05.06-.06.08-.02v0c.72 1.5 1.1 3.15 1.1 4.82l-.001 0c0 1.88-.48 3.73-1.39 5.38 -.03.04-.09.02-.09-.03v-3.09 0c0-.05-.04-.09-.09-.09h-2.96v0c-.05 0-.09.03-.09.08v1.64h-1.31v0c-.61 0-1.09-.49-1.09-1.09V9.39v0c0-.06-.03-.1-.07-.13ZM11.992-.02c-6.627 0-12 5.373-12 12 0 6.62 5.373 12 12 12 6.62 0 12-5.38 12-12 0-6.63-5.38-12-12-12Z"/></svg>