<svg viewBox="0 0 24 24" xmlns="http://www.w3.org/2000/svg"><path d="M16.1.69c-1.73-.63-3.49-.8-5.21-.64C8.9.2 7.932.822 7.99.71c-3.26 1.16-6 3.657-7.272 7.15 -2.266 6.23.944 13.12 7.16 15.398 6.228 2.27 13.11-.95 15.37-7.18 2.26-6.24-.95-13.13-7.17-15.4ZM8.3 22.13v-.001c-.65-.25-1.28-.55-1.87-.91 2.9.22 6.686-.45 9.23-2.84 0 0 4.86-3.89 1.34-10.27 0 0 .56 2.57-.16 4.68 0 0-.69 2.87-3.76 3.71 -4.52 1.23-9.664-1.93-11.816-3.47 -.17-1.58-.02-3.2.56-4.788C2.67 5.89 4.28 4.06 6.25 2.83c-.49 3.436-.11 6.6.45 7.92 .74 1.77 2.05 3.85 4.59 4.11 2.54.26 3.94-2.11 3.94-2.11 1.3-1.98 1.5-4.83 1.48-4.9 -.02-.07-.35-.26-.35-.26 -.88 3.54-2.33 4.73-2.33 4.73 -2.28 2.2-3.9.67-3.9.67 -1.74-1.87-.52-4.895-.52-4.895 .68-2.07 2.66-5.09 4.9-6.62 .37.09.75.15 1.12.28l0 0c1.31.48 2.52 1.21 3.55 2.16 -1.65.59-4.291 1.86-4.291 1.86 -4.21 1.77-4.49 4.44-4.49 4.44 -.44 2.75 1.75 1.59 1.75 1.59C14.4 10.7 15.5 7.28 15.5 7.28c-.71-.14-1.26.08-1.26.08 -.9 2.22-2.74 3.13-2.74 3.13 -.73.38-.89-.3-.89-.3 -.13-.51.52-.6.52-.6 1-.39 1.63-1.439 1.78-1.87 .14-.43.41-.47.41-.47h0c.85-.27 1.72-.45 2.61-.54 1.7-.21 4.3.6 4.3.6 .58.23 1.14.41 1.64.55 .95 2.38 1.1 5.09.16 7.7 -2.04 5.61-8.24 8.5-13.85 6.46Z"/></svg>