<svg viewBox="0 0 24 24" xmlns="http://www.w3.org/2000/svg"><path d="M11.986 0C5.74 0 .47 4.84.03 11.167c-.46 6.61 4.52 12.34 11.13 12.804 6.61.46 12.34-4.53 12.8-11.14C24.41 6.22 19.43.48 12.82.02c-.29-.02-.57-.03-.85-.03Zm1.89 3.14c.42 0 .84.02 1.25.07l-.61 1.12 -1.12 2.07 -.76 1.41c-.03.05-.06.07-.12.06 -1.19-.08-2.02.23-2.16.266l.2-.75 1.01-3.77c.02-.09.04-.17.06-.26 .71-.16 1.44-.25 2.2-.25Zm2.54.32c1.19.31 2.29.83 3.27 1.53l-1.8 1.51 -1.72 1.43c-.29.242-.58.48-.87.73 -.05.03-.08.04-.14.01v-.001c-.59-.35-1.23-.59-1.9-.71l.46-.67 1.83-2.651c.27-.4.55-.8.83-1.202Zm-5.699.18c-.02.1-.03.2-.05.29l0 0c-.2 1.1-.39 2.21-.58 3.32 -.06.35-.12.64-.17.99 -.01.06-.06.07-.1.09 -.89.36-1.61 1-1.84 1.23l-.06-.64c-.02-.23-.04-.46-.06-.68 -.02-.24-.04-.47-.06-.71l-.06-.69 -.06-.68 -.06-.71c-.01-.07-.02-.14-.02-.2l0-.01 0-.001c.92-.74 1.96-1.3 3.08-1.67ZM6.85 5.987l.14.63 .52 2.32c.06.29.13.56.19.86v0c0 .03-.01.06-.03.09H7.67c-.39.44-.71.93-.96 1.46l-.28-.56C6 9.91 5.57 9.05 5.14 8.19v0c-.02-.02-.02-.05-.02-.07l.125-.21c.24-.36.49-.72.75-1.06 .19-.26.43-.48.65-.72l.17-.19Zm5.33 2.13c.11 0 .23 0 .35.01 .8.05 1.561.29 2.27.67 .45.24.87.53 1.27.87 .06.05.13.11.2.18l-1.39.95 -3.73 2.54c-.31.21-.62.42-.93.63 -.07.04-.1.08-.08.17 .08.34.14.69.22 1.04 0 .01.01.02.01.04l.62-.13 1.24 2.606c-.15-.02-.29-.05-.42-.06 -.29-.04-.57-.07-.86-.09v0c-.26-.03-.51-.04-.76-.04 -.46.01-.907.03-1.34.19 -.25.08-.46.2-.63.43 -.11-.11-.22-.21-.32-.32v0c-.42-.45-.76-.96-1.02-1.51h0c-.23-.5-.39-1.03-.47-1.57v0c-.07-.43-.09-.86-.06-1.28v-.001c.07-1.05.44-2.06 1.05-2.92l-.001 0c.89-1.28 2.26-2.14 3.8-2.4 .29-.06.59-.08.89-.08Zm-1.39.78c-.03.01-.06.02-.08.03v0c-.55.25-1.06.57-1.53.95h0c-.56.43-1.03.95-1.41 1.55H7.77c-.43.67-.66 1.45-.69 2.253 -.02.48.05.96.17 1.43 .17.67.45 1.3.79 1.9 .03.05.07.05.11.03 .11-.06.23-.12.35-.18l-.04-.07c-.17-.29-.35-.57-.49-.87 -.4-.81-.6-1.65-.52-2.56 .03-.33.08-.66.19-.97 .37-1.13 1.09-2.01 1.98-2.75 .35-.29.72-.548 1.11-.78Zm-6.14.18l.34.46c.5.68 1.01 1.35 1.52 2.03 .03.05.06.09.03.16 -.15.36-.27.83-.32 1.205 -.13-.11-.25-.22-.36-.32l-1.51-1.33c-.12-.11-.24-.21-.35-.32v0c-.02-.02-.03-.04-.03-.06H3.97c.14-.63.35-1.23.61-1.81l.02-.06Zm12.323.59l.13.81c.05.35.11.7.16 1.06l.19 1.19c.03.21.07.43.1.65 .01.05 0 .08-.07.09 -.79.15-1.59.31-2.372.46 -.99.19-1.98.38-2.97.57 -.516.1-1.03.2-1.55.3 -.01 0-.02 0-.04-.01 -.06-.21-.12-.42-.18-.63 -.01-.03.01-.06.03-.08ZM3.83 11.837l.57.35c.56.35 1.14.7 1.71 1.05 .05.03.07.06.07.13 -.01.15-.05.85.03 1.35l-.42-.15c-.68-.24-1.36-.47-2.03-.7H3.76c-.02-.01-.03-.01-.03-.02l-.001-.001c-.04-.69-.01-1.37.09-2.04Zm-.02 2.83c.11.02.23.04.34.06 .69.14 1.38.28 2.08.43 .03 0 .07.04.07.06 .06.28.24.81.25.85h-.41c-.32 0-.63-.01-.95 0 -.37 0-.75.01-1.112.01h-.01v0c-.14-.48-.24-.96-.3-1.44Zm8.24.56c.02 0 .05.02.06.03 .3.3.59.61.91.9 .26.24.55.46.83.69 .39.32.74.69 1.03 1.11 .52.72.89 1.52 1.1 2.39v0c.01.08 0 .17-.04.25 -.09.26-.29.45-.5.62 -.3.24-.63.42-.99.56 -.08.03-.1.01-.14-.06 -.37-.8-.73-1.59-1.096-2.378l-1.487-3.23 -.35-.75 -.02-.06c.21-.05.42-.09.63-.12h0Zm-5.4 1.2c.03 0 .06.01.08.06 .13.23.15.33.43.76l-2.115 1.12c-.26-.45-.48-.93-.67-1.42l.49-.12 1.73-.42v0c.01-.01.03-.01.04-.01Zm3.53 1.41c.11 0 .23 0 .35.01 .53.04 1.07.11 1.6.17 .02 0 .06.03.07.05 .21.46.43.93.64 1.41 .01.02.01.05 0 .07l-.6 1.07c-.42-.08-.83-.15-1.234-.21l0-.001c-.32-.05-.64-.09-.95-.11 -.33-.03-.65-.05-.98-.05 -.55 0-1.09.05-1.61.22l-.05.01 .3-.71c.19-.45.38-.89.57-1.34H8.29c.05-.15.16-.27.3-.34H8.59c.23-.13.49-.21.76-.23 .25-.04.516-.06.77-.06Zm.02.27v0c-.45.01-.9.08-1.33.21h0c-.04.01-.07.04-.09.07 -.17.34-.34.69-.5 1.03 -.06.1-.1.21-.15.31l.02.02c0-.02 0-.03.01-.04 .28-.4.57-.8.85-1.2v0c.02-.04.06-.07.11-.08 .53-.17 1.07-.32 1.64-.28 -.03-.01-.06-.02-.09-.03v0c-.17-.04-.35-.05-.52-.05Z"/></svg>