<svg viewBox="0 0 24 24" xmlns="http://www.w3.org/2000/svg"><path d="M.86 13.054v-2.11h.67v2.1Zm1.29.19v-2.49 0c-.01-.19-.16-.34-.34-.34H-.01v.52H.24v2.1H-.01v.52H1.83v0c.18-.01.32-.16.31-.34Zm1.9-.78v.59h-.72v-.87h.95v-.53H3.32v-.72h.72v.44h.59v-.97H2.47v.52h.23v2.1h-.24v.52h2.16v-1.12Zm1.77-.81v-.72h.69v.71Zm1.33 1.391v-.76 0c0-.19-.15-.34-.34-.34 -.01-.01-.01-.01-.01 0 .19 0 .33-.15.33-.34v-.843c0-.17-.15-.34-.32-.34H4.92v.52h.27v2.1h-.28v.5h1.12v-.53h-.24v-.87h.69v.86h-.26v.52h1.1v-.53Zm4.507-1.391v-.72h.72v.71Zm1.33.19v-1.1h-.001c0-.19-.15-.34-.34-.34 -.01-.01-.01-.01-.01 0H10.77v.52h.25v2.1h-.26v.52h1.1v-.53h-.24v-.87h.99c.19 0 .33-.15.33-.34Zm1.08 1.2v-2.11h.25v-.53h-1.1v.52h.25v2.1h-.26v.52h1.1v-.53Zm2.09-.59v.59h-.72v-.87h.95v-.53h-.952v-.72h.72v.44h.61v-.97h-2.18v.52h.23v2.1h-.24v.52h2.18v-1.12Zm1.73-.81v.52h.48v.86h-.72v-2.11h.72v.44h.63v-.64 0c0-.19-.15-.34-.34-.34 -.01-.01-.01-.01-.01 0h-1.27v0c-.08 0-.16.03-.22.08 -.07.06-.13.14-.13.25v2.48 -.001c-.01.1.04.19.12.25v0c.06.05.14.08.23.08h1.58v-1.92Zm2.98.8v.59h-.72v-.87h.95v-.53h-.96v-.72h.72v.44h.61v-.97h-2.18v.52h.23V13h-.24v.52h2.18V12.4Zm2.47 0v.59h-.7v-2.11h.25v-.53h-1.13v.52h.25v2.1h-.26v.52h2.18v-1.12Zm-12.846.8v-1.6h-1.32v-.73h.69v.44h.63v-.64c0-.21-.19-.34-.39-.34H8.85v0c-.19-.01-.34.14-.34.33 -.01 0-.01 0 0 0v1.44h1.31v.87h-.7v-.6H8.5v.76c0 .19.14.34.33.34h1.24c.19 0 .36-.13.36-.32Z"/></svg>