<svg viewBox="0 0 24 24" xmlns="http://www.w3.org/2000/svg"><path d="M18.22 4.31c.22-.42.34-.9.34-1.403v0c-.01-1.62-1.31-2.92-2.92-2.92 -1.37 0-2.53.94-2.84 2.218 -.28-.02-.55-.04-.82-.04 -5.58 0-10.1 4.513-10.1 10.1 0 2.74 1.1 5.23 2.87 7.04H4.74c-.39.5-.59 1.11-.59 1.75v0c0 1.61 1.3 2.91 2.91 2.91 1.24 0 2.29-.782 2.72-1.87v0c5.44 1.2 10.82-2.24 12.03-7.68 .15-.72.23-1.46.23-2.19v-.001c.01-3.12-1.42-6.06-3.88-7.952Zm-2.56.38c-.17 0-.31-.02-.45-.07L14 8.14l1.77-.29 -2.49 4.06 2.07-.52 -7.01 8.34c.35.31.55.78.55 1.3v0c0 .98-.8 1.78-1.78 1.78 -.01 0-.01 0-.01 0 -.99 0-1.79-.8-1.79-1.79s.79-1.79 1.78-1.79c.22 0 .44.04.65.13l1.97-4.33 -1.94.52 3.14-4.5 -1.94.46 5.47-7.29c-.4-.34-.64-.83-.64-1.38 0-.99.79-1.785 1.78-1.785 .98 0 1.78.796 1.78 1.785 0 .97-.8 1.77-1.79 1.77Z"/></svg>