<svg viewBox="0 0 24 24" xmlns="http://www.w3.org/2000/svg"><path d="M19.69 13.419h-2.53l-2.667-4.555h0c.6-.13 1.04-.67 1.03-1.28v-3.43c0-.73-.58-1.32-1.31-1.32h-4.46c-.73 0-1.32.57-1.32 1.3v3.43c0 .61.42 1.15 1.03 1.28l-2.67 4.555H4.27c-.73 0-1.32.57-1.32 1.3v3.43c0 .72.57 1.31 1.3 1.31h4.458c.72 0 1.31-.58 1.31-1.31v-3.44c0-.73-.58-1.32-1.31-1.32h-.44l2.64-4.523h2.05l2.65 4.523h-.44c-.73 0-1.32.57-1.32 1.3v3.43c0 .72.57 1.31 1.3 1.31h4.45c.72 0 1.31-.58 1.31-1.31v-3.44c0-.73-.58-1.32-1.31-1.32Zm4.31 9.55c0 .56-.46 1.02-1.02 1.02H1.01v-.001c-.57 0-1.02-.46-1.03-1.02V.99C-.02.42.43-.04.99-.04h21.96c.56 0 1.02.459 1.02 1.013Z"/></svg>