<svg viewBox="0 0 24 24" xmlns="http://www.w3.org/2000/svg"><path d="M.07 8.77h3.11c2.67 0 3.72 1.57 3.72 3.237 0 1.69-1.35 3.2-3.91 3.2H.05c-.06 0-.08-.04-.08-.07 0-.04.034-.07.08-.07h.54c.16 0 .28-.11.28-.3v-5.6c0-.15-.07-.3-.3-.3H.01c-.05 0-.07-.03-.07-.07 0-.03 0-.07.07-.07m1.94 6.13c0 .14.06.18.15.18h.82c2.03 0 2.77-1.56 2.77-3.13 0-1.57-.79-3.08-2.5-3.08H2.06c-.12 0-.13.09-.13.14l-.01 5.87Zm5.2-6.14c-.05 0-.1.01-.1.05 0 .03.02.06.06.06h.54c.12 0 .24.08.24.33v5.57c0 .11-.09.29-.25.29h-.55c-.07 0-.07.04-.07.06 0 .01-.01.05.06.05h2.64c.03 0 .09-.01.09-.05s-.01-.08-.08-.08h-.51c-.08 0-.28-.05-.28-.27v-5.66c0-.17.1-.27.28-.27h.49c.04 0 .06-.03.06-.06 0-.04-.03-.07-.09-.07 -.01-.01-2.64 0-2.64-.01Zm4.12 3.22c0-1.79.79-3.23 2.29-3.23 1.46 0 2.29 1.44 2.29 3.22 0 1.78-.76 3.22-2.3 3.22 -1.49 0-2.3-1.45-2.3-3.23m2.29 3.35c2.12 0 3.46-1.51 3.46-3.36 0-1.85-1.33-3.36-3.47-3.36s-3.47 1.5-3.47 3.35c0 1.84 1.38 3.35 3.46 3.35m10.25-.18c-.84.08-1.3-1.29-1.718-1.94 -.32-.49-.99-.98-1.65-1.07 1.08-.07 2.3-.42 2.3-1.65 0-1-.62-1.76-2.88-1.76h-2.61c-.04 0-.07.01-.07.05 0 .03.03.06.06.06h.59c.12 0 .24.08.24.33v5.57c0 .11-.09.29-.25.29h-.59c-.05 0-.07.03-.07.05 0 .01.01.06.06.06h2.76c.03 0 .07-.02.07-.06 0-.04-.03-.07-.08-.07h-.56c-.08 0-.28-.05-.28-.27v-2.64h.28c1.36 0 1.47 1.48 2.14 2.33 .58.72 1.34.82 1.77.82 .18 0 .31-.01.42-.04 .07-.03.08-.16-.05-.14m-4.32-6.28h.4c.68 0 1.8.27 1.8 1.57 0 1.19-.99 1.59-1.91 1.59h-.59v-2.9c0-.17.1-.28.28-.28"/></svg>