<svg viewBox="0 0 24 24" xmlns="http://www.w3.org/2000/svg"><path d="M1.74 11.98C1.74 6.31 6.35 1.7 12.01 1.7c1.82-.001 3.53.48 5.02 1.31l.81-1.49C16.16.57 14.23.02 12.17-.02h-.2C5.38-.01.04 5.28-.03 11.86v.11c0 3.43 1.45 6.53 3.77 8.72l1.18-1.29C2.94 17.52 1.7 14.87 1.7 11.94ZM20.35 3.4l-1.16 1.24c1.9 1.867 3.08 4.46 3.08 7.33 0 5.66-4.61 10.27-10.28 10.27 -1.79 0-3.47-.46-4.922-1.26L6.2 22.5c1.7.93 3.66 1.47 5.75 1.47 6.62 0 12-5.38 12-12 -.01-3.38-1.4-6.42-3.64-8.6Zm-18.4 8.57c-.001 2.87 1.21 5.46 3.14 7.29l1.18-1.28c-1.6-1.52-2.587-3.66-2.587-6.02 0-4.586 3.72-8.32 8.31-8.32 1.48-.001 2.875.39 4.08 1.07l.83-1.53c-1.46-.83-3.14-1.29-4.92-1.29C6.43 1.88 1.92 6.39 1.92 11.94Zm18.37 0c0 4.58-3.73 8.31-8.32 8.31 -1.44 0-2.79-.37-3.97-1.01l-.86 1.51C8.6 21.56 10.24 22 11.98 22c5.54 0 10.055-4.52 10.055-10.06 0-2.81-1.16-5.35-3.02-7.18l-1.19 1.27c1.51 1.5 2.45 3.59 2.45 5.89Zm-1.95 0c0 3.51-2.86 6.36-6.37 6.36v0c-1.05 0-2.09-.26-3.01-.76l-.85 1.5c1.14.62 2.45.97 3.85.97 4.46 0 8.09-3.64 8.09-8.1 0-2.24-.92-4.27-2.4-5.74L16.5 7.46c1.13 1.15 1.83 2.731 1.83 4.47Zm-14.46 0c0 2.3.96 4.38 2.51 5.85l1.17-1.27c-1.21-1.16-1.97-2.79-1.97-4.59 0-3.52 2.85-6.37 6.36-6.37 1.14 0 2.215.3 3.14.83l.83-1.52c-1.18-.67-2.54-1.05-3.974-1.05 -4.47 0-8.092 3.63-8.092 8.09Zm12.52 0c0 2.45-1.987 4.43-4.44 4.43v0c-.72 0-1.43-.18-2.07-.51l-.84 1.48h0c.89.47 1.88.72 2.89.72 3.38 0 6.14-2.76 6.14-6.15 0-1.68-.68-3.2-1.77-4.31l-1.17 1.25c.75.79 1.22 1.87 1.22 3.05Zm-10.59 0c0 1.73.72 3.3 1.88 4.42l1.15-1.26 .01.01c-.84-.81-1.36-1.94-1.36-3.19 0-2.46 1.98-4.44 4.43-4.44 .8 0 1.56.21 2.21.59l.82-1.5V6.59c-.93-.53-1.98-.81-3.04-.81 -3.39-.01-6.141 2.75-6.141 6.14Zm6.68 0c0 .29-.25.53-.54.53 -.3 0-.54-.24-.54-.54 0-.3.24-.54.53-.54 .29 0 .53.24.53.53Zm-3.95 0c0-1.88 1.52-3.41 3.4-3.41 1.87 0 3.4 1.52 3.4 3.4 0 1.87-1.53 3.4-3.41 3.4 -1.88 0-3.41-1.53-3.41-3.41Zm.14 0c0 1.79 1.45 3.24 3.25 3.25 1.795 0 3.25-1.46 3.25-3.26 -.01-1.8-1.46-3.26-3.26-3.26 -1.795 0-3.26 1.45-3.26 3.25Z"/></svg>