<svg viewBox="0 0 24 24" xmlns="http://www.w3.org/2000/svg"><path d="M20.31 4.36v-.001c-1.56-.72-3.2-1.23-4.89-1.52v0c-.04-.01-.07 0-.08.03 -.22.37-.45.86-.61 1.24 -1.85-.28-3.68-.28-5.49 0 -.17-.4-.41-.88-.62-1.25v0c-.02-.03-.05-.05-.08-.04v0c-1.69.29-3.33.8-4.89 1.51v0c-.02 0-.03.01-.04.02C.49 8.98-.36 13.529.06 18.009H.05c0 .02.01.04.03.05 2.05 1.5 4.04 2.42 5.99 3.02v0c.03 0 .06-.01.08-.03 .46-.64.87-1.3 1.226-2v0c.01-.04 0-.09-.04-.11 -.01-.01-.01-.01-.01-.01 -.66-.25-1.28-.55-1.88-.9h-.001c-.04-.03-.05-.07-.03-.11 0-.01.01-.02.01-.03 .12-.1.25-.2.37-.3v0c.02-.02.05-.03.07-.02 3.92 1.79 8.18 1.79 12.06 0v0c.02-.02.05-.01.07 0 .12.09.24.19.37.29v-.001c.03.02.04.07.01.1 -.01 0-.02.01-.03.01v0c-.6.34-1.23.64-1.88.89v0c-.04.01-.06.05-.05.09 0 0 0 0 0 0 .36.69.77 1.36 1.22 1.99v0c.01.02.05.03.08.02 1.96-.61 3.94-1.53 6-3.03h0c.01-.02.02-.04.03-.06 .5-5.177-.84-9.68-3.55-13.67v0c-.01-.02-.02-.03-.04-.03ZM8.01 15.32c-1.19 0-2.16-1.09-2.16-2.42 0-1.34.95-2.42 2.15-2.42 1.21 0 2.17 1.09 2.15 2.41 0 1.33-.96 2.41-2.16 2.41Zm7.97 0c-1.19 0-2.16-1.09-2.16-2.42 0-1.34.95-2.42 2.15-2.42 1.21 0 2.17 1.09 2.15 2.41 0 1.33-.95 2.41-2.16 2.41Z"/></svg>