<svg viewBox="0 0 24 24" xmlns="http://www.w3.org/2000/svg"><path d="M14.58 12h-.001c-.01 1.11-.91 2.02-2.03 2.02 -1.12-.01-2.03-.91-2.03-2.03 0-1.12.9-2.03 2.02-2.03h0c1.11 0 2.02.9 2.02 2.02Zm-5.2-2.01c-1.13 0-2.03.88-2.03 1.99 0 1.11.87 1.984 2 1.984 .31 0 .593-.07.93-.23v-.88c-.3.29-.56.41-.9.41 -.75 0-1.28-.55-1.28-1.32 0-.73.54-1.31 1.24-1.31 .35 0 .62.12.93.42v-.88 0c-.28-.16-.6-.24-.92-.24Zm-3.36 1.545c-.45-.17-.58-.28-.58-.48 0-.24.23-.43.55-.43 .22 0 .4.09.59.3l.38-.51v0c-.31-.28-.71-.43-1.117-.43 -.673 0-1.186.46-1.186 1.08 0 .52.23.79.93 1.04 .29.1.43.17.51.21l0-.001c.13.08.22.23.22.39 0 .3-.25.53-.58.53 -.36 0-.64-.18-.81-.51l-.48.46c.34.5.75.72 1.31.72 .77 0 1.311-.52 1.311-1.25 -.01-.61-.26-.88-1.1-1.19Zm17.972-1.25v-.001c0 .15-.13.28-.29.29v0c-.17 0-.3-.13-.3-.29 -.01-.01-.01-.01 0-.01v-.01 0c-.01-.16.11-.3.27-.31 .15-.01.29.11.3.27 0 .01 0 .02-.01.03Zm-.06 0v0c0-.13-.11-.24-.24-.24 -.01-.01-.01-.01-.01-.01h0c-.13 0-.24.1-.24.23 0 0 0 0 0 0 0 .13.1.23.23.23v0c.12-.01.23-.11.23-.24 -.01-.01-.01-.01-.01-.01Zm-20.47 3.58h.74v-3.81h-.75v3.8Zm12.7-1.25l-1.02-2.56h-.81l1.61 3.9h.39l1.64-3.9h-.81l-1.03 2.55Zm2.16 1.24h2.1v-.65h-1.37v-1.03h1.31v-.65h-1.32v-.85h1.36v-.65h-2.11v3.8Zm5.4-3.56l.11.13h-.1l-.1-.13v.13h-.08v-.34h.1c.08 0 .12.03.12.1 0 .04-.03.08-.08.09Zm-.01-.1c0-.03-.03-.05-.06-.05h-.02v.08h.01c.03 0 .06-.02.06-.05Zm-1.23 2.04l1.19 1.6h-.92l-1.03-1.53h-.1v1.52h-.75v-3.81h1.1c.85 0 1.34.41 1.34 1.12 0 .58-.31.96-.87 1.07Zm.1-1.04c0-.37-.26-.57-.72-.57h-.23v1.15h.21c.47-.01.72-.21.72-.59Zm-19.487.74v0c-.01.56-.26 1.09-.69 1.46 -.37.3-.79.43-1.357.43H-.05v-3.81h1.08c1.2 0 2.04.78 2.04 1.904Zm-.77-.01c0-.37-.16-.718-.42-.95 -.25-.23-.536-.31-1.02-.31h-.2v2.51h.19c.47 0 .78-.1 1.01-.31 .25-.23.41-.593.41-.96Z"/></svg>