<svg viewBox="0 0 24 24" xmlns="http://www.w3.org/2000/svg"><path d="M3.976 2.85C2.316 3.29.59 4.48.11 5.53c-.15.31-.17.88-.04 1.13 .178.35.34.38 1.387.24 .817-.11 1.08-.12 1.98-.06 1.1.07 1.59.21 1.88.52 .17.17 3.75 9.03 3.81 9.418 .11.69-.24 1.31-1.189 2.14 -.8.68-.93.9-.83 1.38 .15.66.5.98 1.11.98 .5 0 2.09-.27 3.29-.55 3.47-.82 6.43-1.93 8.504-3.18 1.94-1.17 3.25-2.56 3.76-3.984 .15-.44.17-.62.18-1.33 0-.98-.11-1.38-.54-1.96 -.86-1.16-1.8-2.01-3.34-2.99 -2.96-1.91-3.78-2.3-6.67-3.215 -2.53-.81-5.36-1.32-7.728-1.4 -1.02-.03-1.15-.02-1.76.14Zm9.41 6.52c1.47.56 2.82 1.47 4.55 3.07 .83.77 1.02 1.07 1.05 1.73 .07 1.23-.6 2.03-2.09 2.5 -.71.22-2.2.53-2.253.47 -.02-.02 0-.13.04-.26s.06-.45.04-.75c-.03-.44-.1-.68-.37-1.32 -.18-.44-.71-1.91-1.18-3.29l-.86-2.5 .22.04c.12.02.48.15.81.27Z"/></svg>