<svg viewBox="0 0 24 24" xmlns="http://www.w3.org/2000/svg"><path d="M23.255 12.667H13.02c-1.06 0-2.1.48-2.7 1.266v-.02l0-.001c-.61.84-1.59 1.35-2.63 1.35v0c-1.8 0-3.26-1.46-3.26-3.26 0-1.8 1.45-3.26 3.25-3.26 1.085 0 2.04.53 2.63 1.35v-.02c.59.77 1.64 1.27 2.692 1.27h10.12c.18-.01.87-.1.84-.99 -.89-5.086-5.88-8.987-11.923-8.987 -3.73 0-7.048 1.48-9.263 3.803 -.36.52.01.68.35.734h6.609c1.05 0 2.1-.5 2.692-1.28v.01l-.001 0c.6-.85 1.58-1.36 2.63-1.36l-.001-.001c1.79.03 3.22 1.51 3.19 3.3 -.04 1.75-1.45 3.16-3.2 3.19h-.001c-1.05-.01-2.03-.51-2.63-1.36v.01c-.6-.78-1.65-1.266-2.692-1.266H2.5l.02 0s-1.068-.06-1.72.859c-.498.8-.859 2.52-.859 3.9 0 1.388.198 2.65.86 3.923 .564.9 1.71.85 1.71.85l-.05 0h7.23c1.05 0 2.1-.49 2.692-1.27v.02 0c.6-.85 1.58-1.36 2.63-1.36v-.001c1.79 0 3.25 1.45 3.25 3.25 -.01 1.79-1.46 3.25-3.26 3.25v0c-1.05-.01-2.03-.51-2.63-1.36v.01c-.6-.78-1.65-1.28-2.692-1.28H3.07c-.33.04-.7.19-.38.7 2.21 2.33 5.555 3.82 9.289 3.82 6.054 0 11.05-3.91 11.926-9.009 -.01-.72-.49-.88-.75-.92"/></svg>