<svg viewBox="0 0 24 24" xmlns="http://www.w3.org/2000/svg"><path d="M8.1 8.683c-1.237 0-1.95 1.72-1.95 2.95 0 .5.12.72.38.72 .69 0 1.87-2.02 2.12-3.27l.06-.33v0c-.21-.06-.42-.09-.625-.09m1.468 5.192H7.74c.08-.48.23-1 .49-1.7h-.03c-.57.95-1.38 1.86-2.391 1.86 -1.05 0-1.577-.68-1.577-2.093 0-2.49 1.29-4.76 4.17-4.76h-.001c.19 0 .38.02.57.05l.3-1.51v-.02 -.001c-.37-.07-.75-.12-1.12-.14l.25-1.237c.91-.1 1.84-.17 2.949-.13Zm10.83 0h-1.8l.65-4.023c.13-.66.04-.91-.26-.91 -.62 0-1.7 1.6-1.96 3.18l-.29 1.75h-1.8l.66-4.023c.13-.66.04-.91-.26-.91 -.62 0-1.68 1.59-1.97 3.13l-.34 1.79h-1.8l.96-5.06v-.04c-.29-.06-.72-.11-1.12-.14l.25-1.24 -.001-.001c.94-.12 1.89-.16 2.84-.13h0c-.13.57-.3 1.14-.51 1.7h.02c.59-1.02 1.237-1.8 2.39-1.8 .77 0 1.29.4 1.29 1.3 0 .16-.04.32-.11.59l.01.01c.59-1.09 1.34-1.91 2.5-1.91 1.27 0 1.55.92 1.3 2.16Zm3.56 1.74s-.26.31-.81.66c-1.06.72-3.17 1.63-6.442.81l-.001-.001c-.3-.08-.6-.16-.9-.25 -2.99-.87-4.756-2-8.74-2.49 -2.705.06-5.45.38-6.958.97 0 0 .4.42.53.59 .06.13.2.53.34.93 .14.43.28.843.28.843s1.699-.9 3.683-1.43c.93-.26 1.93-.41 2.84-.36 3.04.19 5.5 1.76 8.236 3.04 1.88.53 6.51.93 7.814.35 -.02-.03.24-1.3.11-3.724m-.81.66c-1.06.72-3.17 1.63-6.442.81l0 0c-.3-.08-.6-.16-.9-.25 -2.07-.9-4.16-1.85-5-2.49 2.36.36 5.897.73 11.6-.19 0 0 .54.85.73 2.1M.93 16.75l-1 .35s1.14 1.35 1.332 1.79l.28.77s3.6-1.99 8.833-1.686v0c.75.05 1.5.18 2.23.4 0 0-2.135-1.39-2.56-1.53v0c-1.7-.41-3.43-.65-5.17-.71h0c-1.28.35-2.51.83-3.69 1.42 0 0-.15-.43-.29-.85"/></svg>