<svg viewBox="0 0 24 24" xmlns="http://www.w3.org/2000/svg"><path d="M22.903 11.72l-4.53-1.7V4.93v0c-.01-.71-.44-1.34-1.1-1.58L12.58 1.59V1.59c-.39-.15-.81-.15-1.186 0L6.7 3.34H6.7c-.66.24-1.1.87-1.1 1.58V10L1.07 11.69v0c-.66.24-1.1.87-1.1 1.58v5.16c0 .63.36 1.22.933 1.51l4.68 2.34v0c.47.23 1.03.23 1.51 0l4.87-2.44 4.87 2.43v0c.47.23 1.03.23 1.51-.001l4.68-2.35h-.001c.57-.29.93-.88.93-1.51v-5.16c0-.71-.44-1.34-1.1-1.58Zm-6.122-1.66l-3.984 1.49v-3.2l3.984-1.734ZM7.22 4.87L12 3.08l4.78 1.79v.02l-4.79 1.94L7.2 4.89Zm3.93 13.645l-3.984 1.99v-3.71l3.984-1.82Zm0-5.25l-4.79 1.94 -4.79-1.94v-.03l4.78-1.79 4.78 1.79Zm11.25 5.25l-3.99 1.99v-3.71l3.98-1.82Zm0-5.25l-4.79 1.94 -4.79-1.94v-.03l4.78-1.79 4.78 1.79Z"/></svg>