<svg viewBox="0 0 24 24" xmlns="http://www.w3.org/2000/svg"><path d="M24 8.77h-2.468v7.56h-1.43V8.76h-2.47V7.52h6.355Zm-6.852 7.56h-4.821V7.52h4.63v1.24h-3.205v2.49h2.95v1.234h-2.96v2.6h3.39Zm-6.708 0H8.88L4.77 9.85l0 0c-.11-.17-.19-.34-.26-.51h-.04c.03.18.04.59.04 1.21v5.77H3.13V7.51h1.65l3.96 6.32c.16.26.27.44.32.54h.02c-.04-.24-.06-.63-.06-1.19V7.5h1.37Zm-8.703-.7v0c0 .45-.39.82-.87.82 -.01 0-.01-.01-.01-.01v0c-.48 0-.87-.38-.87-.83 -.001-.01 0-.01 0-.01v0c0-.46.38-.83.86-.83h0c.47-.01.86.37.86.82 0 0 0 0 0 0Z"/></svg>