<svg viewBox="0 0 24 24" xmlns="http://www.w3.org/2000/svg"><path d="M16.01 10.71v0c-.11.05-.24.05-.35-.01l-.56-.34v-.001c-.11-.08-.18-.19-.19-.32l-.02-.65V9.38c0-.13.06-.24.16-.3l6.7-3.91L12.34.04V.04c-.12-.06-.25-.09-.38-.09V-.05c-.14-.01-.27.02-.38.08l-9.4 5.12 10.53 6.13c.09.05.17.18.17.29v8.94c0 .11-.08.24-.18.29l-.57.31c-.18.06-.26.04-.37 0l-.57-.32v0c-.11-.07-.17-.18-.18-.3v-7.98 0c-.01-.07-.05-.12-.1-.16L1.63 6.94V17.52c0 .23.16.52.371.64l9.55 5.63c.1.06.23.09.37.08h-.001c.12 0 .25-.03.37-.09l9.55-5.64v0c.21-.15.35-.39.37-.65V6.91Z"/></svg>