<svg viewBox="0 0 24 24" xmlns="http://www.w3.org/2000/svg"><path d="M.936.001V0C.41 0-.01.41 0 .936v22.132c0 .51.42.93.936.93h9.968s-.52-.47-.62-.56h-.001c-.11-.11-.19-.23-.24-.37 -.06-.13-.1-.39-.12-.51 -.02-.13-.06-.23-.11-.34 -.05-.12-.24-.39-.29-.45 -.05-.07-.34-.39-.39-.46 -.06-.07-.06-.15-.04-.2 .02-.06-.02-.1-.09-.18 -.07-.08-.39-.42-.52-.58 -.14-.17-.07-.21-.04-.23 .03-.02.27.13.391.19 .09.04.32.16.43.19 .04.01.07.01.08-.01 .01-.02.26-.37.36-1.03 .11-1.18-.12-1.87-.4-2.46H9.3c-.2-.43-.44-.83-.72-1.21 -.15-.19-.82-.77-.93-.85 -.11-.08-1.4-.92-1.54-1.04 -.15-.12.02-.17.08-.15 .14.06.42.17.55.23 .15.06.91.33 1.05.36 .14.03.12.03.1-.12 -.02-.12-.23-.61-.34-.782 -.11-.18-.56-.82-.859-1.12 -.31-.3-.67-.69-.8-.9 -.14-.22-.7-1.37-.87-1.8v0c-.16-.39-.34-.76-.53-1.12 -.06-.11-.14-.16-.125-.24 0-.09.25.12.36.23 .16.15.38.44.66.86 .27.41.57.68.62.73 .05.05.39.39.44.42 .03.01.04 0 .05-.03 .02-.09 0-.3-.04-.46 -.05-.23-.02-.75-.1-1.02s-.12-.39-.47-1.02c-.36-.63-.74-1.681-1.053-3.35l0-.001c-.2-1.08-.26-2.18-.17-3.27 .01-.17.08-.14.13-.13 .04.01.06.26.06.26s-.02.61.73 2.609c.75 1.99 1.633 2.133 1.71 2.15 .07.01.11 0 .11-.04 0-.05-.22-.9-.14-1.57 .07-.673.23-.95.33-1.04 .07-.07.06-.02.06.19 -.01.07-.01.15 0 .26 .01.42.28.99.28.99s.11.5.32-.67c.29-1.96.01-3-.06-3.274C8.11.79 7.77-.2 6.99-.2Zm15.427 0c-.65 0-.9.997-.98 1.279 -.08.278-.36 1.32-.06 3.27 .2 1.16.32.66.32.66s.27-.57.28-1c0-.11 0-.2 0-.27 -.01-.21-.01-.266.06-.2 .09.09.25.36.33 1.03 .07.67-.14 1.529-.14 1.57 0 .04.03.05.11.03 .07-.02.96-.16 1.7-2.15 .74-2 .72-2.61.72-2.61s.02-.254.06-.264c.04-.01.11-.04.12.12l-.001 0c.09 1.09.03 2.18-.16 3.26 -.32 1.66-.7 2.72-1.06 3.34 -.36.63-.4.75-.47 1.02 -.08.26-.05.79-.1 1.01 -.04.16-.06.37-.04.46 0 .02.02.04.05.02 .05-.03.39-.38.44-.43 .05-.05.35-.32.62-.74s.49-.71.66-.86c.11-.11.35-.32.36-.23 0 .08-.07.13-.125.24 -.06.1-.36.68-.53 1.11 -.17.42-.73 1.57-.87 1.79 -.14.21-.5.59-.8.89 -.31.29-.76.93-.86 1.11 -.1.17-.32.67-.34.782 -.03.15-.05.15.1.11 .14-.04.9-.3 1.05-.37 .13-.06.41-.18.56-.24 .05-.03.22.02.08.14 -.15.12-1.43.96-1.54 1.03 -.11.07-.782.65-.93.84v-.001c-.28.37-.52.78-.72 1.2 -.28.58-.52 1.28-.4 2.45 .1.65.35 1 .36 1.02 .01.02.03.02.08 0 .11-.03.34-.16.43-.2 .11-.06.35-.22.39-.2 .03.01.1.06-.04.22s-.45.5-.52.57c-.07.07-.12.12-.09.17v0c.02.06.01.14-.04.19 -.06.06-.34.39-.391.46 -.05.06-.25.33-.29.44 -.05.11-.09.2-.11.33v0c-.02.17-.06.34-.11.51v0c-.06.13-.14.25-.24.36 -.1.09-.65.56-.65.56h10.25v0c.51-.01.93-.43.93-.95V.75 .75c0-.52-.42-.94-.94-.94ZM8.933 11.49v0c-.05-.01-.09.02-.09.07 -.01 0-.01 0-.01 0 -.02.23-.04.42-.06.64 -.02.25-.05.53.06.78 .11.24.36.66.45.782 .09.12.42.6.51.734 .08.13.3.53.34.6 .04.06.01.06.07.06 .03 0 .04-.18.04-.33 0-.09-.01-.16-.01-.19 0-.5.01-.96-.15-1.44v-.001c-.05-.13-.1-.24-.18-.35 -.13-.17-.26-.34-.39-.5 -.05-.07-.1-.14-.16-.2 -.09-.1-.33-.38-.39-.51 -.04-.1-.06-.2-.09-.21v0c-.01-.01-.01-.01-.01-.01Zm5.91 0l-.001-.001c-.01 0-.01 0-.01 0 -.03 0-.05.11-.09.2 -.06.125-.29.41-.39.5 -.06.05-.11.12-.16.19 -.13.16-.27.32-.39.49v0c-.08.1-.14.22-.18.34 -.17.47-.15.93-.15 1.43 0 .07-.02.51.03.51s.03 0 .07-.07c.03-.07.26-.48.34-.61 .08-.13.42-.62.51-.734v-.001c.16-.26.31-.52.45-.79 .06-.15.08-.3.08-.45v0c-.01-.12-.01-.23-.02-.34 -.02-.22-.04-.41-.06-.65 -.01-.06-.06-.08-.09-.08Zm-4.148 8.504c-.01 0-.01 0-.01.02 0 .03-.02.16-.01.23 0 .08.01.26.03.35 0 .05 0 .14 0 .24v.19c0 .14-.02.41-.14.63 0 0-.04.03-.04.06s.02.04.05.09c.04.08.19.27.24.33 .05.05.15.18.27.08 .04-.04.05-.1.05-.18 0-.12-.04-.29-.06-.5 -.01-.04-.1-.41-.14-.57 -.03-.12-.11-.47-.125-.58 -.02-.07-.08-.28-.09-.32 -.01-.04-.04-.12-.06-.13l-.02-.01Zm2.34 0c-.01 0-.01 0-.02 0 -.03 0-.04.09-.06.13 -.01.03-.08.24-.09.31 -.03.11-.1.46-.13.57 -.04.16-.125.532-.13.56 -.04.33-.12.56 0 .66 .11.09.21-.03.27-.09 .05-.06.2-.25.24-.33 .02-.05.05-.07.05-.1s-.04-.06-.04-.06v0c-.1-.2-.15-.42-.14-.64 0-.06 0-.13 0-.19v0c-.01-.09-.01-.17 0-.25 .01-.09.02-.27.03-.35 0-.08-.02-.21-.02-.24s0-.03-.01-.03Z"/></svg>