<svg viewBox="0 0 24 24" xmlns="http://www.w3.org/2000/svg"><path d="M17.12 7.69c4.3.05 6.808 2.69 3.96 6.3 -1.31 1.66-3.52 3.3-6.465 4.37l-.43.14c-.28.09-.56.17-.83.25 -.64.18-1.26.34-1.87.45 -.65.13-1.27.22-1.87.29 -.43.04-.85.07-1.25.07 -2.75.07-4.806-.68-5.477-2.285 -.81-1.92.83-4.6 4.116-6.63 -2.44.97-6.85 3.27-7.04 6.56v.4 0c.02.34.08.69.19 1.029 .7 2.22 4.003 3.26 8.21 2.89v-.001c.41-.04.83-.09 1.24-.15v-.001c1.26-.2 2.51-.49 3.73-.88 .13-.05.27-.09.41-.14 .28-.09.56-.19.83-.29 3.64-1.33 6.34-3.09 7.92-5.11 .89-1.16 1.36-2.24 1.45-3.19v-.73c-.26-2.41-3.064-3.82-6.88-3.43Zm-2.79-1.2h-.001c.09-.01.19-.02.28-.04 .61-.16.9-.81.93-1.58 .02-.82-.26-1.5-.94-1.6h-.001c-.06-.01-.13-.01-.18 0v0c-.5-.01-.93.32-1.07.79v0c-.1.26-.15.53-.16.81v0c-.03.32.03.65.15.95v0c.15.39.53.65.96.63Zm-.02.27v0c-.24-.01-.48.02-.7.07l.05.07 .1.18 .08.19 .07.2 .04.2 .03.2 .02.21v.42l-.02.21v.21l-.03.21 -.03.21 -.05.21 -.05.21 -.05.2 -.05.2 -.04.2 -.05.19 -.05.18 -.05.18 -.05.17 -.05.16 -.02.1 -.03.11 -.03.12 -.03.13 -.03.14 -.02.11v.02l-.03.15 -.03.15 -.02.16 -.04.17 -.02.16 -.03.16 -.03.17 -.03.16 -.03.17 -.02.17 -.03.17c.04.5.07.92.09 1.16v0c0 .21.06.42.16.61v-.001c.15.19.39.3.64.29v0c.21-.01.42-.08.59-.22v0c.16-.2.26-.44.27-.7 .11-.72.43-3.06.7-4.057 .39-1.45 1.343-4.08-.99-4.28h-.001c-.1-.02-.2-.02-.3-.02Zm-2.83-.75h.01c.9 0 1.32-.83 1.32-1.84 0-1.01-.42-1.85-1.32-1.85h-.02c-.92 0-1.34.831-1.34 1.85 0 1.01.42 1.84 1.33 1.84Zm-1.86 4.27c.08.35.16.67.23.97 .28 1.15.56 3.84.66 4.65 .1.81.38.99.97 1.04 .57-.06.86-.23.96-1.05 .09-.82.38-3.5.65-4.651 .06-.3.15-.62.25-.97 .25-1.06.46-2.32 0-3.11 -.3-.52-.87-.86-1.87-.86s-1.58.34-1.87.85c-.48.8-.27 2.048-.02 3.1ZM8.38 6.44V6.43c.09.02.18.03.28.03H8.65c.42 0 .8-.26.95-.65V5.81c.11-.31.16-.63.15-.96H9.75c-.01-.28-.06-.56-.16-.82h0c-.15-.47-.58-.79-1.07-.79V3.24c-.06-.01-.13-.01-.18 0 -.68.09-.97.77-.94 1.59 .02.782.32 1.43.94 1.58Zm-.29 8.654v0c.01.25.11.5.28.69v0c.16.13.37.21.59.21v0c.25.01.49-.1.65-.3v-.001c.1-.19.15-.4.16-.61l.09-1.16v-.02l-.02-.18 -.03-.18 -.03-.18 -.02-.17 -.02-.18 -.03-.17 -.04-.16 -.03-.17 -.03-.17 -.02-.16 -.03-.16V12l-.03-.12 -.03-.14 -.03-.14 -.02-.13 -.03-.12 -.03-.11 -.04-.17 -.05-.18 -.04-.18 -.05-.19 -.05-.2 -.05-.2 -.05-.23 -.05-.21 -.05-.22 -.04-.22 -.03-.22 -.03-.22 -.02-.22v-.65l.02-.22 .03-.21 .05-.21 .06-.2 .09-.2 .1-.19 .05-.08V6.62c-.23-.06-.47-.08-.7-.08v0c-.1-.01-.2-.01-.3 0 -2.32.2-1.38 2.83-.99 4.27 .27 1.01.59 3.35.7 4.06Z"/></svg>