<svg viewBox="0 0 24 24" xmlns="http://www.w3.org/2000/svg"><path d="M12 24C5.385 24 0 18.61 0 12 0 5.38 5.385 0 12 0c6.61 0 12 5.385 12 12 0 6.61-5.39 12-12 12Zm10.12-10.358c-.35-.11-3.17-.96-6.384-.44 1.34 3.68 1.88 6.68 1.99 7.3 2.3-1.56 3.936-4.02 4.395-6.87ZM16 21.45c-.16-.9-.75-4.032-2.19-7.77l-.07.02c-5.79 2.01-7.86 6.02-8.04 6.4 1.73 1.35 3.92 2.16 6.29 2.16 1.42 0 2.77-.29 4-.82ZM4.38 18.87c.23-.4 3.045-5.055 8.332-6.77 .13-.05.27-.09.4-.12 -.26-.59-.54-1.17-.84-1.74C7.15 11.77 2.18 11.7 1.73 11.69l-.01.31c0 2.63.998 5.03 2.63 6.85ZM1.96 9.91c.46 0 4.683.02 9.477-1.25C9.73 5.64 7.9 3.1 7.63 2.73 4.76 4.08 2.62 6.72 1.96 9.9ZM9.59 2.04c.28.38 2.14 2.91 3.82 6 3.64-1.37 5.19-3.44 5.37-3.702 -1.81-1.61-4.19-2.586-6.795-2.586 -.83 0-1.63.1-2.4.28Zm10.33 3.48c-.22.29-1.94 2.49-5.724 4.04 .24.49.47.98.68 1.48 .08.18.15.36.22.53 3.41-.43 6.8.26 7.14.33 -.02-2.42-.88-4.64-2.31-6.38Z"/></svg>