<svg viewBox="0 0 24 24" xmlns="http://www.w3.org/2000/svg"><path d="M15.78 5.11c-1.69-1.69-3.3-3.3-3.782-5.12 -.48 1.815-2.09 3.425-3.78 5.11 -2.534 2.53-5.405 5.4-5.405 9.702l-.001 0c0 5.07 4.11 9.18 9.184 9.18 5.07 0 9.184-4.12 9.184-9.185 0-4.31-2.88-7.171-5.41-9.702m-9.06 11.84c-.57-.02-2.64-3.6 1.21-7.416l2.55 2.78v0c.08.08.08.22 0 .3 -.01 0-.02.01-.02.01 -.61.625-3.21 3.22-3.527 4.12 -.07.18-.17.18-.23.17m5.28 4.72v-.001c-1.75 0-3.16-1.42-3.16-3.16 -.001-.01 0-.01 0-.01v0c.01-.77.28-1.51.78-2.09 .57-.7 2.37-2.66 2.37-2.66s1.77 1.98 2.36 2.64v0c.51.57.79 1.32.79 2.093l0 0c0 1.74-1.42 3.15-3.16 3.15 -.01 0-.01 0-.01 0m6.04-5.13c-.07.15-.23.39-.44.4 -.38.01-.42-.18-.69-.59 -.61-.9-5.87-6.39-6.85-7.455 -.87-.94-.13-1.6.22-1.94 .43-.44 1.69-1.7 1.69-1.7s3.766 3.574 5.33 6.016c1.57 2.44 1.029 4.55.71 5.25"/></svg>