<svg viewBox="0 0 24 24" xmlns="http://www.w3.org/2000/svg"><path d="M7.2 2.86h-.001c-1.36 0-2.45 1.1-2.45 2.455v3.11L1.06 7.5h-.01v0C.97 7.47.88 7.47.8 7.47L.8 7.47c-.48.01-.85.41-.84.89 0 0 0 .01 0 .02l-.001 0c.2 2.79 2.17 5.15 4.886 5.87H4.85c.66 3.4 3.64 5.87 7.11 5.88v0c3.46-.03 6.44-2.49 7.1-5.888v0c2.71-.72 4.68-3.07 4.89-5.871v0c.03-.48-.33-.89-.81-.92 -.01-.01-.02-.01-.03-.01v0c-.09-.01-.17 0-.25.02l-3.68.91V5.25h-.001c-.01-1.36-1.1-2.46-2.45-2.46v0c-.33 0-.66.07-.96.19 -1.87.79-3.12 1.18-3.84 1.2 -.72-.02-1.97-.403-3.84-1.2V2.98c-.32-.13-.65-.19-.98-.2Zm8.13 1.4h-.001c.01-.01.02-.01.03 0 .06 0 .12.05.17.12v0c.02.04.04.09.07.14l0-.001c.01.02.02.05.03.08l-.001-.001c.01.03.02.06.03.09v0c.01.03.02.06.02.09v0c0 .03.01.06.02.09h0c0 .03.01.06.01.09v0c0 .03.01.06.01.09v0c0 .03 0 .06.01.09l0-.001c0 .03 0 .06 0 .1h0c0 .05 0 .1 0 .15l0 0c0-.01 0-.01 0 0l.47-.53v0c0-.01 0-.01.01-.01V4.84c0-.01 0-.01.01-.01V4.83c0-.01 0-.01.01-.01v0c0-.01 0-.01 0-.01v0c0-.01 0-.01.01-.01v0c0-.01 0-.01 0-.01v0c0-.01 0-.01.01-.01V4.78c0-.01 0-.01.01-.01V4.77c0-.01 0-.01.01-.01V4.76c0-.01 0-.01.01-.01v0c0-.01 0-.01.01-.01v0c0-.01 0-.01.01-.01v0c0-.01 0-.01.01-.01v0c0-.01 0-.01.01-.01l-.001 0c0-.01.01-.01.01-.01v0c0-.01 0-.01 0 0v0c0-.01.01-.01.02 0v0c0-.01 0-.01 0 0v0s.01 0 .01 0v0c0-.01 0-.01.01 0h-.001s0 0 .01 0v0s0 0 .01 0V4.7s0 0 .01 0v0s0 0 .01 0v0s0 0 .01 0V4.7s0 0 .01 0v0c0-.01 0-.01 0 0V4.69s0 0 0 0V4.69s.01 0 .01.01V4.7s0 0 0 0v0s0 0 .01 0v0s0 0 .01.01v0s0 0 0 0V4.71s0 0 .01.01V4.72s0 0 0 0v0s0 0 0 0v0s0 0 .01.01v0s0 0 0 0V4.73s0 .01.01.01v0c.02.03.04.07.06.12v0c.01.02.02.05.04.08l-.001 0c.01.03.02.06.03.09v0c.01.02.02.05.03.08v0c0 .03.01.06.02.09v0c0 .03.01.06.02.09v0c0 .03.01.06.01.09v0c0 .04.01.08.01.13v0c.06.03.12.07.19.11v0c.03.02.07.05.11.07v0c.03.02.07.05.11.08V5.77c.03.02.06.05.1.08V5.85c.03.03.06.06.1.09v0c.03.03.06.06.09.09V6.03c.03.03.06.06.09.1v0c.02.03.05.07.08.1v0c.02.03.05.07.08.11v0c.02.03.04.07.07.11V6.45c.02.03.04.07.06.12v0c.02.04.04.08.05.12V6.68c.01.04.03.08.05.12v0c.01.04.03.08.04.13v0c.01.04.02.08.04.12v0c.01.04.02.08.03.13v0c.01.04.02.08.03.13l0-.001c0 .04.01.08.02.13v0c0 .04.01.09.01.13l0-.001c0 .07.01.14.01.22v1.75 0c-.01.07-.01.15-.02.23v0c-.01.04-.02.08-.02.13v0c-.01.04-.02.09-.02.13v0c-.01.04-.02.09-.03.13v0c-.01.04-.03.08-.04.12v0c-.02.04-.03.08-.05.13v0c-.02.04-.03.08-.05.12h0c-.02.04-.04.08-.06.12v0c-.02.04-.04.08-.06.12v0c-.03.03-.05.07-.07.11v0c-.03.03-.05.07-.07.11v0c-.03.03-.06.07-.08.1v0c-.03.03-.06.07-.09.11v0c-.03.03-.06.06-.09.1v0c-.03.03-.06.06-.09.09v0c-.04.03-.07.06-.11.09v0c-.04.02-.07.05-.1.08v0c-.04.02-.08.05-.11.08v0c-.04.02-.08.05-.12.08v-.001c-.04.02-.08.04-.12.07v0c-.04.02-.08.04-.12.06v0c-.04.01-.08.03-.12.05v0c-.05.02-.09.03-.13.05v0c-.05.01-.09.03-.13.04v0c-.05.01-.09.03-.14.04v-.001c-.05.01-.09.02-.14.03v-.001c-.05.01-.09.02-.13.03v0c-.05 0-.1.01-.14.02v-.001c-.05 0-.09.01-.13.01v0c-.08 0-.16.01-.24.01h-.21l0 0c-.09-.01-.17-.01-.25-.02h-.001c-.05-.01-.09-.02-.14-.02v0c-.05-.01-.09-.02-.14-.02v-.001c-.05-.01-.1-.03-.14-.04v0c-.05-.01-.09-.03-.13-.04l0 0c-.05-.02-.09-.03-.14-.05h-.001c-.05-.02-.09-.03-.13-.05h-.001c-.05-.02-.09-.04-.13-.06v0c-.05-.02-.09-.04-.13-.06v0c-.04-.03-.08-.05-.12-.07v0c-.04-.03-.08-.05-.12-.08h0c-.04-.03-.08-.06-.11-.08v0c-.04-.03-.08-.06-.11-.09v-.001c-.04-.03-.07-.06-.11-.09h0c-.04-.03-.07-.07-.1-.1v0c-.04-.04-.07-.07-.1-.11v0c-.04-.04-.06-.07-.09-.1v0c-.03-.04-.06-.08-.09-.11v0c-.03-.04-.06-.08-.08-.11l-.001-.001c-.03-.04-.05-.08-.07-.12V10.7c-.01-.02-.02-.04-.03-.05v.98 0c-.01.02-.01.04-.01.07v0c-.01.01-.01.03-.01.05v0c-.01.01-.01.03-.01.05h0s0 0 0 0v0c-.01.01-.01.02-.01.04v0c-.01.02-.02.04-.02.06v0c-.01.01-.01.02-.01.03v0c-.01.02-.02.04-.03.06v0c-.01.01-.01.02-.02.03h-.001c-.02.02-.03.04-.04.06v0c-.01.01-.02.02-.02.03l0 0c-.01.01-.02.02-.03.04v0c-.02.01-.03.03-.04.04v0c-.01.01-.02.02-.03.03v-.001c-.02.01-.03.02-.04.04h0c-.02.01-.03.02-.04.03v-.001c-.02.01-.03.02-.04.03v-.001c-.02.01-.03.02-.04.03v-.001c-.02.01-.03.02-.04.03v0c-.02.01-.03.02-.05.03v0c-.02 0-.03.01-.05.02v0c-.02 0-.04.01-.05.02v-.001c-.02 0-.03.01-.05.02v0c-.02 0-.04.01-.05.02v0c-.02 0-.04.01-.05.02v-.001c-.02 0-.04.01-.05.01v0c-.02 0-.04 0-.05.01v0c-.02 0-.04 0-.06.01v0c-.02 0-.04 0-.05 0h0c-.02 0-.04 0-.06 0v0c-.02 0-.04 0-.05 0v0c-.02 0-.04 0-.06 0v-.001c-.02 0-.04 0-.06 0l0 0c-.02-.01-.04-.01-.05-.01v0c-.02-.01-.04-.01-.06-.01v0c-.02-.01-.04-.01-.06-.01v0c-.02-.01-.04-.01-.05-.02h0c-.02-.01-.04-.01-.05-.02v-.001c-.02-.01-.04-.02-.05-.02h-.001c-.02-.01-.04-.02-.05-.02h-.001c-.02-.01-.04-.02-.05-.02v0c-.02-.01-.04-.02-.05-.03v0c-.02-.01-.04-.02-.05-.03v0c-.02-.01-.03-.02-.04-.03v0c-.02-.02-.04-.03-.05-.04v0c-.02-.02-.03-.03-.04-.04v-.001c-.02-.02-.03-.03-.04-.04h0c-.02-.02-.03-.03-.04-.04v0c-.02-.02-.03-.03-.04-.04h0c-.02-.02-.03-.03-.04-.05h-.001c-.01-.02-.02-.03-.03-.04H10.5c-.02-.02-.03-.04-.04-.05v0c-.01-.01-.02-.02-.02-.03v0c-.02-.03-.04-.06-.05-.09v0c-.01-.01-.01-.01-.01-.01h-.001c-.02-.03-.03-.06-.04-.09v-.001c-.01-.01-.01-.01-.01-.02v0c-.01-.03-.02-.05-.03-.08v0c-.01-.02-.01-.03-.01-.04v0c-.01-.02-.01-.04-.02-.06h-.001c-.01-.02-.01-.03-.01-.05v0c-.01-.02-.01-.03-.01-.04v-.001c-.01-.01-.01-.02-.01-.02v0c-.01-.01-.01-.01 0-.01v0c-.01-.03-.01-.05-.01-.07v-.98 0c-.01.01-.02.03-.03.04v0c-.03.03-.05.07-.07.11v0c-.03.03-.06.07-.08.1l-.001-.001c-.03.03-.06.07-.09.11v0c-.03.03-.06.06-.09.09v0c-.04.03-.07.07-.1.1h0c-.04.03-.07.06-.1.09v0c-.04.03-.07.06-.1.09v0c-.04.02-.08.05-.11.08v0c-.04.02-.08.05-.11.07l0 0c-.04.02-.08.04-.12.07v0c-.04.02-.08.04-.12.06v0c-.04.02-.08.03-.12.05v0c-.05.01-.09.03-.13.05v0c-.05.01-.09.03-.13.04v0c-.05.01-.09.03-.13.04v0c-.05.01-.09.02-.13.03v0c-.05.01-.1.02-.14.03v0c-.05 0-.09.01-.13.02v0c-.05 0-.1.01-.14.01v0c-.09 0-.17.01-.25.01H7.6v0c-.08-.01-.16-.01-.24-.02v0c-.05-.01-.09-.01-.13-.02v0c-.05-.01-.1-.02-.14-.02v0c-.05-.01-.09-.02-.13-.03h0c-.05-.01-.09-.03-.14-.04v0c-.05-.02-.09-.03-.14-.05v-.001c-.05-.02-.09-.03-.13-.05v0c-.05-.02-.09-.04-.13-.06h0c-.05-.02-.09-.04-.12-.06v0c-.05-.03-.08-.05-.12-.07h0c-.04-.03-.08-.05-.12-.07l-.001 0c-.04-.03-.08-.06-.12-.08h0c-.04-.03-.08-.06-.11-.09h0c-.04-.03-.07-.06-.1-.09h0c-.04-.04-.07-.07-.11-.1H5.62c-.04-.04-.07-.07-.09-.1v0c-.04-.04-.07-.07-.09-.11v-.001c-.03-.04-.06-.08-.09-.11v0c-.03-.04-.06-.08-.08-.11v0c-.03-.04-.05-.08-.08-.12H5.19c-.03-.04-.05-.08-.07-.12h0c-.03-.04-.04-.08-.06-.12H5.05c-.02-.05-.04-.09-.06-.13v0c-.02-.05-.04-.09-.05-.13v0c-.02-.05-.04-.09-.05-.14v0c-.02-.05-.03-.09-.04-.13L4.85 9.5c-.02-.05-.03-.1-.03-.14v0c-.01-.05-.02-.09-.02-.14h0c-.01-.05-.02-.09-.02-.14V9.08c-.01-.08-.02-.16-.02-.24V7.08L4.76 7.08c0-.08 0-.16.01-.23v0c0-.05 0-.1.01-.14H4.78c0-.05.01-.09.02-.14h0c0-.05.01-.1.03-.14H4.83c.01-.05.02-.09.03-.13V6.3c.01-.05.02-.09.04-.13l0 0c.01-.05.03-.09.04-.13v0c.01-.05.03-.09.05-.13V5.91c.01-.05.03-.08.05-.12l-.001 0c.02-.05.04-.09.07-.13L5.11 5.65c.02-.04.04-.08.06-.12v0c.02-.04.05-.08.08-.12V5.41c.02-.04.05-.08.08-.11v0c.02-.04.05-.07.09-.11v0c.03-.04.06-.07.09-.1h0c.03-.04.06-.07.09-.09H5.6c.03-.04.06-.07.1-.1L5.7 4.9c.03-.03.06-.06.1-.08v0c.03-.03.07-.06.11-.08V4.74c.06-.05.12-.09.19-.12h0c0-.05 0-.09.01-.14L6.11 4.48c0-.04 0-.07.01-.1V4.38c0-.04.01-.07.02-.1v0c0-.04.01-.07.02-.1h0c0-.04.01-.07.03-.1v0c.01-.04.02-.07.03-.1V3.98c.01-.03.02-.06.04-.09v0c.01-.04.03-.08.05-.12v0c0-.01 0-.02.01-.02v0c0-.01 0-.01 0-.01v0c0-.01 0-.01.01-.02v0c0-.01 0-.01 0-.01v0c0-.01 0-.01 0-.01v0c0-.01 0-.01.01-.02v0c0-.01 0-.01 0-.01V3.67c0-.01 0-.01.01-.01v0c0-.01 0-.01.01-.01v0c0-.01 0-.01 0-.01v0c0-.01.01-.01.01-.01v0c0-.01 0-.01 0-.01v0c0-.01 0-.01.01-.01V3.61c0-.01 0-.01.01-.01v0c0-.01 0-.01.01-.01v0c0-.01 0-.01.01-.01h0c0-.01 0-.01.01-.01h0c0-.01 0-.01.01-.01v0c0-.01 0-.01.01-.01v0c0-.01.01-.01.01-.01H6.44c0-.01 0-.01 0 0v0c0-.01.01-.01.01 0v0c0-.01 0-.01 0 0h0s.01 0 .01 0l0-.001s0 0 .01 0v0s0 0 .01 0v0s0 0 .01 0v0s0 0 .01 0v0s0 0 .01 0v0s0 0 .01 0v0s0 0 .01 0v0s0 0 .01 0v0s0 0 0 0V3.53s0 0 .01 0v0s0 0 0 0h0s0 0 .01.01v0s0 0 .01.01v0s0 0 .01.01v-.01l.47.52v0c0-.01 0-.01.01 0h0c-.01-.06-.01-.11-.01-.16v0c0-.04 0-.07 0-.11v0c0-.04 0-.07 0-.1v0c0-.04 0-.07.01-.1v0c0-.04.01-.07.02-.1v0c0-.04.01-.07.02-.1v0c0-.04.01-.07.03-.1H7.13c.01-.04.02-.07.03-.1v0c.01-.03.02-.06.03-.09v0c.02-.05.04-.1.07-.15 .08-.14.21-.17.32-.09 .01.01.03.02.04.04L9.4 4.85v-.01 0c.02.03.06.06.09.08v0c.02.02.04.04.07.06v0c.02.02.05.04.07.06v0c.02.01.05.03.07.05v0c.02.01.05.03.08.05v0c.02.01.05.03.08.05v0c.02.01.05.02.08.04v0c.02.01.05.02.08.04l0-.001c.03.01.06.02.09.03v0c.02.01.05.02.08.03v0c.03 0 .06.01.09.02h0c.03 0 .06.01.09.02v0c.03 0 .06.01.09.01h0c.03 0 .06 0 .09.01v0c.03 0 .06 0 .09 0h0c.03 0 .06 0 .09 0h0c.03-.01.06-.01.09-.01v0c.03-.01.06-.01.09-.01h-.001c.03-.01.06-.01.09-.02v0c.03-.01.06-.01.09-.02v0c.03-.01.06-.02.09-.03v0c.03-.01.06-.02.09-.03V5.27c.02-.01.05-.02.08-.04v0c.03-.02.06-.03.09-.04v0c.02-.02.05-.03.08-.04h0c.02-.02.05-.03.08-.05v0c.02-.02.05-.04.08-.05v0c.02-.02.05-.04.08-.05v0c.02-.02.05-.04.07-.06h-.001c.02-.02.05-.04.07-.06V4.88c.02-.03.04-.05.07-.07v0c.03-.03.06-.06.09-.09v0l1.78-1.94v0c.01-.02.02-.03.04-.04v0c.03-.03.06-.04.1-.05Zm.02.16c-.82.742-1.42 1.71-2.33 2.35 -.94.55-2.21.19-2.83-.67 -.52-.56-1.01-1.17-1.57-1.67 -.33.258-.17.74-.34 1.07 -.21.2-.42-.19-.53-.32 -.09-.17-.32-.29-.39-.05 -.17.27-.04.74-.42.85 -.92.59-1.28 1.75-1.149 2.79 -.03.98-.07 2.11.69 2.859 1.1 1.18 3.29 1.048 4.17-.32 .05-.14.14-.31.26-.42v-.42 0c-.01-.01-.01-.01 0-.01l-.35-.06v0c-.03-.01-.05-.04-.05-.06h0c.12-.69.71-1.2 1.41-1.2h0c.7-.01 1.3.5 1.43 1.19v0c0 .02-.02.05-.05.05l-.35.06v-.001s0 0 0 0v.38l0 0c.58 1.53 2.72 2.067 4.01 1.12v0c.8-.58 1.23-1.56 1.1-2.54 .01-1.04.13-2.231-.66-3.042 -.22-.27-.61-.399-.77-.7 -.06-.25-.05-.59-.29-.74 -.31.12-.39.556-.73.63 -.2-.38-.06-.9-.38-1.213ZM8.41 6.44v0c1.1 0 1.99.89 1.99 1.99v1.2h0c-.01.31-.1.63-.25.91l0-.001c-.27-.12-.55-.23-.82-.33v0c.01-.02.02-.03.03-.04v-.001c0-.01.01-.02.01-.02v0c.01-.02.03-.04.04-.06v-.001c0-.01 0-.02.01-.02v0c.01-.02.02-.04.04-.06v0c0-.01 0-.02.01-.02l0 0c.01-.03.02-.05.03-.07v0c0-.01 0-.02.01-.03v0c0-.02.01-.04.02-.06v0c0-.02 0-.03.01-.04v0c0-.02.01-.04.01-.06v0c0-.02 0-.03 0-.04H9.55c0-.02 0-.04.01-.06v0c0-.02 0-.03 0-.05v0c0-.03 0-.06 0-.09V8.44v0c-.01-.03-.01-.06-.01-.08v0c-.01-.02-.01-.04-.01-.05v0c-.01-.02-.01-.04-.01-.05v0c-.01-.02-.01-.04-.01-.05v0c-.01-.02-.01-.04-.02-.05v0c-.01-.02-.02-.04-.02-.05v0c-.01-.02-.01-.03-.02-.05v0c-.01-.02-.02-.04-.02-.05v0c-.01-.02-.02-.03-.02-.04h-.001c-.01-.02-.02-.03-.03-.05v0c-.01-.02-.02-.03-.03-.04v0c-.01-.02-.02-.03-.03-.04h0c-.01-.02-.02-.03-.03-.04v0c-.01-.02-.02-.03-.03-.04v0c-.02-.02-.03-.03-.04-.04V7.72c-.02-.02-.03-.03-.04-.04v0c-.02-.02-.03-.03-.04-.04V7.64c-.02-.01-.03-.02-.04-.03v0c-.02-.01-.03-.02-.04-.03v0c-.02-.01-.03-.02-.04-.03v0c-.02-.01-.03-.02-.04-.03V7.52c-.02-.01-.03-.02-.05-.02L8.94 7.5c-.02-.01-.04-.02-.05-.02V7.48c-.02-.01-.03-.02-.05-.02V7.46c-.02-.01-.03-.01-.05-.02v0c-.02-.01-.04-.01-.05-.02V7.42c-.02-.01-.04-.01-.05-.01V7.4c-.02-.01-.03-.01-.05-.01L8.64 7.39c-.02-.01-.04-.01-.05-.01V7.38c-.03-.01-.06-.01-.08-.01V7.37c-.03 0-.05 0-.06 0V7.37c-.02 0-.04 0-.05 0v0c-.02 0-.03 0-.05 0l-.001 0c-.02 0-.04 0-.06.01v0c-.02 0-.04 0-.05.01v0c-.02 0-.04 0-.05.01v0c-.02 0-.04.01-.05.01v0c-.02 0-.04.01-.06.02v0c.01.01.02.02.04.04v0s.01.01.02.02v0s.01.01.01.02v0s.01.01.01.02v0s.01.01.01.02v0s0 .01.01.02V7.57s.01.01.01.02v0s0 .01.01.02v0s0 .01.01.03v0s0 .01 0 .02v0c0 .01 0 .02.01.03v0s0 .01 0 .03v0s0 .01 0 .02v0c0 .01 0 .02 0 .03v0s0 .01 0 .02v0c0 .01 0 .02 0 .04v0s0 .01 0 .02v0c-.01.01-.01.02-.01.03v0c-.01.01-.01.02-.01.03h0c-.01 0-.01.01-.01.02v0c-.01.01-.01.02-.01.03v0c-.01 0-.01.01-.01.02v0c-.01.01-.01.02-.01.03v0c-.01.01-.01.02-.02.03h-.001c-.01 0-.01.01-.01.02H8.13c-.01.01-.02.02-.02.03v0c-.01 0-.01.01-.02.02v0c-.01.01-.02.02-.02.03v0c-.01 0-.01.01-.02.01v0c-.01.01-.02.02-.03.03v0c-.01 0-.01.01-.02.01v0c-.01 0-.02.01-.02.02v0c-.01 0-.02.01-.03.02v0c-.01 0-.02.01-.02.01v0c-.01 0-.02.01-.03.02v0c-.01 0-.02.01-.03.01v0c-.01 0-.02.01-.03.01v0c-.01 0-.02 0-.03.01v0c-.01 0-.02.01-.03.01V8.3c-.02 0-.03 0-.04.01v0c-.01 0-.02 0-.02 0v0c-.02 0-.03 0-.04.01v0c-.01 0-.02 0-.02 0v0c-.02 0-.03 0-.04 0v0c-.01 0-.02 0-.03 0H7.58c-.02 0-.03 0-.04 0H7.54c-.01 0-.02 0-.02 0v0c-.02 0-.03 0-.04 0v0c-.01 0-.02 0-.03 0l0-.001c-.02-.01-.03-.01-.04-.01H7.41c-.01-.01-.02-.01-.03-.01h0c-.02-.01-.04-.01-.06-.02v.859 0c0 .01 0 .03 0 .04v0c0 .02 0 .04 0 .06v0c-.45-.14-.89-.25-1.34-.34v-.91 0c-.01-1.1.88-2 1.97-2 0-.01.01-.01.01 0Zm7.15 0v0c1.1-.01 1.99.89 1.99 1.99 0 0 0 0 0 0v.9c-.43.08-.87.19-1.34.33v0c0-.03 0-.05 0-.07v-.001c0-.02 0-.04 0-.05V8.49h-.001c-.01-.03-.01-.06-.01-.09v0c-.01-.02-.01-.04-.01-.05v0c-.01-.02-.01-.04-.01-.05v0c-.01-.02-.01-.04-.01-.05v0c-.01-.02-.01-.04-.02-.05v0c-.01-.02-.01-.03-.02-.05v0c-.01-.02-.02-.04-.02-.05v0c-.01-.02-.02-.03-.02-.05V8.05c-.01-.02-.02-.03-.02-.05v0c-.01-.02-.02-.03-.03-.04V7.96c-.01-.02-.02-.03-.03-.05v0c-.01-.02-.02-.03-.03-.04v0c-.01-.02-.02-.03-.03-.04v0c-.02-.02-.03-.03-.04-.04v0c-.02-.02-.03-.03-.04-.04V7.75c-.02-.02-.03-.03-.04-.04v0c-.02-.02-.03-.03-.04-.03l-.001-.001c-.02-.02-.03-.03-.04-.03l0 0c-.02-.01-.03-.02-.04-.03l0 0c-.02-.01-.03-.02-.05-.03l-.001-.001c-.02-.01-.03-.02-.04-.03l0 0c-.02-.01-.03-.02-.05-.02h-.001c-.02-.01-.04-.02-.05-.02V7.52c-.02-.01-.03-.02-.04-.02l0 0c-.02-.01-.04-.02-.05-.02l-.001-.001c-.02-.01-.04-.01-.05-.02l0 0c-.02-.01-.04-.01-.05-.01V7.45c-.02-.01-.04-.01-.05-.01v0c-.02-.01-.03-.01-.05-.01h0c-.03-.01-.06-.01-.09-.01v0c-.02 0-.04 0-.06 0v0c-.02 0-.04 0-.05 0v0c-.02 0-.04 0-.06 0v0c-.02 0-.03 0-.05 0h-.001c-.02 0-.04 0-.05.01v0c-.02 0-.04 0-.05.01V7.44c-.02 0-.03.01-.05.01v0c-.02 0-.04.01-.05.01v0c-.02 0-.04.01-.05.02v0c-.02 0-.04.01-.05.02v0c.01.01.02.02.04.04V7.53c.01.01.02.03.03.05v0c.01.01.02.03.03.05v0c0 .01.01.03.02.05v0c0 .01.01.03.01.05v0s0 .01 0 .02v0c0 .01 0 .02 0 .03v0c0 .01 0 .02 0 .04v0s0 .01 0 .01v0s0 0 0 0v0c0 .01 0 .04 0 .06v0c-.01.02-.01.04-.01.06h0c-.01 0-.01.01-.01.02h0c-.01.01-.01.02-.01.03v0c-.01.01-.02.03-.02.05h0s0 0 0 0v0c-.01.01-.02.03-.03.05v0c-.01.01-.02.03-.03.05v0c-.02.01-.03.03-.04.05H14.6c-.02.01-.03.03-.04.04v0c-.02.01-.03.02-.05.04v0c-.02.01-.04.02-.05.03h0c-.02.01-.04.02-.05.03v0c-.01 0-.01 0-.01 0V8.34c-.02 0-.04.01-.06.02h0c-.02 0-.04.01-.06.02v0c-.02 0-.04.01-.06.01v0c-.02 0-.03 0-.04 0l0 0c-.03 0-.06 0-.09.01v0c-.02 0-.05 0-.06 0v.83l-.001 0c0 .02 0 .05 0 .08h-.001c0 .01 0 .02 0 .04v0c0 .01 0 .03.01.05v0c0 .01 0 .02.01.03v0c0 .02.01.04.01.06v0s0 .01.01.02h0c0 .02.01.04.02.06h0s0 .01.01.02h0c.01.02.02.04.03.06v0s0 .01.01.01v0c.01.02.02.04.04.06h0s0 0 .01.01v0c.01.02.03.04.05.06V9.79s0 0 0 0V9.79c.01.01.02.03.04.04 -.27.1-.54.21-.82.33v0c-.16-.29-.24-.6-.25-.92v-1.2 0c-.01-1.1.88-2 1.97-2 0-.01.01-.01.01 0Zm-3.55 2.85c-.04 0-.08 0-.12 0v0c-.6.04-1.09.46-1.23 1.04l1.3.19 .68-.11 .6-.14c-.13-.57-.68-.99-1.26-1Zm.86 1.18c-.09-.01-.01.14-.03.21 .01.45.02.91-.03 1.362 -.15.55-.9.83-1.35.47 -.34-.24-.43-.69-.38-1.07 -.01-.32-.02-.641.01-.96 -.17-.09-.06.1-.09.19 .01.609-.05 1.22.04 1.82 .18.59 1.02.85 1.5.43 .31-.25.39-.69.35-1.07 -.01-.47.01-.94-.01-1.4h0c-.02-.01-.04-.02-.05-.02Zm-.15.04V10.5c-.03 0-.05 0-.07.01v-.001c-.04.01-.08.02-.12.03l-.03 0v-.001c-.03 0-.06.01-.09.02l-.03 0h0c-.09.01-.18.02-.27.03l-.04 0v0c-.05 0-.1 0-.15 0h-.02v0c-.06-.01-.12-.01-.18-.02 -.01 0-.02 0-.02-.01H11.7c-.1-.02-.19-.03-.28-.04l-.08-.01 -.19-.04h-.001c-.03.07-.04.14-.04.22v1.08 0c0 .41.35.75.79.75v-.001c.43 0 .79-.34.79-.76 0-.01-.01-.01-.01-.01v-1.09 0c-.01-.09-.02-.17-.05-.25Zm.04 1.36l0-.001c-.01.01-.01.02-.01.03h0c0-.02 0-.03 0-.04Zm-.02.08v0c-.01.01-.01.02-.01.03v0c0-.01 0-.02 0-.03Zm-.02.07h0c-.01.01-.01.02-.01.03v-.001c0-.01 0-.02.01-.03Zm-.03.07h-.001c-.01 0-.01.01-.01.02v0c0-.01 0-.02.01-.03Zm-.04.07h-.001c-.01 0-.01.01-.02.02v0c0-.01 0-.02.01-.02Zm-.05.07v0c-.01 0-.01 0-.01.01v0c0-.01 0-.01.01-.02Zm-.05.06v0c-.01 0-.01 0-.01.01v0c0-.01 0-.01.01-.01Zm-.06.05v0c-.01 0-.01 0-.01 0h0c0-.01 0-.01 0-.01Zm-3.07 2.62v0c0-.01 0-.01.01 0h1.82v-.001c.07-.01.14.05.14.13 0 .01-.01.03-.01.04 -.14.42-.58.7-1.06.71v0c-.47.01-.89-.28-1.05-.72H9.27c-.03-.07 0-.15.07-.18 .01-.01.03-.02.05-.01Zm3.2 0h-.001c0-.01 0-.01 0 0h1.82v0c.07-.01.14.05.14.13 0 .01-.01.03-.01.04 -.14.41-.58.71-1.06.71v0c-.47.01-.89-.28-1.05-.71v0c-.02-.08.02-.16.1-.18 .01-.01.02-.01.03-.01Zm-1.6 1.54v0c0-.01 0-.01 0 0h1.82v0c.07-.01.14.05.14.13 0 .01-.01.03-.01.04 -.14.42-.57.71-1.06.71v0c-.47.01-.89-.28-1.05-.72v0c-.03-.08.01-.16.09-.18 .01-.01.02-.01.04-.01Zm-6.64 1.654h0c-.26 0-.49.11-.66.29v-.01 0c-.36.37-.34.96.04 1.32l1.088 1.02 0-.001c.38.34.97.31 1.32-.08 .33-.38.31-.95-.05-1.3L5.03 18.37h0c-.18-.18-.42-.27-.67-.26Zm15.11 0v0c-.26-.01-.5.08-.68.25l-1.09 1.01v0c-.38.35-.4.94-.05 1.32 .35.37.94.39 1.32.04l1.08-1.02h-.001c.37-.36.39-.95.04-1.33v0c-.17-.19-.41-.29-.65-.3Z"/></svg>