<svg viewBox="0 0 24 24" xmlns="http://www.w3.org/2000/svg"><path d="M9.37-.001c-.31.006-.93.09-1.53.654 -.88.82-5.225 4.95-6.98 6.61 -.79.75-.72 1.59-.72 1.66v.37c.067-.3.187-.5.42-.83 .496-.62 1.3-.79 1.62-.83l0 0c0-.01 0-.01 0 0H2.17c2.16-.3 4.34-.48 6.52-.55 4.33-.14 7.19.22 7.19.22l6.08-5.8c0-.001-3.19-.6-6.82-1.03l-.001 0c-1.88-.23-3.76-.4-5.64-.52 -.02 0-.09-.008-.2-.006Zm13.56 2.508l-6.07 5.79s.22 2.88-.14 7.2c-.19 2.45-.59 4.86-.88 6.49 -.06.32-.26 1.11-.93 1.59 -.29.19-.49.29-.75.36 1.54-.51 1.09-7.05 1.09-7.05 -4.34.13-7.22-.23-7.22-.23l-6.09 5.79c-.001 0 3.223.63 6.856 1.04 2.05.24 4.833.42 5.227.46 .02 0 .04-.01.06-.02 -.02 0-.03 0-.04.01 .13 0 .26.01.38.01 .08 0 .92.1 1.71-.65 1.74-1.67 6.08-5.81 6.94-6.634 .78-.76.72-1.6.72-1.68l0-.001c-.01-1.89-.08-3.78-.21-5.654l-.001-.001c-.16-2.3-.39-4.59-.71-6.88ZM3.85 8.297c-1.73 0-3.508.2-3.7 1.02 .01 1.21.05 3.13.2 5.28 .24 3.65.7 6.88.7 6.88l6.08-5.79c-.02.01-.24-2.88.12-7.2 0 0-1.69-.21-3.42-.2Z"/></svg>