<svg viewBox="0 0 24 24" xmlns="http://www.w3.org/2000/svg"><path d="M13.13.05C9.61-.29 6.05.94 3.48 3.53 .05 6.97-.96 12.16.92 16.64c1.88 4.48 6.3 7.38 11.16 7.34h-.001c1.25.01 2.28-1 2.29-2.26 .01-1.26-1-2.29-2.26-2.3 -.03-.01-.06-.01-.09 0 -3.03.02-5.76-1.78-6.94-4.57 -1.18-2.8-.55-6 1.58-8.15 2.13-2.15 5.339-2.79 8.13-1.63 2.07.85 3.59 2.57 4.24 4.64h-7.05V9.7c-1.26-.01-2.28 1.01-2.28 2.27 -.01 1.25 1.01 2.27 2.27 2.27 0 0 0 0 0 0h9.67v0c1.25-.01 2.27-1.02 2.27-2.27C23.91 7.1 20.98 2.71 16.49.84 15.36.37 14.2.09 13.03-.03Z"/></svg>