<svg viewBox="0 0 24 24" xmlns="http://www.w3.org/2000/svg"><path d="M2.96 12.225H1.45c-.07 0-.1.02-.1.08 0 .13.07.26.22.391 .15.12.31.18.48.18 .1 0 .21-.02.34-.06 .125-.04.22-.09.3-.15 .07-.06.13-.08.17-.08 .05 0 .11.03.16.1l-.001-.001c.04.05.07.13.08.21 0 .15-.1.3-.29.44 -.34.25-.73.38-1.18.38 -.45 0-.83-.13-1.124-.39H.5c-.15-.14-.28-.29-.37-.47h0c-.13-.24-.19-.5-.19-.76 0-.36.109-.68.326-.97 .187-.25.426-.44.71-.56 .21-.1.45-.14.706-.14 .4 0 .74.11 1.03.34 .14.11.258.25.34.4 .1.17.15.35.15.52v-.001c0 .11-.03.23-.09.34 -.06.08-.14.13-.23.13Zm-1.42-.6h.32c.13 0 .2-.07.2-.19h-.001c0-.11-.04-.21-.1-.29h0c-.07-.08-.17-.12-.26-.11v-.001c-.12-.01-.22.04-.29.14v0c-.06.07-.1.16-.1.26 0 .06.01.1.04.13 .03.02.08.03.16.03Zm3.69-1.16c.37 0 .68.09.94.28 .13.1.23.21.28.34 .05.12.08.3.08.532l-.01.47c0 .33.02.54.07.64 .02.04.04.07.06.08v0c.04.01.08.03.13.03 .06.01.1.05.1.13h-.001c-.01.11-.05.22-.13.31h0c-.09.11-.2.2-.32.27v0c-.16.09-.33.14-.51.14h0c-.21 0-.4-.08-.53-.23 -.05-.06-.09-.09-.125-.09 -.05 0-.1.02-.17.08v-.001c-.22.15-.47.23-.73.23 -.28 0-.51-.06-.68-.18v0c-.12-.08-.21-.19-.27-.31l-.001 0c-.07-.13-.1-.26-.1-.4 0-.23.08-.42.26-.59 .27-.27.69-.41 1.25-.41 .12 0 .2-.02.23-.04 .03-.03.04-.09.04-.18 0-.23-.03-.39-.07-.49 -.05-.11-.13-.16-.23-.16v0c-.07-.01-.13.01-.18.05 -.05.03-.12.1-.19.21 -.19.27-.39.4-.6.4v0c-.1 0-.19-.03-.26-.1h0c-.07-.07-.11-.16-.1-.25 0-.11.04-.21.12-.31 .08-.11.19-.2.33-.27l0-.001c.37-.2.78-.31 1.2-.31Zm-.22 1.84v0c-.1 0-.19.04-.25.11h-.001c-.07.07-.11.17-.11.27s.02.18.07.24v0c.04.06.11.09.19.09 .17 0 .25-.15.25-.44 0-.12-.02-.2-.04-.24 -.03-.05-.07-.07-.14-.07Zm3.33-1.846c.1 0 .28.02.52.07v0c.03 0 .08.01.12.01v0c.07-.01.14-.03.21-.06v0c.03-.02.08-.03.125-.03 .09 0 .19.06.29.18 .08.1.14.21.19.32h0c.04.09.07.2.07.31v0c0 .08-.04.15-.09.21v0c-.07.05-.15.08-.23.08v0c-.08 0-.14-.02-.2-.06v0c-.11-.08-.2-.16-.29-.24 -.14-.14-.25-.2-.34-.2v0c-.06-.01-.12.02-.16.06h-.001c-.05.04-.07.09-.07.15 0 .1.1.2.3.29 .36.16.63.33.827.53 .16.16.24.36.24.59 0 .29-.13.54-.39.74v0c-.24.17-.53.26-.83.25 -.09 0-.24-.02-.46-.05H8.17c-.12-.02-.24-.03-.35-.04v0c-.04 0-.07 0-.1.01v0c-.05 0-.09.01-.14.01v0c-.09 0-.17-.03-.24-.08v0c-.11-.11-.19-.24-.25-.38v0c-.07-.14-.11-.29-.12-.44 0-.2.07-.3.23-.3 .06 0 .11.02.16.05 .05.03.15.14.31.31 .08.09.16.15.21.19v-.001c.05.03.11.05.18.05 .07 0 .12-.02.16-.06v0c.04-.04.06-.1.06-.15 0-.1-.09-.19-.25-.27 -.35-.17-.59-.35-.75-.53l0-.001c-.15-.18-.24-.4-.23-.62 0-.26.07-.48.23-.66 .22-.27.524-.4.9-.4Zm4.994 1.57l-.43 1.15h-.001c-.09.24-.19.47-.32.7v0c-.1.17-.22.32-.359.46 -.28.26-.61.39-1 .39 -.32 0-.58-.09-.766-.25v0c-.15-.12-.24-.3-.23-.49 0-.17.05-.31.15-.42v-.001c.09-.11.24-.18.38-.17 .15 0 .27.05.37.15h0c.03.03.06.07.08.125 .01.03.03.11.06.24 .02.09.07.14.16.14v0c.06-.01.12-.04.16-.09h-.001c.04-.07.06-.14.06-.22 0-.1-.06-.27-.17-.51l-.77-1.638v-.001c-.05-.12-.11-.23-.19-.32v0c-.08-.07-.18-.12-.27-.16l-.001 0c-.05-.03-.09-.06-.11-.11v0c-.03-.05-.05-.1-.05-.15 0-.19.18-.32.56-.39 .25-.05.53-.07.859-.07 .22 0 .4.02.53.07 .17.06.26.16.26.31v0c-.01.06-.04.13-.08.18h0c-.05.05-.07.11-.07.18 0 .05.01.1.03.16 .02.05.07.14.14.28 .08.14.15.22.21.22s.13-.07.2-.2v0c.06-.12.1-.25.1-.38h-.001c0-.09-.03-.18-.08-.24 -.09-.1-.13-.18-.13-.25 0-.11.07-.2.21-.26 .14-.07.33-.1.58-.1 .45 0 .67.1.67.32v0c0 .06-.03.13-.07.19v0c-.08.06-.16.1-.26.13h-.001c-.1.03-.19.1-.25.19 -.1.13-.2.37-.32.702Zm3.18-2.82c.23 0 .48.02.72.06 .2.03.34.08.43.14 .08.06.13.14.13.24v0c0 .05-.02.11-.05.15v0c-.07.05-.14.1-.21.13 -.13.06-.2.13-.22.22 -.02.08-.04.42-.05 1 -.01.56-.02.9-.02 1.016v0c-.01.11-.02.22-.04.32 -.07.31-.19.55-.38.73 -.16.14-.35.25-.6.34v0c-.25.08-.51.12-.76.125v0c-.24-.01-.48-.04-.72-.1v0c-.22-.06-.43-.14-.62-.26v0c-.15-.09-.27-.22-.35-.37v0c-.09-.15-.13-.32-.13-.49 0-.22.06-.39.2-.53h-.001c.13-.14.31-.22.5-.21 .19 0 .36.05.5.17v0c.13.1.2.26.2.44 0 .04-.02.11-.04.22v0c-.01.02-.01.04-.01.07v0c-.01.06.02.12.07.16h-.001c.05.04.12.06.19.06v0c.14 0 .27-.08.34-.2 .08-.13.13-.3.13-.51l-.01-.3 -.01-.782v0c-.01-.28-.03-.56-.05-.84v0c-.01-.08-.04-.15-.08-.21v0c-.03-.04-.06-.07-.09-.09v0c-.07-.03-.14-.05-.2-.07V9.83c-.06-.02-.11-.05-.14-.09V9.74c-.04-.05-.06-.1-.06-.16 0-.12.04-.21.13-.28 .09-.07.23-.125.44-.17v0c.23-.05.46-.08.7-.08Zm4.15 2.99h-1.51c-.07 0-.1.02-.1.08 0 .13.07.26.22.391 .15.12.31.18.48.18 .1 0 .21-.02.34-.06 .125-.04.22-.09.3-.15 .07-.06.13-.08.17-.08 .05 0 .11.03.16.1v0c.04.05.07.13.08.21 0 .15-.1.3-.29.44 -.34.25-.73.38-1.18.38 -.45 0-.83-.13-1.13-.39v0c-.36-.31-.56-.76-.56-1.23 0-.36.1-.68.32-.97 .18-.25.42-.44.71-.56 .21-.1.45-.14.7-.14 .4 0 .74.11 1.032.34 .14.11.25.25.34.4 .1.17.15.35.15.52v0c0 .11-.03.23-.09.34 -.06.08-.14.13-.23.13Zm-1.42-.6h.32c.13 0 .2-.07.2-.19v0c0-.11-.04-.21-.1-.29v0c-.07-.08-.17-.12-.26-.11l0-.001c-.12-.01-.22.04-.29.14v0c-.06.07-.1.16-.1.26 0 .06.01.1.04.13 .03.02.08.03.16.03Zm3.76-.32v1.07c0 .12.03.23.09.31v0c.05.07.14.12.24.12 .08 0 .19-.04.32-.12v0c.02-.02.06-.03.09-.03 .05 0 .09.03.14.09v0c.04.05.06.12.06.2 0 .13-.08.25-.22.38 -.31.25-.67.38-1.1.38 -.35 0-.62-.1-.83-.29 -.21-.2-.31-.45-.31-.77v-1.48c0-.05-.01-.08-.02-.1 -.02-.02-.05-.02-.1-.02h-.33c-.07 0-.11-.01-.12-.03 -.02-.02-.03-.07-.03-.15v-.15c0-.07.02-.12.07-.15l1.46-.92 0-.001c.04-.03.08-.04.13-.03h.25c.05 0 .08.01.1.03 .01.02.02.07.02.14v.43c0 .06.01.1.03.125 .02.01.06.02.12.02h.59c.07 0 .13.01.15.04 .02.02.03.09.03.18v.18c0 .1-.02.17-.05.21 -.03.03-.09.05-.17.05h-.58c-.06 0-.1.01-.13.03 -.02.02-.03.06-.03.12Z"/></svg>