<svg viewBox="0 0 24 24" xmlns="http://www.w3.org/2000/svg"><path d="M6.056 12.132v-4.92h1.2v3.026c.59-.71 1.4-.91 2.202-.91 1.34 0 2.82.9 2.82 2.85 0 .23-.02.45-.06.66 .24-.96 1.27-1.31 2.89-1.35 .51-.02 1.09-.02 1.56-.02v-.14c0-.89-.56-1.25-1.53-1.25 -.72 0-1.25.3-1.31.81h-1.28c.13-1.29 1.5-1.62 2.686-1.62 1.064 0 1.99.27 2.41 1.02l-.44-.84h1.41l2.05 4.125 2.05-4.13h1.24l-3.72 7.3H18.88l1.07-2.04 -2.33-4.38c.13.25.2.55.2.93v2.46c0 .34.01.69.04 1h-1.12v0c-.04-.26-.05-.51-.05-.77 -.61.734-1.32.96-2.32.96 -1.48 0-2.28-.78-2.28-1.7 0-.15.01-.29.03-.41 -.3 1.24-1.36 2.08-2.77 2.08 -.87 0-1.694-.32-2.2-.93 0 .24-.02.49-.04.734H5.93c.02-.39.04-.86.04-1.25v-1.05H1.14c.06 1.09.81 1.74 1.85 1.74 .718 0 1.35-.3 1.56-.93h1.24C5.55 14.47 4.18 14.9 3 14.9c-2.15.02-3.1-1.17-3.1-2.76 0-1.76.982-2.91 3.11-2.91 1.68 0 2.93.88 2.94 2.8v0Zm9.13.18c-1.1.03-1.77.23-1.77.95 0 .46.36.97 1.3.97 1.26 0 1.93-.69 1.93-1.814v-.13c-.45 0-.99 0-1.484.02h.01Zm-6.06 1.875c1.11 0 1.87-.81 1.87-2.02 0-1.22-.77-2.02-1.9-2.02 -1.11 0-1.89.8-1.89 2.02 0 1.21.76 2.02 1.875 2.02h.03Zm-4.35-2.52c-.05-1.125-.86-1.55-1.73-1.55 -.944 0-1.7.47-1.815 1.54Z"/></svg>