<svg viewBox="0 0 24 24" xmlns="http://www.w3.org/2000/svg"><path d="M3.35.01C1.56.01.02 1.269-.01 2.93v1.436H2.5l3.86 8.896 4.02-8.8h5.07l2.18 3.98 2.56-3.99h3.77V2.92C23.96 1.25 22.4-.02 20.6-.02Zm20.64 5.65L15.11 19.22H12.43c-.02-.63-.19-1.24-.51-1.74l3.609-5.71 -2.75-4.36 -3.83 8.42 -.04-.01v0c-1.9 0-3.43 1.53-3.44 3.43 0 .02 0 .04 0 .06h-.27L-.05 7.47v13.55c0 1.66 1.56 2.93 3.35 2.93h17.28c1.81 0 3.35-1.28 3.35-2.94v-1.83h-3.59l-1.6-2.88 2.224-3.378 2.95 4.66ZM8.92 17.16v0c1.16-.01 2.1.93 2.1 2.09 0 0 0 0 0 0v0c0 1.16-.95 2.1-2.106 2.1 -1.17 0-2.106-.95-2.106-2.11s.93-2.1 2.1-2.11Z"/></svg>