<svg viewBox="0 0 24 24" xmlns="http://www.w3.org/2000/svg"><path d="M4.98 2.75v0c-.4 0-.74.27-.83.65L3.53 6.07H3.53c-.04.15-.03.31.02.45h0c-.11.11-.19.25-.23.4L.95 17.15c-.05 0-.07 0-.12 0l0 0c-.45.01-.8.37-.81.82l-.06 2.38h0c-.02.46.35.85.82.86 0 0 .01 0 .02 0 1.35-.01 2.71-.01 4.06-.02 .54-.02 1.09-.24 1.5-.64 .4-.4.65-.93.84-1.55h-.001c0-.02 0-.04.01-.05l.09-.41v0c.1.35.43.6.8.6h2.51v-.001c.32-.01.62-.19.76-.49l6.88-14.78c.26-.56-.15-1.2-.77-1.2h-2.52 0c-.33 0-.63.18-.77.48l-1.44 3.07v0c-.07-.02-.14-.03-.21-.03h-2.45l.57-2.51c.12-.53-.28-1.04-.83-1.04Zm15.65 0v0c-.33 0-.63.18-.77.48L12.97 18c-.26.55.14 1.19.76 1.19h2.51v0c.32-.01.62-.19.76-.49l6.88-14.78c.26-.56-.15-1.2-.77-1.2Zm-15.66.84h4.98l-.62 2.67H4.34Zm10.07 0h2.51l-6.89 14.77H8.14l.34-.74h1.9v0c.39-.01.73-.28.82-.66l.85-3.71c.12-.53-.28-1.04-.83-1.04h-.26l.26-.56h.5 0c.39-.01.73-.28.82-.66l.85-3.71v0c.02-.12.02-.23 0-.35Zm5.57 0h2.51l-6.89 14.77h-2.52ZM4.13 7.12h2.62l-.82 3.51c-.13.52.27 1.03.82 1.03h1.3l-.13.55H6.23v0c-.4 0-.74.27-.83.65l-.86 3.7c-.13.52.27 1.03.82 1.03h1.3l-.28 1.18c-.33 1.09-.81 1.53-1.59 1.57l-4.03.01 .05-2.39c.48-.02.7 0 .851-.42Zm3.48 0h5l-.86 3.7H6.74Zm1.3 4.54h1.4l-.27.55H8.77Zm-2.69 1.39h5l-.86 3.7H5.35Z"/></svg>