<svg viewBox="0 0 24 24" xmlns="http://www.w3.org/2000/svg"><path d="M1.353 11.424c0 2.63.96 5.105 2.636 7.01l-1.01.9h0c-1.93-2.19-2.99-5.01-2.99-7.92 -.001-3.359 1.38-6.4 3.6-8.58l.05.04 2.98 2.67H6.61c-2.79 2.55-3.39 6.72-1.44 9.96l1.03-.923 -.001-.001c-1.5-2.71-.91-6.09 1.41-8.14l1.02.915 .9.81 .94.84h-.001c-.82.5-1.32 1.4-1.32 2.36 0 1.23.79 2.27 1.89 2.64l.09 1.29h0c-2.18-.45-3.59-2.57-3.15-4.75 .11-.55.33-1.07.66-1.53l-.9-.81 -.01-.01v0c-1.48 1.96-1.39 4.68.2 6.54l-3.03 2.71H4.9c-2.98-3.41-3.07-8.47-.21-11.97l-1.02-.91 -.001 0c-1.44 1.73-2.28 3.88-2.41 6.14l-.01 0 0 0c-.02.2-.02.4-.02.61Zm11.54 2.63v0c1.46-.5 2.24-2.08 1.75-3.55 -.21-.62-.62-1.14-1.17-1.48l.94-.85 .9-.82 1.02-.915V6.43c2.32 2.04 2.91 5.42 1.41 8.13l1.02.923v0c1.95-3.24 1.35-7.41-1.44-9.97l2.98-2.68 .05-.05 -.001 0c2.3 2.25 3.6 5.34 3.6 8.57 0 2.98-1.1 5.76-2.99 7.91l-1.01-.91v-.001c1.84-2.1 2.78-4.84 2.61-7.63l0-.01 -.01-.01h-.001c-.13-2.26-.98-4.41-2.41-6.15l-1.01.9 -.001 0c2.85 3.5 2.76 8.56-.22 11.97l-3.03-2.71v0c1.59-1.87 1.67-4.59.2-6.55l-.01 0 -.9.8h0c1.28 1.81.85 4.32-.96 5.6 -.46.32-.98.54-1.53.66Zm-.9 7.08l.33-4.58 .27-3.72v-.001c.79-.34 1.16-1.25.83-2.05 -.34-.8-1.25-1.17-2.05-.84 -.8.33-1.17 1.24-.84 2.04 .15.37.45.67.83.83l.27 3.71Z"/></svg>