<svg viewBox="0 0 24 24" xmlns="http://www.w3.org/2000/svg"><path d="M11.998 0c-1.65 0-3.23.893-4.68 2.655 -.94 1.134-1.82 2.63-2.567 4.368 -1.338.2-2.399.48-3.15.81v0c-.76.33-1.24 1.1-1.21 1.93 .04 1.43.385 2.92.64 3.92 .22.86.95 1.51 1.83 1.62v.01l0 0c.24 4.85 4.25 8.67 9.12 8.668l-.01-.01h0c4.86 0 8.87-3.81 9.12-8.667v-.02h0c.88-.12 1.62-.76 1.84-1.63 .25-1 .59-2.49.64-3.93v0c.02-.83-.46-1.6-1.21-1.93 -.77-.34-1.83-.62-3.154-.82 -.75-1.73-1.64-3.228-2.57-4.361C15.17.85 13.6-.05 11.95-.05Zm-.01.82c1.41 0 2.78.79 4.08 2.37 .94 1.15 1.84 2.71 2.58 4.512 1.2.16 2.44.41 3.33.8 .49.21.8.71.78 1.24 -.04 1.346-.38 2.785-.61 3.73v0c-.17.64-.74 1.09-1.4 1.1h-.02c-.15 0-.3-.01-.44-.02v0c.03 1.12-.16 2.24-.56 3.29h0c-1.26 3.19-4.34 5.28-7.77 5.28h-.01v-.01 0c-3.43-.01-6.51-2.1-7.77-5.29H4.17c-.41-1.05-.61-2.17-.58-3.29 -.14 0-.28.01-.42.01h-.01v0c-.67-.01-1.24-.47-1.395-1.11 -.248-.96-.58-2.39-.62-3.73v0c-.02-.54.29-1.04.78-1.26 .83-.38 2.075-.63 3.31-.81 .74-1.81 1.64-3.37 2.58-4.52C9.11 1.53 10.49.74 11.902.74Zm0 .77v-.001c-.6.01-1.19.18-1.7.492 -1.84 1.05-3.25 3.558-4.11 5.528 1.096-.12 2.13-.19 2.78-.18 .54-.01 1.06.21 1.44.59v0c.49-.24 1.03-.36 1.58-.37l-.001 0c.54 0 1.08.13 1.58.36v0c.37-.39.89-.6 1.42-.593 .43-.01 1.53.03 2.77.16 -.86-1.96-2.28-4.461-4.11-5.518V2.05c-.52-.32-1.1-.49-1.7-.5Zm3.215 7.04v0h-.001c-.46-.01-.86.32-.93.77 -.1.53-.17 1.064-.2 1.6 -.01.61.21 1.03.65 1.25 1.25.55 2.66.89 4.27 1.03 -.19-1.38-.58-2.958-1.12-4.5 -1.09-.13-2.12-.18-2.683-.17Zm-6.43 0v0c-.89 0-1.77.06-2.65.15 -.54 1.54-.93 3.12-1.11 4.5 1.59-.14 2.98-.48 4.22-1.04 .44-.22.66-.64.65-1.26h0c-.04-.54-.1-1.08-.2-1.6v0c-.08-.46-.48-.79-.93-.78Zm-3.5.266c-.63.09-1.242.21-1.79.36l1.5.53c.08-.3.18-.6.28-.9Zm13.45.01c.09.29.18.58.27.87l1.46-.52 -.001-.001c-.58-.16-1.15-.28-1.74-.36Zm-6.746.34v0c-.18-.01-.34.04-.48.14 -.31.2-.41.58-.38.86 .12 1.13.07 2.388-1.23 3.01l-.02 0v0c-.63.29-1.27.53-1.93.7 -1.162.3-2.36.5-3.548.57l0-.001c-.15 4.18 3.13 7.68 7.31 7.82 3.21.1 6.14-1.83 7.31-4.83v0c.37-.96.54-1.99.5-3.01V14.5c-1.2-.08-2.38-.27-3.53-.58 -.67-.18-1.31-.41-1.94-.7l-.02-.02c-1.31-.63-1.36-1.88-1.23-3.01 .03-.29-.08-.67-.38-.87V9.32c-.15-.1-.31-.15-.48-.15ZM2.62 11.12c.11.72.27 1.42.4 1.95 .04.17.19.29.37.29 .28-.01.55-.03.83-.04 .07-.62.19-1.27.35-1.95l-.001 0c-.66-.09-1.31-.17-1.96-.26Zm18.695 0c-.75.09-1.51.19-1.91.24 .15.68.27 1.34.35 1.96 .26.01.5.03.77.03v0c.17-.01.32-.12.37-.29 .13-.53.29-1.23.4-1.96Z"/></svg>