<svg viewBox="0 0 24 24" xmlns="http://www.w3.org/2000/svg"><path d="M16.74 11.21l-.45-.78v0c-.02-.03-.06-.04-.09-.03l-2.02 1.16 -1.99-1.17v0c-.03-.02-.07-.01-.09.02l-.46.78v0c-.02.02-.01.06.02.08l2 1.17v2.36c0 .03.02.06.06.06h.89v0c.03 0 .06-.03.06-.06v-2.38l2-1.17c.02-.02.03-.06.02-.09Zm-3.87 1.58c-.02-.03-.06-.04-.09-.03l-1.35.79c-.03.01-.04.05-.03.08l.19.32c.01.02.05.03.08.02l1.343-.8c.02-.02.03-.06.02-.09ZM14.4 9.1l-.45 0c-.02 0-.03.01-.03.03l0 1.62c0 .01.01.02.03.02h.44c.01 0 .02-.01.02-.04l-.01-1.62h-.001c-.01-.02-.02-.04-.04-.04Zm2.55 4.37l-1.42-.8c-.02-.01-.04-.01-.04.01l-.22.38c-.01.01-.01.03.01.03l1.41.79c.01 0 .03 0 .03-.01l.21-.39c.01-.01 0-.04-.02-.04Zm-14.06.12H.99V13h1.68 -.001c.04 0 .07-.04.07-.08 0-.01 0-.01 0-.01v-.65 -.001c0-.05-.04-.08-.08-.08 -.01-.01-.01-.01-.01 0H.95v-.56h1.87v0c.04 0 .07-.04.07-.08 0-.01 0-.01 0-.01v-.72 0c0-.05-.04-.08-.08-.08 -.01-.01-.01-.01-.01 0H-.01h0c-.05-.01-.08.03-.08.07 -.01 0-.01 0 0 0v3.526c0 .04.033.07.07.07h2.83v0c.04 0 .07-.04.07-.08 0-.01 0-.01 0-.01v-.72l0 0c-.01-.05-.04-.08-.08-.08ZM6.85 12.3H5.23v.74h.72v.44s0 .01-.01.01c-.16.09-.34.14-.59.14 -.59 0-1-.43-1-1.02v-.02c0-.57.41-1.01.93-1.01 .33 0 .58.11.83.3 .03.02.08.02.1-.01l.5-.61v0c.02-.04.02-.09-.01-.11 -.38-.31-.82-.49-1.436-.49 -1.14 0-1.98.84-1.98 1.91v.01c0 1.11.85 1.9 2 1.9v0c.57 0 1.12-.19 1.57-.55l0-.001c.01-.02.02-.04.02-.06V12.33c0-.05-.03-.08-.08-.08Zm4.04-1.54h-.86v0c-.05-.01-.08.03-.08.07 -.01 0-.01 0-.01 0v1.86l-1.49-1.92 -.001 0c-.02-.02-.04-.03-.06-.03h-.84v0c-.05-.01-.08.03-.08.07 -.01 0-.01 0-.01 0v3.52c0 .04.03.07.07.07h.85v0c.04 0 .07-.04.07-.08 0-.01 0-.01 0-.01v-1.95l1.55 1.99v0c.01.01.03.02.06.02h.78 -.001c.04 0 .07-.04.07-.08 0-.01 0-.01-.01-.01v-3.53c-.01-.04-.05-.08-.09-.08Zm9.57 0h-3.08v0c-.05-.01-.08.03-.08.07 -.01 0-.01 0-.01 0v.74c0 .04.03.07.07.07h1.02v2.71c0 .04.03.07.07.07h.86v0c.04 0 .07-.04.07-.08 0-.01 0-.01 0-.01V11.63c0-.01 0-.01.01-.01h1.01v0c.04 0 .07-.04.07-.08 0-.01 0-.01 0-.01v-.75 -.001c-.01-.05-.04-.08-.08-.08Zm3.433 2.81h-1.9v-.59h1.69 -.001c.04 0 .07-.04.07-.08 0-.01 0-.01 0-.01v-.65 0c0-.05-.04-.08-.08-.08 -.01-.01-.01-.01-.01 0h-1.7v-.56h1.87v0c.04 0 .07-.04.07-.08 0-.01 0-.01 0-.01v-.72 0c0-.05-.04-.08-.08-.08 -.01-.01-.01-.01-.01 0h-2.81v0c-.05-.01-.08.03-.08.07 -.01 0-.01 0 0 0v3.526c0 .04.03.07.07.07h2.83v0c.04 0 .07-.04.07-.08 0-.01 0-.01 0-.01v-.72 0c0-.05-.04-.08-.08-.08 -.01-.01-.01-.01-.01-.01Z"/></svg>