<svg viewBox="0 0 24 24" xmlns="http://www.w3.org/2000/svg"><path d="M13.318-.001c-6.63 0-12 5.372-12 12 0 2 .49 3.9 1.36 5.56h0c1.4-1.59 3.14-2.84 5.09-3.67 .3-.13.62-.22.94-.28v0c-.19-.52-.29-1.07-.29-1.62H8.41c0-2.7 2.18-4.88 4.87-4.88 .92 0 1.83.26 2.61.76v-.001c.61.38 1.38.45 2.05.16l0-.001c1.83-.78 3.44-2 4.69-3.56v0c-2.28-2.85-5.73-4.51-9.37-4.5Zm-3.9 15.77c-.266.01-.54.06-.79.17l0 0c-1.84.77-3.45 2-4.69 3.55 2.2 2.74 5.57 4.5 9.36 4.5 3.78 0 7.16-1.76 9.364-4.5v0c-1.25-1.56-2.86-2.78-4.69-3.56v0c-.68-.29-1.44-.23-2.06.16v0c-.79.5-1.7.76-2.62.76v0c-.93 0-1.84-.27-2.62-.77h-.001c-.38-.25-.83-.36-1.28-.34Z"/></svg>