<svg viewBox="0 0 24 24" xmlns="http://www.w3.org/2000/svg"><path d="M12 0v0C5.37 0 0 5.37 0 12c0 6.62 5.37 12 12 12v0c6.62 0 12-5.38 12-12 0-6.63-5.38-12-12-12Zm0 1h-.001c4.92-.01 9.25 3.27 10.59 8.01v0c-1.13 2.32-2.72 4.38-4.66 6.08 -.94.81-1.96 1.53-3.08 2.04 -1.13.5-2.37.8-3.6.72l-.001 0c-.94-.06-1.85-.32-2.66-.76v0c2.15-1.17 4.08-2.72 5.68-4.58l-.001-.001c1.09-1.19 1.88-2.62 2.31-4.17 .18-.79.2-1.6.04-2.4v0c-.17-.79-.54-1.52-1.08-2.11v0c-.55-.58-1.24-.99-2-1.19l-.001-.001c-.77-.21-1.56-.23-2.33-.08v0c-1.54.34-2.94 1.13-4.01 2.29v0C5.17 6.79 4.1 9.52 4.25 12.33H4.25c.13 1.7.82 3.31 1.95 4.59l-.001 0c-1.16.4-2.35.68-3.56.85h0C-.56 12.6 1.05 5.82 6.21 2.63 7.94 1.55 9.94.99 11.98.98Zm.07 2.22c.77 0 1.55.24 2.17.7 .55.42.97 1.02 1.2 1.68 .23.65.3 1.37.21 2.06v0c-.23 1.38-.81 2.68-1.7 3.76v-.001c-1.68 2.16-3.87 3.86-6.37 4.96 -.48-.42-.9-.92-1.2-1.48H6.37c-.64-1.19-.9-2.54-.75-3.87 .12-1.32.58-2.6 1.2-3.79V7.23c.64-1.42 1.69-2.61 3.02-3.42 .68-.37 1.45-.6 2.22-.6Zm10.83 7.3v-.001c.81 6.02-3.41 11.56-9.43 12.37 -3.77.5-7.53-.97-9.96-3.9l0 0c1.24-.29 2.46-.69 3.63-1.2 .51.4 1.08.71 1.67.94v-.001c1.76.62 3.68.6 5.44-.04l0 0c1.73-.65 3.31-1.66 4.64-2.95l0-.001c1.61-1.51 2.96-3.28 4-5.22Z"/></svg>