<svg viewBox="0 0 24 24" xmlns="http://www.w3.org/2000/svg"><path d="M6.68 11.326c.25-.14.4-.31.43-.5 .04-.18-.12-.16-.16-.13 -.15.11-.33.29-.51.41v0c-.09 0-.17.01-.25.03 -.02-.01-.05-.05-.04-.06 .16-.11.34-.21.45-.35 .07-.09.04-.17-.11-.19 -.17-.03-.36.04-.51.17 -.26.21-.38.69-.4.99 -.06.05-.07.05-.125.07v-.001c-.1-.34-.05-.69.13-.98 .02-.07 0-.17-.09-.2 -.06-.02-.08-.01-.11.05 -.13.35-.34.5-.65.73 -.03.02-.31.17-.38.21 -.24-.08-.51-.53-.74-.86H3.61c-.05-.07-.13-.1-.2-.09 -.5.05-.87.01-1.13-.38 -.12-.17-.18-.19-.33-.05 -.17.17-.33.3-.496.44 -.09.05-.15.03-.19-.08H1.26c-.12-.34-.18-.69-.17-1.05 0-.15.01-.38.02-.52H1.11c-.1-.09-.2-.16-.32-.22 -.42-.2-.91-.67-.91-.8 0-.04.025-.12.14-.19 .609-.27 1.08-.05 1.263-.07 .15-.02.2-.13.17-.35v-.001c-.07-.41.08-.81.38-1.08 .2-.22.19-.47.14-.74 -.03-.13-.06-.16-.18-.15 -.33.07-.32.08-.38.37v0c-.04.18-.11.36-.21.53 -.14.21-.31.38-.47.57 -.06.07-.12.07-.2.02h0c-.47-.29-.66-.88-.43-1.37 .05-.15.132-.3.21-.38l.04.01c0 .02 0 .05-.01.08l-.1.3c-.13.36-.11.69.13 1 .07.1.15.12.19.08 .15-.16.31-.3.44-.47 .16-.19.21-.42.16-.65H1.16c-.02-.09-.03-.18-.05-.27 -.03-.13-.08-.12-.14-.05 -.15.15-.22.27-.29.54v0c-.02.03-.04.07-.07.09h0c-.03-.05-.04-.1-.04-.15C.61 5.38.66 5.16.83 5c.1-.12.07-.18-.02-.21 -.36-.1-.67-.2-.94-.53H-.13c-.05-.06-.08-.12-.08-.18 0-.07.037-.13.116-.19 .314-.22.629-.44.94-.51 .12-.03.19-.04.25-.05C.94 2.89.8 2.37.71 1.88c0-.1.07-.38.1-.46v0c.09-.02.18 0 .27.03 .14.05.27.14.41.22 .12.07.16.07.24-.05 .14-.21.31-.397.53-.51 .07-.04.12-.07.17-.07 .07 0 .125.04.19.15 .12.19.22.41.33.62 .125.21.25.22.44.08 .21-.14.4-.28.59-.44 .18-.14.23-.14.43-.01 .17.12.37.35.46.55 .02.03.43-.19.44-.29 .01-.18.06-.31.133-.46 .08-.18.21-.23.32-.23 .1 0 .29.11.44.2l.31.18c.16.09.17.09.27-.07 .11-.18.2-.21.43-.21 .45 0 .86.11 1.18.49 .05.07.11.08.18.01 .12-.14.24-.19.48-.19h.42c.09 0 .15 0 .24-.12 .11-.17.24-.33.43-.33 .29 0 .68.41.88.778l-.11.05V1.79c-.23-.22-.49-.39-.78-.49 -.19-.08-.26 0-.24.18 .02.22.08.44.13.66v0c.07.21.23.38.43.46l.01.07c-.04-.01-.08-.02-.13-.03v0c-.13-.03-.27-.02-.39.01 -.25.06-.48.17-.7.26 -.12.05-.12.08-.02.17 .12.11.24.24.38.35 .4.3.8.24 1.24.07l.2-.07c.18-.04.38.04.53.18l.44.4c.14.13.17.25.08.42 -.15.28-.31.57-.47.85l0 0c-.03.04-.06.08-.11.1 -.06-.05-.11-.15-.05-.24 .19-.25.32-.6.36-.84 .04-.24-.09-.34-.31-.29l-.19.07c-.08.02-.11 0-.13-.09 -.03-.07-.07-.12-.1-.19 -.05-.13-.125-.17-.23-.09v0c-.18.1-.33.24-.43.41v0c-.16.29-.23.63-.18.96 0 .04.03.07.06.09V5.17c.03-.02.06-.05.08-.09 .05-.15.09-.29.12-.45 .01-.09.02-.25.05-.33 .02-.05.08-.03.125-.02 .09.03.13.08.14.15 -.19.23-.31.58-.43.9 -.02.04-.1.09-.15.09 -.06-.01-.14-.06-.16-.11 -.08-.2-.21-.4-.26-.6 -.14-.68-.18-.72-.21-.76v0c-.27-.44-.61-.83-1.01-1.15 -.04-.04-.05-.07-.08-.1 .03-.02.06-.05.1-.07 .12-.06.26-.11.39-.15v0c.15-.06.28-.17.35-.32 .04-.09.1-.18.15-.26 .07-.13.06-.19-.03-.3v0c-.17-.19-.42-.27-.66-.21 -.26.06-.41.24-.49.484v0c-.04.08-.05.17-.05.27 0 .13.04.16.15.09 .18-.16.39-.28.59-.41l0 0c-.09.2-.23.37-.41.49 -.13.07-.25.14-.38.21 -.11.07-.14.04-.18-.09 -.03-.133-.02-.27-.02-.41v0c.02-.4-.22-.76-.59-.89L7.12 1l0 0c-.09.06-.14.17-.13.28 .02.36.07.62.14.92 .05.12.19.17.33.19 .08-.05.14-.16.03-.34l-.17-.32c-.02-.05-.04-.08-.05-.13 -.01-.02-.02-.05 0-.07 .02 0 .04 0 .08.05 .2.22.37.476.48.79 .04.12 0 .17-.12.18 -.28.02-.55.04-.82.1 -.44.09-.58.24-.74.53 -.07.125-.1.2-.11.278 .15.01.32 0 .57-.05v0c.2-.03.41-.1.59-.2 .11-.137.2-.28.38-.4 .05-.04.16-.05.21-.03v-.001c.5.22.9.61 1.13 1.11 .01.05.06.1.09.14 .05.05.03.08-.05.07 -.1-.03-.21-.06-.3-.09 -.04-.02-.07-.08-.09-.12l-.09-.26c-.05-.11-.08-.11-.18-.07 -.06.02-.12.04-.2.08 -.08.03-.12.04-.13-.05 -.03-.13-.06-.25-.09-.36 -.05-.137-.11-.17-.24-.1 -.25.129-.43.32-.56.56 -.12.24-.17.4-.06 1.04 .02.12.125.27.24.31l1.07.33c.05 0 .08.06.02.1 -.14.09-.28.17-.42.25 -.07.04-.11.02-.14-.05v0c-.1-.19-.26-.33-.45-.41 -.07-.04-.11-.02-.14.05 -.05.11-.11.28-.15.4 -.03.06-.06.08-.13.04 -.31-.26-.63-.27-1.005-.22 -.19.02-.274.07-.23.26 .1.51.55.75.94.92v0c.05-.02.1-.06.13-.11 .05-.09.04-.17-.05-.24 -.15-.13-.47-.28-.62-.42 -.03-.09.15-.16.24-.1 .28.12.49.36.72.58 .11.11.17.09.2-.07 .04-.13.08-.32.12-.46 .02-.08.06-.05.08-.01 .02.1.06.24.06.37s-.05.24-.09.37c-.03.12-.12.19-.23.16 -.48-.05-.835.17-1.13.18v0c-.1-.02-.19-.04-.28-.08 -.11-.09.05-.09.08-.09 .12 0 .31 0 .41-.06v0c-.04-.05-.08-.09-.13-.12 -.27-.22-.57.01-.79.12 -.13.07-.14.08-.09.22 .08.2.23.28.43.28 .11 0 .22.01.34.01v0c.05-.01.11-.02.16-.05 .15-.06.29-.14.43-.2 .17-.03.17.06.09.15l-.36.21c-.04.02-.08.03-.11.05 -.05.03-.12.1-.11.12v0c.02.05.07.09.13.11 .16.05.33.07.48.11 .25.05.36-.02.43-.28 .03-.14.08-.28.14-.41 .04-.09.09-.09.14-.01 .17.32.35.63.54.952 .03.07 0 .1-.07.09H7.92c-.41-.04-.81-.09-1.2-.15 -.14-.02-.27-.11-.41-.17 -.21-.1-.42-.19-.65-.18 -.21 0-.32.12-.25.31 .09.27.19.56.3.84 .07.19.26.26.46.27 .09.01.06-.06.03-.1l-.33-.72c-.05-.12-.01-.14.05-.04 .18.27.37.53.53.81 .1.17-.03.22-.15.22 -.42-.05-.8-.19-1.2-.34 -.05-.02-.1-.11-.09-.14 .07-.07.16 0 .24 0 .09.01.13-.03.1-.1v0c-.05-.09-.12-.16-.21-.19v0c-.19-.1-.39-.17-.6-.22 -.13-.03-.21.03-.19.14 .03.14.1.27.17.42 .02.04.02.1 0 .14 -.08-.01-.17.02-.476-.12 -.31-.13-.32-.22-.32-.6 0-.09 0-.25.01-.32 .03-.11.04-.13.13-.11 .32.06.65.15.968.3 .09.04.18.12.28.16 .08.03.12 0 .11-.09v0c-.01-.12-.08-.21-.19-.25 -.34-.15-.68-.31-1.02-.45 -.09-.04-.12-.07-.07-.16 .13-.23.2-.484.15-.77 0-.02.02-.05.04-.08v0c.08.02.14.1.15.19 .02.24.18.4.34.56 .31.33.31.33.766.22 .05-.01.1-.05.14-.09 -.05-.04-.09-.09-.14-.12 -.09-.05-.18-.07-.266-.11 -.3-.12-.39-.33-.29-.64h0c.1-.29.19-.58.27-.87 .03-.14.04-.29.05-.43 0-.09.06-.09.11-.1l.65-.05c.16-.02.35-.21.41-.32l.21-.36h0c-.13-.1-.3-.13-.45-.07 .05-.17.11-.32.11-.47 0-.1-.03-.22-.07-.33 -.05-.1-.12-.12-.2-.06 -.16.13-.29.29-.34.5 -.05.21-.14.609-.1.67 .1-.08.23-.18.31-.2v0c.05-.02.1-.01.14.02v0c-.15.13-.31.24-.48.33 -.12.05-.17-.02-.15-.14 .14-.54.05-.58 0-.85v0c-.09-.33-.22-.65-.41-.927 -.06-.08-.15-.05-.28.1 -.2.24-.25.44-.36.85l-.03.08 -.14.125 -.07-.07c.05-.2.11-.31.11-.46h0c0-.17-.08-.33-.21-.43 -.16.1-.3.22-.33.29H3.58c-.1.14-.1.33 0 .47 .15.27.133.55.08.88l-.05-.02h0c-.03-.22-.06-.43-.12-.63 -.04-.14-.12-.25-.19-.36 -.07-.11-.133-.33-.08-.42 .08-.15.34-.22.44-.36 .1-.16.05-.23.18-.37 .07-.1.24-.29.37-.23 .37.18.77.22 1.18.17 .17-.03.21-.02.26-.2 .04-.15.06-.05.21-.1 .25-.09.38-.31.38-.58 0-.15 0-.31-.01-.46C6.21.88 6.16.75 6.12.64 6.08.56 6.03.57 5.99.63c-.11.13-.28.405-.38.554 -.06.08-.1.17-.15.26 -.03.07-.06.08-.12.02V1.46c-.07-.08-.15-.14-.22-.19 -.14-.09-.15-.36-.1-.54 .05.03.1.09.13.18 .05.11.07.24.16.29 .12.06.24-.19.22-.36v0C5.52.79 5.51.75 5.48.71 5.34.47 5.04.28 4.86.28c-.22 0-.36.26-.27.51 .02.06.05.11.08.17 -.51.27-.65.43-.85.67 -.03.02-.05.11-.03.15 .09.18.05.24-.14.35 -.09.05-.21.09-.3.12 -.02 0-.04-.02-.07-.02v0c0-.02.01-.04.02-.05 .12-.28.26-.55.37-.823 .12-.31-.15-.59-.4-.68 -.17-.07-.29-.03-.4.12 -.27.32-.33.84.05 1.34 .05.08.04.11-.06.125 -.22.01-.43.04-.66.05l0 0c-.27.01-.51.14-.67.35 -.05.07-.12.09-.19.04 -.17-.11-.32-.08-.5.02 -.29.15-.629.27-.815.27 -.03 0-.07-.03-.09-.05 .01-.03.04-.07.1-.09 .17-.05.32-.09.48-.14 .02-.03.04-.1.05-.13 -.03-.05-.09-.1-.14-.1v0c-.15-.02-.31-.02-.46 0 -.4.03-.69.22-.94.45 -.12.11-.124.23 0 .33 .29.2.6.41.99.31 .27-.09.44-.29.62-.49 .15-.16.33-.35.5-.15 .25.29.3.59.71.53 .15-.02.22-.07.26-.22l.03-.18c.01-.12-.05-.18-.17-.13 -.08.02-.14.06-.22.08 -.05.01-.09-.01-.137-.02 0-.05.01-.1.04-.13 .07-.05.16-.1.24-.13 .31-.09.6-.15.91-.21V2.52c.03-.01.06-.01.09 0l-.03.08c-.12.25-.26.33-.47.38H2.38c-.06.05-.1.12-.12.19 -.13.41-.06.84.22 1.14 .09.11.22.2.351.28 .21.12.27.33.35.55 .05.13.1.27.16.41H3.34c-.18.11-.32.26-.42.44 -.05.04-.08.02-.1-.03l-.12-.3c-.11-.27-.29-.43-.58-.46 -.11-.01-.21-.03-.31-.04 -.12-.02-.2.04-.24.17 -.17.49-.01.92.46 1.19 -.38.09-.7.24-.89.51 .02.07.137.17.28.23 .37.15.75.13 1.105.01 .2-.08.21-.03.25.12l.1.46c.02.11-.04.17-.14.13 -.57-.17-1.242-.44-1.73-.766h0c-.21-.1-.43-.16-.65-.19 -.08.04-.14.09-.21.08l-.001 0c-.22-.06-.42-.13-.62-.22 -.1-.06-.11-.09.02-.11 .19 0 .53.08.71.08 .17-.06.17-.09.06-.16 -.42-.33-.89-.26-1.36-.18 -.17.03-.18.11-.09.24 .6.68 1.05.67 1.78.59 .48.3.96.57 1.52.75l.01.08 0-.001c-.39.02-.77.08-1.15.16 -.19.03-.22.14-.12.31 .15.24.38.35.65.41l-.001 0c.19.05.39.04.58-.04 .22-.11.36-.29.57-.41 .12-.07.33 0 .45.04 .19.06.37.14.56.17 .77.1 1.58.17 2.3.11L6.02 8.92c-.09.15-.15.31-.21.484 -.04.1-.01.12.1.11H5.91c.14-.01.28-.09.36-.21 .01-.12.01-.22.03-.34 .01-.07.03-.15.07-.16 .03-.01.2.02.18.07v0c-.06.16-.13.33-.19.49 .06.01.13.02.2.02 .29 0 .33-.05.32-.33H6.87c-.01-.09-.02-.17-.04-.25 -.04-.22 0-.37.19-.47 .18-.1.37-.07.55-.05l-.001 0c.57.09 1.11.34 1.56.7 .22.18.03.43.03.77 0 .21-.05.43-.04.55 0 .17.08.27.14.32 .19.15.41.3.62.44 .21.14.32.22.58.31v0c.05.01.12.01.18.01v-.001c.01-.09 0-.18-.02-.27 -.13-.09-.3-.13-.5-.19 -.04-.02-.08-.07-.1-.11v0c.04-.04.09-.07.14-.09l.32-.07v0c.03-.02.06-.04.08-.07 -.02-.03-.04-.07-.07-.08 -.14-.05-.31-.07-.42-.1 -.05-.02-.07-.05-.1-.09v-.001c.04-.04.09-.07.15-.09l.33-.05v0c.03-.01.06-.03.08-.06 -.02-.04-.03-.08-.06-.09 -.07-.04-.41-.16-.45-.2 -.03-.03-.04-.07-.05-.13v0c.04-.03.1-.04.15-.04l.27 0v0c.04-.01.08-.03.11-.06V9.59c-.02-.04-.05-.07-.08-.09 -.14-.09-.19-.15-.34-.21 -.07-.05-.11-.09-.12-.17h0c.06-.02.12-.02.18-.01 .1.02.15.05.26.07v0c.03 0 .07 0 .11-.02v0c0-.04-.01-.07-.03-.09 -.04-.05-.1-.07-.15-.1 -.08-.05-.21-.18-.28-.24 -.03-.02-.02-.09-.02-.11l.08 0c.1.02.24.06.33.07 .15.02.13 0 .06-.1 -.1-.09-.19-.14-.28-.24 -.03-.04-.02-.09-.02-.14 .14 0 .28.07.41.07 .01-.03.02-.05.02-.08v0c-.03-.09-.07-.17-.11-.25 -.04-.1.01-.14.08-.11 .1.04.25.12.36.14 .04.01.09 0 .15-.02 -.05-.1-.11-.18-.18-.28 -.02-.03 0-.07.02-.1 .17.05.34.16.49.2 .07.02.11 0 .13-.04 .01-.05-.12-.17-.11-.22 0-.04.01-.05.02-.07l.29.09c.21.05.33.07.36.02 .04-.02-.01-.12-.07-.23 .16-.02.18.06.48.12 .11.02 1.66-.19 2.29-.39 .24-.09.53-.21.77-.32l.07.01c.17.45.55.59.94.63 .11.01.23.02.35.02 .11 0 .13-.03.1-.14V7.26c-.1-.38-.3-.72-.58-.98l-.25-.16c-.11-.12-.1-.24.02-.34 .2-.14.46-.26.66-.39 .29-.19.38-.48.37-.78v0c-.01-.09-.05-.16-.11-.21v0c-.06.01-.12.05-.15.1 -.08.16-.16.3-.23.44 -.06.02-.12.04-.17.06 -.02-.05-.05-.1-.03-.15 .08-.26.31-.47.46-.63 .06-.11-.03-.15-.08-.14 -.17.03-.35.1-.48.24v0c-.32.39-.55.85-.66 1.35 -.03.12-.09.17-.13.29 -.06.18-.05.22.1.33 .22.14.52.28.74.43 .08.09.04.13-.05.12l0-.001c-.24-.01-.47-.11-.62-.28 -.09-.09-.16-.15-.25-.17 -.23.05-.54.14-.77.18 -.14.02-.24.07-.31.2 -.05.1-.14.12-.25.08 -.17-.05-.34-.11-.5-.14v0c-.28-.05-.56-.03-.83.05 -.12.01-.14-.01-.11-.12 .02-.14.07-.27.1-.41 0-.06.01-.15-.05-.18 -.06.02-.14.03-.16.07 -.09.12-.16.26-.24.4 -.06.11-.08.11-.19.06v0c-.17-.08-.33-.18-.47-.29 -.12-.18-.24-.33-.29-.48 -.02-.05.04-.08.09-.08 .125.09.27.22.38.33 .07.08.1.16.15.27 .01.02.13.02.15-.03 .01-.05.03-.11.05-.19v0c.04-.2-.01-.4-.14-.55 -.19-.19-.31-.23-.56-.4 -.32-.22-.36-.21-.48 0v0c-.1.17-.16.37-.16.57 .08.5.2.71.81 1.02v0c-.01.03-.03.06-.05.08 -.04.03-.07.05-.14.05 -.22-.01-.52-.02-.76-.04 -.07-.01-.11-.03-.13-.07v0c-.2-.76-.1-1.55.27-2.234v0c.03-.07.08-.13.14-.17 .12-.07.33-.16.45-.21 .07-.04.11-.01.14.06 .05.19.07.34.09.5 .01.1.01.2.05.22 .09.04.18-.04.23-.13v0c.19-.3.23-.68.09-1.01 -.02-.04.01-.1.05-.12 .42-.17.81-.35 1.24-.51 .24-.02.54.01.97.08 .07 0 .22.13.37.21 -.2.1-.48.3-.68.49 -.06.05-.13.13-.08.29 .16-.01.24-.06.37-.09 .19-.06.31-.09.46-.09v0c.04 0 .08 0 .12.01v0c-.01.04-.03.09-.06.12 -.06.05-.14.04-.21.07 -.07.04-.13.1-.09.17 .03.05.11.1.17.09 .19-.02.38-.04.58-.1 .09-.08.43-.53.24-.57 -.12-.03-.36-.05-.46-.1v0c.01-.07.06-.12.125-.14 .1.01.23.05.39.06v0c.27.03.54.02.81-.04 .11-.05.14-.09.11-.16h0c-.16-.32-.43-.56-.76-.67 -.15-.04-.33-.01-.49-.01l-1.34-.02c-.03 0-.07-.03-.1-.05 .02-.02.05-.05.07-.06 .12-.08.27-.14.39-.23V2.43c.18-.13.32-.33.36-.55v0c.01-.05.01-.09 0-.13 -.125-.46-.38-.786-.89-.85l-.26-.05c-.1-.01-.14.03-.14.12 0 .16 0 .24 0 .41 0 .08.04.11.13.12l0 0c.24.04.47.1.7.2 .13.05.16.13 0 .27l-.38.26c-.07.04-.1 0-.11-.06 -.01-.1-.01-.21-.03-.31h0c-.01-.04-.03-.07-.06-.1v0c-.09.01-.17.08-.2.16 -.05.13-.09.25-.11.38v0c-.03.15-.14.28-.29.33 -.08.02-.14-.01-.13-.08 .01-.09.02-.17.05-.25 .12-.29.18-.54.15-.81v0c-.03-.19-.04-.39-.05-.58h0c-.01-.09.04-.16.12-.19 .22-.09.43-.18.67-.25 .08-.03.14 0 .2.08l.47.55c.125.13.15.12.26-.02 .1-.15.2-.27.36-.36 .08-.05.08-.12-.02-.16 -.18-.07-.36-.11-.55-.17 -.05-.02-.09-.02-.14-.03 -.03-.02-.07-.05-.07-.08s.03-.07.06-.08c.34-.12.62-.24.92-.35 .08-.04.12-.11.11-.19 -.01-.12-.05-.21-.06-.32 -.02-.1-.09-.18-.19-.19 -.42-.05-.67.07-.95.36V-.49c-.06.06-.09.14-.07.22 .05 0 .09 0 .12-.01V-.29c.15-.05.3-.11.44-.19 .07-.09.13-.17.17-.17 .02 0 .07.1.08.14 -.05.05-.09.1-.41.24v0c-.59.26-1.19.47-1.82.625 -.09 0-.08-.05-.06-.09 .11-.21.24-.42.37-.63 .12-.08.15-.04.11.07v0c-.04.08-.09.17-.14.25 -.02.08.02.1.07.09l-.001 0c.28-.08.48-.33.51-.62 0-.11-.05-.14-.16-.14 -.16.01-.34.02-.484.07 -.29.07-.47.27-.56.542L12.51-.1c-.04.12-.07.24-.1.37s-.14.18-.26.25c-.21.12-.31.1-.48.133v0c-.15.02-.3.05-.44.09 0-.05-.02-.1 0-.13 .1-.16.18-.31.29-.46 .14-.22.1-.34-.125-.42v0c-.38-.13-.78.01-1 .34 -.13.19-.22.43-.31.65 -.06.12 0 .2.13.23 .21.03.46-.05.65-.1 -.02.06-.02.3-.04.351l-.13.27c-.08.13-.17.17-.31.1h0c-.23-.11-.45-.23-.65-.36 -.25-.15-.49-.25-.77-.25v0c-.03 0-.06-.01-.09-.01 -.1-.02-.1-.05-.05-.11C8.9.77 8.9.7 8.86.61L8.57.08v0c-.06-.1-.11-.21-.14-.31 .07-.02.33.07.33.12 .02.29.1.496.26.67 .11.11.22.04.23-.08 .02-.16-.19-.41.08-.98 .11-.256.47-.7.7-.7 .12 0 .22.05.3.236 .04.08.07.28.1.36 .03.08.07.12.16.11 .22-.03.53-.17.78-.2 .16-.03.28.37.36.52 .12.21.18.4.32.17 .24-.33.35-.71.6-.819v0c.32-.17.68-.23 1.04-.18 .11.01.14.05.12.16 -.03.06-.03.13-.05.2 -.03.07.04.1.13.04 .12-.07.2-.17.29-.28 .21-.24.43-.35.85-.35 .19 0 .35.04.53.1 .13.05.15.07.12.2l-.12.397c-.05.18-.02.2.14.29 .14.08.25.14.34.24v0c.06-.01.12-.03.17-.07V-.07c.17-.36.43-.66.76-.87 .13-.08.16-.07.22.06 .11.28.17.526.19.79 .14-.18.32-.36.44-.496 .44-.43.89-.42 1.49-.27 .14.04.03.19-.06.3l-.12.17c-.04.06-.07.06-.12.01 -.08-.09-.15-.24-.23-.32 -.14-.14-.38-.06-.55.04l0-.001c-.34.19-.62.48-.81.82V.16c-.2.3-.44.58-.71.83 -.11.04-.11.03-.09-.08l0 0c.3-.46.47-.99.48-1.54v0c-.1-.02-.21 0-.29.06 -.42.23-.62 1.05-.68 1.6 -.02.11-.02.2-.12.26 -.18.1-.24.14-.42.22 -.05 0-.07 0-.11-.01 .08-.37.02-.63-.19-.97 -.04-.07-.09-.1-.17-.08 -.05.02-.09.05-.18.13v0c-.33.3-.51.74-.49 1.19 0 .08.08.08.14.04v0c.06-.06.11-.12.15-.19 .1-.18.19-.36.29-.53 .01-.05.06-.07.1-.09 .02.04.02.08.01.12l-.08.33v0c-.07.17-.19.33-.34.45 -.03.04-.05.11.03.12 .35.01.56-.03.86-.19 .32-.17.53-.31.67-.29 .09.01.58.15.62.18 -.03.05-.07.06-.1.1 -.05.04-.29.16-.39.25 -.17.13-.23.19-.19.47 .01.12.03.24.06.36 .01.03.04.09.06.09 .04 0 .08-.04.1-.07 .13-.17.26-.35.4-.52v0c.02-.03.05-.04.08-.05 0 .03 0 .06 0 .08 -.03.2-.14.35-.26.5l-.09.1c-.11.15-.12.17-.01.33v0c.11.17.15.38.1.58 -.03.14-.08.36-.11.57 -.26.12-.53.29-.75.44 -.14.12-.17.22-.17.25 .06.08.12.09.25.14 .18.05.52-.02.58-.21V5.13c.02-.07.04-.14.04-.22 .06.01.12.01.14.06 .06.2.125.34.25.484v0c-.03.06-.06.12-.1.18 -.08.12-.15.24-.26.21 -.05-.01-.09-.02-.14-.02 -.09 0-.17 0-.16.14 .01.19.04.27 0 .47 -.03.1-.06.22-.17.22 -.26-.03-.43-.22-.69-.21V6.44c-.17.01-.33-.02-.48-.09 -.14-.07-.23-.15-.29-.19V6.16c-1.04.16-2.08.36-3.1.58 -.1.02-.09.08-.11.18 -.05.22-.14.45-.18.67 -.01.03.04.08.06.11 .02-.03.06-.05.08-.08 .05-.08.09-.17.15-.25 .1-.12.38 0 .43.16 .04.09-.09.14-.09.24 0 .09.14.17.14.29 0 .1-.05.17-.06.22 .39.24.484.45.49.77 .01.1.01.14.06.2 .05.05.14.13.17.18 .18.21.34.54.47.58 .06.02.21.03.33.02l.02.06v0c-.06.1-.14.19-.25.24 -.29.09-.43-.34-.58-.58v0c-.07-.12-.15-.22-.24-.32 -.13.13-.33.68-.32.94 .08.35.29.7.42.95 .09.15.28.21.46.28 .15.05.26.08.42.03 .08-.02.11-.03.15-.06l-.01-.32c.04-.58.13-1.16.17-1.66 0-.14.1-.36.26-.48v0c.16-.11.25-.31.24-.5v0c-.01-.08 0-.15.04-.21 .05-.12-.06-.12-.17-.14 -.13-.02-.16-.07-.1-.18 .11-.2.28-.36.41-.55 .08-.14.12-.23.15-.31 -.04-.16-.03-.4.14-.41 .52-.07.74-.02 1.08.23 .02.03.02.08.02.12 0 .04.09.07.27.25 .13.12.27.48.03 1.04 .11.07.11.17.09.3 -.01.1.02.12.12.16 .12.04.19.11.29.37 .09.24.36.89.51 2.49 -.03.5-.12.87-.22 1.28 .1.76.22 1.7.32 2.99 .07 1.21.09 1.84.12 2.34 .21.01.28.06.32-.12l.04-.17c.04-.12.16-.08.16-.02l.13.39c.02.11.06.18.1.28 .14.19.2.02.2-.12 .01-.13.01-.23.01-.34 .02-.15.1-.16.15-.06l.19.45c.07.15.14.2.17.1 .02-.13.03-.36.02-.54 -.03-.11-.08-.22-.1-.31 0-.13.1-.1.12-.07v0c.23.28.46.57.67.88 .12.07.19-.06.16-.11 -.01-.05-.07-.12-.07-.22 .01-.16.16-.09.19-.03 .13.13.22.31.3.46v0c.03.03.07.05.12.06v0c.02-.05.04-.1.03-.15 -.01-.05-.07-.17-.09-.22 .05-.1.17.02.21.06 .04.04.08.11.13.19 .07.11.19.21.47.25 0 .02.01.05.01.08 -.04.02-.1.05-.27.08v0c-.35.05-.7.06-1.04.02v0c-.27-.04-.54.02-.77.16 -.17.09-.33.08-.53.07 -.38-.02-.75-.02-1.13-.03 -.79-.03-1.18.13-2.07.18 -.29 0-.9-.15-.9-.34 0-.13.07-.24.07-.31 0-.09-.02-.11-.1-.13 -.64-.12-1.26.03-1.84.14 -.49.07-.75-.01-1.01-.21v0c-.15-.11-.27-.23-.36-.38v-.001c-.29-.36-.62-.68-.99-.94 -.42-.33-.94-.93-1.266-1.35 -.08-.09-.21-.51-.25-.63v0c-.06-.18-.08-.37-.06-.55 .05-.05.11-.09.15-.1 .27-.01.62-.14.63-.23 .02-.07-.02-.12-.07-.1v0c-.17.02-.33.02-.49 0 -.09-.02-.19-.05-.22-.09 .05-.07.08-.11.13-.14v0c.23-.03.45-.12.64-.25v0c0-.03-.01-.06-.02-.09 -.19-.01-.33-.01-.53-.06v0c-.08-.03-.15-.07-.2-.12v0c.03-.06.08-.1.14-.13 .23-.08.4-.19.55-.34l-.01-.1v0c-.22-.01-.43-.03-.63-.07 -.1-.05-.11-.06 0-.18 .14-.04.42-.07.57-.12 .11-.06.09-.16-.02-.19l-.001-.001c-.19-.01-.37-.03-.54-.06 -.12-.1-.13-.11.02-.18l.47-.1c.18-.07.15-.18 0-.23 -.15-.02-.25-.05-.39-.08 -.19-.1-.19-.11-.04-.17l.3-.09c.08-.03.16-.06.18-.12l-.001 0c0-.03 0-.05-.01-.07 -.13-.04-.39-.02-.51-.05 -.05-.01-.09-.06-.11-.11l.11-.07v0c.14-.04.28-.09.41-.16v0c.02-.04.03-.07.04-.11H8.95c-.03-.02-.06-.04-.09-.05v0c-.14-.04-.26-.09-.39-.14 -.09-.11-.08-.13.03-.17l.21-.06v0c-.03-.08-.07-.15-.11-.22v0c-.02-.04-.05-.06-.08-.08 -.125-.08-.31-.15-.44-.24 -.25-.16-.51-.31-.71-.5V9.51c-.26-.23-.45-.52-.53-.86v0c-.04-.21-.05-.43-.01-.63 .02-.16.11-.33.19-.47 .03-.06.05-.11.02-.15V7.4c-.12-.15-.25-.29-.39-.42v0c-.08-.06-.16-.11-.25-.13 -.5-.09-.8-.19-1.02-.16v0c-.09.07-.15.17-.19.28 .04.16.12.42.12.63 .18.02.39.08.62.2 .17.11.22.17.29.39 .15.49.19 1.13.3 1.8 .09.64-.25 1.18-.9 1.2 -.36.01-.65-.06-.74-.3 -.12-.34-.21-.625-.32-.97V9.92c-.5.12-.99.29-1.45.51 -.44.2-.79.4-1.25.59 -.88.36-1.84.58-2.701.58 -.46 0-.964-.1-1.32-.24 -.32-.125-.43-.26-.5-.65l0 0c-.06-.34-.06-.68-.02-1.02 .04-.34.09-.57.32-1.19 .09-.28.22-.41.43-.51h0c.35-.18.74-.25 1.14-.23 .137 0 .31.02.43.08 .24.09.28.29.29.53 0 .14 0 .29-.01.43 -.02.11-.01.16-.01.2 .31.04.97.02 1.28-.05 .25-.06.36-.1.82-.32 .32-.15.76-.48 1.27-.74Zm9.9 5.532c.03.06.1.37.1.48 0 .25-.03.48-.05.87 -.05.51.01 1.03-.06 1.54 -.03.24-.1.63-.07.97 0 .13.02.17.1.19 .24.05.41.08.53.08 .38 0 .62-.18.59-.39v0c-.13-.47-.19-.95-.18-1.43l.1-.01c.14.58.26.86.3 1.16 .05.27 0 .74.05.98 .63.07 1.39 0 1.63-.05 .05-.53.04-1.06-.19-1.26v0c-.17-.14-.34-.27-.51-.39v0c-.27-.21-.5-.47-.68-.76 -.28-.43-.35-.57-.59-.99 -.23-.39-.38-.73-.53-.96v0c-.07-.11-.14-.21-.22-.29v0c-.19-.06-.39-.1-.58-.11 -.27-.03-.45-.06-.6-.23 -.14-.14-.19-.24-.11-.42 .04-.1-.02-.17-.09-.24 -.08-.1-.06-.21.04-.29 .23-.24.45-.35.76-.43l-.05-.22c-.13.01-.26.05-.51.05 -.35 0-.66-.15-.78-.6 -.05-.17-.25-.62-.31-.82 -.05-.13 0-.28.06-.46 -.11-.14-.2-.29-.29-.41 -.19-.08-.41-.16-.56-.34 -.07-.08-.09-.08-.15-.04 -.05.03-.07.09-.14.15 -.07.05-.21.06-.33 0 -.125-.05-.19-.18-.19-.31 .01-.17.09-.31.02-.38 -.13-.14-.25-.29-.1-.4 .04-.04.13-.03.19-.06h0c.16-.1.24-.29.19-.47 -.04-.14-.11-.2-.25-.21 -.2-.02-.29-.12-.29-.24 0-.17.14-.24.27-.21v0c.06.01.12.04.17.08 .01.06.04.14.09.14 .22-.03.39-.26.39-.48 0-.08-.05-.12-.2-.08 -.27.04-.6.14-.923.25 -.19.06-.21.2-.11.37 .03.03.05.08.08.12 .04.06.02.11-.04.15l-.09.06c-.1.07-.12.15-.05.27 .01.04.04.07.07.09 .07.06.07.12 0 .2v0c-.09.08-.12.22-.07.33 .02.09.1.63.1.73 -.01.27.05.55.03.81 -.02.19.08.35.26.56 .2.22.34.41.61.67 .31.3.49.66.52 1.1 .01.2.11.28.31.38 .41.11.56.35.61.67 .08.56-.2 1.11-.71 1.06 -.27-.03-.39-.19-.39-.32 0-.15.07-.29.19-.34 .02-.01.09 0 .11 0v0c0 .02.01.06.01.09s-.05.05-.07.13c-.02.05-.02.15.03.21 .05.07.15.09.24.06 .11-.04.19-.14.24-.24 .23-.43.11-.93-.34-1.05 -.15-.05-.36-.07-.49.01 -.28.17-.52.27-.76.48h-.001c-.04.03-.06.08-.06.13l0 0c0 .94.07 1.88.19 2.814 0 .2.14.45.2.48 .16-.12.2-.24.35-.47 .07-.05.1-.02.12.04 -.01.21-.05.41-.03.59 .01.05.07.1.11.14 .1-.09.1-.23.14-.33 .11-.12.13.01.14.04 -.01.13 0 .26.01.33 0 .05.05.06.1.07 .12-.24.27-.46.46-.59 .11-.09.19-.02.12.1h-.001c-.12.22-.21.45-.27.69v0c.03 0 .07-.01.11-.02 .02-.01.06-.02.07-.09 .08-.21.12-.24.22-.09 .04.14.1.24.18.28 .12-.04.13-.19.18-.29 .13.01.14.15.2.22 .04.03.42.05.49.04l-.02-.22c-.01-.44 0-.79.02-1.23 .03-.46.08-.93.1-1.33 .01-.33.05-.84.08-1.23ZM22.77 8.4v0c-.21-.03-.42-.04-.625-.05 -.1 0-.34 0-.35.12 0 .03.05.1.1.14 .3.2 1.14.24 1.49.18v0c0-.09-.01-.18-.03-.26 -.09-.26-.4-.48-.68-.57V7.95c-.31-.08-.62-.09-.92-.04l-.06-.16c.1-.45.08-.86.02-1.19V6.56c-.03-.16-.09-.3-.19-.42 -.06-.09-.13-.08-.2-.02 -.05.04-.1.09-.19.2 -.29.34-.28.58-.23 1.1 .03.02.07.05.16.05s.13-.04.14-.17c0-.18.05-.36.07-.52 .04.01.11.06.12.09 .01.27-.07.55-.14.8 .01.02.21.11.18.19 -.03.06-.33.14-.55.15v-.001c-.13-.19-.31-.34-.51-.42 -.13-.05-.26-.1-.16-.18l.16-.07c.29-.12.19-.29.18-.57 -.02-.11-.06-.14-.16-.14h-.001c-.13-.01-.25.02-.36.08 -.22.13-.39.35-.54.53 -.03.02-.1.01-.15.01 .08-.26.19-.55.27-.78 .02-.09.06-.17.15-.15 .44.1.9.01 1.21-.3 .13-.15.13-.21-.04-.33V5.69c-.27-.23-.62-.3-.96-.21 -.14.05-.23.13-.25.27 -.02.08.4-.04.54-.02 .04 0 .07.04.1.06 -.27.11-.58.17-.83.24 -.09.02-.12 0-.13-.09v0c-.04-.14.01-.28.12-.37 .19-.17.34-.36.38-.63 .02-.14-.1-.36-.16-.48 -.01-.04 0-.06.01-.09v0c.18.05.36.13.52.24v0c.08.42.39.77.81.9 .14.05.29.1.45.14 .14.04.24 0 .24-.15l-.01-.21c.12-.06.26-.1.29-.1 .23.03.47.14.72.22 .16.08.08.14-.04.125 -.19-.03-.36-.09-.54-.125 -.12-.03-.21.02-.22.13 .07.13.41.29.53.34 .18.06.86.14.86-.05v0c-.01-.19-.04-.37-.09-.55 -.05-.16-.18-.24-.32-.28v0c-.31-.08-.61-.11-.92-.11v0c-.12.01-.23.04-.34.1l-.04-.21c-.07-.28-.2-.35-.41-.42 .01-.09.01-.14.01-.23 .18-.11.4-.28.49-.43 -.08-.07-.21-.11-.28-.14 -.29-.1-.31-.21-.5-.29l-.001-.001c-.15-.07-.3-.11-.45-.12 -.14-.01-.34.03-.38.08 -.02.03 0 .09.08.15 .12.09.38.16.51.25 .08.04.04.06-.02.07h0c-.18-.02-.35-.07-.51-.15 -.1-.05-.13-.1-.2-.12 -.125-.05-.15-.01-.23.13 -.07.1.01.15.1.2 .29.16.51.26.89.3 .04.04.05.11.06.19 -.38-.05-.5-.06-.73-.14 -.37-.2-.67-.36-1.02-.48 -.07-.03-.1-.07-.02-.12 .37-.23.72-.5 1.1-.71 .05-.03.14-.02.2-.01 .18.03.24.09.42.14 .1.04.21.07.23-.03 .05-.28.14-.48.22-.59 .16-.26.4-.39.71-.58 .11-.393.49-.8.63-.8 .37 0 .74.67.82.927 .05.18-.25.34-.05.34 .17 0 .33.02.33.17 0 .26-.08.52-.21.71 -.14.19-.29.39-.48.52l.01.06c.32.24.67.41.67.77 0 .19-.06.33-.17.42 -.09.07-.16.15-.15.26 .01.25.02.39.01.641 -.02.16-.52.19-.59.27V6.02c.08.42.03.86-.14 1.25l.1.19c.51.36.58.68.65.96 -.14.13-.38.25-.46.25 -.34 0-1.064-.25-1.21-.27 -.06.1-.03.2.05.4 .06.18.19.31.19.48 0 .08-.02.21-.25.25h-.001c-.4.03-.79-.08-1.11-.31 -.07-.04-.13-.09-.19-.12 -.12-.07-.26-.02-.29.11l-.08.24c-.05.13-.12.14-.3.11 -.53-.12-.77-.68-.77-1.18 .02-.11.1-.07.12-.02 .03.24.14.48.22.67 .09.19.22.29.43.32 .04 0 .1-.08.14-.17 .11-.24.21-.4.18-.67h-.001c-.01-.12-.05-.23-.12-.32 -.04-.04-.09-.07-.15-.13 .03-.05.07-.1.11-.09 .23.08.4.08.55 0 .09-.05.13-.12.19-.19v0c.26-.07.53-.13.79-.17 .37 0 .7.05.98.17ZM8.6 17.47c.19 0 .43.09.43.31l-.05.1v0c-.02-.01-.04-.01-.05-.02 -.08-.17-.2-.26-.39-.22l-.001-.001c-.18.03-.34.12-.46.25 -.08.08.08.13.18.18l.2.12c0 .1-.29.89-.14.91 .35.06.827-.43.87-1.12 -.02-.25.12-.38.4-.47 .32-.13.47-.27.42-.62 -.03-.18.07-.125.17-.27l.1-.12c.01.05.05.16.04.21 -.08.28-.02.5.125.76l.26.68c.06.06.12.01.18.08 .22.46.484 1.14.83 1.44 .28.23.58.65.85.89 .15.14.26.49.46.55 .14.05.13.12.11.25 -.03.15.04.18.1.18 .09-.02.18-.04.28-.05 .21.04.16.19 0 .21 -.11.01-.21-.01-.32-.01v0c-.04.01-.08.02-.12.04v0c0 .04.02.07.05.1 .17.09.29.1.46.14 .03 0 .05.02.09.03 -.02.03-.05.09-.09.11v0c-.07 0-.13 0-.19 0 -.16-.04-.3-.1-.44-.17 -.05-.02-.09-.07-.13-.11 -.04-.02-.09-.03-.125-.04 0 .05-.02.09-.02.13 .03.06.1.18.07.2 -.02.02-.12.08-.14.06 -.13-.06-.23-.2-.34-.27 -.15-.1-.29-.1-.43 0 -.15.1-.28.18-.41.26 -.17.11-.36.29-.56.29 -.12 0-.39-.17-.52-.21 -.24-.08-.31-.09-.56-.14 -.21-.05-.39.02-.6.1 -.26.07-.54.11-.82.16 -.16.03-.34 0-.51-.01 -.25-.01-.49-.03-.74-.03 -.17 0-.34.03-.5.08H6.61c-.08.02-.15.03-.22.03v0c-.12 0-.23-.04-.33-.1H6.06c-.11-.07-.24-.1-.36-.07 -.12.02-.35.06-.44-.02 -.12-.12-.4-.35-.55-.32 -.5.08-.73.36-1.21.23 -.34-.09-.57-.17-.9-.06 -.09.03-.3-.02-.39-.01 -.13.01-.17-.01-.15-.14l.01-.07c.02-.13-.11-.23-.23-.18 -.137.04-.22.18-.35.24 -.24.11-.46.08-.72-.02 -.18-.08-.36-.05-.52.04 -.11.05-.281.31-.397.31 -.05 0-.11-.07-.13-.13v-.12H-.28c.07-.11.16-.19.27-.26l-.001 0c.29-.14.62-.19.94-.13 .14.02.31.04.45-.02 .11-.05.22-.06.33-.12 .18-.1.347-.19.55-.12 .15-.07.23-.12.31-.24 .03-.19-.03-.38.01-.57 .04-.17.11-.38.16-.53 .03-.09.09-.08.14-.07 .14.22.33.42.24.63 -.07.14.26.24.2.38 -.06.1-.03.17.07.18l.08 0c.09 0 .1-.07.09-.19 0-.68-.22-1.15-.45-1.69 -.1-.21-.08-.42-.01-.62l.14-.43H3.24c.07-.21.23-.37.42-.45 .02-.01.09.02.11.05 .3.42.41.94.26 1.45H4.03c-.05.15-.08.31-.11.48 -.01.04 0 .08.01.12 .03-.03.06-.05.09-.09 .15-.23.3-.45.42-.69 .11-.24.3-.33.54-.38 .26-.06.33-.02.26.23v0c-.04.14-.09.28-.14.43h0c-.07.23-.23.42-.44.53 -.15.08-.29.19-.42.29 -.05.06-.07.06-.01.12 .05.06.125.02.18-.02 .24-.18.49-.32.74-.46 .09-.05.12-.01.11.1 -.02.12-.03.29-.16.33 -.14.04-.32.06-.44.12l-.001-.001c-.08.04-.15.1-.21.17 -.09.12-.09.2-.15.34 -.02.02 0 .07 0 .12 .04-.02.08-.02.11-.04 .16-.12.24-.25.41-.38 .12-.1.15-.09.2.07 .01.05.05.09.1.13 .05-.04.1-.07.14-.12 .14-.22.23-.65.42-.93 .03 0 .07.02.1.03 .04.09-.02.42-.01.49 0 .19.06.24.24.14 .14-.07.26-.15.4-.22 .15-.08.27-.02.18.1 -.05.07-.12.12-.16.19 -.03.04-.02.11-.03.16 .04 0 .1 0 .14-.02 .11-.03.21-.08.32-.13 .14-.07.29-.05.45 0 .15.05.31.09.45.13 .12.02.25-.03.36-.08v0c.2-.11.42-.19.65-.26v0c.3-.1.58-.26.81-.47 .05-.06.13-.09.19-.15 .05-.05.09-.24.09-.3 .04-.17-.03-.56 0-.73 .02-.05.05-.14.08-.18l.07.02c.02.06.05.15.05.2 -.02.29-.02.96-.05 1.25 0 .06-.12.17-.19.19 -.53.19-1.05.39-1.58.53 -.24.06-.5.02-.75.03 -.2 0-.4-.03-.59-.02 -.16.01-.38.15-.53.17 -.43.06-.81.03-1.23.11 -.4.07-.77.18-1.15.28v0c-.09.02-.17.06-.24.11 -.03.02-.04.07-.05.1 .04.02.08.04.12.04 .09-.01.17.02.27 0 .23-.04.46-.07.7-.09v-.001c.05 0 .11.02.16.06v0c.1.07.23.1.36.07 .14-.04.26 0 .39.09 .21.17.26.18.516.04 .19-.11.4-.11.61-.09 .47.02.91.09 1.33.17v0c.33.05.67-.08.87-.34H9.03c.11-.15.22-.3.33-.45 .08-.11.16-.18.29-.18 .26-.01.53-.07.79-.05 .14.01.22.15.22.23 -.01.08-.05.14-.15.13v-.001c-.2-.02-.4-.03-.6-.05 -.21-.02-.38.04-.5.19 -.07.07-.05.12.05.14 .04 0 .09.02.14.02 .1.01.15.06.18.16 .02.06.15.125.36.13 .27.01.42.01.66-.07 .09-.04.16-.15.23-.24 .15-.23.26-.29.54-.23 .19.03.33-.18.5-.17 .32.04-.05-.62-.25-.84 -.29-.22-.52-.63-.76-.94 -.19-.23-.41-.32-.56-.6 -.31-.5-.55-1.12-.89-1.52 -.14-.14-.42-.05-.56.03v0c-.07.02-.13.06-.17.11 .4.34.42.82.28 1.17 -.05.11-.09.1-.2.06H8.95c-.11-.04-.22-.09-.32-.13 -.07-.04-.14-.02-.21.02 -.31.18-.69.43-.75.37 -.13-.13-.33-.5-.31-.69v0c0-.14.04-.27.12-.38v0c-.14-.08-.28-.17-.4-.26l-.01-.14c.25-.25.6-.49.87-.49ZM.85 13.87c.03.24.137.44.37.53 .34.14.78.22 1.16.22 .45.01.94-.03 1.47-.13h-.001c.82-.18 1.62-.46 2.383-.84v0c.45-.24.94-.43 1.44-.55v0c.52-.15 1.07-.17 1.6-.05 .23.05.28.05.25-.12 -.02-.12-.05-.23-.07-.34 -.06-.4-.05-.77-.19-1.109h-.001c-.05-.09-.13-.17-.22-.21v0c-.13-.06-.25-.1-.38-.12v0c-.27-.05-.54-.05-.81 0v0c-.42.05-.83.18-1.21.37 -.42.2-.83.43-1.138.61v0c-.51.31-1.09.47-1.68.484 -.4 0-.66-.02-1.05-.06v0c-.54-.03-1.07-.18-1.55-.43 -.11-.06-.17-.04-.21.07H1.01c-.2.5-.27 1.05-.21 1.59Zm18.41 4.34c-.14.02-.43.05-.59.06v0c-.06-.01-.11-.01-.16-.03 .02-.05.04-.07.07-.08 .2-.11.41-.2.56-.32 .08-.07.06-.13.04-.18 -.28.12-.54.17-.84.22 -.02 0-.04-.03-.05-.04 .22-.17.53-.31.69-.46 .11-.09.02-.12-.01-.16 -.24.08-.48.16-.74.23v0c-.04 0-.08-.01-.12-.02 0-.05.05-.07.09-.1v0c.25-.13.48-.29.7-.47l-.02-.07 -.09-.01c-.2.03-.63.09-.86.12 -.12 0-.1-.07-.08-.09 .18-.09.33-.19.46-.33 .05-.06.04-.11.02-.13 -.23.1-.48.1-.63.12 -.03-.04.01-.09.02-.1 .18-.07.21-.13.31-.19 .06-.05.19-.14.22-.19 .01-.02 0-.07-.01-.09v0c-.18.06-.37.1-.55.13h-.001c-.04 0-.07-.01-.1-.02 .01-.05.02-.08.05-.09 .25-.14.39-.19.57-.3v-.001c.05-.05.09-.1.12-.17l-.02-.03c-.21.06-.42.13-.64.19 -.05-.01-.07-.04-.1-.07v-.001c.01-.03.04-.06.07-.08v0c.43-.15.83-.38 1.17-.68v0c.08-.07.16-.16.22-.26l-.03-.05c-.42.29-.82.54-1.29.72 -.1-.01-.08-.07-.05-.1 .04-.05.16-.19.26-.32v-.001c.39-.15.76-.36 1.08-.625 .02-.03.03-.1.02-.14 -.22.09-.54.27-.82.38l-.06-.02h0c.01-.06.03-.11.06-.15 .19-.13.46-.32.67-.56 0-.03.02-.07 0-.1v0c-.18.09-.37.16-.56.22 -.07-.05.01-.15.02-.18 .26-.22.38-.36.51-.54 .02-.05.02-.08 0-.15 -.15.1-.36.16-.52.22l-.05-.02c-.01-.06 0-.05.01-.09 .19-.18.35-.31.46-.51 .01-.02 0-.08-.02-.12 -.16.05-.28.1-.45.14v0c-.02 0-.04-.01-.06-.02 0-.06 0-.07.02-.11 .11-.1.23-.24.34-.4 .02-.05.02-.09 0-.12 -.09.02-.24.04-.31.05 -.04 0-.08-.03-.1-.07l.29-.21v0c.02-.03.03-.05.05-.08 -.04-.02-.07-.04-.1-.03 -.13.01-.24.03-.37.05 -.28.05-.28.09-.3.17v0c-.08.3-.18.6-.31.9 -.04.08-.09.16-.17.19 -.12.05-.1.12-.13.23 -.05.22-.09.2-.18.42v0c-.06.15-.15.29-.26.41h-.07l-.02-.31c-.03-.21-.07-.17-.1-.38 -.02-.19.02-.39.05-.55 .02-.19.04-.51.04-.7 -.02-.02-.04-.04-.06-.06v0c-.03.02-.05.04-.06.08 -.04.14-.11.36-.13.51 -.05.33.02.66 0 1h-.001c-.07.35-.08.71-.05 1.06 .11-.02.1-.03.26-.09 .2-.09.35-.12.56-.3 .15-.13.125-.39.17-.59 .07-.25.16-.34.26-.38 .03-.01.05 0 .08.01 -.06.14-.1.21-.15.36 -.05.12-.1.34.04.36l.1.01c0 .02 0 .06-.02.08 -.14.12-.24.28-.85.45 -.07.02-.23.2-.24.27 -.02.09-.02.2 0 .36 .06.6.36 1.18.7 1.74 .28.48.49.84.8 1.15 .14.13.29.23.53.12 .12-.07.29-.17.33-.2 .02-.03.02-.07.02-.11ZM10.98 9.455c.01.24-.03.3-.34.22 -.33-.1-.48-.07-.68-.31 -.13-.15-.29-.15-.42-.01 -.07.07-.11.14-.21.16 -.02-.04-.04-.08-.03-.12h0c.03-.14.12-.26.25-.32 .09-.05.21-.09.31-.12 .28-.12.42-.29.42-.62 0-.19.05-.39.05-.58 0-.14-.05-.19-.19-.14 -.24.09-.46.18-.7.28v0c-.08.02-.14.08-.17.15 -.07.12-.11.24-.17.37 -.06.07-.1.03-.12 0v0c-.12-.18-.24-.35-.37-.52 -.11-.13-.11-.17.01-.26L9 7.29c.19-.18.26-.42.28-.68v-.36c-.01-.16.02-.21.18-.19v0c.1.01.21.04.31.09 .17.07.34.17.52.26 .09.05.15.13.16.25 0 .13-.09.22-.21.17v0c-.19-.09-.39-.16-.59-.21 -.1-.03-.2.02-.22.12 -.05.22.15.24.13.3 -.05.16-.31.2-.35.35 -.03.13-.03.22.09.19 .32-.07.64-.27.89-.38 .21-.1.32-.06.35.18 .11.7.22 1.3.3 1.93Zm5.09-2.24c.06.01.14.05.19.1 .12.27.37.58.7.75v0c.09.04.18.07.29.08 .02-.13.08-.33.08-.56v0c0-.21-.08-.4-.22-.54v0c-.15-.15-.32-.28-.5-.38v0c-.08-.05-.18-.04-.25.02 -.01.04-.01.1.02.14 .08.13.27.26.35.39 .03.13.02.12-.09.08V7.29c-.23-.14-.43-.31-.6-.52 -.1-.11-.16-.11-.23 0v0c-.17.26-.28.57-.3.89V7.66c-.06.39.14.77.49.95 .15.06.26.05.34-.1 .07-.15.13-.27.18-.43 .02-.09.02-.12-.04-.2v0c-.08-.1-.16-.2-.25-.28h-.001c-.04-.05-.08-.08-.13-.1v0c-.03.02-.04.06-.04.1 0 .12.02.26.03.38 0 .03-.01.08-.03.11v0c-.07-.04-.13-.1-.15-.17 -.09-.31-.07-.58.08-.78ZM1.77 2.7l.24.28c.09.18.15.35.2.5 .04.15.1.15.19.08v0c.09-.07.14-.18.14-.29v0c-.01-.09-.03-.18-.06-.26 -.09-.33-.03-.6.25-.8 .09-.07.16-.18.12-.29 -.05-.17-.08-.32-.14-.47 -.03-.07-.12-.09-.18-.05 -.32.16-.69.64-.41 1.039 .01.02-.01.1-.03.14 -.26-.26-.78-.79-.93-.78 -.05.07-.08.22-.05.53 .03.3.11.61.34 1.03H1.45c.04.08.11.15.19.22 .05.04.16.1.24.1l-.001 0c.02-.08.03-.17.01-.25l-.001 0c-.08-.26-.16-.51-.25-.76Zm20.89 1.19c.21-.05.39-.11.48-.137 .35-.14.59-.37.67-.76 .02-.11-.04-.17-.15-.19l-.24-.07c-.23-.07-.28.02-.36.24 -.07.16-.14.35-.32.496 -.06.04-.24-.09-.29-.13 .34-.21.57-.54.74-.935 .04-.08 0-.15-.08-.18v-.001c-.12-.04-.24-.06-.36-.04v0c-.56.09-1.04.45-1.29.956 -.02.04 0 .13.02.14 .05.02.17 0 .22-.02 .03-.01.05-.05.07-.09 .14-.26.39-.42.67-.54 .08-.05.11-.02.06.08 -.06.07-.56.42-.57.47 -.07.14.03.16.11.16l.15-.05v0c.03.22.18.42.4.51ZM15 3.84c-.01.12-.06.19-.17.15 -.24-.1-.38-.36-.64-.44 -.1-.04-.16.05-.17.14 -.05.26-.09.5-.09.6 0 .36.19.56.38.75 .05.05.05.08-.01.11l-.798.44c-.08.05-.17.06-.25 0 -.08-.07-.11-.16-.08-.25 .09-.41.16-.82.266-1.21 .16-.62.43-.84.88-.89 .16-.03.28-.03.4-.03 .13 0 .19.02.2.14 .01.08.02.17.02.45Zm.6 2.744c0-.31-.25-.39-.35-.65 -.1-.26-.19-.26-.4-.07 -.24.22-.38.41-.46.72h-.001c-.08.28-.07.58 0 .86 .02.08.07.18.16.15l0-.001c.07-.03.12-.09.12-.17 0-.26.02-.51.15-.67h0c.03-.05.06-.09.11-.12 .04.06.02.13.02.14 -.04.19-.07.38-.11.57 -.03.12-.03.19.04.31 .07.11.13.12.18.05 .23-.38.48-.92.48-1.18Zm-12.92.83h0c-.02-.26-.07-.51-.17-.75s-.25-.38-.35-.38c-.1 0-.31.24-.38.45 -.19.51-.09.923.21 1.41 .04.06.125.17.23.06 .09-.11.16-.18.24-.29h0c.12-.15.18-.33.19-.516Zm11.14 7.98c-.06-.43-.38-.84-.91-1.2 -.12-.05-.125.02-.125.12 .05.59.12 1.18.19 1.71 .02.11.07.14.18.09 .16-.08.31-.16.46-.24 .14-.09.22-.17.18-.49Zm4.87-4.85c-.09-.21-.23-.3-.43-.31 -.21-.03-.39-.06-.6-.09 -.125.01-.21.11-.28.28 0 .03.01.07.04.08 .07.02.19.05.21.06v-.001c.05.04.09.1.12.17 -.02.05-.1.12-.19.13 -.13.02-.13.12-.11.25v0c.01.13.07.25.16.36 .08-.05.12-.07.18-.14v-.001c.06-.07.09-.16.08-.24 -.02-.27.13-.47.31-.641l.04.02c-.03.15-.12.26-.13.41 -.04.31-.15.58-.46.79 .09.12.33.03.4-.05v0c.13-.12.23-.27.28-.44l.05-.16v0c.01 0 .02 0 .04.01 .06.11-.03.35.01.52v0c.06-.03.11-.08.15-.13 .11-.28.17-.68.06-.94Zm3.89-6.372c-.06 0-.27 0-.34.01 -.05.01-.08.12-.05.14 .06.04.1.07.15.09 .19.02.28.02.5.05v0c.04 0 .08.02.11.06 -.03.01-.05.04-.09.05 -.42.05-.54.04-.83-.16 -.08-.04-.11.02-.09.1 .04.14.15.25.37.34 .17.07.33.16.5.16 .26-.01.45-.03.67-.07 .11-.02.23-.09.24-.14 .02-.06 0-.19-.07-.27l-.16-.16c-.25-.26-.41-.43-.78-.39 -.05 0-.13.13-.2.13Zm.25 2.75c0-.16-.02-.27-.07-.41h0c-.09-.28-.33-.48-.62-.51 -.16-.01-.23.02-.17.16 .01.05.15.19.2.31 .07.14.13.28.13.41v0c-.01.05-.02.11-.04.16 -.1-.05-.15-.17-.17-.22 -.05-.14-.05-.21-.09-.29 -.04-.07-.09-.09-.11-.09 -.06 0-.09.02-.09.1v0c-.06.49.2.96.65 1.18 .11.04.14.01.18-.09v0c.08-.25.13-.5.14-.76ZM2.41 5.33c-.06.21-.07.36-.07.48 0 .15.08.29.22.35h0c.43.18.9.26 1.37.21 .01 0 .06-.03.06-.05 -.02-.1-.07-.12-.15-.14 -.2-.07-.72-.21-.786-.29 -.06-.08-.03-.16.05-.17h0c.07-.01.15 0 .22.03 .12.06.24.14.37.22 .04.02.09.07.14 0 .03-.07.07-.12-.01-.18l-.31-.24c-.27-.21-.67-.31-1.158-.27Zm9.46 3.426c-.02.04-.07.09-.11.14 -.05-.05-.1-.09-.125-.14h0c-.22-.54-.38-1.09-.5-1.66 -.01-.11.03-.15.12-.14 .23.02.44.13.65.24 .03.02.05.09.06.14 .04.46-.02.99-.11 1.39ZM1.686 9.7l-.04-.02c.02-.29.16-.69.11-.79v0c-.1-.02-.2-.01-.29.02 -.1.04-.15.14-.17.3 -.03.36.03.74.11 1.07 .02.12.07.13.16.05 .23-.22.46-.49.63-.7 .12-.17.14-.32.09-.47 -.05-.13-.13-.18-.23-.18 -.11 0-.14.07-.17.15 -.06.2-.16.34-.26.52Zm19.11-.85c.18 0 .33.03.38.05 .22.08.32.18.36.26V9.16c.02.04.04.09.04.15v0c-.13.03-.27 0-.37-.08 -.2-.19-.49-.27-.67-.19 .01.12.13.29.24.37 .34.27.65.31 1.02.22 .06-.03.08-.12.08-.19 -.02-.24 0-.5-.23-.71 -.25-.24-.61-.23-.85-.13 -.05.02-.11.05-.14.08v0c.01.05.04.09.09.12Zm-8.61-6.56c.07-.02.04.01.02.08 -.05.21-.17.37-.32.52 -.09.07-.1.19-.05.24 .1.1.23.01.31-.07 .16-.19.26-.42.36-.637 .11-.278.09-.621-.05-.86 -.07-.1-.18-.12-.27-.04V1.53c-.3.24-.48.6-.51.99 0 .05 0 .15.04.17 .19-.09.3-.29.41-.43Zm5.04 10.01c.02-.02.05 0 .06 0 0 .22.05.49.08.57h-.001c.03-.02.05-.04.08-.06l.06-.31c.14-.43.03-.766-.15-1.16 -.04-.08-.09-.09-.16-.05 -.06.02-.1.06-.06.13 .04.06.03.11 0 .17 -.06.11-.1.23-.17.36 -.03.08-.03.15-.04.24l-.07 1.53c.02.08.07.06.1.01 .03-.09.05-.17.07-.25 .04-.24.11-.25.12-.49 .02-.25.02-.5.01-.75ZM3.2 2.849v0c-.01-.04-.01-.07 0-.1l.25.04c.12.02.18 0 .22-.09 .07-.19.03-.35-.16-.39 -.29-.06-.58.04-.83.09 -.17.05-.2.22-.09.34 .18.17.36.355.55.512h0c.14.12.34.16.52.125 .08-.03.15-.08.15-.15v-.001c0-.06-.03-.11-.07-.15v0c-.05-.04-.1-.07-.15-.09Zm-.26 11.14c-.02.08-.06.15-.19.14v0c-.13-.01-.26-.03-.38-.06 -.14-.04-.17-.09-.18-.14h-.001c-.04-.28-.03-.56.04-.82 .01-.04.15-.13.21-.16 .17.02.31.05.44.08 .05.03.14.17.15.19h-.001c.02.08.02.16.02.24 -.05.2-.12.38-.15.49Zm13.82 7.46c.33.12.58.16.68.14v0c.1-.03.16-.12.15-.23 -.01-.1-.05-.17-.17-.2 -.26-.06-.52-.09-.76-.18 -.14-.05-.25-.04-.38.05 -.19.14-.38.22-.61.26v0c-.06 0-.11.02-.16.05 -.07.08-.05.14.05.2 .41.03.79-.05 1.15-.13Zm1.36.81c.2 0 .36-.04.5-.14v0c.17-.15.37-.24.6-.27 .09-.02.18-.12.19-.19 0-.11-.09-.12-.16-.14 -.2-.07-.44-.06-.64-.11 -.07-.02-.17-.02-.22.03 -.43.43-.51.33-.72.54 -.06.07-.06.15.09.19 .11.02.26.05.33.06ZM11.03 6.07c0-.11.19-.28.29-.26 .02 0 .04.02.05.04l.04.22c.01.08.04.16.08.16 .21.01.46-.14.58-.32 .12-.2.22-.43.32-.65 .1-.24.25-.09.19.05 -.14.41-.31.82-.44 1.22 -.05.14-.07.15-.21.1l-.69-.25v0c-.17-.05-.28-.2-.27-.36Zm5.23 10.21c.11.05.1.03.25-.05l-.001-.001c.07-.06.12-.15.13-.24l-.05-.9c0-.03-.05-.08-.06-.08 -.13 0-.28-.03-.38.02 -.19.1-.36.25-.53.38 -.07.06-.01.13.09.12 .08-.04.17-.08.26-.12l.15-.09v0c0 .02-.01.05-.02.07 -.15.16-.27.36-.47.47 -.06 0-.05.14.03.14v0c.08-.03.15-.06.22-.11 .12-.1.17-.16.3-.27 .04.06.07.11 0 .16l-.33.29c-.05.05-.02.1.04.09v0c.08-.02.16-.05.23-.09 .08-.06.15-.13.22-.21 0 0 .05.05.04.05v0c-.07.1-.14.19-.22.29ZM5.67 5.88c-.05.5-.18 1-.4 1.23 -.19-.35-.31-.76-.43-1.109 .1-.13.22-.31.27-.46 .02-.07.06-.09.12-.04 .15.13.27.24.42.36Zm.59 7.13v0c-.03.12-.12.23-.23.28h0c-.13.06-.26.09-.39.1 -.08 0-.13-.02-.14-.09 -.05-.24-.1-.45-.133-.67 -.01-.06.04-.125.08-.17 .14-.14.33-.18.52-.19 .04 0 .17.05.19.09 .04.2.06.39.07.62Zm-1.81-2.68c-.27.04-.5.27-.46.37 0 .2.04.4.15.58 .07.1.12.12.23.05H4.37c.33-.19.61-.47.79-.81 .05-.1-.06-.13-.16-.18 -.14-.07-.28-.07-.35-.03 -.08.03-.11.11-.12.17 -.09.3-.1.31-.19.41v0c-.06-.21-.03-.42.07-.6Zm1.79 11.36c.01-.04.02-.06.05-.07v0c.05-.01.11-.01.17 0 .23.06.45-.11.67-.14 .05-.01.1-.02.16-.01 .14 0 .29 0 .45-.04 .06-.03.15 0 .22.04 .25.11.49.17.74.02v0c.12-.09.25-.17.39-.24 .22-.09.24.06.25.14H9.34c-.03.05-.07.1-.13.12 -.79.28-1.47.28-2.346.17v0c-.23.01-.45 0-.67-.06ZM1.32 13.41v0c-.02.12.02.25.1.35l.03.03 -.02.06v0c-.14-.01-.28-.03-.41-.06 -.06-.03.1-.11.11-.21 .02-.21.08-.54.08-.782 0-.05-.11-.09-.11-.13v0c0-.04.02-.07.05-.09 .29.07.33.06.38.2 .05.12.11.33.19.48 .01-.01.04-.02.05-.03 .01-.14 0-.34.01-.43 0-.08.04-.12.12-.12 .06 0 .21 0 .27.01 0 .01 0 .02 0 .04 0 .04-.05.05-.07.05 -.137.05-.15.06-.21.44l-.07.43c-.01.03-.02.1-.04.14 -.04 0-.11 0-.12-.04h0c-.1-.24-.22-.47-.34-.7l-.04-.01c-.04.09-.04.17-.06.26Zm9.104 2.04v0c.01-.09.01-.17 0-.26 -.05-.14-.12-.28-.1-.41 .06-.22.1-.44.08-.67v0c-.04-.28-.03-.56.02-.83 .07.02.13.07.14.12 .02.08.04.17.04.25 .03.23.01.46-.01.69 -.04.44-.08.86-.07 1.3 0 .06.02.15.04.21 .05.13.03.27-.08.43l-.07-.03c-.05-.19-.18-.44-.23-.64 -.01-.04 0-.07.05-.08 .08-.02.13-.07.14-.13Zm4.3-3.29c-.19-.02-.37-.18-.36-.47 -.09.12-.21.24-.31.29 0 .1.25.24.42.31 .09.12.16.19.29.33 .07-.19.16-.36.19-.46v-.001c0-.24-.05-.47-.15-.68 -.14-.16-.36-.28-.57-.42 -.11.11.02.35.28.49h0c-.09.2 0 .43.2.53Zm-12.38-.45c.12-.01.26-.03.41-.05 .1-.03.21-.05.21-.18 0-.12-.13-.18-.22-.2v0c-.44-.11-.9-.07-1.31.12l0-.001c-.1.05-.19.11-.27.19 -.1.1-.08.17-.01.23H1.15c.1.07.22.13.35.16 .02-.1.04-.24.07-.34 .14-.24.53-.28.81-.29 .06.01.06.09.01.11 -.08.06-.24.05-.28.11 0 .07.06.09.17.08Zm.88 2.4c-.01-.05.05-.12.05-.15 .01-.07.01-.16.01-.23 0-.18-.03-.47-.03-.641l.09-.07c.03-.02.05 0 .09.04 .08.08.27.29.35.36 0 0 .02-.03.02-.03v-.14 0c-.01-.09-.02-.18-.05-.26 -.04-.12-.12-.19-.03-.2l.33-.03c-.04.06-.06.11-.07.21 -.02.13-.05.26-.05.38 .01.2.05.39.07.56 0 .01-.03.03-.05.04l-.001 0c-.04-.02-.07-.04-.1-.07 -.17-.17-.29-.32-.5-.53h0c-.02.02-.03.05-.03.09 .04.12.09.27.18.39 .05.07.06.1-.07.15H3.43c-.09.03-.19.04-.29.04Zm6.05.03c.19-.12.27-.53.22-.72v0c-.01-.06-.04-.1-.07-.14 -.07-.07-.14-.05-.17.06 -.04.15-.06.31-.08.46v0c-.15-.03-.3-.04-.44-.02 -.15.02-.44.1-.44.28 0 .29.66.22.96.05Zm1.16-2.003l0-.001c-.01.08.02.16.08.23 .29.31.7.63.968.69 .23.06.42.19.56.38l.13.18c.1.12.22.2.4.23 .02 0 .06 0 .1 0 -.03-.11-.03-.12-.1-.19 -.62-.55-1.27-.98-1.9-1.42 -.07-.04-.18-.12-.27-.13Zm-6.4 7.03v-.01c-.07-.26-.133-.52-.2-.77 -.05-.1-.14-.03-.14.01 -.07.18-.133.37-.19.56l0-.001c-.02.05-.02.11-.001.17 .09.27.19.54.29.81 .01.03.06.06.09.08 .02-.04.06-.07.07-.11Zm1.08-6.49c.01.05.04.11.05.17 0 .04 0 .07-.01.1 -.01.01-.03 0-.06-.01 -.13-.06-.28-.14-.39-.07 -.04.03-.03.1.03.12l.36.14c.16.06.2.13.17.33 -.03.18-.17.26-.33.3 -.07.01-.14.02-.23.01 -.02.05 0 .12-.04.15 -.03.01-.04.01-.07.02l-.001 0c-.07-.15-.11-.3-.13-.46 0-.04.01-.05.02-.06 .05.01.1.09.18.17 .1.03.27.06.29.03 .05-.07.07-.1.07-.13 0-.05-.06-.09-.11-.11 -.13-.07-.2-.1-.34-.15 -.13-.05-.15-.16-.15-.27 0-.12.05-.24.23-.29 .05-.02.15-.05.2-.06v0c.01-.07.02-.13.02-.19 .02-.01.08-.02.09 0Zm-2.59-7.8c-.25 0-.41-.07-.66-.05 -.18.01-.36.09-.53.15 -.11.05-.09.09 0 .13l0-.001c.07.04.15.06.24.06 .51-.05 1.08-.1 1.6-.15 .03-.05.05-.08.08-.14 -.2-.13-.45-.11-.69-.18Zm5.89 7.65v0c-.05.02-.09.06-.12.1v0c-.03.03-.07.05-.11.07l-.07-.05 .11-.27c.04-.11.08-.12.18-.05l.09.07c.07.06.17.11.26.07 .08-.04.04-.17-.05-.21 -.14-.09-.24-.11-.4-.21 -.1-.06-.14-.15-.14-.27 0-.11.07-.23.2-.24 .05-.02.11-.02.18-.02 .08 0 .14-.02.2-.09 .04-.06.08-.09.09-.03h0c.02.13.02.27-.03.4 -.03-.01-.05-.01-.08-.02 -.08-.125-.19-.19-.27-.17 -.09.01-.13.07-.07.14 .11.11.26.17.4.25 .19.1.17.24.15.35v0c-.03.13-.15.22-.28.22l-.001-.001c-.11 0-.22-.04-.31-.1Zm-.38-.38c.01.31-.24.43-.43.43 -.17 0-.27-.04-.33-.21 -.03-.1-.07-.41-.09-.52 -.04-.05-.1-.06-.18-.09 -.05-.01-.05-.05-.06-.08 .06-.03.17-.07.25-.08 .18-.03.18-.02.21.14 .02.19.05.38.09.57 .06.18.26.14.26-.02 0-.15 0-.32 0-.48 -.03-.04-.09-.12-.14-.17 -.07-.09-.08-.11.02-.15 .23-.09.24-.15.28.15 .01.11.08.29.08.44Zm.21 1.63l.58-.14c.15-.05.24-.21.22-.36 -.02-.12-.09-.18-.2-.2v0c-.26-.03-.51 0-.75.1 -.02.19.05.41.13.58Zm-5.33-2.06v0c-.09 0-.17.01-.25.03H2.66c-.12.03-.25.05-.37.03 -.09-.01-.22-.07-.3-.09 -.09 0-.18.08-.21.21 -.02.125.05.21.19.23 .27.06.53.11.794.11 .1 0 .11-.02.11-.1 .01-.16 0-.29 0-.46ZM9.53 5.8H9.53c-.13-.03-.25-.07-.36-.12 -.05-.02-.07-.12-.07-.17 .01-.15-.03-.29 0-.45 .01-.09.05-.11.13-.1 .11.02.21.05.32.08 .14.05.35.44.29.58 -.07.12-.18.14-.32.14ZM7.14 12.58H7.14c-.04.04-.08.08-.12.11 -.14.09-.39.14-.56.25 -.09.05-.05-.14-.05-.22l-.09-.47v0c-.03-.1-.09-.18-.15-.25 -.05-.06.09-.09.16-.11l.27-.09c.09-.04.12.03.09.05 -.14.1-.13.14-.11.27 .02.12.02.26.02.36 .02.05.05.11.08.16 .08-.03.17-.09.17-.12l.02-.27c.1-.13.11-.07.133-.01 .04.09.06.16.1.27Zm.41-2.94h0c-.06-.19-.12-.37-.16-.55 -.02-.08.05-.12.12-.11 .24.05.492.11.74.17 .08.01.08.08.03.13h0c-.16.17-.35.3-.56.4 -.12.06-.12.01-.18-.07Zm10.72-6.57l-.001 0c-.05-.25-.15-.49-.29-.69 -.12-.14-.25-.16-.38-.03V2.35c-.04.03-.08.08-.11.12 -.13.15-.12.2.07.29 .28.08.44.24.64.45ZM5.12 19.15l-.001-.001c-.15.08-.28.19-.38.33 -.09.15-.18.29-.26.44 -.03.07-.08.24-.1.35l.05.05H4.43c.13-.08.25-.17.36-.27 .21-.21.26-.41.37-.82l.02-.05ZM23.36 2.13v0c-.12-.23-.26-.45-.41-.66 -.12-.14-.17-.16-.29-.03v0c-.05.03-.08.07-.12.12 -.13.15-.2.34 0 .37 .17.02.41 0 .52.07 .1.06.19.137.24.16ZM2.38 13.25c-.04.3-.03.3-.03.51 0 .11.05.11.15.12 .09 0 .12-.09.14-.2l.06-.42c.01-.14.02-.22-.06-.23 -.16-.03-.27.07-.29.2Zm1.61-5.6v0c-.14-.03-.27-.08-.39-.14 -.21-.11-.41-.33-.38-.54 .01-.1.07-.125.15-.08 .15.11.29.29.4.41H3.77c.09.09.16.21.2.33Zm1.55 4.916c0 .08.07.32.1.46 .01.07.02.13.13.12 .14-.02.19-.09.17-.2 -.02-.13-.05-.26-.08-.39s-.08-.2-.19-.19c-.12.01-.16.05-.14.18Zm6.15-7.808c-.09.15-.17.31-.27.45 -.08.11-.21.18-.32.27 -.11.02-.12.02-.08-.09 .16-.27.31-.48.48-.7 .12-.07.17-.02.16.05Zm8.3 4.295c0 .1-.02.19-.05.28l-.03.01c-.13-.33-.44-.85-.42-.9 -.01-.04.07-.06.11-.05l.14.05c.08.19.16.37.24.59Zm.9-6.86c.01 0 .06.01.1.05 .06.05.07.1-.02.14 -.2.09-.53.26-.74.34 -.05.02-.09.02-.07-.05 .04-.13.53-.484.71-.484Zm-7.08 8.992c-.14 0-.26.1-.26.21 0 .12.15.24.29.24 .125 0 .21-.09.21-.21 0-.15-.1-.26-.26-.26ZM2.9 21.62c-.03 0-.09.09-.13.09 -.17.01-.23.03-.23.1 0 .09.05.14.12.12 .24-.08.3-.07.629-.05l.11-.14c-.04-.04-.07-.08-.12-.09H3.27c-.14-.04-.27-.06-.41-.06ZM17.47 9.71c-.06.03-.1.06-.09.12l.04.1c.09-.02.2-.03.3-.02 .13.04.35.09.49.11 .03 0 .07-.03.09-.07 0-.01-.02-.03-.03-.06 -.19-.19-.51-.2-.83-.21ZM8.35 5.52l-.34-.15c-.02-.02-.04-.08-.02-.1 .07-.12.15-.22.23-.32 .04-.05.07-.04.09.01l.17.42c.03.08-.01.11-.15.125ZM3.89 9.67c.08-.02.12.03.11.1 -.01.04-.03.05-.09.09h0c-.25.07-.51.08-.76.02 -.09-.02-.137-.03-.15-.05L3 9.83c.02-.04.05-.06.09-.07ZM6.27 3.03c-.03 0-.06.02-.07.01 -.22-.13-.54-.29-.74-.42 -.05-.07-.02-.09.04-.09 .16.05.44.13.6.19 .1.05.13.14.15.28ZM9.64 7.86c.02.03.05.07-.03.18 -.12.17-.14.35-.22.59v0c-.02.04-.05.09-.08.14 -.03.02-.07.03-.09.05 -.01-.03-.03-.07-.03-.09l.22-.73c.03-.09.1-.14.19-.15ZM17.72 5.42h0c-.31-.07-.6-.18-.87-.31 -.1-.09-.08-.08.04-.09l.81.21c.15.12.12.11 0 .16Zm-3.37 5.18v0c-.03-.07-.07-.12-.13-.16 -.05-.03-.12-.02-.17.02v0c-.05.03-.1.07-.14.11 -.07.08-.03.17.07.24 .08.05.17.05.22-.03 .05-.07.09-.11.12-.21Zm-5.46-4c-.03.06-.04.12-.08.17 -.12.13-.24.26-.36.38 -.12.05-.125-.03-.12-.08 .11-.21.26-.38.41-.55 .01-.02.06-.03.08-.02 .02.01.03.04.05.08ZM4.22 5.46c-.03.02-.47-.67-.53-.81 0-.03.07-.08.1-.11v0c.03.01.05.03.07.06 .14.29.38.8.36.82Zm-.19 2.72l-.19-.09c-.137.03-.25.09-.41.1 -.17.01-.23-.03-.29-.07 .02-.05.11-.1.24-.13 .07-.02.4-.05.68-.02ZM20.87 4.7l.48.36c.05.03.04.1.06.14l-.11-.02c-.21-.11-.43-.19-.56-.39 -.12-.17.07-.15.12-.1ZM8.71 5.29l-.06.08c-.02-.03-.05-.05-.07-.09 -.05-.09-.05-.18-.05-.27 -.03-.21-.02-.32.11-.45 .05-.06.09-.03.09.03 0 .26-.01.42-.04.67Zm-3.08-.76c.04.01.125.5.17.76v0c.01.06.01.12-.001.18 -.02.05-.05.07-.09.02 -.09-.26-.125-.53-.17-.78 -.02-.08-.02-.16.07-.2Zm14.03 2.99c.19.11.43.31.52.42 .02.02.01.09 0 .14 -.04-.02-.07-.02-.1-.04 -.17-.11-.32-.22-.48-.33 -.02-.02-.03-.14-.05-.17v0c.02-.03.05-.04.08-.05Zm-9.05-4.26c.03.02.05.04.07.07V3.33c-.02.03-.04.05-.07.07 -.15.05-.47.05-.61-.03v0c-.03-.03-.06-.06-.07-.09l.09-.06 -.001 0c.19-.04.39-.04.58.02Zm3.72.79c.13.2.19.4.24.62 0 .01-.01.01-.01.05 -.04-.03-.05-.03-.07-.05v0c-.16-.15-.28-.34-.34-.55 -.02-.05-.01-.1.05-.13H14.2c.03 0 .07.01.1.03Zm-2.58 14.16c.15-.1.2-.17.34-.25 .05-.04.05-.05.02-.1 -.04-.07-.07-.07-.15-.04 -.16.05-.22.09-.38.15 -.07.02-.1.05-.02.1ZM6.9 3.53c.19-.14.39-.21.6-.29 .03-.01.08 0 .12.03l-.08.06c-.17.11-.33.2-.49.3v0c-.06-.01-.12-.02-.17-.03V3.6c-.02-.04-.02-.07 0-.1ZM1.95 7.59c-.05-.23-.11-.5-.07-.7v0c.01-.05.04-.1.08-.13 .04.03.08.06.08.1 .04.23-.03.49-.05.71ZM12.72 2.59v0c.17-.13.36-.24.56-.33l0-.001c-.15.23-.35.44-.58.6 -.02-.09-.05-.24.01-.29Zm-2.65 8.64c0 .09.04.19.11.26 .04-.04.07-.1.07-.13 .01-.18.02-.36.02-.54 .02-.07-.09-.09-.11-.02 -.05.13-.11.27-.12.41Zm9.08 7.15l-.77.25c.17.2.69.03.76-.26ZM7.88 4.47c.01.2-.03.45-.14.641 -.02.02-.05.04-.08.06 -.02-.04-.05-.07-.05-.09 .04-.21.09-.46.14-.67 0-.02.04-.03.05-.03ZM18.59 19.1c.16 0 .32-.01.44-.05 .11-.07.1-.22.14-.32l-.05-.02 -.19.16v0c-.13.03-.25.05-.38.07v0c-.03.02-.05.04-.06.07 .02.02.04.05.06.05Zm-1.54-8.21c.05-.12.1-.23.14-.34 0-.03-.03-.09-.08-.13v-.001c-.04 0-.07.02-.09.04v0c-.1.11-.18.23-.24.36 .01.03.09.03.25.06ZM4.23 7.65l.16-.42c.03-.01.05-.01.07 0 .02.12 0 .32-.01.4 -.03.11-.07.17-.17.22v0c-.04-.07-.06-.15-.07-.22Zm9.34 3.03c-.12 0-.2.06-.21.16 0 .08.09.16.19.16 .1-.01.18-.09.19-.18 0-.1-.07-.16-.18-.16Zm-.1 1.01c0-.12-.07-.19-.19-.19 -.1 0-.17.06-.17.15s.1.19.2.19c.09 0 .14-.07.14-.16Zm-.42-1.05c0 .09-.06.14-.15.14 -.12 0-.21-.07-.21-.18 0-.09.08-.17.16-.17 .08-.01.18.07.18.19Zm.07.41c-.1 0-.17.06-.17.14 0 .08.09.16.18.16 .07 0 .14-.08.14-.17 0-.08-.07-.15-.17-.15Zm-1.09 7.39c-.13 0-.24.06-.24.13s.1.16.18.16c.08 0 .12-.09.12-.2 -.01-.09 0-.1-.08-.1ZM4.15 2.78c-.07-.25-.04-.48.03-.73 .1.21.11.56-.03.72Zm9.31 7.25c-.07.04-.13.1-.12.13 0 .05.06.09.09.14v0c.05-.04.09-.08.11-.14 .01-.03-.05-.09-.1-.15Z"/></svg>