<svg viewBox="0 0 24 24" xmlns="http://www.w3.org/2000/svg"><path d="M11.04 0c-.01 0-1.46 1.43-3.22 3.17L4.61 6.34l.51.51 .51.51 -2.82 2.79 -2.82 2.79 1.83 1.84c1 1.016 2.43 2.46 3.18 3.2l1.351 1.35 .508-.5c.28-.28.51-.5.524-.5 0 0 1.26 1.26 2.79 2.808l2.78 2.8 .18-.19c.23-.23 5-4.95 5.71-5.66l.52-.52 -.51-.52c-.28-.29-.5-.52-.5-.53 0-.01 1.26-1.26 2.8-2.79 1.53-1.53 2.8-2.776 2.8-2.785 0-.02-3.62-3.684-6.11-6.193l-.25-.25 -.51.5c-.28.27-.52.5-.53.49 -.02-.01-1.27-1.27-2.8-2.81v0c-.93-.94-1.85-1.87-2.79-2.8ZM9.22 7.36c.09.03 7.95 4.6 7.95 4.62 0 .01-1.79 1.05-3.965 2.32l-.001-.001c-1.34.77-2.67 1.54-4 2.3 -.02 0-.03-1.266-.03-4.629 0-3.7 0-4.64.03-4.63Z"/></svg>