<svg viewBox="0 0 24 24" xmlns="http://www.w3.org/2000/svg"><path d="M24 4.678C24 2.598 22.32.9 20.27.9H3.72C1.66.9-.01 2.597-.01 4.68v7.535c0 .33.045.66.135.99 .03.13.07.26.12.39 .25.62.653 1.17 1.173 1.593 .51.52 1.17 1.09 1.96 1.71l.1.07 .43.33 .52.39c1.19.91 3.205 2.45 6.16 4.71 .48.36 1.03.67 1.38.67 .34 0 .9-.31 1.38-.68 2.96-2.26 4.97-3.8 6.164-4.71l.97-.74h-.01l.11-.09c.79-.62 1.46-1.19 1.968-1.71 .51-.42.9-.96 1.15-1.58 .16-.44.25-.91.25-1.38V5.03h-.01l0-.01v-.39Zm-4.14 6.242v0c-.1-.02-.19-.04-.29-.05 -.11 0-.23-.02-.33-.02v-.001c-.28-.01-.56.05-.81.16 -.22.1-.4.24-.54.43s-.23.41-.29.64c-.06.25-.09.52-.09.81v2.88h-5.03L8.74 10.18 7.18 11.75v3.97H4.46V3.35h2.71v5.13L12 3.35h3.39L10.56 8.24l5.16 7.29V9.35h1.66v1.18h.02c.08-.2.19-.38.33-.55 .14-.17.3-.32.48-.43 .18-.11.375-.21.58-.27 .2-.06.42-.09.64-.09 .11 0 .24.03.38.06Z"/></svg>