<svg viewBox="0 0 24 24" xmlns="http://www.w3.org/2000/svg"><path d="M.7 2.361c-1.19.11-.88.15 1.98.28 5.677.242 9.043 1.14 11.35 2.99 1.23 1.01 2.18 3.14 2.18 3.14s-3.64.83-7.8 1.65c-4.16.81-7.46 1.54-7.33 1.58 .35.11 5.21-.484 10.31-1.28l4.87-.734c.07-.02.03.39.03.51 0 1.1-1.13 2.94-2.8 4.599 -2.75 2.68-6.63 4.68-11.573 5.96 -1.37.35-2.2.63-1.9.63 1.18.04 5.742-1.3 7.81-2.27 2.68-1.28 4.4-2.51 6.49-4.67 1.48-1.85 2.99-2.8 3.05-5.02l3.06-.51c1.62-.27 3.1-.55 3.28-.62 .24-.09.28-.36.19-1.02 -.16-1.21-1.1-2.16-3.02-3.04 -2.91-1.35-5.88-1.61-7.442-.68 -.18.1-.38.41-.54.48l-.001-.001c-.79-.29-1.58-.58-2.37-.87C7.48 2.42 3.76 1.98.61 2.27Zm19.032 2.773c1.62.484 4.18 2.01 3.79 2.09l-3.07.6 -3.39.77c-.65-1.44-1.5-2.24-2.628-3.31l.13-.33c.32-.8 2.53-.61 5.15.16Z"/></svg>