<svg viewBox="0 0 24 24" xmlns="http://www.w3.org/2000/svg"><path d="M16.61 13.91c-1.029 0-1.43-.952-1.43-1.92 0-.98.39-1.93 1.42-1.93 1.03 0 1.42.952 1.42 1.92 0 .96-.4 1.91-1.43 1.91m0-4.805c-1.63 0-2.567 1.218-2.567 2.89 0 1.67.94 2.89 2.567 2.89 1.62 0 2.56-1.218 2.56-2.89 0-1.68-.94-2.89-2.57-2.89Zm-16.62.15H4.05v.97H1.11v1.2H3.85v.952H1.11v1.35H4.05v.97H-.03V9.21Zm6.73 2.84H5.67v-1.88H6.7c.7 0 1.18.31 1.18.94 0 .62-.476.93-1.19.93M4.52 14.67h1.14v-1.64h1.02c1.38 0 2.314-.69 2.314-1.904 0-1.23-.94-1.92-2.314-1.92H4.51v5.458Zm16.2-5.458h-1.17v5.458h1.11V12.46c0-.6-.03-1.14-.05-1.61 .13.26.53 1.08.7 1.39l1.45 2.42h1.16V9.2h-1.11v2.15c0 .59.02 1.19.04 1.67 -.14-.28-.54-1.096-.72-1.41l-1.45-2.43Zm-10.43 3.65c0 .73.6 1.01 1.25 1.01 .42 0 1.11-.13 1.11-.69 0-.6-.85-.71-1.65-.92 -.86-.24-1.68-.55-1.68-1.561 0-1.13 1.06-1.67 2.05-1.67 1.15 0 2.2.49 2.2 1.77h-1.13c-.05-.67-.56-.83-1.13-.83 -.39 0-.875.15-.875.61 0 .42.27.48 1.66.84 .39.11 1.66.35 1.66 1.59 0 1.01-.8 1.77-2.292 1.77 -1.22 0-2.36-.6-2.35-1.96h1.141Z"/></svg>