<svg viewBox="0 0 24 24" xmlns="http://www.w3.org/2000/svg"><path d="M18.308 11.603c2.39-1.46 4.23-2.53 4.96-4.36 1.54-4.17.36-5.87-1.11-4.57C20.27 4.49 11.45 13.74.18 20.246c-.18.09-.2.32.55.09 4.48-1.58 14.23-6.705 17.555-8.745Zm1.82-.34c.94-.59 1.97-.24.31 2.46 -1.13 1.66-1.91 2.63-4.92 3.54 -2.08.78-9.77 3.02-15.157 3.67 -.41.03-.524-.12-.13-.25 5.135-1.31 17.98-8.21 19.889-9.44Zm-8.977 10.47c2.2-.08 3.862.24 5.72-1.73 1.95-2.02 1.72-3.07.54-2.75 -1.75.52-8.12 2.69-15.622 3.73 -.34.04-.256.22.14.25 5.01.47 6.911.51 9.213.48Z"/></svg>