<svg viewBox="0 0 24 24" xmlns="http://www.w3.org/2000/svg"><path d="M12 0v0c-1.92 0-3.81.46-5.52 1.34L8.49 15.4l2.03-5.29v0c.05-.14.18-.24.33-.24v0c.05-.01.1 0 .15.02v0c.19.07.29.28.21.48 -.01 0-.01 0-.01 0L9.61 14.5 18.92 2.19l0-.001C17.75 1.36 16.44.74 15.06.38L14.21 2.7l-.32.82V3.52c-.08.19-.3.28-.49.21 -.01-.01-.01-.01-.01-.01v0c-.2-.08-.29-.3-.22-.484l.31-.83L14.29.17v0c-.78-.16-1.57-.24-2.37-.24ZM5.785 1.736l0-.001c-3.14 1.89-5.24 5.12-5.7 8.76l.699.49H.78c.16.11.21.35.09.52 -.01 0-.01 0-.01 0h0c-.12.16-.36.2-.522.09l-.35-.25h0c-.02.21-.02.42-.02.64v0c0 1.75.38 3.48 1.12 5.07H1.09c.05-.05.13-.08.21-.09l6.05-.43 -5.213-3.7H2.13c-.17-.12-.21-.36-.09-.53 0-.01 0-.01 0-.01h-.001c.06-.1.16-.16.28-.16v0c.08-.01.17.01.24.06l5.205 3.69L5.74 1.66Zm13.764.93L9.275 16.246l10.03-2.57 -.13-.5h0c-.06-.21.07-.41.27-.46v0c.02-.01.04-.01.07-.02v0c.17-.01.33.1.38.27l.12.49 3.95-1.02h0c0-.17 0-.33.01-.49v-.001c0-3.63-1.64-7.06-4.46-9.33Zm-7.48 1.6v-.001c.05-.01.1 0 .15.02l.82.31 .82.31v0c.19.07.29.29.21.48 -.01 0-.01 0-.01 0v0c-.08.19-.3.28-.49.21 -.01-.01-.01-.01-.01-.01l-.83-.32 -.83-.32v0c-.2-.08-.3-.3-.22-.49 0-.01 0-.01 0-.01h0c.05-.14.18-.24.33-.24Zm.13 2.13v0c.05-.01.1 0 .15.02h-.001c.19.07.28.29.21.484l-.28.71 .38.14 0-.001c.19.07.29.29.21.48 -.01 0-.01 0-.01 0v0c-.08.19-.29.28-.49.21l-.4-.15 -.1.23h-.001c-.08.19-.3.28-.49.21 -.01-.01-.01-.01-.01-.01v0c-.2-.08-.29-.3-.22-.484l.09-.24 -.56-.22v0c-.2-.08-.3-.3-.22-.49 0-.01 0-.01 0-.01V7.27c.05-.14.18-.24.33-.24v0c.05-.01.1 0 .15.02l.56.21 .27-.71v0c.05-.14.18-.24.33-.24Zm11.73 6.86l-3.71.95 .12.49v0c.05.2-.07.4-.27.45 -.01 0-.01 0-.01 0v0c-.21.05-.41-.07-.46-.27 -.01-.01-.01-.01-.01-.01l-.13-.5 -9.785 2.5 4.91 1.5v0c.19.06.3.26.24.46v0c-.06.19-.27.31-.47.25 -.01-.01-.01-.01-.01-.01l-4.93-1.51 1.032 1.17v0c.13.15.12.39-.04.52 -.01 0-.01 0-.01 0v0c-.16.13-.4.12-.53-.04l-1.33-1.51 -.52 5.567v0c1.25.43 2.57.65 3.89.65v0c.69-.01 1.38-.07 2.07-.18l-2.45-2.64 -.31.26h-.001c-.16.13-.4.12-.53-.04 -.01-.01-.01-.01-.01-.01v0c-.14-.16-.13-.4.03-.53 0-.01 0-.01 0-.01l.29-.26 -.32-.36v0c-.14-.16-.13-.4.03-.53v0c.06-.07.15-.1.25-.1v0c.1 0 .2.04.27.12l.31.35 .38-.34h0c.06-.07.15-.1.25-.1v0c.1 0 .2.04.27.12v0c.13.15.12.39-.04.52 -.01 0-.01 0-.01 0l-.38.32 2.72 2.95v0c1.92-.49 3.69-1.44 5.16-2.78l-3.27-1v0c-.2-.06-.32-.27-.26-.47 0-.01 0-.01 0-.01v0c.04-.17.19-.27.36-.27h-.001c.03 0 .06 0 .1.01l3.654 1.11v0c1.81-1.92 2.95-4.38 3.23-7ZM7.46 17.316l-5.912.56H1.54c.7 1.24 1.62 2.36 2.72 3.285l.35-.43h0c.06-.09.16-.14.27-.14v0c.09-.01.18.02.25.08v0c.15.13.18.36.04.52l-.35.41h0c.77.57 1.61 1.04 2.5 1.41L7.78 18l-.56.67v-.001c-.14.15-.37.18-.53.05h0c-.16-.14-.19-.37-.05-.53l.76-.93Zm-2.55 1.88v0c.09-.01.18.02.25.08l.681.56 .68.56H6.52c.15.13.18.36.05.52 -.01 0-.01 0-.01 0H6.56c-.14.15-.37.18-.53.05 -.01-.01-.01-.01-.01-.01l-.681-.57 -.69-.57H4.64c-.16-.14-.19-.37-.06-.53 0-.01 0-.01 0-.01v0c.06-.09.16-.14.27-.14Z"/></svg>