<svg viewBox="0 0 24 24" xmlns="http://www.w3.org/2000/svg"><path d="M24 18.58v0c-.73.27-1.54-.04-1.9-.72l-3.45-4.78 -.5-.67 -4.003 5.44v0c-.34.65-1.11.95-1.81.7l5.15-6.92L12.68 5.37V5.37c.71-.26 1.5.02 1.9.66l3.57 4.83 3.59-4.81V6.05c.34-.65 1.1-.94 1.78-.67l-1.87 2.47 -2.53 3.28v0c-.28.24-.3.66-.06.94 .01.01.03.03.05.05l4.8 6.41ZM0 11.56l.42-2.08C1.57 5.37 6.28 3.67 9.51 6.21c1.89 1.48 2.36 3.59 2.27 5.97H1.11c-.18 4.24 2.88 6.8 6.8 5.49v0c1.28-.47 2.25-1.55 2.58-2.88 .2-.67.548-.78 1.17-.59h0c-.22 1.64-1.17 3.1-2.59 3.95H9.07c-2.39 1.3-5.33.92-7.31-.94v0C.8 16.13.23 14.78.12 13.35c0-.24-.08-.46-.14-.67l-.001-.001c-.01-.39-.01-.78-.01-1.16Zm1.12-.29h9.654c-.06-3.08-2.01-5.258-4.59-5.28 -2.882-.04-4.95 2.09-5.08 5.26Z"/></svg>