<svg viewBox="0 0 24 24" xmlns="http://www.w3.org/2000/svg"><path d="M3.673 9.2V8.16H0v5.72h3.68V12.83h-2.5v-1.38h2.158v-1.02h-2.16V9.19Zm2.162 6.63l2.53-5.91h-1.24l-.91 2.35 -.91-2.36H4.06l1.54 3.6 -1.01 2.3Zm6.62-3.58v-.45c0-1.24-.75-1.97-1.89-1.97 -1.18 0-2.013.78-2.013 2.05 0 1.27.83 2.05 2.04 2.05 .92 0 1.68-.54 1.82-1.29l-1.13-.06c-.09.27-.34.43-.73.43 -.51 0-.81-.32-.827-.81Zm-1.9-1.54c.5 0 .75.31.77.79h-1.6c.03-.51.34-.8.82-.8Zm6.478-1.53V8.14h-3.68v5.724h3.68V12.81h-2.5v-1.38h2.15v-1.02h-2.16V9.17Zm5.46.65c-.6 0-.99.26-1.22.62 -.26-.41-.7-.63-1.24-.63 -.55 0-.87.2-1.04.48v-.41h-1.06v3.95h1.11v-2.2c0-.48.26-.8.71-.8 .4 0 .64.28.64.78v2.205h1.11V11.49c.04-.4.29-.66.68-.66 .42 0 .65.28.65.78v2.2h1.11v-2.43c0-1.01-.6-1.61-1.5-1.61Z"/></svg>