<svg viewBox="0 0 24 24" xmlns="http://www.w3.org/2000/svg"><path d="M15.929 19.487c0 .03.26.2.59.36 1.57.83 2.55 1.74 2.91 2.75 .16.43.17.59.02.92 -.18.43-.21.42.95.39 1.04-.04 1.657-.15 1.657-.32 0-.08-.86-.89-1.18-1.093v0c-.07-.05-.13-.1-.19-.15v0c-.11-.09-.22-.18-.33-.26l0 0c-.13-.1-.25-.19-.38-.28l0-.001c-.09-.07-.17-.14-.25-.2l-.45-.35h0c-.17-.14-.35-.26-.54-.36 -.33-.18-.53-.31-.58-.36 -.05-.06-1.04-.593-1.5-.82 -.22-.1-.45-.22-.52-.25 -.16-.09-.28-.1-.28-.02Zm-5.75-1.54h-.001c-.03.13-.05.27-.06.41 -.05.5-.38 1.16-.77 1.52 -.47.43-.75.57-1 .48l0-.001c-.21-.06-.42-.1-.63-.12 -.36-.05-.49-.03-.657.07 -.19.1-.23.17-.23.4 0 .31-.01.3.25.16l-.001-.001c.09-.06.19-.09.3-.11 .15 0 .09.14-.1.22 -.21.09-.27.27-.28.82 -.01.42.12.58.23.28 .03-.1.17-.23.3-.3h-.001c.16-.11.3-.25.41-.41 .18-.32.28-.37.28-.15 0 .45.23.47.43.03 .12-.25.18-.31.27-.28 .23.1.51.11.61.02 .1-.09.09-.12-.05-.26 -.09-.1-.15-.18-.13-.2 .15-.12.5-.2.85-.2 .62 0 .71-.11.71-.92 0-.82-.22-1.41-.57-1.56 -.18-.08-.24-.08-.26-.01ZM22.535 1.05V1.05c-.08.09-.15.2-.2.31 -.42.885-1.79 1.72-3.95 2.39 -.2.06-.54.16-.75.23 -.22.06-.64.2-.93.28 -3.635 1.1-4.27 1.678-5.57 4.963 -.59 1.47-.9 1.96-1.5 2.36 -.51.34-.92.45-2.07.6 -1.83.22-2.54.43-3.107.94 -.35.3-.47.61-.47 1.24 0 .28-.03.53-.06.55 -.04.02-.1.21-.15.43 -.08.3-.08.45-.01.64 .1.29.37.53.62.53 .17 0 .18-.05.05-.38 -.03-.08.01-.18.13-.31 .15-.16.23-.18.72-.18 .55 0 .74-.06 1.008-.3 .15-.14.15-.14.35.08 .42.46 1.52 1.12 2.89 1.73 .65.29 1.05.64 1.36 1.186 .2.35.23.45.23.97 0 .83-.3 1.4-.89 1.68 -.1.05-.25.11-.31.15 -.08.03-.34.06-.593.06h-.47l-.15.33 0-.001c-.08.17-.17.35-.25.52 -.08.15-.08.2 0 .32 .09.12.12.1.46-.25 .35-.37.57-.48.57-.28 0 .05-.13.2-.28.32 -.35.27-.4.47-.24.95 .13.38.31.5.35.23 .01-.08.12-.24.23-.35 .11-.11.2-.25.2-.3 0-.05.05-.13.1-.18 .15-.13.22.1.12.45 -.07.24-.06.31.03.41 .07.07.09.18.06.3s-.02.17.05.17c.1 0 .33-.23.33-.32 0-.03.06-.15.15-.27 .15-.22.15-.26.02-1.02 -.03-.15-.02-.27.01-.27 .15 0 .66.32.69.44 .05.18.26.07.26-.14v0c-.02-.29-.18-.55-.43-.68 -.24-.1-.28-.26-.09-.32 .45-.15.87-.4 1.25-.78 .45-.45.53-.54.82-.97 .4-.6.78-.86 1.221-.86 .6 0 2.48.843 3.94 1.76 .67.42 2 1.35 2.22 1.55 .04.04.28.22.54.4 .25.17.7.52.98.76 .28.23.54.43.57.43 .23 0 .31-.62.1-.8h0c-.18-.13-.37-.24-.56-.35 -.53-.3-1.53-.98-1.97-1.34 -.99-.81-2.25-2.39-3.08-3.87h-.001c-.1-.16-.2-.33-.28-.49 -.6-1.05-1.75-2.385-2.05-2.385 -.13 0-.13-.01.07-.93 .05-.3.14-.8.18-1.11 .12-.87.31-1.87.45-2.356 .38-1.45 1.2-2.457 2.7-3.3 2.09-1.2 2.92-1.928 3.52-3.12 .32-.64.38-.8.57-1.51 .1-.37.22-1.25.17-1.25v0c-.04.01-.07.03-.1.05ZM3.49.47C1.83 2.18.99 3.91.99 5.63c0 .39.02.72.07.75 .04.02.07.11.07.2 0 .2.17.69.4 1.157 .3.62.736 1.05 1.92 1.91 .92.67 1.44 1.42 1.61 2.385l.09.51 .25-.11c.65-.28 1.15-.38 2.64-.54 .95-.1 1.32-.25 1.77-.68 .62-.63.32-1.04-1.64-2.2C6.06 7.75 5.3 7.16 4.48 6.14c-.657-.83-1-1.5-1.157-2.343 -.16-.79.05-2.03.53-3.15C3.98.32 4.1.03 4.1 0c0-.15-.24 0-.65.42Z"/></svg>