<svg viewBox="0 0 24 24" xmlns="http://www.w3.org/2000/svg"><path d="M8.123 0v0c-.24-.05-.46.1-.51.34 -.01.02-.01.05-.01.07v9.746l-3.51-3.51h-.001c-.17-.17-.45-.17-.62 0 -.02.01-.04.03-.05.05h0c-.05.07-.08.15-.08.23v10.06H3.34c-.01.63.25 1.24.7 1.69l4.56 4.57v-.001c.44.44 1.05.7 1.69.7h3.34c.63 0 1.24-.26 1.69-.71l4.56-4.58v0c.44-.45.69-1.06.69-1.7v-3.63h-.001c0-.64-.26-1.25-.7-1.7L8.28.02V.02c-.06-.06-.14-.11-.22-.12Zm1.52 12.502v0c.19-.01.37.07.5.21l1.84 1.85 1.84-1.85h-.001c.27-.29.72-.29 1-.01 0 0 0 0 0 0l1.32 1.32 -.001-.001c.13.13.21.31.21.5v1.4 0c-.01.19-.08.37-.21.5l-3.68 3.7h0c-.29.28-.74.28-1.02 0 -.01-.01-.01-.01-.01-.01l-3.67-3.7v0c-.14-.14-.21-.32-.21-.51v-1.41 0c-.01-.2.07-.38.21-.51l1.32-1.33h0c.13-.14.31-.22.5-.22Z"/></svg>