<svg viewBox="0 0 24 24" xmlns="http://www.w3.org/2000/svg"><path d="M8.14 19.182v0c-.22-.5-.7-.84-1.24-.87l-1.62-4.98 -.37-1.14c-.02.01-.12.05-.13.06 -.01.01-.03.01-.04.01v0c-.03 0-.05.02-.07.03v0c-.04.01-.07.03-.11.04 -.05.01-.08.03-.12.04 -.04.01-.07.02-.11.03 -.04.01-.09.02-.13.03 -.04.01-.07.01-.11.02v0c-.05.01-.1.01-.14.01 -.04.01-.07.01-.11.01 -.03 0-.06 0-.08.01H3.6c-.06 0-.1 0-.15-.01 -.04 0-.07 0-.1-.01l-.17-.03c-.03-.01-.06-.01-.09-.02v0c-.09-.02-.17-.04-.25-.06v0C1.52 11.93.79 10.53 1.2 9.21c0-.01 0-.01 0-.01 .42-1.32 1.82-2.06 3.13-1.64l.34-1.1v0C2.74 5.85.68 6.92.07 8.85H.07c-.6 1.92.46 3.97 2.39 4.59v0c.52.15 1.07.2 1.62.12l1.63 5.035H5.71c-.09.07-.17.16-.24.26l0 0c-.47.66-.3 1.58.37 2.04 0 0 0 0 .01 0h0c.66.46 1.58.29 2.04-.38 .06-.1.11-.19.15-.29v0c.14-.38.12-.8-.03-1.17ZM11.89.41v0C9.87.42 8.25 2.08 8.26 4.1s0 0 0 0c.01.54.14 1.09.38 1.58L4.36 8.79v0c-.11-.06-.22-.11-.33-.14v0c-.78-.24-1.6.21-1.83.99 -.01 0-.01 0-.01 0 -.24.78.21 1.596.996 1.83 .1.03.2.05.31.05 .4.02.8-.11 1.09-.38 .2-.18.35-.4.43-.68v0c.07-.25.08-.52.01-.77L9.26 6.61l.96-.702c-.02-.02-.08-.09-.1-.11l-.03-.03c-.02-.02-.04-.04-.06-.06V5.7c-.03-.03-.06-.06-.07-.09V5.61c-.03-.04-.05-.07-.08-.11 -.03-.03-.05-.06-.07-.09V5.41c-.03-.04-.05-.08-.07-.11v0c-.02-.04-.04-.07-.06-.1v0c-.03-.04-.05-.08-.06-.12 -.02-.04-.04-.06-.05-.1l-.03-.07c-.01-.02-.02-.05-.03-.06 -.01-.04-.03-.07-.04-.1 -.02-.05-.03-.1-.05-.15l-.03-.1c-.01-.05-.02-.11-.03-.17 0-.03-.01-.05-.02-.09v0c-.02-.09-.02-.18-.02-.26V3.98c-.02-1.39 1.09-2.52 2.47-2.53h-.001c1.38-.02 2.51 1.09 2.52 2.47l1.15-.01C15.44 1.9 13.79.28 11.77.3Zm11.9 8.66v0c-.65-1.92-2.72-2.95-4.64-2.31V6.76c-.52.18-1 .47-1.39.85L13.48 4.5c.02-.12.03-.24.03-.36v0c-.03-.82-.71-1.46-1.52-1.435l-.001 0c-.82.02-1.46.7-1.44 1.51v0c.01.51.29.97.74 1.23 .23.12.5.2.782.19 .26-.01.52-.09.73-.23l4.23 3.077 .96.7 .07-.12c0-.01 0-.03.01-.04 0-.03.02-.05.03-.07 .01-.04.03-.06.05-.1v0c.02-.04.05-.08.07-.12l.06-.09c.02-.04.05-.07.08-.11 .02-.03.04-.05.07-.09l.09-.1 .07-.08c.01-.02.03-.04.06-.05 .01-.02.03-.03.05-.05v0c.02-.03.05-.05.08-.06 .04-.03.08-.06.12-.08v0c.02-.02.05-.04.08-.05 .05-.03.09-.06.14-.08 .02-.01.05-.03.07-.04l-.001 0c1.26-.58 2.75-.02 3.32 1.25 .03.07.06.14.08.22h0c.43 1.3-.27 2.72-1.58 3.17l.37 1.09c1.9-.63 2.93-2.7 2.29-4.62Zm-2.17.62v0c-.28-.77-1.12-1.17-1.89-.9v0c-.1.03-.2.08-.29.14 -.35.21-.59.56-.67.94 -.05.25-.05.53.05.8 .09.25.24.46.43.62l-1.62 4.97 -.37 1.13c.01 0 .11.02.13.02 .01 0 .02 0 .04.01 .02 0 .05 0 .08.01s.07.01.1.02c.04.01.08.02.13.03 .03.01.06.01.1.03l.12.05c.03.01.07.02.1.04 .04.01.07.04.12.06 .03.01.06.03.09.05 .02.01.04.02.06.04 .01.01.03.02.05.03 .02.01.06.03.08.06v-.001c.04.02.07.05.11.09 .02.01.05.04.07.06 .04.03.07.07.12.12 .02.01.04.03.06.06 .06.06.11.13.16.19v0c.82 1.1.58 2.67-.52 3.49v-.001c-1.11.82-2.68.59-3.5-.52l-.93.68c1.205 1.61 3.5 1.96 5.116.75 1.61-1.21 1.96-3.497.75-5.12h0c-.34-.44-.76-.8-1.24-1.06l1.63-5.04v0c.81-.09 1.4-.82 1.31-1.63 -.02-.12-.04-.24-.08-.35Zm-3.45 9.2v0c-.31-.41-.81-.62-1.32-.56l0 0c-.28.02-.54.12-.75.3 -.22.16-.37.37-.47.61H9.2c0 .01.01.12.02.13 0 .01 0 .02.01.04 0 .02.01.05.01.07 0 .03 0 .07 0 .11 0 .04 0 .08.01.12v.11c0 .04-.01.08-.01.13 0 .03-.01.06-.01.11 -.01.04-.02.08-.02.13 -.01.03-.01.07-.02.1 -.01.02-.01.05-.02.08 -.01.01-.01.04-.02.06 -.01.03-.02.06-.03.1 -.02.04-.04.09-.06.14 -.01.03-.03.06-.04.09v0c-.03.04-.05.09-.08.14 -.02.02-.03.05-.04.07H8.89c-.05.07-.09.14-.14.21l0-.001c-.81 1.12-2.37 1.38-3.49.58l-.001-.001c-1.13-.81-1.39-2.37-.59-3.49 0-.01 0-.01 0-.01l-.94-.67h0c-1.17 1.64-.79 3.92.86 5.096v0c1.64 1.16 3.92.78 5.09-.86 .31-.45.52-.97.62-1.51h5.29v0c.33.74 1.2 1.07 1.95.74 .1-.05.2-.11.29-.18 .61-.51.73-1.436.23-2.08Z"/></svg>