<svg viewBox="0 0 24 24" xmlns="http://www.w3.org/2000/svg"><path d="M14.185 0c-1.702.008-3.7.467-6.068 1.331C.11 4.244-1.59 7.881 1.32 15.881c2.91 8 6.55 9.69 14.55 6.78 8-2.92 9.69-6.55 6.78-14.56C20.6 2.47 18.19-.04 14.16-.02Zm2.77 6.57h1.25v0c.07-.01.15.03.19.09v-.001c.04.06.06.14.04.21l-2.78 10.33v0c-.03.1-.13.18-.25.18h-1.26v0c-.14 0-.26-.12-.26-.25 -.01-.03 0-.05 0-.07l.16-.63 .12-.46 2.48-9.26v0c.02-.11.12-.19.24-.19Zm-9.19.8h.5v0c.13 0 .25.11.25.25v.84 0c0 .13-.12.25-.25.25h-.43V8.7c-.09-.01-.18 0-.26.01h0c-.05 0-.09.02-.12.04v0c-.03.02-.04.04-.05.07H7.4c-.04.1-.05.2-.05.31v.641h.89v0c.13 0 .25.11.25.25v.84 0c0 .13-.12.25-.25.25h-.9v5.09 0c0 .13-.12.25-.25.25H6.1v0c-.14 0-.25-.12-.25-.25V8.98H5.85c-.01-.27.05-.54.16-.78v0c.1-.21.26-.39.45-.53 .37-.26.82-.35 1.25-.35Zm3.85 2.34c.76 0 1.41.21 1.88.62 .46.4.72.99.72 1.66v1.68l-.76 2.8h-.48v0c-.14 0-.25-.12-.25-.25v-.19 0c-.08.06-.15.11-.23.16 -.34.21-.79.35-1.39.35v0c-.47 0-.93-.09-1.34-.29v0c-.39-.2-.71-.52-.89-.91v-.001c-.13-.29-.2-.61-.19-.92H8.68c-.01-.35.07-.69.24-.99v0c.15-.26.38-.48.64-.62 .52-.3 1.16-.4 1.78-.48h-.01c.34-.05.61-.08.827-.11v0c.14-.02.29-.05.43-.09h-.001c.02-.01.04-.03.06-.04l.01-.03v0c0-.03 0-.06 0-.09v-.04 0c0-.25-.1-.48-.28-.64 -.18-.16-.46-.26-.85-.27 -.39 0-.69.1-.89.26h-.001c-.2.13-.32.35-.34.58v0c-.02.12-.12.22-.25.22H8.99v0c-.14 0-.26-.12-.26-.25 -.01-.01 0-.01 0-.02V11.8c.02-.63.32-1.21.82-1.593 .49-.391 1.16-.62 1.94-.62Zm1.12 3.78c-.09.02-.19.04-.3.06 -.31.06-.67.11-1.03.16H11.4c-.24.02-.47.08-.7.17 -.2.08-.34.18-.41.3v0c-.06.09-.09.19-.08.3v0h-.001c-.01.09.01.18.06.27v0c.04.07.1.14.17.19 .16.11.42.19.79.19 .56-.01.91-.17 1.14-.39 .22-.23.33-.55.33-.9v-.41Z"/></svg>