<svg viewBox="0 0 24 24" xmlns="http://www.w3.org/2000/svg"><path d="M7.84 7.513v0c-.6 0-1.09.48-1.09 1.08 0 .59.48 1.08 1.08 1.08 .59-.01 1.08-.49 1.08-1.09v-.01c0-.6-.49-1.085-1.09-1.085Zm-2.907 3.04v1.41h1.94v4.79h.7v-2.724h.5v2.724h.71v-6.211H4.9Zm9.18.53h-.03c-.29-.42-.87-.702-1.64-.702 -1.49 0-2.8 1.22-2.79 3.31 0 1.936 1.18 3.2 2.65 3.2 .79 0 1.56-.37 1.93-1.04l.11.89H16V7.63h-1.94Zm0 2.904c0 .15-.02.31-.04.46l0-.02c-.11.532-.58.92-1.13.92h-.02 0c-.8 0-1.32-.66-1.32-1.73 0-.98.44-1.77 1.32-1.77 .6 0 1.02.43 1.138.94 .01.09.02.19.02.3l-.01.05v-.01ZM4.79 8.884l.47-1.6v0c-.13-.05-.26-.08-.39-.11l-.02-.01v0c-.28-.07-.56-.1-.83-.1v0c-.37-.01-.74.05-1.09.15l.02-.01v0c-.14.03-.26.08-.38.15l.01-.01h-.001c-.25.12-.47.28-.67.47 -.5.49-.754 1.15-.754 1.97v.7H-.06v1.41h1.199v4.79h1.92v-4.8h1.19v-1.42h-1.2v-.75 0c-.02-.26.06-.52.23-.72l-.01 0h0c.01-.03.04-.05.06-.07l0-.01s.41-.41 1.38-.14Zm15.5 1.49c-2.01 0-3.33 1.28-3.33 3.3 0 2.02 1.39 3.21 3.21 3.21 1.66 0 3.27-1.04 3.27-3.327 -.01-1.88-1.27-3.192-3.17-3.192Zm-.07 5.12c-.84 0-1.28-.8-1.28-1.88 0-.92.36-1.87 1.27-1.87 .87 0 1.23.93 1.23 1.85 0 1.13-.49 1.88-1.24 1.88Zm2.25-5.753h.23v.58h.14v-.59h.23v-.12h-.61v.11Zm1.3-.12l-.19.5 -.19-.51h-.21v.7h.13v-.58l.19.57h.11l.19-.58v.57h.13v-.71h-.21Z"/></svg>