<svg viewBox="0 0 24 24" xmlns="http://www.w3.org/2000/svg"><path d="M8.73 8.04c-.59 0-1.04.47-1.04 1.05l.02 5.795c0 .58.44 1.05 1.029 1.05h.12c.58 0 1.05-.48 1.05-1.06L9.87 9.08c0-.59-.48-1.06-1.06-1.06Zm3.07 0c-.58 0-1.04.46-1.04 1.04v5.24c0 .78.77 1.54 1.54 1.54h4.058c.57 0 .96-.42 1.29-1l2.11-3.622c.01-.04.05-.09.09-.09 .04 0 .07.05.09.08l1.38 2.21c.05.09.06.14.03.22 -.04.07-.11.09-.23.09h-1.939c-.58 0-1.05.46-1.05 1.04v.06c0 .577.46.97 1.04.97h3.16c.77 0 1.63-.74 1.63-1.69 0-.61-.12-.83-.63-1.65L20.97 8.66c-.28-.45-.65-.66-1.13-.66 -.49 0-.91.22-1.17.65l-2.72 4.496c-.19.3-.4.43-.75.43h-2.02l0 0c-.16 0-.28-.12-.29-.27 -.01-.01-.01-.02-.01-.02l0-4.28c0-.58-.47-1.05-1.05-1.05Zm-10.752.14c-.59 0-1.06.44-1.06 1.02v.07c0 .58.47 1.05 1.055 1.05h4.93c.58 0 1.05-.48 1.05-1.06v-.07 0c-.01-.58-.47-1.04-1.05-1.04 -.01 0-.01 0-.02 0Zm.18 2.81c-.724 0-1.25.56-1.25 1.24l-.01 2.65c0 .577.467 1.04 1.042 1.04h.13v0c.57 0 1.04-.47 1.04-1.04 0-.01 0-.01 0-.01v-1.46c0-.16.12-.29.28-.29h2.97c.57 0 1.04-.47 1.04-1.05V12c0-.58-.47-1.05-1.05-1.05Z"/></svg>