<svg viewBox="0 0 24 24" xmlns="http://www.w3.org/2000/svg"><path d="M23.99 1.861V.8 .8c-.22-.01-.42-.09-.57-.24V.55c-.15-.16-.24-.36-.24-.57h-1.06v0c-.04.44-.42.77-.87.74 -.41-.03-.72-.35-.75-.75h-1.06l0 0c-.03.44-.41.78-.85.76 -.42-.03-.75-.36-.77-.77h-1.06v0c-.03.44-.41.78-.85.76l0 0c-.42-.03-.75-.36-.77-.77h-1.06V-.05c-.03.44-.41.78-.86.75 -.41-.03-.74-.35-.76-.76H11.4v0c-.03.44-.41.78-.85.76 -.42-.03-.75-.36-.77-.77H8.72v0c-.02.43-.38.78-.82.77 -.01-.01-.01-.01-.02-.01v0C7.45.67 7.11.33 7.1-.09H6.04v0c-.04.44-.43.77-.87.74 -.4-.04-.71-.35-.75-.75H3.36V-.1c-.01.44-.36.8-.81.8 -.45-.01-.81-.36-.81-.81H.68l-.001 0C.66.33.31.697-.13.7v1.05l0-.001c.44.01.79.38.77.83 -.02.42-.36.76-.78.77V4.4l0 0c.44 0 .8.35.8.8 -.01.44-.36.8-.81.8v1.05l-.001-.001c.44.02.78.4.76.84 -.03.41-.36.74-.77.76v1.06h0c.44 0 .8.35.8.8 0 .44-.36.8-.81.8v1.06h0c.44 0 .8.35.8.8 -.01.44-.36.8-.81.8v1.06h0c.44 0 .8.35.8.8 0 .44-.36.8-.81.8v1.06c.444.01.79.38.774.83v0c-.02.42-.36.76-.78.77v1.061h0c.44 0 .8.35.8.8 0 .44-.36.8-.81.8v1.06h0c.44 0 .8.36.8.8h1.06 -.001c.03-.45.42-.78.86-.75 .39.03.7.34.74.74h1.06v0c.03-.45.41-.78.86-.75 .4.02.71.34.74.74h1.05l-.001 0c.02-.45.4-.79.85-.76 .4.02.73.34.75.75h1.06v0c.01-.45.38-.8.83-.78 .42.01.76.35.77.77h1.06v0c.03-.45.42-.78.86-.75 .39.03.7.34.74.74h1.05v0c.03-.45.41-.78.86-.75 .4.02.71.34.74.74h1.05v0c.03-.45.41-.78.86-.75 .4.02.71.34.74.74h1.05v0c.02-.45.39-.79.84-.77 .41.02.74.35.76.76h1.05c0-.21.08-.42.23-.57v0c.15-.15.35-.24.56-.24v-1.06 0c-.45-.04-.78-.42-.75-.86 .02-.4.34-.72.74-.75v-1.06 -.001c-.45-.03-.79-.41-.77-.85 .02-.42.35-.75.76-.77v-1.06 -.001c-.45-.04-.78-.42-.75-.87 .02-.41.34-.72.74-.75V13.83v0c-.45 0-.81-.36-.81-.81 0-.45.35-.81.8-.81v-1.06 0c-.45-.04-.78-.42-.75-.87 .02-.41.34-.72.74-.75V8.47v0c-.45-.02-.8-.39-.78-.84 .01-.43.35-.77.77-.78V5.79v0c-.45-.04-.78-.42-.75-.86 .02-.4.34-.72.74-.75V3.12v0c-.45-.04-.78-.42-.75-.87 .02-.41.34-.72.74-.75Zm-4.067 9.836l-6.41 6.22c.58.09 1.14.22 1.74.22 1.46 0 3.14-.45 4.28-.92l-.59 2.74c-1.68.8-2.7.87-3.71.87 -1.1 0-2.144-.36-3.215-.36 -.61 0-1.48.04-2.01.4L8.84 18.8l6.6-6.54h-7.6l-1.45 6.8H3.22L6.52 3.49H17l-.67 3.14h-7.3L8.4 9.55h11.97Z"/></svg>