<svg viewBox="0 0 24 24" xmlns="http://www.w3.org/2000/svg"><path d="M3.52 8.254c-.347 0-.67.08-1.02.21 -.43.18-.67.45-.746.8l-1.76 6.48h2.533l.8-3.02H6.6l.4-1.47H3.71l.37-1.362c.02-.14.133-.19.34-.19h3.01l.34-1.47h-4.3Zm4.82 0l-2 7.49h2.53l2-7.5H8.33Zm2.8 0l-.38 1.46h1.84c.16 0 .24.05.24.16v.02l-1.58 5.84h2.53l1.57-5.84c.02-.14.13-.19.34-.19h1.84l.31-1.47H11.1Zm8.53 0c-.35 0-.67.08-1.02.21 -.43.18-.67.45-.75.77l-1.47 5.49c0 .02-.03.08-.03.1v.1c0 .26.16.48.45.61 .24.1.5.18.79.18h4.32l.4-1.47h-3.02c-.16 0-.24-.06-.24-.16v-.03l.37-1.39h3.28l.4-1.47h-3.28l.34-1.34c.05-.14.15-.19.34-.19h3.01l.37-1.47h-4.32Z"/></svg>