<svg viewBox="0 0 24 24" xmlns="http://www.w3.org/2000/svg"><path d="M23.004 15.588h-.001c.54 0 .99-.45.99-1s-.45-1-1-1v-.001c-.55-.01-1 .44-1 .99 -.01.54.44.99.99.99Zm-1-3.705h-.85c-.55 0-.84.41-.84 1.09v2.46h-1.61v-3.558h-.69c-.55 0-.84.41-.84 1.09v2.46h-1.61v-4.88h1.61v.74c.26-.58.62-.74 1.16-.74h1.97v.74c.26-.58.625-.74 1.16-.74h.52v1.31Zm-6.79 1.5H11.85c.08.54.43.85 1 .85 .43 0 .73-.18.83-.49l1.42.4c-.36.84-1.22 1.36-2.26 1.36 -1.75 0-2.55-1.36-2.55-2.52 0-1.14.7-2.51 2.45-2.51 1.85 0 2.471 1.38 2.471 2.4 0 .22-.01.37-.02.47Zm-1.57-.95c-.04-.42-.35-.81-.89-.81 -.51 0-.81.22-.91.81h1.79Zm-6.16 3h1.41l1.76-4.88H9.03l-.86 2.83 -.88-2.84H5.67l1.787 4.87Zm-6.6 0h1.6v-3.558H4v3.558h1.59v-4.88H2.48v-.31c0-.34.23-.54.6-.54h.91v-1.32H2.8c-1.17 0-1.95.71-1.95 1.75v.4h-.91v1.31H.85v3.558Z"/></svg>