<svg viewBox="0 0 24 24" xmlns="http://www.w3.org/2000/svg"><path d="M7.172 20.36c-.92-.72-1.89-1.41-2.556-2.38 -1.41-1.72-2.482-3.7-3.22-5.78C.94 10.84.79 9.392.22 8.09c-.602-.944.1-1.98 1.13-2.28 .46-.09 1.272-.53.29-.22C.76 6.23.67 5 1.57 4.92c.61-.09.84-.585.63-1.037 -.66-.43 1.6-.903.46-1.544 -1.19-1.28 1.65-1.53.95-.08 -.17 1.11 1.98-.21 1.48 1.08 .5.61 1.9.14 1.86 1.009 .74.05.99.67 1.68.72 .72.32 2.02.58 2.266 1.39 -.72.56-2.37-1.165-2.45.39 .21 2.31.16 4.689 1 6.888 .4 1.33 1.37 2.38 2.24 3.41 .83 1.01 1.971 1.73 3.12 2.33 1.01.47 2.1.79 3.21.99 .44-.35 1.24-1.62 1.93-1.08 .03.6-1.39 1.26-.07 1.19 .77-.24 1.314.6 1.95-.16 .58.69 2.44-.45 2.02.98 -.57.36-1.4.14-1.96.64 -.94-.47-1.68.41-2.72.3v0c-1.16.19-2.32.29-3.484.29 -1.92-.15-3.865-.22-5.69-.88 -1.03-.3-2.03-.89-2.93-1.47Zm1.61.7c1 .43 1.97.88 3.074 1.02 1.74.24 3.53.61 5.28.27 -.79-.36-1.61.14-2.4-.26 -.95.2-1.96-.06-2.917-.18 -1.1-.49-2.27-.82-3.3-1.46 -1.28-.47.66.59 1 .68 .798.45-.88-.24-1.12-.43 -.67-.375-.76-.3-.07.08 .13.08.27.16.42.23Zm-1.904-1.35c.97.35-.01-.69-.45-.63 -.2-.35-.76-.56-.36-.74 -.71.24-.74-.93-1.07-.77 -.75-.24-.29-1.07-1.18-1.58 -.09-.54-.89-1.01-1.138-1.83 -.12-.42-.91-1.62-.42-.5 .41 1.07 1.14 1.99 1.75 2.907 .47.87 1.02 1.78 1.88 2.33 .29.27.56.7.97.79Zm-2.8-3.07c.03-.15.17.31 0 0Zm3.95 3.49c.21-.1-.31-.12 0 0Zm.52.19c-.06-.27-.24.14 0 0Zm.66.27c.31-.3-.484-.19 0 0Zm1.12.63c.19-.29-.61-.11 0 0Zm-2.17-1.52c.48-.32-.63-.01 0 0Zm.49.24c-.02-.17-.18.07 0 0Zm2.47 1.54c.39.25 2.32.55 1.11.1 -.2.04-2.23-.58-1.12-.11Zm-3.93-3.06c-.04-.17-.62-.19 0 0Zm1.15.67c.3-.21-.63-.16 0 0Zm.96.59c.43-.17-.7-.17 0 0ZM6.7 17.9c.46.35 1.88.04.71-.22 -.53-.29-1.73-.48-.92.17Zm3.24 1.97c.19-.33-.82-.19 0 0Zm-.984-.79c1.14.32-.96-.72-.29-.12l.15.06 .13.05Zm1.97 1.14c1.08.01-.98-.15 0 0Zm-4.65-2.96c-.05-.2-.266.01 0 0Zm6.47 3.98c.02-.37-.36.27 0 0Zm-4.63-2.86c-.07-.2-.34-.01 0 0Zm-1.74-1.26c.62-.04-.85-.28 0 0Zm-2.06-1.34c-.08-.3-.68-.54 0 0Zm5.407 3.43c-.12-.13-.06.02 0 0Zm3.36 2.06c-.01-.2-.19.07 0 0Zm-3.67-2.38c.06-.26-.53-.08 0 0Zm-2.51-1.6c.46-.05-.74-.32 0 0Zm4.241 2.63c.718-.29-.7-.14 0 0Zm-2.21-1.5c.827.1-.99-.57-.19-.06Zm2.87 1.76c.77-.47.51 1.08 1.311.13 .782-.57-.68.7.29.1 .69-.47 1.72.22 2.37.44 .46-.03.923.4 1.4.14 .92-.25-1.81-.37-1.09-.81 -.85.24-1.47-.3-1.89-.84 -.95-.22-2.05-.71-2.52-1.55 -.2-.32.28.04-.17-.47 -.57-.51-.86-1.09-1.24-1.702 -.46-.25-.51-.97-.56-.03 0-.593-.56-1-.69-.83 -.01-.58.59-.29.17-.71 -.09-.6-.39-1.21-.48-1.88 -.14-.33-.02-1.02-.48-.29 -.17.77-.06-.95.2-.38 .33-.58-.12-.51-.14-.43 .22-.49.14-1.18-.06-.92 .11-.52.18-1.91-.18-1.66 .21-.54.41-2.473-.54-1.74 -.39 0-1.048.14-1.37.29 .98.54-.1.19-.5.11 -.06.5-.45.28-.95.29 .79.09-.39.81-.85.53 -.59.28.51.98.01 1.205 .06.32-.91-.12-.83.64 -.573-.25-.08.9.2.51 .97.26.68.86.71 1.43 -.16.33-.79-.79-.14-.74 -.51-.827-.57-.3-.984.08 -.1.02 1.07.54.34.8 .65.1.66.67.8 1.03 .39.4.31-.45.77.04 -.3-.44-1.57-1.23-.55-.98 -.01-.44-.19-.8.12-.79 .31-.57-.33 1.38.375.67 .19-.09.24-.57.59.04 .5.49.18.85-.54.4 .12.43.95.58.79 1.26 .16.59.39.37.59.34 .15.57.24.15.25-.13 .72.15.55.58.77.88 .49.22-.72-1.53.14-.53 .89.81.33 1.15-.47 1.02 .51-.05.67.69 1.31.66 .58.27.97 1.34-.03.89 -.35-.32-1.58-.7-.58-.11 .92.43 1.66.68 2.561 1.22 .64.45.91.98 1.16 1.08 -.54.25-1.63-.21-.82-.35 -.51-.1-1.07-.35-.59.28 .41.34 1.45.3 1.63.34 -.16.34-.43.37 0 .4 -.49.26.15.3.2.44Zm-1-2.808c-.3-.31-.38-.89-.06-.39 .16.06.52.94.05.38Zm3.23 2.05c.18-.02 0 .14 0 0Zm-3.71-2.82c-.01-.47.1.36 0 0Zm-.33-.44c-.38-.72.47.2 0 0Zm-3.9-2.692c.21-.06.1.37 0 0Zm3.1 1.68c.13-.51.15.42 0 0ZM7.01 13.62c-.16-.28.32.26 0 0Zm1.88.6c-.36-.79.25-.44.07.13Zm-3.25-2.17c-.16-.26-.42-1.02-.34-1.26 .07.37.8 1.62.35.51 -.5-.93.59.3.702.53 .05.23-.31-.07-.07.47 -.44-.62-.26.34-.67-.28Zm-1.01-.7c.04-.61.23.41 0 0Zm.45.15c.21-.46.36.63 0 0Zm-1.09-.84c-.38-.37-.65-.72.01-.23 .25.01-.57-.78.06-.25 .66.12.32 1.08-.08.48Zm.57-.02c.21-.22.11.21 0 0Zm.35.11c-.33-.62.4.25 0 0Zm-.7-.67c-1.09-.97 1.36.5.17.18Zm3.11 1.8c-.47-.29-.13-1.984.03-.82 .45-.15-.03.6.31.59 -.06.47-.21.64-.35.22Zm1.15.68c.04-.52.09.35 0 0Zm-.2-.2c.05-.22 0 .25 0 0ZM4.42 9.75c-.7-.97 2.027.97.44.24 -.17-.05-.37-.06-.45-.25Zm2.21 1.17c-.07-.81.14.13 0 0Zm1.68 1.07c.13-.47.01.3 0 0ZM4.51 9.36c.41-.09 1.718.72.52.23 -.14-.15-.42-.08-.52-.24Zm3.56 1.77c.04-.83.24-.5 0 .11ZM4.81 9.06c.16-.25-.45-1.12.08-.32 .23.18.67.31.28.38 .61.53-.15.14-.38-.08Zm3.075 1.8c.11-.95.1.55 0 0ZM4.46 8.18c.12-.06.06.17 0 0Zm.8.47c.2-.44.38.48 0 0ZM7.52 9.9c-.01-.17.04.24 0 0Zm-.14-.29c-.32-.78.29.41 0 0Zm-.2-.51c-.06-.32.18.4 0 0Zm.31-.51c-.22-.38.27-1.673.32-.87 -.23.62-.07.97.09.13 .29-.66-.07 1.3-.42.73Zm.32-1.923c.09-.12.02.13 0 0Zm-.54 10.61c-.13-.12.01.07 0 0Zm1.11.56c.61.16.61-.1.05-.17 -.3-.28-1.25-.58-.4-.04 .05.14.23.13.34.2ZM6.19 16.38c.34.25 1.28.71.484.09 .26-.32-.52-.48-.26-.69 -.66-.41-.52-.37-.06-.36 -.8-.36.11-.33.07-.51 -.31-.06-1.52-.54-.81.04 -.726-.37-.18.13-.4.08 -.75-.21.66.56-.12.375 .42.33 1.146.86.18.35 -.13.18.69.46.89.6Zm1.16.66c1.41.45-.7-.56 0 0Zm5.94 3.59c.02-.28-.2.24 0 0Zm.61.25c.32-.32.01.5.54-.08 0-.42-.02-.66-.61-.16 -.17.09-.24.47.06.23ZM4.21 14.79c-.1-.4-.7-.39 0 0Zm.65.42c-.242-.41-.87-.37 0 0Zm3.71 2.23c.36.32 1.66.23.44.04 -.19-.27-1.16-.21-.44-.04Zm5.09 3.14c.55-.47-.54.2 0 0Zm1.16.79c0-.15-.24.06 0 0Zm0-.21c.61-.66-.6.03 0 0ZM2.6 13.41c-.53-.75-.33-1.09-.84-1.7 -.1-.47-.87-1.54-.4-.41 .43.65.558 1.67 1.23 2.106Zm12.03 7.53c1.13-.74-.47-.32 0 0Zm.86.34c.57-.49-.36-.11 0 0ZM4 13.91c.16-.25-.42-.04 0 0Zm11.3 7.129c.55-.36-.13-.3-.1.03Zm-7.47-4.71c-.02-.24-.3.02 0 0Zm.46.26c-.15-.3-.23.04 0 0Zm7.89 4.68c.7-.51-.43-.1-.15.09Zm-.27-.13c.57-.49-.61.21 0 0Zm1.38.91c.38-.26-.47-.09 0 0ZM4.34 13.71c.51.11 2.066 1.27 1.15.08 -.47-.14-.19-1.29-.665-1.08 .32.53.26.76-.41.42 -.85-.42-.48.2-.31.37 -.23.05.29.19.23.2ZM1.98 11.85c.09-.39-.853-2.11-.45-.87 .14.26.13.75.44.86ZM6.3 14.51c-.266-.23-.02-.04 0 0Zm.65.15c0-.41-.73-.17 0 0Zm5.681 3.58c-.11-.28-.43-.01 0 0Zm.27.19c-.04-.16-.16.03 0 0Zm2.25 1.42c.21-.16-.27-.02 0 0ZM3.14 12.13c.62-.24-.67-.17 0 0Zm8.984 5.66c-.01-.41-.4.1 0 0ZM2.9 11.55c.39-.14-.37-.09-.001 0Zm1.15.56c-.01-.14-.13.05 0 0Zm14.09 8.64c.51-.11 1.67.26 1.86-.14 -.62-.02-2.15-.44-2.23.1l.13.02 .22.01ZM4.413 12.2c0-.41-.32-.02 0 0Zm-3.04-2.11c-.14-.78-.53-.12 0 0Zm.72.18c0-.25-.67-.23 0 0Zm.41.2c-.12-.1-.1.12 0 0Zm2.6 1.67c.12-.12-.29-.09 0 0Zm-2.88-2.128c-.07-.59-.84-.09 0 0ZM.73 9.04c-.02-.27-.15.1 0 0Zm.22-.17c-.04-.32-.19.04 0 0Zm1.22.72c.51-.21-.94-.42-.11-.04ZM18.5 19.67c.33-.31-.42-.1 0 0Zm1.97 1.02c.13-.4-.34.05 0 0ZM2.28 8.93c.05-.38-.41.07-.001 0ZM.54 7.76c-.1-.54-.08-1.48.812-1.16 -1.191.23.82 1.48.57.49 .5.02.98-.3.71.19 .98-.11 1.67-.97 2.62-.85C6 6.33 6.8 6.25 7.6 5.95c.65-.05 1.29-.76.93-1.18 -.9-.08-1.835.03-2.827.23 -1.1.22-2.096.66-3.21.84 -1.08.14.21.4-.1.45 -.57.19.67.32-.08.53 -.46-.09-.94-.25-.75-.73C.53 6.22-.38 6.65.44 7.7H.5Zm2.49-1.27c.24-.9 1.3.73.39.11 -.11-.08-.29-.15-.4-.12Zm.04-.44c.35-.26.18.14 0 0Zm.44 0c.03-.42 1.01.21.16.14Zm.6-.25c.22-.26.06.23 0 0Zm.15-.11c.37-.45 2.09-.29.83-.05 -.34-.26-.6.15-.84.04Zm2.25-.35c-.06-1.22 1.11.43 0 0Zm.64-.01c.23-.62.9-.25.1-.13 .01.06-.03.31-.11.12ZM2 8.57c.69-.43-.75-.37 0 0Zm.51.14c.24-.26-.54-.11 0 0ZM.99 7.63c.399-.31-.48-.12 0 0Zm20.6 12.89c.01-.36-.31.16 0 0Zm-2.1-1.43c.06-.41-.27.03 0 0Zm2.67 1.56c.55 0 1.68-.18.47-.18 -.19.03-1.11.02-.48.17ZM2.95 8.45c.45-.03.7-.5-.09-.47 -1.23-.13 1.08.42-.16.26 -.17.11.23.23.24.2Zm.39.2c-.05-.29-.14.15 0 0Zm.47-1.26c.19-.25-.27-.07 0 0ZM2.31 4.88c.806-.274 1.9-.59 2.28.13 -.39-.47-.16-.93.21-.25 .516.68.77-.32.43-.55 .383.476.819.7.25.03 .61-.734-1.23.09-1.64.08 -.2.09-2.071.47-1.56.53Zm.472-.91c.46-.35 1.588.2.86-.35 -.07-.07-1.59.41-.87.34Zm1.67.06c.53.01-.24-.722.4-.39 -.11-.35-.75-.41-1.06-.544 -.18.31.36.93.65.93ZM3.07 2.51c.18-.26-.33.12 0 0Zm.68.16c.86-.12-.22-.38-.18-.01Zm-1.28-1c-.61-.8 1.146.13.52-.7 -.53-.42-1.03.46-.53.7ZM10.29 5.89c.28-.5-1.16-.67-.19-.18 .09.03.07.21.18.17Z"/></svg>