<svg viewBox="0 0 24 24" xmlns="http://www.w3.org/2000/svg"><path d="M3.02 21.055l1.12-.23c1.05-.22 2.114-.42 3.16-.66v0c1.89-.47 3.34-2 3.69-3.92v0c.06-.39.09-.77.08-1.16l.36-.09v-.001c1.86-.42 3.32-1.86 3.75-3.72v0c.09-.35.13-.71.12-1.06 -.01-.1 0-.2 0-.31 .09-.03.18-.05.26-.07v0c1.07-.25 2.02-.87 2.68-1.76v0c1.04-1.39 1.41-3.17 1-4.86 -.03-.09-.04-.18-.07-.27V2.94c-.1-.31-.42-.5-.73-.44l-3.19.65 -3.49.71 -4.01.82q-2.186.44-4.373.89L3.37 5.57c-.14.04-.28.06-.43.06 -.01-.08-.02-.14-.02-.21 -.01-1.12 0-2.243-.01-3.37v0c-.01-.13.06-.25.17-.31l0-.001c.59-.37 1.23-.66 1.9-.86H4.98C5.87.58 6.79.37 7.73.23 8.27.14 8.82.09 9.37.03l0-.001c1.17-.12 2.34-.15 3.526-.11 .49.01.99.05 1.48.097 .54.05 1.08.11 1.62.19v0c1.38.17 2.73.55 4 1.12 .26.12.5.28.76.42V1.74c.08.03.13.13.12.22 -.01.05 0 .11 0 .16v19.51c0 .34.04.28-.27.47v0c-.62.36-1.28.65-1.97.85v0c-.94.29-1.89.5-2.86.63 -.6.08-1.2.14-1.81.2 -.28.03-.56.03-.84.04 -.57.01-1.13.04-1.7.03 -.64-.02-1.28-.06-1.907-.1v0c-.85-.06-1.69-.17-2.52-.34h0c-1.12-.19-2.2-.52-3.224-.98 -.28-.13-.53-.29-.8-.44H2.97c-.1-.05-.16-.15-.15-.25 0-.23 0-.46 0-.69 0-.05.01-.1.01-.17ZM13 10.395v0c.01.18-.02.37-.09.55v0c-.28.94-1.08 1.66-2.05 1.84 -1.3.28-2.61.53-3.92.8l-.57.11v0c-.63.1-1.06.68-.96 1.31 .1.62.68 1.05 1.31.94 .01-.01.02-.01.03-.01 .59-.11 1.186-.25 1.77-.37 .06-.02.12-.03.2-.04v0c-.04.51-.23 1-.55 1.41v0c-.43.53-1.04.9-1.713 1.02 -1.11.22-2.21.45-3.308.67 -.06.01-.11.01-.16.02 -.05-.15-.07-10.38-.02-10.63l14.04-2.89v0c-.01.06-.01.12-.02.18v0c-.12.55-.38 1.06-.74 1.5v0c-.37.42-.88.71-1.43.8 -1.11.21-2.218.45-3.33.67l-.96.19v0c-.53.09-.92.52-.96 1.05v0c-.04.55.33 1.05.875 1.18v0c.26.04.54.02.8-.06 .49-.1.98-.21 1.47-.31 .05-.01.1-.02.18-.03Z"/></svg>