<svg viewBox="0 0 24 24" xmlns="http://www.w3.org/2000/svg"><path d="M3.35 10.17v0c-.5 0-.903.4-.91.9v4.06H1.11v-2.82H-.02v-1.32h1.12v0c.02-1.21 1.01-2.17 2.22-2.18h1.32v1.32Zm7.32 1.84v0c-.11 0-.21.07-.24.17l-.532 1.83v0c-.25.82-1.12 1.3-1.95 1.06 -.52-.15-.92-.55-1.07-1.07l-.532-1.84v0c-.05-.14-.19-.21-.32-.16 -.08.02-.14.08-.16.15l-.54 1.83 -.001 0c-.2.66-.82 1.12-1.52 1.12h-.37v-1.32h.37l0 0c.1-.01.2-.08.23-.18l.53-1.84v0c.24-.84 1.12-1.31 1.95-1.06 .5.15.9.54 1.05 1.05l.53 1.83v0c.03.13.17.2.3.16 .07-.03.14-.09.16-.17l.532-1.84h-.001c.24-.84 1.12-1.31 1.95-1.06 .5.15.9.54 1.05 1.05l.53 1.83v0c.03.1.12.17.23.17h.37v1.31h-.37 -.001c-.7 0-1.32-.46-1.52-1.13l-.54-1.84v0c-.04-.11-.13-.18-.24-.18Zm2.68.9v0c-.01-1.23.99-2.23 2.22-2.23 1.22-.01 2.22.99 2.22 2.22 0 1.22-1 2.22-2.23 2.22 -.01 0-.01 0-.01 0v0c-1.23 0-2.23-1-2.23-2.23Zm3.12 0v0c0-.5-.41-.91-.91-.91s-.91.4-.91.9c0 .49.4.9.9.9h-.001c.49 0 .9-.41.9-.91Zm4.67.46v0c.02-.04.04-.09.06-.13l0 0c.17-.33.57-.46.9-.29 .22.11.36.34.36.59v0c-.01.09-.02.17-.06.26l-.02.03v-.001c-.38.77-1.17 1.27-2.04 1.27v0c-1.23 0-2.23-1-2.23-2.23s.99-2.23 2.22-2.23h.09v0c.35.01.7.11 1.01.29V8.78h1.32v3.01 0c-.02.39-.33.7-.72.72v0c-.4.01-.78-.13-1.07-.38h-.001c-.16-.13-.36-.19-.55-.2h-.1v0c-.5-.01-.91.4-.91.9 -.01.49.4.9.9.9 .31 0 .61-.17.77-.44ZM4.19 11.61h0c-.001.38-.32.7-.71.7v0c-.39 0-.71-.32-.71-.71v0c0-.39.31-.71.7-.71v0c.38 0 .7.31.7.7Zm18.398 2.83h-.001c-.01.37.29.69.67.69 .37 0 .69-.3.69-.68 0-.38-.3-.7-.68-.7 -.01-.01-.01-.01-.02-.01v0c-.38-.01-.69.29-.69.66 -.01 0-.01 0-.01 0Zm.12 0v-.001c.01-.31.27-.55.58-.54 .3.01.54.27.53.58 -.02.29-.26.53-.56.53h-.001c-.31 0-.57-.25-.57-.56 -.01-.02 0-.03 0-.04Zm.28.38h.12v-.35h.13l.21.34h.13l-.23-.36h-.001c.11 0 .2-.09.2-.2 0-.01 0-.02-.01-.02 0-.16-.09-.23-.28-.23h-.31Zm.12-.69h.15c.08 0 .17.01.17.12 0 .1-.11.13-.21.13h-.13Z"/></svg>