<svg viewBox="0 0 24 24" xmlns="http://www.w3.org/2000/svg"><path d="M20.87 7.2s-1.63-.11-1.69 1.36v.04c.06 1.47 1.68 1.39 1.68 1.39 .73 0 1.13-.23 1.32-.66h.84l.23-1.495h-1.1c-.19-.42-.57-.673-1.31-.66Zm-4.59 1.51c-.15.19-.87.19-.87.19 -.72.04-1.79.02-1.77.65 .02.673.88.59 1.3.56 .46-.03.86-.15 1.18-.548 .29-.34.16-.85.14-.87 .02-.03 0 0 0 0ZM3.29-.01L2.28 6.348h.44c-.02-.19-.02-.97.54-1.48 0 0 .63-.64 2.485-.49 0 0 1.89.14 1.89 1.516H6.32s-.05-.76-1.22-.72c0 0-1.2-.03-1.096 1.13h3.62v.59c.1-.17.38-.45 1.07-.64 0 0 2.968-.66 3.28 1.47v2.98h-1.31V8.25c-.19-1.33-1.686-1.1-1.686-1.1 -1.02.08-1.306.673-1.37 1.09v2.484H6.3V7.18H4v3.53H2.69V7.17H2.1l-2.15 13.45 20.716 3.28 2.14-13.622c-.45.31-1.18.548-2.36.48 -.49-.03-.87-.09-1.18-.21 -.59-.21-1.54-.83-1.54-2.01v-.15c-.03-1.16.94-1.77 1.53-2 .31-.13.69-.17 1.18-.21 1.76-.11 2.52.48 2.84.98l.63-4.043Zm13.07 10.799l-.05-.51v-.02c-.53.65-1.79.609-1.79.609 -2.36.04-2.32-1.25-2.32-1.25 -.19-1.35 1.53-1.327 2.968-1.41 1.43-.09 1.09-.66 1.09-.66 -.07-.47-1.1-.51-1.1-.51 -1.44-.11-1.46.75-1.46.75h-1.35s0-1.14 1.41-1.452c.02 0 .84-.26 2.29 0 0 0 1.62.21 1.51 1.76l.04 2.67H16.3Z"/></svg>