<svg viewBox="0 0 24 24" xmlns="http://www.w3.org/2000/svg"><path d="M9.209 17.302v.55h-.56v-.56h.55Zm-1.12-.56v.55h.55v-.56h-.56Zm1.11 1.11v.55h.55v-.56h-.56Zm-1.68-1.68v.55h.55v-.56H7.5Zm2.232 2.23v.55h.55v-.56h-.56Zm.55-4.47v.55h.55v-.56h-.56ZM9.74 2.76v.55h.55v-.56h-.56Zm.55 5.58v.55h.55v-.56h-.56Zm0 10.605v.55h.55v-.56h-.56ZM8.05 11.69v-.56h-.56v.55h.55ZM9.16 7.22v-.56H8.6v.55h.55Zm-.56-.56V6.1h-.56v.55h.55Zm1.11 1.11v-.56h-.56v.55h.55ZM8.03 6.09v-.56h-.56v.55h.55Zm1.11 6.697v-.56h-.56v.55h.55Zm1.11 1.11v-.56h-.56v.55h.55Zm-1.68-1.68v-.56h-.56v.55h.55Zm1.11 1.11v-.56h-.56v.55h.55Zm.55-5.023v-.56h-.56v.55h.55ZM6.88 18.91v.55h.55v-.56h-.56ZM7.99 3.84h-.56v.55h.55v-.56Zm0 16.186v.55h.55v-.56h-.56Zm-.56-3.907v-.56h-.56V11.09h.55v-.56h-.56V5.51h.55V4.39h-.56v.55h-.56v13.953h.55v-2.8h.55Zm0 3.349v.55h.55v-.56h-.56Zm1.11 1.11v.55h.55v-.56h-.56Zm1.67 1.67v.55h.55v-.56h-.56Zm-.56-.56v.55h.55v-.56h-.56Zm-.56-.56v.55h.55v-.56h-.56ZM10.2 1.59h-.56v.55h.55V1.59Zm0 1.67v.55h.55v-.56h-.56ZM9.64 2.15h-.56v.55h.55v-.56Zm1.11-1.117h-.56v.558h.55V1.03ZM9.07 2.7h-.56v.55h.55v-.56Zm-.56.55h-.56v.55h.55v-.56Zm5.023 15.62h.55v-.56h-.56v.55Zm.55-16.186h-.56v.55h.55v-.56Zm0 15.628h.55v-.56h-.56v.55Zm-1.12 1.11h.55v-.56h-.56v.55Zm2.23-7.256h-.56v.55h.55v-.56Zm.55 4.465h.55v-.56h-.56v.55Zm-1.12 1.11h.55v-.56h-.56v.55Zm.55-.56h.55v-.56h-.56v.55Zm-1.68-3.349h-.56v.55h.55v-.56Zm.55-.56h-.56v.55h.55v-.56Zm.55-6.139h-.56v.55h.55v-.56Zm.55-.56h-.56v.55h.55v-.56Zm.55-.56h-.56v.55h.55V6ZM13.45 3.22h-.56v.55h.55v-.56Zm1.11 9.488H14v.55h.55v-.56Zm1.11-1.12h-.56v.55h.55v-.56ZM13.99 7.68h-.56v.55h.55v-.56Zm-.56.55h-.56v.55h.55v-.56Zm-.56 14.512h.55v-.56h-.56v.55Zm1.67-1.68h.55v-.56h-.56v.55Zm-.56.55h.55v-.56h-.56v.55Zm1.67-10.046h.55v-.56h-.56v.55Zm-.56 8.93h.55v-.56h-.56v.55Zm.55-.56h.55v-.56h-.56v.55Zm1.11-15.07v-.56h-.56v1.11h.55v5.023h-.56v.55h.55v4.465h-.56v.55h.55v2.79h.55V4.84h-.56Zm-.56 14.512h.55v-.56h-.56v.55Zm-2.8 2.79h.55v-.56h-.56v.55ZM16.18 4.31v-.56h-.56v.55h.55Zm-.56-.56v-.56h-.56v.55h.55Zm-.56-.56v-.56h-.56v.55h.55Zm.55 2.79h.55v-.56h-.56v.55ZM13.37 1.51V.96h-.56v.558h.55Zm1.11 1.117v-.56h-.56v.55h.55ZM12.24 19.93h.55v-.56h-.56V14.9h.55v-.56h-.56V9.31h.55v-.56h-.56V4.29h.55v-.56h-.56V.94h.55V.38h-.56V-.18h-1.12V.38h-.56V.94h.55V3.73h-.56v.55h.55V8.74h-.56v.55h.55v5.023h-.56v.55h.55v4.465h-.56v.55h.55v2.79h-.56v.55h.55v.55h1.11v-.56h.55v-.56h-.56v-2.8Zm1.67-17.86v-.56h-.56v.55h.55Z"/></svg>