<svg viewBox="0 0 24 24" xmlns="http://www.w3.org/2000/svg"><path d="M19.706 21.919v0c2.37-.01 4.29-1.93 4.29-4.3v0c-.01-2.38-1.93-4.3-4.3-4.3 -2.38 0-4.3 1.92-4.3 4.29s1.92 4.29 4.29 4.29c0-.01 0-.01 0-.01ZM4.29 10.672v0c2.37-.01 4.29-1.93 4.29-4.3v0c-.01-2.38-1.93-4.3-4.3-4.3 -2.38 0-4.3 1.92-4.3 4.29s1.92 4.29 4.29 4.29c0-.001 0-.01 0-.01Zm10.412 0h4.97v0c2.36 0 4.28-1.9 4.29-4.27 0-.02 0-.03-.01-.04V6.36c.01-2.37-1.9-4.29-4.26-4.3 -.02-.01-.03-.01-.04-.01h-4.98V2.05c-2.37-.01-4.29 1.89-4.3 4.25 -.01.01-.01.02 0 .03v0c-.01 2.36 1.89 4.28 4.25 4.29 .01 0 .02 0 .03 0ZM4.295 21.912h4.97v0c2.36 0 4.28-1.9 4.29-4.27 0-.02 0-.03-.01-.04v0c0-2.37-1.9-4.29-4.26-4.3 -.02-.01-.03-.01-.04-.01H4.26h0c-2.37-.01-4.29 1.89-4.3 4.26 -.01.01-.01.02 0 .03 .068 2.31 1.976 4.29 4.293 4.29Z"/></svg>