<svg viewBox="0 0 24 24" xmlns="http://www.w3.org/2000/svg"><path d="M4.22-.001v0c-1.73-.01-3.14 1.39-3.14 3.12h0c-.01.9.39 1.76 1.07 2.36h0C.82 7.429.11 9.74.11 12.109c0 6.55 5.33 11.87 11.87 11.87 6.54 0 11.87-5.32 11.87-11.874v0c0-2.36-.7-4.67-2.03-6.62v0c.69-.6 1.08-1.47 1.09-2.373v0C22.9 1.38 21.5-.02 19.77-.02c-.01 0-.01 0-.01 0v0c-1.07-.01-2.07.53-2.64 1.43V1.41C15.51.62 13.75.22 11.96.22c-1.85 0-3.6.41-5.16 1.17v0C6.22.49 5.23-.05 4.16-.05Zm7.776 1.19c1.71 0 3.33.39 4.78 1.102v0c1.73.84 3.2 2.12 4.29 3.71V6c1.22 1.8 1.88 3.94 1.88 6.13 .01 6.03-4.91 10.95-10.94 10.95 -6.04 0-10.951-4.92-10.951-10.96 -.001-2.28.69-4.39 1.88-6.135L2.93 5.98C4.01 4.39 5.49 3.1 7.22 2.26v0c1.48-.73 3.11-1.11 4.76-1.11ZM7.36 6.329c-.86.01-1.75.29-2.28.65 -1.04.68-2.29 2.15-2.085 4.18 .19 2.02 1.78 3.28 2.612 3.28 .82 0 1.234-.42 1.48-1.45 .25-1.02 1.11-2.192 2.21-3.45 1.1-1.26-.03-2.47-.03-2.47 -.4-.52-1.06-.73-1.76-.75V6.31c-.06-.01-.12-.01-.17-.01Zm9.23 0l-.17 0c-.71.02-1.36.23-1.75.75 0 0-1.13 1.21-.03 2.46 1.11 1.25 1.96 2.43 2.21 3.45 .25 1.01.65 1.43 1.48 1.45 .82 0 2.4-1.26 2.61-3.29 .2-2.03-1.06-3.51-2.09-4.182 -.55-.36-1.44-.65-2.29-.657Zm-8.962 2c.34 0 .62.27.62.62 -.02.33-.29.62-.63.62v0c-.35 0-.63-.28-.63-.62 -.01-.01-.01-.01 0-.01 0-.35.27-.63.62-.63Zm8.89 0c.34 0 .62.27.62.62 -.02.33-.29.62-.63.62v0c-.35 0-.63-.28-.63-.62 -.01-.01-.01-.01 0-.01 0-.35.28-.63.62-.63Zm-4.55 4.02c-.53 0-2.06.09-2.06.58 0 .88 1.88 1.52 2.06 1.47 .18.04 2.06-.59 2.06-1.48 0-.49-1.52-.59-2.06-.59Zm-2.92 2.79c0 1.41 1.29 2.56 2.91 2.56 1.61 0 2.92-1.15 2.92-2.564Z"/></svg>