<svg viewBox="0 0 24 24" xmlns="http://www.w3.org/2000/svg"><path d="M2.867 10.63l.34-1.03H-.01v4.779h1.16v-1.72h1.43l.34-1.03H1.14v-1.01Zm3.03-1.09v0c-1.36-.01-2.46 1.09-2.46 2.45 -.01 1.35 1.09 2.45 2.45 2.45 0 0 0 0 0 0v0c1.35 0 2.45-1.1 2.45-2.46 0-1.36-1.1-2.46-2.46-2.46Zm0 3.74v-.001c-.72 0-1.29-.58-1.3-1.29 -.01-.72.57-1.29 1.28-1.3h-.001c.71-.01 1.28.57 1.29 1.28 0 .71-.58 1.28-1.29 1.29Zm6.506-3.68h-1.3l-.82 1.3 -.82-1.31h-1.3l1.468 2.33 -1.54 2.44h1.29l.88-1.41 .88 1.4h1.29L10.9 11.9Zm.1 1.02h1.41v3.75h1.16v-3.76h1.23V9.58h-3.16Zm7.304 0l.34-1.03h-3.21v4.779h2.86l.34-1.03h-2.05v-.92h1.43l.34-1.03h-1.78v-.8Zm2.14 2.73V9.59h-1.16v4.77h2.86l.34-1.03Z"/></svg>