<svg viewBox="0 0 24 24" xmlns="http://www.w3.org/2000/svg"><path d="M14.494 20.48l-1-2.1L19.274 7.1c.89 1.39 1.49 3.09 1.49 4.888 0 3.99-2.6 7.382-6.285 8.48ZM12.994.02C5.611-.48-.48 5.6.02 12.98c.5 5.786 5.18 10.475 10.974 10.973 7.38.5 13.46-5.59 12.97-12.97C23.458 5.2 18.778.51 12.988.02ZM7.108 4.7c1.29-.9 2.793-1.4 4.39-1.5l-2.7 5.18 -1.7-3.7Zm3.49 7.383l4.19-8.38c.798.3 1.49.59 2.19 1.09l-5.09 9.976 -1.3-2.7Zm-7.39-.1c0-1.8.59-3.5 1.49-4.888l6.48 13.667c-4.49-.4-7.99-4.19-7.99-8.779Z"/></svg>