<svg viewBox="0 0 24 24" xmlns="http://www.w3.org/2000/svg"><path d="M23.855 13.112l-2.06-7.88 -.001 0c-.62-2.36-3.03-3.77-5.38-3.16L3.28 5.492h0c-2.36.61-3.77 3.02-3.16 5.37l2.05 7.87h0c.61 2.35 3.02 3.76 5.37 3.15l13.126-3.43v0c1.13-.3 2.1-1.03 2.69-2.04h-.001c.59-1.01.76-2.22.46-3.35Zm-1.05 3h-.001c-.5.85-1.32 1.47-2.28 1.72L7.39 21.25v0c-2 .51-4.03-.68-4.56-2.67L.77 10.7H.77c-.52-2 .67-4.04 2.66-4.56l13.12-3.43 -.001-.001c1.99-.53 4.02.67 4.54 2.66 0 0 0 0 0 0l2.05 7.87h0c.25.95.11 1.97-.39 2.82Zm-2.37-9.893c-.49-2.07-2.122-2.95-4.369-2.44L4.41 6.81c-2.43.7-3.104 2.01-2.621 4.261l1.74 6.69c.48 2.11 2.28 3.09 4.369 2.43l11.651-3.04c2.12-.51 3.1-2.1 2.622-4.27l-1.75-6.7ZM14.15 9.3l.17.66 -4.12.47 -.18-.67 4.11-.48Zm-9.05 3.86v0c-.35.09-.7-.12-.79-.46 -.01-.01-.01-.01-.01-.01l-.78-2.98h0c-.09-.35.11-.7.45-.79L8.14 7.83v0c.34-.09.69.11.78.45l.77 2.97v0c.08.34-.12.69-.46.78L5.06 13.11Zm5.61 1.76l-2.06-1.99 .76-.21 2.03 1.95 -.52.13h0c-.08.02-.16.05-.22.09Zm3.39 1.93v0c-.03.04-.08.08-.13.09l-2.34.6v0c-.12.02-.23-.04-.26-.15 -.01-.01-.01-.01-.01-.01l-.44-1.67v0c-.03-.12.03-.23.14-.26 0-.01 0-.01 0-.01l2.33-.61h-.001c.11-.03.22.03.25.15l.43 1.66v0c.01.05 0 .11-.03.16Zm.01-2.4h0c-.06-.06-.12-.11-.18-.15v0c-.15-.09-.31-.13-.47-.12l1.56-2.36c.18.14.41.23.64.24l-1.57 2.36Zm5.15-3.94l-3.401.88v0c-.25.06-.5-.09-.57-.33l-.64-2.43v0c-.07-.25.08-.5.32-.57 0-.01 0-.01 0-.01l3.4-.89v0c.11-.03.24-.02.35.04v0c.1.06.18.16.21.28l.63 2.428v0c.06.24-.09.49-.33.56 -.01 0-.01 0-.01 0Z"/></svg>