<svg viewBox="0 0 24 24" xmlns="http://www.w3.org/2000/svg"><path d="M19.88 3.9v0c-.13 0-.26.04-.36.12 -.08.08-.17.19-.17.31 0 .2.23.47.67.923 1.82 1.75 2.73 3.9 2.73 6.49 -.01 2.86-.97 5.17-2.85 6.95 -.4.35-.56.63-.56.86 0 .11.08.23.16.35 .07.08.23.16.35.16 .43 0 1.04-.52 1.83-1.51 1.54-1.89 2.24-3.98 2.279-6.83 .03-2.85-.86-4.78-2.61-6.77 -.63-.72-1.16-1.09-1.52-1.09Zm-15.77 0c-.36 0-.89.37-1.51 1.08C.85 6.97-.05 8.9-.01 11.75c.04 2.84.73 4.93 2.28 6.82 .79.99 1.39 1.51 1.83 1.5v0c.13-.02.25-.07.35-.17 .08-.12.16-.24.16-.36 0-.24-.17-.52-.556-.87 -1.88-1.79-2.84-4.09-2.844-6.96 -.01-2.6.91-4.74 2.73-6.5 .43-.45.67-.73.673-.923 0-.12-.08-.24-.17-.32v0c-.11-.08-.23-.12-.36-.12Zm7.05.89s.65 2.08-2.65 6.72c-3.16 4.43 1.04 7.15 1.43 7.38 -.29-.18-2.01-1.5.4-5.423 .46-.77 1.07-1.47 1.83-3.05 0 0 .67.94.32 2.99 -.53 3.1 2.27 2.21 2.314 2.25 .97 1.15-.81 3.17-.92 3.23 -.11.06 5.096-3.13 1.39-7.94 -.26.25-.59 1.44-1.27 1.266 -.69-.18 2.125-3.5-2.87-7.47ZM9.94 18.9c.02.01.03.02.03.02l-.04-.03Z"/></svg>