<svg viewBox="0 0 24 24" xmlns="http://www.w3.org/2000/svg"><path d="M23.92 2.94l-.001 0C16.759.39 8.96.18 1.689 2.34v-.001c-1.2.28-1.93 1.48-1.64 2.67 0 .02.01.04.01.07 .4 1.6.98 3.439 1.68 5.1 .01.04.03.02.03-.02 -.1-.78.5-1.77 1.67-2.13h-.001c5.66-1.81 11.76-1.73 17.381.23 .86.3 1.82-.17 2.099-1.06 .7-2.248.98-3.778 1.05-4.16 .01-.07-.05-.1-.07-.12ZM6.65 7.88c-.86.18-2.05.46-2.94.76 -1.78.61-1.7 2.77-.75 3.468 .07-.4.5-.95.98-1.13 1.779-.7 3.68-1.12 5.61-1.29 -.98-.4-1.94-.97-2.9-1.81m14.16 4.338v-.001c-5.17-2.43-11.1-2.67-16.45-.65 -.85.32-1.38 1.35-.85 2.32H3.5c.92 1.67 1.97 3.27 3.14 4.79 -.17-.58.13-1.66 1.27-2.01 3.14-.97 6.45-.56 8.65.33 .62.25 1.5.1 1.99-.64l0 0c.84-1.3 1.6-2.64 2.28-4.02 .03-.06 0-.11-.06-.14m-5.11 7.766h-.001c-.93-.47-1.77-1.08-2.5-1.8 -.34-.34-.84-.83-1.37-1.41 -1.2 0-2.37.12-3.62.52 -1.16.36-1.27 1.7-.76 2.39 .86 1.07 1.46 1.65 2.41 2.63v0c1.05 1.03 2.74 1.04 3.81.02l-.001 0c.71-.72 1.39-1.45 2.05-2.21 .05-.05.03-.14-.05-.16"/></svg>