<svg viewBox="0 0 24 24" xmlns="http://www.w3.org/2000/svg"><path d="M19.08 13.97l-1.11-.64v-2.54l1.1.63 3.17-1.84v2.52Zm-14.18.01h-.01L1.72 12.14V9.61l3.17 1.82 1.09-.64v2.53Zm.05-3.55L1.71 8.55V5.92l.97-.56 9.28-5.39 1.95 1.13 5.95 3.47 .2.13 1.03.59 .16.09 .95.56v2.55l-3.18 1.83 -1.11-.64V8.36l-4.95-2.9 -1.05-.63 -.98.55 -5.04 2.94v1.42l-1.02.58m0 4.41l1.01-.59v1.2l6.06 3.54 .22-.15 .04-.03 5.67-3.32 -.02-.43v-.9l1.1.63 3.17-1.84v5.01l-.96.55 -1.2.69 -.21.11 -5.96 3.48 -1.96 1.1 -1.94-1.14 -5.97-3.48 -.21-.14 -1.19-.69 -.98-.57v-4.62l.01-.4 3.22 1.86"/></svg>