<svg viewBox="0 0 24 24" xmlns="http://www.w3.org/2000/svg"><path d="M.48 10.003c-.49 0-.49.23-.49.53v3.32h.78c.16 0 .24-.06.243-.21v-1.56h1.444c.03 0 .05-.02.05-.06v-.39H1v-.98c0-.18.08-.26.258-.26H2.53c.03 0 .04-.03.04-.05v-.38Zm7.997 0c-.12 0-.2.05-.2.21v2.654c0 .37-.15.63-.58.69 -.29.04-.68.03-.85.02v.32c0 .03.01.05.04.06 .02 0 .2.02.62.02 .72 0 1.05-.16 1.245-.3 .36-.27.49-.58.49-1.2v-2.51Zm-5.13 0c-.15 0-.2.07-.2.19v2.65c0 .53.26.86.81 1.03 .46.14 1.21.13 1.7 0 .37-.1.78-.38.78-1.04V9.97h-.77c-.18 0-.22.07-.22.19v2.74c0 .29-.07.44-.23.53 -.242.13-.65.13-.883-.01 -.18-.11-.22-.28-.22-.54V9.93Zm9.308 0c-.49 0-.49.23-.49.53v.99c0 .02-.01.02-.02.03l-.68.53h.69v1.763h.78c.16 0 .24-.06.24-.21v-1.56h1.44c.03 0 .05-.02.05-.06v-.39h-1.5v-.98c0-.18.08-.26.25-.26h1.27c.03 0 .05-.03.05-.05v-.38Zm3.7 0h-.77c-.18 0-.23.08-.23.2v3.66h.78c.13 0 .2-.05.2-.21Zm1.92 0h-.76c-.18-.01-.23.06-.23.21v3.1c0 .25.07.54.59.54h1.66c.04 0 .06-.03.06-.07v-.36h-1.03c-.21-.01-.31-.12-.31-.32Zm5.718 0h-1.15c-.2 0-.31.09-.35.266l-.63 2.66h-.02l-.65-2.93h-.89c-.18 0-.23.08-.23.22v3.63h.37c.06 0 .08-.03.08-.1v-3.05h.05l.8 3.141h.52c.19 0 .27-.09.32-.28l.72-2.87h.05v3.141h.7c.17 0 .25-.07.25-.24Zm-13.61 0c-.18 0-.22.08-.22.2v1.87l.93-.73c.03-.03.05-.05.05-.11v-1.24Zm-.22 2.09v1.763h.78c.13 0 .2-.04.2-.21v-1.56Z"/></svg>