<svg viewBox="0 0 24 24" xmlns="http://www.w3.org/2000/svg"><path d="M12 0v0C5.37 0 0 5.37 0 12c0 6.62 5.37 12 12 12v0c6.62 0 12-5.38 12-12 0-6.63-5.38-12-12-12Zm.12 5.143c.45 0 .9.04 1.34.13l-1.35 2.806c-2.16-.01-3.92 1.75-3.92 3.91s1.76 3.92 3.92 3.92c.93 0 1.84-.34 2.55-.96l1.48 2.57v-.001c-3.07 2.22-7.35 1.55-9.58-1.51 -.86-1.18-1.32-2.59-1.32-4.04l-.001-.001c0-3.79 3.06-6.86 6.85-6.856Zm3.49.49v0c0-.01.01-.01.02 0 .42 0 .79.11 1.1.34 .31.22.46.54.46.94 0 .63-.36 1.03-1.04 1.37l-.38.19c-.41.2-.61.38-.657.7h2.05v.85h-3.11v-.15c0-.53.1-.96.31-1.31 .21-.35.57-.65 1.1-.92l.24-.12c.42-.22.53-.41.53-.625 0-.266-.23-.46-.6-.46 -.44 0-.78.22-1.01.694l-.6-.6c.13-.28.33-.51.61-.68l0-.001c.27-.18.58-.27.9-.27Zm-2.1 5.38h3.39l1.69 2.93 -1.7 2.94 -1.7-2.94h-3.4l1.69-2.94Z"/></svg>