<svg viewBox="0 0 24 24" xmlns="http://www.w3.org/2000/svg"><path d="M22.595 1.91c.59 0 .98.27 1.21.74 .07.16.13.33.16.51l.02.14 .01.14v17.223c0 .59-.26.98-.68 1.21v0c-.18.09-.38.15-.58.17l-.15.01H1.54c-.65 0-1.09-.25-1.34-.657H.2c-.11-.18-.18-.38-.21-.59l-.02-.16V3.42c0-.66.277-1.1.737-1.35H.7c.16-.09.33-.15.52-.19l.14-.03 .14-.02Zm0 .25H1.52v0c-.24.01-.47.07-.67.18 -.344.18-.559.49-.598.95l-.01.16v17.218c.01.21.07.42.185.6 .184.3.49.49.958.53l.16 0h21.036l-.001-.001c.21-.01.41-.07.6-.16 .3-.16.49-.43.53-.83l0-.16V3.42v0c-.01-.09-.02-.17-.03-.26V3.16c-.03-.16-.08-.31-.15-.46 -.19-.38-.5-.6-.98-.6ZM16.496 15.1c.97 0 1.82.53 2.29 1.3l.09.15h-1.03v0c-.35-.39-.84-.61-1.36-.61v0c-1.02-.01-1.85.82-1.85 1.84 -.01 1.01.82 1.84 1.84 1.84 .46 0 .92-.18 1.26-.5l.11-.12h1.02v0c-.69 1.32-2.31 1.84-3.63 1.16 -1.33-.69-1.85-2.31-1.17-3.63 .46-.9 1.38-1.47 2.39-1.47Zm-13.76.17v3.54l2.35-3.54v-.01h.87v3.54l2.35-3.55h1.05l-3.41 5.13h-.88v-3.54l-2.348 3.54h-.88v-5.14Zm8.07 0v5.13h-.88v-1.1h-1.63l-.73 1.096H6.5l3.4-5.14Zm3.21 0v.87h-1v4.256h-.88V16.14l-1 0v-.88Zm5.96 0v2.067h1.58v-2.07h.88v5.13h-.88V18.2h-1.59v2.18h-.88v-5.14ZM9.91 16.86l-1.05 1.56H9.9Zm1.66-7.4c.33-.01.65.12.88.36 .2.2.31.46.31.75 0 .47-.22.77-.49 1.01l-.1.07 .67.62 .45-1.03h.86l-.71 1.58 1.21 1.12 -.54.58 -1.03-.95c-.32.62-.73 1.02-1.57 1.02 -.45 0-.84-.16-1.13-.45v0c-.29-.3-.45-.7-.44-1.11 0-.77.42-1.13.91-1.48 -.27-.24-.53-.55-.53-1.03 0-.7.6-1.11 1.18-1.11Zm.95 3.58l-.99-.92 -.27.18c-.34.25-.49.42-.49.76v0c-.01.2.06.4.2.55 .15.14.359.22.57.21 .43 0 .63-.14.87-.63Zm-.96-2.8v0c-.09-.01-.18.02-.25.06l-.07.05v0c-.06.05-.09.12-.09.2 0 .21.15.35.4.55 .29-.22.39-.34.39-.56v0c0-.08-.03-.15-.09-.2h0c-.09-.09-.21-.13-.33-.13ZM6.93 5.03h-.94v0c-.6-.85-1.78-1.06-2.62-.46 -.85.59-1.06 1.77-.46 2.61 .59.84 1.77 1.05 2.61.45 .26-.19.48-.45.62-.75H4.48v-.86h2.65l0 .06H7.13c0 1.48-1.21 2.69-2.7 2.69 -.01 0-.01 0-.01 0v0c-1.5 0-2.7-1.21-2.7-2.7 -.01-1.5 1.2-2.7 2.69-2.7 1.07-.01 2.04.63 2.47 1.61Zm15.11-1.561v.87h-1.79V5.63h1.79v.87h-1.79V7.7h1.79v.87h-1.79l-.88 0V3.43Zm-11.142 0v5.13h-.88v-1.1H8.39l-.73 1.09H6.6L10 3.44Zm7.76-.01v5.13h-.88V5.03l-2.35 3.53v0h-.88V5.01l-2.36 3.54h-1.06l3.4-5.14h.88v3.53l2.35-3.54Zm-8.65 1.59L8.964 6.6H10Z"/></svg>