<svg viewBox="0 0 24 24" xmlns="http://www.w3.org/2000/svg"><path d="M6.353 0v2.824h-1.42v2.82H3.52v2.824H2.11v2.82H.69v2.824h8.47v2.82H7.74v2.82H6.32v2.82h1.41v-1.42h1.41v-1.42h1.41v-1.42h1.41v-1.42h1.41v-1.41h1.41v-1.42h1.41v-1.42h1.41v-1.42h1.41V9.8h1.41V8.38h1.41V6.97h-4.24V5.55H19V4.13h1.41V2.71h1.41V1.29h1.41V-.12Zm0 22.58h-1.42v1.41h1.41Zm1.41-19.77h9.88v1.41h-1.42V5.63H14.8v1.41h-1.42v1.41h-1.42v1.41h1.41v1.41h-1.42V9.85h-1.42v1.41h-1.42V9.84h-1.42v1.41h-1.42V9.83h-1.42V8.41h1.41V5.58h1.41Zm-1.42 5.64v1.41h1.41V8.45Zm2.82 1.41h1.41V8.45h-1.42Zm5.648 0h1.41v1.41h-1.42Z"/></svg>