<svg viewBox="0 0 24 24" xmlns="http://www.w3.org/2000/svg"><path d="M21.45 14.31c-.15.28-.34.532-.57.74v0c-.33.29-.7.53-1.11.69v-.001c-1.01.36-2.12.35-3.12-.02v0c-.97-.38-1.74-1.13-2.14-2.08v0c-.05-.12-.1-.24-.13-.36h7.41v0c-.08.35-.21.68-.37 1Zm-11.99-.66v0c-.4.95-1.17 1.7-2.14 2.07v0c-1.01.37-2.11.38-3.12.01h0c-.41-.17-.79-.4-1.11-.7H3.08c-.24-.22-.43-.47-.57-.75h0c-.17-.32-.29-.66-.37-1.01h7.41c-.04.12-.08.23-.13.35Zm14.501-1.76v0c-.02-.16-.05-.32-.09-.48l-9.64-.01h-.001c.1-.9.5-1.72 1.14-2.35 .36-.35.79-.625 1.26-.81v0c1.54-.67 3.34-.29 4.48.95l1.52-1.49v0c-.54-.59-1.2-1.05-1.93-1.36v0c-.81-.34-1.68-.51-2.55-.49v0c-.83-.01-1.65.15-2.41.45v0c-.74.29-1.4.72-1.97 1.27l-.001-.001c-.57.55-1.02 1.21-1.33 1.94v0c-.26.59-.42 1.22-.47 1.86h-.07 0c-.06-.65-.21-1.28-.47-1.87v0c-.32-.73-.77-1.39-1.33-1.94l0-.001c-.57-.56-1.24-.99-1.97-1.28v0c-1.6-.63-3.37-.62-4.95.03l0 0c-.73.31-1.39.77-1.93 1.35l1.52 1.49h0c1.16-1.19 2.93-1.57 4.484-.96 .47.18.89.46 1.26.81 .36.36.66.79.859 1.26 .14.34.24.7.28 1.08l-9.635 0 -.001-.001c-.08.33-.12.68-.12 1.02h0c-.01.72.11 1.44.34 2.12v0c.22.66.59 1.27 1.08 1.78 .52.56 1.17 1 1.88 1.29h0c.79.31 1.64.47 2.5.45 .82 0 1.64-.15 2.4-.46v0c.73-.3 1.39-.73 1.96-1.28h0c.85-.84 1.43-1.91 1.68-3.08H12 12c.25 1.16.83 2.23 1.686 3.07v0c.56.55 1.23.98 1.96 1.27h-.001c.76.3 1.58.46 2.4.45v0c.85.01 1.7-.15 2.5-.46v0c.71-.3 1.35-.74 1.88-1.3v0c.48-.52.85-1.12 1.08-1.79H23.5c.23-.69.34-1.41.34-2.13v0c-.01-.19-.02-.38-.04-.56Z"/></svg>