<svg viewBox="0 0 24 24" xmlns="http://www.w3.org/2000/svg"><path d="M12.64 2.67l-.25-.266c0-.01.29-.27.41-.41 .12-.15.34-.484.34-.486l.3.19c-.02.01-.24.359-.375.52 -.14.16-.43.43-.44.44Zm1.577 10.597c-.02-.01-.24-.16-.37-.23 -.12-.06-.32-.15-.43-.2l.21-.62 -.9-.45 -.29.87c-.18 0-.72.05-1.51.38 -.96.4-1.69 1.02-1.7 1.029l-.15.125 .641.02 .02-.02c0-.01.72-.54 1.11-.71 .08-.04.2-.08.33-.11 -.21.1-.44.22-.6.32 -.2.11-.57.38-.59.39l-.19.12 .68.01 .01-.01c.01-.01 1.16-.63 1.78-.76l.19-.05c.14-.04.24-.07.42-.07 .15 0 .36.02.68.07 .39.05.66.15.66.16l.24.09 -.33-.44 -.02-.01 0-.01Zm-8.98-7.3h-.03l-1.01.91v.03c-.02.266.07.52.258.71 .18.19.42.3.68.31h.04c.53 0 .96-.42.992-.94 .02-.55-.399-1.01-.944-1.05Zm-.05 1.83h-.05c-.12-.01-.23-.04-.33-.09 .04 0 .09.01.14 0 .28-.04.48-.3.44-.58 -.04-.28-.3-.48-.58-.45 -.27.03-.46.26-.45.53 -.04-.09-.05-.19-.05-.28l.91-.84c.44.04.79.43.76.88 -.03.45-.391.8-.85.8h0Zm9.329-3.73l-.3-.2 -.41.26 -.4-.29 -.31.18 .4.29 -.42.27 .29.18 .4-.26 .38.28 .3-.17 -.41-.3m9.89 15.17c-.22-.21-.42-.42-.63-.63 -.48-.49-.96-.99-1.42-1.49 -.55-.6-1.09-1.21-1.59-1.85 -.23-.29-.45-.58-.65-.89 -.26-.39-.47-.8-.67-1.22 -.22-.45-.4-.9-.58-1.36 .24.21.46.44.66.69 .02-.22.04-.43.05-.65l.02-.33c0-.04.01-.07-.01-.1s-.04-.06-.06-.08c-.13-.15-.27-.29-.41-.42 -.19-.19-.39-.36-.59-.54l-.18-.16c-.03-.03-.06-.06-.09-.08 -.04-.03-.05-.1-.06-.14l-.16-.48c.6.28 1.1.74 1.57 1.21 0-.22 0-.44 0-.66 0-.12-.01-.23-.01-.35 0-.03 0-.1-.02-.13 -.02-.02-.04-.04-.05-.06 -.11-.12-.24-.22-.36-.32 -.18-.15-.35-.28-.53-.41 -.16-.12-.32-.24-.48-.35 -.02-.02-.08-.04-.07-.06l.03-.08c.02-.04.01-.05.05-.03l.17.05c.4.15.77.36 1.14.6 -.13-.45-.32-.89-.53-1.3 -.39-.77-.9-1.47-1.47-2.11 -.38-.43-.79-.83-1.22-1.2 -.23-.19-.46-.37-.7-.54 -.12-.08-.23-.15-.35-.22 -.05-.03-.11-.06-.15-.1 -.18-.15-.37-.29-.55-.43 .23.09.46.21.68.33 -.13-.2-.35-.34-.55-.44 -.31-.16-.64-.28-.97-.38 .11-.12.23-.23.34-.35 .11-.12.22-.246.33-.38 .12-.15.25-.3.375-.46L13.07.85l-.48-.31c-.13.246-.28.476-.46.68 -.18.2-.391.369-.6.53 -.2.15-.38.31-.57.472 -.05.04-.1.08-.15.12 -.03.02-.1 0-.13 0h-.24c-.3 0-.6.02-.891.06 -.06 0-.12.01-.18 0l-.18-.01c-.14-.01-.28-.02-.41-.02 -.29-.01-.58 0-.88.02 -.25.02-.49.05-.73.11 -.24.05-.47.17-.66.31 -.2.14-.39.32-.51.53 -.12.21-.17.45-.22.68 -.14.01-.27.01-.4.01 -.15 0-.28.02-.42.03 -.27.03-.54.09-.8.18 -.496.15-.95.4-1.34.75 -.2.18-.38.38-.54.59 -.02.02-.04.05-.07.06 -.01 0-.03.01-.04.02 -.02.02-.04.05-.06.07l-.14.21c-.17.28-.28.59-.39.9l-.05.12 .03-.03c-.01.06-.02.13-.03.2l-.01.1v.05l-.07.01c-.135.02-.28.06-.4.1 -.12.03-.24.08-.34.15 -.11.06-.2.15-.29.23 -.32.31-.562.69-.69 1.12 -.1.34-.14.73-.06 1.09 .02.09.04.18.1.26 .07.09.19.12.31.09 .13-.04.24-.13.37-.19l.31-.16c.45-.23.93-.45 1.43-.53 .03-.01.1.06.13.09 .04.03.1.07.14.1 .1.06.22.12.33.18 .262.11.54.17.81.23 .5.1 1.01.17 1.529.18 .2 0 .41 0 .625-.02 .22-.02.45-.05.67-.06 .25-.01.49.02.74.05 .25.03.51.06.76.1 .51.07 1.03.16 1.54.27 -.12.18-.23.36-.34.54 -.01.01-.08 0-.09 0 -.05-.01-.09-.01-.13 0 -.08 0-.15 0-.23.01 -.22.03-.42.08-.62.15 -.49.18-.94.48-1.33.83 -.23.19-.43.4-.609.64 -.05.06-.1.12-.14.19 .1-.03.21-.05.31-.07 .06-.02.11-.03.17-.04 .02-.01.02-.02.04-.03 .21-.21.45-.4.69-.57 .11-.08.22-.16.34-.22 .16-.09.35-.14.53-.18 -.33.18-.68.35-.98.58 -.18.13-.33.29-.49.43l.65-.11c.01 0 .01-.01.02-.01l.17-.1c.11-.07.23-.125.34-.19 .24-.13.48-.24.73-.34 .23-.1.48-.18.73-.23 .22-.05.42-.06.64 0 .34.07.67.23.96.41 .02.01.03.03.05.01 .01-.02.09-.08.09-.1l-.18-.34c-.02-.03-.03-.05-.06-.07l-.14-.08c-.18-.11-.35-.21-.51-.34 -.04-.03-.08-.04-.09-.09 -.01-.05.01-.1.02-.14 .03-.09.08-.17.13-.25 .03-.06.07-.12.1-.17 .01-.02.01-.03.03-.02l.11.03c.23.07.46.15.71.22 .27.06.54.12.82.17l.04.01c-.06-.03-.1-.09-.14-.14 -.03-.03-.04-.05-.08-.06l-.11-.02c-.08-.02-.15-.03-.23-.05 -.27-.06-.53-.12-.78-.21 -.375-.13-.76-.24-1.15-.33 -.49-.11-.98-.2-1.47-.28 -.25-.05-.5-.08-.75-.11 -.25-.04-.5-.07-.75-.09 -.54-.04-1.08.08-1.62.08 -.37-.01-.734-.06-1.096-.11l-.07-.01c.25-.1.5-.19.75-.29 .23-.1.47-.2.7-.29 .12-.06.25-.11.37-.16 .11-.06.22-.1.32-.17 .4-.28.67-.73.97-1.11 .27-.37.58-.7.99-.91 .12-.07.26-.12.4-.16 -.29-.44-.55-.93-.63-1.455 .02.01.06.02.09.03 .03.01.06.01.07.04l.02.13c.02.09.05.17.08.26 .07.19.16.375.26.55 .21.39.484.766.766 1.12 .53.68 1.14 1.3 1.73 1.94 .14.15.27.32.41.49 .15.18.3.375.45.56 .12.14.23.28.35.42l.09.11c.01.01.03.02.06.03 .6.3 1.21.6 1.82.89 .43.2.86.42 1.3.62 .23.1.47.21.71.32 .02.01.06.02.09.03 .01.01.02.01.04.02l.01.04c.02.07.05.14.07.21 .04.14.09.27.14.41 .33.91.69 1.814 1.14 2.67 .34.65.71 1.3 1.09 1.939 .4.68.81 1.35 1.22 2.02 .33.53.66 1.07 1 1.6 .14.22.28.45.43.68l.06.09 .77-1.15 .19-.29c0-.01.08-.11.07-.11l-.16-.24c-.3-.46-.59-.9-.88-1.35l-.83-1.29 -.11-.17 .65.79 1.11 1.35c.12.14.23.28.35.43 .21-.41.43-.81.66-1.21 .08-.17.17-.33.26-.5M11.27 1.08c.3-.25.56-.57.75-.91l1.17.74 .18.11c-.25.3-.5.6-.78.87 -.04.03-.08.06-.11.1 -.03.02-.05.05-.07.07l-.04.03c-.03-.01-.05-.02-.07-.02 -.15-.05-.29-.08-.44-.12 -.3-.07-.59-.12-.89-.16 -.2-.03-.39-.04-.58-.06 .27-.24.55-.47.83-.698M9.46 2.4c.23-.1.48-.15.73-.2 .49-.09.99-.1 1.48-.04 .35.03.7.1 1.04.21l-.15.11 -.23-.07c-.15-.03-.29-.06-.43-.09 -.25-.04-.5-.06-.75-.07 -.47-.01-.93.04-1.38.15 -.31.07-.61.18-.88.33 -.29.15-.56.34-.78.58 -.14.13-.26.28-.359.45 -.06.09-.11.18-.15.27 -.03.04-.05.09-.07.14l-.03.07c-.01.01-.01.02-.02.03l-.07-.02 -.09-.02c.23-.72.76-1.286 1.41-1.649 .2-.12.42-.22.65-.28m-3.93.37c.266-.39.68-.649 1.13-.75 .5-.11 1.01-.12 1.52-.11 -.53.13-1.05.32-1.49.65 -.34.07-.67.24-.94.45 -.09.07-.17.15-.25.23 -.04.03-.07.07-.1.11 -.02.01-.03.03-.04.04h-.09c.02-.14.05-.27.09-.4 .02-.09.06-.18.11-.26m.88.05c-.15.14-.27.3-.391.46 -.05.06-.1.15-.18.19 -.09.03-.2-.01-.28-.04 .22-.28.52-.5.851-.629M1.25 5.54c.08-.16.18-.32.27-.47 .01-.03.05-.05.07-.07 .04-.04.09-.07.14-.11 .3-.23.621-.45.93-.66 .16-.11.33-.22.5-.31 .18-.11.36-.18.56-.25 .34-.12.7-.19 1.06-.25 .17-.03.36-.06.53-.02 -.33.18-.66.375-.99.55 -.35.19-.69.367-1.04.55 -.34.18-.66.375-.99.577 -.34.2-.67.41-1.01.62 -.08.05-.16.1-.24.15 .04-.125.09-.26.15-.38M2.2 8.51c-.03.05-.14.04-.19.04 -.1 0-.19 0-.28 0 -.258.01-.51.06-.758.13 -.48.14-.93.375-1.37.6 -.1.05-.21.13-.32.16 -.061.01-.131-.01-.166-.07 -.035-.07-.06-.14-.064-.2 -.03-.12-.035-.25-.033-.37 0-.33.07-.66.21-.96 .09-.21.22-.41.37-.58 .15-.18.32-.36.53-.45 .355-.17.77-.22 1.164-.24 .07-.01.14-.01.21-.01 .1 0 .21-.02.31.01 .07.02.121.1.15.17 .04.1.07.22.1.33 .06.26.12.52.14.79 .01.11.01.23 0 .35 -.01.07-.02.15-.05.22m2.82-1.98c-.2.12-.41.21-.62.29 -.22.07-.44.14-.66.18 -.1.01-.2.02-.3.02 -.11-.01-.2-.04-.3-.07 -.2-.07-.4-.13-.57-.24 -.07-.04-.14-.09-.18-.15 -.03-.06-.03-.12-.03-.18 .01-.24.09-.46.2-.66 .18-.35.48-.62.84-.78 .87-.4 1.86-.03 2.61.49l.08.06c-.16.16-.32.32-.48.47 -.2.18-.41.38-.64.53m2.16-1.93c-.48-.21-.93-.46-1.36-.74 .44.18.93.3 1.41.37 .25.03.52.07.78.08 .28 0 .56-.03.84-.08 .54-.11 1.06-.31 1.56-.56 .49-.25.96-.54 1.41-.859 .21-.16.43-.32.63-.49 .02-.02.17-.17.18-.16l.04.03 .53.41c.32.25.65.51.98.76 -.91.32-1.83.62-2.76.9 -.52.15-1.04.3-1.57.42 -.42.09-.84.18-1.26.21 -.51.02-1.01-.14-1.47-.33m8.85 3.942c.07.02.14.04.21.06l.09.03c.01 0 .03.01.04.02l.02.06c.04.14.09.28.13.43 -.15-.13-.31-.26-.46-.38l-.09-.08c-.03-.02-.05-.03-.03-.05l.05-.12m-.68 1.44l.03-.07 .02-.05c.01-.02 0-.03.02-.02 .12.05.25.11.38.17 .24.11.47.23.7.36 .1.06.21.13.32.2l.15.1 .07.05c.03.02.04.06.05.1 .1.28.21.56.33.84 .07.18.16.37.24.56 -.3-.38-.63-.72-.96-1.05 -.35-.35-.71-.68-1.08-.99l-.33-.27m3.74 6.42l-.13.09 0 .01 .06.09 .27.42 .9 1.4c.31.48.62.96.93 1.44l.3.48 .08.13s.02.04.02.04c-.26.38-.53.77-.79 1.154 -.03.03-.06.07-.08.11 -.24-.38-.48-.75-.72-1.12 -.4-.64-.8-1.28-1.19-1.92 -.44-.71-.86-1.42-1.27-2.15 -.39-.68-.75-1.37-1.06-2.08 -.31-.7-.57-1.41-.82-2.13 .48.19.98.36 1.48.52 .14.04.28.09.43.12l.06.01s.01-.04.01-.05c.01-.07.03-.13.04-.2 .03-.125.05-.26.07-.39 .2.42.43.84.7 1.23 .21.31.44.62.68.92 .52.65 1.07 1.28 1.64 1.89 .46.49.93.98 1.4 1.46l.38.38s.03.03.03.04l-.04.05 -.15.27 -.59 1.06c-.18-.22-.37-.44-.55-.66L19.8 17.39c-.32-.39-.64-.78-.96-1.16l-.19-.23"/></svg>