<svg viewBox="0 0 24 24" xmlns="http://www.w3.org/2000/svg"><path d="M22.058 19.93c-1.01-2.29-1.19-4.228-1.22-4.99V8.67c0-4.788-3.96-8.67-8.846-8.67C7.1 0 3.14 3.88 3.14 8.671v6.36c-.04.82-.24 2.7-1.21 4.89 -1.306 2.95-.23 2.6.74 2.36 .968-.25 3.13-1.2 3.8-.03 .67 1.17 1.23 2.18 2.81 1.52 1.57-.67 2.31-.89 2.54-.89h.3c.22 0 .968.22 2.54.88 1.57.66 2.14-.36 2.814-1.53 .67-1.17 2.83-.22 3.8.02 .968.24 2.04.59.74-2.36M9.22 4.68c.95 0 1.72 1.19 1.72 2.676 0 1.47-.78 2.67-1.73 2.67 -.96 0-1.73-1.2-1.73-2.68 0-1.48.77-2.676 1.72-2.676m2.73 10.697c-2.1 0-3.87-2.03-4.4-4.28 1.02 1.38 2.617 2.27 4.4 2.27 1.78 0 3.372-.89 4.4-2.28 -.54 2.25-2.3 4.28-4.4 4.28M14.66 10c-.96 0-1.73-1.2-1.73-2.68 0-1.48.77-2.676 1.72-2.676s1.72 1.19 1.72 2.676c0 1.47-.78 2.67-1.73 2.67Z"/></svg>