<svg viewBox="0 0 24 24" xmlns="http://www.w3.org/2000/svg"><path d="M19.848 1.63c-.11-.02-.23.1-.33.39 -.16.47-1.08 3.2-5.504 4.326 .59.51.97 1.242.97 2.05 0 1.54-1.35 2.8-3 2.8 -1.66 0-2.997-1.26-3-2.8 0-.61.2-1.16.55-1.62C6.39 6.44 5.04 3.65 5.04 3.65l-.1 4.16c-.03.56-.01 1.11-.27 1.63l0 0c-.02-.03-.04-.05-.05-.08H4.62c-.76-1.05-1.86-1.69-2.85-1.66H1.77c-.39.01-.73.12-1.02.33h0c-1.06.76-1.05 2.59.02 4.09H.77c.87 1.22 2.22 1.87 3.29 1.59 2.997 2.22 8.48 4.14 12.23 1.88l-2.03-1.63c-1.064.34-2.61.34-4.397-.3 2.9.58 4.47-.06 5.334-.73 -.23-.3-.71-.53-.71-.53s.56.1.93.49c.14.15.19.38.21.65 .55.29 1.18.65 1.875 1.06 2.06-2.06 3.253-5.933 2.52-12.62 -.04-.27-.13-.43-.24-.45Zm-13 5.46c1.05-.01 1.9.79 1.9 1.77s-.86 1.77-1.91 1.77c-1.05 0-1.9-.8-1.9-1.78 0-.99.85-1.78 1.9-1.78Zm5.776.48l0 0c-.74-.01-1.33.59-1.33 1.32 -.01.73.59 1.32 1.32 1.32l0-.001c.73 0 1.32-.6 1.32-1.33 0-.74-.6-1.33-1.33-1.33ZM1.68 8.2h0c0-.01 0-.01 0 0v0c0-.01.01-.01.02 0v0c.53-.01.96.42.96.94 0 0 0 0-.01 0v0c0 .52-.44.94-.97.94 -.01 0-.01-.01-.01-.01v0c-.54-.01-.97-.43-.97-.95h0c-.01-.52.41-.94.94-.95Zm5.559.12H7.24c-.47 0-.84.38-.83.85 0 .46.38.83.85.83v0c.46-.01.83-.39.83-.85 -.01-.47-.39-.84-.85-.83Zm8.26 4.96c-.05.05-.11.09-.16.14l.21.11c-.02-.1-.04-.21-.06-.27Zm-.55.1l-.74.36 .06.05 .19.15 1.99 1.6 .01.01 0-.001c.64.51 1.29 1.01 1.95 1.51v0c-.01.04-.02.08-.01.12l.26-.04 .1.15 2.317 1.47c-.12.41-.07.95.2 1.45 .79 1.46 2.67 2.09 2.67 2.09 -.78-1.968-.21-3.57-1.73-4.14 -.25-.09-.46-.1-.63-.04l-2.05-1.9 -.18-.06 -.03-.27 0 0c-.05.01-.09.03-.12.05 -.31-.26-.69-.54-1.09-.82 -1.37-.84-2.26-1.3-3.23-1.83Z"/></svg>