<svg viewBox="0 0 24 24" xmlns="http://www.w3.org/2000/svg"><path d="M23.546 10.93L13.067.45c-.61-.61-1.59-.61-2.19 0l-2.18 2.17 2.76 2.76c.64-.22 1.37-.07 1.88.44 .516.51.65 1.258.43 1.9l2.65 2.66c.64-.23 1.38-.08 1.9.43 .72.72.72 1.88 0 2.6 -.72.71-1.89.71-2.6 0 -.54-.55-.68-1.34-.41-2l-2.49-2.48v6.52c.17.08.34.2.48.34 .71.72.71 1.88 0 2.6 -.72.72-1.89.72-2.609 0 -.72-.72-.72-1.88 0-2.6 .18-.18.38-.32.6-.41V8.793c-.22-.1-.43-.23-.6-.41 -.55-.55-.68-1.35-.4-2.01L7.56 3.64 .38 10.82c-.6.6-.6 1.58-.001 2.189l10.48 10.47c.6.6 1.58.6 2.186 0l10.43-10.43c.6-.61.6-1.59 0-2.19"/></svg>