<svg viewBox="0 0 24 24" xmlns="http://www.w3.org/2000/svg"><path d="M4.2 4.603c-.25 0-.53.02-.84.08 -.34.07-1.28.28-2.06 1.02C-.42 7.23.02 9.663.07 10.033c.06.44.263 1.68 1.21 2.76 1.74 2.141 5.51 2.09 5.51 2.09s.46 1.1 1.16 2.11c.95 1.26 1.93 2.24 2.89 2.36 2.4 0 7.21-.01 7.21-.01s.45 0 1.08-.4c.53-.33 1.01-.9 1.01-.9s.49-.53 1.18-1.73c.21-.37.38-.73.53-1.07 0 0 2.1-4.48 2.1-8.823 -.05-1.32-.37-1.55-.45-1.63 -.16-.16-.37-.16-.37-.16s-4.48.25-6.8.3c-.51.01-1.02.02-1.52.02V9.42l-.64-.31c0-1.39-.01-4.17-.01-4.17 -1.11.01-3.41-.09-3.41-.09s-5.399-.27-5.987-.33c-.19-.02-.41-.04-.65-.04Zm.35 1.83h.11s.27 2.26.6 3.59c.27 1.11.94 2.968.94 2.968s-1-.12-1.641-.35c-.99-.33-1.41-.72-1.41-.72s-.73-.52-1.096-1.52c-.63-1.69-.06-2.72-.06-2.72s.32-.859 1.47-1.15c.39-.11.86-.12 1.072-.12Zm8.33 2.55c.26 0 .5.12.5.12l.86.42 -.53 1.07v0c-.26-.01-.5.13-.62.359v0c-.14.24-.11.54.07.75l-.94 1.92 -.001-.001c-.32 0-.59.22-.66.52l-.001 0c-.08.3.07.61.34.76l-.001-.001c.3.15.66.06.86-.21v0c.19-.28.16-.65-.07-.89l.91-1.88v0c.07 0 .15 0 .23-.02v0c.09-.03.19-.08.27-.14v0c.34.14.68.31 1.01.51h0c.11.06.21.16.28.28 .07.21-.08.56-.08.56 -.09.29-.702 1.55-.702 1.55v0c-.31-.01-.59.18-.68.47v0c-.12.35.08.74.44.85 .35.11.74-.09.85-.45 .07-.23.01-.48-.15-.66 .07-.15.14-.29.21-.44 .19-.4.51-1.16.51-1.16 .03-.07.21-.4.1-.82 -.1-.44-.48-.64-.48-.64 -.47-.31-1.12-.58-1.12-.58s0-.16-.05-.27v0c-.04-.09-.09-.18-.15-.25l.516-1.07 2.89 1.4s.48.21.58.61c.07.28-.02.53-.07.657 -.24.58-2.1 4.31-2.1 4.31s-.24.55-.75.58v0c-.14 0-.27-.01-.4-.05l-.21-.08 -4.31-2.1s-.42-.22-.49-.6c-.09-.31.1-.7.1-.7l2.07-4.272s.18-.37.46-.5v0c.1-.06.22-.08.35-.08Z"/></svg>