<svg viewBox="0 0 24 24" xmlns="http://www.w3.org/2000/svg"><path d="M17.504 0L12.87 4.875l2.53 0c0 2.604-1.33 4.58-3.32 6.16l-6.4 5.06c-2.56 2.02-3.86 4.39-3.86 7.88 .01-.01 4.28.02 4.28 0 0-1.91.73-3.59 2.22-4.8l6.72-5.455c2.57-2.09 4.51-4.86 4.51-8.867h2.58ZM1.83 4.873c-.001 3.78 1.83 6.39 4.14 8.51l1.11.88 3.22-2.56 -1.08-.86C7.41 9.203 6.1 7.36 6.1 4.853c-1.423-.01-2.86 0-4.283 0Zm12.592 10.11l-3.18 2.58 .99.78c1.82 1.593 3.16 3.33 3.16 5.63h4.166c-.01-3.64-1.79-6.1-4.07-8.15 -.36-.28-.73-.58-1.08-.86Z"/></svg>