<svg viewBox="0 0 24 24" xmlns="http://www.w3.org/2000/svg"><path d="M11.984 0v0C5.354 0-.01 5.37-.01 12H-.01c0 6.62 5.37 12 12 12v0c6.62 0 12-5.38 12-12l0-.001c-.001-6.63-5.38-12-12-12v0c-.01-.01-.02-.01-.02 0Zm6.09 5.333c.32 0 .593.266.59.593V7.4l-.001-.001c-.01.32-.27.59-.6.59h-8.3c-.99 0-1.78.79-1.78 1.77v5.63c0 .32.266.59.593.59h5.63c.98 0 1.77-.8 1.77-1.78v-.3 0c0-.33-.27-.6-.6-.6h-4.15v0c-.33 0-.6-.27-.6-.6v-1.49l0 0c0-.33.26-.6.59-.6h6.81c.32 0 .593.26.593.59v3.4 0c0 2.2-1.8 4-4 4H5.86v0c-.33 0-.6-.27-.593-.6V9.7h0c-.01-2.46 1.98-4.45 4.44-4.45 0-.001 0 0 0 0h8.296Z"/></svg>