<svg viewBox="0 0 24 24" xmlns="http://www.w3.org/2000/svg"><path d="M14.088 13.126h-.3v-3.27h.99c.81 0 1.09.47 1.09.98s-.28.98-1.1.98h-.71v1.3Zm0-1.59h.74 -.001c.35.05.67-.19.72-.55 0-.06 0-.12 0-.17v0c.03-.36-.22-.67-.57-.71 -.06-.01-.12-.01-.17 0h-.75Zm2.88-.37v0c-.23-.01-.45.03-.66.11v-.27 -.001c.2-.09.42-.13.65-.12 .65 0 .82.29.82.73v1.49h-.17l-.07-.18v0c-.2.13-.43.21-.657.21v0c-.37.05-.71-.2-.76-.56 -.01-.05-.01-.1-.01-.15 0-.37.2-.65.77-.68l.57-.04v-.13c0-.32-.12-.46-.52-.46Zm-.08.85c-.31.03-.45.19-.45.44 0 .19.04.43.46.43v0c.2-.01.4-.07.58-.18v-.76Zm1.86.49v0c-.05.04-.08.09-.09.16 0 .11.05.15.16.17l.74.08c.41.04.59.2.59.58 0 .532-.532.74-1.14.74 -.61 0-.98-.18-.98-.657v0c0-.28.18-.51.44-.58v-.01 -.001c-.1-.07-.15-.18-.14-.29h-.001c0-.12.06-.23.16-.3v0c-.25-.16-.38-.43-.35-.72 0-.45.19-.82.85-.82v0c.11-.01.23.01.34.04h.74v.16l-.37.1v0c.09.15.13.32.12.5 0 .44-.2.82-.85.82v0c-.1 0-.2-.01-.29-.03Zm.12.58c-.29.06-.532.2-.532.48 0 .32.24.41.69.41 .43 0 .84-.11.84-.48 0-.23-.11-.31-.37-.34Zm.72-1.39c0-.29-.06-.56-.57-.56s-.57.266-.57.55c0 .28.05.55.56.55s.56-.266.56-.56Zm1.63-.82c.74 0 .82.5.82 1.13v.14h-1.44c.01.37.11.72.61.72l-.001-.001c.24.01.49-.03.71-.13v.26 0c-.23.09-.48.13-.72.13 -.74 0-.92-.51-.92-1.14 0-.63.17-1.14.91-1.14Zm-.61 1.02h1.13c0-.39-.03-.76-.53-.76 -.51 0-.6.36-.61.75Zm2.6-.06c.61.05.76.266.76.62 0 .33-.22.67-.88.67v0c-.23-.01-.44-.04-.65-.11v-.27 0c.21.07.43.1.65.1 .45 0 .57-.2.57-.4s-.07-.34-.5-.38c-.64-.06-.77-.28-.77-.58 0-.31.2-.65.81-.65v0c.21-.01.42.03.62.11v.26 0c-.21-.08-.42-.11-.64-.1 -.44 0-.53.16-.53.37 0 .19.07.29.49.32ZM2.42 11.17H1.35v0c-.03 0-.05.02-.05.05v.52 0c0 .02.02.05.05.05h.41v.64 0c-.12.02-.24.03-.351.03 -.31 0-.731-.12-.731-1.048 0-.94.44-1.06.86-1.06v0c.2-.01.41.02.61.09v0c.02 0 .05-.02.05-.04 0-.01 0-.01 0-.02l.12-.51v0c0-.02-.01-.04-.02-.04v0c-.29-.14-.6-.2-.903-.17 -.72 0-1.45.3-1.45 1.76 0 1.45.83 1.67 1.542 1.67H1.48c.33 0 .65-.08.93-.25H2.41c.01-.01.01-.03.01-.04v-1.63 0c0-.03-.03-.05-.05-.05Zm5.545-1.3H7.96c0-.03-.03-.05-.05-.05H7.3v0c-.03 0-.05.02-.05.05v1.16h-.94V9.86v0c0-.03-.03-.05-.05-.05h-.6v0c-.03 0-.05.02-.05.05V13v0c0 .02.02.05.05.05h.6v0c.02 0 .05-.03.05-.05v-1.35h.93l-.01 1.34v0c0 .02.02.05.05.05h.6v0c.02 0 .05-.03.05-.05Zm-4.389.41H3.57c-.01-.22-.18-.39-.4-.39 -.22 0-.39.17-.39.39 0 .21.17.38.38.38v0c.21-.01.38-.18.38-.4Zm-.05 2.06v-1.46 0c0-.03-.03-.05-.05-.05h-.6v0c-.03 0-.06.02-.06.05v2.08c0 .06.03.07.08.07h.54c.06 0 .07-.03.07-.08Zm6.764-1.5h-.6v0c-.03 0-.05.02-.05.05v1.54 0c-.11.07-.24.1-.37.11 -.22 0-.28-.1-.28-.31v-1.35 0c0-.03-.03-.05-.05-.05h-.61v0c-.03 0-.05.02-.05.05v1.44c0 .62.34.77.82.77v0c.25-.01.49-.09.71-.22l-.001 0c0 .04.01.08.02.12v0c0 .01.02.02.04.02l.38-.01v0c.02 0 .05-.03.05-.05V10.84v0c0-.03-.03-.05-.05-.05Zm1.66-.07v0c-.2-.01-.4.05-.57.15V9.85v0c0-.03-.03-.05-.05-.05h-.61v0c-.03 0-.05.02-.05.05v3.14 0c0 .02.02.05.05.05h.41v0c.01-.01.03-.02.04-.03h-.001c.01-.05.02-.1.02-.15v0c.2.16.45.24.71.23 .548 0 .86-.28.86-1.25s-.51-1.1-.85-1.1Zm-.24 1.77v-.001c-.13-.01-.25-.04-.35-.1v-1 0c.09-.06.19-.09.3-.1 .21-.02.42.04.42.55 0 .54-.1.64-.39.63Zm-6.48-1.71h-.45l-.01-.6c0-.03-.02-.04-.04-.04h-.62c-.03 0-.04.01-.04.03v.61l-.33.08 -.001-.001c-.03 0-.04.02-.04.04v.38 0c0 .02.02.05.05.05h.31v.93c0 .69.484.76.81.76v0c.12-.01.24-.03.35-.06l-.001 0c.01-.01.02-.03.02-.05l0-.43H5.23c0-.03-.03-.05-.05-.05 -.03 0-.1.01-.17.01 -.23 0-.3-.11-.3-.24v-.89h.45 0c.02-.001.05-.03.05-.05v-.484 0c0-.03-.03-.05-.05-.05Z"/></svg>