<svg viewBox="0 0 24 24" xmlns="http://www.w3.org/2000/svg"><path d="M23.22 6.252h0c-.1-.25-.38-.37-.62-.28 -.19.07-.31.24-.31.44 0 .05.01.11.02.17 2.15 5.71-.76 12.07-6.46 14.22h-.001c-.79.29-1.6.49-2.426.6v-5.16c.33-.07.64-.16.96-.27v4.33c5.445-1.34 8.794-6.817 7.46-12.262v0c-.68-2.77-2.47-5.12-4.96-6.487v0c-.23-.13-.52-.05-.65.17 -.01 0-.01 0-.01 0l0 0c-.13.22-.05.51.17.64 0 0 0 0 0 0 4.44 2.45 6.05 8.05 3.6 12.49v0c-1.04 1.87-2.69 3.32-4.69 4.1v-3.84H15.3c.61-.2 1.02-.76 1.02-1.4 0-.53-.27-1.01-.73-1.266 .34-3.31 1.859-2.439 1.859-3.5v-.62c0-1.59-3.67-6.737-5.38-6.856h-.32c-1.72.11-5.38 5.274-5.38 6.856v.62c0 1.05 1.5.18 1.85 3.49v0c-.46.26-.73.74-.73 1.26 0 .64.42 1.2 1.02 1.39v3.83C3.8 17.05 1.48 11.71 3.34 6.99l-.001 0C4.12 5 5.57 3.34 7.44 2.31h0c.23-.13.31-.42.19-.66 -.01-.01-.01-.01-.01-.01v0c-.09-.15-.25-.24-.43-.24v0c-.08 0-.16.02-.23.06L6.95 1.46c-4.91 2.7-6.7 8.87-3.99 13.77 0 0 0 0 0 .01h0c1.37 2.48 3.72 4.28 6.48 4.95v-4.33c.31.1.63.19.96.26v5.15C4.34 20.46.1 14.91.9 8.86l0-.001c.1-.83.31-1.65.6-2.43v0c.08-.25-.04-.53-.28-.62v0c-.25-.09-.52.03-.62.27 -2.34 6.21.8 13.131 7.015 15.45 1.2.44 2.45.69 3.73.75v-6.09c.17.01.48.01.48.01s.31 0 .48-.02v6.07C18.94 21.97 24.08 16.38 23.8 9.75v0c-.07-1.27-.33-2.52-.77-3.71ZM14.2 13.094H14.2c.38-.39 1.01-.39 1.39 0v0c.38.38.38 1.01 0 1.39v0c-.39.38-1.02.38-1.4 0v0c-.39-.39-.39-1.02-.01-1.4 0-.01 0-.01 0-.01Zm-4.43 1.39v0c-.39.38-1.01.38-1.39 0v0c-.39-.39-.39-1.02 0-1.4v0c.38-.39 1.01-.39 1.39 0v0c.38.38.38 1-.01 1.39 -.01 0-.01 0-.01 0Z"/></svg>