<svg viewBox="0 0 24 24" xmlns="http://www.w3.org/2000/svg"><path d="M14.033 1.19l-.001 0c.64 1.13.25 2.57-.87 3.23l-6.98 4.04h-.001c-.19.1-.31.3-.3.52v6.34 0c-.01.21.11.41.3.52l5.52 3.19v0c.18.1.4.1.58 0l5.52-3.199v0c.18-.11.29-.31.29-.52v-3.95l-4.97 2.83h0c-1.12.63-2.54.24-3.18-.87 -.01-.02-.02-.03-.02-.04v0c-.64-1.14-.24-2.58.89-3.23l7.1-4.062c2.16-1.24 4.84.34 4.84 2.86v6.914 0c0 1.61-.86 3.1-2.25 3.91l-6.35 3.67h0c-1.37.79-3.06.79-4.43 0l-6.35-3.68H3.37c-1.4-.82-2.25-2.31-2.25-3.92V8.43L1.11 8.43c-.01-1.62.85-3.11 2.24-3.92L10.74.23v0c1.11-.65 2.53-.27 3.17.85 0 .01.01.02.01.03Z"/></svg>