<svg viewBox="0 0 24 24" xmlns="http://www.w3.org/2000/svg"><path d="M9.14 2.393c-.62 0-1.8 1.61-1.8 1.61s-.46 0-1.81.07 -2.56.67-4.16 1.93c-1.61 1.263-1.38 2.53-1.38 2.53s1.498.5 1.498.78c0 .27-1.311.6-1.311.6C1.01 10.99 3.64 12 4.3 12h.52c-1.09.21-2.136.8-3.462 1.84C-.25 15.1-.02 16.37-.02 16.37s1.498.5 1.498.78c0 .27-1.311.6-1.311.6 .845 1.08 3.46 2.09 4.13 2.09 .63 0 1.07.01 1.88-.14 .06.13.68 1.46 1.96 1.73 1.34.29 2.09.06 2.09.06s.06-.6-.24-1.189c1.17.11 2.49.14 3.792-.06 3.6-.55 5.38-1.42 5.96-1.53 .58-.12 3.904 1.47 4.1 1.1 .2-.38-.73-1.19-.3-2.29s-.54-1.827 0-2.705c.53-.88.43-2.22.29-2.29 -.3-.15-3.43 1.407-4.11 1.28 -1.686-.32-1.38-.52-3.65-1.03 -.907-.21-.79-.09-.99-.24 -.14-.11-.27-.12-.46-.31 3.01-.55 4.55-1.28 5.08-1.38 .58-.12 3.904 1.47 4.1 1.1 .2-.38-.73-1.19-.3-2.29s-.54-1.83 0-2.705c.53-.88.43-2.218.29-2.29 -.3-.16-3.43 1.407-4.11 1.28 -1.686-.32-1.38-.52-3.65-1.03 -.907-.21-.79-.09-.99-.24 -.2-.16-.39-.11-.782-.74 -.4-.64-4.916-1.61-5.225-1.61Zm-1.06 2.76l.04 0 .11 0 .39.02 0 0c.53.02 1.06.05 1.59.08 .34.02.64.03.86.05 .86.06 2.17.26 3.17.46 1.55.31 2.82.77 4.81 1.673l.67.3c.13.05.19.22.14.37 -.06.15-.21.22-.34.16l0 0c-.23-.11-.45-.21-.68-.31 -1.97-.89-3.2-1.335-4.711-1.64 -.99-.2-2.28-.4-3.12-.46l-.001 0c-.29-.02-.58-.04-.86-.06l-.39-.03c-.39-.03-.8-.05-1.21-.07l-.13-.01v0c.14.38.26.78.33 1.18 .02.11.03.21.04.32 .03.33-.03.81-.17 1.42 -.05.2-.1.4-.16.62h-.001c-.09.33-.19.66-.29.99l-.02.06 -.01.02c-.05.15-.2.22-.33.17 -.14-.06-.2-.23-.15-.375l0-.02h0c.03-.1.06-.19.08-.29 .07-.24.14-.49.21-.75 .05-.21.1-.41.14-.6 .12-.54.17-.97.15-1.213L8.23 7.21c-.01-.1-.03-.18-.04-.27H8.19c-.06-.27-.13-.54-.21-.8v0c-.08-.24-.17-.47-.27-.69 -.1-.2.04-.44.23-.43Zm-1.66.17c.06 0 .13.03.17.09v0c.15.19.29.4.41.62 .22.4.37.81.41 1.221 .02.23 0 .49-.04.77 -.05.27-.12.55-.21.84l0 0c-.08.23-.16.46-.25.68 -.07.14-.22.2-.35.13 -.13-.07-.18-.25-.12-.39l.01-.05h-.001c.07-.2.14-.39.21-.59 .08-.27.14-.52.18-.76v0c.03-.2.04-.4.03-.6 -.03-.31-.16-.64-.34-.98v0c-.11-.19-.23-.37-.36-.54v0c-.1-.13-.1-.3.01-.41v0c.04-.06.11-.09.18-.08Zm-3.05.97c.62 0 1.12.57 1.12 1.27 0 .7-.51 1.27-1.13 1.27 -.56 0-1.016-.46-1.11-1.06 .07.45.42.79.84.79 .47 0 .86-.44.86-.99s-.39-.99-.87-.99 -.86.43-.87.968v-.02c0-.71.5-1.28 1.12-1.28Zm-.52 1.32h-.001c.12 0 .23.11.23.266h0c0 .14-.11.26-.24.26v0c-.13 0-.24-.12-.24-.27v0c-.01-.15.1-.27.23-.27 0-.01 0-.01 0-.01Zm3.32 4.25l0 .01 -.12 0 .1-.02Zm1.88 1.13l.04 0 .11 0 .39.02 0 0c.53.02 1.06.05 1.59.08 .34.02.64.03.86.05 .86.06 2.17.26 3.17.46 1.55.31 2.82.77 4.81 1.673l.67.3c.13.06.19.22.14.37 -.06.15-.21.22-.34.16l-.001-.001c-.23-.11-.45-.21-.68-.31 -1.97-.89-3.2-1.34-4.711-1.64 -.99-.2-2.28-.4-3.12-.46l0 0c-.42-.03-.83-.06-1.25-.08l-1.21-.07 -.13-.01h-.001c.14.38.26.78.33 1.18 .02.11.03.21.04.32 .03.33-.03.81-.17 1.42 -.05.2-.1.41-.16.625h0c-.1.35-.2.7-.31 1.05l-.01.02c-.05.15-.2.22-.33.17 -.14-.06-.2-.23-.15-.375l0-.02h0c.03-.1.06-.19.08-.29 .07-.24.14-.49.21-.74 .05-.21.1-.41.14-.6 .12-.54.17-.97.15-1.22v0c-.01-.09-.03-.18-.04-.27V14.8c-.06-.27-.13-.54-.21-.8v0c-.08-.24-.17-.47-.27-.69 -.1-.2.04-.44.23-.43Zm-1.66.17c.06 0 .13.03.17.09v-.001c.15.19.29.4.41.62 .22.4.37.81.41 1.22 .02.23 0 .48-.04.77 -.05.27-.12.55-.21.84H7.12c-.08.23-.16.46-.25.68 -.07.14-.22.2-.35.13 -.13-.08-.18-.25-.12-.39v0c.02-.06.04-.12.07-.18H6.47c.05-.15.11-.31.15-.46 .08-.27.14-.52.18-.76v0c.03-.2.04-.4.03-.6 -.03-.31-.16-.64-.34-.98v0c-.11-.19-.23-.37-.36-.54v0c-.1-.13-.1-.3.01-.42v-.001c.04-.06.11-.09.18-.08Zm-3.05.97c.62 0 1.12.57 1.12 1.27 0 .7-.51 1.27-1.13 1.27 -.56 0-1.016-.46-1.11-1.06 .07.45.42.79.84.79 .47 0 .86-.44.86-.98 0-.55-.39-.99-.87-.99s-.86.43-.87.96v-.02c0-.71.5-1.28 1.12-1.28Zm-.52 1.32H2.81c.12 0 .23.11.23.26v0c0 .14-.11.26-.24.26v0c-.13 0-.24-.12-.24-.27v0c0-.15.1-.27.23-.27Z"/></svg>