<svg viewBox="0 0 24 24" xmlns="http://www.w3.org/2000/svg"><path d="M11.99 4.39c-3.83 0-7.16 1.69-8.79 4.15 -.39.02-.78.04-1.17.06C1.44 8.64.71 9.16.6 9.83l-.19 1.13c-.18 1.12-.327 2.01-.43 3.15 -.04.4.06.78.262 1.01 .26.31.78.38.98.41 .72.06 1.44.12 2.16.18 1.698 2.3 4.9 3.85 8.57 3.85s6.88-1.56 8.58-3.87c.44-.04.88-.07 1.32-.11 .62-.06 1.19-.59 1.33-1.23 .18-.83.24-1.14.3-1.55 .02-.14.04-.29.07-.46 0-.03.01-.12.03-.23 .04-.25.1-.64.14-.92l.18-1.21v0c.06-.34-.04-.69-.27-.94 -.22-.25-.59-.42-.96-.45l0-.001c-.66-.05-1.31-.09-1.97-.12 -1.63-2.48-4.97-4.18-8.8-4.18Zm0 .32c3.59 0 6.72 1.54 8.32 3.82l-.43-.02c-.78-.98-1.86-1.81-3.16-2.4 -.34.09-.73.17-1.15.23V6.33c.42.64.79 1.32 1.1 2.03v-.001c-.19-.01-.38-.02-.56-.02V8.34c-.32-.68-.68-1.33-1.1-1.95 -.83.1-1.78.16-2.76.18v.29h-.44c-.02 0-.04 0-.06 0v-.3 0c-.95-.01-1.9-.07-2.84-.18l-.001 0c-.42.61-.78 1.26-1.09 1.93l-.28 0h-.11l0-.11v0c0-.09 0-.18-.01-.26l-.001 0c.27-.58.58-1.13.93-1.65v0c-.4-.06-.79-.14-1.18-.24 -1.29.59-2.36 1.4-3.12 2.37 -.15 0-.29.01-.44.02 1.6-2.27 4.72-3.81 8.31-3.81Zm-.22.41c-.69 0-1.36.08-2.01.2l0 0c-.18.2-.35.42-.51.64 .77.08 1.625.13 2.51.13Zm.5 0v.98l0 0c.81-.01 1.62-.06 2.43-.14 -.28-.38-.48-.61-.51-.649l0 0c-.64-.12-1.29-.19-1.93-.2ZM9 5.49c-.34.09-.67.18-.99.3 .21.04.44.07.68.1 .1-.16.21-.3.3-.41Zm5.96 0c.09.11.18.25.29.4 .23-.04.45-.08.66-.11l-.001-.001c-.32-.12-.64-.22-.96-.3ZM11.95 7.4h.47c.18 0 .36.09.47.24h0c.12.17.17.39.14.6 -.03.2-.06.4-.09.6 .5 0 1.01.01 1.5.01 .18 0 .36.09.47.24v-.001c.12.17.17.38.13.59 -.22 1.66-.47 3.33-.73 5 -.07.43-.41.77-.78.77 -.73 0-1.46.01-2.18.01v-.001c-.2-.01-.38-.1-.49-.25l-.001-.001c-.13-.18-.18-.39-.14-.6v-.01c.32-2.43.673-4.85 1.01-7.27 .05 0 .1 0 .15-.01Zm-5.57.14c.18 0 .33.07.43.21 .11.14.15.36.11.58 -.41 2.37-.75 4.7-.984 7.01 -.22-.01-.42-.03-.633-.04v-.001c-.2-.01-.37-.11-.49-.26h0c-.13-.17-.19-.38-.16-.58l-.001 0c.26-2.32.6-4.63 1.04-6.91 .21-.01.41-.03.63-.04 0 0 .01 0 .03-.01Zm3.88 1.32c.19 0 .36.08.47.23h-.001c.11.17.16.39.13.6 -.24 1.68-.48 3.35-.7 5.03 -.06.43-.4.76-.77.75v0c-.73-.02-1.46-.05-2.18-.08v0c-.2-.01-.38-.11-.492-.27v0c-.13-.17-.19-.38-.16-.58l-.001 0c.19-1.64.42-3.28.68-4.91 .06-.43.42-.78.8-.78 .73-.02 1.46-.03 2.19-.04Zm5.54.05c.21 0 .42 0 .64.01 .19 0 .37.09.48.24 .12.15.18.37.14.59h0c-.19 1.41-.4 2.82-.625 4.23l.87-.03c.23-1.44.45-2.86.63-4.27 .05-.42.39-.74.77-.72l.69.02v0c-.23 1.86-.51 3.72-.85 5.57 -.08.41-.43.75-.81.77 -.73.03-1.46.06-2.19.09v0c-.19 0-.37-.08-.48-.23v0c-.12-.18-.17-.39-.13-.59 .3-1.93.58-3.84.82-5.73Zm-11.66.11v0c.18-.01.36.06.49.2H4.62c.11.17.16.38.12.58 -.08.41-.14.82-.21 1.22 -.31 0-.61 0-.91 0h0c-.22-.01-.39-.19-.39-.41 0-.03.03-.22.03-.22 -.32 0-.69.01-1.01.01 -.06.23-.48 3.04-.5 3.36 .31.01.69.04 1 .05 .11-.64.16-.84.19-1.07 -.05-.01-.15-.01-.19-.01 -.21-.01-.39-.23-.36-.47 .04-.29.08-.55.13-.85h1.43c.21 0 .46.07.4.45 -.09.73-.22 1.8-.37 2.65 -.09.43-.28.66-.73.67 -.44 0-1.57-.08-2.23-.19 -.2-.04-.41-.09-.55-.24 -.14-.16-.18-.41-.18-.6 0-.51.27-2.67.58-4.32 .07-.4.55-.74.935-.78l0-.001c.73-.07 1.48-.11 2.22-.11Zm16.54.04h.02c1.25.02 1.814.08 2.14.12 .19.02.4.18.5.31 .12.14.18.28.15.48 -.05.35-.11.7-.17 1.06 -.3 0-.59-.01-.89-.01v0c-.22-.02-.39-.19-.4-.4 0-.03 0-.06 0-.09 0-.05.02-.09.03-.13l-.9-.03c-.03.18-.14.77-.18 1.02h1.5c.18 0 .36.07.47.21 .11.14.16.27.13.53 -.13 1.03-.24 1.56-.39 2.1 -.1.37-.47.75-.85.79 -1.08.12-1.41.13-2.21.17v0c-.19.01-.37-.07-.48-.21v0c-.12-.16-.16-.37-.12-.56l0 0c.07-.41.14-.83.21-1.24 .3-.02.6-.03.91-.04 .2-.01.37.16.37.38 0 .03 0 .05-.01.09 0 .04-.01.09-.02.13 .29-.01.59-.03.88-.04 .03-.18.14-.73.18-.984 -.3 0-1.43 0-1.43 0 -.2 0-.35-.04-.46-.18 -.12-.15-.2-.27-.22-.5 .09-.92.31-2.06.35-2.39 .04-.41.37-.7.75-.7Zm-7.94 1.23c-.04.24-.484 3.39-.54 3.74h.91c.04-.26.48-3.39.53-3.75Zm-3.33 0c-.31 0-.62 0-.92 0 -.05.25-.48 3.34-.51 3.69 .3 0 .609 0 .91.01 .02-.25.46-3.36.51-3.72Zm-5.55 5.43l.45.03c.73.82 1.69 1.52 2.81 2.04l0 0c.39-.12.78-.2 1.19-.27v0c-.34-.52-.64-1.06-.9-1.62l.57.02c.29.57.6 1.09.87 1.5 .86-.12 1.84-.18 2.86-.19v-1.25l.28 0 .2-.01v1.25h-.001c.93 0 1.86.07 2.78.18 .27-.42.58-.94.87-1.51 .19-.01.38-.01.56-.02v0c-.27.55-.57 1.09-.91 1.62 .44.07.83.16 1.18.26 1.13-.53 2.1-1.23 2.84-2.06l.44-.04c-1.67 2.093-4.67 3.49-8.09 3.49s-6.42-1.41-8.08-3.5Zm7.87 2.03c-.91 0-1.78.05-2.56.14 .27.37.48.62.56.71 .63.11 1.3.18 1.99.19Zm.49 0v1.05l0-.001c.64-.02 1.28-.09 1.91-.2h0c.19-.23.37-.47.54-.71l-.001-.001c-.82-.1-1.65-.15-2.47-.16Zm-3.61.22c-.27.04-.5.08-.73.13v0c.35.13.71.24 1.07.33 -.1-.14-.23-.29-.35-.47Zm6.62.01v0c-.12.15-.23.3-.34.45 .36-.09.71-.2 1.05-.33 -.23-.05-.47-.09-.73-.14Z"/></svg>