<svg viewBox="0 0 24 24" xmlns="http://www.w3.org/2000/svg"><path d="M1.84 0v0C.82-.01-.01.81-.01 1.83c-.01 0-.01 0 0 .01V20.3c0 1.02.82 1.84 1.846 1.84h20.308v0c1.01 0 1.84-.82 1.84-1.84 0-.01 0-.01 0-.01V1.82v0c0-1.02-.82-1.85-1.84-1.85 -.01-.01-.01-.01-.02-.001H1.81Zm0 .924h20.308c.51 0 .92.41.92.92V20.3c0 .51-.41.92-.93.92H1.83v0c-.51 0-.93-.41-.93-.92 -.01-.01-.01-.01-.01-.01V1.83c0-.52.41-.93.922-.93Zm0 .92V20.3h20.308V1.83H1.84Zm1.84 2.14l3.23 1.758v.83l-3.24 1.89v-1.1l2.24-1.21v-.04l-2.25-1.07v-1.09Zm4.15 5.24h3.69v.92h-3.7v-.93Zm-7.846 12.5v.41c-.001 1.02.82 1.846 1.84 1.846h20.308 0c1.01 0 1.84-.82 1.84-1.84 0-.01 0-.01 0-.02v-.42 0c-.44.57-1.13.91-1.846.91H1.81v0c-.73-.01-1.41-.35-1.85-.92Z"/></svg>