<svg viewBox="0 0 24 24" xmlns="http://www.w3.org/2000/svg"><path d="M5.072 13.931v-.001c-.23.01-.42.14-.52.33 -.12.21-.39.24-.516.2 -.21-.07-.48-.12-.75.06s-.55.04-.5-.3c.05-.34.17-.65.5-.83 .71-.41.21-.7.6-1.11 .39-.42.3-.54.29-1.1 -1.33-.2-2.08-.58-2.915-1.63C.42 8.5.09 7.64 0 6.32 -.09 5-.01 4.15.55 3.06 1.11 1.97 1.72 1.44 2.75.9 3.78.35 4.811.22 5.749.24 6.67.25 7.3.32 7.842.62c.53.3 1.01.68 1.32.68 .24.01.47-.06.673-.2 .04 1.02-.88 1.108-1.7 1.13 -.82.02-1.33-.32-2.08-.2 -.76.12-1.992.47-2.595 1.52 -.61 1.05-.63 1.42-.573 2.3 .05.87.806 1.53 1.23 1.54 .42 0 .52-.12.89-.36 .37-.25 2.28-2.61 2.93-3.14 .65-.53 1.29-.7 1.99-.71 .69-.01.87.01 1.43.246 .56.22.9.65 1.35.91 .23-.14.375-.34.58-.5 .76-.552 1.15-.702 2.05-.62 .51.05 1.17.347 1.56.68 .69.6 1.26 1.44 1.72 2.07 .36.49.78 1.09 1.39 1.27 .66.2 1.157-.66 1.23-1.13 .04-.27.09-.51.09-.8 0-.3-.03-.66-.12-.97v0c-.09-.31-.23-.6-.4-.87 -.26-.42-.68-.85-1.12-1.08 -.25-.125-.83-.36-1.19-.36 -.45-.01-.79.14-1.21.16 -.5.03-1.4.14-1.79-.24 -.25-.246-.29-.41-.33-.73l-.001-.001c.11.09.25.14.4.16 .31.02.6-.23.86-.38 .21-.13.5-.34.77-.45 .7-.29 1.56-.278 2.31-.2 .59.06 1.36.324 1.89.62 .52.29 1.03.798 1.4 1.26 .46.59.72 1.104.88 1.84 .21.94.27 2.36.01 3.29 -.21.734-.89 1.86-1.47 2.41 -.58.54-1.24.81-1.99.95 .03.14.03.29.07.41 .05.17.16.375.38.31 .08-.03.13-.05.24.05 .11.1.05.484-.27.66 -.17.08-.34.1-.6.11v-.001c-.32.01-.64-.01-.96-.05 -.29-.05-.45-.28-.77-.31 -.49-.06-.86-.41-1.25-.66 -.17-.11-.22-.11-.31-.16 .05.15.11.31.15.46 .03.14.02.28.03.4 .02.12.05.21.07.3 .07.06.1.17.23.2s.33-.02.46-.04 .22-.09.32-.07c.1.02.2.09.29.16 .08.07.16.08.23.25 .07.17.13.53.14.77 .01.24-.02.45-.09.64 -.07.19-.14.27-.33.46 -.2.19-.51.46-.82.66 .05.08.08.16.17.25 .09.09.27.19.36.29 .08.09.12.16.12.27v0c.01.13-.03.26-.1.37 -.23.3-.49.35-.81.49 .05.33.09.57.02.9 -.03.13-.11.44-.27.52 -.17.08-.5.04-.7.07 -.21.03-.32.06-.48.09 -.1.14-.24.29-.29.42 -.05.12-.04.17 0 .3 .04.12.18.31.22.46h0c.04.15.04.31.01.46v-.001c-.04.15-.12.28-.23.39 -.13.13-.38.24-.51.34 -.125.11-.26.12-.22.3 .04.24.41.64.67.74v0c.18.05.38.04.55-.04 -.02.2-.2.35-.32.49 .32-.1.63-.27.85-.51 -.07.2-.3.52-.65.81 -.35.28-.35.22-.52.34 .31.06.6.04.85 0v0c-.2.11-.42.18-.64.2h-.001c-.25.02-.5.01-.73-.06 -.26-.07-.5-.31-.82-.47 .03.11.05.26.18.38s.33.18.55.28c-.28-.03-.56-.04-.83-.1v0c-.17-.04-.33-.1-.48-.17 -.15-.07-.26-.18-.39-.27 .06.11.08.25.18.35 .1.09.27.13.41.19 -.15-.01-.28.02-.43-.01v0c-.17-.04-.32-.11-.45-.21l0-.001c-.17-.12-.31-.25-.45-.4 -.14-.15-.3-.34-.35-.47 -.05-.14.03-.23.04-.34 -.09.06-.2.09-.28.18 -.07.08-.14.16-.1.31 .03.15.17.33.27.5 -.3-.25-.46-.34-.53-.625 -.07-.28.1-.52.23-.73 .06-.11.16-.2.22-.3 -.14-.13-.29-.24-.4-.39 -.12-.15-.17-.36-.28-.5 -.12-.15-.28-.24-.41-.35 .11.25.31.57.359.77 .04.2-.05.32-.12.43 -.07.1-.19.13-.3.19 -.11.06-.28.01-.35.11 -.07.09-.09.24-.03.34l.25.39v0c-.13-.08-.24-.17-.33-.28 -.08-.1-.19-.19-.2-.32 -.02-.13-.03-.25.06-.37 .08-.12.31-.16.42-.25 .1-.09.16-.15.15-.27 -.01-.12-.12-.2-.22-.28 -.3-.23-.68-.43-.94-.7l0-.001c-.11-.11-.2-.24-.24-.38 -.03-.11 0-.19.07-.32s.31-.31.34-.45c.02-.14-.1-.18-.21-.22 -.12-.05-.33.02-.43-.07 -.11-.09.03-.27-.09-.37 -.12-.1-.38-.05-.52-.15H8.33c-.13-.11-.21-.25-.24-.4h0c-.05-.15-.06-.3-.02-.44 .03-.12.12-.14.18-.19 .06-.06.1-.11.03-.2 -.08-.09-.33 0-.48-.11 -.15-.12-.06-.38-.17-.5 -.11-.11-.29-.07-.39-.11 -.1-.04-.14.09-.2-.11s-.07-.8-.15-1.02c-.08-.23-.24-.02-.31-.24 -.08-.22-.01-.58-.04-.91l-.15-.91c-.52.35-.867.46-1.428.56 -.05 1.37-.18 2.18.29 3.705 .46 1.52 1.4 2.42 2.68 3.7 -1.68-1.26-2.48-2.279-2.98-3.59 -.51-1.31-.41-2.407-.36-3.67Zm8.918-.56h-.001c.13 0 .26.03.37.09 .09.06.18.1.27.19 .2.21.36.46.42.75 .04.18.05.42.06.64 -.07-.2-.11-.41-.2-.59 -.14-.29-.38-.56-.68-.69v0c-.07-.04-.15-.05-.22-.03 .02.04.06.07.06.13s-.02.17-.12.22c-.16.07-.34.02-.47-.09l0 0c-.13-.12-.17-.3-.11-.46 .08-.2.375-.2.55-.19Zm-1.62-.28c.01-.34.13-.609.43-.77 .18-.11.39-.18.6-.22 .2-.03.71-.01 1.01.13 .23.1.39.27.59.39 .2.12.35.2.54.33 .3.21.47.44.68.57 .1.06.24.05.37.09 -.11.03-.24.06-.35.03v0c-.16-.07-.31-.16-.44-.27v0c-.16-.14-.32-.26-.5-.359 -.13-.08-.33-.16-.47-.25 -.14-.09-.37-.29-.51-.35h-.001c-.21-.09-.43-.13-.65-.125 -.26 0-.63.05-.83.22 -.2.18-.27.33-.23.56 .07-.09.12-.19.19-.26 .15-.14.33-.14.52-.12 .21.02.32.15.39.35 -.05-.04-.14-.11-.21-.14h0c-.15-.06-.31-.04-.44.04 -.18.09-.13.24-.16.39 -.02.07-.04.13-.06.2h-.001c-.07-.02-.13-.06-.18-.1 0 .07-.01.14 0 .22 .01.08.05.18.08.27 -.13-.125-.26-.24-.34-.41v0c-.09-.16-.14-.34-.13-.52Zm.21-2.4c.09-.14.12-.35.17-.52 -.02.21.02.45-.09.609 -.11.15-.3.12-.45.17 .11-.09.25-.14.35-.27Zm-2.21 3.2c.11-.1.43-.02.67-.01l-.52.13c-.02.06-.01.12-.05.17 -.04.05-.12.06-.18.1 0-.16-.07-.32.05-.41Zm1.68-6.65c.14.07.32.17.45.18 .12 0 .15-.08.23-.14 .11.38.25.79.44 1.14 .08.14.13.07.2.22 .06.14.09.43.15.62 .06.18.13.32.2.48 -.18-.25-.4-.57-.5-.78 -.1-.21-.04-.23-.12-.43 -.08-.2-.24-.51-.36-.76 -.09.01-.19.02-.26 0 -.07-.03-.06-.1-.12-.14 -.06-.05-.16-.03-.24-.1 -.08-.07-.1-.22-.11-.35Zm-.766 1.87c.13-.02.29.02.42.01 .12-.01.21-.04.32-.06 -.02-.19-.01-.54-.18-.67 -.12-.08-.58-.02-.71 0 -.28.06-.61.22-.88.33 .25-.18.48-.35.79-.44 .18-.06.62-.13.81-.08 .08.02.1.06.15.13 .18.25.18.47.23.77 .04.07.09.11.13.19v0c.03.09.06.18.06.28 -.05-.07-.02-.16-.15-.21 -.14-.06-.34-.01-.52.01 .13.09.19.18.2.38 0 .23-.19.4-.4.41 -.29.02-.44-.05-.55-.29 -.05-.11-.02-.24-.02-.35 -.35.02-.34.01-.6.22 .13.2.22.31.45.43 .12.06.27.13.42.16 .15.02.41.05.58.02v-.001c.14-.02.27-.09.38-.19 .12-.12.13-.28.18-.41v0c-.01.12-.03.25-.07.37 -.14.27-.38.35-.67.35 -.28 0-.62-.07-.88-.17 -.21-.09-.55-.33-.625-.54 -.06-.15-.02-.32-.02-.48 .28-.19.35-.15.68-.2 .14-.03.23-.08.37-.09ZM9.62 7.83c0-.12.02-.11.03-.17 -.26-.07-.36.09-.52.41 -.06.11 0 .18-.07.26 -.06.07-.16.06-.26.13s-.2.21-.29.29c-.19.15-.45.25-.67.35 .15-.12.44-.28.53-.44 .05-.09.04-.25.12-.33 .07-.08.1-.13.2-.15 .1-.02.06-.14.09-.23 .03-.1.09-.16.16-.26 .06-.1.15-.23.29-.29 .13-.05.34 0 .45-.03 .1-.03.04-.11.11-.15 .07-.05.21-.03.32-.08 .17-.09.26-.23.36-.38 .01.32.01.56-.11.86 -.14.34-.266.55-.641.76 -.13.07-.26.09-.37.13 .06-.09.15-.13.18-.26 .03-.14 0-.4.01-.52Zm6.057 1.59c-.18.01-.22-.02-.37.09l.23.36c-.01-.24.01-.29.13-.45Zm-.47-.18c.24-.11.46-.19.73-.21 .1-.01.27 0 .38.01 .09-.14.21-.25.25-.4 .02-.11.01-.59-.04-.71 -.15-.36-.29-.38-.5-.59 -.15-.15-.16-.38-.2-.64 -.02-.1-.07-.22-.09-.31h0c-.29-.05-.58-.07-.86-.05 .14-.15.29-.28.33-.49V5.85c.04-.23 0-.47-.12-.67 -.12-.2-.32-.36-.5-.52 -.18-.16-.44-.29-.61-.42 .22-.08.44-.2.66-.24 .56-.11 1.04.05 1.58.38 .31.19.57.37.9.71 .33.34.73.97 1.05 1.34 .31.375.57.67.85.89 .27.22.52.28.79.43l.41.43 .33-.42 .53.06 .11-.601 .49-.14 -.08-.82 .35-.26 -.27-.51 .27-.56 -.36-.63 .13-.61 -.41-.35 -.06-.65 -.57-.22 -.23-.56 -.64-.01 -.32-.42 -.43.03 -.48-.06 -.27-.2 -.4.26 -.48-.25 -.95.36 .61-.54 .64-.11 .49-.13 .66.21 .58-.15 .56.33 .59-.03 .29.52 .59.06 .32.58 .37.2 .1.746 .33.31 -.15.653 .39.49 -.37.52 .39.33 -.5.44 .5.52 -.62.2 .39.56 -.5.08 .32.62 -.57-.01 .28.46 -.62-.08 .14.67 -.47-.42 -.16.81 -.33-.59 -.18.73 -.4-.54 .01.76 -.44-.69c.09.39.07.81.33 1.18 .79-.11 1.311-.31 1.92-.9 .55-.54 1.21-1.65 1.39-2.35 .2-.81.21-2.29.01-3.101 -.2-.79-.45-1.17-.9-1.807 -.43-.46-.86-.94-1.4-1.27 -.8-.48-1.83-.61-2.74-.6V.27c-.4 0-.79.07-1.15.21 -.53.19-.95.61-1.487.81 -.18.06-.32.06-.46-.01 .13.27.28.39.62.49 .24.07.82.02 1.22-.02 .43-.04.65-.17 1.23-.16 .57.01 1.02.22 1.27.36 .51.29.87.61 1.19 1.13 .17.28.29.6.38.92 .08.32.12.68.13 1 0 .31-.02.6-.1.88 -.19.66-.59 1.35-1.407 1.245 -.51-.07-1.27-1.01-1.52-1.36 -.52-.71-1.05-1.48-1.69-2.06v0c-.41-.37-.92-.6-1.47-.65 -1-.09-1.29.09-2.04.71 .15.04.3.07.45.14 .34.15.66.35.93.61 .29.27.42.44.43.82 0 .25-.21.46-.4.649 -.12.11-.28.21-.37.3 -.13.11-.29.24-.125.43 .06.07.16.12.25.18 .14.1.07.48-.11.59V7.49c-.23.13-.52.11-.72-.07 .24-.04.4-.07.39-.27 -.01-.12-.15-.22-.3-.28 -.35-.16-.62-.14-.97-.39 -.36-.26-.36-.4-.46-.79 -.17.01-.33.02-.56.09 -.23.07-.48.25-.69.29 -.52.11-.63.07-.907 0 -.51-.14-1.15.09-1.8.29 -.11.03-.55 0-.84.1v0c-.53.2-1.02.49-1.46.85 -.556.46-1.29 1.86-1.7 3.47 -.05.49.09.81-.22 1.05s-.3.85-.41 1.02c-.11.17-.23.09-.45.33 -.23.24-.34.2-.34.65 .19-.125.47-.28.72-.29 .22-.01.22.28.78-.28 .3-.3.88-.31 1.28-.44s1.125-.41 1.85-1.21c.72-.81 1.07-1.67 1.21-2.9 .02.21.06.46-.04 1.06 -.1.6-.3 1.28.13 2.09l.26.5c-.16-.22-.47-.57-.56-.82l-.21-.577c-.48.75-.59.88-1.26 1.423 -.03.33-.04.68.07 1 .1.32-.07.68.02.9 .08.21.27.09.33.3s-.04.63.06.84c.1.2.33.08.45.15 .11.06.15.15.21.24 .06.08-.03.29.1.36 .12.06.32.01.45.07 .13.06.15.22.12.36 -.04.14-.18.2-.24.34v0c-.07.11-.06.26.02.37 .07.13.23.2.4.27 .16.06.39.02.55.12 .16.09.32.27.4.4v0c.07.1.11.23.1.36v0c-.02.15-.06.3-.14.43 -.08.13-.24.3.02.55 .25.25.24.14.39.31 -.02-.29-.14-.52-.05-.74 .08-.22.35-.26.48-.36 .13-.1.21-.24.32-.35 0 .14.01.31-.01.42 -.04.22-.11.43.23.46 .15.01.29-.09.45-.14 -.09.14-.23.27-.26.45h-.001c-.03.19.01.39.13.56 .12.18.34.31.49.41 .15.1.24.11.36.17 0 .17-.03.36-.01.53h0c.01.16.07.31.17.45 .09.14.25.22.39.32 -.08-.19-.25-.37-.24-.56 0-.2.06-.34.25-.51 .19-.18.64-.33.85-.5v-.001c.15-.11.27-.27.35-.44 .07-.17.05-.43.07-.58 .06.2.07.27.1.48 .02.21-.13.52-.19.68v0c.22-.11.41-.3.51-.53 .05.03.03.125.05.3 .09-.1.2-.17.29-.25 .09-.09.19-.17.24-.29 .04-.12.02-.26-.01-.4 -.04-.15-.2-.31-.28-.47 -.09-.16.01-.31.01-.5 -.17-.03-.32-.12-.51-.09 -.2.03-.42.24-.63.25 -.2 0-.32-.19-.48-.24 -.17-.06-.33-.05-.5-.07 .21-.2 1.02-.3 1.57-.39l-.001-.001c.48-.09.97-.13 1.47-.14 .22-.01.5.06.66.02 .15-.05.12-.15.16-.27 .13-.32.06-.61-.01-.93 -.45-.06-.91-.12-1.36-.09 -.44.03-.96.24-1.41.25 -.39.01-.98-.08-1.31-.28 -.42-.25-.74-.79-.85-.97 -.19-.28-.42-.84-.56-1.09 -.14-.26-.18-.33-.29-.43 -.12-.11-.28-.12-.42-.17 .16.01.33-.04.48.04 .22.12.46.64.6.87 .14-.49.11-.68.53-.95 -.34.37-.35.66-.43 1.11 .28.46.67 1.19 1.18 1.39 .18.07.5.12.7.14 .62.07 1.22-.12 1.83-.27 .44-.11.89-.07 1.43-.04 .18.01.61-.1.7-.29v0c.05-.11.04-.24-.03-.33 -.07-.11-.26-.16-.36-.26 -.1-.1-.16-.21-.24-.32l0-.001c-.36.06-.71.1-1.07.11 .22-.09.43-.14.66-.23 .23-.1.46-.22.67-.359 .18-.13.3-.2.43-.34 .13-.15.3-.29.4-.47 .1-.18.11-.37.12-.59 0-.22-.01-.516-.09-.69 -.09-.18-.25-.23-.37-.27 -.13-.04-.22.06-.35.07 -.14.01-.26.09-.46 0h-.001c-.25-.13-.47-.32-.62-.548 -.2-.28-.34-.73-.54-1.07 -.35-.6-.77-1.15-1.18-1.702v0c-.05-.17-.08-.34-.1-.51 -.04-.33-.04-.66.06-.97 .07-.24.18-.5.43-.6v0c.1-.05.21-.06.31-.03 .09.03.18.13.14.25 -.04.12-.13.13-.19.19V7.05c-.1.09-.16.2-.19.33 .11-.01.26-.02.35.01 .12.03.23.11.29.27 -.15-.13-.22-.19-.39-.19 -.09-.01-.18.02-.27.04 -.04.1-.06.24-.1.33 -.05.08-.15.06-.18.16h0c-.04.12-.04.26-.02.39h0Zm1.24-.15c.05.02.07.02.14.08 .07.05.16.1.22.23v0c.04.12.05.26.04.4 -.05-.02-.12-.01-.17-.05 -.05-.05-.08-.14-.15-.18 -.07-.05-.12-.04-.19-.05 .03.09.05.19.03.3 -.04.2-.16.3-.36.33 -.09.01-.22-.02-.3-.03 .03.07.09.14.12.21 .16-.03.28-.02.375-.07 .08-.05.18-.14.29-.18 .11-.04.21-.04.33-.06 -.1.08-.17.16-.26.25l.21.62c.15.09.29.14.48.26 .19.11.42.32.67.44 .24.11.39.17.65.22 .26.05.46.26.72.29 .25.03.73.04.93.02 .22-.02.51-.14.54-.38 -.19.04-.48 0-.62-.35 -.07-.16-.04-.45-.14-.63 -.1-.19-.24-.25-.4-.48 -.17-.23-.43-.59-.58-.9 -.15-.31-.19-.66-.32-.93 -.13-.28-.32-.5-.47-.71 -.33-.47-.59-.78-1.12-1.02 -.26-.12-.55-.15-.83-.22 -.12.05-.27.1-.3.23v0c-.03.15.02.3.12.42 .16.16.39.34.48.6 .06.16.07.73.02.883 -.06.16-.18.25-.29.36Zm.05 1.33c-.05.04-.09.08-.17.12 -.08.03-.19.04-.3.07 .14.23.3.46.44.71 .14.24.26.51.4.76 -.01-.15 0-.31-.02-.44 -.02-.14-.09-.26-.15-.47 -.06-.21-.14-.484-.23-.77Zm-4-5.087H12.5c-.02.27.01.54.06.8 .05.26.11.4.32.56 .39.29.64.24.95.41 .14.08.32.21.38.359 .05.14-.04.3-.15.36 .19.02.4-.19.31-.41 -.05-.11-.26-.16-.32-.28V7.13c-.06-.11-.08-.23-.04-.34 .05-.21.45-.39.59-.55 .21-.25.3-.46.17-.77 -.18-.45-.85-.81-1.25-.98 -.19-.08-.29-.09-.43-.13 .29.17.6.31.75.69 .12.32.01.44.02.72 0 .13.17.19.24.27 .06.07.06.125 0 .22v0c-.01-.09-.05-.16-.11-.2 -.12-.08-.24-.07-.3-.23 -.09-.25.09-.484-.12-.77 -.15-.21-.36-.45-.625-.45v0c-.13-.01-.25.01-.36.05l-.19-.22 -.01-.01c-.38-.34-.63-.62-1.15-.86 -.53-.24-.78-.27-1.38-.26 -.6.01-1.19.06-1.89.66 -.694.6-2.48 2.888-2.92 3.17 -.43.28-.53.38-1.07.38s-1.39-.766-1.42-1.73c-.04-.96-.05-1.3.62-2.45C3.84 2.18 5.03 1.83 5.93 1.71c.89-.12 1.43.19 2.09.19 .66 0 1.314-.11 1.5-.637 -.1.05-.23.12-.577.1 -.36-.02-.85-.43-1.41-.71C6.98.38 6.37.35 5.58.33 4.79.31 3.8.37 2.82.9 1.84 1.42 1.17 1.98.6 3.02 .03 4.05-.06 4.89.04 6.14 .13 7.38.52 8.31 1.25 9.23c.744.91 1.48 1.36 2.82 1.529l.28-1.25 -.51.72 .01-.81 -.46.56 -.21-.77 -.367.61 -.19-.86 -.54.43 .17-.71 -.71.07 .32-.5 -.65 0 .375-.66 -.57-.1 .45-.6 -.698-.21 .57-.56 -.58-.47 .44-.35 -.42-.56 .44-.52 -.17-.69 .379-.33 .11-.79 .42-.22 .36-.61L3 1.5l.33-.56 .68.03 .64-.35 .66.15 .75-.23 .56.13 .73.1 .7.56L6.97.95l-.55.26 -.45-.28 -.31.21 -.55.05 -.492-.03 -.36.43 -.74 0 -.26.59 -.65.22 -.06.67 -.47.36 .15.63 -.41.66 .31.58 -.31.53 .403.26 -.09.85 .56.14 .125.63 .613-.07 .38.43 .47-.47C5.14 7.17 5.49 6.93 6.16 6.2c.76-.83 1.19-1.59 2.208-2.15 .73-.41 1.32-.56 2.13-.41 .766.13 1.02.593 1.59 1.077 .06-.11.07-.14.16-.22 -.03.14-.08.28-.1.42Z"/></svg>