<svg viewBox="0 0 24 24" xmlns="http://www.w3.org/2000/svg"><path d="M21.038 4.9L13.461.4c-.46-.27-.96-.41-1.47-.41s-1.01.134-1.47.403L2.94 4.892c-.91.53-1.47 1.529-1.47 2.6v8.99c0 1.07.55 2.06 1.46 2.6l7.577 4.497c.45.26.95.4 1.46.4 .5 0 1-.14 1.46-.41L21 19.072c.9-.54 1.46-1.529 1.46-2.61v-9c0-1.08-.56-2.066-1.47-2.61ZM15.17 18.94l.01.64c0 .07-.05.16-.12.19l-.39.22c-.07.03-.12-.01-.12-.09l-.01-.64c-.33.13-.66.16-.88.08 -.04-.02-.06-.08-.05-.15l.13-.59c.01-.05.03-.1.06-.13 .01-.02.02-.02.03-.03 .02-.02.04-.02.06-.01 .22.07.52.04.8-.11 .35-.19.59-.55.59-.907 -.01-.33-.19-.47-.62-.47 -.55 0-1.064-.11-1.08-.92 -.01-.67.34-1.37.88-1.8l-.01-.66c-.01-.08.04-.17.11-.2l.37-.24c.06-.04.11 0 .11.08l0 .65c.27-.11.51-.14.72-.09 .04.01.06.07.04.15l-.15.57c-.02.04-.04.08-.07.11 -.02.01-.03.02-.04.02 -.02.01-.04.01-.06 0 -.1-.03-.34-.08-.7.11 -.39.19-.52.53-.52.77 0 .29.15.38.68.39 .7.01 1 .31 1.01 1.02 0 .68-.37 1.43-.93 1.88Zm3.97-1.09c0 .06-.01.11-.06.14l-1.92 1.16c-.05.02-.09 0-.09-.06v-.5c0-.06.03-.1.08-.13l1.88-1.13c.05-.03.09-.01.09.05v.43Zm1.31-11.07L13.28 11.2c-.9.52-1.56 1.109-1.56 2.18v8.83c0 .64.26 1.06.66 1.18 -.14.02-.27.03-.4.03 -.42 0-.84-.12-1.2-.33l-7.58-4.5c-.75-.44-1.21-1.27-1.21-2.15v-9c0-.89.46-1.702 1.2-2.15L10.76.79c.36-.22.77-.33 1.19-.33 .41 0 .83.11 1.19.33l7.57 4.498c.62.37 1.04 1.013 1.16 1.73 -.26-.54-.82-.69-1.48-.3Z"/></svg>