<svg viewBox="0 0 24 24" xmlns="http://www.w3.org/2000/svg"><path d="M10.437 0c-.37.006-.75.03-1.14.07C4.5.61 1.7 4.59 1.53 9.42 .41 11.61.08 14.2.8 16.727c1.392 4.84 6.201 7.76 11.14 7.18l.9-.11c4.94.32 5.99-1.03 7.182-4.308 .125-.27.3-.77.56-1.57 0-.04.01-.08.02-.1 .78-2.15.9-4.57.24-6.88v-.001c-.08-.28-.17-.55-.28-.81 -.03-.19-.03-.42 0-.6 .29-.48.64-.83 1.07-1.1l.27-1.88c.28-.33.17-.6.19-1.06 .16-.08.25-.22.32-.43 .07-.24.44-.69.86-1.04 .06-.19.22-.58.22-.9 -1.99.22-3.23.6-4.23-.61l-.53-.21c-.24-.38-.67-.59-.98-.95l-.35 1.21c-.43-.27-2.75-2.688-7.045-2.62Zm.14.79c2.59.03 4.962 1.34 6.2 2.28l-.95.35 -.6-.39 -.27.78v.32l-.74 1.76 -.08-.03 .37-1.58 .57-1.52 -.2-.17 -.84.92c-.18.97-.09 2.358-.55 2.93 .14-1.15.34-2.16.35-3.5l-.49-.17c-.12.59-.27 1.27-.39 1.65l.16-1.71 -.63.4v.97l-.17-.55 -.06-.976 -.22-.03 -.17.625c.02.27-.02.54.21.81l.05 2.06 .13.24L12 7.41l.02-1.14 -.08-.08 -.17-2.01 -.28-1.09 -.44-.27 -.17-.46 -.46-.03 1.03 3.69 .08 1.109c-.12-.53-.12-1.1-.57-1.49 .04-.56-.04-1.093-.71-1.58l-.98-2.01c-.04-.24-.37-.276-.6-.381 -.07.31-.13.64.08 1.03 .48.77.97 1.55 1.46 1.97l.02.94c-.16-.875-.61-1.35-.76-1.22 -.01-.72-.79-.98-1.25-1.44l-.06-.786 -.27-.06c.17.532-.22.57.54 1.62l.02.38c-.29-.2-.58-.57-.867-.98l-.36-.63c.03.42-.18.52.13 1.274 .45.39.86.97 1.383 1.11 0 0 .1.19 0 .19 -.11 0-.33-.09-.33-.09 -.3-.14-.59-.26-1.165-.68l-.6-1.77 -.28-.06 .05.94 .242.1 .02.62c.1.37.22.51.4.46 -.11.12-.22.15-.47.13 -.2-.38-.33-.75-.74-1.2l-.27-.79 -.17.16V2.89c-.08.32-.08.65-.001.97 -.27-.16-.66-.6-1.13-.82 1.53-1.78 3.89-2.46 5.75-2.49 .08-.01.16-.01.25-.01Zm7.55 2.188l.51.17 1.51.86 2.14.01c-.62.24-1.38.52-1.86.67l-.62-.02c-.49-.42-.88-.62-1.31-.88 -.53.55-.84 1.033-1.01 1.73l.15-1.19 .52-1.17ZM4.55 3.3l.54 1.09 .02.24 -.3-.11 -.27-.63 -.3.21 -.22-.13c.15-.25.32-.48.51-.69ZM8.06 5.61c1.61-.04 1.86 1.3 2.12 2.54v2.22c.18.01.56 1.13.48 1.49 -.05.2.48 1.42.45 1.42 .28.27.23.24.46.42 .31.24.6 1.13.42 1.26 -.17.12.22.4.31.6 .56.5.98 1.013.97 1.52l.27.48 .51.08 .13.19 .65.08c.375-.08.32-.49.43-.76 .02-.28-.06-.6-.47-.95 .02-.43.07-.84-.33-1.327 .05-.51-.32-.92-.6-1.36 -.04-.38-.2-.89-.32-1.38 -.06-.25-.09-.5-.14-.74 -.19-1.68.05-1.862.13-2.77 .61-.93.94-1.38 1.49-1.58l.7.87c.34.63.19 1.44 1.05 1.59l.02.02c.43-.4 1.02-.39 1.49-.4l-.06.18c-.57-.06-1.04-.08-1.42.21l.38.37c.41-.54.98-.5 1.53-.52l0 .2c-.61-.08-1.19.02-1.5.36l.12.11h0c.46-.37 1.02-.39 1.54-.39l-.11.18c-.53.04-.9 0-1.28.23 .29.03.58.05.88.08l.11.24 .67.05c.12.03.21.04.3.04 .08.22.15.44.22.67v0c.49 1.71.51 3.53.05 5.27 -1.36 3.64-2.8 4.61-5.73 4.41 -3.06-.21-5.53-3.61-7.706-8.27 -.48-1.3-1.638-2.11-2.32-1.42 -3.08 3.05.39 8.49 2.1 9.801H6.06c.89.65 1.85 1.21 2.87 1.67 -3.38-.57-6.27-2.92-7.245-6.308 -1.18-4.1.77-8.374 4.48-10.423l.01-.01c.694-.26 1.25-.38 1.7-.39Zm10.22 2.04c.29.04.83.36 1.13.66 .09.24-.14.35-.12.49 0 .02 0 .03 0 .03 -.01-.02-.01-.03-.01-.04 -.03-.08-.42-.56-1.02-1.16Zm1.8 2.18c-.01.25-.09.34-.2.47 -.12 0-.39-.08-.52-.25 .18-.22.46-.21.7-.23Zm-2.84.17c-.06.07-.09.15-.16.3 .09-.14.14-.2.2-.25Zm.14.17c-.23.06-.39.41-.62.92 .24-.3.4-.72.74-.85ZM5.54 13.08l.05 1.05 -1.66.94 -.03-.79c.68.17 1.14-.56 1.62-1.22Zm.734 2.25l.242.62 -2.09 1.138 -.3-.71c2.09-.77 1.73-.76 2.144-1.06Zm.75 1.43l.27.46c-.79.38-1.44.91-2.005 1.51l-.44-.87c.78-.24 1.53-.58 2.168-1.12Zm1 1.3l.46.43c-.36.81-1.11 1.31-1.82 1.84l-.73-.84c.71-.47 1.62-.84 2.08-1.44Zm1.53 1.5c.07.43-.23 1.07-1.22 2.02 -.39-.18-.79-.34-1.032-.65 1.6-.82 2.02-1.26 2.13-1.47 .04-.01.11.03.1.09Zm1.01.66c.03.38-.05.82.18 1.08l.21.05c-.12.47-.34.82-.33 1.29 -.86-.21-.96-.3-1.28-.51 .99-1.55 1.186-1.92 1.19-1.93Zm1.407.78l1.05 1.22c-.11.58-.1.93.29 1.08 -.6-.04-1.186-.04-1.68-.35 .43-.64.42-1.21.32-1.97Zm5.32.47c.3.46.34.7.65.81 -.41.39-.59.47-1.07.65 .14-.31 0-.73-.14-1.25 -.1-.2.4-.18.54-.22Zm-3 .28c1.78.53 1.18.87 1.72 1.4 -.48.1-.91.2-1.66.16 .55-.42.3-.87-.08-1.57Z"/></svg>