<svg viewBox="0 0 24 24" xmlns="http://www.w3.org/2000/svg"><path d="M2.968 11.583h1.274v-3.82 0c-.01-4.29 3.47-7.77 7.75-7.763 0-.01 0-.01 0 0v0c4.28-.01 7.76 3.47 7.76 7.75 0 0 0 0-.01 0v3.78c-.02.01-.04.02-.06.03l-.01.01 -.01 0h-.01l-.01.01 -.01 0h-.03l-.02.01h-.02l-.02.01h-.01l-.01.01 -.01 0h-.01l-.01 0 -.01.01 -.01 0 -.01 0 -.03.01 -.02.01 -.03.01 -.02.01 -.02 0 -.03.01 -.02.01 -.01 0 -.03.01 -.02.01 -.05.02 -.02.01 -.02 0 -.02.01h-.01l-.06.02h-.02c-.02.01-.04.02-.07.03h-.01l-.01.01 -.03.01 -.02.01 -.03.01 -.02.01h-.01l-.03.01 -.02.01 -.02 0c-.02.01-.05.01-.07.02l-.02.01 -.02 0 -.04.01 -.04.02 -.05.01 -.05.01 -.02 0 -.04.01 -.02.01c-1.55.73-4.02 1.516-8.71 1.85 -3.362.24-5.41 1.72-6.73 3.5Zm4.842 0h8.37v-3.82 0c0-2.32-1.88-4.19-4.19-4.19 -.01-.01-.01-.01-.01 0v0c-2.32-.01-4.19 1.87-4.19 4.18 -.01 0-.01 0 0 0Zm13.22 1.46v10.956H5.57c1.7-.95 2.968-.86 5.07-.79 2.865.09 6.03-1.11 7.58-2.7 1.55-1.6-.14-.375-1.91.07 -1.76.45-5.17.49-7.46-.11 7.17.09 9.97-2.22 11.55-4.31 1.58-2.08-.69-.37-2.16.35 -1.47.72-4.04 1.22-6.87.85 4.27-.01 7.52-2.144 9.6-4.35Z"/></svg>