<svg viewBox="0 0 24 24" xmlns="http://www.w3.org/2000/svg"><path d="M4.21 0C2.46 0 1.053 1.41 1.053 3.15V15.76c0 1.74 1.41 3.15 3.157 3.15h9.367c-.02 3.57-4.83 5.07-4.83 5.07s8.13-.04 9.305-5.08h1.72c1.74 0 3.15-1.42 3.15-3.157V3.13c0-1.75-1.42-3.157-3.16-3.157H4.19Zm4.52 2.53c.07-.02.13-.01.17.03 .33.3-.56.593-.484 2.063 .03.64-.16 1.146 1.07 1.146 .82 0 .48-.734 1.52-.734 .65 0 .86.43.93.76 .07-.33.27-.77.93-.77 1.04 0 .7.73 1.52.73 1.237 0 1.04-.5 1.07-1.146 .07-1.47-.82-1.77-.484-2.063 .04-.04.1-.05.17-.02 .5.14 1.6 1.55 1.63 2.15 .03.71.04 1.82-1.02 2.407 1.19 1.16 1.35 2.72 1.35 2.72l-2.045-.04s-.47-2.12-2.94-2.01c-2.474.1-2.8.53-2.8 3.15 0 2.61 1.14 3.51 2.9 3.58 2.76.1 2.51-1.44 2.51-1.44l-1.29.07 -.718-1.94h4.41c0 2.11-.9 5.414-5.1 5.2 -4.196-.22-5.13-3.52-5.17-5.74 -.02-1.23.18-2.61 1.2-3.574 -1.06-.58-1.04-1.7-1.04-2.42 0-.88 1.13-2.084 1.63-2.17Z"/></svg>