<svg viewBox="0 0 24 24" xmlns="http://www.w3.org/2000/svg"><path d="M1.81 10.23c-.05 0-.06-.03-.04-.06l.24-.32c.02-.04.08-.06.12-.06H6.3c.04 0 .05.03.03.07l-.2.3c-.03.03-.09.07-.12.07ZM.04 11.3c-.05 0-.06-.03-.04-.06l.245-.32c.02-.04.08-.06.129-.06H5.7c.04 0 .07.03.05.07l-.1.28c-.02.04-.06.07-.11.07Zm2.82 1.07c-.05 0-.06-.04-.04-.07l.16-.3c.02-.04.07-.07.11-.07h2.33c.04 0 .07.03.07.08l-.03.28c0 .04-.05.08-.09.08Zm12.129-2.36c-.74.18-1.24.32-1.97.51 -.18.04-.19.05-.34-.12 -.18-.2-.31-.33-.548-.45 -.74-.37-1.45-.26-2.115.17 -.8.51-1.21 1.27-1.2 2.22 .01.93.65 1.7 1.577 1.83 .79.1 1.46-.18 1.987-.77 .1-.13.19-.27.31-.44h-2.26c-.25 0-.31-.16-.23-.35 .15-.37.43-.97.59-1.28h0c.05-.12.16-.19.29-.19h4.253c-.03.31-.03.63-.07.94h-.001c-.13.83-.46 1.61-.96 2.29 -.85 1.11-1.94 1.8-3.33 1.98 -1.15.15-2.21-.07-3.15-.77 -.87-.66-1.36-1.52-1.484-2.6 -.16-1.28.22-2.42.99-3.43 .83-1.09 1.92-1.78 3.27-2.02 1.09-.2 2.15-.07 3.096.57 .62.41 1.06.97 1.35 1.64 .07.1.02.16-.12.2m3.86 6.46c-1.064-.03-2.04-.33-2.86-1.029h0c-.69-.58-1.13-1.38-1.27-2.26 -.21-1.32.15-2.49.94-3.529 .85-1.13 1.88-1.71 3.27-1.95 1.19-.21 2.314-.1 3.33.59 .92.63 1.49 1.48 1.64 2.6 .19 1.57-.26 2.86-1.35 3.96 -.78.78-1.718 1.27-2.81 1.49 -.32.06-.63.07-.94.1Zm2.78-4.72c-.02-.16-.02-.27-.04-.39 -.21-1.157-1.28-1.81-2.39-1.56 -1.09.24-1.79.93-2.05 2.03 -.21.91.23 1.83 1.07 2.21 .64.28 1.28.24 1.9-.07 .92-.48 1.42-1.23 1.48-2.24Z"/></svg>