<svg viewBox="0 0 24 24" xmlns="http://www.w3.org/2000/svg"><path d="M20.7 2.29c-2.5-1.554-5.78-1.187-8.706.65 -2.92-1.84-6.21-2.208-8.7-.66 -3.95 2.463-4.42 8.8-1.07 14.16 2.47 3.95 6.33 6.26 9.77 6.22 3.439.04 7.3-2.28 9.771-6.23 3.34-5.37 2.872-11.71-1.07-14.167ZM4.04 15.328H4.03c-.7-1.1-1.22-2.29-1.55-3.55h0c-.3-1.09-.42-2.22-.34-3.34C2.29 6.45 3.1 4.91 4.41 4.09c1.31-.83 3.05-.87 4.9-.137 .28.11.55.24.82.38v0c-1.03.93-1.93 2.01-2.66 3.19 -2.035 3.255-2.66 6.87-1.95 9.765v0c-.57-.62-1.08-1.28-1.52-1.98Zm17.46-3.55h0c-.34 1.25-.86 2.44-1.55 3.54v0c-.45.7-.95 1.37-1.52 1.98 .63-2.59.2-5.76-1.36-8.74v0c-.1-.2-.33-.28-.53-.18 -.02 0-.03.01-.05.02L11.63 11.43v0c-.19.11-.25.36-.13.54l.71 1.13 -.001-.001c.11.18.35.24.54.12 0-.01 0-.01 0-.01l3.14-1.97c.1.3.2.6.28.91 .29 1.08.41 2.21.33 3.33 -.15 1.98-.96 3.52-2.27 4.34v0c-.68.41-1.46.63-2.25.65h-.11 -.001c-.8-.02-1.58-.24-2.25-.65 -1.314-.83-2.13-2.37-2.27-4.35 -.08-1.13.03-2.26.33-3.34h-.001c.68-2.52 2.09-4.77 4.05-6.49V5.63c.84-.75 1.8-1.34 2.84-1.77 1.84-.74 3.58-.685 4.9.13 1.31.82 2.122 2.365 2.27 4.34v0c.07 1.12-.04 2.24-.33 3.33Z"/></svg>