<svg viewBox="0 0 24 24" xmlns="http://www.w3.org/2000/svg"><path d="M0 0v24h24V0Zm6.76 3v0c1.42-.08 2.82.41 3.89 1.35L9.27 6v0c-.7-.67-1.63-1.03-2.59-1.02 -1.6 0-2.844 1.4-2.844 3.08v.02c0 1.81 1.24 3.14 3 3.14v0c.72.02 1.44-.19 2.048-.6V9.19H6.692V7.31h4.292V11.6v0c-1.18 1.01-2.68 1.57-4.23 1.57 -3.08 0-5.196-2.17-5.196-5.1v-.03h0c-.01-2.81 2.25-5.09 5.06-5.1 .04-.01.08 0 .12 0Zm10.43 0c3.05 0 5.244 2.276 5.244 5.08v.02 0c0 2.82-2.29 5.11-5.11 5.12 -.06 0-.11-.01-.17-.01 -3.06-.02-5.25-2.3-5.25-5.12v-.03 0c0-2.83 2.3-5.11 5.13-5.1 .04 0 .09 0 .14 0Zm-.03 2v0c-1.64-.01-2.97 1.31-2.97 2.95 -.01.03 0 .07 0 .11v.02 0c-.06 1.66 1.24 3.05 2.9 3.11 .03 0 .06 0 .09 0h0c1.63 0 2.96-1.32 2.96-2.96 0-.05-.01-.09-.01-.14v-.03 0c.05-1.66-1.26-3.05-2.92-3.1 -.03-.01-.06-.01-.09-.01ZM2.24 19.5h9V21h-9Z"/></svg>