<svg viewBox="0 0 24 24" xmlns="http://www.w3.org/2000/svg"><path d="M11.43 23.99c-3.61-.21-6.274-2.08-6.448-5.08 .69 0 1.375-.02 2.07-.01 .22 1.34 1.06 2.43 2.683 3.026 1.58.49 3.737.46 5.08-.18 1.35-.64 2.14-1.83 2.503-3.58 .21-1.05.23-1.74.23-2.92l-.01-1.64h-.06c-1.25 2.56-3.32 3.53-5.59 3.47 -5.74-.06-7.68-4.54-7.528-8.606 .01-5.241 3.22-8.54 7.55-8.5 2.35-.14 4.605 1.36 5.55 3.37l.05 0 0-2.92 2.099 0 -.01 15.71c-.2 7.04-4.38 7.89-8.209 7.811Zm6.1-15.633c-.1-3.26-1.61-6.62-5.503-6.645 -3.96-.02-5.63 3.59-5.61 6.85 -.02 3.439 1.64 6.305 4.7 6.76 4.532.59 6.55-3.42 6.404-6.97Z"/></svg>