<svg viewBox="0 0 24 24" xmlns="http://www.w3.org/2000/svg"><path d="M4.9 0c-.91 0-1.64.733-1.64 1.637v20.726c0 .9.73 1.63 1.63 1.63H19.07c.9 0 1.63-.74 1.63-1.64V6.49h-6.5v-6.5H4.88Zm9.819 0v6h6l-6-6Zm-2.76 8.229c.22 0 .57.03.76.07 .2.04.57.18.84.31 .82.41 1.46 1.16 1.77 2.08 .16.51.18 1.34.05 1.86v0c-.21.76-.66 1.45-1.28 1.952l-.25.19h-1.87c-2.14 0-1.94.04-2.48-.5v0c-.52-.5-.87-1.15-.99-1.85 -.15-.766-.06-1.44.32-2.21 .19-.4.3-.56.65-.9 .68-.68 1.51-1.04 2.45-1.05Zm-1.87 7.86h3.78v1.32H10.09v-1.33Z"/></svg>