<svg viewBox="0 0 24 24" xmlns="http://www.w3.org/2000/svg"><path d="M16.94 4.97v0c-1.86.01-3.63.75-4.94 2.06v0c-2.69 2.69-2.75 7.04-.13 9.8l2.39-2.4v0c-1.35-1.5-1.23-3.81.26-5.15 1.38-1.26 3.49-1.26 4.88 0l2.39-2.4v0c-1.32-1.26-3.08-1.95-4.89-1.93Zm-9.88 0v0c-1.82-.02-3.57.68-4.89 1.93l2.39 2.39v0C6 7.98 8.21 8.04 9.58 9.41l1.73-2.98 -.1-.09v0c-1.21-.9-2.67-1.39-4.17-1.4Zm15 2.17l-2.39 2.39v-.001c1.35 1.48 1.24 3.79-.25 5.14 -1.4 1.26-3.52 1.26-4.91 0l-2.41 2.4v0c2.82 2.66 7.27 2.53 9.94-.29 2.56-2.72 2.55-6.96-.01-9.67Zm-20.15 0l0-.001c-2.58 2.71-2.58 6.96-.01 9.68l2.39-2.4v0c-1.26-1.39-1.27-3.51-.01-4.9Zm7.664 7.42c-1.38 1.38-3.59 1.41-5.02.11l-2.4 2.39c2.46 2.33 6.263 2.57 9 .54l.13-.12Z"/></svg>