<svg viewBox="0 0 24 24" xmlns="http://www.w3.org/2000/svg"><path d="M12.003 0v0c-1.66 0-3 1.34-3 3 0 .79.31 1.55.87 2.12l6.86 6.86 -4.45 4.54 1.74 1.83 -.001 0c.26.21.5.45.7.73l.01.01 -.01 0v0c.39.57.6 1.25.609 1.95v0c-.01.26-.04.52-.09.78l7.75-7.65c.03-.03.06-.05.09-.08 .02-.03.03-.06.06-.08V14c1.1-1.18 1.08-3.03-.06-4.17l-9-9V.83c-.57-.57-1.33-.88-2.13-.88ZM8.62 2.133L.87 9.803H.87C-.3 10.973-.3 12.86.87 14.03l7.7 7.75v0c-.06-.24-.08-.49-.08-.73v0c0-1.9 1.53-3.44 3.43-3.44v0c.27 0 .55.03.82.1L7.21 11.9 11.58 7.53 9.5 5.45c-.91-.91-1.2-2.19-.9-3.35Zm3.3 16.004h0c-1.62 0-2.94 1.31-2.94 2.93H8.98c-.01 1.61 1.31 2.93 2.93 2.93v0c1.61 0 2.93-1.32 2.93-2.94v0c-.01-1.62-1.32-2.94-2.94-2.94Z"/></svg>