<svg viewBox="0 0 24 24" xmlns="http://www.w3.org/2000/svg"><path d="M23.661 11.997v0c.07 1.78-1.33 3.29-3.12 3.36 -1.79.07-3.3-1.33-3.37-3.12 -.01-.09-.01-.17 0-.26V6.52h-5.68v0c-1.81-.19-3.13-1.82-2.94-3.62 .16-1.55 1.38-2.77 2.93-2.94h8.854V-.04c1.8-.01 3.27 1.45 3.29 3.25l0 8.73Zm-16.775-.02v0c-.001-1.81-1.47-3.28-3.28-3.28 -1.81 0-3.28 1.46-3.275 3.27v0c0 1.8 1.46 3.27 3.275 3.27 1.8 0 3.275-1.47 3.275-3.28Zm5.42-3.28H5.43c1.15.64 1.944 1.86 1.944 3.28h0c-.01 1.3-.69 2.52-1.81 3.2h3.67v5.45 0c-.1 1.75 1.24 3.25 2.99 3.35 .03 0 .07 0 .11 0v0c1.83-.02 3.3-1.52 3.29-3.36 -.01-.01-.01-.01-.01-.01V11.91v0c-.05-1.82-1.54-3.27-3.36-3.25Z"/></svg>