<svg viewBox="0 0 24 24" xmlns="http://www.w3.org/2000/svg"><path d="M22.84 2.99v17.99c0 1.64-1.32 2.98-2.97 2.99v0c-.13 0-.25-.01-.37-.03 -1.53-.23-2.65-1.56-2.62-3.1V3.08c-.04-1.55 1.08-2.88 2.61-3.1 1.63-.2 3.11.97 3.3 2.61 .01.12.02.24.02.36ZM4.13 18.04c-1.65 0-2.98 1.33-2.98 2.97 -.001 1.64 1.33 2.97 2.97 2.97 1.64 0 2.97-1.34 2.97-2.98 0-1.65-1.34-2.98-2.98-2.98ZM12 9.03c-.02 0-.04 0-.06 0 -1.65.09-2.93 1.47-2.891 3.12v7.98c0 2.16.95 3.48 2.35 3.76 1.61.32 3.18-.72 3.5-2.33 .04-.2.06-.4.05-.6V12c0-1.65-1.33-2.99-2.98-2.99Z"/></svg>