<svg viewBox="0 0 24 24" xmlns="http://www.w3.org/2000/svg"><path d="M1.5 9.67c-.83 0-1.5.67-1.5 1.5v1.63h0c0 .82.67 1.5 1.5 1.5 .82 0 1.5-.68 1.5-1.5v-1.63c0-.83-.67-1.5-1.5-1.5Zm20.994 0c-.83 0-1.5.67-1.5 1.5v1.63 0c0 .82.67 1.5 1.5 1.5 .82 0 1.5-.68 1.5-1.5v-1.63c0-.83-.67-1.5-1.5-1.5Zm-15.817 4.9c-.83 0-1.5.67-1.5 1.5v1.63 0c0 .82.67 1.5 1.5 1.5 .82 0 1.5-.68 1.5-1.5v-1.62c0-.83-.67-1.5-1.5-1.5Zm0-9.817c-.83 0-1.5.67-1.5 1.5v5.35 0c0 .82.67 1.5 1.5 1.5 .82 0 1.5-.68 1.5-1.5v-5.37c0-.83-.67-1.5-1.5-1.5Zm10.63 0c-.83 0-1.5.67-1.5 1.5v1.64 0c0 .82.67 1.5 1.5 1.5 .82 0 1.5-.68 1.5-1.5V6.25c0-.83-.67-1.5-1.5-1.5ZM11.98-.02c-.83 0-1.5.67-1.5 1.5v1.63 0c0 .82.67 1.5 1.5 1.5 .82 0 1.5-.68 1.5-1.5V1.48c0-.83-.67-1.5-1.5-1.5Zm0 19.355c-.83 0-1.5.67-1.5 1.5v1.64 0c-.01.82.66 1.5 1.49 1.5 .82 0 1.5-.67 1.5-1.5v-1.64c0-.82-.67-1.5-1.5-1.5Zm5.31-8.457c-.83 0-1.5.68-1.5 1.5v5.32 0c0 .82.67 1.5 1.5 1.5 .82 0 1.5-.68 1.5-1.5v-5.33c0-.83-.67-1.5-1.5-1.5Zm-5.32-4.77c-.83 0-1.5.68-1.5 1.5v8.72 0c0 .82.67 1.5 1.5 1.5 .82 0 1.5-.68 1.5-1.5V7.61c0-.83-.67-1.5-1.5-1.5Z"/></svg>