<svg viewBox="0 0 24 24" xmlns="http://www.w3.org/2000/svg"><path d="M3.08 4.23v-.001c-.82-.01-1.61.32-2.183.91l0 0c-.59.58-.91 1.37-.91 2.2v9.29 0c-.01.82.32 1.61.9 2.2v0c.57.58 1.36.91 2.18.91h4.28 -.001c1.13-.01 2.18-.64 2.713-1.65l1.2-2.28h-.001c.13-.27.4-.43.7-.42v0c.29-.01.56.15.7.42l1.21 2.27h0c.53 1 1.57 1.64 2.71 1.64h4.29v0c.82-.01 1.6-.33 2.18-.92v0c.58-.59.9-1.39.9-2.21V7.29c0-.83-.33-1.62-.91-2.21v0c-.58-.59-1.37-.92-2.183-.91Zm3.495 5.65c1.138 0 2.06.93 2.06 2.09 0 1.15-.93 2.09-2.06 2.09 -1.14 0-2.061-.94-2.061-2.1 0-1.16.92-2.1 2.06-2.1Zm10.832 0c1.13 0 2.061.93 2.061 2.09 0 1.15-.93 2.09-2.06 2.09 -1.14 0-2.07-.94-2.07-2.1 0-1.16.92-2.1 2.06-2.1Z"/></svg>