<svg viewBox="0 0 24 24" xmlns="http://www.w3.org/2000/svg"><path d="M22.365 8.729c.9 0 1.63-.74 1.63-1.64 0-.9-.74-1.64-1.64-1.64 -.9 0-1.64.73-1.64 1.63 0 .9.72 1.63 1.63 1.63m-4.907 5.452v0c1.8 0 3.27-1.47 3.27-3.28 0-1.81-1.47-3.271-3.28-3.271v0c-1.81 0-3.28 1.46-3.28 3.27 0 1.8 1.46 3.27 3.27 3.27m0 8.72c2.1 0 3.81-1.72 3.81-3.83 0-2.12-1.72-3.82-3.83-3.82v-.001c-2.11 0-3.82 1.7-3.82 3.81h0c-.01 2.11 1.7 3.82 3.81 3.82 0 0 0 0 0 0m-10.92-8.73v0c3.61 0 6.542-2.93 6.542-6.542 0-3.62-2.93-6.542-6.542-6.542v0c-3.62 0-6.55 2.92-6.542 6.54 0 3.61 2.92 6.54 6.54 6.54"/></svg>