<svg viewBox="0 0 24 24" xmlns="http://www.w3.org/2000/svg"><path d="M3.96 7.23v-.001c-1.5 0-2.87.84-3.55 2.18H.4c-.57 1.11-.57 2.43-.001 3.55H.4c.67 1.33 2.04 2.18 3.54 2.18 1.07 0 1.97-.36 2.627-.96 .74-.69 1.18-1.71 1.18-2.92v-.001c-.01-.28-.03-.54-.07-.81H3.94v1.52h2.14v0c-.09.49-.38.92-.79 1.2 -.36.24-.82.37-1.35.37 -1.04 0-1.911-.7-2.23-1.64h0c-.17-.5-.17-1.03 0-1.52 .31-.94 1.19-1.64 2.22-1.64v0c.56-.01 1.11.2 1.52.59l1.13-1.13h0c-.72-.68-1.67-1.05-2.66-1.04Zm6.5.55v6.9h.88v-2.8h1.46c.6 0 1.11-.2 1.52-.59v0c.41-.38.64-.91.63-1.47v0c0-.56-.23-1.09-.64-1.46v0c-.41-.4-.96-.61-1.53-.6Zm2.42.85h0c.31 0 .6.13.82.36h0c.46.45.47 1.19.02 1.66 -.01 0-.02.01-.03.02h0c-.23.23-.55.36-.88.35h-1.49V8.61h1.487v0c.01-.01.03-.01.05 0ZM17 9.8c-.85 0-1.48.3-1.907.92l.78.49c.28-.42.68-.63 1.17-.63v0c.31-.01.62.11.85.32v0c.23.19.36.48.36.78v.2c-.34-.2-.78-.29-1.3-.29 -.62 0-1.11.14-1.48.43 -.37.28-.56.67-.56 1.16v-.001c-.01.44.18.86.52 1.15 .35.3.78.46 1.3.46 .61 0 1.09-.27 1.46-.81h.03v.65h.84v-2.91c0-.61-.19-1.09-.57-1.44 -.38-.35-.9-.53-1.56-.53Zm2.26.15l1.94 4.42 -1.1 2.38h.91l2.95-6.81h-.97l-1.37 3.39h-.02l-1.41-3.39Zm-2.15 2.36c.49 0 .88.11 1.15.33 0 .37-.15.69-.44.97v0c-.27.26-.63.41-1 .41v0c-.25 0-.5-.08-.69-.24v0c-.19-.14-.3-.35-.3-.58 0-.26.12-.47.36-.65 .24-.18.54-.26.9-.26Z"/></svg>