<svg viewBox="0 0 24 24" xmlns="http://www.w3.org/2000/svg"><path d="M21.26 21.2v-.001c-.01.33-.28.61-.62.61H3.33v0c-.34-.01-.62-.28-.62-.62V8.09v0c0-.34.27-.62.61-.62h17.3v0c.33 0 .61.27.61.61v13.08Zm-3.04-3.42v-1.2 0c0-.05-.04-.09-.09-.09h-5.38v1.36h5.37v0c.04-.01.08-.04.08-.09 -.01-.01-.01-.01-.01-.01l-.01-.01Zm.81-2.59v-1.21 0c0-.05-.04-.09-.08-.09 -.01-.01-.01-.01-.01-.01h-6.2v1.36h6.18v0c.04 0 .07-.04.08-.08 0-.01 0-.01 0-.01v-.01 0Zm-.82-2.59v-1.21 0c0-.05-.04-.09-.09-.09h-5.38v1.36h5.37v0c.04-.01.07-.04.08-.08v0ZM8.12 14.03v1.22h1.77c-.15.74-.81 1.29-1.78 1.29 -1.1-.05-1.95-.96-1.91-2.048 .03-1.04.86-1.87 1.9-1.91v0c.46-.01.91.16 1.25.49l.93-.94v0c-.6-.56-1.38-.87-2.19-.86 -1.81 0-3.27 1.46-3.27 3.26 0 1.8 1.46 3.26 3.26 3.26 1.88 0 3.13-1.33 3.13-3.2v0c-.01-.21-.02-.42-.06-.62l-3.09 0Zm-5.88-6.4v0c0-.34.27-.62.61-.62H15l-1.27-3.5v0c-.11-.31-.44-.49-.75-.39L.32 7.72l0 0c-.31.12-.45.47-.33.77l2.22 6.112V7.59Zh0c0-.34.27-.62.61-.62H15l-1.27-3.5v0c-.11-.31-.44-.49-.75-.39L.32 7.72l0 0c-.31.12-.45.47-.33.77l2.22 6.112V7.59Zm21.31-.32l-8.81-2.37L15.49 7h5.58l-.001-.001c.33 0 .61.27.61.61v8.79l2.24-8.37v0c.09-.32-.08-.65-.4-.74Zm-4.5-1.68V2.75 2.74c-.01-.34-.28-.61-.62-.61H5.47h0c-.34-.01-.62.26-.62.6 -.01 0-.01 0-.01 0v2.83l8.39-3.06v0c.31-.1.64.07.74.38l.54 1.49 4.5 1.2Z"/></svg>