<svg viewBox="0 0 24 24" xmlns="http://www.w3.org/2000/svg"><path d="M5.53 2.13L0 7.75h5.53Zm.39 0v5.62h7.608v3.65l5.47-4.45c-.02-1.22.03-2.25-.03-3.46 -.15-1.09-1.29-1.47-2.24-1.36Zm17.172 2.19c-.81.29-1.36.99-2.05 1.49 -2.51 2.05-4.99 4.12-7.468 6.19 3.02 2.59 6.04 5.18 9.06 7.76 1.218.67 1.42-.82 1.32-1.64v-13 0c-.01-.46-.38-.83-.83-.83 -.02 0-.04 0-.05 0ZM.03 8.15v7.7h5.53v-7.7Zm13.577 8.1H6v5.62c3.864-.01 7.73.01 11.58-.01 1.02-.07 1.61-1.12 1.468-2.07v-2.51l-5.47-4.68v3.65Zm-13.577 0c.02 1.44-.041 2.88.033 4.31 .162.94 1.15 1.43 2.047 1.31h3.46v-5.62Z"/></svg>