<svg viewBox="0 0 24 24" xmlns="http://www.w3.org/2000/svg"><path d="M1.63 1.63c-.91 0-1.64.73-1.64 1.63v17.45c0 .9.73 1.63 1.63 1.63h20.72c.9 0 1.63-.74 1.63-1.64V3.24c0-.91-.74-1.64-1.64-1.64H1.6Zm.54 2.18H21.8v16.36h-2.73v-1.09h-4.92v1.08h-12V3.79Zm9.81 4.36c-.91 0-1.64.73-1.64 1.63 0 .9.73 1.63 1.63 1.63 .9 0 1.63-.74 1.63-1.64 0-.91-.74-1.64-1.64-1.64Zm-4.37 1.91c-.68 0-1.23.54-1.23 1.22 0 .67.55 1.22 1.22 1.22 .67 0 1.22-.55 1.22-1.23 0-.68-.55-1.23-1.23-1.23Zm8.72 0c-.68 0-1.23.54-1.23 1.22 0 .67.54 1.22 1.22 1.22 .67 0 1.22-.55 1.22-1.23 0-.68-.56-1.23-1.23-1.23Zm-4.37 2.45c-1.18 0-2.42.4-3.15 1 -.39-.12-.81-.19-1.22-.19 -1.32 0-2.73.69-2.73 1.55v.89h14.18v-.9c0-.87-1.42-1.56-2.73-1.56 -.42 0-.84.06-1.22.18 -.74-.61-1.97-1.01-3.15-1.01Z"/></svg>