<svg viewBox="0 0 24 24" xmlns="http://www.w3.org/2000/svg"><path d="M11.46.033h-.06L11.39.032C5.03.34.02 5.552-.02 11.912v.05c0 7.475 6.563 11.92 11.447 11.92h.17 -.001c1.7.02 3.1-1.35 3.12-3.05 0-.01 0-.01 0-.01 0-1.7-1.44-2.92-3.16-2.92h-.04v0c-3.27-.28-5.72-3.11-5.51-6.37v-.06H6.01c.24-2.97 2.61-5.31 5.57-5.51 1.71 0 3.125-1.237 3.125-2.917v0c-.01-1.71-1.4-3.08-3.1-3.08 -.02 0-.03 0-.04 0h-.15Zm2.03.02l0 0c1.07.62 1.73 1.77 1.74 3.02v0c-.01 1.3-.76 2.48-1.93 3.04 2.86.6 4.532 3.12 4.68 5.378v7.68 0c.99-1.66 3.13-2.2 4.78-1.21 .5.3.91.72 1.21 1.22v-7.74 0C23.71 5.57 19.28.74 13.46 0Zm7.47 17.932v0c-1.66.01-2.99 1.36-2.98 3.01 .01 1.65 1.36 2.98 3.01 2.97 1.65-.02 2.98-1.37 2.97-3.02 -.02-1.64-1.34-2.97-2.98-2.98Z"/></svg>