<svg viewBox="0 0 24 24" xmlns="http://www.w3.org/2000/svg"><path d="M21.3 13.72v0c-1.08-.66-2.44-.61-3.47.12v0c-.21.14-.47.15-.69.03L14 12.06v0c-.04-.03-.05-.08-.03-.11 0-.02.01-.03.02-.03l3.12-1.8v0c.21-.13.48-.11.68.03v0c1.02.73 2.38.78 3.47.13v0c1.42-.89 1.93-2.73 1.14-4.21V6.06c-.83-1.54-2.75-2.11-4.29-1.28 -1.11.59-1.76 1.79-1.65 3.04v0c.02.24-.1.48-.32.6L13 10.24h0c-.04.02-.09 0-.11-.04 -.01-.02-.01-.03-.01-.04V6.538v0c0-.25.14-.48.37-.58v0c1.58-.73 2.27-2.61 1.54-4.19C14.06.17 12.18-.512 10.6.21c-1.59.72-2.28 2.6-1.55 4.18 .31.68.86 1.23 1.54 1.54v0c.22.1.37.32.37.57v3.622 0c-.01.04-.04.07-.09.07 -.02-.01-.03-.01-.04-.02L7.69 8.37v0c-.22-.13-.34-.36-.32-.61H7.36c.15-1.74-1.14-3.27-2.88-3.42 -1.74-.16-3.27 1.13-3.42 2.87 -.16 1.73 1.13 3.26 2.87 3.41 .75.06 1.49-.15 2.11-.58v0c.2-.15.47-.17.68-.04l3.12 1.8v0c.03.02.04.07.02.1 -.01.01-.02.02-.03.02l-3.14 1.81v0c-.22.12-.49.1-.69-.04H6c-1.03-.73-2.39-.78-3.47-.13l0 0c-1.43.88-1.93 2.71-1.15 4.202v0c.83 1.53 2.74 2.1 4.28 1.27 1.11-.61 1.75-1.81 1.64-3.07v0c-.03-.25.09-.49.31-.61l3.13-1.81h0c.03-.03.08-.01.1.03 0 .01 0 .02.01.03v3.62 0c-.01.24-.15.47-.38.57v0c-1.59.72-2.28 2.6-1.55 4.18 .72 1.58 2.6 2.27 4.18 1.54 1.58-.73 2.27-2.61 1.54-4.19 -.32-.69-.87-1.24-1.55-1.55h-.001c-.23-.11-.38-.33-.38-.58v-3.63h0c0-.05.03-.08.08-.08 .01 0 .02 0 .03 0l3.13 1.81v-.001c.21.12.33.36.31.6h0c-.16 1.73 1.12 3.27 2.85 3.43 1.25.11 2.46-.54 3.06-1.65v0c.78-1.49.28-3.32-1.15-4.21Z"/></svg>