<svg viewBox="0 0 24 24" xmlns="http://www.w3.org/2000/svg"><path d="M23.129 10.86v0c-.55-.56-1.3-.88-2.08-.88 -.57 0-1.15.21-1.46.42 -.66.43-1.186.9-2.15 2.14v.89c.81-1.064 1.59-1.91 2.17-2.37 .38-.31.93-.51 1.42-.51 1.27 0 2.35 1.077 2.35 2.35v.53c0 .63-.25 1.22-.7 1.66v0c-.44.43-1.04.68-1.654.68 -1.05 0-1.97-.72-2.22-1.71l-.43.51c.3 1.03 1.41 1.78 2.64 1.78 .77 0 1.51-.31 2.07-.88 .56-.57.87-1.3.87-2.08v-.54c0-.78-.31-1.52-.88-2.08m-12.8-.28c.4 0 .75.08 1.07.266 .14-.19.29-.34.41-.45 -.34-.26-.91-.42-1.49-.42 -.83 0-1.59.3-2.122.843 -.54.54-.83 1.28-.83 2.1v3.48h.59v-3.49c0-1.39.96-2.36 2.354-2.36m5.67 5.84v-3.49c0-1.08-.84-1.92-1.92-1.92 -.5 0-.98.2-1.343.57v0c-.37.35-.57.83-.57 1.343v.53c0 1.03.87 1.91 1.91 1.91 .28 0 .67-.07.9-.27v-.64c-.24.18-.57.29-.91.29v0c-.72 0-1.31-.57-1.32-1.29 -.01-.01-.01-.02 0-.03v-.54l-.001-.001c-.01-.72.56-1.31 1.28-1.32 0-.01.01-.01.02 0h-.001c.71-.01 1.3.56 1.31 1.28 0 .01 0 .02 0 .03v3.48ZM-.08 12.459v.19c0 1.03.393 2.003 1.107 2.72H1.02c.71.71 1.67 1.11 2.68 1.11 .82 0 1.548-.19 2.162-.56 .5-.31.73-.61.75-.64v-3.22H3.55v.59h2.46v2.43l-.01 0c-.29.28-.98.77-2.32.77v0c-.86 0-1.68-.34-2.28-.94H1.4c-.6-.62-.93-1.44-.92-2.3v-.2c0-.83.375-1.66 1.026-2.269h0c.66-.63 1.53-.97 2.44-.97 .84 0 1.43.12 1.91.41v-.67c-.5-.21-1.085-.31-1.92-.31 -2.21 0-4.07 1.73-4.07 3.795M10.2 11.42c.22 0 .41.03.57.11 .07-.19.15-.34.26-.53 -.17-.12-.55-.19-.84-.19 -1.09 0-1.92.82-1.92 1.91v3.48h.59v-3.49c0-.78.54-1.314 1.31-1.314M5.82 10.7v-.71c-.55-.29-1.14-.42-1.92-.42 -.8 0-1.56.29-2.14.82 -.577.532-.895 1.23-.895 1.97v.19c0 1.54 1.23 2.79 2.758 2.79 1.23 0 1.74-.41 1.874-.54V13H3.47v.59h1.46v.89l-.01 0c-.19.07-.58.23-1.31.23 -.58 0-1.13-.23-1.528-.64v0c-.41-.42-.64-.98-.64-1.57v-.2c0-1.2 1.113-2.2 2.43-2.2 .91 0 1.45.14 1.91.52m14.1 1.12c.27-.27.62-.43.96-.43 .73 0 1.31.577 1.31 1.314v.53c0 .73-.58 1.31-1.32 1.31 -.36 0-.71-.2-.98-.55v0c-.25-.33-.39-.72-.42-1.12l-.49.59c.09.45.33.88.66 1.19 .34.31.77.48 1.2.48H20.8c1.05-.01 1.91-.86 1.91-1.92v-.54c0-.5-.21-.98-.57-1.343v0c-.36-.37-.84-.57-1.343-.57 -.32 0-.82.11-1.42.65l-.01 0c-.16.16-.54.53-.77.8 -.39.42-.95 1.05-1.42 1.68v.93c.52-.68.83-1.06 1.33-1.64 .44-.52.99-1.15 1.3-1.43m-8.939 1.42c0 .77.31 1.51.87 2.08v0c.54.55 1.29.86 2.07.87 .33 0 .66-.07.9-.19v-.6c-.28.11-.62.18-.91.18 -1.28 0-2.36-1.077-2.36-2.36v-.54c0-1.28 1.07-2.36 2.35-2.36l0 0c1.29-.01 2.34 1.03 2.35 2.32 0 0 0 .01 0 .02v3.48h.59v-3.61 0c-.04-.77-.37-1.48-.92-2.01v0c-.55-.54-1.28-.83-2.04-.83 -.78 0-1.516.31-2.08.87v0c-.56.54-.88 1.29-.88 2.07Zm6.91-2.32c.18-.22.37-.45.59-.64V6.97h-.6Zm1.03-.88V6.97h.59v2.5 0c-.22.11-.42.25-.6.41"/></svg>