<svg viewBox="0 0 24 24" xmlns="http://www.w3.org/2000/svg"><path d="M12 0C5.373 0 0 5.373 0 12c0 6.62 5.373 12 12 12 6.62 0 12-5.38 12-12 0-6.63-5.38-12-12-12Zm6.48 13.96c-1.26-.83-1.97-1.53-2.59-2.78 -.43.859-1.43 2.135-3.1 3.13 -.84 2.61-4.83 7.605-6.12 6.88 -.39-.2-.46-.48-.367-.77 .09-.71 1.56-2.34 1.56-2.34s.02.34.49 1.06c-.63-1.936 1.02-4.305 1.45-5.131 .68-.21.734-1.1.734-1.1 .04-1.37-.57-2.34-1.16-2.94 .42.52.55 1.3.57 2.02v.25c-.03.6-.21 1.41-.59 1.41v.01c-.39-.02-.89.07-1.32.21l-.97.23s.51-.02.78.22c-.32.51-1.005 1.125-1.771 1.484 -1.109.52-1.439-.51-.87-1.17 .13-.17.28-.3.4-.41 -.09-.09-.14-.21-.15-.36 -.08-.35-.05-.78.45-1.49 .09-.15.21-.3.34-.45l.01-.02 .01-.02v-.02c.02-.05.07-.08.1-.12 .57-.59 1.48-1.2 2.91-1.74 1.69-2.49 2.3-2.96 2.3-2.96 .18-.18.51-.42.61-.48 -.87-1.52-1.05-3.646-.83-4.215 -.03.03-.05.06-.07.1 .09-.2.13-.26.22-.36 .24-.27 1.03-.42 1.33.18 .15.31.18.73.18 1.03 -.65-.03-1.22.69-1.22.69s.52-.24 1.186-.26c0 0 .17.16.38.44 -.29.556-.78 1.72-.42 2.97 .06.24.15.45.25.62 .01.01.01.01.01.03l.03.02c.58.88 1.64.976 1.64.976 -.5-.24-.92-.65-1.17-1.125 -.14-.26-.23-.48-.28-.65 -.29-1.08.13-1.73.375-2.15 .54-.84 1.54-1.351 2.6-1.23 1.5.16 2.58 1.53 2.39 3.03 -.11.915-.66 1.681-1.41 2.085 .18.49-.02 1.08-.02 1.08 .44.57.47.9.46 1.21 -.59-.09-1.15.3-1.15.3s1.11-.26 1.75.31c.42.44.7.87.86 1.17 .24.43 1.35.46 1.22 1.23 -.14.77-.99.77-2.31-.09l.07-.16Zm-4.83-4.61c-.22-.22-.58-.22-.8 0l-.47.46c-.23.21-.23.57 0 .79l.51.51c.22.22.577.21.79 0l.47-.47c.22-.23.22-.59 0-.8l-.52-.53v.01Zm-2.205-.19c-.14.14-.14.36 0 .51 .14.13.36.13.51 0 .14-.15.14-.38 0-.52 -.15-.15-.37-.15-.51 0Zm1.26-.26c.14-.14.14-.37 0-.51 -.15-.14-.37-.14-.51 0s-.14.37 0 .51 .36.14.51 0Zm5.38-1.31c.59-1.14-.25-1.8-.83-2.34 -.93-.87-1.846-1.245-2.9-.03 -1.06 1.19-.39 2.609.58 3.28 .96.69 2.535.22 3.13-.915l.01-.01Zm-1.6-.47c-.38-.45.32-1.26.75-.77 .8.89-.39 1.21-.76.77Z"/></svg>