<svg viewBox="0 0 24 24" xmlns="http://www.w3.org/2000/svg"><path d="M16.708 9.55h-.84c-.05 0-.08.04-.08.07v1.82h-.84V9.61c0-.05-.05-.08-.08-.08h-.84c-.05 0-.08.04-.08.07v4.69c0 .04.04.07.07.07h.84c.04 0 .07-.05.07-.08V12.4h.84v1.87c0 .04.04.07.07.07h.84c.04 0 .07-.05.07-.08v-4.7c0-.03-.03-.08-.08-.08m-7.08 0h-.84c-.05 0-.08.02-.08.07v3.324l-.001 0c0 .13-.04.27-.12.38 -.08.09-.17.12-.29.12l-.001-.001c-.11 0-.22-.05-.29-.12H7.96c-.09-.12-.13-.25-.12-.39V9.53c0-.05-.05-.08-.08-.08h-.84c-.05 0-.08.02-.08.07v3.34c0 .43.09.84.36 1.1 .26.26.62.4 1.03.4 .43 0 .79-.15 1.03-.41 .26-.27.36-.65.36-1.11V9.49c-.01-.03-.03-.08-.08-.08M1.31 9.33c-.44 0-.8.14-1.036.4 -.27.26-.36.64-.36 1.1v2c0 .43.096.84.36 1.1 .264.26.624.4 1.036.4 .43 0 .79-.15 1.036-.41 .26-.27.36-.65.36-1.11V11.7v0c-.01-.06-.05-.1-.1-.1H1.37v0c-.06 0-.1.04-.1.09v.82c0 .04.04.09.09.09h.31v.19l0 0c0 .14-.04.28-.12.4 -.08.09-.17.12-.29.12v0c-.11 0-.22-.05-.29-.12H.97c-.09-.12-.13-.27-.12-.41V10.8c0-.17.04-.32.12-.41 .07-.1.16-.12.28-.12 .11 0 .21.04.28.12 .07.09.12.24.12.4v.19c0 .04.04.07.07.07h.84c.04 0 .07-.03.07-.08v-.2c0-.44-.1-.84-.36-1.11 -.22-.3-.61-.44-1.012-.44m10.832 3.82c-.08.09-.17.12-.32.12h-.48V12.14h.48c.12 0 .21.04.28.12 .07.1.12.23.12.36 0 .2-.02.31-.1.41Zm-.37-2.77c.12 0 .21.02.28.12 .07.07.09.19.09.34 0 .14-.03.26-.1.36v0c-.07.07-.17.11-.27.12h-.44v-.94h.4Zm.96 1.37c.14-.15.4-.48.4-.92 0-.51-.2-.82-.34-.99 -.27-.29-.63-.44-1.04-.44h-1.32c-.05 0-.08.04-.08.07v4.696c0 .04.04.07.07.07h1.39c.43 0 .84-.17 1.1-.51 .14-.2.31-.51.31-.99 -.03-.58-.39-.92-.54-1.01Zm-7.66-.46c-.08.09-.2.14-.34.14h-.41v-1.06h.4c.14 0 .26.04.34.14 .09.09.12.21.12.38 0 .16-.02.28-.12.38Zm.532.86c.09-.08.16-.12.24-.22 .16-.2.38-.532.38-1.06 0-.51-.2-.84-.39-1.04 -.24-.29-.6-.44-1.02-.46h-1.4c-.05 0-.08.04-.08.07v4.692c0 .04.04.07.07.07h.84c.04 0 .07-.05.07-.08v-1.74h.28l.532 1.78c0 .02.04.04.07.04h.88c.02 0 .04-.03.07-.03 .02 0 .02-.05.02-.08l-.62-2Zm17.13.98c-.08.09-.17.12-.32.12h-.48V12.12h.48c.12 0 .21.04.28.12 .07.1.12.23.12.36 .02.2-.02.31-.1.41Zm-.34-2.77c.12 0 .21.02.28.12 .07.07.09.19.09.34 0 .14-.03.26-.1.36v0c-.07.07-.17.11-.27.12h-.44v-.94h.4Zm.96 1.37c.14-.15.4-.48.4-.92 0-.51-.2-.82-.34-.99 -.27-.29-.63-.44-1.04-.44H21c-.05 0-.08.04-.08.07v4.696c0 .04.04.07.07.07h1.404c.43 0 .84-.17 1.1-.51 .14-.2.31-.51.31-.99v0c-.04-.4-.23-.76-.532-1.01ZM20.08 9.26h-.84c-.05 0-.08.02-.08.07v3.324h0c0 .13-.04.27-.12.38 -.08.09-.17.12-.29.12v-.001c-.11 0-.22-.05-.29-.12v0c-.09-.12-.13-.25-.12-.39V9.32c0-.05-.05-.08-.08-.08h-.85c-.05 0-.08.02-.08.07v3.34c0 .43.09.84.36 1.1 .26.26.62.4 1.03.4 .43 0 .79-.15 1.03-.41 .26-.27.36-.65.36-1.11V9.28c.02-.03-.03-.08-.08-.08"/></svg>