<svg viewBox="0 0 24 24" xmlns="http://www.w3.org/2000/svg"><path d="M7.2 0c-.49 0-.88.1-1.19.3 -.31.2-.46.46-.46.77v21.8c0 .27.15.52.47.76 .31.23.7.35 1.16.35 .44 0 .83-.12 1.16-.36 .33-.24.5-.49.5-.77V1.04c0-.32-.17-.58-.49-.79 -.33-.2-.73-.31-1.19-.31Zm9.52 8.662c-.49 0-.88.09-1.17.3l-4.44 2.78c-.2.18-.29.46-.25.85 .03.38.21.74.52 1.09 .31.34.66.56 1.06.65 .39.08.69.04.89-.15l1.75-1.1v9.78c0 .27.15.52.46.76 .3.23.68.35 1.15.35 .46 0 .86-.12 1.19-.36 .33-.24.5-.49.5-.77V9.68c0-.32-.17-.577-.49-.78 -.33-.21-.73-.31-1.22-.31Z"/></svg>