<svg viewBox="0 0 24 24" xmlns="http://www.w3.org/2000/svg"><path d="M0 4.12c0-.21.021-.41.06-.6l1.956 1.73L4.16 2.87 2.24 1.16c.25-.08.53-.12.81-.12L3.04 1.03c1.67 0 3.04 1.35 3.05 3.03v.02c0 .15-.02.3-.04.45l2.38 2.112h0c-.87.66-1.56 1.54-2.02 2.54L3.93 7H3.93c-.3.09-.62.14-.93.14V7.14C1.31 7.13-.06 5.77-.06 4.08Zm20.94 12.69c-.31 0-.61.04-.88.12l-2.308-2.05v-.001c-.39 1.03-1.01 1.96-1.82 2.7l1.99 1.76h0c-.03.16-.05.33-.05.5h0c0 1.68 1.37 3.05 3.06 3.05 .29-.01.58-.05.87-.13l-2-1.77 2.14-2.37 1.98 1.76c.03-.19.05-.37.05-.56v-.03 0c-.02-1.68-1.38-3.04-3.058-3.04Zm-3.4-7.6l2.47-2.189c.29.09.6.14.92.14v0c1.68-.01 3.05-1.38 3.05-3.07 -.01-.2-.02-.4-.06-.59l-1.96 1.73 -2.15-2.38 1.91-1.71v0c-.27-.08-.54-.12-.82-.12V1.02c-1.68 0-3.05 1.35-3.058 3.037v.02c0 .15.01.3.03.45L15.48 6.639h0c.86.66 1.55 1.54 2.01 2.54ZM6.24 14.88l-2.307 2.04 0-.001c-1.62-.49-3.33.42-3.81 2.04 -.09.27-.13.56-.13.85v.02c0 .19.01.37.05.55l1.98-1.76 2.14 2.36 -2 1.77v0c1.61.48 3.32-.44 3.8-2.06 .08-.29.12-.58.12-.88v-.001c-.01-.17-.02-.34-.05-.51l1.99-1.77H8.02c-.82-.75-1.44-1.68-1.82-2.71Zm8.971 2.657h0c.32.49.19 1.16-.31 1.49 -.5.32-1.17.19-1.5-.31 -.15-.23-.21-.5-.17-.77h-.2 0c.09.58-.32 1.13-.9 1.22 -.59.09-1.14-.32-1.23-.9 -.02-.11-.02-.22 0-.33h-.15 0c.07.6-.35 1.15-.96 1.23 -.05 0-.09 0-.14 0 -.61 0-1.1-.5-1.1-1.12 0-.21.05-.41.15-.58 -1.5-1.15-2.474-3.051-2.474-5.22 0-3.497 2.55-6.34 5.71-6.34 3.154 0 5.71 2.83 5.71 6.33 0 2.173-1 4.09-2.497 5.23Zm-4.2-5.914h0c-.14-.26-.33-.49-.56-.66v0c-.28-.17-.6-.27-.92-.27v0c-.11 0-.22.01-.32.03 -.41.05-.75.32-.99.64 -.21.25-.37.56-.38.9 -.04.27.02.55.07.82 .06.32.29.58.55.77 .11.09.29.22.44.11 .1-.14.01-.33.1-.48v0c.03-.15.12-.26.25-.33 .26-.14.52-.27.8-.36 .22-.07.41-.22.61-.35 .25-.2.42-.56.3-.88Zm.99 2.32c-.28-.01-.63 1.237-.58 1.78 .17.72.23-.51.57-.51 .32.01.27 1.25.53.5 .07-.5-.23-1.77-.53-1.78Zm4.036-.84c.05-.28.1-.55.07-.83 -.01-.34-.17-.65-.38-.91 -.24-.32-.58-.6-.99-.65v0c-.11-.03-.22-.04-.32-.04 -.32-.01-.65.1-.92.26 -.24.17-.42.4-.56.66 -.13.31.04.67.3.87 .19.13.38.28.61.35 .28.09.54.22.8.35v0c.12.06.22.18.25.32 .09.14 0 .34.1.47 .15.11.32-.03.44-.12 .25-.19.48-.46.55-.78Z"/></svg>