<svg viewBox="0 0 24 24" xmlns="http://www.w3.org/2000/svg"><path d="M11.591.007C4.96.233-.22 5.77 0 12.407c.22 6.62 5.77 11.81 12.4 11.58 6.62-.24 11.8-5.79 11.58-12.411C23.74 4.95 18.2-.24 11.57-.01Zm.82 21.9v0c-.29 0-.57 0-.85-.01l-.05-1.48 -4.699-1.83 -.1 1.77 -.001 0c-2.75-1.75-4.47-4.73-4.59-7.98 -.21-5.47 4.04-10.07 9.51-10.28h.01v0c1.93-.08 3.84.42 5.49 1.43L11.961 9.2l7.52-3.686V5.51c.47.54.88 1.15 1.22 1.79l-8.461 2.78 9.39-.33c.13.56.21 1.15.24 1.75l-9.314-.62 9.08 3.218c-.95 4.291-4.68 7.57-9.275 7.75ZM6.68 9.036h.28v2.53h-.24v.88h.4l-.07 1.32 4.19 1.5 -.13-2.84h.41v-.88h-.24v-2.54h.28L9.13 6.176l-2.51 2.82Zm3.83 2.53h-.92V9.94h-.92v1.61h-.92V9.01h2.73v2.53Zm.8 4.53l.03.72 -4.36-1.57 .04-.82 4.27 1.654Zm-4.35-.33l4.41 1.71 .03.72 -4.485-1.62 .04-.83Zm4.48 3.08l.03.71 -4.63-1.66 .04-.83 4.54 1.75Z"/></svg>