<svg viewBox="0 0 24 24" xmlns="http://www.w3.org/2000/svg"><path d="M1.86 0h1.72v3.548h3.86V0h1.73v8.88H7.43V5.13H3.56v3.74H1.82Zm8.24 8.88Zm3.74-8.89h1.7l2.8 4.7h.1l2.8-4.7h1.71v8.88h-1.72V4.49l.1-1.49h-.1l-2.34 3.98h-1.04L15.5 2.99h-.1l.1 1.48v4.38h-1.71Zm4.702 21.648v0c-.4 0-.78-.06-1.154-.17v0c-.37-.11-.71-.27-1.01-.49v0c-.31-.22-.58-.49-.8-.782v0c-.24-.34-.42-.71-.54-1.1l1.66-.62v0c.1.42.33.8.64 1.11v0c.32.29.76.45 1.2.43v0c.17 0 .35-.03.52-.07l0 0c.16-.05.31-.12.45-.2v0c.13-.09.24-.2.32-.34v0c.08-.14.12-.3.11-.46v0c0-.16-.03-.31-.1-.45l-.001 0c-.08-.15-.19-.28-.32-.38v0c-.18-.14-.37-.25-.57-.34v0c-.28-.13-.57-.24-.86-.34l-.58-.2v0c-.27-.09-.53-.21-.78-.34v0c-.26-.14-.49-.32-.7-.51v0c-.22-.21-.39-.44-.53-.7v0c-.14-.29-.21-.61-.2-.92l0 0c-.01-.34.06-.67.21-.968v0c.14-.31.35-.58.61-.8v0c.28-.24.6-.42.95-.54v0c.4-.14.82-.21 1.24-.2H18.3c.41-.01.82.05 1.22.18v-.001c.31.09.61.25.87.45h0c.23.16.42.37.59.6v-.001c.13.19.24.4.32.63l-1.56.62 -.001-.001c-.1-.27-.27-.5-.49-.67v0c-.27-.22-.61-.32-.95-.3v0c-.34-.02-.68.07-.96.26v0c-.24.13-.39.38-.38.65v0c0 .27.14.52.36.68l-.001 0c.35.23.75.41 1.16.53l.59.18v0c.35.11.69.25 1.02.43v0c.29.14.56.33.8.57v-.001c.22.21.39.47.51.76v0c.12.31.19.64.18.98h0c.01.41-.1.83-.3 1.2v0c-.19.32-.45.6-.75.81v0c-.32.21-.67.38-1.04.48v0c-.37.1-.75.15-1.13.16Zm-13.03 0v0c-1.22.01-2.39-.48-3.23-1.34v0c-.41-.43-.74-.93-.96-1.48H1.32c-.23-.59-.35-1.2-.34-1.83v-.001c-.01-.62.11-1.24.33-1.82h0c.21-.55.54-1.06.95-1.48v0c.4-.43.88-.76 1.42-1v0c.56-.25 1.18-.37 1.8-.36H5.48c.61-.01 1.22.11 1.79.36h0c.54.22 1.03.56 1.44.99H8.7c.41.42.73.92.94 1.47v0c.23.57.35 1.19.35 1.811v0c0 .62-.12 1.24-.36 1.82v0c-.22.54-.54 1.04-.95 1.47v0c-.86.86-2.02 1.34-3.23 1.34Zm0-1.59l0 0c.38 0 .76-.08 1.125-.23l0-.001c.34-.15.65-.36.92-.63v0c.27-.28.48-.6.61-.96H8.16c.15-.4.23-.83.23-1.26v0c0-.43-.08-.85-.23-1.24v0c-.14-.37-.35-.7-.62-.968v0c-.27-.27-.58-.48-.92-.62v-.001c-.36-.16-.74-.23-1.125-.23V13.9c-.78-.01-1.52.29-2.06.84l0 0c-.27.27-.48.6-.617.96h0c-.15.39-.23.81-.22 1.24v0c-.01.42.06.85.21 1.25v0c.14.35.35.67.61.95v0c.54.54 1.28.85 2.05.843Zm4.97 1.38Zm-8.269 1.03h6.5v1.51h-6.5Z"/></svg>