<svg viewBox="0 0 24 24" xmlns="http://www.w3.org/2000/svg"><path d="M2.12 0c-.13-.01-.25.03-.34.13C.44 1.71.02 6.01.71 8.16c.22.71.29 1.46.15 2.2 -.14.72-.27 1.61-.27 2.22 -.001 6.29 5.1 11.39 11.389 11.39 6.29 0 11.38-5.11 11.38-11.4 0-.62-.14-1.5-.27-2.23 -.14-.74-.08-1.5.15-2.21 .68-2.151.27-6.45-1.07-8.04 -.18-.21-.51-.18-.65.05l-1.65 2.58 -.001-.001c-.41.51-1.15.63-1.7.27 -1.79-1.18-3.93-1.86-6.23-1.86 -2.3 0-4.44.68-6.223 1.85 -.56.36-1.29.23-1.7-.28L2.36.1V.1c-.07-.11-.19-.18-.32-.19Zm9.87 3.8c1.34 0 2.62.3 3.77.85C18.6 6 20.61 8.83 20.79 12.149c0 .15.01.31.01.47 -.01 4.86-3.96 8.82-8.82 8.82 -4.87 0-8.82-3.96-8.82-8.83 0-.16 0-.32.01-.48 .17-3.32 2.18-6.16 5.03-7.502 1.14-.55 2.42-.85 3.76-.85ZM9.55 8.72l0 0c-.1 0-.18.04-.22.12 -.05.08-.05.17 0 .25l1.84 3.11 -2.49 3.78v0c-.06.07-.06.17-.02.26h0c.04.08.12.13.22.13h1.85v0c.08-.01.16-.05.21-.12l1.34-2.1 1.202 2.08v0c.04.07.12.12.21.12h1.83v0c.09 0 .17-.05.21-.13 .05-.08.05-.18 0-.26l-2.26-3.91 -1.94-3.26v0c-.05-.08-.13-.13-.22-.13Z"/></svg>