<svg viewBox="0 0 24 24" xmlns="http://www.w3.org/2000/svg"><path d="M3.03 2.37v0c-.12-.01-.23 0-.34.02v0c-.09.01-.17.03-.25.06v0c-.07.01-.12.04-.17.08v0c-.06.03-.1.08-.133.14L.627 4.92H.626c-.12.16-.22.34-.31.53v0c-.09.15-.16.32-.2.49 -.06.17-.089.35-.11.54H0c-.03.2-.04.41-.04.62 0 .19.022.35.066.47H.03c.02.1.09.2.18.266H.209c.09.06.2.1.32.12 .133.02.28.03.46.03v0c.18 0 .34-.01.47-.04v0c.11-.02.23-.06.33-.13H1.78c.08-.07.15-.17.18-.27 .04-.12.06-.28.06-.48V5.64l1.447-3.02V2.62c.02-.05.04-.11.04-.16v0c-.01-.05-.04-.09-.07-.12V2.34c-.06-.04-.12-.06-.18-.06V2.28c-.11-.02-.22-.03-.32-.03Zm4.34 5.61l0 0c-.19-.01-.38.01-.56.06v0c-.14.03-.26.1-.35.2v0c-.1.11-.16.24-.19.38v0c-.04.19-.05.39-.05.6 0 .22.01.42.04.58v0c.02.14.09.27.18.38v0c.09.09.21.16.34.2 .14.03.33.05.55.05v0c.18 0 .36-.02.54-.06v0c.13-.04.25-.11.34-.21v0c.09-.11.16-.25.18-.39 .03-.16.05-.35.05-.58v0c0-.21-.02-.41-.06-.6v0c-.02-.15-.09-.28-.19-.39v0c-.1-.11-.22-.18-.35-.21H7.83c-.18-.05-.37-.07-.55-.07Zm4.05 3.69v0c-.13-.01-.25.06-.31.17 -.07.11-.11.31-.11.6s.03.49.1.61c.06.11.17.17.3.17h4.77c.13 0 .22-.06.29-.17 .06-.12.1-.32.1-.62 0-.15-.01-.27-.04-.37v-.001c-.02-.09-.04-.17-.08-.24l-.001 0c-.03-.07-.07-.11-.13-.14v0c-.05-.03-.11-.04-.16-.04Zm7.39 0v0c-.13-.01-.25.06-.31.17 -.07.11-.11.31-.11.6s.03.49.1.61c.06.11.17.17.3.17h4.77c.13 0 .22-.06.29-.17 .07-.12.1-.32.1-.62 0-.15-.02-.27-.04-.37v0c-.02-.09-.04-.17-.08-.24v-.001c-.03-.07-.07-.11-.13-.14v-.001c-.05-.03-.11-.04-.16-.04ZM7.49 15.96c-.19 0-.35.01-.48.03v0c-.12.01-.24.05-.34.12h0c-.09.06-.16.16-.19.26v0c-.05.15-.08.31-.07.47v1.41L4.96 21.26H4.96c-.03.04-.05.1-.05.15 0 .04.03.08.06.11s.09.04.17.05c.08.01.19.02.32.02 .133 0 .242-.01.33-.03v0c.08-.02.16-.04.24-.07H6.03c.06-.02.11-.05.16-.09v0c.05-.04.09-.09.133-.15l1.5-2.26H7.82c.11-.17.21-.35.3-.54 .08-.17.15-.33.19-.5 .05-.17.09-.36.11-.55 .02-.2.03-.4.03-.63v0c0-.17-.02-.33-.07-.48v0c-.03-.11-.1-.21-.19-.27H8.19c-.1-.07-.21-.11-.32-.13v0c-.16-.03-.31-.04-.47-.04Z"/></svg>