<svg viewBox="0 0 24 24" xmlns="http://www.w3.org/2000/svg"><path d="M22.912 5.945v0c-.61-.01-1.09.48-1.09 1.08 -.01.6.48 1.08 1.08 1.09v0c.6 0 1.08-.49 1.09-1.09 0-.61-.49-1.09-1.09-1.09Zm.01.242v0c.46 0 .85.38.85.85 0 .46-.39.85-.85.85v0c-.47 0-.85-.39-.85-.85 0-.47.38-.85.85-.85Zm-.34.375v.952h.18v-.36h.17l.18.35h.2l-.22-.39c.04-.02.19-.07.19-.28 0-.17-.12-.29-.33-.29h-.4Zm.18.15h.16c.12 0 .18.05.18.14 0 .08-.07.14-.16.14h-.2v-.29ZM-.01 7.03v11.01H3.67v-3.78h3.52v3.78h1.42L10.76 7.02H7.2v3.85H3.67V7.01H-.03Zm12.12 0l-2.14 11.01h3.545v-3.86h3.52v3.85h3.69V7.01h-3.69v3.78h-3.53V7.01h-1.42Z"/></svg>