<svg viewBox="0 0 24 24" xmlns="http://www.w3.org/2000/svg"><path d="M20.61 0H3.39C2.18 0 1.23.96 1.23 2.16v19.681c0 1.19.95 2.15 2.16 2.15h17.22c1.2 0 2.15-.97 2.15-2.16V2.15c0-1.2-.96-2.16-2.16-2.16Zm.96 21.841c0 .53-.43.96-.96.96H3.39c-.54 0-.96-.43-.96-.96V2.16c0-.54.42-.97.96-.97h17.22c.53 0 .96.42.96.96V21.83ZM6.63 20.39l2.7-2.4 -2.7-2.4v4.79Zm9.72-9.719c-.48-.48-1.38-1.08-2.88-1.08 -1.63 0-3.301.42-4.5.84V3.59h-2.4v10.38l1.68-.78s2.76-1.26 5.16-1.26c1.2 0 1.5.66 1.5 1.26v7.2h2.4v-7.2c.05-.18.05-1.51-.97-2.52Zm-3.18-3.18h2.4c1.08-1.26 1.62-2.521 1.8-3.9h-2.4c-.25 1.379-.85 2.64-1.81 3.9Z"/></svg>