<svg viewBox="0 0 24 24" xmlns="http://www.w3.org/2000/svg"><path d="M12.527 17.53c-2.08 0-3.77-1.71-3.77-3.8 0-2.096 1.69-3.8 3.76-3.8s3.76 1.7 3.76 3.8c0 2.09-1.69 3.8-3.766 3.8m0-6.41c-1.43 0-2.59 1.17-2.59 2.6 0 1.43 1.15 2.6 2.58 2.6 1.42 0 2.58-1.17 2.58-2.61s-1.16-2.61-2.59-2.61m-10.82-.74V7.04v0c0-.48-.39-.86-.86-.86l-.001 0c-.48 0-.86.38-.86.85 0 0 0 0 0 0v6.632c.002 2.24 1.81 4.06 4.03 4.06C6.2 17.72 8 15.89 8 13.65c0-2.24-1.81-4.07-4.03-4.07v0c-.84-.01-1.65.26-2.33.74Zm2.32 5.65v0C2.7 16 1.66 14.95 1.66 13.66H1.66c-.01-1.29 1.03-2.34 2.32-2.35v0c1.28 0 2.32 1.05 2.32 2.34v0c0 1.28-1.04 2.33-2.33 2.343m16.46-5.86v0c-1.14 0-2.2.55-2.85 1.48V6.63v0c0-.19-.15-.33-.33-.34v0c-.19 0-.33.14-.33.33v7.03c0 1.94 1.57 3.53 3.5 3.53s3.5-1.59 3.5-3.54 -1.58-3.54-3.51-3.54m0 6.4c-1.57 0-2.85-1.29-2.85-2.88 0-1.59 1.27-2.872 2.84-2.872 1.57 0 2.84 1.28 2.84 2.872 0 1.58-1.28 2.87-2.85 2.87"/></svg>