<svg viewBox="0 0 24 24" xmlns="http://www.w3.org/2000/svg"><path d="M16.123 14.23c0-1.55-1.06-2.79-2.98-3.39V7.33h3.57v8.59H15.6v-.001c.33-.51.51-1.1.5-1.71M11.17 3.683c-6.45 0-11.2 4.1-11.2 8.47 0 2.25 1.267 4.16 2.88 5.481l.11-.1H2.96c-1.52-1.2-2.41-3.02-2.42-4.95 .34-4.8 6.242-7.49 11.51-7.49 3.7 0 10.38.85 10.38 7.072 0 3.247-3.46 7.462-10.74 7.462 -3.731 0-6.61-2.01-6.61-4.86 0-2.487 1.93-4.26 4.836-4.26v0c.71.01 1.43.13 2.12.34 -1.2-.21-3.09.09-4.055.85v4.192h3.57v-4.743 -.001c.55.09 1.07.29 1.54.6v4.192h.92v0c-.85.87-2.07 1.29-3.27 1.12v.18c3.385.27 4.81-1.34 4.81-3.16 0-2.12-2.01-3.362-4.03-3.64V7.27H7.95v3.17c-2.31.46-4.561 1.84-4.561 4.1 0 3.5 4.88 5.66 9.12 5.66 6.452 0 11.42-3.11 11.42-7.51 .02-5.299-7.163-9.076-12.81-9.076Z"/></svg>