<svg viewBox="0 0 24 24" xmlns="http://www.w3.org/2000/svg"><path d="M12 0C5.373 0 0 5.373 0 12c0 6.62 5.373 12 12 12 6.62 0 12-5.38 12-12 0-6.63-5.38-12-12-12Zm8.116 12.262v0c-.41 0-.75-.34-.75-.74 -.01-.01-.01-.01-.01-.01 0-.01 0-.02 0-.03l-1.46-1.46v0c-.25-.25-.38-.58-.38-.92V5.71v0c-.01-.16-.13-.29-.29-.29h-.92v0c-.16-.01-.29.12-.29.28v2.41L12.12 4.35l0 0c-.12-.11-.3-.11-.4 0L4.38 11.68v0c-.12.11-.12.28 0 .4l.69.69v0c.11.1.28.1.4 0L11.11 7.22V7.22c.5-.5 1.32-.5 1.83 0l5.525 5.525v0c.5.5.5 1.32 0 1.83l-.68.68v-.001c-.51.49-1.32.5-1.83.01L12.07 11.5h-.001c-.12-.11-.3-.11-.4 0l-3.73 3.74v0c-.11.11-.11.28 0 .4l.68.69v0c.11.11.28.11.4 0l2.013-1.99v0c.5-.5 1.31-.5 1.82 0l1.99 1.96 0 0v0c.5.5.5 1.32 0 1.83l-1.99 1.98v.01 0c-.01.4-.34.73-.75.73 -.41-.01-.74-.34-.74-.75s.33-.74.73-.74c0 0 .01 0 .02 0l1.97-1.98v0c.05-.06.08-.13.08-.21v0c-.01-.08-.04-.15-.09-.2l-2-1.96v0c-.12-.11-.29-.11-.4 0l-2.01 1.98h0c-.51.5-1.33.49-1.83-.01l-.69-.69H7.14c-.51-.51-.51-1.33 0-1.84l3.72-3.74h-.001c.5-.51 1.31-.51 1.82-.02l3.87 3.75v-.001c.11.1.28.1.4 0l.67-.68v0c.1-.12.1-.29 0-.4l-5.53-5.53v0c-.12-.11-.29-.11-.4-.001L6.05 13.37h0c-.51.49-1.33.49-1.83-.01l-.698-.7 -.01-.01v0c-.51-.51-.51-1.33 0-1.84 0-.01 0-.01 0-.01L10.85 3.47v0c.5-.5 1.31-.51 1.82-.02l2.16 2.097v-.02 0c0-.72.58-1.3 1.29-1.298h.91v0c.71 0 1.29.58 1.29 1.298v3.38 -.001c-.01.07.02.14.08.2l1.46 1.46h.01v0c.4-.01.74.33.74.73 0 .4-.34.74-.74.74Z"/></svg>