<svg viewBox="0 0 24 24" xmlns="http://www.w3.org/2000/svg"><path d="M20.383 10.561v0c0 .01 0 .03 0 .05l-.01.04c-.09 2.33-.06 11.35-.06 11.82 0 1.07-.83 1.94-1.596 1.28l-6.98-5.53 -.001 0c-1.57 1.65-3.15 3.29-4.75 4.92 -.98.94-1.79-1.33-1.045-1.81 .06-.05 2.223-1.95 4.61-4.05l-5.17-4.1c-.45-.36-.62-.95-.37-1.27v0c.08-.09.2-.13.32-.13l0 0c.05 0 .11.01.16.03 1.596.72 3.96 2.49 6.31 4.32 2.45-2.15 4.805-4.2 5.116-4.37 .38-.22.48.35.35.516 -.14.16-2.17 2.32-4.41 4.67 2.2 1.73 4.29 3.38 5.61 4.13l.21-10.62c-.17-.21-5.34-7.163-5.9-7.75 -.9.78-5.57 6.11-5.81 6.342 1.06.11 5.597.38 8.45.68 .72.07 1.2.6-.35.59l-11.105-.02v0c-.18-.01-.33-.11-.4-.27h0c-.07-.16-.03-.34.09-.46C3.7 9.5 11.68.64 12.36.08l0 0c.13-.13.3-.19.48-.19h-.001c.18.01.35.09.48.22 .08.07 4.29 5.94 6.34 8.8 .49.67.61 1.13.62 1.5Z"/></svg>