<svg viewBox="0 0 24 24" xmlns="http://www.w3.org/2000/svg"><path d="M23.9 6.87c-.33-3.218-2.47-3.9-4.36-4.204 -.95-.16-2.63-.3-3.72-.34 -.95-.06-3.17-.09-3.84-.09 -.657 0-2.89.03-3.84.09 -1.08.04-2.77.18-3.72.34C2.53 2.97.39 3.65.06 6.87c-.08.87-.1 2.02-.09 3.248 .03 2.03.2 3.4.3 4.36 .07.657.33 2.62.68 3.63 .478 1.39.91 1.8 1.42 2.22 .93.75 2.47.99 2.79 1.05 1.73.31 5.24.36 6.78.36s5.05-.05 6.78-.37c.32-.06 1.86-.29 2.79-1.06 .5-.42.94-.83 1.42-2.23 .35-1.02.62-2.98.69-3.64 .1-.96.27-2.34.29-4.37 .04-1.23.01-2.38-.08-3.248m-1.18 5.4c-.19 2.57-.42 4.1-.75 5.22 -.29.97-.64 1.62-1.17 2.09 -.87.78-2.07.95-2.76 1.05 -1.52.23-4.055.3-6.06.3 -2.01 0-4.55-.08-6.06-.3 -.7-.1-1.9-.27-2.76-1.06 -.52-.47-.88-1.13-1.16-2.093 -.33-1.11-.56-2.65-.75-5.22 -.11-1.55-.09-4.06.08-5.4C1.51 4.78 2.51 3.78 4.64 3.4c.99-.18 2.34-.31 3.6-.37 1.016-.07 2.7-.1 3.63-.09 .93-.01 2.62.03 3.63.09 1.27.06 2.61.19 3.606.37 2.14.37 3.13 1.395 3.38 3.397 .19 1.34.22 3.85.11 5.4m-5.21-8.39c-.55 2.46-.77 3.588-1.22 5.37 -.43 1.71-.77 3.298-1.34 4.06 -.59.77-1.37.94-1.9 1 -.28.03-.48.04-1.07.05 -.6 0-.8-.02-1.08-.05 -.53-.06-1.32-.23-1.9-1.01 -.58-.77-.907-2.35-1.34-4.07 -.47-1.78-.68-2.91-1.24-5.37 0 0-.548.02-.8.04 -.33.02-.59.05-.867.09 .34 5.372.69 11.079 1.12 16.13h0c.79.09 1.59.15 2.39.16 .33-1.27.74-3.02 1.2-3.77 .37-.61.96-.68 1.295-.72 .51-.07.95-.08 1.16-.08 .2-.01.63 0 1.16.08 .33.05.91.11 1.295.71 .47.74.87 2.5 1.2 3.76 0 0 .35-.01 1.16-.05 .41-.02.82-.06 1.22-.12 .45-5.39.78-10.73 1.12-16.128 -.28-.04-.54-.07-.87-.09 -.23-.02-.79-.04-.79-.04Z"/></svg>