<svg viewBox="0 0 24 24" xmlns="http://www.w3.org/2000/svg"><path d="M12.002 0h.02c1.311.004 2.6.322 3.766.928 1.15-.6 2.439-.906 3.74-.906h.67V24l-.66-.01c-4.19 0-8.2-1.67-11.152-4.625 -2.97-2.95-4.63-6.96-4.609-11.15V0h.67C5.74 0 7.02.31 8.18.9 9.35.29 10.65-.03 11.977-.03Zm0 .654c-1.39 0-2.676.37-3.8 1.021C7.06 1.02 5.77.67 4.46.67h-.03v7.55c-.03 8.35 6.76 15.09 15.107 15.11V.66h-.03c-1.32-.01-2.61.34-3.75.99C14.6.98 13.3.63 11.99.63h-.03Zm3.25 2.754c1.79 0 3.23 1.45 3.23 3.24 -.01 1.79-1.46 3.23-3.25 3.23 -.62 0-1.22-.18-1.74-.51l-1.516 1.5 -1.51-1.516c-1.52.952-3.52.49-4.465-1.02C5.04 6.81 5.5 4.81 7.02 3.86c1.51-.96 3.51-.5 4.467 1.02 .27.43.44.93.48 1.44l.01-.02 .01.01c.15-1.67 1.55-2.945 3.23-2.941Zm-6.5 5.381c1.19 0 2.16-.96 2.16-2.15 0-.22-.04-.44-.1-.65 -.25.54-.89.78-1.43.54 -.55-.25-.79-.883-.55-1.428 .1-.25.3-.44.548-.55 -1.14-.36-2.35.27-2.705 1.41 -.07.2-.1.42-.1.64 -.01 1.19.96 2.16 2.15 2.167h0Zm6.478.01c1.19 0 2.16-.97 2.16-2.16 0-1.2-.97-2.162-2.16-2.17 -.22-.01-.44.03-.64.09 .54.24.78.883.54 1.428 -.25.54-.89.78-1.43.54 -.25-.11-.44-.31-.55-.56 -.36 1.13.27 2.35 1.41 2.707 .2.06.42.09.64.09Z"/></svg>