<svg viewBox="0 0 24 24" xmlns="http://www.w3.org/2000/svg"><path d="M17.11 5.505v0c-.22-2.17-1.87-3.92-4.02-4.254C10.9.9 8.834 2.1 7.96 4.03 3.466 3.75.17 4.28-.01 5.501c-.17 1.04 1.992 2.32 5.383 3.36l0 0c-.09-.04-5.06 13.93-5.06 13.93h18.8s-1.15-11.97-1.32-11.97c3.53.05 6-.5 6.17-1.54 .17-1.19-2.67-2.69-6.88-3.8Zm-.375 1.35c-.04.274-.31.47-.59.42 -.28-.06-.48-.31-.43-.59 .05-.28.3-.48.58-.43 .27.05.47.3.42.58Zm-5.17-1.17v0c.05-.37.39-.63.75-.57 0 0 .01 0 .02 0v0c.36.05.62.39.56.75 -.01 0-.01.01-.01.02l-.001-.001c-.08.36-.42.6-.79.56V6.44c-.37-.06-.63-.4-.57-.76 0-.01 0-.02 0-.03Zm-3.949-.28c.05-.274.3-.48.58-.43 .27.05.47.3.42.58 -.04.27-.31.46-.59.42 -.28-.06-.48-.31-.43-.59Zm9.52 5.41c-.12.68-2.71.87-5.78.37 -3.077-.5-5.47-1.46-5.37-2.16 .06-.38.85-.6 2.05-.65 -.36.06-.58.2-.62.37 -.09.51 1.74 1.24 4.06 1.62 2.34.359 4.29.24 4.375-.3 .01-.17-.16-.375-.48-.57 1.13.42 1.81.87 1.74 1.282Z"/></svg>