<svg viewBox="0 0 24 24" xmlns="http://www.w3.org/2000/svg"><path d="M14.7 15.957h1.91v-7.92h-1.92Zm-3.36-2.26v0c-.01.28-.24.5-.52.51H9.7v0c-.29-.01-.51-.23-.52-.52v-3.19H7.26v3.34c0 1.36.87 2.09 2.168 2.09h1.86c1.189 0 1.91-.86 1.91-2.09v-3.35h-1.92c.01 0 .01 3.09.01 3.19Zm10.75-3.19v3.19 0c-.01.28-.24.5-.52.51h-1.12v0c-.29-.01-.51-.24-.52-.52v-3.19h-1.92v3.34c0 1.36.87 2.09 2.16 2.09h1.86c1.19 0 1.91-.86 1.91-2.09v-3.35Zm-18.32 0H2.54c-.44 0-.645.11-.645.11v-2.58H-.02v7.9h1.9v-3.18c0-.28.23-.52.512-.52H3.5c.278 0 .51.23.51.51v3.19H5.92v-3.45c0-1.45-.97-2-2.17-2Z"/></svg>