<svg viewBox="0 0 24 24" xmlns="http://www.w3.org/2000/svg"><path d="M2.868.21C1.27.21 0 1.47 0 3.02v17.936c0 1.55 1.284 2.817 2.868 2.817H21.13c1.58 0 2.86-1.27 2.86-2.817V3.02C23.99 1.46 22.7.2 21.12.2Zm9.033 1.82c6.14 0 9.46 2.23 9.74 4.487 .04.33.01 1.01.01 1.01v10.58s-.03.61-.33 1.11c-1.07 1.8-4.11 2.67-9.434 2.67 -5.33 0-8.367-.87-9.434-2.68 -.3-.5-.33-1.12-.33-1.12s0-10.679-.01-10.813V6.74c0-.1 0-.18.01-.26 .28-2.26 3.6-4.488 9.74-4.488Zm-.13.53c-5.685 0-8.72 1.97-9.08 3.95 -.09.45.19.61.48.61H20.37c.28 0 .56-.16.48-.62 -.37-1.99-3.4-3.953-9.08-3.953ZM6.69 8.19c-.19 0-.47.09-.47.32v1.91c0 .52.65.89 1.23.89 .57 0 1.23-.37 1.23-.9V8.49c0-.23-.28-.33-.47-.33 -.2 0-.48.09-.48.32v1.73c0 .12-.16.2-.3.2 -.14 0-.29-.08-.29-.2V8.48c0-.23-.28-.33-.48-.33Zm2.75 0c-.2 0-.49.13-.49.38v2.53c0 .24.28.36.48.36 .19 0 .48-.15.48-.37v-.95c0-.07.09-.06.13 0 0 0 .61.78.81 1.04 .2.25.31.26.484.26 .19 0 .48-.12.48-.36V8.54c0-.25-.29-.38-.49-.38s-.49.13-.49.38v.93c0 .07-.09.05-.15-.02l-.766-1c-.12-.16-.27-.3-.52-.3Zm4.32 0c-.98 0-1.66.66-1.66 1.62 0 1.13.72 1.64 1.64 1.64 .71 0 1.36-.28 1.36-.79v-.89c0-.24-.16-.33-.4-.33h-.69c-.35 0-.43.22-.43.4 0 .17.06.41.41.41 .09 0 .12 0 .12.07 .01.16-.1.266-.42.266 -.4 0-.62-.36-.62-.79 0-.43.18-.82.69-.82 .18 0 .27 0 .58.14 .3.13.47-.03.55-.13 .07-.11.15-.34-.04-.51 -.27-.23-.65-.34-1.15-.34Zm-10.08.13c-.2 0-.48.11-.48.34v2.44c0 .23.28.34.476.34 .19 0 .47-.12.47-.35v-.72c0-.08.05-.1.11-.1h.47c.06 0 .11.02.11.09v.71c0 .23.28.34.47.34 .19 0 .476-.12.476-.35V8.61c0-.24-.29-.35-.476-.35 -.2 0-.476.11-.476.34v.65c0 .07-.05.1-.11.1h-.49c-.06 0-.11-.03-.11-.1v-.66c0-.24-.29-.35-.476-.35Zm12.185 0c-.23 0-.48.12-.48.34v2.465c0 .22.28.32.47.32 .19 0 .47-.1.47-.33v-.64c0-.06.05-.08.09-.04l.67.86c.13.17.48.16.64.06 .18-.12.31-.36.17-.54l-.53-.68c-.03-.03-.03-.06.01-.09 .33-.23.41-.55.41-.84 0-.32-.28-.93-1.08-.93Zm4.29 0c-.18-.01-.39.05-.47.2l-.36.56c-.03.05-.07.04-.09 0l-.36-.57c-.11-.2-.45-.24-.62-.17 -.24.08-.35.33-.24.53l.7 1.154c.05.09.07.14.07.23v.83c0 .23.28.34.48.34 .19 0 .48-.12.48-.35v-.84c0-.1 0-.14.07-.24l.7-1.157c.1-.2-.02-.45-.24-.54V8.29c-.05-.02-.11-.03-.16-.04Zm-3.64.54c.3 0 .37.13.37.34 0 .21-.17.33-.36.33 -.13 0-.2 0-.2-.06v-.56c.03-.05.06-.07.17-.07ZM5.151 12.13c-.27 0-.65.16-.65.51v2.599c.02.41-.25.52-.35.21 -.15-.37-.53-.29-.67-.22 -.15.07-.351.26-.27.61 .15.54.54.907 1.29.91 1 0 1.28-.625 1.28-1.3l0-.07v-2.76c0-.35-.39-.51-.65-.51Zm2.63 0c-.25 0-.66.11-.75.45l-1.08 3.49c-.11.33.18.62.44.67 .23.04.633-.14.702-.44l.06-.21c.01-.07.04-.08.1-.08h1.03c.07 0 .08.03.09.08l.06.2c.07.3.47.47.702.43 .25-.05.55-.34.44-.68l-1.08-3.5c-.1-.35-.51-.45-.75-.46Zm3.833 0c-1.26 0-2.122.94-2.122 2.31s.87 2.32 2.122 2.32c.54 0 .89-.16 1.14-.41 .24-.25.14-.55.04-.7 -.1-.15-.31-.37-.71-.18 -.23.1-.25.12-.43.12 -.67 0-.9-.548-.9-1.16h-.01c0-.62.23-1.18.89-1.18 .18 0 .22.03.42.12 .39.18.6-.04.7-.18 .09-.15.2-.45-.05-.69 -.28-.29-.62-.41-1.15-.41Zm2.34 0c-.26 0-.64.16-.64.51v3.61c0 .34.37.51.63.51 .25 0 .63-.17.63-.52v-1l-.01.01c0-.22.12-.1.12-.1l1.173 1.42s.28.375.77-.06c.49-.44.01-.9.01-.9s-.73-.85-.89-1.064c-.15-.2.04-.39.04-.39l.9-1.12c.22-.28.16-.55-.09-.77 -.29-.25-.64-.24-.875.06l-1.06 1.27c-.05.06-.12.06-.13-.05v0l-.01-.02 0 .01v-.98c0-.35-.38-.52-.64-.52Zm3.25 0c-.19 0-.33.13-.33.31 0 .21.13.27.17.28 .04.01.03.04.02.06v0c-.03.06-.07.12-.12.17 -.14.08-.01.266.11.25 .12-.01.64-.46.44-.9h0c-.06-.13-.18-.21-.31-.2Zm1.97 0c-1 0-1.61.67-1.61 1.68 -.01.61.52 1.01 1.05 1.12l.27.05c.12.02.29.09.29.28 0 .19-.11.37-.34.37 -.16 0-.2.04-.53-.13 -.37-.19-.58.03-.67.17 -.1.14-.19.43.04.67 .3.28.66.39 1.26.39 1.1 0 1.6-.67 1.6-1.6 -.01-.72-.51-1.14-1.08-1.28l-.31-.08c-.11-.03-.28-.11-.28-.27 0-.18.1-.32.3-.32 .12 0 .17-.02.44.12 .36.19.57-.04.66-.18 .09-.15.19-.43-.05-.66 -.31-.31-.57-.4-1.11-.4ZM7.68 14.17c.02-.01.05.02.06.07l.2.66c.02.06-.01.07-.08.07h-.42c-.04 0-.07-.03-.05-.08l.2-.67c.01-.05.03-.08.06-.08Zm-4.56 3.66c-.29 0-.57.11-.48.47 .516 1.98 3.395 3.01 9.08 3.01 5.68 0 8.56-1.04 9.08-3.02 .08-.37-.2-.48-.48-.48h-8.6Zm17.161 2.68c.28 0 .53.22.53.53v0c0 .29-.24.53-.53.53 -.01 0-.01 0-.02 0v0c-.3 0-.54-.24-.54-.53 -.01-.01-.01-.01 0-.02 0-.31.24-.54.53-.54Zm0 .09v0c-.24 0-.44.19-.44.43 0 0 0 0 0 .01 0 .25.18.45.43.45 .23 0 .42-.2.42-.45v-.001c0-.24-.18-.44-.42-.45 -.01-.01-.01-.01-.02-.01Zm-.21.12h.23c.14 0 .21.05.21.17 0 .11-.07.15-.16.17l.17.27h-.11l-.16-.27h-.11v.26h-.1Zm.09.08v.19h.11c.07 0 .14-.01.14-.11 0-.08-.07-.09-.14-.09Z"/></svg>