<svg viewBox="0 0 24 24" xmlns="http://www.w3.org/2000/svg"><path d="M12.001 14.457c2.04 0 1.99 0 1.99.64v4.05h2.77V7.91h-2.78v3.37c0 .66.04.66-2 .66h0c-2.04 0-2 0-2-.67V7.9H7.2V19.13h2.77v-4.06c0-.65-.05-.65 1.99-.65M11.951-.04c1.04 0 1.72.18 2 .24 -.15 1.307-.1 2.35 0 2.657 .34 1 2.32 1.475 3.115 1.012 .87-.53.67-2.109.67-3.155 0 0 1.29.3 2.08.59 .64.238 1.59.7 1.59.7 .18 1.323.01 3.281-1.32 3.945 1 .98 1.33 2.15 1.76 4.3 .34 1.93.26 3.28.24 4.4 -.11 1.53-.11 2.35-.47 3.74 -.53 1.58-.85 2.33-1.92 3.43 -2.18 2.24-5.74 2.11-7.78 2.11 -2.045 0-5.6.13-7.78-2.11 -1.08-1.11-1.39-1.85-1.92-3.439 -.367-1.39-.367-2.22-.47-3.75 -.02-1.13-.11-2.48.24-4.41 .42-2.16.76-3.32 1.763-4.31C2.42 5.24 2.24 3.29 2.42 1.97s.95-.47 1.59-.71C4.8.96 6.09.67 6.09.67c0 1.04-.21 2.63.67 3.155 .79.46 2.76-.01 3.11-1.012 .1-.31.14-1.35 0-2.657 .28-.06.96-.25 2-.25m-.01 21.125c2.38 0 3.14 0 4.33-.33 .4-.14 1.14-.35 1.67-1.17 .97-1.65.97-4.747.97-6.24 0-1.49 0-4.125-.98-5.754 -.53-.85-1.26-1.08-1.68-1.19 -1.21-.32-1.99-.3-4.34-.31h0c-2.35 0-3.13-.02-4.34.3 -.42.11-1.15.34-1.68 1.18 -.98 1.63-.98 4.26-.98 5.754 0 1.48 0 4.58.98 6.23 .53.82 1.26 1.02 1.673 1.16 1.18.32 1.94.32 4.33.32Z"/></svg>