<svg viewBox="0 0 24 24" xmlns="http://www.w3.org/2000/svg"><path d="M14.93 2.48v4.51L20 20.02s1.54 3.18-2.89 3.95H6.99c-.001 0-4.14-.44-3.15-3.71l5.33-13.3V2.44h5.72Zm2.08 13.1c-4.44-1.38-8.16-.64-9.98-.08l-1.84 4.41c-.79 2.49 2.27 2.94 2.59 2.98l.02 0h8.44c3.54-.6 2.51-2.98 2.41-3.18l-.01-.02 -1.67-4.14Zm-7.82.77c.78 0 1.42.38 1.42.86 0 .47-.65.86-1.43.86 -.79 0-1.43-.39-1.43-.87s.63-.87 1.42-.87Zm5.08 0c.78 0 1.42.38 1.42.86 0 .47-.65.86-1.43.86 -.8 0-1.43-.39-1.43-.87s.63-.87 1.42-.87Zm-4.51-5.22c-.56 0-1 .53-1 1.2 0 .66.44 1.2.99 1.2s.99-.54.99-1.21c0-.67-.45-1.21-1-1.21Zm3.64-1.3c-.66 0-1.19.63-1.19 1.42 0 .78.53 1.42 1.18 1.42 .65 0 1.18-.64 1.18-1.43 0-.8-.54-1.43-1.19-1.43Zm6.03-2.74s-2.13 1.54-4.09-.42V4.52s2.72-.61 4.08 2.56Zm-14.85 0c1.36-3.17 4.08-2.57 4.08-2.57v2.14c-1.97 1.96-4.09.41-4.09.41ZM14.99-.04c.49 0 .89.43.89.98 0 .54-.41.98-.9.98H8.89c-.5 0-.9-.44-.9-.99s.4-.99.89-.99h6.08Z"/></svg>