<svg viewBox="0 0 24 24" xmlns="http://www.w3.org/2000/svg"><path d="M14.834 20.264c-2.54 0-5.224-1.26-7.136-3.01 .98-4.477 4.969-9.45 7.52-9.45 .28 0 .53.06.86.25 .5.32.96.68 1.34 1.07 1.16 1.157 2.26 3.11 2.26 5.51 0 1.87-.64 3.33-1.31 4.241 -.74.98-2.12 1.36-3.56 1.36m-2.97 2.03c-1.65 0-3.016-.57-3.612-.87 -.8-.42-1.01-1.18-1.01-2.13 0-.28.01-.57.05-.86 2.01 1.62 4.69 2.76 7.37 2.76 .59 0 1.13-.1 1.62-.23l0 0c-.9.625-2.5 1.311-4.44 1.311M12.4 5.94l0-.001c-.84.01-1.66.14-2.46.4 -.06.01-.12.04-.12.1 0 .05.04.08.08.08 .03 0 .16-.04.24-.05l-.001-.001c.48-.09.96-.13 1.455-.12 .78 0 1.59.16 2.375.43 -3.099 1.17-6.16 5.54-7.211 9.45 -1.125-1.28-1.84-2.73-1.84-4.109 0-2.28 1.846-3.67 4.524-3.67 .1 0 .15 0 .19-.02v0c.03-.01.06-.05.06-.09 0-.05-.04-.08-.1-.09v0c-.34-.06-.69-.08-1.03-.08 -2.66 0-4.593 1.39-4.593 3.936 0 1.72.98 3.6 2.52 5.18v0c-.1.52-.15 1.05-.16 1.58 0 .19.02.61.08 1.04 -.92-.83-1.633-1.83-2.02-2.88 -.08-.21-.22-.59-.258-.75 -.02-.08-.05-.11-.11-.11 -.05 0-.09.03-.09.09s.02.24.03.29c.52 2.89 3.33 6.51 7.909 6.51 5.07 0 8.58-4.28 8.58-8.72 0-4.6-3.45-8.49-8.15-8.49m9.07 3.78L23.6 8.3v0c.22-.14.29-.43.17-.65v0c-.13-.23-.41-.31-.63-.18 -.01 0-.01 0-.01 0l-.01 0 -2.24 1.31h-.001c-.23.13-.3.42-.18.64H20.7c.08.14.23.23.4.23v0c.08-.01.16-.03.23-.07m-3.89-4.25L18.75 3.1V3.1c.12-.23.05-.51-.17-.64l-.01-.01V2.45c-.23-.13-.52-.06-.65.17L16.6 4.85V4.84c-.13.22-.06.5.16.63l0 0V5.47c.22.12.51.05.64-.18m-5.19-1.61V1.01c0-.27-.21-.48-.46-.48s-.46.21-.46.48V3.67c0 .266.2.48.45.48s.45-.22.45-.48M6.51 5.44v0c.22-.13.3-.41.17-.63 -.01-.01-.01-.01-.01-.01l-.01-.01L5.34 2.56v0c-.14-.23-.43-.3-.65-.18v0c-.23.12-.31.4-.18.62l0 0 1.31 2.23H5.82c.13.22.42.3.64.17M2.38 9.53h0c-.09 0-.17-.03-.24-.07L-.1 8.14h0c-.23-.14-.3-.43-.18-.65H-.28c.12-.23.4-.31.62-.18l0 0L2.57 8.62h0c.22.13.29.42.17.64h0c-.09.14-.24.23-.41.23"/></svg>