<svg viewBox="0 0 24 24" xmlns="http://www.w3.org/2000/svg"><path d="M5.15 5.875c-.492 0-.94-.46-.94-.96 0-1.16 2.85-2.01 6.11-2.01 .29 0 .49 0 .49-.25 0-.46-.99-.61-.99-1.355 0-.81.93-1.31 2.11-1.31 1.18 0 2.12.502 2.12 1.306 0 .75-.99.85-.99 1.355 0 .15.14.25.49.25 3.25 0 6.16.8 6.16 2v0c0 .52-.42.94-.94.95 -.01 0-.01 0-.01 0H5.11Zm14.732 4.568c1.18.75 1.62 2.109 1.43 3.365l-1.38 7.58c-.3 1.5-1.58 2.61-3.11 2.61H7.16c-1.53 0-2.81-1.11-3.11-2.62l-1.38-7.59h-.001c-.22-1.31.37-2.61 1.48-3.32 .69-.51.83-1.36 0-1.66 -1.19-.46-.94-1.91.24-1.91h7.19c1.13 0 2.51.85 2.51 3.615 0 2.76-1.282 2.51-1.282 4.468 0 .85.69 1.75 1.52 1.859 1.43.15 2.26-.41 2.26-2.41 0-2.06-1.19-3.013-1.19-4.72 0-2.06 1.28-2.87 2.11-2.87h2.07c1.18 0 1.43 1.45.24 1.9 -.84.35-.69 1.205 0 1.65Z"/></svg>