<svg viewBox="0 0 24 24" xmlns="http://www.w3.org/2000/svg"><path d="M1.92 23.93c-.94-.18-1.71-.95-1.89-1.89 -.32-1.69 1.13-3.15 2.82-2.83 .93.17 1.7.94 1.88 1.88 .31 1.68-1.14 3.14-2.83 2.82Zm19.2-19.17c-.94-.18-1.71-.95-1.89-1.89 -.32-1.69 1.13-3.15 2.82-2.83 .93.17 1.7.94 1.88 1.88 .31 1.68-1.14 3.14-2.83 2.82ZM12 6c1.14 0 2.21.32 3.13.88l2.58-2.59c-1.6-1.19-3.58-1.9-5.72-1.9 -5.3 0-9.59 4.29-9.59 9.58 0 2.14.7 4.11 1.89 5.71l2.58-2.59c-.56-.92-.89-1.99-.89-3.14 0-3.31 2.68-5.99 5.98-5.99Zm5.1 2.85c.55.91.88 1.98.88 3.13 0 3.3-2.69 5.98-5.99 5.98 -1.15 0-2.22-.33-3.14-.89l-2.59 2.58c1.59 1.18 3.57 1.89 5.71 1.89 5.29 0 9.58-4.3 9.58-9.59 0-2.15-.71-4.12-1.9-5.72Z"/></svg>