<svg viewBox="0 0 24 24" xmlns="http://www.w3.org/2000/svg"><path d="M8.42 1.67c-4.65 0-7.19 4.149-7.19 6.99 0 2.29 2.2 3.29 4.25 3.29l-.01-.01c4.244 0 7.18-3.86 7.18-6.998 0-2.29-2.18-3.293-4.244-3.293Zm11.32 0c-4.65 0-7.19 4.149-7.19 6.99 0 2.29 2.2 3.29 4.25 3.29l-.01-.01c4.24-.01 7.18-3.86 7.18-6.998 0-2.29-2.18-3.293-4.244-3.293ZM14.15 14.52l2.43 1.83c-2.17 2.07-6.13 3.52-9.36 3.17H7.22c-3.05-.35-5.7-2.23-7.03-4.99h-.23v-.001C.79 18.81 4.42 22 8.79 22.27c3.814.24 7.323-.91 9.947-3.13l-.01 0 1.08 2.98 1.55-7.63 -7.234-.02Z"/></svg>