<svg viewBox="0 0 24 24" xmlns="http://www.w3.org/2000/svg"><path d="M22.37-.001H1.61C.72.049.04.739-.01 1.58l-.01 20.78c.05.87.71 1.54 1.55 1.61l-.001 0c.01 0 .02 0 .04 0h20.79v0c.01 0 .02-.01.04-.01 .87-.08 1.55-.83 1.55-1.71V1.67c0-.9-.7-1.65-1.59-1.71V-.04c-.02-.01-.03-.01-.04-.01Zm0 .496v0c.63.04 1.12.57 1.12 1.21v20.57c0 .63-.49 1.16-1.11 1.21H1.58c-.6-.06-1.07-.53-1.11-1.13V1.6C.51.99.99.5 1.59.46h20.75ZM4.78 8.25v7.36H2.87V8.24h1.9Zm6.53 0v7.36H9.64v-4.98l-.68 4.97H7.77l-.7-4.87 -.01 4.86H5.39V8.22H7.85c.07.44.14.96.23 1.57l.27 1.87 .44-3.45h2.48Zm2.97 1.32c.07.04.12.1.14.2 .02.09.03.31.03.64v2.85c0 .48-.04.78-.1.89 -.07.11-.24.16-.51.16v-4.84c.2 0 .34.02.42.06Zm-.03 6.03c.45 0 .8-.03 1.02-.08 .23-.05.42-.14.56-.27 .15-.13.26-.3.32-.53 .06-.23.1-.67.1-1.33V10.8c0-.7-.03-1.17-.08-1.41s-.15-.46-.32-.65c-.17-.2-.42-.34-.75-.43 -.32-.09-.86-.13-1.77-.13H11.9v7.36h2.3Zm5.14-1.79c0 .35-.02.57-.06.67 -.04.09-.19.14-.31.14 -.11 0-.19-.05-.23-.14 -.05-.09-.07-.3-.07-.63V11.9c0-.34.01-.55.05-.63 .03-.09.1-.13.21-.13 .11 0 .27.04.31.14 .04.09.06.29.06.6v1.89Zm-2.48-5.59v7.36h1.71l.11-.47c.15.18.32.33.51.42 .18.08.46.13.67.13 .3 0 .56-.08.78-.24 .21-.16.35-.35.41-.57 .05-.22.08-.55.08-.99v-2.07c0-.45-.02-.74-.04-.87 -.02-.14-.08-.28-.17-.43 -.11-.15-.25-.26-.43-.34 -.19-.08-.4-.12-.66-.12 -.22 0-.5.04-.69.12 -.19.08-.36.22-.51.4V8.14h-1.84Z"/></svg>