<svg viewBox="0 0 24 24" xmlns="http://www.w3.org/2000/svg"><path d="M2.27 14.33c-1.26 0-2.28-1.02-2.28-2.28 0-1.26 1.01-2.28 2.27-2.28 1.25 0 2.27 1.01 2.27 2.27 0 1.25-1.02 2.27-2.28 2.27Zm19.45.85v0c-.66 0-1.3-.21-1.83-.59 -.75.83-1.05 1.04-2.07 1.04 -1.55 0-3.13-2.33-4.56-4.32 1.49-2.34 2.87-3.88 4.33-3.88 1.11 0 2.18.49 2.78 1.76v0c.41-.2.86-.3 1.32-.3v0c.4-.01.79.07 1.16.22 -.88-2.6-3-3.92-5.12-3.92 -2.34 0-4.06 2.16-5.58 4.62 -1.79-2.44-3.49-4.63-5.93-4.63 -2.08 0-4.16 1.28-5.05 3.82H1.16c.3-.1.61-.15.93-.15v0c.61-.01 1.2.17 1.71.51 .54-.78 1.24-1.24 2-1.21 1.53.05 2.92 1.84 4.68 4.32 -1.29 1.95-2.93 3.86-4.32 3.86 -1.06 0-2.08-.45-2.69-1.58v0c-.44.22-.93.33-1.42.33 -.371 0-.74-.08-1.085-.19 .93 2.41 2.97 3.63 5.01 3.63 2.32 0 3.93-2.06 5.52-4.62 1.74 2.46 3.49 4.72 5.99 4.72 2.02 0 4.29-1.34 5.22-3.75 -.36.08-.73.19-1.12.18Zm-.01-5.41c-1.26 0-2.28 1.01-2.28 2.27 0 1.25 1.01 2.27 2.27 2.27 1.25 0 2.27-1.02 2.27-2.28 0-1.26-1.02-2.28-2.28-2.28Z"/></svg>