<svg viewBox="0 0 24 24" xmlns="http://www.w3.org/2000/svg"><path d="M7.666 14.871c.23.14 3.81.875 4.69 1.02 .3.06.08.37-.33.58 -.95.25-5.52-1.61-4.37-1.61ZM13.3 1.6l3.5 3.56c.33.34.32.99.14 1.18l-1.74-1.4L14.85 7 13.4 6.23 11.07 7.7l-.78-3.1 -1.26 2.16H7.11c-.78 0-.88-.99-.17-1.7 1.23-1.335 2.657-2.7 3.42-3.49 .77-.8 2.12-.77 2.88-.001ZM9.77.96L.91 10.02c-3 3.7 2.03 3.276 4.194 4.343 .774.79-2.965 1.375-2.191 2.16 .77.79 4.678 1.52 5.45 2.314 .77.79-1.59 1.63-.81 2.42 .77.79 2.56.04 2.89 1.86 .23 1.3 3.224.56 4.68-.51 .77-.8-1.48-.72-.71-1.51 1.92-1.97 3.715-.72 4.37-2.686 .32-.98-2.84-1.51-2.06-2.3 2.22-1.3 9.91-2.15 6.26-5.8L13.79.92c-1.13-1.08-3-1.09-4.07 0Zm10.17 17.47c0 .45 3.314.74 3.314-.11 -.48-1.37-2.93-1.28-3.314.1Zm-14.93 2.39c.78.67 1.99-.17 2.36-1.12 -.76-1.01-3.607.03-2.36 1.11Zm14.512-1.47c-1.02.9.11 1.82 1.11 1.24 .22-.23-.01-1.02-1.11-1.25Z"/></svg>