<svg viewBox="0 0 24 24" xmlns="http://www.w3.org/2000/svg"><path d="M21 0H3C1.343 0 0 1.343 0 3v18c0 1.65 1.343 3 3 3h18c1.65 0 3-1.35 3-3V3c0-1.657-1.35-3-3-3Zm-5.801 4.399c0-.44.36-.8.8-.8 .44 0 .8.36.8.8v10.68c0 .44-.36.8-.8.8 -.45 0-.81-.359-.81-.81V4.37Zm-4-.41c0-.44.35-.8.8-.8 .44 0 .8.359.8.79v11.602c0 .44-.36.8-.8.8 -.45 0-.8-.36-.8-.8V3.97Zm-4 .4c0-.44.359-.8.79-.8 .44 0 .8.36.8.8v10.68c0 .44-.36.8-.81.8 -.44 0-.8-.359-.8-.81V4.369ZM3.189 5.99c0-.45.36-.8.8-.8 .44 0 .79.35.79.8v7.195c0 .44-.359.8-.8.8 -.45 0-.802-.36-.802-.8V5.99Zm17.32 12.2c-.13.1-3.09 2.593-8.52 2.593 -5.44 0-8.397-2.49-8.53-2.593 -.34-.29-.375-.8-.09-1.13 .28-.34.79-.375 1.12-.09 .04.04 2.69 2.21 7.48 2.21 4.84 0 7.45-2.186 7.47-2.21 .33-.29.83-.25 1.12.08 .28.33.25.84-.09 1.12Zm.28-5.007c0 .44-.36.8-.81.8 -.45 0-.81-.36-.81-.8v-7.2c0-.45.36-.8.8-.8 .44 0 .8.35.8.8v7.195Z"/></svg>