<svg viewBox="0 0 24 24" xmlns="http://www.w3.org/2000/svg"><path d="M22.667 22.884v1.11H1.33v-1.12Zm-.85-1.68v1.39H2.16v-1.4ZM4.21 6.134l.23.11 .11 1.88 .11 3.058v2.94l-.12 3.66 -.02 2.47 -.34.09H3l-.36-.1 -.14-2.47 -.12-3.65v-2.95l.11-3.08 .1-1.9 .24-.11Zm16.84-.001l.23.11 .11 1.88 .11 3.058v2.94l-.12 3.66 -.02 2.47 -.34.09h-1.18l-.36-.1 -.14-2.47 -.12-3.65v-2.95l.11-3.08 .1-1.9 .24-.11Zm-11.79 0l.23.11 .11 1.88 .11 3.058v2.94l-.12 3.66 -.02 2.47 -.34.09h-1.18l-.36-.1 -.14-2.47 -.12-3.65v-2.95l.11-3.08 .1-1.9 .24-.11Zm6.45 0l.23.11 .11 1.88 .11 3.058v2.94l-.12 3.66 -.02 2.47 -.34.09H14.5l-.36-.1 -.14-2.47 -.12-3.65v-2.95l.11-3.08 .1-1.9 .24-.11Zm6.08-2.52v1.951H2.14V3.612ZM11.76-.02l10.3 2.347 -.42.72H1.9l-.62-.59Z"/></svg>