<svg viewBox="0 0 24 24" xmlns="http://www.w3.org/2000/svg"><path d="M20.42 7.345v9.18h1.65V7.34ZM0 7.475v1.73h1.73v-1.74Zm9.78.35v6.053c0 .51.04.94.13 1.29 .08.34.23.61.44.82 .2.21.47.35.8.45 .33.09.75.13 1.25.13h.21v-1.54c-.24 0-.45-.02-.593-.04l0-.001c-.15-.02-.29-.08-.39-.18l0-.001c-.1-.11-.16-.24-.18-.38v-.001c-.03-.21-.05-.41-.04-.61v-2.19h1.19V10.2h-1.2V7.76Zm-3.505 2.31c-.4 0-.76.08-1.09.24 -.33.16-.6.38-.83.66l-.09.11v-.91H2.639v6.25h1.63v-3.22c.01-.59.16-1.02.43-1.3 .29-.3.64-.45 1.04-.45 .476 0 .84.14 1.08.43 .23.28.359.68.359 1.2v3.324h1.66v-3.55c0-.89-.23-1.6-.69-2.09 -.46-.5-1.1-.75-1.92-.75Zm10.06 0v-.001c-.87-.01-1.7.33-2.31.94 -.29.29-.53.63-.7 1.03l0-.001c-.18.4-.26.83-.26 1.27 0 .45.08.87.24 1.27 .16.39.39.74.67 1.032 .28.29.63.52 1.045.69 .4.17.86.26 1.34.26 1.39 0 2.26-.64 2.782-1.23l-1.19-.91c-.25.29-.85.69-1.59.69 -.47 0-.85-.11-1.138-.33v0c-.3-.22-.51-.53-.593-.88l-.02-.06h4.91v-.59c0-.46-.08-.88-.24-1.27v-.001c-.16-.39-.38-.74-.67-1.04V11c-.29-.3-.64-.54-1.02-.7l-.001-.001c-.42-.17-.87-.26-1.32-.25Zm-16.297.11v6.25H1.68V10.23Zm16.278 1.28c1.13 0 1.66.79 1.66 1.25l-3.32 0c0-.46.52-1.26 1.65-1.27Zm7.073 3.814v0c-.34 0-.61.27-.61.6v0c0 .33.27.6.6.6v0c.33 0 .6-.28.6-.61v0c-.001-.34-.28-.61-.61-.61Zm-.01.1v0c0-.01 0-.01 0 0v0c.27-.01.5.22.5.49 0 0-.01 0-.01 0v0c0 .27-.23.5-.5.5v0c-.28 0-.5-.23-.5-.5v0c-.01-.28.22-.5.49-.5Zm-.24.15v.69h.13v-.29h.09l.17.28h.13l-.18-.3v0c.04-.01.08-.03.11-.06s.05-.08.05-.14c0-.07-.02-.12-.07-.16 -.04-.04-.11-.06-.19-.06Zm.13.09h.15c.01 0 .03 0 .05.01v0c.01 0 .02.01.03.03 .01.01.01.03.01.05v0c0 .01-.01.03-.02.05v0c-.02.01-.03.02-.04.03 -.02 0-.04.01-.06.01h-.16Z"/></svg>