<svg viewBox="0 0 24 24" xmlns="http://www.w3.org/2000/svg"><path d="M12 0c-.69 0-1.35.057-2 .166v4.09 0c.65-.17 1.32-.26 2-.26 .69 0 1.36.08 2 .25V.15c-.65-.11-1.32-.17-2-.17ZM8 .68C3.34 2.32-.01 6.777-.01 11.997c0 6.62 5.377 12 12 12 6.62 0 12-5.38 12-12 0-5.22-3.35-9.67-8.001-11.317v4.39l0-.001c3.82 2.2 5.13 7.09 2.92 10.92 -2.21 3.82-7.1 5.13-10.93 2.92s-5.14-7.1-2.93-10.93c.7-1.22 1.71-2.23 2.92-2.93ZM11.99 6c-.7 0-1.38.12-2 .34v9.32h-.001c.64.22 1.31.34 2 .34 .7 0 1.37-.13 2-.35V6.32v-.001c-.65-.23-1.32-.35-2-.35Z"/></svg>