<svg viewBox="0 0 24 24" xmlns="http://www.w3.org/2000/svg"><path d="M19.91 6.03c-1.11.57-3.77 1.92-5.9 3 -3.78 1.91-7.03 3.593-7.12 3.66 -.04.02.01.4.08.86 .57 3.41 2.14 6.45 4.31 8.35l.69.61 .69-.6c1.83-1.62 3.32-4.23 4.05-7.06 .14-.57.27-1.31.28-1.65l.02-.62 -2.96-1.54 -.74.37c-.4.2-.73.39-.73.42 0 .03.66.39 1.48.79l1.48.73 -.07.38c-.4 2.16-1.62 4.75-2.93 6.18l-.61.66 -.45-.43c-.93-.9-1.94-2.62-2.52-4.31 -.33-.95-.73-2.44-.66-2.49 .02-.03 3.04-1.55 6.7-3.391l6.65-3.37 .21.35c.66 1.08.72 2.54.13 3.73 -.65 1.31-1.76 1.98-3.37 2.06l-.98.04 -.07.31c-.04.18-.07.47-.07.68 0 .31.03.36.38.42 .57.1 1.76-.04 2.45-.29 1.67-.63 2.849-1.92 3.36-3.74 .44-1.57-.04-3.423-1.27-4.85 -.22-.25-.45-.45-.52-.45 -.08.01-1.04.47-2.15 1.05ZM1.37 5.47C.17 6.86-.27 8.6.14 10.22c.46 1.8 1.65 3.13 3.36 3.77 .69.25 1.88.39 2.45.28 .41-.09.45-.21.31-1.04l-.07-.4 -.98-.05c-1.63-.08-2.73-.75-3.39-2.09 -.58-1.15-.54-2.55.08-3.62l.26-.46L6 8.56l3.85 1.95 .71-.36c.39-.21.71-.41.71-.45 0-.07-9.35-4.805-9.49-4.805 -.05 0-.27.22-.5.49Zm6.31-3.62l-.27.4 .23.06c.69.18 1.69.95 2.1 1.637l.21.34 -.6.88c-.6.89-1.22 2.03-1.22 2.23 0 .09.95.63 1.13.63 .04 0 .28-.41.53-.89 .53-1.05.95-1.66 1.65-2.41l.49-.54 .44.47c.7.75 1.21 1.48 1.69 2.42 .24.46.46.88.48.91 .06.07 1.2-.55 1.2-.66 0-.2-.65-1.38-1.23-2.22l-.6-.88 .22-.36c.32-.54 1.2-1.28 1.75-1.499 .26-.12.47-.26.47-.31 0-.07-.11-.25-.25-.42l-.25-.3 -.53.24c-.31.14-.88.58-1.34 1.05l-.81.8 -.66-.61 -.65-.62 -.65.61 -.66.61 -.76-.77c-.61-.62-1.64-1.33-1.92-1.33 -.04 0-.19.18-.33.39Z"/></svg>