<svg viewBox="0 0 24 24" xmlns="http://www.w3.org/2000/svg"><path d="M12 0c-.61 0-1.21.044-1.79.133v3.285 0c1.17-.24 2.39-.24 3.574 0V.12l0-.001c-.6-.1-1.19-.14-1.79-.14ZM9.38.29C4.08 1.495.13 6.27.13 11.995c-.01 6.628 5.31 12 11.87 12s11.87-5.372 11.87-12C23.87 6.27 19.91 1.49 14.62.29v3.34c3.57 1.11 6.18 4.44 6.18 8.36 0 4.83-3.95 8.76-8.8 8.76 -4.85 0-8.81-3.93-8.81-8.76 -.001-3.93 2.6-7.247 6.18-8.37V.28ZM12 4.13c-.62 0-1.22.06-1.79.2v15.19h0c.58.13 1.18.2 1.78.2 .61 0 1.21-.07 1.78-.2V4.33v0c-.59-.14-1.19-.21-1.79-.21Z"/></svg>