<svg viewBox="0 0 24 24" xmlns="http://www.w3.org/2000/svg"><path d="M22.92 7.02l-.11-.23 -.17.18c-.41.46-.93.82-1.51 1.03l-.16.06 .06.15h0c.49 1.19.75 2.46.75 3.75 0 5.4-4.4 9.8-9.81 9.8s-9.81-4.4-9.81-9.81 4.402-9.81 9.8-9.81c1.46 0 2.88.31 4.2.94l.15.07 .06-.16V2.98c.24-.57.62-1.07 1.1-1.46l.19-.16 -.23-.12V1.24C15.73.36 13.84-.1 11.93-.1c-6.619 0-12 5.381-12 12s5.381 12 12 12c6.61 0 12-5.381 12-12 0-1.73-.37-3.41-1.08-4.98Zm-10.93-.5v0c-3.02 0-5.47 2.45-5.47 5.47v0c0 3.01 2.45 5.46 5.47 5.47v0c3.01-.01 5.46-2.46 5.47-5.47v0c-.01-3.02-2.46-5.47-5.47-5.47Zm10.34-2.01v0c0 1.37-1.12 2.49-2.5 2.49s-2.5-1.12-2.5-2.5v0c0-1.38 1.11-2.5 2.49-2.5 1.37 0 2.49 1.11 2.49 2.49Z"/></svg>