<svg viewBox="0 0 24 24" xmlns="http://www.w3.org/2000/svg"><path d="M22.182 15.499v0c-.12 0-.24-.02-.36-.04v0c-.51-.11-.95-.42-1.21-.87l-.01-.02c-.14-.27-.05-.57.2-.72l0 0c.08-.05.17-.08.26-.08v0c.19 0 .36.1.46.27v0c0 .01.01.02.01.02l.05.07 .07.07v0c.09.08.21.14.34.16h0c.2.03.42-.01.59-.14v0c.17-.13.28-.33.29-.54v0c.01-.22-.06-.43-.21-.58 0 0-1.6-1.67-1.68-1.74v0c-.08-.08-.14-.15-.2-.23 -.23-.32-.3-.7-.27-1.08v0c.01-.27.09-.52.22-.74 0 0 .07-.13.09-.16 .08-.13.25-.29.36-.38v0c.09-.08.19-.14.3-.19V8.57c.82-.41 1.82-.1 2.28.7V9.27c.07.12.09.26.05.4V9.67c-.04.13-.13.25-.26.32v0c-.08.04-.17.07-.26.07v-.001c-.2-.01-.37-.11-.46-.28h-.001c-.11-.18-.28-.3-.47-.33v0c-.2-.04-.41 0-.57.12v0c-.16.12-.26.3-.27.49v0c-.02.19.05.39.19.53l1.63 1.68v0c.35.37.54.87.5 1.39 -.05.52-.31.99-.72 1.3v0c-.32.23-.71.36-1.1.36m-5.18-.01h-.001c.97-.01 1.75-.79 1.75-1.76v-3.48 -.001c-.01-.98-.81-1.76-1.78-1.75 -.97 0-1.74.78-1.75 1.74v3.47h0c0 .97.78 1.75 1.75 1.75m0-5.94c.37 0 .69.31.69.69v3.47 0c-.01.38-.32.69-.7.69v0c-.39 0-.7-.31-.7-.69 -.01-.01-.01-.01 0-.02V10h-.001c0-.39.31-.7.69-.7m-7.9.32v5.08l0 0c0 .29.23.53.53.53 .29-.01.53-.24.53-.54v-2.88Zm2.88 2.02V8.76v0c0-.3.24-.53.53-.53 .28 0 .51.23.52.52v5.08Zm1.05 2.94v.11 0c-.01.29-.25.53-.54.52 -.2-.01-.38-.12-.48-.29l-2.92-6.06v-.13l0 0c-.01-.21.11-.4.3-.48v0c.25-.13.57-.03.7.23 0 0 0 0 0 .01Zm-7.91.64v0c.97-.01 1.75-.79 1.75-1.76V9.98v0C6.64 9 5.84 8.22 4.87 8.23c-.97 0-1.74.78-1.75 1.74v3.47 0c0 .97.78 1.75 1.75 1.75m0-5.94v0c.38 0 .69.31.69.69v3.47 0c0 .38-.32.69-.7.69 -.39 0-.7-.32-.7-.7V9.92v0c0-.39.31-.7.69-.7m-5.14 5.34v0c-.01.31.25.58.57.58 .31 0 .58-.26.58-.58 0-.01 0-.02 0-.02V8.7v0c0-.32-.26-.58-.58-.58 -.32 0-.58.25-.58.57Z"/></svg>