<svg viewBox="0 0 24 24" xmlns="http://www.w3.org/2000/svg"><path d="M.24 14.4h1.43c.12 0 .23-.1.23-.25V9.861h0c-.01-.14-.11-.25-.25-.25 -.01 0-.01 0-.01 0H.21v0c-.14-.01-.24.1-.24.23 -.01 0-.01 0-.001 0v4.29c0 .16.14.23.24.23m2.56-4.43l1.01 3.737c.06.25.24.43.391.53 .17.11.33.15.61.15h1.11c.47 0 .83-.3.96-.8l.91-3.62v0c0-.04.01-.08.01-.11v0c0-.14-.1-.25-.23-.25 -.01-.01-.01-.01-.02-.01h-.827v0c-.12-.01-.21.07-.24.18l-.718 3.135c-.03.1-.08.13-.14.13v0c-.06-.01-.11-.05-.12-.1L4.7 9.79c-.02-.16-.13-.24-.242-.24H2.93c-.19 0-.254.17-.25.27 0 .02.01.04.01.07m7.72 1.49l-.01-.42c0-.15.11-.25.24-.25h1.7l-.001 0c.13-.01.23-.11.23-.24l0-.7v0c-.01-.14-.11-.25-.25-.25 -.01 0-.01 0-.01 0h-2.9c-.47 0-.95.36-.95 1.02v2.79c0 .6.5.95.94.95h2.93c.12 0 .24-.1.24-.27v-.69h0c0-.14-.11-.24-.24-.24h-1.7c-.16 0-.266-.1-.266-.25v-.4h1.49 -.001c.13-.01.24-.12.23-.25 -.01-.01-.01-.01-.01-.01v-.61 0c-.01-.14-.11-.24-.25-.24 -.01 0-.01 0-.01 0h-1.49Zm5.51-.67v-.001c.42-.03.85-.03 1.28 0v0c.13 0 .23-.11.23-.24 0-.01 0-.01 0-.01v-.01l0-.77v0c0-.13-.1-.23-.22-.24V9.44c-.3-.02-.6-.03-.9-.03 -.42 0-.84.02-1.237.06l.02-.01c-.88.07-1.6.72-1.76 1.57v-.001c-.05.27-.08.54-.08.82 0 .27.02.52.05.77v0c.13.83.79 1.49 1.63 1.62l-.03-.01v-.001c.76.1 1.53.12 2.3.05v0c.12-.02.21-.12.21-.24l-.01.01 0-.766h0c0-.14-.11-.24-.24-.24h-.01c-.24.01-.48.01-.73 0v-.001c-.21-.01-.41-.01-.61-.03v0c-.31-.04-.56-.29-.59-.6l0 0c-.05-.38-.05-.76-.03-1.14h-.001c0-.36.27-.65.63-.673m7.95 1.24c0-.44-.06-.83-.18-1.2v0c-.24-.7-.86-1.2-1.59-1.29v0c-.37-.05-.73-.07-1.09-.07 -.41 0-.76.01-1.16.06v0c-.77.1-1.4.65-1.6 1.39v0c-.21.71-.2 1.46.02 2.17h0c.23.71.85 1.22 1.59 1.3 .34.03.68.05 1.03.05 .44 0 .8 0 1.23-.06 .85-.16 1.45-.76 1.61-1.52 .06-.29.1-.57.1-.88m-1.91-.02c0 .22-.01.43-.04.65h0c-.06.3-.31.54-.62.56v0c-.19 0-.37.01-.55 0v0c-.34-.01-.62-.25-.67-.58h0c-.07-.45-.07-.9-.02-1.34v0c.03-.33.29-.58.625-.61v0c.17-.01.35-.01.532-.01 .35 0 .64.26.67.61 .03.22.04.45.04.68"/></svg>