<svg viewBox="0 0 24 24" xmlns="http://www.w3.org/2000/svg"><path d="M5.24 6.6l0-.001c-.1 0-.2 0-.3.01 0 0-1.6.07-2.1.798 0 0-.09.09-.04.2 0 0 .01.03-.01.05 0 0-.27.24-.41.45 -.05.07-.11.2 0 .3 0 0 .04.03.06.06 .03.06.07.15.12.21 .07.08.21.22.41.19 .07-.02.09-.04.09-.04 .1.09.26.09.26.09 -.02-.07-.09-.19-.1-.27H3.21c-.01-.06-.01-.11.01-.17h-.001c.02-.1.07-.2.14-.28 .05-.06.19-.12.3-.04 .08.06.19.26.1.56 0 .02-.1.23-.21.26 0 0-.01 0-.03 0 -.07 0-.2-.08-.2-.08s0 .01.01.09c.01.04.02.09.04.12 0 0-.03.04-.05.07 -.03.04-.05.13.01.17 0 0 .23.15.45.17 .15.01.21-.1.21-.1 .11-.16.2-.29.32-.4 .32-.3.78-.38.78-.38 .03-.01.53-.15 1.38.53 -.25.02-.54.07-.76.11 -.64.11-1.037.71-1.16.95 -.31.63.32.85.32.85 .01-.01.6-.06.88-.69 0 0 .1-.28.383-.19 .18.05 1.79.62 2.15.71 0 0 1.077.28 1.48-.22 .64.21 1.25.31 2.85.11 .27-.04.49-.03.49-.03 .37.02.71.27.81.44 .42.67.95 2.003 2.79 1.84l.83-.08c.51-.03.92-.05 1.34.17 .18.09.28.13.59.42 .42.4.81.84 1.33.6 .18-.09.39-.42.39-.42v0c-.03-.17-.12-.33-.26-.42 .47.11 1.54.18 1.95-.54 .1-.17.11-.32.07-.41 -.12-.26-.43-.17-.43-.17 -.15.03-.32.2-.57.27 -.54.16-.968-.03-.968-.03 -.83-.36-3.5-1.89-4.85-2.55 0 0-1.56-.78-3.84-1.69 0 0-4.148-1.83-7.212-1.77Zm0 .13c3-.06 7.11 1.73 7.15 1.75v0c.36.14.71.28 1.04.42l-.48-.19 -.001 0c-.61-.23-1.22-.45-1.83-.65 -1.55-.54-2.22-.63-2.27-.64l-.001 0c-.09-.02-.18-.03-.26-.04l-.28-.04 .15.24c-1.09-.78-2.4-.81-2.46-.82 -.27 0-.492.07-.67.16l.08-.17 -.22-.01v0c-.31-.02-.61-.01-.91.01H4.27c.29-.06.6-.09.9-.09Zm-.32.19c.09 0 .19 0 .3 0l-.04.06c-.08.14-.39.44-.9.33 0 0 0 .22.55.3 0 0 .49.08 1.34.76 0 0-.41-.81-1.088-1.01 0 0-.09-.02-.05-.08 0 0 .4-.38.96-.38 0 0 1.75.03 2.86 1.2 0 0-.05-.21-.23-.49l-.08-.12s.06 0 .25.03c0 0 .67.08 2.24.62 0 0 1.17.38 1.82.64 .97.38 3.39 1.32 4.94 2.17 .27.15 3.07 1.61 3.07 1.61 .77.34 1.31.13 1.31.13 .17-.07.49-.31.63-.18 .07.07.08.16.04.26 -.04.14-.24.32-.49.43 -.26.11-.79.14-1.1.09 0 0-.6-.06-1.12-.61 -.17-.18-.37-.37-.56-.56h-.001c-.17-.18-.39-.3-.62-.34 -.35-.05-1.21-.07-1.53-.18 -.22-.08-.48-.22-.82-.73 -.17-.25-.29-.32-.51-.46 0 0 .17.13.27.31 .14.25.21.43.29.57 .07.13.16.25.29.36 .16.13.26.15.44.18 .17.02.74.02 1.23.01 .48-.01.69.14.85.28 .14.12.4.47.55.63 .18.18.32.37.68.55 .12.06.33.22.32.37 -.17.16-.37.2-.86.07 .03.03.29.3.72.17v0c-.11.1-.25.15-.4.15 -.46-.03-.91-.59-1.16-.8 -.19-.16-.22-.2-.54-.43 -.5-.35-1.6-.25-1.6-.25l-.82.04c-1.58.12-2.25-1.28-2.42-1.58v0c-.06-.09-.11-.18-.17-.25 -.08-.11-.52-.67-.95-.86 0 0 .43.37.4.61 0 0-.18-.09-.67-.02 -2.09.29-2.79-.23-2.79-.23 .09-.42-.2-.85-.2-.85 .16.05 1.18.39 2.15.2 0 0-1.59 0-2.69-.88 0 0 .69.86.52 1.43 0 0-.12.6-1.32.36 -.13-.03-.28-.07-2.08-.57 -.43-.13-.57.07-.65.19 0 .17-.22.38-.32.45 -.56-.1-.34-.62-.34-.62 -.35.5.01.72.133.74 -.07.03-.14.05-.19.07 0 0-.46-.28-.21-.72 .35-.62.71-.82 1.38-.88 .29-.03.53-.05.71-.03 .48.06.782.33 1.5.4C6.61 9.13 6.61 8.24 6.6 8.22v-.01c-.09.29-.04.53.03.74 -.02-.01-.36-.23-.49-.31 -.548-.34-.99-.4-.99-.4 -.19-.03-.266-.25-.266-.25 -.01-.02-.02-.03-.02-.04 -.26-.44-.51-.44-.51-.44l0 0c.07.11.12.23.13.37 .01.05.01.15.01.18 0 .46-.54.6-.54.6 -.38.47-.36.48-.44.49 -.09.01-.27-.08-.27-.08 -.02-.01-.02-.03-.02-.05 0-.03.02-.05.02-.05 .07-.06.12-.11.12-.11 .39-.41.44-.6.39-.87 -.1-.53-.48-.47-.48-.47 -.19.01-.26.16-.26.16H3.02c-.08.12-.14.25-.2.39 -.08.17-.17.21-.21.22v0c-.03 0-.05 0-.07 0 -.13-.01-.23-.13-.23-.13 -.01-.01-.01-.02-.02-.02 -.12-.13-.04-.29-.04-.29 .15-.37.46-.42.5-.43l.18-.03c.38-.07.56-.47.56-.47v0c-.13-.01-.26 0-.39.01 -.26.04-.35.34-.35.34 -.22.05-.21-.14-.18-.2s.16-.28.99-.47c0 0 .31-.1.97-.1Zm-.16.12c-.2 0-.31.11-.31.12 0 0 .02 0 .07.01l.07 0v0c.11-.01.22-.04.32-.09h0c.03-.02.06-.04.09-.06l-.25-.01Zm.16.36v0c.03.08.1.11.14.12v-.01c.16.05.3.13.43.24 -.39-.22-.62-.27-.63-.27v0c-.06-.01-.11-.02-.16-.04h0c.07-.02.14-.04.2-.07Zm-1.37.05s-.05.16-.25.19c0 0-.08.01-.11.01l.02-.06c0-.02.05-.14.16-.15 0 0 .06-.01.16-.01Zm-.69.23v0c.01.01.03.03.05.04 -.14.05-.49.43-.49.43 .17-.27.4-.46.41-.46 0-.01.01-.01.01-.01 0-.01.01-.01.01-.01Zm.73.31c.03-.01.21-.02.3.27h-.001c-.03-.08-.08-.14-.14-.19v0c-.08-.06-.17-.08-.26-.06v0c.02-.02.06-.03.09-.03Zm-1.282 7.39v.87c0 .25-.06.42-.18.55 -.17.16-.44.22-.84.22H-.04v.25H1.39c.677 0 1.15-.1 1.4-.35 .14-.15.21-.33.21-.63v-.93Zm2.68 0l-1.66 1.9h.41l.34-.41H6.18l.35.4h.79l-1.66-1.91Zm4.086 0c-.49 0-.78.05-1.03.2v0c-.28.14-.44.43-.44.75 0 .38.17.66.55.82 .22.09.532.13.91.13h2.05V16.4h-.71v.62h-1.14c-.37 0-.58-.06-.74-.18 -.15-.12-.23-.29-.23-.53 0-.23.07-.4.21-.52 .15-.13.36-.19.74-.19h1.77v-.26Zm5.65 0v.92c0 .24-.03.39-.13.52 -.16.21-.4.29-.9.29h-.06c-.48 0-.75-.08-.9-.3 -.1-.13-.13-.28-.13-.53v-.93h-.71v.95c0 .24.02.44.15.6 .2.26.57.41 1.6.41h.01c1.032 0 1.4-.16 1.6-.42 .12-.17.15-.36.15-.61v-.95Zm2.67 0l-1.654 1.9h.41l.34-.41h2.1l.35.4h.79l-1.66-1.91Zm2.98 0v1.9h.71v-.67h.93l1.064.66h.86l-1.12-.68c.26-.01.49-.05.66-.15h-.001c.17-.1.27-.28.26-.48 0-.26-.12-.42-.33-.51 -.19-.08-.42-.11-.87-.11Zm.71.24h1.39c.26 0 .38.02.46.08 .07.05.1.14.1.28v.03c0 .12-.03.22-.12.28 -.09.06-.22.07-.45.07h-1.41Zm-15.96.03l.84.97H4.28Zm12.419 0l.84.97h-1.68Z"/></svg>