<svg viewBox="0 0 24 24" xmlns="http://www.w3.org/2000/svg"><path d="M11.591 19.649h.77v-3.79h-.77Zm-6.874-5.03l-.24-.74 3.6-1.17 .23.73 -3.6 1.17m4.645-5.77l-2.23-3.07 .62-.46 2.22 3.06 -.63.45m5.31.02l-.63-.46 2.22-3.07 .62.45 -2.23 3.06m4.59 5.78l-3.6-1.17 .23-.734 3.6 1.17 -.24.73M11.93-.08C5.31-.08-.07 5.3-.07 11.92c0 6.61 5.383 12.002 12 12.002 6.61 0 12-5.39 12-12 0-6.62-5.39-12-12-12Zm0 2.43c5.28 0 9.56 4.28 9.56 9.567 0 5.28-4.285 9.57-9.569 9.57 -5.29 0-9.57-4.29-9.57-9.573 0-5.284 4.285-9.567 9.57-9.567m1.55 7.96l.57 1.76 .74.24 4.73-1.54 -.86-2.65 -4.74 1.53 -.47.63m.33 2.5l-1.51 1.093v.78l2.92 4.03 2.25-1.64 -2.93-4.029 -.75-.25m-2.28 1.093L9.96 12.76l-.75.24 -2.93 4.029 2.25 1.63 2.92-4.029v-.79M9.7 12.01l.57-1.77 -.47-.64 -4.74-1.54 -.86 2.64 4.73 1.54 .74-.25m1.19-2.22h1.859l.46-.64V4.15h-2.79v4.98l.46.63"/></svg>