<svg viewBox="0 0 24 24" xmlns="http://www.w3.org/2000/svg"><path d="M0 0h24v24H0V0Zm22.03 18.276c-.18-1.1-.89-2.02-3.003-2.88 -.74-.35-1.56-.59-1.8-1.14 -.1-.33-.11-.51-.05-.71 .15-.65.91-.84 1.51-.66 .39.12.75.42.97.9 1.03-.68 1.03-.68 1.75-1.125 -.27-.42-.41-.61-.59-.78 -.63-.71-1.47-1.07-2.84-1.04l-.71.08c-.68.16-1.32.52-1.71 1 -1.14 1.29-.82 3.54.56 4.471 1.36 1.02 3.36 1.24 3.61 2.2 .24 1.17-.87 1.54-1.97 1.41 -.82-.18-1.26-.59-1.76-1.34l-1.83 1.05c.21.48.45.68.81 1.1 1.74 1.75 6.09 1.66 6.87-1.01 .02-.09.24-.71.07-1.65l.04.06Zm-8.983-7.25h-2.25c0 1.93-.01 3.86-.01 5.805 0 1.23.06 2.36-.14 2.71 -.33.68-1.18.6-1.57.48 -.4-.2-.6-.47-.83-.86 -.07-.11-.11-.2-.13-.2L6.28 20.08c.3.63.75 1.17 1.32 1.51 .85.51 2 .67 3.207.4 .78-.23 1.45-.7 1.811-1.42 .51-.93.4-2.07.39-3.346 .01-2.06 0-4.109 0-6.179l0-.06Z"/></svg>