<svg viewBox="0 0 24 24" xmlns="http://www.w3.org/2000/svg"><path d="M12.135 0v-.001c-.5-.03-.99.09-1.42.34L2.55 5.05H2.54c-.4.23-.73.56-.96.96l3.95 2.17H5.53c.15-.25.35-.45.6-.59l4.95-2.86V4.73c.54-.32 1.21-.32 1.76 0l4.95 2.86v0c.2.11.38.27.52.46l3.92-2.27v0c-.22-.31-.5-.56-.82-.75L13.25.31v0c-.36-.21-.75-.32-1.16-.34Zm-.15 4.91l0 0c-.24-.01-.48.06-.68.18L6.35 7.946H6.35c-.19.1-.34.25-.46.43l1.92 1.05h0c.08-.12.18-.21.31-.28l3.34-1.928v0c.32-.19.72-.19 1.05 0l3.33 1.92v0c.08.05.16.12.23.19l.01-.01 -.01-.01 1.87-1.08v0c-.11-.13-.24-.24-.38-.33l-4.95-2.86v0c-.21-.12-.45-.18-.68-.18Zm10.432 1.149l-3.92 2.26v-.001c.13.25.19.52.2.81v5.715c0 .62-.34 1.21-.88 1.52l-4.95 2.86v0c-.2.11-.42.18-.64.21v4.52l0-.001c.37-.03.73-.14 1.05-.32l8.162-4.72h-.001c.79-.46 1.28-1.31 1.28-2.23V7.25 7.25c-.01-.43-.12-.86-.32-1.23ZM1.48 6.28v-.001c-.15.31-.22.64-.23.99v9.43c0 .91.49 1.76 1.29 2.22l8.16 4.71h0c.37.21.79.32 1.22.33v-4.54 0c-.3-.01-.58-.09-.84-.24l-4.95-2.86v0c-.55-.32-.88-.9-.88-1.53v-5.72 0c-.01-.24.04-.47.13-.68Zm16.67 2.223l-1.89 1.09v0c.07.14.11.29.12.46v3.856c0 .37-.2.72-.53.907l-3.34 1.93v0c-.1.05-.2.08-.3.1v2.17c.15-.03.3-.08.44-.16L17.59 16v0c.42-.25.68-.7.68-1.18V9.1v0c-.01-.22-.06-.42-.15-.61ZM5.76 8.64v0c-.06.15-.09.31-.09.48v5.715 0c-.01.48.25.93.68 1.18l4.95 2.86c.19.11.41.16.62.17v-2.18 0c-.17-.01-.32-.05-.46-.13l-3.34-1.93 0-.001c-.33-.19-.53-.54-.54-.91v-3.86 0c0-.14.02-.26.07-.38l-.04-.02Z"/></svg>