<svg viewBox="0 0 24 24" xmlns="http://www.w3.org/2000/svg"><path d="M23.71.66l-.08.04s-4.57 2.17-8.25 2.651c-1.86.24-4.554.48-6.964.62l0 0c-1.09.06-2.17.1-3.26.11 -.92 0-1.63-.04-1.95-.11h0c-.82-.2-1.62-.44-2.4-.74l-.252-.1L.9 4.301l-.92.81 .24.43 .44.03 1.052.13 .16.51 .63.05 .31 1.07 .09 0s1.33.11 1.76.11c.36 0 .93-.04 1.07-.05l.02.39 .28.05v.31l-.8.71 .15.02c-.14.01-.23.01-.5.03 -.43.01-.94.02-1.21-.02 -.59-.09-.71-.09-.71-.09H2.9l-.13.13 -.05.44h.15l.05 1.11 2.933-.12 -.21 3.68 -.02.34 -2.25-.13 -.02-.77h.53l.05-.42 .46-.11 .22-.32 -2.12-.51 -1.71.5 .46.38h.16l.02.33 .49.02v.76l-.611.15 .19.4 .1.06v.82h.34v3.29l-.57.08 .09 1.24 .33.05 -.06 2.34 1.8.03 -.32-2.31 1.98-.05 -.14 1.08 -.25 1.032 2.609.03 .02-2.28 1.32-.12 -.08 1.29 -.07.99h1.63l-.06-2.3 .17.02 .06-1.4h-.25l-.06-.34 -.14-1.29 .04-1.37h.29v-1.19l-.37.02 .04-.81 .43-.05 .02-.36 .17-.03 .51-.39 -1.827-.375 -1.71.37 .28.46 .23-.02 .05-.01 .03.44 .41-.02 0 .67L7 14.2l.05-.88 .05-.93v-1.22l.04-1.16 3.48-.18 4.15-.24 .03.67 -.16 1.94 -.07 1.69 -1.32-.03 -.01-1.02 .57-.03 .02-.38 .27-.05 -.02-.06 .15-.01 .29-.39 -2.01-.48 -1.99.42 .25.45 .14-.01v.08h.24v.4l.52 0 -.01.85h-.53l-.02.5 .18.02 -.03.97 .39.02 -.05 3.615 -.53.1 .01.42h.17v.98h.28l-.07 1.2 -.12 1.314 2.17.05 -.07-1.18 -.14-.85 -.03-.593 1.32-.03 -.04 1 -.01 1.33 1.03.08 1.25-.05 .53-.16 -.25-.76 -.06-1 -.08-.59 1.23-.05 -.06.74 -.01 1.51 .73.06 .63-.02 .41-.13 -.19-1.43 -.05-.87 .25-.03 0-.9 .08-.02 -.03-.43h-.31l-.05-.53 -.03-2.692 .22-.01v-.91l.09.01v-.47l-.34-.03 0-.84 .57-.06 -.04-.37 .26-.03 -.03-.12 .58-.29 -2.06-.42 -1.88.38 .23.43 .22-.02 .01.07h.2l.01.42 .54-.01 .03.77 -1.67-.02 -.22-1.46 -.18-.83 -.15-1.47 .07-.75 3.84-.3 .01-1.32 .2-.05 -.03-.38 -.24-.14h-.04l-.36.05 -.8.11 -.001-.001c-.55.07-1.09.15-1.63.21l-.19.02 -.02-.18 -.79-.41 0-.28 .27-.01 .02-.68c.09-.01.35-.03.77-.07 .48-.05 1.04-.11 1.36-.18 .59-.14 1.45-.28 1.45-.28l.07-.02 .4-1.11 .8-.24 .06-.19 1.78-.492 .3-.26 -.72-1.564 .04-.24 .34-.18 .29-.906 -.26-.23Zm-8.9 6.062l-.01.52 .4.01 -.02.32 -.79.51 -.09.25 -1.86.09 .01-.19 .11-.18 .01-.16 0-.23 .06-.16 .03-.16v-.1l.08-.33Zm-5.18.46l-.05.26 .19.23 -.02.38 .17.27 -.05.32 .02.03 -1.85.07 .02-.16 -.66-.36 -.03-.35 .29-.02 .02-.6Zm4.01 8.5l1.25.08 -.05 1.93 .18 1.54 -1.34-.05 -.05-3.52Zm-10.225.08l2.16.11 -.2 1.28v1.21l.13.52 -2.09.09Zm15.37.01v3.25l-1.29.09 -.06-1.73 -.16-1.6Zm-11.494.07l1.53 0 .01 2.99 -1.43.02 -.08-.93 -.01-1.05Z"/></svg>