<svg viewBox="0 0 24 24" xmlns="http://www.w3.org/2000/svg"><path d="M20.969 0h-8.91c-.09 0-.16.068-.16.15v2.827c0 .09.07.17.17.17h1.221c.49 0 .89.38.93.86v13.37h-.01l-.02.36 -.05.28c-.02.04-.02.08-.04.13 -.09.25-.21.49-.39.7 -.01 0-.02.01-.03.02 -.06.06-.11.12-.18.18 -.07.05-.13.11-.2.16 -.5.35-1.17.5-1.92.43 -.96-.09-1.91-.53-2.67-1.22 -.77-.7-1.242-1.56-1.34-2.43 -.09-.78.14-1.47.65-1.93 0-.01 0-.01 0-.01 .02-.02.04-.04.06-.05 .36-.31.84-.5 1.38-.55 0 0 .01-.01.01-.01l.29-.02 .35.01s.01 0 .02 0c.49.05.99.19 1.46.42 .01 0 .02 0 .03.01 .14.07.17-.01.17-.07V9.53c0-.13-.09-.23-.21-.26 -2.53-.56-5.005.02-6.754 1.61 -1.528 1.38-2.27 3.39-2.027 5.5 .21 1.87 1.17 3.67 2.71 5.07 1.49 1.36 3.402 2.21 5.36 2.39 .27.02.54.03.8.03 1.87 0 3.61-.65 4.9-1.814 1.218-1.11 1.94-2.64 2.05-4.29l.01-10.87h0V3.942c.01-.52.42-.93.94-.93h1.22c.09 0 .17-.08.17-.18V0c0-.09-.07-.16-.16-.16Z"/></svg>