<svg viewBox="0 0 24 24" xmlns="http://www.w3.org/2000/svg"><path d="M13.55 2.19v-.08c0-.35.11-.67.33-.94 .22-.28.51-.42.86-.42s.66.11.93.33c.27.22.42.52.45.9 .02.375-.09.68-.34.93s-.55.375-.9.375l-.23.07 .07.11 -.08.41 -.15 1.2c.05.05.07.1.07.15l-.15.75c-.05.1-.1.17-.15.22l-.08.3 0 0c-.14.53-.29 1.05-.45 1.57v.15c-.05.25-.09.45-.12.6 -.03.15-.12.4-.27.75 -.1.2-.1.52 0 .97l.07.07c0 .15.06.32.18.52 .125.2.18.375.18.52 .05 1-.03 1.85-.23 2.55l.15.45c.6.3.77.625.52.97l.375.15c.6.3 1.02.56 1.27.78 .25.22.5.46.75.71 .2.05.35.125.45.22l.22.07c1.05.7 2.1 1.55 3.15 2.55l.3.22v.07l-.08.15 .22.15h.07c.15.1.25.15.3.15h.07c.05 0 .1-.03.15-.08l.15-.08c.1-.1.2-.18.3-.23h.3c.05 0 .05.02 0 .07l-.3.15 -.375.45h.52l.52.07c.15-.05.27-.1.375-.15l.375-.23c.15-.05.3 0 .45.15h.07c.05.05.02.125-.08.22l-.9.82c-.25.2-.48.32-.68.375l-.98.67c-.05.05-.1.05-.15 0l-.23-.3 -.15-.3 -.19-.27 -.23-.3 -.19-.23 -.15-.19 -.3-.23c-.1 0-.2-.03-.3-.08l-.98-.75c-.15 0-.33-.08-.53-.23 -.75-.65-1.25-1.05-1.5-1.2l-.45-.3 -.9-.15c-.3-.05-.7-.2-1.2-.45l-.6-.3c-.4-.2-.68-.3-.83-.3l-.3-.15c-.2-.05-.35-.1-.45-.15l-.15-.15c-.1 0-.2.02-.3.07l-1.5.75 -1.88.82c-.5.4-.98.72-1.43.97l-.83.375 -1.28.9c-.1.1-.2.1-.3 0l-.15.15c-.15.05-.25.07-.3.07l-.3.15v.15H3l-.15.22c-.1.2-.2.31-.3.33 -.1.02-.17.06-.19.11v0c-.02.04-.05.07-.08.11l-.15.15 -.23.15 -.34-.04 -.45.07 -.3.07c-.25.05-.45.01-.6-.12 -.15-.125-.28-.32-.38-.57 -.1-.15-.05-.28.15-.375l.07-.08c.05-.05.125-.08.22-.08h.45l.6-.23 .3-.08c0-.1.02-.18.07-.23 .05-.05.125-.08.22-.08v-.08h0c-.05-.1-.08-.2-.08-.3 -.05-.1-.07-.18-.04-.23 .02-.05.05-.08.07-.08h.03l.07.22c.05.25.125.32.22.22l.07-.15c.05-.1.125-.15.22-.15l.15.15 .15-.15 -.08-.08c0-.05.02-.08.07-.08l.3-.3c.25-.3.55-.58.9-.83 .7-.55 1.45-.98 2.25-1.28 .25-.25.52-.375.82-.375 .2-.35.5-.73.9-1.13 .35-.25.6-.43.75-.53 .1-.2.22-.3.375-.3h.07l.15-.15c.1-.05.17-.1.22-.15v-.375c0-.25.02-.45.07-.6 .05-.15.17-.23.375-.23l.3-.3c-.1-.2-.15-.43-.15-.68h-.08c-.1-.15-.15-.3-.15-.45 -.15-.25-.25-.45-.3-.6h-.23c-.05.15-.18.25-.375.3l-.08.15c-.2.35-.375.61-.53.78 -.15.17-.43.38-.83.63 -.25.25-.43.52-.53.82 -.05.15-.05.3 0 .45l-.08.15h.07c0 .1.02.15.07.15h.07c.1.05.15.11.15.18 0 .07-.08.1-.23.07h0c-.13-.02-.25-.07-.34-.15 -.08-.08-.14-.12-.19-.12l-.23.22c-.1.15-.2.21-.3.18 -.1-.03-.125-.07-.08-.12l.07-.08c.05-.1.05-.15 0-.15l-.6.15c-.05.05-.12.05-.19 0 -.08-.05-.07-.1.03-.15l.375-.15c0-.05-.03-.08-.08-.08 -.2.1-.4.125-.6.07l-.375-.08 -.08-.08c0-.05.02-.08.07-.08 .2.05.45.02.75-.08l.52-.23 .6-.68 .07-.15c.2-.4.41-.77.63-1.09H7.08c.19-.3.43-.57.71-.79l.07-.3c.1-.2.2-.375.3-.53 .1-.15.22-.35.375-.6l.22-.3c.2-.3.42-.45.67-.45l.22-.23c.05-.05.07-.125.07-.23L9.86 9l-.08-.08c-.3-.25-.45-.48-.45-.68 -.05-.35.06-.65.33-.9s.55-.37.82-.34c.27.02.48.11.63.26l.15.15c.05 0 .07.02.07.07l.3.15v.22c.1.1.15.17.15.22 .1-.15.25-.33.45-.53l.375-1.2c0-.2.05-.4.15-.6l.15-.23v-.15l.22-.9h.15l.22-.9v0c.05-.18.05-.36 0-.53l-.3-.75 -.15-.6Z"/></svg>