<svg viewBox="0 0 24 24" xmlns="http://www.w3.org/2000/svg"><path d="M8.55 20.407c-.63 0-1.08-.03-1.08-.03v-3.17h1.07c1.19 0 1.95.33 1.95 1.42 0 .93-.33 1.76-1.95 1.76m.02-3.965H6.58v7.55h.87v-2.8h1.27c1.78 0 2.63-1.096 2.63-2.49 0-1.42-.88-2.279-2.8-2.279m4.78 4.13h3.06v-.82h-3.07v-2.55h3.54v-.77h-4.42v7.42H17v-.77h-3.7Zm8.11-.64v.75h1.28v1.86c-.4.58-1.46.58-1.46.58 -.81 0-1.46-.28-1.93-.84 -.47-.56-.71-1.16-.71-2.06 0-.95.23-1.68.71-2.26 .48-.59 1.15-.91 1.98-.91 .42 0 .88.13 1.33.4l.53-.61c-.49-.4-1.1-.593-1.84-.593 -1.11 0-2.01.36-2.66 1.08 -.66.71-.99 1.66-.99 2.83 0 1.16.3 2.04.9 2.74 .59.69 1.42 1.04 2.44 1.04 .46 0 .93-.05 1.42-.2 .37-.12.5-.22 1.07-.22v-3.65ZM3.81 16.396h-.59v.76h.58v3.57c0 1.1.03 1.74-.35 2.12H3.44c-.24.22-.55.36-.87.36 -1.362 0-1.412-1.1-1.412-1.1H.32c.08 1.94 2.36 1.81 2.36 1.81 .6-.04 1.08-.24 1.46-.61 .49-.5.5-1.43.5-2.192v-4.75ZM17.3-.05H3.01V14.23h8.266V8.21h6.02Zm.68 9.067h5.21v5.21h-5.22Z"/></svg>