<svg viewBox="0 0 24 24" xmlns="http://www.w3.org/2000/svg"><path d="M13.9 3.6c-2.75 0-5.103 1.544-6.35 3.77 -.54-.32-1.14-.54-1.806-.54 -1.99 0-3.6 1.6-3.6 3.57 0 .26.06.51.11.76 -1.35.9-2.27 2.42-2.27 4.16 0 2.763 2.241 5.01 5.008 5.05H4.99s0 0 0 0h14c2.74.01 4.98-2.21 4.98-4.94 0-1.95-1.16-3.61-2.8-4.41 0-.07.01-.12.01-.19 0-4.01-3.28-7.27-7.31-7.27Zm0 .84c3.58 0 6.47 2.872 6.47 6.42 0 .11-.02.24-.02.38v0c-.02.17.09.34.26.41v0c1.53.63 2.54 2.12 2.54 3.79v0c0 2.26-1.84 4.09-4.1 4.09 -.02 0-.03-.01-.05-.01h-.001c-.01-.01-.01-.01-.01 0h-14C2.66 19.48.8 17.61.8 15.3c-.001-1.55.83-2.89 2.08-3.62v0c.16-.1.24-.31.18-.49H3.06c-.09-.27-.13-.54-.13-.82h0c0-1.52 1.23-2.74 2.74-2.74 0 0 0 0 .01 0V7.62c.61-.01 1.2.2 1.686.57H7.37c.18.14.44.1.59-.08 .01-.03.03-.05.04-.08l0 0c1.07-2.25 3.34-3.67 5.834-3.67Zm-5.33 6.877c-1.59 0-2.91 1.21-2.91 2.737 0 1.52 1.32 2.73 2.91 2.73 1.41 0 2.18-.94 2.49-1.27v0c.15-.17.15-.44-.02-.6 -.17-.16-.44-.16-.6.01 -.38.4-.82 1-1.89 1 -1.162 0-2.07-.86-2.07-1.9s.9-1.9 2.06-1.9c.53 0 1.1.29 1.686.77 .37.3.73.66 1.09 1.04v0c.02.04.04.08.08.12 .53.55 1.12 1.2 1.77 1.73 .65.53 1.38.95 2.21.95 1.58 0 2.91-1.22 2.91-2.74 0-1.53-1.33-2.737-2.91-2.737 -1.42 0-2.19.93-2.5 1.266v0c-.16.16-.16.43.01.59 .16.15.43.15.59-.02 .37-.41.81-1.01 1.88-1.01 1.16 0 2.06.86 2.06 1.89 0 1.03-.91 1.89-2.07 1.89 -.54 0-1.11-.3-1.686-.77 -.38-.31-.74-.67-1.1-1.05v0c-.03-.05-.05-.09-.09-.13 -.54-.56-1.13-1.21-1.78-1.74 -.66-.53-1.39-.96-2.22-.96Z"/></svg>