<svg viewBox="0 0 24 24" xmlns="http://www.w3.org/2000/svg"><path d="M12.043 23.96c.47-.01.95-.03 1.42-.1h0c1.08-.15 2.14-.44 3.14-.87v0c1.41-.61 2.69-1.47 3.79-2.55v0c1-.99 1.83-2.15 2.44-3.43v0c.51-1.1.86-2.28 1.02-3.48 .14-1.16.13-2.346-.05-3.5v0c-.16-.96-.42-1.9-.8-2.79l-.001 0c-.25-.57-.53-1.11-.86-1.62 -1.17-1.84-2.87-3.32-4.81-4.3h-.001c-.7-.36-1.43-.65-2.18-.87h-.01c.11.06.24.13.34.2 .12.07.23.14.35.22l0 0c.56.38 1.09.82 1.55 1.33 1.06 1.145 1.79 2.54 2.21 4.041 .28.98.43 1.99.49 3.01 .04.74.04 1.49-.05 2.22 -.15 1.27-.56 2.51-1.23 3.596H18.8c-.5.8-1.15 1.51-1.91 2.08 -1.25.92-2.88 1.48-4.44 1.11v0c-.26-.07-.51-.15-.75-.26v0c-.28-.13-.54-.28-.78-.45h0c-.47-.31-.89-.69-1.25-1.11h0c-.44-.53-.8-1.12-1.05-1.75v0c-.32-.82-.49-1.68-.5-2.54 -.03-1.28.22-2.56.85-3.67v0c.42-.75.98-1.4 1.66-1.92 .22-.18.46-.34.7-.48l.01-.01V6.06c-.48-.11-.96-.15-1.45-.12L9.88 5.94c-.42.02-.84.1-1.23.24 -.359.12-.71.27-1.02.45h0c-.26.14-.51.31-.74.49 -.22.18-.42.36-.62.55 -1.13 1.15-1.77 2.68-2.03 4.25 -.15.97-.15 1.96-.1 2.95 .1 1.39.391 2.78.94 4.06h0c.33.78.79 1.52 1.34 2.17H6.42c.85.98 1.92 1.74 3.13 2.23v0c.67.27 1.38.45 2.11.54 .07.01.14.01.2.01Zm-2.94-.4h-.001c-.16-.07-.31-.15-.45-.23v0c-.76-.41-1.44-.93-2.04-1.54 -1.1-1.14-1.827-2.57-2.25-4.08v0c-.28-1.04-.45-2.11-.5-3.18l-.001-.001c-.05-.7-.03-1.4.04-2.09 .13-1.26.49-2.51 1.12-3.58H5.02c.45-.8 1.05-1.5 1.78-2.06l0 0c.49-.39 1.04-.69 1.63-.9h-.001c1.13-.42 2.37-.43 3.52-.05 .02 0 .02 0 .04.03 .01.01.04.01.06.03 .04.01.1.04.16.07 .23.12.47.27.7.42l-.001-.001c.9.63 1.63 1.49 2.09 2.5 .42.91.61 1.93.63 2.93 .01 1.07-.18 2.157-.65 3.14v0c-.57 1.19-1.49 2.18-2.638 2.83 .09.03.18.04.27.07 .22.04.44.07.68.07 1.468.04 2.89-.66 3.94-1.65 .19-.18.375-.38.54-.59 .22-.27.43-.54.61-.83 .23-.375.43-.75.61-1.154v-.001c.22-.54.39-1.1.5-1.67 .19-1.01.21-2.03.14-3.026 -.14-2.03-.68-4.05-1.85-5.724v0c-.18-.25-.36-.49-.56-.72v0c-.33-.38-.69-.72-1.07-1.04v0c-.43-.35-.89-.66-1.37-.92l0-.001c-.55-.26-1.12-.46-1.7-.6l-.3-.06c-.21-.03-.42-.05-.64-.06v0c-.34-.02-.68-.01-1.02.01C10.41-.06 9.7.06 9 .23c-3.36.86-6.3 3.2-7.86 6.3l0 0C.64 7.51.28 8.57.07 9.66v0c-.24 1.24-.28 2.51-.11 3.77 .12 1.02.374 2.02.778 2.97 .22.57.51 1.12.82 1.64 1.09 1.78 2.68 3.23 4.51 4.24 .68.39 1.4.69 2.15.94 .22.07.45.15.68.21Z"/></svg>