<svg viewBox="0 0 24 24" xmlns="http://www.w3.org/2000/svg"><path d="M10.2 0v6.456l1.8 2.47 1.8-2.48V-.02Zm3.6 6.456v3.072l2.9-.96 3.81-5.21 -2.93-2.14Zm2.9 2.11l-1.8 2.49 2.92.93 6.14-2 -1.13-3.44Zm1.12 3.43l-2.93.93 1.8 2.49 6.14 1.99 1.12-3.44Zm-1.13 3.43l-2.904-.96v3.07l3.79 5.23 2.92-2.14Zm-2.904 2.11l-1.8-2.48 -1.8 2.47v6.45h3.6Zm-3.6 0v-3.08l-2.91.96 -3.82 5.2 2.92 2.13ZM7.27 15.42l1.8-2.5 -2.93-.94 -6.15 1.99 1.12 3.43Zm-1.13-3.44l2.92-.94 -1.8-2.5L1.11 6.55 -.02 9.98Zm1.12-3.44l2.9.96V6.42L6.37 1.19 3.44 3.32Z"/></svg>