<svg viewBox="0 0 24 24" xmlns="http://www.w3.org/2000/svg"><path d="M0 2.5v19h19.2v-1.95c.5.26 1.12.42 1.85.42 1.68 0 2.94-.88 2.94-2.48 0-1.49-.86-2.15-2.36-2.79l-.45-.19c-.77-.33-1.1-.55-1.1-1.08 0-.44.33-.77.85-.77 .51 0 .83.21 1.14.76l1.38-.89c-.59-1.029-1.4-1.43-2.53-1.43 -.72 0-1.32.2-1.76.55V2.46Zm.36.359h18.48v9.182l0 0c-.33.4-.5.91-.49 1.43 0 .65.17 1.15.48 1.55v2.53l-1.02.59c.23.45.57.86 1.01 1.17v1.81H.34Zm14.18 8.26c-1.59 0-2.6 1.01-2.6 2.346 0 1.44.85 2.13 2.13 2.67l.44.19c.81.35 1.29.57 1.29 1.18 0 .5-.47.875-1.205.875 -.88 0-1.38-.46-1.76-1.08l-1.45.83c.52 1.03 1.58 1.81 3.23 1.81 1.68 0 2.94-.88 2.94-2.48 0-1.49-.86-2.15-2.37-2.79l-.45-.19c-.77-.33-1.1-.55-1.1-1.08 0-.44.33-.77.85-.77 .51 0 .83.21 1.14.76L17 12.5c-.59-1.029-1.4-1.43-2.53-1.43Zm-5.87.1v6.03c0 .88-.37 1.11-.96 1.11 -.61 0-.87-.42-1.15-.92l-1.45.875c.41.88 1.242 1.62 2.66 1.62 1.57 0 2.65-.84 2.65-2.68v-6.07Zm10.52 4.173c.34.29.78.532 1.28.74l.44.19c.81.35 1.29.57 1.29 1.18 0 .5-.47.875-1.21.875 -.88 0-1.37-.46-1.76-1.08l-.07.03Z"/></svg>