<svg viewBox="0 0 24 24" xmlns="http://www.w3.org/2000/svg"><path d="M11.13 17.569v0c0 3.07-2.5 5.56-5.57 5.56 -3.08 0-5.57-2.5-5.57-5.57 -.001-.01-.001-.01-.001-.01v0c-.01-3.08 2.49-5.57 5.56-5.57 3.07-.01 5.56 2.49 5.56 5.56 0 0 0 0 0 0Zm6.43-11.14v0c0 3.07-2.5 5.56-5.57 5.56 -3.08 0-5.57-2.5-5.57-5.57 -.001-.01-.001-.01 0-.01v0C6.41 3.32 8.91.83 11.98.83c3.07-.01 5.56 2.49 5.56 5.56 0 0 0 0 0 0Zm6.43 11.13v0c0 3.07-2.5 5.56-5.57 5.56 -3.08 0-5.57-2.5-5.57-5.57 0-.01 0-.01 0-.01v0c-.01-3.08 2.49-5.57 5.56-5.57 3.07-.01 5.56 2.49 5.56 5.56 0 0 0 0 0 0Z"/></svg>