<svg viewBox="0 0 24 24" xmlns="http://www.w3.org/2000/svg"><path d="M23.08 13.16c.04 0 .07-.02.07-.07s-.03-.06-.08-.06h-.11v.12Zm-.11.04v.12h-.05v-.34h.14c.08 0 .11.03.11.1 0 .05-.03.09-.09.1l.07.13h-.05l-.08-.13Zm.07-.3h0c-.14 0-.26.11-.26.25 0 .13.11.25.25.25h0c.13-.01.25-.12.25-.26v0c-.01-.14-.12-.26-.26-.26Zm-.3.25l0-.001c0-.17.13-.3.29-.3v0c.16 0 .29.13.29.29v0c-.01.16-.14.29-.3.29v0c-.17-.01-.3-.14-.3-.3Zm-20.75-.67V8.8h-.43v3.67c0 .85.03 1.53-1.45 1.53h0c-.06-.01-.11-.01-.17-.01v.39H-.07c.05 0 .1 0 .16 0 1.78 0 1.86-.81 1.86-1.93Zm15.54-1.7h3.13c-.05-.92-.11-1.71-1.45-1.71 -1.29 0-1.65.69-1.7 1.7Zm1.7-2.09c1.79 0 1.85 1.2 1.84 2.47h-3.56c0 1.12.28 1.95 1.74 1.95 .77 0 1.12-.22 1.5-.49l.23.31c-.43.31-.92.55-1.75.55 -1.82 0-2.16-1.06-2.16-2.41 0-1.36.38-2.41 2.12-2.41Zm-4.15 2.7c.74 0 1.11-.37 1.11-1.1 0-.74-.4-1.08-1.14-1.08h-1.73v2.17Zm-.01-2.59c1.06 0 1.55.53 1.55 1.47s-.48 1.52-1.56 1.52h-1.74v1.59h-.42v-4.6Zm-2.93 0v4.59h-.42v-4.6Zm-1.2 4.59h-.43v-2.82c0-.81 0-1.5-1.48-1.5s-1.45.68-1.45 1.53v2.77h-.43v-2.78c0-1.13.07-1.93 1.86-1.93s1.9.8 1.9 1.89ZM2.69 8.78h.42v2.81c0 .8-.01 1.49 1.47 1.49 1.47 0 1.44-.69 1.44-1.54V8.76h.42v2.77c0 1.12-.08 1.92-1.87 1.92 -1.8 0-1.91-.81-1.91-1.9Zm18.96 1.83v2.77h.42V10.6c0-.86-.04-1.54 1.44-1.54 .15 0 .29 0 .42.02v-.41h-.001c-.15-.02-.29-.02-.43-.02 -1.79 0-1.87.8-1.87 1.92Zm-.44 4.36c.15.09.3.12.45.12 .26 0 .37-.08.37-.25 0-.18-.16-.21-.38-.25 -.28-.05-.46-.1-.46-.36 0-.25.15-.35.45-.35 .19 0 .34.04.44.11l-.08.1c-.1-.06-.23-.1-.38-.1 -.23 0-.33.06-.33.21 0 .16.13.19.35.23 .27.04.47.09.47.36 0 .25-.17.37-.51.37 -.2 0-.37-.04-.53-.15Zm-.79-.45l-.26.27v.39h-.14V13.9h.13v.7l.64-.71h.15l-.46.49 .51.77h-.16l-.46-.68m-1.11.03c.18 0 .29-.06.29-.26s-.11-.25-.3-.25h-.42v.5Zm-.04.12h-.39v.51h-.14v-1.28h.54c.29 0 .42.11.42.37 0 .21-.11.34-.33.37l.3.52h-.15l-.31-.52m-.93-.12c0-.35-.16-.53-.51-.53s-.51.18-.51.52 .15.52.5.52c.34 0 .5-.19.5-.53Zm-.51-.66c.4 0 .64.2.64.65s-.24.65-.65.65c-.41 0-.64-.21-.64-.66 0-.46.23-.66.63-.66Zm-2.36.02l.33 1.05 .34-1.06h.11l.33 1.05 .33-1.06h.13l-.41 1.27h-.12l-.35-1.06 -.35 1.05h-.12l-.41-1.28Zm-1.4.12v-.13h1.08v.12h-.48v1.14h-.14v-1.15Zm-.21-.13v.12h-.71v.42h.68v.12h-.69v.47h.71v.12h-.85v-1.28Zm-2.06 0l.75 1.04v-1.05h.13v1.27h-.13L11.65 14v1.07h-.14v-1.28Z"/></svg>