<svg viewBox="0 0 24 24" xmlns="http://www.w3.org/2000/svg"><path d="M11.88 9.769c1.64 0 2.95.43 3.91 1.3 .96.87 1.44 2.06 1.44 3.56 0 1.74-.55 3.1-1.65 4.09 -1.09.97-2.638 1.46-4.65 1.46 -1.83 0-3.26-.3-4.303-.89V16.9h0c.65.36 1.35.62 2.07.79 .782.18 1.5.28 2.18.28 1.18 0 2.08-.27 2.7-.8 .61-.53.92-1.31.92-2.33 0-1.952-1.25-2.93-3.74-2.93 -.35 0-.79.03-1.3.11 -.52.06-.97.14-1.36.23l-1.18-.7 .62-7.98h8.49V5.9H9.83l-.37 4.04c.26-.05.57-.1.95-.16s.843-.09 1.38-.09ZM11.99 0c-6.627 0-12 5.373-12 12v0c0 4.55 2.57 8.7 6.65 10.738v-3.68h.13c.01 0 4.86 2.46 8.021 0 3.16-2.468 1.62-5.785 1.08-6.56 -.54-.78-3.317-2.083-5.708-1.86 -2.391.23-2.391.3-2.391.3l.61-7.096 7.68-.08V.71v0c-1.32-.49-2.7-.74-4.1-.75Zm4.09.744v3.04l-7.69.07 -.617 7.09s0-.08 2.39-.31c2.39-.24 5.16 1.08 5.708 1.85 .54.77 2.08 4.08-1.08 6.55 -3.16 2.46-8.013 0-8.02 0h-.14v3.67H6.63c1.66.82 3.49 1.26 5.35 1.26 6.628 0 12-5.38 12-12v0c-.01-4.95-3.05-9.38-7.65-11.17 -.09-.03-.17-.06-.26-.09ZM6.28 22.556Z"/></svg>