<svg viewBox="0 0 24 24" xmlns="http://www.w3.org/2000/svg"><path d="M7.157 22.201h-.001c0 .99-.8 1.79-1.79 1.79v0c-.99 0-1.79-.81-1.79-1.8v0c0-1 .79-1.8 1.78-1.8v0c.98 0 1.78.8 1.78 1.79ZM20.57 1.42v0c0 .78-.64 1.42-1.42 1.42 -.01 0-.01 0-.01 0v0c-.79 0-1.42-.64-1.42-1.43 -.01-.01-.01-.01-.01-.01h-.001c-.01-.79.63-1.43 1.41-1.43 0-.001 0 0 0 0V-.03c.78 0 1.41.63 1.41 1.42ZM4.98 3.32H4.98c-.01.58-.47 1.05-1.05 1.05v0c-.58 0-1.05-.48-1.05-1.06v0c0-.59.46-1.06 1.04-1.06v0c.57 0 1.04.47 1.04 1.05Zm7.33 1.51c3.76 0 7.06 1.38 8.76 3.42v0c-.64-1.84-1.82-3.42-3.4-4.55l0-.001c-1.57-1.13-3.45-1.73-5.38-1.73v0c-1.93 0-3.81.6-5.38 1.72l0-.001c-1.58 1.12-2.77 2.71-3.4 4.54 1.713-2.04 5-3.43 8.77-3.43Zm0 13.29c-3.77 0-7.06-1.39-8.768-3.43h0c.63 1.83 1.81 3.41 3.39 4.54h0c1.56 1.12 3.44 1.72 5.37 1.73v0c1.92-.01 3.8-.61 5.37-1.73v-.001c1.57-1.13 2.75-2.72 3.39-4.55 -1.72 2.04-5.003 3.42-8.78 3.42Z"/></svg>