<svg viewBox="0 0 24 24" xmlns="http://www.w3.org/2000/svg"><path d="M17.34 0l-.001 0c-2.02.01-3.65 1.65-3.65 3.67l0-.001c-.01 2.02 1.64 3.67 3.67 3.67 0 0 0 0 0-.01v0c2.02 0 3.67-1.65 3.67-3.68 0-2.03-1.65-3.68-3.68-3.68 -.01-.01-.02 0-.03 0ZM4.62.15v0C3.1.14 1.87 1.37 1.87 2.89c-.01 0-.01 0-.01 0V21.05h0c-.03 1.51 1.18 2.76 2.7 2.78 1.51.02 2.76-1.19 2.78-2.71 0-.03 0-.06 0-.09V2.86v0C7.33 1.34 6.1.11 4.59.11Zm6.94 7.2v0c-1.51-.01-2.73 1.21-2.74 2.72 -.01.56.17 1.1.49 1.56l7.81 11.15v0c.85 1.24 2.55 1.55 3.79.7 1.24-.86 1.55-2.56.7-3.8 -.01-.02-.02-.03-.03-.04L13.76 8.48v0c-.52-.73-1.35-1.17-2.24-1.17Z"/></svg>