<svg viewBox="0 0 24 24" xmlns="http://www.w3.org/2000/svg"><path d="M22.125 0H1.875C.835 0 0 .83 0 1.875v20.25C0 23.155.83 24 1.875 24h20.25c1.03 0 1.875-.84 1.875-1.875V1.875C24 .835 23.16 0 22.125 0ZM12 18.75c-.6 0-1.17-.05-1.74-.13 -.57.39-3.82 2.67-4.12 2.72 0 0-.13.04-.24-.02 -.11-.07-.09-.23-.09-.23 .03-.22.84-3.02.992-3.54 -2.75-1.36-4.58-3.77-4.58-6.52 0-4.25 4.36-7.69 9.75-7.69 5.38-.001 9.75 3.44 9.75 7.68s-4.37 7.68-9.75 7.68ZM8.04 9.86h-.88v3.34c0 .29-.26.53-.57.53 -.32 0-.57-.25-.57-.54V9.84h-.88c-.31 0-.56-.25-.56-.56 0-.31.24-.56.55-.56h2.88c.3 0 .55.24.55.55 0 .3-.25.55-.56.55Zm10.98 2.95v0c.09.11.12.26.1.41v0c-.03.14-.1.28-.22.37v0c-.1.07-.22.11-.34.11v0c-.18 0-.35-.09-.45-.23l-1.32-1.75 -.2.19v1.22 0c-.01.31-.26.56-.57.56v0c-.32-.01-.57-.26-.57-.57V9.27c0-.32.25-.57.56-.57 .31 0 .56.25.56.56v1.2l1.56-1.57c.08-.09.19-.13.31-.13 .14 0 .28.06.38.16 .09.09.15.22.16.35 0 .13-.04.25-.13.34l-1.29 1.28 1.38 1.83ZM10.66 9.3c-.1-.27-.39-.55-.76-.56 -.37 0-.66.28-.75.55L7.8 12.83c-.18.53-.03.72.13.79v-.001c.11.05.23.07.35.07 .23 0 .41-.1.46-.25l.27-.73 1.71 0 .27.72c.05.15.23.24.46.24v0c.12 0 .24-.03.35-.08 .15-.08.3-.27.13-.8l-1.35-3.54Zm-1.32 2.44l.56-1.6 .56 1.59H9.33Zm5.9 1.38c0 .28-.25.51-.54.51h-1.81c-.3 0-.54-.24-.54-.52V9.28c0-.32.25-.57.57-.57 .31 0 .57.25.57.56v3.3h1.19c.29 0 .53.23.53.51Z"/></svg>