<svg viewBox="0 0 24 24" xmlns="http://www.w3.org/2000/svg"><path d="M10.81 12.01c0 .91-.56 1.34-1.25 1.34h-.43v-.55h.39c.41 0 .69-.23.69-.8 0-.57-.27-.85-.71-.85 -.43 0-.74.26-.74.83v2.282h-.58v-3.59h.58v.3h.08v0c.18-.25.47-.39.77-.375 .64 0 1.17.46 1.17 1.38ZM7 11.77l-.39-.04c-.31-.03-.47-.11-.47-.29 0-.21.2-.33.49-.33 .3 0 .49.14.51.34h.55c-.03-.52-.43-.84-1.064-.84 -.65 0-1.08.34-1.08.843 0 .42.26.69.86.75l.39.03c.23.02.39.07.39.29 0 .2-.15.35-.54.35 -.37 0-.54-.17-.601-.39h-.61c.06.5.48.89 1.2.89 .67 0 1.12-.359 1.12-.89 0-.47-.31-.71-.81-.76Zm6.04.75c-.1.2-.31.36-.62.36 -.43 0-.74-.28-.74-.88 0-.57.29-.89.74-.89 .4 0 .63.24.657.6h-1.05v.42h1.61v-.28c0-.766-.51-1.27-1.23-1.27 -.68 0-1.32.45-1.32 1.39 0 .93.64 1.39 1.31 1.39 .61 0 1.05-.38 1.19-.89Zm-9.13-1.9c-.64 0-1.108.33-1.17.83h.62c.04-.19.21-.33.54-.33 .42 0 .55.22.55.49v.91c-.24.27-.52.39-.79.39 -.29 0-.49-.14-.49-.39 0-.24.15-.39.45-.39h.46v-.42H3.6c-.67 0-1.04.33-1.04.83 0 .47.35.83.948.83 .33 0 .62-.14.83-.3h.08v.22h.57v-1.78c0-.66-.45-.95-1.14-.95Zm-3.93 2.72h.57V9.7h-.58Zm2.43-2.66H1.7l-.85 1.1v.34l.86 1.202h.71l-1.02-1.38Zm20.92 0l-.48 1.05c-.12.25-.23.5-.26.66h-.09c-.04-.17-.15-.41-.27-.67l-.48-1.06h-.64l1.11 2.38 -.56 1.202h.61l1.65-3.59Zm-2.33 0h-.71l-.843 1.1v.34l.86 1.202h.71l-1.02-1.38Zm-3.625 1.08l-.39-.04c-.31-.03-.47-.11-.47-.29 0-.21.2-.33.49-.33 .3 0 .49.14.51.34h.55c-.03-.52-.43-.84-1.064-.84 -.65 0-1.09.34-1.09.843 0 .42.26.69.86.75l.39.03c.23.02.39.07.39.29 0 .2-.15.35-.54.35 -.36 0-.54-.17-.6-.39h-.61c.06.5.48.89 1.2.89 .67 0 1.12-.359 1.12-.89 0-.47-.31-.71-.81-.76Zm1.19 1.57h.58V9.69h-.58Zm-3.817-2.35h-.09v-.31h-.58v2.65h.57v-1.39c0-.48.21-.75.65-.75h.36v-.59h-.22c-.4 0-.57.15-.73.375Z"/></svg>