<svg viewBox="0 0 24 24" xmlns="http://www.w3.org/2000/svg"><path d="M6.24 3.623h-.001c-.08-.01-.16-.01-.23.01 -.2.08-.35.46-.46 1.1 -.19 1.09-.18 2.53.01 3.59l.05.26 -.21-.19c-.23-.21-.63-.476-.81-.56v-.001c-.31-.14-.64-.18-.96-.12v0c-.13.02-.25.04-.363.05 -.34.04-.573.15-.84.41v0c-.19.17-.33.39-.41.63 -.05.13-.06.18-.06.42 0 .21.01.3.06.47 .07.27.31.88.36.91 .08.05.13 0 .23-.2 .1-.23.29-.45.43-.51 .09-.05.24-.06.26-.03 .01.02-.2.34-.44.65 -.2.26-.258.38-.3.61 -.08.51.19 1.07.61 1.279 .254.12.383.14.79.14 .37-.01.36-.01.61-.09l-.001-.001c.15-.06.3-.1.46-.14l.21-.05 .01.04c.02.05 0 .1-.12.32 -.22.38-.25.42-.43.51 -.44.22-1.06.33-1.37.22v0c-.14-.04-.28-.07-.42-.09 -1.12-.18-1.19-.2-1.34-.34 -.18-.17-.33-.51-.47-1.05 -.05-.18-.09-.31-.1-.3l-.12.41c-.27.95-.32 1.05-.663 1.41H.21c-.11.1-.21.21-.31.33 -.05.05-.05.16-.02.18h0c.03.03.05.06.08.1 .07.12.6.64.815.8 .25.19.393.26.8.43 .72.28.89.31 1.97.38 .39.02.73-.05.93-.19 .04-.04.15-.09.23-.12 .08-.03.23-.09.33-.13 .09-.05.18-.08.19-.08 .01 0 .05.14.09.33 .04.18.08.34.08.36 0 .01.02-.16.04-.39 .02-.42.02-.42.08-.47l.05-.05 .01.06c.01.03.03.13.05.21 .04.2.14.44.24.59 .08.12.359.47.37.46v0c-.01-.13-.01-.25-.02-.36 -.02-.25-.02-.36-.01-.375 .01-.02.05.03.133.15 .52.86 1.42 1.72 2.38 2.295 .95.56 2.43 1.12 3.84 1.45 .33.07.91.18.97.18 .02 0 .1.04.2.1 .66.4 1.5.61 2.09.532 .49-.08 1.1-.38 1.404-.7v-.001c.06-.08.15-.14.25-.17v0c.37-.15.72-.34 1.06-.55 .44-.3.74-.58.96-.93h-.001c.08-.13.18-.25.29-.35v0c.48-.5.86-1.09 1.12-1.73 .1-.28.21-.73.25-1.04h0c.04-.46.03-.92-.03-1.37l-.04-.21 .33-.32c1.22-1.18 1.97-2.36 2.23-3.55 .09-.42.1-.89.01-1.06 -.08-.15-.18-.13-.78.15 -.86.4-1.34.55-1.98.6 -.26.02-.7 0-.84-.04v0c-.06-.04-.11-.09-.14-.15 -.28-.39-.82-.94-1.25-1.28 -.47-.38-1.15-.78-1.64-.96l-.19-.07 .13-.08c.21-.12.62-.29.81-.34 .09-.03.35-.07.57-.11l.4-.06 -.49-.08c-1.02-.15-1.72-.21-2.45-.22 -.28 0-.5-.01-.5-.01 0-.01.04-.07.1-.133 .23-.29.4-.63.47-.94 .01-.09.03-.29.04-.44l.01-.28 -.17.21v0c-.22.3-.51.55-.84.73 -.41.23-.77.33-1.51.41 -1.56.17-2.654.33-3.144.45l-.21.05 -.1-.07h0c-.1-.07-.2-.14-.3-.21L9.64 5.3c-.61-.46-1.27-.84-1.96-1.15v0c-.36-.17-.71-.36-1.04-.57 -.45-.28-.56-.33-.79-.34Zm-.09.242c.02-.01.04-.01.08 0 .04 0 .13.03.2.06 .06.02.26.137.43.246 .46.29.71.42 1.12.6V4.77c.57.25 1.12.56 1.64.93 .64.45.84.64 1.3 1.24 .18.24.49.57.52.57 .02 0-.15-.34-.35-.68l0 0c-.12-.21-.26-.41-.41-.6 -.1-.12-.11-.11.15-.16l.15-.04 .17.16c.09.09.25.21.35.28 .19.12.35.28.48.47 .12.16.15.22.27.58 .11.34.15.43.19.45 .08.02.13-.06.17-.29 .09-.48.06-.75-.16-1.388h0c-.06-.15-.11-.31-.16-.46 0-.02.907-.15 1.02-.15 .02 0 .04.03.06.1 .04.18.1.3.32.59 .22.3.38.59.44.8 .02.06.06.3.1.52 .08.51.18.91.29 1.16 .12.28.15.43.16.78 .01.41.07.59.18.57 .07-.02.2-.51.24-.97 .04-.54.07-1.59.05-1.94 -.04-.46-.04-1.22 0-1.237 .01-.01.2-.02.42-.03l.4-.01 .09.1c.13.15.17.25.17.42 0 .17.1.56.22.91 .25.67.4 1.23.45 1.65v0c.02.14.01.29-.03.43 -.09.39-.13.66-.13 1.064 -.01.41.01.53.09.58 .16.08.36-.22.41-.65 .01-.1.09-.48.18-.84 .1-.43.17-.76.19-.95 .02-.24.12-.85.2-1.36l.01-.09 .26.17c.39.26.375.24.44.5 .09.31.16.61.23.93 .05.26.05.29.06 1.21 0 .84 0 .95.03 1.02 .02.05.05.08.08.08 .07 0 .22-.17.31-.33 .1-.21.13-.3.15-.48 .01-.19.04-.32.13-.7 .05-.22.08-.39.09-.58l.01-.28 .09.13c.2.26.16.24.45.27 .36.03.968.02 1.27-.05 .49-.1.98-.28 1.62-.58 .21-.1.39-.19.4-.19 .01 0 .01.11 0 .29 -.04.81-.47 1.83-1.17 2.72 -.44.56-1.25 1.407-1.28 1.32 -.01-.02-.06-.15-.11-.29 -.12-.32-.51-1.11-.54-1.08 -.01 0 .04.16.1.36 .06.19.11.37.12.4 0 .02.01.08.03.14 .01.05.02.1.01.1 -.03.02-.54.14-.84.19 -.87.14-1.74.13-2.48-.05 -.73-.17-1.37-.46-2.686-1.22 -1.6-.92-2.058-1.12-2.97-1.26 -.26-.04-.41-.05-.87-.05 -.84-.01-1.47.08-2.71.36 -.91.2-1.42.25-1.68.18 -.12-.04-.14-.05-.22-.19 -.06-.08-.12-.16-.14-.16 -.04-.01-.06-.07-.12-.35 -.12-.49-.11-.45-.08-.42 .03.04.03.07-.1-.46H5.7c-.15-.58-.26-1.16-.33-1.75 -.04-.36-.04-1.596 0-1.97 .08-.85.22-1.44.37-1.61 .02-.03.04-.05.06-.06Zm.37.97c0 .01.03.04.08.1 .06.07.43.46.82.84 .38.38.76.78.83.875 .484.65.85 1.7.7 1.99 -.1.18-.29.23-.47.11 -.12-.08-.29-.29-.375-.49h0c-.06-.14-.11-.28-.15-.43 -.05-.16-.08-.27-.08-.258l-.08.4c-.08.43-.11.88-.08 1.05 .02.14 0 .18-.07.09 -.05-.05-.07-.12-.1-.29v0c-.03-.16-.06-.31-.09-.47 -.06-.3-.05-.31-.11.3H7.34c-.02.15-.04.3-.06.45 -.05.21-.2.39-.32.39 -.1 0-.23-.07-.27-.15l-.05-.08 .01.07c.02.1.12.33.17.37 .05.04.24.03.35-.02v0c.1-.06.19-.15.25-.27 .03-.08.05-.09.08-.08 .02.01.09.02.15.02 .11 0 .13 0 .19-.06l.07-.07 -.01-.34c-.01-.23 0-.34.01-.34s.02 0 .02.01c0 .04.25.29.35.34v0c.2.1.44.09.63-.04 .26-.2.29-.61.08-1.25v0c-.15-.4-.33-.77-.56-1.13 -.28-.42-.89-.98-1.66-1.53 -.15-.11-.31-.23-.35-.26 -.04-.03-.05-.04-.04-.03Zm9.33.12v0c-.01.03-.02.07-.04.1 -.06.12-.22.37-.31.476l-.08.08 -.12-.12v0c-.05-.04-.09-.09-.12-.13 0-.01.08-.07.19-.13 .1-.07.25-.16.32-.21l-.001-.001c.04-.04.08-.07.13-.09ZM3.71 7.939v0c.17-.02.34-.02.51.01 .07.01.19.05.26.08 .11.05.48.28.54.34 .01.01.09.07.16.13 .14.11.33.33.44.48 .08.11.18.46.16.56 -.02.09-.15.23-.38.42 -.28.21-.35.33-.35.53 0 .18.1.44.27.66 .05.07.05.07.01.11 -.03.03-.06.04-.15.02 -.15-.02-.34-.1-.41-.16 -.05-.05-.06-.08-.07-.31l-.01-.26 -.09.17c-.11.21-.12.37-.04.49 .05.08.22.18.38.23l.1.03 -.18-.02h0c-.22-.02-.43-.11-.58-.27 -.16-.16-.21-.26-.19-.38 .02-.12.2-.47.35-.67 .06-.09.13-.2.15-.23l.03-.07 -.09.07v0c-.06.04-.12.09-.17.15l-.2.22c-.33.36-.39.55-.26.8 .12.24.508.516.77.55 .21.02.22.03.22.09 0 .09.06.18.16.24s.12.09.06.1v0c-.05 0-.1.01-.14.03v0c-.35.12-.71.21-1.07.26 -.74.04-1.3-.45-1.26-1.12 .01-.23.07-.36.28-.64 .42-.56.79-1.21.93-1.63 .14-.46.04-.782-.31-1.03 -.12-.08-.13-.07.03-.11Zm-.64.13c.04 0 .13.01.19.02 .23.05.44.19.508.36 .05.13.04.15-.09.14v0c-.08-.02-.16 0-.22.04v0c-.11.07-.2.16-.262.27 -.01.01.04 0 .11-.04 .16-.08.375-.09.44-.02 .06.06.04.14-.15.52l-.16.32 -.08-.02v0c-.08-.01-.15-.02-.22-.02v0c-.1-.01-.19.01-.26.06h0c-.16.1-.3.24-.4.4h0c-.02.03-.04.06-.06.08 -.03 0-.19-.47-.23-.67 -.08-.36-.04-.66.13-.95 .16-.29.52-.57.7-.57Zm2.81 1.8c.03-.03.04.03.14.34l.09.28 -.1.09v0c-.11.1-.17.25-.17.41v.1l-.125.02 -.125.01 -.09-.11c-.12-.16-.22-.37-.23-.51 -.01-.11-.01-.12.07-.21 .04-.06.15-.16.24-.22 .08-.07.19-.16.22-.2 .02-.03.03-.04.04-.05Zm4.62.64l-.001 0c.36-.02.74-.02 1.11 0 .13.01.37.04.51.07 .7.13 1.17.34 2.564 1.14 2.01 1.154 2.8 1.42 4.19 1.42v0c.61 0 1.22-.07 1.81-.23 .13-.04.23-.06.24-.06 .04.04.17.63.21.93 .03.26.03.87 0 1.1v0c-.05.28-.12.55-.22.827 -.25.64-.68 1.31-1.14 1.76l-.14.12 -.18-.07 -.24-.1c-.04-.02-.06-.05-.06-.07 0-.03-.01-.03-.03 0 -.02.02-.03.02-.03 0s-.05-.08-.1-.12v0c-.12-.12-.23-.24-.32-.36 -.27-.34-.5-.57-.7-.74 -.13-.1-.16-.15-.2-.25v0c-.08-.21-.14-.41-.17-.62l-.02-.13 .16.08c.09.04.26.12.38.17 .72.29 1.19.35 1.5.2 .27-.14.64-.7.83-1.28l.06-.2 .125-.03c.07-.02.17-.04.22-.05 .05-.01.09-.02.1-.04 .01-.03-.26-.19-.45-.27 -.41-.17-.91-.24-1.29-.18 -.25.04-.58.18-.81.33 -.32.21-.66.64-.81 1.02l-.06.14 -.02-.18v0c-.02-.3 0-.6.05-.89 .02-.12.03-.22.02-.21 -.03.01-.15.35-.2.53v0c-.13.45-.13.92-.02 1.37l.01.06 -.09-.05c-.22-.11-.52-.19-.89-.24V15.4c-.19-.03-.38-.04-.56-.01v0c-.17.01-.34.04-.51.08 -.13.03-.35.09-.49.12h-.001c-.62.16-1.26.24-1.9.24 -.96-.01-1.51-.11-2.15-.42 -.94-.45-1.9-1.24-3.02-2.48l0-.001c-.43-.47-.88-.91-1.35-1.33 -.31-.28-.4-.41-.476-.64 -.06-.17-.05-.27.03-.36l.05-.06 .05.08c.1.15.35.24.68.24 .31 0 .72-.07 1.72-.3H8.47c.48-.12.98-.2 1.48-.25l.32-.03Zm-4.69.79c.04 0 .08.01.09.04 .02.03.01.1-.02.27 -.04.21-.04.23 0 .3l.03.08 -.1.19h0c-.05.09-.1.19-.133.28l-.04.09 -.06-.05c-.1-.1-.15-.22-.15-.4 0-.16-.01-.17-.06-.22 -.04-.03-.07-.05-.09-.05H5.27c-.04-.01-.07-.03-.09-.05l-.06-.05 .04-.09c.07-.13.3-.35.4-.38v0c.05-.03.11-.04.17-.04Zm5.278.3c-.14 0-.28.01-.38.03 -.27.05-.55.16-.98.37 -.35.17-.62.32-.73.42 -.02 0 .05-.01.14-.03 .09-.03.3-.07.47-.09 .17-.03.34-.05.375-.06 .05-.01.07.01.24.23 .4.53.91 1.13 1.29 1.51 .27.27.44.4.55.42 .03 0 .16.03.29.05 .86.17 1.6.22 1.83.13 .22-.09.66-.41 1.05-.766 .12-.12.27-.25.35-.31 .09-.08.11-.1.07-.09 -.13.03-.32.06-.6.07 -.34.01-.6-.02-.79-.09 -.17-.07-.23-.12-.87-.7v-.001c-.23-.22-.47-.42-.72-.61 -.22-.17-.54-.32-.69-.34v0c-.09-.03-.17-.05-.24-.08v0c-.12-.05-.23-.08-.35-.1v-.001c-.13-.02-.25-.03-.38-.03Zm-4.781.28l.06.05c.03.03.26.23.5.46 .24.22.62.61.86.87 .92 1.016 1.6 1.63 2.35 2.12 1 .67 1.9.92 3.19.88 .79-.02 1.38-.12 2.199-.36 .69-.21 1.51-.12 2.1.23 .31.19.55.41.91.85 .34.42.43.5.71.64 .13.06.25.12.27.13 .04.01-.06.15-.29.39 -.41.41-1.03.8-1.71 1.05v0c-.11.03-.2.09-.27.18 -.2.2-.47.38-.83.52 -.6.23-1.27.15-2.09-.26 -.28-.14-.34-.18-.43-.28h-.001c-.07-.08-.13-.16-.18-.25l-.07-.125 .01.11c0 .05.02.14.03.17 .01.04.01.07.01.08 -.03.02-1.4-.28-1.44-.32 -.01-.01 0-.08.03-.15 .05-.17.07-.38.04-.42 -.05-.05-.16-.04-.28.02h0c-.1.04-.21.07-.32.08 -.12.01-.29.04-.4.07l-.19.05 -.13-.05c-.27-.1-.91-.36-.9-.38h0c.05-.06.11-.11.18-.15 .22-.17.43-.37.48-.45 .04-.08.04-.21-.01-.24 -.03-.02-.08-.02-.27.03v0c-.13.03-.26.05-.39.06l0 0c-.19.01-.37.05-.54.11v0c-.16.05-.33.07-.49.04 -.16-.02-.19-.03-.4-.17v0c-.3-.21-.58-.43-.85-.67l-.11-.1h.21c.19-.01.24-.01.53-.11 .45-.15.65-.29.64-.44 -.01-.09-.02-.09-.49-.15v0c-.18-.03-.36-.06-.53-.1v0c-.13-.04-.25-.07-.37-.09 -.16-.03-.27-.08-.52-.19l0 0c-.15-.07-.3-.14-.44-.2s-.19-.11-.36-.46v0c-.03-.06-.06-.12-.09-.18 -.02-.02-.18.18-.21.23 -.02.03-.04.09-.05.15l-.03.09 -.04-.14v-.001c-.07-.23-.11-.46-.11-.69 0-.18 0-.2.03-.19 .02 0 .12.03.22.05 .1.02.28.07.39.11 .2.07.21.07.6.07 .33 0 .43-.01.6-.05 .43-.1.46-.16.16-.37l0 0c-.12-.09-.22-.17-.33-.26v0c-.15-.13-.32-.24-.5-.31l0 0c-.09-.04-.17-.08-.24-.12 -.11-.07-.33-.3-.49-.52v0c-.07-.09-.14-.16-.21-.23l0-.001c-.1-.08-.21-.14-.32-.19 -.03-.01.06-.25.242-.57Zm4.8.24c.15 0 .29.01.31.02 .03.01.02.03-.08.16 -.19.24-.28.6-.25.968 .01.19.02.2-.17-.03h-.001c-.19-.21-.34-.45-.45-.7 -.17-.34-.17-.33-.05-.36v0c.21-.07.44-.1.67-.08Zm.6.12s.07.03.15.07c.07.04.2.12.28.17l.14.09 -.07.07c-.26.29-.29.76-.08 1.28 .04.1.06.18.04.18 -.05 0-.33-.15-.41-.21 -.17-.13-.38-.36-.44-.48h-.001c-.06-.09-.08-.2-.07-.3 0-.35.11-.65.31-.82v-.001c.03-.04.07-.07.12-.1Zm-10.62.25s.04.09.08.18c.12.3.28.5.46.6 .14.07.44.14.78.18 .5.06.71.1.883.15 .29.09.78.06 1.18-.08 .06-.03.12-.04.12-.03 0 .04-.25.23-.383.31 -.47.24-1.17.33-1.66.21 -.11-.03-.2-.05-.19-.04 .02.03.617.21.81.24 .19.03.44.03.58-.01 .04-.02.03 0-.04.04h0c-.35.21-.74.35-1.15.42l-.001-.001c-.16.02-.32.05-.472.09 -.25.05-.34.04-.63-.05 -.35-.12-.66-.33-1.041-.7l-.23-.22 .186-.19c.35-.37.4-.45.55-.93 .04-.14.09-.25.09-.24Zm4.33.17c.02-.02.04-.01.12.06 .03.02.03.03 0 .1h-.001c-.09.26-.17.53-.22.81 -.06.24-.06.32-.07.71 0 .23.01.49.01.57l.01.13 -.125.06c-.07.03-.17.07-.23.09v0c-.06.01-.11.03-.16.06 -.06.04-.16.07-.16.05l0-.001c0-.03.02-.06.04-.08v0c.02-.04.04-.08.06-.13 .02-.07.14-.38.26-.64h0c.02-.05.04-.11.06-.16 -.01 0-.06.11-.125.24 -.16.31-.36.62-.484.72 -.21.17-.45.2-1.07.16 -.69-.05-.91-.09-1.366-.26 -.37-.13-.8-.32-.8-.34 0-.02.09.01.21.05 .31.11.44.11.79.03 .15-.04.39-.1.53-.13h0c.14-.03.28-.07.42-.12 .37-.13.83-.4 1.13-.67 .274-.26.67-.77.95-1.22 .05-.1.11-.19.12-.19Zm7.3.31s.07.06.14.13c.1.1.14.13.19.13 .05 0 .09.02.15.09 .08.08.08.09.08.25 0 .15-.01.18-.08.31 -.15.27-.125.26-.45.27v0c-.14 0-.28 0-.42-.01l-.14-.02 .15-.19c.15-.19.3-.46.3-.53 0-.03-.04-.07-.1-.11 -.06-.04-.1-.07-.1-.08 0-.01.05-.02.12-.02h.12l-.02-.13c-.01-.08-.01-.13 0-.13Zm.75.74l.05.06c.03.03.12.16.21.28 .14.22.15.23.1.24 -.05.02-.63.02-.64 0v0c.01-.06.04-.1.08-.15v0c.05-.1.1-.2.13-.3l.04-.16Zm6.01.17c.01 0 .03.02.03.04 .02.07.01.34-.01.35 -.01 0-.03.06-.04.12 -.06.46-.36.82-.74.9l-.08.01 .05-.08c.09-.14.17-.35.19-.45 .01-.11-.01-.38-.03-.42 -.01-.01-.06-.02-.11-.02h-.1l.11-.08c.31-.21.65-.41.67-.41Zm.22.18c.02-.03.21 0 .39.04 .21.05.21.05.16.18 -.19.51-.48.97-.7 1.08v0c-.14.05-.28.07-.42.04l-.09-.02 .12-.1c.29-.22.48-.64.48-1.08 0-.09 0-.17.01-.18Zm-1.36.77c.02.01.03.07.07.19 .02.07.05.15.06.17 .01.03-.02.02-.16-.04 -.1-.04-.17-.08-.17-.09 0-.01.04-.08.09-.16 .05-.08.07-.12.09-.11Zm-2.07 1.375c-.02 0-.08 0-.14.01 -.26.03-.51.14-.69.29l-.09.07 .08.14c.15.29.41.56.65.71 .14.08.13.07.04.4 -.1.32-.09.32-.28.36 -.13.03-.24.04-.56.04h-.4l-.23-.08c-.45-.16-.73-.37-.99-.76 -.19-.28-.24-.33-.52-.53s-.3-.23-.19-.32l.05-.05 -.08-.01v0c-.24-.01-.46.14-.55.36 -.05.13-.06.29-.03.36 .03.06.05.05.1-.08h0c.03-.08.07-.14.12-.2 .09-.1.125-.1.29.01 .24.15.4.31.58.58 .09.14.2.29.24.34 .08.1.27.25.36.3 .04.02.15.1.24.18 .09.08.22.17.29.2 .15.07.47.17.76.24 .35.08.77.05 1.03-.09l.1-.05 .12.04c.44.15.95.07 1.23-.21 .31-.31.43-.72.29-1.03 -.06-.12-.22-.32-.26-.32 -.01 0 0 .05.02.12 .05.16.06.45.01.6v0c-.06.15-.15.3-.27.42h-.001c-.07.05-.14.09-.21.13 -.11.05-.15.05-.38.05 -.25-.01-.28-.01-.44-.07v-.001c-.11-.05-.21-.1-.31-.16l-.14-.1 .05-.14c.02-.08.07-.23.09-.35l.04-.21 .13-.05c.41-.15.69-.38.8-.68l.04-.12 -.1-.09v0c-.18-.15-.38-.26-.59-.33 -.14-.05-.44-.11-.52-.1Z"/></svg>