<svg viewBox="0 0 24 24" xmlns="http://www.w3.org/2000/svg"><path d="M10.445 21.372v-.001c-.01.52-.43.95-.96.95 -.53-.01-.96-.43-.96-.96s.42-.96.95-.96c.52 0 .95.43.95.95m5.923-.01v0c-.01.52-.43.95-.96.95 -.53-.01-.96-.43-.96-.96s.42-.95.94-.96c.52 0 .95.43.95.95m4.54-9.16l-.16-.21c-.05-.06-.1-.12-.15-.18 -.05-.06-.1-.12-.15-.17 -.11-.12-.21-.24-.32-.359l-.08-.08 -.1-.1 -.14-.13c-.02-.02-.04-.04-.05-.06v0c-1.13-1.12-2.48-1.97-3.96-2.51l-.23-.08 .03-.09v0c.41-1.06.36-2.24-.12-3.26v0c-.49-1.03-1.37-1.81-2.44-2.16 -.66-.22-1.23-.32-1.72-.31 -.04-.11-.1-.577.49-1.848L10.54-.1l-.29.399c-.33.45-.65.895-.95 1.328V1.63c-.33-.35-.78-.56-1.25-.58L6.65.96h-.02c-.04-.01-.07-.01-.11-.01 -.99 0-1.81.77-1.87 1.75l-.09 1.4v0l0 0c-.06 1.03.72 1.91 1.75 1.98l1 .06c-.07.84.07 1.62.4 2.306h0c-1.38.57-2.62 1.42-3.66 2.484C.74 14.27.74 17.93.74 20.87v1.77l1.3-1.39c.266.93.65 1.8 1.145 2.61h1.69l0-.001c-.85-1.14-1.43-2.46-1.68-3.85l1.91-2.03 -.99 3.09 1.74-1.27c3.07-2.24 6.74-2.75 10.91-1.53 1.8.53 3.56.04 4.47-1.26l.1-.17c.09.49.14.99.14 1.49 0 1.56-.26 3.68-1.38 5.51h1.61c.77-1.57 1.18-3.44 1.18-5.52 -.01-2.2-.79-4.43-2.19-6.28ZM8.84 6.13c.12-1.01.57-1.95 1.23-2.97v0c.24.48.74.77 1.28.74 .21-.01.6.02 1.23.23v0c.7.23 1.29.74 1.6 1.42 .32.681.34 1.44.07 2.15l-.001 0c-.17.43-.45.81-.81 1.1l-.41-.51 -.01-.01V8.28c-.52-.63-1.44-.72-2.06-.21 -.34.27-.52.66-.54 1.05 -1.2-.54-1.8-1.65-1.63-3.04Zm4.3 5.11l-.52.42v0c-.1.08-.25.06-.33-.03 -.01-.01-.01-.01-.01-.01l-.11-.14v0c-.09-.11-.07-.26.03-.34l.51-.42 -1.06-1.3 -.001-.001c-.11-.14-.1-.33.03-.44 0-.01 0-.01 0-.01v0c.12-.11.31-.1.42.03 0 0 0 0 0 0l2.96 3.64v0c.1.13.09.32-.04.43 -.04.03-.09.05-.13.06v-.001c-.12.02-.24-.02-.31-.11l-.3-.37 -1.045.85v0c-.05.03-.1.05-.16.05v0c-.08 0-.15-.04-.19-.09l-.48-.58h-.001c-.09-.11-.07-.26.03-.34l1.05-.86 -.43-.54ZM7.7 4.8l-1.2-.08V4.72c-.26-.02-.45-.24-.44-.49l.09-1.4v0c.01-.25.21-.44.46-.44h.02l1.4.09V2.48c.25.01.44.23.43.48 -.01 0-.01 0-.01 0l-.01.1 -.001 0c-.32.54-.58 1.12-.78 1.72ZM20.22 16.28c-.57.8-1.69 1.08-2.93.718 -3.89-1.141-7.4-.91-10.47.7l1.63-5.122 -5.29 5.6c.09-3.77 2.45-6.97 5.75-8.32 .47.37 1.03.66 1.673.84 .16.04.32.07.48.1v0c-.19.47-.11 1.01.21 1.4l.07.09c-.18.45-.11.97.22 1.37l.47.58v0c.26.32.66.51 1.07.51 .32 0 .63-.12.88-.32l.28-.24c.17.07.36.11.56.11v0c.33 0 .66-.12.92-.33 .62-.51.72-1.44.2-2.06l-1.67-2.06h-.001c.14-.12.28-.25.4-.38 .13.03.27.07.4.12 .266.09.53.19.79.31v0c1.02.46 1.96 1.1 2.77 1.89 .03.03.06.05.08.08l.17.17c.03.03.07.07.11.12 .08.08.16.17.24.26l.12.15c.04.05.08.1.13.16l.11.15c.04.05.07.1.11.15 .83 1.14.98 2.32.4 3.157v0ZM7.66 4.05L6.82 4l.05-.84 .83.05Z"/></svg>