<svg viewBox="0 0 24 24" xmlns="http://www.w3.org/2000/svg"><path d="M21.893 8.23c-4.19 0-5.25 2.365-5.42 3.97 -.2 1.8 1.05 3.57 4.12 3.57 1.29 0 2.14-.23 2.44-.32v0c.07-.03.13-.09.14-.17l.17-.91v-.001c.01-.1-.05-.2-.15-.22 -.03-.01-.07-.01-.09 0 -.34.1-.93.25-1.69.25 -1.47 0-2.53-.89-2.4-2.4 .13-1.47 1.12-2.59 2.48-2.59 .82 0 1.18.43 1.15 1v.03 0c-.01.1.07.18.17.19 0 0 0 0 0 0h.55c.08 0 .16-.06.18-.15l.39-1.76v0c.02-.12-.05-.23-.15-.26v0c-.64-.18-1.3-.27-1.95-.266Zm-20.16.11v0c-.1 0-.18.06-.2.15l-.11.484h0c-.03.09.03.19.13.23l.03.01c.2.08.45.266.34.74l-.8 3.62c-.21.98-.542 1.19-.86 1.22H.25v0c-.09 0-.16.07-.18.15l-.11.46h0c-.03.1.04.2.14.22 .01 0 .02 0 .04 0H3.63c.08 0 .15-.06.17-.15l.12-.55 -.001 0c.01-.09-.03-.18-.12-.21l-.03-.01c-.18-.07-.42-.23-.36-.51l.4-1.85c1.38 2.535 1.84 3.266 3.514 3.26h1.5v0c.08 0 .15-.06.17-.15l.1-.47v0c.02-.11-.05-.21-.15-.24 -.02-.01-.03-.01-.04-.01 -.38-.01-.56-.1-.94-.58l-1.94-2.62 2.51-2.09c.33-.27.74-.34.97-.37l.02-.01v0c.07-.01.14-.07.16-.15l.1-.47v0c.02-.1-.05-.2-.15-.22 -.02-.01-.03-.01-.04-.01H6.57v0c-.1 0-.18.06-.2.15l-.11.46v0c-.03.1.03.2.13.23 .17.06.21.24.06.36L3.87 11.55l.44-2.02v0c.06-.24.24-.43.47-.49l.02-.01v0c.06-.03.11-.08.13-.15l.1-.48v0c.02-.1-.05-.2-.14-.22 -.02-.01-.03-.01-.04-.01Zm8.88 0v0c-.1 0-.18.06-.2.15l-.11.48v0c-.03.09.03.18.12.22l.02 0c.2.07.48.27.36.75l-1.21 5.48v0c-.03.09.03.19.13.21 .01 0 .02 0 .04 0h2.77c.08 0 .16-.06.17-.15l.12-.55v0c.01-.09-.03-.17-.1-.2v0c-.01-.01-.02-.01-.03-.02 -.18-.09-.44-.29-.35-.67 0-.05.27-1.24.27-1.24h2.362c.08 0 .16-.06.18-.15l.22-1v0c.02-.1-.04-.2-.14-.22 -.02-.01-.03-.01-.05-.01h-2.28l.42-1.94 1.59-.01c.51 0 .67.27.64.72l-.01.02v0c-.02.1.06.19.16.2 0 0 .01 0 .02 0h.58c.08 0 .16-.06.17-.15l.4-1.8v0c.02-.1-.05-.2-.15-.22 -.02-.01-.03-.01-.04-.01Z"/></svg>