<svg viewBox="0 0 24 24" xmlns="http://www.w3.org/2000/svg"><path d="M21.72 4.97L13.41.32v0c-.9-.44-1.94-.44-2.83 0L2.26 4.96v0C1.43 5.48.9 6.37.84 7.35v9.256H.84c.05.98.58 1.87 1.41 2.4l8.3 4.645h-.001c.89.43 1.93.43 2.82 0l8.31-4.645v0c.83-.53 1.35-1.42 1.41-2.4V7.35v0c-.06-.99-.59-1.88-1.42-2.4Zm-9.73-.06v0c1.42-.01 2.57 1.15 2.57 2.57s-1.16 2.57-2.58 2.57h-.001c-1.43 0-2.58-1.16-2.58-2.58 -.01-1.43 1.15-2.58 2.57-2.58Zm3.09 13.62v0c-1 .36-2.05.54-3.11.54v0c-1.05-.01-2.1-.19-3.08-.55v0c-3.32-1.26-5.51-4.45-5.49-7.99v-.86c4.64.01 8.074 3.82 8.074 8.51v.19h.92v-.2c0-4.69 3.44-8.51 8.05-8.51 .02.29.04.58.08.85v0c.01 3.54-2.17 6.72-5.477 7.98Z"/></svg>