<svg viewBox="0 0 24 24" xmlns="http://www.w3.org/2000/svg"><path d="M13.923 14.175c0 .04.01.07.04.07v0c.02-.01.04-.02.05-.03l7.48-4.86 0 0c.12-.09.27-.14.43-.13h1.64c.25 0 .42.16.42.42v3.13c0 .38-.09.6-.42.8l-2 1.2v-.001c-.02.01-.05.02-.07.02 -.03 0-.05-.02-.05-.09v-3.67c0-.05-.02-.08-.05-.08l0 0c-.03 0-.05.01-.06.02l-5.47 3.551v-.001c-.13.08-.28.12-.42.12h-3.63c-.26 0-.43-.17-.43-.43V9.68c0-.04-.02-.07-.05-.07h-.001c-.03 0-.05.01-.06.02l-3.61 2.16c-.04.02-.05.04-.05.05 0 .01 0 .02.03.05l2.577 2.57c.03.03.05.06.05.08 0 .02-.04.04-.09.04H7.84c-.19 0-.33-.03-.43-.125l-1.57-1.56H5.84c-.02-.02-.03-.03-.05-.03h0c-.02 0-.04 0-.05.01l-2.61 1.57h0c-.13.08-.28.12-.43.12H.3c-.26 0-.43-.17-.43-.42v-3.08c0-.38.084-.6.42-.8l2-1.21 0 0c.01-.01.03-.02.05-.02 .03 0 .04.03.04.1v4.12c0 .04.01.06.04.06l-.001-.001c.02-.01.04-.02.06-.03L9.25 9.2v0c.13-.09.28-.14.44-.13h3.64c.25 0 .42.16.42.42L13.74 14Z"/></svg>