<svg viewBox="0 0 24 24" xmlns="http://www.w3.org/2000/svg"><path d="M7.46 7.3c-.48.02-.85.41-.85.89 0 .49.39.89.89.89 .49 0 .89-.4.89-.9s-.4-.9-.9-.9c-.02 0-.03-.01-.05 0ZM.24 8c-.14 0-.25.12-.25.25v8.17c0 .13.11.25.25.25h8.52c.13 0 .24-.13.24-.26V8.23c0-.14-.11-.26-.25-.26h-.26c.01.05.01.12.01.18s-.01.12-.02.17h.14v7.96H.32V8.31h6.14v0c-.02-.06-.02-.12-.02-.18 0-.07 0-.13.01-.19Zm.26.51v7.66h7.99V8.5h-.04v0c-.09.24-.26.44-.49.57L7.95 9.06c-.15.09-.31.14-.48.14v0c-.17 0-.34-.05-.48-.15h-.001c-.23-.13-.41-.33-.49-.58Zm21.56.25c.09.1.15.22.17.35 .01.06.01.19.01.41v1.66c-.28-.27-.66-.4-1.14-.4 -.37 0-.69.1-.98.3 -.6.42-.9 1.22-.9 2.39 0 .35.04.67.14.95 .13.41.34.73.63.97 .3.25.66.37 1.08.37 .49 0 .9-.16 1.22-.48v.37h1.64c-.14-.15-.21-.41-.21-.78V8.7Zm-9.64.29c-.79 0-1.47.28-2.04.86 -.63.62-.94 1.45-.94 2.51 0 .94.25 1.72.75 2.35 .54.67 1.27 1.01 2.19 1.01 .577 0 1.09-.14 1.56-.4 .26-.15.41-.22.44-.22l-.74-1.2c-.35.38-.75.57-1.19.57 -.25 0-.49-.08-.71-.24 -.48-.34-.71-.98-.71-1.91 0-.33.03-.63.09-.91 .2-.84.64-1.25 1.31-1.25 .43 0 .77.16 1.03.49l.78-1.15c-.09-.01-.2-.06-.34-.13 -.54-.3-1.07-.45-1.58-.45ZM.54 9.15H2.6c-.17.16-.25.44-.246.85v1.61l1.26-1.6c.25-.33.38-.57.38-.73 0-.06-.01-.11-.03-.15h2.2c-.17.09-.375.29-.63.59 -.07.07-.19.22-.36.43L3.51 12.2l1.97 2.71c.12.16.27.34.45.55 .04.05.12.11.21.18H3.88v0c.01-.06.02-.12.02-.18 0-.17-.12-.4-.34-.7l-1.27-1.74v1.75c0 .4.08.69.24.85H.46c.11-.12.18-.25.21-.4 .01-.09.02-.24.02-.47V9.91c0-.23-.01-.38-.03-.47 -.04-.15-.11-.28-.22-.4Zm16.2 1.63c-.24 0-.46.01-.66.06l-.6.15c-.29.07-.48.1-.57.1l.43 1.04c.41-.22.8-.33 1.17-.33 .43 0 .65.25.65.75 -.22-.02-.37-.02-.46-.02 -.62 0-1.1.08-1.45.25 -.6.29-.9.73-.9 1.34 0 .26.04.5.14.71 .13.29.34.52.63.68 .27.15.58.22.92.22 .47-.01.86-.17 1.16-.48v.37h1.63c-.1-.11-.17-.23-.19-.36 -.02-.07-.02-.21-.02-.42v-2.15c0-.44-.06-.8-.18-1.09 -.25-.6-.83-.9-1.77-.9Zm-10.22.09h1.72v4.03c0 .21 0 .34.01.41 .02.13.08.25.18.35h-1.94c.09-.11.16-.23.18-.36 .01-.07.01-.21.01-.42v-3.27c0-.22-.01-.35-.02-.41 -.03-.13-.09-.25-.18-.36Zm15.07 1.01c.23 0 .45.08.64.24v2.19c-.23.18-.47.27-.72.27 -.48 0-.71-.41-.71-1.22 0-1.01.25-1.51.77-1.51Zm-4.8 1.64c.12 0 .24 0 .35.02v.76c-.15.25-.38.37-.7.37 -.18 0-.32-.05-.43-.14 -.13-.1-.19-.24-.19-.4 0-.23.11-.4.33-.51 .17-.09.38-.14.63-.14Z"/></svg>