<svg viewBox="0 0 24 24" xmlns="http://www.w3.org/2000/svg"><path d="M14.123 0c-.55-.01-1.04.008-1.44.02C7.183.16 4.2 1.7 4.2 1.7s-.3.19-.15.84c0 0 .09.79.19 1.13l.04.09c-.1.09-.5.29-.65.49 -.35.44-.05 2.47-.05 2.47 .34 2.13.69 2.52.69 2.52s.49.64 1.18 1.08c.29.14.24.49.24.49L3.26 23.93H19.6l-3.42-7.49c.69 0 2.13.34 2.92-1.89 .74-2.14 1.13-5.36 1.18-6.3 .09-.95-.1-2.93-.06-3.42 0-.15.34-.65.34-.95 .04-.45-.01-.85-.1-1.585 -.05-.3-.1-.65-.2-1 -.05-.25-.1-.4-.3-.5 -2.16-.75-4.31-.91-5.95-.92Zm-1.44.41c.54 0 5.1-.05 7.23.89 .19.14.04.89-.05 1.28 -.05.29-.4.39-.4.39 -.35.09-.45.34-.45.34s.44 4.31.49 4.45c.04.19-.15.19-.55.24 -.2 0-2.48.04-2.48.04s-.5-.05-.45-.35c0-.2.09-.6.19-.6h.44s.99.04.69-.05l-1.05-.25s-.25 0-.35.14c-.05.14-.3.94-.3.94s-.01.04.04.09c.04.04 2.57 1.88 2.57 1.88s-2.14-.2-2.78-.06c-.65.14-1.99.84-2.83.99 -.85.14-3.97.49-4.17.49L7.23 5.91s-.15-1.34-1.54-1.29c-1.05.04-1.189.29-1.24.39 -.1.19 0 .39 0 .39l3.36 5.74s-2.28-1.09-3.18-2.33c-.5-.65-.95-3.87-.65-4.41 .29-.5 2.13-.9 2.92-.8 .39.04.74.44.94.69 .04.09.09.05.14.09 0 0-.2-1.24-1-1.29 -1.14-.1-2.38.34-2.38.34s-.1-.01-.15-.15c-.05-.2-.2-1.24-.2-1.24s.04-.2.24-.3c0 0 3.22-1.49 8.02-1.49Zm.64 1.42c-.08 0-.1 0-.1 0 -2.09.84-3.77 2.675-3.77 2.57 .19.04.59 0 .59 0 1.83-1.59 3.41-2.23 3.41-2.23 1.33 0 3.61.79 3.76.74 .04 0 .04-.25-.05-.3 -.25-.05-.75-.3-1.69-.5 -1.38-.3-1.97-.32-2.19-.31Zm6.78 1.39c.19.04.19.04.29.14 .14.09.09.39 0 .44 -.1.09-.15-.1-.8-.05 0 0 .29-.6.49-.55Zm-4.88.1c-.37-.02-.87.04-1.43.19 -.75.19-2.23.94-2.23.94 .59.24 1.58.34 2.52.49 1.04.09 2.17-.45 2.17-.45 -.05-.15-.4-1.05-.75-1.14 -.09-.03-.2-.05-.32-.05Zm.78 7.4c.72.01 1.57.1 2.44.32 0 0 .49.39.44.74 0 0-3.567.19-4.96-.95 0 0 .85-.16 2.05-.13Zm-9.74.17l1.53 1.04 2.52 11.54H3.86Zm11.8 1.45v0c.24-.01.48.01.73.03 0 0 .29.24-.5 1.04 -1 .94-2.73 1.68-4.27 1.28 0 0 .56-2.36 4.02-2.36Zm-8.09 4.19s3.12 1.93 3.61 2.67l.34 4.31h-2.28Zm5.3 3.96s1.83 1.68 2.37 3.02h-3.08Z"/></svg>