<svg viewBox="0 0 24 24" xmlns="http://www.w3.org/2000/svg"><path d="M6.75 13.034H4.5l-2.25 2.25v-2.26H0v6.01h2.25v-2.26l2.25 2.25h3L4.125 15.63Zm3 0H7.5v6.01h6v-1.52H9.75Zm10.5 0l-1.125 3.38L18 13.02h-3.75v6.01h2.25v-4.52l1.5 4.51h2.25l1.5-4.52v4.51H24v-6.02ZM10.5 9.64c.72 0 1.31-.59 1.31-1.32 0-.73-.59-1.32-1.32-1.32 -.73 0-1.32.58-1.32 1.31 0 .72.58 1.31 1.31 1.31Zm1.68-1.32c0 .72.58 1.31 1.31 1.31 .72 0 1.31-.59 1.31-1.32 0-.73-.59-1.32-1.32-1.32 -.73 0-1.32.58-1.32 1.31Zm2.99 0c0 .72.58 1.31 1.31 1.31 .72 0 1.31-.59 1.31-1.32 0-.73-.59-1.32-1.32-1.32 -.73 0-1.32.58-1.32 1.31Zm-6.375 0c0-.73-.59-1.32-1.32-1.32 -.73 0-1.32.58-1.32 1.31 0 .72.58 1.31 1.31 1.31 .72 0 1.31-.59 1.31-1.32Zm-1.32 1.69h9v1.5h-9Zm4.125-2.83h.75v-.76h.75v-.76h-.75V4.9h-.75v.75h-.75v.75h.75Z"/></svg>