<svg viewBox="0 0 24 24" xmlns="http://www.w3.org/2000/svg"><path d="M0 5.587v12.75h1.19v-4.099l.46-.53 3.14 4.62h1.19l-3.66-5.38 2.773-3.13h-.17l-3.75 4.218V5.56Zm11.039 4.18c-1.19 0-2.18.391-2.96 1.173 -.77.78-1.16 1.88-1.16 3.3 0 1.41.37 2.46 1.12 3.14 .74.68 1.718 1.02 2.9 1.02 1.202 0 2.18-.39 2.96-1.18 .782-.79 1.173-1.89 1.173-3.3 0-1.42-.38-2.47-1.13-3.15 -.75-.68-1.73-1.02-2.926-1.02Zm8.89 0c-1.05 0-2.07.23-3.08.69l.06.12c.26-.15.67-.3 1.22-.45 .56-.16 1.06-.24 1.48-.24 .42 0 .76.05 1.02.17 .26.1.44.22.54.37 .1.14.18.3.23.46 .06.14.09.27.06.37 0 .97 0 1.98 0 2.97v-.001c-.28-.03-.56-.04-.84-.04 -.31 0-.64.01-1.01.05 -1.47.09-2.41.34-2.85.74 -.22.2-.35.391-.4.56 -.05.17-.07.32-.07.47 0 .13.01.27.03.4 .19 1.29 1 1.939 2.43 1.939 1.22 0 2.11-.51 2.67-1.52v.35c0 .18.13.39.39.64 .28.29.81.44 1.58.44h.52v-.14h-.53l-.19-.04c-.14-.02-.28-.11-.41-.28 -.13-.19-.19-.44-.19-.77V11.32c0-.37-.15-.71-.45-1.04 -.5-.56-1.564-.63-2.32-.63Zm-8.87.13c.86 0 1.55.32 2.07.98 .52.65.78 1.673.78 3.045 0 1.36-.29 2.42-.85 3.19 -.57.76-1.282 1.14-2.144 1.14 -.87 0-1.56-.33-2.08-.99 -.53-.66-.79-1.67-.79-3.03 0-1.38.28-2.44.85-3.2 .56-.77 1.282-1.16 2.144-1.16Zm9.491 4.45c.31 0 .63.01.93.03v2.05c-.04.38-.3.78-.79 1.2v0c-.45.39-1.03.61-1.62.61 -.907 0-1.42-.61-1.52-1.81v0c-.02-.11-.02-.21-.02-.31 0-.5.13-.89.39-1.173 .26-.29.82-.48 1.68-.58 .31-.04.64-.04.92-.05Z"/></svg>