<svg viewBox="0 0 24 24" xmlns="http://www.w3.org/2000/svg"><path d="M18.31 12.264c2.33 0 4.21 1.88 4.21 4.2v3.33c0 2.32-1.89 4.2-4.22 4.2h-6.21v0c-1.84 0-3.47-1.19-4.03-2.94l-3.68 1.83h0c-1.01.5-2.23.09-2.74-.91H1.63c-.15-.29-.22-.6-.22-.907v-5.94h0c0-1.13.91-2.03 2.03-2.03H3.44c.31-.01.63.07.919.21l3.67 1.85v0c.56-1.75 2.18-2.93 4.02-2.93Zm-.07 2.16h-6.08c-1.16 0-2.09.92-2.11 2.06v3.247c0 1.14.92 2.08 2.07 2.1h6.11c1.15 0 2.09-.93 2.1-2.07v-3.247 0c-.01-1.15-.93-2.09-2.08-2.1ZM4.16 15.71v0c-.31-.01-.55.24-.56.54v3.73 -.001c0 .3.25.55.56.55 .08-.01.16-.02.23-.06l.01-.01L7.87 18.7v-1.23L4.4 15.74l0-.001c-.08-.04-.17-.06-.25-.06ZM9.26-.01v0c2.07 0 3.98 1.13 4.98 2.96l0-.001c.91-.85 2.11-1.32 3.36-1.32 2.71 0 4.91 2.177 4.91 4.86 0 2.68-2.2 4.86-4.92 4.86v-.001c-1.59 0-3.07-.76-4-2.04v0c-1.08 1.28-2.67 2.03-4.35 2.03 -3.14 0-5.67-2.55-5.67-5.69C3.57 2.5 6.1-.04 9.24-.04Zm8.34 3.92c-1.45 0-2.61 1.15-2.61 2.58 0 1.428 1.16 2.58 2.61 2.58 1.44 0 2.61-1.157 2.61-2.585s-1.17-2.585-2.62-2.585Zm-8.34-1.64v0c-1.88 0-3.4 1.52-3.39 3.39 0 0 0 0 0 0 0 1.87 1.51 3.4 3.39 3.4v0c1.87-.01 3.39-1.53 3.39-3.4 -.01-.01-.01-.01-.01-.01 0-1.88-1.52-3.4-3.39-3.4Z"/></svg>