<svg viewBox="0 0 24 24" xmlns="http://www.w3.org/2000/svg"><path d="M10.2 14.35l0 .01 -1 2.41h0c-.96-.62-1.69-1.53-2.08-2.6l2.57-.44 0 0v-.001c.23-.05.46.11.51.35 .01.08 0 .17-.03.25Zm-.84-2.13v0c.23-.07.37-.31.3-.55 -.03-.09-.07-.16-.14-.22l0-.02 -1.97-1.76h0c-.6.97-.86 2.11-.73 3.25l2.51-.73 0-.01Zm1.14-1.98v0c.19.14.47.1.61-.1 .05-.08.08-.16.08-.25l.01-.01 .15-2.62v0c-1.14.13-2.2.64-3.01 1.44l2.14 1.52 0-.01Zm.76 2.75l.72.34 .72-.35 .18-.78 -.5-.63h-.81l-.5.62 .17.77Zm1.5-3.1v0c.01.24.21.43.45.42 .08-.01.17-.04.24-.09l0 0L15.58 8.7l0 0c-.82-.8-1.87-1.31-3-1.45l.14 2.61 0 0Zm10.87 5.97l-5.773 7.18v0c-.31.37-.77.59-1.25.59l-9.261 0 0 0c-.49 0-.95-.22-1.25-.6L.31 15.85h0c-.31-.38-.42-.87-.31-1.34l2.06-8.96c.1-.47.42-.87.863-1.08L11.271.48v0c.43-.21.94-.21 1.38-.001l8.34 3.98c.43.2.75.6.86 1.07l2.06 8.95c.1.47-.01.96-.31 1.34Zm-3.29-2.06c-.05-.01-.11-.03-.15-.04 -.18-.04-.32-.03-.48-.04 -.35-.04-.64-.07-.9-.15 -.11-.04-.18-.17-.22-.22l-.21-.06v0c.1-.78.07-1.57-.11-2.34v0c-.18-.78-.5-1.51-.94-2.17 .05-.05.15-.14.17-.16 0-.09 0-.19.09-.29 .19-.19.44-.34.74-.53 .14-.09.27-.14.41-.242 .03-.03.07-.07.11-.09 .24-.2.29-.52.12-.74 -.18-.22-.51-.24-.75-.05 -.04.02-.08.06-.12.08 -.14.11-.22.23-.33.35 -.25.25-.45.45-.68.609 -.1.05-.24.03-.31.03l-.19.13v0c-1.1-1.15-2.57-1.86-4.15-2.01l-.02-.23c-.07-.07-.15-.12-.17-.25 -.03-.27.01-.56.05-.91 .02-.17.06-.3.06-.48 0-.04-.01-.1-.01-.15 0-.31-.23-.56-.5-.56 -.28 0-.5.24-.5.55l0 .01c0 .04-.01.09 0 .12 0 .17.04.31.06.47 .04.34.07.63.05.9l0 0c-.03.09-.09.18-.17.25l-.02.21h-.001c-1.59.12-3.08.84-4.17 2.003l0-.001c-.07-.05-.13-.09-.18-.13 -.09.01-.18.04-.3-.03 -.23-.15-.43-.36-.673-.61 -.12-.12-.2-.24-.33-.35 -.03-.03-.08-.07-.12-.09v0c-.1-.09-.23-.13-.35-.14h0c-.16-.01-.31.05-.4.17 -.18.21-.12.54.12.73l0 0 .1.08c.14.1.27.15.41.242 .29.18.54.33.74.52 .07.08.09.22.1.28l.16.14v0c-.89 1.32-1.25 2.92-1.02 4.5l-.21.06c-.06.07-.133.18-.22.21 -.26.08-.55.11-.9.14 -.17.01-.31 0-.48.03 -.04 0-.09.02-.133.03l-.01 0 -.01 0c-.3.07-.484.34-.43.6 .06.26.34.42.645.36l0-.01 .01-.01 .129-.03c.17-.05.29-.12.44-.18 .33-.12.6-.22.87-.26 .11-.01.23.06.28.1l.21-.04H5.54c.48 1.51 1.51 2.78 2.88 3.59l-.09.21c.03.08.06.19.04.28 -.1.25-.27.51-.46.81 -.1.13-.19.24-.27.39 -.02.03-.05.09-.07.13 -.13.27-.04.59.21.71 .24.12.55-.01.69-.29v-.01c.02-.04.04-.09.06-.13 .07-.17.09-.31.14-.46 .13-.34.2-.68.38-.9 .05-.06.13-.09.21-.11l.11-.21v0c1.48.57 3.12.57 4.609.01l.1.19c.08.02.18.04.25.15 .13.23.22.5.34.84 .05.15.07.29.14.45 .01.03.04.09.06.12 .13.27.44.4.69.28 .24-.12.34-.44.21-.71 -.02-.04-.05-.1-.07-.14 -.09-.16-.18-.27-.27-.4 -.19-.3-.35-.55-.45-.8 -.04-.13 0-.21.03-.3 -.02-.03-.06-.15-.09-.21h0c1.37-.82 2.39-2.11 2.88-3.63 .06.01.17.03.21.03 .07-.05.14-.12.28-.11 .26.03.54.13.87.25 .15.06.27.12.44.17 .03.01.08.01.13.02l0 0 0 0c.29.06.58-.1.64-.37 .06-.266-.13-.54-.43-.61Zm-3.97-4.11l-1.95 1.74v0 0c-.19.15-.21.43-.05.62 .05.06.13.11.21.13l0 .01 2.52.72v0c.05-.57.01-1.13-.11-1.68v-.001c-.13-.56-.35-1.09-.65-1.58Zm-4.013 5.32v0c-.08-.15-.24-.24-.41-.24v0c-.16 0-.3.09-.38.23h-.01l-1.27 2.29h0c1.07.36 2.24.36 3.32 0l-1.27-2.3h-.01Zm1.888-1.3l0-.001c-.1-.02-.19-.01-.27.03v-.001c-.22.1-.31.35-.22.57l-.01 0 1.01 2.43 0-.001c.96-.62 1.69-1.54 2.08-2.62l-2.6-.44 -.01 0Z"/></svg>