<svg viewBox="0 0 24 24" xmlns="http://www.w3.org/2000/svg"><path d="M9.176 4.46v0c-.44.02-.77.38-.77.81v7.05 0c-.01.45.36.81.81.81 .12 0 .25-.03.36-.09l7.058-3.53V9.5c.4-.21.56-.7.36-1.1 -.08-.16-.21-.29-.37-.37L9.56 4.5v0c-.13-.07-.28-.1-.42-.09Zm1.91 3.107h.63v.91h.91v.63h-.92v.91h-.64v-.92h-.92v-.64h.91v-.92Zm-4.752 7.51v.36h.26c.08 0 .13.05.13.13v3.86h.41v-.28h-.001c0-.09-.01-.18-.02-.26h.01s.28.6 1.02.6c.82 0 1.41-.65 1.41-1.64 0-.97-.53-1.65-1.37-1.65 -.81 0-1.07.59-1.07.59h-.02s.01-.12.01-.26v-1.14c0-.27-.12-.39-.38-.39h-.45Zm2.85 0v.38h.06c.11 0 .18.01.22.13l1.436 3.85h.46l1.43-3.85c.04-.12.1-.14.22-.14h.83v3.6h-.41v.38h1.25v-.39h-.42v-3.61h.41v-.39h-1.81c-.31 0-.41.05-.516.36l-1.08 2.94c-.08.22-.17.56-.17.56h-.02s-.09-.35-.17-.57l-1.08-2.95c-.11-.3-.2-.37-.51-.37h-.2Zm5.92 0v.38h.4v3.6c0 .26.11.37.38.37h1.89c.26 0 .37-.12.37-.38v-.44h-.41v.29c0 .09-.05.14-.14.14h-1.54c-.09 0-.14-.05-.14-.14V17.4h1.64v-.39h-1.64v-1.6h1.49c.08 0 .13.04.13.13v.29h.41v-.44c0-.27-.12-.39-.38-.39h-2.5Zm-15.119 0v.38H.25c.08 0 .136.04.136.13v3.47c0 .26.11.37.38.37h1.81c.26 0 .379-.12.379-.38v-.44h-.41v.29c0 .09-.05.13-.137.13H.96c-.09 0-.136-.05-.136-.14v-3.47c0-.27-.12-.38-.38-.38h-.46Zm18.33 0v.38h.07c.11 0 .19.01.22.13l1 3.85h.51l.89-3.05c.08-.28.15-.64.15-.64h.01s.06.36.14.64l.81 3.04h.51l1-3.85c.03-.12.1-.14.23-.14h.06v-.39h-.2c-.32 0-.46.05-.53.36l-.76 3.01c-.06.22-.1.46-.1.46h-.01s-.04-.25-.1-.47l-.88-3.36h-.43l-.97 3.35c-.07.22-.12.46-.12.46h-.01s-.04-.25-.1-.47l-.76-3.02c-.08-.31-.22-.36-.53-.36h-.2Zm-13.7 1.16c-.28 0-1.02.09-1.02.53v.29h.4v-.2c0-.23.45-.28.61-.28 .57 0 .8.23.8.88v.03h-.18c-.55 0-1.916.03-1.916 1.07 0 .62.54.92 1.06.92 .78 0 1.04-.68 1.04-.68h.01s-.01.09-.01.23c0 .25.1.37.37.37h.43v-.37h-.27c-.09 0-.14-.05-.14-.14v-1.5c0-.68-.24-1.21-1.23-1.21Zm3.52.38c.57 0 .98.49.98 1.25 0 .79-.46 1.26-1.01 1.26 -.68 0-1-.63-1-1.26 0-.89.492-1.27 1.01-1.27Zm-2.91 1.22h.18v.14c0 .54-.37 1.16-.96 1.16 -.47 0-.7-.3-.7-.59 0-.71.98-.72 1.47-.72Z"/></svg>