<svg viewBox="0 0 24 24" xmlns="http://www.w3.org/2000/svg"><path d="M11.86 0h0c-1.25 0-2.49.09-3.72.24l-.28.03 -.34.04c-.08 0-.18.02-.24.03v0c-.07.01-.14.02-.21.03V.369c-.09.01-.18.02-.27.04l-.27.04c-.2.03-.77.15-1.06.21 -1.064.238-2.25.59-2.73.82 -.35.16-.78.5-.93.74h0c-.15.23-.25.5-.29.77 -.03.15-.04.23-.04.83 -.01.72 0 1.22.04 1.86 .16 3.01.696 5.54 1.68 8l0-.001c.66 1.71 1.54 3.33 2.63 4.81 1 1.36 2.12 2.57 3.39 3.67 .76.66 1.737 1.4 2.07 1.59 .38.21.82.23 1.19.04 .3-.16 1.38-.98 2.11-1.61h0c1.13-1 2.18-2.09 3.11-3.27 .51-.65 1.54-2.26 1.97-3.09 1.62-3.09 2.54-6.89 2.651-10.82 .03-.65.04-1.23.03-1.53h0c-.01-.08-.01-.16-.02-.23l0-.4 -.17-.35v0c-.1-.21-.23-.39-.39-.54 -.2-.21-.38-.33-.79-.52 -1-.48-2.34-.858-3.96-1.118V.3C16.5.21 15.98.13 15.46.08l-.41-.05V.03c-.14-.02-.28-.03-.41-.04v0c-.67-.06-1.33-.1-1.99-.12V-.13c-.32-.02-.63-.02-.94-.02Zm.16.83c3.34-.01 6.12.43 8.39 1.33 .84.33.99.43 1.16.79 .12.27.13.31.09 1.69 -.2 7.59-2.8 13.21-8.113 17.541 -.65.52-1.32 1-1.484 1.05 -.09.02-.24-.04-.49-.19 -.5-.31-1.718-1.31-2.54-2.07 -1.36-1.26-2.71-2.94-3.63-4.506 -1.97-3.35-3-7.25-3.12-11.87 -.04-1.35-.04-1.4.09-1.67 .17-.36.32-.47 1.13-.78C5.73 1.26 8.08.86 11.313.8c.22-.01.45-.01.67-.01Zm-.95.7l-.05 0c-.2.02-.45.2-.57.42 -.28.49-.22 1.592.09 1.97 .12.15.18.17.42.17 .15 0 .33-.04.4-.1 .07-.06.19-.21.26-.35 .18-.36.18-1.27 0-1.67 -.12-.26-.34-.45-.54-.47l-.03-.01h-.02Zm1.09.06l-.02 1.23 -.001-.001c-.01.39-.02.78-.01 1.18v0c0 .02.01.04.02.06 .02 0 .08 0 .17 0h.18v-.53c0-.51 0-.53.12-.51 .1.01.16.12.3.54l.18.52h.44l-.2-.57 -.2-.565 .15-.16c.19-.19.25-.46.17-.77 -.1-.347-.33-.47-.891-.47Zm2.37.06c-.51 0-.74.38-.73 1.228 0 .55.08.91.26 1.113 .2.23.66.274.94.08 .15-.11.25-.42.25-.81 0-.11-.01-.19-.02-.25 -.04-.1-.13-.11-.41-.133l-.24-.03c-.05.02-.05.08-.05.2v.04l0 .01c0 .11.03.13.14.13 .11 0 .14.03.14.15 0 .355-.28.512-.49.27 -.29-.33-.23-1.56.08-1.66 .13-.05.34.11.34.25 0 .05.07.08.2.08 .23 0 .26-.08.11-.36v0c-.11-.24-.34-.38-.59-.36Zm-5.199.03v0c-.11-.01-.22 0-.33.01l-.36.03 -.04 2.498 .42-.05c.23-.03.49-.08.56-.12 .24-.12.37-.37.38-.7 0-.23-.03-.33-.13-.43 -.13-.13-.13-.13-.02-.32v-.001c.13-.22.14-.48.02-.7 -.09-.17-.27-.25-.56-.26Zm6.28.07v2.51l.2.02 .2.02v-.56c0-.617-.02-.6.42-.52l.22.03V3.8c0 .48.01.56.1.58 .26.06.25.1.23-1.21l-.02-1.25 -.17-.02 -.17-.02v.968l-.25-.04c-.41-.06-.4-.04-.4-.57 0-.345-.02-.482-.08-.482h0c-.07-.01-.14-.02-.21-.04l-.1-.03Zm-7.41.03L8 1.8c-.2.02-.21.03-.36.54 -.09.28-.19.62-.24.758l-.08.24 -.2-.629c-.11-.35-.22-.66-.24-.68 -.03-.03-.13-.04-.23-.01l-.19.04v1.22c0 1.16 0 1.22.11 1.22V4.49c.06-.01.12-.02.19-.03 .05-.03.07-.14.06-.44v0c-.02-.22-.02-.43 0-.65 .01-.22.03-.19.24.44l.22.685 .21-.77 .21-.77 0 .36v0c.01.04.01.09 0 .14l0 .17c.01.57.03.66.1.637v0c.06-.03.13-.04.2-.04 .1 0 .11-.06.11-1.25Zm4.292.14l.24.03c.35.04.5.29.32.54 -.08.11-.46.2-.53.125 -.03-.03-.05-.2-.05-.38Zm-1.47.02c.08 0 .16.07.22.2 .13.26.12 1.21-.02 1.42 -.14.2-.31.2-.44 0 -.08-.12-.11-.31-.13-.71 -.02-.47 0-.58.1-.74 .07-.125.16-.19.24-.19Zm-2.01.11h.19c.23 0 .33.09.33.3 0 .19-.08.26-.34.31l-.19.03v-.33Zm8.497 0v0c-.02 0-.03.01-.04.02v2.48l.16.02c.08.01.18.02.2.03 .02 0 .04-.55.04-1.22 0-.673-.02-1.24-.05-1.25v-.001c-.07-.03-.14-.05-.21-.07Zm-11.98.21v0c-.05 0-.1.01-.14.02 -.18.05-.19.05-.4 1.025 -.12.536-.26 1.13-.3 1.32l-.09.34 .18-.04 0 0c.07-.02.15-.04.22-.07 .02-.02.05-.17.07-.36 .04-.37.04-.37.33-.42l.21-.05 .07.3c.07.29.07.3.25.266v0c.07-.02.14-.03.21-.06 .03-.03-.53-2.26-.577-2.31 -.01-.01-.04-.02-.08-.02Zm12.77.01V3.49c0 .94.01 1.22.07 1.22 .04 0 .13.01.2.03 .12.03.13.02.14-.694l.01-.73 .32.81c.17.45.36.84.41.87 .23.14.24.1.22-1.18l-.02-1.24 -.17-.05 -.17-.05v.66c-.01.76-.01.76-.36-.14 -.26-.67-.35-.778-.57-.778ZM3.7 2.8c-.02 0-.11.03-.21.06l-.19.06v.31l.01.98c0 .47.02.84.04 1.18 .01 0 .02 0 .04-.01 .05-.03.32-.13.58-.23 .45-.17.48-.19.48-.36 0-.1-.01-.18-.02-.18 -.02 0-.18.05-.37.12v0c-.12.04-.25.08-.37.12 -.02 0-.02-.48-.02-1.05 0-.577-.01-1.048-.02-1.048Zm16.5 0c-.02 0-.02.56-.02 1.24v1.24l.19.06c.1.03.19.06.2.06 0 0 .01-.56.01-1.25V2.89l-.19-.07v0c-.07-.03-.14-.05-.21-.07ZM9.25 3c.26.01.42.29.27.56 -.07.11-.14.15-.31.17l-.22.01v-.36c0-.32.01-.36.12-.39v0c.03-.02.07-.02.11-.02ZM5.39 3l.07.32c.04.18.05.26.04.31v0c-.01.01-.01.02-.02.03v0c-.01 0-.02.01-.03.02 -.15.09-.24.06-.2-.06 .02-.07.05-.23.08-.38Zm6.87 1.66c-.56.01-1.04.17-1.31.44 -.25.24-.27.51-.07.64 .25.16.673.22 2.16.26 1.36.04 1.532.06 1.77.17 .29.14.41.33.41.61 -.01.23-.16.47-.3.47 -.23 0-.99-.2-1.53-.39l0 0c-.22-.09-.44-.16-.67-.21l-.04-.01c-.15 0-.32.12-.82.55 -.22.18-.61.45-.87.59 -.84.44-1.1.79-1.21 1.64 -.07.46-.14.64-.5 1.18 -.3.44-.51 1.05-.51 1.45 0 .19-.07.51-.19.83 -.15.43-.19.62-.2 1.12 -.02.51-.04.64-.17.87 -.1.17-.17.43-.2.67 -.04.36-.07.42-.33.74 -.16.18-.29.375-.29.41 0 .02-.03.07-.07.12 -.01.03-.03.06-.05.06v0c-.03.02-.05.05-.07.08 -.23.26-.34.55-.24.65 .04.05.08.03.15-.07 .12-.19.2-.17.14.04 -.04.12-.03.18.01.2 .08.03.42-.02.59-.1 .09-.05.16-.16.21-.34 .04-.16.11-.33.16-.39 .05-.07.1-.27.11-.51 .02-.36.05-.44.25-.69 .13-.17.26-.44.32-.64 .05-.19.13-.43.18-.53 .37-.74.62-1.17.66-1.17 .13 0 .23.28.23.64 0 .28.02.38.09.42 .08.04.08.07 0 .22v0c-.06.11-.1.22-.13.35 -.06.24-.25.49-.45.6 -.09.04-.29.2-.44.35 -.22.21-.28.31-.28.46 0 .26.08.4.18.3 .11-.12.17-.09.13.08 -.04.15-.04.15.15.12 .24-.05.46-.2.5-.33 .01-.06.05-.15.08-.2 .02-.05.13-.28.24-.5 .13-.28.27-.48.45-.63 .14-.12.3-.32.34-.43 .13-.34.54-.63.54-.39 0 .14-.23.56-.4.73 -.21.21-.37.49-.37.65 0 .13.08.18.14.07 .06-.11.13-.07.1.06v0c-.01.01-.01.02-.01.03 .01.03.02.05.04.07 .02 0 .06.01.11.01 .3 0 .58-.18.63-.39v0c.03-.14.08-.26.15-.38 .07-.13.1-.25.07-.35 -.04-.17.06-.577.15-.577 .06 0 .27.44.32.69h-.001c.02.11.08.21.15.3 .1.12.15.12.68.09 .54-.04.57-.04.71-.22 .1-.14.15-.29.18-.55 .04-.47.24-.78.7-1.11l.34-.25 .08.13c.04.07.14.28.22.47 .12.31.13.36.06.64 -.05.16-.06.35-.04.42 .02.07-.01.25-.07.42l-.05.12 -.01.05v-.001c-.02.04-.02.1-.02.15l.1.11c.15.17.266.19.31.06 .04-.12.15-.12.15 0s.11.08.24-.1c.1-.14.1-.17.01-.42 -.06-.15-.09-.32-.07-.38 .01-.06 0-.22-.04-.36l0-.001c-.08-.37-.07-.74.01-1.1 .05-.28.05-.34-.09-.63 -.09-.18-.14-.34-.13-.35 .01-.02.125.01.24.06 .57.22 1.01.17 1.28-.15l.13-.17h0c0-.01 0-.02 0-.03l-.33-.03v0c-.08-.01-.16-.02-.23-.03 -.2-.04-.29-.11-.61-.39 -.3-.27-.31-.29-.28-.516 .01-.14-.01-.45-.07-.71 -.1-.43-.1-.49-.01-.79 .05-.18.09-.41.09-.51 0-.29-.16-.74-.35-.98h-.001c-.11-.14-.19-.3-.24-.47v0c-.05-.17-.12-.32-.21-.46 -.14-.21-.14-.23-.06-.43h0c.05-.18.08-.36.08-.54 0-.29-.03-.359-.2-.56 -.36-.42-.53-.46-2.25-.508 -1.99-.06-2.3-.14-1.99-.49 .12-.15.33-.14.76.01 .46.16 1.04.2 1.37.09 .28-.1.29-.09-.21-.2 -.08-.02-.15-.06-.15-.1 0-.02 0-.03.02-.03 0-.02.05-.03.13-.02 .03 0 .07 0 .12.01 .76.1.89.11.89.05 0-.1-.516-.3-1.06-.41v0c-.26-.06-.53-.08-.79-.08Zm.21.49v0c.07 0 .15.02.23.05l.25.09 -.19 0 -.03 0 -.04-.01v0c-.09 0-.18-.02-.27-.05 -.11-.07-.08-.11.01-.1Z"/></svg>