<svg viewBox="0 0 24 24" xmlns="http://www.w3.org/2000/svg"><path d="M10.182 11.491h.71l.625-1.85 .36 1.85h.718l.97-2.86 -.75 0 -.53 1.55 -.3-1.56h-1.01l-.03.07 .05.04c.05.05.05.11 0 .24l-.86 2.48Zm3.74-2.49l-.86 2.49h1.25c.54 0 .84-.12 1.09-.39 .31-.34.6-1.2.59-1.67 -.01-.49-.33-.8-.98-.8h-1.15l-.03.07 .05.04c.05.05.05.11 0 .24m.68.31h.31c.21 0 .33.07.33.23 0 .1-.03.25-.14.56 -.1.28-.18.44-.29.56 -.09.09-.21.13-.48.13h-.27l.51-1.5Zm4.06.34h-1.91l-.25.68h1.31l-1.5.5 -.1.24 2.157-.71 .26-.73ZM4.98 11.46h1.95l.23-.69h-1.14l.75-2.18h-.98l-.03.07 .04.04c.05.05.05.11 0 .24l-.86 2.49Zm2.15-.01h.83l.359-.64h.859l0 .63h.75l-.17-2.86H8.63l-.03.07 .03.03c.06.05.03.14-.19.49l-1.35 2.25Zm1.99-2.067h.02l.01.86h-.53l.48-.87Zm-1.19 2.686h-1.24l-.03.07 .05.05c.05.05.05.11 0 .24l-.87 2.49h.78l.33-.99h.26l.29.98h.79l-.38-1.01v0c.16-.02.31-.09.43-.2 .14-.14.25-.33.33-.61 .12-.41.04-.64-.04-.76 -.11-.17-.35-.29-.78-.29m.06 1.03c-.05.12-.11.15-.18.18v0c-.08.02-.17.02-.25.02H7.1l.2-.6h.45c.13 0 .19.07.19.15v0c-.01.08-.03.15-.06.23m10.43-1.04h-1.24l-.03.07 .05.05c.05.05.05.11 0 .24l-.87 2.49H17l.33-.99h.26l.29.98h.79l-.37-1.01v0c.16-.02.31-.09.43-.2 .15-.14.25-.33.33-.61 .12-.41.05-.64-.03-.76 -.11-.17-.35-.29-.782-.29m.06 1.03c-.05.12-.11.15-.18.18h0c-.08.02-.17.02-.25.02h-.38l.2-.6h.45c.13 0 .19.07.19.15h-.001c-.01.08-.03.15-.06.23m1.36-4.75c-2.37-1.23-5.31-1.69-7.95-1.69 -2.64 0-5.585.46-7.95 1.69C2.4 8.92.71 10.16.71 11.83c-.001 1.66 1.686 2.9 3.01 3.59 2.36 1.22 5.31 1.69 7.95 1.69 2.64 0 5.58-.47 7.95-1.69 1.32-.69 3.01-1.93 3.01-3.6 0-1.67-1.69-2.907-3.02-3.6m-.12 6.95c-2.33 1.2-5.227 1.66-7.83 1.66 -2.61 0-5.5-.46-7.83-1.66 -1.24-.64-2.87-1.82-2.87-3.36 0-1.55 1.63-2.73 2.87-3.36 2.33-1.21 5.228-1.66 7.83-1.66 2.6 0 5.5.45 7.83 1.66 1.23.63 2.87 1.81 2.87 3.36 0 1.54-1.64 2.72-2.87 3.359m.59-7.88c-2.26-1.17-5.25-1.81-8.43-1.81 -3.18 0-6.17.641-8.425 1.806 -1.34.69-3.58 2.19-3.58 4.51 0 2.31 2.24 3.82 3.57 4.51 2.254 1.16 5.246 1.8 8.425 1.8 3.18 0 6.17-.65 8.425-1.81 1.33-.7 3.57-2.2 3.57-4.52 0-2.32-2.24-3.83-3.58-4.52m-.3 8.46c-2.17 1.11-5.06 1.73-8.14 1.73 -3.08 0-5.966-.62-8.132-1.74C1.4 14.62.26 13.22.26 11.75c0-1.47 1.14-2.87 3.23-3.95C5.65 6.68 8.54 6.07 11.62 6.07c3.08 0 5.96.617 8.13 1.73 2.08 1.07 3.23 2.47 3.23 3.94 0 1.468-1.15 2.87-3.23 3.94m-9.41-3.87h-.1c-.54 0-.85.14-1.1.41 -.32.33-.609 1.23-.61 1.7 0 .48.32.82.97.82h.09c.54 0 .84-.15 1.1-.42 .31-.34.6-1.23.59-1.71 -.01-.49-.32-.82-.98-.82m.04 1.51c-.1.28-.18.46-.29.58 -.09.09-.21.16-.48.16 -.22 0-.33-.09-.33-.26 -.01-.11.02-.27.14-.59 .09-.28.17-.47.28-.59 .08-.1.2-.17.47-.17 .21 0 .33.08.33.25 0 .1-.03.27-.14.58m-4.74-1.12l-2.157.7 -.27.72h1.9l.24-.69H3.97l1.49-.51 .09-.25Zm7.846-.37l-1.05 2.05h-.03l-.06-2.06h-.875l-.04.07 .07.04c.07.05.09.1.1.24l.11 2.49h.97l1.57-2.86h-.82Zm2.39 1.71l.21-.6h-1.01l.15-.46h1.08l.24-.66h-2.06l-.03.08 .05.04c.05.05.05.11 0 .24l-.86 2.48h1.92l.23-.67h-1.12l.16-.49h.99Z"/></svg>