<svg viewBox="0 0 24 24" xmlns="http://www.w3.org/2000/svg"><path d="M12.843.97c-2.12-.1-3.48 1.43-3.48 1.43C2.513 2.48.78 8.411.74 8.53l-.25.74c-2.27 8.78 3.88 12.22 3.88 12.22 .18.09.375-.07.375-.07 .5-.31.25-.53.25-.53 -1.43-1.75-1.6-5.87-1.6-5.9 -.64-.532-1.25-1.32-1.12-2.35 0 0 .08-.51.58-.2 0 0 1.18.64 2.12.83 -.01 0 .476.04.5.17 0 0 .37 1.75-.78 2.32 .74.43 1.46.85 1.46.85 .12 1.26.81 5.32.81 5.32 .06.79.9.95.9.95 .48.17 4.12.06 4.12.06 1.01-.05 1.06-.96 1.06-.96 .01-.55.03-3.62.03-3.62 .09-.58.766-.5.766-.5 .7-.03.68.45.68.45 -.02.51.04 3.49.04 3.49 .03.85.78 1.125.78 1.125 .48 0 .82-.01 1.36 0 .25 0 1.47 0 1.47 0 .55-.31 1.37-.97 1.37-.97 5.86-4.91 4.13-11.9 4.13-11.9 -.84-4.244-5.97-5.03-5.97-5.03 -.59-1.82-1.65-2.69-1.65-2.69 -1.23-1.015-2.35-1.4-3.31-1.44Zm5 4.27s1.84 3.08-1.73 7.86c0 0-2.94 4.11-8.232 1.22 1.08.52 5.53 2.31 8.375-1.98 0 0 2.63-3.44 1.58-7.103ZM6.693 8.85s1.29.03 1.34 1.82c0 0-1.02-2.67-3.28-.2 0 0 .4-1.73 1.93-1.62Z"/></svg>