<svg viewBox="0 0 24 24" xmlns="http://www.w3.org/2000/svg"><path d="M23.64 5.43v0c0 .03.01.06.01.1v5.14c0 .13-.08.26-.19.32l-4.323 2.49v4.93h-.001c-.01.13-.08.25-.19.32l-9.03 5.19v0c-.03.01-.05.02-.07.02 -.01 0-.02 0-.03.01v0c-.07.01-.13.01-.2 0 -.02-.01-.02-.01-.03-.02 -.02-.01-.05-.02-.07-.03L.49 18.7H.49c-.12-.07-.19-.2-.19-.33V2.91c0-.04 0-.07.01-.1 0-.02.01-.02.01-.04h0c0-.02.01-.04.02-.06 0-.02.01-.03.02-.04l.03-.05c.01-.01.02-.02.03-.03 .01-.02.02-.03.04-.04h0L4.97-.05V-.06c.11-.07.25-.07.375 0l4.51 2.59h0c.01.01.02.02.04.03l.03.02c.01.01.02.03.03.04 0 .01.02.02.02.03 .01.02.01.03.02.05 0 .01.01.02.01.03 .01.03.01.06.01.09v9.652l3.76-2.17V5.37c0-.04 0-.07.01-.1 0-.01.01-.02.01-.04v0c0-.03.01-.04.02-.06 0-.02.01-.02.02-.04s.02-.03.03-.05c.01-.02.02-.02.03-.03 .01-.01.02-.03.04-.04h0l4.51-2.598v0c.11-.07.25-.07.375 0l4.51 2.598c.01.01.02.02.04.03 .01.01.02.01.03.02 .01.01.02.03.03.04 0 .01.01.02.02.03 .01.02.01.04.02.06 0 .01.01.02.01.03Zm-.74 5.03V6.17l-1.58.9 -2.19 1.25v4.28Zm-4.51 7.75v-4.29l-2.15 1.22 -6.13 3.49v4.32ZM1.09 3.62V18.21l8.273 4.76v-4.33L5.04 16.19l-.01-.01h-.01c-.02-.01-.03-.03-.04-.04 -.02-.01-.03-.02-.04-.03l-.01-.01c-.02-.02-.03-.03-.04-.04 -.01-.02-.03-.03-.03-.04h-.01c-.01-.02-.02-.04-.02-.05 -.01-.02-.02-.03-.02-.05v0c-.01-.02-.01-.04-.01-.06 -.01-.02-.01-.03-.01-.05V5.72L2.61 4.46ZM5.22.8L1.46 2.97 5.22 5.13 8.985 2.97Zm1.95 13.505l2.18-1.26V3.61l-1.58.91 -2.19 1.255v9.43ZM18.75 3.36l-3.76 2.16 3.76 2.16 3.75-2.17Zm-.38 4.97l-2.19-1.26 -1.58-.907v4.283l2.18 1.25 1.58.9ZM9.72 17.98l5.51-3.15 2.75-1.58 -3.76-2.17 -4.33 2.48 -3.95 2.27Z"/></svg>