<svg viewBox="0 0 24 24" xmlns="http://www.w3.org/2000/svg"><path d="M10.584 17.21l-.88-2.4s-1.43 1.59-3.58 1.59c-1.9 0-3.244-1.65-3.244-4.29 0-3.39 1.7-4.6 3.381-4.6 2.42 0 3.18 1.56 3.84 3.57l.88 2.74c.88 2.66 2.529 4.81 7.28 4.81 3.4 0 5.718-1.05 5.718-3.8 0-2.23-1.27-3.39-3.63-3.94l-1.76-.39c-1.21-.28-1.57-.77-1.57-1.6 0-.94.74-1.49 1.95-1.49 1.32 0 2.03.49 2.14 1.67l2.74-.33c-.22-2.48-1.93-3.5-4.73-3.5 -2.474 0-4.9.93-4.9 3.93 0 1.87.907 3.05 3.189 3.6l1.87.44c1.4.33 1.86.9 1.86 1.7 0 1.01-.99 1.43-2.86 1.43 -2.776 0-3.93-1.46-4.59-3.47l-.907-2.75c-1.16-3.58-2.997-4.9-6.653-4.9 -4.05-.001-6.19 2.55-6.19 6.9 0 4.18 2.144 6.43 5.993 6.43 3.106 0 4.59-1.46 4.59-1.46Z"/></svg>