<svg viewBox="0 0 24 24" xmlns="http://www.w3.org/2000/svg"><path d="M22.629 6.85c0-.38.3-.69.68-.69 .37 0 .68.31.68.68v10.28c0 .37-.31.68-.69.68 -.38 0-.69-.32-.69-.69V6.82ZM2.04 10.27c1.13 0 2.05.92 2.05 2.05s-.93 2.05-2.057 2.05c-1.14 0-2.057-.93-2.057-2.06 0-1.14.921-2.06 2.057-2.06Zm7.54 0c1.13 0 2.05.92 2.05 2.05s-.93 2.05-2.06 2.05c-1.14 0-2.06-.93-2.06-2.06 0-1.14.92-2.06 2.05-2.06Zm7.54 0c1.13 0 2.05.92 2.05 2.05s-.93 2.05-2.06 2.05c-1.14 0-2.06-.93-2.06-2.06 0-1.14.92-2.06 2.05-2.06Z"/></svg>