<svg viewBox="0 0 24 24" xmlns="http://www.w3.org/2000/svg"><path d="M1.83 7.574H.73v3.97h2.822v-.97H1.83Zm15.24 2.36h1.79v-.8h-1.8v-.64h1.98v-.95h-3.08v3.97h3.106v-.94h-2.03V9.9Zm-12.075 0h1.79v-.8H4.99v-.64H6.98v-.95H3.9v3.97H7.01v-.94H4.99Zm17.31.21c.49-.21.81-.62.81-1.22v-.01c0-.391-.12-.7-.36-.93 -.27-.27-.69-.43-1.3-.43h-1.88v3.971h1.1v-1.21h.48l.8 1.2h1.27Zm-.29-1.16c0 .29-.22.47-.59.47h-.73V8.5h.71c.36 0 .593.16.593.47Zm-8.74-1.44h-1.53v3.97h1.51c1.42 0 2.263-.85 2.263-2V9.5c-.01-1.15-.83-1.963-2.25-1.963Zm1.11 1.99c0 .64-.44 1-1.096 1h-.45V8.51h.44c.65 0 1.09.36 1.09 1Zm-2.68-9.57L5.465 6.2h12.47Zm-2.88 7.574l-1.68 3.97h1.149l.28-.71h1.52l.28.7h1.17L9.86 7.52Zm.07 2.417l.44-1.16 .43 1.15Zm-.79 5.24h.48l.8 1.2h1.27L9.7 15c.49-.21.81-.62.81-1.22v-.01c0-.39-.12-.7-.36-.93 -.27-.27-.69-.43-1.3-.43H6.97v3.96h1.1Zm0-1.82h.71c.36 0 .59.15.59.47v.01c0 .29-.22.47-.59.47h-.73Zm-1.54.45v-.01c0-.88-.65-1.4-1.65-1.4h-1.7v3.96h1.1v-1.14h.54c.984 0 1.7-.5 1.7-1.43Zm-1.1.04c0 .31-.24.516-.63.516h-.53v-1.05h.516c.39 0 .63.18.63.52Zm6.78-1.46h-1.11v3.96h1.1Zm2.63 4.09c.69 0 1.34-.35 1.737-.92l.02-.04 -.9-.62 -.03.03h0c-.32.46-.96.58-1.42.26 -.28-.19-.45-.51-.45-.85v0c0-.57.45-1.02 1.02-1.02 0 0 0 0 0 0 .33 0 .65.16.84.44l.02.03 .89-.62 -.03-.04v0c-.4-.58-1.05-.92-1.737-.92v0c-1.17 0-2.11.94-2.11 2.1 0 1.15.94 2.09 2.1 2.09Zm3.295-1.06v-.67h1.9v-.8h-1.91v-.64h2.1v-.94h-3.2v3.96h3.218v-.94Zm-6.49 8.49l6.23-6.24H5.43Z"/></svg>