<svg viewBox="0 0 24 24" xmlns="http://www.w3.org/2000/svg"><path d="M22.19 5.28c-.81-.46-2.93-1.48-5.66-1.48 -2.45 0-3.84.75-4.538 1.23 -.71-.49-2.093-1.24-4.538-1.24 -2.73 0-4.846 1.02-5.651 1.47L-.02 20.17h.05H.03c1.02-.01 2.03-.24 2.957-.68 1.032-.49 2.66-1.06 4.6-1.06 2.364 0 3.71 1.05 4.387 1.73 .67-.68 2.02-1.74 4.38-1.74 1.94 0 3.57.57 4.602 1.06v0c.92.43 1.93.66 2.95.67h.05Zm-1.26 12.49l-.001 0c-.93-.39-1.89-.66-2.88-.81 -.56-.09-1.12-.13-1.68-.13 -1.58 0-3 .39-4.22 1.16l-.17.1 -.17-.11c-1.23-.78-2.65-1.17-4.23-1.17 -.56 0-1.12.04-1.673.12 -.95.13-1.92.4-2.88.8l-1.218.5L3.25 6.27l.1-.05c1.225-.55 2.797-.87 4.205-.87 1.74 0 3.22.55 4.38 1.65 1.16-1.096 2.64-1.66 4.38-1.66 1.4 0 2.98.32 4.2.86l.1.04 1.45 11.961Zm-4.09-1.33v-.001c-.16-.01-.31-.01-.47-.01 -1.63 0-3.11.4-4.39 1.19 -1.29-.8-2.76-1.2-4.387-1.2 -.58 0-1.16.04-1.74.12 -.99.14-1.99.42-2.973.82l-.565.23L3.65 6.56c1.15-.5 2.61-.79 3.93-.79 1.7 0 3.13.56 4.24 1.67l.14.14 .14-.15c1.07-1.07 2.433-1.63 4.055-1.67Z"/></svg>