<svg viewBox="0 0 24 24" xmlns="http://www.w3.org/2000/svg"><path d="M10.407 7.41c-.17-.17-.33-.33-.48-.47 .7-.73 1.41-1.444 2.11-2.17 .23.23.46.45.68.68 .02.02.01.08-.01.11 -.22.43-.44.86-.657 1.3 -.02.04-.04.07-.07.13l.13-.06c.44-.21.9-.41 1.35-.62 .07-.04.12-.04.18.03 .2.19.4.39.58.56 -.73.742-1.44 1.46-2.14 2.181 -.18-.18-.35-.35-.52-.51 .34-.36.7-.72 1.06-1.08l-.02-.03 -.11.04 -1.29.58c-.07.03-.12.04-.18-.03 -.08-.09-.21-.17-.23-.258 -.02-.1.07-.22.12-.32 .18-.4.36-.79.52-1.194 -.37.35-.74.71-1.1 1.06Zm11.71 10.35c.01-.05.01-.06.01-.08 .19-.69.38-1.37.57-2.05 .01-.04.02-.11-.01-.13 -.24-.24-.48-.47-.73-.71l-2.12 2.16c.15.14.31.31.49.48 .46-.46.94-.92 1.4-1.36 0-.02 0 0-.01.01 -.16.66-.32 1.33-.49 1.99 -.05.18-.04.3.11.42 .17.14.31.3.48.47l2.12-2.17c-.15-.14-.31-.3-.51-.5 -.45.45-.91.92-1.38 1.42Zm-7.96-6.59c.12-.13.26-.28.43-.45 -.3-.3-.62-.593-.91-.88 .16-.17.31-.32.47-.49 .23.23.47.47.71.71 .14-.15.28-.29.45-.47 -.24-.24-.5-.48-.72-.7l.33-.36c.31.3.62.61.93.91 .13-.14.27-.28.41-.43 -.5-.49-1.01-.98-1.52-1.49l-2.11 2.15c.48.46.99.96 1.48 1.44Zm-10.98 3.9c-.16-.14-.29-.27-.41-.38 .29-.32.58-.63.887-.95 -.13-.12-.27-.26-.42-.39 -.488.47-.99.96-1.48 1.44l2.15 2.15c.48-.48.98-.96 1.49-1.46 -.15-.14-.29-.27-.44-.41 -.31.29-.617.6-.92.89l-.47-.44c.24-.27.48-.53.73-.79 -.14-.13-.29-.27-.47-.44Zm5.25-6.65c-.07-.03-.12-.02-.17.03 -.15.15-.31.3-.47.45 -.02.02-.04.04-.06.07 .38.12.74.23 1.11.35 .26.08.55.13.78.27 .22.13.4.37.6.57 .1.1.19.21.29.32 .2-.22.37-.4.55-.59 -.24-.25-.5-.51-.75-.77v0c-.05-.05-.08-.11-.09-.16 -.09-.37-.18-.74-.27-1.1 -.07-.3-.15-.6-.22-.91 -.22.21-.42.4-.61.59 -.02.02-.02.07-.01.11 .04.14.08.29.12.44 .06.21.12.42.18.66 -.37-.15-.7-.27-1.04-.4Zm11.19 3.99l-.56-.55c-.7.71-1.4 1.43-2.12 2.16 .47.46.97.95 1.47 1.42 .15-.16.32-.33.5-.52 -.3-.29-.61-.59-.92-.89 .54-.57 1.08-1.12 1.6-1.65ZM2.08 18.74c.49-.49.98-.97 1.479-1.45 -.18-.16-.35-.32-.52-.48 -.29.27-.6.57-.91.88 -.548-.57-1.09-1.12-1.633-1.68 -.18.19-.354.36-.528.55 .692.7 1.39 1.43 2.106 2.15Zm18.84-5c-.7.71-1.4 1.43-2.11 2.15 .16.16.33.34.53.52 .69-.72 1.4-1.44 2.1-2.16 -.16-.16-.35-.34-.54-.53Zm-2.98-1.76c-.3.23-.62.29-.98.16 -.16.47-.31.94-.47 1.42 -.19-.19-.37-.36-.55-.54 -.03-.03-.02-.11-.01-.15 .12-.58.25-1.15.37-1.73 0-.02 0-.04-.01-.08 -.38.38-.75.77-1.12 1.15l-.56-.54 2.08-2.16c.46.45.92.87 1.34 1.31 .28.28.19.85-.15 1.125Zm-.55-.97c-.16-.17-.34-.32-.5-.48 -.16.16-.32.32-.5.5 .1.1.2.22.31.32 .02.02.03.05.06.06 .04.03.09.07.14.09 .15.07.33.02.44-.12 .11-.14.14-.29.03-.4Zm-8.09.08c0 .81-.77 1.54-1.61 1.54 -.81 0-1.55-.75-1.55-1.56 0-.91.657-1.57 1.55-1.57v0c.87-.02 1.59.68 1.6 1.56 0 0 0 .01 0 .02Zm-.75 0v-.001c-.15-.37-.41-.66-.76-.84v0c-.21-.12-.46-.1-.65.05 -.21.15-.33.35-.31.62 .04.42.657.99 1.08.98 .39-.01.75-.47.61-.83ZM7.51 13.36c-.17.18-.34.359-.51.53 -.03.02-.1.01-.14 0 -.54-.14-1.08-.29-1.62-.43l0-.001c-.04-.02-.08-.02-.12-.01L6.21 14.58c-.18.19-.359.38-.53.55L3.51 13c.03-.04.05-.06.07-.08 .33-.34.68-.68 1.02-1.01 .22-.22.49-.34.81-.3 .4.05.7.37.71.8 0 .15-.02.3-.03.46 .46.14.92.29 1.375.44Zm-2.07-.83c-.14-.14-.31-.17-.45-.06 -.16.12-.3.25-.45.39 .18.17.36.33.55.51 .08-.08.18-.17.28-.27 .04-.04.08-.08.11-.12 .1-.16.08-.33-.06-.47Zm15.86 6.62H2.5c-.02-.02-.03-.03-.04-.05 .04-.02.08-.03.11-.06 1.3-1.29 2.6-2.58 3.9-3.87l4.56-4.53c.26-.27.53-.52.79-.79 .08-.09.13-.09.21 0 1.48 1.49 2.97 2.98 4.46 4.471 1.56 1.56 3.13 3.13 4.7 4.7v0c.03.02.06.05.1.08 -.01.01-.02.02-.03.02Z"/></svg>