<svg viewBox="0 0 24 24" xmlns="http://www.w3.org/2000/svg"><path d="M11.99 0v0c-.46 0-.84.35-.88.81v3.02l-.001 0c0 .48.39.88.88.88v0c.48-.01.87-.4.88-.89V.79v0c-.04-.47-.43-.83-.89-.817Zm7.7 3.1v0c-.19 0-.38.06-.53.17l-2.38 1.94v0c-.38.3-.44.86-.13 1.23 .16.2.41.32.68.32v0c.2 0 .4-.08.55-.21l2.37-1.96v0c.36-.33.38-.89.06-1.25 -.17-.19-.41-.3-.66-.3Zm-15.38.01h0c-.49-.01-.89.39-.89.88 -.01.24.09.47.27.63l2.37 1.95 -.001 0c.15.13.35.2.56.2v-.01 0c.48 0 .88-.4.88-.89 0-.27-.12-.52-.33-.69l-2.38-1.95h0c-.15-.11-.33-.17-.51-.17Zm7.65 3.22l0 0c-2.78.01-5.03 2.26-5.03 5.04v1.48H5.76l0 0c-.54 0-.97.43-.97.96v9.18 0c0 .53.43.96.96.96h12.42v0c.53-.01.96-.44.96-.97v-9.2 0c-.01-.54-.44-.97-.97-.97h-1.17v-1.49 0c-.01-2.79-2.26-5.05-5.05-5.05 -.01 0-.02 0-.02 0Zm.01 2.89V9.21c1.18-.01 2.15.95 2.15 2.14 0 0 0 0 0 0v1.48H9.81v-1.49l0 0c-.01-1.19.95-2.15 2.14-2.16Zm7.38.5h0c-.49 0-.89.39-.89.88 0 .48.39.88.88.88 .02-.01.04-.01.06-.01h3.02v0c.48-.04.85-.46.81-.95 -.04-.44-.38-.79-.82-.82h-3.03 -.001c-.03-.01-.05-.01-.08-.01Zm-17.85 0v0c-.49.03-.86.45-.82.94 .03.43.37.78.81.81h2.99v0c.48-.04.85-.46.81-.95 -.04-.44-.38-.79-.82-.82Zm10.45 6.77v-.001c.7-.01 1.28.56 1.29 1.26 0 .46-.25.89-.65 1.12v1.24 0c-.01.34-.29.62-.64.62 -.35-.01-.62-.29-.63-.63v-1.25h-.001c-.62-.35-.84-1.13-.49-1.75 .22-.4.64-.65 1.1-.65Z"/></svg>