<svg viewBox="0 0 24 24" xmlns="http://www.w3.org/2000/svg"><path d="M5.28 6.71v-.001c-2.92 0-5.29 2.36-5.29 5.28 0 2.91 2.36 5.28 5.28 5.28v0c2.91-.06 5.23-2.47 5.18-5.39 -.06-2.84-2.35-5.13-5.19-5.19Zm0 .86c.05 0 .15 0 .21 0v.41l-.001 0c-.07-.01-.14-.01-.21-.01l-.001-.001c-1.07-.01-2.09.42-2.84 1.17h0c-.76.75-1.18 1.77-1.18 2.83 0 1.07.41 2.08 1.17 2.83v0c.75.75 1.77 1.17 2.83 1.17h0c2.1-.01 3.85-1.64 4-3.75v-.06H6.51v-.41h2.98l.17-.01v.2 0c0 1.17-.47 2.29-1.3 3.12v0c-.83.83-1.96 1.29-3.13 1.29 -1.18 0-2.29-.46-3.13-1.3l-.001 0c-.84-.83-1.3-1.96-1.3-3.13v-.001c0-2.45 1.98-4.43 4.424-4.43Zm16.063.87c-2.21 0-3.372 1.2-3.372 3.5 0 2.29 1.05 3.53 3.36 3.53 1.06 0 2.099-.27 2.66-.67v-3.32h-2.74v1.27h1.28v1.19c-.24.09-.7.18-1.14.18 -1.42 0-1.9-.73-1.9-2.19 0-1.4.45-2.23 1.87-2.23 .79 0 1.24.24 1.61.72l.98-.91c-.6-.86-1.65-1.12-2.63-1.12Zm-8.413.1v6.834h4.85v-1.33h-3.27V8.53ZM3.59 9.66v0c.35-.01.63.28.63.63s-.29.63-.64.63c-.01 0-.01 0-.01 0v0c-.36-.01-.64-.29-.64-.64 0-.36.28-.64.63-.64Zm1.47 0h.42v4.22h1.05v.41h-1.48Z"/></svg>