<svg viewBox="0 0 24 24" xmlns="http://www.w3.org/2000/svg"><path d="M12.008 4.866c-2.92 0-5.38.67-7 2.11 -.05-.09-.09-.17-.15-.26 -.17-.28-.33-.59-.83-.89v0c-.31-.2-.66-.33-1.02-.39v0c-.16-.02-.32-.02-.47-.01l.09-.02c-.91 0-1.442.54-1.79 1.016 -.35.47-.566.99-.71 1.577 -.29 1.15-.29 2.651.81 3.76 .57.58 1.251.86 1.863 1.02 .11.03.22.04.33.06 .399 1.89 1.58 3.49 3.15 4.381v0h0c.92.52 1.81.76 2.47 1.01 .92.35 1.9.75 3.03.85l.06 0h.15c1.3 0 2.29-.53 3.15-.86 .65-.25 1.54-.49 2.47-1.01h0c.43-.25.83-.54 1.19-.88v0c.98-.93 1.67-2.13 1.96-3.45h0c.83-.14 1.6-.54 2.19-1.15 1.09-1.12 1.09-2.62.8-3.766 -.15-.58-.37-1.11-.71-1.577 -.35-.47-.88-1.016-1.79-1.016l.1.01 0-.001c-.16-.02-.32-.02-.48 0V5.37c-.36.05-.71.18-1.01.38 -.5.3-.66.61-.83.88 -.06.08-.09.16-.14.24 -1.62-1.43-4.08-2.11-6.99-2.11Zm.02 1.37c3.55 0 6.01 1.06 7.05 2.97 .63-.25 1.093-1.89 1.61-2.21 .42-.26.66-.2.66-.2 .95 0 1.93 2.79.71 4.032 -.65.657-1.83.84-2.43.79 -.05 1.9-1.16 3.62-2.63 4.45 -.75.42-1.56.64-2.3.92 -.93.35-1.79.76-2.67.76h-.1c-.88-.08-1.74-.41-2.67-.77 -.75-.29-1.55-.51-2.3-.93 -1.46-.83-2.58-2.54-2.62-4.445 -.59.05-1.79-.14-2.44-.8C.68 9.563 1.66 6.77 2.6 6.77s.246-.07.66.19c.52.32.98 1.984 1.62 2.21 1.04-1.92 3.5-2.98 7.06-2.98Zm-3.88 2.33v0c-1.69-.04-3.08 1.31-3.11 2.99 -.04 1.68 1.31 3.07 2.99 3.1 .03 0 .07 0 .11 0v0c1.68-.04 3.02-1.43 2.99-3.11 -.03-1.65-1.36-2.97-3-3Zm7.75 0h-.001c-1.69-.01-3.06 1.36-3.06 3.05 -.01 1.68 1.36 3.05 3.05 3.05 0 0 0 0 0 0h0c1.68-.01 3.05-1.37 3.05-3.06 -.01-1.69-1.37-3.06-3.06-3.06Zm-7.32 1.71v-.001c.74.02 1.34.64 1.31 1.39 -.02.72-.6 1.3-1.32 1.31v0c-.75-.01-1.36-.61-1.36-1.36 0-.12.01-.23.04-.34h0c.11.29.45.43.74.31 .21-.09.35-.3.35-.53v0c0-.31-.25-.56-.55-.57H7.78c.22-.16.49-.24.76-.24Zm6.888 0v-.001c.74.02 1.34.64 1.31 1.39 -.02.72-.6 1.3-1.32 1.31v0c-.75 0-1.36-.61-1.36-1.36 -.01-.12.01-.23.04-.34v0c.11.29.45.43.74.31s.43-.46.31-.75c-.09-.21-.29-.35-.51-.36v0c.22-.16.49-.24.76-.24Zm-3.96 4.65c-.24.02-.38.14-.38.47 0 .21.13.36.37.36v0c.07-.01.14-.07.14-.15 -.01-.07-.05-.13-.11-.14 -.03-.01-.13-.05-.13-.14 0-.1 0-.125.18-.15 .07-.02.11-.11.09-.18 -.03-.08-.1-.1-.18-.1Zm1.02 0c-.09-.01-.16.01-.18.09 -.03.07.01.16.09.18 .18.02.18.05.18.15 0 .09-.11.13-.13.13v0c-.08.01-.13.09-.11.17 .01.06.07.1.13.1 .24 0 .37-.16.37-.37 0-.33-.14-.46-.38-.48Z"/></svg>