<svg viewBox="0 0 24 24" xmlns="http://www.w3.org/2000/svg"><path d="M2.32 0h-.001C1.029 0-.01 1.03-.01 2.32v19.36 0c0 1.28 1.03 2.31 2.32 2.32h19.36v0c1.28 0 2.32-1.04 2.32-2.32V2.32 2.31c0-1.29-1.04-2.32-2.32-2.32Zm9.2 3.98l-2.27 9.4v-.001c-.05.17-.07.35-.08.53V13.9c-.01.14.02.29.09.43v-.001c.07.13.19.24.33.3 .15.07.37.12.66.14l-.49 2c-.78 0-1.38-.1-1.82-.3 -.45-.21-.76-.48-.95-.83l-.001 0c-.2-.37-.3-.79-.28-1.2 0-.46.06-.94.18-1.45l2.07-8.67Zm3.9 3.88c.61 0 1.13.09 1.57.27 .44.18.8.43 1.08.76 .28.32.49.69.62 1.12 .13.43.2.89.2 1.37v0c0 .79-.13 1.52-.4 2.17v-.001c-.25.63-.62 1.21-1.09 1.7v-.001c-.48.48-1.04.86-1.67 1.11 -.65.26-1.36.4-2.12.4 -.37 0-.74-.04-1.11-.1l-.74 2.95H9.34l2.71-11.3c.43-.13.93-.25 1.49-.36h0c.6-.11 1.21-.16 1.82-.16Zm-.31 2.04v0c-.33-.01-.66.03-.98.09l-1.15 4.75c.18.04.41.06.68.06 .42 0 .81-.08 1.16-.24v0c.34-.16.64-.38.89-.67 .24-.29.43-.63.57-1.02v0c.14-.43.2-.87.2-1.32 0-.47-.11-.87-.31-1.2 -.21-.33-.57-.49-1.077-.49Z"/></svg>