<svg viewBox="0 0 24 24" xmlns="http://www.w3.org/2000/svg"><path d="M3.15 23.99c-1.17-.06-1.75.04-2.021-.48 -.265-.31-.138-3.465-.19-4.7 1.702-1.37 3.42-2.69 5.145-4.03 0 2.89.14 8.186-.17 8.72 -.27.56-1.33.47-2.77.47Zm6.468-.62c-.31-.01-.18-6.05-.21-11.21 1.7-1.36 3.42-2.68 5.14-4.01 -.03 5.92.12 14.77-.11 15.09 -.34.71-1.064.54-2.47.58 -1.1-.06-2.058.16-2.37-.47Zm8.41.01c-.18-.33-.16-7.898-.11-15.21l-.001 0c1.71 1.31 3.42 2.64 5.12 3.97 -.03 1.21.1 11.18-.17 11.18 -.28.47-.65.48-2.44.48 -.94-.09-1.86.18-2.42-.45ZM.968 15.54C.938 10.73.9 6.023.988 1.07c.02-.64.251-1.01.94-1.05 .53-.07 3.01-.04 3.463.05V.07c.31.08.55.33.62.65 .09 2.71.07 6.15.09 10.776 -1.72 1.34-3.44 2.67-5.15 4.02Zm8.458-6.66c-.05-2.518 0-7.016.03-7.696 .07-1.552 1.08-1.115 2.41-1.2 1.97-.02 2.279.09 2.5.45 .24.36.2 2.598.2 4.422 -1.7 1.32-3.6 2.83-5.15 4.01Zm13.58-.02c-1.71-1.338-3.36-2.633-5.064-3.97 .01-1.322-.07-2.744.01-4 .1-.54.25-.84 1.16-.87 1.11-.13 2.72-.09 3.41.14 .52.12.52 1.379.48 5.226Z"/></svg>