<svg viewBox="0 0 24 24" xmlns="http://www.w3.org/2000/svg"><path d="M20.53 19.21c-.58.11-1.19.5-1.66.59 -1.05.19-1.66 0-1.11-.22 .8-.34 3.44-.42 3.71-2.38s.08-2.85-.06-3.34v0c-.1-.31-.22-.61-.36-.9v0c-.04-.18-.08-.36-.14-.53h0c-.04-.08-.06-.16-.08-.23 0 0-.04-.25.07-.48 .09-.21.43-.66.45-1.1v-.08 0c-.01-.03-.01-.06-.01-.09l-.01-.03h-.001c-.05-.23-.18-.43-.38-.55 -.13-.09-.29-.11-.39-.23 .07-.23.3-.32.4-.51 .06-.17.01-.35-.09-.51 -.18-.2-.53-.38-.85-.49 -.4-.15-.8-.27-1.07-.48 -.29-.16-.48-.45-.31-.84v0c.04-.1.06-.2.06-.3v-.03c-.01-.02-.01-.04-.01-.06v0c-.01-.02-.01-.03-.01-.05l-.01-.03 -.01-.03c-.08-.25-.46-.31-.59-.33 -.31-.03-.51-.12-.67-.17 .13.06.26.16.43.22 .1.04.26.07.38.11 0 0 .23.04.3.21V6.34c.04.13.04.27 0 .4l-.01.02c-.03.07-.05.14-.06.21 -.03.28.15.43.24.673 .16.15.4.32.73.47 .29.13.65.21.87.34 .12.07.36.26.35.39 -.01.1-.2.24-.28.34 -.06.07-.09.17-.14.24 -.05.06-.1.11-.17.11 -.09 0-.28.03-.15.04 .12.01.44.16.44.16 .43.18.72.51.56.99 -.14.39-.45.73-.47 1.17 -.03.46.19.85.21 1.22 .04.62-.05 1.05-.17 1.52 -.06.21-.09.43-.14.64 -.22.9-.76 1.29-1.5 1.71 -.33.18-.67.51-1.01.62 -.06.01-.15-.01-.2 0 -.32.05-.61.21-.93.27 -.31.05-.63.03-1 .12 -.19.06-.42.16-.56.22 -.22.09-.43.19-.64.3l-.7.39s-.39.22.04.05c.34-.14 1.52-.73 1.03-.38 -.35.17-.53.41-.83.62 0 0-1.016.5-1.17.64 -.17.15-.38.06-.51.22h0c-.14.15-.31.26-.49.33 -.14.04-.3.35-.51.5 -.22.15-.68.11-1.08.28h0c-.27.1-.55.16-.83.17 -.04 0-.08 0-.12 0h-.05v0c-.19 0-.38-.04-.56-.1 -.17-.07-.24-.03-.2-.01 .03.02.14.12.14.12 -.48 0-.61-.32-.82-.55 .1-.02.38.05.23-.03 -.29-.14-.827-.15-.84-.47 -.01-.26.11-.2.11-.2 .19.34.8.38 1.25.375 .83-.01 1.39-.47 1.93-.73h-.001c.12-.08.25-.17.38-.25v0c.17-.12.34-.22.49-.36 .25-.24.42-.55.65-.81h0c.04-.06.08-.11.14-.16 .06-.06.13-.12.2-.17l0 0 .03-.02 -.01-.01c.548-.32 1.05-.66 1.48-1.08l0-.01c.06-.06.38-.42.54-.6 .18-.25.31-.56.39-.87 .02-.12.01-.26.05-.38 .06-.19.24-.36.35-.548 .11-.2.19-.41.27-.63 .34-.94.73-1.69 1.47-2.2 .35-.25.78-.41 1.03-.78v0c-.2.19-.44.33-.71.4 -.82.26-1.34.95-1.61 1.38v0c-.22.38-.38.79-.48 1.22v0c-.04-.49-.16-.96-.36-1.4 -.16-.37-.31-.77-.6-1 0 0-.02 0-.06-.03 -.05-.03.76-.05.76-.05 .14 0 .28.02.43.04v0c.03-.01.06-.01.1 0 .44.07.91-.09 1.2-.3 .15-.11.41-.2.62-.26 0-.01.02-.02.08-.03 0 0 .33-.11.68-.2v0c.18-.05.36-.11.53-.18v0c.07-.05.13-.1.18-.17 .1-.13.1-.28.19-.5 .08-.22.21-.39.21-.58 0-.62-.58-1.1-1.2-.78 .61-.16 1.05.14.98.72 -.1.71-1.18 1.24-1.83 1.51 -.26.1-.57.24-.88.27 -.45.04-.85-.05-1.23-.03 -.49.03-.82.29-1.23.32 -.36.02-.31-.22-.62-.24 -.07-.04-.26 0-.45-.01 -.532.14-.88-.11-1.31-.3 -.32-.15-.65-.27-.99-.3 -.84-.07-1.35.04-2.04-.03 -.2-.02-.6-.05-.79-.12 -.593-.23-1.05-.15-1.69-.15 -.47-.01-.91-.04-1.2.02 -.08.01-.16.03-.25.05 -.63.1-1.59.16-1.56.72 .04-.04.03-.12.1-.13 -.01.1-.01.2.02.27 -.37-.01-.58-.27-.573-.548 .01-.49.79-.69 1.33-.83 .54-.13 1.1-.29 1.5-.35 -.95.13-1.95.22-2.673.57v0c-.01-.04-.02-.08-.03-.11 -.06-.27-.19-.67-.27-1.06 -.11-.46.05-1.25.05-1.25l0 0c.06-.41.14-.58.22-.83 .17-.52.726-.68 1.11-.73v0c-.32.21-.56.53-.67.9 -.02.13-.03.26-.04.37 .29-.92 1.113-1.26 1.113-1.26l.26-.29 -.01.01c.45-.44 1.05-.78 1.8-.798 .383-.01.84.09.84.46 0 .21-.17.39-.4.49v0c.06.01.12 0 .18-.02l.23-.27c.07-.2.07-.44-.06-.59 .34-.3.88.03.84.42 .1-.09.16-.25.09-.375 .46-.28.72.39 1.19.23 -.05-.133-.27-.11-.34-.22 .61-.09 1.15.12 1.76.08 .03.03.08.06.12.1 -1.15.12-.22.12-.22.12 .14-.02.5-.04.63-.02 .22.04.37-.02.56-.1 0 0 .02 0 .03-.02 .1-.05.22-.09.37-.13v0c.05-.01.11-.03.17-.05l.02-.01 0-.01c.07-.03.15-.06.21-.09 .58-.28 1.06-.94 1.55-1.28 .81-.57 1.59.13 2.16.59l-.01 0c.14.09.33.21.53.34 .53.23 1.24.43 1.62.81 .3.29.4.68.53 1.08 .12.37.35.702.49 1.12v0c.02-.03.04-.06.05-.1 -.01-.04-.01-.08 0-.1l0 0v0c-.01-.09-.02-.17-.05-.25 -.12-.23-.31-.49-.29-.7 0 0 .69.36 1.48.718 .27.12.52.32.74.55l.06-.01v0c-.01.02-.01.04-.01.06 .38.43.657.94.75 1.24v0c.04.13.09.27.16.41h0c.01.02.02.05.03.07 .11.24.22.44.25.5 .1.12.18.28.26.42h0c.26 2.94-.62 5.86-2.47 8.17 -.09.01-.22.03-.38.06Zm-.718 1.12c-.55.18-1.11.51-1.47.55 -1.08.1-1.27-.38-.41-.46 .32-.03.8-.07 1.18-.25 .56-.27 1.14-.53 1.52-.73 -.27.3-.55.59-.84.875Zm-11.735.05c-.1.03-.1-.02-.1-.02s-.17-.24-.19-.46c-.03-.22.03-.42.08-.44 .05-.03.06.09.11.25 .04.16.26.49.26.49 .03.06-.09.13-.19.16Zm.57.1c-.11.03-.11-.02-.11-.02s-.19-.27-.22-.52 .03-.47.09-.5c.06-.04.07.11.12.29 .05.18.3.55.3.55 .03.07-.11.15-.22.18Zm.19-.7c-.04-.32.04-.6.12-.64 .08-.05.09.14.16.37 .06.23.39.7.39.7 .04.09-.14.19-.27.23 -.14.04-.14-.02-.14-.02s-.24-.34-.28-.66Zm4.66-3.59c.05-.05.11.05.22.17 .11.12.5.31.5.31 .06.04-.07.16-.17.23s-.12.03-.12.03 -.29-.14-.4-.33c-.11-.19-.11-.38-.05-.43Zm-.93.49c.06-.07.14.07.28.22 .14.16.63.41.63.41 .08.06-.08.21-.21.3s-.15.03-.15.03 -.359-.19-.5-.43c-.14-.24-.14-.5-.07-.56Zm-.83 1.11c-.13-.26-.12-.52-.04-.59 .07-.07.13.08.266.25 .13.17.6.46.6.46 .07.06-.09.21-.22.3 -.13.08-.15.03-.15.03s-.35-.21-.47-.47Zm-.76.63c-.11-.27-.08-.54-.01-.6 .07-.06.12.09.24.28 .11.18.55.52.55.52 .06.07-.1.21-.23.29 -.13.07-.15.01-.15.01s-.32-.24-.43-.52Zm-1.02 1.65c-.14.04-.14-.03-.14-.03s-.23-.34-.26-.64c-.03-.31.06-.58.14-.62 .08-.05.09.13.15.35 .05.22.37.68.37.68 .04.09-.14.18-.28.22Zm.27-1.06c-.07-.31-.01-.59.08-.65 .08-.06.11.12.2.34 .08.21.48.64.48.64 .05.09-.125.21-.27.27 -.14.06-.15-.01-.15-.01s-.29-.31-.36-.62Zm3.68-7.16s.08.01.04.12 -.05.46.06.61c.11.15-.08.09-.22-.06 -.15-.15-.25-.43-.22-.62 0 0-.01-.08.32-.06Zm-.51.92c.17.19-.1.14-.32-.05 -.23-.2-.41-.57-.39-.84 0 0-.03-.11.44-.13 0 0 .11 0 .07.17 -.04.16 0 .65.18.843ZM12.2 13.78c1.01.06 1.74-.29 2.26-.65 .13-.1.31-.33.54-.18 -.1.2-.36.33-.58.44 -.38.19-.72.36-1.15.47 .73-.12 1.25-.42 1.8-.7 .06.14.14.42.19.66h0s.05.13.03.26c0 .06-.01.11-.06.14v0c-.02.02-.04.03-.06.05 -.2.13-.8.42-1.27.45 -.02 0-.03 0-.05 0l-.04.01 -.01-.01c-.44.05-.72.22-.16.13 .55-.1 1.73-.3 1.3-.13h0c-.54.21-1.25.41-1.94.34 -.45-.05-.91-.27-1.31-.48 -.4-.21-.78-.49-1.2-.58 -.33-.07-.59.02-.88.07 -.19.03-.45.1-.57-.01 -.05-.06-.01-.12-.01-.12 .1-.266.42-.43.68-.5 .81-.24 1.61.19 2.401.25Zm.23-.891c.17.24-.13.14-.36-.11 -.23-.26-.38-.71-.33-1.02 0 0-.01-.13.52-.08 0 0 .12.02.06.2 -.07.18-.09.74.08.99Zm-1.09-.12c.16.28-.15.15-.38-.14 -.23-.29-.37-.81-.29-1.14 0 0-.01-.15.58-.07 0 0 .13.03.05.23 -.08.19-.15.81.02 1.1Zm-1.12-.16c.17.28-.15.16-.38-.13 -.24-.3-.38-.82-.3-1.16 0 0-.01-.15.58-.08 0 0 .14.03.05.23 -.08.2-.15.83.02 1.12Zm-1.03.32c.21.37-.16.21-.45-.17 -.29-.38-.48-1.06-.4-1.5 0 0-.02-.19.66-.1 0 0 .16.04.08.3s-.12 1.08.09 1.46Zm-1.09-.28c.21.32-.16.2-.45-.13 -.29-.33-.47-.93-.39-1.34 0 0-.01-.18.66-.12 0 0 .16.03.08.27 -.09.24-.125.98.08 1.3Zm-1.154-.38c.14.27-.14.15-.35-.14 -.21-.29-.32-.79-.24-1.12 0 0 0-.14.54-.06 0 0 .12.03.04.22 -.08.19-.16.8-.01 1.08Zm-.88-.24c.14.22-.12.125-.31-.11 -.19-.23-.31-.63-.25-.9 0 0-.01-.12.46-.06 0 0 .11.02.05.18 -.06.15-.1.64.04.86Zm-.93.16c.17.24-.13.14-.36-.11 -.23-.26-.38-.71-.33-1.02 0 0-.01-.13.52-.08 0 0 .12.02.06.2 -.07.18-.09.74.08.99Zm-.75-.07c.17.19-.1.14-.32-.05 -.23-.2-.41-.57-.39-.84 0 0-.03-.12.44-.13 0 0 .11 0 .08.17 -.04.16 0 .65.18.843Zm10.24 10.24c-.516.17-1.44.62-2.173 1 -.18 0-.36.01-.54.01C5.61 23.36.49 18.25.49 11.95 .49 7.06 3.56 2.89 7.87 1.26c.02.02.04.04.07.05 .04.03.12.05.17.1 .05.06.03.2.05.28 .07.25.23.49.5.69 .04.02.11.04.14.08 .07.08.05.22.1.32 .06.1.16.22.28.32 .06.05.16.08.23.14 .05.05.06.14.1.21 .1.2.36.44.48.65V4.1c.01.02.03.05.04.08 .05.1.18.33.35.44 0 0 .01.31.33.68 -.65-.04-1.27-.399-1.75-.04 -.14-.15-.58-.27-.77-.06 -.14-.242-.88-.4-1.03-.02 -1.053-.48-2.33.2-2.734.87h0c-.08.03-.15.07-.22.11H4.21c-.38-.13-.79-.06-1.11.18 -.42.3-.86 1.65-.778 2.58 0 .1.19.33.266.81 .06.46.12.62.12.62 -.1.16-.21.23-.22.42 -.04.41.31.63.64.84 .11.05.24.09.39.09 .08.13.42.6.97.6l.04-.01c.21.17.43.22.28 0v0c-.02-.02-.03-.04-.04-.06l-.001 0c.1.06.21.11.33.13 0 0 .05.01.09.01 .01 0 .06 0 .07-.04 .01-.04-.02-.08-.03-.09 -.05-.06-.1-.19-.14-.31 .04.07.08.14.13.2 .26.32.63.47.42.15v0c-.07-.13-.12-.26-.13-.4v0c.14.17.34.28.56.33 .23.22.52.31.35.07v0c-.05-.07-.08-.15-.1-.23 .14.17.38.38.67.38H7c.2.13.37.15.22-.04h0c-.07-.1-.11-.22-.12-.33 .13.27.39.64.83.76 0 0 .08.02.14.02 .04 0 .08-.02.09-.04 .02-.04-.01-.09-.02-.1v-.001c-.04-.06-.06-.11-.08-.16 .2.11.34.12.19-.07v0c-.09-.12-.13-.25-.14-.38 .1.29.32.69.76.96 0 0 .08.04.16.04v0c.03 0 .07-.01.11-.03l-.001 0c.02-.02.04-.04.05-.07 .02-.09-.07-.22-.08-.23h0c-.06-.12-.11-.23-.14-.35l0 0c.31.25.72.37.47.11 -.16-.16-.22-.42-.22-.64 .09.25.31.7.77.79 0 0 .07.01.12.01 .02 0 .06-.01.07-.04 0-.02 0-.04-.02-.06v-.001c-.06-.08-.09-.17-.11-.26 .02.01.04.03.06.04 .22.14.48.22.52.17 .07.06.18.13.33.2 .01.03.02.06.04.09 0 0 .07.19.09.3 -.37-.1-.984-.28-1.45-.18 -.37.08-1.32.6-1.09.97v0c.01.02.03.04.05.05l.01 0v0c.13.05.27.08.42.07l.06-.01v0c.14-.02.29-.04.44-.07 .25-.09.48-.04.48-.04l-.01 0c.18.02.37.08.56.18 .21.1.5.28.57.37 .13.16-.07.532-.15.76l-.02.04 -.01.01h0c-.02.03-.03.06-.04.1v0c-.02-.02-.03-.04-.04-.05 -.08-.13-.11-.23-.15-.18 -.04.05-.04.24.03.42h-.001c0 .01.01.03.02.05 -.09.15-.19.3-.29.45h-.001c-.08-.07-.15-.15-.21-.24 -.1-.16-.15-.3-.19-.24 -.05.06-.05.32.04.56h-.001c.03.07.07.14.12.21v0c-.1.12-.2.23-.31.35v0c-.11-.11-.2-.22-.28-.35 -.09-.18-.14-.33-.19-.27 -.05.06-.06.33.02.6 .03.1.09.2.15.28h0c-.12.1-.23.21-.35.32v0c-.08-.09-.13-.19-.18-.29 -.08-.2-.12-.36-.17-.3 -.06.06-.08.34-.01.63 .01.07.04.13.07.19 -.12.1-.24.2-.34.3v0c-.03-.06-.06-.13-.08-.19 -.07-.23-.09-.42-.15-.36 -.07.05-.12.36-.07.68 0 .03.01.06.01.09l-.03.02c-.07.06-.15.13-.23.21h0c-.02-.06-.04-.11-.05-.17 -.04-.24-.05-.43-.11-.39 -.07.04-.14.34-.13.67 0 .05 0 .1.01.15 -.1.1-.19.2-.27.31v0c-.05-.12-.09-.24-.12-.36 -.05-.25-.06-.45-.12-.41 -.06.04-.13.31-.12.62 -.07.04-.15.26-.15.51v0c0 .08.01.16.03.24 -.05.05-.12.09-.17.17 -.27.36-.16.8.4.89 .17.53.61.79 1.282.79 .09 0 .18-.03.27-.03 .1 0 .18.04.27.05 .49.01.74-.14 1.11-.25 .27-.08.56-.11.73-.18 .26-.11.39-.39.6-.53 .07-.05.22-.08.35-.15 .11-.07.2-.18.3-.23 .08-.04.22-.03.32-.08 .17-.08.36-.24.57-.35v0c.41-.23.84-.44 1.282-.63 .22-.1.46-.34.6-.35 .15-.02.34.11.46.1 .25.29.33.71.32 1.24 .01 0 0 .13 0 .13s.08 1.14-1.705 1.76ZM7.5.16c.18.05.39.15.19.47C7.56.5 7.52.32 7.49.15Zm.35.42c.06-.11 0-.16.03-.23 .53.07.585.44.35.984C7.87 1.21 7.77.97 7.7.73c.05-.07.1-.1.13-.16Zm.58.1c.5.22.58.77.23 1.499L8.66 2.17c-.12-.08-.21-.17-.28-.28 -.06-.09-.13-.22-.11-.33 .01-.08.07-.18.1-.27 .08-.244.12-.47.05-.638Zm2.4 2.105c-.01-.03.01-.03.03-.05 .75.15.81.88.48 1.43 -.16.26-.31.399-.54.32 -.2-.06-.22-.22-.32-.33 .38-.56.375-.97.33-1.392Zm-.87-.55c-.01-.07-.02-.15.01-.21v0c.09 0 .18.02.27.07 .42.22.59 1.01.35 1.48 -.11.2-.22.29-.41.24 -.32-.09-.41-.45-.54-.6 .34-.37.32-.7.31-.988Zm-1.016-1l.02-.01c.82.29 1.29.84.54 1.85 -.29-.15-.45-.34-.53-.552 -.05-.13-.08-.15-.05-.3 .06-.35.08-.72 0-.99Zm3.2 4.238l-.06.02c-.1.05-.21.08-.31.1 -.62-.14-.81-.84-.81-.84 .58-.26.907-.99.7-1.4 0-.02.02-.02.03-.01 .26.11.54.31.673.52 .25.39.33 1 .11 1.48 -.1.02-.16.04-.24.07v0c-.02 0-.03 0-.04.01l-.07.02 -.01 0 -.02 0Zm1-.51l-.13.1c-.04.06-.15.15-.29.21 .11-.34.12-.7.13-.96 .22.11.38.28.46.46l-.09.07v0c-.05-.08-.1-.15-.17-.2 .03.09.05.18.05.28ZM11.88.51C17.48.51 22.13 4.54 23.11 9.85v0c-.12-.08-.24-.15-.36-.2 -.28-1.25-.89-2.04-2.12-2.49 -.42-.16-.81-.33-1.22-.51 .02-1.33-1.52-1.3-2.49-1.984 -.42-.3-.9-.85-1.38-.95 -.93-.2-1.5.44-2.042.89 -.14-.15-.34-.29-.63-.42 0 0-.53-.75-.77-.89v0c-.02-.01-.03-.02-.04-.03 -.14-.07-.31-.1-.43-.18 -.12-.08-.14-.26-.26-.35V2.73c-.07-.05-.15-.1-.23-.13 -.1-.04-.26-.03-.36-.09 -.12-.07-.13-.28-.22-.38v0c-.11-.13-.25-.23-.41-.28 -.08-.03-.2-.03-.27-.07 -.08-.05-.1-.18-.16-.26 -.15-.2-.39-.35-.66-.44 -.06-.02-.14-.02-.19-.05C8.81.99 8.81.91 8.78.84c.96-.27 1.97-.41 3.01-.41ZM23.23 10.57c-.12-.2-.23-.39-.27-.56 .08.05.14.11.21.17 .02.12.03.25.05.38ZM11.88-.07v0C10.67-.08 9.47.1 8.33.46V.46C8.31.43 8.3.41 8.28.39c-.11-.1-.23-.18-.49-.12V.27c-.1-.14-.25-.23-.41-.26l-.01.01c.02.233.05.46.23.629l-.01.02C3.07 2.39-.16 6.77-.16 11.9c0 6.628 5.372 12 12 12 6.62 0 12-5.372 12-12 0-6.63-5.38-12-12-12Zm-6.1 6.31s-.48.1-.6.94c0 0-.03.42.11.32 -.12-.51.37-.74.48-.79 .15-.07.28-.05.29.08 .01.14-.16.2-.2.35 .17-.1.55-.33.51-.63 -.03-.22-.24-.42-.6-.3Zm6.2.51c-.81-.48-2.907-.4-3.4-.43 -.484-.04-.726.57-.726.57 -.01.13.1-.02.1-.02 .31-.57.59-.47.59-.47 1 .29 1.18 1.76 1.22 2.1 .04.34.12.11.12.11 .09-.85-.52-1.89-.65-2.02 -.13-.14-.01-.21.4-.09 1.24.35 1.36 2.349 1.44 2.59 .07.24.12.01.12.01 -.17-1.84-.87-2.29-1.06-2.55 -.08-.11.55-.12.83.06 1.56 1.013 1.39 2.95 1.53 2.67 .14-.29-.4-2.04-1.15-2.636 -.16-.12.52.09.77.31 1.18 1.09 1.32 2.27 1.41 2.612 .09.34.13.22.13.22 .01-1.16-.9-2.62-1.73-3.1Zm2.27-.81c.17-.1.37-.71.8-.46 .31.18.46.23.46.23s-.22.06-.32.22 -.22.29-.57.23c-.37-.06-.44 0-.62.03 0 0 .06-.19.23-.29Zm-.673.49c.26.05.516.16.76.32 .27.17.57.5.98.47 .13-.01.36-.14.46-.2 .12-.08.4-.27.32-.55 -.04-.13-.19-.15-.28-.25 -.13-.15-.12-.29-.22-.45 .21.04.34.17.57.2v0c-.39-.35-.83-.62-1.31-.8 .04-.03.06-.12.19-.15 .11-.04.484.02.24-.03 -.24-.07-.39 0-.55.1 -.37.22-.66.74-1.04.97 -.17.09-.33.07-.47.25 .08.17.18.07.3.09Zm2.83-.33c-.09.05.05.1.08.125 .1.1.33.29.4.44 .15.32.1.81-.17.99 -.18.12-1.06.44-1.45.44 -1.09-.01-1.2-1.2-1.86-1.6 .01.11.09.35.19.476 .37.48.72 1.48 1.77 1.32 .37-.06 1.061-.32 1.33-.49 .3-.19.52-.91.21-1.31 -.14-.18-.47-.41-.55-.43Z"/></svg>