<svg viewBox="0 0 24 24" xmlns="http://www.w3.org/2000/svg"><path d="M0 0v24h24V0Zm.2.2h23.58v23.58H.19ZM11.98.825C5.81.825.82 5.825.82 11.985c0 6.16 5 11.16 11.168 11.16 6.167 0 11.167-5 11.16-11.166C23.139 5.8 18.149.8 11.97.8Zm0 .7c5.77 0 10.46 4.68 10.46 10.45v0c-.01 5.77-4.686 10.45-10.46 10.45 -5.777 0-10.46-4.68-10.46-10.457C1.52 6.18 6.21 1.5 11.98 1.5Zm-2.78 6.3c-.65 0-1.17.52-1.17 1.16v0c0 1.04 1.26 1.56 1.99.82 .73-.74.21-2-.83-2Zm-6.5 2.2v.71h.55V13.2H2.7v.71h4.64v-.65l.53-.54 1.48 1.49 -.55.54 .35.36 2.97-2.98v-.72l-.83.83 -1.85-1.85 -2.13 2.13v-.58L5.415 13v-2.3h.54v-.72Zm8.9 0v.71h.54V13.2h-.56v.71h3.12c2.32 0 2.35-3.888 0-3.888Zm4.96 0v.71h.55V13.2h-.55v.71h4.648v-1.95l-1.91 1.06v-2.3h.55V10Zm-2.43 1.21h.13c.68 0 .68 1.46.02 1.46h-.16v-1.46Z"/></svg>