<svg viewBox="0 0 24 24" xmlns="http://www.w3.org/2000/svg"><path d="M21.64 12.05h-.001c-.69-.01-1.35.28-1.81.79l-.14-.06v0c-.93-.37-1.89-.66-2.87-.86v0c0-2.66-2.16-4.81-4.81-4.81 -2.66 0-4.81 2.15-4.81 4.8h-.14 -.001c-.95.2-1.87.48-2.77.83l-.14.05h0c-.9-.99-2.42-1.07-3.4-.18 -.99.89-1.07 2.41-.18 3.39 .89.98 2.41 1.06 3.39.17 .64-.59.92-1.48.72-2.33l-.001 0c.83-.33 1.69-.59 2.57-.78l-.001-.001c.61 2.58 3.2 4.18 5.78 3.57 1.77-.42 3.15-1.81 3.57-3.58v0c.87.18 1.74.44 2.57.76v0c-.32 1.29.48 2.58 1.77 2.9 1.29.31 2.58-.49 2.9-1.78 .31-1.3-.49-2.59-1.78-2.91 -.17-.05-.35-.07-.52-.07ZM2.4 15.65h0c-.67-.001-1.21-.54-1.21-1.21 0-.67.53-1.21 1.2-1.21 .66 0 1.2.53 1.2 1.2 0 0-.001 0-.001 0v0c-.01.66-.54 1.2-1.21 1.2Zm9.61 0v0c-2 0-3.61-1.62-3.61-3.61 -.01-2 1.61-3.61 3.6-3.61 1.99-.01 3.6 1.61 3.6 3.6 0 0 0 0 0 0v0c-.01 1.99-1.62 3.6-3.61 3.6Zm9.61 0v0c-.67-.001-1.21-.54-1.21-1.21 0-.67.53-1.21 1.2-1.21 .66 0 1.2.53 1.2 1.2 0 0-.001 0-.001 0v0c-.01.66-.54 1.2-1.21 1.2Zm-7.82-3.61v-.001c-.01.99-.81 1.8-1.81 1.8 -1-.01-1.81-.81-1.81-1.81s.8-1.81 1.8-1.81v0c.99-.001 1.8.8 1.8 1.8 0 0-.001 0-.001 0Z"/></svg>