<svg viewBox="0 0 24 24" xmlns="http://www.w3.org/2000/svg"><path d="M19.365 9.86c.34 0 .63.28.63.63 0 .34-.29.63-.63.63H17.6v1.125h1.75c.34 0 .63.28.63.63 0 .34-.29.62-.63.62h-2.39c-.35 0-.63-.29-.63-.63v-4.78c0-.35.28-.63.63-.63h2.38c.34 0 .62.28.62.63 0 .34-.29.63-.63.63h-1.76V9.84h1.75Zm-3.86 3.01c0 .27-.18.51-.44.59 -.07.02-.14.03-.2.03 -.22 0-.391-.09-.51-.25L11.9 9.92v2.94c0 .34-.28.62-.64.62 -.35 0-.63-.29-.63-.63V8.07c0-.27.17-.51.43-.6 .06-.03.13-.04.19-.04 .19 0 .375.1.49.25l2.46 3.33V8.05c0-.35.28-.63.63-.63 .34 0 .63.28.63.63v4.77Zm-5.741 0c0 .34-.29.62-.64.62 -.35 0-.63-.29-.63-.63V8.08c0-.35.28-.63.63-.63 .34 0 .62.28.62.63v4.77Zm-2.47.62H4.9c-.35 0-.63-.29-.63-.63V8.08c0-.35.28-.63.63-.63 .34 0 .63.28.63.63v4.141h1.75c.34 0 .62.28.62.63 0 .34-.29.62-.63.62m16.697-3.2c0-5.371-5.39-9.742-12-9.742 -6.62 0-12 4.371-12 9.742 0 4.811 4.27 8.84 10.035 9.6 .391.08.923.25 1.05.59 .12.3.07.76.03 1.08l-.17 1.02c-.05.3-.24 1.186 1.04.64 1.29-.54 6.91-4.08 9.43-6.98 1.72-1.89 2.54-3.83 2.54-5.97"/></svg>