<svg viewBox="0 0 24 24" xmlns="http://www.w3.org/2000/svg"><path d="M20.447 20.45h-3.56v-5.57c0-1.33-.03-3.04-1.86-3.04 -1.86 0-2.14 1.44-2.14 2.939v5.66h-3.56V8.979h3.41v1.561h.04c.47-.9 1.63-1.85 3.37-1.85 3.6 0 4.26 2.37 4.26 5.455v6.28ZM5.337 7.43c-1.15 0-2.063-.93-2.063-2.07 0-1.138.92-2.063 2.063-2.063 1.14 0 2.064.92 2.064 2.063 0 1.13-.93 2.06-2.064 2.06Zm1.782 13.01H3.55V8.98h3.564v11.45ZM22.219-.02H1.75C.77-.02-.03.76-.03 1.7v20.54c0 .95.79 1.72 1.771 1.72h20.451c.97 0 1.77-.78 1.77-1.73V1.69c0-.96-.8-1.73-1.78-1.73h0Z"/></svg>