<svg viewBox="0 0 24 24" xmlns="http://www.w3.org/2000/svg"><path d="M10.08 1.99v-.001C4.53 1.959.02 6.439 0 11.989c-.01 0-.01 0-.01 0v0c.02 5.54 4.53 10.02 10.08 10v0c2.66 0 5.23-1.05 7.12-2.933 2.88-2.8 4.509-8.07 5.77-12.861l.03-.16 .09-.35v0c.01-.07 0-.15-.04-.2v-.001c-.05-.06-.12-.1-.19-.09h-1.72v0c-.1 0-.18-.06-.22-.14v0c-.04-.09-.02-.19.05-.25l2.92-2.646v-.02 0c.06-.07.08-.17.05-.25v0c-.04-.09-.13-.15-.22-.15Zm.38 4.645h3.84v0c.92 0 1.68.75 1.68 1.686v3.84 0c0 .92-.76 1.68-1.69 1.686h-3.85v0c-.94-.01-1.69-.76-1.69-1.686v-.73h1.44v.72 0c0 .13.1.23.24.24h3.84v0c.13 0 .24-.11.24-.25v-3.85 0c0-.14-.11-.25-.25-.25h-3.85v0c-.14 0-.25.1-.25.24V9H8.71V8.28v0c-.01-.94.75-1.69 1.68-1.69ZM7.57 9.515h3.84v0c.93 0 1.68.75 1.68 1.686v.718h-1.44v-.718 0c0-.14-.11-.25-.24-.25H7.56v0c-.14 0-.242.1-.242.24v3.84 0c0 .13.1.24.242.24h3.84 0c.13-.01.24-.11.24-.25v-.718h1.44v.718 0c-.01.92-.76 1.68-1.686 1.68H7.55 7.55c-.94 0-1.69-.76-1.69-1.69 -.01-.01-.01-.01-.01-.01v-3.85 0c-.01-.94.75-1.69 1.68-1.69 0-.01 0 0 0 0Z"/></svg>