<svg viewBox="0 0 24 24" xmlns="http://www.w3.org/2000/svg"><path d="M12.504-.001c-.16 0-.32.008-.48.021 -4.23.33-3.11 4.8-3.17 6.298 -.08 1.09-.3 1.95-1.05 3.02 -.89 1.05-2.13 2.75-2.72 4.52 -.28.83-.41 1.68-.29 2.48v0c-.05.03-.09.08-.11.13 -.26.26-.45.6-.67.83 -.2.19-.49.26-.8.4 -.32.13-.66.26-.87.68 -.09.18-.14.39-.14.6 0 .19.02.4.05.53 .05.39.11.72.04.97 -.25.68-.28 1.14-.11 1.48 .17.33.53.47.94.6 .81.2 1.91.13 2.77.6 .92.46 1.86.67 2.61.47 .52-.12.97-.47 1.2-.95 .58-.01 1.23-.27 2.26-.34 .69-.06 1.57.26 2.577.2 .02.13.06.19.11.33l0 0c.391.77 1.11 1.13 1.88 1.07 .77-.06 1.59-.54 2.25-1.31 .63-.77 1.68-1.09 2.378-1.51 .34-.2.62-.47.64-.86 .02-.4-.2-.82-.72-1.38v-.1l-.01-.01c-.17-.2-.25-.54-.34-.93 -.09-.41-.19-.79-.5-1.05h-.01c-.06-.06-.13-.07-.19-.14v-.001c-.06-.04-.13-.07-.19-.07 .43-1.28.26-2.55-.18-3.7 -.54-1.41-1.47-2.64-2.18-3.49 -.8-1.01-1.58-1.96-1.56-3.37 .02-2.16.23-6.133-3.55-6.139Zm.52 3.405h.01c.21 0 .39.06.58.19 .19.13.33.33.43.53 .1.25.15.45.16.72 0-.02 0-.04 0-.06v.1h-.001c-.01-.01-.01-.02-.01-.03l-.01-.03v0c-.01.24-.06.48-.15.7l0 0c-.05.12-.12.23-.22.33v0c-.03-.02-.06-.04-.09-.05 -.11-.05-.2-.07-.29-.133v0c-.08-.03-.15-.06-.22-.07 .05-.06.14-.133.18-.2 .05-.13.08-.27.08-.41v-.02 0c0-.14-.02-.28-.07-.4 -.05-.14-.11-.2-.19-.34 -.09-.07-.17-.14-.27-.14h-.02c-.1 0-.18.03-.27.13V4.22c-.1.09-.17.2-.21.33v0c-.06.12-.09.26-.09.4v.01c0 .08 0 .17.02.26 -.2-.07-.44-.14-.61-.21h-.001c-.02-.07-.02-.14-.02-.2v-.02 0c-.01-.27.04-.53.15-.77 .08-.22.23-.41.43-.54v0c.17-.13.37-.2.59-.2Zm-2.97.05h.03c.14 0 .27.04.39.13 .14.129.26.28.34.46 .09.19.14.4.15.66v0c0 .13 0 .2-.01.266v.08c-.03 0-.06.01-.09.02 -.16.05-.28.13-.4.2 .01-.09.01-.18 0-.27v-.02c-.02-.133-.04-.2-.09-.34v0c-.04-.11-.09-.2-.17-.27V4.36c-.05-.05-.12-.07-.19-.07h-.03c-.08 0-.13.04-.19.13v0c-.07.07-.11.17-.12.27v0c-.03.1-.04.21-.03.33v.01c.01.13.03.2.08.33 .04.13.09.2.16.26 .01 0 .02.01.03.02 -.07.05-.12.07-.18.13v0c-.04.03-.09.05-.14.06v0c-.11-.13-.2-.26-.28-.41v0c-.1-.22-.15-.44-.16-.67H9.15c-.02-.23.01-.46.08-.67v0c.05-.2.15-.38.28-.54 .12-.133.26-.2.41-.2Zm1.37 1.706c.33 0 .73.06 1.21.399 .29.2.52.26 1.05.46h0c.25.13.4.266.47.399v-.14 0c.07.14.07.31.01.47 -.13.31-.516.64-1.07.84v0c-.27.13-.51.33-.78.46 -.28.13-.59.29-1.02.26v0c-.16 0-.31-.02-.45-.07v0c-.12-.07-.22-.13-.33-.2 -.2-.14-.37-.34-.62-.47v-.01h-.01c-.4-.25-.62-.52-.69-.71 -.07-.27-.01-.47.19-.6 .22-.14.38-.28.48-.34 .1-.08.14-.11.17-.14h0v-.01c.16-.21.43-.47.83-.601 .13-.04.29-.07.46-.07Zm2.8 2.14c.35 1.41 1.19 3.47 1.73 4.47 .28.53.85 1.65 1.1 3.02 .15-.01.33.01.51.06 .64-1.68-.55-3.47-1.09-3.97 -.22-.2-.24-.34-.13-.34 .59.53 1.36 1.57 1.64 2.75 .13.53.16 1.1.02 1.67 .06.02.13.06.2.06 1.03.53 1.41.93 1.23 1.53v-.05c-.06-.01-.12 0-.18 0h-.02c.15-.47-.19-.83-1.07-1.23 -.92-.4-1.65-.34-1.77.46 -.01.04-.02.06-.02.13 -.07.02-.14.05-.21.06 -.43.26-.67.66-.8 1.18 -.13.53-.17 1.15-.21 1.86v0c-.02.33-.17.83-.32 1.35 -1.5 1.07-3.58 1.53-5.35.33H9.48c-.12-.2-.25-.38-.41-.54h0c-.08-.13-.17-.24-.28-.34 .18 0 .33-.03.46-.07v-.001c.14-.07.25-.19.31-.34 .1-.27 0-.7-.35-1.17s-.94-1-1.79-1.53c-.63-.4-.99-.87-1.15-1.4 -.17-.54-.15-1.09-.02-1.65 .24-1.07.87-2.11 1.27-2.77 .1-.07.03.13-.41.97 -.4.75-1.14 2.497-.13 3.85h0c.03-1 .25-1.97.64-2.88 .56-1.28 1.74-3.51 1.83-5.27 .04.03.21.13.28.2 .21.13.38.33.59.46 .21.2.47.33.87.33 .03 0 .07 0 .11 0 .41 0 .73-.14.99-.27 .29-.14.52-.34.74-.4h0c.46-.14.83-.41 1.04-.7Zm2.18 8.95c.03.6.34 1.24.88 1.37 .58.13 1.43-.34 1.79-.77l.21-.01c.31-.01.57.01.84.26l0 0c.2.19.3.53.39.87 .08.4.15.78.4 1.06 .48.52.64.9.63 1.14l0-.01v.01l-.01-.02c-.02.26-.19.39-.5.59 -.63.4-1.75.71-2.46 1.57 -.62.73-1.37 1.14-2.04 1.19 -.67.05-1.237-.2-1.58-.9l-.01-.01c-.21-.4-.12-1.03.05-1.69 .17-.67.42-1.35.46-1.9 .03-.72.07-1.34.19-1.814 .12-.47.3-.8.64-.99l.04-.03Zm-10.814.04h.01c.05 0 .1 0 .15.01 .37.05.7.33 1.02.75l.91 1.66 0 0c.24.53.75 1.064 1.189 1.63 .43.59.77 1.13.72 1.57v0c-.06.74-.48 1.14-1.125 1.29 -.65.13-1.52 0-2.4-.47 -.968-.54-2.12-.47-2.857-.61 -.37-.07-.61-.2-.73-.4 -.11-.2-.12-.61.12-1.23v-.01l0-.01c.11-.34.03-.76-.03-1.12 -.06-.41-.09-.71.04-.94 .16-.34.39-.4.69-.54 .29-.14.64-.21.91-.47h0v-.01c.25-.27.44-.61.66-.84 .19-.21.38-.34.66-.34Zm7.15-9.08c-.44.2-.95.53-1.49.53 -.55 0-.97-.27-1.28-.47 -.16-.14-.28-.27-.38-.34 -.17-.14-.15-.34-.08-.34 .1.01.12.13.19.2 .09.06.21.2.36.33 .29.2.68.46 1.16.46 .48 0 1.05-.27 1.39-.47 .19-.14.44-.34.64-.47 .15-.14.14-.27.27-.27 .12.01.03.13-.15.33v0c-.23.16-.46.32-.69.46Zm-1.09-1.59v-.03c-.01-.02.01-.05.02-.05 .07-.05.18-.03.26 0 .06 0 .16.06.15.13 -.01.04-.09.06-.14.06 -.06 0-.1-.05-.15-.07 -.06-.02-.15-.01-.17-.07Zm-.56 0c-.02.05-.12.04-.17.06 -.05.02-.09.06-.14.06 -.05 0-.13-.02-.14-.07 -.01-.07.08-.133.15-.133 .08-.04.18-.05.25-.01 .01 0 .03.03.03.05v.02h0Z"/></svg>