<svg viewBox="0 0 24 24" xmlns="http://www.w3.org/2000/svg"><path d="M22.47 7.08h-.1v.19l.09.09c.07.97-.87 1.53-.87 1.53 -.02-.61-.49-.68-.49-.68 -1.14-.3-1.45 1.05-1.45 1.05 -.13 1.13.67 1.15.67 1.15 .44.125.86-.39.86-.39v.19l-.1.86c-.23.76-1.25.48-1.25.48 -.45-.19-.49.09-.49.09 .04 1.33.67 1.82.67 1.82 .73.35.67.48.67.48 .15.3-.2.48-.2.48 -.33.16-.39.38-.39.38 -.13.28.38.86.38.86 .19.01.28.38.28.38 -.05.46-.49.48-.49.48 -.14.08-.39.86-.39.86 -1 3.21-4.37 3.67-5.07 3.73 .07.77.07 1.78-.33 2.12 0 0-.43.53-1.45.19 0 0 1.05-.88.86-3.27 0 0-.31-.05-.49-.1 0 0-.24 3.74-2.22 3.84 0 0-.89.03-1.16-.49 0 0 2.13-.69 2.78-3.56l-.39-.2s-1.39 3.68-3.75 3.74c0 0-.89.12-1.45-.97 0 0 2.76-.21 4.71-3.18l-.39-.29s-2.87 3.31-5.287 2.78c0 0-1.68-.37-1.64-1.83 0 0 3.29 1.09 6.53-1.54l-.29-.49s-3.51 1.79-6.16 1.34c0 0-3.49-.67-2.41-3.18 0 0 3.57 2.36 8.171 1.15v-.58s-8.88.75-9.14-4.04c0 0 .11-1.28.67-1.35 0 0 2.346 3.59 8.45 4.7v-.49s-8.62-2.96-8.66-8.264c0 0 .07-2.21 1.82-1.93 0 0 .16 5.08 7.01 9.51l.19-.39s-6.46-4.07-6.35-11.73c0 0 .37-3.9 3.26-2.6 0 0-1.9 8.1 3.55 13.549 0 0 .79-1.5 3.07-1.45 0 0 3.54-.15 3.94 3.74 0 0 .3 3.75-3.75 4.13 0 0 .03.18.07.47 3.46-.25 4.05-3.65 4.05-3.65 .51-3.73-2.89-4.91-2.89-4.91 -2.68-1.02-4.62.96-4.62.96 -2.61-2.12-2.89-6.35-2.89-6.35l.673-.29c-.85-.56-.49-1.73-.49-1.73 .44.36 2.01-.29 2.01-.29 -.23-.9.28-1.06.28-1.06 .46-.07 2.69 0 2.69 0 0-.93.673-.87.673-.87 .22.24 1.05.38 1.05.38 1.36.58 1.25.67 1.25.67 .06.16.19.09.19.09 -.02-.82.86-.49.86-.49 .08.86 2.49 2.01 2.49 2.01 .35.23 0 .67 0 .67l.38.28h.38l.19.09 .96.09c.38.09.28.673.28.673Zm-7.12-2.12s-.54.25-.2.86c0 0 .14.21.48.38 0 0-.69-1.2.86-.87 0 0-.35-.67-1.16-.39Zm4.51 1.34h-.68v.19l.48.48 .38-.77Z"/></svg>