<svg viewBox="0 0 24 24" xmlns="http://www.w3.org/2000/svg"><path d="M23.84 14.91c-.24 2.94-2.73 5.22-5.7 5.19h-3.15l-6 3.9v-3.9l6-3.9h3.15c.93.03 1.71-.66 1.83-1.59 .18-3 .18-6-.06-9 -.06-.84-.75-1.47-1.56-1.53 -2.04-.09-4.2-.18-6.36-.18s-4.32.06-6.36.21c-.84.06-1.5.69-1.56 1.53 -.21 3-.24 6-.06 9 .09.93.9 1.59 1.83 1.56h3.15v3.9H5.84v0c-2.97.03-5.47-2.23-5.7-5.19 -.21-3.21-.18-6.39.06-9.6l-.001 0C.41 2.55 2.62.38 5.38.21c2.1-.15 4.35-.21 6.6-.21s4.5.06 6.63.24v0c2.75.17 4.96 2.34 5.19 5.1 .21 3.18.24 6.39.03 9.57Z"/></svg>