<svg viewBox="0 0 24 24" xmlns="http://www.w3.org/2000/svg"><path d="M20.83 2.97l-.09.09 -.001 0c-.43.47-.83.96-1.19 1.48v0c-.17.22-.32.46-.45.71v0c-.11.18-.19.38-.25.59v0c-.03.05-.04.11-.04.17v0 0c-.13.03-.22.15-.21.29h-.001c-.01.12.07.23.18.28 .03.37.08 1.14.07 2.2l-.01.14h0c-.03.79-.18 1.57-.44 2.32 -.02-.01-.03-.02-.04-.02 -.03 0-.11.12-.19.25 -.06.09-.12.19-.16.29v0c-.02.04-.03.09-.03.14h0c-.01.02 0 .05.01.08s.02.05.02.05v0c-.01 0-.01 0-.01 0v0c-.02.01-.03.04-.03.06l-.02.02v0c-.08.17-.17.35-.26.52l-.08.14v0c-.03.03-.05.07-.07.11v0c-.01-.01-.02-.01-.03-.02v0c-.04-.01-.08 0-.12.02 -.05.03-.16.19-.5.36v0c-.11.05-.21.08-.32.11v0c.13-.69.21-1.38.24-2.07v0c.01-.36-.01-.71-.07-1.06 0-.01 0-.02 0-.02l-.01.01v0c-.03-.16-.07-.31-.11-.46v0c-.14-.51-.39-.99-.73-1.39 -.64-.76-1.5-1.14-2.26-1.17l-.125-.01c0-.01 0-.02 0-.03 .02-.1.02-.13-.09-.04h0c-.02.01-.04.03-.06.05l-.001-.001c-.05 0-.1 0-.15 0V7.15c-.01-.04-.01-.08-.01-.11 0-.08.02-.13-.09-.04V7c-.06.04-.11.1-.15.16 -.05 0-.08.01-.08.01l.04-.01 -.05 0c-.02-.05-.06-.11-.05-.16 .01-.12.04-.14-.04-.07 -.1.09-.21.22-.22.3l-.1.03c-.02-.02-.08-.07-.09-.18 -.02-.11-.02-.17-.08-.05h0c-.07.1-.11.22-.13.34 -.04.01-.07.03-.1.04l-.001-.001c-.04-.05-.06-.12-.06-.18 -.01-.15.04-.26-.07-.07v0c-.07.12-.12.26-.15.4l0-.001c-.04.02-.08.05-.11.08v0c-.01-.06-.01-.12-.01-.17 -.01-.15.02-.3-.07-.03V7.44c-.04.1-.06.21-.07.32 -.41.38-.65.91-.65 1.57v0h0c-.01.11 0 .22.01.33 .02.23.05.43.1.6 -.1.13-.11.68-.01.81 .07.1.49.35.58.39v0c.03.02.06.05.09.09 .11.18.11.56.02.76 -.11.23.1.28.28.32 .17.03.41-.03.46-.12 .04-.1-.16-.31-.24-.75 -.09-.44.13-.48.13-.48s.09.02.23.24c.11.17.22.31.33.41v0c-.06.06-.13.12-.21.17 .12 0 .24-.06.3-.09v0c.02.01.04.03.07.04H13c-.02.01-.04.03-.05.05v0c.03-.01.07-.02.1-.03v0c.02.01.05.01.08.02 .15.01.57-.37.57-.44 0-.02-.02-.04-.04-.07 -.05-.05-.12-.1-.21-.18v0c-.04-.04-.08-.08-.11-.12v0c-.09-.11-.14-.24-.15-.38v-.01l-.01-.04s0-.01.01-.02v0l0-.01c.05-.08.15-.38-.47-1.08v0c-.26-.3-.58-.54-.93-.71 -.05-.48.15-.92.62-1.13l-.01 0 0-.01c.22-.11.51-.16.87-.14 .69.03 1.22.36 1.59.84 .51.71.73 1.78.57 2.85 -.07.06-.06.07-.02.07v0c-.02.09-.04.18-.06.27l-.03.01c-.13.07-.08.07 0 .09l-.01.02h0c-.03.06-.05.12-.07.19v0c-.03 0-.06.01-.09.03 -.14.05-.08.06-.02.09l.04.02v0c-.04.07-.07.15-.11.23l-.001 0c-.03 0-.06 0-.08.01 -.15.03-.09.05-.03.09v0c.01 0 .02.01.04.02v0c-.04.07-.08.14-.11.21l0-.001c-.06 0-.11.01-.16.02 -.14.03-.09.05-.03.09 .03.02.06.04.08.05l0 0c-.04.05-.07.11-.1.16l-.03.03v0c-.07-.01-.14 0-.21.02 -.15.03-.09.05-.03.09v-.001c.03.02.07.04.1.07h-.001c-.05.06-.09.12-.13.18h-.001c-.08-.02-.16-.03-.23-.01 -.15.02-.1.04-.04.08 .06.05.1.09.11.11l-.07.08c-.05-.06-.15-.13-.25-.2h0c-.09-.07-.19-.11-.29-.13 -.05 0-.2.26-1.02.19 -.82-.08-.87-.15-.95-.15v-.001c-.08.01-.16.03-.23.05l-.04-.02v0c-.34-.21-.67-.44-.98-.68 -.47-.37-.72-.65-.72-.65s.13-.125-.05-.29h0c-.11-.1-.22-.2-.34-.28v0c-.08-.07-.16-.12-.25-.17H9.01c-.04-.05-.06-.09-.09-.13v0c-.13-.21-.25-.42-.37-.63H8.55c-.09-.18-.18-.35-.25-.53 -.16-.36-.27-.69-.35-.97v0c-.08-.31-.13-.62-.15-.93h0c-.01-.09-.01-.17 0-.25v0c.09-.08.15-.2.15-.33v0c-.01-.21-.16-.39-.36-.41 -.21-.43-.99-1.48-3.89-3.68l-.13-.1 0 0 -.04-.03c2.95 2.53 3.53 3.51 3.68 3.93l0-.001c-.01.01-.02.02-.03.03l-.001 0c-.01-.01-.02-.01-.02-.02 .01 0 .02-.01.02-.01s-.68-.55-1.787-1.23c-1.12-.69-1.75-.85-1.88-.88l-.03-.01s.2.19.17.28c-.01.03-.17.02-.43.02v0c-.25 0-.49.02-.73.07H2.49c-.57.09-1.1.31-1.57.63 -1.31.87-1.55 1.48-1.55 1.48s.55-.77 1.58-1.31c-.02.33-.05 1.97.44 4.12 .53 2.32 1.53 4.48 1.61 4.66 0 .17.01.27.01.27s.14-1.79.75-3.65c.17.28.758 1.11 2.075 2.096 1.62 1.21 2.37 1.53 2.4 1.54 0 .15 0 .24 0 .24s0-.1.01-.27v0c.16-.24.34-.47.55-.67v0c.16-.17.34-.31.54-.44 .03.11.06.2.09.27 -.02-.1-.04-.19-.06-.29 .1.01.53.06 1.2.39 .34.16.609.39.798.59v0c-.01 0-.01 0-.02 0 0 0 .12.11.26.4l0-.001c-.25-.01-.5.01-.73.08v0c-.04-.07-.07-.13-.1-.19l-.001-.001c-.01-.05-.02-.1-.04-.14 -.03-.07-.1-.1-.17-.14v0c-.04-.03-.07-.06-.11-.08v0c-.03-.03-.05-.05-.06-.08 -.09-.19-.798.01-.95.18 -.18.2-.21.46-.14.6 .02.04.07.08.13.11 0 .22.13.75.4 1.13v0c-.06-.22-.09-.45-.11-.67 -.01-.16 0-.28.01-.35 .04.32.17.68.577 1.12 -.25-.54-.22-.87-.2-1.15l.01-.05 0-.01c.03.26.14.53.48.96v0c-.01-.01-.01-.02-.02-.03l.01.02v0c-.17-.32-.23-.68-.17-1.03l0-.01c.04.03.09.07.13.12 .12.17.18.34.21.47v0c-.03.13-.01.26.06.38v0c-.24.17-.48.33-.72.5 -.23.15-.49.31-.76.47 -.14.08-.28.15-.42.23l-.14-.08h0l-.01-.01c-.97-.56-1.69-.94-2.518-1.09 -.93-.17-1.79.28-1.99 1.08h0c-.13.53.09 1.08.55 1.38l.01 0c.01.01.02.01.04.02l.06.03h0H4.92c.21.11.44.19.69.23l.02 0h0v0c.13.02.27.03.41.04 .97.04 2.15-.41 3.32-.99 .1.05.2.1.3.16 2.54 1.4 4.09 1.58 6.15.72 -.51.15-1.21.35-2.1.34h-.001c-.01-.01-.02-.01-.02-.01v0h-.001c-.22-.01-.44-.03-.65-.05l-.03-.01v-.01h0c-.01 0-.01 0-.01 0h0c-.54-.08-1.06-.23-1.56-.44h-.001c-.26-.11-.51-.23-.75-.37l-.001-.001c-.34-.19-.68-.38-1.01-.57 .34-.18.69-.37 1.02-.55 .35-.19.67-.37.91-.5l0-.01h0s.08-.02.16-.05c.17-.06.41-.15.69-.29 .02.11.09.21.19.25 .23.09.4.02.52-.11l.01-.01 .04-.04c.05-.03.1-.07.15-.09h0c.01-.01.03-.02.05-.03 .04-.01.07-.03.11-.04l.03-.01c-.15.29-.1.58-.1.58 .04-.37.22-.61.39-.72 .06-.03.13-.05.2-.07 .06 0 .11.02.14.07 .07.12.21.19.36.22 .02.15-.05.4-.4.86l.09-.07 0-.01 .07-.06c.14-.11.25-.21.33-.31h0c.08-.09.14-.2.19-.31 .01.2-.05.5-.31 1.03 0 0 .31-.28.51-.63 0 .19-.01.44-.07.78 .34-.68.32-1.09.23-1.33l-.01-.04 -.001-.001c-.01-.03-.01-.05-.01-.07l.04-.06c.11-.17-.05-.35-.16-.42 -.06-.04-.2-.16-.46-.16 -.23-.27-.51-.15-.96.14v0c-.06.03-.11.06-.17.09v0c-.02-.05-.04-.08-.06-.12 .16-.1.32-.2.49-.31 .31-.21.55-.42.72-.62 .51-.52.69-1.02 1.21-1.45h-.02l.06-.04c.85-.46 1.3-.55 1.33-.56l-.01.12 .01-.125v0c.17.08.34.2.48.34v0c.14.14.26.3.36.48l.04.3s0-.12-.01-.33c.15-.16 1.02-1.05 1.72-2.47 .69-1.404.94-2.53 1.01-2.93l-.001 0c.27.8.5 1.62.66 2.46 0 0-.01-.14-.03-.38 .09-.34.51-1.88.62-3.76 .1-1.68-.07-2.78-.14-3.18 .64.53.99 1.306.99 1.306s-.04-.17-.19-.44l.02.02s-.24-.46-.65-.91v0c-.06-.06-.11-.12-.16-.18 -.44-.46-.86-.617-1.17-.68l0 0c-.11-.03-.21-.04-.31-.03h-.02c-.125-.01-.2 0-.21-.03 -.02-.1.11-.29.11-.29s-.18.04-.56.33c-.23.16-.52.41-.86.76l0-.001c-.32.31-.61.64-.89.99l-.08.09v0c-.01-.01-.02-.02-.03-.02 .07-.33.36-1.117 1.78-3.12Zm-8.91 11.11v0s0 0 .01 0Zm-.27 2.6c.08.04.19.1.3.19h-.01 0c-.06.01-.11.03-.16.07v0c-.06-.07-.1-.15-.13-.23Zm-4.86 1.57c.13 0 .27.01.43.04l.02 0 .01 0c.11.02.22.06.33.1l.05.02c.19.07.39.15.61.24 .32.14.62.27.83.375l.18.08c-.22.1-.43.19-.577.26 -1.02.41-1.83.53-2.34.39 -.944-.27-.76-1.54.42-1.55Z"/></svg>