<svg viewBox="0 0 24 24" xmlns="http://www.w3.org/2000/svg"><path d="M12 0C5.372 0 0 5.373 0 12c0 6.62 5.372 12 12 12s12-5.38 12-12c0-6.63-5.372-12-12-12ZM5.37 4.768h1.74c.14 0 .28 0 .42.01v0c.11-.01.23.05.3.15h0c.07.1.1.23.11.36 0 .14.01.31.01.484V17.86c0 .17 0 .37.01.58 0 .21-.03.37-.1.48 -.06.09-.18.17-.37.22v0c-.1.02-.21.03-.31.02v0c-.11-.02-.22-.03-.33-.02h-1.2c-.15 0-.29-.01-.42-.02h-.001c-.12-.01-.23-.05-.32-.12h0c-.08-.09-.12-.2-.12-.31v0c-.02-.15-.03-.29-.02-.43V6.16c0-.19-.01-.41-.01-.67 -.01-.26.02-.44.09-.55V4.94c.06-.1.15-.17.26-.21 .04 0 .07-.01.11-.01V4.72c.03-.01.06-.01.09-.02Zm10.52 3.68c.2-.01.38-.01.54.01 .56.03 1.05.14 1.46.33 .53.25.96.63 1.27 1.13 .09.14.16.3.22.47 .05.16.11.34.16.51 .02.1.04.21.05.3 0 .09.02.19.05.28 0 .08 0 .13.02.16 .02.19.04.38.04.58v5.661c0 .25-.01.5-.01.73 -.01.23-.11.39-.3.45v0c-.1.02-.19.04-.29.04h-1.42c-.17 0-.31-.01-.44-.03v-.001c-.12-.02-.23-.08-.3-.18h0c-.06-.1-.09-.21-.09-.32v0c-.01-.14-.01-.28-.01-.42V13.72c0-.5-.02-.97-.06-1.39 -.05-.43-.17-.79-.37-1.09v0c-.17-.24-.4-.42-.67-.51 -.19-.1-.49-.16-.827-.16 -.4 0-.74.08-.92.2 -.14.05-.26.12-.37.19 -.44.31-.69.76-.77 1.35 -.08.59-.13 1.26-.13 2v4.125c0 .12-.02.22-.06.3h-.001c-.06.13-.18.23-.33.26 -.15.02-.33.04-.55.04h-1.02c-.15 0-.3-.01-.45-.02 -.15-.02-.26-.06-.33-.15 -.1-.12-.14-.3-.14-.53 0-.23 0-.45 0-.65V9.45c0-.15 0-.29.01-.41H9.85c0-.12.04-.22.11-.31v0c.03-.05.07-.08.13-.09 .06-.02.12-.04.19-.05h.1c.06-.02.13-.03.21-.03h1.06c.1 0 .21 0 .31.01 .1 0 .19.02.27.05 .09.04.16.1.19.18 .03.07.03.14.05.24 .05.23.11.48.29.5 .08.01.15-.03.22-.09 .03-.03.11-.11.14-.15 .09-.12.28-.28.38-.35 .07-.06.14-.1.2-.14 .19-.14.48-.27.83-.36 .01-.01.02-.02.04-.02 .11-.04.22-.07.34-.08l.15-.03c.22-.04.44-.06.64-.07Z"/></svg>