<svg viewBox="0 0 24 24" xmlns="http://www.w3.org/2000/svg"><path d="M24 10.66h-7.02l6.07-3.51 -1.34-2.32 -6.08 3.5 3.5-6.077 -2.32-1.34L13.3 6.99V-.03h-2.67v7.018L7.12.9 4.8 2.23 8.3 8.31 2.22 4.8 .88 7.11l6.07 3.5H-.07v2.67h7.01l-6.08 3.5 1.33 2.31 6.077-3.51 -3.51 6.07 2.31 1.33 3.5-6.08v7.01h2.67v-7.02l3.5 6.07 2.31-1.34 -3.51-6.08 6.07 3.5 1.33-2.32 -6.08-3.51h7.01v-2.67h0Zm-12 4.96h0c-2.02 0-3.65-1.64-3.65-3.65 -.01-2.02 1.63-3.65 3.64-3.65 0 0 0 0 0 0h0c2.01 0 3.64 1.63 3.64 3.64 -.01 2.01-1.64 3.64-3.65 3.64Z"/></svg>