<svg viewBox="0 0 24 24" xmlns="http://www.w3.org/2000/svg"><path d="M6.333 18.413l2.51-1.62 3.17 1.814 3.2-1.88 2.65 1.51 -5.849 3.41 -5.707-3.26ZM5.273 6.23L11.96 2.33l6.73 3.83 .02 6.755 -2.654-1.513 -.02-3.71 -4.08-2.33L7.9 7.73l.01 3.69 -.91.52 -1.74 1.11 -.03-6.86Zm3.6 2.46l1.91 1.08 -1.91 1.11 -.01-2.199Zm4.337 5.51l2.63-1.55 3.27 1.862 2.221-1.3 -.02-2.58 -1.68-.96 -.01-3.06 4.355 2.48 0 5.61 -4.86 2.84 -5.923-3.38ZM.02 14.86l-.03-5.63L4.31 6.7l0 3.061 -1.68.97 .01 2.57 2.234 1.27L15.07 8.63l0 3.06 -10.189 5.94 -4.889-2.79Z"/></svg>