<svg viewBox="0 0 24 24" xmlns="http://www.w3.org/2000/svg"><path d="M.38 10.377L.1 10.33c-.048.34-.082.69-.101 1.04l.275.01c.01-.34.05-.69.09-1.02Zm3.75-7.09l-.19-.21c-.258.23-.51.48-.746.734l.2.18c.23-.25.476-.49.72-.72Zm1.633-1.23l-.15-.24c-.3.18-.59.385-.87.59l.16.21c.27-.21.55-.399.843-.58Zm-3.95 16.31c.18.29.38.58.59.86l.22-.17c-.21-.28-.399-.56-.58-.85l-.24.14Zm-.7-1.97l-.26.1c.12.31.27.63.43.94l0 .01 .24-.125 -.01-.01c-.16-.31-.3-.62-.43-.93Zm-.83-7.1l.269.06c.07-.34.16-.67.272-.99L.56 8.27C.45 8.6.36 8.94.28 9.28ZM.25 12.4l-.275.01c.012.34.04.69.083 1.04l.273-.04c-.05-.34-.069-.68-.09-1.02Zm-.02 2.08c.07.34.16.68.264 1.01l.263-.08c-.1-.33-.19-.66-.258-.99l-.269.05ZM11.55.25l-.01-.28c-.35.012-.7.039-1.05.082l.03.273c.33-.05.68-.068 1.02-.08ZM23.19 8.54c.1.32.18.66.25.99l.27-.06c-.08-.34-.16-.69-.27-1.02l-.27.08Zm-5.6-7.18c-.31-.17-.63-.32-.95-.45l-.11.252c.31.133.625.28.92.43l.12-.242ZM15.66.54C15.32.43 14.99.34 14.65.27l-.07.268c.33.07.66.16.98.273l.08-.264Zm-9.02.97c.29-.15.6-.3.91-.42L7.44.83c-.32.12-.64.27-.94.42l-.02 0L6.6 1.5l.01-.01ZM23.69 11.56l.27-.01v0c-.02-.35-.04-.7-.09-1.045l-.28.03c.04.33.06.68.08 1.02ZM13.61.07c-.35-.05-.7-.08-1.05-.1l-.02.273c.33.01.68.05 1.01.09l.03-.273ZM9.5.49L9.44.22C9.1.29 8.75.38 8.42.48L8.5.74c.32-.1.65-.19.99-.256ZM1.87 5.43l.23.15c.18-.29.38-.57.59-.84l-.22-.17c-.22.27-.42.56-.61.85ZM.89 7.27l.253.1c.13-.32.28-.625.43-.93l-.25-.13c-.17.3-.32.625-.45.94Zm17.28 14.62l.14.23c.29-.19.58-.39.86-.6L19 21.3c-.28.2-.56.4-.85.57Zm3.02-2.73l.21.17c.21-.28.41-.57.6-.86l-.23-.15c-.19.28-.39.56-.6.83Zm-1.4 1.49l.18.2c.25-.23.51-.48.74-.74l-.21-.19c-.23.24-.48.48-.73.71Zm2.5-3.22l.24.12c.16-.31.31-.625.44-.95l-.26-.11v0c-.14.31-.28.62-.44.92Zm1.25-3.88l.27.03c.04-.35.08-.7.1-1.05l-.28-.02c-.02.33-.06.68-.1 1.01Zm-.47 1.99l.26.08c.1-.34.2-.67.27-1.01l-.27-.07c-.08.33-.17.66-.28.98Zm-.71-8.95c.15.3.29.61.42.93l.25-.11c-.14-.33-.28-.65-.44-.96l-.25.125ZM8.2 23.338c.33.1.67.2 1 .27l.06-.27c-.34-.08-.67-.17-.99-.28l-.09.26Zm2.03.47c.34.04.69.08 1.04.1l.01-.28c-.34-.02-.69-.06-1.02-.1l-.04.27Zm6.991-1.44c-.31.15-.62.29-.93.42l.1.25c.31-.14.63-.28.94-.44l0-.01 -.13-.25 -.01 0Zm-12.72-.99c.27.21.56.41.85.6l.14-.23c-.29-.19-.57-.39-.84-.6l-.17.21Zm7.804 2.25l0 .27c.34-.02.69-.05 1.045-.09l-.04-.28c-.34.04-.68.06-1.02.08Zm-6.05-1.13c.3.16.625.31.94.44l.1-.26c-.32-.14-.63-.28-.93-.44l-.13.24Zm-3.29-2.57c.23.25.48.51.734.74l.18-.21c-.25-.23-.49-.48-.72-.73l-.21.18Zm11.362 3.43l.05.27c.34-.08.68-.17 1.01-.27l-.09-.27c-.33.09-.66.18-1 .25ZM21.05 0V0c-1.49 0-2.689 1.2-2.689 2.68 0 1.48 1.2 2.68 2.689 2.68v0c1.48 0 2.689-1.21 2.689-2.689 0-1.49-1.21-2.689-2.689-2.689ZM15.2 15.318c0 .47.31.66.85.66 .67 0 1.29-.4 1.29-1.016v-.65c-.23.1-.38.14-1.11.24 -.74.1-1.05.3-1.05.76ZM11.87 2.689c-5.07 0-9.18 4.109-9.18 9.18 0 5.068 4.11 9.18 9.18 9.18 5.07 0 9.18-4.12 9.18-9.18 0-5.07-4.11-9.18-9.18-9.18ZM9.39 16.459H5.64v-6.023h.76v5.346h2.97v.67Zm4.13 0h-.62v-.67c-.41.57-.82.79-1.45.79 -.843 0-1.38-.47-1.38-1.19V12.1h.68v3c0 .52.34.85.89.85 .71 0 1.18-.58 1.18-1.47v-2.39h.68v4.33Zm-.53-8.393c0-1.484 1.205-2.689 2.689-2.689s2.68 1.205 2.68 2.689 -1.21 2.68-2.69 2.68c-1.49 0-2.689-1.21-2.689-2.69Zm5.56 7.85v.52c-.23.05-.33.07-.48.07 -.34 0-.64-.24-.72-.57 -.39.4-.92.63-1.48.63 -.88 0-1.43-.47-1.43-1.25 0-.53.25-.92.76-1.13 .266-.11.41-.15 1.38-.27 .54-.07.71-.2.71-.48v-.19c0-.42-.35-.65-.97-.65 -.65 0-.96.24-1.02.77h-.7c.04-1 .68-1.404 1.73-1.404 1.06 0 1.62.41 1.62 1.18v2.41c0 .21.13.33.37.33 .04-.01.07-.01.14-.02Z"/></svg>