<svg viewBox="0 0 24 24" xmlns="http://www.w3.org/2000/svg"><path d="M12.03 6h-6v12h11.99v-6l-5.996 5.99Zm6.56 2.3v0c-1.1-.41-1.97-1.28-2.38-2.375v0c-.41 1.09-1.28 1.96-2.375 2.375l0 0c1.09.4 1.96 1.27 2.37 2.375v0c.4-1.1 1.27-1.97 2.37-2.375ZM-.01 9.59c0-3.364 0-5.043.652-6.33l-.001 0C1.21 2.13 2.13 1.21 3.26.63c1.28-.66 2.96-.66 6.32-.66h4.79c3.36 0 5.04 0 6.32.652v0c1.12.57 2.04 1.49 2.625 2.62 .65 1.283.65 2.96.65 6.32v4.79c0 3.36 0 5.04-.66 6.32v0c-.58 1.12-1.5 2.04-2.625 2.625 -1.29.65-2.97.65-6.33.65h-4.8c-3.364 0-5.043 0-6.33-.66H3.22c-1.13-.58-2.05-1.5-2.63-2.625 -.66-1.29-.66-2.97-.66-6.33Z"/></svg>