<svg viewBox="0 0 24 24" xmlns="http://www.w3.org/2000/svg"><path d="M0 14.72h.94v-2.46c0-.484.31-.84.77-.84 .43 0 .71.27.71.72v2.56h.915v-2.48c0-.48.31-.82.76-.82 .46 0 .718.28.718.77v2.51h.94v-2.75c0-.81-.52-1.34-1.31-1.34 -.58 0-1.06.31-1.25.8h-.03c-.15-.52-.552-.81-1.12-.81 -.55 0-.968.3-1.15.77H.87v-.7H-.03v4.006Zm7.82-.65c-.41 0-.68-.21-.68-.54 0-.32.26-.53.71-.56l.92-.06v.3c0 .48-.43.83-.96.83Zm-.29.71c.51 0 1.01-.27 1.24-.71h.01v.63h.9v-2.76c0-.81-.65-1.33-1.64-1.33 -1.021 0-1.66.53-1.71 1.28h.87c.06-.34.34-.548.79-.548 .46 0 .74.24.74.66v.28l-1.06.06c-.976.06-1.524.48-1.524 1.19 0 .72.56 1.2 1.338 1.2Zm6.305-2.65c-.07-.843-.72-1.52-1.78-1.52 -1.17 0-1.92.8-1.92 2.08 0 1.3.75 2.08 1.92 2.08 1 0 1.69-.59 1.77-1.49h-.89c-.09.45-.4.72-.88.72 -.6 0-.99-.49-.99-1.33 0-.83.38-1.33.97-1.33 .5 0 .8.32.87.74h.88Zm2.9-2.97c-1.6 0-2.59 1.08-2.59 2.82 0 1.73.99 2.81 2.59 2.81 1.58 0 2.58-1.09 2.58-2.82 0-1.74-1-2.82-2.59-2.82Zm0 .83c.97 0 1.59.77 1.59 1.98s-.62 1.984-1.59 1.984c-.98 0-1.6-.77-1.6-1.984 0-1.22.61-1.99 1.59-1.99Zm2.98 3.17c.04 1 .86 1.62 2.12 1.62 1.32 0 2.151-.65 2.151-1.686 0-.82-.47-1.27-1.58-1.53l-.63-.15c-.67-.16-.95-.37-.95-.74 0-.46.41-.76 1.032-.76 .62 0 1.05.3 1.096.81h.93c-.03-.96-.82-1.61-2.02-1.61 -1.19 0-2.03.65-2.03 1.62 0 .78.47 1.263 1.48 1.49l.7.16c.68.16.96.39.96.782 0 .45-.46.77-1.12.77 -.67 0-1.17-.33-1.23-.84h-.95Z"/></svg>