<svg viewBox="0 0 24 24" xmlns="http://www.w3.org/2000/svg"><path d="M15.61 12c0 1.99-1.62 3.61-3.61 3.61 -1.99 0-3.61-1.62-3.61-3.61 0-1.99 1.62-3.61 3.61-3.61 1.99 0 3.61 1.62 3.61 3.61M12 0C5.383 0 0 5.383 0 12c0 6.61 5.383 12 12 12 2.42 0 4.76-.73 6.76-2.09l.03-.03L17.17 20l-.03.01v0c-1.54.98-3.33 1.51-5.15 1.51 -5.26 0-9.54-4.28-9.54-9.54 0-5.26 4.28-9.54 9.54-9.54 5.26 0 9.54 4.28 9.54 9.54v0c-.01.68-.08 1.37-.23 2.05 -.31 1.23-1.17 1.61-1.82 1.56 -.66-.06-1.42-.52-1.43-1.67v-1.96 0c-.01-3.36-2.72-6.07-6.07-6.07l0-.001c-3.36 0-6.07 2.71-6.07 6.07v0c0 3.35 2.71 6.06 6.07 6.07v0c1.61 0 3.16-.65 4.3-1.8h-.001c.72 1.13 1.97 1.81 3.32 1.8 .87 0 1.74-.3 2.43-.83 .71-.55 1.25-1.34 1.55-2.285 .04-.16.13-.51.13-.51l0-.02c.17-.76.25-1.52.25-2.46 0-6.62-5.39-12-12-12"/></svg>