<svg viewBox="0 0 24 24" xmlns="http://www.w3.org/2000/svg"><path d="M23.769 6.947c.06 0 .11.02.16.06v0c.04.04.07.09.07.16v7.77 0c0 .06-.03.11-.07.16v0c-.05.04-.11.06-.17.06h-1.7v0c-.13 0-.23-.1-.24-.23v-2.715 0c0-.06-.03-.12-.07-.16 -.05-.05-.1-.06-.17-.06h-2.38v0c-.06-.01-.12.01-.17.05v0c-.05.03-.07.09-.07.15v2.71c0 .14-.08.22-.24.22h-1.69c-.16 0-.24-.08-.24-.23V7.11c0-.15.07-.23.23-.23h1.68c.15 0 .23.07.23.22v2.63c0 .14.07.22.23.22h2.37c.06 0 .12-.03.16-.07h-.001c.04-.05.06-.11.06-.17v-2.63 -.001c-.01-.07.02-.13.07-.17V6.91c.04-.05.1-.07.16-.07Zm-8.374 6.207c.06 0 .11.02.15.06v-.001c.04.04.06.1.06.16v1.55h-.001c0 .05-.03.11-.07.16v0c-.05.04-.1.06-.16.06h-5.45c-.16 0-.24-.08-.24-.23V7.15c0-.15.07-.23.23-.23h1.67c.15 0 .23.07.23.22v5.78 0c-.01.05.02.11.07.15 .04.04.09.05.16.05h3.31Zm-7.75-6.11c.16.07.3.16.42.28 .12.11.21.26.28.42 .07.16.1.33.1.52v6.648H8.44c0 .05-.03.11-.07.15h0c-.05.04-.1.06-.16.06h-1.6v0c-.06 0-.12-.03-.15-.07H6.46c-.04-.05-.06-.1-.06-.16V8.847H5.11v6.045 0c0 .05-.02.11-.06.15v0c-.04.04-.1.06-.15.06H3.45v0c-.06 0-.12-.03-.16-.07h0c-.05-.05-.07-.1-.07-.16V8.827H1.93v6.045c0 .14-.07.21-.22.21H.13c-.15 0-.22-.07-.22-.22V7.09c0-.15.07-.22.21-.22H7.02c.18 0 .35.03.52.1Zm16.341 9.314s0 .01 0 .02v.45c0 .02-.01.05-.02.08 -.02.02-.03.04-.05.07v0c-.02.02-.05.03-.07.04 -.03.01-.06.01-.09.01h-.64v0c-.03-.01-.06-.01-.09-.02 -.03-.02-.05-.03-.07-.05v0c-.03-.02-.04-.05-.05-.07 -.02-.03-.02-.06-.02-.09v-.85c0-.03 0-.06.01-.09 0-.03.02-.05.04-.07v0c.01-.03.04-.04.07-.05 .02-.02.05-.02.08-.02h.75s.02 0 .02 0 0 .01 0 .02v.24s0 .02-.01.02 -.02 0-.03 0h-.61c-.01 0-.03 0-.03 0 -.01 0-.01.01-.01.02v.59s0 .01 0 .02c0 0 .01 0 .02 0h.35s.01 0 .02-.01c0-.01 0-.02 0-.03v-.32c0-.01 0-.03 0-.03 0-.01.01-.01.02-.01h.25c.01 0 .02 0 .02.01Zm-1.47-.57c.02.01.05.02.07.04v-.001c.02.01.03.04.04.07 .01.02.01.05.01.08v1.02s0 .02-.01.02 -.02 0-.02 0h-.26c-.01 0-.02 0-.03-.01 -.01-.01-.01-.02-.01-.02v-.9c0-.01 0-.02-.01-.02 -.01-.01-.02-.01-.03-.01h-.36c-.01 0-.03 0-.03 0s-.01.01-.01.02v.89c0 .02-.02.03-.04.03h-.26v0c-.02 0-.04-.02-.04-.04 -.01-.01-.01-.01 0-.01v-1.2c0-.02.01-.04.03-.04h.82c.01-.01.04 0 .06.01Zm-1.22 1.21c0 .02-.02.03-.04.03h-.26v0c-.02 0-.04-.02-.04-.04 -.01-.01-.01-.01 0-.01v-1.2c0-.02.01-.04.03-.04h.25c.02 0 .03.01.03.03Zm-.98-.71c-.01 0-.01 0 0 .01l.42.69s0 .01 0 .02c-.01 0-.01 0-.02 0h-.31c-.01 0-.02 0-.03-.01l-.02-.02 -.28-.5c-.01-.01-.01-.01-.01 0l-.15.16c-.01 0-.02.01-.02.02 -.01.01-.01.02-.01.03v.26c0 .02-.02.03-.04.03h-.25c-.03 0-.04-.02-.04-.04v-1.2c0-.02.01-.04.03-.04h.25c.02 0 .03.01.03.03v.54l.47-.55v0c0-.01.01-.02.02-.03 .01-.01.02-.01.02-.01h.3s.01 0 .01 0 0 .01-.01.02Zm-1.65-.22c-.01 0-.01.01-.01.02v.59s0 .01 0 .02c0 0 .01 0 .02 0h.58s.02 0 .02 0 0 .01 0 .02v.24s0 .02-.01.02 -.02 0-.03 0h-.73v0c-.03-.01-.06-.01-.09-.02v0c-.03-.02-.05-.03-.07-.05v0c-.03-.02-.04-.05-.05-.07 -.02-.03-.02-.06-.02-.09v-.85c0-.03 0-.06.01-.09v0c.01-.03.02-.05.04-.07v0c.01-.03.04-.04.07-.05 .02-.02.05-.02.08-.02h.72s.02 0 .02 0 0 .01 0 .02v.24s0 .02-.01.02 -.02 0-.03 0h-.59c-.01.03-.02.04-.03.04Zm-.82-.32c.02 0 .05 0 .08.01 .02.01.05.02.07.04v-.001c.02.01.03.04.04.07v0c0 .02.01.05.01.08v1.02s0 .02-.01.02 -.02 0-.03 0h-.26c-.01 0-.03 0-.03-.01 -.01-.01-.01-.02-.01-.02v-.33c0-.01 0-.02-.01-.02 -.01-.01-.02-.01-.03-.01h-.36c-.01 0-.02 0-.02 0 -.01 0-.01.01-.01.02v.32c0 .02-.02.03-.04.03h-.26c-.03 0-.04-.02-.04-.04v-1.03c0-.03 0-.06.01-.09v0c.01-.03.02-.05.04-.07v-.001c.01-.03.04-.04.07-.05 .02-.02.05-.02.08-.02Zm-.11.6v-.32h-.43v.31Zm-1.07-.61s.02 0 .02 0 0 .01 0 .02v1.2s0 .02-.01.02 -.02 0-.03 0h-.26c-.01 0-.02 0-.02-.01 -.01-.01-.01-.02-.01-.02v-.43c0-.01 0-.02-.01-.02 -.01-.01-.02-.01-.02-.01h-.36c-.01 0-.03 0-.03 0 -.01 0-.01.01-.01.02v.42c0 .02-.02.03-.04.03h-.26v0c-.02 0-.04-.02-.04-.04 -.01-.01-.01-.01 0-.01v-1.2c0-.02.01-.04.03-.04h.25c.02 0 .03.01.03.03v.4c0 .02.01.03.03.03h.35s.01 0 .02-.01c0-.01 0-.02 0-.03v-.41c0-.01 0-.03 0-.03 0-.01.01-.01.02-.01h.24Zm-1.95.01s0 .01 0 .02v.23s0 .01-.01.02c-.01 0-.02 0-.02 0h-.61c-.01 0-.01 0-.01 0v.19s0 0 0 0h.52s.01 0 .02 0c0 0 0 .01 0 .02v.18s0 .02-.01.02 -.02 0-.02 0h-.52c-.01 0-.01 0-.01 0v.19s0 0 0 0h.6s.02 0 .02 0 0 .01 0 .02v.22s0 .02-.01.02 -.02 0-.02 0h-.9 0c-.02 0-.04-.02-.04-.04 -.01-.01-.01-.01 0-.01v-1.2c0-.01 0-.03 0-.03 0-.01.01-.01.02-.01h.89v0c0 .01.01.02.02.04Zm-1.26 0s0 .01 0 .02v1.02 0c-.01.02-.01.05-.02.08 -.02.02-.03.04-.05.07h0c-.02.02-.05.03-.07.04 -.03.01-.06.01-.09.01h-.64v0c-.03-.01-.06-.01-.09-.02 -.03-.02-.05-.03-.07-.05v0c-.03-.02-.04-.05-.05-.07 -.02-.03-.02-.06-.02-.09v-1.03c0-.03.01-.04.03-.04h.25c.02 0 .03.01.03.03v.89s0 .01 0 .02c0 0 .01 0 .02 0h.35s.01 0 .02-.01c0-.01 0-.02 0-.03v-.891c0-.01 0-.03 0-.03 0-.01.01-.01.02-.01h.25c.02-.01.02 0 .03 0Zm-1.34.57s0 .01 0 .02v.45 0c-.01.02-.01.05-.02.08 -.02.02-.03.04-.05.07h0c-.02.02-.05.03-.07.04 -.03.01-.06.01-.09.01h-.64v0c-.03-.01-.06-.01-.09-.02v-.001c-.03-.02-.05-.03-.07-.05v0c-.03-.02-.04-.05-.05-.07 -.02-.03-.02-.06-.02-.09v-.85c0-.03 0-.06.01-.09 0-.03.02-.05.04-.07v0c.01-.03.04-.04.07-.05 .02-.02.05-.02.08-.02h.75s.02 0 .02 0 0 .01 0 .02v.24s0 .02-.01.02 -.02 0-.02 0h-.61c-.01 0-.03 0-.03 0 -.01 0-.01.01-.01.02v.59s0 .01 0 .02c0 0 .01 0 .02 0h.35s.01 0 .02-.01c0-.01 0-.02 0-.03v-.32c0-.01 0-.03 0-.03 0-.01.01-.01.02-.01h.25s.02 0 .02.01Zm-1.55-.59c.02 0 .05 0 .08.01 .02.01.05.02.07.04v-.001c.02.01.03.04.04.07v-.001c0 .02.01.05.01.08v1.02s0 .02-.01.02 -.02 0-.03 0h-.26c-.01 0-.02 0-.02-.01 -.01-.01-.01-.02-.01-.02v-.33c0-.01 0-.02-.01-.02 -.01-.01-.02-.01-.02-.01h-.37c-.01 0-.02 0-.02 0 -.01 0-.01.01-.01.02v.32c0 .02-.02.03-.04.03H9.7c-.03 0-.04-.02-.04-.04v-1.03c0-.03 0-.06.01-.09v-.001c.01-.03.02-.05.04-.07h0c.01-.03.04-.04.07-.05 .02-.02.05-.02.08-.02Zm-.12.6V16h-.43v.31Zm-1.04-.59s0 .01 0 .02v.23s0 .01-.01.02c-.01 0-.02 0-.02 0h-.61c-.01 0-.01 0-.01 0v.19s0 0 0 0h.51s.01 0 .02 0c0 0 0 .01 0 .02v.18s0 .02-.01.02 -.02 0-.03 0h-.52c-.01 0-.01 0-.01 0v.19s0 0 0 0h.6s.02 0 .02 0 0 .01 0 .02v.22s0 .02-.01.02 -.02 0-.02 0h-.9v0c-.02 0-.04-.02-.04-.04 -.01-.01-.01-.01 0-.01v-1.2c0-.01 0-.03 0-.03 0-.01.01-.01.02-.01h.89v0c0 .01.01.02.02.04Zm-1.18.94s.01 0 .02 0c0 0 0 .01 0 .02v.24s0 .02-.01.02 -.02 0-.03 0h-.78v0c-.02 0-.04-.02-.04-.04 -.01-.01-.01-.01 0-.01v-1.2c0-.02.01-.04.03-.04h.25c.02 0 .03.01.03.03v.89s0 .01 0 .02c0 0 .01 0 .02 0h.46Zm-1.71.28s0 .01 0 .02c-.01 0-.01 0-.03 0h-.29c-.01 0-.03 0-.03-.01l-.03-.02 -.19-.35c0-.01-.01-.01-.02-.01H5.7c-.01 0-.01 0-.01 0v.33c0 .02-.02.03-.04.03h-.26c-.03 0-.04-.02-.04-.04v-1.2c0-.02.01-.04.03-.04h.82c.02 0 .05 0 .08.01 .02.01.05.02.07.04h0c.02.01.03.04.04.07v0c.01.02.01.05.01.08v.47l0-.001c-.01.04-.02.08-.05.12H6.35c-.03.03-.07.06-.11.07h-.01c-.01 0-.01 0-.01.01v0ZM6.15 16h-.44v.3h.43Zm-1.25-.3c.02 0 .05 0 .08.01 .02.01.04.02.07.04v0c.02.01.03.04.04.07v0c0 .02.01.05.01.08v.84c0 .02-.01.05-.02.08 -.02.02-.03.04-.05.07h0c-.02.02-.05.03-.07.04 -.03.01-.06.01-.09.01h-.64c-.03 0-.06-.01-.09-.02 -.03-.02-.05-.03-.07-.05H4.07c-.03-.02-.04-.05-.05-.07 -.02-.03-.02-.06-.02-.09v-.85c0-.03 0-.06.01-.09 0-.03.02-.05.04-.07h0c.01-.03.04-.04.07-.05 .02-.02.05-.02.08-.02Zm-.12.3h-.43v.65h.42Zm-1.03-.3s0 .01 0 .02v1.02c0 .02-.01.05-.02.08 -.02.02-.03.04-.05.07h0c-.02.02-.05.03-.07.04 -.03.01-.06.01-.09.01h-.55v0c-.03-.01-.06-.01-.09-.02H2.88c-.03-.02-.05-.03-.07-.05h0c-.03-.02-.04-.05-.05-.07 -.02-.03-.02-.06-.02-.09v-.39c0-.03.01-.04.03-.04h.25c.02 0 .03.01.03.03v.26s0 .01 0 .02c0 0 .01 0 .02 0h.26s.02 0 .02-.01 0-.02 0-.03v-.891c0-.01 0-.03 0-.03 0-.01.01-.01.02-.01h.25c.02-.02.03-.01.04 0ZM2.4 15.68c.02 0 .05 0 .08.01 .02.01.04.02.07.04H2.55c.02.01.03.04.04.07H2.59c0 .02.01.05.01.08v1.02s0 .02-.01.02 -.02 0-.02 0h-.26c-.01 0-.03 0-.03-.01 -.01-.01-.01-.02-.01-.02v-.33c0-.01 0-.02-.01-.02 -.01-.01-.02-.01-.03-.01h-.36c-.01 0-.03 0-.03 0 -.01 0-.01.01-.01.02v.32c0 .02-.02.03-.04.03h-.26v0c-.02 0-.04-.02-.04-.04 -.01-.01-.01-.01 0-.01v-1.03c0-.03 0-.06.01-.09H1.49c.01-.03.02-.05.04-.07v0c.01-.03.04-.04.07-.05 .02-.02.05-.02.08-.02Zm-.12.6v-.32h-.43v.31Zm-1.16-.59c.02.01.05.02.07.04h0c.02.01.03.04.04.07L1.23 15.8c0 .02.01.05.01.08v1.02s0 .02-.01.02 -.02 0-.03 0H.94c-.01 0-.02 0-.03-.01 -.01-.01-.01-.02-.01-.02v-.93H.69v.92s0 .02-.01.02 -.02 0-.03 0H.41c-.01 0-.03 0-.03-.01 -.01-.01-.01-.02-.01-.02v-.93H.16v.92c0 .02-.02.03-.04.03H-.14l0 0c-.02 0-.04-.02-.04-.04 -.01-.01-.01-.01 0-.01v-1.2c0-.02.01-.04.03-.04H.95c.02-.01.05 0 .07.01Z"/></svg>