<svg viewBox="0 0 24 24" xmlns="http://www.w3.org/2000/svg"><path d="M.1 9.629c.24-1.7 2.13-6.98 7.454-7.98 3.13-.6 7 1.03 9.72 3.78 -1.36.92-2.26 1.73-2.95 2.7 .51 1.89 2.01 2.66 3.07 2.984 -1.18-.72-1.92-1.39-2.38-2.82 2.513-2.99 5.205-3.96 5.432-3.98 2.1 1.67 3.58 4.73 3.532 7.95 -.07 3.72-2.09 7.56-4.42 9.12 -.32.15-1.06-.25-1.16-.69 .47-1.11 1.6-3.8 1.74-5.81 .13-1.93-1.15-3.061-2.22-1.67 -1.49 2.49-2.14 5.59-2.79 8.93 -1.1.31-2.952.39-3.76-.04 -.11-2.07.38-5.61-1-6.84 -.59-.54-1.17-.29-1.57.2 -1 1.22-.98 4.414-.78 6.47 -1.11.68-2.99.54-4.18.11 -.48-3.25-1.6-7.202-2.52-10.23 -.26 1.21-.38 2.66-.34 3.9C.36 15.21-.33 12.59.03 9.55Z"/></svg>