<svg viewBox="0 0 24 24" xmlns="http://www.w3.org/2000/svg"><path d="M12.095.1C5.71.09.54 5.26.53 11.63v.02c-.001 2.06.54 4 1.49 5.683l2.86-2.87v0c-.36-.9-.54-1.86-.54-2.82 0-4.27 3.47-7.73 7.732-7.73 4.26 0 7.73 3.46 7.73 7.73 0 4.26-3.47 7.73-7.74 7.73v0c-.89-.01-1.77-.16-2.6-.46l-2.9 2.89 -.001-.001c1.68.91 3.57 1.39 5.49 1.38 2.31 0 4.46-.69 6.27-1.86l2.39 2.39 3.23-3.25 -2.349-2.35c1.26-1.86 2-4.09 2-6.51C23.6 5.21 18.4.02 12.04.04l-.01-.01Zm0 9.34c-1.23 0-2.22.99-2.22 2.21s.98 2.215 2.21 2.215v0c1.22 0 2.21-1 2.21-2.22 0-1.23-1-2.22-2.22-2.22Zm-4.24 3.36c-.29.28-7.59 7.58-7.855 7.85l3.24 3.23 7.85-7.855 -3.24-3.24v0Z"/></svg>