<svg viewBox="0 0 24 24" xmlns="http://www.w3.org/2000/svg"><path d="M23.475 4.03c-.37.01-.27.17-1.06.37 -.81.19-1.78.07-2.65.44 -2.27.95-2.64 4.62-5.34 6.045 -1.77 1-3.58 1.22-5.19 1.73 -1.3.52-2.11.86-3.06 1.68 -.74.63-.92 1.25-1.69 2.05 -.782 1.06-3.744.11-4.506 1.45 .402.26.634.33 1.34.24 -.15.27-1.074.64-.906 1.04 0 0 2.245.4 4.137-.74 .88-.36 1.71-1.12 3.08-1.31 1.77-.24 3.77.37 5.92.54 -.45.87-.91 1.39-1.4 2.11 -.16.16.13.3.65.2 .93-.24 1.61-.49 2.28-.95 .87-.61 1.25-1.16 1.99-2.04 .64 1.032 2.91 1.26 3.38.36 -.87-.37-1.06-2.28-.76-3.11 .35-.79.6-1.9.88-2.93 .25-.93.41-2.349.71-3.08 .36-.91 1.07-1.19 1.6-1.67s1.06-.88 1.04-1.98c-.01-.36-.19-.56-.53-.55Zm-.58.44c.09.3.23.44.84.5 -.09.774-.61 1.19-1.19 1.6 -.51.35-1.07.7-1.43 1.258 -.37.57-.96 2.23-1.52 4.159 -.5 1.66-1.07 2.8-2.28 3.8 -.15-.36.17-.57.03-.9 -.18.49-.56 1.21-.79 1.66 -.76 1.45-2.02 2.63-3.91 2.96 .89-1.21 1.78-2.55 1.89-4.63 -.4.08-.44 1.16-1.08 1.56 -.42.04-1-.05-1.58-.12 -1.73-.21-3.465-.29-5.09.24 -1.11.35-2.356 1.44-3.292 1.85 -1.1.47-1.48.51-2.87.47 -.18-.24 1.002-.54.93-1.05 -.536-.06-.85.07-1.314-.14h0c.05-.1.13-.18.22-.24 .85-.59 3.278-.14 3.92-.78 .4-.4.66-.81.93-1.21 .26-.39.53-.77.95-1.11 .15-.125.39-.35.57-.47 .7-.484 1.51-.84 2.37-1.14 1.17-.42 2.36-.56 3.61-1.03 .77-.3 1.5-.58 2.19-1.09 .16-.13.4-.33.55-.47 2.22-2.192 2.36-5.177 5.41-5.49 .37-.04.67-.03.94-.04 .31-.01.59-.05.9-.22Zm-.15.19c-.02 0-.05.01-.1.05 -.27.27-.79.88-.98 1.45 -.05.15.04.11.08.01 .18-.59.78-1.226.97-1.42 .04-.06.05-.1.02-.1Zm.08.133c-.02 0-.05.02-.09.06 -.23.3-.66.77-.77 1.36 -.03.16.06.1.08-.01 .1-.61.6-1.11.76-1.327 .03-.06.03-.11 0-.11Zm.09.12c-.02 0-.05.02-.08.07 -.2.32-.46.69-.52 1.295 -.02.16.07.09.08-.01 .05-.62.37-1.032.51-1.27 .03-.06.02-.11-.01-.1Zm.1.09c-.02 0-.05.03-.08.08 -.17.34-.33.6-.34 1.2 0 .16.08.09.08-.02 0-.62.22-.93.33-1.17 .02-.07.01-.11-.02-.1Zm-2.064.29c-.53.01-.84.242-.94.68 .43.375 1.33.07 1.17-.68V5.29c-.08-.01-.16-.01-.24-.01Z"/></svg>