<svg viewBox="0 0 24 24" xmlns="http://www.w3.org/2000/svg"><path d="M9.678 21.213h4.67v.9h-4.67v-.91Zm.87 2.78h2.93v-1.41h-2.93v1.4Zm-.85-5.32c.57.52.88 1.28.83 2.05h2.94 -.001c-.06-.78.24-1.53.81-2.06h-4.6Zm-3.06-2.17v.68h10.69v-.69h-10.7Zm.47 3.08v0c.64-.15 1.24-.47 1.74-.92H6.97l.12.91Zm9.74 0l.12-.92h-1.86c.49.45 1.08.76 1.73.91Zm-8.666-4.56h0c-.67-2.18-1.43-4.32-2.3-6.42 .64.1 1.28.23 1.91.4h0c-1.27-1.36-2.72-2.52-4.32-3.46 1.226 2.378 2.37 5.987 2.965 9.46h1.73Zm9.326 0c.58-3.48 1.74-7.087 2.96-9.47l-.001 0c-1.6.93-3.05 2.09-4.31 3.45 .63-.17 1.26-.31 1.91-.41l0 0c-.88 2.09-1.64 4.24-2.3 6.41h1.72Zm-11.45 1.12h11.83v-.68H6.05v.67Zm5.13-1.15c.31-.74.56-1.5.77-2.28 .2.77.46 1.53.77 2.27h2.05c-1.75-2.87-2.24-6.67-2.343-10 -.01-.35.13-.43.46-.29l1.05.47 0 0c-.98-1.61-1.66-3.38-2-5.22v0c-.35 1.84-1.02 3.61-2 5.21l1.05-.48c.33-.16.45-.06.45.28 -.11 3.31-.6 7.109-2.34 10h2.05Zm-5.14 3.19h11.83v-.68H6.048v.67Z"/></svg>