<svg viewBox="0 0 24 24" xmlns="http://www.w3.org/2000/svg"><path d="M23.268 5.313C22.918 2.735 20.648.7 17.95.3c-.46-.07-2.18-.31-6.16-.31h-.03C7.78-.01 6.92.23 6.47.3c-2.62.38-5 2.2-5.58 4.81C.62 6.398.58 7.82.63 9.134c.07 1.87.08 3.74.26 5.61 .118 1.24.32 2.47.62 3.68 .55 2.23 2.777 4.09 4.96 4.85 2.33.79 4.84.92 7.25.38 .26-.07.52-.14.78-.22 .58-.19 1.27-.39 1.77-.76v0c.01-.02.02-.03.02-.05v-1.81 0c0-.02-.01-.04-.02-.05v0c-.02-.02-.03-.02-.05-.01l0-.001c-1.55.36-3.13.54-4.71.54 -2.73 0-3.47-1.29-3.68-1.82H7.83c-.17-.47-.28-.95-.32-1.44v-.001c-.01-.03.02-.06.05-.06 0-.01.01 0 .01 0 1.51.36 3.07.54 4.632.54 .37 0 .75 0 1.125-.01 1.57-.05 3.224-.13 4.76-.43 .03-.01.07-.02.11-.03 2.43-.47 4.753-1.92 4.98-5.61 0-.15.03-1.52.03-1.67 0-.52.16-3.63-.03-5.545Zm-3.75 9.195h-2.561V8.29c0-1.31-.55-1.976-1.67-1.976 -1.23 0-1.846.79-1.846 2.35v3.4h-2.55v-3.41c0-1.56-.62-2.35-1.85-2.35 -1.12 0-1.67.66-1.67 1.97v6.218H4.81v-6.41c0-1.31.33-2.35 1.01-3.12 .69-.77 1.6-1.17 2.74-1.17 1.311 0 2.3.5 2.96 1.49l.63 1.06 .63-1.06c.66-1 1.65-1.5 2.96-1.5 1.13 0 2.04.39 2.74 1.16 .67.77 1.01 1.81 1.01 3.12Z"/></svg>