<svg viewBox="0 0 24 24" xmlns="http://www.w3.org/2000/svg"><path d="M6.66 15.37v0c-.01 1.83-1.5 3.32-3.34 3.33 -1.84-.001-3.34-1.5-3.34-3.34 0-1.84 1.49-3.34 3.33-3.34H3.3c1.83 0 3.32 1.49 3.33 3.33Zm11.56-3.65v0c-.6.38-1.29.58-1.99.59v0c-.67-.01-1.31-.19-1.88-.53l0 .01v0c-.5-.3-.93-.71-1.24-1.19L10.49 6.9l0-.001c-.02-.01-.02-.03-.03-.04h0c-.61-.99-1.68-1.59-2.84-1.59l0-.001c-1.17-.01-2.25.59-2.85 1.58v0c-.01.01-.02.01-.03.02L1.32 12.2h0c1.7-1.09 3.97-.59 5.05 1.12 .01.01.02.03.03.05v0s.01.01.01.01l2.75 3.86v-.001c.62.86 1.62 1.38 2.69 1.38v0c1.07 0 2.08-.51 2.71-1.38l0-.02c.07-.11.13-.21.19-.31l1.44-2.26 1.93-3.03Zm5.27 1.9l-.02-.03 -.05-.07v-.001c-.01-.02-.02-.03-.03-.05l-3.53-5.37c.02.16.05.33.05.51 0 .74-.22 1.45-.64 2.06l-2.81 4.38 1.41 2.17 -.01 0v0s.01.01.02.02v0c.62.88 1.63 1.41 2.72 1.41v0c1.83-.01 3.33-1.5 3.33-3.34 0-.62-.18-1.22-.5-1.75Zm-7.27-1.67v0c1.83-.01 3.33-1.5 3.33-3.34v0c-.01-1.84-1.5-3.33-3.34-3.34v0c-1.84 0-3.33 1.49-3.34 3.33h0c0 1.83 1.49 3.32 3.33 3.33Z"/></svg>