<svg viewBox="0 0 24 24" xmlns="http://www.w3.org/2000/svg"><path d="M19.229 4.18l-4.07 2.327V1.81L11.98-.02 8.81 1.81V6.49L4.77 4.15 1.59 5.98v3.66l4.05 2.33 -4.06 2.343v3.657l3.165 1.83 4.044-2.34v4.68l3.17 1.82 3.17-1.84v-4.68l4.05 2.32 3.17-1.83v-3.65l-4.05-2.35 4.058-2.34V5.92l-3.17-1.82h-.01Zm.37 3.42V5.7l1.63.94v1.9l-1.64-.96h-.01Zm1.63 9.286l-6.08-3.51 1.65-.95 4.42 2.55v1.89l0-.01Zm-6.83-3.95l-1.65-.95 6.45-3.73 1.64.94 -6.45 3.72h0ZM3.11 9.206l1.641-.95 6.45 3.72 -1.64.94 -6.455-3.73Zm5.69 4.17l-6.075 3.5v-1.9l4.43-2.56 1.64.94v-.01Zm-6.08-4.83V6.63l1.64-.95v1.89l-1.64.95Zm9.62 0V1.53l1.641.93v5.12l-1.641.95v0Zm-2.41-.96V2.46l1.64-.95V8.52l-1.64-.95Zm8.86-1.89v1.89l-6.46 3.734V9.41l6.45-3.73ZM11.571 9.42v1.89l-6.46-3.73v-1.9l6.46 3.721 -.01 0Zm-2.41 6.513l-4.44 2.55 -1.64-.95 6.074-3.51v1.89Zm.76-2.343l1.64-.95v7.45l-1.64.95v-7.47Zm3.65 8.115l-1.64.95 -1.64-.96 1.64-.95 1.63.94v-.01Zm.39-.657l-1.65-.95v-7.45l1.64.94Zm6.83-3.51l-1.65.94 -4.43-2.56v-1.9l6.07 3.5h-.01Z"/></svg>