<svg viewBox="0 0 24 24" xmlns="http://www.w3.org/2000/svg"><path d="M19.494 9.61c-.16 0-.27.04-.34.12v-.001c-.08.07-.12.18-.12.29 0 .31.14.46.41.46 .16 0 .28-.04.36-.12v-.001c.07-.09.11-.2.11-.31 0-.32-.14-.47-.42-.47h-.03ZM2.15 9.64L1.07 11.5l-1.08 1.86h2.85v-1.9l-.06-.73Zm18.086.01v3.394l.25-.47 .02 0v-.001c.22.11.47.19.73.22h0c.06 0 .12-.02.17-.06 .04-.03.06-.07.06-.125 0-.07-.03-.12-.1-.16v0c-.06-.04-.12-.07-.17-.1v0c-.27-.1-.52-.23-.74-.39 -.16-.13-.23-.33-.23-.57v0c-.01-.25.1-.48.3-.625v0c.21-.16.48-.24.75-.23 .29 0 .53.07.7.21v0c.17.14.28.35.3.58v.02l-.73.14 -.01-.03c-.02-.12-.04-.19-.09-.24v0c-.07-.06-.15-.09-.23-.08v0c-.06-.01-.12.01-.17.05 -.05.04-.07.08-.07.12 0 .04 0 .07.01.1v0c.01.02.02.04.05.06l.07.06v0c.03.01.06.03.09.05l.13.05c.04.02.14.07.31.15v-.01 0c.16.06.31.15.44.27 .11.11.17.28.17.48 0 .21-.1.4-.3.56v0c-.15.11-.32.19-.5.22h2.44V9.52Zm-10.08.29l-.73.21 -.03.5 -.34.04 -.08.5h.39v1.12c0 .38.04.66.15.83 .1.17.32.25.65.25v0c.24-.01.49-.08.7-.2l-.14-.45v0c-.1.02-.2.04-.29.04 -.12 0-.2-.04-.25-.11 -.05-.07-.08-.19-.08-.36v-1.17h.59l.09-.56h-.68Zm1.9 0l-.73.21 -.03.5 -.34.04 -.08.5h.39v1.12c0 .38.04.66.15.83 .1.17.32.25.65.25h-.001c.24-.01.48-.08.7-.2l-.14-.45h-.001c-.1.02-.2.04-.29.04 -.12 0-.2-.04-.25-.11 -.05-.07-.07-.19-.07-.36v-1.17h.59l.09-.56h-.68Zm-7.87.67v0c-.27-.01-.52.12-.68.33h-.02l-.08-.31 -.6.07 .05.75v1.891h.77v-2.01h0c.07-.1.18-.15.3-.15 .18 0 .27.11.27.33v1.82h.76v-2.01h0c.07-.1.18-.16.31-.15 .17 0 .26.11.26.33v1.82h.78v-1.79c0-.65-.27-.97-.78-.97v0c-.29-.01-.55.11-.73.33 -.12-.22-.34-.33-.63-.33Zm3.61 0v0c-.2 0-.39.03-.57.08v0c-.17.03-.33.09-.48.17l.21.47H6.95c.21-.08.43-.14.66-.16 .13 0 .22.03.27.08 .04.05.07.13.07.24v.2l-.44.07h0c-.25.03-.48.12-.665.27 -.16.13-.23.33-.23.59 0 .5.242.75.726.75H7.34c.29 0 .57-.14.74-.38h.01v0c.08.16.22.29.38.37l.43-.42v-.001c-.08-.08-.13-.16-.17-.25h0c-.03-.1-.04-.21-.04-.31v-.95 -.001c0-.12-.01-.23-.03-.34v0c-.02-.1-.06-.2-.12-.28v0c-.07-.11-.18-.18-.3-.22l-.001 0c-.16-.06-.33-.08-.5-.07Zm6.337 0c-.39 0-.68.13-.89.38v0c-.22.29-.33.66-.31 1.03 0 .93.39 1.39 1.173 1.39h0c.35-.01.69-.1 1-.28l-.16-.48v0c-.22.08-.46.13-.69.14 -.19 0-.32-.05-.4-.15v0c-.09-.14-.13-.3-.12-.45h1.04l.36-.05c0-.22-.01-.39-.02-.53 -.03-.36-.12-.61-.25-.76 -.16-.19-.41-.28-.75-.28Zm2.683 0V10.6c-.15 0-.28.06-.38.15v-.001c-.13.11-.22.26-.26.42h-.02l-.1-.56 -.59.07 .05.74v1.9h.76v-1.52c0-.19.05-.33.15-.43v0c.09-.1.22-.15.35-.15v0c.09 0 .18.01.27.04l.17-.61v0c-.14-.07-.29-.11-.44-.1h-.03Zm3.05.01l-.78.08v2.39 0c.01.17-.01.34-.06.5 -.04.08-.14.19-.3.31l.42.44 -.001 0c.21-.12.4-.28.56-.47v-.001c.1-.19.15-.39.13-.6Zm1.43 0v0c-.27-.01-.52.06-.73.22v0c-.19.13-.29.34-.28.57 0 .24.07.4.21.52l0 0c.21.16.46.29.71.38v0c.06.03.12.06.18.1 .07.04.12.11.12.18v-.001c0 .07-.04.13-.09.17v-.001c-.07.03-.14.05-.21.05v0c-.26-.03-.51-.1-.73-.21l-.25.45c.32.19.65.28.98.28v0c.27.01.54-.07.76-.24 .18-.17.27-.34.27-.54h-.001c.01-.17-.05-.34-.17-.46v0c-.13-.12-.27-.2-.42-.26v0c-.12-.05-.22-.1-.33-.15l-.12-.05v0c-.04-.02-.08-.04-.12-.06l-.08-.07 0-.001c-.03-.03-.05-.06-.06-.08v0c-.02-.05-.02-.09-.02-.125h-.001c-.01-.07.02-.13.07-.17v0c.05-.05.12-.08.19-.08 .1 0 .19.03.25.09v-.001c.05.06.09.15.1.24l.62-.12v0c-.02-.21-.12-.4-.27-.53v0c-.2-.15-.44-.22-.68-.21Zm-7.21.58h.02c.11 0 .19.03.22.11 .03.07.05.21.05.4h-.62v0c-.01-.14.02-.27.08-.39 .04-.09.125-.125.23-.14ZM7.98 12.21v.47 -.001c-.09.09-.22.14-.35.14 -.18 0-.27-.09-.27-.25 0-.12.05-.19.14-.25h0c.14-.07.3-.12.46-.125Zm-4.295.12v1h.48v-.18Zm14.09.06h-.001c-.26.01-.46.23-.46.48h0c-.01.26.21.48.48.48 0 0 0-.01 0-.01v0c.26-.01.48-.23.48-.5 -.01-.01-.01-.01-.01-.01v-.001c-.01-.27-.22-.49-.49-.49v0c-.02-.01-.03-.01-.04 0Zm2.43.74v.25h.7l-.001-.001c-.25-.05-.49-.14-.71-.26Z"/></svg>