<svg viewBox="0 0 24 24" xmlns="http://www.w3.org/2000/svg"><path d="M12.081 0C7.04-.034 2.33 3.125.63 8.153c-2.13 6.27 1.24 13.08 7.516 15.21 6.27 2.125 13.086-1.24 15.21-7.516 1.72-5.1-.18-10.56-4.311-13.557l.12 2.54c2.06 2.282 2.88 5.51 1.85 8.549 -1.54 4.532-6.6 6.91-11.3 5.32C5 17.09 2.43 12.139 3.97 7.6 5 4.55 7.621 2.47 10.66 1.93L12.3-.01l0 0c-.09-.01-.17-.01-.25-.01Zm3.52 1.094v0c-.05-.01-.09 0-.13.02l-.01 0v0c-.05.01-.08.04-.11.07 -.15.14-.657.82-.657.82l-1.12 1.38 -1.3 1.58 -2.24 2.776s-1.03 1.27-.798 2.85c.22 1.57 1.39 2.34 2.3 2.64 .907.3 2.3.4 3.43-.71 1.13-1.112 1.09-2.75 1.09-2.75l-.09-3.56 -.07-2.05 -.05-1.775s.01-.86-.02-1.06V1.32c-.01-.04-.02-.08-.04-.11l-.01-.02 -.01-.02v0c-.05-.09-.14-.14-.23-.14Z"/></svg>