<svg viewBox="0 0 24 24" xmlns="http://www.w3.org/2000/svg"><path d="M12 0v0C5.37 0 0 5.37 0 12c0 6.62 5.37 12 12 12 6.62 0 12-5.38 12-12v0c-.01-6.63-5.38-12-12-12Zm-.05.33l0 0C18.39.3 23.64 5.5 23.66 11.94c0 .01 0 .03 0 .05v0c-.01 6.44-5.23 11.66-11.67 11.66v0C5.54 23.66.3 18.44.29 12 .27 5.55 5.49.31 11.93.3Zm.04 1.133l-.001 0c-5.82 0-10.54 4.71-10.55 10.53 0 3.37 1.71 6.61 4.503 8.64v0c.09.07.2.13.32.18H6.26c.04.01.09 0 .12-.03l.03-.06h0c.02-.03.03-.06.03-.1 0-.08-.11-.15-.24-.35L6.2 20.27c-.35-.52-.53-1.12-.54-1.73H5.65c-.01-.57.17-1.12.51-1.57 .42.44 1.33 1.24 1.314 1.98 -.03.74-.79.77-.617 1.39 .1.38.38.22.44.52 .08.5.76.83 1.06.78 .08-.02.13.04.27.19 .13.15.7.18.93.13 .22-.05.46.16.91.1 .44-.06.69-.11.93-.11 .24 0 2.57-.04 4.11.2 .27.04.35-.08.24-.29 -.56-.99-.64-1.81-.32-2.86 .57.04 1.39.19 2.46-.46v0c.37-.24.59-.65.58-1.09 -.02-.24-.12-.54-.06-.77 .05-.23.14-.31.24-.37 .41-.3.11-.53.04-.548v0c.17-.12.23-.35.125-.53 -.08-.08-.31-.71-.05-.84s.6-.21.92-.36h0c.26-.11.38-.41.28-.68 -.01-.01-.01-.01-.01-.02l0-.001c-.34-.81-.68-1.61-1.03-2.4 -.16-.36-.06-.59-.11-.84 -.05-.26-.31-.8-.5-1.234 -.08-.2.43-.15.04-.87 0-.03.53-.23 0-.63v0c-.28-.22-.51-.48-.69-.77v-.001c-.04-.05-.04-.11 0-.15 .3-.274.32-.67-.02-.86 -.34-.2-.52 0-.77.16 -.08.05-.13.09-.22.05l-.21-.14c.3-.3.37-.6.35-.64 -.03-.05-.53-.15-1.17.11l-.05-.04c.26-.45.11-.766.1-.79h-.02l-.001 0c.41-.56.88-1.07 1.41-1.52h.01c.02-.04.03-.07-.03-.11l-.12-.07v0c-1.57-.88-3.34-1.33-5.13-1.33Zm-.08.31V1.77c1.67-.02 3.32.39 4.805 1.16v0c.02 0 .03.03.02.05 -.01 0-.01.01-.02.02V3c-.43.4-.82.83-1.17 1.3V4.3c-1.12-.53-2.35-.81-3.577-.8v0c-4.68.01-8.46 3.79-8.47 8.46v0c-.02 2.02.71 3.98 2.04 5.5h0c-.15.33-.23.7-.22 1.07v0c-.01.5.12 1 .37 1.45 -2.469-1.97-3.954-4.94-3.954-8.04H1.73C1.72 6.32 6.25 1.75 11.87 1.72Zm.28.26c-.04 0-.05.02-.06.04l-.11 1.142V3.21c0 .02.02.04.04.04h.125c.02.01.04-.02.04-.04l.11-1.15v0c0-.03-.02-.06-.05-.06Zm-1.686.11c-.01 0-.02 0-.02 0h-.14c-.03.01-.05.03-.04.05l.21 1.13c0 .03.02.04.05.04l.125-.03c.02 0 .04-.03.03-.05l-.22-1.14h0c-.01-.02-.02-.04-.03-.04Zm3.51.1l-.45 1.09V3.33c-.02.02-.01.05.01.06 0 0 .01 0 .01 0l.12.03v0c.02 0 .04-.02.05-.04l.43-1.08 0 0c.01-.03 0-.06-.02-.07 -.01-.01-.02-.01-.02-.01L14 2.19Zm-5.32.34v0c-.01 0-.01 0-.02 0l-.12.03v-.001c-.03 0-.05.02-.04.05 0 0 0 .01 0 .01l.51 1.04 .05.02 .12-.05v0c.02-.01.04-.03.04-.06 -.01-.01-.01-.02-.01-.02l-.53-1.03v-.001c-.01-.02-.03-.03-.05-.03Zm6.913.13h0c-.02 0-.03 0-.04.01l-.75.94c-.03.02-.02.05.02.06l.12.04c.02.01.03 0 .05-.02l.74-.95v0c0-.03-.01-.06-.03-.07l-.13-.05v0c-.01-.01-.02-.01-.03-.01Zm-8.592.63l-.001-.001c-.01-.01-.02 0-.03 0l-.12.06c-.04.01-.04.04-.02.07l.76.879c.01.02.03.02.05.01l.11-.07V4.29c.02-.02.02-.05.01-.07 -.01-.01-.01-.01-.01-.01l-.766-.88v0c-.01-.01-.02-.02-.04-.02Zm4.93.49l-.001 0c0-.01.01-.01.02 0V3.83c1.16-.01 2.32.24 3.38.73h0c-.17.08-.33.18-.47.29v0c-.93-.4-1.92-.6-2.92-.59l0 0c-4.24 0-7.68 3.44-7.68 7.68 0 1.84.57 3.45 1.69 4.8 -.06.1-.15.24-.26.4h-.02 -.001c-1.24-1.46-1.9-3.3-1.88-5.2l0-.001c0-4.48 3.62-8.11 8.09-8.13Zm-6.51.61l-.11.09v0c-.03.02-.03.05 0 .08l.97.67c.02.01.04.01.05-.02l.1-.08v0c.02-.03.02-.06 0-.08l-.98-.68Zm10.177.19s.01 0 .01 0c.06.03-.1.64-.45.98 -.36.34-.93.7-.99.69 -.06-.02.19-.68.49-1.02 .3-.37.8-.66.91-.67Zm-3.62.02h-.001c.88-.01 1.75.17 2.56.52l-.001-.001c-.18.23-.32.48-.43.75 0-.22-.06-.39-.05-.53 .01-.14-.59.1-1.11.94l-.001-.001c-.12.18-.2.39-.26.6 -.02-.32-.08-.56-.11-.56v0c-.45.19-.8.55-.98 1v0c-.06.12-.1.25-.13.38 -.03-.22-.08-.37-.11-.37s-.68.26-.99 1.01v0c-.07.16-.12.34-.13.52 -.06-.27-.16-.43-.2-.39 -.22.27-.66.4-.87 1.09v0c-.06.15-.08.31-.08.48 -.1-.23-.23-.37-.27-.37 -.04 0-.7.62-.8 1.24h0c-.04.22-.03.44.02.66 -.13-.21-.29-.35-.36-.55 -.11.05-.66.57-.67 1.22l-.001 0c-.01.23.01.47.08.69 -.19-.34-.44-.48-.47-.47 -.04.01-.46.46-.548 1.26v0c-.02.17-.01.35.04.52 -.18-.2-.32-.3-.33-.29h0c-.21.3-.36.65-.42 1.01l-.001 0c-.53-.99-.82-2.08-.86-3.19C4.34 7.77 7.73 4.51 11.88 4.52Zm4.571.61v0c.01-.01.02-.01.03 0 .09.01-.22.548-.76.77 -.54.22-.98.28-1.02.26 -.05-.03.46-.67.91-.86l0-.001c.25-.12.53-.18.82-.19Zm-2.65.31s0 0 0 0c-.02.04.24.75-.3 1.18v-.001c-.27.19-.48.44-.64.73 -.06.1-.22-.58.19-1.22 .23-.375.69-.71.74-.72Zm-9.802.24l0-.001c-.02 0-.02 0-.03.01l-.08.1v0c-.02.01-.03.04-.01.06 0 0 .01.01.02.01l1.12.43v0c.01 0 .03-.01.04-.03l.09-.11c.02-.03.01-.06-.03-.07l-1.12-.44v0c-.02-.01-.03-.01-.04-.01Zm13.44.1c.04 0 .09.01.12.04 .29.29-.34.46-.21.69v0c.22.37.51.69.85.96 .13.11.16.35-.38.46 -.54.11-2.7.67-3.84 1.88 -1.43 1.5-2.34 3.46-2.46 3.2 -.13-.27-.42-.32-.37-.4 2.045-3.52 5.25-6.298 6.01-6.766v-.001c.07-.06.16-.09.25-.09Zm-1.34.11l.18.12c.11.06.16.09.1.13 -2.6 2.2-4.54 5-5.39 6.35 -.03.04-.07.03-.15.03 -.91-.07-1.42 1.01-1.02 2.035 -.05.2-.48.6-.52.62 -.04.02-.12.16.03.14 .15-.02.48-.37.61-.52 .04.06.25.22.14.32v0c-.48.47-1.01.87-1.59 1.2 -.3.13.48.24 1.79-.95 .08-.07.17.27.28.42 -.23.74.33 2.183.24 2.628v0c-.01.17-.15.3-.32.3 -1.31.03-1.43-.04-2.1.16 -.31.09-.23.29-.02.24 .21-.06.52-.18 1.93-.08 .35.01.74-.07.74-.66 0-.59-.42-2.11-.28-2.32v0c.11.08.25.14.4.16 -.03.51.8 2.17.43 3.08 -.14.34-.74.3-1.76.2 -1.75-.18-2.32.2-2.36 0 -.04-.23.18-.45.18-.94 0-.5-.76-1.44-1.27-1.98l0-.001c.31-.01.62-.09.9-.22 .75-.36.9-1.154.92-1.19h0c-.15-.05-.29-.06-.44-.05l.09-.05c.73-.4.92-1.26.891-1.27v0c-.16-.03-.31-.05-.46-.04l.22-.08c.77-.31.99-1.18.97-1.22H9.57c-.14-.03-.27-.05-.4-.05l.21-.1c.7-.36.96-1.154.92-1.18v0c-.13-.04-.25-.06-.38-.05v0c.17-.04.34-.1.51-.18 .766-.34 1.01-1.07.98-1.1v-.001c-.12-.04-.23-.06-.35-.06v0c.17-.04.33-.09.5-.15 .75-.25 1.05-.97 1-.99l-.43-.1v0c.25-.02.51-.07.75-.15 .81-.28 1.09-.766 1.12-.99V7.48c-.09-.05-.18-.08-.27-.1v0c.18-.04.36-.08.53-.14 .75-.31 1.07-1.07 1.09-1.12v0c.15-.05.3-.12.44-.19Zm-1.28.5v0c.07 0 .15 0 .22.01 .03.02-.29.56-.82.766 -.53.2-1.01.21-1.08.17 -.06-.04.49-.66.93-.83v0c.23-.09.47-.13.72-.13Zm-2.468.1c.05-.01.21.66 0 .984 -.39.58-.42.37-.84.94 -.03.02-.03-.75.125-1.08 .24-.54.65-.85.7-.86Zm-9.36.82l-.06.02v0c-.02.04-.04.08-.06.12v0c-.02.02-.01.05.01.06 0 0 .01 0 .01 0l1.2.17c.02 0 .04-.02.04-.04l.07-.12 -.001 0c.01-.03 0-.06-.02-.07 -.01-.01-.02-.01-.02-.01Zm10.289.23l-.001-.001c.16 0 .32.02.47.06 .05.02-.32.57-.88.742 -.56.17-1.11.14-1.1.11 .01-.04.46-.68.92-.835v0c.18-.06.37-.09.57-.09Zm-2.16.01c.06-.02.19.65-.05 1.06 -.2.34-.38.26-.71.76 -.04.04-.13-.42.08-1.04v0c.11-.34.35-.62.67-.79Zm6.96.67c.03 0 .06.03.03.1 -.12.33-1.04.62-1 .4 .04-.23 0-.26.06-.27 .06-.02.4-.13.85-.24V8.34c.01-.01.02-.01.03-.01Zm-1.37.31c.03 0 .05 0 .05.01 .03.09-.21.68-.54.8 -.34.11-.54.1-.53.04l0 0c.04-.16.06-.31.05-.47 -.02-.12.73-.39.95-.4Zm1.28.18l0-.001c.04-.01.08.02.09.06 .42 1.01.59 1.29.56 1.8 -.04.51.99 2.45 1.07 2.64 .08.18.09.38 0 .48 -.38.33-.95.35-1.18.56 -.23.2-.17.28-.05.59 .12.31.125.19-.13.26 -.26.06-.47.66-1.01.56 -.21-.04-.06.09.02.1 .29.03.42-.06.52-.16 .1-.11.25-.28.41-.34 .16-.06.33-.06.34.06 .01.12-.22.24-.31.28 .11.05.44.21.16.41 -.29.19-.53-.06-.56-.08 -.04-.03-.2-.03-.15.03 .04.05.59.14.51.25 -.4.53-.07.85-.2 1.4 -.13.54-.88.85-1.47.96 -1.99.35-3.92-1.33-5.051-2.61 .1-.24.09-.548-.02-.44 -.11.11-.08.27-.32.33 -.45.11-.65-.68-.79-.81 -.55-.54-.766-1.31-.45-1.98 .32-.68 1.029-.54 1.3-.13 .27.41.19.8.38.94 .19.14.55.02.61 0 .06-.03.19.49.91.46 .72-.03.67-1.23.78-1.33 .98-.96.48-1.82.29-2.02 -.19-.2.11-.42.17-.43v0c.48-.1.88-.43 1.07-.88 0 0 .96-.03 1.3-.71 .09-.19.37.17 1.01-.34v0c.01-.03.04-.04.06-.04Zm-8.085.01c.13-.05.18.65-.02 1.09 -.21.44-.34.45-.58.73 -.04.04-.21-.43-.05-1.01 .16-.59.45-.64.6-.8H9.96c0-.01.01-.02.02-.02Zm1.82.02c.24 0 .44.07.53.08 .13.01-.15.51-.76.73 -.61.21-1.029.2-1.109.17 -.03-.03.38-.72.84-.91v0c.15-.07.31-.09.48-.09Zm-8.22.22v0c-.01-.01-.01-.01-.01 0l-1.24.11 -.05.03 -.04.13c0 .03.02.07.05.05l1.22-.12v0c.01 0 .03-.02.03-.04 0-.01 0-.01 0-.01v0c.01-.05.03-.09.04-.125v0c.01-.03 0-.05-.02-.07 -.01-.01-.02-.01-.03-.01Zm11.8.2c.03 0 .04.03.05.08v0c.01.31-.1.62-.3.85 -.27.28-.53.26-.67.29 -.14.03-.1.26-.28.38 -.26.17-.61-.06-.54-.16l0-.001c.35-.5.8-.93 1.31-1.26 .24-.15.35-.22.4-.21Zm-6.622.72c.09 0 .24.36.24.67v0c0 .11-.02.23-.05.34 -.15.49-.45.7-.61.92v0c-.11-.21-.17-.44-.19-.67H8.18c0-.5.22-.96.59-1.28Zm2.106.1v0c.09-.01.19 0 .29.02 .03.03-.22.62-.75.85v0c-.38.15-.78.22-1.18.2 -.04-.03.5-.74.96-.95v0c.21-.09.43-.14.66-.14Zm6.61.03c-.56.02-1.22.7-1.42.8 -.21.09-.15.17-.03.125 .12-.05.67-.54 1.22-.74 .54-.2.41.2.57.18 .16-.03-.04-.39-.36-.38Zm-14.262.54l0-.001c-.01 0-.02 0-.03 0l-1.19.41c-.03.01-.04.02-.04.04s-.02.09-.02.13v0c-.01.02.01.04.04.05 0 0 .02-.01.02-.01l1.177-.42v0c.01 0 .03-.02.03-.04 0-.05.01-.11.01-.15 0-.04-.02-.05-.04-.05Zm14.38 0c-.05.01.04.25-.2.26 -.53.03-.95.53-1.27.68v0c-.14.07-.29.12-.44.16h-.001c-.02 0-.03.02-.03.04 0 .01.01.02.03.02 1.33.18 1.85.12 1.86.08 .01-.05-.07-.14-.05-.2v0c.05-.21.05-.43.01-.63 -.03-.09.2-.04.2-.15 0-.12-.07-.3-.15-.29Zm-.3.53v0c.04-.01.08.02.09.06v0c.02.15.02.3 0 .45 -.03.1-.63.05-.95.02 -.08 0-.21-.02.03-.16 .24-.15.46-.32.82-.39Zm-3.85 0c.12.01.24.16.24.34 .03.41-.21.64-.45.82 -.24.18-.36.5-.3.58v0c.08.03.18-.02.21-.11 .17-.38.68-.56.766-.766 .08-.21.03-.51.02-.64 -.02-.14.1-.14.18-.125 .08.01.16.16.2.3 .33.85-.5 1.37-.63 1.577 -.14.2.125.78-.23 1 -.46.28-.71-.26-.78-.36v0c-.08-.11-.1-.24-.06-.36 .03-.16.05-.38-.05-1.07 -.05-.31.57-1.06.72-1.189V11.2c.03-.04.07-.05.11-.05Zm-5.86.16c.05.2.42.36.42.74v0c-.02.47-.23.92-.59 1.234v0c-.15-.27-.24-.57-.26-.87 -.03-.72.274-.98.41-1.11Zm2.28.04v0c.06 0 .13 0 .19.01 .03.01-.21.61-.71.86 -.51.25-1.18.28-1.154.22 .02-.05.4-.74.84-.94v0c.25-.12.53-.18.82-.17Zm-6.738.875v0c-.01-.01-.02 0-.03 0l-1.08.72c-.03 0-.03.02-.03.04s.01.09.01.13v0c0 .03.04.04.07.03 0-.01 0-.01 0-.01l1.07-.71c.01-.02.02-.03.01-.04v-.15 0c-.01-.03-.03-.05-.06-.05Zm9.195.43h0c.02-.01.05.01.06.04 .06.46 0 1.12-.42 1.02 -.12-.03-.16-.24-.14-.34 .02-.1.35-.6.45-.74v-.001c0-.01.02-.02.03-.02Zm-3.26.01v-.001c.07-.01.15 0 .23.01 .05.02-.2.64-.67.86 -.47.22-.75.1-1.23.25 .03-.18.34-.75.81-.95v0c.26-.12.55-.19.84-.19Zm-2.44.09c.2.1.44.38.46.93 .02.548-.37.99-.53 1.07 -.11-.43-.3-.51-.3-.92h0c.01-.4.13-.78.35-1.1Zm4.15.22c-.35.01-.57.51-.52 1.04l0-.001c.01.36.24.68.58.81 .26.09.06.45.42.45 .16 0 .19-.24.1-.28 -.08-.04-.06.13-.16.11 -.11-.03-.03-.15-.21-.35 -.19-.2-.32-.14-.5-.42 -.18-.28-.04-1.38.35-1.24 .38.13.18.57.11.91 -.07.34.28.32.32.24 .03-.08-.13-.11-.16-.22 -.04-.12.4-.87-.21-1.08v0c-.06-.02-.11-.03-.16-.03Zm7.24.09v-.001c-.04 0-.07.03-.07.06v0c-.02.2-.04.4-.08.6 -.05.2.13.45.41.3 .27-.15.54-.33.83-.39 .06-.02.08-.12.01-.12 -.11 0-.52.18-.68.28 -.16.1-.51.3-.48-.1 .01-.15.1-.51.1-.61 0-.06-.03-.08-.06-.07Zm-14.64.77v0c-.02 0-.03 0-.04.01l-.88.97c-.02.01-.03.03-.02.04h0c.02.04.03.09.04.13v0c0 .02.02.04.05.03 .01-.01.02-.01.02-.02l.86-.96c.01-.02.01-.03.01-.05l-.04-.15 -.001-.001c-.01-.03-.03-.04-.05-.04Zm4.97.14l0-.001c.07-.01.15-.01.22.01 .02.02-.18.67-.68.93 -.51.26-1.09.3-1.15.24 -.06-.07.17-.78.69-1.01 .32-.15.67-.19.89-.19Zm-2.53.26c.1.01.59.41.6.99v-.001c-.01.38-.14.75-.39 1.05 -.15-.14-.47-.5-.51-.95v-.07c0-.5.21-.99.274-1.029 0-.01.01-.01.01-.01Zm1.98 1.07c.13 0 .21.01.2.03 -.04.03-.21.66-.71.91h0c-.31.17-.66.22-1 .14 .26-.3.2-.74.64-.94 .27-.13.63-.16.86-.16Zm-3.87.13v0c-.02 0-.04 0-.05.02l-.617 1.17c-.02.01 0 .03 0 .04l.08.13h0c.01.02.04.02.06 0 0-.01.01-.02.01-.03l.617-1.17c0-.02.01-.03 0-.05l-.07-.14H3.98c-.02-.02-.03-.03-.05-.03Zm7.66.82c.01 0 .03.01.04.02 1.78 1.93 2.91 2.31 3.532 2.49 .05.02.04.09.02.16 -.29 1-.44 1.4 0 2.503 .05.14.1.26-.03.24 -.88-.16-1.08-.3-3.86-.07 -.2.02.06-.39.03-.67 .25-.04.66-.15.74-.56 .08-.42-.24-.87-.21-.94 .4-.77-.03-1.62-.36-3.04 -.03-.11.01-.16.05-.16Zm-6.873.5c-.02 0-.04.01-.04.03l-.34 1.37c-.02.02 0 .03 0 .04l.11.11h0c.01.02.04.02.06 0 0-.01.01-.02.01-.03l.32-1.36c.01-.02 0-.03 0-.04l-.11-.14 -.001 0c-.02-.02-.04-.03-.05-.02Zm2.489 2.85c.05 0 .11.04.15.08 .11.11-.08.32-.11.49 -.08.02-.34.03-.274-.31 .03-.22.13-.28.22-.27Zm1.58.09c.15-.01.3.04.29.12 -.04.49-.24 1.05.13 1.61 .14.21-.6.25-.74-.32 -.1-.43-.13-1.15.04-1.314v0c.06-.07.15-.1.25-.11Zm.96.04c.2-.01.47.02.54.05 .11.03-.1.77.77 1.12 .08.03-.02 1-1.28.68 -.19-.05-.69-.85-.28-1.81 .01-.04.11-.05.23-.05Zm1.93.01c.23.03.23.74-.12.86 -.68.22-.95-.56-.84-.74 .11-.18.5.11.83-.11v0c.03-.03.07-.04.11-.04Zm-3.78.07c.12-.01.24.02.25.08 .01.12-.13.61.03 1.16 -.04.08-.53.04-.67-.32 -.07-.31-.05-.72.05-.84 .05-.06.19-.1.32-.1Z"/></svg>