<svg viewBox="0 0 24 24" xmlns="http://www.w3.org/2000/svg"><path d="M22.167 9.864c-.72 0-1.2.19-1.52.46 -.65.55-.65 1.37-.65 1.62 0 .29.02 1.28.61 1.78 .33.28.72.39 1.31.39 .62 0 .96-.41.96-.41h.02s.06.1.17.19c.1.08.25.16.25.16h.35s-.03-.25-.03-.72v-.67c0-.1.02-.16.08-.2v0c.07-.05.15-.07.23-.08v-.31h-1.81v.31c.06 0 .27 0 .34.05 .07.04.15.09.15.26v.41c0 .13.03.266.03.266 -.23.21-.74.24-.96.16 -.35-.13-.532-.33-.532-1.64 0-.36-.03-1.08.28-1.41 .17-.2.47-.23.67-.23 .38 0 .62.11.79.47 .07.15.24.56.24.56h.32L23.4 9.99c-.21-.09-.57-.21-1.346-.21ZM.01 9.894v.34c.42 0 .58.07.58.28v2.843c0 .13-.05.23-.15.29 -.1.05-.25.08-.447.08v.34h1.56v-.35c-.21 0-.35-.03-.43-.09 -.09-.06-.125-.16-.125-.3v-2.7h.03l1.19 3.436h.57l1.04-3.44h.04v2.776c0 .1-.02.21-.12.26 -.08.04-.274.04-.36.04v.34h3.52v-.35c-.09 0-.33-.02-.42-.06 -.1-.04-.22-.16-.09-.58l.14-.47h1.303l.12.38c.15.46.19.59.07.66 -.11.05-.31.05-.39.05V14H9.71v-.35c-.05-.01-.16 0-.26-.07 -.12-.1-.18-.27-.22-.37l-.001 0c-.32-.94-.61-1.89-.88-2.84h0c-.06-.2-.11-.39-.16-.58h-1.13l-1.03 3.099c-.08.24-.18.47-.28.6 -.12.14-.3.15-.42.15 -.28 0-.38-.05-.38-.31v-2.92c0-.21.16-.29.58-.29v-.35H3.53l-.75 2.62h-.04l-.88-2.63Zm9.229 0v.34c.14 0 .26.01.33.04v0c.07.04.13.11.17.19l0-.001c.35.73.69 1.48 1.02 2.23v.75 0c0 .05-.01.1-.04.14v0c-.03.04-.07.07-.12.08v-.001c-.07.02-.14.03-.21.04l-.001 0c-.1 0-.19.01-.29.01v.34h2.28v-.36 0c-.05-.01-.1-.01-.14-.01h0c-.08-.01-.15-.02-.22-.05h0c-.05-.02-.09-.05-.12-.09v0c-.03-.05-.04-.1-.04-.15v-.85l.81-1.78c.06-.15.16-.37.26-.44 .09-.07.21-.07.41-.07 .3-.01.35.04.4.1 .04.05.05.18.05.36v2.66c0 .09-.06.17-.16.21v0c-.13.04-.27.06-.41.06v.35h2.27v-.36 0c-.14 0-.28-.03-.41-.07 -.11-.05-.16-.12-.16-.22v-2.67c0-.18 0-.31.04-.36 .04-.07.1-.11.4-.11 .24 0 .33 0 .41.06 .12.09.21.31.27.45l.17.38h.29l-.07-1.35H11.85v.34c.13 0 .27.02.31.11 .05.125-.02.39-.17.78 -.23.56-.39.95-.39.95h-.04l-.57-1.23c-.14-.29-.2-.47-.2-.53 0-.06.01-.11.33-.11V9.7Zm8.3 0l-1.029 3.099c-.08.24-.17.44-.28.57v0c-.08.09-.2.16-.33.17v.359h1.42v-.35c-.09 0-.33-.02-.42-.06 -.1-.04-.22-.16-.09-.58l.14-.47h1.3l.12.38c.15.46.19.59.07.66 -.11.05-.31.05-.39.05v.34h2.06v-.35c-.05-.01-.16 0-.26-.07 -.12-.1-.18-.27-.22-.37v-.001c-.32-.94-.61-1.89-.88-2.84 -.07-.24-.12-.43-.16-.58Zm-10.25.66h.02l.47 1.76h-1.08Zm10.39 0h.02l.47 1.76h-1.08Z"/></svg>