<svg viewBox="0 0 24 24" xmlns="http://www.w3.org/2000/svg"><path d="M19.06 11.713c3.3-2.14 7.74-2.208 2.564 1.24l.08-.11c1.46-2.016-1.53-1.57-2.58-1.17l-.07.02Zm-12.1 1.52h1.39v.54H6.73c-.69 0-.99-.21-.99-.76v-.13c0-.47.274-.77.96-.77h1.646v.54H6.947v0c-.14 0-.25.11-.25.24v.06 0c0 .13.11.23.24.23Zm2.63-1.38v1.37h.82v.54H8.49v-1.92h1.09Zm-5.2.24c.19-.16.42-.25.67-.25h.54v1.92H4.5v-.96l-1.056.96h-1.01v-.96l-1.23.96H-.05l2.18-1.65c.2-.16.34-.28.69-.28h.68v.96l.83-.72Zm9.31.2v0c-.01-.18.14-.32.31-.32 0-.01.01 0 .02 0h1.3v.54h-.69v1.234h-.96v-1.47Zm6.43-.32c.82 0 1.11.17 1.11.782v1h-.96v-.69 0c0-.23-.19-.42-.42-.42h-.42v1.09h-.96v-1.79h1.63Zm-7.487 0c.63 0 .91.26.91.69v.41c0 .5-.29.67-.99.67h-1.09c-.4 0-.69-.05-.84-.18v0c-.08-.09-.12-.21-.11-.32v-.07c0-.28.16-.54.68-.54h1.234c0-.13.01-.14-.14-.14h-1.65v-.55h1.96Zm-.18 1.16v-.07h-.76v0c-.04 0-.07.04-.06.08 0 .02.02.05.05.05h.68v-.001c.03 0 .06-.04.06-.07 0-.01-.01-.01-.01-.01Zm5.02-1.17c.72 0 .87.21.87.52v.06c0 .32-.27.5-.69.5h-1.24c0 .12.12.13.27.13h1.5v.54h-1.88c-.59 0-.87-.25-.87-.7v-.32c0-.53.28-.77.94-.77h1.05Zm-.16.68v-.001c.03-.01.06-.05.05-.09 -.01-.03-.03-.06-.06-.06h-.83v0c-.04 0-.07.03-.07.06v.06h.89Z"/></svg>