<svg viewBox="0 0 24 24" xmlns="http://www.w3.org/2000/svg"><path d="M22.77 5.343c.02.33 0 .61-.08.81L18.376 20.38c-.08.25-.24.44-.51.6v0c-.25.14-.53.22-.81.23H3.74c-1.16 0-1.84-.34-2.079-1.01 -.1-.27-.1-.47.01-.625 .1-.15.28-.22.55-.22h12.52c.89 0 1.51-.17 1.85-.5 .33-.33.68-1.07 1.03-2.21l3.95-13.05c.21-.71.12-1.334-.27-1.875 -.39-.54-.94-.82-1.65-.82H8.68c-.12 0-.38.04-.734.13l.01-.05v0C7.73.92 7.5.89 7.27.9V.89c-.19 0-.37.06-.52.16V1.05c-.15.09-.28.2-.39.33 -.1.12-.18.26-.28.45l0-.001c-.09.16-.17.34-.23.51v0c-.07.17-.14.33-.22.5 -.09.18-.16.32-.24.44 -.06.07-.15.18-.24.3 -.1.121-.2.24-.27.33l0-.001c-.07.07-.11.16-.14.26 -.03.08-.02.21.02.38 .03.16.04.28.04.37 -.04.36-.17.82-.4 1.39 -.23.56-.44.97-.613 1.213L3.78 7.52c-.1.11-.21.22-.32.32 -.17.16-.28.31-.32.44 -.04.04-.04.18-.02.4 .03.21.04.37.03.45 -.04.32-.16.75-.36 1.298H2.79c-.17.45-.37.89-.61 1.32 -.03.06-.11.16-.24.33 -.133.16-.22.3-.24.4 -.03.07-.02.21.01.4 .02.19.02.33-.02.43 -.08.36-.22.8-.44 1.32 -.22.516-.44.94-.65 1.32 -.06.09-.131.2-.24.33 -.1.13-.18.24-.24.33H.12c-.06.09-.1.19-.12.3l0-.001c-.01.09 0 .19.04.27 .03.13.04.22.04.31 -.02.13-.03.31-.06.52 -.03.21-.05.34-.05.38 -.22.57-.21 1.19.02 1.82 .264.74.745 1.38 1.43 1.89 .68.51 1.406.76 2.13.76h13.3c.625 0 1.21-.21 1.76-.625 .55-.42.92-.94 1.1-1.55l3.96-13.05c.21-.7.12-1.31-.27-1.862 -.21-.3-.48-.51-.86-.649ZM7.16 15.677l1.7-5.15h1.29c.45 0 3.46-.21 3.05 2.1 -.41 2.3-2.26 3.02-4.43 3.05 -2.162.02-1.64-.02-1.64-.02Zm2.28-.73c.56-.02 2.27-.35 2.65-2.06 .38-1.71-1.39-1.61-1.39-1.61H9.63l-1.23 3.66c.01.01.46.01 1.02 0Zm-.4-5.78l1.64-5.11h1.17l.09 4.086 2.83-4.086h1.19l-1.64 5.1h-.86l1.5-4.253 -2.95 4.253h-.82l-.1-4.205L9.79 9.15Z"/></svg>