<svg viewBox="0 0 24 24" xmlns="http://www.w3.org/2000/svg"><path d="M11.13 7.17c-.5.42 2.94-.46 2.6 1.23 -.34 1.63-3.62-.35-7.223-.18 -1.6.07-3.054.53-3.985 1.66 .97-1.11 2.9-.85 2.39-.09 -1.18 1.77-3.38.49-4.92 3.97 .185-.4.68-1.2 2.843-1.53 1.58-.25 4.21-.02 5.05 1.29 .92 1.44-3.76 1.28-1.17 1.57 3.59.4 6.299 3.31 9.81 3.31 4.55 0 7.42-2.33 7.45-6.15 .06-6.93-9.11-8.32-12.87-5.14Zm6.76 7.554c-1.2-.04-2.41-.52-3.37-.98 -2.365-1.16-3.34-1.56-3.34-1.61 0-.07 1.42.48 3.81-.79 1.38-.74 1.43-1.38 2.89-1.51 1.73-.16 2.96 1.13 2.96 2.47 0 1.34-1.23 2.45-2.97 2.404Z"/></svg>