<svg viewBox="0 0 24 24" xmlns="http://www.w3.org/2000/svg"><path d="M6.98.55v0c-.04 0-.08 0-.11.01v0c-.29.06-.48.34-.41.63 .06.28.34.47.63.4v0c.28-.07.47-.35.4-.64V.94C7.43.69 7.21.51 6.96.52Zm6.455.63h0c-.19-.01-.36.04-.52.14v0c-.47.28-.63.89-.34 1.35 .28.46.89.62 1.35.33v0c.46-.29.62-.89.34-1.36 -.01-.01-.01-.01-.01-.01v0c-.18-.3-.5-.49-.85-.49ZM10.4 3.41V3.4c-2.08.01-3.94 1.3-4.67 3.24v0c-.53.06-1.03.25-1.46.55v0c-1.49 1.02-1.9 3.03-.94 4.56v-.001c-1.31 1.19-1.57 3.15-.61 4.64l0 0c.55.85 1.45 1.43 2.46 1.59 .01.73.23 1.46.68 2.11H5.86c1.22 1.77 3.65 2.21 5.42.99 .06-.05.12-.11.18-.16 .98.88 2.47 1.02 3.6.24v0c.57-.41.99-1.01 1.16-1.69v0c.91.04 1.82-.22 2.58-.74v0c1.88-1.31 2.4-3.86 1.19-5.789v0c.98-.83 1.16-2.27.43-3.308v0c-.33-.46-.79-.79-1.32-.94v0c.07-1.02-.2-2.04-.78-2.88v0c-1.16-1.67-3.29-2.35-5.2-1.66v0c-.83-.54-1.8-.82-2.78-.81ZM4.8 4.22v0c-.16 0-.3.04-.43.13v0c-.35.23-.44.71-.2 1.05 .23.34.71.43 1.05.19 0-.01 0-.01 0-.01v0c.34-.24.43-.71.19-1.06 -.01-.01-.01-.01-.01-.01v0c-.15-.21-.39-.34-.64-.33Zm15.99 2.37v0c-.17 0-.34.05-.47.15V6.73c-.39.26-.49.79-.22 1.17 .26.38.79.48 1.17.21 .38-.27.48-.8.21-1.18 -.01-.01-.01-.01-.01-.01v0c-.16-.24-.43-.37-.71-.37Zm-8.15 1.02c.06 0 .12 0 .18.01v0c.16.01.32.08.45.18 .16.13.27.24.43.39 .24.22.41.08.53.02 .2-.13.36-.22.984-.21 .63.01 1.36.23 1.51 1.31 .16 1.19-1.97 4.289-1.82 5.72 .1 1.01 1.81.29 1.96 1.22 .18 1.19-2.14.75-2.67.49 -.84-.41-1.34-1.34-1.12-2.26 .16-.69 1.7-3.5 1.75-3.93 .05-.44-.18-.48-.33-.484 -.19-.01-.34.08-.53.36 -.17.25-2.09 4.08-2.25 4.398 -.3.56-.67.69-1.05.67 -.548-.03-.798-.32-.72-.85 .04-.31 1.26-3.05 1.32-3.48 .03-.27-.02-.55-.28-.68 -.27-.14-.58.07-.67.22 -.13.21-1.85 4.7-2.032 5.038 -.32.57-.65.76-1.16.78 -1.186.05-2.07-.92-1.678-2.12 .17-.532 1.31-4.58 1.89-5.599 .38-.69 1.468-1.22 2.21-.9 .38.16.92.43 1.08.5 .36.16.75-.28.91-.42 .15-.14.3-.28.49-.36 .14-.06.34-.1.532-.1Zm10.88 2.05v0c-.04 0-.07 0-.1.01v0c-.26.05-.42.3-.37.55 0 0 0 0 0 0v0c.05.25.3.41.55.36v-.001c.25-.06.41-.31.36-.56v0c-.05-.22-.25-.38-.47-.37ZM1 10.47H1c-.34-.01-.65.15-.84.43h0c-.32.45-.2 1.07.25 1.39 .45.31 1.07.19 1.39-.26 .31-.46.19-1.08-.26-1.4 -.01-.01-.01-.01-.01-.01h0c-.17-.12-.36-.18-.56-.18Zm21.294 2.09v-.001c-.05 0-.09 0-.13.01v0c-.34.07-.56.4-.49.74 0 0 0 0 0 0h-.001c.07.33.4.55.74.48 0-.01 0-.01 0-.01v0c.33-.08.55-.41.48-.75 -.01-.01-.01-.01-.01-.01v0c-.07-.3-.33-.5-.63-.5ZM4.05 18.65v0c-.04 0-.07 0-.1.01H3.95c-.26.05-.42.3-.36.55 .05.25.3.41.55.35 0-.01 0-.01 0-.01h0c.25-.06.41-.31.35-.56 -.01-.01-.01-.01-.01-.01v0c-.05-.22-.24-.37-.46-.37ZM17.73 20.2v0c-.21 0-.42.06-.59.18v0c-.48.32-.6.98-.27 1.45 .32.47.98.59 1.45.26 .47-.33.59-.99.26-1.46 -.01-.01-.01-.01-.01-.01h0c-.2-.29-.53-.46-.88-.46Zm-6.34 1.9v-.001c-.13 0-.26.04-.36.11l0-.001c-.3.2-.37.6-.17.89 0 0 0 0 0 0v0c.2.29.6.36.89.16 0-.01 0-.01 0-.01h-.001c.29-.21.36-.61.16-.9H11.9c-.13-.18-.33-.29-.54-.28Z"/></svg>