<svg viewBox="0 0 24 24" xmlns="http://www.w3.org/2000/svg"><path d="M5.385 6.136c0 .8-.65 1.46-1.44 1.46 -.8 0-1.44-.66-1.44-1.47 0-.81.64-1.47 1.43-1.47 .79 0 1.43.65 1.43 1.46Zm-1.44 2.63c-.794 0-1.44.65-1.44 1.46 0 .8.64 1.46 1.43 1.46 .79 0 1.43-.66 1.43-1.47 0-.81-.65-1.47-1.44-1.47Zm5.46-2.63c0 .8-.65 1.46-1.44 1.46 -.8 0-1.44-.66-1.44-1.47 0-.81.64-1.47 1.43-1.47 .79 0 1.43.65 1.43 1.46Zm-.35 0c0-.62-.49-1.12-1.09-1.12 -.6 0-1.09.49-1.09 1.11 0 .61.48 1.11 1.08 1.11 .6 0 1.08-.5 1.08-1.12Zm-1.09 5.592c.79 0 1.43-.66 1.43-1.47 0-.81-.65-1.47-1.44-1.47 -.8 0-1.44.65-1.44 1.46 0 .8.64 1.46 1.43 1.46Zm5.46-5.592c0 .8-.65 1.46-1.44 1.46 -.8 0-1.44-.66-1.44-1.47 0-.81.64-1.47 1.43-1.47 .79 0 1.43.65 1.43 1.46Zm-.35 0c0-.62-.49-1.12-1.09-1.12 -.6 0-1.09.49-1.09 1.11 0 .61.48 1.11 1.08 1.11 .6 0 1.08-.5 1.08-1.12Zm.35-4.675c0 .8-.65 1.46-1.44 1.46 -.8 0-1.44-.66-1.44-1.47 0-.81.64-1.47 1.43-1.47 .79 0 1.43.654 1.43 1.46Zm-.35 0c0-.62-.49-1.12-1.09-1.12 -.6-.001-1.09.49-1.09 1.11 0 .613.48 1.11 1.08 1.11 .6 0 1.08-.5 1.08-1.111Zm.35 8.8c0 .8-.65 1.46-1.44 1.46 -.8 0-1.44-.66-1.44-1.47 0-.81.64-1.47 1.43-1.47 .79 0 1.43.65 1.43 1.46Zm-.35 0c0-.62-.49-1.12-1.09-1.12 -.6 0-1.09.49-1.09 1.11 0 .61.48 1.11 1.08 1.11 .6 0 1.08-.5 1.08-1.12Zm4.37-4.131c0 .8-.65 1.46-1.44 1.46 -.8 0-1.44-.66-1.44-1.47 0-.81.64-1.47 1.43-1.47 .79 0 1.43.65 1.43 1.46Zm-.35 0c0-.62-.49-1.12-1.09-1.12 -.6 0-1.09.49-1.09 1.11 0 .61.48 1.11 1.08 1.11 .6 0 1.08-.5 1.08-1.12Zm2.939 1.46c.79 0 1.43-.66 1.43-1.47 0-.81-.65-1.47-1.44-1.47 -.8 0-1.44.65-1.44 1.46 0 .8.64 1.46 1.43 1.46ZM16 8.79c-.8 0-1.44.65-1.44 1.46 0 .8.64 1.46 1.43 1.46 .79 0 1.43-.66 1.43-1.47 0-.81-.65-1.47-1.44-1.47Zm4.02 0c-.8 0-1.44.65-1.44 1.46 0 .8.64 1.46 1.43 1.46 .79 0 1.43-.66 1.43-1.47 0-.81-.65-1.47-1.44-1.47ZM3.91 12.84h0c-.81 0-1.45.66-1.44 1.46 0 .8.64 1.46 1.43 1.46 .79 0 1.43-.66 1.43-1.47v0c0-.81-.64-1.46-1.44-1.47Zm5.465 1.5c0 .8-.65 1.46-1.44 1.46 -.8 0-1.44-.66-1.44-1.47 0-.81.64-1.47 1.43-1.47 .79 0 1.43.65 1.43 1.46Zm-.35 0c0-.62-.49-1.12-1.09-1.12 -.6 0-1.09.49-1.09 1.11 0 .61.48 1.11 1.08 1.11 .6 0 1.08-.5 1.08-1.12Zm2.93-1.47c-.8 0-1.44.65-1.44 1.46 0 .8.64 1.46 1.43 1.46 .79 0 1.43-.66 1.43-1.47 0-.81-.65-1.47-1.44-1.47Zm5.46 1.46c0 .8-.65 1.46-1.44 1.46 -.8 0-1.44-.66-1.44-1.47 0-.81.64-1.47 1.43-1.47 .79 0 1.43.65 1.43 1.46Zm-.35 0c0-.62-.49-1.12-1.09-1.12 -.6 0-1.09.49-1.09 1.11 0 .61.48 1.11 1.08 1.11 .6 0 1.08-.5 1.08-1.12ZM20 12.86c-.8 0-1.44.65-1.44 1.46 0 .8.64 1.46 1.43 1.46 .79 0 1.43-.66 1.43-1.47 0-.81-.65-1.47-1.44-1.47ZM3.89 16.91c-.8 0-1.44.65-1.44 1.46 0 .8.64 1.46 1.43 1.46 .79 0 1.43-.66 1.43-1.47 0-.81-.65-1.47-1.44-1.47Zm5.465 1.5c0 .8-.65 1.46-1.44 1.46 -.8 0-1.44-.66-1.44-1.47 0-.81.64-1.47 1.43-1.47 .79 0 1.43.65 1.43 1.46Zm-.35 0c0-.62-.49-1.12-1.09-1.12 -.6 0-1.09.49-1.09 1.11 0 .61.48 1.11 1.08 1.11 .6 0 1.08-.5 1.08-1.12Zm4.37 0c0 .8-.65 1.46-1.44 1.46 -.8 0-1.44-.66-1.44-1.47 0-.81.64-1.47 1.43-1.47 .79 0 1.43.65 1.43 1.46Zm-.35 0c0-.62-.49-1.12-1.09-1.12 -.6 0-1.09.49-1.09 1.11 0 .61.48 1.11 1.08 1.11 .6 0 1.08-.5 1.08-1.12Zm.35 4.09c0 .8-.65 1.46-1.44 1.46 -.8 0-1.44-.66-1.44-1.47 0-.81.64-1.47 1.43-1.47 .79 0 1.43.65 1.43 1.46Zm-.35 0c0-.62-.49-1.12-1.09-1.12 -.6 0-1.09.49-1.09 1.11 0 .61.48 1.11 1.08 1.11 .6 0 1.08-.5 1.08-1.12Zm4.37-4.1c0 .8-.65 1.46-1.44 1.46 -.8 0-1.44-.66-1.44-1.47 0-.81.64-1.47 1.43-1.47 .79 0 1.43.65 1.43 1.46Zm-.35 0c0-.62-.49-1.12-1.09-1.12 -.6 0-1.09.49-1.09 1.11 0 .61.48 1.11 1.08 1.11 .6 0 1.08-.5 1.08-1.12Zm2.939-1.47c-.8 0-1.44.65-1.44 1.46 0 .8.64 1.46 1.43 1.46 .79 0 1.43-.66 1.43-1.47 0-.81-.65-1.47-1.44-1.47Z"/></svg>