<svg viewBox="0 0 24 24" xmlns="http://www.w3.org/2000/svg"><path d="M0 .23l21.912 20.537s.41.57-.13 1.15c-.54.57-1.24.08-1.24.08L-.01.22Zm6.508 2.058l17.01 15.638s.41.57-.13 1.15c-.54.57-1.24.08-1.24.08L6.48 2.27ZM1.936 6.692l17.01 15.63s.41.57-.13 1.15c-.54.57-1.24.08-1.24.08L1.91 6.68Zm10.073-2.635l11.88 10.927s.28.4-.09.8c-.38.4-.87.05-.87.05L11.98 4.04Zm-8.567 7.737l11.88 10.92s.28.4-.09.8c-.375.4-.87.05-.87.05L3.42 11.776ZM17.622 6.6l5.42 4.95s.14.18-.05.37c-.19.18-.43.02-.43.02l-4.96-5.358v-.01ZM6.16 17.219l5.42 4.95s.14.18-.05.37c-.19.18-.43.02-.43.02l-4.956-5.36Z"/></svg>