<svg viewBox="0 0 24 24" xmlns="http://www.w3.org/2000/svg"><path d="M23.226 4.25c.21 0 .39.07.54.23 .15.15.23.33.23.54v13.93c0 .21-.08.39-.23.54 -.16.15-.34.23-.55.23h-9.3v3.96L-.02 21.24V2.75L13.91.24V4.2h9.29ZM8.613 14.907l-2.383-.17v-1.82H8.6v-1.96H6.23v-1.9h2.38v-1.95l-4.07.31v9.04l4.06.38v-1.96Zm14.613-9.89h-9.3v.77h.47c.08 0 .14.01.2.04 .17.11.2.17.42.36 .25.22.57.54.8.78 .11.11.17.18.17.21v0c-.02.06-.05.13-.09.19l0 0c-.13.2-.26.39-.4.58 -.07.08-.11.12-.12.12 -.04 0-.1-.04-.18-.12 -.16-.16-.33-.38-.51-.52 -.1-.08-.18-.12-.25-.12h-.532v3.37l1.64 1.6v.13l-.13.13c-.05.02-.08.06-.14.06h0c-.09-.03-.17-.06-.25-.11 -.35-.17-.85-.49-1.15-.68v4.75c.06 0 .13-.01.2-.02 .06-.02.12-.04.17-.08l-.001-.001c.18-.16.36-.33.532-.5 .35-.39 2.14-2.21 2.52-2.61 .03-.02.1-.02.13 0 .04.03.08.06.12.1v0c.04.03.06.08.06.14 0 .01-.03.07-.07.16v0c-.42.79-.89 1.54-1.41 2.26 -.36.48-.73.96-1.13 1.42 -.11.12-.23.28-.37.39 -.08.06-.15.11-.23.16 -.09.04-.16.06-.23.06h-.34v.77h9.29V4.86Zm-7.573 5.39c-.03-.05-.07-.08-.06-.14 0-.02.02-.07.07-.16 .12-.23.3-.59.42-.79 .29-.51.625-1.01.98-1.49 .35-.484.72-.952 1.1-1.41 .13-.133.23-.29.4-.45 .14-.14.28-.22.44-.22h3.03V5.74c.2-.02.38.14.39.34 0 .01 0 .03 0 .05v3.16c0 .16-.08.24-.17.36 -.19.21-.38.41-.58.61 -.2.19-.39.4-.58.61 -.12.05-.13.01-.28-.07V10.8c-.21-.13-.4-.26-.58-.41 -.09-.07-.13-.11-.13-.13 0-.04.03-.1.11-.18 .15-.16.37-.33.52-.51 .07-.1.11-.18.11-.25V7.4c0-.08-.1-.18-.17-.17h-1.43c-.11 0-.25.01-.33.09v0c-.19.15-.37.32-.532.49l-.5.52 -2.032 2.08h-.14l-.14-.12Zm2.31.9c.21.08.54.27.76.39 .6.32 1.11.67 1.67 1.08 .56.41 1.08.83 1.61 1.282 .19.16.42.39.43.65v3.03 0c.01.2-.15.38-.35.4 -.02 0-.04 0-.06 0h-3.17c-.17 0-.25-.08-.37-.17 -.43-.37-.8-.79-1.221-1.15v0c-.02-.03-.03-.06-.03-.09 0-.04.03-.1.09-.2 .11-.19.27-.42.4-.58 .06-.09.1-.13.12-.13 .04 0 .09.03.17.11 .16.15.32.37.5.52 .09.07.17.11.24.11h1.91c.07 0 .17-.1.17-.17v-1.43 0c-.01-.06-.01-.12-.02-.18l0-.001c-.02-.06-.04-.11-.08-.16v-.001c-.16-.19-.33-.37-.5-.54l-.52-.5 -2.09-2.04v-.14l.12-.14c.04-.03.08-.06.13-.06Z"/></svg>