<svg viewBox="0 0 24 24" xmlns="http://www.w3.org/2000/svg"><path d="M22.37 23.343v0c.89 0 1.62-.73 1.62-1.62 0-.18-.03-.36-.09-.53v0L17.33 1.74V1.74c-.23-.66-.84-1.11-1.54-1.11H8.15v0c-.7 0-1.32.44-1.54 1.1L.04 21.176H.04c-.29.84.16 1.76 1.01 2.05 .16.05.34.08.52.08h4.74v0c.69-.01 1.31-.45 1.53-1.11l.97-2.9 4.94 3.67c.28.2.61.32.96.32m-3.09-12.54l3.62 10.739v0c.09.28-.06.58-.34.68 -.06.01-.12.02-.18.02v-.01h-.03v0c-.12 0-.23-.04-.33-.11l-9.29-6.9H9.93m6.31 7c.11-.33.13-.7 0-1.06L9.67 1.65l0-.001c-.01-.01-.01-.02-.01-.02h6.03v0c.23-.01.43.14.51.36l6.56 19.44v0c.09.28-.06.58-.34.68"/></svg>