<svg viewBox="0 0 24 24" xmlns="http://www.w3.org/2000/svg"><path d="M4.72 2.5s-.08.12-.01.31c.04.11.18.25.34.4 0 0 1.61 1.57 1.81 1.8 .89 1.03 1.28 2.05 1.32 3.45 .02.9-.16 1.69-.58 2.61 -.76 1.64-2.35 3.468-4.81 5.49l.36-.12c.23-.18.548-.36 1.29-.766 1.713-.94 3.63-1.798 5.99-2.686 3.39-1.28 8.99-2.776 12.17-3.263l.33-.06 -.05-.08c-.3-.46-.49-.74-.73-1.03 -.7-.87-1.55-1.57-2.58-2.146 -1.43-.8-3.27-1.42-5.6-1.88V4.52c-.73-.14-1.46-.27-2.2-.375h-.001c-1.31-.21-2.62-.42-3.93-.64 -.43-.08-1.06-.19-1.49-.28v0c-.33-.07-.65-.16-.97-.26 -.27-.11-.65-.21-.726-.52Zm.93.9c0-.01.06.01.13.04 .13.04.31.1.52.15 .14.04.3.08.47.12 .21.05.399.1.4.1 .02.02.391 1.19.516 1.64 .04.17.08.31.08.31v0c-.04-.05-.07-.1-.09-.14 -.43-.75-1.1-1.505-1.88-2.116l0 0c-.07-.05-.12-.1-.18-.15Zm1.79.49c.01-.01.09.01.19.03 .61.13 1.72.35 2.43.47 .11.02.21.04.21.04l-.001-.001c-.03.02-.07.04-.1.06 -.12.06-.61.34-.77.45 -.41.27-.766.55-1.03.82v0c-.07.06-.13.12-.2.19 -.01 0-.03-.07-.05-.14v0c-.17-.61-.39-1.21-.65-1.779H7.46c-.03-.06-.06-.11-.08-.17 0-.01 0-.01 0-.01Zm3.14.59c.02 0 .06.13.12.4v0c.15.64.21 1.31.15 1.97l-.02.03 -.19-.06c-.39-.13-1.02-.31-1.57-.46l-.001 0c-.19-.05-.38-.11-.56-.17 0-.03.44-.48.64-.65 .36-.33 1.362-1.1 1.39-1.09Zm.25.03c.01-.01 1.5.24 2.18.37 .5.09 1.237.25 1.28.26 .02 0-.06.05-.3.16 -.96.43-1.68.82-2.38 1.29 -.19.12-.35.22-.35.22 -.01 0-.01-.11-.01-.23 0-.69-.14-1.39-.391-1.976v0c-.02-.04-.04-.08-.05-.12Zm3.86.76c.01.01-.04.3-.08.48 -.14.54-.49 1.34-.92 2.099v0c-.05.08-.1.16-.16.24v0c-.08-.04-.15-.08-.22-.12 -.43-.25-.9-.48-1.43-.7v-.001c-.1-.04-.19-.08-.28-.12 -.03-.03 1.14-.8 1.76-1.17 .49-.3 1.29-.75 1.3-.73Zm.27.04c.03 0 .69.18 1.03.28 .85.25 1.83.61 2.47.9l.26.12 -.19.04c-1.57.36-2.9.77-4.19 1.29 -.11.04-.2.08-.21.08v0c.01-.07.04-.13.07-.19 .38-.83.63-1.69.7-2.42 0-.07.01-.13.02-.13ZM8.38 6.82c.01-.01.51.1.78.18 .41.11 1.29.41 1.29.43 0 0-.1.08-.22.18 -.48.39-.94.81-1.49 1.343v0c-.1.09-.21.19-.31.28 -.01 0-.01-.03-.01-.05 .08-.62.06-1.4-.05-2.2v0c-.02-.07-.02-.13-.02-.19Zm10.61.01s-.24.38-.39.6c-.22.31-.54.72-1.27 1.63l-.96 1.202v-.001c-.09.11-.18.22-.27.33 -.01 0-.05-.07-.11-.15v0c-.41-.61-.91-1.16-1.47-1.625v0c-.09-.08-.18-.15-.27-.22h-.001c-.03-.02-.06-.04-.08-.07 0-.01.61-.28 1.08-.47V8.05c.91-.37 1.83-.7 2.77-.99 .44-.14.91-.27.91-.27Zm.27.07v0c.07.02.14.05.2.1v0c.88.5 1.69 1.11 2.42 1.82 .19.19.66.68.66.68l-.37.02c-1.53.11-3.49.44-5.37.89 -.13.03-.24.05-.25.05 -.01 0 .13-.14.31-.32 1.1-1.07 1.61-1.734 2.2-2.94 .08-.18.16-.34.16-.35h0Zm-8.088.83c.05.01.52.23.87.4 .32.16.81.42.843.44 0 0-.17.09-.39.2 -.69.34-1.27.66-1.88 1.03 -.18.1-.32.19-.33.19 -.02 0-.01-.02.08-.2v0c.33-.63.58-1.31.73-2.01 .01-.07.03-.1.04-.1Zm-.48.08c.01.01-.12.46-.19.7h0c-.22.63-.5 1.23-.84 1.8l-.09.14 -.21-.2v0c-.2-.21-.43-.38-.68-.5v0c-.07-.03-.13-.07-.18-.11 0-.03.62-.593 1.09-1 .34-.29 1.064-.867 1.07-.86Zm2.888 1.18l.17.11c.4.26.88.61 1.25.92 .2.17.6.53.68.61l.04.04 -.3.08v-.001c-1.51.41-2.99.88-4.45 1.42 -.17.06-.31.11-.32.11 -.03 0-.05.01.33-.33 .96-.89 1.8-1.86 2.44-2.81Zm-.76.19s-.5.71-.79 1.1c-.36.47-.99 1.26-1.43 1.78h0c-.12.13-.23.26-.35.39 -.01 0-.02-.05-.02-.14 0-.44-.12-.91-.31-1.31 -.09-.17-.1-.21-.08-.23 .06-.07 1.12-.67 1.79-1.03 .45-.25 1.16-.61 1.17-.6Zm-4.59 1.125h-.001c.29.13.56.31.81.51 0 0-.09.08-.21.17 -.35.24-.87.64-1.173.88 -.32.25-.34.26-.3.2 .24-.37.36-.58.48-.84 .11-.24.22-.516.3-.76h-.001c.01-.07.04-.13.07-.19Zm1.22.96c.01-.01.04.02.13.17 .2.31.36.72.4 1.05l0 .07 -.5.19c-.89.34-1.72.68-2.266.94 -.16.07-.43.2-.61.29 -.18.09-.33.16-.33.15 0-.01.11-.09.25-.19 1.08-.79 2.02-1.654 2.73-2.519 .07-.1.14-.18.15-.18v0c0-.01 0-.01 0-.01Zm-.57.14c.01.01-.41.484-.69.77 -.7.71-1.396 1.27-2.26 1.82 -.11.06-.21.13-.22.13 -.03.01 0-.03.38-.44 .23-.26.42-.48.62-.75 .13-.18.16-.21.36-.35 .53-.39 1.76-1.221 1.78-1.21ZM9.87-.07c-.08-.01-1.38.45-2.2.79 -1.13.45-2 .894-2.534 1.27 -.2.14-.46.39-.49.49v0c-.02.03-.03.08-.03.12l.48.46 1.15.37 2.75.49 3.15.54 .03-.27 -.03-.01 -.42-.07 -.09-.15h-.001c-.43-.76-.83-1.54-1.18-2.33l-.001-.001c-.21-.48-.39-.97-.53-1.47 -.07-.25-.08-.26-.12-.27ZM9.8.11h0s.01.1.03.225c.06.508.17 1 .35 1.53 .13.4.13.377-.03.33 -.37-.11-2.032-.39-3.234-.56L6.91 1.63c-.12-.02-.24-.04-.36-.06 -.02-.02.867-.48 1.258-.66C8.31.67 9.68.11 9.77.1ZM6.29 1.74l.14.04c.77.262 2.7.63 3.77.72 .12.01.22.02.22.02s-.1.05-.23.12c-.52.258-1.09.573-1.48.819 -.12.07-.22.13-.24.129v0c-.06-.01-.12-.02-.17-.03l-.15-.03 -.37-.355C7.13 2.55 6.63 2.07 6.44 1.89Zm-.15.11l.51.63c.28.35.56.69.62.774 .06.07.11.13.1.14 -.02.01-.74-.13-1.125-.22V3.17c-.28-.06-.54-.13-.81-.22l-.2-.07 0-.05c0-.25.31-.61.83-.976Zm4.35.869c.01 0 .03.03.07.13 .12.27.51 1.008.6 1.15 .03.04.08.05-.44-.04 -1.23-.2-1.63-.27-1.63-.28v0c.02-.03.05-.04.08-.06V3.62c.39-.23.76-.48 1.1-.77l.17-.15c0-.01.01-.01.01-.01Zm4.3 8.4l-4.808 1.56 -4.18 1.846 -1.17.31c-.3.28-.62.56-.95.86 -.37.32-.72.61-.98.82l0-.001c-.35.28-.67.6-.96.94 -.34.41-.6.85-.704 1.19 -.2.61-.11 1.22.28 1.79 .49.72 1.48 1.468 2.625 1.97 .585.25 1.57.58 2.31.77 1.23.31 3.614.65 4.92.7 .266.01.62.01.63-.01 .02-.02.23-.41.47-.89 .8-1.65 1.38-3.19 1.7-4.51 .19-.8.33-1.87.43-3.125 .02-.36.03-1.54.01-1.94l0-.001c-.03-.58-.09-1.15-.19-1.71h-.001c-.02-.05-.02-.1-.02-.15 .01-.01.05-.03.65-.2Zm-1.1.64c.04 0 .16 1.11.19 1.82 0 .15 0 .24-.01.24 -.03 0-.62-.35-1.032-.61l0 0c-.4-.25-.79-.51-1.17-.78 -.04-.03-.04-.03.266-.14 .5-.18 1.7-.56 1.74-.56Zm-2.45.8c.03 0 .11.04.31.17 .75.47 1.766 1.03 2.2 1.22 .13.06.15.03-.16.24 -.67.45-1.49.89-2.497 1.34v0c-.11.04-.22.09-.34.14v0c0-.07.02-.14.04-.2 .24-.91.38-1.82.38-2.56 0-.37 0-.37.03-.38h0Zm-.51.19c.02.02 0 .83-.02 1.05h0c-.08.62-.22 1.24-.42 1.83 -.02.01-.52-.47-.68-.66h-.001c-.27-.3-.49-.63-.67-.98 -.09-.17-.22-.484-.21-.5 .05-.04 1.971-.78 1.98-.77Zm-2.375.93s0 0 .01 0h0c.02.04.04.08.05.13 .11.31.37.782.6 1.08v0c.29.39.63.74 1.01 1.06 .02.02.03.01-.57.24l-.001-.001c-.76.28-1.53.55-2.3.8 -.33.1-.61.19-.62.2 -.04.01-.03-.01.07-.16 .42-.67 1.07-1.97 1.43-2.9 .06-.16.12-.32.13-.36 .01-.06.03-.07.08-.1v0c.02-.02.04-.02.06-.02Zm-.73.3c.01 0-.18.39-.36.75 -.351.68-.74 1.36-1.26 2.18l-.19.28c-.02.02-.03.01-.09-.1h0c-.14-.27-.23-.56-.28-.85h0c-.06-.36-.05-.73.02-1.09 .04-.23.04-.23.15-.28 .46-.24 1.96-.95 1.98-.93Zm6.26.25v.15l-.001 0c-.02 1-.1 2-.26 2.99v-.001c-.66-.2-1.3-.46-1.9-.782 -.36-.2-.87-.51-.85-.53 0-.01.15-.09.33-.18 .71-.37 1.39-.77 1.98-1.17 .22-.15.55-.39.62-.46ZM4.86 15.3c.01 0 .01.02-.02.16H4.84c-.02.12-.04.25-.05.39 -.03.53.05.92.32 1.46 .07.15.13.27.12.27 -.03.02-2.43.72-3.186.93l-.44.12c-.03 0-.03 0-.02-.06 .08-.54.49-1.24 1.05-1.82 .37-.39.68-.63 1.19-.92h0c.32-.19.65-.37.99-.55Zm5.66 1.01c0-.01.09.04.19.1 .77.44 1.86.87 2.78 1.08l.08.02 -.12.06c-.49.26-2.08.92-3.7 1.53l0 0c-.18.06-.35.12-.52.19v0c-.03.01-.06.02-.09.02 0-.01.06-.14.14-.29 .45-.86.91-1.89 1.14-2.61 .02-.08.04-.14.04-.14Zm-.58.19l-.001 0c-.02.05-.04.11-.07.16l0 0c-.37.87-.79 1.71-1.27 2.54v0c-.08.14-.17.29-.26.43 -.01 0-.12-.07-.25-.15 -.77-.48-1.452-1.06-1.9-1.62l-.07-.08 .33-.1 0 0c1.08-.3 2.15-.66 3.19-1.11 .14-.06.26-.11.26-.11Zm3.59 1.25s0 0 0 0c0 .08-.19.82-.34 1.37 -.13.45-.24.8-.44 1.43h0c-.06.16-.11.33-.17.5v0c-1.03-.18-2.04-.46-3-.85v0c-.22-.09-.44-.18-.64-.29 -.01-.01.21-.11.48-.23 1.65-.73 3.36-1.55 3.955-1.9v0c.04-.03.08-.06.13-.07Zm-8.29.28s-.46.67-1.1 1.57l-.59.82c-.1.13-.25.35-.33.48l-.16.23 -.17-.14c-.2-.16-.53-.51-.68-.69 -.32-.39-.53-.8-.61-1.18 -.04-.18-.04-.27-.01-.28l-.001-.001c.64-.16 1.28-.31 1.93-.46l1.3-.31c.2-.05.38-.09.38-.09Zm.46.17l.11.13h0c.48.55 1.06 1.02 1.7 1.39 .11.06.2.12.19.12l-.001-.001c-1.44.52-2.89 1.03-4.33 1.53h0c-.03-.02-.05-.04-.08-.05l-.07-.05 .1-.16c.34-.5.76-1.04 1.705-2.17Zm2.9 2.07c0-.01.16.05.36.12 .47.17.84.29 1.34.41 .61.15 1.51.31 2.03.35 .08 0 .12.01.11.02 -.03.01-.56.19-.96.31h0c-1.55.46-3.09.92-4.64 1.36 -.04 0-.16-.03-.16-.04 0-.01.08-.12.19-.25l0 0c.52-.64 1.02-1.3 1.47-1.99l-.001 0c.07-.12.14-.23.22-.34Zm-.65.01s-.26.41-.71 1.13c-.2.3-.41.64-.49.76 -.08.11-.19.29-.242.4l-.11.18 -.06-.02c-.13-.04-1.05-.36-1.3-.46 -.31-.12-.62-.27-.85-.39 -.29-.16-.66-.39-.63-.4l1.1-.31c1.59-.44 2.473-.69 3.05-.87 .1-.04.19-.06.2-.06Zm4.523 1.061h0c.01.03-.58 1.67-.79 2.18 -.05.11-.07.14-.1.14l-.001-.001c-.48-.07-.96-.13-1.44-.2 -.91-.14-2.423-.41-2.81-.49l-.09-.02 .54-.13c1.16-.27 1.72-.41 2.29-.58h0c.73-.23 1.44-.51 2.13-.83 .11-.06.21-.1.23-.1Z"/></svg>