<svg viewBox="0 0 24 24" xmlns="http://www.w3.org/2000/svg"><path d="M24 13.5q0 1.24-.48 2.33t-1.29 1.9q-.82.81-1.904 1.29 -1.09.47-2.34.47 -.77 0-1.53-.2 -.11.99-.56 1.85 -.46.86-1.154 1.49 -.71.63-1.61.99 -.91.35-1.91.35 -1.09 0-2.045-.42 -.96-.42-1.67-1.125 -.71-.71-1.125-1.67 -.42-.96-.42-2.05 0-.19.01-.375 .01-.19.04-.375H.95q-.41 0-.71-.3t-.3-.71V6.93q0-.41.29-.71t.703-.3h3.54q.14-1.28.726-2.38Q5.78 2.44 6.68 1.64 7.58.83 8.73.37q1.15-.46 2.44-.46 1.39 0 2.625.533 1.23.533 2.14 1.447 .91.915 1.44 2.145 .53 1.23.53 2.625 0 .18-.02.375 -.02.18-.04.375 1.24 0 2.34.46 1.1.46 1.92 1.27 .82.8 1.3 1.904 .47 1.09.47 2.35Zm-12.75-12q-.98 0-1.86.34 -.89.34-1.577.94 -.7.6-1.154 1.43 -.47.82-.61 1.787h4.94q.41 0 .7.29t.29.7v4.945l.21-.04q.21-.75.61-1.43 .39-.673.94-1.218 .54-.55 1.21-.95 .66-.4 1.43-.61 .09-.51.09-.96 0-1.09-.42-2.045 -.42-.96-1.125-1.67 -.71-.71-1.67-1.125 -.96-.42-2.05-.42ZM6.11 15.9q.54 0 1.06-.12t.93-.37q.41-.26.66-.68 .25-.43.25-1.06 0-.64-.27-1.06 -.27-.43-.67-.71 -.399-.29-.86-.47l-.86-.34q-.399-.16-.67-.34 -.27-.18-.27-.45 0-.2.14-.33t.33-.2q.19-.07.4-.1 .21-.03.351-.03 .59 0 1.05.15 .45.15.95.45V8.45q-.29-.09-.53-.14 -.24-.06-.48-.1 -.24-.05-.49-.06 -.26-.02-.56-.02 -.52 0-1.06.11t-.98.375q-.44.25-.72.68 -.28.42-.28 1.03 0 .59.26.99 .26.39.66.68 .39.28.85.47l.85.36q.39.17.66.35 .26.18.26.45 0 .22-.13.35 -.13.13-.31.2 -.19.07-.4.08 -.21.01-.37.01 -.71 0-1.25-.24 -.55-.24-1.11-.63v1.875q1.19.46 2.47.46Zm5.13 6.59q.77 0 1.45-.3 .68-.3 1.19-.81 .51-.51.8-1.2 .29-.69.29-1.46 0-.67-.23-1.28t-.62-1.096q-.4-.49-.95-.83 -.55-.34-1.21-.48v1.93q0 .41-.3.7t-.71.29H7.51q-.07.375-.07.75 0 .77.29 1.45 .29.68.8 1.19 .51.51 1.19.8 .68.29 1.45.29Zm6.75-4.5q.92 0 1.74-.36t1.436-.97q.61-.62.96-1.43 .35-.82.35-1.76 0-.93-.36-1.75t-.97-1.436q-.62-.62-1.436-.97 -.82-.36-1.75-.36t-1.74.35q-.82.35-1.43.97 -.62.61-.98 1.43 -.36.81-.36 1.74 0 .12 0 .25 0 .12.01.25 .55.27 1.02.65 .46.38.83.85 .36.47.62 1.02 .25.55.38 1.14 .78.3 1.6.3Z"/></svg>