<svg viewBox="0 0 24 24" xmlns="http://www.w3.org/2000/svg"><path d="M21.53 4.306v15.363q0 .8-.48 1.43 -.48.62-1.26.85l-6.888 1.97q-.14.03-.29.05 -.16.01-.3.01 -.4 0-.72-.11 -.33-.11-.66-.3L6.42 21.01q-.25-.14-.391-.37 -.15-.23-.15-.52 0-.44.3-.74 .3-.31.73-.31h5.831V4.9l-4.38 1.56q-.54.18-.86.65 -.33.47-.33 1.03v8.078q0 .49-.25.91 -.25.41-.69.65l-2.08 1.13q-.29.14-.58.14 -.5 0-.85-.35t-.35-.85V6.47q0-.62.33-1.19 .32-.58.87-.89L10.96.18q.24-.14.53-.21 .28-.08.57-.08 .21 0 .38.031 .16.031.36.093l6.88 1.899q.38.11.7.32 .31.21.54.52 .23.3.35.67 .125.367.125.76Zm-1.59 15.363V4.3q0-.28-.16-.48 -.17-.21-.43-.28l-3.388-.93q-.4-.12-.8-.23 -.4-.12-.8-.22v19.68l4.97-1.43q.26-.08.42-.28 .16-.21.16-.48Z"/></svg>