<svg viewBox="0 0 24 24" xmlns="http://www.w3.org/2000/svg"><path d="M15 .75q1.6 0 3.21.17 .28.03.81.11 .53.07 1.17.21 .64.135 1.31.32 .67.19 1.22.45 .55.26.9.59 .35.33.35.74v17.25q0 .41-.36.74t-.91.59q-.55.26-1.23.45 -.68.19-1.32.32 -.65.13-1.18.21 -.54.08-.82.1 -1.61.17-3.22.17 -1.62 0-3.21-.18 -.29-.03-.82-.11 -.54-.09-1.18-.22 -.65-.14-1.32-.33 -.68-.2-1.23-.46 -.55-.27-.91-.6 -.36-.34-.36-.75V17.89H.89q-.41 0-.71-.3t-.3-.71V6.87q0-.41.29-.71t.703-.3H5.88V3.23q0-.41.35-.75 .351-.34.9-.6 .55-.27 1.22-.46 .673-.2 1.31-.33Q10.3.96 10.83.88q.53-.08.81-.12 1.59-.18 3.21-.18Zm0 1.5q-.77 0-1.7.05 -.94.05-1.904.18 -.97.13-1.88.34 -.92.21-1.62.54 .72.34 1.63.55 .9.21 1.86.34 .95.12 1.88.17 .93.05 1.71.05 .78 0 1.71-.06 .93-.06 1.88-.18 .95-.13 1.86-.34 .9-.22 1.63-.556 -.71-.33-1.62-.55 -.92-.22-1.88-.35 -.97-.129-1.91-.19 -.94-.06-1.7-.06ZM4.72 14.145h2.54l.59 1.79h2l-2.87-7.88H5.02l-2.91 7.87H4.1Zm17.777 6.23v-3.55q-.78.33-1.73.56 -.96.22-1.97.35 -1.01.13-2 .19 -.99.05-1.82.05 -.86 0-1.705-.06 -.85-.06-1.7-.15 -.27.19-.6.19H7.46v2.37q.34.27.91.48 .57.21 1.27.36 .69.15 1.45.25t1.48.16q.72.06 1.34.08 .62.02 1.03.02 .41 0 1.03-.03 .62-.03 1.34-.09 .72-.07 1.48-.17t1.46-.26q.69-.16 1.27-.37 .57-.21.91-.48Zm0-5.227v-4.33q-.78.34-1.73.56 -.96.22-1.97.35 -1.01.13-2 .19 -.99.05-1.82.05 -.75 0-1.5-.05t-1.5-.12v4.5q.75.08 1.5.11t1.5.03q.43 0 1.05-.03 .62-.03 1.33-.09 .7-.07 1.45-.17t1.44-.26q.69-.16 1.27-.36 .58-.2.94-.47Zm0-6v-4.33q-.78.34-1.73.56 -.96.22-1.97.35 -1.01.13-2 .19 -.99.05-1.82.05 -.84 0-1.82-.06 -.99-.06-2-.2t-1.97-.36q-.96-.23-1.729-.57v1.17h3.5q.41 0 .7.29t.29.7v3.35q.75.08 1.5.11t1.5.03q.43 0 1.05-.03 .62-.03 1.33-.09 .7-.07 1.45-.17t1.44-.26q.69-.16 1.26-.36 .57-.2.94-.47Zm-17.32 3.47l.8-2.45 .78 2.45Z"/></svg>