<svg viewBox="0 0 24 24" xmlns="http://www.w3.org/2000/svg"><path d="M23.73 10l-2.45 0 -.08.11 -.03-.12h-2.46l-.06.13 -.03-.14 -2.48 0 -.05.16 -.02-.17 -2.51 0 -.03.26 -.01-.27 -2.52 0 -.01.24 -.03-.25 -2.5 0 -.02.15 -.05-.16H7.18l-.1.67 -.06-.14 -.03-.01 -.21-.53 -1.189 0 -.03.12 -.07-.13H4.31l-.03.11 -.07-.12 -1.17 0 -.14.52h-.32l-.06.22 -.56-.76 -1.14 0 -.98 3.01 1.03.95h1.12l.17-.68 .08.09h.29l.5.57h1.15l.02-.11 .08.1h1.16l.02-.12 .07.11H6.7l.09-.63 .3.62h1.18l.01-.15 .05.14h2.47l0-.23 .02.22h2.49l.02-.26 0 .25h1.22l.03-.18 .01.17h1.2l.05-.16 .01.15h1.19l.06-.14 .01.13h1.18l.07-.13 .02.12h1.17l.67-.97 -.04-.16h.37l.53-.74 .45 1.85h1.15l.96-.96 -.02-.08 -.08-.26 -.07-.24s-.22-.72-.25-.81c-.04-.12-.08-.24-.11-.35l-.01-.02 .48-.59Zm-2.33.16h2.2l.15.49h-.64l0 .01c.02.1.05.21.08.32 .03.11.06.22.09.34 .03.11.06.23.1.35 .03.11.07.23.1.35 .02.07.04.14.06.21 .02.07.04.14.06.22l.06.22c.02.07.04.15.06.22h-1l-.63-2.3h-.65Zm-.36 0l.12.49h-1.3l.11.56h1.31l.13.55h-1.34l.24 1.18 -1 0 -.51-2.79Zm-2.56 0l.48 2.78h-1l-.13-.9h-.38l.12.89h-1l-.31-2.79Zm-2.55 0l.1 1.03h-.33l.03.31h.32l.14 1.44h-1l-.09-1.18 -.37-.01 .07 1.18h-1l-.11-2.79Zm-2.55 0l.01.49h-1.28l-.03 1.71h1.35l.01.57h-2.37l.09-2.79Zm-2.55 0l-.03.49H9.51l-.05.56 1.3 0 -.03.53 -1.33 0 -.05.6 1.34 0 -.03.57H8.3l.29-2.79Zm-2.54 0l-.33 2.78h-1l.12-.89 -.33-.01 .08-.58 -.36-.01 -.24 1.47h-1l.51-2.79h.91l-.09.51 .31 0 -.08.53 .35 0 .14-1.07Zm-5.04 0h.91l-.65 2.77h-.99l.29-1.18h-.36l-.16.57h-.65l.15-.58h-.36l-.36 1.17H.1l.89-2.78h.89l-.15.5 .31.01 -.16.54h.69l.14-.54h.31Zm2.18 0l-.55 2.78h-.99l.61-2.78Zm12.16.42l.03.32 -.35-.01 -.05-.33h-.43l.04.35h.38l.01.12h-.2l.07.54h.23l-.02-.19 .34-.01 .03.18h.23l-.09-.55h-.2l-.02-.14 .39-.01 -.06-.36Zm-2.93.05l.03.57h.36l-.05-.58Zm-1.2 1l.01.54 -1.22-.01 .01-.42h1.17Z"/></svg>