<svg viewBox="0 0 24 24" xmlns="http://www.w3.org/2000/svg"><path d="M0 9.17h7.55c.48-.75 1.11-1.35 1.89-1.79 .78-.44 1.63-.66 2.54-.66 .91 0 1.76.22 2.55.66 .78.44 1.41 1.03 1.88 1.78h7.56l-.75.74h-6.4v0c.13.28.23.58.29.88h5.23l-.75.74h-4.37c.01.19.01.33.01.43 0 .09-.01.24-.02.44h3.49l-.75.74h-2.86v0c-.07.3-.17.6-.3.88h2.26l-.76.74h-1.92c-.48.74-1.11 1.34-1.89 1.78 -.79.44-1.64.66-2.56.66 -.92 0-1.77-.23-2.55-.67 -.79-.45-1.42-1.04-1.9-1.79H5.55l-.75-.75h2.25v0c-.14-.29-.24-.58-.3-.89H3.89l-.76-.75h3.48c-.02-.2-.02-.35-.02-.44 0-.1 0-.25.01-.44H2.24l-.76-.75h5.24L6.71 10.7c.06-.31.16-.61.29-.89H.59Zm7.84 1.07c-.24.55-.36 1.14-.36 1.75 0 .61.11 1.19.35 1.75 .23.55.55 1.03.96 1.44 .4.4.88.72 1.44.96 .55.23 1.14.35 1.75.35 .61 0 1.19-.12 1.75-.36 .55-.24 1.03-.57 1.44-.97 .4-.41.72-.89.96-1.45 .24-.56.36-1.15.36-1.76 0-.62-.12-1.2-.36-1.76 -.25-.56-.57-1.04-.97-1.45 -.41-.41-.89-.73-1.45-.97 -.56-.24-1.15-.36-1.76-.36 -.62 0-1.2.11-1.76.35 -.56.23-1.04.56-1.44.96 -.41.4-.73.88-.97 1.44Zm.55 2.94h.46l-.02-1.78 .56 1.77 .52-.01 .55-1.77v1.76h.49v-2.38l-.71-.01 -.61 1.89 -.62-1.9 -.68-.01Zm3.13 0h.49V10.8h-.5Zm1.03 0h.47v-1.72l.94 1.71h.57v-2.38h-.47v1.72l-.95-1.73h-.59Zm2.54 0h.48V10.8h-.49Z"/></svg>