<svg viewBox="0 0 24 24" xmlns="http://www.w3.org/2000/svg"><path d="M22.003 5.53v0c1.03-.01 1.9.79 1.99 1.82l0 .17v8.92h0c0 1.04-.81 1.91-1.85 2l-.15 0h-20v-.001c-.54 0-1.05-.21-1.42-.59H.57c-.34-.34-.54-.78-.58-1.25l-.01-.18V7.48h0c-.01-.54.2-1.05.58-1.43H.56c.33-.33.77-.54 1.24-.57l.17-.01h20.002Zm-7.5.7H2v0c-.35-.01-.68.13-.93.375v0c-.25.24-.38.57-.38.92v8.927H.69c-.01.34.13.67.37.92 .246.24.57.38.92.38h8.11l0-.001c-.17-.29-.33-.57-.5-.85h-.97c0-2.41.81-3.73 1.78-4 .13-.03.07-.68-.1-.88h-.57c-.09 0-.04-.17-.04-.17l.45-.98 -.07-.266H8.38l1.38-.97c.06-2.55 2.68-2.748 4.25-1.686 .93.62 1 1.84.93 2.69 -.02.05-.25.01-.25.01s-.16.93.25.93h1.83c.74-.03 1.47.47 1.47.47l.17-.65 -4.03-5.244Zm7.5 0h-5.59l3.2 5.36 .29.03 .18.24v.22l.2.04 .18.25v.22l.21.03 .21.23v.51c.25.22.53.41.84.56 .28.1.31.56.48.8 .21.35.5.49.44.69 -.15.52-.69 1.41-1.19 1.45h-1.99v.85h2.48v0c.71-.01 1.29-.59 1.29-1.31 -.01-.01-.01-.01-.01-.01V7.47h-.01v0c0-.71-.57-1.3-1.27-1.3 -.01-.01-.02-.01-.03-.01ZM4.02 14.401L4.02 14.4c.34.34.34.91-.01 1.25 -.17.16-.4.25-.64.25v-.001c-.49 0-.88-.4-.89-.88 -.01-.01 0-.01 0-.02v0c0-.5.39-.89.88-.89 .23 0 .46.09.62.26Z"/></svg>