<svg viewBox="0 0 24 24" xmlns="http://www.w3.org/2000/svg"><path d="M12.43.59c-.54 0-1.08.27-1.44.8L.29 17.54c-.95 1.98.42 3.87 2.26 4.41 3.469.77 6.64-1.3 6.64-1.3 4.68-3 7.7-4.69 7.7-4.69 3.72-1.9 6.99.42 6.99.43L13.78 1.36c-.34-.54-.86-.81-1.39-.81Zm0 1.65c.41-.01.83.21 1.093.63 2.46 3.66 5.26 7.43 7.62 11.16 0 0-2.26-1.18-5.19.31 0 0-2.38 1.33-6.07 3.68 0 0-2.5 1.62-5.23 1.01 -1.46-.43-2.53-1.92-1.79-3.48l8.41-12.72c.28-.43.7-.64 1.12-.64Zm8.41 14.16c-4.04.09-7.54 3.86-10.387 4.98 4.33 5.21 17.31-.98 12.454-4.43 -.62-.43-1.32-.58-2.067-.56Zm-.03 1.01c.54 0 1.04.14 1.45.47 2.28 2.28-6.31 6.26-9.96 3.64 1.18-.1 5.56-4.15 8.5-4.13Z"/></svg>