<svg viewBox="0 0 24 24" xmlns="http://www.w3.org/2000/svg"><path d="M1.402 0C.62 0 0 .625 0 1.402V22.59c0 .77.625 1.4 1.402 1.4H22.59c.77 0 1.4-.625 1.4-1.41V1.38c-.001-.78-.63-1.41-1.41-1.41Zm2.88 5.465h3.03v13.06H4.27v-.99h1.86V6.43h-1.87Zm12.39 0h3.03v.98h-1.87v11.09h1.86v.98h-3.04Zm-7.856 3.55h1.35c.1.44.23.91.37 1.41 .15.49.31.99.47 1.48 .17.48.34.95.51 1.41 .17.46.33.86.48 1.22 .15-.36.31-.77.48-1.23 .17-.46.33-.94.5-1.42 .17-.5.32-.99.47-1.49 .15-.51.28-.98.39-1.42h1.29l-.001-.001c-.35 1.28-.76 2.54-1.25 3.78l-.001 0c-.43 1.09-.88 2.17-1.37 3.24h-1.14 -.001c-.49-1.07-.95-2.15-1.38-3.24l-.001-.001c-.48-1.24-.89-2.5-1.23-3.78Z"/></svg>