<svg viewBox="0 0 24 24" xmlns="http://www.w3.org/2000/svg"><path d="M13.325-.001c-.907 1.116-2.442 2.3-.77 4.81 .55.62.83 1.95.76 2.372 0 0 2.51-1.47.97-4.116 -.907-1.4-1.33-2.59-.98-3.07Zm-2.79 2.582c-.63.76-1.61 1.53-.49 3.27 .35.34.48 1.25.48 1.53 0 0 1.67-.98.62-2.792 -.63-.91-.91-1.75-.63-2.03Zm-5.094 6v0c-.39 0-.7.31-.7.69 0 2.372.34 10.53 3.83 14.512 .14.13.28.2.48.2h5.86c.21 0 .35-.07.48-.21 3.48-3.91 3.83-12.07 3.83-14.512v0c-.01-.39-.32-.7-.7-.7H11.96Zm2.02 2.16h9.21c.34 0 .69.27.69.69 0 1.95-.35 7.46-2.72 10.326 -.21.14-.35.2-.56.2H9.965v0c-.19 0-.37-.08-.49-.21 -2.38-2.79-2.652-8.38-2.73-10.326 0-.35.28-.7.69-.7Zm8.79 4.744s-.08.62-1.75 1.25c-2.31.83-6.35.28-6.35.28 .34 1.46.9 2.86 1.74 3.9 .07.14.28.2.41.2h3.48c.14 0 .27-.07.41-.21 1.186-1.4 1.74-3.558 2.02-5.45Z"/></svg>