<svg viewBox="0 0 24 24" xmlns="http://www.w3.org/2000/svg"><path d="M24 12c0 6.62-5.38 12-12 12C5.37 24 0 18.62 0 12c0-1.83.4-3.56 1.13-5.11C.64 8.12.42 9.33.42 10.48c0 5.43 4.38 6.22 6.25 6.2 2.83-.03 6.15-1.42 8.94-4l-.48 2.64c-.11.6.29 1.13.89 1.14h.25c.62 0 1.07-.52 1.18-1.15l1-5.67c.12-.63-.3-1.14-.93-1.14h-5.68c-.64 0-1.21.33-1.32.96l-.05.25c-.09.6.33 1.05.93 1.05h2.95 -.001c-.05.04-.1.09-.15.13 -2.04 1.93-4.56 2.98-6.65 2.98 -2.09 0-4.41-1.32-4.41-4.27 -.01-6.13 5.74-9.69 8.75-9.69 6.61 0 12 5.37 12 12"/></svg>