<svg viewBox="0 0 24 24" xmlns="http://www.w3.org/2000/svg"><path d="M24 10.35V7.07v0c-.01-3.92-3.18-7.09-7.09-7.09 -1.84 0-3.6.71-4.92 1.98v0C9.17-.76 4.69-.68 1.97 2.14 .69 3.46-.02 5.22-.02 7.05v9.834 0c0 3.91 3.17 7.08 7.083 7.08h9.83v0c3.91-.01 7.08-3.18 7.08-7.09 -.01-.15-.01-.29-.02-.43h.01v-4.34H9.797v4.33h9.834v.42 0c0 1.51-1.24 2.75-2.76 2.75H7.03v0c-1.52 0-2.76-1.24-2.76-2.76V7v0C4.26 5.48 5.5 4.24 7.02 4.24c1.51-.01 2.75 1.23 2.75 2.75 0 0 0 0 0 0v3.27h4.33V6.98h0c-.01-1.52 1.23-2.76 2.75-2.76 1.51-.01 2.75 1.23 2.75 2.75 0 0 0 0 0 0v3.27Z"/></svg>