<svg viewBox="0 0 24 24" xmlns="http://www.w3.org/2000/svg"><path d="M11.514 11.486c0 .28-.23.52-.53.52h0c-.29 0-.52-.22-.53-.5 -.01-.01-.01-.02-.01-.03 0-.28.22-.53.52-.53 .28 0 .5.24.52.52m2.31-2.12v0c0 .28-.23.51-.51.52v0c-.29 0-.52-.23-.53-.51v0c-.01-.29.22-.52.5-.53v0c.27-.01.51.2.52.48 0 0 0 .01 0 .01m-1.234-1.57c0 .71-.62 1.1-.62 1.1s-.62-.4-.62-1.11c0-.71.61-1.11.61-1.11s.61.39.61 1.1m-2.6 1.06s-.15.71.35 1.21 1.21.33 1.21.33 .15-.71-.36-1.22c-.51-.49-1.22-.34-1.22-.34m-.83 1.17c.61.35.65 1.06.65 1.06s-.66.33-1.28-.02c-.617-.36-.66-1.09-.66-1.09s.65-.32 1.27.03m-.32 2.33s.16.71.82.95c.673.24 1.25-.21 1.25-.21s-.15-.71-.83-.96c-.673-.25-1.26.2-1.26.2m4.448-.75c-.3.63-1.03.72-1.03.72s-.4-.62-.1-1.26c.29-.64 1.02-.73 1.02-.73s.39.59.09 1.25m2.78-1.61s-.66-.34-1.27.01c-.62.35-.66 1.08-.66 1.08s.65.33 1.27-.02c.61-.38.65-1.09.65-1.09m-1.76 3.308c-.68.24-1.26-.21-1.26-.21s.15-.71.82-.96c.67-.25 1.25.18 1.25.18s-.15.73-.83.97m-8.73 3.94c-.86 0-1.52-.62-1.52-1.439 0-.83.65-1.44 1.51-1.44s1.51.61 1.51 1.44c0 .82-.66 1.44-1.52 1.44m0-2.15c-.4 0-.7.31-.7.72s.29.72.69.72c.39 0 .69-.32.69-.73s-.3-.73-.7-.73m6.8 2.05v-2.68h0c-.01-.02-.02-.04-.04-.04h-.73v0c-.02 0-.04.01-.04.03v2.67 0c0 .02.01.03.03.03h.72v0c.01-.01.03-.02.03-.04m4.44.09c-.86 0-1.52-.62-1.52-1.439 0-.83.65-1.44 1.51-1.44s1.51.61 1.51 1.44c0 .82-.66 1.44-1.52 1.44m0-2.15c-.4 0-.7.31-.7.72s.3.72.69.72c.39 0 .69-.32.69-.73s-.3-.73-.7-.73M21 16.87v-1.71c0-.71-.34-1.07-.99-1.07 -.32 0-.64.13-.85.37v-.27 0c-.01-.03-.02-.04-.04-.04h-.71v0c-.03 0-.04.01-.04.03v2.654 0c0 .01.01.03.03.03h.73v0c.01-.01.03-.02.03-.04v-1.24c0-.12.01-.23.03-.32v0c.07-.28.32-.47.61-.47 .24 0 .33.11.33.44v1.57h-.001c0 .02.01.03.03.03h.72c.03 0 .05-.02.05-.04m-17.65.03h-.75 0c-.02-.01-.04-.02-.04-.04 0-.85-.06-1.8-.1-2.1 -.28.39-.53.82-.71 1.27 0 .02-.02.02-.04.02h-.42c-.02 0-.04 0-.04-.02h0c-.19-.45-.43-.88-.71-1.27 -.02.29-.1 1.25-.1 2.09H.37c-.01.01-.02.03-.04.03h-.75l-.001 0c-.02-.01-.04-.02-.04-.04 0-1.14.07-2.64.28-3.41 0-.02.02-.02.03-.04h.58c.01 0 .01 0 .01.01 .37.41.691.87.93 1.36v0c.25-.5.56-.95.93-1.37l.01-.02h.58v0c.01 0 .03.01.03.03 .18.76.28 2.26.28 3.4 .03.01.01.03 0 .03m4.61-.04v-1.07c0-.13.01-.27.05-.4l-.001 0c.07-.29.33-.49.63-.49h.16l.01-.02v-.73h0c-.01-.02-.02-.04-.04-.04h-.1v0c-.31 0-.59.15-.75.41v-.34 0c-.01-.03-.02-.04-.04-.04h-.71v0c-.03 0-.04.01-.04.03v2.67h0c0 .01.01.03.03.03h.73c0-.02.01-.04.01-.06m2 .03h-.73v0c-.02-.01-.04-.02-.04-.04v-2.68 0c0-.03.01-.04.03-.04h.71v0c.01 0 .03.01.03.03v.33 0c.17-.25.44-.4.74-.41h.09v0c.01 0 .03.01.03.03v.71c0 .01 0 .01-.02.01 0 0-.02.01-.04 0h-.14v0c-.3 0-.56.19-.64.48 -.04.13-.06.26-.06.39v1.06c.02.05.02.07-.02.07 .01 0 0 0 0 0m4.747-.86c0 .58-.43.89-1.16.89 -.43 0-.77-.15-1.14-.42 -.02 0-.02-.02-.02-.04v-.02l.31-.49c0-.02.02-.02.03-.02h.01c.31.2.54.29.82.29 .18 0 .29-.06.29-.17v-.02c0-.13-.12-.19-.42-.28l-.12-.04c-.47-.13-.9-.34-.9-.86v-.02c0-.53.43-.86 1.1-.86 .33 0 .65.09.95.26 .01 0 .01.02.01.03v.01l-.28.54c0 .01-.02.01-.04.01h-.02c-.28-.13-.45-.19-.64-.19 -.17 0-.28.07-.28.16v.01c0 .13.16.18.44.26l.09.03c.44.11.87.33.87.84m8.03-.86l-.1-.04c-.28-.08-.45-.13-.45-.27v-.02c0-.12.11-.17.28-.17 .18 0 .37.05.63.18h.01c.01 0 .01 0 .03-.02l.29-.49v-.02c0-.02 0-.02-.02-.04h0c-.29-.17-.62-.26-.96-.27 -.68 0-1.11.31-1.11.86v.01c0 .52.43.72.89.86l.11.03c.28.09.41.15.41.28v.01c-.02.11-.12.16-.3.16 -.28 0-.51-.1-.83-.3h-.02c-.02 0-.02 0-.04.01l-.32.48v.01c0 .02 0 .02.01.03 .37.26.71.41 1.14.41 .73 0 1.15-.32 1.15-.88v-.02c-.02-.53-.45-.75-.9-.9m-10.62-2c0 .28-.23.5-.51.5l0-.001c-.28 0-.51-.23-.51-.51 -.01-.01-.01-.01 0-.01 0-.28.22-.51.5-.51 .28.01.5.22.5.5"/></svg>