<svg viewBox="0 0 24 24" xmlns="http://www.w3.org/2000/svg"><path d="M15.171 10.07l-1.3-.11v6.86l-1.93.34 -.01-7.371 -1.64-.15V6.92l4.86.85Zm3.66 5.884l-1.15.19 -.14-1 -1.12.14 -.14 1.1 -1.48.26 1.45-8.651 1.38.24Zm-1.48-2.5l-.31-2.65h-.07l-.31 2.68Zm-6.37 10.53c6.59 0 11.93-5.38 11.93-12 0-6.63-5.35-12-11.932-12 -4.14 0-7.78 2.11-9.92 5.32l3.3.58 .91 6.96c0-.02.06-.01.06-.01l.99-6.62 3.3.58v10.735l-2.09.36v-4.62s.07-1.987.03-2.327c0 0-.09 0-.1-.01l-1.25 7.18 -2.08.36 -1.53-7.74 -.1-.01c-.04.28.11 2.7.11 2.7v5.298l-1.364.24c2.17 3 5.68 4.962 9.663 4.962Z"/></svg>