<svg viewBox="0 0 24 24" xmlns="http://www.w3.org/2000/svg"><path d="M11.987 1.91c-1.9 0-3.7.32-5.298.883C2.749 4.263 0 7.823 0 11.997c0 4.14 2.756 7.7 6.689 9.204 1.63.56 3.42.88 5.32.88h0c1.79-.01 3.57-.3 5.27-.86 3.93-1.48 6.71-5.06 6.71-9.21v-.03c0-4.18-2.79-7.74-6.72-9.21V2.77c-1.71-.59-3.5-.89-5.3-.89Zm-1.1 3.34h2.167v3.827c1.52-.41 2.702-1.766 2.782-3.4l2.16.02c-.16 2.73-2.22 4.95-4.9 5.378v1.79c2.676.42 4.73 2.67 4.92 5.404l-2.167.02c-.08-1.64-1.26-2.997-2.79-3.43v3.85H10.89v-3.86 0c-1.58.41-2.72 1.79-2.81 3.42l-2.167-.03 0 0c.18-2.73 2.22-4.97 4.92-5.41V11.06c-2.68-.41-4.77-2.65-4.93-5.38l2.16-.03H8.06c.08 1.61 1.21 2.99 2.78 3.39Z"/></svg>