<svg viewBox="0 0 24 24" xmlns="http://www.w3.org/2000/svg"><path d="M12 0C5.373 0 0 5.373 0 12c0 6.628 5.373 12 12 12 6.628 0 12-5.38 12-12 0-6.63-5.38-12-12-12Zm0 1.055c6.04 0 10.945 4.9 10.945 10.945 0 6.04-4.9 10.94-10.945 10.94 -6.05 0-10.945-4.9-10.945-10.95C1.05 5.94 5.955 1.04 12 1.04Zm-4.67 3.3s-3 1.64-3.96 5.25c-.65 2.224-.39 4.702.9 6.914h-.001c.92 1.57 2.29 2.82 3.95 3.59l.8-3.07c-1.81-.85-3.11-2.58-3.11-4.79H5.9c-.01-1.12.32-2.22.94-3.15L10.6 14.96h2.792l3.75-5.866v0c.61.93.94 2.02.94 3.14 0 2.22-1.31 3.94-3.109 4.791l.8 3.06h0c1.65-.77 3.02-2.03 3.94-3.6 1.29-2.22 1.55-4.692.9-6.916l0 0c-.97-3.61-3.96-5.251-3.96-5.251l-.34.52 -4.35 6.79h-.01L7.6 4.81Z"/></svg>