<svg viewBox="0 0 24 24" xmlns="http://www.w3.org/2000/svg"><path d="M19.76 7.03c-.91 0-1.06.6-1.07.91v6.59h.63c.51.01.63-.32.64-.51v-.03 -.03c.39.42.94.65 1.57.65 1.34 0 2.44-1.18 2.44-2.7 0-1.55-1.11-2.72-2.45-2.72 -.6 0-1.125.22-1.52.6V6.97h-.27Zm.26 4.92c0-.83.58-1.49 1.31-1.49 .73 0 1.32.64 1.32 1.48 0 .83-.59 1.46-1.33 1.46 -.73 0-1.32-.66-1.32-1.47Zm-6.961 0c0 1.54 1.16 2.7 2.58 2.7 1.44 0 2.6-1.17 2.6-2.71 0-1.56-1.17-2.75-2.61-2.75 -1.43 0-2.59 1.18-2.59 2.74Zm1.32 0c0-.9.57-1.53 1.26-1.53 .7 0 1.27.63 1.27 1.52 0 .87-.58 1.48-1.28 1.48 -.7 0-1.27-.61-1.27-1.49ZM3.92 9.94c-.37-.46-.94-.74-1.65-.74 -1.41 0-2.33.99-2.33 2.32v3.01h.43c.29-.03.86-.17.89-1.04v-2.01c0-.59.41-1 .99-1 .879 0 .96.7.96.99v3.03h.43c.29-.03.86-.17.89-1.02v-2.02c0-.59.42-1 .99-1 .87 0 .97.7.97.99v3.03h.43c.29-.03.87-.17.89-1.05v-1.97c0-1.36-.85-2.33-2.3-2.33 -.67 0-1.25.28-1.65.73Zm7.74-.03L10.54 13 9.33 9.78c-.18-.51-.66-.49-.66-.49H7.63l2.05 5.05c0-.02 0-.02-.02-.02 0 0 .01 0 .01.01s.01.02.01.02l-.02-.03c.07.19.04.31-.02.51l-.05.12c-.24.59-.58.76-1.29.71v.01l.49 1.21c.92-.03 1.6-.33 2.07-1.48l2.46-6.17h-.93c-.05 0-.58.01-.8.59Zm8.06-2.9c-.91 0-1.06.6-1.07.91v6.59h.63c.51.01.63-.32.64-.51v-.03 -.03c.39.42.94.65 1.57.65 1.34 0 2.44-1.18 2.44-2.7 0-1.55-1.11-2.72-2.45-2.72 -.6 0-1.125.22-1.52.6V6.95h-.27Zm.26 4.92c0-.83.58-1.49 1.31-1.49 .73 0 1.32.64 1.32 1.48 0 .83-.59 1.46-1.33 1.46 -.73 0-1.32-.66-1.32-1.47Zm-6.961 0c0 1.54 1.16 2.7 2.58 2.7 1.44 0 2.6-1.16 2.6-2.71 0-1.56-1.17-2.75-2.61-2.75 -1.43 0-2.59 1.18-2.59 2.74Zm1.32 0c0-.9.57-1.53 1.26-1.53 .7 0 1.27.63 1.27 1.52 0 .87-.58 1.48-1.28 1.48 -.7 0-1.27-.61-1.27-1.49ZM3.89 9.92c-.37-.46-.94-.74-1.65-.74 -1.41 0-2.33.99-2.33 2.32v3.01h.43c.29-.03.86-.17.89-1.04v-2.01c0-.59.41-1 .99-1 .879 0 .96.7.96.99v3.03h.43c.29-.03.86-.17.89-1.02v-2.02c0-.59.42-1 .99-1 .87 0 .97.7.97.99v3.03h.43c.29-.03.87-.17.89-1.05v-1.97c0-1.36-.85-2.33-2.3-2.33 -.67 0-1.25.28-1.65.73Zm7.74-.03l-1.12 3.09L9.3 9.76c-.18-.51-.66-.49-.66-.49H7.6l2.05 5.05c0-.02 0-.02-.02-.02 0 0 .01 0 .01.01s.01.02.01.02l-.02-.03c.07.19.04.31-.02.51l-.05.12c-.24.59-.58.76-1.29.71v.01l.49 1.21c.92-.03 1.6-.33 2.07-1.48l2.46-6.17h-.93c-.05 0-.58.01-.8.59Z"/></svg>