<svg viewBox="0 0 24 24" xmlns="http://www.w3.org/2000/svg"><path d="M19.802 12.27v0c2.1 0 3.81-1.7 3.81-3.81 0-.01 0-.01 0-.01 0-2.11-1.71-3.8-3.82-3.8v0c-2.11-.01-3.82 1.7-3.82 3.81v0c0 2.1 1.71 3.81 3.81 3.81Zm-8.602.7h0c1.89 0 3.43-1.54 3.43-3.43v-.001c-.01-1.9-1.55-3.43-3.44-3.43 -.01 0-.01 0-.01 0v0c-1.9 0-3.44 1.53-3.436 3.43v0c0 1.89 1.53 3.43 3.436 3.43Zm-7.8.63c1.71 0 3.093-1.38 3.093-3.09s-1.4-3.09-3.11-3.09H3.38C1.67 7.41.29 8.79.29 10.5c-.01 0-.01 0 0 0 0 1.7 1.387 3.07 3.09 3.07Zm-.001.7c-1.96 0-3.4 1.71-3.4 3.49v1.19c0 .17.138.31.31.31h6.18 -.001c.17-.01.3-.14.3-.31v-1.2c0-1.78-1.44-3.5-3.398-3.5Zm7.8-.56c-2.18 0-3.78 1.91-3.78 3.891v1.33c0 .18.15.34.34.34h6.87 -.001c.18-.01.34-.16.34-.35v-1.34c0-1.98-1.6-3.9-3.78-3.9Zm8.602-.62c-2.43 0-4.2 2.12-4.2 4.32v1.47c0 .21.17.38.38.38h7.63c.21 0 .38-.18.38-.39v-1.48c-.01-2.2-1.78-4.33-4.198-4.33Z"/></svg>