<svg viewBox="0 0 24 24" xmlns="http://www.w3.org/2000/svg"><path d="M17.29 17.48c.22.4.57.72.98.93 -.31.15-.65.22-.99.23h-3.07v0c-.82-.01-1.56-.44-1.96-1.15l-5.56-11h-.001c-.23-.4-.57-.72-.98-.93 .3-.16.65-.24.99-.24h3.05c.81 0 1.55.43 1.95 1.14L17.25 17.44Zm-9.329-7.4l-1.7-3.34c-.21-.4-.59-.657-.984-.83 -.21.16-.391.35-.53.58C4.55 6.83.35 15.13.17 15.47v0c-.51 1.13 0 2.45 1.13 2.96 1.06.47 2.31.05 2.88-.97l3.75-7.401Zm15.846-1.593v0c.49-1.14-.03-2.46-1.17-2.96 -.01-.01-.01-.01-.01-.01V5.5v-.001c-.29-.13-.59-.19-.9-.19l-.01-.02c-.82 0-1.57.44-1.97 1.157l-3.75 7.41 1.689 3.32c.21.39.59.66.99.83 .25-.2.47-.45.6-.75l4.47-8.837Z"/></svg>