<svg viewBox="0 0 24 24" xmlns="http://www.w3.org/2000/svg"><path d="M4.34 13.59c.07.28.19.39.4.39 .22 0 .33-.14.33-.39v-4.8h1.37v4.79c0 .67-.09.968-.43 1.31 -.25.24-.71.43-1.28.43 -.47 0-.91-.16-1.2-.44 -.25-.25-.39-.51-.6-1.311l-.85-3.2c-.08-.29-.2-.39-.41-.39 -.22 0-.34.13-.34.39v4.79H-.05v-4.8c0-.68.088-.968.43-1.31 .247-.25.703-.44 1.278-.44 .46 0 .9.15 1.19.43 .24.25.38.5.59 1.311Zm18.231 1.59l-1.6-4.98 0-.001c-.02-.05-.04-.1-.06-.14v0c-.05-.06-.12-.09-.19-.09h-.001c-.08-.01-.14.02-.19.08v0c-.03.04-.05.08-.06.13l-1.6 4.98h-1.43l1.73-5.44c.09-.29.22-.53.38-.69 .28-.28.61-.42 1.13-.42 .52 0 .85.14 1.13.42 .16.16.29.4.38.68l1.73 5.44h-1.43Zm-7.05 0c.9 0 1.34-.2 1.69-.54 .38-.39.56-.81.56-1.43 0-.56-.21-1.064-.51-1.37 -.41-.4-.91-.53-1.72-.53h-1.15c-.44 0-.61-.06-.75-.19 -.1-.1-.14-.23-.14-.4s.04-.34.15-.45c.1-.1.24-.15.51-.15h3.301V8.76h-3.05c-.91 0-1.343.19-1.7.53 -.39.38-.57.8-.57 1.42 0 .55.2 1.064.51 1.37 .4.4.9.52 1.72.52h1.141c.43 0 .61.05.74.18 .09.09.14.23.14.39s-.05.33-.16.44c-.11.1-.25.14-.51.14h-3.41L11 9.66c-.09-.29-.22-.53-.39-.69 -.29-.28-.62-.42-1.14-.42 -.53 0-.86.14-1.138.42 -.17.16-.3.4-.39.68L6.2 15.09h1.42l1.59-4.98v0c.01-.05.03-.1.06-.14v0c.04-.06.11-.09.18-.09 .08 0 .14.02.18.08v0c.02.04.04.08.06.13l1.59 4.98h4.14Z"/></svg>