<svg viewBox="0 0 24 24" xmlns="http://www.w3.org/2000/svg"><path d="M1.77 1.76l-.001 0C2.819.65 4.269.02 5.799 0h12.6c1.37 0 2.65.6 3.83 1.76v0c1.1 1.01 1.75 2.43 1.77 3.94v12.77c0 1.34-.56 2.58-1.68 3.73v0c-1.07 1.12-2.53 1.76-4.07 1.8H5.86v0c-1.52-.02-2.97-.58-4.1-1.57 -1.08-.98-1.67-2.4-1.77-4.3V5.73L-.01 5.72C-.03 4.2.61 2.75 1.76 1.75Zm6.25 8.3l7.93 10.06h2.12c.49-.06.88-.2 1.17-.43 .3-.23.5-.56.64-1v-4.94c.08-.95.67-1.54 1.77-1.75 -1.1-.4-1.69-1.02-1.77-1.86V5.42c-.12-.44-.33-.8-.64-1.07v0c-.31-.28-.69-.44-1.09-.47H16v10.2L8.02 3.87H5.79c-.56.1-.97.3-1.25.6s-.46.78-.54 1.43v4.85c-.35.69-.9 1.1-1.65 1.25 .85.16 1.4.61 1.65 1.36v4.77c.02.55.2 1 .54 1.37 .33.36.7.53 1.1.5H8l.02-9.94Z"/></svg>