<svg viewBox="0 0 24 24" xmlns="http://www.w3.org/2000/svg"><path d="M0 11.06h.29v.41H.3c.1-.29.42-.49.764-.49 .67 0 .877.35.877.92v1.54h-.3v-1.5c0-.42-.135-.73-.61-.73 -.47 0-.742.35-.75.82v1.4h-.3Zm2.467.73c.02-.57.42-.81.96-.81 .42 0 .88.13.88.77v1.27c0 .11.05.17.17.17 .03 0 .07-.01.09-.02v.24 -.001c-.07.01-.13.02-.19.01 -.3 0-.35-.17-.35-.42h-.01c-.21.31-.42.49-.871.49 -.44 0-.81-.22-.81-.71 0-.68.65-.7 1.28-.78 .24-.03.375-.07.375-.33 0-.4-.29-.5-.625-.5 -.37 0-.63.16-.64.56Zm1.557.35h-.01c-.04.07-.17.09-.246.1 -.5.08-1.113.08-1.113.55 0 .29.26.47.53.47 .44 0 .84-.29.83-.76Zm1.44-1.1h.48v.24h-.49v1.62c0 .19.02.3.23.31 .08 0 .16-.01.25-.02v.25c-.09 0-.18.01-.26.01 -.39 0-.53-.13-.52-.55v-1.65h-.42V11h.41v-.73h.29Zm1.3 2.4v-2.41h-.3v2.4Zm0-2.86v-.47h-.3v.47Zm2.7 1.65c0 .69-.4 1.27-1.13 1.27 -.734 0-1.14-.59-1.14-1.28 0-.69.39-1.28 1.13-1.28 .73 0 1.13.58 1.13 1.27m-1.97 0c0 .51.27 1.02.84 1.02 .56 0 .83-.52.83-1.03 0-.52-.28-1.03-.84-1.03 -.56 0-.84.51-.84 1.02m2.401-1.21h.29v.41h.01c.1-.29.42-.49.76-.49 .673 0 .87.35.87.92v1.54h-.3v-1.5c0-.42-.14-.73-.61-.73s-.75.35-.76.82v1.4h-.3Zm2.46.73c.02-.57.42-.81.97-.81 .42 0 .88.13.88.77v1.27c0 .11.05.17.17.17l-.001-.001c.03-.01.06-.01.09-.02v.24 0c-.07.01-.13.02-.19.01 -.3 0-.35-.17-.35-.42h-.01c-.21.31-.42.49-.88.49 -.44 0-.81-.22-.81-.71 0-.68.65-.7 1.28-.78 .24-.03.375-.07.375-.33 0-.4-.29-.5-.63-.5 -.37 0-.63.16-.64.56Zm1.55.35h-.01c-.04.07-.17.09-.25.1 -.5.08-1.12.08-1.12.55 0 .29.26.47.53.47 .44 0 .83-.29.83-.76Zm1.33 1.314v-3.33h-.3v3.32Zm2.83-2.48v2.35c0 .42-.04 1.141-1.25 1.141 -.51 0-1.05-.22-1.08-.75h.7c.02.12.08.25.45.25 .34 0 .51-.17.51-.57v-.3l-.01-.01c-.11.19-.27.37-.66.37 -.593 0-1.07-.42-1.07-1.282 0-.86.48-1.28 1.02-1.28 .46 0 .64.27.72.43h.01v-.37Zm-1.2 1.94c.44 0 .55-.38.55-.718 0-.4-.2-.73-.56-.73 -.24 0-.51.17-.51.75 0 .31.13.69.51.69Zm1.75-1.95h.62v.42h.01c.13-.26.28-.5.67-.5 .04 0 .08 0 .125.01v.66c-.06-.01-.125-.01-.19-.01 -.51 0-.6.31-.6.59v1.29h-.65Zm2.526 2.47v-2.5h-.65v2.49Zm-.81-3.47l.47.47 .47-.48 -.48-.48Zm3.61 3.46h-.64v-.32h-.01c-.16.28-.45.37-.72.37 -.74 0-1.04-.66-1.04-1.34 0-.86.48-1.28 1.02-1.28v0c.29-.02.56.13.71.38h0V9.96h.64Zm-1.2-.47c.41 0 .57-.35.57-.72 0-.4-.12-.8-.56-.8 -.42 0-.56.36-.56.76 0 .29.11.75.53.75Z"/></svg>