<svg viewBox="0 0 24 24" xmlns="http://www.w3.org/2000/svg"><path d="M9.19 0v0C7.81 0 6.7 1.11 6.7 2.48v19.029 0c0 1.37 1.11 2.48 2.48 2.48h5.61v0c1.37-.01 2.48-1.12 2.49-2.49V2.46 2.46c-.01-1.38-1.12-2.49-2.49-2.484Zm0 .584h3.21c-.62.237-.71.5-.73 1.366 -.11.01-.33-.09-.25.43 0 0 .04.34.18.28 -.14.91.02.99-.93 1.03l-.05.06c-.95.09-1.25-.03-2.05 1.6 0 0-.21.5-.27.71 -.2.41-.68 1.32-.82 1.91 -.05.2-.14.26-.01.55 .18.41-.13.52.95.49v.24s-.29.24-.35.39c-.07.14-.23.89-.22 1.237 .01.91.76 1.68.99 2.59l.49.07c.28.63 1.49 2.35 1.74 2.58 .05.15.36.35.54.55 .14.14 1.02 1.1 2.05 1.69 -.01-.01.16.34.24.61 -.35.27.32.77.52 1.6 .01.1-.19.22.11.49 -.03 1.25-.41 1.91.24 2.26H9.15v0c-1.05 0-1.91-.86-1.91-1.9 -.001-.01 0-.01 0-.01V2.37 2.37C7.23 1.32 8.08.46 9.13.46c0-.01 0-.01 0-.01Zm3.8 0h1.81V.583c1.04 0 1.89.85 1.89 1.89v9.193 0c-.06-.15-.13-.28-.22-.4 0-.26-.28-.25-.35-.35 -.07-.09.06-.13-.41-.24 -.09-.05-.16-.75-.16-.75 -.07-.45-.23-.76-.47-1.23 -.12-.25-.18-1.01-.31-1.39 .07-1.77-.5-2.28-.95-2.569 -.18-.11-.27-.2-.44-.29l-.01-.09c-.14-.13-.41-.27-.63-.37 -.07-.07-.04-.22.01-.28 .15-.02.34-.36.51-.71 .12 0 .17-.12.21-.19 .13-.23.28-.42.09-.55 .43-.78.15-1.301-.08-1.321 -.1-.2-.26-.32-.56-.42Zm.55 6.338c.06.31.34 1.92.45 2.18 .12.25.53 1.05.73 1.54h-.001c-.77.18-1.3.86-1.3 1.64v0c0 .93.75 1.69 1.69 1.69 0-.001 0-.001 0-.001v0c.69 0 1.31-.43 1.57-1.07v8.59 0c0 .93-.68 1.73-1.6 1.87h-.02c.83-.51.31-1.46.16-2.03 -.02-.04.01-.08.02-.1 .04-.08-.05-.26-.05-.26 -.1-.09-.13-.57-.19-.78 -.09-.36.15-.98.15-1.18 0-.21-.16-.5-.45-.86 -.07-.08-.28-1.86-.47-2.32 -.26-.63-.34-.53-.64-1.266 -.24-.53-.06-1.295-.59-3.09 0 0 .12-.12.12-.12s-.43-1.55-.57-1.98c-.14-.43-.39-.46-.39-.46s0-.18.01-.22c.02-.07.51-1.367.55-1.407 0-.03.71-.52.73-.45Z"/></svg>