<svg viewBox="0 0 24 24" xmlns="http://www.w3.org/2000/svg"><path d="M5.18 19.32L2.04 13.67v5.64H-.01V9.62h2.149l3.26 6.025V9.61h2.04v9.68Zm2.279-9.69V.52h1.14V9.63Zm0 13.82v-4.14h1.14v4.13Zm4.574-13.83c2.39 0 3.63 1.14 3.63 3.36v2.91c0 2.28-1.19 3.39-3.63 3.39H8.6V9.59Zm-.19 7.85c1.16 0 1.72-.59 1.72-1.78v-2.5c0-1.18-.58-1.76-1.73-1.76h-1.03v6.026Zm9.845 1.83l-1.73-3.718h-1.17v3.71h-2.15V9.6h3.38c2.38 0 3.51.94 3.51 2.96 0 1.33-.5 2.13-1.6 2.61l2.04 4.11Zm-1.57-5.48c.85 0 1.36-.5 1.36-1.32 0-.86-.38-1.18-1.37-1.18h-1.37v2.49h1.36Z"/></svg>