<svg viewBox="0 0 24 24" xmlns="http://www.w3.org/2000/svg"><path d="M21.496 8.8v0c-.83-.01-1.65.05-2.46.19 -.6.11-1.17.22-1.7.57 -.81.52-1.08 1.49-1.09 2.394 -.02.98.28 2.06 1.21 2.54 .73.38 1.53.55 2.35.62 1.39.11 2.79.1 4.17-.09v-.98c-1.04.19-2.11.31-3.19.15 -1.66-.24-1.93-1.48-1.93-2.29 0-.46.06-.99.48-1.53 .67-.87 2.66-.96 4.55-.59v-.86l0-.001c-.81-.1-1.62-.15-2.43-.15Zm-12.82.19v4.44c.03.74.29 1.51 1.83 1.58 1.814.07 3.54.04 5.334-.03v-.9c-.89.01-3.487 0-3.65 0 -.71-.05-.98-.26-1-.84l-.001-.001c-.02-.36-.02-.71-.02-1.06h4.177v-.84H11.17V9.8h4.58v-.86Zm-8.69 0v5.99h1.14v-4.254l3.383 3.76c.41.4.76.47 1.12.49h2.01v-6H6.48v4.39l-3.39-3.76c-.24-.23-.76-.64-1.2-.64Z"/></svg>