<svg viewBox="0 0 24 24" xmlns="http://www.w3.org/2000/svg"><path d="M14.13.04c-.18 0-.34.03-.49.08 .31.21.49.49.57.806 0 .04.01.07.02.11v0c0 .03.01.07.01.11 .02.54-.15.61-.26.93 -.18.41-.13.86.08 1.22h0c.01.04.04.09.07.13 -.24-1.57 1.07-1.81 1.314-2.293 .01-.43-.34-.72-.62-.92V.21c-.22-.14-.48-.22-.74-.21Zm1.97.35c-.03.14-.01.1-.02.18 -.01.05-.01.11-.02.16 -.02.05-.03.1-.05.14 -.02.05-.03.1-.05.14l-.07.14c-.02.02-.04.05-.05.07l-.04.05v0c-.03.04-.07.08-.1.12 -.04.03-.07.08-.12.11v0c-.04.03-.08.06-.12.1 -.13.09-.28.17-.42.266 -.05.03-.09.05-.13.09v0c-.05.02-.09.06-.12.09 -.05.03-.08.07-.12.11 -.04.03-.07.08-.1.12v0c-.04.04-.07.08-.09.13 -.03.05-.05.09-.07.14 -.02.05-.04.09-.05.14v0c-.02.05-.04.1-.05.15 -.01.02-.01.05-.02.08 -.01.02-.01.05-.02.07 0 .05-.01.1-.01.15 0 .03 0 .07 0 .11 0 .05 0 .1.01.15 0 .05.01.1.03.15 .02.04.03.09.05.14 .01.03.03.06.04.08l-1.43-.552c-.25-.07-.48-.13-.72-.19l-.39-.1c-.38-.08-.75-.13-1.13-.17 -.02 0-.02-.01-.04-.01V2.74c-.64-.07-1.29-.08-1.93-.03 -.38.02-.76.07-1.14.13v0c-.29.04-.57.1-.84.17l-.28.07c-.1.03-.18.08-.266.11l-.21.09c-.02 0-.03 0-.03.01 -.07.03-.12.05-.18.08L5.8 3.372c-.09.03-.16.07-.24.11 -.05.01-.09.04-.13.06v-.001c-.02.01-.04.02-.06.03 -.06.03-.12.06-.17.09V3.66c-.06.02-.11.05-.15.09 -.05.03-.09.05-.13.08 -.01 0-.02 0-.02.01 -.04.02-.08.05-.12.08l-.02.01 -.1.07c-.02 0-.03.01-.04.02 -.04.02-.07.05-.1.08 -.01.01-.02.02-.03.02 -.04.03-.08.06-.12.1 -.01 0-.01 0-.02.01l-.001 0c-.04.03-.08.06-.12.1 -.01 0-.01.01-.02.01h0c-.04.03-.07.06-.1.1 -.02.01-.03.02-.05.03v0c-.04.03-.07.07-.11.11 -.01.01-.02.01-.03.03 -.05.05-.1.1-.15.15l-.02.01c-.1.1-.21.21-.32.3 -.12.1-.23.19-.347.27h0c-.24.16-.5.31-.762.42 -.13.05-.27.1-.403.14 -.26.05-.53.16-.756.18 -.05 0-.11.01-.16.01l-.16.03 -.15.05c-.05.01-.1.04-.15.06 -.05.03-.1.05-.137.08H.4c-.05.03-.09.06-.124.1 -.05.03-.09.07-.13.11 -.04.04-.08.08-.11.12 -.04.05-.068.09-.1.14h0c-.04.04-.07.09-.09.14 -.03.05-.05.1-.068.16 -.02.05-.04.1-.06.16 -.02.05-.025.1-.03.15 0 0-.01.01-.01.01 -.012.05-.012.13-.02.16 -.01.04-.02.08-.02.12v0c-.01.1.02.21.07.31v0c.01.03.044.07.069.11 .02.03.05.07.08.11 .03.03.068.06.1.1H-.04c.03.03.07.06.11.09 .14.13.186.17.37.27 .03.01.06.03.1.05 0 0 .01 0 .01 0 0 .01 0 .01 0 .03h0c.01.1.04.2.08.29 .02.03.03.07.05.11 0 .01.01.02.02.03 .02.05.04.09.07.13l.09.13c.03.03.06.08.1.11 .03.03.07.06.11.1 0 0 0 0 .01 0 .03.03.07.06.11.08h0c.04.03.08.05.13.08 .04.02.09.05.14.06h0c.03.01.08.03.12.04 0 0 .01 0 .02.01 .02 0 .05.01.08.01 -.02.33-.03.65.02.76 .05.12.32-.26.6-.69 -.04.42-.07.93 0 1.07 .06.15.44-.33.76-.87 4.395-1.016 8.4 2.02 8.826 6.31 -.08-.67-.91-1.05-1.29-.95 -.19.45-.51 1.04-1.01 1.41 .04-.41.02-.83-.07-1.24h0c-.14.57-.41 1.1-.77 1.56 -.59.04-1.18-.25-1.487-.67 -.03-.02-.04-.06-.05-.08 -.02-.05-.04-.09-.05-.13h0c-.02-.05-.04-.09-.04-.13 -.01-.05-.01-.09-.01-.14v-.1l-.001 0c0-.05.01-.09.03-.13 .01-.05.02-.09.04-.13 .02-.05.04-.09.07-.13 .1-.3.1-.54-.09-.69l0-.001c-.04-.03-.08-.05-.12-.07 -.03-.01-.06-.02-.08-.03l-.05-.02H6.9c-.05-.02-.09-.03-.13-.04v0c-.05-.02-.09-.02-.13-.02v0c-.05-.01-.1-.02-.14-.02 -.04 0-.07 0-.1 0v0c-.05-.01-.1 0-.14.01 -.05 0-.09.01-.13.02v0c-.05.01-.09.02-.13.04 -.05.01-.08.03-.13.05 -.04.01-.08.04-.12.06 -1.444.94-.59 3.14.4 3.78 -.38.06-.75.14-.86.22l-.02.01c.26.16.54.29.83.41 .39.13.81.24 1 .29v0 -.001c.51.1 1.03.14 1.56.11 2.74-.2 4.996-2.29 5.4-5.04l.03.16c.01.11.04.23.05.34v0c.01.05.01.11.02.16v.02c0 .05.01.11.01.16 0 .06.01.13.01.2v.1c0 .03 0 .06 0 .09s-.01.07-.01.11v.08c0 .04-.01.08-.01.12 0 .02 0 .05-.01.08 0 .04-.01.08-.01.13 -.01.01-.01.03-.01.05l-.02.14c0 .01 0 .03-.01.05 -.01.06-.02.11-.03.18v.01l-.04.17v.01l-.04.16s-.01.02-.01.02v0c-.02.05-.03.11-.05.16v.01c-.02.06-.04.11-.05.17 -.01 0-.01.01-.01.01l-.06.18c-.03.06-.05.11-.07.18 -.03.06-.05.12-.07.18 -.03.06-.05.11-.08.18h-.01c-.03.05-.05.11-.08.17h0c-.01.01-.02.02-.02.04 -.01 0-.01.01-.02.01v0c-.41.82-1.01 1.53-1.75 2.08 -.05.03-.1.06-.15.1 -.02.01-.03.01-.05.03v0c-.05.03-.09.06-.14.09l.01.03h0l.26-.04h0c.16-.03.32-.06.48-.09 .04-.01.09-.02.13-.04l.08-.02c.04-.01.08-.02.13-.03 .03-.02.07-.02.11-.04 .62-.15 1.221-.36 1.798-.6h0c-1 1.35-2.33 2.43-3.85 3.14 .71-.05 1.42-.17 2.11-.37v0c2.49-.74 4.59-2.42 5.85-4.68v0c-.26 1.43-.83 2.79-1.67 3.98v-.001c.6-.4 1.15-.86 1.65-1.38h-.001c1.38-1.45 2.29-3.29 2.61-5.27 .21.98.27 1.99.18 2.98C25.72 12.17 21.62 5.7 19.9 4c-.01-.02-.02-.02-.02-.04 -.01 0-.01 0-.01.01 0-.01 0-.01-.01-.02 0 .07-.01.14-.02.22v0c-.02.13-.04.27-.07.41 -.03.13-.07.27-.11.41 -.05.13-.1.266-.15.39l0 0c-.06.12-.12.25-.19.37V5.75c-.14.24-.3.47-.48.68 -.1.11-.2.21-.3.31v0c-.06.05-.12.1-.18.15l-.15.12v0c-.12.08-.23.16-.35.24v0c-.12.07-.25.14-.37.21 -.13.06-.26.11-.39.17v0c-.27.1-.54.17-.82.22 -.15.02-.29.03-.43.05v0c-.1 0-.2.01-.3.01v0c-.15-.01-.29-.02-.43-.03l0-.001c-.15-.02-.29-.04-.43-.07v0c-.15-.03-.28-.07-.42-.11h-.01c.13-.02.27-.03.41-.05v0c.27-.05.55-.13.81-.23 .13-.05.26-.12.39-.18 .13-.07.24-.13.37-.21 .11-.08.23-.17.34-.25 .11-.09.21-.18.31-.28 .1-.1.19-.2.29-.31 .09-.12.18-.23.26-.34 .01-.02.02-.05.03-.07 .06-.1.12-.2.18-.3V5.47c.13-.25.24-.51.33-.78 .04-.13.07-.266.1-.41 .02-.15.05-.28.06-.42 .01-.15.02-.29.02-.43 0-.1-.01-.2-.02-.3v0c-.02-.14-.03-.28-.05-.42V2.71c-.03-.14-.06-.28-.1-.42 -.05-.13-.09-.27-.14-.4 -.05-.13-.12-.26-.18-.39 -.07-.13-.14-.25-.22-.37V1.13c-.08-.12-.17-.23-.25-.34 -.1-.11-.19-.22-.29-.32V.47c-.06-.06-.11-.11-.17-.16 -.28-.22-.57-.43-.87-.61V-.3c-.05-.03-.09-.05-.13-.07V-.37c-.19-.12-.39-.21-.59-.26Z"/></svg>