<svg viewBox="0 0 24 24" xmlns="http://www.w3.org/2000/svg"><path d="M22.399 13.36v0c-.18-.21-.37-.4-.57-.57v0c-1.17-1.04-2.68-1.61-4.24-1.6h-4.8V6.38v0c0-1.56-.57-3.07-1.6-4.24v0c-.18-.21-.37-.39-.57-.57v0c-2.65-2.34-6.7-2.09-9.03.55C.54 3.29-.03 4.79-.03 6.35v4.79l-.001-.001c0 .88.71 1.59 1.59 1.59h9.59v4.79h0c-.01 1.12.29 2.22.85 3.19l.08.14v0c.19.31.41.61.66.89h-.001c.17.19.36.38.56.56h-.001c.27.24.57.46.89.65l.14.08v0c2.38 1.37 5.37 1.07 7.43-.75v0c.19-.18.38-.37.56-.57v0c2.13-2.42 2.13-6.05 0-8.47Zm-11.2-2.18h-9.6v-4.8 0c.05-2.65 2.24-4.76 4.89-4.7 2.57.05 4.64 2.12 4.69 4.69Zm6.39 11.19v0c-1.19 0-2.33-.44-3.2-1.23l-.001 0c-.14-.12-.27-.25-.38-.38H14c-.79-.88-1.23-2.02-1.23-3.2v-4.8h4.79v0c2.64.05 4.75 2.24 4.69 4.89 -.06 2.57-2.13 4.64-4.7 4.69Z"/></svg>