<svg viewBox="0 0 24 24" xmlns="http://www.w3.org/2000/svg"><path d="M14.65 9.997v0c-.04-.01-.07.02-.07.06 -.01 0-.01 0-.01 0v1.41c-.13-.18-.42-.37-.81-.37 -.75 0-1.32.65-1.32 1.44 0 .78.57 1.44 1.31 1.44 .38 0 .68-.2.8-.38v.22c0 .05.04.09.09.09h.6v0c.03 0 .07-.04.07-.07v-3.81 0c0-.04-.04-.07-.07-.07 -.01-.01-.01 0-.01 0Zm-3.92.4v0c-.04 0-.07.03-.07.07 0 .77.06.7-.51.7v0c-.05 0-.09.04-.09.09v.48c0 .05.04.08.09.08h.5v1.13c0 .67.47 1 1.07 1 .18 0 .32-.02.43-.05h-.001c.03-.01.05-.04.05-.07v-.53 0c-.01-.04-.04-.07-.08-.07 -.01 0-.01 0-.02 0v0c-.08.01-.16.02-.23.02 -.33 0-.48-.14-.48-.47v-.99h.6v0c.03 0 .06-.04.07-.07v-.53 0c0-.04-.04-.07-.07-.07 -.01-.01-.01 0-.01 0h-.61v-.71h0c0-.04-.03-.07-.07-.07 -.01-.01-.01-.01-.01-.01Zm-8.396.67c-.52 0-.96.23-1.21.59 -.02.03-.06.09-.11.09 -.23 0-.24-.28-.247-.53v-.001c-.01-.04-.04-.07-.07-.07l-.653-.01h0c-.04 0-.07.03-.07.07 .014.6.126 1.01.86 1.18 .04.01.06.04.06.08v1.36c0 .03.03.06.06.06h.63v0c.03-.01.06-.04.06-.07v-1.41c0-.32.22-.67.64-.67 .4 0 .64.35.64.66V13.8c0 .03.03.06.06.06h.63v0c.03-.01.06-.04.06-.07v-1.51c0-.72-.62-1.29-1.42-1.29Zm3.2.03c-.851 0-1.48.62-1.48 1.44 0 .87.65 1.43 1.48 1.44 .65.01 1.09-.37 1.194-.5h0c.02-.03.01-.08-.02-.1 -.01-.01-.01-.01-.01-.01l-.44-.34c-.05-.05-.09-.03-.12 0 -.07.05-.21.22-.63.23 -.37.01-.7-.21-.75-.58h2.03l0-.001c.03-.01.06-.03.06-.07 0-.09 0-.15 0-.2 0-.9-.65-1.37-1.38-1.37Zm11.65 0c-.82 0-1.48.63-1.48 1.44 0 .81.66 1.44 1.47 1.44 .81 0 1.47-.64 1.47-1.45 0-.81-.66-1.45-1.48-1.45Zm3.22 0c-.82 0-1.48.63-1.48 1.44 0 .81.66 1.44 1.47 1.44 .81 0 1.47-.64 1.47-1.45 0-.81-.66-1.45-1.48-1.45Zm3.314.02v0c-.31-.01-.59.18-.7.47v-.38h-.001c0-.04-.04-.07-.07-.07h-.63 -.001c-.04-.01-.07.02-.07.06 -.01 0-.01 0 0 0v2.63 0c0 .03.03.06.07.06h.62v0c.03 0 .07-.04.07-.07v-1.26c0-.46.24-.74.6-.74 .09 0 .17.01.26.03h-.001c.03 0 .07-.02.08-.05 0-.01 0-.02 0-.02v-.63h0c-.01-.04-.03-.07-.06-.07v-.001c-.07-.02-.14-.03-.21-.02Zm-16.666.03v0c-.04-.01-.07.02-.08.06 -.01.01 0 .02.01.04l.88 1.3 -.9 1.24v0c-.03.03-.02.07.01.09 .01 0 .02.01.03.01h.74v0c.02-.01.04-.02.05-.03l.56-.79 .56.79h0c.01.01.03.02.05.03h.74v0c.03 0 .06-.03.07-.07 0-.02-.01-.04-.02-.05l-.9-1.25 .88-1.31v0c.02-.04.01-.08-.02-.1 -.02-.01-.03-.02-.05-.02h-.74v0c-.03-.01-.05.01-.06.03l-.548.81 -.55-.82v0c-.02-.02-.04-.03-.06-.03Zm-1.56.56c.28 0 .56.15.633.48H4.81c.07-.34.39-.49.67-.49Zm8.41.06c.42 0 .7.32.7.75s-.29.75-.71.75 -.71-.33-.71-.76c0-.44.28-.76.7-.76Zm3.26.01c.4 0 .69.31.69.73s-.3.73-.7.73c-.41 0-.7-.31-.7-.74s.29-.74.7-.74Zm3.22 0c.4 0 .69.31.69.73s-.3.73-.7.73c-.41 0-.7-.31-.7-.74s.29-.74.7-.74Z"/></svg>