<svg viewBox="0 0 24 24" xmlns="http://www.w3.org/2000/svg"><path d="M23.958 1.98C23.88 1 23.13.256 22.13.19c-1.11-.07-4.67-.12-5.7-.12 1.83 1.264 2.08 3.64 2.25 8.066 .1 2.62.01 11.799 0 12.18l-.05 2.5L9 13.193v-3.02l7.65 7.65c.02-1.52.04-3.5.04-5.3 0-1.76-.03-3.36-.08-4.193 -.29-4.82-.74-7.08-3.253-7.97C12.59.09 11.87.02 10.68 0c-.99-.02-7.87-.01-8.87.04C.75.09.04.86-.01 1.84c-.05.97-.07 19.17 0 20.16 .06.98.81 1.72 1.812 1.78 1.1.06 4.66.07 5.69.07 -1.84-1.27-2.09-3.65-2.26-8.066 -.1-2.62-.01-11.8 0-12.19l.04-2.51 9.62 9.63v3.013L7.23 6.07c-.02 1.51-.04 3.49-.04 5.29 0 1.76.02 3.35.07 4.192 .28 4.82.73 7.07 3.252 7.962 .77.27 1.487.33 2.683.35 .98.01 7.86 0 8.861-.05 1.05-.06 1.76-.83 1.81-1.811 .04-.98.06-19.13 0-20.12"/></svg>