<svg viewBox="0 0 24 24" xmlns="http://www.w3.org/2000/svg"><path d="M18.951 7.59v6.71h1.46v-1.69l1.61 1.69h1.97v-.08l-2.13-2.16 2-1.846v-.07h-1.93l-1.54 1.49V7.57ZM16.021 10v0c-.66-.02-1.3.2-1.79.63v-.001c-.45.39-.71.95-.71 1.55 -.01.75.31 1.28.7 1.64 .52.47 1.221.62 1.76.62 .66 0 1.34-.2 1.8-.62 .52-.49.71-1.029.71-1.61 0-.73-.31-1.25-.71-1.61 -.56-.48-1.21-.63-1.79-.63Zm-9.07.03c-1.19-.01-2.1.97-2.104 2.25 -.01 1.29.9 2.1 2.03 2.096 .66 0 .98-.25 1.3-.55v1.19H6.8l-1.03 1.15v.2h3.86v-6.24h-1.47v.43c-.39-.41-.78-.55-1.24-.56Zm-4.805.11l-.7.78v-.78H-.02v4.15h1.46v-2.8c.54 0 1.023-.01 1.49-.01v2.8h1.46v-2.6c-.01-.55-.1-.82-.31-1.061v0c-.23-.28-.56-.47-.92-.51Zm8.11 0v4.15h1.468l0-2.779h1.06l1.16-1.314v-.06h-1.6l-.64.71v-.72Zm-2.95 1.11c.5 0 .96.44.94.94v0c-.01.52-.43.94-.95.94 -.53 0-.931-.41-.95-.95 -.01-.52.44-.94.94-.95Zm8.703 0c.52 0 .94.43.94.95 -.03.54-.42.95-.95.95s-.94-.42-.95-.95h0c0-.53.42-.95.95-.95Z"/></svg>