<svg viewBox="0 0 24 24" xmlns="http://www.w3.org/2000/svg"><path d="M14.176 24h3.67c3.37 0 6.15-2.78 6.15-6.15V6.15c0-3.38-2.78-6.15-6.15-6.15h-3.75c-.08 0-.15.07-.15.15v23.7c-.01.07.07.15.22.15Zm4.574-13.199c1.35 0 2.39 1.125 2.39 2.39 0 1.35-1.125 2.4-2.4 2.4 -1.35 0-2.4-1.05-2.4-2.4 -.08-1.35 1.05-2.4 2.4-2.4ZM11.4 0H6.15C2.77 0 0 2.775 0 6.15v11.7C0 21.22 2.775 24 6.15 24h5.25c.07 0 .15-.08.15-.15V.14c0-.08-.08-.15-.15-.15ZM9.67 22.05H6.14c-2.33 0-4.21-1.875-4.21-4.21V6.14c0-2.33 1.875-4.201 4.2-4.201h3.45l.07 20.102ZM3.74 7.19c0 1.27.97 2.25 2.25 2.25 1.27 0 2.25-.98 2.25-2.25 0-1.28-.98-2.25-2.25-2.25 -1.28 0-2.25.97-2.25 2.25Z"/></svg>