<svg viewBox="0 0 24 24" xmlns="http://www.w3.org/2000/svg"><path d="M17.65 16.63v0c-.01.39.31.71.71.71 .39 0 .71-.32.71-.72 0-.01 0-.01 0-.01v0c0-.4-.32-.72-.72-.72 -.4-.01-.72.31-.72.71 0 0 0 0 0 0m-9.45 4.23h7.57c.3 0 .52-.23.54-.53v-5.18c-.02-.29-.27-.53-.55-.51H8.16v0c-.3-.01-.54.23-.55.52v5.15c0 .3.24.52.54.52Zm13.05-3.53v0c.4 0 .72-.33.72-.73 0-.01 0-.01 0-.01v0c0-.41-.33-.74-.73-.74 -.41-.01-.74.32-.74.72 -.01.4.32.73.72.73 0 0 0 0 0 0Zm-1.45-.02v0c-.4-.02-.73.29-.74.68 -.02.39.29.72.68.73 .01 0 .03 0 .05-.01v0c.39-.02.7-.35.68-.75 -.02-.38-.32-.68-.69-.69Zm-.72-2.14v0c-.01.39.31.71.71.71 .39 0 .71-.32.71-.72 0-.01 0-.01 0-.01v-.001c0-.4-.32-.72-.72-.72 -.4-.01-.72.31-.72.71 0 0 0 0 0 0M2.48 16.52h0c-.01.91.73 1.65 1.65 1.65 .91 0 1.65-.74 1.65-1.65 0-.01 0-.01 0-.01v0c0-.92-.74-1.65-1.65-1.65 -.92-.01-1.65.73-1.65 1.65 -.001 0-.001 0 0 0M21.21-.11H2.66V-.11C1.15-.12-.08 1.1-.08 2.61V21.16c.01 1.51 1.23 2.73 2.738 2.73h18.52v0c1.5 0 2.73-1.22 2.75-2.72V2.62c-.02-1.52-1.24-2.74-2.74-2.74Zm1.91 21.281v0c-.01 1.05-.86 1.9-1.92 1.91H2.65v0c-1.06-.01-1.91-.86-1.92-1.92v-8.46h22.36v8.45Zm0-9.7H.75V2.63H.75C.75 1.57 1.6.72 2.66.71H21.2c1.04-.001 1.91.86 1.91 1.91v8.85m-5.78-8.48H6.45c-.3 0-.55.26-.55.56v5.47c0 .3.22.56.54.56h10.87v0c.3-.01.54-.25.54-.56 -.01-.01-.01-.01-.01-.02V3.5h0c0-.3-.25-.55-.55-.55 -.01-.01-.01-.01-.01 0Z"/></svg>