<svg viewBox="0 0 24 24" xmlns="http://www.w3.org/2000/svg"><path d="M20.576 14.955l-.01.02c-1.25 3.64-4.69 6.086-8.561 6.086 -3.88 0-7.32-2.45-8.57-6.09l-.01-.03H.69v.32l1.133.13c.7.08.847.39 1.03.78l.04.09c1.638 3.49 5.2 5.75 9.08 5.75 3.87 0 7.44-2.26 9.081-5.747l.04-.1c.19-.39.33-.7 1.03-.79l1.13-.14v-.33ZM3.44 9.012c1.24-3.65 4.68-6.09 8.562-6.09 3.87 0 7.31 2.447 8.562 6.09l.01.02h2.72v-.33l-1.14-.14c-.7-.09-.85-.39-1.04-.79l-.05-.1c-1.64-3.49-5.21-5.75-9.09-5.75 -3.89 0-7.45 2.25-9.081 5.752l-.05.09c-.19.39-.34.7-1.038.78l-1.133.13v.32H3.39Zm13.86 1.58l-1.75 2.79h.75l.31-.5h2.03l.31.5h.74l-1.75-2.8Zm1.03 1.76h-1.4l.7-1.13Zm2.81-1.07l2.07 2.09h.78v-2.8h-.62v2.08l-2.07-2.09h-.8v2.79h.61Zm-21.15 2.09H.61v-2.1l2.07 2.09h.78v-2.8h-.62v2.08L.77 10.55h-.8Zm4.843-2.8h.61v2.79h-.62Zm4.48 2.2c-.02 0-.1 0-.13 0H6.71v.57h2.5c.01 0 .16 0 .19-.01 .51-.05.74-.48.74-.843 0-.39-.25-.79-.71-.84 -.09-.01-.17-.01-.2-.01H7.59v0c-.07 0-.13-.01-.19-.02 -.13-.04-.18-.15-.18-.25 0-.09.04-.2.18-.24h-.001c.05-.02.11-.02.17-.02h2.35v-.57h-2.4c-.1 0-.18 0-.24.01v0c-.41.04-.71.39-.7.8 0 .34.21.74.68.81 .08 0 .2 0 .258 0h1.59c.02 0 .1 0 .11 0 .18.02.24.15.24.27v0c0 .13-.1.24-.23.26Zm4.657 0c-.02 0-.1 0-.13 0h-2.46v.57h2.5c.01 0 .16 0 .19-.01 .51-.05.74-.48.74-.843 0-.39-.25-.79-.71-.84 -.09-.01-.17-.01-.2-.01h-1.64v0c-.07 0-.13-.01-.19-.02 -.13-.04-.18-.15-.18-.25 0-.09.04-.2.18-.24h0c.05-.02.11-.02.17-.02h2.35v-.57h-2.4c-.1 0-.18 0-.24.01v0c-.41.04-.71.39-.7.8 0 .34.21.74.68.81 .08 0 .2 0 .25 0h1.59c.02 0 .1 0 .11 0 .18.02.24.15.24.27v0c0 .13-.1.24-.23.26Z"/></svg>