<svg viewBox="0 0 24 24" xmlns="http://www.w3.org/2000/svg"><path d="M7.35 1.59l-1.37 0 -.67 1.156 1.55 2.71 -3.137-.01 -1.32 2.34h11.69l-1.36-2.34 -3.192-.01 -2.22-3.865Zm6.175 0l-2.69.02 5.846 10.127 1.34-2.34 -1.59-2.77 2.24-3.85 -.69-1.19h-1.34L15.07 4.29l-1.56-2.72Zm6.88 4.19L14.55 15.9l2.69-.01 1.6-2.76 4.45.01 .68-1.19 -.67-1.157 -3.13-.01 1.57-2.72 -1.37-2.32ZM9.41 8.07l-2.7 0L5.11 10.83 .66 10.81l-.69 1.18 .66 1.157 3.13 0 -1.58 2.71 1.36 2.31L9.38 8.04ZM7.3 12.234l-.01.01 -.01-.01 -1.35 2.34 1.59 2.76 -2.24 3.85 .68 1.18h1.33l0-.01h0l1.56-2.7 1.55 2.72 2.68-.03 -.01-.01h.01L7.23 12.2Zm2.55 3.93l1.35 2.33 3.192 0 2.215 3.86 1.36-.01 .66-1.16 -1.56-2.72 3.13 0 1.32-2.34H9.82Z"/></svg>