<svg viewBox="0 0 24 24" xmlns="http://www.w3.org/2000/svg"><path d="M3 0C1.338 0 0 1.338 0 3v6.1h2.85c1.092 0 1.97.86 1.96 1.96v.02c.81-.1 1.31-.36 1.67-.69 .41-.39.69-.91 1.016-1.5 .32-.59.71-1.25 1.4-1.73 .57-.4 1.35-.65 2.38-.69v-.45c0-1.1.88-1.976 1.97-1.976h7.89c1.09 0 1.97.88 1.97 1.976v1.94c0 1.09-.89 2.029-1.98 2.029h-7.9c-1.1 0-1.98-.94-1.98-2.03v-.46c-.86.03-1.41.23-1.798.5 -.48.33-.78.8-1.09 1.36 -.32.56-.63 1.22-1.23 1.763l-.08.06c3.07.41 4.465 1.55 5.651 2.593 1.39 1.21 2.47 2.27 6.3 2.28v-.46c0-1.1.89-1.95 1.98-1.95h2.942V2.92c0-1.67-1.34-3-3-3Zm10.276 5.41c-.37 0-.69.26-.69.63v1.94c0 .36.31.63.68.63h7.89v0c.33.01.62-.26.63-.6 0-.02 0-.03-.01-.05V6.01 6c.01-.34-.26-.63-.6-.64 -.02-.01-.03-.01-.05-.01ZM0 10.44v3.26h2.85v0c.37-.01.67-.32.67-.69v-1.95c0-.37-.31-.64-.68-.64Zm4.821 1.67v.907 0c0 1.08-.87 1.96-1.96 1.97 -.01 0-.01 0-.01 0H-.01v6c0 1.66 1.338 3 3 3h18c1.66 0 3-1.34 3-3v-1.4h-2.942c-1.1 0-1.99-.92-1.99-2.01v-.45c-4.05-.04-5.6-1.34-6.99-2.55 -1.44-1.26-2.76-2.44-7.268-2.5Zm16.23 2.88v0c-.36-.01-.65.28-.65.64 -.01 0 0 .01 0 .01v1.94c0 .36.27.61.64.61h2.942v-3.22Z"/></svg>