<svg viewBox="0 0 24 24" xmlns="http://www.w3.org/2000/svg"><path d="M8.8 11.99c0-.98.78-1.77 1.75-1.77s1.75.78 1.75 1.76c0 .97-.79 1.76-1.76 1.76 -.98 0-1.76-.79-1.76-1.77Zm13.02-2.9l-1.22 2.45 -.79-2.32 -.01-.01c-.16-.46-.59-.78-1.09-.78 -.4 0-.76.2-.96.51 -.53.8-1.05 1.6-1.58 2.41l-.28-1.96c-.1-.63-.69-1.06-1.31-.97 -.63.09-1.06.67-.96 1.3l.04.32c-.65-1.08-1.82-1.8-3.16-1.8 -1.36 0-2.54.73-3.18 1.82l.07-.35c.12-.61-.27-1.19-.87-1.31 -.6-.13-1.19.26-1.31.86l-.48 2.33 -1.76-2.72c-.2-.31-.54-.51-.93-.51 -.54 0-.98.37-1.09.87l-1.03 5.01c-.13.6.25 1.18.85 1.31 .07.01.15.02.22.02 .51 0 .97-.36 1.08-.9l.47-2.34c.59.92 1.18 1.84 1.77 2.76 .19.27.52.46.9.46 .54 0 1-.4 1.09-.93l.46-2.31c.22 1.81 1.77 3.21 3.64 3.21 1.72 0 3.17-1.2 3.57-2.8l.26 1.75c.07.57.54 1.03 1.14 1.03 .42 0 .77-.25.99-.59l1.88-2.9 .9 2.66c.16.47.58.81 1.09.81 .47 0 .85-.29 1.06-.72l2.4-4.85c.28-.57.05-1.26-.52-1.55 -.57-.29-1.26-.06-1.54.51Z"/></svg>