<svg viewBox="0 0 24 24" xmlns="http://www.w3.org/2000/svg"><path d="M3.35 8.258h-.001c-.29 0-.57.04-.85.12l.05-.02 0 0c-.3.07-.58.19-.85.34h0c-.09.05-.18.1-.27.16h0c-.04.02-.08.05-.11.07H1.31c-.01 0-.02.01-.03.02v0c-.01 0-.01 0-.01 0l-.001-.001c-.04.02-.07.05-.11.08v0c-.04.03-.08.06-.12.1v0c-.02.01-.04.02-.05.04V9.16c-.03.02-.06.05-.08.08v0c-.04.03-.07.07-.1.1h0c-.02.01-.03.02-.03.03H.78c-.03.02-.05.05-.08.08h0c-.02.01-.03.02-.04.04L.66 9.49c-.03.02-.05.05-.07.08h0c-.01 0-.01 0-.01 0h0c-.03.03-.05.06-.08.1l0-.001c-.01 0-.01.01-.02.02v0c-.03.04-.06.08-.09.13H.39c-.03.04-.06.08-.08.12h0c-.01 0-.01.01-.02.02H.29c-.03.03-.05.07-.07.12v-.001c-.03.04-.05.09-.07.14H.15c-.02.04-.04.08-.06.13H.09c-.01 0-.01.01-.01.02H.08c-.06.14-.1.28-.14.43l-.001 0c-.02.05-.03.1-.04.15v0c-.01.04-.02.09-.03.14h0c-.01 0-.01 0 0 .01l-.001 0c-.02.1-.03.2-.03.3h0c-.01.04-.01.09-.01.14l-.001 0c-.01.01-.01.02 0 .04H-.18c0 .04 0 .08 0 .12v0c0 .05 0 .1.01.15H-.17c0 .04 0 .09.01.14l-.001-.001c0 .01 0 .03.01.05l-.001-.001c0 .03.01.07.01.1h0c-.01 0-.01 0 0 0H-.14c0 .04.01.08.02.12l0 0c.01.05.02.1.03.15h0c.02.1.05.19.09.29h0c.01.04.03.09.05.14H.05c.11.26.25.51.43.74 .01.02.02.02.04.04H.52s0 0 0 .01v0c.09.11.19.22.3.33l.01.01c.1.09.16.13.137.12 0 0 .02.01.03.01v0s.01.01.01.01v0c-.08-.02-.15-.05-.21-.08v0c-.12-.07-.26-.1-.39-.09L.4 13.94c-.39.02-.68.35-.66.73 0 .07.01.14.04.21l0 0c.18-.07.37-.11.56-.12H.345c.11-.01.22-.01.34 0H.684c.09 0 .18.01.28 0 .05-.01.09-.01.14-.02l-.001-.001c.2-.04.4-.11.58-.21v0c.14.06.28.12.43.17v0c.98.28 2.04.21 2.98-.2v0c.04-.03.08-.05.11-.08l-.001-.001c.02.01.04.02.07.03l1.78.16v.86h1.37v-.734l1.12.1 -4.204-.76v-.001c-.01-.01-.01-.01-.02-.01 -.01-.1-.1-.18-.13-.22h0c-.02-.02-.03-.05-.03-.07v0c-.06-.81-.7-1.46-1.5-1.52h0c-.05-.08-.11-.15-.18-.2h0c-.13-.1-.19-.25-.19-.4l0 0c-.25.02-.45.2-.5.44l0-.001c-.69-.35-.98-1.18-.63-1.87 .06-.14.14-.26.25-.36v0c.34-.37.81-.57 1.31-.57v0c.82-.01 1.54.55 1.76 1.35v0c-.14.16-.33.28-.55.32v0c-.38.06-.68.36-.74.74 .35 0 .585.47 1.23.47h0c.24 0 .45-.15.54-.37v0c.09.22.3.36.54.36v-.001c.16 0 .33-.04.49-.11v2l1.37.32v-1.6l2.19 2.6h1.15v-4.89h-1.38v2.6l-2.19-2.61H6.96v.42c-.29-.05-.556-.26-.65-.52l0-.001C5.88 8.86 4.5 7.83 2.94 7.86Zm18.75 1.7v4.414c0 1.186.76 1.33 1.48 1.33 .21 0 .4-.02.4-.02v-1.03s-.08 0-.17 0c-.31 0-.375-.12-.375-.46V9.93Zm-6.82 1.93l0 0c-.25 0-.49.04-.71.12h0c-.21.07-.4.21-.54.38v-.46h-1.29v3.79h1.34v-1.74c0-.32.08-.56.24-.71 .16-.16.39-.23.67-.23v0c.1 0 .2 0 .3.01v-1.2 0c-.02-.01-.04-.01-.05 0Zm.58.06l1.09 3.78h1.3l.47-1.74 .45 1.73h1.3l1.09-3.79H20.37l-.54 1.93 -.52-1.94h-1.15l-.55 1.91 -.52-1.92Zm-12.29 2.14c.03 0 .07.01.11.02 .09.02.17.02.15.1l-.001 0c-.03.09-.13.14-.22.11 -.09-.03-.14-.11-.12-.2 .01-.05.03-.06.06-.06Z"/></svg>