<svg viewBox="0 0 24 24" xmlns="http://www.w3.org/2000/svg"><path d="M12.025-.001h-.001c-.69-.01-1.37.17-1.97.52l-8.71 5.02v.95h15.853v0c1.45-.01 2.79-.82 3.46-2.115L13.907.49V.49c-.58-.33-1.24-.51-1.9-.51Zm9.81 5.072l-7.93 13.72h0c-.73 1.26-.69 2.82.1 4.05l6.734-3.91v0c1.18-.7 1.91-1.98 1.91-3.35V5.53l-.83-.48ZM1.46 7.84v0c-.04 0-.08 0-.12 0l.01 7.78 0 0c0 1.37.74 2.64 1.94 3.33l8.7 5.02 .82-.48 -7.926-13.73v0c-.71-1.23-2.03-1.98-3.45-1.95Zm10.532 1.25v0c-1.43 0-2.59 1.17-2.59 2.6v0c0 1.43 1.16 2.59 2.6 2.599v-.001c1.43-.001 2.6-1.17 2.6-2.6v0c-.001-1.44-1.17-2.6-2.6-2.6v0c-.01-.01-.02-.01-.02 0Z"/></svg>