<svg viewBox="0 0 24 24" xmlns="http://www.w3.org/2000/svg"><path d="M.39 3.61v0c-.22 0-.4.17-.393.39 -.001.12.05.22.14.29l8.506 7.404H8.64c.15.14.17.39.02.55 -.02.01-.03.02-.04.03L.1 19.68H.1c-.16.15-.16.4 0 .55 .07.07.17.11.27.11h4.86v0c.09-.01.19-.04.26-.11l9.17-7.98v0c.16-.15.18-.4.03-.56 -.02-.02-.03-.03-.04-.04L5.48 3.66v0c-.08-.07-.17-.11-.27-.11Zm18.35 0v0c-.11 0-.21.04-.28.11l-4.72 4.106v0c-.17.13-.19.38-.06.55 0 0 0 0 .01.01l2.42 2.11v0c.07.08.17.12.29.13v0c.1-.01.2-.05.27-.12l7.12-6.21v-.001c.09-.08.15-.19.15-.31v0c0-.22-.18-.4-.4-.4Zm-2.31 9.74c-.12 0-.22.05-.3.13L13.7 15.59v0c-.15.16-.14.4.02.55 0 0 0 0 .01.01l4.71 4.1c.07.07.16.11.27.11h4.85v0c.21 0 .39-.18.39-.4 0-.13-.06-.24-.16-.32l-7.13-6.21v-.001c-.08-.08-.18-.12-.28-.12Z"/></svg>