<svg viewBox="0 0 24 24" xmlns="http://www.w3.org/2000/svg"><path d="M8.94 8.79V7.36v0c.14-.02.28-.02.42-.02 3.92-.13 6.493 3.37 6.493 3.37s-2.78 3.85-5.75 3.85c-.4 0-.79-.07-1.16-.19V10.02c1.52.18 1.83.85 2.747 2.38l2.04-1.72s-1.5-1.96-4-1.96v0c-.27-.01-.54 0-.8.03m0-4.74V6.15l.42-.03c5.45-.19 9.01 4.47 9.01 4.47s-4.08 4.96-8.33 4.96c-.37 0-.74-.04-1.1-.1v1.32c.3.03.61.06.91.06 3.95 0 6.82-2.03 9.593-4.41 .45.37 2.34 1.26 2.73 1.65 -2.64 2.2-8.772 3.98-12.253 3.98 -.34 0-.66-.02-.98-.06v1.86h15.03V3.97Zm0 10.326v1.13c-3.657-.66-4.673-4.46-4.673-4.46s1.758-1.95 4.673-2.27v1.23h-.01c-1.53-.19-2.73 1.24-2.73 1.24s.68 2.41 2.73 3.11m-6.5-3.49s2.16-3.2 6.5-3.54V6.12C4.117 6.5-.04 10.57-.04 10.57s2.35 6.802 8.94 7.42v-1.24c-4.84-.6-6.492-5.936-6.492-5.936Z"/></svg>