<svg viewBox="0 0 24 24" xmlns="http://www.w3.org/2000/svg"><path d="M12 24C5.383 24 0 18.61 0 12 0 5.38 5.383 0 12 0c6.61 0 12 5.383 12 12 0 6.61-5.39 12-12 12ZM12 1.1C5.995 1.1 1.11 5.98 1.11 11.99c0 6 4.88 10.89 10.89 10.89 6 0 10.89-4.89 10.89-10.89C22.89 5.99 18 1.1 12 1.1ZM6.18 5.98c.35-1.7 1.5-3.229 3.05-4 -.27.27-.6.48-.85.78 -1.02 1.1-1.48 2.69-1.2 4.15 .35 2.23 2.455 4.06 4.73 4.02 1.76.07 3.48-.94 4.34-2.468 1.84.06 3.64 1.01 4.7 2.548 .54.79.96 1.73.99 2.71 -.35-1.295-1.21-2.45-2.375-3.1 -1.14-.64-2.529-.81-3.78-.43 -1.56.44-2.849 1.72-3.3 3.29 -.38 1.25-.22 2.628.37 3.77 -.83 1.42-2.32 2.44-3.94 2.75 -1.25.26-2.551.05-3.71-.47 1.03.3 2.16.35 3.19-.02 1.38-.46 2.52-1.57 3.02-2.94 .55-1.49.34-3.27-.6-4.54 -.7-1.01-1.81-1.72-3.002-1.97 -.38-.07-.77-.1-1.15-.14 -.62-1.24-.84-2.66-.53-4l-.02-.02Z"/></svg>