<svg viewBox="0 0 24 24" xmlns="http://www.w3.org/2000/svg"><path d="M12.17 21.63c-.09-.17-.19-.53-.26-.68 -.07-.14-.27-.51-.37-.625 -.22-.26-.27-.27-.34-.61 -.12-.58-.41-1.59-.76-2.3 -.19-.38-.49-.68-.77-.95 -.24-.24-.78-.63-.88-.61 -.9.16-1.17 1.04-1.59 1.73 -.24.38-.48.71-.66 1.11 -.17.37-.16.79-.44 1.11h0c-.29.31-.5.69-.63 1.09 -.04.08-.11.92-.19 1.13l1.31-.09c1.23.08.87.55 2.787.45l3.02-.1v0c-.08-.25-.17-.48-.27-.71Zm8.78-20.1H3.01V1.52C1.34 1.51-.02 2.86-.02 4.53c-.01 0-.01 0-.01 0v6.587c.44-.16 1.047-1.08 1.25-1.3 .33-.39.405-.9.57-1.2 .38-.71.45-1.22 1.334-1.22 .4 0 .57.1.84.47 .18.25.52.74.67 1.06 .18.37.47.86.609.96 .1.06.18.13.27.17 .13.05.25-.06.35-.12 .11-.1.17-.29.28-.56 .17-.39.33-.83.44-1 .16-.27.23-.61.42-.76 .27-.24.641-.26.74-.27 .55-.12.81.27 1.08.5 .18.16.42.49.609.91 .13.33.3.66.38.84 .06.18.23.49.33.86 .1.32.33.57.44.74 0 0 .15.4 1.03.77v-.001c.26.11.53.2.81.28 .39.13.76.12 1.23.06 .33 0 .52-.49.67-.88 .08-.24.18-.9.23-1.09 .05-.19-.09-.32.03-.49 .13-.19.22-.21.28-.44 .17-.53 1.11-.54 1.65-.54 .45 0 .38.44 1.14.28 .43-.09.86.05 1.31.18 .38.1.76.22.98.47 .13.17.48.99.13 1.03 .03.03.06.11.11.15 -.09.32-.43.08-.625.05 -.26-.05-.44 0-.7.11 -.44.18-1.07.17-1.46.49 -.32.27-.32.86-.48 1.2 0 0-.43 1.06-1.32 1.72 -.24.17-.7.57-1.68.72 -.44.06-.86.06-1.32.05 -.22-.02-.44-.02-.66-.02 -.14 0-.58-.02-.56.03l-.05.11h0c0 .05.01.11.03.16 .01.1.01.18.03.27 0 .18-.02.38 0 .57 .01.38.17.74.18 1.14 .01.44.23.91.45 1.26 .08.13.2.15.25.32 .06.18 0 .4.03.6 .11.79.35 1.63.71 2.36v.01c.43-.07.89-.24 1.47-.32 1.06-.16 2.53-.09 3.47-.17 2.39-.22 3.7.98 5.84.49V4.36 4.36c-.02-1.68-1.37-3.03-3.04-3.03ZM11.99 15.71c0-.04 0-.04 0 0Zm-6.47 2.76c.17-.38.27-.78.4-1.15 .13-.36.33-.86.69-1.05 -.05-.05-.75-.07-.93-.09l-.001-.001c-.21-.02-.41-.05-.61-.09l0-.001c-.39-.07-.77-.15-1.15-.24 -.22-.06-.98-.33-1.13-.39 -.39-.17-.65-.66-.93-.61 -.19.03-.37.1-.49.28 -.1.15-.14.42-.21.6 -.09.2-.22.4-.32.6 -.238.35-.63.67-.8 1.03 -.04.08-.05.16-.09.25v4.07c.202.03.405.06.624.13 1.69.45 2.09.49 3.75.3l.15-.02c.11-.27.22-1.17.3-1.44 .06-.22.15-.39.18-.6 .03-.21 0-.41-.02-.59 -.04-.5.35-.67.54-1.07Z"/></svg>