<svg viewBox="0 0 24 24" xmlns="http://www.w3.org/2000/svg"><path d="M3.94 4.61C2.42 5.98 1.105 7.47.47 9.7c-.64 2.24-.585 5.09-.15 7.39 .44 2.3 1.12 4.1 1.87 5.83h13.179c-.31-.99-.77-1.97-1.45-3.24 -.69-1.27-1.66-2.692-2.65-4.18 -.99-1.49-1.99-3.077-1.86-4.48 .09-.99.49-1.98 1.49-2.76 1.16-.91 2.28-1.44 3.35-1.6 3.32-.5 6.42.601 8.92 3.36 .28.31.36.72.54 1.12l.16-.66c.15-.59.08-1.359-.16-2.38 -.25-1.029-.57-1.8-1.46-2.973 -.9-1.18-2.47-2.33-4.48-3.226 -1.5-.673-3.31-1-5.798-.879C9.44 1.14 6.47 2.19 3.88 4.54Z"/></svg>