<svg viewBox="0 0 24 24" xmlns="http://www.w3.org/2000/svg"><path d="M11.96 0v0C5.34.01-.01 5.38-.01 12v0c0 6.62 5.37 12 12 12v0c6.62 0 12-5.38 12-12v0c-.01-3.03-1.15-5.95-3.21-8.167v0c-.02 1.11-.29 2.22-.8 3.21 -.55.95-2.29 2.77-3.27 3.699l0 0c-.3.27-.31.73-.04 1.02 .02.02.05.05.09.08 .99.74 2.65 2.151 2.78 3.42 .17 1.83 1.6 4.02 1.67 4.15v0c-.01.11-.05.22-.11.32v0c-.61.7-1.29 1.34-2.03 1.89v0c-.26.08-.54.12-.81.12 -1.95-.04-1.53-1.87-1.72-2.91 -.19-1.04-.78-3.09-2.72-2.79 0 0 .484 4.24-1.49 5.54 -1.98 1.3-5.843 2.27-6.55-.41 -.71-2.68 2.46-2.39 2.684-2.39 .22 0 2.23-.64 1.26-2.53 -.97-1.9-2.01-3.5-2.01-3.5v0c-.97.3-1.89.73-2.74 1.28v-.001c-.39.22-.75.5-1.061.82 -1.065 1.1-2.19 1.71-2.96 1.35H.95c-.12-.06-.23-.14-.32-.23H.63c-.3-.83-.51-1.69-.61-2.56 .43-.641 2.082-2.04 3.69-2.91 1.3-.702 2.737-.99 3.11-1.36 -.68-2.24-1.89-5.71.83-7.33 2.13-1.28 4.94-2.06 6.02 1.04 1.08 3.1.8 3.79 1.26 3.79 .46 0 1.6.22 2.09-1.75 .35-1.45.57-2.69 1.37-3.09V1.8c-1.94-1.26-4.2-1.92-6.51-1.92v0c-.02-.01-.03-.01-.04 0Zm-.5 2.125c-.36-.02-.78.05-1.31.22 0 0-1.9.52-1.75 2.53 .13 1.77 1.08 2.753 3.05 2.01 1.97-.74 2.31-1.27 1.82-2.753 -.37-1.12-.77-1.96-1.83-2.02Zm.48.726v0c.06-.01.13.02.18.07v0c.09.1.17.22.23.34v0c.06.12.01.27-.11.34 -.03.01-.06.02-.1.02v0c-.1 0-.19-.05-.24-.14v0c-.05-.09-.1-.16-.15-.24l-.001-.001c-.1-.1-.1-.26 0-.36v-.001c.04-.05.1-.07.16-.07Zm3.529.15V3c.07-.01.15.03.19.1v-.001c.06.1.03.23-.07.3 -.01 0-.01 0-.01 0v0c-.11.06-.24.02-.31-.08 -.07-.11-.03-.24.07-.31 .03-.02.06-.04.1-.04Zm-2.87 1.26v0c.09-.01.18.04.22.13v0c.14.3.17.65.1.98v0c-.03.11-.13.2-.25.2h-.05v0c-.14-.03-.23-.16-.2-.3h0c.05-.24.03-.49-.08-.7l0-.001c-.05-.14.03-.28.16-.32 .02-.01.04-.02.07-.02Zm-8.035.55v0c0-.01.01 0 .02 0v0c.06.01.1.08.08.14 -.02.06-.09.1-.15.08 -.07-.02-.11-.08-.09-.15v0c.01-.06.06-.1.11-.1Zm15.77 3.41l.27.53 .593.12 -.54.27 -.13.59 -.28-.54 -.6-.13 .53-.28Zm-17.767.53v0c.07-.01.15.03.19.1v0c.06.1.03.23-.07.3 -.01 0-.01 0-.01 0h0c-.11.06-.24.02-.31-.08 -.07-.11-.03-.24.07-.31 .03-.02.06-.04.1-.04Zm16.004 2.79h0c.02-.01.04 0 .06 0v-.001c.13.03.22.17.19.3 -.04.13-.18.22-.31.19 -.14-.04-.23-.17-.2-.31h-.001c.02-.12.12-.21.24-.21ZM4.9 16.081v0c.08 0 .15.05.16.14h0c.01.09-.05.18-.14.19v0c-.1.01-.19-.05-.2-.14 -.02-.1.04-.19.13-.2 .01-.01.02-.01.03-.01Zm9.769 4.09v0c.01 0 .02 0 .03 0v0c.1.02.17.12.15.23 -.03.1-.13.17-.24.15 -.11-.03-.18-.13-.16-.24 0-.01 0-.01 0-.01v0c.02-.1.1-.16.19-.16Z"/></svg>