<svg viewBox="0 0 24 24" xmlns="http://www.w3.org/2000/svg"><path d="M10.81 9.33c2.53 0 4.59 1.99 4.59 4.44s-2.07 4.44-4.6 4.44c-2.22 0-4.07-1.53-4.51-3.54H-.03v-1.8h6.3c.42-2.03 2.28-3.56 4.5-3.56Zm7.33-3.56v3.87c.6-.39 1.33-.59 2.13-.59 1.71 0 3.71 1.15 3.71 4.39v4.45h-1.85v-4.46c0-1.03-.26-1.76-.75-2.18 -.39-.34-.85-.41-1.16-.41 -.97 0-2.12.44-2.12 2.58v4.45h-1.85V5.72Zm-7.34 5.37c-1.5 0-2.72 1.17-2.72 2.62 0 1.44 1.218 2.62 2.71 2.62 1.49 0 2.71-1.18 2.71-2.63s-1.218-2.63-2.72-2.63Z"/></svg>