<svg viewBox="0 0 24 24" xmlns="http://www.w3.org/2000/svg"><path d="M4.3 0v0C1.92 0-.01 1.92-.01 4.3v15.39 0c0 2.37 1.92 4.3 4.3 4.305h15.39v0c2.37-.01 4.3-1.93 4.3-4.305V4.3v0c-.01-2.38-1.93-4.31-4.305-4.305Zm-.01.776h15.398V.775c1.94 0 3.52 1.58 3.52 3.52v15.391c0 .2-.02.4-.06.61 -1.24-.02-1.86-.42-2.52-.84 -.71-.46-1.51-.97-3.04-.97s-2.33.51-3.04.97c-.17.11-.34.21-.52.31v-.001c-.28-.63-.54-1.27-.78-1.907v0c-.12-.24-.12-.51.01-.74 .3-.49 1.23-.7 1.57-.73 .36-.03 5.97-.56 6.3-7.16V9.22c.01-.24-.17-.43-.4-.45 -.13-.01-.24.03-.33.12 -.46.46-1.89 1.63-3 1.47v0c-.24-.04-.47-.08-.7-.13 -1.43-.3-3.34-.69-4.98 1.72 -1.64-2.41-3.548-2.02-4.972-1.72 -.25.05-.48.09-.7.12C4.93 10.51 3.5 9.34 3.04 8.88v0c-.17-.17-.43-.17-.6-.01 -.09.08-.14.2-.13.32 .33 6.58 5.91 7.12 6.3 7.15 .08.01 1.1.16 1.48.71 .15.23.18.52.09.79v0c-.16.59-.35 1.17-.56 1.74 -.11-.07-.22-.13-.32-.2 -.71-.46-1.51-.97-3.04-.97s-2.34.51-3.04.97c-.66.42-1.28.81-2.5.83H.72C.68 20 .66 19.8.66 19.6V4.21v0C.66 2.26 2.23.68 4.18.68Zm4.47 2.1l-4.74 1.42 1.29 4.288 3.165-.96 -.19 1.22 4.894.75 .68-4.426 -4.62-.72Zm10.494.81l-4.94.34 .31 4.466 4.93-.35Z"/></svg>