<svg viewBox="0 0 24 24" xmlns="http://www.w3.org/2000/svg"><path d="M10.72 0v0c-3.7 0-7.18 1.71-9.45 4.62 1.464.391 2.5.72 2.81.83 0-.19.03-1.9.03-1.9s0-.04.02-.06c.02-.03.06-.02.06-.02 .38.05 8.602 1.27 12.06 3.29 .42.25.63.51.9.78 .95.99 2.22 5.1 2.35 5.95 0 .03-.04.07-.06.08v0c-.11.07-.21.15-.32.22 -.82.55-2.71 1.87-5.13 1.65 -2.176-.2-5.02-1.44-8.445-3.699 .33.79.66 1.58 1 2.37 .49.25 5.28 2.7 7.651 2.651 1.904-.04 3.94-.968 4.756-1.46 0 0 .17-.11.25-.05 .08.06.06.16.04.27 -.05.23-.17.66-.25.86l-.07.16c-.1.25-.19.48-.36.625 -.48.43-1.25.78-2.45 1.3 -1.86.81-4.87 1.32-7.66 1.31 -1.01-.03-1.968-.14-2.817-.24 -1.75-.2-3.161-.36-4.026.26H1.6c2.27 2.61 5.56 4.11 9.03 4.12v0c6.62 0 12-5.38 12-12v0c0-6.63-5.38-12-12-12Zm2.67 6.963l0 0c-.94-.04-1.84.3-2.53.94h-.001c-.69.63-1.09 1.51-1.12 2.449v0c-.07 1.93 1.45 3.56 3.39 3.64v-.001c.93.03 1.84-.31 2.52-.95h0c.68-.64 1.08-1.52 1.11-2.45v-.001c.06-1.95-1.46-3.57-3.4-3.64Zm-.03 1.03l-.001 0c1.35.04 2.41 1.18 2.36 2.53v0c-.02.64-.3 1.26-.78 1.7h-.001c-.48.44-1.12.68-1.77.65v0c-1.36-.06-2.41-1.19-2.37-2.542 .02-.66.3-1.26.77-1.71v0c.47-.45 1.1-.69 1.75-.66Zm.4 1.23c-.61 0-1.09.32-1.09.72 0 .4.48.72 1.08.72 .6 0 1.08-.33 1.08-.73 0-.41-.49-.73-1.09-.73Z"/></svg>