<svg viewBox="0 0 24 24" xmlns="http://www.w3.org/2000/svg"><path d="M23.7 13.08v0c-.22.63-.6 1.19-1.12 1.61l-7.426 6.196h0c-1.86 1.44-4.47 1.44-6.317 0L1.4 14.69v0c-.52-.43-.91-.99-1.12-1.62l-.001 0c-.44 1.32.01 2.78 1.12 3.63l7.42 6.19h-.001c1.85 1.44 4.46 1.44 6.317 0l7.42-6.2v0c1.1-.86 1.55-2.32 1.12-3.64m-14.87-12l-.001 0c1.85-1.45 4.46-1.45 6.317 0l7.42 6.196v0c1.45 1.09 1.73 3.16.63 4.62 -.19.24-.4.45-.64.63l-7.426 6.18v0c-1.86 1.44-4.47 1.44-6.32 0l-7.43-6.2 -.001-.001C-.09 11.36-.37 9.29.73 7.84c.17-.24.39-.45.62-.63Z"/></svg>