<svg viewBox="0 0 24 24" xmlns="http://www.w3.org/2000/svg"><path d="M13.695 1.65c-.21.47-.15 1.02-.3 1.509 -.04.11-.15.45-.31.42 -.34-.05-.16-.69-.55-.7l.12.93c-.577.07-.5-.83-.74-1.2 -.27-.43-.34.19-.32.38 .01.12.03.242.05.363 .02.21.03.39 0 .6 -.56-.01-.35-.74-.76-.85l.03.87c-.62-.01-.89-.56-1.16-1.03 -.12-.2-.27-.58-.53-.46 .12.544.42 1.064.45 1.63 0 .14-.13.516-.34.44 -.47-.16-.41-1.01-.8-1.24 -.08-.05-.21-.01-.29-.01 0 .45.19.996.35 1.41 .03.09.12.41-.07.4 -.36-.01-.45-.7-.8-.62 .04.18.15.33.21.51 .03.1.1.21.12.33 .04.24-.27.26-.44.22 -.39-.12-.66-.43-.94-.71 -.08-.08-.28-.35-.41-.23 -.15.13.13.37.21.46 .23.27.48.58.6.93 .04.14.05.36-.09.46 -.15.1-.39-.09-.51-.16 -.37-.24-.73-.66-1.18-.67l-.11.27 .29.39 .75.84 -.875-.37c.03.22.58.5.47.74 -.07.14-.38.14-.51.12 -.45-.07-.77-.4-1.18-.52 -.37-.11-.3.18-.09.34 .07.05.14.11.21.17 .125.1.24.21.36.33 .18.18.34.37.51.57l-.875-.03v.06l.84.39 -.16.6c-.25 0-.45-.07-.67-.17 -.16-.07-.31-.18-.49-.17 -.21.01-.33.2-.19.37 .2.26.62.41.883.61 .1.07.24.21.13.34 -.23.26-.84-.08-1.13.01v.06c.27.16.839.25 1 .54 .12.23-.24.75-.49.73 -.23-.02-.44-.28-.61-.41 -.41-.33-.83-.7-1.298-.923 -.81-.38-1.597.22-2.24.62 .081.25.402-.02.603.02 .271.06.47.31.651.51 .84.968 1.54 2.064 1.85 3.31 .08.33.22.72-.03 1.02 -.07.08-.17.09-.238.15 -.06.05-.06.11.02.14 .13.04.34-.03.47-.06 .44-.11.94-.35 1.15-.78 .125-.28.16-.8.48-.91 .06.29.39.673.36.96 -.03.25-.31.56-.47.75 -.06.06-.2.21-.12.31 .08.09.25-.12.3-.16 .22-.22.73-.56.86-.07 .11.43-.27 1.13-.45 1.5 -.06.1-.3.43-.21.55 .11.13.33-.22.38-.29 .19-.25.85-.99 1.21-.73 .43.32.28.55.11.99 -.05.12-.22.43-.1.55 .11.11.25.01.31-.1 .1-.2.38-.78.66-.64 .17.09.44.25.54.42 .15.27.02.81-.03 1.11 -.03.17-.21.7-.06.82 .14.11.25-.23.29-.32 .14-.3.32-.6.54-.85 .08-.09.19-.24.32-.22 .7.13-.02.82.27 1.18 .05.07.21.06.3.08l.36-.94c.18.07.45.09.59.24 .11.12.13.34.17.5 .09.45.14.89.08 1.35 .05.04.14.13.22.08 .09-.07.11-.32.14-.42 .1-.34.26-.65.42-.97 .09-.21.37-.43.56-.15 .2.29.12.8.24 1.13 .32-.16.35-.83.36-1.15l.41.06 .25.51 .45 1.29c.23-.09.16-.54.18-.76 .03-.3.1-.89.31-1.1 .08-.09.25-.1.37-.14 .12.31.19.66.35.96 .06.11.19.24.33.17 .13-.07.12-.23.11-.35 -.05-.32-.12-.62-.14-.94 .59-.05.95.44 1.32.84 .14.15.27.36.48.42l-.31-.91 -.18-.85c.21-.09.67-.54.9-.47 .34.09.6 1.04 1.02.82 .18-.1.08-.26 0-.39 -.13-.19-.51-.64-.47-.88 .03-.18.32-.38.49-.38 .39 0 1.07.3 1.29.61l.27-.03c-.04-.54-.85-.79-.97-1.33l0-.001c-.02-.06-.01-.12 0-.18 .08-.35.29-.2.51-.11 .06.02.21.1.26.02 .06-.1-.05-.22-.09-.29 -.09-.16-.16-.34-.13-.52 .28.07.45.24.69.4 .05.03.18.13.25.08 .07-.06-.04-.17-.08-.21 -.11-.13-.44-.42-.4-.6 .02-.13.22-.26.31-.34 .27-.28.59-.56.81-.875h.03c.532.62 2.2.18 1.99-.76 -.14.01-.26.12-.4.07 -.6-.21-.45-1.157-1.12-1.17 -.05-.62-.3-1.24-.6-1.78 -.14-.25-.43-.48-.53-.73 -.06-.14-.05-.36-.06-.52 .34-.06.17-.41.05-.61 -.15-.22-.3-.48-.48-.66 -.23-.23-.57-.38-.54-.76 .02-.36.64-.32.74-.64 -.19 0-.37.05-.55.08 -.45.07-.53-.08-.32-.48 .18-.35.47-.62.73-.91 .08-.1.33-.31.2-.45 -.11-.12-.29.05-.38.11 -.34.22-.71.38-1.09.5 -.12.03-.45.16-.49-.04 -.06-.28.46-.33.39-.63 -.21.04-.61.37-.81.22 -.24-.18.11-.65.14-.86 .03-.22-.14-.23-.26-.09 -.05.04-.09.1-.12.15 -.07.08-.13.17-.17.27 -.5-.29.44-.63.26-.89 -.07-.1-.18 0-.24.05 -.12.1-.56.61-.66.23 -.11-.42.1-.91.22-1.3 .02-.11.15-.38.03-.45 -.19-.11-.27.25-.31.359v0c-.14.32-.35.6-.62.83 -.09.07-.24.22-.36.19 -.19-.06-.19-.57-.19-.73 0-.08.04-.21-.03-.26 -.1-.08-.15.07-.16.14 -.05.22-.19.85-.52.44 -.3-.38.16-1.16-.45-1.32l-.34 1.056c-.4-.09-.31-.66-.22-.97l-.19-.06h0c-.04.12-.07.24-.12.36 -.16.45-.375.53-.55.03 -.13-.39-.09-.81-.15-1.21 -.03-.16-.04-.32-.2-.4Zm.03.9c.15.36-.01.82.23 1.17 .25.36.71.16 1.02.39 .1.08.02.25-.01.35 -.1.34-.28.6-.47.9 .65-.34.875-1.29.96-1.96h.03c-.03.59-.01 1.18 0 1.77 0 .27-.04.58.27.63V4.41c.32.09.8.5 1.15.38 .17-.07.34-.28.46-.42 .09-.11.17-.22.24-.34h.03l-.12.96 -.31-.06 .66.47 .26.22 -.2.29 -.875.63c.63-.1.95-.57 1.41-.94 -.15.63-.5 1.26-.34 1.93h.03l.36-1.45c.27.13.37.47.63.63 .38.22.91-.21 1.26-.34 -.23.32-.57.548-.64.96l-.28-.12c.23.6.51 1.19.62 1.84 .09.59-.03 1.18.01 1.78 .02.27.13.51.17.78 -.57.19-.67.98-1.21 1.23 .04-.19.11-.38.11-.58 0-.14-.07-.29-.03-.43 .07-.28.31-.51.41-.79 .15-.43.05-.84-.01-1.27l.3.03 -.76-1.18 -.38-.58 .13-.4c-.77.58-1.87 1.18-1.87 2.29l.27-.1 .09.66 -.43.06v.06c.35.1.72.14 1.05.3 .24.11.51.26.68.47 .56.71.11 1.81-.31 2.47 -.22.33-.6.63-.74.99 .38-.1.57-.46.79-.76 .09-.13.17-.31.32-.37 .24-.09.32.35.37.51 .06.2.21.54.18.75 -.08.4-.42.66-.34 1.11 .16-.21.21-.61.48-.702 .17-.07.34.09.51.12 .36.05.73-.09.99-.33 .28-.27.48-.69.4-1.09 -.05-.24-.18-.48-.16-.73 .01-.2.14-.37.22-.55 .17-.43.15-.92-.26-1.189v0c-.11-.08-.24-.13-.37-.14 .03-.23.26-.71.53-.42 .18.2.29.55.39.81 .38.91.39 2-.17 2.865 -.4.61-1.02 1.11-1.55 1.6l-.21-.61h-.07c-.07.36.18.77.33 1.08 -.33-.08-.65-.42-1-.37 .09.17.74.57.24.75 0 .14-.11.25-.2.36 -.21.24-.46.61-.77.72l-.58-1.51h-.03c.08.66.31 1.3.61 1.9 .15.3.4.61.5.93 -.19-.16-.31-.42-.47-.61h0c-.29-.33-.61-.63-.96-.9 -.23-.18-.45-.38-.76-.35 .34.31.86.47.83 1.05 -.01.16-.2.23-.33.29 -.34.15-.67.32-1.03.43 -.1.03-.28.12-.39.08 -.11-.04-.1-.28-.11-.37 -.04-.29.12-1.03-.18-1.15 -.13 1.01.13 1.92.21 2.92h-.03c-.17-.74-.44-1.56-.84-2.21 -.11-.18-.35-.6-.58-.55l.62 1.08 .01.46 -.46.08 -1.3.03c.04-.38.13-.75.2-1.12 .01-.09.07-.33-.08-.33 -.14 0-.17.4-.19.5 -.11.54-.21 1.1-.21 1.66h-.03c0-.92-.41-1.73-.79-2.54 -.11.15.04.37.08.54 .09.37.11.73.06 1.11 -.62-.12-1.28-.28-1.84-.55 .14-.36.57-.89.57-1.27 -.56.55-.81 1.33-1.09 2.05h-.03l.12-1.45 -.21-1.24c-.14.13-.06.39-.04.57 .03.27.01.68-.19.9 -.12.11-.23.01-.35-.04 -.34-.14-.59-.36-.875-.57 -.11-.08-.3-.15-.28-.31 .03-.44.65-.64.67-1.03 -.72.31-1.07 1.08-1.63 1.57 .18-.79.782-1.71.63-2.535 -.16.08-.15.29-.19.45v0c-.1.33-.23.66-.39.96 -.4-.24-.72-.63-.99-1 -.08-.11-.24-.26-.24-.4 -.01-.13.14-.28.22-.37 .24-.27.54-.47.87-.61 -.24-.15-.71.2-.97.27 .17-.37.65-.74.51-1.18 -.4.3-.66.97-.94 1.388H5.3L4.72 14l.75.27c.02-.27-.36-.38-.58-.43 .12-.33.47-.58.39-.97h-.06c-.09.28-.27.75-.58.84l-.09-.49h-.03c-.12.25.02.44-.04.68 -.04.125-.22.1-.28.22 -.09.15-.1.37-.17.53 -.18.4-.5.7-.91.87l-.04-.54 .45-.52 -.49.36c-.07-.17-.21-.47-.12-.64 .07-.15.254-.24.36-.37l-.49.24c-.17-.43.13-.3.3-.61 -.13.07-.33.2-.48.13 -.19-.09-.39-.64-.47-.827l.512-.09v-.03c-.242.03-.63.12-.67-.22h.633v-.03l-.72-.08 -.2-.26 -.43-.55c.25-.08.683-.08.93 0 -.37-.39-1.024.18-1.327-.46l.754-.15v-.03c-.24 0-.67.13-.88.02 -.06-.03-.1-.08-.14-.12 -.388-.44.48-.48.766-.44 .55.07.97.45 1.358.83 .19.19.47.53.75.59 .27.05.51-.13.72-.27 0 .21-.03.42.15.57 0-.42 0-.86.07-1.27 .02-.16.08-.36.26-.38 .22-.04.53.3.69.44 0-.24-.18-.44-.32-.61 -.4-.47-1.03-.92-1.58-1.18V9c.82.14 1.44.625 2.32.39v-.06l-1.03-.15c.04-.33.27-.734.2-1.06 -.1-.44-.57-.65-.75-1.03 .3.11.63.29.96.29 .18 0 .33-.1.51-.14 .48-.12.766.12 1.08.44 .08-.31-.15-.56-.34-.79 -.19-.23-.35-.46-.57-.66 -.27-.24-.67-.52-.82-.85 .25.04.49.25.69.4 .359.25.71.5 1.11.69 .21.1.57.26.75.05l-.97-.37c.07-.11.17-.19.22-.31 .13-.31-.11-.57-.2-.85 .18.06.34.22.54.26 .46.07.734-.47 1.08-.66l.24 1.14c.2-.17.11-.5.07-.73 -.1-.67-.5-1.26-.59-1.9H8c.38.81.83 1.69 1.59 2.2l-.28-.37 -.48-.73c.09-.04.18-.08.26-.15 .52-.43.07-1.02 0-1.52h.03c.06.15.14.31.23.45 .44.63 1.02.53 1.69.48l-.18 1.32h.03c.08-.29.25-.516.31-.82 .11-.55-.01-1.09-.02-1.63h.03c.04.32.17.63.28.93 .16.48.29 1.01.65 1.38l-.34-1.36c.95-.01 1.21-.65 1.23-1.51Zm-.28 2.08l-.49 2.17c.37-.23.45-1.06.48-1.45h.03c.06.34.09.69.23 1.02 .05.13.11.3.27.3l-.39-1.36Zm-2.96.39c0 .77.38 1.47.24 2.26 .14-.09.15-.3.15-.46 0-.37-.06-.73-.06-1.09h.03c.1.36.39 1.09.81 1.14 -.05-.2-.22-.35-.32-.52 -.24-.38-.48-1.13-.86-1.36Zm6.18.33c-.34.52-.74 1.24-1.237 1.62V7c.38-.07.79-.55.9-.91h.03c-.01.53-.26 1.1-.03 1.62h.03c.16-.55.07-1.19.21-1.75 .04-.18.2-.48.08-.64Zm-2 1.2c-.18.4-.27.77-.64 1.05v.06c.26.07.45-.27.51-.49h.03c.02.2.05.62.27.69l-.15-.7Zm-6.46.03c.06.74 1.06 1.24.93 2.05 .16-.1.11-.27.06-.43 -.12-.32-.3-.6-.43-.91 .28.26.71.56 1.11.39l-.64-.27Zm4.163.24c-.1.3-.35.88-.25 1.17h.06l.21-.73h.03c.07.27.15.68.48.72l-.49-1.18Zm-2.03.75l.15 1.26h.06l-.03-.91c.19.13.46.47.72.36 -.1-.11-.25-.13-.37-.23 -.19-.16-.29-.49-.55-.51Zm6.63.18c-.32.32-.59.53-1.03.66v.06c.26.07.51-.07.72-.22 -.04.17-.26.64-.09.75l.28-.875Zm1.53.62c.13.01.24.18.32.28 .23.27.5.57.61.93 -.7-.15-1.46-.05-2.15.12 .15-.41.44-.84.78-1.1 .11-.1.25-.25.42-.24Zm-6.7.07l-.19.93c.15-.12.18-.49.21-.67l.27.3v0c-.04-.22-.15-.42-.31-.58Zm2.95.09l-.58.57 .54-.4 .09.54c.1-.16.05-.58-.06-.73ZM8.41 8.6v0c-.03 0-.05 0-.06.01v.03c.25.25.46.61.62.93 .08.17.06.37.25.48 -.02-.36-.17-.62-.31-.94 .21.12.5.31.75.24v-.06c-.35-.16-.61-.29-.91-.52 -.11-.09-.23-.2-.37-.19Zm-2.09.28c.02.25.23.35.42.49v0c.25.18.48.4.68.657 .12.16.2.45.37.57 -.04-.45-.3-.97-.73-1.15v-.03c.43.08.86.24 1.29.06v-.06l-.52-.02Zm14.02.09c.29.11.61.52.72.81l-.67-.09Zm-7.3.03l-.28.51 .3-.34 .18.3Zm5.95.71h0c.05 0 .11.01.17.03 .36.14.26.9.19 1.18 -.07.23-.17.49-.4.6 -.17-.3-.42-.5-.73-.64 -.16-.08-.41-.11-.52-.25 -.11-.14-.21-.65-.07-.78 .15-.15.57-.12.76-.12 .16 0 .39-.06.58-.05Zm-3.06.01l-.52.39 .45-.25 -.06.36c.12-.09.17-.38.12-.52Zm4.404.18c.13.01.37-.01.47.1 .33.34.14 1.25-.26 1.44l-.12-.7c.03 0 .06 0 .09-.01v0h.09l-.04-.02c.35-.09.29-.577-.06-.59l-.09-.03 .04.03 -.02 0v-.01h-.06l.01.01c-.03 0-.05.01-.08.02Zm-1.54.12c-.07.06-.16.11-.2.18 -.32.54.88.55.54-.03 -.04-.07-.11-.12-.17-.16l-.13.06h-.06Zm-6.34.12c0 .15-.03.31.12.39v-.31l.36.12Zm-1.68.08c-.05 0-.1 0-.14 0 .05.19.13.36.3.48l-.19-.4 .36.03c-.07-.13-.22-.14-.35-.125Zm3.68.01c-.09.01-.17.16-.17.32l.15-.28 .18.12c-.05-.14-.11-.18-.17-.18Zm-4.85.08l-.52.09 .42.51 -.25-.43 .36-.06Zm-2.66.42c-.31.01-.66.36-.91.51v.06l.875.3c-.02-.23-.32-.3-.52-.34l.6-.55v0c-.02-.01-.04-.01-.06-.01Zm1.6.06l-1.237.33v.06l.66.23 .39.27c-.05-.32-.39-.375-.61-.55 .28-.06.66-.06.78-.37Zm3.1.33c-.13.02-.23.12-.1.21Zm.99.18l-.03.21c.09-.06.11-.11.09-.22Zm1.35 0c-.12.03-.22.11-.09.21Zm1.11.3l-.31.09v.12Zm1.14.03v.36c.11-.11.11-.25 0-.37Zm4.27.17c.42 0 .84.39.75.84 -.07.29-.25.6-.53.718 -.15.06-.49.04-.5-.18 -.01-.2.38-.48.46-.7 -.56.42-.9.79-1.66.69v-.03c.44-.34.63-.9 1.05-1.23v0c.11-.1.26-.14.4-.14Zm-9.943.03c-.15.07-.24.23-.28.39l.36.09 -.2-.2Zm-4.59.06l-1.15.6c.04.22.26.1.42.09 .23-.02.657.06.78.27l.21-.03c-.06-.35-.55-.35-.82-.37 .19-.2.48-.26.54-.58Zm5.82.24l-.34.42 .42.15 -.31-.18c.06-.14.31-.25.21-.4Zm-2.625.09l-.37.33c.14.04.46.23.57.09l-.4-.15Zm7.81 0l.42.33v.06l-.4.21v0c.19-.02.38-.09.54-.22v-.001c-.13-.21-.34-.35-.58-.4Zm-9.683.12c-.19.41-.47.74-.79 1.05 -.19.17-.48.34-.55.6l1.32-.29 .69-.14c-.42-.3-1.14.03-1.54.21 .27-.55.81-.77.93-1.42l-.03-.03Zm5.7.03c-.13.04-.15.14-.18.27l.18.03Zm1.237.21l.03.33 0-.001c.13-.07.23-.19.27-.34l-.22.15Zm-4.193.42c-.13.03-.2.13-.06.21Zm5.34.18l-.04.42 -.28-.18c.02.18.15.27.33.3l.03-.55Zm-6.76.03c-.22.06-.6.69-.7.9 .2-.01.89.01.99-.12l-.67-.1Zm3.7.05c-.17.01-.33.1-.51.1 -.51 0-1.34-.26-1.78.09 -.4.31-.42.734-.67 1.13 -.13.19-.34.32-.52.46 -.07.05-.19.12-.16.22 .03.12.23.18.34.23 .22.1.47.18.72.23 .13.02.32.02.44.1 .2.14.13.65.16.87 .22-.13.52-.52.63-.76 -.25.07-.35.31-.52.48l-.09-.64c.7-.07 1.01-.84 1.43-1.3 .25-.29.57-.41.89-.58 -.19-.23-.46.01-.64.15 -.48.37-.76.81-1.18 1.23l.24-.64h-.03c-.14.31-.29.65-.61.81l.12-.43h-.03c-.13.3-.27.45-.61.45l.3-.7h-.03l-.4.66 -.12-.03 .3-.58h-.03c-.16.24-.32.59-.64.51l.27-.52c-.15.11-.22.4-.4.47 -.09.03-.24-.03-.21-.14 .04-.14.27-.28.36-.4 .31-.41.56-1.07 1.01-1.32 .37-.21.94.05 1.35.05 .23-.01.5-.09.57-.34v0c-.03-.01-.05-.01-.08-.01Zm-7.6.09l-.03.18 .12-.19Zm14.87.02c.22 0 .48.03.61.21s.1.42.17.63c.05-.22.04-1.03.47-.57 .34.36.25 1.16-.09 1.5 -.22.21-.74.34-1 .14 -.4-.31-.5-.93-.61-1.38 -.03-.11-.16-.36-.09-.47 .05-.09.2-.08.3-.09 .06 0 .13-.01.21-.01Zm2.65.18c.56.1.61.907 1.11 1.14v.06c-.29.14-.38-.01-.58-.22l.21.39c-.24-.04-.29-.27-.43-.43l.21.45c-.35 0-.5-.06-.64-.4h-.03l.06.27 -.22-.16 .11-.39Zm-4.74.03c-.13.03-.19.1-.09.21Zm-4.163.24l.33.36 .15-.37 -.15.24Zm3.04 0l-.03.45 -.31-.18c-.02.19.28.42.45.51l-.06-.79Zm-8.175.51c-.1.45-.42.859-.71 1.2 -.14.16-.35.33-.41.54 .5-.15 1.06-.66 1.6-.61 -.14-.27-.79.1-1.03.15 .19-.29.46-.55.59-.88 .05-.14.08-.33-.05-.43Zm6.99.27c-.23.03-.22.26-.28.45 -.13-.13-.26-.31-.46-.28l.57.69Zm-2.81.03l-.31.27 -.03-.16h-.09l.03.39c.17-.03.35-.35.39-.52Zm.81.48l-.16.39H13l-.25-.34 .21.69h.03c.08-.21.36-.58.18-.76Zm3.34.18l-.09.03 .18.99c-.2-.17-.79-.95-1.03-.67 .55.17.78.82 1.26 1.11l-.15-.58Zm1.5.24c-.16.37.22.77.36 1.11 -.4-.21-.74-.54-1.21-.55v.12c.67.06 1.03.74 1.56 1.05 -.01-.57-.49-1.21-.67-1.75Zm-6.13.45l-.22.03c.07.16.19.3.25.48 .06.19.02.46.22.57 .09-.22.32-.56.27-.79 -.17.08-.26.26-.27.45h-.04Zm-2.81.03c0 .59-.08 1.14-.25 1.72 .21 0 .32-.22.43-.37 .22-.3.45-.63.8-.79v-.03c-.359-.05-.81.49-.94.78H9.1c.1-.41.2-.93.03-1.33Zm5.31.03c-.25.09-.19.42-.19.63l-.7-.49c.03.12.13.16.22.24 .18.16.33.55.58.6Zm1.53.57c-.22.37.09 1.154.15 1.56h-.03c-.17-.36-.5-.65-.76-.94 -.04-.04-.23-.31-.3-.2 -.08.11.27.38.34.46 .24.28.45.6.64.93 .1.18.19.44.39.54 -.15-.78-.39-1.59-.4-2.39Zm-10.045.3c.22.06.35.21.36.45l-.7.48Zm5.007.24l-.03.03c.14.4.29.74.36 1.17 .03.2.01.46.17.6 .17-.33.23-.7.38-1.03 .09-.19.23-.36.18-.58 -.29.14-.47.78-.55 1.08 -.15-.4-.11-1.1-.55-1.3Zm2.051.3c.34.67.59 1.31.78 2.05 .21-.12.18-.33.18-.55 -.01-.5.18-.99.15-1.48 -.15.04-.17.19-.2.33 -.06.32-.06.66-.14.99 -.17-.38-.3-1.28-.79-1.36Zm6.365.24l.45.66 -.67-.31ZM8.42 19.04c.64.05.2.65-.06.93Zm8.296.72l.27.84c-.23-.16-.49-.42-.61-.67Zm-5.51.45l.34.05 -.28.96h-.03l-.06-.76Zm2.85.17c.06 0 .12.01.16.05 .16.13-.07.8-.15.97l-.34-.97c.08-.03.2-.07.3-.07Z"/></svg>