<svg viewBox="0 0 24 24" xmlns="http://www.w3.org/2000/svg"><path d="M11.998 0l-4.7 2.71v2.04L2.42 7.54v5l-2.09 1.2v5.43l4.69 2.71 1.662-.97 5.3 3.03 5.3-3.04 1.66.96 4.69-2.72V13.7l-2.09-1.21V7.47L16.66 4.67V2.62L11.96-.1Zm0 1.19L15.11 3 11.99 4.79 8.86 2.99l3.12-1.82Zm-3.66 2.69l3.14 1.8v3.67l-3.15-1.83V3.85Zm7.31 0v3.66l-3.14 1.81V5.67l3.13-1.81Zm1.03 2.06l3.84 2.19v3.81l-1.58-.92 -4.7 2.71v5.43l1.99 1.15 -4.27 2.43 -4.27-2.44 1.99-1.16V13.7l-4.7-2.72 -1.58.9V8.06l3.83-2.2v2.19h0l4.69 2.71 4.69-2.72v-2.2ZM5 12.23l3.125 1.8L5 15.82l-3.125-1.8 .51-.31 2.6-1.51Zm13.92 0l2.6 1.5 .51.29 -3.13 1.79 -3.125-1.8L18.9 12.2ZM1.33 14.92l3.14 1.8v3.67l-3.15-1.83v-3.67Zm7.31 0v3.66l-3.04 1.75 -.11.06v-3.68l3.13-1.81Zm6.6 0l3.14 1.8v3.67l-.11-.07 -3.04-1.76v-3.67Zm7.31 0v3.66l-3.14 1.81v-3.68l3.13-1.81Z"/></svg>