<svg viewBox="0 0 24 24" xmlns="http://www.w3.org/2000/svg"><path d="M22.768 12.002c0 5.93-4.83 10.76-10.77 10.76 -5.935-.01-10.763-4.84-10.763-10.77C1.23 6.05 6.06 1.22 11.99 1.22c5.93-.001 10.76 4.82 10.76 10.767m.29-4.68v0c-.61-1.43-1.48-2.73-2.57-3.82v0c-1.1-1.1-2.39-1.97-3.82-2.57v0c-1.48-.63-3.07-.96-4.68-.95l0-.001C8.78-.04 5.72 1.22 3.48 3.48V3.48C2.38 4.57 1.51 5.86.9 7.29c-.63 1.48-.95 3.05-.95 4.67s.316 3.192.94 4.673l0-.001c.6 1.42 1.47 2.72 2.57 3.81h0c2.24 2.25 5.3 3.51 8.48 3.51 1.61 0 3.19-.32 4.67-.95v0c1.42-.61 2.72-1.48 3.81-2.57v0c2.25-2.25 3.51-5.31 3.51-8.49 0-1.63-.32-3.2-.94-4.68m-14.5 7.3V9.19l2.574 2.68 -2.574 2.68ZM7.25 6.22V17.65l8.11-8.46v6.76c0 .34.27.61.61.61v0c.34 0 .62-.28.62-.63V6.19l-4.68 4.77L7.23 6.2Z"/></svg>