<svg viewBox="0 0 24 24" xmlns="http://www.w3.org/2000/svg"><path d="M20.893 7.95c-1.2 0-2.17.37-2.86 1.13 .09-.27.14-.59.15-.968h-4.2c-.92 0-1.44.4-1.8 1.43l.18-1.44h-4.24c-.78 0-1.31.37-1.5 1.096 -.524-.84-1.46-1.26-2.64-1.26C1.73 7.937.27 9.22.01 11.99l-.04.35c-.23 2.47 1.067 3.69 3.08 3.69 2.24 0 3.7-1.31 3.96-4.08l.03-.35c.05-.64.01-1.19-.12-1.66h1.89l-.55 4.66c-.11.92.39 1.35 1.23 1.35 .51 0 .68-.04.88-.07l.67-5.95h2.21l-.55 4.66c-.11.92.39 1.35 1.23 1.35 .51 0 .68-.04.88-.07l.67-5.95h1.08c.37 0 .68-.09.91-.26 -.35.6-.57 1.36-.66 2.29l-.04.34c-.23 2.471 1.06 3.69 3.08 3.69 2.24 0 3.7-1.31 3.96-4.07l.03-.35c.22-2.46-1.07-3.68-3.08-3.68ZM4.86 11.47l-.03.26c-.16 1.87-.77 2.44-1.52 2.44 -.68 0-1.153-.46-1.06-1.68l.02-.28c.15-1.87.762-2.45 1.513-2.45 .66 0 1.15.46 1.05 1.68Zm16.873 0l-.03.26c-.16 1.87-.77 2.44-1.52 2.44 -.68 0-1.154-.46-1.06-1.68l.02-.28c.15-1.87.76-2.45 1.51-2.45 .66 0 1.154.46 1.05 1.68Z"/></svg>