<svg viewBox="0 0 24 24" xmlns="http://www.w3.org/2000/svg"><path d="M15.897 20.503c-.39 0-1.782-2.49-1.97-3.2 -.4-1.49-.31-2.12-.29-2.314 .07-.62.66-.92.7-1.75 .01-.26.14-1.54.24-2.54h0c-.27-.06-.52-.18-.74-.35 .67.9-.32 1.99-1.77 3.44 -1.54 1.53-4.945 2.96-4.945 2.96s1.42-3.41 2.96-4.945c1.13-1.13 2.04-1.99 2.81-1.99 .22 0 .42.06.62.21v0c-.18-.22-.29-.47-.35-.74 -1 .1-2.28.23-2.54.24 -.83.03-1.14.63-1.75.702 -.07 0-.2.02-.39.02 -.36 0-.97-.06-1.93-.31 -.78-.21-3.648-1.84-3.14-2.045 .26-.11 1.08-.18 2.17-.18 1.04 0 2.33.06 3.596.23 1.57.2 3.01.46 3.99.65 .01-.06.03-.11.05-.16l-1.01-.48s-.8-.92-.72-.984h0c0-.01 0-.01.01-.01 .12 0 .76.73.82.81l.6.2 -.29-.25s-.39-1.44-.29-1.48h0c.1 0 .45 1.25.48 1.34 .07.06.3.15.59.32l-.31-.79s.14-1.31.24-1.31h0c.1.02-.02 1.08-.05 1.221l.51.78h0c.14-.06.3-.09.46-.09 .18 0 .37.03.55.1 -.24-.51-.22-1.03.09-1.338v0c.09-.1.21-.17.35-.21v0c.03-.23.23-.39.45-.383 .12 0 .25.05.35.14v0c.08.08.14.2.14.33 .15-.32.32-.73.31-.867 -.03-.31-.39-.86-.39-.86v0c-.03-.04-.02-.09.01-.11 .01-.01.02-.02.04-.02s.05.01.06.03c.01.02.38.58.41.92 .01.19-.21.69-.34.95v0c.36.2.67.5.87.87 .24-.12.71-.34.92-.34l.02 0c.34.03.9.399.92.41V7.32c.03.02.04.07.02.1 -.03.03-.08.04-.11.02 -.01-.01-.55-.36-.86-.39h-.02c-.15 0-.56.17-.86.31 .12 0 .24.05.33.14v0c.19.18.19.48.01.68v0c-.07.06-.16.11-.25.12v0c-.04.13-.12.25-.21.35h0c-.18.17-.43.26-.67.25 -.22 0-.45-.06-.67-.16 .13.34.14.7.02 1.02l.78.51c.09-.02.66-.09.99-.09 .13 0 .22.01.22.04 .02.1-1.31.24-1.31.24l-.79-.31c.16.29.26.52.32.59 .09.03 1.37.39 1.34.49 -.01.01-.03.01-.07.01 -.29 0-1.41-.31-1.41-.31l-.25-.29 .2.6c.08.06.87.75.81.84 -.01 0-.01 0-.02 0 -.14 0-.97-.73-.97-.73l-.49-1.01v0c-.05.02-.11.04-.16.05 .19.98.45 2.42.65 3.99 .33 2.56.26 5.26.05 5.77 -.02.04-.05.06-.08.06m-3.9 3.49c-6.627 0-12-5.38-12-12 0-6.63 5.373-12 12-12 6.62 0 12 5.373 12 12 0 6.62-5.38 12-12 12m0-22.16C6.05 1.54 1.5 6.08 1.5 11.69c0 5.6 4.546 10.15 10.153 10.15 5.6 0 10.15-4.55 10.15-10.16s-4.55-10.153-10.16-10.153Z"/></svg>