<svg viewBox="0 0 24 24" xmlns="http://www.w3.org/2000/svg"><path d="M23.89 12c0-6.63-5.33-12-11.89-12C5.43 0 .1 5.373.1 12 .1 18.62 5.429 24 12 24c2.01 0 3.91-.51 5.573-1.4 .62.35 1.33.55 2.1.55 2.32 0 4.21-1.87 4.21-4.17 0-.95-.32-1.82-.86-2.52 .55-1.39.85-2.894.85-4.48ZM2.48 12c0-5.448 4.269-9.864 9.535-9.864 5.26 0 9.53 4.416 9.53 9.864 0 1.07-.17 2.099-.48 3.06h-.001c-.46-.16-.93-.24-1.41-.24 -2.33 0-4.212 1.86-4.212 4.16 0 .72.18 1.39.51 1.98h0c-1.24.58-2.59.88-3.96.88 -5.27-.01-9.536-4.42-9.536-9.87Zm17.191 9.86c-1.52.02-2.84-1.27-2.82-2.79 0-1.54 1.26-2.79 2.81-2.79 1.5-.03 2.84 1.27 2.81 2.78 0 1.54-1.27 2.78-2.82 2.78Z"/></svg>