<svg viewBox="0 0 24 24" xmlns="http://www.w3.org/2000/svg"><path d="M1.345 9.122v.78h.03c.07-.11.16-.22.274-.34v0c.12-.13.26-.23.41-.31H2.05c.38-.21.81-.32 1.25-.31v0c.74-.01 1.45.3 1.96.85 .242.26.42.57.56.93 .133.36.2.74.2 1.15 0 .41-.07.8-.2 1.16l-.001-.001c-.13.34-.31.67-.55.94h0c-.25.27-.54.49-.87.64 -.34.16-.73.24-1.16.24 -.4 0-.77-.09-1.1-.25H2.14c-.32-.15-.58-.38-.77-.67h-.03v3.55H-.07V9.05Zm3.276 2.785c0-.22-.04-.44-.1-.65v0c-.07-.21-.17-.41-.3-.58v0c-.14-.18-.31-.32-.51-.42h0c-.23-.11-.47-.17-.72-.16h0c-.25-.01-.48.05-.7.16H2.29c-.2.1-.38.24-.52.42H1.76c-.15.17-.26.37-.33.58H1.43c-.15.42-.15.88-.001 1.3l-.001-.001c.07.21.18.4.32.58h0c.14.17.32.31.52.41 .2.1.43.15.69.15l-.001 0c.47.01.92-.21 1.21-.59 .13-.18.23-.37.29-.59v0c.06-.22.09-.44.1-.66Zm13.68-3.06v6.22c0 .33-.03.65-.09.95h0c-.05.28-.16.54-.31.78v0c-.16.22-.38.41-.62.53 -.27.13-.61.19-1.03.19v0c-.12-.01-.24-.01-.35-.03v0c-.1-.02-.19-.03-.29-.05l.11-1.2h0c.12.02.25.04.38.04v0c.13 0 .27-.03.39-.1v0c.1-.07.18-.16.23-.26 .05-.11.09-.24.1-.38 .01-.15.02-.3.02-.47V8.77Zm4.78 1.76h-.001c-.14-.18-.32-.33-.52-.43v0c-.22-.13-.47-.19-.72-.18 -.23 0-.44.04-.62.14v0c-.19.08-.3.26-.28.46v0c-.01.2.11.39.31.46 .2.09.5.18.9.27 .21.04.42.1.63.18 .21.07.41.18.58.31v0c.17.12.32.29.42.48 .1.19.16.42.16.69 0 .34-.07.63-.2.87 -.13.23-.31.43-.52.58v-.001c-.23.15-.49.26-.75.32h-.001c-.29.06-.59.1-.89.1v-.001c-.44-.01-.87-.09-1.28-.24v0c-.4-.15-.75-.38-1.03-.69l.92-.87 -.001 0c.34.44.87.7 1.44.7 .1 0 .2-.02.31-.04v0c.1-.03.19-.07.29-.12v-.001c.08-.05.16-.12.21-.21v0c.05-.1.08-.21.08-.32v-.001c0-.22-.12-.42-.32-.51 -.22-.1-.54-.21-.97-.31v0c-.21-.05-.42-.11-.62-.19h0c-.2-.07-.37-.17-.54-.3v-.001c-.16-.13-.29-.28-.375-.46v0c-.11-.21-.15-.44-.14-.67 0-.32.06-.58.19-.81v0c.12-.23.29-.42.51-.56 .21-.15.44-.26.71-.33v0c.26-.08.54-.11.81-.11 .4 0 .8.07 1.18.21 .38.14.69.35.91.64Zm-8.29 2.93l.83-.26 .16.5 -.84.28 .51.734 -.44.31 -.55-.73 -.53.7 -.43-.33 .51-.71 -.84-.31 .16-.51 .843.27v-.88h.56v.87Zm-2.89-2.65v0c-.14-.32-.35-.6-.61-.82v0c-.27-.23-.58-.41-.907-.51h-.001c-.37-.12-.75-.18-1.13-.18 -.15 0-.32 0-.5.02v0c-.17.01-.32.03-.48.08l.08-1.79h3.38V6.41H7.01l-.14 4.52v0c.13-.07.28-.13.42-.18h0c.16-.06.32-.11.49-.15v0c.16-.05.34-.08.51-.1v0c.16-.03.33-.04.49-.04 .22 0 .45.02.66.07 .21.05.41.14.59.26 .17.12.31.29.42.5 .11.21.16.47.16.79 0 .25-.04.47-.13.67v0c-.08.18-.19.35-.34.49h-.001c-.15.13-.31.23-.49.3 -.19.07-.39.1-.6.1 -.375 0-.7-.1-.98-.3v0c-.28-.2-.48-.48-.59-.79l-.02 0 -1.016.95c.2.33.47.61.79.83 .47.32 1.06.48 1.75.48v0c.39 0 .79-.07 1.17-.2v0c.72-.25 1.3-.79 1.609-1.5 .16-.37.24-.78.24-1.24 0-.43-.08-.8-.22-1.12Z"/></svg>