<svg viewBox="0 0 24 24" xmlns="http://www.w3.org/2000/svg"><path d="M13.21 23.97c-.1-.06-.33-.07-1.62-.07h-1.26l-.02-.09 -.1-.44v0c-.03-.12-.06-.24-.07-.36 0-.01-.02-.06-.04-.11l-.05-.1 -.55.08c-.31.04-.6.1-.66.11 -.1.03-.11.03-.11 0 .03-.14.04-.21.02-.27 -.02-.07-.02-.08.23-.65 .27-.63.26-.6.23-.64 -.02-.03-.05-.02-.31.07 -.16.05-.3.09-.31.09l-.001 0c.13-.25.26-.5.41-.74 .45-.78.56-.98.56-1.01 0-.01-.12-.15-.28-.31 -.15-.16-.32-.33-.36-.39v0c-.04-.05-.07-.08-.12-.11 -.05-.02-.27-.24-.74-.74H8.05c-.18-.19-.35-.37-.53-.55 -.07-.05-.08-.08-.11-.18v0c-.09-.25-.18-.49-.3-.72l-.1-.21v-.18c0-.28-.06-.55-.28-1.34l-.06-.2 -.09-.01c-.2-.02-.29-.13-.44-.51H6.14c-.08-.17-.15-.32-.24-.48 -.1-.2-.23-.43-.28-.532l-.09-.19 -.08-.01v0c-.13-.02-.25 0-.37.05s-.35.06-.62.03l-.399-.04 -.2-.02 -.11-.2c-.17-.29-.17-.29-.24-.33 -.09-.05-.17-.05-.58 0l-.33.03 -.25-.04c-.65-.1-.8-.17-.8-.375 0-.05-.05-.27-.11-.49 -.13-.53-.22-1.13-.2-1.34 .03-.3.27-1 .63-1.87l.14-.35 .02-.55c.14-3.274.17-3.76.28-3.96 .03-.07.46-.44.64-.552 .33-.23 1.5-.8 2.8-1.379l.38-.18 .19-.02 .19-.01 .52.32 .52.32 .42-.2 .65-.31c.23-.11.23-.11.36-.26 .18-.21.49-.57.59-.71 .11-.17.39-.39.81-.672 .14-.1.18-.12.56-.264l.23-.09h.49c.45 0 .5.003.65.037 .35.07.65.193.68.26 .02.05.07.08.18.12 .14.04.31.16 1.22.86 .48.373.47.36 1.53.71l.29.1 .17.21c.2.24.35.4.4.41 .07.02.48-.08 1-.25 .26-.09.3-.1.35-.08 .03.01.17.02.32.02 .27 0 .51.03 1.11.137 .15.02.28.04.28.04s.24.41.53.93c.29.51.61 1.048.7 1.19 .16.24.17.26.18.375 .02.19.08 1.008.09 1.3l.02.89c.02.843.03 1.04.09 1.154 .09.19.27.74.57 1.71l.12.4 0 .93 -.14.72 -.16.81 -.02.08 -.44.26 -.45.26 -.33-.02c-.18-.01-.34-.02-.35-.02 -.03 0-.07.11-.14.41 -.04.17-.05.17-.1.18l-.67.1c-.92.14-1.04.18-1.35.42 -.27.21-.27.2-.56 1.68h0c-.06.28-.12.57-.19.85 -.11.31-.95 1.7-1.25 2.07l-.17.19 .06.22c.03.12.07.26.08.3 .01.07.31 1.2.42 1.6l.03.14 -.21-.09 -.33-.14v0c-.05-.03-.09-.04-.13-.05 -.01 0 .03.15.08.32 .08.28.18.76.17.77 -.01 0-.15-.01-.34-.03v0c-.13-.02-.26-.02-.39-.02l-.06 0 -.19.66c-.1.36-.19.66-.19.66 -.01 0-.54-.02-1.01-.05 -.54-.04-.7-.04-.84.01 -.125.04-.25.05-.31.01l0-.01Zm1.95-.35c0-.03.02-.19.05-.35 .02-.17.05-.34.05-.39 0-.06.01-.12.04-.18 .02-.05.03-.09.03-.1 -.01-.01-.37-.03-.82-.07 -.64-.05-.86-.07-1.06-.11l-.25-.05 -.58.07c-.42.05-.59.07-.61.09 -.02.02-.21.04-.72.09 -.38.03-.72.07-.76.08l-.08.01 0 .08c0 .06.02.11.08.23 .06.11.08.19.12.33 .02.1.04.18.04.18s.97.01 2.157.02c2.03.01 2.154.01 2.19.04 .04.03.06.02.06-.05l-.01-.01Zm-4.782-1.18c.87-.13 1.22-.17 1.57-.2 .38-.03.89-.09 1.25-.15 .05-.01.24-.02.42-.03l.32-.01 .37.09 .37.09 .68.04c.37.02.68.04.69.03v0c-.03-.08-.05-.16-.07-.23 -.05-.13-.11-.34-.16-.47l-.08-.25 -.24-.08 -.24-.08 -.16.06 -.16.06 -1.78.05 -1.78.05 -.12-.06 -.12-.06h-1.44l-.27.59c-.15.32-.28.6-.28.6 -.01.01-.13.03 1.13-.15Zm6.12-1.04c0-.02-.44-1.44-.45-1.46 -.01-.02-.05.02-.12.09l-.11.11 .15.56 .15.56 .16.06c.18.06.19.06.19.05Zm-6.788-.72l.19-.36 -.06-.09c-.04-.05-.07-.08-.07-.08 -.01 0-.15.23-.31.51 -.17.27-.3.51-.31.51 -.01.01.07-.03.17-.08l.17-.09 .19-.36Zm2.95-.08c.1-.31.19-.57.19-.57l-.001 0c-.07-.04-.13-.06-.2-.08v0c-.07-.02-.14-.05-.21-.07v0c.01-.04.03-.08.06-.11l.06-.11 .4-.02c.7-.04 1.11-.16 1.51-.46 .15-.11.21-.13.29-.09 .07.04.12.12.1.19 -.01.04-.03.05-.25.19 -.21.13-.88.42-1.12.49 -.14.03-.29.12-.33.18 -.04.06-.16.92-.14.94 0 0 1.14-.04 1.33-.06 .11-.01.11-.01.16-.07 .02-.04.13-.16.23-.27 .1-.12.3-.34.43-.49 .13-.16.32-.39.43-.51 .17-.19.26-.32.61-.86 .87-1.33.93-1.45 1-1.97 .04-.375.06-.45.21-.7 .14-.25.29-.97.21-1.04 -.08-.06-.16-.04-.43.15 -.52.34-1.04.84-1.12 1.05 -.04.09-.23.37-.29.41l-.52.36c-.59.41-.52.34-.85.87l-.11.17 -.33.17 -.33.17 -.62.01c-1.23.02-1.29.02-1.95-.21l-.44-.16 -.35-.31c-.2-.17-.53-.47-.76-.68l-.41-.37 -.15-.33 0-.001c-.18-.38-.34-.77-.5-1.15 -.09-.23-.09-.24-.28-.43 -.35-.37-.53-.76-.76-1.612 -.05-.17-.08-.26-.1-.29 -.02-.02-.03-.03-.03-.02 0 .01 0 .04-.02.08 -.16.44-.21.76-.25 1.55 -.02.359-.02.35.09.98 .22 1.22.29 1.5.4 1.56 .04.02.16.14.29.28 .34.37.44.48.6.61 .28.23.73.71.9.96 .04.06.1.14.13.17 .15.16.46.6.89 1.25l.31.47 .13-.01c.09-.01.32.01.74.05 .33.03.63.06.66.06h.05l.19-.56Zm-2.276.45v0c-.04-.08-.08-.14-.13-.21 -.08-.11-.14-.2-.15-.2 -.01 0-.14.26-.19.37 -.01.03.34.04.45.01Zm2.766-2.76c.04-.04.12-.06.37-.11 .31-.06.375-.09.62-.22v0c.03-.03.07-.07.09-.11v0c.03-.06.06-.1.11-.14 .04-.04.05-.07.05-.1 0-.08.22-.28 1.09-.95v0c.09-.08.18-.17.24-.27 .07-.11.15-.22.26-.31 .08-.08.29-.29.45-.46 .16-.18.39-.38.49-.47v0c.08-.07.16-.14.24-.21 .03-.04.15-.11.33-.2 .15-.08.29-.16.3-.17 .01-.03.09-.06.5-.22 .88-.34 1.47-.5 1.79-.5 .08 0 .09-.06.06-.22 -.07-.4-.3-.56-.81-.56h-.19l-.07-.07c-.06-.07-.07-.09-.13-.33 -.12-.49-.19-.532-.75-.516 -.44.01-.56.06-1.76.718 -.61.33-1.04.702-1.55 1.33v0c-.04.04-.07.08-.11.12 -.32-.01-.31-.48.01-.95l.1-.16 -.09-.04c-.24-.11-.532-.13-.74-.04 -.3.11-1.03.52-1.12.62 -.1.1-.19.1-.19 0 0-.13.11-.29.28-.42 .04-.04.11-.09.15-.13h-.001c.13-.11.27-.2.43-.27 .14-.06.14-.06.09-.15 -.14-.26-.53-.55-.92-.69 -.05-.02-.17-.07-.27-.12 -.23-.11-.34-.13-.68-.14 -.25-.01-.29-.02-.27-.04 .07-.09.31-.14.79-.15l.38-.01 .24.11c.69.3.96.46 1.07.64 .07.12.08.13.19.11 .266-.05.51.03.76.24 .13.12.18.13.27.06h-.001c.15-.13.24-.31.27-.51 .03-.28-.06-1.14-.16-1.39 -.07-.19-.06-.2.08-.05 .17.17.17.17.32-.11 .04-.08.1-.18.13-.23 .29-.37.28-1.05-.02-1.35 -.15-.15-.41-.3-.82-.45 -.41-.16-.47-.22-.77-.63 -.37-.51-.43-.57-.73-.71 -.62-.3-2.11-.57-2.57-.47 -.45.09-1.04.44-1.32.78 -.18.21-.63.37-1.28.46 -.84.1-1.26.82-1.05 1.8 .04.19.03.18.16.03 .4-.51 1.2-.98 1.93-1.13 .57-.12 1.47-.13 2.01-.01l.09.02h-.15c-.75.01-1.904.25-2.73.58l-.18.07 -.02.08c-.02.08-.03.09-.29.35 -.54.53-.69.79-.78 1.28 -.04.23.03.58.15.67 .02.02.04.05.04.06v0c-.02.07-.03.14-.03.22 -.08.84.32 1.86.96 2.45l.14.13 .1-.09c.31-.26.85-.62.88-.59 .04.05.03.09-.04.15 -.09.08-.2.22-.5.64l-.26.36 0 .1c.01.13.07.33.14.45 .03.04.09.15.13.22 .16.28.32.52.42.64 .09.11.18.24.28.4 .02.04.05.06.07.06 .04-.01.09.02.27.2 .18.17.08.12.84.4 .82.3 1.13.36 1.46.28 .09-.03.09-.03.16.01 .09.04.09.04.16-.01v0ZM6.8 14.47c0-.01.02-.11.03-.23 .01-.12.05-.29.08-.37l.19-.65c.17-.61.15-.55.17-.52 .02.04.01-.01-.02-.08H7.24c-.03-.06-.05-.12-.07-.18l-.04-.11 .03-.59 .03-.59 -.06-.4v0c-.02-.14-.04-.28-.07-.41 -.04-.04-.47.14-.6.24 -.18.13-.41.67-.492 1.19 -.12.69-.01 1.64.22 1.91 .07.08.22.37.35.68l.03.07 .07-.01 0 0c.02-.01.05-.01.07-.02Zm14.77-1.31c.12-.09.23-.18.24-.2 .01-.04.21-1.1.28-1.51l.04-.26 -.05-.45 -.05-.45 -.125-.48c-.13-.48-.13-.484-.27-.76 -.22-.44-.2-.24-.38-3.36l-.04-.58 -.06-.06c-.07-.08-.34-.46-.97-1.388v0c-.18-.27-.36-.53-.55-.79v0c-.28-.06-.55-.11-.83-.15 -.4-.06-.74-.03-1.06.09 -.13.04-.14.05-.21.03 -.14-.05-.3-.01-.57.16l-.15.08 -.17-.23c-.2-.26-.2-.26-.57-.51 -.64-.42-.72-.45-1.64-.7 -.36-.1-.32-.07-1-.742l-.54-.54 -.59 0c-.99.01-1.49.06-1.6.14 -.72.5-1.1.88-1.54 1.53l-.11.15 -.39.18c-.43.2-1.04.39-1.21.36 -.1-.02-.43-.18-.66-.35 -.44-.3-.74-.33-1.088-.13 -.29.16-.49.26-1.29.67 -.87.43-.97.496-1.25.7l-.17.12 -.15.28c-.32.62-.31.6-.33 1.415 -.03 1.52-.04 2.008-.02 2.122 .03.17.03.37.01.5 -.03.17-.39 1.38-.585 1.97 -.07.19-.14.52-.16.73 -.01.07 0 .17.03.391 .02.16.07.45.09.64 .06.46.12.56.35.64 .2.07.3.06.73-.05 .79-.21.81-.2 1.13.37 .07.13.11.18.14.19 .1.03.72.01.86-.03l.19-.05 .05-.02 -.02-.1 -.001-.001c-.04-.21-.05-.42-.03-.63 .02-.27.06-.51.15-.89 0-.02-.01-.01-.03.03l-.03.06 -.04-.16v0c-.06-.25-.16-.47-.3-.68v-.001c-.17-.28-.31-.57-.43-.87l-.1-.24 .01-.17c.05-.718.22-1.186.59-1.6 .22-.25.29-.351.32-.53 .02-.13.1-.81.17-1.4l.05-.55 .24-.72c.13-.4.23-.722.22-.73l0 0c-.23-.12-.46-.23-.7-.33 -.13-.04-.42-.03-.64.02 -.71.16-1.23.532-1.25.89 -.01.08-.37.827-.4.82 -.02 0-.08-.1-.1-.17 -.02-.08-.02-.12.07-.351 .03-.09.09-.31.14-.49 .12-.45.14-.48.4-.6l.46-.23c.67-.33 1.657-.58 1.899-.49 .14.05.359.22.55.44l.09.1 -.09.246c-.46 1.266-.58 1.617-.61 1.82 -.08.45-.07 1.46 0 1.69 .05.18.05.19-.23.37 -.48.31-.96.91-.98 1.23 -.02.21.09.63.22.88 .05.1.58.91.6.91 0 0 .03-.04.05-.09h0c.15-.32.4-.59.7-.78 .31-.21.31-.21.34-.32 .16-.73.42-1.15.88-1.39l.19-.11 -.1-.04c-.15-.06-.28-.15-.43-.31 -.7-.74-.97-1.57-.69-2.13 .02-.04.05-.13.07-.19 .24-.76.931-1.17 1.84-1.101 .89.06 1.29.29 1.61.94 .31.62.29 1.19-.06 1.75l-.07.1 .06-.06c.06-.07.766-.38.94-.43 .26-.07.65-.03 1.89.19 .49.09.58.125.82.34 .05.04.09.07.09.06 0-.02-.01-.11-.03-.21 -.09-.617.03-1.41.26-1.79 .28-.47 1.375-.883 1.97-.76 .3.06.76.35 1.02.63 .03.03.06.05.06.04 0-.01-.02-.33-.04-.7l0 0c-.02-.23-.03-.46-.03-.69 0-.01.14-.09.3-.18l.29-.17 .05.04c.04.03.16.06.78.19l.76.16c.02 0 .08.09.21.3 .09.16.27.44.38.63 .42.68.5.85.41.94 -.1.08-.11.08-.17-.01 -.03-.05-.21-.32-.38-.6V4.64c-.12-.19-.24-.37-.36-.54 -.02-.02-1-.35-1.49-.5 -.24-.08-.5 1.15-.44 2.099 .02.31.02.32.29.57 .16.15.85 1.12.99 1.39l.06.13 -.01.82 -.01.82 -.11.17c-.45.74-.7 1.02-.99 1.096 -.17.04-.34.17-.33.24 0 .02.01.15.02.29 0 .16.01.25.02.25s.07-.01.14-.03c.45-.09.95-.06 1.26.07 .11.04.11.06.12.34 .01.375.04.4.35.45 .34.05.46.11.69.34l.12.13 .46 0 .46 0 .24-.17ZM9.92 3.77V3.76c-.28-.18-.55-.34-.84-.5 -.34-.18-.36-.21-.12-.31 .34-.16.47-.11.9.31 .16.16.36.34.44.41 .15.11.32.27.32.29 0 .02-.12.14-.14.14l-.001 0c-.21-.12-.41-.24-.6-.36Zm3.987.19V3.95c-.1-.04-.18-.11-.24-.2l-.05-.07 .03-.07c.04-.1.07-.13.23-.24 .07-.05.15-.11.18-.14 .15-.14 1.17-.56 1.35-.56 .1 0 .13.02.17.125V2.8c.01.04.03.08.06.12 .05.05-.06.11-.35.17 -.15.03-.51.17-.82.32l-.26.125 -.15.2c-.08.11-.15.2-.15.2l-.06-.03 0-.01Zm2.25 8.609c.11-.11.61-.34.89-.42 .1-.03.17-.31.17-.72v-.24l-.1-.2c-.1-.21-.21-.38-.23-.38 -.01 0-.21.25-.44.55l-.43.55 .01.24 .01.44c0 .22-.01.21.09.13l-.01-.01Zm1.63-1.8l.34-.14 .11-.17c.39-.6.51-.91.52-1.38l.01-.31 -.23-.37c-.39-.61-.64-1.02-.73-1.19V7.2c-.02-.04-.04-.08-.07-.1 -.07-.04-.25.12-.46.4 -.15.2-.23.25-.68.47 -.6.29-.88.34-1.3.21l-.001-.001c-.19-.06-.37-.12-.56-.16 -.05 0 .13.2.29.34 .12.11.22.16.34.18 .19.03.54.23 1.09.61 .3.21.26.13.29.55l.02.35 .08.07c.1.09.21.25.38.51 .07.11.13.2.13.2l.34-.14Zm-1.72-3.12c.44-.17.7-.665.52-1.03 -.2-.391-.64-.702-1-.702 -.43 0-.98.48-.98.85 0 0 .05-.04.12-.11 .32-.32.69-.35 1.05-.11 .38.258.46.77.17 1.064 -.08.08-.07.08.1.02v-.01Zm-7.71-.16V7.48c-.04-.13-.05-.27-.03-.4 .14-.78 1.09-1.005 1.51-.37l.06.1 -.01-.13c-.07-.98-1.1-1.234-1.73-.45 -.36.44-.3 1.13.1 1.274 .1.03.1.03.08-.05h0Zm8.86-.53c.26-.44.22-1.053-.09-1.53 -.43-.65-1.09-.85-1.81-.55 -.56.23-.78.51-.83 1.08 -.03.25-.02.28.05.17 .23-.36.64-.55 1.09-.53 .71.03 1.24.53 1.38 1.31l.03.18 0 .04 .04-.05V7.07c.03-.05.06-.11.1-.16v0Zm-1.44.09v0c.02-.03.04-.06.04-.1v0c0-.04-.02-.08-.04-.1V6.84c-.03-.03-.06-.05-.1-.04 -.04 0-.07.01-.1.04v0c-.03.02-.04.06-.04.09 0 .12.14.18.23.09l-.01-.01Zm-8.22-.21c.13-.78.73-1.29 1.48-1.29 .48 0 .83.274 1.04.8 .05.14.06.14.08.03 .07-.274-.01-.85-.17-1.149 -.26-.52-1.032-.78-1.76-.6 -.42.1-.9.64-1 1.09 -.1.46-.04.84.19 1.16 .07.1.07.1.11-.08v0Zm1.92 0V6.83c.02-.03.04-.06.04-.1 0-.04-.02-.07-.04-.1 -.03-.03-.06-.05-.1-.05 -.04 0-.07.01-.1.04v0c-.03.02-.05.06-.04.09V6.71c-.01.07.06.13.13.13 .03 0 .07-.02.09-.04Z"/></svg>