<svg viewBox="0 0 24 24" xmlns="http://www.w3.org/2000/svg"><path d="M15.014 3.71l0 0c-.55 0-1.09.03-1.63.08 -.82.08-1.72.24-2.53.4l.57 6.36 .24 1.96 .65 6.85 1.55-.09 1.79-.17v-.09l-.41-4.09v-.58 0c.68-.1 1.36-.24 2.04-.41v0c.56-.23 1.11-.5 1.63-.82v0c.73-.53 1.32-1.23 1.71-2.05v0c.33-.89.47-1.84.4-2.78v0c-.11-1.8-1.22-3.38-2.86-4.09V4.18c-.86-.36-1.77-.56-2.7-.58v0c-.17-.01-.34-.01-.5-.01ZM4.23 4.69L4.23 4.68c-.55 0-1.09.03-1.63.08h0c-.88.02-1.76.13-2.62.32l.57 6.36 .16 1.96 .65 6.85 1.55-.09 1.79-.17 -.33-4.09v-.58 0c.68-.1 1.36-.24 2.04-.41v0c.56-.23 1.11-.5 1.63-.82v0c.73-.53 1.32-1.23 1.71-2.04v0c.34-.86.48-1.78.4-2.7v0c-.04-1.81-1.12-3.44-2.78-4.17v0c-.86-.36-1.77-.56-2.7-.57h-.001c-.17-.01-.34-.01-.5-.01ZM15.1 6.72h-.001c.02 0 .05 0 .08 0v0c.5-.01 1.01.1 1.46.32v0c.6.33 1 .94 1.06 1.63v0c.03.38-.03.77-.17 1.14v0c-.12.31-.31.6-.58.81v0c-.37.31-.83.51-1.31.57v0c-.22.06-.44.09-.66.08l-.41-4.49v0c.15-.07.32-.1.48-.09ZM4.15 7.7v0c.05-.01.11-.01.17 0V7.69c.5-.01 1.01.1 1.47.32v0c.6.33 1 .94 1.06 1.63H6.85c-.01.38-.07.76-.17 1.14v0c-.12.31-.32.6-.58.81v0c-.37.31-.83.51-1.31.57v0c-.22.06-.44.09-.66.08l-.41-4.49H3.72c.12-.06.26-.09.4-.09Zm17.8 7.27v0c-1.13 0-2.04.91-2.04 2.04 0 1.12.91 2.03 2.04 2.03 1.12-.01 2.03-.92 2.03-2.04v0c0-1.13-.92-2.04-2.04-2.04Z"/></svg>