<svg viewBox="0 0 24 24" xmlns="http://www.w3.org/2000/svg"><path d="M11.99 0c-.58 0-1.16.228-1.62.68l-9.7 9.69c-.92.91-.92 2.31 0 3.23l.84.843 8.01-8.15V6.29c1.34-1.34 3.5-1.34 4.84 0l8.07 8.08 .84-.843c.91-.843.91-2.25.07-3.17L13.57.65V.65c-.43-.44-1.01-.69-1.62-.69Zm0 6.463c-.58 0-1.16.22-1.62.68l-9.7 9.696c-.92.91-.92 2.31 0 3.23l3.231 3.23c.91.91 2.31.91 3.23 0l4.847-4.846 4.84 4.846c.91.91 2.31.91 3.23 0l3.23-3.24c.91-.843.91-2.32.07-3.24l-9.77-9.7h-.001c-.43-.44-1.01-.69-1.62-.69Z"/></svg>