<svg viewBox="0 0 24 24" xmlns="http://www.w3.org/2000/svg"><path d="M23.832 10.84c0 3.04-1.89 6.4-4.471 8.87 -2.59 2.47-6.086 4.273-9.268 4.273 -3.22 0-5.81-1.77-7.44-4.18C1.02 17.393.16 14.18.16 11.207c0-3.04 1.617-5.934 3.94-7.94 2.32-2 5.53-3.29 8.69-3.29 3.16 0 5.991 1.21 7.91 3.13 1.92 1.91 3.1 4.706 3.1 7.71ZM12.8 1.15c-.45 0-.89.02-1.33.07 .27-.02.54-.04.82-.04 2.93.01 5.67 1.04 7.58 2.725 -1.77-1.76-4.154-2.77-7.074-2.77Zm-2.72 21.683h-.001c.66-.01 1.32-.09 1.97-.23V22.6c-.61.12-1.23.18-1.85.19v0c-1.46 0-2.88-.38-4.128-1.11 1.125.73 2.44 1.14 4 1.14Zm9.05-18.02c-1.76-1.57-4.11-2.49-6.85-2.46 -.91-.01-1.8.1-2.64.3 .61-.1 1.25-.15 1.9-.15 2.74 0 5.43.77 7.36 2.2 .38.29.75.61 1.08.97l0 0c-.27-.32-.56-.61-.87-.88ZM10.2 21.63c.96 0 1.95-.18 2.92-.51 -.93.24-1.87.36-2.785.36 -1.35 0-2.56-.27-3.62-.74 .99.55 2.13.86 3.474.86Zm8.01-15.986c-1.76-1.32-4.077-1.98-6.666-1.98 -2.58 0-4.64.738-6.166 2.13C3.86 7.18 3.02 9.08 3.02 11.59c0 2.54.58 4.68 1.82 6.27 1.234 1.58 2.96 2.47 5.49 2.47 2.564 0 5.17-1.04 7.24-2.76 2.067-1.71 3.401-3.9 3.401-6.38 0-2.481-1.03-4.262-2.78-5.568Zm-9 .73h4.71c1.76 0 3.21 1.13 3.21 3.08 0 2.47-1.95 3.96-4.38 3.96h-2.44l-.7 3.99H7.24l1.94-11.03Zm3.45 5.149c1.2 0 2.14-.62 2.14-1.88 0-.98-.76-1.38-1.6-1.38h-1.98l-.58 3.24h1.99v0Z"/></svg>