<svg viewBox="0 0 24 24" xmlns="http://www.w3.org/2000/svg"><path d="M12.254 0L1.795 6.038l-.254-.16 -.01 0v.65l.57-.33 -.254-.15L12.305.01Zm1.67.965L3.465 7.004l-.22-.13 -1.73 1v.6l2.252-1.3 -.22-.12L14 1.016Zm1.67.96L5.13 7.963l-.17-.11 -3.45 1.99v.56l3.93-2.27 -.17-.1 10.45-6.04Zm1.66.95l-6.52 3.777 -.33-.19 -1.87 1.07v.38L6.78 8.92l-.13-.08 -5.17 2.97v.51L7.09 9.07l-.13-.08 1.55-.9v.39l1.15.66 -1.22.7 -.09-.06 -6.885 3.98v.45l7.28-4.2 -.09-.06 1.21-.71 1.17.68 -2.55 1.46v.27l-7.04 4.06v.4L8.48 12.04v.31l1.09.62 -8.13 4.7v.17l.16.09L9.88 13.15l1.12.65 -2.532 1.44v.33l-5.48 3.16 .27.15 5.2-3.01v.38l3.41-1.98 1.02.593 -1.01.58v.1L4.69 19.7l.23.12 6.95-4.02v.1l1.41-.82 1.11.64 -1.82 1.05 .16.09 -.87.5v.14l-5.47 3.15 .18.11 5.28-3.05v.14l1.3-.76 .25.15 1.82-1.05v-.31l7.08-4.09v-.52l-7.08 4.09v-.19l-1.12-.65 8.19-4.73v-.46l-8.58 4.95 -1.03-.593 2.532-1.48v-.34l7.07-4.08v-.41l-7.08 4.08v-.26l-1.15-.66 8.21-4.743 -.01-.21 -.16-.09 -8.38 4.82 -1.09-.62 2.54-1.48v-.38l5.5-3.176 -.28-.16 -5.25 3.02v-.32l-3.41 1.96 -1.18-.69 8.37-4.835 -.23-.13 -8.358 4.83 -1.15-.66 1.85-1.08 -.35-.21 6.51-3.76Zm-5.3 7.612l1.08.62 -1.22.7 -1.33.76 -1.09-.62Zm1.38.81l1.15.66 -2.558 1.46 -1.14-.66 1.16-.68Zm9.08 2.13l-10.46 6.03v.19L8.2 21.8l.13.08 3.6-2.09v.19l10.45-6.03Zm0 1.93l-10.46 6.03v.24L9.92 22.79l.1.05 1.93-1.11v.23l10.45-6.03Zm0 1.94l-10.46 6.029v.29l-.32.18 .05.02 .25-.15v.28l10.45-6.03Z"/></svg>