<svg viewBox="0 0 24 24" xmlns="http://www.w3.org/2000/svg"><path d="M17.02 0v0c-.25-.01-.5.03-.73.123L2.61 5.003h0c-1.1.38-1.67 1.58-1.28 2.68 0 0 0 0 0 0l5.32 14.91v-.001c.39 1.09 1.59 1.66 2.68 1.27l7.74-2.77c.79-.31 1.34-.54 1.46-.61 .54-.32.96-.82 1.96-2.34 .9-1.37 1.85-3.33 2.09-4.28 .24-.97.23-1.48-.51-3.68l-3.15-8.82v0c-.3-.84-1.08-1.39-1.97-1.4Zm-.09.41c.72-.04 1.4.403 1.657 1.12l3.68 10.35c.1.43-.29 1.14-.74 1.35 -.2.1-.71.29-1.15.42 -1.4.46-2.05.87-2.46 1.54 -.37.59-.32 1.18.16 2.37 .46 1.14.53 1.86.22 2.4 -.12.18-.31.32-1.36.73l-.01-.01 -7.75 2.76v0c-.88.31-1.84-.14-2.16-1.01 -.01-.01-.01-.01-.01-.02L1.67 7.49 1.67 7.48c-.32-.88.13-1.84 1-2.16 0-.01 0-.01.01-.01L16.35.43c.16-.06.33-.1.5-.1Zm-1.04 1.836l-1.21.88 .18.51 .52-.32 .8 2.23 -.7.24c.04.14.21.64.23.66l2.16-.78 -.24-.67 -.69.24Zm-3.29 1.18l-1.21.88 .18.51 .52-.32 .8 2.23 -.7.25c.04.14.21.64.23.66l2.167-.78 -.24-.67 -.69.24ZM9.07 4.78c-.29 0-.56.07-.8.22 -.74.44-.85 1.383-.34 2.558 .33.77.87 1.21 1.46 1.21 1.34-.01 1.86-1.4 1.08-2.95 -.31-.66-.84-1.04-1.42-1.05Zm-.2.67c.16-.01.35.08.53.27 .14.15.34.51.43.78 .35.99.16 1.68-.42 1.54 -.61-.14-1.25-2.07-.84-2.49v0c.07-.08.16-.13.27-.13ZM5.1 6.2c-.29 0-.56.07-.8.22 -.74.44-.85 1.38-.34 2.55 .33.77.87 1.218 1.46 1.21 1.34-.01 1.86-1.4 1.085-2.95 -.31-.66-.84-1.04-1.415-1.045Zm-.2.67c.16-.01.35.08.54.27 .14.15.34.51.43.78 .35.99.16 1.689-.42 1.54 -.6-.15-1.25-2.08-.84-2.49v0c.07-.08.16-.13.27-.13Zm13.36.65c-.29 0-.56.07-.8.22 -.74.44-.85 1.38-.34 2.55 .33.77.87 1.218 1.46 1.21 1.34-.01 1.86-1.4 1.08-2.95 -.31-.66-.84-1.04-1.42-1.05Zm-.2.67c.16-.01.35.08.53.27 .14.15.34.51.43.78 .35.99.16 1.689-.42 1.54 -.61-.15-1.25-2.08-.84-2.49v0c.07-.08.16-.13.27-.13Zm-3.766.75l0 0c-.29-.01-.56.07-.8.22 -.73.44-.85 1.38-.34 2.558 .33.77.87 1.218 1.46 1.21 1.34-.01 1.86-1.4 1.08-2.95 -.31-.66-.84-1.04-1.42-1.045Zm-.19.67c.16-.01.35.08.53.28 .14.15.34.51.43.78 .35.99.16 1.68-.42 1.54 -.6-.15-1.25-2.08-.84-2.49v0c.07-.08.16-.13.27-.13Zm-3.75.74c-.29-.01-.56.07-.8.22 -.74.44-.85 1.38-.34 2.55 .33.77.87 1.218 1.46 1.21 1.34-.01 1.86-1.4 1.08-2.95 -.31-.66-.84-1.04-1.42-1.045Zm-.2.67c.16-.01.35.08.54.27 .14.15.34.51.43.78 .35.99.16 1.689-.42 1.54 -.61-.15-1.25-2.08-.84-2.49v0c.07-.08.16-.13.27-.13Zm-3.52.61l-1.21.88 .18.52 .524-.32 .8 2.23 -.7.25c.04.14.21.641.23.66l2.16-.78 -.24-.67 -.69.24Zm15.664 1.33c.03 0 .04.04.06.13 .02.11-.07.54-.2.95 -.47 1.43-2.06 4.22-3.08 5.39l-.41.47 .05-.67c.03-.57-.02-.82-.38-1.71 -.5-1.27-.54-1.73-.16-2.31 .34-.52 1.02-.907 2.44-1.37 .72-.24 1.17-.47 1.38-.67 .13-.15.2-.22.25-.24v0c0-.01 0-.01.01-.01Zm-6.43 1.47l-1.202.88 .18.52 .52-.32 .8 2.23 -.7.25c.04.14.21.64.23.66l2.16-.78 -.24-.67 -.69.24 -1.093-3.042Zm-3.58 1.33c-.29 0-.56.07-.8.22 -.74.44-.85 1.38-.34 2.558 .33.77.87 1.218 1.46 1.21 1.34-.01 1.86-1.4 1.08-2.95 -.31-.66-.84-1.04-1.42-1.05Zm-.2.67c.16-.01.35.08.54.28 .14.15.34.51.43.78 .35.99.16 1.68-.42 1.54 -.6-.14-1.25-2.08-.84-2.49v0c.07-.08.16-.13.27-.13Zm-3.52.61l-1.21.88 .18.52 .52-.32 .8 2.23 -.7.25c.04.14.21.64.23.66l2.16-.78 -.24-.67 -.69.24L8.51 17Z"/></svg>