<svg viewBox="0 0 24 24" xmlns="http://www.w3.org/2000/svg"><path d="M15.85 8.16h-.001c-.02 0-.03 0-.04 0 -.68.19-.55 1.14-1.79 1.23h-.12 0c-.02-.01-.04 0-.06 0h-.01v0c-.11.02-.19.12-.19.23v1.09c0 .13.1.24.23.24h.64v4.62c0 .13.1.23.23.23h1.05v0c.12-.01.23-.11.23-.24v-4.63h.6c.13 0 .23-.11.23-.25V9.59h0c0-.14-.11-.24-.24-.24h-.62V8.33v0c0-.13-.1-.22-.22-.22 -.01-.01-.01-.01-.01-.01Zm4.22 1.17c-.4 0-.77.15-1.05.39v-.13 0c-.01-.13-.11-.23-.24-.23h-1.07v0c-.14 0-.24.11-.24.24v5.92 0c-.01.13.1.23.23.24h1.07c.12 0 .21-.1.23-.21V11.3v0c-.01-.22.15-.4.37-.41h.19v0c.08 0 .16.03.22.09v0c.09.07.14.19.14.31v4.074l0 .15 -.001 0c-.01.13.1.23.23.24h1.07v0c.12-.01.23-.11.23-.23l-.01-4.246c0-.14.06-.266.17-.34v-.001c.05-.04.12-.07.19-.07h.19c.23.02.37.2.37.4 0 1.39 0 2.8 0 4.224v-.001c-.01.13.1.23.23.24h1.07c.13 0 .23-.11.23-.25v-4.55c0-.31-.04-.45-.08-.577l-.001 0c-.22-.65-.83-1.09-1.51-1.09h-.02v0c-.44 0-.86.18-1.16.5 -.3-.31-.7-.5-1.16-.5ZM.22 9.39l0 0c-.13 0-.24.1-.24.23 0 0 0 0 0 0v5.92c0 .13.096.23.21.24h1.09c.13 0 .23-.11.23-.24l0-1.66h1.02c.85 0 1.45-.61 1.45-1.49v-1.54c0-.88-.6-1.484-1.46-1.484H.18Zm9.032 0h0c-.14 0-.24.1-.24.24 0 0 0 0 0 0v2.47c0 .94.657 1.6 1.57 1.6h.67s.01 0 .03 0v0c.12.01.22.12.22.25s-.1.23-.22.25l-.02 0 -.31 0H9.68v-.001c-.14 0-.24.1-.24.24v1.09 0c-.01.13.1.23.23.24h1.75c.92 0 1.577-.67 1.577-1.61V9.59v0c0-.14-.11-.24-.24-.24h-1.07 -.001c-.14 0-.24.1-.24.24 -.01.78 0 1.52 0 2.25v0c-.01.13-.12.24-.25.25h-.45v-.001c-.14-.01-.26-.12-.25-.26 0-.76-.01-1.5-.01-2.25v0c0-.14-.11-.24-.24-.24Zm-4.01 0v0c-.13-.01-.24.09-.24.22 -.01 0-.01 0-.01 0v1.02c0 .13.11.24.25.24h1.41c.11.01.2.1.21.23v.14c-.02.12-.1.21-.21.22h-.7c-.93 0-1.6.63-1.6 1.51v1.26c0 .88.57 1.5 1.495 1.5h1.94c.34 0 .63-.27.63-.6v-4.14c0-1.01-.51-1.64-1.72-1.64Zm-3.72 1.57h.67c.13 0 .25.11.25.25v.83 0c0 .13-.12.25-.25.25 -.01 0-.01 0-.01 0h-.1c-.2 0-.39 0-.58 0Zm4.67 1.97h.44c.13 0 .25.1.25.24v.93 0c-.01.02-.01.05-.02.07v0c-.04.09-.14.16-.24.16h-.45v0c-.14 0-.25-.11-.26-.24v-.94c0-.14.11-.24.25-.24Z"/></svg>