<svg viewBox="0 0 24 24" xmlns="http://www.w3.org/2000/svg"><path d="M.94 0c.34 1.05 1.87 2.18 2.9 2.62 1.31.55 2.59.68 3.75.81 .89.09 1.7.2 2.34.49 .16.07.32.14.46.24 .45.33.94.98 1.28 1.43 .71.95.58 1.74 1.43 2.21 .08.04.16.08.28.125 .27.1.66.22.84-.16V7.76c.02-.06.04-.13.06-.19 -.08-.23-.33-.44-.47-.54 -.27-.18-.38-.274-.57-.47 -.35-.36-.35-.96-.6-1.38 .3-.14 1.93-.36 2.28-.32 .73.03 1.31.07 1.75.53 .17.13.24.25.4.37 .01 0 .02.02.03.03 .69.5 1.33.67 1.9.84 .14.04.29.1.43.15 .21.07.4.15.59.28 .22.14.6.54.625.87 -.56-.18-.21.03-1.04-.04 -.41-.05-.81-.07-1.22-.1 -.65-.05-1.28-.11-1.88-.22 -.11-.02-.22-.04-.32-.07 -.08-.02-.15-.02-.22-.04 -.01.03 0 .03 0 .06 -.02.62.42.95-.6 2.15 -.01.01-.03.01-.04.03 -.27.31-1.657.91-2.1 1.03 -1.86.37-3.3-.83-5.54-.22 -.79.29-1.36 1.57-1.72 2.53 -.49 1.26-.88 2.79-1.32 4.31 -.2.69-.42 1.4-.66 2.06 -.58 1.58-1.32 2.94-2.41 3.71 -.17.12-.79.41-.82.62 .4.2 4.185.05 4.81 0 2.5-.22 3.64-1.78 4.46-3.91 .56-1.47 1.06-3.99 2.03-5.32 .01-.02.01-.02.03-.04 .14-.2.32-.37.5-.5 .04-.04.07-.07.125-.1 .03-.03.15-.06.34-.1 1.73-.31 9.34-1.35 9.84-6.872 .05-.56.01-1.16-.1-1.82 -.06-.34-.12-.67-.22-1.04 -.25-.87-.8-1.62-1.54-2.22 -.2-.16-.41-.33-.625-.47 -.85-.54-1.88-.921-2.97-1.16 -.74-.16-1.49-.24-2.25-.25C9.645-.19 6.19-.01.74-.22Zm1.625 4.21c.02.03.03.05.06.09 1.59 2.52 3.6 2.5 5.43 2.71 .66.07 1.31.18 1.9.46 .26.12.51.26.75.46 -.03-.14-.08-.26-.125-.38 -.45-1.08-1.65-1.67-2.69-1.97 -1.4-.5-2.41-.02-5.35-1.41Zm1.4 3.186c.01.05 0 .09.03.15 .21.63 1.04 1.65 2.09 1.87 .45.16.31.11 1.09.09 1.14-.06 1.69-.08 2.5.25 -.02-.05-.05-.11-.07-.16 -.63-1.45-1.38-1.2-3.76-1.38 -1.02-.31-1.26-.35-1.91-.85Z"/></svg>