<svg viewBox="0 0 24 24" xmlns="http://www.w3.org/2000/svg"><path d="M17.72 5.76l1.73-3.01c.5-.89.2-2.01-.68-2.52 -.89-.51-2.01-.21-2.52.67l-1.75 3c-3.699-1.17-7.85.34-9.87 3.84 -1.29 2.22-1.45 4.78-.67 7.03l3.2-5.56c.73-1.28 1.92-2.19 3.35-2.58 1.42-.39 2.9-.19 4.18.55 2.63 1.52 3.54 4.9 2.01 7.53 -1.53 2.63-4.9 3.54-7.54 2.01l1.83-3.19c.88.5 2 .2 2.51-.68 .5-.89.2-2.01-.68-2.52 -.89-.51-2.01-.21-2.52.67L4.44 21.15c-.51.88-.21 2 .67 2.51 .88.5 2 .2 2.51-.68l1.74-3.01c3.699 1.16 7.84-.35 9.86-3.85 2.01-3.5 1.25-7.833-1.61-10.47Z"/></svg>