<svg viewBox="0 0 24 24" xmlns="http://www.w3.org/2000/svg"><path d="M2.053 11.914h.36c.41 0 .67-.25.718-.56 .04-.27-.16-.56-.55-.56h-.36Zm18.61-.64l.83-1.51h1.92l-2.91 4.39h-1.96l.93-1.26 -1.07-3.05 -.73 4.3h-1.54l-.95-2.04 -.35 2.03h-1.54l.74-4.4h1.58l.91 1.971 .33-1.97h3.37l.39 1.5Zm-7.21-1.51l-.75 4.39h-1.54l-.95-2.04 -.35 2.03h-1.54l.74-4.4h1.58l.91 1.971 .33-1.97h1.53ZM3.03 9.69c1.07 0 1.78.54 1.79 1.43l.23-1.38h3.49l-.19 1.112h-1.85l-.1.52h1.66l-.19 1.1h-1.67l-.1.548h1.87l-.19 1.112H4.27l.4-2.38c-.28.77-1.009 1.22-1.97 1.22h-.88l-.2 1.15H-.06L.69 9.662Zm20.964 3.63c0 .52-.45.94-1 .94s-1-.43-1-.95c0-.53.44-.95.99-.95s.99.42.99.94Z"/></svg>