<svg viewBox="0 0 24 24" xmlns="http://www.w3.org/2000/svg"><path d="M3.74 8.75c.16-.43.35-.84.57-1.22 -.22-.2-.75-.62-.72-.65 2.77-3.33 6.391-4.32 9.59-3.74 .65.09 1.31.24 1.95.48 4.58 1.7 6.898 6.75 5.18 11.28h0c-.18.44-.38.87-.62 1.28 .25.22.81.63.77.66 -3.08 3.64-7.177 4.48-10.589 3.47L9.87 20.3c-.34-.09-.66-.19-.99-.3C4.3 18.29 1.98 13.24 3.7 8.72ZM19.37.97c-.59.556-1.28 1.22-1.62 1.53v0c-.56-.32-1.14-.59-1.73-.81 -5.21-1.94-10.69.25-13.71 4.32C.73 8.34-.21 11.21.02 14.17s0 5.55 5.14 8.83c.41-.58.94-1.31 1.3-1.79v0c.58.33 1.18.62 1.81.86 5.89 2.18 12.42-.61 14.55-6.228 0 0 1.56-3.43 1.04-7.176 0 0-.41-5.057-4.53-7.71Z"/></svg>