<svg viewBox="0 0 24 24" xmlns="http://www.w3.org/2000/svg"><path d="M11.63-.001c-.15 0-.21.689-.26 2.925 -.06 2.86-.07 2.949-.51 3.91 -.36.79-1.63 2.676-2.04 3.04 -.38.32-1.19 1.56-1.58 2.401 -.71 1.5-.66 3.52-.04 5.04 .51 1.19 1.26 2.15 2.46 3.18 .94.8 1.23.91 1.375.54 .04-.13-.17-.58-.49-1.02 -.32-.44-.843-1.37-1.18-2.06 -1.39-2.93-.7-5.36.9-8.05 .89-1.4 1.4-2.65 1.57-3.86 .22-1.52.04-6.08-.24-6.08Zm-.76 1.21c-.19 0-.23.26-.23 1.42 0 .782-.08 1.654-.18 1.93 -.32.91-1.154 1.737-3.49 3.404 -1.69 1.2-3.1 2.652-3.64 3.73 -1.67 3.29-.2 7.31 3.42 9.333 1.61.9 2.96 1.25 2.96.76 0-.13-.06-.23-.13-.23s-.64-.34-1.26-.74c-2.69-1.76-3.947-3.93-3.747-6.49 .15-1.91.87-3.08 3.79-6.14 2.52-2.636 2.69-2.97 2.69-5.304 0-1.42-.04-1.71-.23-1.71Zm1.5.63c-.11.01-.14.9-.15 2.903l-.01 2.926 -.75 2.81c-.83 2.54-.96 5.13-.35 7.72 .55 2.2.79 2.63 1.56 2.85 .34.09.89.35 1.21.57 .73.49 1.39.43 2.71-.24 1.92-.97 3.2-2.23 4.067-3.96 .74-1.65.85-3.71.06-5.35 -.7-1.42-1.89-2.56-4.36-4.197 -2.17-1.436-2.62-1.82-3.15-2.66 -.33-.51-.37-.73-.31-1.444 .04-.47.12-.98.19-1.14 .1-.24.06-.27-.21-.19 -.26.08-.34.02-.42-.29 -.07-.25-.12-.38-.16-.365Zm.71 4.586c.03-.01.13.11.25.3 .14.23 1.02 1 1.952 1.69 2.888 2.189 5.27 4.378 4.08 8.2 -.41 1.14-.99 2.07-1.97 3.09 -.55.57-1.27 1.09-1.53 1.09 -.05 0 .25-.43.66-.96 1.33-1.7 1.97-3.72 1.79-5.68 -.17-1.8-1.56-3.98-3.753-5.89 -.92-.8-1.52-1.54-1.52-1.85 0-.02 0-.03.01-.03Zm-1.09 15.49c-.21-.01-.3.34-.3 1.12 0 .94.01.98.34.94 .3-.05.34-.15.38-.9 .03-.62-.02-.91-.19-1.04 -.1-.08-.18-.13-.25-.125Zm-1.06.28c-.13-.01-.23.14-.33.43 -.09.24-.26.48-.38.52 -.33.12-.27.55.07.55 .16 0 .4-.11.53-.24 .44-.45.57-.83.38-1.07 -.12-.14-.21-.21-.29-.21Zm2.074.06c-.32 0-.28.61.05 1.03 .3.39.9.56.9.26 0-.26-.78-1.3-.97-1.3Z"/></svg>