<svg viewBox="0 0 24 24" xmlns="http://www.w3.org/2000/svg"><path d="M23.18 10.01l-4.43-4.449c-1.71-1.79-4.1-2.91-6.76-2.91s-5.06 1.11-6.76 2.9L.8 10H.79c-1.1 1.09-1.1 2.86-.001 3.96l4.542 4.57c1.69 1.71 4.04 2.77 6.63 2.77s4.945-1.07 6.63-2.78l4.54-4.58v-.001c1.09-1.1 1.09-2.87 0-3.97ZM12 19.37v0c-4.08 0-7.39-3.31-7.39-7.384 0-4.08 3.3-7.39 7.38-7.384v0c4.07 0 7.38 3.3 7.38 7.384 0 4.07-3.31 7.384-7.39 7.384Zm3.651-7.58l.99-1.02 -.45-1.03h-1.43l-.46-.45 -.04-1.44 -1.01-.44 -1.01.99h-.63l-1.05-1.01 -1.03.41 .03 1.4 -.45.44 -1.45-.02 -.41 1.02 1.03 1.01 0 .63 -1 1 .44 1.03 1.42-.01 .45.45 .01 1.42 1.06.44 .96-1.01 .63.01 1.02 1.01 1.04-.43 -.05-1.41 .44-.44 1.43.01 .42-1.03 -1.03-1 -.01-.63Zm-3.715 1.8h-.001c-.85.02-1.56-.65-1.58-1.5 -.03-.85.64-1.56 1.49-1.58 .02-.01.05-.01.07 0v0c.84.02 1.51.72 1.49 1.57 -.03.81-.68 1.47-1.5 1.49Z"/></svg>