<svg viewBox="0 0 24 24" xmlns="http://www.w3.org/2000/svg"><path d="M10.206 9.94h2.949v4.692c-.41.2-.94.26-1.34.26 -1.08 0-1.609-.54-1.609-1.75V9.92Zm13.47 4.81c-1.53 6.44-7.99 10.442-14.433 8.91C2.79 22.13-1.21 15.67.32 9.22 1.84 2.77 8.3-1.23 14.75.3c6.44 1.52 10.44 7.98 8.91 14.433Zm-6.24-5.888h0c-.01-.48-.4-.87-.88-.88h-1.61l-3.686-4.23c-.34-.41-.88-.536-1.407-.41l-1.28.4c-.21.06-.27.33-.14.46l4.02 3.82h-6.1c-.21 0-.34.13-.34.33v.67c0 .46.4.87.87.87h.93v3.21c0 2.41 1.27 3.82 3.418 3.82 .67 0 1.2-.07 1.87-.34v2.14c0 .6.46 1.07 1.07 1.07h.93 0c.21-.02.38-.19.4-.41V9.79h1.54c.2 0 .33-.14.33-.34v-.67Z"/></svg>