<svg viewBox="0 0 24 24" xmlns="http://www.w3.org/2000/svg"><path d="M20.098 0v0c2.15-.01 3.9 1.74 3.9 3.89 0 0 0 0-.01 0v16.19 -.001c0 2.15-1.75 3.9-3.9 3.9 -.01 0-.01 0-.01 0H6.36l-.06-10.34v-.08c0-3.92 3.11-7.09 6.963-7.09 2.31 0 4.177 1.9 4.177 4.25s-1.87 4.254-4.177 4.254c-.77 0-1.4-.64-1.4-1.42 0-.79.62-1.42 1.39-1.42 .76 0 1.39-.64 1.39-1.42 0-.79-.63-1.42-1.4-1.42 -2.31 0-4.18 1.9-4.18 4.253 0 2.35 1.86 4.254 4.17 4.254 3.85 0 6.96-3.17 6.96-7.09s-3.12-7.09-6.97-7.09c-5.39 0-9.75 4.43-9.75 9.925v.08l.02 10.31H3.5c-2.03-.17-3.58-1.86-3.58-3.89V3.85 3.85C-.09 1.69 1.66-.06 3.81-.06c0-.01 0-.01 0-.01Z"/></svg>