<svg viewBox="0 0 24 24" xmlns="http://www.w3.org/2000/svg"><path d="M12 0C5.373 0 0 5.373 0 12c0 6.62 5.373 12 12 12 6.628 0 12-5.38 12-12 0-6.63-5.372-12-12-12ZM7.08 4.18h2.78c.23 0 .42.21.42.47v14.696c0 .26-.19.47-.42.47H7.08c-.24 0-.42-.21-.42-.47V4.65c0-.26.18-.47.42-.47Zm4.664 0V4.17c.11-.01.22.03.32.09 .35.2 7.45 4.42 8.05 4.78v0c.28.17.38.54.21.82 -.06.08-.13.15-.22.21 -.44.26-7.558 4.49-8.074 4.789h-.001c-.28.16-.63.07-.8-.2 -.06-.1-.09-.21-.09-.32v-1.82c0-1.72 2.96-2.21 3.39-2.465v-.001c.28-.17.38-.55.21-.83 -.06-.09-.13-.17-.22-.22 -.61-.36-3.4-.75-3.4-2.452V4.75c0-.34.25-.61.56-.61Z"/></svg>