<svg viewBox="0 0 24 24" xmlns="http://www.w3.org/2000/svg"><path d="M24 10.579c0 .26-.22.47-.48.47h-1.34c-.05 0-.09.03-.09.08v.54h1.89v.15c0 .26-.22.47-.48.47h-1.43v.54c0 .04.03.08.08.08h1.811v.15c0 .26-.22.47-.48.47H21.9v0c-.27 0-.48-.22-.48-.48 -.01-.01-.01-.01 0-.01v-2.22c0-.27.21-.48.47-.48h2.05v.15m-5.59.47v-.001c-.06 0-.1.04-.1.09v.85h1.42c.27 0 .48-.23.47-.5 -.02-.26-.23-.45-.49-.45h-1.32m2.43.46c0 .44-.25.82-.62 1l.61 1.06h-.55c-.12 0-.22-.06-.28-.16l-.46-.79h-1.25v.47c0 .26-.22.47-.48.47h-.16v-2.69c0-.27.21-.48.47-.48h1.54c.61-.01 1.12.48 1.13 1.09m-5.37 1.43c.52 0 .94-.43.94-.95 0-.53-.43-.95-.95-.95 -.33 0-.62.16-.79.42l-.35.52 .34.52c.17.25.46.42.79.42m0-2.526c.87 0 1.57.7 1.57 1.57 0 .87-.71 1.57-1.58 1.57 -.55 0-1.04-.29-1.32-.71l-.2-.3 -.43.64c-.4.59-1.08.99-1.85.99 -1.221 0-2.22-.99-2.22-2.22 0-1.221.99-2.22 2.21-2.22 .76 0 1.44.39 1.83.98l.05.08 -.38.57 -.21-.32c-.29-.42-.77-.7-1.31-.7 -.88 0-1.58.7-1.58 1.57 0 .87.7 1.57 1.57 1.57 .54 0 1.03-.29 1.31-.71l1.15-1.75c.28-.43.766-.71 1.31-.71m-7.4.13l-1.07 1.06h0c-.04.03-.1.03-.14 0l-1.07-1.07H5.56c-.18-.18-.46-.18-.64-.01 -.09.08-.14.19-.14.31v2.71h.15c.26 0 .47-.22.47-.48v-1.69c0-.04.04-.06.07-.03l.85.85c.18.18.48.18.67 0l.85-.86h0c.01-.02.04-.02.05 0 0 0 .01.01.01.02v2.16h.15c.26 0 .47-.22.47-.48v-2.25c0-.25-.2-.45-.45-.45h-.01c-.12 0-.23.04-.32.13M3.6 13.23c.26 0 .47-.22.47-.48v-2.69h-.16c-.27 0-.48.21-.48.47v2.68h.15m-1.91-1.58c.25 0 .47-.2.48-.45 .01-.28-.21-.5-.48-.5H.34c-.06 0-.1.04-.1.09v.85h1.4m-.02-1.58c.61 0 1.14.5 1.134 1.12 -.02.6-.51 1.08-1.105 1.08H.22v.47c-.001.26-.22.47-.48.47h-.16v-2.69c0-.27.21-.48.47-.48H1.6"/></svg>