<svg viewBox="0 0 24 24" xmlns="http://www.w3.org/2000/svg"><path d="M12.017 0C5.387 0 .02 5.36.02 11.987c0 5.07 3.158 9.417 7.61 11.162 -.11-.95-.2-2.41.04-3.439 .21-.94 1.4-5.96 1.4-5.96s-.359-.72-.359-1.79c0-1.67.96-2.92 2.16-2.92 1.02 0 1.51.76 1.51 1.68 0 1.029-.66 2.567-1 3.99 -.29 1.19.6 2.16 1.77 2.16 2.128 0 3.76-2.25 3.76-5.487 0-2.87-2.07-4.869-5.01-4.869 -3.41 0-5.41 2.56-5.41 5.199 0 1.03.39 2.14.88 2.74 .09.12.11.22.08.34 -.09.375-.3 1.19-.34 1.36 -.06.22-.18.27-.41.16 -1.495-.69-2.433-2.878-2.433-4.65 0-3.776 2.748-7.252 7.92-7.252 4.15 0 7.39 2.96 7.39 6.92 0 4.135-2.61 7.462-6.24 7.462 -1.22 0-2.36-.63-2.76-1.38l-.75 2.84c-.27 1.04-1.01 2.35-1.5 3.14 1.12.34 2.3.53 3.55.53 6.6 0 11.985-5.37 11.985-11.987C23.87 5.3 18.49-.06 11.88-.06l.03-.03Z"/></svg>