<svg viewBox="0 0 24 24" xmlns="http://www.w3.org/2000/svg"><path d="M12.002 0C5.38 0 0 5.382 0 11.998 0 18.616 5.38 24 12.002 24 18.61 24 24 18.61 24 11.998 24 5.382 18.61 0 12.002 0Zm0 2.43h0c5.28 0 9.56 4.28 9.56 9.568 0 5.286-4.29 9.57-9.568 9.57 -5.285 0-9.57-4.29-9.57-9.58C2.42 6.7 6.7 2.42 11.99 2.42Zm-.14 1.31L8.817 5.49v0l2.68 4.64c.42-.12.88-.08 1.31.11l1.41-2.442 -2.36-4.08Zm4.17 2.256l-2.68 4.643c.32.32.52.74.55 1.19h2.81l2.35-4.08 -3.05-1.77ZM4.772 7.97v3.55h0v-.03h5.36v0c.11-.44.38-.83.75-1.08L9.47 7.97H4.76Zm2.487 4.182l-2.36 4.07 3.04 1.76 2.68-4.645v0c-.32-.32-.52-.75-.56-1.2H7.23Zm6.59.33v0c-.12.43-.39.82-.76 1.07l1.41 2.44h4.7v-3.52h-5.37Zm-2.67 1.24l-1.41 2.44 2.35 4.07 3.04-1.76 -2.68-4.64c-.43.11-.89.08-1.32-.12Z"/></svg>