<svg viewBox="0 0 24 24" xmlns="http://www.w3.org/2000/svg"><path d="M16.712 12.777h0c0 2.6-2.11 4.71-4.72 4.71v0c-2.61 0-4.72-2.12-4.713-4.72v-.001c0-2.61 2.11-4.72 4.713-4.72v0c2.6 0 4.71 2.1 4.712 4.71ZM19.112 0c-2.58.05-2.36 1.54-8.24 1.55H6.72l-.001 0C3.43 1.54.77 4.21.77 7.491c-.01 0-.01 0-.01 0v10.55 0c-.01 3.28 2.66 5.94 5.94 5.94 0 0 0-.01 0-.01h10.55v0c3.28 0 5.94-2.67 5.94-5.95 0-.01 0-.01 0-.01V4.03l-.01-.02c0-.02 0-.03 0-.05 0-2.23-1.88-4.02-4.11-4.02Zm.09 2.54v0c.77 0 1.4.63 1.407 1.41v0c-.01.77-.64 1.4-1.41 1.4v0c-.78 0-1.41-.63-1.41-1.41 -.001-.01-.001-.01-.01-.01v0c-.01-.78.62-1.41 1.4-1.41 0-.01 0-.01 0 0ZM11.99 6.11h0c3.67-.01 6.65 2.97 6.65 6.655v0c0 3.67-2.98 6.65-6.66 6.65 -.01 0-.01 0-.01 0h0c-3.68 0-6.66-2.98-6.66-6.66 -.001-.01 0-.01 0-.01v0c0-3.68 2.98-6.66 6.65-6.66Z"/></svg>