<svg viewBox="0 0 24 24" xmlns="http://www.w3.org/2000/svg"><path d="M5.28 18.36v0c.93 0 1.83-.37 2.49-1.04l3.6-3.6v0c.26-.26.68-.26.94-.001l3.61 3.61h-.001c.65.66 1.55 1.03 2.49 1.03h.71l-4.56 4.56v0c-1.43 1.42-3.74 1.42-5.16 0l-4.58-4.58ZM18.42 5.62V5.62c-.94-.01-1.84.36-2.5 1.032l-3.62 3.61v0c-.27.26-.69.26-.95 0l-3.6-3.6v0c-.66-.67-1.56-1.04-2.5-1.04h-.44L9.38 1.04v0c1.42-1.43 3.73-1.43 5.15-.001l4.55 4.559ZM1.06 9.41l2.72-2.73h1.49v0c.65 0 1.28.26 1.74.72l3.6 3.6h0c.67.67 1.76.67 2.44 0l3.61-3.62 -.001 0c.46-.47 1.09-.73 1.74-.73h1.76l2.73 2.737v0c1.42 1.42 1.42 3.73 0 5.15l-2.74 2.73h-1.77v0c-.66-.01-1.29-.27-1.75-.73l-3.62-3.62v0c-.69-.66-1.77-.66-2.45 0l-3.6 3.6v0c-.47.46-1.1.72-1.75.72H3.7L.97 14.51h0C-.46 13.08-.46 10.77.97 9.35"/></svg>