<svg viewBox="0 0 24 24" xmlns="http://www.w3.org/2000/svg"><path d="M4.935-.001v-.001C2.21-.012 0 2.188-.01 4.908c-.01 0-.01.01 0 .02v14.13 -.001c-.01 2.71 2.19 4.92 4.91 4.93 0 0 .01 0 .02 0h14.13v0c2.71 0 4.92-2.2 4.93-4.92 0-.01 0-.02 0-.03V4.9v0c0-2.72-2.2-4.93-4.92-4.94 -.01-.01-.02-.01-.03 0Zm7.81 4.547c2.18 0 4.058.67 5.39 1.84v0c1.35 1.16 2.12 2.87 2.11 4.66 0 1.85-.88 3.47-2.26 4.56 -1.375 1.09-3.23 1.69-5.26 1.69 -2.314 0-4.46-.85-4.46-.85v2.718c.39.11 1.048.36.63.77H5.76c-.41-.41.19-.65.64-.78V7.63C5.35 8.44 4.81 9.14 4.53 9.66c.32 1.02-.29.96-.29.96L3.15 8.89s3.86-4.39 9.553-4.39Zm-.19.97c-1.423-.01-3.19.47-4.27 1.24v8.64c.98.48 2.484.83 4.26.83h.01c1.596 0 2.98-.593 3.93-1.54 .95-.95 1.48-2.183 1.49-3.683 -.01-1.54-.51-2.87-1.42-3.86 -.92-.992-2.28-1.65-4.01-1.646Z"/></svg>