<svg viewBox="0 0 24 24" xmlns="http://www.w3.org/2000/svg"><path d="M15.36 9.433h-3.15c-.97 0-1.45.6-1.45 1.38v2.365c0 .48-.23.83-.71.83H7.29v0c-.02 0-.04.01-.04.03v.47c0 .02.01.03.03.03h3.11c.97 0 1.45-.6 1.45-1.38v-2.37c0-.484.22-.84.71-.84h2.78c.02 0 .04-.02.04-.04v-.48c0-.02-.02-.04-.04-.04Zm-9.266 0H.03c-.03 0-.04.01-.04.03v.47c0 .02.016.03.038.03h5.69c.48 0 .71.34.71.83 0 .48-.23.83-.71.83H1.21c-.7 0-1.23.58-1.23 1.36v1.513c0 .02.02.03.04.03h1.03c.02 0 .04-.02.04-.04V12.97c0-.48.28-.82.68-.82h4.3c.97 0 1.444-.6 1.444-1.38 0-.78-.48-1.38-1.45-1.38Zm17.45 2.49h0c-.02-.02-.02-.05-.001-.06 .3-.25.45-.63.45-1.07 0-.78-.48-1.38-1.45-1.38h-6.06c-.02 0-.04.01-.04.03v.47c0 .02.02.04.04.04h5.7c.48 0 .71.35.71.83s-.23.83-.72.83h-5.7c-.02 0-.04.02-.04.04v.48c0 .02.01.03.03.03h5.7c.63 0 .71.62.71.93v.06c0 .48-.23.83-.71.83h-5.7c-.02 0-.04.01-.04.03v.47c0 .02.01.03.03.03h6.05c.97 0 1.44-.65 1.44-1.38v-.06c0-.47-.15-.92-.45-1.19Z"/></svg>