<svg viewBox="0 0 24 24" xmlns="http://www.w3.org/2000/svg"><path d="M12.9 1.9v0c-3.06-.03-5.96 1.34-7.89 3.7V5.59c-.1.11-.2.23-.29.35l0-.01c.23-.2.47-.35.71-.45l.05-.03c.29-.12.6-.15.9-.09 1.44.28 2.19 2.6 1.67 5.18 -.52 2.574-2.1 4.42-3.54 4.13 -1.02-.21-1.68-1.41-1.82-3v-.01 .05c-.01.13-.01.266 0 .4v.07l0 .05c0 .14.01.29.02.44 0 .06.01.13.01.2l0-.001c.11 1.19.43 2.36.96 3.44 .06.12.03.27-.08.36l-.28.22h0c-.29.23-.4.61-.29.97 0 0 0 .01 0 .01v0c.01.04.03.09.05.14l.05-.04 .23-.18h0c.11-.09.27-.07.36.05 .08.11.06.27-.05.36l-.25.18 -.04.02 1.17 1.44h0c.31.38.88.44 1.27.13l.258-.21v0c.1-.09.26-.09.37 0l-.001 0c1.85 1.47 4.16 2.24 6.52 2.18l-.001 0c2-.05 3.94-.7 5.57-1.86v0c.11-.09.27-.08.38.02l.16.15v0c.32.3.82.33 1.17.05l-.01-.01 -.21-.2v0c-.11-.11-.1-.27 0-.38 .09-.1.25-.11.35-.02l.22.21 1.26-1.33v0c.34-.37.32-.94-.04-1.29l-.27-.25v0c-.1-.1-.13-.25-.06-.36v0c1.12-2.03 1.51-4.39 1.1-6.68 .3-.28.85-.83 1.06-1.3 .23-.51.29-1.02-.33-.8 -.48.17-.85.29-1.29.19 -1.42-3.6-4.85-6.2-8.86-6.41l0 0c-.16-.01-.32-.02-.48-.02ZM2.26 6.24v0c-.68.01-1.22.57-1.21 1.25 0 .17.04.35.12.51v0c-.68.02-1.21.59-1.19 1.27 .02.67.59 1.2 1.27 1.18 .23-.01.46-.09.65-.23 .17-.13.3-.29.39-.47 .18.34.46.62.77.82v0c-.01.2 0 .4.01.6 .1 1.22.62 2.16 1.4 2.31 1.11.22 2.34-1.21 2.73-3.2 .39-1.99-.19-3.79-1.295-4.01 -.44-.09-.89.08-1.298.43 -.45.383-.86.98-1.14 1.73 -.01-.01-.02-.01-.03-.01 -.14-.04-.22-.14-.32-.16v0c.46-.5.43-1.28-.07-1.74 -.24-.22-.55-.34-.86-.33Zm2.862 1.24c.05 0 .1 0 .16.01 .726.14 1.104 1.31.84 2.6 -.26 1.29-1.06 2.23-1.79 2.08 -.5-.1-.83-.67-.91-1.44 .18.07.37.11.56.12 .52.02.87-.16 1.14-.52 .34-.47.08-1.76-.38-1.92 -.36-.13-.57.02-.89.05 .16-.3.35-.55.55-.72 .21-.19.45-.3.68-.3Z"/></svg>