<svg viewBox="0 0 24 24" xmlns="http://www.w3.org/2000/svg"><path d="M12 0C5.372 0 0 5.372 0 12c0 6.628 5.372 12 12 12s12-5.372 12-12 -5.372-12-12-12Zm3.564 12c0-1.968-1.596-3.564-3.564-3.564s-3.564 1.59-3.564 3.564c0 1.968 1.59 3.564 3.564 3.564v2.03c-3.093 0-5.6-2.51-5.6-5.6 0-3.093 2.5-5.6 5.6-5.6 3.093 0 5.6 2.5 5.6 5.6h-2.04ZM19 12c0-3.87-3.14-7-7-7 -3.87 0-7 3.13-7 7 0 3.86 3.13 7 7 7v2.33c-5.16 0-9.333-4.18-9.333-9.333C2.667 6.83 6.846 2.66 12 2.66c5.15 0 9.33 4.179 9.33 9.333h-2.34Z"/></svg>