<svg viewBox="0 0 24 24" xmlns="http://www.w3.org/2000/svg"><path d="M17.2.27L6.75.3V.29c-.08-.01-.16.03-.21.09L.04 8.58h0c-.05.06-.07.14-.05.21l2.35 10.19v0c.01.07.06.14.14.17l9.43 4.51v0c.07.03.15.03.22-.01l9.4-4.57v0c.07-.04.12-.1.14-.18l2.29-10.21h0c.01-.08-.01-.16-.06-.22L17.36.31l-.001 0c-.05-.07-.13-.1-.21-.1Zm-.13.517l6.38 7.966 -2.25 9.964 -9.18 4.45 -9.205-4.41L.51 8.8 6.85.8Zm-5.62 2.065c-.94 0-1.84.1-2.426.33h-.01c-1.56.569-2.73 2.1-3.074 3.95v0c-.31 1.463-.4 2.7-.556 3.82 -.07.48-.16.94-.29 1.38 -.63.49-1.08 1.263-1.25 2.138v0c-.12.54-.19 1.04-.24 1.5h-.65v.51h8.891c-.07.46-.13.99-.19 1.42H7.54v.51h7.939c-.25-.08-.49-.22-.76-.51h-.7l-.85.48 -.24-.4 .16-.1h-1.07c.11-.78.17-1.61.37-2.564v-.01c.22-1.17.96-2.112 1.89-2.46l0-.01h0c.31-.13.92-.21 1.54-.21 .61 0 1.24.07 1.62.2 .93.34 1.67 1.29 1.89 2.45v0c.2.96.26 1.78.37 2.564h-.75l.16.09 -.24.39 -.85-.49h-.75c-.22.25-.48.41-.75.5h4.39v-.52h-.85c-.11-.75-.19-1.67-.39-2.63v-.01 0c-.06-.3-.15-.59-.27-.87h1.86v-.52h-2.13v-.001c-.22-.35-.49-.66-.8-.91h1.8v-.52H17.8v-.001c-.08-.26-.15-.52-.2-.78h1.48v-.52H17.5c-.02-.09-.03-.17-.04-.25 -.17-1.12-.25-2.36-.56-3.824v-.01c-.35-1.85-1.52-3.39-3.08-3.96l-.01-.01h-.01c-.65-.23-1.596-.33-2.54-.33Zm0 .38c.9 0 1.83.11 2.404.3h0c1.4.51 2.5 1.93 2.82 3.66v0c.3 1.436.38 2.66.55 3.8 .07.51.17 1.013.31 1.5 -.45-.14-1.05-.2-1.65-.2 -.12 0-.24 0-.36 0l-1.87-1.87h0c.04-.08.07-.17.11-.25l2.13 1.23 .13-.23 -2.19-1.27c.01-.07.02-.14.03-.21l2.3.61 .06-.25 -2.36-.63c-.02-1.16-1.01-2.08-2.208-2.08 -1.205 0-2.2.93-2.21 2.09l-2.303.61 .06.25 2.25-.61c.01.07.02.15.04.22l-2.14 1.23 .12.22 2.08-1.21c.03.08.07.17.12.25L8.4 11.658v0c-.35-.06-.7-.08-1.045-.08 -.61 0-1.186.06-1.58.22h0c-.1.03-.2.07-.29.12 .07-.34.13-.68.18-1.03 .16-1.15.24-2.37.55-3.81l0-.01v-.01c.32-1.74 1.42-3.16 2.82-3.67h0l0-.01c.48-.2 1.38-.31 2.28-.31ZM8.463 5.18V5.18c-.38.01-.74.2-.97.5l-.12.15 .3.23 .12-.16v0c.16-.21.4-.34.67-.36v0c.24-.01.49.08.67.26l.13.13 .27-.28 -.14-.14v0c-.26-.26-.61-.39-.97-.37Zm6.39 0h0c-.36-.02-.71.11-.96.37l-.14.13 .27.27 .13-.14v-.001c.17-.18.42-.27.67-.27h0c.26.01.51.14.67.35l.11.15 .3-.24 -.12-.16c-.23-.3-.59-.49-.97-.51ZM8.52 6.69c-.65 0-1.17.53-1.17 1.19 0 .65.52 1.18 1.16 1.18 .64 0 1.16-.54 1.16-1.19 0-.66-.53-1.19-1.17-1.19Zm6.27 0c-.65 0-1.17.53-1.17 1.19 0 .65.52 1.18 1.16 1.18 .64 0 1.16-.54 1.16-1.19 0-.66-.53-1.19-1.17-1.19Zm-6.273.38c.42 0 .77.35.77.8 0 .44-.35.8-.78.8h0c-.44-.01-.79-.37-.78-.8 0-.01 0-.01 0-.01 0-.04 0-.07 0-.11 .07.19.24.31.44.31v0c.26-.01.48-.23.47-.5v0c0-.24-.16-.44-.39-.49v0c.07-.03.15-.04.23-.04Zm6.273 0c.42 0 .77.35.77.8 0 .44-.35.8-.78.8h0c-.44-.01-.79-.36-.78-.8 0-.04 0-.08 0-.11 .07.19.24.31.44.31v0c.26-.01.48-.23.47-.5 -.01-.01-.01-.01-.01-.01h0c0-.24-.16-.44-.39-.49v0c.07-.03.15-.04.23-.04Zm-3.08.71c1.01 0 1.81.77 1.81 1.72 0 .94-.81 1.72-1.82 1.72 -1.02 0-1.82-.78-1.82-1.73s.8-1.73 1.82-1.73Zm-.01.52c-.15 0-.26.04-.36.07v-.001c-.08.02-.16.04-.24.05 -.11 0-.2.04-.27.12v0c-.05.06-.09.13-.11.2 -.04.13-.07.26-.08.31v0c-.04.08-.02.17.03.25 .03.05.07.1.11.14 .09.09.2.18.32.26 .12.08.23.16.32.22l-.01.09c-.05.03-.14.1-.33.17v-.001c-.1.03-.2.04-.3.02v-.001c-.1-.03-.18-.09-.24-.18 .01-.14.04-.3.06-.45l-.38-.1c-.05.23-.07.43-.1.64l.03.05c.14.22.31.34.5.39v0c.17.04.35.02.52-.04v0c.16-.06.31-.14.44-.25 .08.06.24.17.44.24v0c.16.06.34.07.52.03v0c.21-.07.39-.21.5-.4l.03-.06h0c-.03-.22-.06-.43-.1-.64l-.38.09c.03.14.05.32.07.45v0c-.06.08-.15.14-.24.17h0c-.11.02-.21.01-.3-.03 -.18-.07-.28-.14-.33-.18l-.01-.09c.09-.06.2-.14.33-.23 .11-.09.23-.18.32-.27v0c.04-.05.08-.1.11-.15v0c.05-.08.06-.17.03-.25 -.02-.05-.04-.19-.08-.32h0c-.02-.08-.06-.15-.11-.21h0c-.07-.09-.17-.13-.27-.13h-.001c-.09-.01-.16-.03-.24-.06 -.1-.04-.22-.08-.36-.08Zm0 .38c.05 0 .13.02.23.05 .09.03.2.07.33.07 .04.1.06.23.09.33h-.001c-.02.01-.03.03-.05.04v0c-.09.08-.18.15-.28.22 -.17.12-.28.18-.35.23v0c-.12-.08-.23-.16-.34-.24v0c-.1-.07-.19-.15-.28-.23v0c-.02-.02-.03-.04-.04-.05 .03-.12.04-.24.08-.34 .08.01.24-.05.33-.08v0c.07-.03.15-.05.23-.06Zm-3.234.61v0c-.31 0-.56.22-.62.51l1.08-.29V9.51c-.12-.15-.29-.23-.48-.23Zm6.336 0v0c-.17 0-.33.06-.44.18 .35.09.69.18 1.03.27v0c-.08-.27-.32-.46-.6-.47Zm-.63.6c-.01.03-.01.07-.01.1l.92.532v0c.12-.08.22-.19.27-.32l-1.2-.33Zm-5.086.05l-1.18.31c.07.15.2.26.36.31l.79-.46c.01-.06.01-.12.02-.17Zm4.44.71l1.65 1.65V12.3c-.28.02-.56.06-.83.14l-.95-1.65 0 0c.04-.06.08-.11.12-.16Zm-3.65.03c.04.05.08.11.12.16l-.66 1.13H9.33c-.09-.05-.19-.09-.28-.12l-.01-.01v0c-.1-.04-.2-.06-.3-.09Zm3.33.31l.89 1.54c-.63.25-1.15.72-1.53 1.33H10.9c-.27-.75-.75-1.38-1.36-1.77l.62-1.09c.39.34.91.55 1.49.55v0c.56 0 1.1-.21 1.52-.59Zm-5.79 1.03c.57 0 1.16.07 1.51.19 .86.31 1.55 1.2 1.76 2.285l0 0v0c.1.51.17.98.22 1.42H9.79v0c-.15-.12-.36-.12-.5 0h-.26v0c-.01-.15-.04-.29-.08-.42v0c.15.15.35.23.56.23 .45 0 .81-.375.81-.83v0c0-.46-.37-.83-.82-.83v-.001c-.46 0-.82.37-.82.82 0 .06 0 .12.02.18v0c-.29-.36-.73-.57-1.18-.56 -.798 0-1.46.61-1.48 1.38h-.35 0c-.15-.12-.36-.12-.5 0H3.9c.05-.45.11-.92.22-1.43l0-.01v-.01c.2-1.09.89-1.97 1.76-2.29h0l0-.01c.29-.12.86-.2 1.43-.19Zm-1.91 1.1v0c-.27.01-.51.13-.67.34l-.12.15 .3.23 .11-.16H5.12c.09-.12.23-.19.37-.2v0c.14-.01.27.04.37.14l.13.13 .27-.28 -.14-.14v0c-.18-.18-.42-.27-.67-.26Zm4.09 0v0c-.25-.02-.5.08-.67.25l-.14.13 .27.27 .13-.14h0c.1-.1.23-.16.37-.15v0c.14 0 .28.08.37.19l.11.15 .3-.24 -.12-.16v-.001c-.17-.21-.41-.34-.67-.35Zm4.22.73v0c-.28.01-.54.14-.71.36l-.12.15 .3.23 .12-.16v0c.1-.13.25-.21.41-.22v0c.15-.01.3.05.41.15l.14.13 .27-.28 -.14-.14v0c-.19-.19-.44-.29-.71-.28Zm4.37 0v0c-.27-.02-.52.08-.7.27l-.14.13 .27.27 .13-.14v-.001c.11-.11.26-.17.41-.16v0c.16 0 .31.08.41.21l.11.15 .3-.24 -.12-.16v0c-.18-.22-.43-.36-.71-.37Zm-12.65.23v0c-.46 0-.82.37-.82.82 0 .45.36.82.81.82 .45 0 .81-.375.81-.83l0 0c0-.46-.37-.83-.82-.83Zm5.51.28h1.24v0c-.12.27-.21.56-.27.86v0c-.05.23-.1.46-.13.68h-.61 -.001c-.06-.51-.14-1.01-.24-1.5l-.01-.01c-.01-.02-.01-.04-.02-.05Zm-5.519.1v0c.23 0 .42.19.42.43 -.01 0-.01 0-.01 0v0c0 .23-.19.43-.42.44 -.01 0-.01 0-.01 0 -.22 0-.4-.18-.43-.4h0c.05.05.13.09.21.09l-.001-.001c.17-.01.3-.15.3-.32 -.01-.01-.01-.01-.01-.01v-.001c0-.11-.05-.2-.13-.26 .01-.01.02-.01.03-.01Zm4.01 0c.23 0 .42.19.42.44v0c0 .23-.19.43-.43.44 -.01 0-.01 0-.01 0v0c-.23-.01-.42-.18-.43-.41v0c.05.08.15.14.25.14v0c.17-.01.3-.15.3-.32 -.01-.01-.01-.01-.01-.01v0c0-.14-.09-.26-.21-.3 .02-.01.04-.01.06-.01Zm4.304.41h-.001c-.48 0-.86.39-.86.87 0 .47.38.87.85.87v0c.47-.01.85-.4.85-.88v0c0-.48-.39-.87-.86-.88Zm4.29 0v-.001c-.48 0-.87.39-.86.87 0 .08.01.17.04.26v0c-.31-.42-.79-.66-1.3-.66 -.85 0-1.55.65-1.57 1.46l-1.53.4 .06.24 1.47-.4c0 .02 0 .06.01.08l-1.42.81 .13.22 1.36-.79c.23.55.8.94 1.45.94 .66 0 1.23-.4 1.46-.96l1.39.8 .13-.23 -1.45-.84c0-.03 0-.06.01-.08l1.51.4 .06-.25 -1.57-.42v0c-.01-.18-.05-.35-.11-.5 .15.18.39.3.64.3v0c.47-.01.85-.4.85-.88v0c0-.48-.38-.87-.86-.88Zm-10.567.04c.59 0 1.07.44 1.09.99h-.41c0-.01.01-.02.02-.04h0c.04-.07.05-.15.02-.22 -.01-.02-.03-.11-.05-.2v0c-.02-.06-.05-.12-.08-.16v-.001c-.06-.07-.14-.11-.23-.11v-.001c-.05-.01-.09-.02-.13-.04 -.07-.03-.15-.05-.25-.05 -.11 0-.19.02-.25.05v0c-.05.01-.09.02-.13.03v0c-.09 0-.18.03-.23.1h0c-.04.04-.07.09-.08.15 -.03.09-.05.18-.05.19l-.001 0c-.03.07-.02.15.02.22 0 .01.01.02.02.03h-.41c.02-.548.49-1 1.09-1Zm6.275.34c.25 0 .47.21.47.484l0 0c0 .26-.21.48-.47.48 -.01 0-.01 0-.01 0v0c-.26-.01-.46-.21-.47-.46v-.001c.06.07.15.11.24.11 .18 0 .32-.15.32-.34v-.001c0-.12-.06-.23-.16-.29 .01-.01.03-.01.05-.01Zm4.292 0c.26 0 .46.21.46.484 0 .27-.21.48-.47.48v0c-.27-.01-.48-.23-.48-.49 0-.01 0-.01 0-.01 0-.02 0-.04 0-.05v0c.03.14.16.23.31.24 .18 0 .32-.15.32-.34v0c0-.16-.11-.3-.26-.34v0c.02-.01.05-.01.08-.01Zm-10.567.24c.02 0 .06.01.125.03 .08.03.11.03.18.04 .01.04.02.08.03.12v0c-.06.05-.11.09-.17.13 -.04.02-.07.04-.09.06h-.18c-.03-.02-.06-.04-.09-.06v-.001c-.06-.05-.12-.09-.17-.14l.03-.13c.1-.02.14-.04.18-.05h0c.04-.02.08-.03.12-.04Zm8.45.25c.66 0 1.18.5 1.18 1.11 0 .15-.04.3-.1.44l-.01-.03 -.03-.16v0c-.01-.09-.03-.17-.04-.24l-.38.09 .04.27v0c-.04.03-.08.06-.12.07v0c-.06.01-.12 0-.17-.02 -.09-.03-.14-.07-.18-.1 .05-.04.13-.09.19-.14 .08-.06.16-.13.22-.19h-.001c.03-.04.06-.08.09-.12v0c.04-.07.05-.16.02-.23 -.01-.02-.03-.12-.06-.21h-.001c-.02-.06-.05-.12-.09-.17v-.001c-.06-.07-.15-.11-.23-.11v0c-.05-.01-.1-.02-.14-.04 -.07-.03-.16-.06-.27-.06 -.11 0-.2.03-.27.05h0c-.05.01-.1.03-.14.03h0c-.09-.01-.18.03-.23.1h-.001c-.04.04-.07.1-.09.16 -.03.1-.05.19-.06.21h0c-.03.07-.02.15.02.22h-.001c.02.04.05.07.09.11 .06.06.14.13.22.19 .06.05.13.09.19.13h-.001c-.06.04-.12.07-.18.09h-.001c-.06.02-.12.02-.17.01v0c-.05-.02-.09-.05-.12-.08 0-.09.02-.18.04-.28l-.38-.1c-.04.14-.05.28-.07.4v0c-.06-.14-.1-.29-.09-.43 0-.62.52-1.12 1.18-1.12Zm0 .62c.02 0 .07.01.14.03 .06.02.16.05.2.05l.03.15c-.04.04-.12.1-.19.15 -.1.07-.14.09-.2.13 -.06-.04-.1-.07-.2-.13h-.001c-.07-.05-.13-.1-.19-.16l.03-.16v0c.07-.02.13-.03.2-.06v0c.04-.02.09-.03.13-.04Zm-2.22.35v0c-.18 0-.33.11-.39.27l.65-.18h0c-.08-.07-.18-.1-.28-.1Zm4.333 0v0c-.08 0-.16.02-.22.07l.6.16v0c-.08-.15-.23-.24-.39-.23Zm-4.06.56l-.61.16v0c.03.04.07.08.125.11Zm3.92 0l.4.23v0c.03-.03.06-.07.08-.11Zm-1.99.23c.06.04.16.1.28.14h-.001c.12.04.25.05.38.02v-.001c.08-.03.16-.07.23-.13v0c-.24.25-.57.39-.91.39 -.36 0-.67-.15-.89-.375l0-.001c.06.04.13.08.2.1 .14.03.28.01.391-.03 .12-.04.21-.1.28-.15Zm-9.53 1.61v.51h6.214v-.52Zm3.61 1.29v.51h5.11v-.52Z"/></svg>