<svg viewBox="0 0 24 24" xmlns="http://www.w3.org/2000/svg"><path d="M12 0C6.98 0 2.88 4.075 2.88 9.11h0c0 1 .16 2 .48 2.96 .21.65.94 1.013 1.61.79 .65-.22 1.013-.94.79-1.62h0c-.27-.76-.39-1.55-.37-2.34 .09-3.4 2.846-6.2 6.24-6.366 3.78-.2 6.92 2.82 6.92 6.558v0c-.01 3.48-2.73 6.35-6.196 6.55 0 0-1.28.07-1.91.16 -.32.04-.56.09-.73.12 -.08.02-.15-.05-.13-.12l.21-1.061 1.18-5.45v0c.14-.68-.29-1.35-.97-1.5V7.79c-.68-.15-1.35.28-1.5.96 0 0-2.85 13.26-2.87 13.406 -.15.67.29 1.35.96 1.49 .67.14 1.35-.29 1.49-.97 .02-.15.41-1.91.41-1.91v0c.28-1.33 1.36-2.33 2.7-2.51 .29-.05 1.423-.12 1.423-.12 4.702-.37 8.41-4.292 8.41-9.09 0-5.05-4.1-9.12-9.12-9.12Zm.65 20.97v0c-.82-.18-1.63.34-1.81 1.16 -.01 0-.01.01-.01.01 -.17.82.33 1.64 1.18 1.8 .82.16 1.64-.34 1.8-1.19 .16-.85-.34-1.64-1.19-1.81Z"/></svg>