<svg viewBox="0 0 24 24" xmlns="http://www.w3.org/2000/svg"><path d="M19.125-.001H4.875v0C2.185-.011 0 2.15-.01 4.84c-.01 0-.01.01 0 .02v14.25c0 2.7 2.175 4.875 4.875 4.875h6.6c2.7 0 4.87-2.18 4.87-4.875v-2.48h2.77c2.7 0 4.875-2.18 4.875-4.875v-6.9c0-2.7-2.18-4.88-4.875-4.88ZM16.5 1.274h2.625v0c1.98 0 3.6 1.61 3.6 3.6v2.7h-6.23v-6.3Zm-1.43 7.72v6.45H8.845v-6.45h6.225Zm-6.225-7.8h6.225v6.375H8.845V1.194Zm-7.58 3.6v0c-.001-1.99 1.61-3.6 3.6-3.6h2.62v6.37H1.26V4.78Zm6.225 4.2v6.45h-6.3v-6.45h6.3Zm0 13.72h-2.7v0c-1.99 0-3.6-1.62-3.6-3.6v-2.33h6.3v5.92Zm7.575-3.53h-.001c0 1.98-1.62 3.6-3.6 3.6H8.83v-5.93h6.225v2.32Zm7.65-7.35v0c0 1.98-1.62 3.6-3.6 3.6h-2.63V8.98h6.22v2.85Z"/></svg>