<svg viewBox="0 0 24 24" xmlns="http://www.w3.org/2000/svg"><path d="M11.97 0v0c-.69 0-1.37.03-2.05.09l-.001 0C8.47.2 7.05.43 5.66.77L5.66.769c-1.02.25-2.01.57-2.975.96l-.06.02s.11 7.243.21 10.831H2.84c.02 1.05.21 2.1.56 3.09v-.001c.4 1.13.95 2.21 1.62 3.21v0c.69 1.03 1.54 1.96 2.51 2.75l0-.001c.37.31.77.6 1.19.87H8.72c.65.39 1.33.73 2.03 1.03 .23.09.43.19.62.25l-.001 0c.19.07.38.13.59.18l0 0c.2-.05.39-.11.59-.19 .18-.07.38-.16.62-.26v0c.7-.3 1.38-.64 2.03-1.04l-.001-.001c.41-.27.81-.56 1.19-.88v0c.96-.8 1.81-1.72 2.51-2.76v0c.66-1.01 1.21-2.09 1.62-3.22v0c.35-1 .54-2.05.57-3.1 .09-3.59.21-10.827.21-10.827v0c-.02-.01-.04-.02-.06-.03l-.001 0c-.97-.39-1.97-.72-2.98-.97h0C16.85.34 15.43.11 14-.01H14c-.68-.06-1.37-.09-2.05-.1Zm0 .361h.05c.67 0 1.28.03 1.96.09v0c1.37.11 2.74.33 4.084.66l0 0c.97.24 1.92.56 2.86.93l0 0c.01 0 .03.01.05.02l-.04 2.27v0c-.01-.01-.02-.01-.02-.01l0 0c-.94-.38-1.89-.69-2.86-.94l0-.001c-1.35-.33-2.71-.55-4.09-.67 -.68-.06-1.29-.1-1.96-.11h-.06c-.68 0-1.29.04-1.97.1h0c-1.38.11-2.75.33-4.084.66l0 0c-.98.24-1.93.56-2.87.93v0c-.01 0-.02 0-.02.01L2.96 2.01l.05-.03 -.001 0c.93-.38 1.88-.69 2.86-.94H5.86C7.2.71 8.568.49 9.948.37c.67-.06 1.28-.08 1.96-.09Zm.28.21l0-.001c-.31-.01-.61-.01-.91 0 -.13 0-.29.1-.29.23l-.01.64c-.01.13.17.236.3.23 .46.01.87 0 1.31.03 .03 0 .06.02.06.05l-.01.13v-.001c0 .02-.02.04-.04.04 -.01 0-.01 0-.01 0 -.53 0-1.07-.03-1.593.01 -.03 0-.03-.01-.03.02l-.03.38 -.01.03v-.001c.62-.04 1.25-.04 1.88 0v0c.15-.01.27-.12.3-.262l0-.627c0-.129-.16-.23-.27-.23 -.45-.03-.95-.02-1.4-.03V1.2c-.03-.01-.05-.03-.05-.05 0-.01 0-.01 0-.01l0-.15c0-.03.01-.04.04-.04 .44-.02 1.1 0 1.56.01v0c.03-.01.05-.04.06-.07V.57c0-.02-.04-.07-.07-.07v-.01L13.03.497c-.3-.02-.6-.03-.9-.03Zm-1.88.06c-.43 0-1.35.125-1.862.19l-.01 1.8v.02l.47-.06v0c0-.01 0-.01.01-.01V2.57c0-.01 0-.01 0-.01v-.53l.94-.11c.08-.02.18.04.25.16v0c.06.1.09.21.11.33l.46-.04c.01 0 .03 0 .02-.01v0c-.02-.26-.13-.49-.31-.67l0-.001c.12-.06.2-.18.19-.31h-.001c0-.19-.01-.38-.03-.57v0c-.04-.15-.16-.25-.3-.25Zm3.59.01l-.001 0c-.21-.01-.38.13-.42.33l-.01 1.195v0c0 .13.1.25.24.28 .61.05 1.21.11 1.89.21 .01 0 .03-.01.03-.02v-.42c0-.01-.02-.03-.03-.03 -.46-.06-1.06-.137-1.59-.2V1.98c-.04-.01-.06-.04-.06-.07V1.1c0-.04.05-.06.08-.05 .52.04 1.05.14 1.58.19 .01 0 .03-.01.03-.03L15.7.83V.83c-.01-.02-.02-.03-.03-.04l-.001 0C15.08.7 14.5.63 13.92.58Zm1.98.237c-.02 0-.03.01-.03.02 -.01.27-.05 1.45-.06 1.77v.02c.15.02.32.04.45.07 .01 0 .03-.01.03-.03 -.01-.21 0-.45-.01-.64 0-.02 0-.02.02-.02v0c.36.06.73.14 1.1.22 0 0 .05 0 .05.03 -.01.21-.01.4-.02.617v0c-.01.01.01.03.02.04 .14.03.28.06.42.1 .03 0 .04 0 .04-.02 .02-.46.03-1.18.03-1.784 0-.01-.01-.02-.01-.03 -.16-.04-.3-.08-.46-.11 -.02-.01-.03.02-.03.03 -.02.22-.01.43-.03.65 0 0 0 .01-.01.01 -.37-.08-.77-.16-1.14-.23 -.01-.01-.01-.02-.01-.04l0-.653 -.001 0c-.01-.02-.02-.03-.03-.03v0c-.14-.03-.28-.05-.42-.07Zm-8.02.02l0 0c-.02-.01-.03-.01-.04 0 -.55.08-1.09.2-1.64.32v-.001c-.09.02-.17.07-.23.14V1.35c-.06.05-.1.12-.11.2l0 1.11v0c0 .09.04.19.1.266V2.93c.04.06.12.11.2.11l0 0c.54-.12 1.08-.23 1.63-.33v0c.1-.03.19-.09.26-.17v0c.05-.07.09-.15.09-.23l-.01-1.17v0c-.01-.08-.05-.16-.11-.2V.94C8 .89 7.94.86 7.86.86Zm2.15.19h-.001c.04-.01.07.02.08.06l0 .18v0c-.01.08-.06.15-.14.16l-1.07.1 -.01-.01v-.41l0-.01 1.11-.11h0c0-.01 0-.01 0 0Zm-2.52.29v0c.02 0 .05 0 .07.02V1.39c.03.02.05.06.05.1l-.01.704v0c0 .04-.02.08-.05.1v0c-.04.02-.08.04-.12.04l-.001 0c-.34.06-.67.12-1 .19v0c-.04 0-.07 0-.09-.02V2.51c-.03-.03-.04-.07-.03-.1V1.68h0c0-.04.01-.08.04-.1v0c.03-.04.07-.06.12-.06 .29-.06.67-.129.968-.18v0c.01-.01.02-.01.03-.01Zm10.81 0l-.01 0c-.01 0-.01.01-.01.01 -.02.6-.03 1.167-.04 1.773 0 .01 0 .03.01.03l-.001 0c.73.19 1.45.43 2.15.7 .03.01.03-.02.03-.03 0-.14.01-.278 0-.42v0c-.01-.02-.02-.03-.03-.04l-.001 0c-.55-.21-1.1-.39-1.66-.55v0c-.02-.01-.02-.02-.02-.03l0-.18c0-.01.01-.01.02-.01V2.63c.56.15 1.12.33 1.67.54 .01 0 .01-.01.01-.02v0c0-.16 0-.32 0-.47v0c-.01-.02-.01-.03-.02-.03v0c-.54-.2-1.09-.38-1.64-.53 -.01-.01-.02-.01-.02-.02v-.2c0-.01.01-.02.02-.01 .56.14 1.18.36 1.61.51 .03.01.06 0 .06-.03 0-.16 0-.17-.01-.33 -.01-.02-.01-.04-.03-.05l-.001 0c-.71-.28-1.44-.52-2.17-.71Zm-12.97.06V1.43c-.03-.01-.06 0-.09 0 -.65.16-1.31.41-1.96.65H3.33c-.02.01-.03.03-.03.05v1.46l0 .33s.47-.18.573-.21c.01-.01.01-.02.01-.04l-.01-.52c0-.02 0-.04.01-.04l1.62-.51v0c.05-.02.1-.06.13-.11v0c.03-.05.05-.1.05-.16l-.02-.69v0c-.01-.09-.06-.16-.12-.2V1.44c-.06-.05-.14-.07-.21-.07Zm-.29.496c.03-.01.07.03.07.06v0c0 .08.01.16.01.25 -.01.04-.07.09-.11.11l-1.19.38c-.02 0-.04 0-.04-.02l0-.36c0-.02.02-.04.03-.04l0 0c.39-.16.79-.3 1.2-.41Zm6.96.98c.65.01 1.24.03 1.9.08l0 0c1.37.11 2.74.33 4.08.66l0-.001c.97.24 1.92.56 2.86.93v0s0 0 .01 0v0c-.01.14-.01.29-.01.44H12.04Zm-.32 0l-.01 4.618H8.78c-.05-.01-.02-.03.01-.06v0c.21-.16.45-.27.71-.32 .02-.01.02-.02-.01-.06v-.001c-.25-.25-.61-.33-.93-.22v0c-.3.09-.53.31-.63.6v0c-.01.01-.03.03-.04.03l-.001 0c-.16 0-.32.01-.47.01 -.03 0-.04-.04-.04-.06v0c.04-.21.16-.38.34-.484v0c.15-.11.33-.17.51-.18V6.78c.02-.01.03-.03.02-.05 -.01-.01-.01-.01-.01-.02v0c-.04-.04-.07-.07-.11-.1v0c-.16-.09-.34-.12-.51-.08v0c-.51.04-.91.45-.95.96 -.01.06 0 .07-.06.09 -.12.03-.33.06-.44.08 -.02 0-.05-.05-.05-.07v0c.04-.19.12-.37.24-.53v0c.09-.13.2-.23.34-.3 .02-.02.05-.05.02-.07 -.26-.22-.78.01-.98.24v0c-.2.26-.3.58-.28.91 0 .01.01.04 0 .04l-.001-.001c-.14.05-.27.1-.4.15 -.02 0-.02-.03-.02-.04v0c-.05-.24.01-.48.14-.68v0c.05-.11.14-.19.24-.25 .01-.01 0-.02 0-.03 -.12-.15-.57-.05-.71.09 -.32.31-.3.61-.32 1.09 -.01.02-.03.11-.06.12h-.001c-.06.03-.12.05-.19.07 -.03 0-.03.01-.03-.01v0c-.07-.21-.29-.33-.49-.26 -.03 0-.06.02-.09.03v0c-.17.1-.22.32-.11.49 0 .01.01.02.02.04 .01.01.02.03-.01.04L3.42 8.73c-.23.06-.35.3-.28.52 0 0 0 0 0 0h0c.04.12.16.2.29.21v0c.13 0 .26-.04.37-.11h0c.01-.02.04-.01.05 0 0 0 0 0 0 0h-.001c.11.18.35.23.53.12 .16-.11.23-.28.11-.56 -.01-.02.02-.05.03-.06v0c.95-.56 2.03-.86 3.144-.88h0c.15.01.3.04.45.1v0s.01 0 .02 0l0 .94h-.001c-.02 0-.03.01-.04.02v0c-.21.12-.36.32-.44.55 -.01.01-.01.02-.04.02 -.2.01-.4.04-.6.06 -.02 0-.04-.02-.03-.03v0c.13-.38.39-.69.72-.91v0c.01-.02.02-.05.01-.07h0c-.05-.05-.11-.08-.17-.1v0c-.34-.03-.67.1-.9.36v0c-.2.24-.31.55-.32.875 -.01.02 0 .05-.02.06 -.13.03-.27.07-.39.11 -.02 0-.04-.02-.04-.03v0c-.07-.42.12-.83.48-1.03 .05-.04-.04-.11-.11-.11l-.001-.001c-.39-.03-.75.18-.92.53v0c-.1.25-.11.53-.03.79 0 .02.01.06-.01.06 -.08.01-.27.09-.33.1 -.03 0-.04-.01-.05-.03h0c-.05-.16-.06-.33-.03-.49v0c.04-.19.13-.36.26-.5 0-.01.01-.04 0-.04V9.2c-.12-.06-.26-.07-.38-.03V9.17c-.21.05-.39.19-.48.38 -.16.29-.12.58.05 1 0 .02.01.05 0 .07l-.14.08c-.02.01-.04 0-.05-.02 -.06-.08-.13-.21-.21-.24H3.92c-.14-.07-.31-.06-.43.03h0c-.13.1-.17.27-.12.43H3.37c.02.05.06.1.1.15 .01.01-.01.03-.02.04 -.06.05-.14.09-.19.14l0-.001c-.11.13-.12.32-.01.47h-.001c.1.14.28.19.45.12v0c.08-.04.15-.08.23-.13 .02-.02.04-.06.07-.03v0c.06.06.13.12.22.15v0c.12.03.25 0 .35-.07v0c.12-.07.19-.21.16-.34v0c-.04-.1-.08-.19-.15-.27 -.04-.04-.04-.04 0-.06v0c.52-.31 1.07-.56 1.66-.73v0c.54-.17 1.11-.24 1.69-.21h.04l0 1.94h-5.2c-.06-2.14-.12-5.51-.16-7.836h0c0-.01 0-.01.01-.01l0 0c.93-.38 1.88-.69 2.86-.94H5.48c1.34-.33 2.7-.55 4.08-.67l-.001 0c.58-.06 1.17-.08 1.76-.09Zm-3.09.81v0c-.25 0-.5.08-.7.23 -.29.18-.46.77-.49.98v0c-.01.01-.03.03-.04.03H7.41c-.23.02-.46.07-.68.125 -.01 0-.02-.01-.02-.02v0c.01-.23.1-.43.25-.59v0c.15-.15.31-.28.49-.4 .01-.02 0-.05-.02-.06v0c-.26-.11-.55-.1-.8.01v0c-.36.15-.62.48-.68.867v0c-.03.13-.04.27-.03.41 0 .01-.03.01-.05.02 -.25.07-.51.16-.71.23 -.01 0-.04 0-.04-.01V5.54c-.01-.24.05-.46.17-.66 .12-.2.34-.31.5-.47 .01-.02.02-.05.01-.06 -.41-.17-.8 0-1.13.375v0c-.23.32-.3.73-.2 1.12 0 .03 0 .07-.02.08v0c-.08.03-.16.06-.23.08h0c-.02 0-.03-.01-.04-.02 -.01-.01-.01-.01-.01-.01 -.1-.3-.44-.24-.6-.15V5.82c-.18.09-.24.31-.14.48H3.43c0 .01 0 .03-.01.04 -.01 0-.01 0-.01 0H3.41c-.23.1-.32.36-.21.58 0 0 0 0 0 0v0c.09.14.27.2.42.13v0c.08-.04.16-.08.24-.13v0c0-.01.02-.01.03 0v0c.12.17.37.21.54.09 0-.01.01-.01.01-.02 .11-.09.16-.1.2-.25v0c.01-.11-.02-.22-.09-.3 -.02-.01-.01-.04.01-.05V6.39c1.29-.67 2.73-1.04 4.19-1.08v0c.53.01 1.04.21 1.44.55v0c.01.02.03.03.06.03v0c.02-.02.04-.04.05-.06V5.83c.06-.25-.02-.52-.21-.68v0c-.17-.18-.38-.3-.62-.35 -.02-.01-.02-.03-.01-.04v0c.09-.1.2-.18.33-.22v0c.19-.04.4-.06.6-.05 .01-.01.03-.02.03-.03h-.001c-.09-.23-.29-.39-.53-.4L9.89 4.06c-.24-.03-.48 0-.7.1V4.16c-.23.12-.41.31-.5.55v0c-.01.01-.02.01-.04.02v0c-.2-.01-.4-.01-.6-.01 -.02 0-.04 0-.04-.02v0c.02-.2.11-.38.25-.52v-.001c.19-.18.43-.31.68-.39 .01-.01.04-.04.02-.06v-.001c-.06-.08-.13-.14-.21-.17V3.56c-.12-.04-.23-.05-.35-.05Zm3.4 1.6h8.845c-.02.68-.03 1.43-.04 2.19h-8.81ZM8.63 7.752l6.66 0h0c0-.01.01 0 .01.01l-.01 5.13h-.001c-.01.26-.06.51-.15.76h0c-.27.72-.78 1.33-1.44 1.72h0c-.53.31-1.13.48-1.74.49v0c-.84-.02-1.64-.32-2.26-.86H9.69c-.69-.58-1.09-1.42-1.11-2.31l-.01-4.95c0-.02 0-.02.01-.02Zm6.994.08h5.21c-.02.64-.03 1.29-.04 1.92H15.6v-1.5Zm-6.839.07c-.02 0-.02 0-.02.01l0 4.75v0c.01.85.39 1.67 1.05 2.22v-.001c.59.52 1.35.81 2.15.827v0c.58-.01 1.15-.18 1.66-.48v0c.63-.38 1.12-.97 1.37-1.66v0c.08-.24.13-.49.13-.734l0-4.94h0c-.01-.01-.01-.02-.02-.02s-.01 0-.01 0Zm4.436.3v0c0-.01 0-.01 0 0v-.001c.03 0 .07.03.08.07l.24.71v0c0 .02 0 .04-.01.07l0 0c-.02.01-.04.02-.06.02h-.001c-.03 0-.06-.02-.07-.05l-.04-.125h-.33l-.04.12c-.01.04-.04.04-.08.04h0c-.02-.01-.04-.02-.05-.03h0c-.02-.02-.02-.04-.01-.06l.23-.73v0c.01-.05.04-.08.08-.08Zm-.77 0v0c0-.01.01-.01.02 0h0c.1-.01.2.05.23.15H12.7c0 .02-.01.05-.03.05 -.01 0-.01 0-.01 0v0c-.03.01-.06 0-.07-.02v0c-.03-.06-.08-.09-.14-.09l0 0c-.07 0-.12.04-.14.1H12.3c-.04.06-.06.14-.06.22v0c-.01.07.01.15.04.22v0c.02.06.08.1.15.1v0c.1-.04.17-.14.16-.25v-.04h-.14v0c-.04 0-.06-.03-.06-.06 -.01-.01-.01-.01 0-.01 0-.03 0-.05.05-.05h.19c.06 0 .07.04.07.09v0c0 .05-.01.1-.02.15v0c-.02.09-.08.17-.15.23h-.001c-.05.02-.1.04-.15.04v0c-.1-.01-.19-.06-.23-.15v0c-.06-.1-.08-.21-.08-.31v0c-.01-.11.02-.22.08-.31v0c.03-.08.11-.13.19-.125Zm-2.99 0v0c0-.01 0-.01 0 0 .18 0 .24.11.24.15 0 .03-.07.08-.1.03v0c-.04-.05-.1-.07-.16-.07v0c-.07-.01-.13.03-.15.09H9.29c-.02.06.02.12.08.13 0 0 0 0 0 0v0c.09 0 .18.03.26.08h-.01v0c.05.04.08.1.08.18v0c0 .06-.03.12-.07.17v0c-.07.06-.16.09-.25.08v0c-.11 0-.21-.05-.27-.14 -.01-.01-.01-.07.03-.08v0c.03-.01.06 0 .08.02v0c.04.03.09.06.15.06v0c.05 0 .1-.02.14-.05v0c.03-.04.04-.08.02-.12v0c-.05-.07-.12-.11-.2-.1v0c-.07-.01-.13-.03-.18-.07v0c-.06-.06-.08-.13-.07-.2l-.001 0c0-.07.04-.13.1-.17v0c.05-.04.11-.06.18-.06Zm1.64 0h0c0-.01 0-.01 0 0v0c0-.01 0-.01 0 0h.35v0c.03-.01.06.02.06.05 0 .03-.03.06-.06.06 -.01 0-.01 0-.01 0l-.12 0v.68 0c-.01.03-.04.05-.08.05 -.03-.01-.06-.03-.06-.06v-.69h-.12v0c-.04 0-.07-.03-.07-.06 -.01-.04.02-.07.05-.07Zm.56 0h0c0-.01 0-.01 0 0v0c0-.01 0-.01 0 0h.35v0c.03-.01.06.02.06.05 0 .03-.03.06-.06.06 -.01 0-.01 0-.01 0l-.12 0v.68 0c-.01.03-.04.05-.08.05 -.03-.01-.06-.03-.06-.06v-.69h-.12v0c-.04 0-.07-.03-.07-.06 -.01-.04.02-.07.05-.07Zm2.74 0H14.4c0-.01 0-.01 0 0h0c0-.01 0-.01 0 0h.35v0c.03-.01.06.02.06.05 0 .03-.03.06-.06.06 -.01 0-.01 0-.01 0l-.12 0v.68 0c-.01.03-.04.05-.08.05 -.03-.01-.06-.03-.06-.06v-.69h-.12v0c-.04 0-.07-.03-.07-.06 -.01-.04.02-.07.05-.07Zm-.68 0v0c0-.01 0-.01.01 0h.19v0c.07-.01.14.01.2.05v0c.06.04.1.12.1.2v0c0 .07-.02.14-.08.19v0c-.04.03-.08.05-.12.07l-.02 0 .15.2v0c.01.01.02.03.02.05 -.01.03-.03.05-.06.05v0c-.03 0-.05-.01-.06-.03l-.19-.26h-.12v.23h-.001c0 .03-.02.06-.06.06 -.01 0-.01 0-.02 0v0c-.04 0-.07-.03-.07-.06 -.01-.01-.01-.01 0-.01v-.73 0c-.01-.02 0-.04.01-.05v0c.01-.02.02-.02.03-.02Zm-3.87 0v0c0-.01 0-.01 0 0h.35v0c.03 0 .06.02.06.06 0 .03-.03.06-.07.06h-.12v.68 0c-.01.03-.04.05-.08.05 -.03-.01-.06-.03-.06-.06V8.3h-.12v0c-.04 0-.07-.03-.07-.06 -.01-.04.02-.07.05-.07Zm.58 0v0c0-.01 0-.01 0 0v0c.03-.01.06.02.06.06 0 0 0 0 0 0v.47 -.001c-.01.05 0 .1.03.15l0-.001c.03.03.07.05.12.05v0c.04 0 .09-.02.125-.06v0c.02-.05.03-.1.03-.15v-.48h0v0c0-.04.03-.06.07-.06 .02 0 .05.02.05.05v.43 0c0 .09-.02.18-.06.26v0c-.06.07-.14.11-.23.1v0c-.09 0-.18-.04-.23-.11v0c-.05-.08-.07-.18-.07-.27V8.2v0c-.01-.04.02-.07.05-.07Zm3.35.11v.32h.13v0c.09.01.18-.07.19-.16 0-.01 0-.02 0-.02v0c-.01-.05-.02-.09-.06-.11v0c-.04-.04-.09-.05-.13-.05Zm-.59.01l-.14.46h.27Zm-1.14 1c.01 0 .02 0 .02.01s-.02.02-.05.04h-.001c-.04.01-.08.04-.1.08v0c-.03.04-.05.1-.04.16v0c0 .03.03.06.06.07v-.001c.04.02.09.03.14.02v0c.07-.01.14-.03.21-.07v0c.08-.03.18-.04.27-.02V9.61c.06 0 .13.02.19.06 .02.01.02.03.01.04 -.02 0-.03-.02-.05-.01l0 0c-.05 0-.1.01-.15.03 -.06.02-.09.03-.12.09v0c-.02.02-.02.04-.01.07 .01.02.03.04.04.05v0c.01.04.03.08.06.125v0s.01.01.03.02l0-.001c.09.07.19.15.28.24v-.001c.01.02.03.05.04.09 0 .01-.01.03-.02.02h0c-.02-.01-.03-.02-.04-.03v0c-.02-.02-.04-.03-.06-.04h-.001c-.06-.03-.12-.04-.18-.03 -.03 0-.09.02-.05.03v0c.05.02.09.06.13.11h0c.07.08.11.19.1.31 0 0-.02.01-.02 0l0 0c-.03-.05-.07-.09-.11-.11v-.001c-.07-.05-.14-.07-.21-.07 -.02 0-.06 0-.06.01v0c.04.05.08.12.12.19h0c.03.08.04.18.03.27 -.01 0-.02.01-.03 0v0c-.03-.03-.05-.06-.08-.08v0c-.03-.03-.06-.05-.1-.06v0c-.07-.02-.15-.01-.21.02v0c-.06.03-.11.07-.13.13h0c-.04.06-.06.13-.07.2v0c-.02.08 0 .17.04.25v0c.04.07.1.13.19.16v0c.1.03.22.04.33.04 .13 0 .27-.02.41-.02v0c.13-.02.26-.02.39 0v-.001c.1.02.2.06.3.12v-.001c.07.05.14.11.21.18 0 0 .02-.01.03-.01v-.001c.06-.07.11-.15.13-.24v0c.01-.09-.01-.18-.06-.25 -.05-.09-.12-.18-.17-.27l-.001 0c-.08-.1-.15-.2-.21-.3v0c-.04-.07-.04-.15-.02-.23v0c.01-.06.05-.1.1-.13 .01-.01.02 0 .01.02v0c-.02.03-.02.07-.01.11l0-.001c.01.05.04.1.08.14 .01.01.04-.01.05-.03 .01-.05 0-.11.02-.16v0c.02-.09.05-.16.1-.23v0c.11-.09.23-.15.36-.2 .03-.02.05-.11.09-.1 .03.01.01.1-.02.14 -.04.06-.09.1-.14.15v0c-.07.07-.12.15-.16.24v0c-.03.04-.04.08-.03.13v0c0 .04.03.07.07.09 .02.01.05-.01.07-.03v0c.03-.03.07-.07.09-.11 .02-.04.01-.09.03-.13 0-.01.03-.01.03 0V10.6c.02.02.03.05.04.08v0c0 .03-.01.07-.01.11 -.01 0-.03.02-.04.04v0c-.01.01-.02.02-.02.04 -.04.06-.08.11-.125.12 -.01 0-.02.02-.01.03v0c.02.05.06.09.11.13h0c.04.02.1.02.15.01 .02-.01.04-.03.07-.04 .01-.01 0 0 0 .01v-.001c-.01.02-.01.05-.02.08v0c-.02.03-.05.06-.08.08v0c-.06.02-.11.04-.17.05 -.03 0-.07.02-.06.05v0c0 .03.02.05.04.08h0c.02.02.04.03.08.03v0c.04 0 .08-.02.125-.04 .04-.03.06-.08.09-.11 0-.01.02 0 .02.01v0c-.01.05-.02.1-.05.15v0c-.04.05-.08.1-.13.13 -.02.01-.04.02-.04.04v0c0 .03.02.05.04.08H14.2c.01.02.04.04.08.05v0c.03 0 .06 0 .1 0 .01 0 .01.02-.01.03v0c-.04.03-.08.05-.12.06v0c-.05.01-.09.01-.13 0 -.09-.02-.14-.05-.22-.08v0c-.05-.02-.1-.02-.14-.01v0c-.05.01-.08.04-.11.08v0c-.02.01-.03.04-.03.06 -.01.06.02.13 0 .19v0c-.03.08-.05.15-.09.23h0c-.04.05-.08.11-.12.16 -.04.05-.1.07-.12.13v0c-.02.02-.03.04-.04.06v0c-.04.07-.06.14-.06.22v0c.01.07.03.14.08.2l.15.23v0c.01.02.01.05 0 .08v0c-.01.02-.02.05-.05.07v0c-.21.11-.36.3-.42.52l-.01.01v0h0c-.01.01-.02.02-.03.04v0c-.06.05-.12.08-.19.09 -.06.01-.11.02-.17.04h-.001c-.02 0-.04.01-.05.03v-.001c-.02.03-.02.07 0 .09h0c.01.02.02.04.03.07h-.001c0 .01-.01.03-.02.04h-.001c-.01 0-.02.01-.03.02v0c-.07.03-.15.06-.22.08 -.05.01-.09-.01-.07-.06h0c.02-.1.06-.2.09-.3v0c.03-.06.07-.11.13-.14v0c.06-.06.13-.12.21-.17v0c.04-.04.08-.08.11-.13v0c.05-.1.12-.19.19-.28v0c.02-.04.03-.09.02-.13v0c-.02-.09-.07-.16-.15-.19h0c-.03-.02-.06-.03-.09-.04H12.7c-.1-.04-.19-.1-.25-.18h0c-.02-.03-.04-.04-.07-.04 -.07 0-.09.09-.09.13h-.001c-.01.07-.01.14 0 .21h-.001c0 .02 0 .04 0 .07V13.3c-.01.01-.03.02-.04.03l0-.001c-.2.07-.39.16-.57.27v0c-.03.01-.05.04-.07.07l-.02.02v-.001c-.05.07-.14.1-.23.08v0c-.02-.01-.03-.01-.05-.02v0c-.03-.01-.05 0-.07.01h0c-.02 0-.03.02-.05.03h0c-.01 0-.01.01-.01.01v0 0c-.01 0-.01 0 0 0v0s0 .01 0 .01l.02.06v0c.01.03 0 .07-.03.09 -.01 0-.01 0-.02 0v0c-.07.02-.14.04-.21.05 -.04 0-.08-.01-.07-.06l-.001-.001c.01-.09.03-.17.07-.24h-.001c0-.03.02-.05.05-.06v-.001c.06-.04.12-.09.17-.14v0c.04-.05.1-.07.16-.08v-.001c.09-.01.18-.05.26-.1v0c.08-.06.15-.12.22-.19l-.001 0c.1-.14.1-.33-.01-.46l-.02-.04c-.02-.03-.03-.08-.05-.11v0c-.03-.04-.04-.07-.04-.11 0-.07.02-.14.03-.21H11.7c0-.02-.01-.03-.02-.03v-.001c-.05-.02-.1-.03-.14-.03v0c-.19.02-.38.02-.56 0v0c-.14-.04-.27-.11-.39-.18 -.06-.04-.09-.07-.14-.11 -.02-.01-.02-.01-.03 0v0c-.14.09-.3.14-.46.125h-.01v0c-.11-.02-.2-.05-.3-.08 -.08-.03-.19-.08-.26-.02 -.03.02-.03.06-.03.09v0c0 .1 0 .2-.01.3v0c-.01.01-.01.02 0 .03v0s0 0 0 0v0c.01 0 .02.01.03.02l.01 0c.02.01.03.02.05.05H9.44c0 .01.01.04.01.06v0c0 .02 0 .04-.01.06v-.001c-.01.01-.01.02-.01.03v0c-.02.04-.01.09 0 .13v0c0 .02.02.03.04.05V12.7s0 0 .01 0v0s0 0 .01 0h0s0 0 .01 0h.01v0c0-.01.01-.01.02-.01l0-.01v0c0-.01.02-.02.03-.02v0s0 0 .01 0v-.001c.03 0 .06.03.06.07v0c0 .07-.02.15-.05.22v0c-.02.02-.05.04-.08.03 -.01-.01-.01-.01-.01-.01l-.02-.01H9.47c-.06-.03-.11-.07-.14-.12v-.001c-.03-.04-.05-.08-.05-.12h0c0-.03-.01-.06-.03-.09v0c-.01-.01-.03-.02-.04-.02H9.21c-.03-.01-.06-.03-.07-.05v0c-.05-.07-.07-.15-.06-.22v0c.03-.22.01-.44-.05-.64v0c-.02-.04-.02-.08 0-.11l.01-.05v0c0-.01 0-.02 0-.02v0c0-.02.02-.03.04-.04v0c0-.01.01-.01.02-.01v0c.15-.01.3-.03.45-.07v0c.01-.01.04-.02.06-.01v0c.02 0 .04 0 .07 0 .03 0 .06-.03.02-.05v0c-.04-.03-.06-.06-.09-.09v0c-.02-.02-.04-.03-.06-.03v0c-.01 0-.01 0-.01 0l-.01 0v0c-.05.03-.11.03-.14-.01 -.01-.01-.01-.02-.02-.03v0c-.04-.07-.07-.14-.09-.21v-.001c-.02-.09-.06-.17-.11-.24v0c-.06-.05-.13-.08-.19-.07v0c-.06.01-.11.04-.13.09l-.07.08v0c-.02.01-.03.04-.04.06v0c-.01 0-.01.01 0 .01v0c0 .01 0 .02 0 .03h0c.02.05 0 .11-.04.15l-.1.07v0c-.02.01-.03.03-.03.06v0c-.01.02-.01.04-.02.06v0c-.01.01-.01.02-.01.04H8.54s0 0 0 .01h0c0 .01.01.03.03.04l-.001 0s0 0 .01.01v0s0 .01.01.01v0c.01.02 0 .05-.02.07v0c-.01 0-.02.01-.03.02v0c-.06.04-.13.08-.19.1v0c-.01 0-.02 0-.03 0 -.04 0-.05-.03-.06-.06 -.01-.05-.01-.09-.01-.14v0c0-.06.02-.1.05-.14v0c.04-.07.07-.15.07-.23v0c-.01-.05.01-.1.04-.13l0 0c.02-.03.04-.06.05-.09v0c0-.03.02-.05.03-.07v0c.1-.13.19-.26.28-.39 .05-.09.15-.2.23-.08v0c.02.03.04.06.07.08H9.07c.08.06.16.11.25.16s.1-.05.125-.13v-.01 0c0-.04.02-.07.03-.1v0c.05-.1.12-.18.2-.25 .04-.04.1-.08.15-.12 .01-.02.02-.02.03-.04 0-.03.02-.05.03-.08 .01-.03.01-.06.02-.08v0c.01-.04.03-.07.04-.1v-.01 0c0-.01 0-.01 0-.01v-.01l-.01-.01v0c-.01-.02-.02-.02-.03-.03v0c-.04-.02-.07-.03-.11-.03h-.01v0c-.06 0-.11.01-.15.03V9.49c-.03.01-.05.02-.06.05H9.57c-.02.02-.03.04-.05.06v0c-.04.03-.1.03-.13 0 -.03-.02-.02-.05 0-.07v0c.01-.02.02-.04.03-.05v0c0-.01 0-.02 0-.03v-.01l-.01-.01h0c-.01-.01-.01-.01-.01-.01h0c-.02-.02-.03-.02-.05-.01v0c-.03 0-.06.01-.09.02v0c-.04.01-.07 0-.09-.03 -.01-.01-.01-.02-.01-.03v0c-.01-.02-.01-.04-.01-.06V9.31c0-.03.01-.05.04-.05 .02-.01.05-.02.04-.05v0c-.01-.01-.01-.02 0-.03v0c0-.01 0-.02.01-.03l0-.001c0-.01.01-.02.03-.03v0c.11-.08.21-.16.32-.24h0c.01-.02.04-.03.06-.01l.01 0v0c.04.02.09.03.15.02v0c.01-.01.03-.02.04-.03v0c0-.01 0-.01 0-.01v-.01l-.01-.01 -.01-.01V8.82c-.01-.02-.03-.02-.04-.03l-.06-.03v0c-.02-.01-.04-.02-.06-.03v0c-.03-.02-.04-.04-.03-.06 .02-.12.14-.12.24-.11h0v0c.04-.01.09-.01.14-.03 .06-.03.1-.07.16-.1 .05-.03.11-.06.17-.08 .01-.01.03-.01.04-.01l-.001 0c.01-.01.02-.02.03-.03V8.31c.04-.06.08-.12.14-.17h0c.07-.05.15-.08.23-.1V8.04c0-.01.01-.01.03-.01Zm-.43.55v0c-.04-.01-.08 0-.11.02 -.01 0-.02.01-.01.02 .01.02.04.03.07.05h0c.01.01.02.02.03.04 0 .01.02.04.03.06v-.001c.01.04.03.08.04.12v0c.02.06.03.13.05.2 .01.05 0 .11.01.17v.08c-.01.02-.01.04-.01.07h0c-.01.03-.01.06-.01.09v.08c0 .07.01.12.04.12v0c.02 0 .05-.01.08-.02v-.001c.05-.04.08-.09.08-.15h-.001c.02-.2.02-.39-.01-.58v0c-.01-.15-.08-.28-.19-.37v0c-.04-.04-.1-.06-.15-.06Zm3.96.16h5.177c-.02.82-.04 1.6-.05 2.263h-5.13l0-1.862Zm-.01 2.54h5.12v0c-.04.99-.22 1.97-.55 2.91v-.001c-.4 1.09-.92 2.14-1.56 3.11v0c-.68 1-1.49 1.9-2.42 2.66v0c-.37.3-.75.59-1.15.84h0c-.63.38-1.29.71-1.96.99 -.23.09-.42.18-.6.24 -.2.06-.36.125-.48.15v-.12l0-7.3 0 0c.1-.01.21-.02.31-.03 0 .01.01.05.03.1v0c.04.08.12.14.21.16v0c.11.02.23-.02.3-.11v-.001c.1.09.25.12.38.06v0c.1-.03.17-.13.17-.23v0c0-.08-.01-.15-.04-.21l-.04-.07v0c.26-.11.51-.25.74-.41l.02-.01c.37-.1 1.87-.64 2.79-.65l0 0c.56-.02 1.12.12 1.62.39h0c.25.14.48.33.68.56 0 0 .01.02.03.03v0c.01 0 .02-.01.03-.03v0c.06-.17.09-.35.07-.516 -.02-.29-.3-.49-.39-.57 -.01-.01-.01-.03.02-.05v-.001c.03-.04.06-.07.1-.09v-.001c.16-.13.35-.21.56-.22 .03 0 .02-.04.01-.08 -.06-.25-.42-.42-.79-.36v0c-.26.05-.48.2-.62.41 -.01.01-.05.02-.06.01v0c-.13-.05-.25-.08-.37-.11 -.05-.01-.03-.05-.02-.05v0c.07-.14.17-.25.3-.34v0c.14-.12.31-.2.49-.23 .02 0 .02-.03.01-.04v0c-.08-.16-.22-.27-.38-.31v0c-.27-.09-.56-.04-.78.14v0c-.22.17-.37.4-.45.67 -.02.02-.02.03-.04.03 -.1-.02-.35-.01-.37-.03 -.02-.01-.02-.03-.01-.05v-.001c.04-.15.11-.28.22-.38H16.7c.09-.13.21-.23.36-.29h0c.02-.02.03-.05.02-.08 -.01-.01-.01-.02-.02-.03v0c-.42-.22-.93-.11-1.22.26v0c-.15.21-.25.44-.31.69 -.01 0-.02.03-.04.03l-.51.11 -.09.01 -.03.02v0c.3-.5.48-1.07.49-1.65Zm-12.45.08h5.19v.09 0c0 .77.3 1.52.83 2.09H3.45l0-.001c-.2-.72-.32-1.45-.35-2.19Zm.41 2.44h5.86v-.001c.03.03.07.06.11.1h0c.61.51 1.37.82 2.17.89v1.21H4.45v-.001c-.32-.59-.58-1.2-.8-1.83h0c-.05-.13-.09-.26-.125-.38Zm10.58.29l-.01.01h-.01l-.01-.01h-.001c0-.01.01-.01.01-.01Zm1.73.18v0c-.19 0-.36.05-.51.15l-.001 0c-.18.09-.31.23-.4.41h-.001c-.1.24-.16.5-.18.77v-.001c-.01.01-.03.02-.04.03v0c-.12.02-.23.05-.34.08V17c-.02-.01-.03-.01-.03-.02v0c-.04-.26.01-.51.15-.73h0c.05-.11.12-.2.21-.27h-.001c.01-.02.02-.04.01-.06 -.01-.01-.02-.02-.03-.02v-.001c-.23-.04-.46 0-.65.11h0c-.25.13-.42.38-.46.66v0c-.03.19-.01.4.04.59 0 0 0 .02-.02.03 -.08.03-.29.14-.36.18 -.01 0-.02 0-.03-.01v0c-.04-.16-.14-.28-.27-.36v0c-.15-.06-.31-.06-.45.02h0c-.1.05-.17.13-.22.22h-.001c-.08.16-.02.35.12.45 0 0 .01.02 0 .02 -.09.04-.1.06-.16.16v0c-.07.14-.05.32.05.45h-.001c.14.21.43.26.64.12 .01-.02.03-.03.05-.05 0-.01.01 0 .02.02v0c.03.05.08.11.14.15v0c.14.07.31.07.45-.001h0c.14-.09.23-.25.21-.42v0c-.01-.1-.05-.2-.12-.27 -.02-.02 0-.03.03-.05v-.001c.6-.35 1.26-.58 1.96-.67h-.001c.35-.06.72-.05 1.07.02v-.001c.23.05.44.15.62.31v-.001c.14.12.28.25.4.4v0c.04 0 .08-.01.11-.03v0c.07-.17.07-.35.01-.52v0c-.09-.23-.22-.43-.39-.59 -.01-.01-.01-.02-.01-.02 -.01-.03.01-.05.05-.08v0c.15-.15.35-.25.56-.3 .02-.01.03-.03.02-.06v0c-.16-.29-.51-.42-.81-.3h-.01v0c-.2.08-.36.22-.46.41 -.01.01-.03.05-.04.03 -.09-.01-.25-.04-.34-.04 -.05-.01-.03-.04-.03-.05h0c.03-.13.1-.23.19-.32v0c.12-.14.27-.25.44-.32h-.001c.01-.01.01-.02.01-.03 -.01-.01-.01-.01-.01-.01v0c-.12-.14-.29-.23-.47-.23v0c-.24-.02-.46.07-.62.23v-.001c-.2.2-.31.46-.34.74 -.01.02-.02.03-.04.03v0c-.1.01-.19.02-.28.02 -.02-.01-.02-.02-.02-.04v-.001c0-.15.03-.29.1-.41l-.001-.001c.12-.25.31-.45.55-.59 .03-.03.03-.08.02-.09V15.4c-.12-.05-.24-.08-.36-.08ZM4.59 17.57h7.06v2.19H6.08h0c-.33-.38-.63-.77-.9-1.19l-.001-.001c-.22-.33-.42-.67-.61-1.01Zm10.07 1.17v0c-.1-.01-.2.02-.28.06V18.8c-.23.11-.4.31-.48.56H13.9c-.05.18-.05.38.01.57 0 0 .01.02-.01.03 -.08.03-.14.06-.22.09 -.01 0-.03 0-.03-.01h0c-.14-.24-.1-.54.08-.74 .01-.02.02-.04-.01-.05l0-.001c-.2-.04-.4.04-.54.19h-.001c-.16.18-.2.43-.12.65v0c.01.09.05.17.09.26 0 0 .03.02.01.02l-.15.11c-.01 0-.02 0-.02 0h-.001c-.07-.12-.17-.21-.29-.24v0c-.12-.03-.24 0-.32.08h0c-.15.13-.15.36-.01.51 .04.04.09.07.15.09 0 0 .01.01 0 .02v0c-.08.05-.15.12-.19.21v0c-.06.14-.03.29.08.4v0c.07.06.18.1.29.08v-.001c.15-.06.28-.17.35-.32 0-.01.02-.02.03-.01v-.001c.06.09.15.16.26.2l-.001 0c.11.03.23.01.32-.07h-.001c.12-.1.16-.26.11-.4v0c-.05-.09-.12-.17-.21-.22 -.02-.01-.01-.04.02-.06v0c.4-.33.88-.54 1.4-.62v0c.35-.05.7.01 1.02.16v-.001c.12.07.23.16.33.26 .01 0 .05.02.06 0h0c.15-.15.17-.39.03-.55v0c-.06-.07-.13-.13-.21-.17v0c-.01-.01-.01-.01-.01-.02H16.2c.06-.16.16-.3.3-.4v0c.09-.06.19-.11.29-.15 .02-.01.01-.02 0-.05 -.13-.3-.64-.31-.88-.15v0c-.15.1-.27.23-.35.39 -.01.01-.02.04-.03.03l-.22-.07c-.01 0-.01-.03-.01-.03v0c.14-.28.39-.49.69-.57 .01-.01.01-.02 0-.03 -.11-.27-.67-.25-.93-.08v0c-.25.16-.43.42-.5.71 -.01.02 0 .03-.01.04v0c-.08.02-.16.04-.23.05h0c-.02-.01-.03-.02-.03-.03v0c-.02-.14 0-.28.06-.4v0c.08-.15.19-.29.32-.41v0c.01-.02.01-.05-.01-.07 -.01-.01-.01-.01-.01-.01v0c-.08-.05-.16-.07-.24-.07Zm-3.01 1.29v3.41c-.1-.04-.22-.08-.35-.12 -.18-.06-.38-.16-.6-.25v0c-.68-.29-1.34-.62-1.96-1h0c-.41-.26-.79-.54-1.15-.85v0c-.45-.38-.88-.78-1.27-1.21h5.31Z"/></svg>