<svg viewBox="0 0 24 24" xmlns="http://www.w3.org/2000/svg"><path d="M13.527.09C6.95-.753.93 3.891.09 10.464c-.85 6.57 3.8 12.58 10.37 13.42 6.573.843 12.587-3.81 13.42-10.374C24.72 6.93 20.08.92 13.51.08Zm2.471 7.485h-.001c-.23 0-.44.09-.593.25l-4.46 4.45 -.31-.31 -.65-.65c4.38-4.38 5.18-4.42 5.996-3.76Zm-4.87 4.86l4.44-4.44v0c.23-.25.62-.26.87-.03 .24.23.25.62.02.87 -.02.01-.04.03-.06.04l-4.699 4.12 -.59-.59Zm.33.69l-1.1.23v0c-.03 0-.06-.01-.07-.04v0c-.02-.03-.01-.06.01-.08l.64-.65 .51.51Zm-2.81-.46l1.17-1.18 .87.87 -1.98.42v0c-.04 0-.07-.01-.09-.04v-.001c-.02-.03-.02-.07.01-.1Zm-3.65 6.058v0c-.05-.01-.08-.05-.07-.09 0-.01 0-.01 0-.01v0c0-.02 0-.04.02-.05h0l.94-.95 1.22 1.22 -2.123-.15Zm2.425-1.26H7.42c-.1.04-.15.15-.12.25l.2.86H7.5c.01.06-.03.13-.1.15 -.05.01-.09-.01-.12-.04h-.01l-.94-.94 -.3-.3 3.76-3.76 1.82-.4 .87.87c-1.26 1.1-2.971 2.2-5.1 3.26Zm5.27-3.43h-.01l-.84-.84 4.69-4.13v-.001c.04-.04.08-.09.11-.13 -.15 1.34-2.029 3.24-3.98 5.09Zm3.657-6.46l-.01-.01v0c-.71-.72-.71-1.87 0-2.58 .66-.67 1.73-.72 2.45-.11l-1.61 1.61v0c-.05.04-.05.12-.01.16 0 0 0 0 0 0l1.24 1.24V7.88c-.7.34-1.55.2-2.093-.35Zm2.57 0V7.57c-.09.08-.18.15-.28.21h-.01l-1.21-1.21 1.53-1.54c.66.72.63 1.83-.06 2.52Zm-.1-1.55V6.02c-.05.03-.08.09-.06.15l-.001 0c.07.14.05.32-.06.45l-.001-.001c-.05.06-.04.14.02.19 0 0 0 0 0 0l-.001 0c.02.01.05.02.08.03V6.84c.04-.01.07-.02.1-.05V6.78c.17-.22.2-.51.08-.76v0c-.05-.07-.13-.08-.2-.04 -.01 0-.01 0-.01 0Z"/></svg>