<svg viewBox="0 0 24 24" xmlns="http://www.w3.org/2000/svg"><path d="M11.99 4.67c1.87-.01 3.75.71 5.18 2.14 1.02 1.02 1.6 2.18 1.89 3.28l1.79-1.8c.71-.72 1.87-.72 2.59 0 .71.71.71 1.87 0 2.59l-6.29 6.28c-1.44 1.43-3.31 2.14-5.19 2.14 -1.88 0-3.76-.72-5.19-2.15 -.95-.95-1.58-2.09-1.9-3.29l-1.8 1.79c-.72.71-1.88.71-2.6 0 -.72-.72-.72-1.88 0-2.6 2.09-2.1 4.19-4.19 5.95-5.96 1.69-1.86 3.76-2.48 5.51-2.48Zm2.59 4.73c-1.44-1.44-3.76-1.44-5.19 0 -1.44 1.43-1.44 3.75 0 5.18 1.43 1.43 3.75 1.43 5.18-.01 1.43-1.44 1.43-3.76 0-5.19Z"/></svg>