<svg viewBox="0 0 24 24" xmlns="http://www.w3.org/2000/svg"><path d="M12 0c-.57 0-1.13.21-1.56.645L.64 10.43c-.86.86-.86 2.25 0 3.11l9.79 9.79c.86.86 2.25.86 3.11 0l9.79-9.8c.86-.86.86-2.26 0-3.12l-9.8-9.8V.61c-.42-.42-.98-.65-1.56-.645Zm0 1.74c.49 0 .98.18 1.36.56l8.33 8.34c.75.75.75 1.97 0 2.72l-8.34 8.33c-.38.375-.87.56-1.37.56 -.5 0-.99-.19-1.37-.56l-8.34-8.34v0c-.75-.76-.75-1.97-.001-2.73l8.33-8.339c.37-.375.86-.56 1.36-.56Zm0 .62c-.34 0-.67.12-.92.38l-8.34 8.338h0c-.51.5-.52 1.32-.01 1.83 0 0 0 0 0 0l8.338 8.33h-.001c.5.5 1.32.51 1.83 0 0-.01 0-.01 0-.01l8.33-8.34v0c.5-.51.51-1.33 0-1.84 -.01-.01-.01-.01-.01-.01L12.87 2.7h0c-.25-.25-.58-.39-.92-.39ZM9.2 7.62h3.95c.55-.001 1.01.07 1.4.23 .38.16.7.37.94.63s.41.56.52.89v0c.22.67.22 1.4 0 2.08 -.11.34-.29.64-.53.9v-.001c-.27.27-.59.49-.95.63 -.39.16-.85.23-1.4.23h-2.05v3.15H9.16Zm1.91 1.48v2.657h1.51c.22 0 .43-.02.64-.05 .2-.04.39-.1.54-.2 .15-.1.28-.23.38-.41 .09-.18.14-.41.14-.69 0-.28-.05-.51-.15-.69v0c-.09-.17-.22-.31-.38-.41v0c-.17-.1-.36-.17-.55-.2h-.001c-.22-.04-.43-.05-.64-.05Z"/></svg>