<svg viewBox="0 0 24 24" xmlns="http://www.w3.org/2000/svg"><path d="M11.558 1.03C5.17 1.03 0 6.206 0 12.588c0 1.25.201 2.47.57 3.59l0-.01H.569c.13-.61.3-1.21.53-1.79l.01-.03c.08-.23.17-.45.27-.66l.08-.19c.08-.18.16-.34.25-.51 .03-.07.07-.14.1-.21 .02-.04.04-.08.06-.11 .09-.17.19-.34.29-.5l.07-.12c.125-.2.25-.39.39-.58l.03-.05c.14-.2.29-.38.45-.57l.1-.12c.15-.18.31-.35.48-.52l.09-.1 -.001 0c.17-.18.35-.35.54-.51 .74-2.48 3.005-4.29 5.68-4.29 1.07 0 2.15.31 3.07.87v0c.94.58 1.71 1.41 2.21 2.4l0 .01 .04.07v0l0 0v0c.56.34 1.08.74 1.56 1.19 .04.03.08.07.12.1 0 0 0 0 0 0l-.01-.01 -.01-.01v-.01l.04-.09c.37-2.39 1.43-4.11 2.67-4.11 .93 0 1.76.97 2.276 2.47l0 .01 0 0c.14.15.28.33.42.52l0 .01 .02.06 -.02-.08C20.82 4.13 16.5.85 11.41.85Zm-1.64 4.44c-2.35.04-4.587 1.65-5.353 3.88l-.02.03 -.001 0c.41-.34.85-.64 1.31-.9 2.8-1.66 6.47-1.65 9.27.01 -.9-1.66-2.64-2.82-4.5-3.01v0c-.25-.04-.49-.05-.73-.04Zm9.834.5v0c-.14 0-.27.02-.39.06 -1.27.56-1.72 2.07-2.04 3.303l-.02.07c.36-.62.8-1.22 1.39-1.65 .83-.69 2.1-.66 2.91.05 .3.32.14 0 .03-.22 -.35-.75-1.03-1.66-1.91-1.64Zm1.9 2.003Zm-9.32.33l-1.07 3.27 -.01 0 -.01 0L6.74 12.685h-.01l4.456 1.08c.1.11.22.2.36.28h0c.04.02.08.04.12.06l.01 0c.04.01.08.03.12.04l.02 0c.04.01.08.02.12.03l.03 0v0c.1.02.21.03.31.03v0c.62 0 1.18-.38 1.43-.95 .08-.19.12-.39.12-.61v-.02l-.01-.02c-.01-.06-.01-.11-.01-.16l-.01-.01h0c-.01-.06-.02-.11-.03-.16l-.01-.01v0c-.03-.1-.06-.2-.1-.29v-.01 0c-.09-.19-.21-.36-.35-.49v-.01Zm3.14.62c.04 1 .03 2.04-.1 3.05 -.17 2.01-1.19 3.798-1.98 5.61l-.03.08 -.04.08c1.51-1.53 3.17-3.04 3.96-5.09 .38-.64.11-1.35-.12-1.98 -.17-.88-1.07-1.28-1.72-1.79Zm6.17.57l-.59 2.68v0c-.02.06-.04.13-.05.2 -.01.02-.01.04-.01.06v0c-.02.07-.02.14-.02.22l-.01.03h0c0 .62.29 1.13.66 1.13v0c.06-.01.12-.02.18-.05l.02-.02h-.001c.02-.02.04-.03.07-.05 .01-.01.02-.03.03-.04v-.001c.05-.05.09-.11.13-.17l.03-.06v-.001c.01-.04.03-.08.05-.11l.01-.04c.02-.06.03-.11.05-.17l0-.01 0-.01 .4-.46 -.41-.46v0l-.02-.07Zm-4.381.85c.69 1.71.85 3.7.09 5.43 -.49 1.36-1.59 2.46-1.88 3.9 .73.11 1.46.17 2.21.18 2.16.02 4.33-.42 6.28-1.37 -2.04-2.87-4.13-5.76-6.72-8.156Zm-4.948.97v0c.32 0 .58.26.58.58 0 .32-.27.58-.59.58v0c-.33 0-.59-.27-.59-.59 0-.33.26-.59.58-.59Zm9.35.37c.13 0 .24.19.24.42 0 .23-.12.42-.25.42 -.14 0-.25-.19-.25-.43s.11-.43.24-.43Zm-4.05.18c-.02.11-.04.2-.05.29l-.01.02c-.01.05-.03.09-.04.12 -.48 1.41-1.28 2.52-2.36 3.69 -.15.16-.31.32-.46.48v-.001c-.4.4-.8.8-1.2 1.2 -.12.11-.26.26-.43.43 -.11.28-.22.61-.32.95 -.05-.02-.09-.04-.14-.05 -2.11-.82-3.519-1.91-3.519-1.91s1.08 1.41 2.91 2.74c.17.12.35.24.52.33 -.08 1.19.45 2.34 2.83 2.68v0c.4.05.82.05 1.22 0l-.01-.03 0-.001c-.01-.01-.01-.01-.01-.01s-.17-.14-.38-.38v0c-.24-.28-.44-.58-.59-.9h-.001c-.13-.28-.22-.57-.266-.87v0c-.06-.33-.06-.65-.01-.98 .01-.12.04-.25.07-.37 .09-.38.25-.78.5-1.2l0-.01 .24-.41c1.1-1.86 1.79-3.28 1.5-5.45H17.6c-.03-.16-.05-.32-.08-.48Zm4.66.57Zm.01.2l0 .03v.01c0 .01-.01.02-.01.03 0-.02 0-.03 0-.05 0-.02-.01-.03-.01-.04Zm-.02.27v0l-.01.01 -.01.01 0-.03Zm1.35 5.92c-2.56 1.13-5.44 1.44-8.192 1 -.14 1.1.38 2.21 1.21 2.93l.01.01c2.7-.44 4.97-2.17 6.96-3.95Z"/></svg>