<svg viewBox="0 0 24 24" xmlns="http://www.w3.org/2000/svg"><path d="M8.571 23.429v0c0 .31-.26.57-.58.57h-5.72v0c-.32 0-.58-.26-.58-.58 0-.32.25-.58.57-.58h5.714c.31 0 .57.25.57.57Zm-.58-2.86H6.84v0c-.32 0-.58.25-.58.57 0 .31.25.57.57.57h1.14v0c.31 0 .57-.26.57-.58 0-.32-.26-.58-.58-.58Zm-5.714 1.14h2.28v0c.31 0 .57-.26.57-.58 0-.32-.26-.58-.58-.58H2.25v0c-.32 0-.58.25-.58.57 0 .31.25.57.57.57Zm5.714-3.43H2.27v0c-.32 0-.58.25-.58.57 0 .31.25.57.57.57h5.714v0c.31 0 .57-.26.57-.58 0-.32-.26-.58-.58-.58Zm8-2.29H5.7v0c-.32 0-.58.25-.58.57 0 .31.25.57.57.57h10.28v0c.31 0 .57-.26.57-.58 0-.32-.26-.58-.58-.58ZM2.27 17.129h1.14v0c.31 0 .57-.26.57-.58 0-.32-.26-.58-.58-.58H2.25v0c-.32 0-.58.25-.58.57 0 .31.25.57.57.57Zm17.143-3.43h-3.43v0c-.32 0-.58.25-.58.57 0 .31.25.57.57.57h3.42v0c.31 0 .57-.26.57-.58 0-.32-.26-.58-.58-.58ZM9.13 14.83H13.7v0c.31 0 .57-.26.57-.58 0-.32-.26-.58-.58-.58H9.12v0c-.32 0-.58.25-.58.57 0 .31.25.57.57.57Zm-6.86 0H6.84v0c.31 0 .57-.26.57-.58 0-.32-.26-.58-.58-.58H2.26v0c-.32 0-.58.25-.58.57 0 .31.25.57.57.57ZM20.55 11.4h-9.14v0c-.32 0-.58.25-.58.57 0 .31.25.57.57.57h9.14v0c.31-.01.57-.26.57-.58 -.01-.32-.26-.58-.58-.58Zm-10.86.57v0c0-.32-.26-.58-.58-.58H5.68v0c-.32 0-.58.25-.58.57 0 .31.25.57.57.57h3.42v0c.31 0 .57-.26.57-.58Zm-7.43.57H3.4v0c.31-.01.57-.26.57-.58 -.01-.32-.26-.58-.58-.58H2.24 2.24c-.32 0-.58.25-.58.57 0 .31.25.57.57.57Zm19.42-3.43h-5.72v0c-.32 0-.58.25-.58.57 0 .31.25.57.57.57h5.71v0c.31 0 .57-.26.57-.58 0-.32-.26-.58-.58-.58ZM2.25 10.25h5.71v0c.31 0 .57-.26.57-.58 0-.32-.26-.58-.58-.58H2.24v0c-.32 0-.58.25-.58.57 0 .31.25.57.57.57Zm13.14-2.86c0 .31.25.57.57.57h5.714v0c.31-.01.57-.26.57-.58 -.01-.32-.26-.58-.58-.58h-5.72v0c-.32-.01-.58.25-.58.57 -.01 0 0 0 0 0Zm-8.58-.58V6.81c-.32 0-.58.25-.58.57 0 .31.25.57.57.57h1.14v0c.31-.01.57-.26.57-.58 -.01-.32-.26-.58-.58-.58H6.78ZM2.23 7.95h2.28v0c.31-.01.57-.26.57-.58 -.01-.32-.26-.58-.58-.58H2.21v0c-.32 0-.58.25-.58.57 0 .31.25.57.57.57ZM18.8 5.09c0 .31.25.57.57.57h1.14v0c.31-.01.57-.26.57-.58 -.01-.32-.26-.58-.58-.58h-1.15 -.001c-.32-.01-.58.25-.58.56 -.01 0-.01 0 0 0Zm-1.15 0h-.001c0-.32-.26-.58-.57-.58 -.01-.01-.01-.01-.01-.01H12.5v0c-.32 0-.58.25-.58.57 0 .31.25.57.57.57h4.57v0c.31 0 .57-.26.57-.58Zm-15.43.57h8 0c.31-.01.57-.26.57-.58 -.01-.32-.26-.58-.58-.58h-8v0c-.32 0-.58.25-.58.57 0 .31.25.57.57.57ZM7.36 2.8c0 .31.25.57.57.57h11.42v0c.31-.01.57-.26.57-.58 -.01-.32-.26-.58-.58-.58H7.91V2.21c-.32 0-.58.25-.58.57Zm-5.15.57h3.42v0c.31-.01.57-.26.57-.58 -.01-.32-.26-.58-.58-.58H2.19v0c-.32 0-.58.25-.58.57 0 .31.25.57.57.57ZM2.21 1.09h13.71v0c.31 0 .57-.26.57-.58 0-.32-.26-.58-.58-.58H2.19v0c-.32 0-.58.25-.58.57 0 .31.25.57.57.57Z"/></svg>