<svg viewBox="0 0 24 24" xmlns="http://www.w3.org/2000/svg"><path d="M11.996 0c-.21 0-.42.005-.63.015l.13 2.54c.33-.02.66-.02.98 0L12.6 0l0 0c-.21-.02-.42-.02-.63-.02Zm-1.89.14c-.42.067-.83.154-1.22.26l.66 2.467c.32-.09.64-.16.97-.21Zm3.76 0l-.39 2.52c.33.05.66.12.97.2l.64-2.467v0c-.41-.11-.82-.2-1.24-.26ZM7.69.78c-.4.15-.78.32-1.146.51l1.16 2.273c.29-.15.59-.28.89-.4Zm8.6 0l-.92 2.38c.31.12.62.254.91.4l1.14-2.28c-.37-.19-.75-.36-1.14-.51ZM5.44 1.91c-.36.22-.7.47-1.02.74l1.6 1.98c.26-.2.52-.4.8-.58Zm13.06 0l-1.38 2.147c.28.18.54.37.8.58l1.62-1.98c-.34-.27-.68-.52-1.04-.76Zm-6.53 1.56c-1.17 0-2.253.22-3.32.67v0c-1.02.42-1.94 1.04-2.71 1.82l-.001 0c-.78.77-1.39 1.69-1.81 2.71 -.47 1.04-.68 2.14-.68 3.3 0 1.154.2 2.25.67 3.3H4.12c.42 1 1.03 1.92 1.8 2.7h0c.77.77 1.68 1.39 2.7 1.82v0c1.05.44 2.17.67 3.32.67v0c1.13 0 2.26-.23 3.308-.68h0c1.01-.44 1.93-1.05 2.71-1.82v0c.77-.78 1.38-1.7 1.8-2.7 .46-1.06.68-2.17.68-3.308v0c.01-1.14-.22-2.27-.68-3.31 -.42-1.04-1.04-1.94-1.81-2.72v0c-.79-.78-1.71-1.4-2.72-1.82v0c-1.05-.45-2.18-.68-3.31-.68Zm8.49.02L18.65 5.284c.23.24.46.48.67.75l1.98-1.62c-.26-.33-.55-.64-.84-.93Zm-16.99 0c-.3.29-.57.6-.83.92l1.99 1.6c.2-.26.42-.5.65-.73Zm8.489.66c1.06 0 2.07.19 3.03.6 .94.4 1.76.96 2.47 1.68 .72.72 1.28 1.548 1.68 2.474v0c.41.96.62 2 .62 3.05h0c0 1.04-.21 2.07-.62 3.03 -.4.92-.96 1.76-1.68 2.48v0c-.71.71-1.55 1.28-2.48 1.68 -.96.4-1.97.6-3.04.6v0c-1.05 0-2.08-.21-3.04-.61 -.95-.4-1.76-.96-2.5-1.68v0c-.71-.72-1.28-1.56-1.66-2.48v-.001c-.41-.96-.62-2-.61-3.04 0-1.08.19-2.08.6-3.06 .38-.93.96-1.76 1.66-2.473H6.39c.71-.72 1.55-1.29 2.48-1.68v0c.95-.41 1.99-.62 3.03-.61Zm0 .68c-1.97 0-3.64.7-5.03 2.09 -1.407 1.38-2.1 3.067-2.1 5.03 0 1.94.68 3.62 2.09 5 1.37 1.38 3.05 2.09 5.02 2.09 1.94 0 3.628-.71 5.02-2.1 1.39-1.38 2.07-3.06 2.07-5.01 0-1.97-.69-3.65-2.08-5.034 -1.4-1.39-3.067-2.1-5.02-2.1Zm10.07.58l-2.14 1.39c.18.27.34.56.49.85l2.27-1.17c-.19-.38-.4-.74-.63-1.08Zm-20.14 0c-.23.35-.44.71-.64 1.093L3.53 7.66c.16-.31.32-.593.5-.88Zm10.06.1c1.76 0 3.27.62 4.54 1.88 1.24 1.24 1.85 2.747 1.85 4.541 0 1.76-.61 3.27-1.86 4.52 -1.26 1.24-2.78 1.86-4.54 1.86 -1.78 0-3.3-.62-4.52-1.87 -1.27-1.25-1.888-2.77-1.888-4.53 0-1.79.62-3.3 1.88-4.54 1.23-1.26 2.74-1.888 4.52-1.888Zm0 .72c-1.57 0-2.93.54-4.04 1.66 -1.13 1.12-1.67 2.46-1.67 4.041 0 1.56.54 2.907 1.66 4.02 1.12 1.12 2.47 1.68 4.04 1.68 1.58 0 2.9-.56 4.02-1.68 1.12-1.12 1.68-2.46 1.68-4.03 0-1.58-.56-2.93-1.68-4.04 -1.12-1.12-2.44-1.67-4.03-1.67Zm.01.7c.08 0 .17 0 .25 0 1.36.06 2.5.62 3.43 1.64 .92 1.013 1.36 2.21 1.28 3.58 -.05 1.38-.61 2.54-1.63 3.46 -1.04.92-2.24 1.36-3.62 1.28 -1.39-.08-2.54-.62-3.47-1.63 -.92-1.04-1.34-2.234-1.28-3.628 .08-1.38.62-2.53 1.66-3.45 .94-.87 2.07-1.29 3.35-1.29Zm11.2.68l-2.39.92c.12.3.22.61.3.93l2.46-.66c-.11-.42-.24-.82-.39-1.21ZM.74 7.63c-.15.38-.28.78-.39 1.18l2.467.66c.08-.32.19-.64.3-.94Zm11.22.133c-.16 0-.32.01-.47.02v8.262h0c.14.03.3.03.46.03 .16 0 .32 0 .46-.04h0V7.773c-.16-.02-.31-.03-.47-.03Zm-1.407.23v0c-.33.11-.64.27-.93.46v6.907s.01 0 .02.01c.28.18.593.34.907.45Zm2.814 0v7.84 0c.32-.12.63-.28.92-.47v-6.9c-.3-.2-.6-.36-.93-.48ZM8.7 9.31v0c-.6.73-.92 1.64-.91 2.59 0 .72.16 1.39.49 1.96 .12.22.25.43.41.63Zm6.52.01v5.17c.16-.2.29-.41.41-.62 .32-.59.47-1.26.47-1.97 0-.99-.29-1.86-.89-2.6Zm-15.129.7c-.06.41-.11.827-.13 1.24l2.547.13c.02-.34.05-.66.1-.99Zm23.71 0l-2.52.4c.04.32.08.65.1.98v0l2.54-.14v-.01c-.02-.43-.07-.84-.14-1.26Zm-2.407 2.36c-.03.34-.06.67-.12 1l2.52.39c.06-.42.1-.84.13-1.26Zm-18.876.01l-2.55.13c.02.42.06.827.12 1.22l2.52-.4v0c-.06-.32-.09-.64-.1-.96Zm18.563 1.94c-.09.32-.2.63-.31.94l2.38.91c.14-.4.28-.8.39-1.21Zm-18.256.01l-2.47.65c.1.4.23.8.38 1.18l2.38-.9 0 0c-.12-.31-.22-.63-.3-.94Zm.7 1.82l-2.28 1.16c.18.36.39.72.62 1.07L4 17.01c-.18-.28-.34-.56-.5-.86Zm16.843 0v0c-.15.29-.32.57-.5.85l2.14 1.39c.22-.36.44-.72.63-1.1ZM4.6 17.8l-1.98 1.61c.26.32.54.64.84.93l1.81-1.8v0c-.24-.24-.47-.49-.68-.75Zm14.683.01c-.2.26-.42.5-.66.73l1.8 1.8c.3-.3.58-.62.84-.94ZM6 19.21l-1.62 1.98c.32.26.66.51 1.02.74l1.4-2.14c-.28-.19-.55-.38-.81-.59Zm11.88 0v0c-.25.2-.51.39-.78.57l1.38 2.14c.35-.24.69-.48 1.02-.74ZM7.65 20.28l-1.16 2.27c.37.18.76.36 1.15.51l.9-2.39v0c-.31-.12-.61-.26-.9-.4Zm8.588 0c-.3.14-.6.28-.9.39l.9 2.39c.4-.16.78-.33 1.16-.52Zm-6.734.7l-.67 2.46c.4.1.8.19 1.22.26l.4-2.52v0c-.33-.06-.65-.13-.96-.21Zm4.88 0c-.32.08-.65.15-.98.2l.4 2.52h-.001c.41-.07.82-.16 1.22-.26Zm-2.94.3l-.15 2.54c.42.02.84.02 1.26 0l-.14-2.55c-.34.02-.66.02-.99 0Z"/></svg>