<svg viewBox="0 0 24 24" xmlns="http://www.w3.org/2000/svg"><path d="M22.787 15.29c-.34-.43-2.23-.21-3.07-.11 -.26.03-.3-.2-.07-.36 1.5-1.06 3.96-.75 4.25-.4 .28.35-.08 2.82-1.49 4 -.22.18-.43.08-.33-.16 .31-.8 1.02-2.57.69-3m-1.1 1.24c-2.63 1.94-6.44 2.97-9.72 2.97 -4.6 0-8.74-1.7-11.87-4.53 -.25-.23-.03-.53.27-.36 3.38 1.96 7.55 3.151 11.876 3.151l0-.001c3.11-.02 6.19-.65 9.06-1.86 .44-.19.81.29.38.61m.48-5.038c-.77 0-1.35-.21-1.76-.63 -.41-.42-.62-1.02-.62-1.8 0-.8.2-1.43.62-1.88 .41-.46.99-.69 1.74-.69 .57 0 1.01.13 1.34.41 .32.27.48.64.48 1.1 0 .46-.18.81-.52 1.04 -.35.23-.86.35-1.54.35 -.35 0-.66-.04-.92-.11 .03.41.16.7.37.88 .21.17.53.26.96.26 .17 0 .34-.02.5-.04v0c.24-.04.49-.09.73-.16v0c.01-.01.03-.01.04-.01 .1 0 .15.07.15.21v.42c0 .09-.02.16-.04.2v0c-.05.05-.1.08-.17.1v0c-.46.17-.95.26-1.43.25m-.31-2.9c.31 0 .54-.05.68-.15 .14-.1.21-.25.21-.44 0-.39-.23-.58-.69-.58 -.59 0-.94.36-1.03 1.08 .24.05.52.07.82.07m-9.84 2.75c-.08 0-.14-.02-.18-.06 -.04-.04-.06-.1-.06-.18V6.68c0-.09.01-.15.05-.18 .03-.04.09-.05.17-.05h.66c.14 0 .22.06.25.2l.07.24c.32-.22.61-.367.88-.46 .26-.09.53-.14.8-.14 .55 0 .94.19 1.17.59v0c.27-.19.57-.35.88-.46 .27-.1.56-.14.85-.14 .43 0 .76.12 1 .36 .23.23.35.57.35 1v3.25c0 .08-.02.13-.05.17 -.04.03-.1.05-.18.05h-.89c-.08 0-.14-.02-.18-.06 -.04-.04-.06-.1-.06-.18V7.91c0-.42-.19-.63-.57-.63 -.34 0-.67.08-1.01.24v3.34c0 .08-.02.13-.05.17 -.04.03-.1.05-.18.05h-.89c-.08 0-.14-.02-.18-.06 -.04-.04-.06-.1-.06-.18V7.88c0-.42-.19-.63-.57-.63 -.35 0-.69.08-1.013.24v3.33c0 .08-.02.13-.06.17 -.04.03-.1.05-.18.05ZM9.86 5.73c-.24 0-.42-.07-.57-.2 -.15-.13-.22-.31-.22-.53 0-.23.07-.4.21-.53 .14-.13.32-.2.56-.2 .23 0 .42.06.56.19V4.46c.14.13.22.32.21.52 0 .22-.07.39-.22.52 -.15.12-.33.19-.57.19m-.45 5.437c-.08 0-.14-.02-.18-.06 -.04-.04-.06-.1-.06-.18V6.63c0-.09.01-.15.05-.18 .03-.04.09-.05.17-.05h.88c.08 0 .14.01.18.05 .03.03.05.09.05.18v4.24c0 .08-.02.13-.05.17 -.04.03-.1.05-.18.05Zm-3.69 0c-.08 0-.14-.02-.18-.06 -.04-.04-.06-.1-.06-.18V6.63c0-.09.01-.15.05-.18 .03-.04.09-.05.17-.05h.66c.14 0 .22.06.258.2l.12.49c.24-.27.47-.47.69-.58 .21-.12.45-.17.69-.17h.13c.08 0 .14.01.18.05 .03.03.05.09.05.18v.77c0 .08-.02.13-.06.17 -.04.03-.1.05-.18.05v0c-.06-.01-.12-.01-.17-.01v0c-.09-.01-.18-.01-.26-.01 -.14 0-.32.02-.52.06 -.21.04-.38.09-.52.15v3.09c0 .08-.02.13-.06.17 -.04.03-.1.05-.18.05ZM.16 13.01c-.08 0-.14-.02-.18-.05 -.04-.04-.06-.1-.06-.18V6.63c0-.09.01-.15.05-.18C0 6.41.06 6.4.14 6.4H.81c.14 0 .22.06.258.2l.06.24H1.12c.19-.19.41-.33.66-.43H1.78c.25-.11.52-.16.79-.16 .59 0 1.06.21 1.41.65 .34.43.52 1.02.52 1.77 0 .51-.09.95-.258 1.33 -.18.38-.41.67-.7.88v0c-.3.2-.66.31-1.02.3 -.26 0-.5-.04-.72-.12v0c-.22-.08-.41-.19-.58-.34v2.01c0 .08-.02.14-.05.18 -.04.03-.1.05-.18.05Zm2.01-2.81c.34 0 .597-.12.76-.35 .16-.24.24-.61.24-1.11 0-.51-.08-.89-.24-1.12 -.16-.24-.42-.35-.77-.35 -.32 0-.62.08-.91.24v2.42c.27.16.57.24.9.24Z"/></svg>