<svg viewBox="0 0 24 24" xmlns="http://www.w3.org/2000/svg"><path d="M11.998 0c-4.35 0-7.87 3.5-7.87 7.82v.86h-.98c-1.03 0-1.85.82-1.85 1.83v7.18c0 .47.03.82.21 1.08h0c.09.12.22.21.37.26 .13.04.25.06.38.07 .07 0 .16.01.25 0h1.57c.04.61.07 1.28.1 1.88 .04.64.08 1.29.11 1.94 0 .1.01.33.13.55 .125.22.38.42.81.41h3.97l2.06-2.2h1.54l1.99 2.25h3.56c.3-.01.59 0 .83-.15 .24-.16.38-.46.45-.99 .05-.39.08-1.11.1-1.85 0-.62.03-1.28.05-1.9h1.57c.18-.01.34 0 .53-.02 .18-.03.34-.1.47-.24 .19-.23.22-.55.22-1.02v-7.32c-.01-1.016-.84-1.84-1.86-1.84 -.33 0-.65 0-.98 0v-.87c0-4.33-3.53-7.83-7.88-7.83Zm-.02 2.86c2.67 0 4.83 2.16 4.83 4.82v1.41h-9.68V7.67c0-2.67 2.16-4.83 4.83-4.83Zm-1.59 1.73v0c-.5-.01-.9.39-.9.89 -.01 0-.01 0 0 0v0c0 .49.4.89.89.89 0-.01 0-.01 0-.01v0c.49-.01.89-.4.89-.9V5.45c0-.5-.4-.9-.9-.9 -.01-.01-.01-.01-.01-.01Zm3.17 0v0c-.5 0-.9.4-.9.89 0 0 0 0 0 0v0c0 .49.39.89.89.89v0c.49 0 .89-.4.89-.9 0-.01 0-.01 0-.01v0c0-.5-.4-.9-.9-.9 -.01-.01-.01-.01-.01 0ZM9.93 7.62v.51h4.31v-.52ZM4.34 9.57h.25v9.1h14.78v.49H4.568v-.33h-.23Zm15.06 0h.25v9.27h-.26Zm-7.54 3.4c.74 0 1.36.53 1.51 1.24h-.39c-.15-.51-.6-.88-1.14-.88 -.54 0-.99.36-1.14.87h-.39c.15-.72.77-1.25 1.51-1.25Zm-1.64 1.5h3.23v2.41h-3.24Zm11.68 4.87c-.08 0-.16 0-.25 0h-1.58c-.03.38-.04 1-.06 1.63h.36c.83 0 1.5-.68 1.5-1.52Zm-20.03 0v.13c0 .83.66 1.5 1.49 1.5h.49l-.11-1.63H2.18c-.12 0-.23-.01-.33-.02Z"/></svg>