<svg viewBox="0 0 24 24" xmlns="http://www.w3.org/2000/svg"><path d="M12 .04l-.001-.001c-.97 0-1.75.78-1.75 1.74 0 .75.48 1.42 1.2 1.65l-.64 2.579H2.433v0c-1.36 0-2.46 1.09-2.46 2.45V21.48v0c0 1.35 1.09 2.45 2.45 2.45h19.08c1.35 0 2.45-1.1 2.45-2.46V8.44c0-1.36-1.1-2.46-2.46-2.46H13.09l-.62-2.58v0c.91-.3 1.42-1.27 1.13-2.19 -.23-.73-.91-1.22-1.67-1.22ZM3.933 7.881h16.13c1.1 0 1.99.89 1.99 1.99v10.11 0c0 1.1-.9 1.99-2 1.99H3.91v0c-1.11 0-2-.9-1.994-2V9.851c0-1.11.893-2 1.994-2Zm3.25 2.31v0c-2.53 0-4.58 2.04-4.575 4.57 0 2.52 2.04 4.57 4.57 4.57v0c2.52 0 4.575-2.05 4.575-4.58 0-2.53-2.05-4.58-4.575-4.58Zm9.743 0v0c-2.53 0-4.58 2.04-4.58 4.57 0 2.52 2.04 4.57 4.57 4.57v0c2.52 0 4.57-2.05 4.57-4.58 0-2.53-2.05-4.58-4.58-4.58Zm-9.75 1.07v-.001c1.93-.04 3.53 1.51 3.56 3.44 .03 1.93-1.52 3.53-3.45 3.56 -.04 0-.08 0-.12 0v0c-1.94-.04-3.48-1.63-3.45-3.57 .03-1.89 1.55-3.42 3.44-3.45Zm9.74 0v-.001c1.93-.04 3.53 1.51 3.56 3.44 .03 1.93-1.52 3.53-3.45 3.56 -.04 0-.08 0-.12 0v0c-1.94-.04-3.48-1.63-3.45-3.57 .03-1.89 1.55-3.42 3.44-3.45Zm-9.75 1.66v0c-1.02 0-1.85.82-1.85 1.843 0 1.01.82 1.843 1.84 1.843v0c1.01 0 1.843-.83 1.843-1.843 0-1.02-.83-1.843-1.843-1.843Zm9.74 0v0c-1.02 0-1.843.82-1.843 1.843 0 1.01.82 1.843 1.843 1.843v0c1.01 0 1.843-.83 1.843-1.843 0-1.02-.83-1.843-1.843-1.843Zm-6.927 6.5v2.15h.7v-2.16h-.71Zm1.077 0v2.15h.7v-2.16h-.71Zm1.07 0v2.15h.7v-2.16h-.71Zm1.077 0v2.15h.7v-2.16h-.71Zm1.077.03v2.1 0c.48-.12.82-.55.82-1.05v-.01c0-.51-.36-.94-.83-1.05Zm-4.68.02v0c-.44.14-.74.55-.74 1.02v0c0 .47.3.87.73 1.02v-2.05Z"/></svg>