<svg viewBox="0 0 24 24" xmlns="http://www.w3.org/2000/svg"><path d="M21.939 5.27C21.209 4.18 20 2.94 18.779 2.13 16.253.4 13.31-.21 10.739.06 8.04.35 5.72 1.36 3.82 3.06 2.06 4.635.89 6.555.38 8.385c-.52 1.83-.45 3.53-.27 4.808 .195 1.29.841 2.92.841 2.92 .13.31.31.44.41.49 .472.25 1.24.03 1.842-.64 .03-.05.04-.1.03-.15 -.17-.64-.23-1.12-.29-1.5 -.14-.74-.2-1.97-.11-3.109 .04-.62.16-1.28.375-1.97 .4-1.37 1.26-2.8 2.6-3.98 1.44-1.28 3.28-2.07 5.04-2.27 .61-.08 1.78-.15 3.199.2 .3.07 1.593.41 2.97 1.34 1 .68 1.81 1.52 2.37 2.36 .56.79 1.18 2.141 1.36 3.125 .25 1.12.25 2.3.07 3.46 -.23 1.15-.64 2.28-1.27 3.27 -.44.76-1.34 1.78-2.41 2.54 -.97.67-2.058 1.16-3.19 1.43 -.57.13-1.15.22-1.73.24 -.53.01-1.22 0-1.7-.09 -.73-.12-.88-.3-1.04-.55 0 0-.12-.18-.15-.67 .01-4.41 0-3.23 0-5.516 0-.65-.03-1.24-.02-1.77 .03-.88.1-1.48.72-2.13 .45-.48 1.08-.77 1.77-.77 .21 0 .93.01 1.577.54 .68.57.8 1.35.827 1.56 .15 1.22-.66 2.13-.97 2.365 -.39.28-.73.42-.97.51 -.5.16-1.05.21-1.54.18 -.08-.01-.15.04-.16.11l-.17.85c-.17.65.2.88.41.97 .67.2 1.266.29 1.971.24 1.08-.08 2.14-.51 3.05-1.346 .77-.74 1.2-1.64 1.35-2.65 .15-1.13-.05-2.33-.56-3.35 -.57-1.13-1.532-2.07-2.81-2.583 -1.3-.51-2.32-.53-3.65-.19l-.02 0c-.86.29-1.596.66-2.362 1.452 -.53.54-.96 1.2-1.22 1.95s-.33 1.31-.35 2.18c-.02.64.01 1.24.01 1.8v3.7c0 1.18-.04 1.38 0 1.99 .02.4.07.86.25 1.35 .18.54.56 1.09.82 1.35 .367.39.83.7 1.29.9 1.05.46 2.47.54 3.635.49 .766-.03 1.53-.14 2.29-.32 1.51-.36 2.96-1.02 4.23-1.92 1.36-.97 2.55-2.28 3.21-3.4 .84-1.33 1.38-2.82 1.66-4.35 .25-1.532.24-3.11-.1-4.62 -.27-1.4-1-2.936-1.83-4.176l.03.03Z"/></svg>