<svg viewBox="0 0 24 24" xmlns="http://www.w3.org/2000/svg"><path d="M12 11.997c-.73 0-1.32-.59-1.32-1.32 0-.73.58-1.32 1.31-1.32 .72 0 1.31.58 1.31 1.31 0 .72-.59 1.31-1.32 1.31Zm2.91-.03c0-2.83-1.109-5.4-2.92-7.298 -1.81 1.9-2.92 4.47-2.92 7.298 0 1.29.23 2.535.66 3.683 -.62.9-1.08 2.16-1.28 3.61 .63-.77 1.42-1.31 2.292-1.6 .36.55.78 1.096 1.23 1.57 .46-.5.87-1.02 1.23-1.59 .87.27 1.65.82 2.29 1.57 -.2-1.46-.66-2.72-1.28-3.615 .42-1.16.66-2.385.66-3.69l0 .03Zm-2.92 10.02c-5.523 0-10-4.477-10-10s4.477-10 10-10 10 4.477 10 10 -4.477 10-10 10Zm0-22c-6.627 0-12 5.373-12 12 0 6.62 5.373 12 12 12 6.62 0 12-5.38 12-12 0-6.63-5.38-12-12-12Z"/></svg>