<svg viewBox="0 0 24 24" xmlns="http://www.w3.org/2000/svg"><path d="M4.928 1.82c-1.09.55-1.09.64-.07 1.78 5.65 6.29 7 7.78 7.107 7.78 .13.01 7.971-8.542 8.058-8.801 .03-.07-.21-.32-.52-.54 -.42-.32-.87-.44-1.72-.47 -1.59-.11-2.144.242-4.12 2.45 -.9 1-1.66 1.83-1.66 1.83 -.02 0-.76-.82-1.65-1.798 -.89-.99-1.91-1.98-2.25-2.17 -.8-.45-2.43-.49-3.2-.09ZM1.28 4.362c-.85.32-1.3.64-1.3.88 0 .12 1.331 1.67 2.94 3.45 1.62 1.78 2.93 3.26 2.93 3.3 0 .03-1.34 1.52-2.94 3.3 -1.63 1.79-2.93 3.37-2.91 3.51 .08.46 1.5 1.05 2.541 1.05 1.67-.02 2.05-.32 5.603-4.21 1.78-1.96 3.23-3.62 3.23-3.67 0-.07-1.44-1.7-3.199-3.63C5.88 5.83 4.76 4.7 4.22 4.46c-.82-.4-2.126-.47-2.96-.14Zm18.467.12c-.51.26-1.77 1.5-3.95 3.891 -1.763 1.93-3.199 3.56-3.199 3.63 0 .07 1.45 1.71 3.234 3.66 3.54 3.89 3.92 4.18 5.6 4.2 1.03 0 2.45-.59 2.54-1.06 .01-.16-1.28-1.72-2.91-3.5 -1.61-1.78-2.94-3.285-2.94-3.32 0-.04 1.33-1.54 2.94-3.32 1.625-1.78 2.92-3.34 2.9-3.48 -.09-.45-1.37-.968-2.48-1.04 -.8-.04-1.21.03-1.77.31ZM7.94 16.968c-2.15 2.36-3.91 4.37-3.95 4.46 -.04.07.2.31.52.53 .41.31.86.43 1.71.46 1.57.1 2.16-.26 4.15-2.51 .86-.97 1.6-1.78 1.625-1.78 .01 0 .76.81 1.64 1.79 2.02 2.24 2.55 2.57 4.13 2.49 .84-.04 1.29-.16 1.71-.47 .31-.23.55-.47.51-.54 -.09-.26-7.92-8.82-8.058-8.81 -.07 0-1.87 1.95-4.011 4.34Z"/></svg>