<svg viewBox="0 0 24 24" xmlns="http://www.w3.org/2000/svg"><path d="M12.09 4.63c-2.07 0-3.69.2-4.93.57v0c.03-.03.06-.06.09-.09 .03-.04-.06-.07-.23-.07 -.54-.02-1.87.14-3 .7C2.74 6.33-.1 9.48-.03 9.67c.07.18 1.45 1.34 1.87 1.79 .26.29 1.04 2.95 1.75 2.51 .18-.14.26-.66.33-1.3 .05.49.11 1.01.19 1.48 .11.74 1.08 1.34 1.19 2.05 .13 1.01.76 1.72 1.98 2.17 .48.66 1.23.32 1.8.63 .89.48 1.9.26 2.92.26 1.01 0 1.98.18 2.92-.31 .57-.3 1.32.03 1.8-.59 1.22-.45 1.83-1.17 1.97-2.19 .11-.72 1.04-1.31 1.16-2.06 .06-.38.11-.81.15-1.21 .05.49.13.9.29 1.01 .67.44 1.49-2.22 1.75-2.51 .41-.45 1.79-1.61 1.87-1.8 .07-.19-2.81-3.34-4.09-3.94 -1.13-.57-2.46-.73-3-.71 -.17 0-.25.02-.23.06 -1.18-.31-2.68-.49-4.61-.49Zm.02.5c2.2 0 3.84.22 5.01.61 .13.04.23.09.35.14 .69.71 1.62 1.83 2.01 3.11 .02.08.04.16.06.24 0 0-.01 0 0 0v0c.04.77.31 1.41.23 1.99 -.16.99-.23 1.97-.38 2.84l-.01 0v0c-.03.19-.22.47-.48.8 -.27.33-.6.7-.69 1.24v0l-.01 0c-.11.73-.43 1.19-1.17 1.58 .12-.45.2-1.06.2-1.97 .03-1.13.07-1.58-.86-2.7 -.72-.93-1.71-1.58-2.8-1.9 -.12-.39-.73-.84-1.56-.84 -.83 0-1.42.42-1.54.82 -1.11.31-2.12.97-2.85 1.91 -.94 1.12-.86 1.6-.86 2.69 0 .9.07 1.51.2 1.96 -.77-.39-1.11-.86-1.21-1.59v-.01c-.09-.56-.44-.93-.71-1.26 -.27-.34-.47-.62-.5-.81l-.01-.01v-.01c-.15-.87-.22-1.85-.38-2.84v-.01c-.09-.58.18-1.23.22-2v.01c.01-.15.01-.25.02-.38 .36-1.16 1.15-2.18 1.8-2.88l0 0c.23-.12.47-.21.72-.29 1.19-.4 2.85-.62 5.06-.62ZM6.9 8.93h0c-.91 0-1.64.74-1.64 1.64v0c0 .9.73 1.64 1.64 1.64 0-.01 0-.01 0-.01h0c.14-.01.29-.03.44-.07 .34-.38.71-.73 1.11-1.05v0c.06-.18.09-.36.09-.55v0c0-.91-.74-1.65-1.65-1.65 -.01-.01-.01-.01-.01-.01h0c-.01-.01-.01-.01-.02 0Zm10.29 0v0c-.91 0-1.64.74-1.64 1.64v0c0 .23.05.46.15.68 .31.26.61.54.89.84v0c.19.07.39.11.6.11v0c.9-.01 1.64-.74 1.64-1.65v0c0-.91-.74-1.65-1.65-1.65 -.01-.01-.01-.01-.01-.01v0c-.01-.01-.01-.01-.02 0Zm-9.88.48v-.001c.22 0 .41.18.41.41v0c0 .22-.19.41-.42.41l0 0c-.23 0-.42-.19-.42-.42 -.01-.01-.01-.01-.01-.01v0c-.01-.23.18-.42.41-.42 0-.01 0-.01 0 0Zm9.471 0v0c.22-.01.41.18.41.41 0 0 0 0 0 0v0c0 .22-.19.41-.42.41 -.01 0-.01 0-.01 0v0c-.23 0-.42-.19-.42-.42 -.01-.01-.01-.01-.01-.01v0c-.01-.23.18-.42.41-.42 0-.01 0-.01 0 0Zm-5.11 1.48l0-.001c.01-.01.02 0 .02 0v0c.07.02.1.17.05.33v0c-.05.15-.16.26-.24.24 -.01-.01-.01-.01-.01-.01v0c-.08-.03-.11-.18-.06-.33v0c.04-.14.12-.24.2-.25Zm.67.02v-.001c.07-.01.16.1.2.25v0c.04.16.01.3-.07.32 -.01 0-.01 0-.01 0v0c-.08.02-.18-.1-.23-.26 -.01-.01-.01-.01-.01-.01V11.2c-.05-.17-.02-.31.06-.33 0-.01 0-.01 0-.01l0 0c0-.01.01-.01.01-.01Zm-.32.47s.03.22.18.3c.14.07.86-.16.86-.16 -.34.26-.98.26-.98.33v.37c0 .4.02 1.46-.04 1.68 .82 0 2.09 1.12 2.09 2.5v.07c-.04-1.35-1.61-2.44-2.1-2.44s-2.07 1.04-2.1 2.43v-.08c0-1.37 1.23-2.47 2.05-2.51 -.08-.56-.08-1.14-.08-1.69v-.38c-.22-.1-.44-.18-.66-.24 .18.03.37.04.54.04 .14-.08.18-.31.18-.31Zm-3.05 1.34v0c0-.01 0-.01 0 0v0c.08-.01.15.06.15.14 0 0 0 0 0 0v0c0 .08-.07.15-.15.15 -.01 0-.01 0-.01 0v0c-.09 0-.16-.07-.16-.15 -.01-.01-.01-.01 0-.01v0c-.01-.09.06-.15.14-.16Zm1.12 0v0c0-.01 0-.01 0 0v0c.08-.01.15.06.15.14 0 0 0 0 0 0v0c0 .08-.07.15-.15.15 -.01 0-.01 0-.01 0v0c-.09 0-.16-.07-.16-.15 -.01-.01-.01-.01 0-.01v0c-.01-.09.06-.15.14-.16Zm3.67 0v0c0-.01 0-.01 0 0v0c.08-.01.15.06.15.14 0 0 0 0 0 0v0c0 .08-.07.15-.15.15 -.01 0-.01 0-.01 0h0c-.09 0-.16-.07-.16-.15 -.01-.01-.01-.01 0-.01v0c-.01-.09.06-.15.14-.16Zm1.12 0v0c0-.01 0-.01 0 0v0c.08-.01.15.06.15.14 0 0 0 0 0 0v0c0 .08-.07.15-.15.15 -.01 0-.01 0-.01 0v0c-.09 0-.16-.07-.16-.15 -.01-.01-.01-.01 0-.01v0c-.01-.09.06-.15.14-.16Zm-5.66.89v0c0-.01 0-.01 0 0v0c.08 0 .14.06.14.15v-.001c0 .08-.07.14-.15.15v0c-.09 0-.16-.07-.16-.15 -.01-.01-.01-.01 0-.01v0c-.01-.09.06-.15.14-.16Zm5.39 0v0c0-.01 0-.01 0 0v0c.08-.01.15.06.15.14 0 0 0 0-.01 0v0c0 .08-.07.15-.15.15 -.01 0-.01 0-.01 0h0c-.09-.01-.15-.07-.15-.16h0c-.01-.09.06-.15.14-.16Z"/></svg>