<svg viewBox="0 0 24 24" xmlns="http://www.w3.org/2000/svg"><path d="M11.997 0c-1.78 0-3.21.83-3.21 1.856 0 1.02 1.436 1.856 3.2 1.856 1.77 0 3.208-.831 3.208-1.856C15.19.83 13.75 0 11.98 0ZM5.95 3.488c-1.78 0-3.208.83-3.208 1.85s1.436 1.85 3.208 1.85c1.771 0 3.207-.84 3.207-1.86 0-1.03-1.436-1.86-3.21-1.86Zm12.1 0c-1.78 0-3.21.83-3.21 1.85s1.43 1.85 3.2 1.85c1.77 0 3.2-.84 3.2-1.86 0-1.03-1.436-1.86-3.21-1.86Zm-6.06 3.49c-1.78 0-3.21.83-3.21 1.85s1.436 1.85 3.2 1.85c1.77 0 3.208-.83 3.208-1.86 0-1.03-1.436-1.86-3.208-1.86Zm-10.13.67h0c-.2 0-.39.05-.55.15 -.888.51-.89 2.17-.01 3.7 .88 1.53 2.324 2.362 3.211 1.85 .88-.52.89-2.18 0-3.71 -.72-1.25-1.803-2.027-2.66-2Zm20.257 0c-.86-.03-1.95.75-2.67 2 -.89 1.53-.89 3.19 0 3.7 .88.51 2.32-.32 3.21-1.85 .88-1.54.88-3.2-.01-3.71h0c-.17-.1-.36-.15-.55-.15Zm-6.05 3.492c-.86-.03-1.94.75-2.66 2 -.89 1.53-.89 3.19 0 3.7 .88.51 2.32-.32 3.21-1.85 .88-1.54.88-3.2-.01-3.71v0c-.17-.1-.36-.15-.55-.15Zm-8.16 0v0c-.2 0-.39.05-.55.15 -.89.51-.89 2.17-.01 3.7 .88 1.53 2.324 2.36 3.21 1.85 .88-.52.89-2.18 0-3.705 -.72-1.25-1.81-2.03-2.66-2.01ZM1.86 14.63h0c-.2 0-.39.05-.55.15 -.888.51-.89 2.17-.01 3.7 .88 1.53 2.324 2.36 3.212 1.85 .88-.52.88-2.18 0-3.71 -.72-1.25-1.81-2.03-2.661-2.01Zm20.25 0c-.86-.03-1.95.75-2.66 2 -.89 1.53-.89 3.19 0 3.7 .88.51 2.32-.32 3.21-1.85 .88-1.54.88-3.2-.01-3.71v0c-.17-.1-.36-.15-.55-.15Zm-6.05 3.49c-.86-.03-1.95.75-2.67 2 -.89 1.53-.89 3.19 0 3.7 .88.51 2.32-.32 3.21-1.85 .88-1.54.88-3.2-.01-3.71v0c-.17-.1-.36-.15-.55-.16Zm-8.163 0v0c-.2 0-.39.05-.55.15 -.89.51-.89 2.17-.01 3.7 .88 1.53 2.32 2.36 3.21 1.85 .88-.52.89-2.18 0-3.71 -.72-1.25-1.81-2.03-2.662-2Z"/></svg>