<svg viewBox="0 0 24 24" xmlns="http://www.w3.org/2000/svg"><path d="M17.89 17.86h.39v.17h.02 -.001c.13-.21.4-.28.61-.16l-.11.37v0c-.06-.04-.12-.05-.19-.05v0c-.1-.01-.19.03-.25.11l-.001 0c-.06.08-.09.18-.09.29v.63h-.43Zm-.26 1.04v0c-.07.11-.16.21-.27.28v0c-.13.07-.26.1-.4.1v-.001c-.11 0-.21-.02-.3-.06v0c-.09-.04-.17-.09-.24-.16h-.001c-.15-.14-.23-.34-.22-.53 0-.1.01-.2.05-.29h-.001c.03-.09.08-.17.15-.24v0c.13-.15.32-.23.52-.22v0c.1-.01.2.01.3.05v0c.16.07.29.21.35.38v0c.04.12.05.26.03.4h-1.02c.02.09.06.15.12.19v0c.06.04.13.06.21.06v0c.13 0 .25-.07.32-.18Zm-.38-.54v0c-.01-.03-.02-.06-.03-.08v-.001c-.02-.03-.04-.06-.06-.07l-.001 0c-.03-.03-.06-.05-.1-.06v0c-.17-.07-.36.01-.43.17 -.01 0-.01.01-.01.01ZM16 18.9v0c-.07.11-.16.21-.27.28v0c-.13.07-.26.1-.4.1l0-.001c-.11 0-.21-.02-.3-.06h-.001c-.09-.04-.17-.09-.24-.16h-.001c-.15-.14-.23-.34-.22-.53 0-.1.01-.2.05-.29v0c.03-.09.08-.17.15-.24h0c.13-.15.32-.23.52-.22 .11 0 .21.01.3.05v0c.16.07.29.21.35.38h0c.04.12.05.26.03.4h-1.02c.02.09.06.15.12.19v0c.06.04.13.06.21.06v0c.13 0 .25-.07.32-.18Zm-.38-.54h-.001c-.01-.03-.02-.06-.03-.08h-.001c-.02-.03-.04-.06-.06-.07v0c-.03-.03-.06-.05-.1-.06h0c-.17-.07-.36.01-.43.17 -.01 0-.01.01-.01.01Zm-1.92-.15l-.25-.01 0-.39 .25.01 -.01-.41 .41 0 -.02.39 .36.02 -.02.35 -.37 0 .01.47c-.02.09.02.14.02.19 .08.1.13.06.13.06 .02-.01.16-.03.17-.04l.04.38c-.14.08-.38.03-.38.03 -.26-.04-.39-.22-.39-.3 -.03-.07-.02-.21-.03-.29Zm-.42.71c-.04.12-.18.21-.29.28v0c-.13.07-.27.11-.41.11v-.001c-.12-.01-.22-.04-.32-.08 -.09-.04-.17-.12-.24-.18 -.07-.07-.1-.15-.14-.23h-.001c-.04-.1-.06-.21-.05-.31 -.02-.2.12-.38.21-.51 .28-.24.49-.22.49-.22 .38-.08.69.28.718.43 .03.08.02.18.02.28 -.01.05 0 .05-.04.125h-1.04c.02.09.06.19.1.24 .04.06.12.06.2.06 .07 0 .16 0 .21-.04 .05-.04.17-.08.2-.125Zm-.37-.56v0c-.01-.04-.03-.07-.04-.1 -.02-.03-.05-.05-.08-.07 -.03-.03-.08-.04-.11-.05h-.001c-.04-.02-.08-.03-.13-.03v0c-.07-.01-.12.01-.17.05 -.06.03-.1.12-.13.19Zm-2.34-.38h.02v-.001c.03-.06.08-.11.14-.14h-.001c.07-.05.16-.07.25-.06v0c.17-.01.34.07.46.2h0c.06.06.11.14.14.23 .03.09.05.19.05.3v0c0 .1-.02.2-.06.3l-.001-.001c-.04.08-.09.16-.15.23v0c-.13.12-.3.2-.47.2v0c-.09 0-.18-.02-.26-.06v0c-.07-.04-.12-.09-.15-.15h-.03l.02.19v.56h-.43v-2h.39Zm.33.19h-.001c-.14 0-.26.07-.31.2v0c-.02.04-.03.09-.03.14 0 .05 0 .1.02.14h0c.01.03.04.07.07.1 .03.02.06.05.1.06v0c.08.03.17.03.25-.001v0c.03-.02.07-.04.1-.07v0c.03-.04.05-.07.07-.11h-.001c.01-.05.02-.1.02-.15v0c0-.19-.15-.34-.34-.35 -.01-.01-.01-.01-.01-.01Zm-2.026-.2h.03v0c.03-.06.08-.11.14-.14v0c.07-.05.16-.07.25-.06v0c.17-.01.34.07.46.2v0c.06.06.11.14.14.23 .03.09.05.19.05.3H9.94c0 .1-.02.2-.06.3v0c-.04.08-.09.16-.15.23v0c-.13.12-.29.2-.47.2h0c-.09 0-.18-.02-.26-.06h0c-.07-.04-.12-.09-.15-.15h-.03l.03.19v.56h-.43v-2h.39Zm.33.19v0c-.14 0-.26.07-.31.2v0c-.02.04-.03.09-.03.14 0 .05.01.1.02.14h0c.01.03.04.07.07.1 .03.02.06.05.1.06v0c.08.03.17.03.25 0v0c.03-.02.07-.04.1-.07h-.001c.03-.03.05-.07.07-.11H9.47c.01-.05.02-.1.02-.15v0c0-.14-.09-.27-.21-.32h-.001c-.04-.02-.09-.03-.13-.03Zm-1.44.86h-.03 -.001c-.1.14-.26.22-.43.22 -.18 0-.31-.06-.39-.17h0c-.1-.13-.14-.29-.13-.44v-.83h.42v.77c0 .07.01.13.05.18 .03.04.09.07.16.07h0c.08 0 .16-.04.21-.11v0c.05-.09.08-.19.07-.29v-.64h.42v1.38h-.4Zm-2.6.17v-2.03h.72v0c.09-.01.19.01.28.04v0c.08.02.16.07.23.13h0c.06.05.11.12.15.2h0c.03.08.05.17.05.27v0c0 .09-.02.18-.06.26h0c-.08.16-.21.28-.38.34h0c-.1.03-.19.04-.29.04h-.29v.7Zm.73-1.125c.09 0 .16-.03.2-.07H6.09c.04-.05.06-.11.06-.18v0c0-.07-.03-.13-.07-.18 -.05-.05-.12-.07-.21-.07h-.3v.48ZM17.98 2.69l-.6.05 .23 2.93 .62.36ZM5.96 2.7l-.3 3.24 .62-.3 .266-2.89ZM5.47 7.88l-.05.55 -1.25 3.13c-.22.22-.31.51-.31.82l-.01 10.37c0 .66.49 1.16 1.15 1.16H18.73c.67 0 1.25-.45 1.25-1.11V12.4c0-.31-.1-.56-.29-.78l-1.35-3.97 -.01-.07 -.58.25 .26 3.33H5.73l.23-2.615 .22-.59 -.17-.07 0-.03Zm13.11 2.34l.32.98c-.09-.02-.16-.01-.25-.01Zm-13.316.23l-.09.74c-.06-.01-.12 0-.18 0Zm-.18 1.13l13.67 0c.47 0 .85.34.85.81v.79H4.24v-.8c0-.47.36-.83.83-.83Zm.13.55h0c-.15-.01-.28.11-.28.26 -.01 0-.01 0-.01 0 0 .36.54.36.54 0v0c0-.15-.13-.27-.27-.27Zm.92 0c-.36 0-.36.54 0 .54s.36-.54 0-.54Zm.89 0c-.39-.04-.39.57 0 .53 .33-.03.33-.51 0-.54Zm-2.79 1.42h15.36v9.15c0 .59-.38.84-.86.84L5.07 23.53v0c-.46 0-.84-.36-.85-.82 -.01-.01-.01-.02 0-.03Zm1.883 4.42c.07-.12.07-.11.06-.19 -.01-.08-.01-.08-.06-.14 -.06-.06-.13-.14-.2-.14h-.39l-.02.55h.4c.12-.01.16-.09.18-.1Zm-.19-.83v0c.16-.01.32.05.44.17 .11.11.16.27.16.46v0c0 .16-.05.33-.16.46 -.12.12-.27.21-.43.2l-.4 0 -.01.77 -.42-.02 -.01-2.09Zm1.79 1.26l-.02-.63 .36-.01 0 1.43 -.36 0v-.13 0c-.12.1-.28.16-.44.15v0c-.16 0-.31-.05-.42-.16 -.11-.11-.13-.31-.13-.46l-.01-.85h.37l-.01.77v0c-.01.08.02.16.07.23h0c.04.05.12.09.19.09 .22 0 .33-.16.33-.47Zm1.8.07v0c0-.11-.04-.21-.11-.28 -.07-.08-.12-.12-.22-.12s-.19.01-.266.09h0c-.08.07-.13.18-.12.29 0 .12.03.21.11.29 .07.07.16.11.27.11 .1 0 .16-.06.23-.13 .08-.1.06-.21.08-.28Zm-.27-.76c.17 0 .33.11.46.24v0c.13.13.2.32.19.51v0c0 .19-.07.37-.2.51 -.1.16-.31.25-.49.25 -.16 0-.36-.07-.43-.2l0 .76 -.4 0 -.02-2.04 .41-.02v.15c.12-.11.28-.2.44-.2Zm2 .76c-.02-.16-.05-.21-.12-.29 -.08-.08-.12-.09-.22-.09s-.18-.01-.26.07h-.001c-.08.07-.13.18-.12.29 0 .12.03.21.11.29 .07.07.16.11.27.11 .1 0 .15-.07.22-.14 .07-.08.08-.18.09-.27Zm-.32-.75c.17 0 .38.09.52.23v-.001c.13.13.2.32.19.51v0c0 .19-.07.37-.2.51 -.11.15-.35.25-.53.25v0c-.16 0-.31-.08-.4-.2v.75l-.41.01 -.03-2.04h.42v.13c.12-.11.23-.19.39-.18Zm1.26.57l.63-.01c-.02-.08-.07-.12-.13-.17v-.001c-.13-.09-.29-.09-.41 0 -.09.06-.06.05-.11.17Zm.31-.58c.17-.01.42.07.55.2 .13.13.15.3.16.51l-.04.125h-1.03c.02.09.04.18.1.24 .05.05.15.07.23.07v0c.14 0 .28-.06.38-.17l.31.14c-.05.14-.19.22-.31.29h0c-.13.06-.27.1-.41.09 -.19 0-.38-.12-.51-.25h-.001c-.14-.15-.21-.33-.2-.53 0-.21.09-.39.23-.52 .13-.14.31-.24.49-.23Zm1.673 1.12c.08-.01.11 0 .17-.04l.04.38c-.11.06-.14.03-.26.04h0c-.16 0-.31-.06-.42-.16 -.1-.09-.1-.26-.1-.45l-.02-.52 -.25-.01 0-.39 .25.01 -.01-.41 .41 0 -.02.39 .36.02 -.02.35 -.37 0 0 .5c0 .15.04.22.17.22Zm.75-.54h.65v0c-.02-.08-.06-.15-.12-.19h0c-.13-.09-.29-.09-.41 0V18.1c-.07.04-.11.1-.13.18Zm.33-.59c.18 0 .36.09.5.22 .13.13.17.29.18.5v.12H14.9h0c.01.08.05.16.12.22v0c.05.05.13.08.21.08 .15 0 .29-.06.36-.18l.3.15c-.05.13-.12.19-.24.26h-.001c-.14.07-.3.12-.46.125V19.2c-.2-.01-.38-.09-.51-.23v0c-.14-.15-.22-.35-.21-.55 0-.21.1-.39.24-.52 .13-.14.31-.24.5-.23Zm1.27.58h.65 0c-.02-.08-.06-.15-.12-.19v0c-.13-.09-.29-.09-.41 0v0c-.07.04-.11.1-.13.18Zm.33-.59v0c.18 0 .36.08.5.22 .13.13.17.29.18.5v.12h-1.03 0c.01.08.05.16.12.22v0c.05.05.13.08.21.08 .15 0 .29-.06.36-.18l.3.15c-.05.13-.12.19-.24.26v0c-.14.07-.3.12-.46.125v-.001c-.19-.01-.37-.09-.5-.23v-.001c-.14-.15-.22-.35-.21-.55 0-.21.1-.39.24-.52 .13-.14.31-.24.5-.23Zm1.93.04l-.07.36 -.18-.03c-.33 0-.36.2-.36.59v.49l-.4 0 0-1.43h.36l-.01.22c.14-.17.21-.29.63-.22Zm-1.39-9.95l.02-.37 1.31-.69 0 .39ZM4.89 6.71l1.35.68 -.01.39 -1.314-.65Zm7.21-1.75l4.83 2.44v.39l-4.86-2.46ZM6.72 7.38l4.89-2.42 -.01.37L6.71 7.78Zm3.46-3.98L5.25.96 6.47.35l5.35 2.74L17.16.31l1.25.65 -4.926 2.47c-.2.09-.13.38.06.48l4.83 2.42 -1.22.62L11.8 4.25l-5.38 2.7 -1.28-.64 4.99-2.49v0c.13-.07.18-.23.11-.36 -.03-.06-.07-.1-.13-.12ZM4.89 1.75l0-.38 4.6 2.276 -.35.2Zm9.64 2.077l-.41-.19L18.72 1.34l-.03.41Zm.42.3l4.12-2.07V2.06c.04-.03.06-.07.07-.11V.97c0-.05-.01-.14-.05-.16l-1.94-.94v0c-.04-.02-.08-.02-.12-.001l-5.17 2.623v0c-.04.01-.08.01-.11-.001L6.48-.14h0c-.04-.02-.08-.02-.11 0L4.41.78c-.04.02-.02.11-.02.15v.99c0 .04.02.09.07.11l4.14 2.04 -4.12 1.99c-.04.02-.11.06-.11.1l.01 1.03v0c-.01.04.02.09.06.11l1.93.98c.03.01.12.03.15.01l5.186-2.61h-.001c.03-.02.07-.02.11-.001l5.12 2.6v0c.03.01.07.01.11 0l1.97-.96c.04-.02.1-.05.1-.1l-.01-1.04c0-.05-.05-.15-.09-.17Z"/></svg>