<svg viewBox="0 0 24 24" xmlns="http://www.w3.org/2000/svg"><path d="M12.005 0L4.94 7.053l0-.001c-3.88 3.83-3.91 10.07-.08 13.95 .02.02.04.04.07.07l-.001-.001c3.83 3.87 10.08 3.9 13.95.06 .02-.03.04-.05.06-.07 3.98-3.9 3.98-10.205.08-14.023l-1.75 1.74c2.904 2.9 2.904 7.63 0 10.53 -2.904 2.904-7.634 2.904-10.54 0 -2.91-2.904-2.91-7.634 0-10.54L11.38 4.12l.58-.665Zm3.56 3.89V3.88c-.74 0-1.33.59-1.33 1.327h-.001c-.01.73.59 1.32 1.32 1.32 0 0 0 0 0 0h0c.73 0 1.32-.6 1.32-1.33 0-.01-.01-.01-.01-.01v0c-.01-.74-.6-1.33-1.33-1.33Z"/></svg>