<svg viewBox="0 0 24 24" xmlns="http://www.w3.org/2000/svg"><path d="M0 3.47l.21.57c1.92 5.006 5.566 2.689 10.41 7.13l.05.05c.65.59 1.1.04.88-.31v0c-.13-.16-.18-.35-.17-.532v0c.95.25 1.84.72 2.606 1.36l-.06.12c-.37.73-3.96.42-4 1.94v0c-.02.4.23.77.6.92l.71.28 -.001-.001c2.3.93 4.37 2.34 6.086 4.14v0c.03.03.03.08 0 .12 -.02.01-.04.02-.07.02v0c-.02 0-.04-.01-.06-.02l0 0c-2.37-1.9-5.18-3.15-8.18-3.61v0c-.21-.04-.37-.21-.39-.41C8.07 10.14 3.04 9.79 1.12 6.53L6.44 20.47h17.49L9.9 6.38V6.38C8.03 4.49 5.5 3.42 2.85 3.4Z"/></svg>