<svg viewBox="0 0 24 24" xmlns="http://www.w3.org/2000/svg"><path d="M12.87 13.006v3.65L9.86 13.6v-3.5h3.58l2.85 2.89h-3.43Zm10.886 7.6v3.38h-3.654l-5.73-5.9v-3.55h3.35l6.03 6.06Zm-10.828-1.45l3.372 3.37c-1.31.44-2.56.72-4.33.72 -6.85-.01-11.99-5.02-11.99-11.7C-.02 4.89 5.11-.03 11.964-.03c6.88 0 12.016 4.952 12.016 11.56 0 2.12-.53 4.07-1.46 5.759l-3.625-3.73v0c.16-.66.24-1.33.24-2.01 0-4.291-3.15-7.53-7.1-7.53 -3.96 0-7.248 3.23-7.248 7.52 0 4.291 3.33 7.6 7.24 7.6 .548 0 .66.01.88-.03Z"/></svg>