<svg viewBox="0 0 24 24" xmlns="http://www.w3.org/2000/svg"><path d="M16.57 0c-.85 0-1.53.68-1.53 1.52s.68 1.52 1.52 1.52 1.52-.69 1.52-1.525c0-.85-.69-1.53-1.53-1.53Zm-4.64 2.85c-1.72.01-3.43.59-4.84 1.78 -3.23 2.7-3.65 7.51-.94 10.74 1.46 1.74 3.53 2.66 5.64 2.72 .29 0 .29.29.29.29v2.65s0 2.76 2.65 2.95c.29.01.29-.3.29-.3V3.76c0-.001 0-.3-.3-.42v0c-.9-.35-1.86-.53-2.82-.52Zm4.74 1.66c-.11-.01-.11.17-.11.38v11.14c0 .29 0 .52.29.29 .01-.01.02-.02.03-.03 3.22-2.71 3.64-7.52.94-10.75V5.53c-.3-.36-.62-.68-.98-.97 -.09-.07-.15-.1-.19-.1Zm-4.76 1.38c.16 0 .16.16.16.16v8.81s0 .16-.17.16c-1.29-.02-2.55-.58-3.44-1.64 -1.63-1.936-1.38-4.83.56-6.45 .83-.71 1.85-1.06 2.87-1.069Z"/></svg>