<svg viewBox="0 0 24 24" xmlns="http://www.w3.org/2000/svg"><path d="M11.96 0v0C7.75 0 3.85 2.22 1.68 5.84c-2.22 3.71-2.27 8.32-.13 12.08 2.02 3.55 5.72 5.82 9.78 6.03v0c.45.04.91.04 1.36-.01 3.94-.24 7.53-2.41 9.572-5.83v0c1.07-1.81 1.66-3.87 1.69-5.98v0c0-.05 0-.09 0-.13v-.04 0c-.01-.04-.01-.08-.01-.12h0c-.02-1.95-.51-3.85-1.42-5.56 -2.04-3.82-5.98-6.24-10.3-6.34 -.08-.01-.16-.01-.24-.01 -.03-.01-.06-.01-.08-.01Zm0 .83c1.22 0 2.06.27 2.06.51 0 .23-.86.54-2.06.54 -1.2 0-2.1-.3-2.1-.54 0-.24.82-.52 1.99-.529 .02-.01.05-.01.08-.01Zm2.87.368v0c1.88.49 3.6 1.47 4.99 2.83 -1.97-.76-4.83-1.18-7.61-1.2 -1.35 0-2.71.08-3.98.25 -.28-.34-.76-.52-1.25-.28 -.27.13-.44.33-.52.57 -.87.18-1.66.4-2.34.66v0c1.36-1.35 3.06-2.33 4.91-2.83 -.01.04-.01.09-.01.13 0 1.23 2.02 1.33 2.91 1.33 .89 0 2.87-.12 2.87-1.336 0-.06-.01-.12-.02-.17Zm-2.61 2.44c4.78.05 8.3 1.15 9.12 2.24 .02.03.04.07.07.11 .07.12.1.24.1.36 0 .82-1.74 1.7-4.45 2.23 -1.54-.23-3.19-.35-4.81-.37 -.6 0-1.2.01-1.79.04L8.21 4.35c.13-.17.2-.35.23-.53 1.14-.15 2.4-.23 3.74-.23Zm-5.7.55c.15.33.48.58.94.57 .04 0 .09 0 .13 0l2.06 3.55c-.96.06-1.9.15-2.79.29 -2.75-.53-4.44-1.43-4.44-2.25 0-.1.02-.2.07-.3 .04-.08.1-.16.15-.24 .51-.62 1.9-1.23 3.85-1.65Zm15.54 2.97V7.15c.5 1.05.84 2.18.99 3.35 -.88-.67-2.32-1.21-4.05-1.59 1.46-.45 2.56-1.05 3.04-1.77Zm-20.17.03c.48.72 1.59 1.32 3.04 1.76 -1.73.38-3.16.91-4.03 1.57 .06-.5.16-1 .29-1.49 .17-.65.4-1.26.68-1.85Zm10.35 1.81c.29 0 .58.01.86.01 -.45.01-.9.03-1.37.03l0 0c-.28-.01-.56-.02-.83-.03l-.01-.01h0c.44-.02.88-.03 1.32-.03Zm4.91.38c3.64.55 5.95 1.61 5.99 2.58 0 .01-.01.03-.01.04 -.06.96-2.39 1.99-5.95 2.55 -1.05-.21-2.18-.35-3.34-.42l-1.54-2.64 -.95-1.64c.1 0 .21 0 .32 0 1.87 0 3.77-.18 5.43-.5Zm-10.38.01c1.17.22 2.46.375 3.76.43l1.15 1.99 1.31 2.26v0c-.28-.02-.55-.02-.82-.03 -1.9 0-3.82.17-5.49.49 -3.47-.54-5.7-1.54-5.92-2.46l-.001 0c-.01-.09-.01-.18-.01-.27 .21-.94 2.522-1.92 5.97-2.46Zm16.26 4.07v0c-.16 1.14-.49 2.25-.98 3.29 -.47-.73-1.54-1.31-2.94-1.74 1.67-.39 3.064-.92 3.91-1.56Zm-22.15.01c.85.65 2.23 1.17 3.89 1.55 -1.39.43-2.45 1-2.921 1.7l-.001-.001c-.49-1.03-.82-2.13-.97-3.26Zm11.29 1.36c.44 0 .86.02 1.28.04l0 .01 -.001 0c-.6.02-1.2.04-1.79.04v0c-.48-.01-.96-.02-1.44-.05l-.001-.001c.64-.05 1.28-.07 1.93-.07Zm5.09.52c2.61.53 4.21 1.4 4.23 2.21 0 .11-.04.23-.11.35 -.02.01-.03.03-.04.05 -.41.61-1.7 1.22-3.57 1.65 -.18-.25-.46-.42-.83-.42h0c-.06-.01-.11-.01-.16 0l-2.08-3.57c.86-.07 1.71-.17 2.52-.3Zm-10.67.01c1.6.24 3.34.38 5.05.4 .75 0 1.51-.03 2.27-.07l2.23 3.88h-.001c-.1.11-.17.24-.21.38 -1.28.18-2.71.29-4.26.29 -4.71-.06-8.18-1.1-9.09-2.18l0 0c-.07-.1-.13-.2-.19-.3 -.04-.09-.05-.17-.06-.25 .01-.8 1.63-1.67 4.21-2.21Zm13.26 4.46c-.07.06-.13.12-.19.18v0c-1.33 1.27-2.95 2.19-4.73 2.68 .05-.12.07-.25.07-.375 0-.56-.49-1.04-1.26-1.33l-.001-.001c.76-.06 1.53-.14 2.29-.25 .24.41.77.66 1.31.4 .35-.17.53-.46.57-.77 .69-.17 1.32-.36 1.88-.58Zm-15.79.04c1.59.61 3.76.99 6 1.13 -.75.28-1.22.74-1.22 1.29v.01c0 .12.03.25.08.37v0c-1.84-.52-3.52-1.49-4.87-2.83Zm7.87 1.596c1.38 0 2.26.49 2.27.85 .01.25-.46.57-1.23.73v0c-.74.06-1.47.06-2.2-.01 -.72-.18-1.14-.5-1.14-.73 0-.35.89-.86 2.27-.86Z"/></svg>