<svg viewBox="0 0 24 24" xmlns="http://www.w3.org/2000/svg"><path d="M21.693 3.16H3.32L-.01 6.48v14.34h20.67l3.32-3.33V3.14Zm-8.91 15.238l-1.57.72 -1.35-2.22c-.2.05-.5.09-.93.09 -1.58 0-2.683-.43-3.31-1.28 -.63-.85-.94-2.2-.94-4.04 0-1.84.31-3.21.94-4.1 .63-.9 1.726-1.35 3.28-1.35 1.56 0 2.65.44 3.28 1.33 .63.88.94 2.25.94 4.09 0 1.21-.13 2.2-.39 2.94 -.27.75-.68 1.32-1.27 1.718Zm4.73-1.59c-.86 0-1.45-.2-1.766-.59 -.32-.4-.49-1.14-.49-2.24v-3.54h-1.17V9.02h1.16V6.81h1.64v2.2h2.09v1.41h-2.1v3.346c0 .62.05 1.03.14 1.22 .09.2.32.3.69.3l1.24-.05 .07 1.32c-.67.13-1.186.19-1.55.19Zm-8.58-9.08c-.95 0-1.604.31-1.963.94 -.36.63-.532 1.62-.532 3.01 0 1.37.17 2.36.51 2.95 .34.58 1 .89 1.98.89 .97 0 1.62-.3 1.971-.88 .33-.58.5-1.57.5-2.96s-.18-2.4-.53-3.026c-.36-.63-1.01-.94-1.955-.94Z"/></svg>