<svg viewBox="0 0 24 24" xmlns="http://www.w3.org/2000/svg"><path d="M11.99 0C5.42 0 2.12 3.51 2.12 3.51s-.38 2.59-.14 7.83c.36 7.9 9.99 12.65 9.99 12.65 0-.01 9.63-4.75 9.99-12.66 .24-5.24-.14-7.84-.14-7.84s-3.3-3.52-9.87-3.52Zm-.68 2.91v0c4.05-.38 7.63 2.6 8.01 6.65 .02.22.03.45.03.67v0c-.01 2.2-1.03 4.28-2.78 5.63 -1.18-.11-2.41-.45-2.97-.77 1.43-.92 3.3-2.71 3.3-4.88v0c-.01-2.73-2.21-4.93-4.94-4.94 -2.72 0-4.93 2.27-4.93 5.06 0 2.33 1.23 4.16 3.67 5.44 1.59.83 3.97 1.44 6.48 1.77 -.42.62-1.54 1.686-2.19 2.04 -3.01-.5-5.66-1.54-7.46-3.1 -1.94-1.67-2.96-3.85-2.96-6.31v0c-.01-3.81 2.89-6.99 6.686-7.34Z"/></svg>