<svg viewBox="0 0 24 24" xmlns="http://www.w3.org/2000/svg"><path d="M3.981 0v0C1.78 0 0 1.78 0 3.981V20.02v-.001c0 2.19 1.78 3.97 3.981 3.98h10.983l-2.97-7.2 -2.15 4.54H3.97c-.72 0-1.33-.61-1.33-1.33V3.96c0-.72.6-1.33 1.327-1.33h16.04c.72 0 1.32.6 1.32 1.327v16.04c0 .72-.61 1.32-1.33 1.32h-3.48l1.09 2.65h2.38v0c2.19-.01 3.97-1.79 3.98-3.99V3.94h0c-.01-2.2-1.79-3.98-3.99-3.98Zm4.324 4.217v3.85l3.34-1.93Zm7.39 0l-3.35 1.92 3.34 1.92Zm-3.7 2.133l-3.7 2.13 3.69 2.13 3.69-2.14Zm-3.9 2.48v4.266l3.69 2.13V10.96Zm7.792 0l-3.7 2.13v4.266l3.69-2.14Zm-8.15.2l-3.34 1.93 3.34 1.92Zm8.5 0v3.85l3.34-1.93ZM8.08 13.5v3.859l3.34-1.93Zm7.792 0l-3.35 1.93 3.34 1.92Z"/></svg>