<svg viewBox="0 0 24 24" xmlns="http://www.w3.org/2000/svg"><path d="M3.28 8.755c-.06 0-.11 0-.17 0 -.1 0-.2.01-.3.02v0c-1.67.2-2.89 1.65-2.82 3.32v0c.06 1.78 1.56 3.17 3.35 3.11l0-.001c.64-.03 1.27-.25 1.79-.63l-.5-.37H4.62c-.06-.05-.14-.05-.19-.01 -.39.22-.82.33-1.3.32 -1.31-.03-2.39-1.09-2.45-2.39h0c-.07-1.39 1.01-2.57 2.4-2.63 .11-.01.22-.01.33 0h0c1.22.11 2.18 1.09 2.27 2.32h0c.03.56-.12 1.12-.43 1.59h-.001c-.06.07-.05.19.03.24l.42.3c.48-.61.73-1.36.7-2.14h-.001c-.07-1.73-1.47-3.09-3.19-3.12Zm2.48 5.25s-.1.12-.29.3c-.19.18-.35.29-.35.29l.55.41h-.001c.06.04.16.04.22 0v0c.13-.12.26-.24.38-.38v0c.06-.08.06-.19-.01-.26 -.01-.01-.02-.02-.03-.02Zm17.586-4.58c-.04 0-.08 0-.11.02v0c-.04 0-.07.02-.1.05v0c-.03.02-.06.05-.07.08 -.01.02-.02.06-.03.1 0 .03 0 .07.01.11v0c.01.03.03.06.06.09 .02.01.05.04.09.05 .03.01.07.01.11.01 .03 0 .07-.01.11-.02v0c.03-.01.07-.03.09-.06 .01-.03.04-.06.05-.1V9.75c.01-.04.01-.08.01-.12v0c-.01-.04-.01-.08-.02-.12l0-.001c-.02-.04-.04-.07-.06-.09V9.42c-.04-.03-.07-.04-.1-.06v0c-.04-.02-.08-.02-.12-.02Zm-2.13.01v1.295h-.28c-.12 0-.2.09-.2.2v.41h.47v2.276c0 1.08.55 1.6 1.48 1.6l-.001-.001c.46 0 .91-.15 1.28-.43l-.22-.36v0c-.06-.09-.16-.12-.25-.07 -.23.12-.49.21-.77.21 -.51 0-.86-.3-.86-.98v-2.27h1.15v0c.09 0 .17-.08.17-.17 0-.01 0-.01 0-.01v-.44h-1.34V9.57v0c0-.1-.09-.18-.18-.18Zm2.12.03c.03 0 .06.01.09.02v0c.02 0 .05.02.07.04v0c.02.02.03.04.04.07 .01.02.02.05.02.09h-.001c-.01.03-.01.06-.02.09v0c-.01.02-.03.05-.05.07v0c-.03.02-.05.03-.08.04H23.4c-.04.01-.07.01-.1.01v0c-.04-.01-.07-.01-.1-.02v0c-.03-.01-.06-.03-.08-.05V9.82c-.03-.03-.04-.05-.05-.08 -.01-.04-.01-.07-.02-.1 0-.04.01-.07.02-.1h-.001c.01-.03.02-.06.04-.08v0c.02-.03.04-.04.07-.05V9.41c.03-.02.06-.02.09-.02Zm-.13.06v.33h.04v-.15h.05l.09.14h.05l-.1-.15v0c.02-.01.04-.02.06-.03V9.66c.01-.02.02-.05.02-.07 0-.04-.01-.06-.03-.08v0c-.03-.02-.06-.02-.09-.02Zm.06.03h.09s.01.01.02.01l.01.01c.01.01.01.01.01.02s0 .02-.01.02c0 .01-.01.01-.02.01 -.01.01-.02.01-.03.01h-.03v-.01h-.06Zm-9.25 1.14c-1.23 0-2.144.92-2.144 2.24 0 1.343.91 2.24 2.19 2.24 .63 0 1.23-.17 1.782-.68l-.26-.33v0c-.06-.08-.17-.09-.24-.03v0c-.36.28-.8.43-1.25.43 -.78 0-1.44-.48-1.54-1.41h3.28v-.001c.1 0 .19-.09.19-.19v-.07c-.01-1.32-.86-2.23-2.03-2.24Zm-6.61.01v0c-.1-.01-.19.07-.19.17 -.01 0-.01 0-.01 0v2.43c0 1.28.91 1.89 1.96 1.89 1.03 0 1.96-.61 1.96-1.9v-2.44 0c0-.1-.08-.18-.17-.18 -.01-.01-.01-.01-.01 0h-.51v2.54c0 .89-.54 1.314-1.28 1.314 -.75 0-1.29-.42-1.29-1.314v-2.55Zm11.032 0c-1.04 0-1.73.49-1.73 1.31 0 .64.45 1.08 1.43 1.2l.51.05c.61.06.9.28.9.62 0 .45-.46.69-1.2.69 -.62 0-1.02-.16-1.34-.36v-.001c-.1-.06-.22-.03-.28.06 -.01 0-.01 0-.01 0l-.21.33c.54.41 1.23.55 1.8.55 1.16 0 1.9-.53 1.9-1.343 0-.72-.54-1.1-1.45-1.21l-.52-.07c-.58-.07-.89-.25-.89-.61 0-.42.4-.68 1.01-.68 .49 0 .96.15 1.26.31 .08.04.19.01.23-.07l.13-.21v0c.04-.09.01-.2-.07-.25v0c-.49-.26-1.02-.39-1.57-.39Zm-4.44.6c.734 0 1.26.52 1.35 1.33H12.56c.1-.79.62-1.34 1.43-1.34Z"/></svg>