<svg viewBox="0 0 24 24" xmlns="http://www.w3.org/2000/svg"><path d="M12 2.74c-6.63 0-12 3.599-12 8.03 0 3.89 4.14 7.144 9.64 7.88v-2.41c-2.93-.92-4.925-2.76-4.925-4.88 0-3.035 4.08-5.494 9.12-5.494 5.038 0 8.75 1.68 8.75 5.494 0 1.97-1 3.37-2.67 4.272 .09.06.17.12.25.21 .16.14.25.36.37.54 2.128-1.45 3.44-3.44 3.44-5.631 0-4.44-5.38-8.04-12-8.04ZM9.88 7.73v13.51l4.093-.01 -.01-5.3h1.1c.22 0 .32.06.54.25 .27.22.71.98.71.98l2.16 4.06 4.62-.01 -2.87-4.83s-.09-.2-.27-.39h0c-.18-.17-.37-.31-.59-.42 -.43-.22-1.15-.44-1.15-.44s3.57-.27 3.57-3.83c0-3.57-3.75-3.63-3.75-3.63ZM14 10.66l2.47 0s1.14-.07 1.14 1.12c0 1.16-1.15 1.17-1.15 1.17h-2.48Zm1.75 6.119c-.5.04-1.02.07-1.54.08v1.8H14.2c.8-.1 1.59-.26 2.37-.48l-.48-.9s-.11-.19-.25-.4c-.04-.06-.08-.1-.12-.14Z"/></svg>