<svg viewBox="0 0 24 24" xmlns="http://www.w3.org/2000/svg"><path d="M24 13.457c0 .84-.69 1.53-1.53 1.53 -.85 0-1.53-.69-1.53-1.53v0c-.01-.85.68-1.53 1.53-1.53 .84-.01 1.53.68 1.53 1.53 0 0 0 0 0 0ZM6.14 2.84c-1.13 0-2.18.3-3.08.82v-.83H-.01v12.13H3.06V8.97h0c-.01-1.7 1.37-3.08 3.07-3.08 0-.01 0-.01 0 0l1.029-.01 2.1-3.06H6.12Zm8.74 6.08l2.07-3.02V2.84h-6.62L8.22 5.9h4.99l-2.57 3.73 1.53 2.65 -.001 0c1.48-.86 3.37-.36 4.23 1.12 .27.47.41 1.01.41 1.55 0 1.71-1.39 3.1-3.1 3.1 -1.71 0-3.1-1.39-3.1-3.1H7.55c0 3.4 2.76 6.16 6.15 6.16 3.4 0 6.16-2.76 6.16-6.16v0c-.01-2.97-2.11-5.51-5.02-6.054Z"/></svg>