<svg viewBox="0 0 24 24" xmlns="http://www.w3.org/2000/svg"><path d="M23.035 9.6h-7.677 0c-.53 0-.96-.43-.97-.95 -.01-.01-.01-.01 0-.02V.95v0c0-.53-.43-.96-.96-.96 -.01-.01-.01 0-.01 0h-2.88v0c-.53-.01-.96.42-.97.94 -.01 0-.01 0-.01 0V8.6v0c0 .52-.43.95-.95.96 -.01 0-.01 0-.02 0H5.7v0c-.53 0-.96-.43-.97-.96 -.01-.01-.01-.01 0-.02V.9v0c0-.53-.43-.96-.95-.962 -.01-.01-.01-.01-.02 0H.88h0C.35-.07-.08.36-.08.89c-.01 0 0 0 0 0V22.96h0c-.01.52.42.95.94.96 0 0 0 0 .01 0h22.07 -.001c.52 0 .95-.43.96-.95 0-.01 0-.01 0-.02V10.49v0c.01-.53-.41-.97-.94-.98 -.02-.01-.03-.01-.04-.01Zm-3.86 8.15h-.001c0 .79-.64 1.43-1.44 1.44 -.01 0-.01 0-.01 0h-1.93 0c-.8-.01-1.44-.65-1.44-1.44 0-.01 0-.01 0-.01v-1.92 -.001c-.01-.8.63-1.44 1.43-1.45 0-.01 0-.01 0-.01h1.92v0c.79-.01 1.43.64 1.43 1.43 0 0-.01 0-.01 0Z"/></svg>