<svg viewBox="0 0 24 24" xmlns="http://www.w3.org/2000/svg"><path d="M.113 10.27H.112c-.06.4-.1.8-.12 1.21h18.23c-.07-.125-.15-.24-.24-.35 -3.12-4.03-4.8-3.68-7.19-3.78 -.8-.04-1.34-.05-4.53-.05 -1.71 0-3.56 0-5.358.01C.66 7.94.44 8.55.33 9.04H9.67v1.21H.08v0Zm18.26 2.426H0c.02.32.05.64.09.96h16.955c.75 0 1.17-.43 1.31-.96ZM1.05 16.976s2.81 6.9 10.93 7.02c4.855 0 9.02-2.89 10.92-7.03H1.05ZM11.985 0C7.49 0 3.59 2.46 1.52 6.108l4.75-.01v-.01c3.71 0 3.84.01 4.57.04l.44.01c1.56.05 3.48.22 4.99 1.36 .82.62 2 1.99 2.71 2.96 .65.9.84 1.94.39 2.93 -.41.91-1.29 1.45-2.36 1.45H.34s.09.42.24.88h22.74v0c.4-1.22.6-2.49.61-3.77C23.93 5.31 18.55-.06 11.92-.06Z"/></svg>