<svg viewBox="0 0 24 24" xmlns="http://www.w3.org/2000/svg"><path d="M12.7 1.088L12 0l-.7 1.088c-.76 1.16-7.35 11.52-7.35 15.366 -.001 4.16 3.6 7.54 8.04 7.54 4.43 0 8.04-3.39 8.04-7.55 0-3.84-6.6-14.197-7.35-15.37ZM12 22.335c-3.516 0-6.38-2.64-6.38-5.881 -.001-2.55 4.109-9.698 6.37-13.36 2.26 3.65 6.37 10.8 6.37 13.35 0 3.24-2.87 5.88-6.38 5.88Zm4.95-6.02c0 2.54-2.22 4.61-4.96 4.61 -2.737 0-4.96-2.067-4.96-4.62 0-.17.02-.35.05-.55 0 0 1.3-2.62 4.84 0 2.99 2.215 4.95 0 4.95 0 .03.2.05.38.05.54Z"/></svg>