<svg viewBox="0 0 24 24" xmlns="http://www.w3.org/2000/svg"><path d="M19.89 10.89l-.18-.31c0-2.18-1.01-3.061-2.18-3.74 .35-.1.72-.18.82-.62 .61-.16.73-.44.8-.74 .16-.11.69-.41.63-.93 .29-.21.46-.48.38-.85 .32-.36.4-.65.27-.91 .38-.49.21-.73.05-.99 .28-.53.03-1.09-.78-1 -.33-.48-1.03-.37-1.14-.37 -.13-.16-.29-.29-.78-.22 -.32-.29-.68-.24-1.05-.1 -.44-.35-.73-.07-1.06.03 -.53-.18-.66.06-.92.15 -.58-.13-.76.14-1.04.41l-.33-.01c-.88.5-1.31 1.53-1.46 2.06 -.16-.53-.59-1.57-1.46-2.07l-.33 0C9.85.4 9.67.14 9.09.26 8.82.16 8.7-.07 8.17.1c-.22-.07-.42-.21-.66-.21l0 0c-.13 0-.26.04-.41.16 -.37-.15-.73-.19-1.05.09 -.5-.07-.66.06-.78.21 -.11-.01-.82-.11-1.14.36 -.81-.1-1.07.46-.78.99 -.17.25-.34.5.05.98 -.14.26-.06.55.27.9 -.09.37.08.64.38.84 -.06.51.47.81.63.92 .06.3.18.58.8.73 .1.44.46.52.82.61 -1.18.67-2.19 1.56-2.18 3.73l-.18.3c-1.35.8-2.57 3.4-.67 5.51 .12.66.33 1.13.51 1.66 .27 2.11 2.08 3.1 2.56 3.22 .69.52 1.44 1.02 2.449 1.36 .94.96 1.97 1.33 3.01 1.33 .01 0 .03 0 .04 0 1.03 0 2.06-.37 3.01-1.34 1-.35 1.75-.85 2.44-1.37 .47-.12 2.28-1.11 2.56-3.23 .18-.53.39-1 .51-1.67 1.89-2.12.68-4.71-.67-5.52Zm-1.04-.38c-.08.87-4.64-3.06-3.85-3.19 2.13-.36 3.91.89 3.84 3.18Zm-2.02 4.36c-1.15.74-2.81.26-3.7-1.07 -.9-1.34-.69-3.02.46-3.76 1.14-.75 2.8-.27 3.69 1.06 .89 1.33.68 3.01-.47 3.75ZM13.64 1.35c.03.19.08.32.13.35 .25-.272.46-.56.78-.82 0 .15-.08.32.11.44 .17-.24.41-.45.72-.63 -.16.26-.03.34.05.44 .24-.21.46-.42.91-.58 -.13.14-.3.29-.12.46 .24-.16.49-.31 1.08-.42 -.14.14-.41.29-.25.44 .31-.12.65-.21 1.03-.26 -.19.14-.34.29-.19.41 .33-.11.78-.24 1.23-.13l-.29.28c-.04.03.66.02 1.12.03 -.17.23-.34.45-.44.85 .04.04.27.02.48 0 -.22.46-.61.57-.69.77 .13.1.32.07.52 0 -.16.32-.49.54-.76.81 .06.04.18.07.45.04 -.25.25-.54.492-.89.7 .06.07.27.06.46.07 -.32.3-.72.46-1.1.66 .18.12.32.09.46.09 -.27.21-.73.33-1.15.46 .08.12.16.15.33.19 -.45.24-1.09.13-1.27.26 .04.12.16.2.31.27 -.72.04-2.69-.03-3.07-1.52 .73-.81 2.08-1.76 4.39-2.94 -1.8.6-3.43 1.4-4.79 2.5 -1.6-.75-.5-2.62.28-3.37Zm-1.62 5.37c1.13-.02 2.53.83 2.53 1.62 -.01.7-.99 1.27-2.53 1.26 -1.51-.02-2.52-.72-2.52-1.4 0-.57 1.22-1.53 2.5-1.5Zm-5.77-.61c.17-.04.25-.07.33-.2 -.43-.14-.88-.25-1.15-.47 .14 0 .27.03.46-.1 -.38-.21-.782-.36-1.1-.67 .19-.01.4-.01.46-.08 -.35-.22-.64-.45-.89-.71 .27.03.38 0 .45-.05 -.27-.27-.593-.49-.76-.82 .2.06.38.09.52-.01 -.09-.2-.47-.32-.69-.78 .21.02.44.04.48 0 -.1-.4-.27-.63-.44-.86 .45-.01 1.15 0 1.12-.04l-.29-.29c.44-.12.9.01 1.23.12 .14-.12-.01-.27-.19-.42 .38.05.72.13 1.03.25 .16-.15-.11-.3-.24-.45 .58.1.83.26 1.08.41 .17-.17.01-.32-.12-.47 .44.16.67.37.91.57 .08-.11.2-.19.05-.45 .31.17.55.38.72.62 .19-.13.11-.29.11-.45 .32.26.53.54.78.81 .05-.04.09-.17.13-.36 .77.74 1.88 2.62.28 3.36 -1.36-1.11-2.99-1.91-4.78-2.51 2.31 1.174 3.65 2.12 4.39 2.93 -.38 1.48-2.35 1.55-3.07 1.51 .14-.07.27-.15.31-.28 -.19-.13-.83-.02-1.27-.27Zm2.81 1.13c.78.13-3.78 4.05-3.85 3.18 -.08-2.29 1.7-3.54 3.84-3.19ZM4.21 15.99c-1.11-.88-1.47-3.46.59-4.61 1.23-.33.41 5.05-.6 4.6Zm4.26 4.59c-.63.37-2.15.21-3.23-1.31 -.73-1.29-.64-2.59-.13-2.98 .76-.46 1.94.16 2.85 1.2 .79.94 1.15 2.59.49 3.07Zm-1.25-5.61c-1.15-.75-1.36-2.43-.47-3.76 .89-1.34 2.54-1.81 3.69-1.07 1.14.74 1.35 2.42.46 3.75 -.9 1.33-2.55 1.8-3.7 1.06Zm4.79 8.22c-1.38.05-2.73-1.12-2.71-1.52 -.03-.6 1.67-1.06 2.78-1.04 1.11-.05 2.6.35 2.6.88 .01.51-1.36 1.68-2.69 1.66Zm2.75-5.86c0 1.38-1.23 2.52-2.76 2.52 -1.54 0-2.78-1.12-2.79-2.51v-.03c-.01-1.39 1.22-2.53 2.75-2.53 1.53-.01 2.77 1.11 2.78 2.5v0s0 .01 0 .02Zm3.85 2c-1.186 1.62-2.8 1.68-3.39 1.23 -.63-.59-.15-2.39.7-3.38v-.01c.98-1.1 2.03-1.81 2.76-1.25 .49.48.78 2.3-.09 3.38Zm1.07-3.44c-1.01.44-1.83-4.94-.6-4.61 2.05 1.15 1.69 3.731.59 4.61Zm-.03-8.33h.29v-.54h.29c.15 0 .2.06.22.2 .01.1.01.23.04.32h.29c-.06-.08-.06-.24-.06-.33 -.01-.14-.06-.28-.2-.32v-.01c.15-.07.21-.19.21-.35 0-.21-.16-.38-.4-.38h-.74V7.5Zm.29-1.13h.32c.13 0 .2.05.2.18s-.08.19-.21.19h-.33v-.39Zm-1.04.46c0 .7.56 1.26 1.26 1.26s1.26-.57 1.26-1.27c0-.71-.57-1.27-1.27-1.27 -.71 0-1.27.56-1.27 1.26Zm2.32 0c0 .58-.48 1.05-1.06 1.05 -.59 0-1.06-.48-1.06-1.06 0-.59.47-1.06 1.05-1.06 .58 0 1.05.47 1.05 1.05Z"/></svg>