<svg viewBox="0 0 24 24" xmlns="http://www.w3.org/2000/svg"><path d="M23.4 0v0c-.11 0-.21.04-.28.12l-.22.22 -.41.182v0c-.14-.05-.29-.05-.42-.001l0-.001c-.06.01-.12.01-.18 0l0 0c-.19-.06-.39-.06-.57-.001l-.001 0c-.13-.01-.25.01-.36.06V.578c-.17.06-.32.18-.42.33l-.04.04V.947c-.4.07-.73.32-.9.68v0c-.04.07-.06.14-.07.22v0c-.11-.08-.22-.15-.34-.2l-.001-.001c-.7-.29-1.49-.17-2.07.3v0c-.63.51-.9 1.35-.69 2.13 .08.37.23.73.42 1.069 .49.77 1.07 1.49 1.73 2.138 .52.51.99 1.07 1.4 1.69l.05.09c.39.75.32 1.31-.22 1.64v0c-.18.1-.37.17-.58.19h0c.25-.68.2-1.44-.15-2.07v0c-.09-.15-.19-.29-.3-.41 -.79-.87-1.63-.68-1.97-.45v0c-.15.09-.22.28-.15.45l.02.05v0c.07.13.22.2.38.18v0c.4-.01.77.22.96.58 .23.38.23.86 0 1.24v0c-.2-.17-.38-.35-.54-.54l-.07-.07 -.04-.05v0c-.49-.62-1.16-1.04-1.92-1.21h-.001c-.02-.52-.16-1.02-.41-1.455v0c-.34-.6-.8-1.1-1.36-1.48v0c-.09-.06-.18-.12-.27-.16H13.4c-.11-1.29-1.01-2.38-2.26-2.72l0 0C10 2.46 8.8 2.92 8.17 3.9c-.06.08-.12.17-.17.26v0c-.46.88-.81 1.81-1.04 2.78H6.96c-.19.75-.45 1.48-.78 2.18l-.06.1c-.22.37-.41.58-.609.64h0c-.13.04-.27.01-.38-.07 -.21-.14-.16-.43 0-.98v0c.05-.15.09-.3.12-.45 .07-.33-.01-.673-.21-.95v0c-.2-.25-.48-.4-.79-.42 -.49-.02-.94.27-1.13.72l-.08.15H3.04c-.06-.19-.17-.35-.32-.46H2.72c-.09-.06-.19-.11-.3-.13h0c-.16-.12-.35-.19-.54-.2v0c-.07-.01-.12-.03-.17-.06v0c-.14-.08-.29-.12-.44-.1l-.33-.26 -.15-.28c-.18-.35-.707-.24-.727.15v0c-.2.07-.3.3-.22.49 .04.1.13.19.24.22l.3.07 .34.26c.02.14.09.26.19.37 .04.04.07.09.08.14 .05.18.16.34.31.47H1.3c.14.27.41.44.72.46h.06c.262.31.66.47 1.068.43H3.15c.07-.01.15-.03.23-.06H3.38c-.02.12-.02.25-.001.38h0c.09.74.59 1.37 1.3 1.63h0c.76.28 1.63.1 2.2-.49 .27-.26.51-.57.69-.9 .42-.82.75-1.68.97-2.58 .17-.72.43-1.41.76-2.058l.05-.1c.45-.73.97-.94 1.53-.64 .18.09.33.23.46.39 -.72.12-1.34.54-1.72 1.16 -.09.14-.16.3-.21.46 -.36 1.11.23 1.74.593 1.92 .16.07.35.03.46-.11l.03-.06v0c.08-.13.08-.3 0-.43v0c-.22-.35-.22-.79 0-1.13 .21-.39.62-.62 1.07-.62 -.04.24-.1.48-.18.72l-.04.09v0c-.29.74-.32 1.56-.09 2.32v0c-.44.26-.81.63-1.07 1.07v0c-.35.58-.56 1.23-.61 1.91v0c-.01.1-.01.2 0 .31v0c-1.07.73-1.56 2.05-1.23 3.31h0c.3 1.13 1.29 1.93 2.47 2h.31 -.001c.99-.05 1.97-.22 2.92-.5v0c.74-.22 1.5-.36 2.28-.43h.11c.3-.04.61.03.86.2 .1.09.15.22.13.35 0 .24-.29.34-.86.46v0c-.16.02-.31.06-.45.11v0c-.33.1-.59.33-.73.64h-.001c-.12.28-.11.61.03.88 .22.43.7.68 1.19.62h.16v0c-.13.14-.21.31-.24.5v0c-.03.12-.03.24 0 .36 -.02.18.01.36.09.53 .03.05.04.11.04.17 -.01.15.04.3.13.42l-.06.41 -.17.26v0c-.11.18-.04.42.15.52 .1.05.23.06.34.01 .28.26.74-.02.63-.39l-.09-.3 .06-.44v0c.1-.1.18-.22.22-.36v0c.01-.06.04-.11.08-.15 .13-.15.21-.32.25-.51v0c.06-.11.1-.22.12-.34v0c.02-.19-.01-.38-.09-.54v-.06c.13-.38.08-.8-.15-1.13v0c-.05-.07-.11-.13-.16-.18 .11-.05.22-.11.33-.19v0c.59-.46.89-1.21.77-1.94v0c-.14-.81-.73-1.47-1.52-1.68v0c-.37-.11-.75-.17-1.13-.16 -.92.04-1.83.19-2.72.43 -.7.19-1.42.32-2.138.36h-.12c-.85-.04-1.3-.38-1.32-1.01 -.01-.21.03-.41.11-.6 .45.55 1.138.89 1.86.9 .17 0 .33-.02.5-.06 1.14-.25 1.4-1.07 1.37-1.48v0c-.02-.18-.15-.33-.33-.36h-.07v0c-.16 0-.3.09-.36.23v0c-.21.34-.59.55-.99.53v0c-.45 0-.86-.25-1.07-.64 .23-.09.47-.16.71-.21h.15l0 0c.77-.12 1.48-.5 2.01-1.07 .44.24.95.37 1.46.37 .67.01 1.35-.14 1.96-.44 .09-.05.18-.1.27-.15h0c1.16.55 2.55.31 3.48-.59v0c.82-.83 1.03-2.1.49-3.14V8.13c-.05-.1-.1-.19-.15-.28v0c-.54-.84-1.17-1.61-1.89-2.29h0c-.57-.54-1.07-1.13-1.51-1.77l-.07-.11v0c-.19-.25-.28-.55-.26-.85v0c.01-.11.07-.21.16-.27 .22-.11.44.08.83.508 .1.11.21.22.32.33 .25.22.58.33.92.3l-.001 0c.3-.05.57-.22.74-.48 .26-.42.24-.96-.06-1.342l-.09-.15c.18.03.36.01.53-.05V1.68c.11-.05.22-.12.32-.2 .17-.08.33-.2.44-.36l-.001-.001c.03-.06.07-.1.13-.123V.99c.13-.08.23-.19.3-.33l.38-.16h.31v0c.21.01.39-.16.4-.37 0-.08-.02-.15-.06-.22l-.01.01 -.001 0c-.03-.06-.07-.1-.12-.13v0c.05-.21-.08-.42-.29-.47 -.04-.01-.07-.02-.1-.02Zm0 .398l-.19.315 .34.08 -.4 0 -.66.26v-.001c0 .11-.07.22-.18.26 -.32.18-.2.32-.59.48 -.08.03-.11.1-.26.17 -.15.07-.41-.03-.54 0l-.001-.001c-.18.01-.31.17-.29.35 0 .06.03.13.08.18 .08.14.48.67.19 1.112v0c-.22.32-.66.41-.99.2 -.05-.03-.09-.07-.13-.11 -.37-.31-.87-1.214-1.58-.88 -.71.33-.51 1.12-.09 1.79 .88 1.39 2.7 2.673 3.52 4.277 1 2-1.11 4.336-3.68 3.11v0c-.13.09-.26.17-.4.24 -1.07.53-2.52.57-3.4-.12 -.4.94-1.79 1.18-2.04 1.24 -.43.08-.84.22-1.22.41 .48 1.61 2.47 1.45 2.9.42 0 0 .05.82-1.07 1.07h-.001c-.94.16-1.87-.31-2.29-1.16 -.33.34-.51.81-.5 1.28 .02.69.46 1.33 1.69 1.38 1.66.06 4.25-1.21 6.01-.67 1.34.33 1.72 2.06.64 2.93h-.001c-.38.22-.8.35-1.23.38 -.19.01-.2.09-.19.14 .01.05.11.05.27.05 .58-.06 1.2.28.93 1.16 -.05.12.15.35.11.53 -.06.26-.12.2-.12.28 -.07.41-.24.32-.34.67v0c-.02.1-.1.18-.21.2l-.11.7 .11.38 -.19-.33 -.26.25 .21-.34 .1-.7v0c-.11-.05-.18-.16-.16-.27 0-.37-.19-.34-.13-.75 .03-.09 0-.05 0-.31 .01-.19.23-.35.27-.48 .04-.14.05-.45-.37-.45 -.2 0-.85.07-1.07-.39v0c-.18-.36-.04-.78.31-.96 .04-.03.09-.05.14-.06 .45-.16 1.49-.13 1.55-.91 .05-.79-.73-1-1.52-.98 -1.657.05-3.67 1.01-5.48.9 -2.23-.13-3.2-3.14-.87-4.737v0c-.02-.16-.02-.32 0-.47 .09-1.22.77-2.47 1.81-2.85 -.593-.82-.13-2.149-.06-2.39 .13-.4.21-.82.23-1.24 -1.65-.37-2.497 1.41-1.83 2.3 0 0-.75-.37-.4-1.47v0c.32-.89 1.19-1.46 2.138-1.4h0c-.14-.46-.45-.85-.88-1.07 -.61-.3-1.39-.27-2.05.77 -.89 1.41-1.07 4.29-2.43 5.54 -.97 1-2.66.46-2.86-.91H3.68c-.01-.44.08-.87.278-1.26 .08-.17.03-.22-.04-.23 -.07-.02-.13.07-.19.21v0c-.13.43-.59.68-1.03.55 -.19-.06-.35-.18-.46-.34 -.1-.11-.35 0-.54-.17 -.2-.18-.13-.19-.2-.25 -.33-.28-.16-.375-.42-.64H1.08C.99 7.59.96 7.47 1 7.37l-.54-.44 -.39-.1h.38l-.11-.35 .18.35 .534.43v0c.09-.07.21-.07.31 0 .32.18.38.01.71.26 .07.05.133.02.28.13 .15.1.18.37.278.47h0c.1.14.29.18.44.08 .06-.05.1-.11.12-.18 .08-.2.33-.77.86-.73 .45.02.77.47.64.91 -.1.47-.66 1.35 0 1.8 .65.44 1.23-.14 1.604-.83 .77-1.46.95-3.678 1.95-5.202 1.23-1.887 4.3-1.23 4.53 1.604 .14.06.28.13.41.22 1.032.69 1.75 1.92 1.56 2.99 1.02-.13 1.91.95 2.09 1.138 .28.32.6.61.968.84 1.16-1.23.03-2.865-1.07-2.74 0 0 .69-.46 1.46.39 .61.72.66 1.77.13 2.561 .46.11.95.03 1.36-.22 .58-.36.92-1.07.35-2.138 -.78-1.476-3.19-3.08-3.59-4.876 -.39-1.34.92-2.53 2.21-2.021 .38.21.7.51.94.871 .1.15.16.13.21.08 .04-.05-.01-.14-.1-.27v0c-.32-.33-.31-.85.02-1.17 .13-.14.31-.22.5-.23 .14-.03.16-.29.41-.38 .25-.09.23-.02.31-.05 .39-.15.4.04.75-.05 .1-.04.21-.01.28.07l.68-.263ZM13.1 6.65c-.07.53-.35 1.64-.19 2.33 .15.87.82.82 1.06.39 .16-.34.2-.72.1-1.07v0c-.15-.64-.5-1.21-.984-1.64Zm.25.87c.17.26.29.55.36.85v0c.07.24.07.51 0 .75 -.09.18-.34.18-.43-.23 -.04-.47-.02-.93.06-1.39Zm1.72 2.66c-.52.01-.67.47-.47.82 .2.31.52.53.88.63v-.001c.62.18 1.29.17 1.9-.04 -.43-.32-1.25-1.13-1.91-1.35v0c-.14-.05-.28-.08-.42-.07Zm.08.4l0 0c.06 0 .13.01.2.04 .42.19.83.45 1.19.75v0c-.33.02-.65-.02-.97-.11h0c-.25-.07-.48-.21-.65-.4 -.1-.14-.04-.3.21-.29Zm-2.285.18h0c-.38.02-.73.18-.99.45h-.001c-.49.44-.81 1.03-.94 1.673 .53-.21 1.6-.52 2.13-.98 .66-.59.25-1.17-.22-1.15Zm-.03.34c.18 0 .27.21-.04.48v0c-.39.26-.8.47-1.234.63 .13-.28.31-.53.53-.75v-.001c.18-.2.43-.33.7-.38h0c.01-.01.02-.01.04-.01Z"/></svg>