<svg viewBox="0 0 24 24" xmlns="http://www.w3.org/2000/svg"><path d="M20.21 24c-1.15-.01-2.48-.34-3.89-.92 -2.83-1.17-6.04-3.372-9.04-6.37 -3-3-5.209-6.22-6.38-9.04C-.27 4.84-.4 2.35.97.97 2.34-.4 4.83-.27 7.66.89c.3.125.617.26.93.41 -.34.11-.66.24-.98.383l-.15-.06C4.791.53 2.66.49 1.572 1.58 .482 2.67.522 4.8 1.612 7.46c1.09 2.66 3.23 5.79 6.14 8.704 2.91 2.91 6.044 5.05 8.7 6.14 2.66 1.09 4.79 1.13 5.88.04 1.09-1.09 1.05-3.22-.05-5.884 -.11-.27-.23-.54-.36-.81 .13-.32.25-.65.35-.98 .28.54.53 1.07.74 1.58 1.16 2.82 1.29 5.32-.08 6.69 -.69.68-1.66.99-2.8.99ZM3.79 24c-1.15 0-2.117-.31-2.81-.99 -1.37-1.37-1.24-3.87-.08-6.7 .23-.58.51-1.16.83-1.76 .09.33.21.66.34.97h0c-.16.31-.31.64-.44.96 -1.1 2.66-1.14 4.79-.05 5.88 1.09 1.09 3.22 1.05 5.885-.05 .92-.38 3.02-1.69 4.026-2.308 .21.16.43.32.64.47 -1.157.73-3.42 2.13-4.5 2.57 -1.412.58-2.74.907-3.888.91Zm9.753-4.46c-.22-.14-.43-.29-.65-.44l0 0c1.16-.9 2.26-1.88 3.3-2.92 2.91-2.92 5.05-6.04 6.14-8.71 1.09-2.67 1.13-4.794.04-5.885 -1.1-1.09-3.22-1.06-5.88.04l-.08.02V1.64c-.33-.15-.66-.27-.99-.38 .29-.14.58-.272.87-.39 2.82-1.163 5.32-1.292 6.69.07 1.37 1.37 1.23 3.86.07 6.68 -1.17 2.82-3.38 6.04-6.37 9.04v0c-1.01 1-2.07 1.94-3.18 2.82Zm1.95 1.15c-.33-.17-1.798-1.08-2.135-1.28 1-.81 2.423-1.97 3.39-2.95 1.718-1.718 3.98-4.79 5.16-6.555 -.01.11-.1 2.49-.11 2.6l-.001-.001c-.39 3.7-2.84 6.86-6.32 8.172Zm-6.93-.04c-3.41-1.31-6.05-4.71-6.29-8.2 -.01-.16-.06-.4-.06-.984 0-.61.05-1.423.15-1.29 1.03 1.42 3.976 5.455 5.35 6.83 .97.97 1.92 1.62 2.92 2.43h-.001c-.7.4-1.4.81-2.1 1.2Zm3.43-2.21l0 0c-1.22-.93-2.37-1.93-3.45-3.01C6 12.89 4.07 10.17 2.97 7.84 4.42 4.24 7.94 1.71 12.06 1.71c4.05 0 7.53 2.465 9.02 5.97 -1.093 2.36-3.05 5.14-5.65 7.74h-.001c-1.08 1.08-2.24 2.08-3.46 3.01Z"/></svg>