<svg viewBox="0 0 24 24" xmlns="http://www.w3.org/2000/svg"><path d="M10.77 17.34H5.8v-.001c-.16-.01-.29.12-.29.28 -.01.15.12.28.28.28 0 0 0 0 0 0h4.96 0c.15 0 .28-.13.28-.29 0-.16-.13-.29-.29-.29 -.01 0-.01 0-.01 0Zm7.31 0h-4.97v-.001c-.16-.01-.29.12-.29.28 -.01.15.12.28.28.28 0 0 0 0 0 0h4.96 0c.15-.01.28-.13.28-.29 -.01-.16-.13-.29-.29-.29Zm-7.34-6.48H5.78v0c-.16 0-.29.12-.29.28 0 .15.12.28.28.28h4.95v0c.15 0 .28-.13.28-.29 0-.16-.13-.29-.29-.29Zm7.31 0h-4.96v0c-.16 0-.29.12-.29.28 0 .15.12.28.28.28h4.95v0c.15 0 .28-.13.28-.29 0-.16-.13-.29-.29-.29Zm.55-9.21h-4.35v0C13.84.38 12.49-.32 11.22.09c-.75.23-1.33.81-1.56 1.55H5.31c-1.72 0-3.1 1.38-3.1 3.09V20.86c0 1.71 1.38 3.09 3.09 3.09h13.26c1.71 0 3.09-1.39 3.09-3.1V4.72c0-1.72-1.39-3.1-3.1-3.1Zm-8.71.56h0c.13 0 .25-.1.28-.23l-.001-.001c.21-1 1.19-1.63 2.19-1.41 .7.15 1.25.7 1.4 1.4h0c.02.13.14.22.28.22h1.51v1.84 0c0 .46-.38.84-.85.84H9.18v0c-.47 0-.85-.38-.85-.85V2.16Zm11.23 18.66c0 1.39-1.14 2.53-2.54 2.53H5.31c-1.4 0-2.54-1.14-2.54-2.54V4.72c0-1.4 1.13-2.54 2.53-2.54h2.48v1.84c0 .77.63 1.4 1.4 1.4h5.48c.77 0 1.4-.64 1.4-1.41V2.16h2.48c1.39 0 2.53 1.13 2.53 2.53Z"/></svg>