<svg viewBox="0 0 24 24" xmlns="http://www.w3.org/2000/svg"><path d="M6.92 13.68c.16-.1.375-.04.46.13l.06.1c.48.85.98 1.66 1.5 2.42 .61.9 1.3 1.81 2.07 2.74v0c.12.14.1.36-.04.48l-.08.06c-2.55 2.22-4.2 2.66-4.96 1.33 -.75-1.31-.48-3.68.8-7.11v0c.02-.08.08-.14.15-.18Zm10.82 2.61c.18-.04.35.08.39.26l.01.1c.62 3.28.18 4.92-1.33 4.92 -1.49 0-3.36-1.41-5.65-4.21h0c-.06-.07-.08-.15-.08-.23 0-.19.15-.34.34-.34h.12l-.001-.001c.93 0 1.87-.03 2.8-.1 1.07-.09 2.19-.24 3.35-.44Zm.87-6.98v0c.06-.18.26-.28.44-.22l.1.03c3.26 1.1 4.5 2.33 3.71 3.66 -.77 1.3-3 2.25-6.69 2.84 -.09.01-.17-.01-.24-.05 -.17-.1-.23-.31-.125-.48l.06-.11c.5-.85.95-1.69 1.36-2.53 .47-.99.92-2.06 1.35-3.19ZM7.78 8.32c.08-.02.16 0 .23.04 .16.09.22.3.125.47l-.07.1V8.92c-.5.82-.95 1.66-1.37 2.52 -.48.98-.93 2.05-1.36 3.18v0c-.07.17-.27.27-.45.21l-.11-.04c-3.27-1.11-4.51-2.34-3.72-3.67 .76-1.31 2.99-2.26 6.68-2.85Zm5.28-3.99c2.54-2.23 4.19-2.67 4.95-1.34 .74 1.3.47 3.67-.81 7.1h0c-.03.07-.09.13-.16.17 -.17.09-.375.03-.47-.14l-.07-.11c-.49-.86-.99-1.67-1.5-2.43 -.62-.91-1.31-1.82-2.08-2.75v0c-.13-.15-.11-.37.03-.49Zm-5.8-2.09c1.48 0 3.36 1.4 5.64 4.2V6.43c.05.06.07.13.07.21 -.01.19-.16.34-.35.34l-.12-.01v0c-.94-.01-1.88.02-2.81.1 -1.08.08-2.2.23-3.37.43h0c-.19.03-.36-.1-.4-.28l-.02-.1c-.63-3.29-.19-4.93 1.32-4.93Zm2.87 5.81h3.68v0c.22 0 .43.12.55.31l1.84 3.21v0c.1.19.1.43 0 .62l-1.85 3.22v0c-.12.19-.33.31-.56.31H10.1c-.23 0-.44-.13-.55-.32l-1.86-3.23v0c-.11-.2-.11-.44 0-.63l1.85-3.22c.1-.2.32-.32.54-.32Zm3.23.79v0c.22 0 .43.12.55.31l1.39 2.42v0c.1.19.1.43 0 .62l-1.4 2.42H13.9c-.12.19-.33.31-.56.31h-2.78c-.23 0-.44-.13-.55-.32l-1.4-2.43v0c-.11-.2-.11-.44 0-.63L10 9.11c.1-.2.32-.32.54-.32Zm-.5.86h-1.79c-.23 0-.44.11-.55.31l-.9 1.55v0c-.11.19-.11.43-.001.62l.89 1.56h0c.11.19.32.31.54.31h1.78v-.001c.22-.01.43-.13.54-.32l.89-1.57v0c.1-.2.1-.44 0-.63l-.9-1.56c-.12-.2-.33-.32-.55-.32Zm-.48.82c.22 0 .43.12.54.31l.42.73c.11.19.11.43 0 .62l-.43.73c-.11.19-.33.31-.55.31h-.84 -.001c-.23-.01-.44-.13-.55-.32l-.43-.74c-.12-.2-.12-.44 0-.63l.42-.74h0c.11-.2.32-.32.54-.32Zm-.42.81l-.001 0c-.2 0-.38.1-.48.27 -.1.16-.1.375 0 .54h0c.09.16.27.27.47.26h0c.19 0 .37-.11.47-.27 .09-.18.09-.38 0-.55v0c-.1-.17-.28-.28-.48-.28Zm-4.43.54h.98m10.42-4.19c.39-1.9.47-3.35.22-4.4 -.15-.63-.43-1.14-.84-1.51 -.45-.4-1-.59-1.625-.59 -1.04 0-2.13.47-3.29 1.36 -.48.36-.97.8-1.48 1.31 -.05-.06-.09-.11-.14-.15 -1.45-1.29-2.67-2.082-3.7-2.4 -.62-.19-1.2-.2-1.73-.03 -.56.18-1.01.57-1.32 1.11 -.52.89-.66 2.07-.47 3.52 .07.58.21 1.23.4 1.93v0c-.08 0-.15.02-.22.04 -1.83.6-3.13 1.25-3.92 2 -.47.44-.77.93-.89 1.48 -.12.57-.001 1.15.31 1.69 .51.89 1.46 1.59 2.81 2.15 .54.22 1.15.42 1.84.6v0c-.04.07-.06.14-.08.22 -.4 1.89-.48 3.34-.23 4.39 .14.62.42 1.14.83 1.5 .44.39 1 .58 1.625.58 1.03 0 2.12-.48 3.28-1.37 .47-.38.97-.82 1.48-1.34h0c.05.08.12.15.19.22 1.44 1.28 2.66 2.08 3.69 2.39 .61.18 1.19.19 1.72.02 .55-.19 1-.58 1.31-1.12 .51-.9.65-2.08.46-3.53 -.09-.62-.23-1.29-.43-2.02v-.001c.08-.01.16-.03.23-.05 1.82-.61 3.125-1.26 3.91-2.01 .46-.45.76-.94.88-1.49 .11-.58 0-1.16-.32-1.7 -.52-.9-1.47-1.6-2.82-2.16 -.56-.24-1.2-.45-1.91-.625v0c.02-.07.04-.13.05-.2Z"/></svg>