<svg viewBox="0 0 24 24" xmlns="http://www.w3.org/2000/svg"><path d="M16.738 1.263c.62 0 1.18.19 1.62.581 .41.36.69.88.84 1.5 .25 1.05.16 2.505-.23 4.398v0c-.02.06-.04.13-.06.19 .71.18 1.34.39 1.9.62 1.35.55 2.3 1.26 2.817 2.15 .31.54.42 1.12.31 1.69 -.11.54-.42 1.04-.89 1.48 -.79.74-2.08 1.39-3.91 2v0c-.08.02-.16.04-.24.05 .2.72.34 1.4.42 2.01 .19 1.45.05 2.62-.46 3.52 -.32.54-.76.93-1.32 1.11 -.53.17-1.11.16-1.73-.03 -1.04-.31-2.253-1.11-3.7-2.39v0c-.08-.07-.15-.15-.2-.23 -.516.52-1.013.96-1.5 1.33 -1.16.89-2.247 1.36-3.28 1.36 -.63 0-1.19-.19-1.63-.58 -.42-.37-.7-.88-.85-1.51 -.26-1.06-.17-2.51.22-4.4 .01-.08.04-.16.07-.23 -.69-.19-1.31-.39-1.85-.61C1.72 14.71.77 14 .26 13.11c-.32-.55-.43-1.12-.31-1.7 .11-.55.41-1.04.88-1.49 .78-.75 2.08-1.4 3.91-2.01 .07-.03.14-.04.21-.05v0c-.18-.64-.32-1.29-.41-1.94C4.34 4.47 4.48 3.29 5 2.39c.31-.55.758-.93 1.31-1.118 .52-.18 1.1-.16 1.72.02 1.03.3 2.253 1.1 3.69 2.39 .05.04.09.09.13.14 .51-.52 1-.96 1.47-1.32C14.48 1.61 15.57 1.14 16.6 1.14ZM7.35 13.761v0c-.13-.15-.34-.17-.49-.04 -.05.03-.08.08-.1.14 -1.29 3.43-1.56 5.8-.81 7.11 .76 1.33 2.41.88 4.95-1.33l.07-.07 .05-.06h-.001c.09-.13.08-.31-.02-.43l-.001-.001c-.74-.89-1.43-1.8-2.08-2.75v-.001c-.54-.79-1.04-1.6-1.51-2.43l-.06-.11Zm10.46 2.53l-.07 0c-1.17.2-2.29.35-3.37.43 -.91.07-1.85.1-2.808.1h-.12l-.07 0v-.001c-.19.03-.31.21-.27.4 .01.05.03.1.07.15 2.28 2.8 4.16 4.2 5.64 4.2 1.51 0 1.95-1.65 1.32-4.93l-.02-.1 -.02-.07v0c-.07-.15-.22-.24-.38-.21Zm-6.24-1.14H9.36l.25.44 -.001 0c.11.19.32.31.54.31h1.4v-.76Zm3.08 0h-2.21v.75h1.4v0c.22 0 .43-.13.54-.32l.25-.45Zm4.32-6.06v0c-.17-.03-.33.07-.38.22h0c-.4 1.08-.86 2.14-1.36 3.18v-.001c-.42.86-.88 1.7-1.37 2.52l-.07.1 -.03.06 0 0c-.06.15.01.32.15.41l0 0c.07.04.15.05.23.04 3.692-.6 5.92-1.55 6.68-2.846 .78-1.34-.46-2.56-3.72-3.67l-.1-.04ZM7.85 8.33l-.09 0c-3.7.59-5.92 1.54-6.69 2.846 -.79 1.33.45 2.55 3.72 3.66l.1.03 .06.01c.16.02.32-.07.37-.23l-.001 0c.39-1.09.85-2.15 1.35-3.19l-.001 0c.41-.87.87-1.71 1.36-2.53l.06-.11 .03-.07H8.12c.05-.16-.02-.33-.16-.42v0c-.08-.05-.16-.06-.24-.05Zm3.7 5.051h-3.22l.5.88h2.71v-.89Zm4.102 0h-3.218v.88h2.71l.5-.89Zm-4.102-1.77H7.82l-.08.12v0c-.12.19-.12.43 0 .62l.07.12h3.72v-.89Zm4.61 0h-3.73v.88h3.72l.07-.13v0c.11-.2.11-.44 0-.63l-.08-.13Zm-4.61-1.77H8.84l-.51.88h3.218v-.89Zm3.59 0h-2.72v.88h3.218l-.51-.89Zm2.849-6.83c-.77-1.332-2.42-.89-4.96 1.33l-.08.06 -.06.05v0c-.1.12-.09.3.01.42 .76.92 1.46 1.84 2.074 2.74 .52.76 1.02 1.57 1.5 2.425l.06.1 .04.05v0c.12.14.33.16.48.03 .04-.04.07-.09.09-.15 1.28-3.436 1.55-5.806.8-7.11Zm-6.45 5.18h-1.41v0c-.23-.01-.44.12-.548.31l-.26.44h2.2v-.76Zm2.28 0h-1.41v.75h2.2l-.26-.44v0c-.12-.2-.33-.32-.55-.32Zm-6.59-5.94c-1.52 0-1.96 1.64-1.33 4.928l.02.1 .02.06c.06.14.21.23.375.2l0-.001c1.11-.2 2.23-.35 3.36-.44h0c.93-.08 1.87-.11 2.8-.1h.12l.07-.01 0-.001c.18-.04.3-.22.26-.41 -.02-.06-.04-.11-.08-.16 -2.29-2.81-4.17-4.203-5.647-4.203Z"/></svg>