<svg viewBox="0 0 24 24" xmlns="http://www.w3.org/2000/svg"><path d="M7.732 0l-.001-.001c-1.67 0-3.33.07-4.98.21v23.78H2.75c1.19-.27 2.4-.5 3.61-.69 .17-.03.34-.06.5-.08 .21-.04.43-.07.64-.1l.2-.03Zm1.18.003v22.95l-.001-.001c4.09-.49 8.22-.56 12.33-.22V1.46l0 0C17.191.54 13.051.05 8.901-.03Zm1.7 1.81l-.001-.001c0-.01.01-.01.01 0 3.06.08 6.12.4 9.16.95l0 0c.32.05.53.36.47.68 -.01 0-.01 0-.01 0V3.44c-.06.27-.29.47-.57.484v0c-.04 0-.08-.01-.12-.01v0c-2.97-.54-5.98-.85-9-.94v0c-.33-.01-.59-.29-.58-.61 0-.01 0-.01 0-.01V2.35c0-.32.27-.58.59-.58Zm-4.212.02v-.001c.31 0 .56.25.57.56v0c.01.32-.24.59-.57.61L6.4 3c-.79.03-1.58.08-2.36.14v0c-.02 0-.03 0-.04 0v0c-.31 0-.57-.24-.6-.55v0c-.03-.33.21-.61.54-.64 .8-.07 1.6-.12 2.4-.15V1.8c.01-.01.02-.01.03 0Zm4.202 2.83h0c0-.01.01-.01.01 0l0 0c3.07.03 6.13.3 9.16.8v0c.32.05.54.35.48.67 -.01 0-.01 0-.01 0v0c-.05.29-.31.5-.61.49v0c-.03-.01-.06-.01-.08-.01h0c-2.98-.49-5.98-.75-8.99-.79h-.001c-.33-.01-.59-.28-.59-.6 0-.01 0-.01 0-.01v0c0-.33.26-.58.58-.59Zm-4.211.09h0c.31 0 .56.24.58.55v0c.01.32-.23.6-.56.62 -.79.04-1.572.1-2.36.18v0c-.02 0-.03 0-.04 0v0c-.31 0-.58-.23-.61-.54h0c-.04-.33.2-.62.53-.65 .8-.08 1.59-.14 2.4-.19v0c.01-.01.02-.01.03 0Zm4.202 2.763h0c0-.01.01-.01.01 0 3.06-.02 6.125.2 9.16.65v0c.32.04.54.34.49.66 -.01 0-.01 0-.01 0v0c-.05.29-.3.5-.6.5v0c-.03-.01-.06-.01-.08-.01l0-.001c-2.98-.44-5.99-.66-9-.64V8.67c-.33 0-.6-.27-.6-.59 -.01-.01-.01-.01-.01-.01v0c-.01-.33.25-.59.57-.6Zm1.15 2.846l-.001-.001c2.68-.01 5.36.16 8.02.51h-.001c.32.04.55.33.5.66v0c-.04.29-.29.51-.59.51v-.001c-.03-.01-.06-.01-.08-.01l0 0c-2.99-.39-5.99-.56-8.99-.5v0c-.33 0-.6-.26-.61-.58 -.01-.01-.01-.01-.01-.01v-.001c-.01-.33.25-.6.57-.61 0-.01 0-.01 0-.01 .38-.01.76-.02 1.14-.02Zm1.13 2.83l-.001 0c2.29 0 4.58.13 6.87.39v0c.32.03.55.32.52.65v-.001c-.04.29-.29.51-.58.52v0c-.03 0-.06-.01-.08-.01l0-.001c-2.99-.34-5.99-.46-9-.35v0c-.33.01-.6-.25-.61-.57v0c-.02-.33.24-.6.56-.62 .76-.03 1.53-.05 2.29-.05Z"/></svg>