<svg viewBox="0 0 24 24" xmlns="http://www.w3.org/2000/svg"><path d="M12 .02V.019c-3.18.01-6.23 1.26-8.484 3.5v0C1.291 5.743 0 8.829 0 11.981c0 3.14 1.285 6.24 3.51 8.46l0 0h-.001c2.26 2.22 5.3 3.48 8.47 3.5h0c3.14 0 6.25-1.29 8.482-3.51l0-.01v0c2.23-2.25 3.49-5.29 3.51-8.455v-.01c0-3.14-1.29-6.242-3.52-8.464v0c-2.26-2.24-5.31-3.5-8.482-3.51Zm0 1.336c.48 0 .96.04 1.43.11 -2.03.56-3.77 1.622-5.56 1.94l0 0c-.74.12-1.49.14-2.23.04 1.82-1.34 4.08-2.107 6.34-2.107Zm4.13 1.07c.17 0 .34.01.52.02v0c1.06.5 2.04 1.19 2.88 2.02 .09.09.17.19.26.28v0c-1.38.72-2.9 1.12-4.45 1.17 -2.43.06-4.958-.8-7.69-.83v0c-1.49-.01-2.97.24-4.37.74 .32-.46.67-.9 1.06-1.3 1.22.32 2.5.39 3.748.16h0c2.26-.42 4.13-1.625 6.04-2.08l-.001-.001c.64-.16 1.3-.23 1.96-.23Zm4.53 3.4v-.001c.61.86 1.09 1.81 1.43 2.82v-.001c-.44-.25-.89-.46-1.35-.65h-.01 -.001c-2.11-.83-4.42-1-6.62-.5h-.01c-1.49.34-2.85.968-4.154 1.52 -.47.19-.94.38-1.4.55v-.001c-.48-.12-.96-.21-1.45-.26h-.01 -.001c-1.43-.14-2.86.05-4.2.55v0c-.43-.15-.85-.33-1.25-.54l-.001 0c.13-.54.31-1.06.53-1.56 1.67-.88 3.55-1.37 5.43-1.35 2.44.02 4.992.89 7.738.82h0V7.22c1.84-.06 3.65-.55 5.27-1.45Zm-4.04 2.74c1.23 0 2.46.22 3.625.68v0c.81.32 1.58.75 2.28 1.282 .03.25.06.5.08.75v-.001c-.74-.19-1.49-.3-2.25-.33v-.001c-1.09-.05-2.17.08-3.21.38 -.7.19-1.36.46-1.99.76 -1.09-.38-2.17-.86-3.28-1.34l-.001 0c-.44-.19-.88-.37-1.33-.54 1.3-.56 2.55-1.12 3.83-1.41v0c.72-.17 1.46-.25 2.21-.25ZM5.85 10.62c.37-.02.75-.01 1.12.03 1.47.14 2.93.7 4.393 1.33 .71.3 1.45.625 2.2.92 -1.1.6-2.16 1.22-3.237 1.7 -1.05-.4-2.14-.76-3.31-.92 -1.835-.25-3.717.06-5.387.82h0c-.2-.76-.3-1.53-.32-2.3 .403-.3.82-.57 1.28-.79l0 0c1.01-.49 2.11-.77 3.24-.81Zm14.46 1.66c.77.02 1.54.16 2.29.37h0c-.05.63-.15 1.27-.31 1.89 -.67.43-1.39.8-2.14 1.08 -1.83.65-3.85.79-5.75.37 -.78-.17-1.56-.45-2.35-.75 1.88-.98 3.59-2.12 5.45-2.65h0v-.001c.9-.26 1.84-.37 2.785-.33ZM5.47 14.94h0c.45-.02.91 0 1.36.06 2.35.32 4.61 1.71 7.275 2.3 .35.07.71.13 1.07.17 -.35.1-.7.21-1.05.33v0h-.01c-1.29.46-2.455 1.04-3.64 1.38 -2.151.625-4.45.54-6.543-.23l0 0c-.83-.94-1.48-2.02-1.93-3.18l-.001 0c1.07-.52 2.23-.82 3.428-.86Zm16.14 1.5c-.07.14-.14.29-.21.43 -.23-.02-.45-.04-.67-.05 .29-.12.58-.26.87-.39Zm-1.7 1.7H19.9c.23 0 .46 0 .69.01 -.34.46-.7.91-1.11 1.32h-.01v0c-1.97 1.96-4.754 3.11-7.535 3.11h0c-2.06-.02-4.07-.62-5.8-1.73 1.57.19 3.17.06 4.71-.39h0c1.33-.39 2.526-.99 3.71-1.42v0c1.7-.61 3.5-.93 5.31-.94Z"/></svg>