<svg viewBox="0 0 24 24" xmlns="http://www.w3.org/2000/svg"><path d="M12 0v0C5.37 0 0 5.37 0 12v0c0 6.62 5.37 12 12 12v0c6.62 0 12-5.38 12-12v0c0-6.63-5.38-12-12-12Zm5.01 4.744c.68 0 1.25.56 1.25 1.24v-.001c-.01.69-.58 1.24-1.27 1.23 -.66-.01-1.2-.53-1.24-1.19l-2.6-.55 -.8 3.74c1.82.07 3.48.63 4.67 1.48 .3-.31.73-.5 1.2-.5 .968 0 1.75.78 1.75 1.75 0 .71-.44 1.33-1.01 1.61v0c.02.17.04.34.04.52 0 2.69-3.13 4.87-7.004 4.87 -3.88 0-7.004-2.18-7.004-4.87 0-.19.01-.37.04-.54v0c-.64-.29-1.04-.91-1.04-1.6 0-.968.78-1.76 1.75-1.76 .46 0 .89.19 1.2.49 1.2-.89 2.87-1.43 4.74-1.487l.88-4.19V4.98c.02-.09.07-.16.14-.2l-.001 0c.07-.05.15-.06.23-.05l2.9.617 -.001-.001c.2-.44.63-.71 1.1-.71ZM9.25 12C8.56 12 8 12.56 8 13.25c0 .68.56 1.24 1.25 1.24 .68 0 1.24-.57 1.24-1.25 0-.69-.57-1.25-1.25-1.25Zm5.5 0c-.69 0-1.25.56-1.25 1.25 0 .68.56 1.24 1.24 1.24 .68 0 1.24-.57 1.24-1.25 0-.69-.57-1.25-1.25-1.25Zm-5.47 3.99v-.001c-.09-.01-.17.03-.24.09v0c-.13.12-.13.33 0 .46 .84.84 2.484.91 2.96.91 .47 0 2.1-.06 2.96-.92v0c.12-.13.13-.33.02-.47v0c-.13-.13-.34-.13-.47 0 -.55.53-1.69.73-2.52.73 -.83 0-1.98-.2-2.52-.73H9.46c-.07-.07-.15-.1-.24-.1Z"/></svg>