<svg viewBox="0 0 24 24" xmlns="http://www.w3.org/2000/svg"><path d="M21.665 11.81c-.11-1.38-.48-2.724-1.08-3.966l3.41-1.25c-.27-.556-.59-1.1-.95-1.6l-1.61.58C17.89.62 11.02-.524 6.06 3.009 2.92 5.253 1.18 8.979 1.48 12.829l1.604-.59c.05.61.15 1.22.3 1.82L-.04 15.3c.33 1.33.922 2.6 1.72 3.73l1.812-.66c3.52 4.95 10.398 6.1 15.34 2.58 1.55-1.11 2.79-2.6 3.599-4.34 .8-1.72 1.14-3.61.99-5.497l-1.81.65Zm-4.74-2.64c.68 1.22.99 2.62.89 4.032l1.8-.657c-.07.85-.29 1.69-.65 2.471 -1.67 3.58-5.93 5.13-9.514 3.47 -.782-.37-1.5-.87-2.1-1.49l-1.82.66c-.98-1.01-1.64-2.285-1.91-3.67l3.42-1.25c-.13-.63-.16-1.27-.12-1.9h-.01l-1.604.58c.29-3.94 3.72-6.89 7.652-6.59 .86.06 1.71.28 2.5.65v-.01c.77.36 1.48.867 2.08 1.48l1.59-.59s0 0 0 0c.44.45.82.96 1.12 1.51l-3.42 1.24Z"/></svg>