<svg viewBox="0 0 24 24" xmlns="http://www.w3.org/2000/svg"><path d="M1.09 15.088c.78.24 4.09 1 4.09 1 .19.06.13.21.13.21 -.23 1.79-.18 3.17-.18 3.64 0 .21-.16.18-.16.18H.14c-.21 0-.17-.19-.17-.19 .04-.6.21-2.31.87-4.746 0 0 .03-.16.21-.11Zm21.81 0c-.79.24-4.1 1-4.1 1 -.2.06-.14.21-.14.21 .22 1.79.17 3.17.17 3.64 0 .21.15.18.15.18h4.83c.21 0 .16-.19.16-.19 -.04-.6-.22-2.31-.88-4.746 0 0-.04-.16-.21-.11Zm-1.93-5.36l-3.45 1.66c-.17.06-.09.21-.09.21 .47 1.13.76 2.09.99 3.25 .03.19.16.13.16.13l3.87-1.69s.11-.05.06-.2c-.18-.54-1.05-2.65-1.41-3.35 0 0-.07-.11-.18-.05Zm-17.96 0l3.44 1.66c.16.06.08.21.08.21 -.476 1.13-.766 2.09-1 3.25 -.04.19-.17.13-.17.13l-3.88-1.69s-.12-.05-.07-.2c.17-.54 1.05-2.65 1.4-3.35 0 0 .06-.11.17-.05Zm4.08-4.37l2.3 2.681c.09.12-.04.22-.04.22 -.923.49-1.59 1.25-2.17 2.11 -.12.17-.24.04-.24.04L4.02 8.21s-.13-.08-.02-.22c.85-1.14 1.63-1.94 2.87-2.689 0 0 .09-.09.18.03Zm9.78 0L14.56 8.03c-.1.12.03.22.03.22 .923.49 1.59 1.25 2.16 2.11 .11.17.23.04.23.04l2.91-2.19s.12-.08.01-.22c-.86-1.14-1.63-1.94-2.88-2.689 0 0-.1-.09-.19.03Zm-4.9 2.295c.38 0 1.1.03 1.44.09 .17.03.22-.09.22-.09l1.44-3.03s.09-.12-.11-.19c-1.09-.4-1.657-.58-3.01-.58 -1.34 0-1.93.18-3.01.57 -.21.07-.11.18-.11.18l1.44 3.02s.04.11.22.08c.33-.06 1.05-.1 1.44-.1Z"/></svg>