<svg viewBox="0 0 24 24" xmlns="http://www.w3.org/2000/svg"><path d="M7.871 4.67v0c-.71-.01-1.39.21-1.96.63 -1.47 1.04-2.2 2.92-2.39 4.69 -.21 1.93.23 4.16 1.39 5.638 -.2.57.19 1.2.79 1.26v0c.48.05.93-.25 1.06-.72 .19-.66-.43-1.35-1.13-1.19 -.99-1.33-1.29-3.04-1.186-4.66 .125-1.58.68-3.26 1.98-4.25 .81-.61 1.82-.63 2.65-.08 1.1.742 1.763 2.13 1.97 3.43l.51.19 .55.28C11.9 7.99 11 6.01 9.52 5.1v0c-.51-.33-1.09-.5-1.69-.51Zm9.51 3.94v0c-1.05-.01-2.08.17-3.06.52v0c-.43-.24-.96-.12-1.25.27 -.4.5-.17 1.29.47 1.49 .61.21 1.29-.29 1.26-.92H14.8c.91-.31 1.87-.45 2.83-.41 1.57.07 3.66.65 4.62 2.14 .07.11.16.4.52.4v0c.26-.01.47-.23.47-.5 -.01-.08-.02-.15-.06-.21 -.53-.99-1.53-1.73-2.64-2.2 -.99-.42-2.1-.62-3.21-.63Zm-11.06.71c-.46-.01-.93.29-.98.93 .01 1.23 1.657 1.33 1.91.24 1.88-.28 3.894.58 5.3 1.71 .97.77 1.85 1.99 2.07 3.083 .16.07.61.26 1 .3 -.15-1.64-1.22-3.11-2.452-4.13 -1.57-1.33-4.13-2.33-6.218-1.91v-.001c-.18-.17-.4-.26-.64-.25ZM2.9 11.18c-.87.6-1.65 1.36-2.185 2.28 -.72 1.18-1.04 2.75-.33 4.01 .66 1.21 2.082 1.78 3.41 1.81H3.79c.76.02 1.53-.08 2.26-.3 2.1-.59 4.37-2.23 5.27-4.362v0c.38-.06.69-.34.79-.71 .2-.72-.47-1.38-1.17-1.2 -.69.17-.97 1.01-.53 1.54 -.61 1.38-1.8 2.44-3.112 3.16 -1.5.8-3.31 1.18-4.76.65 -.93-.31-1.65-1.13-1.62-2.22 0-1.3.92-2.68 2.06-3.58 -.12-.54-.11-.74-.12-1.13Zm20.103 1.53v0c-.26 0-.5.1-.68.29 -.35.32-.37.9-.1 1.24 -.55.82-1.51 1.38-2.46 1.7 -1.86.61-4.12.5-5.8-.38v0c-.36-.18-.7-.41-.99-.68 -.15-.13-.19-.16-.3-.19 -.5-.11-.79.48-.46.8 1.26 1.18 3.03 1.7 4.744 1.77 .66.02 1.33-.02 1.98-.14 1.62-.31 3.31-1.11 4.16-2.53 .63-.08 1.03-.78.76-1.35v0c-.16-.37-.52-.6-.91-.59Zm-8.75 4.51c-.83 1.12-2.65 1.45-4.75.72 -.19.13-.31.21-.44.3 -.13.08-.29.17-.61.36 2.558 1.03 5.44 1.07 6.73-1.09h-.001c-.33-.06-.65-.16-.95-.31Z"/></svg>