<svg viewBox="0 0 24 24" xmlns="http://www.w3.org/2000/svg"><path d="M6.98 3.47l4.66 3.18c.1.07.22.1.35.11v0c.12-.01.24-.04.35-.12L17 3.44V3.44c.28-.21.34-.61.14-.89 -.07-.09-.15-.16-.24-.2L12.24.04V.04c-.18-.09-.39-.09-.56 0l-4.65 2.3v-.001c-.32.15-.45.53-.3.85 .04.09.12.18.21.24Zm6.59 4.179c0 .21.1.4.27.52l3.73 2.55v0c.23.16.56.14.77-.05l3.13-2.803v0c.26-.24.28-.64.04-.9 -.03-.03-.05-.06-.08-.08l-3-2.393v0c-.22-.18-.53-.19-.76-.03l-3.88 2.65V7.11c-.18.11-.28.31-.28.51Zm-9.3 3.474v0c.15.13.22.33.2.53v0c-.02.2-.14.38-.32.48L1.91 13.46v0c-.23.13-.52.11-.72-.05v0c-.21-.17-.29-.45-.21-.7l.82-2.596h0c.1-.34.45-.52.78-.42 .08.02.16.07.23.13l1.41 1.25Zm12.1.27l-4.04-2.76V8.63c-.22-.15-.5-.15-.71 0L7.58 11.39v0c-.17.11-.27.28-.28.48v0c-.02.19.06.38.21.52l4.03 3.6h-.001c.24.21.6.21.84 0l4.03-3.61v-.001c.26-.25.28-.66.04-.92 -.04-.04-.07-.07-.11-.1Zm-10.758-.72L2.48 7.87v-.001c-.15-.13-.22-.32-.22-.51H2.26c0-.19.08-.37.23-.49l2.99-2.407h0c.21-.18.52-.19.75-.03l3.87 2.65v0c.29.19.37.58.18.88 -.05.07-.12.13-.19.18l-3.74 2.55v0c-.25.16-.57.14-.78-.05Zm16.073 4.026l-3.19-1.91v0c-.24-.15-.54-.12-.75.07l-3.9 3.47 -.001 0c-.17.14-.25.36-.21.58v0c.03.21.18.4.38.48l5.4 2.19v0c.31.12.67-.03.81-.34l1.67-3.76v0c.13-.3.02-.65-.26-.82Zm.44-4.561l.82 2.596h-.01v0c.1.33-.08.69-.41.79 -.18.05-.37.03-.52-.06l-2.24-1.34v0c-.18-.11-.29-.29-.31-.49h0c-.03-.21.05-.41.2-.54l1.41-1.27V9.82c.25-.24.65-.22.88.04 .06.06.1.14.13.23Zm-11.82 6.78v0c.03-.22-.04-.44-.21-.59l-3.9-3.48H6.19c-.21-.19-.51-.22-.75-.08l-3.19 1.9H2.25c-.28.16-.39.51-.26.81l1.678 3.75h0c.13.31.49.45.81.33l5.4-2.19v0c.2-.09.35-.27.39-.49Zm1.91 1.07l4.334 1.75c.21.09.35.29.38.52v0c.02.23-.08.46-.27.59l-4.34 3.01v-.001c-.11.07-.23.11-.36.11h0c-.13-.01-.25-.05-.36-.12L7.26 20.82h0c-.3-.2-.37-.6-.17-.89 .07-.11.17-.19.29-.24l4.33-1.76v0c.15-.07.32-.06.47 0Z"/></svg>