<svg viewBox="0 0 24 24" xmlns="http://www.w3.org/2000/svg"><path d="M5.66 9.553V5.25l-.001 0c-3.7.62-6.2 4.13-5.57 7.83 .2 1.2.72 2.32 1.51 3.25 2.37-1.16 4.042-3.76 4.05-6.79Zm1.13 4.11c-.43 1.75-1.69 3.25-3.262 4.24h-.001c.99.54 2.12.83 3.26.83h0c1.14 0 2.26-.29 3.26-.84 -1.58-1-2.84-2.5-3.27-4.25Zm5.184-6.11v0c-1.04-1.23-2.48-2.05-4.06-2.31v4.26c0 3.04 1.66 5.663 4.05 6.81v0c-1.04-1.23-1.61-2.79-1.61-4.39v0c-.01-1.61.56-3.17 1.6-4.39Zc1 1.18 1.65 2.71 1.65 4.38s-.65 3.2-1.66 4.38c2.38-1.15 4.08-3.76 4.1-6.79v-4.3 -.001c-1.6.26-3.05 1.08-4.1 2.31Zm6.36 1.95c0 3.04 1.66 5.663 4.05 6.82h0c2.42-2.87 2.06-7.16-.8-9.58 -.93-.79-2.06-1.31-3.26-1.52Zm-1.14 4.148c-.43 1.75-1.69 3.25-3.27 4.24v0c.99.54 2.12.83 3.26.83v0c1.14 0 2.26-.29 3.26-.84 -1.58-1-2.84-2.5-3.27-4.25Z"/></svg>