<svg viewBox="0 0 24 24" xmlns="http://www.w3.org/2000/svg"><path d="M12.265 0l-.001 0c-.82-.02-1.64.05-2.44.2 13.87 1.704 10.27 17.94 1.71 17.81 0 0 12.45 1.625 11.673-10.22l0-.001c-1.7-4.62-6.05-7.72-10.96-7.81ZM8.2.82c-.2 0-.41 0-.61.01L7.59.829C2.43 2.819-.67 8.119.13 13.589c2.78-14.03 18.659-9.49 17.75-.92 0 0 2.85-12.014-9.69-11.861Zm1.45 5.035C5.99 5.875.67 7.44.79 16.335h0c.63 1.63 1.62 3.11 2.89 4.33 .05.05.1.1.16.14H3.84c.35.33.73.64 1.13.92 .06.04.12.09.18.13H5.15c.42.28.85.54 1.31.77 .13.06.266.13.4.19l0-.001c.39.18.79.34 1.19.48 .1.03.19.07.29.1h-.001c.48.14.98.26 1.49.35 .15.02.3.05.46.07h-.001c.52.07 1.04.11 1.57.12l.06 0c.4 0 .79-.03 1.18-.06C-.85 20.54 4.45 4.94 12.98 6.19s-1.47-.41-3.39-.4Zm2.436 2.76v0c-1.86-.01-3.36 1.5-3.36 3.35 -.01 1.85 1.5 3.35 3.35 3.35s3.35-1.51 3.35-3.36v0c0-1.86-1.51-3.36-3.36-3.36 -.01-.001-.01-.001-.01-.001Zm-5.95 2.192s-3.34 12.27 10.01 12.38v0c4.27-1.59 7.27-5.46 7.74-10 .03-.32.04-.65.05-.97 0-.09.01-.17.01-.26 0-.38-.03-.74-.06-1.1 -3.53 13.88-19.132 8.44-17.77-.07Z"/></svg>