<svg viewBox="0 0 24 24" xmlns="http://www.w3.org/2000/svg"><path d="M21.39 5.58c-1.35.01-3.44.19-5.94.97 -1.61.49-3.92 2.74-8.23 6.9 -.57.32-2.68-.9-3.89-1.47 0 0 1.99 3.16 2.7 4.09 1.06 1.46 3.02 2.31 3.02 2.31 -.18-.18-1.54-1.61-1.93-2.43 -.25-.4.03-.97 1.95-2.39 1.74-1.29 7.94-6.52 13.92-7.94 0 0-.61-.1-1.65-.09v-.01Zm2.6 2.18c-2.07.21-4.06.81-5.95 1.7 -3.78 1.78-10.15 6.33-10.15 6.33 .28.17.57.35.85.49 3.06 1.35 7.58 2.17 8.43 1.88 2.38-.79 5.05-5.81 5.875-8.12 0 0-2.5.99-5.03 2.17 -2.11.99-4.414 2.13-4.414 2.13l5.87-1.79s-1.57 3.7-3.64 4.13c-2.07.42-5.7-1.04-5.7-1.04 .28-.25 4.13-3.07 13.1-6.74 .39-.29.64-.75.71-1.21v-.01Zm-24 3.52c.35.96.81 1.85 1.35 2.7 .64.81 3.27 1.49 3.63 1.56C3.33 14.4-.02 11.26-.02 11.26Z"/></svg>