<svg viewBox="0 0 24 24" xmlns="http://www.w3.org/2000/svg"><path d="M23.29 1.8c-.3-.4-.6-.7-.9-.9 -1.3-.9-2.9-.9-6.1-.9h-8.6c-3.2 0-4.8 0-5.896.8 -.4.3-.7.6-1 1 -.8 1.1-.8 2.7-.8 5.9v8.6c0 3.2 0 4.8.8 5.9 .3.4.6.7.9.9 1.19.9 2.798.9 5.996.9h8.596c3.19 0 4.79 0 5.898-.8 .4-.3.7-.6.9-.9 .79-1.1.79-2.7.79-5.9V7.7c.2-3.2.2-4.8-.6-5.9ZM11.19 16.5c0 .2 0 .5-.1.8 0 .2-.1.3-.1.5 -.1.1-.2.3-.4.5s-.4.3-.6.4c-.3.1-.7.1-1.4.1 -.8 0-1.1 0-1.4-.1 -.4-.2-.7-.5-.899-.9 -.1-.3-.1-.7-.1-1.4v-8c0-.9 0-1.4.2-1.7 .2-.3.4-.5.8-.7 .3-.2.8-.2 1.69-.2h2.29Zm5.09-4.9c-1.6 0-2.798-1.3-2.798-2.8 0-1.6 1.3-2.8 2.798-2.8 1.5 0 2.8 1.3 2.8 2.8 0 1.5-1.3 2.8-2.8 2.8Z"/></svg>