<svg viewBox="0 0 24 24" xmlns="http://www.w3.org/2000/svg"><path d="M24 7.62v8.749c0 .59-.49 1.09-1.1 1.09h-5.45v5.45c0 .59-.49 1.09-1.1 1.09H7.6c-.6 0-1.1-.49-1.1-1.1v-5.46H1.05c-.6 0-1.1-.49-1.1-1.1V7.58c0-.6.48-1.1 1.091-1.1H6.49V1.03c0-.6.48-1.1 1.09-1.1h8.74c.59 0 1.09.48 1.09 1.092V6.48h5.44c.59 0 1.09.49 1.09 1.09Zm-3.33 4.339l-2.192-1.65 .33 1.04 -4.891-.35c.15.3.24.63.24.99 0 .34-.09.66-.22.95l4.871-.37 -.33 1.02Zm-7.58.03l-.5-8 1.02.32 -1.65-2.19 -1.65 2.19 1.04-.34 -.46 8c0 .59.48 1.09 1.09 1.09 .59 0 1.09-.49 1.09-1.093Z"/></svg>