<svg viewBox="0 0 24 24" xmlns="http://www.w3.org/2000/svg"><path d="M19.586-.001c-.82 0-1.51.19-2.08.56 -.57.377-.97.93-1.22 1.68v0c-.05.14-.09.28-.12.43v0c-.04.17-.06.35-.08.53v0c-.03.24-.05.48-.05.72 -.01.28-.02.62-.02 1.01l0 0c-.01.33 0 .67.01 1.01V5.93c0 .24.02.48.05.72v0c.01.17.04.35.07.53h-.01l-.001 0c.02.14.06.29.11.43 .24.74.65 1.303 1.21 1.68 .56.37 1.25.56 2.07.56 .8 0 1.53-.22 2.1-.61 .57-.39.94-.92 1.17-1.65 .07-.24.13-.56.17-.93h0c.03-.41.05-.81.04-1.21v-.82c0-.1-.05-.15-.14-.15H19.8c-.1 0-.14.04-.14.14v.95c0 .09.04.14.14.14h1.66c.05 0 .08.03.08.08 0 .36 0 .62-.04.86s-.1.44-.15.6c-.11.38-.35.66-.64.87 -.29.21-.74.35-1.23.35 -.55 0-.91-.15-1.21-.36 -.31-.21-.52-.46-.67-.92v0c-.09-.25-.13-.51-.15-.77l-.001 0c-.02-.22-.03-.44-.04-.66 -.01-.26-.02-.58-.02-.94v0c-.01-.32 0-.63.01-.94l0 0c0-.22.01-.44.03-.66V3.22c.01-.26.06-.52.14-.76v0c.12-.42.38-.77.74-1.01 .34-.244.59-.36 1.13-.36 .5 0 .81.09 1.14.3 .33.2.52.49.76.92 .04.09.11.11.19.07l1.04-.43c.07-.05.09-.12.04-.2V1.75c-.13-.27-.29-.52-.47-.75l-.001 0c-.2-.24-.43-.45-.68-.61V.39c-.28-.19-.59-.32-.91-.41v0c-.38-.11-.76-.16-1.15-.15ZM8.21 5.835c-1.69 0-3.04.08-4.297.08 -1.146 0-2.291 0-3.007-.03v.83l1.088.2c.74.14 1.174.48 1.174 2.26v11.28c0 1.77-.43 2.12-1.18 2.26l-1.088.2v.83c.77-.03 2.12-.09 3.465-.09 1.29 0 2.95.05 3.667.08v-.84l-1.49-.2c-.78-.12-1.18-.49-1.18-2.27v-4.79c.68.05 1.29.05 2.2.05 1.74 3.12 3.41 5.47 4.35 6.56 .86 1.032 2.17 1.69 3.83 1.69 .48 0 1-.09 1.31-.23v-.75c-1.04 0-2.07-.72-2.808-1.52 -1.26-1.38-2.95-3.59-4.355-6.074 2.32-.55 4.04-2.73 4.04-4.9 0-3.21-2.5-4.698-5.76-4.698Zm-.52 1.29c2.4 0 3.83 1.26 3.83 3.55 0 2.263-1.55 3.782-4.1 3.782 -.98 0-1.404-.03-2.07-.09V7.17c.66-.06 1.54-.06 2.32-.06Z"/></svg>