<svg viewBox="0 0 24 24" xmlns="http://www.w3.org/2000/svg"><path d="M21.4 20.11c.44.99-.01 2.26-.94 2.77 -.54.29-1.15.56-1.77.71v0c-1.02.24-2.05.37-3.09.4 -1.67 0-3.33-.96-4.05-2.11 -.19.4-.86 1.2-2.03 1.58 -.75.24-1.64.52-3.51.52 -1.673-.01-2.63-.76-3.13-1.4 -.81-1.02-.93-2.3-.77-3.17l0-.05C2.74 16.19 3.6 10.43 4 7.55l0-.03c.1-.8.21-1.6.28-2.41 .03-.41.05-.82.05-1.221 0-.39-.04-.77-.03-1.154 0-.363.06-.73.23-1.06v0c.28-.52.75-.92 1.31-1.11C6.42.36 7.04.28 7.65.21L7.65.21C8.27.13 8.89.07 9.52.02v0c.76-.06 1.52-.09 2.29-.09 1.31-.01 2.63.02 3.92.28 1.31.271 2.64.79 3.68 1.69 .71.62 1.27 1.4 1.7 2.268 .37.758.52 1.55.61 2.16v0c.15 1.09.11 2.2-.13 3.28v0c-.2.78-.52 1.53-.96 2.215 -.5.76-1.13 1.46-1.94 2.128 .49 1.43 1.77 4.22 2.6 6.06ZM6.68 2.91c.03.53.03 1.06.01 1.59h0c-.03.54-.07 1.08-.13 1.62 -.06.53-.14 1.07-.21 1.61l-.03.17c-.23 1.67-.48 3.35-.73 5.02l0 0c-.28 1.75-.57 3.5-.87 5.25 -.14.81-.45 1.86-.03 2.64 .38.69 1.354.78 2.034.71 2.47-.26 2.86-.81 2.86-.81 -.5-.55-.07-3.04.43-6.39h1.75l1.84 5.56s.54 1.72 2.05 1.64c1.93-.11 3.35-.55 3.558-.8 -.6-.34-2.3-4.59-3.23-7.708 .44-.28.88-.58 1.29-.91 .56-.46 1.08-.984 1.47-1.61h-.001c.28-.45.5-.94.63-1.46v0c.06-.28.1-.56.125-.85v0c.04-.5.02-1-.05-1.49 -.07-.48-.18-1-.39-1.43 -.4-.8-.95-1.492-1.71-1.936 -1.28-.75-2.75-.9-4.177-.97l0-.001c-1.56-.09-3.12-.04-4.657.15 -.18.02-1.93.17-1.92.31Zm4.734 2.15c-.3 2.085-.54 3.84-.96 6.577 1.15-.03 3.77.43 4.346-3.31 .47-3.11-1.65-3.4-3.39-3.28Z"/></svg>