<svg viewBox="0 0 24 24" xmlns="http://www.w3.org/2000/svg"><path d="M0 0v24h24V0Zm7.03 3.113v0c.99 0 1.94.36 2.68 1.02v0c.56.62.86 1.43.84 2.28v0c.05 1.4-.83 2.67-2.16 3.12l2.46 3.6H8.27l-2.16-3.24H4.37v3.24H2.15V3.11c1.61-.01 3.28 0 4.871-.01Zm5.509 0h3.96c3.18 0 5.34 2.16 5.34 5.04 0 2.82-2.16 5.04-5.34 5.04h-3.96Zm4.06 1.976c-.61.01-1.24 0-1.85 0v6.06h1.74v0c1.58.09 2.95-1.11 3.05-2.7 0-.11 0-.21 0-.31v0c.09-1.6-1.13-2.97-2.73-3.06 -.08-.01-.16-.01-.23-.01Zm-12.29 0v2.88h2.28c1.08 0 1.68-.6 1.68-1.44 0-.96-.66-1.44-1.74-1.44Zm-2.16 14.4h9v1.5h-9Z"/></svg>