<svg viewBox="0 0 24 24" xmlns="http://www.w3.org/2000/svg"><path d="M21.42 1.317C18.42.487 15.19-.03 12 0 8.81-.02 5.57.48 2.58 1.317v0c-.2.06-.34.24-.35.45 0 7.95 2.97 17.802 9.47 22.142H11.7c.16.11.37.11.53 0 6.5-4.34 9.49-14.175 9.47-22.142 .01-.21-.13-.39-.33-.46ZM15.9 17.055c-1.03 1.72-2.25 3.26-3.7 4.45h-.001c-.12.09-.29.09-.41 0C7.81 18.235 5.5 12.466 4.62 6.88l-1.01-.54h7.47c2.407 0 2.715.78 2.715 1.35 0 .57-.31 1.35-2.72 1.35h-2.2l0-.001c-.08-.01-.13.05-.13.12 -.01 0-.01 0 0 0 0 .03.01.06.05.09l7.33 7.33 .78.78Zm1.33-2.65l-4.38-4.38c-.07-.07-.02-.17.06-.18l.86-.1c1.8-.2 2.84-1.11 2.84-2.25 0-1.32-1.4-2.05-3.73-2.05H4.4l0-.001c-.1-.72-.16-1.44-.18-2.17v0c-.02-.24.14-.45.37-.49v0c2.39-.57 4.84-.86 7.3-.87h.13c2.39 0 4.878.29 7.3.86 .22.04.39.26.37.48 -.18 3.625-.99 7.593-2.51 11.104Z"/></svg>