<svg viewBox="0 0 24 24" xmlns="http://www.w3.org/2000/svg"><path d="M24 16.375v0c0 .42-.08.84-.25 1.23h-.001c-.32.75-.92 1.34-1.68 1.66v0c-.39.16-.81.24-1.23.24v0c-.24-.01-.48-.03-.71-.08v0c-.26-.05-.51-.13-.74-.22v0c-.24-.1-.47-.22-.68-.37v0c-.2-.14-.38-.32-.51-.52h-.001c-.06-.09-.09-.18-.08-.28v0c-.01-.14.05-.26.15-.35h0c.09-.09.21-.14.34-.14v0c.06 0 .13.01.2.04v0c.07.03.14.09.18.17v0c0 .01 0 .02.01.03l.06.06v0c.21.23.49.41.79.5v0c.3.1.62.15.94.15v0c.29 0 .57-.06.84-.17v0c.52-.23.93-.64 1.16-1.16v-.001c.11-.27.17-.56.17-.85V15.2v0c-.29.27-.62.48-.99.63v0c-.38.15-.79.23-1.2.23v0c-.43 0-.85-.08-1.24-.25v0c-.75-.32-1.35-.92-1.66-1.66v0c-.17-.39-.26-.81-.25-1.24v-2.55 0c-.01-.43.08-.84.24-1.23v0c.15-.38.38-.72.66-1v0c.28-.29.61-.51.98-.67v0c.78-.34 1.67-.34 2.46 0V7.46c.75.31 1.35.91 1.66 1.66v0c.16.38.24.8.24 1.22v5.92Zm-.97-5.92v0c0-.3-.06-.58-.17-.85h0c-.23-.53-.64-.94-1.16-1.16h-.001c-.55-.23-1.16-.23-1.7 0v0c-.53.22-.95.63-1.17 1.16v0c-.12.26-.18.55-.17.84v2.53 0c-.01.29.05.58.16.85h0c.11.25.26.49.46.69v0c.19.19.43.35.69.46h-.001c.54.22 1.15.22 1.69 0v0c.52-.23.93-.64 1.16-1.16v0c.11-.27.17-.56.17-.86Zm-7.26 5.35v0c0 .13-.05.27-.16.36h0c-.2.16-.47.16-.66 0v0c-.11-.09-.17-.23-.16-.37v-5.36 0c0-.3-.06-.58-.17-.85v0c-.23-.53-.64-.94-1.16-1.16v0c-.55-.23-1.16-.23-1.7 0v0c-.53.22-.94.63-1.16 1.16h-.001c-.12.26-.18.55-.17.84v5.35h-.001c.01.13-.05.27-.16.36v0c-.2.16-.48.16-.67 0v0c-.11-.09-.17-.23-.16-.37V10.4H9.43c-.01-.43.08-.84.24-1.23L9.67 9.17c.15-.38.38-.72.67-1l0-.001c.28-.29.61-.51.984-.67v0c.78-.34 1.67-.34 2.46 0v0c.75.31 1.35.91 1.66 1.66h-.001c.16.38.24.8.24 1.22Zm-8.383 0H7.38c.01.13-.05.27-.16.36v0c-.2.16-.48.16-.67 0H6.55c-.11-.09-.17-.23-.16-.37v-7.86 -.001c-.02-.14.04-.28.15-.37V7.56c.19-.17.47-.17.66 0v0c.1.08.16.22.15.36Zm-2.42-7.38H4.96c0 .12-.06.25-.15.33h0c-.1.09-.23.14-.36.14v0c-.13-.01-.25-.06-.34-.15l-.02-.02h0c-.01-.01-.03-.02-.04-.03v0c-.02-.01-.03-.02-.04-.03v0c-.35-.29-.79-.44-1.24-.43q-.88 0-1.37.59 -.491.59-.492 1.69v5.24 0c0 .13-.05.27-.16.36h0c-.1.07-.21.12-.33.12v0c-.13-.01-.24-.05-.33-.13h0c-.11-.09-.17-.23-.16-.37v-5.25H-.07c-.01-.43.05-.86.17-1.27h0c.1-.38.28-.73.53-1.04H.63c.23-.3.53-.54.87-.71H1.5c.38-.18.8-.27 1.23-.26l0-.001c.36 0 .72.07 1.065.2l0 0c.34.12.66.32.93.58v0c.09.08.15.21.16.34Zm2.76-3.13V5.29c0 .45-.37.82-.83.82 -.01 0-.01 0-.01 0H6.88c-.46 0-.83-.37-.83-.83 -.01-.01-.01-.01 0-.01v0c-.01-.46.36-.83.82-.83 0-.001 0 0 0 0h0c.45 0 .82.36.82.82Z"/></svg>