<svg viewBox="0 0 24 24" xmlns="http://www.w3.org/2000/svg"><path d="M20.55 14.65c-.85-.49-1.81-.64-2.76-.67 -.79-.03-1.98-.55-1.98-1.99 0-1.08.86-1.94 1.98-1.99 .94-.04 1.9-.18 2.75-.67v0c2.39-1.39 3.21-4.45 1.83-6.85V2.47C20.97.07 17.9-.75 15.5.64h0c-1.56.89-2.51 2.55-2.51 4.34 0 .97.35 1.86.79 2.69 .37.69.55 1.99-.71 2.73 -.95.54-2.14.2-2.72-.75 -.5-.81-1.1-1.55-1.94-2.03C6 6.23 2.94 7.05 1.56 9.44H1.55c-1.38 2.39-.56 5.46 1.84 6.84H3.39c1.55.89 3.45.89 5 0 .84-.49 1.44-1.23 1.94-2.03 .4-.66 1.43-1.49 2.718-.75 .94.54 1.24 1.73.71 2.73 -.44.82-.79 1.72-.79 2.69v0c0 2.76 2.24 5 5 5.009v0c2.76-.01 5-2.25 5-5.01v0c.01-1.8-.95-3.45-2.5-4.343Z"/></svg>