<svg viewBox="0 0 24 24" xmlns="http://www.w3.org/2000/svg"><path d="M11.14.02C7.315.35 4.07 2.25 1.98 5.403c-1.5 2.23-2.22 5.178-1.92 7.8 .32 2.77 1.4 5.12 3.242 7.04 4.643 4.85 12.25 5 17.038.34 1.08-1.06 1.73-1.96 2.407-3.31h0c2.31-4.68 1.33-10.32-2.43-13.93 -1.96-1.88-4.31-2.99-7.06-3.3 -.68-.09-1.56-.1-2.13-.05Zm4.81 2.56c1.11.43 2.08 1.068 3.032 1.98 .62.59 1.32 1.46 1.3 1.59 -.02.07-1.63.72-1.8.72 -.06 0-.08-.08-.08-.25 0-.14-.02-.25-.03-.25 -.01 0-.76.45-1.654 1.02 -.9.56-1.67 1.02-1.71 1.02 -.05 0-.14-.07-.2-.14 -.13-.16-.22-.18-.36-.05 -.07.05-.1.16-.1.31v.22l-.83.46c-.46.24-.89.45-.968.45h-.15V8.09c0-.87.01-2.03.03-2.58 .03-.99.04-1.01.15-1.01 .11 0 .12-.03.15-.52 .06-1.11.25-1.29 1.36-1.33l.51-.02 .16-.24c.15-.23.16-.23.36-.18 .11.02.46.15.76.27Zm-7.05.01l.12.18 .64-.01c.6 0 .65.01.9.15 .35.21.48.49.52 1.14l.03.49 .17.01 .17.01 .01 2.716 .01 2.72 -.24.13v0c-.38.22-.7.51-.94.875l-.18.27H4.87v-.33l-.6-.02 -.6-.02 -.4-.59c-.34-.5-.46-.63-.758-.83 -.42-.27-.41-.2-.14-1.03 .65-2.03 2.2-3.95 4.1-5.11 .67-.41 1.93-1 2.159-1.01 .05-.01.15.07.21.17Zm12.163 4.902c.35.68.72 1.58.72 1.76 0 .07-.1.14-.33.26 -.33.15-.4.23-.4.5 0 .15-.17.36-.57.69l-.33.27h-.99v.33h-2.77v-.89l-.34-.42c-.19-.23-.34-.44-.34-.46 0-.03 1.07-.68 2.39-1.46 2.17-1.29 2.4-1.42 2.48-1.34 .05.04.24.37.43.73Zm-5.56 3.08c.24.35.45.66.46.68 .01.02-.4.05-.9.05h-.92l-.2-.34c-.11-.19-.2-.36-.19-.39 .02-.09 1.16-.71 1.23-.68 .03.01.25.31.49.66Zm-7.282 2.567c.25.39.44.74.41.76 -.12.1-5.17 3.32-5.22 3.32 -.16 0-.82-1.32-1.024-2.05 -.25-.87-.27-.77.18-1.045 .17-.12.371-.33.637-.71l.387-.548 .6-.03 .609-.03 .01-.21 .01-.21h2.9l.45.72Zm1.81-.48c.06.12.12.24.12.28 0 .07-1 .68-1.06.64 -.05-.03-.72-1.1-.72-1.15 0-.03.34-.03.75-.03l.75.01 .12.22Zm9.15-.05l.01.21 .55.02c.59.02.52 0 1.18.48 .01 0 .06.19.11.41 .09.42.12.45.49.54 .28.07.29.13.07.78 -.57 1.68-1.79 3.42-3.29 4.68 -.65.54-.61.54-.56-.06 .04-.62-.03-.94-.26-1.17 -.26-.26-.53-.23-1.3.17 -.51.26-.7.33-.9.33 -.33 0-.64-.1-.83-.26l-.16-.13 .39-.36c.42-.39.62-.73.52-.91 -.16-.3-.46-.37-1.05-.26 -.5.1-.87.1-1.02.02 -.19-.11-.29-.38-.26-.75 .02-.34.02-.35-.22-.62l-.24-.29v-1.77l.39-.28c.21-.15.55-.45.75-.68l.37-.41h5.17l.01.2Zm-7.814 2.157v.75l-.28.28 -.28.28 .08.23c.1.28.1.52.02.67 -.1.19-.3.22-.9.13v0c-.26-.04-.51-.07-.77-.09 -.68 0-.71.48-.06 1.25 .31.37.31.36-.09.56 -.56.27-.91.25-1.39-.12 -.41-.31-.65-.4-.968-.36 -.21.01-.31.06-.45.2l-.18.17 0 .68c0 .38-.02.69-.03.69 -.06 0-1.03-.85-1.45-1.28 -.45-.45-1-1.13-1-1.22 0-.05 1.516-.72 1.61-.72 .03 0 .04.08.03.19 -.02.1-.01.19.01.19 .01 0 1.362-.75 2.98-1.66l-.001 0c.99-.57 1.99-1.12 3-1.66 .02 0 .03.34.03.75Z"/></svg>