<svg viewBox="0 0 24 24" xmlns="http://www.w3.org/2000/svg"><path d="M4.95 10.22c0-1.88 1.52-3.41 3.4-3.41 1.87 0 3.4 1.52 3.4 3.4 0 .68-.56 1.23-1.24 1.23 -.69 0-1.24-.56-1.24-1.24 0-.52-.42-.93-.94-.93s-.94.41-.94.92c0 .68-.56 1.23-1.234 1.23 -.69 0-1.24-.56-1.24-1.24m14.08 5.71c0 .68-.56 1.23-1.24 1.23H6.29c-.69 0-1.24-.56-1.24-1.24 0-.69.55-1.24 1.23-1.24h11.45c.68 0 1.23.55 1.23 1.23m-5.36-5.03c-.39-.57-.24-1.34.33-1.72l2.86-1.94c.56-.4 1.33-.24 1.71.32 .38.56.23 1.33-.34 1.71l-2.87 1.93c-.55.38-1.34.23-1.72-.33Zm7.83 7.6h0c-.01.23-.1.45-.26.62l-2.13 2.12v0c-.17.16-.39.25-.63.25H5.36v0c-.24-.01-.46-.1-.63-.26L2.6 19.04v0c-.17-.17-.26-.39-.258-.63V5.37H2.34c-.01-.24.09-.46.258-.63l2.12-2.13V2.6c.16-.17.38-.26.62-.26h13.04l-.001-.001c.23-.01.45.09.62.25l2.12 2.12v0c.16.16.25.38.25.62v13.03ZM23.24 3.35L20.46.57v0c-.43-.43-1-.66-1.59-.66H4.91v0c-.6 0-1.17.23-1.59.65L.55 3.33v0c-.43.42-.66.99-.66 1.58v13.95c0 .59.23 1.16.65 1.58l2.77 2.77c.42.42.99.65 1.58.65h13.95v0c.59 0 1.16-.24 1.58-.66l2.77-2.78v-.001c.42-.43.65-1 .65-1.59V4.86v0c0-.6-.24-1.17-.66-1.59Z"/></svg>