<svg viewBox="0 0 24 24" xmlns="http://www.w3.org/2000/svg"><path d="M22.915 8.321c-.65-1-1.55-1.88-2.68-2.63 -2.19-1.436-5.06-2.23-8.09-2.23 -1.02 0-2.01.08-2.98.26v0c-.62-.59-1.31-1.1-2.05-1.51C4.35.83 1.92 1.34.69 1.78l0-.001c-.31.1-.47.44-.36.75 .02.07.07.15.12.21C1.32 3.63 2.74 5.4 2.39 7 1.02 8.39.28 10.08.28 11.83c0 1.78.742 3.47 2.11 4.87 .35 1.6-1.09 3.37-1.947 4.26H.44c-.23.23-.22.6.01.83 .06.05.13.1.21.13 1.228.44 3.65.95 6.41-.43h0c.74-.42 1.43-.93 2.04-1.51 .968.17 1.96.26 2.97.26 3.029 0 5.9-.79 8.08-2.23 1.13-.75 2.03-1.63 2.67-2.63 .71-1.11 1.07-2.31 1.07-3.56 0-1.279-.37-2.48-1.08-3.59Zm-10.881 9.91c-1.31 0-2.558-.17-3.7-.48l-.84.8h0c-.47.44-.98.82-1.54 1.13v0c-.68.33-1.42.54-2.17.61 .04-.08.07-.15.11-.23 .83-1.54 1.05-2.907.67-4.128 -1.363-1.08-2.181-2.442-2.181-3.94 0-3.43 4.308-6.206 9.62-6.206 5.31 0 9.62 2.77 9.62 6.206 0 3.42-4.31 6.2-9.63 6.2ZM8.844 12c0 .77-.64 1.407-1.42 1.407 -.79 0-1.42-.63-1.42-1.407 0-.78.63-1.407 1.41-1.407 .78 0 1.41.63 1.41 1.407Zm4.56 0c0 .77-.64 1.407-1.42 1.407 -.79 0-1.42-.63-1.42-1.407 0-.78.63-1.407 1.41-1.407 .78 0 1.41.63 1.41 1.407Zm4.56 0c0 .77-.64 1.407-1.42 1.407 -.79 0-1.42-.63-1.42-1.407 0-.78.63-1.407 1.41-1.407 .78 0 1.41.63 1.41 1.407Z"/></svg>