<svg viewBox="0 0 24 24" xmlns="http://www.w3.org/2000/svg"><path d="M2.807 0C1.353 0 .17 1.22.17 2.722c0 1.504 1.18 2.72 2.634 2.72 1.45 0 2.63-1.22 2.63-2.73C5.43 1.2 4.257-.01 2.79-.01ZM12 0c-1.455 0-2.64 1.22-2.64 2.722 0 1.504 1.18 2.72 2.63 2.72 1.455 0 2.63-1.22 2.63-2.73s-1.18-2.722-2.64-2.722Zm9.19 0c-1.46 0-2.64 1.22-2.64 2.722 0 1.504 1.18 2.72 2.63 2.72s2.63-1.22 2.63-2.73 -1.18-2.722-2.64-2.722ZM2.8 9.277c-1.46 0-2.64 1.22-2.64 2.72 0 1.5 1.18 2.72 2.634 2.72 1.45 0 2.63-1.22 2.63-2.73s-1.18-2.73-2.635-2.73Zm9.19 0c-1.455 0-2.64 1.22-2.64 2.72 0 1.5 1.18 2.72 2.63 2.72 1.455 0 2.63-1.22 2.63-2.73s-1.18-2.73-2.64-2.73Zm9.19 0c-1.46 0-2.64 1.22-2.64 2.72 0 1.5 1.18 2.72 2.63 2.72s2.63-1.22 2.63-2.73 -1.18-2.73-2.64-2.73ZM2.79 18.555c-1.46 0-2.64 1.22-2.64 2.72 0 1.5 1.18 2.72 2.634 2.72 1.45 0 2.63-1.22 2.63-2.73s-1.18-2.73-2.635-2.73Zm9.19 0c-1.455 0-2.64 1.22-2.64 2.72 0 1.5 1.18 2.72 2.63 2.72 1.455 0 2.63-1.22 2.63-2.73s-1.18-2.73-2.64-2.73Zm9.19 0c-1.46 0-2.64 1.22-2.64 2.72 0 1.5 1.18 2.72 2.63 2.72s2.63-1.22 2.63-2.73 -1.18-2.73-2.64-2.73Z"/></svg>