<svg viewBox="0 0 24 24" xmlns="http://www.w3.org/2000/svg"><path d="M18.3 9.504c.09.03.125.12.15.22 .46 1.57.46 2.91 0 4.5 -.04.13-.1.21-.17.24 -.11.03-.22-.05-.32-.12L14.89 12.26c-.12-.08-.19-.19-.19-.3 0-.12.06-.22.18-.3l3.06-2.08c.14-.1.24-.14.32-.11Zm-1.13 6.92c-1.14 1.19-2.3 1.86-3.9 2.25 -.14.03-.23.02-.29-.03 -.09-.07-.08-.21-.07-.34l.26-3.689c.01-.15.07-.26.17-.32 .09-.06.22-.05.34.01l3.33 1.61c.15.07.23.15.25.23 .01.09-.05.17-.125.25Zm-5.177-2.327v0c-1.2-.01-2.17-.97-2.17-2.16 0-.73.36-1.41.97-1.81h0c.2-.14.47-.08.6.12s.07.47-.13.6l-.001-.001c-.6.39-.76 1.19-.37 1.78 .23.35.63.57 1.06.57h-.001c.71-.01 1.28-.59 1.28-1.3 -.01-.44-.22-.84-.58-1.08h0c-.2-.15-.24-.42-.1-.62 .13-.19.38-.24.57-.12v0c.99.65 1.27 1.99.61 2.99 -.41.6-1.08.97-1.81.97Zm-.95 4.606c-.08.06-.18.04-.28.01 -1.59-.38-2.76-1.06-3.9-2.25 -.09-.09-.13-.17-.13-.23 0-.02 0-.02 0-.04 .01-.11.14-.17.25-.22l3.33-1.62c.13-.06.25-.07.35-.01 .09.05.15.16.16.3l.27 3.69c.01.17-.02.28-.08.33Zm-5.018-4.33c-.15.1-.25.13-.34.1 -.09-.04-.12-.13-.15-.23 -.47-1.57-.47-2.92-.01-4.5 .04-.14.09-.21.17-.24 .1-.04.21.04.31.11l3.05 2.08c.11.07.18.18.18.29 0 .11-.07.21-.18.3Zm.79-6.832h0c1.138-1.2 2.3-1.87 3.89-2.25 .09-.03.2-.05.27.02 .06.05.09.16.07.33l-.27 3.68c-.01.14-.07.25-.17.3 -.1.05-.23.05-.35-.01L6.92 7.99c-.11-.06-.24-.11-.26-.22 -.01-.08.02-.17.12-.27Zm6.177-2.26c.07-.07.17-.05.27-.03 1.59.38 2.75 1.05 3.89 2.253 .08.08.125.16.125.23l-.01.02c-.03.1-.15.16-.26.21l-3.33 1.61c-.14.06-.26.06-.35.01 -.1-.06-.16-.17-.17-.31l-.27-3.69c-.02-.18.01-.29.07-.34Zm-1-1.28C7.63 4 4.08 7.55 4.08 11.91c0 4.36 3.548 7.91 7.908 7.91s7.91-3.55 7.91-7.91c0-4.361-3.55-7.91-7.92-7.91m0 16.903c-4.955 0-8.99-4.04-8.99-8.994 0-4.958 4.035-8.99 8.99-8.99 4.96-.001 8.99 4.032 8.99 8.99 0 4.96-4.04 8.994-8.993 8.994Zm11.97-9.295l-.01-.04 -.03-.02c-.51-.31-1.18-.49-1.83-.5v0c-.04-.27-.08-.53-.11-.79 .62-.18 1.22-.52 1.64-.95l.02-.02 -.01-.04h0c-.04-.26-.11-.52-.2-.76l-.02-.03 -.04-.01c-.58-.17-1.27-.16-1.9 0v0c-.1-.25-.2-.49-.3-.73 .55-.34 1.04-.82 1.33-1.34l.01-.03 -.02-.04v-.001c-.11-.24-.24-.47-.39-.68l-.02-.03h-.04c-.59-.02-1.25.16-1.84.48 -.06-.07-.43-.57-.49-.64 .45-.47.8-1.07.94-1.64l0-.04 -.03-.03v0c-.17-.21-.35-.4-.55-.56l-.03-.02 -.04 0c-.59.14-1.17.49-1.64.94l-.64-.5c.31-.56.49-1.2.49-1.78l-.01-.08 -.03-.02v0c-.21-.16-.44-.29-.68-.39l-.03-.01 -.03.01c-.53.29-1 .77-1.34 1.33l0 0c-.26-.11-.51-.21-.76-.32 .07-.32.12-.64.12-.958V1.37c0-.32-.04-.63-.13-.94l-.01-.03 -.04-.02V.37c-.24-.1-.49-.17-.75-.21l-.04-.01 -.03.02c-.43.41-.77 1.014-.95 1.63V1.8c-.27-.04-.54-.08-.8-.11 -.01-.647-.19-1.31-.5-1.825l-.02-.03h-.04V-.16c-.26-.03-.53-.03-.78 0h-.04l-.02.03c-.31.51-.48 1.173-.49 1.824 -.09.01-.72.08-.81.1C9.81 1.16 9.47.57 9.04.14L9.01.11l-.04 0c-.23.03-.55.12-.75.2l-.03.01 -.01.03 0-.001c-.09.3-.13.62-.13.94 0 .31.05.64.12.95 -.08.03-.69.29-.77.32 -.34-.56-.82-1.05-1.34-1.34l-.03-.02 -.04.01c-.2.08-.49.25-.68.393l-.03.01v.08c0 .58.18 1.22.49 1.781 -.07.05-.52.41-.59.46 -.47-.45-1.06-.8-1.65-.95l-.03-.01 -.03.02c-.18.13-.42.37-.56.54l-.02.02 0 .03c.14.58.49 1.17.944 1.64 -.05.06-.45.58-.5.65 -.57-.32-1.23-.51-1.83-.5l-.03 0 -.02.02 -.001 0c-.16.21-.29.43-.4.67l-.02.02 .01.02c.28.51.77 1 1.33 1.34 -.03.08-.26.63-.3.718C1.42 8 .74 8 .17 8.16l-.04 0 -.02.02c-.09.2-.18.516-.21.75l-.01.03 .02.02c.41.42 1.01.76 1.64.94l-.11.79c-.649.01-1.318.18-1.828.49l-.03.01 -.004.03H-.42c-.03.25-.03.52 0 .78l.004.03 .028.01c.51.3 1.173.48 1.827.49 .01.09.1.72.11.81 -.625.18-1.22.52-1.64.95l-.03.02 0 .03c.03.23.122.55.2.75l.01.03 .02.01c.579.16 1.263.15 1.89 0 .03.08.278.64.31.72 -.56.33-1.05.81-1.34 1.33l-.02.03 .01.03c.08.2.256.49.39.67l.02.02 .02 0c.59 0 1.25-.17 1.83-.49 .05.06.44.57.49.64 -.45.46-.798 1.05-.95 1.63l-.01.03 .02.02c.137.17.37.41.55.55l.02.02 .03-.01c.58-.15 1.17-.49 1.641-.95l.64.49c-.31.56-.49 1.21-.49 1.79v.06l.03.02c.17.13.46.29.67.39l.03.01 .03-.02c.52-.29 1-.78 1.34-1.35l.71.28h0c-.09.3-.13.62-.13.94 0 .33.04.65.12.94l0 .03 .03.01c.19.08.51.17.75.2l.03 0 .02-.03c.43-.42.77-1.02.93-1.64 .09.01.72.1.81.11 .01.65.18 1.31.49 1.82l.01.02 .03 0c.22.02.56.02.78 0l.03-.01 .01-.03c.3-.51.47-1.18.49-1.83 .08-.02.68-.1.77-.11 .17.63.51 1.22.94 1.64l.02.02 .03-.01c.23-.04.55-.13.75-.21l.02-.02 .01-.03c.08-.3.12-.62.12-.95 0-.32-.05-.65-.13-.96 .08-.03.65-.28.73-.32 .34.55.82 1.04 1.33 1.34l.02.01 .03-.01c.2-.09.5-.26.67-.4l.02-.02v-.09c0-.58-.18-1.22-.49-1.78l.61-.48c.47.45 1.064.79 1.64.94l.03 0 .02-.03c.17-.14.41-.38.55-.55l.02-.03 -.02-.03c-.15-.58-.49-1.17-.94-1.65 .05-.07.43-.58.48-.65 .57.31 1.23.49 1.82.48h.03l.02-.03v0c.15-.21.28-.44.39-.68l.01-.03 -.02-.03c-.29-.51-.77-1-1.33-1.346l.29-.72c.63.16 1.314.16 1.89 0l.02-.01 .01-.03c.08-.21.17-.52.2-.75l0-.04 -.03-.03c-.42-.44-1.02-.77-1.64-.95 .01-.09.09-.68.1-.77 .65-.01 1.32-.19 1.83-.49l.02-.02 0-.04c.01-.11.02-.25.02-.39s-.01-.28-.02-.39"/></svg>