<svg viewBox="0 0 24 24" xmlns="http://www.w3.org/2000/svg"><path d="M0 9.953h7.81v4.09H-.01Zm4.58 3.38h2.07l-1.31-.94 .05-.01v0c.21 0 .41-.09.56-.24v0c.15-.17.24-.38.25-.61 0-.17-.03-.3-.09-.42v0c-.05-.11-.13-.21-.22-.29v0c-.09-.08-.19-.14-.3-.17v0c-.11-.04-.22-.06-.33-.06H1.13l-.01 2.68h1.97v-.88h.4Zm-.53-2.064c.08 0 .15.03.21.09v0c.04.05.07.12.07.19h-.001c0 .07-.03.14-.08.2v0c-.05.05-.12.09-.19.1H3.13v-.6Zm4.03-1.32h7.81v4.09H8.07Zm6.375 1.33v-.64h-5.08v.63h1.49v2.04h2.11v-2.05Zm1.71-1.34h7.81v4.09h-7.82Zm6.42 3.38v-.62h-2.91v-2.064h-2.26v2.68Z"/></svg>