<svg viewBox="0 0 24 24" xmlns="http://www.w3.org/2000/svg"><path d="M7.52 7.781c-.19 0-.39.01-.59.03l.11.35c.17-.02.351-.03.52-.03h.06l-.12-.37Zm2.31.35l-.03.4c.2.06.39.13.58.21l.02-.41c-.06-.03-.21-.11-.59-.22Zm-4.99.23l0 0c-.17.08-.32.16-.48.26l.28.42c.15-.1.3-.19.46-.27l-.28-.42Zm2.89.02h0c-.22-.01-.44 0-.66.02 -.45.04-.91.16-1.38.375 -1.42.61-2.88 1.91-3.84 3.51 -.96 1.59-1.291 3-1.4 3.6 -.04.2-.05.31-.05.31h4.79s-.06-.26-.1-.68v0c-.03-.25-.04-.49-.04-.74 0-.55.05-1.21.24-1.86 .04-.17.1-.33.16-.49 .06-.17.14-.33.22-.48 .17-.32.38-.62.64-.9s.58-.53.96-.74c.24-.12.69-.37 1.346-.49 .21-.05.45-.07.71-.08 .26-.01.54.01.84.06 .6.09 1.298.32 2.07.74 .38.21.798.47 1.22.78 .11-.09.21-.17.21-.17s-.2-.2-.55-.49c-.35-.29-.86-.68-1.47-1.05 -.31-.19-.65-.37-1-.54v0c-.37-.18-.75-.32-1.13-.44v0c-.41-.13-.82-.22-1.23-.27v0c-.22-.03-.43-.05-.64-.05Zm2.08 1.65l-.03.38c.2 0 .4.03.6.07l.02-.375v0c-.2-.05-.4-.07-.61-.08Zm-1.42.14c-.21.06-.39.12-.54.19l.13.41c.17-.09.35-.16.52-.22l-.14-.4Zm-6.01.02c-.16.15-.31.3-.45.45l.46.4c.12-.17.26-.33.41-.48l-.43-.38Zm4.34.89c-.14.12-.266.26-.375.4l.29.43c.1-.16.22-.29.35-.43l-.274-.42Zm.98.78v4.323h1.16v-1.05l1 1.04h1.721l-1.36-1.37s1.06-.09 1.06-1.46c0-1.37-1.29-1.5-1.29-1.5H7.67Zm5.29.03c-.85 0-1.13.76-1.13 1.12v3.16h1.18v-.76h1.11v.75h1.14v-3.17c0-.93-.84-1.13-1.13-1.13h-1.19Zm2.85 0v4.29h1.23v-4.29h-1.23Zm1.73 0v4.291h2.88v-1.11h-1.66v-3.19h-1.23Zm4.35 0c-.49 0-1.14.39-1.14 1.14v.38c0 .74.64 1.12 1.13 1.12 1.36 0-.33 0 .93 0v.53l-2.01 0v1.09h1.98c.4 0 1.1-.3 1.12-1.13v-.43c0-.71-.59-1.13-1.13-1.13h-.99v-.51h1.95v-1.11h-1.88Zm-16.295.87h-.001c-.08.21-.14.44-.19.66l.49.38c.02-.24.06-.48.13-.71l-.44-.35Zm7.77.15h.4c.32 0 .33.23.33.23v1.05h-1.11v-1.05s0-.24.37-.24Zm-4.55.03h.93s.26.09.26.49c0 .39-.27.49-.27.49h-.93v-.99Zm-8.59.06c-.12.26-.25.56-.31.72l.69.25c.08-.21.2-.51.3-.73l-.7-.26Zm5.09 1.96c.01.32.04.58.07.76l.726.26 0-.001c-.07-.26-.11-.53-.15-.79l-.66-.24Z"/></svg>