<svg viewBox="0 0 24 24" xmlns="http://www.w3.org/2000/svg"><path d="M2.42 10.42c-.52 0-1.1.31-1.45.61l.02.04c.556-.39 1.33-.65 1.54-.27 .11.2-.08.6-.35.92 .06-.15.02-.42-.36-.42 -.63 0-1.851.82-1.851 1.67 0 .33.23.56.622.56 1.03 0 2.44-1.7 2.44-2.551 0-.31-.18-.59-.633-.59Zm8.73.71v1.9h.45v-.31l.34-.23 .62.53h.62l-.91-.77 .891-.6h-.68l-.9.61v-1.17Zm-7.47.19v1.71h.45v-.55h.98l.54.54h.58l-.59-.58v-.001c.14-.03.28-.1.39-.2H6.02c.09-.1.14-.23.14-.36v0c0-.18-.09-.34-.23-.44 -.16-.11-.37-.16-.64-.16Zm-1.86.2c.29 0 .274.26.1.49l-.1.1c-.345.34-.67.52-.88.52v-.01c-.18 0-.265-.14-.22-.3 .09-.33.69-.82 1.096-.82Zm17.22.09v0c-.01-.01-.01-.01-.02 0v0c-.14-.01-.28.02-.41.06v0c-.11.03-.21.08-.3.16v-.18h-.45v1.9h.45v-.72 -.001c.08.07.18.13.29.16v0c.12.04.26.06.39.06v0c.17 0 .33-.03.49-.1v-.001c.13-.06.25-.15.34-.26v0c.16-.23.16-.55 0-.77v0c-.1-.12-.22-.21-.35-.26v0c-.16-.07-.32-.1-.49-.1Zm-9.133 0l-.001 0c-.01-.01-.01-.01-.02 0v0c-.16-.01-.31.02-.44.09h0c-.12.05-.22.14-.29.25v-.3h-.44V13h.45v-.57 0c-.01-.1.02-.2.08-.28l-.001-.001c.05-.08.13-.14.22-.17v0c.09-.04.2-.06.31-.06l-.001-.001c.09-.01.18.01.26.06l-.001 0c.07.03.13.09.18.16v0c.04.07.06.16.06.24v.59h.45v-.67 -.001c0-.15-.04-.3-.12-.42v0c-.08-.12-.19-.21-.32-.26h-.001c-.14-.06-.28-.09-.43-.09Zm6.66 0v0c-.18-.01-.36.03-.53.09l0-.001c-.15.05-.27.14-.37.26v0c-.09.1-.14.24-.14.37h-.001c-.01.13.04.27.13.38h-.001c.1.12.23.21.38.26 .16.06.36.09.59.09v0c.13 0 .27-.01.41-.03 .12-.02.25-.05.39-.09v-.33 0c-.14.03-.27.06-.4.08v0c-.14.02-.27.03-.4.03 -.18 0-.33-.03-.45-.08s-.2-.12-.23-.22l1.56 0v-.08 -.001c0-.16-.05-.3-.14-.42v0c-.1-.13-.22-.22-.36-.27v0c-.17-.07-.34-.1-.52-.1Zm7.38 0h-.001c-.2-.01-.4.03-.59.11 -.17.07-.28.16-.35.28v-.34h-.45v1.359H23v-.5 0c-.01-.12.05-.24.14-.31v0c.1-.09.22-.15.35-.18h-.001c.13-.04.27-.06.41-.06Zm-9.66 0l-.001-.001c-.18-.01-.36.03-.53.09h-.001c-.15.05-.27.14-.37.26v-.001c-.09.1-.14.24-.14.37v-.001c-.01.14.04.27.13.38v-.001c.1.12.23.21.38.26 .16.06.36.09.59.09v0c.13 0 .27-.01.41-.03 .12-.03.25-.05.39-.09v-.33h-.001c-.14.03-.27.06-.4.08h0c-.14.02-.27.03-.4.03 -.18 0-.33-.03-.45-.08s-.2-.12-.23-.22l1.56 0v-.08 -.001c0-.16-.05-.3-.14-.42v-.001c-.1-.13-.22-.22-.36-.27v0c-.17-.07-.34-.1-.52-.1Zm6.95 0V11.6c-.18-.01-.36.03-.53.09v0c-.15.05-.27.14-.37.26v0c-.09.1-.14.24-.14.37v-.001c-.01.14.04.27.13.38v0c.1.12.23.21.38.26 .16.06.36.09.59.09v-.001c.13 0 .27-.01.41-.03 .12-.03.25-.05.39-.09v-.33c-.15.03-.28.06-.4.08v0c-.14.02-.27.03-.4.03h-.001c-.16 0-.31-.03-.45-.08 -.12-.05-.2-.12-.23-.22l1.56 0v-.08 -.001c0-.16-.05-.3-.14-.42v0c-.1-.13-.22-.22-.36-.27v0c-.17-.07-.34-.1-.52-.1Zm-17.142.05h1.15v0c.1-.01.2.01.3.05v0c.07.02.11.09.11.17 0 .08-.04.14-.12.17H5.53c-.1.04-.2.06-.31.05h-1.15Zm3.83 0v.64 0c0 .07-.03.15-.07.22h0c-.06.06-.12.11-.2.14H7.65c-.1.03-.19.05-.29.05v0c-.1 0-.2-.02-.28-.06H7.08c-.08-.04-.15-.09-.2-.15H6.88c-.05-.07-.08-.15-.07-.22v-.65h-.46v.64 0c-.01.14.04.28.12.4v0c.08.12.21.21.35.26 .15.06.32.09.53.09 .2 0 .38-.04.532-.1H7.88c.13-.06.26-.15.35-.27v0c.08-.12.12-.27.12-.41v-.65Zm6.343.24c.14 0 .25.02.35.08h0c.08.04.15.12.17.21h-1.09v-.001c.02-.1.09-.18.18-.22 .1-.06.22-.08.37-.08Zm2.27 0c.14 0 .25.02.35.08v0c.08.04.15.12.17.21h-1.09v0c.02-.1.09-.18.18-.22 .1-.06.22-.08.37-.08Zm4.68 0c.14 0 .25.02.35.08v0c.08.04.15.12.17.21h-1.09v0c.02-.1.09-.18.18-.22 .1-.06.22-.08.37-.08Zm-2.3.03h0c.09 0 .19.01.29.05v0c.07.02.14.07.2.14v0c.04.05.07.13.07.2v0c0 .07-.03.15-.07.21H19.4c-.06.06-.13.11-.21.14v0c-.11.03-.21.05-.32.05v0c-.11 0-.21-.02-.31-.05v0c-.09-.03-.17-.08-.23-.14v0c-.06-.06-.09-.14-.09-.23v0c-.01-.09.02-.17.08-.22h0c.06-.07.14-.11.22-.14h0c.09-.04.2-.05.3-.05v0c0-.01.01-.01.02 0Z"/></svg>