<svg viewBox="0 0 24 24" xmlns="http://www.w3.org/2000/svg"><path d="M23.83 11.7l-1.01-.63v0c-.01-.1-.02-.2-.03-.3l.86-.81v0c.13-.14.14-.36.01-.5 -.04-.04-.08-.07-.13-.09l-1.11-.42 -.001 0c-.03-.1-.06-.2-.09-.29l.69-.96 0 0c.11-.16.07-.38-.08-.49 -.05-.04-.1-.06-.15-.07l-1.17-.19V6.94c-.05-.09-.1-.18-.15-.27l.49-1.08V5.59c.05-.11.03-.24-.03-.34l-.001 0c-.07-.1-.19-.16-.31-.16l-1.19.04V5.13c-.07-.08-.13-.16-.19-.23l.27-1.153v0c.04-.19-.08-.38-.26-.42 -.06-.02-.11-.02-.16-.01l-1.16.27V3.59c-.08-.07-.16-.13-.23-.19l.04-1.19v0c0-.19-.14-.36-.33-.37 -.06-.01-.12 0-.17.03l-1.08.49c-.09-.05-.18-.1-.27-.15l-.2-1.17v0c-.04-.19-.22-.32-.41-.29 -.06 0-.11.02-.15.05l-.96.69 -.001-.001c-.1-.04-.19-.06-.29-.09L14.45.29V.29c-.07-.18-.27-.27-.45-.21 -.05.01-.1.04-.13.08l-.81.86 0 0c-.1-.02-.2-.03-.3-.03l-.63-1.01V-.02c-.11-.17-.32-.22-.48-.12 -.05.02-.09.06-.12.11l-.63 1 0-.001c-.1 0-.2.01-.3.02L9.79.11v0c-.14-.14-.35-.15-.49-.02 -.04.03-.07.08-.09.13l-.42 1.1c-.1.02-.2.05-.29.08L7.54.7v0c-.16-.12-.38-.08-.49.08 -.04.04-.06.09-.06.14l-.2 1.16 0 0c-.09.04-.18.09-.27.14l-1.08-.5H5.44c-.18-.08-.38-.01-.46.17 -.03.04-.04.1-.04.15l.04 1.18V3.22c-.08.06-.16.12-.23.18l-1.16-.28v0c-.19-.05-.38.07-.42.25 -.02.05-.02.1 0 .15l.27 1.15c-.07.07-.13.15-.19.22l-1.19-.05h0c-.2-.01-.36.14-.36.33 -.01.05 0 .1.03.15l.49 1.07v0c-.05.08-.1.17-.15.26L.9 6.83V6.83c-.19.03-.32.21-.29.4 0 .05.02.1.05.14l.69.95 -.001 0c-.04.09-.06.19-.09.28l-1.11.41 0 0c-.18.06-.27.26-.21.44 .01.04.04.09.08.12l.86.8 -.001 0c-.02.09-.03.19-.03.29l-1.01.62h0c-.17.09-.22.3-.12.47 .02.04.06.08.11.11l1 .62c0 .09.01.19.02.29l-.87.8v0c-.14.13-.15.34-.02.48 .03.03.08.06.13.08l1.1.41c.02.09.05.19.08.28l-.7.95H.57c-.12.15-.08.36.07.48 .04.03.09.05.15.06l1.16.18c.04.08.09.17.14.26l-.5 1.07H1.59c-.08.17-.01.37.17.45 .04.02.1.03.15.03l1.18-.05c.06.07.12.15.18.22l-.28 1.15v0c-.05.18.07.37.25.41 .05.01.1.01.15-.01l1.153-.28c.07.06.15.12.22.18l-.05 1.18V21.1c-.01.18.13.35.32.35 .05 0 .11-.01.16-.04l1.07-.49c.08.04.17.09.26.14l.19 1.16v0c.03.18.21.31.4.28 .05-.01.1-.03.14-.06l.95-.7H8.2c.09.03.18.05.28.08l.41 1.1h0c.06.17.26.27.44.2 .05-.02.09-.05.13-.1l.8-.87c.09.01.19.02.29.02l.62 1v0c.1.16.31.21.47.11 .04-.03.08-.07.11-.12l.62-1.01c.09-.01.19-.02.29-.03l.8.86v0c.13.13.35.14.49.01 .03-.04.06-.08.08-.13l.41-1.11h0c.09-.03.19-.06.28-.09l.95.69v0c.15.11.36.07.48-.08 .03-.05.05-.1.06-.16l.19-1.17c.08-.05.17-.1.26-.15l1.07.49v0c.17.07.38 0 .45-.18 .02-.05.03-.11.03-.16l-.05-1.19v0c.07-.07.15-.13.22-.19l1.15.27v0c.18.04.37-.08.41-.26 .01-.06.01-.11 0-.16l-.28-1.16c.06-.08.12-.16.18-.23l1.18.04v0c.18 0 .35-.14.36-.33 0-.06-.01-.12-.04-.17l-.49-1.08c.04-.09.09-.18.14-.27l1.16-.19v0c.18-.04.31-.22.28-.41 -.01-.06-.03-.11-.06-.15l-.7-.96 .08-.29 1.1-.42v0c.17-.07.27-.27.2-.45 -.02-.06-.05-.1-.09-.14l-.87-.81c.01-.1.02-.2.02-.3l1-.63v-.001c.16-.1.21-.31.11-.48 -.03-.05-.07-.09-.12-.12Zm-6.75 8.35v0c-.39-.09-.63-.47-.55-.86 .08-.39.45-.63.84-.55v0c.38.07.63.45.56.83 -.08.38-.46.63-.84.56 -.01-.01-.02-.01-.03-.01Zm-.35-2.32v0c-.36-.08-.7.14-.78.49 -.01 0-.01 0-.01 0l-.36 1.66c-1.11.5-2.33.77-3.62.77v0c-1.28 0-2.54-.28-3.7-.82l-.36-1.67H7.89c-.08-.36-.42-.58-.77-.5 -.01 0-.01 0-.01 0l-1.48.31v0c-.28-.29-.53-.59-.77-.9h7.16c.08 0 .13-.02.13-.09v-2.54c0-.08-.06-.09-.14-.09h-2.1v-1.61h2.26c.2 0 1.1.05 1.39 1.2 .09.35.28 1.5.42 1.87 .13.41.68 1.23 1.26 1.23h3.57v0c.04-.01.08-.01.12-.02v0c-.25.33-.52.65-.82.95ZM6.81 20h0c-.39.08-.77-.16-.86-.54 -.09-.39.15-.77.53-.86 0-.01.01-.01.02-.01v0c.38-.08.76.17.83.56 .07.37-.17.74-.54.83ZM4.09 8.97v0c.17.35.02.78-.34.95 -.36.17-.79.02-.96-.34 -.01-.02-.02-.03-.02-.04v0c-.15-.37.02-.79.39-.94 .34-.15.74.01.91.35Zm-.84 1.98l1.53-.69v0c.32-.15.47-.53.33-.86 -.01-.01-.01-.01-.01-.01l-.32-.72h1.24v5.6H3.51l0-.001c-.31-1.09-.41-2.23-.29-3.35Zm6.73-.55V8.74h2.96c.15 0 1.07.17 1.07.86 0 .57-.72.78-1.3.78Zm10.75 1.48c0 .21-.01.43-.03.65h-.9c-.09 0-.13.05-.13.14v.41c0 .97-.55 1.18-1.03 1.23 -.46.05-.97-.2-1.03-.48 -.28-1.52-.72-1.85-1.44-2.41 .88-.56 1.79-1.39 1.79-2.5 0-1.2-.82-1.95-1.38-2.32 -.79-.52-1.65-.62-1.89-.62H5.38 5.37c1.28-1.44 3.01-2.42 4.9-2.77l1.09 1.15h-.001c.24.25.65.26.91.02 0-.01 0-.01 0-.01l1.22-1.18V3.18c2.53.47 4.72 2.03 6 4.27l-.85 1.89v0c-.15.32 0 .71.33.85l1.61.71c.02.28.04.577.04.87Zm-9.31-9.6V2.27c.28-.28.73-.27 1 .02 .27.28.26.73-.03 1 -.01 0-.01 0-.01 0V3.29c-.3.25-.75.22-1.01-.08 -.24-.28-.23-.7.02-.96Zm8.33 6.71v0c.15-.36.57-.53.93-.37 0 0 0 0 0 0v0c.36.15.52.58.36.94 -.16.36-.59.52-.95.36 -.37-.16-.53-.59-.37-.95 0-.01 0-.01 0-.01Z"/></svg>