<svg viewBox="0 0 24 24" xmlns="http://www.w3.org/2000/svg"><path d="M9.847 0c-.718.047-1.47.28-1.99.81 -.8.996-1.7 1.89-2.787 2.48H5.06c-.12.09-.29.09-.4 0 -.1-.3.19-.5.19-.7 .1-.4.2-.9 0-1.4 -.4-.5-1.3-.6-1.99-.5 -.3 0-.6.1-.994.2 -.1 0-.3.09-.3.29 .1.39-.1.89-.2 1.19 -.1.2 0 .29 0 .597 -.1 0 0 .09-.1.09 0 .49.69.29.99.59 0 .1.1.2.1.3 .09.09.09.29.09.39 -.5.79-1.89 1.29-2.29 1.69 -.597.79.49 1.09.49 1.49v.19c0 .49.19.79.19 1.19 .39.99.994 1.89 1.591 2.885 .2.29.4.69.698 1.19 .1.2.19.39.39.49 1.99 1.99 4.67 3.183 6.46 5.17l1.19 1.49c.59.79 1.19 1.59 1.69 2.48 .29.39.49.89.89 1.29 .29-.1.1-.5.1-.7 .09 0-.1-.01 0-.1 -.1-.4-.3-.8-.4-1.2 -.1-.1-.1-.2-.1-.2 -.1-.5-.3-1-.5-1.5 -.4-.8-.7-1.7-1.2-2.49 -.5-.8-1.2-1.593-2.09-2.19v0c-.62-.36-1.16-.84-1.593-1.4 -.6-.8-1.1-1.69-1.6-2.59 -.2-.4-.3-.9-.6-1.3 -.5-.7-1.59-1.1-1.69-1.89 .1-1 .49-1.8 1.09-2.59 1.09-1.492 2.98-2.29 4.97-2.19 2.09-.1 4.08.79 6.36.89 1.19.1 2.48-.1 3.58-.4l.89-.3v0c.96-.33 1.86-.8 2.686-1.4 .19-.1.19-.3.19-.4 -.1-.1-.2 0-.3 0 -.7.1-1.2.39-1.89.39h-1.1c-1.7-.2-3.29-.6-4.78-1.1 -1.8-.5-3.49-1.1-5.38-1.4V-.17c-.24-.03-.47-.04-.7-.02Zm.26 4.685c-.31.05-.51.28-.66.5V5.18c-.8 1.79-1.31 3.71-1.5 5.67 0 .2 0 .49.2.59 0 .1.19.1.19 0 .79-1.89 1.19-3.78 2.29-5.57 .09-.3.49-.6.19-1 -.1-.1-.2-.2-.4-.2V4.67c-.12-.03-.23-.03-.34-.01Zm2.92.5c-.2 0-.2.1-.3.2 -1.1 1.79-1.89 3.87-2.487 5.86 -.3.89-.5 1.89-.3 2.78 0 .1.1.1.2.1s.2-.1.2-.2c.59-2.39 1.98-4.577 3.083-6.77 .19-.6.59-1.093.49-1.79 -.2-.2-.6-.2-.9-.2Zm6.56 0c-.4.1-.7.49-.8.79 -1 2.487-2.39 4.775-3.49 7.16 -.8 2.18-1.79 4.279-1.89 6.666 0 .2 0 .39.2.59 .1 0 .19.1.19 0 .29-.5.39-1.096.59-1.7 .69-1.89 1.39-3.78 2.48-5.57 1.29-2.09 2.88-4.08 3.68-6.37 .1-.4.29-.7.1-1.1 -.2-.3-.6-.4-1.1-.5Zm-3.29.09c-.4.1-.6.399-.8.69 -.5 1.09-1.1 1.99-1.6 3.08 -1.2 2.189-1.79 4.477-2.09 6.964 0 .29 0 .69.1.99 .09 0 .29 0 .29-.1 .19-.7.39-1.4.59-1.99 .89-3.09 2.98-5.58 4.27-8.456 .1-.2.29-.7 0-.9 -.2-.1-.5-.2-.8-.3Z"/></svg>