<svg viewBox="0 0 24 24" xmlns="http://www.w3.org/2000/svg"><path d="M5.38 8.88l0 0c-.52.01-1.03.04-1.54.1 -1.15.14-1.54.64-1.54 1.87 0 .97.25 1.44.9 1.66 .31.1.84.15 1.74.15h1.69v0c.3-.01.61-.01.923.01 .37.03.56.21.56.52 0 .54-.25.6-2.43.6l-.001-.001c-.4 0-.79-.02-1.18-.07 -.28-.07-.34-.18-.36-.64H2.29v.35c0 .87.29 1.31.988 1.49 .45.12 1.07.15 2.47.15l0-.001c.86.01 1.72-.02 2.58-.1 1.17-.13 1.61-.64 1.61-1.87 0-.64-.13-1.1-.38-1.38 -.29-.34-.67-.45-1.59-.49 -.5-.02-.87-.03-.98-.03H5.23v-.001c-.25.01-.49 0-.73-.04h0c-.25-.04-.43-.25-.42-.49 0-.34.16-.48.62-.51 .28-.02 1.117-.05 1.69-.05 1.26 0 1.44.07 1.44.6h1.8c0-1.07-.21-1.49-.83-1.72 -.48-.18-.96-.22-2.76-.22l0 0c-.26-.01-.52-.01-.78-.01Zm11.22.04l-3.47 6.15h2.12l.59-1.1h3.96l.6 1.09h2.04L19.07 8.9Zm1.23 1.31l1.33 2.45h-2.65ZM-.02 11.98v0c-.01-3.4 2.75-6.16 6.14-6.16 2.65-.01 5.01 1.7 5.84 4.22v0c1.06-3.23 4.54-4.99 7.77-3.92 3.22 1.06 4.98 4.54 3.91 7.77 -1.07 3.22-4.55 4.98-7.78 3.91 -1.86-.62-3.31-2.07-3.92-3.92v-.001c-1.07 3.22-4.55 4.98-7.77 3.92 -2.53-.84-4.24-3.19-4.23-5.85Z"/></svg>