<svg viewBox="0 0 24 24" xmlns="http://www.w3.org/2000/svg"><path d="M0 0v24h24V0Zm11.517 4.723c.56-.01 1.13-.01 1.69.06 2.41.05 4.853 2.18 4.879 4.5h-3.32c0-.7-.61-1.56-1.279-1.74 -1.11-.27-2.46-.36-3.43.29 -.74.44-1.07 1.67-.1 2.05 2.28 1.08 5.15.84 7.22 2.372 1.69 1.21 1.59 3.66.27 5.08 -1.718 1.84-4.64 2.13-7.099 1.782 -2.45-.12-4.755-2.25-4.819-4.57h3.31c-.06.83.63 1.55 1.46 1.82 1.27.27 2.72.35 3.93-.19 .96-.33 1.02-1.55.28-2.11 -1.6-.9-3.57-.93-5.3-1.52 -2.02-.39-3.65-2.28-3.26-4.2 .42-2.35 3.12-3.73 5.54-3.681Z"/></svg>