<svg viewBox="0 0 24 24" xmlns="http://www.w3.org/2000/svg"><path d="M23.98 5.1V5.09c-.07-.17-.25-.24-.41-.18 -.01 0-.01 0-.01 0l-2.34.81 0 0c-1.03.34-2.07.61-3.13.82 -2.17.39-3.72-1.34-3.72-1.34v0c-.09-.11-.24-.15-.36-.11v0c-.16.05-.31.1-.46.17v0c.24-1.7.82-3.33 1.7-4.8 .1-.11.1-.27 0-.38v0c-.1-.13-.27-.17-.41-.12L14.83-.04c-1.48.73-2.88 1.6-4.2 2.6 -2.88 2.236-4.48 4.51-4.68 6.79 -.15 1.85 1.07 3.07 2.24 4.19l.2.19h-.001c.4 1.18.3 2.48-.29 3.59 -1.05 2.3-3.36 4.31-6.26 5.39 -.92.34-1.68.59-1.68.59 -.16.05-.25.21-.21.37H-.05c.04.13.16.22.3.22h.07l-.001 0c2.27-.56 4.48-1.35 6.59-2.36l.59-.3c3.71-1.94 5.7-4.2 5.92-6.69 .15-1.59-.79-2.66-1.8-3.6 1.29-1.8 5.49-3.23 5.52-3.23l4.14-1.44c1.32-.42 2.34-.83 2.39-.85l-.001 0c.15-.05.24-.22.19-.38 -.01-.02-.02-.04-.02-.05Zm-11.02.52v0c-1.36.64-2.56 1.57-3.52 2.72h0c-.2-.49-.28-1.02-.23-1.55 .15-1.71 1.98-3.7 2.26-4l0-.001c.89-.64 1.83-1.23 2.79-1.76l0-.001c-.74 1.42-1.19 2.97-1.35 4.56ZM5.24 21.73l0-.001c1.5-1.04 2.71-2.45 3.51-4.1h-.001c.43-.9.62-1.89.55-2.88H9.29c.59.6.9 1.41.86 2.25 -.23 2.18-2.93 3.74-2.95 3.76 -.65.34-1.32.65-2 .94Zm7.6-7.15c-.15 1.71-1.25 3.17-2.75 4.38v0c.38-.57.61-1.21.67-1.89 .15-1.64-.99-2.78-2.12-3.87 -1.13-1.1-2.19-2.16-2.07-3.73 .15-1.84 1.3-3.48 2.69-4.86v0c-.41.64-.67 1.37-.77 2.12 -.21 2 1.14 3.24 2.31 4.34 1.16 1.09 2.11 1.96 1.98 3.47Zm-1.66-4.02v0c-.55-.47-1.03-1-1.46-1.58 1.09-1.76 3.59-2.91 4.32-3.2v0c.77.75 1.77 1.24 2.84 1.39 -.62.22-4.35 1.53-5.73 3.36Z"/></svg>