<svg viewBox="0 0 24 24" xmlns="http://www.w3.org/2000/svg"><path d="M16.73.31C13.17.26 8.93 1.99 5.442 5.33c-.87.83-1.61 1.72-2.28 2.64H6.2l-.71 2.01H1.86c-.35.63-.68 1.266-.93 1.9h4.3l-.69 2.016H.3c-.724 3.07-.262 5.95 1.559 7.77 3.54 3.53 11.01 2.29 16.59-3.05 .97-.93 1.78-1.94 2.51-2.96h-3.91l.59-2.013h4.56c.33-.64.64-1.28.88-1.92h-5l.55-2.01h5.05c.62-2.917.13-5.62-1.64-7.39C20.69.97 18.8.3 16.66.27Zm-1.05 4.71h4.96L20 7.95h-3.01c-.33 0-.46.05-.6.2 -.05.05-.07.11-.09.23l-1.64 6.22c-.39 2.17-3.07 4.35-6.555 4.35h-4.86l.84-3.2h3.11l-.001-.001c.29 0 .58-.13.77-.35 .07-.09.17-.24.19-.38l1.295-5.44c.38-2.19 2.686-4.592 6.177-4.592Z"/></svg>