<svg viewBox="0 0 24 24" xmlns="http://www.w3.org/2000/svg"><path d="M15.6 5.53c-1.91.03-3.981.91-5.63 2.56 -2.93 2.93-2.09 8.53-1.09 9.52 .8.8 6.59 1.843 9.526-1.09v0c.2-.21.39-.43.58-.65 .04-.3.2-.66.48-1.11v0c-.17.08-.36.14-.54.17 -.15.26-.37.55-.68.85 -.36.33-.61.55-.76.65v0c-.13.09-.28.14-.44.15 -.35 0-.52-.31-.5-.93 -.22.31-.43.54-.62.7v0c-.17.13-.37.21-.58.22 -.2 0-.36-.09-.5-.28v0c-.11-.15-.18-.33-.2-.51l0 0c-.22.22-.47.41-.73.58 -.23.13-.47.19-.74.19 -.3 0-.55-.1-.73-.29h0c-.14-.15-.23-.33-.26-.53v0c-.3.27-.57.48-.79.61v0c-.2.12-.42.19-.65.19v0c-.23 0-.44-.1-.58-.28 -.15-.19-.22-.43-.22-.74 0-.47.1-1.02.3-1.67 .2-.65.44-1.25.73-1.8l.84-.32v0c.01-.01.03-.02.06-.02 .06 0 .11.04.15.14 .04.09.06.22.06.38 0 .45-.11.88-.32 1.31 -.21.42-.532.87-.98 1.35 -.02.23-.03.38-.03.47 0 .19.03.34.1.45 .07.11.16.16.28.16v0c.13-.01.26-.06.38-.13 .13-.09.33-.26.6-.53 .02-.42.18-.8.48-1.15 .32-.38.68-.57 1.08-.57 .2 0 .37.05.49.16h0c.12.1.19.25.18.41 0 .45-.49.82-1.46 1.11 .08.43.32.64.69.64v-.001c.14-.01.29-.05.41-.12 .12-.08.32-.25.57-.5 .03-.26.11-.5.25-.73 .18-.3.41-.55.7-.73 .28-.19.53-.28.75-.28 .27 0 .47.12.58.38l.67-.38h.18l-.3.97c-.15.48-.23.82-.23 1 0 .19.06.28.2.28 .08 0 .18-.05.28-.14 .1-.1.25-.24.43-.42v0c.14-.16.27-.32.39-.5 -.19-.09-.29-.21-.29-.375 0-.17.05-.36.17-.55 .11-.2.27-.29.47-.29 .17 0 .25.08.25.26 0 .13-.05.33-.15.59 .36-.04.68-.32.96-.85l.22-.01c1.05-2.44.82-5.08-.83-6.74 -1.02-1.02-2.41-1.5-3.9-1.471Zm4.72 8.2v0c-.35.77-.79 1.5-1.34 2.151v0c-.01.04-.02.09-.02.14 0 .16.04.3.14.42 .09.11.2.17.34.17 .29 0 .71-.27 1.25-.79 -.01.04-.01.08-.01.12 0 .14.01.36.03.66l.73-.18c0-.2 0-.36.01-.48 .01-.16.03-.33.06-.52 .02-.11.07-.22.15-.32l.18-.22v0c.11-.14.24-.28.37-.4 .06-.06.11-.1.16-.13h-.001c.03-.03.07-.05.12-.05 .05 0 .08.03.08.1s-.06.23-.16.49c-.2.48-.3.84-.3 1.08 0 .17.04.31.13.41h-.001c.08.1.22.16.35.15 .36 0 .8-.27 1.31-.81v-.39c-.37.42-.63.64-.79.64 -.11 0-.17-.07-.17-.2 0-.1.06-.32.19-.65 .19-.49.28-.84.28-1.05H23.4c0-.12-.04-.24-.12-.32h0c-.08-.09-.18-.13-.29-.13 -.17 0-.36.07-.57.23 -.22.15-.5.43-.87.84 .05-.27.16-.63.33-1.08l-.81.15v0c-.17.34-.3.7-.4 1.07 -.04.15-.07.31-.1.48v-.001c-.16.15-.33.3-.49.45h-.001c-.07.05-.15.07-.23.08v0c-.07 0-.14-.03-.18-.09v0c-.05-.07-.07-.15-.07-.23 0-.1.01-.22.05-.35 .03-.13.12-.38.24-.74l.3-.85ZM3.11 10.8c-.87-.02-1.67.26-2.27.85 -1.36 1.35-1.07 3.82.63 5.52 1.7 1.7 4.95 1.21 5.52.63 .46-.47 1.07-3.83-.64-5.53 -.96-.96-2.16-1.47-3.27-1.49Zm12.285.35h.16v.21h-.17Zm.42 0h.16v.86l.46-.46h.19l-.37.36 .42.68h-.2l-.36-.58 -.17.16v.41h-.17Zm1.01 0h.16v.21h-.17Zm.48.12h.16v.28h.17v.13h-.18v.71c0 .03 0 .06.02.07 .01.01.03.02.07.02v0c.02 0 .05-.01.07-.01v.14 0c-.05 0-.1.01-.14.01v0c-.06 0-.11-.02-.15-.05v0c-.04-.04-.06-.08-.06-.13v-.79h-.15v-.14h.14Zm-3.57.25c.08 0 .15.01.2.03 .05.02.1.06.13.11 .03.04.04.1.04.17h-.18c-.01-.12-.08-.17-.21-.17v0c-.06-.01-.12.01-.17.04v0c-.04.02-.07.07-.06.11 0 .03.01.06.04.08 .03.02.08.04.15.06l.16.03v0c.08.01.16.05.22.1 .04.04.07.1.07.18v0c0 .06-.02.12-.06.17v0c-.04.05-.1.09-.16.11v0c-.08.02-.15.04-.23.04 -.14 0-.24-.03-.31-.09s-.11-.15-.11-.27h.17c0 .03.01.06.01.08v0c0 .02.01.03.03.05 .04.04.11.06.2.06V12.4c.06 0 .12-.02.17-.05v0c.04-.03.06-.08.06-.12v0c0-.04-.02-.07-.04-.09h0c-.04-.03-.08-.05-.13-.06l-.16-.04v0c-.06-.02-.11-.03-.16-.05v0c-.04-.02-.07-.04-.1-.07H13.3c-.03-.03-.05-.06-.06-.09h-.001c-.02-.04-.02-.08-.02-.11 0-.1.03-.18.1-.24v0c.08-.07.18-.1.29-.09Zm1.03 0v0c.06-.01.13.01.2.04v0c.08.04.15.11.18.21v0c.01.04.02.08.02.12h-.17v0c-.01-.07-.04-.13-.08-.17v0c-.05-.05-.11-.07-.17-.06v0c-.06-.01-.12.01-.16.05h-.001c-.05.03-.09.08-.1.14v0c-.03.07-.04.14-.04.22h0c-.01.07 0 .14.03.21h0c.02.05.05.1.1.13v0c.04.03.1.04.15.04 .14 0 .22-.09.25-.26h.16v0c-.01.07-.03.15-.07.22v0c-.04.05-.09.1-.15.13h-.001c-.07.03-.15.04-.22.04h-.001c-.09 0-.18-.03-.25-.07v0c-.08-.05-.13-.12-.17-.2v0c-.04-.1-.06-.2-.06-.3 0-.09.01-.17.03-.24h-.001c.01-.07.05-.13.09-.19v0c.03-.06.09-.1.15-.12h0c.06-.03.12-.05.19-.04Zm.6.03h.16v1.04h-.17Zm1.44 0h.16v1.04h-.17Zm-5.05.61c-.08 0-.2.2-.36.61 -.16.4-.31.97-.46 1.71 .28-.32.5-.67.68-1.05 .17-.39.26-.72.26-1v0c0-.07-.01-.14-.04-.2 -.03-.05-.06-.08-.1-.08Zm4.66 1.79c-.23 0-.44.18-.63.56 -.2.37-.3.72-.3 1.03 0 .12.02.21.08.29v0c.05.07.13.11.22.11 .22 0 .43-.19.625-.57 .19-.38.29-.73.29-1.05v0c0-.11-.03-.21-.09-.29v0c-.06-.07-.14-.11-.23-.11Zm-2.85 0c-.15 0-.29.11-.42.33 -.14.22-.2.51-.2.86 .56-.16.84-.46.84-.89 0-.22-.08-.32-.24-.32Z"/></svg>