<svg viewBox="0 0 24 24" xmlns="http://www.w3.org/2000/svg"><path d="M24 19.05l-.14-1.78c-1.43.77-2.95 1.07-4.465 1.07 -3.32 0-5.96-2.79-5.96-6.48 0-3.91 2.59-6.31 5.63-6.31 1.91 0 3.39.3 4.79 1.07l.14-1.76c-1.29-.61-2.34-.89-4.698-.89 -4.54 0-7.97 3.53-7.97 8.017 0 5.12 4.09 7.92 7.9 7.92 1.91 0 3.5-.26 4.76-.89ZM9.046 15.59c0-2.22-1.97-3.23-3.86-4.35 -1.48-.89-3.039-1.5-3.039-3.14 0-1.22.88-2.55 2.642-2.55 1.51 0 2.57.23 3.9 1.029l.11-1.85c-1.24-.52-2.13-.75-4.137-.75C1.782 3.97.03 5.84.03 8.23c0 2.38 2.1 3.41 4.02 4.58 1.42.86 2.92 1.45 2.92 2.99 0 1.49-1.34 2.57-2.93 2.57 -1.57 0-2.594-.35-3.786-1.08l-.29 1.84c1.21.56 2.45.81 4.16.81 2.385 0 4.88-1.48 4.88-4.4Z"/></svg>