<svg viewBox="0 0 24 24" xmlns="http://www.w3.org/2000/svg"><path d="M24 6.22v0c0 1.22-1 2.22-2.23 2.22h-8.89v0c-1.23 0-2.23-1-2.23-2.23s.99-2.23 2.22-2.23h8.89c1.22 0 2.22.99 2.22 2.22Zm-7.34 9.334H7.77v-.001c-1.23 0-2.23.99-2.23 2.22 0 1.22.99 2.22 2.22 2.22h8.89v0c1.22-.01 2.22-1 2.22-2.23 -.01-1.23-1-2.23-2.23-2.23Zm0-5.78H13.1h0c-1.23 0-2.23.99-2.23 2.22 0 1.22.99 2.22 2.22 2.22h3.55v0c1.22-.01 2.22-1 2.22-2.23 -.01-1.23-1-2.23-2.23-2.23ZM2.21 15.54v-.001c-1.23-.01-2.23.99-2.23 2.22 -.01 1.22.99 2.22 2.22 2.22 0 0 0 0 0 0v0c1.22-.01 2.22-1 2.22-2.23 -.01-1.23-1-2.23-2.23-2.23Z"/></svg>