<svg viewBox="0 0 24 24" xmlns="http://www.w3.org/2000/svg"><path d="M1.71 2.85l-.001 0c-.95-.01-1.72.76-1.72 1.7 -.01 0-.01 0-.001 0v6.85c0 .95.765 1.71 1.714 1.71h-.001c.94 0 1.71-.77 1.71-1.71 0-.01 0-.01 0-.01V4.53v0c0-.95-.77-1.72-1.71-1.72 -.01-.01-.01-.01-.01 0Zm6.857 0v-.001c-.95-.01-1.72.76-1.72 1.7 -.01 0-.01 0 0 0v1.14c0 .95.76 1.71 1.71 1.71v0c.94 0 1.71-.77 1.71-1.71 0-.01 0-.01 0-.02v-1.15 0c0-.95-.77-1.72-1.71-1.72 -.01-.01-.01-.01-.02 0Zm6.85 0v-.001c-.95-.01-1.72.76-1.72 1.7 -.01 0-.01 0-.01 0v14.859c0 .95.76 1.71 1.71 1.71h0c.94 0 1.71-.77 1.71-1.71 0-.01 0-.01 0-.01V4.538v0c0-.95-.77-1.72-1.71-1.72 -.01-.01-.01-.01-.01 0Zm6.85 0v-.001c-.95-.01-1.72.76-1.72 1.7 -.01 0-.01 0-.01 0v6.85c0 .95.76 1.71 1.71 1.71h-.001c.94 0 1.71-.77 1.71-1.71 0-.01 0-.01 0-.01V4.52v0c0-.95-.77-1.72-1.71-1.72 -.01-.01-.01-.01-.01 0Zm-13.72 8v0c-.95-.01-1.72.76-1.72 1.7 -.01 0-.01 0 0 0v6.85c0 .95.76 1.71 1.71 1.71V21.1c.94 0 1.71-.77 1.71-1.71 0-.01 0-.01 0-.01V12.53v0c0-.95-.77-1.72-1.71-1.72 -.01-.01-.01-.01-.01 0ZM1.69 16.56v0c-.95-.01-1.72.76-1.72 1.7 -.01 0-.01 0 0 0v1.14c0 .95.765 1.71 1.714 1.71L1.68 21.1c.94 0 1.71-.77 1.71-1.71 0-.01 0-.01 0-.01v-1.15 0c0-.95-.77-1.72-1.71-1.72 -.01-.01-.01-.01-.02 0Zm20.57 0v0c-.95-.01-1.72.76-1.72 1.7 -.01 0-.01 0 0 .01v1.14c0 .95.76 1.71 1.71 1.71l-.001 0c.94 0 1.71-.77 1.71-1.71 0-.01 0-.01 0-.01v-1.15 0c0-.95-.77-1.72-1.71-1.72 -.01-.01-.01-.01-.01-.01Z"/></svg>