<svg viewBox="0 0 24 24" xmlns="http://www.w3.org/2000/svg"><path d="M11.22 22.68c-.27-1.01-.53-2-.78-2.96 .27-.14.49-.24.79-.39 1.23-.53 2.43-1.14 3.55-1.9 1.39-.96 2.69-2.02 3.83-3.27 .89-.99 1.63-2.07 2.05-3.35 .28-.85.42-1.72.29-2.61 -.11-.75-.375-1.42-.8-2.04 -.51-.75-1.17-1.32-1.98-1.73 -1.01-.51-2.09-.7-3.2-.67 -1 .02-1.95.24-2.88.58 -1.71.62-3.28 1.51-4.79 2.52 -.44.29-.85.63-1.2 1.03 -.2.21-.34.46-.4.74 -.11.48.17.85.67.88 .34.01.65-.12.96-.27 .94-.45 1.79-1.05 2.68-1.6 .72-.46 1.45-.9 2.25-1.22 .78-.32 1.59-.49 2.44-.35 .92.15 1.67.59 2.12 1.44 .31.59.34 1.22.17 1.87 -.2.73-.62 1.32-1.12 1.87 -.7.75-1.49 1.38-2.372 1.89 -.93.54-1.85 1.1-2.79 1.59 -1.11.58-2.29.99-3.5 1.34 -1.02.29-2.04.42-3.09.33 -.88-.08-1.71-.34-2.44-.85 -.659-.46-1.15-1.07-1.44-1.82 -.455-1.17-.44-2.35-.15-3.54C.4 8.84 1.09 7.68 1.93 6.59c.63-.83 1.37-1.55 2.17-2.22 1.12-.95 2.317-1.8 3.59-2.524 .43-.246.87-.48 1.28-.702l.42.86c-.39.2-.76.4-1.13.6 -1.6.88-3.06 1.96-4.36 3.24 -.71.69-1.31 1.48-1.76 2.36 -.48.92-.73 1.91-.62 2.95 .12 1.14.661 2.02 1.71 2.55 .63.31 1.3.4 1.99.39 .95-.03 1.85-.3 2.74-.62 1.32-.48 2.56-1.14 3.76-1.87 .7-.43 1.4-.86 2-1.44 .31-.31.63-.62.79-1.04 .28-.76-.13-1.41-.93-1.49 -.44-.05-.84.1-1.23.28 -1.03.47-1.95 1.125-2.91 1.71 -.74.45-1.47.89-2.28 1.2 -.56.21-1.14.35-1.74.28 -1.04-.12-1.69-.94-1.58-1.98 .08-.82.48-1.49 1.02-2.08 .59-.66 1.28-1.2 2.02-1.67 1.141-.73 2.29-1.428 3.53-1.99 1.43-.65 2.9-1.16 4.49-1.3 1.14-.11 2.27-.04 3.39.25 .98.25 1.89.67 2.71 1.28 .81.6 1.46 1.34 1.95 2.22 .44.79.7 1.65.77 2.55 .07.95-.04 1.89-.32 2.8 -.27.89-.64 1.74-1.13 2.53 -.7 1.1-1.51 2.11-2.45 3 -.97.91-1.94 1.81-3.04 2.57 -1.43.98-2.92 1.85-4.53 2.51 -.43.17-.86.35-1.31.54"/></svg>