<svg viewBox="0 0 24 24" xmlns="http://www.w3.org/2000/svg"><path d="M19.61 15.412c-.62 2.91-2.74 4.15-7.43 4.15 -11.54 0-7.45-9.28-5.84-11.186 .67-.85 1.15-1.553 2.87-1.553h3.27c4.567 0 5.43.21 6.58 2.55 .61 1.25.97 3.971.53 6.03m1.23-5.79c-.39-2.5-.89-5.202-3.06-6.706 -1.31-.911-2.67-.99-4.177-.99 -1.03 0-4.666-.05-6.257-.05C5.78 1.86 4.73.58 4.73-.04 3.72 1.2 2.95 2.56 3.22 4.21 3.46 5.69 4.48 6.64 5.97 6.83 4.28 9.21 2.75 11.96 2.82 14.86c.04 1.83.46 9.1 8.686 9.1H13c3.5 0 5.63-2.61 6.25-3.62 1.82-2.97 2.122-7.548 1.53-10.764Z"/></svg>