<svg viewBox="0 0 24 24" xmlns="http://www.w3.org/2000/svg"><path d="M23.17.81C15.52-.29 8.39-.29.79.81 -.28 8.369-.28 15.41.79 22.93c3.71.54 7.42 1.05 11.205 1.05 3.74 0 7.45-.51 11.17-1.02 1.1-7.56 1.1-14.61 0-22.17h0ZM11.63 19.12c-2.06 0-4.23-.69-5.18-1.2l.8-3.13c1.06.7 2.68 1.39 4.44 1.39 1.39 0 2.24-.44 2.24-1.31 0-.62-.44-.98-1.58-1.26l-2.279-.64c-2.42-.66-3.56-1.891-3.56-3.86 0-2.37 1.83-4.26 5.61-4.26 1.99 0 3.97.54 5.07 1.09l-.96 2.97c-1.11-.62-2.79-1.13-4.23-1.13 -1.37 0-1.95.43-1.95 1.09 0 .61.4.87 1.29 1.09l2.48.734c2.56.73 3.7 1.96 3.7 3.885 -.08 2.7-2.47 4.51-5.96 4.51l0-.03Z"/></svg>