<svg viewBox="0 0 24 24" xmlns="http://www.w3.org/2000/svg"><path d="M21.5 13.25l-4.16-4.23v-.001c-1.17-1.21-3.1-1.24-4.3-.07 -.03.02-.05.04-.07.06l-3.3 3.34v0c-.47.47-1.24.48-1.71.01 -.01-.01-.01-.01-.02-.02l-1.64-1.66 4.15-4.23v0c2.52-2.58 6.65-2.63 9.23-.11 .03.03.07.06.1.1l4.15 4.22ZM8.82 19.47h-.001c-1.76 0-3.45-.71-4.68-1.97l-4.16-4.22 2.48-2.53 4.15 4.21H6.6c1.18 1.2 3.11 1.22 4.32.03 .01-.02.02-.03.03-.04l3.29-3.35v0c.46-.48 1.23-.49 1.7-.02 0 0 0 0 .01.01l1.63 1.65 -4.15 4.22v0c-1.23 1.25-2.92 1.95-4.68 1.95Z"/></svg>