<svg viewBox="0 0 24 24" xmlns="http://www.w3.org/2000/svg"><path d="M13.91 2.5c-.88-1.448-2.98-1.448-3.85 0L6.89 7.91v0c4.91 2.45 8.16 7.32 8.53 12.81h-2.23l-.001-.001c-.37-4.7-3.2-8.86-7.43-10.92L2.84 14.85h0c2.37 1.06 4.04 3.27 4.435 5.84H2.17v0c-.21-.02-.36-.19-.34-.39 0-.06.01-.1.04-.15l1.41-2.41 0-.001c-.48-.4-1.03-.71-1.62-.92l-1.4 2.4v0c-.61 1.04-.26 2.37.78 2.98 0 0 .01.01.02.01l0-.001c.33.18.7.28 1.08.28h6.98 0c.26-3.26-1.2-6.42-3.85-8.32l1.11-1.93 0 0c3.34 2.29 5.22 6.19 4.95 10.24h5.91v0c.28-6.14-2.73-11.96-7.89-15.28l2.24-3.85 -.001-.001c.1-.18.32-.24.5-.13 .25.14 9.75 16.708 9.928 16.9h0c.09.17.03.39-.15.49 -.06.03-.13.04-.19.04h-2.29c.02.61.02 1.22 0 1.83h2.29 0c1.21 0 2.21-.98 2.21-2.2 0-.4-.11-.78-.3-1.12Z"/></svg>