<svg viewBox="0 0 24 24" xmlns="http://www.w3.org/2000/svg"><path d="M12 0C5.37 0-.01 5.371-.01 12c0 6.625 5.374 12 12.001 12 6.62 0 12-5.375 12-12 0-6.629-5.38-12-12-12M9.87 16.736c-1.29 0-2.58-.43-3.57-1.29 -1.22-1.05-1.94-2.48-2.029-4.03 -.09-1.5.42-2.95 1.436-4.07 1.14-1.27 3.18-3.23 3.27-3.31 .55-.532 1.43-.52 1.96.04 .53.55.51 1.439-.05 1.971 -.03.02-2.061 1.97-3.14 3.16 -.508.56-.77 1.28-.72 2.02 .04.78.42 1.529 1.07 2.08 .84.73 2.51.891 3.55-.05 .61-.56 1.37-1.38 1.38-1.39 .52-.57 1.4-.61 1.96-.09s.6 1.4.08 1.96c-.04.03-.86.92-1.58 1.57 -1.01.9-2.34 1.35-3.67 1.35m8.41-.1c-1.15 1.26-3.19 3.22-3.28 3.3 -.27.25-.62.38-.96.38 -.37 0-.74-.15-1.01-.43 -.54-.56-.52-1.439.04-1.971 .02-.02 2.06-1.98 3.13-3.17 .5-.57.76-1.29.71-2.03 -.05-.79-.43-1.529-1.07-2.09 -.85-.73-2.51-.9-3.56.04 -.63.55-1.38 1.37-1.38 1.38 -.53.56-1.4.6-1.97.08 -.57-.53-.61-1.404-.09-1.971 .03-.04.85-.93 1.57-1.58 1.97-1.78 5.221-1.82 7.22-.08 1.21 1.05 1.93 2.48 2.02 4.025 .09 1.49-.42 2.94-1.44 4.06"/></svg>