<svg viewBox="0 0 24 24" xmlns="http://www.w3.org/2000/svg"><path d="M12 0C5.373 0 0 5.373 0 12v0c0 .29.01.58.03.88 1.07-.45 2.49-.68 4.32-.68h5.76c-.17.61-.548 1.08-1.15 1.436 -.532.3-1.14.46-1.83.46H6.2c-.89 0-1.67.15-2.32.46 -.859.4-1.286 1-1.286 1.78 0 .89.59 1.59 1.774 2.1l0-.001c.92.38 1.92.58 2.92.58 1.31 0 2.41-.29 3.29-.87 1.02-.67 1.53-1.62 1.53-2.86 0-.86-.33-2.08-.98-3.676 -.65-1.6-.98-2.84-.98-3.73 0-2.79 2.3-4.24 6.91-4.33 .64-.01 1.33-.01 1.91-.01 .593 0 1.14.05 1.66.14l-.001 0c-2.27-2.39-5.41-3.73-8.7-3.73Zm4.75 5.691c-1.21 0-1.81.5-1.81 1.5 0 .51.35 1.665 1.06 3.45 .71 1.78 1.064 3.186 1.064 4.198 0 2.16-1.202 3.79-3.61 4.875 -1.8.79-3.9 1.19-6.297 1.19 -1.27 0-2.45-.12-3.543-.32H3.61c2.24 2.17 5.24 3.39 8.36 3.39 6.62 0 12-5.38 12-12v0c-.01-1.46-.27-2.9-.79-4.26v0c-.24.3-.52.56-.84.77h-4.38l1.42-2.83 -.001-.001c-.9-.01-1.79-.01-2.69 0Z"/></svg>