<svg viewBox="0 0 24 24" xmlns="http://www.w3.org/2000/svg"><path d="M.27 0v.15c0 4.69 3.033 8.751 7.33 10.434v2.73C3.3 14.974.27 19.004.27 23.75v.23h4.08v-.24c0-2.46 1.27-4.63 3.24-5.94v6.166h3.16v-7.384c.4-.07.82-.1 1.234-.1 .42 0 .83.03 1.23.1v7.384h3.16v-6.148c1.92 1.31 3.16 3.46 3.16 5.916v.23h4.16v-.24c0-4.7-3.04-8.751-7.34-10.434v-2.74C20.64 8.88 23.68 4.85 23.68.1v-.16h-4.09v.15c0 2.45-1.28 4.62-3.24 5.934V-.06h-3.17V7.24c-.41.06-.83.1-1.24.1v0c-.42-.01-.83-.04-1.24-.11V-.07H7.53V6C5.6 4.68 4.36 2.53 4.36.08v-.16Zm10.49 11.358c.82.08 1.64.08 2.46 0v1.205h0c-.83-.09-1.65-.09-2.47 0Z"/></svg>