<svg viewBox="0 0 24 24" xmlns="http://www.w3.org/2000/svg"><path d="M2.8 0c-.03.02.03.11.18.29 .09.11.15.23.23.44 .05.15.11.31.14.34 .03.04.03.03.04-.12V.78l.21.3c.33.45.53.69.67.79 .07.04.11.09.09.09 -.05.01-.48-.23-.68-.38 -.11-.08-.2-.15-.22-.15 -.02 0-.07-.05-.11-.11 -.04-.06-.14-.15-.21-.19 -.18-.12-.36-.3-.4-.374C2.7.68 2.61.64 2.61.69c0 .04.24.377.43.57 .58.62 1.17.93 2.76 1.42 .33.1.63.2.66.23 .02.02.07.03.1.03s.07.01.1.03c.03.02.03.03-.01.03s-.06.01-.05.05c0 .05.15.1.44.14 .12.01.15.01.15-.03 0-.05-.09-.09-.23-.09 -.05 0-.09-.02-.09-.04s.03-.03.07-.02c.03 0 .16.03.28.05 .27.04.35.07.35.13s.08.09.13.04c.03-.03.04-.03.04-.01 0 .01.01.03.03.03 .01 0 .03-.03.03-.05 0-.06-.04-.06.48.02 .3.04.42.07.37.09 -.1.03-.05.08.09.08 .07 0 .11.01.11.03 0 .02.07.03.24.01 .15-.02.25-.01.26.01 .01.01.06.02.11.01s.19 0 .31.02c.3.05 1.13.1 2.97.16 2.98.1 5.15.32 5.97.61 .36.12.9.4 1 .5 .15.16.2.3.18.53 -.01.11-.01.21 0 .22 .08.08.28-.09.28-.26 0-.04.06-.12.14-.19 .33-.3.38-.46.34-1.12 -.03-.45-.04-.48-.24-1.14 -.27-.86-.33-1-.64-1.33 -.37-.39-.71-.61-1.16-.77 -.12-.04-.35-.13-.53-.19 -.25-.1-.43-.15-.79-.2 -.52-.08-1.62-.13-1.96-.1 -.13.01-.62 0-1.15-.04C13.57.11 13.19.1 13.1.12c-.08.01-.21.02-.3.03 -.13 0-.19.01-.3.09 -.13.09-.22.11-.57.17 -.57.09-.93.16-1.09.21 -.12.04-.32.07-.62.08 -.84.05-1.31.09-1.41.129 -.08.02-.35.02-.8.01 -.55-.02-.69-.01-.72.02 -.03.03-.02.03.05.03 .18 0 1.79.12 1.81.14 .01.01-.28 0-1.1-.05C7.8.96 7.59.96 7.57.97c-.06.03-.5.03-.92-.02C6.13.89 5.63.81 5.17.69 4.95.63 4.7.59 4.52.58 4.19.56 3.84.45 3.34.2 3.01.03 2.97.03 2.97.16v.1l-.1-.13c-.06-.07-.13-.17-.15-.24 -.06-.12-.27-.328-.3-.31Zm.45 3.18c-.57.02-1.1.47-1.47 1.26 -.23.47-.27.65-.28 1.29 -.02.49-.01.59.06 1.01 .15.86.19.96.5 1.27 .33.33 1.16.78 1.62.88 .15.03.34.07.41.09 .25.06.61.08 1.48.1 .84.01.91.01 1.02-.05 .07-.04.24-.08.49-.09 .2-.02.41-.05.47-.07 .05-.02.18-.04.27-.04 .09 0 .19-.02.2-.04 .07-.08.42-.16.75-.17 .18-.01.36-.03.39-.05 .1-.06.05-.09-.12-.07 -.1 0-.19 0-.23-.02 -.05-.04-.04-.04.08-.04 .07 0 .22-.01.33-.03 .16-.02.18-.03.13-.06 -.12-.09-.02-.11.49-.11 .45 0 .58-.03.45-.08 -.03-.01-.15-.03-.26-.03 -.12-.01-.17-.02-.12-.02 .05-.01.16-.03.25-.05 .08-.02.62-.04 1.19-.05 .57-.01 1.05-.02 1.07-.02 .02 0 .03-.03.02-.07 -.02-.05-.01-.07.02-.07 .02 0 .08-.05.12-.11 .09-.12.11-.12.15.04l.02.1 .22 0c.17 0 .23-.01.29-.05 .03-.04.12-.07.18-.08l.11-.03 -.02.17c-.02.14-.02.17.02.15 .02-.01.12-.04.22-.06l.17-.04 -.07-.09c-.05-.05-.13-.1-.2-.12l-.13-.04 .18-.01h0c.1-.01.2-.01.3 0 .06 0 .11-.01.11-.03 0-.02-.02-.04-.04-.04 -.03-.01-.09-.01-.15-.01 -.06-.01-.16-.04-.22-.08s-.14-.07-.16-.07c-.04 0-.06-.02-.06-.04 0-.03.09-.04.25-.03 .24 0 .25 0 .26.09 .01.09.01.09.07.06v0c.02-.01.03-.04.03-.06 -.02-.05.03-.09.08-.06 .01 0 .09.02.15.02 .16 0 .97.07 1.18.09 .11.01.15.03.15.06 0 .05.03.05.08 0 .02-.03.14-.03.43 0 .35.03.4.04.4.09 0 .03.02.05.07.05 .03 0 .16.01.28.02 .11.01.23.01.25 0 .02-.01.08-.1.15-.21 .11-.2.22-.33.26-.33 .01 0 .01.02 0 .04 -.02.02-.01.04.01.04s.03.02.02.05c-.01.03.02.05.09.07 .11.02.16.05.08.05 -.03 0-.06.01-.06.03 0 .02.18.09.44.18 .28.09.44.16.44.18 0 .03-.1 0-.36-.08 -.63-.22-.9-.27-.9-.16 0 .04.04.06.28.12 .15.03.3.06.32.06 .02 0 .07.03.12.07 .04.04.29.14.56.23 .27.09.51.19.56.23 .04.03.13.09.19.11 .19.08.46.33.67.6 .3.4.29.38.13.38 -.08 0-.3-.03-.49-.05 -.19-.03-.43-.05-.53-.05 -.22-.01-1.97.02-2.63.04l-.45.01 -.08-.16c-.04-.09-.16-.23-.26-.34 -.18-.18-.19-.18-.23-.12 -.03.03-.12.16-.21.28l-.17.22 -.2 0c-.12 0-.23 0-.26 0 -.07-.01-.08.03-.01.14l.04.08 -.32.02c-.86.05-2.67.28-3.27.4 -.14.02-.43.04-.68.05 -.46 0-.51.01-.8.18 -.06.02-.1.03-.13.01 -.04-.03-.07-.02-.09.01 -.04.03-.15.05-.96.14 -.18.01-.48.05-.67.08 -.34.05-.35.05-.53 0 -.19-.06-.76-.14-1.25-.17l-.28-.03 -.17.14c-.1.07-.22.21-.29.3 -.1.12-.15.16-.2.16 -.13 0-1.25.17-2.06.32 -.88.15-1.21.19-1.47.13 -.27-.06-.28-.06-.26-.4 .01-.29 0-.3-.07-.34 -.17-.09-.34-.04-.56.16 -.06.04-.12.06-.2.06 -.08-.01-.2.03-.31.07l-.181.08 0 .15c0 .08-.01.18-.03.21 -.03.03-.04.19-.02.46 .01.32 0 .44-.04.6l-.06.19 .14.2c.29.41.5.72.5.76 0 .01.09.11.2.21 .5.44.72.56 1.21.66 .52.11.61.1.94-.07 .15-.09.32-.2.38-.26 .07-.08.3-.2.742-.39 .67-.31.76-.34.76-.3 0 .01.04.42.09.91 .1 1.02.14 2 .09 2.75 -.04.59-.07.67-.49 1.45 -.65 1.21-1.43 2.39-2.008 3.04 -.11.11-.27.32-.36.45 -.17.25-.49.59-.871.94 -.14.11-.22.22-.21.24 0 .02.1.07.21.11 .1.03.2.08.22.09 .04.04.11.03.33-.1l.22-.13 .08.06c.1.07.3.07.46.01 .06-.03.19-.06.28-.06 .19-.02.31-.08.51-.23 .07-.06.16-.11.21-.12 .08-.02.85-.8 1.26-1.29 .12-.16.45-.5.72-.76 .37-.38.54-.52.76-.65 .3-.19.55-.41.58-.54 .01-.05.05-.15.09-.22 .09-.17.2-.58.17-.69 -.01-.05-.06-.15-.11-.24 -.08-.15-.09-.2-.11-.59 -.03-.69-.14-1.06-.49-1.6 -.21-.32-.26-.43-.38-.83 -.21-.7-.27-1.35-.17-1.87 .04-.26.07-.29.27-.41 .1-.07.24-.17.31-.23l.12-.12 .59-.07c.32-.04.69-.09.81-.12 .11-.03.38-.08.58-.12 .2-.05.49-.12.64-.17 .15-.06.36-.12.47-.14 .21-.05.94-.12.97-.1 0 0 .01.44.01.97 0 .82-.01 1.05-.08 1.66 -.12 1.04-.15 1.37-.18 2.52 -.03 1.14-.04 1.19-.23 1.33 -.14.09-.28.08-.69-.11 -.21-.09-.63-.27-.96-.4 -.32-.13-.78-.33-1.01-.45 -.24-.12-.43-.21-.43-.2 0 0 .11.15.26.33 .14.17.26.32.26.33 0 0-.03.01-.07.01 -.06 0-.06 0-.02.06 .02.03.03.1.02.16 -.02.08-.01.11.05.15 .04.02.1.1.14.17 .03.06.1.14.14.17 .04.03.09.1.13.16 .03.05.13.16.23.23 .09.07.19.16.21.2 .01.04.1.11.21.16 .24.12.59.43.65.57 .03.08.1.15.29.28 .15.1.43.34.73.64 .55.55.58.57 1.04.54 .29-.03.44-.08.61-.24 .07-.07.15-.14.18-.15 .03-.02.1-.11.16-.2 .05-.1.14-.2.19-.23 .12-.08.35-.41.35-.51 0-.16.05-.26.26-.45 .17-.17.21-.23.32-.5 .17-.42.23-.69.28-1.23 .06-.67.06-1.47-.02-1.97 -.13-.82-.61-3.09-.75-3.55 -.12-.38-.24-.87-.24-1.01 0-.04.06-.04.31-.03 .23.01.41 0 .67-.04 .31-.05.42-.05.75-.02 .21.01.39.03.39.04 .02.02.49 1.55.57 1.87 .16.64.16.68.2 2.29 .01.84.03 1.84.03 2.22 0 .64.01.71.08.99 .09.35.2.59.42.91 .08.12.22.34.3.48 .15.28.35.52.61.71 .33.26.66.47.86.56 .24.11.43.28.63.55 .07.11.19.26.25.33s.13.19.17.26c.05.12.07.13.4.23 .15.04.57.05.81.01 .13-.03.18-.06.39-.26 .28-.28.42-.47.42-.61 0-.22.03-.28.15-.33 .07-.04.11-.07.11-.11 0-.2-.21-.98-.31-1.18 -.07-.14-.95-1.33-1.686-2.29 -.79-1.02-1.061-1.46-1.23-1.94 -.06-.17-.25-1.28-.38-2.15 -.09-.63-.27-1.24-.54-1.93 -.1-.24-.16-.43-.15-.43 .07 0 1.65.44 1.74.48 .05.03.29.15.52.28 .23.13.45.23.49.23 .04 0 .23.1.46.26l.38.26 .2-.02c.29-.03.34-.04.46-.13 .17-.12.27-.14.41-.08 .26.12.45.14.28.03 -.25-.17-.27-.26-.13-.47 .16-.26.18-.28.36-.37 .27-.15.29-.18.38-.68 .04-.25.1-.49.12-.54 .07-.15.05-.25-.07-.36 -.07-.06-.17-.2-.24-.3 -.1-.15-.13-.22-.13-.33 0-.12-.02-.15-.11-.2v0c-.07-.05-.15-.08-.22-.11 -.14-.05-.34-.27-.31-.33V9.07c.01-.03.02-.06.03-.09 .02-.07-.23-.2-.47-.26 -.25-.06-.25-.06-.2-.11 .02-.03.02-.13 0-.31 -.1-.84-.44-1.43-1-1.73 -.13-.07-.23-.13-.24-.15 -.06-.09-.79-.37-1.19-.45 -.13-.03-.38-.09-.56-.14 -.18-.05-.46-.11-.61-.12 -.46-.05-1.08-.15-1.28-.22 -.11-.04-.35-.09-.54-.12 -.2-.04-.36-.08-.37-.1 -.02-.02-.09-.02-.19 0 -.12.02-.3.02-.57-.01 -.22-.03-.76-.04-1.2-.04 -.68 0-.86-.01-1.21-.07 -.23-.04-.52-.07-.66-.07 -.34-.01-1.34-.11-1.16-.12 .02 0 .11-.02.2-.04 .14-.04.15-.04.12-.1 -.04-.07-.05-.07-.48-.07 -.37 0-.46 0-.49.04 -.04.03-.07.04-.2.01 -.15-.04-.16-.04-.11-.08 .04-.04.04-.05 0-.08 -.03-.02-.07-.04-.1-.04 -.04 0-1.96-.19-2.76-.28 -.16-.02-.3-.04-.31-.05 -.01-.01 0-.02.03-.02s.05-.02.05-.03c0-.05-.16-.06-.38-.03 -.16.02-.24.02-.28-.01 -.06-.03-.04-.03.09-.02 .29.03.16-.05-.14-.08 -.17-.03-.34-.05-.39-.05v0c-.05-.01-.1-.03-.14-.05 -.04-.02-.37-.08-.75-.13 -.39-.06-.81-.13-.96-.18 -.5-.15-.96-.38-1.22-.61l-.14-.13 .04-.12c.1-.25.22-.39.45-.5 .31-.16.46-.18 1.07-.2 .56-.02.69-.04.62-.12 -.04-.05-.48-.12-.7-.12 -.14 0-.49-.07-.8-.16v0c-.13-.04-.27-.06-.41-.05Zm8.84 2.95h-.001c-.03-.01-.05 0-.07 0 -.19.03-.29.07-.38.15l-.1.07 .14 0c.15 0 .23-.04.35-.14 .07-.07.08-.1.03-.11Zm5.77.95c.03-.01.08 0 .16.03 .09.02.19.04.22.03 .03-.01.06-.01.07.01 .01.02-.04.03-.19.01 -.14-.02-.21-.02-.21 0 0 .01.03.04.08.04 .22.04.26.07.06.05 -.12-.02-.28-.03-.37-.03 -.16 0-.17 0-.18.07 -.01.07-.04.08-.19.11 -.21.03-.18.04-.34-.03 -.14-.07-.45-.15-.82-.2 -.15-.03-.22-.04-.17-.05 .05 0 .33.03.62.07 .54.07.69.09.66.05 -.01-.01-.25-.07-.54-.12l-.52-.11 .3-.01c.26-.01.3 0 .38.06 .06.04.1.05.12.03 .02-.03.11-.03.25-.02 .19.01.24 0 .35-.05 .06-.04.09-.05.13-.06Zm-4.35.51c.01-.01.02 0 .03 0 .01 0 0 .03-.03.04 -.06.03-.09.03-.11 0 -.02-.03.04-.06.09-.06Zm4.98.09c0-.01.01.01.03.03 .02.02.06.05.09.05 .04 0 .05 0 .01.03 -.03.01-.06.02-.07.02 -.07-.01-.1-.05-.1-.1 0-.04 0-.05 0-.05Zm-3.96.18c-.07 0-.11.05-.11.12 0 .01.07.02.15.02 .14 0 .15-.01.11-.06 -.07-.08-.1-.11-.17-.11Zm6.19 1.83c.02-.01.07.01.11.04 .06.05.06.05.01.05 -.09 0-.19-.08-.13-.1Z"/></svg>