<svg viewBox="0 0 24 24" xmlns="http://www.w3.org/2000/svg"><path d="M23.94 10.89v0c-.01-.05-.03-.09-.07-.12 -2.51-2.08-4.53-2.93-7-2.93 -1.32 0-2.32.26-3 .78 -.59.44-.89 1.07-.89 1.81 0 2.06 2.51 3 5.43 4.08 1.5.56 3.05 1.14 4.48 1.93v0c.02.01.05.02.08.02v0c.02-.01.03-.01.05-.02 .04-.02.08-.06.1-.11 .54-1.4.82-2.87.82-4.38v0c-.01-.37-.02-.74-.06-1.11Zm-4.81 10.47c-1.05-.79-2.58-1.39-4.21-2.02 -1.94-.76-4.132-1.61-5.79-2.92 -1.87-1.49-2.78-3.37-2.78-5.74 0-2.13.883-3.95 2.55-5.27 1.87-1.48 4.71-2.26 8.2-2.26 .96 0 1.88.05 2.74.17v0c.07.01.14-.03.17-.1l0 0c.03-.07.01-.16-.05-.21 -2.21-1.99-5.05-3.08-8.02-3.08 -3.21 0-6.22 1.24-8.49 3.51C1.18 5.7-.07 8.71-.07 11.92c0 3.2 1.24 6.21 3.51 8.48 2.26 2.26 5.27 3.51 8.48 3.51 2.59 0 5.05-.82 7.13-2.36v0c.04-.04.06-.09.06-.14v0c0-.06-.03-.11-.07-.14Z"/></svg>