<svg viewBox="0 0 24 24" xmlns="http://www.w3.org/2000/svg"><path d="M16.99 12.167c0-4.808 1.77-7.84 3.9-8.16C18.76 1.39 15.21 0 11.99 0 8.44 0 5.25 1.54 3.06 3.985c2.09.41 2.8 2.174 2.8 4.89H3.29c0-1.61-.34-2.436-1.29-2.436 -.43 0-.758.21-.96.58 -.03.06-.06.12-.09.18H.95c-.08.22-.12.46-.12.71 0 3.32 5.46 3.159 5.46 8.27 0 1.99-1.53 3.85-3.252 3.85 2.26 2.47 5.35 3.95 8.91 3.95 3.46 0 6.57-1.47 8.76-3.808 -2.02-.51-3.78-3.42-3.78-8.025Zm-1.15 7.92h-2.75v-6.83h-2.97v6.83H7.36V4.317h2.74v6.34h2.97V4.309h2.74V20.07ZM2.36 17.57c-1.32 0-2.399-2.32-2.372-5.8 1.9 1.72 3.681 2.11 3.681 4.145 0 .98-.55 1.65-1.31 1.65Zm21.628-5.58c0 2.84-.9 5.4-2.1 5.4 -1.45 0-2.19-2.71-2.19-5.5 0-2.654.77-5.308 2.18-5.308 1.67 0 2.1 4.102 2.1 5.39Z"/></svg>