<svg viewBox="0 0 24 24" xmlns="http://www.w3.org/2000/svg"><path d="M1.478 10.01c.24 0 .59.04 1.046.14v.72h0c-.3-.14-.62-.21-.95-.22 -.41 0-.615.11-.615.35 0 .08.04.16.12.21 .06.04.258.14.56.28 .44.2.74.38.89.54 .17.18.26.41.26.7 0 .41-.18.73-.516.94 -.28.17-.64.26-1.085.26 -.375 0-.76-.05-1.133-.14v-.76c.41.13.774.2 1.09.2 .43 0 .655-.13.655-.37v0c0-.09-.04-.17-.1-.23 -.07-.07-.24-.16-.5-.27 -.49-.21-.8-.39-.94-.53h0c-.2-.2-.3-.46-.29-.73 0-.38.137-.67.41-.87 .27-.2.62-.3 1.064-.3Zm21.19 0c.24 0 .56.04.95.12l.09.01v.72 0c-.3-.14-.63-.21-.95-.22 -.41 0-.62.11-.62.35 0 .08.04.16.12.21 .06.04.25.13.57.28 .44.2.74.38.88.54 .17.18.26.41.26.7 0 .41-.18.73-.52.94 -.28.17-.65.26-1.09.26 -.38 0-.76-.05-1.14-.14v-.76c.4.13.77.2 1.09.2 .43 0 .65-.13.65-.37 0-.09-.03-.17-.1-.23 -.07-.07-.24-.16-.51-.27 -.48-.21-.8-.39-.94-.53v-.001c-.2-.2-.3-.46-.29-.74 0-.38.13-.67.41-.87 .27-.2.62-.3 1.064-.3Zm-12.68.06l.92 2.44 .94-2.45h1.25v3.82h-.968V11.17l-1.08 2.747h-.64L9.35 11.17v2.708h-.72v-3.83Zm-5.587 0v3.82H3.37v-3.83Zm3.55 0v.69H6.31v.86h1.42v.63H6.3v.9h1.67v.73H5.31V10.05Zm8.7 0v.69h-1.64v.86h1.42v.63H15v.9h1.67v.73H14V10.05Zm1.89 0l1.25 2.56v-2.56h.71v3.82h-1.15l-1.29-2.6v2.59h-.72v-3.83Z"/></svg>