<svg viewBox="0 0 24 24" xmlns="http://www.w3.org/2000/svg"><path d="M9.12.35l.27 1.09 -.001 0c-1.07.26-2.08.68-3.02 1.24l-.58-.964 -.001 0C6.818 1.08 7.93.62 9.1.33Zm5.76 0l-.27 1.09v0c1.06.26 2.07.68 3.01 1.24l.58-.964 0-.001c-1.04-.63-2.16-1.09-3.33-1.38ZM1.72 5.79l-.001 0C1.09 6.82.63 7.94.34 9.11l1.09.27h-.001c.26-1.07.68-2.08 1.24-3.02Zm-.6 6.202l-.001-.001c-.01-.55.04-1.1.12-1.63l-1.112-.17 -.001 0c-.18 1.19-.18 2.4 0 3.59l1.112-.17v0c-.09-.54-.13-1.09-.13-1.63Zm17.07 10.27l-.58-.97v0c-.94.56-1.96.98-3.02 1.24l.27 1.09 -.001-.001c1.16-.29 2.28-.76 3.31-1.38Zm4.67-10.28v0c0 .54-.05 1.09-.13 1.63l1.11.16v0c.17-1.2.17-2.41 0-3.6l-1.12.16v0c.08.53.12 1.08.12 1.63Zm.77 2.88l-1.09-.27v0c-.27 1.06-.69 2.07-1.25 3.01l.96.58v-.001c.62-1.04 1.08-2.16 1.37-3.33ZM13.61 22.73v0c-1.08.16-2.18.16-3.26 0l-.17 1.11h0c1.19.18 2.4.18 3.59 0Zm7.12-4.31h0c-.65.87-1.43 1.65-2.31 2.3l.66.9v0c.96-.72 1.82-1.57 2.54-2.535ZM18.42 3.21v0c.87.64 1.65 1.42 2.3 2.3l.9-.68v0c-.72-.97-1.57-1.83-2.54-2.54ZM3.21 5.51l-.001 0c.64-.88 1.42-1.66 2.3-2.31l-.68-.91 0-.001C3.86 3 3 3.85 2.29 4.82Zm19.029.24l-.97.577V6.33c.56.93.98 1.95 1.24 3.01l1.09-.27v0c-.29-1.17-.76-2.29-1.38-3.32ZM10.33 1.19l-.001-.001c1.07-.17 2.17-.17 3.25 0l.17-1.12v0c-1.2-.19-2.41-.19-3.6 0ZM3.78 21.9l-2.33.54 .54-2.33 -1.1-.26 -.542 2.32 -.001 0c-.15.6.23 1.21.83 1.35 .16.03.34.03.51 0l2.32-.532Zm-2.65-3.05l1.09.25 .375-1.61h0c-.55-.92-.96-1.92-1.21-2.96l-1.09.27h0c.24.99.61 1.95 1.1 2.85Zm5.25 2.43l-1.61.375 .25 1.09 1.18-.28H6.2c.89.48 1.85.86 2.85 1.1l.27-1.1v0c-1.04-.26-2.03-.67-2.95-1.22ZM11.95 2.18V2.18c-5.39 0-9.75 4.37-9.75 9.75 0 1.83.51 3.63 1.49 5.18l-.94 4 4-.94v0c4.55 2.86 10.57 1.5 13.44-3.06 2.86-4.56 1.5-10.58-3.06-13.45 -1.56-.99-3.37-1.51-5.21-1.5Z"/></svg>