<svg viewBox="0 0 24 24" xmlns="http://www.w3.org/2000/svg"><path d="M10.09 20.323c-3.98.39-7.414-1.41-7.672-4.02 -.26-2.609 2.75-5.05 6.74-5.45 3.97-.4 7.413 1.404 7.67 4.01 .25 2.6-2.76 5.04-6.737 5.43l-.01 0Zm-1.05-3.11c-.39.61-1.21.88-1.83.6 -.62-.28-.8-1-.41-1.593 .37-.6 1.17-.87 1.79-.61 .62.26.82.97.44 1.59Zm1.27-1.63c-.15.23-.45.35-.69.25 -.24-.09-.32-.37-.18-.59 .13-.23.43-.35.67-.24 .23.09.31.36.18.6l.01-.03Zm.17-2.72c-1.9-.5-4.033.45-4.86 2.11 -.84 1.7-.03 3.59 1.88 4.21 1.98.64 4.31-.35 5.13-2.18 .8-1.8-.21-3.65-2.17-4.15Zm7.56-1.23c-.35-.11-.57-.18-.41-.62 .375-.98.42-1.81 0-2.404 -.79-1.112-2.92-1.06-5.37-.03 0 0-.766.33-.58-.28 .37-1.22.31-2.224-.27-2.81 -1.34-1.34-4.869.04-7.888 3.08 -2.26 2.27-3.57 4.67-3.57 6.74 0 3.98 5.099 6.39 10.086 6.39 6.536 0 10.888-3.81 10.888-6.82 0-1.83-1.55-2.86-2.92-3.29v.01Zm1.9-5.1c-.77-.86-1.91-1.19-2.96-.97 -.44.09-.71.51-.62.93 .09.42.51.69.93.6 .51-.11 1.06.04 1.44.46 .37.42.46.97.31 1.47 -.14.4.08.85.51.99 .4.11.85-.11.99-.52 .33-1.03.12-2.18-.65-3.035l.03.04Zm2.41-2.2c-1.58-1.76-3.91-2.419-6.06-1.97 -.5.1-.82.58-.71 1.081 .1.496.58.81 1.08.7 1.532-.34 3.18.15 4.29 1.38 1.11 1.24 1.42 2.94.94 4.416 -.17.48.1 1 .58 1.157 .47.16.99-.11 1.157-.59 .67-2.09.24-4.48-1.34-6.24l.03.04Z"/></svg>