<svg viewBox="0 0 24 24" xmlns="http://www.w3.org/2000/svg"><path d="M17.029 5.063c-.92-1.916-2.8-3.44-5.12-4.033 -.52-.15-1.06-.2-1.66-.23 -.89 0-1.75.11-2.63.34 -2.2.65-3.75 1.945-4.66 2.947C1.77 5.427 1 6.834.55 8.227c0 .02-.03.05-.03.11 -.03.11-.15.45-.15.54 -.03.05-.03.14-.06.2l-.09.34c0 .02 0 .05-.03.08 -.743 3.69.49 7 1.234 8.23 .18.3.33.56.49.8C.24 9.36 5.08 4.99 10.59 4.88c2.88-.06 5.77 1.11 7.17 3.46 -.09-1.287-.18-2.002-.78-3.32ZM12.539 0c2.57.715 4.91 2.517 5.88 4.72 1.48 3.575 1.14 8.09-.49 10.78 -1.38 2.2-3.49 3.375-5.914 3.34 -3.78-.03-6.83-3.032-6.86-6.808 0-3.776 2.971-6.9 6.85-6.9 .62 0 1.53.08 2.56.516 0 0-.74-.44-2.638-.74 -5.46-.72-11.9 3.42-10.41 12.945 2.057 3.66 6 6.15 10.48 6.122 6.6-.03 12-5.44 11.97-12.08C23.96 5.54 18.79.13 12.5-.04Z"/></svg>