<svg viewBox="0 0 24 24" xmlns="http://www.w3.org/2000/svg"><path d="M.968 9.027l7.71 4.42 -.01 1.32 -4.39-2.52 -2.77 1.57 7.148 4.12 0 1.27 -7.66-4.41c.02.516.488 2.1 1.383 3.33 .91 1.24 1.94 1.77 1.94 1.77l7.078 4.07V11.81L.94 5.81Zm22.064-3.8L15.212.72s-1.24-.73-3.22-.73c-2.06 0-3.25.746-3.25.746L1.5 4.879l11.009 6.32v12.78l7.24-4.14s1.29-.72 2.279-2.42c.86-1.5.97-2.95.97-2.95ZM11.251 7.3s1.61-.3 2.98.49l2.17 1.25s0 1.09 0 2.73c0 1.31-1.112 2.67-1.112 2.67l0-4.82Zm6.4 10.56l-2.36 1.35v-1.27l1.83-1.05c1.74-1.26 2.03-3.12 2.03-3.77l-.01-5.705 -5.006-2.89s-.76-.5-2.13-.5c-1.37 0-2.12.46-2.12.46L8.12 5.5 7.01 4.86l2.42-1.39s.95-.53 2.54-.53c1.46 0 2.6.57 2.6.57l5.65 3.26 -.01 6.226c.04.95-.41 3.29-2.61 4.83Z"/></svg>