<svg viewBox="0 0 24 24" xmlns="http://www.w3.org/2000/svg"><path d="M9.783 6.05v0c-.43-.01-.78.33-.78.76 -.01 0-.01 0-.01 0 0 .42.34.76.77.76v0c.42 0 .76-.34.77-.77v0c-.01-.43-.35-.77-.78-.77 -.01 0-.01 0-.01 0ZM1.89 8.09C.81 8.09.1 8.61.1 9.4c0 .63.381 1.06 1.048 1.22l.83.21c.24.07.34.2.347.39 0 .21-.21.32-.43.33 -.31.01-.54-.16-.554-.43H-.02c.02.8.802 1.36 1.974 1.36 1.1 0 1.82-.52 1.82-1.39 0-.64-.399-1.04-1.057-1.21l-.81-.23c-.274-.09-.369-.21-.369-.38 0-.19.14-.3.33-.32 .27-.04.486.08.486.38v.02h1.39v-.02h-.01c0-.84-.706-1.3-1.89-1.3Zm2.48.11v4.19h1.31v-1.83l1.274 1.82h1.62l-1.63-2.21 1.6-1.98H6.98l-1.31 1.76V8.18Zm4.74 0v4.19h1.31V8.2Zm2.08 0v4.19h3.218v-1.25h-1.9V8.19Zm3.93 0v4.19h3.21v-1.25h-1.9V8.19Zm-13.25 5.308c-1.074 0-1.784.52-1.784 1.31 0 .63.381 1.06 1.048 1.22l.83.21c.24.07.34.2.347.39 0 .21-.21.32-.43.33 -.31.01-.54-.16-.554-.43H-.04c.02.8.802 1.36 1.974 1.36 1.1 0 1.82-.52 1.82-1.39 0-.64-.399-1.04-1.057-1.21l-.81-.23c-.274-.09-.369-.21-.369-.38 0-.19.14-.3.33-.32 .27-.04.486.08.486.38v.01h1.39v-.02h-.01c0-.84-.706-1.3-1.89-1.3Zm9.19.01c-1.22 0-1.99.95-1.99 2.2 0 1.25.72 2.2 1.968 2.2 .58 0 1.1-.29 1.32-.71v.59h1.31v-4.18h-1.32v.59c-.23-.43-.702-.72-1.31-.72Zm8.75 0c-1.36 0-2.253.83-2.253 2.2 0 1.39.875 2.2 2.29 2.2 1.11 0 1.95-.55 2.08-1.37h-1.3c-.12.26-.38.37-.78.37 -.59 0-.96-.3-.98-.85h3.08c.02-.24.03-.37.03-.59 0-1.18-.89-1.99-2.19-1.99Zm-2.87.04c-.51 0-1.01.32-1.16.94v-.88H14.45v4.17h1.327v-1.62c0-.93.38-1.4 1.1-1.4v0c.13-.01.26 0 .39.02l0-1.23v0c-.12-.03-.24-.04-.35-.04Zm-12.59.06v4.19h1.3v-1.49h1.59v1.48h1.3v-4.2h-1.3v1.5H5.65v-1.51Zm15.448.78c.56 0 .87.29.88.85h-1.82c0-.52.35-.85.92-.85Zm-8.38.21c.66 0 .99.49.99 1.093 0 .6-.34 1.1-1 1.1 -.62 0-1-.47-1-1.1 0-.64.38-1.093.99-1.093Zm11.78 1.74v-.001c-.43-.01-.77.33-.78.76 -.01 0-.01 0-.01 0 0 .42.34.76.77.76v0c.42 0 .76-.34.77-.77 0-.01 0-.01 0-.01v0c-.01-.43-.35-.77-.78-.77 -.01 0-.01 0-.01 0Z"/></svg>