<svg viewBox="0 0 24 24" xmlns="http://www.w3.org/2000/svg"><path d="M19.82 11.27l-5.997-3 5.99-3c.28-.14.45-.42.45-.734v0c0-.32-.18-.6-.46-.74L12.343.06V.06c-.24-.12-.51-.12-.74 0L4.148 3.78v0c-.28.13-.46.42-.46.73v7.45c0 .28.15.548.38.69l.07.03 5.99 2.99 -6 2.99h0c-.28.13-.46.42-.46.73s.17.59.45.73l7.455 3.72h0c.11.05.23.08.36.08v0c.12 0 .24-.03.36-.09l7.45-3.73c.28-.14.45-.42.45-.74V11.9h-.001c.01-.32-.17-.6-.45-.74Zm-7.814-9.54l5.625 2.81 -5.625 2.81 -5.63-2.82ZM5.36 5.865l4.81 2.41 -4.81 2.41Zm1.01 6.138l5.62-2.82 5.625 2.82 -5.625 2.81Zm4.81 5.04v4.81l-4.81-2.41Zm7.45 1.91l-5.83 2.91v-5.625l5.82-2.92v5.625Z"/></svg>