<svg viewBox="0 0 24 24" xmlns="http://www.w3.org/2000/svg"><path d="M12.924 1.22c-.59-.01-1.26 0-1.49.02 -2.46.28-4.138 1.3-4.753 2.89 -.22.55-.274 1-.25 1.77 .04 1.21.41 2 1.26 2.74 1.22 1.06 2.98 1.5 5.99 1.5 2.73 0 3.71.41 3.91 1.67 .31 1.86-1.57 3.07-4.414 2.827 -1.88-.16-3.5-.92-4.23-1.97v0c-.13-.21-.25-.41-.36-.62 -.39-.76-.64-.98-1.18-.98 -.43 0-.74.16-.92.49l-.133.24v4.03l.13.29c.16.34.4.54.74.63 .35.09.79-.04 1.42-.41l.5-.29 .82.18c1.82.4 2.75.52 4.06.52 1.1 0 1.548-.05 2.45-.29 1.12-.3 1.97-.79 2.71-1.57 .8-.85 1.15-1.86 1.09-3.15 -.07-1.63-.7-2.7-2-3.42 -.96-.53-2.3-.79-4.38-.88 -2.042-.09-2.8-.16-3.52-.32 -.51-.12-.79-.25-1.08-.52 -.66-.59-.59-1.755.13-2.49 .64-.64 1.51-.93 2.77-.93 1.43 0 2.39.27 3.41.95 .18.12.72.62 1.19 1.09 .88.9 1.13 1.08 1.5 1.08 .24 0 .59-.17.73-.35 .26-.33.3-.63.3-2.2 0-1.66-.05-1.91-.38-2.282 -.39-.43-.85-.42-1.75.03l-.59.29 -.63-.17c-1.5-.4-2.04-.48-3.18-.504ZM0 13.76v9h24v-1H1v-8Z"/></svg>