<svg viewBox="0 0 24 24" xmlns="http://www.w3.org/2000/svg"><path d="M3.22.21C1.76.21 1.05 1.337 1.05 2.497v7.88c-.53-.51-1.1-.15-1.06.29 .038.43.59 1.54 1.436 2.51 .84.968 1.924 1.77 2.94 2.26h0c-.36 1.16-.53 2.37-.5 3.59 .09 1.096.37 1.95.9 2.75 .91 1.407 2.32 1.98 3.67 1.98 1.2 0 2.49-.57 2.69-2.38v-4.7c1.3.55 3.47.36 4.47-.39 .19-.14.32-.21.41-.12 .09.09.1.16-.12.43v-.001c-.79.98-1.88 1.67-3.11 1.96l0 2.72v0c.04 1.36 1.17 2.45 2.54 2.44 1.64.01 2.48-.56 3.14-1.17 .63-.57 1.39-1.76 1.55-3.25v0c.1-1.33-.05-2.66-.46-3.93v0c1.11-.58 2.11-1.35 2.94-2.27 .63-.7 1.41-2.01 1.41-2.52 0-.51-.56-.782-1.04-.31V2.39c0-.83-.48-2.29-2.14-2.29Zm.42 1.35h16.765c.75 0 1.17.28 1.17 1.22v8.9h-.001c-1.06.77-2.28 1.29-3.56 1.53 -1.61.35-2.94.08-3.67.14 -.718.06-1.43.52-1.3 1.79 -.5-.16-1.24-.69-1.69-1.12 -.44-.43-.87-.72-1.54-.7 -1.013.03-1.67.1-2.57.01l0-.001c-1.75-.15-3.42-.77-4.84-1.79v-8.8c0-.87.37-1.22 1.2-1.22Zm4.49 4.98l0 0C6.47 6.5 5.11 7.82 5.08 9.47c-.04 1.65 1.28 3.01 2.93 3.04 .03 0 .07 0 .1 0h0c1.65-.06 2.94-1.44 2.89-3.09 -.05-1.58-1.32-2.85-2.9-2.9Zm7.71 0l-.001-.001c-1.66-.04-3.02 1.28-3.05 2.93 -.04 1.65 1.28 3.01 2.93 3.04 .03 0 .07 0 .1 0h-.001c1.65-.06 2.94-1.44 2.89-3.09 -.05-1.58-1.32-2.85-2.9-2.9Z"/></svg>