<svg viewBox="0 0 24 24" xmlns="http://www.w3.org/2000/svg"><path d="M2.65 13.753c.8 4.43 4.677 7.81 9.33 7.81 4.677 0 8.61-4.09 9.39-8.55H18.8c-.75 3.05-3.56 6.03-6.84 6.03 -2.37 0-4.46-1.2-5.73-3h5.29c.43 0 .85-.24 1.21-.71l1.28-1.86c.12-.24.34-.37.61-.37h7.54l1.78-2.31H13.55c-.26 0-.48.14-.62.32l-1.71 2.29c-.11.17-.29.28-.5.28Zm18.67-3.51c-.81-4.44-4.65-7.82-9.33-7.82 -4.677 0-8.5 3.97-9.28 8.42h2.56c.74-3.06 3.43-5.93 6.73-5.93 2.36 0 4.45 1.19 5.72 2.99h-5.31c-.44 0-.86.23-1.22.7l-1.29 1.85c-.13.23-.35.36-.62.36H1.74l-1.79 2.27h10.38c.25 0 .48-.15.61-.33l1.7-2.32c.1-.18.28-.29.49-.29Z"/></svg>