<svg viewBox="0 0 24 24" xmlns="http://www.w3.org/2000/svg"><path d="M24 3.45c0 .64-.42 1.18-1.15 1.18s-1.15-.54-1.15-1.18c0-.65.41-1.18 1.14-1.18 .72 0 1.14.53 1.14 1.18Zm-.23 0c0-.54-.38-.96-.92-.96s-.92.38-.92.95c0 .53.38.952.91.952 .57 0 .91-.42.91-.96Zm-1.37-.54h.49c.26 0 .45.15.45.38 0 .15-.08.22-.19.3l.19.266v.03h-.27l-.19-.266h-.23v.266h-.27Zm.49.22h-.23v.26h.22c.11 0 .15-.04.15-.12 .03-.08-.04-.16-.16-.16ZM7.59 12.37c.03-.16.07-.31.07-.46 0-.12-.04-.23-.04-.35 -.12-.35-.31-.65-.65-.84L2.1 7.94c-.69-.38-1.56-.16-1.94.53 -.381.68-.16 1.56.532 1.94l2.701 1.56L.69 13.53C0 13.91-.22 14.78.16 15.47c.38.68 1.25.91 1.94.53l4.832-2.78c.34-.27.57-.54.64-.88Zm1.33 2.62c-.266-.04-.57.03-.84.19l-4.84 2.77c-.69.38-.92 1.25-.54 1.94 .38.68 1.255.91 1.94.53l2.7-1.56v3.12c0 .8.64 1.4 1.44 1.4 .79 0 1.407-.65 1.407-1.41v-5.6c0-.77-.57-1.37-1.3-1.41ZM13.87 8.9c.266.03.57-.04.83-.19l4.83-2.777c.68-.38.91-1.26.532-1.94 -.38-.69-1.26-.92-1.94-.54l-2.71 1.56V1.92c0-.8-.65-1.408-1.45-1.408 -.8 0-1.45.609-1.45 1.408V7.48c0 .76.609 1.37 1.33 1.407ZM3.25 5.93L8.08 8.7c.266.15.53.19.83.19 .72-.04 1.33-.69 1.33-1.407V1.93c0-.8-.65-1.41-1.407-1.41 -.8 0-1.45.647-1.45 1.408v3.12L4.67 3.49c-.69-.38-1.56-.16-1.94.53 -.42.64-.19 1.521.49 1.9Zm9.093 6.01v0c-.01-.1-.05-.2-.12-.27l-.57-.58v0c-.07-.08-.17-.12-.27-.12v0c-.1 0-.2.04-.266.11l-.58.57v0c-.07.07-.11.16-.12.26 0 .07.03.19.11.26l.57.57h-.001c.06.07.16.11.26.11 .07 0 .19-.04.266-.12l.57-.57h0c.06-.08.1-.17.11-.27Zm1.59.53l-2.02 2.01c-.04.03-.16.11-.23.11h-.61v0c-.1-.01-.2-.05-.27-.12L8.78 12.46v0c-.05-.07-.08-.15-.08-.23v-.61c0-.08.03-.19.11-.27L10.83 9.33v0c.07-.07.16-.11.26-.12h.6v0c.09 0 .19.04.26.11l2.016 2.016v0c.07.06.11.16.11.26v.6c-.08.07-.12.19-.19.22Zm5.59 5.44l-4.84-2.78c-.266-.16-.57-.19-.84-.16 -.73.03-1.34.68-1.34 1.4v5.55c0 .8.64 1.4 1.4 1.4 .79 0 1.44-.65 1.44-1.41v-3.12l2.7 1.56c.68.38 1.561.15 1.94-.54 .41-.65.19-1.53-.5-1.94Zm2.54-7.54l-2.71 1.56 2.7 1.56c.68.38.91 1.25.53 1.94 -.38.68-1.26.91-1.94.53l-4.84-2.78v0c-.3-.2-.53-.47-.65-.8 -.04-.16-.08-.31-.08-.46 0-.12.03-.23.03-.35 .11-.35.34-.65.64-.84l4.83-2.78c.68-.38 1.56-.16 1.94.53 .45.609.19 1.484-.5 1.86"/></svg>