<svg viewBox="0 0 24 24" xmlns="http://www.w3.org/2000/svg"><path d="M11.558.78V.779c-.6 0-1.2.07-1.79.2l-.46.15c-.91.3-1.66.75-2.1 1.34l-.31.45 -2.035 3.52c.42-.39.97-.7 1.64-.9h0l.61-.16h0 0c.58-.13 1.17-.2 1.77-.21 2.91-.06 6.03 1.14 8.423 2.36 2.317 1.17 3.88 2.32 3.98 2.39l2.66-4.45c-.09-.06-1.66-1.21-4-2.39 -2.4-1.206-5.53-2.4-8.45-2.343Zm-2.64 4.57h-.001c-.59 0-1.18.07-1.75.2l-.61.15c-1.28.37-2.1 1.16-2.43 2.1 -.34.94-.19 2.06.48 3.11 .33.43.74.81 1.21 1.14l6.482-2.1h0v0c2.05-.61 4.27-.24 6.013 1.01l2.84-.97c-.17-.13-1.67-1.2-3.91-2.34 -2.38-1.21-5.48-2.4-8.36-2.35Zm5.43 4.497v0c-.68-.01-1.35.09-1.99.28l-9.44 3.04 -2.94 5.14 9.276-3V15.3c2.71-.81 5.64.1 7.4 2.31v0c.69.9.89 1.9.66 2.808l2.57-4.63c.59-1.05.45-2.23-.31-3.43v-.001c-1.28-1.6-3.21-2.53-5.26-2.55Zm-3.04 5.34l0 0c-.68-.01-1.36.08-2.01.28l-9.32 3c.17.13 2.02 1.49 4.687 2.76 2.79 1.33 6.37 2.46 9.468 1.71l.45-.16h0c1.27-.38 2.13-1.17 2.487-2.09 .35-.93.2-2.01-.55-2.98v0c-1.28-1.6-3.2-2.53-5.237-2.55Z"/></svg>