<svg viewBox="0 0 24 24" xmlns="http://www.w3.org/2000/svg"><path d="M7.453 0c-.18.587-.37 1.167-.57 1.75h0C2.69 3.62-.01 7.77-.01 12.36v-.001c0 1.15.17 2.3.51 3.4l-.34.59 -.18.36 .279.14h0c.23.1.48.17.74.22l0-.001c.27.61.6 1.21.98 1.77 4.034.34 8.55.51 12.446-.06 3.192-.47 5.94-1.43 7.73-3.12 .25-.24.47-.48.67-.73 .01-.04.03-.06.06-.08 .01 0 .02-.04.03-.06 .01 0 .03-.04.04-.06 0 0 .01-.04.02-.04 .33-.45.58-.9.8-1.31l.18-.37 -.37-.37v-.001c-.12-.13-.24-.24-.37-.35v-.001C23.217 5.856 17.998.64 11.58.64v0c-1.09 0-2.17.15-3.22.46 -.47-.68-.83-1.15-.98-1.19Zm.36 1.637c1.242 2.183 2.31 3.42 3.636 5.82 .13 1.52.67 9.45.72 10.18 -.4-.04-2.49-.24-5.11-.52 -1.43-.15-2.9-.32-4.092-.49l-1.9-.45C3.21 12.38 6.61 6.44 7.8 1.62Zm4.543 6.18s4.991 3.92 7.09 8.73c-2.56 1.26-4.916 1.09-6.37 1.09 1.02-2.64 1.02-6.21-.73-9.82Zm3.45 2.18l-.001-.001c.97.26 1.95.57 2.91.9 1.76.62 3.41 1.49 4.36 2.36h-.001c-.66 1.24-1.67 2.25-2.91 2.91 .15-1.5-.39-2.933-1.46-4.01 -.79-.79-1.83-1.46-2.91-2.183Zm6.7 6.47c-2.36 1.66-5.13 2.68-7.965 3.11v0c-1.24.16-2.48.28-3.72.34h-.33 -.001c-1.25.04-2.49.04-3.73 0l-.001 0c-1.4-.05-2.79-.12-4.18-.23h-.01c2.55 3.25 6.993 4.89 11.092 4.102v0c1.61-.29 3.14-.92 4.49-1.86v0s0 0 0 0c.31-.22.61-.45.9-.69v-.001c.01-.02.02-.03.03-.04h-.001c1.51-1.28 2.67-2.92 3.37-4.77Zm-20.013 3.1l0 0c0 .01.01.02.02.03 -.01 0-.02-.04-.03-.04Z"/></svg>