<svg viewBox="0 0 24 24" xmlns="http://www.w3.org/2000/svg"><path d="M22.406 10.9v-.001c-.87-1.11-2.05-1.93-3.38-2.36v-.09c0-4.04-3.16-7.33-7.05-7.33 -3.9 0-7.05 3.282-7.05 7.32v.1c-2.86.93-4.94 3.71-4.94 6.98 0 4.03 3.159 7.32 7.05 7.32h0c1.86-.01 3.65-.77 4.95-2.11v0c1.29 1.34 3.08 2.1 4.94 2.1 3.88 0 7.05-3.282 7.05-7.33v0c-.01-1.69-.57-3.32-1.6-4.65ZM16.94 21.01c-2.91 0-5.27-2.46-5.27-5.474v0c0-.51-.39-.92-.89-.93v0c-.51 0-.9.41-.9.91 0 0 0 0 0 0 0 1.36.36 2.651.99 3.74h-.001c-.98 1.09-2.38 1.72-3.85 1.73 -2.904 0-5.27-2.46-5.27-5.474 0-3.02 2.36-5.48 5.27-5.48 .63 0 1.24.11 1.827.33 0 0 .01 0 .02 0 .2.07.48.21.57.28h0c.35.31.89.29 1.21-.06 .01-.02.02-.03.03-.05v0c.32-.39.27-.97-.1-1.3 -.39-.35-1-.58-1.15-.63l0-.001c-.78-.3-1.6-.45-2.43-.45 -.12 0-.23 0-.34 0C6.78 5.23 9.09 2.9 11.93 2.9c2.9 0 5.26 2.45 5.26 5.47v0c0 1.75-.82 3.4-2.215 4.46v0c-.4.3-.5.86-.21 1.28 .17.25.45.39.72.39v0c.18 0 .36-.07.516-.18h0c1.32-1 2.28-2.42 2.7-4.02 2.035.78 3.44 2.82 3.44 5.13 -.01 3.01-2.38 5.46-5.29 5.46Z"/></svg>