<svg viewBox="0 0 24 24" xmlns="http://www.w3.org/2000/svg"><path d="M23.67 10.007v0c-.18 0-.31.14-.31.31 0 .17.14.3.31.3h-.001c.16-.01.3-.14.3-.31v0c0-.17-.14-.31-.31-.32v0c-.01-.01-.02-.01-.02 0Zm.01.04v0c.14-.01.26.12.27.26v0c0 .14-.13.27-.27.27 -.15 0-.27-.13-.27-.27 0-.15.12-.27.27-.27Zm-9.51.05l-.62 1.86 -.02.04 -.02-.04 -.63-1.86h-.62l.98 2.74h.5l.61-1.79 .01-.04 .01.03 .61 1.78h.5l.98-2.74h-.61l-.63 1.85 -.02.04 -.02-.04 -.62-1.87Zm-5.48 0v2.74h.25v-2.75Zm-7.823 0h0c-.02 0-.03 0-.04 0 -.49 0-.85.3-.85.71s.26.63.898.75c.6.12.715.27.715.52 0 .28-.26.49-.631.49l0-.001c-.35.01-.69-.13-.93-.37l-.02-.02v.31h0c.26.2.58.31.92.31 .524 0 .89-.31.89-.74 0-.4-.26-.62-.88-.74 -.619-.13-.739-.29-.739-.55 0-.27.255-.47.608-.47v0c.28-.01.55.09.75.28l.02.01v-.32 0c-.22-.15-.48-.23-.742-.23Zm4.92 0v2.747h.28v-2.09l1.81 2.08h.06v-2.75h-.28v2.106l-1.83-2.106Zm11.67 0l-.65 1.721c-.64.11-1.06.39-.85.94 .27.76 1.54 1.218 1.54 1.218s-1.29-.81-.62-1.34c.29-.24.81-.42 1.31-.54l.27.71h.54l-.33-.84c.4-.08.7-.13.7-.13s-.36-.05-.79-.08l-.66-1.69Zm2.13 0v2.721h1.55v-.49h-1.04v-2.231Zm2.1 0v2.721h1.55v-.49h-1.04v-2.231Zm-17.953 0v0c-.02-.01-.03-.01-.05 0v0c-.24-.01-.47.05-.67.17l-.001-.001c-.21.11-.38.29-.5.49H2.51c-.13.2-.19.44-.19.69v-.001c-.01.35.13.7.39.95v0c.25.26.6.4.97.39v0c.74 0 1.35-.6 1.35-1.35 0-.01 0-.01 0-.02v0c0-.37-.14-.72-.4-.97v0c-.26-.25-.59-.4-.95-.4Zm7.3 0v0c-.36 0-.71.14-.96.39v0c-.27.24-.41.59-.4.96H9.67c-.01.33.11.66.33.923v0c.27.3.66.47 1.077.45v0c.22 0 .44-.05.65-.14v0c.09-.06.18-.12.26-.19v-.34 0c-.23.26-.56.41-.9.41v0c-.31 0-.61-.11-.83-.33v0c-.22-.21-.34-.5-.33-.8v-.001c-.01-.2.04-.4.14-.57l0-.001c.09-.17.23-.31.41-.41h0c.17-.1.37-.16.57-.15h-.001c.17 0 .35.04.51.12v0c.15.07.29.18.4.31v-.35 0c-.08-.08-.17-.14-.26-.19v0c-.21-.1-.44-.15-.66-.15v0c-.02-.01-.03-.01-.05 0Zm12.66 0v0c-.01-.01-.01-.01-.02 0h-.17v.37h.09v-.15h.03l.08.14 .11-.01 -.11-.16v0c.04-.02.07-.06.06-.11v-.001c0-.07-.05-.12-.11-.12 -.01-.01-.01-.01-.01 0Zm-.03.06v0c.02 0 .04.02.04.04 -.01 0-.01 0-.01 0 0 .03-.02.04-.06.04h-.05v-.11h.04v0c0-.01 0-.01 0 0Zm-19.97.17v0c0-.01 0-.01 0 0l-.001-.001c.19 0 .38.05.54.15h0c.16.09.3.23.4.39v0c.09.16.14.35.14.55v0c0 .19-.05.39-.15.56v0c-.1.16-.24.3-.4.39H4.22c-.17.09-.36.14-.56.14v0c-.61 0-1.09-.49-1.1-1.09 -.01-.01-.01-.01 0-.02v-.001c-.01-.2.04-.4.14-.57v0c.19-.34.55-.55.94-.56Zm14.01.46l.36.93c-.04 0-.07-.01-.1-.01v0c-.21-.01-.42-.01-.63.01h-.02Z"/></svg>