<svg viewBox="0 0 24 24" xmlns="http://www.w3.org/2000/svg"><path d="M12.988 12.36l-2.82-2.64v4.429h.83v-2.46l2.81 2.63v-4.43h-.84ZM6.46 9.66v-.001c-1.28-.02-2.32.99-2.34 2.26 -.01.02-.01.04 0 .06 0 1.25 1.077 2.33 2.33 2.33v0c1.27.01 2.31-1 2.33-2.27 0-.03 0-.05 0-.07v0c.01-1.28-1-2.32-2.27-2.34 -.03-.01-.05-.01-.07 0m0 3.83v0c-.82 0-1.49-.65-1.5-1.47 -.01-.01-.01-.02 0-.03 0-.84.65-1.5 1.49-1.5 .83 0 1.49.65 1.49 1.49 0 .83-.66 1.49-1.5 1.49m-3.77-1.5c-.24-.18-.54-.3-.96-.42 -.84-.24-.84-.48-.84-.6 0-.24.29-.48.718-.48 .36 0 .65.18.778.24l.06.06 .65-.48 -.06-.06s-.54-.6-1.436-.6c-.42 0-.84.12-1.137.359 -.3.24-.48.59-.48.95s.18.718.47.95c.24.18.538.3.95.42 .83.23.83.47.83.59 0 .23-.3.47-.718.47 -.359 0-.66-.18-.778-.24l-.06-.06 -.66.47 .06.06s.538.59 1.436.59c.42 0 .83-.12 1.13-.359 .3-.24.48-.6.48-.96s-.18-.66-.48-.96m14.84-2.34V9.53c-1.28-.02-2.32.99-2.34 2.26 -.01.02-.01.04 0 .06v0c0 1.28 1.04 2.33 2.33 2.33v0c1.27.01 2.31-1 2.33-2.27 0-.03 0-.05 0-.07l0 0c-.01-1.29-1.05-2.34-2.34-2.34m0 3.83v0c-.82 0-1.49-.65-1.5-1.47 -.01-.01-.01-.02 0-.03 0-.84.65-1.5 1.49-1.5 .83 0 1.49.65 1.49 1.49 0 .83-.718 1.49-1.5 1.49m3.77-1.56c.24.18.54.3.95.42 .83.23.83.47.83.59 0 .23-.3.47-.718.47 -.36 0-.66-.18-.78-.24h-.06l-.66.47 .06.06s.53.59 1.436.59c.41 0 .83-.12 1.13-.359 .29-.24.47-.6.47-.96s-.18-.718-.48-.96c-.24-.18-.54-.3-.96-.42 -.84-.24-.84-.48-.84-.6 0-.24.29-.48.718-.48 .35 0 .65.18.77.23l.06.06 .65-.48 -.06-.06s-.54-.6-1.436-.6c-.42 0-.84.12-1.14.359 -.3.24-.48.59-.48.95 -.06.36.12.65.48.89"/></svg>