<svg viewBox="0 0 24 24" xmlns="http://www.w3.org/2000/svg"><path d="M16.038 0h6.052v17.229h-.71V12.89h-.42v4.333h-.29v-2.53h-.42v2.52h-.29v-4.04h-.42v4.04h-.29v-3.25h-.42v3.25h-.33v-2.53h-.38v2.52h-.34v-3.8h-.42v3.79h-.29V12.86h-.42v4.333h-.71c.02-5.73.02-11.457.02-17.229Zm-7.05 7.62h6.01v9.605h-.66v-2.23h-.42v2.23h-.29v-3.5h-.42v3.5h-.29v-3.5h-.42v3.5h-.33v-2.77h-.38v2.77h-.34v-2.77h-.42v2.77h-.29v-3h-.42v3h-.29v-3.8H9.6v3.79h-.71c.02-2.69.02-6.958.02-9.605Zm-1.72 5.27h-.42v4.29h-.29V15.2h-.42v1.98h-.33V14.4h-.38v2.77h-.33v-4.04h-.42v4.04h-.29v-2.23h-.42v2.22h-.29v-3.25h-.42v3.25h-.29v-3.75h-.42v3.75h-.71v-5.65h6.011v5.64h-.66c.02-1.4.02-2.833.02-4.291Zm5.969 5.5h.37v5.6h-.38Zm4.21 0h.33v5.52h-.33Zm-7.436 5.39h-.33v-5.398h.33v5.39Zm7.064-5.4v5.39h-.33V18.37h.33Zm-4.55 0h.33v5.23h-.33Zm6.34 0h.33v5.23h-.33Zm-9.894 0h.33v4.89h-.33V18.37Zm10.926 4.85h-.33v-4.86h.33v4.855Zm-9.17-.05h-.33v-4.84h.33Zm4.254-.05h-.33v-4.79h.33v4.791Zm-3.52-.38h-.38v-4.42h.37Zm9.852.2h-.33V18.32h.33Zm-9.2-.21h-.33v-4.42h.33Zm3.88-4.4h.33v4.41h-.33ZM6.13 22.4v-4.09h.37v4.08h-.38Zm11.98-.05v-4.04h.37v4.041h-.38Zm-13.37-4.02h.33v4.25h-.33v-4.26Zm16.916 0h.37v4h-.38v-4.01ZM6.84 22.34V18.3h.33v4.041h-.33Zm-1.43-.05v-4h.33v4h-.33Zm15.162 0h-.34v-4h.33v4Zm-16.96-.04h-.33v-3.92h.33Zm-.71-.23h-.38v-3.71h.37Zm10.96-3.71h.37v3.625h-.38ZM7.9 22.1h-.33v-3.8h.33ZM1.89 18.3h.33v3.58h-.33Zm2.128 0h.33v3.58h-.34Z"/></svg>