<svg viewBox="0 0 24 24" xmlns="http://www.w3.org/2000/svg"><path d="M1.175 12.225c-.06 0-.1.04-.11.1l-.24 2.154 .23 2.1c0 .05.05.09.1.09s.09-.04.09-.1l.25-2.11 -.27-2.154c0-.06-.05-.1-.09-.1m-.899.82c-.06 0-.091.03-.11.09l-.17 1.33 .165 1.3c0 .05.04.09.09.09 .04 0 .08-.05.1-.11l.21-1.32 -.21-1.34c0-.07-.05-.09-.09-.09m1.83-1.23c-.07 0-.12.04-.12.1l-.21 2.56 .22 2.458c0 .06.04.12.11.12 .06 0 .1-.07.121-.12l.254-2.474 -.254-2.548c-.02-.06-.07-.12-.121-.12m.94-.09c-.08 0-.14.06-.15.13l-.2 2.64 .21 2.54c.01.07.07.13.14.13s.13-.07.15-.15l.24-2.532 -.24-2.63c0-.08-.06-.14-.14-.14l-.04-.02Zm1.15.36c-.01-.09-.08-.15-.16-.15 -.09 0-.16.06-.17.14l-.22 2.43 .2 2.56c0 .09.07.15.15.15 .07 0 .14-.07.14-.16l.22-2.57 -.23-2.45 .03.01Zm.8-1.71c-.11 0-.18.09-.18.18l-.21 3.95 .18 2.56c0 .09.08.16.18.16 .09 0 .17-.09.18-.18l.2-2.57 -.21-3.98c-.01-.11-.09-.18-.18-.18m.95-.92c-.11 0-.2.09-.21.19l-.18 4.872 .16 2.54c0 .12.09.2.19.2s.19-.09.21-.21l.19-2.548 -.2-4.856c-.02-.12-.11-.21-.21-.21m.98-.45c-.13 0-.22.08-.23.2l-.17 5.275 .16 2.52c.01.11.1.22.22.22 .11 0 .22-.11.22-.23l.19-2.52 -.2-5.275c0-.12-.11-.23-.23-.23m1.245.04c0-.14-.11-.24-.24-.24 -.12 0-.24.1-.24.24l-.15 5.44 .14 2.503c.01.13.12.24.25.24s.24-.11.24-.24l.16-2.503 -.17-5.46 -.02.01Zm.74-.14c-.14 0-.26.11-.26.25l-.15 5.32 .15 2.47c0 .15.12.25.25.25s.25-.12.25-.27l.15-2.474 -.17-5.31c0-.15-.12-.27-.28-.27m1 .16c-.17 0-.29.13-.29.28l-.11 5.14 .13 2.474c0 .14.11.27.28.27 .14 0 .27-.12.28-.29l.12-2.45 -.14-5.112c-.02-.17-.14-.29-.29-.29m1.18-.95c-.05-.03-.11-.05-.17-.05 -.06 0-.12.01-.17.04 -.09.05-.15.15-.15.25v.06l-.11 6.048 .11 2.44v0c0 .06.03.13.07.18 .05.06.14.1.23.1 .08 0 .15-.05.2-.09 .05-.06.09-.14.09-.23l.01-.24 .11-2.21 -.14-6.086c0-.11-.07-.2-.14-.24l-.01-.03Zm1-.55c-.05-.05-.09-.07-.15-.07 -.08 0-.15.01-.21.06 -.08.06-.12.15-.12.24v.02l-.14 6.6 .07 1.21 .06 1.18c0 .16.14.31.32.31s.33-.15.33-.33l.15-2.42 -.15-6.637c0-.12-.08-.23-.17-.28m8.93 3.77c-.41 0-.8.08-1.14.23 -.24-2.654-2.46-4.74-5.19-4.74 -.66 0-1.31.13-1.89.359 -.23.09-.27.18-.29.359v9.36c.01.18.15.33.33.34h8.185c1.61.01 2.93-1.29 2.93-2.93 0-1.64-1.32-2.952-2.94-2.952"/></svg>