<svg viewBox="0 0 24 24" xmlns="http://www.w3.org/2000/svg"><path d="M11.999 0C6.756 0 2.474 4.245 2.474 9.525c0 4.21 2.769 7.792 6.57 9.04v4.76c0 .37.29.66.66.66h4.506v0c.36 0 .66-.3.66-.66 0-.01 0-.01 0-.01v-4.77c.02-.01.04-.02.07-.03v.06c3.69-1.22 6.41-4.634 6.56-8.687 0-.13 0-.25 0-.375v-.03c0-.16-.01-.31-.02-.46 -.24-5.04-4.39-9.07-9.52-9.07Zm0 6.35l0 0c1.77 0 3.21 1.44 3.2 3.21 -.01.63-.2 1.25-.55 1.78v0 0c-.6.88-1.6 1.41-2.67 1.41v0c-1.78 0-3.22-1.44-3.22-3.22 0-1.78 1.43-3.22 3.21-3.22Z"/></svg>