<svg viewBox="0 0 24 24" xmlns="http://www.w3.org/2000/svg"><path d="M19.86.71h-.26L7.63.77 7.62.769c-2.46-.13-4.89.46-7.01 1.69l0 0L.61 2.458c-.59.31-.81 1.05-.49 1.64 .21.38.62.63 1.06.63 .35 0 .66-.15.88-.383V4.34c2.72-1.47 5.95-1.64 8.81-.47 5.27 2.165 7.8 8.22 5.64 13.49v0c-.57 1.36-1.42 2.6-2.5 3.61l.01.01 0 0c-.58.33-.78 1.07-.45 1.65 .33.57 1.07.77 1.65.44 .17-.1.31-.24.42-.41h0c1.31-1.24 2.35-2.75 3.04-4.42 .05-.12 4.95-12.06 4.96-12.093V6.15c.83-2.04-.14-4.38-2.18-5.21 -.55-.23-1.064-.28-1.66-.28ZM6.06 6.845c-2.64 0-5.35.8-5.35 3.94 -.001 2.16 1.94 2.85 3.893 3.27 2.42.52 3.82.87 3.82 1.9 0 1.18-1.24 1.56-2.208 1.56 -1.33 0-2.564-.6-2.588-2.07H.41c.14 3.25 2.92 4.32 5.77 4.32 2.801 0 5.603-1.05 5.603-4.273 0-2.28-1.923-3-3.894-3.45 -1.923-.45-3.83-.62-3.83-1.83 0-1 1.11-1.14 1.87-1.14 1.21 0 2.207.35 2.3 1.66h3.205c-.26-3.02-2.73-3.92-5.413-3.92Z"/></svg>