<svg viewBox="0 0 24 24" xmlns="http://www.w3.org/2000/svg"><path d="M11.997.01C10.207.025 8.545.4 7.027 1.1l0-.01c3.63 2.026 6.95 5.63 8.93 8.24 .39.53.75 1 1.07 1.43l0-.02c.41-1.74-.32-5.24-1.52-7.34 -.12-.21-.21-.38-.19-.4l0 0 0-.01c.09.02 1.03.99 1.37 1.43 .59.76.83 1.213 1.16 2.23 .85 2.64 1.42 4.801 1.9 7.24 .23 1.22.67 3.45.73 3.88 0 .05-.01.12-.01.14v0c-.1-.1-.2-.18-.29-.27 -.65-.57-1.93-1.42-3.183-2.12 -1.57-.87-3.12-1.62-6.58-3.17 -3.16-1.42-4.61-2.09-5.76-2.67l-1.03-.51c.12.3.24.62.39 1 0 0 1.93 1.08 2.17 1.4 0 0 2.322 4.36 3.35 6.955 .76 1.94 1.63 4.26 2.15 4.904l.06.06c-1.03-.26-5.75-2.6-5.75-2.6 -.52-4.4-1.97-9.61-3.86-14.94v0c-.05-.09-.09-.18-.125-.28 0-.02.14.12.31.3 1.9 2.03 5.95 3.88 10.26 4.682l0 0c1.16.2 2.35.27 3.53.22 -.31-.4-.64-.83-1.01-1.31C11.67 5.1 8.31 3.23 5.31 2.09c-.08-.03-.16-.07-.24-.09L5.07 2C2.96 3.44 1.38 5.52.55 7.93l0-.001c-.46 1.29-.68 2.64-.67 4.01l.003-.09c.033 5.01 3.12 9.616 8.05 11.33 1.33.46 2.69.68 4.032.67l-.09-.01c5.01-.04 9.61-3.13 11.33-8.06 .46-1.34.68-2.7.67-4.032l-.01.08C23.83 6.81 20.74 2.21 15.813.49L15.81.49c-1.3-.46-2.66-.68-4.04-.67l.08.003Zm6.13 6.11l-.01 0c-.01 0 0 0 0 0l0-.01c.53.51 1.37 1.5 2.33 2.06 .78.99 1.21 1.96 1.74 2.62 -.22-.19-1.12-.98-1.12-.98s-1.38-1.31-2.15-2.16c-.3-.33-.32-.38-.48-.63 -.07-.1-.28-.83-.36-.94h-.01l0-.01Z"/></svg>