<svg viewBox="0 0 24 24" xmlns="http://www.w3.org/2000/svg"><path d="M23.348 11.91l-2.25-1.1v-.65l2.89 1.45v.593l-2.9 1.43v-.64Zm-5.4 1.84h-.97V8.44h.96v3.11h.1l1.28-1.49 .72.31 -1.23 1.31 1.45 1.8 -.89.31 -1.44-2Zm-2.577-.01v-2.07h0c0-.15-.01-.29-.03-.42v0c-.02-.1-.05-.18-.09-.26 -.12-.21-.31-.31-.59-.31h0c-.17-.01-.33.03-.47.11v0c-.13.07-.23.19-.29.33v-.001c-.04.08-.06.17-.07.26 -.02.13-.02.26-.02.39v1.95h-.97v-3.62h.96l0 .48c.18-.2.37-.35.56-.44 .19-.09.41-.14.673-.14 .28 0 .52.05.72.17v0c.24.14.41.38.47.66v0c.03.14.05.29.05.44 0 .1 0 .22 0 .35v2.05Zm-4.115 0l-.01-.49h-.001c-.16.18-.35.33-.57.43v0c-.22.09-.45.13-.68.13 -.29 0-.53-.06-.72-.17v0c-.2-.12-.35-.3-.43-.51v0c-.03-.06-.05-.11-.06-.17l0 0c-.02-.07-.03-.14-.04-.2v0c-.02-.09-.02-.18-.02-.26l-.001-.001c-.01-.12-.01-.24-.01-.36v-2.06h.95v2.07c-.01.14 0 .28.02.42 .01.09.04.18.09.26 .11.2.3.3.59.3 .36 0 .6-.15.74-.45 .03-.09.06-.17.07-.26 .01-.14.02-.27.02-.41v-1.95h.95v3.62Zm-4.08-5.32h.95v5.31h-.96Zm-1.43 3.46c0-.4-.08-.71-.24-.94v0c-.15-.23-.4-.36-.657-.35v0c-.28-.01-.55.13-.7.36 -.18.24-.26.57-.26.99 0 .4.08.72.25.95l-.001 0c.15.22.41.35.69.34v0c.15 0 .3-.05.43-.14h0c.11-.1.21-.21.27-.34 .07-.14.12-.3.14-.45 .03-.16.04-.3.04-.46m1.01-.04c0 .266-.04.532-.13.78 -.09.23-.21.44-.37.62 -.31.36-.77.56-1.24.56v-.001c-.11 0-.21-.01-.32-.03v-.001c-.1-.02-.19-.06-.28-.1H4.37c-.1-.05-.18-.11-.26-.18v0c-.1-.09-.19-.18-.27-.27v2.29h-.93v-5.43h.93l0 .52c.16-.22.35-.37.55-.47 .19-.1.42-.15.68-.15v0c.44-.01.86.17 1.15.5 .14.16.25.36.33.57 .08.23.12.48.11.73m-4.21.89H2.45c0 .15-.04.3-.11.44l-.001 0c-.07.13-.17.25-.29.34 -.13.1-.28.17-.43.22v0c-.18.05-.37.08-.546.08l-.001-.001c-.22 0-.44-.04-.64-.1H.43c-.21-.08-.4-.19-.57-.32l.312-.51c.15.12.28.21.4.27 .11.05.24.08.36.08v0c.13 0 .26-.04.37-.12H1.3c.09-.08.14-.2.14-.33h0c0-.12-.05-.24-.12-.32l-.001-.001c-.06-.07-.12-.13-.19-.18h0c-.11-.08-.21-.16-.31-.24h0c-.1-.07-.19-.14-.29-.21H.53c-.1-.08-.18-.15-.26-.24H.27c-.08-.09-.14-.18-.18-.28v0c-.05-.11-.08-.23-.07-.35h0c-.01-.15.03-.29.09-.41H.11c.06-.13.14-.23.25-.32h0c.11-.1.24-.16.39-.21 .16-.05.32-.08.494-.08 .18 0 .36.02.54.07 .17.05.33.12.48.21l-.29.45v0c-.18-.13-.39-.2-.61-.21v0c-.12-.01-.24.03-.33.1H1.03c-.09.05-.13.15-.13.25 0 .09.04.19.11.26s.2.18.385.32c.18.13.33.25.45.35 .1.08.2.18.28.28 .06.08.11.17.14.27H2.27c.03.09.04.19.04.29Z"/></svg>