<svg viewBox="0 0 24 24" xmlns="http://www.w3.org/2000/svg"><path d="M12 0C5.4 0 0 5.4 0 12c0 6.6 5.4 12 12 12s12-5.4 12-12 -5.34-12-12-12Zm5.52 17.34c-.24.35-.66.48-1.03.24 -2.82-1.74-6.36-2.11-10.561-1.15 -.42.12-.78-.18-.899-.54 -.12-.43.18-.78.54-.9 4.56-1.03 8.52-.6 11.64 1.32 .42.18.47.65.3 1.02Zm1.44-3.3c-.31.42-.85.6-1.27.3 -3.24-1.98-8.159-2.58-11.939-1.38 -.48.12-1.02-.12-1.14-.6 -.12-.48.12-1.03.6-1.141 4.38-1.32 9.78-.66 13.5 1.62 .36.18.54.78.24 1.2Zm.12-3.36C15.23 8.4 8.81 8.16 5.15 9.3c-.6.17-1.2-.19-1.38-.73 -.18-.601.18-1.2.72-1.39C8.75 5.92 15.77 6.16 20.21 8.8c.53.3.71 1.02.41 1.56 -.3.42-1.02.59-1.56.3Z"/></svg>