<svg viewBox="0 0 24 24" xmlns="http://www.w3.org/2000/svg"><path d="M20.59 2.066L11.993 0 3.41 2.066v6.61h4.55 0c-.05.31-.05.63 0 .95H3.4v3.106c0 7.12 8.584 11.26 8.584 11.26s8.582-4.14 8.582-11.258V9.62h-4.55v0c.04-.32.04-.64 0-.96h4.558ZM12 12.256h-.01v0c-1.72-.01-3.11-1.4-3.11-3.12 0-1.72 1.39-3.11 3.11-3.11 1.71 0 3.1 1.39 3.1 3.11 -.01 1.71-1.4 3.1-3.11 3.1Zm-.01-4.58v0c-.45-.01-.81.35-.81.79 -.01.3.16.58.43.72v.2l.23.23v.15l.15.15v.15l-.14.14 .15.24v.15l-.16.18 .22.22 .24-.25V9.12v0c.4-.19.58-.67.39-1.07 -.14-.29-.43-.48-.75-.47Zm0 .83v0c-.17 0-.3-.14-.3-.3 -.01-.17.13-.3.29-.3 .16-.01.29.13.29.29 0 0 0 0 0 0h-.001c0 .16-.14.29-.3.29 -.01 0-.01 0-.01 0Z"/></svg>