<svg viewBox="0 0 24 24" xmlns="http://www.w3.org/2000/svg"><path d="M8.56 24c-1.84 0-4.44-.54-7.03-2.87l2.03-2.27c3.63 3.27 7.42 1.98 8.59.88 .07-.08.15-.16.23-.23 -3.83-.38-6.63-3.09-6.822-3.28 -2.933-2.89-3.6-6.808-1.52-8.93s6.01-1.53 8.95 1.35c.25.24 3.11 3.05 3.67 6.605v-.001c1.71-1.28 2.72-3.29 2.72-5.43V9.82c.01-1.81-.71-3.54-2-4.8C16.038 3.72 14.148 3 12.06 3V-.05c2.88 0 5.51 1.024 7.43 2.88 1.88 1.83 2.91 4.3 2.91 6.97v0c-.01 3.98-2.43 7.57-6.116 9.08 -.42 1.1-1.12 2.11-2.106 3.04 -.97.9-2.87 1.9-5.28 2.01 -.13 0-.27 0-.4 0ZM7.28 9.077c-.43 0-.79.11-1.05.375 -.75.76-.28 2.904 1.48 4.63l0 0c.02.02 2.77 2.68 6.025 2.41v-.01c.01-2.88-2.808-5.6-2.84-5.625l-.02-.02c-1.05-1.03-2.53-1.79-3.61-1.79Z"/></svg>