<svg viewBox="0 0 24 24" xmlns="http://www.w3.org/2000/svg"><path d="M21.678.521c-1.032-.92-2.28-.55-3.52.54V1.06c-.2.17-.38.34-.55.53 -2.109 2.237-4.07 6.38-4.68 9.544 .23.48.42 1.093.54 1.561l0-.001c.06.23.11.46.16.7 0 0-.02-.08-.1-.3l-.05-.15h0c-.02-.03-.03-.06-.04-.08 -.14-.32-.52-1-.69-1.29 -.15.42-.27.81-.38 1.17 .484.88.77 2.4.77 2.4s-.03-.1-.15-.45c-.11-.31-.65-1.25-.78-1.47 -.22.8-.31 1.346-.23 1.47 .15.25.29.69.42 1.186 .28 1.1.48 2.44.48 2.44l.01.22h0c-.04.91-.02 1.83.05 2.74 .09 1.14.27 2.13.5 2.65l.15-.09c-.34-1.04-.47-2.4-.41-3.97 .09-2.4.64-5.29 1.66-8.31 1.72-4.55 4.11-8.21 6.3-9.945 -2 1.8-4.692 7.63-5.5 9.78 -.91 2.41-1.545 4.68-1.94 6.85 .66-2.04 2.82-2.92 2.82-2.92s1.05-1.31 2.29-3.17c-.74.16-1.96.45-2.37.62 -.6.25-.77.33-.77.33s1.94-1.19 3.61-1.72c2.29-3.62 4.79-8.75 2.27-11M2.97.92v0c-1.02 0-1.84.82-1.84 1.836v16.6H1.13c0 1.01.82 1.83 1.835 1.83h9.418l0 0c-.08-.91-.09-1.81-.06-2.71 -.01-.07-.02-.15-.02-.2h0c-.13-.8-.28-1.6-.48-2.378 -.13-.47-.28-.9-.37-1.06 -.12-.2-.1-.31-.1-.44 0-.12.01-.25.03-.39l-.001 0c.05-.36.13-.71.23-1.05l.21-.03c-.02-.04-.02-.07-.04-.1l-.05-.39 0 0c.11-.41.24-.8.38-1.2l.2-.02c-.01-.02-.01-.04-.02-.06l-.05-.32c.63-3.28 2.58-7.45 4.8-9.8 .06-.07.13-.13.19-.2Z"/></svg>