<svg viewBox="0 0 24 24" xmlns="http://www.w3.org/2000/svg"><path d="M3.08 7.24C1.37 7.24.2 8.23.2 9.63c0 .62.21 1.14.61 1.56 .45.46.932.72 2.05 1.1 1.17.37 1.39.48 1.64.66 .41.33.65.8.65 1.3 0 1.01-.97 1.83-2.16 1.83 -.73 0-1.48-.29-1.95-.76 -.36-.36-.6-.76-.81-1.37 -.032-.08-.065-.13-.129-.13 -.08 0-.15.08-.15.19 0 .12.065.49.17.85 .097.33.161.56.161.59 .09.48.11.49.24.61 .33.25 1.334.49 2.074.49 1.84 0 3.166-1.18 3.166-2.82 0-1.21-.79-2.08-2.41-2.61 -1.624-.53-1.71-.58-2.074-.98H1.27c-.26-.28-.4-.64-.39-1.02 0-.87.7-1.5 1.68-1.5 1.173 0 2.26.69 2.57 1.64 .08.25.11.3.2.3 .06 0 .12-.08.12-.2 0-.05-.02-.16-.04-.29 -.18-1.1-.2-1.14-.21-1.34 0-.23-.05-.33-.16-.33v0c-.03 0-.05.01-.07.03 -.16.12-.18.14-.26.14l-.001-.001c-.05-.01-.09-.02-.13-.04 -.86-.36-1-.41-1.61-.41Zm5.25.03c-1.23 0-2.17.49-2.61 1.3l.09.65c.01.09.01.16.01.19 0 .25-.16.45-.37.49 .04.49.25.93.61 1.28 .45.46.93.72 2.05 1.11 1.15.38 1.39.48 1.64.65 .41.32.65.8.65 1.3 0 1.01-.97 1.83-2.154 1.83 -.73 0-1.48-.29-1.95-.76v0c-.15-.15-.28-.31-.39-.49 -.1.22-.21.45-.34.64 .09.45.11.48.242.57 .33.25 1.33.49 2.07.49 1.83 0 3.16-1.18 3.16-2.82 -.04-1.18-.84-2.03-2.46-2.58 -1.64-.55-1.72-.58-2.08-.98v0c-.26-.28-.4-.64-.39-1.02 0-.89.7-1.5 1.68-1.5 1.17 0 2.25.69 2.57 1.64 .08.25.12.3.2.3 .06 0 .12-.08.12-.2 0-.05-.02-.15-.04-.29 -.18-1.093-.2-1.15-.21-1.34 0-.23-.05-.33-.16-.33 -.04 0-.05.01-.07.03 -.16.13-.18.14-.26.14 -.04 0-.07-.02-.13-.04 -.84-.37-1-.41-1.6-.41Zm4.66.17c-.31 0-.65.01-.98.03 -.73.04-.73.04-1.07.04h-.13 -.001c.03.09.05.2.04.3 .01.12.01.19.11.72l.11.7h-.001c.01.06.01.12.01.19v0c0 .13-.05.27-.15.37v2.52c.29.41.43.9.43 1.44 0 .62-.18 1.19-.49 1.65 -.08.57-.29.72-.82.88 -.13.03-.16.04-.16.12 0 .09.04.12.17.12 .04 0 .21-.02.33-.04 .22-.04.56-.05.88-.05 .62 0 1.31.01 1.47.04 .17.01.32.03.4.03 .11 0 .2-.05.2-.13s-.08-.13-.25-.15c-.94-.1-1.24-.44-1.21-1.35v-2.38c.01-.23.04-.26.38-.24h.72c.29 0 .37.04.51.27 .04.08.08.12.08.14l1.62 2.49c.66 1.01 1.23 1.39 2.04 1.39 .48 0 .93-.13.93-.26 0-.05-.05-.1-.12-.1 -.7.01-1.16-.37-1.98-1.63l-1.84-2.67c1.06-.55 1.64-1.32 1.64-2.3 0-.71-.29-1.34-.81-1.72 -.52-.39-1.18-.55-2.202-.55Zm10.8.11c-.08 0-.18.01-.33.03 -.16.03-.33.04-.6.04 -.39 0-1.03-.04-1.27-.05l-.29-.02c-.13 0-.2.04-.2.12 0 .09.04.14.19.17 1.25.17 1.36.46 1.33 3.53v3.15c0 .21-.02.25-.08.24 -.04 0-.08-.05-.18-.16l-6.05-6.88c-.13-.15-.21-.2-.36-.2 -.05 0-.13 0-.23.01h-.12c-.04 0-.33 0-.52-.02 .08.04.16.11.24.16 .58.43.93 1.17.93 1.97 0 .12-.02.25-.04.37v4.18l.16.24c.14.21.25.38.37.54v-4.71c0-.23.03-.29.12-.29 .06 0 .08.01.16.09l5.54 6.36c.21.24.21.24.3.24 .16 0 .2-.1.2-.39v-.13c.01-.39.01-.98.01-1.82v-4.276l.01-.42c-.02-1.6.04-1.76.65-1.92 .09-.02.12-.05.12-.12 0-.08-.08-.15-.2-.15Zm-11.156.33c.61 0 1.27.2 1.64.54 .46.38.73 1.02.73 1.64 0 1.09-.7 1.76-1.85 1.76h-.74c-.44-.02-.47-.05-.47-.47V8.68c0-.45 0-.5.08-.62 .09-.13.29-.21.59-.21Z"/></svg>