<svg viewBox="0 0 24 24" xmlns="http://www.w3.org/2000/svg"><path d="M6 0C2.689 0 0 2.689 0 6v12c0 3.311 2.689 6 6 6h12c3.311 0 6-2.689 6-6V6c0-3.32-2.689-6-6-6H6Zm.22 1.871h11.546l-.001 0c2.19 0 3.97 1.78 3.97 3.979v11.54 0c-.01 2.19-1.79 3.97-3.98 3.97H6.2v0c-2.2-.01-3.98-1.79-3.98-3.98V5.83l-.001 0C2.21 3.63 4 1.85 6.19 1.85Zm-.23 2.31v1.82H4.61v1.69h1.37v1.9H4.61v1.689h1.37v1.82h1.4v-1.83h1.69v1.82h1.39v-1.83h1.37V9.57h-1.37v-1.9h1.37v-1.7h-1.37V4.14h-1.4v1.82h-1.7V4.13h-1.4ZM7.38 7.7h1.69v1.9h-1.7V7.69Z"/></svg>