<svg viewBox="0 0 24 24" xmlns="http://www.w3.org/2000/svg"><path d="M17.209 6.69c-.04-.274 0-.6 0-.6v-.01c.14-.72.77-1.26 1.52-1.26 0 0 0 0 .01 0h0c.85 0 1.55.69 1.55 1.556 0 .85-.7 1.556-1.56 1.556 -.01 0-.01-.01-.01-.01h-.01c-.75-.01-1.38-.53-1.53-1.26ZM24 1.53v20.92c0 .85-.65 1.54-1.45 1.54H1.43c-.8 0-1.45-.69-1.45-1.54V1.53C-.02.68.63-.01 1.43-.01h21.11c.79 0 1.44.69 1.44 1.54ZM21.69 17.53c0-1.64-1.33-2.97-2.97-2.97 -1.32 0-2.48.87-2.85 2.13h-1.76l-2.74-4.72 -.01-.01 0-.01 2.73-4.71h1.74c.45 1.57 2.1 2.47 3.673 2.01 1.57-.46 2.47-2.11 2.01-3.673C21.05 4 19.4 3.1 17.83 3.56v0c-.98.28-1.74 1.04-2.02 2.017h-2.67l-.03-.02 -3.23 5.552 -.03.04H7.93C7.47 9.57 5.82 8.68 4.26 9.14c-1.58.45-2.48 2.1-2.017 3.673 .45 1.57 2.103 2.474 3.67 2.01 .97-.29 1.73-1.045 2.01-2.02h1.96l3.208 5.52 .01-.01h2.69v0c.36 1.26 1.52 2.13 2.84 2.13h0c1.63 0 2.96-1.33 2.96-2.97Zm-2.933-1.62c-.75 0-1.39.52-1.53 1.25 -.01.02-.01.05-.01.08 -.01.01-.02.02-.02.04 -.05.3 0 .6 0 .6 .17.84.99 1.38 1.83 1.2 .57-.12 1-.55 1.16-1.09 .06-.18.1-.36.1-.56 0-.86-.7-1.56-1.56-1.56ZM5.19 10.39c-.86 0-1.56.69-1.56 1.55 0 0 0 .01 0 .01s-.01 0-.01 0c0 .85.69 1.54 1.54 1.548 .54-.01 1.01-.28 1.29-.7 .17-.25.27-.56.27-.875 0-.86-.7-1.56-1.56-1.56Z"/></svg>