<svg viewBox="0 0 24 24" xmlns="http://www.w3.org/2000/svg"><path d="M6.52 10.03l-.001 0c5.02-2.31 10.83-2.21 15.78.26 .26.19.65 0 .72-.27l.92-2.83c.13-.27 0-.66-.33-.79V6.39C16.02 2.66 6.99 3.53.25 8.629h0c-.28.19-.36.56-.2.85l2.16 4.79c.13.32.52.52.85.39 2.43-.93 6.18-1.85 9.99-1.32 -2.63.46-4.67 1.38-6.32 2.36h0c-.28.19-.36.56-.2.85l1.31 3.02c.13.26.46.32.65.13 .52-.53 1.05-.93 1.51-1.19 2.1-1.19 4.99-2.11 8.87-1.91v0c.29.01.56-.18.65-.47l.98-2.96c.13-.27 0-.66-.27-.79v0C16.05 9.9 11.12 9.04 6.35 9.93Z"/></svg>