<svg viewBox="0 0 24 24" xmlns="http://www.w3.org/2000/svg"><path d="M2.565 11.47c-.94-.23-1.274-.375-1.274-.81 0-.36.33-.59.83-.59 .76 0 1.44.52 1.62.68l.48-.99v0c-.6-.49-1.34-.74-2.093-.73 -1.175 0-2 .7-2 1.7 0 1.09.707 1.47 1.92 1.77 1.02.23 1.202.43 1.202.77 0 .4-.36.63-.911.63 -.69 0-1.242-.27-1.89-.86l-.48 1.02h0c.64.56 1.47.87 2.33.87 1.266 0 2.08-.68 2.08-1.77 0-.9-.54-1.4-1.86-1.721m21.43-2.34H19.2v1.05h2.7l-2.942 4.682h4.91v-1.05h-2.89L23.92 9.09m-7.77 2.52h-.85v-1.47h.84c.625 0 .97.25.97.73 0 .47-.37.73-.97.73Zm2.14-.77c0-.51-.19-.94-.53-1.26 -.36-.33-.87-.5-1.47-.5h-2.16v5.73h1.16v-2.09h.83l1.2 2.09h1.33l-1.37-2.38c.85-.41.98-1.19.98-1.61m-9.2-1.76H4.49v1.05h1.69v4.68H7.35v-4.69h1.69v-1.05m1.157 3.78l.7-1.41 .7 1.4Zm-.99 1.94l.45-.9h2.48l.45.89h1.21L10.89 9 8 14.76h1.2Z"/></svg>