<svg viewBox="0 0 24 24" xmlns="http://www.w3.org/2000/svg"><path d="M14.943 14.596c.09 0 .3.09.57.46h-.001c.75 1.05 1.47 2.12 2.16 3.23 -1.63.64-3.6 1.01-5.69 1.01 -.99 0-1.95-.1-2.856-.26 1.41-1.51 2.91-2.86 4.7-3.98 .55-.28.81-.47 1.096-.47Zm2.42-6.202c2.85 1.05 4.788 2.9 4.788 4.99 0 1.41-.89 2.73-2.34 3.75 -.39-2.26-.9-4.477-1.65-6.616h-.001c-.25-.72-.52-1.44-.81-2.14Zm-9.637-.32l-.001-.001c-.42 1.07-.78 2.17-1.1 3.28v0c-.57 2.1-1.01 4.24-1.33 6.4 -2.11-1.1-3.47-2.69-3.47-4.39 0-2.28 2.44-4.337 5.885-5.307ZM12.456.08c-.1-.001-.08-.01-.18.08l-.001 0c-1.48 1.75-2.71 3.69-3.67 5.77 -5 .94-8.63 3.94-8.63 7.44 0 2.58 1.99 4.9 5.048 6.31l0 0c-.16 1.33-.28 2.67-.35 4.01 0 .09.1.2.2.2h.08c.09 0 .08 0 .17-.09l0-.001c.81-1.09 1.66-2.16 2.53-3.21 1.33.33 2.78.52 4.29.52 2.455 0 4.73-.48 6.63-1.3 .46.77.9 1.55 1.38 2.39 0 .09.19.08.28.08v0c.09-.01.17-.08.17-.18l0-.001c-.1-1.04-.21-2.07-.35-3.09 2.36-1.42 3.86-3.45 3.86-5.69 0-3.26-3.16-6.072-7.62-7.212h0c-1.04-2.13-2.3-4.14-3.75-6 0-.1-.08-.09-.18-.09Z"/></svg>