<svg viewBox="0 0 24 24" xmlns="http://www.w3.org/2000/svg"><path d="M22.33 3.28c-.11 0-.22 0-.34.01 -1.56.129-3.89.91-6.56 2.217v0c-1.13-.66-2.41-1-3.71-1 -4.13 0-7.48 3.354-7.48 7.49 0 .67.09 1.33.26 1.95 -3.224 2.69-5.04 5.15-4.385 6.22 .712 1.125 3.99.41 8.115-1.56h0c1.07.56 2.27.85 3.48.86 4.12 0 7.48-3.36 7.48-7.48 0-.55-.06-1.09-.17-1.6 3.5-2.867 5.52-5.5 4.81-6.62 -.24-.375-.77-.55-1.53-.53ZM18 4.98c-1.92.76-4.666 1.7-5.64 3.71 -.57 1.14.37 2.436.84 3.035 .47.62 1.35 2.17-.13 3.78 -1.5 1.63-7.028 3.31-7.028 3.31 1.78-.843 4.91-2.06 5.396-4.16 .375-1.593-1.15-2.5-1.56-3.205 -.42-.72-.85-1.93 1.31-3.54 2.15-1.64 6.804-2.95 6.804-2.95Zm1.02.758c.67-.01 1.15.15 1.37.49 .43.67-.21 1.95-1.56 3.393v0c-.45-1.33-1.25-2.5-2.33-3.4 .97-.32 1.83-.49 2.5-.5ZM4.78 14.77v0c.49 1.2 1.28 2.26 2.3 3.07 -1.77.52-3.074.52-3.467-.12 -.4-.62.07-1.71 1.16-2.96Z"/></svg>