<svg viewBox="0 0 24 24" xmlns="http://www.w3.org/2000/svg"><path d="M19.78 21.63c1.75 0 2.39-.76 2.39-2.61V15.4c0-1.73.83-2.71 1.64-3.17 .24-.15.24-.49 0-.65 -.84-.54-1.64-1.65-1.64-3.122V4.91c0-2-.55-2.58-2.31-2.58H4.1c-1.76 0-2.301.58-2.301 2.57v3.55c0 1.48-.81 2.59-1.641 3.122h0c-.18.1-.24.34-.13.51 .03.05.07.09.12.12 .804.45 1.64 1.43 1.64 3.17v3.6c0 1.85.645 2.6 2.39 2.6Zm-7.82-3.3c-1.89 0-3.25-.57-4.53-1.68h-.001c-.19-.18-.3-.42-.29-.68v0c-.01-.21.06-.41.19-.57l.4-.52c.19-.25.4-.36.64-.36 .27 0 .53.11.8.29v-.001c.88.58 1.92.89 2.99.88 .88 0 1.593-.37 1.593-1.13 0-1.97-6.533-.89-6.533-5.3 0-2.37 1.93-3.69 4.44-3.69 1.77 0 3.074.51 4.04 1.12 .24.16.4.48.4.8 0 .19-.05.37-.17.53l-.29.43c-.21.29-.45.43-.76.43 -.21 0-.44-.08-.68-.2v-.001c-.75-.39-1.57-.58-2.4-.57 -.95 0-1.513.51-1.513 1.04 0 2.01 6.53.91 6.53 5.19 0 2.41-1.95 3.89-4.91 3.89Z"/></svg>