<svg viewBox="0 0 24 24" xmlns="http://www.w3.org/2000/svg"><path d="M21.92 9.49v2.07h-1.51v1.5h1.5v-1.5h2.07V9.486ZM16 9.98v1.07h1.07V9.97Zm2.32 2.57v-.001c-.15 0-.28.05-.39.14v0c-.11.09-.17.23-.16.38h0c-.01.13.04.26.14.35v0c.09.07.2.12.33.14l.1.01 .11.02 0-.001c.05 0 .1.02.16.03v-.001c.03.01.07.03.1.06v0c.07.07.1.16.1.26v0c0 .11-.05.21-.13.29v-.001c-.1.07-.23.11-.35.1v0c-.1 0-.2-.02-.29-.05v0c-.1-.05-.18-.11-.24-.18l-.1.1h-.001c.07.08.16.14.27.19v0c.1.04.22.06.34.06v0c.16 0 .32-.05.45-.15v0c.11-.1.17-.25.17-.39V13.9c-.01-.08-.02-.15-.05-.21v0c-.03-.07-.07-.12-.12-.16v0c-.04-.04-.09-.07-.13-.08v0c-.07-.03-.14-.04-.2-.05l-.12-.02 -.09-.02v0c-.06-.02-.11-.03-.16-.05v0c-.05-.02-.09-.05-.13-.08v0c-.07-.07-.11-.16-.1-.25l-.001 0c-.01-.11.03-.22.11-.29v0c.08-.08.19-.12.31-.11v0c.08-.01.17.01.25.04v-.001c.07.03.13.07.19.13l.09-.1v0c-.14-.15-.34-.22-.53-.21v0c-.02-.01-.03-.01-.04 0Zm-17.664 0v0c-.16 0-.32.05-.44.16H.21c-.12.1-.19.26-.18.42v0c-.01.13.03.27.13.375H.16c.09.09.22.14.35.15l.12.01 .1.01H.73c.06 0 .12.03.17.07v0c.03.04.05.09.05.15 0 .16-.11.23-.33.23H.62c-.09 0-.17-.02-.26-.04l-.001 0c-.08-.03-.15-.07-.2-.13l-.233.24h0c.08.08.18.15.29.19H.21c.12.04.25.05.38.05H.59c.17 0 .35-.05.49-.16l0-.001c.12-.11.19-.27.19-.44v0c.01-.15-.05-.3-.15-.41h0c-.05-.04-.1-.08-.15-.1H.97c-.07-.03-.14-.05-.21-.06l-.11-.02 -.12-.02H.53c-.07-.01-.13-.04-.17-.08H.36C.32 13.1.3 13.05.3 13v0c-.01-.07.02-.13.07-.18H.37c.05-.05.13-.08.21-.07v0c.06-.01.13 0 .2.02h0c.06.01.12.05.17.1l.22-.24h0c-.08-.08-.17-.14-.26-.17h0c-.11-.04-.23-.06-.34-.06H.57c-.02-.01-.03-.01-.04 0Zm12.091 0h0c-.09 0-.17.01-.24.05h0c-.08.03-.16.08-.21.14v0c-.04.03-.08.08-.1.13v0c-.03.04-.05.1-.05.15v0c-.02.06-.02.12-.02.19v0c-.01.19-.01.39 0 .59v0c0 .06 0 .12.02.19v-.001c0 .05.02.1.05.15h0c.02.05.05.09.09.13v0c.05.06.13.11.21.14v0c.07.03.16.04.25.05h0c.08 0 .17-.02.25-.05v0c.07-.04.15-.09.21-.15v0c.03-.04.07-.09.09-.14v-.001c.02-.05.04-.1.05-.16v0c.01-.07.01-.13.02-.19v0c0-.2 0-.4 0-.6v0c-.01-.07-.01-.13-.02-.19v-.001c-.01-.06-.03-.11-.05-.16v0c-.03-.05-.06-.1-.1-.14v0c-.06-.07-.14-.12-.21-.15v0c-.08-.04-.17-.05-.25-.05v0c-.01-.01-.01-.01-.02 0Zm-10.949.01v.33h.48v1.57h.36v-1.58h.48v-.34Zm1.87 0v1.9h1.21v-.33h-.86v-.47h.72v-.34H4v-.45h.85v-.34Zm2.29 0l-.673 1.9h.375l.11-.34h.65l.11.33h.37l-.68-1.91Zm1.44 0v1.9h.36v-1.11l.35.72h.24l.35-.73v1.11h.36v-1.91h-.36l-.48 1.03 -.49-1.03Zm2.19 0l.46 1.9h.14l.43-1.66 .43 1.66h.14l.46-1.91h-.15l-.39 1.65 -.43-1.66h-.15l-.43 1.65 -.39-1.66Zm4.452 0v1.9h.14v-.89h.5l.44.88h.16l-.45-.89v-.001c.25-.04.44-.26.42-.52v0c0-.15-.05-.28-.15-.38h0c-.11-.1-.25-.15-.39-.14Zm1.93 0v1.9h.14v-.52l.44-.56 .59 1.06v-.01h.16l-.67-1.18 .57-.73h-.17l-.94 1.19v-1.2Zm3.18.03v.19h.02v-.13l.04.09h.02l.04-.1v.12h.02v-.19h-.03l-.06.11 -.06-.12Zm-.17 0v.02h.05v.16h.02v-.17h.05v-.03Zm-6.26.08v0c.13-.01.25.05.35.14h0c.03.03.05.06.07.1v0c.02.04.03.08.04.13v0c.01.05.01.11.01.17h0c0 .18 0 .37 0 .55v-.001c-.01.05-.01.11-.02.17v0c-.01.04-.03.09-.05.13h0c-.03.03-.05.07-.08.1h0c-.19.19-.5.19-.7 0 -.01-.01-.01-.01-.01-.01v0c-.04-.04-.06-.07-.08-.11l-.001-.001c-.02-.05-.04-.09-.05-.14v-.001c-.02-.06-.02-.12-.02-.18v0c-.01-.19-.01-.38 0-.56v0c0-.06 0-.12.01-.18v0c0-.05.02-.1.04-.14v-.001c.02-.04.04-.08.07-.11v-.001c.09-.1.21-.15.34-.15Zm2 .01v0c.1-.01.2.03.28.09v0c.07.07.12.18.11.28l0 0c0 .1-.04.21-.12.28h-.001c-.09.06-.19.1-.3.09h-.55v-.77h.54 -.001c0-.01 0-.01.01-.01Zm-8.65.43l.22.69h-.46Z"/></svg>