<svg viewBox="0 0 24 24" xmlns="http://www.w3.org/2000/svg"><path d="M11.981 0C5.72 0 .58 2.231.02 5.081l6.675 1.25c.54-.17 1.162-.25 1.8-.25l3.13-1.875c-.04-.47.24-.956.88-1.35 .9-.581 2.3-.9 3.73-.9v0c.95-.02 1.9.11 2.81.41 2.1.71 2.56 2.082 1.06 3.05 -.96.61-2.5.93-4.02.9L11.96 7.79c-.04.3-.25.58-.64.84 -1.11.71-3.263.88-4.8.35 -.68-.23-1.125-.57-1.32-.9L.43 7.166c.43.67 1.12 1.29 2.02 1.838C.9 9.9-.04 11.02-.04 12.24c0 1.2.9 2.3 2.41 3.2 -1.52.88-2.42 1.99-2.42 3.18 0 2.94 5.36 5.32 12 5.32 6.619 0 12-2.39 12-5.33 0-1.2-.9-2.31-2.42-3.19 1.51-.9 2.41-2.01 2.41-3.205 0-1.22-.94-2.362-2.52-3.27 1.55-.96 2.49-2.138 2.49-3.42 0-3.093-5.381-5.606-12-5.606Zm4.275 2.66c-.98.01-1.92.22-2.52.61 -1.04.67-.72 1.59.71 2.08 1.42.48 3.39.33 4.42-.34 1.032-.68.71-1.6-.72-2.062v0c-.62-.2-1.27-.29-1.92-.29Zm.05.31c1.38 0 2.49.52 2.49 1.16 0 .63-1.11 1.162-2.5 1.162 -1.388 0-2.5-.53-2.5-1.162 0-.64 1.1-1.17 2.49-1.17Zm-7.82 3.469c-.3.01-.58.03-.87.07l1.7.31 0 0c1.04.19 1.54.74 1.12 1.22 -.42.48-1.61.71-2.65.52l-1.67-.32c.18.17.45.32.806.45 1.2.41 2.888.28 3.75-.28 .86-.57.6-1.35-.6-1.75 -.49-.17-1.07-.25-1.612-.25Zm11.94 3.11v1.74c0 2.06-3.79 3.73-8.437 3.73 -4.669 0-8.437-1.67-8.437-3.74v-1.73c2.15.99 5.13 1.61 8.418 1.61 3.3 0 6.3-.62 8.47-1.64Zm0 6.487v1.65c0 2.06-3.79 3.73-8.437 3.73 -4.669 0-8.437-1.67-8.437-3.74v-1.65c2.175.95 5.13 1.53 8.437 1.53 3.3 0 6.28-.59 8.43-1.54Z"/></svg>