<svg viewBox="0 0 24 24" xmlns="http://www.w3.org/2000/svg"><path d="M17.683 16.148l-.12.11c-.24.23-.49.46-.75.66l-.3.23v-.001c-.05.03-.12.03-.16-.02 -.03-.03-.03-.07-.03-.1l.12-.53h0c.12-.58.1-1.19-.09-1.75l-.07-.2v0c-.08-.23-.17-.46-.26-.68l-1.39-3.27 -.15-.45v0c-.05-.14-.08-.29-.1-.43l-.03-.23h-.001c-.08-.63.14-1.26.59-1.7l.11-.12v0c.23-.24.48-.46.74-.67l.29-.24v0c.03-.03.08-.04.12-.01 .04.02.06.07.04.11l-.12.53v0c-.13.57-.11 1.18.08 1.74l.06.19c.07.22.16.45.25.67l1.38 3.27 .15.44c.04.13.07.28.09.42l.02.22v0c.07.62-.15 1.25-.6 1.69Zm-3.997 1.07l-.15.14c-.3.29-.62.57-.95.83l-.39.3h-.001c-.06.04-.13.03-.17-.02 -.03-.03-.04-.07-.03-.11l.15-.69v0c.16-.74.12-1.5-.11-2.21l-.08-.25h-.001c-.1-.29-.21-.58-.33-.85l-1.76-4.13 -.19-.56v0c-.06-.18-.1-.36-.12-.532l-.04-.29h0c-.1-.79.18-1.57.74-2.13l.14-.15c.29-.3.61-.58.94-.84l.39-.31v0c.03-.04.09-.04.13-.01v0c.04.02.06.07.05.12l-.16.68V6.2c-.17.73-.13 1.49.1 2.2l.08.24c.09.28.2.57.32.84l1.75 4.125 .18.56c.05.17.09.35.11.532l.03.28h-.001c.09.78-.19 1.56-.74 2.12ZM9 16.13l-.12.11c-.24.23-.49.46-.75.66l-.3.23h0c-.05.03-.12.02-.16-.02 -.02-.03-.03-.06-.03-.1l.12-.53v0c.12-.58.1-1.19-.09-1.75l-.07-.2h0c-.08-.23-.17-.46-.26-.68l-1.39-3.27 -.15-.45v-.001c-.05-.14-.08-.29-.1-.43l-.03-.23v0c-.08-.63.14-1.26.59-1.7l.11-.12v0c.23-.24.48-.46.74-.67l.29-.24V6.74c.03-.03.08-.04.12-.01 .04.02.05.07.04.11l-.12.53H7.43c-.13.57-.11 1.18.08 1.74l.06.19c.07.22.16.45.25.67l1.38 3.27 .14.44c.04.13.07.28.09.42l.02.22v0c.07.62-.15 1.25-.59 1.69ZM12-.01c-6.627 0-12 5.373-12 12 0 6.62 5.373 12 12 12 6.62 0 12-5.38 12-12 0-6.63-5.38-12-12-12"/></svg>