<svg viewBox="0 0 24 24" xmlns="http://www.w3.org/2000/svg"><path d="M20.98 7.24c-1-1-2.17-1.73-3.4-2.202 .72-2.12 3.27-2.9 3.27-2.9s-5.97-3.1-12.549-1.87C6.1.61 3.99 1.96 2.45 3.74l-.001 0c-3.32 3.81-2.91 9.59.9 12.91 .02.02.05.04.08.07 .59.51 1.93 1.3 1.95 1.34 -.88 2.22-3.678 2.83-3.678 2.83s3.7 2.31 8.676 2.91c1.31.16 2.72.2 4.17.05 2.3-.19 4.59-1.41 6.34-3.12v0c3.75-3.69 3.81-9.72.12-13.47 -.03-.03-.05-.05-.07-.07ZM19.27 19.29c-1.41 1.38-3.52 2.26-5.14 2.38 -1.15.11-2.38.13-3.56-.02 -1.74-.22-2.99-.69-4.22-1.16 .62-.61 1.24-1.43 1.5-2.15h0c.16-.43.14-.9-.05-1.31v0c-1.32-2.72-.75-5.98 1.42-8.08v0c1.57-1.54 3.75-2.27 5.93-1.99v0c1.59.18 3.08.9 4.22 2.04 2.785 2.79 2.68 7.52-.13 10.26Z"/></svg>