<svg viewBox="0 0 24 24" xmlns="http://www.w3.org/2000/svg"><path d="M12.283 1.85l-.001 0C6.672 1.69 2 6.11 1.84 11.71c-.01.09-.01.18-.01.28 0 .25.01.516.03.77l0 0c.05.74-.34 1.44-1.01 1.78l-.88.44v2.074l2.568-1.31 .83-.43 .82-.42L18.9 7.39l1.65-.85 3.41-1.75V2.72l-3.39 1.72 -2.89 1.47L3.72 13.02v0c-.05-.37-.08-.73-.07-1.09v0c0-4.6 3.73-8.31 8.32-8.31 1.41 0 2.8.36 4.04 1.05l1.654-.843 .24-.13v0c-1.66-1.21-3.64-1.88-5.69-1.94ZM24 6.92L5.055 16.57l-1.653.84 -3.41 1.73v2.07l3.37-1.73L6.252 18l13.97-7.12v0c.04.36.07.72.07 1.09v0c-.01 4.59-3.73 8.31-8.32 8.3 -1.43-.01-2.82-.37-4.06-1.07l-.11.05 -1.8.91 -.001 0c4.53 3.29 10.88 2.28 14.18-2.26 1.25-1.74 1.93-3.82 1.93-5.97 0-.26-.01-.53-.03-.78v0c-.06-.75.33-1.45 1-1.79l.87-.45Z"/></svg>