<svg viewBox="0 0 24 24" xmlns="http://www.w3.org/2000/svg"><path d="M.7 0v0C.31 0-.01.31-.01.7v2.824h5.648l0 0c.45.02.9.14 1.31.36l3.23 1.9v0c.19.1.27.34.17.53 -.04.07-.1.13-.18.17l-1.54.9v0c-.38.19-.83.19-1.2 0l-1.2-.7v0c-.41-.22-.86-.34-1.32-.36H-.03v4.23h4.94v0c.46-.02.91-.15 1.31-.36l10.8-6.35 0 0c.4-.22.85-.35 1.31-.36h5.63V.66v0c-.01-.39-.32-.7-.71-.692Zm18.35 6.35v0c-.47.02-.91.14-1.32.36l-10.8 6.34v0c-.41.21-.86.33-1.32.36H-.03v4.23h4.94 0c.46-.03.9-.15 1.31-.36l10.8-6.35v0c.4-.22.85-.34 1.31-.36h5.63V6.33h-3.38Zm0 7.072h0c-.47.02-.91.14-1.32.36l-10.8 6.34v0c-.41.21-.86.34-1.32.36H-.03v2.82l0-.001c.01.38.32.68.7.68H23.26v-.001c.38-.01.69-.32.7-.7v-2.83H18.31v0c-.46-.02-.91-.15-1.32-.36l-3.24-1.9h-.001c-.2-.1-.28-.34-.18-.54 .03-.08.1-.15.17-.18l1.53-.9h0c.37-.2.82-.2 1.2 0l1.2.69v0c.4.21.85.34 1.31.36h4.94v-4.24h-3.38Z"/></svg>