<svg viewBox="0 0 24 24" xmlns="http://www.w3.org/2000/svg"><path d="M13.976 9.15c-2.18-.81-3.356-1.43-3.356-2.409 0-.84.68-1.31 1.9-1.31 2.22 0 4.51.85 6.09 1.63l.89-5.494c-1.25-.6-3.81-1.58-7.336-1.58 -2.5 0-4.58.654-6.07 1.872C4.544 3.12 3.74 4.97 3.74 7.2c0 4.03 2.46 5.76 6.47 7.21 2.58.92 3.44 1.57 3.44 2.58 0 .98-.84 1.54-2.36 1.54 -1.875 0-4.965-.93-6.99-2.11l-.9 5.555c1.74.97 4.95 1.98 8.28 1.98 2.641 0 4.843-.63 6.32-1.82 1.66-1.31 2.52-3.24 2.52-5.74 0-4.128-2.53-5.86-6.6-7.305h0Z"/></svg>