<svg viewBox="0 0 24 24" xmlns="http://www.w3.org/2000/svg"><path d="M17.803 5.24h0c-.59.01-1.16.18-1.65.5 -.25.18-.54.52-.52 1.165 .02.32.03.29.11.58 .23.43.45.62.82.94 .06.04.07.06.13.09 .27.25.55.55.79.82 .2.25.43.54.6.82 .22.39.26.36.54.92 .28.64.39 1.39.22 2.06v0c-.18.6-.48 1.16-.88 1.64l.34 1.13 .3-1.12 .46 0 .29 1.11 .34-1.112h.46l-.56 1.66c.3-.39.52-.74.76-1.2l.4.07c.03-.1.07-.16.14-.19 .04-.02.06-.04.19-.04 .1-.01.21.01.25.09 .01.03.02.06.02.18v0c-.15.04-.29.07-.44.1 -.31.05-.43.1-.53.19v0c-.11.08-.16.21-.16.35 0 .11.02.18.07.26 .07.12.19.19.34.23 .1.02.3.01.39-.01v0c.09-.03.18-.08.27-.14l.07-.06 .05.17h.48l-.02-.03v0c-.04-.08-.06-.15-.08-.22 -.02-.06-.02-.14-.02-.548 0-.41-.01-.5-.02-.56 -.03-.12-.04-.16-.11-.22v0c-.07-.08-.16-.13-.26-.14l-.001-.001c-.17-.04-.33-.05-.5-.03 -.22.01-.42.11-.49.22 0 0 0 0-.01 0 .73-1.5 1-3.19.27-4.696 -.42-.92-1.04-1.53-1.76-2.11 .71 0 1.36.09 2.03.02 .16-.02.3-.02.45-.06l0 0c.09-.06.2-.08.31-.08 .33-.12.37-.22.37-.3 -.03-.19-.34-.33-.49-.4l-.96.2c-.06-.04-.84-.3-.83-.6 0-.13.13-.14.16-.44l0-.27 -.06-.3c-.07-.09-.43-.32-.63-.43 -.25-.12-.39-.19-.57-.24v0c-.36-.13-.73-.18-1.096-.18Zm-6.34.657c-1.67-.01-3.29.5-4.457 1.83 -.55.57-1.06 1.27-1.46 1.923 .39.08.69.18 1.165.32 .43.09.78.37 1.08.48l.09-.05c-1.01-.5-.69-.4-.29-.266 .72.65 1.82.52 2.545 1.16l.24.14c.11-.04-.33-.28-.25-.29l.06 0c-.03-.01-.87-.54-.8-.53 -.09-.15-.27-.23-.36-.31 .22.07.58.375.73.42l.07-.07c.03-.03 0 .13.14.16l.1-.17c.01-.03.08.14.13.15 .03 0 0-.07.07-.12 -.13-.08-.14-.08-.26-.14 -.16-.03-.19-.05-.46-.24 .29-.03.32.09.46.15 .44.12.9.28 1.27.56l.03-.04c.01-.02.54.38.51.35l.06-.09c.01-.02.13.17.14.16l.06-.07c.25.22.27.37.52.55 .16.07.54.37.79.52 .5.45.71.64-.03.07 -.17-.1-.62-.53-.53-.17 .16.125.67.37.44.38 0 0 .03.07.375.26 .14.08.44.29.44.29l.01-.03 .17.16c-.02-.02-.13-.02-.19-.03 -.29-.22-.27-.2-.3-.2 -.22.23.2.15.03.3 .15.08.3.21.41.32 .01.12.13.19.26.31s.28.31.38.41c.84-.39 1.31-.98 1.55-1.53 .29-.76.24-1.02.08-1.59 -.18-.56-.72-1.16-1.19-1.53 -.25-.23-.5-.37-.88-.66 -.69-.76-.96-1.41-1.02-1.97 -.08-.516.06-1 .16-1.32 -.7-.07-1.452-.15-2.07-.15v0c-.06-.01-.11-.01-.17-.01ZM5.54 9.65c-.08-.02-.16-.03-.23-.03v0c-.1-.01-.19.02-.26.08 .13.01.26.03.39.07Zm-.09.13l-.08.12c.21.02.31.01.51.04 .19.05.54.15.71.2 .01.01.08-.04.05-.06 -.39-.18-.82-.21-1.2-.32Zm-.08.12H5.2l.14.04Zm-.03.04L5.3 10c.21.03.98.29 1.045.29 .04 0 .06-.05.02-.07 -.14-.06-.32-.1-.508-.16v0c-.18-.06-.36-.11-.54-.15ZM5.3 10c-.21-.05-.33-.1-.58-.17 -.258-.11-1.13-.26-.56.03 .04.09-.51-.05-.35-.1 -.06 0-.98-.28-.73-.1 -.4-.14-.31-.13-.37.06 -.2-.13-.34-.17-.47-.17 -.08 0-.17.01-.262.03 -.35-.07-.13-.02-.17.14 .11.12.78.27.92.31 .32.06 1.11.31 1.085.25 -.29-.17.14 0 .26.06 .14.08.58.07.55.22v-.001c.07 0 .15.02.21.07 .12-.22.24-.44.42-.69Zm-.53-.26c.06.07.14.05.23.07 .06-.01.29-.02.33-.02 -.02-.01-.23-.07-.57-.07Zm-.41.07c.09 0 .42.22.19.13 -.25-.07-.33-.13-.21-.14h0c0-.01.01-.01.01-.01Zm-2.675.01c-.04-.01-.06.08.119.1 .05 0-.08-.1-.12-.11Zm.22.07c-.03.02.03.06.36.12 .274.05-.31-.13-.37-.13Zm2.878.03c.04 0 .23.12.16.11 -.24-.03-.26-.12-.17-.12Zm-2.507.19c.22.14.31.17.05.13 .14.09.48.15.34.3 .05.02.2-.01.22.04 .02.05.01.06-.11.13 -.08.05-.49-.07-.69-.09 -.22-.06-.38-.06-.6-.09 -.47-.05-.01.08-.68.04 -.545-.04-.2.11-.244.12 -.1.13-.29-.07-.313-.05 -.05.05-.01.18-.29 0l-.05.15c.397-.01.522.14.597-.04 .17.01.3.09.354.13 .05.03-.134.11-.02.09 .1-.12.17.06.24.05 .04 0 .12-.09.17-.09 .02 0 .07.09.13.09 .04-.01.129-.07.14-.06 .38.06.488.09.556.17 .25-.02.55.16.96.2 .98.33-.91-.2-1.462-.16 -.19.01-.88-.13-.538.05 .28.12.482.25.62.15 .04-.03.89.35.33.01 .12.01.22-.01.32.04 .3.16.47.05.565.13 .27.15.47.11.698.13 .12.02.41.06.47.1 .11.02.06.01.21.03l.1-.27c-.68-.08-.7-.12-1.55-.37l.01-.06c.2.06.34.1.52.12l.01-.1c.09.02.47.1.48.09 -.22-.1-.2-.05-.17-.12 .11-.04.55.16.61.13 .15-.01.12 0 .16 0 .15-.42.17-.38.27-.66v0c-.09-.04-.17-.07-.25-.11 -.09.04.19.14-.31-.01 -.15-.1-.125-.15-.16-.01 -.06-.04-.09-.01-.34-.2 -.351-.13-1.27-.34-1.51-.34Zm2.27 1.3l-.11.26c.21.02.16 0 .3-.01 .13-.02.47.11.62.19 .08.05.09.07.36.16 .14.02.57.24.87.31 .03-.01.36.11.52.15 .1.04.19.09.28.15 .14.06.2.08.38.11 .16.07-.02.02.2.11 .24.12.35.24.44.26 .1-.06.34-.12.38-.13 -.18-.04-.44-.25-.82-.39 -.63-.15-1.14-.55-1.71-.81l-.42-.12c-.04 0-.05.02-.05.05 .39.12.53.16.67.23 .18.16.32.18.351.22 -.33-.1-.3-.09-.59-.18 -.24-.08-.274-.14-.58-.23 -.16-.05-.36-.17-.54-.24v0c-.2-.09-.4-.15-.6-.17Zm-.21.53c-.71 1.92-1.07 2.86-2.63 3.88 -.37.22-.78.4-1.21.42v2.46c1.51 0 3.019 0 4.528 0 -.28-2.279 1.12-4.583 3.202-5.51 -.38-.29-.39-.21-.46-.18 -.25-.19-1.15-.68-1.16-.69 -.1-.02-.36-.125-.4-.08 -.03.05.13.07.18.08 .22.04 1.242.66 1.32.79 -.45.02-.81-.41-1.181-.51l0-.12c-.24-.12-.42-.13-.49-.17 -.08.14-1.016-.35-1.17-.35 -.23.03-.22-.04-.58-.09Zm.93-1.34c-.02 0-.01.01.05.04 .05.01.51.2.25.14 -.17.11.42.01.24.11 -.4-.12.54.3.3.07 -.1-.15-.14-.09-.2-.12 -.19-.1-.3-.13-.42-.18 -.03-.01-.22-.07-.26-.08Zm-4.32.02c.13 0 .266.01.31.01 .36-.05.42.12.1.08 -.03-.01-.11-.08-.24.04 -.08-.01-.13-.09-.22-.11 .07.1.29.14-.131.08 -.258-.12-.06-.14.15-.14Zm.74.03c.05-.01.11.01.12.07 -.26-.02-.21-.08-.13-.08Zm8.753.28l-.01 0c-.13.08.05.23.38.34 -.1-.14-.05-.15-.2-.2 .06.17-.15-.16-.19-.16Zm-5.734.12c-.23.14.48.3.38.25 -.05-.18.399.17.21-.05 -.26-.06-.11-.11-.21-.1 -.16.06-.3-.1-.41-.12Zm-2.067.01s.01 0 .01 0c.02.01.05.05.09.07 .01.03-.03.04-.07.02 -.04-.01-.09-.04-.08-.05 .01-.05.02-.07.03-.07Zm.84.09c.01 0 .04.02.09.1 -.1-.01-.13-.1-.1-.11Zm7.41.04c-.09.07.18.29.27.14 -.14-.13.05.12-.27-.15Zm-3.99 0c-.28.06-.28 0 .05.19 .3.13-.01.09-.13.01 0 .03.25.21.22.19 .11.08.45.21.32.04 .12-.15-.2-.17-.2-.19v0c-.11-.05-.2-.11-.28-.19 -.19.01.11-.06 0-.08Zm-.01.07h0c-.01-.01-.01-.01-.01 0Zm.28.18c.02 0 .04 0 .05-.02 -.04 0-.06.01-.06.01Zm.28 2.85v.48h-.2v.24h.19l0 1.01c0 .22.12.38.33.44 .17.02.32.01.47-.03l-.01-.27v0c-.08.03-.17.05-.25.05 -.17-.01-.23-.04-.28-.21l-.01-1.03 .53 0v-.25h-.53v-.49Zm4.61.43v0c-.17 0-.34.06-.46.17l-.06.04v-.18h-.3v1.689h.29v-1.26l.06-.05v0c.07-.06.16-.11.25-.14h-.001c.07-.02.15-.02.23 0 .06.01.11.05.13.11 .04.09.05.125.05.75l0 .57h.29l-.01-.625c-.01-.61-.01-.63-.03-.7 -.05-.21-.17-.34-.35-.4h0c-.06-.02-.11-.02-.17-.02Zm11.251 0v0c-.11 0-.21.02-.31.06v-.001c-.09.04-.17.1-.23.16l-.04.03v-.24h-.45v1.71h.47l-.01-.9c-.01-.44.22-.51.39-.52 .19 0 .27.14.28.33 -.01.35 0 .71 0 1.07h.47l-.01-.65c-.01-.6-.01-.66-.02-.71v-.001c-.04-.16-.14-.29-.29-.34v0c-.1-.05-.21-.06-.32-.06Zm-13.12 0v0c-.07-.01-.14 0-.2.02 -.3.08-.5.33-.54.69 -.02.13-.01.35.02.46 .04.17.1.28.21.39h0c.04.04.09.08.14.11l0-.001c.07.03.15.06.23.07 .08.01.26 0 .34-.02v0c.19-.05.35-.18.44-.35 .07-.15.09-.25.1-.48v0c.01-.15-.01-.3-.05-.44h-.001c-.09-.32-.39-.53-.72-.51Zm3.394 0v0c-.18-.01-.36.06-.48.19v0c-.08.07-.14.16-.18.266 -.08.18-.1.42-.06.66 .05.3.21.49.44.56l0-.001c.14.03.3.02.44-.02 .09-.04.15-.1.22-.15l-.01.13v0c-.01.06-.01.12-.02.18 -.03.11-.08.18-.17.23v0c-.1.04-.2.06-.3.05 -.2-.01-.37-.08-.49-.12l-.01.3c.1.02.21.04.29.05 .18.02.38.01.51-.03 .25-.06.42-.3.44-.67v-1.62h-.266l-.02.07 -.08-.05c-.16-.08-.27-.08-.34-.08Zm-7.03 0v-.001c-.08-.01-.15 0-.22.02 -.2.05-.34.19-.38.35v0c-.01.04-.02.09-.02.13 0 .15.03.24.13.33 .09.08.18.11.47.17 .2.04.28.07.31.17 .02.17 0 .21-.11.28v0c-.08.02-.16.04-.25.04 -.15.01-.38-.08-.56-.22h-.02v.32c.11.05.23.09.35.12 .1.02.38.01.45-.01 .14-.05.3-.15.35-.27h0c.04-.08.06-.17.06-.26 -.01-.26-.13-.39-.42-.46l-.22-.05v0c-.09-.02-.17-.05-.23-.1 -.05-.05-.07-.14-.06-.21 .01-.06.05-.1.1-.14 .17-.11.49-.05.72.13h.02v-.31l-.001-.001c-.11-.05-.23-.09-.34-.11H6.68c-.07-.01-.14-.02-.21-.02Zm2.67.04v0c-.15.01-.29.07-.4.17l-.1.08 0-.26h-.29l0 1.686 .28 0 -.01-1.2 -.001-.001c.07-.07.15-.13.25-.17 .14-.06.19-.04.36-.03v-.31h-.13Zm.96.2c.05 0 .1 0 .15.02 .14.04.23.16.28.34 .02.1.03.37.01.48 -.04.21-.14.36-.3.41v0c-.15.05-.32.01-.43-.08 -.12-.11-.17-.25-.18-.49 -.01-.28.04-.47.15-.58l0 0c.07-.08.18-.12.29-.12Zm3.42 0h.04v0c.11 0 .23.04.33.09v.91l-.05.03v0c-.08.04-.16.08-.24.11v0c-.1.02-.19.02-.28 0 -.12-.04-.19-.13-.24-.28v0c-.03-.11-.04-.23-.03-.34 .01-.22.06-.34.17-.45v0c.07-.08.17-.12.28-.11Zm3.96.1c-1.02.89-1.89 1.09-2.407 1.22 .24.69.34 1.51.28 2.24 1.59-.27 3.04-.91 4.07-2.09l-.43-.01 -.31-1.1 -.3 1.09 -.46 0Zm3.78.58s0 .02 0 .12c-.01.15-.02.2-.08.27v0c-.06.05-.13.09-.2.11 -.12.02-.22 0-.29-.07 -.12-.12-.08-.28.07-.33 .04-.02.08-.03.32-.09v0c.04-.02.09-.03.14-.04Z"/></svg>