<svg viewBox="0 0 24 24" xmlns="http://www.w3.org/2000/svg"><path d="M23.78 6.56L.21 8.14c-.12 0-.21.1-.21.22v.02l.725 6.88v0c0 .03 0 .07 0 .11 0 .12-.02.24-.05.34L.33 16.8c-.04.12.02.18.14.13l1.805-.75s0 0 0-.01h0c.13-.05.27-.08.41-.08h.03l20.04 1.29c.12 0 .23-.1.24-.23l.95-10.43V6.7c0-.11-.09-.2-.2-.2h-.02ZM4.53 10.24h.05c.82 0 1.25.3 1.27.89v.04H5.33l-.01-.04c-.03-.26-.28-.39-.76-.39h-.05c-.48 0-.72.15-.72.43v.08c0 .05.03.1.07.13 .05.04.11.08.19.11l1.2.4 -.01-.01 .01 0c.18.05.34.16.46.3 .1.13.17.31.17.5v.11c0 .28-.14.54-.36.69 -.24.18-.58.26-1 .26 -.43 0-.75-.1-.99-.27v-.01c-.22-.16-.36-.41-.36-.7v-.07h.516v.05c0 .14.06.25.21.34 .14.09.35.13.62.13s.49-.05.63-.14c.14-.09.22-.2.22-.35v-.08c0-.17-.1-.28-.3-.35l-1.2-.41c-.2-.07-.35-.16-.45-.28 -.1-.12-.16-.28-.16-.45v-.09c0-.62.403-.94 1.21-.95Zm8.292.08h.51v1.44h1.58v-1.45h.52v3.47h-.53v-1.52h-1.59v1.52h-.52v-3.47Zm-6.495 0h.5v.94h.53v.51h-.54v.89c0 .2.05.37.16.48l-.01 0c.08.09.2.15.33.17h.03v.48l-.05-.01h-.01c-.27-.02-.51-.13-.68-.31 -.21-.21-.31-.5-.31-.84v-2.346Zm11.913 0h.5v1.12c.15-.16.36-.24.63-.24 .75 0 1.14.39 1.14 1.17v.28c0 .34-.11.62-.31.83 -.21.21-.49.31-.84.31s-.63-.11-.83-.32c-.21-.21-.31-.5-.31-.84v-2.34Zm-8.084 0h.5v1.12c.15-.16.36-.25.63-.25 .76 0 1.14.39 1.14 1.17v.28c0 .34-.11.62-.31.83 -.21.21-.49.31-.84.31s-.63-.11-.83-.32c-.21-.21-.31-.5-.31-.84v-2.34Zm-2.4.94h.49v1.36c0 .25.04.44.11.54 .07.09.2.14.38.14h.01c.18 0 .31-.05.38-.15 .07-.1.11-.29.11-.55h-.01v-1.37h.49v1.36c0 .41-.08.72-.23.9 -.15.17-.39.26-.71.27h-.12c-.33-.01-.57-.1-.71-.28 -.16-.18-.23-.49-.23-.91V11.2Zm8.077 0h.49v1.36c0 .25.04.44.11.54 .07.09.2.14.38.14h.02c.18 0 .3-.05.37-.15 .07-.11.11-.29.11-.55h-.01v-1.37h.49v1.36c0 .41-.09.72-.23.9 -.15.17-.39.26-.71.27h-.12c-.33-.01-.57-.1-.71-.28 -.16-.18-.23-.49-.23-.91V11.2Zm-4.548.42c-.21 0-.37.05-.48.15 -.11.1-.16.28-.16.53v.28c0 .2.06.36.17.48 .1.12.26.18.46.18s.35-.06.47-.18c.11-.13.17-.28.17-.49v-.29c0-.25-.06-.43-.17-.53 -.11-.11-.266-.16-.48-.16Zm8.08 0c-.21 0-.37.05-.48.15 -.11.1-.16.28-.16.53v.28c0 .2.06.36.16.48s.26.18.46.18 .35-.06.47-.18c.11-.12.17-.29.17-.49v-.29c0-.25-.06-.43-.17-.53 -.11-.11-.27-.16-.48-.16Z"/></svg>