<svg viewBox="0 0 24 24" xmlns="http://www.w3.org/2000/svg"><path d="M13.671 8.861c-.45-.36-1.7.23-2.05 1.11 -.45 1.11-1.11 2.74-1.76 3.46 -.69.75-.76.17-.69-.27 .15-1.02 1.15-3.39 1.69-4.05 -.21-.3-1.52-.26-2.44 1.16 -.35.53-1.13 2.32-1.99 3.734 -.19.3-.43.09-.25-.63 .2-.83.81-3.09 1.604-4.871 2.06-.41 4.25-.7 5.93-.702 .22-.06.37-.27 0-.28 -1.45-.05-3.62.12-5.66.38 .391-.782.81-1.404 1.23-1.67 -.47-.3-1.404-.18-1.94.617V6.84c-.27.39-.5.81-.71 1.24 -1.49.23-2.77.49-3.412.73 -.68.25-.6 1.06-.19.91 .85-.32 1.996-.65 3.272-.94 -.82 1.83-1.447 3.99-1.6 4.87 -.38 2.13.94 2.12 1.593 1.282 .702-.93 2.16-4.163 2.39-4.504 .06-.12.16-.06.11.04 -1.64 3.26-1.5 4.529-.17 4.24 .59-.13 1.62-1.16 1.89-1.69 .05-.13.17-.12.14-.07 -1.04 2.692-2.36 4.87-3.24 5.55 -.81.61-1.404-.72 1.44-2.64 .42-.29.22-.68-.25-.55 -1.47.23-5.69 1.56-7.53 2.85 -.15.09-.27.17-.27.37 0 .11.2.07.3.01 2.393-1.44 4.351-2 6.59-2.47 .03.01.06.01.09 0 .1-.03.09.03.03.07h-.001c-.12.06-.23.12-.35.17 -1.513.59-2.43 1.89-2.11 2.56 .27.57 1.758.36 2.46-.02 1.72-.94 2.97-2.77 3.82-5.292 .74-2.24 1.68-4.78 1.904-4.86ZM3.7 16.091c.62-.75.69-1.52.21-2.942 -.31-.91-.82-1.6-.44-2.16 .39-.6 1.24-.02.53.78l.14.09c.84.09 1.25-1.06.62-1.39 -1.66-.87-3.12.8-2.472 2.72 .27.81.66 1.68.34 2.37 -.27.59-.79.94-1.135.95 -.726.03-.244-1.63.59-2.045 .07-.04.17-.09.08-.21 -1.032-.12-1.64.36-1.984 1.02 -1.013 1.93 1.92 2.64 3.49.782Zm19.974-2.064c-2.8-.37-8.842.12-11.509.83 -.8.2-.58.62-.18.54 0 0 .17-.05.18-.05 2.19-.43 7.5-.8 10.607-.21 .37.06 1.49-1.05.89-1.13Zm-9.22-.33c.78-.39 1.94-2.808 2.7-4.131 .05-.1.15-.02.09.04 -1.93 3.32-1.11 3.705-.35 3.65 1.02-.07 1.96-1.53 2.16-1.86 .08-.13.13-.03.08.06 -.05.15-.23.42-.4.78 -.24.51.01.72.21.81 .31.15 1.18.05 1.31-.48 -.87-.02 1.2-4.11 1.42-4.36 -.58-.34-1.48.03-1.89.83 -.88 1.72-1.61 3.11-2.07 3.14 -.89.04 1.02-3.85 1.33-3.98 -.19-.28-1.41-.16-2.09.89 -.25.38-1.74 3.016-2.099 3.45 -.65.76-.7.11-.52-.66 .06-.27.16-.6.3-.97 .42-.97.88-1.27 1.16-1.59 1.88-2.093 2.96-3.79 2.53-4.455 -.38-.6-1.65-.33-2.46.89 -1.5 2.24-2.88 5.31-3.051 6.71 -.18 1.4.84 1.5 1.53 1.16Zm7.372-3.3c.23.58.59 1.16.38 1.67 -.18.43-.41.62-.67.66 -.36.06-.27-1.07.35-1.404 .05-.03.13-.18.06-.27 -.78-.05-1.22.33-1.46.82 -.69 1.44 1.56 1.84 2.66.42 .44-.57.45-1.13.03-2.15 -.27-.65-.68-1.13-.42-1.56 .27-.45.93-.07.44.54l.11.06c.64.03.9-.82.41-1.03 -1.29-.55-2.49.83-1.93 2.208Zm-6.58-.82c.06-.16.11-.2.22-.46 .67-1.48 1.51-3.04 2.09-3.76 .36-.38.86.13-.05 1.53v0c-.53.81-1.14 1.57-1.82 2.26v0c-.18.18-.33.34-.391.44 -.05.06-.11.04-.07-.04Z"/></svg>