<svg viewBox="0 0 24 24" xmlns="http://www.w3.org/2000/svg"><path d="M16.21 6.76l-.08.391c-.12.74-.08.95.24 1.22l.3.25 -.32 1.41c-.19.84-.43 1.55-.58 1.78 -.13.2-.28.49-.31.65 -.06.19-.24.38-.51.55 -.25.13-.72.5-1.06.8 -.27.24-.46.39-.56.45l-.33.26c-.11.17-.17.3-.19.41 -.03.1-.01.17.02.23 .03.05.09.08.16.1v0c.09.02.18.02.28.02v0c.21-.02.42-.06.63-.12 .07-.02.125-.04.17-.06 .07-.1.24-.27.548-.57 .8-.8 1.11-1.23.79-1.11 -.12.04-.07-.07.13-.28 .42-.42.66-1.04 1.17-3 .4-1.55.4-1.57.69-1.57 .13 0 .532.02.532.02V6.66h-.91Zm3.83 3.16c-.07 0-.17.09-.24.2 -.12.19.02.3 1.76 1.39 1.03.657 1.87 1.21 1.85 1.26 -.03.03-.87.58-1.89 1.21 -1.85 1.14-1.86 1.15-1.69 1.38 .21.27 0 .37 2.39-1.13l1.73-1.12v-.84l-1.94-1.2c-1.05-.66-1.96-1.19-2.01-1.2Zm-16.09.11c-.06 0-.97.54-2.01 1.18L-.02 12.4v.83l1.94 1.21c1.08.66 1.99 1.21 2.03 1.21 .04 0 .12-.1.21-.22 .12-.21.02-.29-1.77-1.42C.68 12.94.5 12.79.67 12.67c.1-.08.91-.58 1.778-1.12 1.97-1.22 1.87-1.14 1.714-1.39 -.07-.11-.17-.2-.24-.19Zm8.684.02c-.3-.01-.92.44-2.8 1.97 -.09.19-.09.32-.06.41 .02.05.06.1.12.13s.13.04.22.05c.17.01.37-.02.53-.05l.11-.03v0c.03-.06.08-.1.14-.12 .11-.07.6-.51 1.09-.99 .85-.87 1.05-1.26.7-1.39h-.001c-.03-.02-.06-.02-.09-.02Zm2.19.6c-.26 0-.72.3-1.513.93 -.4.32-.65.49-.79.53l-.53.41c-.2.36-.23.58-.18.7v0c.02.06.07.1.13.13v0c.07.03.15.04.24.04h-.001c.19-.01.39-.04.58-.09v0c.09-.03.19-.06.29-.1l.02-.02 .05-.03c.1-.13.33-.38.61-.66 .91-.88 1.375-1.51 1.28-1.74 -.05-.12-.12-.17-.24-.17Zm-2.43 1.08c-.08 0-.24.13-.54.39 -.44.38-.91.6-1.07.5v0c-.04 0-.08.01-.12.02 -.17.03-.38.06-.56.04v0c-.09-.01-.18-.03-.26-.07v0c-.08-.04-.14-.1-.17-.17 -.04-.09-.04-.21 0-.35l-.65.53 -1.471 1.21v1.97l4.82-3.8h-.001c-.01-.05 0-.09.01-.13 .03-.14.03-.21-.03-.2Zm2.074.63c-.08 0-.2.1-.39.31 -.27.28-.69.55-.91.61l-.04.01v-.001c-.04.01-.08.02-.11.04 -.06.02-.14.04-.23.06 -.18.04-.41.09-.61.08v0c-.1-.01-.19-.02-.28-.06v0c-.09-.04-.15-.1-.19-.18 -.06-.14-.04-.34.09-.62l-4.26 3.349v1.2h1.86l3.96-3.12c.1-.12.25-.27.46-.47 .56-.52.68-.7.68-.97 0-.21-.03-.31-.1-.31Zm.94 1.95l-.34.33c-.19.18-.53.4-.77.49l-.05.02 -.01 0 -.01.01c-.01 0-.02 0-.02.01v-.001c-.1.03-.19.06-.29.09v0c-.22.06-.43.1-.65.11h-.001c-.11 0-.21-.01-.31-.03v0c-.09-.02-.17-.08-.22-.15 -.05-.08-.07-.18-.04-.3l0-.001c.02-.09.05-.18.09-.25l-3.2 2.526h4.25l.5-.59c.69-.82 1.016-1.4 1.016-1.9Z"/></svg>