<svg viewBox="0 0 24 24" xmlns="http://www.w3.org/2000/svg"><path d="M3.41.54L-.01 3.703l2.242 1.93 -1.7 1.83 11.176 15.9h.11c-2.625-9.39-2.55-9.43-4.45-16.12l-.46.26c-.25.14-.46.02-.46-.26v-3.2C5.938 2.27 5.54.91 5.42.5Zm15.11 0c-.12.41-.51 1.77-1.02 3.535v3.19c0 .28-.21.4-.45.26l-.46-.27c-1.9 6.69-1.83 6.73-4.45 16.12 -.02.07.06.09.11 0L23.42 7.468l-1.7-1.84 2.24-1.94L20.54.52ZM7.02 1.29c-.12 0-.2.1-.2.27v5.12c0 .242.17.34.38.22l3.06-1.78v0c-.06-.07-.09-.14-.09-.23V3.25c0-.07.02-.129.05-.19L7.184 1.3V1.29c-.06-.04-.12-.06-.18-.06Zm9.93 0v0c-.07-.01-.13.01-.18.05l-3.04 1.75v0c.03.05.05.11.05.18V4.9v0c-.01.08-.04.16-.09.22l3.06 1.77c.21.12.38.02.38-.22V1.54c0-.17-.08-.27-.2-.27ZM10.6 3.153c-.11 0-.19.05-.19.125V4.9c0 .06.08.125.18.125h2.76c.1 0 .18-.06.18-.125v-1.64c0-.07-.09-.125-.19-.125Zm1.29 3.642v0c-.46-.01-.83.37-.83.82 -.01 0-.01 0 0 0v0c0 .45.37.82.82.82 0-.01 0-.01 0-.01v0c.45 0 .82-.38.82-.83v0c0-.46-.38-.83-.83-.83 -.01-.001-.01 0-.01 0Zm-.01 4.93v0c-.46 0-.83.37-.82.82v0c-.01.45.37.82.82.82 0 0 0-.01 0-.01v0c.45-.01.82-.38.82-.83 -.01-.01-.01-.01-.01-.01v0c-.01-.46-.38-.83-.83-.83v0c-.01-.01-.01-.01-.01 0Zm.01 4.93v0c-.46-.01-.83.37-.83.82 -.01 0-.01 0-.01 0v0c-.01.45.37.82.82.83 0 0 0 0 0 0v-.001c.45 0 .82-.38.82-.83 0-.01-.01-.01-.01-.01v-.001c0-.46-.38-.83-.83-.83 -.01-.001-.01 0-.01 0Z"/></svg>