<svg viewBox="0 0 24 24" xmlns="http://www.w3.org/2000/svg"><path d="M12 4.98c3 0 6.224.61 8.78 2.239 1.66 1.06 3.21 2.678 3.21 4.78 0 2.45-2.1 4.24-4.11 5.28 -2.4 1.23-5.22 1.72-7.9 1.72 -3.003 0-6.217-.61-8.78-2.24 -1.67-1.07-3.22-2.68-3.22-4.78C-.02 9.5 2.07 7.73 4.08 6.68c2.39-1.24 5.21-1.73 7.894-1.73Zm-.03.74c-2.8 0-5.802.52-8.225 1.98C2.22 8.61.71 10.04.71 11.95c0 2.23 2.04 3.8 3.86 4.7 2.258 1.1 4.89 1.53 7.391 1.53 2.798 0 5.8-.53 8.23-1.99 1.51-.92 3.029-2.346 3.029-4.253 0-2.25-2.035-3.82-3.87-4.705 -2.26-1.104-4.898-1.53-7.4-1.53ZM1.43 10.406l4.59-.79L7.4 6.61l1.37 3 4.596.78 -4.596.79 -1.38 3.01L6 11.183Zm10.106 2.28l2.02-.36 .6-1.359 .6 1.359 2.02.35 -2.03.35 -.61 1.36 -.61-1.36Zm4.196-3.63l2.02-.35 .6-1.37 .6 1.36 2.02.35 -2.03.35 -.61 1.36 -.61-1.36Zm-2.167 6.427l2.02-.35 .6-1.37 .61 1.36 2.02.35 -2.03.35 -.62 1.36 -.61-1.36Zm-6.23.49l2.02-.35 .61-1.37 .6 1.36 2.02.35 -2.03.35 -.61 1.35 -.62-1.36Zm10.19-3.36l2.02-.36 .6-1.359 .61 1.359 2.02.35 -2.03.35 -.62 1.35 -.61-1.36Z"/></svg>