<svg viewBox="0 0 24 24" xmlns="http://www.w3.org/2000/svg"><path d="M2.52 0c-.23 0-.34.111-.34.28v23.439c0 .19.11.25.33.25H8.1c.22 0 .33-.09.3-.26v-1.49c0-.17-.14-.26-.37-.26H5.51c-.26 0-.37-.09-.37-.28V2.25c0-.2.11-.31.42-.31h2.48c.22 0 .33-.06.33-.252V.23c0-.196-.14-.28-.37-.28H2.46Zm8.8.02c-.23 0-.37.083-.37.279v1.39c0 .19.11.28.33.28h.44c2.154 0 3.66 1.7 3.66 3.41v4.42c0 1.37.98 2.51 2.51 3.21 .11.05.13.14.13.19 0 .05-.03.11-.14.14 -1.68.61-2.52 2.29-2.52 3.49v3.91c0 1.73-1.51 1.25-3.67 1.25h-.45c-.23 0-.34.08-.34.28v1.39c0 .19.14.28.36.28h.56c3.6 0 6.51.33 6.51-2.72v-4.09c0-1.43 1-2.295 2.49-2.72 .67-.2.95-.31.92-.56V12.67c0-.45-.31-.48-.87-.65 -1.51-.532-2.52-1.35-2.52-2.74V5.55c0-3.05-2.94-5.63-6.55-5.63h-.56Zm.18 8.396c-.34 0-.65.25-.65.58v1.34c0 .3.28.58.64.58h1.48c.33 0 .64-.26.64-.59v-1.35c0-.31-.28-.59-.65-.59h-1.49Z"/></svg>