<svg viewBox="0 0 24 24" xmlns="http://www.w3.org/2000/svg"><path d="M22.66 10.22h-.001c-.14.08-.3.08-.43 0 -.22-.14-.24-.44-.07-.61h-.001c.14-.16.38-.16.54-.02 0 0 0 0 .01.01 .16.16.14.46-.07.6m-1.12.88c-.54-.13-.96-.55-1.08-1.08 -.25-1.05.69-1.98 1.73-1.74 .53.12.95.54 1.07 1.07 .24 1.04-.7 1.98-1.74 1.73Zm-5.02 4.37c.03.11.08.27.2.33 0 0 .01 0 .01 0 .21.07.75.06.75.06h1c.08 0 .84-.01.82-.09 -.1-.41-.56-.48-.92-.69 -.33-.2-.64-.42-.78-.8 -.08-.2-.04-.66.09-.82 .09-.12.22-.2.37-.24 .16-.04.33-.01.49.01 .2.02.39.05.59.08v0c.38.05.77.07 1.16.05 .64-.02 1.28-.12 1.88-.33 .42-.15.84-.34 1.2-.61 .4-.31.3-.28-.12-.24 -.5.05-1 .05-1.5.02 -.47-.03-.93-.09-1.35-.3 -.34-.18-.62-.35-.88-.61 -.04-.04-.07-.16 0-.24 .06-.08.21-.04.26 0 .45.38 1.14.69 1.85.73 .38.01.75.02 1.13 0 .19-.01.48-.01.67-.01 .09-.01.36.02.41-.08 .01-.04.01-.07.01-.1 -.06-1.532-.17-3.26-1.78-4 -1.2-.55-2.99-1.4-3.747-1.75 -.18-.09-.39.04-.39.24 0 .51.02 1.24.02 1.91 -.37-.37-.98-.61-1.44-.82 -.53-.25-1.08-.45-1.64-.63 -1.12-.35-2.28-.56-3.44-.68 -1.33-.14-2.67-.07-3.97.2C5.31 6.48 3.2 7.51 1.6 9.01c-.99.92-1.76 2.23-1.81 3.57 -.08 1.88.45 2.89 1.42 3.94 1.54 1.66 4.88 1.89 6.234-.08 .6-.89.73-2.093.29-3.08 -.45-.99-1.46-1.7-2.53-1.73 -.84-.03-1.73.39-2.05 1.16 -.25.58-.11 1.31.33 1.77 .17.17.4.32.66.26 .15-.04.27-.15.29-.3 .03-.23-.17-.38-.29-.55 -.22-.32-.18-.79.09-1.05 .23-.23.57-.3.89-.29 .3 0 .6.05.86.2 .36.21.6.6.68 1.02 .24 1.23-.76 2.24-2.13 2.32 -.7.04-1.41-.15-1.96-.59 -1.39-1.12-1.72-3.39-.15-4.6 1.49-1.16 3.39-.86 4.5-.26 .89.47 1.55 1.26 2.06 2.12 .25.43.46.89.66 1.35 .19.44.37.89.75 1.21 .25.21.56.2.9.2h1.9c.25 0 .19-.18.08-.29 -.26-.26-.62-.32-.952-.41 -.77-.22-.7-1.23-.48-1.23 .68 0 .7.02 1.31.01 .86-.02 1.13-.07 1.81.18 .36.13.71.48.93.81 .11.17.21.33.27.5Z"/></svg>