<svg viewBox="0 0 24 24" xmlns="http://www.w3.org/2000/svg"><path d="M21.96 9.57v0c-.27-1.01-.69-1.97-1.25-2.86 .41-.58.8-1.18 1.17-1.8l-2.83-2.82c-.65.37-1.26.78-1.85 1.21v0c-.86-.52-1.79-.9-2.76-1.14 -.12-.72-.27-1.45-.46-2.18H9.97c-.19.71-.33 1.42-.45 2.13L9.51 2.1c-1 .23-1.96.61-2.85 1.12 -.58-.41-1.16-.798-1.78-1.16L2.05 4.88c.34.58.7 1.13 1.08 1.67l0 0c-.6.91-1.05 1.92-1.32 2.98l-.001 0c-.63.11-1.26.24-1.87.4v4c.57.15 1.15.27 1.73.37L1.67 14.3c.23 1.15.67 2.25 1.28 3.26 -.33.46-.63.93-.92 1.43l2.82 2.82c.48-.28.93-.58 1.38-.89h0c1.02.65 2.15 1.12 3.34 1.39 .09.53.21 1.06.34 1.58h4c.14-.55.25-1.09.36-1.64h0c1.15-.28 2.26-.76 3.25-1.41 .47.32.96.64 1.45.93l2.82-2.83c-.32-.54-.66-1.06-1.01-1.56v0c.56-.97.97-2.02 1.19-3.109 .63-.12 1.26-.24 1.9-.41V9.87c-.68-.18-1.36-.32-2.04-.43Zm-2.92 5.18c-.69 1.95-2.17 3.55-4.06 4.39 -1.9.85-4.08.87-6 .07 -1.89-.79-3.46-2.39-4.18-4.339 -.73-1.94-.62-4.1.28-5.95l0-.001c.79-1.64 2.15-2.93 3.82-3.65 1.93-.84 4.2-.81 6.11.08v0c1.58.72 2.87 1.98 3.64 3.55 .88 1.8 1.01 3.92.34 5.81Zm-1.69-.15c.06.33.01.69-.14 1 -.39.74-1.31 1.03-2.05.65 -.75-.39-1.04-1.31-.66-2.05l-1.2-.9v0c-.63.65-1.61.83-2.42.43l-.96 1.49c.38.36.5.92.3 1.4 -.27.65-1.02.97-1.67.71 -.66-.27-.98-1.02-.72-1.67 .26-.66 1.01-.98 1.66-.72l.96-1.5v0c-.63-.52-.91-1.34-.71-2.13l-2.07-.81v-.001c-.21.27-.54.42-.88.39 -.53-.06-.92-.53-.86-1.06 .05-.53.52-.92 1.05-.86 .52.05.91.52.85 1.05v.02l2.06.81c.5-.98 1.67-1.39 2.67-.95l.96-1.67v0c-.29-.27-.4-.68-.29-1.05 .16-.548.74-.86 1.28-.7 .54.16.85.74.69 1.28 -.17.548-.75.85-1.29.69l-.98 1.66c.84.63 1.08 1.8.54 2.71l1.19.89v0c.2-.21.47-.35.76-.41 .82-.17 1.62.36 1.79 1.18h-.01Z"/></svg>