<svg viewBox="0 0 24 24" xmlns="http://www.w3.org/2000/svg"><path d="M16.35 1.21c-1.82.02-4.24 2.58-2.57 6.704 .01.03.08.17.09.2h0c5.17-2.298 4.45-6.287 3.112-6.8V1.31c-.21-.08-.42-.12-.64-.11ZM3.99 2.76c-1.87.02-3.4.81-3.88 2.06 -.91 2.36 3.07 7.99 12.229 3.93l0-.01v0c-.06-.12-.12-.24-.16-.37C10.16 4.28 6.7 2.7 3.97 2.74Zm11.5 6.664l-.14.03v0c-.77.19-1.5.51-2.16.95 -.95.62-1.79 1.54-2.15 2.641 -.1.29-.17.61-.2.92h-.001c-.12 1.52.14 3.05.77 4.45v0c.6 1.35 1.52 2.54 2.68 3.46 .68.54 1.92.88 2.93.88 .94 0 1.88-.29 2.72-.71 .26-.14.84-.5.87-.52v0c-.5-.13-.97-.36-1.38-.67 -1.45-1.11-2.6-2.6-3.41-4.43 -.83-1.86-1.17-3.73-1.01-5.58l0 0c.04-.52.19-1.01.43-1.46Zm3.49.02c-.87 0-1.71.72-1.79 1.62 -.14 1.5.16 3.03.82 4.51 .64 1.45 1.56 2.68 2.74 3.58v0c.3.22.67.35 1.06.34 .67 0 1.35-.36 1.62-1.01v0c.71-1.72.69-3.66-.07-5.36v0c-.75-1.69-2.16-3-3.9-3.62v0c-.17-.06-.34-.09-.52-.09Zm-10.05 5.49v0c-.84 1.3-1.57 2.67-2.18 4.09 -.03.05-.38.93-.49 1.2h0c-.13.34.04.72.38.86 .27.1 1.16.43 1.22.44l0-.001c1.45.49 2.94.86 4.45 1.12v0c-1.03-1-1.86-2.18-2.45-3.48v0c-.6-1.35-.93-2.79-.96-4.26Z"/></svg>