<svg viewBox="0 0 24 24" xmlns="http://www.w3.org/2000/svg"><path d="M7.508 0c-.29 0-.58 0-.86.002 -.25.002-.49.003-.73.01 -.14 0-.27 0-.4.015l0-.001c-.4.01-.8.05-1.19.12V.145c-.53.09-1.03.25-1.5.49v0c-.95.48-1.73 1.25-2.21 2.203 -.245.48-.4.972-.495 1.5 -.093.52-.13 1.05-.136 1.57l0-.001c-.01.24-.02.48-.02.72 -.01.28-.01.57-.01.86v8.98c0 .28 0 .57.002.86 .002.24.005.48.012.72 .014.52.04 1.05.136 1.57 .095.52.25 1.02.495 1.5H.6c.48.94 1.25 1.72 2.2 2.2 .48.24.97.4 1.49.49 .52.09 1.05.12 1.57.13 .24 0 .48 0 .72.01 .28 0 .57 0 .86 0h8.98c.28 0 .57 0 .86-.01 .24-.01.48-.01.72-.01v0c.52-.01 1.05-.06 1.57-.14v0c.52-.09 1.02-.26 1.49-.5v-.001c.94-.49 1.72-1.26 2.2-2.21 .24-.48.4-.98.49-1.5 .09-.52.12-1.05.13-1.58 0-.25 0-.49.01-.73 0-.29 0-.58 0-.87V7.4c0-.29 0-.58-.01-.86h0c-.01-.25-.01-.49-.01-.73h-.001c-.01-.53-.06-1.06-.14-1.58v0c-.09-.53-.26-1.03-.5-1.5v0c-.49-.95-1.26-1.72-2.21-2.21V.52c-.48-.24-.98-.41-1.5-.5v0c-.53-.09-1.05-.14-1.58-.14h-.001c-.25-.01-.49-.01-.73-.01 -.29-.01-.58-.01-.87-.01H7.34Zm6.03 3.41c4.11 2.47 6.54 7.16 5.54 11.13 -.03.09-.05.18-.08.27l0 0c2.06 2.53 1.5 5.25 1.23 4.74 -1.08-2.09-3.07-1.57-4.09-1.05v0c-.1.05-.19.1-.29.15l-.02.01 -.01 0c-2.115 1.12-4.96 1.2-7.82-.03v-.001c-2.33-1.01-4.3-2.7-5.64-4.84 .649.48 1.35.9 2.09 1.25 3.019 1.41 6.051 1.31 8.197-.01 -3.06-2.35-5.61-5.41-7.56-7.887L5.08 7.14c-.38-.44-.71-.9-1.01-1.39 2.34 2.14 6.038 4.83 7.365 5.576C8.61 8.34 6.14 4.68 6.24 4.8c4.43 4.47 8.52 6.996 8.52 6.996 .15.08.27.15.36.21 .08-.22.16-.44.22-.67 .7-2.59-.09-5.548-1.9-7.992Z"/></svg>