<svg viewBox="0 0 24 24" xmlns="http://www.w3.org/2000/svg"><path d="M13.44 8.927l-.89.37 .05.11v0c.06-.04.13-.05.21-.06 .05 0 .09.01.12.04 .03.02.05.08.07.16 .01.08.02.29.02.63v2.73c0 .18-.02.31-.05.38h0c-.03.05-.07.1-.12.14 -.06.03-.15.04-.29.04v.12h1.48v-.12c-.16 0-.27-.02-.32-.05v0c-.06-.04-.11-.09-.13-.15 -.03-.06-.04-.19-.04-.38V8.87Zm-11.722.34c-.33 0-.61.05-.84.14 -.24.1-.42.24-.534.43H.34c-.13.18-.19.39-.19.61 0 .33.131.62.393.86 .18.16.5.3.968.42 .35.09.587.15.688.19v0c.11.03.22.09.31.18 .05.07.08.15.08.25 0 .15-.07.29-.21.41 -.15.11-.35.17-.63.17 -.262 0-.47-.07-.625-.2 -.16-.14-.255-.34-.31-.62l-.84.07c.056.48.228.84.517 1.096 .28.25.7.37 1.24.37 .371 0 .68-.06.93-.16H2.66c.47-.2.78-.66.78-1.17l0-.001c0-.24-.06-.48-.18-.69h0c-.12-.19-.28-.34-.48-.44 -.2-.11-.508-.21-.927-.31 -.42-.1-.69-.2-.79-.29v0c-.15-.11-.17-.32-.07-.46 .01-.03.04-.05.06-.07 .14-.11.33-.16.58-.16 .24 0 .42.04.54.14 .12.09.19.25.23.47l.86-.03c-.02-.4-.16-.71-.43-.95 -.28-.24-.68-.36-1.208-.36Zm21.808.33h0c-.27-.01-.48.21-.48.47 -.01.26.21.47.47.47 0 0 0 0 0 0v0c.26 0 .47-.22.47-.48 0-.27-.22-.48-.48-.48Zm0 .07v0c.22-.01.4.17.4.39 0 0 0 0-.01 0 0 .11-.05.22-.13.29l-.09-.14v0c-.02-.03-.05-.06-.07-.08l0-.001c-.02-.02-.04-.03-.05-.03h-.001c.04-.01.09-.03.12-.06v0c.02-.03.04-.07.04-.11v0c0-.04-.01-.07-.03-.1v0c-.02-.03-.04-.05-.07-.06v0c-.04-.02-.09-.03-.13-.02h-.27v.6h.08v-.27h.09c.02 0 .03 0 .04 0 .01 0 .02 0 .03.01 .01.01.02.02.04.04 .01.01.03.04.05.08l.08.125h.04v-.001c-.07.05-.16.07-.24.08v0c-.23-.01-.41-.19-.41-.41 0-.23.18-.41.4-.41Zm-.16.19h.19c.04 0 .07.01.09.02v0c.01.01.03.04.03.07v0c0 .01-.01.03-.02.05v0c-.02.01-.03.03-.05.03v0c-.03.01-.06.01-.09.01h-.17Zm-15.04.6c-.41 0-.76.17-1.03.51v-.46h-.76v3.1h.81v-1.41c0-.35.02-.59.06-.72v0c.04-.13.12-.24.23-.31h-.001c.11-.08.24-.12.38-.12 .11 0 .2.02.28.08 .08.05.13.13.17.22 .03.09.05.31.05.64v1.58h.81v-1.93h0c0-.19-.02-.37-.05-.55v0c-.03-.13-.09-.25-.16-.35v0c-.1-.12-.21-.2-.35-.25v0c-.16-.07-.33-.1-.5-.1Zm2.65 0v0c-.29-.01-.58.06-.83.2v0c-.25.13-.45.33-.58.58v0c-.14.24-.21.51-.21.79 0 .35.06.657.2.9 .13.25.33.43.58.56 .25.12.53.19.81.19 .46 0 .84-.16 1.14-.47 .3-.31.45-.7.45-1.17s-.15-.85-.46-1.16c-.3-.31-.69-.46-1.154-.46Zm7.31.05c-.36 0-.64.1-.87.32v0c-.22.19-.34.47-.34.77 0 .19.05.37.14.53 .1.16.24.28.42.37 -.23.18-.37.33-.43.44v0c-.06.08-.09.17-.1.27 0 .06.02.13.07.18 .04.05.12.11.24.18h-.001c-.12.11-.23.23-.33.35 -.12.14-.19.25-.23.33v0c-.03.04-.04.1-.04.15 0 .12.08.23.24.34 .29.19.64.28 1.07.28 .55 0 .99-.16 1.33-.48 .23-.22.35-.45.35-.7v0c0-.17-.07-.34-.19-.45v0c-.14-.13-.31-.21-.49-.23v0c-.3-.04-.59-.06-.88-.06l0 0c-.16-.01-.31-.01-.46-.03 -.11-.02-.18-.04-.22-.08 -.04-.04-.06-.08-.06-.12l0 0c0-.06.02-.12.05-.16v0c.04-.09.11-.16.18-.23 .15.04.3.07.45.07 .36 0 .64-.1.86-.31v0c.2-.19.32-.45.32-.73 0-.25-.07-.45-.19-.61h.39c.09 0 .15-.01.16-.01v0c.01-.01.02-.02.03-.03h0c.01-.04.02-.08.01-.12l-.001 0c0-.04-.01-.08-.02-.11v0c-.01-.02-.02-.03-.04-.03v0c-.06-.01-.12-.02-.17-.01h-.64v0c-.23-.15-.49-.22-.75-.21Zm-2.76 0c-.26 0-.49.06-.72.19v0c-.24.14-.43.35-.55.61v0c-.14.25-.21.53-.21.82 0 .38.11.72.34 1.03v0c.24.35.65.55 1.09.54 .28 0 .532-.07.76-.22 .23-.14.4-.35.54-.63 .13-.28.19-.55.19-.83 0-.39-.12-.73-.36-1.03h0c-.27-.35-.68-.54-1.11-.53Zm-12.182 0l1.17 3.11h0c-.05.15-.12.3-.21.43 -.09.11-.23.16-.42.16 -.11 0-.22-.02-.35-.04l.06.64c.15.03.3.05.46.05 .15 0 .29-.02.41-.06l-.001-.001c.11-.03.21-.08.31-.14v0c.08-.07.16-.15.22-.24h-.001c.08-.14.15-.27.2-.42l.19-.55 1.085-2.99h-.85l-.73 2.2 -.74-2.21Zm16.63.07v.12 -.001c.08.01.16.04.24.09 .03.02.08.08.13.15 .07.1.125.18.15.25l1.08 2.27 -.22.52c-.08.19-.16.32-.24.39 -.08.06-.15.1-.22.1v0c-.06-.02-.12-.03-.17-.05v0c-.1-.04-.2-.07-.3-.07 -.11 0-.19.02-.25.08v0c-.07.05-.1.13-.1.22s.04.18.12.25v0c.08.07.2.11.32.11 .18 0 .36-.08.56-.23 .19-.15.35-.37.46-.67l1.22-3.02v0c.03-.09.06-.18.11-.26v0c.03-.06.08-.11.14-.15v0c.05-.04.12-.05.18-.06v-.13h-.98v.12c.09 0 .16 0 .19.02h-.001c.03.01.06.03.08.05l-.001 0c.01.02.02.05.02.08 0 .09-.02.18-.06.27l-.68 1.67 -.74-1.53c-.08-.15-.11-.27-.11-.36h0c0-.07.02-.13.07-.16v0c.06-.05.14-.07.22-.07h.06v-.13Zm-1.76.08c.17 0 .31.07.43.21 .15.19.22.46.22.81 0 .26-.06.46-.16.58v0c-.11.12-.26.19-.41.18v-.001c-.17 0-.33-.08-.43-.22 -.15-.19-.23-.46-.23-.81 0-.27.05-.47.16-.59v0c.09-.13.24-.2.4-.2Zm-2.798.05c.24 0 .44.1.59.31 .23.3.34.72.34 1.263 0 .42-.07.73-.21.9v0c-.13.16-.32.26-.53.26 -.29 0-.516-.17-.7-.48 -.18-.32-.27-.7-.27-1.14 0-.28.03-.5.11-.67v0c.05-.15.15-.28.28-.37v0c.1-.07.22-.11.35-.11Zm-4.47.39c.21 0 .39.08.54.24 .14.16.21.39.21.7 0 .31-.08.55-.22.71h0c-.14.16-.34.25-.55.24h-.001c-.21 0-.41-.09-.55-.25 -.15-.17-.22-.4-.22-.71 0-.31.07-.55.22-.71v0c.13-.16.33-.25.54-.25Zm6.66 2.49c.26.03.64.06 1.14.08 .34 0 .56.03.68.08 .11.04.17.13.17.24 0 .15-.1.3-.29.44 -.19.13-.48.2-.88.2 -.42 0-.74-.07-.96-.21 -.13-.08-.19-.17-.19-.28 0-.08.02-.17.07-.26v0c.06-.12.13-.22.22-.32Z"/></svg>