<svg viewBox="0 0 24 24" xmlns="http://www.w3.org/2000/svg"><path d="M12.07 1.13v0c-.31-.01-.61 0-.92.03 -1.5.07-2.96.5-4.33 1.1 .28-.01.58-.05.83.1 .3.17.44.52.74.71 .41.16.86 0 1.29-.04 1.36-.16 2.77.11 4 .73 .78.41 1.49.96 2.15 1.56 1 .88 1.83 1.94 2.82 2.84 .32.28.69.52 1.1.68 .94.37 1.99.34 2.95.69 .3.1.57.26.84.43 -.17-.54-.34-1.08-.57-1.59 -.99-2.32-2.73-4.3-4.88-5.59 -1.83-1.11-3.96-1.69-6.084-1.7Zm-7.1 2.26C3.22 4.63 1.83 6.36.98 8.33c-.7 1.58-1.03 3.32-1 5.05 0 2.99 0 5.98-.01 8.98 -.02.16.08.3.15.44 1.15.07 2.32.01 3.48.03 -.58-.21-1.23-.55-1.34-1.21 -.18-.96.27-1.88.77-2.67 .78-1.23 1.83-2.27 2.91-3.24 1.3-1.14 2.75-2.1 4.23-2.98 .39-.26.85-.46 1.14-.86 -.26.02-.52.08-.76.19 -.99.42-1.93.96-2.85 1.51 -.89.54-1.77 1.08-2.6 1.7 -.58.41-1.12.87-1.68 1.31 -.13-.95-.35-1.87-.59-2.79 -.29-1.22-.48-2.48-.4-3.74 .06-1.29.46-2.57 1.23-3.61 .29-.44.69-.78.97-1.22 .23-.38-.13-.77-.09-1.17 -.01-.31.19-.55.35-.78Zm15.55 8.84c-.17-.01-.34.01-.5.02 -1.32.16-2.58.61-3.8 1.1 -2.75 1.15-5.39 2.57-7.75 4.4 -.94.74-1.87 1.54-2.56 2.53 -.21.32-.48.73-.33 1.13 .19.26.54.31.84.35 1.056.09 2.11-.08 3.14-.3 2.08-.48 4.09-1.26 5.92-2.36 1.37-.8 2.7-1.68 3.89-2.73 .66-.61 1.31-1.27 1.77-2.05 .21-.38.4-.79.39-1.23 0-.25-.03-.56-.27-.7 -.24-.16-.52-.21-.8-.21Zm3.42.07c-.79 1.99-2.36 3.54-3.97 4.89 -1.41 1.14-2.95 2.12-4.56 2.96 -2.19 1.21-4.54 2.17-7 2.65 5.035.02 10.07 0 15.1 0 .22.03.45-.15.44-.39 0-2.87 0-5.73 0-8.6 0-.52 0-1.04-.03-1.56Zm-11.26 3.43c.36.77.4 1.69.05 2.47 -.33.76-.984 1.375-1.77 1.64 -1.06.36-2.276.08-3.07-.71 1.4-1.39 3.05-2.48 4.78-3.43Z"/></svg>