<svg viewBox="0 0 24 24" xmlns="http://www.w3.org/2000/svg"><path d="M12 4.8c-3.2 0-5.2 1.6-6 4.8C7.2 8 8.6 7.4 10.2 7.8c.91.22 1.56.89 2.28 1.62 1.17 1.19 2.53 2.57 5.51 2.57 3.2 0 5.2-1.6 6-4.8 -1.2 1.6-2.6 2.2-4.2 1.8 -.92-.23-1.57-.89-2.29-1.63 -1.18-1.194-2.54-2.58-5.52-2.58ZM6 12c-3.2 0-5.2 1.6-6 4.8 1.2-1.6 2.6-2.2 4.2-1.8 .91.22 1.56.89 2.28 1.62 1.17 1.19 2.53 2.57 5.512 2.57 3.2 0 5.2-1.6 6-4.8 -1.2 1.6-2.6 2.2-4.2 1.8 -.92-.23-1.57-.89-2.29-1.63 -1.18-1.2-2.54-2.58-5.52-2.58Z"/></svg>