<svg viewBox="0 0 24 24" xmlns="http://www.w3.org/2000/svg"><path d="M10.87.02c-.41.04-1.24.19-1.795.32 -.66.15-1.1.303-1.86.63L7.21.969C4.4 2.169 2.16 4.409.96 7.2 .51 8.22.35 8.78.1 10.13c-.12.61-.121.72-.121 1.83s.004 1.22.12 1.83c.24 1.34.41 1.91.85 2.93H.95c1.2 2.8 3.44 5.04 6.251 6.24 1.02.44 1.58.6 2.93.85 .61.11.72.12 1.83.12s1.22-.01 1.83-.13c1.35-.25 1.91-.41 2.93-.86v0c2.8-1.21 5.04-3.45 6.25-6.25 .44-1.02.6-1.59.85-2.936 .11-.61.12-.73.12-1.84 0-1.12-.01-1.23-.13-1.84 -.25-1.35-.42-1.92-.86-2.94 -1.32-3.07-3.85-5.415-7.06-6.582 -.46-.17-1.21-.35-2.02-.5 -.65-.12-.83-.134-1.74-.15 -.56-.01-1.17 0-1.34.02Zm1.53 5.34l.1.1V8.31h2.29l.07.11c.13.21.06.73-.14.93 -.07.06-.2.07-1.16.07h-1.09l.01 3.49c.01 3.17.02 3.51.09 3.71 .14.44.36.59.83.59 .32 0 .59-.07 1.22-.31 .38-.14.41-.15.48-.08 .1.09.26.42.26.53 0 .14-.35.39-.93.68 -.93.44-1.67.61-2.47.55 -1.52-.11-2.37-.62-2.68-1.62 -.09-.28-.09-.4-.11-3.94l-.02-3.65h-.56c-.62 0-.68-.03-.73-.32 -.04-.21.1-.35.45-.47h0c.96-.36 1.82-.95 2.49-1.72 .35-.42.48-.601.74-1.12 .125-.24.27-.47.32-.51h0c.13-.11.32-.1.43.03Z"/></svg>