<svg viewBox="0 0 24 24" xmlns="http://www.w3.org/2000/svg"><path d="M21.3 9.9c.52 0 .95.42.95.95 0 .52-.43.95-.96.95s-.96-.44-.96-.96c0-.54.43-.96.95-.96Zm2.38 3.04H13.272v-.96h4.15V9.75h-2.89v-.77h2.88v-.93h-2.51v.2h-1.65v-2.9h1.64v.34c.49-.07 1.46-.19 2.51-.3v-.83h1.85v.64c.92-.09 1.75-.14 2.21-.12 1.48.07 2.44.28 2.48 1.27 .03.98-1.43 1.9-1.43 1.9l-.46-.44V8h-2.82v.92h3.22v.76h-3.23v2.22h4.38v.95ZM21.5 7.29l-.02-.02s1.37-.76.34-1.28c-.87-.43-5.54.3-6.93.62v.65h6.59ZM1.85 6.4c.55 0 .99-.45.99-1 0-.56-.45-1-1-1V4.39c-.56-.01-1 .44-1.01.99 -.01 0-.01 0-.01 0 0 .55.44 1 1.001 1Zm3.4-.86c.25-.44.37-.72.37-.72L4.15 4.4s-.6 1.92-1.65 2.82c0 0 1.01.58 1 .57l0 0c.27-.28.53-.58.78-.88 .23-.11.45-.2.67-.29 -.28.48-.71 1.21-1.15 1.68l.61.53s.41-.41.87-.9h.52v.89H3.75v.72h2.04v1.72c-.03 0-.06 0-.08-.01 -.23-.02-.58-.05-.72-.27 -.17-.27-.05-.75-.04-1.05H3.53l-.05.02s-.52 2.31 1.48 2.26c1.87.05 2.95-.53 3.47-.92l.2.76 1.15-.49 -.79-1.92 -.95.29 .17.65c-.25.18-.52.31-.82.41V9.48h1.99v-.73h-2v-.9H9.38v-.72H5.82c.25-.32.45-.6.5-.78l-.62-.17c2.66-.96 4.14-.79 4.12.77v4.11s.15 1.41-1.47 1.31l-.88-.19 -.21.83s3.78 1.08 4.09-1.83c.3-2.91-.08-4.76-.08-4.76s-.35-2.69-6.22-1.02ZM.01 12.13l1.58.99c1.09-2.39 1.02-2.07 1.3-2.92 .28-.88.34-1.54-.14-2.03 -.62-.62-.69-.68-1.61-1.36L.47 7.82l1.21.75s.81.41.42 1.19c-.37.73-2.14 2.34-2.14 2.34Zm19.94 6.84s-.02.52-.68.52c-.59 0-.64-.42-.64-.42 -.25.29-.63.45-1.07.45 -.77 0-1.3-.52-1.3-1.29 0-.79.55-1.28 1.39-1.28 .38 0 .72.14.92.4 0-.08.01-.14.01-.2 0-.57-.31-.82-1.01-.82 -.34 0-.67.04-1.02.14 .11-.22.19-.38.29-.46 .12-.1.42-.15.94-.15 1.26 0 1.74.42 1.74 1.42v1.2c0 .31.03.43.37.43Zm-1.33-.75c0-.49-.26-.75-.64-.75 -.41 0-.67.28-.67.75 0 .46.27.76.65.76s.65-.28.65-.78Zm5.27-.51c0 1.15-.7 1.82-1.78 1.82 -1.1 0-1.78-.68-1.78-1.83 0-1.16.68-1.83 1.77-1.83 1.08 0 1.77.67 1.77 1.82Zm-1.09 0c0-.87-.24-1.3-.7-1.3 -.48 0-.7.43-.7 1.29 0 .86.22 1.29.69 1.29 .46 0 .69-.44.69-1.3Zm-7.14-.05c0 1.17-.66 1.85-1.58 1.85 -.43 0-.81-.17-1.05-.47 0 0-.11.42-.67.42 -.69 0-.67-.53-.67-.53 .38.01.37-.22.37-.44V15.6c0-.36-.08-.48-.43-.49 .01-.11.07-.54.67-.54 .81 0 .76.91.76.91v.78c.22-.27.55-.4.99-.4 .96 0 1.56.64 1.56 1.74Zm-1.1.08c0-.9-.28-1.36-.77-1.36 -.44 0-.74.39-.74 1.1v.36c0 .72.31 1.11.76 1.11 .47 0 .73-.42.73-1.23Zm-3.25-.04c0 1.15-.69 1.82-1.79 1.82s-1.78-.68-1.78-1.83c0-1.16.67-1.83 1.77-1.83 1.09 0 1.78.67 1.78 1.82Zm-1.09 0c0-.87-.24-1.3-.7-1.3 -.47 0-.69.43-.69 1.29 0 .86.22 1.29.68 1.29 .46 0 .69-.44.69-1.3Zm-5.99-2.72c-.27.07-.8.09-1.56.09 -.925 0-1.54-.04-1.86-.04 -.52 0-.73.13-.91.65 .3-.11.67-.11 1.13-.11 .35 0 .41.04.41.29v2.9c0 .28.11.67.72.67 .71 0 .83-.53.83-.53 -.36-.01-.43-.14-.43-.49v-2.57c0-.27.1-.28.47-.28 .12 0 .2 0 .26 0 .54 0 .68-.11.9-.64Zm3.13 3.96s-.02.52-.67.52c-.56 0-.65-.42-.65-.42 -.25.29-.63.45-1.07.45 -.77 0-1.3-.52-1.3-1.29 0-.79.55-1.28 1.39-1.28 .38 0 .72.14.92.4 0-.08.01-.14.01-.2 0-.57-.31-.82-1.01-.82 -.34 0-.67.04-1.02.14 .11-.22.19-.38.29-.46 .12-.1.43-.15.94-.15 1.26 0 1.74.42 1.74 1.42v1.2c0 .31.02.43.37.43Zm-1.33-.75c0-.49-.26-.75-.64-.75 -.41 0-.67.28-.67.75 0 .46.27.76.65.76s.65-.28.65-.78Z"/></svg>