<svg viewBox="0 0 24 24" xmlns="http://www.w3.org/2000/svg"><path d="M9.77 11.568c.19-1.33.16-2.013-1.77-1.91 -2.223.12-4.476.26-7.85 1.02h0c-.11.42-.16.86-.16 1.311 0 1.52.618 2.99 1.787 4.254 1.06 1.14 2.55 2.09 4.326 2.75L6.1 18.99c.65.24 1.33.43 2.01.58 .13-.53.95-3.907 1.61-7.823l.03-.21m14.07-.88c-3.372-.77-5.63-.91-7.846-1.03 -1.94-.11-1.97.58-1.77 1.9l.04.29c.65 3.84 1.45 7.16 1.59 7.72 4.72-1.08 8.12-4.08 8.12-7.59 0-.45-.06-.88-.16-1.311m-.5-1.33v0c-.31-.59-.69-1.14-1.14-1.62 -1.06-1.15-2.56-2.1-4.33-2.752 -1.79-.67-3.82-1.02-5.89-1.02s-4.11.35-5.89 1.01C4.27 5.57 2.78 6.53 1.72 7.67h0C1.26 8.15.88 8.69.58 9.28c2.304-.56 6.245-1.3 9.904-1.37 .35-.01.59.1.75.3 .19.24.18 1.12.17 1.52l-.11 10.18h0c.41.01.82.01 1.24 0l-.11-10.18c-.01-.4-.02-1.28.17-1.53 .16-.21.4-.32.75-.31 3.65.07 7.59.81 9.9 1.37Z"/></svg>