<svg viewBox="0 0 24 24" xmlns="http://www.w3.org/2000/svg"><path d="M15.78 8.34c-.77 0-1.4.61-1.4 1.37 0 1.07.4 2.058 1.07 2.81 .27.31.59.58.95.8v0c.76-1.14 1.03-2.54.73-3.88 -.01-.03-.02-.06-.02-.09v0c-.17-.61-.72-1.04-1.35-1.029ZM7.16 12.29c.13.36.31.71.53 1.032 .35-.23.67-.5.95-.81v0c.69-.78 1.07-1.78 1.07-2.82 0-.76-.63-1.37-1.4-1.37 -.65 0-1.2.43-1.35 1.029 -.01.02-.02.05-.02.08v0c-.21.94-.14 1.93.2 2.84Zm15.5-.67l1.33.65v0c-1.02 1.96-3.04 3.18-5.25 3.18v0c-.66-.01-1.31-.11-1.93-.32v0c-1.27 1.26-2.99 1.96-4.78 1.96h0c-1.79 0-3.51-.71-4.78-1.97h0c-.62.21-1.28.32-1.93.32v0c-2.31 0-4.4-1.33-5.36-3.42l1.362-.6H1.32c.71 1.55 2.27 2.55 3.995 2.54 .32 0 .641-.04.94-.11l0 0c-.62-1.02-.95-2.18-.95-3.37v0c0-.53.06-1.05.19-1.56 .32-1.21 1.45-2.1 2.78-2.1l.07 0c.08 0 .16 0 .24.01 1.44.15 2.56 1.35 2.56 2.81 0 1.95-1 3.68-2.53 4.724v0c.94.78 2.13 1.21 3.36 1.21h0c1.22 0 2.41-.43 3.35-1.21 -1.53-1.04-2.53-2.77-2.53-4.724 0-1.46 1.12-2.66 2.564-2.82 .08-.01.16-.02.24-.02l.08-.01 -.001-.001c1.36-.01 2.55.94 2.83 2.28v0c.34 1.62.06 3.31-.8 4.73 .3.06.62.1.94.1 1.71 0 3.19-.97 3.91-2.372Z"/></svg>