<svg viewBox="0 0 24 24" xmlns="http://www.w3.org/2000/svg"><path d="M1.88 0v-.001c-.42-.01-.78.27-.9.67l-.001 0c-.22.79-.29 1.63-.19 2.45v0c.1.82.35 1.63.75 2.36h-.001c.25.46.55.9.9 1.3v-.001c-.06.25-.1.52-.125.78L2.31 7.55c-.06.45-.08.9-.08 1.35 0 .18 0 .375.02.56 .04.54.53 1.18.871 1.59l-.001-.001c.56.69 1.24 1.27 2.02 1.71v0c0 .02.02.05.03.08 .08.17.18.34.31.49l-.001 0c-.26.52-.43 1.09-.51 1.67l0-.001c-.1.42-.16.86-.18 1.3H4.79c-.17.07-.33.17-.47.28v-.001c-.4.32-.69.74-.85 1.23v0c-.05.13-.09.27-.11.41l-.23-.07 -.03.16c-.12.72-.07 1.36.23 2v0c-.26.03-.5.13-.7.29h0c-.16.12-.28.28-.36.45 -.15.32-.3.71-.3 1.08 0 .27.08.54.29.72H2.25c.12.1.28.16.44.16h2.36c.14.37.4.72.8.82 .11.02.22.04.34.04 .12 0 .24 0 .35 0 .3 0 .61 0 .92 0 .48-.01.96-.02 1.45-.03v0c.29-.01.55-.18.67-.45v0c.12.26.38.43.68.44 .48.01.96.02 1.44.02 .3 0 .61 0 .92 0v0c.11 0 .23-.01.35-.01v0c.11-.01.22-.03.33-.05 .39-.11.66-.45.8-.83h2.39v0c.16-.01.32-.06.44-.17 .21-.18.3-.45.3-.73 -.01-.37-.15-.76-.3-1.09 -.22-.47-.62-.69-1.07-.76 .29-.65.34-1.28.23-2.01l-.03-.17 -.21.05c-.01-.01-.01-.02-.01-.03v0c0-.02.01-.04.02-.06v0c.12-.31.27-.61.45-.89V17.1c.21-.38.46-.74.74-1.08v0c.14-.18.29-.35.45-.51 .29-.29.65-.52 1.06-.55 .28-.02.57.06.8.24 .17.13.25.28.34.47 .13.33.22.61.49.87 .48.45 1.19.46 1.77.19 .44-.22.82-.6.94-1.09v-.001c.03-.15.04-.3.03-.46 -.1-.92-.67-1.76-1.36-2.34 -.64-.54-1.45-.92-2.29-.95 -.79-.03-1.56.22-2.25.59 -1.17.64-2.09 1.69-2.78 2.85h0c-.03-.18-.06-.36-.1-.53v0c-.06-.35-.13-.68-.24-1.01v0c-.05-.16-.11-.31-.17-.46v0c.09-.1.17-.22.25-.33v0c.07-.13.15-.27.21-.4l.03-.09v0c.77-.45 1.46-1.03 2.02-1.72 .34-.43.82-1.05.87-1.61 .02-.19.02-.38.03-.58v0c0-.47-.02-.93-.08-1.39l-.001 0c-.04-.26-.08-.51-.13-.75v0c.34-.41.65-.85.9-1.31v0c.39-.74.65-1.54.75-2.37V2.78c.09-.83.03-1.66-.19-2.46v0c-.11-.41-.48-.69-.89-.69 -1.57 0-2.92.63-4.17 1.46l0-.001c-2.36-1.45-5.33-1.45-7.69-.001C4.39.25 3.04-.39 1.48-.39Zm.01.92h.07c.86.47 1.64 1.44 2.21 2.4h-.001c-.12.15-.24.3-.34.46l-.001 0c-.43.63-.75 1.32-.98 2.04 -.7-.95-1.59-2.67-.998-4.9 0-.01.01-.02.02-.02Zm15.9 0h.07l.02.02c.58 2.22-.3 3.95-1 4.89v0c-.24-.77-.59-1.49-1.04-2.15v0c-.09-.13-.18-.26-.28-.38 .57-.97 1.34-1.93 2.21-2.41Zm-14.63.17c.77.2 1.49.58 2.18 1.01l0-.001c-.29.22-.55.47-.8.73 -.14-.22-.28-.43-.43-.64v0c-.29-.41-.62-.79-.98-1.13Zm13.4 0l-.001-.001c-.37.34-.69.71-.98 1.12 -.15.2-.29.42-.43.63V2.83c-.25-.27-.51-.52-.8-.75 .68-.44 1.41-.82 2.18-1.02Zm-6.89.17v2.59C8.28 3.88 6.92 4.26 6.08 5c-.97.85-1.61 2.32-1.54 3.1 .06.69 1.17 1.16 2.65 1.41v0c-.08.13-.13.27-.16.42l0 0c-.04.21-.04.42 0 .63v0c-.51-.06-1.02-.14-1.52-.25H5.51c-.8-.17-1.57-.41-2.33-.7v0c-.03-.08-.05-.15-.07-.23 0 0-.32-2.86 1.27-5.23 1.27-1.9 3.24-2.89 5.24-2.94Zm.36 0c1.96.05 3.904 1 5.18 2.85 1.65 2.39 1.33 5.31 1.33 5.31v0c-.01.07-.03.14-.06.21 -.76.29-1.54.53-2.34.7 -.45.09-.96.18-1.52.24h-.001c.03-.22.03-.43 0-.64v0c-.03-.16-.08-.3-.16-.43 1.48-.25 2.59-.72 2.65-1.42 .07-.78-.58-2.26-1.54-3.11 -.84-.74-2.2-1.12-3.59-1.16Zm-.86.71v0c-.12-.01-.22.09-.22.21 -.01 0-.01 0 0 0 0 .19.23.28.37.15 .13-.14.03-.37-.16-.37Zm1.34 0v0c-.12 0-.22.09-.22.21 0 .19.23.28.36.15 .13-.14.04-.37-.16-.37Zm-1.35.95h0c-.12 0-.22.09-.22.21 0 .19.23.29.37.15 .13-.14.03-.38-.16-.38Zm1.34 0v0c-.12 0-.22.09-.22.21 0 .19.23.29.36.15 .13-.14.04-.38-.16-.38ZM6.98 6.67c.33 0 .64.15.85.4 .22.26.34.59.34.93v0c-.01.12-.1.21-.23.21 -.01-.01-.01-.01-.01-.01v0c-.13 0-.23-.1-.23-.22 -.01-.01-.01-.01-.01-.01h0c0-.24-.08-.47-.24-.65l-.001 0c-.14-.16-.33-.25-.53-.26h0c-.14 0-.27.04-.38.11h0c-.13.08-.23.2-.29.34h0c-.06.1-.18.15-.29.1 -.01-.01-.01-.01-.01-.01 -.11-.06-.16-.19-.11-.29h0c.09-.21.24-.39.43-.53v0c.18-.13.4-.2.62-.2Zm5.68 0c.22 0 .44.06.625.19 .18.13.33.31.43.52v0c.05.1 0 .23-.11.28v0c-.11.05-.24 0-.3-.11v0c-.07-.14-.17-.26-.29-.35v0c-.12-.08-.25-.12-.38-.12h-.001c-.21 0-.4.09-.53.25v0c-.16.18-.24.41-.24.64v0c-.01.11-.11.21-.23.21v0c-.12 0-.22-.1-.23-.22l-.001 0c-.01-.35.12-.68.34-.94V7.01c.21-.26.52-.41.85-.41ZM9.81 8.86h0c.97-.01 2.16.43 2.27 1.15 .11.68-.27 1.14-.85 1.41 -.87.32-1.17-.1-1.31-.37 -.07-.13-.1-.2-.125-.2h-.01c-.03.01-.07.07-.14.19 -.14.24-.43.6-1.02.48 -.74-.24-1.27-.74-1.14-1.53 .11-.72 1.3-1.16 2.28-1.16Zm0 .33c-.6 0-1.31.17-1.375.53 -.12.6.78.9 1.38.89 .59-.01 1.487-.3 1.37-.9 -.08-.37-.79-.54-1.38-.54Zm-6.39.91v0c.65.23 1.31.42 1.99.57H5.4c.56.11 1.13.2 1.7.26h0c.02.05.05.1.08.15 .26.46.72.75 1.24.92 -.28.11-.49.29-.54.57v0c-.02.11-.01.22.03.33 0 0 0 0 0 .01v0c-.41-.08-.8-.19-1.19-.32 -1.22-.42-2.23-1.09-3.03-2.08H3.69c-.12-.15-.23-.3-.33-.45Zm12.76 0c-.08.1-.17.21-.25.31 -.46.54-.94 1.05-1.54 1.43 -.83.53-1.76.87-2.75 1.07v0c.04-.12.05-.24.03-.36 -.06-.28-.26-.45-.53-.56 .51-.18.97-.47 1.24-.93l-.001 0c.02-.05.05-.1.07-.16v0c.57-.06 1.14-.15 1.7-.27h0c.67-.15 1.34-.34 1.99-.57Zm-6.35 2.22c.75 0 1.49.14 1.33.44 -.08.13-.26.24-.49.31 -.3.03-.6.06-.9.08v0c-.3-.02-.6-.05-.89-.08 -.25-.08-.44-.2-.5-.35 -.11-.28.65-.42 1.41-.42Zm9.65.5c.46.01.95.17 1.39.44 -.46.13-.83.5-1.03.95v0c-.07.14-.11.29-.14.44v0c-.25-.14-.52-.21-.79-.23v0c-.01-.03-.03-.06-.04-.08 -.27-.37-.31-1.04 0-1.39v-.001c.02-.03.04-.05.07-.07v0c.03-.03.06-.06.1-.08v0c.13-.02.27-.03.4-.02Zm-1.13.17v-.001c-.1.22-.15.46-.14.7 0 .27.07.53.19.78v0c-.25.05-.48.14-.69.27v0c-.02-.02-.04-.03-.06-.04 -.18-.08-.32-.25-.42-.41 -.11-.19-.23-.53-.1-.72 0-.01 0-.01 0-.01 .14-.1.28-.2.43-.27v0c.24-.14.49-.25.75-.34Zm-12 .2c.18.06.37.13.56.18l0 0c.99.53 2.11.78 3.24.71v-.001c.48-.04.97-.13 1.44-.28v0c.36-.12.71-.27 1.05-.45v-.001c.19-.06.37-.12.56-.19v0c-.5.66-1.19 1.14-1.99 1.37 .71-.1 1.46-.28 2.04-.63 .32.79.51 1.86.33 3.29 -.05.34-.1.66-.17.97 -.74-.41-1.75-.09-2.52.35 -.1-1.42-.41-2.46-.54-2.84 -.12-.36-.54-.29-.55.03 .05.15.09.35.12.52 .05.28.09.57.14.86 .07.47.14.98.17 1.46 0 .1.01.21.01.32v0c-.46.06-.93.06-1.39 0 0-.11 0-.22.01-.33 .01-.2.04-.4.06-.59 .03-.31.08-.61.12-.91 .04-.31.09-.61.14-.91 .02-.12.05-.27.08-.41 0-.33-.19-.33-.3-.33 -.11 0-.19.09-.24.26 -.14.41-.42 1.42-.52 2.76 -.85-.57-1.54-.75-2.52-.3 -.07-.32-.13-.65-.17-1 -.19-1.55.04-2.68.42-3.49 .58.4 1.33.63 2.07.75v0c-.73-.25-1.37-.71-1.83-1.32Zm14.89.48v0c.09-.01.18.03.25.09 0 0 0 0 0 0 .48.47.84 1.07.9 1.68 .07.69-1.07 1.24-1.58.76 -.3-.28-.27-.81-.74-1.27v0c.01-.03.01-.06.01-.09 .02-.6.49-1.24 1.11-1.22Zm-4.6.31v0c.03.19.09.38.19.55l-.001 0c.11.2.26.37.45.5v-.001c-.05.04-.1.08-.15.13 -.16.14-.3.31-.44.47v-.001c-.04-.02-.08-.03-.11-.03 -.18 0-.36-.08-.49-.18 -.15-.12-.36-.36-.34-.57h-.001c.26-.33.54-.63.86-.9Zm-1.21 1.34c.09.18.23.34.4.47 .16.12.34.21.54.25l-.001-.001c-.33.43-.61.89-.85 1.38v0c-.16-.29-.36-.54-.61-.74v0c-.08-.06-.15-.11-.23-.16l-.001-.001c.21-.43.46-.84.73-1.23Zm-1.18 1.61c.59.27.96.9 1.04 1.6 -.48.14-1.01.39-1.45.61 .16-.62.28-1.24.36-1.86h-.001c.01-.12.02-.24.03-.36Zm-9.27.01c0 .11.02.23.03.34 .07.62.19 1.25.36 1.86 -.44-.22-.95-.47-1.43-.61 .07-.7.44-1.32 1.02-1.6Zm1.89 1.66c.52.02 1.03.28 1.41.62 .02 1.47.33 2.85.52 3.12 .2.26.09.75.09.75s-2.61.06-2.86 0c-.26-.07-.56-.82-.14-1.25 .19-.21.47-.26.72-.25 .5.1.83.42 1.18.86 -.08-.76-.5-.96-.8-1.14 -.1-.06-.14-.09-.19-.19v0c-.38-.73-.68-1.5-.89-2.29 .29-.21.6-.28.91-.27Zm5.46 0c.31-.02.62.06.92.26h-.001c-.21.79-.51 1.55-.88 2.28 -.06.09-.1.12-.19.18 -.31.18-.73.38-.8 1.13 .34-.44.67-.76 1.18-.87 .24-.01.53.04.72.24 .41.43.11 1.18-.14 1.24 -.26.06-2.86 0-2.86 0s-.11-.49.09-.76c.19-.28.51-1.66.53-3.13 .37-.34.88-.61 1.4-.63Zm-8.67.38c.46.12 1.23.47 1.9.82 .1.31.22.62.35.92 .04.1.09.2.14.3l-.001-.001c-.24.06-.45.19-.63.36v0c-.24.24-.37.56-.38.9H2.62c-.25-.21.02-2.03 2.39-.96 -.53-.42-1.412-.98-1.4-2.38Zm11.84 0c.02 1.4-.87 1.96-1.39 2.37 2.36-1.08 2.63.75 2.39.95h-2.45 -.001c-.02-.6-.44-1.11-1.02-1.25v0c.18-.4.34-.8.47-1.22 .69-.37 1.5-.75 1.98-.88Zm-5.19.41h-.001c-.01.58-.07 1.16-.18 1.73 -.04.2-.15.68-.25.86v0c-.03.04-.06.08-.08.12 -.15 0-.27 0-.42 0v0c-.03-.06-.07-.11-.1-.16v0c-.04-.09-.08-.19-.1-.28l-.001-.001c-.08-.27-.14-.53-.18-.8l0-.001c-.09-.5-.13-1-.14-1.5v0c.47.06.95.06 1.43-.02Z"/></svg>