<svg viewBox="0 0 24 24" xmlns="http://www.w3.org/2000/svg"><path d="M11.94-.001l-.001-.001c-6.61.03-11.95 5.39-11.95 12v0c0 6.62 5.37 12 12 12v0c6.62 0 12-5.38 12-12v0c0-6.63-5.38-12-12-12V-.01c-.02-.01-.04-.01-.06 0Zm4.962 7.22c.1-.01.32.02.46.14V7.35c.09.08.15.19.17.32 .01.09.03.3.02.47 -.18 1.89-.97 6.5-1.36 8.62 -.17.9-.5 1.2-.82 1.23 -.7.06-1.23-.46-1.9-.91 -1.06-.7-1.66-1.13-2.68-1.8 -1.19-.78-.42-1.21.25-1.91 .17-.19 3.247-2.98 3.3-3.23 0-.04.01-.15-.06-.22 -.07-.07-.18-.05-.25-.03 -.11.02-1.8 1.14-5.061 3.34 -.48.33-.92.49-1.31.48 -.43-.01-1.26-.25-1.87-.44 -.76-.25-1.35-.38-1.3-.79 .02-.22.32-.44.89-.67 3.49-1.53 5.83-2.529 6.99-3.02 3.33-1.39 4.02-1.63 4.47-1.64Z"/></svg>