<svg viewBox="0 0 24 24" xmlns="http://www.w3.org/2000/svg"><path d="M11.62 8.79c-1.02 0-2.02.3-2.02 1.32 0 1.75 3.07.82 3.07 1.89 0 .35-.55.49-.98.49 -.79 0-1.35-.12-2.04-.53v.87c.52.16 1.2.26 1.98.26 1.06 0 2.06-.29 2.06-1.31 0-1.85-3.08-1.02-3.08-1.92 0-.36.49-.5.92-.5 .73 0 1.51.21 1.94.61v-.95h-.05c-.55-.17-1.31-.29-1.85-.29Zm9.73 0c-1.62.02-2.73.92-2.73 2.22 0 1.25 1.01 2.1 2.51 2.1 1.58 0 2.69-.9 2.69-2.202 0-1.28-1-2.14-2.49-2.14Zm-4.31.02c-1.85 0-3.06.87-3.06 2.22 0 1.23 1.11 2.06 2.79 2.06 .54 0 1.01-.08 1.58-.22v-1.05c-.41.42-.88.59-1.4.59 -1 0-1.66-.62-1.66-1.52 0-.88.71-1.52 1.68-1.52 .54 0 .97.18 1.3.52v-1c-.36-.1-.81-.12-1.26-.12ZM.15 8.92v.99c.35-.27 1.06-.38 1.84-.38v2.69c0 .4-.03.49-.22.71h1.56c-.17-.22-.22-.34-.22-.72V9.48h.04c.68 0 1.49.11 1.84.4v-1Zm5.3 0c.16.21.18.33.18.71v2.6c0 .4-.03.52-.19.71H9.2v-.98c-.53.37-1.5.37-1.9.35h-.55v-1.12h.4c.28 0 .75.02 1.04.11v-.83c-.29.09-.79.11-1.05.11h-.41V9.51h.54c.49 0 1.34.09 1.65.37V8.86Zm15.74.49c.82 0 1.37.68 1.37 1.53 .02.82-.53 1.51-1.35 1.51 -.86 0-1.4-.69-1.4-1.52 0-.86.54-1.54 1.37-1.54ZM1.81 14.09c-.5 0-.88.26-1.07.44 0 0-.45.45-.76.61 -.03 0-.03.02 0 .02h2.79c.54 0 .8-.19 1.13-.48 0 0 .47-.45.82-.6 .02 0 .02-.03 0-.03Zm4.8 0c-.5 0-.88.26-1.05.44 0 0-.45.45-.76.61 -.03 0-.03.02 0 .02h2.79c.54 0 .8-.19 1.13-.48 0 0 .47-.45.8-.6 .02 0 .02-.03 0-.03Zm4.78 0c-.48 0-.86.26-1.05.44 0 0-.45.45-.76.61 -.03 0-.03.02 0 .02h2.79c.54 0 .8-.19 1.13-.48 0 0 .47-.45.8-.6 .02 0 .02-.03 0-.03Zm4.8 0c-.48 0-.86.26-1.05.44 0 0-.45.45-.76.61 -.03 0-.03.02 0 .02h2.79c.54 0 .8-.19 1.13-.48 0 0 .47-.45.8-.6 .02 0 .02-.03 0-.03Zm4.8 0c-.48 0-.86.26-1.07.44 0 0-.45.45-.76.61 -.03 0-.03.02 0 .02h2.81c.54 0 .8-.19 1.13-.48 0 0 .47-.45.8-.6 .02 0 .02-.03 0-.03Z"/></svg>