<svg viewBox="0 0 24 24" xmlns="http://www.w3.org/2000/svg"><path d="M23.44 9.756c.02.05.05.11.07.18 -.03-.06-.05-.13-.08-.19 .59 2.3-1.95 5.003-5.13 4.23h0c4.59-3.01 2.33-6.772.19-8.58 -1.77-1.49-.73-1.95.02-1.95 .23 0 .44.04.51.121l-.01-.01 0 0c-.02-1.44-5.07-1.11-.65 3.49 2.26 2.365-.41 7.596-3.6 3.61v0c-.03-.04-.05-.08-.08-.12 .51-.22.93-.8.93-1.76v0c0-.34-.07-.68-.2-.99 .36-.75.7-1.65.7-2.77 0-2.684-1.75-5.08-4.18-5.08C9.49-.07 7.75 2.32 7.75 5c0 1.12.33 2.02.7 2.771v0c-.14.31-.21.64-.2.98 0 .95.42 1.54.93 1.75h0c-.03.03-.05.07-.08.11 -3.19 3.97-5.87-1.26-3.6-3.62 4.41-4.61-.633-4.926-.66-3.5l0-.01c.07-.08.28-.12.51-.12 .742 0 1.78.46.02 1.95 -2.133 1.8-4.383 5.53.13 8.54 .01.01.03.02.04.04 -3.18.76-5.72-1.93-5.131-4.24l0-.01c-.01 0-.01 0-.01 0l0-.01 -.01 0c-1.18 1.61-.606 5.779 3.77 6.16 .01 0 .03 0 .05.01 -4.36 1-3.048 7.02.02 6.05l-.02-.01 .01-.01c-2.134-.35-2.294-2.997-1.23-3.91 1.17-1.01 2.51-.14 5.302-.94l.03-.01c-.03 2.44 2.35 3.76 1.1 5.16 -1.32 1.47-3.12-.1-2.86-1.55l0-.03 -.01 0v-.01l-.01.01C5.43 22.4 6.83 23.8 8.4 23.8c.89 0 1.85-.47 2.42-1.57 1.21-2.34-2.39-6.44.96-6.44 3.34 0-.26 4.09.95 6.43 .57 1.1 1.53 1.56 2.43 1.56 1.57 0 2.97-1.42 1.85-3.27l0 .02 -.01-.02c.27 1.45-1.54 3.05-2.86 1.57 -1.25-1.41 1.13-2.72 1.1-5.17 2.8.81 4.15-.08 5.33.94 1.06.91.9 3.564-1.23 3.91h0c3.07.95 4.37-5.06.01-6.06l0-.01c4.44-.37 5.009-4.573 3.82-6.19Zm-20.24.39c-.14-2.25 1.81-4.073 2.41-4.59 .83-.71 1.165-1.28.99-1.73v0c-.11-.28-.36-.48-.66-.512l-.001 0c-.2-.03-.39-.02-.58.03 .16-.09.36-.13.57-.13 .47 0 .86.22.99.569 .11.31.12 1-1.18 2.13 -2.047 1.78-2.213 3.92-1.69 5.33 .45 1.22 1.47 2.01 2.58 2.01 .17 0 .35-.02.53-.06 -.54.46-1.16.61-1.412.65 -1.5-1.045-2.52-2.42-2.6-3.73ZM8.4 17.01c-1.14.3-2.3.31-3.04.32 -.93 0-1.66.01-2.34.59 -.617.52-.88 1.59-.609 2.53 .09.32.19.65.42.85 .17.15.48.37.78.52l-.02-.01c.01.01.03.02.05.03 -1-.22-1.572-1.18-1.65-2.14 -.09-1.21.6-2.73 2.832-3.06 .35-.06.72-.09 1.101-.12 .91-.08 1.85-.16 2.49-.54 -.03.38-.05.78-.06.98Zm.25-2.69c-.65.99-1.94 1.15-3.07 1.29 -.32.03-.62.08-.883.13l-.36-.03C2.53 15.55 1.2 14.7.57 13.31v0c-.3-.65-.42-1.36-.36-2.06 0 0 .03-.38.1-.77 -.09 1.09.2 2.138.88 2.997h0c.88 1.11 2.21 1.75 3.63 1.76 1.33 0 2.588-.59 3.54-1.67 .33-.37.47-.4.51-.4 .12.18.01.7-.25 1.11ZM15.03 8.82c0 1.34-1.53 1.34-1.53 0 0-1.35 1.52-1.35 1.52 0Zm-1.81-5.5c0 .74-1.24.74-1.24 0s1.23-.74 1.23 0Zm-.26 8.156c0 .74-.06 1.35-.14 1.35 -.08 0-.13-.61-.125-1.36 0-.75.06-1.36.13-1.36s.12.6.125 1.35ZM12 9.85c.05 0 .1.73.1 1.63 0 .9-.05 1.63-.1 1.63 -.06 0-.1-.73-.1-1.63 0-.91.04-1.64.1-1.64Zm-.2-8.21c0 .51-.85.51-.85 0 0-.52.85-.506.85 0Zm-.59 4.22c0-.36.58-.351.58 0 0 .35-.59.35-.59 0Zm.04 5.62c0 .76-.07 1.39-.14 1.39 -.08 0-.14-.63-.14-1.39 0-.77.06-1.39.13-1.39s.13.62.13 1.388Zm0-7.495c0 .51-.85.51-.85 0s.84-.51.84 0ZM10.1 2.76c0 .35-.59.35-.59 0 0-.36.58-.36.58 0Zm-.08 2.508c0 .25-.43.25-.43 0 0-.26.42-.26.42 0Zm-1.1 3.54c0-1.35 1.52-1.35 1.52 0 0 1.34-1.53 1.34-1.53 0Zm5.32 9.08c-.08.74-.28 1.38-.45 1.94 -.35 1.13-.63 2.03.24 3 .36.4.82.62 1.346.62 .64 0 1.27-.34 1.66-.89h-.001c.17-.26.28-.55.32-.85 .01.16.02.31.01.41v0c-.02.22-.09.44-.2.64 -.34.59-1.07.98-1.85.98 -.95 0-1.77-.54-2.253-1.46 -.49-.93-.14-2.22.17-3.35 .3-1.12.56-2.08.1-2.68 -.27-.35-.73-.52-1.42-.52 -.7 0-1.16.16-1.42.51 -.46.6-.2 1.56.1 2.67 .3 1.13.65 2.42.17 3.35 -.49.92-1.31 1.45-2.26 1.45 -.79 0-1.52-.39-1.86-.98h0c-.18-.33-.25-.7-.19-1.06 .04.29.14.58.32.84 .38.54 1.02.88 1.66.88 .51 0 .98-.22 1.34-.63 .86-.97.58-1.87.24-3 -.18-.57-.37-1.21-.45-1.95 -.1-.97.11-1.83.6-2.36 .39-.45.96-.67 1.69-.67 .72 0 1.29.22 1.69.66 .48.53.7 1.39.6 2.36Zm3.02-4.65c1.11 0 2.122-.79 2.57-2.02 .52-1.41.36-3.55-1.69-5.33 -1.3-1.13-1.3-1.82-1.18-2.134 .13-.35.52-.569.99-.569 .19 0 .37.04.53.11l.01 0 -.001-.001c-.18-.04-.36-.05-.54-.02v0c-.3.03-.55.23-.66.51 -.17.45.16 1.02.99 1.72 .6.5 2.54 2.33 2.41 4.57 -.08 1.3-1.1 2.68-2.6 3.72v0c-.52-.1-1.01-.32-1.42-.66 .17.03.35.05.53.05Zm4.63 6.46c-.07.95-.65 1.92-1.65 2.13 .01-.01.02-.02.04-.03 .3-.16.6-.37.78-.52 .23-.21.33-.54.42-.86 .26-.95 0-2.01-.61-2.54 -.68-.59-1.41-.59-2.34-.6 -.75-.01-1.91-.03-3.04-.33 -.01-.2-.03-.61-.06-.99 .64.38 1.58.46 2.5.54 .37.03.74.06 1.09.11 2.23.32 2.91 1.84 2.83 3.05Zm-2.67-3.98c-.28-.06-.57-.1-.89-.14 -1.14-.14-2.43-.3-3.07-1.29 -.27-.41-.38-.93-.3-1.09v0c.01-.01.03-.01.04-.01 .09 0 .23.07.51.37 .95 1.07 2.21 1.66 3.54 1.66 1.41 0 2.77-.66 3.63-1.763 .67-.86.96-1.9.88-3 .07.39.1.77.1.77v-.001c.06.7-.06 1.41-.36 2.05 -.64 1.39-1.98 2.24-3.78 2.39l-.36.02Zm-9.69-7.5v0c.07.04.11.13.11.22v0c.01.12-.09.24-.22.25 -.13.01-.25-.09-.26-.22 -.01-.02-.01-.03 0-.05v0c-.02-.13.08-.25.21-.26 .05-.01.1 0 .14.03Zm4.29.44h-.001c-.08-.05-.12-.14-.11-.23V8.42c-.01-.13.08-.25.21-.25 .12-.01.24.08.24.21 0 .01 0 .02 0 .03h-.001c.01.12-.09.24-.22.25 -.06 0-.11-.01-.15-.04Z"/></svg>