<svg viewBox="0 0 24 24" xmlns="http://www.w3.org/2000/svg"><path d="M18.75 10.51c0 .62-2.24 1.14-5.24 1.28l0 0c-.09 0-.53.03-1.51.03 -.78 0-1.33-.03-1.53-.04 -3.01-.14-5.25-.66-5.25-1.29s2.24-1.15 5.24-1.29v2.04c.19.01.75.04 1.53.04 .93 0 1.4-.04 1.48-.05V9.18c2.99.13 5.23.65 5.23 1.28Zm5.19.54L12.12 22.37v0c-.07.06-.18.06-.25 0L.05 11.04h0c-.06-.06-.08-.14-.04-.21l4.37-9.2v0c.02-.07.09-.11.16-.11h14.88v0c.06-.01.13.04.16.1l4.37 9.19V10.8c.03.07.01.15-.04.2Zm-4.48-.41c0-.81-2.56-1.48-5.95-1.64V7.17h4.18V4.38H6.29v2.78h4.18v1.82c-3.41.15-5.97.83-5.97 1.63 0 .8 2.55 1.48 5.96 1.63v5.86h3.02v-5.87c3.394-.16 5.94-.83 5.94-1.64Z"/></svg>