<svg viewBox="0 0 24 24" xmlns="http://www.w3.org/2000/svg"><path d="M3.638 10.8h-.56s-.92-.78-1.88-1.7C.244 8.18-.02 7.71-.02 7.71v-.56l7.16-7.17h.55s.74.61 1.63 1.448c.88.83 1.44 1.63 1.44 1.63v.55l-2.2 2.19 4.39 4.11s2.43-2.44 3.27-3.28c.84-.84 1.73-2.719 1.73-2.719l2.346-2.35 .61-.42 3.032 3.03 -.42.61 -2.35 2.34s-1.61.68-2.718 1.73c-1.12 1.05-3.34 3.34-3.34 3.34s1.93 2.14 4.05 4.27c2.14 2.14 4.48 4.27 4.651 4.42 .33.3-.35 1.37-.91 2.02 -.56.65-.86.69-1.25.9 -.39.2-.84-.06-.84-.06s-2.06-2.27-4.09-4.31c-1.98-2-4.56-4.35-4.56-4.35s-6.646 6.64-7.08 7.07c-.44.43-.6 1.08-.6 1.08l-.649.65s-.71-.4-1.553-1.26c-.86-.86-1.182-1.49-1.182-1.49l.64-.65s.59-.09 1.08-.6c.49-.52 7.01-7.01 7.01-7.01L5.71 8.47Zm17.26 13.04c-.02-.02-.04-.04 0 0ZM17.43 8.75l.45-.46c.86-.86 3.19-1.4 3.19-1.4l2.26-2.26 .25-.39 -2.69-2.682 -.39.258 -2.27 2.26s-.95 1.92-1.81 2.78l-.43.42 -.03.03L3.08 20.19c-.5.49-1.15.65-1.15.65l-.41.41s.55.78 1 1.24c.45.45.76.64.76.64l.46-.48s.24-.58.73-1.07Zm-4.66 1.4L8.98 6.57s-.63.19-1.088.81c-.47.61-.49 1.12-.07 1.54C8.24 9.34 10.9 12 10.9 12Zm2.64 2.81s-.72.18-1.1.74c-.39.56-.359.92.05 1.33 .41.41 2.37 2.199 3.888 3.71 1.51 1.51 3.74 3.86 4 4.04 .26.17.26.17.26.17s.38-.31.66-.71c.27-.4.62-.99.46-1.14 -.17-.16-1.83-1.67-4.03-3.81 -2.2-2.15-4.21-4.38-4.21-4.38ZM.28 7.26v.33s.36.52 1.36 1.51c.99.99 1.51 1.36 1.51 1.36h.33l-.1-.26s-.766-.4-1.62-1.25C.91 8.1.51 7.33.51 7.33s2.05-2.01 3.44-3.393C5.33 2.54 7.32.5 7.32.5s.73.42 1.58 1.279c.85.85 1.279 1.58 1.279 1.58l.25.09v-.34s-.37-.53-1.36-1.514C8.07.6 7.55.24 7.55.24h-.34Z"/></svg>