<svg viewBox="0 0 24 24" xmlns="http://www.w3.org/2000/svg"><path d="M9.636 4.093V8.33h.42c.18-1.16.61-2.05 1.3-2.67 .48-.45 1.27-.68 2.35-.68h1.19v12.232c0 .79-.05 1.28-.13 1.46 -.12.26-.28.45-.48.55 -.28.16-.65.24-1.096.24h-.52v.41h8.26v-.42h-.52c-.45 0-.8-.08-1.05-.23 -.26-.15-.43-.33-.52-.53 -.09-.21-.14-.71-.14-1.52V4.93h1.19c.74 0 1.26.07 1.56.2 .532.25.95.59 1.25 1.02 .3.42.58 1.13.83 2.11h.41V4.02Zm-1.9 15.39c-.44 0-.79-.08-1.05-.23 -.26-.15-.43-.33-.52-.53 -.09-.21-.14-.71-.14-1.52V6.753c0-.79.04-1.28.12-1.47 .11-.27.27-.45.47-.56 .27-.17.641-.25 1.096-.25h.51v-.42H-.04v.41H.48c.44 0 .79.07 1.05.22 .258.15.43.32.51.53 .08.2.129.7.129 1.51v10.444c0 .79-.05 1.279-.13 1.46 -.11.26-.264.45-.47.55 -.28.16-.647.24-1.103.24h-.53v.41H8.2v-.42h-.52Z"/></svg>