<svg viewBox="0 0 24 24" xmlns="http://www.w3.org/2000/svg"><path d="M15.816 6.36v3.36h.22v0c2.61.04 4.71 2.15 4.76 4.76v3.03h3.192v-3.14c0-4.43-3.6-8.03-8.03-8.03h-.08Zm-9.06.01v.6h1.008v2.74h.69V6.96h1v-.6Zm2.96 0v3.34h.69v-1.5h1.3v1.5h.69V6.36h-.7v1.27h-1.31V6.35Zm3 0v3.34h2.4v-.59h-1.76v-.88H14.9v-.59H13.35v-.71h1.75v-.59ZM4.64 10.13c-.45 0-1.61.19-1.61 1.75s1.16 1.75 1.608 1.75c.44 0 1.6-.2 1.6-1.76s-1.17-1.76-1.61-1.76Zm-4.644.09v3.33H.64v-2.38h.01l1.368 2.37h.69V10.2h-.65v2.31h-.02L.71 10.19Zm6.54 0l.01 3.33h.68v-1.31h.72c.516 0 .54.18.54.63 0 .34.02.51.07.67h.76v-.09c-.15-.05-.15-.17-.15-.66 0-.63-.15-.74-.42-.86 .32-.11.516-.42.516-.8 0-.29-.17-.95-1.06-.95Zm2.91 0v.58h1.02v2.74h.69v-2.75h1v-.59Zm2.97 0v3.33h.69v-1.5h1.29v1.5h.69v-3.34h-.7v1.26h-1.3v-1.26Zm3.372 0v3.34h.15c1.08 0 1.94.87 1.94 1.94v1.99h2.38V14.5c-.02-2.32-1.86-4.2-4.16-4.3h-.26Zm-11.16.5c.37 0 .9.22.9 1.16 0 .93-.53 1.16-.9 1.16 -.38 0-.92-.23-.92-1.17s.54-1.17.91-1.17Zm2.58.07h.86c.4 0 .49.25.49.43 0 .32-.18.45-.54.45h-.82Zm3.68 3.2c-.88 0-1.58.61-1.58 1.81 0 1.18.64 1.8 1.56 1.8 .86 0 1.34-.52 1.48-1.26h-.72c-.09.42-.36.64-.76.64 -.62 0-.86-.56-.86-1.17 0-.98.5-1.2.85-1.2 .58 0 .69.38.75.58v-.02h.72c-.04-.51-.46-1.22-1.48-1.22Zm-6.696.08v3.43h.7v-1.44H6.4v-.62H4.88v-.77H6.6v-.62Zm3.22 0L6.18 17.5h.75l.22-.71h1.28l.21.7h.78L8.2 14.05Zm5.23 0v3.43h2.46v-.62h-1.8v-.89h1.596v-.6H13.3v-.72h1.8v-.62Zm3.144.01v3.43h1.59v-2c0-.8-.65-1.44-1.44-1.44Zm-7.98.76h.01l.42 1.35h-.88Zm-4.92.91H2.88c-.52-.01-.94.4-.94.91 -.01 0-.01 0-.01 0 0 .52.43.92.93.92v0c.5 0 .92-.41.92-.91 0-.01 0-.01 0-.02v0c0-.51-.41-.93-.91-.93 -.01-.01-.01-.01-.02 0Zm0 .14c.42 0 .75.33.75.78s-.33.79-.76.79c-.44 0-.77-.35-.77-.8 0-.45.33-.78.76-.78Zm-.36.24v1.09h.16v-.47h.18l.3.46h.18l-.32-.48c.16-.03.28-.11.28-.3 0-.22-.14-.32-.39-.32Zm.16.13h.22c.12 0 .24.02.24.16 0 .16-.15.18-.29.18h-.18Z"/></svg>