<svg viewBox="0 0 24 24" xmlns="http://www.w3.org/2000/svg"><path d="M1.25 0C.557 0 0 .557 0 1.25v6.67C4.756 2.36 9.47.03 12.87.06c1.47.01 3.55.87 3.46 2.74 -.08 1.55-3.202 3.76-4.71 4.19l-1.13-.12c.07-.69 2.25-2.77 2.24-3.79 -.01-.633-.98-1.38-1.86-1.318 -2.05.14-8.15 5.276-8.06 6.94 .07 1.35 3.274 1.82 6.46 1.77 3.276-.05 3.63-.12 6.352.01 2.12.09 8.24 2.02 8.293 5.39 .03 2.465-2.68 4.32-6.33 5.776 -3.41 1.35-8.21 2.29-9.789 2.26C5.17 23.86.03 23 .03 20.36c0-2.02 1.494-4.58 3.907-4.74 .399-.03.74.02 1.04.58 -.94.92-1.69 1.59-1.63 2.88 .08 1.85 3.02 2.5 4.492 2.82 .43.09 3.39.58 6.76-.49 4.03-1.28 5.74-3 5.71-5.134 -.02-.85-.93-2.285-3.57-3.15 -2.38-.78-3.48-1.02-6.64-.97 -2.98.04-5.872.1-8.263-.43 -1.14-.26-1.875-.81-1.875-.81l-.03-.03v11.76c0 .69.557 1.25 1.25 1.25h21.5c.69 0 1.25-.56 1.25-1.25V1.14c0-.693-.56-1.25-1.25-1.25h-21.5Z"/></svg>