<svg viewBox="0 0 24 24" xmlns="http://www.w3.org/2000/svg"><path d="M1.25 0C.557 0 0 .557 0 1.25v4.8c.003-.02.001-.04.006-.06 .16-.7 1.27-1.92 3.219-3.589C4.02 1.71 6.145.26 8.34-.01h-7.1Zm8.21 0c1.11.23 2.16 1.177 1.55 2.33C10.65 3 9.14 4.2 8.06 4.48l-.71-.1c.16-.56 1.48-1.79 1.47-2.453 -.01-.47-.62-.87-1.2-.85 -.73.03-2.03.87-3.17 1.84C3.3 3.89 2.32 5 2.33 5.573c.02.91 2.086 1.213 4.176 1.18 2.14-.04 2.38-.1 4.164 0 1.596.09 5.6 1.36 5.44 3.535v0c-.03.44-.16.87-.37 1.27 .08-.01.15-.03.24-.03 .55-.01 1.33.84 1.33.84l-1.955.48s-.21-.25-.34-.25c-.27.01-4.72 3.24-4.53 6.76 .11 2.08 2.74 3.56 5.18 3.5 2.58-.07 6.06-1.04 6.17-4.698 .05-1.89-1.71-3.15-3.529-2.95 -.74.07-2.59.79-2.48 2.16 .08 1.07.74 1.45.9 1.41 .54-.12 1.45-.43 1.45-.43l.21.29c-.04.39-2.31 1.25-3.21 1.24 -1.468-.01-1.83-1.74-1.64-2.73 .34-1.81 4.57-3.01 6.32-2.97 3.28.08 4.041 2.53 4.041 2.53l.01.01V1.12c0-.693-.56-1.25-1.25-1.25H9.367ZM0 6.32v16.42c0 .69.557 1.25 1.25 1.25h12.03l-.01-.02s-4.661-.66-4.87-3.933c-.17-2.75 2.4-5.52 2.44-5.555 -2.07.66-4.418 1.11-5.292 1.1C3.82 15.55.49 15 .48 13.26c0-1.33.91-3.02 2.593-3.11 .262-.02.44.01.64.38 -.613.6-1.081 1.06-1.045 1.91 .05 1.21 1.85 1.55 2.81 1.766 .72.16 2.28.5 4.74-.34 2.49-.85 3.54-1.9 3.52-3.3 -.01-.56-.48-1.46-2.36-2.09 -1.74-.58-2.2-.67-4.27-.633 -1.96.03-1.9.01-3.504-.02C1.79 7.78 1.1 7.41.72 7.23c-.31-.15-.71-.53-.78-.99Zm24 13.12l-.02.01s-.2 1.26-3.314 2.91c-2.064 1.09-5.568 1.625-5.568 1.625l-.01 0h7.648c.69 0 1.25-.56 1.25-1.25v-3.31Z"/></svg>