<svg viewBox="0 0 24 24" xmlns="http://www.w3.org/2000/svg"><path d="M.38 0H.379C.229 0 .1.12.1.27 .1.29.1.31.1.32l2.89 11.71v0c0 .01 0 .02.01.04l2.89 11.7v0c.03.14.18.23.32.19 .04-.02.08-.04.12-.07L23.77 7.11V7.1c.1-.11.1-.28 0-.38 -.04-.04-.08-.06-.12-.08l-5.79-1.67 0 0c-.04-.03-.08-.04-.13-.04L6.32 1.64V1.64c-.05-.03-.1-.05-.15-.04L.39-.07l0-.001C.36-.08.33-.09.31-.08Zm.374.654L5.71 2.08 1.99 5.66Zm5.856 1.68l4.86 1.4 -3.65 3.51Zm-.53.12L7.29 7.38l-4.88-1.4Zm6.28 1.53l4.87 1.4 -3.67 3.53Zm-.52.13l1.2 4.9 -4.853-1.4Zm6.3 1.53l4.94 1.42 -3.72 3.57Zm-.53.12l1.21 4.92 -4.88-1.4Zm-15.44.69l4.96 1.42 -3.73 3.58Zm5.855 1.67l4.87 1.4 -3.66 3.52Zm-.52.13l1.23 5.01 -4.97-1.44Zm6.274 1.53l4.96 1.42 -3.73 3.58Zm-.52.12l1.23 5.01 -4.958-1.43Zm-9.63 2.43l4.87 1.4 -3.66 3.52Zm5.85 1.68l4.86 1.4 -3.65 3.51Zm-.54.04l1.21 4.92 -4.875-1.4Zm-3.9 4.02l5.03 1.44 -3.782 3.63Z"/></svg>