<svg viewBox="0 0 24 24" xmlns="http://www.w3.org/2000/svg"><path d="M17.866 12.281c-.08-.19-.18-.734-.02-1.05 .19.24.4.55.01 1.04Zm-1.49-3.192c-.24.82-.27 2.25-.03 2.85 .64-1.25.11-2.625.02-2.86Zm-1.63 2.4c.05-1.25.05-2.138-.22-2.64 -.23.67-.12 1.388.22 2.64Zm.49 1.2c.42.55.65.25.71-.01 -.54-2.06-.18-3.15.18-4.4 0 0-.01 0-.01-.01 -.02-.02-1.06.4-1.17.44 .83 1.33-.17 2.85.26 3.95Zm5.03-.19c.74-.57.67-1.73.77-2.34v0c-.01 0-.01 0-.01 0s-1.16.44-1.3.49c.59.31.79.95.51 1.84Zm-6.58-.16c.23.52.65.31.82.09 -.24-.47-.3-.67-.41-1.05 -.39.05-.68.36-.42.95Zm4.88.36c.53-.54.81-1.62.83-2.18v-.001c-.01-.01-.01-.01-.01-.01s-1.09.41-1.19.45c.44.46.35 1.01-.05 1.69 .11.14.3.09.4.02Zm2.817-1.72c.05.49-.09.952-.23 1.17 .45.05.75-.71.22-1.18Zm-1.72.36c0 .36-.22.875-.22.875 .46.31.67-.27.22-.875Zm-2.11 1.27c-.4-.73-.27-1.5.08-2.05l-.01-.01 -.5.18h-.001c-.04.62-.22 1.22-.52 1.76 .09.28.79.41.92.09Zm3.31.04c-.55.51-1.1.54-1.66.07 -.3.42-.69.6-1.37.359 -.4.31-1.16.31-1.58-.07 -.42.63-1.08.55-1.5-.1 -.28.516-.78.53-1.19.17 -.37.45-.875.49-1.18.04 -.13.43-.7.69-1.34.34 -.2.36-.84.68-1.54.38 -.93.88-1.69.72-1.67-1.28l-.38-.1s.04 1.27.03 1.42c-.02.45-.38.53-.5.57 -.35.1-.66-.18-.7-.42 -.16-.9-.34-1.93-.38-1.94 -.24-.08-.45 2.15-1.07 2.64 -.68.54-1.12.125-1.6-.18l-.41.43c-.17-.92-.29-1.79-.06-2.628 -.3.07-.74-.06-.8-.27 .21-.3.56-.29.75-.26 .11-.359.13-.8.04-1.26 .617.01.66.48.66.6v0c0 .19-.03.37-.1.55l-.001 0c.2-.11.44-.11.64.01v0c.12.06.2.19.21.33v-.001c-.26.12-.55.17-.83.15 -.46 1.14.27 1.92.9 2.1 .32-2.09.13-4.52.65-5.645 -.01 0-.01 0-.01-.01l-2.04.8v0c-.15.36-.25.73-.3 1.12 -.06.02-1.874.7-1.866.75 .07.36.07.72 0 1.08l-.01 0c-.25.1-.541.17-.742.36 -.17.15.22.29.328.32h0c.09.02.18.03.28.02h0c.04-.01.09-.01.13-.02q-.03.09-.05.18h0c-.06.24-.09.5-.09.75 -.02.56.08 1.13.18 1.68l.56-.23 .1-.04c.14.09.29.17.46.23 .35.11.73-.1 1.062-.23 .45-.18.903-.36 1.35-.54l0 0c.05.09.14.16.23.21 .34.18.96-.19 1.24-.3l.22-.09v-.001c.05.09.14.18.24.24H6.15c.1.05.22.07.33.05v0c.06-.02.12-.03.18-.06 .32-.11.64-.25.96-.38 .51.07.95-.15 1.46-.35l.05-.02c.23.05.44.03.66-.03 .19-.06.38-.14.59-.22 .28.24 1-.12 1.1-.15 .36.27 1.08-.05 1.17-.1 .24.27.56.42.95.29 .2-.08.41-.15.62-.23 .3.15.66.17 1 .09v-.001c.15-.05.3-.09.45-.15 .17.05.35.08.54.07 .31-.02.65-.2.94-.32 .38.3 1.186.06 1.63-.14v0c.44.18.92.23 1.4.14 .13-.03 1.68-.61 2.41-.91 -.6.22-1.31.22-1.96-.13ZM5.14 9.74l-.22 3.02c.31-.5.46-2.34.21-3.03Zm7.72 3.15c.03.13.37.09.41-.11 -.39-.56-.67-1.827.66-2 -.21-1.12-.05-1.95.43-2.74v0c-.01-.01-.01-.01-.01-.01 -.02-.02-2.016.76-2.04.8v0c-.31.49-.48 1.05-.51 1.63 .5-.03.73 1.298 1.032 2.39Zm-6.1.99s.18.27.33.09c.15-.2-.12-2-.12-2.03h-.01c-.09 0-.23.08-.31.11l-.06.02v0c.06.16.1.33.12.5 .05.46.02 1.28.02 1.28Zm1.27-2.05c.4.5.54 1.04.34 1.72 .25.35.44.31.74.02 -.6-.41-.56-1.904.44-2.47v0c-.02 0-.03 0-.04.01 -.25.08-1.59.55-1.98.782 -.01 0-.06.03-.08.04H7.45c.11.01.23.04.35.08Zm3.46 1.18c.13.08.55.03.65-.42 -.21-.69-.26-.95-.36-1.39 -.46.08-.7 1.56-.3 1.8Zm-1.564.36c.17.1.77.15.84-.23 -.21-1.62.49-2.497.94-2.65l-.04.01 -.11.03 -1.84.64c.76.44.8 1.62.19 2.18Zm-.41-.29c.59-.64.35-1.314.07-1.35 -.484.43-.4 1.12-.08 1.35Zm13.07-2.192v0c.01-.01.02-.01.03-.01v-.001c0-.01.01-.02.01-.03 0-.02-.01-.03-.02-.03v-.001c-.02-.01-.03-.01-.04-.01l-.06 0 0 .07Zm1.35-.61c0-.01-.01-.01-.01-.01l-1.11.42v-.001c.12.13.1.34-.03.46 -.14.12-.35.1-.47-.03 -.13-.14-.11-.35.02-.47 .03-.03.07-.06.11-.07l-.56.21v-.001c.03.06.06.12.08.19 .13.38.13.84-.09 1.34 1.46-.07 2.1-1.138 2.01-2.08Zm-1.39.35h-.001c.15-.02.28.09.3.24 .01.15-.1.28-.25.3 -.16.01-.29-.1-.31-.25v0c-.02-.16.09-.29.24-.31Zm-.1.13l.03.3 .05-.01 -.02-.13 .02-.01v-.001c0-.01.01 0 .01 0v-.001s.01.01.01.01l.07.09 .06-.01 -.1-.13v0c0-.01 0-.01 0-.01v0c0-.01.01-.01.02-.02v-.001c.02-.02.03-.05.03-.08v0c-.01-.03-.02-.06-.05-.07v0c-.03-.01-.05-.02-.07-.01Z"/></svg>