<svg viewBox="0 0 24 24" xmlns="http://www.w3.org/2000/svg"><path d="M18.69 12.509h3.39c-.21-.85-.89-1.28-1.65-1.28 -.89 0-1.5.48-1.75 1.27Zm1.74 4.48c-2.24 0-3.68-1.57-3.68-3.65 0-2.03 1.5-3.67 3.69-3.67 2.21 0 3.54 1.532 3.54 3.56 0 .27-.03.62-.03.67h-5.346c.2.88.87 1.46 1.85 1.46 .84 0 1.46-.37 1.85-.94l1.42.87c-.68 1.02-1.76 1.66-3.314 1.66M14.23 13.3h-.001c-.01-1.05-.86-1.89-1.9-1.89 -.01 0-.01 0-.02 0 -1.04 0-1.84.84-1.84 1.88 0 1.05.8 1.88 1.84 1.88 1.09 0 1.9-.84 1.9-1.89Zm-.03 2.95c-.5.38-1.26.61-2.05.61v0c-1.96-.01-3.55-1.61-3.54-3.56 0-.01 0-.01 0-.02 0-2.03 1.62-3.61 3.53-3.61 .79 0 1.55.24 2.04.62V7.38h1.89v9.36h-1.9v-.52m-6.44-6.5h-1.9v7.01h1.89V9.72m-2.93 0v1.69H2.82v2.81c0 .62.28.87.93.87h1.04v1.62H3.61c-1.853 0-2.69-.84-2.69-2.404V11.4H-.09V9.7h0C.46 9.7.92 9.24.92 8.69c0-.01-.01-.01-.01-.01v-.8H2.8v1.8h1.97M7.89 8.02c0 .63-.52 1.14-1.15 1.14 -.63 0-1.15-.52-1.15-1.15 0-.64.51-1.15 1.14-1.15v0c.62-.01 1.13.5 1.14 1.12 0 0 0 .01-.01.01Z"/></svg>