<svg viewBox="0 0 24 24" xmlns="http://www.w3.org/2000/svg"><path d="M7.48 8.483h1.61v0c.08 0 .14.06.15.15v9.706h0c-.01.08-.07.14-.15.15H7.47v0c-.09-.01-.15-.07-.15-.15V8.633c0-.08.07-.15.15-.15Zm3.53-2.98h1.61c.07 0 .15.07.15.15v12.64c0 .07-.08.15-.15.15H11v0c-.09-.01-.15-.07-.15-.15V5.64c0-.08.07-.15.15-.15Zm-5.35 2.97H1.89V5.64v0c-.01-.09-.07-.15-.15-.15H.12v0c-.09 0-.15.06-.15.15v7.787c0 2.74 2.257 5.003 5.003 5.003h.67c.07 0 .15-.08.15-.15v-1.62 0c-.01-.09-.07-.15-.15-.15h-.68v0c-1.71-.01-3.08-1.39-3.09-3.09v-3.09h3.76c.07 0 .15-.08.15-.15V8.56c0-.08-.08-.12-.15-.12Zm16.853 1.46v0c-1.96-1.92-5.09-1.92-7.04 0 -1.96 1.91-1.92 5.07 0 7.03 1.91 1.95 5.07 1.91 7.03 0l-.001-.001c.34-.34.64-.74.86-1.17v0c-.01-.05-.04-.08-.08-.08h-2.07l-.23.07c-1.279 1.12-3.24.97-4.37-.34 -.34-.42-.61-.91-.68-1.43 0-.08.03-.12.11-.12h7.75c.07 0 .15-.08.15-.15v-.31 0c-.01-1.33-.53-2.6-1.47-3.54Zm-.91 2.25h-5.27c-.08 0-.12-.04-.12-.12v-.001c.52-1.02 1.56-1.65 2.7-1.66 1.12 0 2.18.64 2.7 1.65 0 .03 0 .07-.04.11ZM9.37 6.57v0c0 .6-.49 1.09-1.09 1.09v0c-.61 0-1.1-.49-1.1-1.09 -.01-.01-.01-.01-.01-.01v0c-.01-.61.48-1.1 1.08-1.1 0-.01 0-.01 0-.01v0c.6-.01 1.09.48 1.09 1.08 0 0 0 0 0 0Z"/></svg>