<svg viewBox="0 0 24 24" xmlns="http://www.w3.org/2000/svg"><path d="M5.537.76c-1.17.7-2.21 1.58-3.08 2.61l1.33 1.46h-.001c.97-1.23 2.21-2.21 3.62-2.89Zm13.02.08l-2 1.12v0c1.47.71 2.76 1.76 3.76 3.07l1.18-1.654v0c-.85-1-1.84-1.86-2.95-2.54Zm-6.564.75v-.001c-1.43-.01-2.84.3-4.131.91l.59 1.01V3.5c1.11-.51 2.31-.77 3.54-.77 1.26 0 2.45.274 3.53.76l.59-1.012 -.001-.001c-1.3-.6-2.7-.91-4.13-.907Zm-.61 1.93l-.55 6.62h0l-.01.04c0 .11.01.21.03.31 .01.11.04.22.09.34 .11.28.29.5.516.6 .05.04.1.07.15.11v0c.01 0 .02.01.03.02v0l6.68 3.596 .34-.48 -6.058-4.6c-.01 0-.01-.01-.02-.01l-.65-6.58Zm1.423.05c.19.23.36.52.5.85 3.15.6 5.54 3.32 5.54 6.596 0 .87-.18 1.71-.49 2.48v0c.2.23.37.48.52.76l-.001-.001c.49-1.01.75-2.12.75-3.24 0-3.87-2.99-7.05-6.84-7.45Zm-2.29.09c-3.527.66-6.19 3.7-6.19 7.356 0 2.58 1.335 4.86 3.367 6.21h0c.08-.26.18-.5.29-.75 -1.74-1.22-2.88-3.22-2.88-5.47 0-3.06 2.082-5.632 4.93-6.45 .12-.351.28-.66.47-.91Zm9.15 1.67l-.81.89h-.001c1.01 1.38 1.55 3.06 1.55 4.77 0 2.91-1.55 5.48-3.872 6.95 .1.38.18.79.25 1.2 2.87-1.64 4.802-4.68 4.802-8.16h0c0-2.06-.68-4.05-1.93-5.67Zm-15.38 0v0c-1.26 1.62-1.94 3.61-1.93 5.66 0 3.5 1.95 6.56 4.858 8.19 .06-.42.14-.83.24-1.21 -2.36-1.47-3.923-4.05-3.923-6.99 0-1.78.57-3.43 1.54-4.772Zm9.314.04c.04.2.08.41.1.64l0-.001c1.43.47 2.6 1.53 3.21 2.91l.57-.15v0c-.72-1.68-2.15-2.93-3.9-3.41Zm-3.82.18v0c-1.5.57-2.69 1.72-3.32 3.19l.58.14 0-.001c.52-1.19 1.47-2.15 2.66-2.683 .01-.23.04-.45.07-.67ZM6.7 9.628l-.62.63 .31.61 1.72.61 .94-.62 -.32-.923Zm10.61 0l-2.048.32 -.32.923 .94.61 1.73-.62 .31-.62ZM6.06 11.818v0c.23 1.53 1.06 2.91 2.32 3.83 .1-.17.2-.34.31-.5v0c-1.09-.81-1.82-2.01-2.04-3.34Zm11.2 0c-.03.18-.08.35-.12.52 .17.13.33.27.49.41 .09-.31.17-.62.22-.94Zm-15.679.21l-1.63 2.07c.966 3.66 3.638 6.65 7.132 8.11v0c-.04-.35-.06-.69-.05-1.04 0-.375.01-.75.05-1.12 -3.024-1.57-5.17-4.55-5.505-8.05Zm20.707.05c-.36 3.45-2.47 6.39-5.45 7.95 .03.37.05.75.05 1.13 0 .37-.02.71-.05 1 3.5-1.49 6.17-4.53 7.1-8.23Zm-6.55 2.61h0c-.16.14-.32.28-.49.42 .11.15.21.32.31.49 .26-.2.51-.42.74-.66v0c-.2-.08-.39-.17-.58-.26Zm1.5.55v0c-.37.43-.79.82-1.25 1.15 .1.23.2.48.29.74v0c.71-.49 1.34-1.09 1.85-1.78h-.001c-.31-.01-.61-.05-.9-.13Zm-2.99.63l-2.31.91 -2.31-.91 -.59 1.43 2.44.94c-.14.46-.57.79-1.08.79 -.04 0-.07-.01-.11-.01l-.5.68c.18.06.39.09.6.09 .62 0 1.17-.29 1.52-.74h0c.51.65 1.39.91 2.18.62l-.49-.67H13.6c-.57.09-1.11-.26-1.26-.81l2.47-.93Zm1.15 4.77c-1.09.37-2.26.58-3.48.58 -1.17 0-2.29-.19-3.34-.54 .23.88.59 1.65 1.05 2.26 .74.13 1.5.2 2.29.2 .83 0 1.65-.09 2.43-.24 .45-.61.8-1.39 1.03-2.28Z"/></svg>