<svg viewBox="0 0 24 24" xmlns="http://www.w3.org/2000/svg"><path d="M11.91 17.15Zm6.06-16.02v0c-1.8.51-3.37 1.61-4.47 3.11l0-.001c.82-1.54 1.83-2.97 2.99-4.26v0c-1.67 1.1-3.04 2.6-4 4.35l.64-2.55V1.77c-.98 1.64-1.63 3.45-1.9 5.34l1.11.48h-.001c1.57-2.41 3.46-4.59 5.6-6.5Zm.82 13.06c-.82-1.52-2.92-3.01-5.13-4.39 -.51-.3-.61-1.41-.53-1.89l-.51-.24V7.66c-.1.79-.05 1.61.16 2.38 .24.75.99 1.59 1.51 2.79v0c.32.95.56 1.92.72 2.91v0c.3 2.05.11 4.15-.54 6.11v0c-.29.76-.78 1.42-1.43 1.91l-.24.16c4.15.13 8.82-4.63 5.97-9.789Zm-5.4 4.78v0c-.04-.69-.18-1.36-.42-2v0c-.22-.5-.47-.98-.75-1.44v-.001c-.17-.68-.23-1.38-.16-2.07l0-.001c.01.65.12 1.31.32 1.93v0c.25.41.48.85.68 1.29v0c.29.72.49 1.49.58 2.26v0c.02 1.01-.09 2.02-.35 2.99v0c-.1.34-.24.68-.4 1v0c.31-.47.55-.98.7-1.52v0c.39-1.46.51-2.98.36-4.48v0c-.11-.65-.26-1.28-.46-1.89 -.44-1.2-1.07-2.23-1.15-2.47v-.001c-.25-1.11-.38-2.23-.39-3.36V9.2c.03 1.05.17 2.09.44 3.11 .08.24.8 1.37 1.29 2.57v0c.22.55.39 1.13.48 1.72v0c.24 1.73.06 3.5-.53 5.15v0c-.09.28-.21.56-.35.82h-.001c.36-.41.64-.89.8-1.41h-.001c.69-2.66.69-5.46 0-8.109 -.42-1.28-1.41-2.4-1.65-3.17h-.001c-.16-.79-.18-1.6-.08-2.39l-2.15-1c.56 1.44.65 2.55.08 2.99 -2.26 1.86-6 3.99-6 7.1 0 3.31 1.99 6.9 7.04 7.17l-.001-.001c-.58-.15-1.15-.34-1.7-.56v0c-.51-.2-.95-.51-1.31-.9l-.13-.14v0c-.94-1.05-1.62-2.3-2-3.64v0c-.18-.49-.2-1.02-.08-1.52v0c.51-1.72 1.69-3.17 3.27-4h0c.34-.19.67-.39.99-.61 .46-.29.76-1.53 1.07-2.53 -.16.77-.34 2.25-1.06 2.81 -.29.22-.61.43-.93.64 -1.28.87-2.54 1.69-3.17 3.8v0c-.09.45-.07.93.08 1.37h-.001c.38 1.29 1.05 2.49 1.94 3.5 0 0 .13.13.13.16H8.41c.47.62 1.16 1.03 1.93 1.14 -.29-.16-.53-.35-.74-.48h0c-1.23-.79-1.98-2.15-2-3.6H7.6c-.01-1.47.84-2.79 2.17-3.39v0c.87-.52 1.48-1.39 1.67-2.38v0c-.08 1.04-.68 1.98-1.59 2.49v0c-1.19.63-1.98 1.82-2.1 3.16v0c.2 1.32.87 2.52 1.88 3.39h-.001c.47.35 1.01.59 1.58.72h0c-.18-.15-.35-.32-.48-.5h0c-.19-.32-.34-.66-.45-1h-.001c-.15-.32-.24-.66-.27-1v-.001c-.08-.85.15-1.68.64-2.37v0c.42-.36.73-.83.9-1.35v0c-.09.56-.34 1.08-.72 1.5h-.001c-.48.64-.68 1.44-.56 2.23v0c.05.32.15.63.29.93h-.001c.12.35.29.69.51.99 .18.21.26.37.54.48v0c.3-.75.47-1.55.49-2.35v0c.05-.59.05-1.18 0-1.76 -.13-.8-.4-1.6-.4-2.24 .12.58.43 1.37.61 2.2v0c.12.56.16 1.15.11 1.72 0 .56-.08 1-.16 1.48v0c-.07.34-.23.66-.45.92v0c.6-.51.99-1.22 1.1-2v-.001c.22-.77.33-1.57.32-2.36Z"/></svg>