<svg viewBox="0 0 24 24" xmlns="http://www.w3.org/2000/svg"><path d="M8.64 4.73l.03.02 2.94 1.66v0c.2.11.44.11.65 0l2.92-1.65h-.001c.47-.28 1.08-.13 1.35.35 .27.47.12 1.08-.36 1.35l-.04.02 -1.69.952v0c-.16.08-.22.29-.13.44 .02.05.07.09.12.12l4.55 2.57v0c.2.11.44.11.65 0l2.81-1.59v0c.47-.28 1.08-.13 1.36.35 .27.47.12 1.08-.35 1.36l-.04.02 -1.59.89v0c-.16.08-.22.28-.13.44 .03.05.07.09.12.12l1.59.89v0c.47.27.63.88.36 1.35 -.27.45-.84.62-1.31.39l-.04-.02 -2.83-1.6v0c-.21-.12-.45-.12-.65 0l-4.61 2.59v-.001c-.16.08-.22.29-.13.44 .02.05.07.09.12.12l1.9 1.07v0c.47.27.63.88.35 1.35 -.27.44-.83.61-1.3.38l-.04-.02 -3.14-1.77v-.001c-.21-.12-.45-.12-.65 0l-3.17 1.78H8.25c-.48.27-1.09.11-1.36-.36 -.28-.48-.12-1.08.35-1.36l.03-.02 1.93-1.09v0c.15-.09.21-.3.12-.45 -.03-.06-.08-.1-.13-.13l-4.57-2.58v0c-.21-.12-.45-.12-.65 0L1.28 14.62H1.28c-.49.25-1.09.07-1.35-.41 -.25-.46-.1-1.03.33-1.31l.03-.02 1.452-.82H1.74c.15-.09.21-.29.12-.45 -.03-.06-.08-.1-.13-.13l-1.45-.82 -.001 0c-.48-.28-.65-.88-.38-1.36 .26-.46.83-.64 1.31-.4l.03.01 2.68 1.51v0c.2.11.44.11.65 0l4.6-2.596v0c.15-.09.21-.3.12-.45 -.03-.06-.08-.1-.13-.13l-1.72-.97 -.001 0c-.48-.28-.64-.89-.37-1.36 .26-.46.83-.63 1.3-.4Zm2.97 4.32L7 11.64h0c-.17.08-.22.28-.14.44 .03.05.07.1.13.13l4.563 2.57v0c.2.11.44.11.65-.001l4.606-2.6v0c.15-.09.21-.29.12-.45 -.03-.06-.08-.1-.13-.13L12.24 9.02h-.001c-.21-.12-.45-.12-.65 0Z"/></svg>