<svg viewBox="0 0 24 24" xmlns="http://www.w3.org/2000/svg"><path d="M9.32 13.025v0c0 .26-.22.48-.49.48s-.49-.22-.49-.49c0-.45-.17-.76-.41-.76 -.24 0-.41.31-.41.75v0c0 .26-.22.48-.49.48s-.49-.22-.49-.49c-.001-.01-.001-.01 0-.01 0-1.19.71-1.73 1.375-1.73 .66 0 1.37.54 1.37 1.72Zm6.01.48v0c.26 0 .48-.22.48-.49 0-.45.16-.76.4-.76 .23 0 .4.31.4.75v0c-.01.26.21.48.48.48 .26 0 .48-.22.48-.49 0-.01 0-.01 0-.01 0-1.19-.72-1.73-1.375-1.73 -.67 0-1.375.54-1.375 1.72 0 .26.21.48.48.48Zm7.96-4.46l-.2 2.45 -.001-.001c-.02.25-.16.48-.37.62v0c-.14.08-.3.13-.46.13l0 0c-.13-.01-.25-.03-.37-.07 -.28-.11-.55-.2-.82-.29v-.001c.01.53-.02 1.07-.1 1.61 -.04.24-.1.47-.14.7v0c-.01.04-.02.08-.03.125l0-.001c-.24 1.2-.58 2.37-1.04 3.51l.03-.02 .89-.54c.19-.14.59-.13.81.1v0c.14.15.21.36.17.57v0c-.02.05-.03.1-.06.15 -.07.13-.32.7-.87 1.9 -.68 1.48-2.06 1.77-2.13 1.782 0 0-.907.21-1.88.44 -1.36 1.13-2.95 1.71-4.73 1.71 -1.84 0-3.45-.58-4.787-1.72l-1.93-.45c-.05-.01-1.43-.3-2.11-1.78l-.87-1.92c-.01-.02-.05-.16-.06-.18 -.01-.625.621-.92 1.02-.64l.85.51s.07.04.17.08l-.001-.001c-.43-1.12-.76-2.27-.99-3.45 -.07-.32-.129-.63-.19-.96V13.4c-.09-.57-.12-1.14-.09-1.7 -.36.11-.72.24-1.07.37 -.3.1-.593.08-.827-.07V12c-.22-.14-.35-.37-.37-.63L.53 8.9c-.04-.48.3-.97.794-1.16l.3-.12c.22-.09.5-.2.83-.32C3.48 2.95 7.39-.17 11.87-.17c4.51 0 8.43 3.158 9.43 7.549 .47.15.843.28 1.03.35 .49.18.83.67.79 1.15Zm-4.62 8.97c.36-.82.67-1.71.93-2.67l-1 .71v-.001c-.2.13-.43.19-.66.16l-4.47-.47v0c-.4-.05-.72-.32-.83-.7l-.56-1.923v0c-.09-.01-.17-.01-.25 0l-.56 1.93v0c-.11.37-.44.65-.82.69l-4.48.47v0c-.23.02-.46-.04-.65-.17l-.73-.51c.23.88.5 1.7.82 2.45 .609-.03 1.2-.07 1.2-.07s.43-.04.78-.34l1.061-.89c.14-.17.65-.47 1.33-.28 .19.05.49.14.81.24 .06.01.12.05.17.09 .532.44 1.83.44 2.365 0v0c.04-.05.1-.08.16-.1 .33-.11.63-.2.82-.25 .68-.2 1.18.1 1.37.31l1.01.843c.35.29.78.33.78.33 -.01 0 .65.04 1.29.07Zm-6.605 5v0c.66-.01 1.31-.11 1.94-.32 -.94-.21-1.56-1.02-1.59-1.07l-.41-.55 -.41.54c-.04.04-.641.84-1.56 1.06 .63.19 1.295.31 2.01.31Zm6.94-4.02L19 18.994c-.57-.03-1.14-.06-1.71-.09v0c-.5-.05-.96-.25-1.34-.56l-1.07-.89c-.06-.06-.19-.16-.45-.09 -.18.05-.44.13-.72.21 -.88.65-2.567.65-3.45-.01h0c-.24-.08-.48-.15-.71-.22 -.26-.08-.39.03-.42.05l-1.1.91H8.03c-.39.31-.85.5-1.35.55 0 0-.88.05-1.6.08h-.01l-.11 0 0 0c-.48.01-.94-.1-1.35-.35l-.02-.01 .45.99c.46 1.01 1.38 1.22 1.42 1.23 .01 0 2.75.64 3.82.88 .78.17 1.44-.7 1.45-.71l.79-1.061c.18-.25.59-.25.77 0l.79 1.061s.68.88 1.455.7c1.06-.25 3.8-.89 3.8-.89v-.001c.64-.18 1.17-.63 1.44-1.24l.45-1 -.03.01v0c-.4.24-.87.36-1.33.33Zm1.096-7.42l-.001 0c-5.22-1.57-10.77-1.59-16-.08H4.09c-.05.61-.03 1.23.06 1.84 .04.27.1.53.15.8l1.59 1.1 4.46-.48 .64-2.25v0c.05-.19.2-.32.39-.35v0c.37-.06.75-.06 1.13 0v0c.18.02.34.16.39.34l.65 2.24 4.46.46 1.86-1.34c.03-.19.07-.38.11-.57v-.001c.09-.59.11-1.18.07-1.77Zm2.21-2.63c-.01-.04-.08-.14-.17-.17l-.01-.01c-.22-.09-.68-.25-1.26-.43l-.01-.01c-.96-.3-2.78-.83-4.27-.99h0c-.27-.03-.46-.27-.43-.54 .02-.27.26-.46.53-.43 1.19.13 2.529.46 3.63.78C19.23 3.47 15.84.89 11.97.89 8.13.89 4.76 3.43 3.65 7.05L3.65 7.05c1.06-.33 2.16-.57 3.27-.71v0c.26-.04.5.15.54.42 .03.26-.16.5-.43.54H7.03c-1.34.16-2.65.46-3.91.89l-.01 0c-.44.14-.79.28-1.056.39l-.32.12c-.1.03-.17.13-.17.17l.17 2.26 -.001-.001c3.25-1.21 6.69-1.82 10.16-1.82 3.442 0 6.881.6 10.157 1.82l.17-2.28Zm-8.54-5.99h-3.54v0c-.27 0-.49.21-.49.48v.81h0c0 .26.21.48.48.48 .26 0 .48-.22.48-.49V3.9h.74v3.3h-.53v0c-.27 0-.49.21-.49.48 0 .26.21.48.48.48h2.061v0c.26 0 .48-.22.48-.49s-.22-.49-.49-.49c-.01-.001-.01-.001-.01 0h-.57V3.87h.85v.32 0c0 .26.21.48.48.48 .26 0 .48-.22.48-.49v-.82 0c0-.27-.22-.49-.49-.49Z"/></svg>