<svg viewBox="0 0 24 24" xmlns="http://www.w3.org/2000/svg"><path d="M21.14 0H2.846l-.001-.001C1.26-.001-.01 1.26-.02 2.85v18.29H-.02c0 1.57 1.27 2.84 2.85 2.85h18.29v0c1.57-.01 2.84-1.28 2.85-2.86V2.83 2.83c-.01-1.58-1.28-2.85-2.86-2.86ZM10.33 17.287v0c0 .52-.43.95-.96.95h-4v0c-.53 0-.96-.43-.96-.96V5.36h0c-.01-.53.42-.96.95-.96 0-.001 0 0 0 0h4v0c.52 0 .95.42.95.95Zm9.233-5.47v0c0 .52-.42.94-.95.94 -.01 0-.01 0-.02-.01h-4v0c-.53 0-.95-.42-.96-.95 -.01-.01-.01-.01-.01-.01v-6.44 0c-.001-.53.42-.96.95-.96h4v0c.52 0 .95.42.95.95Z"/></svg>