<svg viewBox="0 0 24 24" xmlns="http://www.w3.org/2000/svg"><path d="M11.922 8.43c-1.4.03-2.51 1.21-2.49 2.606v0c0 1.09.72 2.05 1.763 2.39l.25-1.13h0c-.53-.23-.88-.74-.88-1.31 0-.89.81-1.6 1.72-1.4 .56.12.99.58 1.09 1.14v0c.11.65-.24 1.3-.86 1.55l.25 1.12h-.001c1.05-.34 1.76-1.33 1.76-2.43h-.001c0-1.42-1.14-2.57-2.55-2.57 -.03-.01-.06 0-.09 0ZM.18 8.5v0c-.08 0-.14.06-.14.13v.77c0 .07.05.13.136.13h1.016v3.79 0c0 .07.06.13.135.13h.853v0c.07-.01.13-.07.137-.14v-3.8h1.016v0c.07 0 .13-.06.13-.14v-.78 0c-.01-.08-.07-.14-.14-.14Zm4.5 0v0c-.08 0-.14.06-.14.13v4.7c0 .07.05.13.13.13h.84v0c.07-.01.13-.07.13-.14V11.5h.49l.94 1.88v-.001c.02.04.06.06.11.06h.94c.12 0 .17-.12.12-.21l-.98-1.81c.62-.25 1.05-.78 1.05-1.43 0-.85-.7-1.54-1.55-1.54Zm10.35 0c-.11 0-.17.09-.13.18l2.218 4.78v0c.02.04.06.07.12.07h.07c.05 0 .1-.04.12-.08l2.23-4.79c.04-.1-.02-.19-.12-.19h-.95 0c-.06 0-.1.03-.13.07l-1.18 2.59h-.05l-1.18-2.596v0c-.03-.05-.07-.08-.12-.08Zm5.805 0v0c-.08 0-.14.06-.14.13v4.7c0 .07.05.13.13.13h2.94v0c.07-.01.13-.07.13-.14 -.01-.01-.01-.01-.01-.01v-.78l-.001-.001c0-.08-.06-.14-.14-.14 -.01-.01-.01-.01-.01 0h-1.97v-.96h1.62v0c.07 0 .13-.06.13-.14 0-.01 0-.01-.01-.01v-.78 0c-.01-.08-.07-.14-.14-.14h-1.63v-.88h1.97V9.47c.07 0 .13-.06.13-.14 0-.01 0-.01 0-.01v-.78h0c0-.08-.06-.14-.14-.14 -.01-.01-.01-.01-.01-.01ZM5.666 9.51h1.05c.29 0 .53.24.53.54 0 .29-.25.56-.54.56H5.64Zm-5.55 5H.11c-.08-.01-.14.05-.14.13 -.01 0-.01 0-.01 0v.77c0 .07.056.13.135.13H10.68l.23-1.045Zm12.896 0l.23 1.045H23.84v0c.07 0 .13-.06.13-.14 0-.01 0-.01 0-.01v-.78 0c0-.08-.06-.14-.14-.14 -.01-.01-.01-.01-.01 0Z"/></svg>