<svg viewBox="0 0 24 24" xmlns="http://www.w3.org/2000/svg"><path d="M17.69 8.93v0c-.37.05-.62.38-.57.75 .04.32.32.57.66.57v0c.36 0 .66-.3.66-.67 0-.01-.01-.01-.01-.01v0c-.01-.37-.3-.67-.67-.67 -.04 0-.07 0-.1 0Zm-4.4.28v1.12h.75v3.47h-.76v1.12h2.62v-1.13h-.76v-4.6ZM.74 9.33v1.38h-.76v1.12h.75v1.08c0 1.17.95 2.13 2.12 2.13v0c.15 0 .3-.02.46-.06v-1.12H3.31c-.13.04-.26.06-.39.06 -.6 0-1.08-.47-1.08-1.05v-1.08H3.3v-1.13H1.83V9.27Zm20.92 1.26c-1.12-.01-2.02.98-2.02 2.19s.9 2.19 2.01 2.19c.02 0 .05-.01.08-.01 .42-.02.87-.21 1.11-.49v.42h1.12v-4.25h-1.13l-.01.42c-.24-.28-.7-.48-1.12-.49 -.03-.01-.06-.01-.09-.01Zm-14.83.04c-.52 0-.93.15-1.3.65l-.23-.64H4.2v1.12h.51v3.14h1.11v-2.2 0c-.01-.55.43-.99.98-1h.33v-1.1Zm9.65.04v1.11h.75v3.12h1.87v-1.12h-.76l0-3.13Zm-8.27.02v2.21c0 1.17.94 2.13 2.11 2.13s2.11-.96 2.11-2.13v-2.22h-1.12v2.25 0c.02.55-.4 1.02-.95 1.05 -.56.02-1.03-.4-1.06-.95 -.01-.04-.01-.07 0-.11v-2.26Zm13.58.97c.59 0 1.07.5 1.07 1.11 0 .61-.49 1.11-1.08 1.11 -.6 0-1.08-.51-1.08-1.12 -.01-.62.48-1.12 1.07-1.12Z"/></svg>