<svg viewBox="0 0 24 24" xmlns="http://www.w3.org/2000/svg"><path d="M10.705 0C7.54 0 4.902 2.285 4.349 5.291v0c-2.33.21-4.11 2.16-4.11 4.5v0c0 2.49 2.02 4.51 4.52 4.52h6.76v0c.34 0 .625-.28.625-.625 0-.35-.28-.625-.625-.625H4.75h0c-1.81-.01-3.27-1.47-3.27-3.27H1.48c0-1.81 1.47-3.28 3.27-3.27 .64 0 1.28.19 1.82.55v0c.29.18.67.09.86-.2 .17-.28.1-.65-.17-.85v0c-.51-.35-1.08-.58-1.68-.69V5.33c.52-2.4 2.64-4.11 5.09-4.11h-.001c2.62 0 4.84 1.96 5.17 4.57v0c-.17.09-.34.19-.49.3v-.001c-.29.19-.37.58-.18.86s.58.36.86.17c.01-.01.02-.02.03-.03v0c.55-.41 1.22-.62 1.91-.62v0c1.55 0 2.88 1.09 3.2 2.61v0c.06.33.39.55.73.48 .33-.07.55-.4.48-.74l0-.001c-.44-2.1-2.29-3.61-4.43-3.61V5.2c-.33 0-.65.03-.96.1 -.53-3.05-3.18-5.38-6.38-5.38Zm5.19 10.64v0c-.17-.01-.33.03-.47.1v0c-.13.07-.24.16-.32.29h-.001c-.09.13-.15.27-.18.42h-.001c-.04.16-.06.34-.06.51 0 .18.01.35.05.51 .03.16.09.3.17.43h-.001c.07.12.18.22.31.29 .12.07.28.11.46.11s.33-.04.46-.11v0c.12-.08.23-.18.3-.3 .08-.13.13-.27.17-.44 .03-.17.05-.34.05-.52s-.02-.36-.06-.52V11.4c-.04-.16-.09-.3-.18-.43v0c-.08-.13-.19-.22-.31-.3l-.001-.001c-.15-.08-.3-.12-.46-.11Zm6.48 0v0c-.17-.01-.33.03-.47.1v0c-.13.07-.24.16-.32.29v0c-.09.13-.15.27-.18.42v0c-.04.16-.06.34-.06.51 0 .18.01.35.05.51 .03.16.09.3.17.43v-.001c.07.12.18.22.31.29 .12.07.28.11.46.11s.33-.04.46-.11v0c.12-.08.23-.18.31-.3 .07-.13.13-.27.17-.44 .03-.17.05-.34.05-.52s-.02-.36-.06-.52l-.001 0c-.04-.16-.09-.3-.18-.43v0c-.08-.13-.19-.22-.31-.3l-.001-.001c-.15-.08-.31-.12-.47-.11Zm-8.54.06l-.84.61 .31.43 .47-.37v1.87h.6v-2.56Zm6.48 0l-.85.61 .31.43 .47-.37v1.87h.6v-2.56Zm-4.44.44c.08 0 .14.02.19.08 .05.05.08.12.11.21 .02.08.04.17.05.26v0c.01.17.01.35 0 .53 -.01.09-.03.18-.06.27v-.001c-.03.07-.07.14-.12.21v0c-.05.05-.12.08-.2.08h-.001c-.08 0-.15-.03-.2-.09h0c-.06-.07-.1-.14-.12-.21h0c-.03-.09-.05-.18-.06-.27h-.001c-.02-.18-.02-.36 0-.54 .01-.1.02-.19.05-.27l-.001-.001c.02-.08.06-.15.11-.21v0c.04-.06.12-.09.19-.09Zm6.48 0c.08 0 .14.02.19.08 .05.05.08.12.11.21 .02.08.04.17.05.26v0c.01.17.01.35 0 .53 -.01.09-.03.18-.06.27v0c-.03.07-.07.14-.12.21v0c-.05.05-.12.08-.2.08v0c-.08 0-.15-.03-.2-.09h0c-.06-.07-.1-.14-.12-.21v0c-.03-.09-.05-.18-.06-.27v0c-.02-.18-.02-.36 0-.54 .01-.1.02-.19.05-.27v0c.02-.08.06-.15.11-.21v0c.04-.06.12-.09.19-.09Zm-2.2 3.51v0c-.17-.01-.33.03-.47.1v-.001c-.13.07-.24.17-.32.29 -.08.12-.14.26-.18.42v0c-.04.16-.06.34-.06.51 0 .18.01.35.05.51 .03.16.09.3.17.43h0c.07.12.18.22.31.29h0c.14.07.3.11.46.11 .18 0 .33-.04.46-.11v0c.12-.08.23-.18.3-.3v0c.08-.14.14-.28.17-.44 .03-.17.05-.34.05-.52s-.02-.36-.06-.52v0c-.04-.16-.1-.3-.18-.43l0-.001c-.08-.13-.19-.23-.31-.3v0c-.15-.08-.3-.12-.46-.11Zm-6.41.07l-.85.61 .31.43 .47-.37v1.87h.6V14.7Zm2.125 0l-.85.61 .31.43 .47-.37v1.87h.6V14.7Zm2.11 0l-.84.61 .31.43 .47-.37v1.87h.6V14.7Zm2.16.44c.08 0 .14.02.19.08v-.001c.05.06.09.13.11.21 .02.08.04.17.05.26v0c.01.17.01.35 0 .532v0c-.01.09-.03.18-.06.27v0c-.03.07-.07.14-.12.21v0c-.05.05-.12.08-.2.08v0c-.08 0-.15-.03-.2-.09v0c-.06-.07-.1-.14-.12-.21l0-.001c-.03-.09-.05-.18-.06-.27h-.001c-.02-.18-.02-.36 0-.532 .01-.1.02-.19.05-.27v0c.02-.08.06-.15.11-.21v0c.04-.06.12-.09.19-.09Zm-6.73 3.07l-.001-.001c-.12-.01-.24.02-.34.07v0c-.1.05-.17.12-.23.21v0c-.07.09-.11.19-.13.31 -.03.11-.04.24-.04.37s.01.25.04.375h0c.02.11.06.21.12.31v0c.05.08.13.16.22.21 .09.05.2.08.33.08h-.001c.11 0 .23-.03.33-.08l-.001-.001c.09-.06.16-.13.22-.22 .05-.09.1-.2.125-.32v0c.02-.13.04-.25.04-.375 0-.13-.02-.26-.04-.38v0c-.03-.12-.07-.22-.125-.31v0c-.06-.09-.14-.16-.23-.21v0c-.11-.06-.22-.09-.34-.08Zm3.08 0v0c-.12-.01-.24.02-.34.07v0c-.1.05-.17.12-.23.21h0c-.07.09-.11.19-.13.31v0c-.03.12-.05.24-.04.37 0 .13.01.25.04.375h0c.02.11.06.21.12.31 .05.09.13.16.22.21 .09.05.2.08.33.08v0c.11 0 .23-.03.33-.08v0c.09-.06.16-.13.22-.22 .05-.09.1-.2.12-.32v0c.05-.25.05-.51 0-.75v0c-.03-.12-.07-.22-.13-.31v0c-.06-.09-.14-.16-.23-.21v0c-.11-.06-.22-.09-.34-.08Zm5.1 0v0c-.12-.01-.24.02-.34.07v0c-.1.05-.17.12-.23.21v0c-.07.09-.11.19-.13.31 -.03.11-.04.24-.04.37s.01.25.04.375v0c.02.11.06.21.12.31 .05.09.13.16.22.21 .09.05.2.08.33.08s.24-.03.33-.08h-.001c.09-.06.16-.13.22-.22 .05-.09.1-.2.12-.32v0c.02-.13.04-.25.04-.38s-.02-.26-.04-.38v-.001c-.03-.12-.07-.22-.13-.31h-.001c-.06-.09-.14-.16-.23-.21v0c-.11-.06-.22-.09-.34-.08Zm-6.66.05l-.61.44 .22.31 .34-.27v1.36h.43v-1.86Zm3.06 0l-.61.44 .22.31 .34-.27v1.36h.43v-1.86Zm5.1 0l-.62.44 .22.31 .34-.27v1.36h.43v-1.86Zm-9.712.32c.05 0 .1.02.14.06v-.001c.03.04.06.09.08.15v0c.02.06.03.12.04.19v0c.01.12.01.25 0 .38v0c-.01.06-.02.13-.04.19v0c-.02.05-.05.1-.09.15v0c-.04.04-.09.06-.14.06v0c-.06 0-.11-.02-.15-.06h-.001c-.04-.05-.07-.1-.09-.16v0c-.03-.07-.04-.13-.05-.2v0c-.02-.13-.02-.26-.001-.39v0c0-.07.01-.14.04-.2h-.001c.01-.06.04-.11.08-.16v0c.03-.05.08-.07.14-.07Zm3.08 0c.05 0 .1.02.14.06v0c.03.04.06.09.08.15v0c.02.06.03.12.04.19v0c.01.12.01.25 0 .38v0c-.01.06-.02.13-.04.19v0c-.02.05-.05.1-.09.15v0c-.04.04-.09.06-.14.06v0c-.06 0-.11-.02-.15-.06h-.001c-.04-.05-.07-.1-.09-.16v0c-.03-.07-.04-.13-.04-.2v0c-.01-.07-.02-.13-.02-.2 0-.06 0-.13.01-.2v0c0-.07.01-.14.04-.2h-.001c.01-.06.04-.11.08-.16h0c.03-.05.08-.07.14-.07Zm5.1 0c.05 0 .1.02.14.06v0c.03.04.06.09.08.15v0c.02.06.03.12.04.19l0 0c.01.12.01.25-.001.38v0c-.01.06-.02.13-.04.19v0c-.02.05-.05.1-.09.15v0c-.04.04-.09.06-.14.06v0c-.06 0-.11-.02-.15-.06v0c-.04-.05-.07-.1-.09-.16h0c-.03-.07-.04-.14-.04-.2h-.001c-.01-.07-.02-.13-.02-.2 0-.06 0-.13.01-.2v0c0-.07.01-.14.04-.2v0c.01-.06.04-.11.08-.16v-.001c.03-.05.08-.07.14-.07Zm-1.69 1.814v0c-.12-.01-.24.02-.34.07v0c-.1.05-.17.12-.23.21h0c-.07.09-.11.19-.13.31v0c-.06.24-.06.5 0 .74v0c.02.11.06.21.12.31 .05.09.13.16.22.21 .09.05.2.08.33.08v0c.11 0 .23-.03.33-.08v0c.09-.06.16-.13.22-.22 .05-.09.1-.2.12-.32v0c.05-.25.05-.51-.01-.75v0c-.03-.12-.07-.22-.125-.31v0c-.06-.09-.14-.16-.23-.22v0c-.11-.06-.22-.09-.34-.08Zm3.06 0v0c-.12-.01-.24.02-.34.07h0c-.1.05-.17.12-.23.21l-.001-.001c-.07.09-.11.19-.13.31v0c-.06.24-.06.5 0 .74h0c.02.11.06.21.12.31v0c.05.08.13.16.22.21 .09.05.2.08.33.08v0c.11 0 .23-.03.33-.08h-.001c.09-.06.16-.13.22-.22 .05-.09.1-.2.12-.32v0c.05-.25.05-.51 0-.75h0c-.03-.12-.07-.22-.13-.31h0c-.06-.09-.14-.16-.23-.22h-.001c-.11-.06-.22-.09-.34-.08Zm-1.55.05l-.62.44 .22.31 .34-.27v1.36h.43v-1.86Zm-1.52.32c.05 0 .1.02.14.06v0c.03.04.06.09.08.15v0c.02.06.03.12.04.19v0c.01.12.01.25 0 .38v0c-.01.06-.02.13-.04.19v0c-.02.05-.05.1-.09.15v0c-.04.04-.09.06-.14.06l-.001 0c-.06 0-.11-.02-.15-.06v0c-.04-.05-.07-.1-.09-.16v0c-.03-.07-.04-.14-.04-.2v0c-.01-.07-.02-.13-.02-.2 0-.06 0-.13.01-.2h0c0-.07.02-.14.04-.2s.04-.11.08-.16v0c.03-.05.08-.07.14-.07Zm3.06 0c.05 0 .1.02.14.06v0c.03.04.06.09.08.15v0c.02.06.03.12.04.19v0c.01.12.01.25 0 .38v0c-.01.06-.02.13-.04.19v0c-.02.05-.05.1-.09.15v0c-.04.04-.09.06-.14.06v0c-.06 0-.11-.02-.15-.06v0c-.04-.05-.07-.1-.09-.16v0c-.03-.07-.04-.14-.04-.2v0c-.02-.13-.02-.26 0-.39v0c0-.07.01-.14.04-.2 .02-.06.04-.11.08-.16v-.001c.03-.05.08-.07.14-.07Zm-9.713.18v0c-.09-.01-.17.01-.24.05v0c-.07.03-.12.08-.16.14v0c-.05.06-.08.13-.09.21v0c-.02.08-.03.17-.03.25 0 .09 0 .17.02.26l-.001-.001c.01.07.04.14.08.21 .04.06.09.11.15.14v0c.07.03.15.05.23.05 .09 0 .16-.02.23-.06h0c.06-.04.11-.09.15-.15v0c.04-.07.07-.15.08-.22v0c.03-.18.03-.35 0-.52v0c-.02-.08-.05-.15-.09-.22v0c-.04-.07-.1-.12-.16-.15v0c-.08-.04-.15-.06-.23-.06Zm1.05.03l-.43.31 .15.21 .24-.19v.94h.3v-1.29Zm-1.06.22c.04 0 .07.01.09.04h0c.02.03.04.06.05.1v0c.01.04.02.08.02.13 0 .04 0 .09 0 .13 0 .04-.01.08-.01.13h-.001c-.01.04-.02.09-.03.13h0c-.02.03-.04.07-.06.1v0c-.03.02-.06.04-.1.04v0c-.04 0-.08-.02-.1-.05h0c-.03-.04-.05-.07-.06-.11h0c-.02-.05-.03-.09-.03-.14v0c-.01-.09-.01-.18 0-.27l-.001-.001c0-.05.01-.1.02-.14v0c.01-.04.03-.08.06-.11v0c.02-.03.06-.05.09-.05Zm3.77 1.39v0c-.09-.01-.17.01-.24.05v0c-.07.03-.12.08-.16.14v0c-.05.06-.08.13-.09.21v0c-.04.17-.04.34 0 .51v0c.01.07.04.15.08.21h-.001c.03.06.09.11.15.15h0c.07.03.15.05.23.05v0c.08 0 .16-.02.23-.06v0c.06-.04.11-.09.15-.15v0c.04-.07.07-.15.08-.22v0c.03-.18.03-.35 0-.52v0c-.02-.08-.05-.15-.09-.22v0c-.04-.07-.1-.12-.16-.15v0c-.08-.04-.16-.06-.24-.06Zm1.05.03l-.43.31 .15.21 .24-.19v.94h.3v-1.29Zm-1.06.22c.04 0 .07.01.09.04v0c.02.03.04.06.05.1v0c.01.04.02.08.02.13v-.001c0 .08 0 .17 0 .26v0c-.01.04-.02.09-.03.13v0c-.02.03-.04.07-.06.1v0c-.03.02-.07.04-.1.04v0c-.04 0-.08-.02-.1-.05v0c-.03-.04-.05-.07-.06-.11v0c-.02-.05-.03-.1-.03-.14v0c-.01-.09-.01-.18 0-.27v0c0-.05.01-.1.02-.14v0c.01-.04.03-.08.06-.11v0c.02-.03.05-.05.09-.05Z"/></svg>