<svg viewBox="0 0 24 24" xmlns="http://www.w3.org/2000/svg"><path d="M11.909.01C9.832.15 7.88 1.617 7.88 1.617s4.235-1.383 5.42.75c.86 1.552-.14 3.989-1.67 6.6C10.21 7.74 6.42 4.93 2.9 5.92 -1.54 7.17.42 13.16.42 13.16c-.001 0 .02-4.55 2.37-5.04 1.71-.36 3.673 1.36 5.63 3.66 -1.57 1-5.37 3.81-5.526 7.54 -.21 4.69 5.97 4.65 5.97 4.65s-4.23-1.43-3.955-3.87c.19-1.78 2.4-3.15 5.14-4.34 .45 1.83 1.89 6.39 5.31 7.7 4.31 1.64 6.17-4.37 6.17-4.37s-2.63 3.66-4.82 2.64c-1.59-.74-2.189-3.308-2.45-6.343 1.84.12 6.53.13 8.811-2.785 2.86-3.69-2.16-7.353-2.16-7.353s2.59 3.68.97 5.5c-1.18 1.31-3.76 1.1-6.66.41 .68-1.76 2.14-6.31.12-9.423 -.96-1.47-2.25-1.87-3.5-1.78Zm-1.266 2.487c-.55 0-1.1.07-1.56.16 .78.29 1.41.754 1.862 1.36v0c.33.45.55.97.64 1.524 .23-.54.4-1.024.52-1.48v0c.09-.36.02-.74-.19-1.04V3.02c-.22-.31-.56-.5-.93-.53 -.12-.01-.24-.01-.359-.01Zm9.71 4.283c-.04.84-.27 1.6-.7 2.22v0c-.32.45-.74.83-1.22 1.09v0c.37.04.74.06 1.11.06 .14 0 .28-.01.41-.01l0-.001c.36-.03.69-.21.91-.51v0c.21-.31.29-.7.19-1.07 -.17-.657-.46-1.31-.74-1.814Zm-17 2.84v0c-.52 0-.97.32-1.15.8 -.25.62-.38 1.33-.46 1.91 .78-1.02 1.82-1.59 2.967-1.59v-.001c.16 0 .33.01.49.03h0c-.38-.36-.79-.68-1.22-.97h0c-.2-.14-.43-.21-.66-.21Zm12.95 8.54c.12.57.26 1.07.42 1.51v0c.17.47.62.79 1.13.79v0c.23-.01.46-.08.66-.21 .55-.37 1.07-.85 1.46-1.28v0c-.4.11-.81.17-1.22.17v0c-.93 0-1.82-.36-2.48-1.01Zm-8.168.42h0c-.45.25-.88.55-1.28.87h0c-.29.23-.45.58-.45.95v0c-.01.37.16.73.45.98 .51.43 1.12.78 1.64 1.03 -.47-.71-.72-1.46-.73-2.23h-.001c-.01-.56.11-1.12.35-1.62Z"/></svg>