<svg viewBox="0 0 24 24" xmlns="http://www.w3.org/2000/svg"><path d="M15.502 13.035c-.5 0-.76-.42-.76-.92 0-.51.25-.9.75-.9 .51 0 .75.4.75.89 -.01.51-.27.91-.76.91Zm-4.888-1.81c.29 0 .41.17.41.31 0 .35-.37.51-1.13.53 0-.45.25-.86.71-.86Zm-3.25 1.81c-.48 0-.67-.39-.67-.92s.2-.9.67-.9c.47 0 .702.38.702.89 0 .53-.24.91-.702.91Zm-3.997-2.34H2.62l1.22 2.808c-.24.51-.36.64-.53.64 -.18 0-.34-.14-.45-.26l-.33.43c.22.23.52.36.83.36 .387 0 .68-.23.85-.63l1.41-3.38h-.73l-.74 2.01 -.83-2.01Zm19.553.52c.36 0 .43.24.43.82v1.516h.63v-1.92c0-.69-.48-.99-.91-.99 -.39 0-.75.24-.94.68v0c-.1-.41-.47-.7-.9-.69 -.37 0-.73.23-.93.66v-.63h-.64v2.85h.64v-1.22c0-.62.32-1.12.76-1.12 .36 0 .42.24.42.82v1.516h.64l-.01-1.23c0-.62.32-1.12.77-1.12Zm-5.1-.53h-.33v2.85h.63v-1.1c0-.7.3-1.17.76-1.17 .11 0 .21 0 .32.05l.09-.68c-.09-.01-.16-.02-.23-.02 -.45 0-.78.3-.97.7v-.67h-.31Zm-2.327-.05c-.85 0-1.42.64-1.42 1.45 0 .84.58 1.47 1.41 1.47 .85 0 1.43-.65 1.43-1.48 -.01-.82-.6-1.46-1.44-1.46Zm-4.86 2.38c-.34 0-.59-.17-.69-.52 .84-.04 1.67-.25 1.67-.99 0-.43-.43-.88-1.03-.88 -.82 0-1.38.66-1.38 1.45 0 .82.54 1.47 1.36 1.47 .56 0 .92-.23 1.21-.56l-.31-.42c-.33.33-.54.42-.85.42ZM7.48 10.63c-.33 0-.65.18-.774.48v-.44h-.64v3.98h.64v-1.43c.13.2.44.34.72.34 .85 0 1.3-.64 1.3-1.48 -.01-.85-.45-1.47-1.25-1.47Zm-4.49-1.1H-.03v.62h1.18v3.38h.67v-3.38H2.98v-.63Zm9.502 1.14h-.39v.57h.38v2.285h.63V11.24h.62v-.58h-.63v-.45c0-.29.11-.39.38-.39 .1 0 .19.02.31.06l.14-.54c-.12-.07-.36-.1-.51-.1 -.62 0-.98.36-.98 1v.39Z"/></svg>