<svg viewBox="0 0 24 24" xmlns="http://www.w3.org/2000/svg"><path d="M0 2.86v4.99c0 1.88 1.33 3.12 3.08 3.12h0c.8.01 1.58-.31 2.15-.88v.74h1.21v-8H5.21v4.93c0 1.26-.87 2.11-2 2.122 -1.14-.01-2-.84-2-2.122V2.82Zm7.36 0v7.99h1.16v-.74l0-.001c.56.56 1.32.87 2.11.87 1.71.04 3.12-1.33 3.12-3.05 0-1.72-1.42-3.1-3.13-3.05v0c-.8-.01-1.55.31-2.11.87V2.81Zm9.88 2.05c-1.68-.01-3.04 1.34-3.04 3.02 0 1.73 1.37 3.03 3.15 3.03v0c1 .02 1.95-.45 2.55-1.25l-.85-.62v0c-.4.55-1.04.87-1.71.85 -.98.01-1.82-.7-1.971-1.66h4.81V7.9c0-1.734-1.26-3.03-2.97-3.03Zm6.16.06l-.001 0c-.57-.01-1.09.28-1.38.76v-.72h-1.17v5.82h1.17V7.51c0-.91.55-1.49 1.32-1.49h.49V4.94c-.16 0-.32-.01-.46-.01Zm-6.21.94v0c.88-.02 1.66.61 1.83 1.48H15.4v0c.16-.86.91-1.48 1.78-1.49Zm-6.66 0c1.12-.01 2.03.89 2.03 2.02 -.01 1.12-.92 2.02-2.04 2.02v0c-.54-.01-1.05-.22-1.42-.6v-.001c-.38-.38-.59-.89-.59-1.43v0c-.01-.54.2-1.05.58-1.43v0c.37-.38.88-.6 1.41-.61ZM-.02 12.95v7.97H5.7v-1.37H1.52V17.57h4.06V16.26H1.51V14.3h4.17v-1.37Zm14.56.4v1.68h-1.16v1.33h1.15v3.14c0 .79.57 1.42 1.6 1.42h1.64l-.01-1.34h-1.15c-.35 0-.58-.16-.58-.47v-2.77h1.71V15h-1.71V13.31Zm-5.3 1.52C7.5 14.85 6.09 16.27 6.11 18c.01 1.73 1.45 3.11 3.19 3.06v0c.69 0 1.37-.23 1.91-.67v.532h1.51V15h-1.51v.52h0c-.55-.45-1.23-.69-1.93-.69 -.03-.01-.05-.01-.08-.01Zm11.77 0c-1.59 0-2.71.64-2.71 1.88 0 .86.61 1.42 1.936 1.69l1.44.32c.56.1.72.25.72.49 0 .37-.44.6-1.13.6 -.88 0-1.38-.2-1.58-.85h-1.54c.21 1.23 1.15 2.05 3.04 2.05h0c1.75 0 2.74-.82 2.74-1.96 0-.81-.59-1.41-1.81-1.67l-1.3-.27c-.76-.14-.99-.28-.99-.55 0-.36.36-.58 1.02-.58 .72 0 1.25.19 1.4.84h1.51c-.09-1.23-.99-2.05-2.83-2.05ZM9.44 16.12c1 0 1.81.83 1.8 1.84 0 1-.82 1.81-1.83 1.8 -1.01-.01-1.83-.83-1.82-1.84 0-1.01.82-1.83 1.83-1.82Z"/></svg>