<svg viewBox="0 0 24 24" xmlns="http://www.w3.org/2000/svg"><path d="M6.308 7.84h2.79s-1.86 6.639-1.96 6.99c-.18.69-.36 1.31-2.043 1.31 -2.037 0-3.22-.01-3.777 0 -.7 0-1.53-.64-1.3-1.47l1.91-6.85h2.85s-1.6 5.71-1.64 5.857c-.03.14-.19.55.69.56 .64.01.69-.16.8-.57 .26-.93 1.64-5.857 1.64-5.857Zm10.27 0l-.51 1.82H9.97l.5-1.83Zm-8.404 8.314l1.45-5.244h6.086l-.51 1.82h-3.27l-.95 3.42Zm11.47-5.39c-.26.95-.5 1.77-.76 2.73 -.05.17-.17.41-.13.57 .07.36 1.29.22 1.72.22h1.94c-.16.61-.33 1.21-.5 1.81h-4.63c-.68-.07-1.56-.36-1.48-1.23 .02-.28.15-.59.24-.89l0 0c.41-1.49.82-2.98 1.24-4.47 .17-.65.31-1.2.83-1.46 .33-.17.86-.22 1.25-.24h4.6c-.17.6-.34 1.21-.5 1.81h-2.65c-.32 0-.67-.04-.85.08 -.19.14-.3.77-.37 1.03Z"/></svg>