<svg viewBox="0 0 24 24" xmlns="http://www.w3.org/2000/svg"><path d="M12-.001v0c-4.24-.01-8.17 2.23-10.33 5.884l-.83-.83v0c-.2-.2-.52-.2-.71-.01 -.01 0-.01 0-.01 0H.11c-.1.09-.15.22-.15.35v6.58c0 6.62 5.372 12 12 12 6.62 0 12-5.38 12-12V5.38v0c0-.28-.23-.51-.5-.51 -.14-.01-.27.05-.36.14l-.83.82V5.83C20.11 2.18 16.18-.06 11.94-.06Zm-5.19 7.62v0c2.11-.01 4.04 1.19 4.97 3.09v0c-.96 1.08-.9 2.73.13 3.75h-.001c.04.04.12.04.17 0l0 0c1.03-1.02 1.08-2.67.13-3.76v-.001c.99-2.05 3.14-3.27 5.411-3.077 2.7.21 4.87 2.41 5.064 5.11h-.001c.21 3.04-2.08 5.69-5.12 5.9 -2.2.15-4.29-1.01-5.3-2.97v0c-.08-.15-.26-.21-.41-.14 -.06.02-.11.07-.14.13v0c-1.41 2.7-4.75 3.76-7.46 2.35 -1.96-1.02-3.13-3.11-2.97-5.31 .18-2.71 2.363-4.9 5.06-5.113 .14-.02.29-.02.44-.02Zm-.42 1.22h0c-.08 0-.16 0-.24 0 -.02.16-.12.26-.25.38l-.06.05c-.12.11-.34.32-.34.7v0c0 .46.38.84.85.85 .48-.01.88-.39.88-.85 0-.33-.14-.53-.35-.73 -.15-.13-.29-.29-.31-.43v0c-.08-.01-.15-.01-.22-.01Zm11.21 0h-.001c-.08 0-.16 0-.24 0 -.02.16-.12.26-.25.38l-.06.05c-.12.11-.34.32-.34.7v0c0 .46.38.84.85.85 .48-.01.88-.39.88-.85 0-.33-.14-.53-.35-.73 -.15-.13-.29-.28-.31-.42h0c-.08-.01-.15-.01-.22-.02Zm-11.52.01v-.001c-1.81.15-3.2 1.66-3.2 3.48v0c-.01 1.93 1.56 3.49 3.5 3.49 0 0 0-.01 0-.01H6.37c1.93-.01 3.5-1.57 3.5-3.5h0c-.01-1.75-1.3-3.23-3.04-3.46v0c1.29.25 2.13 1.51 1.87 2.81 -.26 1.29-1.52 2.13-2.82 1.87 -1.12-.23-1.92-1.2-1.93-2.34v0c-.01-1.21.89-2.24 2.09-2.39Zm11.81 0v0c1.19.15 2.09 1.17 2.08 2.38v-.001c-.01 1.32-1.09 2.38-2.41 2.37 -1.33-.01-2.39-1.09-2.38-2.41h-.001c0-1.14.8-2.11 1.92-2.33v0c-1.74.23-3.03 1.71-3.03 3.46l-.001-.001c-.01 1.93 1.56 3.49 3.5 3.49 0 0 0-.01 0-.01h0c1.93 0 3.5-1.57 3.5-3.5 0-.01-.01-.01-.01-.01h-.001c-.01-1.82-1.39-3.33-3.2-3.48Z"/></svg>