<svg viewBox="0 0 24 24" xmlns="http://www.w3.org/2000/svg"><path d="M.715 2.18H.714c-.39-.01-.71.29-.72.68 -.01.01-.01.02 0 .03h-.01l.002.02c-.01.3.03.65.123 1.08 .905 5.54 5.875 9.78 11.87 9.78 5.93 0 10.864-4.16 11.84-9.622 .12-.52.17-.93.16-1.28V2.86c.01-.39-.3-.71-.68-.72 -.02-.01-.03-.01-.04-.01ZM11.955 16c-2.97 0-5.432 2.07-5.92 4.81v0c-.06.2-.09.42-.08.63 0 .2.15.35.35.35H17.59v0c.19 0 .35-.15.35-.34 0-.01 0-.02 0-.02h0v-.02l0-.001c0-.19-.02-.37-.07-.54 -.46-2.78-2.94-4.9-5.94-4.9Z"/></svg>