<svg viewBox="0 0 24 24" xmlns="http://www.w3.org/2000/svg"><path d="M15.954 12c-.09.06-.2.14-.33.23 -.83.58-2.03.98-3.58.98h-.11c-1.56 0-2.76-.4-3.58-.99h0c-.11-.08-.22-.16-.33-.24 .09-.07.19-.15.32-.24 .82-.59 2.02-.99 3.58-.99h.1c1.55 0 2.75.4 3.58.98 .12.09.23.16.32.23m8.04-4.82s-.71-.55-2.95-1.37c-1.968-.73-3.46-.883-3.46-.883l0 4.243c0 .59-.17 1.14-.62 1.76 -1.68-.61-3.26-.99-4.99-.99 -1.73 0-3.308.375-4.98.98 -.46-.62-.62-1.17-.62-1.77l0-4.243s-1.5.16-3.463.883C.64 6.57-.07 7.11-.07 7.11c.093 1.92 1.78 3.63 4.43 4.82C1.7 13.1.01 14.81-.08 16.74s.709.54 2.949 1.36c1.968.72 3.45.88 3.45.88l-.01-4.244c0-.6.16-1.15.61-1.77 1.67.61 3.25.98 4.98.98 1.72 0 3.3-.38 4.98-.99 .45.62.62 1.16.62 1.76l-.01 4.244s1.48-.16 3.45-.89c2.24-.83 2.95-1.37 2.95-1.37 -.1-1.93-1.78-3.64-4.44-4.82 2.657-1.19 4.343-2.888 4.43-4.82"/></svg>