<svg viewBox="0 0 24 24" xmlns="http://www.w3.org/2000/svg"><path d="M24 12c0 6.62-5.38 12-12 12C5.37 24 0 18.62 0 12 0 5.37 5.373 0 12 0c6.62 0 12 5.373 12 12ZM12 2.449v0c-5.28 0-9.56 4.27-9.551 9.55 0 2.09.67 4.02 1.811 5.59L17.59 4.24v0c-1.63-1.19-3.59-1.82-5.6-1.82Zm0 19.1v0c5.27 0 9.55-4.28 9.55-9.56 0-2.09-.68-4.03-1.811-5.6L6.39 19.719h0c1.62 1.18 3.58 1.81 5.59 1.81Zm0-2.82l-.001 0c-1.18 0-2.33-.31-3.34-.89l2.32-2.32h0c1.77.51 3.65-.37 4.38-2.06h3.2v0c-.69 3.07-3.43 5.26-6.574 5.26Zm-6.735-6.74l0 0c-.01-3.72 3.01-6.74 6.73-6.74 1.17-.01 2.32.3 3.34.88l-2.32 2.32v0c-1.95-.57-3.99.55-4.55 2.5 -.2.66-.2 1.37 0 2.04l-2.32 2.32v0c-.59-1.02-.89-2.17-.89-3.34Zm13.28-1.6h-2.45l1.74-1.75c.3.54.54 1.12.69 1.74Z"/></svg>