<svg viewBox="0 0 24 24" xmlns="http://www.w3.org/2000/svg"><path d="M11.668 14.54l-.03-5.23c.13-.06.38-.12.6-.12 .99 0 1.41.77 1.41 2.68 0 1.85-.47 2.76-1.44 2.76 -.22 0-.45-.06-.56-.11ZM3.11 7.43C7.31 3.58 12.4 2.56 17.128 2.56c1.3 0 2.54.08 3.76.19h-.03v11.253c0 2.18-.78 3.92-2.3 5.17 -1.36 1.13-5.45 2.95-6.59 3.45 -1.17-.53-5.253-2.378-6.59-3.46 -1.5-1.25-2.3-3.02-2.3-5.18V7.39Zm12.664 2.599c.02.91.27 1.57 1.68 2.4 .74.44 1.05.74 1.05 1.27 0 .58-.39.94-1.03.94 -.56 0-1.189-.31-1.64-.7v1.57c.55.3 1.21.52 1.88.52 1.68 0 2.43-1.189 2.46-2.27 .02-1-.25-1.75-1.66-2.58 -.61-.39-1.14-.64-1.11-1.25 0-.59.52-.81.99-.81 .58 0 1.16.33 1.52.69v-1.5c-.31-.23-.94-.59-1.88-.56 -1.14.02-2.3.82-2.3 2.21ZM9.94 19.51h1.71l-.03-3.6c.16.02.41.08.77.08 1.9 0 2.98-1.69 2.98-4.18 0-2.47-1.11-4.009-3.16-4.009 -.94 0-1.69.22-2.295.6v11.087ZM4 13.34c0 1.79.82 2.71 2.516 2.71 1.05 0 1.9-.25 2.57-.7V7.97H7.4v6.387c-.2.13-.47.22-.81.22 -.78 0-.89-.72-.89-1.189V7.973H3.98v5.364Zm18.11-11.06V14c0 2.516-.94 4.64-2.77 6.11 -1.55 1.3-6.34 3.42-7.36 3.87 -1.03-.45-5.81-2.58-7.36-3.843 -1.8-1.47-2.77-3.6-2.77-6.12V2.26C4.72.71 8.04-.04 11.97-.04c3.926 0 7.244.747 10.12 2.295Zm-.31.22c-2.71-1.47-6-2.184-9.79-2.184 -3.79 0-7.08.746-9.79 2.184V14c0 2.433.91 4.45 2.62 5.86 1.57 1.3 6.58 3.48 7.161 3.76 .58-.25 5.58-2.433 7.16-3.74 1.71-1.41 2.62-3.43 2.62-5.87V2.48ZM19.37 22.802c0 .47-.39.82-.83.82v0c-.46-.01-.83-.38-.83-.83 0-.47.38-.83.82-.83 .44 0 .8.35.82.82Zm-.17 0v0c0-.38-.3-.69-.67-.7 -.36 0-.67.33-.67.69 0 .35.3.66.66.66v0c.36-.01.65-.3.66-.67Zm-.56.05c.02.05.3.44.3.44h-.23s-.28-.39-.28-.42h-.03v.41h-.2v-1l.3-.03c.24 0 .33.16.33.3 0 .13-.09.25-.23.27Zm.02-.28c0-.06 0-.14-.17-.14h-.09v.3h.02c.19 0 .22-.09.22-.17Z"/></svg>