<svg viewBox="0 0 24 24" xmlns="http://www.w3.org/2000/svg"><path d="M20.8 9.94c0 .03.17.49.37.99l.37.92 -.36.91c-.59 1.5-.6 1.362.09 1.33 .56-.03.59-.04.69-.33 .16-.47.23-.48.4-.05l.15.39h.74c.41 0 .73-.03.71-.08 -.28-.56-.84-2.07-.84-2.25 0-.07.15-.52.33-.984 .18-.47.33-.88.33-.91 0-.03-.24-.05-.54-.03 -.52.02-.54.03-.65.36 -.14.39-.25.38-.39-.03 -.11-.31-.11-.31-.78-.33 -.38-.02-.68.01-.68.04Zm-3.25.1c-.15.15-.16.43-.16 1.97 0 1.61.01 1.81.17 1.94 .14.13.39.16 1.41.16 1.62 0 1.53.12 1.53-2.13 0-2.26.09-2.128-1.55-2.128 -1.1 0-1.28.02-1.41.17Zm1.54 2.01c0 .89-.02 1.04-.15 1.01 -.08-.02-.15-.06-.15-.11 .01-.04.01-.5.01-1.02 0-.78.02-.95.14-.95 .11 0 .14.18.14 1.05Zm-5.2-.06v2.12h1.4c1.71 0 1.66.02 1.64-1.125 -.01-.18 0-.57-.06-.75 -.05-.16-.13-.1-.125-.26 -.01-.14.08-.14.12-.26 .05-.16.03-.46.03-.62 .01-.97-.01-1.06-.19-1.16 -.11-.06-.75-.11-1.52-.11h-1.34Zm1.68-.66c-.04.36-.31.36-.34 0 -.04-.28.15-.5.29-.35 .04.04.06.19.04.35Zm.02 1.41c0 .26-.04.33-.19.33s-.19-.07-.19-.27c0-.31.06-.4.25-.4 .07 0 .12.11.12.33Zm-4.95-2.715c-.15.15-.16.43-.16 1.97 0 1.61.01 1.81.17 1.94 .14.13.38.16 1.36.16 1.02 0 1.2-.02 1.33-.17 .14-.15.16-.44.16-1.98 0-1.62-.02-1.82-.17-1.95 -.15-.14-.39-.16-1.362-.16 -1.02 0-1.2.01-1.34.17Zm1.54 2.01c0 .96-.01 1.03-.19 1.03s-.19-.07-.19-1.03c0-.74.03-1.05.12-1.08 .22-.08.25.04.25 1.07ZM7.074 9.99v0c-.01.07-.07.14-.15.14 -.12 0-.14.12-.14.52 0 .39.02.52.14.52 .12 0 .14.21.14 1.35 0 .92.03 1.39.11 1.46 .07.07.51.11 1.32.11 1.62 0 1.6.02 1.57-1.5l-.03-1.11h-1.33l-.03.77c-.02.61-.06.78-.16.78 -.12 0-.15-.18-.15-.95v-.94l.83-.03 .82-.03v-.95c-.56-.02-1.15-.04-1.7-.07 -.06-.02-.08-.13-.09-.16 -.12-.21-1.2-.17-1.2.03Zm-3.69 1.98v2.13l.67-.03 .67-.03 .02-.76 .01-.76 .7-.03c.38-.02.75-.08.82-.14 .17-.14.17-2.26.01-2.42 -.08-.08-.548-.12-1.513-.12h-1.4Zm1.74-.94c.08.21-.02.51-.18.51 -.18 0-.274-.36-.15-.52 .15-.18.24-.18.32.01Zm-5.15.78c-.001 2.45-.12 2.28 1.62 2.28 1.58 0 1.494.15 1.494-2.346V9.81l-.68.03 -.69.02 -.01 1.48c0 1.03-.04 1.52-.12 1.59 -.18.18-.22-.02-.236-1.62l-.03-1.47 -.68-.03 -.69-.03Z"/></svg>