<svg viewBox="0 0 24 24" xmlns="http://www.w3.org/2000/svg"><path d="M18.561 13.158c-1.11 0-2.14-.47-3.074-1.23l.22-1.08 0-.05c.2-1.15.84-3.06 2.83-3.06 1.49 0 2.7 1.21 2.7 2.7 -.01 1.48-1.22 2.702-2.71 2.702Zm0-8.14c-2.54 0-4.51 1.64-5.31 4.366 -1.22-1.84-2.15-4.04-2.69-5.9H7.82v7.11c-.01 1.4-1.141 2.54-2.55 2.548 -1.41-.01-2.543-1.15-2.545-2.548V3.48H-.02v7.112c0 2.91 2.37 5.3 5.28 5.3s5.28-2.39 5.28-5.31v-1.19c.52 1.1 1.18 2.22 1.97 3.221l-1.673 7.87h2.79l1.21-5.71c1.06.67 2.285 1.109 3.686 1.109 3 0 5.439-2.452 5.439-5.45 0-3-2.439-5.44-5.439-5.44Z"/></svg>