<svg viewBox="0 0 24 24" xmlns="http://www.w3.org/2000/svg"><path d="M3.145 4.57L0 19.41h20.855l3.14-14.85H3.14Zm-.16 3.8h9.436c.15 0 5.064 0 5.15.97h-8.5l1.32 4.026c1.51-.73 5.22-2.24 7.455-2.33 .94-.04 1.32.12 1.13.25 -.13.06-1.04.18-1.77.37 -1.26.31-1.33.31-2.65.75 -1.48.5-2.705 1.06-4.53 1.91L.68 18.936l2.26-10.6Zm16.48 1.69c-.54-.1-2.77.06-3.34.06 -.13 0-.48.03-.48-.07 0-.07.12-.07.37-.1 .25-.04 1-.16 1.25-.29 .06-.07.22-.16.31-.26 .03-.07.06-.1.15-.1h1.16c.75 0 1.19.09 1.13.72 -.04.31-.48 1.13-.63 1.38 -.07.09-.19.18-.16 0 .12-.51.59-1.33.18-1.39Zm.88 8.9H2.06c-.001 0 17.363-6.8 17.552-6.92 0 0 1.54-2.08.62-2.93 -.29-.29-.7-.29-2.27-.29 0 0-.07-.6-2.49-1.17 -.29-.07-11.858-2.52-11.858-2.52h19.628l-2.93 13.8Zm2.92-.7c0-.2-.12-.3-.36-.3h-.41v1h.14v-.44h.17l.27.45h.17l-.3-.46c.16-.02.27-.1.27-.28Zm-.46.14h-.17v-.35h.21c.11 0 .22.01.22.16 0 .16-.13.17-.28.17Zm.01-.83v0c-.48-.02-.88.36-.9.84 -.01.01-.01.02-.01.03 0 .5.4.89.89.89 .48 0 .89-.39.89-.9v0c0-.49-.4-.88-.88-.88 -.01-.01-.02 0-.02 0Zm0 1.64c-.43 0-.74-.33-.74-.77 0-.43.32-.75.73-.75 .4 0 .73.32.73.74 0 .43-.33.76-.74.76Z"/></svg>