<svg viewBox="0 0 24 24" xmlns="http://www.w3.org/2000/svg"><path d="M1.16.52C.5.52-.01 1.05-.01 1.714v1.97C-.01 6 1.044 7.157 3.492 7.157h5.43c1.62 0 1.78.68 1.78 1.35 0 .06 0 .13.01.19v0c.04.69.64 1.22 1.34 1.18 .63-.05 1.14-.56 1.18-1.19 0-.07.01-.13.01-.19 0-.67.16-1.35 1.78-1.35h5.43c2.44 0 3.51-1.16 3.51-3.48V1.68c0-.66-.53-1.2-1.19-1.2 -.66 0-1.189.534-1.189 1.19l-.01.68c0 .74-.48 1.27-1.6 1.27h-5.33c-2.43 0-2.61 1.79-2.69 2.748h-.06c-.08-.952-.266-2.748-2.69-2.748H3.87c-1.12 0-1.63-.55-1.63-1.29v-.67c0-.66-.5-1.2-1.16-1.2Zm5.875 10.55v0c-.88 0-1.59.71-1.59 1.58 0 .27.07.54.2.78 1.657 3.06 3.308 6.13 4.96 9.18v0c.31.71 1.14 1.04 1.86.73 .32-.14.57-.4.72-.72l.03-.06 4.94-9.142h0c.43-.77.16-1.74-.6-2.17 -.24-.14-.51-.21-.79-.21 -.71 0-1.18.34-1.51 1.08l-3.39 6.31 -3.39-6.305c-.33-.75-.81-1.09-1.508-1.09Z"/></svg>