<svg viewBox="0 0 24 24" xmlns="http://www.w3.org/2000/svg"><path d="M3 0C1.338 0 0 1.338 0 3v18c0 1.66 1.338 3 3 3h18c1.66 0 3-1.34 3-3V3c0-1.67-1.34-3-3-3H3Zm6.88 6.25c.63 0 1 .3 1.125.9l1.46 8.303c.46-.62.84-1.14 1.14-1.56 .46-.66.89-1.42 1.28-2.28 .4-.86.6-1.62.6-2.295 0-.41-.12-.73-.34-.97 -.21-.26-.61-.577-1.2-.97 .6-.77 1.35-1.15 2.25-1.15 .48 0 .87.14 1.19.42 .33.28.49.7.49 1.26 0 .93-.39 2.09-1.17 3.48 -.77 1.38-2.25 3.45-4.44 6.23l-2.23.15 -1.72-9.63H6.06v-.95c.6-.2 1.3-.41 2.115-.63 .81-.24 1.35-.36 1.64-.36Z"/></svg>