<svg viewBox="0 0 24 24" xmlns="http://www.w3.org/2000/svg"><path d="M0 9.74l1.248 3.87c.1.32.4.53.73.53v0c.33 0 .63-.22.73-.54l1.24-3.88h-.7l-1.19 3.66h0c-.02.04-.06.07-.11.07s-.09-.03-.11-.08L.64 9.7h-.7Zm5.31 0c-.61 0-1.1.49-1.1 1.1v2.2c0 .6.49 1.1 1.09 1.1h2.09v-.67h-2.1v0c-.25 0-.44-.2-.44-.44 -.01-.01-.01-.01 0-.01v-.78h2.09v-.66h-2.1v-.78c0-.25.19-.45.43-.45h2.09v-.67h-2.1Zm3.75 0h-.001c-.55-.01-1 .44-1 .98 -.01 0-.01 0 0 0v3.41h.66v-3.42c0-.19.14-.33.33-.33h1.43v0c.22 0 .43.14.51.35v0c.1.28-.04.6-.32.71 -.01 0-.01 0-.01 0l-1.11.4c-.41.13-.62.57-.48.98l0 0c.06.2.21.36.41.45l2.07.94v-.73l-1.82-.81v0c-.04-.02-.06-.05-.08-.08v0c-.03-.07.01-.15.08-.17 0-.01 0-.01 0-.01l1.13-.4c.62-.24.93-.95.69-1.57 -.19-.49-.65-.78-1.14-.78H8.96Zm3.3 0v4.4h.66V9.73h-.67Zm1.21 0v.66h1.27v3.74h.66v-3.75h1.27v-.67h-3.22Zm4.7 0v0c-.34-.01-.64.21-.74.53l-1.25 3.87h.69l1.18-3.67 0 0c.01-.05.05-.08.1-.08 .04 0 .08.02.1.07l1.18 3.66h.69l-1.25-3.88 0-.001c-.11-.32-.4-.54-.74-.54Zm3.33 0c-.7 0-1.27.56-1.27 1.26 0 .69.56 1.26 1.26 1.26l1.1 0c.33 0 .6.26.6.6h0c0 .33-.28.6-.61.6 -.01 0-.01 0-.01 0h-2.15v.66h2.14c.69 0 1.26-.57 1.26-1.27 0-.7-.57-1.27-1.27-1.27h-1.11v0c-.34 0-.61-.28-.61-.61 -.01-.01-.01-.01 0-.01 0-.34.27-.61.6-.61h2.14v-.67h-2.15Z"/></svg>