<svg viewBox="0 0 24 24" xmlns="http://www.w3.org/2000/svg"><path d="M16.28 13.89c.36.88.54 1.84.54 2.875 0 1.93-.66 3.61-1.98 5.06 -1.32 1.44-3.02 2.16-5.09 2.16 -2.09 0-3.78-.73-5.1-2.17 -1.32-1.45-1.98-3.14-1.98-5.07 0-1.92.62-3.58 1.86-4.98 1.37-1.55 3.1-2.33 5.2-2.33 .88 0 1.7.13 2.45.41 -.25.48-.47 1.06-.53 1.7 -.6-.26-1.25-.38-1.94-.38 -1.46 0-2.71.54-3.75 1.63 -1.05 1.09-1.57 2.41-1.57 3.96 0 .99.23 1.93.71 2.79 .47.86 1.11 1.53 1.92 2 .8.47 1.69.7 2.66.7 .96 0 1.85-.24 2.66-.71 .8-.47 1.45-1.14 1.92-2.01 .83-1.5.96-3.465.29-5.04 .47-.1 1.04-.3 1.65-.67ZM20.37.42L20.35.4c-.76 1.61-2.16 1.91-2.16 1.91 -1.41.36-1.9.89-1.9.89 -1.41 1.41-.3 3.13-.3 3.13 3.03-.7 4.13-3.186 4.13-3.186 -.14 1.68-3.74 3.65-3.74 3.65 1.19 1.17 2.33 1.03 3.08.58 .99-.59 1.47-1.9 1.47-1.9 .96-2.9-.61-5.1-.61-5.1ZM7.01 20.46s.42.07.91.05c0 0 10.32-7.03 7.6-14.32l-.05-.12v0c.03.48-4.49 13.06-8.49 14.37Zm8.38-15.19C15.02 1.39 12.9-.02 12.9-.02c1.48 2.51 2.29 4.76 2.48 5.3 0-.02-.01-.03-.01-.03Z"/></svg>