<svg viewBox="0 0 24 24" xmlns="http://www.w3.org/2000/svg"><path d="M9.112 8.262l-3.15 7.49h-2.05l-1.55-5.99c-.1-.37-.18-.51-.47-.66 -.47-.26-1.24-.49-1.92-.64l.046-.22h3.3v0c.44-.01.82.32.89.76l.81 4.33L7.03 8.23Zm8.033 5.04c0-1.98-2.74-2.09-2.72-2.98 0-.27.26-.56.82-.63v0c.65-.07 1.31.05 1.91.33l.34-1.59v0c-.59-.22-1.2-.34-1.814-.34 -1.92 0-3.266 1.02-3.28 2.47 -.02 1.07.96 1.68 1.69 2.04 .75.36 1.01.6 1 .93 -.01.5-.61.72-1.16.734 -.98.01-1.54-.27-2-.48l-.36 1.64c.45.2 1.28.39 2.15.39 2.03 0 3.37-1.01 3.37-2.564m5.061 2.44h1.79l-1.57-7.496h-1.66v-.001c-.37-.01-.69.21-.83.55l-2.91 6.946h2.03l.4-1.12h2.48Zm-2.17-2.66l1.02-2.82 .58 2.81Zm-8.16-4.84l-1.61 7.496h-1.94l1.6-7.496Z"/></svg>