<svg viewBox="0 0 24 24" xmlns="http://www.w3.org/2000/svg"><path d="M8.286 10.578l.51-8.657v0c0-.14.1-.26.24-.29l8.33-1.64V-.01c.16-.04.32.07.35.24 0 .04 0 .09-.01.14l-1.56 5.4v0c-.05.16.04.33.2.37 .04.01.09.01.14 0l2.38-.46v0c.16-.04.32.07.35.24 .01.06 0 .13-.03.19l-6.79 13.55 -.13.19v0c-.06.08-.15.14-.26.14 -.18 0-.35-.16-.31-.37l1.09-5.31v0c.03-.17-.08-.33-.24-.37 -.05-.02-.11-.01-.16 0l-1.44.43v0c-.17.04-.34-.05-.39-.21 -.02-.05-.02-.11-.01-.16l.69-3.375v0c.03-.17-.08-.33-.24-.37 -.05-.01-.09-.01-.14 0l-2.32.53H8.53c-.17.03-.33-.07-.37-.23 -.01-.03-.01-.06-.01-.09ZM23.262 2.65l-5.98 1.08 -.55 1.88 2.07-.4v0c.32-.07.66.08.84.36v0c.14.23.16.53.03.78l-6.8 13.551 -.02.02 -.02.02 -.13.19v0c-.15.22-.4.36-.68.37v0c-.25-.01-.48-.12-.64-.31v0c-.16-.19-.22-.44-.16-.67l1.029-4.99 -1.12.34v0c-.32.09-.66-.01-.86-.27v-.001c-.16-.19-.22-.44-.17-.67l.63-3.08 -2.03.46v0c-.28.06-.58-.03-.77-.24v0c-.16-.17-.23-.38-.22-.6l.38-6.57L.65 2.57h0c-.34-.07-.66.16-.72.49 -.03.14-.01.28.07.41L11.48 23.609h-.001c.16.29.54.39.83.22 .09-.06.17-.14.23-.24L23.8 3.44V3.44c.16-.3.05-.67-.24-.84 -.13-.07-.27-.1-.41-.07Z"/></svg>