<svg viewBox="0 0 24 24" xmlns="http://www.w3.org/2000/svg"><path d="M9.489 0l.72-.003h3.564L14.5 0l.91.01 .43 0 .41.011 .4.01 .38.016 .37.02 .36.02 .34.03 .33.033c1.74.19 2.933.616 3.83 1.51 .9.9 1.32 2.09 1.51 3.83l.03.33 .02.34 .02.36 .02.37 .02.58 .01.41 .01.64 0 .91 0 .98 -.01 3.31 -.01.73 -.01.91 -.01.43 -.02.41 -.02.4 -.02.38 -.03.37 -.03.36 -.03.34 -.04.33c-.2 1.74-.62 2.933-1.52 3.83 -.9.9-2.1 1.32-3.84 1.51l-.34.03 -.35.02 -.36.02 -.38.02 -.59.02 -.41.01 -.65.01 -.92 0 -.98 0 -3.32-.01 -.73-.01 -.92-.01 -.44-.01 -.42-.02 -.41-.02 -.39-.02 -.38-.03 -.36-.03 -.35-.03 -.34-.04c-1.74-.2-2.933-.62-3.84-1.52 -.9-.9-1.32-2.1-1.52-3.84l-.04-.34 -.03-.35 -.03-.36 -.02-.38 -.025-.59 -.02-.41 -.02-.65 -.009-.92 -.004-.98 .001-3.32 .003-.73 .01-.92 0-.44 .01-.42 .01-.41 .016-.39 .02-.38 .02-.36 .03-.35 .033-.34C.05 3.48.48 2.28 1.38 1.38 2.28.48 3.47.06 5.21-.14l.33-.04 .34-.03 .36-.03 .37-.02 .58-.025L7.6-.3l.64-.02 .91-.01Zm-2.7 7.29h-2.74c.13 6.24 3.25 9.99 8.72 9.99h.31v-3.57c2.01.2 3.53 1.67 4.14 3.57h2.84c-.78-2.84-2.83-4.41-4.11-5.01 1.28-.74 3.08-2.54 3.51-4.98h-2.58c-.56 1.98-2.22 3.78-3.8 3.95V7.29h-2.58v6.92c-1.6-.4-3.62-2.34-3.71-6.92Z"/></svg>