<svg viewBox="0 0 24 24" xmlns="http://www.w3.org/2000/svg"><path d="M.5 10.1v0c-.07 0-.14.01-.197.04h0c-.26.1-.38.39-.27.65 0 0 0 .01.01.02l1.13 2.47c.17.38.38.59.72.59 .34 0 .54-.22.72-.6l1-2.186H3.61c.02-.06.08-.1.14-.1v0c.08 0 .15.07.15.16v2.11h-.001c-.03.29.19.55.48.57 .29.02.55-.2.57-.49 0-.04 0-.07 0-.1v-1.73H4.95c-.02-.3.21-.55.5-.56 .01-.01.03-.01.05 0h-.001c.28-.02.52.21.54.49 0 .01 0 .03-.01.05v1.73h-.001c-.04.29.17.55.46.58 .02 0 .04 0 .06 0v0c.29-.01.53-.25.53-.55 -.01-.02-.01-.04-.01-.06v-1.73H7.06c-.02-.3.21-.55.5-.56 .01-.01.03-.01.05 0v0c.28-.02.53.2.54.49 0 .01 0 .03-.01.05v1.73 0c-.04.29.17.55.46.58 .02 0 .04 0 .06 0v0c.29 0 .53-.24.53-.54 0-.03-.01-.05-.01-.07v-1.97l-.001-.001c-.01-.69-.56-1.24-1.24-1.24 -.02 0-.04 0-.05 0H7.89c-.43 0-.84.18-1.14.48v0c-.27-.34-.68-.52-1.1-.49v0c-.41.03-.78.2-1.08.48l-.001-.001c-.24-.3-.59-.47-.97-.49V9.9c-.52-.03-.99.29-1.16.78l-.73 1.71 -.933-2.21 .01-.01h0c-.09-.2-.28-.31-.49-.31Zm18.43.06v0c-.15 0-.27.12-.27.27 0 0 0 0 0 0h0v3.14h0c-.03.14.08.28.23.3 .14.02.28-.09.3-.24 0-.03 0-.05 0-.08v-1.23c0-1.04.57-1.56 1.27-1.65v0c.13-.02.24-.14.23-.28v0c0-.15-.11-.27-.25-.27 -.01-.01-.02-.01-.02-.01v0c-.55.03-1.03.37-1.25.88v-.62 -.001c0-.15-.12-.27-.26-.28 -.01-.01-.01-.01-.02-.01Zm-6.74 0v-.001c-.13 0-.23.09-.25.21l-.92 2.62 -.91-2.62v0c-.03-.13-.15-.23-.28-.22v0c-.15-.01-.27.11-.27.25v0c0 .04.01.09.03.14l1.09 3.03 .02-.01v0c.03.13.15.23.29.24v0c.14-.01.26-.11.29-.25l.9-2.583 .89 2.583v0c.02.14.15.24.29.24h.01v0c.14-.01.25-.11.29-.25l1.09-3.04h0c.01-.05.02-.1.03-.15v0c-.01-.15-.13-.26-.27-.25v0c-.13-.01-.24.08-.26.2l-.92 2.63 -.91-2.63v0c-.04-.13-.15-.22-.28-.22h-.03v0c-.01-.01-.01-.01-.02 0Zm10.168 0v0c-.97.03-1.73.83-1.7 1.8 0 .01 0 .03 0 .04v0c-.06.97.69 1.8 1.66 1.85 .03 0 .06 0 .09 0l-.01.01v0c.49.01.98-.19 1.33-.54v0c.05-.05.08-.11.08-.17l-.001 0c-.01-.13-.11-.23-.24-.23 -.06 0-.11.02-.15.05v0c-.28.26-.64.41-1.02.41v0c-.68 0-1.23-.54-1.24-1.21h2.55 0c.13-.01.24-.12.24-.25 0-.95-.6-1.81-1.64-1.81Zm-5.744 0v0c-.06-.01-.11 0-.16 0v0c-.38-.02-.74.05-1.08.2h-.001c-.1.03-.15.12-.15.22v0c0 .12.1.22.23.22v0c.03-.01.06-.02.09-.03v0c.26-.12.54-.18.83-.17 .69 0 1.07.33 1.07.97v.125 0c-.36-.11-.73-.16-1.11-.15 -.9 0-1.52.4-1.52 1.16l-.01-.01c0 .73.67 1.11 1.34 1.11v0c.5.01.99-.22 1.29-.62v.34 0c-.01.13.1.24.24.25 0 0 0 0 .01-.01v0c.14 0 .25-.11.25-.25 0-.01 0-.01-.01-.02V11.5v0c.02-.39-.12-.77-.38-1.05v0c-.28-.25-.64-.38-1-.39Zm5.71.43c.71 0 1.08.56 1.13 1.21h-2.28v-.001c0-.65.49-1.18 1.13-1.22Zm-5.89 1.38v0c.35 0 .71.05 1.05.15v.34c0 .57-.54.97-1.2.97 -.49 0-.91-.27-.91-.72 0-.47.375-.76 1.04-.76Z"/></svg>