<svg viewBox="0 0 24 24" xmlns="http://www.w3.org/2000/svg"><path d="M11.269 11.225h-.53v-.35h2.07v.34h-.516v1.55h.47c.44 0 .734-.3.734-.69h.34v1.03h-3.11v-.35h.52Zm2.53 0h-.52v-.35h2.24v.34h-.55l.75 1.38 .74-1.39h-.45v-.35h1.55v.34h-.52l-1.03 1.9 -1.21-.01Zm5.18-.4c1.04 0 1.6.52 1.6 1.17 0 .66-.53 1.18-1.6 1.18s-1.6-.53-1.6-1.19c0-.66.55-1.17 1.593-1.17ZM5.77 12.59l.74-1.39h-.45v-.35H7.6v.34h-.52l-1.03 1.9 -1.21-.01 -1.045-1.9h-.52v-.35h2.247v.34h-.55Zm3.237-1.78c1.04 0 1.6.52 1.6 1.17 0 .66-.53 1.18-1.6 1.18s-1.6-.53-1.6-1.19c0-.66.55-1.17 1.593-1.17Zm-.56 1.157c0-.44.21-.81.57-.81 .35 0 .54.39.53.82 -.01.4-.18.83-.57.82 -.38-.01-.55-.43-.54-.85Zm9.96 0c0-.44.21-.81.57-.81 .35 0 .54.39.53.82 -.01.4-.18.83-.57.82 -.38-.01-.55-.43-.54-.85ZM3.2 9.802c.97-3.95 4.53-6.87 8.77-6.87 4.24-.001 7.802 2.92 8.77 6.866Zm17.548 4.34c-.98 3.942-4.54 6.866-8.774 6.866 -4.243 0-7.802-2.93-8.774-6.866Zm.84-9.341l.56-.57c.4.532.76 1.096 1.08 1.68h.44V.24H18v.44c.58.31 1.15.68 1.67 1.082l-.57.56v0C17.03.77 14.51-.07 11.93-.06c-6.627 0-12 5.37-12 12 0 6.62 5.373 12 12 12 6.62 0 12-5.38 12-12 0-2.69-.89-5.17-2.38-7.17Z"/></svg>