<svg viewBox="0 0 24 24" xmlns="http://www.w3.org/2000/svg"><path d="M22.2 1.79H4.27c-1.39 0-2.28 1.46-1.63 2.69l1.79 3.37H1.18h0c-.21 0-.41.05-.59.15v0c-.18.1-.33.24-.44.42h0c-.22.35-.23.79-.04 1.16L5.87 20.43c.1.19.25.35.43.46H6.3c.37.22.85.22 1.23 0v0c.18-.12.33-.28.43-.47l1.56-2.933 1.96 3.7c.69 1.3 2.56 1.3 3.25 0l8.98-16.82c.63-1.19-.24-2.63-1.59-2.63Zm-8.06 7.18l-3.88 7.25h0c-.07.12-.17.23-.3.3v0c-.26.15-.57.15-.82 0v0c-.13-.08-.23-.19-.3-.31L5 8.98v0c-.14-.25-.13-.55.02-.78H5.01c.07-.12.17-.22.28-.29v0c.11-.07.25-.11.39-.11h7.73l0-.001c.13-.01.26.03.38.09l-.001 0c.11.06.21.15.28.27h0c.13.23.14.51.02.75Z"/></svg>