<svg viewBox="0 0 24 24" xmlns="http://www.w3.org/2000/svg"><path d="M7.24 9.87c-.48 0-.71.05-.95.14l-.05.01 .26.47 .03-.02c.18-.08.38-.11.75-.11h.4c.58 0 .91.29.91.8v1.57c0 .51-.34.8-.92.8h-.66c-.61 0-.9-.25-.9-.75s.29-.74.89-.74h.91v-.53h-.94c-.89 0-1.41.46-1.41 1.26 0 .78.53 1.26 1.4 1.26h.7c.98 0 1.43-.66 1.43-1.27v-1.72c0-.61-.46-1.27-1.44-1.27Zm2.53 1.26c0-.61.45-1.27 1.43-1.27h.61c.5 0 .82.07 1.08.25l.03.01 -.31.44 -.04-.02c-.21-.12-.45-.17-.86-.17h-.52c-.6 0-.92.28-.92.8v1.57c0 .51.32.8.91.8h.51c.41 0 .66-.05.85-.17l.03-.02 .3.44 -.04.02c-.27.16-.6.24-1.1.24h-.61c-.99 0-1.44-.66-1.44-1.27Zm6.54 1.65c0 .51-.34.8-.92.8h-.66c-.6 0-.92-.29-.92-.81v-1.58c0-.52.33-.81.91-.81h.65c.58 0 .91.29.91.8Zm-.91-2.91h-.7c-.99 0-1.44.65-1.44 1.26v1.71c0 .6.45 1.26 1.43 1.26h.7c.98 0 1.43-.66 1.43-1.27v-1.72c0-.61-.45-1.27-1.44-1.27Zm3.46.01c.56 0 .907.13 1.16.47 .26-.34.6-.48 1.16-.48 .84 0 1.39.48 1.39 1.22v2.98h-.54v-2.93c0-.52-.3-.77-.89-.77 -.57 0-.88.25-.88.71v2.971h-.54v-2.98c0-.47-.32-.72-.88-.72 -.61 0-.89.25-.89.76v2.92h-.54v-2.99c0-.75.55-1.23 1.4-1.23Zm4.69.25c.04 0 .07 0 .09.01 .02.01.03.03.02.06 0 .03-.02.05-.05.06 -.02.01-.05.01-.08.01h-.07v-.17Zm.13-.04c-.04-.02-.07-.02-.13-.02l-.16-.01v.45h.08v-.18h.06c.04 0 .06 0 .08.01 .03.01.04.05.04.1v.06h.07v-.01c-.01-.01-.01-.02-.01-.03v-.07c0-.03-.01-.05-.03-.07 -.02-.03-.04-.04-.08-.05 .02 0 .05-.01.06-.02 .03-.02.04-.05.04-.09 0-.06-.03-.1-.07-.12Zm-.47.2c0-.1.03-.19.1-.26 .06-.07.15-.1.25-.11 .1 0 .18.03.25.1 .06.06.1.15.1.25s-.04.18-.11.25c-.07.06-.16.1-.26.1s-.19-.04-.26-.11 -.1-.15-.1-.25Zm.35.4c.11 0 .2-.04.28-.12 .08-.08.11-.18.11-.3s-.04-.21-.12-.29c-.08-.09-.18-.12-.29-.12 -.12 0-.21.03-.29.11 -.09.08-.12.17-.12.28 0 .11.03.21.11.29 .07.08.17.11.28.11ZM4.56 12.78V9.85l.53-.01v2.99c-.01.74-.56 1.22-1.41 1.22 -.57 0-.907-.14-1.17-.48 -.27.33-.61.47-1.17.47 -.85 0-1.4-.49-1.4-1.23V9.82l.53 0v2.92c0 .51.29.76.88.76 .56 0 .87-.26.87-.72V9.809h.53v2.971c0 .46.31.71.87.71 .6 0 .88-.26.88-.77Z"/></svg>