<svg viewBox="0 0 24 24" xmlns="http://www.w3.org/2000/svg"><path d="M16.18 0c-2.641 0-4.11 1.96-4.74 3.31L4 16.97l2.09-.4 -3.86 7.41 2.68-.49 2.04-5.84c5.81 0 13.27-2.09 12.23-9.91 0 0-.64-3.151-4.75-2.31 -.42-1.43-.35-2.48.56-3.44 1.24-1.32 3.18-.6 3.18-.6l0-1.09c-.68-.3-1.34-.36-2.06-.36Zm2.41 2.52v0c-.28 0-.5.22-.5.49s.22.49.49.49v0c.27 0 .49-.23.49-.5 0-.28-.23-.5-.5-.5Zm1.5 1.029l-1.3 1.57h2.92Zm-3.73 4.79l.3.01 -.05.55 -.04.28c-.02.1-.03.21-.06.33l-.08.38 -.11.41c-.05.14-.1.29-.15.44h0c-.06.15-.13.31-.19.46l-.12.23 -.06.12 -.07.11 -.14.23c-.06.07-.11.15-.16.23l-.08.11 -.09.11c-.06.07-.12.15-.18.23 -.13.14-.25.29-.4.43 -.14.14-.29.27-.44.4l-.24.19c-.08.06-.16.12-.24.18 -.33.23-.67.44-1.01.62 -.35.18-.7.34-1.05.47 -.35.13-.69.25-1.02.35 -.33.1-.64.18-.93.25 -.58.14-1.061.23-1.41.3l-.54.1 .53-.12c.33-.08.81-.19 1.391-.34 .28-.08.59-.17.91-.28 .32-.11.65-.24.99-.38 .34-.15.68-.31 1.02-.5 .33-.19.66-.41.97-.64 .07-.07.15-.12.22-.19l.22-.2c.14-.14.28-.27.41-.41 .13-.14.24-.29.36-.44 .05-.08.1-.16.16-.23l.08-.12 .07-.12 .14-.24 .12-.24 .06-.12 .05-.12 .1-.24c.06-.16.11-.31.16-.46 .04-.16.09-.3.12-.44l.09-.41 .06-.38c.02-.12.03-.23.04-.33 .01-.11.02-.2.02-.29l.02-.54Z"/></svg>