<svg viewBox="0 0 24 24" xmlns="http://www.w3.org/2000/svg"><path d="M20.376 0c-.05-.01-.1.01-.14.05 -.11.08-1 .29-1.529.7 -.86.66-1.39 1.94-1.63 2.64l-.001-.001c-.02.04-.04.09-.05.14 -.12.26-.34.26-.34.26v0c-.11-.02-.22-.02-.33-.02 -.1 0-.2 0-.3.01 -.01 0-.01-.01-.01 0 -.29.04-.45-.31-.48-.39 -.34-.96-1.23-2.84-3.24-3.34 0 0-.37-.28-.26.19 .1.45.32.9.27 1.57 -.03.3-.22 1.877 1.23 2.69 .13.07.26.14.36.19 -.73.58-1.39 1.39-1.96 2.3 .28-.18 1.83-1 4.33.03 2.56 1.06 4.16.13 4.35.01 -.63-1.03-1.36-1.91-2.18-2.51 .05-.02.1-.03.16-.05 1.08-.32 1.35-1.24 1.41-2.02 .06-.9.1-.91.3-1.71 .13-.58.05-.81-.08-.83Zm-7.18 9.02c-.23 0-.42.06-.56.18 -.15.12-.22.27-.22.44v2.84c0 .35.03.69.1 1 .07.31.19.59.36.82 .17.23.41.41.702.54 .28.12.64.19 1.07.19 .44 0 .81-.09 1.09-.25 .24-.14.44-.32.6-.53 .15.21.35.39.59.53 .28.16.65.24 1.11.24 .42 0 .78-.07 1.06-.2 .28-.14.52-.32.69-.55 .17-.24.29-.51.36-.83 .06-.31.1-.65.1-1.01V9.58c0-.17-.07-.32-.22-.44 -.14-.13-.33-.19-.57-.19 -.22 0-.39.06-.53.18s-.21.27-.21.43v2.88c0 .38-.07.67-.21.84 -.14.17-.35.25-.64.25 -.31 0-.52-.09-.64-.26 -.13-.18-.2-.47-.2-.86v-2.9c0-.2-.09-.36-.26-.47 -.24-.15-.47-.2-.75-.11v0c-.09.02-.17.06-.25.1v0c-.08.04-.15.1-.2.17 -.06.07-.09.16-.09.25v2.93c0 .38-.07.67-.2.85 -.13.16-.34.25-.64.25 -.31 0-.52-.09-.65-.26 -.14-.18-.2-.47-.2-.85V9.48c0-.17-.07-.32-.21-.44 -.14-.13-.32-.19-.54-.19Zm-3.06 5.77h-.001c.07.35.19.69.33 1.03 .11.67.28 2.25-.49 3.64 -.68 1.22-3.99 2.88-8.9 1.93 -.001 0-.2-.14-.26-.03 -.09.16.27.3.64.4 3.42.9 8.583.53 10.2-.8 .73-.61 1.02-1.43 1.09-2.311 0 0 .01-.24.3-.06 .08.04.38.24.43.46 .04.31.04.69-.12.96 -.24.38-.24.44.07.65 .18.13.95.69 2.01 1.33 0 0 0 0 0 0 .22.13.53.46.53.46 .47.55 1.51 1.66 1.971 1.45 .21-.1-.01-.55-.01-.55s.35.46.54.3c.14-.12-.09-.59-.09-.59s.3.26.49.17c.22-.13-.04-.83-1.82-1.92 -1.78-1.09-2.27-1.25-2.31-1.74 0 0-.01-.03 0-.07 .01-.11.07-.34.33-.31v0c.39.06.79.09 1.18.09v0c.45 0 .9-.05 1.35-.13 0 0 .02-.01.02-.01 .05-.01.15-.01.15.12 -.02.15-.07.31-.16.45 -.26.38-.18.44.09.69 .16.15.93.83 1.99 1.48 0 0 0 0 0 0 .22.13.61.5.61.5 .43.44 1.23 1.18 1.67 1.14 .29-.04.05-.54.05-.54s.37.36.55.25c.2-.12-.09-.5-.09-.5s.24.12.41.08c.17-.05.21-.48-1.56-1.58s-2.37-1.49-2.33-1.91c0 0 0-.07.01-.18 .04-.23.17-.61.61-.82v0c.01-.01.02-.02.03-.03 1.37-.8 2.38-2.09 2.74-3.7 -.36.88-3.01 1.57-6.23 1.57 -3.218 0-5.87-.69-6.23-1.58Z"/></svg>