<svg viewBox="0 0 24 24" xmlns="http://www.w3.org/2000/svg"><path d="M21.41 9.1c-.23 0-.4.12-.4.27l.13 1.51c.01.09.12.16.26.16 .13-.01.24-.08.26-.17l.13-1.52c0-.15-.18-.28-.4-.28ZM-.01 10.31s.59 2.44.69 2.84c.11.46.31.63.88.51l.37-1.52c.09-.38.15-.65.21-1.03h.01c.04.38.1.65.18 1.03 0 0 .15.68.22 1.05 .07.36.29.58.86.46l.88-3.37h-.72l-.31 1.45c-.09.42-.16.75-.22 1.14h-.02c-.06-.39-.12-.71-.21-1.12l-.32-1.49h-.75L1.4 11.7c-.1.43-.19.79-.25 1.16h-.02c-.06-.36-.14-.8-.23-1.23 0 0-.21-1.04-.28-1.39Zm6.83 0v3.36h.68V10.3Zm9.61 0v2.48c0 .34.06.58.2.72 .12.12.31.21.55.21 .2 0 .4-.04.49-.08l-.01-.54c-.07.01-.15.03-.26.03 -.24 0-.32-.15-.32-.46v-.95h.59v-.65h-.6v-.8Zm2.77 0c-.12 0-.25.08-.33.23 -.12.19-.1.4.03.47l1.37.64c.08.03.2-.03.27-.15 .06-.12.06-.25-.01-.31l-1.25-.88c-.04-.02-.07-.03-.11-.03Zm4.36 0c-.04-.01-.08 0-.11.02l-1.25.87c-.08.05-.08.19-.01.3 0 0 0 0 0 0s0 0 0 0c.06.11.18.17.27.14l1.38-.65c.12-.08.14-.29.03-.48 -.09-.15-.22-.24-.33-.24Zm-18.29.77c-.43 0-.77.11-.95.22l.13.46c.16-.11.43-.2.68-.2 .41-.01.48.23.48.39v.03c-.92-.01-1.5.31-1.5.95 0 .39.29.76.8.76 .31 0 .57-.13.73-.33h.01s.1.43.67.26c-.04-.19-.05-.38-.05-.61v-.9c0-.58-.25-1.08-1.08-1.08Zm4.08 0c-.43 0-.62.21-.74.4h-.02v-.35h-.66v2.52h.68v-1.49c0-.07 0-.15.03-.21 .05-.15.19-.33.41-.33 .27 0 .4.23.4.57v1.44h.68v-1.5c0-.07 0-.15.02-.21 .05-.17.2-.31.41-.31 .28 0 .41.23.41.62v1.38h.68v-1.49c0-.79-.4-1.1-.85-1.1 -.2 0-.36.04-.5.13 -.12.07-.23.17-.33.31h-.02c-.11-.28-.37-.46-.7-.46Zm3.77 0c-.43 0-.77.11-.95.22l.13.46c.16-.11.43-.2.68-.2 .41-.01.48.23.48.39v.03c-.92-.01-1.5.31-1.5.95 0 .39.29.76.8.76 .31 0 .57-.13.73-.33h.01s.1.43.67.26c-.04-.19-.04-.38-.04-.61v-.9c0-.58-.25-1.08-1.08-1.08Zm2.85 0c-.27 0-.57.16-.69.53h-.02v-.48h-.62v2.52h.7v-1.3c0-.07 0-.14.01-.19 .05-.28.25-.45.55-.45 .08 0 .14 0 .2.01v-.67c-.06-.02-.09-.02-.16-.02Zm4.35 1.22c-.02-.01-.04 0-.06 0l-1.38.64c-.13.07-.15.28-.04.47 .11.19.3.28.43.2l1.24-.88c.07-.06.07-.2 0-.31l0 0c-.06-.1-.15-.16-.23-.16Zm2.07 0c-.08 0-.17.05-.23.15l0-.01c-.07.11-.07.24 0 .3l1.24.87c.12.07.32-.02.43-.21 .1-.2.09-.41-.04-.48l-1.39-.65c-.02-.01-.04-.01-.06-.01Zm-16.76.14v.31c0 .04-.01.09-.02.13 -.06.17-.24.32-.47.32 -.19 0-.34-.11-.34-.34 0-.35.38-.45.81-.45Zm7.85 0v.31c0 .04-.01.09-.02.13 -.06.17-.24.32-.47.32 -.19 0-.34-.11-.34-.34 0-.35.38-.45.81-.45Zm7.86.48c-.14 0-.25.07-.27.16l-.14 1.51c0 .15.17.27.39.27s.39-.13.39-.28l-.14-1.52c-.02-.1-.13-.17-.27-.17Z"/></svg>