<svg viewBox="0 0 24 24" xmlns="http://www.w3.org/2000/svg"><path d="M13.21 0C9.9 0 6.82 1.49 4.71 4.148 3.19 6.058 2.4 8.42 2.4 10.84v1.73c0 .89-.62 1.73-1.862 1.81 -.3.02-.547.22-.547.52 -.05.82.82 2.31 2.01 3.5 .82.84 1.78 1.51 2.832 2.03v0c-.3 1.63.79 3.18 2.42 3.48 .17.03.35.04.52.04v0c1.42.01 2.65-.99 2.93-2.39h2.5c.32 1.689 2.08 2.85 3.974 2.21 1.64-.55 2.36-2.41 1.76-3.93v0c.65-.44 1.27-.93 1.83-1.47v0c2.04-2.03 3.18-4.78 3.18-7.65 0-2.89-1.12-5.589-3.16-7.63v0c-2.03-2.02-4.77-3.15-7.625-3.16Zm0 1.21c2.558 0 4.96.994 6.78 2.8v0c1.8 1.79 2.81 4.23 2.8 6.78v0c0 2.54-1.01 4.98-2.81 6.78v0c-1.81 1.79-4.24 2.8-6.78 2.8h-2.46 -.001c-.29-1.4-1.51-2.41-2.93-2.41l0 0c-1.03-.01-1.98.51-2.54 1.36v.02l-.001-.001c-.9-.46-1.72-1.07-2.41-1.79 -.85-.85-1.316-1.62-1.515-2.11H1.34c.55-.14 1.05-.43 1.44-.85H2.78c.51-.56.79-1.29.79-2.04v-1.79c0-2.11.69-4.2 2.01-5.861C7.44 2.51 10.2 1.17 13.18 1.17ZM10.8 7.19v-.001c-.66 0-1.2.53-1.2 1.19v0c-.01.65.53 1.19 1.19 1.19 0 0 0 0 0 0v0c.65-.01 1.19-.54 1.19-1.2 -.001-.01-.01-.01-.01-.01v0c0-.66-.54-1.2-1.2-1.2Zm7.2 0v-.001c-.66 0-1.2.53-1.2 1.19v0c-.01.65.53 1.19 1.19 1.19 0 0 0 0 0 0v0c.65 0 1.19-.54 1.19-1.2 0-.01-.01-.01-.01-.01v0c0-.66-.54-1.2-1.2-1.2Zm-7.38 4.76v0c-.33-.01-.6.26-.61.59 -.01.08.01.17.05.25v0c.79 1.68 2.48 2.75 4.346 2.75v0c1.86 0 3.56-1.07 4.34-2.76v-.001c.13-.3 0-.66-.3-.8 -.08-.04-.17-.06-.26-.06h-.03 -.001c-.23-.01-.44.13-.53.34v0c-.6 1.25-1.87 2.06-3.26 2.061v0c-1.4 0-2.67-.81-3.26-2.061v0c-.11-.21-.32-.34-.55-.35Z"/></svg>