<svg viewBox="0 0 24 24" xmlns="http://www.w3.org/2000/svg"><path d="M8.416 21.13c-.97 0-1.9-.56-2.32-1.51L.2 6.4c-.57-1.28 0-2.78 1.28-3.35 1.27-.57 2.77 0 3.34 1.28l5.88 13.21c.56 1.27-.01 2.77-1.29 3.34h0c-.33.14-.68.21-1.03.21Zm7.19.03c-.891 0-1.75-.52-2.13-1.39L7.37 6.08C6.84 4.9 7.37 3.53 8.54 3c1.173-.53 2.54 0 3.07 1.17l6.09 13.68c.52 1.17-.01 2.54-1.18 3.07v0c-.3.13-.62.2-.95.2Zm8.38-15.98v0c-.01 1.28-1.05 2.32-2.33 2.327h-.001c-1.29 0-2.33-1.05-2.33-2.327v0c-.01-1.29 1.04-2.33 2.32-2.33v0c1.28-.01 2.32 1.04 2.32 2.32Zm-2.62 5.11v0c0 1.37-1.12 2.48-2.49 2.48 -.01 0-.01 0-.01 0v0c-1.38 0-2.49-1.12-2.49-2.49 -.01-.01-.01-.01-.01-.01v0c-.01-1.38 1.11-2.49 2.48-2.49 0-.01 0-.01 0 0v0c1.37-.01 2.48 1.11 2.48 2.48 0 0-.01 0-.01 0Z"/></svg>