<svg viewBox="0 0 24 24" xmlns="http://www.w3.org/2000/svg"><path d="M9.3-.001c-1.56 0-2.67 1.15-2.51 3 .1 1.22.2 2.47.31 3.72 -1.08.45-2.22.93-3.43 1.44 -1.26.53-2.13 1.6-2.46 2.88 -.35 1.3-.14 2.808.72 4.14 .76 1.19 1.85 2 3.25 2.44 -.09 1.09.03 2.07.34 2.95h0c.13.38.31.75.53 1.09 .798 1.26 1.97 2.02 3.18 2.23 1.18.2 2.37-.13 3.29-1 .98-.95 1.9-1.84 2.79-2.69 1.04.62 2.05 1.23 3.03 1.82 1.6.95 3.24-.09 3.63-2.12 .16-.85.08-1.8-.22-2.87 .57-.36.92-.91 1.06-1.68 .3-1.64-.51-3.79-1.83-4.88l0 0c-.73-.6-1.45-1.2-2.17-1.79 -.01-.02-.38-2.11-.56-3.11 -.31-1.73-1.8-3.54-3.38-4.05 -.73-.24-1.4-.16-2.04.22C12.05.9 11.23.36 10.35.06c-.4-.13-.78-.19-1.14-.19Zm1.01 2.47v0c.12-.01.25.01.38.04 .46.12.91.49 1.15.93 .19.36.29.67.37 1.29 .13 1.03.26 2.07.4 3.14 .01.09.02.19.03.29 .11.88.64 1.52 1.32 1.61 .65.08 1.01-.43.88-1.27v0c-.02-.1-.03-.19-.04-.28l0-.001c-.15-1.01-.3-2.01-.45-3.01 -.07-.43-.09-.75-.05-.96 .05-.47.42-.71.89-.58 .47.13.92.57 1.13 1.09 .1.266.15.47.23.96 .15.94.31 1.89.47 2.86 .11.63.17 1.202 1.04 1.8 .72.57 1.44 1.13 2.14 1.68 .42.33.57.48.73.71 .26.37.38.93.28 1.35 -.09.39-.35.62-.66.59 -.27-.04-.48-.14-.93-.47 -.74-.55-1.49-1.12-2.26-1.69 -.07-.05-.15-.11-.22-.16 -.65-.48-1.21-.39-1.43.266 -.23.66.09 1.44.75 1.91 .07.04.15.1.22.15 .8.56 1.6 1.12 2.38 1.65 .32.22.57.44.73.63 .35.4.52 1.08.4 1.64 -.14.59-.52.9-.98.79 -.24-.05-.42-.15-.84-.42 -.82-.54-1.657-1.08-2.53-1.64l0 0c-.09-.06-.16-.11-.24-.16 -.28-.17-.54-.25-.77-.24h-.01c-.26-.02-.54.07-.8.28 -.08.05-.15.11-.22.18 -.81.66-1.65 1.37-2.54 2.12 -.49.4-.7.55-1.02.67 -.65.24-1.36-.04-1.81-.74 -.43-.7-.41-1.59.03-2.16 .18-.26.49-.54.92-.85 .93-.68 1.83-1.31 2.67-1.92v-.001c.07-.06.15-.11.22-.16 .64-.46.76-1.27.31-2.02s-1.17-.98-1.87-.56V11.8c-.08.04-.16.09-.24.14 -.9.54-1.84 1.12-2.83 1.73 -.64.38-.98.5-1.46.53 -.59.03-1.21-.34-1.57-.91 -.41-.64-.43-1.43-.04-1.92 .21-.29.45-.47 1.12-.81l-.001 0c.99-.52 1.99-1.03 2.99-1.53 .08-.05.16-.09.24-.13v0c.05-.03.1-.07.15-.1 .42-.19.63-.66.56-1.3 -.02-.11-.02-.21-.04-.32l-.001 0c-.12-1.11-.23-2.22-.36-3.32 -.07-.66-.07-.9.02-1.16 .1-.32.39-.5.75-.51ZM7.1 6.719l0 .02c-.01-.01-.01-.01-.01-.01v-.01 0c-.01-.01-.01-.01-.01-.02 0 0 0-.01 0-.01Zm0 .04c0 .03 0 .05 0 .09 -.01-.03-.01-.06-.02-.09 0-.01 0-.01 0-.01Zm.01.13l0 .02H7.1v-.02c0-.01 0-.01-.01-.01 0 0 0-.01 0-.01Zm0 .04s0 .01 0 .01c-.01-.01-.01-.01-.01-.01 -.01-.01-.01-.01-.01-.01 0-.01 0-.01 0-.01Z"/></svg>