<svg viewBox="0 0 24 24" xmlns="http://www.w3.org/2000/svg"><path d="M11.943.18c1.87 0 3.65.42 5.25 1.19 .25.11.5.24.75.38l-1.1.97 -1.65-1.7 -2.84 2.48 -1.67-1.79 -5.21 4.62L8.8 9.96l-1.31 1.12 3.28 3.63 -1.31 1.12 4.7 5.16 2.78-2.53 2.42 2.7c-.48.36-1.01.72-1.58 1.03v0c-1.81 1-3.83 1.53-5.9 1.53 -6.61 0-11.97-5.31-11.97-11.83C-.12 5.41 5.253.08 11.856.08Zm-2.2 11.08l2.85-2.53 2.55 2.82 -2.86 2.52Zm2.03 4.87l2.83-2.551 2.58 2.82 -2.86 2.52ZM7.7 6.44l2.85-2.53 2.55 2.82 -2.86 2.52Zm5.22-1.36l2.12-1.9 1.91 2.09 -2.13 1.91Zm3.79 8.69l2.12-1.9 1.91 2.12 -2.13 1.89Zm1.87 4.26l2.12-1.9 1.91 2.09 -2.13 1.91Zm.86-9.76L20.85 7l1.27 1.4 -1.42 1.26Zm-1.83-4.18l1.41-1.29 1.27 1.42 -1.42 1.26Zm3.63 8.35l1.41-1.27 1.3 1.39 -1.44 1.26ZM14.863 9.3l2.12-1.9 1.91 2.09 -2.13 1.89Z"/></svg>