<svg viewBox="0 0 24 24" xmlns="http://www.w3.org/2000/svg"><path d="M11.99.35c-2.83 0-5.15 2.17-5.38 4.94v0c-.41-.1-.81-.14-1.23-.15 -2.99 0-5.4 2.41-5.4 5.4 0 2.22 1.341 4.12 3.25 4.95l0-.001c-.49.82-.74 1.76-.74 2.72 0 2.98 2.41 5.4 5.4 5.4 1.66 0 3.14-.76 4.13-1.94 .99 1.18 2.47 1.93 4.13 1.93 2.98 0 5.4-2.42 5.4-5.41 0-.98-.26-1.89-.71-2.68 1.83-.87 3.1-2.73 3.1-4.89 0-2.99-2.42-5.41-5.4-5.41 -.42 0-.83.04-1.22.13C17.14 2.5 14.79.27 11.93.27ZM6.27 7.21h10.59c.74 0 1.35.6 1.35 1.34v7.64c0 .74-.61 1.34-1.36 1.34h-3.61L6 21.07l1.1-3.55h-.85c-.75 0-1.36-.61-1.36-1.35V8.52c0-.75.6-1.35 1.35-1.35Z"/></svg>