<svg viewBox="0 0 24 24" xmlns="http://www.w3.org/2000/svg"><path d="M15.023 15.26c.69 0 1.01-.41 1.01-1.06 0-.56-.31-1.01-.984-1.01 -.58 0-.92.4-.92 1.016 0 .54.32 1.045.88 1.045Zm-4.888.18c.76 0 1.11-.45 1.11-1.154 0-.61-.34-1.109-1.09-1.109 -.64 0-1.01.44-1.01 1.11 0 .59.35 1.14.97 1.14ZM24 10.19l-3.15.02L21.68.52 1.95 3.58l1.68 6.24H-.01l3.734 11.48 8.713-1.29v3.39l10.113-4.65 1.44-8.62Zm-9.104-3.6c0-.05.03-.1.08-.1l1.87-.125 .44-.03c.52-.04 1.63.06 1.63 1.23 0 .83-.62 1.18-.62 1.18s.75.18.7 1.09c0 1.6-1.95 1.38-1.95 1.38l-.23-.01 -1.91-.06h0c-.05-.01-.09-.05-.09-.09l.02-4.504Zm-3.68.24c0-.05.03-.09.08-.1l3.064-.21v0c.04-.01.08.02.08.07 0 0 0 0 0 0v.94c0 .04-.04.09-.09.09l-1.9.08h-.001c-.05 0-.09.04-.09.09l-.01.39v0c-.01.04.03.08.08.08 0 0 0 0 0-.01l1.64-.07v0c.04-.01.08.03.08.07 0 0 0 0 0 0l-.02 1.01v0c-.01.04-.05.08-.09.08H12.4 12.4c-.05 0-.09.03-.09.08v.41c0 .04.03.08.08.08l1.87.03h-.001c.04 0 .08.04.08.09v.95 0c0 .04-.04.08-.09.08 -.01 0-.01-.01-.01-.01l-3.07-.13v0c-.05-.01-.09-.05-.09-.09l.04-4.13Zm-6.01.31l.97-.07v0c.04-.01.09.03.1.08l.45 2.2c.01.04.02.04.03 0l.57-2.29v0c.01-.05.05-.09.1-.09l.92-.07L8.34 6.9c.05-.01.09.02.1.07L9 9.31c.01.04.02.04.04 0l.6-2.43v0c.01-.05.05-.09.1-.1l.99-.07c.04-.01.07.03.06.07l-1.09 4.1v-.001c-.02.04-.06.08-.11.08l-1.13-.04v-.001c-.06-.01-.1-.04-.11-.09l-.54-1.97c-.02-.05-.04-.05-.05 0l-.53 1.93h0c-.02.04-.06.08-.11.08l-1.109-.04v-.001c-.06-.01-.1-.04-.11-.09l-.88-3.62c-.02-.05.01-.09.06-.09Zm-.29 9.62v-3.57 0c-.01-.05-.04-.09-.09-.09l-1.26-.03h0c-.05-.01-.09-.05-.1-.09l-.05-1.125v0c-.01-.05.03-.09.07-.09 0-.01 0-.01 0-.01l4.047.09c.04 0 .08.04.08.08l-.03 1.08V13c-.01.04-.05.08-.09.08l-1.14 0v0c-.05 0-.09.04-.09.08v3.44c0 .04-.04.09-.09.09l-1.23.07v0c-.05 0-.09-.03-.09-.08 -.01-.01-.01-.01-.01-.02Zm2.83-2.38c0-1.92 1.32-2.49 2.41-2.49s2.33.73 2.33 2.31c0 1.9-1.39 2.48-2.42 2.48 -1.04 0-2.34-.73-2.34-2.32Zm5.13-.12c0-1.75 1.16-2.24 2.16-2.24 .99 0 2.12.66 2.12 2.1 0 1.72-1.26 2.26-2.2 2.26 -.94 0-2.093-.68-2.093-2.13Zm7.259 1.71v0c-.06 0-.11-.03-.14-.07l-1.19-1.64c-.03-.04-.06-.04-.06.01v1.67c0 .04-.04.09-.09.09l-1.06.06v0c-.05 0-.09-.04-.09-.08 -.01-.01-.01-.01-.01-.01l.03-3.85c0-.05.03-.09.08-.09l.88.02v-.001c.05 0 .1.03.13.07l1.29 1.9c.02.04.05.03.05-.02l.03-1.846v0c0-.05.03-.09.08-.09 0 0 0 0 0 0l.96.02c.04 0 .08.04.08.09l-.14 3.55v0c-.01.04-.05.08-.1.09l-.83.04Zm-3.9-7.772l.72-.02s.47.01.47-.44c0-.36-.42-.33-.42-.33l-.782 0v0c-.05 0-.09.03-.09.08v.59l-.001-.001c-.01.04.03.08.08.08 0 0 0-.01 0-.01Zm-.03 1.96h.99c.02 0 .35-.06.35-.41 0-.3-.23-.41-.45-.4l-.9.02v0c-.05 0-.09.04-.09.09v.59 0c-.01.04.03.08.08.08 0 0 0 0 0 0Z"/></svg>