<svg viewBox="0 0 24 24" xmlns="http://www.w3.org/2000/svg"><path d="M8.69 2.18c-4.8 0-8.7 3.28-8.7 7.34 0 2.21 1.17 4.2 3.002 5.55v0c.2.15.29.42.21.66l-.39 1.48c-.02.07-.05.14-.05.21 0 .16.13.29.29.29h0c.05-.01.11-.03.16-.06l1.9-1.12h-.001c.21-.14.47-.18.71-.1H5.82c.92.26 1.87.4 2.83.4 .27 0 .54-.03.81-.05 -.86-2.58.15-4.98 1.93-6.446 1.7-1.42 3.88-1.98 5.85-1.84 -.58-3.59-4.196-6.35-8.596-6.35Zm-2.91 3.8c.64 0 1.162.52 1.162 1.18l-.001-.001c0 .64-.52 1.17-1.17 1.17 -.01 0-.01 0-.01 0v0c-.65-.01-1.17-.54-1.17-1.18 0-.01 0-.01 0-.01 0-.66.52-1.18 1.162-1.18Zm5.81 0c.64 0 1.16.52 1.16 1.18l-.001-.001c0 .64-.52 1.17-1.17 1.17 -.01 0-.01 0-.01 0h-.001c-.65-.01-1.17-.54-1.17-1.18 0-.01 0-.01 0-.01 0-.66.52-1.18 1.16-1.18Zm5.34 2.86c-1.8-.06-3.75.51-5.28 1.78 -1.72 1.42-2.69 3.72-1.78 6.22 .94 2.45 3.66 4.22 6.88 4.22 .82 0 1.62-.12 2.36-.34v0c.2-.07.42-.04.59.08l1.58.92v0c.04.02.08.04.14.04 .13 0 .24-.12.24-.25 0-.06-.03-.12-.04-.18l-.33-1.24v0c-.02-.06-.03-.11-.03-.16v-.001c-.01-.16.07-.31.2-.4 1.52-1.13 2.5-2.79 2.5-4.621 0-3.21-2.94-5.84-6.66-6.09v-.01c-.14-.01-.27-.03-.41-.03Zm-2.53 3.27c.53 0 .96.44.96.98h-.001c0 .53-.43.97-.97.98 -.01 0-.01 0-.01 0v0c-.54-.01-.98-.45-.97-.99 0-.01 0-.01 0-.01 0-.55.43-.99.97-.99Zm4.84 0c.53 0 .96.44.96.98v0c0 .53-.43.97-.97.98 -.01 0-.01 0-.01 0v0c-.54-.01-.98-.45-.97-.99 0-.01 0-.01 0-.01 0-.55.43-.99.96-.99Z"/></svg>