<svg viewBox="0 0 24 24" xmlns="http://www.w3.org/2000/svg"><path d="M1.49 4.95l-.001-.001c-.82-.01-1.49.64-1.5 1.46 -.01.01-.01.02 0 .03v11.09 0c-.01.39.15.78.43 1.06H.41c.28.28.66.43 1.06.43H22.49v0c.6 0 1.15-.37 1.38-.93 .07-.19.11-.38.11-.58V6.41v0c0-.4-.16-.79-.44-1.07v-.001c-.29-.29-.67-.44-1.07-.44H1.46Zm2.457 3.28h2.13l-.24 1.4h-2.09l.18-1.41Zm3.99 0h1.75l.15 1.4H7.04l.875-1.41Zm3.8 0h1.87l-.47 1.4h-1.86l.44-1.41Zm2.69 0h4.06c2.06 0 3.22 1.64 2.48 3.74v-.001c-.37 1.05-1.04 1.97-1.93 2.64v0c-.89.67-1.96 1.06-3.064 1.13H11.9l1.7-5.18 2.75.09 -1.02 3.01c.27.03.55.03.83 0v0c1.15-.07 2.15-.83 2.53-1.92 .35-1.04-.15-1.89-1.17-1.92h-3.68l.54-1.61ZM3.82 10.1l2.056.06 -.36 2.67 1.31-2.62 2.98.09 .26 2.7 .83-2.68 2.05.09 -1.76 5.29h-2.54l-.45-4.58 -2.18 4.57H3.18l.59-5.64Z"/></svg>