<svg viewBox="0 0 24 24" xmlns="http://www.w3.org/2000/svg"><path d="M13.85 11.89c0-3.39 2.4-5.4 5.51-5.4 2.78 0 4.63 1.41 4.63 3.38 0 1.85-1.59 3.05-3.33 3.05 -.99 0-1.69-.17-2.19-.55 -.17-.17-.28-.11-.28.05 0 .7.27 1.25.7 1.74 .38.38 1.09.65 1.74.65 .71 0 1.31-.17 1.85-.44 .54-.28.98-.17 1.25.27 .32.49-.11 1.14-.49 1.58 -.71.76-2.08 1.3-3.82 1.3 -3.545-.11-5.62-2.51-5.62-5.68Zm-7.254 2.23c.32 0 .54.16.76.54l.98 1.58c.38.6.7 1.03 1.41 1.03s1.09-.28 1.41-1.09h-.001c.56-1.25.99-2.55 1.31-3.88 .49-1.86.7-2.95.7-3.88 0-.93-.28-1.48-1.31-1.64 -1.37-.28-3.28-.39-5.29-.39 -2.02 0-3.928.1-5.291.32 -1.04.21-1.31.76-1.31 1.69 0 .92.21 2.01.655 3.87l0-.001c.34 1.32.78 2.61 1.31 3.872 .38.81.7 1.09 1.41 1.09s1.037-.44 1.41-1.04l.98-1.59c.27-.33.49-.55.819-.55Z"/></svg>