<svg viewBox="0 0 24 24" xmlns="http://www.w3.org/2000/svg"><path d="M12 0C5.373 0 0 5.372 0 12c0 6.62 5.373 12 12 12 6.628 0 12-5.38 12-12 0-6.63-5.372-12-12-12Zm-1.58 4.916h3.167v5.26h.657v-4.37c2.971 1.43 2.55 5.28 2.58 5.13h.718v1.01H6.44v-1.02h.718s-.69-3.56 2.58-5.136v4.36h.66ZM6.452 12.91h3.18v.54h-.001c0 1.3 1.06 2.36 2.36 2.36v0c1.3-.01 2.36-1.07 2.36-2.37v-.55h3.18v2.06h-1.3l-.42.92 .87.76 -1.596 1.69 -.92-.92 -.99.42v1.2H10.73v-1.21l-.99-.43 -.92.91 -1.6-1.7 .87-.77 -.42-.93h-1.3Z"/></svg>