<svg viewBox="0 0 24 24" xmlns="http://www.w3.org/2000/svg"><path d="M11.133 8.432c-.47 0-.84.359-.84.81 0 .45.38.81.83.81 .48 0 .87-.36.87-.81 0-.46-.39-.82-.88-.82Zm2.93 0c-.47 0-.85.359-.85.81 0 .44.38.81.84.81 .47 0 .86-.36.86-.81 0-.46-.39-.82-.87-.82Zm3.65.01c-.53 0-.99.33-.99.85v3.31c0 .8.56 1.28 1.37 1.28h4.64c.68 0 1.24-.48 1.24-1.17v-3.4c0-.42-.31-.86-.69-.86H22.2v2.79c0 2.122-3.71 2.1-3.71.04V8.4h-.82Zm1.67 0v2.45c0 1.63 1.93 1.4 1.93.25V8.43h-1.94v-.01Zm-14.57.32c-.47 0-.78.23-.94.75 -.16.53-1.116 4.24-1.116 4.24L1.49 8.81H-.03s1.45 5.26 1.65 5.881c.15.47.52.86 1.058.86 .62 0 .91-.46 1.045-.86 .14-.43 1.08-3.9 1.08-3.9s.94 3.47 1.069 3.89c.14.4.43.86 1.04.86 .54 0 .9-.39 1.07-.86C8.18 14.06 9.64 8.8 9.64 8.8H8.11l-1.258 4.94s-.97-3.71-1.125-4.25c-.15-.53-.48-.76-.93-.76h-.01Zm5.6 2.09v4.66h1.44v-4.67H10.4Zm2.91 0v4.66h1.44v-4.67h-1.45Z"/></svg>