<svg viewBox="0 0 24 24" xmlns="http://www.w3.org/2000/svg"><path d="M22.91 14.17c-.44 0-.782-.14-1.06-.41 -.28-.28-.41-.63-.41-1.05 0-.43.11-.78.35-1.06 .23-.28.54-.42.91-.42 .4 0 .72.12.94.38 .22.25.33.61.33 1.07v.15H22.1c.01.16.07.3.17.42 .18.16.39.25.63.25 .17 0 .33-.04.48-.1 .15-.07.34-.17.57-.32v.64c-.19.14-.37.24-.532.3 -.17.05-.35.08-.56.08Zm.44-1.78c-.03-.14-.08-.25-.15-.36 -.11-.15-.26-.22-.47-.22 -.19 0-.33.07-.45.23 -.09.1-.14.21-.17.33Zm-3.74 1.06c0 .03.04.07.14.13 .09.05.22.08.38.11 .37.06.65.16.82.3 .16.14.25.34.25.62 0 .26-.13.47-.38.62 -.25.15-.58.22-1 .22 -.39 0-.7-.09-.93-.25 -.24-.17-.35-.39-.35-.67 0-.2.06-.37.18-.51s.27-.22.43-.24c-.14-.07-.21-.18-.21-.31 0-.16.09-.28.27-.38 .04-.03.07-.03.09-.02 -.08-.01-.16-.05-.24-.13 -.21-.19-.31-.43-.31-.72s.1-.53.3-.72c.2-.19.45-.28.77-.28 .07 0 .15 0 .22.01h1.09v.54h-.38c.08.08.12.25.12.48 0 .24-.11.46-.31.65 -.18.16-.4.25-.67.27l-.18.01v0c-.05 0-.1.02-.14.05 -.05.02-.07.06-.07.1Zm.28-1.62c-.14 0-.24.04-.33.12 -.09.08-.13.19-.13.33 0 .13.04.24.12.32 .08.08.19.12.32.12s.24-.05.32-.125c.08-.09.12-.2.12-.33 0-.14-.05-.25-.13-.34 -.09-.09-.2-.13-.33-.13Zm-.71 2.72c0 .1.05.19.17.26 .11.07.28.1.48.1 .22 0 .4-.03.52-.09s.19-.14.19-.23c0-.1-.05-.18-.13-.25 -.09-.07-.22-.12-.39-.15l-.08-.02 -.001-.001c-.07-.01-.14-.02-.21-.03 -.07-.01-.12-.01-.15 0 -.125.02-.23.05-.3.09 -.1.06-.15.14-.15.24Zm-2.39-.41c-.22 0-.39-.07-.51-.21 -.13-.14-.2-.31-.2-.53 0-.19.06-.36.18-.5 .125-.14.31-.25.55-.34l.65-.24v-.13c0-.14-.04-.24-.1-.3 -.07-.07-.18-.1-.33-.1 -.17 0-.32.03-.45.09 -.14.06-.29.16-.48.31v-.63c.14-.15.28-.26.43-.32 .14-.07.31-.1.49-.1 .34 0 .61.08.79.26 .18.17.27.42.27.75v1.34c0 .02 0 .03 0 .04 0 0 .01 0 .03 0 .01 0 .04-.02.08-.05 .04-.03.12-.07.24-.13v.41c-.08.07-.18.13-.29.18 -.12.04-.23.06-.33.06 -.12 0-.22-.04-.31-.11 -.07-.06-.1-.11-.1-.16 -.02.04-.07.08-.15.13 -.18.09-.38.13-.59.13Zm.69-.625v-.76l-.26.11c-.16.05-.28.12-.35.2 -.08.07-.12.17-.12.27 0 .08.03.14.09.19 .06.04.14.07.24.07v0c.08-.01.17-.03.25-.06l-.001 0c.06-.04.13-.06.2-.09ZM16 11.33l-1.9 4.18h-.73l.93-2.12 -1.07-2.14h.7l.71 1.53 .63-1.54h.68Zm-4.37 2.78c-.47.01-.85-.13-1.13-.4 -.28-.28-.42-.63-.42-1.05 0-.43.13-.78.41-1.06 .27-.28.63-.42 1.07-.42 .43 0 .79.13 1.07.41 .28.27.42.62.42 1.05 0 .42-.15.77-.43 1.04 -.29.27-.64.39-1.03.39Zm-.01-.55c.22-.02.39-.1.54-.27 .15-.17.23-.38.23-.64 0-.27-.08-.48-.24-.64 -.16-.17-.36-.25-.6-.25 -.25 0-.44.08-.6.24 -.16.16-.23.37-.23.63s.07.47.22.63c.15.16.35.25.63.25Zm-4.42-2.3h.69l.66 1.65 .66-1.66h.68l-1.23 2.84H8.4Zm9.21-.71v-2.8h.67v2.85h-.55Zm.33-3.963c.11 0 .2.03.27.11 .07.07.11.16.11.27V6.97c0 .1-.04.2-.12.27 -.08.07-.17.11-.28.11 -.12 0-.21-.04-.29-.12 -.08-.08-.12-.17-.12-.274h0c-.01-.11.03-.21.11-.28 .07-.08.16-.12.27-.12Zm-2.67-.19v4.2h-.68V6.33h.67Zm1.28 4.14l-1.4-1.37 1.25-1.43h.75l-1.2 1.41 1.41 1.43h-.71Zm-3.31-.01v-2.8h.67v2.85h-.55Zm.33-3.963c.11 0 .2.03.27.11 .07.07.11.16.11.27v0c0 .1-.04.2-.12.27 -.08.07-.17.11-.28.11 -.12 0-.21-.04-.29-.12 -.08-.08-.12-.17-.12-.274h-.001c-.01-.11.03-.21.11-.28 .07-.08.16-.12.27-.12Zm-3.98 4.06L7.16 7.73h.69l.66 1.67 .68-1.73h.42l.67 1.71 .66-1.68h.69l-1.25 2.893h-.26l-.77-1.843 -.76 1.843h-.13Zm3.76 6.32l4 6.07 .43-7.27v-.001c-1.17 1.16-2.86 1.61-4.45 1.19Zm-5-10.64l-7.27.43 6.07 4v-.001c-.43-1.59.02-3.29 1.19-4.45Zm11.705.98L22.1.77l-6.51 3.25v0c1.58.42 2.82 1.66 3.25 3.25Z"/></svg>