<svg viewBox="0 0 24 24" xmlns="http://www.w3.org/2000/svg"><path d="M9.04 15.203v0c0-1.64 1.32-2.952 2.952-2.952 1.63 0 2.952 1.32 2.952 2.952v0c0 1.63-1.33 2.95-2.952 2.95 -1.64 0-2.952-1.33-2.952-2.96Zm11.74.06v-.39h-.01v0c-.04-1.03-.26-2.04-.64-2.99v0c-.41-.99-.98-1.9-1.71-2.68l0-.01 -.19-.19 -.05-.05 -.03-.03 -.21-.21 -.01 0c-.85-.76-1.78-1.13-2.61-1.47 -1.3-.52-2.138-.86-2.54-2.47 .44.03.83.17 1.13.48 1.59 1.68-2.66-5.32-2.66-5.32s-1.07 3.985-2.362 5.461c-.66.74.22.27 1.45-.17 .27 1.19.77 2.11 1.49 2.82 .79.77 1.72 1.14 2.55 1.48 .67.27 1.26.5 1.76.91l-.593.59 -.67-.67 -.67 2.46 2.46-.67 -.67-.67 .6-.6h0c.97 1.07 1.54 2.45 1.61 3.9h-.85v-.95l-2.22 1.27 2.21 1.26v-.95h.84V15.4c-.08 1.44-.65 2.82-1.62 3.9l-.6-.6 .66-.67 -2.47-.67 .66 2.46 .66-.67 .6.6h0c-1.08.97-2.46 1.54-3.91 1.61v-.85h.94l-1.27-2.22 -1.27 2.21h.94v.84 0c-1.46-.08-2.84-.65-3.91-1.62l.59-.6 .66.66 .66-2.47 -2.47.66 .66.66 -.6.59 -.001-.001c-.98-1.08-1.55-2.46-1.62-3.91h.84v.94l2.21-1.27 -2.22-1.27v.94H5.46v0c.07-1.45.64-2.83 1.61-3.91l.6.59 -.67.66 2.46.66 -.67-2.47 -.67.66 -2.359-2.36 -.23.22 -.05.04 -.19.18 0 0 -.001 0c-1.44 1.54-2.28 3.55-2.35 5.66h-.01v.64h0v-.001c.07 2.1.9 4.11 2.34 5.66l-.01 0 .18.18 .04.04 .04.04 .18.18 0-.01h0c.78.72 1.68 1.3 2.67 1.7v0c.94.38 1.96.6 2.98.63v0h.64v-.01h-.001c1.02-.04 2.03-.26 2.98-.64v0c.98-.41 1.89-.98 2.67-1.71l0 0 .18-.19 .04-.05 .04-.05 .18-.19 -.01-.01v0c.72-.79 1.3-1.69 1.7-2.68h-.001c.38-.95.6-1.97.63-2.99h0v-.26Z"/></svg>