<svg viewBox="0 0 24 24" xmlns="http://www.w3.org/2000/svg"><path d="M12.09 13.119c-.94 1.93-2.22 4.54-2.86 5.72 -.62 1.07-1.13.93-1.532.02C6.288 15.52 3.4 9.7 2.04 6.45c-.26-.601-.45-.99-.619-1.14C1.23 5.16.87 5.07.3 5.03 .09 5-.02 4.95-.02 4.87v-.46l.05-.05c.924-.01 5.4 0 5.4 0l.05.04v.43c0 .11-.08.17-.23.17l-.57.03c-.49.02-.73.16-.73.43 0 .13.05.33.16.601C5.196 8.7 8.92 16.58 8.92 16.58l.13.04 2.41-4.81 -.49-1.07 -1.66-3.27s-.32-.66-.43-.88c-.73-1.45-.72-1.52-1.447-1.617 -.21-.03-.32-.05-.32-.15v-.47l.06-.05h4.29l.11.03v.45c0 .1-.08.15-.23.15l-.31.04c-.8.06-.67.38-.14 1.42l1.58 3.252 1.75-3.51c.29-.64.23-.81.11-.95 -.07-.09-.31-.22-.82-.24l-.21-.03c-.06 0-.1-.02-.15-.06 -.05-.04-.07-.08-.07-.13v-.43l.06-.05c1.24-.01 4.04 0 4.04 0l.05.04v.43c0 .12-.06.17-.2.17 -.65.03-.782.09-1.03.43 -.12.18-.375.58-.65 1.03l-2.301 4.27 -.07.13 2.792 5.712 .17.04 4.39-10.44c.15-.43.12-.73-.07-.9 -.2-.18-.35-.28-.86-.3l-.42-.02c-.07 0-.11-.02-.16-.05 -.05-.03-.08-.08-.08-.12v-.44l.05-.05h4.96l.04.04v.43c0 .11-.08.18-.21.18 -.65.03-1.13.18-1.45.42 -.32.25-.56.61-.74 1.06 0 0-4.05 9.258-5.43 12.339 -.53 1-1.06.91-1.51-.04 -.58-1.18-1.78-3.79-2.65-5.71l.05-.04Z"/></svg>