<svg viewBox="0 0 24 24" xmlns="http://www.w3.org/2000/svg"><path d="M5.712 1.596l-.76.06 -.24.55 .734-.02Zm1.39.927l-.98.137 -.33.8 .96-.12 .34-.83Zm-2.22 1.01l-.72.05 -.24.56 .72-.02Zm3.72.3l-1.287.06 -.4.96 1.27-.06Zm1.87.56l-1.58.06 -.57 1.35 1.596-.09 .548-1.338Zm-4.188.03l-.98.15 -.35.806 .976-.12Zm6.14.66l-1.87.13 -.64 1.52 1.87-.16Zm2.92.21c-.11 0-.23 0-.34 0l-.77 1.85c1.39-.03 2.52.08 3.37.38l-1.75 4.201c-.96-.31-2.09-.45-3.36-.4l-.54 1.3v0c1.13-.09 2.27.04 3.36.39l-1.67 4.01c-1.26-.27-2.39-.4-3.39-.35l-.782 1.88c3.36-.45 6.34.82 9.009 3.77l5.46-13.18c-2.33-2.58-5.2-3.88-8.64-3.9Zm-.65 0l-2.03.12 -.69 1.68 2.02-.19ZM4.09 5.34l-.72.03 -.23.56h.7l.24-.601Zm3.69.39l-1.287.06 -.4.95 1.27-.05Zm-2.27.51l-1 .15 -.35.8 .98-.13Zm4.137.06l-1.58.06 -.57 1.33 1.59-.09 .55-1.32Zm1.955.68l-1.87.13 -.64 1.52 1.88-.16Zm2.282.19l-2.01.13 -.7 1.68 2.04-.19 .67-1.63Zm-10.57.06l-.74.03 -.238.56h.72l.25-.6Zm3.705.29l-1.303.08 -.4.96 1.287-.04Zm11.83.25v0c1.05.33 2 .92 2.77 1.71l-1.75 4.237c-.62-.59-1.15-.97-1.62-1.15l-1.21-.5Zm-14.16.36l-.976.15 -.35.8 .96-.12 .36-.85Zm4.186 0l-1.6.05 -.55 1.35 1.59-.09Zm1.95.66l-1.89.15 -.62 1.5 1.87-.14 .63-1.53Zm2.247.27l-2.01.12 -.71 1.66 2.042-.16Zm-10.61.1l-.72.03 -.24.54 .71-.02Zm3.72.27l-1.29.07 -.41.96 1.287-.03 .41-1Zm1.87.6l-1.596.05 -.55 1.35 1.59-.09 .54-1.33Zm-4.186.03l-.98.13 -.33.8 .96-.12Zm6.14.63l-1.87.15 -.66 1.52 1.9-.16Zm2.26.27l-2.026.12 -.69 1.66 2.02-.18Zm-10.569.03l-.74.03 -.238.56 .72-.02Zm3.673.36l-1.29.06 -.41.97 1.3-.05Zm-2.285.53l-.976.15 -.33.8 .96-.12 .34-.84Zm4.153.07l-1.596.06 -.57 1.35 1.612-.09Zm1.95.66l-1.89.15 -.617 1.52 1.88-.15Zm2.28.22l-2.03.12 -.69 1.66 2.04-.18 .67-1.62ZM.88 12.88l-.738.05 -.23.56 .72-.02 .24-.6Zm3.705.31l-1.29.07 -.395.97 1.28-.05 .39-1Zm11.923.07c1.08.29 2.02.82 2.814 1.61l-1.72 4.183c-.9-.76-1.82-1.32-2.814-1.67l1.71-4.14Zm-10.036.51l-1.6.08 -.55 1.32 1.57-.07 .56-1.34Zm-4.19.01l-.996.15 -.31.79 .96-.11Zm6.14.67l-1.904.15 -.617 1.52 1.89-.16 .63-1.53Zm2.231.32l-2.03.12 -.69 1.68 2.026-.18Zm-6.87.32l-1.3.06 -.4.98 1.28-.06Zm1.87.58l-1.58.06 -.57 1.33 1.59-.07Zm1.95.7l-1.867.13 -.64 1.51 1.87-.14Zm2.23.31l-2.005.12 -.71 1.68 2.04-.19 .67-1.61Z"/></svg>