<svg viewBox="0 0 24 24" xmlns="http://www.w3.org/2000/svg"><path d="M24 14.47c0 4.084-3.3 7.401-7.38 7.41h-.02c-1.64-.02-3.23-.58-4.5-1.61 -3.269 2.54-7.99 1.95-10.524-1.32 -1-1.29-1.555-2.87-1.58-4.5V2.79H1.4v11.65c-.01 3.314 2.683 6 5.996 6 1.29 0 2.55-.42 3.58-1.189 -1.17-1.34-1.81-3.05-1.82-4.814V4.89c0-1.56 1.263-2.82 2.82-2.82 1.55 0 2.82 1.263 2.82 2.82v9.54c0 1.76-.63 3.474-1.77 4.814 2.67 1.95 6.429 1.37 8.38-1.31 .74-1.02 1.14-2.25 1.157-3.52V2.76h1.41v11.65ZM13.41 4.93c0-.78-.64-1.41-1.41-1.41 -.78 0-1.41.63-1.41 1.41v9.54c0 1.41.5 2.776 1.41 3.85 .9-1.08 1.4-2.45 1.41-3.86V4.92Z"/></svg>