<svg viewBox="0 0 24 24" xmlns="http://www.w3.org/2000/svg"><path d="M2.95 0C1.33 0 0 1.32 0 2.95v18.1C0 22.68 1.32 24 2.95 24h18.1c1.62 0 2.95-1.32 2.95-2.95V2.95c-.01-1.63-1.32-2.95-2.95-2.95Zm0 1.09h18.1c1.04 0 1.85.81 1.85 1.86v14h-5.27c-.34-.8-2.57-6.47.28-10.9v0c.15-.25.08-.57-.16-.72 -.09-.06-.19-.09-.29-.09 -5.24.08-8.2 3.19-9.74 6.21 -1.35 2.64-1.63 4.91-1.69 5.53H1.08v-14c0-1.04.81-1.86 1.85-1.86Zm13.6 5.24c-2.62 5.24.24 11.4.24 11.4v0c.08.18.26.3.46.3h5.62v3.05c0 1.04-.82 1.86-1.85 1.86H2.92c-1.04 0-1.85-.82-1.85-1.86v-3.05h5.39v0c.26-.01.49-.21.51-.48 0 0 .22-2.8 1.66-5.62 1.34-2.62 3.67-5.17 7.91-5.57Z"/></svg>