<svg viewBox="0 0 24 24" xmlns="http://www.w3.org/2000/svg"><path d="M23.98 11.645s.55-11.645-12.25-11.645C.41 0 .05 11.17.05 11.17s-1.67 12.83 11.933 12.83c13.043 0 11.98-12.355 11.98-12.355ZM8.15 7.57c2.4-1.47 5.46-.58 6.61 1.638 .21.41.24 1.06.1 1.5 -.48 1.516-1.61 2.36-3.15 2.72 .45-.39.81-.84.93-1.45v0c.12-.59-.02-1.2-.37-1.68v0c-.57-.78-1.57-1.08-2.465-.75 -.95.36-1.47 1.22-1.38 2.29 .08.99.83 1.63 2.24 1.87 -.21.11-.38.19-.53.28v0c-.65.35-1.21.84-1.65 1.43 -.15.19-.24.2-.46.07 -2.83-1.73-3.01-6.067.07-7.956Zm-2.115 10.68c-.46.11-.9.28-1.359.43 .22-1.532 2.021-2.95 3.53-2.782v-.001c-.44.6-.7 1.32-.74 2.07 -.51.09-.98.15-1.44.27Zm9.66-14.96c.44.01.89.01 1.34.02V3.31c.11 0 .22.02.33.04V3.35c-.11.15-.22.29-.34.43 -.16.15-.35.29-.58.06 -.06-.06-.19-.05-.29-.05 -.45-.01-.9-.02-1.34-.01v0c-.39.01-.78.05-1.16.11 -.08.01-.18.25-.15.33 .07.2.19.43.359.56 .61.49 1.27.92 1.9 1.41 .6.47 1.16.99 1.51 1.7 .44.92.46 1.9.26 2.877 -.33 1.63-1.15 2.98-2.49 3.96 -.54.39-1.205.62-1.83.9 -.55.25-1.1.46-1.65.71 -.98.44-1.53 1.51-1.37 2.61 .14 1.01 1.04 1.86 2.05 2.03 1.22.21 2.48-.59 2.785-1.83 .33-1.4-.43-2.65-1.85-3.03l-.26-.07c.38-.17.7-.3 1.01-.46q.79-.44 1.55-.93c.15-.1.23-.1.36.01 .97.84 1.56 1.89 1.72 3.18 .27 2.13-.74 4.096-2.65 5.1 -2.95 1.55-6.56-.22-7.21-3.49 -.56-2.8 1.41-5.34 3.79-5.83 1.02-.22 1.95-.64 2.68-1.43 .47-.51.69-.95.77-1.141l0-.001c.14-.37.21-.77.21-1.16h-.001c-.02-.35-.1-.68-.24-1 -.25-.57-1.2-1.47-1.44-1.66l-2.24-1.76c-.08-.07-.17-.06-.36-.05 -.23.01-.82.04-1.07-.02 .2-.16.76-.38 1-.56 -.73-.49-1.56-.32-2.32-.46 .17-.33 1.04-.831 1.54-.89h-.001c-.03-.28-.08-.56-.14-.83 -.03-.12-.16-.22-.27-.29 -.27-.16-.55-.29-.843-.44v0c.27-.18.58-.28.9-.28v0c.3-.02.61.01.9.08 .54.12.97.04 1.39-.33 -.34-.14-.68-.26-1.01-.41v0c-.33-.15-.64-.32-.95-.5 .85.118 1.67.43 2.54.32L12.55.7 10.53.23c1.2-.11 2.32-.128 3.38.38 .29.14.61.266.89.43 .14.08.23.24.34.365 .09.09.16.23.27.29 .42.22.89.23 1.36.22l.01-.16c.47.15 1.01.7 1.01 1.1 -.78 0-1.55-.01-2.33 0 -.09 0-.17.06-.25.09 .07.04.15.12.23.13Zm-1-1.15v0c-.06.03-.08.1-.04.16 0 .01.01.01.02.02v0c.04.08.15.11.24.06 0-.01 0-.01 0-.01 .07-.04.14-.08.23-.125 -.08-.07-.13-.12-.19-.17 -.11-.09-.2-.04-.28.03Z"/></svg>