<svg viewBox="0 0 24 24" xmlns="http://www.w3.org/2000/svg"><path d="M13.73 7.509c-.48.24-.66.67-.66 1.83 0 0 .24-.24.59-.37 .26-.1.48-.24.61-.34 .4-.3.46-.68.46-1.32 0 0-.66-.02-1.03.17m-2.82.27c-.39.34-.51.88-.51.88l-1.29 4.97 -1.07-4.08c-.11-.44-.3-.968-.59-1.33 -.38-.46-1.146-.49-1.23-.49 -.09 0-.85.03-1.23.49 -.3.36-.484.89-.59 1.33L3.3 13.589l-1.29-4.98s-.12-.55-.5-.89c-.64-.56-1.58-.44-1.58-.44l2.45 9.297s.81.05 1.21-.15c.53-.28.78-.49 1.11-1.75 .28-1.13 1.09-4.44 1.16-4.676 .03-.12.08-.4.29-.4 .2 0 .25.27.28.39 .07.23.88 3.54 1.16 4.676 .32 1.26.57 1.47 1.11 1.74 .4.2 1.21.14 1.21.14l2.46-9.3s-.95-.12-1.58.43m3.84 1.08s-.16.23-.51.43c-.23.12-.45.21-.68.32 -.39.18-.5.39-.5.71v6.31s.62.07 1.02-.13c.52-.27.64-.53.64-1.68v-5.64h-.01Zm6.13 3.15l3.11-4.64s-1.32-.23-1.97.36c-.42.38-.89 1.06-.89 1.06l-1.15 1.65c-.06.08-.13.18-.25.18s-.19-.1-.25-.18l-1.15-1.66s-.47-.69-.89-1.07c-.66-.593-1.97-.37-1.97-.37l3.12 4.641 -3.112 4.62s1.37.17 2.02-.42c.41-.38.82-1 .82-1l1.14-1.654c.05-.09.12-.18.24-.18 .11 0 .18.09.24.18l1.14 1.654s.42.61.84.99c.65.59 2 .42 2 .42Z"/></svg>