<svg viewBox="0 0 24 24" xmlns="http://www.w3.org/2000/svg"><path d="M20.105 12.001l3.3-3.708 -4.86-1.06 .49-4.944 -4.55 1.99L11.982-.01 9.472 4.28 4.922 2.28l.49 4.94L.55 8.27l3.3 3.7 -3.31 3.71 4.85 1.05 -.5 4.945 4.55-2 2.5 4.28 2.5-4.29 4.55 1.99 -.5-4.94 4.85-1.06 -3.308-3.708Zm1.6 2.792l-2.87-.99 -1.9-2.471 2.526.94 2.23 2.51Zm.45-6.096l-2.61 2.91 -3.07-1.141 1.84-2.612 3.82.83Zm-4.288-1.33l-1.54 2.17 .08-3.162 1.78-2.42 -.35 3.39Zm-3.31-2.4l3.09-1.354 -1.77 2.378 -2.95 1.04 1.62-2.08Zm1.18 1.77l-.1 3.65 -3.35 1.12V7.95l3.43-1.23Zm-3.77-5.44l1.96 3.37 -1.97 2.52L9.98 4.66l1.971-3.37ZM9.39 4.95L11 7.02 8.05 5.97 6.28 3.59 9.37 4.95Zm2.24 2.99v3.54l-3.34-1.12 -.11-3.66 3.43 1.22ZM7.52 6.36L7.6 9.52 6.07 7.34 5.72 3.95 7.51 6.36Zm-5.74 2.3l3.824-.83 1.83 2.612 -3.07 1.13 -2.6-2.92Zm2.694 3.58l2.526-.94 -1.9 2.471 -2.87.97 2.23-2.52ZM2.38 15.39l2.92-1 3.045.89 -2.622.83 -3.36-.74Zm3.28 5.212l.39-3.9 3.11-.99 .08 3.31 -3.585 1.56Zm3.69-5.708l-3.5-1.03 2.22-2.9 3.33 1.12 -2.07 2.79Zm2.266 7.19L9.9 19.15l-.07-2.78 1.77 2.59v3.1Zm-1.73-6.8l2.06-2.8 2.06 2.79 -2.07 3 -2.07-3.01Zm4.1 3.86l-1.72 2.93v-3.11l1.782-2.6 -.07 2.77Zm-1.52-7.052l3.34-1.13 2.221 2.89 -3.5 1.03 -2.07-2.8Zm2.17 6.93l.07-3.31 3.11.98 .38 3.901 -3.58-1.58Zm3.51-2.92l-2.625-.84 3.04-.9 2.92 1 -3.36.73Z"/></svg>