<svg viewBox="0 0 24 24" xmlns="http://www.w3.org/2000/svg"><path d="M2.227 4.85v0c-1.24 0-2.23.99-2.23 2.22 0 0 0 0 0 0v7.457c0 1.23 1.001 2.23 2.237 2.23h9.253l4.22 2.35 -.97-2.36h7.006c1.23 0 2.23-1 2.23-2.237V7.05c0-1.24-1-2.237-2.24-2.237Zm8.08 1.311c.19 0 .37.07.53.2h-.001c.17.13.28.33.3.56v0c.01.16-.03.32-.1.47 -.39.7-.7 1.89-.96 3.54 -.25 1.6-.34 2.846-.28 3.73 .02.24-.02.46-.12.64V15.3c-.1.2-.3.33-.52.35 -.26.02-.52-.1-.78-.37 -.92-.94-1.64-2.33-2.17-4.18L6.2 11.09c-.48.93-.96 1.87-1.42 2.82 -.58 1.11-1.07 1.67-1.49 1.7 -.27.02-.49-.21-.69-.68C2.1 13.64 1.56 11.16.98 7.49c-.03-.26.02-.48.15-.657 .137-.19.34-.29.61-.31 .5-.04.78.19.85.7 .3 2.051.63 3.78.99 5.21l2.14-4.09c.19-.38.44-.57.73-.59 .43-.03.69.24.8.82 .24 1.3.56 2.41.93 3.356 .25-2.5.68-4.288 1.295-5.4 .14-.274.36-.42.64-.44v-.001c.02-.01.05-.01.08-.01Zm3.734 1.06c.16 0 .34.02.53.06 .68.14 1.21.52 1.57 1.13 .31.53.47 1.16.47 1.93 0 1.01-.26 1.93-.77 2.77 -.59.98-1.36 1.47-2.31 1.47 -.17 0-.35-.02-.53-.06 -.7-.15-1.22-.52-1.57-1.138 -.32-.54-.48-1.19-.48-1.95 0-1.01.25-1.94.76-2.77 .59-.99 1.36-1.48 2.3-1.48Zm6.15 0c.16 0 .34.02.53.06 .69.14 1.21.52 1.57 1.13 .31.53.47 1.16.47 1.93 0 1.01-.26 1.93-.77 2.77 -.59.98-1.36 1.47-2.31 1.47 -.17 0-.35-.02-.53-.06 -.7-.15-1.22-.52-1.57-1.138 -.32-.54-.48-1.19-.48-1.95 0-1.01.25-1.94.76-2.77 .59-.99 1.36-1.48 2.3-1.48Zm-6.11 1.64c-.31-.01-.61.2-.89.62v0c-.26.35-.43.74-.52 1.16 -.05.22-.07.47-.07.71 0 .28.06.58.17.89 .14.38.34.58.57.63 .24.04.51-.06.79-.32 .36-.33.6-.81.74-1.452 .05-.23.06-.47.06-.73v0c-.01-.31-.07-.61-.18-.9 -.15-.39-.35-.59-.58-.64h-.001c-.05-.01-.09-.02-.14-.02Zm6.15 0c-.31-.01-.61.2-.89.62V9.48c-.26.35-.43.74-.52 1.16 -.05.22-.07.47-.07.71 0 .28.06.58.17.89 .14.38.34.58.57.63 .24.04.51-.06.79-.32 .36-.33.6-.81.74-1.452 .04-.23.07-.47.07-.73v0c-.01-.31-.07-.61-.18-.9 -.15-.39-.35-.59-.58-.64v0c-.05-.01-.09-.02-.14-.02Z"/></svg>