<svg viewBox="0 0 24 24" xmlns="http://www.w3.org/2000/svg"><path d="M.75 9.58l-.001-.001c-.42-.01-.76.33-.76.75 -.01 0 0 0 0 0v2.52c0 .42.33.75.758.75H3.88l1.43.79 -.33-.8H7.35v0c.41 0 .75-.34.75-.76 0-.01 0-.01 0-.01v-2.53 0c0-.42-.34-.76-.76-.76 -.01-.01-.01-.01-.01 0H.71Zm2.709.44h.03c.06 0 .12.02.17.06l-.001 0c.06.04.09.11.1.19h0c0 .05-.01.11-.04.16 -.13.23-.24.64-.33 1.19 -.09.54-.12.96-.1 1.26v0c0 .07-.01.15-.04.21h-.001c-.04.06-.11.11-.18.12 -.09 0-.18-.04-.27-.13 -.31-.32-.56-.79-.74-1.42 -.22.42-.375.74-.478.95 -.2.37-.363.56-.502.57 -.09 0-.17-.07-.24-.23 -.17-.44-.352-1.28-.548-2.53h0c-.02-.08 0-.16.05-.23 .04-.07.11-.1.21-.11 .16-.02.265.06.28.23 .1.69.21 1.28.33 1.766l.72-1.39c.06-.13.15-.2.25-.2 .14-.01.23.08.27.28 .08.44.18.81.31 1.13 .08-.85.23-1.46.44-1.83v0c.03-.09.12-.15.21-.15Zm1.29.36c.05 0 .11 0 .18.02 .23.05.41.17.53.38 .1.18.16.39.16.65 0 .34-.09.65-.26.94 -.2.33-.46.5-.79.5v0c-.07-.01-.13-.01-.18-.03v0c-.23-.05-.43-.19-.54-.39v0c-.12-.21-.17-.43-.16-.66 0-.35.08-.66.258-.94 .2-.34.46-.5.78-.5Zm2.08 0c.05 0 .11 0 .18.02 .23.05.41.17.53.38 .1.18.16.39.16.65 0 .34-.09.65-.26.94 -.2.33-.46.5-.79.5v0c-.07-.01-.13-.01-.18-.03H6.46c-.23-.05-.43-.19-.54-.39H5.92c-.12-.21-.17-.43-.16-.66 0-.35.08-.66.26-.94 .2-.34.46-.5.78-.5Zm4.43.04c-.31 0-.55.1-.718.3 -.18.2-.26.49-.26.85 0 .39.08.69.25.9 .17.21.41.31.74.31 .31 0 .55-.11.72-.32 .17-.21.25-.51.25-.89s-.09-.673-.26-.88c-.18-.21-.43-.31-.75-.31Zm-1.47 0v0c-.32-.02-.62.1-.84.32 -.23.22-.34.49-.34.83 0 .36.1.65.32.88 .22.22.5.33.86.33 .1 0 .22-.02.34-.06v-.54c-.12.03-.22.05-.31.05v0c-.16 0-.32-.06-.43-.18 -.11-.12-.16-.28-.16-.48 0-.19.05-.35.15-.47v-.001c.09-.12.24-.19.39-.19 .1 0 .21.01.33.04v-.54 -.001c-.12-.04-.25-.05-.37-.05Zm12.414 0v0c-.32-.02-.62.1-.84.32 -.23.22-.34.49-.34.83 0 .36.1.65.32.88 .22.22.5.33.86.33 .1 0 .22-.02.34-.06v-.54c-.12.03-.22.05-.31.05v0c-.16 0-.32-.06-.43-.18 -.11-.12-.16-.28-.16-.48 0-.19.05-.35.15-.47v0c.09-.12.24-.19.39-.19 .1 0 .21.01.33.04v-.54 -.001c-.12-.04-.25-.05-.37-.05Zm-9.6.06l-.29 2.26h.57l.15-1.56 .39 1.55h.41l.37-1.56 .16 1.55h.6l-.31-2.27h-.8l-.12.5c-.03.13-.06.26-.09.4l-.07.35h0c-.08-.43-.17-.85-.26-1.26h-.78Zm2.76 0l-.29 2.26h.57l.15-1.56 .39 1.55h.41l.375-1.56 .16 1.55h.6l-.31-2.27h-.79l-.12.5c-.03.13-.06.26-.09.4l-.07.35c-.07-.36-.15-.78-.26-1.26h-.78Zm3.98 0v2.26h.61V11.7h.01l.49 1.03h.64l-.49-1.02v-.001c.22-.1.36-.32.37-.56v0c0-.2-.09-.39-.25-.51 -.17-.13-.4-.19-.68-.19h-.72Zm3.37 0v2.26h1.24v-.49h-.63v-.42h.54v-.47h-.54v-.42h.62v-.49H22.7Zm-4.8 0v2.26h1.24v-.49h-.63v-.42h.54v-.47h-.54v-.42h.62v-.49H17.9Zm2.02.43c.14 0 .25.02.31.07 .06.04.09.12.09.22 0 .15-.14.23-.41.24v-.54Zm-15.22.01c-.11 0-.21.06-.31.21v0c-.14.18-.21.41-.2.63 0 .09.02.2.06.3 .04.13.11.19.19.21 .08.01.17-.02.27-.11 .12-.11.2-.28.25-.5 .01-.08.02-.16.02-.25 0-.1-.02-.2-.06-.31 -.05-.13-.12-.2-.2-.22v0c-.02-.01-.03-.01-.05-.01Zm2.083 0c-.11 0-.21.06-.3.21v0c-.14.18-.21.41-.2.63 0 .09.02.2.06.3 .04.13.11.19.19.21 .08.01.17-.02.27-.11 .12-.11.2-.28.25-.5 .01-.08.02-.16.02-.25 0-.1-.02-.2-.06-.31 -.05-.13-.12-.2-.2-.22v0c-.02-.01-.03-.01-.05-.01Zm4.42 0c.23 0 .35.21.35.66 -.01.27-.04.46-.1.55v0c-.06.09-.16.14-.27.13v0c-.11 0-.2-.06-.25-.14 -.06-.1-.09-.28-.09-.57 0-.44.11-.65.33-.65Z"/></svg>