<svg viewBox="0 0 24 24" xmlns="http://www.w3.org/2000/svg"><path d="M6 12c0 .76-.62 1.38-1.39 1.38 -.77 0-1.39-.63-1.39-1.39 0-.77.62-1.39 1.38-1.39 .76 0 1.38.61 1.38 1.38m7.84-5.54c0 1.01-.83 1.84-1.85 1.84s-1.85-.827-1.85-1.85c0-1.02.82-1.85 1.84-1.85s1.84.82 1.84 1.84m-12 5.53v0c0 .5-.42.92-.93.92 -.01 0-.01-.01-.01-.01 -.51-.001-.93-.42-.93-.93 0-.52.41-.923.923-.923 .51 0 .923.41.923.923m22.154 0c0 .5-.42.923-.93.923s-.93-.42-.93-.923c0-.52.41-.923.92-.923 .5 0 .92.41.92.923m-3.24 0c0 .76-.62 1.38-1.39 1.38 -.77 0-1.39-.63-1.39-1.39 0-.77.62-1.39 1.38-1.39 .76 0 1.38.61 1.38 1.38m-8.23 2.83c0 .53.25 1.01.65 1.31 .4.33.65.84.65 1.4 0 1.01-.82 1.83-1.83 1.83h-.04c-1.02 0-1.84-.82-1.84-1.84 0-.57.25-1.08.66-1.41 .39-.3.66-.78.65-1.314v-.13c-.01-.54-.26-1.02-.66-1.32 -.41-.34-.67-.85-.67-1.41 0-1.02.82-1.84 1.83-1.84h.03c1.01 0 1.82.81 1.82 1.83 0 .56-.26 1.07-.66 1.4v0c-.42.3-.67.79-.66 1.31v.12m3.69-2.77c0 .53.25 1.01.65 1.31 .4.33.65.84.65 1.4 0 1.01-.82 1.83-1.83 1.83h-.04c-1.02 0-1.84-.82-1.84-1.84 0-.57.25-1.08.66-1.41 .39-.3.66-.78.65-1.314v-.13c-.01-.54-.26-1.02-.66-1.32 -.41-.34-.67-.85-.67-1.41 0-1.02.82-1.84 1.83-1.84h.03c1.01 0 1.82.81 1.82 1.83 0 .56-.26 1.07-.66 1.4v0c-.42.3-.67.79-.66 1.31v.12m-7.39 0c0 .53.25 1.01.65 1.31H9.22c.41.34.65.86.65 1.4 0 1.01-.82 1.83-1.83 1.83H8c-1.02 0-1.84-.82-1.84-1.84 0-.57.25-1.08.66-1.41 .39-.3.66-.78.65-1.314v-.13c-.01-.54-.26-1.02-.66-1.32 -.41-.34-.67-.85-.67-1.41 0-1.02.82-1.84 1.83-1.84H8c1.01 0 1.82.81 1.82 1.83 0 .56-.26 1.07-.66 1.4h0c-.42.3-.67.79-.66 1.31v.12"/></svg>