<svg viewBox="0 0 24 24" xmlns="http://www.w3.org/2000/svg"><path d="M6.39 1.53H6.38c-.28 0-.54.14-.68.39L.09 11.59H.09c-.15.24-.15.54 0 .78l5.6 9.67H5.69c.14.24.39.39.67.39h11.21c.28 0 .53-.15.67-.4l5.6-9.68v0c.14-.25.14-.55 0-.79l-5.61-9.68v0c-.15-.25-.4-.4-.68-.4Zm.03.83h10.542l-5.21 9.21H5.96l4.71-8.18 0 0c.03-.07.01-.15-.05-.18 -.02-.02-.05-.02-.07-.02l-3.07-.01v0c-.1-.01-.18.04-.23.13l-4.77 8.24H1.04Zm11.33.3l5.4 9.32 -5.38 9.27 -5.3-9.28Zm.17 2.82v0c-.05-.01-.1.02-.12.06l-1.52 2.68v0c-.05.08-.05.17 0 .25l1.94 3.36v0c.04.08.04.18 0 .26l-1.93 3.33v0c-.05.08-.05.17-.01.26l1.52 2.67c.05.08.17.08.22 0l3.55-6.15 -.001-.001c.09-.17.09-.37-.01-.53l-3.58-6.18v0c-.03-.05-.07-.07-.12-.07ZM1.08 12.4h1.43l4.76 8.23h0c.04.08.13.13.22.13l3.07 0v0c.07 0 .13-.06.13-.14 0-.03-.01-.05-.02-.07l-4.73-8.17h5.78l5.25 9.2H6.37Z"/></svg>