<svg viewBox="0 0 24 24" xmlns="http://www.w3.org/2000/svg"><path d="M16.79 11.923c.11.04.22.07.33.12 .45.2.71.55.74 1.04 .04.63.04 1.27 0 1.9 -.05.73-.73 1.29-1.49 1.27 -.74-.03-1.37-.62-1.4-1.35 -.02-.45-.01-.89-.01-1.33 -.01-.24-.01-.25-.25-.25 -1.37-.01-2.73 0-4.089-.01 -.89-.01-1.43.48-1.471 1.46 -.02.38-.1.72-.36 1.01 -.4.45-.9.6-1.48.46 -.56-.14-.867-.53-1.04-1.048 -.12-.37-.06-.74.01-1.1 .34-1.8 1.36-3.01 3.12-3.56 .35-.12.73-.17 1.1-.17 .94 0 1.88 0 2.82-.01 .12 0 .25-.02.38-.03 .702-.06 1.16-.52 1.22-1.36 0-.07 0-.13 0-.2 .01-.79.6-1.396 1.39-1.43 .78-.03 1.43.52 1.49 1.31 .07 1.08-.27 2.04-.92 2.907 -.06.07-.15.14-.18.25Zm-8.543-1.487c-.258-.01-.58.01-.89-.04 -.54-.09-.88-.39-1.02-.92 -.16-.58-.1-1.1.351-1.53 .45-.44.99-.56 1.58-.32 .52.21.859.73.89 1.29 .02.44 0 .89 0 1.33 0 .11-.05.16-.17.16 -.24-.01-.48-.01-.78-.01ZM21.68 0H2.31C1.09 0 .1.986.1 2.202v19.31c0 1.37 1.111 2.48 2.481 2.48h18.8c1.37 0 2.48-1.12 2.48-2.49V2.18c-.01-1.22-.99-2.21-2.21-2.21Zm-1.56 12.473c.51.8.73 1.69.67 2.657 -.11 1.88-1.42 3.47-3.25 3.91 -2.59.62-4.57-.93-5.24-2.8 -.11-.31-.16-.63-.23-.99 -.07.41-.12.78-.27 1.13 -.7 1.61-1.89 2.6-3.67 2.79 -2.104.23-4.048-1.07-4.632-3.09 -.25-.87-.18-1.75-.07-2.625 .08-.66.32-1.27.63-1.85 .05-.11.05-.19-.01-.29 -.57-.85-.78-1.78-.7-2.79 .04-.54.17-1.06.41-1.54 .71-1.42 2.28-2.62 4.388-2.42 1.84.17 3.56 1.77 3.83 3.564 .01.09.03.17.06.31 .04-.25.07-.44.11-.64 .34-1.63 1.94-3.335 4.2-3.357 2.29-.03 3.99 1.77 4.31 3.44 .17.88.08 1.77-.11 2.66 -.12.51-.31 1-.53 1.49 -.06.13-.05.23.03.36Z"/></svg>