<svg viewBox="0 0 24 24" xmlns="http://www.w3.org/2000/svg"><path d="M19.94 1.9L10.848 13.77l4.59 6.39v-.001c-.85.15-1.71.22-2.56.22 -2.39 0-4.59-.58-6.316-1.55l6.556-8.63 -6.04-8.311 -4.87-.01 7.57 10.57 -4.332 5.66c-1.7-1.27-2.729-2.965-2.729-4.84 0-2.13 1.34-4.042 3.48-5.35l-.66-1c-3.35 1.41-5.57 3.9-5.57 6.74 0 2.43 1.635 4.61 4.212 6.07l-1.77 2.3h1.66l1.29-1.71c1.89.83 4.15 1.314 6.59 1.314h0c1.41 0 2.81-.17 4.18-.51l.65.9h4.86l-1.73-2.43c2.47-1.47 4.02-3.6 4.02-5.97 0-2.94-2.39-5.52-5.948-6.9l-.22.31c3.099 1.21 5.195 3.53 5.195 6.18 0 2.202-1.44 4.17-3.7 5.47l-5.16-7.22L21.47 1.8ZM12 5.75c-.59 0-1.22.04-1.78.1 1 1.3 1.83 2.41 2.795 3.67 -.54-1.157-1.65-2.27-1.27-2.84 .37-.57 1.07-.47 1.12-.47 1.11 0 2.19.12 3.2.36l.23-.33c-1.35-.35-2.8-.51-4.33-.51Z"/></svg>