<svg viewBox="0 0 24 24" xmlns="http://www.w3.org/2000/svg"><path d="M12 0C5.373 0 0 5.373 0 12c0 6.62 5.373 12 12 12 6.62 0 12-5.38 12-12 0-6.63-5.38-12-12-12Zm6.58 14.65c-1.49 0-2.69-1.21-2.69-2.689 0-1.49 1.2-2.7 2.69-2.7 1.48 0 2.69 1.2 2.69 2.69 0 1.48-1.21 2.689-2.69 2.689ZM7.52 14.63c-.1 0-.2-.05-.27-.12L5.21 12.47l-2.06 2.04c-.07.06-.16.1-.258.1 -.21 0-.37-.17-.37-.37 0-.1.04-.2.11-.27l2.04-2.05L2.63 9.87c-.08-.07-.12-.17-.12-.27 0-.21.16-.37.36-.37 .09 0 .18.03.258.1L5.18 11.37 7.23 9.33c.06-.08.16-.11.26-.11 .21 0 .375.16.375.36 0 .09-.03.18-.11.25L5.7 11.88l2.05 2.051c.06.06.1.16.1.25 0 .2-.17.36-.37.36h-.01Zm8.017-4.6c-.8.1-.89.47-.89 1.404v2.78c0 .2-.17.36-.37.36 -.21 0-.37-.17-.37-.37v-4.53c0-.21.16-.37.36-.37 .16 0 .31.125.34.28 .27-.21.6-.32.93-.32h.1c.19 0 .359.16.359.36 0 .2-.17.35-.375.359 0 0-.09 0-.17 0l.05-.01Zm-3.1 2.205H8.6c0 .01 0 .03 0 .05 .02.1.04.21.08.31 .19.53.76 1.27 1.82 1.29 .33-.01.63-.09.9-.23 .21-.12.391-.28.52-.43 .04-.06.09-.12.12-.17 .18-.23.4-.19.54-.09 .16.13.18.391.04.57l-.02.01c-.21.27-.44.49-.69.66 -.26.16-.53.28-.82.34 -.33.09-.65.1-.98.06 -1.1-.14-2.01-.93-2.28-2.01 -.06-.21-.09-.42-.09-.65 0-.86.42-1.7 1.12-2.205 .88-.62 2.08-.66 3-.08 .63.4 1.03 1.02 1.18 1.77 .07.41-.21.79-.734.81l.06-.05Zm6.129-2.23c-1.064 0-1.94.86-1.94 1.93 0 1.064.86 1.93 1.93 1.93 1.06 0 1.93-.87 1.93-1.94 0-1.07-.87-1.94-1.94-1.94v0Zm0 2.59c-.37 0-.67-.3-.67-.67 0-.37.3-.67.66-.67 .36 0 .66.29.66.66 0 .36-.3.66-.67.66Zm-8.04-2.61c-.91 0-1.68.62-1.89 1.46v.03h3.776c-.21-.86-.98-1.5-1.891-1.5v-.01Z"/></svg>