<svg viewBox="0 0 24 24" xmlns="http://www.w3.org/2000/svg"><path d="M18.188 0c-.52 0-.75.325-.93.66 0 0-7.46 13.22-7.71 13.657 .01.02 4.91 9.023 4.91 9.023 .17.3.43.66.96.66h3.45c.21 0 .375-.08.46-.22 .08-.16.08-.35-.01-.54l-4.88-8.916c-.01-.01-.01-.02 0-.03L22.098.74c.09-.2.09-.39 0-.54 -.09-.15-.26-.23-.46-.23h-3.5ZM3.64 4.74c-.22 0-.39.07-.48.21 -.09.14-.08.33.02.53l2.34 4.05c0 .01 0 .01 0 .02L1.85 16.04c-.1.18-.1.38-.001.52 .08.14.23.23.45.23h3.461c.51 0 .766-.35.94-.67l3.73-6.609 -2.378-4.16c-.18-.32-.44-.66-.97-.66H3.61v.01Z"/></svg>