<svg viewBox="0 0 24 24" xmlns="http://www.w3.org/2000/svg"><path d="M24 3.18l-3.22 1.24 -.98.32 -3.122.92c.01.18.01.36.01.55 0 3.42-1.75 7.59-4.63 10.57C9.24 13.8 7.56 9.71 7.56 6.34c0-.2 0-.38.01-.56l-3.11-.93v-.01l-.87-.31 -3.63-1.42C.1 8.85 4.82 14.81 10.51 18.13c-1.3 1.01-2.766 1.78-4.37 2.192v.31c.43-.06.85-.14 1.271-.23 .15-.03.3-.05.45-.08l.04-.02c1.36-.29 2.72-.78 4.052-1.41 .39.19.79.38 1.2.54 .1.05.22.09.33.14 .2.08.4.15.61.23 1.25.47 2.56.8 3.96.92v-.31c-1.68-.43-3.22-1.27-4.56-2.36 5.65-3.27 10.31-9.2 10.46-14.99Z"/></svg>