<svg viewBox="0 0 24 24" xmlns="http://www.w3.org/2000/svg"><path d="M20.16 12.594l-5 1.43c-.96.27-1.74-.8-1.18-1.63l2.9-4.308 0 0c.33-.5.99-.63 1.48-.29 .03.02.07.05.1.08v0c1.01.89 1.82 2 2.36 3.25v0c.23.54-.02 1.17-.56 1.41 -.05.01-.09.03-.14.04Zm-5.03 3.15l4.942 1.6v0c.56.18.87.78.68 1.35 -.02.04-.04.08-.06.12v0c-.59 1.22-1.43 2.3-2.47 3.16h-.001c-.46.37-1.14.31-1.52-.15 -.03-.04-.06-.08-.09-.12l-2.76-4.41c-.53-.85.28-1.9 1.23-1.59Zm-4.8-4.37L5.44 2.91V2.91c-.3-.52-.12-1.17.39-1.47 .02-.02.04-.03.06-.04l0 0C7.54.61 9.32.13 11.15-.02V-.02c.58-.05 1.1.39 1.14.98 0 .02 0 .05 0 .08v9.76c0 1.096-1.45 1.48-2 .53Zm-.86 4.17l-5.05 1.25v0c-.58.14-1.16-.21-1.3-.79 -.02-.05-.02-.1-.03-.14l0-.001c-.16-1.35-.01-2.72.43-4v0c.18-.57.79-.87 1.35-.68 .04.01.08.03.12.05l4.66 2.279c.9.43.76 1.76-.21 2Zm.88 1.47c.66-.75 1.9-.25 1.86.75l-.19 5.18v0c-.03.59-.52 1.05-1.12 1.03 -.05-.01-.1-.01-.14-.02h0c-1.34-.23-2.61-.74-3.73-1.51H7.02c-.49-.34-.61-1.01-.28-1.5 .02-.04.05-.08.08-.11l3.47-3.87Z"/></svg>