<svg viewBox="0 0 24 24" xmlns="http://www.w3.org/2000/svg"><path d="M5.145 13.1h-.55v-1.545l.54.54v.99ZM2.95 13l.54.54v.77l-1.1-1.1v-3.1L.98 8.7v0c.14-.12.29-.23.46-.31l1.49 1.48v-1.8 0c.49 0 .89.41.88.9 -.01.45-.36.83-.81.88h.7l0 0 .54.54H2.91v2.54Zm.54-2.545l-.01 2.63h.54l0-2.09 -.55-.548Zm1.87 1.09l-.55-.55h-.79l.54.54h.782Zm-3.51 1.16v-2.35L.59 9.095c-.12.14-.23.29-.31.46L1.3 10.57v.77L.07 10.101c-.06.21-.09.44-.1.68l1.87 1.9Zm-1.87-1.13v.77l3.49 3.49v-.78l-3.5-3.5Zm6.22.81h-.55v.69h-.55v0c0 .49.4.89.899.89 .49 0 .899-.41.899-.9l-.71-.69Zm2.97.7l1.65-3.186H8.27l-.41.78h1.46l-1.66 3.18h2.55l.41-.78H9.15Zm2.95-2.407h1.3v-.78h-2.27v3.96h2.27v-.78h-1.31v-.82h1.3v-.78h-1.31v-.81Zm1.78-.78v3.96h1.62c.4 0 .64-.06.83-.19 .25-.18.4-.5.4-.87 0-.3-.09-.53-.27-.69 -.125-.12-.24-.18-.48-.23 .21-.06.3-.12.41-.24v0c.18-.19.27-.44.26-.69 0-.38-.17-.72-.44-.89 -.22-.14-.51-.19-1.01-.19h-1.36Zm.96.72h.22c.45 0 .63.13.63.45s-.19.46-.63.46h-.24v-.93Zm0 1.62h.22c.29 0 .38.01.49.07 .14.07.21.21.21.4 0 .32-.18.45-.58.45h-.35v-.94Zm3.23.09l.86 1.53h1.15l-.88-1.46c.51-.21.76-.6.76-1.21 0-.44-.16-.79-.43-1.01 -.27-.21-.65-.3-1.17-.3h-1.29v3.96h.96v-1.54Zm0-.55v-1.1h.36c.34 0 .57.22.57.55 0 .34-.24.54-.63.54h-.31Zm4.56 1.29h-1.29l-.25.78h-1.02l1.3-3.97h1.22l1.3 3.96h-1.05l-.25-.78Zm-.25-.78l-.4-1.27 -.4 1.27h.79Z"/></svg>