<svg viewBox="0 0 24 24" xmlns="http://www.w3.org/2000/svg"><path d="M23.82 11.163h0c-.12-.26-.27-.49-.47-.69v0c-.41-.41-.96-.63-1.53-.63v-.001c-.44-.01-.86.12-1.21.36v-.001c-.19.12-.36.27-.5.45 -.06.07-.125.17-.17.23v0c-.09.14-.16.3-.21.46 0-.27.04-.68.2-.9V8.49v0c0-.13-.05-.24-.14-.33V8.16c-.09-.09-.2-.14-.32-.14v0c-.13-.01-.24.04-.33.13v0c-.09.08-.14.2-.13.32v1.73 0c-.19-.13-.39-.23-.6-.3v0c-.5-.17-1.03-.15-1.5.06V9.95c-.52.21-.94.62-1.16 1.14l-.03.06h0c-.12-.28-.28-.54-.49-.75v0c-.41-.41-.96-.63-1.53-.63l0 0c-.29-.01-.58.05-.85.16v0c-.26.1-.49.26-.69.45l-.001 0c-.2.19-.36.42-.47.68l-.03.05 -.03-.06v0c-.34-.8-1.13-1.32-1.99-1.32 -.31 0-.59.05-.85.16v0c-.26.1-.49.26-.69.45 -.2.19-.36.42-.47.68l-.02.05 -.03-.06h-.001c-.12-.26-.27-.49-.47-.69v0c-.41-.41-.96-.63-1.53-.63V9.69c-.29-.01-.58.05-.85.16v0c-.24.1-.46.24-.65.41v-.08 0c0-.26-.21-.47-.47-.47H.35v0c-.26 0-.47.2-.47.46 0 .25.2.46.46.46h2.54l-3 4.02h0c-.06.07-.1.17-.1.27v.3c0 .25.2.46.46.46h3.44v0c.24 0 .44-.19.46-.43v-.001c.38.3.85.47 1.34.47 .44 0 .84-.12 1.19-.36 .28-.2.5-.44.66-.72v.62c0 .12.04.23.13.32v0c.08.08.2.13.32.13s.22-.05.31-.14v-.001c.08-.09.14-.2.13-.33v-1.62h-.01l0-.01H7.07h0c-.19-.01-.36.11-.42.28l-.08.15v-.001c-.1.21-.26.4-.46.53v0c-.21.13-.45.2-.69.19 -.17 0-.33-.04-.49-.1v0c-.16-.07-.29-.16-.4-.27H4.53c-.12-.12-.21-.26-.27-.4v0c-.07-.16-.11-.32-.1-.48v-.41h4.02v-1.38 0c-.01-.33.13-.65.36-.88v0c.23-.24.55-.37.88-.37 .16 0 .32.03.48.09 .15.06.28.15.39.27 .11.11.19.24.26.39 .06.15.1.31.1.47v3.47c0 .12.04.23.13.32v-.001c.08.08.2.13.32.13s.22-.05.31-.14v0c.08-.09.13-.21.13-.33v-.63l-.001 0c.38.66 1.09 1.08 1.86 1.07 .29 0 .57-.06.83-.17 .26-.12.49-.27.69-.46v-.001c.21-.21.37-.46.48-.74l.01.04c.11.26.26.48.46.68 .19.19.42.34.68.45 .25.11.53.16.84.16v0c.57 0 1.11-.23 1.52-.63 .19-.2.35-.43.46-.69l.02-.06 .02.06c.11.26.26.48.46.68v0c.4.4.95.62 1.52.62 .29 0 .57-.06.83-.17l-.001-.001c.25-.11.49-.27.69-.46v0c.4-.41.63-.95.63-1.53v-1.79h-.001c0-.29-.06-.58-.18-.84Zm-22.67 3.8l2.41-3.26c-.02.09-.02.19-.02.29v1.77c0 .29.05.57.17.83 .05.12.11.23.18.34Zm5.81-2.5H4.45v-.47 0c-.01-.51.3-.96.76-1.15 .15-.07.31-.1.48-.1 .16 0 .32.03.48.09 .15.06.28.15.39.26 .11.11.19.24.26.39 .06.15.1.31.1.47Zm8.05 1.31v-.001c-.01.68-.57 1.24-1.26 1.24 -.17 0-.33-.04-.49-.1v0c-.16-.07-.29-.16-.4-.27h-.001c-.12-.12-.21-.26-.27-.4v-.001c-.07-.16-.11-.32-.1-.48v-1.79 0c-.01-.69.55-1.25 1.23-1.25 0-.01.01 0 .01 0 .16 0 .32.03.48.09 .15.06.28.15.39.26 .11.11.2.24.26.39 .06.15.1.31.1.47Zm4.02 0c0 .16-.04.32-.1.47v0c-.07.14-.16.28-.27.39v0c-.12.11-.25.2-.4.26v0c-.16.06-.32.09-.49.09v0c-.34 0-.66-.13-.89-.37v0c-.24-.24-.37-.55-.37-.88v-1.79c0-.17.03-.33.1-.48l-.001-.001c.06-.15.15-.29.26-.4v0c.11-.12.24-.21.39-.27v0c.15-.07.31-.1.48-.1v-.001c.33-.01.65.12.88.36v0c.23.23.36.54.36.87Zm4.02 0l0 0c0 .32-.13.64-.37.87 -.12.11-.25.2-.4.26h0c-.16.06-.33.09-.49.09v-.001c-.17 0-.34-.04-.49-.1v0c-.16-.07-.29-.16-.4-.27v0c-.12-.12-.21-.26-.27-.4v0c-.07-.16-.11-.32-.1-.48v-1.79h-.001c-.01-.69.55-1.25 1.23-1.25 0-.01.01 0 .01 0 .16 0 .32.03.48.09 .15.06.29.15.39.27 .11.11.2.24.26.39 .06.15.1.31.1.47v1.77Z"/></svg>