<svg viewBox="0 0 24 24" xmlns="http://www.w3.org/2000/svg"><path d="M12.27 0l-.001 0c-.8-.03-1.6.05-2.37.24v0C7.98.68 6.27 1.76 5.06 3.29V3.29c-1.06 1.29-1.71 2.88-1.85 4.55l-.001 0c-.08.72-.03 1.46.15 2.16l0 0c.26.94.61 1.86 1.05 2.74v0c.73 1.49 1.57 2.94 2.49 4.33v-.001c1.56 2.38 3.25 4.67 5.05 6.88l.06-.08c.45-.58.923-1.14 1.36-1.73 .78-1.05 1.56-2.11 2.34-3.17v0c.17-.22.24-.49.21-.76v0c-.08-.54-.58-.9-1.11-.82 -.04 0-.07.01-.09.01 -.31.07-.5.28-.68.52 -.55.75-1.1 1.5-1.65 2.25 -.15.2-.31.39-.49.55l0-.001c-1.59-2.03-3.05-4.16-4.38-6.36 -.77-1.28-1.47-2.59-2.01-3.98v0c-.14-.33-.25-.67-.34-1.01 -.11-.44-.1-.9-.07-1.35v0c.01-.57.12-1.12.32-1.65 .24-.61.5-1.2.9-1.72v0C7 3.71 7.91 2.97 8.97 2.48c.78-.36 1.596-.62 2.47-.62v0c.44-.01.89 0 1.34.03v0c.31.02.63.07.94.16 1.48.44 2.74 1.25 3.69 2.49l-.001-.001c.38.52.7 1.09.92 1.7l-.001 0c.11.28.2.58.27.88V7.12c.04.22.07.44.08.67 .04.49.06.99-.05 1.47 -.08.32-.18.641-.31.95 -.14.359-.29.71-.44 1.05V9.61v0c0-.21-.06-.41-.19-.56v0c-.12-.14-.26-.25-.4-.36 -1.62-1.23-3.24-2.46-4.86-3.69v0c-.35-.27-.83-.26-1.17 0 -.22.16-.43.32-.64.48l-1.28.97v-.92c-.01-.09-.02-.18-.04-.27H9.3c-.01-.55-.46-.98-1-.98 -.55 0-.98.45-.98.99 0 .07.01.15.03.23v2.32 0c0 .06-.03.11-.08.15 -.2.14-.38.28-.57.42l-.03.02h-.001c-.43.33-.49.95-.15 1.37 .33.42.95.49 1.37.15l3.82-2.92 0-.01V7c.04-.04.1-.04.14 0l2.26 1.73c.52.39 1.03.8 1.564 1.19v0c.09.05.14.16.13.27v4.83c0 .02 0 .03 0 .05v0c0 .04 0 .08.01.12v0c-.01 0-.01 0 0 0 0 0 0 .01 0 .02v0c0 .02 0 .04.01.07v-.001c0 .03.01.06.02.09v0c.01.03.02.06.03.09v0c.22.49.81.7 1.3.47 .22-.11.4-.3.49-.53l.03-.05c.31-.54.63-1.08.93-1.63 .59-1.09 1.13-2.2 1.51-3.375v0c.21-.6.33-1.23.375-1.86v0c.02-.87-.09-1.74-.34-2.561v0c-.5-1.73-1.53-3.24-2.95-4.34 -1.54-1.22-3.3-1.84-5.25-1.91Zm-1.093 10.2h-.001c-.57.01-1.01.48-1 1.04v1.61h0c.01.56.47 1.01 1.03 1h1.61v0c.56-.01 1.01-.46 1.01-1.03 -.01-.01-.01-.01-.01-.01v-1.62 0c-.01-.57-.46-1.02-1.02-1.03h-.81v-.01Zm.07.95h1.54c.07 0 .1.03.1.1v.77l0 0c0 .24-.01.49 0 .74 0 .08-.03.11-.12.11h-1.529c-.08 0-.11-.03-.11-.11v-1.53c0-.08.02-.11.1-.11Z"/></svg>