<svg viewBox="0 0 24 24" xmlns="http://www.w3.org/2000/svg"><path d="M17.15.01C7.68.01-.01 7.7-.01 17.16h2.3C2.32 8.946 8.96 2.3 17.14 2.3V-.01Zm0 4.574c-6.932 0-12.584 5.65-12.584 12.58H6.86c.03-5.68 4.63-10.29 10.283-10.29V4.56Zm0 5.7v0c-3.78-.01-6.85 3.05-6.85 6.82 -.01 0-.01.01-.01.01h0c-.01 3.77 3.05 6.84 6.83 6.84 0 0 0 0 .01 0v0c3.77 0 6.84-3.06 6.84-6.83 0-.01 0-.02-.01-.02v0c0-3.78-3.06-6.84-6.83-6.85 -.01-.01-.02-.01-.02 0Zm-2.28 3.17h5.73l-3.058 4.86H20.6l-1.4 2.15H13.4l3.144-4.93h-3l1.31-2.1Z"/></svg>