<svg viewBox="0 0 24 24" xmlns="http://www.w3.org/2000/svg"><path d="M14.135 6.81v1.71h-1.22V9.9h1.21v2.6c0 1.62.94 2.48 2.35 2.48 .23 0 .56-.03.78-.08v-1.35c-.15.03-.32.05-.47.05 -.71 0-1.205-.33-1.205-1.14V9.88h1.67V8.49h-1.68V6.77Zm6.73 1.58c-1.846 0-3.3 1.44-3.3 3.3 0 1.9 1.45 3.36 3.32 3.36 1.57 0 2.78-.89 3.02-2.24h-1.47c-.14.55-.75.91-1.54.91 -1.04 0-1.69-.59-1.88-1.54h4.9c.02-.12.03-.45.03-.62 0-1.87-1.4-3.192-3.13-3.192ZM-.01 8.52v1.39H3.92l-3.928 3.6v1.4H5.71v-1.4H1.77l3.94-3.6v-1.4Zm6.037 0l2.54 6.05 -1.16 2.59h1.57l3.61-8.65h-1.57l-1.72 4.35 -1.72-4.36Zm14.758 1.19c.875 0 1.49.51 1.62 1.24h-3.33c.21-.79.83-1.25 1.7-1.25Z"/></svg>