<svg viewBox="0 0 24 24" xmlns="http://www.w3.org/2000/svg"><path fill="none" d="M0 0h24v24H0V0Z"/><g><path opacity=".3" d="M16.5 12c1.93 0 3.5-1.57 3.5-3.5C20 6.57 18.43 5 16.5 5 14.57 5 13 6.57 13 8.5c0 1.93 1.57 3.5 3.5 3.5Z"/><path opacity=".3" d="M15.01 17a1 1 0 1 0 0 2 1 1 0 1 0 0-2Z"/><path opacity=".3" d="M7 12a2 2 0 1 0 0 4 2 2 0 1 0 0-4Z"/><path d="M7 18c2.21 0 4-1.79 4-4s-1.79-4-4-4 -4 1.79-4 4 1.79 4 4 4Zm0-6c1.1 0 2 .9 2 2s-.9 2-2 2 -2-.9-2-2 .9-2 2-2Zm11.01 6c0-1.65-1.35-3-3-3s-3 1.35-3 3 1.35 3 3 3 3-1.35 3-3Zm-4 0c0-.55.45-1 1-1s1 .45 1 1 -.45 1-1 1 -1-.45-1-1Zm2.49-4c3.03 0 5.5-2.47 5.5-5.5C22 5.47 19.53 3 16.5 3 13.47 3 11 5.47 11 8.5c0 3.03 2.47 5.5 5.5 5.5Zm0-9C18.43 5 20 6.57 20 8.5c0 1.93-1.57 3.5-3.5 3.5s-3.5-1.57-3.5-3.5C13 6.57 14.57 5 16.5 5Z"/></g></svg>