<svg viewBox="0 0 20 20" xmlns="http://www.w3.org/2000/svg"><path fill="none" d="M0 0h20v20H0Z"/><g><path d="M13 4.5c0-.28-.22-.5-.5-.5H11l-.85-.85c-.1-.1-.22-.15-.36-.15H6.21c-.14 0-.26.05-.36.15L5 4H3.5c-.28 0-.5.22-.5.5s.22.5.5.5h9c.28 0 .5-.22.5-.5Z"/><path d="M12.5 8c-.17 0-.33.03-.5.05V7c0-.55-.45-1-1-1H5c-.55 0-1 .45-1 1v7c0 .55.45 1 1 1h3.76c.81 1.21 2.18 2 3.74 2 2.49 0 4.5-2.01 4.5-4.5s-2.01-4.5-4.5-4.5Zm0 8C10.57 16 9 14.43 9 12.5 9 10.57 10.57 9 12.5 9c1.93 0 3.5 1.57 3.5 3.5s-1.57 3.5-3.5 3.5Z"/><path d="M13 12.42V10.5c0-.28-.22-.5-.5-.5v0c-.28 0-.5.22-.5.5v2.21c0 .18.1.34.25.43l1.92 1.11c.24.14.54.06.68-.18v0c.14-.24.06-.54-.18-.68L13 12.42Z"/></g></svg>