<svg viewBox="0 0 20 20" xmlns="http://www.w3.org/2000/svg"><path fill="none" d="M0 0h20v20H0Z"/><g><path d="M3.5 8H8c0-.55-.45-1-1-1H3.5c-.28 0-.5.22-.5.5s.22.5.5.5Z"/><path d="M17 11.51V7c0-.55-.45-1-1-1h-4.47l-.8-.8 1.06-1.06 -.53-.53 -2.65 2.66 .53.53 1.06-1.06 .8.8V9c0 .55-.45 1-1 1H7.93c-.27-.26-.57-.48-.91-.64l-.19.44 -.35-.14 .19-.44C6.3 9.08 5.91 9 5.5 9c-.4 0-.79.08-1.15.21l.18.44 -.34.15L4 9.35c-.72.34-1.3.92-1.65 1.64l.45.19 -.14.35 -.44-.19c-.14.36-.22.75-.22 1.16 0 .4.08.79.21 1.15l.44-.18 .14.35 -.44.18c.34.72.92 1.3 1.64 1.65l.19-.45 .35.14 -.19.44c.36.14.75.22 1.16.22 .4 0 .79-.08 1.15-.21l-.18-.44 .35-.14 .18.44c.72-.34 1.3-.92 1.65-1.64l-.45-.18 .14-.35 .44.19c.08-.22.13-.44.17-.67h4.1c-.03.16-.05.33-.05.5 0 1.38 1.12 2.5 2.5 2.5s2.5-1.12 2.5-2.5c0-.82-.4-1.53-1-1.99ZM5.5 15C4.12 15 3 13.88 3 12.5 3 11.12 4.12 10 5.5 10 6.88 10 8 11.12 8 12.5 8 13.88 6.88 15 5.5 15Zm8.01-3H8.95c-.04-.22-.09-.44-.16-.65l-.44.18 -.15-.34s.45-.19.45-.19H10c1.1 0 2-.9 2-2V7h4v4.05c-.16-.03-.33-.05-.5-.05 -.82 0-1.53.4-1.99 1Zm1.99 3c-.83 0-1.5-.67-1.5-1.5s.67-1.5 1.5-1.5 1.5.67 1.5 1.5 -.67 1.5-1.5 1.5Z"/><path opacity=".3" d="M16 11.05V7h-4v2c0 1.1-.9 2-2 2H8.65v0c.05.11.1.23.14.35v0s0 .01 0 .01c.07.2.12.41.15.62 0 .01 0 .01 0 .02h4.56c.46-.6 1.17-1 1.99-1 .18 0 .35.02.51.05Z"/></g></svg>