<svg viewBox="0 0 24 24" xmlns="http://www.w3.org/2000/svg"><path fill="none" d="M0 0h24v24H0V0Z"/><g><path opacity=".3" d="M17.5 15a2.5 2.5 0 1 0 0 5 2.5 2.5 0 1 0 0-5Z"/><path opacity=".3" d="M5 15.5h4v4H5Zm7-9.66L10.07 9h3.86Z"/><path d="M12 2l-5.5 9h11L12 2Zm0 3.84L13.93 9h-3.87L12 5.84ZM17.5 13c-2.49 0-4.5 2.01-4.5 4.5s2.01 4.5 4.5 4.5 4.5-2.01 4.5-4.5 -2.01-4.5-4.5-4.5Zm0 7c-1.38 0-2.5-1.12-2.5-2.5s1.12-2.5 2.5-2.5 2.5 1.12 2.5 2.5 -1.12 2.5-2.5 2.5ZM11 13.5H3v8h8v-8Zm-2 6H5v-4h4v4Z"/></g></svg>