<svg viewBox="0 0 24 24" xmlns="http://www.w3.org/2000/svg"><path fill="none" d="M0 0h24v24H0V0Z"/><g><path opacity=".3" d="M4.94 7.26l2.21 2.21c1.44-.91 3.11-1.4 4.85-1.4 1.74 0 3.41.49 4.84 1.4l2.21-2.21C17 5.79 14.56 5 12 5c-2.56 0-5.01.79-7.06 2.26Z"/><path opacity=".3" d="M12 14a3 3 0 1 0 0 6 3 3 0 1 0 0-6Z"/><path d="M17 17c0-2.76-2.24-5-5-5s-5 2.24-5 5 2.24 5 5 5 5-2.24 5-5Zm-8 0c0-1.65 1.35-3 3-3s3 1.35 3 3 -1.35 3-3 3 -3-1.35-3-3ZM2 7.15l5 5c1.28-1.28 3.05-2.08 5-2.08 1.95 0 3.72.79 5 2.07l5-5C19.44 4.59 15.9 3 12 3 8.1 3 4.56 4.59 2 7.15Zm14.84 2.32c-1.44-.91-3.1-1.4-4.84-1.4 -1.74 0-3.41.49-4.85 1.41L4.94 7.26C6.99 5.79 9.44 5 12 5c2.56 0 5 .79 7.05 2.26l-2.21 2.21Z"/></g></svg>