<svg viewBox="0 0 24 24" xmlns="http://www.w3.org/2000/svg"><path fill="none" d="M0 0h24v24H0Z"/><g><path opacity=".3" d="M15.91 9.28l-1.3-1.3L5 17.59 5 19l1.41 0 9.61-9.61Z"/><path opacity=".3" d="M10.83 8.93l-1.2-1.2 -1.19 1.19L7.02 7.5l1.19-1.18 -1.27-1.28 0 0 -1.9 1.9 3.89 3.89Z"/><path opacity=".3" d="M16.27 14.38l-1.2-1.21 -1.9 1.9 3.89 3.89 1.9-1.9 -1.27-1.27 -1.19 1.19 -1.42-1.41Z"/><path opacity=".3" d="M16.44 5.56h2v2h-2Z" transform="scale(.99999) rotate(-45 17.4353 6.56501)"/><path d="M20.97 5.86l-2.83-2.83c-.39-.39-1.02-.39-1.41 0l-4.49 4.49 -3.89-3.89c-.78-.78-2.05-.78-2.83 0l-1.9 1.9c-.78.78-.78 2.05 0 2.83l3.89 3.89L3 16.76V21h4.24l4.52-4.52 3.89 3.89c.95.95 2.23.6 2.83 0l1.9-1.9c.78-.78.78-2.05 0-2.83l-3.89-3.89 4.49-4.49c.38-.38.38-1.01-.01-1.4ZM5.04 6.94l1.89-1.9s0 0 0 0L8.2 6.31 7.02 7.5l1.41 1.41 1.19-1.19 1.2 1.2 -1.9 1.9 -3.88-3.88ZM6.41 19H5v-1.41l9.61-9.61 1.3 1.3 .11.11L6.41 19Zm10.09-2.02l1.19-1.19 1.27 1.27 -1.9 1.9 -3.89-3.89 1.9-1.9 1.2 1.2 -1.19 1.19 1.42 1.42Zm.94-9l-1.41-1.41 1.41-1.41 1.41 1.41 -1.41 1.41Z"/></g></svg>