<svg viewBox="0 0 24 24" xmlns="http://www.w3.org/2000/svg"><path fill="none" d="M0 0h24v24H0Z"/><g><path opacity=".3" d="M5 13h14V8H5v5Zm11.5-4c.83 0 1.5.67 1.5 1.5s-.67 1.5-1.5 1.5 -1.5-.67-1.5-1.5 .67-1.5 1.5-1.5Zm-9 0c.83 0 1.5.67 1.5 1.5s-.67 1.5-1.5 1.5 -1.5-.67-1.5-1.5C6 9.67 6.67 9 7.5 9Z"/><path d="M18.92 2.01C18.72 1.42 18.16 1 17.5 1h-11c-.66 0-1.21.42-1.42 1.01L3 8v8c0 .55.45 1 1 1h1c.55 0 1-.45 1-1v-1h12v1c0 .55.45 1 1 1h1c.55 0 1-.45 1-1V8l-2.08-5.99ZM6.85 3h10.29l1.08 3.11H5.77L6.85 3ZM19 13H5V8h14v5Z"/><path d="M7.5 9a1.5 1.5 0 1 0 0 3 1.5 1.5 0 1 0 0-3Z"/><path d="M16.5 9a1.5 1.5 0 1 0 0 3 1.5 1.5 0 1 0 0-3Z"/><path d="M7 20l4 0 0-2 6 3 -4 0 0 2Z"/></g></svg>