<svg viewBox="0 0 24 24" xmlns="http://www.w3.org/2000/svg"><path fill="none" d="M0 0h24v24H0Z"/><g><path opacity=".3" d="M4 11v1h4V9H6c-1.1 0-2 .9-2 2Z"/><path d="M19 5c0-1.1-.9-2-2-2h-3v2h3v2.65L13.52 12H10V7H6c-2.21 0-4 1.79-4 4v3h2c0 1.66 1.34 3 3 3s3-1.34 3-3h4.48L19 8.35V5ZM7 15c-.55 0-1-.45-1-1h2c0 .55-.45 1-1 1Zm1-3H4v-1c0-1.1.9-2 2-2h2v3Z"/><path d="M5 4h5v2H5Z"/><path d="M19 11c-1.66 0-3 1.34-3 3s1.34 3 3 3 3-1.34 3-3 -1.34-3-3-3Zm0 4c-.55 0-1-.45-1-1s.45-1 1-1 1 .45 1 1 -.45 1-1 1Z"/><path d="M7 20l4 0 0-2 6 3 -4 0 0 2Z"/></g></svg>