<svg viewBox="0 0 20 20" xmlns="http://www.w3.org/2000/svg"><path fill="none" d="M0 0h20v20H0Z"/><g><path opacity=".3" d="M2 11h1.05c.23-1.14 1.24-2 2.45-2 .57 0 1.08.19 1.5.51V8H2v3Z"/><path opacity=".3" d="M16 9.05s0 0 0 0V8h-3v3h1.05c.13-.65.52-1.21 1.05-1.57 .27-.18.57-.31.9-.38Z"/><path d="M17 9.05v-1.7c0-.23-.08-.45-.22-.62L13.3 2.38c-.19-.24-.48-.38-.78-.38H2c-.55 0-1 .45-1 1v8c0 .55.45 1 1 1h1.05c.23 1.14 1.24 2 2.45 2 1.21 0 2.22-.86 2.45-2h6.1c.13.65.52 1.21 1.05 1.57 .27.18.57.31.89.38 .16.03.33.05.5.05 1.38 0 2.5-1.12 2.5-2.5 .01-1.21-.85-2.22-1.99-2.45ZM5.5 13c-.83 0-1.5-.67-1.5-1.5s.67-1.5 1.5-1.5 1.5.67 1.5 1.5 -.67 1.5-1.5 1.5ZM7 9.51C6.58 9.19 6.07 9 5.5 9c-1.21 0-2.22.86-2.45 2H2V8h5v1.51ZM7 7H2V3h5v4Zm5 4H8V8h2V7H8V3h4v8Zm1-7.4L15.72 7H13V3.6Zm1.05 7.4H13V8h3v1.05s0 0 0 0c-.33.07-.63.2-.89.38 -.54.36-.93.92-1.06 1.57Zm2.45 2c-.83 0-1.5-.67-1.5-1.5s.67-1.5 1.5-1.5 1.5.67 1.5 1.5 -.67 1.5-1.5 1.5Z"/><path d="M7 16l2.5 0 0-1 3.5 2 -2.5 0 0 1Z"/></g></svg>