<svg viewBox="0 0 20 20" xmlns="http://www.w3.org/2000/svg"><path fill="none" d="M0 0h20v20H0Z"/><g opacity=".3"><g><path d="M13.56 11.81h1v4.5h-1Z" transform="scale(.99999) rotate(-45 14.0556 14.0557)"/><path d="M3.69 13.56h4.5v1h-4.5Z" transform="scale(.99999) rotate(-45 5.94463 14.0556)"/></g></g><g><path d="M16.71 14.59l-3.54-3.54h-1.41l-.34-.34 -.71.71 .34.34v1.41l3.54 3.54c.39.39 1.02.39 1.41 0l.71-.71c.39-.39.39-1.02 0-1.41ZM15.29 16l-3.18-3.18 .71-.71L16 15.29l-.71.71Z"/><path d="M13.45 9.02l1.06-1.06 1.41 1.41c.78-.78.78-2.05 0-2.83l-2.47-2.47 -.74.74V3.32l-.49-.49 -2.48 2.48 .49.49h1.49l-.74.74 .88.88L10 9.29 7.51 6.81l.15-1.26 -2.3-2.32 -2.13 2.13 2.31 2.31 1.26-.15L9.29 10l-1.05 1.05H6.83l-3.54 3.54c-.39.39-.39 1.02 0 1.41l.71.71c.39.39 1.02.39 1.41 0l3.54-3.54v-1.41l3.62-3.62 .88.88ZM4.71 16L4 15.29l3.18-3.18 .71.71L4.71 16Z"/></g></svg>