<svg viewBox="0 0 20 20" xmlns="http://www.w3.org/2000/svg"><path fill="none" d="M0 0h20v20H0Z"/><g><path opacity=".3" d="M5 15h10V5H5v10Zm5-9c2.21 0 4 1.79 4 4s-1.79 4-4 4 -4-1.79-4-4 1.79-4 4-4Z"/><path d="M15 4H5c-.55 0-1 .45-1 1v10c0 .55.45 1 1 1h10c.55 0 1-.45 1-1V5c0-.55-.45-1-1-1Zm0 11H5V5h10v10Z"/><path d="M10 14c2.21 0 4-1.79 4-4s-1.79-4-4-4 -4 1.79-4 4 1.79 4 4 4Zm0-1c-.88 0-1.67-.39-2.22-1h4.44c-.55.61-1.34 1-2.22 1Zm0-6c.88 0 1.66.39 2.21.99H7.79C8.34 7.39 9.12 7 10 7ZM7.42 8.49h5.15c.22.38.36.8.4 1.26H7.03c.04-.46.17-.89.39-1.26Zm5.56 1.75c-.04.46-.17.88-.39 1.26H7.42c-.22-.38-.36-.8-.39-1.26h5.95Z"/></g></svg>