<svg viewBox="0 0 24 24" xmlns="http://www.w3.org/2000/svg"><path fill="none" d="M0 0h24v24H0V0Z"/><g><path opacity=".3" d="M5.99 4L6 20h12V4H5.99c.01 0-.001 0-.001 0ZM11 5c.55 0 1 .45 1 1s-.45 1-1 1 -1-.45-1-1 .45-1 1-1ZM8 5c.55 0 1 .45 1 1s-.45 1-1 1 -1-.45-1-1 .45-1 1-1Zm4 4c2.76 0 5 2.24 5 5s-2.24 5-5 5 -5-2.24-5-5 2.24-5 5-5Z"/><path d="M18 2.01L6 2c-1.11 0-2 .89-2 2v16c0 1.11.89 2 2 2h12c1.11 0 2-.89 2-2V4c0-1.11-.89-1.99-2-1.99ZM18 20H6L5.99 4H18v16Z"/><path d="M8 5a1 1 0 1 0 0 2 1 1 0 1 0 0-2Z"/><path d="M11 5a1 1 0 1 0 0 2 1 1 0 1 0 0-2Z"/><path d="M12 19c2.76 0 5-2.24 5-5s-2.24-5-5-5 -5 2.24-5 5 2.24 5 5 5Zm2.36-7.36c1.3 1.3 1.3 3.42 0 4.72 -1.3 1.3-3.42 1.3-4.72 0l4.72-4.72Z"/></g></svg>