<svg viewBox="0 0 24 24" xmlns="http://www.w3.org/2000/svg"><path fill="none" d="M0 0h24v24H0Z"/><path d="M12 2c5.523 0 10 4.477 10 10s-4.477 10-10 10C6.477 22 2 17.523 2 12 2 6.477 6.477 2 12 2Zm0 2c-4.418 0-8 3.582-8 8 0 4.41 3.582 8 8 8 4.41 0 8-3.59 8-8 0-4.42-3.59-8-8-8Zm3.833 3.33c.23-.17.55-.14.76.06 .2.2.23.52.06.76 -2.18 3.04-3.38 4.67-3.6 4.897 -.59.58-1.54.58-2.122 0 -.59-.59-.59-1.54 0-2.122 .37-.38 2-1.58 4.89-3.61Zm1.66 3.66c.55 0 1 .44 1 1 0 .55-.45 1-1 1 -.56 0-1-.45-1-1 0-.56.44-1 1-1Zm-11 0c.55 0 1 .44 1 1 0 .55-.45 1-1 1 -.56 0-1-.45-1-1 0-.56.44-1 1-1ZM8.8 7.394c.39.39.39 1.02 0 1.41 -.39.39-1.024.39-1.42 0 -.39-.39-.39-1.024 0-1.42 .39-.39 1.02-.39 1.41 0Zm3.18-1.904c.55 0 1 .44 1 1 0 .55-.45 1-1 1 -.56 0-1-.45-1-1 0-.56.44-1 1-1Z"/></svg>