<svg viewBox="0 0 24 24" xmlns="http://www.w3.org/2000/svg"><path fill="none" d="M0 0h24v24H0Z"/><path d="M12 2c5.523 0 10 4.477 10 10s-4.477 10-10 10C6.477 22 2 17.523 2 12 2 6.477 6.477 2 12 2Zm0 3c-3.87 0-7 3.13-7 7 0 1.85.72 3.53 1.89 4.78l.15.16 1.41-1.42c-.91-.91-1.47-2.16-1.47-3.54 0-2.77 2.23-5 5-5 .44 0 .88.05 1.295.17l1.56-1.57c-.88-.39-1.84-.61-2.86-.61Zm6.39 4.14l-1.561 1.56c.11.41.16.84.16 1.295 0 1.38-.56 2.63-1.47 3.53l1.41 1.41c1.26-1.27 2.05-3.02 2.05-4.95 0-1.02-.22-1.99-.61-2.86Zm-2.15-2.8l-3.73 3.72c-.17-.05-.34-.07-.52-.07 -1.11 0-2 .89-2 2 0 1.1.89 2 2 2 1.1 0 2-.9 2-2 0-.18-.03-.36-.07-.52L17.64 7.74l-1.42-1.42Z"/></svg>