<svg viewBox="0 0 24 24" xmlns="http://www.w3.org/2000/svg"><path fill="none" d="M0 0h24v24H0Z"/><path d="M12 2c5.523 0 10 4.477 10 10s-4.477 10-10 10C6.477 22 2 17.523 2 12 2 6.477 6.477 2 12 2Zm0 2c-4.418 0-8 3.582-8 8 0 4.41 3.582 8 8 8 4.41 0 8-3.59 8-8 0-4.42-3.59-8-8-8Zm0 1c1.01 0 1.98.21 2.85.6l-1.57 1.56c-.42-.11-.85-.17-1.295-.17 -2.77 0-5 2.23-5 5 0 1.38.56 2.63 1.46 3.53l-1.42 1.41 -.16-.17c-1.18-1.26-1.9-2.94-1.9-4.79 0-3.87 3.13-7 7-7Zm6.39 4.14c.39.87.6 1.84.6 2.85 0 1.93-.79 3.683-2.05 4.95l-1.42-1.42c.9-.91 1.46-2.16 1.46-3.54 0-.45-.06-.89-.17-1.295l1.56-1.57Zm-2.15-2.8l1.41 1.41 -3.724 3.726c.04.16.06.33.06.51 0 1.1-.9 2-2 2 -1.11 0-2-.9-2-2 0-1.11.89-2 2-2 .17 0 .35.02.51.06l3.72-3.724Z"/></svg>