<svg viewBox="0 0 24 24" xmlns="http://www.w3.org/2000/svg"><path fill="none" d="M0 0h24v24H0Z"/><path d="M5 12.5c0 .31.46.85 1.53 1.39 1.38.69 3.34 1.1 5.47 1.1 2.12 0 4.08-.42 5.47-1.11 1.06-.54 1.53-1.08 1.53-1.4V10.3c-1.65 1.02-4.173 1.67-7 1.67s-5.35-.66-7-1.68v2.17Zm14 2.82c-1.65 1.02-4.173 1.67-7 1.67s-5.35-.66-7-1.68v2.17c0 .31.46.85 1.53 1.39 1.38.69 3.34 1.1 5.47 1.1 2.12 0 4.08-.42 5.47-1.11 1.06-.54 1.53-1.08 1.53-1.4v-2.18ZM3 17.49v-10c0-2.49 4.03-4.5 9-4.5s9 2.01 9 4.5v10c0 2.48-4.03 4.5-9 4.5s-9-2.02-9-4.5Zm9-7.5c2.12 0 4.08-.42 5.47-1.11C18.53 8.34 19 7.8 19 7.48c0-.32-.47-.86-1.53-1.4 -1.39-.7-3.35-1.11-5.47-1.11 -2.13 0-4.086.41-5.47 1.1C5.46 6.6 5 7.15 5 7.46c0 .31.46.85 1.53 1.39 1.38.69 3.34 1.1 5.47 1.1Z"/></svg>