<svg viewBox="0 0 24 24" xmlns="http://www.w3.org/2000/svg"><path fill="none" d="M0 0h24v24H0Z"/><path d="M12 1v0c4.97 0 9 4.02 9 9v4 0c0 2.92-1.42 5.66-3.81 7.35 .47-1.53.75-3.14.8-4.8l0-.56v-2.01h-2v2l-.01.31v0c-.04 2.18-.53 4.33-1.44 6.31v0c-1.16.34-2.38.44-3.574.31h0c1.23-1.96 1.92-4.21 2-6.52l0-.43v-7h-2v7l-.01.28v0c-.06 2.21-.79 4.37-2.09 6.16v-.001c-.96-.35-1.85-.86-2.63-1.51h0c1.04-1.33 1.64-2.94 1.71-4.63l0-.33v-6l0-.2H7.94c.02-.57.17-1.13.43-1.625l.11-.21 -1.45-1.45 0-.001c-.67.93-1.05 2.03-1.11 3.18l-.01.29v6l-.01.22v0c-.05 1.17-.44 2.31-1.13 3.27v0c-1.22-1.58-1.88-3.51-1.88-5.5v-4 0c0-4.98 4.02-9 9-9Zm0 3c-1.2 0-2.31.35-3.25.95l-.23.15 1.44 1.44V6.53c.54-.33 1.15-.51 1.78-.55l.24-.01 .2 0v0c2.04.1 3.68 1.73 3.795 3.78l0 .2v2h2v-2 0c0-3.32-2.69-6-6-6Z"/></svg>