<svg viewBox="0 0 24 24" xmlns="http://www.w3.org/2000/svg"><path fill="none" d="M0 0h24v24H0Z"/><path d="M11.14 4c-1.59 0-2.39.16-3.128.56v-.001c-.62.32-1.13.83-1.45 1.44 -.4.74-.57 1.54-.57 3.12v5.718c0 1.58.16 2.38.56 3.12 .33.63.81 1.11 1.44 1.44 .74.39 1.54.56 3.128.56h1.718c1.58 0 2.38-.17 3.128-.57v0c.61-.33 1.12-.84 1.44-1.45 .39-.74.56-1.55.56-3.128V9.08c0-1.59-.17-2.39-.57-3.128v0c-.33-.62-.84-1.13-1.45-1.45 -.74-.4-1.55-.57-3.13-.57h-1.72Zm0-2h1.718c2.01 0 3.09.278 4.07.8v-.001c.96.51 1.75 1.3 2.26 2.26 .52.97.8 2.058.8 4.07v5.718c0 2.01-.28 3.09-.81 4.07v0c-.52.96-1.31 1.75-2.27 2.26 -.98.52-2.058.8-4.08.8H11.1c-2.02 0-3.1-.28-4.072-.81l-.001 0c-.97-.52-1.76-1.31-2.27-2.27 -.53-.98-.8-2.058-.8-4.08V9.09c0-2.02.27-3.1.8-4.072l-.001 0c.51-.97 1.3-1.76 2.269-2.27 .97-.53 2.05-.81 4.07-.81Zm-.15 4h2v5h-2V6Z"/></svg>