<svg viewBox="0 0 24 24" xmlns="http://www.w3.org/2000/svg"><path fill="none" d="M0 0h24v24H0Z"/><path d="M4.257 5.67l2.13 2.13 -.001 0c-2.32 3.09-1.69 7.48 1.41 9.79 3.09 2.31 7.48 1.68 9.79-1.42 2.31-3.1 1.68-7.49-1.42-9.8 -2.49-1.86-5.9-1.86-8.39 0L5.63 4.23l-.001-.001c1.78-1.47 4.02-2.27 6.33-2.26 5.52 0 10 4.477 10 10 0 5.52-4.477 10-10 10s-10-4.48-10-10c0-2.41.84-4.61 2.25-6.33Zm3.57 3.57l4.17 4.17 1.41-1.42 -4.18-4.172v0c2.3-1.53 5.4-.89 6.92 1.41 1.52 2.3.88 5.4-1.42 6.92 -2.31 1.52-5.41.88-6.93-1.42 -1.11-1.68-1.11-3.85-.001-5.52Z"/></svg>