<svg viewBox="0 0 24 24" xmlns="http://www.w3.org/2000/svg"><path fill="none" d="M0 0h24v24H0Z"/><path d="M12 18c.71 0 1.37.25 1.88.66l-1.89 2.33 -1.89-2.34v-.001c.53-.44 1.19-.67 1.88-.67ZM2.808 1.39l17.67 17.678 -1.42 1.41 -3.69-3.68 -.25.3h0c-.89-.73-2-1.12-3.15-1.12v0c-1.15-.01-2.26.39-3.141 1.11l-1.89-2.34h0c1.31-1.07 2.93-1.69 4.62-1.766L9.77 11.2v0c-1.51.33-2.91 1.01-4.11 1.98l-1.89-2.34 0-.001c1.07-.88 2.28-1.57 3.58-2.06L5.81 7.25v0c-1.19.53-2.3 1.21-3.31 2.03L.61 6.94c.915-.74 1.9-1.391 2.95-1.95L1.31 2.74 2.72 1.33ZM16.084 11.87L12.21 8l-.22-.01c3.09 0 5.93 1.08 8.17 2.88l-1.89 2.33 0-.001c-.68-.55-1.42-1-2.2-1.36ZM12 3c4.285 0 8.22 1.49 11.31 3.99l-1.89 2.33 0-.001c-2.67-2.16-6-3.34-9.43-3.33 -.58 0-1.14.03-1.69.09L7.71 3.48c1.37-.34 2.8-.52 4.277-.52Z"/></svg>