<svg viewBox="0 0 24 24" xmlns="http://www.w3.org/2000/svg"><path fill="none" d="M0 0h24v24H0Z"/><path d="M12 18c.71 0 1.37.25 1.88.66l-1.89 2.33 -1.89-2.34v-.001c.53-.44 1.19-.67 1.88-.67ZM2.808 1.39l17.67 17.678 -1.42 1.41 -5.18-5.18v0c-.61-.21-1.25-.31-1.9-.31 -1.43 0-2.74.49-3.77 1.33l-1.26-1.56 0 0c1.31-1.07 2.93-1.69 4.62-1.766l-2.6-2.6v0c-1.43.4-2.76 1.09-3.92 2.02l-1.26-1.56 0-.001c1.07-.88 2.28-1.57 3.58-2.06L5.07 6.5l0-.001c-1.14.54-2.21 1.21-3.19 2L.62 6.943c.915-.74 1.9-1.391 2.95-1.95L1.32 2.74 2.73 1.33ZM14.5 10.285l-2.29-2.29 -.22-.01c3.09 0 5.93 1.08 8.17 2.88l-1.26 1.55v0c-1.29-1.05-2.8-1.79-4.42-2.16ZM12 2.995c4.285 0 8.22 1.49 11.31 3.997l-1.26 1.55v0c-2.85-2.31-6.4-3.56-10.053-3.56 -.88 0-1.74.07-2.58.2l-1.7-1.697c1.36-.34 2.8-.51 4.275-.51Z"/></svg>