<svg viewBox="0 0 24 24" xmlns="http://www.w3.org/2000/svg"><g stroke-linecap="round" stroke-width="2" stroke="#000" fill="none" stroke-linejoin="round"><path d="M16 2l0 6 6 0"/><path d="M23 1l-7 7"/><path d="M22 16.92v3 0c0 1.1-.89 2-2 2 -.07 0-.13-.01-.19-.01v0c-3.08-.34-6.04-1.39-8.63-3.07h0c-2.42-1.54-4.47-3.59-6-6l-.001-.001c-1.7-2.61-2.75-5.58-3.07-8.67v-.001c-.1-1.11.71-2.08 1.81-2.18 .05-.01.11-.01.17-.01h3v0c1-.01 1.85.72 2 1.72v0c.12.96.36 1.9.7 2.81v0c.27.73.09 1.55-.45 2.11l-1.27 1.27v0c1.42 2.5 3.49 4.57 6 6l1.27-1.27v0c.55-.55 1.37-.73 2.11-.45v0c.9.33 1.84.57 2.81.7v0c1 .14 1.74 1.01 1.72 2.03Z"/></g></svg>