<svg viewBox="0 0 24 24" xmlns="http://www.w3.org/2000/svg"><g stroke-linecap="round" stroke-width="2" stroke="#000" fill="none" stroke-linejoin="round"><path d="M12 9a3 3 0 1 0 0 6 3 3 0 1 0 0-6Z"/><path d="M19.4 15v0c-.28.61-.15 1.33.33 1.82l.06.06v0c.78.78.78 2.04 0 2.82 -.01 0-.01 0-.01 0v0c-.79.78-2.05.78-2.83 0 -.01-.01-.01-.01-.01-.01l-.06-.06v0c-.49-.48-1.21-.61-1.82-.33h0c-.61.25-1 .85-1 1.51v.17 0c0 1.1-.9 2-2 2v0c-1.11 0-2-.9-2-2v-.09 0c-.02-.68-.45-1.28-1.08-1.51v0c-.62-.28-1.34-.15-1.82.33l-.06.06v0c-.79.78-2.05.78-2.83 0 -.01-.01-.01-.01-.01-.01v0c-.79-.79-.79-2.05-.01-2.83 0-.01 0-.01 0-.01l.06-.06v0c.47-.49.6-1.21.33-1.82h0c-.26-.61-.86-1-1.51-1h-.17v0c-1.11 0-2-.9-2-2v0c0-1.11.89-2 2-2h.09v0c.67-.02 1.27-.45 1.51-1.08l0-.001c.27-.62.14-1.34-.33-1.82l-.06-.06v0c-.79-.79-.79-2.05-.01-2.83 0-.01 0-.01 0-.01v0c.78-.79 2.04-.79 2.82-.01 0 0 0 0 0 0l.06.06v0c.48.47 1.2.6 1.82.33h.08l-.001 0c.6-.26.99-.86 1-1.51v-.17 0c0-1.11.89-2 2-2v0c1.1 0 2 .89 2 2v.09 0c0 .65.39 1.25 1 1.51l0 0c.61.27 1.33.14 1.82-.33l.06-.06v0c.78-.79 2.04-.79 2.82-.01 0 0 0 0 0 0v0c.78.78.78 2.04 0 2.82 -.01 0-.01 0-.01 0l-.06.06v0c-.48.48-.61 1.2-.33 1.82v.08 -.001c.25.6.85.99 1.51 1h.17v0c1.1 0 2 .89 2 2v0c0 1.1-.9 2-2 2h-.09v0c-.66 0-1.26.39-1.51 1Z"/></g></svg>