<svg viewBox="0 0 24 24" xmlns="http://www.w3.org/2000/svg"><g stroke-linecap="round" stroke-width="2" stroke="#000" fill="none" stroke-linejoin="round"><path d="M14.5 10c-.83 0-1.5-.67-1.5-1.5v-5c0-.83.67-1.5 1.5-1.5s1.5.67 1.5 1.5v5c0 .83-.67 1.5-1.5 1.5Z"/><path d="M20.5 10H19V8.5c0-.83.67-1.5 1.5-1.5s1.5.67 1.5 1.5 -.67 1.5-1.5 1.5Z"/><path d="M9.5 14c.83 0 1.5.67 1.5 1.5v5c0 .83-.67 1.5-1.5 1.5s-1.5-.67-1.5-1.5v-5c0-.83.67-1.5 1.5-1.5Z"/><path d="M3.5 14H5v1.5c0 .83-.67 1.5-1.5 1.5s-1.5-.67-1.5-1.5 .67-1.5 1.5-1.5Z"/><path d="M14 14.5c0-.83.67-1.5 1.5-1.5h5c.83 0 1.5.67 1.5 1.5s-.67 1.5-1.5 1.5h-5c-.83 0-1.5-.67-1.5-1.5Z"/><path d="M15.5 19H14v1.5c0 .83.67 1.5 1.5 1.5s1.5-.67 1.5-1.5 -.67-1.5-1.5-1.5Z"/><path d="M10 9.5C10 8.67 9.33 8 8.5 8h-5C2.67 8 2 8.67 2 9.5c0 .83.67 1.5 1.5 1.5h5c.83 0 1.5-.67 1.5-1.5Z"/><path d="M8.5 5H10V3.5C10 2.67 9.33 2 8.5 2 7.67 2 7 2.67 7 3.5 7 4.33 7.67 5 8.5 5Z"/></g></svg>