<svg viewBox="0 0 24 24" xmlns="http://www.w3.org/2000/svg"><g stroke-linecap="round" stroke-width="2" stroke="#000" fill="none" stroke-linejoin="round"><path d="M22.54 6.42v0c-.25-.97-.99-1.73-1.94-2C18.88 4 12 4 12 4s-6.88 0-8.6.46v0c-.96.27-1.7 1.03-1.94 2l0 0C1.14 8.2.99 9.97 1 11.75l-.001-.001c-.02 1.78.14 3.57.46 5.33h0c.26.93 1 1.66 1.94 1.92 1.72.46 8.6.46 8.6.46s6.88 0 8.6-.46v0c.95-.28 1.69-1.04 1.94-2v-.001c.31-1.74.46-3.49.46-5.25h0c.01-1.79-.15-3.58-.46-5.33Z"/><path d="M9.75 15.02l5.75-3.27 -5.75-3.27 0 6.54Z"/></g></svg>