<svg viewBox="0 0 24 24" xmlns="http://www.w3.org/2000/svg" xmlns:xlink="http://www.w3.org/1999/xlink"><defs><path d="M0 0h24v24H0Z" id="a"/></defs><g fill="none"><use xlink:href="#a"/><use xlink:href="#a"/><use xlink:href="#a"/></g><g><path d="M20 4H4c-1.1 0-2 .9-2 2v12c0 1.1.9 2 2 2h16c1.1 0 2-.9 2-2V6c0-1.1-.9-2-2-2Zm0 14H4V6h16v12Z"/><path d="M8.29 15.71C7.27 14.69 6.75 13.35 6.75 12c0-1.35.52-2.69 1.53-3.72L7.05 7.05C5.68 8.41 5 10.21 5 12c0 1.79.68 3.59 2.06 4.94l1.23-1.23Z"/><path d="M12 15.5c1.93 0 3.5-1.57 3.5-3.5s-1.57-3.5-3.5-3.5 -3.5 1.57-3.5 3.5 1.57 3.5 3.5 3.5Zm0-5c.83 0 1.5.67 1.5 1.5s-.67 1.5-1.5 1.5 -1.5-.67-1.5-1.5 .67-1.5 1.5-1.5Z"/><path d="M15.72 15.72l1.23 1.23C18.32 15.59 19 13.79 19 12c0-1.79-.68-3.59-2.06-4.94l-1.23 1.23c1.02 1.02 1.54 2.36 1.54 3.71s-.52 2.69-1.53 3.72Z"/></g></svg>