<svg viewBox="0 0 24 24" xmlns="http://www.w3.org/2000/svg"><g fill="none"><path d="M0 0h24v24H0Z"/><g stroke-linecap="round" stroke-width="2" stroke="#000" fill="none" stroke-linejoin="round"><path d="M12 15H5.5v0C4.11 15 3 13.88 3 12.5 3 11.11 4.11 10 5.5 10H6"/><path d="M15 15v3.5 0c0 1.38-1.12 2.5-2.5 2.5 -1.39 0-2.5-1.12-2.5-2.5V18"/><path d="M13 9h5.5v0c1.38 0 2.5 1.11 2.5 2.5 0 1.38-1.12 2.5-2.5 2.5H18"/><path d="M9 12V9m.04-3.957v0c.25-1.36 1.55-2.26 2.91-2.01 1.18.21 2.04 1.25 2.04 2.45v.5"/><path d="M3 3l18 18"/></g></g></svg>