<svg viewBox="0 0 24 24" xmlns="http://www.w3.org/2000/svg"><g fill="none"><path d="M0 0h24v24H0Z"/><g stroke-linecap="round" stroke-width="2" stroke="#000" fill="none" stroke-linejoin="round"><path d="M8 4h1v0c.55 0 1 .44 1 1v1m-.29 3.7v0c-.19.18-.45.29-.71.29H5v0c-.56 0-1-.45-1-1v-4c0-.28.11-.53.29-.71"/><path d="M18 14h1v0c.55 0 1 .44 1 1v1m-.29 3.7v0c-.19.18-.45.29-.71.29h-4v0c-.56 0-1-.45-1-1v-4c0-.28.11-.53.29-.71"/><rect width="6" height="6" x="4" y="14" rx="1"/><path d="M14 7h6"/><path d="M17 4v6"/><path d="M3 3l18 18"/></g></g></svg>