<svg viewBox="0 0 24 24" xmlns="http://www.w3.org/2000/svg" xmlns:xlink="http://www.w3.org/1999/xlink"><defs><path d="M9 13a2 2 0 1 0 0 4 2 2 0 1 0 0-4Z" id="a"/></defs><g fill="none"><path d="M0 0h24v24H0Z"/><g stroke-linecap="round" stroke-width="2" stroke="#000" fill="none" stroke-linejoin="round"><path d="M9 9a6 6 0 1 0 0 12A6 6 0 1 0 9 9Z"/><use xlink:href="#a"/><path d="M19 3a2 2 0 1 0 0 4 2 2 0 1 0 0-4Z"/><path d="M14.21 17.97L20.829 5.79"/><path d="M6.07 9.756l12.21-6.631"/><use xlink:href="#a"/></g></g></svg>