<svg viewBox="0 0 24 24" xmlns="http://www.w3.org/2000/svg"><g fill="none"><path d="M0 0h24v24H0Z"/><g stroke-linecap="round" stroke-width="2" stroke="#000" fill="none" stroke-linejoin="round"><path d="M5.636 18.36v0c3.51 3.51 9.21 3.51 12.72 0 3.51-3.52 3.51-9.22 0-12.728v0C14.83 2.11 9.13 2.11 5.62 5.63 2.1 9.14 2.1 14.84 5.62 18.351Z"/><path d="M12.49 3.02v0c.26 4.96-3.54 9.2-8.5 9.47 -.33.01-.66.01-.98 0"/><path d="M20.98 11.5l-.001 0c-4.97-.27-9.21 3.53-9.48 8.49 -.02.32-.02.65 0 .97"/><path d="M9 9l2 2"/><path d="M13 13l2 2"/><path d="M11 7l2 1"/><path d="M7 11l1 2"/><path d="M16 11l1 2"/><path d="M11 16l2 1"/></g></g></svg>