<svg viewBox="0 0 24 24" xmlns="http://www.w3.org/2000/svg"><g fill="none"><path d="M0 0h24v24H0Z"/><g stroke-linecap="round" stroke-width="2" stroke="#000" fill="none" stroke-linejoin="round"><path d="M14 6l7 7 -2 2"/><path d="M10 10l-4.18 4.17h-.001c-1.11 1.1-1.11 2.89 0 4 1.1 1.1 2.89 1.1 4 0l4.17-4.18"/><path d="M16 12l4.41-4.414v0c.78-.79.78-2.05 0-2.83 -.01-.01-.01-.01-.01-.01l-1.18-1.18v0c-.79-.79-2.05-.79-2.83-.01 -.01 0-.01 0-.01 0L11.96 7.97"/><path d="M4 20l1.76-1.77"/><path d="M3 3l18 18"/></g></g></svg>