<svg viewBox="0 0 24 24" xmlns="http://www.w3.org/2000/svg"><g fill="none"><path d="M0 0h24v24H0Z"/><g stroke-linecap="round" stroke-width="2" stroke="#000" fill="none" stroke-linejoin="round"><path d="M2 12h1"/><path d="M6 8H4v0c-.56 0-1 .44-1 1v6 0c0 .55.44 1 1 1h2"/><path d="M6 7v10 0c0 .55.44 1 1 1h1v0c.55 0 1-.45 1-1V7v0c0-.56-.45-1-1-1H7v0c-.56 0-1 .44-1 1Z"/><path d="M9 12h6"/><path d="M15 7v10 0c0 .55.44 1 1 1h1v0c.55 0 1-.45 1-1V7v0c0-.56-.45-1-1-1h-1v0c-.56 0-1 .44-1 1Z"/><path d="M18 8h2v0c.55 0 1 .44 1 1v6 0c0 .55-.45 1-1 1h-2"/><path d="M22 12h-1"/></g></g></svg>