<svg viewBox="0 0 24 24" xmlns="http://www.w3.org/2000/svg"><g fill="none"><path d="M0 0h24v24H0Z"/><g stroke-linecap="round" stroke-width="2" stroke="#000" fill="none" stroke-linejoin="round"><path d="M10 4a6 6 0 1 0 0 12 6 6 0 1 0 0-12Z"/><path d="M13.5 15h.5v0c1.1 0 2 .89 2 2v1 0c0 1.1-.9 2-2 2H6v0c-1.11 0-2-.9-2-2v-1 0c0-1.11.89-2 2-2h.5"/><path d="M16 17v0c3.11-.42 5.31-3.29 4.89-6.41 -.08-.53-.22-1.05-.43-1.54l-.47-1.07"/><path d="M10 10v.01"/><path d="M20 7a1 1 0 1 0 0 2 1 1 0 1 0 0-2Z"/></g></g></svg>