<svg viewBox="0 0 24 24" xmlns="http://www.w3.org/2000/svg"><g fill="none"><path d="M0 0h24v24H0Z"/><g stroke-linecap="round" stroke-width="2" stroke="#000" fill="none" stroke-linejoin="round"><path d="M12 21v0c.78 0 1.56-.11 2.32-.31v0c4.8-1.29 7.65-6.22 6.37-11.03 -.67-2.48-2.35-4.56-4.64-5.71v0c-4.44-2.24-9.86-.46-12.09 3.98 -2.24 4.43-.46 9.85 3.98 12.08 1.25.63 2.64.96 4.04.96Z"/><path d="M12 3v17"/><path d="M12 12h9"/><path d="M12 9h8"/><path d="M12 6h6"/><path d="M12 18h6"/><path d="M12 15h8"/></g></g></svg>