<svg viewBox="0 0 24 24" xmlns="http://www.w3.org/2000/svg"><g fill="none"><path d="M0 0h24v24H0Z"/><g stroke-linecap="round" stroke-width="2" stroke="#000" fill="none" stroke-linejoin="round"><path d="M12.5 8.502l.38-.38v0c-1.18-1.18-1.18-3.08-.01-4.25 1.17-1.18 3.07-1.18 4.24-.01 .56.56.88 1.32.87 2.12v0c1.65-.01 3 1.34 3 2.99 0 1.65-1.35 3-3 3 -.8 0-1.56-.32-2.13-.88l-.38.37m-2.01 2l-2.378 2.378h0c1.17 1.17 1.17 3.07-.01 4.24 -1.18 1.17-3.08 1.17-4.25-.01 -.52-.52-.83-1.22-.88-1.95l-.01-.18 -.18-.01v0c-1.66-.1-2.92-1.52-2.82-3.18 .09-1.66 1.51-2.92 3.17-2.82 .73.04 1.42.35 1.94.87l2.378-2.378"/><path d="M3 3l18 18"/></g></g></svg>