<svg viewBox="0 0 24 24" xmlns="http://www.w3.org/2000/svg"><g fill="none"><path d="M0 0h24v24H0Z"/><path fill="none" stroke="#000" stroke-linecap="round" stroke-linejoin="round" stroke-width="2" d="M15 3v0c1.65 0 3 1.34 3 3v0c1.65-.01 3 1.34 3 2.99 0 1.65-1.35 3-3 3 -.8 0-1.56-.32-2.13-.88l-4.76 4.75v0c1.17 1.17 1.17 3.07-.01 4.24 -1.18 1.17-3.08 1.17-4.25-.01 -.52-.52-.83-1.22-.88-1.95l-.01-.18 -.18-.01v0c-1.66-.1-2.92-1.52-2.82-3.18 .09-1.66 1.51-2.92 3.17-2.82 .73.04 1.42.35 1.94.87l4.75-4.76v0c-1.18-1.18-1.18-3.08-.01-4.25 .56-.57 1.32-.88 2.12-.88Z"/></g></svg>