<svg viewBox="0 0 24 24" xmlns="http://www.w3.org/2000/svg"><g fill="none"><path d="M0 0h24v24H0Z"/><g stroke-linecap="round" stroke-width="2" stroke="#000" fill="none" stroke-linejoin="round"><rect width="4" height="16" x="5" y="4" rx="1"/><rect width="4" height="16" x="9" y="4" rx="1"/><path d="M5 8h4"/><path d="M9 16h4"/><path d="M13.8 4.56l2.18-.53c.56-.14 1.13.19 1.28.73l3.69 13.41v0c.13.5-.14 1.03-.64 1.21l-.14.04 -2.19.53c-.57.13-1.14-.19-1.29-.74L12.99 5.79v0c-.14-.51.13-1.04.63-1.22l.13-.05Z"/><path d="M14 9l4-1"/><path d="M16 16l3.92-.98"/></g></g></svg>