<svg viewBox="0 0 24 24" xmlns="http://www.w3.org/2000/svg"><g fill="none"><path d="M0 0h24v24H0Z"/><g stroke-linecap="round" stroke-width="2" stroke="#000" fill="none" stroke-linejoin="round"><path d="M4 12V8v0c0-2.21 1.79-4 4-4h4"/><path d="M16 4l0 .01"/><path d="M20 4l0 .01"/><path d="M20 8l0 .01"/><path d="M20 12l0 .01"/><path d="M4 16l0 .01"/><path d="M20 16l0 .01"/><path d="M4 20l0 .01"/><path d="M8 20l0 .01"/><path d="M12 20l0 .01"/><path d="M16 20l0 .01"/><path d="M20 20l0 .01"/></g></g></svg>