<svg viewBox="0 0 24 24" xmlns="http://www.w3.org/2000/svg"><g fill="none"><path d="M0 0h24v24H0Z"/><g stroke-linecap="round" stroke-width="2" stroke="#000" fill="none" stroke-linejoin="round"><path d="M10 5h4V3v0c0-.56-.45-1-1-1h-2v0c-.56 0-1 .44-1 1v2Z"/><path d="M14 3.5c0 1.62.5 3.21 1.45 4.53l.05.07v0c.97 1.37 1.5 3.01 1.5 4.69v6.19 0c0 1.1-.9 2-2 2H9v0c-1.11 0-2-.9-2-2v-6.2c0-1.69.524-3.33 1.5-4.693l.05-.07v0C9.49 6.68 10 5.09 10 3.47"/><path d="M7.003 14.803v0c.39-.18.74-.46.99-.81h-.001c.46-.65 1.2-1.02 2-1H9.99c.79-.02 1.53.35 2 1v0c.46.64 1.2 1.01 2 1h0c.79.01 1.53-.36 2-1v0c.25-.36.59-.64 1-.81"/></g></g></svg>