<svg viewBox="0 0 24 24" xmlns="http://www.w3.org/2000/svg"><g fill="none"><path d="M0 0h24v24H0Z"/><g stroke-linecap="round" stroke-width="2" stroke="#000" fill="none" stroke-linejoin="round"><path d="M11.005 5.005v5 0c0 .55-.45 1-1 1H5v0c-.56 0-1-.45-1-1V5v0c0-.56.44-1 1-1h5v0c.55 0 1 .44 1 1Z"/><path d="M15.005 4.005h-.01"/><path d="M20.005 4.005h-.01"/><path d="M20.005 9.005h-.01"/><path d="M20.005 15.005h-.01"/><path d="M4.005 15.005h-.01"/><path d="M20.005 20.005h-.01"/><path d="M15.005 20.005h-.01"/><path d="M9.005 20.005h-.01"/><path d="M4.005 20.005h-.01"/></g></g></svg>