<svg viewBox="0 0 24 24" xmlns="http://www.w3.org/2000/svg"><g fill="none"><path d="M0 0h24v24H0Z"/><g stroke-linecap="round" stroke-width="2" stroke="#000" fill="none" stroke-linejoin="round"><path d="M19 11.01h-5v0c-.56 0-1-.45-1-1v-5 0c0-.56.44-1 1-1h5v0c.55 0 1 .44 1 1v5 0c0 .55-.45 1-1 1Z"/><path d="M20 15.01V15"/><path d="M20 20.01V20"/><path d="M15 20.01V20"/><path d="M9 20.01V20"/><path d="M9 4.01V4"/><path d="M4 20.01V20"/><path d="M4 15.01V15"/><path d="M4 9.01V9"/><path d="M4 4.01V4"/></g></g></svg>