<svg viewBox="0 0 24 24" xmlns="http://www.w3.org/2000/svg"><g fill="none"><path d="M0 0h24v24H0Z"/><g stroke-linecap="round" stroke-width="2" stroke="#000" fill="none" stroke-linejoin="round"><path d="M11.03 5.058v0c-4.39.53-7.52 4.52-6.98 8.9 .53 4.38 4.52 7.51 8.9 6.97 3.25-.4 5.94-2.75 6.77-5.93"/><path d="M12 21V10l-7.5 4"/><path d="M17.5 3v0C18.88 3 20 4.11 20 5.5 20 6.88 18.88 8 17.5 8l-11-5v0c-1.39-.01-2.51 1.11-2.51 2.49 -.01 1.12.74 2.11 1.83 2.41"/><path d="M9 12v8"/><path d="M16 13h-.01"/></g></g></svg>