<svg viewBox="0 0 24 24" xmlns="http://www.w3.org/2000/svg"><g fill="none"><path d="M0 0h24v24H0Z"/><path fill="none" stroke="#000" stroke-linecap="round" stroke-linejoin="round" stroke-width="2" d="M17.1 8.64v0c-.22.19-.55.2-.77.01v0c-1.03-.87-2.32-1.34-3.66-1.34 -1.11 0-2.21.36-2.21 1.37 0 1.02 1.18 1.36 2.54 1.875 2.38.79 4.36 1.79 4.36 4.13 0 2.54-1.98 4.29-5.21 4.48l-.3 1.36v0c-.06.25-.29.44-.55.44H9.26l-.11-.02h-.001c-.31-.07-.5-.37-.44-.67l.31-1.45h0c-1.23-.31-2.36-.93-3.28-1.79v-.02h0c-.22-.22-.22-.56-.01-.78 0-.01 0-.01 0-.01l1.13-1.11c.21-.2.54-.2.76 0h0c1.03.98 2.42 1.52 3.85 1.5 1.47 0 2.46-.625 2.46-1.62 0-.99-1-1.25-2.89-1.96 -2-.72-3.9-1.73-3.9-4.1 0-2.75 2.28-4.091 4.989-4.216l.28-1.4v0c.05-.26.28-.44.54-.44h2.02l.11.01v0c.29.06.48.35.42.64 -.01 0-.01 0-.01 0l-.31 1.55v0c1.03.34 1.98.87 2.81 1.58l.02.02c.21.22.21.569 0 .77l-1.06 1.05Z"/></g></svg>