<svg viewBox="0 0 24 24" xmlns="http://www.w3.org/2000/svg"><g fill="none"><path d="M0 0h24v24H0Z"/><g stroke-linecap="round" stroke-width="2" stroke="#000" fill="none" stroke-linejoin="round"><path d="M9 11a1 1 0 1 0 0 2 1 1 0 1 0 0-2Z"/><path d="M15 11a1 1 0 1 0 0 2 1 1 0 1 0 0-2Z"/><path d="M7.5 7.5c3.5-1 5.5-1 9 0"/><path d="M7 16.5c3.5 1 6.5 1 10 0"/><path d="M15.5 17c0 1 1.5 3 2 3 1.5 0 2.83-1.67 3.5-3 .66-1.67.5-5.833-1.5-11.5 -1.46-1.02-3-1.34-4.5-1.5l-1 2.5"/><path d="M8.5 17c0 1-1.36 3-1.84 3 -1.43 0-2.698-1.67-3.34-3 -.64-1.67-.476-5.833 1.42-11.5C6.128 4.48 7.522 4.16 8.97 4l1 2.5"/></g></g></svg>