<svg viewBox="0 0 24 24" xmlns="http://www.w3.org/2000/svg"><g fill="none"><path d="M0 0h24v24H0Z"/><path fill="none" stroke="#000" stroke-linecap="round" stroke-linejoin="round" stroke-width="2" d="M11.66 6C9.17 6 7.61 7.22 6.99 9.667c.93-1.23 2.02-1.68 3.26-1.375 .71.17 1.21.68 1.77 1.24 .91.91 2 1.968 4.288 1.968 2.49 0 4.04-1.23 4.66-3.667 -.94 1.22-2.03 1.68-3.27 1.375 -.71-.18-1.22-.68-1.78-1.24C14.99 7.048 13.938 6 11.63 6Zm-4 6.5c-2.49 0-4.044 1.22-4.67 3.66 .93-1.23 2.02-1.68 3.26-1.375 .71.17 1.21.68 1.77 1.24 .91.91 1.97 1.968 4.288 1.968 2.49 0 4.04-1.23 4.66-3.667 -.94 1.22-2.03 1.68-3.27 1.375 -.71-.18-1.22-.68-1.78-1.24 -.92-.92-1.98-1.968-4.29-1.968Z"/></g></svg>