<svg viewBox="0 0 24 24" xmlns="http://www.w3.org/2000/svg"><g fill="none"><path d="M0 0h24v24H0Z"/><g stroke-linecap="round" stroke-width="2" stroke="#000" fill="none" stroke-linejoin="round"><path d="M11 4.99v13.982h-.001c.02 1.1.93 1.97 2.04 1.95 1.06-.03 1.92-.89 1.95-1.96V4.98v-.001c.02-1.11-.85-2.02-1.96-2.05 -1.11-.03-2.02.84-2.05 1.95 -.01.02-.01.05 0 .08Z"/><path d="M6.63 8.407h0c-.82.8-.85 2.1-.08 2.94 .77.83 2.051.86 2.862.07l4.95-4.834c.81-.8.84-2.11.07-2.945v0c-.74-.82-2-.87-2.81-.14 -.02.01-.04.03-.06.05L6.6 8.383Z"/></g></g></svg>