<svg viewBox="0 0 24 24" xmlns="http://www.w3.org/2000/svg"><g fill="none"><path d="M0 0h24v24H0Z"/><g stroke-linecap="round" stroke-width="2" stroke="#000" fill="none" stroke-linejoin="round"><path d="M19 6.87v0c.62.35 1 1.02 1 1.74v6.53 0c-.01.72-.4 1.39-1.029 1.74l-6 3.83v0c-.61.33-1.34.33-1.95 0l-6-3.84v0c-.64-.36-1.03-1.03-1.029-1.75V8.58v0c0-.73.39-1.4 1.029-1.75l6-3.572V3.25c.62-.35 1.37-.35 2 0l6 3.573h-.03Z"/><path d="M15.5 9.43v0c.31.18.5.51.5.87v3.26 0c-.01.36-.2.69-.52.87l-3 1.91v0c-.31.16-.67.16-.97 0l-3-1.92v-.001c-.32-.18-.52-.52-.52-.88V10.27v0c-.01-.37.19-.7.51-.88l3-1.79c.31-.18.69-.18 1 0l3 1.78h-.02Z"/><path d="M12 21v-9L4.5 7.5"/><path d="M12 12l7.5-4.5"/><path d="M12 3v4.5"/><path d="M19.5 16L16 14"/><path d="M8 14l-3.5 2"/></g></g></svg>