<svg viewBox="0 0 24 24" xmlns="http://www.w3.org/2000/svg"><g fill="none"><path d="M0 0h24v24H0Z"/><g stroke-linecap="round" stroke-width="2" stroke="#000" fill="none" stroke-linejoin="round"><path d="M20.97 11.37h0c-.35-4.96-4.65-8.7-9.61-8.35 -4.96.34-8.7 4.64-8.35 9.6 .34 4.95 4.64 8.69 9.6 8.34 2.71-.2 5.19-1.6 6.75-3.84"/><path d="M20.97 11.372c.21 2.99-5.04 2.41-6.913 1.48 1.39-1.6.4-4.038-2.28-3.86 -1.75.12-2.93 1.157-2.79 3.202 .28 3.99 4.44 6.205 10.36 4.79"/><path d="M3.022 12.62c-.29-4.05 8.71-7.23 11.24-2.69"/><path d="M12.62 20.97c-3 .21-5.17-4.73-3.567-9.75"/></g></g></svg>