<svg viewBox="0 0 24 24" xmlns="http://www.w3.org/2000/svg"><g fill="none"><path d="M0 0h24v24H0Z"/><g stroke-linecap="round" stroke-width="2" stroke="#000" fill="none" stroke-linejoin="round"><path d="M17.78 17.03l-3.42.23 -.03 0c-1.12.09-2.22.33-3.26.72l-2.2.79v0c-.95.34-1.99.27-2.88-.19v0c-.88-.45-1.51-1.26-1.74-2.22l-1.21-5.3v0c-.2-.87-.03-1.77.46-2.503v0C4 7.8 4.78 7.27 5.67 7.09l9.843-2.06c1.87-.4 3.71.74 4.12 2.537l1.22 5.39v0c.21.94-.02 1.93-.61 2.7v0c-.62.77-1.54 1.26-2.53 1.32Z"/><path d="M10 10l.97 4 4.02-3Z"/></g></g></svg>