<svg viewBox="0 0 24 24" xmlns="http://www.w3.org/2000/svg"><g fill="none"><path d="M0 0h24v24H0Z"/><g stroke-linecap="round" stroke-width="2" stroke="#000" fill="none" stroke-linejoin="round"><path d="M13 13.282c0 .49.78 1.718 2.1 1.718 1.31 0 2.89-.97 2.89-2.07 0-.82-.94-.94-1.41-.94 -.23 0-3.6.11-3.6 1.282Z"/><path d="M12 21c-2.984 0-6.48-2.721-6.63-2.99C3.24 14.52 3 4.3 3 4.3l1.44-1.32c2.49.39 5.02.617 7.554.68l0 0c2.53-.07 5.05-.3 7.55-.68l1.44 1.31s-.24 10.213-2.37 13.7c-.16.26-3.65 2.98-6.63 2.98Z"/><path d="M11 13.282c0 .49-.79 1.718-2.11 1.718 -1.32 0-2.9-.97-2.9-2.07 0-.82.93-.94 1.4-.94 .22 0 3.591.11 3.591 1.282Z"/></g></g></svg>