<svg viewBox="0 0 24 24" xmlns="http://www.w3.org/2000/svg"><g fill="none"><path d="M0 0h24v24H0Z"/><g stroke-linecap="round" stroke-width="2" stroke="#000" fill="none" stroke-linejoin="round"><path d="M21 15l-1-6 -2.5 6"/><path d="M9 15l1-6"/><path d="M3 9h1v6h.5L7 9"/><path d="M16 9.5v0c0-.28-.23-.5-.5-.5h-.75c-.73 0-1.34.52-1.455 1.23l-.09.53h-.001c-.1.57.29 1.12.87 1.21 .05 0 .11.01.17.01v0c.58-.01 1.05.47 1.05 1.05 0 .05-.01.11-.02.17l-.09.53v0c-.12.71-.74 1.23-1.455 1.23h-.75v0c-.28 0-.5-.23-.5-.5"/><path d="M18 14h2.7"/></g></g></svg>