<svg viewBox="0 0 24 24" xmlns="http://www.w3.org/2000/svg"><g fill="none"><path d="M0 0h24v24H0Z"/><g stroke-linecap="round" stroke-width="2" stroke="#000" fill="none" stroke-linejoin="round"><path d="M4.028 7.82H4.02c-2.31 4.4-.62 9.84 3.79 12.15 4.4 2.3 9.84.61 12.15-3.8 2.16-4.14.81-9.25-3.12-11.76 -1.64-1.02-3.064-1.02-4.86-1.02h-1.65"/><path d="M4.914 9.48c-1.76-1.57-.81-5.38.1-6.17 .08.89.585 1.2 1.11 1.68 .88-.28 1.31-.29 1.867 0 .82-.91 1.69-2.36 2.628-2.1 -1.09 1.74-.07 3.733 1.37 4.173 -.17.97-1.484 1.91-2.76 2.686 -1.3.93-.73 1.85 0 2.234 .94.5 3.61-1 4.545.35 -1.7.1-1.54 3.1-3.99 2.72 2.52.95 4.34.46 5.458-.34 1.96-1.52 2.87-3.542 2.87-5.557 -.02-1.4.19-2.7-1.26-4.75"/></g></g></svg>