<svg viewBox="0 0 24 24" xmlns="http://www.w3.org/2000/svg"><g fill="none"><path d="M0 0h24v24H0Z"/><g stroke-linecap="round" stroke-width="2" stroke="#000" fill="none" stroke-linejoin="round"><path d="M18.648 15.254c-1.82 1.763-6.648 1.62-6.648 1.62h0c-1.11.01-2.21-.08-3.29-.26 1.12 1.98 4.12 2.81 8.98 2.47 -1.95 2.01-13.6 5.25-13.668-7.64l-.03-1.154c0-3.04.02-4.115 1.35-5.64C7.01 2.74 11.99 2.98 11.99 2.98s4.977-.25 6.648 1.66c1.32 1.51 1.35 2.59 1.35 5.63 0 3.03-.46 4.074-1.36 4.94Z"/><path d="M12 11.2V8.274c0-1.258-.9-2.28-2-2.28 -1.11 0-2 1.02-2 2.27v4.72m4-4.73c0-1.258.89-2.28 2-2.28 1.1 0 2 1.02 2 2.27v4.72"/></g></g></svg>