<svg viewBox="0 0 24 24" xmlns="http://www.w3.org/2000/svg"><g fill="none"><path d="M0 0h24v24H0Z"/><g stroke-linecap="round" stroke-width="2" stroke="#000" fill="none" stroke-linejoin="round"><path d="M15 8l-5 3 .82-.5c1.86-1.15 4.41-.49 5.57 1.35v0c1.15 1.82.6 4.24-1.23 5.39 -.02 0-.03.01-.05.02l-5.06 3.12c-1.86 1.15-4.312.59-5.48-1.26h0c-1.16-1.83-.61-4.25 1.22-5.4 .01-.01.02-.02.04-.03l.26-.16"/><path d="M8 17l5-3 -.83.49c-1.86 1.15-4.42.49-5.574-1.36v0c-1.16-1.83-.61-4.25 1.22-5.4 .01-.01.02-.02.04-.03l5.05-3.13c1.86-1.15 4.311-.59 5.474 1.25v0c1.15 1.82.6 4.24-1.23 5.39 -.02 0-.03.01-.05.02l-.26.16"/></g></g></svg>