<svg viewBox="0 0 24 24" xmlns="http://www.w3.org/2000/svg"><g fill="none"><path d="M0 0h24v24H0Z"/><g stroke-linecap="round" stroke-width="2" stroke="#000" fill="none" stroke-linejoin="round"><path d="M3 21l1.65-3.8 0 0C1.78 13.13 2.76 7.52 6.82 4.65c4.06-2.87 9.67-1.89 12.54 2.17 2.86 4.06 1.88 9.67-2.18 12.54 -2.69 1.89-6.19 2.17-9.15.72l-5.05.9"/><path d="M9 10v0c0 .27.22.5.5.5 .27 0 .5-.23.5-.5V9v0c0-.28-.23-.5-.5-.5 -.28 0-.5.22-.5.5v1 0c0 2.76 2.23 5 5 5h1v0c.27 0 .5-.23.5-.5 0-.28-.23-.5-.5-.5h-1v0c-.28 0-.5.22-.5.5 0 .27.22.5.5.5"/></g></g></svg>