<svg viewBox="0 0 24 24" xmlns="http://www.w3.org/2000/svg"><g fill="none"><path d="M0 0h24v24H0Z"/><g stroke-linecap="round" stroke-width="2" stroke="#000" fill="none" stroke-linejoin="round"><path d="M12 9H5v0c-1.11 0-2 .89-2 2v4 0c0 1.1.89 2 2 2h3"/><path d="M12 15h7v0c1.1 0 2-.9 2-2V9v0c0-1.11-.9-2-2-2h-3"/><path d="M8 9V5v0c0-1.11.89-2 2-2h4v0c1.1 0 2 .89 2 2v5 0c0 1.1-.9 2-2 2h-4v0c-1.11 0-2 .89-2 2v5 0c0 1.1.89 2 2 2h4v0c1.1 0 2-.9 2-2v-4"/><path d="M11 6l0 .01"/><path d="M13 18l0 .01"/></g></g></svg>