<svg viewBox="0 0 24 24" xmlns="http://www.w3.org/2000/svg"><g fill="none"><path d="M0 0h24v24H0Z"/><g stroke-linecap="round" stroke-width="2" stroke="#000" fill="none" stroke-linejoin="round"><path d="M12 3h0c4.97-.01 9 4.02 9 8.99 0 .89-.14 1.79-.4 2.65v0c1.02 2.26.01 4.93-2.25 5.95 -1.18.53-2.53.53-3.71 0v0c-4.75 1.46-9.79-1.2-11.26-5.95 -.54-1.73-.54-3.58-.001-5.31h0c-1.03-2.27-.02-4.94 2.24-5.96 1.17-.54 2.52-.54 3.7-.01v0c.85-.27 1.75-.4 2.65-.4Z"/><path d="M8 14.5c.5 2 2.35 2.5 4 2.5 2.9 0 4-1.19 4-2.5 0-1.51-1.93-2.5-4-2.5 -2.08 0-4-1-4-2.5C8 8.18 9.09 7 12 7c1.64 0 3.5.5 4 2.5"/></g></g></svg>