<svg viewBox="0 0 24 24" xmlns="http://www.w3.org/2000/svg"><g fill="none"><path d="M0 0h24v24H0Z"/><path fill="none" stroke="#000" stroke-linecap="round" stroke-linejoin="round" stroke-width="2" d="M3 18h0c-.01.38.1.75.3 1.07h0c.34.54.93.89 1.58.92 .64.03-.54 0 .11 0h3v-.001c-.01-2.25-1.5-4.22-3.66-4.81 .55-.98 1.24-2.15 2.04-3.54h0c3.39 1.37 5.62 4.67 5.62 8.34h4c.66 0 2.33 0 3 0v0c1.1-.01 1.99-.91 1.98-2.02 -.01-.26-.06-.51-.15-.74l-7.1-12.25V4.96c-.54-.97-1.76-1.32-2.72-.79 -.33.18-.6.45-.79.78L8.37 8.12c4.48 2.05 7.6 6.571 7.6 11.82"/></g></svg>