<svg viewBox="0 0 24 24" xmlns="http://www.w3.org/2000/svg"><g fill="none"><path d="M0 0h24v24H0Z"/><g stroke-linecap="round" stroke-width="2" stroke="#000" fill="none" stroke-linejoin="round"><path d="M9 9V8v0c0-1.66 1.34-3 3-3 1.65 0 3 1.34 3 3v1"/><path d="M8 9h8v0c.59.89.94 1.92 1 3v3 0c0 2.76-2.24 5-5 5 -2.77 0-5-2.24-5-5v-3l0 0c.05-1.08.4-2.11 1-3"/><path d="M3 13l4 0"/><path d="M17 13l4 0"/><path d="M12 20l0-6"/><path d="M4 19l3.35-2"/><path d="M20 19l-3.35-2"/><path d="M4 7l3.75 2.4"/><path d="M20 7l-3.75 2.4"/></g></g></svg>