<svg viewBox="0 0 24 24" xmlns="http://www.w3.org/2000/svg"><g fill="none"><path d="M0 0h24v24H0Z"/><g stroke-linecap="round" stroke-width="2" stroke="#000" fill="none" stroke-linejoin="round"><path d="M12 6a6 6 0 1 0 0 12 6 6 0 1 0 0-12Z"/><path d="M5 6a2 2 0 1 0 0 4 2 2 0 1 0 0-4Z"/><path d="M12 2a2 2 0 1 0 0 4 2 2 0 1 0 0-4Z"/><path d="M19 6a2 2 0 1 0 0 4 2 2 0 1 0 0-4Z"/><path d="M5 14a2 2 0 1 0 0 4 2 2 0 1 0 0-4Z"/><path d="M19 14a2 2 0 1 0 0 4 2 2 0 1 0 0-4Z"/><path d="M8 22l4-10 4 10"/></g></g></svg>