<svg viewBox="0 0 24 24" xmlns="http://www.w3.org/2000/svg"><g fill="none"><path d="M0 0h24v24H0Z"/><g stroke-linecap="round" stroke-width="2" stroke="#000" fill="none" stroke-linejoin="round"><path d="M3 12h1m8-9v1m8 8h1M5.6 5.6l.7.7m12.1-.7l-.7.7"/><path d="M11.089 7.08h-.001c2.71-.51 5.32 1.28 5.82 4 .11.6.11 1.22-.01 1.83m-1.38 2.61h0c-.17.16-.35.32-.54.46h0c-.8.78-1.17 1.89-1 3v0c0 1.1-.9 2-2 2 -1.11 0-2-.9-2-2v0c.16-1.11-.21-2.22-1-3h0c-2.21-1.66-2.66-4.8-1.01-7 .14-.2.3-.38.47-.55"/><path d="M9.7 17h4.6"/><path d="M3 3l18 18"/></g></g></svg>