<svg viewBox="0 0 24 24" xmlns="http://www.w3.org/2000/svg"><g fill="none"><path d="M0 0h24v24H0Z"/><g stroke-linecap="round" stroke-width="2" stroke="#000" fill="none" stroke-linejoin="round"><path d="M19.823 19.824v0c-.33.71-1.04 1.17-1.83 1.17h-12v0c-1.11 0-2-.9-2-2v-14c0-.3.06-.58.17-.827M6.98 2.99h11v0c1.1 0 2 .89 2 2v11"/><path d="M10 10H9v0c-.56 0-1-.45-1-1V8m3-1h4v0c.55 0 1 .44 1 1v1 0c0 .55-.45 1-1 1h-1"/><path d="M8 14v.01"/><path d="M12 14v.01"/><path d="M8 17v.01"/><path d="M12 17v.01"/><path d="M16 17v.01"/><path d="M3 3l18 18"/></g></g></svg>