<svg viewBox="0 0 24 24" xmlns="http://www.w3.org/2000/svg"><g fill="none"><path d="M0 0h24v24H0Z"/><g stroke-linecap="round" stroke-width="2" stroke="#000" fill="none" stroke-linejoin="round"><path d="M5 7h1v0c1.1 0 2-.9 2-2v0c0-.56.44-1 1-1h6v0c.55 0 1 .44 1 1v0c0 1.1.89 2 2 2h1v0c1.1 0 2 .89 2 2v9 0c0 1.1-.9 2-2 2H5v0c-1.11 0-2-.9-2-2V9v0c0-1.11.89-2 2-2"/><path d="M11.24 15.9v0c1.6.41 3.24-.55 3.65-2.15 .06-.25.09-.51.09-.76m-2.25-2.91v0c-1.61-.42-3.25.55-3.66 2.15 -.07.24-.1.49-.1.75"/><path d="M14 13h2v2"/><path d="M10 13H8v-2"/></g></g></svg>