<svg viewBox="0 0 24 24" xmlns="http://www.w3.org/2000/svg"><g fill="none"><path d="M0 0h24v24H0Z"/><g stroke-linecap="round" stroke-width="2" stroke="#000" fill="none" stroke-linejoin="round"><path d="M9.88 9.878l0 0c-1.19 1.16-1.2 3.06-.04 4.24 1.16 1.18 3.06 1.19 4.24.03 .01-.02.02-.03.03-.04m.58-3.43v0c-.3-.62-.8-1.12-1.42-1.41"/><path d="M10 6h9v0c1.1 0 2 .89 2 2v8c0 .29-.07.57-.18.82m-2.83 1.17h-13v0c-1.11 0-2-.9-2-2v-8 0c0-1.11.89-2 2-2h1"/><path d="M18 12l.01 0"/><path d="M6 12l.01 0"/><path d="M3 3l18 18"/></g></g></svg>