<svg viewBox="0 0 24 24" xmlns="http://www.w3.org/2000/svg"><g fill="none"><path d="M0 0h24v24H0Z"/><g stroke-linecap="round" stroke-width="2" stroke="#000" fill="none" stroke-linejoin="round"><path d="M11 11L7.6 7.56v0c-.81-.82-.81-2.14 0-2.95v0c.78-.81 2.08-.82 2.88-.03 0 0 .01.01.02.02l.48.39 .48-.39v0c.78-.81 2.08-.82 2.88-.03 0 0 .01.01.02.02v0c.8.81.8 2.13 0 2.95l-3.4 3.44Z"/><path d="M11 11l-3.4 3.44v0c-.81.81-.81 2.13 0 2.95v0c.78.8 2.08.81 2.88.02 0-.01.01-.02.02-.03l.48-.39 .48.39v0c.78.8 2.08.81 2.88.02 0-.01.01-.02.02-.03v0c.8-.82.8-2.14 0-2.95l-3.4-3.44Z"/><path d="M14.44 7.6v0c.81-.81 2.13-.81 2.95 0v0c.8.78.81 2.08.02 2.88 -.01 0-.02.01-.03.02l-.39.48 .39.48v0c.8.78.81 2.08.02 2.88 -.01 0-.02.01-.03.02v0c-.82.8-2.14.8-2.95 0"/><path d="M7.56 7.603v0c-.82-.81-2.14-.81-2.95 0V7.6c-.81.78-.82 2.08-.03 2.88 0 0 .01.01.02.02l.39.48 -.39.48v0c-.81.78-.82 2.08-.03 2.88 0 0 .01.01.02.02v0c.81.8 2.13.8 2.95 0"/><path d="M15 15l6 6"/></g></g></svg>