<svg viewBox="0 0 24 24" xmlns="http://www.w3.org/2000/svg"><g fill="none"><path d="M0 0h24v24H0Z"/><g stroke-linecap="round" stroke-width="2" stroke="#000" fill="none" stroke-linejoin="round"><path d="M6 19v0c-1.11 0-2-.9-2-2v-4l-1-1 1-1V7v0c0-1.11.89-2 2-2"/><path d="M12 11.87l3-1.69"/><path d="M12 11.87v3.375"/><path d="M12 11.87l-3-1.69"/><path d="M12 11.875l3 1.68"/><path d="M12 8.5v3.375"/><path d="M12 11.875l-3 1.68"/><path d="M18 19v0c1.1 0 2-.9 2-2v-4l1-1 -1-1V7v0c0-1.11-.9-2-2-2"/></g></g></svg>