<svg viewBox="0 0 24 24" xmlns="http://www.w3.org/2000/svg"><g fill="none"><path d="M0 0h24v24H0Z"/><g stroke-linecap="round" stroke-width="2" stroke="#000" fill="none" stroke-linejoin="round"><path d="M3 14c.83.64 2.077 1.01 3.5 1 1.423.01 2.67-.36 3.5-1 .83-.65 2.077-1.02 3.5-1 1.423-.02 2.67.35 3.5 1"/><path d="M8 3v-.001c-.65.46-1.02 1.2-1 2v0c-.02.79.35 1.53 1 2"/><path d="M12 3v0c-.65.46-1.02 1.2-1 2v0c-.02.79.35 1.53 1 2"/><path d="M3 10h14v5 0c0 3.31-2.69 6-6 6H9v0c-3.32 0-6-2.69-6-6v-5Z"/><path d="M16.74 16.726v0c1.5.69 3.28.03 3.97-1.48 .69-1.51.03-3.29-1.48-3.98 -.71-.33-1.52-.37-2.26-.11"/></g></g></svg>