<svg viewBox="0 0 24 24" xmlns="http://www.w3.org/2000/svg"><g fill="none"><path d="M0 0h24v24H0Z"/><g stroke-linecap="round" stroke-width="2" stroke="#000" fill="none" stroke-linejoin="round"><path d="M14.8 9v0c-.37-.65-1.07-1.03-1.8-1h-1M9.18 9.17v0c-.46 1-.02 2.19.99 2.64 .26.11.54.17.82.17h1m2.824 2.82h-.001c-.33.71-1.04 1.17-1.83 1.17h-2v0c-.74.02-1.44-.36-1.8-1"/><path d="M20.04 16.04v0c2.23-4.44.45-9.86-3.99-12.087 -2.55-1.29-5.56-1.29-8.1-.001M5.63 5.629h0c-3.55 3.48-3.6 9.18-.11 12.72 3.48 3.54 9.18 3.59 12.72.1 .03-.04.06-.07.1-.11"/><path d="M12 6v2m0 8v2"/><path d="M3 3l18 18"/></g></g></svg>