<svg viewBox="0 0 24 24" xmlns="http://www.w3.org/2000/svg"><g fill="none"><path d="M0 0h24v24H0Z"/><g stroke-linecap="round" stroke-width="2" stroke="#000" fill="none" stroke-linejoin="round"><path d="M13 13v4h0c-.01 2.2 1.79 4 3.99 4 1.06 0 2.08-.43 2.83-1.18m1.16-2.83v-12 0c0-1.11-.9-2-2-2h-4v0c-1.11 0-2 .89-2 2v4"/><path d="M13 7.35l-2-2v0c-.56-.56-1.38-.74-2.11-.47M6.76 6.75L5.34 8.16v0c-.79.78-.79 2.04 0 2.82l9 9"/><path d="M7.3 13H5v0c-1.11 0-2 .89-2 2v4 0c0 1.1.89 2 2 2h12"/><path d="M17 17v.01"/><path d="M3 3l18 18"/></g></g></svg>