<svg viewBox="0 0 24 24" xmlns="http://www.w3.org/2000/svg"><g fill="none"><path d="M0 0h24v24H0Z"/><g stroke-linecap="round" stroke-width="2" stroke="#000" fill="none" stroke-linejoin="round"><path d="M20 4v.01"/><path d="M20 20v.01"/><path d="M20 16v.01"/><path d="M20 12v.01"/><path d="M20 8v.01"/><path d="M8.29 4.28v0c.18-.19.43-.29.7-.29h6v0c.55 0 1 .44 1 1v7m0 4v3 0c0 .55-.45 1-1 1h-6v0c-.56 0-1-.45-1-1v-11"/><path d="M4 4v.01"/><path d="M4 20v.01"/><path d="M4 16v.01"/><path d="M4 12v.01"/><path d="M4 8v.01"/><path d="M3 3l18 18"/></g></g></svg>