<svg viewBox="0 0 24 24" xmlns="http://www.w3.org/2000/svg"><g fill="none"><path d="M0 0h24v24H0Z"/><g stroke-linecap="round" stroke-width="2" stroke="#000" fill="none" stroke-linejoin="round"><path d="M8 13v.01"/><path d="M12 17v.01"/><path d="M12 12v.01"/><path d="M18.192 18.187v-.001c-.28.27-.62.5-.98.65 -1.05.26-1.79.48-2.22.66 -.48.19-1.1.53-1.86 1.02h0c-.74.3-1.57.3-2.3 0 -.81-.51-1.42-.85-1.86-1.03 -.48-.2-1.21-.42-2.216-.66v0c-.74-.31-1.32-.89-1.63-1.63 -.27-1.06-.49-1.79-.67-2.22 -.2-.48-.54-1.096-1.024-1.86v-.001c-.31-.74-.31-1.57 0-2.3 .48-.75.82-1.37 1.024-1.86 .17-.42.391-1.16.66-2.22v0c.15-.37.37-.7.649-.98m2.82-1.18c.14-.05.26-.1.37-.14 .45-.19 1.07-.54 1.85-1.03v0c.73-.31 1.56-.31 2.29 0L15.75 4.5v0c-1.34 1.75-1 4.26.76 5.6 1.11.84 2.59 1.04 3.89.53l.05.13v0c.3.73.3 1.56 0 2.29 -.5.78-.84 1.404-1.03 1.85V14.9c-.05.11-.1.23-.14.36"/><path d="M3 3l18 18"/></g></g></svg>