<svg viewBox="0 0 24 24" xmlns="http://www.w3.org/2000/svg"><g fill="none"><path d="M0 0h24v24H0Z"/><g stroke-linecap="round" stroke-width="2" stroke="#000" fill="none" stroke-linejoin="round"><path d="M14 9.75h0c-.22-.19-.46-.35-.72-.47m-3.41.59h0c-1.16 1.15-1.18 3.02-.05 4.19H9.81c1.11 1.16 2.95 1.23 4.16.17"/><path d="M20.04 16.04v0c2.23-4.44.45-9.86-3.99-12.087 -2.55-1.29-5.56-1.29-8.1-.001M5.63 5.629h0c-3.55 3.48-3.6 9.18-.11 12.72 3.48 3.54 9.18 3.59 12.72.1 .03-.04.06-.07.1-.11"/><path d="M3 3l18 18"/></g></g></svg>