<svg viewBox="0 0 24 24" xmlns="http://www.w3.org/2000/svg"><g fill="none"><path d="M0 0h24v24H0Z"/><g stroke-linecap="round" stroke-width="2" stroke="#000" fill="none" stroke-linejoin="round"><path d="M12 3a9 9 0 1 0 0 18 9 9 0 1 0 0-18Z"/><path d="M10.5 10.5c-.85-.71-2.14-.66-2.92.11l0-.001c-.77.74-.79 1.96-.05 2.72 .01.01.02.02.04.04 .782.77 2.067.82 2.91.11"/><path d="M16.5 10.5c-.85-.71-2.14-.66-2.92.11v0c-.77.74-.79 1.96-.05 2.72 .01.01.02.02.04.04 .782.77 2.067.82 2.91.11"/></g></g></svg>