<svg viewBox="0 0 24 24" xmlns="http://www.w3.org/2000/svg"><g fill="none"><path d="M0 0h24v24H0Z"/><g stroke-linecap="round" stroke-width="2" stroke="#000" fill="none" stroke-linejoin="round"><path d="M8.17 4.17h-.001c.32-.72 1.03-1.18 1.82-1.18h4v0c1.1 0 2 .89 2 2 0 1.1-.9 2-2 2h-3"/><path d="M11 21h2"/><path d="M12 21v-4.1 0c0-.6.17-1.18.5-1.67l.99-1.49v0c.03-.06.06-.11.09-.16m.4-3.61v-3"/><path d="M12 21v-4.1 0c-.01-.6-.18-1.18-.51-1.67l-1-1.49v-.001c-.33-.5-.51-1.08-.51-1.67v-2.1"/><path d="M10 11h1"/><path d="M3 3l18 18"/></g></g></svg>