<svg viewBox="0 0 24 24" xmlns="http://www.w3.org/2000/svg"><g fill="none"><path d="M0 0h24v24H0Z"/><g stroke-linecap="round" stroke-width="2" stroke="#000" fill="none" stroke-linejoin="round"><path d="M19.277 15.28c.46-1.75.72-3.85.72-6.29 0-3.74-1.91-4.994-4-5 -1.423-.01-2.92.91-4 1.5 -1.08-.59-2.583-1.5-4-1.5M5.154 5.14c-.71.78-1.157 2.01-1.157 3.84 0 4.89 1.056 8.41 2.67 10.537 .57.75 1.97.52 2.567-.24 .39-.51.81-1.439 1.26-2.81 .29-.78.89-1.51 1.5-1.5 .6 0 1.21.73 1.5 1.5 .44 1.36.86 2.29 1.26 2.8 .59.75 1.99.99 2.567.23 .3-.41.59-.86.85-1.36"/><path d="M12 5.5L15 7"/><path d="M3 3l18 18"/></g></g></svg>