<svg viewBox="0 0 24 24" xmlns="http://www.w3.org/2000/svg"><g fill="none"><path d="M0 0h24v24H0Z"/><g stroke-linecap="round" stroke-width="2" stroke="#000" fill="none" stroke-linejoin="round"><path d="M10 20V4H7v0C4.79 4 3 5.79 3 8v8 0c0 2.2 1.79 4 4 4h3Z"/><path d="M14 20V4h3v0c2.2 0 4 1.79 4 4v8 0c0 2.2-1.8 4-4 4h-3Z"/></g></g><g stroke-linecap="round" stroke-width="2" stroke="#000" stroke-linejoin="round"><path d="M17.5 14.5a1 1 0 1 0 0 2 1 1 0 1 0 0-2Z"/><path d="M6.5 7.5a1 1 0 1 0 0 2 1 1 0 1 0 0-2Z"/></g></svg>