<svg viewBox="0 0 24 24" xmlns="http://www.w3.org/2000/svg"><g fill="none"><path d="M0 0h24v24H0Z"/><g stroke-linecap="round" stroke-width="2" stroke="#000" fill="none" stroke-linejoin="round"><path d="M5 5h14"/><path d="M6 5c.32 6.744 2.74 9.24 6 10"/><path d="M18 5c-.32 6.744-2.74 9.24-6 10"/><path d="M10 5c0 4.91.55 7.08 2 10"/><path d="M14 5c-.01 4.91-.56 7.08-2 10"/><path d="M12 15v6"/><path d="M12 3v2"/><path d="M7 16c.64.64 1.5 1 2.41 1h5.17c.9 0 1.77-.36 2.41-1"/><path d="M11 21h2"/></g></g></svg>