<svg viewBox="0 0 24 24" xmlns="http://www.w3.org/2000/svg"><g fill="none"><path d="M0 0h24v24H0Z"/><g stroke-linecap="round" stroke-width="2" stroke="#000" fill="none" stroke-linejoin="round"><path d="M5 14.5h-.23c-1.54 0-2.78-1.12-2.78-2.5s1.24-2.5 2.77-2.5h.22"/><path d="M19.002 14.5h.22c1.53 0 2.77-1.12 2.77-2.5s-1.25-2.5-2.78-2.5h-.23"/><path d="M9 10h6"/><path d="M9 14h6"/><path d="M12.55 18.84l5-1.43v-.001c.85-.25 1.45-1.04 1.45-1.93V8.498v0c0-.9-.6-1.68-1.45-1.93l-5-1.43v0c-.36-.11-.75-.11-1.1 0l-5 1.42v0C5.59 6.798 5 7.57 5 8.478v6.98 0c-.01.89.59 1.67 1.45 1.923l5 1.42v0c.35.1.74.1 1.1 0Z"/></g></g></svg>