<svg viewBox="0 0 24 24" xmlns="http://www.w3.org/2000/svg"><g fill="none"><path d="M0 0h24v24H0Z"/><g stroke-linecap="round" stroke-width="2" stroke="#000" fill="none" stroke-linejoin="round"><path d="M10 17v0c-.01 1.65-1.35 2.99-3.01 2.99 -1.66-.01-3-1.35-3-3.01 0-1.66 1.34-3 3-3 .5 0 1.01.13 1.45.37l2.08-3.76h0c-1.45-.81-1.98-2.64-1.17-4.08 .52-.96 1.53-1.55 2.62-1.55h0c1.65-.01 3 1.34 3 2.99 0 1.09-.6 2.09-1.55 2.62l2.08 3.75v0c1.44-.81 3.27-.29 4.07 1.16 .8 1.44.28 3.27-1.17 4.07 -1.45.8-3.28.28-4.08-1.17 -.22-.4-.35-.84-.38-1.28l-.01-.18h-4Z"/><path d="M17 17v.01"/><path d="M7 17v.01"/><path d="M12 8v.01"/></g></g></svg>