<svg viewBox="0 0 24 24" xmlns="http://www.w3.org/2000/svg"><g fill="none"><path d="M0 0h24v24H0Z"/><g stroke-linecap="round" stroke-width="2" stroke="#000" fill="none" stroke-linejoin="round"><rect width="3" height="5" x="3" y="16" rx="1"/><path d="M6 20v0c0 .55.44 1 1 1h3.75v0c.44 0 .83-.29.95-.72l1.2-3c.09-.31.13-.63-.06-.89s-.55-.41-.86-.41h-2v-2.47 0c-.01-.61-.5-1.1-1.11-1.1 -.37 0-.72.18-.92.48l-1.99 3.077v4Z"/><path d="M14 3v4 0c0 .55.44 1 1 1h4"/><path d="M5 12.1V5v0c0-1.11.89-2 2-2h7l5 5v11 0c0 1.1-.9 2-2 2h-2.3"/></g></g></svg>