<svg viewBox="0 0 24 24" xmlns="http://www.w3.org/2000/svg"><g fill="none"><path d="M0 0h24v24H0Z"/><g stroke-linecap="round" stroke-width="2" stroke="#000" fill="none" stroke-linejoin="round"><rect width="3" height="5" x="3" y="14" rx="1"/><path d="M6 15v0c0-.56.44-1 1-1h3.75v0c.44-.01.83.28.95.71l1.2 3c.09.3.13.63-.06.88s-.55.4-.86.4h-2v2.46 0c-.01.6-.5 1.09-1.11 1.09 -.37-.01-.72-.19-.92-.49l-1.99-3.08v-4Z"/><path d="M14 3v4 0c0 .55.44 1 1 1h4"/><path d="M5 11V5v0c0-1.11.89-2 2-2h7l5 5v11 0c0 1.1-.9 2-2 2h-2.5"/></g></g></svg>