<svg viewBox="0 0 24 24" xmlns="http://www.w3.org/2000/svg"><g fill="none"><path d="M0 0h24v24H0Z"/><g stroke-linecap="round" stroke-width="2" stroke="#000" fill="none" stroke-linejoin="round"><path d="M14 3v4 0c0 .55.44 1 1 1h4"/><path d="M17 21H7v0c-1.11 0-2-.9-2-2V5v0c0-1.11.89-2 2-2h7l5 5v11 0c0 1.1-.9 2-2 2Z"/><path d="M9 12v0c0 .27.22.5.5.5 .27 0 .5-.23.5-.5v-1 0c0-.28-.23-.5-.5-.5 -.28 0-.5.22-.5.5v1 0c0 2.76 2.23 5 5 5h1v0c.27 0 .5-.23.5-.5 0-.28-.23-.5-.5-.5h-1v0c-.28 0-.5.22-.5.5 0 .27.22.5.5.5"/></g></g></svg>