<svg viewBox="0 0 24 24" xmlns="http://www.w3.org/2000/svg"><g fill="none"><path d="M0 0h24v24H0Z"/><g stroke-linecap="round" stroke-width="2" stroke="#000" fill="none" stroke-linejoin="round"><path d="M18.9 7v0c.9 1.5 1.29 3.25 1.1 5v1h-.001c-.01 1.05.27 2.08.8 3"/><path d="M8 11c0-.85.26-1.64.71-2.28m2.4-1.63v0c2.15-.49 4.29.85 4.78 3.01 .06.29.09.58.09.88l-.01 1"/><path d="M12 12v1 -.001c-.01 2.85.86 5.65 2.5 8"/><path d="M8 15v0c.24 2.08.85 4.12 1.8 6"/><path d="M4.9 19h-.001c-.68-2.27-.98-4.64-.9-7v-1 0c-.01-1.88.65-3.7 1.85-5.15m2.176-1.83V4.01c2.47-1.42 5.5-1.41 7.97.01"/><path d="M3 3l18 18"/></g></g></svg>