<svg viewBox="0 0 24 24" xmlns="http://www.w3.org/2000/svg"><g fill="none"><path d="M0 0h24v24H0Z"/><g stroke-linecap="round" stroke-width="2" stroke="#000" fill="none" stroke-linejoin="round"><path d="M18.9 7v0c.9 1.5 1.29 3.25 1.1 5v1h-.001c-.01 1.05.27 2.08.8 3"/><path d="M8 11v0c0-2.21 1.79-4 4-4 2.2 0 4 1.79 4 4v1 0c0 2.16.7 4.26 2 6"/><path d="M12 11v2 -.001c-.01 2.85.86 5.65 2.5 8"/><path d="M8 15v0c.24 2.08.85 4.12 1.8 6"/><path d="M4.9 19h-.001c-.68-2.27-.98-4.64-.9-7v-1 0c-.02-4.42 3.55-8.01 7.97-8.03 1.41-.01 2.79.36 4.02 1.07"/></g></g></svg>