<svg viewBox="0 0 24 24" xmlns="http://www.w3.org/2000/svg"><g fill="none"><path d="M0 0h24v24H0Z"/><g stroke-linecap="round" stroke-width="2" stroke="#000" fill="none" stroke-linejoin="round"><path d="M16.69 7.44v0C15.59 8.7 14.99 10.32 15 12v-.001c-.01 1.67.6 3.3 1.69 4.57m0-.01c1.91-.69 3.69-2.183 5.3-4.57 -1.62-2.39-3.4-3.89-5.32-4.57"/><path d="M2 9.504l-.001-.001c.77.86 1.57 1.7 2.42 2.5v-.001c-.85.79-1.66 1.63-2.43 2.49"/><path d="M18 11v.01"/><path d="M4.42 12.005h10.578"/><path d="M7 10v4"/><path d="M11 8v8"/></g></g></svg>