<svg viewBox="0 0 24 24" xmlns="http://www.w3.org/2000/svg"><g fill="none"><path d="M0 0h24v24H0Z"/><g stroke-linecap="round" stroke-width="2" stroke="#000" fill="none" stroke-linejoin="round"><path d="M9.87 9.88v0c-1.17 1.18-1.15 3.08.03 4.24 1.16 1.14 3.04 1.14 4.2-.01m.58-3.423h0c-.3-.62-.8-1.12-1.42-1.41"/><path d="M9 5v0c0-1.66 1.34-3 3-3 1.65 0 3 1.34 3 3 0 .56-.26 1.44-.78 2.64L13.49 9l1.76-1.9c.49-.6.92-1.01 1.27-1.205v0c1.41-.83 3.23-.35 4.05 1.07 0 0 0 .01.01.02V6.98c.82 1.43.33 3.26-1.09 4.098 -.38.21-.99.39-1.846.53l-1.779.24m.29.28l1.22.16c.99.14 1.69.33 2.11.57v0c1.32.77 1.85 2.42 1.22 3.83m-2.28 1.73v0c-.67.09-1.35-.04-1.93-.37 -.35-.21-.78-.61-1.27-1.21l-1.76-1.9 .72 1.36c.516 1.19.77 2.07.77 2.64v0c0 1.65-1.35 3-3 3 -1.66 0-3-1.35-3-3 0-.57.25-1.45.77-2.64l.72-1.36 -1.76 1.89c-.5.6-.93 1-1.27 1.2v0c-1.42.82-3.24.34-4.06-1.08 -.01-.01-.01-.02-.02-.03H3.33c-.83-1.44-.34-3.27 1.09-4.1 .37-.22.99-.4 1.846-.54l2.66-.37 -2.4-.33c-1-.15-1.7-.34-2.11-.58v0c-1.43-.84-1.92-2.67-1.09-4.1h-.001c.44-.79 1.23-1.34 2.13-1.47"/><path d="M3 3l18 18"/></g></g></svg>