<svg viewBox="0 0 24 24" xmlns="http://www.w3.org/2000/svg"><g fill="none"><path d="M0 0h24v24H0Z"/><g stroke-linecap="round" stroke-width="2" stroke="#000" fill="none" stroke-linejoin="round"><path d="M9 16v-5 0c0-1.11-.9-2-2-2 -1.11 0-2 .89-2 2"/><path d="M15 16v-1m0-4v0c0-1.11.89-2 2-2 1.1 0 2 .89 2 2"/><path d="M12 16v-4m0-4V6v0c0-1.66 1.34-3 3-3 1.65 0 3 1.34 3 3"/><path d="M7.45 3.43v0c1.41-.86 3.26-.4 4.11 1.02 .28.46.43 1 .43 1.54"/><path d="M20 16h1v1m-.88 3.11v0c-.57.56-1.33.88-2.13.88h-12v0c-1.66 0-3-1.35-3-3v-2h13"/><path d="M3 3l18 18"/></g></g></svg>