<svg viewBox="0 0 24 24" xmlns="http://www.w3.org/2000/svg"><g fill="none"><path d="M0 0h24v24H0Z"/><g stroke-linecap="round" stroke-width="2" stroke="#000" fill="none" stroke-linejoin="round"><path d="M12 3a9 9 0 1 0 0 18 9 9 0 1 0 0-18Z"/><path d="M13.867 9.75c-.25-.48-.71-.77-1.2-.75h-1.34c-.74 0-1.34.67-1.34 1.5 0 .827.59 1.49 1.33 1.49h1.33c.73 0 1.33.67 1.33 1.5 0 .82-.6 1.49-1.34 1.49h-1.34c-.5.01-.96-.27-1.2-.75"/><path d="M12 7v2"/><path d="M12 15v2"/><path d="M6 6l1.5 1.5"/><path d="M16.5 16.5L18 18"/></g></g></svg>