<svg viewBox="0 0 24 24" xmlns="http://www.w3.org/2000/svg"><g fill="none"><path d="M0 0h24v24H0Z"/><g stroke-linecap="round" stroke-width="2" stroke="#000" fill="none" stroke-linejoin="round"><path d="M5 5v0c0 1.1.89 2 2 2m2-2v0c0-1.11-.9-2-2-2"/><path d="M5 22v-5l-1-1v-4 0c0-.56.44-1 1-1h4v0c.55 0 1 .44 1 1v4l-1 1v5"/><path d="M17 3a2 2 0 1 0 0 4 2 2 0 1 0 0-4Z"/><path d="M15 22v-4h-2l1.25-3.77m1.03-2.942v0c.18-.19.44-.3.71-.3h2v0c.55 0 1 .44 1 1l1.5 4.5m-1.51 2.49v3"/><path d="M3 3l18 18"/></g></g></svg>