<svg viewBox="0 0 24 24" xmlns="http://www.w3.org/2000/svg"><g fill="none"><path d="M0 0h24v24H0Z"/><g stroke-linecap="round" stroke-width="2" stroke="#000" fill="none" stroke-linejoin="round"><path d="M13 10l7.38 7.41c.82.82.82 2.14 0 2.96v0c-.83.81-2.16.81-2.98 0L9.99 12.98"/><path d="M6 9l4 4"/><path d="M13 10L9 6"/><path d="M3 21h7"/><path d="M6.79 15.79L3.204 12.2H3.2c-.4-.4-.4-1.03 0-1.42l2.293-2.3 .5.5 3-3 -.5-.5 2.29-2.293v0c.39-.4 1.02-.4 1.41-.001l3.58 3.58v0c.39.39.39 1.02 0 1.41l-2.3 2.29 -.5-.5 -3 3 .5.5 -2.3 2.29v0c-.4.39-1.03.39-1.42 0Z"/></g></g></svg>