<svg viewBox="0 0 24 24" xmlns="http://www.w3.org/2000/svg"><g fill="none"><path d="M0 0h24v24H0Z"/><g stroke-linecap="round" stroke-width="2" stroke="#000" fill="none" stroke-linejoin="round"><path d="M8 8H5v0c0 3.31 2.68 6 6 6h2c.31 0 .62-.03.92-.08m2.79-1.22v-.001c1.37-1.09 2.21-2.73 2.27-4.49l0-.23h-7"/><path d="M18.81 18.844v0c-.47 1-1.66 1.43-2.66.96 -1.01-.47-1.44-1.66-.97-2.66 .2-.44.55-.78.98-.98"/><path d="M9 14l-3 6"/><path d="M15 18H7"/><path d="M15 5V4"/><path d="M12 5V4"/><path d="M9 5V4"/><path d="M3 3l18 18"/></g></g></svg>