<svg viewBox="0 0 24 24" xmlns="http://www.w3.org/2000/svg"><g fill="none"><path d="M0 0h24v24H0Z"/><g stroke-linecap="round" stroke-width="2" stroke="#000" fill="none" stroke-linejoin="round"><path d="M8 13v-2.5 0C8 9.67 8.67 9 9.5 9c.82 0 1.5.67 1.5 1.5V12"/><path d="M17 11.5v0c0-.83.67-1.5 1.5-1.5 .82 0 1.5.67 1.5 1.5V16v0c0 3.31-2.69 6-6 6h-2 .2v-.001c-2.02 0-3.91-1.02-5.02-2.7l0 0c-.07-.1-.14-.2-.2-.3 -.32-.48-1.407-2.39-3.286-5.73h0c-.4-.71-.17-1.61.53-2.03h0c.73-.45 1.67-.33 2.28.28l1.47 1.47"/><path d="M11 11.5v-2 0c0-.83.67-1.5 1.5-1.5 .82 0 1.5.67 1.5 1.5V12"/><path d="M14 12V5.5v0c0-.83.67-1.5 1.5-1.5 .82 0 1.5.67 1.5 1.5V12"/></g></g></svg>