<svg viewBox="0 0 24 24" xmlns="http://www.w3.org/2000/svg"><g fill="none"><path d="M0 0h24v24H0Z"/><g stroke-linecap="round" stroke-width="2" stroke="#000" fill="none" stroke-linejoin="round"><path d="M3 3l18 18"/><path d="M8 13.5V8m.44-3.57v0c.58-.59 1.53-.59 2.12 0 .28.28.43.66.43 1.06v1.5m0 4.008v.99m0-6.5v-2 0c0-.83.67-1.5 1.5-1.5 .82 0 1.5.67 1.5 1.5v6.5m0-4.5v0c0-.83.67-1.5 1.5-1.5 .82 0 1.5.67 1.5 1.5v6.5m0-4.5v0c0-.83.67-1.5 1.5-1.5 .82 0 1.5.67 1.5 1.5v8.5 0c0 3.31-2.69 6-6 6h-2c-2.12-.3-3.96-1.4-5-3l-2.7-5.25H4.28c-.56-.76-.39-1.83.37-2.38 .75-.56 1.82-.39 2.37.37l.9 1.75"/></g></g></svg>