<svg viewBox="0 0 24 24" xmlns="http://www.w3.org/2000/svg"><g fill="none"><path d="M0 0h24v24H0Z"/><g stroke-linecap="round" stroke-width="2" stroke="#000" fill="none" stroke-linejoin="round"><path d="M8 13V8"/><path d="M8.06 4.077v0c.23-.8 1.06-1.26 1.85-1.03 .64.18 1.08.77 1.08 1.44v2.5m0 4v1"/><path d="M12.063 8.06v0c.79-.25 1.63.2 1.87.99 .04.14.06.28.06.43v.5"/><path d="M14.06 10.082v0c.23-.8 1.06-1.26 1.85-1.03 .63.18 1.07.77 1.08 1.43v1.5"/><path d="M17 11.5v0c0-.83.67-1.5 1.5-1.5 .82 0 1.5.67 1.5 1.5V16m-.88 3.12l0 0c-1.09 1.78-3.03 2.87-5.12 2.87h-2 .2v-.001c-2.02 0-3.91-1.02-5.02-2.7l-.2-.3c-.32-.48-1.407-2.39-3.286-5.728h0c-.4-.71-.17-1.61.53-2.03v0c.73-.45 1.67-.33 2.28.28l1.47 1.47"/><path d="M3 3l18 18"/></g></g></svg>