<svg viewBox="0 0 24 24" xmlns="http://www.w3.org/2000/svg"><g fill="none"><path d="M0 0h24v24H0Z"/><g stroke-linecap="round" stroke-width="2" stroke="#000" fill="none" stroke-linejoin="round"><path d="M8 11V7.5v0C8 6.67 8.67 6 9.5 6c.82 0 1.5.67 1.5 1.5V10"/><path d="M11 9.5v-3 0c0-.83.67-1.5 1.5-1.5 .82 0 1.5.67 1.5 1.5V10"/><path d="M14 7.5v0c0-.83.67-1.5 1.5-1.5 .82 0 1.5.67 1.5 1.5V10"/><path d="M17 9.5v0c0-.83.67-1.5 1.5-1.5 .82 0 1.5.67 1.5 1.5V14v0c0 3.31-2.69 6-6 6h-2 .2v-.001c-2.02 0-3.91-1.02-5.02-2.7l-.2-.3c-.32-.48-1.407-2.388-3.286-5.728h0c-.4-.71-.17-1.61.53-2.03h0c.73-.45 1.67-.33 2.28.28l1.47 1.47"/></g></g></svg>