<svg viewBox="0 0 24 24" xmlns="http://www.w3.org/2000/svg"><g fill="none"><path d="M0 0h24v24H0Z"/><g stroke-linecap="round" stroke-width="2" stroke="#000" fill="none" stroke-linejoin="round"><path d="M19.5 12.57L12 19.99l-7.5-7.43v0c-1.98-1.93-2.03-5.1-.1-7.08 1.92-1.98 5.09-2.03 7.07-.1 .19.18.36.38.52.6V5.97c1.65-2.21 4.79-2.66 7-1 2.2 1.65 2.65 4.79.99 7 -.15.19-.32.38-.5.56"/><path d="M12 6L8.7 9.29v0c-.4.39-.4 1.02-.001 1.41l.54.54c.69.69 1.81.69 2.5 0l1-1 0-.001c1.24-1.25 3.25-1.25 4.5 0l2.25 2.25"/><path d="M12.5 15.5l2 2"/><path d="M15 13l2 2"/></g></g></svg>