<svg viewBox="0 0 24 24" xmlns="http://www.w3.org/2000/svg"><g fill="none"><path d="M0 0h24v24H0Z"/><g stroke-linecap="round" stroke-width="2" stroke="#000" fill="none" stroke-linejoin="round"><path d="M21 12l-9-9 -9 9h2v7 0c0 1.1.89 2 2 2h6"/><path d="M9 21v-6 0c0-1.11.89-2 2-2h2c.39 0 .75.11 1.061.3"/><path d="M18.99 21.5l2.51-2.58 0 0c.64-.68.65-1.74 0-2.42l0-.001c-.63-.65-1.66-.68-2.31-.06 -.02.01-.04.02-.05.04l-.17.17 -.17-.18v0c-.63-.65-1.66-.68-2.31-.05 -.02.01-.04.03-.05.04v0c-.65.67-.66 1.73-.01 2.41l2.51 2.59Z"/></g></g></svg>