<svg viewBox="0 0 24 24" xmlns="http://www.w3.org/2000/svg"><g fill="none"><path d="M0 0h24v24H0Z"/><g stroke-linecap="round" stroke-width="2" stroke="#000" fill="none" stroke-linejoin="round"><path d="M5.9 5H9.31v0c.4 0 .77.24.92.62l1.14 2.856v0c.37.94 1.2 1.63 2.2 1.83l4.71.92v0c.97.19 1.68 1.04 1.68 2.04v.71 0c0 .55-.45 1-1 1H5.07v0c-.56 0-1.01-.45-1.01-1 -.01-.04 0-.07 0-.11l.8-8h0c.05-.52.48-.91.99-.9Z"/><path d="M3 19h17v0c.55 0 1-.45 1-1"/><path d="M9 15v4"/><path d="M15 15v4"/></g></g></svg>