<svg viewBox="0 0 24 24" xmlns="http://www.w3.org/2000/svg"><g fill="none"><path d="M0 0h24v24H0Z"/><g stroke-linecap="round" stroke-width="2" stroke="#000" fill="none" stroke-linejoin="round"><path d="M4.02 13.252c-.66-.98-1.03-2.08-1.03-3.26 0-1.81.87-3.449 2.31-4.69m2.49-1.51V3.79c1.33-.54 2.75-.82 4.19-.81 4.97 0 9 3.134 9 7 0 1.79-.88 3.44-2.31 4.68m-2.503 1.51l-.001 0c-1.34.53-2.76.8-4.19.8 -1.92 0-3.686-.47-5.15-1.26"/><path d="M5 13a2 2 0 1 0 0 4 2 2 0 1 0 0-4Z"/><path d="M5 17c0 1.42.31 2.8 1 4"/><path d="M3 3l18 18"/></g></g></svg>