<svg viewBox="0 0 24 24" xmlns="http://www.w3.org/2000/svg"><g fill="none"><path d="M0 0h24v24H0Z"/><g stroke-linecap="round" stroke-width="2" stroke="#000" fill="none" stroke-linejoin="round"><path d="M8 4v0c1.1 0 2 .89 2 2M8.83 8.81v0c-.27.12-.55.18-.84.18h-2v0c-1.11 0-2-.9-2-2v-1c0-.55.22-1.05.58-1.407"/><rect width="6" height="7" x="4" y="13" rx="2"/><path d="M14 10V6v0c0-1.11.89-2 2-2h2v0c1.1 0 2 .89 2 2v10m-.6 3.42h-.001c-.38.37-.88.57-1.41.57h-2v0c-1.11 0-2-.9-2-2v-4"/><path d="M3 3l18 18"/></g></g></svg>