<svg viewBox="0 0 24 24" xmlns="http://www.w3.org/2000/svg"><g fill="none"><path d="M0 0h24v24H0Z"/><g stroke-linecap="round" stroke-width="2" stroke="#000" fill="none" stroke-linejoin="round"><path d="M4 8V6v0c0-1.11.89-2 2-2h2"/><path d="M4 16v2 0c0 1.1.89 2 2 2h2"/><path d="M16 4h2v0c1.1 0 2 .89 2 2v2"/><path d="M16 20h2v0c1.1 0 2-.9 2-2v-2"/><path d="M12 11l0 .01"/><path d="M12 18l-3.5-5v0c-1.07-1.94-.37-4.37 1.56-5.44 1.93-1.07 4.36-.37 5.43 1.56 .66 1.2.66 2.66 0 3.87l-3.5 5"/></g></g></svg>