<svg viewBox="0 0 24 24" xmlns="http://www.w3.org/2000/svg"><g fill="none"><path d="M0 0h24v24H0Z"/><g stroke-linecap="round" stroke-width="2" stroke="#000" fill="none" stroke-linejoin="round"><path d="M12 11a1 1 0 1 0 0 2 1 1 0 1 0 0-2Z"/><path d="M12 7a5 5 0 1 0 0 10 5 5 0 1 0 0-10Z"/><path d="M15.9 20.11l0 .01"/><path d="M19.04 17.61l0 .01"/><path d="M20.77 14l0 .01"/><path d="M20.77 10l0 .01"/><path d="M19.04 6.39l0 .01"/><path d="M15.9 3.89l0 .01"/><path d="M12 3l0 .01"/><path d="M8.1 3.89l0 .01"/><path d="M4.96 6.39l0 .01"/><path d="M3.23 10l0 .01"/><path d="M3.23 14l0 .01"/><path d="M4.96 17.61l0 .01"/><path d="M8.1 20.11l0 .01"/><path d="M12 21l0 .01"/></g></g></svg>