<svg viewBox="0 0 24 24" xmlns="http://www.w3.org/2000/svg"><g fill="none"><path d="M0 0h24v24H0Z"/><g stroke-linecap="round" stroke-width="2" stroke="#000" fill="none" stroke-linejoin="round"><path d="M14 3a7 7 0 1 0 0 14 7 7 0 1 0 0-14Z"/><path d="M21 10v0c0-1.94-1.57-3.5-3.5-3.5 -1.94 0-3.5 1.56-3.5 3.5"/><path d="M14 10v0c0 1.93-1.57 3.5-3.5 3.5C8.56 13.5 7 11.93 7 10"/><path d="M14 17v0c1.93 0 3.5-1.57 3.5-3.5 0-1.94-1.57-3.5-3.5-3.5"/><path d="M14 3v0c-1.94 0-3.5 1.56-3.5 3.5 0 1.93 1.56 3.5 3.5 3.5"/><path d="M3 21l6-6"/></g></g></svg>