<svg viewBox="0 0 24 24" xmlns="http://www.w3.org/2000/svg"><g fill="none"><path d="M0 0h24v24H0Z"/><g stroke-linecap="round" stroke-width="2" stroke="#000" fill="none" stroke-linejoin="round"><path d="M6.08 20c1.612 0 2.91-1.34 2.91-2.98V7.257c0-.694-.56-1.26-1.24-1.26 -.21 0-.41.05-.59.15l-.13.08c-1.46 1.05-2.44 2.64-3.41 5.82 -.42 1.37-.64 2.96-.65 4.77 -.02 1.67 1.26 3.05 2.87 3.16l.2 0Z"/><path d="M17.92 20C16.3 20 15 18.66 15 17.02V7.257c0-.694.55-1.26 1.23-1.26 .2 0 .4.05.58.15l.13.08c1.46 1.05 2.43 2.64 3.4 5.82 .42 1.37.63 2.96.64 4.77 .01 1.67-1.27 3.05-2.878 3.16l-.21 0Z"/><path d="M9 12v0c1.65 0 3-1.35 3-3v0c0 1.65 1.34 3 3 3"/><path d="M12 4v5"/></g></g></svg>