<svg viewBox="0 0 24 24" xmlns="http://www.w3.org/2000/svg"><g fill="none"><path d="M0 0h24v24H0Z"/><g stroke-linecap="round" stroke-width="2" stroke="#000" fill="none" stroke-linejoin="round"><path d="M3 7h3"/><path d="M3 11h2"/><path d="M9.02 8.8l-.6 6v0c-.11 1.09.69 2.07 1.79 2.18 .06 0 .13 0 .19 0h7.98v0c1.02-.01 1.88-.78 1.99-1.81l.6-6v0c.1-1.1-.7-2.08-1.8-2.19 -.07-.01-.14-.01-.2-.01h-7.98v-.001c-1.03 0-1.89.77-1.99 1.8Z"/><path d="M9.8 7.5l2.98 3.28v0c1.11 1.22 3.01 1.31 4.23.2 0-.01 0-.01 0-.01l3.28-2.99"/></g></g></svg>