<svg viewBox="0 0 24 24" xmlns="http://www.w3.org/2000/svg"><g fill="none"><path d="M0 0h24v24H0Z"/><g stroke-linecap="round" stroke-width="2" stroke="#000" fill="none" stroke-linejoin="round"><path d="M3 3l18 18"/><path d="M9.44 9.43h-.001c-.87 1.41-.43 3.25.99 4.12 .96.58 2.17.58 3.13-.01m1.43-2.56v0c0-1.66-1.35-3-3-3"/><path d="M8.04 4.04l0-.001c3.83-2.19 8.72-.85 10.91 2.99 1.39 2.45 1.39 5.46 0 7.91m-1.8 2.2l-3.75 3.74v0c-.79.78-2.05.78-2.83 0L6.32 16.62h0C3.38 13.69 3.18 9 5.84 5.83"/></g></g></svg>