<svg viewBox="0 0 24 24" xmlns="http://www.w3.org/2000/svg"><g fill="none"><path d="M0 0h24v24H0Z"/><g stroke-linecap="round" stroke-width="2" stroke="#000" fill="none" stroke-linejoin="round"><path d="M4 6c0-.556.22-1.06.593-1.43"/><path d="M9 4h1.5"/><path d="M13.5 4H15"/><path d="M18 4v0c1.1 0 2 .89 2 2"/><path d="M20 9v1.5"/><path d="M20 13.5V15"/><path d="M19.4 19.426v0c-.38.36-.88.57-1.41.57"/><path d="M15 20h-1.5"/><path d="M10.5 20H9"/><path d="M6 20v0c-1.11 0-2-.9-2-2"/><path d="M4 15v-1.5"/><path d="M4 10.5V9"/><path d="M3 3l18 18"/></g></g></svg>