<svg viewBox="0 0 24 24" xmlns="http://www.w3.org/2000/svg"><g fill="none"><path d="M0 0h24v24H0Z"/><g stroke-linecap="round" stroke-width="2" stroke="#000" fill="none" stroke-linejoin="round"><path d="M13.62 8.38l1.96-1.97v0c-.79-.79-.79-2.05-.01-2.83 .78-.79 2.04-.79 2.82-.01 .37.37.58.88.58 1.41v0c1.1-.01 2 .89 2 1.99s-.9 2-2 2c-.54 0-1.05-.22-1.42-.59l-1.82 1.82"/><path d="M8.025 13.47a7 3 0 1 0 0 6 7 3 0 1 0 0-6Z" transform="rotate(45 8.025 16.475)"/><path d="M7.5 16l1 1"/><path d="M12.97 21.42c3.9-3.91 4.855-9.29 2.12-12.03 -2.74-2.74-8.12-1.79-12.02 2.12"/></g></g></svg>