<svg viewBox="0 0 24 24" xmlns="http://www.w3.org/2000/svg"><g fill="none"><path d="M0 0h24v24H0Z"/><g stroke-linecap="round" stroke-width="2" stroke="#000" fill="none" stroke-linejoin="round"><path d="M17.92 17.733l-.58-.34 -3.36-1.94v4.53 0c0 .55-.45 1-1 1h-2v0c-.56 0-1-.45-1-1v-4.54L6.05 17.7H6.04c-.48.27-1.09.11-1.37-.37l-1-1.74v0c-.28-.48-.12-1.09.36-1.37l3.92-2.27 -3.93-2.27v0c-.48-.28-.65-.89-.37-1.37l1-1.74v0c.27-.48.88-.65 1.36-.37l.33.19m3.59-.46v-2 0c0-.56.44-1 1-1h2v0c.55 0 1 .44 1 1V8.46l3.92-2.27v0c.47-.28 1.08-.12 1.36.36l1 1.73v0c.27.47.11 1.08-.37 1.36l-3.93 2.26 3.92 2.26v0c.47.27.64.88.36 1.36l-.24.41"/><path d="M3 3l18 18"/></g></g></svg>