<svg viewBox="0 0 24 24" xmlns="http://www.w3.org/2000/svg"><g fill="none"><path d="M0 0h24v24H0Z"/><g stroke-linecap="round" stroke-width="2" stroke="#000" fill="none" stroke-linejoin="round"><path d="M18 18H4v0c-.56 0-1-.45-1-1V7v0c0-.56.44-1 1-1h2m4 0h10v0c.55 0 1 .44 1 1v10"/><path d="M15 6v5m0 4v3"/><path d="M18 12h.01"/><path d="M18 9h.01"/><path d="M6.5 10.5c1-.67 1.5-.67 2.5 0 .63.26 1.27.66 1.907.42"/><path d="M6.5 13.5c1-.67 1.5-.67 2.5 0 .83.34 1.66.92 2.5 0"/><path d="M3 3l18 18"/></g></g></svg>