<svg viewBox="0 0 24 24" xmlns="http://www.w3.org/2000/svg"><g fill="none"><path d="M0 0h24v24H0Z"/><g stroke-linecap="round" stroke-width="2" stroke="#000" fill="none" stroke-linejoin="round"><path d="M9 10l.01 0"/><path d="M15 10l.01 0"/><path d="M9.5 15.25v0c1.35-1.39 3.56-1.41 4.94-.06 .01.01.03.03.05.05"/><path d="M17.566 17.6v0c-.77.79-.76 2.05.04 2.82 .79.76 2.05.75 2.82-.05 .74-.77.75-1.98.02-2.76l-1.47-1.64 -1.44 1.6Z"/><path d="M20.865 13.517h-.001c.08-.51.13-1.01.13-1.52v0c0-4.98-4.03-9-9-9 -4.98 0-9 4.02-9 9 0 4.97 4.02 9 9 9 .69 0 1.36-.08 2-.23"/></g></g></svg>