<svg viewBox="0 0 24 24" xmlns="http://www.w3.org/2000/svg"><g fill="none"><path d="M0 0h24v24H0Z"/><g stroke-linecap="round" stroke-width="2" stroke="#000" fill="none" stroke-linejoin="round"><path d="M17 4.5v0c2.03 1.35 3.42 3.48 3.86 5.89v0c1.15.74 1.49 2.29.74 3.45 -.26.39-.62.7-1.04.9v0c-1.53 4.73-6.59 7.33-11.33 5.81 -2.77-.89-4.93-3.06-5.82-5.82H3.4c-1.25-.59-1.79-2.08-1.2-3.33 .19-.43.51-.78.9-1.04H3.1C3.52 8 4.87 5.91 6.84 4.55"/><path d="M9.5 16v0c1.35 1.38 3.56 1.4 4.94.05 .01-.02.03-.04.05-.06"/><path d="M8.5 2C10 3 11 5.5 11 7"/><path d="M12.5 2c1.5 2 2 3.5 2 5"/><path d="M9 12l.01 0"/><path d="M15 12l.01 0"/></g></g></svg>