<svg viewBox="0 0 24 24" xmlns="http://www.w3.org/2000/svg"><g fill="none"><path d="M0 0h24v24H0Z"/><g stroke-linecap="round" stroke-width="2" stroke="#000" fill="none" stroke-linejoin="round"><path d="M12 3c.13 0 .26 0 .39 0v-.001c-3.04 2.81-3.21 7.56-.39 10.59 2.11 2.27 5.42 3.01 8.3 1.84v0c-1.91 4.58-7.18 6.76-11.77 4.85 -4.59-1.91-6.77-7.18-4.86-11.77 1.39-3.36 4.67-5.55 8.3-5.55Z"/><path d="M17 4v0c0 1.1.89 2 2 2v0c-1.11 0-2 .89-2 2v0c0-1.11-.9-2-2-2v0c1.1 0 2-.9 2-2"/><path d="M19 11h2m-1-1v2"/></g></g></svg>