<svg viewBox="0 0 24 24" xmlns="http://www.w3.org/2000/svg"><g fill="none"><path d="M0 0h24v24H0Z"/><path fill="none" stroke="#000" stroke-linecap="round" stroke-linejoin="round" stroke-width="2" d="M12 21v0c-4.98 0-9-4.03-9-9 0-4.98 4.02-9 9-9v0c4.97 0 9 3.58 9 8v0c0 2.2-2.02 4-4.5 4H14v0c-1.11-.02-2.02.86-2.04 1.96 -.02.73.38 1.42 1.03 1.78v0c.52.48.56 1.3.07 1.83 -.28.29-.68.44-1.08.41"/></g><g stroke-linecap="round" stroke-width="2" stroke="#000" stroke-linejoin="round"><path d="M7.5 10a.5.5 0 1 0 0 1 .5.5 0 1 0 0-1Z"/><path d="M12 7a.5.5 0 1 0 0 1 .5.5 0 1 0 0-1Z"/><path d="M16.5 10a.5.5 0 1 0 0 1 .5.5 0 1 0 0-1Z"/></g></svg>