<svg viewBox="0 0 24 24" xmlns="http://www.w3.org/2000/svg"><g fill="none"><path d="M0 0h24v24H0Z"/><g stroke-linecap="round" stroke-width="2" stroke="#000" fill="none" stroke-linejoin="round"><path d="M7.934 3.97l-.001-.001c1.26-.64 2.65-.98 4.06-.97 4.97 0 9 3.58 9 8 0 1.06-.48 2.07-1.32 2.82v0c-.34.29-.72.54-1.12.72m-3.564.44h-1v0c-1.11-.02-2.02.86-2.04 1.96 -.02.73.38 1.42 1.03 1.78v0c.52.48.56 1.3.07 1.83 -.28.29-.68.44-1.08.41h-.001c-4.98 0-9.01-4.03-9.01-9 -.01-2.39.94-4.67 2.62-6.36"/><path d="M7.5 9.5a1 1 0 1 0 0 2 1 1 0 1 0 0-2Z"/><path d="M12 6.5a1 1 0 1 0 0 2 1 1 0 1 0 0-2Z"/><path d="M16.5 9.5a1 1 0 1 0 0 2 1 1 0 1 0 0-2Z"/><path d="M3 3l18 18"/></g></g></svg>