<svg viewBox="0 0 24 24" xmlns="http://www.w3.org/2000/svg"><g fill="none"><path d="M0 0h24v24H0Z"/><g stroke-linecap="round" stroke-width="2" stroke="#000" fill="none" stroke-linejoin="round"><path d="M22 12c0-5.523-4.477-10-10-10 -1.737 0-3.37.44-4.8 1.222m-2.28 1.71l0-.001c-1.88 1.87-2.93 4.41-2.93 7.06"/><path d="M22 12c0-1.66-1.46-3-3.25-3 -1.63 0-2.98 1.09-3.22 2.54m-.1-.09c-.23-1.07-1.12-1.94-2.29-2.29m-3.45.56c-.74.55-1.21 1.36-1.21 2.266 0-1.66-1.46-3-3.25-3 -1.8 0-3.25 1.34-3.25 3"/><path d="M2 12l10 10L8.5 12"/><path d="M14.582 14.62l-2.59 7.37 4.99-5m2.01-2.02l2.99-3"/><path d="M3 3l18 18"/></g></g></svg>