<svg viewBox="0 0 24 24" xmlns="http://www.w3.org/2000/svg"><g fill="none"><path d="M0 0h24v24H0Z"/><g stroke-linecap="round" stroke-width="2" stroke="#000" fill="none" stroke-linejoin="round"><path d="M14.7 13.5c-1.1-2-1.45-2.5-2.7-2.5 -1.26 0-1.74.75-2.84 2.747 -.95 1.7-2.85 1.84-3.33 3.29 -.1.26-.15.67-.15.96 0 1.17.78 2 1.8 2 1.25 0 3-1 4.5-1 1.49 0 3.24 1 4.5 1 1.01 0 1.8-.83 1.8-2 0-.29-.05-.7-.15-.97 -.48-1.46-2.52-1.84-3.46-3.54Z"/><path d="M20.18 8.082h0c-.13-.06-.27-.09-.41-.09h-.02c-.74.01-1.56.75-2 1.86 -.52 1.33-.28 2.7.53 3.05 .12.05.26.08.4.08 .73 0 1.57-.75 2.01-1.87 .51-1.34.27-2.7-.54-3.06Z"/><path d="M9.474 9c.05 0 .1-.01.16-.02 .94-.13 1.53-1.35 1.32-2.73 -.21-1.3-1.05-2.27-1.94-2.27 -.06 0-.11 0-.17.01 -.95.12-1.54 1.346-1.32 2.72 .2 1.29 1.04 2.26 1.93 2.26Z"/><path d="M16.456 6.73c.21-1.38-.375-2.6-1.32-2.73v0c-.06-.01-.11-.02-.17-.02 -.89 0-1.73.97-1.93 2.26 -.22 1.37.375 2.59 1.32 2.72 .05 0 .1.01.16.01 .88 0 1.73-.98 1.93-2.27Z"/><path d="M5.69 12.918c.81-.36 1.05-1.72.53-3.06 -.44-1.13-1.271-1.87-2.01-1.87 -.14 0-.28.02-.41.08 -.82.35-1.06 1.71-.536 3.05 .43 1.12 1.27 1.86 2.009 1.86 .14 0 .27-.03.4-.09Z"/></g></g></svg>