<svg viewBox="0 0 24 24" xmlns="http://www.w3.org/2000/svg"><g fill="none"><path d="M0 0h24v24H0Z"/><g stroke-linecap="round" stroke-width="2" stroke="#000" fill="none" stroke-linejoin="round"><path d="M15 8h.01"/><path d="M11 20H7v0c-1.66 0-3-1.35-3-3V7v0c0-1.66 1.34-3 3-3h10v0c1.65 0 3 1.34 3 3v3.5"/><path d="M4 15l4-4c.92-.9 2.07-.9 3 0l2 2"/><path d="M17.8 20.81l-2.18 1.13h0c-.2.09-.43.02-.53-.17 -.04-.08-.06-.17-.04-.25l.41-2.42 -1.76-1.71v0c-.16-.15-.16-.4-.01-.56 .06-.07.14-.11.22-.12l2.42-.36 1.08-2.2v0c.09-.2.33-.28.52-.18 .07.03.13.09.17.17l1.08 2.19 2.42.35v0c.21.03.36.22.33.44 -.02.08-.06.16-.12.22l-1.76 1.7 .41 2.41v0c.03.21-.11.41-.32.45 -.09.01-.18 0-.25-.04l-2.18-1.14Z"/></g></g></svg>