<svg viewBox="0 0 24 24" xmlns="http://www.w3.org/2000/svg"><g fill="none"><path d="M0 0h24v24H0Z"/><g stroke-linecap="round" stroke-width="2" stroke="#000" fill="none" stroke-linejoin="round"><path d="M15 11v.01"/><path d="M10 6h1.49l4.5-3 0 3.803v0c1.23.71 2.17 1.84 2.65 3.19h1.34v0c.55 0 1 .44 1 1v2 0c0 .55-.45 1-1 1h-1.35c-.06.16-.12.31-.19.47m-1.47 2.52v1.5 0c0 .82-.68 1.5-1.5 1.5 -.83 0-1.5-.68-1.5-1.5v-.59 0c-.34.05-.67.08-1 .08h-4v0c-.34 0-.67-.03-1-.09v.58 0c0 .82-.68 1.5-1.5 1.5 -.83 0-1.5-.68-1.5-1.5v-2 -.03 0c-2.48-2.21-2.69-6.01-.48-8.48 .55-.62 1.22-1.12 1.97-1.46"/><path d="M3 3l18 18"/></g></g></svg>