<svg viewBox="0 0 24 24" xmlns="http://www.w3.org/2000/svg"><g fill="none"><path d="M0 0h24v24H0Z"/><g stroke-linecap="round" stroke-width="2" stroke="#000" fill="none" stroke-linejoin="round"><path d="M12.71 20.713v0c-4.07 1.14-8.29-1.22-9.44-5.28 -.76-2.67-.01-5.53 1.95-7.49l.72-.72v0c2.4-2.41 6.12-2.94 9.105-1.29l2.38-2.35v-.001c.81-.81 2.13-.81 2.94.01 .75.76.8 1.97.11 2.8l-.12.12 -2.346 2.38v0c1.59 2.87 1.16 6.44-1.06 8.86"/><path d="M14 15a3 3 0 1 0 0 6 3 3 0 1 0 0-6Z"/><path d="M9.3 5.3l9.4 9.4"/></g></g></svg>