<svg viewBox="0 0 24 24" xmlns="http://www.w3.org/2000/svg"><g fill="none"><path d="M0 0h24v24H0Z"/><g stroke-linecap="round" stroke-width="2" stroke="#000" fill="none" stroke-linejoin="round"><path d="M2 9c0 5.523 4.477 10 10 10v-.001c1.92 0 3.8-.56 5.41-1.593m2.13-1.86v0c1.58-1.82 2.44-4.15 2.44-6.56"/><path d="M12 19c0-1.99.58-3.84 1.58-5.4m1.87-2.167v0c1.81-1.58 4.13-2.44 6.542-2.44"/><path d="M2 9h0c5.52 0 10 4.47 10 10"/><path d="M12 4v0c1.91 1.82 3 4.36 3 7.01"/><path d="M9.01 11.5l-.001-.001c-.04-.78.01-1.56.16-2.32m1.08-2.942l0 0c.46-.83 1.05-1.59 1.74-2.24"/><path d="M3 3l18 18"/></g></g></svg>