<svg viewBox="0 0 24 24" xmlns="http://www.w3.org/2000/svg"><g fill="none"><path d="M0 0h24v24H0Z"/><g stroke-linecap="round" stroke-width="2" stroke="#000" fill="none" stroke-linejoin="round"><path d="M2 20v0c.46.64 1.2 1.01 2 1h-.001c.79.01 1.53-.36 2-1h-.001c.46-.65 1.2-1.02 2-1v0c.79-.02 1.53.35 2 1v0c.46.64 1.2 1.01 2 1h-.001c.79.01 1.53-.36 2-1h-.001c.46-.65 1.2-1.02 2-1h-.001c.79-.02 1.53.35 2 1v0c.46.64 1.2 1.01 2 1v0c.79.01 1.53-.36 2-1"/><path d="M2 16v0c.46.64 1.2 1.01 2 1h-.001c.79.01 1.53-.36 2-1v0c.46-.65 1.2-1.02 2-1v0c.79-.02 1.53.35 2 1v0c.46.64 1.2 1.01 2 1h-.001c.79.01 1.53-.36 2-1v0c.46-.65 1.2-1.02 2-1h-.001c.79-.02 1.53.35 2 1h-.001c.46.64 1.2 1.01 2 1v0c.79.01 1.53-.36 2-1"/><path d="M15 12V4.5v0c0-.83.67-1.5 1.5-1.5 .82 0 1.5.67 1.5 1.5"/><path d="M9 12V4.5v0C9 3.67 8.32 3 7.5 3 6.67 3 6 3.67 6 4.5"/><path d="M15 5L9 5"/><path d="M9 10l6 0"/></g></g></svg>