<svg viewBox="0 0 24 24" xmlns="http://www.w3.org/2000/svg"><g fill="none"><path d="M0 0h24v24H0Z"/><g stroke-linecap="round" stroke-width="2" stroke="#000" fill="none" stroke-linejoin="round"><path d="M12 10a3 3 0 1 0 0 6 3 3 0 1 0 0-6Z"/><path d="M14.167 10.5c.72-1.54 1.15-3.05 1.3-4.514 .22-1.63-.77-2.99-3.47-2.99 -2.71 0-3.69 1.35-3.47 2.98 .14 1.471.58 2.976 1.3 4.514"/><path d="M13.169 16.751c.97 1.39 2.05 2.52 3.25 3.38 1.3 1 2.96.83 4.32-1.52 1.35-2.35.67-3.88-.85-4.5 -1.35-.61-2.87-.99-4.57-1.13"/><path d="M8.664 12.99c-1.7.14-3.213.52-4.56 1.12 -1.53.62-2.206 2.15-.86 4.49 1.354 2.34 3.02 2.51 4.321 1.51 1.2-.87 2.287-2 3.258-3.39"/></g></g></svg>