<svg viewBox="0 0 24 24" xmlns="http://www.w3.org/2000/svg"><g fill="none"><path d="M0 0h24v24H0Z"/><g stroke-linecap="round" stroke-width="2" stroke="#000" fill="none" stroke-linejoin="round"><rect width="16" height="16" x="4" y="4" rx="2"/><path d="M12 4v2.5 0c0 .27-.23.5-.5.5v0c-.83 0-1.5.67-1.5 1.5 0 .82.67 1.5 1.5 1.5v0c.27 0 .5.22.5.5V12"/><path d="M12 12v1.5 0c0 .27.22.5.5.5v0c.82 0 1.5.67 1.5 1.5 0 .82-.68 1.5-1.5 1.5v0c-.28 0-.5.22-.5.5V20"/><path d="M20 12h-2.5v0c-.28 0-.5-.23-.5-.5v0c0-.83-.68-1.5-1.5-1.5 -.83 0-1.5.67-1.5 1.5v0c0 .27-.23.5-.5.5H12"/><path d="M12 12h-1.5v0c-.28 0-.5.22-.5.5v0c0 .82-.68 1.5-1.5 1.5 -.83 0-1.5-.68-1.5-1.5v0c0-.28-.23-.5-.5-.5H4"/></g></g></svg>