<svg viewBox="0 0 24 24" xmlns="http://www.w3.org/2000/svg"><g fill="none"><path d="M0 0h24v24H0Z"/><g stroke-linecap="round" stroke-width="2" stroke="#000" fill="none" stroke-linejoin="round"><path d="M21 12h-8v0c0-.56-.45-1-1-1 -.56 0-1 .44-1 1 0 .55.44 1 1 1v8 0c4.97 0 9-4.03 9-9"/><path d="M15.999 8.99l0-.001c-1.66-2.21-4.8-2.66-7.01-1 -2.21 1.65-2.66 4.79-1 7 .28.37.61.71.99.99"/><path d="M20.48 8.99v0c-1.67-4.69-6.81-7.14-11.5-5.48C4.29 5.17 1.84 10.31 3.5 15c.9 2.55 2.92 4.57 5.48 5.47"/></g></g></svg>