<svg viewBox="0 0 24 24" xmlns="http://www.w3.org/2000/svg"><g fill="none"><path d="M0 0h24v24H0Z"/><g stroke-linecap="round" stroke-width="2" stroke="#000" fill="none" stroke-linejoin="round"><path d="M7.03 4.5v0c-.99.65-1.84 1.49-2.5 2.47"/><path d="M3.186 10.2l0-.001c-.24 1.15-.24 2.34-.001 3.5"/><path d="M4.5 16.96h-.001c.65.98 1.49 1.83 2.47 2.49"/><path d="M10.209 20.81v0c1.15.22 2.34.22 3.5 0"/><path d="M16.96 19.5v0c.98-.66 1.83-1.5 2.49-2.47"/><path d="M20.81 13.79l0 0c.23-1.16.23-2.35 0-3.51"/><path d="M19.5 7.038v-.001c-.66-.99-1.5-1.84-2.47-2.5"/><path d="M13.79 3.186v0c-1.16-.24-2.35-.25-3.51-.02"/><path d="M12 8l-2 4h4l-2 4"/><path d="M12 21v0c4.97 0 9-4.03 9-9 0-4.98-4.03-9-9-9"/></g></g></svg>