<svg viewBox="0 0 24 24" xmlns="http://www.w3.org/2000/svg"><g fill="none"><path d="M0 0h24v24H0Z"/><g stroke-linecap="round" stroke-width="2" stroke="#000" fill="none" stroke-linejoin="round"><path d="M12 17l-2 2 2 2m-2-2h9m1.89-2.08v0c-.01-.24-.06-.47-.15-.68l-.55-1"/><path d="M8.536 11l-.74-2.74 -2.732.73m2.73-.74l-4.5 7.79v0c-.51.98-.12 2.18.87 2.69 .19.1.41.16.63.19l1.141.02"/><path d="M15.46 11l2.73.73 .73-2.74m-.74 2.73l-4.5-7.8v0c-.61-.93-1.84-1.2-2.77-.59 -.19.12-.36.27-.49.44l-.6.97"/><path d="M3 3l18 18"/></g></g></svg>