<svg viewBox="0 0 24 24" xmlns="http://www.w3.org/2000/svg"><g fill="none"><path d="M0 0h24v24H0Z"/><g stroke-linecap="round" stroke-width="2" stroke="#000" fill="none" stroke-linejoin="round"><path d="M7 7h10v0c1.1 0 2 .89 2 2v1l1 1v3l-1 1v3 0c0 1.1-.9 2-2 2H7v0c-1.11 0-2-.9-2-2v-3l-1-1v-3l1-1V9v0c0-1.11.89-2 2-2Z"/><path d="M10 16h4"/></g></g><g stroke-linecap="round" stroke-width="2" stroke="#000" stroke-linejoin="round"><path d="M8.5 11a.5.5 0 1 0 0 1 .5.5 0 1 0 0-1Z"/><path d="M15.5 11a.5.5 0 1 0 0 1 .5.5 0 1 0 0-1Z"/><g fill="none"><path d="M9 7L8 3"/><path d="M15 7l1-4"/></g></g></svg>