<svg viewBox="0 0 24 24" xmlns="http://www.w3.org/2000/svg"><g fill="none"><path d="M0 0h24v24H0Z"/><g stroke-linecap="round" stroke-width="2" stroke="#000" fill="none" stroke-linejoin="round"><path d="M12 12H6v0c-1.66 0-3-1.35-3-3V7c0-1.09.57-2.04 1.43-2.56M7.99 4h10v0c1.65 0 3 1.34 3 3v2 0c0 1.65-1.35 3-3 3h-2"/><path d="M16 12h2v0c1.65 0 3 1.34 3 3v2m-1.45 2.56v0c-.47.28-1.01.43-1.56.43h-12v0c-1.66 0-3-1.35-3-3v-2 0c0-1.66 1.34-3 3-3h6"/><path d="M7 8v.01"/><path d="M7 16v.01"/><path d="M3 3l18 18"/></g></g></svg>