<svg viewBox="0 0 24 24" xmlns="http://www.w3.org/2000/svg"><g fill="none"><path d="M0 0h24v24H0Z"/><g stroke-linecap="round" stroke-width="2" stroke="#000" fill="none" stroke-linejoin="round"><path d="M6 9a3 3 0 1 0 0 6 3 3 0 1 0 0-6Z"/><path d="M18 3a3 3 0 1 0 0 6 3 3 0 1 0 0-6Z"/><path d="M15.86 15.89v0c-1.16 1.18-1.14 3.08.04 4.24 1.17 1.14 3.05 1.13 4.21-.03m.57-3.42v0c-.32-.65-.85-1.17-1.51-1.45"/><path d="M8.7 10.7l1.33-.69m2.62-1.36l2.64-1.36"/><path d="M8.7 13.3l6.6 3.4"/><path d="M3 3l18 18"/></g></g></svg>