<svg viewBox="0 0 24 24" xmlns="http://www.w3.org/2000/svg"><g fill="none"><path d="M0 0h24v24H0Z"/><g stroke-linecap="round" stroke-width="2" stroke="#000" fill="none" stroke-linejoin="round"><path d="M10 4l2 1 2-1"/><path d="M12 2v6m1.19 1.186l1.8 1.03"/><path d="M17.92 6.26l.13 2.23 1.86 1.23"/><path d="M20.66 7l-5.63 3.25 -.04.75"/><path d="M19.92 14.26l-1.02.67"/><path d="M14.212 14.22l-2.18 1.26"/><path d="M14 20l-2-1 -2 1"/><path d="M12 22v-6.5l-3-1.72"/><path d="M6.072 17.732l-.14-2.24 -1.87-1.24"/><path d="M3.34 17l5.629-3.25 -.01-3.458"/><path d="M4.07 9.732l1.86-1.24 .13-2.24"/><path d="M3.34 7l5.629 3.25 .8-.47"/><path d="M3 3l18 18"/></g></g></svg>