<svg viewBox="0 0 24 24" xmlns="http://www.w3.org/2000/svg"><g fill="none"><path d="M0 0h24v24H0Z"/><g stroke-linecap="round" stroke-width="2" stroke="#000" fill="none" stroke-linejoin="round"><path d="M12 3v0c2.2-.01 4 1.78 4 3.99 0 1.02-.4 2-1.1 2.75v0c2.89 1.6 3.94 5.25 2.34 8.15 -1.61 2.89-5.26 3.94-8.16 2.34 -2.9-1.61-3.95-5.26-2.35-8.16 .54-.99 1.35-1.8 2.34-2.35v0c-1.52-1.61-1.45-4.14.15-5.66 .74-.71 1.72-1.1 2.74-1.1Z"/><path d="M17.5 11.5L20 10"/><path d="M6.5 11.5L4 10"/><path d="M12 13h.01"/><path d="M12 16h.01"/></g></g></svg>