<svg viewBox="0 0 24 24" xmlns="http://www.w3.org/2000/svg"><g fill="none"><path d="M0 0h24v24H0Z"/><g stroke-linecap="round" stroke-width="2" stroke="#000" fill="none" stroke-linejoin="round"><path d="M14.828 14.828v0c1.58-1.54 1.63-4.07.09-5.66 -1.54-1.59-4.07-1.64-5.66-.1 -.04.03-.07.06-.1.09v0c-1.54 1.58-1.5 4.12.09 5.65 1.55 1.49 4 1.49 5.55 0Z"/><path d="M6.343 17.65l-1.42 1.41"/><path d="M6.343 6.343l-1.42-1.42"/><path d="M17.65 6.343l1.41-1.42"/><path d="M17.65 17.65l1.41 1.41"/><path d="M4 12H2"/><path d="M12 4V2"/><path d="M20 12h2"/><path d="M12 20v2"/></g></g></svg>