<svg viewBox="0 0 24 24" xmlns="http://www.w3.org/2000/svg"><g fill="none"><path d="M0 0h24v24H0Z"/><g stroke-linecap="round" stroke-width="2" stroke="#000" fill="none" stroke-linejoin="round"><path d="M14.468 10v0c-1.11-1.92-3.55-2.58-5.47-1.48s-2.58 3.54-1.48 5.46c.35.61.85 1.11 1.46 1.46"/><path d="M2 12h1"/><path d="M11 3v1"/><path d="M11 20v1"/><path d="M4.6 5.6l.7.7"/><path d="M17.4 5.6l-.7.7"/><path d="M5.3 17.7l-.7.7"/><path d="M15 13h5v0c1.1 0 2-.9 2-2 0-1.11-.9-2-2-2"/><path d="M12 16h5.71l.25-.01 0 0c1.1-.02 2.01.86 2.03 1.97 0 0 0 .01 0 .02v0c0 1.1-.9 2-2 2h-.29"/></g></g></svg>