<svg viewBox="0 0 24 24" xmlns="http://www.w3.org/2000/svg"><g fill="none"><path d="M0 0h24v24H0Z"/><g stroke-linecap="round" stroke-width="2" stroke="#000" fill="none" stroke-linejoin="round"><path d="M6 6h-.98v0c-1.12 0-2.03.9-2.03 2.02v2.83c0 .53.21 1.05.593 1.43l6.11 6.116v0c.79.79 2.07.79 2.86 0 0-.01 0-.01 0-.01l2.83-2.84c.02-.03.05-.06.08-.09"/><path d="M17.573 18.407l.41-.42m1.99-2l.41-.42v0c.79-.8.79-2.08 0-2.87 -.01-.01-.01-.01-.01-.01l-7.12-7.116"/><path d="M6 9h-.01"/><path d="M3 3l18 18"/></g></g></svg>