<svg viewBox="0 0 24 24" xmlns="http://www.w3.org/2000/svg"><g fill="none"><path d="M0 0h24v24H0Z"/><g stroke-linecap="round" stroke-width="2" stroke="#000" fill="none" stroke-linejoin="round"><path d="M8 4c.91-1.22 2.36-2 4-2v0c2.76 0 5 2.23 5 5v6m0 4v0c0 2.76-2.24 5-5 5 -2.77 0-5-2.24-5-5V7"/><path d="M12 8v0c.55 0 1-.45 1-1 0-.56-.45-1-1-1 -.56 0-1 .44-1 1"/><path d="M11.29 11.29v0c-.39.39-.37 1.03.02 1.41 .38.37 1 .37 1.38-.01"/><path d="M12 16a1 1 0 1 0 0 2 1 1 0 1 0 0-2Z"/><path d="M3 3l18 18"/></g></g></svg>