<svg viewBox="0 0 24 24" xmlns="http://www.w3.org/2000/svg"><g fill="none"><path d="M0 0h24v24H0Z"/><g stroke-linecap="round" stroke-width="2" stroke="#000" fill="none" stroke-linejoin="round"><path d="M16.95 9.01c3.02.73 5.05 2.12 5.05 3.71 0 1.08-.94 2.06-2.47 2.814m-3.01 1c-1.36.29-2.9.46-4.54.46 -5.52 0-10-1.91-10-4.276 0-1.59 2.04-2.99 5.07-3.724"/><path d="M14.69 10.686C16.07 10.326 17 9.706 17 9v-.04c0-2.742-2.24-4.965-5-4.965 -1.125 0-2.17.37-3 .992M7.29 7.27h0c-.2.53-.3 1.1-.3 1.67v.03c0 .96 1.69 1.76 3.95 1.95"/><path d="M15 17l2 3"/><path d="M8.5 17L7 20"/><path d="M12 14h.01"/><path d="M7 13h.01"/><path d="M17 13h.01"/><path d="M3 3l18 18"/></g></g></svg>