<svg viewBox="0 0 24 24" xmlns="http://www.w3.org/2000/svg"><g fill="none"><path d="M0 0h24v24H0Z"/><g stroke-linecap="round" stroke-width="2" stroke="#000" fill="none" stroke-linejoin="round"><path d="M10 14v0c1.35 1.38 3.56 1.4 4.94.05 .01-.02.03-.04.05-.06l4-4v0c1.38-1.39 1.38-3.62-.01-5 -1.39-1.39-3.62-1.39-5-.001l-.5.5"/><path d="M14 10v0c-1.36-1.39-3.57-1.41-4.95-.06 -.02.01-.04.03-.06.05l-4 4h-.001c-1.39 1.38-1.39 3.61 0 5 1.38 1.38 3.61 1.38 5 0l.5-.5"/><path d="M16 21l0-2"/><path d="M19 16l2 0"/><path d="M3 8l2 0"/><path d="M8 3l0 2"/></g></g></svg>