<svg viewBox="0 0 24 24" xmlns="http://www.w3.org/2000/svg"><g fill="none"><path d="M0 0h24v24H0Z"/><g stroke-linecap="round" stroke-width="2" stroke="#000" fill="none" stroke-linejoin="round"><rect width="4" height="4" x="3" y="3" rx="1"/><rect width="4" height="4" x="17" y="17" rx="1"/><path d="M7 5l7 0"/><path d="M10 19l7 0"/><path d="M9 18a1 1 0 1 0 0 2 1 1 0 1 0 0-2Z"/><path d="M15 4a1 1 0 1 0 0 2 1 1 0 1 0 0-2Z"/><path d="M7 5.5v0c2.76 0 5 2.91 5 6.5v0c0 3.58 2.23 6.5 5 6.5"/></g></g></svg>