<svg viewBox="0 0 24 24" xmlns="http://www.w3.org/2000/svg"><g fill="none"><path d="M0 0h24v24H0Z"/><g stroke-linecap="round" stroke-width="2" stroke="#000" fill="none" stroke-linejoin="round"><path d="M10 6V5v0c0-.56.44-1 1-1h2v0c.55 0 1 .44 1 1v2 0c0 .55-.45 1-1 1h-1"/><rect width="4" height="4" x="3" y="17" rx="1"/><path d="M20.705 20.709h0c-.19.18-.45.29-.71.29h-2v0c-.56 0-1-.45-1-1v-2c0-.28.11-.532.3-.72"/><path d="M6.5 17.1l3.74-6.823"/><path d="M13.158 9.197l-.66-1.2"/><path d="M7 19h10"/><path d="M3 3l18 18"/></g></g></svg>