<svg viewBox="0 0 24 24" xmlns="http://www.w3.org/2000/svg"><g fill="none"><path d="M0 0h24v24H0Z"/><g stroke-linecap="round" stroke-width="2" stroke="#000" fill="none" stroke-linejoin="round"><path d="M15 8v0c1.52 1.14 2.26 3.05 1.91 4.93m-1.38 2.6v0c-.17.16-.35.32-.54.46"/><path d="M17.7 5v0c3.3 2.67 4.29 7.29 2.36 11.08m-1.68 2.29v0c-.22.21-.45.42-.69.61"/><path d="M9.069 5.05l.43-.56v0c.2-.4.68-.55 1.07-.35 .3.15.48.5.42.84v2m0 4v8 0c.07.43-.22.84-.66.92 -.35.05-.69-.12-.85-.43l-3.5-4.5h-2v0c-.56 0-1-.45-1-1v-4 0c0-.56.44-1 1-1h2L7.26 7.3"/><path d="M3 3l18 18"/></g></g></svg>