<svg viewBox="0 0 24 24" xmlns="http://www.w3.org/2000/svg"><g fill="none"><path d="M0 0h24v24H0Z"/><g stroke-linecap="round" stroke-width="2" stroke="#000" fill="none" stroke-linejoin="round"><path d="M15 8l-.001-.001c2.2 1.65 2.65 4.79 1 7 -.29.37-.63.71-1 1"/><path d="M17.7 5l0 0c3.86 3.12 4.46 8.79 1.34 12.65 -.4.49-.85.94-1.35 1.34"/><path d="M6 15H4v0c-.56 0-1-.45-1-1v-4 0c0-.56.44-1 1-1h2l3.5-4.5v0c.2-.4.68-.55 1.07-.35 .3.15.48.5.42.84v14 0c.07.43-.22.84-.66.92 -.35.05-.69-.12-.85-.43l-3.5-4.5"/></g></g></svg>