<svg viewBox="0 0 24 24" xmlns="http://www.w3.org/2000/svg"><g fill="none"><path d="M0 0h24v24H0Z"/><g stroke-linecap="round" stroke-width="2" stroke="#000" fill="none" stroke-linejoin="round"><path d="M3 6l1.721 10.329v0c.16.96.99 1.67 1.97 1.67h10.61c.2 0 .41-.04.6-.1m1.52-2.48l1.57-9.436"/><path d="M3.48 8.965c.16.02.34.03.51.03 .79 0 1.53-.18 2-.5 .46-.32 1.21-.51 2-.5m4.92.91c.42-.09.8-.23 1.08-.42 .46-.33 1.21-.51 2-.5 .79-.01 1.53.17 2 .5 .46.32 1.21.5 2 .5 .17-.01.33-.02.5-.04"/><path d="M3 3l18 18"/></g></g></svg>