<svg viewBox="0 0 24 24" xmlns="http://www.w3.org/2000/svg"><g fill="none"><path d="M0 0h24v24H0Z"/><g stroke-linecap="round" stroke-width="2" stroke="#000" fill="none" stroke-linejoin="round"><path d="M12 18l.01 0"/><path d="M9.172 15.172v0c1.56-1.57 4.09-1.57 5.65 0"/><path d="M6.343 12.343v0c1.06-1.07 2.39-1.81 3.86-2.14m4.16.15l-.001 0c1.24.38 2.37 1.07 3.28 2"/><path d="M3.51 9.515l0 0c1.02-1.03 2.22-1.86 3.54-2.46m3.101-.92v0c3.78-.59 7.61.66 10.325 3.37"/><path d="M3 3l18 18"/></g></g></svg>