<svg viewBox="0 0 24 24" xmlns="http://www.w3.org/2000/svg"><g fill="none"><path d="M0 0h24v24H0Z"/><g stroke-linecap="round" stroke-width="2" stroke="#000" fill="none" stroke-linejoin="round"><path d="M12 19a1 1 0 1 0 0 2 1 1 0 1 0 0-2Z"/><path d="M3 11l5.5 5.5h0c1.94-1.91 5.05-1.91 7 0L21 11v0C16.61 6.02 9.03 5.55 4.06 9.93c-.38.33-.74.68-1.07 1.06"/><path d="M12 20l0-14"/><path d="M4 6v0c-.01-.63.12-1.24.4-1.8"/><path d="M7 2.1v0c.65-.17 1.34-.17 2 0"/><path d="M12 6h0c0-.63-.13-1.24-.4-1.8"/><path d="M12 6h-.001c-.01-.63.12-1.24.4-1.8"/><path d="M15 2.1v0c.65-.17 1.34-.17 2 0"/><path d="M20 6v0c0-.63-.13-1.24-.4-1.8"/></g></g></svg>