<svg viewBox="0 0 320 512" xmlns="http://www.w3.org/2000/svg"><path d="M320 344c0 74.98-61.02 136-136 136h-80.4c-46.34 0-87.31-29.53-101.1-73.48 -5.6-16.77 3.484-34.88 20.25-40.47 16.75-5.61 34.89 3.48 40.47 20.25 5.92 17.77 22.48 29.7 41.23 29.7H184c39.7 0 72-32.3 72-72s-32.3-72-72-72H80c-13.2 0-25.05-8.1-29.83-20.41 -4.78-12.29-1.51-26.29 8.21-35.19L189.78 96H32C14.33 96 0 81.67 0 64c0-17.67 14.33-32 32-32h240c13.2 0 25.05 8.09 29.83 20.41 4.78 12.3 1.51 26.27-8.21 35.19L162.22 208h21.77c74.1 0 136 61 136 136Z"/></svg>