<svg viewBox="0 0 448 512" xmlns="http://www.w3.org/2000/svg"><path d="M246.6 233.4l-160-160c-12.5-12.5-32.75-12.5-45.25 0s-12.5 32.75 0 45.25L178.8 256 41.4 393.4c-12.5 12.5-12.5 32.75 0 45.25C47.63 444.9 55.81 448 64 448c8.19 0 16.38-3.125 22.62-9.375l160-160c12.48-12.53 12.48-32.73-.02-45.23Zm192 0l-160-160c-12.5-12.5-32.75-12.5-45.25 0s-12.5 32.75 0 45.25L370.8 256 233.4 393.4c-12.5 12.5-12.5 32.75 0 45.25 6.2 6.25 14.4 9.35 22.6 9.35 8.2 0 16.38-3.125 22.62-9.375l160-160c12.48-12.53 12.48-32.73-.02-45.23Z"/></svg>