<svg viewBox="0 0 512 512" xmlns="http://www.w3.org/2000/svg"><path d="M151.6 41.95c-12.12-13.26-35.06-13.26-47.19 0l-87.1 96.09C4.47 151.1 5.34 171.4 18.38 183.3c13.02 11.95 33.27 11.04 45.22-1.98L96 145.89v302c0 17.8 14.3 32.1 32 32.1s32-14.3 32-32.9v-301.2l32.4 35.4c6.31 6.88 14.94 10.39 23.61 10.39 7.71 0 15.47-2.79 21.61-8.42 13.03-11.95 13.9-32.22 1.96-45.27l-87.99-96.06ZM320 96h50.75l-73.38 73.38c-9.16 9.15-11.89 22.91-6.94 34.88 4.95 11.97 16.63 19.74 29.56 19.74h127.1c18.6-.9 32.9-14.3 32.9-32s-14.33-32-32-32h-50.75l73.38-73.38c9.15-9.16 11.89-22.91 6.93-34.88C472.59 39.77 460.88 32 447.08 32h-127.1c-17.7 0-32 14.31-32 32 0 17.69 14.3 32 32 32Zm172.6 337.3l-79.99-160.1c-10.84-21.81-46.4-21.81-57.24 0l-79.99 160.1c-7.91 15.91-1.5 35.24 14.31 43.19 15.87 7.92 35.04 1.47 42.93-14.4l7.15-14.39h88.43l7.15 14.39c6.17 12.43 23.97 23.87 42.93 14.4 15.81-7.89 22.21-27.29 14.31-43.19Zm-124.8-41.9l16.2-32.7 16.22 32.63H367.8Z"/></svg>