<svg viewBox="0 0 512 512" xmlns="http://www.w3.org/2000/svg"><path d="M239.6 373.1c11.94-13.05 11.06-33.31-1.97-45.27 -13.55-12.42-33.76-10.52-45.22 1.97l-32.411 36.29V64.02c0-17.7-14.33-32.03-32-32.03s-32 14.33-32 32.03v302l-32.4-35.39c-11.96-12.94-32.21-13.94-45.22-1.94 -13.03 11.95-13.9 32.22-1.97 45.27l87.1 96.09c12.12 13.26 35.06 13.26 47.19 0l88.899-96.96ZM448 416h-50.75l73.38-73.38c9.15-9.16 11.89-22.91 6.93-34.88 -4.96-11.97-16.67-19.74-30.47-19.74h-128c-16.8 0-31.1 14.3-31.1 32s14.33 32 32 32h50.75l-73.38 73.38c-9.16 9.15-11.89 22.91-6.94 34.88 4.95 11.97 16.66 19.74 28.66 19.74h127.1c19.5 0 33.8-14.3 33.8-32s-14.3-32-32-32Zm44.6-206.7L412.61 49.2c-10.84-21.81-46.4-21.81-57.24 0L275.4 209.3c-7.91 15.91-1.5 35.24 14.31 43.19 15.87 7.92 35.04 1.47 42.93-14.4l7.15-14.39h88.43l7.15 14.39c6.17 12.43 23.97 23.87 42.93 14.4 15.79-7.89 22.19-27.29 14.29-43.19Zm-124.8-41.9l16.2-32.7 16.22 32.63H367.8Z"/></svg>