<svg viewBox="0 0 512 512" xmlns="http://www.w3.org/2000/svg"><path d="M216 320.3c-8.68 0-17.3 3.5-23.61 10.38L160 366.1V64.03C160 46.33 145.7 32 128 32c-17.7 0-32 14.33-32 32.03v302L63.6 330.7c-11.95-13.01-32.2-13.91-45.22-1.97 -13.03 11.95-13.9 32.22-1.97 45.27l87.1 96.09c12.12 13.26 35.06 13.26 47.19 0L237.8 374c11.94-13.05 11.06-33.31-1.97-45.27 -4.34-5.64-12.14-8.44-19.84-8.44Zm141.7-119.2l-7.69 8c-10.72 11.16-10.34 28.88.81 39.56 5.4 5.21 12.41 7.81 19.38 7.81 7.34 0 14.72-2.875 20.19-8.625 69.61-72.53 89.6-85.39 89.6-127.8 0-48.6-39.4-88-88-88s-88 39.4-88 88c-.91 36.34 22.09 67.64 53.69 81.04ZM392 96c13.23 0 24 10.77 24 24s-10.8 24-24 24 -24-10.8-24-24 10.8-24 24-24Zm24 320.4v-96.02c0-11.19-5.85-21.53-15.38-27.34 -9.54-5.79-21.41-6.19-31.34-1.07l-32 16.59c-15.69 8.125-21.81 27.44-13.69 43.13 5.71 11.1 16.81 17.3 28.41 17.3v47.41c-17.69 0-32 14.31-32 32 0 17.69 14.31 32 32 32h64c17.69 0 32-14.31 32-32 0-17.69-14.3-32.01-32-32.01Z"/></svg>