<svg viewBox="0 0 576 512" xmlns="http://www.w3.org/2000/svg"><path d="M544 416H320.9c-17.67 0-32 14.33-32 32s14.33 32 32 32H544c17.67 0 32-14.33 32-32s-14.3-32-32-32ZM320 96h32c17.67 0 31.1-14.33 31.1-32s-14.33-32-31.1-32h-32c-17.67 0-32 14.33-32 32s14.3 32 32 32Zm0 128h96c17.67 0 32-14.33 32-32s-14.33-32-32-32h-95.1c-17.67 0-32 14.33-32 32s13.4 32 31.1 32Zm0 128h160c17.67 0 32-14.33 32-32s-14.33-32-32-32H320.9c-17.67 0-32 14.33-32 32s13.4 32 31.1 32ZM151.6 41.95c-12.12-13.26-35.06-13.26-47.19 0l-87.1 96.09C4.47 151.1 5.35 171.4 18.38 183.3c6.14 5.62 13.89 8.41 21.61 8.41 8.67 0 17.3-3.51 23.61-10.39L96 145.89v302c0 17.8 14.3 32.1 32 32.1s32-14.33 32-32.03V145.89l32.4 35.4c12 13 32.2 14 45.2 2 13.03-11.95 13.9-32.22 1.96-45.27L151.59 41.94Z"/></svg>