<svg viewBox="0 0 448 512" xmlns="http://www.w3.org/2000/svg"><path d="M417.1 368c-5.94 10.27-16.69 16-27.75 16 -5.43 0-10.92-1.375-15.97-4.29L256 311.39v136.6c0 17.67-14.33 32-31.1 32 -16.77 0-32.9-14.3-32.9-32v-136.6L73.7 379.68c-5.03 2.91-10.53 4.31-15.95 4.31 -11.06 0-21.81-5.74-27.75-16 -8.828-15.31-3.6-34.88 11.72-43.72l117.38-68.28 -117.38-68.3c-15.31-8.8-20.55-28.4-12.62-43.7 7.53-11.5 20.16-17.3 32.55-15.8 4.13.5 8.23 1.9 12.07 4.1L192 200.59V63.99c0-17.67 14.33-32 32-32s32 14.33 32 32v136.6l118.3-68.29c3.83-2.22 7.93-3.54 12.07-4.06 12.33-1.56 25.03 4.24 30.73 15.74 8.82 15.31 3.59 34.88-11.72 43.72L288 255.98l118.3 68.28c15.3 8.82 20.5 28.42 10.8 43.72Z"/></svg>