<svg viewBox="0 0 640 512" xmlns="http://www.w3.org/2000/svg"><path d="M480 96h96c35.3 0 64 28.7 64 64v192c0 35.3-28.7 64-64 64h-96V96Zm-32 320H192V96h256v320ZM272 184c-13.3 0-24 10.7-24 24s10.7 24 24 24 24-10.7 24-24 -10.7-24-24-24Zm96 48c13.3 0 24-10.7 24-24s-10.7-24-24-24 -24 10.7-24 24 10.7 24 24 24Zm-96 48c-13.3 0-24 10.7-24 24s10.7 24 24 24 24-10.7 24-24 -10.7-24-24-24Zm96 48c13.3 0 24-10.7 24-24s-10.7-24-24-24 -24 10.7-24 24 10.7 24 24 24ZM64 96h96v320H64c-35.35 0-64-28.7-64-64V160c0-35.3 28.65-64 64-64Z"/></svg>