<svg viewBox="0 0 512 512" xmlns="http://www.w3.org/2000/svg"><path d="M429.6 272.9c0-16.26 16.36-16.81 29.99-16.81l2.93 0c16.64 0 33.14 2.05 49.2 5.83 -.03-2.03.27-3.93.27-5.93 0-141.4-114.6-256-256-256 -2.1 0-4.9.25-6.1.3C253.54 15.8 256 31.63 256 47.83c0 6-.29 12.03-.79 18 -.63 8.34-7.63 14.65-15.93 14.65 -6.1 0-16.03-4.68-16.03-15.97 0-1.74.71-7.16.71-16.69 0-15.26-2.39-30.18-6.23-44.69C106.87 19.77 19.47 107.28 3.05 218.28c14.44 3.81 29.38 5.79 44.45 5.79 10.07 0 15.59-.82 17.42-.82 6.22 0 16.49 4.65 16.49 15.99 0 16.11-16.13 16.77-29.73 16.77l-3.55-.04c-16.33 0-32.25-2.45-47.85-6.11 -.06 1.2-.31 4-.31 6.1 0 141.4 114.6 256 256 256 2.06 0 4.06-.26 6.11-.31 -3.62-15.5-6.12-31.3-6.12-47.5 0-5.69.25-11.38.71-17.03 .69-8.54 8.28-14.61 16.49-14.61 7.1 0 15.44 6.93 15.44 15.92 0 2.35-.66 5.88-.66 15.72 0 15.25 2.38 30.16 6.2 44.66 110.8-16.63 198.2-104.1 214.7-215 -14.55-3.86-29.59-5.88-44.74-5.88 -10.47 0-16.24.89-18.13.89 -2.74.01-16.44-2.39-16.44-15.99Zm-191.4-144c0 27.78-78.3 108.1-108.6 108.1 -8.62 0-16.01-6.97-16.01-15.98 0-6.01 3.39-11.75 9.16-14.49 80.3-38.08 76.21-94.5 99.39-94.5 12.55.77 16.05 12.17 16.05 16.87Zm159.3 161.7c0 5.96-3.37 11.68-9.14 14.43 -78.82 37.57-75.92 95-98.94 95 -12.58 0-16.01-11.54-16.01-16.03 0-28 78.29-109.4 108.1-109.4 9.28 0 15.98 7.7 15.98 16Z"/></svg>