<svg viewBox="0 0 576 512" xmlns="http://www.w3.org/2000/svg"><path d="M171.7 191.1h232.6L322.7 35.07c-6.1-11.76-1.5-26.25 10.2-32.364 11.8-6.12 26.3-1.54 32.4 10.22l93.1 178.17H544c17.7-.001 32 15.2 32 32 0 18.6-14.3 32-32 32l-51.9 208.4c-8 28.5-32.7 48.5-62.1 48.5H145.1c-28.5 0-54.1-20-61.22-48.5L32 255.09c-17.67 0-32-13.4-32-32 0-16.8 14.33-32 32-32h85.6l93.1-178.17c6.1-11.77 20.6-16.34 32.4-10.23 11.7 6.115 16.3 20.6 10.2 32.36l-81.6 156.03Zm19.4 112c0-8-6.3-16-16-16 -7.9 0-16 8-16 16v96c0 9.7 8.1 16 16 16 9.7 0 16-6.3 16-16v-96Zm80 0v96c0 9.7 8.1 16 16 16 9.7 0 16.9-6.3 16.9-16v-96c0-8-7.2-16-16.9-16 -7.9 0-16 8-16 16Zm144.9 0c0-8-7.2-16-16-16s-16 8-16 16v96c0 9.7 7.2 16 16 16s16-6.3 16-16v-96Z"/></svg>