<svg viewBox="0 0 640 512" xmlns="http://www.w3.org/2000/svg"><path d="M186 120.5c23-35.12 59.4-60.66 102-69.3V32c0-17.67 14.3-32 32-32 17.7-.001 32 14.32 32 31.99v19.2c73 14.83 128 79.4 128 156.8v18.8c0 47.1 17.3 92.4 48.5 127.6l7.4 8.3c8.4 9.5 10.5 22.9 5.3 34.4 -1.1.4-.4 0-.6 1.3l90.2 70.7c10.4 8.2 12.3 23.3 4.1 33.7 -8.2 10.4-23.3 12.3-33.7 4.1L9.19 42.88C-1.25 34.7-3.08 19.62 5.1 9.18 13.28-1.26 28.35-3.09 38.79 5.09l147.19 115.388Zm-26 106.3v-4.7L406.2 416H128c-12.6 0-24.9-7.4-29.19-18.9 -5.16-11.5-3.1-24.9 5.29-34.4l7.4-8.3c31.2-35.2 48.5-80.5 48.5-127.6v0ZM320 512c-17 0-33.3-6.7-45.3-18.7s-18.7-29.2-18.7-45.3h128c0 16.1-6.7 33.3-18.7 45.3s-29.2 18.7-45.3 18.7Z"/></svg>