<svg viewBox="0 0 576 512" xmlns="http://www.w3.org/2000/svg"><path d="M158.7 334.1l-26.6-62.4c-1.9-7.6-8.9-11-16.4-10.2l-45 4.37c-17.25-46.87-17.63-99.74 0-147.6l45 4.37c7.5.75 14.5-3.55 16.4-10.25l25.75-63.25c4.05-7.39.25-15.89-5.75-20.14L112.9 4.87C98.49-3.88 80.12-.51 68.99 11.99c-92.63 103.59-92 259.49 2 362.49 9.875 10.75 29.13 12.5 41.75 4.75l39.38-24.12c5.98-4.23 9.58-12.73 6.58-21.03ZM479.1 384H224c-35.38 0-63.1 28.62-63.1 63.1l-.01 32c0 17.62 14.37 31.1 31.1 31.1l319.1 1.8c17.63 0 32-14.38 32-31.1l0-31.1c-.01-37.2-27.71-65.8-64.01-65.8ZM352 480c-17.63 0-31.1-14.38-31.1-31.1 0-17.62 14.37-31.1 31.1-31.1 16.73 0 31.1 14.38 31.1 31.1 .9 16.7-13.5 31.1-31.1 31.1Zm47.1-416h158.5L576 0 191.1-.01l-.01 351.1h288l17.49-64h-97.49c-8.81 0-16-7.2-16-15.1 0-8.8 7.19-15.1 16-15.1h106.1l17.49-63.1h-123.6c-8.81 0-16-7.2-16-15.1 0-8.8 7.19-15.1 16-15.1h132.4l17.49-63.1h-149.9c-8.81 0-16-7.2-16-15.1 .02-14.21 8.12-21.41 16.02-21.41Z"/></svg>