<svg viewBox="0 0 448 512" xmlns="http://www.w3.org/2000/svg"><path d="M272 144c8.8 0 16-7.2 16-16s-7.25-16-16-16 -16 7.3-16 16 7.3 16 16 16Zm176 192V48c0-26.51-21.5-48-48-48H96C42.98 0 0 42.98 0 96v320c0 53.02 42.98 96 96 96h320c17.67 0 32-14.33 32-31.1 0-11.72-6.61-21.52-16-27.1v-81.36c9.8-9.64 16-22.24 16-36.44ZM240 64c44.3 0 80 28.75 80 64 0 20.88-12.75 39.25-32 50.88V192c0 8.75-7.25 16-16 16h-64c-8.7 0-16-7.2-16-16v-13.1c-19.2-11.6-32-30-32-50.9 0-35.25 35.8-64 80-64ZM121.7 238.7c-8.125-3.49-11.91-12.89-8.44-21.02 3.46-8.1 12.94-11.86 21-8.43l105.738 45.24 105.7-45.21c8.03-3.44 17.53.32 21 8.42 3.46 8.125-.32 17.53-8.44 21.02l-77.58 33.18 77.58 33.18c8.125 3.48 11.91 12.89 8.43 21.02 -2.6 6.08-8.5 9.68-14.7 9.68 -2.1 0-4.25-.41-6.29-1.29L239.97 289.27l-105.7 45.21c-2 .89-4.2 1.29-6.3 1.29 -6.22 0-12.12-3.65-14.72-9.71 -3.48-9 .32-17.5 8.42-21l77.58-33.18 -77.58-33.22ZM384 448H96c-17.67 0-32-14.33-32-32s14.33-32 32-32h288v64ZM208 144c8.8 0 16-7.2 16-16s-7.2-16-16-16 -16 7.3-16 16 7.3 16 16 16Z"/></svg>