<svg viewBox="0 0 448 512" xmlns="http://www.w3.org/2000/svg"><path d="M448 336V48c0-26.51-21.5-48-48-48H96C42.98 0 0 42.98 0 96v320c0 53.02 42.98 96 96 96h320c17.67 0 32-14.33 32-31.1 0-11.72-6.61-21.52-16-27.1v-81.36c9.8-9.64 16-22.24 16-36.44ZM133.1 160.4l21.25 21.25c3.125 3.125 8.125 3.125 11.25 0s3.125-8.125 0-11.25l-26.38-26.5c10-20.75 26.25-38 46.38-49.25 -17 27.12-11 62.75 14 82.63 -14.1 14.72-19.1 35.82-13.1 55.22 5.875 19.38 22 34.13 41.88 38.25L229.75 238l-10.36 7.1c-.6.4-1.5.7-2.3.7 -1 0-2-.375-2.75-1 -.75-.875-1.25-1.875-1.25-3 0-.625.25-1.375.5-2l8.7-14.3 -18-3.75c-1.75-.375-3.125-2.125-3.125-4s1.375-3.5 3.125-3.875l18-3.75 -8.7-14.23c-.8-1.6-.6-3.8.8-5 1.4-1.2 3.5-1.5 5-.375l12 8.125 4.6-110.77c.1-2.25 1.9-3.88 4-3.88s3.875 1.625 4 3.875l4.75 112.3 14.12-9.625c.625-.5 1.5-.625 2.25-.75 1.5 0 2.75.75 3.5 2s.625 2.875-.125 4.125l-8.5 14.17 17.1 3.75c1.75.375 3.125 2 3.125 3.875s-1.375 3.625-3.125 4l-17.1 3.67 8.5 14.38c.75 1.25.875 2.75.125 4s-2 2-3.5 2c-.75 0-1.625-.25-2.25-.625l-12.58-8.66 1.375 34.25c19.88-4.125 36-18.88 41.88-38.25 6-19.38 1-40.63-13.12-55.25 25-19.88 31-55.5 14-82.63 20.25 11.25 36.38 28.5 46.38 49.25l-26.38 26.5c-3.125 3.125-3.125 8.125 0 11.25s8.125 3.125 11.25 0l21.25-21.25c2.96 10.13 5.06 20.63 5.06 31.63 0 .5-.125 1-.125 1.5l-37.13 32.5c-1.65 1.6-2.65 3.8-2.75 6 .125 1.875.74 3.75 1.1 5.25 2.5 1.65 4.7 2.65 6.9 2.75 1.1 0 3.875-.75 5.25-1.1l23.62-20.63c-11.57 48.73-55.77 85.73-108.87 85.73s-97.2-37-108.9-86.6l23.62 20.63c1.58 1.27 3.38 1.87 5.28 1.97 3.375 0 6.25-2.125 7.5-5.125 1.125-3.125.25-6.75-2.25-8.875l-37.15-32.5c0-.5-.1-1-.1-1.5 0-11 2.1-21.5 5.1-31.6ZM384 448H96c-17.67 0-32-14.33-32-32s14.33-32 32-32h288v64Z"/></svg>