<svg viewBox="0 0 512 512" xmlns="http://www.w3.org/2000/svg"><path d="M480 179.6c18.6 8.8 32 32.5 32 60.4s-13.4 51.6-32 60.4V448c0 12.9-7.8 24.6-19.8 29.6 -11.9 4.9-25.7 2.2-34.8-7l-43.7-44.5c-48-48-113.1-74.1-181-74.1H192v128c0 17.7-14.3 32-32 32H96c-17.67 0-32-14.3-32-32V352c-35.35 0-64-28.7-64-64v-96c0-35.3 28.65-64 64-64h136.7c67.9 0 133-27 181-74.98l43.7-43.65c9.1-9.16 22.9-11.89 34.8-6.94 12 4.953 19.8 16.62 19.8 29.56v147.6ZM200.7 192H192v96h8.7c79.8 0 156.5 29.8 215.3 83.3V108.7C357.2 162.2 280.5 192 200.7 192v0Z"/></svg>