<svg viewBox="0 0 448 512" xmlns="http://www.w3.org/2000/svg"><path d="M352 111.1c22.09 0 40-17.88 40-39.97C392 49.04 352 0 352 0s-40 49.91-40 72c0 22.09 17.9 39.1 40 39.1Zm-128 0c22.09 0 40-17.88 40-39.97C264 49.04 224 0 224 0s-40 49.91-40 72c0 22.09 17.9 39.1 40 39.1Zm159.1 112l.9-63.1c0-8.84-7.17-16-16-16h-32c-8.8 0-16 7.2-16 16v64h-64v-64c0-8.84-7.17-16-16-16h-32c-8.8 0-16 7.2-16 16v64h-64v-64c0-8.84-7.17-16-16-16H80c-8.84 0-16 7.2-16 16v63.97c-35.35 0-64 28.65-64 63.1v68.7c9.814 6.1 21.39 11.33 32 11.33 20.64 0 45.05-19.73 52.7-27.33 6.25-6.22 16.34-6.22 22.59 0 6.81 8.53 32.11 27.33 52.71 27.33s45.05-19.73 52.7-27.33c6.25-6.22 16.34-6.22 22.59 0 6.81 8.53 32.11 27.33 52.71 27.33s45.05-19.73 52.7-27.33c6.25-6.22 16.34-6.22 22.59 0 6.81 8.53 32.11 27.33 52.71 27.33 10.61 0 22.19-5.23 32-11.33V287.1c0-34.5-28.7-64-64.9-64ZM352 373.3c-13.75 10.95-38.03 26.66-64 26.66s-50.25-15.7-64-26.66c-13.75 10.95-38.03 26.66-64 26.66s-50.25-15.7-64-26.66c-13.75 10.95-38.03 26.66-64 26.66 -11.27 0-22.09-3.13-32-7.38v87.38c0 17.73 14.33 32.03 32 32.03h384c17.67 0 32-14.33 32-32v-87.38c-9.91 4.25-20.73 7.37-32 7.37 -26-.9-50.2-15.7-64-26.7ZM96 111.1c22.09 0 40-17.88 40-39.97s-40-71.13-40-71.13 -40 49.91-40 72c0 22.09 17.91 39.1 40 39.1Z"/></svg>