<svg viewBox="0 0 512 512" xmlns="http://www.w3.org/2000/svg"><path d="M464 96h-88l-12.38-32.88C356.6 44.38 338.8 32 318.8 32H193.3c-20 0-38 12.38-45 31.12L136 96H48c-26.5 0-48 21.5-48 48v288c0 26.5 21.5 48 48 48h416c26.5 0 48-21.5 48-48V144c0-26.5-21.5-48-48-48ZM356.9 366.8C332.4 398.1 295.7 416 256 416c-31.78 0-61.37-11.94-84.58-32.61l-19.28 19.29C143.2 411.6 128 405.3 128 392.7v-76.4c0-5.46 4.35-9.84 9.77-9.99h76.98c12.35.3 18.47 15.27 9.65 24.09l-19.27 19.28C219.29 361.4 237.09 368 255.99 368c24.8 0 47.78-11.22 63.08-30.78 8.17-10.44 23.25-12.28 33.69-4.125 10.44 8.15 12.33 23.2 4.13 33.7ZM384 259.7c0 5.45-4.36 9.83-9.78 9.99h-76.98c-12.35-.31-18.47-15.27-9.66-24.09l19.27-19.28C292.68 214.6 274.88 208 255.98 208c-24.8 0-47.78 11.22-63.08 30.78 -8.12 10.42-23.22 12.32-33.72 4.12 -10.4-8.1-12.3-23.2-4.1-33.7 24.5-31.3 61.2-49.2 100.9-49.2 31.78 0 61.37 11.94 84.58 32.61l19.28-19.29c8.94-8.92 24.14-2.62 24.14 9.98v76.4Z"/></svg>