<svg viewBox="0 0 448 512" xmlns="http://www.w3.org/2000/svg"><path d="M248 104c0 13.3-10.7 24-24 24s-24-10.7-24-24V24c0-13.25 10.7-24 24-24s24 10.75 24 24v80Zm-94.2 56h140.4c32.9 0 63.9 21.3 75.3 53.1l28.3 79.3c20.1 8.5 34.2 28.4 34.2 51.6v136c0 17.7-14.3 32-32 32h-16c-17.7 0-32-14.3-32-32v-32H96v32c0 17.7-14.33 32-32 32H48c-17.67 0-32-14.3-32-32V344c0-23.2 14.08-43.1 34.16-51.6l28.33-79.3C89.86 181.3 120 160 153.8 160v0Zm0 64c-6.7 0-12.8 4.3-15 10.6L119.7 288h208.6l-19.1-53.4c-3.1-6.3-8.3-10.6-15-10.6H153.8ZM96 392c13.3 0 24-10.7 24-24s-10.7-24-24-24c-13.25 0-24 10.7-24 24s10.75 24 24 24Zm256-48c-13.3 0-24 10.7-24 24s10.7 24 24 24 24-10.7 24-24 -10.7-24-24-24ZM7.02 39.03c9.37-9.37 24.57-9.37 33.941 0l48 48c9.37 9.37 9.37 24.57 0 33.07 -9.37 10.2-24.57 10.2-33.94 0L7.02 72.97c-9.38-9.37-9.38-24.57 0-33.94v0Zm399.971 0c9.4-9.37 24.6-9.37 33.1 0 10.2 9.37 10.2 24.57 0 33.94l-48 47.13c-8.5 10.2-23.7 10.2-33.1 0 -9.3-8.5-9.3-23.7 0-33.07l48-48Z"/></svg>