<svg viewBox="0 0 512 512" xmlns="http://www.w3.org/2000/svg"><path d="M298.2 156.6c-52.7-25.7-114.5-10.5-151.1 32.8l55.27 55.31c6.25 6.25 6.25 16.33 0 22.58 -3.13 3-7.27 4.6-11.39 4.6 -4.13 0-8.07-1.61-11.19-4.61l-49.49-50.29L2.2 479.79c-2.88 6-3 13.25 0 19.63 5.5 11.12 19 15.75 30 10.38l133.6-65.25 -49.1-49.26c-6.38-6.125-6.38-16.38 0-22.5 6.25-6.25 16.37-6.25 22.5 0l56.98 56.98 102-49.89c24-11.63 44.5-31.26 57.13-57.13 30.19-61.66 4.59-135.96-57.11-166.16Zm92-34.8C409.7 81 399.7 32.88 359.1 0c-50.25 41.75-52.51 107.5-7.875 151.9l8 8c45.27 44.6 111.17 42.4 152.77-7.9 -32.9-39.7-81.9-49.7-121.8-30.2Z"/></svg>