<svg viewBox="0 0 320 512" xmlns="http://www.w3.org/2000/svg"><path d="M272 448H48c-26.51 0-48 21.5-48 48 0 8.8 7.16 16 16 16h288c8.83 0 16-7.17 16-16 0-26.5-21.5-48-48-48ZM8 287.9c0 51.63 22.12 73.88 56 84.63V416h192v-43.5c33.88-10.75 56-33 56-84.63 0-30.62-10.75-67.13-26.75-102.5L185 285.6c-1.57 1.56-3.61 2.34-5.66 2.34 -2.04 0-4.08-.78-5.63-2.34l-11.35-11.27c-1.56-1.56-2.34-3.62-2.34-5.68 0-2.07.78-4.13 2.34-5.7l107.9-107.9c-20.78-37.78-46.48-72.08-70.88-92.58 14-3.37 24.6-15.5 24.6-30.5 0-17.62-14.38-32-32-32h-64c-17.6 0-32 14.38-32 32 0 15 10.62 27.12 24.62 30.5 -52.87 44.3-112.62 152-112.62 225.4Z"/></svg>