<svg viewBox="0 0 320 512" xmlns="http://www.w3.org/2000/svg"><path d="M105.1 224H80c-8.88 0-16 7.1-16 16v32c0 8.875 7.125 15.1 16 15.1l16 .9v5.5c0 44-4.12 86.6-24 122.5h176c-19.9-35.9-24-78.5-24-122.5V288l16-.01c8.875 0 16-7.125 16-15.1v-32c0-9.8-7.1-16.9-16-16.9h-25.12c29.42-18.4 49.12-50.8 49.12-88 0-57.5-46.5-104-104.9-104 -58.4 0-103.1 46.5-103.1 104 0 37.2 19.74 69.6 49.1 88ZM272 448H47.1c-25.61 0-47.1 21.5-47.1 47.1 0 9.7 7.16 16.9 16 16.9h288c8.83 0 16-7.17 16-16 0-26.5-21.5-48-48-48Z"/></svg>