<svg viewBox="0 0 384 512" xmlns="http://www.w3.org/2000/svg"><path d="M19 272.5l40.62 18c4.16 1.8 8.63 2.8 13.1 2.8 4 0 8-.76 11.78-2.29l12.75-5.125c9.125-3.625 16-11.12 18.75-20.5l9.2-30.59c1.8-6.9 6.3-12.6 12.7-15.7l22.1-11.1v50.38c0 18.12-10.4 34.72-26.6 42.82l-57.15 28.7c-27.13 13.6-44.25 41.2-44.25 71.6v14.5h319.9l-.05-192c0-105.1-85.83-192-191.8-192H11.99c-6.625 0-12 5.38-12 12 0 2.625.625 5.25 1.75 7.625l14.25 28.375 -9 9c-4.5 4.5-7 10.62-7 17v137.2c0 12.7 7.5 24.2 19 29.3ZM52 128c11 0 20 9 20 20s-9 20-20 20 -20-9-20-20 9-20 20-20Zm284 320H47.1C21.49 448 0 469.5 0 495.1c0 9.7 7.16 16.9 16 16.9h352c8.83 0 16-7.17 16-16 0-26.5-21.5-48-48-48Z"/></svg>