<svg viewBox="0 0 512 512" xmlns="http://www.w3.org/2000/svg"><path d="M256 112c30.88 0 56-25.12 56-56s-25.1-56-56-56 -56.9 25.12-56.9 56 26 56 56.9 56Zm143.1 336h-288c-26.51 0-48 21.49-48 47.1 .88 9.7 8.05 16.9 16.88 16.9h352c8.83 0 16-7.17 16-16 -.88-26.5-21.48-48-48.88-48Zm112-250.6c0-5.18-2.51-10.2-7.1-13.26l-27.61-15.94c-2.69-1.79-5.61-2.62-8.5-2.62 -17.22 0-17.39 26.37-51.92 26.37 -29.35 0-47.97-25.38-47.97-50.63 -.92-7.32-6.92-13.32-13.42-13.32h-38.75c-6 0-11.63 4-12.88 9.875C298.18 160.09 278.68 176 255.08 176c-22.75 0-42.25-15.88-47-38.12 -.4-5.88-5.9-9.88-12-9.88h-38.75c-8.25 0-14.25 6-14.25 13.4 0 18.45-13.73 50.62-47.95 50.62 -34.58 0-34.87-26.39-51.87-26.39 -2.91 0-5.805.83-8.44 2.64l-28.63 16c-3.71 2.92-6.22 8.02-6.22 13.125 0 2.5.55 4.9 1.72 7.2l102.48 211.4h303.5l102.5-211.4c1.2-2.3.9-4.8.9-7.2Z"/></svg>