<svg viewBox="0 0 512 512" xmlns="http://www.w3.org/2000/svg"><path d="M352 351.1h-71.25l47.44-105.4c3.06-6.79 1.03-14.81-4.91-19.31 -5.97-4.47-14.22-4.32-19.94.46l-153.6 128c-5.16 4.31-7.1 11.41-4.79 17.72 2.28 6.34 8.28 10.56 15.03 10.56h71.25l-47.44 105.4c-3.07 6.78-1.04 14.81 4.9 19.31 2.89 3.05 5.39 4.15 9.69 4.15 3.65 0 7.28-1.25 10.25-3.72l153.6-128c5.15-4.32 7.09-11.41 4.78-17.72 -2.24-6.37-8.24-11.47-15.04-11.47ZM416 128c-.625 0-1.125.25-1.625.25C415.5 123 416 117.6 416 112c0-44.25-35.7-80-80-80 -24.62 0-46.25 11.25-61 28.75C256.4 24.75 219.3 0 176 0 114.1 0 64 50.13 64 112c0 7.25.75 14.25 2.125 21.25C27.75 145.8 0 181.5 0 224c0 53 43 96 96 96h46.63l140.2-116.8c8.6-7.2 19.53-11.16 30.76-11.16 10.34 0 20.6 3.41 29.03 9.73 17.96 13.61 24.02 37.45 14.76 57.95l-27.18 60.27H416c53 0 96-43 96-96s-43-96-96-96Z"/></svg>