<svg viewBox="0 0 512 512" xmlns="http://www.w3.org/2000/svg"><path d="M416 128c-.625 0-1.125.25-1.625.25C415.5 123 416 117.6 416 112c0-44.25-35.75-80-79.1-80 -24.62 0-46.25 11.25-60.1 28.75C256.4 24.75 219.3 0 176 0 114.3 0 64 50.13 64 112c0 7.25.75 14.25 2.12 21.25C27.75 145.8-.01 181.5-.01 224c0 53 42.1 96 95.1 96h319.1c54.79 0 97.79-43 97.79-96s-43-96-96-96ZM198.8 353.9c-12.17-5.22-26.3.4-31.52 12.59l-47.1 112c-5.22 12.19.42 26.31 12.61 31.53 1.31 1.38 5.41 1.98 8.51 1.98 9.31 0 18.17-5.44 22.08-14.53l47.1-112c6.12-12.17-.38-26.27-11.68-31.57Zm-117.34 0c-12.19-5.22-26.3.4-31.52 12.59l-47.1 112c-6.12 12.21-.48 26.31 11.71 31.61 3.08 1.3 6.28 1.9 9.44 1.9 9.31 0 18.17-5.44 22.08-14.53l47.1-112c6.12-12.17.47-26.27-11.71-31.57Zm234.64 0c-12.19-5.22-26.3.4-31.52 12.59l-47.1 112c-5.22 12.19.42 26.31 12.61 31.53 2.21 1.38 5.41 1.98 8.61 1.98 9.31 0 18.17-5.44 22.08-14.53l47.1-112c5.22-12.17.42-26.27-11.78-31.57Zm117.4 0c-12.17-5.22-26.28.4-31.52 12.59l-47.1 112c-5.22 12.19.42 26.31 12.61 31.53 2.11 1.38 5.31 1.98 7.61 1.98 9.31 0 18.17-5.44 22.08-14.53l47.1-112c7.02-12.17 1.32-26.27-10.78-31.57Z"/></svg>