<svg viewBox="0 0 512 512" xmlns="http://www.w3.org/2000/svg"><path d="M256 32C114.6 32 .01 125.1.01 240c0 49.59 21.39 95 56.99 130.7C44.5 421.09 2.69 466 2.19 466.5c-2.2 2.3-2.79 5.7-1.51 8.7 .41 3 4.12 4.8 7.31 4.8 66.31 0 116-31.8 140.6-51.41 32.7 12.31 69 19.41 107.4 19.41 141.4 0 256-93.1 256-208s-114.6-208-256-208Zm-88.7 239.9c-3.4 19.2-21 32.1-46.2 32.1 -4.04 0-8.25-.32-12.59-1 -7.41-1.2-15.7-4.2-23.01-6.9 -8.32-3-14.06-12.66-11.09-20.97 2.97-8.31 10.59-14.03 18.97-10.23 6.97 2.49 14.53 5.44 20.88 6.43 11.44 1.76 20.74-.34 21.54-4.94 1.05-5.92-10.84-8.4-24.56-12.34 -12.12-3.54-44.28-12.97-38.63-46 4.06-23.38 27.31-35.91 58-31.09 5.9.9 12.44 2.84 18.59 4.96 8.34 2.875 12.78 12 9.9 20.34 -2.81 8.42-11.91 12.82-20.31 9.92 -4.35-1.5-8.94-2.94-13.09-3.6 -11.22-1.66-20.72.4-21.5 4.9 -1.01 5.68 9.39 7.98 20.19 11.08 17 4.9 48.7 13.9 42.9 47.3ZM320 288c0 8.84-7.16 16-16 16 -8.85 0-16-7.2-16-16v-48l-19.19 25.59c-6.07 8.06-19.55 8.06-25.62 0L224 240v48c0 8.84-7.16 16-16 16 -8.85 0-16-7.2-16-16v-96c0-6.875 4.4-12.1 10.94-15.18 6.5-2.1 13.71.05 17.87 5.59L256 229.3l35.19-46.93c4.15-5.54 11.4-7.66 17.87-5.59C315.6 179 320 185.1 320 192v96Zm119.3-16.1c-3.4 19.2-21 32.1-46.2 32.1 -4.04 0-8.25-.32-12.59-1 -8.25-1.25-16.56-4.25-23.88-6.91 -8.32-3-14.06-12.66-11.09-20.97 2.97-8.31 10.59-13.16 18.97-10.19 6.97 2.49 14.53 5.44 20.88 6.43 11.44 1.71 20.78-.375 21.56-4.94 1.05-5.92-10.84-8.4-24.56-12.34 -12.12-3.54-44.28-12.97-38.63-46 4.03-23.38 27.25-35.91 58-31.09 5.9.9 12.44 2.84 18.59 4.96 8.34 2.875 12.78 12 9.9 20.34 -2.875 8.34-11.94 12.81-20.34 9.9 -4.35-1.5-8.94-2.94-13.09-3.6 -11.19-1.66-20.72.4-21.5 4.9 -.13 5.66 10.27 7.96 21.07 11.06 17 4.9 48.7 13.9 42.9 47.3Z"/></svg>