<svg viewBox="0 0 640 512" xmlns="http://www.w3.org/2000/svg"><path d="M416 176C416 78.8 322.9 0 208 0 93.1 0 0 78.8 0 176c-.001 39.57 15.62 75.96 41.67 105.4 -16.39 32.76-39.23 57.32-39.59 57.68 -2.1 2.2-2.67 5.47-1.45 8.35 1.26 2.86 3.96 4.56 7.02 4.56 38.35 0 70.76-11.12 95.74-24.04 30.8 15.14 66.4 24.04 104.6 24.04 114.9 0 208-78.8 208-176Zm-146.2 42.3c-3.6 20.9-19.4 33.8-41.8 39.4V268c0 11.03-8.96 20-20 20 -11.05 0-20-8.97-20-20v-10.8c-8.69-1.93-17.3-4.73-25.06-7.52l-4.27-1.5c-10.38-3.69-15.88-15.09-12.18-25.488 3.68-10.41 15.11-15.81 25.52-12.22l4.46 1.625c7.84 2.81 16.72 6 23.66 7.03 13.65 2.16 28.851.16 30.25-7.64 .9-5.1 1.4-7.9-27.9-16.3l-5.8-1.7c-17.33-5.1-57.92-17-50.52-59.84 3.62-20.86 19.42-34.9 41.82-39.67v-9.99c0-11.03 8.95-20 20-20 11.04 0 20 8.96 20 20v10.63c5.45 1.19 11.34 2.78 18.56 5.27 10.44 3.59 15.94 14.99 12.34 25.49 -3.6 10.4-15.1 15.9-25.5 12.3 -5.86-2.04-12-4-17.59-4.85 -13.61-2.06-29.71-.16-30.21 7.64 -.8 3.6-1.3 7.7 21.5 14.7l6.4 1.6c22.3 6.3 63.8 18.2 56.3 61.5Zm329.8 225.4C624.8 413.9 640 376.6 640 336c0-97.2-86-176-192-176 -.32 0-.62.04-.94.04 .43 5.25.93 10.55.93 15.95 0 98.62-79.68 181.2-186.1 202.5 20.8 76.6 95.2 133.5 186.1 133.5 33.69 0 65.32-8.01 92.85-21.98 24.35 11.98 55.25 21.98 91.45 21.98 3.05 0 5.76-1.73 7.02-4.61 1.22-2.88.65-6.15-1.45-8.36 -.28-.35-21.98-23.75-38.28-55.35Z"/></svg>