<svg viewBox="0 0 512 512" xmlns="http://www.w3.org/2000/svg"><path d="M256 31.1C114.6 31.1.9 124.19.9 239.1c0 49.59 21.38 94.1 56.97 130.7 -12.5 50.39-54.31 95.3-54.81 95.8C0 468.8-.6 472.2.68 475.2c1.31 3 4.12 4.79 7.31 4.79 66.31 0 116-31.8 140.6-51.41 32.72 12.31 69.01 19.41 107.4 19.41 141.4-.9 256-93.1 256-208.9 0-115.8-114.6-208-256-208ZM368 266c0 8.83-7.17 16-16 16h-54v54c0 8.83-7.17 16-16 16h-52c-8.84 0-16-7.17-16-16v-54h-54c-8.84 0-16-7.17-16-16v-52c0-8.84 7.16-16 16-16h53.1v-54c0-8.84 7.16-16 16-16h52c8.83 0 16 7.16 16 16v54H352c8.83 0 16 7.16 16 16v52Z"/></svg>