<svg viewBox="0 0 640 512" xmlns="http://www.w3.org/2000/svg"><path d="M64.03 239.1c0 49.59 21.38 94.1 56.97 130.7 -12.5 50.39-54.31 95.3-54.81 95.8 -2.19 2.29-2.79 5.7-1.5 8.7 1.31 3 4.125 4.79 7.31 4.79 66.31 0 116-31.8 140.6-51.41 32.72 12.31 69.02 19.41 107.4 19.41 37.39 0 72.78-6.67 104.8-18.36L82.92 161.69c-12.12 24.2-18.9 50.6-18.9 77.4Zm566.77 230l-118.1-92.59C551.1 340 576 292.4 576 240c0-114.9-114.6-207.1-255.1-207.1 -67.74 0-129.1 21.55-174.9 56.47L38.81 5.11C28.21-3.16 13.16-1.1 5.11 9.19c-8.19 10.44-6.37 25.53 4.07 33.7l591.1 463.1c10.5 8.2 25.57 6.33 33.7-4.08 9.11-9.52 7.21-24.62-3.19-32.82Z"/></svg>