<svg viewBox="0 0 512 512" xmlns="http://www.w3.org/2000/svg"><path d="M256 31.1C114.6 31.1.9 124.19.9 239.1c0 49.59 21.37 94.1 56.97 130.7 -12.5 50.39-54.31 95.3-54.81 95.8C0 468.8-.6 472.2.68 475.2c.41 3 4.12 3.9 7.31 3.9 66.31 0 116-31.8 140.6-51.41 32.72 12.31 69.02 19.41 107.4 19.41 141.4 0 255.1-93.09 255.1-207.1 0-114.01-113.7-208.9-255.1-208.9Zm61.8 251.2c-3.63 20.91-19.47 34.64-41.83 39.43V332c0 11.03-8.95 20-19.99 20 -11.05 0-19.98-9-19.98-20v-10.77c-8.69-1.93-17.3-4.73-25.06-7.52l-4.27-1.5c-10.38-3.72-15.88-15.12-12.18-25.52 3.68-10.41 15.11-15.81 25.52-12.22l4.46 1.625c7.84 2.81 16.72 6 23.66 7.03 13.72 2.125 28.94.18 30.31-7.625 .875-5.1 1.35-7.91-27.92-16.28l-5.84-1.74c-17.33-5.1-57.92-17-50.52-59.84 3.62-20.86 19.42-34.86 41.82-40.56v-9.1c0-11.03 8.96-20 20.01-20 11.04 0 19.99 8.96 19.99 20v10.63c5.45 1.19 11.34 2.78 18.56 5.27 10.44 3.625 15.95 15.03 12.33 25.47 -3.625 10.41-15.06 15.94-25.45 12.34 -5.86-2.04-12-4-17.59-4.85 -13.65-2.07-29.75-.17-30.25 7.631 -.8 3.6-1.3 7.7 21.5 14.7l5.54 1.59c23.15 6.3 64.65 18.2 57.15 61.5Z"/></svg>