<svg viewBox="0 0 512 512" xmlns="http://www.w3.org/2000/svg"><path d="M494.6 255.9C428.97 255.07 376 201.76 376 136c-65.74 0-119.1-52.97-119.8-118.6 -25.66-3.87-51.8.23-74.77 12.07L116.7 62.41C93.35 74.36 74.36 93.35 62.41 116.7L29.6 181.2c-11.95 23.44-16.17 49.92-12.07 75.94l11.37 71.48c4.102 25.9 16.29 49.8 34.81 68.32l51.36 51.39C133.6 466.9 157.3 479 183.2 483.1l71.84 11.37c25.9 4.1 52.27-.12 75.59-11.95l64.81-33.05c23.32-11.84 42.31-30.82 54.14-54.14l32.93-64.57c11.79-23.06 15.99-49.36 12.09-74.86ZM176 367.1c-17.62 0-32-14.37-32-31.1 0-16.73 14.38-31.1 32-31.1 17.62 0 32 14.37 32 31.1 0 16.73-14.4 31.1-32 31.1ZM208 208c-17.62 0-32-14.37-32-31.1 0-16.73 14.38-31.1 32-31.1 17.62 0 32 14.37 32 31.1 0 16.73-14.4 31.1-32 31.1Zm160 127.1c-17.62 0-32-14.37-32-31.1 0-16.73 14.38-31.1 32-31.1 17.62 0 32 14.37 32 31.1 0 16.73-14.4 31.1-32 31.1Z"/></svg>