<svg viewBox="0 0 640 512" xmlns="http://www.w3.org/2000/svg"><path d="M634 276.8l-10-13.88 -.01-77.22c0-11.88-12.5-19.49-23.12-14.11 -10.88 5.375-19.5 13.5-26.38 23l-65.75-90.92C490.59 78.71 461.79 64 430.99 64h-319c-48.63 0-88 39.4-88 88v86.38C9.49 250.1-.01 267.9-.01 288v32h8c35.38 0 64-28.62 64-64V152c0-16.88 10.5-31.12 25.38-37 -.88 4.1-1.38 8.5-1.38 13l0 304c0 8.875 7.12 16 16 16h63.1c8.875 0 16-7.125 16-16l0-112c9.375 9.375 20.25 16.5 32 21.88V368c0 8.875 7.25 16 16 16 8.875 0 15.1-7.125 15.1-16v-17.25c9.12 1 12.88 2.25 32-.125V368c0 8.875 7.25 16 16 16 8.875 0 16-7.125 16-16v-26.12c13.59-5.38 24.39-12.68 33.79-21.88l-.01 112c0 8.875 7.125 16 15.1 16h64c8.75 0 16-7.125 16-16V256l31.1 32 0 41.55c0 12.62 3.75 24.95 10.75 35.45l41.25 62c10.6 13.1 25.3 21 41.2 21 22.5 0 41.88-15.88 46.25-38l21.75-108.6c1.7-8.6-.3-17.5-5.4-24.6ZM377.3 167.4l-22.88 22.75C332.5 211.8 302.9 224 272.1 224c-30.8 0-60.6-12.2-82.5-33.9l-22.8-22.7c-15.8-15.6-2.4-39.4 22.1-39.4h166.2c24.5 0 37.9 23.8 22.2 39.4ZM576 352c-8.875 0-16-7.125-16-16s7.125-16 16-16 16 7.125 16 16 -7.1 16-16 16Z"/></svg>