<svg viewBox="0 0 576 512" xmlns="http://www.w3.org/2000/svg"><path d="M576 136c0 22.09-17.91 40-40 40 -.25 0-.46-.13-.71-.14l-50.52 277.9c-2.78 15.13-15.98 26.23-31.48 26.23h-330.6c-15.46 0-28.72-11.06-31.48-26.27L40.7 175.89c-.25 0-.46.1-1.61.1 -22.09 0-40-17.91-40-40s18.81-40 40-40 40 17.91 40 40c0 8.99-3.53 16.89-8.54 23.57l89.63 71.7c15.91 12.73 39.5 7.54 48.61-10.68l57.6-115.2c-11.31-7.05-19.31-19.05-19.31-33.39 0-22.09 18.8-40 40.9-40 22.1 0 39.1 17.91 39.1 40 0 14.34-7.97 26.34-19.3 33.4l57.6 115.2c9.11 18.22 32.71 23.4 48.61 10.68l89.63-71.7c-4.14-6.68-7.64-15.48-7.64-23.58 0-22.1 17.9-40 40-40s40 17.9 40 40Z"/></svg>