<svg viewBox="0 0 448 512" xmlns="http://www.w3.org/2000/svg"><path d="M192 64c0-17.67 14.3-32 32-32h64c17.7 0 32 14.33 32 32v64c0 17.7-14.3 32-32 32h-64c-17.7 0-32-14.3-32-32V64Zm-53.9 110.1c15.3-8 34-2.7 43.7 12.6l32 55.4c8.8 15.3 3.6 34-11.7 43.7l-55.4 32c-15.3 8.8-34.9 3.6-44.6-11.7l-31.14-55.4c-8.84-15.3-3.59-34.9 11.71-44.6l55.43-32ZM352 192c17.7 0 32 14.3 32 32v64c0 17.7-14.3 32-32 32h-64c-17.7 0-32-14.3-32-32v-64c0-17.7 14.3-32 32-32h64Zm64 160c17.7 0 32 14.3 32 32v64c0 17.7-14.3 32-32 32h-64c-17.7 0-32-14.3-32-32v-64c0-17.7 14.3-32 32-32h64Zm-256 32c0-17.7 14.3-32 32-32h64c17.7 0 32 14.3 32 32v64c0 17.7-14.3 32-32 32h-64c-17.7 0-32-14.3-32-32v-64Zm-64-32c17.7 0 32 14.3 32 32v64c0 17.7-14.3 32-32 32H32c-17.67 0-32-14.3-32-32v-64c0-17.7 14.33-32 32-32h64Z"/></svg>