<svg viewBox="0 0 448 512" xmlns="http://www.w3.org/2000/svg"><path d="M448 80v48c0 44.2-100.3 80-224 80C100.3 208 0 172.2 0 128V80C0 35.82 100.3 0 224 0c123.7 0 224 35.82 224 80Zm-54.8 134.7c19.9-7.4 39.9-16.9 54.8-28.6V288c0 44.2-100.3 80-224 80C100.3 368 0 332.2 0 288V186.1c14.93 11.7 34.02 21.2 54.85 28.6C99.66 230.7 159.5 240 224 240c64.5 0 124.3-9.3 169.2-25.3v0Zm-338.35 160C99.66 390.7 159.5 400 224 400c64.5 0 124.3-9.3 169.2-25.3 19.9-7.4 39.9-16.9 54.8-28.6V432c0 44.2-100.3 80-224 80s-224-35.8-224-80v-85.9c14.93 11.7 34.02 21.2 54.85 28.6Z"/></svg>