<svg viewBox="0 0 576 512" xmlns="http://www.w3.org/2000/svg"><path d="M576 384c0 35.3-28.7 64-64 64H205.3c-17 0-33.3-6.7-45.3-18.7L9.37 278.6c-6.01-6-9.38-14.1-9.38-22.6 0-8.5 3.37-16.6 9.37-22.6L159.99 82.75c12-12.01 28.3-18.75 45.3-18.75h306.7c35.3 0 64 28.65 64 64v256ZM271 208.1l47.1 47.9 -47.1 47c-9.3 9.4-9.3 24.6 0 33.1 9.4 10.2 24.6 10.2 33.1 0l47.9-46.2 47 46.2c9.4 10.2 24.6 10.2 33.1 0 10.2-8.5 10.2-23.7 0-33.1l-46.2-47 46.2-47.9c10.2-8.5 10.2-23.7 0-33.1 -8.5-9.3-23.7-9.3-33.1 0l-47 47.1 -47.9-47.1c-8.5-9.3-23.7-9.3-33.1 0 -9.3 9.4-9.3 24.6 0 33.1v0Z"/></svg>