<svg viewBox="0 0 640 512" xmlns="http://www.w3.org/2000/svg"><path d="M191.1 479.1c0 18.5 15.3 32.9 32 32.9h32c17.6 0 32-14.4 32-32v-64h160v64c0 17.6 14.41 32 32.01 32h31.99c17.6 0 32-14.4 32-32l.01-128H191.99l-.9 127.1Zm446.1-222.2l-19.5-29.38c-28.25-42.25-75.38-67.5-126.1-67.5H255.1l-80.4-81.27c20.13-20 22.63-51 7.5-73.88 -3.3-5.13-10.7-5.88-15.1-1.5l-41.9 41.88L82.36 2.37c-3.62-3.63-9.62-3.01-12.37 1.25 -12.25 18.63-10.25 44 6.125 60.38 3.25 3.25 7.25 5.25 11.25 7.5 -2.125 1.75-4.625 3.125-6.375 5.375L6.36 176.25c-7.25 9.64-8.38 22.64-3 33.44l14.38 28.5c5.375 10.88 16.5 17.75 28.5 17.75h30.99c8.5 0 16.63-3.375 22.63-9.375l38.13-34.63 54.04 108h351.1l-.02-77.75c16.25 12.13 18.25 17.5 40.13 50.25 4.875 7.375 14.75 9.25 22.13 4.375L632 279.18c8.18-4.99 10.18-14.99 5.18-22.29Zm-341-13.7l-16.5 16.2 3.875 22.75c.625 4.125-3.625 7.125-7.25 5.25l-21.23-10.7 -19.5 10.7c-4.5 1.8-7.9-1.2-7.2-5.3l3.875-22.75 -16.58-16.15c-3-2.875-1.25-7.875 2.875-8.5l22.75-3.25 10.25-20.75c1.75-3.625 7.12-3.625 9 0l10.13 20.75 22.88 3.25c4.01.7 5.61 5.7 2.61 8.5Zm112 0l-16.5 16.13 3.875 22.75c.625 4.125-3.625 7.125-7.25 5.25l-21.23-10.63 -20.38 10.63c-3.625 1.875-7.875-1.125-7.25-5.25l3.875-22.75 -16.5-16.13c-3-2.875-1.25-7.875 2.875-8.5l22.75-3.25 10.25-20.75c1.75-3.625 7.125-3.625 9 0l10.13 20.75 22.88 3.25c4.87.7 6.47 5.7 3.47 8.5Zm112 0l-16.5 16.13 3.875 22.75c.625 4.125-3.625 7.125-7.25 5.25l-20.38-10.63 -20.38 10.63c-3.625 1.875-7.875-1.125-7.25-5.25l3.875-22.75 -16.5-16.13c-3-2.875-1.25-7.875 2.875-8.5l22.75-3.25 10.25-20.75c1.75-3.625 7.125-3.625 9 0l10.13 20.75 22.88 3.25c4.02.7 5.625 5.7 2.625 8.5Z"/></svg>