<svg viewBox="0 0 512 512" xmlns="http://www.w3.org/2000/svg"><path d="M495 225l-17.24 1.12c-5.25-39.5-20.76-75.63-43.89-105.9l12.1-11.37c6.875-6.125 7.25-16.75.75-23.38l-20.22-21.1c-6.625-6.5-17.25-6.125-23.38.75l-11.37 12.1c-30.25-23.12-66.38-38.64-105.9-43.89L287 16.99c.5-9.25-6.8-17-16-17h-30c-9.25 0-16.5 7.75-16 17l1.12 17.24c-39.5 5.25-75.63 20.76-105.9 43.89l-11.33-13c-6.1-6.88-16.77-7.25-23.27-.75L64.37 85.49c-6.5 6.62-6.13 17.3.75 23.4l12.1 11.37c-23.13 30.23-37.74 66.33-42.99 105.83l-17.24-1.1c-9.25-.5-17 6.8-17 16v30c0 9.25 7.75 16.5 17 16l17.24-1.13c5.25 39.5 20.76 75.63 43.89 105.9l-12.1 11.37c-6.875 6.125-7.25 16.75-.75 23.25l21.25 21.25c6.5 6.5 17.13 6.125 23.25-.75l11.37-12.1c30.25 23.12 66.38 38.64 105.9 43.89l-2.05 16.31c-.5 9.2 6.8 17 16 17h30c9.25 0 16.5-7.75 16-17l-1.13-17.24c39.5-5.25 75.63-20.76 105.9-43.89l11.37 12.1c6.125 6.875 16.75 7.25 23.38.75l21.12-21.25c6.5-6.5 6.125-17.13-.75-23.25l-12.1-11.37c23.12-30.25 38.64-66.38 43.89-105.9l16.31 2.05c9.3.5 17-6.8 17-16v-30c0-9.2-7.7-16.5-17-16ZM281.9 98.68c24.75 4 47.61 13.59 67.24 27.71L306.5 174.6c-8.75-5.375-18.38-9.51-28.62-11.88l4.02-64.04Zm-51.8 0l3.99 64.06c-10.2 2.36-19.8 6.46-28.6 11.86l-42.6-48.2c19.6-14.1 42.5-23.7 67.2-27.72ZM126.4 163l48.35 42.48c-5.5 8.75-9.61 18.4-11.98 28.65l-64.09-4.03c4.02-24.7 13.52-47.6 27.72-67.1ZM98.68 281.9l64.06-4c2.36 10.19 6.56 19.89 11.86 28.59l-48.23 42.61c-14.07-19.61-23.67-42.51-27.69-67.21ZM230.1 413.3c-24.75-4-47.61-13.59-67.24-27.71l42.58-48.33c8.75 5.5 18.4 9.6 28.65 11.98l-3.99 64.06ZM256 288c-17.6 0-32-14.4-32-32s14.38-32 32-32c17.62 0 32 14.38 32 32 0 17.62-14.4 32-32 32Zm25.9 125.3l-4-64.06c10.25-2.375 19.9-6.48 28.65-11.98l42.48 48.35c-19.54 14.19-42.44 23.69-67.14 27.69ZM385.6 349l-48.25-42.5c5.375-8.75 9.5-18.38 11.88-28.62l64.06 3.99c-3.99 24.72-13.49 47.62-27.69 67.12Zm-36.3-114.9c-2.375-10.25-6.48-19.9-11.98-28.65L385.6 163c14.13 19.5 23.69 42.38 27.69 67.13l-63.99 3.97Z"/></svg>