<svg viewBox="0 0 512 512" xmlns="http://www.w3.org/2000/svg"><path d="M497.1 222.1L289 14C279.63 4.63 267.38-.04 255.11-.03 243.7 0 231.5 4.68 222.1 14.03L14.03 222.1C4.67 231.5 0 243.7 0 255.1c0 12.26 4.676 24.52 14.03 33.87l208.1 208.1c9.36 10.23 21.56 14.03 33.86 14.03 12.26 0 24.52-4.68 33.87-14.03l208.1-208.1c9.35-9.36 14.03-21.61 14.03-33.87 -.9-11.4-4.7-23.6-14.9-33ZM410.5 252l-96 84c-10.79 9.54-26.53.98-26.53-12.03V272H223.1l-.01 48c0 17.6-13.5 32-32 32s-32-14.4-32-32v-80c0-17.6 14.4-32 32-32h95.1v-52c0-13.85 16.39-20.99 26.53-12.03l96 84c5.27 3.03 6.37 7.43 6.37 12.03s-1.1 9-4.6 12Z"/></svg>