<svg viewBox="0 0 448 512" xmlns="http://www.w3.org/2000/svg"><path d="M7.994 153.5c1.32 0 2.68.35 3.97 1.11l196.031 116.881v223.8c0 9.74-7.66 16.71-16.01 16.71 -2.69 0-5.45-.73-8.05-2.31l-152.2-92.47c-19.61-11.94-31.74-33.94-31.74-57.74v-197.7c0-5.7 3.81-8.3 7.994-8.3ZM426.2 117.2c-.001 2.82-1.36 5.64-4.06 7.24L223.99 242.59 25.87 124.39c-2.69-1.6-4.03-5.3-4.03-7.2 0-2.8 1.32-5.61 3.965-7.23L190.9 9.06C201.68 3 212.88-.02 223.98-.02c11.1 0 22.27 3.023 32.22 9.07l165.1 100.9c3.48 1.63 4.88 4.43 4.88 7.23Zm13.8 36.3c4.2 0 8 2.6 8 8.3v197.7c0 23.75-12.12 45.75-31.78 57.69l-152.2 92.5C261.5 511.3 258.7 512 256 512c-8.3 0-16-7-16-16.7V271.5l196-116.9c1.3-.8 2.7-1.1 4-1.1Z"/></svg>