<svg viewBox="0 0 512 512" xmlns="http://www.w3.org/2000/svg"><path d="M288 167.2v-28.1c-28.25-36.38-47.13-79.29-54.13-125.2C231.7.4 214.8-5.02 206.1 5.48c-22 24.87-37.7 54.21-48.9 86.589 34.2 38.23 80 64.63 130.8 75.13ZM400 63.97c-44.25 0-79.1 35.82-79.1 80.08l0 59.44c-104.4-6.26-193-70.46-233-161.7 -6.43-12.54-24.15-13.21-29.9-.96C41.37 75.96 32 115.2 32 156.6c0 70.76 34.11 136.9 85.11 185.9 13.12 12.75 26.13 23.27 38.88 32.77L12.11 411.2c-10.75 2.75-15.5 15.09-9.5 24.47 17.38 26.88 60.42 72.54 153.2 76.29 8 .25 15.99-2.64 22.12-7.89l65.23-56.12L320 448c88.38 0 160-71.49 160-159.9l0-160.2 31.1-63.99 -111.12.04Zm0 96.13c-8.75 0-16.01-7.26-16.01-16.01 0-8.88 7.26-16.05 16.01-16.05 8.74 0 15.99 7.13 15.99 16.01 .01 8.75-7.19 16.05-15.99 16.05Z"/></svg>