<svg viewBox="0 0 512 512" xmlns="http://www.w3.org/2000/svg"><path d="M512 168.9c0 1.76-.03 3.39-.08 5.16 -16.91-9.14-35.51-13.76-53.96-13.76 -82.65 0-105.5 74.17-105.5 105.4 0 27.04 9.92 54.43 29.63 76.25 -19.52 6.62-39.99 9.99-60.62 9.99l-87.18 0 -40.59 40.49c-6.11 6.1-8.93 14.01-8.93 22.17 0 13.98 7.244 17.1 7.244 37.03 .07 33.75-27.43 60.35-60.33 60.35 -15.63 0-31.11-6.06-42.72-17.8 -11.55-11.46-16.82-26.31-16.82-41.26 0-4.95.57-9.91 1.69-14.75 -4.85 1.11-9.8 1.68-14.72 1.68 -42.15 0-59.13-36.64-59.13-59.5 0-33.43 27.15-60.34 60.39-60.34 18.97 0 22.97 7.21 36.96 7.21 8.15 0 16.04-2.82 22.14-8.92l40.57-40.47 .03-86.77c0-63.1 27.79-107 63.17-142.4 33.13-33.06 76.39-49.59 119.7-49.59s86.79 16.53 119.9 49.59c33.03 33.8 49.13 77 49.13 120.2Z"/></svg>