<svg viewBox="0 0 640 512" xmlns="http://www.w3.org/2000/svg"><path d="M418.8 104.2L404.6 32H304.1l-.1 127.1h60.77c16.33-18.4 34.33-37.3 54.03-54.9ZM272.1 32.12H171.5L145.9 160.1H272l.1-127.98Zm189.2 72.08c18.25 16.25 35.51 33.62 51.14 51.49 5.75-5.63 11.38-11.12 17.38-16.37l21.26-18.98 21.25 18.98c1.125.99 2.125 2.12 3.12 3.12 -.125-.75.25-1.5 0-2.25l-24-95.97c-1.625-7.13-8.13-12.12-15.38-12.12h-98.88l12.25 61.5 11.85 10.59ZM16 160.1l97.26-.03 25.64-127.9H40.01c-7.26 0-13.75 4.99-15.5 12.12L.5 140.19c-2.51 10.1 5.12 19.9 15.49 19.9Zm324.6 32H32.01l4 31.99 -20.02.01c-8.75 0-16 7.2-16 16V272c0 8.74 7.251 15.1 16 15.1l28.01.01 20 159.1v17.78c0 8.8 7.25 16 16 16h32.01c8.75 0 16-7.25 16-15.1v-15.1l208.8-.01c-30.13-33.74-48.73-77.85-48.73-126.3 .01-37.7 19.81-84.7 52.51-131.4Zm210.6-28.8c-14.88 13.25-28.38 27.12-40.26 41.12 -19.5-25.74-43.63-51.99-71.01-76.36 -70.14 62.73-120 144.2-120 193.6C319.1 409.1 391.6 480 479.1 480c87.5 0 160-70.87 160-158.3 1-36.7-37-112.3-87.9-158.4Zm-18.6 229.3c-14.75 10.62-32.88 16.1-52.51 16.1 -49.01 0-88.89-33.49-88.89-87.98 0-27.12 16.5-50.99 49.38-91.85 4.75 5.49 67.14 87.98 67.14 87.98l39.76-46.99c2.87 4.87 5.375 9.49 7.75 13.1 18.67 38.54 9.87 85.44-22.63 109.64Z"/></svg>