<svg viewBox="0 0 512 512" xmlns="http://www.w3.org/2000/svg"><path d="M336.6 156.5c-9.3-8.4-14-20-9.5-31.2l30.5-76.12c5.1-12.91 20.2-18.82 32.1-11.55 21.2 13 40.3 28.99 56.8 47.39 9.2 10.19 6.4 25.88-5 33.48l-67.6 45c-10.3 6.9-24.1 4.6-33.4-3.6 -1.3-1.2-2.6-2.3-3.9-3.4v0Zm-38.9-43.9c-4.5 10.5-16.8 17.2-29 16 -4.1-.4-8.4-.6-12.7-.6 -4.3 0-8.6.2-12.7.6 -12.2 1.2-24.5-5.5-29-16l-31.2-75.78c-4.3-12.8 2.4-27.39 15-30.45C217.3 2.19 236.4-.01 256-.01c19.6 0 38.7 2.2 57 6.374 13.5 3.059 20.2 17.646 15 30.446l-30.3 75.78ZM122.3 37.63c11.9-7.27 27-1.36 32.1 11.55l30.5 76.12c4.5 11.2-.2 22.8-9.5 31.2 -1.3 1.1-2.6 2.2-3.9 3.4 -9.3 8.2-23.1 10.5-33.4 3.6l-67.58-45c-11.39-7.6-14.2-23.29-5.06-33.48 16.53-18.4 35.64-34.39 56.84-47.39v0ZM379.5 222.1c-3.2-11.4.2-24 10-30.5l68.6-45.8c11.6-7.7 27.5-3.9 33.1 8.9 10.4 24.1 17.2 50.1 19.7 77.3 1.2 13.2-9.6 23.1-22.9 23.1h-80c-13.3 0-23.8-9.9-26.2-23 -.7-3.4-1.4-6.7-2.3-10v0Zm-257-30.5c9.8 6.5 13.2 19.1 10 30.5 -.9 3.3-1.6 6.6-2.3 10 -2.4 13.1-12.9 23.9-26.2 23.9H24C10.75 256-.12 245.2 1.1 232c2.52-27.2 9.323-53.2 19.713-77.3 5.54-12.8 21.44-16.6 33.09-8.9l68.59 45.8ZM104 288c13.3 0 24 10.7 24 24v48c0 13.3-10.7 24-24 24H24c-13.25 0-24-10.7-24-24v-48c0-13.3 10.75-24 24-24h80Zm384 0c13.3 0 24 10.7 24 24v48c0 13.3-10.7 24-24 24h-80c-13.3 0-24-10.7-24-24v-48c0-13.3 10.7-24 24-24h80ZM104 416c13.3 0 24 10.7 24 24v48c0 13.3-10.7 24-24 24H24c-13.25 0-24-10.7-24-24v-48c0-13.3 10.75-24 24-24h80Zm384 0c13.3 0 24 10.7 24 24v48c0 13.3-10.7 24-24 24h-80c-13.3 0-24-10.7-24-24v-48c0-13.3 10.7-24 24-24h80Zm-216 48c0 8.8-7.2 16-16 16s-16-7.2-16-16V192c0-8.8 7.2-16 16-16s16 7.2 16 16v272Zm-64 0c0 8.8-7.2 16-16 16s-16-7.2-16-16V224c0-8.8 7.2-16 16-16s16 7.2 16 16v240Zm128 0c0 8.8-7.2 16-16 16s-16-7.2-16-16V224c0-8.8 7.2-16 16-16s16 7.2 16 16v240Z"/></svg>