<svg viewBox="0 0 512 512" xmlns="http://www.w3.org/2000/svg"><path d="M160.1 320c-17.64 0-32.02 14.37-32.02 31.1 0 16.73 14.38 31.1 32.02 31.1s32.02-14.37 32.02-31.1c0-16.73-14.32-31.1-32.02-31.1Zm-73.44 41.4c-12.51-12.49-32.77-12.49-45.27 0 -12.51 12.5-12.51 32.78 0 45.27l63.96 63.99c12.51 12.49 32.77 12.49 45.27 0 12.51-12.5 12.51-32.78 0-45.27l-63.96-64ZM32.02 448c-17.64 0-32.02 14.4-32.02 32s14.38 32 32.02 32 32.02-14.37 32.02-31.1c0-16.73-14.38-32.9-32.02-32.9ZM287.7 70.31C176.8 40.93 76 117.84 64.9 221.21c-2.8 18.69 13.83 33.89 32.67 33.89 16.61 0 29.25-13.07 31.24-29.55 6.93-57.22 57.21-101.3 116.9-98.3 71.71 3.59 117.1 76.82 102.5 146.9 -6.56 29.65-21.4 56.87-43.38 78.87L288 370.7v13.25c0 31.4-22.71 57.58-52.58 62.98C220.4 449.7 208 463.3 208 478.6c0 19.78 17.88 34.94 37.38 31.64 55.92-9.45 99.63-55.28 105.9-112.2 40.11-40.68 62.89-93.95 64.65-150.9C418.4 166.4 365.8 91 287.7 70.31ZM240 200c22.06 0 40 17.94 40 40 0 13.25 10.75 24 24 24s24-10.75 24-24c0-48.53-39.47-88-88-88s-88 39.5-88 88c0 13.25 10.75 24 24 24s24-10.7 24-24c0-22.1 17.9-40 40-40ZM397.8 3.125c-15.91-7.6-35.05-.85-42.66 15.09 -7.6 15.97-.83 35.06 15.12 42.66C417.5 83.405 448 134.9 448 192c0 17.69 14.33 32 32 32s32-14.3 32-32c0-81.7-44.8-155.81-114.2-188.875Z"/></svg>