<svg viewBox="0 0 512 512" xmlns="http://www.w3.org/2000/svg"><path d="M79 96h130c5.96 0 11.37-3.41 13.75-8.67 2.38-5.27 1.29-11.39-2.76-15.59l-65-67.34C149.3-1.49 138.68-1.49 133 4.39L68 71.73c-4.06 4.2-5.14 10.33-2.76 15.59s7.78 8.66 13.75 8.66Zm278-4.41c5.68 5.881 16.31 5.881 21.99 0l65-67.34c4.05-4.2 5.13-10.32 2.75-15.59C444.39 3.4 438.09 0 432.99 0h-130c-5.97 0-11.37 3.4-13.75 8.662 -2.39 5.26-1.31 11.39 2.75 15.59l64.99 67.33ZM448 128H64c-35.35 0-64 28.65-64 63.1v255.1C0 483.3 28.65 512 64 512h384c35.35 0 64-28.65 64-63.1V192c0-35.3-28.7-64-64-64Zm-96 96c26.5.1 48 21.5 48 48 0 26.46-21.47 47.9-48 48 -26.5-.1-48-21.5-48-48s21.5-47.9 48-48Zm-192 0c26.5.1 48 21.5 48 48 0 26.46-21.47 47.9-48 48 -26.5-.1-48-21.5-48-48s21.5-47.9 48-48Zm80 224H80v-48c0-26.5 21.5-48 48-48h64c26.51 0 48 21.49 48 48v48Zm192 0H272v-48c0-26.51 21.49-48 48-48h64c26.51 0 48 21.49 48 48v48Z"/></svg>