<svg viewBox="0 0 640 512" xmlns="http://www.w3.org/2000/svg"><path d="M191.9 448.6c-9.77 0-19.48-2.97-27.78-8.9L32 340.19v139.8c0 17.62 14.38 32 32 32h256c17.62 0 32-14.38 32-32v-139.8l-131.8 99.3c-8.5 6.1-18.4 9.1-28.3 9.1ZM192 192c0-35.25 28.75-64 64-64h224V32c0-17.62-14.38-32-32-32H128c-17.6 0-32 14.38-32 32v192h96v-32Zm128 64H64c-17.62 0-32 14.4-32 32v12.18l151 113.8c5.25 3.71 12.7 3.73 18.27-.25L352 300.2V288c0-17.6-14.4-32-32-32Zm256-96H256c-17.6 0-32 14.4-32 32v32h96c33.25 0 60.63 25.38 63.75 57.88L384 416h192c17.62 0 32-14.38 32-32V192c0-17.6-14.4-32-32-32Zm-32 128h-64v-64h64v64Z"/></svg>