<svg viewBox="0 0 512 512" xmlns="http://www.w3.org/2000/svg"><path d="M493.6 163c-24.88-19.62-45.5-35.37-164.3-121.6C312.7 29.21 279.7 0 256.4 0h-.8c-23.3 0-56.3 29.21-73 41.38 -118.8 86.25-139.4 101.1-164.3 121.6C6.75 172-.001 186-.001 200.8V464c0 26.5 21.49 48 48 48h416c26.51 0 48-21.49 48-47.1V200.8c0-14.8-6.7-28.8-18.4-37.8ZM303.2 367.5c-14.1 11-30.7 16.5-47.2 16.5 -16.5 0-33.06-5.49-47.16-16.47L64 254.9v-46.4c21.16-16.59 46.48-35.66 156.4-115.5 3.18-2.33 6.89-5.19 10.98-8.36 5.52-4.21 16.42-12.68 24.62-17.81 8.2 5.131 19.14 13.6 24.61 17.84 4.09 3.16 7.8 6.02 11.15 8.47C400.9 172.48 426.6 191.68 448 208.48v46.32L303.2 367.48Z"/></svg>