<svg viewBox="0 0 576 512" xmlns="http://www.w3.org/2000/svg"><path d="M292.7 342.3c-3 3-4.7 7.1-4.7 11.4V416h62.34c4.26 0 8.35-1.71 11.35-4.73l156.9-158 -67.88-67.88 -158.01 156.9Zm275.8-174.9l-31.9-31.9c-9.875-10-26-10-36 0l-27.25 27.25 67.88 67.88 27.25-27.25c10.02-9.98 10.02-26.08.02-35.98ZM256 0v128h128L256 0Zm0 448c-16.07-.29-30.62-9.36-37.88-23.88 -2.875-5.875-8-6.5-10.12-6.5 -2.12 0-7.25.625-10 6.125l-7.75 15.38c-2.66 5.47-9.16 8.875-14.26 8.875h-1.1c-6.5-.5-12-4.75-14-11l-16.9-50.4 -10.6 31.9c-5.9 17.6-22.4 29.5-40.95 29.5H79.99c-8.87 0-16-7.1-16-16s7.13-16 16-16h12.4c4.875 0 9.1-3.125 10.6-7.625l18.25-54.63c3.25-9.85 12.35-16.45 22.75-16.45s19.5 6.625 22.75 16.5l13.88 41.63c19.75-16.25 54.13-9.75 66 14.12 1.87 3.65 5.57 6.05 9.37 6.35v-68.9c0-8.53 3.4-16.7 9.45-22.71l118.54-117.79v-46.5h-128c-17.67 0-32-14.33-32-32v-128h-176c-26.51 0-48 21.49-48 48v416c0 26.5 21.49 48 48 48h288c26.51 0 48-21.49 48-48v-16h-128Z"/></svg>