<svg viewBox="0 0 384 512" xmlns="http://www.w3.org/2000/svg"><path d="M224 128V0H48C21.49 0 0 21.49 0 48v416c0 26.5 21.49 48 48 48h288c26.51 0 48-21.49 48-48V160H256.9c-18.6 0-32.9-14.3-32.9-32Zm-69.9 225.8c7.81 7.81 7.81 20.5 0 28.31 -3.9 3.99-9 5.89-14.1 5.89s-10.23-1.94-14.14-5.85l-48-48c-7.82-7.82-7.82-20.5 0-28.31l48-48c7.81-7.82 20.47-7.82 28.28 0 7.81 7.81 7.81 20.5 0 28.31l-33.84 33.84 33.8 33.8Zm152-48c7.81 7.81 7.81 20.5 0 28.31l-48 48c-3.9 3.99-9 5.89-14.1 5.89s-10.23-1.94-14.14-5.85c-7.82-7.82-7.82-20.5 0-28.31l33.84-33.85 -33.86-33.84c-7.82-7.82-7.82-20.5 0-28.31 7.81-7.81 20.47-7.82 28.28 0l47.98 47.95ZM256 0v128h128L256 0Z"/></svg>