<svg viewBox="0 0 384 512" xmlns="http://www.w3.org/2000/svg"><path d="M256 0v128h128L256 0Zm-32 128V0H48C21.49 0 0 21.49 0 48v416c0 26.5 21.49 48 48 48h288c26.51 0 48-21.49 48-48V160H256.9c-18.6 0-32.9-14.3-32.9-32Zm64.1 216.1c-3.8 5.6-9.9 7.9-16.1 7.9 -6.2 0-12.28-2.35-16.97-7.04L216 305.89v102.1c0 13.25-10.75 24-24 24s-24-10.75-24-24v-102.1l-39.03 39.03c-9.375 9.375-24.56 9.375-33.94 0 -9.38-9.375-9.375-24.56 0-33.94l80-80c9.375-9.375 24.56-9.375 33.94 0l80 80c9.33 9.41 9.33 24.61-.87 33.11Z"/></svg>