<svg viewBox="0 0 512 512" xmlns="http://www.w3.org/2000/svg"><path d="M463.1 32h-416C21.49 32-.01 53.49-.01 80v352c0 26.51 21.49 48 47.1 48h416c26.51 0 48-21.49 48-48V80c0-26.51-20.6-48-48-48Zm-352 376c-.001 4.41-3.59 8-8 8h-48c-4.42 0-8-3.59-8-8v-48c0-4.42 3.58-8 8-8h47.1c4.41 0 8 3.58 8 8l.9 48Zm-.001-128c0 4.41-3.59 8-8 8h-48c-4.42 0-8-3.59-8-8v-48c0-4.42 3.58-8 8-8h47.1c4.41 0 8 3.58 8 8v48Zm0-128c0 4.41-3.59 8-8 8h-48c-4.42 0-8-3.59-8-8v-48c0-4.42 3.58-8 8-8h47.1c4.41 0 8 3.58 8 8l.9 48Zm240 248c0 8.83-7.17 16-16 16h-160c-8.84 0-16-7.17-16-16v-96c0-8.84 7.16-16 16-16h160c8.83 0 16 7.16 16 16v96Zm0-192c0 8.83-7.17 16-16 16h-160c-8.84 0-16-7.17-16-16v-96c0-8.84 7.16-16 16-16h160c8.83 0 16 7.16 16 16v96Zm112 200c0 4.41-3.59 8-8 8h-47.1c-4.42 0-7.1-3.59-7.1-8v-48c0-4.42 3.58-8 8-8h47.1c4.41 0 8 3.58 8 8v48Zm0-128c0 4.41-3.59 8-8 8h-47.1c-4.42 0-8-3.59-8-8v-48c0-4.42 3.58-8 8-8h47.1c4.41 0 8 3.58 8 8v48Zm0-128c0 4.41-3.59 8-8 8h-47.1c-4.42 0-8-3.59-8-8v-48c0-4.42 3.58-8 7.1-8h47.1c4.41 0 8 3.58 8 8v48Z"/></svg>