<svg viewBox="0 0 576 512" xmlns="http://www.w3.org/2000/svg"><path d="M3.85 22.87C10.46 8.9 24.53 0 39.99 0h432c15.5 0 29.5 8.904 36.1 22.87 6.7 13.97 4.6 30.5-6 42.46L396.39 195.6c-80.2 16.5-141.3 87.4-141.3 172.4 0 27.4 7.2 53.4 18.4 76.5 -1.7-.8-3.2-1.8-4.7-2.9l-64-48c-8.1-6-12.8-15.5-12.8-25.6v-79.1L9.03 65.33C-.76 53.37-2.78 36.84 3.84 22.87h-.01ZM287.09 368c0-79.5 65.4-144 144.9-144s144 64.5 144 144 -64.5 144-144 144 -144.9-64.5-144.9-144Zm204.2-36.7c6.3-6.2 6.3-16.4 0-22.6 -6.2-6.3-16.4-6.3-22.6 0l-36.7 36.7 -36.7-36.7c-6.2-6.3-16.4-6.3-22.6 0 -6.3 6.2-6.3 16.4 0 22.6l36.7 36.7 -36.7 36.7c-6.3 6.2-6.3 16.4 0 22.6 6.2 6.3 16.4 6.3 22.6 0l36.7-36.7 36.7 36.7c6.2 6.3 16.4 6.3 22.6 0 6.3-6.2 6.3-16.4 0-22.6l-36.7-36.7 36.7-36.7Z"/></svg>