<svg viewBox="0 0 512 512" xmlns="http://www.w3.org/2000/svg"><path d="M64 480c0 17.67 14.33 32 31.1 32H256c17.67 0 31.1-14.33 31.1-32l-.01-32H63.99v32ZM503.4 5.56c-5.46-4.54-12.61-6.41-19.67-5.19l-175.1 32c-11.41 2.09-19.7 12.03-19.7 23.63L224 55.99v-24c0-17.67-14.33-32-31.1-32H160c-17.7 0-32 14.33-32 32l0 26.81C69.58 69.31 20.49 110.59 1.23 168.39c-4.19 12.6 2.61 26.2 15.17 30.4 2.53.8 5.07 1.2 7.59 1.2 10.05 0 19.42-6.35 22.77-16.41 12.68-38.09 43.7-65.79 81.23-75.59v31.2c-37.73 18-64 56.2-64 100.8v176h223.1l0-176c0-44.6-26.27-82.79-63.1-100.8l-.01-35.2 63.1-.01c0 11.59 8.29 21.53 19.7 23.62l175.1 31.1c1.43.25 2.875.375 4.29.375 5.57 0 11.03-1.94 15.37-5.57 5.46-4.57 8.625-11.31 8.625-18.44v-112c.9-6.23-1.4-12.98-6.8-17.54ZM176 96c-8.8 0-16-7.16-16-16s7.2-16 16-16 15.1 7.16 15.1 16c0 8.83-6.3 16-15.1 16Z"/></svg>