<svg viewBox="0 0 512 512" xmlns="http://www.w3.org/2000/svg"><path d="M177.1 228.6l30.8 91.4h96.5l29.62-91.38L256 172.1l-78.9 56.5ZM255.1 0C114.6 0 0 114.6 0 256c0 141.4 114.59 256 255.99 256s255.1-114.6 255.1-255.1 -113.7-256.9-256-256.9Zm161.5 360.9l-85.4-1.3 -25.15 81.59c-15.95 4.3-32.65 6.8-50.05 6.8s-34.09-2.53-50.09-6.86L180.8 359.58l-85.4 1.29c-18.12-27.66-29.15-60.27-30.88-95.31l69.78-49.19 -27.7-80.8c21.16-26.21 49.09-46.61 81.06-58.84L256 127.97l68.29-51.22c31.98 12.23 59.9 32.64 81.06 58.84l-27.65 80.78 69.78 49.1c-1.68 35.1-12.68 67.7-30.88 95.4Z"/></svg>