<svg viewBox="0 0 384 512" xmlns="http://www.w3.org/2000/svg"><path d="M186.1.1C81 3.226 0 94.85 0 200v264c0 14.25 17.3 21.38 27.3 11.25l24.95-18.5c6.625-5.01 16-4.01 21.5 2.25l43 48.31c6.25 6.25 16.37 6.25 22.62 0l40.62-45.81c6.375-7.26 17.62-7.26 24 0l40.63 45.81c6.25 6.25 16.38 6.25 22.62 0l43-48.31c5.5-6.26 14.88-7.26 21.5-2.25l24.95 18.5c10 10.13 27.3 3 27.3-11.25V191.99C384 83.97 294.9-3.16 186.1.09ZM128 223.99c-17.62 0-31.1-14.38-31.1-32.01 0-17.63 14.38-32.01 31.1-32.01s32 14.38 32 32.01c0 17.63-14.4 32.01-32 32.01Zm128 0c-17.62 0-32-14.38-32-32.01 0-17.63 14.38-32.01 32-32.01 17.62 0 32 14.38 32 32.01 0 17.63-14.4 32.01-32 32.01Z"/></svg>