<svg viewBox="0 0 448 512" xmlns="http://www.w3.org/2000/svg"><path d="M128 184c0 22.1-17.9 40-40 40H40c-22.09 0-40-17.9-40-40v-48c0-22.1 17.91-40 40-40h48c22.1 0 40 17.9 40 40v48Zm0 192c0 22.1-17.9 40-40 40H40c-22.09 0-40-17.9-40-40v-48c0-22.1 17.91-40 40-40h48c22.1 0 40 17.9 40 40v48Zm32-240c0-22.1 17.9-40 40-40h48c22.1 0 40 17.9 40 40v48c0 22.1-17.9 40-40 40h-48c-22.1 0-40-17.9-40-40v-48Zm128 240c0 22.1-17.9 40-40 40h-48c-22.1 0-40-17.9-40-40v-48c0-22.1 17.9-40 40-40h48c22.1 0 40 17.9 40 40v48Zm32-240c0-22.1 17.9-40 40-40h48c22.1 0 40 17.9 40 40v48c0 22.1-17.9 40-40 40h-48c-22.1 0-40-17.9-40-40v-48Zm128 240c0 22.1-17.9 40-40 40h-48c-22.1 0-40-17.9-40-40v-48c0-22.1 17.9-40 40-40h48c22.1 0 40 17.9 40 40v48Z"/></svg>