<svg viewBox="0 0 448 512" xmlns="http://www.w3.org/2000/svg"><path d="M400 224c-9.15 0-17.62 2.69-24.89 7.14 -4.21-22.25-23.61-39.143-47.11-39.143 -17.38 0-32.46 9.33-40.89 23.17 -5.01-22.27-23.61-39.17-47.11-39.17 -12.35 0-23.49 4.79-32 12.46V39.99c0-22.09-17.9-40-39.1-40 -23 0-40.9 17.91-40.9 40v322.7l-56-74.7c-7.85-10.5-19.87-16-32.03-16C18.75 271.99 0 289.05 0 312.01c0 8.35 2.608 16.78 8.005 23.98l91.22 121.6c25.57 34.1 66.275 54.4 108.775 54.4h96c79.4 0 144-64.6 144-144v-96c0-26.5-21.5-48-48-48ZM240 400c0 8.84-7.16 16-16 16 -8.85 0-16-7.16-16-16v-96c0-8.8 7.2-16 16-16s16 7.15 16 16v96Zm64 0c0 8.84-7.16 16-16 16 -8.85 0-16-7.16-16-16v-96c0-8.8 7.2-16 16-16s16 7.15 16 16v96Zm64 0c0 8.84-7.16 16-16 16 -8.85 0-16-7.16-16-16v-96c0-8.8 7.2-16 16-16s16 7.15 16 16v96Z"/></svg>