<svg viewBox="0 0 576 512" xmlns="http://www.w3.org/2000/svg"><path d="M543.6 128.6c0-9-6.12-32.58-31.68-32.58 -14.1 0-27.02 9.32-30.92 23.56l-34.36 125.1c-1.69 6.16-7.28 10.43-13.66 10.43 -7.99 0-14.16-6.52-14.16-14.13 0-.99.1-1.99.31-3l35.71-166.6c.52-2.45.77-4.92.77-7.37 0-13.89-9.7-32.86-31.7-32.86 -14.79 0-28.12 10.26-31.34 25.29l-37.77 176.2c-2.81 13.1-14.38 22.46-27.77 22.46 -13.04 0-24.4-8.88-27.56-21.52l-52.11-208.5c-3.78-13.892-16.88-25.1-31.78-25.1 -26.71 0-31.78 25.71-31.78 31.98 0 2.56.31 5.18.96 7.78l50.55 202.2c.23.93.34 1.85.34 2.76 0 6.05-4.92 11.27-11.3 11.27 -4.9 0-9.24-3.16-10.74-7.82l-46.74-144.29c-4.5-14.8-17.4-23.88-31.4-23.88 -15.68 0-31.63 12.83-31.63 31.97 0 3.27.5 6.6 1.57 9.884l69.93 215.7c.29.89.42 1.76.42 2.59 0 4.52-3.94 7.91-8.119 7.91 -1.93 0-3.91-.73-5.58-2.39l-60.41-60.399c-8.34-8.34-19.63-12.87-30.81-12.87 -23.56 0-39.07 19.69-39.07 39.55 0 10.23 3.9 20.47 11.72 28.28l122.5 122.5c31.56 31.54 74.26 49.24 118.86 49.24h50.98c23.5 0 108.4-14.57 132.5-103l73.96-271.2c.86-3 1.26-6.1 1.26-9.2Z"/></svg>