<svg viewBox="0 0 640 512" xmlns="http://www.w3.org/2000/svg"><path d="M0 383.9l64 .04c17.75 0 32-14.29 32-32.03V128.29H0v255.6Zm48-63.8c8.75 0 16 7.11 16 15.99 0 8.74-7.25 15.99-16 15.99s-16-7.28-16-15.98c0-8.9 7.25-16 16-16ZM348.8 64c-7.95 0-15.66 2.96-21.52 8.32l-98.38 89.97c-.1.2-.1.4-.3.4 -16.6 15.6-16.3 40.5-2.1 56 12.75 13.1 39.38 17.62 56.13 2.75 .17-.15.27-.15.37-.25l79.88-73.1c6.5-5.88 16.75-5.5 22.62 1 6 6.49 5.5 16.62-1 22.62l-26.12 23.87L504 313.69c2.875 2.49 5.5 4.99 7.875 7.74V127.08c-40.98-40.96-96.48-63.88-154.4-63.88l-8.68.78Zm-14.2 153.4l-30 27.49c-29.75 27.11-75.25 24.49-101.8-4.38 -26.8-29.32-24.7-74.82 4.5-101.619l81.8-74.9h-6.6c-57.8 0-113.4 23.08-154.3 63.9l-.2 223.9 18.25.03 90.5 81.82c27.5 22.37 67.75 18.12 90-9.25l18.12 15.24c15.88 12.1 39.38 10.5 52.38-5.38l31.38-38.6 5.37 4.49c13.75 11 33.88 9 45-4.75l9.53-11.78c11.12-13.75 9.03-33.78-4.7-44.93L334.582 217.36Zm209.4-89V352c0 17.62 14.25 32.05 31.1 32.05L640 384V128.1l-96 .3ZM592 352c-8.75 0-16-7.25-16-15.99 0-8.875 7.25-15.99 16-15.99s16 7.18 16 16.08c0 8.7-7.2 15.9-16 15.9Z"/></svg>