<svg viewBox="0 0 640 512" xmlns="http://www.w3.org/2000/svg"><path d="M200 240c16.94 0 32.09 10.72 37.73 26.67 5.89 16.66 24.17 25.39 40.84 19.5 16.66-5.9 25.39-24.17 19.5-40.84 -10.87-30.63-35.27-53.73-64.97-63.83l79.68-22.76c16.98-4.86 26.83-22.56 21.97-39.56 -4.85-16.98-22.55-26.83-39.55-21.94L196 125.6l80.82-69.28c13.42-11.5 14.97-31.7 3.46-45.12 -11.49-13.44-31.69-15.01-45.089-3.49L134.79 93.8l22.33-48.39c7.39-16.05.39-35.06-15.66-42.47 -16.07-7.36-35.07-.42-42.53 15.657l-84.02 188c-9.84 22-14.92 45.9-14.92 70 0 59.3 48.1 107.4 107.4 107.4l99.9-.01c31.87-2.29 61.15-19.35 79.13-46.18 9.82-14.69 5.89-34.56-8.79-44.41 -14.65-9.81-34.55-5.91-44.35 8.79 -7.5 11.1-19.9 17.8-33.3 17.8 -22.06 0-40-17.94-40-40 0-22.1 17.9-40 40-40Zm332.6-112l-99.9 0c-31.87 2.28-61.15 19.35-79.13 46.18 -9.83 14.69-5.9 34.56 8.78 44.41 14.66 9.81 34.55 5.9 44.41-8.79 7.43-11.113 19.83-18.72 33.23-18.72 22.06 0 40 17.94 40 40s-17.94 39.1-40 39.1c-16.94 0-32.09-10.72-37.73-26.67 -5.9-16.66-24.17-25.39-40.84-19.5 -16.66 5.89-25.39 24.17-19.5 40.84 10.84 30.64 35.23 53.77 64.96 63.8l-79.68 22.76c-16.98 4.85-26.83 22.56-21.97 39.56 4.84 16.98 22.56 26.86 39.56 21.97l99.2-28.34 -80.82 69.28c-13.42 11.5-14.97 31.7-3.47 45.12 11.52 13.42 31.73 14.98 45.13 3.46l100.4-86.09 -22.33 48.39c-7.4 16.05-.4 35.06 15.66 42.47 16.02 7.35 35.05.42 42.47-15.65l84.02-188c9.83-20.21 14.93-44.11 14.93-68.21 0-59.3-48.1-107.4-107.4-107.4Z"/></svg>