<svg viewBox="0 0 576 512" xmlns="http://www.w3.org/2000/svg"><path d="M568.2 336.3c-13.12-17.81-38.14-21.66-55.93-8.47L392.57 416h-120.6c-8.75 0-15.1-7.25-15.1-15.99 0-8.75 7.25-16 15.1-16h78.25c15.1 0 30.75-10.88 33.37-26.62 3.25-20-12.12-37.38-31.62-37.38H191.1c-26.1 0-53.12 9.25-74.12 26.25L70.48 384l-55.38-.91c-7.85 0-15.1 8.2-15.1 16.9v95.98c0 8.82 7.251 16.02 15.1 16.02h346.1c22.03 0 43.92-7.19 61.7-20.27L558 392.2c19.5-13.11 23.3-38.11 10.2-55.91ZM279.3 175c-7.6-1.1-17.6-4.7-26.4-7.9l-4.9-1.7c-12.5-5.3-26.2 2.1-30.6 13.7 -4.4 11.6 2.12 26.2 14.59 30.64l4.65 1.65c8.48 3.06 17.88 6.09 27.39 8.31v12.29c0 13.25 10.73 24 23.98 24s24-10.75 24-24v-10.4c25.27-5.73 42.88-21.85 46.1-45.72 8.68-50.05-38.89-63.66-64.42-70.95l-5.3-1.83c-26.3-7.46-24.8-10.68-24.1-14.79 1.15-6.77 15.3-10.06 32.21-7.4 4.93.78 11.37 2.54 19.65 5.42 12.53 4.28 26.21-2.32 30.52-14.84 4.31-12.53-2.31-26.19-14.84-30.53 -7.61-2.63-13.92-4.36-19.82-5.73V23.97c0-13.25-10.75-24-24-24s-23.98 10.75-23.98 24v10.52c-25.24 5.71-42.94 21.73-47.94 45.61 -7.7 49.47 40.6 63.67 58.8 69.07l6.49 1.875c31.66 9.06 31.15 11.89 30.34 16.64 -1.14 6.78-15.24 10.08-32.44 7.28Z"/></svg>