<svg viewBox="0 0 640 512" xmlns="http://www.w3.org/2000/svg"><path d="M543.1 128.2l0 223.8c0 17.62 14.25 31.99 31.1 31.99h64V128.1l-95.11.1Zm48 223.8c-8.75 0-16-7.26-16-15.99 0-8.875 7.25-15.1 16-15.1s15.1 7.12 15.1 15.1c.9 8.79-5.5 15.99-15.1 15.99ZM0 128.2v255.7l63.1.04c17.75 0 32-14.28 32-32.03l.89-180.02 -55.77-43.71H-.01ZM63.99 336c0 8.74-7.25 15.99-15.1 15.99s-15.1-7.26-15.1-15.99c0-8.875 7.25-15.1 15.1-15.1s15.1 6.3 15.1 15.1Zm64 15.8h18.25l90.5 81.85c27.5 22.37 67.75 18.12 89.1-9.25l18.12 15.25c15.87 12.1 39.37 10.5 52.37-5.38l13.02-16.03 -281.36-222.15v155.7Zm367.2 11c-.19-9.11-3.83-18.05-11.44-24.24l-149.2-121.1 -11.47 10.51 -25.59-20.07 65.33-59.79c6.5-5.88 16.75-5.5 22.62 1 5.1 6.49 5.5 16.62-1 22.62l-26.12 23.87 145.6 118.1c2.875 2.49 5.5 4.99 7.875 7.74V127.09c-40.98-40.96-96.52-63.98-154.5-63.98h-8.613c-7.95 0-15.64 2.97-21.5 8.329l-93.5 86.45 -25.4-20 80.85-73.92 -6.65.02c-43.47 0-85.16 13.68-120.8 37.45L38.79 5.09c-4.4-3.44-9.62-5.11-14.78-5.11C16.89-.02 9.82 3.13 5.1 9.17 -3.09 19.6-1.28 34.7 9.16 42.87l591.1 463.1c10.5 8.2 25.56 6.32 33.69-4.08 8.18-10.44 6.375-25.53-4.07-33.7L495.16 362.77Z"/></svg>