<svg viewBox="0 0 512 512" xmlns="http://www.w3.org/2000/svg"><path d="M448 96c-17.67 0-32 14.33-32 32v112c0 8.8-7.2 16-16 16s-15.93-7.17-15.93-16L384 64c0-17.67-14.33-32-32-32s-32 14.33-32 32l.04 176c0 8.83-7.22 16-16.06 16 -8.85 0-15.95-7.17-15.95-16l-.04-208c0-17.67-14.33-32-32-32s-32 14.33-32 32l.07 208c.02 8.8-7.28 16-16.08 16 -8.8 0-15.9-7.2-15.9-16l-.1-176c0-17.67-14.33-32-32-32s-32 14.33-32 32v279.4l-59.72-59.7c-7.81-7.8-18.05-11.7-28.28-11.7 -21.32 0-40 17.2-40 40 0 10.23 3.9 20.47 11.72 28.28l113.1 113.1C162.58 491.2 212.88 512 266.28 512h37.7c97.05 0 176-78.95 176-176V128c0-17.7-14.3-32-32-32ZM192 416c-8.84 0-16-7.17-16-16 0-8.8 7.2-16 16-16s16 7.16 16 16c0 8.8-7.2 16-16 16Zm64 32c-8.84 0-16-7.17-16-16 0-8.84 7.16-16 16-16 8.83 0 16 7.16 16 16 0 8.8-7.2 16-16 16Zm0-96c-8.84 0-16-7.17-16-16 0-8.84 7.16-16 16-16 8.83 0 16 7.16 16 16 0 8.8-7.2 16-16 16Zm64 32c-8.84 0-16-7.17-16-16 0-8.84 7.16-16 16-16 8.83 0 16 7.16 16 16 0 8.8-7.2 16-16 16Zm32 64c-8.84 0-16-7.17-16-16 0-8.84 7.16-16 16-16 8.83 0 16 7.16 16 16 0 8.8-7.2 16-16 16Zm32-96c-8.84 0-16-7.17-16-16 0-8.84 7.16-16 16-16 8.83 0 16 7.16 16 16 0 8.8-7.2 16-16 16Z"/></svg>