<svg viewBox="0 0 640 512" xmlns="http://www.w3.org/2000/svg"><path d="M334.6 217.4l-30 27.49c-40.6 37.21-86.8 11.91-101.7-4.29 -26.9-29.4-24.8-74.9 4.4-101.7L289.1 64h-6.6c-57.8 0-113.4 22.95-154.3 63.8l-96.2.3c-17.6 0-32 14.39-32 31.98v159.8c0 17.59 14.4 32.04 31.1 32.04l114.3-.07 90.5 81.82c27.5 22.37 67.75 18.11 90-9.26l18.12 15.25c15.88 12.1 39.38 10.5 52.38-5.37l31.38-38.6 5.37 4.49c13.75 11 33.88 9 45-4.75l9.57-11.83c11.08-13.7 8.97-33.75-4.71-44.86L334.58 217.37ZM608 128.1l-96-.13c-40.98-40.96-96.56-63.88-154.5-63.88l-8.6-.1c-8 0-15.62 3.19-21.62 8.56L229 162.28c-.1.2-.2.4-.2.4 -16.8 15.8-16.4 40.6-2.2 56 9.625 10.5 35 21.62 56.13 2.75 0-.125.25-.125.375-.25l80-73.1c6.5-5.88 16.62-5.5 22.62 1 6 6.49 5.5 16.62-1 22.62l-26.12 23.87 145.6 118.1c12.12 9.99 19.5 23.49 22.12 37.98l81.67.03c17.6 0 32-14.38 32-31.98V160.08c0-17.7-14.3-32-32-32Z"/></svg>