<svg viewBox="0 0 640 512" xmlns="http://www.w3.org/2000/svg"><path d="M358.6 195.6l145.6 118.1c12.12 9.99 19.5 23.49 22.12 37.98h81.62c17.6 0 31.1-14.39 31.1-31.99V159.1c0-17.67-14.33-31.99-31.1-31.99h-95.1c-40.98-40.96-96.56-63.98-154.5-63.98h-8.613c-7.1 0-15.63 3-21.63 8.37l-93.44 85.57 -26.36-19.18L289.09 64l-6.6-.01c-43.48 0-85.19 13.66-120.8 37.44L38.797 5.1c-4.39-3.44-9.61-5.11-14.77-5.11C16.9-.01 9.83 3.14 5.11 9.17c-8.19 10.44-6.38 25.53 4.06 33.7L601.195 506.89c10.5 8.2 25.56 6.32 33.69-4.08 8.18-10.44 6.375-25.53-4.07-33.7l-135.5-106.2c-.18-9.09-3.79-18.03-11.39-24.2l-149.2-121.2 -11.47 10.51 -25.67-20.94 65.51-59.85c6.5-5.88 16.62-5.5 22.62.1 5.1 6.49 5.5 16.62-.1 22.62l-27.03 25.63ZM32 127.1C14.4 127.1.9 141.5.9 159.09v159.8c0 17.59 14.4 32.06 31.1 32.06l114.2-.08 90.5 81.85c27.5 22.37 67.75 18.12 89.1-9.25l18.12 15.25c15.87 12.1 39.37 10.5 52.37-5.38l13.02-16.03L39.93 127.08H32Z"/></svg>