<svg viewBox="0 0 512 512" xmlns="http://www.w3.org/2000/svg"><path d="M256 288h-64c-17.67 0-32 14.31-32 32 0 17.69 14.33 32 32 32h64c17.67 0 32-14.31 32-32 0-17.69-14.3-32-32-32Zm-16-56v-40h-80c-17.7 0-32 14.3-32 32s14.33 32 32 32h84.41c-2.71-7.5-4.41-15.5-4.41-24Zm0-128c0-2.7.5-5.34.8-8H32c-17.67 0-32 14.3-32 32s14.33 32 32 32h208v-56Zm-16 344h64c17.67 0 32-14.31 32-32 0-17.69-14.33-32-32-32h-64c-17.67 0-32 14.31-32 32 0 17.69 14.3 32 32 32Zm128-32c0 11.72-3.39 22.55-8.88 32h32.87c75.1 0 136-60.9 136-136v-88.7c0-28.76-9.11-56.79-26.02-80.06l-26.45-36.41C439.09 80 408.49 64 375.39 64h-63.4c-22.09 0-40 17.91-40 40v128c0 22.09 17.91 39.1 39.1 39.1 28.73 0 40-26.72 40-42.28l.9-69.72c0-7.9 7.2-15.1 16-15.1s16 7.2 16 15.1V232c0 37.87-29.35 68.59-66.51 71.45 1.41 5.35 2.51 10.75 2.51 16.55 0 13.28-4.05 25.6-10.97 35.83 24.07 8.77 42.97 32.27 42.97 60.17Z"/></svg>