<svg viewBox="0 0 448 512" xmlns="http://www.w3.org/2000/svg"><path d="M416 127.1h-58.23l9.78-58.74c2.9-17.44-8.875-33.92-26.3-36.83 -17.53-2.875-33.92 8.89-36.83 26.3l-11.53 69.27h-95.1l9.78-58.74c2.9-17.44-8.875-33.92-26.3-36.83 -17.53-2.875-33.92 8.89-36.83 26.3l-11.56 69.27h-68.9c-17.67 0-32 14.33-32 32 0 18.6 14.33 32 32 32h58.23l-21.33 128h-68.9c-17.67 0-32 14.33-32 32s14.33 31.1 32 31.1h58.23l-9.79 58.74c-2.91 17.44 8.875 33.92 26.3 36.83 1.75 2.13 3.55 2.23 5.259 2.23 15.36 0 28.92-11.09 31.53-26.73L155.04 384h95.12l-9.79 58.74c-2.91 17.44 8.875 33.92 26.3 36.83 1.79.33 3.59.43 5.29.43 15.36 0 28.92-11.09 31.53-26.73L315.03 384h68.93c17.67 0 32-14.33 32-31.1 0-17.67-14.33-32-32-32h-58.23l21.33-128h68.9c17.67 0 32-14.32 32-31.1 0-19.5-14.3-34.7-32-34.7Zm-155.1 192h-95.1l21.3-128h95.12l-21.32 128Z"/></svg>