<svg viewBox="0 0 512 512" xmlns="http://www.w3.org/2000/svg"><path d="M.14 184.4C-2.18 244.2 23 298 63.98 334.9V512h160l.01-195.5L3.66 156.2C1.85 165.4.5 174.8.13 184.4ZM335.99 368h160l16-48h-255.1l.01 192h145.9c27.55 0 52-17.63 60.71-43.76l.47-4.24h-127.1c-8.84 0-16-7.17-16-16 0-8.84 7.16-16 16-16h138.7l10.67-32h-149.3c-8.84 0-16-7.17-16-16 -.97-8.8 6.23-16 15.03-16Zm173.2-93c-20.1-47.13-48.49-151.8-73.11-186.8 -38.49-54.57-101.59-88.2-169.99-88.2h-66.1c-82.9 0-157.52 50.57-186.75 123.7L239.19 288h272.6c0-4.3-.7-8.7-2.6-13Zm-157.2-51c-17.62 0-32-14.38-32-32 0-17.62 14.38-32 32-32 17.62 0 31.1 14.38 31.1 32 0 17.62-13.5 32-31.1 32Z"/></svg>