<svg viewBox="0 0 576 512" xmlns="http://www.w3.org/2000/svg"><path d="M575.9 76.61c0-8.125-3.05-15.84-8.55-21.84 -3.875-4-8.6-9.125-13.72-14.5 11.12-6.75 19.47-17.51 22.22-30.63 .99-5-2.85-9.65-7.98-9.65l-119.976 0c-70.62 0-127.9 57.25-127.9 128h-160.9c-28.87 0-54.38 12.1-72 33.12v-1.12c-47.6 0-87.1 39.5-87.1 88l-.01 56c0 8.875 7.12 15.1 15.1 15.1l16 .9c8.87 0 15.1-7.125 15.1-16l0-56c0-13.25 6.884-24.4 16.76-31.65 -.125 2.5-.76 5.02-.76 7.64 0 27.62 11.87 52.37 30.5 69.87l-25.65 68.61c-4.59 12.28-5.32 25.68-2.128 38.4l21.73 86.89c5.36 14.23 18.14 24.23 32.84 24.23h32.98c20.81 0 36.08-19.55 31.05-39.74l-21.33-85.36 23.78-63.61 133.1 22.34 .02 134.37c0 17.67 14.33 32 31.1 32h31.1c17.67 0 31.1-14.33 31.1-32l.01-161.8c23.28-21.1 34.68-47.7 34.68-78.2 0-.25-.11-.39-.11-.64V136.87l16.9 7.1 18.95 37.72c7.48 14.86 25.08 21.55 40.52 15.34l32.54-13.05c12.13-4.88 20.11-16.67 20.09-29.74l-.1-77.66ZM511.9 96c-8.75 0-15.1-7.125-15.1-16s6.3-16 15.1-16c8.87 0 15.1 7.125 15.1 16s-6.2 16-15.1 16Z"/></svg>