<svg viewBox="0 0 640 512" xmlns="http://www.w3.org/2000/svg"><path d="M480 0c17.7 0 32 14.33 32 32h112c8.8 0 16 7.16 16 16v128c0 8.8-7.2 16-16 16H512v320h-64V32c0-17.67 14.3-32 32-32v0Zm-64 512h.1 .7H96c-17.67 0-32-14.3-32-32V288H31.1c-12.49 0-24.469-8.3-29.12-20.9 -4.65-12.6-.98-26.7 9.18-35.4l224.03-192c12-10.27 29.6-10.27 41.6 0L415.99 159v353ZM223.1 256h-48c-7.9 0-16 7.2-16 16v32c0 8.8 8.1 16 16 16h48v48c0 8.8 8.1 16 16 16h32c9.7 0 16-7.2 16-16v-48H336c8.8 0 16-7.2 16-16v-32c0-8.8-7.2-16-16-16h-48.9v-48c0-8.8-6.3-16-16-16h-32c-7.9 0-16 7.2-16 16v48Z"/></svg>