<svg viewBox="0 0 512 512" xmlns="http://www.w3.org/2000/svg"><path d="M500.3 7.25c7.4 6.07 11.7 15.15 11.7 23.849v144c0 27.4-28.7 48-64.9 48 -34.4 0-64-20.6-64-48 0-25.6 29.6-48 64-48v-56.07l-96 19.2v116.87c0 27.4-27.8 48-64 48 -34.4 0-64-20.6-64-48 0-25.6 29.6-48 64-48v-96c0-14.36 11.7-27.49 26.6-30.48L473.7.6c9.4-1.89 19.2.55 26.6 6.63v0ZM74.66 303.09l11.84-16.9c5.93-8.9 15.9-15.1 26.6-15.1h61.8c10.7 0 20.7 6.2 26.6 15.1l11.8 16.9h25.8c27.4 0 48 22.4 48 48v112c0 27.4-20.6 48-48 48h-192c-25.61 0-47.11-20.6-47.11-48v-112c0-25.6 21.49-48 47.1-48h27.56Zm68.44 56c-25.6 0-48 22.4-48 48 0 27.4 22.4 48 48 48 27.4 0 48-20.6 48-48 0-25.6-20.6-48-48-48Zm297.2 8H496c6.7 0 12.6 5 14.1 11.3 3.2 6.2 1.5 13.3-3.6 17.6l-128 112c-5.6 4.1-13.9 5.3-19.9.9 -6-4.3-8.3-12.3-5.3-19.2l38.4-90.6H336c-6.7 0-12.6-3.2-15-9.5 -2.3-6.2-.6-13.3 4.5-18.5l128-112c5.6-4.1 13.9-4.4 19.9 0 6 4.3 8.2 12.3 5.3 19.2l-38.4 88.8Zm-323.6-148l-96.85-99.9C-8.12 90.25-6.62 42.3 24.85 15.33 51.82-8.15 93.26-3.66 118.2 21.82l10 10.49 9.5-10.49c25-25.472 65.9-29.967 93.9-6.49 31 26.97 32.5 74.92 4.5 103.86l-96.4 99.9c-6.5 6.5-17 6.5-23 0v0Z"/></svg>