<svg viewBox="0 0 320 512" xmlns="http://www.w3.org/2000/svg"><path d="M0 64c0-17.67 14.32-32 31.99-32h256c17.7 0 32 14.33 32 32s-14.3 32-32 32h-56.2c9.6 14.4 16.7 30.6 20.6 48h35.6c17.7 0 32 14.3 32 32s-14.3 32-32 32h-35.6c-13.2 58.3-61.9 103.2-122.1 110.9l144.3 102.2c13.5 11.1 17.7 31.1 7.4 45.5 -10.2 13.5-30.2 17.7-44.6 7.4l-224-160c-11.32-8.9-16.12-22.5-11.88-35.8C5.75 264.1 18.07 256 31.98 256h80c32.8 0 61-19.7 73.3-48H31.98c-17.67 0-32-14.3-32-32 -.001-17.7 14.32-32 31.99-32h153.3c-12.3-28.3-40.5-48-73.3-48h-80c-17.67 0-32-14.33-32-32v0Z"/></svg>