<svg viewBox="0 0 512 512" xmlns="http://www.w3.org/2000/svg"><path d="M480 0L367.6 0c-21.38 0-32.09 25.85-16.97 40.97l29.56 29.56 -27.11 27.11C326.1 76.84 292.7 63.99 256 63.99c-88.37 0-160 71.63-160 160 0 77.4 54.97 141.9 128 156.8v19.22h-32c-8.84 0-16 7.16-16 16v31.1c0 8.83 7.16 16 16 16l32 0v32c0 8.83 7.16 16 16 16h32c8.83 0 16-7.17 16-16v-32l32-.01c8.83 0 16-7.17 16-16V416c0-8.84-7.17-16-16-16h-32v-19.22c73.03-14.83 128-79.37 128-156.8 0-28.38-8.02-54.65-20.98-77.77l30.45-30.45 29.56 29.56c15.07 15.16 40.97 4.46 40.97-16.94V15.98c0-8.84-7.2-16-16-16ZM256 303.99c-44.11 0-80-35.89-80-80s35.89-80 80-80 80 35.89 80 80c0 44.1-35.9 80-80 80Z"/></svg>