<svg viewBox="0 0 640 512" xmlns="http://www.w3.org/2000/svg"><path d="M206.9 245.1c-35.9 10.5-60.1 41.3-57.6 74.2 11.4-12.8 28.8-23.8 50-30.9l7.6-43.3ZM95.78 294.9L64.11 115.5c-.37-1.6.26-2.6.26-2.6 57.75-32.13 123.1-48.99 189-48.99 1.625 0 3.11.07 4.73.07 13.1-13.5 31.75-22.75 51.62-26 18.87-3 38.12-4.5 57.25-5.25 -10-14-24.47-24.27-41.84-27.02 -23.87-3.88-47.9-5.74-71.77-5.74 -76.74 0-152.4 19.45-220.1 57.07C9.01 70.55-3.87 98.48 1.01 126.58l31.74 179.4c14.25 80.5 136.3 142 204.5 142 3.625 0 6.77-.3 10.03-.68 -13.5-17.13-28.1-40.5-39.5-67.63 -47.7-12.9-106.1-51.7-112.02-84.8Zm97.62-137.3c-.8-4.2-2.3-7.9-4.1-11.4 -8.25 8.875-20.62 15.75-35.25 18.37 -14.62 2.5-28.75.37-39.5-5.25 -.5 4-.63 7.99.125 12.12 3.75 21.75 24.5 36.24 46.25 32.37 21.67-3.72 36.375-24.52 32.47-46.22ZM606.8 121c-88.87-49.38-191.4-67.38-291.9-51.38 -27.4 3.48-49.1 26.23-54.1 53.48L229 303.5c-15.37 87.13 95.33 196.3 158.3 207.3 62.1 11.13 204.5-53.68 219.9-140.8l31.75-179.5c4.95-28.2-7.95-56.1-32.15-69.5Zm-273.3 96.8c3.875-21.75 24.62-36.25 46.37-32.37 21.75 3.75 36.25 24.49 32.5 46.12 -.75 4.125-2.25 7.87-4.125 11.5 -8.25-9-20.62-15.75-35.25-18.37 -14.75-2.625-28.75-.38-39.5 5.12 -1.4-3.91-.6-7.91 0-12.01Zm69.6 198.7c-55.62-9.875-93.49-59.23-88.99-112.1 20.62 25.63 56.25 46.24 99.49 53.87 43.25 7.625 83.74.37 111.9-16.62 -13.3 51.05-65.8 84.65-122.4 74.85Zm131.3-151.3c-8.25-8.875-20.75-15.75-35.37-18.37 -14.62-2.5-28.62-.38-39.5 5.24 -.5-4-.625-8 .125-12.12 3.875-21.75 24.62-36.25 46.37-32.37 21.75 3.875 36.25 24.49 32.37 46.24 -.8 4.07-2.3 7.87-4 11.37Z"/></svg>