<svg viewBox="0 0 448 512" xmlns="http://www.w3.org/2000/svg"><path d="M447.1 319.1v135.1c0 13.26-10.75 23.1-23.1 23.1H288.9c-12.94 0-24.61-7.79-29.56-19.75 -4.91-11.1-2.21-25.72 6.93-34.87l30.06-30.06 -72.34-68.72 -71.43 71.44 30.06 30.06c9.15 9.15 11.91 22.91 6.93 34.87 -4.97 11.93-16.667 18.83-29.57 18.83h-136C10.73 479.1.88 468.36.88 456V320.9c0-12.94 7.78-24.61 19.75-29.56 3.07-2.54 7.23-3.34 11.35-3.34 8.31 0 16.5 3.24 22.63 9.36l30.06 30.06 71.44-71.44 -71.44-71.39 -30.06 30c-9.16 9.15-22.91 11.91-34.87 6.93C7.77 216.58-.02 204.88-.02 191.08V55.98c0-13.26 10.75-23.1 23.1-23.1h135.1c12.94 0 24.61 7.78 29.56 19.75 3.43 3.07 3.33 7.22 3.33 10.45 0 8.31-3.24 16.5-9.37 22.63l-29.14 30.97L224 188.12l71.43-71.44 -30.06-30.06c-9.16-9.16-11.91-22.91-6.94-34.87C263.36 39.8 275.05 32 287.99 32h135.1c13.26 0 23.1 10.75 23.1 23.1v135.1c0 12.94-7.79 24.61-19.75 29.56 -11.1 4.9-25.72 2.2-34.87-6.94l-30.06-30.06 -71.43 71.43 71.44 71.44 30.06-30.06c9.15-9.16 22.91-11.91 34.87-6.94 13.7 6.74 20.6 18.44 20.6 30.44Z"/></svg>