<svg viewBox="0 0 512 512" xmlns="http://www.w3.org/2000/svg"><path d="M223.7 130.8L149.1 7.77c-2-4.83-7.2-7.77-12.8-7.77H16.03C3.08 0-4.5 14.58 2.93 25.18l111.3 158.9C143.9 156.4 181.7 137.3 223.7 130.8ZM256 160c-97.25 0-176 78.75-176 176s78.8 176 176 176 176-78.75 176-176 -78.7-176-176-176Zm92.5 157.3l-37.88 37 8.875 52.25c1.625 9.25-8.25 16.5-16.63 12l-46.88-24.62 -46.89 24.57c-8.375 4.5-18.25-2.75-16.63-12l8.875-52.25 -37.88-37c-6.87-6.65-2.97-18.25 6.43-19.65l52.38-7.625 23.42-47.48c2-4.25 6.125-6.375 10.25-6.375 4.12 0 8.25 2.17 10.25 6.375l23.5 47.5 52.38 7.625c9.52 1.375 13.32 12.97 6.42 19.67ZM495.1 0H375.7c-5.63 0-10.83 2.949-13.72 7.77l-73.76 122.1c42 6.5 79.88 25.62 109.5 53.38l111.3-158.9c7.48-9.77-.12-24.35-13.92-24.35Z"/></svg>