<svg viewBox="0 0 384 512" xmlns="http://www.w3.org/2000/svg"><path d="M368 223.1c0-55.32-25.57-104.6-65.49-136.9 20.49-17.32 37.2-39.11 48.1-64.21 4.65-10.72-2.9-22.89-14.45-22.89h-54.31c-5.26 0-9.93 2.828-12.96 7.188 -17.09 25.48-45.09 40.81-76.89 40.81 -31.85 0-59.78-16.23-76.88-40.81 -3.02-3.47-7.72-6.29-12.92-6.29H47.84c-11.55 0-19.11 12.17-14.45 22.89 10.9 24.21 26.71 46.9 48.1 64.22C41.57 119.398 16 168.698 16 223.098c0 86.26 62.1 157.9 144 172.1v20.8h-32c-8.84 0-16 7.16-16 16v32c0 8.8 7.2 16 16 16h32v16c0 8.8 7.2 16 16 16h32c8.83 0 16-7.17 16-16v-16h32c8.83 0 16-7.17 16-16v-32c0-8.84-7.17-16-16-16h-32v-19.05c81.9-15.05 144-86.65 144-173.85ZM192 320c-52.93 0-96-43.07-96-96 0-52.94 43.07-95.1 96-95.1 52.94 0 96 43.06 96 95.1 0 52.9-43.1 96-96 96Z"/></svg>