<svg viewBox="0 0 640 512" xmlns="http://www.w3.org/2000/svg"><path d="M383.1 464l-39.1-.01v-33.77c20.6-2.83 39.98-9.41 57.69-18.72l-43.26-33.91c-14.66 4.65-30.28 7.17-46.68 6.14 -66.05-4.15-120.65-66.65-120.65-132.85v-3.7l-48-37.7 0 38.61c0 89.65 63.97 169.6 151.1 181.7v34.15l-40 0c-17.67 0-31.1 14.33-31.1 31.1 -.01 9.73 8.09 16.93 15.99 16.93h159.1c8.83 0 15.1-7.17 15.1-15.1 1.8-18.6-11.6-32.9-30.2-32.9Zm247.7 5.1L471.5 344.2c15.37-25.94 24.53-55.91 24.53-88.21V216c0-13.25-10.75-24-23.1-24 -13.25 0-24 10.75-24 24l-.01 39.1c0 21.12-5.56 40.77-14.77 58.24l-25.72-20.16c5.23-11.68 8.49-24.42 8.49-38.08l-.01-155.1c0-52.57-40.52-98.41-93.07-99.97 -54.37-1.62-98.93 41.95-98.93 95.95v54.25L38.78 5.11C34.38 1.67 29.16-.01 24-.01 16.88-.02 9.8 3.14 5.09 9.17 -3.1 19.61-1.28 34.7 9.15 42.87l591.1 463.1c10.5 8.2 25.57 6.32 33.69-4.08 9.12-9.52 7.22-24.62-3.18-32.82Z"/></svg>