<svg viewBox="0 0 640 512" xmlns="http://www.w3.org/2000/svg"><path d="M383.1 464l-39.1-.01v-33.77c20.6-2.83 39.99-9.41 57.69-18.72l-43.26-33.91c-14.66 4.65-30.28 7.17-46.68 6.14 -66.05-4.15-120.65-66.65-120.65-132.85v-3.78l-48-37.63 0 38.61c0 89.65 63.97 169.6 151.1 181.7v34.15l-40 0c-17.67 0-31.1 14.33-31.1 31.1 -.01 9.73 8.09 16.93 15.99 16.93h159.1c8.83 0 15.1-7.17 15.1-15.1 1.8-18.6-11.6-32.9-30.2-32.9Zm247.7 5.1L471.5 344.2c15.37-25.94 24.53-55.91 24.53-88.21V216c0-13.25-10.75-24-23.1-24 -13.25 0-24 10.75-24 24l-.01 39.1c0 21.12-5.56 40.77-14.77 58.24l-25.73-20.16c5.23-11.68 8.49-24.42 8.49-38.08l-57.07 0 -34.45-27c2.91-3.06 6.96-5 11.52-5h79.1v-31.11h-80.93c-8.84 0-15.1-7.17-15.1-15.1 0-7.94 7.16-16 15.1-16l79.1 0v-32.91l-79.1-.01c-8.84 0-15.1-7.17-15.1-15.1 0-7.94 7.16-15.1 15.1-15.1l80-.01c0-54-44.56-97.57-98.93-95.95 -51.67-.24-93.07 45.6-93.07 98.15l0 50.23L38.78 5.07C34.38 1.63 29.16-.05 24-.05 16.88-.05 9.81 3.1 5.09 9.13 -3.1 19.57-1.28 34.66 9.15 42.84l591.1 463.1c10.5 8.2 25.57 6.32 33.69-4.08 9.12-9.52 7.22-24.62-3.18-32.82Z"/></svg>