<svg viewBox="0 0 512 512" xmlns="http://www.w3.org/2000/svg"><path d="M492.7 42.75c25 24.99 25 65.55 0 90.55l-56.4 56.4 -114-113.98 56.4-56.4c25-24.998 65.6-24.998 90.6 0l23.4 23.43ZM44.89 353.2L299.7 98.34l114 113.96 -254.9 254.8c-6.7 6.7-15 11.6-24.2 14.3L30.59 511.1c-8.38 2.4-17.4 0-23.56-7 -6.17-5.3-8.5-14.3-6.11-22.7l29.72-104c2.61-9.2 7.51-17.5 14.24-24.2ZM249.4 103.4l-146 146L16 161.9C-2.75 143.2-2.75 112.8 16 94.06L94.06 16C112.8-2.75 143.2-2.75 161.9 16l19.8 19.76c-.3.29-.7.6-1 .93l-64 64.01c-6.3 6.2-6.3 16.4 0 22.6 6.2 6.3 16.4 6.3 22.6 0l64-63.99c.3-.32-.2-.66.9-1.01l45.2 45.1Zm204.3 204.4c-.3.2-.7.6-1 .9l-64 64c-6.3 6.2-6.3 16.4 0 22.6 6.2 6.3 16.4 6.3 22.6 0l64-64c.3-1.2-.2-.7.9-1l19.8 19.8c18.7 18.7 18.7 49.1 0 67.8L417.9 496c-18.7 18.7-49.1 18.7-67.8 0l-87.5-87.4 146-146 45.1 45.2Z"/></svg>