<svg viewBox="0 0 512 512" xmlns="http://www.w3.org/2000/svg"><path d="M465 134.2c21.46-38.38 19.87-87.17-5.65-123.1 -7.55-10.83-22.31-13.53-33.2-5.94 -10.77 7.57-13.44 22.55-5.9 33.41 14.41 20.76 15.13 47.69 4.09 69.77 -17.26-8.25-36.36-13.25-56.36-13.25 -36.23 0-68.93 13.83-94.24 35.92l78.24 34.48v90.5h90.56l33.53 78.23c22.11-25.33 35.91-58.03 35.91-95.13 0-41.1-18.3-78.5-47-104.9ZM320 288V186.6l-52.95-22.69C216.2 241.3 188.5 400 56 400c-30.87 0-56 25.1-56 56s25.13 56 56 56c180.3 0 320.1-88.27 389.3-168.5L421.5 288H320Z"/></svg>