<svg viewBox="0 0 512 512" xmlns="http://www.w3.org/2000/svg"><path d="M182.2.09c9.5-1.06 17.8 6.36 17.8 15.9v14.13c0 8.78-7.1 15.92-15.9 16H72.74C63.48 46.03 56 38.51 56 29.23c0-8.6 6.47-15.83 15.02-16.78L182.2.08Zm9.8 95.9c0 35.3-28.7 64-64 64 -35.35 0-64-28.7-64-64 0-6.2.88-12.2 2.53-17.87H189.5c1.6 5.67 2.5 11.67 2.5 17.87v0Zm-160 160c0-18.8 8.09-35.7 20.97-47.4l144.23 111c-1.7.3-3.4.4-5.2.4H64c-17.67 0-32-14.3-32-32v-32Zm190.2 42.5L85.05 192.89c3.56-.6 7.22-1.8 10.95-1.8h64c35.3 0 64 29.6 64 64v32c0 4.6-.6 8.1-1.8 11.4v0ZM320 95.99c0-35.35 28.7-64.9 64-64.9 35.3-.001 64 29.55 64 64.9 0 35.3-28.7 64-64 64s-64-28.7-64-64Zm96 96c35.3 0 64 28.7 64 64v32c0 17.7-14.3 32-32 32H320c-17.7 0-32-14.3-32-32v-32c0-35.3 28.7-64 64-64h64Zm-264.2 314.1c-10 8.7-25.1 7.7-33.9-2.3 -8.7-10-7.7-25.1 2.3-33.9l15.9-13.9 -113-.9c-12.36 0-23.11-9.9-23.1-24 0-12.4 10.75-24 24-24l112.1.9 -15.9-13.9c-10-8.8-11-23.9-2.3-33.9 8.8-10 23.9-11 33.9-2.3l64 56c5.2 4.6 8.2 11.2 8.2 17.2 0 7.8-3 14.4-8.2 19l-64 56Zm144.4-92.2l64-56c10-8.7 25.1-7.7 33.9 2.3 8.7 10 7.7 25.1-2.3 33.9l-15.9 13H488c13.3 0 24 11.6 24 24 0 14.1-10.7 24-24 24H375.9l15.9 14.8c10 8.8 11 23.9 2.3 33.9 -8.8 10-23.9 11-33.9 2.3l-64-56c-6.1-4.6-8.2-11.2-8.2-19 0-6 2.1-12.6 8.2-17.2v0Z"/></svg>