<svg viewBox="0 0 512 512" xmlns="http://www.w3.org/2000/svg"><path d="M460.7 249.6c5.87 4.25 12.47 6.39 19.22 6.39 10.76 0 32.05-8.41 32.05-31.97 0-9.74-4.43-19.36-12.8-25.65l-111.5-83.48c-13.75-10.25-29.04-18.42-45.42-23.79l-63.66-21.23 -26.12-52.12C246.88 6.58 235.57.11 223.84.11c-17.8 0-31.99 14.47-31.99 32.01 0 4.8 1.08 9.674 3.37 14.25l29.12 58.12c5.75 11.38 15.55 19.85 27.67 23.98l16.45 5.52 -41.17 20.6c-21.8 10.9-35.4 32.8-35.4 57.2v53.1l-74.1 24.7c-13.4 4.5-21.85 16.9-21.85 30.3 0 12.05 6 19.05 10.33 23.09l-38.68-14.14c-26.37-9.45-18.49-33.85-43.63-33.85 -18.67 0-23.97 17.16-23.97 24.09 0 8.55 13.68 41.32 51.13 54.88l364.1 132.8c10.47 3.43 20.47 5.23 30.47 5.23 12.5 0 24.97-2.74 36.47-8.24 8.72-4 13.85-12.71 13.85-21.77 0-18.67-17.15-23.96-24.06-23.96 -3.375 0-6.73.75-10 2.24 -5.12 2.48-10.64 3.7-16.21 3.7 -4.52 0-9.05-.8-13.41-2.37l-90.68-33.12c8.625-4.125 15.53-11.76 17.78-21.89l21.88-101.1c.7-3.34 1.05-6.67 1.05-10 0-14.91-6.91-29.31-19.17-38.4l-52.01-39 66.01-30.5 83.49 61.98Zm-144.4 51.7l-19.66 92c-.43 1.99-.6 3.97-.6 5.91 0 4.96 1.26 9.69 3.33 14.01l-169.5-61.49c2.625-.25 5.49-.45 8.11-1.32l85-28.38c19.63-6.5 32.77-24.73 32.77-45.48v-20.53l60.53 45.27ZM431.9 95.99c26.5 0 48-21.5 48-47.1s-21.5-48.89-48-48.89 -48 21.5-48 47.1 21.5 48.89 48 48.89Z"/></svg>