<svg viewBox="0 0 320 512" xmlns="http://www.w3.org/2000/svg"><path d="M112 48c0-26.51 21.5-48 48-48s48 21.49 48 48 -21.5 48-48 48 -48-21.49-48-48ZM88 384H70.2c-10.92 0-18.63-10.7-15.18-21.1l38.26-114.8 -33.85 56.4c-9.1 15.1-28.76 20-43.91 10.9 -15.16-9.1-20.06-28.7-10.95-43.9l53.607-89.2c20.25-33.7 56.72-54.3 96.02-54.3h11.6c39.3 0 75.8 20.6 96 54.3l53.6 89.2c9.1 15.2 4.2 34.8-10.9 43.9 -15.2 9.1-34.8 4.2-43.9-10.9l-33.9-56.4 37.4 114.8c4.3 10.4-3.4 21.1-14.3 21.1h-17.8v96c0 17.7-14.3 32-32 32s-32-14.3-32-32v-96h-16v96c0 17.7-14.3 32-32 32s-32-14.3-32-32v-96Z"/></svg>