<svg viewBox="0 0 576 512" xmlns="http://www.w3.org/2000/svg"><path d="M272 95.93c26.5 0 47.99-21.47 47.99-47.97C319.99 21.46 298.5 0 272 0c-26.5 0-48 21.47-48 47.97s21.5 47.96 48 47.96ZM209.7 357.3c-25.75-17.25-52.25-33.24-79.5-48.11L58.62 270.2 1.24 471.1c-4.88 16.1 4.1 34.74 22 39.62 17.9 4.88 34.63-5 39.5-21.99l36.63-128.1L160 401v78.86c0 17.62 14.38 31.99 32 31.99 17.62 0 32-14.37 32-31.99l0-95.93c-.01-10.73-5.41-20.73-14.31-26.63ZM311.1 416c-13.88 0-25.95 8.863-30.33 21.86l-24.75 74.07h319.9l-101.9-206.3c-11.38-22.49-43.1-23.63-56.1-2.01l-31.89 54.21 -65.26-35.64 -24-121.2c-8.67-39.69-33.57-73.29-69.67-91.29 -1-.5-2.125-.625-3.125-1.125 -2.25-1.125-4.76-1.1-7.26-2.625 -15.23-6.1-31.53-9.97-48.03-9.97h-73.6c-9.25 0-18.05 4.06-24.18 10.93l-55.95 63.92c-.75.99-1.5 2.12-2.25 3.24 -8.88 13.1-3 32.87 11.63 40.74l336.6 184.3 -9.84 16.87h-40.02ZM105.9 204.1l-23.5-12.87 28.13-32.12h34.38L105.9 204.1Zm93.6 52l34.9-41.28 13.5 67.61 -48.4-26.33Z"/></svg>