<svg viewBox="0 0 640 512" xmlns="http://www.w3.org/2000/svg"><path d="M271.1 367.5l-43.2-53.8c-8.69-10.78-23.69-14.51-36.47-8.98l-108.5 46.51c-13.91 6-21.49 21.19-18.11 35.79l23.25 100.8c3.25 14.17 15.73 24.17 30.43 24.17 107.4 0 206.1-37.46 284.2-99.65l-88.75-69.56c-13.35 9.11-27.35 17.51-42.85 24.71Zm359.7 101.6L471.2 344c65.03-78.97 104.7-179.5 104.7-289.5 0-14.66-9.97-27.2-24.22-30.45L451 .81c-14.69-3.41-29.73 4.213-35.82 18.12l-46.52 108.5c-5.44 12.78-1.78 27.67 8.97 36.45l53.82 44.08c-12.26 24.13-27.56 48.23-45.26 69.43L38.8 5.1C34.4 1.66 29.18-.02 24.02-.02 16.9-.02 9.83 3.13 5.11 9.17 -3.08 19.61-1.26 34.7 9.17 42.87l591.1 463.1c10.5 8.2 25.57 6.32 33.69-4.08 9.12-9.52 7.22-24.62-3.18-32.82Z"/></svg>