<svg viewBox="0 0 640 512" xmlns="http://www.w3.org/2000/svg"><path d="M.25 166.9L.03 67.99C0 57.74 9.49 50.11 19.49 52.34l35.56 7.9c10.56 2.34 19.22 9.87 23.02 20l17.01 46.86 128.2 38.5 -41.5-145.2C178.88 10.18 186.58 0 197.18 0h40.1c11.5 0 22.2 6.235 27.9 16.309l109 193.89 107.3 31.6c15.9 4.7 30.7 12.5 43.7 22.9l34.4 27.5c24.1 19.2 18.1 57.3-10.7 68.3 -41.2 15.6-86.2 18-128.8 6.9l-298.4-77.6c-11.1-2.9-21.2-8.7-29.3-16.9L9.51 189.4c-5.93-6-9.27-14.1-9.29-22.5v0ZM607.99 448c17.7 0 32 14.3 32 32s-14.3 32-32 32h-576c-17.67 0-32-14.3-32-32s14.33-32 32-32h576Zm-416-80c0 17.7-14.3 32-32 32s-32-14.3-32-32 14.3-32 32-32 32 14.3 32 32Zm32 16c0-17.7 14.3-32 32-32s32 14.3 32 32 -14.3 32-32 32 -32-14.3-32-32Z"/></svg>