<svg viewBox="0 0 576 512" xmlns="http://www.w3.org/2000/svg"><path d="M482.3 192c34.2 0 93.7 29 93.7 64 0 36-59.5 64-93.7 64H365.7L265.2 495.9c-5.7 9.9-16.3 16.1-27.8 16.1h-56.2c-10.6 0-18.3-10.2-15.4-20.4L214.9 320H112l-43.2 57.6c-3.02 4-7.76 6.4-12.8 6.4H14.03C6.28 384 0 377.7 0 369.1c0-.4.18-1.7.53-3L31.99 256 .52 145.9c-.36-1.3-.54-2.6-.54-3.9 0-7.7 6.284-14 14.03-14h41.97c5.04 0 9.78 2.4 12.8 6.4l43.2 57.6h102.9l-49.1-171.6c-2.9-10.23 4.8-20.4 15.4-20.4h56.2c11.5 0 22.1 6.153 27.8 16.12L365.68 192h116.6Z"/></svg>