<svg viewBox="0 0 640 512" xmlns="http://www.w3.org/2000/svg"><path d="M320 93.68v84.62l77.1 44.1C350.6 254 320 307.4 320 368c0 54.2 24.5 102.7 63.1 134.1 -2.1 6.2-7.2 9.9-14 9.9 -.4 0-1.7-.2-3-.5L256 480l-110.1 31.5c-1.3.3-2.6.5-3.9.5 -7.7 0-14-6.3-14-14.9V456c0-5.9 2.4-9.8 6.4-12.8L192 400v-70.9L20.4 378.2C10.17 381.1 0 373.4 0 362.8v-65.5c0-5.8 3.07-11.1 8.06-13.9l183.938-105.1V93.68c0-34.15 29-93.68 64-93.68 36 0 64 59.53 64 93.68v0ZM352 368c0-79.5 64.5-144 144-144s144 64.5 144 144 -64.5 144-144 144 -144-64.5-144-144Zm144 96c13.3 0 24-10.7 24-24s-10.7-24-24-24 -24 10.7-24 24 10.7 24 24 24Zm-16.9-176v80c0 8.8 8.1 16 16 16 9.7 0 16-7.2 16-16v-80c0-8.8-6.3-16-16-16 -7.9 0-16 7.2-16 16Z"/></svg>