<svg viewBox="0 0 512 512" xmlns="http://www.w3.org/2000/svg"><path d="M512 440.1c0 39.8-32.3 71.9-72.9 71.9H71.92C32.17 512 0 479.8 0 440c0-35.88 26.19-65.35 60.56-70.85C43.31 356 32 335.4 32 312c0-39.8 32.25-72 72-72h13.99C104.5 228.2 96 211.2 96 192c0-35.38 28.56-64 63.94-64h16C220.1 128 256 92.12 256 48c0-17.38-5.79-33.35-15.16-46.47C245.8.77 250.9 0 256 0c53 0 96 43 96 96 0 11.25-2.29 22-5.92 32h5.87c35.334 0 64.03 28.6 64.03 64 0 19.25-8.59 36.25-22.09 48h14.09c39.8 0 72 32.2 72 72 0 23.38-11.38 44.01-28.63 57.14 34.33 5.46 60.63 35.16 60.63 70.96Z"/></svg>