<svg viewBox="0 0 448 512" xmlns="http://www.w3.org/2000/svg"><path d="M393.1 402.5c34.12-39.32 54.93-90.48 54.93-146.5 0-123.5-100.5-224-223.1-224C102.33 32 0 132.5 0 256c0 123.5 100.5 224 223.1 224 44.45 0 85.81-13.16 120.7-35.58l46.73 56.08c6.32 7.59 15.42 11.52 24.59 11.52 21.35 0 31.98-18.26 31.98-32.01 0-7.23-2.44-14.49-7.42-20.47l-46.59-57.04ZM224 416c-88.22 0-160-71.78-160-160s71.78-159.1 160-159.1 160 71.78 160 159.1c0 36.21-12.55 69.28-32.92 96.12L280.6 267.5c-6.34-7.6-15.44-11.53-24.61-11.53 -21.27 0-31.96 18.22-31.96 32.02 0 7.22 2.43 14.49 7.41 20.47l71.53 85.83C279.59 407.7 252.79 416 223.99 416Z"/></svg>