<svg viewBox="0 0 384 512" xmlns="http://www.w3.org/2000/svg"><path d="M13.97 2.19C22.49-1.73 32.5-.33 39.62 5.77L80 40.38 120.4 5.77c9-7.71 22.2-7.71 31.2 0L192 40.38 232.4 5.77c9-7.71 22.2-7.71 31.2 0L304 40.38 344.4 5.77c7.1-6.1 17.1-7.5 25.6-3.59 8.5 3.917 14 12.434 14 21.8v464c0 9.4-5.5 17.9-14 21.8 -8.5 3.9-18.5 2.5-25.6-3.6l-40.4-34.6 -40.4 34.6c-9 7.7-22.2 7.7-31.2 0l-40.4-34.6 -40.4 34.6c-9 7.7-22.2 7.7-31.2 0L80 471.58l-40.38 34.6c-7.12 6.1-17.13 7.5-25.65 3.6C5.45 505.88 0 497.38 0 487.98v-464C0 14.61 5.45 6.09 13.97 2.17v0ZM96 143.994c-8.84 0-16 7.2-16 16s7.16 16 16 16h192c8.8 0 16-7.2 16-16s-7.2-16-16-16H96Zm0 224h192c8.8 0 16-7.2 16-16s-7.2-16-16-16H96c-8.84 0-16 7.2-16 16s7.16 16 16 16Zm0-128c-8.84 0-16 7.2-16 16s7.16 16 16 16h192c8.8 0 16-7.2 16-16s-7.2-16-16-16H96Z"/></svg>