<svg viewBox="0 0 512 512" xmlns="http://www.w3.org/2000/svg"><path d="M180.2 243.1c4.8 20.8-18 37.1-36.1 25.7l-24.3-15.2 -50.9 81.43c-13.33 21.32 2 48.98 27.15 48.98h32.02c17.64 0 31.98 14.32 31.98 31.96s-14.34 32.05-31.98 32.05H96.15c-75.36 0-121.3-82.84-81.47-146.8l50.83-81.42 -24.36-15.3c-18.11-11.4-13.49-39 7.33-43.8l91.43-21.15c8.59-1.85 17.29 3.35 19.29 12.05l21 91.5ZM283.1 78.96l41.25 66.14 -24.25 15.08c-18.16 11.31-13.57 38.94 7.27 43.77l91.4 21.15c8.62 1.99 17.23-3.39 19.21-12.01l21.04-91.43c4.78-20.81-17.95-37.05-36.07-25.76l-24.36 15.2 -41.2-65.96c-37.58-60.14-125.2-60.18-162.8-.07l-7.4 11.82c-9.3 14.85-4.7 34.68 10.1 44 14.92 9.35 34.77 4.88 44.11-10.04l7.44-11.89c12.74-20.39 42.04-19.64 54.24-.01ZM497.3 301.3l-16.99-27.26c-9.34-14.98-29.06-19.56-44.04-10.21 -14.94 9.31-19.52 29.15-10.18 44.08l16.99 27.15c13.35 21.32-1.99 49-27.14 49h-95.99l.02-28.74c0-21.38-25.85-32.09-40.97-16.97l-66.41 66.43c-6.23 6.22-6.23 16.41 0 22.63l66.42 66.34c15.12 15.1 40.95 4.38 40.95-16.98l-.03-28.68h95.86c75.39.01 121.39-82.89 81.49-146.79Z"/></svg>