<svg viewBox="0 0 512 512" xmlns="http://www.w3.org/2000/svg"><path d="M480 256c-17.67 0-32 14.31-32 32 0 52.94-43.06 96-96 96H192v-40c0-9.47-5.58-18.06-14.23-21.94 -8.67-3.76-18.77-2.26-25.87 4.14l-80 72c-5.01 4.5-7.9 11-7.9 17.8 0 6.8 2.89 13.28 7.93 17.84l80 72c4.46 4.06 10.262 6.16 16.06 6.16 3.31 0 6.61-.69 9.756-2.07 8.64-3.84 14.244-12.44 14.244-21.94v-40h160c88.22 0 160-71.78 160-160 0-17.7-14.3-32-32-32ZM160 128h159.1l.9 40c0 9.46 5.57 18.06 14.23 21.94 3.17 1.36 6.47 2.06 8.87 2.06 5.81 0 11.57-2.125 16.07-6.16l80-72c5.93-4.55 8.83-11.05 8.83-18.744 0-7.7-2.9-13.28-7.94-17.84l-80-72c-7.05-6.32-17.19-7.88-25.83-4.1 -8.64 4.77-15.14 13.36-15.14 22.83l.9 40h-160c-88.22 0-160 71.8-160 160 0 17.69 14.33 32 32 32s32-14.31 32-32c0-52.9 43.1-96 96-96Z"/></svg>