<svg viewBox="0 0 640 512" xmlns="http://www.w3.org/2000/svg"><path d="M544 191.1C544 102.73 472.38 32 384.9 32H159.1C71.62 32-.001 103.6-.001 191.1l.025 63.98h543.1V191.1Zm-367.7-20.7l-19.75 19.37 4.75 27.25c.74 4.875-4.375 8.625-8.75 6.25l-24.5-12.87 -24.55 12.8c-4.23 2.4-9.48-1.3-8.73-7.1l4.75-27.25 -19.75-19.37c-3.62-2.58-1.62-8.58 3.25-9.28l27.38-4 12.25-24.87c2.125-4.5 8.625-4.375 10.62 0l12.23 24.87 27.4 4c5 .7 6.9 6.7 3.4 10.2Zm144 0l-19.75 19.37 4.75 27.25c.74 4.875-4.375 8.625-8.75 6.25L272 210.4l-24.5 12.87c-4.2 2.33-9.5-1.37-8.7-7.17l4.7-26.4 -19.75-19.37c-3.625-3.5-1.625-9.5 3.25-10.12l27.4-4.01 12.25-24.87c2.125-4.5 8.625-4.375 10.62 0l12.23 24.87 27.37 4c5.03.7 6.93 6.7 3.43 10.2Zm144 0l-19.75 19.37 4.75 27.25c.74 4.875-4.375 8.625-8.75 6.25l-24.5-12.87 -24.5 12.87c-4.25 2.375-9.5-1.375-8.75-6.25l4.75-27.25 -19.75-19.37c-3.625-3.5-1.625-9.5 3.25-10.12l27.37-4 12.25-24.87c2.125-4.5 8.625-4.375 10.62 0l12.25 24.87 27.37 4c4.99.62 6.89 6.62 3.39 10.12ZM624 319.1h-32c-8.8 0-15.1 7.19-15.1 15.1v63.99c0 8.74-7.25 15.1-15.1 15.1 -8.75 0-15.1-7.25-15.1-15.1l-.04-111.1 -546.65.01v159.1c0 17.6 14.4 31.1 31.1 31.1l64.855 1.8c17.6 0 32.04-14.4 32.04-32v-63.98l191.1-.02v63.99c0 17.6 14.36 32 31.96 32l64.04.01c17.6 0 31.1-14.4 31.1-31.1l-.05-96.01 32.04 0v43.25c0 41.79 29.91 80.03 71.48 84.35 49.6 4.9 90.3-32.7 90.3-80.5v-63.98c0-7.92-7.2-16.02-16-16.02Z"/></svg>