<svg viewBox="0 0 512 512" xmlns="http://www.w3.org/2000/svg"><path d="M344.7 238.5l-144.1-136c-6.9-6.53-17.2-8.33-26-4.55 -8.8 3.85-14.5 12.45-14.5 22.05v72H32.02c-17.69 0-32.02 14.3-32.02 32v64c0 17.68 14.33 32 32.02 32h128.1v72c0 9.57 5.7 18.25 14.51 22.05 8.8 3.78 19.03 1.98 26-4.6l144.1-136c9.57-9.06 9.57-25.86-.03-34.96ZM416 32h-64c-17.67 0-32 14.33-32 32s14.33 32 32 32h64c17.67 0 32 14.33 32 32v256c0 17.67-14.33 32-32 32h-64c-17.67 0-32 14.33-32 32s14.33 32 32 32h64c53.02 0 96-42.98 96-96V128c0-53.02-43-96-96-96Z"/></svg>