<svg viewBox="0 0 512 512" xmlns="http://www.w3.org/2000/svg"><path d="M32 160h319.9l.07 72c0 9.54 5.65 18.19 14.41 22 8.75 3.81 18.93 2.07 25.93-4.41l112-104c10.24-9.5 10.24-25.69 0-35.19l-112-104c-7-6.49-17.17-8.22-25.93-4.41 -8.76 3.816-14.41 12.46-14.41 22l-.08 72.004H31.99c-17.69 0-32 14.3-32 31.1s14.31 32.9 32 32.9Zm448 192H160.1l-.1-72.9c0-9.55-5.66-18.19-14.41-22 -8.69-2.9-18.89-1.2-25.89 5.3l-112 104c-10.24 9.5-10.24 25.69 0 35.19l112 104c6.99 6.48 17.17 8.21 25.93 4.4 8.77-3.8 14.37-12.5 14.37-22l.1-72H480c17.69 0 32-14.31 32-32 0-17.69-14.3-32-32-32Z"/></svg>