<svg viewBox="0 0 640 512" xmlns="http://www.w3.org/2000/svg"><path d="M9.37 233.4c-6 6-9.38 14.1-9.38 22.6v128c0 8.5 3.37 16.62 9.37 22.62 6 6 14.12 9.38 22.625 9.38h32V224h-32c-8.5 0-16.62 3.4-22.625 9.4ZM463.995 96h-112V32c0-17.62-14.38-32-32-32 -17.62 0-32 14.38-32 32v64h-112c-44.2 0-80 35.8-80 80v272c0 35.38 28.62 64 64 64h320c35.38 0 64-28.62 64-64V176c0-44.2-35.7-80-80-80Zm-208 320h-64v-32h64v32Zm-32-120c-22.1 0-40-17.9-40-40s17.9-40 40-40 40 17.9 40 40 -17.9 40-40 40Zm128 120h-64v-32h64v32Zm96 0h-64v-32h64v32Zm-32-120c-22.12 0-40-17.88-40-40s17.9-40 40-40 40 17.9 40 40 -17.9 40-40 40Zm214.6-62.6c-6-6-14.1-9.4-22.6-9.4h-32v192h32c8.5 0 16.62-3.375 22.62-9.375s9.38-14.125 9.38-22.625V256c0-8.5-3.4-16.6-9.4-22.6Z"/></svg>