<svg viewBox="0 0 576 512" xmlns="http://www.w3.org/2000/svg"><path d="M256 16c0-6.99 4.5-13.159 11.2-15.26 6.7-2.1 13.9.36 17.9 6.08l224 319.97c3.4 4.9 3.8 11.3 1.1 16.6 -2.8 5.3-9.1 8.6-14.2 8.6H272c-8.8 0-16-7.2-16-16v-320Zm-43.9 80.54c7 1.86 11.9 8.16 11.9 15.46v224c0 8.8-7.2 16-16 16H80c-5.7 0-10.98-3.9-13.84-8 -2.86-4.9-2.88-11-.05-15.9l127.99-224c3.6-6.34 11-9.42 18-7.56v0ZM5.71 404.3c-2.87-10.2 4.8-20.3 15.4-20.3h533.78c10.6 0 18.3 10.1 15.4 20.3l-4 14.4c-15.6 55.2-65.9 93.3-123.3 93.3h-310.9c-56.48 0-106.83-38.1-122.36-93.3L5.7 404.3Z"/></svg>