<svg viewBox="0 0 512 512" xmlns="http://www.w3.org/2000/svg"><path d="M288 208c0 8.8-7.2 16-16 16s-16.9-7.2-16.9-16 8.1-16 16.9-16c8.8 0 16 7.2 16 16ZM256.3-.01c5.6-.05 11 1.39 15.8 4.07l204.4 86.464c11.2 4.74 18.7 14.57 19.4 27.57 5.7 95.5-29.2 303.8-223.4 389.6 -4.9 2.8-11.4 4.4-16.2 4.3 -5.8.1-11.4-1.5-17.2-4.3 -193.3-85.8-228.15-294.1-222.53-389.6 .71-13 8.26-22.83 19.47-27.57L240.4 4.06c4.8-2.68 10.3-4.12 15.9-4.08V-.03Zm-95.4 286.2l-17.8 33.8 128.9 64v-64h48c44.2 0 80-35.8 80-80v-32c0-8.8-7.2-16-16-16h-64l-7.2-14.3c-5.4-10.9-16.5-17.7-28.6-17.7h-45.1v64c0 35.3-27.8 64-64 64 -4.3 0-9.4-.6-14.2-1.8v0Zm-17.8-110.2v48c0 17.7 15.2 32 32 32 18.6 0 32-14.3 32-32v-64h-48c-7.9 0-16 7.2-16 16Z"/></svg>