<svg viewBox="0 0 512 512" xmlns="http://www.w3.org/2000/svg"><path d="M256.3-.01c5.6-.05 11 1.39 15.8 4.07l204.4 86.464c11.2 4.74 18.7 14.57 19.4 27.57 5.7 95.5-29.2 303.8-223.4 389.6 -4.9 2.8-11.4 4.4-16.2 4.3 -5.8.1-11.4-1.5-17.2-4.3 -193.3-85.8-228.15-294.1-222.53-389.6 .71-13 8.26-22.83 19.47-27.57L240.4 4.06c4.8-2.68 10.3-4.12 15.9-4.08V-.03Zm9.8 363.4l98.1-99.8c28-28.9 26.3-77-6.1-104.1 -26.3-23.7-66.6-19.3-92 7l-9.7 9.6 -10.5-9.6c-24.5-26.3-65.7-30.7-92.9-7 -31.5 27.1-33.2 75.2-5.2 104.1l96.4 99.8c7 6.1 16.6 6.1 21.9 0v0Z"/></svg>