<svg viewBox="0 0 640 512" xmlns="http://www.w3.org/2000/svg"><path d="M74.13 32.8l7.62-11.42C90.65 8.02 105.6 0 121.7 0h396.6c16.1 0 31 8.021 39.9 21.379l75.6 113.32c4 6.1 6.2 13.2 6.2 20.5 0 20.3-16.5 36.8-36.8 36.8H277.3l42.7 33.5V224h64v51.7l128 99.4V224h64v202.2l54.8 42.9c10.4 8.2 12.3 23.3 4.1 33.7 -8.2 10.4-23.3 12.3-33.7 4.1L9.19 42.89C-1.25 34.71-3.08 19.63 5.1 9.19 13.28-1.25 28.35-3.08 38.79 5.1l35.32 27.68ZM0 155.2c0-7.3 2.153-14.4 6.188-20.5l14.79-22.2L121.79 192H36.83C16.49 192-.01 175.5-.01 155.2h-.01ZM320 384v-35.9l64 50.4V464c0 26.5-21.5 48-48 48H112c-26.51 0-48-21.5-48-48V224h64v160h192Z"/></svg>