<svg viewBox="0 0 448 512" xmlns="http://www.w3.org/2000/svg"><path d="M368 128c0 44.4-25.4 83.5-64 106.4V256c0 17.7-14.3 32-32 32h-96.9c-16.8 0-32-14.3-32-32v-21.6c-37.7-22.9-64-62-64-106.4 0-70.69 65.4-128 144-128C303.5 0 368 57.31 368 128v0Zm-200.9 48c18.6 0 32-14.3 32-32s-13.4-32-32-32c-16.8 0-32 14.3-32 32s15.2 32 32 32ZM280 112c-17.7 0-32 14.3-32 32s14.3 32 32 32 32-14.3 32-32 -14.3-32-32-32ZM3.37 273.7c7.9-15.8 27.12-22.2 42.93-14.3l176.79 88.8 178.6-88.8c15.8-7.9 35-1.5 42.9 14.3 7.9 15.8 1.5 35-14.3 42.9L295.59 384l134.7 67.4c15.8 7.9 22.2 27.1 14.3 42.9 -7.9 15.8-27.1 22.2-42.9 14.3l-178.6-88.8L46.3 508.6c-15.81 7.9-35.03 1.5-42.94-14.3 -7.91-15.8-1.5-35 14.31-42.9l134.71-67.4 -134.71-67.4c-15.81-7.9-22.22-27.1-14.32-42.9v0Z"/></svg>