<svg viewBox="0 0 640 512" xmlns="http://www.w3.org/2000/svg"><path d="M144 288h156.1c22.5 19.8 51.7 32 83.9 32s61.25-12.25 83.88-32H528c61.9 0 112-50.1 112-112s-50.13-112-112-112c-18 0-34.75 4.625-49.75 12.12C453.1 30.1 406.8 0 352 0c-41 0-77.75 17.25-104 44.75C221.8 17.25 185 0 144 0 64.5 0 0 64.5 0 144c0 79.5 64.5 144 144 144Zm-8 176H23.1c-12.3 0-23.1 10.8-23.1 23.1s10.8 24.9 23.1 24.9H136c13.2 0 24-10.8 24-24s-10.8-24-24-24Zm480-96H88c-13.2 0-24 10.8-24 23.1s10.8 24.9 23.1 24.9h528c13.2 0 24-10.8 24-23.1s-9.9-24.9-23.1-24.9Zm-64 96H231.1c-12.3 0-23.1 10.8-23.1 23.1s10.8 24.9 23.1 24.9H552c13.2 0 24-10.8 24-23.1s-10.8-24.9-24-24.9Z"/></svg>