<svg viewBox="0 0 512 512" xmlns="http://www.w3.org/2000/svg"><path d="M510.9 152.3l-5.875-14.5c-3.25-8-12.62-11.88-20.75-8.625l-28.25 11.5v-29c-.93-8.68-7.33-15.68-16.93-15.68h-16c-8.75 0-16 7-16 15.62v46.88c0 .5.25 1 .25 1.5l-48.98 20.6c-5.3-12.57-12.98-23.81-22.24-33.55 9.35-14.81 14.98-32.23 14.98-51.04 -.01-53.03-42.11-96.01-96.01-96.01 -53.9 0-95.1 42.98-95.1 95.1 0 18.81 5.62 36.23 14.98 51.04 -9.28 10.66-16.88 21.96-22.18 34.56l-49-20.7c0-.5.25-1 .25-1.5v-46.9c-.05-8.6-7.29-15.6-16.04-15.6H72c-8.75 0-16 7-16 15.62v29l-28.25-11.5c-8.125-3.25-17.5.625-20.75 8.625l-5.88 14.5c-3.26 8.15.74 17.25 8.87 20.35l134.39 55.8c.5 12.4 2.9 24.3 7.1 35.3 -33.78 29.34-55.53 72.04-55.53 120.3 0 52.59 25.71 98.84 64.88 128h190.2c39.17-29.17 64.88-75.42 64.88-128 0-48.25-21.76-90.95-55.53-120.3 4.19-11.03 6.59-22.89 7.09-35.27l134.4-55.8c8.2-3.13 12.2-12.23 9-20.33ZM224 95.1c-8.75 0-15.1-7.25-15.1-15.1s7.25-15.1 15.1-15.1 15.1 7.25 15.1 15.1 -6.3 15.1-15.1 15.1Zm32 272c-8.75 0-15.1-7.25-15.1-15.1s6.4-16.9 15.1-16.9 15.1 7.25 15.1 15.1 -6.3 16.9-15.1 16.9Zm0-64c-8.75 0-15.1-7.25-15.1-15.1s6.4-16.9 15.1-16.9 15.1 7.25 15.1 15.1 -6.3 16.9-15.1 16.9Zm0-64c-8.75 0-15.1-7.25-15.1-15.1s6.4-16.9 15.1-16.9 15.1 7.25 15.1 15.1 -6.3 16.9-15.1 16.9Zm0-87.1s-15.1-23.25-15.1-32 6.4-16 15.1-16 15.1 7.25 15.1 16 -15.1 32-15.1 32Zm31.1-56.9c-8.75 0-15.1-7.25-15.1-15.1s7.25-15.1 15.1-15.1 15.1 7.25 15.1 15.1 -5.5 15.1-15.1 15.1Z"/></svg>