<svg viewBox="0 0 512 512" xmlns="http://www.w3.org/2000/svg"><path d="M475.6 384.1c-5.9 10.2-16.7 15.9-27.7 15.9 -5.49 0-11.04-1.41-16.13-4.375l-25.09-14.64 5.37 20.29c3.39 12.81-4.26 25.97-17.08 29.34 -2.07.56-4.13.81-6.17.81 -10.63 0-20.36-7.1-23.21-17.84l-17.74-66.92 -59.87-34.97 0 70.5 48.38 48.88c9.33 9.43 9.24 24.62-.19 33.94 -4.7 4.68-10.8 6.98-16.9 6.98 -6.2 0-12.39-2.375-17.08-7.125l-14.22-14.37v29.49c0 17.69-14.34 32-32.03 32s-32.03-14.31-32.03-32l-.01-29.5 -14.22 14.37c-9.33 9.43-24.53 9.5-33.97.18 -9.44-9.32-9.53-24.5-.19-33.94l48.38-48.88 -.85-70.54 -59.87 34.93 -17.74 66.92c-2.85 10.75-12.58 17.84-23.21 17.84 -2.04 0-4.1-.25-6.17-.82 -12.82-3.375-20.47-16.53-17.08-29.34l5.37-20.29 -25.09 14.64c-4.22 3.01-9.77 4.41-15.26 4.41 -11.01 0-21.74-5.69-27.69-15.88 -8.94-15.25-3.79-34.84 11.5-43.75l25.96-15.15 -20.33-5.51c-12.81-3.42-20.36-16.62-16.89-29.42 3.47-12.8 16.61-20.3 29.47-16.9l65.91 17.9 60.5-35.3 -60.5-35.3 -65.91 17.9c-2.12.56-4.23.84-6.305.84 -10.57 0-20.27-7.04-23.16-17.72 -3.48-12.83 4.07-25.93 16.88-29.43l20.33-5.51 -25.96-15.2c-15.28-8.91-20.43-28.5-11.5-43.75 8.88-15.28 28.5-20.44 43.81-11.5l25.09 14.64 -5.38-20.29c-3.39-12.79 4.3-25.95 16.2-29.32 13.8-3.47 26 4.25 30.3 17.03l17.74 66.92 58.96 34.97 -.01-70.5 -47.5-48.92c-9.3-9.44-9.3-24.63.2-33.94 9.4-9.35 24.6-9.22 34 .19l14.22 14.37 -.92-29.5c0-17.69 14.34-32 32.03-32s32.03 14.31 32.03 32l0 29.5 14.22-14.37c9.3-9.41 24.51-9.54 33.97-.19 9.43 9.31 9.52 24.5.18 33.94l-48.38 48.88 .84 70.53 59.87-34.93 17.74-66.92c3.39-12.78 16.56-20.5 29.38-17.03 12.82 3.375 20.47 16.53 17.08 29.34l-5.38 20.29 25.09-14.64c15.28-8.91 34.91-3.75 43.81 11.5 8.93 15.25 3.78 34.84-11.5 43.75l-25.96 15.15 20.33 5.5c12.81 3.46 20.37 16.66 16.89 29.44 -2.9 10.69-12.59 17.72-23.16 17.72 -2.08 0-4.2-.29-6.31-.85l-66.79-17.94 -59.6 35.3 60.46 35.28 65.95-17.87c12.89-3.41 25.99 4.09 29.49 16.89 3.47 12.78-4.09 25.97-16.89 29.44l-20.33 5.5 25.96 15.15c15.26 8.9 20.36 28.5 11.46 43.7Z"/></svg>