<svg viewBox="0 0 576 512" xmlns="http://www.w3.org/2000/svg"><path d="M566.6 265.4c-12.5-12.5-32.75-12.5-45.25 0L352 434.8l-73.38-73.38c-12.5-12.5-32.75-12.5-45.25 0s-12.5 32.75 0 45.25l96 96c6.25 6.25 14.44 9.36 22.62 9.36 8.18 0 16.38-3.12 22.63-9.37l192-192c12.48-12.57 12.48-32.77-.02-45.27Zm-345.1-53.7l-80-192C136.6 7.79 124.9.01 112 .01 99.1 0 87.44 7.79 82.47 19.69l-80 192c-6.8 16.3.9 35.1 17.22 41.8 16.36 6.81 35.06-.94 41.84-17.22l5.131-12.31h90.68l5.131 12.31c5.1 12.28 17.02 19.69 29.55 19.69 4.09 0 8.26-.79 12.3-2.47 16.27-6.71 23.97-25.51 17.17-41.81ZM93.33 160L112 115.2l18.67 44.81H93.33ZM288 256h80c44.11 0 80-35.87 80-79.1 0-23.15-10.03-43.85-25.79-58.47C428.3 106.3 432 93.65 432 80.01c0-44.13-35.89-80-79.1-80l-64.9 0c-17.67 0-32 14.31-32 31.1v192c0 18.58 14.3 32.88 32 32.88Zm32-191.99h32c8.82 0 16 7.18 16 16 0 8.81-7.18 16-16 16h-32v-32Zm0 95.99h48c8.82 0 16 7.18 16 16 0 8.81-7.18 16-16 16h-48v-32Z"/></svg>