<svg viewBox="0 0 512 512" xmlns="http://www.w3.org/2000/svg"><path d="M349.3 47.38l18.6 68.72c6.7 26 25.3 46.2 49.7 55.1l58.2 21.2c21.7 7.9 36.2 28.6 36.2 51.8 0 17.6-8.4 34.2-22.6 44.6l-82.5 59.3c-13.6 10.8-21.2 26-20.2 43.7l3.1 50.6c2.3 37.7-27.6 69.5-65.4 69.5 -15.6 0-30.6-5.5-43.3-15.5l-45-38.2c-15-13.5-35.2-20.9-56.1-20.9h-8.4c-6.5 0-11.2.5-16.8 1.6l-66.99 13c-23.99 4.7-48.28-6.4-60.4-27.6 -10.02-17.6-10.02-39.1 0-56.6l27.7-48.5c5.88-10.3 8.98-21.9 8.98-33.8 0-13.1-3.76-25.8-10.82-36.8L8.79 179.4C-6.75 155.2-1.28 123.2 21.4 105.6c10.71-8.35 24.11-12.47 37.66-11.59l71.73 4.65c29 1.84 56.3-10.75 75.1-33.73l31.4-40.27c12.1-15.53 30.6-24.61 50.3-24.61 28.9 0 54.2 19.41 61.7 47.32v0Z"/></svg>