<svg viewBox="0 0 448 512" xmlns="http://www.w3.org/2000/svg"><path d="M0 96v320c0 35.35 28.65 64 64 64h320c35.35 0 64-28.65 64-64V96c0-35.35-28.65-64-64-64H64C28.65 32 0 60.65 0 96Zm105.5 207.6l54.24-23.25c6.39-2.77 13.9-.91 18.24 4.48L200 311.74c34.63-17 62.77-45.14 79.77-79.75l-26.91-22.05c-5.375-4.4-7.22-11.83-4.5-18.22l23.27-54.28c3.04-6.96 10.59-10.77 17.93-9.07L339.94 140c7.125 1.625 12.11 7.89 12.11 15.22 0 126.1-102.6 228.8-228.7 228.8 -7.34 0-13.6-4.99-15.24-12.11l-11.62-50.39c-1.79-7.34 2-14.94 9-17.94Z"/></svg>