<svg viewBox="0 0 576 512" xmlns="http://www.w3.org/2000/svg"><path d="M576 32.01c0-17.69-14.33-31.1-32-31.1L320 .9c-14.69 0-27.48 10-31.05 24.25L197.9 388.29l-73.3-146.6c-5.4-10.8-16.5-17.7-28.6-17.7H32c-17.67 0-32 14.31-32 31.1s14.33 32 32 32h44.22l103.2 206.3c5.46 10.91 16.6 17.68 28.61 17.68 1.17 0 2.32-.06 3.49-.19 13.31-1.47 24.31-11.06 27.56-24.06l105.9-423.8h199.015c17.7.97 32-13.34 32-31.03Zm-9.4 201.39c-12.5-12.5-32.75-12.5-45.25 0L480 274.8l-41.38-41.37c-12.5-12.5-32.75-12.5-45.25 0s-12.5 32.75 0 45.25l41.38 41.38 -41.38 41.38c-12.5 12.5-12.5 32.75 0 45.25C399.6 412.9 407.8 416 416 416c8.2 0 16.38-3.125 22.62-9.375L480 365.29l41.38 41.38c6.22 6.22 14.42 9.32 22.62 9.32 8.2 0 16.38-3.125 22.62-9.375 12.5-12.5 12.5-32.75 0-45.25l-41.38-41.38 41.36-41.4c12.5-12.5 12.5-32.7 0-45.2Z"/></svg>