<svg viewBox="0 0 320 512" xmlns="http://www.w3.org/2000/svg"><path d="M112 223.1h112c17.7 0 32 15.2 32 32 0 18.6-14.3 32-32 32H112v45.4c0 29-7.9 56.6-22.8 82.4l-.68 1.1H288c17.7 0 32 14.3 32 32s-14.3 32-32 32H32c-11.53 0-22.17-6.2-27.85-16.2 -5.69-10.1-5.53-22.4.4-32.3l29.76-49.6c8.95-14.9 13.68-32 13.68-49.4V288h-16c-17.67 0-32-14.3-32-32 -.001-17.7 14.33-32 32-32h16v-63.6c0-70.93 57.5-128.4 128.4-128.4 13.8 0 27.5 2.22 39.7 6.59l82 27.05c16.8 5.59 25.8 23.71 20.3 40.46 -5.6 16.8-23.8 25.8-40.5 20.3l-81.2-27.1c-6.5-2.18-13.4-3.3-20.3-3.3 -35.6 0-64.4 28.8-64.4 64.4v62.7Z"/></svg>