<svg viewBox="0 0 512 512" xmlns="http://www.w3.org/2000/svg"><path d="M332.2 319.9c17.22 12.17 22.33 26.51 18.61 48.21 -3.04 17.59-10.88 29.34-24.72 36.99 -35.44 19.75-108.5 11.96-186-19.68 -16.34-6.69-35.03 1.15-41.72 17.53 -6.69 16.37 1.18 35.05 17.53 41.71 31.75 12.93 95.69 35.37 157.6 35.37 29.62 0 58.81-5.16 83.72-18.96 30.81-17.09 50.44-45.46 56.72-82.11 3.99-23.27 2.16-42.58-3.49-59.05h-78.26Zm155.8-80l-176.5-.04c-15.85-5.62-31.83-10.34-46.7-14.62 -85.47-24.62-110.9-39.05-103.7-81.33 2.5-14.53 10.16-25.96 22.72-34.03 20.47-13.15 64.06-23.84 155.4.34 17.09 4.53 34.59-5.66 39.13-22.74 4.53-17.09-5.66-34.59-22.75-39.12 -91.31-24.18-160.7-21.62-206.3 7.65 -27.5 17.69-45.7 45.07-51.21 77.07 -8.83 51.4 9.81 84.2 39.11 106.8H24c-13.25 0-24 10.75-24 23.1 0 13.25 10.75 23.1 24 23.1h464c13.25 0 24-10.75 24-23.1 0-12.3-10.7-23.1-24-23.1Z"/></svg>