<svg viewBox="0 0 512 512" xmlns="http://www.w3.org/2000/svg"><path d="M256 159.1c-53.02 0-95.1 42.98-95.1 95.1s41.2 96.9 95.1 96.9c53.9 0 95.1-42.98 95.1-95.1s-42.1-96.9-95.1-96.9ZM509.3 347l-63.2-91.9 63.15-91.01c6.33-9.125 1.1-21.74-9.83-23.72l-109-19.7 -19.7-109C368.74.74 356.13-4.49 347 1.84l-91.01 64.04 -91.9-63.154c-9.125-6.34-21.74-1.11-23.72 9.82l-18.78 109.04 -109.04 19.7c-10.927 1.9-16.156 14.6-9.83 22.8l63.15 91.9 -63.15 91.01c-6.34 9.125-1.11 21.74 9.82 23.72l109 19.7 19.7 109c1.97 10.93 14.59 16.16 23.72 9.82l91.01-63.16 91.01 63.15c9.12 6.33 21.75 1.1 23.72-9.83l19.7-109 109-19.7c10.97-1.93 16.17-14.63 9.87-23.73ZM256 383.1c-70.69 0-127.1-57.31-127.1-127.1 0-70.69 57.31-127.1 127.1-127.1 69.79 0 127.1 57.3 127.1 127.1 0 70.7-56.4 127.1-127.1 127.1Z"/></svg>