<svg viewBox="0 0 640 512" xmlns="http://www.w3.org/2000/svg"><path d="M159.1 191.1C78 191.1 11.6 249.61-.8 325.9c.04 5.6 4.16 10.1 9.16 10.1h303.3c4.99 0 8.99-4.5 8.24-9.25 -12.52-76.25-78.82-135.65-160.82-135.65ZM311.5 368H8.36c-5 0-9.13 4.5-8.25 9.25C12.48 453.5 78.87 512 159.098 512c80.22 0 147.4-58.5 159.8-134.8 1.8-4.7-2.4-9.2-7.4-9.2Zm51.4-302.26c-3.51-3.51-9.51-3.26-12.25.75 -45.52 62.76-40.52 150.4 15.88 206.9 56.52 56.51 144.2 61.39 206.1 15.88 4-2.875 4.25-8.88.75-12.25L362.9 65.74Zm230.5-19.13c-56.52-56.51-144.2-61.39-206.1-16 -4.01 2.87-4.26 8.87-.75 12.25l211.3 211.4c3.5 3.5 9.5 3.25 12.25-.75 44.7-62.71 39.8-150.41-16.7-206.9Z"/></svg>