<svg viewBox="0 0 640 512" xmlns="http://www.w3.org/2000/svg"><path d="M352 416h-45.3l18.96-64.1 -54.26-43.4L239.1 416H192c-17.67 0-32 14.31-32 32 0 17.69 14.33 31.99 31.1 31.99h160C369.7 480 384 465.7 384 448c0-17.7-14.3-32-32-32Zm278.8 53.1L354.4 252.4l45.63-156.5H512v32c0 17.69 14.33 32 32 32s32-14.31 32-32v-64c0-17.69-14.33-32-32-32H192c-17.67 0-32 14.31-32 32v36.11L38.81 5.13C28.34-3.09 13.28-1.24 5.11 9.19c-8.17 10.43-6.35 25.54 4.07 33.69l591.1 463.1c4.4 3.46 9.61 5.12 14.8 5.12 7.125 0 14.17-3.17 18.9-9.2 9.11-9.52 7.21-24.62-3.19-32.82ZM300.1 209.9l-82.08-64.33C221.5 140.5 224 134.7 224 128V96h109.3l-33.2 113.9Z"/></svg>