<svg viewBox="0 0 512 512" xmlns="http://www.w3.org/2000/svg"><path d="M128 447.1v-224c0-17.67-14.33-31.1-32-31.1H32c-17.67 0-32 14.33-32 31.1v223.1c0 17.67 14.33 31.1 32 31.1h64c17.7 1.8 32-11.7 32-30.2Zm384-223c0-26.5-21.48-47.98-48-47.98H317.5c22.77-37.91 34.52-80.88 34.52-96.02C352 56.52 333.5 32 302.5 32c-63.13 0-26.36 76.15-108.2 141.6l-16.3 13c-11.8 9.5-17.8 23.4-17.9 37.4 -.03.02 0 0 0 0l-.1 160c0 15.1 7.11 29.33 19.2 38.39l34.14 25.59C241 468.8 274.7 480 309.3 480H368c26.52 0 48-21.47 48-47.98 0-3.64-.49-7.15-1.25-10.55 19.24-6.27 33.24-24.07 33.24-45.47 0-9.15-2.7-17.61-7.14-24.88 22.23-4.12 39.13-23.62 39.13-47.02 0-12.5-4.9-23.78-12.72-32.32 24.92-1.68 44.72-22.28 44.72-47.68Z"/></svg>