<svg viewBox="0 0 448 512" xmlns="http://www.w3.org/2000/svg"><path d="M394.1 212.8c-20.04 27.67-28.07 60.15-31.18 93.95 -3.75 41.34-8.79 82.46-17.89 122.8l-6.75 29.64c-2.68 12.14-13.29 20.78-25.39 20.78 -12 0-22.39-8.32-25.29-20.23l-29.57-121.2C254.1 322.6 240.1 311.4 224 311.4c-16.18 0-30.21 11.26-34.07 27.23l-29.57 121.2c-2.9 11.92-13.39 20.23-25.29 20.23 -12.21 0-22.71-8.64-25.5-20.78l-6.65-29.64c-9.11-40.36-14.14-81.48-17.1-122.8 -3.9-34.74-11.93-66.34-31.97-94.04 -18.75-25.92-27.11-60.15-18.43-96.57 9.42-39.59 40.39-71.75 78.85-82.03 20.14-5.25 39.54-.44 57.32 9.07l86.14 56.54c6.64 4.375 15.11 1.86 18.96-4.27 4.07-6.46 2.25-15.09-4.18-19.36L248.3 60.32c3-1.54 6.21-2.74 9-4.82 22.39-16.84 48.75-28.65 76.39-21.33 38.46 10.28 69.43 42.43 78.85 82.03 8.65 36.48.35 70.78-18.45 96.58Z"/></svg>