<svg viewBox="0 0 448 512" xmlns="http://www.w3.org/2000/svg"><path d="M407.8 42.09c7.53-6.57 10.22-17.12 6.68-26.5C410.09 6.21 401.09 0 391.09 0L24.15.03c-13 0-23.66 10.38-24 23.38 -.71 26.9 1.18 50.8 4.78 72.56h353.9c9.05-15.22 24.55-32.64 48.95-53.89ZM387.7 195.9c-22.02-25.33-38.96-44.87-39-67.93H12.05c11.47 40.4 30.38 71.34 53.15 96H411c-7.6-9.87-15.6-19.17-23.3-28.07Zm-84.1 289.4c-1.125 10.12 4.24 19.84 13.44 24.28 3.26 1.62 6.86 2.42 10.36 2.42 6.21 0 12.34-2.41 16.94-7 43.73-43.61 73.32-83.63 89.35-121h-148.6c15.71 24.6 23.61 56 18.51 101.3Zm128.1-230.2H100.5c26.6 21.2 55.3 36.5 81.9 50.7 28.14 15.01 54.04 28.9 74.73 46.14h186.8C446.4 341.1 447.1 330.4 448 320c0-24.6-6.6-45.4-16.3-64.9Z"/></svg>