<svg viewBox="0 0 576 512" xmlns="http://www.w3.org/2000/svg"><path d="M160.9 59.01c-11.6-6.41-26.2-2.25-32.6 9.38C117.6 87.6 112 109.4 112 131.4c0 19.03 4.03 37.44 11.98 54.62 4.04 8.77 12.73 13.93 21.8 13.93 3.375 0 6.79-.72 10.05-2.22 12.07-5.54 17.27-20.64 11.67-31.84 -5-10.8-7.5-22.4-7.5-34.5 0-13.93 3.54-27.69 10.25-39.81 6.45-11.55 2.25-26.17-9.35-32.58ZM62.61 2.36C46.17-4.33 27.58 3.67 20.95 20.01 7.04 54.353 0 90.68 0 127.09c0 38.2 7.047 74.6 20.95 108.9 5.03 12.5 17.02 20 29.68 20 3.98 0 8.06-.7 11.98-2.3 16.39-6.7 24.3-25.3 17.66-41.7 -10.8-26.7-16.27-54.9-16.27-84 0-29.06 5.46-57.3 16.27-83.99C86.91 27.633 79 8.97 62.61 2.35ZM555 20.01C548.39 3.6 529.77-4.3 513.34 2.35c-16.39 6.625-24.3 25.28-17.66 41.65 10.82 26.69 16.32 54.94 16.32 83.99 0 29.06-5.47 57.31-16.27 83.1 -6.63 17.3 1.27 35.9 17.67 42.6 3.9 1.6 8 2.3 12 2.3 12.66 0 24.64-7.57 29.67-20 13.03-34.3 20.93-70.7 20.93-108.9 0-36.41-7.9-72.74-21-107.08Zm-134.8 38.21c-12.03 5.56-17.28 19.81-11.72 31.84 5.02 10.83 7.52 22.43 7.52 34.53 0 13.94-3.55 27.69-10.25 39.81 -6.43 11.59-2.22 26.22 9.375 32.62 3.68 2.03 7.67 3 11.61 3 8.43 0 16.64-4.47 21.02-12.37 10.64-19.26 16.24-41.06 16.24-63.06 0-19.03-4.04-37.43-11.98-54.62 -5.52-12.09-19.92-17.28-31.82-11.75Zm-118.4 7.22c-41.3-8.67-77.8 22.68-77.8 62.55 0 23.63 12.95 44.04 32 55.12v296.9c0 17.67 14.33 32 32 32s32-14.33 32-32V183.09c23.25-13.54 37.42-40.96 30.03-71.18C344.4 88.9 325 70.3 301.8 65.44Z"/></svg>