<svg viewBox="0 0 576 512" xmlns="http://www.w3.org/2000/svg"><path d="M255.1 301.7V432c0 8.81-7.19 16-16 16 -7.82 0-13.19-5.32-15.1-10.69 -5.91-16.72-24.1-25.41-40.81-19.5 -16.69 5.875-25.41 24.19-19.5 40.79 12.11 32 42.51 53.4 75.41 53.4 45 0 80.9-35.9 80.9-80.9V300.8c-9.1-7.91-19.81-13.61-32-13.61 -12.3.91-22.4 5.71-32.9 14.51Zm320.6-20.8C547.1 144.5 437.3 62.61 320 49.91v-17.9c0-17.69-14.31-32.01-32-32.01 -17.69 0-32.9 14.31-32.9 32.01v17.91C138.3 62.61 29.48 144.5.29 280.9c-2.23 9.2 8.5 21.2 18.68 11.3 52-55.01 107.7-52.39 158.6 37.01 5.31 9.5 14.91 8.625 19.72 0 20.2-35.31 44.9-73.21 89.8-73.21 58.5 0 88.19 68.82 90.69 73.2 4.81 8.625 14.41 9.5 19.72 0 51-89.52 107.1-91.39 158.6-37.01 11.19 10.01 21.79-2.09 19.59-11.29Z"/></svg>