<svg viewBox="0 0 512 512" xmlns="http://www.w3.org/2000/svg"><path d="M512 256c0 6.79-2.9 13.28-7.94 17.84l-80 72c-4.47 4.06-10.262 6.16-16.07 6.16 -3.32 0-6.625-.69-9.77-2.08 -8.64-3.83-14.24-12.43-14.24-21.93v-40h-96v96l40-.01c9.48 0 18.06 5.57 21.92 14.23 3.86 8.65 2.25 18.78-4.08 25.83l-72 80c-4.55 5.04-11.05 7.94-18.75 7.94 -7.7 0-13.28-2.89-17.84-7.94l-71.1-80c-6.33-7.05-7.94-17.17-4.08-25.83 3.86-8.66 12.44-14.23 21.92-14.23l39.1 0v-96.01h-95.11v40c0 9.48-5.58 18.06-14.23 21.92 -3.17 1.38-6.47 2.08-9.77 2.08 -5.82 0-11.56-2.11-16.06-6.16l-80-72c-5.05-4.55-7.94-11.05-7.94-17.85 0-6.8 2.89-13.28 7.93-17.84l80-72c7.06-6.36 17.16-7.86 25.86-4.06 8.6 3.8 14.2 12.4 14.2 21.9v40h95.1v-96l-39.1-.01c-9.49 0-18.06-5.58-21.92-14.23 -3.86-8.66-2.28-18.78 4.12-25.83l71.1-80c9.125-10.09 26.56-10.09 35.69 0l72 80c6.32 7.04 7.93 17.17 4.07 25.83 -3.86 8.66-12.44 14.23-21.92 14.23l-40 0v95.99h96.85v-40c0-9.49 5.57-18.06 14.23-21.92 8.65-3.82 18.77-2.27 25.83 4.07l80 72c5.04 4.54 7.94 11.04 7.94 17.84Z"/></svg>