<svg viewBox="0 0 640 512" xmlns="http://www.w3.org/2000/svg"><path d="M496 224c-79.63 0-144 64.38-144 144s64.38 144 144 144 144-64.38 144-144 -64.4-144-144-144Zm48 160h-54.25c-5.35 0-9.75-4.4-9.75-9.7V304c0-8.84 7.16-16 16-16 8.83 0 16 7.16 16 16v48h32c8.83 0 16 7.16 16 15.1 0 7.93-7.2 16.9-16 16.9ZM224 256c70.7 0 128-57.31 128-128C352 57.31 294.7 0 224 0 153.3 0 96 57.31 96 128c0 70.69 57.3 128 128 128Zm96 112c0-19.3 3.22-37.82 8.96-55.2 -17.07-5.6-35.37-8.8-54.27-8.8h-101.4C77.6 304-.01 381.7-.01 477.4c0 19.1 15.52 34.6 34.66 34.6h360.34c-45.3-31.8-75-84.4-75-144Z"/></svg>