<svg viewBox="0 0 640 512" xmlns="http://www.w3.org/2000/svg"><path d="M592 288h-16v-75.3c0-41.84-30.03-80.04-71.66-84.27C456.5 123.6 416 161.1 416 208v80h-16c-26.4 0-48 21.6-48 48v128c0 26.4 21.6 48 48 48h192c26.4 0 48-21.6 48-48V336c0-26.4-21.6-48-48-48Zm-96 144c-17.62 0-32-14.38-32-32 0-17.62 14.38-32 32-32 17.62 0 32 14.38 32 32 0 17.62-14.4 32-32 32Zm32-144h-64v-80c0-17.62 14.38-32 32-32 17.62 0 32 14.38 32 32v80Zm-304-32c70.7 0 128-57.31 128-128C352 57.31 294.7 0 224 0 153.3 0 96 57.31 96 128c0 70.69 57.3 128 128 128Zm96 80c0-8.68 1.73-16.87 4.3-24.7 -15.71-4.7-32.41-7.3-49.61-7.3h-101.4C77.6 304-.01 381.7-.01 477.4c0 19.1 15.52 34.6 34.66 34.6h301.7c-10.06-13.4-16.36-29.9-16.36-48V336Z"/></svg>