<svg viewBox="0 0 640 512" xmlns="http://www.w3.org/2000/svg"><path d="M512 160c44.18 0 80-35.82 80-80s-35.8-80-80-80c-44.18 0-80 35.82-80 80s35.8 80 80 80Zm-21.9 32c-12.8 0-24.88 3.03-35.86 8.24 .56 5.26 1.56 10.36 1.56 15.76 0 33.71-12.78 64.21-33.16 88h199.7c9.76 0 17.66-8.4 17.66-18.7 0-51.5-39.4-93.3-88.1-93.3h-61.8Zm-93.5 93.5c16.8-18.3 27.2-42.6 27.2-69.5 0-57.44-46.54-104-103.1-104 -35.93 0-67.07 18.53-85.59 46.3l-42.01-32.2c9.3-13 14.9-28.86 14.9-46.1 0-44.18-35.8-80-80-80 -24.2 0-45.48 10.97-60.04 27.95L38.81 5.1c-4.4-3.44-9.62-5.11-14.78-5.11 -7.12 0-14.19 3.15-18.91 9.18 -8.19 10.43-6.38 25.53 4.06 33.702l591.1 463.1c10.5 8.2 25.56 6.32 33.69-4.08 8.18-10.44 6.375-25.53-4.07-33.7L396.58 285.481ZM270.1 352C191.6 352 128 411.7 128 485.3c0 14.8 12.7 26.7 28.4 26.7h327.2c11.62 0 21.54-6.59 25.95-15.96L325.7 352h-55.6Zm-84-108.8L121.6 192H88.08C39.44 192 0 233.8 0 285.3 0 295.6 7.88 304 17.62 304h199.5c-14.72-17.2-25.32-37.9-31.02-60.8Z"/></svg>