<svg viewBox="0 0 640 512" xmlns="http://www.w3.org/2000/svg"><path d="M425.1 482.6c-2.31-1.25-4.58-2.56-6.81-3.93l-7.82 4.49c-6.01 3.5-12.83 5.35-19.75 5.35 -10.71 0-21.13-4.5-28.97-12.75 -18.41-20.09-32.29-44.15-40.22-69.9 -5.36-18.06 2.34-36.87 17.83-45.24l8.01-4.67c-.07-2.63-.07-5.25 0-7.86l-7.66-4.47c-12.3-6.96-19.4-19.66-19.64-33.38 -14.49-3.96-29.69-6.26-45.39-6.26h-101.4c-95.69 0-173.3 77.7-173.3 173.4 0 19.1 15.52 34.6 34.66 34.6h378.64c5.72 0 10.9-1.73 15.66-4.19 -2.28-4.99-3.86-10.3-3.86-16.06v-9.16ZM224 256c70.7 0 128-57.31 128-128C352 57.31 294.7 0 224 0 153.3 0 96 57.31 96 128c0 70.69 57.3 128 128 128Zm386.5 117.3c2.625-14 2.625-28.5 0-42.5l25.75-15c3-1.625 4.375-5.125 3.375-8.5 -6.75-21.5-18.25-41.13-33.25-57.38 -2.25-2.5-6-3.125-9-1.375l-25.75 14.88c-10.88-9.25-23.38-16.5-36.88-21.25V212.3c0-3.375-2.5-6.375-5.75-7 -22.25-5-45-4.875-66.25 0 -3.25.625-5.625 3.625-5.625 7v29.88c-13.5 4.75-26 12-36.88 21.25L394.4 248.5c-2.875-1.75-6.625-1.125-9 1.375 -15 16.25-26.5 35.88-33.13 57.38 -1 3.375.37 6.875 3.25 8.5l25.75 15c-2.5 14-2.5 28.5 0 42.5l-25.75 15c-3 1.625-4.25 5.125-3.25 8.5 6.625 21.5 18.13 41 33.13 57.38 2.375 2.5 6 3.125 9 1.375l25.88-14.88c10.88 9.25 23.38 16.5 36.88 21.25v29.88c0 3.375 2.375 6.375 5.625 7 22.38 5 45 4.875 66.25 0 3.25-.625 5.75-3.625 5.75-7v-29.88c13.5-4.75 26-12 36.88-21.25l25.75 14.88c2.875 1.75 6.75 1.125 9-1.375 15-16.25 26.5-35.88 33.25-57.38 1-3.375-.38-6.875-3.375-8.5l-25.79-14.96ZM496 400.5c-26.75 0-48.5-21.75-48.5-48.5s21.75-48.5 48.5-48.5 48.5 21.75 48.5 48.5 -21.7 48.5-48.5 48.5Z"/></svg>