<svg viewBox="0 0 640 512" xmlns="http://www.w3.org/2000/svg"><path d="M274.7 304H173.3c-95.69 0-173.3 77.6-173.3 173.3 0 19.2 15.52 34.7 34.66 34.7h378.7c19.14 0 34.64-15.5 34.64-34.7 0-95.7-77.6-173.3-173.3-173.3ZM224 256c70.7 0 128-57.31 128-128C352 57.31 294.7 0 224 0 153.3 0 96 57.31 96 128c0 70.69 57.3 128 128 128Zm353.9-32.9l47.03-47.03c9.375-9.375 9.375-24.56 0-33.94 -9.375-9.38-24.56-9.375-33.94 0L544 190.1l-47.03-47.03c-9.375-9.375-24.56-9.375-33.94 0 -9.38 9.375-9.375 24.56 0 33.94l47.03 47.03 -47.03 47.03c-9.375 9.375-9.375 24.56 0 33.94 9.37 9.37 24.56 9.38 33.94 0L544 257.9l47.03 47.03c9.37 9.37 24.56 9.38 33.94 0 9.375-9.375 9.375-24.56 0-33.94L577.9 223.1Z"/></svg>