<svg viewBox="0 0 448 512" xmlns="http://www.w3.org/2000/svg"><path d="M224 304c70.75 0 128-57.25 128-128V65.88c0-13.38-8.25-25.38-20.75-30L246.5 4.12C239.3 1.37 231.6-.01 224-.01c-7.6 0-15.2 1.375-22.5 4.12l-84.7 31.75c-12.5 4.62-20.8 16.62-20.8 30v110.12c0 70.8 57.3 128 128 128ZM184 71.63c0-2.75 2.25-5 5-5h21.62V45c0-2.75 2.25-5 5-5h16.75c2.75 0 5 2.25 5 5v21.62H259c2.75 0 5 2.25 5 5v16.75c0 2.75-2.25 5-5 5h-21.62V115c0 2.75-2.25 5-5 5H215.6c-2.75 0-5-2.25-5-5V93.38H189c-2.75 0-5-2.25-5-5V71.63ZM144 160h160v16c0 44.1-35.9 80-80 80s-80-35.9-80-80v-16Zm183.2 152.8L224 416 120.8 312.8C50.87 335.1 0 400.05 0 477.4 0 496.5 15.52 512 34.66 512H413.3c19.14 0 34.66-15.46 34.66-34.61C447.1 400.1 397.1 335.1 327.2 312.8Z"/></svg>