<svg viewBox="0 0 640 512" xmlns="http://www.w3.org/2000/svg"><path d="M512 160c44.18 0 80-35.82 80-80s-35.8-80-80-80c-44.18 0-80 35.82-80 80s35.8 80 80 80Zm-384 0c44.18 0 80-35.82 80-80s-35.8-80-80-80C83.82 0 48 35.82 48 80c0 44.18 35.82 80 80 80Zm191.9 160c57.41 0 103.1-46.56 103.1-104s-46.54-104-103.1-104c-57.41 0-103.1 46.56-103.1 104 -.9 57.4 45.7 104 103.1 104Zm48.1 80c0-16.69 3.39-32.46 8.61-47.36 -2.32-.14-4.42-.64-6.72-.64h-99.8c-78.5 0-142.1 59.7-142.1 133.3 0 14.8 12.7 26.7 28.4 26.7h266.1c-33-26.4-54.5-66.5-54.5-112ZM183.9 216c0-5.45.98-10.63 1.6-15.91 -10.91-5.99-22.91-8.09-35.61-8.09H88.07C39.43 192-.01 233.8-.01 285.3c0 10.3 7.887 18.7 17.62 18.7h199.5c-20.42-23.8-33.22-54.3-33.22-88Zm368-24h-61.84c-12.8 0-24.88 3.03-35.86 8.24 .6 5.26 1.6 10.36 1.6 15.76 0 21.47-5.625 41.38-14.65 59.34C462.2 263.4 486.1 256 512 256c42.48 0 80.27 18.74 106.6 48h3.75c9.74 0 17.64-8.4 17.64-18.7 0-51.5-39.4-93.3-88.1-93.3Zm66.2 174.7c-5.03-16.01-13.59-30.62-24.75-42.71 -1.68-1.87-4.47-2.33-6.7-1.03l-19.17 11.07c-8.1-6.89-17.4-12.28-27.45-15.82v-23.12c0-2.52-1.87-4.75-4.29-5.22 -16.56-3.73-33.5-3.63-49.32 0 -1.53 1.31-3.33 3.61-3.33 5.21v22.24c-10.05 3.53-19.36 8.93-27.45 15.82l-19.26-11.07c-2.14-1.31-4.94-.84-6.7 1.02 -11.17 12.1-19.73 26.71-24.66 42.71 -.75 2.51.27 5.11 2.42 6.32l19.17 11.17c-1.86 10.42-1.86 21.21 0 31.64l-19.17 11.17c-2.24 1.2-3.17 3.81-2.42 6.32 4.93 16.01 13.49 30.52 24.66 42.71 1.76 1.86 4.46 2.32 6.69 1.02l19.26-11.07c8.09 6.88 17.4 12.28 27.45 15.82v22.24c0 2.51 1.77 4.74 4.18 5.21 16.66 3.72 33.5 3.62 49.32 0 2.42-.47 4.28-2.7 4.28-5.22v-22.24c10.05-3.54 19.36-8.94 27.45-15.82l19.17 11.07c2.14 1.3 5.02.83 6.69-1.03 11.17-12.1 19.73-26.7 24.75-42.71 .74-2.52-.28-5.12-2.52-6.33l-19.17-11.17c1.95-10.42 1.95-21.22 0-31.64l19.17-11.17c2.25-.35 3.25-2.95 1.65-5.45ZM512 432c-17.67 0-32-14.33-32-32s14.33-32 32-32 32 14.33 32 32c0 17.7-14.3 32-32 32Z"/></svg>