<svg viewBox="0 0 640 512" xmlns="http://www.w3.org/2000/svg"><path d="M351.8 367.3v-44.1c-23.3-12.5-49.4-19.2-77.1-19.2H173.3C77.57 304 0 381.65 0 477.4 0 496.5 15.52 512 34.66 512h378.7c11.86 0 21.82-6.34 28.07-15.43L379.78 435c-18.08-18.1-27.98-42.1-27.98-67.7ZM224 256c70.7 0 128-57.31 128-128C352 57.31 294.7 0 224 0 153.3 0 96 57.31 96 128c0 70.69 57.3 128 128 128Zm406.6 108.8l-90.3-90c-12-12-28.3-18.8-45.3-18.8h-79.23c-17.75 0-31.99 14.25-31.99 32l.01 79.2c0 17 6.64 33.15 18.65 45.15l90.31 90.27c12.5 12.5 32.74 12.5 45.24 0l92.49-92.5c12.61-12.52 12.61-32.82.11-45.32Zm-182.8-20.9c-13.25 0-24-10.62-24-24 0-13.25 10.75-24 24-24 13.38 0 24 10.75 24 24s-10.7 24-24 24Z"/></svg>