<svg viewBox="0 0 640 512" xmlns="http://www.w3.org/2000/svg"><path d="M224 256c70.7 0 128-57.31 128-128C352 57.31 294.7 0 224 0 153.3 0 96 57.31 96 128c0 70.69 57.3 128 128 128Zm50.7 48H173.3c-95.69 0-173.3 77.6-173.3 173.3 0 19.2 15.52 34.7 34.66 34.7h378.7c19.14 0 34.64-15.5 34.64-34.7 0-95.7-77.6-173.3-173.3-173.3ZM616 200h-48v-48c0-13.2-10.7-24-24-24s-24 10.75-24 24v48h-48c-13.2 0-24 10.8-24 24s10.75 24 24 24h48v48c0 13.3 10.8 24 24 24s24-10.75 24-24v-48h48c13.3 0 24-10.7 24-24s-10.7-24-24-24Z"/></svg>