<svg viewBox="0 0 640 512" xmlns="http://www.w3.org/2000/svg"><path d="M223.1 256c70.7 0 128-57.31 128-128s-57.3-128-128-128C153.3 0 96 57.31 96 128c0 70.69 57.3 128 127.1 128Zm51.6 48H173.3c-95.69 0-173.3 77.7-173.3 173.4 0 19.1 15.52 34.6 34.66 34.6h286.4c-1.25-5.54-1.43-11.31-.29-17.04l14.28-71.41c1.94-9.73 6.67-18.56 13.68-25.56l45.72-45.72C363.29 322.4 321.19 304 274.69 304Zm96.7 116.6c-2.52 2.51-4.23 5.71-4.93 9.2l-14.28 71.41c-1.26 6.28 4.29 11.84 10.59 10.59l71.42-14.29c3.48-.7 6.68-2.41 9.19-4.93l125.3-125.3 -72.01-72.01 -125.3 125.31Zm258.1-164.9l-21.1-21.11c-14.06-14.06-36.85-14.06-50.91 0l-38.13 38.14 72.01 72.01 38.13-38.13c14-14.11 14-36.91 0-50.91Z"/></svg>