<svg viewBox="0 0 640 512" xmlns="http://www.w3.org/2000/svg"><path d="M622.3 271.1l-115.1-45.01c-4.125-1.63-12.62-3.76-22.25 0L369.8 271.1c-10.8 4.1-17.8 14-17.8 24 0 111.6 68.75 188.8 132.9 213.9 9.625 3.75 18 1.625 22.25 0C558.4 489.9 640 420.5 640 295.1c0-10-7-19.9-17.7-24ZM496 462.4V273.2l95.5 37.38C585.9 397.8 530.6 446 496 462.4ZM224 256c70.7 0 128-57.31 128-128C352 57.31 294.7 0 224 0 153.3 0 96 57.31 96 128c0 70.69 57.3 128 128 128Zm96.6 54.3c-14.7-4-30-6.3-45.9-6.3H173.3c-95.69 0-173.3 77.7-173.3 173.4 0 19.1 15.52 34.6 34.66 34.6H413.3c3.14 0 5.96-1.01 8.86-1.79 -52.47-40.411-98.07-109.911-101.57-199.911Z"/></svg>