<svg viewBox="0 0 640 512" xmlns="http://www.w3.org/2000/svg"><path d="M368 176C368 78.8 289.2 0 192 0 94.8 0 16 78.8 16 176c0 86.26 62.1 157.9 144 172.1v35.05h-48c-8.84 0-16 7.16-16 16v32c0 8.83 7.16 16 16 16h48v48c0 8.83 7.16 16 16 16h32c8.83 0 16-7.17 16-16v-48h48c8.83 0 16-7.17 16-16v-32c0-8.84-7.17-16-16-16h-48V348.1c81.9-14.2 144-85.8 144-172.1Zm-176 96c-52.93 0-96-43.07-96-96 0-52.94 43.07-96 96-96 52.94 0 96 43.06 96 96 0 52.9-43.1 96-96 96Zm432-96C624 78.8 545.2 0 448 0c-39.02 0-74.95 12.85-104.1 34.34 18.38 19.7 32.94 42.91 42.62 68.58C403.2 88.83 424.5 80 448 80c52.94 0 96 43.06 96 96 0 52.93-43.06 96-96 96 -23.57 0-44.91-8.87-61.63-23.02 -9.58 25.45-23.95 48.54-42.23 68.23C365.1 332.7 389.3 344 416 348.1V384h-48c-8.84 0-16 7.16-16 16v32c0 8.83 7.16 16 16 16h48v48c0 8.83 7.16 16 16 16h32c8.83 0 16-7.17 16-16v-48h48c8.83 0 16-7.17 16-16v-32c0-8.84-7.17-16-16-16h-48v-35.05C561.9 333.9 624 262.3 624 176Z"/></svg>