<svg viewBox="0 0 640 512" xmlns="http://www.w3.org/2000/svg"><path d="M256 384h-48v-35.05C289.9 333.9 352 262.3 352 176 352 78.8 273.2 0 176 0 78.8 0 0 78.8 0 176c0 86.26 62.1 157.9 144 172.1v35.05H96c-8.84 0-16 7.16-16 16v32c0 8.83 7.16 16 16 16h48v48c0 8.83 7.16 16 16 16h32c8.83 0 16-7.17 16-16v-48h48c8.83 0 16-7.17 16-16v-32c0-7.95-7.2-15.15-16-15.15Zm-80-112c-52.93 0-96-43.07-96-96 0-52.94 43.07-96 96-96 52.94 0 96 43.06 96 96 0 52.9-43.1 96-96 96ZM624 0H511.6c-21.38 0-32.09 25.85-16.97 40.97l29.56 29.56 -24.55 24.55c-29.97-20.66-64.81-31.05-99.74-31.05 -15.18 0-30.42 2.22-45.19 6.13 13.55 22.8 22.82 48.36 26.82 75.67 6.08-1.19 12.27-1.79 18.45-1.79 24.58 0 49.17 9.357 67.88 28.07 37.43 37.43 37.43 98.33 0 135.8 -18.71 18.71-43.3 28.07-67.88 28.07 -23.55 0-46.96-8.84-65.35-26.01 -15.92 18.84-34.93 35.1-56.75 47.35 11.45 5.89 20.17 16.3 23.97 28.82 29.65 19.85 63.85 29.85 98.15 29.85 45.04 0 90.08-17.18 124.5-51.55 60.99-60.99 67.73-155.6 20.47-224.1l24.55-24.55 29.56 29.56c4.88 4.88 10.9 7.07 16.8 7.07 12.32-.04 24.12-9.64 24.12-24.04V15.98c0-8.84-7.2-16-16-16Z"/></svg>