<svg viewBox="0 0 640 512" xmlns="http://www.w3.org/2000/svg"><path d="M495.1 96c-53.13 0-102 29.25-127 76.13 -25 46.88-22.25 103.8 7.25 147.9H263.7c36.63-54.88 31.25-127.8-13-176.8 -44.38-48.87-116.4-61.37-174.6-30.25 -58.2 31.12-87.88 97.88-71.75 162 16 64 73.63 108.1 139.6 108.1h352C575.5 384 640 319.5 640 240c0-79.5-64.5-144-144.9-144ZM63.99 240c-.001-44.12 35.88-80 80-80s80 35.88 80 80 -35.88 79.1-80 79.1 -80-35-80-79.1Zm431.11 80c-44.13 0-80-35.88-80-79.1 0-43.22 35.88-80 80-80s80 35.88 80 80 -35 79.1-80 79.1Z"/></svg>