<svg viewBox="0 0 448 512" xmlns="http://www.w3.org/2000/svg"><path d="M412.6 181.9c-10.28-8.35-25.41-6.875-33.75 3.4 -8.41 10.25-6.91 25.37 3.375 33.78 11.27 9.31 17.77 22.714 17.77 36.91 0 14.19-6.5 27.62-17.81 36.87 -10.28 8.4-11.78 23.53-3.375 33.78 4.71 5.81 11.62 8.81 18.56 8.81 5.34 0 10.75-1.79 15.19-5.41 22.53-18.46 35.435-45.36 35.435-74.06 0-28.7-12.9-55.6-35.4-74.1ZM301.2 34.84c-11.5-5.19-25.01-3.12-34.43 5.25L131.8 159.99H48c-26.51 0-48 21.49-48 47.1v95.1c0 26.51 21.49 47.1 48 47.1h83.84l134.9 119.9c5.96 8 13.56 10.8 21.26 10.8 4.43 0 8.95-.94 13.16-2.84 11.54-5.17 18.84-16.57 18.84-29.17v-384c0-12.59-7.3-24.9-18.8-29.16Z"/></svg>