<svg viewBox="0 0 640 512" xmlns="http://www.w3.org/2000/svg"><path d="M576 64H64C28.8 64 0 92.8 0 128v256c0 35.2 28.8 64 64 64l128.3 0c25.18 0 48.03-14.77 58.37-37.73l27.76-61.65c7.875-17.5 24-28.63 41.63-28.63 17.63 0 33.75 11.13 41.63 28.63l27.75 61.63c10.35 22.98 33.2 37.75 58.4 37.75l128.16-.01c35.2 0 64-28.8 64-64v-256c0-35.2-28.8-64-64-64ZM160 304c-35.38 0-64-28.63-64-64 0-35.37 28.62-63.1 64-63.1 35.38 0 64 28.62 64 63.1 0 34.48-28.6 64-64 64Zm320 0c-35.38 0-64-28.63-64-64 0-35.37 28.62-63.1 64-63.1 35.38 0 64 28.62 64 63.1 0 34.48-28.6 64-64 64Z"/></svg>