<svg viewBox="0 0 384 512" xmlns="http://www.w3.org/2000/svg"><path d="M352 96h-32V80c0-8.84-7.2-16-16-16h-32c-8.8 0-16 7.16-16 16v16h-32V80c0-8.84-7.2-16-16-16h-32c-8.8 0-16 7.16-16 16v16h-48V23.1c0-12.36-10.7-23.1-24-23.1s-24 10.74-24 23.1V96H32c-17.6 0-32 14.4-32 32v178.7c0 8.48 3.37 16.62 9.371 22.62L31.991 352v112c0 26.5 21.49 48 48 48h224c26.51 0 48-21.49 48-48V352l22.63-22.63c5.97-5.97 9.37-14.17 9.37-22.67V128c0-17.6-14.4-32-32-32Zm-64 216c0 4.4-3.6 8-8 8H104c-4.37 0-8-3.6-8-8v-16c0-4.4 3.63-8 8-8h176c4.4 0 8 3.6 8 8v16Zm0-64c0 4.4-3.6 8-8 8H104c-4.37 0-8-3.6-8-8v-16c0-4.4 3.63-8 8-8h176c4.4 0 8 3.6 8 8v16Zm0-64c0 4.4-3.6 8-8 8H104c-4.37 0-8-3.6-8-8v-16c0-4.4 3.63-8 8-8h176c4.4 0 8 3.6 8 8v16Z"/></svg>