<svg viewBox="0 0 512 512" xmlns="http://www.w3.org/2000/svg"><path d="M3.682 149.1l49.638 21.6 20.7 49.6c1.01 2.04 3.69 3.69 5.97 3.69 0 0-.01 0 0 0 2.27-.02 4.93-1.67 5.94-3.7l20.72-49.63 49.62-20.71c2.02-1.01 3.68-3.69 3.69-5.95 -.88-2.32-1.68-5.02-3.68-6.02l-49.4-20.6 -.4-.4 -20.56-49.3c-1.01-2.04-3.67-3.68-5.94-3.7 -.01 0 0 0 0 0 -2.28 0-4.97 1.64-5.99 3.69l-20.7 49.6 -49.638 20.7c-2.03 1.1-3.69 3.7-3.69 6s1.65 4.9 3.682 5.1ZM511.1 368c-.01-2.28-1.66-4.95-3.69-5.97l-49.57-20.67 -20.77-49.67c-.18-2-2.78-3.7-5.08-3.7 -2.29 0-4.95 1.65-5.97 3.69l-20.7 49.63 -49.64 20.71c-2.03 1.01-3.69 3.68-3.69 5.95 0 2.26 1.66 4.95 3.68 5.96l49.57 20.67 20.77 49.67c1.06 2 3.66 3.7 5.96 3.7 2.27 0 4.94-1.66 5.96-3.7l20.69-49.63 49.65-20.71c2-1.07 2.8-3.67 2.8-5.97Zm-304-304l12.42 29.78C221 95.01 222.6 96 223.1 96c.5 0 2.96-1 3.57-2.22l12.42-29.79 29.78-12.42c1.21-.61 2.21-2.22 2.21-3.58 0-1.37-1-2.97-2.22-3.58l-29.78-12.43 -11.5-29.781c-1.5-1.23-2.2-2.22-4.5-2.22s-2.1.99-2.7 2.219l-13.3 29.781 -28.9 12.42c-2.1.61-2.2 2.21-2.2 3.58 0 1.35.99 2.96 2.21 3.57l28.89 12.42Zm192 127.1c8.875 0 15.1-7.13 15.1-16v-28l91.87-101.7c5.75-6.38 5.5-15.1-.5-22.12L487.79 4.77c-6.125-6.125-15.75-6.38-22.12-.63L186.59 255.09h-42.6c-8.875 0-15.1 7.12-15.1 15.1v36.88l-117.5 106c-13.5 12.25-14.14 33.34-1.15 46.34l41.4 41.41c12.1 12.1 34.13 12.36 46.37-1.14l279.2-309.5h21.875Z"/></svg>