<svg viewBox="0 0 576 512" xmlns="http://www.w3.org/2000/svg"><path d="M549.8 237.5c-31.23-5.72-46.84-20.06-47.13-20.31 -12.27-12.19-32.37-12.09-44.97-.39 -1 .93-25.14 23-73.73 23s-72.73-22.06-73.38-22.62c-12.19-12.28-32.29-12.08-44.89-.38 -1 .93-25.14 23-73.73 23s-72.67-22-73.37-22.6c-12.2-12.3-32.25-12.2-44.86-.3 -.65.5-16.26 14.9-47.5 20.6C8.86 240.68-2.65 257.34.52 274.72 3.7 292.1 20.3 303.81 37.77 300.44c25.33-4.64 44.72-13.34 58.19-21.24 19.5 11.53 51.47 24.68 96.04 24.68 44.55 0 76.49-13.12 96-24.65 19.52 11.53 51.45 24.59 96 24.59 44.58 0 76.55-13.09 96.05-24.62 13.47 7.93 32.86 16.62 58.19 21.25 17.56 3.375 34.06-8.35 37.25-25.72 3.21-17.33-8.29-34.03-25.69-37.23Zm0 144.2c-31.23-5.72-46.84-20.06-47.13-20.31 -12.22-12.19-32.31-12.12-44.91-.375 -1.06.88-25.16 22.98-73.76 22.98 -48.6 0-72.73-22.06-73.38-22.62 -12.22-12.25-32.3-12.12-44.89-.375 -1.03.89-25.13 22.99-73.73 22.99 -48.6 0-72.73-22.06-73.38-22.62 -12.22-12.25-32.28-12.16-44.89-.35 -.66.59-16.27 14.94-47.5 20.66C8.85 384.86-2.66 401.52.51 418.9c3.2 17.38 19.8 29.08 37.27 25.68 25.32-4.6 44.71-13.3 58.18-21.2 19.5 11.53 51.51 24.62 96.08 24.62 44.55 0 76.45-13.06 95.96-24.59 19.5 11.47 51.5 24.57 96.1 24.57 44.58 0 76.5-13.09 95.1-24.62 13.47 7.93 32.86 16.62 58.19 21.25 18.41 3.37 34.91-8.33 38.11-25.73 3.2-17.4-8.3-34-25.7-37.2ZM37.78 156.4c25.33-4.625 44.72-13.31 58.19-21.25 19.5 11.53 51.47 24.68 96.04 24.68 44.55 0 76.49-13.12 96-24.65 19.52 11.53 51.45 24.59 96 24.59 44.58 0 76.55-13.09 96.05-24.62 13.47 7.93 32.86 16.62 58.19 21.25 17.56 3.375 34.06-8.35 37.25-25.72 3.17-17.38-8.35-34.03-25.72-37.22 -31.23-5.72-46.84-20.06-47.13-20.31 -12.22-12.19-32.31-12.12-44.91-.375 -1 .93-25.14 23-73.73 23s-72.73-22.06-73.38-22.62c-12.22-12.25-32.3-12.12-44.89-.375 -1 .93-25.14 23-73.73 23s-72.71-22.02-73.41-22.58c-12.2-12.25-32.25-12.16-44.86-.35 -.65.6-16.26 14.94-47.5 20.66C8.86 96.69-2.65 113.35.52 130.73c3.19 17.37 19.79 29.07 37.26 25.67Z"/></svg>