<svg viewBox="0 0 512 512" xmlns="http://www.w3.org/2000/svg"><path d="M510.3 421.9c-5.6-16.75-23.53-25.84-40.47-20.22l-19.38 6.43 -41.7-99.97c-4.85-13.05-16.55-20.15-29.65-20.15h-97.78l-10.4-48h65.11c17.69 0 32-14.31 32-32 0-17.69-14.31-32-32-32h-78.98l-1.45-6.8c-3.8-27.1-28.4-44.4-54.4-40.7 -27.1 3.7-44.5 28-40.7 54.3l23.68 140.4c1.62 16.4 15.42 28.8 31.82 28.8h141.4l44.86 107.9c5.04 12.4 17.04 20.1 29.74 20.1 3.34 0 6.78-.54 10.12-1.66l48-16c16.78-5.55 25.78-23.65 20.18-40.45ZM160 464c-61.76 0-112-50.24-112-112 0-54.25 38.78-99.55 90.06-109.8L130.1 195C56.06 209 0 273.9 0 352c0 88.37 71.63 160 160 160 77.4 0 141.9-54.97 156.8-128h-49.1c-14.8 46.1-57.1 80-107.7 80Zm32-368c26.51 0 48-21.49 48-48s-21.5-48-48-48 -48 21.49-48 48 21.5 48 48 48Z"/></svg>