<svg viewBox="0 0 512 512" xmlns="http://www.w3.org/2000/svg"><path d="M32 192h320c52.94 0 96-43.06 96-96s-43.06-96-96-96h-32c-17.69 0-32 14.31-32 32 0 17.69 14.31 32 32 32h32c17.66 0 32 14.34 32 32s-14.34 32-32 32H32c-17.69 0-32 14.3-32 32s14.31 32 32 32Zm128 128H32c-17.69 0-32 14.31-32 32 0 17.69 14.31 32 32 32h128c17.66 0 32 14.34 32 32s-14.34 32-32 32h-32c-17.69 0-32 14.31-32 32 0 17.69 14.31 32 32 32h32c52.94 0 96-43.06 96-96s-43.1-96-96-96Zm256-96H32c-17.69 0-32 14.3-32 32s14.31 32 32 32h384c17.66 0 32 14.34 32 32s-14.34 32-32 32h-32c-17.69 0-32 14.31-32 32 0 17.69 14.31 32 32 32h32c52.94 0 96-43.06 96-96s-43.1-96-96-96Z"/></svg>