<svg viewBox="0 0 512 512" xmlns="http://www.w3.org/2000/svg"><path d="M507.6 122.8c-2.91-12.09-18.25-16.13-27.04-7.34l-76.55 76.56 -83.1-.01v-83.1l76.55-76.56c8.79-8.79 4.75-24.14-7.34-27.04 -23.69-5.7-49.34-6.12-75.92.24 -61.45 14.7-109.4 66.9-119.2 129.3 -5.21 25.92-2.71 51.82 5.09 75.22l-178.1 178.1c-28.12 28.12-28.12 73.69-.001 101.8 13.16 14.1 31.56 22 49.1 22 17.54 0 36.84-7.04 50.91-21.09l178.1-178.1c23.46 7.73 49.31 10.24 76.17 6 62.41-9.84 114.6-57.8 129.3-119.2 8.12-27.52 7.72-53.12 2.02-76.82ZM80 456c-13.25 0-24-10.75-24-24 0-13.26 10.75-24 24-24s24 10.74 24 24c0 13.3-10.75 24-24 24Z"/></svg>