<svg viewBox="0 0 640 512" xmlns="http://www.w3.org/2000/svg"><path d="M608 32c17.7 0 32 14.33 32 32s-14.3 32-32 32H32C14.33 96 0 81.67 0 64c0-17.67 14.33-32 32-32h576Zm0 384c17.7 0 32 14.3 32 32s-14.3 32-32 32H32c-17.67 0-32-14.3-32-32s14.33-32 32-32h576ZM7.02 167c9.37-9.3 24.57-9.3 33.941 0L96 222.1l55-55.1c9.4-9.3 24.6-9.3 33.1 0 10.2 9.4 10.2 24.6 0 33.1L129.9 256l54.2 55c10.2 9.4 10.2 24.6 0 33.1 -8.5 10.2-23.7 10.2-33.1 0l-55-54.2 -55.03 54.2c-9.37 10.2-24.57 10.2-33.941 0 -9.38-8.5-9.38-23.7 0-33.1l55.03-55L7.01 200.1c-9.38-8.5-9.38-23.7 0-33.1v0ZM320 222.1l55-55.1c9.4-9.3 24.6-9.3 33.1 0 10.2 9.4 10.2 24.6 0 33.1L353.9 256l54.2 55c10.2 9.4 10.2 24.6 0 33.1 -8.5 10.2-23.7 10.2-33.1 0l-55-54.2 -55.9 54.2c-8.5 10.2-23.7 10.2-33.1 0 -9.3-8.5-9.3-23.7 0-33.1l55.1-55L231 200.1c-9.3-8.5-9.3-23.7 0-33.1 9.4-9.3 24.6-9.3 33.1 0l55.9 55.1ZM455 167c9.4-9.3 24.6-9.3 33.1 0l55.9 55.1 55-55.1c9.4-9.3 24.6-9.3 33.1 0 10.2 9.4 10.2 24.6 0 33.1L577.9 256l54.2 55c10.2 9.4 10.2 24.6 0 33.1 -8.5 10.2-23.7 10.2-33.1 0l-55-54.2 -55.9 54.2c-8.5 10.2-23.7 10.2-33.1 0 -9.3-8.5-9.3-23.7 0-33.1l55.1-55L455 200.1c-9.3-8.5-9.3-23.7 0-33.1v0Z"/></svg>