<svg viewBox="0 0 24 24" xmlns="http://www.w3.org/2000/svg"><path fill="none" d="M0 0h24v24H0Z"/><g><path d="M3 2h8v2H3Z"/><path d="M6 11l2 0 0-4 3 0 0-2L3 5l0 2 3 0Z"/><path d="M11.5 16h11v2h-11Z" transform="scale(.99999) rotate(-45 17.0001 17.0001)"/><path d="M14.5 13a1.5 1.5 0 1 0 0 3 1.5 1.5 0 1 0 0-3Z"/><path d="M19.5 18a1.5 1.5 0 1 0 0 3 1.5 1.5 0 1 0 0-3Z"/><path d="M15.5 11c1.38 0 2.5-1.12 2.5-2.5V4h3V2h-4v4.51c-.42-.32-.93-.51-1.5-.51C14.12 6 13 7.12 13 8.5c0 1.38 1.12 2.5 2.5 2.5Z"/><path d="M9.74 15.96l-1.41 1.41 -.71-.71 .35-.35c.98-.98.98-2.56 0-3.54 -.49-.49-1.13-.73-1.77-.73 -.64 0-1.28.24-1.77.73 -.98.98-.98 2.56 0 3.54l.35.35 -1.06 1.06c-.98.98-.98 2.56 0 3.54 .5.5 1.14.74 1.78.74 .64 0 1.28-.24 1.77-.73l1.06-1.06 1.41 1.41 1.41-1.41 -1.41-1.41 1.41-1.41 -1.41-1.43ZM5.85 14.2c.12-.12.26-.15.35-.15 .09 0 .23.03.35.15 .19.2.19.51 0 .71l-.35.35 -.35-.36c-.19-.19-.19-.51 0-.7Zm0 5.65c-.12.12-.26.15-.35.15 -.09 0-.23-.03-.35-.15 -.19-.19-.19-.51 0-.71l1.06-1.06 .71.71 -1.07 1.06Z"/></g></svg>