<svg viewBox="0 0 24 24" xmlns="http://www.w3.org/2000/svg"><path fill="none" d="M0 0h24v24H0V0Z"/><path d="M9 12c1.93 0 3.5-1.57 3.5-3.5C12.5 6.57 10.93 5 9 5 7.07 5 5.5 6.57 5.5 8.5 5.5 10.43 7.07 12 9 12Zm0-5c.83 0 1.5.67 1.5 1.5s-.67 1.5-1.5 1.5 -1.5-.67-1.5-1.5C7.5 7.67 8.17 7 9 7Zm0 6.75c-2.34 0-7 1.17-7 3.5V19h14v-1.75c0-2.33-4.66-3.5-7-3.5ZM4.34 17c.84-.58 2.87-1.25 4.66-1.25s3.82.67 4.66 1.25H4.34Zm11.7-3.19c1.16.84 1.96 1.96 1.96 3.44V19h4v-1.75c0-2.02-3.5-3.17-5.96-3.44ZM15 12c1.93 0 3.5-1.57 3.5-3.5C18.5 6.57 16.93 5 15 5c-.54 0-1.04.13-1.5.35 .63.89 1 1.98 1 3.15s-.37 2.26-1 3.15c.46.22.96.35 1.5.35Z"/></svg>