<svg viewBox="0 0 50 50" xmlns="http://www.w3.org/2000/svg"><g><path d="M25 8a2 2 0 1 0 0 4 2 2 0 1 0 0-4Z"/><path opacity=".3" d="M25 38a2 2 0 1 0 0 4 2 2 0 1 0 0-4Z"/><path opacity=".3" d="M32.5 10a2 2 0 1 0 0 4 2 2 0 1 0 0-4Z"/><path opacity=".3" d="M17.5 36a2 2 0 1 0 0 4 2 2 0 1 0 0-4Z"/><path opacity=".93" d="M17.5 10a2 2 0 1 0 0 4 2 2 0 1 0 0-4Z"/><path opacity=".3" d="M32.5 36a2 2 0 1 0 0 4 2 2 0 1 0 0-4Z"/><path opacity=".65" d="M10 23a2 2 0 1 0 0 4 2 2 0 1 0 0-4Z"/><path opacity=".3" d="M40 23a2 2 0 1 0 0 4 2 2 0 1 0 0-4Z"/><path opacity=".86" d="M12 15.5a2 2 0 1 0 0 4 2 2 0 1 0 0-4Z"/><path opacity=".3" d="M38 30.5a2 2 0 1 0 0 4 2 2 0 1 0 0-4Z"/><path opacity=".44" d="M12 30.5a2 2 0 1 0 0 4 2 2 0 1 0 0-4Z"/><path opacity=".3" d="M38 15.5a2 2 0 1 0 0 4 2 2 0 1 0 0-4Z"/></g></svg>