<svg viewBox="0 0 50 50" xmlns="http://www.w3.org/2000/svg"><g fill-rule="evenodd"><path d="M25 12c-3.53 0-3.98.01-5.36.07 -1.39.06-2.33.28-3.16.6h-.001c-.87.32-1.66.83-2.31 1.5h0c-.67.64-1.18 1.43-1.5 2.3 -.33.82-.54 1.77-.61 3.15 -.07 1.38-.08 1.83-.08 5.36 0 3.53.01 3.97.07 5.36 .06 1.38.28 2.32.6 3.15 .33.85.77 1.58 1.5 2.3h-.001c.64.66 1.43 1.17 2.3 1.5 .82.32 1.77.54 3.15.6 1.38.06 1.83.07 5.36.07 3.53 0 3.97-.02 5.36-.08 1.38-.07 2.32-.29 3.15-.61v0c.86-.33 1.65-.84 2.3-1.5v0c.66-.65 1.17-1.44 1.5-2.31 .32-.83.54-1.78.6-3.16 .06-1.39.07-1.83.07-5.36 0-3.53-.02-3.98-.08-5.36 -.07-1.39-.29-2.33-.61-3.16v-.001c-.33-.87-.84-1.66-1.5-2.31v0c-.65-.67-1.44-1.18-2.31-1.5 -.83-.32-1.78-.54-3.16-.61 -1.39-.07-1.83-.08-5.36-.08m0 2.34c3.471 0 3.88.01 5.253.07 1.26.05 1.95.27 2.41.44 .6.23 1.04.51 1.49.97 .45.45.73.88.97 1.49 .17.45.39 1.14.44 2.41 .06 1.37.07 1.782.07 5.253s-.02 3.88-.08 5.253c-.06 1.26-.27 1.95-.45 2.41v0c-.21.56-.55 1.07-.98 1.49v0c-.42.43-.94.76-1.5.97 -.46.17-1.15.39-2.42.44 -1.37.06-1.782.07-5.253.07s-3.89-.02-5.253-.08c-1.27-.06-1.96-.27-2.42-.45v-.001c-.57-.21-1.08-.55-1.5-.98h-.001c-.44-.42-.77-.94-.98-1.5 -.18-.46-.39-1.15-.45-2.42 -.07-1.37-.08-1.782-.08-5.253s.01-3.89.07-5.253c.05-1.27.27-1.96.44-2.42 .23-.61.51-1.04.97-1.5l0 0c.41-.44.93-.77 1.49-.98 .45-.18 1.14-.39 2.41-.45 1.37-.07 1.782-.08 5.253-.08"/><path d="M25 18v0c-3.87 0-7 3.13-7 7 0 3.86 3.13 7 7 7v0c3.86 0 7-3.14 7-7 0-3.87-3.14-7-7-7m0 11.5v0c-2.49 0-4.5-2.02-4.5-4.5 0-2.49 2.01-4.5 4.5-4.5v0c2.48 0 4.5 2.01 4.5 4.5 0 2.48-2.02 4.5-4.5 4.5m8.7-11.4v-.001c0 .88-.72 1.6-1.6 1.6 -.89 0-1.6-.72-1.6-1.6 -.001-.01-.001-.01 0-.01v-.001c0-.89.71-1.6 1.6-1.6 .88 0 1.6.71 1.6 1.6"/></g></svg>