<svg viewBox="0 0 24 24" xmlns="http://www.w3.org/2000/svg"><path fill="none" d="M0 0h24v24H0Z"/><path d="M19 21H5v1 0c0 .55-.45 1-1 1H3v0c-.56 0-1-.45-1-1V12l2.417-4.029v0c.36-.61 1.01-.98 1.71-.98h11.73v0c.7-.01 1.35.36 1.71.97l2.41 4.02v10 0c0 .55-.45 1-1 1h-1v0c-.56 0-1-.45-1-1v-1Zm1-7H4v5h16v-5ZM4.33 12h15.33l-1.8-3H6.12l-1.8 3Zm1.1-8.56l1.06-1.07 1.06 1.06v0c.58.58.58 1.53 0 2.12 -.59.58-1.54.58-2.13 0 -.59-.59-.59-1.54-.01-2.13 0-.01 0-.01 0-.01Zm5.5-.001l1.06-1.07 1.06 1.06v0c.58.58.58 1.53 0 2.12 -.59.58-1.54.58-2.13 0 -.59-.59-.59-1.54-.01-2.13 0-.01 0-.01 0-.01Zm5.5 0l1.06-1.07 1.06 1.06v0c.58.58.58 1.53 0 2.12 -.59.58-1.54.58-2.13 0 -.59-.59-.59-1.54-.01-2.13 0-.01 0-.01 0-.01Zm-9.94 14.56v0c-.83 0-1.5-.68-1.5-1.5 0-.83.67-1.5 1.5-1.5v0c.82 0 1.5.67 1.5 1.5 0 .82-.68 1.5-1.5 1.5Zm11 0v0c-.83 0-1.5-.68-1.5-1.5 0-.83.67-1.5 1.5-1.5v0c.82 0 1.5.67 1.5 1.5 0 .82-.68 1.5-1.5 1.5Z"/></svg>