<svg viewBox="0 0 24 24" xmlns="http://www.w3.org/2000/svg"><path fill="none" d="M0 0h24v24H0Z"/><path d="M19 20H5v1 0c0 .55-.45 1-1 1H3v0c-.56 0-1-.45-1-1V11l2.48-5.788v0c.31-.74 1.03-1.22 1.84-1.22h11.36v0c.79 0 1.52.47 1.83 1.21l2.48 5.788v10 0c0 .55-.45 1-1 1h-1v0c-.56 0-1-.45-1-1v-1Zm1-7H4v5h16v-5ZM4.176 11h15.64l-2.15-5H6.29l-2.15 5ZM6.5 17v0c-.83 0-1.5-.68-1.5-1.5 0-.83.67-1.5 1.5-1.5v0c.82 0 1.5.67 1.5 1.5 0 .82-.68 1.5-1.5 1.5Zm11 0v0c-.83 0-1.5-.68-1.5-1.5 0-.83.67-1.5 1.5-1.5v0c.82 0 1.5.67 1.5 1.5 0 .82-.68 1.5-1.5 1.5Z"/></svg>