<svg viewBox="0 0 24 24" xmlns="http://www.w3.org/2000/svg"><path fill="none" d="M0 0h24v24H0Z"/><path d="M15.5 6.93v0c2.16 1.25 3.5 3.56 3.5 6.06v8h-4.17v0c-.56 1.56-2.27 2.38-3.83 1.83 -.86-.31-1.53-.98-1.84-1.84H4.99v-8 0c-.01-2.51 1.33-4.82 3.5-6.07v0c-.17-.3-.3-.61-.375-.94h-3.13v-2h3.12v0c.55-2.14 2.73-3.43 4.87-2.87 1.4.36 2.5 1.46 2.86 2.86h3.12v2h-3.13c-.09.33-.22.64-.38.93Zm-1.46 1.5c-.6.35-1.3.56-2.05.56v-.001c-.73 0-1.43-.2-2.05-.57v0c-1.8.8-2.96 2.59-2.96 4.56v6h2v-4 0c0-1.66 1.34-3 3-3 1.65 0 3 1.34 3 3v4h2v-6 0c0-1.97-1.16-3.76-2.96-4.57Zm-2.05 5.56v0c-.56 0-1 .44-1 1v5 0c0 .55.44 1 1 1 .55 0 1-.45 1-1v-5 0c0-.56-.45-1-1-1Zm0-7v0c1.1 0 2-.9 2-2 0-1.11-.9-2-2-2v0c-1.11 0-2 .89-2 2 0 1.1.89 2 2 2Z"/></svg>