<svg viewBox="0 0 24 24" xmlns="http://www.w3.org/2000/svg"><path fill="none" d="M0 0h24v24H0Z"/><path d="M12 22C6.477 22 2 17.523 2 12 2 6.477 6.477 2 12 2c5.523 0 10 4.477 10 10s-4.477 10-10 10Zm6.355-6.048v-.11c0-.93 0-1.343-.66-1.72v0c-.21-.12-.43-.23-.65-.33 -.37-.17-.61-.28-.94-.76v-.001c-.04-.06-.08-.12-.12-.18 -.35-.53-.6-.91-1.55-.76 -1.87.29-2.003.62-2.09 1.17l-.02.09c-.13.81-.15 1.08.19 1.43 1.26 1.32 2.02 2.28 2.253 2.84 .11.27.4 1.1.2 1.91l-.001-.001c1.21-.49 2.29-1.26 3.15-2.24 .11-.38.19-.84.19-1.404ZM12 3.833c-2.317-.001-4.41.96-5.896 2.51 .17.12.33.29.43.53 .2.45.2.92.2 1.34 0 .32 0 .64.1.86 .14.3.766.44 1.31.55 .19.04.39.08.58.13 .5.14.89.59 1.21.96 .13.15.32.37.42.43 .05-.04.21-.22.29-.5 .06-.22.04-.42-.05-.52 -.56-.66-.53-1.93-.36-2.4 .27-.74 1.12-.69 1.74-.65 .23.01.45.03.61 0 .62-.08.81-1.03.94-1.21 .29-.4 1.186-1.01 1.74-1.375v0c-1.05-.47-2.18-.71-3.32-.71Z"/></svg>