<svg viewBox="0 0 24 24" xmlns="http://www.w3.org/2000/svg"><path fill="none" d="M0 0h24v24H0Z"/><path d="M4 18h5.5v1.25 0C9.5 20.76 8.26 22 6.75 22 5.23 22 4 20.76 4 19.25V18Zm4.058-4l.04-.14c.76-2.106.89-2.5.89-2.87 0-.75-.21-1.65-.53-2.28 -.25-.47-.42-.61-.48-.61 -1.28 0-2.5 1.36-2.5 2.88 0 .95.07 1.77.22 2.75l.03.24h2.29Zm-.06-7.88c2 0 3 2.88 3 4.88 0 1-.5 2-1 3.5l-.5 1.5h-5.5c0-1-.5-2.5-.5-5s1.99-4.88 4.5-4.88Zm12.05 7.978l-.22 1.23 -.001 0c-.27 1.49-1.7 2.49-3.19 2.23 -1.5-.27-2.5-1.7-2.24-3.19l.21-1.23 5.416.95Zm-1.05-4.246c.16-.5.3-.9.3-.9 .2-.66.36-1.303.48-2.008 .26-1.492-.71-3.047-1.97-3.27 -.06-.01-.25.09-.57.51 -.43.56-.79 1.41-.92 2.14 -.06.33-.05.4.27 2.263 .04.25.08.48.11.71l.02.13 2.25.39Zm-.83-8.15c2.46.43 4.01 3.12 3.58 5.586 -.44 2.46-1.19 3.85-1.36 4.83l-5.417-.96 -.24-1.564c-.24-1.564-.55-2.64-.38-3.62 .34-1.97 1.83-4.632 3.8-4.285Z"/></svg>