<svg viewBox="0 0 24 24" xmlns="http://www.w3.org/2000/svg"><path fill="none" d="M0 0h24v24H0Z"/><path d="M13 21h5v2H6v-2h5v-1.05h0c-3.22-.33-6.08-2.19-7.69-4.99l1.737-1v0c2.19 3.83 7.08 5.16 10.91 2.96s5.16-7.09 2.96-10.92c-.71-1.24-1.74-2.27-2.97-2.97l.99-1.74V1.28c3.11 1.78 5.03 5.09 5.03 8.684 0 5.18-3.95 9.44-9 9.95v1.05Zm-1-4v0c-3.87 0-7-3.14-7-7 0-3.87 3.13-7 7-7v0c3.86 0 7 3.13 7 7 0 3.86-3.14 7-7 7Zm0-2v0c2.76 0 5-2.24 5-5 0-2.77-2.24-5-5-5v0c-2.77 0-5 2.23-5 5 0 2.76 2.23 5 5 5Z"/></svg>