<svg viewBox="0 0 24 24" xmlns="http://www.w3.org/2000/svg"><path fill="none" d="M0 0h24v24H0Z"/><path d="M12 2c5.523 0 10 4.477 10 10s-4.477 10-10 10C6.477 22 2 17.523 2 12 2 6.477 6.477 2 12 2ZM7.19 14.682l-2.175 2.17v0c.5.72 1.11 1.36 1.81 1.89l.3.22 2.17-2.18v0c-.81-.46-1.49-1.1-1.98-1.89l-.14-.24Zm9.6 0v0c-.46.8-1.1 1.48-1.89 1.98l-.24.14 2.17 2.17v0c.72-.51 1.36-1.12 1.89-1.82l.22-.31 -2.18-2.18ZM11.98 8v0c-2.21 0-4 1.79-4 4 0 2.2 1.79 4 4 4v0c2.2 0 4-1.8 4-4 0-2.21-1.8-4-4-4ZM7.125 5.02V5.01c-.73.5-1.37 1.11-1.9 1.81l-.23.3L7.17 9.302h0c.45-.81 1.09-1.49 1.88-1.98l.23-.14L7.1 5Zm9.71 0L14.662 7.19V7.19c.8.45 1.48 1.09 1.98 1.88l.14.23 2.17-2.173V7.13c-.51-.73-1.12-1.37-1.82-1.9l-.31-.23Z"/></svg>