<svg viewBox="0 0 24 24" xmlns="http://www.w3.org/2000/svg"><path fill="none" d="M0 0h24v24H0Z"/><path d="M12 2c5.523 0 10 4.477 10 10s-4.477 10-10 10C6.477 22 2 17.523 2 12 2 6.477 6.477 2 12 2Zm0 15v0c-.63 0-1.25-.12-1.83-.35l-2.24 2.23h0c1.23.72 2.63 1.11 4.06 1.1v-.001c1.42 0 2.83-.39 4.06-1.11l-2.24-2.24h0c-.59.22-1.21.34-1.83.34Zm-8-5c0 1.484.4 2.87 1.1 4.064l2.237-2.24v0c-.23-.59-.35-1.21-.35-1.83 0-.65.12-1.27.34-1.83l-2.24-2.24V7.92c-.73 1.23-1.12 2.63-1.11 4.06Zm14.89-4.07l-2.24 2.23c.22.56.34 1.18.34 1.82 0 .64-.13 1.26-.35 1.82l2.23 2.23v0c.72-1.24 1.11-2.64 1.1-4.064h-.001c0-1.43-.39-2.84-1.11-4.07Zm-6.9 1.06v0c-1.66 0-3 1.34-3 3 0 1.65 1.34 3 3 3v0c1.65 0 3-1.35 3-3 0-1.66-1.35-3-3-3Zm0-5V3.98c-1.43-.01-2.84.38-4.064 1.1l2.23 2.237v0c.58-.23 1.2-.35 1.82-.35 .64 0 1.26.12 1.82.34l2.23-2.237v-.001c-1.24-.73-2.64-1.12-4.064-1.11Z"/></svg>