<svg viewBox="0 0 24 24" xmlns="http://www.w3.org/2000/svg"><path fill="none" d="M0 0h24v24H0Z"/><path d="M12 20.9l4.95-4.95v0c2.73-2.74 2.73-7.17-.01-9.9 -2.74-2.74-7.17-2.74-9.9 0C4.3 8.78 4.3 13.21 7.03 15.94l4.95 4.95Zm0 2.82l-6.37-6.37v0c-3.52-3.52-3.52-9.22 0-12.73 3.51-3.52 9.21-3.52 12.72 0 3.51 3.51 3.51 9.21 0 12.72l-6.37 6.36Zm0-10.73v0c1.1 0 2-.9 2-2 0-1.11-.9-2-2-2v0c-1.11 0-2 .89-2 2 0 1.1.89 2 2 2Zm0 2v0c-2.21 0-4-1.8-4-4 0-2.21 1.79-4 4-4v0c2.2 0 4 1.79 4 4 0 2.2-1.8 4-4 4Z"/></svg>