<svg viewBox="0 0 24 24" xmlns="http://www.w3.org/2000/svg"><path fill="none" d="M0 0h24v24H0Z"/><path d="M4 6.14v12.824l5.06-2.17 6 3 4.93-2.12V4.85l1.3-.56V4.29c.25-.11.54 0 .65.26 .02.06.04.12.04.19v14.24l-7 3 -6-3 -6.31 2.7H2.66c-.26.1-.55-.01-.66-.27 -.03-.07-.05-.13-.05-.2V6.96l2-.86Zm12.24 5.1l-4.25 4.24 -4.243-4.25H7.74c-2.35-2.35-2.35-6.15 0-8.49 2.34-2.35 6.14-2.35 8.48 0 2.34 2.34 2.34 6.14 0 8.48Zm-4.25 1.41l2.82-2.83v0c1.56-1.57 1.56-4.1 0-5.66 -1.57-1.57-4.1-1.57-5.66-.01 -1.57 1.56-1.57 4.09-.01 5.65 0 0 0 0 0 0l2.82 2.82Z"/></svg>