<svg viewBox="0 0 24 24" xmlns="http://www.w3.org/2000/svg"><path fill="none" d="M0 0h24v24H0Z"/><path d="M22 13.5V21v0c0 .55-.45 1-1 1h-1v0c-.56 0-1-.45-1-1v-1H5v1 0c0 .55-.45 1-1 1H3v0c-.56 0-1-.45-1-1v-7.5l-1.25-.31 0-.001c-.45-.12-.76-.52-.76-.97v-.72 0c0-.28.22-.5.5-.5h1.875L4.503 5.29v0c.29-.79 1.03-1.3 1.87-1.3h11.22v0c.83-.01 1.58.51 1.87 1.29l2.13 5.7h1.875v0c.27 0 .5.22.5.5v.72h-.001c-.01.45-.32.85-.76.97l-1.25.31ZM4 15v2 0c0 .55.44 1 1 1h3.24v-.001c.27-.01.49-.23.49-.51 -.01-.09-.03-.17-.06-.24 -.81-1.51-2.37-2.27-4.69-2.27Zm16 0c-2.317 0-3.88.75-4.686 2.26h0c-.14.24-.04.54.2.67 .07.03.15.05.23.05h3.24v0c.55 0 1-.45 1-1v-2ZM6 6l-1.561 4.68v0c-.18.52.1 1.09.63 1.26 .1.03.2.05.31.05h13.226v0c.55-.01.99-.45.99-1.01 -.01-.11-.02-.22-.06-.32l-1.561-4.69h-12Z"/></svg>