<svg viewBox="0 0 24 24" xmlns="http://www.w3.org/2000/svg"><path fill="none" d="M0 0h24v24H0Z"/><path d="M19 20H5v1 0c0 .55-.45 1-1 1H3v0c-.56 0-1-.45-1-1v-7.5l-1.25-.31 0-.001c-.45-.12-.76-.52-.76-.97v-.72 0c0-.28.22-.5.5-.5h1.5L4.47 5.21v0c.31-.74 1.03-1.22 1.84-1.22h11.36v0c.79 0 1.52.47 1.83 1.21l2.48 5.788h1.5v0c.27 0 .5.22.5.5v.72h-.001c-.01.45-.32.85-.76.97l-1.25.31v7.5 0c0 .55-.45 1-1 1h-1v0c-.56 0-1-.45-1-1v-1Zm1-2v-5H4v5h16ZM5.477 11h13.046v0c.55-.01.99-.45.99-1.01 -.01-.13-.03-.26-.08-.38l-1.46-3.63h-12L4.51 9.6v0c-.21.51.04 1.09.55 1.29 .11.04.24.07.37.07Zm-.48 3c2.317 0 3.87.75 4.686 2.26h-.001c.13.24.03.54-.21.67 -.08.03-.16.05-.24.05H5.98v0c-.56 0-1-.45-1-1v-2Zm14 0v2 0c0 .55-.45 1-1 1h-3.25v-.001c-.28-.01-.5-.23-.5-.51 0-.09.02-.17.05-.24 .8-1.51 2.36-2.27 4.68-2.27Z"/></svg>