<svg viewBox="0 0 24 24" xmlns="http://www.w3.org/2000/svg"><path fill="none" d="M0 0h24v24H0Z"/><path d="M15.502 20h0c-.67 1.58-1.92 2.84-3.51 3.5h-.001c-1.59-.67-2.85-1.92-3.51-3.51h2.26c.32.48.74.91 1.24 1.24 .49-.33.91-.76 1.24-1.25h2.25Zm2.49-5.2l2 2.26v1.92h-16v-1.93l2-2.27V8.97c0-3.49 2.5-6.447 6-7.545 3.49 1.09 6 4.06 6 7.545v5.805Zm-.73 2.19l-1.27-1.44V8.99c0-2.32-1.57-4.43-4-5.42 -2.43.99-4 3.101-4 5.42v6.56l-1.27 1.44h10.54Zm-5.27-6v0c-1.11 0-2-.9-2-2 0-1.11.89-2 2-2v0c1.1 0 2 .89 2 2 0 1.1-.9 2-2 2Z"/></svg>