<svg viewBox="0 0 24 24" xmlns="http://www.w3.org/2000/svg"><path fill="none" d="M0 0h24v24H0Z"/><path d="M5.33 15.929l0 0c-.23-.97-.34-1.95-.33-2.93C5 7.91 7.9 3.56 12 1.81c4.09 1.74 7 6.09 7 11.18 0 1.01-.12 1.99-.33 2.92l2.02 1.79v0c.17.15.22.42.09.63l-2.46 4.096v0c-.15.23-.45.31-.69.17 -.04-.03-.07-.05-.1-.08l-2.26-2.26v0c-.19-.19-.45-.3-.71-.3H9.38v0c-.27 0-.52.1-.71.29L6.41 22.5h0c-.2.19-.52.19-.71-.01 -.03-.03-.06-.07-.08-.1l-2.458-4.1h0c-.13-.21-.09-.48.09-.64l2.02-1.8Zm6.67-2.93v0c1.1 0 2-.9 2-2 0-1.11-.9-2-2-2v0c-1.11 0-2 .89-2 2 0 1.1.89 2 2 2Z"/></svg>