<svg viewBox="0 0 24 24" xmlns="http://www.w3.org/2000/svg"><path fill="none" d="M0 0h24v24H0Z"/><path d="M4 15V8.5v0C4 6.01 6.01 4 8.5 4 10.98 4 13 6.01 13 8.5v7 0c0 1.38 1.11 2.5 2.5 2.5 1.38 0 2.5-1.12 2.5-2.5V8.83v0c-1.57-.56-2.39-2.27-1.83-3.83 .55-1.57 2.26-2.39 3.82-1.83 1.56.55 2.38 2.26 1.82 3.82 -.31.85-.98 1.52-1.83 1.82v6.67 0c0 2.48-2.02 4.5-4.5 4.5 -2.49 0-4.5-2.02-4.5-4.5v-7 0c0-1.39-1.12-2.5-2.5-2.5 -1.39 0-2.5 1.11-2.5 2.5v6.5h3l-4 5 -4-5h3Zm15-8v0c.55 0 1-.45 1-1 0-.56-.45-1-1-1v0c-.56 0-1 .44-1 1 0 .55.44 1 1 1Z"/></svg>