<svg viewBox="0 0 24 24" xmlns="http://www.w3.org/2000/svg"><path fill="none" d="M0 0h24v24H0Z"/><path d="M9 4h5.44v-.001c.34-.01.66.17.84.47l3.45 5.53h4.4v0c.27-.01.5.22.5.49 0 .08-.03.16-.07.24l-3.94 7.21v0c-1.8.24-3.58-.51-4.66-1.96v0c-.95 1.26-2.43 2-4 2v0c-1.58 0-3.06-.74-4-2H6.95c-1.07 1.41-2.8 2.16-4.55 1.97L1.16 11.15h0c-.1-.55.26-1.07.8-1.17 .05-.02.11-.02.17-.02h.802v-5 0c0-.56.44-1 1-1h1v-3h4v3Zm-4 6h11.39l-2.5-4h-8.9v4ZM3 20h0c1.47 0 2.9-.55 4-1.53h-.001c1.09.98 2.52 1.53 4 1.52v0c1.47 0 2.9-.55 4-1.53h-.001c1.09.98 2.52 1.53 4 1.52h2v2h-2 -.001c-1.41 0-2.79-.37-4-1.07h0c-1.22.7-2.6 1.07-4 1.07h-.001c-1.41 0-2.79-.37-4-1.07h0c-1.22.7-2.6 1.07-4 1.07h-2v-2h2Z"/></svg>