<svg viewBox="0 0 24 24" xmlns="http://www.w3.org/2000/svg"><path fill="none" d="M0 0h24v24H0Z"/><path d="M4 10.4V4v0c0-.56.44-1 1-1h5V1h4v2h5v0c.55 0 1 .44 1 1v6.4l1.08.32v0c.51.15.81.68.68 1.2l-1.52 6.068v0c-1.67.08-3.26-.67-4.26-2v0c-.95 1.26-2.43 2-4 2h0c-1.58 0-3.06-.74-4-2v0c-1 1.33-2.6 2.07-4.252 1.99L2.21 11.91v0c-.13-.52.17-1.05.68-1.2l1.08-.33Zm2-.6L12 8l2.75.82 1.8.54 1.43.43v-4.8h-12v4.8ZM4 20h0c1.47 0 2.9-.55 4-1.53v0c1.09.98 2.52 1.53 4 1.52v0c1.47 0 2.9-.55 4-1.53h-.001c1.09.98 2.52 1.53 4 1.52h2v2h-2v0c-1.41 0-2.79-.37-4-1.07h0c-1.22.7-2.6 1.07-4 1.07h-.001c-1.41 0-2.79-.37-4-1.07h0c-1.22.7-2.6 1.07-4 1.07h-2v-2h2Z"/></svg>