<svg viewBox="0 0 24 24" xmlns="http://www.w3.org/2000/svg"><path fill="none" d="M0 0h24v24H0Z"/><path d="M21.8 14.001v0c-.85 4.14-4.22 7.3-8.4 7.9v-2.03h0c3.08-.55 5.56-2.85 6.34-5.878l2.05 0Zm-17.548 0v0c.77 2.99 3.2 5.27 6.247 5.85v2.03l0-.001c-4.15-.64-7.46-3.79-8.3-7.89h2.05Zm13.74-3.01v2h-1v0c-2.14-.01-3.89 1.67-4 3.8l-.01.2v1h-2v-1 0c0-2.14-1.68-3.89-3.8-4l-.2-.01h-1v-2h12Zm-6-9c5.18 0 9.44 3.947 9.95 9h-2.02v0c-.56-4.39-4.56-7.49-8.95-6.94 -3.63.45-6.48 3.31-6.94 6.93H2.01c.5-5.053 4.766-9 9.951-9Z"/></svg>