<svg viewBox="0 0 24 24" xmlns="http://www.w3.org/2000/svg"><path fill="none" d="M0 0h24v24H0Z"/><path d="M12 2c5.523 0 10 4.477 10 10s-4.477 10-10 10C6.477 22 2 17.523 2 12 2 6.477 6.477 2 12 2ZM8 13l-3.94 0h0c.45 3.62 3.31 6.47 6.93 6.93v-3.94 0c-1.66 0-3-1.35-3-3Zm11.93 0l-3.94-.01v0c0 1.65-1.35 3-3 3l0 3.93 -.001-.001c3.62-.46 6.47-3.32 6.93-6.94Zm-5.94-1.01h-4v1 0c0 .55.44 1 1 1h2v0c.55 0 1-.45 1-1v-1Zm-2-8V3.98c-4.04 0-7.44 2.99-7.94 7h3.93v0c0-.56.44-1 1-1h6v0c.55 0 1 .44 1 1h3.93 -.001c-.51-4.01-3.91-7-7.94-7Z"/></svg>