<svg viewBox="0 0 24 24" xmlns="http://www.w3.org/2000/svg"><path fill="none" d="M0 0h24v24H0Z"/><path d="M16 1c.55 0 1 .44 1 1v.99l5 0v6l-2.02-.01 2.76 7.59c.16.43.25.9.25 1.4 0 2.2-1.8 4-4 4 -1.87 0-3.43-1.28-3.88-3l-4.26-.01c-.45 1.72-2.02 2.99-3.88 2.99 -1.95 0-3.57-1.39-3.93-3.23 -.64-.34-1.08-1.01-1.08-1.78v-13c0-.56.44-1 1-1h7c.55 0 1 .44 1 1v8c0 .51.38.93.88.99l.11 0h2c.51 0 .93-.39.99-.89l0-.12v-9h-3v-2h4ZM7 16c-1.11 0-2 .89-2 2 0 1.1.89 2 2 2 1.1 0 2-.9 2-2 0-1.11-.9-2-2-2Zm12-.01c-1.11 0-2 .89-2 2 0 1.1.89 2 2 2 1.1 0 2-.9 2-2 0-1.11-.9-2-2-2Zm-1.15-7.01h-.86v3c0 1.65-1.35 3-3 3h-2c-1.31 0-2.42-.84-2.83-2l-5.18-.01v2.35c.73-.84 1.8-1.36 3-1.36 1.86 0 3.43 1.27 3.87 3h4.25c.44-1.73 2.01-3.01 3.87-3.01 .23 0 .46.02.69.06l-1.85-5.07Zm-8.852-1h-5v3h5v-3Zm11-3h-3v2h3v-2Zm-11 0h-5v1h5v-1Z"/></svg>