<svg viewBox="0 0 24 24" xmlns="http://www.w3.org/2000/svg"><path fill="none" d="M0 0h24v24H0Z"/><path d="M16 1c.55 0 1 .44 1 1v.99l5 0v6l-2.02-.01 2.76 7.59c.16.43.25.9.25 1.4 0 2.2-1.8 4-4 4 -1.87 0-3.43-1.28-3.88-3l-4.26-.01c-.45 1.72-2.02 2.99-3.88 2.99 -1.95 0-3.57-1.39-3.93-3.23 -.64-.34-1.08-1.01-1.08-1.78v-5h9c0 .51.38.93.88.99l.11 0h2c.51 0 .93-.39.99-.89l0-.12v-9h-3v-2h4ZM7 16c-1.11 0-2 .89-2 2 0 1.1.89 2 2 2 1.1 0 2-.9 2-2 0-1.11-.9-2-2-2Zm12 0c-1.11 0-2 .89-2 2 0 1.1.89 2 2 2 1.1 0 2-.9 2-2 0-1.11-.9-2-2-2ZM10 3c.55 0 1 .44 1 1v7H2V4c0-.56.44-1 1-1h7Zm10 2h-3v2h3V5ZM9 5H4v1h5V5Z"/></svg>