<svg viewBox="0 0 24 24" xmlns="http://www.w3.org/2000/svg"><path fill="none" d="M0 0h24v24H0Z"/><path d="M14.935 7.204l-6-3 -4.94 2.115v12.648l5.06-2.17 6 3 4.93-2.12V5.02l-5.07 2.17ZM2 4.994l7-3 6 3 6.3-2.701v-.001c.25-.11.54 0 .65.26 .02.06.04.12.04.19v16.241l-7 3 -6-3 -6.31 2.7H2.67c-.26.1-.55-.01-.66-.27 -.03-.07-.05-.13-.05-.2V4.97Zm4 6h2v2H6v-2Zm4 0h2v2h-2v-2Zm5.99-.07l1.23-1.237 1.06 1.06 -1.24 1.23 1.23 1.23 -1.06 1.06 -1.24-1.237 -1.237 1.237 -1.061-1.06 1.237-1.24 -1.237-1.237 1.06-1.061 1.23 1.237Z"/></svg>