<svg viewBox="0 0 24 24" xmlns="http://www.w3.org/2000/svg"><path fill="none" d="M0 0h24v24H0Z"/><path d="M8.96 18v0c-.28 1.91-2.05 3.24-3.96 2.97 -1.55-.22-2.76-1.44-2.98-2.98H.98v-12 0c0-.56.44-1 1-1h14v0c.55 0 1 .44 1 1v2h3l3 4.05v5.94h-2.035v0c-.28 1.91-2.05 3.24-3.96 2.97 -1.55-.22-2.76-1.44-2.98-2.98H8.93Zm6.03-11h-12v8.05h0c1.35-1.39 3.56-1.41 4.94-.06 .29.28.53.62.71 1h5.67c.16-.36.39-.68.66-.95V6.99Zm2 6h4v-.29L18.98 9.99h-2v3Zm.5 6v0c.82 0 1.5-.68 1.5-1.51s-.68-1.51-1.51-1.51v0c-.83 0-1.51.67-1.51 1.5 0 .82.67 1.5 1.5 1.5Zm-10.5-1.5v0c0-.83-.68-1.5-1.5-1.5 -.83 0-1.5.67-1.5 1.5v0c0 .82.67 1.5 1.5 1.5 .82 0 1.5-.68 1.5-1.5Z"/></svg>