<svg viewBox="0 0 20 20" xmlns="http://www.w3.org/2000/svg"><path fill="none" d="M0 0h20v20H0Z"/><g><path opacity=".3" d="M4 15h12V5H4v10Zm7.27-5.35l.71.71 2.12-2.12 .71.71 -2.83 2.83 -1.41-1.41 .7-.72ZM5 7h4v1H5V7Zm0 2.5h4v1H5v-1ZM5 12h4v1H5v-1Z"/><path d="M16 4H4c-.55 0-1 .45-1 1v10c0 .55.45 1 1 1h12c.55 0 1-.45 1-1V5c0-.55-.45-1-1-1Zm0 11H4V5h12v10Z"/><path d="M5 7h4v1H5Z"/><path d="M5 9.5h4v1H5Z"/><path d="M5 12h4v1H5Z"/><path d="M14.8 8.94l-.7-.71 -2.13 2.12 -.7-.7 -.71.7 1.41 1.42Z"/></g></svg>