<svg viewBox="0 0 24 24" xmlns="http://www.w3.org/2000/svg"><path fill="none" d="M0 0h24v24H0V0Z"/><g><path opacity=".3" d="M12 4c-4.41 0-8 3.59-8 8s3.59 8 8 8 8-3.59 8-8 -3.59-8-8-8Zm1 14h-2v-2h2v2Zm0-3h-2c0-3.25 3-3 3-5 0-1.1-.9-2-2-2s-2 .9-2 2H8c0-2.21 1.79-4 4-4s4 1.79 4 4c0 2.5-3 2.75-3 5Z"/><path d="M11 16h2v2h-2Zm1-14C6.48 2 2 6.48 2 12c0 5.52 4.48 10 10 10s10-4.48 10-10 -4.48-10-10-10Zm0 18c-4.41 0-8-3.59-8-8s3.59-8 8-8 8 3.59 8 8 -3.59 8-8 8Zm0-14c-2.21 0-4 1.79-4 4h2c0-1.1.9-2 2-2s2 .9 2 2c0 2-3 1.75-3 5h2c0-2.25 3-2.5 3-5 0-2.21-1.79-4-4-4Z"/></g></svg>