<svg viewBox="0 0 24 24" xmlns="http://www.w3.org/2000/svg"><path fill="none" d="M0 0h24v24H0V0Z"/><g><path opacity=".3" d="M12 4c-4.41 0-8 3.59-8 8s3.59 8 8 8 8-3.59 8-8 -3.59-8-8-8Zm4 10.59L14.59 16 12 13.41 9.41 16 8 14.59 10.59 12 8 9.41 9.41 8 12 10.59 14.59 8 16 9.41 13.41 12 16 14.59Z"/><path d="M14.59 8L12 10.59 9.41 8 8 9.41 10.59 12 8 14.59 9.41 16 12 13.41 14.59 16 16 14.59 13.41 12 16 9.41ZM12 2C6.47 2 2 6.47 2 12c0 5.53 4.47 10 10 10s10-4.47 10-10 -4.47-10-10-10Zm0 18c-4.41 0-8-3.59-8-8s3.59-8 8-8 8 3.59 8 8 -3.59 8-8 8Z"/></g></svg>