<svg viewBox="0 0 24 24" xmlns="http://www.w3.org/2000/svg"><path fill="none" d="M0 0h24v24H0V0Z"/><g><path opacity=".3" d="M4 18h16V6H4v12Zm7.5-11c2.49 0 4.5 2.01 4.5 4.5 0 .88-.26 1.69-.7 2.39l2.44 2.43 -1.42 1.42 -2.44-2.44c-.69.44-1.51.7-2.39.7C9.01 15.99 7 13.99 7 11.5 7 9.01 9.01 7 11.5 7Z"/><path d="M11.49 16c.88 0 1.7-.26 2.39-.7l2.44 2.44 1.42-1.42 -2.44-2.43c.44-.7.7-1.51.7-2.39C15.99 9.01 13.99 7 11.5 7 9.01 7 7 9.01 7 11.5c0 2.49 2.01 4.5 4.49 4.5Zm.01-7c1.38 0 2.5 1.12 2.5 2.5s-1.12 2.5-2.5 2.5 -2.5-1.12-2.5-2.5C9 10.12 10.12 9 11.5 9ZM20 4H4c-1.1 0-2 .9-2 2v12c0 1.1.9 2 2 2h16c1.1 0 2-.9 2-2V6c0-1.1-.9-2-2-2Zm0 14H4V6h16v12Z"/></g></svg>