<svg viewBox="0 0 24 24" xmlns="http://www.w3.org/2000/svg"><path fill="none" d="M0 0h24v24H0V0Z"/><g opacity=".3"><g><path d="M9 7a2 2 0 1 0 0 4 2 2 0 1 0 0-4Z"/><path d="M9 17c-2.69 0-5.77 1.28-6 2h12c-.2-.71-3.3-2-6-2Z"/></g></g><path d="M9 13c2.21 0 4-1.79 4-4s-1.79-4-4-4C6.79 5 5 6.79 5 9c0 2.21 1.79 4 4 4Zm0-6c1.1 0 2 .9 2 2s-.9 2-2 2 -2-.9-2-2 .9-2 2-2Zm0 8c-2.67 0-8 1.34-8 4v2h16v-2c0-2.66-5.33-4-8-4Zm-6 4c.22-.72 3.31-2 6-2 2.7 0 5.8 1.29 6 2H3ZM16.76 5.36l-1.68 1.69c.84 1.18.84 2.71 0 3.89l1.68 1.69c2.02-2.02 2.02-5.07 0-7.27ZM20.07 2l-1.63 1.63c2.77 3.02 2.77 7.56 0 10.74L20.07 16c3.9-3.89 3.91-9.95 0-14Z"/></svg>