<svg viewBox="0 0 20 20" xmlns="http://www.w3.org/2000/svg"><path fill="none" d="M0 0h20v20H0Z"/><g><path opacity=".3" d="M7.19 8.99c.3-.84.97-1.51 1.81-1.81L7.84 4.41c-1.57.61-2.82 1.86-3.43 3.43l2.78 1.15v0Z"/><path opacity=".3" d="M7.19 11.01v0l-2.78 1.16c.61 1.57 1.86 2.82 3.43 3.43L9 12.82c-.85-.31-1.51-.97-1.81-1.81Z"/><path opacity=".3" d="M12.81 8.98l2.78-1.15c-.61-1.57-1.86-2.82-3.43-3.42l-1.15 2.78c.84.3 1.5.96 1.8 1.79Z"/><path opacity=".3" d="M12.82 11c-.3.84-.96 1.5-1.79 1.81l1.15 2.78c1.57-.61 2.81-1.86 3.42-3.42L12.82 11Z"/><path d="M10 3c-3.87 0-7 3.13-7 7s3.13 7 7 7 7-3.13 7-7 -3.13-7-7-7Zm2.16 1.41c1.57.61 2.82 1.85 3.43 3.42l-2.78 1.15c-.3-.83-.96-1.49-1.79-1.79l1.14-2.78Zm-4.32 0L9 7.18c-.85.3-1.51.96-1.82 1.81v0L4.41 7.84c.61-1.57 1.86-2.82 3.43-3.43Zm-.01 11.18c-1.57-.61-2.82-1.86-3.43-3.43l2.78-1.15v0c.3.84.97 1.51 1.81 1.81l-1.16 2.77ZM8 10c0-1.1.9-2 2-2s2 .9 2 2 -.9 2-2 2 -2-.9-2-2Zm4.17 5.59l-1.15-2.78c.84-.3 1.5-.97 1.79-1.81l2.77 1.16c-.6 1.58-1.84 2.82-3.41 3.43Z"/></g></svg>