<svg viewBox="0 0 20 20" xmlns="http://www.w3.org/2000/svg"><path fill="none" d="M0 0h20v20H0Z"/><g><path opacity=".3" d="M16.67 10l-1.2-1.37 -.28-.33 .04-.43 .17-1.81 -1.77-.4 -.42-.1 -.22-.37 -.93-1.56 -1.66.72 -.4.17 -.4-.17 -1.66-.72 -.93 1.56 -.22.37 -.42.1 -1.77.4 .17 1.81 .04.43 -.28.32L3.33 10l1.2 1.37 .28.32 -.04.43 -.17 1.82 1.77.4 .42.1 .22.37 .93 1.56 1.66-.72 .4-.17 .4.17 1.66.72 .93-1.56 .22-.37 .42-.1 1.77-.4 -.17-1.81 -.04-.43 .28-.32 1.2-1.38Zm-8.08 3.07l-2.12-2.12 .71-.71 1.41 1.41 4.24-4.24 .71.71 -4.95 4.95Z"/><path d="M18 10l-1.77-2.03 .25-2.69 -2.63-.6 -1.37-2.32L10 3.43 7.53 2.36 6.15 4.68l-2.62.6 .25 2.69L2 10l1.77 2.03 -.25 2.69 2.63.6 1.37 2.32L10 16.56l2.47 1.07 1.37-2.32 2.63-.6 -.25-2.69L18 10Zm-2.77 2.12l.17 1.81 -1.77.4 -.42.1 -.22.37 -.93 1.56 -1.66-.72 -.4-.17 -.4.17 -1.66.72 -.93-1.56 -.22-.37 -.42-.1 -1.77-.4 .17-1.82 .04-.43 -.28-.32L3.33 10l1.2-1.38 .28-.32 -.04-.43 -.17-1.81 1.77-.4 .42-.09 .22-.37 .93-1.56 1.66.71 .4.17 .4-.17 1.66-.72 .93 1.56 .22.37 .42.1 1.77.4 -.17 1.81 -.04.43 .28.32 1.2 1.37 -1.2 1.37 -.28.32 .04.44Z"/><path d="M8.59 11.65l-1.42-1.41 -.71.71 2.13 2.12 4.95-4.95 -.71-.71Z"/></g></svg>