<svg viewBox="0 0 20 20" xmlns="http://www.w3.org/2000/svg"><path fill="none" d="M0 0h20v20H0Z"/><g><path d="M13.05 10.62h2v5.5h-2Z" transform="scale(.99999) rotate(-45 14.054 13.3709)"/><path d="M14.23 8.98c1.38 0 2.5-1.12 2.5-2.5 0-.51-.15-.98-.42-1.38l-2.08 2.08 -.71-.71 2.08-2.08c-.4-.26-.87-.42-1.38-.42 -1.38 0-2.5 1.12-2.5 2.5 0 .32.07.63.18.91L10.69 8.6 9.64 7.54l.71-.71 -1.42-1.41L10.34 4c-.78-.78-2.05-.78-2.83 0L4.69 6.83l1.06 1.06H3.62l-.35.35 2.83 2.83 .35-.35 .01-2.12 1.06 1.06 .71-.71 1.06 1.06 -4.6 4.6 1.41 1.41 7.22-7.22c.28.11.59.18.91.18Z"/></g></svg>