<svg viewBox="0 0 20 20" xmlns="http://www.w3.org/2000/svg"><g fill="none"><path d="M0 0h20v20H0Z"/><path d="M5.21 14.09l-1.06 1.06c-.13.12-.15.27-.15.35 0 .08.02.23.15.35 .12.13.27.15.35.15 .08 0 .23-.02.35-.15l.35-.35 .71-.71 -.7-.7Z"/><path d="M5.71 11.96c0-.08-.02-.23-.15-.35 -.13-.12-.28-.15-.35-.15 -.08 0-.23.02-.35.15 -.13.13-.15.28-.15.35 0 .08.02.23.15.35l.35.35 .35-.35c.13-.12.15-.27.15-.35Z"/></g><g><path d="M4 3h5v1H4Z"/><path d="M4 5l0 1 2 0 0 3 .99 0 0-3L9 6l0-1Z"/><path d="M10.31 13.5h7.07v.99h-7.07Z" transform="scale(.99999) rotate(-45 13.8506 14.0002)"/><path d="M12.71 12.71c.39-.39.39-1.02 0-1.41 -.39-.39-1.02-.39-1.41 0 -.39.39-.39 1.02 0 1.41 .38.39 1.02.39 1.41 0Z"/><path d="M16.71 15.29c-.39-.39-1.02-.39-1.41 0 -.39.39-.39 1.02 0 1.41 .39.39 1.02.39 1.41 0 .39-.38.39-1.02 0-1.41Z"/><path d="M12.5 9c.83 0 1.5-.67 1.5-1.5 0-.03 0-3.5 0-3.5h2V3h-3v3.09c-.16-.05-.32-.09-.5-.09 -.83 0-1.5.67-1.5 1.5s.67 1.5 1.5 1.5Z"/><path d="M8.04 12.67l-1.41 1.41 -.71-.71 .35-.35c.59-.59.59-1.54 0-2.12 -.29-.29-.68-.44-1.06-.44s-.77.15-1.06.44c-.59.59-.59 1.54 0 2.12l.35.35 -1.06 1.06c-.59.59-.59 1.54 0 2.12 .29.3.68.45 1.06.45s.77-.15 1.06-.44l1.06-1.06 1.41 1.41 .71-.71 -1.41-1.41v0l1.41-1.41 -.7-.71Zm-3.19-.35c-.13-.13-.15-.28-.15-.35 0-.08.02-.23.15-.35 .13-.13.28-.15.35-.15 .08 0 .23.02.35.15 .12.13.15.28.15.35 0 .08-.02.23-.15.35l-.35.35 -.35-.35Zm0 3.53c-.12.13-.27.15-.35.15 -.08 0-.23-.02-.35-.15 -.13-.12-.15-.27-.15-.35 0-.08.02-.23.15-.35l1.06-1.06 .71.71 -.71.7 -.36.35Z"/></g></svg>