<svg viewBox="0 0 20 20" xmlns="http://www.w3.org/2000/svg"><path fill="none" d="M0 0h20v20H0Z"/><g><path opacity=".3" d="M8 13l0 0 4 0 0-1 -4 0Z"/><path opacity=".3" d="M8 15l2 0 0 0 0 0 2 0 0-1 -4 0Z"/><path d="M14.91 7.07c-.01-.04-.01-.08-.02-.12 -.06-.28-.15-.56-.26-.82 -.02-.05-.04-.09-.06-.14 -.11-.26-.25-.5-.4-.74 -.03-.04-.05-.08-.08-.11 -.16-.23-.34-.46-.55-.66 -.02-.02-.03-.03-.05-.05 -.2-.2-.42-.38-.66-.54 -.02-.02-.04-.03-.06-.05 -.24-.16-.49-.29-.75-.41 -.04-.02-.09-.04-.13-.06 -.26-.11-.53-.19-.81-.25 -.05-.01-.1-.02-.15-.03 -.29-.05-.59-.08-.89-.09 -.01 0-.03 0-.04 0 -.1 0-.21.01-.31.02 -.06 0-.12 0-.18.01 -.2.01-.39.04-.58.08 -1.94.4-3.49 2-3.84 3.95 -.31 1.72.26 3.3 1.33 4.4 .36.38.58.88.58 1.41 0 .77 0 1.6 0 2.14 0 .55.45 1 1 1h.28v0c.35.6.98 1 1.72 1s1.38-.4 1.72-1v0H12c.55 0 1-.45 1-1v-2.13c0-.52.21-1.02.58-1.4C14.45 10.57 15 9.35 15 8c0-.32-.04-.63-.09-.93ZM12 15h-2v0 0H8v-1h4v1Zm0-2H8v0 -1h4v1Zm.86-2.23c-.07.07-.12.15-.19.23H7.32c-.06-.08-.12-.16-.19-.24 -.91-.94-1.3-2.22-1.06-3.52 .29-1.57 1.52-2.83 3.06-3.16 .29-.05.58-.08.87-.08 2.21 0 4 1.79 4 4 0 1.04-.4 2.02-1.14 2.77Z"/><path d="M9.5 8.5h1V11h-1Z"/><path d="M8.76 6.72h1v2.5h-1Z" transform="scale(.99999) rotate(-45 9.26266 7.9698)"/><path d="M10.24 6.72h1v2.5h-1Z" transform="scale(-.99999) rotate(45 19.2407-25.9227)"/></g></svg>