<svg viewBox="0 0 24 24" xmlns="http://www.w3.org/2000/svg"><path fill="none" d="M0 0h24v24H0Z"/><g><path opacity=".3" d="M20 12c0-4.42-3.58-8-8-8s-8 3.58-8 8 3.58 8 8 8 8-3.58 8-8ZM8.5 8c.83 0 1.5.67 1.5 1.5s-.67 1.5-1.5 1.5 -1.5-.67-1.5-1.5C7 8.67 7.67 8 8.5 8ZM12 18c-2.28 0-4.22-1.66-5-4h10c-.78 2.34-2.72 4-5 4Zm3.5-7c-.83 0-1.5-.67-1.5-1.5s.67-1.5 1.5-1.5 1.5.67 1.5 1.5 -.67 1.5-1.5 1.5Z"/><path d="M15.5 8a1.5 1.5 0 1 0 0 3 1.5 1.5 0 1 0 0-3Z"/><path d="M8.5 8a1.5 1.5 0 1 0 0 3 1.5 1.5 0 1 0 0-3Z"/><path d="M11.99 2C6.47 2 2 6.48 2 12c0 5.52 4.47 10 9.99 10C17.52 22 22 17.52 22 12c0-5.52-4.48-10-10.01-10ZM12 20c-4.42 0-8-3.58-8-8s3.58-8 8-8 8 3.58 8 8 -3.58 8-8 8Z"/><path d="M12 18c2.28 0 4.22-1.66 5-4H7c.78 2.34 2.72 4 5 4Z"/></g></svg>