<svg viewBox="0 0 20 20" xmlns="http://www.w3.org/2000/svg"><path fill="none" d="M0 0h20v20H0Z"/><g><path opacity=".3" d="M9.11 7.82L7.7 6.4c-.76-.75-1.76-1.17-2.83-1.17 -.73 0-1.42.19-2.03.55l1.03 1.03h2.09L5.8 8.69c.35.23.76.36 1.19.36 .57 0 1.11-.22 1.52-.63l.6-.6Z"/><path opacity=".3" d="M8 5.37c.14.11.28.2.4.33l4.6 4.6v.7h-.71L9.82 8.53l-.6.6c-.36.35-.78.59-1.22.74V12h5v2c0 .55.45 1 1 1s1-.45 1-1V5H8v.37Z"/><path d="M7 4v.73c-.68-.32-1.4-.5-2.13-.5 -1.28 0-2.56.49-3.54 1.46l2.12 2.12h1.41l-.1 1.32c.62.62 1.42.92 2.23.92 0 0 .01 0 .01 0V12H5v2.5c0 .83.67 1.5 1.5 1.5H14c1.1 0 2-.9 2-2V4H7Zm-.01 5.05c-.43 0-.84-.12-1.19-.36l.15-1.87H3.87L2.84 5.79c.61-.36 1.31-.55 2.03-.55 1.07 0 2.07.42 2.83 1.17l1.41 1.41 -.6.6c-.41.4-.95.63-1.52.63ZM15 14c0 .55-.45 1-1 1s-1-.45-1-1v-2H8V9.87c.44-.15.86-.39 1.22-.74l.6-.6L12.29 11H13v-.71L8.4 5.7c-.12-.13-.26-.22-.4-.33V5h7v9Z"/></g></svg>