<svg viewBox="0 0 24 24" xmlns="http://www.w3.org/2000/svg"><path fill="none" d="M0 0h24v24H0Z"/><g><path opacity=".3" d="M9 6a2 2 0 1 0 0 4 2 2 0 1 0 0-4Z"/><path opacity=".3" d="M9 16c-2.7 0-5.8 1.29-6 2h12c-.22-.72-3.31-2-6-2Z"/><path d="M9 14c-2.67 0-8 1.34-8 4v2h16v-2c0-2.66-5.33-4-8-4Zm-6 4c.2-.71 3.3-2 6-2 2.69 0 5.78 1.28 6 2H3Z"/><path d="M20 10l0-3 -2 0 0 3 -3 0 0 2 3 0 0 3 2 0 0-3 3 0 0-2Z"/><path d="M9 12c2.21 0 4-1.79 4-4s-1.79-4-4-4C6.79 4 5 5.79 5 8c0 2.21 1.79 4 4 4Zm0-6c1.1 0 2 .9 2 2s-.9 2-2 2 -2-.9-2-2 .9-2 2-2Z"/></g></svg>