<svg viewBox="0 0 20 20" xmlns="http://www.w3.org/2000/svg"><path fill="none" d="M0 0h20v20H0Z"/><g><path opacity=".3" d="M6 6a1 1 0 1 0 0 2 1 1 0 1 0 0-2Z"/><path opacity=".3" d="M6.65 9.28L7.82 14l1.56 0L6.69 9.28Z"/><path d="M15.29 7.78l-2.4 1.12L11 7.01v-.02l1.89-1.89 2.4 1.12c.25.12.55.01.66-.24 .12-.25.01-.55-.24-.66l-2.72-1.27c-.19-.09-.41-.05-.56.1L11 5.57V5.5c0-.28-.22-.5-.5-.5s-.5.22-.5.5v1H7.93c-.26-1-1.27-1.71-2.4-1.45 -.73.17-1.32.77-1.48 1.49 -.22 1.02.32 1.93 1.16 2.3L6.5 14H6c-.55 0-1 .45-1 1v1h8v-1c0-.55-.45-1-1-1h-1.14l-3.3-5.77c.17-.21.3-.46.37-.73H10v1c0 .28.22.5.5.5s.5-.22.5-.5v-.07l1.43 1.43c.15.15.37.19.56.1l2.72-1.27c.25-.12.36-.41.24-.66 -.11-.26-.41-.37-.66-.25ZM6 8c-.55 0-1-.45-1-1s.45-1 1-1 1 .45 1 1 -.45 1-1 1Zm3.38 6H7.82L6.65 9.28h.04L9.38 14Z"/></g></svg>