<svg viewBox="0 0 20 20" xmlns="http://www.w3.org/2000/svg"><path fill="none" d="M0 0h20v20H0Z"/><g><path opacity=".3" d="M11 10c0-2 .99-3.77 2.5-4.86C12.51 4.42 11.31 4 10 4c-1.31 0-2.51.42-3.5 1.14C8.01 6.23 9 8 9 10c0 2-.99 3.77-2.5 4.86C7.49 15.58 8.69 16 10 16c1.31 0 2.51-.42 3.5-1.14C11.99 13.77 11 12 11 10Z"/><path opacity=".3" d="M8 10c0-1.76-.91-3.3-2.29-4.19C4.65 6.89 4 8.37 4 10c0 1.63.65 3.11 1.71 4.19C7.09 13.3 8 11.76 8 10Z"/><path opacity=".3" d="M14.29 5.81C12.91 6.7 12 8.24 12 10c0 1.76.91 3.3 2.29 4.19C15.35 13.11 16 11.63 16 10c0-1.63-.65-3.11-1.71-4.19Z"/><path d="M10 3c-3.87 0-7 3.13-7 7s3.13 7 7 7 7-3.13 7-7 -3.13-7-7-7Zm-6 7c0-1.63.65-3.11 1.71-4.19C7.09 6.7 8 8.24 8 10c0 1.76-.91 3.3-2.29 4.19C4.65 13.11 4 11.63 4 10Zm6 6c-1.31 0-2.51-.42-3.5-1.14C8.01 13.77 9 12 9 10c0-2-.99-3.77-2.5-4.86C7.49 4.42 8.69 4 10 4c1.31 0 2.51.42 3.5 1.14C11.99 6.23 11 8 11 10c0 2 .99 3.77 2.5 4.86 -.99.72-2.19 1.14-3.5 1.14Zm4.29-1.81C12.91 13.3 12 11.76 12 10c0-1.76.91-3.3 2.29-4.19C15.35 6.89 16 8.37 16 10c0 1.63-.65 3.11-1.71 4.19Z"/></g></svg>