<svg viewBox="0 0 20 20" xmlns="http://www.w3.org/2000/svg"><path fill="none" d="M0 0h20v20H0Z"/><g><path opacity=".3" d="M5.2 14.79c.32.09 1 .21 1.96.21 .2 0 .46-.01.74-.03L5.03 12.1c-.08 1.21.04 2.23.17 2.69Z"/><path opacity=".3" d="M12.84 5c-.2 0-.46.01-.74.03l2.87 2.87c.08-1.21-.04-2.24-.18-2.69 -.31-.09-.99-.21-1.95-.21Z"/><path opacity=".3" d="M7.01 7.01c-1.05 1.05-1.59 2.47-1.83 3.82l3.98 3.98c1.25-.23 2.73-.73 3.83-1.83 1.05-1.05 1.59-2.47 1.83-3.82l-3.98-3.98c-1.25.23-2.73.73-3.83 1.83Zm5.46 1.22l-4.24 4.24 -.71-.71 4.24-4.24 .71.71Z"/><path d="M15.54 4.46c-.22-.22-1.29-.46-2.7-.46 -2.02 0-4.73.5-6.53 2.31 -3.06 3.06-2.37 8.71-1.85 9.23 .22.22 1.29.46 2.7.46 2.02 0 4.73-.5 6.53-2.31 3.06-3.06 2.38-8.7 1.85-9.23ZM7.16 15c-.96 0-1.64-.12-1.96-.21 -.14-.46-.26-1.48-.18-2.69l2.87 2.87c-.27.02-.53.03-.73.03Zm5.83-2.01c-1.1 1.1-2.58 1.6-3.83 1.83l-3.98-3.98c.25-1.36.79-2.78 1.83-3.82 1.1-1.1 2.58-1.6 3.83-1.83l3.98 3.98c-.25 1.35-.79 2.77-1.83 3.82Zm1.98-5.09L12.1 5.03c.28-.02.54-.03.74-.03 .96 0 1.64.12 1.96.21 .13.46.25 1.48.17 2.69Z"/><path d="M7 9.5h6v1H7Z" transform="matrix(.7071-.7071.7071.7071-4.1421 10)"/></g></svg>