<svg viewBox="0 0 20 20" xmlns="http://www.w3.org/2000/svg"><path fill="none" d="M0 0h20v20H0Z"/><g><path opacity=".3" d="M6.31 8.39L9.5 6.15v-.7L7.95 4.37c-1.13.41-2.11 1.16-2.8 2.12l.48 1.67 .68.23Z"/><path opacity=".3" d="M8.12 12.5l3.76 0 1.13-3.37L10 7.02 6.99 9.13Z"/><path opacity=".3" d="M14.37 8.15l.48-1.67c-.7-.96-1.67-1.71-2.81-2.12L10.5 5.45v.7l3.19 2.24 .68-.24Z"/><path opacity=".3" d="M5.31 9.1L4 10.06c.01 1.37.49 2.63 1.27 3.63l1.52-.13 .4-.68L6 9.34l-.69-.24Z"/><path opacity=".3" d="M14.69 9.1l-.69.24 -1.19 3.53 .4.68 1.52.13c.79-1 1.26-2.26 1.27-3.63l-1.31-.95Z"/><path opacity=".3" d="M7.98 13.5l-.32.55 .81 1.74c.49.13 1 .2 1.53.2s1.04-.08 1.53-.2l.81-1.74 -.32-.55H7.98Z"/><path d="M10 3c-3.87 0-7 3.13-7 7s3.13 7 7 7 7-3.13 7-7 -3.13-7-7-7Zm.5 2.45l1.55-1.08c1.14.41 2.11 1.16 2.81 2.12l-.48 1.67 -.68.23 -3.2-2.24v-.7Zm2.51 3.68l-1.14 3.37H8.12L6.99 9.13 10 7.02l3.01 2.11ZM7.95 4.37L9.5 5.45v.7L6.31 8.39l-.68-.24 -.48-1.66c.69-.96 1.67-1.71 2.8-2.12ZM6.8 13.55l-1.52.13c-.79-1-1.26-2.26-1.27-3.63l1.3-.95 .69.24 1.19 3.53 -.39.68Zm4.73 2.25c-.49.13-1 .2-1.53.2s-1.04-.08-1.53-.2l-.81-1.74 .32-.55h4.04l.32.55 -.81 1.74Zm3.19-2.11l-1.52-.13 -.4-.68L14 9.34l.69-.24 1.3.95c-.01 1.37-.48 2.63-1.27 3.64Z"/></g></svg>