<svg viewBox="0 0 24 24" xmlns="http://www.w3.org/2000/svg"><path fill="none" d="M0 0h24v24H0Z"/><g><path opacity=".3" d="M8.93 11H11V4.07c-1.73.22-3.29.99-4.5 2.13C7.81 7.44 8.69 9.12 8.93 11Z"/><path opacity=".3" d="M19.93 11c-.15-1.18-.56-2.28-1.16-3.25 -.87.87-1.47 1.99-1.68 3.25h2.84Z"/><path opacity=".3" d="M5.23 7.75c-.6.97-1.01 2.07-1.16 3.25h2.84C6.7 9.74 6.1 8.62 5.23 7.75Z"/><path opacity=".3" d="M4.07 13c.15 1.18.56 2.28 1.16 3.25 .87-.87 1.47-1.99 1.68-3.25H4.07Z"/><path opacity=".3" d="M6.51 17.79c1.2 1.14 2.76 1.92 4.49 2.14V13H8.93c-.23 1.88-1.12 3.55-2.42 4.79Z"/><path opacity=".3" d="M17.5 6.2c-1.21-1.14-2.77-1.92-4.5-2.13V11h2.07c.24-1.88 1.12-3.56 2.43-4.8Z"/><path opacity=".3" d="M18.77 16.25c.61-.96 1.02-2.07 1.16-3.25h-2.84c.21 1.26.81 2.38 1.68 3.25Z"/><path opacity=".3" d="M13 13v6.93c1.73-.22 3.29-1 4.49-2.14 -1.3-1.24-2.19-2.91-2.42-4.79H13Z"/><path d="M12 2C6.48 2 2 6.48 2 12c0 5.52 4.48 10 10 10s10-4.48 10-10 -4.48-10-10-10ZM5.23 7.75C6.1 8.62 6.7 9.74 6.91 11H4.07c.15-1.18.56-2.28 1.16-3.25ZM4.07 13h2.84c-.21 1.26-.81 2.38-1.68 3.25 -.6-.97-1.01-2.07-1.16-3.25ZM11 19.93c-1.73-.22-3.29-1-4.49-2.14 1.3-1.24 2.19-2.91 2.42-4.79H11v6.93ZM11 11H8.93C8.69 9.12 7.81 7.44 6.5 6.2 7.71 5.06 9.27 4.29 11 4.07V11Zm8.93 0h-2.84c.21-1.26.81-2.38 1.68-3.25 .6.97 1.01 2.07 1.16 3.25ZM13 4.07c1.73.22 3.29.99 4.5 2.13 -1.31 1.24-2.19 2.92-2.43 4.8H13V4.07Zm0 15.86V13h2.07c.24 1.88 1.12 3.55 2.42 4.79 -1.2 1.14-2.76 1.92-4.49 2.14Zm5.77-3.68c-.87-.86-1.46-1.99-1.68-3.25h2.84c-.15 1.18-.56 2.28-1.16 3.25Z"/></g></svg>