<svg viewBox="0 0 24 24" xmlns="http://www.w3.org/2000/svg"><path fill="none" d="M0 0h24v24H0Z"/><path d="M12 3c-4.97 0-9 4.03-9 9s4.03 9 9 9c.83 0 1.5-.67 1.5-1.5 0-.39-.15-.74-.39-1.01 -.23-.26-.38-.61-.38-.99 0-.83.67-1.5 1.5-1.5H16c2.76 0 5-2.24 5-5 0-4.42-4.03-8-9-8Zm-5.5 9c-.83 0-1.5-.67-1.5-1.5C5 9.67 5.67 9 6.5 9c.83 0 1.5.67 1.5 1.5s-.67 1.5-1.5 1.5Zm3-4C8.67 8 8 7.33 8 6.5 8 5.67 8.67 5 9.5 5c.83 0 1.5.67 1.5 1.5s-.67 1.5-1.5 1.5Zm5 0c-.83 0-1.5-.67-1.5-1.5s.67-1.5 1.5-1.5 1.5.67 1.5 1.5 -.67 1.5-1.5 1.5Zm3 4c-.83 0-1.5-.67-1.5-1.5s.67-1.5 1.5-1.5 1.5.67 1.5 1.5 -.67 1.5-1.5 1.5Z"/></svg>