<svg viewBox="0 0 24 24" xmlns="http://www.w3.org/2000/svg"><path fill="none" d="M0 0h24v24H0Z"/><path d="M9.745 21.74c-4.44-1.03-7.75-5-7.75-9.75 0-5.523 4.477-10 10-10s10 4.477 10 10c0 4.747-3.308 8.72-7.75 9.74l-2.26 2.25 -2.26-2.26ZM7 18.25H7c.93.74 2.01 1.27 3.18 1.53l.56.12 1.24 1.24 1.24-1.25 .56-.13v0c1.23-.29 2.39-.87 3.36-1.686v0c-1.32-1.36-3.13-2.12-5.01-2.11 -2.04 0-3.87.87-5.148 2.25Zm-1.4-1.44h0c1.69-1.81 4.06-2.83 6.54-2.82v0c2.38-.01 4.67.94 6.362 2.63v0c2.55-3.61 1.71-8.6-1.89-11.16C13 2.9 8.01 3.74 5.45 7.34c-2.03 2.84-1.97 6.66.13 9.45Zm6.384-3.82v0c-2.21 0-4-1.8-4-4 0-2.21 1.79-4 4-4v0c2.2 0 4 1.79 4 4 0 2.2-1.8 4-4 4Zm0-2v0c1.1 0 2-.9 2-2 0-1.11-.9-2-2-2v0c-1.11 0-2 .89-2 2 0 1.1.89 2 2 2Z"/></svg>