<svg viewBox="0 0 24 24" xmlns="http://www.w3.org/2000/svg"><path fill="none" d="M0 0h24v24H0Z"/><path d="M12 22C6.477 22 2 17.523 2 12 2 6.477 6.477 2 12 2c5.523 0 10 4.477 10 10s-4.477 10-10 10Zm-4.987-3.75l0 0c1.41 1.13 3.17 1.74 4.98 1.74 1.97 0 3.77-.72 5.16-1.9h-.001c-1.32-1.36-3.13-2.12-5.01-2.11v0c-1.96-.01-3.83.81-5.15 2.25Zm-1.4-1.436h0c1.69-1.81 4.06-2.83 6.54-2.82v0c2.38-.01 4.67.94 6.362 2.63v0c2.55-3.61 1.71-8.6-1.89-11.16 -3.61-2.56-8.6-1.72-11.16 1.88 -2.03 2.84-1.97 6.66.13 9.45Zm6.384-3.82v0c-2.21 0-4-1.8-4-4 0-2.21 1.79-4 4-4v0c2.2 0 4 1.79 4 4 0 2.2-1.8 4-4 4Zm0-2v0c1.1 0 2-.9 2-2 0-1.11-.9-2-2-2v0c-1.11 0-2 .89-2 2 0 1.1.89 2 2 2Z"/></svg>