<svg viewBox="0 0 24 24" xmlns="http://www.w3.org/2000/svg"><path fill="none" d="M0 0h24v24H0Z"/><path d="M14 21l-2 2 -2-2H4.995v0c-1.11 0-2-.9-1.995-2V4.99c0-1.11.89-2 1.995-2h14.01c1.1 0 1.99.89 1.99 1.995v14.01 0c0 1.1-.9 1.99-2 1.99h-5.01Zm5-2V5H5v14h5.82l1.17 1.17 1.17-1.18h5.82Zm-11.03-.82v0c-.62-.27-1.21-.6-1.76-.98v0c1.28-2 3.5-3.21 5.88-3.21 2.4 0 4.51 1.2 5.77 3.04v0c-.54.39-1.12.74-1.73 1.02v0c-.94-1.31-2.45-2.08-4.06-2.08 -1.72 0-3.23.86-4.13 2.18ZM11.99 13v0c-1.94 0-3.5-1.57-3.5-3.5 0-1.94 1.56-3.5 3.5-3.5v0c1.93 0 3.5 1.56 3.5 3.5 0 1.93-1.57 3.5-3.5 3.5Zm0-2v0c.82 0 1.5-.68 1.5-1.5 0-.83-.68-1.5-1.5-1.5v0c-.83 0-1.5.67-1.5 1.5 0 .82.67 1.5 1.5 1.5Z"/></svg>