<svg viewBox="0 0 24 24" xmlns="http://www.w3.org/2000/svg"><path fill="none" d="M0 0h24v24H0Z"/><path d="M17.5 2v0c2.48 0 4.49 2.01 4.49 4.5 -.01 1.3-.57 2.54-1.55 3.39 .35.96.54 2.013.54 3.1v0c-.01 4.97-4.04 8.99-9.01 8.99 -4.98-.01-9-4.04-9-9.01 0-1.06.18-2.11.54-3.1v0c-1.88-1.64-2.08-4.48-.45-6.35 1.63-1.88 4.47-2.08 6.34-.45 .34.3.64.65.88 1.04V4.1c1.09-.21 2.22-.21 3.32 0v0c.81-1.34 2.27-2.16 3.83-2.16Zm0 2c-.83 0-1.58.4-2.04 1.05l-.1.14 -.718 1.17 -1.36-.26V6.09c-.75-.14-1.52-.16-2.27-.06l-.32.05 -1.36.25 -.72-1.18v0c-.72-1.18-2.26-1.56-3.44-.84 -1.18.71-1.56 2.25-.84 3.43 .1.16.22.32.36.46l.13.12 1.04.9 -.48 1.295H5.38c-1.33 3.63.53 7.65 4.16 8.98 3.63 1.32 7.65-.54 8.98-4.17 .28-.77.42-1.59.42-2.41 0-.72-.11-1.42-.32-2.09l-.12-.33 -.48-1.295 1.04-.91V8.29c1.04-.91 1.15-2.49.24-3.53 -.48-.55-1.17-.87-1.89-.87ZM10 13v0c0 1.1.89 2 2 2 1.1 0 2-.9 2-2h2v0c0 2.2-1.8 4-4 4 -2.21 0-4-1.8-4-4h2Z"/></svg>