<svg viewBox="0 0 24 24" xmlns="http://www.w3.org/2000/svg"><path fill="none" d="M0 0h24v24H0Z"/><path d="M12 2v0c4.97 0 9 4.02 9 9v7.5 0c0 1.93-1.57 3.5-3.5 3.5 -1.16 0-2.24-.58-2.9-1.53v0c-.82 1.44-2.65 1.95-4.09 1.13 -.48-.27-.87-.67-1.14-1.14v0c-1.1 1.59-3.28 2-4.87.9 -.9-.62-1.46-1.61-1.52-2.7l-.01-.2v-7.5 0c0-4.98 4.02-9 9-9Zm0 2v0c-3.78-.01-6.87 2.98-6.996 6.76l-.01.24v7.44l0 .13h0c.04.82.75 1.45 1.58 1.41 .41-.03.79-.22 1.06-.54l.08-.12v0c.62-.92 1.86-1.15 2.77-.53 .25.17.46.4.61.66h-.001c.27.48.87.65 1.36.38 .15-.09.28-.22.37-.38v0c.54-.97 1.76-1.31 2.72-.77 .21.12.41.28.57.48l.09.13v-.001c.46.68 1.39.86 2.08.39 .36-.26.6-.66.64-1.1l0-.15v-7.5 0c0-3.87-3.14-7-7-7Zm0 8c1.1 0 2 1.12 2 2.5s-.9 2.5-2 2.5c-1.11 0-2-1.12-2-2.5s.89-2.5 2-2.5ZM9.5 8v0c.82 0 1.5.67 1.5 1.5 0 .82-.68 1.5-1.5 1.5v0C8.67 11 8 10.32 8 9.5 8 8.67 8.67 8 9.5 8Zm5 0v0c.82 0 1.5.67 1.5 1.5 0 .82-.68 1.5-1.5 1.5v0c-.83 0-1.5-.68-1.5-1.5 0-.83.67-1.5 1.5-1.5Z"/></svg>