<svg viewBox="0 0 24 24" xmlns="http://www.w3.org/2000/svg"><path fill="none" d="M0 0h24v24H0Z"/><path d="M12 2v0c4.97 0 9 4.02 9 9v7.5 0c0 1.93-1.57 3.5-3.5 3.5 -1.16 0-2.24-.58-2.9-1.53v0c-.82 1.44-2.65 1.95-4.09 1.13 -.48-.27-.87-.67-1.14-1.14v0c-1.1 1.59-3.28 2-4.87.9 -.9-.62-1.46-1.61-1.52-2.7l-.01-.2v-7.5 0c0-4.98 4.02-9 9-9Zm0 2v0c-3.78-.01-6.87 2.98-6.996 6.76l-.01.24v7.44l0 .13h0c.04.82.75 1.45 1.58 1.41 .41-.03.79-.22 1.06-.54l.08-.12v0c.62-.92 1.86-1.15 2.77-.53 .25.17.46.4.61.66h-.001c.27.48.87.65 1.36.38 .15-.09.28-.22.37-.38v0c.54-.97 1.76-1.31 2.72-.77 .21.12.41.28.57.48l.09.13v-.001c.46.68 1.39.86 2.08.39 .36-.26.6-.66.64-1.1l0-.15v-7.5 0c0-3.87-3.14-7-7-7Zm4 9v0c0 2.2-1.8 4-4 4 -2.14 0-3.89-1.68-4-3.81l-.01-.2h2v0c0 1.1.89 2 2 2 1.1 0 2-.9 2-2h2Zm-4-6v0c1.1 0 2 .89 2 2 0 1.1-.9 2-2 2v0c-1.11 0-2-.9-2-2 0-1.11.89-2 2-2Z"/></svg>