<svg viewBox="0 0 24 24" xmlns="http://www.w3.org/2000/svg"><path fill="none" d="M0 0h24v24H0Z"/><path d="M12 2c3.5 0 6 3 7 6 3 1 4 3.73 4 6l-2.78.79v-.001c-.43.12-.73.51-.73.96v1.49 0c0 .96-.79 1.75-1.75 1.75h-.6v0c-.68-.01-1.3.33-1.67.89 -.93 1.404-2.09 2.1-3.49 2.1 -1.4 0-2.558-.71-3.49-2.11v0c-.38-.56-1-.9-1.67-.9h-.6v0c-.97 0-1.75-.79-1.75-1.75v-1.5 0c-.01-.45-.3-.84-.73-.97l-2.78-.8c0-2.266 1-5 4-6 1-3 3.5-6 7-6Zm0 2C9.89 4 7.93 5.78 6.98 8.371l-.1.26 -.32.95 -.95.31c-1.255.41-2.067 1.34-2.424 2.56l-.03.08 1.14.32h-.001c1.22.34 2.09 1.43 2.17 2.7l0 .18v1.24h.34v0c1.25 0 2.44.59 3.2 1.6l.13.19c.57.87 1.13 1.2 1.81 1.2 .63 0 1.16-.3 1.7-1.04l.11-.17v0c.69-1.05 1.84-1.72 3.1-1.79l.23-.01h.34v-1.25 0c-.01-1.28.8-2.41 2.003-2.83l.17-.06 1.13-.33 -.03-.09c-.34-1.16-1.08-2.04-2.22-2.484l-.21-.08 -.95-.32 -.32-.95c-.91-2.73-2.93-4.64-5.11-4.64Zm0 8c.82 0 1.5 1.12 1.5 2.5s-.68 2.5-1.5 2.5c-.83 0-1.5-1.12-1.5-2.5s.67-2.5 1.5-2.5ZM9.5 8v0c.82 0 1.5.67 1.5 1.5 0 .82-.68 1.5-1.5 1.5v0C8.67 11 8 10.32 8 9.5 8 8.67 8.67 8 9.5 8Zm5 0v0c.82 0 1.5.67 1.5 1.5 0 .82-.68 1.5-1.5 1.5v0c-.83 0-1.5-.68-1.5-1.5 0-.83.67-1.5 1.5-1.5Z"/></svg>