<svg viewBox="0 0 24 24" xmlns="http://www.w3.org/2000/svg"><path fill="none" d="M0 0h24v24H0Z"/><path d="M2 22v0c0-4.42 3.58-8 8-8 4.41 0 8 3.58 8 8h-2v0c0-3.32-2.69-6-6-6 -3.32 0-6 2.68-6 6H2Zm8-9c-3.32 0-6-2.69-6-6 0-3.32 2.68-6 6-6 3.31 0 6 2.685 6 6 0 3.31-2.69 6-6 6Zm0-2c2.21 0 4-1.79 4-4s-1.79-4-4-4C7.79 3 6 4.79 6 7c0 2.21 1.79 4 4 4Zm8.28 3.7v0c2.87 1.29 4.71 4.14 4.71 7.29h-2v0c0-2.37-1.39-4.51-3.54-5.48l.82-1.83Zm-.69-11.29V3.4c2.06.84 3.4 2.85 3.404 5.08v0c0 2.84-2.17 5.21-5 5.47v-2.013l-.001 0c1.91-.28 3.24-2.05 2.96-3.97 -.17-1.15-.89-2.14-1.93-2.65l.55-1.95Z"/></svg>