<svg viewBox="0 0 24 24" xmlns="http://www.w3.org/2000/svg"><path fill="none" d="M0 0h24v24H0Z"/><path d="M7 9v0c1.38 0 2.5-1.12 2.5-2.5C9.5 5.11 8.38 4 7 4v0C5.61 4 4.5 5.11 4.5 6.5 4.5 7.88 5.61 9 7 9Zm0 2v0c-2.49 0-4.5-2.02-4.5-4.5C2.5 4.01 4.51 2 7 2v0c2.48 0 4.5 2.01 4.5 4.5C11.5 8.98 9.48 11 7 11Zm10.5 2v0c1.1 0 2-.9 2-2 0-1.11-.9-2-2-2v0c-1.11 0-2 .89-2 2 0 1.1.89 2 2 2Zm0 2v0c-2.21 0-4-1.8-4-4 0-2.21 1.79-4 4-4v0c2.2 0 4 1.79 4 4 0 2.2-1.8 4-4 4Zm2.5 6v-.5 0c0-1.39-1.12-2.5-2.5-2.5 -1.39 0-2.5 1.11-2.5 2.5v.5h-2v-.5 0c0-2.49 2.01-4.5 4.5-4.5 2.48 0 4.5 2.01 4.5 4.5v.5h-2Zm-10 0v-4 0c0-1.66-1.35-3-3-3 -1.66 0-3 1.34-3 3v4H2v-4 0c0-2.77 2.23-5 5-5 2.76 0 5 2.23 5 5v4h-2Z"/></svg>