<svg viewBox="0 0 24 24" xmlns="http://www.w3.org/2000/svg"><path fill="none" d="M0 0h24v24H0Z"/><path d="M20 12v0c0-4.42-3.59-8-8-8 -4.42 0-8 3.58-8 8v4h3v0c.55 0 1 .44 1 1v3h8v-3 0c0-.56.44-1 1-1h3v-4Zm-2 6v3 0c0 .55-.45 1-1 1H7v0c-.56 0-1-.45-1-1v-3H3v0c-.56 0-1-.45-1-1v-5C2 6.477 6.477 2 12 2c5.523 0 10 4.477 10 10v5 0c0 .55-.45 1-1 1h-3ZM7.5 14v0c-.83 0-1.5-.68-1.5-1.5 0-.83.67-1.5 1.5-1.5v0c.82 0 1.5.67 1.5 1.5 0 .82-.68 1.5-1.5 1.5Zm9 0v0c-.83 0-1.5-.68-1.5-1.5 0-.83.67-1.5 1.5-1.5v0c.82 0 1.5.67 1.5 1.5 0 .82-.68 1.5-1.5 1.5Z"/></svg>