<svg viewBox="0 0 24 24" xmlns="http://www.w3.org/2000/svg"><path fill="none" d="M0 0h24v24H0Z"/><path d="M17 13v0c2.2 0 4 1.79 4 4 0 2.2-1.8 4-4 4 -2.21 0-4-1.8-4-4h-2v0c-.01 2.2-1.8 3.99-4.01 3.99 -2.21-.01-4-1.8-4-4.01s1.79-4 4-4c1.42 0 2.74.76 3.46 2h3.07v0c.71-1.24 2.03-2.01 3.46-2ZM7 15v0c-1.11 0-2 .89-2 2 0 1.1.89 2 2 2v0c1.1 0 2-.9 2-2 0-1.11-.9-2-2-2Zm10 0v0c-1.11 0-2 .89-2 2 0 1.1.89 2 2 2v0c1.1 0 2-.9 2-2 0-1.11-.9-2-2-2ZM16 3v0c2.2 0 4 1.79 4 4v3h2v2H2v-2h2V7v0c0-2.21 1.79-4 4-4h8Zm0 2H8c-1.06 0-2 .95-2 2v3h12V7c0-1.06-.95-2-2-2Z"/></svg>