<svg viewBox="0 0 24 24" xmlns="http://www.w3.org/2000/svg"><path fill="none" d="M0 0h24v24H0Z"/><path d="M12 14v2 0c-3.32 0-6 2.68-6 6H4v0c0-4.42 3.58-8 8-8Zm0-1c-3.32 0-6-2.69-6-6 0-3.32 2.68-6 6-6 3.31 0 6 2.685 6 6 0 3.31-2.69 6-6 6Zm0-2c2.21 0 4-1.79 4-4s-1.79-4-4-4C9.79 3 8 4.79 8 7c0 2.21 1.79 4 4 4Zm8.828 10.07l-2.83 2.92 -2.83-2.93c-1.57-1.62-1.57-4.24 0-5.86h-.001c1.48-1.57 3.95-1.63 5.51-.14 .04.04.09.08.13.13 1.56 1.61 1.56 4.24 0 5.85Zm-1.44-1.39c.81-.85.81-2.24 0-3.08v0c-.72-.77-1.93-.81-2.7-.09 -.04.02-.07.05-.09.08 -.82.84-.82 2.23 0 3.07l1.39 1.43 1.39-1.44Z"/></svg>