<svg viewBox="0 0 24 24" xmlns="http://www.w3.org/2000/svg"><path fill="none" d="M0 0h24v24H0Z"/><path d="M12 14v2 0c-3.32 0-6 2.68-6 6H4v0c0-4.42 3.58-8 8-8Zm0-1c-3.32 0-6-2.69-6-6 0-3.32 2.68-6 6-6 3.31 0 6 2.685 6 6 0 3.31-2.69 6-6 6Zm0-2c2.21 0 4-1.79 4-4s-1.79-4-4-4C9.79 3 8 4.79 8 7c0 2.21 1.79 4 4 4Zm9.44 9.032l1.5 1.5 -1.42 1.41 -1.51-1.51v-.001c-1.91 1.12-4.36.48-5.48-1.42 -1.13-1.91-.49-4.36 1.41-5.48 1.9-1.13 4.35-.49 5.47 1.41 .73 1.25.73 2.8 0 4.06Zm-3.45-.04v0c1.1 0 2-.9 2-2 0-1.11-.9-2-2-2v0c-1.11 0-2 .89-2 2 0 1.1.89 2 2 2Z"/></svg>