<svg viewBox="0 0 24 24" xmlns="http://www.w3.org/2000/svg"><path fill="none" d="M0 0h24v24H0Z"/><path d="M17.841 15.659l.17.17 .17-.18v0c.87-.88 2.3-.88 3.18-.001 .87.87.87 2.3 0 3.18L18 22.17l-3.36-3.36h-.001c-.88-.88-.88-2.31-.001-3.19 .87-.88 2.3-.88 3.18-.001Zm-5.85-1.66v2 0c-3.32 0-6 2.68-6 6h-2 0c0-4.33 3.43-7.87 7.75-8l.25-.01Zm0-13c3.31 0 6 2.685 6 6v0c0 3.22-2.56 5.87-5.78 5.99l-.23 0c-3.32 0-6-2.69-6-6l-.001-.001c-.01-3.23 2.55-5.88 5.77-6l.22-.01Zm0 2c-2.21 0-4 1.79-4 4s1.79 4 4 4 4-1.79 4-4 -1.79-4-4-4Z"/></svg>