<svg viewBox="0 0 24 24" xmlns="http://www.w3.org/2000/svg"><path fill="none" d="M0 0h24v24H0Z"/><path d="M1 22v0c0-4.42 3.58-8 8-8 4.41 0 8 3.58 8 8h-2v0c0-3.32-2.69-6-6-6 -3.32 0-6 2.68-6 6H1Zm8-9c-3.32 0-6-2.69-6-6 0-3.32 2.68-6 6-6 3.31 0 6 2.685 6 6 0 3.31-2.69 6-6 6Zm0-2c2.21 0 4-1.79 4-4s-1.79-4-4-4C6.79 3 5 4.79 5 7c0 2.21 1.79 4 4 4ZM21.54.78l0-.001c.95 1.93 1.45 4.05 1.45 6.21 0 2.23-.53 4.34-1.46 6.21l-1.65-1.2 0 0c.72-1.58 1.09-3.29 1.09-5.02 0-1.8-.4-3.493-1.1-5.02l1.64-1.2Zm-3.31 2.4l-.001 0c.49 1.21.75 2.5.75 3.81v-.001c0 1.3-.26 2.6-.76 3.81l-1.68-1.22v0c.28-.84.43-1.72.43-2.6v0c0-.89-.15-1.77-.43-2.6l1.67-1.22Z"/></svg>