<svg viewBox="0 0 24 24" xmlns="http://www.w3.org/2000/svg"><path fill="none" d="M0 0h24v24H0Z"/><path d="M12.36 13.36l1.77 1.02h-.001c-1.06 2.34-1.18 5.01-.32 7.44v0c-.61.11-1.22.16-1.83.16h-.001c-1.42 0-2.82-.3-4.11-.88l4.47-7.754Zm3.51 2.032l4.234 2.44H20.1c-1.11 1.53-2.62 2.71-4.37 3.43h0c-.67-1.8-.67-3.78 0-5.57l.12-.31Zm-7.023-4.06l1.77 1.02 -4.48 7.75v0c-1.66-1.2-2.91-2.87-3.59-4.79h0c2.41-.45 4.58-1.77 6.08-3.72l.2-.28Zm13.04-.73c.06.45.09.91.09 1.38h0c0 1.41-.3 2.81-.88 4.11l-4.24-2.45v0c1.19-1.58 2.92-2.66 4.866-3.03l.15-.03ZM2.86 7.872l4.23 2.44v0c-1.23 1.61-3.03 2.7-5.03 3.05v-.001c-.07-.46-.1-.93-.1-1.39 0-1.47.31-2.856.88-4.11Zm14.96-4.008l0-.001c1.65 1.19 2.9 2.86 3.59 4.78V8.64c-2.42.44-4.59 1.76-6.09 3.71l-.21.27 -1.78-1.03 4.47-7.75ZM11.97 1.98c1.46 0 2.856.31 4.11.88L11.6 10.61 9.82 9.58h0c1.06-2.35 1.17-5.02.31-7.442V2.14c.6-.12 1.21-.17 1.83-.17Zm-3.753.73v0c.66 1.79.66 3.77-.01 5.57l-.12.3L3.85 6.13v0C4.91 4.65 6.34 3.5 8.01 2.78l.2-.09Z"/></svg>