<svg viewBox="0 0 24 24" xmlns="http://www.w3.org/2000/svg"><path fill="none" d="M0 0h24v24H0Z"/><path d="M14.12 9.87c4.29 4.295 6.82 8.72 5.657 9.9 -.48.47-1.49.34-2.81-.28v0c-3.26 2.15-7.54 1.96-10.59-.48l-.04.04 -1.42-1.42 .03-.04H4.94C2.5 14.53 2.31 10.26 4.46 7c-.62-1.33-.75-2.333-.28-2.81C5.3 3.06 9.46 5.36 13.59 9.37l.48.47Zm-1.42 1.41c-1.89-1.89-3.84-3.46-5.48-4.43l-.19.18H7.02c-2.47 2.46-2.74 6.35-.657 9.142l1.84-1.846v0c-.29-1.07.34-2.17 1.41-2.45 1.06-.29 2.16.34 2.44 1.41 .28 1.06-.35 2.16-1.42 2.44 -.34.09-.7.09-1.04 0L7.75 17.57H7.75c2.78 2.08 6.68 1.8 9.14-.657l.17-.19 -.06-.09c-.98-1.62-2.52-3.53-4.369-5.38Zm7.071-7.08v0c.78.78.78 2.04 0 2.82 -.06.05-.11.1-.17.14V7.15c1.57 2.5 1.82 5.62.66 8.34v0c-.42-.8-.88-1.57-1.39-2.31h-.001c.4-2.26-.32-4.57-1.94-6.19v0c-1.62-1.63-3.94-2.35-6.19-1.94l0 0c-.74-.52-1.51-.98-2.31-1.39v0c2.72-1.17 5.84-.92 8.347.66l-.001-.001c.69-.87 1.94-1.01 2.81-.32 .05.04.11.09.16.14Z"/></svg>