<svg viewBox="0 0 24 24" xmlns="http://www.w3.org/2000/svg"><path fill="none" d="M0 0h24v24H0Z"/><path d="M12 2c5.523 0 10 4.477 10 10s-4.477 10-10 10C6.477 22 2 17.523 2 12 2 6.477 6.477 2 12 2Zm0 4v0c-3.32 0-6 2.68-6 6 0 3.31 2.68 6 6 6v0c3.31 0 6-2.69 6-6 0-3.32-2.69-6-6-6Zm0 1.75l0 0c1.38-.01 2.5 1.11 2.5 2.49 0 .6-.23 1.19-.63 1.64 .56.45.92 1.11.92 1.85 0 1.38-1.26 2.5-2.8 2.5 -1.55 0-2.8-1.12-2.8-2.5 0-.74.35-1.4.92-1.86v-.001c-.91-1.04-.81-2.62.23-3.53 .45-.4 1.04-.62 1.64-.62Zm0 5c-.76 0-1.3.48-1.3 1 0 .51.54 1 1.3 1 .75 0 1.3-.49 1.3-1 0-.52-.55-1-1.3-1Zm0-3.5v0c-.56 0-1 .44-1 1 0 .55.44 1 1 1v0c.55 0 1-.45 1-1 0-.56-.45-1-1-1Z"/></svg>