<svg viewBox="0 0 24 24" xmlns="http://www.w3.org/2000/svg"><path fill="none" d="M0 0h24v24H0Z"/><path d="M16.5 2v0C19.53 2 22 4.46 22 7.5V10c0 .88-.39 1.686-1 2.23v4.76 0c-.01 1.27-.81 2.4-2 2.82v1.17 0c0 .55-.45 1-1 1H6v0c-.56 0-1-.45-1-1v-1.17h0c-1.2-.43-2.01-1.56-2-2.83v-11l0 0c0-2.21 1.79-4 4-4h9.5Zm-7 9H5v6 0c0 .5.37.93.88.99l.11 0h12v0c.5-.01.93-.38.99-.89l0-.12v-4h-6.04v0c-.25 1.72-1.73 2.99-3.47 3h-3.5v-2h3.5v0c.77-.01 1.41-.59 1.49-1.36l0-.15v0c-.01-.78-.59-1.42-1.36-1.5l-.15-.01Zm7-7H7v-.001c-1.05-.01-1.92.8-2 1.85l-.01.15v3h4.5 -.001c1.35-.01 2.58.77 3.16 2h6.337v0c.5-.01.93-.38.99-.89l0-.12v-2.5 0c0-1.86-1.46-3.4-3.308-3.495l-.2-.01Z"/></svg>