<svg viewBox="0 0 24 24" xmlns="http://www.w3.org/2000/svg"><path fill="none" d="M0 0h24v24H0Z"/><path d="M15.5 2l-.001 0c1.93-.01 3.5 1.56 3.5 3.49 0 .22-.03.44-.07.66l-.02.06 0-.001c2.35.78 3.63 3.33 2.84 5.69 -.42 1.23-1.34 2.23-2.55 2.73l-1.09 6.5h0c-.09.48-.5.83-.99.83H6.8v0c-.49-.01-.91-.36-.99-.84l-1.029-6.17v0c-1.66-.1-2.92-1.52-2.83-3.17 .06-1.21.85-2.26 1.99-2.66l-.01-.17h0c-.01-3.32 2.68-6.01 5.99-6.01 .89-.01 1.77.19 2.57.58l-.001-.001c.64-.99 1.74-1.59 2.92-1.58ZM11 15H9v5h2v-5Zm4 0h-2v5h2v-5Zm2.5-2v0c1.38-.01 2.49-1.12 2.49-2.51 -.01-1.39-1.12-2.5-2.51-2.5 -.33 0-.66.06-.96.19l-.18.08v0c-.96.49-2.14.13-2.67-.81l-.07-.14v0c-.66-1.43-2.08-2.34-3.64-2.33 -2.15 0-3.891 1.68-3.995 3.76l-.01.19 0 .17v0c.01.8-.46 1.53-1.186 1.86l-.15.05h0c-.53.18-.8.75-.61 1.27 .14.39.51.66.94.66h12.5Z"/></svg>