<svg viewBox="0 0 24 24" xmlns="http://www.w3.org/2000/svg"><path fill="none" d="M0 0h24v24H0Z"/><path d="M8 6v3.99h3v-4h2v3.99h3v-4h2v3.99l1 0V9.96c1.58-.01 2.9 1.23 2.99 2.82l0 .17v1c0 1.01-.38 1.94-1 2.64l-.01 4.355v0c0 .55-.45 1-1 1h-16v0c-.56 0-1-.45-1-1v-4.36h0c-.54-.62-.88-1.38-.98-2.19l-.03-.26 -.01-.21v-1H1.95c-.01-1.59 1.23-2.91 2.82-3l.17-.01 1-.01v-4h2Zm11 6H5v0c-.51 0-.94.37-1 .88l-.01.11v.97l0 .14v0c.06 1.05.93 1.88 1.99 1.88v0c.98 0 1.83-.73 1.98-1.7l.01-.16 0-.18c.03-1.25 1.827-1.3 1.98-.14l.01.13 0 .14v0c.06 1.1 1 1.94 2.1 1.88 1-.06 1.81-.86 1.88-1.86l.01-.29c.12-1.16 1.862-1.16 1.98 0l.01.28h0c.07 1.1 1.03 1.93 2.13 1.85 .99-.08 1.78-.87 1.85-1.86l0-.15v-1 0c-.01-.51-.38-.94-.89-1l-.12-.01ZM7 1c1.32.871 1.66 2.088 1.44 2.888v-.001c-.22.8-1.04 1.27-1.84 1.06 -.81-.22-1.28-1.04-1.061-1.84 .29-1.11 1.44-.62 1.44-2.12Zm5 0c1.32.871 1.66 2.088 1.44 2.888v-.001c-.22.8-1.04 1.27-1.84 1.06 -.81-.22-1.28-1.04-1.061-1.84 .29-1.11 1.44-.62 1.44-2.12Zm5 0c1.32.871 1.66 2.088 1.44 2.888v0c-.22.8-1.04 1.27-1.84 1.06 -.81-.22-1.28-1.04-1.07-1.84 .29-1.11 1.44-.62 1.44-2.12Z"/></svg>