<svg viewBox="0 0 24 24" xmlns="http://www.w3.org/2000/svg"><path fill="none" d="M0 0h24v24H0Z"/><path d="M12 2c5.523 0 10 4.477 10 10s-4.477 10-10 10C6.477 22 2 17.523 2 12 2 6.477 6.477 2 12 2Zm1.67 14h-3.34l-1.38 1.89 .55 1.7v0c.8.26 1.64.39 2.49.39 .87 0 1.71-.14 2.49-.4l.55-1.71 -1.38-1.9Zm-8.38-5.128l-1.3.93 -.01.19c0 1.73.54 3.33 1.48 4.64h1.91l1.32-1.82 -1.03-3.17 -2.393-.78Zm13.412 0l-2.4.77 -1.03 3.17 1.32 1.82h1.91 -.001c.96-1.36 1.48-2.98 1.48-4.64l-.01-.2 -1.3-.94ZM14.28 4.333l-1.29.94v2.51l2.69 1.95L17.91 9l.55-1.71 0 0c-1.04-1.43-2.51-2.48-4.2-2.99Zm-4.59 0v-.001c-1.69.5-3.17 1.55-4.2 2.98l.55 1.702 2.23.72 2.69-1.96v-2.52l-1.3-.94Z"/></svg>