<svg viewBox="0 0 24 24" xmlns="http://www.w3.org/2000/svg"><path fill="none" d="M0 0h24v24H0Z"/><path d="M10.758 11.828l7.849-7.849 1.41 1.41 -1.42 1.415 2.47 2.47 -1.42 1.41 -2.48-2.48 -1.42 1.41 2.12 2.12 -1.42 1.41 -2.13-2.122 -2.192 2.192v-.001c1.51 2.3.87 5.4-1.43 6.92 -1.98 1.3-4.61 1.03-6.28-.64H4.41c-1.96-1.95-1.97-5.12-.02-7.08 1.68-1.69 4.32-1.96 6.3-.64Zm-.64 6.29v0c1.2-1.14 1.25-3.04.11-4.25s-3.04-1.26-4.25-.12c-.05.03-.08.07-.12.11v0c-1.16 1.19-1.12 3.09.07 4.24 1.16 1.12 3 1.12 4.16 0Z"/></svg>