<svg viewBox="0 0 24 24" xmlns="http://www.w3.org/2000/svg"><path fill="none" d="M0 0h24v24H0Z"/><path d="M6 2c0 .51.49 1 1 1h10c.51 0 1-.49 1-1h2c0 1.657-1.343 3-3 3h-4l0 2.06c3.94.49 6.99 3.859 6.99 7.93v6c0 .55-.45 1-1 1h-14c-.56 0-1-.45-1-1v-6c0-4.08 3.05-7.45 7-7.94V4.98h-4c-1.66 0-3-1.34-3-3h2Zm6 7c-3.24 0-6 2.76-6 6v5h12v-5c0-3.24-2.77-6-6-6Zm0 2c.74 0 1.436.2 2.032.55l-2.74 2.73c-.39.39-.39 1.02 0 1.41 .36.36.92.38 1.32.08l.09-.09 2.74-2.74c.35.59.55 1.29.55 2.032 0 2.21-1.79 4-4 4s-4-1.79-4-4 1.79-4 4-4Z"/></svg>