<svg viewBox="0 0 24 24" xmlns="http://www.w3.org/2000/svg"><path fill="none" d="M0 0h24v24H0Z"/><path d="M17.457 3l3.54 0 0 3.52 -5.47 5.46 2.82 2.82 1.41-1.42 1.41 1.41 -2.474 2.47 2.82 2.82 -1.42 1.41 -2.83-2.83 -2.48 2.47 -1.42-1.42 1.41-1.42 -2.83-2.83 -2.83 2.82 1.41 1.41L9.1 21.1l-2.48-2.48 -2.83 2.82 -1.42-1.42 2.82-2.83 -2.48-2.474 1.41-1.42 1.41 1.41 2.82-2.83 -5.46-5.46 -.01-3.54 3.54 0 5.45 5.45 5.45-5.46Zm-7.58 10.406l-2.83 2.82 .7.7 2.827-2.83 -.71-.71Zm9.12-8.41h-.72l-4.87 4.869 .7.7 4.881-4.88v-.7Zm-14 0v.7l11.241 11.24 .7-.71L5.69 4.98l-.72-.01Z"/></svg>