<svg viewBox="0 0 32 32" xmlns="http://www.w3.org/2000/svg"><path d="M26.19 12.83c-3.33 0-5.29 3.15-5.42 3.15 -.13 0-2.08-3.16-5.43-3.16 -3.35 0-4.31 3.15-4.41 3.15 -.11 0-.88-2.59-3.77-2.59 -2.35 0-2.68 1.07-2.88 1.07 0 0 .17-1.16.52-3.22h5.78V8.96H2.75l-1.33 7.57h2.53s.57-1.07 2.11-1.07c1.53 0 2.46 1.17 2.46 2.51 0 1.32-1.04 2.78-2.47 2.78 -1.44 0-2.27-1.24-2.27-2.09 -1.19 0-2.83 0-2.83 0 0 .75.6 4.27 5.08 4.27 3.65 0 4.82-2.73 4.82-3.05 0 .27 1.41 3.04 4.41 3.04 3.47 0 5.22-3.05 5.42-3.05 .2 0 2.26 3.04 5.41 3.04 3.14 0 4.76-2.78 4.76-5.11 -.01-2.34-1.44-5.06-4.77-5.06Zm-7.1 5.1h-.01c-.02.02-1.95 2.36-3.74 2.36 -1.8 0-2.13-1.79-2.13-2.37 0-.58.33-2.37 2.12-2.37 1.78 0 3.71 2.33 3.73 2.36Zm9.24 0c0 .57-.34 2.36-2.13 2.36 -1.79 0-3.71-2.34-3.74-2.37v-.01c.02-.03 1.94-2.37 3.73-2.37s2.12 1.78 2.12 2.36Z"/></svg>