<svg viewBox="0 0 32 32" xmlns="http://www.w3.org/2000/svg"><path d="M3 6v20h26V6Zm2 2h22v16h-3.41c-.08-.14-.05-.33-.16-.44 -.38-.38-.92-.57-1.44-.57 -.53 0-1.06.18-1.44.56 -.12.11-.08.3-.16.43h-8.82c-.08-.14-.05-.33-.16-.44 -.38-.38-.92-.57-1.44-.57 -.53 0-1.06.18-1.44.56 -.12.11-.08.3-.16.43H4.96Zm7 2c-2.2 0-4 1.8-4 4 0 1.11.47 2.11 1.21 2.84 -1.34.9-2.22 2.44-2.22 4.15h2c0-1.66 1.34-3 3-3 1.65 0 3 1.34 3 3h2c0-1.72-.89-3.26-2.22-4.16 .74-.73 1.21-1.74 1.21-2.85 0-2.2-1.81-4-4-4Zm0 2c1.11 0 2 .88 2 2 0 1.11-.89 2-2 2 -1.12 0-2-.89-2-2 0-1.12.88-2 2-2Zm7 1v2h6v-2Zm0 4v2h6v-2Z"/></svg>