<svg viewBox="0 0 32 32" xmlns="http://www.w3.org/2000/svg"><path d="M5.34 5c-1.08 0-1.35.27-1.35 1.35v18.29c0 1.09.27 1.35 1.34 1.35h21.25c1.14 0 1.4-.25 1.4-1.4V6.39c0-1.16-.26-1.42-1.41-1.42H5.31Zm19.58 2.08c.14 0 .3.01.44 0 .46-.04.62.2.62.65 -.01 0-.01.01-.01.02h0v13.34c0 .26-.04.63-.38.63 -.57-.02-1.26.32-1.66-.26 -.27-.4-.36-.19-.58-.06 -2.45 1.36-5.88.32-6.63-3.91 -.28-1.54-.04-3.08.71-4.59 .54-1.1 2.61-3.49 6.24-1.4V8.24c0-1.21-.01-1.21 1.19-1.21Zm-14.09 3.58c.96-.04 1.92.15 2.88.55 1.87.77 1.26 2.71 1.26 5.89 .12 1.18-.2 2.67.42 4.07 .08.2.01.36-.13.49 -.39.3-1.49.1-1.82-.34 -.09-.11-.09-.17-.18-.29 -.17-.18-.34-.11-.55.04 -2.64 1.66-6.44.98-6.75-1.99 -.15-1.35.56-2.62 1.81-3.26 1.75-.9 4.95-.55 5.03-1.42 .05-.47-.09-.93-.52-1.26 -1.27-.93-3.12-.4-3.67 1.07 -.2.5-.43.43-.81.38 -.45-.07-.79-.15-1.04-.26 -1.33-.53.39-2.54 1.14-2.95 .94-.5 1.89-.75 2.85-.78Zm10.46 2.32c-.72.03-1.4.43-1.77 1.18 -.73 1.47-.71 3.02-.02 4.5 .782 1.68 3.22 1.88 4.11-.24 .31-.74.57-3.21-.38-4.49 -.5-.69-1.25-1.02-1.96-.98Zm-8.45 4c-.06-.02-.13-.02-.23 0 -1.1.21-2.22.38-3.32.64 -.54.12-.91.51-.9 1.12 .03 1.07 1.17 1.15 1.51 1.21 1.86.01 3.1-1.13 3.04-2.57 -.02-.17.01-.37-.14-.42Zm-6.58 5.99c.15-.03.35.03.5.03 6.2-.02 12.21-.03 18.41-.01 .31 0 .77-.21.77.46 0 .7-.52.46-.84.46l-18.34 0c-.35 0-.86.22-.84-.51 0-.33.13-.44.29-.46Z"/></svg>