<svg viewBox="0 0 32 32" xmlns="http://www.w3.org/2000/svg"><g><path d="M5 5v22h22V5H5Zm2 2h18v18H7V7Z"/><path d="M15 9h2v5h-2Z"/><path d="M10 11h11v1H10Z"/><path d="M19.49 14l-8.5 0 0-1 9 0Z"/><path d="M18.22 17.21c-.14-.1-.32-.21-.31-.22l-.03-.05c-.02-.04-.04-.08-.05-.12 -.02-.1-.05-.18-.08-.26 -.08-.15-.22-.17-.33-.24 -.24-.13-.47-.24-.71-.35 -.48-.22-.97-.4-1.47-.53 -1.01-.28-2.035-.44-3.07-.46 -.26-.01-.52 0-.78 0 -.29.01-.58.03-.86.12 -.57.14-1.09.44-1.49.85 -.85.798-1.2 1.99-1.05 3.13 .125 1.17 1.03 2.25 2.17 2.64 .55.2 1.19.28 1.71.23 .27-.01.54-.03.81-.08 .27-.04.54-.09.8-.17 1.06-.28 2.061-.81 2.86-1.54 .4-.37.77-.76 1.1-1.18 .15-.22.32-.43.45-.67 .05-.13.12-.24.16-.375 .01-.07.04-.14.05-.21l.01-.12c0-.03-.01-.02.01-.08 .04-.12.05-.28.01-.39Zm-3 1.63c-.6.59-1.31 1.07-2.115 1.4 -.2.08-.42.14-.63.19 -.22.06-.44.09-.66.12 -.47.08-.84.07-1.24-.02 -.78-.18-1.46-.79-1.58-1.61 -.16-.82.21-1.71.83-2.15 .3-.24.65-.37 1.01-.43 .17-.04.35-.03.54-.03l.68.04c.91.08 1.79.32 2.67.59 .43.14.86.3 1.29.47 .09.03.17.08.26.12 -.09.11-.17.23-.26.34 -.26.33-.57.63-.86.93Z"/><path d="M18.11 16.48l8.54 3.03 -1.42 2.65 -7.77-4.224Z"/><path d="M20 13c-.17 1.66-.65 3.28-1.59 4.67l-1.54-.87c.73-1.04 1.18-2.42 1.32-3.811h1.79Z"/></g></svg>