<svg viewBox="0 0 32 32" xmlns="http://www.w3.org/2000/svg"><path d="M29 9l-1.56.1 -1.15 2.25 -.66-2.13 -1.62.1 .22.58c-.42-.47-1.19-.54-1.82-.49l-1.97.13 -.17 1.58c-.05-.05-.65-1.64-2.67-1.5 -2.04.13-2.81 1.66-3.18 2.33l.19-2.03 -1.43.08 -.33 3.27 -1.9-3.13 -1.35.08 -.5 5.16 -1.53-5.04 -1.21.08 -2.85 6 1.59-.1 .4-.91 1.98-.13 .22.85 2.83-.18 .3-3.26 1.88 3.11 1.25-.09 .19-2c.49 1.43 1.46 2.02 2.77 1.93 2-.12 2.64-1.42 2.97-1.88l-.17 1.55 1.41-.09 .2-1.9 .95 1.82 1.82-.13 -1.26-1.92c1.14-.46 1.64-1.34 1.59-2.44l.79 2.12 -.25 2.17 1.41-.09 .24-2.19 2.17-3.87Zm-7.24 1.78c.62-.03.97 0 1.15.1 .14.08.19.24.16.51 -.03.28-.16.46-.38.58 -.22.11-.58.18-1.09.21l.13-1.43Zm-4.21.33c.2-.01.4.04.6.12 .16.08.35.22.55.4l1.55-.11 -.06.59 -3.16.2 -.13 1.17 1.71-.11c-.23.31-.48.55-.76.69 -.21.12-.44.19-.67.21 -.43.03-.8-.11-1.08-.4 -.29-.31-.41-.69-.36-1.16 .05-.49.26-.89.65-1.21 .32-.27.69-.44 1.09-.46ZM6.87 12.39l.41 1.84 -1.2.08 .77-1.93Zm25.11 2.71l-4.67.31 -1.59 4.06 -.68-3.92 -1.52.09 1.18 5.81 1.59-.1 2.36-5.7 -.64 5.58 3.23-.2 .15-1.3 -1.73.11 .11-1 1.72-.12 .16-1.39 -1.74.11 .09-.91 1.73-.11 .16-1.4Zm-8.6.56l-1.42.09 -.65 5.91 1.41-.09 .65-5.92Zm-1.67.12l-3.75.23 -.15 1.38 1.11-.08 -.45 4.22 -1.61-5.46 -1.19.07 -2.75 5.78 .1-1.03 -1.83.11 .09-.99 1.82-.11 .13-1.39 -1.83.1 .08-.88 1.82-.13 .12-1.37 -3.25.19 -.13 1.32c-.19-.99-1.13-1.24-2.13-1.17l-1.95.12 -.15 1.51c-.18-.28-.68-1.54-2.56-1.42 -2.04.13-3.26 1.77-3.39 3.21 -.16 1.84 1.18 2.97 2.82 2.87 1.25-.07 2.29-.87 2.84-1.76l-.15 1.42 1.41-.09 .18-1.84 .96 1.76 6.31-.38 .4-.81 1.96-.14 .21.77 2.9-.19 .49-4.53 1.2-.09 .15-1.38ZM7.95 18.01c.51.01.74.15.7.63 -.07.69-.73.75-1.44.79l.13-1.41c.23-.02.43-.03.6-.03Zm8.13.04l.39 1.85 -1.18.08 .78-1.94Zm-12.87.26c.59-.04.98.17 1.31.78L5.84 19l-.14 1.46 -1.35.08c-.38.51-.82.89-1.46.92 -1.08.07-1.5-.75-1.43-1.53 .06-.78.78-1.6 1.73-1.66Zm6.77.84l-.29 2.96 -1.1-1.66c.66-.27 1.13-.65 1.38-1.32Z"/></svg>