<svg viewBox="0 0 32 32" xmlns="http://www.w3.org/2000/svg"><path d="M24.75 1.375l-1.1 1.65c1.56 1.01 2.85 2.4 3.78 4.06l1.75-.97c-1.08-1.95-2.61-3.57-4.44-4.75Zm-1.69 2.5l-1.13 1.65c1.2.83 2.19 1.8 2.9 3.06l1.71-1c-.89-1.55-2.11-2.76-3.5-3.72Zm-6.07 1.12c-4.43 0-8 3.57-8 8h2c0-3.38 2.62-6 6-6 3.37 0 6 2.62 6 6 0 2.24-.66 3.47-1.375 4.68 -.73 1.21-1.625 2.48-1.625 4.31 0 1.65-1.35 3-3 3v2c2.74 0 5-2.26 5-5 0-1.17.59-1.98 1.375-3.29 .77-1.31 1.625-3.07 1.625-5.72 0-4.43-3.58-8-8-8Zm0 3c-2.75 0-5 2.25-5 5h2c0-1.66 1.34-3 3-3 1.65 0 3 1.34 3 3h2c0-2.75-2.26-5-5-5Zm0 5c-.56 0-1 .44-1 1 0 .55.44 1 1 1 .55 0 1-.45 1-1 0-.56-.45-1-1-1Zm-3 3c-.56 0-1 .44-1 1 0 .55.44 1 1 1 .55 0 1-.45 1-1 0-.56-.45-1-1-1Zm-3.79 1.93l-1.19 1.21 2.81 2.81 1.21-1.19Zm-2.22 4.06c-.56 0-1 .44-1 1 0 .55.44 1 1 1 .55 0 1-.45 1-1 0-.56-.45-1-1-1Zm-3 3c-.56 0-1 .44-1 1 0 .55.44 1 1 1 .55 0 1-.45 1-1 0-.56-.45-1-1-1Z"/></svg>