<svg viewBox="0 0 32 32" xmlns="http://www.w3.org/2000/svg"><path d="M18.08 6.08c-5.44-.1-11.43 1.27-16.09 3.91 2.68-1.05 5.38-1.81 8.27-2.44 3.66-.81 7.43-1.24 10.75-.73 7.41 1.157 9.56 6.2 4.8 11.26 -.5.52-1.18 1.1-1.81 1.56L16.82 9.06l-9.21 13.4 -.1-.04c-4.28-1.48-4.35-3.99-1.58-7.15 1.01-1.08 2.37-1.99 3.86-2.83 .99-.56 2.04-1.11 3.13-1.5 -3.17.98-6.09 2.57-7.98 4.51 -1.35 1.39-2 2.77-2.01 4.03 -.03 1.7 1.83 2.99 4.02 3.86L5.2 25.91h4.93l0-.01 .01 0 1.16-1.78c1.04.04 2.18-.01 3.27-.14l-1.17 1.9h6.57l-1.61-2.68c.87-.25 1.75-.55 2.58-.89l1.85 2.81 .45.74h4.93l-3.67-5.41c.89-.59 1.8-1.31 2.47-2.01 1.88-1.95 2.82-3.9 2.84-5.65 .03-3.19-2.89-5.75-8.24-6.57 -1.18-.18-2.4-.28-3.66-.31Zm-1.29 9.93l.7 1.02 3.01 4.57c-.81.34-1.66.64-2.51.89l-1.22-1.98 -1.55 2.59c-1.1.16-2.19.18-3.24.15l4.78-7.26Z"/></svg>