<svg viewBox="0 0 32 32" xmlns="http://www.w3.org/2000/svg"><path d="M9 4C7.35 4 6 5.35 6 7v18c0 1.64 1.35 3 3 3h17V4H9Zm0 2h15v16H9c-.36 0-.69.07-1 .18V6.99c0-.57.43-1 1-1Zm7 2c-3.301 0-6 2.699-6 6 0 3.3 2.699 6 6 6 3.3 0 6-2.7 6-6 0-3.301-2.7-6-6-6Zm.68 2.09c.48.08.93.22 1.34.46l.06.71 -.47-.19 -.375.31 .06.9 .96-.29 1.18.37 -.32.53 -.73-.44 -.79.125 -.75.56 -.44 1.31 .84.68s.89-.16.93-.16c.04 0 .375.81.375.81l-.5 1.53c-.62.38-1.35.62-2.13.62 -.24 0-.47-.06-.69-.1l-.19-.32 .47-1.75 -1.79-1.35h-1.66l-.13-.25c-.01-.09-.04-.17-.04-.25 0-.22.03-.43.06-.63l.84-.66 1.78-.85 -.29-1.16 .78-.16 .34.5 1.34-.25 -.19-.72Zm-3.63 6.625h.31l.59.71c-.35-.2-.65-.44-.91-.72Zm-4.07 7.28h15v2h-15c-.57 0-1-.44-1-1 0-.57.43-1 1-1Z"/></svg>