<svg viewBox="0 0 32 32" xmlns="http://www.w3.org/2000/svg"><path d="M16 8c-5.08 0-9.47 2.91-11.61 7.16 2.26-3.13 5.94-5.17 10.1-5.17 4.53 0 8.5 2.42 10.69 6.05l2.28-1.15c-2.19-4.11-6.51-6.91-11.49-6.91Zm0 4c-3.72 0-6.9 2.24-8.27 5.44 1.54-2.09 4.01-3.45 6.8-3.45 2.96 0 5.56 1.53 7.07 3.84l2.29-1.16c-1.53-2.8-4.5-4.7-7.91-4.7ZM1 15.37v2.23c5.22 2.6 14.55 7.27 14.55 7.27l.44.22 15-7.5v-2.24l-15 7.5C7.68 18.69 3.3 16.5.99 15.34Zm14.96.62c-2.2 0-4.04 1.43-4.7 3.41 .81-.87 1.96-1.42 3.24-1.42 1.39 0 2.63.65 3.45 1.66l2.29-1.15c-.86-1.5-2.45-2.52-4.3-2.52Z"/></svg>