<svg viewBox="0 0 32 32" xmlns="http://www.w3.org/2000/svg"><path d="M5.59 7l-.32.28s-3.29 3.32-3.29 8.71c0 5.39 3.28 8.71 3.28 8.71l.31.28h20.81l.31-.29s3.28-3.33 3.28-8.72c0-5.4-3.29-8.72-3.29-8.72l-.32-.29Zm.93 2h18.93c.33.35 2.53 2.73 2.53 7 0 4.26-2.2 6.64-2.54 7H6.5c-.34-.36-2.54-2.74-2.54-7 0-4.27 2.19-6.65 2.53-7Zm3.84 3l-4 8h2.25l.5-1h1.875v1h2c2.19 0 4-1.81 4-4 0-2.2-1.81-4-4-4Zm5.59 0c1.22.91 2.03 2.35 2.03 4 0 1.64-.81 3.08-2.04 4h2.78c.79-1.14 1.25-2.52 1.25-4 0-1.49-.46-2.87-1.25-4Zm3.93 0c.68 1.17 1.09 2.54 1.09 4 0 1.45-.42 2.82-1.1 4h2.25c.53-1.23.84-2.58.84-4 0-1.43-.31-2.78-.85-4Zm3.34 0c.48 1.24.75 2.58.75 4 0 1.41-.27 2.75-.75 4h2.125c.41-1.27.625-2.61.625-4 0-1.4-.22-2.74-.625-4Zm-10.25 2c1.11 0 2 .88 2 2 0 1.11-.89 2-2 2Zm-2 1.25V17h-.875Z"/></svg>