<svg viewBox="0 0 32 32" xmlns="http://www.w3.org/2000/svg"><path d="M16 3c-.63 0-1.25.21-1.79.59l-1.66 1.15 -1.91.25h-.04l-.04.03C9.28 5.3 8.28 6.3 7.99 7.58l-.04.03v.03L7.7 9.57l-1.16 1.5 -.04.03v.03c-.7 1.11-.74 2.55.03 3.62l1.18 1.65 .31 1.71 -3.22 4.9 -1.04 1.53h4.78l1.15 2.68 .71 1.71 1.03-1.57 3.15-4.75c.84.34 1.8.37 2.62 0l3.15 4.75 1.03 1.56 .71-1.72 1.15-2.69h4.78l-1.04-1.54 -3.125-4.75 .25-1.875 1.15-1.66 .03-.04v-.04c.69-1.12.73-2.53-.04-3.6l-1.16-1.66 -.375-1.875h.03c-.01-.03-.03-.04-.04-.07 -.18-1.31-1.22-2.38-2.54-2.54h-.04l-1.875-.25 -1.66-1.16c-.54-.39-1.16-.6-1.79-.6Zm0 2.03c.23 0 .45.07.62.18l1.78 1.28 .21.15 .25.03 2.18.31h.03c.44.05.76.36.81.81v.06l.4 2.21 .03.21 .15.18 1.28 1.78c.23.33.26.89-.04 1.37l-1.41 1.96 -.04.25 -.32 2.18v.03c-.02.16-.08.31-.16.43l-.07.03v.03c-.15.17-.35.28-.6.31h-.07l-2.29.4 -.25.03 -.19.15 -1.79 1.28c-.34.23-.93.26-1.41-.04l-1.63-1.25 -.19-.16 -.29-.04 -2.19-.32h-.04c-.31-.04-.55-.2-.69-.44 -.07-.11-.11-.24-.13-.38v-.07l-.41-2.29 -.04-.25 -.16-.19 -1.29-1.79c-.24-.34-.27-.93.03-1.41l1.25-1.63 .15-.19 .03-.29 .28-2.1c0-.02.02-.02.03-.04 .125-.49.51-.88 1-1 .01-.01.01-.03.03-.04l2.09-.29 .25-.04 .21-.16 1.78-1.29c.16-.12.39-.19.62-.19Zm6.9 15.21l1.53 2.34h-2.41l-.25.625 -.69 1.59 -2.13-3.25 .46-.35 1.96-.35v.03c.02-.01.03-.03.06-.04 .53-.08 1.02-.31 1.43-.625Zm-13.82.03c.42.38.96.64 1.56.71 .01 0 .01 0 .03 0l1.9.25 .43.34 -2.13 3.21 -.69-1.6 -.25-.625H7.52Z"/></svg>