<svg viewBox="0 0 32 32" xmlns="http://www.w3.org/2000/svg"><path d="M6.58 9c-1.36 0-2.75.53-2.98.82 -.06.12-.2 1.08.13 1.08 .11 0 .16.01.48-.14 1.2-.47 1.96-.46 2.07-.46 1.35-.13 2.12.79 2 1.98v.69c-1.14-.27-1.8-.28-2.12-.28 -1.66-.1-3.2.77-3.2 2.69 0 2.1 1.88 2.56 2.61 2.53 1.09.01 2.13-.49 2.82-1.34 .55 1.23.9 1.14.91 1.14 .1 0 .17-.04.25-.09l.57-.41c.1-.06.17-.16.18-.28 -.01-.29-.54-.74-.5-1.75v-3.12c.06-.86-.22-1.71-.8-2.36 -.69-.58-1.61-.86-2.5-.78Zm19.37 0c-2 0-3.15 1.24-3.12 2.51 0 1.74 1.75 2.29 1.95 2.35 1.69.53 1.92.54 2.39.94 .4.41.34 1.21-.25 1.56 -.17.1-.91.53-2.56.19 -.55-.11-.84-.24-1.29-.43 -.12-.04-.41-.12-.41.25v.49c0 .23.13.43.34.53 1.05.53 2.31.55 2.58.55 .04 0 2.33 0 3.1-1.56 .15-.32.57-1.49-.2-2.49 -.64-.75-1.2-.84-2.84-1.34 -.14-.04-1.35-.36-1.34-1.21 -.06-1.09 1.42-1.15 1.73-1.13 1.25-.02 1.86.44 2.2.47 .15 0 .22-.09.22-.29v-.47c.01-.12-.03-.22-.09-.31 -.4-.52-1.94-.72-2.5-.72Zm-15.18.25c-.11.02-.19.13-.17.24 .02.13.03.26.08.39l2.24 7.38c.05.24.2.5.55.46h.82c.5.05.57-.44.58-.49l1.47-6.17 1.49 6.16c.01.05.08.53.57.48h.83c.36.04.53-.23.58-.47 2.52-8.11 2.34-7.56 2.36-7.64 .04-.42-.21-.4-.25-.39h-.9c-.45-.05-.54.36-.56.46l-1.67 6.41 -1.5-6.42c-.07-.5-.48-.48-.58-.47h-.77c-.44-.04-.56.31-.59.46l-1.5 6.32 -1.6-6.33c-.04-.21-.18-.52-.57-.48h-1.01Zm-4.26 4.63c.72.01 1.34.11 1.77.21 0 .5.01.78-.1 1.23 -.14.48-.76 1.35-2.22 1.37 -.84.03-1.39-.63-1.34-1.38 -.05-1.2 1.18-1.5 1.87-1.45Zm22.51 6.11c-.94.01-2.04.22-2.88.8 -.26.17-.22.42.07.39 .94-.12 3.03-.37 3.4.11 .375.47-.42 2.45-.77 3.33 -.11.26.12.37.36.17 1.56-1.31 1.97-4.06 1.65-4.46 -.17-.2-.93-.39-1.86-.37Zm-27.83 1c-.22.03-.32.3-.09.52 3.91 3.67 9.09 5.47 14.83 5.47 4.09 0 8.85-1.34 12.14-3.86 .54-.42.08-1.05-.48-.8 -3.69 1.62-7.69 2.4-11.33 2.4 -5.4 0-10.62-1.13-14.85-3.69 -.1-.06-.18-.08-.26-.07Z"/></svg>