<svg viewBox="0 0 32 32" xmlns="http://www.w3.org/2000/svg"><path d="M16 2c-2.2 0-4 1.8-4 4 0 2.19 1.8 4 4 4 2.19 0 4-1.81 4-4 0-2.2-1.81-4-4-4Zm0 2c1.11 0 2 .88 2 2 0 1.11-.89 2-2 2 -1.12 0-2-.89-2-2 0-1.12.88-2 2-2Zm0 7c-6.67 0-9.91 6.56-9.91 6.56l1.81.87s1.39-2.73 4.09-4.32v6.09c-.41.14-.94.36-1.54.68 -.54.29-1.09.67-1.57 1.18 -.48.51-.88 1.2-.91 2.03 -.05 1.55.83 2.96 1.625 4.125 .79 1.16 1.59 2.06 1.59 2.06l1.5-1.375s-.74-.78-1.44-1.82c-.71-1.04-1.31-2.36-1.29-2.94 0-.25.12-.48.37-.75 .25-.28.64-.56 1.06-.79 .41-.23.81-.39 1.12-.5 .56.75 1.67 1.84 3.43 1.84 1.73 0 2.82-1.06 3.4-1.82 .3.11.66.26 1.03.46 .41.22.81.5 1.06.78 .24.27.34.5.34.75 0 .62-.62 1.9-1.32 2.9 -.7 1-1.375 1.75-1.375 1.75l1.43 1.375s.8-.87 1.59-2c.78-1.14 1.65-2.5 1.65-4.04 0-.84-.41-1.58-.88-2.1 -.48-.53-1.02-.9-1.57-1.19 -.51-.28-1.02-.49-1.41-.625v-6.16c2.69 1.58 4.09 4.31 4.09 4.31l1.81-.88s-3.24-6.57-9.91-6.57Zm0 2c.71 0 1.37.08 2 .25v7.43c-.11.2-.71 1.31-2 1.31 -1.3 0-1.9-1.11-2-1.32v-7.44c.62-.17 1.28-.25 2-.25Z"/></svg>