<svg viewBox="0 0 32 32" xmlns="http://www.w3.org/2000/svg"><path d="M10.43 5c-2.83 0-5.1 2.25-5.1 2.25l-.35.31v7.43h1.43l.28-.22c.18-.15.76-.61 1.5-1.04 .73-.43 1.6-.75 2.21-.75 .83 0 1.54.21 2.4.46 .85.25 1.87.53 3.15.53 1.28 0 2.25-.29 3.09-.54 .83-.25 1.53-.47 2.46-.47 .73 0 1.62.35 2.34.78 .71.42 1.21.85 1.34.96l.28.25h1.46V7.51l-.35-.32s-2.28-2.25-5.1-2.25c-1.27 0-2.24.28-3.07.53 -.84.25-1.54.46-2.5.46 -.97 0-1.67-.22-2.5-.47 -.84-.25-1.81-.54-3.07-.54Zm0 2c.96 0 1.66.21 2.5.46 .83.25 1.8.53 3.06.53s2.23-.29 3.06-.54c.83-.25 1.53-.47 2.5-.47 1.39 0 2.97 1.14 3.43 1.5v.65c-.06-.04-.1-.06-.16-.1 -.88-.53-2.05-1.07-3.29-1.07 -1.17 0-2.05.28-2.88.53 -.84.25-1.63.46-2.69.46 -1.07 0-1.9-.22-2.75-.47 -.86-.25-1.73-.54-2.82-.54 -1.18 0-2.33.54-3.22 1.06 -.1.05-.14.1-.22.15v-.72c.46-.36 2.03-1.5 3.43-1.5Zm0 2c.92 0 1.67.21 2.53.46 .85.25 1.82.53 3.03.53 1.21 0 2.13-.29 2.96-.54 .83-.25 1.58-.47 2.59-.47 .92 0 1.98.46 2.78.93 .26.16.46.29.65.43v1.71c-.04-.02-.04-.02-.07-.04 -.89-.53-2.05-1.07-3.38-1.07 -1.24 0-2.2.28-3.04.53 -.84.25-1.54.46-2.54.46s-1.75-.23-2.6-.47c-.85-.25-1.8-.54-2.97-.54 -1.24 0-2.34.52-3.22 1.03 -.12.06-.12.08-.22.15v-1.79c.21-.15.42-.3.71-.47 .82-.49 1.87-.94 2.71-.94Zm0 8c-2.83 0-5.1 2.25-5.1 2.25l-.35.31v7.43h1.43l.28-.22c.18-.15.76-.61 1.5-1.04 .73-.43 1.6-.75 2.21-.75 .83 0 1.54.21 2.4.46 .85.25 1.87.53 3.15.53 1.28 0 2.25-.29 3.09-.54 .83-.25 1.53-.47 2.46-.47 .73 0 1.62.35 2.34.78 .71.42 1.21.85 1.34.96l.28.25h1.46v-7.44l-.35-.32s-2.28-2.25-5.1-2.25c-1.27 0-2.24.28-3.07.53 -.84.25-1.54.46-2.5.46 -.97 0-1.67-.22-2.5-.47 -.84-.25-1.81-.54-3.07-.54Zm0 2c.96 0 1.66.21 2.5.46 .83.25 1.8.53 3.06.53s2.23-.29 3.06-.54c.83-.25 1.53-.47 2.5-.47 1.39 0 2.97 1.14 3.43 1.5v1.65c-.06-.04-.1-.06-.16-.1 -.88-.53-2.05-1.07-3.29-1.07 -1.17 0-2.05.28-2.88.53 -.84.25-1.63.46-2.69.46 -1.07 0-1.9-.22-2.75-.47 -.86-.25-1.73-.54-2.82-.54 -1.18 0-2.33.54-3.22 1.06 -.1.05-.14.1-.22.15v-1.72c.46-.36 2.03-1.5 3.43-1.5Zm0 3c.92 0 1.67.21 2.53.46 .85.25 1.82.53 3.03.53 1.21 0 2.13-.29 2.96-.54 .83-.25 1.58-.47 2.59-.47 .92 0 1.98.46 2.78.93 .26.16.46.29.65.43v.71c-.04-.02-.04-.02-.07-.04 -.89-.53-2.05-1.07-3.38-1.07 -1.24 0-2.2.28-3.04.53 -.84.25-1.54.46-2.54.46s-1.75-.23-2.6-.47c-.85-.25-1.8-.54-2.97-.54 -1.24 0-2.34.52-3.22 1.03 -.12.06-.12.08-.22.15v-.79c.21-.15.42-.3.71-.47 .82-.49 1.87-.94 2.71-.94Z"/></svg>