<svg viewBox="0 0 32 32" xmlns="http://www.w3.org/2000/svg"><path d="M16 5c-1.3 0-2.4.84-2.82 2H5.99v2h1.4l-.29.5 -4 7 -.125.25V17c0 2.75 2.25 5 5 5s5-2.25 5-5v-.25l-.13-.25 -4-7L8.55 9h4.59c.3.84.96 1.5 1.81 1.81v13.18h-4v2h10v-2h-4V10.8c.83-.31 1.5-.98 1.81-1.82h4.59l-.29.5 -4 7 -.125.25v.25c0 2.75 2.25 5 5 5s5-2.25 5-5v-.25l-.125-.25 -4-7 -.29-.5h1.4v-2h-7.19c-.42-1.16-1.52-2-2.82-2Zm0 2c.56 0 1 .43 1 1 0 .56-.44 1-1 1 -.57 0-1-.44-1-1 0-.57.43-1 1-1Zm-8 5.03l2.28 3.96H5.71Zm16 0l2.28 3.96h-4.57ZM5.25 17.99h5.5c-.41 1.16-1.45 2-2.75 2 -1.31 0-2.35-.84-2.75-2Zm16 0h5.5c-.41 1.16-1.45 2-2.75 2 -1.31 0-2.35-.84-2.75-2Z"/></svg>