<svg viewBox="0 0 32 32" xmlns="http://www.w3.org/2000/svg"><path d="M19.84 3c-.36.01-.66.09-.66.09l-.22.09L3.17 18.96l-.1.21s-.08.3-.1.65c-.02.35.02.85.18 1.43 .31 1.16 1.11 2.71 2.96 4.56 1.85 1.85 3.39 2.65 4.56 2.96 .58.16 1.08.2 1.43.18 .35-.02.65-.1.65-.1l.21-.1 15.78-15.79 .09-.22s.07-.31.09-.66c.01-.36-.03-.86-.19-1.44 -.32-1.17-1.12-2.72-2.97-4.57 -1.86-1.86-3.4-2.66-4.57-2.97 -.59-.17-1.09-.21-1.44-.19Zm.09 2h.03c.15-.01.41.02.78.12 .76.21 2.02.77 3.68 2.43l.09.125c1.55 1.59 2.14 2.81 2.34 3.56 .1.37.12.62.125.78 0 0 0 .02 0 .03l-14.94 14.93c-.01 0-.03 0-.04 0 -.16 0-.42-.03-.79-.125 -.77-.22-2.03-.78-3.69-2.44l-.13-.16c-1.54-1.58-2.11-2.79-2.32-3.54 -.11-.38-.13-.625-.13-.79 0-.01 0-.03 0-.04Zm-.94 4c-.56 0-1 .44-1 1 0 .55.44 1 1 1 .55 0 1-.45 1-1 0-.56-.45-1-1-1Zm3 0c-.56 0-1 .44-1 1 0 .55.44 1 1 1 .55 0 1-.45 1-1 0-.56-.45-1-1-1Zm-5.79 2.78l-1.44 1.43 4 4 1.43-1.44Zm5.78.21c-.56 0-1 .44-1 1 0 .55.44 1 1 1 .55 0 1-.45 1-1 0-.56-.45-1-1-1Zm-8.79 2.78l-1.44 1.43 4 4 1.43-1.44Zm-3.22 3.21c-.56 0-1 .44-1 1 0 .55.44 1 1 1 .55 0 1-.45 1-1 0-.56-.45-1-1-1Zm0 3c-.56 0-1 .44-1 1 0 .55.44 1 1 1 .55 0 1-.45 1-1 0-.56-.45-1-1-1Zm3 0c-.56 0-1 .44-1 1 0 .55.44 1 1 1 .55 0 1-.45 1-1 0-.56-.45-1-1-1Z"/></svg>