<svg viewBox="0 0 32 32" xmlns="http://www.w3.org/2000/svg"><path d="M16 3C8.83 3 3 8.83 3 16c0 7.16 5.83 13 13 13 7.16 0 13-5.84 13-13 0-7.17-5.84-13-13-13Zm0 2c3.09 0 5.88 1.28 7.88 3.34 -1.04.74-1.91 1.7-2.57 2.83l1.71 1c.52-.91 1.24-1.69 2.1-2.3 1.17 1.74 1.85 3.84 1.85 6.1 0 2.25-.69 4.35-1.86 6.1 -.87-.62-1.6-1.41-2.14-2.34l-1.74 1c.65 1.13 1.54 2.11 2.6 2.88 -2.01 2.05-4.8 3.34-7.89 3.34 -3.1 0-5.89-1.29-7.89-3.35 1.05-.77 1.94-1.75 2.6-2.89l-1.74-1c-.54.92-1.27 1.71-2.14 2.33 -1.18-1.75-1.86-3.85-1.86-6.11 0-2.26.68-4.36 1.85-6.11 .85.6 1.57 1.38 2.1 2.29l1.71-1.01C9.91 9.97 9.04 9.01 8 8.26c2-2.06 4.79-3.35 7.88-3.35Zm-4.42 8.21l-1.92.58c.22.72.33 1.45.33 2.19 0 .73-.11 1.45-.32 2.15l1.91.57c.27-.88.4-1.81.4-2.73 0-.94-.14-1.88-.42-2.79Zm8.83 0c-.28.9-.42 1.84-.42 2.78 0 .92.13 1.84.4 2.72l1.91-.58c-.21-.7-.32-1.43-.32-2.16 0-.74.11-1.48.33-2.2l-1.92-.59Z"/></svg>