<svg viewBox="0 0 32 32" xmlns="http://www.w3.org/2000/svg"><path d="M5 5v22h22V5H5Zm2 2h18v18H7V7Zm2 4.36v8.61h4.17c1.56-.01 3.03-.76 3.03-2.51 0-1.09-.53-2.02-1.58-2.32 .77-.38 1.16-.81 1.16-1.67 0-1.72-1.27-2.14-2.75-2.14H8.96Zm9.14.63v.84h3.47v-.85h-3.48Zm-7.25.68h1.77c.66 0 1.29.19 1.29.98 0 .73-.49 1.02-1.17 1.02h-1.92v-2.01Zm9.06.74c-1.9 0-3.19 1.41-3.19 3.29 0 1.94 1.21 3.27 3.18 3.27 1.48 0 2.45-.67 2.91-2.1h-1.52c-.17.53-.83.81-1.35.81 -1.01 0-1.53-.6-1.53-1.59h4.49c.01-.1.01-.23.01-.34 0-1.84-1.09-3.38-3.04-3.38Zm-.07 1.28c.87 0 1.29.5 1.36 1.33h-2.78c.05-.82.59-1.34 1.41-1.34Zm-9.01 1.41h2.07c.83 0 1.35.34 1.35 1.23 0 .86-.64 1.13-1.41 1.13h-2.03v-2.37Z"/></svg>