<svg viewBox="0 0 32 32" xmlns="http://www.w3.org/2000/svg"><path d="M12 6v3H5.81c-.42-1.16-1.52-2-2.82-2 -1.65 0-3 1.35-3 3 0 1.64 1.35 3 3 3 1.29 0 2.39-.85 2.81-2h2.31c-.42.39-.77.81-1.1 1.28 -1.16 1.63-1.84 3.65-2 5.71H1.97v8h8v-8H7.03c.16-1.68.71-3.32 1.59-4.57 .85-1.22 1.96-2.08 3.34-2.35v2.9h8v-2.91c1.37.27 2.48 1.12 3.34 2.34 .88 1.25 1.42 2.89 1.59 4.56h-2.94v8h8v-8h-3.04c-.17-2.07-.85-4.09-2-5.72 -.33-.47-.69-.9-1.1-1.29h2.31c.41 1.15 1.51 2 2.81 2 1.64 0 3-1.36 3-3 0-1.65-1.36-3-3-3 -1.3 0-2.4.84-2.82 2h-6.19v-3Zm2 2h4v4h-4ZM3 9c.56 0 1 .43 1 1 0 .56-.44 1-1 1 -.57 0-1-.44-1-1 0-.57.43-1 1-1Zm26 0c.56 0 1 .43 1 1 0 .56-.44 1-1 1 -.57 0-1-.44-1-1 0-.57.43-1 1-1ZM4 20h4v4H4Zm20 0h4v4h-4Z"/></svg>