<svg viewBox="0 0 32 32" xmlns="http://www.w3.org/2000/svg"><path d="M11 5C9.03 5 7.46 6.44 7.12 8.31c-1.9.47-3.54 1.7-4.25 3.65h-.04L.7 17.92c-.46.92-.72 1.96-.72 3.06 0 3.85 3.14 7 7 7 3.47 0 6.36-2.56 6.9-5.875 .54.53 1.28.875 2.09.875 .81 0 1.55-.34 2.09-.875 .53 3.32 3.43 5.875 6.9 5.875 3.85 0 7-3.15 7-7 0-.98-.2-1.91-.57-2.75l-2.29-6.38 -.04-.04v-.04c-.74-1.78-2.35-3.02-4.25-3.5 -.34-1.88-1.91-3.32-3.875-3.32 -1.86 0-3.37 1.28-3.82 3h-2.38c-.45-1.72-1.96-3-3.82-3Zm0 2c1.19 0 2 .8 2 2v1h6V9c0-1.2.8-2 2-2 1.19 0 2 .8 2 2v.9l.9.09c1.48.15 2.76 1.19 3.34 2.53 0 .01.02.04.03.06l.75 2.12c-.92-.45-1.95-.72-3.04-.72 -2.93 0-5.43 1.81-6.47 4.375 -.54-.84-1.49-1.375-2.54-1.375 -1.06 0-2 .54-2.54 1.375 -1.05-2.56-3.55-4.375-6.47-4.375 -1.08 0-2.09.25-3 .68l.75-2.04v-.04c.58-1.55 1.8-2.47 3.34-2.625l.9-.1v-.91c0-1.2.8-2 2-2Zm-4 9c2.77 0 5 2.22 5 5 0 2.77-2.23 5-5 5 -2.78 0-5-2.23-5-5 0-.71.17-1.36.43-1.97 .01-.04.01-.09.03-.13 .78-1.72 2.51-2.91 4.53-2.91Zm18 0c2.77 0 5 2.22 5 5 0 2.77-2.23 5-5 5 -2.78 0-5-2.23-5-5 0-2.78 2.22-5 5-5Zm-9 3c.56 0 1 .43 1 1 0 .56-.44 1-1 1 -.57 0-1-.44-1-1 0-.57.43-1 1-1Z"/></svg>