<svg viewBox="0 0 32 32" xmlns="http://www.w3.org/2000/svg"><path d="M16 5c-2.3 0-4.6.29-6.41.78 -.91.24-1.68.49-2.32.87 -.64.37-1.29.94-1.29 1.84 0 .22.05.44.12.625 .14.76 2.65 13.8 2.9 15.06 .12.6.5 1.04.93 1.37 .43.32.92.57 1.53.78 1.2.41 2.75.65 4.5.65s3.28-.25 4.5-.66c.6-.21 1.125-.45 1.56-.79 .43-.34.84-.78.93-1.41 .01-.15.21-1.35.5-2.85 .28-1.5.66-3.38 1.03-5.25 .68-3.52 1.26-6.55 1.34-6.94 .07-.19.125-.41.125-.625 0-.9-.65-1.47-1.29-1.85 -.64-.38-1.41-.64-2.32-.88 -1.82-.49-4.12-.79-6.41-.79Zm0 2c2.125 0 4.32.26 5.9.68 .79.21 1.41.46 1.78.68 .1.06.1.08.15.12 -.05.03-.06.06-.16.125 -.37.21-.99.47-1.79.68 -1.59.42-3.79.68-5.91.68 -2.13 0-4.33-.27-5.91-.69 -.8-.22-1.42-.47-1.79-.69 -.11-.07-.11-.09-.16-.125 .04-.04.05-.07.15-.13 .36-.22.98-.48 1.78-.69 1.58-.43 3.78-.69 5.9-.69Zm-7.54 3.87c.35.12.71.23 1.125.34 1.81.48 4.11.78 6.4.78s4.59-.3 6.4-.79c.4-.11.76-.22 1.12-.35 -.28 1.35-.5 2.34-.97 4.78 -.24 1.19-.42 2.26-.63 3.37 -.02.01-.03 0-.125.125 -.15.16-.4.45-.82.71 -.83.53-2.33 1.125-5 1.125 -2.68 0-4.2-.6-5.04-1.125 -.42-.27-.65-.52-.79-.69 -.15-.17-.16-.19-.16-.19 -.68-3.51-1.17-6.04-1.57-8.13Zm7.53 2.12c-1.65 0-3 1.35-3 3 0 1.64 1.35 3 3 3 1.64 0 3-1.36 3-3 0-1.65-1.36-3-3-3Zm0 2c.56 0 1 .43 1 1 0 .56-.44 1-1 1 -.57 0-1-.44-1-1 0-.57.43-1 1-1Zm-5.41 6.9c1.2.59 2.91 1.09 5.4 1.09 2.45 0 4.17-.47 5.375-1.07 -.16.75-.34 1.65-.375 1.9 -.02.02-.08.06-.16.12 -.19.14-.51.34-.97.5 -.93.31-2.31.53-3.875.53 -1.57 0-2.93-.22-3.85-.54 -.46-.16-.81-.36-1-.5 -.2-.15-.2-.22-.19-.16 -.04-.15-.28-1.42-.375-1.91Z"/></svg>