<svg viewBox="0 0 32 32" xmlns="http://www.w3.org/2000/svg"><path d="M16 3c-3.564 0-7 1.3-9.67 3.68 -.42.367-.45.99-.09 1.41 .36.41.99.44 1.41.08 2.3-2.06 5.26-3.18 8.33-3.18 3.07 0 6.03 1.12 8.33 3.17 .19.17.42.25.66.25 .27 0 .54-.12.74-.34 .36-.42.33-1.05-.09-1.42 -2.67-2.38-6.11-3.69-9.67-3.69Zm-5 7c-.56 0-1 .44-1 1v3.5c0 2.52 2.63 4.5 6 4.5 3.36 0 6-1.98 6-4.5V11c0-.56-.45-1-1-1 -.56 0-1 .44-1 1v3.5c0 1.35-1.84 2.5-4 2.5 -2.17 0-4-1.15-4-2.5V11c0-.56-.45-1-1-1Zm-6.68 3.01c-.55-.09-1.06.28-1.15.82 -.12.72-.18 1.47-.18 2.21 0 6.084 4 11.39 9.74 12.91 .08.02.17.03.25.03 .44 0 .84-.3.96-.75 .14-.54-.18-1.09-.72-1.23 -4.87-1.29-8.26-5.8-8.26-10.98 0-.64.05-1.28.15-1.9 .09-.55-.29-1.06-.83-1.15Zm23.34 0c-.55.08-.92.6-.83 1.14 .1.62.15 1.25.15 1.89 0 5.177-3.4 9.69-8.26 10.97 -.54.14-.86.69-.72 1.22 .11.44.52.74.96.74 .08 0 .16-.02.25-.04 5.73-1.52 9.74-6.83 9.74-12.92 0-.75-.06-1.5-.18-2.22 -.09-.55-.6-.92-1.15-.83Zm-11.68 6.98c-.56 0-1 .44-1 1v3c0 .55.44 1 1 1 .55 0 1-.45 1-1v-3c0-.56-.45-1-1-1Z"/></svg>