<svg viewBox="0 0 32 32" xmlns="http://www.w3.org/2000/svg"><path d="M5 5v22h22V5H5Zm2 2h18v18H7V7Zm8 3c-2 0-1.97.01-2.6.26 -1.17.47-2.02 1.45-2.32 2.71 -.05.23-.08.6-.09 2.77 -.03 2.71-.01 3.11.16 3.65 .41 1.33 1.61 2.3 2.79 2.52 .4.07 5.28.09 5.77.02 .88-.13 1.54-.48 2.18-1.14 .47-.47.76-.99.95-1.67 .14-.47.13-3.83.07-4.07 -.06-.21-.18-.42-.34-.5 -.05-.02-.35-.06-.67-.08 -.54-.02-.61-.03-.78-.14 -.26-.15-.34-.34-.34-.79 0-.88-.37-1.71-1.1-2.45 -.52-.53-1.09-.89-1.76-1.09 -.15-.04-.81-.09-2-.09Zm-1.24 3h2.29c.42 0 .76.34.76.76s-.35.76-.77.76h-2.3c-.43 0-.77-.35-.77-.77 0-.43.34-.77.76-.77Zm0 4.46h4.27c.42 0 .76.34.76.76s-.35.76-.77.76h-4.28c-.43 0-.77-.35-.77-.77 0-.43.34-.77.76-.77Z"/></svg>