<svg viewBox="0 0 32 32" xmlns="http://www.w3.org/2000/svg"><path d="M16 2c-3.12 0-5.97.74-7.97 2.96 -2 2.22-3.04 5.74-3.04 11.03 0 5.28 1.03 8.8 3.03 11.03 2 2.22 4.85 2.96 7.96 2.96 3.11 0 5.97-.75 7.96-2.97 1.99-2.23 3.03-5.75 3.03-11.04 0-5.29-1.04-8.81-3.04-11.04 -2-2.23-4.86-2.97-7.97-2.97Zm0 2c2.8 0 4.94.61 6.46 2.31 1.52 1.69 2.53 4.66 2.53 9.68 0 5.01-1.01 7.99-2.54 9.68 -1.53 1.69-3.67 2.31-6.47 2.31 -2.81 0-4.95-.62-6.47-2.32 -1.53-1.7-2.54-4.67-2.54-9.69s1-8 2.53-9.69c1.52-1.7 3.66-2.32 6.46-2.32Zm-1 3v6.56l-2.29-2.29 -1.44 1.43 3.28 3.28 -3.29 3.28 1.43 1.43 2.28-2.29v6.56l1.59-1.19 4-3 .93-.72 -4.1-4.1 4.09-4.1 -.94-.72 -4-3Zm2 4l1.46 1.09 -1.47 1.46Zm0 7.43l1.46 1.46 -1.47 1.09Z"/></svg>