<svg viewBox="0 0 32 32" xmlns="http://www.w3.org/2000/svg"><path d="M7.18 4.18c-4.3 4.18-4.29 11.12 0 15.4l1.4-1.41c-3.52-3.52-3.51-9.15 0-12.57Zm17.625.09l-1.41 1.43c3.52 3.52 3.52 9.03 0 12.56l1.4 1.43c4.27-4.28 4.27-11.17 0-15.44Zm-14.91 2.9c-2.59 2.58-2.59 6.82 0 9.4l1.4-1.41c-1.82-1.82-1.82-4.79 0-6.6Zm12.18.09l-1.41 1.43c1.81 1.81 1.81 4.75 0 6.56l1.4 1.43c2.58-2.59 2.58-6.86 0-9.44Zm-6.1 2.71c-1.11 0-2 .89-2 2 0 .625.3 1.16.75 1.53l-4.44 12.46h-1.32v2h4v-2h-.6l3.59-10.04 3.59 10.03h-.6v2h4v-2h-1.32l-4.44-12.47c.44-.37.75-.91.75-1.54 0-1.11-.9-2-2-2Z"/></svg>