<svg viewBox="0 0 32 32" xmlns="http://www.w3.org/2000/svg"><path d="M16 3C8.82 3 3 8.82 3 16c0 7.17 5.82 13 13 13 7.17 0 13-5.83 13-13 0-7.18-5.83-13-13-13Zm0 1c6.63 0 12 5.36 12 12 0 6.63-5.37 12-12 12C9.36 28 4 22.63 4 16 4 9.36 9.36 4 16 4Zm0 2C10.48 6 6 10.48 6 16c0 5.51 4.48 10 10 10 5.51 0 10-4.49 10-10 0-5.52-4.49-10-10-10Zm0 2c4.42 0 8 3.57 8 8 0 4.42-3.58 8-8 8 -4.43 0-8-3.58-8-8 0-4.43 3.57-8 8-8Zm0 2c-3.31 0-6 2.69-6 6 0 3.3 2.69 6 6 6 3.3 0 6-2.7 6-6 0-3.31-2.7-6-6-6Zm0 2c2.22 0 4 1.77 4 4 0 2.22-1.78 4-4 4 -2.23 0-4-1.78-4-4 0-2.23 1.77-4 4-4Zm0 2c-1.11 0-2 .89-2 2 0 1.1.89 2 2 2 1.1 0 2-.9 2-2 0-1.11-.9-2-2-2Z"/></svg>