<svg viewBox="0 0 32 32" xmlns="http://www.w3.org/2000/svg"><path d="M16.03 3.46l-.66.56s-2.34 1.91-4.66 4.68c-2.32 2.77-4.72 6.44-4.72 10.28 0 2.76 1.13 5.07 2.96 6.625 1.72 1.45 4.02 2.24 6.53 2.34 .16 0 .33.03.5.03 .16 0 .33-.03.5-.04 2.5-.1 4.8-.89 6.53-2.35 1.83-1.56 2.96-3.86 2.96-6.625 0-3.46-2.42-7.06-4.72-9.94 -2.31-2.88-4.6-5-4.6-5Zm-.07 2.78c.51.49 1.88 1.72 3.75 4.06 2.19 2.74 4.28 6.24 4.28 8.68 0 2.23-.87 3.92-2.29 5.125 -.35.28-.72.55-1.125.78 .24-.59.4-1.24.4-1.91 0-6.25-3.35-10.07-3.35-10.07l-1.82-2.04 .06 2.71s0 1.27-.16 2.5c-.09.61-.2 1.22-.35 1.56 -.05.09-.07.1-.1.15 -.11-.04-.43-.2-.72-.5 -.34-.35-.57-.69-.57-.69l-.97-1.5 -.75 1.625s-1.32 2.67-1.32 6.21c0 .67.16 1.31.4 1.9 -.41-.23-.79-.5-1.13-.79 -1.42-1.2-2.29-2.9-2.29-5.125 0-2.96 2.09-6.38 4.28-9 1.85-2.22 3.16-3.31 3.68-3.75Zm1.68 10.53c.68 1.48 1.34 3.55 1.34 6.21 0 1.65-1.35 3-3 3 -1.66 0-3-1.35-3-3 0-1.6.3-2.95.59-3.91 .44.4 1 .81 1.81.81 .47 0 .92-.22 1.21-.5 .28-.29.45-.62.59-.94 .22-.53.34-1.12.43-1.69Z"/></svg>