<svg viewBox="0 0 32 32" xmlns="http://www.w3.org/2000/svg"><path d="M14 3c-.52 0-1.06.18-1.44.56 -.38.38-.57.91-.57 1.43v1h-9v20h11.19c-.13-.64-.2-1.31-.2-2h-9v-6.57c.59.34 1.27.56 2 .56h9c.56-.76 1.24-1.44 2-2H6.97c-1.19 0-2-.81-2-2v-6h22v6c0 .16-.01.3-.04.44 .71.22 1.39.52 2.03.89V5.97h-9v-1c0-.52-.19-1.06-.57-1.44 -.38-.38-.92-.57-1.44-.57h-4Zm0 2h4v1h-4V5Zm-5 7v3h2v-3H9Zm12 0v2.46c.32-.1.64-.19.98-.26 .33-.07.67-.13 1.01-.16v-2.06h-2Zm3 4c-4.41 0-8 3.59-8 8s3.59 8 8 8 8-3.59 8-8 -3.59-8-8-8Zm0 2c3.32 0 6 2.68 6 6s-2.68 6-6 6 -6-2.68-6-6 2.68-6 6-6Zm-1 1v6h5v-2h-3v-4h-2Z"/></svg>