<svg viewBox="0 0 32 32" xmlns="http://www.w3.org/2000/svg"><path d="M10.53 4.875l-.38.59s-1.27 1.94-2.88 4.15c-1.62 2.21-3.65 4.72-4.85 5.56l-.5.34 .06.59 1 9 .09.875h.9c1.48 0 3.21.07 4.93.18l1.06.06v-8.25h2v8.4l.9.09c2.82.25 4.96.5 4.96.5h.15l10.93-2.19 .03-.79s.08-1.67.25-3.63c.16-1.96.42-4.26.68-5.1l.21-.69 -.54-.41c-3.45-2.68-6.75-8.69-6.75-8.69l-.32-.63 -.72.09s-6.43.88-10.66.03Zm10.93 2.18c.41.76 2.43 4.37 5.34 7.25l-7.54 1.18c-2.47-2.37-4.98-6.11-6.35-8.29 3.87.39 7.69-.05 8.53-.16Zm-10.54.81c1.31 2.11 4.06 6.26 6.96 9.03 -.66 2.67-.86 6.24-.91 8 -.67-.08-1.48-.17-3-.32v-8.6h-6v8.15c-1.07-.06-2.11-.11-3.1-.125l-.85-7.69c1.61-1.32 3.33-3.47 4.84-5.54 .97-1.35 1.58-2.27 2.03-2.94Zm16.84 8.34c-.24 1.19-.42 2.59-.54 4 -.13 1.58-.17 2.44-.19 2.96l-8.04 1.625c.05-1.77.23-5.1.75-7.35Z"/></svg>