<svg viewBox="0 0 32 32" xmlns="http://www.w3.org/2000/svg"><path d="M6.59 6c-1.34 0-2.58.66-3.32 1.78L.48 11.93c-.33.49-.5 1.06-.5 1.65v6.625c0 .91.61 1.71 1.5 1.93l2.59.65c.375 1.81 1.98 3.18 3.9 3.18 1.85 0 3.39-1.29 3.84-3h9.31c.44 1.71 1.99 3 3.84 3 1.85 0 3.39-1.29 3.84-3h1.15c1.09 0 2-.91 2-2V17.3c0-1.84-1.26-3.44-3.04-3.875L23.5 12.05l-3.91-4.66c-.77-.92-1.88-1.44-3.07-1.44Zm0 2h4.4v4H2.865l2.06-3.1v-.04c.37-.56.98-.88 1.65-.88Zm6.4 0h3.59c.59 0 1.15.26 1.53.71l2.75 3.28h-7.875Zm-11 6H22.86l5.625 1.4c.89.22 1.5 1.01 1.5 1.93v3.65h-1.16c-.45-1.72-2-3-3.85-3 -1.86 0-3.4 1.28-3.85 3h-9.32c-.45-1.72-2-3-3.85-3 -1.78 0-3.27 1.17-3.79 2.78l-2.22-.57Zm6 6c1.11 0 2 .88 2 2 0 1.11-.89 2-2 2 -1.12 0-2-.89-2-2 0-1.12.88-2 2-2Zm17 0c1.11 0 2 .88 2 2 0 1.11-.89 2-2 2 -1.12 0-2-.89-2-2 0-1.12.88-2 2-2Z"/></svg>