<svg viewBox="0 0 32 32" xmlns="http://www.w3.org/2000/svg"><path d="M4 7c-.56 0-1 .44-1 1 0 .55.44 1 1 1h2.21l2.625 10.5c.22.89 1.01 1.5 1.93 1.5h12.46c.9 0 1.66-.6 1.9-1.47l2.59-9.54h-2.1l-2.41 9H10.73L8.1 8.49c-.23-.9-1.02-1.5-1.94-1.5Zm18 14c-1.65 0-3 1.35-3 3 0 1.64 1.35 3 3 3 1.64 0 3-1.36 3-3 0-1.65-1.36-3-3-3Zm-9 0c-1.65 0-3 1.35-3 3 0 1.64 1.35 3 3 3 1.64 0 3-1.36 3-3 0-1.65-1.36-3-3-3Zm3-14v5h-3l4 4 4-4h-3V7Zm-3 16c.56 0 1 .43 1 1 0 .56-.44 1-1 1 -.57 0-1-.44-1-1 0-.57.43-1 1-1Zm9 0c.56 0 1 .43 1 1 0 .56-.44 1-1 1 -.57 0-1-.44-1-1 0-.57.43-1 1-1Z"/></svg>