<svg viewBox="0 0 32 32" xmlns="http://www.w3.org/2000/svg"><path d="M22 3v4c-1.85 0-3.62.33-5.27.91l-.53-1.15 .9-.41 -.82-1.83 -3.66 1.62 .81 1.82 .92-.42 .51 1.1c-1.1.54-2.11 1.21-3.05 1.98l-.79-.84 .72-.67 -1.36-1.48 -2.95 2.7 1.35 1.47 .74-.69 .8.84c-.96 1.01-1.79 2.15-2.45 3.39l-1.09-.54 .44-.89L5.43 13l-1.82 3.56 1.78.9 .45-.91 1.14.57c-.58 1.49-.95 3.08-1.06 4.75H3.86v6h24v-25Zm2 2h2v17H8.05c.51-7.28 6.54-13 13.94-13h2Zm-6 6.95c-1.11 0-2 .89-2 2 0 .71.38 1.37 1 1.73v4.31h5v-2h-3v-2.32c.61-.36 1-1.02 1-1.74 0-1.11-.9-2-2-2ZM6 23.99h20v2H6Z"/></svg>