<svg viewBox="0 0 32 32" xmlns="http://www.w3.org/2000/svg"><path d="M5 6C3.35 6 2 7.35 2 9v14c0 1.64 1.35 3 3 3h22c1.64 0 3-1.36 3-3V9c0-1.65-1.36-3-3-3Zm0 2h22c.56 0 1 .43 1 1v14c0 .56-.44 1-1 1H5c-.57 0-1-.44-1-1V9c0-.57.43-1 1-1Zm7 1c-3.86 0-7 3.14-7 7 0 3.85 3.14 7 7 7 1.48 0 2.86-.46 4-1.25 1.13.79 2.51 1.25 4 1.25 3.85 0 7-3.15 7-7 0-3.86-3.15-7-7-7 -1.49 0-2.87.45-4 1.25C14.86 9.45 13.48 9 12 9Zm0 2c1.28 0 2.42.49 3.31 1.28 -.42.51-.75 1.08-.97 1.71h2.21c.14.32.27.65.34 1h-2.82c-.06.32-.1.65-.1 1 0 .34.03.67.09 1h2.81c-.08.34-.21.67-.35 1H14.3c.22.62.55 1.2.96 1.71 -.89.78-2.04 1.28-3.32 1.28 -2.78 0-5-2.23-5-5 0-2.78 2.22-5 5-5Zm8 0c2.77 0 5 2.22 5 5 0 2.77-2.23 5-5 5 -.92 0-1.77-.26-2.5-.69 .94-1.2 1.5-2.69 1.5-4.32 0-1.63-.56-3.13-1.5-4.32 .73-.43 1.58-.69 2.5-.69Z"/></svg>