<svg viewBox="0 0 32 32" xmlns="http://www.w3.org/2000/svg"><path d="M5 6C3.35 6 2 7.35 2 9v14c0 1.64 1.35 3 3 3h22c1.64 0 3-1.36 3-3V9c0-1.65-1.36-3-3-3Zm0 2h22c.56 0 1 .43 1 1v14c0 .56-.44 1-1 1H5c-.57 0-1-.44-1-1V9c0-.57.43-1 1-1Zm14.4 4.37c-1.93 0-2.94.94-2.94 2.15 0 2.17 2.56 1.87 2.56 3 0 .19-.17.625-1.22.625 -1.06 0-1.75-.38-1.75-.38l-.32 1.43s.65.4 1.96.4 3.15-1.01 3.15-2.47c0-1.76-2.57-1.88-2.57-2.66 0-.4.33-.72 1.25-.72 .59 0 1.25.46 1.25.46l.31-1.54s-.88-.35-1.72-.35Zm-8.22.12l-1.69 4.93s-.09-.43-.13-.69c-.96-2.15-2.5-2.94-2.5-2.94l1.46 5.59h2l2.81-6.91Zm2.68 0l-1.1 6.9h1.84l1.09-6.91Zm9.93 0l-3 6.9h1.81l.375-.97h2.31l.18.96h1.65l-1.41-6.91Zm-18.97.03s3.59 1.1 4.43 3.81l-.63-3.13s-.28-.69-1-.69Zm19.65 1.96l.53 2.59h-1.5Z"/></svg>