<svg viewBox="0 0 32 32" xmlns="http://www.w3.org/2000/svg"><path d="M15.99 3l-3 3h2v5.99l1 1 1-1v-6h2l-3.01-3.01Zm-9 4v4l1.29-1.3 4.29 4.29h1.41v-1.42l-4.3-4.3 1.29-1.3h-4Zm5.41 0l-1.3 1.29 2.87 2.87V6.98h-1.59Zm5.58 0v4.17l2.87-2.88 -1.3-1.3h-1.59Zm3 0l1.29 1.29 -4.3 4.29v1.41h1.41l4.29-4.3 1.29 1.29v-4h-4ZM8.27 11.12l-1.3 1.29v1.58h4.17l-2.88-2.88Zm15.41 0l-2.88 2.87h4.17V12.4l-1.3-1.3ZM5.97 12.99l-3.01 3 3 2.99v-2h5.99l1-1 -1-1h-6v-2Zm19.99 0v2h-6l-1 1 1 1h5.99v2l3-3.01 -3.01-3Zm-19 5v1.58l1.29 1.29 2.87-2.88H6.94Zm5.58 0l-4.3 4.29 -1.3-1.3v4h4l-1.3-1.3 4.29-4.3v-1.42h-1.42Zm5.41 0v1.41l4.29 4.29 -1.3 1.29h4v-4l-1.3 1.29 -4.3-4.3h-1.42Zm2.82 0l2.87 2.87 1.29-1.3v-1.59h-4.18Zm-4.83 1l-1 1v5.99h-2l3 3 2.99-3.01h-2v-6l-1-1Zm-2 1.82l-2.88 2.87 1.29 1.29h1.58v-4.18Zm4 0v4.17h1.58l1.29-1.3 -2.88-2.88Z"/></svg>