<svg viewBox="0 0 32 32" xmlns="http://www.w3.org/2000/svg"><path d="M27.21 5.375l-3.5 4.375 -3.29-1.66 -.79-.375 -.5.71 -3.41 5.12 -3.16-2.38 -.6-.44 -.6.43 -3.63 2.71 -3.54-.88 -.5 1.93 4 1 .46.125 .37-.29 3.4-2.57 3.4 2.56 .84.62 .59-.88 3.5-5.25 3.21 1.59 .71.34 4.5-5.63Zm-7.16 12.93l-.85 1.06 -3.41 4.25 -3.22-2.44 -.6-.44 -.6.43 -3.5 2.625 -3.47-1.72 -.875 1.81 4 2 .53.25 .5-.35 3.4-2.57 3.4 2.56 .78.56 .59-.75 3.125-3.91 3.25 4.84 .78 1.12 .84-1.07 4-5 -1.57-1.25 -3.125 3.9 -3.25-4.85Z"/></svg>