<svg viewBox="0 0 32 32" xmlns="http://www.w3.org/2000/svg"><path d="M11.09 5.96l-.32.06C4.3 7.45 3.02 13.8 3.02 13.8l-.04.09v12.09h26v-6h-1c-.57 0-1-.44-1-1 0-.57.43-1 1-1h1v-4.66l-.625-.29 -17-7Zm-.125 2.125l2.78 1.15c-.45.18-.75.44-.75.75 0 .55.89 1 2 1 .75 0 1.41-.22 1.75-.54l6.15 2.53H5.35c.6-1.49 2.09-4 5.59-4.91Zm-5.97 6.9h3.09c-.06.15-.1.32-.1.5 0 .82.67 1.5 1.5 1.5 .82 0 1.5-.68 1.5-1.5 0-.18-.04-.35-.1-.5h16.09v1.4c-1.11.44-2 1.33-2 2.59 0 1.25.89 2.15 2 2.59v2.4H14.68c.17-.3.28-.64.28-1 0-1.11-.9-2-2-2 -1.11 0-2 .89-2 2 0 .36.1.7.28 1H4.95Zm14.5 2c-.83 0-1.5.67-1.5 1.5 0 .82.67 1.5 1.5 1.5 .82 0 1.5-.68 1.5-1.5 0-.83-.68-1.5-1.5-1.5Z"/></svg>