<svg viewBox="0 0 32 32" xmlns="http://www.w3.org/2000/svg"><path d="M9 4v9h3.75l-.22 1h-.54c-.04 0-.07 0-.1 0 -.56.02-.99.49-.96 1.04 .02.55.49.98 1.04.95h.09l-1 4.56 -.72 1.43H8.96c-.04 0-.07 0-.1 0 -.56.02-.99.49-.96 1.04 .02.55.49.98 1.04.95l-1.82 2.4 -.19.25v2.34h18v-2.35l-.19-.25 -1.82-2.41c.35 0 .69-.19.87-.5 .17-.32.17-.7 0-1.01 -.19-.32-.52-.5-.88-.5H21.53l-.72-1.44 -1-4.57h.09c.35 0 .69-.19.87-.5 .17-.32.17-.7 0-1.01 -.19-.32-.52-.5-.88-.5h-.54l-.22-1h3.75v-9Zm2 2h2v3h2V6h2v3h2V6h2v5H11Zm3.78 7h2.43l.21 1h-2.88Zm-.66 3h3.75l1.15 5.21 .03.125 .03.09 .28.56h-6.75l.28-.57 .03-.1 .03-.125Zm-2.625 8h9l2.25 3H9.24Z"/></svg>