<svg viewBox="0 0 32 32" xmlns="http://www.w3.org/2000/svg"><path d="M16 9c-2.2 0-4 1.8-4 4 0 1.19.55 2.26 1.4 3h-1.41c-.04 0-.07 0-.1 0 -.56.02-.99.49-.96 1.04 .02.55.49.98 1.04.95h.5l-1.41 3.56 -.72 1.43H8.96c-.04 0-.07 0-.1 0 -.48.03-.86.38-.93.85 -.07.46.2.91.64 1.08l-1.35 1.34 -.29.31v2.4h18v-2.41l-.29-.32 -1.35-1.35c.45-.18.72-.65.63-1.13 -.09-.49-.52-.83-1.01-.81H21.53l-.72-1.44 -1.41-3.57h.5c.35 0 .69-.19.87-.5 .17-.32.17-.7 0-1.01 -.19-.32-.52-.5-.88-.5h-1.41c.84-.74 1.4-1.81 1.4-3 0-2.2-1.81-4-4-4Zm0 2c1.11 0 2 .88 2 2 0 1.11-.89 2-2 2 -1.12 0-2-.89-2-2 0-1.12.88-2 2-2Zm-1.32 7h2.625l1.75 4.375 .03.03v.03l.28.56h-6.75l.28-.57v-.04l.03-.04Zm-3.25 7h9.12l2 2H9.42Z"/></svg>