<svg viewBox="0 0 32 32" xmlns="http://www.w3.org/2000/svg"><path d="M16 3c-1.1 0-2 .9-2 2 0 .73.4 1.37 1 1.71v1.53c0 .42-.33.75-.75.75H11.9c-.32 0-.59-.15-.75-.375 .51-.37.84-.96.84-1.625 0-1.1-.91-2-2-2 -1.1 0-2 .9-2 2 0 .73.4 1.37 1 1.71v1.68l.28.31 2.34 2.34c-.46.17-.73.64-.63 1.12 .09.48.51.82 1 .81h.65l-1.57 5.56 -.07.15 -.66 1.28H8.95c-.04 0-.07 0-.1 0 -.56.02-.99.49-.96 1.04 .02.55.49.98 1.04.95l-1.82 2.4 -.19.25v2.34h18v-2.35l-.19-.25 -1.82-2.41c.35 0 .69-.19.87-.5 .17-.32.17-.7 0-1.01 -.19-.32-.52-.5-.88-.5h-1.375l-.66-1.29 -.04-.07 -.04-.1 -1.57-5.57h.65c.48.01.91-.33 1-.81 .09-.49-.18-.96-.64-1.13l2.34-2.35 .28-.32V8.58c.59-.35 1-.99 1-1.72 0-1.1-.91-2-2-2 -1.1 0-2 .9-2 2 0 .66.33 1.26.84 1.625 -.17.22-.44.375-.75.375h-2.35c-.43 0-.75-.33-.75-.75V6.57c.59-.35 1-.99 1-1.72 0-1.1-.91-2-2-2Zm0 7.34c.48.4 1.08.65 1.75.65h1.81l-2 2h-3.13l-2-2h1.81c.66 0 1.26-.26 1.75-.66Zm-1.25 4.65h2.5l1.78 6.28 .03.09 .31.625h-6.75l.31-.625 .03-.1Zm-3.25 9h9l2.25 3H9.25Z"/></svg>