<svg viewBox="0 0 32 32" xmlns="http://www.w3.org/2000/svg"><path d="M16 3c-1.1 0-2 .9-2 2 0 .44.15.85.4 1.18 -.36.375-.77.82-1.19 1.34 -1.05 1.28-2.22 2.76-2.22 4.46 0 1.13.41 2.16 1.06 3h-.07c-.04 0-.07 0-.1 0 -.56.02-.99.49-.96 1.04 .02.55.49.98 1.04.95h.5l-1.41 3.56 -.72 1.43H8.95c-.04 0-.07 0-.1 0 -.56.02-.99.49-.96 1.04 .02.55.49.98 1.04.95l-1.82 2.4 -.19.25v2.34h18v-2.35l-.19-.25 -1.82-2.41c.35 0 .69-.19.87-.5 .17-.32.17-.7 0-1.01 -.19-.32-.52-.5-.88-.5h-1.375l-.72-1.44 -1.41-3.57h.5c.35 0 .69-.19.87-.5 .17-.32.17-.7 0-1.01 -.19-.32-.52-.5-.88-.5 .62-.84 1-1.88 1-3 0-1.71-1.18-3.19-2.22-4.47 -.43-.52-.84-.97-1.19-1.35 .25-.34.4-.75.4-1.19 0-1.1-.91-2-2-2Zm0 4.46c.36.36.6.59 1.21 1.34 .95 1.16 1.78 2.68 1.78 3.18 0 1.67-1.31 3-2.97 3 -1.67 0-3.04-1.34-3.04-3 0-.5.82-2.02 1.78-3.19 .6-.75.85-.98 1.21-1.35Zm-1.32 9.53h2.625l1.75 4.375 .03.03v.03l.28.56h-6.75l.28-.57v-.04l.03-.04Zm-3.19 7h9l2.25 3H9.24Z"/></svg>