<svg viewBox="0 0 32 32" xmlns="http://www.w3.org/2000/svg"><path d="M16 4c-3.23 0-6.03 2.25-6.79 5.34 -1.25.484-2.29 1.46-2.82 2.68 -3.5-.26-6.41 2.52-6.41 5.96 0 3.3 2.691 6 6 6h3v-2h-3c-2.207 0-4-1.8-4-4 0-2.21 1.79-4 4-4 .27 0 .55.02.875.09l1 .21 .18-.97c.24-1.11 1.14-1.99 2.25-2.25l.65-.16 .09-.66c.36-2.44 2.48-4.29 4.93-4.29 1.89 0 3.61 1.05 4.46 2.75l.37.78 .84-.29c.46-.17.89-.25 1.31-.25 2.2 0 4 1.79 4 4 0 .03 0 .09 0 .125 -.01.06-.03.11-.04.18l-.07.71 .65.28c1.47.62 2.43 2.08 2.43 3.68 0 2.2-1.8 4-4 4h-2v2h2c3.3 0 6-2.7 6-6 0-2.17-1.16-4.13-3-5.19 -.11-3.22-2.76-5.82-6-5.82 -.4 0-.8.03-1.19.12 -1.29-1.95-3.45-3.13-5.82-3.13Zm5 9c-.64 0-1.16.51-1.16 1.15 0 .04.01.07.02.12 -.46-.37-1.12-.36-1.54.06 -.43.42-.44 1.08-.07 1.53 -.05-.01-.08-.03-.13-.03 -.64-.01-1.16.51-1.16 1.15 0 .63.51 1.15 1.15 1.15 .04 0 .07-.02.12-.03 -.37.45-.36 1.11.06 1.53 .42.42 1.08.43 1.53.06 -.01.04-.03.07-.03.12 -.01.63.51 1.15 1.15 1.15 .63 0 1.15-.52 1.15-1.16 0-.05-.02-.08-.03-.13 .45.36 1.11.35 1.53-.07 .42-.43.43-1.09.06-1.54 .04 0 .07.02.12.02 .63 0 1.15-.52 1.15-1.16 0-.64-.52-1.16-1.16-1.16 -.05 0-.08.01-.13.02 .36-.46.35-1.12-.07-1.54 -.43-.43-1.09-.44-1.54-.07 0-.05.02-.08.02-.13 0-.64-.52-1.16-1.16-1.16Zm-9 2v0c-.56 0-1 .44-1 1v0c-.56 0-1 .44-1 1 0 .55.44 1 1 1v0c0 .55.44 1 1 1v0c.55 0 1-.45 1-1v0c.55 0 1-.45 1-1 0-.56-.45-1-1-1v0c0-.56-.45-1-1-1Zm3 6c-.64 0-1.16.51-1.16 1.15 0 .04.01.07.02.12 -.46-.37-1.12-.36-1.54.06 -.43.42-.44 1.08-.07 1.53 -.05-.01-.08-.03-.13-.03 -.64-.01-1.16.51-1.16 1.15 0 .63.51 1.15 1.15 1.15 .04 0 .07-.02.12-.03 -.37.45-.36 1.11.06 1.53 .42.42 1.08.43 1.53.06 -.01.04-.03.07-.03.12 -.01.63.51 1.15 1.15 1.15 .63 0 1.15-.52 1.15-1.16 0-.05-.02-.08-.03-.13 .45.36 1.11.35 1.53-.07 .42-.43.43-1.09.06-1.54 .04 0 .07.02.12.02 .63 0 1.15-.52 1.15-1.16 0-.64-.52-1.16-1.16-1.16 -.05 0-.08.01-.13.02 .36-.46.35-1.12-.07-1.54 -.43-.43-1.09-.44-1.54-.07 0-.05.02-.08.02-.13 0-.64-.52-1.16-1.16-1.16Z"/></svg>