<svg viewBox="0 0 32 32" xmlns="http://www.w3.org/2000/svg"><path d="M21 4c-1.8 0-3.42.33-4.69.96 -1.27.63-2.32 1.66-2.32 3.03v4c0 .12.04.25.06.37 -.93-.25-1.97-.38-3.07-.38 -1.8 0-3.42.33-4.69.96 -1.27.63-2.32 1.66-2.32 3.03v8c0 1.36 1.04 2.39 2.31 3.03 1.26.63 2.89.96 4.68.96 1.79 0 3.41-.34 4.68-.97 1.26-.64 2.31-1.67 2.31-3.04v-.41c.91.24 1.92.4 3 .4 1.79 0 3.41-.34 4.68-.97 1.26-.64 2.31-1.67 2.31-3.04v-12c0-1.37-1.05-2.4-2.32-3.04 -1.27-.64-2.9-.97-4.69-.97Zm0 2c1.52 0 2.87.32 3.78.78 .9.45 1.21.92 1.21 1.21 0 .28-.32.76-1.22 1.21 -.91.45-2.26.78-3.79.78 -1.53 0-2.88-.33-3.79-.79 -.91-.46-1.22-.93-1.22-1.22 0-.29.31-.77 1.21-1.22 .9-.46 2.25-.79 3.78-.79Zm-5 4.84c.1.05.2.13.31.18 1.26.63 2.89.96 4.68.96 1.79 0 3.41-.34 4.68-.97 .1-.06.2-.13.31-.19v1.15c0 .28-.32.76-1.22 1.21 -.91.45-2.26.78-3.79.78 -1.53 0-2.88-.33-3.79-.79 -.91-.46-1.22-.93-1.22-1.22Zm-5 3.15c1.52 0 2.87.32 3.78.78 .9.45 1.21.92 1.21 1.21 0 .28-.32.76-1.22 1.21 -.91.45-2.26.78-3.79.78 -1.53 0-2.88-.33-3.79-.79 -.91-.46-1.22-.93-1.22-1.22 0-.29.31-.77 1.21-1.22 .9-.46 2.25-.79 3.78-.79Zm15 .84v1.15c0 .28-.32.76-1.22 1.21 -.91.45-2.26.78-3.79.78 -1.14 0-2.17-.19-3-.47v-1.54c0-.13-.05-.26-.07-.375 .92.24 1.96.375 3.06.375 1.79 0 3.41-.34 4.68-.97 .1-.06.2-.13.31-.19Zm-20 4c.1.05.2.13.31.18 1.26.63 2.89.96 4.68.96 1.79 0 3.41-.34 4.68-.97 .1-.06.2-.13.31-.19v1.15c0 .28-.32.76-1.22 1.21 -.91.45-2.26.78-3.79.78 -1.53 0-2.88-.33-3.79-.79 -.91-.46-1.22-.93-1.22-1.22Zm20 0v1.15c0 .28-.32.76-1.22 1.21 -.91.45-2.26.78-3.79.78 -1.14 0-2.17-.17-3-.44v-1.94c.91.24 1.91.375 3 .375 1.79 0 3.41-.34 4.68-.97 .1-.06.2-.13.31-.19Zm-20 4c.1.05.2.13.31.18 1.26.63 2.89.96 4.68.96 1.79 0 3.41-.34 4.68-.97 .1-.06.2-.13.31-.19v1.15c0 .28-.32.76-1.22 1.21 -.91.45-2.26.78-3.79.78 -1.53 0-2.88-.33-3.79-.79 -.91-.46-1.22-.93-1.22-1.22Z"/></svg>