<svg viewBox="0 0 32 32" xmlns="http://www.w3.org/2000/svg"><path d="M2 3v18h4v5.09l1.62-1.32 4.71-3.79h9.65v-18h-20Zm2 2h16v14h-8.35l-.29.21 -3.38 2.68v-2.91h-4v-14Zm7 2v1.03c-1.13.18-2 1.16-2 2.33 0 .75.42 1.45 1.1 1.79l2.89 1.44c-.01.22-.16.38-.39.38h-1.24c-.23 0-.39-.16-.39-.39v-.62h-2v.61c0 1.17.87 2.15 2 2.34v1.03h2V15.9c1.125-.19 2-1.18 2-2.35 0-.76-.44-1.45-1.11-1.79l-2.9-1.45s0 0 0-.01c0-.23.15-.38.38-.38h1.23c.22 0 .38.15.38.38v.61h2v-.62c0-1.18-.875-2.16-2-2.35V6.9h-2Zm13 2v2h4v12h-4v2.9l-3.66-2.91h-7.5l-2.5 2h9.31l6.34 5.09v-5.1h4v-16h-6Z"/></svg>