<svg viewBox="0 0 32 32" xmlns="http://www.w3.org/2000/svg"><path d="M16 4C9.37 4 4 9.37 4 16c0 6.62 5.37 12 12 12 6.62 0 12-5.38 12-12 0-.49-.04-.97-.1-1.44 -.4.27-.89.43-1.41.43 -1.08 0-1.99-.69-2.34-1.65 -.625.39-1.37.64-2.17.64 -2.22 0-4-1.79-4-4 0-.74.21-1.42.55-2.01 -.02 0-.04 0-.06 0 -1.39 0-2.5-1.12-2.5-2.5 0-.56.18-1.07.49-1.49 -.17-.01-.33-.02-.5-.02Zm7.5 0c-.83 0-1.5.67-1.5 1.5 0 .82.67 1.5 1.5 1.5 .82 0 1.5-.68 1.5-1.5 0-.83-.68-1.5-1.5-1.5Zm-9.45 2.18c.19 1.28.94 2.39 1.99 3.08 -.04.23-.05.48-.05.72 0 3.3 2.69 6 6 6 .49 0 .99-.07 1.46-.19 .68.62 1.54 1.03 2.48 1.15 -.49 5.06-4.77 9.03-9.96 9.03 -5.52 0-10-4.49-10-10 0-4.85 3.46-8.91 8.05-9.82Zm7.94 2.81c-.56 0-1 .44-1 1 0 .55.44 1 1 1 .55 0 1-.45 1-1 0-.56-.45-1-1-1Zm-8 1c-.56 0-1 .44-1 1 0 .55.44 1 1 1 .55 0 1-.45 1-1 0-.56-.45-1-1-1Zm13 0c-.56 0-1 .44-1 1 0 .55.44 1 1 1 .55 0 1-.45 1-1 0-.56-.45-1-1-1Zm-16 3c-1.11 0-2 .89-2 2 0 1.1.89 2 2 2 1.1 0 2-.9 2-2 0-1.11-.9-2-2-2Zm5 2c-.56 0-1 .44-1 1 0 .55.44 1 1 1 .55 0 1-.45 1-1 0-.56-.45-1-1-1Zm-3.5 4c-.83 0-1.5.67-1.5 1.5 0 .82.67 1.5 1.5 1.5 .82 0 1.5-.68 1.5-1.5 0-.83-.68-1.5-1.5-1.5Zm7 1c-.83 0-1.5.67-1.5 1.5 0 .82.67 1.5 1.5 1.5 .82 0 1.5-.68 1.5-1.5 0-.83-.68-1.5-1.5-1.5Z"/></svg>