<svg viewBox="0 0 32 32" xmlns="http://www.w3.org/2000/svg"><path d="M16 3C8.83 3 3 8.83 3 16c0 7.16 5.83 13 13 13 7.16 0 13-5.84 13-13 0-7.17-5.84-13-13-13Zm0 2c6.06 0 11 4.93 11 11 0 1.23-.22 2.42-.6 3.53l-9.41-4.19v-1.35h-2.72c.11-.39.26-.73.43-1 .44-.69.94-1 1.75-1 .73 0 1.15.3 1.81 1.06l1.53-1.32c-.81-.94-1.91-1.75-3.35-1.75 -1.47 0-2.69.78-3.41 1.9 -.28.42-.48.9-.64 1.4L6.37 10.6c1.88-3.36 5.47-5.64 9.59-5.64ZM5.59 12.46l5.4 2.4v.63h1.03c-.01.16-.04.33-.04.5 0 .16.02.33.03.5h-1.04v1.5h1.21c.17.76.44 1.47.84 2.09 .72 1.125 1.94 1.9 3.4 1.9 1.37 0 2.5-.7 3.34-1.66L18.22 19c-.63.72-1.02.96-1.82.96 -.81 0-1.31-.32-1.75-1 -.18-.28-.32-.62-.44-1h2.71v-.46l8.59 3.82c-1.89 3.35-5.48 5.63-9.6 5.63 -6.07 0-11-4.94-11-11 0-1.24.21-2.43.59-3.54Z"/></svg>