<svg viewBox="0 0 32 32" xmlns="http://www.w3.org/2000/svg"><path d="M16 3c-1.65 0-3 1.35-3 3 0 1.12.63 2.11 1.56 2.625L11.62 14.5l-4.6-3.29c.6-.56.96-1.35.96-2.22 0-1.65-1.36-3-3-3 -1.65 0-3 1.35-3 3 0 1.34.92 2.46 2.15 2.84l1.84 10.15v5h20v-5l1.84-10.16c1.23-.375 2.15-1.5 2.15-2.85 0-1.65-1.36-3-3-3 -1.65 0-3 1.35-3 3 0 .87.36 1.66.96 2.21l-4.6 3.28 -2.94-5.875c.92-.52 1.56-1.5 1.56-2.625 0-1.65-1.36-3-3-3Zm0 2c.56 0 1 .43 1 1 0 .56-.44 1-1 1 -.57 0-1-.44-1-1 0-.57.43-1 1-1ZM5 8c.56 0 1 .43 1 1 0 .56-.44 1-1 1 -.57 0-1-.44-1-1 0-.57.43-1 1-1Zm22 0c.56 0 1 .43 1 1 0 .56-.44 1-1 1 -.57 0-1-.44-1-1 0-.57.43-1 1-1Zm-11 2.25l3.09 6.18 1.5.375 5-3.57 -1.41 7.75H7.805l-1.41-7.75 5 3.56 1.5-.375ZM8 23h16v2H8Z"/></svg>