<svg viewBox="0 0 32 32" xmlns="http://www.w3.org/2000/svg"><path d="M16 4l-.375.15 -6 2.4L9 6.8v6.71l-5.41 2.34 -.6.28v8.06l.5.31 6 3.34 .46.25 .46-.22 5.56-2.79 5.56 2.78 .46.21 .46-.25 6-3.35 .5-.32v-8.07l-.6-.29 -5.41-2.35V6.72l-.625-.25 -6-2.41Zm0 2.18l3.28 1.28 -3.29 1.28 -3.29-1.29Zm-5 2.75l4 1.53v4.875l-4-1.79Zm10 0v4.62l-4 1.78v-4.875ZM10 15.3l3.625 1.59L10 18.67l-3.625-1.82Zm12 0l3.625 1.56L22 18.67l-3.625-1.79 1.125-.5ZM5 18.39l4 2v4.9l-4-2.25Zm22 0v4.65l-4 2.25v-4.91Zm-12 .06v4.9l-4 2v-4.97Zm2 0l4 1.93v4.96l-4-2Z"/></svg>