<svg viewBox="0 0 32 32" xmlns="http://www.w3.org/2000/svg"><path d="M19.65 4.31c-.78.09-1.47.64-1.69 1.43l-2.66 9.31 -3.35.96c-.24-1.7-1.72-3.04-3.47-3.04 -1.93 0-3.5 1.57-3.5 3.5 0 1.92 1.57 3.5 3.5 3.5 1.28 0 2.42-.74 3.03-1.79l3.12-.875 -.88 3.12c-1.06.6-1.79 1.74-1.79 3.03 0 1.92 1.57 3.5 3.5 3.5 1.92 0 3.5-1.58 3.5-3.5 0-1.76-1.34-3.24-3.04-3.47l4.46-15.66c-.27-.08-.53-.1-.79-.07Zm7.96 7.25l-8.72 2.46 -.66 2.28 8-2.29c1.06-.31 1.67-1.41 1.375-2.47ZM8.485 14.99c.83 0 1.5.66 1.5 1.5 0 .83-.67 1.5-1.5 1.5 -.84 0-1.5-.67-1.5-1.5 0-.84.66-1.5 1.5-1.5Zm7 7c.83 0 1.5.66 1.5 1.5 0 .83-.67 1.5-1.5 1.5 -.84 0-1.5-.67-1.5-1.5 0-.84.66-1.5 1.5-1.5Z"/></svg>