<svg viewBox="0 0 32 32" xmlns="http://www.w3.org/2000/svg"><path d="M6.04 5c-.1 0-.19.05-.24.14 -.5.76-.6 2.24.27 3.05 .13.13.3.21.46.3 -.09.07-.2.13-.27.22l-3.03 4.03c-.3.39-.34.91-.12 1.35l.58 1.16c.22.44.67.72 1.16.72H6.1c.35 0 .66-.15.91-.39l1.54-1.41 2.39 4.78h14v-3.51c.66.49.84.89 1.73 2.22 .2.3.6.37.9.17l1.08-.73c.3-.2.37-.61.17-.92l-.81-1.19c-1.14-1.72-3.05-3.08-5.12-3.08h-9.58L9.84 8.49c.99-.96 1.14-2.5.53-3.42 -.14-.21-.45-.25-.63-.07L7.98 7.32 6.2 4.98c-.07-.08-.17-.11-.27-.1Zm7.51 9c.06 0 .13.03.17.1l.37.77 .85.12c.14.01.2.21.09.31l-.62.61 .14.84c.02.15-.14.26-.27.19l-.77-.4 -.77.39c-.14.07-.3-.04-.27-.2l.14-.85 -.62-.62c-.12-.11-.06-.3.1-.32l.85-.13 .37-.78c.03-.07.09-.11.16-.11Zm4.38 0c.06 0 .13.03.17.1l.37.77 .85.12c.14.01.21.21.09.31l-.62.61 .14.84c.02.15-.13.26-.27.19l-.77-.4 -.77.39c-.13.07-.3-.04-.27-.2l.14-.85 -.62-.62c-.12-.11-.06-.3.1-.32l.85-.13 .37-.78c.03-.07.09-.11.16-.11Zm4.48 0c.06 0 .13.03.17.1l.37.77 .85.12c.14.01.21.21.09.31l-.62.61 .14.84c.02.15-.14.26-.27.19l-.77-.4 -.77.39c-.13.07-.3-.04-.27-.2l.14-.85 -.62-.62c-.12-.11-.06-.3.1-.32l.85-.13 .37-.78c.03-.07.09-.11.16-.11Zm-11.44 7v5.34c0 .36.29.65.65.65h2.69c.36 0 .65-.3.65-.66v-3.35h6v3.34c0 .36.29.65.65.65h2.69c.36 0 .65-.3.65-.66v-5.35h-14Z"/></svg>