<svg viewBox="0 0 32 32" xmlns="http://www.w3.org/2000/svg"><path d="M6.69 5c-.25.01-.7.03-.7.78v9.91c-.18 4.057 3.78 5.29 4.96 5.29h4.23c-.83-.8-1.14-1.76-1.21-2.49 -.06-.63.88-.71.93-.09 .01.1.25 2.57 2.69 2.57h.29l1.51-2.58 .24-.43h3.3v-7.41c0-1.9-.84-5.61-5.89-5.59h-4.05c.47.5.86 1.14.86 1.99 -.01.62-.94.62-.94 0 0-2.123-2.27-2.02-2.47-2 -.01 0-.02-.01-.03-.01H6.59Zm11.81 7c.92.05 1.77 1 1.39 2.29l-2.91-1.33c.37-.73.95-1.01 1.51-.98Zm1.93 6.99l-1.1 2h4.64c1.79 0 4-1 5-2h-8.56Zm-1.45 3c1 1 1.59 1.55 1.59 1.79 .01.09.02 1.99-1.83 2.88 -.53.24-.7.3-1.28.31l-1.5 2c1 0 1.54 0 1.95-.06 2.44-.32 4.1-2.2 4.55-3.33 .13-.34.48-1.23.49-3.63h-4Z"/></svg>