<svg viewBox="0 0 32 32" xmlns="http://www.w3.org/2000/svg"><path d="M12 1L0 13l12 12 12-12L12 1Zm0 2.8l9.19 9.19 -9.2 9.19 -9.2-9.2 9.19-9.2Zm0 4.19v0c-.56 0-1 .44-1 1 0 .55.44 1 1 1v0c.55 0 1-.45 1-1 0-.56-.45-1-1-1Zm-4 4v0c-.56 0-1 .44-1 1 0 .55.44 1 1 1v0c.55 0 1-.45 1-1 0-.56-.45-1-1-1Zm4 0v0c-.56 0-1 .44-1 1 0 .55.44 1 1 1v0c.55 0 1-.45 1-1 0-.56-.45-1-1-1Zm4 0v0c-.56 0-1 .44-1 1 0 .55.44 1 1 1v0c.55 0 1-.45 1-1 0-.56-.45-1-1-1Zm10.8 1l-2 2h5.19v12h-12v-5.2l-2 2v5.19h16v-16h-5.2Zm-14.81 3v0c-.56 0-1 .44-1 1 0 .55.44 1 1 1v0c.55 0 1-.45 1-1 0-.56-.45-1-1-1Zm12 4v0c-.56 0-1 .44-1 1 0 .55.44 1 1 1v0c.55 0 1-.45 1-1 0-.56-.45-1-1-1Z"/></svg>