<svg viewBox="0 0 32 32" xmlns="http://www.w3.org/2000/svg"><path d="M9.51 6.98c0 .37 0 1.95 0 1.95h2.81s.35.01.35-.4c0-.38 0-1.97 0-1.97H9.85s-.36-.01-.36.39Zm0 4.06c0 .37 0 10.58 0 10.58h2.81s.35 0 .35-.4c0-.09 0-10.59 0-10.59H9.85s-.37-.01-.37.39ZM5.37 6.97v3.66H.34s-.36-.01-.36.39V21.6h8.2s.35 0 .35-.4c0-.38 0-14.66 0-14.66H5.71s-.36-.01-.36.39Zm0 11.89c0 .4-.36.39-.36.39H3.08v-5.875c0-.41.35-.4.35-.4h1.92Zm8.39-7.84V21.6h5.38v1.41h-5.03s-.36-.02-.36.39c0 .37 0 1.96 0 1.96h8.19s.36 0 .36-.4c0-.38 0-14.35 0-14.35l-8.21-.01s-.36-.01-.36.39Zm3.1 2.35c0-.41.35-.4.35-.4h1.92v5.87c0 .4-.36.39-.36.39h-1.93Zm6.9-2.75s-.36-.01-.36.39v10.58h5.38V23h-5.03s-.36-.02-.36.39c0 .37 0 1.96 0 1.96h8.2s.35 0 .35-.4c0-.38 0-14.35 0-14.35Zm5.03 8.23c0 .4-.36.39-.36.39H26.5V13.36c0-.41.35-.4.35-.4h1.92Z"/></svg>