<svg viewBox="0 0 32 32" xmlns="http://www.w3.org/2000/svg"><path d="M12.65 4.9l-.79.09s-3.51.38-6.07 2.43h-.04l-.04.03c-.58.52-.83 1.17-1.22 2.12 -.4.94-.82 2.16-1.19 3.5 -.75 2.68-1.35 5.93-1.35 8.9v.25l.125.25c.92 1.625 2.57 2.66 4.09 3.375 1.52.71 2.83 1.09 3.75 1.125l.59.03 .31-.54 1.09-1.94c1.16.26 2.49.43 4.03.43 1.53 0 2.87-.18 4.03-.44l1.09 1.93 .31.53 .59-.04c.91-.04 2.22-.42 3.75-1.125 1.52-.72 3.16-1.75 4.09-3.375l.125-.25v-.25c0-2.98-.61-6.23-1.35-8.91 -.38-1.34-.8-2.56-1.19-3.5 -.4-.95-.65-1.6-1.22-2.13l-.04-.04h-.04c-2.56-2.06-6.07-2.44-6.07-2.44l-.79-.1 -.29.71s-.29.73-.47 1.56c-1.14-.16-2.06-.19-2.6-.19s-1.47.03-2.6.18c-.18-.84-.47-1.57-.47-1.57Zm-1.38 2.28c.04.14.08.26.12.375 -1.3.32-2.68.8-3.94 1.59l1.06 1.68c2.59-1.61 6.32-1.85 7.46-1.85 1.14 0 4.875.23 7.46 1.84l1.06-1.69c-1.27-.79-2.65-1.28-3.94-1.6 .03-.12.08-.24.125-.375 .93.18 2.71.61 4.18 1.78 -.01 0 .375.58.71 1.4 .35.84.74 1.97 1.09 3.25 .67 2.44 1.2 5.41 1.25 8.03 -.63.96-1.8 1.82-3.04 2.4 -1.08.5-1.93.68-2.44.78l-.5-.85c.29-.11.58-.24.84-.35 1.53-.68 2.375-1.41 2.375-1.41l-1.32-1.5s-.57.51-1.88 1.09c-1.32.57-3.32 1.15-6.04 1.15s-4.72-.58-6.04-1.16c-1.32-.58-1.875-1.1-1.875-1.1l-1.32 1.5s.83.73 2.37 1.4c.25.11.54.23.84.34l-.5.84c-.51-.1-1.36-.28-2.44-.79 -1.24-.58-2.41-1.45-3.04-2.41 .04-2.62.57-5.59 1.25-8.04 .35-1.28.74-2.41 1.09-3.25 .34-.83.72-1.41.71-1.41 1.47-1.17 3.25-1.6 4.18-1.79Zm1.21 6.81c-.78 0-1.46.44-1.875 1 -.42.55-.625 1.24-.625 2 0 .75.2 1.44.625 2 .41.55 1.1 1 1.875 1 .77 0 1.45-.45 1.87-1 .41-.56.62-1.25.62-2 0-.76-.21-1.45-.63-2 -.42-.56-1.11-1-1.88-1Zm7 0c-.78 0-1.46.44-1.875 1 -.42.55-.625 1.24-.625 2 0 .75.2 1.44.625 2 .41.55 1.1 1 1.875 1 .77 0 1.45-.45 1.875-1 .41-.56.625-1.25.625-2 0-.76-.21-1.45-.625-2 -.42-.56-1.11-1-1.875-1Zm-7 2c.05 0 .125.01.25.18 .12.16.25.46.25.81 0 .35-.13.64-.25.81 -.125.16-.2.18-.25.18 -.06 0-.13-.02-.25-.19 -.125-.17-.25-.47-.25-.82 0-.36.125-.65.25-.82 .12-.17.19-.19.25-.19Zm7 0c.05 0 .125.01.25.18 .125.16.25.46.25.81 0 .35-.125.64-.25.81 -.125.16-.2.18-.25.18 -.06 0-.125-.02-.25-.19s-.25-.47-.25-.82c0-.36.125-.65.25-.82 .125-.17.19-.19.25-.19Z"/></svg>