<svg viewBox="0 0 32 32" xmlns="http://www.w3.org/2000/svg"><path d="M16 3C8.83 3 3 8.83 3 16c0 7.16 5.83 13 13 13 7.16 0 13-5.84 13-13 0-7.17-5.84-13-13-13Zm0 2c6.06 0 11 4.93 11 11 0 6.06-4.94 11-11 11C9.93 27 5 22.06 5 16 5 9.93 9.93 5 16 5Zm-6.3 5.29L8.28 11.7l1.79 1.79 -1.8 1.79 1.41 1.41 1.79-1.8 1.79 1.79 1.41-1.42 -1.8-1.8 1.79-1.8 -1.42-1.42 -1.8 1.79 -1.8-1.8Zm9 0l-1.42 1.41 1.79 1.79 -1.8 1.79 1.41 1.41 1.79-1.8 1.79 1.79 1.41-1.42 -1.8-1.8 1.79-1.8 -1.42-1.42 -1.8 1.79 -1.8-1.8Zm-2.71 7.7c-2.21 0-4 1.52-4 3.4 0 1.72 1.346 2.59 4 2.59 2.65 0 4-.88 4-2.6 0-1.875-1.8-3.41-4-3.41Zm0 2c1.08 0 2 .64 2 1.4 0 .16 0 .59-2 .59s-2-.44-2-.6c0-.76.91-1.41 2-1.41Z"/></svg>