<svg viewBox="0 0 32 32" xmlns="http://www.w3.org/2000/svg"><path d="M20.31 3l-.25.65 -2.75 7.34H9.62c-.92 0-1.79.25-2.5.71L4.71 9.26l-1.44 1.43 2.43 2.4c-.47.71-.72 1.58-.72 2.5 0 .5.08 1.01.25 1.5l.71 2.09L5 22.71l-.04.125v5.125h2v-4.875l.96-3.66 .06-.32 -.1-.29 -.82-2.41c-.09-.27-.13-.56-.13-.85 0-1.47 1.15-2.625 2.625-2.625h8.03l3.34 3.28v-2.82L19.1 11.6l2.06-5.54 .25.37 .28.46h1.87l3.06 2.31 -.85 1.68H21.9v5.875l-.94 2.81 -.07.15v3.28l1 4v.875h2v-1.125l-1-4v-2.75l.93-2.82 .06-.16v-4.16H27l2.15-4.32 -.69-.5 -4.25-3.19h-1.44L21.8 3.3l-.29-.47Zm-10.1 15l-1.22 4.875V28h2v-4.875L11.77 20h.93c.35.23 1.59 1 3.28 1h1v2.125l1 4V28h2v-1.125l-1-4V19h-3c-1.07 0-2.44-.85-2.44-.85l-.25-.16Z"/></svg>