<svg viewBox="0 0 32 32" xmlns="http://www.w3.org/2000/svg"><path d="M5 5v22h22V5H5Zm2 2h18v18H7V7Zm9.25 1c-2.125 0-2.125 5.5-2.125 5.56 0 .64.02 1.24.06 1.81 -.3-.11-.64-.19-1-.19 -2.183 0-3.19 1.84-3.19 3.81 0 1.84 1.04 4 3.4 4 1.11 0 2.08-.72 2.84-1.79 .67.68 1.35.93 1.875.93 1.66 0 2.75-2.91 3.15-4.16 .11-.4-.1-.86-.5-.97 -.4-.13-.81.09-.94.5 -.47 1.47-1.34 3.01-1.72 3.09 -.29 0-.68-.25-1.1-.82 .95-2 1.43-4.49 1.43-6.16 0-4.676-1.22-5.66-2.22-5.66Zm.06 1.625c.23.35.65 1.48.65 4.03 0 1.35-.33 2.92-.82 4.31 -.32-1.08-.54-2.53-.54-4.41 0-1.74.37-3.39.68-3.94Zm-3.41 7.09c.09-.02.18 0 .28 0 .641 0 1.12.46 1.12.46 .03.03.07.09.12.125 .2 1.05.52 1.89.87 2.56 -.58.96-1.25 1.59-1.91 1.59 -1.72 0-1.88-1.53-1.88-2.19 0-.11.02-2.3 1.37-2.57Z"/></svg>