<svg viewBox="0 0 32 32" xmlns="http://www.w3.org/2000/svg"><path d="M16 4C9.38 4 4 9.38 4 16c0 6.61 5.38 12 12 12 6.61 0 12-5.39 12-12 0-6.62-5.39-12-12-12Zm0 2c2.53 0 4.83.95 6.59 2.5 -.19.26-.45.57-.85.96 -.86.82-2.23 1.82-4.32 2.59C16 9.43 14.61 7.47 13.7 6.23c.73-.17 1.49-.25 2.28-.25Zm-4.25.93c.82 1.07 2.28 3.06 3.75 5.71 -4.07 1.07-7.8 1.21-9.29 1.21 .66-3.09 2.74-5.64 5.53-6.94Zm12.21 3.03c1.21 1.61 1.97 3.6 2.03 5.78 -.9-.2-2.21-.4-3.91-.41 -.89-.01-1.9.05-2.97.18 -.25-.58-.52-1.13-.79-1.66 2.24-.86 3.76-2 4.78-2.97 .34-.34.61-.65.84-.94Zm-7.57 4.5c.23.46.46.94.68 1.43 -4.28 1.18-7.35 4.8-8.66 6.62 -1.52-1.75-2.44-4.04-2.44-6.54 0-.05 0-.09 0-.13 1.35.01 5.64-.08 10.4-1.41Zm5.68 2.84c1.78 0 3.01.25 3.75.43 -.47 2.66-1.97 4.94-4.1 6.43 -.4-2.4-1.06-4.67-1.85-6.75 .78-.08 1.53-.125 2.18-.125Zm-4.22.46c.89 2.28 1.65 4.78 2.03 7.43 -1.2.5-2.53.78-3.91.78 -2.3 0-4.42-.77-6.1-2.07 1.02-1.41 4.04-5.15 7.96-6.16Z"/></svg>