<svg viewBox="0 0 32 32" xmlns="http://www.w3.org/2000/svg"><path d="M27.18 5.09l-11.07 5.25c-.33-.22-.72-.35-1.13-.35 -1.11 0-2 .89-2 2 0 1.1.89 2 2 2 1.05 0 1.92-.82 2-1.85l6.06-2.88c1.81.76 2.93 1.76 2.93 2.71 0 1.88-4.28 4-10 4 -5.73 0-10-2.12-10-4 0-1.89 4.27-4 10-4 .17 0 .32-.01.5 0L20 6.31c-1.26-.22-2.6-.35-4.04-.35 -6.84 0-12 2.57-12 6v10c0 .98.44 1.89 1.12 2.625 .67.73 1.6 1.32 2.68 1.81 2.16.98 5.02 1.56 8.18 1.56s6.02-.58 8.18-1.57c1.08-.5 2-1.09 2.68-1.82 .67-.74 1.125-1.64 1.125-2.625v-10c0-1.48-.98-2.79-2.625-3.82l2.65-1.29ZM5.99 15.4c1.01.76 2.37 1.39 4 1.84v7.9c-.5-.16-.96-.34-1.375-.54 -.91-.42-1.6-.92-2.04-1.375 -.44-.47-.6-.86-.6-1.25Zm20 0v6.59c0 .39-.17.78-.6 1.25 -.44.46-1.125.96-2.04 1.375 -.42.19-.875.375-1.375.53v-7.91c1.62-.45 2.98-1.08 4-1.85Zm-14 2.28c1.24.2 2.58.31 4 .31 1.41 0 2.75-.11 4-.32v7.93c-1.24.23-2.58.375-4 .375 -1.43 0-2.77-.15-4-.375Z"/></svg>