<svg viewBox="0 0 32 32" xmlns="http://www.w3.org/2000/svg"><path d="M19.65 4c-2.14 0-4.28.81-5.91 2.44 -1.57 1.56-3.41 5.95-5.48 13.03l-1.6 1.59c-.23-.06-.45-.09-.68-.09 -1.66 0-3 1.34-3 3 0 1.35.9 2.49 2.13 2.87 .37 1.23 1.51 2.12 2.86 2.12 1.65 0 3-1.35 3-3 0-.23-.03-.46-.09-.68l1.59-1.6c1.76-.52 4.26-1.29 6.6-2.15l1.15-.43 -.66-1.05c-.41-.65-.62-1.38-.62-2.12 0-2.21 1.79-4 4-4 1.1 0 2.14.45 2.91 1.27l1.16 1.24 .52-1.63c.95-3 .17-6.24-2.05-8.46 -1.63-1.63-3.77-2.45-5.91-2.45Zm-.01 2c1.62-.01 3.25.61 4.49 1.85 1.32 1.32 1.97 3.12 1.84 4.93 -.9-.53-1.92-.8-2.99-.8 -3.31 0-6 2.69-6 6 0 .7.12 1.41.38 2.08 -1.6.56-3.13 1.03-4.47 1.43l-2.44-2.44c1.78-5.95 3.47-10.02 4.67-11.23 1.23-1.24 2.86-1.86 4.49-1.86ZM9.56 21l1.41 1.41 -2.47 2.46 .34.65c.08.15.12.3.12.46 0 .55-.45 1-1 1 -.56 0-1-.45-1-1v-1h-1c-.56 0-1-.45-1-1 0-.56.44-1 1-1 .15 0 .3.04.46.12l.65.34 2.46-2.47Z"/></svg>