<svg viewBox="0 0 32 32" xmlns="http://www.w3.org/2000/svg"><path d="M14.53 2.78l-.5 2.28s-.13.56-.41 1.18c-.29.62-.77 1.17-1.04 1.28v.03c-4.41 1.43-7.6 5.56-7.6 10.43 0 6.06 4.93 11 11 11 6.06 0 11-4.94 11-11 0-5.31-3.77-9.76-8.79-10.79 -.09-.02-.9-.59-1.44-1.22 -.55-.64-.94-1.25-.94-1.25Zm.78 4.56c.63.73 1.33 1.58 2.5 1.84 4.09.83 7.18 4.45 7.18 8.81 0 1.24-.27 2.42-.72 3.5 .23-.65.34-1.36.34-1.82 0-.66-.29-1.75-1.35-1.75 -1 0-3.04 2.07-4.1 2.09 -1.25.02-2.99-2.46-5.47-2.44 -1.95.02-3.49 1.56-3.5 3.21 -.02.93.3 1.61.93 2.06 .42.27.78.46 2.06.46 2.09 0 4.76-2.61 6-2.57 .97.04 2.51 2.4 3.28 2.46 .59.04.89-.23 1.4-.97 -1.52 2.8-4.49 4.71-7.91 4.71 -4.99 0-9-4.02-9-9 0-4.03 2.62-7.41 6.25-8.57l.03-.04h.03c1.07-.41 1.62-1.29 2-2.07Zm3 14.9c-.14.01-.29.05-.47.125 -.36.14-.74.47-.97.68 -.24.21-.29.39-.16.56 .12.17.26.07.625-.22 .35-.3.57-.57 1.31-.57 .74 0 .88.28 1.03.56 .14.27.16.3.31.21 .17-.09.27-.2.18-.41 -.09-.22-.25-.61-.5-.79 -.26-.18-.6-.19-.94-.19 -.17 0-.31-.02-.44 0Zm2.18 2.28c-.04 0-.08.02-.125.06 -.43.31-1.4.68-2.75.68 -1.36 0-1.99-.29-2.41-.63 -.07-.05-.03-.04-.16-.04s-.24.07-.35.15c-.11.08-.15.28 0 .43 .93.84 2.48.79 3.62.68 1.14-.11 2.14-.81 2.25-.91 .14-.15.08-.26.06-.35 -.02-.07-.06-.15-.16-.125Z"/></svg>