<svg viewBox="0 0 32 32" xmlns="http://www.w3.org/2000/svg"><path d="M5 6l-2 8h1.33l.33 2H2.99v2h2l1 6v2h2v-2h11.63c.29-.74.67-1.4 1.06-2H7.66l-1.34-8h1.82 2.06 4.75 2 4.75 2.06 1.82l-.55 3.25 1.45-1.11s2.09 1.73 2.21 1.84h.22v-2h-1.67l.33-2h1.33l-2-8h-10 -2 -10Zm1.56 2h2.77l-.77 4H5.55l1-4Zm4.82 0h3.6v4h-4.37l.75-4Zm5.6 0h3.6l.75 4h-4.37V8Zm5.66 0h2.77l1 4H23.4l-.77-4Zm3.86 10.66l-.65.56s-1.23.98-2.42 2.41c-1.19 1.43-2.48 3.33-2.48 5.47 0 1.51.63 2.81 1.66 3.67 1.02.87 2.38 1.32 3.83 1.32 1.45 0 2.81-.46 3.83-1.33 1.03-.86 1.66-2.17 1.66-3.68 0-1.99-1.3-3.82-2.48-5.29 -1.18-1.48-2.34-2.57-2.34-2.57l-.67-.6Zm-.06 2.78c.39.38.75.69 1.5 1.62 1.07 1.34 2.02 3.06 2.02 4.03 0 .98-.38 1.67-.98 2.17 -.18.16-.39.3-.62.41 .05-.19.08-.39.08-.59 0-2.95-1.57-4.7-1.57-4.7s.05 2.63-.75 2.63c-.55 0-1.1-.85-1.1-.85s-.59 1.26-.59 2.91c0 .2.03.39.08.58 -.23-.11-.44-.26-.62-.42 -.6-.5-.98-1.2-.98-2.18 0-1.26.96-2.93 2.02-4.2 .73-.87 1.06-1.13 1.44-1.47Z"/></svg>