<svg viewBox="0 0 32 32" xmlns="http://www.w3.org/2000/svg"><path d="M3.71 2.28L2.27 3.71l6.21 6.18 11.09 11.09 1.9 1.93 6.78 6.78 1.43-1.44 -6.22-6.22c4.23-2.1 7.07-5.22 7.25-5.41l.59-.66 -.6-.66c-.27-.31-6.67-7.35-14.75-7.35 -1.96 0-3.81.42-5.5 1.06Zm12.28 7.71c2.15 0 4.18.6 6 1.43 .64 1.07 1 2.29 1 3.56 0 1.81-.71 3.47-1.85 4.71l-2.85-2.85c.41-.52.68-1.17.68-1.875 0-1.66-1.35-3-3-3 -.72 0-1.37.26-1.875.68l-2.04-2.04c1.24-.39 2.54-.66 3.9-.66Zm-9.32.9c-3.21 1.97-5.29 4.26-5.44 4.43l-.6.65 .59.65c.25.28 6.17 6.76 13.81 7.28 .3.03.62.06.93.06 .31 0 .62-.04.93-.07 .82-.06 1.62-.17 2.4-.35l-1.79-1.79c-.51.11-1.03.18-1.57.18 -3.86 0-7-3.15-7-7 0-.54.07-1.06.18-1.57Zm.56 2.03c-.17.67-.25 1.36-.25 2.06 0 1.73.48 3.33 1.34 4.71 -2.29-1.32-4.04-2.86-4.94-3.72 .74-.73 2.08-1.93 3.84-3.07Zm17.5 0c1.75 1.14 3.09 2.33 3.84 3.06 -.9.86-2.68 2.43-4.97 3.75 .85-1.38 1.375-3.02 1.375-4.75 0-.7-.09-1.4-.25-2.07Z"/></svg>