<svg viewBox="0 0 32 32" xmlns="http://www.w3.org/2000/svg"><path d="M3.71 2.28L2.27 3.71l6.18 6.15 12.96 12.96 6.84 6.875 1.43-1.44 -6.35-6.35c4.09-2.09 7.15-5.03 7.34-5.22l.65-.66 -.625-.72c-.26-.31-6.36-7.35-14.75-7.35 -2 0-3.85.41-5.54 1.03Zm12.28 7.71c2.16 0 4.16.55 5.93 1.34 .67 1.1 1.06 2.35 1.06 3.65 0 1.81-.7 3.46-1.85 4.71l-2.85-2.85c.41-.52.68-1.17.68-1.875 0-1.66-1.35-3-3-3 -.72 0-1.37.27-1.875.68l-2.07-2.07c1.23-.38 2.54-.625 3.93-.625Zm-9.375.87c-3.24 1.98-5.24 4.29-5.375 4.46l-.625.71 .65.65c.28.28 6.81 6.66 13.78 7.21h.06c.28.02.58.06.875.06 .28 0 .58-.04.875-.07h.06c.79-.07 1.59-.21 2.375-.41l-1.72-1.72c-.25.05-.52.09-.79.125l-.125.03c-.47.03-.92.03-1.38 0l-.1-.04c-3.54-.4-6.22-3.38-6.22-6.94 0-.54.06-1.06.18-1.57Zm.65 1.96c-.18.7-.29 1.41-.29 2.15 0 1.61.43 3.12 1.18 4.43 -2.13-1.27-3.87-2.69-4.79-3.5 .74-.75 2.1-1.95 3.87-3.1Zm17.43 0c1.77 1.14 3.09 2.38 3.84 3.125 -.92.81-2.63 2.2-4.75 3.46 .75-1.32 1.18-2.83 1.18-4.44 0-.74-.11-1.46-.29-2.16Zm-8.72 1.15c.55 0 1 .44 1 1 0 .16-.06.3-.125.43l-1.32-1.32c.13-.08.27-.125.43-.125Z"/></svg>