<svg viewBox="0 0 32 32" xmlns="http://www.w3.org/2000/svg"><path d="M24.65 3.03c-1.11 0-2.23.41-3.07 1.25l-2.79 2.81 -1-1 -1.41 1.4 1 1 -9.5 9.5c-1.04 1.03-1.64 1.79-2 2.46 -.37.67-.5 1.28-.57 1.68 -.07.4-.11.62-.35 1.06 -.25.44-.74 1.07-1.72 2.06l-.69.71 .68.71 2 2 .71.68 .71-.69c.96-.97 1.57-1.43 2-1.66 .42-.24.65-.28 1.06-.35 .41-.08 1-.19 1.68-.57 .68-.38 1.46-1 2.53-2.07l9.5-9.5 1 1 1.4-1.41 -1-1 2.81-2.79c1.67-1.68 1.67-4.45 0-6.13 -.84-.84-1.96-1.25-3.07-1.25Zm0 2c.58 0 1.16.22 1.62.68 .91.91.91 2.36 0 3.28l-2.79 2.78 -3.29-3.29 2.78-2.79c.46-.47 1.06-.69 1.65-.69ZM18.8 9.9l3.28 3.28 -9.5 9.5c-.99.98-1.66 1.47-2.1 1.71 -.45.24-.67.27-1.07.34 -.41.06-.99.16-1.66.53 -.47.25-1.09.84-1.69 1.37l-.75-.75c.54-.62 1.14-1.25 1.4-1.72 .37-.69.49-1.31.56-1.72 .07-.42.11-.61.34-1.04 .23-.43.69-1.08 1.65-2.04Z"/></svg>