<svg viewBox="0 0 32 32" xmlns="http://www.w3.org/2000/svg"><path d="M16 8C7.66 8 1.25 15.34 1.25 15.34l-.6.65 .59.65s5.84 6.66 13.62 7.28c.37.04.74.06 1.12.06 .38 0 .75-.02 1.125-.07 7.77-.62 13.625-7.29 13.625-7.29l.59-.66 -.6-.66s-6.42-7.35-14.75-7.35Zm0 2c2.2 0 4.23.6 6 1.4 .63 1.05 1 2.26 1 3.59 0 3.61-2.72 6.58-6.22 6.96 -.02 0-.05-.01-.07 0 -.24.01-.48.03-.72.03 -.27 0-.53-.02-.79-.04 -3.51-.39-6.22-3.36-6.22-6.97 0-1.31.35-2.52.96-3.57H9.9c1.78-.83 3.83-1.44 6.06-1.44Zm0 2c-1.66 0-3 1.34-3 3 0 1.65 1.34 3 3 3 1.65 0 3-1.35 3-3 0-1.66-1.35-3-3-3Zm-8.75.93c-.16.67-.25 1.34-.25 2.06 0 1.75.5 3.39 1.37 4.78 -2.52-1.46-4.27-3.2-4.85-3.79 .48-.5 1.82-1.8 3.71-3.07Zm17.5 0c1.89 1.26 3.23 2.57 3.71 3.06 -.58.58-2.33 2.32-4.85 3.78 .875-1.39 1.375-3.03 1.375-4.79 0-.72-.1-1.4-.25-2.07Z"/></svg>