<svg viewBox="0 0 32 32" xmlns="http://www.w3.org/2000/svg"><path d="M16 4C10.48 4 6 8.48 6 14c0 5.51 4.48 10 10 10 5.51 0 10-4.49 10-10 0-5.52-4.49-10-10-10Zm0 2c4.23 0 7.67 3.27 7.96 7.43 -.61-.44-1.3-.7-2-.82 -.44-.08-.88-.11-1.32-.1 -.66.01-1.31.1-1.91.28 -.47-1.07-1.53-1.82-2.75-1.82 -.22 0-.43.01-.63.06 -.01-.01-.03 0-.04 0 -.65-.55-1.34-1.39-1.66-2.22 -.22-.56-.26-1.08-.16-1.5 .09-.42.31-.82.87-1.19 .51-.11 1.05-.16 1.59-.16Zm-4.5 1.4c-.07.73.05 1.45.31 2.12 .39 1.03 1.03 1.96 1.78 2.68 -.38.5-.6 1.11-.6 1.78 0 .79.3 1.52.81 2.06 -.17.79-.54 1.76-1.1 2.43 -.39.46-.83.77-1.25.9 -.43.12-.87.13-1.5-.19 -1.22-1.41-1.97-3.22-1.97-5.22 0-2.76 1.39-5.16 3.5-6.6Zm4.5 5.59c.56 0 1 .43 1 1 0 .56-.44 1-1 1 -.57 0-1-.44-1-1 0-.57.43-1 1-1Zm4.68 1.56c.32-.02.64.01.93.06 .58.1 1.07.31 1.4.625 .3.29.51.66.56 1.31 -1.07 3.16-4.07 5.43-7.6 5.43 -1.27 0-2.47-.29-3.54-.82 .71-.32 1.3-.84 1.78-1.41 .69-.84 1.17-1.84 1.43-2.82 .1.01.2.03.31.03 1.31 0 2.41-.88 2.81-2.07 .51-.2 1.19-.36 1.875-.38Zm-5.69 10.43v1h-6v2h14v-2h-6v-1Z"/></svg>