<svg viewBox="0 0 32 32" xmlns="http://www.w3.org/2000/svg"><path d="M16 2L2 16l14 14 14-14L16 2Zm0 2l12 11.99 -12 12 -12-12 12-12Zm0 1.99l-10 10 10 10 10-10 -10-10Zm.31 4c.67.05 1.31.3 1.89.72 1.1.82 2.8 2.66 2.81 2.66 .02.03.05.13.02.15 -.52.53-1.03 1.06-1.52 1.57 -1.55-1.47-1.84-1.74-2.21-2 -.81-.58-1.87-.46-2.58.23 -.1.09-.09.15 0 .24 .13.14 1.27 1.28 1.58 1.62 -.54.52-1.07 1.04-1.62 1.57 -.55-.58-1.11-1.16-1.66-1.73 -.97.96-1.89 1.86-2.8 2.76 -.63-.62-1.25-1.24-1.87-1.85 .09-.1.53-.56 4.36-4.42 1.16-1.18 2.39-1.66 3.52-1.58Zm5.42 4.17c.62.6 1.23 1.2 1.85 1.81 -.91.94-3.7 3.73-4.56 4.59 -1.61 1.596-3.54 1.71-4.85.92 -1.01-.62-1.78-1.46-3.31-3.03 .54-.57 1.07-1.1 1.6-1.64 1.48 1.44 1.67 1.62 2.01 1.9 .83.66 1.92.61 2.68-.09 .16-.16.16-.17 0-.34 -.48-.48-.96-.97-1.43-1.46 -.07-.06-.15-.11-.05-.21 .48-.49.97-.98 1.45-1.47 .01-.01.03-.02.09-.06 .55.58 1.12 1.17 1.67 1.75 .95-.94 1.86-1.84 2.77-2.74Z"/></svg>