<svg viewBox="0 0 32 32" xmlns="http://www.w3.org/2000/svg"><path d="M27 4c-8.81 0-13.21 4.79-15.32 7.09l-3.05 3.07c-1.71 1.69-2.64 3.95-2.64 6.36v1.46l2.02-2.03c.13-1.66.83-3.2 2.01-4.39l3.11-3.15c1.83-2.01 5.56-6.08 12.81-6.43 -.23 4.52-1.89 7.67-3.6 9.85l-3.38 1.12h2.41c-.7.75-1.36 1.36-1.87 1.83l-.99.97 -3.57 1.18h2.36l-.96.94c-1.33 1.32-3.08 2.05-4.95 2.05H9.34l9.29-9.3 -1.42-1.42 -13.3 13.29 1.41 1.41 2-2.01h4.04c2.4 0 4.66-.94 6.36-2.65l3.07-3.05c2.3-2.12 7.1-6.51 7.1-15.32v-1h-1Z"/></svg>