<svg viewBox="0 0 32 32" xmlns="http://www.w3.org/2000/svg"><path d="M16.04 3C8.86 2.98 3.03 8.78 3.01 15.96l-.03 9.88c-.01 1.718 1.37 3.11 3.08 3.12h.01l9.86.02c7.17.01 13-5.79 13.02-12.97 .01-7.18-5.79-13.02-12.96-13.04Zm2.87 5.01h.01c.32-.01.65.03.97.11 .54.08.96.57.96 1.16 0 .74-.73 1.34-1.47 1.15 -1.33-.29-3.2.69-3.2 2.65l-.01 2.27c-.01.23.19.43.42.43h0l1.62 0c1.57 0 1.56 2.39-.01 2.39l-2.07-.01 -.01 2.71c-.01 3.35-3.12 5.6-6.09 4.98 -.28 0-.97-.43-.97-1.18 0-.66.53-1.19 1.18-1.2 .3 0 .3.07.75.07 1.49 0 2.71-1.21 2.71-2.7v-.01l0-2.28c0-.22-.22-.44-.44-.44l-1.63-.01c-1.58-.01-1.58-2.4 0-2.39l2.06 0 0-2.72c0-2.82 2.28-5.09 5.1-5.09Zm2 .41c1.34.58 2.37 1.7 2.83 3.08l-2.63-2.65c-.04-.17-.11-.32-.21-.45Zm.28.79l2.67 2.71c.08.35.13.71.13 1.08l-3-3.04c.11-.23.18-.45.18-.7v-.08Zm-.31.94l3.11 3.13c-.02.27-.05.53-.12.8l-3.49-3.5c.19-.12.35-.27.47-.45Zm.38 1.62l2.57 2.58c-.07.23-.14.46-.23.69l-2-2.01c-.02-.45-.14-.88-.35-1.27Zm.32 1.57l1.91 1.92c-.1.2-.21.39-.33.58l-1.77-1.78c.09-.24.15-.49.17-.74Zm-.26.95l1.73 1.73c-.13.17-.27.34-.42.5l-1.69-1.7c.14-.17.26-.36.37-.56Zm-.53.71l1.68 1.69c-.16.15-.32.29-.49.43l-1.71-1.72c.18-.12.35-.26.5-.42Zm-.73.51l1.75 1.73c-.19.12-.39.24-.58.34l-1.84-1.86c.23-.06.46-.12.66-.23Zm-9.49.28c-.15.16-.28.35-.38.55l-.42-.42c.25-.08.51-.12.78-.15Zm-1.03.2l.57.57 -.05.38c0 .2.04.41.11.6l-1.31-1.32c.21-.11.43-.19.66-.26Zm-.89.35l1.84 1.85c-.24.04-.47.12-.69.22l-1.71-1.74c.17-.13.35-.25.54-.35Zm11.05.02l1.3 1.31c-.22.1-.44.19-.67.25l-.58-.58 .04-.4c-.01-.21-.05-.42-.12-.61Zm-11.79.44l1.7 1.71c-.19.12-.36.25-.51.41l-1.69-1.68c.14-.17.3-.33.48-.46Zm-.65.59l1.69 1.69c-.15.16-.28.35-.38.55l-1.74-1.74c.13-.19.27-.35.41-.51Zm12.42.18l.41.41c-.26.06-.52.11-.78.14 .15-.16.28-.35.36-.56Zm-12.96.5l1.76 1.77c-.1.23-.16.48-.18.73l-1.92-1.93c.09-.21.2-.4.32-.59Zm-.43.78l1.99 2.02c.01.44.12.87.32 1.26l-2.56-2.59c.06-.24.14-.47.22-.71ZM6 19.8l3.49 3.5c-.19.11-.35.25-.49.42l-3.12-3.11c0-.28.03-.56.1-.83Zm-.11 1.12l2.99 3c-.12.21-.18.45-.18.69v.05l-2.69-2.7c-.1-.35-.14-.71-.15-1.06Zm.25 1.48l2.62 2.64c.04.15.1.31.2.44 -1.34-.59-2.37-1.71-2.84-3.09Z"/></svg>