<svg viewBox="0 0 32 32" xmlns="http://www.w3.org/2000/svg"><path d="M6 3v26h20V3Zm2 2h16v22H8Zm7.4 5.34c-.31-.01-.67.1-.91.31 -.26.21-.37.48-.44.75 -.14.53-.1 1.09.03 1.71 .15.72.58 1.6.93 2.43 -.18.76-.23 1.43-.5 2.21 -.24.67-.54 1.05-.82 1.65 -.63.23-1.38.37-1.88.68 -.54.33-1.01.69-1.29 1.21 -.28.51-.25 1.25.12 1.78 .18.27.42.49.75.625 .32.12.67.13.96.03 .58-.21 1-.66 1.4-1.19 .37-.5.63-1.33.96-2 .5-.17.86-.38 1.4-.5 .56-.13.94-.07 1.46-.13 .22.25.41.67.65.87 .47.41 1 .74 1.625.78 .62.03 1.25-.36 1.59-.94h.03v-.04c.15-.27.25-.56.25-.88 -.01-.33-.17-.66-.375-.875 -.42-.44-.94-.56-1.5-.625 -.44-.06-1.05.09-1.57.125 -.46-.6-.91-1.05-1.32-1.82 -.23-.42-.29-.77-.47-1.19 .14-.68.42-1.44.46-2.04 .04-.72.01-1.34-.19-1.91 -.11-.29-.28-.57-.54-.79 -.25-.21-.58-.34-.91-.35 -.02 0-.02 0-.04 0Zm.65 7.4c.17.31.4.51.59.81 -.29.05-.5 0-.79.06 -.05.01-.08.05-.13.06 .05-.16.13-.25.18-.41 .06-.19.06-.35.12-.54Zm3.68 2.03c.33.04.45.1.5.125 -.01.01.01.01 0 .03 -.125.2-.14.19-.22.18 -.07-.01-.33-.15-.57-.32 .07 0 .21-.04.28-.04Zm-7 1.56c-.06.08-.11.27-.16.34 -.31.4-.59.59-.66.625 -.02-.02.01 0 0-.04h-.04c-.11-.15-.08-.09 0-.22 .07-.14.3-.41.71-.66 .03-.02.09-.05.125-.07Z"/></svg>