<svg viewBox="0 0 32 32" xmlns="http://www.w3.org/2000/svg"><path d="M11.31 3.28L9.9 4.71l1.78 1.78 -6.91 6.9c-1.19 1.18-1.19 3.12 0 4.31l.06.06 6.34 6.31c1.18 1.18 3.12 1.18 4.31 0l7.59-7.6 .71-.69 -9.72-9.72 -.79-.82 -.22-.19Zm1.81 4.65l7.875 7.87 -6.91 6.87c-.42.41-1.09.41-1.5 0L6.21 16.26c-.42-.42-.42-1.06 0-1.47Zm11.875 11.31l-.82 1.18s-.54.75-1.07 1.65c-.27.45-.51.92-.72 1.4 -.22.48-.41.92-.41 1.5 0 1.64 1.35 3 3 3 1.64 0 3-1.36 3-3 0-.58-.2-1.02-.41-1.5 -.22-.49-.46-.96-.72-1.41 -.53-.91-1.07-1.66-1.07-1.66Zm0 3.625c.06.1.05.1.125.21 .23.41.49.84.65 1.21 .16.37.21.71.21.68 0 .55-.45 1-1 1 -.56 0-1-.45-1-1 0 .02.05-.32.21-.69 .16-.38.41-.81.65-1.22 .06-.12.05-.11.125-.22Z"/></svg>