<svg viewBox="0 0 32 32" xmlns="http://www.w3.org/2000/svg"><path d="M21 7c-1.125 0-2.12.63-2.625 1.56 -.34.19-1.03.63-1.79 1.46 -.94.01-2.68.08-4.66.71 -2.12.67-4.39 2.04-5.66 4.56 -.02.02-.06.03-.07.06 -.06.05-.54.55-1.07 1.34 -.56.82-1.16 1.91-1.16 3.18 0 .91.32 1.83 1 2.5 .22.21.51.37.81.5 -.12.15-.25.3-.35.46 -.24.35-.47.61-.47 1.28 0 .41.3.81.53.96 .22.15.38.21.56.25 .34.07.71.08 1.125.09 .83.01 1.91-.04 3.125-.1 2.42-.12 5.39-.23 7.5.125l.31-2c-1-.17-2.11-.24-3.22-.25 .61-.66 1.06-1.47 1.06-2.47 0-1.6-1.04-2.81-2.22-3.44 -1.19-.63-2.57-.85-3.79-.85v2c.94 0 2.07.21 2.84.625 .77.41 1.15.84 1.15 1.65 0 .65-.54 1.26-1.41 1.78 -.88.51-2.05.78-2.41.78v.03c-1.09.05-2.01.09-2.69.09 .1-.15.19-.27.31-.41 .49-.61 1-1.13 1-1.13l-1.47-1.38s-.04.06-.04.06c-.51.14-.73.05-.94-.16 -.22-.21-.375-.64-.375-1.07 0-.54.39-1.39.84-2.07 .44-.68.875-1.16.875-1.16l.125-.13 .06-.16c.92-2.07 2.77-3.15 4.65-3.75 1.88-.61 3.74-.66 4.43-.66h.5l.31-.41c.13-.19.28-.33.43-.47 .45 1.08 1.5 1.875 2.75 1.875 1.58 0 2.88-1.28 2.96-2.85 .45.11.91.26 1.28.46 .32.17.57.37.71.5 -.01.03-.02.01-.04.06 -.07.18-.21.39-.38.65 -.35.51-.93 1.1-1.94 1.5l-.625.25v.68c0 1.4-.125 4.85-2.07 6.21l1.15 1.625c2.8-1.99 2.84-5.57 2.84-7.25 1.04-.54 1.82-1.23 2.28-1.91 .27-.41.47-.79.59-1.125 .12-.34.18-.61.18-.94 0-.78-.39-.97-.69-1.25 -.31-.29-.69-.55-1.125-.79 -.82-.45-1.84-.8-2.94-.85 -.56-.63-1.36-1.04-2.25-1.04Zm0 2c.56 0 1 .43 1 1 0 .56-.44 1-1 1 -.57 0-1-.44-1-1 0-.57.43-1 1-1Zm-2 7.375c-.68.94-.98 1.91-1.1 2.68 -.13.77-.09 1.49-.1 1.53 0 .01 0 .01 0 .03 0 .26.04.29.06.34 .01.04.01.06.03.09 .02.06.06.12.09.18 .05.12.125.28.21.46 .19.375.46.86.75 1.375 .58 1.01 1.16 2.05 1.93 2.71 .11.1.25.17.4.21 .46.1.66-.02.875-.07 .21-.05.41-.09.65-.13 .47-.08 1.05-.11 1.875.12l.56-1.94c-1.13-.32-2.09-.27-2.75-.16 -.25.03-.41.08-.57.125 -.28-.33-.81-1.09-1.29-1.91 -.28-.48-.52-.95-.69-1.29 -.09-.17-.15-.29-.19-.375 -.01-.01 0-.03 0-.04 0-.32-.01-.6.06-1.04 .08-.56.28-1.2.75-1.85Z"/></svg>