<svg viewBox="0 0 32 32" xmlns="http://www.w3.org/2000/svg"><path d="M16 4C9.38 4 4 9.38 4 16c0 6.61 5.38 12 12 12 6.61 0 12-5.39 12-12 0-6.62-5.39-12-12-12Zm0 2c5.53 0 10 4.46 10 10 0 5.53-4.47 10-10 10 -5.54 0-10-4.47-10-10 0-5.54 4.46-10 10-10Zm-4.5 6c-.83 0-1.5.67-1.5 1.5 0 .82.67 1.5 1.5 1.5 .82 0 1.5-.68 1.5-1.5 0-.83-.68-1.5-1.5-1.5Zm9 0c-.83 0-1.5.67-1.5 1.5 0 .82.67 1.5 1.5 1.5 .82 0 1.5-.68 1.5-1.5 0-.83-.68-1.5-1.5-1.5ZM16 18c-2.67 0-5.02 1.33-6.47 3.34l1.62 1.15c1.08-1.52 2.83-2.5 4.84-2.5 2 0 3.75.98 4.84 2.5l1.62-1.16c-1.45-2.01-3.81-3.35-6.47-3.35Z"/></svg>