<svg viewBox="0 0 32 32" xmlns="http://www.w3.org/2000/svg"><path d="M5 4v2.34l.21.28 7.78 9.71v11.68l1.59-1.25 1.56-1.19c.74 3.64 3.98 6.4 7.84 6.4 4.4 0 8-3.6 8-8 0-4.41-3.6-8-8-8 -1.89 0-3.63.68-5 1.78v-1.44l7.78-9.73 .21-.28V3.95h-22Zm2.28 2h17.43l-7.19 9h-3.07L7.26 6Zm7.71 11h2v3.125c-.52.92-.86 1.96-.97 3.06l-1.04.81v-7Zm9 1c3.32 0 6 2.67 6 6 0 3.32-2.68 6-6 6 -3.33 0-6-2.68-6-6 0-3.33 2.67-6 6-6Zm-1 1v1.06c-1.125.18-2 1.14-2 2.31 0 .75.41 1.44 1.09 1.77l2.9 1.46c0 .22-.16.375-.375.375h-1.25c-.23 0-.375-.16-.375-.375v-.625h-2v.625c0 1.17.875 2.12 2 2.31v1.06h2V27.9c1.125-.19 2-1.15 2-2.32 0-.76-.42-1.44-1.1-1.78l-2.91-1.47c0-.23.15-.375.375-.375h1.25c.22 0 .375.15.375.375v.625h2v-.625c0-1.18-.875-2.13-2-2.32v-1.07h-2Z"/></svg>