<svg viewBox="0 0 32 32" xmlns="http://www.w3.org/2000/svg"><path d="M16 3C8.83 3 3 8.83 3 16c0 7.16 5.83 13 13 13 7.16 0 13-5.84 13-13 0-7.17-5.84-13-13-13Zm0 2c.6 0 1.17.06 1.75.15L16 6.4l-1.75-1.25c.57-.09 1.15-.16 1.75-.16Zm-4.19.84l3.59 2.625 .59.43 .59-.44 3.59-2.625c1.59.66 3 1.67 4.125 2.96l-1.375 4.28 -.22.68 .59.4 3.625 2.65c-.14 1.76-.68 3.41-1.54 4.84h-5.29l-.22.68 -1.41 4.34c-.81.18-1.65.28-2.5.28 -.9 0-1.77-.12-2.6-.32l-1.38-4.29 -.22-.69H6.53c-.875-1.44-1.4-3.1-1.54-4.875l3.59-2.63 .59-.41 -.22-.69 -1.41-4.25c1.12-1.33 2.55-2.36 4.18-3.04Zm4.18 4.25l-.6.43 -4.57 3.31 -.57.43 .21.68 1.75 5.34 .21.68h7.06l.21-.69 1.75-5.35 .21-.69 -.57-.44 -4.57-3.32Zm9.75.81c.54 1.04.9 2.19 1.09 3.4l-1.79-1.29Zm-19.54.06l.68 2.06 -1.75 1.28c.18-1.19.53-2.32 1.06-3.35Zm9.78 1.625l3.375 2.43 -1.29 3.96h-4.19l-1.29-3.97Zm5.59 11.09h2.25c-.86.87-1.84 1.6-2.94 2.15Zm-13.44.03h2.18l.68 2.09c-1.08-.55-2.05-1.25-2.88-2.1Z"/></svg>