<svg viewBox="0 0 32 32" xmlns="http://www.w3.org/2000/svg"><path d="M15.64 3v1.52c-.8 1.21-1.41 6.37-1.44 12.63 .68-.92 1.12-1.96 1.12-2.84v-1c-.01-.32.04-.62.12-.92 .03-.13.08-.24.15-.35 .07-.11.2-.23.39-.23s.31.12.39.22c.07.1.11.21.15.34 .08.3.13.6.12.91v.99c0 .875.43 1.91 1.12 2.83 -.04-6.27-.65-11.43-1.44-12.64V2.93h-.72Zm-1.55 8.67c-.56.12-1.1.3-1.62.53 .52.94.57 1.91.09 2.18 -.47.27-1.29-.25-1.84-1.17 -.68.516-1.29 1.13-1.8 1.82 .86.56 1.34 1.34 1.07 1.79 -.27.45-1.18.41-2.09-.06 -.34.77-.58 1.61-.69 2.48 .56.01 1.09.14 1.53.35 1.04-.02 1.92-.12 2.37-.25 .32-1.55 1.34-2.84 2.71-3.5 .04-1.5.11-2.92.2-4.23Zm3.81 0c.09 1.31.16 2.72.2 4.22 1.36.66 2.39 1.94 2.71 3.49 .45.13 1.33.23 2.375.24 .44-.22.96-.35 1.53-.36 -.12-.875-.35-1.72-.69-2.49 -.91.47-1.82.5-2.09.05 -.27-.46.21-1.24 1.07-1.8 -.51-.7-1.12-1.32-1.8-1.83 -.56.91-1.38 1.43-1.84 1.16 -.48-.28-.43-1.25.09-2.19 -.52-.23-1.06-.41-1.62-.54Zm-1.91.5c-.19 0-.35.51-.36 1.16h-.01v.99c0 2.43-2.88 5.57-5.49 5.57 -3.05 0-7.18-.09-9.16 1.69v.2c.548.99 1.19 1.92 1.92 2.77 .73-1.24 3.02-2.41 6.33-2.43 2.68.06 4.63 1.19 5.32 2.39 0 0 0 0 0 0 .45.12.93.19 1.41.18 .48 0 .96-.07 1.41-.19 0 0 0-.01 0-.01 .68-1.21 2.64-2.34 5.32-2.4 3.31.02 5.6 1.18 6.33 2.42 .73-.86 1.37-1.79 1.92-2.78v-.21h-.01c-1.99-1.78-6.12-1.7-9.16-1.7 -2.61 0-5.49-3.15-5.49-5.58v-1h-.01c-.02-.66-.17-1.17-.36-1.17Zm-.01 5.66c1.31 0 2.38 1.06 2.38 2.38 0 1.31-1.07 2.38-2.39 2.38s-2.39-1.08-2.39-2.39c0-1.32 1.06-2.39 2.38-2.39Zm0 .44c-1.07 0-1.94.86-1.94 1.93 0 1.06.86 1.93 1.93 1.93 1.06 0 1.93-.87 1.93-1.94 0-1.07-.87-1.94-1.94-1.94Zm0 .36c.86 0 1.57.7 1.57 1.57 0 .86-.71 1.57-1.58 1.57 -.87 0-1.58-.71-1.58-1.58 0-.87.7-1.58 1.57-1.58Zm-6.74 3.91c-.6 0-1.27.01-1.8.09 .02.25.08 1.09.41 1.74 .53-.15 1.07-.23 1.62-.23 2.42.05 4.19 2.01 4.59 4.36l0 .27c.61.11 1.24.17 1.89.17 .64 0 1.27-.07 1.88-.18l0-.28c.39-2.36 2.17-4.32 4.59-4.37 .54 0 1.08.07 1.62.22 .32-.66.39-1.49.41-1.75 -.53-.08-1.2-.1-1.79-.1 -1.11.02-2.07.24-2.86.56 -.74.94-1.72 1.76-2.92 1.93 -.01 0-.01 0-.02 0l-.01 0c-.31.06-.63.09-.95.09 -.33 0-.65-.04-.96-.1l-.01-.01c-.01-.01-.02-.01-.02-.01 -1.2-.18-2.18-1-2.92-1.94 -.79-.33-1.76-.55-2.86-.57Z"/></svg>