<svg viewBox="0 0 32 32" xmlns="http://www.w3.org/2000/svg"><path d="M12 5c-1.65 0-3 1.35-3 3 0 .35.07.68.18 1H3.99v6h1v13h22V15h1V9H22.8c.11-.32.18-.65.18-1 0-1.65-1.36-3-3-3 -1.75 0-2.94 1.32-3.72 2.43 -.11.14-.19.29-.29.43 -.1-.15-.18-.29-.29-.44 -.79-1.11-1.97-2.44-3.72-2.44Zm0 2c.625 0 1.43.67 2.06 1.56 .15.21.12.23.25.43h-2.32c-.57 0-1-.44-1-1 0-.57.43-1 1-1Zm8 0c.56 0 1 .43 1 1 0 .56-.44 1-1 1h-2.32c.12-.21.09-.22.25-.44 .62-.9 1.43-1.57 2.06-1.57ZM6 11h20v2h-9v-1h-2v1H6Zm1 4h18v11h-8V16h-2v10H7Z"/></svg>