<svg viewBox="0 0 32 32" xmlns="http://www.w3.org/2000/svg"><path d="M5 5v22h22V5H5Zm2 2h18v18H7V7Zm9.87 3.36c-.64 0-1.01.33-1.01.96 0 .64.37 1 1 1 .64 0 1.01-.36 1.01-1.01 0-.64-.37-.97-1.02-.97Zm3.11 1.05c-.12 1.2-.52 1.69-1.49 1.8v.99c.89 0 .85-.04.85.1v2.91c0 1.25.5 1.75 1.83 1.75 .63 0 1.32-.18 1.8-.42l-.31-.99c-1.79.67-1.7-.55-1.7-.73v-2.66h1.69v-1.11h-1.7v-1.69h-1.02Zm-8.26 1.79c-1.16 0-2.56.46-2.56 2.16 0 .81.41 1.39.95 1.66 -.69.63-1.02.92-1.02 1.33 0 .3.13.57.49.73 -.39.36-.61.63-.61 1.13 0 .87.77 1.38 2.77 1.38 1.93 0 3.06-.72 3.06-2 0-1.62-1.24-1.55-4.15-1.74l.36-.59c.74.2 3.24.27 3.24-1.85 0-.52-.21-.88-.42-1.13l1.02-.08v-.95h-2.17c-.28-.08-.63-.12-1.02-.12Zm3.82 0l-.13.9c.68.23.74.2.74.43v3.27c0 .24-.02.19-.75.29v.86h3.16v-.87l-.57-.08c-.17-.03-.18-.05-.18-.22v-4.62H15.5Zm-3.74 1.09c1.36 0 1.39 1.93-.04 1.93 -1.44 0-1.38-1.94.03-1.94Zm-1.23 5.09c2.12.15 2.58.09 2.58.52 0 .88-2.87.88-2.87.06 0-.22.14-.41.28-.59Z"/></svg>