<svg viewBox="0 0 32 32" xmlns="http://www.w3.org/2000/svg"><path d="M16 2c-.51 0-1 .18-1.375.56l-2.82 2.84c-.16.08-.29.19-.375.34L2.55 14.615c-.76.75-.76 1.99-.001 2.75l12.06 12.06c.75.75 1.99.75 2.75 0l12.06-12.07c.75-.76.75-2 0-2.75L17.354 2.53c-.38-.38-.88-.57-1.375-.57Zm0 2.03l11.96 11.96 -11.97 11.96L4.02 15.98l8.28-8.29 1.75 1.75c-.05.16-.07.34-.07.53 0 .73.4 1.37 1 1.71v8.56c-.6.34-1 .98-1 1.71 0 1.1.89 2 2 2 1.1 0 2-.9 2-2 0-.74-.41-1.38-1-1.72v-7.85l3.06 3.06c-.05.16-.07.32-.07.5 0 1.1.89 2 2 2 1.1 0 2-.9 2-2 0-1.11-.9-2-2-2 -.18 0-.34.01-.5.06l-3.57-3.57c.04-.17.06-.33.06-.5 0-1.11-.9-2-2-2 -.19 0-.37.01-.54.06l-1.75-1.75Z"/></svg>