<svg viewBox="0 0 32 32" xmlns="http://www.w3.org/2000/svg"><path d="M5 5v22h22V5H5Zm2 2h18v18H7V7Zm8.9 2c-3.92 0-6.91 2.97-6.91 6.88 0 3.13 1.96 5.81 4.78 6.75 .36.06.49-.16.49-.35 0-.18-.01-1.15-.01-1.74 0 0-1.99.42-2.4-.85 0 0-.33-.82-.79-1.04 0 0-.65-.45.04-.44 0 0 .69.05 1.08.73 .61 1.09 1.65.77 2.06.59 .06-.46.24-.77.45-.96 -1.58-.18-3.18-.41-3.18-3.12 0-.78.21-1.17.66-1.67 -.08-.19-.32-.95.07-1.92 .59-.19 1.95.76 1.95.76 .56-.16 1.17-.24 1.77-.24 .6 0 1.21.08 1.77.23 0 0 1.35-.95 1.95-.77 .38.984.14 1.73.07 1.91 .45.5.73.88.73 1.66 0 2.72-1.67 2.94-3.25 3.11 .26.22.48.64.48 1.3 0 .95-.01 2.13-.01 2.36 0 .18.12.4.48.33 2.81-.95 4.72-3.63 4.72-6.76 0-3.91-3.18-6.89-7.1-6.89Zm-4.35 9.48c-.06-.02-.11-.01-.12.02 -.02.03 0 .07.06.1 .04.02.1.01.11-.03 .01-.04-.01-.09-.07-.12Zm.25.23c-.03-.01-.06-.01-.08.01 -.04.03-.04.09.01.15 .04.04.11.06.15.02 .04-.04.03-.1-.02-.16 -.03-.02-.06-.04-.08-.05Zm.29.36c-.03-.01-.06-.01-.09 0 -.05.03-.05.1 0 .16 .04.06.12.09.16.06 .04-.04.04-.12 0-.18 -.02-.04-.05-.06-.08-.07Zm.32.39c-.04-.01-.07 0-.09.03 -.04.04-.03.11.03.17 .06.06.14.07.18.02 .04-.04.01-.12-.04-.18 -.04-.04-.07-.06-.1-.06Zm.54.31c-.08-.02-.16 0-.18.06 -.02.05.04.12.11.13 .07.03.15-.01.17-.06 .02-.06-.04-.12-.12-.15Zm1.07.02c-.08.01-.14.07-.13.13 0 .05.08.08.16.07 .08-.02.14-.08.12-.13 -.01-.06-.09-.09-.17-.08Zm-.53.06c-.09 0-.16.04-.16.1 0 .06.06.11.15.1 .08 0 .15-.05.15-.11 0-.07-.08-.12-.16-.11Z"/></svg>