<svg viewBox="0 0 32 32" xmlns="http://www.w3.org/2000/svg"><path fill-rule="evenodd" d="M16 4C9.37 4 4 9.37 4 16c0 5.3 3.43 9.8 8.2 11.38 .6.1.82-.26.82-.58 0-.29-.02-1.04-.02-2.04 -3.34.72-4.05-1.61-4.05-1.61 -.55-1.39-1.34-1.76-1.34-1.76 -1.09-.75.08-.73.08-.73 1.2.08 1.83 1.23 1.83 1.23 1.07 1.83 2.8 1.3 3.49 1 .1-.78.42-1.31.76-1.61 -2.67-.31-5.47-1.34-5.47-5.93 0-1.32.46-2.39 1.23-3.23 -.13-.31-.54-1.53.11-3.18 0 0 1-.33 3.3 1.23 .95-.27 1.98-.4 3-.41 1.01 0 2.04.13 3 .4 2.29-1.56 3.29-1.24 3.29-1.24 .65 1.65.24 2.875.12 3.17 .76.83 1.23 1.91 1.23 3.22 0 4.6-2.81 5.62-5.48 5.92 .42.36.81 1.1.81 2.21 0 1.6-.02 2.89-.02 3.29 0 .32.21.69.82.57 4.76-1.59 8.19-6.09 8.19-11.39 0-6.63-5.38-12-12-12Z"/></svg>