<svg viewBox="0 0 32 32" xmlns="http://www.w3.org/2000/svg"><path d="M5.06 6l-.25.65 -3.5 9.34H-.01v2h1v2c0 3.29 2.7 6 6 6h2c3.29 0 6-2.71 6-6v-3c0-.57.43-1 1-1 .56 0 1 .43 1 1v3c0 3.29 2.7 6 6 6h2c3.29 0 6-2.71 6-6v-2h1v-2h-1.32l-3.5-9.35 -.25-.66h-1.94l-.29.375 -2.5 3 1.56 1.25 1.9-2.32 2.87 7.68h-9.75c-.42-1.16-1.52-2-2.82-2 -1.3 0-2.4.84-2.82 2H3.38l2.87-7.69 1.9 2.31 1.56-1.25 -2.5-3 -.29-.375ZM2.99 18h10v2c0 2.2-1.8 4-4 4h-2c-2.21 0-4-1.8-4-4Zm16 0h10v2c0 2.2-1.8 4-4 4h-2c-2.21 0-4-1.8-4-4Z"/></svg>