<svg viewBox="0 0 32 32" xmlns="http://www.w3.org/2000/svg"><path d="M16 3C8.83 3 3 8.83 3 16c0 7.16 5.83 13 13 13 7.16 0 13-5.84 13-13 0-7.17-5.84-13-13-13Zm0 2c.33 0 .67.02 1 .05v.94h2v-.58c2.45.69 4.56 2.22 6 4.26v3.3l1 2v1h1c0 .36-.02.72-.06 1.08 -.01.09-.03.18-.05.28 -.04.26-.07.52-.12.78 -.02.09-.05.19-.07.28 -.06.25-.13.5-.2.75 -.03.08-.06.16-.09.25 -.09.25-.18.5-.28.75 -.03.07-.07.14-.1.21 -.12.25-.23.5-.36.75 -.04.05-.07.11-.1.17 -.14.25-.29.49-.45.73 -.04.04-.07.09-.1.14 -.17.24-.35.48-.54.71 -.04.03-.06.07-.09.11 -.2.23-.4.45-.62.67 -.04.03-.07.06-.1.09 -.22.21-.45.42-.68.61 -.04.02-.07.05-.1.08 -.24.19-.48.37-.73.54 -.04.02-.08.05-.12.08 -.24.16-.49.3-.75.44 -1.18.65-2.48 1.11-3.88 1.3l4.01-3.03 1.09-1.1 1.37-2.76v-1l-2-1h-1l-2-2h-2l-1 1v1l-1 1v2l2 1.59 -1.98 4.35c-5.61-.5-10.03-5.22-10.03-10.96 0-3.41 1.55-6.46 4-8.48v.47l-1 1v2.19l1 3.8 5 2h1v-1l-3-1v-2h3l1-2.5 2-1.5v-1l-3-2 -1.44-.72c.78-.18 1.59-.29 2.43-.29Zm-1 9v1h2v-1h-2Z"/></svg>