<svg viewBox="0 0 32 32" xmlns="http://www.w3.org/2000/svg"><path d="M16 3C10.48 3 6 7.48 6 13c0 3.68 2.02 6.89 5 8.625V22l-.04 1s.03 0 .03 0c.04 0 .98.02 1.96.625 .86.52 1.77 1.41 2 3.375H6.98v2h18v-2h-7.97c.22-1.97 1.13-2.85 2-3.375 .98-.6 1.92-.625 1.96-.625 0 0 .03 0 .03 0l-.04-1v-.375c2.97-1.74 5-4.95 5-8.625 0-5.52-4.49-10-10-10Zm0 2c4.42 0 8 3.57 8 8 0 4.42-3.58 8-8 8 -4.43 0-8-3.58-8-8 0-4.43 3.57-8 8-8Zm3 6c-.56 0-1 .44-1 1 0 .55.44 1 1 1 .55 0 1-.45 1-1 0-.56-.45-1-1-1Zm-2 2c-.56 0-1 .44-1 1 0 .55.44 1 1 1 .55 0 1-.45 1-1 0-.56-.45-1-1-1Zm3 1c-.56 0-1 .44-1 1 0 .55.44 1 1 1 .55 0 1-.45 1-1 0-.56-.45-1-1-1Zm-5 1c-.56 0-1 .44-1 1 0 .55.44 1 1 1 .55 0 1-.45 1-1 0-.56-.45-1-1-1Zm3 1c-.56 0-1 .44-1 1 0 .55.44 1 1 1 .55 0 1-.45 1-1 0-.56-.45-1-1-1Zm-2.72 7h1.43c-.27.29-.5.62-.72 1 -.22-.38-.46-.71-.72-1Z"/></svg>