<svg viewBox="0 0 32 32" xmlns="http://www.w3.org/2000/svg"><path d="M7.75 3c-.08-.01-.15.02-.22.03 -.07 0-.13-.02-.19 0 -.02 0-.02 0-.04 0 -.04 0-.07 0-.1 0 -.11.02-.22.06-.32.125 -.11.05-.21.12-.29.21 -.4.32-.63.83-.63 1.31v22.78c0 .49.21 1.08.75 1.375 .03.01.08.01.125.03 .03.01.06.02.09.03 .47.16.97.06 1.34-.16 .01 0 .01 0 .03 0 .42-.27 9.4-5.75 9.4-5.75l4.78-2.875s4.05-2.46 4.59-2.79c.45-.28.88-.81.875-1.44 -.01-.64-.45-1.11-.875-1.35 -.14-.08-1.34-.81-2.44-1.47 -1.06-.65-1.98-1.2-2.07-1.25 -.04-.03-.07-.05-.1-.07l-4.79-2.91s-8.7-5.28-9.22-5.6c-.24-.14-.51-.25-.79-.29ZM8 6.09l9.43 9.84 -9.44 9.84Zm4.81 2.12c1.76 1.07 3.9 2.37 3.9 2.37l3.68 2.25 -1.6 1.65Zm9.34 5.68c.38.23.73.44 1.5.9 .83.5 1.41.83 1.9 1.12 -.92.55-2.67 1.62-3.375 2.06l-1.97-2.07Zm-3.35 3.5l1.59 1.65 -3.69 2.25s-2.2 1.31-3.94 2.375Z"/></svg>