<svg viewBox="0 0 32 32" xmlns="http://www.w3.org/2000/svg"><path d="M22 3.5c-.58 0-1.15.16-1.66.43 -1.7.92-2.33 3.02-1.41 4.71 0 .01.44.94.875 2.46 -2.125-3.07-4.4-4.68-4.5-4.75 -.02-.02-.05-.02-.07-.04 -.04-.03-.07-.05-.1-.07 -.62-.49-1.36-.79-2.16-.79 -.72 0-1.39.22-1.97.62 -1.59 1.08-1.99 3.25-.91 4.84 0 0 .25.44.53 1.09 -.36-.28-.72-.54-1.07-.75 -1.42-.88-2.59-1.32-3.6-1.32 -1.65 0-3 1.35-3 3 0 1 .61 1.78 1.28 2.34 .66.55 1.45 1.02 2.25 1.56 1.48 1 2.97 2.19 3.81 4.46 -.23.52-.41.92-.41.93 -.94 1.66-.34 3.76 1.34 4.71 .52.29 1.11.46 1.71.46 1.25 0 2.41-.69 3.03-1.79 .16-.29 1.11-2.06 1.78-4.6 .42 1.26.78 2.89.68 4.81 -.04.19-.02.4.06.59 0 .01-.01.04 0 .06 .19 1.1.9 2.1 2 2.59 .44.2.94.31 1.43.31 1.37 0 2.625-.81 3.18-2.07 .23-.54 2.31-5.34 2.31-11.35 0-6.15-2.19-10.33-2.44-10.79 -.62-1.13-1.79-1.82-3.07-1.82Zm0 2c.53 0 1.03.28 1.31.78 .08.16 2.18 4.05 2.18 9.81 0 5.69-2.04 10.33-2.125 10.53 -.25.55-.81.875-1.375.875 -.21 0-.43-.04-.625-.125 -.76-.34-1.09-1.25-.75-2 .02-.07 1.63-3.76 1.84-8.35 .05-.18.07-.36.03-.54 0-.14 0-.27 0-.41 0-4.95-1.8-8.34-1.82-8.375 -.4-.73-.14-1.64.59-2.04 .23-.125.47-.19.71-.19Zm-9 2c.35 0 .69.13.96.375 .01.01.01.01.03.03 .07.07.15.15.21.25 .09.13 2.28 3.32 2.28 8.03 0 4.63-2.1 8.4-2.19 8.56 -.28.48-.79.75-1.32.75 -.25 0-.52-.06-.75-.19 -.72-.41-.97-1.34-.57-2.07 .02-.05 1.81-3.25 1.81-7.07 0-3.74-1.71-6.32-1.72-6.35 -.47-.69-.31-1.6.37-2.07 .25-.18.55-.29.84-.29Zm4.96 4.46c.94 1.3 1.86 2.89 2.5 4.81 -.06 1.6-.31 3.09-.6 4.34 -.55-1.91-1.21-3.08-1.44-3.44 .04-.5.06-.99.06-1.5 0-1.58-.23-2.99-.54-4.22Zm-11.97.03c.1 0 1.35.3 2.53 1.03 1.09.67 2.22 1.66 2.96 3 0 .05 0 .1 0 .15 0 .88-.12 1.72-.29 2.5 -1.06-1.59-2.4-2.66-3.57-3.44 -.86-.58-1.63-1.06-2.1-1.44 -.47-.39-.57-.58-.57-.82 0-.57.43-1 1-1Z"/></svg>