<svg viewBox="0 0 32 32" xmlns="http://www.w3.org/2000/svg"><path d="M16 3C8.83 3 3 8.83 3 16c0 7.16 5.83 13 13 13 7.16 0 13-5.84 13-13 0-7.17-5.84-13-13-13Zm0 2c6.06 0 11 4.93 11 11 0 6.06-4.94 11-11 11C9.93 27 5 22.06 5 16 5 9.93 9.93 5 16 5Zm-5 7c-2.1 0-3.61 1.2-3.61 1.2l1.21 1.58s1.08-.8 2.39-.8c1.3 0 2.39.79 2.39.79l1.21-1.59c-.01 0-1.52-1.21-3.62-1.21Zm10 0c-2.1 0-3.61 1.2-3.61 1.2l1.21 1.58s1.08-.8 2.39-.8c1.3 0 2.39.79 2.39.79l1.21-1.59c-.01 0-1.52-1.21-3.62-1.21Zm-9.24 5.35l-1.54 1.28c.87 1.04 2.21 1.78 3.76 2.13v1.22c0 1.1.9 2 2 2s2-.9 2-2v-1.23c1.54-.35 2.88-1.09 3.76-2.14l-1.54-1.29c-.85 1.01-2.47 1.64-4.24 1.64s-3.39-.63-4.24-1.65Z"/></svg>