<svg viewBox="0 0 32 32" xmlns="http://www.w3.org/2000/svg"><path d="M16 3C8.87 3 3.06 8.77 3 15.88c.57-.23 1.25-.47 2.03-.7 .41-5.7 5.16-10.2 10.95-10.2 5.79 0 10.54 4.5 10.95 10.19 .78.23 1.46.46 2.03.69 -.07-7.12-5.87-12.89-13-12.89ZM9 14v2h5v-2H9Zm9 0v2h5v-2h-5ZM6 17s-2.97.83-3.56 1.42c-.59.58-.59 1.54 0 2.13 .589.58 1.54.58 2.13 0 .58-.59 1.42-3.56 1.42-3.56Zm20 0s.83 2.96 1.42 3.55c.58.58 1.54.58 2.13 0 .58-.59.58-1.55 0-2.14 -.59-.59-3.56-1.43-3.56-1.43ZM9 19s1.61 5 7 5 7-5 7-5H9Zm-2.58 2.4c-.15.23-.3.42-.44.57 -.33.32-.7.56-1.1.74 2.28 3.76 6.4 6.28 11.1 6.28 4.7 0 8.82-2.53 11.1-6.29 -.41-.18-.78-.43-1.1-.75 -.15-.15-.3-.35-.44-.58 -1.9 3.33-5.47 5.59-9.58 5.59s-7.69-2.27-9.58-5.6Z"/></svg>