<svg viewBox="0 0 32 32" xmlns="http://www.w3.org/2000/svg"><path d="M22.15 1c-.05 0-.08.01-.1.03l-3.72 4.41 -.76 2.6c-.52-.02-1.05-.03-1.6-.03 -3.87-.01-7 .4-7 .91 0 1.2 13.99 1.2 13.99 0 0-.375-1.68-.7-4.09-.85l.59-2.15 3.47-4.18 0-.01c.07-.09-.08-.33-.33-.54 -.19-.17-.39-.24-.51-.24Zm-4.86 8.07l-.02.04c-.01 0-.01.01-.01.01 0 .07.3.13.67.13 .36 0 .67-.07.67-.14l.01-.05c.09.03.15.07.15.12 0 .12-.38.21-.85.21 -.46 0-.84-.1-.84-.22 0-.06.07-.1.18-.14Zm5.6.34c-1.86.98-11.97.99-13.83.01l.82 7.23c.35-1.16 1.25-2.71 2.42-3.19 .38-.16.76-.16 1.13.05 .31.17.58.53.61.67 .07.375-.13.52-.28.52 -.19 0-.33-.27-.42-.42 -.25-.43-.63-.44-1.03-.17 -.42.28-.79.77-1.04 1.19 -.31.5-.57 1.06-.73 1.62 -.1.32-.18.84-.04 1.14 .06.12.15.2.29.2 .3 0 .74-.39.95-.59 .27-.26.62-.67.75-.93l.31-.9c.15-.4.59-.33.59 0 0 .58-.23.78-.61 2 -.36 1.12-.47 1.48-.47 1.48 -.05.16-.21.43-.39.43 -.08 0-.13-.03-.16-.08 -.07-.09-.06-.31-.05-.37 .01-.19.38-1.29.44-1.46 -.13.12-.25.25-.39.38 -.33.29-.86.67-1.31.67 -.21 0-.34-.06-.47-.14l.45 4.58c.12.28 2.37.98 5.33.98 2.97 0 5.22-.71 5.33-.99l.66-5.46c-.35.3-.75.66-1.19.85 -.33.13-1.06.21-1.06-.34 0-.3.55-.86.87-1.24 .08-.1.28-.34.28-.47 0-.17-.37-.13-.71.14 -.2.15-.38.36-.53.56 -.26.34-.4.64-.52.89 -.375.81-.25.49-.56 1.26 -.31.76-.26.67-.32.8 -.06.11-.14.2-.25.25 -.12.05-.28.05-.37-.02 -.06-.04-.09-.11-.09-.22 0-.06 0-.11.01-.16 .09-.36.47-1.05.9-1.98 .09-.22.05-.15.04-.14 -.375.34-.67.51-.88.6 -.36.15-.79.14-.88-.24 -.01-.03-.01-.05-.02-.08 -.72.53-1.47.67-1.21-.47 -.28.47-.77.85-1.36.85 -.25 0-.43-.08-.52-.3 -.14-.32.07-.87.27-1.38 .1-.26.24-.58.43-.94 .09-.2.25-.32.45-.26 .03.01.06.02.09.04 .15.1.09.25.01.41 -.23.43-.43.74-.57 1.19 -.06.19-.13.51.08.51 .14 0 .28-.05.41-.14 .27-.2.5-.49.67-.78 .12-.21.26-.48.33-.71 .03-.1.06-.2.1-.28 .06-.15.15-.3.31-.3 .07 0 .14.02.19.08 .1.12.08.25.02.39 -.13.32-.29.61-.42.96 -.08.2-.17.46-.17.67 0 .19.22.14.41.06 .14-.07.29-.16.41-.26 .07-.29.05-.22 1.59-3.94 .07-.19.22-.28.36-.28 .07 0 .13.02.19.06 .1.07.1.23.06.35 -.05.11-.04.07-.28.6 -.32.69-.52 1.19-.8 1.83 -.12.26-.47 1.08-.53 1.28 -.04.12-.08.33.06.33 .32 0 1.16-.76 1.39-.99 .01-.02.03-.03.05-.04 .03-.11.07-.22.1-.32 .08-.22.16-.48.32-.66 .04-.06.1-.1.16-.1 .16 0 .25.06.25.23 0 .06-.05.29-.07.35 .08-.09.17-.18.27-.26 .9-.81 1.55-.4 1.55.01 0 .42-.54 1.01-.84 1.34 -.1.11-.3.31-.31.36 0 .07.05.1.13.1 .12 0 .38-.21.48-.28 .3-.23.71-.58 1-.82l.89-7.89ZM10.9 24.02l.9 1.46 .35 4.57c0 .51 1.71.92 3.81.92s3.81-.42 3.81-.93l.27-4.63 .85-1.42c-2.4.96-7.53.99-10.03 0Z"/></svg>