<svg viewBox="0 0 32 32" xmlns="http://www.w3.org/2000/svg"><path d="M16 2c-1.65 0-3 1.35-3 3v5.18c-.32-.12-.65-.19-1-.19 -1.65 0-3 1.35-3 3v3.65l-2.1 2.68c-1.28 1.65-1.2 4.02.18 5.59l2.37 2.68c1.32 1.51 3.23 2.375 5.25 2.375h5.28c3.85 0 7-3.15 7-7v-9c0-1.65-1.36-3-3-3 -.54 0-1.04.15-1.47.4 -.54-.85-1.47-1.41-2.54-1.41 -.36 0-.69.07-1 .18V4.94c0-1.65-1.36-3-3-3Zm0 2c.56 0 1 .43 1 1v10h2v-2c0-.57.43-1 1-1 .56 0 1 .43 1 1v2h2v-1c0-.57.43-1 1-1 .56 0 1 .43 1 1v9c0 2.77-2.23 5-5 5h-5.29c-1.44 0-2.81-.61-3.75-1.69l-2.375-2.72c-.76-.86-.8-2.1-.1-3l.5-.66v1.06h2v-8c0-.57.43-1 1-1 .56 0 1 .43 1 1v2h2v-10c0-.57.43-1 1-1Z"/></svg>