<svg viewBox="0 0 32 32" xmlns="http://www.w3.org/2000/svg"><path d="M13 2c-1.65 0-3 1.35-3 3v11.81l-.66-.69 -.25-.22c-1.16-1.16-3.04-1.16-4.19 0 -1.16 1.15-1.16 3.03 0 4.18v.03l8.18 8.09 .06.03 .03.06c1.34 1.01 3.06 1.68 5 1.68h1.71c4.53 0 8.18-3.66 8.18-8.19v-7.82c0-1.65-1.36-3-3-3 -.43 0-.83.11-1.19.28 -.33-1.31-1.52-2.29-2.91-2.29 -.77 0-1.47.3-2 .78 -.54-.49-1.24-.79-2-.79 -.36 0-.69.07-1 .18V4.93c0-1.65-1.36-3-3-3Zm0 2c.55 0 1 .44 1 1v11h2v-4c0-.56.44-1 1-1 .55 0 1 .44 1 1v4h2v-4c0-.56.44-1 1-1 .55 0 1 .44 1 1v4h2.09v-2c0-.56.44-1 1-1 .55 0 1 .44 1 1v7.81c0 3.46-2.73 6.18-6.19 6.18h-1.72c-1.47 0-2.74-.53-3.79-1.32l-8.1-8c-.45-.45-.45-.93-.001-1.375 .44-.45.92-.45 1.375 0l4.31 4.31V4.98c0-.56.44-1 1-1Z"/></svg>