<svg viewBox="0 0 32 32" xmlns="http://www.w3.org/2000/svg"><path d="M16 28c-6.21 0-8.47-2.06-8.71-2.29l-.48-.47 8.5-21.25h7.61l-4.73 3.36 6.95 17.88 -.47.46c-.24.23-2.5 2.28-8.71 2.28Zm-6.78-3.37c.87.5 2.95 1.36 6.77 1.36 3.82 0 5.89-.87 6.78-1.37L16.09 7.43Zm8.77-.64c-1.66 0-3-1.35-3-3 0-1.66 1.34-3 3-3 .26 0 .5.04.75.1 -.72-.68-1.69-1.11-2.75-1.11 -2.22 0-4 1.78-4 4 0 2.21 1.78 4 4 4 1.06 0 2.03-.43 2.75-1.11 -.25.06-.49.1-.75.1Zm-2-11c.55 0 1 .44 1 1 0 .55-.45 1-1 1 -.56 0-1-.45-1-1 0-.56.44-1 1-1Zm3 7c.55 0 1 .44 1 1 0 .55-.45 1-1 1 -.56 0-1-.45-1-1 0-.56.44-1 1-1Z"/></svg>