<svg viewBox="0 0 32 32" xmlns="http://www.w3.org/2000/svg"><path d="M19.21 7c-.26-.01-.53 0-.79.04 -.69.1-1.33.35-1.99.56 -.67.21-1.32.37-1.81.37 -.32 0-.88-.01-1.45-.01s-1.12.01-1.59.1c-.85.15-1.58.52-2.1 1.09 -.52.56-.79 1.27-.92 2.01v0c-.01 0-.01 0-.01.01l-.61 3.81c-3.15.17-5.43 2.1-6.66 4.7 -.55 1.13-.41 2.39.19 3.32 .59.92 1.59 1.54 2.73 1.79 8.17 1.76 15.17 1.22 22.79.14v0s.01 0 .01 0h0s0 0 0 0v-.01 0c.01-.01.02-.01.04-.01 0-.01.01-.01.02-.01v0c0-.01.01-.01.01-.01v0c.09-.02.19-.05.28-.1 1.29-.27 2.25-.82 2.81-1.55 .6-.8.74-1.69.74-2.37 0-3.41-2.62-7.51-7.45-8.81l-.59-2.28v0c-.01-.01-.01-.02-.01-.02 -.47-1.65-1.96-2.83-3.76-2.88Zm-.03 1.98c1.02-.02 1.59.51 1.84 1.42 0 0 0 0 0 0l.69 2.68 0 0v0c.01.09.03.17.06.26l.16.63v0c0 .02.01.05.01.08 .11.4-.25 1.2-.72 1.47 -.29.16-1.41.59-2.7.89 -1.22.28-2.64.49-3.93.52 -1.25-.9-2.72-1.63-4.64-1.89l.56-3.56c.08-.49.22-.8.41-1.01 .19-.22.45-.38.97-.48 .16-.04.71-.07 1.25-.07 .53-.01 1.07 0 1.41 0 .88 0 1.69-.24 2.41-.47 .71-.23 1.35-.46 1.67-.5 .16-.03.32-.04.46-.04Zm4.96 5.49c3.23 1.36 4.84 4.38 4.84 6.49 0 .41-.08.82-.34 1.15 -.26.33-.74.67-1.8.85 -3.03.21-4.96-.32-6.49-1.21 1.26-.27 2.38-.67 3.13-1.11v0c0-.01 0-.01 0-.01 1.14-.68 1.72-2.05 1.36-3.33l-.75-2.87Zm-1.43 2.49l.23.89v0s0 .01 0 .01c.11.41-.06.83-.46 1.06 -.68.39-2.65 1.03-4.375 1.12 -.19-.17-.37-.34-.55-.51 -.26-.25-.54-.5-.8-.76 .77-.11 1.53-.25 2.23-.42 1.41-.34 2.52-.7 3.24-1.12h0s0 0 0 0c.15-.1.31-.2.45-.32Zm-14.29.01c2.36 0 3.86.67 5.16 1.66v0c.08.09.18.17.3.23 .77.62 1.48 1.35 2.29 2.12 .25.23.51.47.78.71v0c.08.1.19.19.32.25v0s0 0 0 0c.73.59 1.54 1.16 2.48 1.65 -4.91.37-9.78.41-15.14-.75 -.69-.15-1.22-.53-1.48-.93 -.27-.41-.34-.81-.07-1.37 1.06-2.25 2.66-3.6 5.31-3.6Z"/></svg>