<svg viewBox="0 0 32 32" xmlns="http://www.w3.org/2000/svg"><path d="M18 6v4.06c-1.85.16-3.26.72-4.22 1.4 -.57.4-.96.84-1.25 1.25 -.07.08-.08.19-.13.28H5.8c-.42-1.16-1.52-2-2.82-2 -1.65 0-3 1.35-3 3 0 1.64 1.35 3 3 3 1.29 0 2.39-.85 2.81-2h8.18v-.85c.01-.06.04-.18.125-.29 .15-.22.42-.51.81-.79 .78-.56 2.07-1.1 4.06-1.1 .44 0 .91.15 1.375.21 -.53.84-.69 1.92-.69 3.56 0 .73.25 1.46.78 2 .53.53 1.3.84 2.15.84 2.01 0 3.34-.08 4.34-.25 .08-.02.1-.08.18-.1 -.05.07-.04.21-.1.28 -.27.34-.68.62-1.25.84 -1.16.44-2.92.59-4.66.59h-4.94c-1.24 0-2.22-.99-2.22-2.22v-1.79h-2v1.78c0 2.31 1.9 4.21 4.21 4.21h4.93c1.82 0 3.75-.09 5.375-.72 .81-.32 1.57-.8 2.125-1.5 .55-.71.84-1.62.84-2.66 0-2.18-1.57-3.94-3.57-5.16 -.77-.47-1.66-.79-2.54-1.1 -1.11-.4-2.25-.7-3.41-.82V5.88ZM7 7v2h10V7Zm14 0v2h10V7Zm2.06 5.9c.62.24 1.27.45 1.81.78 1.22.74 1.92 1.61 2.28 2.5 -.16.07-.17.15-.54.21 -.76.13-2.03.21-4 .21 -.42 0-.63-.12-.75-.25 -.13-.14-.19-.33-.19-.6 0-1.71.22-2.48.37-2.66 .07-.1.14-.14.34-.19 .12-.04.41-.02.65-.04Zm-20.07.09c.56 0 1 .43 1 1 0 .56-.44 1-1 1 -.57 0-1-.44-1-1 0-.57.43-1 1-1Zm25 9c0 .56-.44 1-1 1h-16v2h16c1.64 0 3-1.36 3-3Z"/></svg>