<svg viewBox="0 0 32 32" xmlns="http://www.w3.org/2000/svg"><path d="M7.91 5l-.1.89c-.11.98-.94 1.81-1.92 1.91l-.9.09v16.29l.86.11c1.024.13 1.79.86 1.95 1.85l.13.83h16.31l.07-.92c.07-.93.83-1.72 1.76-1.82l.88-.1V7.91l-.84-.14c-.99-.16-1.76-.95-1.86-1.92l-.1-.9H7.85ZM9.6 7h12.91c.4 1.17 1.31 2.11 2.48 2.56v12.92c-1.15.41-2.07 1.35-2.46 2.51H9.55c-.45-1.17-1.39-2.07-2.58-2.48V9.58c1.21-.42 2.18-1.39 2.6-2.6Zm.67 3c-.2 0-.38.38-.04.47 .63.16 1.1.41 1.1 1.3v4.07c0 3.36-.01 4.63-.31 5.15 -.32.41-.45.41-.84.55 -.23 0-.31.43 0 .43 1.4 0 .72-.09 2.12-.09 1.38 0 .81.08 2.16.08 .23 0 .18-.34 0-.4 -.89-.31-.89-.42-.95-.52 -.41-.63-.23-3.41-.23-4.62 0-.22.24-.52.53-.52h4.29c.28 0 .53.3.53.51 0 1.2.17 3.98-.23 4.61 -.07.1-.07.2-.95.51 -.19.06-.23.39 0 .39 1.35 0 .78-.09 2.16-.09 1.4 0 .72.08 2.12.08 .3 0 .22-.44 0-.44 -.4-.14-.53-.15-.84-.56 -.31-.52-.31-1.79-.31-5.16v-4.08c0-.9.47-1.15 1.1-1.31 .34-.09.14-.48-.04-.48 -1.42 0-.8.08-2.21.08 -1.27 0-.64-.09-1.91-.09 -.13 0-.33.33-.04.43 .19.06 1.06.14 1.06 1.58 0 1.83 0 2.18-.04 2.71 0 .05-.1.51-.5.51h-4.22c-.41 0-.5-.47-.5-.52 -.05-.53-.04-.88-.04-2.72 0-1.44.87-1.52 1.06-1.59 .29-.11.08-.44-.04-.44 -1.27 0-.64.08-1.91.08 -1.42 0-.8-.09-2.21-.09Z"/></svg>