<svg viewBox="0 0 32 32" xmlns="http://www.w3.org/2000/svg"><path d="M16 3c-2.21 0-4 1.79-4 4 0 .74.21 1.44.58 2.04 -2.01.21-3.59 1.89-3.59 3.95 0 1.18.52 2.23 1.34 2.97 -.13 0-.26.02-.38.02 -.33.01-.64.01-.94 0l-.96-.04 -.08.95c-.05.63-.24 1.58-.85 2.54 -.43.67-1.02 1.25-1.7 1.69l-.74.47 .36.79c.54 1.17.85 2.39.91 3.62 .01.31.01.61 0 .9l-.08 1.51 1.42-.53c1.53-.58 3.1-.89 4.68-.94 .32-.02.63-.01.93 0l.95.03 .07-.96c.05-.64.23-1.59.84-2.55 .42-.68 1.01-1.26 1.69-1.7l.8-.51 -.47-.83c-.47-.83-.77-1.71-.88-2.64 -.06-.44-.06-.88-.03-1.31 .06.05.14.11.26.18 .04.02.06.04.1.06 .16.07.22.09.26.1l.04.01c1.74.64 3.53 1 5.32 1.06h.16c.01.01 0 .01 0 .02 .19.89.53 1.74 1.01 2.5 .43.68.97 1.29 1.6 1.8 -.41 1.08-.66 2.18-.75 3.29 -1.31-.38-2.66-.6-4-.64h-.17c-.19-.9-.54-1.77-1.03-2.54 -.05-.08-.11-.14-.16-.21l-1.34.85c-.1.06-.22.14-.33.23 .04.06.09.12.14.19 .61.95.78 1.9.83 2.53l.08.95 .95-.03c.3-.01.62-.01.94 0 1.57.05 3.14.36 4.67.93l1.41.53 -.08-1.53c-.02-.29-.02-.59 0-.9 .06-1.23.36-2.46.91-3.64l.35-.79 -.74-.48c-.68-.44-1.27-1.02-1.7-1.7 -.61-.95-.79-1.92-.84-2.55l-.09-.95 -.95.02c-.2.01-.42 0-.63 0 -.11-.01-.22-.01-.33-.01 -.13-.01-.26-.02-.38-.03 .82-.74 1.34-1.79 1.34-2.98 0-2.07-1.58-3.75-3.59-3.96 .36-.61.58-1.3.58-2.05 0-2.21-1.8-4-4-4Zm0 2c1.1 0 2 .89 2 2 0 1.1-.9 2-2 2 -1.11 0-2-.9-2-2 0-1.11.89-2 2-2Zm-3 6c1.1 0 2 .89 2 2 0 1.1-.9 2-2 2 -1.11 0-2-.9-2-2 0-1.11.89-2 2-2Zm6 0c1.1 0 2 .89 2 2 0 1.1-.9 2-2 2 -1.11 0-2-.9-2-2 0-1.11.89-2 2-2Zm-5.06 6.39c.01.24.03.48.06.73 .11.88.35 1.74.71 2.56 -.62.5-1.15 1.1-1.58 1.77 -.5.77-.84 1.63-1.03 2.53 -.06 0-.11 0-.17 0 -1.34.04-2.68.25-3.99.62 -.09-1.12-.34-2.22-.75-3.29 .63-.52 1.17-1.13 1.61-1.81 .49-.78.83-1.64 1.02-2.54 .05-.01.11-.01.16-.01 1.31-.05 2.62-.25 3.91-.61Z"/></svg>