<svg viewBox="0 0 32 32" xmlns="http://www.w3.org/2000/svg"><path d="M1.73 10.85c-.83.02-1.37.3-1.57.75 0 0-1.25 1.64 3.08 5.54v3.68h2.89v-1.44c-.33-.21-.65-.44-.97-.68 -.74-.56-1.37-1.09-1.92-1.58v-1.55c.65.73 1.52 1.57 2.66 2.51l.22.17v-1.5c0-.35.08-.92.53-.92s.53.34.53.75v2.43c.9.61 1.86 1.1 2.88 1.47v-4.7c0-.94-.68-1.87-2.04-1.87 -.79-.01-1.53.4-1.93 1.09v-2.72c2.09 1.04 4.19 2.32 4.99 2.91 -.51.73-.47 1.4-.47 2.18 0 .93-.08 1.71.83 2.62 .91.91 2.51.85 2.51.85s1.61.05 2.51-.86c.91-.91.83-1.69.83-2.63 0-.93.07-1.72-.84-2.62 -.91-.91-2.52-.86-2.52-.86s-1.62-.06-2.53.85c-.1.09-.19.19-.27.3 -1.92-1.48-3.63-2.33-5.11-3.06v-1.04l-1.13.52c-1.36-.56-2.48-.78-3.3-.76Zm26.58.21l-2.9 1.36v8.4h2.89v-9.77Zm-25.86.22c.63-.05 1.41.13 2.25.45l-1.47.68v3.16c-2.44-2.73-1.95-3.81-1.76-3.96 .25-.22.58-.33.96-.35Zm28.09.84c-.8 0-1.45.42-1.45 1.22 0 .79.64 1.44 1.44 1.44 .79 0 1.44-.65 1.44-1.45 0-.8-.65-1.23-1.45-1.23Zm-9.21 1.87s-1.62-.06-2.53.85c-.91.91-.84 1.69-.84 2.63 0 .93-.08 1.71.83 2.625 .91.91 2.52.85 2.52.85s1.61.05 2.51-.86c.91-.91.83-1.69.83-2.625 -.01-.94.06-1.73-.84-2.64 -.91-.91-2.52-.86-2.52-.86Zm7.75 1.29v5.52h2.89v-5.53h-2.9Zm-15.06.58c.17 0 .53.1.53.54v2.02c0 .18-.09.62-.54.62 -.45 0-.54-.45-.54-.63v-2.03c0-.44.36-.55.53-.55Zm7.29 0c.17 0 .53.1.53.54v2.02c0 .18-.1.62-.54.62 -.45 0-.54-.45-.54-.63v-2.03c0-.44.36-.55.53-.55ZM7.18 20v.8l1.91.03c-.67-.23-1.3-.51-1.92-.84Zm1.91.83c1.82.62 3.49.7 4.73.35 -1 .01-2.3-.13-3.77-.67v.26l-.98.03Z"/></svg>