<svg viewBox="0 0 32 32" xmlns="http://www.w3.org/2000/svg"><path d="M23 4c-2.05 0-3.31 1.2-4 2.15V4.99c-15.82 0-16 22.76-16 23h4s-.02-4.875 1.53-9.69c.77-2.41 1.94-4.79 3.62-6.5 1.67-1.72 3.81-2.82 6.84-2.82h.625l.28-.57s.88-1.49 2.09-2.13v2.93l4.09 8.18 .09.15 .125.125c.4.37.55.73.625.96 .05.16.03.16.03.18 -.03.09-.08.3-.25.59 -.22.34-.42.53-.72.53 -.31 0-.5-.19-.72-.54 -.22-.35-.32-.72-.32-.72l-.22-.85 -.875.09s-.84.09-1.75-.16c-.92-.26-1.79-.71-2.16-2.1l-.35-1.29 -1.125.65c-1.3.75-2.05 1.91-2.19 3.09 -.15 1.17.2 2.31.625 3.43 .83 2.24 2.06 4.52 2.06 6.34h2c0-2.63-1.47-5.06-2.22-7.07 -.375-1.01-.55-1.86-.47-2.47 .04-.38.19-.7.46-1 .76 1.19 1.8 2.03 2.81 2.31 .92.25 1.3.17 1.75.15 .08.23.06.29.25.59 .4.65 1.21 1.46 2.4 1.46s2-.82 2.4-1.47c.4-.66.56-1.29.56-1.29l.03-.1v-.1s0-.49-.16-1c-.14-.44-.5-.97-.97-1.5h.03l-3.91-7.82V3.8Zm-4.54 3.03c-.01 0-.03.02-.04.03 -.41.01-.81.03-1.19.09 -.32.04-.61.12-.91.18 .29-.08.59-.14.9-.19 .39-.07.8-.11 1.21-.13Zm3.53 4.96c-.56 0-1 .44-1 1 0 .55.44 1 1 1 .55 0 1-.45 1-1 0-.56-.45-1-1-1Z"/></svg>