<svg viewBox="0 0 32 32" xmlns="http://www.w3.org/2000/svg"><path d="M9 4l1.72 1.9c.01.01 1.45 1.68 1.22 3.62 -.15 1.24-.97 2.39-2.41 3.4C5.29 15.79 4 19.65 5.76 23.4c1.32 2.82 4.21 4.57 7.33 4.57h1.81l-1.14-1.62c-.91-1.18-.9-2.52-.68-3.52 1.54 1.16 3.34 1.01 4.6.22 1.15-.74 1.96-2.06 1.99-3.64 .25.4.47.88.62 1.41 .44 1.53.38 3.86-1.22 5.4l-1.67 1.72h1.57c.89 0 1.78-.17 2.58-.57 2.48-1.24 4.16-3.5 5.05-6.76 .72-2.66.26-6.17-1.27-8.9 -3.54-6.36-13.4-7.5-13.82-7.55L8.92 3.9Zm4.45 2.61c2.9.65 8.06 2.31 10.19 6.15 1.26 2.25 1.67 5.09 1.07 7.41 -.5 1.94-1.28 3.39-2.4 4.41 .39-1.5.28-3.05-.08-4.29 -.66-2.27-2.21-3.92-4.06-4.3l-2.21-.47 1.14 1.95c1.061 1.78.48 3.26-.5 3.89 -.79.49-2.07.54-3.1-.97l-.96-1.41 -.77 1.51c-.27.52-1.3 2.78-.6 5.15 -1.47-.48-2.94-1.54-3.71-3.26 -1.63-3.64.81-6.28 3.14-7.87 1.94-1.37 3.04-3 3.25-4.84 .13-1.2-.13-2.28-.49-3.14Z"/></svg>