<svg viewBox="0 0 32 32" xmlns="http://www.w3.org/2000/svg"><path d="M14.21 5c-1 0-1.95.29-2.78.83l-2 1.32 1.1 1.66 1.99-1.33c.49-.33 1.07-.51 1.66-.51h4.38c1.32 0 2.4 1.07 2.4 2.4 0 .71-.32 1.39-.87 1.84l-.9.74H7.94v2h8.83l-3.61 3H7.92v2h2.83l-.26.21c-1.01.83-1.59 2.07-1.59 3.38 0 2.42 1.97 4.4 4.4 4.4h4.38c.99 0 1.94-.3 2.77-.84l1.99-1.33 -1.11-1.67 -2 1.32c-.5.33-1.08.5-1.67.5h-4.39c-1.33 0-2.41-1.08-2.41-2.41 0-.72.31-1.4.86-1.85l2.09-1.75h10.03v-2H16.2l3.59-3h4.03v-2h-1.85c.54-.75.84-1.65.84-2.6 0-2.43-1.98-4.41-4.41-4.41h-4.39Z"/></svg>