<svg viewBox="0 0 32 32" xmlns="http://www.w3.org/2000/svg"><path d="M16 4c-2.16 0-4 1.38-4.69 3.31 -1.93.69-3.32 2.52-3.32 4.68 0 .06-.01.125 0 .18 -1.16.41-2 1.51-2 2.81 0 1.64 1.35 3 3 3h.37l4.31 8.5c0 .01.02.01.03.03 .42.88 1.29 1.46 2.28 1.46 .98 0 1.85-.59 2.28-1.47h.03c0-.01-.01-.03 0-.04l4.31-8.5h.375c1.64 0 3-1.36 3-3 0-1.32-.88-2.42-2.07-2.82 -.29-1.7-1.43-3.12-2.97-3.79 -.31-2.47-2.43-4.41-4.97-4.41Zm0 2c1.32 0 2.43.82 2.84 2 -2.34.07-4.3 1.77-4.75 4h-4.1c0-1.66 1.34-3 3-3 .27 0 .55.05.81.125 .44-.59.95-1.13 1.56-1.54 -.52-.28-1.08-.45-1.66-.54 .54-.65 1.35-1.07 2.28-1.07Zm3 4c1.32 0 2.43.82 2.84 2h-5.69c.4-1.18 1.52-2 2.84-2ZM9 14h14c.56 0 1 .43 1 1 0 .56-.44 1-1 1H12.625l1.03 2h6.71l-3.85 7.625 -.04.03v.03c-.09.19-.29.31-.5.31 -.22 0-.42-.12-.5-.32v-.04l-.04-.04 -4.57-9.07 -.29-.57H8.95c-.57 0-1-.44-1-1 0-.57.43-1 1-1Z"/></svg>