<svg viewBox="0 0 32 32" xmlns="http://www.w3.org/2000/svg"><path d="M0 7v18h32V7Zm2 2h28v14H2Zm3 2.68v8.625h2V11.68Zm3.09 0v8.625h1.9v-4.82l.9 4.81h1.28l.81-4.82v4.81h1.81V11.66h-2.82l-.5 4.12 -.69-4.13Zm7.81 0v8.5h2.4c1.3 0 1.78-.2 2.18-.5 .39-.2.59-.69.59-1.19V13.3c0-.61-.2-1.12-.6-1.32 -.5-.2-.69-.32-2.19-.32Zm6.18.12v8.5h1.81s.08-.61.18-.5c.19 0 1 .375 1.4.375 .5 0 .69 0 1-.1 .39-.2.5-.49.5-.79v-5c0-.7-.72-1.22-1.32-1.22 -.61 0-1.18.39-1.375.59v-1.88Zm-4.1 1.18c.39 0 .81 0 .81.4v5c0 .39-.52.4-.82.4Zm6.59 1c.1 0 .21.1.21.4v4.28c0 .19-.02.4-.22.4 -.11 0-.19-.11-.19-.41v-4.29c0-.2-.02-.41.18-.41Z"/></svg>