<svg viewBox="0 0 32 32" xmlns="http://www.w3.org/2000/svg"><path d="M16 4C9.38 4 4 9.38 4 16c0 1.03.15 2.03.4 3H1.99c-.56 0-1 .44-1 1 0 .55.44 1 1 1h3.09c1.9 4.12 6.07 7 10.9 7 6.61 0 12-5.39 12-12 0-1.04-.16-2.04-.41-3h2.4c.55 0 1-.45 1-1 0-.56-.45-1-1-1h-3.1c-1.91-4.13-6.08-7-10.91-7Zm0 2c3.71 0 6.92 2 8.65 5H10.99c-.56 0-1 .44-1 1 0 .55.44 1 1 1h14.56c.29.94.43 1.95.43 3 0 5.53-4.47 10-10 10 -3.72 0-6.93-2.01-8.66-5h13.65c.55 0 1-.45 1-1 0-.56-.45-1-1-1H6.4c-.3-.95-.44-1.96-.44-3 0-5.54 4.46-10 10-10Zm-5 9c-.56 0-1 .44-1 1 0 .55.44 1 1 1h10c.55 0 1-.45 1-1 0-.56-.45-1-1-1Z"/></svg>