<svg viewBox="0 0 32 32" xmlns="http://www.w3.org/2000/svg"><path d="M16 5c-3.26 0-7.69.05-8.59.13 -1.01.6-3.01 2.9-3.03 3.49v1c0 1.26 1.18 2.37 2.25 2.37 1.28 0 2.35-1.08 2.35-2.34 0 1.26 1.04 2.33 2.32 2.33 1.29 0 2.29-1.07 2.29-2.34 0 1.26 1.08 2.33 2.38 2.33h.02c1.29 0 2.38-1.07 2.38-2.34 0 1.26 1 2.33 2.29 2.33 1.28 0 2.32-1.07 2.32-2.34 0 1.26 1.07 2.33 2.35 2.33 1.07 0 2.25-1.12 2.25-2.38v-1c-.02-.6-2.02-2.9-3.03-3.5 -3.15-.12-5.34-.14-8.59-.14Zm-2.45 6.74c-1.06 1.81-3.7 1.83-4.74.01 -.63 1.09-2.06 1.51-2.67 1.3 -.18 1.89-.31 11.64.99 13.28 3.79.88 14.01.86 17.7 0 1.49-1.53 1.16-11.53.99-13.29 -.61.2-2.04-.22-2.66-1.31 -1.05 1.82-3.69 1.79-4.75-.02 -.33.58-1.09 1.36-2.45 1.36 -1.01.03-1.95-.51-2.45-1.37Zm-2.14 2.25c.8 0 1.53 0 2.41.98 1.45-.15 2.88-.15 4.33 0 .89-.97 1.61-.98 2.41-.98 2.58 0 3.2 3.8 4.13 7.08 .84 3.05-.29 3.13-1.68 3.13 -2.07-.08-3.22-1.58-3.22-3.09 -1.93.32-5.02.44-7.65 0 0 1.51-1.15 3-3.22 3.08 -1.39 0-2.52-.09-1.68-3.14 .93-3.3 1.55-7.09 4.13-7.09v-.01Zm4.58 2.87s-1.7 1.56-2 2.1l1.1-.05v.96c0 .05.81 0 .89 0 .44.01.89.03.89-.01v-.97l1.1.04c-.31-.55-2-2.11-2-2.11Z"/></svg>