<svg viewBox="0 0 32 32" xmlns="http://www.w3.org/2000/svg"><path d="M17.42 1.89c-4.15.08-6.51 1.95-6.65 2.05 -.11.03-2.84.97-3.4 3.41 -.09.03-.11.03-.24.1 -.25.16-.57.43-.82.86 -.49.82-.69 2.23-.17 4.43 -.74.56-1.14 1.45-1.15 2.39 -.01 1.08.36 2.23 1.1 3.02 .66.71 1.31 1.02 1.81 1.12 .19.04.2 0 .34 0 .08.46.42 1.82 1.16 3.23 -.43.23-1.63.91-3.06 1.73 -.81.46-1.59.92-2.19 1.29 -.3.18-.55.34-.74.47 -.1.06-.17.12-.24.17 -.04.02-.07.05-.11.09 -.04.04-.12.07-.15.31l-.04.38 1.18 2.95h23.7l.1-.36s.27-.87.53-1.85c.13-.49.26-1.01.35-1.47 .09-.47.16-.84.14-1.18 -.02-.2-.08-.27-.125-.34 -.06-.08-.11-.14-.17-.21 -.12-.14-.27-.27-.44-.43 -.34-.31-.78-.67-1.21-1.02 -.7-.56-1.15-.89-1.4-1.08 .21-.27.66-.74 1.24-2.2 .7-1.79 1.33-4.49 1.07-8.2 -.25-3.51-1.47-5.95-3.25-7.52 -1.45-1.26-3.24-1.93-5.14-2.18v-.01c-.02 0-.03 0-.05 0 -.44-.06-.88-.1-1.32-.12 -.3-.01-.58-.02-.86-.01Zm1.08 1.12c.32-.02.65-.02.99 0 1.74.23 3.33.83 4.6 1.94 .69.6 1.28 1.37 1.76 2.31 -.38-.15-.75-.2-1.08-.19 -.85.04-1.47.44-1.47.44l.53.84s.43-.27.98-.3c.53-.03 1.15.11 1.74 1.12 .19.76.34 1.59.41 2.53 -.04-.06-.06-.11-.1-.17 -.12-.22-.27-.48-.41-.73 -.3-.51-.59-1-.59-1l-.86.5s.28.48.57.98c.14.25.29.5.4.7 .03.05.05.09.07.14 -.05.02-.07.03-.16.05 -.31.06-.82.05-1.31-.09l-.28.96c.64.18 1.26.21 1.78.09 .26-.06.49-.14.7-.32 .06-.06.125-.14.17-.23 .09 3.07-.46 5.32-1.05 6.82 -.66 1.64-1.33 2.36-1.33 2.36l-.375.41v0c-.55.53-1.79 1.48-3.9 1.63 -2.93.21-4.93-1.62-5.89-2.65 -.93-.98-1.06-1.73-1.06-1.73l-.99.19s.23 1.07 1.3 2.21c.42.45 1.08 1.08 1.94 1.65 -.07 0-.13-.01-.2 0 -.4.06-.78.24-1.05.57 -1.42-.09-2.42-.5-3.05-.91 -.68-.45-.94-.83-.95-.84 -.67-1.09-1.07-2.61-1.23-3.33 .26-.14.6-.39.95-.81l-.78-.64c-.28.33-.5.48-.65.55 -.01 0 0 0-.01 0l-.25.07s-.1.04-.4-.02c-.3-.07-.75-.25-1.3-.84 -.53-.57-.85-1.5-.84-2.34 0-.85.31-1.53.88-1.82l.01-.02c.67-.38 1.12-.43 1.42-.37 .3.06.51.23.69.49 .36.51.46 1.28.46 1.28l.07.62 2.02-.7 -.06-.41s-.1-.7-.4-1.54c-.19-.52-.11-1.18.09-1.87 .19-.69.47-1.37.59-1.99 .125-.66-.04-1.125-.22-1.45 .35-.73 2.27-4.18 6.85-4.44Zm-4.38.39c-1.7 1.07-2.71 2.47-3.2 3.27l-.14.01c-.93.08-1.73.23-2.33.36 .69-1.49 2.67-2.2 2.67-2.2l.08-.04 .07-.06s.98-.82 2.82-1.38Zm2.31 3.91c-1.05.05-1.77.57-2.15 1.15 -.52.77-.55 1.62-.55 1.62l.99.05s.04-.62.37-1.13c.33-.51.85-.95 2.23-.63l.23-.98c-.43-.1-.81-.13-1.16-.11Zm-5.81.42c.2.22.36.34.24.96 -.09.43-.37 1.14-.59 1.91 -.22.76-.37 1.62-.08 2.46 .18.53.2.73.24.94l-.18.05c-.07-.35-.06-.65-.43-1.18 -.29-.4-.72-.78-1.33-.9 -.45-.09-.96-.04-1.53.19 -.4-1.85-.15-2.84.16-3.36 .16-.29.35-.45.48-.53 .13-.09.19-.1.19-.1h0s1.36-.33 2.75-.49Zm8 2.28l-.93.38s.67 1.6 1.12 2.4c-.04.01-.04.03-.15.05 -.34.07-.98.03-1.71-.28l-.41.91c.89.38 1.69.47 2.31.33 .3-.07.58-.18.79-.44 .2-.26.22-.7.05-.99 -.32-.52-1.13-2.4-1.13-2.4Zm3.87.59l-1 .01s.02 2.37 1.93 4.1h-.01c.8.72 1.13 1.19 1.19 1.36 .02.08.01.07 0 .1 -.02.03-.08.1-.19.21 -.15.13-.74.42-1.37.61 -.64.19-1.35.31-1.8.3 -.17-.01-.2-.04-.22-.07 -.04-.04-.07-.1-.08-.21 -.04-.21.02-.48.02-.48l-.98-.25s-.12.4-.05.86c.03.23.12.5.33.73 .21.23.55.37.92.38 .64.01 1.4-.14 2.1-.35 .7-.22 1.33-.46 1.74-.84 .16-.15.32-.32.43-.56 .1-.24.12-.55.03-.83 -.18-.55-.64-1.04-1.48-1.81 -1.58-1.43-1.61-3.375-1.61-3.375ZM7.65 13.88c-.33.01-.66.16-.97.41l.56.67c-.14.41-.28 1.01-.17 1.63l.98-.18c-.06-.3.02-.7.11-1.04 .12.25.22.5.22.5l.96-.26s-.15-.61-.54-1.125c-.2-.26-.48-.53-.89-.61 -.11-.03-.21-.04-.32-.03Zm17.59 3.85c-.77.86-2.16.98-2.16.98l.05 1s1.74-.06 2.84-1.33Zm-6.72.35l-.64.77c2.12 1.72 4.68.98 4.68.98l-.28-.96s-2.07.58-3.78-.81Zm-.28 1.6l-.97.27c.19.69.67 1.19 1.23 1.5 .54.3 1.16.45 1.75.53 1.17.15 2.23 0 2.23 0l-.13-1s-.97.125-1.98-.01c-.51-.07-1.02-.2-1.41-.42 -.39-.22-.64-.49-.75-.91Zm6.81 3.19c.25.19.67.5 1.35 1.04 .42.33.85.69 1.16.97 .15.14.28.26.35.35 .01.01.01.01.01.01 -.01.12-.04.42-.12.82 -.09.42-.22.93-.35 1.41 -.22.76-.35 1.21-.43 1.45h-1.18l-.04-.29c-.05-.39-.25-.62-.47-.78 .03-.08.08-.15.11-.22 .1-.31.13-.64.13-.95 0-.64-.11-1.28-.15-1.63 -.07-.58-.29-1.07-.66-1.41 -.13-.12-.28-.2-.43-.27 .26-.2.48-.4.64-.55Zm-15.24.55c.15.35.41.88 1.1 1.77 .96 1.25 2.54 1.68 3.29 1.82 .04.46.09.91.21 1.31 .06.21.15.42.27.61H4.74l-.83-2.07c.02-.02.03-.03.06-.05 .15-.11.39-.27.69-.45 .57-.36 1.35-.83 2.15-1.29 1.37-.8 2.46-1.42 2.96-1.7Zm13.81.87c.23-.05.39 0 .53.13 .14.12.28.37.33.77 .04.4.14.99.14 1.5 0 .25-.04.48-.08.62 -.06.14-.11.19-.16.22 -.4.2-1.13.16-1.75 0 -.29-.08-.54-.16-.73-.23 .05-.16.09-.33.09-.5 0-.45-.21-.84-.53-1.12 .33-.27.7-.56 1.08-.83 .24-.17.47-.33.66-.44 .19-.11.36-.18.37-.18Zm-11.98.19c.65.3 1.43.57 2.42.67 -.02.16-.02.33 0 .51 .01.08.01.16.02.25 -.7-.19-1.8-.57-2.42-1.37 -.05-.06-.02-.04-.06-.09Zm4.4.09c.44.03 1 .18 1.45.41l1.85.96c-.19.24-.31.55-.31.87 0 .26.07.51.2.73 -.66.375-1.93 1.02-2.98 1.1 -.35.02-.51-.04-.63-.125 -.11-.09-.21-.24-.29-.51 -.17-.54-.18-1.46-.3-2.48 -.06-.41.02-.62.1-.74 .08-.13.22-.2.45-.24 .11-.02.25-.03.4-.02Zm5.01.21c-.16.12-.36.26-.48.35 .04-.04-.13.03-.31.03 -.15 0-.23-.02-.27-.02l-.54-.28c.3.01.6.01.92-.01 .23-.02.42-.06.64-.1Zm-.53 1.56c.26 0 .48.2.48.47 0 .26-.22.47-.49.47s-.49-.21-.49-.48 .21-.48.48-.48Zm.83 1.81c.15.07.44.2.98.33v.42H20.6l-.33-.65c.07.01.15.02.23.02 .03 0 .05-.01.08-.01 .16.05.31.08.43.05 .18-.06.19-.11.3-.18Zm3.23.37v.01s.23.1.25.2l.01.17h-1.52v-.25c.41.03.83 0 1.24-.15Zm-5.24.11l.14.27h-.68c.19-.1.375-.19.53-.28Z"/></svg>