<svg viewBox="0 0 32 32" xmlns="http://www.w3.org/2000/svg"><path d="M16.02 2.19L3.57 14.59c-.77.76-.78 2.02 0 2.8l12.44 12.39 .7-.71c3.63-3.63 5.86-5.85 7.18-7.17l1.35-1.36c.07-.08.16-.17.24-.26 .03-.04.06-.07.07-.08l-.01-.01c.02-.03.04-.06.06-.08 .93-.93 2.2-2.2 2.76-2.76 .37-.38.58-.88.58-1.41 0-.53-.21-1.03-.59-1.41 -1.67-1.66-3.58-3.59-5.51-5.52 -2.16-2.17-4.34-4.35-6.18-6.19l-.71-.71Zm0 2.82c1.68 1.67 3.57 3.57 5.46 5.47 1.92 1.92 3.83 3.84 5.49 5.5 -1.36 1.35-2.31 2.3-2.97 2.99 -.13.11-.26.23-.39.36 -.23.22-.45.43-.5.47l.01.01c-1.24 1.23-3.61 3.59-7.15 7.12L4.93 15.96l11.02-11Zm0 5.9l-5.1 5.07 5.09 5.07 5.09-5.08 -5.1-5.08Zm0 2.82l2.26 2.25 -2.27 2.25 -2.26-2.26L16 13.71Z"/></svg>