<svg viewBox="0 0 32 32" xmlns="http://www.w3.org/2000/svg"><path d="M14.9 3.99c-.37.36-.63.79-.94 1.48 -.32.68-.6 1.54-.6 2.49 -.01.95.32 2.03 1.18 2.85 .86.82 2.15 1.36 3.98 1.59 1.52.19 2.52.46 3.08.79 .55.33.79.66.97 1.48l1.95-.44c-.26-1.19-.91-2.18-1.9-2.78 -1-.6-2.23-.87-3.86-1.07 -1.56-.2-2.42-.64-2.86-1.07 -.45-.43-.58-.87-.58-1.41 0-.55.18-1.18.41-1.68 .22-.51.58-.96.52-.9L14.83 3.9Zm5.52.32v2c.62 0 1.44.07 2.05.42 .6.34 1.11.87 1.23 2.33l.07.91h.91c.51 0 1.59.16 2.13.63 .26.23.44.5.5 1.02s-.04 1.32-.51 2.47l1.84.76c.55-1.36.75-2.5.63-3.48s-.59-1.78-1.19-2.3c-.92-.8-1.91-.98-2.71-1.05 -.35-1.45-1.06-2.55-1.99-3.08 -1.13-.64-2.3-.69-3.04-.69Zm9.57 11.68l-28 1v6l28 1v-8Zm-2 2.07v3.85l-2-.08v-3.72l2-.08Zm-4 .14v3.57l-2-.08v-3.43l2-.08Zm-4 .14v3.28l-16-.58v-2.15l16-.58Z"/></svg>