<svg viewBox="0 0 32 32" xmlns="http://www.w3.org/2000/svg"><path d="M25.79 4.39c-1.22 0-2.27 1-2.27 2.26 0 .23.04.46.1.68l-1.94 1.8c-1.55-1.31-3.49-2.04-5.51-2.1 -1.81-.04-3.57.44-5.07 1.42l.98 1.02c1.21-.73 2.61-1.09 4.04-1.05 2.35.05 4.41 1.1 5.94 3.14L25 8.75c.09.03.45.09.75.08 1.21 0 2.2-1.02 2.2-2.24 0-1.21-.99-2.26-2.21-2.26ZM7.87 6.06c-.36-.01-.72.11-1 .38 -.57.53-.59 1.42-.06 1.98 .31.33.76.48 1.21.42l1.17 1.23c-1.37 1.57-2.18 3.59-2.23 5.68 -.05 1.72.4 3.41 1.3 4.9l1.03-1.01c-.66-1.19-.98-2.51-.95-3.87 .04-1.79.72-3.49 1.91-4.82 .44-.51.84-.82 1.06-1L9.15 7.69c.08-.45-.04-.91-.36-1.23 -.28-.29-.64-.43-1-.44ZM16.01 10c-3.06 0-5.62 2.2-6.01 5.25 -.41 3.28 1.92 6.28 5.2 6.69 3.28.4 6.28-1.93 6.7-5.22 .4-3.28-1.93-6.29-5.22-6.69 -.23-.04-.46-.06-.69-.06Zm7.59 1.35l-1.03.97c.64 1.17 1.01 2.49.99 3.84 -.06 2.093-1.02 4.22-3.03 5.82 0 0 .91.96 2.08 2.2 -.09.45.03.91.35 1.23 .53.55 1.42.57 1.98.04 .56-.54.58-1.43.04-1.99 -.31-.34-.76-.49-1.22-.43 -.02-.02-1.12-1.19-1.14-1.2 1.39-1.57 2.22-3.58 2.28-5.68 .03-1.71-.46-3.41-1.36-4.87Zm-7.625 1.62c1.25.02 2.23.98 2.25 2.25 -.01.89-.48 1.59-1.26 2.01l.5 1.73h-3l.5-1.74c-.79-.41-1.24-1.15-1.27-2.02 .04-1.3 1.01-2.23 2.25-2.25ZM9.79 20.4l-2.84 2.76c-1.44-.52-3 .52-3 2.14 0 1.25.97 2.26 2.22 2.26 1.556 0 2.61-1.53 2.16-2.92 .01-.02 1.79-1.78 1.8-1.78 1.55 1.29 3.49 2.02 5.51 2.08 1.8.03 3.56-.45 5.06-1.42 -.12-.12-.74-.78-.98-1.03 -1.22.72-2.63 1.07-4.06 1.04 -2.61-.07-4.43-1.16-5.94-3.16Z"/></svg>