<svg viewBox="0 0 32 32" xmlns="http://www.w3.org/2000/svg"><path d="M16 3C8.83 3 3 8.83 3 16c0 7.16 5.83 13 13 13 2.36 0 4.58-.65 6.49-1.76l-1.45-1.49c-1.52.78-3.24 1.24-5.06 1.24 -6.07 0-11-4.94-11-11 0-6.07 4.93-11 11-11 6.06 0 11 4.93 11 11 0 .02-.01.05-.01.07 .71.11 1.38.38 1.95.78 .01-.29.04-.58.04-.87 0-7.17-5.84-13-13-13Zm-4.5 9v0c-.83 0-1.5.67-1.5 1.5 0 .82.67 1.5 1.5 1.5v0c.82 0 1.5-.68 1.5-1.5 0-.83-.68-1.5-1.5-1.5Zm8.5 0c-2.1 0-3.61 1.2-3.61 1.2l1.21 1.58s1.08-.8 2.39-.8c1.3 0 2.39.79 2.39.79l1.21-1.59c-.01 0-1.52-1.21-3.62-1.21Zm-5 5v1.49c.9 0 1.47.41 1.47.63 0 .21-.58.62-1.47.62 -.01-.01-.01 0-.01 0v0 1.48 0s0 0 0 0c.89 0 1.46.41 1.46.62 0 .21-.58.63-1.48.63v1.49c1.66 0 2.97-.94 2.97-2.13 0-.54-.28-1.01-.72-1.375 .43-.37.71-.85.71-1.375 0-1.189-1.31-2.13-2.98-2.13Zm7.75.99c-1.53 0-2.75 1.29-2.75 2.8 0 .87.5 1.52.86 1.89l3.63 3.73 3.64-3.74c.36-.38.85-.9.85-1.9 0-1.51-1.22-2.81-2.75-2.81 -.73 0-1.33.25-1.75.5 -.42-.25-1.02-.5-1.75-.5Zm0 2c.23 0 .48.07.72.21l1.02.6 1.02-.61c.24-.15.48-.22.72-.22 .4 0 .75.37.75.8 0 .18-.01.21-.3.5l-2.21 2.26 -2.2-2.26c-.12-.12-.31-.34-.31-.51 0-.43.35-.81.75-.81Z"/></svg>