<svg viewBox="0 0 32 32" xmlns="http://www.w3.org/2000/svg"><path d="M5 6v13.56l-2.29 2.31c-.46.45-.72 1.07-.72 1.71 0 1.32 1.08 2.4 2.4 2.4h23.18c1.32 0 2.4-1.09 2.4-2.41 0-.65-.27-1.27-.72-1.72l-2.29-2.32V5.96h-22Zm2 2h18v11H7V8Zm9 1l-1.5 9H16l1.5-9H16Zm-3.92 2l-1.72 2.06 -.37.43 .36.43 1.71 2.06 1.08-.87 -1.37-1.64 1.36-1.64 -1.09-.87Zm7.82 0l-1.09.86 1.36 1.63 -1.37 1.63 1.08.86 1.71-2.07 .36-.44 -.37-.44 -1.72-2.07ZM6.42 21h19.12l2.31 2.28c.07.07.125.2.125.31 0 .24-.17.4-.41.4H4.37c-.25 0-.41-.17-.41-.41 0-.11.04-.24.12-.32l2.31-2.29Z"/></svg>