<svg viewBox="0 0 32 32" xmlns="http://www.w3.org/2000/svg"><path d="M5 5v22h22V5H5Zm2 2h18v18H7V7Zm5.61 5.1c-2.36 0-3.62 1.49-3.62 4.02 0 2.43 1.25 3.75 3.49 3.75 1.81 0 2.67-.85 2.67-.85l-.52-1.4s-.84.93-2.09.93c-1.11 0-1.9-.97-1.9-2.51 0-1.98.99-2.68 1.97-2.68 1.81 0 2.04 1.45 2.75 3.68 .51 1.55 1.47 2.8 4.25 2.8 1.98 0 3.33-.61 3.33-2.22 0-2-1.72-2.21-3.15-2.52 -.71-.17-.92-.45-.92-.94 0-.55.43-.87 1.13-.87 .77 0 1.18.28 1.25.98l1.6-.2c-.13-1.45-1.13-2.04-2.76-2.04 -1.44 0-2.86.54-2.86 2.29 0 1.09.53 1.78 1.86 2.1 1.23.28 2.18.38 2.18 1.25 0 .59-.58.83-1.67.83 -1.62 0-2.3-.86-2.68-2.03 -.88-2.65-1.2-4.47-4.42-4.47Z"/></svg>