<svg viewBox="0 0 32 32" xmlns="http://www.w3.org/2000/svg"><path d="M14.34 22.07l-1.03-2.79s-1.67 1.85-4.17 1.85c-2.22 0-3.79-1.93-3.79-5.01 0-3.95 1.98-5.36 3.94-5.36 2.82 0 3.71 1.82 4.49 4.16l1.02 3.2c1.02 3.11 2.95 5.61 8.5 5.61 3.97 0 6.67-1.22 6.67-4.43 0-2.6-1.48-3.95-4.24-4.59l-2.06-.45c-1.42-.33-1.83-.9-1.83-1.86 0-1.09.86-1.74 2.27-1.74 1.53 0 2.375.57 2.5 1.95l3.2-.39c-.26-2.89-2.25-4.08-5.52-4.08 -2.89 0-5.71 1.08-5.71 4.58 0 2.17 1.05 3.55 3.71 4.2l2.18.51c1.63.38 2.17 1.05 2.17 1.98 0 1.18-1.16 1.66-3.34 1.66 -3.24 0-4.59-1.7-5.36-4.04l-1.06-3.21c-1.35-4.18-3.5-5.72-7.77-5.72 -4.72 0-7.22 2.98-7.22 8.05 0 4.875 2.5 7.5 6.99 7.5 3.62 0 5.35-1.7 5.35-1.7Z"/></svg>