<svg viewBox="0 0 32 32" xmlns="http://www.w3.org/2000/svg"><path d="M16 4c-4.96 0-9 4.04-9 9 0 1.91.84 3.9 2 5.68 .85 1.32 1.88 2.54 3 3.46v2.84c0 1.09.9 2 2 2l1 1h2l1-1c1.09 0 2-.91 2-2v-2.85c1.11-.93 2.14-2.15 3-3.47 1.15-1.79 2-3.77 2-5.69 0-4.96-4.05-9-9-9Zm0 2c3.87 0 7 3.12 7 7 0 1.3-.65 3.03-1.66 4.59 -.91 1.39-2.09 2.62-3.19 3.4h-4.32c-1.1-.78-2.29-2.02-3.19-3.41 -1.02-1.56-1.66-3.29-1.66-4.6 0-3.88 3.12-7 7-7Zm-1.75 17h3.5c.07.05.16.09.25.125V25h-4v-1.875c.08-.04.17-.08.25-.125Z"/></svg>