<svg viewBox="0 0 32 32" xmlns="http://www.w3.org/2000/svg"><path d="M21.75 4c-1.68 0-3.26.66-4.44 1.84L15.84 7.3c-1.19 1.18-1.85 2.76-1.85 4.43 0 .79.15 1.56.43 2.28l1.62-1.63c-.21-1.3.19-2.7 1.18-3.69l1.46-1.47c.8-.81 1.89-1.25 3.03-1.25 1.13 0 2.19.44 3 1.25 1.66 1.66 1.66 4.37 0 6.03l-1.47 1.46c-.81.8-1.9 1.25-3.04 1.25 -.23 0-.45-.03-.66-.07l-1.63 1.62c.71.28 1.48.43 2.28.43 1.67 0 3.25-.67 4.43-1.85l1.46-1.47c1.18-1.19 1.84-2.77 1.84-4.44 0-1.68-.67-3.23-1.85-4.41 -1.18-1.19-2.74-1.85-4.41-1.85Zm-2.47 7.28l-8 8 1.43 1.43 8-8Zm-7.54 2.71c-1.68 0-3.26.66-4.44 1.84l-1.47 1.46c-1.19 1.18-1.85 2.76-1.85 4.43s.66 3.22 1.84 4.4c1.17 1.18 2.73 1.84 4.4 1.84 1.67 0 3.25-.67 4.43-1.85l1.46-1.47c1.18-1.19 1.84-2.77 1.84-4.44 0-.8-.16-1.57-.44-2.29l-1.63 1.62c.2 1.29-.2 2.69-1.19 3.68l-1.47 1.46c-.81.8-1.9 1.25-3.04 1.25 -1.14 0-2.2-.45-3-1.25 -1.67-1.67-1.67-4.38 0-6.04l1.46-1.47c.8-.81 1.89-1.25 3.03-1.25 .22 0 .44.02.65.06l1.62-1.63c-.72-.29-1.49-.44-2.29-.44Z"/></svg>