<svg viewBox="0 0 32 32" xmlns="http://www.w3.org/2000/svg"><path d="M7.5 5C6.13 5 5 6.13 5 7.5v17C5 25.86 6.13 27 7.5 27h17c1.36 0 2.5-1.14 2.5-2.5v-17C27 6.13 25.86 5 24.5 5Zm0 2h17c.28 0 .5.21.5.5v17c0 .28-.22.5-.5.5h-17c-.29 0-.5-.22-.5-.5v-17c0-.29.21-.5.5-.5Zm2.93 1.71c-.95 0-1.72.76-1.72 1.71 0 .94.76 1.71 1.71 1.71 .94 0 1.71-.77 1.71-1.72s-.77-1.72-1.72-1.72Zm9.03 4.56c-1.44 0-2.39.78-2.79 1.53h-.07v-1.32h-2.82v9.5h2.93v-4.69c0-1.24.24-2.44 1.78-2.44 1.51 0 1.53 1.39 1.53 2.5v4.625h2.93v-5.22c0-2.56-.55-4.5-3.54-4.5Zm-10.47.21v9.5h2.96v-9.5Z"/></svg>