<svg viewBox="0 0 32 32" xmlns="http://www.w3.org/2000/svg"><path d="M16 5C10.48 5 6 9.48 6 15v8c0 1.11-.89 2-2 2v2c2.19 0 4-1.81 4-4v-8c0-4.43 3.57-8 8-8 1.01 0 1.98.18 2.875.53 -.3.41-.14 1.14.4 1.68 .58.58 1.39.73 1.78.34 .14-.15.18-.37.18-.6 1.67 1.46 2.75 3.61 2.75 6.03v8c0 2.19 1.8 4 4 4v-2c-1.12 0-2-.89-2-2v-8c0-5.52-4.49-10-10-10Zm-3 6c-1.52 0-2.67.85-3.25 1.87 -.59 1.02-.75 2.17-.75 3.12 0 1.35.41 2.34.87 2.96 .04.05.08.1.12.15 -.62.65-1 1.46-1 2.375 0 1.42.97 2.59 2.25 3.34 1.27.74 2.93 1.15 4.75 1.15 1.81 0 3.47-.42 4.75-1.16 1.27-.75 2.25-1.92 2.25-3.35 0-.91-.39-1.72-1-2.375 .04-.06.08-.1.125-.16 .46-.63.875-1.62.875-2.97 0-.96-.17-2.11-.75-3.13 -.59-1.03-1.74-1.88-3.25-1.88 -1.34 0-2.38.65-3 1.5 -.63-.85-1.67-1.5-3-1.5Zm0 2c.86 0 1.21.31 1.53.87 .32.56.46 1.41.46 2.12h2c0-.71.14-1.57.46-2.13 .32-.57.66-.88 1.53-.88 .86 0 1.21.31 1.53.87 .32.56.46 1.41.46 2.12 0 .96-.28 1.48-.5 1.78 -.08.09-.11.14-.16.18 -.23-.12-.45-.25-.69-.35 .21-.28.34-.68.34-1.125 0-.83-.45-1.5-1-1.5 -.56 0-1 .67-1 1.5 0 .26.07.5.15.71 -.69-.14-1.4-.22-2.16-.22 -.76 0-1.47.08-2.16.21 .07-.22.15-.46.15-.72 0-.83-.45-1.5-1-1.5 -.56 0-1 .67-1 1.5 0 .45.13.85.34 1.125 -.25.09-.47.23-.69.34 -.05-.05-.09-.09-.16-.19 -.23-.31-.5-.83-.5-1.79 0-.71.14-1.57.46-2.13 .32-.57.66-.88 1.53-.88Zm3 6c1.5 0 2.85.35 3.75.875 .89.52 1.25 1.12 1.25 1.625 0 .5-.36 1.1-1.25 1.625 -.9.52-2.25.875-3.75.875s-2.86-.36-3.75-.875c-.9-.53-1.25-1.13-1.25-1.625 0-.51.35-1.11 1.25-1.625C13.14 19.345 14.5 19 16 19Zm-2.5 1.43l-1 1.71s1.42.84 3.5.84c2.07 0 3.5-.85 3.5-.85l-1-1.72s-.96.56-2.5.56c-1.55 0-2.5-.57-2.5-.57Z"/></svg>