<svg viewBox="0 0 32 32" xmlns="http://www.w3.org/2000/svg"><path d="M3.71 2.28L2.27 3.71l26 26 1.43-1.44 -6.6-6.6c3.31-2.07 5.51-4.79 5.65-4.97l.21-.29v-.91l-.25-.29c-.26-.3-6.23-7.25-12.75-7.25 -1.91 0-3.68.53-5.29 1.28Zm12.28 7.71c4.64 0 9.28 4.48 10.75 6.03 -.82.91-2.66 2.8-5.07 4.21l-2.25-2.25c.89-1.54.69-3.53-.625-4.85 -1.32-1.32-3.29-1.5-4.82-.6l-1.75-1.75c1.18-.48 2.43-.82 3.75-.82Zm-8.25 1.03c-2.68 1.92-4.41 4.08-4.54 4.25l-.22.25v.93l.25.28c.26.29 6.46 7.25 12.75 7.25 1.39 0 2.75-.28 4-.72Zm.62 2.06l8.81 8.81c-.39.05-.79.09-1.19.09 -.49 0-.99-.06-1.47-.16l-7.57-7.6c.41-.38.89-.77 1.4-1.16ZM6.2 14.92l6.31 6.28c-3.25-1.36-6.16-4.1-7.29-5.25 .23-.27.57-.64.96-1.04Z"/></svg>