<svg viewBox="0 0 32 32" xmlns="http://www.w3.org/2000/svg"><path d="M2 8v11c0 1.65 1.343 3 3 3h2.06c-.66-.64-1.07-1.53-1.07-2.5V16 9.5 8h-4Zm20.5 0c-3.04 0-5.5 2.46-5.5 5.5V15v1 6c2.2 0 4-1.8 4-4h2v-4h-2v-.5c0-.83.67-1.5 1.5-1.5 .82 0 1.5.67 1.5 1.5V16v1c0 2.76 2.23 5 5 5h1v-4c-1.11 0-2-.9-2-2h2v-4h-2.22c-.66-2.31-2.78-4-5.29-4ZM7 12v7c0 1.65 1.35 3 3 3h.5c.7 0 1.36-.22 1.91-.58 -.14.19-.28.38-.45.54 -.63.64-1.52 1.02-2.48 1.02 -.54 0-1.05-.12-1.5-.35v2.92c.61.27 1.29.41 2 .41h1c2.75 0 5-2.25 5-5v-9h-4v5.5c0 .27-.23.5-.5.5 -.28 0-.5-.23-.5-.5v-5.5h-4Z"/></svg>