<svg viewBox="0 0 32 32" xmlns="http://www.w3.org/2000/svg"><path d="M20.875 2.56l-.69.75 -1.69 1.78h-3.6v3.5l-1.72 1.81 -.69.71 2.18 2.18L3 24.97l-.72.71 .71.68 3.28 3.28 .68-.72 11.68-11.66 2.18 2.18 .71-.69 1.81-1.72h3.5v-3.6l1.78-1.69 .75-.69 -2.54-2.54v-3.5h-3.5Zm.03 2.875L22.28 6.8l.31.28h2.31v2.31l.28.31 1.37 1.37 -1.35 1.28 -.32.28v2.43h-2.32l-.29.28 -1.41 1.34 -.82-.82 4.53-4.54 -3.97-3.97 -.72.68 -3.82 3.84 -.85-.85 1.34-1.41 .28-.29V7h2.43l.28-.32Zm-.25 4.78l1.12 1.15L6.3 26.86 5.14 25.7Zm-1.66 10.78v1h-1v2h1v1h2v-1h1v-2h-1v-1Zm6 2v2h-2v2h2v2h2v-2h2v-2h-2v-2Z"/></svg>