<svg viewBox="0 0 32 32" xmlns="http://www.w3.org/2000/svg"><path d="M16 3c-4.96 0-9 4.04-9 9 0 1.4.57 3.01 1.34 4.78 .77 1.76 1.76 3.63 2.78 5.37 2.02 3.48 4.06 6.4 4.06 6.4l.81 1.18 .81-1.19s2.03-2.92 4.06-6.41c1.01-1.75 2-3.62 2.78-5.38 .77-1.77 1.34-3.375 1.34-4.79 0-4.96-4.05-9-9-9Zm0 2c3.87 0 7 3.12 7 7 0 .8-.43 2.31-1.16 3.96s-1.74 3.48-2.72 5.18c-1.58 2.71-2.55 4.14-3.125 5 -.58-.86-1.56-2.29-3.13-5 -.99-1.71-2-3.54-2.72-5.19 -.73-1.66-1.16-3.17-1.16-3.97 0-3.88 3.12-7 7-7Zm0 5c-1.11 0-2 .89-2 2 0 1.1.89 2 2 2 1.1 0 2-.9 2-2 0-1.11-.9-2-2-2Z"/></svg>