<svg viewBox="0 0 32 32" xmlns="http://www.w3.org/2000/svg"><path d="M22 3c-3.31 0-6 2.699-6 6 0 .99.38 2 .875 3.125 .49 1.12 1.11 2.3 1.75 3.4 1.27 2.19 2.56 4.03 2.56 4.03l.81 1.18 .81-1.19s1.28-1.84 2.56-4.04c.63-1.1 1.25-2.29 1.75-3.41 .49-1.13.875-2.14.875-3.125 0-3.301-2.7-6-6-6ZM11.96 4.93l-7.97 3.4v19.18l8.03-3.47 8 3 7.96-3.41v-8.72c-.64 1.22-1.35 2.39-2 3.43v3.96l-5 2.12v-1.63l-1.47-2.125c-.16-.23-.35-.5-.54-.79v4.62l-6-2.25V7.37l1.09.4c.09-.68.27-1.33.53-1.94l-2.66-.97Zm10.03.06c2.21 0 4 1.78 4 4 0 .38-.25 1.3-.69 2.31 -.45 1.01-1.08 2.15-1.69 3.21 -.82 1.4-1.17 1.9-1.625 2.59 -.46-.69-.81-1.19-1.625-2.6 -.62-1.06-1.25-2.21-1.69-3.22 -.45-1.02-.69-1.93-.69-2.32 0-2.22 1.78-4 4-4Zm-11 2.5v14.84l-5 2.12V9.63l5-2.16Z"/></svg>