<svg viewBox="0 0 32 32" xmlns="http://www.w3.org/2000/svg"><path d="M15.93 4.03c-3.03.01-6.02.39-7.59 1.11 0 0-3.36 1.52-3.36 6.73 0 6.19-.01 13.97 5.56 15.48 2.13.57 3.96.69 5.43.61 2.67-.16 3.99-.98 3.99-.98L19.87 25s-1.74.61-3.89.54c-2.13-.08-4.37-.24-4.72-2.9 -.04-.25-.05-.5-.05-.75 4.507 1.11 8.35.48 9.4.35 2.95-.36 5.52-2.22 5.85-3.91 .51-2.67.47-6.51.47-6.51 0-5.21-3.36-6.74-3.36-6.74 -1.65-.77-4.69-1.13-7.71-1.12ZM12.69 8c1.03.02 2.05.49 2.68 1.46l.6 1.03 .6-1.04c1.26-1.97 4.1-1.85 5.44-.33 1.24 1.44.96 2.38.96 8.85v0h-2.45v-5.63c0-2.64-3.36-2.74-3.36.36v3.26h-2.44v-3.27c0-3.11-3.36-3.01-3.36-.37v5.62H8.9c0-6.48-.28-7.42.96-8.86 .67-.77 1.72-1.18 2.76-1.15Z"/></svg>