<svg viewBox="0 0 32 32" xmlns="http://www.w3.org/2000/svg"><path d="M3.72 2.27L2.27 3.71l9.58 9.58 1.42 1.42 3.97 3.97 1.44 1.44 9.57 9.57 1.44-1.45 -9.33-9.33 1.44-1.02c3.46-.42 6.15-3.37 6.15-6.94 0-3.86-3.15-7-7-7 -3.58 0-6.54 2.71-6.94 6.18L13 11.55 3.66 2.21Zm17.27 3.72c2.77 0 5 2.22 5 5 0 1.016-.3 1.96-.82 2.75L18.23 6.8c.78-.516 1.73-.82 2.75-.82ZM16.8 8.24l6.93 6.93c-.79.51-1.74.81-2.75.81 -2.78 0-5-2.23-5-5 0-1.016.29-1.97.81-2.75Zm-6.09 6.66l-4.73 6.68 -.47.68 .56.59 .81.81 -2.625 2.59 1.43 1.43 2.56-2.6 1.37 1.375 .71-.5 6.71-4.73 -1.44-1.44 -5.75 4.06 -1.79-1.85 4.02-5.72 -1.43-1.44Z"/></svg>