<svg viewBox="0 0 32 32" xmlns="http://www.w3.org/2000/svg"><path d="M19 3c-4.4 0-8 3.6-8 8v2.625c-1.73-1.01-3.97-.67-5.19.96 -1.33 1.75-.98 4.27.78 5.59v.03h.03l5.375 3.93v4.84h14v-5.29c.01-.04.03-.08.06-.125 .11-.23.23-.55.375-.97 .28-.84.56-2.06.56-3.625v-8c0-4.4-3.61-8-8-8Zm0 2c3.3 0 6 2.69 6 6v8c0 1.34-.22 2.34-.44 3 -.11.32-.24.56-.32.71 -.04.07-.05.125-.07.15 -.01.01-.03.02-.04.03l.15.09H13.81l-.25-.19 -5.79-4.22c-.9-.67-1.08-1.9-.41-2.79 .67-.9 1.89-1.08 2.78-.41h.03l1.21.84 1.56 1.09v-6.35c0-3.31 2.69-6 6-6Zm-5 20h10v2H14Z"/></svg>