<svg viewBox="0 0 32 32" xmlns="http://www.w3.org/2000/svg"><path d="M12.84 6c-3.63 0-6.84 2.33-8 5.72 -2.75.4-4.86 2.75-4.86 5.6 0 3.12 2.54 5.67 5.68 5.67H20.2c2.622 0 4.76-2.14 4.76-4.76 0-2.28-1.62-4.18-3.74-4.64 -.43-4.27-4.04-7.62-8.42-7.62Zm0 2c3.53 0 6.4 2.89 6.4 6.43 0 .69-.12 1.37-.33 2.03 -.46 1.4 1.64 1.98 2.04.67 .14-.42.25-.86.32-1.3 .98.37 1.7 1.33 1.7 2.47 0 1.46-1.2 2.67-2.68 2.67H5.56c-1.99 0-3.61-1.62-3.61-3.62s1.62-3.62 3.6-3.62c.95 0 1.85.37 2.53 1.06 1.01 1.02 2.55-.53 1.53-1.56 -.74-.74-1.66-1.25-2.65-1.5 1.01-2.27 3.29-3.79 5.82-3.79Zm16.61 4c-.78-.11-1.61.78-1.03 1.62 .95 1.43 1.47 3.12 1.47 4.86 0 1.73-.53 3.43-1.48 4.87 -.49.69.04 1.61.85 1.61 .34 0 .66-.17.875-.47 1.19-1.79 1.82-3.88 1.82-6.04 0-2.17-.63-4.26-1.83-6.03 -.2-.3-.45-.44-.71-.48Zm-3 1.69c-.79-.11-1.61.77-1.03 1.62 .64.94.97 2.04.97 3.17s-.33 2.22-.98 3.16c-.48.68.01 1.61.86 1.61 .34 0 .66-.15.87-.45 .87-1.3 1.31-2.8 1.31-4.35 0-1.56-.45-3.07-1.32-4.34 -.2-.29-.46-.44-.72-.47Z"/></svg>