<svg viewBox="0 0 32 32" xmlns="http://www.w3.org/2000/svg"><path d="M2 7v18h28V7H2Zm2 2h24v14H4V9Zm2 2v2h10v-2H6Zm14 0v5h6v-5h-6ZM6 14v2h7v-2H6Zm2.5 3c-.61 0-1.04.34-1.32.65 -.29.31-.49.66-.66 1.03 -.34.74-.54 1.55-.54 2.31h2c0-.32.15-1.02.37-1.5 .06-.15.12-.19.18-.29 .07.1.12.16.21.31 .14.23.3.51.5.78 .19.26.43.7 1.18.71 .59.01.77-.21.96-.35 .19-.15.32-.28.46-.41 .09-.09.17-.16.25-.22 .02.03.13.1.68.34 .66.29 1.67.59 3.15.59v-2c-1.23 0-1.88-.2-2.35-.41 -.48-.21-.84-.6-1.66-.6 -.61 0-.76.23-.94.375 -.17.125-.28.25-.41.375 -.06-.1-.09-.15-.16-.25 -.17-.28-.37-.59-.66-.875 -.29-.3-.75-.625-1.35-.625ZM20 19v2h6v-2h-6Z"/></svg>