<svg viewBox="0 0 32 32" xmlns="http://www.w3.org/2000/svg"><path d="M22.4 3c-.85.03-1.73.65-2.125 1.62v.03h-.04c-.43 1.12-1.02 2.29-1.69 3.43 -.83-.07-1.68-.1-2.57-.1 -3.14 0-5.99.43-8.125 1.21 -1.08.39-1.97.87-2.66 1.46 -.61.52-1.06 1.21-1.16 2 -.04.08-.06.16-.07.25 -.01.05-.01.1 0 .15 0 .28 0 .66.03 1.12 0 .03-.01.06 0 .09 .01.22.06.45.09.71 .03.24.05.48.09.71 .2 1.35.61 2.95 1.43 4.53 .58 1.11 1.38 2.2 2.46 3.125 .03.03.15.18.15.18 1.01 1.01 3.02 2.08 6.25 2.34 .14.01.28.02.43.03 .33.01.67.03 1.03.03 .51 0 1-.02 1.46-.07 .07-.01.14-.03.21-.04 .32-.04.61-.08.9-.125 .05-.01.1-.03.15-.04 .05-.02.1-.02.15-.04 .73-.15 1.4-.35 2.03-.6 .42-.17.75-.33 1.09-.5 .16-.09.31-.17.46-.25 .43-.25.79-.47 1.06-.66 .43-.31 1.49-1.19 2.53-2.94 .91-1.55 1.73-3.75 1.87-6.57 .03-.49.03-.87.03-1.16 0-.02 0-.04 0-.07 0-.02 0-.02 0-.04s0-.05 0-.07c0-.04-.03-.07-.04-.1 0-.04 0-.07 0-.1 -.12-1-.82-1.81-1.69-2.41 -.63-.43-1.4-.79-2.25-1.1 .31-.39.62-.77.96-1.13 .03-.04.06-.07.09-.1l-.04-.04c.73-.67 1.06-1.66.84-2.44 -.24-.83-.81-1.4-1.38-1.82 -.58-.42-1.28-.76-2.13-.72Zm.09 2c.16-.01.55.1.875.34 .32.23.57.55.625.71 .04.16.11.17-.25.46l-.07.03 -.04.03c-3.08 3.14-4.86 6.85-5.38 9.31 -.74.05-1.5.09-2.29.09 -.31 0-.61-.02-.91-.04 2.5-2.47 5.51-6.55 7.03-10.6 .18-.45.21-.37.375-.375Zm-6.5 5c.44 0 .88.01 1.31.03 -1.75 2.54-3.72 4.73-4.97 5.71 -1.45-.2-2.76-.5-3.79-.88 -.92-.34-1.61-.71-2.04-1.07 -.43-.36-.54-.64-.54-.82 0-.04 0-.07 0-.1 .03-.18.17-.42.53-.72 .42-.36 1.11-.73 2.03-1.07 1.83-.67 4.5-1.125 7.43-1.125Zm6.78.93c1 .3 1.83.66 2.37 1.03 .66.45.84.81.84 1.03 0 .01 0 .04 0 .06 -.02.17-.16.42-.54.75 -.43.35-1.12.72-2.04 1.06 -.84.3-1.86.55-2.97.75 .39-1.25 1.18-2.96 2.31-4.69Zm2.9 5.12c-.09.45-.17.92-.32 1.4 -.04.1-.06.21-.1.31 -.03.07-.07.14-.1.21 -.26.66-.55 1.25-.85 1.75 -.88 1.48-1.91 2.32-1.94 2.34 -.72.5-1.88 1.3-3.88 1.68 -.12.01-.24.04-.35.06 -.65.1-1.38.15-2.19.15 -.33 0-.62-.02-.91-.04 -.13-.01-.25-.02-.38-.04 -.46-.04-.86-.09-1.25-.16 -.31-.06-.6-.11-.875-.19 -.2-.06-.36-.11-.54-.16 -.77-.26-1.43-.59-2-.97 -.13-.09-.24-.18-.32-.25l-.04-.04c-.17-.17-.4-.35-.75-.75 -.36-.41-.82-1.01-1.25-1.75 -.5-.84-.99-1.88-1.32-3.16 -.04-.16-.07-.29-.1-.44 .46.26.99.48 1.56.68 2.14.78 4.98 1.21 8.125 1.21 3.13 0 5.98-.44 8.125-1.22 .57-.22 1.09-.46 1.56-.72Z"/></svg>