<svg viewBox="0 0 32 32" xmlns="http://www.w3.org/2000/svg"><path d="M6.43 4.15l-.91 2.5 -1.47 4 -.07.15v17.18h11v-3c0-.59.1-.85.18-1 .08-.16.18-.25.4-.41 .11-.09.24-.18.4-.32 .16.13.29.23.4.31 .22.16.32.25.4.4 .08.15.18.41.18 1v3h11V10.77l-.07-.19 -1.54-4 -.97-2.47 -.91 2.5 -1.47 4 -.07.15v6.18h-.1c-.33-2.72-1.89-4.37-3.35-5.35 -.82-.55-1.59-.93-2.07-1.25 -.24-.17-.41-.31-.47-.38 -.07-.08-.04-.05-.04-.04v-1h-2v1c0-.02.03-.05-.04.03 -.07.07-.23.24-.47.4 -.49.32-1.25.73-2.07 1.28 -1.45.98-3.02 2.61-3.35 5.28h-.1v-6.19l-.07-.19 -1.54-4Zm.03 5.71l.53 1.34v14.78h-1V11.16Zm19 0l.53 1.34v14.78h-1V11.16Zm-9.47 1.9c.125.09.24.19.375.28 .64.42 1.375.82 2.06 1.28 1.17.79 2.19 1.73 2.46 3.65h-9.82c.26-1.9 1.28-2.86 2.46-3.66 .68-.47 1.41-.85 2.06-1.29 .12-.09.25-.19.375-.29Zm-7 7.21h14v7h-4v-1c0-.83-.15-1.49-.44-2 -.29-.52-.7-.84-.97-1.04 -.28-.2-.42-.3-.47-.38 -.06-.08-.125-.18-.125-.6h-2c0 .41-.07.51-.13.59 -.06.07-.2.17-.47.37 -.28.19-.68.51-.97 1.03 -.29.51-.44 1.17-.44 2v1h-4Z"/></svg>