<svg viewBox="0 0 32 32" xmlns="http://www.w3.org/2000/svg"><path d="M22.5 6c-.66 0-1.21.41-1.41 1h-4.1v2h4.25l.31 1h-3.57c-2.61 0-3.93 1.4-4.41 2h-3.38c-.39-.23-1.77-1-3.72-1 -2.17 0-3.94.84-3.94.84l.875 1.81s1.42-.66 3.06-.66c.8 0 1.57.24 2.125.46l-.875 1.81c-.56-.17-1.15-.29-1.75-.29 -3.31 0-6 2.69-6 6 0 3.3 2.69 6 6 6 2.97 0 5.43-2.17 5.9-5h3.46c.75 0 1.47-.45 1.81-1.125h-.04l1.09-2.22c1.66-.77 3.01-2.1 3.96-3.35 .26-.35.48-.67.68-.97l2.12 6.93 1.93-.57 -1.13-3.69c.05-.01.1-.04.15-.04 2.2 0 4 1.79 4 4 0 2.2-1.8 4-4 4 -2.21 0-4-1.8-4-4 0-1.07.41-2.04 1.09-2.75l-.63-2.1c-1.5 1.09-2.47 2.85-2.47 4.84 0 3.3 2.69 6 6 6 3.3 0 6-2.7 6-6 0-3.31-2.7-6-6-6 -.27 0-.53.02-.79.06l-1.85-6.07h1.625v-3ZM18 12h4c-.15.26-.6 1.06-1.375 2.09 -.93 1.21-2.23 2.51-3.47 2.96l-.41.12 -.16.37 -1.22 2.43H5.98v2h3.84c-.45 1.72-1.99 3-3.85 3 -2.21 0-4-1.8-4-4 0-2.21 1.79-4 4-4 1.47 0 2.74.8 3.43 2h2.21c-.41-1.15-1.17-2.14-2.13-2.85l1.09-2.16h3.9l.31-.44s.96-1.57 3.15-1.57Z"/></svg>