<svg viewBox="0 0 32 32" xmlns="http://www.w3.org/2000/svg"><path d="M16 4c-3.31 0-6.25 1.54-8.17 3.93 -.92-.35-1.53-.5-1.59-.52l-1.25-.32 -.01 3.9c-1.21.91-2.01 2.35-2.01 3.98 0 1.65.81 3.1 2.05 4.02 .51 5.58 5.22 9.97 10.94 9.97 5.71 0 10.42-4.39 10.94-9.98 1.24-.92 2.05-2.38 2.05-4.03 0-1.64-.8-3.08-2.01-3.99l0-3.91 -1.25.31c-.06.01-.68.17-1.59.51 -1.93-2.4-4.87-3.95-8.17-3.95Zm0 2c2.55 0 4.84 1.02 6.48 2.65 -.56.26-1.16.57-1.76.93 -2.91-1.57-6.54-1.57-9.45 0 -.61-.37-1.21-.68-1.77-.94 1.63-1.63 3.92-2.66 6.48-2.66ZM7 9.76c.95.35 2.34.94 3.72 1.83l.53.34 .53-.34c2.545-1.59 5.88-1.59 8.42 0l.53.33 .53-.35c1.37-.89 2.75-1.48 3.71-1.83v8.23c0 4.96-4.05 9-9.01 9 -4.97 0-9.01-4.04-9.01-9l0-8.24ZM10.43 18c-.44-.01-.92 0-1.44 0 .04.45-.01 1.75 1.39 2.56 .23.13.8.31 1.35.34 1.34.06 3.25.08 3.25.08 -.58-2.63-1.52-2.97-4.57-3Zm11.11 0c-3.06.02-4 .36-4.56 2.99 0 0 1.91-.03 3.25-.09 .55-.03 1.12-.22 1.35-.35 1.4-.82 1.35-2.13 1.39-2.57 -.53-.01-1.01-.01-1.45-.01Zm-8.2 3.99c.74.78 1.64 1.38 2.64 1.75 1-.37 1.89-.97 2.64-1.75h-5.29Zm.65 2.43s-.15.07-.34.34c-.14.22-.19.5-.19.5 1.53.94 3.51.94 5.03 0 0 0-.01-.22-.17-.48 -.17-.28-.36-.39-.36-.39 -1.3.39-2.75.37-3.99 0Z"/></svg>