<svg viewBox="0 0 32 32" xmlns="http://www.w3.org/2000/svg"><path d="M21.3 6c-.16 0-.31.12-.31.3v5.49l-1.25-.73c-.08-.05-.17-.07-.26-.07s-.18.02-.26.06l-3 1.74c-.16.09-.26.25-.26.43v3.49c0 .18.09.34.25.43l2.99 1.74c.07.04.16.06.25.06 .08 0 .17-.03.25-.07l2.99-1.75c.15-.09.25-.26.25-.44v-1.75 -1.75 -6.03c0-.18-.1-.35-.25-.44l-1.31-.76c-.05-.03-.1-.05-.15-.05Zm-9.81 5c-.09 0-.18.02-.26.06l-3 1.74c-.16.09-.26.25-.26.43v3.49c0 .18.09.34.25.43l2.99 1.74c.15.09.35.09.5 0l2.99-1.75c.15-.09.25-.26.25-.44v-3.5c0-.18-.1-.35-.26-.44l-3-1.75c-.08-.05-.17-.07-.26-.07Zm16 0c-.09 0-.18.02-.26.06l-3 1.74c-.16.09-.26.25-.26.43v3.49c0 .18.09.34.25.43l2.9 1.75c.15.09.35.09.5 0l1.42-.84c.14-.09.14-.3 0-.39l-3.1-1.83v-1.8l1.5-.88 1.5.87v1.25c0 .16.14.19.23.13 .37-.23 1.51-.89 1.51-.89 .15-.09.24-.26.24-.44v-.93c0-.18-.1-.35-.26-.44l-3-1.75c-.08-.05-.17-.07-.26-.07Zm-24 0c-.09 0-.18.02-.26.06l-3 1.74c-.16.09-.26.25-.26.43v4.46c0 .21.23.35.42.24l1.32-.78c.15-.09.24-.26.24-.44v-2.65l1.5-.88 1.5.87v2.64c0 .17.09.34.24.43l1.32.77c.18.11.42-.03.42-.25v-4.47c0-.18-.1-.35-.26-.44l-3-1.75c-.08-.05-.17-.07-.26-.07Zm16 2.23l1.5.875v.88 .88l-1.5.87 -1.5-.88v-1.78l1.5-.875Zm8 .76l-.86.5v.99l.85.49 .85-.5v-1l-.86-.5Zm-12.1 3.99c-.11 0-.21.02-.3.07l-2.82 1.625c-.19.1-.3.3-.3.51v3.24c0 .2.11.4.29.51l.74.42c.35.17.48.17.64.17 .53 0 .83-.32.83-.88v-3.21c0-.05-.04-.09-.09-.09h-.36c-.05 0-.09.03-.09.08v3.2c0 .24-.26.49-.68.28l-.77-.45c-.03-.02-.05-.05-.05-.08v-3.25c0-.03.01-.07.04-.08l2.81-1.63c.03-.02.06-.02.08 0l2.81 1.62c.02.01.04.04.04.07v3.24c0 .03-.02.06-.05.07l-2.82 1.62c-.03.01-.07.01-.09 0l-.72-.43c-.02-.01-.05-.02-.07-.01 -.2.11-.24.13-.43.19 -.05.01-.12.04.02.12l.93.55c.09.04.19.07.29.07 .1 0 .21-.03.29-.09l2.81-1.63c.18-.11.29-.31.29-.52v-3.25c0-.21-.12-.41-.3-.52l-2.82-1.625c-.09-.06-.2-.08-.3-.08Zm4.38 1.49c-.29 0-.54.23-.54.53 0 .29.24.54.53.54 .29 0 .53-.25.53-.55 0-.31-.25-.55-.54-.54Zm-.01.08c.25 0 .45.2.45.45 0 .24-.21.45-.46.45s-.46-.21-.46-.46c0-.26.2-.46.45-.46Zm-.2.14v.6h.11v-.25h.1c.04 0 .05.01.06.05 0 0 .01.16.02.19h.125c-.02-.03-.03-.12-.03-.17 -.02-.08-.02-.14-.11-.14 .04-.02.11-.04.11-.16 0-.17-.14-.17-.22-.17h-.21Zm.11.09h.09c.03 0 .08-.01.08.08 0 .03-.02.08-.1.08h-.1v-.17Zm-3.55.49c-.81 0-1.28.34-1.28.9 0 .61.47.78 1.24.86 .92.09.99.22.99.4 0 .31-.26.44-.85.44 -.75 0-.91-.19-.97-.56 -.01-.04-.04-.07-.09-.07h-.37c-.05 0-.09.03-.09.08 0 .47.25 1.03 1.48 1.03 .9-.01 1.41-.36 1.41-.97s-.41-.77-1.28-.89c-.88-.12-.97-.18-.97-.39 0-.17.07-.4.71-.4 .57 0 .79.12.88.51 .01.03.03.06.07.06h.36c.02 0 .04-.01.05-.03 .01-.02.02-.04.01-.07 -.06-.68-.51-.99-1.41-.99Z"/></svg>