<svg viewBox="0 0 32 32" xmlns="http://www.w3.org/2000/svg"><path d="M5 5v22h22V5H5Zm2 2h18v18H7V7Zm9 2c-1.93 0-3.5 1.57-3.5 3.5s1.57 3.5 3.5 3.5 3.5-1.57 3.5-3.5 -1.57-3.5-3.5-3.5Zm0 2c.82 0 1.5.673 1.5 1.5s-.68 1.5-1.5 1.5c-.827 0-1.5-.673-1.5-1.5s.673-1.5 1.5-1.5Zm-3.15 5c-.26.03-.5.16-.66.38 -.34.44-.25 1.06.19 1.4 .69.52 1.49.87 2.33 1.05l-2.45 2.44c-.391.39-.391 1.02 0 1.41 .391.39 1.02.39 1.41 0l2.29-2.3 2.29 2.29c.19.19.45.29.7.29 .25 0 .51-.1.7-.3 .39-.4.39-1.03 0-1.42l-2.45-2.45c.83-.19 1.63-.53 2.33-1.06 .44-.34.53-.96.19-1.41 -.34-.45-.96-.54-1.41-.2 -1.4 1.04-3.41 1.04-4.8 0 -.22-.17-.49-.23-.75-.2Z"/></svg>