<svg viewBox="0 0 32 32" xmlns="http://www.w3.org/2000/svg"><path d="M16.53 3c-.4-.01-.79-.02-1.18 0 -.13 0-.26.01-.39.02 -.19.01-.38.02-.56.05 -.14.02-.28.03-.42.05 -.19.03-.37.06-.56.09 -.89.17-1.76.44-2.59.8 -.42.17-.82.37-1.21.59 -1.48.82-2.8 1.94-3.84 3.27 -.61.76-1.13 1.59-1.55 2.46 -.07.15-.15.29-.21.45 -.36.81-.63 1.65-.81 2.52 -.05.2-.08.41-.12.61 -.03.14-.04.29-.07.44 -.03.16-.04.33-.05.49 -.02.18-.04.36-.04.55 -.01.49-.02.99.02 1.49 .02.2.03.41.06.62 .01.12.02.25.04.37 .05.32.11.65.19.97 .11.47.24.94.4 1.39 .78 2.21 2.18 4.21 4 5.69 .52.43 1.08.82 1.67 1.16 .1.06.22.12.33.18 .51.28 1.05.53 1.6.74 .43.16.88.31 1.33.42 .22.05.44.1.66.15 .21.04.43.07.64.11 .14.02.28.03.42.05 .17.02.34.03.51.05 .35.03.71.04 1.07.04 .35 0 .7-.01 1.05-.05 .27-.02.55-.06.82-.09 .24-.04.49-.09.73-.14 .35-.08.7-.17 1.05-.27 .18-.06.36-.12.55-.18 .33-.12.66-.25.99-.39 1.07-.48 2.07-1.09 2.98-1.83 1.48-1.21 2.69-2.75 3.51-4.47 .43-.9.75-1.85.97-2.82 .06-.27.1-.54.15-.81 .02-.15.03-.29.05-.43 .02-.18.03-.36.05-.53 .02-.26.03-.53.03-.79 0-.44 0-.88-.04-1.32 -.02-.21-.04-.41-.07-.61 -.02-.17-.05-.34-.08-.5 -.11-.673-.28-1.34-.5-1.99 -.12-.35-.25-.7-.4-1.03 -.06-.14-.13-.28-.19-.41 -.64-1.35-1.52-2.58-2.57-3.63 -1.09-1.09-2.37-1.98-3.76-2.62 -.61-.28-1.24-.51-1.875-.7 -.41-.12-.82-.22-1.23-.29 -.16-.03-.31-.06-.46-.08 -.26-.04-.52-.08-.77-.09 -.19-.02-.38-.04-.57-.04Zm-.74.99c.39-.01.79 0 1.19.03 .21.02.42.03.63.06 .42.06.85.13 1.26.24 1.67.4 3.25 1.18 4.6 2.25 .95.76 1.78 1.66 2.46 2.67 .48.72.89 1.5 1.21 2.31 .37.96.62 1.97.74 2.99 .01.2.03.41.05.62 .03.72.02 1.45-.08 2.18 -.07.55-.18 1.09-.32 1.63 -.19.69-.44 1.36-.74 2.01 -.12.24-.25.48-.38.72 -.17.28-.34.56-.52.83 -.16.22-.32.45-.5.67 -.66.83-1.42 1.58-2.27 2.21 -1.19.88-2.54 1.55-3.96 1.94 -.22.06-.45.11-.67.16 -.2.04-.39.07-.59.11 -.24.04-.48.06-.72.09 -.75.07-1.49.08-2.24.02 -.16-.02-.32-.04-.47-.05 -.63-.08-1.25-.21-1.85-.39 -.28-.08-.55-.18-.82-.27 -.41-.15-.81-.33-1.2-.52 -1.09-.55-2.1-1.26-2.98-2.11 -.61-.59-1.15-1.23-1.61-1.92 -.73-1.08-1.28-2.28-1.62-3.54 -.07-.25-.13-.5-.18-.75 -.08-.38-.14-.76-.18-1.14 -.05-.39-.07-.77-.07-1.15 -.01-.49.01-.97.07-1.44 .04-.47.12-.93.23-1.38 .48-2.12 1.57-4.08 3.08-5.63 .13-.13.25-.26.38-.38 .25-.24.51-.47.78-.68 .21-.18.43-.33.66-.49 .51-.35 1.05-.66 1.62-.93 .69-.33 1.42-.59 2.17-.78 .38-.1.77-.18 1.16-.24 .49-.07.98-.12 1.48-.12Zm-3.24 1.79c-.798.25-1.58.59-2.27 1.05 -.39.25-.75.54-1.08.87 -.58.57-1.05 1.25-1.38 2 -.19.4-.33.82-.44 1.24 -.21.8-.29 1.63-.25 2.45 0 .23.03.46.06.69 .08.54.21 1.08.42 1.58 .05.14.13.27.19.41 .05.11.11.21.16.32 .24.44.52.87.87 1.25 .24.28.52.53.82.75 .27.2.58.37.89.51 .52.22 1.09.36 1.67.36 .04 0 .09-.01.14-.01 0-.09 0-.18 0-.26 -.01-.16-.01-.31-.01-.46 -.01-.31 0-.61-.01-.91 -.01-.13 0-.25-.01-.38 -.01-.19 0-.38-.01-.56 -.01-.22-.01-.43-.01-.65 -.01-.17.01-.34-.04-.49 -.06-.22-.18-.41-.32-.59 -.11-.13-.22-.25-.34-.37 -.25-.24-.54-.44-.79-.67 -.46-.42-.87-.9-1.18-1.43 -.359-.62-.59-1.32-.6-2.04 -.01-.26.01-.52.06-.78 .06-.4.18-.78.36-1.14 .22-.49.53-.92.89-1.31 .46-.51 1-.94 1.59-1.29 .16-.11.33-.19.5-.28Zm6.92 0c.09.06.19.1.29.15 .67.37 1.29.85 1.81 1.42 .27.3.52.64.73 1 .14.27.27.56.37.86 .11.39.19.8.19 1.21 0 .23-.01.46-.06.69 -.06.33-.17.65-.3.96 -.25.54-.59 1.04-.99 1.48 -.24.26-.51.5-.79.72 -.35.27-.7.57-.93.95 -.07.11-.13.24-.17.37 -.04.15-.03.31-.03.47 -.01.26 0 .53-.01.79 -.01.12 0 .24-.01.37 -.01.36 0 .73-.01 1.1 0 .19-.01.38-.01.58 0 .11-.02.22 0 .33 .09.01.19 0 .29 0 .18-.01.37-.03.55-.07 .66-.13 1.3-.41 1.85-.81 .53-.39.98-.88 1.35-1.43 .21-.32.4-.67.56-1.01 .18-.35.3-.73.41-1.11 .14-.6.22-1.21.22-1.82 -.01-.24-.01-.48-.03-.72 -.07-.86-.26-1.71-.59-2.5 -.07-.15-.14-.29-.2-.44 -.34-.67-.79-1.28-1.32-1.81 -.56-.54-1.2-.98-1.88-1.31 -.32-.17-.65-.3-.99-.42 -.14-.05-.28-.1-.43-.14Zm-5.13 3.24c-.06.05-.12.11-.17.17 -.26.29-.48.62-.66.96 -.11.2-.21.4-.29.61 -.16.38-.28.77-.36 1.18 -.03.15-.07.3-.07.46 .08.01.16.01.24.03 .28.07.52.24.73.44 .22.21.41.46.58.73 .22.35.4.73.51 1.14 .08.3.12.6.16.91 .03.34.05.69.06 1.03 0 .26.01.17.01.43 -.01.12-.01.24 0 .37 0 .22-.02.45-.02.68 0 .09-.01.19-.02.29 -.02.55-.08 1.11-.12 1.67 -.03.2-.04.41-.07.62 -.07.49-.13.98-.24 1.47 -.08.35-.17.7-.28 1.04 -.08.23-.15.46-.26.68 -.03.05-.07.12-.13.16 -.07-.03-.11-.09-.14-.14 -.07-.11-.13-.23-.18-.35 -.06-.13-.13-.26-.19-.39 -.09-.18-.19-.35-.3-.51 -.16-.22-.35-.42-.6-.51 -.2-.09-.42-.09-.63-.04 -.11.02-.22.04-.33.06 -.19.02-.38.04-.58.05 -.27.01-.53.01-.8 0 -.15-.01-.3-.01-.44-.02 -.17-.02-.34-.01-.5-.05 -.47-.1-.9-.33-1.29-.58 -.56-.37-1.06-.82-1.53-1.29 -.15-.16-.3-.32-.45-.47 .05.1.11.21.16.32 .18.34.37.67.58 1 .391.63.82 1.24 1.34 1.77 .19.19.4.37.62.52 .34.24.75.42 1.17.47 .3.03.62.02.92-.06 .24-.07.49-.16.72-.27 .19-.09.37-.2.55-.31 -.1.13-.21.25-.33.37 -.25.23-.52.43-.82.58 -.32.16-.65.27-1 .33 .08.08.18.14.28.21 .41.28.85.52 1.3.72 .51.23 1.04.41 1.58.55 .57.14 1.15.24 1.74.28 .25.02.52.02.78.03 .24 0 .48-.01.73-.02 1.18-.08 2.35-.35 3.44-.81 .56-.24 1.1-.52 1.6-.87 .07-.05.14-.1.2-.16 -.08-.01-.16-.02-.24-.04 -.24-.06-.47-.17-.68-.29 -.26-.16-.5-.35-.72-.54 -.16-.15-.32-.3-.46-.46 .16.11.32.23.5.32 .13.06.27.14.42.19 .17.06.35.12.54.15 .46.07.93 0 1.36-.18 .43-.18.82-.46 1.17-.78 .25-.24.48-.5.69-.77 .35-.46.65-.94.92-1.45 .07-.15.15-.29.22-.44 .07-.17.15-.33.21-.5 -.07.07-.12.15-.18.22 -.45.54-.98 1.03-1.58 1.41 -.26.16-.53.29-.81.41 -.42.17-.86.28-1.31.32 -.2.01-.4.02-.59.01 -.2-.02-.4-.05-.59-.08 -.34-.06-.69-.13-1.03-.1 -.17.01-.33.06-.48.12 -.12.04-.23.1-.32.18 -.06.05-.1.12-.14.18 -.22.4-.44.81-.65 1.22 -.03.05-.06.1-.09.15 -.02.02-.06.04-.09.02 -.02-.01-.04-.03-.05-.04 -.12-.12-.23-.25-.32-.38 -.24-.37-.41-.78-.55-1.19 -.09-.25-.15-.5-.21-.75 -.12-.47-.2-.95-.27-1.42 -.04-.22-.06-.44-.09-.65 -.03-.17-.03-.33-.05-.49 -.03-.18-.03-.37-.05-.55 -.02-.19-.04-.38-.05-.57 -.01-.08 0-.16-.02-.23 -.02.2-.01.41-.01.61 -.01.31 0 .62-.01.94 -.01.2-.01.41-.01.61 -.01.18 0 .37-.01.56 -.01.31-.01.62-.01.94 -.01.21 0 .42-.01.63 -.01.18 0 .37-.01.56 -.01.3 0 .61-.01.92 -.01.21-.01.42-.01.63 -.01.11.01.23-.03.34 -.04.08-.08.17-.13.25 -.05.06-.11.12-.18.13 -.07 0-.13-.03-.17-.07 -.08-.07-.13-.16-.17-.25 -.04-.07-.08-.14-.08-.22 -.01-.07-.01-.15-.01-.22 0-3.87 0-7.37 0-11.23 0-.19-.1-.36-.24-.47 -.15-.12-.32-.2-.48-.29 -.1-.05-.2-.1-.28-.17 -.14-.11-.26-.25-.37-.39 -.24-.33-.41-.71-.47-1.11 -.03-.14-.02-.27-.02-.4 0-.18.04-.36.08-.53 .07-.25.2-.49.36-.69 .03-.05.06-.1.1-.15Zm1.53.25c-.02 0-.04 0-.06 0 -.06.25-.13.51-.18.77 -.01.02-.02.04-.02.06 -.18 0-.36-.01-.53 0 -.27 0-.54-.01-.81 0l0 .05c.09.04.19.06.28.09 .16.05.32.1.49.15 .06.02.13.03.2.06 0 .02 0 .05 0 .08 -.07.04-.15.05-.22.08 -.18.06-.37.11-.55.17 -.07.02-.15.03-.22.07 -.03.01-.01.04-.01.06 .08 0 .17 0 .26 0 .26 0 .52-.01.79 0 .09 0 .18-.01.26 0 .02.07.03.16.05.24 .04.19.08.39.13.59 .01 0 .03 0 .05 0 .01-.1 0-.19 0-.28v-2c0-.1 0-.19-.01-.29Zm.25 0c-.01.09-.01.18-.01.28v2c0 .09-.01.18 0 .27 .01-.01.03-.01.05-.01 .05-.19.08-.38.13-.57 .02-.09.03-.18.06-.27 .08-.02.16-.01.25-.02 .27-.01.54 0 .81 0 .08 0 .17 0 .25-.01 0-.03.01-.05-.01-.07 -.02-.02-.04-.02-.06-.03 -.26-.08-.52-.17-.77-.25 -.05-.02-.1-.04-.15-.06 -.01-.03-.01-.07 0-.09 .02-.02.05-.03.08-.04 .19-.07.39-.13.58-.19 .09-.04.2-.06.29-.1 0-.02 0-.04 0-.06 -.04-.01-.08-.01-.12-.01 -.28 0-.55 0-.82-.01 -.14-.01-.27 0-.41-.01 -.03-.08-.04-.16-.06-.23 -.06-.21-.1-.41-.15-.61 -.02-.01-.04-.01-.06-.01Zm-9.58 1.65c-.07.1-.12.22-.18.33 -.28.57-.51 1.16-.67 1.77 -.09.29-.15.58-.2.88 -.03.15-.04.3-.07.45 -.05.32-.06.64-.06.97 0 .28.02.57.07.85 .01.11.03.22.05.34 .03.15.05.31.09.46 .04.21.1.41.16.62 .09.3.2.59.33.88 .28.64.66 1.24 1.14 1.76 .13.15.28.28.43.42 .35.3.75.55 1.17.75 .18.09.38.17.57.24 .5.17 1.04.28 1.57.26 .21-.01.43-.02.65-.06 .36-.06.72-.18 1.06-.33 0-.04-.01-.09-.01-.12 -.04-.16-.07-.32-.12-.47 -.12-.36-.28-.71-.54-.98 -.19-.2-.43-.36-.69-.45 -.2-.07-.41-.1-.61-.15 -.28-.08-.55-.16-.81-.26 -.19-.07-.36-.16-.53-.25 -.3-.16-.57-.36-.82-.57 -.39-.34-.72-.72-1.04-1.11 -.22-.28-.4-.59-.56-.9 -.46-.95-.7-2-.75-3.04 -.02-.41-.02-.82.02-1.22 .03-.41.09-.82.18-1.21Zm18.88 0c.09.41.15.82.19 1.24 .03.34.03.69.02 1.04 -.01.32-.05.64-.09.96 -.03.15-.05.3-.09.45 -.06.28-.14.56-.23.83 -.21.62-.49 1.22-.88 1.75 -.17.2-.34.4-.52.6 -.08.08-.17.17-.25.25 -.42.42-.91.77-1.45 1.01 -.36.16-.74.27-1.11.36 -.2.04-.4.06-.59.14 -.16.06-.31.14-.43.25 -.21.17-.38.38-.5.62 -.14.27-.24.56-.3.86 -.02.07-.05.15-.03.23 .09.04.2.08.3.12 .39.14.8.22 1.21.25 .34.01.68-.01 1.01-.07 .31-.06.62-.16.93-.27 .32-.14.64-.3.94-.49 .67-.42 1.23-.99 1.66-1.65 .44-.67.75-1.42.96-2.2 .05-.19.09-.38.13-.56 .1-.49.17-1 .16-1.5 -.01-.1-.01-.19-.01-.28 -.04-1.07-.29-2.12-.69-3.1 -.1-.24-.21-.48-.32-.71 -.05-.1-.09-.19-.15-.28Z"/></svg>