<svg viewBox="0 0 32 32" xmlns="http://www.w3.org/2000/svg"><path d="M16 4C9.38 4 4 9.38 4 16c0 5.125 3.21 9.5 7.75 11.21l.93.375 .37-.94 2.46-6.57 .34-.94 -.94-.35c-1.14-.43-1.94-1.52-1.94-2.82 0-1.67 1.33-3 3-3 1.66 0 3 1.33 3 3 0 1.29-.81 2.38-1.94 2.81l-.94.34 .34.93 2.46 6.56 .375.93 .93-.375c4.53-1.72 7.75-6.1 7.75-11.22 0-6.62-5.39-12-12-12Zm0 2c5.53 0 10 4.46 10 10 0 3.92-2.32 7.2-5.6 8.84l-1.82-4.79c1.38-.9 2.4-2.31 2.4-4.07 0-2.75-2.25-5-5-5s-5 2.25-5 5c0 1.75 1.02 3.17 2.4 4.06l-1.82 4.78c-3.28-1.65-5.6-4.93-5.6-8.85 0-5.54 4.46-10 10-10Z"/></svg>