<svg viewBox="0 0 32 32" xmlns="http://www.w3.org/2000/svg"><path d="M15.59 2.96c-.54.01-1.08.07-1.625.15h-.04c-5.33.87-9.64 5.06-10.72 10.375 -.33 1.51-.31 2.92-.1 4.31 0 0 0 .02 0 .03 .32 2.34 3.375 3.375 5.09 1.65 1.23-1.24 3.05-1.24 4.28 0 1.23 1.23 1.23 3.05 0 4.28 -1.72 1.71-.7 4.76 1.65 5.09 0 0 .02-.01.03 0 1.37.21 2.78.22 4.28-.1 .01 0 .01 0 .03 0 5.32-1 9.5-5.41 10.375-10.72v-.04c1.13-7.65-4.46-14.32-11.72-15 -.52-.06-1.04-.08-1.57-.07Zm.03 2c.45-.02.9-.01 1.34.03 6.19.56 10.9 6.21 9.93 12.75 -.74 4.47-4.33 8.24-8.79 9.06h-.04c-1.28.27-2.46.27-3.66.09 -.83-.11-1.2-1.02-.54-1.69 1.96-1.97 1.96-5.16 0-7.125 -1.97-1.97-5.16-1.97-7.13 0 -.67.66-1.59.28-1.69-.54 -.19-1.2-.18-2.38.09-3.66 .91-4.49 4.58-8.09 9.06-8.82 .46-.08.92-.11 1.375-.13Zm-1.625 2.03c-1.11 0-2 .89-2 2 0 1.1.89 2 2 2 1.1 0 2-.9 2-2 0-1.11-.9-2-2-2Zm7 2c-1.11 0-2 .89-2 2 0 1.1.89 2 2 2 1.1 0 2-.9 2-2 0-1.11-.9-2-2-2Zm-12 2c-1.11 0-2 .89-2 2 0 1.1.89 2 2 2 1.1 0 2-.9 2-2 0-1.11-.9-2-2-2Zm14 5c-1.11 0-2 .89-2 2 0 1.1.89 2 2 2 1.1 0 2-.9 2-2 0-1.11-.9-2-2-2Zm-4 5c-1.11 0-2 .89-2 2 0 1.1.89 2 2 2 1.1 0 2-.9 2-2 0-1.11-.9-2-2-2Z"/></svg>