<svg viewBox="0 0 32 32" xmlns="http://www.w3.org/2000/svg"><path d="M28 16c0-6.62-5.39-12-12-12C9.38 4 4 9.38 4 16v.45l8 7v4.54h8v-4.55l8-7ZM16 6.36c.86.94 2.42 3.17 2.87 7.29 -.73-.38-1.67-.66-2.88-.66s-2.15.28-2.88.65c.44-4.13 2-6.36 2.87-7.3Zm-4.92 10.03l2.39 5.6h-.11l-7.04-6.17c.38-.4 1.05-.84 2.16-.84 1.9 0 2.55 1.35 2.58 1.39Zm4.57 5.6l-2.52-5.875c.38-.44 1.23-1.125 2.85-1.125 1.625 0 2.48.69 2.85 1.12l-2.52 5.87Zm2.85 0l2.39-5.61c.01-.02.64-1.4 2.58-1.4 1.1 0 1.77.45 2.16.84l-7.04 6.15Zm7.14-8.56c-.59-.27-1.3-.45-2.17-.45 -1.11 0-1.97.29-2.63.68 -.35-3.48-1.42-5.86-2.41-7.37 3.5.89 6.26 3.63 7.18 7.12ZM13.49 6.3c-.99 1.5-2.06 3.88-2.4 7.35 -.66-.4-1.52-.69-2.63-.69 -.87 0-1.58.17-2.17.44 .92-3.49 3.68-6.23 7.17-7.13Zm4.48 19.67h-4v-2h4Z"/></svg>