<svg viewBox="0 0 32 32" xmlns="http://www.w3.org/2000/svg"><path d="M22 3.58L17.47 8.1l-6.75 1.92c-1.33.35-2.37 1.34-2.81 2.65L3.83 25.25l1.43 1.43 1.43 1.43 12.59-4.09c1.29-.44 2.28-1.48 2.64-2.79l1.92-6.75 4.52-4.53 -6.42-6.42Zm0 2.82l3.58 3.58 -2.59 2.58 -3.59-3.59 2.58-2.59Zm-4.29 3.71l4.16 4.16 -1.85 6.44c-.19.67-.69 1.2-1.34 1.42L7.67 25.69l5.79-5.8v0c.16.04.34.06.51.07v0c1.1 0 2-.9 2-2 0-1.11-.9-2-2-2v0c-1.11 0-2 .89-2 2 0 .17.02.34.06.51l-5.8 5.79 3.56-11c.22-.67.75-1.17 1.43-1.35l6.43-1.84Z"/></svg>