<svg viewBox="0 0 32 32" xmlns="http://www.w3.org/2000/svg"><path d="M28 5V3c-1.99 0-3.54.55-4.61 1.64 -.62.62-.95 1.32-1.15 1.92 -.51-.36-1.1-.58-1.76-.58 -2.53 0-3.48 2-3.5 3.37 0 .21-.01.44-.03.68 -.68 1.98-1.98.67-1.98-2.07 -3.23 3.42.25 4.68-1.74 6.66 -.43.42-1.43.58-2.06-.19 -.84-.99.85-2.62-.75-3.83 .29 1.82-1.12 1.44-1.6 1.05 -.63-.51-1.75-1.63.12-4.71 -1.92.875-3.08 2.65-3 4 .19 3.53 5.66 6.6 3.45 8.66 -1.12 1.04-3.31-.37-2.46-2.67 -1.06.53-2.29 1.8-1.9 3.78 .27 1.37 2.26 4.46-1.11 6.21 0 0 .01 0 .04.01l-.09 1.98c.06 0 .33.01.76.01 2.81 0 12.54-.44 18.53-6.18 3.14-3.01 4.73-7 4.73-11.84 0-1.39-.63-4-3-4 -.3 0-.57.03-.83.1 .11-.34.3-.72.64-1.07 .67-.69 1.74-1.04 3.17-1.04Zm-3 4c.94 0 1 1.98 1 2 0 4.27-1.39 7.77-4.12 10.39 -4.43 4.24-11.4 5.29-15.19 5.54 .92-.22 2.03-.65 3.24-1.47 5.85-3.21 8.92-10.77 9.04-15.81h0v-.28c0-.24.09-1.4 1.5-1.4 .85 0 1.5 1.21 1.5 2h2c0-.43.1-1 1-1Z"/></svg>