<svg viewBox="0 0 32 32" xmlns="http://www.w3.org/2000/svg"><path d="M9.5 6C7.57 6 6 7.57 6 9.5v3C6 14.42 7.57 16 9.5 16c1.92 0 3.5-1.58 3.5-3.5v-3C13 7.57 11.42 6 9.5 6Zm11.25 0l-12 20h2.5l12-20ZM9.5 8c.83 0 1.5.66 1.5 1.5v3c0 .83-.67 1.5-1.5 1.5 -.84 0-1.5-.67-1.5-1.5v-3C8 8.66 8.66 8 9.5 8Zm13 8c-1.93 0-3.5 1.57-3.5 3.5v3c0 1.92 1.57 3.5 3.5 3.5 1.92 0 3.5-1.58 3.5-3.5v-3c0-1.93-1.58-3.5-3.5-3.5Zm0 2c.83 0 1.5.66 1.5 1.5v3c0 .83-.67 1.5-1.5 1.5 -.84 0-1.5-.67-1.5-1.5v-3c0-.84.66-1.5 1.5-1.5Z"/></svg>