<svg viewBox="0 0 32 32" xmlns="http://www.w3.org/2000/svg"><path d="M7.5 4C5.57 4 4 5.57 4 7.5 4 9.42 5.57 11 7.5 11 9.42 11 11 9.42 11 7.5 11 5.57 9.42 4 7.5 4ZM12 4v7.84c.23.28.44.58.61.92l.95 1.91 .43.32V5.98h1.13l1.84 12.94 -.96 3.81 -.03.74c0 1.37 1.12 2.5 2.5 2.5 .64 0 1.21-.25 1.66-.65 .51.39 1.14.64 1.83.64 .77 0 1.46-.31 2-.78 .532.48 1.22.77 2 .77 .35 0 .68-.08 1-.19v2.18h2v-24h-1 -1 -13 -1 -1ZM7.5 6C8.34 6 9 6.66 9 7.5 9 8.34 8.34 9 7.5 9 6.66 9 6 8.34 6 7.5 6 6.66 6.66 6 7.5 6Zm9.65 0h9.84v17c0 .55-.45 1-1 1 -.56 0-1-.45-1-1h-2c0 .55-.45 1-1 1 -.56 0-1-.45-1-1h-2v.5c0 .27-.23.5-.5.5 -.28 0-.5-.23-.5-.5v-.38L19 19.04 17.13 5.98ZM6.99 12c-2.207 0-4 1.79-4 4v5.25l2 1V28h2v-7l-2-1v-4c0-1.11.89-2 2-2h1.15c.76 0 1.44.4 1.78 1.09l1.28 2.56 2.64 1.97 1.13-1.63 -2.22-1.66 -1.07-2.13c-.69-1.37-2.04-2.22-3.57-2.22H6.95Zm5 8.48v7.51h2v-6.03l-.73-.55 -1.28-.95Zm-4 .51v7h2v-7h-2Z"/></svg>