<svg viewBox="0 0 32 32" xmlns="http://www.w3.org/2000/svg"><path d="M15.94 5c-2.76.01-5.51 1.08-7.6 3.22 -2.88 2.92-1.57 1.59-5.41 5.45 -1.26 1.27-1.26 3.36-.001 4.64 3.94 3.97 2.61 2.63 5.49 5.55l0-.01c4.23 4.19 11.03 4.17 15.23-.1 2.87-2.92 1.57-1.6 5.37-5.47 1.25-1.28 1.25-3.37 0-4.64l-5.48-5.56 -.01 0c-2.12-2.1-4.88-3.15-7.63-3.13ZM16 7.01c2.3 0 4.6.87 6.35 2.63 3.5 3.5 3.51 9.19 0 12.71 -3.52 3.5-9.2 3.5-12.72-.01 -3.52-3.51-3.52-9.2 0-12.71 1.75-1.76 4.05-2.64 6.35-2.64Zm1.63 2.98c-.09-.04-1.3 1.31-1.3 1.31l-.82-.02s-1.28-1.34-1.37-1.3l-1.25.51c-.09.03.01 1.8.01 1.8l-.57.56s-1.83-.06-1.86.02l-.51 1.23c-.04.08 1.31 1.31 1.31 1.31l0 .8s-1.36 1.23-1.32 1.32l.59 1.24c.03.08 1.83.03 1.83.03l.58.58s-.02 1.98.07 2.01l1.25.51c.08.03 1.29-1.47 1.29-1.47l.81.01s1.27 1.48 1.35 1.45l1.24-.47c.08-.04-.02-2.01-.02-2.01l.56-.57s1.82.05 1.85-.04l.5-1.24c.04-.07-1.31-1.29-1.31-1.29l-.01-.82s1.35-1.24 1.31-1.33l-.6-1.25c-.04-.09-1.84-.04-1.84-.04l-.59-.59s.01-1.78-.08-1.82l-1.26-.58Zm-1.82 3.87c1.14-.06 2.12.82 2.17 1.95 .04 1.13-.85 2.09-2 2.14 -1.15.05-2.13-.83-2.18-1.96 -.05-1.14.84-2.1 1.99-2.14Z"/></svg>