<svg viewBox="0 0 32 32" xmlns="http://www.w3.org/2000/svg"><path d="M16.11 4.1c-2.97-.08-5.95.92-8.29 2.74 -2.776 2.13-4.64 5.46-4.84 8.98v1.57c.1 1.63.53 3.22 1.27 4.67 1.04 2.04 2.64 3.76 4.6 4.96 3.69 2.31 8.54 2.56 12.48.74 2.47-1.13 4.58-3.06 5.9-5.44 .84-1.52 1.34-3.2 1.49-4.93 .02-.65.02-1.29 0-1.93 -.17-1.91-.72-3.8-1.76-5.41 .74 1.64.95 3.47.67 5.26 -.27 1.51-.96 2.93-1.99 4.08 .1-.55.29-1.08.39-1.64 .12-.72.18-1.45.08-2.17 -.1-1.064-.22-2.43-.62-3.41 0 .37-.03.75 0 1.13 .06 1.71-.59 3.8-1.61 5.18 -.99 1.35-2.43 2.43-4.08 2.81 -.73.14-1.54.14-2.19-.26 -.62-.37-.96-1.08-1.06-1.76 -.14-1.1.12-2.22.59-3.21 .58-1.23 1.48-2.28 2.61-3.03 .23-.17.5-.28.68-.52 .63-.79 1.28-1.58 2.01-2.28 .73-.75 1.44-1.42 2.21-2.03 -1.47-.05-2.68.55-3.97 1.16 -1.59.77-3.09 1.71-4.48 2.78 -.89.68-1.38 1.35-2.4 1.84 -.59.29-1.26.36-1.91.27 1 .38 2.11.27 3.12-.04 .625-.2.87-.36 1.45-.67 .09-.08.2-.04.31-.02 -.01.21.06.48-.14.64 -.47.48-1.04.87-1.62 1.22 -.69.38-1.42.69-2.2.82 -.65.12-1.33 0-1.89-.34 -.74-.47-1.02-1.39-1-2.22 .05-1.23.54-2.39 1.24-3.39 1.05-1.49 2.61-2.6 4.34-3.16 .69-.26 1.43-.35 2.16-.49 -.99-.12-2-.21-2.99-.1 -1 .07-1.97.35-2.89.74 -.27.11-.52.24-.81.29 1.45-1.62 3.47-2.72 5.63-2.98 1.22-.2 1.98-.26 3.2-.02 -1.4-.51-2.4-.66-3.89-.64Zm4.22 6c-.06.266-.27.47-.53.56 -.26.1-.53.17-.81.22 .42-.3.87-.54 1.32-.8Z"/></svg>