<svg viewBox="0 0 32 32" xmlns="http://www.w3.org/2000/svg"><path d="M22.625 3.03c-.33.03-.65.11-.97.25v-.04c-.02 0-.05.02-.07.03 -2.44.85-7.1 3-11.32 7.21 -4.25 4.25-6.31 8.99-7.22 11.34v.03c-.41 1.21-.12 2.53.68 3.46l.03.03v.03l3 2.96 .125.125c.82.82 2.26.82 3.09 0l4.09-4.1c.82-.83.82-2.3 0-3.125l-1.97-1.97c.34-.72 1.23-2.48 2.81-4.13 1.56-1.65 3.36-2.48 4.06-2.79l2.06 2.06 .09.06c.46.31 1 .48 1.56.46 .52-.02 1.06-.28 1.46-.72l.03.03 .06-.1 4.03-4c.82-.83.82-2.3 0-3.13l-3.1-3.1c-.44-.44-1.03-.77-1.66-.91 -.31-.07-.62-.1-.94-.07Zm.15 2c.37-.03.75.13 1 .375l3.125 3.09c.17.17.17.1 0 .28l-4.19 4.18c0-.01 0 .02-.1.03 -.08 0-.2-.07-.32-.13h-.07l-2.35-2.38 -.47-.47 -.6.21s-3.08 1.14-5.375 3.56c-2.27 2.36-3.5 5.28-3.5 5.28l-.25.625 .46.5 2.5 2.5c.17.17.17.1 0 .28l-4.1 4.09c-.18.17-.11.17-.29 0l-3.07-3.04c-.01-.01 0-.03 0-.04l-.04-.04c-.35-.44-.46-.9-.29-1.44 0-.02-.01-.02 0-.04 .88-2.26 2.83-6.69 6.78-10.63 3.95-3.96 8.44-6 10.62-6.75l.03-.04h.03c.12-.06.25-.09.375-.1Z"/></svg>