<svg viewBox="0 0 32 32" xmlns="http://www.w3.org/2000/svg"><path d="M19 0v2c6.06 0 11 4.93 11 11h2c0-7.168-5.84-13-13-13ZM8.65 3c-.53 0-1.05.17-1.48.51l-.05.03 -3.15 3.24 .06-.07c-1.05.89-1.33 2.31-.89 3.5 .84 2.42 2.99 7.12 7.22 11.36 4.24 4.25 8.99 6.3 11.34 7.22l.02 0 .02 0c1.21.4 2.52.11 3.46-.69l.02-.03 3.125-3.125c.82-.83.82-2.29 0-3.12l-4.1-4.11c-.84-.84-2.29-.84-3.12 0l-1.99 1.98c-.72-.34-2.46-1.22-4.12-2.81 -1.64-1.57-2.48-3.38-2.78-4.07l2-2c.87-.88.92-2.39-.09-3.19l.09.08 -4.15-4.25 -.05-.04c-.43-.35-.96-.52-1.48-.52Zm10.34.99v2c3.85 0 7 3.14 7 7h2c0-4.97-4.04-9-9-9Zm-10.35 1c.07-.01.14.02.21.08l4.06 4.16 .04.03c-.02-.01.03.08-.09.2L9.9 12.41l.22.6s1.12 3.06 3.54 5.36c2.37 2.26 5.29 3.49 5.29 3.49l.62.26 2.97-2.98c.16-.17.12-.17.28 0l4.09 4.1c.17.17.17.11 0 .28l-3.05 3.04c-.47.39-.95.49-1.52.3 -2.27-.89-6.69-2.83-10.62-6.76 -3.96-3.96-6.01-8.45-6.77-10.63l-.01-.02 -.01-.02c-.16-.41-.05-.99.31-1.29l.03-.03 3.05-3.15c.06-.06.14-.08.21-.09Zm10.34 3v2c1.65 0 3 1.346 3 3h2c0-2.76-2.25-5-5-5Z"/></svg>