<svg viewBox="0 0 32 32" xmlns="http://www.w3.org/2000/svg"><path d="M13.46 4c-.85 0-1.61.26-2.35.59H6.98v16.4l1.18-.25 3.59-.72 .81-.16V16.7c.14.02.27.08.4.125V28.2l1.18-.25 3.59-.72 .81-.16v-3.16c.3.04.56.18.87.18 3.42 0 6.18-2.95 6.18-6.47 0-3.48-2.7-6.37-6.07-6.44 .03-.26.06-.52.06-.79 0-3.53-2.77-6.44-6.19-6.44Zm0 2c2.28 0 4.18 1.94 4.18 4.43 0 2.49-1.9 4.46-4.19 4.46 -.54 0-1.04-.12-1.5-.32L10.575 14v4.18l-1.6.34V6.55h2.37l.21-.125c.56-.31 1.19-.47 1.875-.47Zm-.85.78c-.56 0-1.08.17-1.54.43l-.5.28v5.81l.5.28c.45.26.97.43 1.53.43 1.88 0 3.31-1.71 3.31-3.63 0-1.93-1.43-3.63-3.32-3.63Zm-.04 2c.01 0 .01 0 .03 0 .66 0 1.31.65 1.31 1.62 0 .96-.66 1.62-1.32 1.62 -.02 0-.02 0-.04 0Zm6.87 4.43c2.28 0 4.18 1.94 4.18 4.43 0 2.49-1.9 4.46-4.19 4.46 -.54 0-1.04-.12-1.5-.32l-1.38-.57v4.18l-1.6.34v-9.07c.56-.16 1.1-.39 1.59-.69v4.5l.5.28c.45.26.97.43 1.53.43 1.88 0 3.31-1.71 3.31-3.625 0-1.93-1.43-3.625-3.32-3.625 .14-.24.25-.5.375-.75 0-.01.03 0 .03 0 .14-.02.29-.04.43-.04Zm-.88 2.78c.01 0 .01 0 .03 0 .66 0 1.31.65 1.31 1.625 0 .96-.66 1.625-1.32 1.625 -.02 0-.02 0-.04 0Z"/></svg>