<svg viewBox="0 0 32 32" xmlns="http://www.w3.org/2000/svg"><path d="M5 5v22h22V5H5Zm2 2h18v18H13.51c.25-.51.47-1.03.6-1.51 .13-.52.88-2.76.88-2.76 .35.68 1.4 1.25 2.51 1.25 3.308 0 5.48-2.9 5.48-6.67 0-3.62-2.96-6.34-6.76-6.34 -4.74 0-7.25 3.17-7.25 6.63 0 1.6.85 3.6 2.22 4.24 .21.09.31.05.36-.15 .03-.16.22-.9.3-1.25 .02-.12.01-.21-.08-.32 -.46-.56-.82-1.56-.82-2.5 0-2.42 1.83-4.76 4.95-4.76 2.692 0 4.58 1.83 4.58 4.46 0 2.96-1.3 4.87-3.25 4.87 -1.08 0-2.09-.75-1.83-1.84 .3-1.31.9-2.72.9-3.66 0-2.37-3.37-2.04-3.37 1.11 0 .96.32 1.62.32 1.62 -1.07 4.73-1.37 5.77-1.28 7.49H6.92v-18Z"/></svg>