<svg viewBox="0 0 32 32" xmlns="http://www.w3.org/2000/svg"><path d="M17 6c-2.84 0-6 2.61-6 6.36v.63h-1c-2.21 0-4 1.79-4 4 0 .4.06.81.18 1.19 -1.85.56-3.19 2.27-3.19 4.3 0 2.48 2.019 4.5 4.5 4.5h17c2.48 0 4.5-2.02 4.5-4.5 0-2.03-1.35-3.75-3.19-4.31 .12-.39.18-.79.18-1.2 0-2.21-1.8-4-4-4h-1.07c-.26-1.78-1.2-2.47-1.91-3 -.75-.56-1.25-.93-1.04-2.9l.11-1.11h-1.12Zm-1.05 2.18c.07 1.904.89 2.69 1.88 3.42 .7.52 1.16.86 1.16 2.39v1h3c1.1 0 2 .89 2 2 0 .48-.19.95-.53 1.32l-1.52 1.67h2.53c1.37 0 2.5 1.12 2.5 2.5 0 1.37-1.13 2.5-2.5 2.5h-17c-1.38 0-2.5-1.13-2.5-2.5 0-1.38 1.12-2.5 2.5-2.5H10L8.48 18.3c-.34-.38-.53-.85-.53-1.33 0-1.11.89-2 2-2h3v-2.64c0-2.01 1.42-3.64 2.95-4.18Zm-3.96 8.81v0c-.56 0-1 .44-1 1 0 .55.44 1 1 1v0c.55 0 1-.45 1-1 0-.56-.45-1-1-1Zm8 0v0c-.56 0-1 .44-1 1 0 .55.44 1 1 1v0c.55 0 1-.45 1-1 0-.56-.45-1-1-1Zm-6 3c0 1.1.89 2 2 2 1.1 0 2-.9 2-2h-4Z"/></svg>