<svg viewBox="0 0 32 32" xmlns="http://www.w3.org/2000/svg"><path d="M15 3c-1.65 0-3 1.35-3 3l.01-.17 -.99 5.91 -1.9 5.17c-.04.04-.08.08-.15.08h-1v-1h-5v13h5v-3h3.92c1.64 0 3.125-.8 4.07-2.04 .94 1.23 2.42 2.03 4.07 2.03h3.92v3h5v-13h-5v1h-1c-.07 0-.11-.04-.15-.09l-1.9-5.18 -.99-5.92 .01.16c0-1.65-1.36-3-3-3 -.34 0-.69.06-1 .22 -.32-.17-.67-.23-1-.23Zm-.04 2.01c.01.14.03.47.03.98v15.43c-.28 1.48-1.56 2.56-3.08 2.56H7.98v-5h1c.78 0 1.51-.43 1.9-1.11l.03-.08 2.02-5.57 1.03-6.18v-.09c0-.56.42-.97.96-.99Zm2.07 0c.54.01.96.43.96.98v.08l1.03 6.17 2.02 5.56 .03.07c.38.68 1.11 1.1 1.9 1.1h1v5h-3.93c-1.52 0-2.8-1.08-3.08-2.57V5.96c0-.52.01-.84.03-.99ZM4.99 17.99h1v9h-1Zm21 0h1v9h-1Z"/></svg>