<svg viewBox="0 0 32 32" xmlns="http://www.w3.org/2000/svg"><path d="M17.125.43l-2.75 5.56H8.99v2h6.625l1.25-2.57 2.84 7.56 3.78-5h4.5v-2h-5.5l-2.22 2.87L17.11.41ZM6.5 10.99c-1.39 0-2.5 1.11-2.5 2.5v14.5h5v-2h14v2h5v-11c0-1.65-1.36-3-3-3H13v.56c-.6-.35-1.27-.57-2-.57 -.734 0-1.41.21-2 .56v-1.07c0-1.39-1.117-2.5-2.5-2.5Zm0 2c.21 0 .5.28.5.5v8.5h19v4h-1v-2H7v2H6v-12.5c0-.22.28-.5.5-.5Zm4.5 3c1.11 0 2 .88 2 2 0 1.11-.89 2-2 2 -1.12 0-2-.89-2-2 0-1.12.88-2 2-2Zm4 0h10c.55 0 1 .44 1 1v3H15v-4Z"/></svg>