<svg viewBox="0 0 32 32" xmlns="http://www.w3.org/2000/svg"><path d="M20.53 4c-.13-.01-.25-.01-.37.01L5.62 6.38c-.81.14-1.4.98-1.15 1.96L10.1 27c.34 1.14 1.96 1.29 2.55.375l1.89-4.33 12.82-12.4c.87-.9.22-2.3-.94-2.41l-5.51-.49 .75-1.8c.48-1.11-.33-1.94-1.18-2.01Zm-.17 1.15c.27-.04.4.13.27.39l-.91 2.13 -9.51-.88 10.12-1.67ZM5.95 7.57l13.32 1.21 -5.2 12.35L5.6 8.04c-.17-.28.05-.54.32-.49Zm14.51 1.32l5.92.52c.21.05.3.28.14.45L15.64 20.33l4.8-11.46Zm-13.74 3l6.84 10.58c-.375.8-1.89 4.23-1.89 4.23 -.14.21-.43.16-.51-.07L6.7 11.86Z"/></svg>