<svg viewBox="0 0 32 32" xmlns="http://www.w3.org/2000/svg"><path d="M28.4 5.2l-10.57 7.91 -.43-.58h-.01l-1.05-1.39 -1.6 1.2 .39.52 -4.55.68c-2.05.32-3.86 1.41-5.1 3.07l-2.52 3.35h1.69c-1.17 1.44-2.01 3.13-2.46 4.94l-.52 2.05h7.12c3.503 0 6.66-2.22 7.85-5.5l1.66-4.38 .35.47 1.59-1.21 -1.28-1.7 10.56-7.92 -1.2-1.6Zm-11.88 9.49l.41.54 -2.12 5.56c-.92 2.5-3.32 4.18-5.98 4.18H4.27c.51-1.75 1.45-3.34 2.74-4.62l2.37-2.39H6.96l.11-.16c.93-1.24 2.28-2.06 3.8-2.3l5.6-.85Zm6.97 5.29c-1.93 0-3.5 1.57-3.5 3.5s1.57 3.5 3.5 3.5 3.5-1.57 3.5-3.5 -1.57-3.5-3.5-3.5Zm0 2c.82 0 1.5.67 1.5 1.5 0 .82-.68 1.5-1.5 1.5 -.83 0-1.5-.68-1.5-1.5 0-.83.67-1.5 1.5-1.5Z"/></svg>