<svg viewBox="0 0 32 32" xmlns="http://www.w3.org/2000/svg"><path d="M16 4C8.75 4 4 10.04 4 15.97c0 6.63 5.38 12.02 12 12.02 6.61 0 12-5.4 12-12.03 0-5.93-4.75-11.98-12-11.98Zm0 22c-5.53 0-10-4.49-10-10.03 0-4.8 3.35-8.81 7.83-9.8 -3.28 1.86-4.21 4.49-4.5 6.3 -.38 2.33.62 4.83 2.5 5.14 .14.02.28.03.42.03 1.65 0 2.51-1.73 2.64-2.71 .15-1.18-.35-2.43-1.03-3.29 -.37-.47-.89-1.09-1.64-1.65l1.13-1.24c.52.34.94.92 1.14 1.37 0 0 .01-.45-.08-.79 -.13-.46-.29-.8-.375-.95 -.06-.1-.11-.17-.15-.24l2.05-2.26 2.06 2.25c-.05.06-.1.14-.15.23 -.09.15-.26.5-.375.95 -.1.34-.08.78-.08.78 .2-.45.61-1.04 1.14-1.38l1.12 1.23c-.75.55-1.28 1.17-1.64 1.64 -.68.86-1.18 2.1-1.03 3.28 .125.97.98 2.69 2.64 2.69 .13 0 .27-.02.42-.04 1.88-.32 2.875-2.82 2.5-5.15 -.29-1.82-1.22-4.45-4.49-6.31 4.48.99 7.83 5 7.83 9.79 0 5.53-4.48 10.02-10 10.02Zm-3.68-13.09c.43.55.68 1.27.61 1.79 -.04.31-.38.96-.67.96 -.03 0-.06-.01-.09-.02 -.51-.09-1.1-1.4-.87-2.86 .04-.28.1-.55.17-.81 .33.3.6.63.82.91Zm8.17-.92c.07.26.12.52.17.8 .23 1.46-.36 2.77-.87 2.85 -.04 0-.07.01-.09.01 -.29 0-.63-.65-.67-.97 -.08-.52.17-1.25.61-1.8 .22-.29.49-.61.82-.92Z"/></svg>