<svg viewBox="0 0 32 32" xmlns="http://www.w3.org/2000/svg"><path d="M16 4C9.38 4 4 9.38 4 16c0 6.61 5.38 12 12 12 6.61 0 12-5.39 12-12 0-6.62-5.39-12-12-12Zm0 2c5.53 0 10 4.46 10 10 0 5.53-4.47 10-10 10 -5.54 0-10-4.47-10-10 0-5.54 4.46-10 10-10Zm5.53 3.06l-1.91 1.87 1.43 1.43 1.87-1.91Zm-5.54 1.93c-2.75 0-5 2.25-5 5s2.25 5 5 5 5-2.25 5-5 -2.25-5-5-5Zm0 2c1.66 0 3 1.33 3 3 0 1.66-1.34 3-3 3 -1.67 0-3-1.34-3-3 0-1.67 1.33-3 3-3Zm0 2c-.56 0-1 .44-1 1 0 .55.44 1 1 1 .55 0 1-.45 1-1 0-.56-.45-1-1-1Zm-5.07 4.625l-1.88 1.9 1.4 1.4 1.9-1.88Z"/></svg>