<svg viewBox="0 0 32 32" xmlns="http://www.w3.org/2000/svg"><path d="M16.38 6c-.78 0-1.01 1.08-1.94 1.08 -.91 0-1.57-.82-2.41-.82 -.81 0-1.33.59-1.74 1.81 -1.38 4.16-1.32 3.98-1.31 4.2 0 1.33 4.87 5.7 11.4 5.7v0c1.68 0 4.1-.38 4.1-2.53 .02-.37.04-.1-1.05-5.17 -.23-1.04-.44-1.5-2.11-2.4 -1.31-.72-4.15-1.91-4.99-1.91Zm-8.12 7.03c-2.3.11-5.27.53-5.27 3.2 0 4.37 10.18 9.75 18.25 9.75 6.18 0 7.74-2.84 7.74-5.09 0-1.77-1.51-3.78-4.22-4.98 .23 1.23.21 1.61.21 1.78 0 2.1-2.16 3.27-5 3.27 -6.4.01-12.01-4.13-12.01-6.86 0-.39.12-.77.26-1.11Z"/></svg>