<svg viewBox="0 0 32 32" xmlns="http://www.w3.org/2000/svg"><path d="M5 5v22h22V5H5Zm2 2h18v18H7V7Zm10.73 10c-.87 0-1.54.25-2.01.75 -.48.49-.73 1.24-.73 2.24 0 .94.21 1.66.64 2.19 .42.53 1.08.8 2 .8 .44 0 .85-.06 1.24-.19 .39-.12.69-.29.92-.47l-.5-.96c-.14.1-.33.19-.57.28 -.25.08-.53.14-.84.14 -.5 0-.87-.12-1.09-.36 -.23-.24-.35-.61-.37-1.09h3.41c.03-.2.06-.39.08-.58 .02-.18.02-.35.02-.51 0-.44-.07-.81-.19-1.11 -.13-.29-.3-.53-.51-.7 -.22-.18-.47-.31-.74-.39 -.27-.07-.55-.11-.84-.11Zm-4.08.02c-.3 0-.56.07-.78.23 -.22.15-.4.36-.53.64h-.04l-.18-.75h-1.15v5.67h1.48v-3.67c.06-.22.17-.4.34-.54 .18-.13.4-.21.66-.21 .19 0 .4.04.64.12l.19-1.4c-.25-.08-.48-.13-.67-.13Zm8.41.08c-.28 0-.5.08-.67.23 -.17.16-.25.37-.25.63 0 .27.08.47.25.63 .17.16.38.24.66.24s.5-.09.67-.25c.17-.16.25-.37.25-.64 0-.26-.08-.48-.25-.64 -.17-.15-.39-.24-.68-.24Zm-4.38 1.07c.34 0 .58.11.73.33 .16.22.21.53.18.94h-2.11c.04-.38.15-.7.33-.93 .19-.23.46-.35.85-.35Zm4.37 3.04c-.28 0-.5.07-.67.23 -.17.15-.25.35-.25.62s.08.48.25.64c.17.16.38.23.66.23s.5-.08.67-.24c.17-.16.25-.39.25-.65 0-.27-.08-.48-.25-.63 -.17-.17-.39-.24-.68-.24Z"/></svg>