<svg viewBox="0 0 32 32" xmlns="http://www.w3.org/2000/svg"><path d="M10 7c-3.314 0-6 2.686-6 6v3h22v-3c0-3.314-2.69-6-6-6H10Zm5.01 3.14c.08 0 .17.04.23.12l.47 1 1.1.16c.19.02.28.27.12.39l-.8.78 .18 1.09c.03.2-.16.34-.34.25l-1-.52 -.99.51c-.17.09-.38-.05-.34-.26l.17-1.1 -.8-.79c-.15-.13-.07-.38.14-.4l1.09-.17 .48-1.01c.04-.09.13-.13.21-.13ZM9 10.15c.08 0 .17.04.21.12l.48.99 1.1.16c.19.02.25.27.11.39l-.8.78 .19 1.08c.03.2-.18.34-.35.25l-.98-.52 -.99.51c-.18.09-.38-.06-.35-.26l.19-1.09 -.8-.79c-.16-.13-.07-.38.12-.4l1.1-.17 .48-1c.04-.09.13-.13.21-.13Zm11.99 0c.08 0 .17.04.22.12l.48.99 1.08.16c.19.02.27.26.12.39l-.8.78 .19 1.08c.02.2-.17.34-.35.25l-.99-.51 -.99.5c-.16.08-.38-.06-.34-.26l.17-1.09 -.78-.79c-.16-.13-.08-.38.12-.4l1.09-.17 .48-1c.03-.09.12-.13.2-.13ZM3.98 17.98v1 2 3c0 .55.44 1 1 1h3c.55 0 1-.45 1-1v-3h8v3c0 .55.44 1 1 1h3c.55 0 1-.45 1-1v-3 -1h2v1.88c0 1.45.97 2.78 2.4 3.05 1.91.37 3.59-1.1 3.59-2.95v-2.3c0-.4-.32-.71-.71-.71h-.59c-.4 0-.71.31-.71.7v2.29c0 .55-.45 1-1 1 -.56 0-1-.45-1-1v-4h-4 -18Z"/></svg>