<svg viewBox="0 0 32 32" xmlns="http://www.w3.org/2000/svg"><path d="M5 5v22h22V5H5Zm2 2h18v18H7V7Zm12.16 3c-1.29 0-1.73.91-1.73 1.53v1.63c0 .83.45 1.62 1.62 1.62 1.96-.01 1.72-1.49 1.72-2.52h-1.54v.54h.9c0 .8-.38 1.34-1.1 1.34 -.57 0-.9-.5-.9-1.17v-1.36c0-.63.59-1 .99-1 .71 0 .99.62.99.62l.54-.37s-.27-.91-1.54-.91Zm-5.59 3.08c-.91 0-2.29.08-3.59.03v.4c.78.15 1.1.07 1.1 1.2v5.53c0 1.14-.33 1.05-1.11 1.2v.41c.37-.02 1.02-.06 1.69-.06 .62 0 1.44.02 1.79.05v-.42c-1.01-.14-1.31-.03-1.31-1.21v-2.34c.34.02.63.02 1.08.02 .85 1.53 1.67 2.67 2.13 3.22 .84 1.01 2.18.86 2.51.71v-.38c-.51-.01-1.01-.35-1.38-.75 -.62-.67-1.45-1.75-2.125-2.97 1.13-.28 1.97-1.35 1.97-2.41 0-1.59-1.23-2.32-2.82-2.32Zm-.27.63c1.18 0 1.88.61 1.88 1.74 -.01 1.1-.76 1.84-2.02 1.84 -.47 0-.68-.02-1.01-.04v-3.53c.32-.04.75-.04 1.13-.04Z"/></svg>