<svg viewBox="0 0 32 32" xmlns="http://www.w3.org/2000/svg"><path d="M16 4c-1.11 0-3.61 0-4.5 1.5v.09c-.11.19-1.69 3.69-2.19 5 -.61 1.6.1 3.51 1 4.71 .69 1.1 9.38 11.88 9.68 12.28l.59.81 5-4.1 -.5-.82c-1.11-1.4-3.01-3.7-4.91-6.1 1.39-1.7 1.625-2 1.625-2.1 .89-1.2 1.6-3.12 1-4.72 -.5-1.31-2.12-4.81-2.22-5v-.1c0-.11-.1-.09-.1-.19 -1.2-1.31-3.5-1.32-4.5-1.32Zm0 2c1.8 0 2.48.3 2.68.5 0 .19 0 .51-.1.81v.18c0 .19-.09.38-.19.68 -.61-.2-1.31-.19-2.41-.19 -1.11 0-1.81-.01-2.41.09 -.11-.2-.09-.49-.19-.69v-.22c-.11-.4-.1-.59-.1-.79 .19-.11.88-.41 2.68-.41Zm-4.1 3.5c.19.6.5 1.3 1 2 .8 1.19 7.69 9.69 10 12.5l-1.91 1.59c-2.9-3.5-8.6-10.61-9.1-11.41 -.61-.81-1.12-2.08-.82-2.88 .1-.4.41-1.12.81-1.82Zm8.18 0c.3.69.61 1.41.81 1.81 .3.8-.22 2.07-.82 2.87 -.11.1-.39.52-1.29 1.62 -.5-.7-1.125-1.31-1.625-1.91 1.5-1.9 1.8-2.31 1.9-2.41 .39-.7.8-1.4 1-2Zm-5.69.5h3.18c-.11.1-.09.2-.19.4 0 .19-.41.6-1.41 1.9 -.7-.9-1.31-1.61-1.41-1.91 -.11-.11-.09-.21-.19-.41Zm-3.5 8.59c-2.11 2.6-4 4.9-4 4.9l-.6.81 5 4.09 .68-.82s1.39-1.68 3.09-3.79c-.4-.5-.89-1.125-1.29-1.625 -1.2 1.39-2.22 2.6-2.82 3.4l-1.91-1.6c.69-.81 1.79-2.22 3.09-3.82 -.5-.61-.89-1.1-1.29-1.6Z"/></svg>