<svg viewBox="0 0 32 32" xmlns="http://www.w3.org/2000/svg"><path d="M26 7l-.31-.31c-1.7-1.9-4.2-2.5-4.2-2.5 -3-.9-7.7 1.1-11.9 5.19 -3.5 3.3-5.61 7.3-5.61 10.3 0 .4.1.8.1 1.19 .19 2 1.5 4.1 2.59 5.1 1.4 1.39 3.19 2.1 5.19 2.1 3.3 0 7.2-1.91 10.8-5.31 5.6-5.5 7-12 3.3-15.81ZM10 21.69c0-1.31 1.39-4 4.39-7 2.9-2.9 5.9-3.7 7.3-4 -.7 1.9-2.2 4.19-4.4 6.4 -2.11 2-4.5 3.59-6.61 4.39 -.2.1-.5.1-.7.19Zm1-10.9c3.3-3.31 6.8-4.91 9-4.91 .69 0 1.3.2 1.69.6 .4.39.6 1.19.5 2.1 -1.2.09-5.31.79-9.2 4.69 -2.5 2.5-5.11 6.09-4.9 8.59 -.61 0-1.21-.2-1.5-.5 -.21-.2-.41-.5-.5-.9 0 0-.11-.5-.11-.81 .1-2.5 2-6 5-8.9Zm10.3 10.5c-4.81 4.8-10.31 6.09-13.2 3.3 -.21-.21-.41-.41-.61-.71 .19.1.5.1.8.1 .89 0 2-.2 3.09-.61 2.4-.9 5-2.6 7.3-4.9 3.5-3.5 5.5-7.5 5.5-10.4l.1.09 .3.19c2.79 2.9 1.39 8.3-3.31 12.9Z"/></svg>