<svg viewBox="0 0 32 32" xmlns="http://www.w3.org/2000/svg"><path d="M16 3C8.83 3 3 8.83 3 16c0 7.16 5.83 13 13 13 7.16 0 13-5.84 13-13 0-7.17-5.84-13-13-13Zm0 2c6.06 0 11 4.93 11 11 0 3.4-1.56 6.45-4 8.47v-8.48c0-.56-.45-1-1-1 -.56 0-1 .44-1 1v9.78c-1.51.77-3.2 1.21-5 1.21 -1.81 0-3.5-.45-5-1.22v-9.79c0-.56-.45-1-1-1 -.56 0-1 .44-1 1v8.47c-2.45-2.02-4-5.07-4-8.48 0-6.07 4.93-11 11-11Zm-4 5c-1.24 0-2.19.68-2.82 1.27 -.64.59-1.03 1.16-1.03 1.16l1.67 1.12c-.01 0 .24-.43.68-.84 .44-.41 1.02-.73 1.47-.73h3v-2h-3Zm5 0v2h3c.45 0 1.03.31 1.47.72 .44.41.68.83.68.83l1.67-1.13s-.39-.58-1.03-1.17c-.63-.59-1.58-1.28-2.82-1.28h-3Zm-1 6c-1.654 0-3 1.57-3 3.5s1.346 3.5 3 3.5c1.65 0 3-1.57 3-3.5s-1.35-3.5-3-3.5Zm0 2c.532 0 1 .7 1 1.5 0 .79-.47 1.5-1 1.5 -.532 0-1-.71-1-1.5 0-.8.46-1.5 1-1.5Z"/></svg>