<svg viewBox="0 0 32 32" xmlns="http://www.w3.org/2000/svg"><path d="M10 6c-3.86 0-7 3.14-7 7 0 .42.07.81.14 1.2 -.68 1-1.15 2.17-1.15 3.48 0 3.44 2.79 6.24 6.22 6.29 1.25 1.19 2.9 2.01 4.77 2.01 1.92 0 3.59-.86 4.86-2.12 .05 0 .06 0 .13 0 1.59 0 2.89-.88 3.78-2.06 .39.07.78.16 1.21.16 3.85 0 7-3.15 7-7 0-3.86-3.15-7-7-7 -.7 0-1.34.17-1.97.36 -1.15-.83-2.52-1.37-4.04-1.37 -.95 0-1.8.31-2.63.65 -1.21-.99-2.7-1.66-4.38-1.66Zm0 2c1.36 0 2.58.53 3.48 1.42l.52.5 .64-.35c.69-.38 1.49-.59 2.34-.59 1.22 0 2.33.43 3.2 1.16l.45.37 .55-.22c.56-.22 1.16-.34 1.78-.34 2.77 0 5 2.22 5 5 0 2.77-2.23 5-5 5 -.45 0-.875-.07-1.3-.18l-.78-.22 -.37.71c-.49.93-1.44 1.56-2.56 1.56 -.01 0-.11-.02-.31-.04l-.53-.06 -.35.4c-.92 1.08-2.29 1.78-3.83 1.78 -1.5 0-2.82-.66-3.74-1.69l-.32-.36 -.48.02c-.22 0-.27.01-.17.01 -2.4 0-4.32-1.92-4.32-4.32 0-1.01.35-1.93.95-2.67l.3-.38 -.12-.48c-.09-.39-.15-.78-.15-1.17 0-2.78 2.22-5 5-5Zm1.26 5c-.02 0-.04.01-.04.03v2.91c0 .02.01.04.03.04h.33c.02 0 .03-.02.03-.05v-2.92c0-.02-.02-.04-.04-.04Zm5.93 0c-.25 0-.43.06-.57.2 -.14.13-.23.35-.28.625l-.03.17H16s-.04.01-.05.05l-.06.27c-.01.02 0 .04.04.04h.29l-.3 1.63c-.03.13-.06.24-.09.32 -.03.08-.06.14-.09.18 -.04.04-.07.07-.13.09 -.05.01-.1.02-.16.02 -.04 0-.08-.01-.11-.02 -.04-.01-.05-.02-.08-.03 0 0-.04-.02-.05.02 -.02.02-.09.24-.1.26 -.01.02 0 .04.01.05 .03.01.07.02.12.03 .07.01.13.01.18.01 .125 0 .23-.02.32-.06 .09-.04.17-.09.24-.17 .07-.09.12-.18.17-.3 .04-.13.08-.28.11-.45l.29-1.67h.43s.03 0 .04-.05l.04-.28c0-.03-.01-.06-.05-.06h-.43c0-.01.03-.27.08-.41 .01-.06.05-.11.08-.15 .03-.04.07-.06.11-.08 .04-.02.08-.02.14-.02 .03 0 .07 0 .1.01 .03 0 .05.01.06.01 .04.01.04 0 .05-.02l.09-.28c.01-.04-.02-.05-.02-.05 -.05-.02-.09-.03-.14-.04 -.06-.02-.12-.02-.18-.02Zm-9.18 1c-.44 0-.74.24-.74.58v0c0 .35.33.48.64.56l.05.01c.22.06.42.11.42.26v0c0 .13-.13.23-.34.23 -.08 0-.34 0-.61-.17 -.04-.02-.06-.03-.08-.05 -.02-.01-.05-.02-.07.01l-.1.23c-.02.03 0 .04 0 .05 .04.02.08.04.13.07 .23.11.45.14.68.14 .47 0 .76-.24.76-.61v-.01c0-.35-.34-.48-.65-.57l-.04-.02c-.24-.08-.44-.13-.44-.27v-.02c0-.13.11-.21.3-.21 .2 0 .44.05.59.14 0 0 .04.02.06-.02 .01-.03.08-.22.09-.24 0-.03-.01-.04-.03-.05 -.18-.11-.43-.17-.68-.17Zm1.96 0c-.11 0-.26.01-.36.03 0 0-.3.05-.42.14 0 0-.03.01-.01.04l.09.23c.01.03.04.01.04.01s0-.01.01-.01c.25-.14.58-.125.58-.125 .14 0 .25.02.33.07 .07.05.1.13.1.29v.05c-.12-.02-.22-.03-.22-.03 -.06-.01-.125-.01-.22-.01 -.12 0-.23.01-.33.03 -.11.02-.2.06-.28.12 -.09.05-.15.12-.2.2 -.06.08-.08.17-.08.28 0 .1.01.2.05.28 .04.07.1.14.17.19 .07.04.16.08.26.1 .1.01.22.03.35.03 .13 0 .27-.02.4-.04s.28-.06.33-.07c.04-.01.08-.02.08-.02 .03-.01.03-.04.03-.04v-1.13c0-.25-.08-.44-.22-.55 -.15-.12-.35-.18-.62-.18Zm3 0c-.17 0-.32.02-.44.07 -.13.05-.23.12-.31.21 -.09.08-.15.19-.19.32 -.04.12-.06.25-.06.39s.02.27.06.39c.03.12.1.22.19.31 .08.08.19.16.33.2 .13.05.29.07.48.07 .38-.01.58-.09.67-.13 .01-.01.02-.02.01-.06l-.09-.23c-.02-.04-.06-.03-.06-.03 -.1.03-.24.09-.55.09 -.21 0-.36-.06-.46-.15 -.11-.09-.15-.23-.16-.42h1.33s.03 0 .03-.04c0-.02.04-.26-.04-.54 -.04-.12-.12-.24-.18-.29 -.09-.09-.17-.15-.25-.18 -.11-.05-.25-.08-.39-.08Zm1.9 0c-.43 0-.74.24-.74.58v0c0 .35.33.48.64.56l.05.01c.22.06.42.11.42.26v0c0 .13-.13.23-.34.23 -.08 0-.34 0-.61-.17 -.04-.02-.06-.03-.08-.05 -.01-.01-.05-.02-.07.01l-.09.23c-.02.03 0 .04 0 .05 .04.02.08.04.13.07 .23.11.45.14.68.14 .46 0 .76-.24.76-.61v-.01c0-.35-.34-.48-.65-.57l-.05-.02c-.24-.08-.44-.13-.44-.27v-.02c0-.13.12-.21.3-.21 .2 0 .44.05.6.14 0 0 .04.02.06-.02 0-.03.08-.22.09-.24 0-.03-.01-.04-.03-.05 -.18-.11-.43-.17-.68-.17Zm3.26 0c-.17 0-.31.02-.43.07s-.22.125-.3.21c-.09.08-.15.19-.19.31 -.04.12-.06.25-.06.39s.01.27.05.39c.03.12.1.23.18.32 .07.08.17.16.3.21 .12.05.26.07.42.07 .16 0 .3-.03.42-.08 .12-.06.22-.13.3-.22 .07-.09.14-.2.17-.32 .03-.13.05-.26.05-.4s-.02-.27-.06-.4c-.04-.13-.1-.23-.18-.32 -.09-.09-.19-.17-.31-.22 -.13-.06-.27-.08-.43-.08Zm3.48 0c-.17 0-.32.02-.45.07 -.125.05-.24.125-.32.21 -.09.08-.16.19-.2.31 -.05.11-.07.25-.07.39 0 .3.08.55.26.73 .17.17.43.26.77.26 .2 0 .41-.04.55-.1 0 0 .02-.02.01-.05l-.1-.25c-.02-.04-.06-.03-.06-.03 -.06.02-.12.03-.18.04 -.07.01-.15.01-.22.01 -.2 0-.35-.06-.45-.16 -.11-.11-.18-.27-.18-.5 0-.21.05-.36.15-.49 .09-.12.24-.18.43-.18 .16 0 .28.01.41.05 0 0 .03.01.04-.03 .03-.09.06-.16.09-.25 .01-.04-.02-.05-.03-.05 -.06-.02-.18-.05-.27-.07 -.09-.02-.19-.02-.3-.02Zm1.63 0c-.17 0-.32.02-.44.07 -.125.05-.23.12-.31.21 -.09.08-.15.19-.19.32 -.04.12-.06.25-.06.39s.01.27.06.39c.03.12.1.22.19.31 .08.08.19.16.33.2 .13.05.3.07.48.07 .38-.01.58-.09.67-.13 .01-.01.03-.02.01-.06l-.09-.23c-.02-.04-.06-.03-.06-.03 -.1.03-.24.09-.55.09 -.21 0-.36-.06-.46-.15 -.1-.09-.15-.23-.16-.42h1.33s.03 0 .04-.04c0-.02.04-.26-.05-.54 -.04-.12-.12-.24-.18-.29 -.09-.09-.17-.15-.25-.18 -.11-.05-.24-.08-.39-.08Zm-2.9 0c-.18-.01-.27.01-.35.05 -.09.03-.18.09-.23.16v-.16c0-.03-.02-.04-.04-.04h-.34c-.03 0-.05.01-.05.03v1.9c0 .01.01.03.04.03h.34c.02 0 .04-.02.04-.04v-.95c0-.13.01-.26.04-.34 .02-.08.06-.15.11-.19 .05-.05.1-.08.16-.1 .05-.02.12-.03.17-.03 .07 0 .14.01.14.01 .02 0 .03-.02.04-.04 .02-.06.08-.24.09-.27 .01-.03-.01-.05-.02-.05 -.03-.01-.14-.03-.23-.04Zm-7.43.32c.17 0 .29.06.375.17 .05.07.07.17.08.28h-.96c.01-.12.05-.22.1-.29 .07-.12.2-.18.37-.18Zm10.28 0c.17 0 .28.06.37.17 .05.07.07.17.08.28h-.95c.01-.12.05-.22.1-.29 .08-.12.2-.18.38-.18Zm-5.09 0c.17 0 .3.05.38.17 .08.11.12.28.12.49 0 .21-.05.37-.13.5 -.09.11-.22.17-.39.17 -.18 0-.31-.06-.38-.18 -.09-.13-.13-.29-.13-.5 0-.22.03-.375.12-.5 .08-.12.2-.18.38-.18Zm-8.14.71c.19 0 .36.03.36.03v.56s-.18.03-.36.04c-.28.01-.4-.08-.4-.08 -.06-.04-.06-.06-.08-.08 -.03-.04-.04-.09-.04-.17 0-.11.03-.19.11-.24 0 0 .11-.1.38-.09Z"/></svg>