<svg viewBox="0 0 32 32" xmlns="http://www.w3.org/2000/svg"><path d="M15.14 5.01c-1.42-.08-3.01.14-4.56.68 -2.48.85-5.15 2.2-7.07 3.96 -2.29 2.09-2.65 3.9-2.5 4.66 .53 2.69 4.34 4.45 5.86 5.76 -.08.04-.15.07-.22.11 -.77.37-3.6 1.82-4.33 3.39 -.82 1.77.13 3.05.76 3.22 1.95.53 3.89-.4 4.97-1.97 1.07-1.58.94-3.63.45-4.56 -.01-.02-.02-.03-.02-.04 .19-.12.39-.24.59-.35 .38-.23.76-.44 1.1-.61 -.19.49-.33 1.09-.4 1.95 -.09 1 .34 2.31.89 2.82 .24.22.53.23.72.23 .64 0 .93-.53 1.25-1.15 .39-.77.75-1.65.75-1.65s-.44 2.39.76 2.39c.44 0 .88-.56 1.07-.84v0s0-.02.03-.06c.04-.07.07-.11.07-.11v-.02c.17-.3.56-.99 1.15-2.11 .75-1.46 1.48-3.28 1.48-3.28 .07.4.16.79.29 1.18 .13.43.4.91.62 1.37 -.18.23-.29.375-.29.375s0 0 0 0c-.15.18-.31.37-.47.57 -.6.69-1.32 1.49-1.41 1.72 -.12.27-.09.47.13.62 .15.11.44.13.73.11 .53-.04.91-.17 1.1-.25 .33-.12.65-.29.94-.49 .58-.43.94-1.03.91-1.83 -.02-.44-.17-.89-.35-1.3 .05-.08.1-.16.16-.23 .92-1.33 1.64-2.78 1.64-2.78 .07.4.16.79.29 1.18 .11.37.33.77.53 1.17 -.88.69-1.42 1.49-1.6 2.02 -.35.97-.08 1.41.43 1.51 .23.04.55-.06.8-.16 .36-.12.7-.29 1.01-.51 .58-.43 1.15-1.02 1.11-1.82 -.02-.37-.12-.73-.26-1.08 .73-.31 1.69-.47 2.91-.34 2.61.29 3.12 1.89 3.02 2.55 -.1.66-.65 1.03-.84 1.14 -.19.11-.24.15-.23.23 .02.11.1.11.26.08 .21-.04 1.36-.55 1.41-1.78 .07-1.56-1.46-3.28-4.17-3.26h-.01c-.95 0-1.88.21-2.72.61 -.28-.55-.57-1.03-.61-1.38 -.06-.42-.12-.67-.06-1.16 .06-.5.36-1.2.35-1.25 -.01-.05-.07-.31-.67-.31 -.61-.01-1.13.11-1.19.26 -.11.28-.2.577-.25.87 -.11.53-1.21 2.45-1.84 3.45 -.21-.39-.38-.74-.42-1.01 -.06-.42-.12-.67-.06-1.16 .06-.5.36-1.2.35-1.25 -.01-.05-.07-.31-.67-.31 -.61-.01-1.13.11-1.19.26 -.07.15-.13.52-.25.87 -.13.35-1.59 3.54-1.98 4.37 -.2.42-.37.76-.49.99 -.02.03-.04.06-.05.07 .01-.03.02-.05.02-.04 -.11.19-.17.3-.17.3v0c-.08.14-.17.28-.22.28 -.03 0-.09-.39.01-.92 .22-1.11.74-2.84.73-2.9 -.01-.04.09-.34-.35-.5 -.43-.16-.58.1-.62.1 -.04 0-.07.09-.07.09s.47-1.95-.92-1.95c-.87 0-2.07.92-2.66 1.76 -.37.19-1.18.62-2.02 1.07 -.33.17-.66.35-.97.52 -.03-.03-.05-.05-.07-.07 -1.68-1.76-4.78-2.99-4.65-5.34 .04-.86.35-3.11 5.95-5.84 4.59-2.24 8.26-1.63 8.89-.26 .9 1.94-1.97 5.57-6.74 6.09 -1.82.19-2.66-.58-2.9-.83 -.25-.27-.29-.29-.39-.24 -.16.08-.06.32 0 .46 .14.36.76.92 1.76 1.25 .87.28 2.89.51 5.46-.47 2.89-1.1 5.1-4.06 4.44-6.6 -.43-1.62-2.29-2.56-4.65-2.68ZM13.6 17.28c.07 0 .12.03.15.08 .16.27-.57 2.26-.76 2.71 -.3.72-.94 2.55-1.32 2.45 -.33-.09-.54-1.49-.07-2.86 .23-.7.73-1.52 1.02-1.84 .35-.39.73-.58.95-.57Zm9.74 2.26c.05.16.08.32.08.49 -.01 1.032-.76 1.41-1.22 1.57 -.1-.07-.09-.29.23-.95 .12-.27.4-.71.89-1.13ZM7.59 20.67c.38 1.39.01 2.62-.9 3.58 -.87.92-2.08 1.26-2.6.97 -.56-.32-.34-1.68.72-2.66 .64-.6 1.48-1.15 2.03-1.49 .12-.08.3-.19.53-.32 .03-.03.05-.04.05-.04 .04-.03.08-.06.13-.08Zm11.77.16c0 .02 0 .04 0 .07 -.01.82-.82 1.37-1.18 1.59h0v0c-.13.06-.25.1-.31.07 -.05-.03.05-.11.05-.11s.65-.69.9-1c.15-.19.32-.4.5-.64Z"/></svg>