<svg viewBox="0 0 32 32" xmlns="http://www.w3.org/2000/svg"><path d="M25.45 5l-4.26 2.26 3.14 2.67 5.65-2.375 -4.55-2.57Zm-7.67 1.23l-2.66 1.63 1.45 2.05 3.21-1.69 -2.02-2.01Zm-4.58.73l-1.86 1.28 .71 1.67 2.13-1.31 -1-1.65Zm-3.05.49L8.76 8.5l.35 1.4 1.54-1.07 -.52-1.4ZM8.48 10.2l-1.3.9 .2 1.64 1.43-.89 -.36-1.67Zm2.71.07l-1.72 1.06 .51 2.01 1.96-1.04 -.76-2.05Zm4.07.09l-2.45 1.29 1.12 2.6 2.94-1.24 -1.63-2.67Zm6.82.16l-3.91 1.66 2.56 3.64 5.14-1.53 -3.81-3.8ZM6.81 12.94l-1.21.74 .07 1.89 1.32-.7 -.2-1.94Zm2.37.62l-1.59.83 .3 2.36 1.8-.76 -.52-2.46Zm3.57.93l-2.25.96 .79 3.14 2.67-.79 -1.23-3.32Zm-7.61 1.2l-1.12.59 -.09 2.13 1.21-.52 -.03-2.22Zm13.59.36l-3.56 1.08 1.99 4.59 4.63-.66 -3.07-5.03Zm-11.56.81l-1.46.62 .09 2.71 1.64-.49 -.28-2.86Zm3.07 1.76l-2.05.62 .47 3.68 2.41-.35 -.85-3.98Zm5.14 2.97l-3.21.49 1.4 5.56 4.11.19 -2.33-6.25Z"/></svg>