<svg viewBox="0 0 32 32" xmlns="http://www.w3.org/2000/svg"><path d="M16 4L3 7v2l13-3 13 3V7Zm-6 6c-3.23 0-6.375 1.31-6.375 1.31L3 11.59v15.4h11.28c.34.59.98 1 1.71 1s1.37-.41 1.71-1h11.28V11.58l-.625-.29s-3.15-1.32-6.375-1.32c-2.92 0-5.49.98-6 1.18 -.52-.21-3.09-1.19-6-1.19Zm0 2c1.93 0 4 .625 5 .96v11.125c-1.12-.37-2.95-.875-5-.875 -2.11 0-3.82.48-5 .875V12.96c.76-.28 2.8-.97 5-.97Zm12 0c2.19 0 4.23.69 5 .96v11.125c-1.19-.4-2.9-.875-5-.875 -2.06 0-3.89.5-5 .875V12.96c1-.35 3.06-.97 5-.97Z"/></svg>