<svg viewBox="0 0 32 32" xmlns="http://www.w3.org/2000/svg"><path d="M19 3C13.48 3 9 7.48 9 13c0 2.39.83 4.58 2.25 6.31l-7.97 7.96 1.43 1.43 7.96-7.97c1.72 1.41 3.91 2.24 6.31 2.24 5.51 0 10-4.49 10-10 0-5.52-4.49-10-10-10Zm0 2c4.43 0 8 3.57 8 8s-3.57 8-8 8 -8-3.57-8-8 3.57-8 8-8Zm-1 3v1.06c-1.125.18-2 1.14-2 2.31 0 .75.41 1.44 1.09 1.77l2.9 1.46c0 .22-.16.375-.375.375h-1.25c-.23 0-.375-.16-.375-.375v-.625h-2v.625c0 1.17.875 2.12 2 2.31v1.06h2V16.9c1.125-.19 2-1.15 2-2.32 0-.76-.42-1.44-1.1-1.78l-2.91-1.47c0-.23.15-.38.375-.38h1.25c.22 0 .375.15.375.37v.62h2v-.63c0-1.18-.875-2.13-2-2.32V7.92h-2Z"/></svg>