<svg viewBox="0 0 32 32" xmlns="http://www.w3.org/2000/svg"><path d="M16 4c-2.15 0-3.89 1.71-3.97 3.84 -3.61 1.53-6.04 5.09-6.04 9.15 0 .17-.01.35 0 .56 -1.19.69-2 1.97-2 3.43 0 2.19 1.8 4 4 4 .57 0 1.12-.13 1.625-.35 1.73 1.45 3.99 2.34 6.375 2.34 2.38 0 4.64-.89 6.375-2.35 .49.22 1.05.34 1.625.34 2.19 0 4-1.81 4-4 0-1.49-.83-2.78-2.04-3.47 .01-.17.03-.33.03-.54 0-4.06-2.43-7.63-6.04-9.16 -.09-2.125-1.83-3.85-3.97-3.85Zm0 2c1.11 0 2 .88 2 2 0 1.11-.89 2-2 2 -1.12 0-2-.89-2-2 0-1.12.88-2 2-2Zm-3.54 3.84c.67 1.27 2 2.15 3.53 2.15 1.53 0 2.85-.89 3.53-2.16 2.67 1.3 4.46 4.03 4.46 7.15 -2.2 0-4 1.8-4 4 0 .89.3 1.7.81 2.375 -1.34 1.01-3.06 1.625-4.82 1.625 -1.76 0-3.48-.62-4.82-1.625 .5-.67.81-1.49.81-2.375 0-2.2-1.81-4-4-4 0-3.13 1.78-5.86 4.46-7.16Zm-4.47 9.15c1.11 0 2 .88 2 2 0 1.11-.89 2-2 2 -1.12 0-2-.89-2-2 0-1.12.88-2 2-2Zm16 0c1.11 0 2 .88 2 2 0 1.11-.89 2-2 2 -1.12 0-2-.89-2-2 0-1.12.88-2 2-2Z"/></svg>