<svg viewBox="0 0 32 32" xmlns="http://www.w3.org/2000/svg"><path d="M5 4v19.43l.59.25 9.875 4.21 .375.18 .4-.16 10.125-4.25 .625-.25V3.97Zm2 2h18v3H7Zm0 5h18v11.09l-9.16 3.81 -8.85-3.82Zm9 2c-2.77 0-5 2.23-5 5 0 2.76 2.23 5 5 5 2.76 0 5-2.24 5-5 0-2.77-2.24-5-5-5Zm.18 2.03c1.4 0 2.54.8 2.59.84l-.75 1.03c-.01-.01-.86-.625-1.85-.625 -.61 0-1.63.16-1.63.78 .22.25 1.09.24 1.46.25h.18c1.63 0 2.68.62 2.68 1.625 0 .93-.74 2.03-2.79 2.03 -1.54 0-2.83-.81-2.875-.85l.68-1.04c.01 0 1.02.625 2.18.625 .69 0 1.53-.22 1.53-.79 0-.17-.62-.38-1.44-.38h-.16c-.77-.01-1.8-.02-2.38-.6 -.25-.25-.38-.55-.38-.91 0-1.24 1.12-2.04 2.87-2.04Z"/></svg>