<svg viewBox="0 0 32 32" xmlns="http://www.w3.org/2000/svg"><path d="M5 5C3.35 5 2 6.35 2 8v17h3.15c.44 1.71 1.99 3 3.84 3 1.85 0 3.39-1.29 3.84-3h7.31c.44 1.71 1.99 3 3.84 3 1.85 0 3.39-1.29 3.84-3h3.15V14.56c0-.57-.18-1.12-.47-1.6l-4.1-6.57c-.55-.875-1.5-1.41-2.54-1.41Zm0 2h5v6H4V8c0-.57.43-1 1-1Zm7 0h6v6h-6Zm8 0h3.9c.34 0 .66.17.84.46l3.43 5.53h-8.19ZM4 15h25v2h-3v2h3v4h-1.16c-.45-1.72-2-3-3.85-3 -1.86 0-3.4 1.28-3.85 3h-7.32c-.45-1.72-2-3-3.85-3 -1.86 0-3.4 1.28-3.85 3H3.96Zm5 7c1.11 0 2 .88 2 2 0 1.11-.89 2-2 2 -1.12 0-2-.89-2-2 0-1.12.88-2 2-2Zm15 0c1.11 0 2 .88 2 2 0 1.11-.89 2-2 2 -1.12 0-2-.89-2-2 0-1.12.88-2 2-2Z"/></svg>