<svg viewBox="0 0 32 32" xmlns="http://www.w3.org/2000/svg"><path d="M4 4l3.73 6.36 -2.74-.37 3.24 4.05c-.16.62-.25 1.27-.25 1.94 0 .67.09 1.31.24 1.94l-3.25 4.05 2.73-.37 -3.74 6.36 6.36-3.74 -.37 2.73L14 23.7c.62.15 1.27.24 1.94.24 .67 0 1.31-.1 1.94-.25l4.05 3.24 -.37-2.74 6.36 3.73 -3.74-6.37 2.73.36 -3.25-4.06c.15-.63.24-1.28.24-1.95 0-.68-.1-1.32-.25-1.95l3.24-4.06 -2.74.36 3.73-6.37 -6.37 3.73 .36-2.74 -4.06 3.24c-.63-.16-1.28-.25-1.95-.25 -.68 0-1.32.09-1.95.24L9.85 4.85l.36 2.73 -6.37-3.74Zm12 6c3.3 0 6 2.69 6 6 0 3.3-2.7 6-6 6 -3.31 0-6-2.7-6-6 0-3.31 2.69-6 6-6Zm0 2v0c-2.21 0-4 1.79-4 4 0 2.2 1.79 4 4 4v0c2.2 0 4-1.8 4-4 0-2.21-1.8-4-4-4Z"/></svg>