<svg viewBox="0 0 32 32" xmlns="http://www.w3.org/2000/svg"><path d="M11 4c-3.86 0-7 3.14-7 7 0 1.03.31 1.98.71 2.87 -.13.69-.22 1.39-.22 2.12 0 6.33 5.16 11.5 11.5 11.5 .73 0 1.43-.09 2.125-.22 .88.4 1.84.71 2.875.71 3.85 0 7-3.15 7-7 0-1.04-.32-1.99-.72-2.875 .12-.7.21-1.4.21-2.125 0-6.34-5.17-11.5-11.5-11.5 -.74 0-1.44.08-2.13.21 -.89-.41-1.85-.72-2.88-.72Zm0 2c.86 0 1.66.21 2.37.59 .21.11.45.14.68.09 .62-.13 1.26-.19 1.93-.19 5.25 0 9.5 4.24 9.5 9.5 0 .66-.06 1.3-.19 1.93 -.06.23-.02.47.09.68 .38.7.59 1.51.59 2.375 0 2.77-2.23 5-5 5 -.87 0-1.67-.22-2.375-.6 -.22-.12-.46-.15-.69-.1 -.63.12-1.27.18-1.94.18 -5.26 0-9.5-4.25-9.5-9.5 0-.67.05-1.31.18-1.94 .05-.24.01-.48-.1-.69 -.39-.71-.6-1.52-.6-2.38 0-2.78 2.22-5 5-5Zm4.84 3.15c-2.48 0-5.13 1.04-5.13 3.84 0 1.34.47 2.77 3.12 3.43l3.31.81c.99.24 1.25.8 1.25 1.31 0 .83-.84 1.65-2.35 1.65 -2.96 0-2.58-2.25-4.16-2.25 -.72 0-1.22.48-1.22 1.18 0 1.36 1.67 3.15 5.37 3.15 3.51 0 5.25-1.7 5.25-3.97 0-1.47-.68-3-3.35-3.6l-2.44-.57c-.93-.22-2-.48-2-1.35 0-.875.74-1.5 2.09-1.5 2.72 0 2.49 1.87 3.84 1.87 .71 0 1.31-.41 1.31-1.13 0-1.68-2.67-2.94-4.94-2.94Z"/></svg>