<svg viewBox="0 0 32 32" xmlns="http://www.w3.org/2000/svg"><path d="M4.5 7C3.13 7 2 8.13 2 9.5v.5h2v-.5c0-.29.21-.5.5-.5 .25 0 .5.27.5.5 0 .2-.34.83-.88 1.81 -.54.98-1.13 2.33-1.13 4.18 0 2.85 2.21 5.21 5 5.46v2.03h-5v2h24c1.64 0 3-1.36 3-3 0-1.65-1.36-3-3-3v2c.56 0 1 .43 1 1 0 .56-.44 1-1 1h-5v-2.22c2.29-.67 4-2.79 4-5.29v-2.5c0-.57.43-1 1-1 .56 0 1 .43 1 1h2c0-1.65-1.36-3-3-3 -1.65 0-3 1.35-3 3 0 1.26-.45 1.55-.94 1.78 -.49.23-1 .21-1 .21h-5.07c-1.15 0-1.46-.43-1.72-.94 -.27-.52-.29-1.07-.29-1.07v-1c0-2.29-1.31-3.72-2.54-4.35 -1.23-.64-2.44-.66-2.44-.66Zm2.43 2h3.06c.02 0 .77.04 1.53.43 .77.39 1.46.96 1.46 2.56v1s0 .95.5 1.93 1.68 2.06 3.5 2.06h4.93s.06 0 .06 0c.05 0 .86.04 1.78-.35 -.48 1.36-1.76 2.34-3.29 2.34h-12c-1.93 0-3.5-1.58-3.5-3.5 0-1.45.41-2.4.875-3.25 .46-.86 1.125-1.58 1.125-2.75 0-.17-.04-.34-.07-.5Zm3.06 12h10v2h-10Z"/></svg>