<svg viewBox="0 0 32 32" xmlns="http://www.w3.org/2000/svg"><path d="M3.71 2.28L2.27 3.71l26 26 1.43-1.44 -6.29-6.29h7.56v-6H17.4Zm12.31 1.71c-.36.35-.63.78-.94 1.46 -.32.68-.59 1.54-.6 2.5 -.01.95.32 2.05 1.18 2.875 .85.82 2.17 1.35 4 1.59 1.52.19 2.5.44 3.06.78 .55.33.78.67.96 1.5l1.96-.44c-.26-1.18-.92-2.19-1.91-2.79 -1-.6-2.22-.86-3.85-1.07 -1.56-.2-2.43-.64-2.88-1.07 -.45-.43-.57-.87-.57-1.41 0-.55.17-1.16.4-1.66 .23-.51.58-.97.53-.91Zm5.53.31v2c.62 0 1.42.09 2.03.43 .6.34 1.125.85 1.25 2.31l.09.93h.9c.51 0 1.58.16 2.12.625 .26.23.43.5.5 1.03 .06.52-.04 1.32-.5 2.46l1.87.75c.55-1.36.74-2.49.62-3.47 -.12-.99-.6-1.77-1.19-2.29 -.91-.79-1.89-1-2.69-1.07 -.35-1.45-1.08-2.54-2-3.07 -1.13-.64-2.29-.69-3.04-.69ZM.98 15.98v6h16.81l-2-2H2.97v-2h10.81l-2-2Zm18.43 2h3.56v2H21.4Zm5.56 0h1v2h-1Zm3 0h1v2h-1Z"/></svg>