<svg viewBox="0 0 32 32" xmlns="http://www.w3.org/2000/svg"><path d="M15.68 4c-.59 0-1.74.09-3.04.65 -1.32.56-2.75 1.65-3.63 3.59 -.7 1.52-.49 3.43-.38 5 -.17-.04-.3-.02-.54-.125 -.24-.11-.47-.16-.69-.16 -.41 0-.76.1-1.1.31 -.34.2-.74.53-.85 1.09 -.07.35.03.87.34 1.25 .3.375.76.64 1.375.875 .14.05.25.11.375.15 .25.07.53.15.71.25 .17.09.2.16.18.12 -.01.03-.03.12-.1.25 -.02.01-.02.01-.04.03 -.03.05-1.45 3.13-4.32 3.59 -.63.09-1.1.66-1.07 1.31 .01.17.06.33.125.46 .22.51.66.83 1.25 1.09 .47.2 1.23.34 2.06.5 .01.05.01.05.03.125 .03.17.08.39.15.625 .08.29.33.62.62.78 .29.16.54.15.68.15 .3 0 .48-.06.68-.1 .32-.07.68-.125 1.15-.125 .26 0 .56.01.84.06 .39.06.82.35 1.43.78 .88.6 2.06 1.4 3.78 1.4 .01 0 .04 0 .06 0 .05 0 .11 0 .15 0 .03 0 .06 0 .09 0 1.71 0 2.89-.8 3.78-1.41 .6-.42 1.07-.72 1.46-.79 .28-.05.55-.07.81-.07 .46 0 .79.05 1.15.125 .25.04.44.09.68.09h.03c.23 0 .55-.07.81-.25 .26-.19.4-.5.46-.72 .06-.23.11-.42.15-.6 .01-.08.01-.08.03-.125 .83-.16 1.58-.3 2.06-.5 .58-.26 1.02-.59 1.25-1.1 .05-.15.11-.3.125-.47 .03-.64-.43-1.22-1.04-1.32 -.02 0-.02 0-.04 0 -1.44-.24-2.49-1.07-3.22-1.91 -.74-.84-1.1-1.67-1.1-1.66 -.01-.02-.04-.07-.04-.07 -.07-.13-.09-.22-.1-.25 -.02.04 0-.04.18-.13 .17-.1.46-.18.71-.25 .12-.04.26-.11.4-.16 .53-.21.91-.42 1.21-.72 .3-.31.5-.77.5-1.16 -.02-.83-.63-1.29-1.22-1.5 -.01 0 0-.04 0-.04 -.02-.01-.02 0-.04 0 -.25-.1-.49-.125-.75-.125 -.18 0-.45 0-.79.15 -.18.07-.28.05-.41.09 .1-1.56.32-3.45-.38-4.97 -.89-1.94-2.31-3.06-3.63-3.63 -1.33-.58-2.52-.63-3.1-.63h-.07s-.12 0-.22 0c-.06 0-.12 0-.16 0 -.03 0-.06 0-.07 0 -.01 0 .02-.01-.07 0Zm.06 2c.03 0 .06 0 .09 0s.1 0 .15 0c.1 0 .18 0 .18 0h.06c.39 0 1.31.05 2.28.46 .96.41 1.95 1.15 2.625 2.625 .3.67.32 2.65.21 4.25l-.04.06c-.02.22-.02.44-.04.65 -.02.27.08.55.28.75 .11.11.57.32 1.06.43 -.37.2-.78.47-1 1 -.25.57-.14 1.17.09 1.71 0 .03.01.06.03.09 0 0-.01.02 0 .03 0 0 0 .02 0 .03 0 .01.02.01.03.03 .07.17.49 1.1 1.4 2.15 .6.69 1.51 1.35 2.59 1.875 -.34.08-.5.16-1.04.25 -.49.07-.86.51-.97.78 -.11.24-.14.45-.19.68 -.4-.08-.83-.16-1.41-.16 -.375 0-.78.03-1.16.09 -.97.15-1.65.67-2.25 1.09 -.9.6-1.54 1.06-2.66 1.06 -.04 0-.08 0-.125 0 -.05-.01-.09-.01-.13 0 -.02 0-.06 0-.07 0 -1.13 0-1.78-.46-2.66-1.07 -.61-.42-1.29-.94-2.25-1.1 -.38-.07-.79-.1-1.16-.1 -.61 0-1.04.06-1.38.125 -.05-.2-.09-.4-.19-.625 -.12-.27-.47-.74-1-.82 -.53-.08-.67-.17-1-.25 2.63-1.28 3.85-3.74 3.96-4 0 0 0-.04 0-.04 0-.01.02-.03.03-.04 .01-.03.03-.05.06-.16l-.07-.04c.22-.54.37-1.12.12-1.69 -.24-.54-.67-.83-1.04-1.04 .46-.1.92-.24 1.09-.41 .19-.2.29-.48.28-.75 -.02-.24-.02-.47-.04-.72 -.11-1.61-.13-3.58.18-4.25 .67-1.47 1.66-2.22 2.625-2.625 .96-.42 1.88-.47 2.28-.47Z"/></svg>