<svg viewBox="0 0 32 32" xmlns="http://www.w3.org/2000/svg"><path d="M9.93 2l-.29.96L5.2 18.52v.03c-.7 2.32.35 4.82 2.53 5.9l.03.03h.03l11.93 4.96c.01.01.04.01.06.03 .69.33 1.45.5 2.18.5 1.83 0 3.59-1.01 4.46-2.75 1.22-2.47.24-5.49-2.22-6.72l-.07-.04h-.04l-.66-.29c-.01 0-.03-.01-.04 0l-7-2.79 3.25-11.5 .25-.94 -9.07-2.72Zm1.37 2.46l6.21 1.875 -.54 1.87 -6.22-1.88Zm-1.1 3.81l6.21 1.87 -2.16 7.59 -.22.875 .81.34 6.78 2.68c-1.42 1.41-2.37 3.28-2.6 5.375l-7.38-3.1c.2-.61.31-1.27.31-1.94 0-2.64-1.73-4.86-4.1-5.66Zm-2.85 9.96c1.53.55 2.625 2.01 2.625 3.75 0 .4-.08.78-.19 1.15l-1.16-.47c-1.32-.67-1.97-2.16-1.54-3.57v-.04Zm16.28 4.25c1.25.82 1.72 2.46 1.03 3.84 -.54 1.05-1.59 1.65-2.69 1.65 -.34 0-.68-.08-1-.19 .05-2.16 1.08-4.07 2.65-5.32Z"/></svg>