<svg viewBox="0 0 32 32" xmlns="http://www.w3.org/2000/svg"><path d="M15 4v2.59L13.18 4.8 11.8 6.175l1.78 1.81h-2.6v2h2.59l-1.79 1.81 1.37 1.37 1.81-1.79v2.59h2v-2.6l1.81 1.78 1.375-1.38 -1.79-1.82h2.59v-2h-2.6l1.78-1.82L18.75 4.75l-1.82 1.78v-2.6Zm1 3c1.1 0 2 .89 2 2 0 1.1-.9 2-2 2 -1.11 0-2-.9-2-2 0-1.11.89-2 2-2Zm-9.79 9l-2.22 8.875V28h24v-3.125L25.77 16Zm1.56 2H24.2l1.78 7.125V26h-20v-.875Zm1.21 1l-.41 1.81h2.09l.31-1.82Zm4 0l-.19 1.81h2.09l.09-1.82Zm4 0l.09 1.81h2.09l-.19-1.82Zm4 0l.31 1.81h2.09l-.41-1.82ZM8.16 22.81l-.38 2.18h2.28l.31-2.19Zm4.5 0l-.19 2.18h2.31l.09-2.19Zm4.4 0l.09 2.18h2.31l-.19-2.19Zm4.5 0l.31 2.18h2.28l-.375-2.19Z"/></svg>