<svg viewBox="0 0 32 32" xmlns="http://www.w3.org/2000/svg"><path d="M16 4c-2.92 0-5.27 2.31-5.44 5.18 -2.59-.51-5.26.83-6.22 3.37 -1 2.64.25 5.52 2.71 6.78 -1.64 2.3-1.3 5.52.9 7.375 2.31 1.94 5.8 1.62 7.75-.69 .12-.15.15-.34.25-.5 .1.17.14.375.28.53 1.94 2.31 5.43 2.63 7.75.68 2.2-1.86 2.52-5.08.875-7.375 2.5-1.24 3.78-4.16 2.78-6.82 -.97-2.54-3.65-3.89-6.22-3.38 -.18-2.88-2.53-5.19-5.44-5.19Zm0 2c1.94 0 3.5 1.55 3.5 3.5 0 .15-.07.43-.19.78 -.01.01 0 .01 0 .03l-2.97 4.21c.31-1.04.65-2.21.65-2.54 0-.56-.45-1-1-1 -.56 0-1 .44-1 1 0 .31.27 1.42.53 2.43l-2.91-4.38c-.07-.24-.125-.44-.125-.57 0-1.95 1.55-3.5 3.5-3.5Zm-6.63 5c.45-.02.92.04 1.37.21 .07.02.2.13.375.25 .01 0 .01-.01.03 0l2.78 4.21c-.88-.6-1.86-1.24-2.16-1.35 -.52-.19-1.1.07-1.29.59 -.19.51.07 1.09.59 1.28 .3.1 1.47.19 2.53.25l-5.07 1.4c-.13-.03-.24-.07-.32-.1 -1.83-.69-2.73-2.72-2.04-4.54 .51-1.37 1.78-2.21 3.15-2.25Zm13.25 0c1.36.04 2.64.88 3.15 2.25 .68 1.81-.22 3.84-2.04 4.53 -.125.04-.375.1-.66.125l-4.875-1.44c1.08-.06 2.36-.14 2.68-.25 .51-.19.78-.77.59-1.29 -.19-.52-.77-.79-1.29-.6 -.34.11-1.42.82-2.32 1.43l3.03-4.38c.12-.09.25-.17.31-.19 .45-.18.91-.24 1.375-.22Zm-8.32 7.37c-.9.62-1.99 1.38-2.22 1.65 -.36.41-.3 1.07.12 1.43 .42.35 1.04.29 1.4-.13 .26-.32.96-1.9 1.375-2.85v3.68c-.19 1.19-.55 2.24-.82 2.56 -1.25 1.48-3.45 1.69-4.94.43 -1.49-1.25-1.7-3.45-.44-4.94 .1-.125.34-.32.65-.5l.125-.07Zm3.46.06l4.78 1.375c.27.17.49.35.59.46 1.25 1.48 1.05 3.68-.44 4.93 -1.49 1.25-3.69 1.05-4.94-.44 -.26-.31-.6-1.28-.79-2.41V18.47c.41.94 1.1 2.53 1.375 2.84 .35.41.98.48 1.4.12 .41-.36.48-1.02.125-1.44 -.23-.26-1.25-.98-2.125-1.6Z"/></svg>