<svg viewBox="0 0 32 32" xmlns="http://www.w3.org/2000/svg"><path d="M12 2v6h2v1.06c-4.11.43-5.875 3.46-5.875 3.46L8 12.73v17.25h14V12.73l-.125-.22s-1.78-3.04-5.875-3.47V7.97h2v-6Zm12 0c-.56 0-1 .44-1 1 0 .55.44 1 1 1 .55 0 1-.45 1-1 0-.56-.45-1-1-1ZM14 4h2v2h-2Zm7 0c-.56 0-1 .44-1 1 0 .55.44 1 1 1 .55 0 1-.45 1-1 0-.56-.45-1-1-1Zm3 2c-.56 0-1 .44-1 1 0 .55.44 1 1 1 .55 0 1-.45 1-1 0-.56-.45-1-1-1Zm-9 5c1.73 0 2.91.48 3.68 1H11.3c.77-.52 1.94-1 3.68-1Zm-5 3h10v14H10Zm5 4c-1.65 0-3 1.35-3 3 0 1.64 1.35 3 3 3 1.64 0 3-1.36 3-3 0-1.65-1.36-3-3-3Zm0 2c.56 0 1 .43 1 1 0 .56-.44 1-1 1 -.57 0-1-.44-1-1 0-.57.43-1 1-1Z"/></svg>