<svg viewBox="0 0 32 32" xmlns="http://www.w3.org/2000/svg"><path d="M12.94 6c-.62-.01-1.24.23-1.71.7l-.01.01 -5.83 5.81c-1.88 1.88-1.88 4.94 0 6.82 1.89 1.88 4.94 1.88 6.83 0l7.66-7.67c.47-.48.47-1.24 0-1.71s-1.23-.47-1.7 0l-7.69 7.66c-.95.95-2.48.95-3.42 0 -.47-.47-.7-1.09-.7-1.71 0-.62.22-1.24.69-1.71l7.53-7.52c-.48-.48-1.1-.72-1.71-.72Zm6.11 0c-1.24 0-2.47.47-3.41 1.41l-7.68 7.67c-.47.47-.47 1.23 0 1.7s1.23.47 1.7 0l7.66-7.68c.94-.95 2.47-.95 3.41 0 .24.24.53.35.85.35 .3 0 .62-.12.85-.36 .47-.47.47-1.24 0-1.71 -.95-.94-2.19-1.42-3.42-1.42Zm5.11 5.22c-1.24 0-2.48.47-3.42 1.41l-7.67 7.66c-.47.47-.47 1.23 0 1.7s1.22.47 1.69 0l7.68-7.68c.94-.94 2.47-.94 3.41 0 .94.95.94 2.46 0 3.41l-7.54 7.51c.94.94 2.47.94 3.41 0l5.83-5.82c1.88-1.88 1.88-4.95 0-6.83 -.95-.95-2.18-1.42-3.42-1.42Zm0 3.625c-.31 0-.63.11-.86.35l-7.67 7.66c-.94.94-2.48.94-3.42 0h-.01c-.47-.47-1.24-.47-1.71 0 -.23.24-.35.53-.35.85 -.01.3.11.61.34.84 .94.94 2.17 1.41 3.41 1.41 1.24 0 2.47-.48 3.41-1.42l7.67-7.68c.47-.47.47-1.23 0-1.7 -.24-.24-.55-.36-.86-.36Z"/></svg>