<svg viewBox="0 0 32 32" xmlns="http://www.w3.org/2000/svg"><path d="M5 5v22h22V5H5Zm2 2h18v18H7V7Zm3.77 6c-1 0-2.25.46-2.25 1.64 0 .83.39 1.33 2.17 1.89 .74.26.92.44.92.83 0 .65-.82.61-.84.61 -.88 0-1.1-.4-1.1-.95H8.35l-.01.03c-.03 1.34 1.2 1.92 2.41 1.92 1.28 0 2.18-.59 2.18-1.65 0-.91-.52-1.48-2-1.92 -.88-.31-1.11-.46-1.11-.79s.29-.64.86-.64c.6 0 .89.36.89.79h1.31l0-.04c.02-.84-.65-1.78-2.2-1.78Zm3.22.04v5.91h1.38v-2.03h.83c1.29 0 2.27-.69 2.27-1.95 0-1.08-.79-1.94-2.28-1.94h-2.23Zm6.21 0l-2.06 5.91h1.27l2.09-5.92h-1.33Zm2.45 0l-2.06 5.91h1.28l2.09-5.92h-1.34Zm-7.29 1.05h.83c.73 0 .91.52.91.89 0 .36-.19.88-.92.88h-.84v-1.78Z"/></svg>