<svg viewBox="0 0 32 32" xmlns="http://www.w3.org/2000/svg"><path d="M14.5 4C8.14 4 3.03 9.41 3.03 16c0 6.58 5.11 12 11.46 12 3.86 0 6.47-1.56 8.43-3.41l-.69-.72 -.5-.875c-1.16.68-2.22 1-4.75 1 -4.43 0-8-3.34-8-8 0-4.67 3.57-8 8-8 2.14 0 3.64.33 4.71.93l.21-.41 .06-.07 -.25.46c.01.01.03.01.06.03l.5-.85 .71-.72c-2-1.89-4.86-3.41-8.54-3.41Zm0 2c.46 0 .88.04 1.31.09 -4.91.57-8.82 4.62-8.82 9.9 0 5.29 3.92 9.34 8.84 9.9 -.43.04-.87.09-1.35.09 -5.23 0-9.47-4.45-9.47-10 0-5.57 4.24-10 9.46-10Zm11.09 5l-2.16 3.09 -3.41-1.22 2.09 3.12 -2.125 3.06 3.43-1.16 2.12 3.09v-3.82l3.43-1.19 -3.44-1.19Z"/></svg>