<svg viewBox="0 0 32 32" xmlns="http://www.w3.org/2000/svg"><path d="M16.05 4c-.13-.02-.3 0-.49.16l-9.41 7.57c-.2.15-.22.4-.06.57l1.92 1.94 7.8 7.71c.16.16.45.17.65.01l2.28-1.82 -.02-.02 .34-.29c.19-.15.2-.41.04-.58l-2.6-2.55c-.17-.17-.46-.18-.65-.03l-.01 0c-.2.15-.48.14-.65-.02l-4.31-4.3c-.17-.17-.15-.42.05-.57l4.19-3.35c.18-.15.46-.14.63.02l7.29 7.43c.16.16.45.17.64.02l2.08-1.68c.18-.15.2-.41.03-.58l-9.58-9.66c-.04-.03-.13-.1-.26-.11Zm-.57 5.84c-.12-.01-.24.03-.33.1l-2.61 2.03c-.2.15-.21.4-.06.57l3.09 3c.16.16.44.17.63.02l0-.01c.18-.16.47-.15.63.02l3.81 3.8c.16.16.14.42-.04.57l-4.24 3.45c-.2.15-.48.14-.65-.02l-6.91-6.9c-.16-.17-.45-.18-.64-.03l-2.09 1.63c-.2.15-.22.4-.06.57l9.49 9.16s.33.31.78-.04l9-7.67c.18-.15.19-.41.03-.58l-2.02-1.93 -7.61-7.7c-.08-.09-.2-.13-.31-.13Z"/></svg>