<svg viewBox="0 0 32 32" xmlns="http://www.w3.org/2000/svg"><path d="M5 5v11l3.81 1.59c.71-.94 1.8-1.56 3.06-1.6l2.15-3.25c.12-2.65 2.28-4.75 4.96-4.75 2.76 0 5 2.23 5 5 0 2.67-2.11 4.84-4.75 4.96l-3.25 2.15c-.07 2.15-1.83 3.875-4 3.875 -2.22 0-4-1.79-4-4 0-.2.03-.38.06-.57l-3.07-1.29v8.84h22v-22Zm14 5c-1.66 0-3 1.34-3 3 0 1.65 1.34 3 3 3 1.65 0 3-1.35 3-3 0-1.66-1.35-3-3-3Zm0 1c1.1 0 2 .89 2 2 0 1.1-.9 2-2 2 -1.11 0-2-.9-2-2 0-1.11.89-2 2-2Zm-7 7c-.46 0-.89.14-1.22.4l1.59.65c.51.21.77.8.56 1.31 -.17.38-.55.625-.94.625 -.13 0-.25-.01-.375-.07l-1.6-.69c.12.98.95 1.75 1.96 1.75 1.1 0 2-.9 2-2 0-1.11-.9-2-2-2Z"/></svg>