<svg viewBox="0 0 32 32" xmlns="http://www.w3.org/2000/svg"><path d="M26.23 5c-.15 0-.52 1.03-.71 1.07 -.22.05-1.17-.48-3.13.75 -1.06.54-3.62 2.71-3.63 2.72 -.28.19-.84.19-1.48.66 -1.85 1.25-4.57.43-4.62.42 -4.61-1.12-5.34-.64-6.63.47 -.867.74-.99 1.52-1.01 1.62 -.18.85.21 2.01.27 2.67 .07.8-.12.69.32 4.04 .02.04.17 0 .21.06 0 .35-.16.5-.18.54 -.07.18-.07.43 0 .66 .09.34.34 1.51.34 1.91 0 1.74.01 1.83.1 2.05 .16.41.52.37.7.5 .12.14-.03.35.04.52 .02.08.14.16.25.2 .38.15 1.12.01 1.24-.11 .06-.07.02-.19.12-.21 .21 0 .44-.03.59-.11 .21-.11.17-.26.06-.44 -.02-.04-.3-.56-.41-.67 -.09-.09-.22-.13-.31-.19 -.25-.21-.43-.81-.43-.82 -.2-.81-.43-1.9-.18-2.75 .19-.72 1.64-3.66 1.65-3.66 .17-.28.7-.48 1.13-.3 .25.07.8.76 2.72 1.13 1.99.36 4.05-.09 4.67-.09 .11.08-.08.69-.03 1.76 0 1.1-.02.57-.17 1.24 -.1.4.14.96-.07 1.95 -.06.4-.42 1.03-.35 1.47 .02.04.04.08.06.14 .02.18.06.35.19.41 .3.15.5-.15.4.47 -.03.12-.11.5.06.625 .18.15 1.27.14 1.51.02 .1-.07.06-.19.26-.31 .07-.04.47-.02.47-.28 .01-.08-.39-.83-.39-.84 -.11-.15-.39-.19-.48-.34 -.29-.43-.08-1.86.02-2.15 .125-.46.23-.94.36-1.35 .45-1.78.42-2.11.68-2.85 .03-.08.26-.97.42-1.25 .38-.71.9-1.35 1.39-1.98 .75-.96 1.41-1.96 2.16-2.91 .25-.3.34-.58.75-.34 .44.23.9.29 1.33.7 .6.53.42.75.49.95 .06.2.32.43.62.39 .43-.09.54-.11.55-.11 .1-.03.23-.21.3-.34 .12-.23.29-.38.29-.69 0-.33-.02-.13-.86-2.21 -.33-.93-.22-.31-.56-1.54 -.07-.28-.15-.61-.26-.84 -.19-.37-.2-.32-.2-.4 0-.23 1.27-1.89.79-1.96 -.24-.03-.51.48-.86.7 -.36.17-.34.2-.43.2 -.11 0-.24-.13-.26-.21 -.09-.24.07-1.08-.16-1.08Z"/></svg>