<svg viewBox="0 0 32 32" xmlns="http://www.w3.org/2000/svg"><path d="M16 3C8.83 3 3 8.83 3 16c0 7.16 5.83 13 13 13 7.16 0 13-5.84 13-13 0-7.17-5.84-13-13-13Zm0 2c.5 0 .99.04 1.47.11l-1.48 1.47 -1.48-1.48c.48-.07.97-.12 1.47-.12Zm-3.75.66l2.33 2.33 -2.59 2.58 -3.04-3.04c.96-.81 2.08-1.45 3.28-1.89Zm7.48 0c1.2.43 2.32 1.07 3.28 1.88l-3.04 3.03 -2.59-2.59 2.33-2.34ZM7.53 8.95l3.03 3.03 -2.59 2.58 -2.34-2.34c.43-1.21 1.07-2.33 1.88-3.29Zm16.89 0c.8.96 1.44 2.08 1.88 3.28l-2.34 2.33 -2.59-2.59 3.03-3.04Zm-8.45.44l2.58 2.58 -2.59 2.58 -2.59-2.59 2.58-2.59Zm-4 3.99l2.58 2.58 -2.59 2.58 -2.59-2.59 2.58-2.59Zm8 0l2.58 2.58 -2.59 2.58 -2.59-2.59 2.58-2.59ZM5.08 14.49l1.47 1.47 -1.48 1.47c-.07-.49-.12-.98-.12-1.48 0-.51.04-1 .11-1.48Zm21.77 0c.06.48.11.97.11 1.47s-.05.99-.12 1.47l-1.48-1.48 1.47-1.48ZM7.96 17.37l2.58 2.58 -3.04 3.03c-.81-.97-1.45-2.09-1.89-3.29l2.33-2.34Zm8 0l2.58 2.58 -2.59 2.58 -2.59-2.59 2.58-2.59Zm8 0l2.33 2.33c-.44 1.2-1.08 2.32-1.89 3.28l-3.04-3.04 2.58-2.59Zm-12 4l2.58 2.58 -2.34 2.33c-1.21-.44-2.33-1.08-3.29-1.89l3.03-3.04Zm8 0l3.03 3.03c-.97.8-2.09 1.44-3.29 1.88l-2.34-2.34 2.58-2.59Zm-4 4l1.47 1.47c-.49.06-.98.11-1.48.11 -.51 0-1-.05-1.48-.12l1.47-1.48Z"/></svg>