<svg viewBox="0 0 32 32" xmlns="http://www.w3.org/2000/svg"><path d="M3.58 3l5.14 5.48 -5.74-.92 8.32 6.24 -4.16.53 8.83 2.66 -1 1 6.57-1.22 -.76 3.47 -2.89 2.61 -4.49 2.29 -1.06-.66 -.35.27 -1.06 3.73 .32-.08 1.15-1.43 2.83-1.87 4.69-1.33 -3.39 1.96s-.93-.04-1.04-.04c-.11 0-.99 3.23-.99 3.23l.48-.21 .39-.61 .9-1.25 4.01-1.92 2.84-3.43 2.02-3.99 1.27-2.24v-1.43l-.22-1.43 -.54-1.22 .52-1.03 .66-.38 -.44-.62 .35-.32 -.59-.22 -1.49-1.26 -1.92.52 -.22 1.91 1.06.83 -.61.45 -5.49-4.9L19.65 9 9.77 2.8l2.3 4.28 2.51.91 -.95-1.95 7.27 5.02 -6.32-3.78 1.6 1.93L3.33 2.78Z"/></svg>