<svg viewBox="0 0 32 32" xmlns="http://www.w3.org/2000/svg"><path d="M12.19 9C5.53 9.02.14 11.59.14 14.77c.01 1.9 1.86 3.58 4.84 4.62 -1.6-1.07-2.49-2.42-2.49-3.87 -.01-3.48 5.38-6.31 12.04-6.32 .4 0 .78 0 1.16.01 -1.12-.16-2.31-.25-3.53-.25Zm14.8 3.63c1.59 1.06 2.48 2.39 2.48 3.85 0 3.47-5.4 6.28-12.06 6.28 -.39 0-.79-.01-1.17-.03 1.11.16 2.28.25 3.51.25 6.66 0 12.06-2.58 12.06-5.75 0-1.9-1.88-3.58-4.85-4.62ZM7.83 14c-.75 0-1.29.46-1.29 1.08 0 1.19 1.8 1.14 1.8 1.78 0 .3-.27.45-.56.45 -.54 0-.94-.46-.94-.46l-.4.48s.47.6 1.31.6c.79 0 1.27-.52 1.27-1.14 0-1.26-1.81-1.13-1.81-1.78 0-.25.24-.42.56-.42 .25 0 .5.11.5.29v.18h.63v-.36c0-.55-.69-.77-1.14-.77Zm14.67.05v.6h.35v2.87c0 .26.1.37.37.37h1.73c.26 0 .37-.11.37-.38v-.59h-.65v.22c0 .08-.05.11-.12.11h-.89c-.09 0-.12-.05-.12-.12v-.91h1.24v-.6h-1.25v-1.01h.86c.07 0 .11.04.11.11v.22h.63v-.59c0-.26-.11-.38-.37-.38h-2.33Zm-2.85 0v.59h.23c.07 0 .11.04.11.11v2.75h-.01c0 .26.1.37.37.37h1.68c.26 0 .37-.12.37-.38v-.59h-.65v.22c0 .08-.05.11-.12.11h-.84c-.09 0-.12-.05-.12-.12v-2.76c0-.26-.12-.37-.38-.37h-.69Zm-10.07 0v2.47c0 .85.6 1.43 1.51 1.43 .9 0 1.5-.59 1.5-1.44v-2.48h-.71v2.44c0 .5-.32.79-.8.79 -.49 0-.8-.3-.8-.79v-2.46h-.72Zm3.51 0v.59h.34v3.24h.7v-1.33h.69c.71 0 1.22-.52 1.22-1.28 0-.75-.51-1.25-1.23-1.25h-1.76Zm3.27 0v.59h.35v3.24h.7v-1.33h.69c.718 0 1.21-.52 1.21-1.28 0-.75-.5-1.25-1.22-1.25h-1.77Zm9.01 0v.05h.11v.26h.07v-.27h.11v-.06h-.31Zm.37 0v.31h.07v-.26l.09.25h.05l.1-.26v.25h.06v-.32H26l-.1.22 -.1-.23h-.11Zm-11.6.59h.58c.391 0 .61.25.61.64 0 .4-.23.66-.63.66h-.58v-1.31Zm3.26 0h.58c.39 0 .61.25.61.64 0 .4-.23.66-.63.66h-.58v-1.31Z"/></svg>