<svg viewBox="0 0 32 32" xmlns="http://www.w3.org/2000/svg"><path d="M17.09 7c-4.65 0-10.72 3.78-10.72 8 0 2.26 1.85 4 4.125 4 1.73 0 3.03-1.29 3.03-2.69 0-1.3-.88-2.82-2.72-2.82 -.44 0-1.94.29-1.94 1.81 0 1.08.85 1.62 1.5 1.62 .97 0 1.09-.41 1.09-.625 0-.33-.21-.46-.54-.57 -.22 0-.46.12-.57.12 -.11 0-.44-.13-.44-.57 0-.44.46-.63 1-.63 .86 0 1.37.85 1.37 1.5 0 .32-.1 1.5-1.72 1.5 -1.19 0-2.6-.85-2.6-2.47 0-1.63 1.42-2.6 2.71-2.6 3.46 0 4 3.46 4 3.46l1.5.75s-.1-.54-.1-.97c0-1.41.64-1.97 1.93-1.97 1.94 0 2.71 1.64 3.46 2.4l1.93.84s-.97-1.29-.97-2.47c0-1.41 1.3-.79 3.03-.79 1.83 0 4.31-.41 4.31-1.82 -.33 0-.99.62-2.07.62 -.76-.22-2.7-1.19-2.91-1.19l-.44-.97c1.4.86 2.71 1.53 3.68 1.53 .97 0 1.81-.79 1.81-.79 -.87-3.14-.86-2.92-6.16-4v.87c-.22-.33-2.7-1.08-5.94-1.19Zm10.46 1.625c.75 0 1.4.64 1.4 1.4 0 .75-.65 1.4-1.41 1.4 -.76 0-1.41-.65-1.41-1.41 0-.76.54-1.41 1.4-1.41Zm0 .68c-.54 0-.97.42-.97.96 0 .53.42.96.96.96 .53 0 .96-.43.96-.97s-.43-.97-.97-.97Zm.21.4c.21 0 .43.12.43.34 -.11.21-.23.31-.44.31 -.22 0-.44-.1-.44-.32 0-.11.22-.35.43-.35ZM3.63 18.915c-.87 0-1.625.76-1.625 1.62v.43c0 .86.63 1.4 1.5 1.4H5.13c.21 0 .43.11.43.43v.43c0 .21-.23.4-.44.4H2.08v.78c0 .32.23.53.56.53h2.68c.86 0 1.625-.77 1.625-1.625v-.66c0-.87-.53-1.29-1.5-1.29H3.91c-.33 0-.44-.13-.44-.35v-.32c0-.22.23-.44.56-.44h2.59v-.85c0-.33-.23-.57-.44-.57Zm12.5 0c-.87 0-1.63.76-1.63 1.62v.43c0 .86.66 1.4 1.53 1.4h1.62c.21 0 .4.11.4.43v.43c0 .21-.2.4-.41.4h-3.16v.78c0 .32.23.53.56.53h2.68c.86 0 1.625-.77 1.625-1.625v-.66c0-.87-.53-1.29-1.5-1.29H16.22c-.33 0-.44-.13-.44-.35v-.32c0-.22.2-.44.53-.44h2.71v-.85c0-.33-.24-.57-.57-.57Zm6.06.12c-.87 0-1.625.76-1.625 1.62v2.68c0 .86.76 1.625 1.625 1.625h2.28c.32 0 .53-.21.53-.54v-.79h-2.6c-.33 0-.44-.2-.44-.41v-.79h3.125c.43 0 .875-.32.875-.75v-1.07c0-.87-.77-1.63-1.625-1.63Zm.21 1.18h1.62c.21 0 .43.22.43.43v.625h-2.6c.1 0 .09-.625.09-.625 0-.22.22-.44.43-.44Zm-10 .21v.09c-.33 0-.54.2-.54.53v2.18c0 .32-.24.53-.57.53H9.88c-.33 0-.54-.21-.54-.54v-2.19c0-.33-.34-.54-.66-.54h-.22c-.33 0-.54.2-.54.53v2.28c0 1.08.65 1.625 1.84 1.625h.21c.53 0 .97-.23 1.4-.44 .21-.11.32-.22.43-.22 0 0 .07.01.18.12l.34.43h.43c.32 0 .53-.35.53-.57v-3.35c0-.33-.34-.54-.66-.54Z"/></svg>