<svg viewBox="0 0 32 32" xmlns="http://www.w3.org/2000/svg"><path d="M8.93 5C6.76 5 4.99 6.77 4.99 8.93v14.12c0 2.16 1.77 3.93 3.93 3.93h14.12c2.16 0 3.93-1.78 3.93-3.94V8.91c0-2.17-1.78-3.94-3.94-3.94Zm0 2h14.12c1.08 0 1.93.85 1.93 1.93v14.12c0 1.08-.86 1.93-1.94 1.93H8.91c-1.09 0-1.94-.86-1.94-1.94V8.91c0-1.09.85-1.94 1.93-1.94Zm8.68 2.5s2.5 3.16 1.21 6.71c0 0-4.51-3.2-6.79-5.5 0 0 2.82 4.09 3.84 4.93 0 0-1.7-.91-5.63-4.25 0 0 4.53 5.89 6.65 7.12 0 0-3.23 2.19-7.94-.91 0 0 2.46 4.375 7.68 4.375 2.34 0 3.05-1.22 4.21-1.22 1.21 0 1.93 1.21 1.93 1.21 .7-1.73-1.07-3.69-1.07-3.69s1.99-4.63-4.16-8.82Z"/></svg>