<svg viewBox="0 0 32 32" xmlns="http://www.w3.org/2000/svg"><path d="M16 6C9.38 6 4 11.38 4 18c0 2.89 1.03 5.55 2.75 7.625l.28.375h17.93l.28-.375c1.71-2.08 2.75-4.74 2.75-7.625 0-6.62-5.39-12-12-12Zm0 2c5.53 0 10 4.46 10 10 0 2.26-.8 4.32-2.07 6H8.05c-1.27-1.68-2.07-3.74-2.07-6 0-5.54 4.46-10 10-10Zm0 1c-.56 0-1 .44-1 1 0 .55.44 1 1 1 .55 0 1-.45 1-1 0-.56-.45-1-1-1Zm-4 1.06c-.56 0-1 .44-1 1 0 .55.44 1 1 1 .55 0 1-.45 1-1 0-.56-.45-1-1-1Zm8 0c-.56 0-1 .44-1 1 0 .55.44 1 1 1 .55 0 1-.45 1-1 0-.56-.45-1-1-1ZM9.06 12.99c-.56 0-1 .44-1 1 0 .55.44 1 1 1 .55 0 1-.45 1-1 0-.56-.45-1-1-1Zm13.59.03l-5.66 3.25c-.3-.18-.64-.29-1-.29 -1.11 0-2 .89-2 2 0 1.1.89 2 2 2 1.09 0 1.98-.88 2-1.97 0-.02 0-.02 0-.04l5.65-3.22ZM7.99 16.98c-.56 0-1 .44-1 1 0 .55.44 1 1 1 .55 0 1-.45 1-1 0-.56-.45-1-1-1Zm16 0c-.56 0-1 .44-1 1 0 .55.44 1 1 1 .55 0 1-.45 1-1 0-.56-.45-1-1-1Zm-14.94 4c-.56 0-1 .44-1 1 0 .55.44 1 1 1 .55 0 1-.45 1-1 0-.56-.45-1-1-1Zm13.87 0c-.56 0-1 .44-1 1 0 .55.44 1 1 1 .55 0 1-.45 1-1 0-.56-.45-1-1-1Z"/></svg>