<svg viewBox="0 0 32 32" xmlns="http://www.w3.org/2000/svg"><path d="M10 5c-4.962 0-9 4.03-9 9v1c0 .76.3 1.46.78 2 -.49.53-.79 1.23-.79 2v1c0 3.85 3.14 7 7 7h16c3.86 0 7-3.15 7-7v-1c0-.77-.31-1.47-.79-2 .48-.54.78-1.24.78-2v-1c0-4.97-4.04-9-9-9h-12Zm0 2h12c2.79 0 5.21 1.65 6.33 4.03 -.12-.02-.22-.04-.34-.04 -.61 0-1.18.18-1.65.49 -.63-.9-1.68-1.5-2.86-1.5 -.76 0-1.46.25-2.03.66 -.62-.99-1.73-1.67-2.98-1.67 -.98 0-1.86.41-2.5 1.06 -.64-.66-1.52-1.07-2.5-1.07 -1.25 0-2.36.67-2.98 1.66 -.58-.41-1.27-.67-2.03-.67 -1.18 0-2.23.59-2.86 1.49 -.47-.31-1.04-.5-1.65-.5 -.12 0-.23.02-.34.03 1.11-2.38 3.53-4.04 6.33-4.04Zm3.5 4c.83 0 1.5.67 1.5 1.5V15c0 .55-.45 1-1 1h-1c-.55 0-1-.45-1-1v-2.5c0-.83.67-1.5 1.5-1.5Zm5 0c.83 0 1.5.67 1.5 1.5V15c0 .55-.45 1-1 1h-1c-.55 0-1-.45-1-1v-2.5c0-.83.67-1.5 1.5-1.5Zm-10 1c.83 0 1.5.67 1.5 1.5V15c0 .55-.45 1-1 1H8c-.55 0-1-.45-1-1v-1.5c0-.83.67-1.5 1.5-1.5Zm15 0c.83 0 1.5.67 1.5 1.5V15c0 .55-.45 1-1 1h-1c-.55 0-1-.45-1-1v-1.5c0-.83.67-1.5 1.5-1.5ZM4 13c.55 0 1 .45 1 1v1c0 .55-.45 1-1 1s-1-.45-1-1v-1c0-.55.45-1 1-1Zm24 0c.55 0 1 .45 1 1v1c0 .55-.45 1-1 1s-1-.45-1-1v-1c0-.55.45-1 1-1ZM4 18c.55 0 1 .45 1 1s-.45 1-1 1 -1-.45-1-1 .45-1 1-1Zm4 0h1c.55 0 1 .45 1 1v1c0 .55-.45 1-1 1 -1.1 0-2-.9-2-2 0-.55.45-1 1-1Zm5 0h1c.55 0 1 .45 1 1v1c0 .55-.45 1-1 1h-1c-.55 0-1-.45-1-1v-1c0-.55.45-1 1-1Zm5 0h1c.55 0 1 .45 1 1v1c0 .55-.45 1-1 1h-1c-.55 0-1-.45-1-1v-1c0-.55.45-1 1-1Zm5 0h1c.55 0 1 .45 1 1 0 1.1-.9 2-2 2 -.55 0-1-.45-1-1v-1c0-.55.45-1 1-1Zm5 0c.55 0 1 .45 1 1s-.45 1-1 1 -1-.45-1-1 .45-1 1-1ZM5.8 21.38c.74.98 1.88 1.61 3.19 1.61 .77 0 1.47-.3 2-.78 .53.48 1.23.77 2 .77h1c.77 0 1.47-.3 2-.78 .53.48 1.23.77 2 .77h1c.77 0 1.47-.3 2-.78 .53.48 1.23.77 2 .77 1.31 0 2.45-.64 3.19-1.62 .5.39 1.12.61 1.8.61 .2 0 .41-.03.6-.07 -.76 1.79-2.54 3.06-4.61 3.06h-16c-2.08 0-3.86-1.27-4.61-3.07 .19.04.4.06.6.06 .68 0 1.3-.23 1.8-.62Z"/></svg>