<svg viewBox="0 0 32 32" xmlns="http://www.w3.org/2000/svg"><path d="M9 4v11.46c-1.75 1.26-3 3.2-3 5.53 0 3.85 3.14 7 7 7 3.85 0 7-3.15 7-7 0-2.33-1.25-4.27-3-5.54v-1.47h2v-2h-2v-2h2v-2h-2v-2h2v-2H9Zm15.5 0C22.57 4 21 5.57 21 7.5c0 1.93 1.57 3.5 3.5 3.5s3.5-1.57 3.5-3.5C28 5.57 26.43 4 24.5 4ZM11 6h4v10.4l.5.28c1.49.86 2.5 2.46 2.5 4.31 0 2.77-2.23 5-5 5 -2.78 0-5-2.23-5-5 0-1.86 1-3.45 2.5-4.32l.5-.29V5.97Zm13.5 0c.82 0 1.5.673 1.5 1.5s-.68 1.5-1.5 1.5c-.83 0-1.5-.673-1.5-1.5s.67-1.5 1.5-1.5ZM12 16v2.18c-1.16.41-2 1.51-2 2.81 0 1.65 1.34 3 3 3 1.65 0 3-1.35 3-3 0-1.31-.84-2.4-2-2.82v-2.19h-2Z"/></svg>