<svg viewBox="0 0 32 32" xmlns="http://www.w3.org/2000/svg"><path d="M17 2c-4.97 0-9 4.03-9 9 0 1.53.38 2.95 1.06 4.21 .39-.72.84-1.39 1.31-2.04 -.24-.7-.38-1.42-.38-2.19 0-3.86 3.14-7 7-7 3.85 0 7 3.14 7 7 0 3.85-3.15 7-7 7 -.82 0-1.59-.15-2.32-.41 -.35.56-.67 1.14-.94 1.78 1.01.39 2.1.625 3.25.625 4.96 0 9-4.04 9-9 0-4.97-4.04-9-9-9Zm0 6c-1.66 0-3 1.34-3 3 0 .33.08.63.18.93 -5.74 5.3-6.19 13.27-6.19 17.06h2c0-3.62.41-10.75 5.4-15.47 .46.29 1 .46 1.59.46 1.65 0 3-1.35 3-3 0-1.66-1.35-3-3-3Z"/></svg>