<svg viewBox="0 0 32 32" xmlns="http://www.w3.org/2000/svg"><path d="M12.34 3c-1.49 1.13-1.55 1.96-1.59 2.13 -.05-.12-.3-.92-.72-1.27 -.16.37-.17.8-.03 1.18 .14.39.27.69.39.88 -.75-.16-1.33-.23-2.31 0H7.9l1.54.66c-.95.88-1.7 1.96-2.19 3.16l-.09.39 .08.08 .35-.22c-.16.54-.25.9-.31 1.2 -.51.57-.95 1.2-1.31 1.88 -.71.04-1.5.5-1.89.66l.14.15 1.34.04c-.03.04-.04.1-.06.15 -.35.3-1.87 1.76-1.55 3.78l.94-1.05c.02.08.03.15.05.24 0 1.19.01 4.2 3.04 7.05 2.04 1.875 4.49 2.82 7.38 2.82 5.705 0 10.45-4.1 10.45-9.92 .31-.46-.06.14.78-1.18l.6.66 .11-.03c-.09-.55-.23-1.09-.42-1.61 -.08-.23-.18-.44-.33-.63h0l.97.33c-.45-1.12-1.13-1.74-1.49-2.1l.33-.86s.57-1.31-.12-1.44c-.03-.53-.32-1.27-.87-1.27 -.36-.5-.83-.58-1.44-.28 -.43.2-.83.46-1.19.77 -.25-.3-.15.01-.15-1.4 -1.74-1.14-2.13-.55-3.51.14l.02.02c-1.04-.37-2.12-.58-3.21-.63 -.26-.41-.88-.9-1.18-1.18l1.16.33c-.26-.258-1.26-.61-1.61-.72 .85-.2 1.39-.98 1.99-1.55 -1.64-.48-3.19-.28-4.59.55l.56-2.08 -.09-.03Zm-.35.64c-.13.38-.23.78-.3 1.18l-.09.33 -.03.22 .11.11c1.02-.633 2.13-.91 3.34-.89l.99.02c-.56.63-1.31 1.02-2.28 1.16 -.37.06-.73.11-1.1.13l-.01-.03 -.12-.06c-.23-.05-.46-.02-.66.09 -.12-.01-.23-.03-.34-.04l-.12.07 .02.05c.09 0 .18.02.29.03l-.1.15 .15-.03 -.5.53c-.2.14-.26.29-.2.43l.25-.17h.05c.28-.39.71-.64 1.18-.72v-.15c.3.02.61.04.91.05 .3 0 .39.02.25.05 .33.19.66.4.97.63 .63.47 1.1 1.02 1.4 1.65 .41.85.63 1.73.63 2.65 -.01.44-.05.89-.15 1.32 -.17.74-.42 1.46-.75 2.15l.11.02c.85-.93 1.96-.75 2.3-.75l-.3.27 1.04.83 -.09 1.43c-.26-.577-.78-.99-1.55-1.31 .77.69 1.1.98 1.02.94 -.23-.14-.17-.09-.51-.18 .19.19.82.88.85.97l0 0 -.01 0c0 .08.07-.06-.66 1.07 -3.53-.72-4.99-2.01-6.62-2.97l.55.05c-.56-.87-.73-.83-1.8-1.23l.49-.4c-.42-.15-.86-.15-1.33.02l.35-.5 -.06-.09c-.7.2-.93.43-1.06.53 -.06-.26-.14-.59-.58-1.35l-.06 1.26 -.62-.24c.07-1.19.25-2.37.61-3.5l.05-.08c.05-.14.19-.36.43-.72l.11-.16 -.61.57 .25-.22 -.48.43 -.2.05c.57-1.13 1.08-1.94 1.52-2.36 .43-.44.75-.75.94-.91l-.31.05c-.53-.2-.91-.34-1.17-.4 .11-.03.17-.03.15-.03 .48 0 .82.02.98.05 .24.07.49.11.74.11l.02-.09 -.4-1.68 .63 1.35c.13-.21.22-.44.27-.67 .08-.3.25-.61.47-.91 .22-.3.35-.5.43-.54Zm1.16 2.7c-.11.01-.22.05-.31.12 -.6.31-1.32.98-1.36 1.05 -.09.08-.16.27-.26.63 -.09.36-.14.73-.14 1.1 -.22-.38-.5-.31-.94-.28l.33.35c-.78 0-1.1.72-1.11.75 .31 0 .21-.36 1.4-.58 -.21-.3-.16-.24-.24-.31 1.01.78.77 1 2.18 1.1l-.14-.23c.39-.34.64-.82.69-1.33 .08-.75-.06-1.39-.42-1.94l.6-.36c0-.03-.01-.06-.03-.09 -.11-.05-.22-.06-.33-.05Zm.58.3l.02.11 .17.11 -.12.02 .02.14c.42-.03.84.07 1.22.27 -.12-.258-.48-.67-1.33-.67Zm-1.11.29c.12.02.23.17.33.45 .11.38.16.78.14 1.18 -.03.43-.16.8-.4 1.08 -.14.15-.26.27-.31.35 -.18.01-.36.01-.53-.03l-.34-.17 -.26-.3c.03-.47.05-.89.14-1.23 .05-.36.15-.61.3-.81 .25-.3.49-.48.75-.56 .04-.02.09-.03.13-.02Zm1.54.34c-.19.05-.32.35-.38.91 -.08.74.11 1.38.55 1.85 .43.47.85.49 1.22.14 .37-.36.15-1.11-.53-2.24 -.17-.27-.4-.5-.67-.65h-.01c-.08-.04-.15-.06-.21-.04Zm.06.19c.08-.03.23.06.46.25 .3.25.52.75.71 1.52 .3 1.31-.93 1.22-1.26.23 .25.1.49.08.57-.5v-.22l-.06.02c-.21-.15-.12-.22-.09-.3l.02-.03c-.05-.06-.24-.39-.59.21 -.03-.64.02-1.03.14-1.17 .01-.03.03-.05.06-.06Zm6.36.25c.12.08.53.25.88.8 .19.39.18.45.15.51 -.03.11-.03.2-.15.33 -.08.11-.26.21-.56.35 -.36-.61-.78-1.11-1.31-1.47l.95-.56Zm.76.01c.26-.01.63.15 1.09.46L22.4 9.2c.25.84.79.8 1.04.8l-.16-.23 1.05-.26c-.43.02-.85.02-1.27 0 .6-.1 1.56-1.36 2.01-.53 .15.35.29.8.43 1.3l.08-.28c-.06-.24-.09-.48-.09-.72 .25.02.41.15.43.47 .02.3.08.69.16 1.18l.21-.54c.21 0 .21-.17-.12.97 -.98-.41-1.65-.4-2.18-.4l.85-.75c-1.19.38-1.55.5-2.57.98 -.06-.26-.24-.64-.75-.94 -.15.17-.14.04-.04.69h-.12c-.06-.39-.2-.76-.4-1.09l.19-.16c.39-.34.55-.68.49-1.03 -.03-.3-.26-.64-.64-.98 .06-.04.14-.06.23-.07Zm-9.19.29c-.38 0-.55.59-.38.99 .04.1.14.17.25.19 .07.01.43-.06.43-.7h-.03c-.26-.06-.11-.26-.04-.28 -.08-.15-.16-.2-.26-.23Zm-1.72 2.22c-.55.03-.85.22-.9.25 .02.02.14.15.27.43 .19-.3.41-.48.71-.5 -.09.52-.06 1.06.08 1.58 0 .02.12.81 1.28 1.13 .52.14 1.26.05 2.29-.26l-.44.02c-.2-.7-.31-1.17-.28-1.39 .53-.42 1.02-.53 1.43-.36h.11l-.56-.36 -.34.02c-.28.05-.58.19-.91.39l.14-.31c-1.64.67-1.63.65-1.7.66 -.98.22-.89-1.15-.89-1.17l.27-.06 -.03-.12c-.24-.04-.45-.04-.63-.02Zm13.75.33l-.7.6 .02.13 .83-.03c.52.01 1.03.08 1.54.19l-1.11.11 -.06.14 1.24 1.08c.46.46.88.96 1.26 1.5 -.53-.16-.49-.17-1-.17l.57 1.52 -.42-.6 -.12.02 .14.43c-.17.27-1.12 2.07-3.36 3.73 -1.86 1.39-3.6 1.83-3.8 1.88l-.36-.34 -.06.14 .66.75 -.34-.23 .15.19h-.06l-1.03-.64 .43 1.24 -.9-1.31 -.06.11 .35 1.35c-.29-.39-.99-1.53-2.67-1.86l1.52.99c-1.47.22-2.96.11-4.37-.31 -.2-.06-.42-.12-.64-.2l.05-.15 -2.1-1.05L11 20.81c-2.705.42-5.3-1.2-5.93-3.91l-.12-.77 -1.05 1.04c.91-2.7 1.2-2.72 2.41-3.29 -.43-.25-.08-.16-1.81-.44 .74-.28 1.54-.73 3.42.24 .05-.04.11-.07.17-.09 .02-.15.01-.04.04-.56 .18.46.16.4.14.43l.08.02c.59-.31.41-.22.79-.42l-.26.63 1.04-.28 -.4.39 .11.11c.21-.09 1.41.15 1.91.75l-1.11-.12c1.84 1.07 2.41 2.53 2.61 3.26l.08-.06c-.14-1.05-.59-1.59-.75-1.89 .19.23 1.83 1.62 5.17 2.15 -.53-.03-1.09.25-1.64.88l2.18-.95 -.44 1.02c.35-.48.69-1.11.99-1.86v-.03l.05-.15 -.06.75c.63-1.96 1.18-3.69 1.65-5.15l.63-1.31v-.1l-.26-.2h.47l.27.19 .11-.06 -.17-.75 .57.88 1.95-.95Zm1.93 1.17l-.19.6 -.67-.56 .85-.06Zm-11.95.33c.08.49.22.83.41 1.02 -.44.3-1.3.65-2.19.75l.02.05c.391.05.79.01 1.16-.12l-.34.6c.19-.08.47-.34.83-.7 .55-.26.59-.24.94-.75 -.6-.3-.74-.65-.87-.89ZM6.09 19.5c2.33 2.58 5.57 1.75 5.64 1.73 1.63.76 3.27 1.1 5.33.49 .15 0 .95.79 1.18 1.83l.19-.15 -.12-1.11c.42.42 1.16 1.05 1.61.6 -.74-.25-1.11-.45-1.39-1.49 .21.19.35.42 1.3.7l.06-.06 -.5-.67c.54-.23-.17.04 1.5-.51 .2 1.6.42 2.3.03 4.19 -2.34 1.17-2.63 1.04-2.77 1.11 -1.4-.56-2.39-1.49-2.98-2.76l1.4.77c-.46-.44-.86-.78-1.81-2.08l.55 1.08 -.83-.36c.66.98 1.1 2.42 3.12 3.44 -5.67 1.13-9.33-3.38-9.42-3.49 .52.43 1.07.82 1.66 1.16 .15.08.33.11.47.05L9.55 23c.43.19.44.2 3.23 1.35 -2-.97-3.46-1.92-4.37-2.83 -.03.3-.06.47-.06.47 .4.34.73.76.96 1.24 -1.83-.89-2.7-2.24-3.35-3.88Z"/></svg>