<svg viewBox="0 0 32 32" xmlns="http://www.w3.org/2000/svg"><path d="M15.83 2.99c-.49 0-.98.11-1.37.33l-9.09 5.1c-.806.45-1.4 1.44-1.4 2.35v10.34c0 .9.58 1.89 1.38 2.35l9.08 5.16c.4.22.89.34 1.38.34 .48 0 .96-.11 1.35-.33l9.39-5.19c.8-.46 1.39-1.45 1.39-2.35V10.74c0-.92-.6-1.91-1.41-2.35l-9.39-5.13c-.4-.22-.89-.33-1.37-.33Zm.01 2c.15 0 .29.02.39.07l9.38 5.12c.16.09.36.41.36.59v10.34c0 .16-.19.49-.37.59l-9.4 5.18c-.19.1-.6.1-.79-.01L6.32 21.7c-.19-.11-.38-.45-.38-.62V10.73c0-.19.19-.52.36-.61l9.08-5.11c.09-.06.25-.09.4-.09Zm5.32 8.13c-3.71 0-3.85 5.72 0 5.72 3.76-.01 3.75-5.73 0-5.73Zm-10.59.1c-.87 0-1.73 0-2.59 0v5.49h1.03v-1.62h1.55c2.69 0 2.683-3.89 0-3.89Zm2.72 0v5.5h1.03v-1.84h.99l1.59 1.83h1.23v-.08l-1.67-1.88c2.003-.41 1.88-3.54-.59-3.55 -.88 0-1.75-.01-2.62-.01Zm7.86.83c2.38 0 2.42 3.83 0 3.83 -2.43 0-2.41-3.84 0-3.84Zm-12.18.04h1.74c1.14 0 1.14 2.1 0 2.1H8.96v-2.11Zm5.34.08h1.57c1.26 0 1.25 1.75 0 1.75H14.3v-1.76Z"/></svg>