<svg viewBox="0 0 32 32" xmlns="http://www.w3.org/2000/svg"><path d="M16 3C8.83 3 3 8.83 3 16c0 7.16 5.83 13 13 13 7.16 0 13-5.84 13-13 0-7.17-5.84-13-13-13Zm0 2c6.06 0 11 4.93 11 11 0 6.06-4.94 11-11 11C9.93 27 5 22.06 5 16 5 9.93 9.93 5 16 5Zm-5.95 6.16l-1.11 1.66 1.75 1.16 -1.76 1.16 1.1 1.66 4.24-2.84 -4.25-2.84Zm11.89 0l-4.25 2.83 4.24 2.83 1.1-1.67 -1.76-1.17 1.75-1.17 -1.11-1.67Zm-5.95 7.83c-2.61 0-4.34 2.15-4.95 3.34 -.19.35.15.75.53.63 1.01-.34 2.76-.98 4.41-.98 1.65 0 3.39.64 4.41.97 .38.12.72-.28.53-.64 -.62-1.19-2.35-3.35-4.95-3.35Z"/></svg>