<svg viewBox="0 0 32 32" xmlns="http://www.w3.org/2000/svg"><path d="M10.75 2L8.56 3.09l.87 1.81 1.81-.91h9.5l1.81.9 .87-1.82 -2.19-1.1ZM15 5v1h-3c-3.31 0-6 2.69-6 6v12c0 1.64 1.35 3 3 3l-2 2h2.34l2-2h9.31l2 2h2.34l-2-2c1.64 0 3-1.36 3-3V12c0-3.31-2.7-6-6-6h-3V5Zm-3 3h8c2.21 0 4 1.78 4 4v4H8v-4c0-2.22 1.78-4 4-4ZM8 18h16v6c0 .56-.44 1-1 1H9c-.57 0-1-.44-1-1Zm3.5 2c-.83 0-1.5.67-1.5 1.5 0 .82.67 1.5 1.5 1.5 .82 0 1.5-.68 1.5-1.5 0-.83-.68-1.5-1.5-1.5Zm9 0c-.83 0-1.5.67-1.5 1.5 0 .82.67 1.5 1.5 1.5 .82 0 1.5-.68 1.5-1.5 0-.83-.68-1.5-1.5-1.5Z"/></svg>