<svg viewBox="0 0 32 32" xmlns="http://www.w3.org/2000/svg"><path d="M16 3c-.93 0-1.95.26-2.82.53 -.86.25-1.48.52-1.5.53 0 0-.04 0-.04 0l-2.88.96 -.1.03c-.06.01-.16.04-.38.125l-.32.09v.03c-.84.35-2.15 1.13-2.91 2.75 -1.04 2.18-1.1 4.9-1.1 4.9v2.03h4v14h16v-14h4v-2.1s-.09-.85-.25-1.88c-.17-1.03-.34-2.17-.91-3.07 -.94-1.47-2.1-2.22-2.85-2.6v-.1l-.41-.13c-.06-.03-.05-.02-.1-.04l-.19-.07 -2.97-1s-.04 0-.04 0c-.03-.01-.65-.28-1.5-.54 -.87-.27-1.89-.54-2.82-.54Zm0 2c.43 0 1.42.23 2.21.46 .2.06.19.06.375.125 -.07.09-.11.18-.19.28 -.47.58-1.125 1.125-2.41 1.125 -1.29 0-1.94-.55-2.41-1.125 -.08-.1-.125-.19-.19-.29 .17-.06.16-.07.37-.125 .79-.24 1.78-.47 2.21-.47Zm-4.57 1.21c.14.28.33.58.59.9 .73.91 2.06 1.87 3.96 1.87s3.23-.96 3.96-1.88c.25-.32.44-.63.59-.91l1.43.5v20.28h-12V6.68ZM7.99 7.55v5.43h-2c0-.06.15-2.48.9-4.07 .3-.64.69-1.08 1.09-1.38Zm16 .15c.36.3.77.71 1.15 1.31 .16.25.47 1.37.62 2.31 .14.88.21 1.57.21 1.65h-2Z"/></svg>