<svg viewBox="0 0 32 32" xmlns="http://www.w3.org/2000/svg"><path d="M14.21 5c-.68 0-1.25.57-1.25 1.25 0 1.51-.77 2.56-1.625 3.31 -.43.37-.9.66-1.22.84 -.17.08-.29.14-.375.18 -.05.02-.08.05-.1.06 -.03 0-.13.03-.04 0 -.49.19-.82.64-.82 1.15V14c0 .67.57 1.25 1.25 1.25h1.12v5.21c0 .35 0 1.84.68 3.375 .68 1.53 2.26 3.125 4.84 3.125 3.93 0 5.88-1.56 6.03-1.69 .26-.24.43-.59.43-.94v-2.66c0-.45-.27-.875-.66-1.1 -.375-.21-.84-.17-1.22.06l-.04-.04s-.04.03-.04.03c-.08.03-1.16.65-2.35.65 -.62 0-.67-.18-.79-.41 -.13-.24-.16-.625-.16-.54v-4.94h3.09c.67 0 1.25-.57 1.25-1.25v-3c0-.69-.58-1.25-1.25-1.25h-3.1V6.16c0-.68-.58-1.25-1.25-1.25Zm.56 2h1.18v4.96h4.34v1.5h-4.35v6.93c0 .17 0 .75.37 1.46 .36.71 1.29 1.46 2.56 1.46 .9 0 1.68-.22 2.28-.44v1.03c-.27.2-1.43 1.06-4.47 1.06 -1.84 0-2.52-.87-3-1.94 -.49-1.08-.54-2.36-.54-2.57v-7.22h-2.38v-.97c.09-.06.18-.09.31-.16 .42-.24.96-.61 1.53-1.1 .98-.86 1.87-2.27 2.12-4.07Z"/></svg>