<svg viewBox="0 0 32 32" xmlns="http://www.w3.org/2000/svg"><path d="M28 8.55c-.89.39-1.84.65-2.83.77 1.01-.61 1.79-1.58 2.16-2.73 -.95.56-2.01.97-3.125 1.19 -.9-.96-2.18-1.56-3.6-1.56 -2.72 0-4.93 2.2-4.93 4.92 0 .38.04.76.12 1.12 -4.1-.21-7.73-2.17-10.15-5.15 -.43.72-.67 1.57-.67 2.47 0 1.7.86 3.21 2.19 4.09 -.81-.03-1.57-.25-2.24-.62 0 .02 0 .04 0 .06 0 2.38 1.69 4.37 3.94 4.82 -.42.11-.85.17-1.3.17 -.32 0-.63-.04-.93-.09 .625 1.95 2.44 3.37 4.59 3.42 -1.69 1.32-3.81 2.1-6.12 2.1 -.4 0-.79-.03-1.18-.08 2.17 1.39 4.76 2.21 7.54 2.21 9.05 0 14.01-7.51 14.01-14.02 0-.22-.01-.43-.02-.64 .96-.7 1.79-1.57 2.45-2.55Z"/></svg>