<svg viewBox="0 0 32 32" xmlns="http://www.w3.org/2000/svg"><path d="M15 4v2.06c-6.02.5-10.75 5.4-10.97 10.56 -.01.125-.04.25-.04.375h2c0-.08.08-.28.53-.54 .44-.26 1.15-.47 1.96-.47s1.52.21 1.96.46c.44.25.53.45.53.53h2c0-.02.08-.27.625-.54 .54-.27 1.4-.47 2.375-.47 .96 0 1.83.19 2.375.46 .54.26.625.51.625.53h2c0-.08.08-.28.53-.54 .44-.26 1.15-.47 1.96-.47s1.52.21 1.96.46c.44.25.53.45.53.53h2c0-.13-.02-.26-.04-.375 -.23-5.16-4.96-10.06-10.97-10.57V3.92Zm1 4c4.34 0 8.06 2.95 9.43 6.28 -.6-.19-1.25-.29-1.94-.29 -1.13 0-2.15.25-2.97.71 -.2.11-.39.25-.57.4 -.22-.17-.45-.32-.69-.44 -.91-.46-2.05-.69-3.29-.69 -1.24 0-2.375.23-3.29.68 -.24.11-.45.27-.66.43 -.01-.01-.03 0-.04 0 -.18-.15-.37-.3-.57-.41 -.83-.47-1.85-.72-2.97-.72 -.7 0-1.35.09-1.94.28 1.37-3.33 5.08-6.29 9.43-6.29Zm-1 9v8c0 .56-.44 1-1 1 -.57 0-1-.44-1-1v-1h-2v1c0 1.64 1.35 3 3 3 1.64 0 3-1.36 3-3v-8Z"/></svg>