<svg viewBox="0 0 32 32" xmlns="http://www.w3.org/2000/svg"><path d="M15.51 2.98c-3.97.08-7.77 1.01-10.52 2.51v12.8c0 6.1 4.4 7.89 11 10.79 6.6-2.9 11-4.7 11-10.8V5.47c-3.4-1.85-7.53-2.6-11.49-2.52Zm5.5 2.51c1.7-.04 3.38.04 4.98.19v12.5c0 5.1-3.1 6.7-10 9.7 -6.9-3-10-4.61-10-9.71v-7.2c4.5-4.125 9.9-5.39 15.01-5.5Zm-4.85 5.52c-1.02-.01-1.99.33-2.48.66v12.3h1.9v-4c1.4.4 4.09-.1 4.09-4.5 0-3.5-1.84-4.46-3.53-4.47Zm6.37.03c-1.27.09-2.45.93-2.45 2.43 0 2.8 3 2.49 3 4.09 .1 1.4-1.71 1.3-2.91.3v1.69c2.1 1.3 4.7.49 4.8-1.91 .1-3-3.1-2.7-3.1-4.3 0-1.1 1.79-1.2 2.79-.1v-1.61c-.6-.49-1.4-.7-2.16-.64Zm-15.55.13v5.9c0 4.4 4.69 3 5.69 2.3v-8.21h-1.9v7.1c-.3.2-1.91.69-1.91-1.11v-6H6.95Zm9.05 1.36c.68-.07 1.64.31 1.64 2.93 .1 4-2 3-2.2 3v-5.81c.125-.05.32-.12.55-.14Z"/></svg>