<svg viewBox="0 0 32 32" xmlns="http://www.w3.org/2000/svg"><path d="M16 3l-3 5h2v12.06c-.79-.33-1.59-.46-2.35-.57 -.88-.125-1.68-.25-2.1-.47 -.43-.22-.57-.33-.57-1.04v-2.29c.59-.35 1-.99 1-1.72 0-1.11-.9-2-2-2 -1.11 0-2 .89-2 2 0 .73.4 1.37 1 1.71v2.28c0 1.29.73 2.31 1.625 2.78 .89.46 1.84.59 2.71.71 .87.125 1.67.25 2.09.46 .42.21.56.32.56 1.03 0 .03 0 .06 0 .09v.09c-1.17.41-2 1.51-2 2.81 0 1.65 1.34 3 3 3 1.65 0 3-1.35 3-3 0-1.31-.84-2.4-2-2.82 0-.07 0-.13 0-.19v-1.85c0-.06 0-.11 0-.16 0-.67.19-.87.75-1.19 .55-.33 1.5-.6 2.5-.85s2.05-.49 3-1.04c.94-.56 1.75-1.61 1.75-2.94v-2h1v-4h-4v4h1v2c0 .66-.2.86-.75 1.18 -.56.32-1.5.59-2.5.84 -.92.22-1.875.45-2.75.9V7.87h2Z"/></svg>