<svg viewBox="0 0 32 32" xmlns="http://www.w3.org/2000/svg"><path d="M3.69 2.3l-1.4 1.39 6.82 6.82c-.01.02-.02.05-.03.08l1.9 1.9v-.11l4.6 4.6h-.11l2.19 2.19c.05.01.09.03.14.04l5.81 5.81c.01.04.02.09.03.14l1.8 1.8h.1l2.69 2.69 1.39-1.4 -4.11-4.11c-.85-2.89-2.95-5.25-5.7-6.4 1.9-1.3 3.09-3.41 3.09-5.81 0-3.9-3.1-7-7-7 -2.61 0-4.86 1.41-6.08 3.52L3.59 2.22Zm12.3 4.69c2.8 0 5 2.2 5 5 0 2.08-1.23 3.83-3.01 4.59l-6.59-6.59c.75-1.79 2.5-3.01 4.59-3.01Zm-6.91 6.3c.4 1.9 1.39 3.5 2.99 4.5 -3.6 1.5-6.1 5.09-6.1 9.19h2c0-4.1 3-7.41 6.9-7.91l-5.81-5.8Z"/></svg>