<svg viewBox="0 0 32 32" xmlns="http://www.w3.org/2000/svg"><path d="M16 5c-3.9 0-7 3.1-7 7 0 2.43 1.2 4.56 3.07 5.81 -3.57 1.53-6.08 5.08-6.08 9.18h2c0-4.4 3.6-8 8-8 3.9 0 7-3.1 7-7s-3.1-7-7-7Zm0 2c2.8 0 5 2.2 5 5s-2.2 5-5 5 -5-2.2-5-5 2.2-5 5-5Zm8.09 11v2.09c-.6.1-1.2.4-1.7.7l-1.5-1.5 -1.41 1.39 1.5 1.5c-.4.5-.6 1.1-.7 1.8h-2.31v2h2.09c.1.6.4 1.2.7 1.8l-1.5 1.5 1.39 1.39 1.5-1.5c.5.3 1.1.6 1.7.7v2.09h2v-2.1c.6-.1 1.19-.41 1.69-.71l1.5 1.5 1.4-1.4 -1.5-1.5c.4-.5.59-1.11.69-1.81h2.3v-2h-2.1c-.1-.6-.41-1.21-.71-1.81l1.5-1.5 -1.4-1.4 -1.5 1.5c-.5-.3-1.11-.61-1.71-.71v-2.1h-2Zm.9 4c1.7 0 3 1.3 3 3s-1.3 3-3 3 -3-1.3-3-3 1.3-3 3-3Zm0 2c-.125 0-.25.03-.37.08s-.23.13-.33.22 -.18.2-.23.32c-.06.11-.09.24-.09.36 0 .375.28.75.63.91 .11.05.24.08.36.08 .5 0 1-.5 1-1s-.5-1-1-1Z"/></svg>