<svg viewBox="0 0 32 32" xmlns="http://www.w3.org/2000/svg"><path d="M16 5c-2.83 0-5.22 1.62-6.34 4h-.08l-.15.52c-.07.17-.13.35-.18.53 -.01.01-.02.03-.03.05L5.56 7.17l-1.2 1.6 2.69 2.19h-3.1v2h5.06c.04.31.1.62.2.92 .05.18.11.36.18.54l.14.52h.07c.53 1.14 1.36 2.11 2.4 2.81 -3.57 1.53-6.08 5.08-6.08 9.18h2c0-4.4 3.6-8 8-8s8 3.6 8 8h2c0-4.11-2.51-7.66-6.08-9.19 1.03-.7 1.86-1.67 2.4-2.82h.07l.02-.21c.36-.86.57-1.8.57-2.8 0-3.9-3.1-7-7-7Zm0 2c1.66 0 3.09.78 4 2h-8.01c.9-1.22 2.34-2 4-2Zm-4.91 4h9.8c.01.03 0 .07.01.1 .05.29.08.58.08.89 0 .3-.04.6-.09.89 -.01.03-.01.07-.02.1h-9.81c-.02-.04-.01-.08-.02-.11 -.06-.3-.09-.59-.09-.9 0-.31.03-.61.08-.9 0-.04 0-.08.01-.11Zm.89 4h8c-.91 1.21-2.35 2-4.01 2 -1.67 0-3.1-.79-4.01-2Z"/></svg>