<svg viewBox="0 0 32 32" xmlns="http://www.w3.org/2000/svg"><path d="M11.5 6C9.57 6 8 7.57 8 9.5c0 1.92 1.57 3.5 3.5 3.5 1.92 0 3.5-1.58 3.5-3.5C15 7.57 13.42 6 11.5 6Zm9 0C18.57 6 17 7.57 17 9.5c0 1.92 1.57 3.5 3.5 3.5 1.92 0 3.5-1.58 3.5-3.5C24 7.57 22.42 6 20.5 6Zm-9 2c.83 0 1.5.66 1.5 1.5 0 .83-.67 1.5-1.5 1.5 -.84 0-1.5-.67-1.5-1.5 0-.84.66-1.5 1.5-1.5Zm9 0c.83 0 1.5.66 1.5 1.5 0 .83-.67 1.5-1.5 1.5 -.84 0-1.5-.67-1.5-1.5 0-.84.66-1.5 1.5-1.5ZM7 12c-2.2 0-4 1.8-4 4 0 1.11.47 2.11 1.21 2.84 -1.34.9-2.22 2.43-2.22 4.15h2c0-1.67 1.33-3 3-3 1.66 0 3 1.33 3 3h2c0-1.72-.89-3.26-2.22-4.16 .74-.73 1.21-1.74 1.21-2.85 0-2.2-1.81-4-4-4Zm5 11c-.63.83-1 1.88-1 3h2c0-1.67 1.33-3 3-3 1.66 0 3 1.33 3 3h2c0-1.12-.375-2.17-1-3 -.34-.46-.75-.84-1.22-1.16 .74-.73 1.21-1.74 1.21-2.85 0-2.2-1.81-4-4-4 -2.2 0-4 1.8-4 4 0 1.11.47 2.11 1.21 2.84 -.47.31-.88.7-1.22 1.15Zm8 0h2c0-1.67 1.33-3 3-3 1.66 0 3 1.33 3 3h2c0-1.72-.89-3.26-2.22-4.16 .74-.73 1.21-1.74 1.21-2.85 0-2.2-1.81-4-4-4 -2.2 0-4 1.8-4 4 0 1.11.47 2.11 1.21 2.84 -1.34.9-2.22 2.43-2.22 4.15ZM7 14c1.11 0 2 .88 2 2 0 1.11-.89 2-2 2 -1.12 0-2-.89-2-2 0-1.12.88-2 2-2Zm18 0c1.11 0 2 .88 2 2 0 1.11-.89 2-2 2 -1.12 0-2-.89-2-2 0-1.12.88-2 2-2Zm-9 3c1.11 0 2 .88 2 2 0 1.11-.89 2-2 2 -1.12 0-2-.89-2-2 0-1.12.88-2 2-2Z"/></svg>