<svg viewBox="0 0 32 32" xmlns="http://www.w3.org/2000/svg"><path d="M16 3L3 7l3.1.95 2.89.89v2.66c-.13.15-.22.3-.3.45 -.18.37-.3.8-.4 1.3 -.2.94-.3 2.17-.31 3.51 -.61.54-1.01 1.33-1.01 2.21 0 1.27.9 2.19 2.03 2.62 .45 1.3 1.2 2.73 2.29 3.95 1.18 1.32 2.77 2.41 4.67 2.41 1.89 0 3.48-1.1 4.67-2.42 1.08-1.22 1.83-2.65 2.29-3.96 1.12-.43 2.03-1.36 2.03-2.63 0-.89-.4-1.68-1.02-2.24 -.02-1.34-.12-2.56-.31-3.51 -.11-.5-.22-.93-.4-1.31 -.08-.16-.17-.31-.3-.46V8.75l6-1.85Zm0 2.09l6.2 1.9 -6.21 1.9 -6.21-1.91Zm-5 4.36l5 1.53 .29-.09 4.7-1.45v2.32c-.02.01 0 .01-.05.05 -.16.13-.49.32-.93.5 -.9.35-2.29.66-4.03.66 -1.75 0-3.14-.31-4.03-.67 -.45-.18-.77-.38-.93-.51 -.05-.04-.04-.04-.05-.06Zm-.74 4.24c.28.17.6.33.96.48 1.17.46 2.78.8 4.76.8 1.97 0 3.58-.34 4.76-.81 .36-.15.67-.31.96-.49 .15.8.26 1.98.26 3.29v.84l.5.29c.3.17.5.48.5.85 0 .53-.4.94-.93.98l-.68.05 -.2.64c-.34 1.08-1.08 2.49-2.04 3.56 -.96 1.06-2.07 1.75-3.18 1.75 -1.11 0-2.23-.69-3.18-1.75 -.96-1.07-1.7-2.49-2.04-3.57l-.2-.65 -.68-.06c-.53-.05-.93-.46-.93-.99 0-.375.19-.69.5-.86l.51-.3 -.02-.85v-.02c0-1.3.1-2.48.26-3.29Zm-2.1 3.29h.83l-.84.01Zm4.82 1c-.56 0-1 .44-1 1 0 .55.44 1 1 1 .55 0 1-.45 1-1 0-.56-.45-1-1-1Zm6 0c-.56 0-1 .44-1 1 0 .55.44 1 1 1 .55 0 1-.45 1-1 0-.56-.45-1-1-1Z"/></svg>