<svg viewBox="0 0 32 32" xmlns="http://www.w3.org/2000/svg"><path d="M13 3c-3.86 0-7 3.14-7 7 0 2.41 1.23 4.55 3.09 5.81 -3.57 1.53-6.1 5.07-6.1 9.18h2c0-4.43 3.57-8 8-8 2.14 0 4.06.87 5.5 2.25l-4.72 4.71 -.07.31 -.69 3.53 -.32 1.46 1.46-.32 3.53-.69 .31-.07 10.09-10.1c1.16-1.17 1.16-3.09 0-4.25 -.59-.59-1.36-.88-2.125-.88 -.76 0-1.52.28-2.1.84l-3.97 3.96c-.88-.84-1.91-1.52-3.04-2 1.86-1.27 3.09-3.41 3.09-5.82 0-3.86-3.15-7-7-7Zm0 2c2.77 0 5 2.22 5 5 0 2.77-2.23 5-5 5 -2.78 0-5-2.23-5-5 0-2.78 2.22-5 5-5Zm13 10c.25 0 .51.08.71.28 .39.39.39 1 0 1.4l-9.69 9.68 -1.79.375 .375-1.79 9.68-9.69c.19-.2.43-.29.68-.29Z"/></svg>