<svg viewBox="0 0 32 32" xmlns="http://www.w3.org/2000/svg"><path d="M16 5c-3.9 0-7 3.1-7 7 0 2.43 1.2 4.56 3.07 5.81 -3.57 1.53-6.08 5.08-6.08 9.18h2c0-4.4 3.6-8 8-8 .34 0 .67-.04 1-.08v4.57c0 5.2 6.79 8.2 7.09 8.3l.4.19 .4-.2c.3-.1 7.09-3.11 7.09-8.31v-5.5h-.91c-1.9 0-3.01-.7-3.91-1.2 -.9-.4-1.7-.81-2.7-.81 -1 0-1.8.4-2.5.8 -.51.28-1.12.62-1.89.86 1.74-1.27 2.88-3.32 2.88-5.67 0-3.9-3.1-7-7-7Zm0 2c2.8 0 5 2.2 5 5s-2.2 5-5 5 -5-2.2-5-5 2.2-5 5-5Zm8.5 11c.5 0 .89.19 1.69.59l.3.09c.8.4 1.9 1 3.5 1.2v3.5c0 3.3-4.3 5.69-5.5 6.29 -1.2-.6-5.5-3-5.5-6.3v-3.5c1.7-.2 2.79-.81 3.59-1.21l.3-.1h.09 .09c.6-.5.9-.6 1.4-.6Z"/></svg>