<svg viewBox="0 0 32 32" xmlns="http://www.w3.org/2000/svg"><path d="M16 2l-.2 4c-.6 0-1.31-.01-1.81.09l-1.1-3.8 .69 3.89c-.6.09-1.2.3-1.8.6L9.87 3.37l1.5 3.5c-.6.3-1.11.6-1.71.9l-2.4-2.71 2.19 3c-.6.4-1.1.8-1.5 1.3l-3-2.1 2.69 2.39c-.41.5-.8 1-1.2 1.6l-3.1-1.41 3 1.59c-.3.6-.61 1.2-.81 1.9l-3.2-.6 3.09.89c-.2.7-.31 1.4-.41 2.1l-3.1.19 3 .19v.8c0 .5-.01 1 .09 1.4l-2.8.79 2.79-.5c.1.8.29 1.5.59 2.2l-2.3 1.29 2.4-1c.3.7.69 1.4 1.09 2l-1.91 1.5 2-1.4c.5.7.99 1.19 1.59 1.79l-1.3 1.9 1.5-1.7c.6.5 1.29.99 1.99 1.39l-.91 2 1-1.9c.7.4 1.49.69 2.29.89l-.4 2.1 .59-2c.8.2 1.6.29 2.4.29l.19 1.9 .09-2.1c.8 0 1.7-.11 2.4-.31l.59 2 -.41-2.1c.8-.2 1.6-.51 2.3-.91l1.09 1.9 -.91-2c.7-.4 1.4-.81 2-1.41l1.5 1.7 -1.3-1.81c.6-.5 1.09-1.11 1.59-1.81l2 1.5 -1.91-1.7c.4-.6.79-1.3 1.09-2l2.5 1 -2.3-1.31c.3-.7.49-1.4.59-2.2l2.69.59 -2.8-.8c0-.5.09-.91.09-1.41v-.81l3-.1 -3.1-.2c-.1-.7-.21-1.41-.41-2.11l3.09-.9 -3.3.59c-.2-.6-.51-1.31-.81-1.91l3-1.6 -3.2 1.29c-.3-.6-.71-1.1-1.21-1.6l2.9-2.3 -3 2.09c-.4-.5-.9-.91-1.5-1.31l2.19-3 -2.5 2.8c-.5-.4-1.1-.71-1.6-.91l1.5-3.6 -1.91 3.4 -1.8-.61 .69-3.9 -1.1 3.79c-.6-.1-1.21-.1-1.81-.1l-.2-4Zm0 4.9c5.5 0 10 4.5 10 10 0 5.6-4.5 10-10 10s-10-4.5-10-10 4.5-10.01 10-10.01Zm0 1.09c-4.9 0-8.91 4-8.91 8.9 -.001 4.9 4 8.9 8.9 8.9s8.9-4.01 8.9-8.91 -4.01-8.91-8.91-8.91Zm4.5 3.5v6.59c0 .5 0 .7.5.9 -.2.3-.4.4-.7.4h-6.31c-.1.1-.2.29-1 1.29 -.1-.5-.61-1.3-.91-1.3h-3.5c.2-.4.19-.41.09-.81 -.2-.5-.1-1 .2-1.3 .3-.3.69-.8.79-1 -.1-.2-.2-.61-.3-.71 .2-.3.49-.6.69-.8 .1.2.2.49.3.69 .1-.1.29-.31.29-.41 -.1.3-.1.5-.1.7 0 .2.1.49.3 1.09l.69 1.59h.7c.2 0 .49.49 1.09 1.19 .1-.1.09-.2.09-.3 0-.3-.6-1.51-.6-1.91 0-.5.29-.8.79-1.5 0 .2-.1.4-.1.5 0 .4.4 1.2.7 2h1v-.1c-.1-.1-.21-.31-.31-.41 .2-.3.49-.71.59-.81 .2.4.4 1 .5 1.3h.5c-.1-.2-.2-.5-.2-.6 -.1-.2-.21-.31-.31-.41 .2-.3.49-.71.59-.81 .1.3.5 1.2.7 1.8h.5c-.1-.2-.3-.8-.5-1.2 -.1-.2-.21-.31-.31-.41 .2-.3.49-.71.59-.81 .3.8.7 1.9.9 2.4h1.09c.1 0 .3-.31.3-.41v-3.8c0-.3-.2-.81-.6-1.71 .2 0 .59-.4 1.09-1.1Zm1.59 0v5.9c0 1.1.6 1.3 1 1.5 .1.1.29.09.59.19 -.1.1-.3.09-.8.09 -.9.2-1.41 0-1.41-1v-3.9c0-.3-.2-.81-.6-1.71 .3 0 .69-.4 1.19-1.1Zm-12.6 1.69c0 .1.09.3.19.4 .09.1.2.3.2.4 0 .1-.11.29-.31.69 -.1-.2-.3-.4-.5-.5 -.1-.1-.2-.2-.2-.3 0 0 .19-.31.59-.71Zm1.09 0c0 .1.1.3.2.4 .1.1.19.3.19.4 0 .1-.11.29-.31.69 -.1-.2-.3-.4-.5-.5 -.1-.1-.2-.2-.2-.3 .1 0 .19-.31.59-.71Zm2.4 1.1c0 .1.09.29.19.39 .1.1.2.3.2.4 0 .1-.11.3-.21.7 -.1-.2-.3-.4-.5-.5 -.1-.1-.2-.21-.2-.31 -.1 0 .1-.3.5-.7Zm-2.6 3.19s-.11.1-.21.3c-.05.05-.08.09-.08.17 0 .07.02.17.07.32 0 .05.02.12.06.21 .03.08.08.18.13.28h.5l-.31-.71c-.05-.15-.1-.26-.14-.34 -.04-.09-.07-.17-.07-.27Z"/></svg>