<svg viewBox="0 0 32 32" xmlns="http://www.w3.org/2000/svg"><path d="M11 5C9.36 5 8.13 6.21 7.31 7.56c-.83 1.35-1.32 2.95-1.32 4.43 0 2.58 1.78 4.46 4 4.9v11.09h2v-11.1c2.21-.45 4-2.33 4-4.91 0-1.49-.49-3.09-1.32-4.44 -.83-1.36-2.06-2.57-3.69-2.57Zm7 0v7c0 1.85 1.28 3.39 3 3.84v12.15h2V15.83c1.71-.45 3-2 3-3.85v-7h-2v7c0 1.11-.89 2-2 2 -1.12 0-2-.89-2-2v-7Zm3 0v7c0 .55.44 1 1 1 .55 0 1-.45 1-1V5ZM11 7c.57 0 1.34.56 1.96 1.59 .625 1.02 1.03 2.4 1.03 3.4 0 2-1.25 3-3 3s-3-1-3-3c0-1.01.4-2.38 1.03-3.41 .62-1.03 1.39-1.6 1.96-1.6Z"/></svg>