<svg viewBox="0 0 32 32" xmlns="http://www.w3.org/2000/svg"><path d="M4 4c-.6 0-1 .4-1 1v2.5C3 9.4 4.6 11 6.5 11h7.09c.8 0 1.4.6 1.4 1.4v.59c0 .6.4 1 1 1s1-.4 1-1v-.6c0-.8.6-1.41 1.4-1.41h7.09c1.9 0 3.5-1.6 3.5-3.5v-2.5c0-.6-.4-1-1-1s-1 .4-1 1v.59c0 .8-.61 1.4-1.41 1.4h-6.6c-1.7 0-3 1.3-3 3 0-1.7-1.3-3-3-3h-6.6c-.8 0-1.41-.61-1.41-1.41v-.6c0-.6-.4-1-1-1Zm6.35 11.02c-.19.01-.38.07-.56.17 -.7.4-1.01 1.3-.61 2l5.5 10c.2.5.8.8 1.3.8s1.1-.31 1.3-.81l5.5-10c.4-.7.09-1.6-.61-2 -.7-.4-1.6-.1-2 .6l-4.2 7.59 -4.2-7.6c-.3-.53-.89-.83-1.45-.78Z"/></svg>