<svg viewBox="0 0 32 32" xmlns="http://www.w3.org/2000/svg"><path d="M22 3v2h3.56l-3.38 3.4c-1.21-.91-2.66-1.41-4.19-1.41 -1.88 0-3.62.74-4.94 2.06 -1.33 1.32-2.07 3.06-2.07 4.93 0 1.87.74 3.61 2.06 4.93 .87.87 1.9 1.49 3.06 1.81 .11-.09.24-.18.34-.29 .43-.44.71-.96.87-1.54 -1.09-.15-2.09-.62-2.875-1.41 -.95-.95-1.47-2.2-1.47-3.54 0-1.34.52-2.59 1.46-3.54 .94-.95 2.19-1.47 3.53-1.47 1.33 0 2.58.52 3.53 1.46 .94.94 1.46 2.19 1.46 3.53 0 .86-.25 1.67-.66 2.4 .09.51.15 1.05.15 1.59 0 .49-.05.98-.125 1.46 .19-.17.37-.35.56-.54 1.32-1.33 2.06-3.07 2.06-4.94 0-1.54-.51-2.99-1.41-4.19l3.4-3.38v3.56h2v-7Zm-6.13 8.25c-.12.08-.25.17-.35.28 -.44.43-.72.95-.88 1.53 1.08.14 2.08.61 2.87 1.4 .94.94 1.46 2.19 1.46 3.53 0 1.33-.53 2.58-1.47 3.53 -.95.94-2.2 1.46-3.54 1.46 -1.34 0-2.59-.53-3.54-1.47 -.95-.95-1.47-2.2-1.47-3.54 0-.87.24-1.68.65-2.41 -.1-.52-.16-1.06-.16-1.6 0-.5.04-.99.125-1.47 -.2.16-.38.34-.57.53 -1.33 1.32-2.07 3.06-2.07 4.93 0 1.53.5 2.98 1.4 4.18l-1.69 1.68 -2-2 -1.44 1.4 2 2 -2 2 1.43 1.43 2-2 2 2 1.4-1.44 -2-2 1.68-1.69c1.2.9 2.65 1.4 4.18 1.4 1.87 0 3.61-.75 4.93-2.07 1.32-1.33 2.06-3.07 2.06-4.94 0-1.88-.75-3.62-2.07-4.94 -.88-.88-1.91-1.5-3.07-1.82Z"/></svg>