<svg viewBox="0 0 32 32" xmlns="http://www.w3.org/2000/svg"><path d="M7.4 5C6.1 5 4.99 6.1 4.99 7.4v17.29c0 1.2 1.1 2.3 2.4 2.3h17.29c1.3 0 2.4-1.11 2.4-2.41V7.38c-.1-1.3-1.2-2.41-2.5-2.41H7.38Zm7.9 2.69c1.4.89 2.09 3.2 2.29 4.8 .4 1.1.59 2.39.59 3.59 0 2.79-1.1 4.99-3.5 6.49 2.44.03 4.29-2.04 4.29-4.4 0-.6-.11-1.2-.41-1.8 .5-.1.9-.3 1.3-.5 .9 1.8.8 4.39-1 6.29 -2.2 2.4-6.11 2.4-8.31 0 -3.5-3.8-1.01-10 4.09-10 .7 0 1.4.1 2 .3 -.2.4-.4.9-.4 1.4 -.5-.2-1.01-.31-1.61-.31 -2.5 0-4.3 2.1-4.3 4.5 0 2.2 1.5 4 3.5 4.4 3.1-1.2 3.69-6.01 3.69-8.91v-1.1c-.6-1.7-1.4-3.31-2.3-4.81Zm-.6 14.89c-.04-.01-.07 0-.11 0h.09c0-.01 0-.01 0-.01Zm7.39-14.4c1.7 2.2.8 6.5-1.8 6.5 -.7 0-1.31-.4-1.81-.8 1.1-.6 2.49-1.61 3.19-2.71 .1-.2.2-.4.2-.6 -.6 1.4-2.31 2.5-3.81 2.9 -.2-.4-.41-.8-.41-1.2 0-.5.3-1.21.7-1.61 1.1-1.01 2.69-.4 3.69-2.51Z"/></svg>