<svg viewBox="0 0 32 32" xmlns="http://www.w3.org/2000/svg"><path d="M15.69 4c-1.9 0-6.6.19-9.1 2.59 -1.8 1.7-2.5 4.3-2.6 7.4 -.2 4.9.89 7.99 2.69 9.59 .4.3 1.4 1.1 3.3 1.7v2.5s-.01.99.59 1.19c.1 0 .2.09.3.09 .6 0 1.09-.71 1.79-1.41 .6-.7 1.1-1.2 1.4-1.7h1.4 .8c1.9 0 6.59-.2 9.09-2.6 1.8-1.8 2.5-4.41 2.5-7.71 .1-.5.09-1.1.09-1.7 -.1-3.7-1.2-6.2-2.7-7.6 -.6-.5-3.21-2.41-8.81-2.41h-.81Zm-.2 1.9h.69 .1 .09c5.3 0 7.3 1.7 7.5 1.9 1.2 1 1.9 3.19 2 6.09v.4c.1.6.09 1.09.09 1.39 -.1 3-.71 5-1.91 6.3 -2.1 1.9-6.5 2-7.7 2h-.71 -.1 -.1 -1l-1.6 1.8 -1 1.09 -.21.29c-.2.2-.5.6-.7.7v-.21 -4.3c-2-.5-2.8-1.21-3-1.41 -1.4-1.2-2.2-4.1-2-8v-1c.2-2.4.8-4 1.8-5.1 2.1-1.9 6.49-2 7.69-2Zm-.1 2.19c-.5 0-.5.7 0 .7 3.7 0 6.9 2.49 6.9 7.19 0 .5.69.5.69 0 0-5.1-3.4-8.01-7.6-7.91Zm-3.97.92c-.22-.03-.44.02-.64.17 -1 .5-2.01 1.5-1.71 2.6 0 0 .2.89 1.3 2.79 .6.9 1.09 1.7 1.59 2.3 .5.7 1.29 1.49 2.09 2.09 1.6 1.3 4.1 2.6 5.2 2.9 1 .3 2.09-.71 2.59-1.71 .2-.4.09-.9-.31-1.2 -.6-.6-1.6-1.3-2.3-1.7 -.5-.3-1.11-.11-1.31.19l-.5.59c-.2.3-.7.3-.7.3 -3.3-.9-4.21-4.31-4.21-4.31s0-.4.3-.7l.59-.5c.3-.2.49-.81.19-1.31 -.2-.3-.5-.9-.8-1.2 -.3-.4-.91-1.1-.91-1.1 -.15-.15-.35-.26-.57-.28Zm4.66 1.07c-.5-.1-.6.7-.1.7 2.8.2 4.4 2.1 4.3 4.5 -.1.5.69.5.69 0 .1-2.8-1.71-5.11-4.91-5.21Zm.3 1.9c-.5-.1-.5.69 0 .69 1.2 0 1.79.7 1.79 1.9 .1.5.8.5.8 0 -.1-1.6-1-2.6-2.6-2.6Z"/></svg>