<svg viewBox="0 0 32 32" xmlns="http://www.w3.org/2000/svg"><path d="M9.08 5C6.83 5 4.99 6.83 4.99 9.08v13.83c0 2.24 1.83 4.08 4.08 4.08H22.9c2.24 0 4.08-1.84 4.08-4.09V9.06c0-2.25-1.84-4.09-4.09-4.09Zm0 2h13.83c1.16 0 2.08.92 2.08 2.08v13.83c0 1.16-.93 2.08-2.09 2.08H9.06c-1.17 0-2.09-.93-2.09-2.09V9.06c0-1.17.92-2.09 2.08-2.09Zm6.63 5.23c-.74-.01-1.36 0-1.72.17 -.24.11-.42.37-.31.38 .13.01.44.08.6.3 .21.28.2.92.2.92s.11 1.77-.29 1.99c-.28.15-.66-.16-1.48-1.57 -.42-.73-.74-1.53-.74-1.53s-.06-.15-.17-.23c-.14-.1-.32-.13-.32-.13l-1.96.01s-.3.01-.4.13c-.1.11-.01.34-.01.34s1.53 3.58 3.26 5.38c1.58 1.65 3.39 1.54 3.39 1.54h.82s.24-.03.37-.17c.11-.125.11-.36.11-.36s-.02-1.1.49-1.27c.5-.16 1.14 1.06 1.82 1.53 .51.35.91.27.91.27l1.82-.03s.95-.06.5-.82c-.04-.06-.27-.56-1.36-1.58 -1.15-1.07-1-.9.38-2.74 .83-1.13 1.17-1.81 1.07-2.11 -.11-.28-.72-.21-.72-.21l-2.06.01s-.16-.02-.27.04c-.11.06-.18.22-.18.22s-.33.86-.77 1.6c-.92 1.55-1.29 1.64-1.44 1.54 -.35-.23-.27-.91-.27-1.39 0-1.52.23-2.14-.45-2.31 -.23-.06-.39-.09-.96-.1Z"/></svg>