<svg viewBox="0 0 32 32" xmlns="http://www.w3.org/2000/svg"><path d="M8 5C6.17 5 4.99 6.07 4.5 7.06c-.2.39-.31.76-.38 1.09 -1.22.38-2.13 1.5-2.13 2.84v13c0 1.64 1.35 3 3 3h7c1.32 0 2.51-.8 3.06-2h1.87c.53 1.2 1.74 2 3.06 2h7c1.64 0 3-1.36 3-3v-13c0-1.34-.91-2.47-2.125-2.85 -.08-.33-.18-.7-.375-1.1 -.5-.99-1.68-2.07-3.5-2.07Zm0 2h16c1.14 0 1.45.42 1.71.93 .01.02.01.03.03.06H6.24c.01-.03.01-.04.03-.07 .25-.52.55-.94 1.71-.94Zm-3 3h22c.56 0 1 .43 1 1v13c0 .56-.44 1-1 1h-7c-.55 0-1.04-.34-1.25-.85l-1.04-2.75v-.04l-.04-.04c-.3-.7-.97-1.16-1.72-1.16 -.77 0-1.46.46-1.75 1.15l-.04.03v.06l-.94 2.71c-.22.51-.71.84-1.25.84h-7c-.57 0-1-.44-1-1v-13c0-.57.43-1 1-1Zm5 3c-2.2 0-4 1.8-4 4 0 2.19 1.8 4 4 4 2.19 0 4-1.81 4-4 0-2.2-1.81-4-4-4Zm12 0c-2.2 0-4 1.8-4 4 0 2.19 1.8 4 4 4 2.19 0 4-1.81 4-4 0-2.2-1.81-4-4-4Zm-12 2c1.11 0 2 .88 2 2 0 1.11-.89 2-2 2 -1.12 0-2-.89-2-2 0-1.12.88-2 2-2Zm12 0c1.11 0 2 .88 2 2 0 1.11-.89 2-2 2 -1.12 0-2-.89-2-2 0-1.12.88-2 2-2Zm-6.04 7.43l.21.56h-.41Z"/></svg>