<svg viewBox="0 0 32 32" xmlns="http://www.w3.org/2000/svg"><path d="M6.5 6c-.6 0-1.1.1-1.7.3 -2.3.9-3.4 3.59-2.5 5.89l4.5 11c.7 1.7 2.29 2.8 4.09 2.8h.09c1.8 0 3.39-1 4.09-2.6l.9-2.41 .9 2.4c.7 1.6 2.29 2.59 4.09 2.59h.09c1.8 0 3.39-1.11 4.09-2.81l4.5-11c.9-2.31-.2-4.9-2.5-5.9 -.6-.2-1.1-.31-1.7-.31 -1.8 0-3.5 1.1-4.2 2.8l-.61 1.69 -.7-1.91c-.7-1.6-2.3-2.6-4-2.6 -.6 0-1.31.1-1.91.4 -1 .5-1.7 1.19-2.2 2.19l-.1.09 -.71 1.9 -.6-1.7c-.5-1.8-2.2-2.91-4-2.91Zm0 2c1 0 1.9.6 2.3 1.5l.5 1.59 1.79 5.5 2-5.41 .59-1.6v-.1 -.1c.2-.4.6-.91 1.3-1.21 .3-.1.6-.2 1-.2 1 0 1.8.6 2.3 1.4l.69 1.79 2 5.4 1.8-5.5 .5-1.6c.3-.9 1.19-1.5 2.19-1.5 .3 0 .6.09.9.19 .6.3 1.1.7 1.4 1.3 .3.6.3 1.3 0 1.9l-4.5 11c-.4 1-1.31 1.59-2.21 1.59h-.1c-1 0-1.81-.61-2.31-1.41l-.9-2.3 -1.81-4.91 -1.91 4.9 -.91 2.29c-.4.8-1.2 1.4-2.2 1.4 -1 0-1.91-.6-2.31-1.6l-4.5-11c-.3-.6-.2-1.31 0-1.91 .29-.6.7-1.11 1.4-1.31 .3-.1.6-.2.9-.2Z"/></svg>