<svg viewBox="0 0 32 32" xmlns="http://www.w3.org/2000/svg"><path d="M21.93 6.28c-.55-.03-1.09.01-1.625.125 -.5.1-.83.59-.72 1.09 .1.49.59.82 1.09.71 1.52-.33 3.19.13 4.31 1.37 1.11 1.24 1.41 2.95.93 4.43 -.16.48.1 1 .59 1.15 .48.15 1-.12 1.15-.6 .67-2.09.26-4.48-1.32-6.22 -1.19-1.31-2.81-2.02-4.44-2.1Zm-8.29 2.75c-1.68.17-4.02 1.48-6.1 3.56 -2.27 2.26-3.57 4.67-3.57 6.75 0 3.96 5.08 6.375 10.06 6.375 6.52 0 10.87-3.81 10.87-6.82 0-1.83-1.53-2.86-2.91-3.29 -.34-.11-.59-.15-.41-.6 .38-.97.44-1.82.03-2.41 -.78-1.12-2.94-1.06-5.38-.04 0 0-.76.35-.57-.25 .37-1.21.3-2.23-.29-2.82 -.42-.42-1.02-.59-1.79-.5Zm8.125.5c-.27-.02-.52 0-.79.06 -.43.08-.72.53-.625.96 .09.42.51.68.93.59 .51-.11 1.09.05 1.46.46 .37.41.47.97.31 1.46 -.14.41.08.86.5 1 .41.13.86-.09 1-.5 .32-1.02.11-2.18-.66-3.04 -.58-.64-1.36-1-2.16-1.04Zm-7.19 5.28c3.32.11 5.99 1.78 6.21 4.06 .25 2.6-2.75 5.04-6.72 5.43 -3.98.39-7.43-1.43-7.69-4.04 -.26-2.61 2.77-5.05 6.75-5.44 .49-.06.96-.05 1.43-.04ZM13 16.74c-1.44.13-2.79.96-3.41 2.21 -.84 1.69-.04 3.6 1.875 4.21 1.98.63 4.31-.36 5.125-2.19 .8-1.8-.2-3.63-2.16-4.125 -.48-.13-.96-.18-1.44-.125Zm.9 2.18c.06 0 .09 0 .15.03 .24.08.35.35.21.59 -.15.23-.45.34-.69.25 -.24-.1-.33-.36-.19-.6 .1-.18.31-.28.5-.29Zm-1.85.56c.16 0 .34.02.5.09 .62.26.81.97.43 1.59 -.39.61-1.2.9-1.82.625 -.61-.28-.79-1-.41-1.6 .28-.45.78-.73 1.28-.72Z"/></svg>