<svg viewBox="0 0 32 32" xmlns="http://www.w3.org/2000/svg"><path fill-rule="evenodd" d="M24.5 7.5c-2.26-2.26-5.26-3.51-8.46-3.51 -6.59 0-11.95 5.35-11.95 11.94 -.01 2.1.54 4.16 1.59 5.97l-1.7 6.19 6.33-1.67c1.74.95 3.71 1.45 5.71 1.45h0c6.58 0 11.94-5.36 11.94-11.95 0-3.2-1.25-6.2-3.5-8.45Zm-8.46 18.37h-.01c-1.79 0-3.54-.49-5.06-1.39l-.37-.22 -3.77.98 1-3.67 -.24-.375c-1-1.59-1.52-3.42-1.52-5.29 0-5.48 4.45-9.93 9.93-9.93 2.65-.001 5.14 1.03 7.01 2.91 1.87 1.87 2.9 4.37 2.9 7.02 0 5.47-4.46 9.92-9.93 9.92Zm5.44-7.44c-.3-.15-1.77-.88-2.04-.97 -.28-.11-.48-.15-.68.14 -.2.3-.77.97-.95 1.17 -.18.19-.35.22-.65.07 -.31-.15-1.27-.47-2.41-1.49 -.89-.79-1.49-1.77-1.67-2.07 -.18-.31-.02-.47.12-.61 .13-.14.3-.35.44-.53 .14-.18.19-.3.3-.5 .09-.2.04-.38-.03-.53 -.08-.15-.68-1.63-.93-2.22 -.25-.59-.49-.5-.68-.52 -.18-.01-.38-.01-.58-.01 -.2 0-.53.07-.8.375 -.28.29-1.05 1.01-1.05 2.48 0 1.46 1.07 2.89 1.21 3.08 .14.19 2.1 3.21 5.1 4.5 .71.3 1.26.49 1.69.62 .71.22 1.36.19 1.88.12 .57-.09 1.76-.73 2.01-1.43 .24-.7.24-1.3.17-1.42 -.08-.13-.28-.2-.58-.36Z"/></svg>