<svg viewBox="0 0 32 32" xmlns="http://www.w3.org/2000/svg"><path d="M15.9 6.09c-2.9 0-5.31.6-5.71.7 .4.1.7.19 1.1.59h.09c.3-.1 2.4-.71 5.5-.71 9 0 15.09 5.8 15.09 11.2v.5c0 .1-.01.1.09 0v-1c-.1-4.2-4.9-11.31-16.2-11.31Zm1.19 1.09c-10.2 0-16.4 6.8-17.1 7.6 -.1 0-.1-.01 0 .09 3 .8 7.8 4.09 9.8 10.09h.09c2.8-3.5 6.99-6.41 11.79-6.41 4 0 6.5 2.1 6.5 4 0 .9-.3 1.7-1.1 2.3 .7-.5 1.4-1.41 1.4-2.41 0-1.1-.6-1.91-.6-1.91 .4.4.5.8.5.8 .3-2 1.29-3.1 1.29-3.1 -.1-.5-.3-.91-.3-.91 .4.4.69 1.39.69 2.09 0 .5-.2 1.1-.6 1.5 .4-.2.8-.71.8-1.81 0-.8-.21-1.3-.21-1.3 .3-.3.6-.5.8-.6 0 .2.09.49.09.69 0 .1-.01.1.09 0v-.81c.3-.2.5-.2.5-.2 -.7-5.5-7.1-9.81-14.5-9.81Zm-2.1.4l-1 3.09c2.1-1.21 4.09-1.8 6.59-1.8 3.4.1 8.4 2.09 10 7.09 -.5-1.5-3-6.4-9.6-6.5 -2.7-.1-4.7.8-6.6 1.9l4.29-.5 -4.7 1.09 1.3 1 -.21-.81c.4-.1 2-.4 3.3-.4l-1.1 4c.7 0 .9-.41 1-1.11l.19-.1v1.3c-1.1.2-1.9.3-2.5.5l.69-2.21 -3.1-1.8 .09.4 .5.19c.3.9 1 2.8 1 2.9 .1.2.2.29.6.19l.09.2c-.8.2-1.2.39-2 .69l-.1-.2c.2-.1.39-.21.29-.61 -1.2-3.1-1.1-2.9-1.1-3l.09-.2 1.7 3.4c-.2-.6.09.09-1.61-3.91l-2.1 4.4 .2-.71 -1.81-2.1 1.4 4.7 -.6.39c-5.6-5.1-5.31-4.9-5.71-4.9 -.3 0-.7.29-.7.29l-.21-.3c1.5-1.2 1.6-1.21 2.9-2.11l.2.4s-.31.2-.41.4c-.3.5.09.7 3.09 3.8l-.91-2.91 1.99-.5 1.3 1.5 .19-.6 -.2-1.21 .69-.2v.19l.2-.5 -4.81 1.2 .59-.21 -.7-2.1 .9-.5 1.49 1.8 1.39-.71c-.1-.4-.1-.7-.2-1l.9.7 .19-.11 -3-2.1 1.2.59c.9-.31 1.29-.41 1.59-.51l.09.5c-.6.6.1.8.3 1l-.71-3.1 .59 1.4c.2-.1.4-.1.4-.1l.09.4s-.2.09-.3.09l.4 1 1.69-3.31Zm-4.6 2.59l.5.4s-.2-.01-.6.09l-.11-.4s.1-.01.2-.11Zm9.81 1.44c.83-.03 1.43.1 1.58.85v.59c0 .1-.11.9-.11 1.2v1c0 .1 0 .19.1.29 .1.1.29.09.29.09 .4 0 .4-.3.4-.3s.19-2.71.19-2.81c0-.2-.2-.2-.2-.2v-.41s1 .2 1.4.4l-.1.9s.49-.5.79-.5c.3-.1.7.39.7.39l-.61.6c-.6-.3-1 0-1 0 -.3 1.9-.4 2.09.2 2.29v.2c-.9-.3-.91-.31-1.81-.41 -.6-.1-.5 0-1-.1 -.2-.3-.1-.21-.2-.41 -.2 0-.4.19-.6.29 -.2.1-.4.1-.5.1 0 0-.61.1-.91-.5 -.3-.5-.01-1.31.29-1.61 .4-.4 1.2-.5 1.4-.9 .4-.5-.7-1.11-1.5-.31h-.1l.3-.81c.32-.03.63-.05.91-.06Zm6.68.15c.6.5.79.7 1.09 1 -1.3 3.7-1.5 3.99-1.2 4.19l-.11.19c-.3-.2-.4-.2-.9-.4l.09-.31s-.2.19-.5.19c-1 0-1.2-1.6-.5-2.6 .6-.9 1.49-.8 1.69-.2l.4-1.31c.1-.3-.1-.5-.2-.6l.09-.2Zm-9.76.38c-.4 0-1.15.11-1.45 1.01l1.1.9 .59-1.91c-.03 0-.12-.02-.26-.02Zm3.55 1.21s-.6.3-.7.5c-.2.2-.41.49-.41.79 0 .4.2.5.5.5s.5-.1.5-.3c0-.2.09-1.5.09-1.5Zm5.4.4c-.5-.1-.81 1.19-.91 1.69 0 .3-.1.69.3.69 .3.1.5.1 1-1.7 .1-.3-.01-.6-.41-.7Zm-13.3.09l.59 3.5 -.6.29 -1.21-1.4 .7-1.31 .19.19 -.2-.4 .5-.91Zm15.19 1.4c.7-.1 1.19.79 1.19.79l-.4.4 -.11-.1c0-.1.1-.21.1-.41 0-.5-.61-.6-.61-.2 0 .2.4.99.4 1.39 0 .5-.3.8-.7.8 -.4 0-1-.5-1-.5l.19-.7 .09.09c-.1.9.9.99.7.29 -.1-.2-.91-1.7.09-1.9Zm-8.41 1c0 .1-.01.19.09.29 -.1-.1-.2-.2-.8 0 0 .1.09.3.09.5 .5-.1.2 0 .5-.1v.3c-.2-.1-.1 0-.5 0 0 .1.09.49.09.59 .08 0 .52-.01.71-.14 -.02.03-.02.08-.02.13 -.2 0-.71.09-1.11.19v-.2c-.1-.4-.2-.91-.2-1.31 0-.1 0-.1-.1-.2 .5-.1.99-.1 1.19-.1Zm2 .03c.15.01.32.06.5.16 .1 0 .09.2.09.3 -.3-.5-1-.41-1.1.29 -.1.9.7 1 1 .5 0 .1-.1.3-.1.3 -.5.3-1.41-.11-1.31-.91 .07-.375.43-.7.9-.67Zm-3.91.16c-.1.1-.1.09 0 .19 .1.3.2 1 .3 1.3 .1.2.09.2.19.3 -.2.1-.3.09-.5.09v-.21c-.1-.2-.2-.6-.2-.7 -.2 0-.4.09-.6.19 0 .1.19.5.19.7 0 .1.09.09.09.19 -.2.1-.4.1-.5.2 .1-.1.1-.11 0-.21 -.1-.2-.4-1.21-.5-1.41 0-.1-.1-.2-.1-.2 .2-.1.3-.1.5-.2v.19c.1.2.1.4.2.5 .2-.1.49-.1.59-.2l-.1-.5c0-.1-.11-.21-.11-.21 .2-.1.4-.1.5-.1Zm5.46.06c.08-.01.16 0 .24.03 .5.1.6.6.5 1 -.1.4-.41.6-.91.5 -.4-.1-.7-.5-.5-1 .15-.375.41-.53.66-.54Zm.24.13c-.1 0-.5 0-.6.5 -.1.3-.01.7.29.7 .2.1.39 0 .59-.5 .1-.5-.1-.71-.3-.71Zm1.29.3c.1 0 .3.09.4.09 0 0 0-.1-.1 1.3 .1.1.09.09.09.19 -.1 0-.41-.1-.41-.1l.1-.1v-.41c-.2-.1-.31-.1-.41-.1 -.1.1-.11.19-.21.29v.2c-.1 0-.2-.1-.3-.1l.09-.11c.2-.2.49-.7.69-1v-.2Zm-9.1.19l.2.2c-.2-.1-.41-.01-.61.09 .6 1.6.6 1.59.7 1.59 -.2.1-.3.1-.5.2 .1-.1.1-.11-.6-1.61 0 0-.4.2-.5.4l-.11-.3c.4-.2 1.3-.61 1.4-.61Zm9.3 0c-.1.1-.31.4-.31.5 .1 0 .2.1.3.1v-.61Zm1.15.32c.15.02.29.12.34.27v.19c0-.3-.31-.41-.41-.31 -.1.1.09.2.09.4 .1.1.09.3.09.5 -.1.3-.6.3-.8 0l.09-.2c0 .3.3.49.4.19 .1-.1 0-.31-.1-.41 -.1-.1-.21-.3-.11-.5 .05-.15.2-.2.35-.18Zm.94.47c.2.1.49.3.59.4l-.2.29c-.1-.2-.01-.1-.21-.2 -.1.2-.3.5-.4.8 -.1.1-.1.19 0 .19l-.31-.2 .09-.11c.2-.3.3-.6.5-.9 -.1-.1-.1-.11-.3-.11l.19-.2Zm-13.6.19l.19.2h-.3c-.1 0-.41.2-.61.4v.09c.1.1.2.3.3.5 .5-.3.39-.21.59-.41 0 .1-.01.1.09.3 -.2 0-.2-.01-.6.29 .5.9.59.8.59.8 -.1.1-.3.19-.5.29 .1-.2-.1-.3-.9-1.6 -.1-.1-.21-.1-.21-.1 .4-.3.8-.51 1.3-.81Zm8.55.64c-2.53-.02-5.56.87-8.36 3.06v.09c.1.2.2.5.2 1 3.2-2.9 6.59-3.8 9.19-3.6 2.9.2 5 1.7 5 3.4 0 .5-.1.8-.2 1 .1-.2.19-.5.29-1 .2-1.9-2-3.61-5.1-3.91 -.34-.04-.69-.06-1.05-.07Zm-10.54.71c.5-.08.93.32 1.08.54 -.1 0 .49.8-.31 1.5 -.6.4-1.2.2-1.5-.2 -.4-.5-.3-1.2.2-1.6 .17-.15.35-.23.51-.25Zm-.17.32c-.1 0-.19.04-.26.12 -.1.1-.6.39 0 1.19 .2.3.69.6 1.09.3 .3-.2.4-.6 0-1.2 -.23-.23-.57-.45-.85-.43Z"/></svg>