<svg viewBox="0 0 32 32" xmlns="http://www.w3.org/2000/svg"><path d="M16 3C8.82 3 3 8.82 3 16c0 7.17 5.82 13 13 13 7.17 0 13-5.83 13-13 0-7.18-5.83-13-13-13Zm0 2.16c2.82 0 5.38 1.07 7.3 2.83 -.05-.01-.09-.02-.14-.02 -1.07 0-1.76.93-1.76 1.92 0 .89.45 1.64 1 2.54 .41.71.88 1.64.88 2.97 0 .93-.35 2-.83 3.5l-1.08 3.6L17.3 9.97c.65-.04 1.23-.1 1.23-.1 .58-.07.52-.94-.07-.9 0 0-1.76.14-2.9.14 -1.07 0-2.85-.15-2.85-.15 -.59-.04-.65.86-.07.89 0 0 .55.06 1.13.09l1.82 5.5 -2.37 7.1 -4.1-12.62c.66-.04 1.24-.1 1.24-.1 .58-.07.5-.94-.07-.9 0 0-1.69.13-2.83.13 1.98-2.45 5.01-4.02 8.42-4.02Zm9.51 5.63c.84 1.54 1.32 3.31 1.32 5.19 0 4.28-2.48 7.96-6.08 9.72 .23-.12.46-.24.68-.37l3.3-9.57c.61-1.54.82-2.78.82-3.88 0-.41-.03-.76-.07-1.11 -.01-.01-.01-.01-.01-.01Zm-19.31.58l5.06 14.35c-3.62-1.76-6.1-5.45-6.1-9.75 0-1.66.37-3.22 1.03-4.62Zm9.98 5.55l3.33 9.13c.02.05.04.09.07.13 -1.13.39-2.34.61-3.6.61 -1.07 0-2.1-.16-3.07-.45l3.25-9.45Zm-4.79 8.85c.28.12.56.24.85.35 -.3-.11-.58-.23-.86-.36Zm9.01.08c-.23.1-.47.19-.7.27 .23-.09.47-.18.69-.28Zm-7.86.37c.11.03.23.07.34.11 -.12-.04-.24-.08-.35-.12Z"/></svg>