<svg viewBox="0 0 32 32" xmlns="http://www.w3.org/2000/svg"><path d="M16 4C9.38 4 4 9.38 4 16c0 6.61 5.38 12 12 12 6.61 0 12-5.39 12-12 0-6.62-5.39-12-12-12Zm0 .56c6.31 0 11.43 5.12 11.43 11.43s-5.125 11.43-11.44 11.43c-6.32 0-11.44-5.125-11.44-11.44C4.549 9.66 9.675 4.54 15.98 4.54Zm0 1.15c-3.6 0-6.76 1.82-8.6 4.625 .24 0 .46 0 .65 0 1.07 0 2.75-.13 2.75-.13 .55-.04.61.77.06.84 0 0-.57.09-1.19.12l3.75 11.125 2.25-6.75 -1.6-4.38c-.56-.04-1.1-.13-1.1-.13 -.56-.04-.5-.88.06-.85 0 0 1.7.12 2.71.12 1.07 0 2.75-.13 2.75-.13 .55-.04.61.77.06.84 0 0-.58.09-1.19.12l3.71 11.06 1.03-3.44c.51-1.34.78-2.47.78-3.35 0-1.28-.45-2.13-.85-2.82 -.52-.85-1-1.59-1-2.44 0-.95.7-1.82 1.71-1.82 .04 0 .07 0 .125 0 -1.84-1.68-4.26-2.69-6.94-2.69Zm9.03 5.34c.04.32.06.68.06 1.06 0 1.04-.2 2.21-.79 3.68l-3.125 9.09c3.06-1.79 5.09-5.11 5.09-8.91 0-1.79-.45-3.48-1.25-4.94Zm-18.44.75c-.58 1.27-.875 2.69-.875 4.18 0 4.07 2.34 7.58 5.78 9.25Zm9.59 5.09l-3.1 8.96c.92.26 1.89.4 2.9.4 1.19 0 2.33-.19 3.4-.57 -.03-.05-.05-.11-.07-.16Z"/></svg>