<svg viewBox="0 0 32 32" xmlns="http://www.w3.org/2000/svg"><path d="M16 4C9.4 4 4 8.5 4 14c0 1.7.5 3.3 1.4 4.8 -.9.8-1.41 1.99-1.41 3.19 0 2.8 2.7 5 6 5 2.5 0 4.6-1.2 5.5-3h1c.9 1.8 3 3 5.5 3 3.3 0 6-2.2 6-5 0-1.2-.51-2.4-1.41-3.2 .9-1.4 1.4-3.01 1.4-4.81 0-5.5-5.4-10-12-10Zm0 2c5.5 0 10 3.6 10 8 0 .3-.03.61-.08.91 -.01.04-.02.08-.03.12 -.05.26-.11.52-.18.78 -.02.03-.03.07-.04.1 -.08.23-.17.46-.27.69 -.43.95-1.08 1.81-1.94 2.57 1.47.49 2.46 1.56 2.49 2.74 -.04 1.58-1.82 2.95-4 2.95 -1.6 0-3.1-.81-3.7-1.91l-.61-1h-1.2 -1 -1.2l-.61 1.09c-.6 1.1-2.1 1.9-3.7 1.9 -2.2 0-4-1.4-4-3 0-.2.03-.39.08-.56 0-.01 0-.02 0-.03 .14-.47.41-.84.63-1.12 .43-.48 1.04-.87 1.77-1.11 -.56-.49-1.02-1.02-1.4-1.59 -.01-.01-.01-.01-.01-.02 -.35-.55-.63-1.13-.82-1.73 -.01-.01-.01-.01-.01-.02 -.09-.28-.15-.55-.2-.84 -.01-.05-.02-.09-.03-.125 -.05-.3-.08-.61-.08-.92 0-4.4 4.5-8 10-8Zm-6 6v3h2v-3h-2Zm3 0v3h8v-3h-8Zm-2 4.19v1.4c2.5 2.4 6.3 3 9 1.7v-1.31c-2.9 1.1-6.4.49-9-1.81Z"/></svg>