<svg viewBox="0 0 32 32" xmlns="http://www.w3.org/2000/svg"><path d="M16 4C9.38 4 4 9.38 4 16c0 6.61 5.38 12 12 12 6.61 0 12-5.39 12-12 0-6.62-5.39-12-12-12Zm0 2c.09 0 .18.02.28.03 .25 0 .5 0 .75.03 .03 0 .06-.01.09 0 .09.01.18.01.28.03 .06 0 .12.01.18.03 .38.06.75.14 1.125.25 .39.1.78.25 1.15.4 0 0 .02-.01.03 0 .16.07.31.17.46.25 .2.1.42.19.625.31 .05.03.1.06.15.09 .06.02.14.07.25.15 0 0-.01.02 0 .03 -1.65-.95-5.38 2.06-5.38 2.06 -1.48-1.13-2.82-1.9-3.82-2.16 -.65-.17-1.15-.13-1.47 0 .16-.11.3-.23.46-.32 .01-.01.01-.03.03-.04 .25-.15.51-.26.78-.375 .01-.01.04-.03.06-.04 .18-.09.37-.16.56-.22 .17-.07.35-.11.53-.16 .25-.08.51-.17.78-.22 .08-.02.16-.02.25-.04 .21-.04.43-.08.65-.1 .03-.01.06 0 .09 0 .33-.04.68-.07 1.03-.07Zm6 2.59c.29 0 .63.06.93.25 .03.03.08.05.12.09 .05.04.1.09.15.15 .14.14.27.28.4.43 .02.03.06.05.09.09 .07.09.14.18.21.28 .12.16.23.33.34.5 .17.26.34.52.5.81 .14.26.28.53.4.81 0 .01.02.04.03.06 .03.07.06.14.09.21 .08.23.17.48.25.71 .09.31.18.61.25.93 0 .04.02.08.03.125 .11.61.15 1.25.15 1.9 0 2.42-.86 4.64-2.29 6.375 -.09.09-.17.18-.25.28 .47-2.52-.4-4.38-1.82-6.69 -1.48-2.35-3.82-4.66-3.82-4.66 2.08-1.96 3.8-2.59 4.15-2.72Zm-12.13.06c.65.04 1.32.29 1.93.68l.06.03c1.3.78 2.34 1.93 2.34 1.93 -1.13 1.08-3.84 4.37-4.75 6.59 -1.35 3.39-.72 4.875-.72 4.875 .17-1.88 2.94-5.18 3.93-6.22 .51-.61 1.53-1.6 2.31-2.38 .56-.61 1.03-1.1 1.03-1.1 .3.3.61.61.87.875 1.25 1.26 2.19 2.26 2.84 3 .65.73 1.78 2.12 2.09 2.56 1.3 1.85 1.55 3.11 1.56 3.18 -.11.12-.23.22-.35.34 -.23.22-.45.45-.69.65 -.25.2-.52.38-.79.56 -.27.17-.53.34-.82.5 -.22.11-.43.24-.66.34 -.05.01-.09.04-.125.06 -.28.11-.56.21-.85.31 -.03 0-.04.02-.07.03 -.26.08-.52.15-.79.21 -.1.02-.19.04-.29.06 -.2.03-.4.03-.6.06 -.46.06-.93.125-1.41.125 -.36 0-.72-.03-1.07-.07 -.67-.08-1.3-.19-1.91-.38 -.01-.01-.03 0-.04 0 -.93-.3-1.81-.75-2.6-1.29 -.01-.01-.03 0-.04 0 -.53-.36-1-.78-1.44-1.22C7 21.14 5.9 18.64 5.9 15.88c0-2.66 1.03-5.04 2.68-6.82 0 0 .42-.54 1.12-.54Z"/></svg>