<svg viewBox="0 0 32 32" xmlns="http://www.w3.org/2000/svg"><path d="M16 4C9.38 4 4 9.38 4 16c0 6.61 5.38 12 12 12 .08 0 .16 0 .25 0 .08 0 .16 0 .25 0v-.04c6.38-.27 11.5-5.53 11.5-11.97 0-5.875-4.26-10.76-9.85-11.79 -.53-.15-1.09-.22-1.66-.22v.03c-.17-.01-.34-.04-.5-.04Zm0 2c.34 0 .69.02 1.03.06 .125.01.25 0 .37.03 .03 0 .06.02.09.03 2 .45 3.5 2.22 3.5 4.37 0 2.49-2.01 4.5-4.5 4.5 -3.58 0-6.5 2.92-6.5 6.5 0 1.07.25 2.07.71 2.96 -2.84-1.77-4.72-4.88-4.72-8.47 0-5.54 4.46-10 10-10Zm6.71 2.625c2 1.82 3.28 4.43 3.28 7.375 0 5.42-4.31 9.8-9.69 9.96 -2.41-.11-4.32-2.04-4.32-4.47 0-2.5 2-4.5 4.5-4.5 3.57 0 6.5-2.93 6.5-6.5 0-.65-.11-1.29-.29-1.875ZM16.49 9c-.83 0-1.5.67-1.5 1.5 0 .82.67 1.5 1.5 1.5 .82 0 1.5-.68 1.5-1.5 0-.83-.68-1.5-1.5-1.5Zm0 11c-.83 0-1.5.67-1.5 1.5 0 .82.67 1.5 1.5 1.5 .82 0 1.5-.68 1.5-1.5 0-.83-.68-1.5-1.5-1.5Z"/></svg>