<svg viewBox="0 0 20 20" xmlns="http://www.w3.org/2000/svg"><path fill="none" d="M0 0h20v20H0Z"/><g><path d="M15.5 10c.54 0 1.04.13 1.5.35V7c0-.55-.45-1-1-1h-4.47l-.8-.8 1.06-1.06 -.53-.53 -2.65 2.66 .53.53 1.06-1.06 .8.8V9c0 .55-.45 1-1 1h-.76c.48.72.76 1.57.76 2.5 0 .17-.03.33-.05.5h2.1c.24-1.69 1.69-3 3.45-3Z"/><path d="M3.5 8H8c0-.55-.45-1-1-1H3.5c-.28 0-.5.22-.5.5s.22.5.5.5Z"/><path d="M15.5 11c-1.38 0-2.5 1.12-2.5 2.5s1.12 2.5 2.5 2.5 2.5-1.12 2.5-2.5 -1.12-2.5-2.5-2.5Zm0 4c-.83 0-1.5-.67-1.5-1.5s.67-1.5 1.5-1.5 1.5.67 1.5 1.5 -.67 1.5-1.5 1.5Z"/><path d="M8.34 11.53l-.14-.35 .45-.19c-.35-.71-.93-1.29-1.64-1.64l-.19.45 -.35-.14 .18-.44C6.29 9.08 5.91 9 5.5 9c-.41 0-.79.08-1.16.21l.18.44 -.34.15 -.19-.45c-.72.34-1.3.92-1.64 1.64l.45.19 -.14.35 -.44-.18c-.14.36-.22.74-.22 1.15 0 .41.08.79.21 1.16l.44-.18 .14.35 -.45.19c.34.72.92 1.3 1.64 1.64l.19-.45 .35.14 -.18.44c.37.13.75.21 1.16.21 .41 0 .79-.08 1.16-.21l-.18-.44 .35-.14 .19.45c.72-.34 1.3-.92 1.64-1.64l-.46-.2 .14-.35 .44.18c.14-.36.22-.74.22-1.15 0-.41-.08-.79-.21-1.16l-.45.19ZM5.5 15C4.12 15 3 13.88 3 12.5 3 11.12 4.12 10 5.5 10 6.88 10 8 11.12 8 12.5 8 13.88 6.88 15 5.5 15Z"/></g></svg>