<svg viewBox="0 0 20 20" xmlns="http://www.w3.org/2000/svg"><path fill="none" d="M0 0h20v20H0Z"/><g><path d="M12.84 8H7.19c-.41 0-.79.26-.93.65L5 12v4.5c0 .28.22.5.5.5H6c.28 0 .5-.22.5-.5v-1h7v1c0 .28.22.5.5.5h.5c.28 0 .5-.22.5-.5V12l-1.22-3.34c-.14-.4-.52-.66-.94-.66ZM7 14.5c-.41 0-.75-.34-.75-.75s.34-.75.75-.75 .75.34.75.75 -.34.75-.75.75Zm6 0c-.41 0-.75-.34-.75-.75s.34-.75.75-.75 .75.34.75.75 -.34.75-.75.75ZM6.07 12l1.12-3h5.65l1.1 3H6.07Z"/><path d="M8.93 3.5C8.71 2.64 7.93 2 7 2c-1.1 0-2 .9-2 2s.9 2 2 2c.93 0 1.71-.64 1.93-1.5H13V6h1V4.5h1v-1H8.93ZM7 5c-.55 0-1-.45-1-1s.45-1 1-1 1 .45 1 1 -.45 1-1 1Z"/></g></svg>