<svg viewBox="0 0 20 20" xmlns="http://www.w3.org/2000/svg"><path fill="none" d="M0 0h20v20H0Z"/><path d="M14.98 9.49L10.5 7.25v-.81c0-.24-.2-.44-.44-.44v0c-.45 0-.88-.26-1.01-.68C8.84 4.63 9.35 4 10 4c.55 0 1 .45 1 1h1c0-1.26-1.17-2.25-2.48-1.94 -.72.16-1.3.75-1.47 1.47 -.26 1.13.45 2.14 1.45 2.4v.32L5.02 9.49C4.4 9.8 4 10.44 4 11.14v.01C4 12.17 4.83 13 5.85 13H6v4h8v-4h.15c1.02 0 1.85-.83 1.85-1.85v-.01c0-.7-.4-1.34-1.02-1.65ZM14.15 12H14v-1H6v1h-.15c-.47 0-.85-.38-.85-.86 0-.32.18-.62.47-.76L10 8.12l4.53 2.27c.29.14.47.44.47.77 -.001.46-.38.84-.85.84Z"/></svg>