<svg viewBox="0 0 24 24" xmlns="http://www.w3.org/2000/svg"><path fill="none" d="M0 0h24v24H0Z"/><g><path d="M18.92 2.01C18.72 1.42 18.16 1 17.5 1h-11c-.66 0-1.21.42-1.42 1.01L3 8v8c0 .55.45 1 1 1h1c.55 0 1-.45 1-1v-1h12v1c0 .55.45 1 1 1h1c.55 0 1-.45 1-1V8l-2.08-5.99ZM6.5 12c-.83 0-1.5-.67-1.5-1.5C5 9.67 5.67 9 6.5 9c.83 0 1.5.67 1.5 1.5s-.67 1.5-1.5 1.5Zm11 0c-.83 0-1.5-.67-1.5-1.5s.67-1.5 1.5-1.5 1.5.67 1.5 1.5 -.67 1.5-1.5 1.5ZM5 7l1.5-4.5h11L19 7H5Z"/><path d="M7 20l4 0 0-2 6 3 -4 0 0 2Z"/></g></svg>