<svg viewBox="0 0 20 20" xmlns="http://www.w3.org/2000/svg"><path fill="none" d="M0 0h20v20H0Z"/><g><path d="M4 12c0 .93.64 1.71 1.5 1.93V16H4v1h4v-1H6.5v-2.07c.86-.22 1.5-1 1.5-1.93V6H4v6Zm1-5h2v2.3H5V7Z"/><path d="M16.35 7.76l-1.2-.45c-.39-.15-.65-.52-.65-.94V3.5c-.001-.28-.22-.5-.5-.5h-2c-.28 0-.5.22-.5.5v2.87c0 .42-.26.79-.65.94l-1.2.45c-.39.14-.65.52-.65.93V16c0 .55.45 1 1 1h6c.55 0 1-.45 1-1V8.69c0-.41-.26-.79-.65-.93ZM12.5 4h1v1h-1V4ZM16 16h-6v-2h6v2Zm0-6h-6V8.69l1.2-.45c.78-.29 1.3-1.04 1.3-1.87V6h1v.37c0 .83.52 1.58 1.3 1.87l1.2.45V10Z"/></g></svg>