<svg viewBox="0 0 20 20" xmlns="http://www.w3.org/2000/svg"><path fill="none" d="M0 0h20v20H0Z"/><g><path d="M16.98 9c.22-2.3-2.99-4-6.98-4C6.01 5 2.78 6.7 3 9h13.98Z"/><path d="M3 14c0 .55.45 1 1 1h11.99c.55 0 1-.45 1-1v-1H3v1Z"/><path d="M16.16 10.62c-.32-.28-.72-.62-1.49-.62s-1.17.34-1.49.62c-.27.23-.44.38-.84.38 -.4 0-.57-.15-.84-.38 -.32-.28-.73-.62-1.49-.62s-1.17.34-1.49.62c-.27.23-.45.38-.85.38 -.4 0-.58-.15-.84-.38 -.32-.28-.72-.62-1.49-.62s-1.17.34-1.49.62c-.27.23-.45.38-.85.38v1c.77 0 1.17-.34 1.49-.62 .27-.23.45-.38.85-.38 .4 0 .58.15.84.38 .32.28.72.62 1.49.62s1.17-.34 1.49-.62c.27-.23.45-.38.85-.38 .4 0 .57.15.84.38 .32.28.72.62 1.49.62s1.17-.34 1.49-.62c.27-.23.44-.38.84-.38 .4 0 .57.15.84.38 .32.28.72.62 1.49.62v-1c-.4 0-.57-.15-.84-.38Z"/></g></svg>