<svg viewBox="0 0 20 20" xmlns="http://www.w3.org/2000/svg"><path fill="none" d="M0 0h20v20H0Z"/><g><path d="M13.29 4.45l2.83 2.83v0c.78-.78.78-2.05 0-2.83L14 2.33c-.39-.39-1.02-.39-1.41 0L9.75 5.15l1.41 1.41 2.13-2.11Z"/><path d="M4.8 11.52v0c.39.39 1.02.39 1.41 0L8.34 9.4 6.92 7.98 4.8 10.1c-.39.39-.39 1.03 0 1.42Z"/><path d="M12.58 6.57l-1.41 1.41 -2.83-2.83c-.39-.39-1.02-.39-1.41 0v0c-.39.39-.39 1.02 0 1.41L9.75 9.4l-.71.7 -5.3 5.3c-.59.59-.59 1.54 0 2.12v0c.59.59 1.54.59 2.12 0l7.42-7.42v0c.39.39 1.02.39 1.41 0v0c.39-.39.39-1.02 0-1.41l-2.11-2.12Z"/></g></svg>