<svg viewBox="0 0 24 24" xmlns="http://www.w3.org/2000/svg"><path fill="none" d="M0 0h24v24H0V0Z"/><path d="M23 8v0c-.01-3.87-3.15-7-7.01-7 -2.7 0-5.16 1.55-6.32 3.99H6.99v2h-2.5v0c-.65-.01-1.22.4-1.42 1.01L.99 13.99v8 0c0 .55.44 1 1 1h1v0c.55 0 1-.45 1-1v-1h12v1 0c0 .55.44 1 1 1h1v0c.55 0 1-.45 1-1v-7.68 0c2.43-1.16 3.99-3.62 4-6.32Zm-18.5.5h4.53 -.001c.11 1.7.85 3.3 2.08 4.5H2.99l1.5-4.5Zm0 9.5v0c-.83 0-1.5-.68-1.5-1.5 0-.83.67-1.5 1.5-1.5v0c.82 0 1.5.67 1.5 1.5 0 .82-.68 1.5-1.5 1.5Zm11 0v0c-.83 0-1.5-.68-1.5-1.5 0-.83.67-1.5 1.5-1.5v0c.82 0 1.5.67 1.5 1.5 0 .82-.68 1.5-1.5 1.5Zm2.93-5.63l-.21.11 -.18.09v0c-.14.05-.28.11-.42.16l-.22.07 -.23.06 -.2.05v0c-2.71.53-5.34-1.24-5.88-3.95 -.04-.16-.06-.32-.07-.47v0c-.03-.17-.04-.34-.03-.5l.02-.47 .02-.17 .04-.28 .04-.21 .05-.21 .07-.24 .05-.13v0c.92-2.6 3.78-3.95 6.37-3.03 1.99.71 3.32 2.6 3.31 4.72h0c.01 1.81-.97 3.49-2.55 4.38ZM15 4h2v5h-2Zm0 6h2v2h-2Z"/></svg>