<svg viewBox="0 0 24 24" xmlns="http://www.w3.org/2000/svg"><path fill="none" d="M0 0h24v24H0Z"/><path d="M15.199 9.945v0c-.44-.42-.72-.96-.79-1.56l-.41-3.083 -2.73 1.48 -.001-.001c-.53.28-1.14.38-1.72.27l-3.06-.57 .57 3.05v0c.1.58.01 1.19-.28 1.72l-1.49 2.73 3.083.4v0c.59.07 1.13.35 1.55.79l2.138 2.25 1.33-2.81v0c.25-.54.69-.98 1.23-1.24l2.8-1.34 -2.26-2.14Zm.02 5.56l-2.22 4.65h-.001c-.15.29-.51.42-.8.28 -.07-.04-.13-.08-.18-.13L8.47 16.56h0c-.1-.1-.23-.17-.36-.19L3 15.7v0c-.33-.05-.56-.35-.52-.68 0-.08.03-.15.06-.21L5 10.28v0c.06-.13.08-.27.06-.4l-.95-5.07v0c-.07-.33.15-.64.47-.7 .07-.02.14-.02.22 0l5.06.94v0c.13.02.27 0 .39-.07l4.52-2.462v0c.29-.16.65-.05.81.24 .03.06.05.13.06.2l.66 5.106v0c.01.13.08.26.18.35l3.73 3.542v0c.24.22.25.6.02.84 -.06.05-.12.09-.18.12l-4.65 2.21 0-.001c-.13.05-.23.15-.29.28Zm.79 1.92l1.41-1.42 4.24 4.24 -1.42 1.41 -4.25-4.25Z"/></svg>