<svg viewBox="0 0 24 24" xmlns="http://www.w3.org/2000/svg"><path fill="none" d="M0 0h24v24H0Z"/><path d="M15.24 4.51L8.5 11.247l-.71 2.12 -1.04 1.04 2.82 2.82 1.04-1.05 2.122-.71 6.73-6.74 -4.25-4.25Zm6.36 3.53v0c.39.39.39 1.02 0 1.41l-7.779 7.77 -2.12.7 -1.42 1.41h-.001c-.4.39-1.03.39-1.42 0L4.61 15.08H4.61c-.4-.4-.4-1.03 0-1.42l1.41-1.42 .7-2.13 7.77-7.78V2.32c.39-.4 1.02-.4 1.41 0l5.657 5.65Zm-6.37-.71l1.41 1.41 -4.95 4.95 -1.42-1.42 4.95-4.95ZM4.27 16.87l2.82 2.82 -1.42 1.41 -4.243-1.42 2.82-2.83Z"/></svg>