<svg viewBox="0 0 24 24" xmlns="http://www.w3.org/2000/svg"><path fill="none" d="M0 0h24v24H0Z"/><path d="M4 18.92l-1.35-.55v0c-.52-.21-.76-.8-.552-1.31l1.9-4.71v6.55Zm4.86 2.07H7v0c-.56 0-1-.45-1-1v-6.08l2.86 7.07ZM6.02 5.95l9.272-3.75v0c.51-.21 1.09.04 1.3.55l5.62 13.908v0c.2.51-.05 1.09-.56 1.3 -.01 0-.01 0-.01 0l-9.28 3.74v0c-.52.2-1.1-.05-1.31-.56 -.01-.01-.01-.01-.01-.01L5.422 7.22h0c-.21-.52.04-1.1.55-1.31ZM8.99 8.99v0c.55 0 1-.45 1-1 0-.56-.45-1-1-1v0c-.56 0-1 .44-1 1 0 .55.44 1 1 1Z"/></svg>