<svg viewBox="0 0 24 24" xmlns="http://www.w3.org/2000/svg"><path fill="none" d="M0 0h24v24H0Z"/><path d="M16.59 1.04l6.34 6.346v0c.19.19.19.51 0 .7 -.08.07-.18.12-.28.14l-1.48.23 -5.66-5.66 .21-1.49v0c.03-.28.29-.47.56-.43 .1.01.2.06.28.14ZM4.58 20.15c3.72-3.34 7.99-4.33 12.643-5.52l.44-4.02 -4.3-4.3 -4.02.44c-1.2 4.64-2.19 8.92-5.52 12.64l-1.4-1.4c2.82-3.3 3.89-6.96 5.303-13.09l6.36-.71 5.65 5.657 -.71 6.36c-6.13 1.41-9.782 2.47-13.081 5.3l-1.4-1.4Zm5.28-6.03v0c-.8-.77-.82-2.04-.05-2.83 .76-.8 2.03-.82 2.82-.05 .01.01.03.03.04.04v0c.76.8.72 2.06-.08 2.82 -.78.73-1.99.73-2.76 0Z"/></svg>