<svg viewBox="0 0 24 24" xmlns="http://www.w3.org/2000/svg"><path fill="none" d="M0 0h24v24H0Z"/><path d="M9.446 8.032l2.55 2.55 6.72-6.728v0c.78-.79 2.04-.79 2.82-.001L9.42 15.96l-.001 0c1.12 1.9.48 4.35-1.42 5.47 -1.91 1.12-4.36.48-5.48-1.42 -1.13-1.91-.49-4.36 1.41-5.48 1.25-.74 2.8-.74 4.06 0l2.55-2.56 -2.56-2.56v0c-1.91 1.12-4.36.48-5.48-1.42 -1.13-1.91-.49-4.36 1.41-5.48 1.9-1.13 4.35-.49 5.47 1.41 .73 1.25.73 2.8 0 4.06Zm5.38 5.38l6.73 6.73v0c-.79.78-2.05.78-2.83 0l-5.317-5.32 1.41-1.42Zm-7.412 3.17h-.001c-.77-.8-2.04-.82-2.83-.05 -.8.76-.82 2.03-.05 2.82 .01.01.03.03.04.04v0c.79.76 2.06.74 2.82-.05 .74-.78.74-2.01 0-2.78Zm0-9.172v0c.79-.77.81-2.04.04-2.83 -.77-.8-2.04-.82-2.83-.05 -.02.01-.04.03-.05.04v0c-.77.79-.75 2.06.04 2.82 .77.74 2 .74 2.77 0Z"/></svg>