<svg viewBox="0 0 24 24" xmlns="http://www.w3.org/2000/svg"><path fill="none" d="M0 0h24v24H0Z"/><path d="M12 13.414l-2.56 2.55v0c1.12 1.9.48 4.35-1.42 5.47 -1.91 1.12-4.36.48-5.48-1.42 -1.13-1.91-.49-4.36 1.41-5.48 1.25-.74 2.8-.74 4.06-.001l2.55-2.56 -6.03-6.02v0c-.79-.79-.79-2.05-.01-2.83 0-.01 0-.01 0-.01l7.43 7.43 7.43-7.44V3.1c.78.78.78 2.04 0 2.828l-6.02 6.02 2.55 2.55v0c1.9-1.13 4.35-.49 5.47 1.41s.48 4.35-1.42 5.47c-1.91 1.12-4.36.48-5.48-1.42 -.74-1.26-.74-2.81-.001-4.07l-2.56-2.56ZM6 20v0c1.1 0 2-.9 2-2 0-1.11-.9-2-2-2v0c-1.11 0-2 .89-2 2 0 1.1.89 2 2 2Zm12 0v0c1.1 0 2-.9 2-2 0-1.11-.9-2-2-2v0c-1.11 0-2 .89-2 2 0 1.1.89 2 2 2Z"/></svg>