<svg viewBox="0 0 24 24" xmlns="http://www.w3.org/2000/svg"><path fill="none" d="M0 0h24v24H0Z"/><path d="M5 8v0C3.34 8 2 6.65 2 5c0-1.66 1.34-3 3-3v0c1.65 0 3 1.34 3 3 0 1.65-1.35 3-3 3Zm14 0v0c-1.66 0-3-1.35-3-3 0-1.66 1.34-3 3-3v0c1.65 0 3 1.34 3 3 0 1.65-1.35 3-3 3Zm0 14v0c-1.66 0-3-1.35-3-3 0-1.66 1.34-3 3-3v0c1.65 0 3 1.34 3 3 0 1.65-1.35 3-3 3ZM5 22v0c-1.66 0-3-1.35-3-3 0-1.66 1.34-3 3-3v0c1.65 0 3 1.34 3 3 0 1.65-1.35 3-3 3ZM9 4h6v2H9V4Zm0 14h6v2H9v-2ZM4 9h2v6H4V9Zm14 0h2v6h-2V9Z"/></svg>