<svg viewBox="0 0 24 24" xmlns="http://www.w3.org/2000/svg"><path fill="none" d="M0 0h24v24H0Z"/><path d="M5.33 3.27v0c1.82-.65 3.82.29 4.47 2.12 .33.93.25 1.96-.22 2.84l10.709 10.71 -1.42 1.41L8.15 9.64v0c-1.71.91-3.83.28-4.75-1.43 -.48-.88-.55-1.91-.22-2.84L5.41 7.6V7.59c.57.59 1.52.61 2.12.03 .59-.58.61-1.53.03-2.13 -.02-.02-.03-.03-.04-.04L5.28 3.22ZM15.69 5.15l3.18-1.77 1.41 1.41 -1.77 3.18 -1.77.35 -2.12 2.12 -1.42-1.42 2.12-2.13 .35-1.77ZM8.97 13.28l1.41 1.41 -5.31 5.3v0c-.39.39-1.03.39-1.42 0 -.36-.36-.4-.94-.08-1.33l.07-.09 5.3-5.31Z"/></svg>