<svg viewBox="0 0 256 391" xmlns="http://www.w3.org/2000/svg"><path fill="#004CFF" d="M1.27-.001l3.04 2.14c9.48 6.6 232.18 161.82 238.39 166.47 8.79 6.17 13.28 13.8 13.28 22.66v4.39c-.11 6.84-2.56 16.46-13.29 24.52l-.04.02c-5.17 3.69-57.75 40.11-113.42 78.7 -4.91 3.39-9.86 6.83-14.83 10.27l-3.32 2.29c-49.17 34.07-98.51 68.27-105.18 72.99v6.13l-3.65-6.13c-.18-.32-.35-.58-.16-1.01h-.12v-32.03c0-10.93 1.2-16.18 13.36-24.29 5.17-3.33 49.52-33.96 94.57-65.13l5.3-3.67c41.51-28.73 82.33-57.04 92.36-63.98C186.39 179.62 27.7 69.46 16.82 61.49l-1.29-.94C7.49 54.72 1.16 50.14 1.16 38.02V-.11Zm20.58 111.36c10.73 6.9 114.56 78.95 115.6 79.69l2.35 1.62 -2.4 1.6s-7.02 4.67-14.81 10.11c-6.67 4.88-12.91 7.33-19.11 7.33 -5.51 0-10.97-1.92-16.71-5.74 -6.13-4.09-23.37-15.99-40.82-28.07l-2.39-1.65C22.14 161.4 1.15 146.81.77 146.54l-.84-.58v-24.47c0-5.62 2.41-10.07 6.66-12.23 4.54-2.32 10.23-1.57 15.19 2.04Z"/></svg>