<svg viewBox="0 0 256 250" xmlns="http://www.w3.org/2000/svg"><rect width="256" height="249.6" rx="42.5" fill="#001E36"/><path fill="#31A8FF" d="M57.64 175.03V65.29c0-.8.34-1.21 1.03-1.21l1.08-.01v0l1.85-.03v0l2.58-.06v0l8.65-.19v0l9.27-.18v0c3.26-.06 6.49-.09 9.7-.09 8.69 0 16.02 1.08 21.98 3.26 5.37 1.81 10.27 4.8 14.34 8.75 3.44 3.42 6.11 7.55 7.81 12.1 1.6 4.43 2.42 9.11 2.4 13.82 0 9.16-2.12 16.71-6.36 22.66 -4.15 5.81-9.93 10.24-16.6 12.75l-.58.21c-6.98 2.6-14.7 3.54-23.17 3.6l-1.32 0v0l-1.96-.02v0l-.99-.02v0l-1.1-.03v0l-.67-.03v0l-.41-.03v0l-.99-.04v0l-1.21-.03v0l-1.83-.02c-.14-.01-.27-.01-.41-.01v34.26c.06.42-.09.85-.39 1.15 -.31.3-.74.44-1.16.38H58.73c-.81-.01-1.21-.46-1.21-1.38Zm23.19-90.34v35.79c1.48.11 2.86.17 4.12.17h5.66c3.9-.02 7.79-.6 11.53-1.73l.74-.24c3.4-1.02 6.44-2.98 8.75-5.67 2.15-2.54 3.26-6.04 3.34-10.5l0-.5c.09-3.33-.78-6.61-2.5-9.45 -1.81-2.76-4.42-4.88-7.48-6.1 -4-1.56-8.26-2.29-12.54-2.15l-2.18 0v0l-1.38.01v0l-1.32.01v0l-1.85.03v0l-1.35.03v0l-.71.02v0l-.94.04v0l-.8.04v0l-.46.03v0l-.4.03c-.07 0-.12.01-.18.02l-.16.02Zm123.93 29.28c-3-1.54-6.18-2.7-9.46-3.45l-.76-.17c-3.62-.83-7.31-1.29-11.01-1.37l-.93-.02c-2.18-.06-4.35.2-6.45.77 -1.34.29-2.53 1.05-3.35 2.14 -.56.87-.86 1.88-.86 2.91 .03 1 .39 1.97 1.03 2.74 .91 1.06 2 1.95 3.23 2.63l.37.19c2.44 1.31 4.97 2.49 7.55 3.52 5.76 1.92 11.27 4.55 16.4 7.81 3.49 2.2 6.38 5.24 8.41 8.84 1.7 3.4 2.56 7.17 2.49 10.99 .1 5.03-1.34 9.97-4.13 14.16 -2.99 4.25-7.13 7.56-11.94 9.53 -5.04 2.21-11.23 3.35-18.56 3.43l-.77 0c-4.55.04-9.09-.36-13.56-1.19l-.96-.19c-3.77-.69-7.43-1.85-10.91-3.44 -.72-.37-1.18-1.1-1.21-1.89l-.01-18.72c-.05-.38.12-.74.42-.95 .3-.18.67-.14.94.08 4.1 2.42 8.57 4.18 13.22 5.23 4.1 1.02 8.3 1.57 12.53 1.63 4 0 6.95-.52 8.84-1.55 1.74-.8 2.85-2.55 2.83-4.47 0-1.49-.86-2.92-2.58-4.3 -.73-.58-1.76-1.21-3.1-1.88l-.65-.32v0l-.69-.33c-.12-.06-.24-.11-.37-.17l-.76-.34c-.13-.06-.27-.12-.4-.17l-.82-.35c-.15-.06-.29-.12-.43-.18l-.89-.36c-.16-.06-.31-.12-.46-.19l-.96-.37v0l-1-.38v0c-5.4-1.88-10.51-4.48-15.2-7.73 -3.36-2.34-6.13-5.43-8.08-9.02 -1.69-3.39-2.55-7.13-2.5-10.91 -.01-4.55 1.23-9.01 3.6-12.88 2.69-4.28 6.57-7.68 11.16-9.79 5.03-2.52 11.33-3.78 18.89-3.78 4.42-.04 8.84.28 13.22.94 3.16.4 6.26 1.23 9.2 2.49 .47.13.85.48 1.03.94 .11.41.17.85.17 1.28v17.34c.02.41-.18.8-.52 1.03 -.47.23-1.02.23-1.48 0Z"/></svg>