<svg viewBox="0 0 256 250" xmlns="http://www.w3.org/2000/svg"><rect width="256" height="249.6" rx="42.5" fill="#49021F"/><path fill="#F36" d="M102.92 65.29v109.39c0 1.14-.52 1.71-1.55 1.71H80.58c-.92 0-1.38-.58-1.38-1.72V65.27c0-.92.51-1.38 1.54-1.38h20.77c.37-.06.75.07 1.03.34 .27.27.39.65.34 1.03Zm81.91 91.01v17.68c.02.63-.31 1.23-.86 1.54 -2.72 1.01-5.56 1.68-8.44 1.99l-.67.06c-3.06.3-6.02.47-8.89.5l-1.08 0c-6.51.1-12.97-1.01-19.07-3.27 -5.38-2.02-10.24-5.19-14.26-9.28 -3.92-4.05-6.99-8.84-9.02-14.09 -2.15-5.53-3.23-11.42-3.18-17.35 -.16-8.11 1.92-16.1 6.01-23.1 3.95-6.58 9.6-11.96 16.35-15.59l.56-.3c7.26-3.9 15.76-5.84 25.5-5.84 3.38-.07 6.77.13 10.13.6 1.97.3 3.92.73 5.83 1.28 .61.42.94 1.14.85 1.88l-.18 17.68c0 1.03-.46 1.43-1.38 1.2 -1.9-.68-3.85-1.17-5.84-1.46 -2.85-.44-5.72-.64-8.59-.61 -4.38-.07-8.71.81-12.71 2.57 -3.68 1.63-6.79 4.32-8.94 7.72 -2.18 3.43-3.27 7.78-3.27 13.05 0 5.95 1.28 10.64 3.86 14.08 2.46 3.35 5.87 5.89 9.78 7.29 3.82 1.4 7.86 2.13 11.93 2.14 2.4.01 4.81-.1 7.21-.33l1.02-.11c1.97-.18 3.93-.56 5.83-1.12 .91-.23 1.37.11 1.37 1.03Z"/></svg>