<svg viewBox="0 0 256 250" xmlns="http://www.w3.org/2000/svg"><path fill="#00005B" d="M45.33 0h165.33c25.06 0 45.33 20.26 45.33 45.33v158.93c0 25.06-20.27 45.33-45.34 45.33H45.31c-25.07 0-45.34-20.27-45.34-45.34V45.31C-.03 20.24 20.23-.03 45.3-.03Z"/><path fill="#99F" d="M60.8 175.04V65.28c0-.75.32-1.18 1.06-1.18l1.54-.01v0l1.19-.02v0l.84-.02v0l.89-.03v0l.96-.04v0l.51-.03c.96-.04 1.93-.07 2.93-.09l3.05-.07c.34-.01.69-.02 1.05-.03l1.07-.04c.96-.04 1.94-.06 2.95-.08l3.09-.06v0l2.14-.05v0l1.09-.04c2.2-.08 4.36-.1 6.5-.11l3.2-.01v0c8.74 0 16 1.06 21.97 3.3 5.33 1.81 10.24 4.8 14.29 8.74 3.41 3.41 6.08 7.57 7.78 12.16 1.6 4.48 2.45 9.06 2.45 13.86 0 9.17-2.14 16.74-6.4 22.72 -4.27 5.97-10.24 10.45-17.18 13.01 -7.02 2.57-14.73 3.56-23.13 3.62l-3.05-.01v0l-1.19-.02v0l-.77-.02v0l-.45-.02v0l-.41-.03v0l-.36-.04c-.22-.03-.45-.04-.7-.06l-.53-.03v0l-.58-.02v0l-.96-.02v0l-1.86-.01v0 34.24c.1.74-.43 1.38-1.18 1.49H61.9c-.86 0-1.28-.43-1.28-1.39Zm23.25-90.35v35.84l1.25.08c1.02.06 1.99.12 2.9.12h5.65c4.16 0 8.32-.64 12.26-1.92 3.41-.96 6.4-2.99 8.74-5.66 2.24-2.67 3.3-6.3 3.3-10.99 .1-3.31-.75-6.62-2.46-9.5 -1.74-2.66-4.17-4.73-7.09-5.93l-.39-.16c-3.95-1.6-8.22-2.24-12.59-2.14l-2.47 0v0l-1.16 0v0l-1.11.01v0l-1.06.02c-.52.01-1.01.03-1.47.05 -.24-.02-.47-.03-.69-.03l-.64-.02c-.11-.01-.21-.01-.31-.01l-.57 0v0l-.52.01c-.09 0-.17 0-.24 0l-.44.02v0l-.39.02c-.06 0-.12.01-.18.01l-.31.03v0l-.14.01Zm72.32 6.18h18.66c1 0 1.82.66 2.18 1.54l.05.15c.32.85.53 1.7.64 2.66 .21 1.06.42 2.24.53 3.3l.08 1.03c.06.88.12 1.81.12 2.8 3.05-3.57 6.69-6.55 10.82-8.85l.59-.33c4.9-2.78 10.56-4.16 16.21-4.16 .74-.11 1.38.42 1.49 1.17v21.22c0 .85-.54 1.17-1.71 1.17 -3.59-.1-7.27.17-10.78.9l-.75.16c-3.1.64-6.08 1.6-8.96 2.88 -2.03.96-3.95 2.24-5.44 3.94v54.4c0 1.06-.43 1.49-1.39 1.49h-21.02c-.86.1-1.6-.43-1.71-1.28v-59.52c0-2.56 0-5.23-.11-8l-.07-2.08v0l-.09-4.16c-.02-.7-.04-1.39-.07-2.09 0-2.46-.22-4.8-.43-7.26 -.11-.54.21-1.07.74-1.18 0-.1.15-.11.26-.04l.05.03Z"/></svg>