<svg viewBox="0 0 256 250" xmlns="http://www.w3.org/2000/svg"><rect width="256" height="249.6" rx="42.5" fill="#470137"/><path fill="#FF61F6" d="M24.31 174.69V65.46c-.04-.34.05-.68.27-.94 .21-.26.52-.42.86-.45l.27-.02v0l.92-.06v0l1.04-.05v0l1.59-.06v0l1.82-.05v0l1.51-.04v0l7.03-.12v0l4.06-.06v0l2.57-.04v0l2.64-.03v0l2.7-.02v0l2.77-.02v0l2.83-.01v0c12.76 0 23.4 2.24 31.9 6.73l.56.3c8.24 4.34 14.98 11.08 19.33 19.32 4.29 8.18 6.44 17.6 6.44 28.25 .12 7.43-1.01 14.83-3.35 21.89 -2.02 5.97-5.12 11.53-9.14 16.4 -3.75 4.47-8.18 8.33-13.14 11.42 -4.85 3.01-10.14 5.27-15.67 6.69 -5.38 1.41-10.92 2.13-16.48 2.14H44.2v0l-2.51-.01v0l-2.44-.02v0l-2.37-.03v0l-2.3-.03v0l-2.72-.05v0l-2.4-.06v0l-1.67-.06v0l-1.45-.06v0l-.64-.04v0l-.59-.04c-.66 0-.98-.58-.98-1.72ZM46.82 84.7v71.09c1.19 0 2.28.02 3.26.08l1.99.11v0l1.02.05c.88.05 1.87.07 2.95.08l.55 0c4.94.06 9.86-.75 14.52-2.41 4.22-1.53 8.04-3.99 11.17-7.22 3.21-3.4 5.66-7.44 7.17-11.85 1.75-5.14 2.61-10.55 2.52-15.98 .1-5.12-.73-10.21-2.45-15.03 -3.01-8.3-9.75-14.7-18.2-17.26 -4.3-1.34-8.78-2.03-13.27-2.07l-1.91 0v0l-1.48.01v0l-.92.01v0l-.86.01v0l-.8.02v0l-.94.03v0l-1.18.05v0l-1.9.1v0l-1.36.07Zm164.19 91.72h-19.964c-.47.06-.95-.1-1.28-.43 -.28-.4-.49-.84-.64-1.29l-.78-3.31v0l-.5-2.15v0l-.73-3.14v0l-.69-3.04v0l-.66-2.94v0l-.63-2.84v0l-.78-3.62v0l-1.1-5.24v0l-1.33-6.39v0l-.87-4.27v0l-1.13-5.72v0l-.82-4.25v0l-.6-3.16v0l-.45-2.42v0l-.22-1.2v0l-.3-1.7v0l-.18-1.07v0l-.17-1.01v0l-.22-1.41c-.03-.15-.05-.3-.07-.45h-.16c-1.07 4.69-2.06 9.24-2.96 13.65 -.91 4.4-1.9 8.84-2.96 13.3l-1.2 4.95v0l-1.3 5.3v0l-1.4 5.66v0l-1.2 4.78v0l-1.58 6.29v0l-1.34 5.28v0c-.22 1.14-.8 1.71-1.76 1.71h-19.97c-.53.05-1.07-.07-1.52-.35 -.34-.34-.59-.75-.72-1.21l-20.77-82.44c-.32-.92.1-1.38 1.27-1.38h20.12c.95 0 1.49.34 1.59 1.03l1.18 5.27v0l.67 3.02v0l1.27 5.74v0l1.34 6.18v0l.86 4.07v0l.54 2.61v0l.34 1.68v0l.33 1.64v0l.31 1.59v0l.44 2.3v0l.41 2.2v0l.25 1.41v0l.24 1.36v0l.33 1.96v0l1.2 7.18v0l.81 4.75v0l.84 4.85v0l.51 3.07v0h.31c.14-1.4.35-2.79.62-4.16l.25-1.22v0l.84-4.18v0l1.05-5.32v0l.4-2.03v0l.75-3.66v0l2.48-11.71v0l1.21-5.8v0l.61-2.95v0l.39-1.82v0l.41-1.87c.07-.32.14-.64.21-.96l.45-1.95v0l.47-2v0l.49-2.05v0l.52-2.1v0l.54-2.15v0l.57-2.2v0l.59-2.25v0c.04-.48.17-.95.39-1.38 .15-.23.55-.35 1.19-.35h20.92c.63 0 1.01.4 1.11 1.2l.48 2.1v0l.7 3.06v0l.44 1.98v0l.85 3.82v0l.79 3.63v0l.74 3.44v0l.51 2.46v0l1.99 9.69v0l.87 4.31v0l.32 1.62v0l.32 1.66v0l.3 1.6v0l.28 1.54c.04.25.09.5.13.75l.25 1.45v0l.23 1.4v0l.21 1.34v0l.2 1.28v0l.37 2.51v0l.27 1.77v0l.18 1.11v0l.17 1.05v0l.17 1v0l.25 1.4v0c.36 1.78.62 3.59.79 5.4h.31c.48-2 .93-4.28 1.32-6.85l.21-1.44v0l.23-1.5v0l.25-1.56v0l.27-1.62c.04-.28.09-.56.14-.84l.31-1.72v0l1.04-5.51v0l.55-2.97v0l.77-4.17v0l.36-1.96v0l.33-1.8v0l.35-1.85v0l.37-1.91v0l.39-1.97v0l.41-2.02v0l.43-2.08v0l.45-2.13v0l.51-2.34v0l.53-2.4v0l.55-2.45v0l.57-2.51v0l.59-2.56v0l.6-2.62v0l.62-2.68v0c.21-.92.69-1.38 1.43-1.38h18.68c.95 0 1.33.51 1.11 1.54l-23 82.26c-.14.43-.36.84-.64 1.2 -.37.27-.83.4-1.28.34Z"/></svg>