<svg viewBox="0 0 256 250" xmlns="http://www.w3.org/2000/svg"><rect width="256" height="249.6" rx="42.5" fill="#300"/><path fill="#FF9A00" d="M124.05 149.79H84.37l-8.08 25.07c-.23.94-1.1 1.59-2.07 1.54h-20.1c-1.15 0-1.55-.63-1.21-1.89l34.34-98.92c.34-1.04.68-2.21 1.03-3.53 .44-2.3.67-4.63.68-6.96 -.05-.34.06-.67.3-.91 .23-.24.57-.35.9-.31h27.3c.8 0 1.25.28 1.37.85l38.98 109.9c.34 1.14-.01 1.71-1.04 1.71h-22.33c-.8.08-1.53-.43-1.72-1.21l-8.76-25.42Zm-33.49-21.64h27.13l-.39-1.28v0l-.63-2.03v0l-.45-1.42v0l-.71-2.24v0l-1.51-4.71v0l-1.33-4.18v0l-3.44-10.87v0c-.89-2.8-1.71-5.51-2.47-8.14l-.63-2.21v0l-.74-2.62v0l-1.13-4.05c-.08-.26-.14-.52-.21-.77h-.18c-.86 4.12-1.91 8.2-3.14 12.23l-2.55 8.19v0l-1.41 4.52v0l-1.42 4.58c-.26.82-.52 1.64-.77 2.45l-.77 2.39v0l-.76 2.34v0l-.76 2.28v0l-.75 2.22c-.25.73-.5 1.45-.75 2.16l-.38 1.06Zm90.5-46.03c-3.55.14-6.98-1.24-9.45-3.78 -2.46-2.66-3.76-6.18-3.61-9.79 -.13-3.59 1.27-7.05 3.86-9.54 2.46-2.37 5.75-3.7 9.16-3.7l.36 0c4.12 0 7.35 1.23 9.7 3.69 2.39 2.58 3.65 6.01 3.52 9.53 .14 3.62-1.19 7.16-3.7 9.78 -2.54 2.49-5.97 3.85-9.51 3.79l-.37-.02Zm-11.86 92.56V92.59c0-1.04.45-1.55 1.37-1.55h21.12c.91 0 1.37.51 1.37 1.54v82.08c0 1.14-.46 1.71-1.38 1.71h-20.96c-.98 0-1.49-.52-1.55-1.55l-.01-.18Z"/></svg>