<svg viewBox="0 0 512 161" xmlns="http://www.w3.org/2000/svg"><path fill="#5A46FF" d="M80.06 160.12c-64.58 0-80.07-15.5-80.07-80.07C-.01 15.47 15.48-.02 80.05-.02c64.57 0 80.06 15.49 80.06 80.06 0 64.57-15.5 80.06-80.07 80.06ZM57.39 39.61L32.27 96.68c-1.15 2.77-2.12 6.35-2.12 9.45 0 14.18 9.94 24.13 24.13 24.13 4.64 0 8.5-1.23 12.43-2.47l0-.01c4.05-1.29 8.18-2.6 13.32-2.6 5.19 0 9.22 1.29 13.2 2.57l0 0c3.88 1.24 7.72 2.48 12.55 2.48 14.18 0 24.13-9.95 24.13-24.14 0-3.1-.98-6.69-2.12-9.46l-25.12-57.08C98.42 29.92 90.27 24.71 80 24.71c-10.28 0-18.43 5.21-22.67 14.83Zm-2.12 66.03l24.78-56.1 24.45 56.09c-7.02-3.43-15.82-5.06-24.46-5.06 -8.97 0-17.45 1.63-24.79 5.05Zm237.42 8.06c.99-.75 1.82-1.49 2.48-2.24v4.59h15.38V35.38h-15.39v29.9c-.67-.75-1.49-1.49-2.49-2.24 -.92-.75-1.99-1.37-3.23-1.87 -1.16-.58-2.49-1.04-3.98-1.37 -1.41-.34-2.82-.5-4.22-.5 -4.06 0-7.66.78-10.8 2.35 -3.15 1.48-5.8 3.55-7.95 6.2 -2.16 2.64-3.81 5.7-4.97 9.18 -1.08 3.47-1.62 7.23-1.62 11.29 0 3.97.53 7.73 1.61 11.29 1.15 3.47 2.81 6.53 4.96 9.18 2.15 2.64 4.79 4.71 7.94 6.2 3.14 1.48 6.74 2.23 10.79 2.23 1.4 0 2.81-.17 4.21-.5 1.48-.34 2.81-.75 3.97-1.25 1.24-.58 2.31-1.2 3.22-1.87v0Zm-1.74-39.1c1.9 1.15 3.3 2.68 4.21 4.59v18.24c-.92 1.9-2.32 3.47-4.22 4.71 -1.91 1.15-4.02 1.73-6.33 1.73 -2.07 0-3.93-.38-5.59-1.12 -1.66-.83-3.07-1.91-4.22-3.23 -1.08-1.41-1.95-3.07-2.61-4.97 -.58-1.91-.87-3.98-.87-6.21 0-2.24.28-4.31.86-6.21 .66-1.91 1.53-3.52 2.6-4.84 1.15-1.41 2.56-2.53 4.21-3.36 1.65-.83 3.51-1.25 5.58-1.25 2.31 0 4.42.62 6.32 1.86v0Zm-56.82 38.47v2.97h14.76V80.67c0-6.71-2.03-11.92-6.09-15.64 -4.06-3.81-9.81-5.71-17.25-5.71 -3.15 0-6.04.45-8.69 1.36 -2.65.91-5.01 2.19-7.08 3.84 -1.99 1.57-3.65 3.43-4.97 5.58 -1.25 2.15-2.07 4.46-2.49 6.94h14.64c.57-1.66 1.53-2.94 2.85-3.85 1.32-.92 3.1-1.37 5.33-1.37 3.06 0 5.29.82 6.7 2.48 1.48 1.65 2.23 3.68 2.23 6.08v4.09c-1.16-.83-2.94-1.58-5.34-2.24 -2.4-.67-4.8-1-7.2-1 -3.07 0-5.92.45-8.57 1.36 -2.57.82-4.84 2.02-6.83 3.59 -1.91 1.48-3.4 3.35-4.47 5.58 -1.08 2.15-1.62 4.55-1.62 7.19 0 2.89.53 5.46 1.61 7.69 1.07 2.23 2.52 4.13 4.34 5.7 1.9 1.48 4.09 2.64 6.57 3.47 2.48.74 5.12 1.11 7.94 1.11 3.06 0 5.83-.42 8.31-1.25 2.56-.92 4.3-1.83 5.21-2.74v0Zm-1.37-18.12c.66.57 1.11 1.24 1.36 1.98v4.09c-.25.74-.71 1.4-1.37 1.98 -.67.57-1.45 1.07-2.36 1.48 -.92.41-1.91.74-2.98.99 -1.08.16-2.16.24-3.23.24 -1.25 0-2.45-.13-3.6-.38 -1.16-.25-2.24-.67-3.23-1.25 -.92-.58-1.66-1.29-2.24-2.11 -.5-.83-.75-1.87-.75-3.11 0-1.16.24-2.16.74-2.98 .57-.92 1.32-1.66 2.23-2.24 .99-.58 2.06-1 3.22-1.25 1.15-.25 2.35-.38 3.59-.38 1.07 0 2.15.12 3.22.37 1.07.16 2.06.49 2.97.99 .91.41 1.69.91 2.35 1.48v0Zm140.02-6.58c0 4.21-.67 8.1-1.99 11.66 -1.33 3.55-3.19 6.61-5.59 9.18 -2.32 2.56-5.18 4.55-8.57 5.95 -3.31 1.4-7 2.1-11.05 2.1 -4.06 0-7.78-.71-11.17-2.11 -3.31-1.41-6.17-3.4-8.57-5.96 -2.32-2.57-4.14-5.63-5.47-9.19 -1.33-3.56-1.99-7.45-1.99-11.67 0-4.31.66-8.2 1.98-11.67 1.32-3.56 3.14-6.62 5.46-9.19 2.39-2.65 5.25-4.68 8.56-6.09 3.39-1.41 7.11-2.11 11.16-2.11s7.73.7 11.04 2.1c3.39 1.4 6.24 3.43 8.56 6.08 2.39 2.56 4.26 5.62 5.58 9.18 1.32 3.47 1.98 7.36 1.98 11.66v0Zm-15.27 0c0-2.32-.25-4.47-.75-6.46 -.5-1.99-1.29-3.69-2.36-5.09 -1-1.41-2.24-2.49-3.73-3.23 -1.49-.83-3.19-1.25-5.09-1.25 -1.91 0-3.6.41-5.09 1.24 -1.49.74-2.78 1.82-3.85 3.22 -1 1.4-1.74 3.1-2.24 5.08 -.5 1.98-.75 4.13-.75 6.45 0 2.31.24 4.46.74 6.45 .49 1.9 1.24 3.55 2.23 4.96 1.07 1.4 2.35 2.52 3.84 3.35 1.48.82 3.18 1.24 5.08 1.24s3.59-.42 5.08-1.25c1.48-.83 2.73-1.95 3.72-3.36 1.07-1.41 1.86-3.07 2.35-4.97 .49-1.99.74-4.14.74-6.46Zm38.62-27.8h-15.39v55.47h15.38V80.92c.24-1.25.7-2.32 1.36-3.23 .66-1 1.44-1.83 2.35-2.49 .91-.67 1.9-1.16 2.97-1.49 1.07-.34 2.19-.5 3.35-.5 3.06 0 5.33.91 6.82 2.73 1.48 1.82 2.23 4.17 2.23 7.07v33h15.38V79.77c0-6.13-1.7-11.05-5.09-14.77 -3.4-3.81-8.24-5.71-14.52-5.71 -3.15 0-6.04.62-8.69 1.86 -2.65 1.24-4.72 2.73-6.21 4.46v-5.09 0Zm45.15 55.47V60.56h15.38v55.47h-15.39Zm16.87-71.48c0 2.64-.92 4.79-2.74 6.45 -1.82 1.57-3.98 2.35-6.46 2.35 -2.4 0-4.51-.79-6.33-2.36 -1.83-1.66-2.74-3.81-2.74-6.46 0-2.57.91-4.64 2.73-6.21 1.82-1.66 3.93-2.49 6.32-2.49 2.48 0 4.63.82 6.45 2.48 1.81 1.57 2.73 3.64 2.73 6.2Zm24.99 59.56c-1.66-1-2.78-2.53-3.35-4.6h-15.27c.41 2.81 1.28 5.33 2.6 7.56 1.4 2.15 3.18 4.01 5.33 5.58 2.15 1.48 4.63 2.6 7.44 3.35 2.81.82 5.91 1.24 9.3 1.24 3.14 0 6.12-.42 8.93-1.25 2.81-.83 5.21-1.99 7.19-3.48 2.06-1.58 3.68-3.48 4.83-5.71 1.15-2.24 1.73-4.76 1.73-7.57 0-4.22-1.25-7.66-3.73-10.31 -2.49-2.65-6.17-4.6-11.05-5.84l-11.42-2.61c-1.74-.42-3.03-.96-3.85-1.62 -.75-.75-1.12-1.66-1.12-2.74 0-1.74.74-3.02 2.23-3.85 1.57-.92 3.26-1.37 5.08-1.37 2.56 0 4.51.53 5.83 1.61 1.4.99 2.35 2.27 2.85 3.84h14.51c-.83-5.3-3.19-9.48-7.08-12.54 -3.89-3.07-9.31-4.6-16.26-4.6 -3.15 0-6.09.45-8.82 1.36 -2.65.82-4.97 2.02-6.95 3.59 -1.99 1.57-3.56 3.47-4.72 5.7 -1.08 2.15-1.62 4.59-1.62 7.32 0 4.71 1.32 8.27 3.97 10.67 2.72 2.31 6.2 3.97 10.42 4.96l11.16 2.48c1.9.49 3.26 1.11 4.09 1.86 .9.66 1.36 1.61 1.36 2.85 0 .91-.21 1.73-.63 2.48 -.33.66-.83 1.19-1.5 1.61 -.66.41-1.49.74-2.49.99 -1 .24-2.07.37-3.23.37 -2.32 0-4.31-.5-5.96-1.49v0Z"/></svg>