<svg viewBox="0 0 512 161" xmlns="http://www.w3.org/2000/svg"><g fill="#E25027"><path d="M406.42 89.67c-11.35 0-22.69 0-34.04 0 -.03 1.27-.24 2.99 0 4.43 .08.5.15 1.58.36 2.21 .06.18.56 1.23.74 1.48 1.01 1.43 5.23 2.76 8.14 2.95 6.93.47 16.99-1.77 21.08-2.96 1.54 4.24 2.29 9.3 2.95 14.42 -9.1 2.77-19.59 4.77-29.6 3.7 -1.3-.14-1.98-.04-3.7-.37 -.2-.04-2.99-.7-4.82-1.48 -1.51-.65-4.6-2.33-6.29-3.7 -.79-.64-1.63-1.22-2.23-1.86 -.32-.34-1.66-1.92-1.86-2.23 -.48-.72-1.28-2.64-1.86-4.07 -.32-.79-.52-1.49-.74-2.22 -2.39-7.94-2.66-28.91.73-36.26 .44-.96 1.08-3.29 1.85-4.45 .26-.41 1.37-1.12 1.85-1.85 1.82-2.82 6.42-5.13 10.35-6.29 .72-.22 2.5-.83 4.06-1.12 2.49-.47 7.68-.46 9.25-.37 1.52.08 3.09.17 4.43.36 .54.07 2.89.39 4.07.82 1.71.62 5.06 2.21 5.54 2.5 1.67 1.01 3.58 2.7 4.44 3.69 .57.67 1.3 2 1.85 2.96 3.88 6.8 3.54 17.56 3.32 29.59Zm-17.76-19.24c-.08-.99-.54-2.2-.74-2.6 -.74-1.39-2.07-2.14-2.22-2.22 -1.56-.91-5.69-1.16-7.78-.75 -4.67.93-6.2 5.54-5.55 10.36 5.42 0 10.85 0 16.27 0 .06-1.41.13-3.21 0-4.82Z"/><path d="M464.76 114.83c-1.93 0-4.66 0-7.41 0 -2.53 0-6.47.06-7.09-.22 -1.75-.81-1.53-2.06-2.17-3.86 -6.1 3.27-16.25 7.67-24.79 4.44 -.74-.28-3.24-1.5-4.45-2.6 -2.95-2.69-5.11-7.97-5.56-12.95 -.75-8.36 1.57-14.97 6.66-18.13 1.32-.83 4.33-2.27 7.02-2.6 6.19-.76 10.88.54 18.86 0 .12-1.27.06-3.09 0-4.81 -.08-2.05.03-3.69-.37-4.81 -.5-1.36-1.89-2.67-3.34-3.33 -1.23-.57-4.87-.74-7.03-.74 -6.2 0-13.82 1.27-17.76 1.84 -.51-4.92-1.77-9.09-2.23-14.06 5.5-2.29 13.6-2.53 20.34-3.33 1.85-.23 3.97-.11 6.29 0 4.17.19 7.63.72 11.09 1.84 2.88.93 4.07 1.61 5.91 2.96 .84.62 1.79 1.6 2.13 1.99 .58.68 1.73 2.41 2.3 3.91 1.19 3.16 1.67 8.41 1.85 12.58 .53 12.77-.12 29.92-.38 41.8ZM432.57 93c-1.48 1.42-1.45 5.9 0 7.39 1.01 1.04 2.28 1.12 2.22 1.1 3.7.79 9.8-1.36 11.46-2.97 -.86-1.49-.13-4.56-.38-6.66 -4.37.5-11.09-1.05-13.32 1.1Z"/><path d="M512 67.47c-5.83 2.68-11.94 5.07-17.02 8.51 0 12.94 0 25.89 0 38.84 -6.29 0-12.58 0-18.87 0 0-21.34 0-42.67 0-64.01 4.25-.01 11.54-.04 15.14.23 .76 0 .61.95 1.13 2.72 .28.96.43 2.07.73 2.96 .1.4.43.2.73 0 1.66-1.13 4.33-2.63 6.66-3.71 2.76-1.29 6.22-2.47 9.24-3.33 .31-.07.34.14.37.36 .59 2.82 1.45 11.14 1.85 17.38Z"/></g><g fill="#669EB2"><path d="M27 61.68c8.51 0 17.01 0 25.52 0 2.36 7.24 4.44 14.54 6.65 21.82 1.64 5.41 3.58 10.81 5.17 16.27 .55 1.88.92 3.73 1.47 5.55 4.44 14.53 9.21 28.94 13.31 43.65 -6.79 0-13.57 0-20.35 0 -1.68-5.61-3.07-11.49-4.81-17.02 -.75 0-27.78.15-28.86.36 -1.89 5.26-3.15 11.15-4.81 16.64 -6.79 0-13.57 0-20.35 0 6.35-21.67 12.85-43.22 19.6-64.75 2.25-7.2 4.13-14.41 6.65-21.46 -.02-.64.27-.96.73-1.11Zm11.84 19.6c-2.86 11.05-6.21 22.84-9.25 34.03 .63.04 18.67-.03 19.6 0 -3.12-11.81-6.2-23.65-9.62-35.15 -.36.13-.65.75-.75 1.1Z"/><path d="M134.2 123.84c-11.35 0-22.7 0-34.04 0 -.12 2.02 0 3.63.36 5.17 .2.84.35.97.74 1.85 .97 2.18 3.43 3.14 4.06 3.32 3.01.89 5.99.7 9.98.36 3.96-.34 7.68-.73 11.09-1.48 1.72-.38 3.26-.68 4.43-.75 1.05 4.49 2.03 9.83 2.58 14.05 -5.98 1.93-13.29 3.57-20.72 4.07 -5.96.39-11.86-.29-16.68-2.02 -.88-.32-1.82-.6-2.57-.95 -1.19-.55-2.7-1.61-4.07-2.59 -.14-.1-2.47-2.33-3.71-4.07 -1.24-1.75-3.46-5.74-4.07-8.88 -.72-3.66-.38-8.35-.38-12.95 0-4.71-.37-9.57 0-13.69 .31-3.51 1.46-6.88 2.96-9.63 1.05-1.94 2.09-3.94 3.32-5.18 .3-.31 1.91-1.64 2.21-1.86 2.55-1.77 6.36-3.06 9.98-4.07 4.17-1.17 11.4-.89 16.27 0 1.62.29 3.01.6 4.43 1.1 1.25.44 2.58.97 3.55 1.5 .64.35 1.67 1 1.78 1.06 4.92 3.03 7.84 10.45 8.34 17.03 .42 5.44.13 11.88-.01 18.49Zm-20.35-23.68c-3.34-2.16-10.4-1.05-12.21 1.1 -.12.14-.65.97-.74 1.11 -1.1 1.59-.8 5.78-.75 7.02 5.42 0 10.85 0 16.27 0 .23-4.61-.33-7.78-2.6-9.25Z"/><path d="M179.99 101.27c-.14.83-.45.83-1.85 1.48 -1.88.85-4.57 1.56-6.67 2.58 -2.93 1.42-6.2 3.11-8.14 4.43 0 13.07 0 26.14 0 39.21 .01.03-19.24.03-19.31-.04 0-21.09.06-42.51.06-63.6 3.81-.05 12.09-.01 15.9 0 .35 1.98.63 3.55 1.11 5.91 5.2-2.94 10.72-5.55 17.01-7.4 1.3 5.1 1.76 13.23 1.84 17.38Z"/></g><g fill="#E25027"><path d="M363.12 61.19l-3.16-15.97c-.26-1.25-1.1-2.25-2.1-2.46l-9.28-1.9c2.15 4.38 3.78 9.11 4.75 14.15 .95 4.92 1.19 9.82.85 14.6l7.91-5.38c.84-.58 1.24-1.82 1-3.08Z"/><path d="M353.52 54.2c-6.31-30.51-36.15-50.13-66.65-43.83 -30.51 6.3-50.13 36.14-43.83 66.64 5.52 26.73 29.12 45.1 55.4 44.99 -18.66-3.07-34.39-17.28-38.45-36.9 -5.26-25.44 11.1-50.32 36.54-55.58 25.43-5.26 50.31 11.1 55.57 36.54 .94 4.55 1.17 9.09.8 13.5 2.06-8.07 2.38-16.71.58-25.4Z"/><path d="M242.32 60.64l-9.42 6.22c-.86.56-1.27 1.8-1.04 3.05l3.03 15.98c.23 1.25 1.08 2.26 2.08 2.48l11.06 2.39c-2.26-4.5-3.96-9.37-4.95-14.55 -1.02-5.27-1.24-10.51-.79-15.6Z"/><path d="M302.26 9.65l-5.78-8.58c-.58-.85-1.82-1.26-3.08-1.02l-15.97 3.1c-1.26.24-2.26 1.08-2.47 2.08l-2.15 10.31c4.56-2.32 9.51-4.05 14.78-5.07 4.94-.95 9.84-1.2 14.63-.85Z"/><path d="M261.8 22.94l-10.58-2.07c-1.01-.2-2.18.4-2.89 1.45l-9.11 13.48c-.72 1.06-.83 2.36-.27 3.21l5.94 9.07c3.22-9.77 9.06-18.49 16.87-25.17Z"/><path d="M254.98 101.39l-2.2 10.93c-.2 1 .39 2.16 1.45 2.88l13.47 9.11c1.05.71 2.36.82 3.22.26l9.07-5.88c-9.76-3.37-18.43-9.37-25.03-17.33Z"/><path d="M340.42 28.66l1.9-9.49c.2-1-.39-2.17-1.45-2.89l-13.48-9.12c-1.06-.72-2.37-.83-3.23-.28l-8.41 5.44c9.51 3.14 18.03 8.78 24.63 16.31Z"/></g><path fill="#EB8467" d="M334.7 77.65c.12-11.03-8.97-17.38-17.52-19.66 -2.48-.66-4.99-.95-7.46-.85 -10.43.42-19.01 7.59-21.84 18.26 -1.77 6.63-1.02 13.34 2.1 18.87 3.08 5.47 8.26 9.41 14.57 11.09 2.64.7 5.31 1 7.92.9 4.05-.17 9.61-1.43 14.38-6.17l-23.52-6.26c-1.04-.28-1.66-1.35-1.39-2.38l2.69-10.12c.27-1.04 1.33-1.66 2.37-1.38l38.12 10.14c.84-3.19 1.25-6.53 1.17-9.93l-9.82-.61c-1.04-.07-1.84-.93-1.83-1.97Z"/><path fill="#669EB2" d="M252.26 122.05l-5.95-4.05c-.01-.09-.01-.18-.02-.26 -.2-2.02-.59-4-1.14-5.92 -.03-.09-.06-.17-.08-.25l4.05-6.11c.33-.51.28-1.29-.14-1.93l-5.29-8.1c-.42-.64-1.11-1-1.7-.89l-7.17 1.35c-.07-.06-.13-.12-.2-.17 -1.48-1.23-3.07-2.33-4.77-3.29 -.08-.04-.16-.08-.23-.12L228.16 85c-.13-.6-.71-1.11-1.45-1.26l-9.43-1.92c-.74-.16-1.48.08-1.82.58l-4.07 6.03c-.09 0-.17 0-.26.01 -2.02.18-4 .57-5.92 1.13 -.09.02-.17.05-.26.08l-6.04-4.03c-.51-.34-1.28-.28-1.91.14l-8.03 5.37c-.64.42-.99 1.11-.88 1.71l1.3 7c-.06.06-.12.12-.17.18 -1.32 1.58-2.5 3.31-3.51 5.15 -.05.07-.08.15-.12.22l-7.15 1.41c-.6.11-1.11.7-1.26 1.45l-1.98 9.51c-.16.74.07 1.49.57 1.84l5.97 4.18c0 .08 0 .16.01.25 .18 2.07.57 4.09 1.14 6.06 .02.08.05.16.07.24l-4.04 6.06c-.34.5-.29 1.28.13 1.92l5.28 8.09c.41.63 1.1.99 1.69.88l7.09-1.34c.06.05.12.11.19.17 1.59 1.32 3.32 2.5 5.17 3.51 .07.04.15.07.22.11l1.36 7.08c.11.59.7 1.1 1.44 1.25l9.41 1.93c.74.15 1.47-.09 1.82-.6l4.13-6.06c.08-.02.17-.02.25-.02 1.36-.15 2.69-.38 4.01-.7 -1.93.2-3.89.2-5.89-.09 -13.15-1.87-22.3-14.04-20.43-27.19 1.86-13.15 14.03-22.3 27.18-20.43 13.14 1.86 22.29 14.03 20.42 27.18 -.43 3.02-1.43 5.81-2.83 8.33 .96-1.29 1.86-2.63 2.64-4.06 .04-.08.07-.16.11-.24l7.09-1.5c.58-.13 1.09-.73 1.24-1.48l1.9-9.54c.15-.76-.09-1.5-.59-1.84Z"/></svg>