<svg viewBox="0 0 512 45" xmlns="http://www.w3.org/2000/svg"><path fill="#C4373A" d="M209.04 0c3.27 0 6.26.59 8.97 1.76 2.68 1.18 4.99 2.79 6.94 4.81 1.91 2.02 3.41 4.37 4.46 7.04 1.05 2.67 1.58 5.48 1.58 8.42 .03.04.03.08 0 .12 0 2.94-.55 5.76-1.61 8.45 -1.08 2.69-2.57 5.05-4.5 7.07 -1.94 2.02-4.27 3.63-6.98 4.84 -2.71 1.2-5.71 1.8-9.01 1.8 -3.29 0-6.29-.6-8.96-1.79 -2.7-1.18-5.01-2.79-6.95-4.81 -1.94-2.03-3.43-4.38-4.47-7.05 -1.06-2.69-1.59-5.49-1.59-8.43v-.13c0-2.94.52-5.77 1.6-8.46 1.06-2.7 2.58-5.07 4.5-7.09 1.94-2.03 4.24-3.63 6.97-4.84 2.71-1.21 5.7-1.81 9-1.81Zm59.79.12c3.17 0 5.93.43 8.3 1.31 2.36.88 4.64 2.19 6.87 3.95l-2.84 3.74c-2.02-1.64-4.04-2.83-6.08-3.56 -2.05-.74-4.16-1.11-6.39-1.11 -2.84 0-5.08.66-6.73 1.99 -1.64 1.32-2.46 2.96-2.46 4.93v.12c0 1.01.17 1.92.48 2.71 .33.8.92 1.53 1.79 2.21 .86.67 2.04 1.28 3.57 1.84 1.51.55 3.46 1.07 5.85 1.55 4.8 1.02 8.35 2.48 10.64 4.37 2.27 1.9 3.41 4.48 3.41 7.76v.11c0 1.83-.37 3.5-1.11 4.99 -.73 1.49-1.75 2.77-3.02 3.82 -1.3 1.06-2.85 1.87-4.66 2.45 -1.81.56-3.77.85-5.92.85 -3.46 0-6.61-.57-9.47-1.7 -2.87-1.13-5.59-2.84-8.18-5.18l3.02-3.57c2.26 2.05 4.53 3.56 6.84 4.56 2.3 1 4.95 1.49 7.96 1.49 2.91 0 5.24-.68 6.97-2.05 1.75-1.38 2.62-3.12 2.62-5.24v-.14c0-.98-.17-1.87-.5-2.67 -.34-.8-.9-1.53-1.72-2.18 -.83-.66-1.97-1.26-3.44-1.78 -1.47-.53-3.33-1.05-5.6-1.54 -2.46-.54-4.63-1.15-6.46-1.84 -1.84-.7-3.36-1.54-4.55-2.52 -1.2-.98-2.08-2.13-2.67-3.45 -.58-1.3-.87-2.84-.87-4.59v-.12c0-1.68.34-3.23 1.04-4.67 .71-1.43 1.68-2.67 2.96-3.72 1.27-1.04 2.77-1.86 4.51-2.46 1.72-.59 3.6-.89 5.65-.89ZM48.57.21v5.2l-11.4 5.02v23.35l11.39 5.07v4.96L5.1 24.25l-5.13-2.19 5.12-2.36L48.54.15Zm56.01.51v4.47H78.25V19.7h23.55v4.48H78.24v14.95h26.63v4.46h-31.5V.68h31.19Zm299.03 0v25.62L428.38.71h6.28l-18.5 18.75 19.3 24.15h-6.11l-16.6-20.78 -9.19 9.25V43.6h-4.89V.69h4.88Zm85.44 0v4.47h-26.33V19.7h49.25v4.48h-49.26v14.95h26.64v4.46h-31.51V.68h31.19ZM371.29.71v42.9h-4.88V.7h4.87ZM326.16.7c2.42 0 4.62.31 6.62.95 1.98.63 3.69 1.52 5.11 2.69 1.41 1.16 2.5 2.57 3.25 4.25 .76 1.67 1.16 3.57 1.16 5.7v.12c0 2.32-.46 4.36-1.36 6.1 -.92 1.73-2.14 3.19-3.68 4.37 -1.54 1.18-3.35 2.08-5.4 2.66 -2.07.6-4.24.9-6.56.9h-10.48v15.13h-4.87V.66h16.16ZM148.02.7c2.66 0 5.05.38 7.13 1.13 2.06.75 3.78 1.81 5.13 3.15 1.06 1.05 1.88 2.31 2.47 3.73 .57 1.42.85 3 .85 4.72v.11c0 1.75-.29 3.33-.86 4.75 -.59 1.4-1.39 2.63-2.43 3.67 -1.06 1.04-2.3 1.9-3.75 2.57 -1.44.66-3 1.17-4.69 1.49l13.25 17.52h-5.98l-12.53-16.67h-12.32v16.66h-4.88V.62h18.55Zm60.85 3.73c-2.46 0-4.73.45-6.81 1.38 -2.09.92-3.87 2.18-5.34 3.77 -1.48 1.59-2.64 3.45-3.49 5.57 -.84 2.12-1.26 4.41-1.26 6.86v.12c0 2.44.42 4.75 1.25 6.89 .85 2.14 2.03 4.02 3.54 5.6 1.52 1.6 3.32 2.86 5.39 3.8s4.35 1.4 6.81 1.4 4.74-.45 6.81-1.38c2.07-.92 3.84-2.19 5.32-3.77 1.47-1.6 2.64-3.47 3.48-5.58 .84-2.13 1.25-4.42 1.25-6.87v-.13c0-2.46-.41-4.76-1.26-6.9 -.84-2.15-2.04-4.02-3.54-5.61 -1.54-1.6-3.33-2.88-5.41-3.81 -2.09-.94-4.36-1.42-6.83-1.42ZM32.76 12.31l-22.01 9.74 22 9.8V12.3ZM325.8 5.16h-10.95v18.81h10.7c1.79 0 3.43-.23 4.88-.68 1.44-.46 2.67-1.09 3.73-1.92 1.06-.85 1.84-1.84 2.4-3.01 .56-1.16.84-2.44.84-3.82v-.13c0-3.06-1.07-5.36-3.2-6.94 -2.12-1.58-4.94-2.35-8.44-2.35Zm-178.13 0h-13.35v17.4h13.28c1.6 0 3.08-.21 4.45-.61 1.35-.42 2.52-.99 3.51-1.75 .99-.76 1.76-1.67 2.31-2.77 .55-1.09.83-2.31.83-3.71v-.13c0-2.66-.97-4.73-2.9-6.22 -1.94-1.5-4.66-2.25-8.17-2.25Z"/></svg>