<svg viewBox="0 0 512 192" xmlns="http://www.w3.org/2000/svg"><path fill="#0073CF" d="M56.95 146.88l-9 40.16c0 1.19-1.2 1.79-2.4 1.79H2.38c-.6 0-1.8-.6-1.8-1.2 -.6-.6-.6-1.2-.6-1.8L56.93 13.16s1.19-3 4.79-4.2c12.59-2.4 32.37-5.4 46.16-7.8 2.99-.6 4.19 2.39 4.19 2.39L167.82 187c0 .59 0 1.19-.6 1.79 -.6.59-1.2.59-1.8.59h-25.19c-6.6 0-19.79.59-24.59.59 -1.2 0-2.4-.6-2.4-1.8l-9-40.77 -47.37-.6Zm40.16-35.38c-3.6-14.39-9-40.17-14.39-62.36 -3.6 15.58-12 47.36-16.19 62.35H97.1v0Zm127.7-42.57c30.57-20.99 56.35-16.19 68.94-3.6 14.98 15.58 6.59 35.97 11.39 121.7 0 .59 0 1.19-.6 1.79 -.6.59-1.2.59-1.8.59 -4.8 0-13.79-.6-17.99-.6 -7.2 0-22.19.59-28.18.59 -.6 0-1.2 0-1.8-.6 -.6-.6-.6-1.2-.6-1.8 .59-83.94 1.19-95.33-13.79-95.33 -5.4 0-9.6 2.39-14.39 4.19 0 43.16.59 55.75 2.39 90.52 0 .59 0 1.19-.6 1.19 -.6.59-1.2.59-1.2.59l-47.97.59c-.6 0-1.2 0-1.2-.6 -.6-.6-.6-1.2-.6-1.2 1.19-125.31 0-151.09-3.6-177.47 -1.8-1.2.59-1.2.59-1.2 21.58-3 23.38-3.6 47.96-8.4 0 0 2.39 0 2.39 2.99 .59 18.58.59 65.94.59 65.94Zm164.27 107.31c-9 6.59-26.38 15.58-40.77 15.58 -22.19 0-35.98-16.19-35.98-40.17 0-37.18 43.76-47.97 74.94-52.16 .59-6 .59-12.6-14.99-12.6 -15.59 0-28.78 4.79-42.57 10.19 -.6.59-1.8 0-2.4 0 -.6-.6-1.2-1.2-1.2-2.4l1.19-28.78c0-1.2.59-1.8 1.79-2.4 28.17-8.4 76.14-14.99 95.92 3.59C437.6 78.48 437 92.86 436.4 116.85c-.6 34.77 0 44.36 1.79 70.14 0 .59 0 1.19-.6 1.79 -.6.59-1.2.59-1.8.59l-44.37.59c-.6 0-1.2 0-1.8-.6 -.6-.6-.6-1.2-.6-1.8v-11.4 0Zm-1.2-49.77c-11.4 1.19-28.78 2.39-28.78 17.38 0 13.18 14.38 17.38 28.77 8.39v-25.78 0Zm80.33.59c-1.2 0-2.4-1.2-2.4-2.4 -3-65.35-3.6-72.55-7.2-113.32 0-1.2.59-2.4 2.39-3l47.96-7.8c.59-.001 1.79-.001 2.39.59 .59.59.59 1.19.59 2.39 -3 29.37-6 85.13-6.6 120.5 0 1.19-1.2 2.39-2.4 2.39l-34.78.59v0Zm-8.37 55.66c-.03-.21-.03-.41-.03-.6 0-8.14.2-16.48.25-23.7 -.01-2.67-.1-5.33-.26-7.98 0-.42 0-.83.19-1.24 -.04-1.38-.1-2.76-.2-4.13 0-.6 0-1.22.6-1.82 .61-.62 1.21-.62 1.82-.62 12.14 1.21 33.39.61 43.1-.61 .6 0 1.21 0 1.82.6 .6.61.6 1.21.6 1.82 0 1.6-.01 3.2-.03 4.77 .01.19.02.39.02.59v37.17c0 .59 0 1.19-.6 1.79 -.6.59-1.2.59-1.8.59 -17.39-.6-28.18-.6-43.17.59 -.6 0-1.2 0-1.8-.6 -.6-.6-.6-1.2-.6-1.8 0-1.62 0-3.26.02-4.9v0Z"/></svg>