<svg viewBox="0 0 256 275" xmlns="http://www.w3.org/2000/svg"><path fill="#FF385C" d="M252.15 194.86c-1.24-3.46-2.68-6.81-4.04-9.9 -2.11-4.77-4.32-9.55-6.45-14.16l-.17-.37c-19.04-41.24-39.48-83.03-60.74-124.23l-.91-1.75c-2.17-4.21-4.42-8.56-6.72-12.84 -2.73-5.41-6.04-10.51-9.88-15.2 -4.32-5.15-9.72-9.3-15.81-12.14 -6.1-2.85-12.75-4.32-19.47-4.32 -6.73 0-13.38 1.47-19.47 4.31 -6.1 2.84-11.49 6.98-15.81 12.13 -3.84 4.69-7.14 9.78-9.87 15.19 -2.33 4.31-4.59 8.7-6.78 12.94l-.84 1.62c-21.27 41.19-41.7 82.99-60.74 124.22l-.28.59c-2.1 4.54-4.27 9.23-6.34 13.92 -1.37 3.09-2.81 6.43-4.04 9.9 -3.54 9.43-4.66 19.6-3.28 29.58 1.46 10.08 5.54 19.61 11.83 27.64 6.29 8.02 14.57 14.27 24.02 18.12 7.14 2.88 14.77 4.36 22.48 4.34 2.42 0 4.83-.15 7.24-.43 9.74-1.25 19.14-4.42 27.64-9.33 11.15-6.27 22.16-15.45 34.19-28.57 12.03 13.11 23.04 22.3 34.19 28.56 8.5 4.91 17.9 8.08 27.64 9.32 2.4.27 4.82.42 7.24.42 7.7.01 15.33-1.46 22.47-4.35 9.45-3.86 17.73-10.11 24.02-18.13 6.29-8.03 10.37-17.56 11.83-27.65 1.37-9.99.25-20.15-3.28-29.59Zm-124.16 14.3c-14.9-18.88-24.46-36.41-27.81-51.11 -1.38-5.51-1.7-11.23-.96-16.85 .58-4.13 2.1-8.07 4.43-11.52 2.86-3.72 6.55-6.74 10.77-8.81 4.21-2.08 8.85-3.15 13.55-3.15 4.7 0 9.34 1.07 13.55 3.15 4.21 2.07 7.9 5.08 10.77 8.8 2.33 3.45 3.84 7.39 4.43 11.52 .74 5.62.41 11.34-.97 16.85 -3.36 14.69-12.92 32.22-27.81 51.09Zm110.03 12.8c-1.03 7.05-3.88 13.71-8.28 19.32 -4.4 5.61-10.19 9.98-16.81 12.67 -6.69 2.67-13.94 3.62-21.09 2.75 -7.44-.96-14.6-3.41-21.06-7.2 -9.93-5.58-19.98-14.14-31.29-26.7 17.99-22.2 29.23-42.66 33.4-60.88 1.87-7.67 2.27-15.61 1.19-23.43 -.99-6.73-3.49-13.15-7.31-18.78 -4.49-6.07-10.34-11.01-17.08-14.41 -6.75-3.41-14.2-5.18-21.75-5.18 -7.56 0-15.01 1.77-21.75 5.17 -6.75 3.39-12.6 8.33-17.08 14.4 -3.83 5.62-6.33 12.04-7.31 18.77 -1.09 7.8-.68 15.75 1.19 23.41 4.15 18.22 15.39 38.69 33.4 60.89 -11.31 12.55-21.36 21.11-31.29 26.69 -6.47 3.78-13.63 6.23-21.06 7.19 -7.16.86-14.41-.09-21.09-2.76 -6.62-2.7-12.41-7.07-16.8-12.68 -4.4-5.62-7.26-12.28-8.28-19.34 -.99-7.17-.15-14.48 2.43-21.24 .98-2.77 2.13-5.48 3.55-8.7 2.01-4.56 4.15-9.19 6.22-13.67l.27-.61c18.93-41 39.25-82.56 60.4-123.54l.84-1.64c2.15-4.18 4.37-8.5 6.62-12.67 2.14-4.31 4.74-8.37 7.75-12.12 2.66-3.23 6.01-5.82 9.79-7.6 3.78-1.79 7.92-2.71 12.1-2.71s8.32.92 12.1 2.7c3.78 1.77 7.13 4.37 9.8 7.59 3.01 3.74 5.61 7.8 7.75 12.11 2.22 4.13 4.43 8.41 6.56 12.55l.9 1.75c21.14 40.97 41.46 82.53 60.4 123.53l.17.36c2.1 4.55 4.27 9.25 6.32 13.89 1.42 3.22 2.57 5.93 3.55 8.68 2.58 6.76 3.42 14.06 2.43 21.23Z"/></svg>