<svg viewBox="0 0 512 90" xmlns="http://www.w3.org/2000/svg"><path fill="#FFA500" fill-opacity=".6" d="M33.82 8.89l6.17 18.06 -10.97 31.63c4.33.7 8.72 1.04 13.11 1.01 3.01 0 6.03-.16 9.03-.48l3.76 11.74c-4.07.41-8.5.7-12.75.7 -5.65-.02-11.29-.43-16.88-1.22l-6.26 18.33H-.05L29.78 8.85h3.99Z"/><path fill="#FFA500" d="M481.25 26.95c19.2 0 30.74 8.96 30.74 31.57 0 2.83-.08 5.9-.15 6.31h-44.23c-.08 9.1 7.66 13.07 19.74 13.07 8.13 0 14.61-1.9 18.98-3.19l.7 11.81c-3.62 1.35-11.46 3.32-22.15 3.32 -21.21.02-35.68-7.78-35.68-31.41 0-15.28 6.02-25.46 18.23-29.54v24.79h26.52c.07-11.01-4.15-15.76-13.26-15.76 -4.25 0-7.39 1.01-9.57 3.19V27.86c3.32-.66 6.7-.98 10.09-.95ZM201.55 2.3v56.21c0 12.04 2.48 19.41 13.25 19.41s14.08-7.41 14.08-19.42c0-12.02-3.32-19.43-14.09-19.43 -4.52 0-7.54 1.28-9.57 3.66V30.78c3.46-2.18 8.13-3.6 14.54-3.6 16.27 0 26.89 9.3 26.89 31.23 0 21.95-10.63 31.16-27.05 31.16 -10.18 0-16.06-3.55-19.37-8.09l-.83 7.13h-15.45V13.92h-7.85V2.23h25.39Zm131.16 25.11c10.32 0 16.19 3.59 19.43 8.14l.9-7.48h15.37l.02 60.58h-17.56V58.5c0-12.05-2.49-19.43-13.26-19.43 -10.78 0-14.09 7.4-14.09 19.42 0 12.02 3.31 19.38 14.08 19.38 4.52 0 7.53-1.29 9.56-3.67v11.81c-3.47 2.16-8.21 3.54-14.55 3.54 -16.42 0-26.92-9.17-26.92-31.1s10.47-31.1 26.97-31.1ZM55.29 8.88l29.83 79.77H65.15L37.95 8.87h17.33Zm57.31 19.2v48.87h7.08v11.69H95.06V39.76h-7.84v-11.7h25.36Zm57.24-1.09c1.68-.02 3.36.14 5.01.47l-.23 13.85c-1.42-.15-3.32-.28-4.96-.28 -5.2 0-8.89 1.22-11.46 3.12 -5.67 4.19-5.88 11.98-5.88 16.24l-.01 28.23h-17.49V39.74h-7.85v-11.7h23.28l1.13 9.71c3.16-6.18 9.03-10.8 18.41-10.8Zm127 0c1.69-.02 3.38.14 5.05.47l-.23 13.85c-1.42-.15-3.32-.28-4.96-.28 -5.2 0-8.89 1.22-11.46 3.12 -5.67 4.19-5.87 11.98-5.88 16.24l-.01 28.23h-17.5V39.74H254v-11.7h23.28l1.13 9.71c3.16-6.18 9.03-10.8 18.38-10.8ZM402.55 2.27v86.36h-17.56V13.94h-7.84V2.25h25.38Zm42.28 25.76l-21.5 28.27 24.18 32.32h-20.57L403.8 56.61l21.17-28.59h19.83ZM103.02-.05c5.42 0 9.42 3.54 9.42 8.42s-4 8.41-9.43 8.41 -9.42-3.53-9.42-8.42h-.03c.02-4.89 4-8.43 9.43-8.43Z"/></svg>