<svg viewBox="0 0 256 215" xmlns="http://www.w3.org/2000/svg"><path fill="#FFBF00" d="M114.25 2.7l-95.4 39.47c-5.31 2.19-5.26 9.73.08 11.84l95.79 37.98c8.41 3.33 17.79 3.33 26.2 0L236.71 54c5.33-2.12 5.39-9.66.08-11.85l-95.4-39.48c-8.71-3.61-18.49-3.61-27.19 0"/><path fill="#26B5F8" d="M136.34 112.75v94.9c0 4.51 4.55 7.6 8.74 5.94l106.74-41.44c2.43-.97 4.03-3.33 4.03-5.95V71.29c0-4.52-4.56-7.61-8.75-5.95l-106.75 41.43c-2.44.96-4.04 3.32-4.04 5.94"/><path fill="#ED3049" d="M111.42 117.65l-31.69 15.29 -3.22 1.55 -66.88 32.04c-4.24 2.04-9.65-1.05-9.65-5.76V71.69c0-1.71.87-3.18 2.04-4.29 .48-.5 1.04-.9 1.61-1.22 1.59-.96 3.87-1.22 5.81-.45l101.41 40.18c5.15 2.04 5.55 9.26.53 11.69"/><path fill-opacity=".25" d="M111.42 117.65l-31.69 15.29 -77.7-65.52c.48-.5 1.04-.9 1.61-1.22 1.59-.96 3.87-1.22 5.81-.45l101.41 40.18c5.15 2.04 5.55 9.26.53 11.69"/></svg>