<svg viewBox="0 0 512 127" xmlns="http://www.w3.org/2000/svg"><path fill="#5468FF" d="M16.64.05h93.12c9.16 0 16.64 7.44 16.64 16.64v93.13c0 9.16-7.45 16.64-16.65 16.64H16.62c-9.17 0-16.65-7.44-16.65-16.64V16.64C-.03 7.47 7.4.03 16.61.03"/><path fill="#FFF" d="M76.38 28.27v-4.34c-.01-3.03-2.46-5.49-5.49-5.49h-12.8c-3.03-.01-5.49 2.45-5.49 5.48v4.45c0 .49.45.84.95.72 3.61-1.05 7.36-1.58 11.13-1.57 3.65 0 7.26.49 10.75 1.45 .46.11.92-.23.92-.73m-35.07 5.67l-2.19-2.19c-1.03-1.03-2.43-1.61-3.88-1.61 -1.46 0-2.86.57-3.88 1.6l-2.62 2.6c-1.04 1.02-1.62 2.41-1.62 3.87 0 1.45.58 2.84 1.61 3.87l2.14 2.14c.34.34.84.26 1.15-.08 1.26-1.75 2.66-3.39 4.18-4.91 1.53-1.54 3.18-2.95 4.95-4.22 .38-.24.42-.77.11-1.12m23.34 13.76v18.75c0 .53.57.92 1.07.65l16.67-8.63c.37-.19.49-.66.3-1.04 -3.46-6.07-9.88-10.21-17.29-10.48 -.39 0-.77.3-.77.72m0 45.17c-13.91 0-25.2-11.28-25.2-25.16s11.29-25.16 25.19-25.16c13.9 0 25.19 11.27 25.19 25.15 0 13.87-11.26 25.15-25.2 25.15m0-60.9c-19.75 0-35.76 15.99-35.76 35.73 0 19.74 16.01 35.7 35.75 35.7s35.75-16 35.75-35.74c0-19.75-15.98-35.7-35.76-35.7"/><path fill="#5468FF" d="M252.01 100.32c-24.62.11-24.62-19.87-24.62-23.05l-.05-74.85L242.35.03v74.38c0 1.8 0 13.23 9.63 13.26v12.61l0 0Zm-60.88-12.24c4.6 0 8.02-.27 10.4-.73V72.09c-1.19-.32-2.4-.57-3.62-.74 -1.73-.26-3.48-.39-5.23-.39 -1.66 0-3.35.11-5.04.38 -1.7.23-3.23.69-4.58 1.34 -1.35.65-2.46 1.57-3.27 2.76 -.85 1.19-1.23 1.88-1.23 3.68 0 3.52 1.22 5.56 3.45 6.9 2.22 1.34 5.26 2.03 9.06 2.03Zm-1.31-54.46c4.95 0 9.13.61 12.51 1.84 3.37 1.22 6.1 2.94 8.1 5.13 2.03 2.22 3.41 5.17 4.26 8.32 .88 3.14 1.3 6.59 1.3 10.38v38.57c-2.31.49-5.81 1.06-10.49 1.75 -4.69.69-9.95 1.03-15.79 1.03 -3.88 0-7.45-.39-10.64-1.12 -3.23-.73-5.96-1.92-8.26-3.57 -2.27-1.65-4.03-3.77-5.34-6.37 -1.27-2.62-1.93-6.29-1.93-10.13 0-3.69.72-6.03 2.15-8.56 1.45-2.53 3.41-4.6 5.87-6.22 2.49-1.62 5.33-2.77 8.6-3.46 3.26-.7 6.68-1.04 10.21-1.04 1.65 0 3.38.11 5.22.3 1.8.19 3.76.54 5.84 1.03v-2.46c0-1.73-.2-3.38-.62-4.91 -.41-1.52-1.15-2.92-2.16-4.11 -1.04-1.2-2.38-2.12-4.07-2.77 -1.7-.66-3.85-1.16-6.42-1.16 -3.46 0-6.61.42-9.49.92 -2.89.49-5.27 1.07-7.07 1.72l-1.81-12.31c1.88-.66 4.68-1.31 8.29-1.96 3.6-.7 7.49-1.01 11.63-1.01h0Zm296.57 54.02c4.6 0 8.02-.27 10.4-.74V71.64c-.85-.24-2.04-.51-3.61-.74 -1.73-.26-3.48-.39-5.23-.39 -1.65 0-3.34.11-5.04.38 -1.69.23-3.23.69-4.57 1.34 -1.35.65-2.46 1.57-3.27 2.76 -.85 1.19-1.23 1.88-1.23 3.68 0 3.52 1.22 5.56 3.45 6.9 2.26 1.38 5.26 2.03 9.06 2.03Zm-1.27-54.41c4.95 0 9.13.61 12.51 1.83 3.37 1.22 6.1 2.94 8.1 5.13 1.99 2.18 3.41 5.17 4.26 8.32 .88 3.14 1.3 6.59 1.3 10.39v38.57c-2.31.49-5.8 1.06-10.49 1.76 -4.69.69-9.95 1.03-15.79 1.03 -3.88 0-7.45-.39-10.64-1.12 -3.23-.73-5.96-1.92-8.26-3.57 -2.27-1.65-4.03-3.77-5.34-6.37 -1.27-2.61-1.93-6.29-1.93-10.13 0-3.69.73-6.03 2.15-8.56 1.45-2.53 3.41-4.6 5.87-6.22 2.49-1.61 5.33-2.77 8.6-3.46 3.26-.7 6.68-1.04 10.21-1.04 1.64 0 3.37.11 5.22.3 1.84.18 3.76.53 5.83 1.03v-2.46c0-1.73-.19-3.38-.62-4.91 -.41-1.52-1.14-2.92-2.16-4.11 -1.04-1.2-2.38-2.12-4.07-2.77 -1.7-.66-3.85-1.15-6.42-1.15 -3.46 0-6.61.42-9.49.91 -2.89.5-5.27 1.07-7.07 1.72l-1.81-12.32c1.88-.66 4.68-1.31 8.29-1.96 3.6-.66 7.48-1 11.63-1Zm-45.09-7.14c5.02 0 9.14-4.07 9.14-9.1 0-5.02-4.08-9.09-9.15-9.09s-9.14 4.06-9.14 9.08c0 5.02 4.1 9.09 9.13 9.09Zm7.56 74.19h-15.1V35.55l15.09-2.38v67.1h0Zm-26.46 0c-24.62.11-24.62-19.87-24.62-23.05l-.05-74.85 15.01-2.39v74.38c0 1.8 0 13.23 9.63 13.26v12.61Zm-48.82-33.13c0-6.49-1.43-11.89-4.19-15.65 -2.77-3.8-6.65-5.68-11.6-5.68 -4.96 0-8.84 1.87-11.6 5.67 -2.77 3.79-4.12 9.16-4.12 15.64 0 6.55 1.38 10.96 4.15 14.75 2.76 3.83 6.64 5.71 11.59 5.71s8.83-1.92 11.59-5.72c2.76-3.84 4.14-8.21 4.14-14.76Zm15.36-.04c0 5.06-.73 8.89-2.23 13.07 -1.5 4.17-3.61 7.74-6.34 10.69 -2.73 2.94-6 5.25-9.84 6.86 -3.84 1.6-9.76 2.52-12.72 2.52 -2.97-.04-8.84-.88-12.64-2.53 -3.81-1.65-7.07-3.92-9.8-6.87 -2.73-2.96-4.84-6.53-6.38-10.7 -1.54-4.19-2.31-8.02-2.31-13.08 0-5.07.68-9.94 2.22-14.08 1.53-4.15 3.68-7.67 6.45-10.62 2.76-2.96 6.06-5.23 9.82-6.83 3.8-1.62 7.99-2.38 12.52-2.38 4.53 0 8.71.8 12.55 2.37 3.84 1.6 7.14 3.87 9.83 6.82 2.72 2.94 4.83 6.47 6.37 10.61 1.61 4.14 2.41 9.01 2.41 14.07h-.01Zm-113.03 0c0 6.28 1.38 13.26 4.14 16.17 2.76 2.91 6.33 4.37 10.71 4.37 2.38 0 4.64-.35 6.75-1 2.11-.66 3.79-1.43 5.14-2.34V47.07c-1.08-.24-5.57-1.16-9.92-1.27 -5.46-.16-9.6 2.07-12.52 5.63 -2.89 3.57-4.35 9.81-4.35 15.64Zm41.74 29.59c0 10.24-2.62 17.71-7.88 22.47 -5.26 4.75-13.29 7.13-24.12 7.13 -3.96 0-12.18-.77-18.75-2.23l2.41-11.89c5.49 1.14 12.75 1.45 16.55 1.45 6.02 0 10.32-1.23 12.9-3.69 2.57-2.46 3.84-6.1 3.84-10.94v-2.46c-1.5.72-3.46 1.45-5.88 2.22 -2.42.72-5.23 1.11-8.38 1.11 -4.15 0-7.92-.66-11.33-1.96 -3.42-1.31-6.38-3.22-8.8-5.76 -2.42-2.53-4.35-5.71-5.69-9.51 -1.35-3.8-2.04-10.59-2.04-15.57 0-4.68.73-10.55 2.15-14.46 1.45-3.91 3.52-7.29 6.33-10.09 2.76-2.8 6.14-4.95 10.1-6.53 3.95-1.57 8.59-2.57 13.62-2.57 4.88 0 9.37.61 13.75 1.34 4.37.72 8.1 1.49 11.13 2.33V96.6h0Z"/></svg>