<svg viewBox="0 0 256 288" xmlns="http://www.w3.org/2000/svg"><path fill="#33363B" d="M128.04 254.79l-96.192-55.54V88.31l96.11-55.5 96.189 55.536v110.93l-96.11 55.49Zm108.3-173.464L127.95 18.74 19.64 81.27v125.01l108.386 62.57 108.3-62.53V81.308Z"/><g fill="#7EBC59"><path d="M47.86 97.54c-7.06 12.26-22.78 16.45-35.04 9.4C.55 99.88-3.64 84.17 3.41 71.9c7.051-12.27 22.771-16.46 35.03-9.41 12.26 7.12 16.45 22.77 9.4 35.037"/><path d="M208.138 97.54c-7.06-12.27-2.87-27.92 9.4-35.04 12.26-7.06 27.91-2.87 35.03 9.4 7.05 12.26 2.86 27.91-9.41 35.03 -12.27 7.05-27.99 2.86-35.04-9.41"/><path d="M127.99 287.64c-14.18 0-25.64-11.46-25.64-25.64s11.45-25.64 25.63-25.64c14.17 0 25.63 11.45 25.63 25.63 0 14.1-11.46 25.63-25.64 25.63"/></g><path fill="#368CBF" d="M120.86 50.25c2.26.65 4.65 1.01 7.13 1.01 2.48 0 4.88-.36 7.15-1.02l77.42 134.094c-1.74 1.65-3.27 3.57-4.52 5.75 -1.25 2.16-2.14 4.44-2.7 6.75H50.6c-.57-2.32-1.45-4.59-2.7-6.76 -1.26-2.17-2.79-4.08-4.509-5.72l77.436-134.12Zm122.239 130.437c-6.29-3.62-13.48-4.27-19.94-2.41L145.719 44.15c4.87-4.67 7.91-11.24 7.91-18.53 0-14.18-11.46-25.635-25.64-25.635s-25.64 11.458-25.64 25.635c0 7.3 3.04 13.87 7.93 18.54l-77.44 134.12c-6.47-1.88-13.66-1.23-19.957 2.39 -12.267 7.12-16.453 22.77-9.41 35.03 7.052 12.26 22.69 16.45 35.037 9.4 6.29-3.66 10.45-9.56 12.06-16.09h154.79c1.61 6.55 5.77 12.46 12.07 16.08 12.26 7.05 27.98 2.86 35.03-9.41 7.125-12.27 2.93-27.92-9.41-35.04v0Z"/></svg>