<svg viewBox="0 0 256 256" xmlns="http://www.w3.org/2000/svg"><g fill="#C9EBEC"><path d="M168.36 123.45l0-28.83 -10.73 5.39 10.72 23.43Z"/><path d="M194.95 103.44l44.51-44.51 -71.12 35.69Z"/><path d="M168.36 129.29l-9 24.18 .02-.03 20.38-20.39 12.57 25.03 62.93 0Z"/></g><path fill="#00868C" d="M168.36 94.63l0 28.82 86.92 0 -60.33-20.01 -26.6-8.82Z"/><path fill="#00B3BB" d="M168.36 123.45l0 .01 0 5.83 86.92 28.82 0-34.67Z"/><path fill="#C9EBEC" d="M131.94 168.27l28.65 0 -8.82 26.59 44.55 44.56 -41.08-81.86Z"/><path fill="#00868C" d="M159.39 153.46l61.45 61.46 -28.5-56.81 -12.58-25.04Z"/><path fill="#00B3BB" d="M159.39 153.46l-.03.02 -4.1 4.09 41.07 81.85 24.5-24.52Z"/><path fill="#C9EBEC" d="M101.75 159.26l.02.03 20.38 20.38 -25.04 12.56 0 62.93 28.83-86.92Z"/><path fill="#00868C" d="M131.94 168.27l-.17 0 0 86.91 20-60.32 8.81-26.6Z"/><path fill="#00B3BB" d="M131.78 168.27l-5.84 0L97.1 255.18l34.66 0Z"/><g fill="#C9EBEC"><path d="M60.31 151.73L15.8 196.24l71.1-35.7Z"/><path d="M86.91 131.73l0 28.83 10.73-5.4 -10.74-23.44Z"/></g><path fill="#00868C" d="M101.77 159.3L40.3 220.75l56.8-28.51 25.03-12.57Z"/><path fill="#00B3BB" d="M101.77 159.3l-.03-.04 -4.1-4.1 -10.74 5.39 0 0 0 0 -71.11 35.69 24.5 24.5Z"/><path fill="#C9EBEC" d="M95.91 101.7l-.03.03 -20.4 20.38 -12.57-25.04 -62.94 0 86.91 28.82Z"/><path fill="#00868C" d="M86.91 160.56l0 0 0-28.84 -86.92 0 60.31 20 26.59 8.82Z"/><path fill="#00B3BB" d="M86.91 131.73l0 0 0-5.84L-.01 97.06l0 34.65Z"/><path fill="#C9EBEC" d="M123.34 86.92l-28.68 0 8.82-26.6 -44.56-44.57 41.07 81.84Z"/><path fill="#00868C" d="M95.89 101.73L34.42 40.26l28.5 56.8 12.56 25.03Z"/><path fill="#00B3BB" d="M95.89 101.73l.02-.04 4.09-4.1 -41.08-81.85L34.4 40.25Z"/><path fill="#C9EBEC" d="M153.53 95.91l-.04-.03 -20.39-20.39 25.03-12.57 0-62.94 -28.83 86.91Z"/><path fill="#00868C" d="M123.34 86.92l.16 0 0-86.92 -20.01 60.31 -8.83 26.59Z"/><path fill="#00B3BB" d="M123.5 86.92l5.83 0L158.15 0l-34.66 0Z"/><path fill="#00868C" d="M153.5 95.89l61.46-61.46 -56.81 28.5 -25.04 12.56Z"/><path fill="#00B3BB" d="M153.5 95.89l.03.02 4.09 4.1 10.72-5.4 0 0 71.11-35.7 -24.52-24.51Z"/></svg>