<svg viewBox="0 0 256 256" xmlns="http://www.w3.org/2000/svg"><path fill="#1D5FE6" d="M127.96 0c70.94.55 127.79 55.47 128.03 129.3 .22 67.67-55.06 128.15-131.26 126.66C55.22 254.6-1.54 197.99.01 124.07 1.38 58.78 54.64.65 127.94-.02ZM101 147.35c4.55 0 9.1.01 13.65-.01 2.17-.01 3.53.48 3.03 3.21 -1.12 5.99-2.03 12.03-3.01 18.05 -1.85 11.35-3.69 22.7-5.53 34.05 -.18 1.08-.75 2.23.65 2.98 2.37 1.26 8.86-.35 10.2-2.59 17-28.39 34-56.77 50.99-85.16 3.52-5.91 1.67-9.1-5.25-9.15 -7.97-.06-15.94-.06-23.9 0 -2.48.01-4.16-.32-3.56-3.55 1.77-9.63 3.39-19.29 5.02-28.95 1.27-7.56 2.49-15.13 3.65-22.71 .17-1.14.86-2.53-.98-3.21 -3.94-1.15-8.16.32-10.54 3.65 -13.09 21.78-26.16 43.58-39.22 65.38 -3.95 6.57-8.01 13.08-11.76 19.76 -2.82 5-.97 8.1 4.55 8.16 3.98.04 7.96 0 11.94.01l-.01-.01Z"/></svg>