<svg viewBox="0 0 256 298" xmlns="http://www.w3.org/2000/svg"><path fill="#E7168E" d="M124.44 131.96l51.59 62.42 1.71-1.72c5.54-5.94 10.82-11.88 15.7-17.82 4.88-5.94 17.81-19.54 22.3-25.74l20.19 36.95c-3.44 4.88-8.05 10.82-13.6 17.41 -5.55 6.59-12.15 14.25-20.2 22.69L255.44 292h-53.98l-28.64-35.24c-26.13 27.18-53.72 40.77-81.96 40.77 -25.47 0-46.99-8.05-64.8-24.42C8.64 256.74-.07 236.55-.07 212.53c0-28.64 13.59-52.66 41.43-71.4l18.87-12.94c.39 0 .65-.4 1.45-1.06 .65-.4 1.45-1.06 2.37-2.12 -18.88-20.2-28.64-40.12-28.64-59.65 0-19.54 6.33-35.24 18.87-47.38C67.21 5.83 83.84-.1 104.42-.1c19.92 0 35.89 5.93 48.82 17.81 12.93 11.87 19.53 26.78 19.53 44.6 0 12.53-3.44 23.75-10.43 33.78 -7.4 9.63-19.93 21.9-38.01 35.76v0Zm-34.45 24.41l-2.38 1.71c-17.82 12.14-29.96 22.3-36.3 29.56 -6.34 7.25-9.37 15.3-9.37 23.75 0 11.87 4.88 22.96 14.25 32.72 9.76 9.36 20.85 14.25 32.72 14.25 16.75 0 35.89-10.83 57.8-32.73l-56.75-69.29v0Zm9.36-54.64l3.43-2.78c5.93-4.49 11.21-8.71 15.04-11.88 3.82-3.44 6.99-6.34 8.7-8.71 3.82-4.49 5.54-10.17 5.54-17.03 0-7.66-2.38-13.6-7.66-18.48 -5.28-4.89-11.88-7-20.59-7 -7.66 0-14.26 2.37-19.93 7.25 -5.28 4.48-8.05 10.42-8.05 17.81 0 8.31 3.43 16.75 10.16 25.07l10.82 12.93c.39.26 1.05 1.31 2.5 2.77v0Z"/><path fill-opacity=".1" d="M87.52 2.1C76.03 8.03 77.49 7.64 69.57 17.93c-41.84 55.02-.93 92.64 16.09 112.83 -5.42 3.69-10.83 7.39-16.24 11.08 -10.03 6.86-20.2 13.72-28.64 22.43 -8.58 8.7-15.45 19.26-17.82 31.14 -1.98 9.89-1.19 20.32 1.45 29.95 15.04 55.95 62.81 53.18 78.25 64.39 -4.76 8.31-15.71 2.5-25.21 4.22 -9.51 1.71-11.75-1.06-20.99-3.83 -27.59-8.32-47.51-27.98-53.85-56.09 -9.64-42.1 11.34-65.86 11.34-65.86s4.61-9.51 21.77-23.63c1.05-.93 27.71-17.95 28.1-19.27 .65-1.72-13.07-14.52-15.58-20.2 -3.3-7.4-13.07-20.99-13.07-38.01 .13-24.81 9.63-56.35 51.59-65.99l.65.92Zm3.03 155.45c3.82-3.57 5.41-4.89 10.16-7.26 19.39 21.77 35.89 42.36 54.1 66.24 -4.49 3.16-8.19 9.1-8.19 9.1l-56.09-68.1Zm33.25 128.27c18.21-10.3 33.91-25.21 45.26-42.76 .65-1.06 1.58-2.38 2.9-2.51 1.31-.14 2.5 1.05 3.43 1.97 13.06 15.04 20.98 25.6 31.93 42.36 -5.42 3.03-2.64 2.77-8.85 2.37 -3.04-.14-24.55-31.28-26.13-29.96 -8.71 7.91-29.43 32.33-48.83 28.63l.26-.14Zm106.76-109.54c-10.83 12.8-21.12 25.46-31.54 38.66 -.4.52-.93 1.18-1.06 1.97 -.14 1.18 2.9 6.99 4.48 8.84 8.18-8.85 16.75-17.95 23.49-26.66 3.16-3.96 9.36-12.81 10.02-13.2 -.4-.27-5.15-9.37-5.42-9.64Zm-132.5-75.09c4.09 4.48 8.18 8.84 12.27 13.32 15.17-8.85 26.26-24.55 29.56-41.84 .79-3.96 1.05-8.19.52-12.15 -1.59-11.35-11.35-20.46-22.57-22.18 6.73 3.69 10.95 8.18 13.19 14.51 2.37 6.33 1.58 13.98-1.46 20.05 -1.72 3.56-4.36 6.46-7 9.5 -6.74 7.39-13.86 11.87-22.84 19.39l-1.72-.66Z"/></svg>