<svg viewBox="0 0 512 79" xmlns="http://www.w3.org/2000/svg"><path d="M24.52 25.05c7.32 0 13.41 3.78 16.31 7.86v-6.86H52v50.88h-8.04c-1.78 0-3.2-1.42-3.2-3.2v-3.67c-2.84 4.13-8.93 7.91-16.26 7.91 -13.95 0-24.53-11.94-24.53-26.48 0-14.54 10.57-26.48 24.52-26.48m2 10.16c-9.05 0-15.19 7.15-15.19 16.31 0 9.16 6.08 16.31 15.18 16.31 9.04 0 15.18-7.16 15.18-16.32 0-9.17-6.09-16.32-15.19-16.32m38.17-9.17h11.22v6.91c3.07-5.09 8.86-7.92 15.48-7.92 11.82 0 19.44 8.33 19.44 21.27v30.61h-8.04c-1.78 0-3.2-1.42-3.2-3.2v-25.6c0-8.04-4.08-12.95-10.58-12.95 -7.45 0-13.13 5.79-13.13 16.66v25.05h-8.04c-1.78 0-3.2-1.42-3.2-3.2v-47.7Zm79.55-1.01c7.32 0 13.41 3.78 16.31 7.86V.56h11.17v76.35h-8.04c-1.78 0-3.2-1.42-3.2-3.2v-3.67c-2.84 4.07-8.99 7.86-16.32 7.86 -13.95 0-24.53-11.94-24.53-26.48 .05-14.54 10.63-26.48 24.58-26.48m2 10.16c-9.05 0-15.19 7.15-15.19 16.31 0 9.16 6.08 16.31 15.18 16.31 9.04 0 15.18-7.16 15.18-16.32 0-9.17-6.15-16.32-15.19-16.32m38.17-9.17h11.17v9.04c1.95-5.8 7.62-9.58 13.41-9.58 1.41 0 2.83.11 4.37.41V37.3c-1.96-.6-3.55-.95-5.62-.95 -6.45 0-12.24 5.37-12.24 15.6v24.82h-8.04c-1.78 0-3.2-1.42-3.2-3.2v-47.7h.11Zm59.22 51.95c-15.08 0-26.66-11.71-26.66-26.48 0-14.78 11.58-26.48 26.65-26.48 15.07 0 26.65 11.7 26.65 26.47s-11.59 26.47-26.66 26.47m0-10.41c8.98 0 15.24-7.04 15.24-16.08 0-9.05-6.33-16.08-15.25-16.08 -9.05 0-15.37 7.03-15.37 16.07s6.32 16.07 15.36 16.07m41.31-52.66c-4.08 0-7.51-3.37-7.51-7.51 0-4.08 3.48-7.45 7.5-7.45 4.19 0 7.44 3.36 7.44 7.44 0 4.19-3.26 7.5-7.45 7.5m-5.56 11.11h11.17v50.88h-7.98c-1.78 0-3.2-1.42-3.2-3.2v-47.7Zm44.91-1.01c7.32 0 13.41 3.78 16.31 7.86V.42h11.17v76.35h-8.04c-1.78 0-3.2-1.42-3.2-3.2V69.9c-2.84 4.07-8.99 7.86-16.32 7.86 -13.95 0-24.53-11.94-24.53-26.48 .05-14.54 10.63-26.48 24.58-26.48m2.06 10.16c-9.05 0-15.19 7.15-15.19 16.31 0 9.16 6.08 16.31 15.18 16.31 9.04 0 15.18-7.16 15.18-16.32 0-9.17-6.15-16.32-15.19-16.32"/><path fill="#3DDC84" d="M475.41 57.74c-3.14 0-5.68-2.55-5.68-5.68 0-3.14 2.54-5.68 5.67-5.68s5.67 2.54 5.67 5.67 -2.55 5.67-5.68 5.67m-62.48 0c-3.14 0-5.68-2.55-5.68-5.68 0-3.14 2.54-5.68 5.67-5.68s5.67 2.54 5.67 5.67 -2.55 5.67-5.68 5.67m64.48-34.05l11.34-19.57c.65-1.13.23-2.55-.89-3.2 -1.13-.66-2.55-.24-3.2.88l-11.47 19.79c-8.75-4.02-18.56-6.27-29.02-6.27 -10.47 0-20.34 2.24-29.08 6.2l-11.47-19.8c-.66-1.13-2.07-1.54-3.2-.89 -1.13.65-1.54 2.06-.89 3.19l11.28 19.56c-19.39 10.57-32.69 30.2-34.64 53.42h135.75c-1.9-23.17-15.14-42.79-34.58-53.37"/></svg>