<svg viewBox="0 0 256 145" xmlns="http://www.w3.org/2000/svg"><path fill="#3DDC84" d="M190.73 43.58l21.3-36.93c1.22-2.13.49-4.84-1.63-6.06 -2.12-1.23-4.83-.5-6.06 1.62L182.76 39.6c-16.5-7.54-35.03-11.74-54.8-11.74 -19.77 0-38.3 4.19-54.8 11.73L51.58 2.19C50.35.07 47.64-.66 45.52.56c-2.12 1.22-2.85 3.93-1.63 6.05l21.3 36.92C28.6 63.44 3.58 100.5-.08 144.29h256c-3.67-43.79-28.69-80.86-65.27-100.77m-3.93 42.94c5.82 0 10.56 4.82 10.56 10.76 0 5.93-4.74 10.76-10.57 10.76s-10.57-4.84-10.57-10.77c0-5.94 4.73-10.77 10.56-10.77h-.01Zm-117.64 0c5.82 0 10.56 4.82 10.56 10.76 0 5.93-4.75 10.76-10.57 10.76 -5.83 0-10.57-4.84-10.57-10.77 0-5.94 4.73-10.77 10.56-10.77Z"/></svg>