<svg viewBox="0 0 256 369" xmlns="http://www.w3.org/2000/svg"><path d="M214.89 157.35c15.26 2.34 25.83 9.39 31.7 18.78 5.87 9.39 9.39 25.83 9.39 46.97 0 42.27-12.92 77.5-38.76 104.51 -25.84 27-58.72 41.1-98.65 41.1 -15.27 0-30.54-2.35-45.8-8.23 -15.27-5.88-27.01-14.1-37.58-23.49 -11.75-10.57-21.14-23.49-27.01-35.23C3.48 288.84-.05 275.92-.05 263c0-14.1 3.52-25.84 9.39-34.06 5.87-8.23 16.44-12.92 29.35-16.45 -2.35-5.88-4.7-10.57-5.88-15.27 -1.18-3.53-2.35-7.05-2.35-9.4 0-7.05 3.52-15.27 11.74-23.49 8.22-8.23 15.26-11.75 22.31-11.75 3.52 0 5.87 0 9.39 1.17 3.52 1.17 7.04 2.34 11.74 5.87 -10.57-35.23-21.14-64.59-27.01-84.56 -5.88-19.97-8.23-32.89-8.23-41.11 0-10.57 2.34-18.79 8.22-24.67 4.69-5.88 12.91-9.4 22.31-9.4 15.26 0 35.22 35.22 59.88 106.86 4.69 11.74 7.04 21.13 9.39 28.18 2.34-4.7 4.69-12.92 8.22-22.32C183.08 42.14 204.21 6.91 220.65 6.91c8.22 0 15.26 2.34 21.13 8.22C246.47 21 250 29.22 250 38.61c0 7.04-2.35 21.13-8.23 41.1 -7.05 19.96-15.27 45.79-27.01 77.5v0ZM34.04 260.68c2.34 2.34 5.87 7.04 9.39 12.91 10.56 15.26 21.13 23.48 30.53 23.48 3.52 0 5.87-1.18 8.22-3.53 2.34-2.35 3.52-4.7 3.52-5.88 0-2.35-1.18-7.05-4.7-12.92 -3.53-5.88-8.23-12.92-14.1-19.97 -7.05-8.23-12.92-15.27-16.45-18.79 -4.7-3.53-8.23-5.88-10.57-5.88 -5.88 0-11.75 3.52-16.45 9.39 -4.7 5.87-7.05 14.09-7.05 22.31 0 7.04 1.17 14.09 4.69 23.48 3.52 8.22 8.22 17.61 15.26 25.83 10.56 11.74 22.31 22.31 37.57 29.35 15.26 7.04 30.53 10.56 49.32 10.56 32.88 0 59.88-11.75 82.2-36.41 22.31-24.67 32.88-55.2 32.88-92.78 0-11.75-1.18-19.97-2.35-27.01 -1.18-7.05-4.7-11.75-8.23-14.1 -7.05-5.88-19.97-10.57-39.93-15.27 -19.97-4.7-41.11-7.05-62.24-7.05 -5.88 0-10.57 1.17-12.92 3.52 -2.35 2.34-3.53 5.87-3.53 10.56 0 11.74 5.87 19.96 18.78 24.66 12.91 4.69 34.05 8.22 62.23 8.22h10.56c2.34 0 4.69 1.17 5.87 2.34 1.17 2.34 2.34 4.69 2.34 8.22 -2.35 2.34-8.23 5.87-17.62 9.39 -9.4 3.52-15.27 7.04-19.97 10.56 -10.57 7.04-18.79 16.44-24.67 27 -5.88 10.56-9.4 19.96-9.4 29.35 0 5.87 1.17 11.74 3.52 19.96 2.34 8.22 3.52 12.91 3.52 14.09v2.34 2.34c-7.05 0-12.92-4.7-17.62-12.92 -4.7-8.23-5.88-18.79-5.88-32.89v-2.35c-1.18 1.17-2.35 2.34-3.53 2.34 -1.18 0-2.35 1.17-4.7 1.17h-4.7c-1.18 0-2.35-1.18-4.7-1.18 0 2.34 1.17 3.52 1.17 5.87v4.69c0 5.87-2.35 11.74-7.05 16.44 -4.7 4.69-10.57 7.04-17.62 7.04 -10.57 0-21.14-4.7-32.89-15.27 -10.57-10.57-16.45-19.97-16.45-30.54 0-2.35 0-3.53 1.17-4.7 0-5.88 1.17-7.05 2.34-8.23v0Zm76.33 5.87c2.34 0 5.87-1.18 8.22-3.53 2.34-2.35 3.52-5.88 3.52-8.23 0-3.53-2.35-10.57-7.05-22.32 -4.7-11.75-10.57-23.49-17.62-34.06 -4.7-8.23-10.57-15.27-15.27-18.79 -4.7-4.7-9.4-5.88-14.1-5.88 -3.53 0-7.05 2.34-11.75 7.04 -4.7 4.69-5.88 8.22-5.88 12.91 0 3.52 2.34 10.56 5.87 18.78 4.69 8.22 9.39 16.44 16.44 25.83 7.04 9.39 14.09 17.61 21.13 23.48 7.04 2.34 11.74 4.69 16.44 4.69v0Zm24.66-122.13l-28.19-78.68c-7.05-19.97-11.75-34.06-16.45-39.93 -3.53-5.88-7.05-9.4-11.75-9.4 -3.53 0-5.88 1.17-8.23 3.52 -3.53 3.52-4.7 7.04-4.7 11.74 0 8.22 3.52 21.13 9.39 39.92 5.87 18.78 15.26 44.62 27 75.15 1.17-2.35 2.34-3.53 4.69-3.53 2.34-1.18 4.69-1.18 7.04-1.18h5.87c3.52 1.17 8.22 1.17 15.26 2.34v0Zm28.18 76.33c-7.05 0-14.1-1.18-21.14-2.35 -7.05-1.18-12.92-2.35-18.79-4.7 2.34 5.87 4.69 10.56 7.04 16.44 2.34 5.87 3.52 10.56 4.69 16.44 3.52-4.7 8.22-9.4 12.91-14.1 5.87-4.7 10.56-8.23 15.26-11.75v0Zm34.05-68.12c11.74-30.54 19.96-56.37 27-76.34 5.87-19.97 9.39-31.71 9.39-36.41 0-4.7-1.18-8.23-3.53-11.75 -2.35-2.35-4.7-3.53-8.23-3.53 -4.7 0-9.4 3.52-14.1 11.74 -4.7 8.22-10.57 19.96-16.45 37.57l-25.84 72.8 31.7 5.87v0Z"/></svg>