<svg viewBox="0 0 256 315" xmlns="http://www.w3.org/2000/svg"><g transform="translate(0 281.86)"><g fill="#1A1918"><path d="M67.51 32c-.55 0-1.13-.14-1.54-.69L48.58 8.44v23.31h-3.97V3.03c0-1.15.94-2.06 2.02-2.06 .62 0 1.17.18 1.57.73l17.33 22.81V1.28h3.96v28.66c0 1.18-.95 2.01-2.03 2.01"/><path d="M100.3 32.27c-3.97 0-8.11-.83-11.99-2.29l.94-3.3c3.55 1.14 7.43 1.96 11.03 1.96 4.99 0 7.61-1.79 7.61-4.3 0-2.29-2.03-3.43-9.01-6.73 -6.99-3.3-9.73-5.4-9.73-9.52 0-5.17 3.96-7.28 11.43-7.28 3.1 0 7.88.64 10.63 1.46l-.64 3.38c-3.02-.74-6.81-1.24-9.91-1.24 -5.27 0-7.44 1-7.44 3.52 0 2.46 1.57 3.52 8.96 6.94 7.79 3.61 9.77 5.44 9.77 9.18 0 5.44-5.14 8.13-11.71 8.13"/><path d="M130.79 1.32h4.09v30.45h-4.1V1.31Z"/><path d="M169.75 17.96h-10.18v10.33h10.17c3.46 0 5.58-2.2 5.58-5.26 0-2.89-2.21-5.08-5.59-5.08m-1.99-13.17h-8.2v9.73h8.19c3.28 0 5.67-2.11 5.67-5.03 0-2.89-2.08-4.71-5.68-4.71m2.02 26.97h-12.25c-1.18 0-2.08-.92-2.08-2.06V3.34c0-1.1.9-2.06 2.07-2.06h10.13c6.21 0 9.9 3.06 9.9 7.86 0 2.6-1.54 5.02-3.88 6.44 3.46 1.05 5.8 3.93 5.8 7.4 0 4.84-4.01 8.73-9.73 8.73"/><path d="M199.21 31.77c-1.13 0-2.03-.97-2.03-2.06V1.31h4.09v26.74h16.3v3.7h-18.38Z"/><path d="M245.52 32.27c-8.38 0-13.43-3.11-13.43-9.38 0-2.98 1.66-5.81 4.9-7.14 -2.62-1.65-3.97-3.98-3.97-6.54 0-5.67 4.36-8.37 12.56-8.37 2.74 0 6.62.32 9.86 1.05l-.46 3.38c-3.43-.55-6.63-.87-9.73-.87 -5.32 0-8.16 1.46-8.16 4.98 0 2.78 2.61 4.98 6.08 4.98h7.02c.99 0 1.75.77 1.75 1.73 0 1-.77 1.78-1.76 1.78h-7.57c-3.97 0-6.49 1.96-6.49 4.98 0 4.43 4.09 5.76 9.23 5.76 2.79 0 6.57-.37 9.63-1.1l.58 3.33c-2.93.82-6.76 1.37-10.14 1.37"/><path d="M14.13 7.03l7.17 17.98 -10.85-8.67 3.66-9.32Zm12.75 22.12L15.84 2.17c-.32-.78-.95-1.19-1.72-1.19s-1.45.41-1.76 1.18L.24 31.74h4.14l4.79-12.2 14.31 11.74c.57.47.99.68 1.53.68 1.08 0 2.02-.83 2.02-2.02 0-.2-.07-.5-.19-.83v0Z"/></g></g><path fill="#1A1918" d="M255.87 127.86c0 70.45-57.12 127.56-127.57 127.56C57.84 255.42.73 198.31.73 127.85 .73 57.39 57.84.28 128.29.28c70.45 0 127.56 57.11 127.56 127.56"/><path fill="#FFF" d="M130.45 78.22l33.01 81.47 -49.87-39.28 16.85-42.2Zm58.64 100.24L138.31 56.25c-1.45-3.53-4.35-5.39-7.87-5.39 -3.53 0-6.64 1.86-8.09 5.38L66.61 190.28h19.06l22.06-55.27 65.83 53.18c2.64 2.14 4.55 3.1 7.04 3.1 4.97 0 9.32-3.73 9.32-9.12 0-.88-.31-2.27-.87-3.77v0Z"/></svg>