<svg viewBox="0 0 512 105" xmlns="http://www.w3.org/2000/svg"><g fill="#232E44"><path d="M52.26 0c28.86 0 52.26 23.38 52.26 52.23 0 28.84-23.41 52.23-52.27 52.23 -28.87 0-52.27-23.39-52.27-52.24 0-28.86 23.4-52.24 52.26-52.24Zm0 2.9C25 2.9 2.91 24.98 2.91 52.22c0 27.23 22.08 49.32 49.34 49.32 27.24 0 49.35-22.1 49.35-49.33 0-27.25-22.11-49.33-49.36-49.33Zm-5.63 29.07c4.05-.001 7.34 3.29 7.34 7.35 0 .33-.04.67-.08 1.01v0l16.51 4.54c.9-1.35 2.43-2.23 4.16-2.23 2.78 0 5.02 2.23 5.02 5 0 2.76-2.25 5.01-5.03 5.01 -1.69 0-3.2-.85-4.1-2.14v0L50.16 61.13c.57 1.29.89 2.7.89 4.2 0 5.78-4.7 10.46-10.48 10.46 -5.79 0-10.47-4.69-10.47-10.47s4.68-10.47 10.46-10.47c.77 0 1.51.08 2.23.23v0l1.41-8.88c-2.91-.99-4.99-3.73-4.99-6.95 0-4.07 3.29-7.36 7.35-7.36Zm6.8 10.09c-1.08 2.69-3.72 4.6-6.81 4.6 -.22 0-.42-.01-.63-.03v0l-1.45 9.04c1.96.79 3.62 2.17 4.78 3.91v0L69.71 48.9c-.11-.41-.17-.83-.17-1.26 0-.4.05-.77.12-1.14v0Z"/><path d="M179.92 35.54c2.69-3.08 8.37-5.95 16.38-4.62 7 1.16 10.43 4.54 12.72 9.79 2.62 6 3.31 17.68-.64 24.98 -3.11 5.74-8.24 9.21-16.02 9.21 -8.72 0-12.59-3.38-12.59-3.38v0 18.61h-4.53V50.22c0-5.57 1.56-11.19 4.64-14.71Zm45.98 0c2.69-3.08 8.37-5.95 16.38-4.62 7 1.16 10.43 4.54 12.72 9.79 2.62 6 3.3 17.68-.64 24.98 -3.11 5.74-8.24 9.21-16.02 9.21 -8.72 0-12.59-3.38-12.59-3.38v0 18.61h-4.53V50.22c0-5.57 1.56-11.19 4.64-14.71Zm-84.05-4.74c20.63-2.76 21.38 10.43 21.76 13.25 .89 6.63 1.26 14.59-.06 19.69 -.87 3.34-2.4 8.11-9.14 10.23 -9.23 2.9-26.64 1.27-24.15-15.62 2.01-13.67 28.36-10.3 29.41-10.16l.03 0c-.46-9.52-4.02-12.54-8.93-13.31 -9.05-1.42-14.33 3.11-14.33 3.11v0l-2.32-3.88s2.97-2.72 7.69-3.35Zm183.19 0c20.63-2.76 21.38 10.43 21.75 13.25 .89 6.63 1.26 14.59-.05 19.69 -.87 3.34-2.4 8.11-9.14 10.23 -9.23 2.9-26.64 1.27-24.15-15.62 1.96-13.39 27.29-10.43 29.31-10.18l.12.01c-.46-9.52-4.02-12.54-8.93-13.31 -9.05-1.42-14.33 3.11-14.33 3.11v0l-2.32-3.88s2.97-2.72 7.69-3.35Zm-52.53-15.3v18.69s4-3.38 12.71-3.38c7.77 0 13.02 3.46 16.14 9.2 3.94 7.29 3.26 18.97.63 24.98 -2.3 5.24-5.79 8.62-12.8 9.79 -8.02 1.32-13.76-1.55-16.46-4.63 -3.08-3.53-4.77-9.15-4.77-14.71v0V15.45h4.52ZM445.9 66.76v8.29h-3.02v-8.3h3.01Zm15.07-36.19v44.48h-3.02V30.56h3.01Zm-78.91 4.26l-2.74 2.96 -.04-.04c-.47-.46-5.96-5.68-13.57-2.67 -3.63 1.43-5.14 5.2-4.41 8.02 .87 3.39 4.25 5.62 8.66 6.78 10.03 2.63 12.7 6.34 13.36 11.05 .96 6.9-4.48 13.99-12.49 14.02 -9.8.04-15.46-6.74-15.46-6.74l3.58-3.02s12.44 11.32 19.53 1.13c2-2.89 1.5-8.67-5.6-11.32 -8.14-3.03-14.64-4.53-16.02-11.06 -2.5-11.78 13.19-18.48 25.13-9.19Zm30.37-4.3l.4 0c10.67.11 16.98 6.43 17.63 15.98 .14 2.19.37 6.69 0 8.79v0l-32.9-.04v0l0 .04c0 .69.26 9.3 7.16 13.52 4.31 2.64 13.57 4.14 22.11-.94v0l1.99 3.45s-4.31 3.64-13.95 3.6c-18.24-.1-23.52-12.43-21.13-27.75 1.25-8.05 7.62-16.84 19.05-16.71Zm79.53.02c11.03 0 19.97 9.89 19.97 22.1 0 12.2-8.95 22.1-19.98 22.1 -11.04 0-19.99-9.9-19.99-22.11 0-12.21 8.94-22.11 19.98-22.11Zm0 3.39c-9.43 0-17.07 8.45-17.07 18.87 0 10.42 7.63 18.87 17.06 18.87 9.42 0 17.06-8.46 17.06-18.88 0-10.43-7.64-18.88-17.07-18.88Zm-205.66.97c-10.17-.69-13.71 4.29-13.71 4.29 -.13 8.29-.25 16.49.28 21.23 .23 2.03 2.72 11.57 13.6 10.84 10.53-.71 13.17-8.06 13.42-18.55 .28-12.05-5.23-17.27-13.61-17.84ZM159.69 52.64s-6.76-2.09-17 0c-10.05 2.04-9.9 11.02-7.4 14.15 3.94 4.91 13.2 5.43 19.58 2.55 5.89-2.66 5.12-13.6 4.86-16.17l-.03-.27c-.03-.18-.04-.28-.04-.28Zm183.19 0s-6.75-2.09-17 0c-10.05 2.04-9.9 11.02-7.39 14.15 3.93 4.91 13.2 5.43 19.58 2.55 6.69-3.02 4.79-16.71 4.79-16.71Zm-149.39-18.3c-10.88-.73-13.37 8.81-13.61 10.84 -.49 4.36-.44 11.66-.32 19.26l.01 1.3v0l.01.65s3.54 4.98 13.7 4.29c8.38-.57 13.89-5.8 13.6-17.84 -.26-10.5-2.89-17.85-13.43-18.55Zm45.99 0c-10.88-.73-13.37 8.81-13.6 10.84 -.5 4.36-.44 11.66-.32 19.26l.01 1.3v0l0 .65s3.54 4.98 13.7 4.29c8.38-.57 13.89-5.8 13.6-17.84 -.26-10.5-2.89-17.85-13.42-18.55Zm173.24-.05c-12.95-.13-15.13 15.08-15.13 17.33v0h29.25s1.44-17.19-14.13-17.34Zm48.2-19.6v8.29h-3.02v-8.3h3.01Z"/></g></svg>