<svg viewBox="0 0 256 256" xmlns="http://www.w3.org/2000/svg" xmlns:xlink="http://www.w3.org/1999/xlink"><defs><linearGradient id="a" x1="0%" x2="100%" y1="50%" y2="50%"><stop offset="19%" stop-color="#07C3F2"/><stop offset="90%" stop-color="#087CFA"/></linearGradient><linearGradient id="b" x1="0%" x2="100%" y1="50%" y2="50%" xlink:href="#a"/><linearGradient id="c" x1="65.641%" x2="16.244%" y1="103.177%" y2="34.031%"><stop offset="9%" stop-color="#21D789"/><stop offset="48%" stop-color="#07C3F2"/><stop offset="90%" stop-color="#087CFA"/></linearGradient></defs><path fill="#087CFA" d="M195.62 256l60.37-159.63 -48-10.88Z"/><path fill="url(#a)" d="M255.25 205.33l-59.63 50.66 -85.1-21.92Z"/><path fill="url(#b)" d="M31.86 117.28L4.66 39.46 140.47-.01Z"/><path fill="url(#c)" d="M223.36 148.21l-38.11-65.04 .72-.46 -45.5-82.72L-.01 151.69l0 104.29 255.25-50.67Z"/><path d="M48 48l160 0 0 160 -160 0Z"/><path fill="#FFF" d="M67.94 177.76h60v10h-60v-10ZM180.18 76.18l-8.48 9.78c-4.06-4.22-9.62-6.68-15.47-6.83 -10.08 0-17.39 8.26-17.55 18.48l-.01.53c0 10.37 7.17 19.01 17.54 19.01 6.43 0 10.55-2.32 15.01-6.22l.65-.59c.1-.1.21-.2.32-.3l8.37 8.58c-6.21 7.15-15.34 11.08-24.8 10.66 -8.27.13-16.25-3.09-22.1-8.93 -5.74-5.73-8.95-13.5-8.96-21.59l0-.66c-.15-8.39 3.13-16.48 9.09-22.38 5.95-5.91 14.06-9.13 22.45-8.91 8.91-.45 17.6 2.93 23.86 9.3Zm-78.86-8.19l25.54 60.08h-13.71l-5.34-13.34H82.47l-5.34 13.33H63.79l25.49-60.08h12Zm-6.19 15.76l-8 19.36h16l-8-19.36Z"/></svg>