<svg viewBox="0 0 512 110" xmlns="http://www.w3.org/2000/svg"><g fill="#CB2E63"><path d="M191.96 20.02l19.83 52.67h-9.54l-4.77-13.3h-20.89l-4.55 13.29h-9.47L182.32 20h9.6Zm-4.84 7.89h-.22c-.17 1.46-.43 2.73-.77 3.78v0L178.99 52H195l-7.17-20.32c-.25-.64-.49-1.9-.73-3.79v0Zm48.34 6.24c4.75 0 8.49 1.67 11.2 5.03 2.71 3.35 4.07 7.92 4.07 13.7 0 6.31-1.55 11.35-4.63 15.09 -3.09 3.74-7.26 5.62-12.52 5.62 -4.52 0-8.02-1.89-10.52-5.66h-.15v22.04h-8.41V35.05h8.4v6.02h.14c2.95-4.63 7.08-6.95 12.37-6.95Zm-2.77 6.94c-2.94 0-5.31 1.04-7.12 3.12 -1.81 2.08-2.72 4.77-2.72 8.08v0 4.81c0 2.76.86 5.05 2.58 6.85 1.72 1.8 3.86 2.69 6.44 2.69 3.2 0 5.68-1.2 7.45-3.6 1.77-2.4 2.65-5.85 2.65-10.33 0-3.63-.82-6.48-2.46-8.55 -1.64-2.07-3.93-3.11-6.86-3.11Zm44.41-6.95c4.75 0 8.49 1.67 11.2 5.03 2.71 3.35 4.07 7.92 4.07 13.7 0 6.31-1.55 11.35-4.63 15.09 -3.09 3.74-7.26 5.62-12.52 5.62 -4.52 0-8.02-1.89-10.52-5.66h-.15v22.04h-8.41V35.04h8.4v6.02h.14c2.95-4.63 7.08-6.95 12.37-6.95Zm59.35-15.03c2.18 0 4.45.18 6.8.55 2.35.36 4.31.9 5.89 1.61v8.88c-3.71-2.21-7.86-3.31-12.45-3.31 -3.57 0-6.75.82-9.56 2.46 -2.81 1.64-4.97 3.97-6.5 6.99 -1.53 3.02-2.3 6.54-2.3 10.56 0 5.82 1.57 10.44 4.72 13.84 3.15 3.4 7.36 5.1 12.62 5.1 5.11 0 9.59-1.24 13.42-3.72v8.3c-1.77.97-4 1.75-6.68 2.31 -2.68.56-5.41.84-8.17.84 -5.05 0-9.48-1.09-13.29-3.26 -3.81-2.17-6.72-5.25-8.74-9.22 -2.02-3.98-3.03-8.56-3.03-13.72 0-5.47 1.16-10.36 3.49-14.7s5.58-7.69 9.77-10.05c4.18-2.37 8.82-3.55 13.91-3.55Zm-62.12 21.96c-2.94 0-5.31 1.04-7.12 3.12 -1.81 2.08-2.72 4.77-2.72 8.08v0 4.81c0 2.76.86 5.05 2.58 6.85 1.72 1.8 3.86 2.69 6.44 2.69 3.2 0 5.68-1.2 7.45-3.6 1.77-2.4 2.65-5.85 2.65-10.33 0-3.63-.82-6.48-2.46-8.55 -1.64-2.07-3.93-3.11-6.86-3.11Zm95.57-6.95c5.14 0 9.13 1.59 11.99 4.77 2.85 3.18 4.27 7.59 4.27 13.22v0 4.22h-25.37c.16 3.42 1.2 6.03 3.09 7.82 1.89 1.78 4.59 2.68 8.11 2.68 2.1 0 4.13-.34 6.07-1.01 1.93-.68 3.63-1.54 5.09-2.59v0 7.16c-1.41.93-3.3 1.68-5.68 2.27 -2.38.58-4.89.88-7.54.88 -5.66 0-10.04-1.71-13.14-5.13 -3.11-3.42-4.66-8.17-4.66-14.24 0-4.02.77-7.54 2.31-10.55 1.54-3.02 3.67-5.36 6.4-7.04 2.73-1.68 5.73-2.52 9-2.52Zm0 6.64c-2.29 0-4.26.85-5.94 2.55 -1.68 1.7-2.73 3.91-3.17 6.63h16.99c0-2.99-.7-5.27-2.08-6.84 -1.39-1.57-3.33-2.36-5.83-2.36Zm45.68 10.76v21.12h8.4V49.53c0-5.2-1.09-9.07-3.26-11.61 -2.18-2.55-5.24-3.83-9.19-3.83 -5.27 0-9.3 2.31-12.09 6.94h-.15V35h-8.41v37.61h8.4V51.23c0-2.92.82-5.35 2.49-7.3 1.66-1.95 3.76-2.93 6.31-2.93 2.61 0 4.51.86 5.69 2.58 1.17 1.72 1.76 4.35 1.76 7.87Zm35.27 20.75c-.51.29-1.42.58-2.72.86 -1.3.28-2.56.42-3.77.42 -7.31 0-10.96-3.97-10.96-11.91v-19.8h-6.19V35h6.18v-8.67l8.44-2.61v11.27h8.98v6.83h-8.99v18.21c0 2.37.42 4.05 1.27 5.05 .85.99 2.18 1.48 4 1.48 .48 0 1.09-.11 1.83-.32 .74-.21 1.36-.49 1.87-.83v6.79Zm18.61-38.17c5.14 0 9.13 1.59 11.99 4.77 2.85 3.18 4.27 7.59 4.27 13.22v0 4.22h-25.37c.16 3.42 1.2 6.03 3.09 7.82 1.89 1.78 4.59 2.68 8.11 2.68 2.11 0 4.13-.34 6.07-1.01 1.93-.68 3.63-1.54 5.09-2.59v0 7.16c-1.41.93-3.3 1.68-5.68 2.27 -2.38.58-4.89.88-7.54.88 -5.66 0-10.03-1.71-13.14-5.13 -3.11-3.42-4.66-8.17-4.66-14.24 0-4.02.76-7.54 2.31-10.55 1.54-3.02 3.67-5.36 6.4-7.04 2.72-1.68 5.73-2.52 9-2.52Zm0 6.64c-2.28 0-4.26.85-5.94 2.55 -1.68 1.7-2.73 3.91-3.17 6.63h16.99c0-2.99-.7-5.27-2.08-6.84 -1.39-1.57-3.33-2.36-5.83-2.36Zm40.33 1.65c.99.26 1.7.56 2.14.88v-8.42c-.8-.35-1.93-.52-3.39-.52 -2.19 0-4.12.69-5.79 2.09 -1.68 1.39-2.93 3.35-3.75 5.87h-.15v-7.31h-8.41v37.61h8.4V53.34c0-3.38.75-6.13 2.25-8.23 1.5-2.11 3.47-3.16 5.93-3.16 .82 0 1.73.13 2.73.4Z"/><path d="M81.34 109.42L-.01 82.07l81.29 11.98v-20.5V-.03l27.09 11.38v86.68l-27.05 11.36ZM27.08 18.23l10.16 2.28v16.41l16.93-11.86v13.68l-16.94 9.12 16.93 9.12v13.68L37.22 58.8v16.41l-10.17 2.28L8.98 61.52v-6.85l10.42-6.85 -10.43-6.85v-6.85l18.06-15.97Zm0 34.2l-12.65 6.38 12.64 9.57V52.41Zm0-25.09l-12.65 9.57 12.64 6.38V27.32Zm40.64 2.28l-13.55-4.57v45.6l13.54-4.57V29.6Z"/></g></svg>