<svg viewBox="0 0 512 106" xmlns="http://www.w3.org/2000/svg"><path fill="#FFF" d="M162.21 44.59c0-5.41-3.63-8.43-10.46-8.43 -3.62 0-7.48 1-11.45 2.97 -.15.07-.31.15-.49.25 -1.4.73-3.13.2-3.87-1.19l-.01-.01L134 34.5c-.74-1.4-.2-3.12 1.2-3.85 .64-.34 1.16-.61 1.58-.81 5.75-2.8 10.73-3.98 17.54-3.98 12.67 0 20.06 6.41 20.15 17.36l.08 28.78c0 1.57-1.28 2.85-2.85 2.85l-.01 0h-6.59c-1.58 0-2.86-1.28-2.86-2.85v-2.26c-3.42 3.71-8.62 5.63-15.12 5.63 -10.29 0-17.2-6.29-17.2-15.23 0-9.19 6.87-14.69 18.62-14.78h13.59v-.85Zm-11.71 9.42c-6.1 0-8.66 1.62-8.66 5.48 0 3.79 3.06 6.19 8.11 6.19 6.47 0 11.64-3.4 12.24-7.81v-3.88h-11.71Zm57.94-28.04c13.79 0 23.11 10.02 23.11 24.85 0 14.66-9.14 24.5-22.94 24.5 -6.82 0-12.28-2.56-15.93-7.35v21.35c0 1.57-1.28 2.84-2.86 2.84h-6.78c-1.58 0-2.86-1.28-2.86-2.85V29.13c0-1.58 1.27-2.85 2.85-2.85h6.77c1.57 0 2.85 1.27 2.85 2.84v4.11c3.56-4.76 9-7.32 15.74-7.32Zm-2.61 38.55c7.66 0 13.05-5.79 13.05-14.06 0-8.19-5.41-13.97-13.06-13.97 -7.74 0-13.15 5.76-13.15 13.96 0 8.33 5.37 14.05 13.14 14.05Zm59.86-38.56c13.79 0 23.11 10.02 23.11 24.85 0 14.66-9.14 24.5-22.94 24.5 -6.82 0-12.28-2.56-15.93-7.35v21.35c0 1.57-1.28 2.84-2.86 2.84h-6.78c-1.58 0-2.86-1.28-2.86-2.85V29.12c0-1.58 1.27-2.85 2.85-2.85h6.77c1.57 0 2.85 1.27 2.85 2.84v4.11c3.56-4.76 9-7.32 15.74-7.32Zm-2.61 38.55c7.66 0 13.05-5.79 13.05-14.06 0-8.19-5.41-13.97-13.06-13.97 -7.74 0-13.15 5.76-13.15 13.96 0 8.33 5.37 14.05 13.14 14.05Zm66.67-24.05c-2.86-2.31-6.42-3.52-10.54-3.52 -7.52 0-12.7 5.55-12.7 13.69 0 8.29 5.15 13.87 12.69 13.87 3.86 0 7.16-.92 9.74-2.73 .38-.28.85-.67 1.38-1.2 1.04-1.03 2.69-1.1 3.81-.17l3.61 2.97c1.21 1 1.38 2.79.38 4 -.03.02-.03.02-.05.05 -.79.89-1.47 1.58-2.04 2.07 -4.42 3.76-10.41 5.76-17.5 5.76 -14.6 0-24.65-10.02-24.65-24.6 0-14.73 10.1-24.77 24.82-24.77 7.84 0 14.43 2.53 18.94 7.19 1 1.03.97 2.68-.07 3.68l-.02.01 -3.88 3.66c-1.07 1-2.71 1.04-3.82.09 -.07-.06-.12-.1-.18-.15Zm22.4-34.23c3.9 0 6.69 2.85 6.69 6.83 0 3.97-2.79 6.83-6.7 6.83s-6.7-2.86-6.7-6.84 2.78-6.84 6.69-6.84Zm-3.39 20.07h6.77c1.57 0 2.85 1.27 2.85 2.84V72c0 1.57-1.28 2.84-2.86 2.84h-6.78c-1.58 0-2.86-1.28-2.86-2.85V29.12c0-1.58 1.27-2.85 2.85-2.85Zm41.81-.15c.22-.04.48-.08.78-.11 1.56-.18 2.97.95 3.15 2.52 .01.1.01.2.01.31v6.17c0 1.54-1.24 2.8-2.79 2.84 -.41.01-.74.02-1.02.05 -7.78.73-12.55 5.93-12.55 13.47v20.58c0 1.57-1.28 2.84-2.86 2.84h-6.78c-1.58 0-2.86-1.28-2.86-2.85V29.1c0-1.58 1.27-2.85 2.85-2.85h6.77c1.57 0 2.85 1.27 2.85 2.84v5.2c2.79-4.53 7-7.32 12.37-8.2Zm41.44 14.46c-.66-.56-1.22-.99-1.68-1.27 -2.57-1.6-5.59-2.43-9.01-2.43 -7.52 0-12.7 5.55-12.7 13.69 0 8.29 5.15 13.87 12.69 13.87 3.62 0 6.74-.81 9.24-2.39 .52-.33 1.15-.85 1.88-1.56 1.04-1.01 2.68-1.08 3.8-.15l3.62 2.98c1.21 1 1.38 2.79.38 4 -.03.03-.03.03-.06.06 -.92 1.03-1.7 1.82-2.37 2.36 -4.39 3.58-10.25 5.47-17.16 5.47 -14.6 0-24.65-10.02-24.65-24.6 0-14.73 10.1-24.77 24.82-24.77 7.09 0 13.16 2.06 17.6 5.92 .33.28.71.66 1.15 1.12 1.08 1.13 1.04 2.94-.11 4.02l-.01 0 -3.72 3.5c-1.07 1-2.72 1.04-3.83.09Zm16.88-32.8h6.77c1.57 0 2.85 1.27 2.85 2.84v61.33c0 1.57-1.28 2.84-2.86 2.84h-6.78c-1.58 0-2.86-1.28-2.86-2.85V10.63c0-1.58 1.27-2.85 2.85-2.85Zm40.8 57.29c3.82 0 7.42-1.15 10.42-3.33 .16-.12.34-.27.55-.44 1.15-.95 2.84-.86 3.87.22l2.91 3.02c1.09 1.13 1.05 2.93-.08 4.02 -.03.02-.06.05-.09.07 -1.13.99-2.09 1.74-2.87 2.25 -4.41 2.83-9.78 4.33-15.74 4.33 -15.05 0-25.1-9.92-25.1-24.6 0-14.7 10.15-24.77 24.82-24.77 15.32 0 23.41 9 23.5 24.93 0 .37-.01.84-.03 1.4 -.05 1.53-1.32 2.76-2.86 2.76H476.4c1.61 6.28 6.56 10.07 13.21 10.07Zm10.7-18.66c-.44-6.59-4.97-10.7-11.87-10.7 -6.51 0-11.17 4.07-12.36 10.69h24.22Z"/><path fill="#FF8F34" d="M38.5 75.27c8.09 6.58 9.46 13.58 4.09 20.98 -6.63 8.91-18.89 12.15-29.26 7.14l-.09-.05c-.03-.02-.06-.03-.08-.04C1.49 97.6-3.33 83.57 2.38 71.95l12.93-26.3 7.26-14.78 8.73-17.76C35.54 4.48 44.39-.41 53.46-.04c8.75-.04 17.18 4.81 21.28 13.16l28.93 58.82c5.71 11.61.89 25.64-10.78 31.34 -.03.01-.06.02-.08.03l-.09.04c-11.6 5.6-25.54.9-31.35-10.51 -3.02-6.31-1.01-12.26 6.02-17.86h-.01c5.28-4.26 8.66-10.76 8.66-18.05 0-12.81-10.43-23.19-23.29-23.19s-23.29 10.38-23.29 23.18c0 7.41 3.49 14.01 8.93 18.26Zm14.37-6.11c-6.76 0-12.24-5.46-12.24-12.19 0-6.73 5.47-12.19 12.23-12.19 6.75 0 12.23 5.45 12.23 12.18 0 6.72-5.48 12.18-12.24 12.18Z"/></svg>