<svg viewBox="0 0 256 256" xmlns="http://www.w3.org/2000/svg"><defs><linearGradient id="a" x1="50%" x2="50%" y1="0%" y2="100%"><stop offset="0%" stop-color="#17C9FB"/><stop offset="100%" stop-color="#1A74E8"/></linearGradient></defs><path fill="url(#a)" d="M56.06 0h143.87c30.96-.001 56.06 25.1 56.06 56.06v143.87c0 30.96-25.11 56.06-56.07 56.06H56.04c-30.97 0-56.07-25.11-56.07-56.07V56.04c0-30.97 25.1-56.07 56.06-56.07Z"/><path fill="#FFF" d="M82.04 185.81l.02 0 -8.76 15.16c-3.2 5.53-10.28 7.42-15.81 4.23 -5.54-3.2-7.43-10.28-4.24-15.81l6.44-11.17 .61-1.08c1.1-1.59 3.83-4.33 9.28-3.82 0 0 12.83 1.39 13.76 8.06 0 0 .12 2.19-1.36 4.39v0Zm124.14-38.73h-27.3c-1.86-.13-2.68-.79-2.99-1.18l-.03-.04 -29.22-50.61 -.04.02 -1.76-2.52c-2.88-4.4-7.44 6.84-7.44 6.84 -5.45 12.51.77 26.74 2.94 31.04l40.58 70.28c3.19 5.53 10.27 7.42 15.8 4.23 5.53-3.2 7.42-10.28 4.23-15.81l-10.15-17.58c-.2-.43-.54-1.59 1.54-1.59h13.78c6.38 0 11.56-5.19 11.56-11.57 0-6.39-5.19-11.57-11.57-11.57Zm-53.02 15.72s1.45 7.41-4.19 7.41h-5.64v0H48.06c-6.39 0-11.57-5.19-11.57-11.57 0-6.39 5.18-11.57 11.56-11.57h25.94c4.18-.25 5.18-2.67 5.18-2.67l.02.01 33.86-58.65 -.02-.01c.61-1.14.1-2.21.01-2.38L101.85 64c-3.2-5.54-1.3-12.61 4.23-15.81 5.53-3.2 12.6-1.3 15.8 4.23l5.18 8.98 5.17-8.97c3.19-5.54 10.27-7.43 15.8-4.24 5.53 3.19 7.42 10.27 4.23 15.8l-47.12 81.6c-.21.49-.27 1.27 1.26 1.41h28.16l0 .27s16.27.25 18.49 15.45Z"/></svg>