<svg viewBox="0 0 256 315" xmlns="http://www.w3.org/2000/svg"><path d="M213.8 167.03c.44 47.57 41.73 63.41 42.19 63.61 -.35 1.11-6.6 22.56-21.76 44.71 -13.11 19.15-26.71 38.23-48.13 38.63 -21.06.38-27.83-12.49-51.89-12.49 -24.07 0-31.59 12.08-51.51 12.87 -20.69.78-36.43-20.72-49.65-39.8 -27-39.04-47.64-110.3-19.93-158.41 13.76-23.89 38.35-39.02 65.05-39.41 20.3-.39 39.47 13.66 51.88 13.66 12.4 0 35.69-16.9 60.18-14.42 10.25.42 39.02 4.14 57.5 31.18 -1.49.92-34.34 20.04-33.98 59.82M174.18 50.14c10.97-13.29 18.36-31.8 16.35-50.2 -15.83.63-34.97 10.54-46.32 23.82 -10.18 11.76-19.09 30.58-16.68 48.63 17.63 1.36 35.65-8.97 46.63-22.27"/></svg>