<svg viewBox="0 0 256 188" xmlns="http://www.w3.org/2000/svg"><path fill="#21375A" d="M224.03 43.8c-19.01 0-32.59 16.73-46.6 35.38 -8.7-39.62-18.34-79.19-49.08-79.19s-40.42 39.57-49.26 79.22c-13.98-18.69-27.56-35.42-46.57-35.42 -12.09 0-32.56 8.2-32.56 39.01v55.88c0 30.21 16.13 37.61 25.81 40.16v0c16.69 4.33 56.9 8.38 102.16 8.38s85.47-4.06 102.16-8.39v0c9.67-2.55 25.84-9.96 25.84-40.17V82.77c0-30.81-20.47-39.02-32.56-39.02m-95.08-26.34c18.4 0 25.42 36.32 35.2 79.91 -10.73 13.2-22.12 23.85-35.21 23.85 -13.1 0-24.46-10.66-35.21-23.86 9.15-40.77 16.2-79.92 35.2-79.92M17.64 138.8V82.91c-.001-19.46 10.47-21.56 15.08-21.56 13.41 0 27.94 22.35 41.53 40.3 -9.72 40.72-19.98 65.52-44.23 60.42 -6.33-1.72-12.27-5.73-12.27-23.13m47.57 28.32c10.72-11.67 17.46-29.87 22.8-49.15 11.21 11.77 24.17 20.64 40.23 20.64 16.06 0 28.99-8.88 40.23-20.65 5.2 19.28 12.05 37.47 22.77 49.14 -18.76 1.71-41.33 2.75-62.88 2.75 -21.56 0-44.3-1.05-63.05-2.76m173.67-28.33c0 17.46-5.94 21.41-12.27 23.12 -24.28 5.13-34.52-19.71-44.23-60.43 13.72-17.96 27.94-40.31 41.53-40.31 4.54 0 15.08 2.09 15.08 21.55l-.14 56.06Z"/></svg>