<svg viewBox="0 0 512 90" xmlns="http://www.w3.org/2000/svg"><g transform="translate(71.8978 1.85434)"><g fill="#3D3D3D"><path d="M45.81 66.29l-4.32-14.83H18.85l-4.59 14.82H-.03L22.06 3.75h16.17l22.09 62.52H45.76Zm-7.55-25.88c-4.32-13.48-6.47-21.03-7.01-22.91 -.54-1.89-.81-3.24-1.08-4.32 -.81 3.77-3.51 12.66-8.09 26.95h16.17v.26Z"/><path d="M88.93 67.37c-5.66 0-9.98-2.16-13.21-6.2h-.81c.53 4.04.8 6.19.8 7v19.4H62.77v-69h10.51l1.88 6.19h.53c2.96-4.86 7.54-7.01 13.47-7.01 5.65 0 9.97 2.15 13.2 6.46 3.23 4.31 4.85 10.51 4.85 18.05 0 5.12-.81 9.43-2.16 13.2 -1.62 3.77-3.51 6.73-6.47 8.62 -2.97 2.15-6.2 3.23-9.71 3.23Zm-4.05-39.08c-3.24 0-5.66 1.07-7.01 2.96 -1.35 1.88-2.16 5.12-2.43 9.7v1.34c0 5.12.8 8.89 2.15 11.04 1.61 2.15 4.04 3.23 7.27 3.23 5.92 0 8.62-4.86 8.62-14.29 0-4.59-.81-8.09-2.16-10.52 -1.08-2.43-3.24-3.51-6.47-3.51Z"/><path d="M139.6 67.37c-5.66 0-9.98-2.16-13.21-6.2h-.81c.53 4.04.8 6.19.8 7v19.4h-12.94v-69h10.51l1.88 6.19h.53c2.96-4.86 7.54-7.01 13.47-7.01 5.65 0 9.97 2.15 13.2 6.46 3.23 4.31 4.85 10.51 4.85 18.05 0 5.12-.81 9.43-2.16 13.2 -1.62 3.77-3.51 6.73-6.47 8.62 -2.7 2.15-5.93 3.23-9.71 3.23Zm-3.78-39.08c-3.24 0-5.66 1.07-7.01 2.96 -1.35 1.88-2.16 5.12-2.43 9.7v1.34c0 5.12.8 8.89 2.15 11.04 1.61 2.15 4.04 3.23 7.27 3.23 5.92 0 8.62-4.86 8.62-14.29 0-4.59-.81-8.09-2.16-10.52 -1.08-2.43-3.24-3.51-6.47-3.51Z"/><path d="M184.61 56.86c2.15 0 5.12-.54 8.08-1.62v9.7c-3.24 1.34-7.28 2.15-11.86 2.15 -5.13 0-8.9-1.35-11.32-4.05 -2.43-2.7-3.51-6.47-3.51-11.86V28.27h-6.2v-5.4l7.27-4.32 3.77-9.98h8.08v10.24h13.47v9.7h-13.48v22.9c0 1.88.53 3.23 1.61 4.04 .8.8 2.15 1.34 4.04 1.34Z"/><path d="M219.64 67.37c-7.55 0-13.75-2.16-18.06-6.47 -4.32-4.32-6.47-10.25-6.47-18.06 0-8.09 1.88-14.29 5.92-18.6 4.04-4.32 9.43-6.47 16.43-6.47 6.73 0 11.85 1.88 15.63 5.65 3.77 3.77 5.65 9.16 5.65 15.9v6.19h-30.73c.26 3.77 1.34 6.46 3.23 8.62 2.15 2.15 4.85 3.23 8.62 3.23 2.96 0 5.65-.27 8.08-.81 2.42-.54 5.12-1.62 8.08-2.97v9.97c-2.16 1.07-4.59 1.88-7.28 2.42 -2.43.8-5.66 1.34-9.17 1.34Zm-1.89-40.43c-2.7-.001-4.86.8-6.47 2.69 -1.62 1.61-2.43 4.31-2.7 7.54h18.32c0-3.24-.81-5.66-2.43-7.55 -1.89-1.62-4.05-2.7-6.74-2.7Z"/><path d="M289.17 66.29h-12.94V38.53c0-3.51-.54-5.93-1.89-7.82 -1.35-1.62-3.24-2.7-5.93-2.7 -3.78 0-6.2 1.34-7.82 3.77 -1.62 2.42-2.43 6.46-2.43 12.12v22.36h-12.94V18.55h9.97l1.61 6.19h.8c1.34-2.43 3.5-4.05 5.92-5.13s5.39-1.89 8.62-1.89c5.65 0 9.7 1.61 12.66 4.58 2.96 2.96 4.31 7.27 4.31 12.93v30.99 0Z"/><path d="M318.28 56.86c2.15 0 5.12-.54 8.08-1.62v9.7c-3.24 1.34-7.28 2.15-11.86 2.15 -5.13 0-8.9-1.35-11.32-4.05 -2.43-2.7-3.51-6.47-3.51-11.86V28.27h-6.2v-5.4l7.27-4.32 3.77-9.98h8.35v10.24h13.47v9.7h-13.48v22.9c0 1.88.53 3.23 1.61 4.04 .8.8 2.15 1.34 3.77 1.34Z"/><path d="M331.22 6.46c0-4.32 2.42-6.47 7-6.47 4.85 0 7 2.15 7 6.46 0 1.88-.54 3.5-1.89 4.58 -1.08 1.07-2.97 1.61-5.4 1.61 -4.32 0-6.74-1.89-6.74-6.2Zm13.47 59.83h-12.94V18.58h12.93v47.7Z"/><path d="M365.44 66.29l-18.06-47.71h13.47l9.16 27.22c1.07 3.5 1.61 6.73 1.88 9.7h.26c.26-2.7.8-5.93 1.88-9.71l9.16-27.23h13.47l-18.06 47.7h-13.21v0Z"/><path d="M420.96 67.37c-7.55 0-13.75-2.16-18.06-6.47 -4.32-4.32-6.47-10.25-6.47-18.06 0-8.09 1.88-14.29 5.92-18.6 4.04-4.32 9.43-6.47 16.43-6.47 6.73 0 11.85 1.88 15.63 5.65 3.77 3.77 5.65 9.16 5.65 15.9v6.19h-30.73c.26 3.77 1.34 6.46 3.23 8.62 2.15 2.15 4.85 3.23 8.62 3.23 2.96 0 5.65-.27 8.08-.81 2.42-.54 5.12-1.62 8.08-2.97v9.97c-2.16 1.07-4.59 1.88-7.28 2.42 -2.43.8-5.4 1.34-9.17 1.34Zm-1.89-40.43c-2.7-.001-4.86.8-6.47 2.69 -1.62 1.61-2.43 4.31-2.7 7.54h18.32c0-3.24-.81-5.66-2.43-7.55 -1.89-1.62-4.05-2.7-6.74-2.7Z"/></g></g><path fill="#EF4650" d="M61.92 14.52c1.88 4.31 2.15 8.62 1.07 12.66L48.43 67.6 9.89 53.31c-3.78-1.62-6.47-4.59-8.36-8.63 -1.89-4.32-2.16-8.9-.27-14.02 1.88-4.86 4.85-8.36 9.16-10.52 4.04-2.16 8.35-2.7 12.66-1.62C36.82 22.29 42.48 29.3 39.51 39c-4.59-6.47-9.98-10.25-16.18-11.59 -5.66-1.62-9.71.26-11.86 6.19 -1.89 5.65-.81 9.7 3.5 11.58l27.48 10.24 11.04-30.73c.8-2.7.26-5.13-1.08-7.82 -1.62-2.97-4.05-4.86-7.01-5.93 -3.51-1.35-6.74-1.35-9.71 0 -2.7 1.07-4.32 2.69-4.86 4.58l-9.44-3.24c1.88-4.86 5.65-8.36 11.04-10.52C37.55-.67 42.94-.67 48.6 1.49c5.12 1.88 9.16 5.65 12.39 11.31 0 .26.53.8.8 1.61Z"/></svg>