<svg viewBox="0 0 256 171" xmlns="http://www.w3.org/2000/svg"><path fill="#F02E65" d="M128.01 11.49C140.57 4.2 155.16.02 170.73.02c47.08-.001 85.25 38.17 85.25 85.25s-38.18 85.25-85.26 85.25c-15.57 0-30.16-4.17-42.71-11.46 -28.77 16.63-65.89 15.52-94.09-5.75C9.58 134.97-3.12 105.03.61 74.79 4.33 44.54 23.92 18.58 51.98 6.7c24.84-10.53 52.99-8.59 76 4.74ZM29.8 43.41c-23.13 30.64-17.04 74.23 13.61 97.36 30.64 23.12 74.23 17.03 97.36-13.62 15.49-20.53 17.87-46.87 8.54-68.98 -6.86-16.14-19.63-29.15-35.6-36.31l.03-.04C84.8 8.8 49.69 16.98 29.77 43.38Zm61.53 12.02c2.6 0 3.46.14 3.31.6 -.08.17-.29.96-.58 2.11l-.12.44c-.29 1.15-.63 2.6-.97 4.1 -.56 2.42-1.76 7.5-2.99 12.7l-.23.94c-.38 1.57-.75 3.15-1.11 4.66 -1.61 6.77-3.62 15.4-4.52 19.17v0l-1.56 6.92h-3.47c-1.91 0-3.47-.21-3.47-.46 0-.91 1.5-7.73 4.01-18.12 1.3-5.68 3.61-15.26 5.06-21.34 .78-3.39 1.53-6.48 2.06-8.6l.1-.43c.36-1.44.59-2.33.63-2.43 .09-.2 1.8-.35 3.76-.35ZM69.44 72.49c2.3 0 4.21.15 4.21.35 0 .25-1.81 2.36-4.02 4.81 -2.21 2.4-4.02 4.66-4.02 5.01 0 .3 1.95 2.71 4.31 5.21v0l4.31 4.66h-9.14l-3.22-3.42c-1.76-1.86-3.82-4.12-4.57-5.02v0l-1.36-1.61 4.61-5.02 4.66-5.02Zm35.08 0l4.51 4.87c2.51 2.65 4.51 5.01 4.51 5.26 0 .3-1.91 2.61-4.27 5.22v0L105 92.5l-4.67.04h-4.67l4.16-4.57c2.3-2.46 4.21-4.82 4.31-5.17 .15-.66-2.61-3.97-6.53-7.88 -1.06-1.06-1.91-2.01-1.91-2.16 0-.15 1.95-.31 4.41-.31v0h4.36Z"/></svg>