<svg viewBox="0 0 256 177" xmlns="http://www.w3.org/2000/svg"><path fill="#577138" d="M251.46 88.54c-2.37-7.86-3.55-11.79-5.27-15.97 -3.31-8.09-7.51-14.66-13.81-22.8 -14.74-19.03-22.11-28.56-34.13-36.16C172.16-2.89 144.71.03 141.58.41c-9.37 1.12-29.98 5.23-47.64 22.27 -10.01 9.66-16.3 23.52-19.24 30.6 -3.26 56.39 52.06 78.98 65.09 88.42 4.18 1.99 13.81 6.23 21.62 10.26 18.04 9.31 30.54 11.23 37 12.36 14.05 2.46 35.92-3.11 46.3-14.74 9.94-11.15 12.84-26.19 10.46-39.6 -.73-4.13-.74-11.46-3.77-21.52l0 .02Z"/><path fill="#A3B34F" d="M243.51 82.49c-3.77-10.06-8.19-16.73-13.43-24.64 -6.42-9.69-12.16-16.3-16.76-21.56 -9.83-11.22-14.74-16.83-21.42-20.9 -11.53-7.04-22.67-8.31-29-8.97 -14.95-1.55-26.37 1.61-31.92 3.21 -5.72 1.64-17.03 5.01-28.86 14.29 -10.71 8.4-17.3 21.06-20.88 27.88 -3.3 6.14 16.95 55.45 63.7 84.6 2.39 1.23 9.05 4.27 13.16 6.35 1.33.67 2.56 1.28 3.71 1.84 1.85.85 3.58 1.66 5.22 2.44 5.25 2.37 8.5 3.57 12.8 5.82 14.91 7.79 30.65 5.57 32.98 5.21 3.09-.48 24.61-3.81 33.52-20.94 4.69-9.04 3.88-18.03 2.76-30.35 -.32-3.5-1.39-12.95-5.68-24.4"/><path fill="#DDE072" d="M171.31 142.86c15.67 5.99 20.82 9.13 27.53 9.95 2.2.26 23.24 1.58 35.58-10.07 9.18-8.67 9.62-17.44 10.15-21.58 1.83-14.24-2.22-32.49-6.95-41.45 -6.21-11.78-7.82-14.25-24.46-36.31 -12.33-16.32-18.51-19.34-24.95-23.58 -11.07-7.24-23.86-7.4-32.54-7.76 -6.39-.27-18.36 2.08-29.83 6.1 -17.93 6.3-28.39 16.86-35.74 31.81 -8.17 17.24 33.1 73.42 61.8 84.91"/><path fill="#A3B34F" d="M176.67 109.13c9.99-1.75 16.64-12.01 18.68-20.31 2.85-11.75-3.06-21.56-7-28.1 -3.72-6.16-10.26-14.77-22.09-19.57 -10.9-4.43-19.36.94-23.31 3.13 -17.39 25.7-3.92 51.79 21.65 64.81 3.22.31 9.5.45 12.03.01"/><path fill="#577138" d="M147.73 133.35c4.38-5.24 12.81-16.1 16.23-22.86 .22-.44.44-.91.66-1.4 3.67-8 7.32-21.84 7.67-32.73 .31-9.76-3.03-16.36-3.03-16.36 -3.41-8.88-13.2-11.92-17.49-13.56 -3.53-1.28-6.69-1.93-9.89-2.3 -6.32-.57-15.07.1-30.21 2.33 -15 2.09-29.97 4.96-43.75 8.28 -16.72 4.07-25.93 6.31-36.56 11.45C19.09 72.13 7.5 77.73 2.48 90.05 -.59 97.59-.33 105.18.44 110.23c-.001 0 3.3 33.02 26.03 49.85 19.02 14.11 47.08 19.32 67.99 13.6 16.49-3.14 32.22-18.6 45.3-32.13 2.67-2.71 5.88-5.89 7.9-8.29l-.01.01Z"/><path fill="#A3B34F" d="M127.03 127.81c-15.38 9.02-37.94 21.27-66.17 20.96 -.91-.02-1.83-.04-2.75-.08 -9.47-.39-34.62-1.4-47.56-18.22 -3.57-4.65-5.68-9.79-6.83-13.28l-.04-.08 0-.01c-.7-2.13-.95-3.38-.96-3.43 -.2-.91-.36-1.8-.5-2.72l-.02-.07c-.01-.02-.01-.02-.01-.03l0-.01 -.01-.02c-.73-4.83-.98-12.06 1.93-19.21 4.76-11.68 15.53-16.89 28-22.92 10.45-5.06 19.59-7.29 36.18-11.33 2.12-.52 4.17-1.01 6.14-1.46 2.22-.51 4.37-.99 6.42-1.42 4.02-.86 7.87-1.61 11.77-2.31l.01-.02c7.14-1.28 13.41-2.21 19.23-3.06 14.99-2.2 23.62-2.88 29.78-2.32 3.37.29 6.19.95 9.41 2.18 4.39 1.68 12.58 4.81 16.53 12.69 1.18 2.37 1.89 5 2.09 7.83 .02.27.03.55.04.83 .24 7.1-2.69 14.08-4.26 17.83 -8.84 21.03-25.26 31.72-38.56 39.54"/><path fill="#DDE072" d="M117.34 128.85c14.63-7.54 26.51-16.19 32.64-22.92 10.17-11.2 14.31-22.58 15.21-31.83 1-10.38-5.52-14.25-7.73-16.14 -8.24-7.03-19.43-6.92-29.6-6.96 -4.63-.02-11.26.33-31.59 4.76 -16.18 3.68-19.48 4.48-39.03 9.82 -13.04 3.62-20.38 6.06-26.38 9.83 -8.4 5.26-18.84 11.82-21.49 24.47 -3.29 15.69 8.31 28.76 10.67 31.24 11.35 11.85 27.01 13.27 37.81 13.31 4.23.01 8.25-.21 11.79-.41 21.93-1.22 37.03-9.77 47.65-15.22"/><path fill="#5E3108" d="M60.5 65.71c-1.68 1.26-4.42 3.96-5.83 5.4l-3.91 4.36c-6.93 8.69-11.87 25.46-8.12 29.97 1.92 2.31 2.93 2.57 3.62 3.03 9.61 4.64 18.38 11.03 32.72 11.87l11.92-.02c.96-.04 2.38-.1 3.4-.18 2.65-.24 1.49-.27 3.33-.46 16.49-2.71 38.47-14.39 37.62-30.73 -.33-6.11-7.3-16.11-12.04-20.62 -5.04-4.81-14.45-9.47-16.91-10.35 -1.16-.36-2.54-.83-4.84-1.24 -1.22-.22-2.41-.41-3.6-.55 -.57-.08-1.14-.13-1.71-.19 -.58-.06-1.14-.09-1.71-.12 -11.98-.75-22.73 2.37-31.02 7.65 -.69.43-1.37.88-2.02 1.35 -.34.24-.67.48-1 .74"/></svg>