<svg viewBox="0 0 512 95" xmlns="http://www.w3.org/2000/svg"><g><path d="M183.05 78.81L156 15.08c-.39-1.34-2.1-1.92-3.24-1.92h-.77c-1.34 0-2.86.95-3.43 2.1l-27.24 63.53c-.2.19-.2.38-.2.57 0 .57.57 1.14 1.14 1.14h7.61c.57 0 1.14-.58 1.33-.96 0-.2 5.33-12.83 5.33-12.83h31.42l5.33 13.01s.38 1.14 1.71 1.14h6.85c.76 0 1.52-.77 1.52-1.54 -.2-.2-.39-.58-.39-.58v0Zm-43.42-20.48l12.56-30.24 12.37 30.23h-24.95v0Zm170.05-1.73c0-12.06-7.81-20.1-19.05-20.1 -6.48 0-11.05 2.67-13.72 6.31V14.67c0-.58-.58-.96-.96-.96h-7.05c-.58 0-.96.38-1.15.95v64.87c0 .57.38.95.95.95h7.23c.57 0 .95-.39.95-.96V57.13c0-5.94 4.18-12.06 11.99-12.06 6.85 0 11.42 5.16 11.42 13.01V79.7c0 .57.38.95.95.95h7.23c.57 0 .95-.39.95-.96l.19-23.16v0Zm16.75-40c-3.62 0-6.48 2.48-6.48 6.31 0 3.82 2.85 6.31 6.47 6.31 3.8 0 6.66-2.68 6.66-6.32s-2.86-6.51-6.67-6.32Zm96.73 41.71v-1.54c0-.77-.2-1.34-.2-1.73 -1.34-10.91-9.15-18.38-20.38-18.38 -12.95 0-21.9 9.75-21.9 22.38 0 12.82 9.71 22.39 23.04 22.39 8.37 0 13.33-2.68 16.37-5.17 0 0 .76-.58.19-1.34l-3.05-5.17c-.2-.39-.96-.39-1.53 0 -2.29 1.72-5.72 3.82-11.05 3.82 -8 0-13.72-4.98-15.05-11.87h32.75c.57 0 .76-.39.76-.96v-2.49 0Zm-33.52-3.26c1.33-6.7 6.28-10.91 12.94-10.91 6.09 0 11.04 4.4 11.42 10.9h-24.38ZM215.96 36.67s-1.72-.2-2.67-.2c-7.62 0-12.76 4.21-14.48 9.18l-.39-7.47c0-.58-.58-.96-1.15-.96h-5.72c-.58 0-1.15.57-1.15 1.14v40.95c0 .57.57 1.14 1.14 1.14h7.23c.57 0 1.14-.39 1.14-.96V57.67c0-6.13 4.18-12.06 12.18-12.06 1.33 0 3.04.38 3.04.38 .57 0 .95-.2 1.14-.77l.57-7.28c0-.96-.39-1.34-.96-1.34v0Zm37.89 33.48c.38-.2.76 0 .95.38l3.04 5.74c.19.38 0 .76-.39.95 -2.86 1.91-7.05 4.01-14.29 4.01 -13.72 0-23.24-9.76-23.24-22.2 0-12.83 10.09-22.39 23.23-22.39 7.42 0 11.8 2.29 14.66 4.21 .19.19.57.38.19.95l-3.24 5.74c-.2.38-.58.38-.96.19 -2.29-1.34-5.34-2.68-9.53-2.68 -8.76 0-14.86 5.93-14.86 13.96 0 7.84 5.9 13.77 14.47 13.77 4.57 0 7.42-1.34 9.9-2.68v0Zm76.36-32.73h-7.24c-.58 0-.96.38-.96.95v40.95c0 .57.38.95.95.95h7.23c.57 0 .95-.39.95-.96V38.35c0-.58-.39-.96-.96-.96Zm43.98 33.48c-.2-.2-.96-.2-1.72.19 -1.53.76-3.43 1.72-6.67 1.72 -5.34 0-8.57-2.3-8.57-8.04V45.05h15.99c.57 0 .95-.39.95-.96v-5.75c0-.58-.39-.96-.96-.96h-16V23.6c0-.58-.39-.96-.96-.96h-7.05c-.58 0-.96.38-.96.95v13.77h-8c-.58 0-.96.38-.96.95v5.74c0 .57.38.95.95.95h7.8v20.28c0 10.14 6.47 15.88 15.99 15.88 6.66 0 10.66-2.3 12.56-3.64 .38-.39.57-.77.38-1.15l-2.86-5.55v0Zm88.54-.58c.38-.2.76 0 .95.38l3.04 5.74c.19.38 0 .76-.39.95 -2.86 1.91-7.05 4.01-14.29 4.01 -13.72 0-23.24-9.76-23.24-22.2 0-12.83 10.09-22.39 23.23-22.39 7.42 0 11.8 2.29 14.66 4.21 .19.19.57.38.19.95l-3.24 5.74c-.2.38-.58.38-.96.19 -2.29-1.34-5.34-2.68-9.53-2.68 -8.76 0-14.86 5.93-14.86 13.96 0 7.84 5.9 13.77 14.47 13.77 4.57-.2 7.61-1.34 9.9-2.68Zm46.27.76c-.2-.2-.96-.2-1.72.19 -1.53.76-3.43 1.72-6.67 1.72 -5.34 0-8.57-2.3-8.57-8.04V45.23h15.99c.57 0 .95-.39.95-.96v-5.75c0-.58-.39-.96-.96-.96h-16V23.78c0-.58-.39-.96-.96-.96h-7.05c-.58 0-.96.38-.96.95v13.77h-8c-.58 0-.96.38-.96.95v5.74c0 .57.38.95.95.95h7.8v20.28c0 10.14 6.47 15.88 15.99 15.88 6.66 0 10.66-2.3 12.56-3.64 .38-.39.57-.77.38-1.15L508.91 71v0Z"/><path d="M43.21 39c2.01-2.9 6.26-2.95 8.35-.15l.1.14 21.75 31.22s.01.01.02.01l.01-.01v0l.01-.02c0-.01.01-.02.03-.02l.01 0v0l.01.01 7.05 9.61c.37.5.32 1.21-.14 1.65 -8.55 8.28-20.2 13.38-33.04 13.38s-24.49-5.1-33.04-13.39c-.43-.42-.5-1.07-.2-1.57l.06-.1 7.05-9.62c0-.01.01-.02.02-.02l.01 0v0l.01.01s.01.01.03.01l.01-.01v0l.01-.02 21.75-31.23ZM47.44-.01c26.2 0 47.44 21.24 47.44 47.44 0 8.83-2.42 17.1-6.62 24.18 -.44.73-1.46.8-2.02.17l-.07-.08 -6.91-9.05c-.3-.39-.35-.9-.16-1.34 1.86-4.26 2.9-8.96 2.9-13.91 0-19.12-15.5-34.61-34.61-34.61 -19.12-.001-34.61 15.49-34.61 34.6 -.001 4.94 1.03 9.64 2.9 13.9 .17.4.14.87-.09 1.24l-.07.09 -6.91 9.04c-.55.7-1.63.66-2.08-.11C2.32 64.46-.09 56.19-.09 47.36 -.09 21.15 21.15-.09 47.35-.09Z"/></g></svg>