<svg viewBox="0 0 256 256" xmlns="http://www.w3.org/2000/svg"><path fill="#1793D1" d="M127.97 0c-11.4 27.93-18.28 46.2-30.96 73.31 7.77 8.24 17.32 17.84 32.83 28.69 -16.68-6.86-28.05-13.75-36.55-20.9C77.05 114.97 51.6 163.23-.02 255.98c40.57-23.43 72.03-37.87 101.35-43.38 -1.26-5.42-1.98-11.27-1.93-17.38l.04-1.3c.64-26 14.16-45.99 30.18-44.63 16.02 1.35 28.47 23.54 27.82 49.53 -.13 4.89-.68 9.59-1.64 13.96 28.99 5.67 60.11 20.07 100.14 43.18 -7.9-14.53-14.94-27.63-21.67-40.1 -10.6-8.22-21.66-18.91-44.2-30.48 15.49 4.02 26.59 8.67 35.24 13.86C156.9 71.9 151.36 54.98 127.9-.06Z"/></svg>