<svg viewBox="0 0 256 174" xmlns="http://www.w3.org/2000/svg"><g fill="#00979C"><path d="M14.04 130.399L.91 173.239h10.32l2.36-7.99h12.803l2.3 7.98h11.23l-13.13-42.85h-12.79v0Zm2.16 26.24l3.89-13.33 3.85 13.32h-7.76v0Z"/><path d="M64.63 153.696c-.16-.17-.32-.33-.48-.47 .32-.13.63-.26.94-.4 1.25-.58 2.34-1.35 3.25-2.28 .92-.95 1.64-2.09 2.14-3.39 .5-1.29.75-2.77.75-4.4 0-2.25-.41-4.19-1.21-5.77 -.81-1.61-1.97-2.93-3.47-3.93 -1.45-.97-3.21-1.68-5.24-2.09 -1.95-.4-4.14-.6-6.52-.6h-13.4v42.84h10.27v-16.74h.3c1.12 0 2.061.24 2.86.75 .79.5 1.4 1.25 1.87 2.28l6.21 13.7h11.95L67.3 157.9c-.92-1.86-1.82-3.25-2.76-4.27v0Zm-4.47-8.22c-.3.56-.71 1.03-1.26 1.41 -.59.4-1.31.72-2.15.93 -.9.22-1.91.33-3.03.33h-2.01v-9.02h2.25c2.35 0 4.1.36 5.195 1.09 .95.63 1.41 1.7 1.41 3.27 0 .75-.15 1.4-.44 1.96v0Z"/><path d="M105.04 135.48c-1.73-1.74-3.92-3.05-6.49-3.87 -2.51-.81-5.46-1.22-8.78-1.22H76.18v42.84H88c3.81 0 7.15-.52 9.92-1.55 2.81-1.04 5.15-2.55 6.97-4.49 1.81-1.93 3.16-4.29 4.01-7.01 .83-2.67 1.25-5.66 1.25-8.9 0-3.54-.43-6.64-1.26-9.22 -.86-2.65-2.17-4.87-3.9-6.61v0Zm-8.41 26.03c-1.79 1.98-4.38 2.94-7.92 2.94h-2.26v-25.3h2.8c1.98 0 3.64.28 4.94.83 1.25.53 2.23 1.29 2.97 2.3 .76 1.04 1.31 2.35 1.63 3.89 .34 1.62.51 3.51.51 5.6 0 4.45-.91 7.72-2.71 9.71v0Z"/><path d="M134.942 157.654c0 1.47-.14 2.73-.41 3.74 -.26.93-.63 1.7-1.11 2.27 -.47.55-1.03.94-1.73 1.18 -.77.27-1.74.4-2.9.4 -1.23 0-2.24-.16-3.01-.47 -.74-.3-1.34-.73-1.82-1.31 -.49-.59-.84-1.32-1.04-2.19 -.23-.96-.34-2.09-.34-3.35v-27.57H112.3v28.02c0 2.31.28 4.44.85 6.31 .58 1.94 1.55 3.63 2.878 5 1.32 1.37 3.05 2.43 5.14 3.14 2.03.7 4.49 1.05 7.3 1.05 2.51 0 4.82-.36 6.85-1.06 2.08-.72 3.87-1.8 5.33-3.22 1.45-1.43 2.58-3.22 3.36-5.32 .76-2.07 1.14-4.494 1.14-7.21V130.3h-10.28v27.25"/><path d="M150.47 139.018h9.22v25.54h-9.22v8.68h28.84v-8.68h-9.22V139h9.22v-8.619h-28.85V139"/><path d="M207.9 154.811l-11.49-24.42h-11.63v42.84h9.56v-24.88l11.54 24.87h11.57v-42.85h-9.58v24.41"/><path d="M250.738 135.46c-3-3.82-7.5-5.75-13.37-5.75 -2.51 0-4.91.44-7.12 1.32 -2.25.88-4.23 2.27-5.9 4.11 -1.66 1.82-2.97 4.17-3.9 6.98 -.93 2.77-1.4 6.09-1.4 9.87 0 6.99 1.48 12.42 4.41 16.16 3 3.82 7.49 5.76 13.36 5.76 2.51 0 4.9-.45 7.119-1.33 2.24-.89 4.22-2.28 5.89-4.12 1.65-1.83 2.96-4.18 3.89-6.99 .92-2.77 1.38-6.1 1.38-9.88 0-7.01-1.49-12.46-4.42-16.19v0Zm-6.77 22.26c-.3 1.58-.76 2.91-1.37 3.96 -.58.99-1.3 1.73-2.2 2.23 -.9.5-2.01.75-3.31.75 -2.57 0-4.36-.96-5.48-2.93 -1.23-2.16-1.85-5.57-1.85-10.12 0-2.14.15-4.06.46-5.71 .29-1.58.75-2.91 1.37-3.96 .59-1.01 1.31-1.74 2.2-2.25 .87-.51 1.98-.76 3.28-.76 2.58 0 4.38.95 5.48 2.91 1.21 2.16 1.83 5.56 1.83 10.11 0 2.14-.16 4.06-.46 5.7v0Z"/><path d="M240.315 5.74h1.82v4.79h1.29v-4.8h1.83V4.54h-4.96v1.19"/><path d="M249.768 4.55l-1.25 4.07 -1.29-4.08h-1.69v5.98h1.21V6.69l1.2 3.82h1.11l1.14-3.73v3.72h1.21V4.51h-1.67"/><path d="M190.27 120.327c-16.29 0-30.214-5.5-42.47-16.73 -7.58-6.94-13.82-15.44-19.56-24.28 -5.75 8.83-11.99 17.336-19.56 24.27 -13.17 12.06-28.27 17.51-46.149 16.63C28.43 120.06.73 93.15.73 60.09 .73 26.95 28.58-.02 62.813-.02c18.732 0 34.503 6.199 48.21 18.95 6.58 6.125 12.14 13.23 17.21 20.66 5.07-7.44 10.62-14.54 17.21-20.67 13.7-12.751 29.47-18.95 48.21-18.95 34.23 0 62.08 26.96 62.08 60.118 0 33.05-27.7 59.97-61.798 60.118 -1.24.06-2.47.09-3.68.09v0ZM140.71 59.31c6.79 11.02 13.38 21.28 21.42 28.64 9.06 8.3 18.62 11.72 30.97 11.07l.55-.02c22.53 0 40.86-17.45 40.86-38.9s-18.34-38.9-40.87-38.9c-13.31 0-24.03 4.21-33.76 13.26 -7.27 6.76-13.27 15.42-19.2 24.83v0ZM62.81 21.21c-22.54 0-40.862 17.45-40.862 38.9s18.33 38.9 40.862 38.9l.55.01c12.35.65 21.9-2.77 30.97-11.08 8.03-7.36 14.62-17.62 21.42-28.65 -5.93-9.41-11.93-18.07-19.2-24.84 -9.74-9.06-20.46-13.267-33.759-13.267v0Z"/><path d="M196.47 52.407V40.9h-11.98v11.506h-11.51v11.91h11.5v11.59h11.97v-11.6h11.506v-11.92H196.45"/><path d="M45.59 52.26H83.4v12.29H45.58v-12.3Z"/></g></svg>