<svg viewBox="0 0 512 156" xmlns="http://www.w3.org/2000/svg"><path fill="#008FBE" d="M309.55 3.89h34.3v13.65C352.59 6.32 366.08-.16 380.3.02c15.71-.25 30.32 8.03 38.18 21.64C430.73 4.14 449.3.01 462.24.01 480.09 0 495.85 8.4 504.27 23.12c2.79 4.91 7.7 15.75 7.7 37.12v91.06h-34.33V70.04c0-16.46-1.76-23.12-3.17-26.26 -2.17-5.61-7.36-12.99-19.62-12.99 -8.12.14-15.68 4.17-20.33 10.82 -5.96 8.39-6.65 21.01-6.65 33.61v76.06h-34.33V70.02c0-16.46-1.76-23.12-3.17-26.26 -2.17-5.61-7.36-12.99-19.62-12.99 -8.11.15-15.66 4.17-20.31 10.82 -5.96 8.39-6.67 21.01-6.67 33.61v76.06h-34.31V3.81Zm-118.84 0h34.32V17.2c4.1-4.83 8.94-8.96 14.35-12.26 6.41-3.56 13.69-5.26 21.01-4.92 9.46-.22 18.8 2.21 26.97 7.01l-14.1 31.16c-5.18-3.47-11.28-5.31-17.52-5.26 -7.36 0-14.72 1.03-21.37 8.05 -9.46 10.15-9.46 24.15-9.46 33.96v76.36h-34.23l-.03-147.45ZM34.97 78.13c-.001 25.56 16.1 46.92 40.97 46.92 21.64 0 41.66-15.76 41.66-46.59 0-32.23-19.96-47.62-41.67-47.62 -24.88 0-40.98 21.01-40.98 47.27m80.54-74.25h34.39V151.3H115.5v-15.42c-10.98 12.92-27.17 20.24-44.12 19.95 -45.46 0-71.43-37.82-71.43-78.45C-.05 29.39 32.87-.03 71.74-.03c17.1-.37 33.37 7.43 43.78 21.01l-.07-17.17Z"/></svg>