<svg viewBox="0 0 256 242" xmlns="http://www.w3.org/2000/svg"><path fill="#00BCDD" d="M182.01 66.91V29.92h37.12V66.9H182Zm49.62-14.21h24.25V29.83h-24.26v22.86Zm-23.41-34.25h21.81V-.01h-21.82v18.45Zm34.04-2.38h13.71V3.85h-13.72v12.21Z"/><path fill="#0C4062" d="M24.5 73.24c-.3 20.25-.13 40.09 3.34 59.76 2.68 15.23 7.16 29.76 16.2 42.56 12.93 18.3 30.43 30.78 50.79 39.65 2.96 1.29 5.46 1.54 8.31-.15 2.42-1.45 5.08-2.49 7.64-3.71 32.51-15.4 53-39.92 58.92-76.03 3.34-20.45 3.91-40.96 3.7-61.56 -.01-.17-.22-.33-.4-.6 -27-2.6-51.17-12.41-72.34-29.49C77.8 60.45 52.65 70.5 24.47 73.19m172.37-6.34c.06 10.08.34 20.16.13 30.24 -.48 22.63-2.36 45.08-10.04 66.64 -10.12 28.36-29.49 48.87-55.24 63.54 -9.62 5.47-20.11 9.45-30.28 13.94 -1.4.61-3.42.74-4.83.22 -25.14-9.06-47.5-22.37-65.01-42.95 -15.13-17.78-23.91-38.43-27.12-61.37 -1.8-12.77-2.62-25.68-3.92-38.52 -.06-.54-.4-1.04-.62-1.56 0-7.79 0-15.57 0-23.36 .38-3.88.8-7.75 1.14-11.62 .35-4.06.62-8.12.96-12.49 38.92 1.98 71.71-11.16 98.69-39.19 21.1 25.6 48.52 37.89 81.21 39.19 4.5 0 9 0 13.68 0 .4 5.98.79 11.6 1.17 17.22"/><path fill="#00BCDD" d="M100.69 78.2c6.29 7.77 12.25 15.11 18.17 22.48 10.08 12.53 20.1 25.12 30.24 37.61 1.61 1.99 2.11 3.86 1.33 6.34 -2.2 7.05-6.61 15.56-10.2 18.99 -13.12-16.27-26.21-32.51-39.56-49.07 -13.21 16.4-26.24 32.59-39.57 49.16 -1.1-1.59-2.16-2.84-2.89-4.26 -2.11-4.12-3.95-8.36-6.15-12.43 -2.23-4.12-1.35-7.42 1.52-10.92 13.6-16.59 27.05-33.3 40.56-49.96 2.03-2.52 4.08-5.02 6.5-7.99"/></svg>