<svg viewBox="0 0 256 256" xmlns="http://www.w3.org/2000/svg"><path fill="#E40046" d="M63.17 0C28.3 0-.01 28.3-.01 63.17v129.25c0 34.86 28.3 63.17 63.17 63.17h129.25c34.86 0 63.17-28.31 63.17-63.18V63.15c0-34.87-28.31-63.18-63.18-63.18L63.14-.04Z"/><path fill="#FFF" d="M108.9 127.7h16.51c1.94-.04 3.76.97 4.75 2.66 .98 1.68.98 3.76 0 5.44 -.99 1.68-2.81 2.7-4.76 2.66H63.2c-1.95.03-3.77-.98-4.76-2.67 -.99-1.69-.99-3.77 0-5.45 .98-1.69 2.8-2.71 4.75-2.67H97.2c.01-.04.03-.08.05-.12l32.18-77.42c.82-1.98 2.73-3.28 4.86-3.32 2.22-.05 4.24 1.28 5.08 3.34l61.94 151.04c.77 1.78.52 3.85-.66 5.4 -1.19 1.55-3.11 2.34-5.04 2.06 -1.93-.28-3.57-1.57-4.27-3.39l-57-138.98 -25.51 61.35Zm-15.07 36.34c-.02.04-.04.09-.06.14l-17.11 41.15c-.73 1.79-2.36 3.06-4.29 3.32 -1.93.25-3.84-.54-5.01-2.09 -1.18-1.55-1.43-3.6-.67-5.38l15.44-37.17H51.8c-1.95.03-3.77-.98-4.76-2.67 -.99-1.69-.99-3.77 0-5.45 .98-1.69 2.8-2.71 4.75-2.67l62.19-.01c1.94-.04 3.76.97 4.75 2.66 .98 1.68.98 3.76 0 5.44 -.99 1.68-2.81 2.7-4.76 2.66H93.76Z"/></svg>