<svg viewBox="0 0 512 142" xmlns="http://www.w3.org/2000/svg"><g fill="#263238"><path d="M189.64 81.07h-22.13l-4.16 10.34c-.24 1.02-1.2 1.7-2.25 1.59 -.6-.01-1.17-.24-1.6-.66 -.56-.28-.64-.83-.65-1.34l-.01-.26c-.06-.37.06-.75.32-1.02l15.04-37.07c.42-1.2 1.07-2.31 1.91-3.26 1.46-1.34 3.7-1.34 5.17 0 .85.94 1.5 2.04 1.91 3.25l15.04 37.06c0 .32.32.65.32 1.01 -.01.59-.24 1.16-.66 1.59 -.44.39-1.01.62-1.6.65 -1.03.05-1.96-.61-2.25-1.6L189.55 81Zm-10.85-27.7l-9.59 24.18h19.2l-9.62-24.19Zm29.72 34.78c-.33-.33-.33-.33-.33-.66s.32-1.02 1.01-1.6c.31-.4.78-.64 1.28-.67l.3 0c.32 0 .65 0 .65.32 1.46 1.33 3.2 2.32 5.09 2.92 2.11.95 4.43 1.39 6.76 1.26 2.68.11 5.34-.56 7.66-1.92 1.94-1.3 3.06-3.53 2.92-5.86 .07-1.1-.04-2.2-.33-3.26 -.37-.86-.91-1.62-1.6-2.25 -.74-.73-1.63-1.27-2.61-1.6 -1.18-.51-2.39-.93-3.62-1.27l-8.03-2.61c-2.72-.77-5.21-2.2-7.24-4.16 -1.76-1.81-2.7-4.25-2.61-6.77 -.08-4.35 2.59-8.24 6.61-9.74l.61-.21c2.43-.96 5.05-1.39 7.66-1.27 2.74.05 5.46.59 8.02 1.59 2.06.78 4 1.88 5.74 3.25 .32.35.55.79.65 1.26 .01.4-.14.79-.42 1.07l-.24.18c-.36.32-.8.55-1.27.65 -.33 0-1.02 0-1.27-.33 -1.42-1.02-2.94-1.89-4.52-2.61 -2.07-.78-4.24-1.21-6.44-1.27 -2.69-.12-5.35.55-7.67 1.91 -1.79 1.12-2.89 3.06-2.93 5.17 -.07 1.54.51 3.04 1.59 4.15 1.65 1.23 3.48 2.22 5.42 2.92l8.02 2.6 1.34.54v0l1.83.7v0l.97.34v0c1.18.54 2.26 1.3 3.18 2.24 .86.71 1.54 1.61 1.99 2.63l.24.62c.56 1.3.78 2.73.65 4.15 .26 3.62-1.3 7.13-4.16 9.36 -3.48 2.39-7.66 3.53-11.86 3.25 -4.94.08-9.7-1.8-13.24-5.25Zm42.3 0c-.33-.33-.33-.33-.33-.66s.32-1.02 1.01-1.6c.31-.4.78-.64 1.28-.67l.3 0c.32 0 .65 0 .65.32 1.46 1.33 3.2 2.32 5.09 2.92 2.11.95 4.43 1.39 6.76 1.26 2.68.11 5.34-.56 7.66-1.92 1.94-1.3 3.06-3.53 2.92-5.86 .07-1.1-.04-2.2-.33-3.26 -.37-.86-.91-1.62-1.6-2.25 -.74-.73-1.63-1.27-2.61-1.6 -1.18-.51-2.39-.93-3.62-1.27l-7.74-2.61c-2.72-.77-5.21-2.2-7.24-4.16 -1.6-1.65-2.52-3.81-2.61-6.08l-.01-.69c-.09-4.56 2.86-8.62 7.23-9.95 2.43-.96 5.05-1.39 7.66-1.27 2.74.05 5.46.59 8.02 1.59 2.06.78 4 1.88 5.74 3.25 .32.35.55.79.65 1.26 .01.4-.14.79-.42 1.07l-.24.18c-.36.32-.8.55-1.27.65 -.33 0-1.02 0-1.27-.33 -1.42-1.02-2.94-1.89-4.52-2.61 -2.07-.78-4.24-1.21-6.44-1.27 -2.69-.12-5.35.55-7.67 1.91 -1.79 1.12-2.89 3.06-2.93 5.17 -.07 1.56.52 3.08 1.62 4.19 1.65 1.23 3.48 2.22 5.42 2.92l8.02 2.6 1.99.79v0l1.18.45v0l.97.34v0c1.18.54 2.26 1.3 3.18 2.24 .86.71 1.54 1.61 1.99 2.63l.24.62c.56 1.3.78 2.73.65 4.15 .26 3.62-1.3 7.13-4.16 9.36 -3.48 2.39-7.66 3.53-11.86 3.25 -5.06.18-9.97-1.73-13.56-5.28Zm43.49 4.26c-.48-.39-.73-.99-.66-1.6V51.03c0-.6.23-1.17.65-1.6 .27-.56.82-.64 1.33-.65l23.28-.01c.59 0 1.16.23 1.59.65 .32.35.55.79.65 1.26 .01.5-.23.98-.66 1.26 -.46.36-1.01.58-1.6.65h-20.54v15.43h19.52c.59 0 1.16.23 1.59.65 .32.35.55.79.65 1.26 .01.4-.14.79-.42 1.07l-.24.18c-.44.39-1.01.62-1.6.65h-19.53V88.6h21.44c.59 0 1.16.23 1.59.65 .32.35.55.79.65 1.26 .01.5-.23.98-.66 1.26 -.46.36-1.01.58-1.6.65h-23.69c-.51.47-1.2.21-1.85-.11Zm63.12-.74l-.36-.25c-.61-.36-1.06-.93-1.27-1.6l-15.95-35.15v36.48c.01.4-.14.79-.42 1.07l-.24.18c-.42.43-1 .67-1.6.67 -.49 0-.95-.16-1.33-.45l-.27-.24c-.4-.31-.63-.77-.66-1.27V52.38c-.05-.9.31-1.77.96-2.37l.29-.25c.69-.68 1.63-1.04 2.6-1.02 1.91 0 3.18 1.01 4.15 3.25l15.69 34.45 15.69-34.46c1.01-1.92 2.24-3.26 4.15-3.26 .96-.03 1.9.33 2.6 1.01 .74.66 1.2 1.6 1.26 2.6v38.72c.01.4-.14.79-.42 1.07l-.24.18c-.44.39-1.01.62-1.6.65 -.6-.01-1.17-.24-1.6-.66 -.4-.31-.63-.77-.66-1.27V54.53l-16.02 35.14c-.27.64-.71 1.19-1.27 1.59l-.68.36c-.31.16-.57.28-.92.28 -.71.1-1.43-.05-2.04-.41v0Zm40.03.73c-.56-.28-.64-.83-.65-1.34l-.01-40.03c0-.6.23-1.17.65-1.6 .56-.4 1.22-.63 1.91-.66h11.85c10.26 0 15.36 3.83 15.36 11.28 -.04 2.49-.96 4.88-2.61 6.76 -1.57 1.77-3.73 2.9-6.06 3.19l-.71.06c2.98.04 5.85 1.2 8.02 3.25 2 2.07 3.06 4.89 2.92 7.77 -.01 1.56-.36 3.1-1.02 4.51 -.64 1.42-1.52 2.72-2.61 3.83 -1.28 1.22-2.83 2.11-4.52 2.6 -2.19.71-4.47 1.05-6.77 1.01h-14.47c-.39-.07-.76-.22-1.08-.44l-.31-.26Zm13.08-24.19c2.8.2 5.61-.47 8.02-1.92 1.71-1.33 2.68-3.38 2.64-5.53l-.04-.59c-.04-1.12-.26-2.22-.66-3.26 -.37-.86-.91-1.62-1.6-2.25 -.61-.65-1.39-1.09-2.25-1.27 -.94-.38-1.93-.6-2.93-.66h-12.8v15.9l9.58-.33v-.15Zm1.59 20.93c2.8.2 5.61-.47 8.02-1.92 1.86-1.74 2.82-4.23 2.6-6.77 .23-2.58-1-5.06-3.19-6.44 -2.96-1.51-6.28-2.17-9.59-1.92h-8.68v17.1l10.81-.08Zm28.21 3.49l-.34-.24c-.56-.28-.64-.83-.65-1.34l-.01-40.03c0-.6.23-1.17.65-1.6 .56-.4 1.22-.63 1.91-.66 .59 0 1.16.23 1.59.65 .55.27.63.82.64 1.33l0 38.36h20.53c.59 0 1.16.23 1.59.65 .32.35.55.79.65 1.26 .01.4-.14.79-.42 1.07l-.24.18c-.44.39-1.01.62-1.6.65h-22.78c-.56.05-1.11-.07-1.58-.35v0Zm62.75-11.59h-22.24l-4.16 10.34c-.24 1.02-1.2 1.7-2.25 1.59 -.6-.01-1.17-.24-1.6-.66 -.56-.28-.64-.83-.65-1.34l-.01-.26c-.06-.37.06-.75.32-1.02l15.04-37.07c.42-1.2 1.07-2.31 1.91-3.26 1.46-1.34 3.7-1.34 5.17 0 .85.94 1.5 2.04 1.91 3.25l15.04 37.06c0 .32.32.65.32 1.01 -.01.59-.24 1.16-.66 1.59 -.44.39-1.01.62-1.6.65 -1.03.05-1.96-.61-2.25-1.6l-4.38-10.35Zm-10.85-27.7l-9.59 24.18h19.2l-9.62-24.19Z"/><path d="M115.92 26.48L75.53 2.94C71.83.88 67.64-.13 63.41.01c-4.25-.1-8.45.91-12.19 2.92L11.44 26.46C4.46 31.17.19 38.97-.03 47.39v47c.23 8.43 4.52 16.23 11.53 20.93l40.06 23.53c3.61 2.02 7.71 3.03 11.85 2.92 4.14.13 8.25-.88 11.85-2.93l40.38-23.47c7.02-4.77 11.51-12.47 12.18-20.94V47.42c-.22-8.57-4.71-16.46-11.97-21.01ZM92.56 94.49c-.38.25-.82.36-1.27.32 -1.08-.09-2.04-.68-2.61-1.6L72.66 60.92 56.64 93.13c-.55.93-1.53 1.53-2.61 1.59 -.33 0-1.02 0-1.27-.33 -1.44-.79-1.97-2.58-1.2-4.02l18.07-35.8 -6.12-12.19 -25.32 50.91c-.72 1.4-2.45 1.96-3.86 1.24 -1.41-.72-1.97-2.45-1.25-3.86l27.76-55.91c.39-1.07 1.47-1.73 2.6-1.6 1.09.02 2.08.63 2.6 1.59l6.58 13.59 3.21 6.07L93.9 90.56c.61 1.45-.02 3.14-1.45 3.83Z"/></g></svg>