<svg viewBox="0 0 256 264" xmlns="http://www.w3.org/2000/svg" xmlns:xlink="http://www.w3.org/1999/xlink"><defs><linearGradient id="a" x1="137.072%" x2="85.999%" y1="-40.997%" y2="56.204%"><stop offset="0%" stop-color="#FF1639"/><stop offset="100%" stop-color="#FF1639" stop-opacity="0"/></linearGradient><path id="b" d="M160.57 135.51c-5.79 4.94-17.34 8.32-30.65 8.32 -16.34 0-30.02-5.09-33.65-11.93 -1.3 3.91-1.59 8.4-1.59 11.26 0 0-.86 14.06 8.92 23.85 0-5.09 4.11-9.2 9.19-9.2 8.7 0 8.69 7.59 8.69 13.76 -.01.18-.01.36-.01.54 0 9.35 5.71 17.37 13.84 20.75 -1.22-2.5-1.9-5.31-1.9-8.27 0-8.93 5.23-12.25 11.32-16.11 4.84-3.08 10.22-6.49 13.93-13.34 1.93-3.58 3.03-7.67 3.03-12.02 0-2.68-.42-5.26-1.19-7.68Z"/></defs><g fill-rule="evenodd"><path d="M156.37 4.83c1.57 1.95 2.37 4.59 3.98 9.87l35.1 115.32c-12.98-6.74-27.09-11.59-41.97-14.21l-22.86-77.25c-.38-1.27-1.54-2.14-2.86-2.14 -1.33 0-2.49.87-2.86 2.13l-22.59 77.19c-14.95 2.6-29.13 7.47-42.16 14.23L95.42 14.64c1.61-5.27 2.41-7.91 3.99-9.86 1.39-1.73 3.2-3.07 5.25-3.89 2.32-.94 5.08-.94 10.59-.94h25.19c5.51 0 8.27 0 10.6.93 2.05.83 3.86 2.16 5.25 3.89Z"/><use fill="#FF5D01" xlink:href="#b"/><use fill="url(#a)" xlink:href="#b"/><path d="M28.01 221.63c15.87 0 24.2 5.68 24.2 16.41v0l0 10.46c0 4.95.09 7.7.38 10.31l.06.52c.1.86.24 1.73.4 2.67v0h-7.71c-.39-2.5-.55-5.22-.55-8.1 -4.6 6.45-12.46 9.57-25.45 9.57 -11.76 0-19.38-4.28-19.38-11.68 0-3.51 1.47-6.54 4.12-8.49 2.8-2.03 6.45-3.43 16.34-3.97v0l24.27-1.41v-.78c0-6.23-6.23-9.89-16.74-9.89 -10.67 0-17.12 3.03-18.37 8.79v0H1.4c1.24-8.56 11.2-14.48 26.53-14.48Zm58.86 0c13.38 0 22.02 3.57 25.91 9.64v0l-6.31 3.03c-3.74-4.83-9.42-7.01-20.31-7.01 -9.58 0-14.01 2.1-14.01 6.14 0 3.19 2.87 4.66 8.01 5.05v0l18.9 1.47c10.11.85 14.08 4.12 14.08 10.5 0 7.7-6.46 12.99-22.57 12.99 -14.25 0-22.57-4.05-27.32-11.21v0l6.14-3.35c3.5 5.68 10.73 8.79 22.17 8.79 9.41 0 14.16-2.18 14.16-6.77 0-3.2-1.87-4.44-8.02-4.91v0l-18.76-1.48c-9.27-.78-14.17-4.05-14.17-10.82 0-7.55 8.24-12.14 22.02-12.14Zm141.19 0c16.57 0 27.93 8.4 27.93 20.93 0 12.52-11.37 20.93-27.94 20.93 -16.58 0-27.94-8.41-27.94-20.94 0-12.53 11.36-20.94 27.93-20.94Zm-91.5-11.68v13.15h19.45v5.83h-19.46v18.05c0 6.69 3.65 9.33 10.42 9.33 3.19 0 6.45-.47 9.18-1.09v0 6.3c-1.95.85-6.39 1.55-10.04 1.55 -14.4 0-17.05-7.71-17.05-15.41v0V228.9h-12.22v-5.84h12.21v-10.12l7.47-3.04Zm55.2 11.98c2.1 0 3.5.07 5.13.46v0 7.15c-1.79-.32-3.12-.47-5.22-.47 -6.15 0-9.65 1.71-12.38 4.74 -3.12 3.26-4.21 8.01-4.21 13.61v0 14.55h-7.4v-38.91h6.84v11.28c2.25-7.55 8.87-12.46 17.19-12.46ZM44.73 243.01l-22.8 1.4c-10.98.7-14.09 2.72-14.09 7.23 0 4.2 4.98 6.3 14 6.3 13.3 0 22.87-4.99 22.87-13.16v0 -1.79Zm183.32-15.26c-12.22 0-20.08 5.75-20.08 14.78 0 9.02 7.85 14.78 20.07 14.78 12.13 0 20.07-5.76 20.07-14.79s-7.94-14.79-20.08-14.79Z"/></g></svg>