<svg viewBox="0 0 256 257" xmlns="http://www.w3.org/2000/svg"><path d="M129.04 33.89c-12.42 26.93-6.74 58.75 14.23 79.72s52.78 26.65 79.72 14.23c2.59 17.07 1.22 34.52-4.01 50.99 -5.3 16.56-14.39 31.65-26.54 44.07l-1.09 1.08c-5.37 5.36-11.27 10.17-17.6 14.36 -12.22 8.06-25.91 13.64-40.28 16.41 -21.35 4.14-43.44 2-63.6-6.16 -6.82-2.78-13.34-6.23-19.48-10.29 -12.71-8.41-23.58-19.28-31.98-31.98C10.35 194.11 4.78 180.43 2 166.07c-4.15-21.36-2.01-43.45 6.15-63.61 2.77-6.82 6.2-13.35 10.26-19.49 9.2-13.93 21.38-25.64 35.65-34.3C69 39.64 85.84 34.25 103.24 32.9c8.57-.68 17.2-.37 25.71.91Zm84.74 216.22l.03.01c-6.55 2.96-13.65 4.48-20.83 4.46 -7.18.01-14.27-1.51-20.81-4.48h41.59Zm16.52-12.06c-.55.6-1.06 1.17-1.65 1.76 -1.63 1.62-3.36 3.13-5.19 4.51l-46.53.01c2.97-1.96 5.89-4.08 8.69-6.3h44.66Zm8.13-12.05c-1.06 2.18-2.26 4.28-3.62 6.29l.01.01h-42.49c1.12-1.04 2.26-2.14 3.36-3.25 .99-1 2.01-2.02 2.94-3.06l39.76-.02Zm4.02-12.05c-.42 2.13-.98 4.24-1.67 6.3l.02 0h-37.1c1.67-2.04 3.28-4.16 4.81-6.31l33.92-.01Zm.9-12.05c.03.72.04 1.48.06 2.22 0 1.35-.06 2.72-.17 4.06l.02.02 -30.94-.02c1.28-2.05 2.52-4.17 3.68-6.3h27.32Zm-2.01-12.05c.61 2.06 1.08 4.16 1.42 6.29l.03.01h-23.84c.97-2.06 1.9-4.18 2.76-6.31h19.6Zm-5.36-12.05c1.24 2.01 2.33 4.12 3.28 6.29h-15.41c.71-2.07 1.37-4.18 1.97-6.3h10.14Zm-7.84-9.78c1.09 1.06 2.13 2.17 3.12 3.33l.58.68 -4.53.02 .55-2.71c.09-.45.17-.9.26-1.35Zm27.74-107.98c.18 3.89.01 7.8-.52 11.66l-53.91 53.9c-3.87.53-7.78.7-11.67.51l66.08-66.09Zm-3.49-17.87c1 2.86 1.79 5.79 2.37 8.77l-74.08 74.07c-2.98-.58-5.92-1.38-8.78-2.38l80.47-80.48Zm-.49 43.16c-6.43 16.99-19.84 30.4-36.83 36.82l36.82-36.83Zm-6.63-57.37c1.51 2.26 2.88 4.61 4.09 7.05l-84.62 84.61c-2.44-1.22-4.8-2.59-7.06-4.1l87.57-87.58Zm-9.86-11.48c.68.62 1.36 1.27 2.02 1.93 1.21 1.21 2.36 2.45 3.45 3.73l-89 88.99c-1.28-1.1-2.53-2.25-3.74-3.46 -.67-.67-1.32-1.34-1.94-2.03l89.19-89.2Zm-12.44-8.9c2.36 1.28 4.65 2.73 6.83 4.31l-88.19 88.18c-1.58-2.19-3.02-4.48-4.3-6.86l85.64-85.65Zm-15.42-5.92c2.88.69 5.71 1.58 8.47 2.67l-81.95 81.94c-1.1-2.76-1.99-5.59-2.68-8.48l76.15-76.16ZM198.83.19l-68.9 68.89c-.36-3.68-.38-7.39-.09-11.07L187.75.09c3.68-.3 7.38-.27 11.06.08Zm-23.5 2.16l-43.25 43.24c6.02-20.89 22.35-37.23 43.24-43.25Z"/></svg>