<svg viewBox="0 0 512 99" xmlns="http://www.w3.org/2000/svg"><path d="M277.45 29.62c18.81 0 33.02 14.28 33.02 34.2 0 19.79-14.21 34.2-33.03 34.2s-33.03-14.42-33.03-34.21c0-19.92 14.2-34.21 33.02-34.21Zm204.97 0c16.93 0 26.53 10.87 29.18 21.75l-15.04 5.24c-1.52-5.38-5.44-10.88-13.78-10.88 -8.6 0-15.8 6.42-15.8 18.08 0 11.66 7.32 18.21 15.92 18.21 8.59 0 12.89-5.9 14.27-10.88l14.78 5.11C509.17 86.99 499.44 98 482.88 98c-18.33 0-32.73-14.42-32.73-34.21 0-19.92 14.14-34.21 32.22-34.21Zm-314.48-.01c19.84 0 27.22 11.55 27.22 24.55v31.77c0 3.41.38 8.01.76 10.24h-15.53c-.39-1.71-.64-5.26-.64-7.75 -3.19 5.12-9.17 9.58-18.45 9.58 -13.36 0-21.51-9.33-21.51-19.44 0-11.56 8.26-17.99 18.7-19.57l15.39-2.37c3.55-.53 4.7-2.37 4.7-4.6 0-4.6-3.44-8.41-10.57-8.41 -7.38 0-11.46 4.85-11.96 10.5l-15.02-3.29c1.01-10.12 10.05-21.28 26.84-21.28Zm60.2-16.93v19.09h12.52v15.32h-12.53v26.76c0 5.58 2.52 7.4 7.33 7.4 2.02 0 4.29-.26 5.18-.53v14.29c-1.52.65-4.56 1.55-9.49 1.55 -12.15 0-19.74-7.41-19.74-19.75V47.05h-11.27V31.72h3.16c6.57 0 9.61-4.42 9.61-10.14v-8.97h15.18Zm163.9 17.26c11.7 0 22.89 7.2 22.89 24.49v41.79h-16.6V57.96c0-6.95-3.35-12.19-11.19-12.19 -7.34 0-11.71 5.76-11.71 12.7V96.2h-16.98V57.94c0-6.95-3.48-12.19-11.2-12.19 -7.46 0-11.84 5.63-11.84 12.7v37.73H318.3V31.72h16.33v7.85c3.47-6.29 11.57-9.7 18.51-9.7 8.61 0 15.56 3.79 18.77 10.74 5.01-7.86 11.7-10.75 20.06-10.75Zm49.7 1.77v64.17H425.4V31.7h16.33ZM178.86 66.97l-13.75 2.29c-4.22.67-7.56 3.23-7.56 8.35 0 3.9 2.6 7.68 7.93 7.68 6.93 0 13.37-3.65 13.37-15.37v-2.97ZM277.4 45.1c-8.31 0-15.98 6.15-15.98 18.33 0 12.05 7.67 18.33 15.97 18.33 8.31 0 15.98-6.16 15.98-18.34s-7.67-18.34-15.99-18.34ZM433.55-.04c5.77 0 10.29 4.77 10.29 10.7 0 5.67-4.52 10.44-10.3 10.44 -5.66 0-10.3-4.78-10.3-10.45 0-5.94 4.64-10.71 10.29-10.71Z"/><path fill="#1E6EFA" d="M74.25 96.43H14.6c-8.08 0-14.62-6.55-14.62-14.62 0-8.08 6.54-14.62 14.61-14.63l33.79-.02c5.55-.01 10.69 2.96 13.47 7.78l12.37 21.47Z"/><path fill="#FF3C5A" d="M11.07 58.96L40.89 7.3C44.92.31 53.86-2.09 60.85 1.95c6.99 4.03 9.38 12.97 5.35 19.96L49.31 51.18c-2.78 4.81-7.92 7.78-13.48 7.77l-24.79-.02Z"/><path fill="#FFC5CE" d="M75.2 22.97l29.82 51.65c4.03 6.98 1.64 15.92-5.35 19.96 -7 4.03-15.93 1.64-19.97-5.35L62.78 59.97c-2.79-4.82-2.79-10.75 0-15.56l12.4-21.46Z"/></svg>