<svg viewBox="0 0 512 106" xmlns="http://www.w3.org/2000/svg"><path d="M51.8 6.71c1.03.82 1.19 2.33.36 3.36 -.83 1.03-2.34 1.19-3.37.36 -6.25-5.02-11.45-6.68-14.66-5.04 -3.74 1.9-5.19 8.02-4.43 16.57l.11 1.15c.06.58.13 1.17.21 1.78l.17 1.22c.22 1.42.49 2.9.82 4.43 4.49-.7 9.33-1.16 14.41-1.35 2.2-2.84 4.44-5.49 6.69-7.96l1.12-1.22c2.82-3 5.65-5.69 8.43-8.01l1.11-.91C72.93 2.92 82.39-.31 88.5 3.66c5.32 3.45 6.75 11.28 4.77 21.78 -.25 1.29-1.5 2.15-2.8 1.9 -1.3-.25-2.16-1.5-1.91-2.8 1.65-8.79.56-14.78-2.68-16.88 -4.22-2.74-12.06.41-20.89 7.77l-.99.83c-.5.42-1 .86-1.5 1.31l-1.01.91c-1.01.93-2.02 1.92-3.04 2.95l-1.02 1.04c-.18.17-.35.35-.52.53l-1.03 1.09 -1.03 1.12 -1.03 1.15c-.35.38-.69.78-1.03 1.18l-1.03 1.21 -.2.24c2.38.01 4.8.08 7.26.2l.95.05 1.89.12c1.57.11 3.12.24 4.66.39l1.83.19c.3.03.6.06.9.1l1.8.22c1.49.19 2.96.41 4.4.65l1.72.29 1.69.31 1.67.33c5.52 1.13 10.6 2.58 15.08 4.27l1.32.51c11.76 4.69 19.01 11.16 18.63 18.32 -.31 5.91-5.61 10.79-14.49 14.28 -1.24.48-2.63-.13-3.11-1.36 -.49-1.24.12-2.63 1.35-3.11 7.32-2.89 11.27-6.53 11.46-10.09 .23-4.56-5.22-9.27-14.29-13.07l-1.13-.47c-.77-.31-1.56-.61-2.37-.9l-1.24-.44c-.42-.15-.84-.29-1.27-.43l-1.3-.41 -1.33-.4c-.23-.07-.45-.13-.68-.2l-1.38-.38c-.24-.07-.47-.13-.7-.19l-1.42-.36c-1.44-.36-2.91-.69-4.42-1l-1.53-.31c-.26-.05-.52-.1-.78-.15l-1.56-.28 -1.59-.27c-.27-.05-.54-.09-.8-.13l-1.62-.24c-.55-.08-1.09-.16-1.64-.23l-1.66-.21 -1.68-.19c-.85-.09-1.7-.18-2.55-.25L61.9 34c-.58-.05-1.16-.09-1.74-.13l-1.76-.11 -1.76-.09 -1.75-.06c-2.03-.06-4.02-.08-5.98-.05l-1.37.02 -.54.71c-.34.44-.67.9-1.01 1.35l-1 1.38c-1.16 1.62-2.3 3.3-3.42 5.03 -.32.49-.64.98-.95 1.47l-.93 1.47c-.99 1.59-1.92 3.18-2.82 4.76 .08.19.16.4.25.6l.65 1.53c.11.25.22.51.33.77l.68 1.54 .71 1.55 .73 1.56 .76 1.56 .78 1.56 .8 1.55 .81 1.53 .82 1.51c.13.25.27.5.41.74l.84 1.47c.28.48.56.97.85 1.45l.86 1.42c.28.47.57.94.87 1.4l.87 1.37 .88 1.35c.73 1.11 1.48 2.2 2.22 3.25l.89 1.25c.6.82 1.2 1.63 1.8 2.41l.9 1.16 .9 1.13c.15.18.3.37.45.55l.9 1.08 .9 1.05c.9 1.03 1.8 2.02 2.69 2.95l.89.91 .88.87c.44.43.88.84 1.31 1.25l.87.78c.43.38.86.75 1.29 1.11l.85.69c5.78 4.6 10.9 6.45 14.3 4.72 3.19-1.63 4.71-6.39 4.6-13.13l-.03-1.03c-.02-.35-.04-.7-.06-1.06l-.08-1.09c-.04-.37-.07-.74-.11-1.12L86 80.8c-.03-.2-.05-.39-.08-.58l-.17-1.18 -.19-1.2 -.22-1.23c-.19-1.03-.4-2.09-.64-3.16l-.3-1.3 -.33-1.32c-.06-.23-.12-.45-.17-.67l-.36-1.35 -.39-1.37c-.07-.23-.14-.46-.21-.69l-.42-1.39 -.45-1.41c-.23-.71-.47-1.42-.71-2.14l-.51-1.44 -.53-1.45c-.36-.98-.74-1.95-1.13-2.94l-.6-1.49 -.63-1.5c-.11-.25-.22-.5-.33-.75l-.66-1.51 -.69-1.51c-.12-.26-.24-.51-.36-.76l-.72-1.52c-.13-.26-.25-.51-.37-.77 -.58-1.19-.09-2.63 1.1-3.21 1.18-.58 2.62-.09 3.2 1.1l.79 1.65c.26.55.51 1.1.76 1.64l.74 1.64c.72 1.64 1.41 3.27 2.06 4.88l.63 1.61c.1.26.2.53.3.8l.59 1.59c.09.26.19.52.28.79l.55 1.57c.36 1.04.7 2.08 1.02 3.11l.47 1.53c5.64 18.87 4.92 34.22-3.55 38.54 -6.86 3.49-16.57-1.36-26.35-11.6l-1.02-1.08c-.68-.74-1.35-1.49-2.03-2.27l-1.01-1.19c-2.69-3.22-5.36-6.82-7.94-10.73l-.97-1.49c-2.4-3.75-4.72-7.76-6.91-11.99l-.44-.85c-.29-.57-.58-1.14-.86-1.71l-.83-1.71c-.66-1.36-1.28-2.72-1.88-4.07l-.39.76c-.12.23-.24.47-.36.71l-.69 1.42 -.67 1.41 -.64 1.4c-.11.23-.21.46-.31.69l-.6 1.38c-.1.22-.2.45-.29.68l-.56 1.36c-.1.22-.18.45-.27.67l-.52 1.34c-.09.22-.17.44-.25.66l-.48 1.31 -.45 1.29c-.22.64-.43 1.28-.62 1.91l-.38 1.25 -.35 1.22c-.06.2-.11.4-.17.6l-.31 1.19c-.25.98-.46 1.94-.64 2.88l-.21 1.1c-1.36 7.85-.48 13.65 2.88 15.83 3.38 2.19 9.65.52 17.39-5.07 1.07-.78 2.56-.54 3.34.53 .77 1.07.53 2.56-.54 3.34 -9.18 6.62-17.29 8.78-22.81 5.19 -6.68-4.34-7.15-15.79-2.71-30.04l.46-1.44c.31-.97.65-1.94 1.01-2.92l.55-1.49c.76-1.99 1.61-4.02 2.54-6.08l.71-1.55 .74-1.56c.94-1.96 1.96-3.93 3.04-5.92 -.15-.37-.29-.74-.43-1.1l-.62-1.65c-.81-2.19-1.54-4.34-2.19-6.46l-.48-1.58c-.3-1-.57-1.99-.83-2.97l-.88.18 -1.31.28 -1.28.3c-.21.05-.42.1-.63.15l-1.23.32 -1.19.33c-.4.11-.78.22-1.16.34l-1.12.36c-.37.12-.73.24-1.09.37l-1.05.38C8.3 40.75 3.93 44.33 3.72 48.24c-.19 3.55 3.36 7.58 10.35 11.21 1.17.6 1.63 2.05 1.02 3.22 -.61 1.17-2.06 1.63-3.23 1.02 -8.48-4.4-13.24-9.81-12.93-15.72 .42-8.25 10.83-14.54 26.3-17.72 -3.14-14.97-1.54-26.61 5.66-30.29 5.32-2.72 12.27-.51 19.82 5.56Zm314.05 8.57c23.15 0 38.33 18.45 38.33 39.31v.22c0 20.86-15.41 39.53-38.56 39.53 -23.16 0-38.34-18.46-38.34-39.32v-.22c0-20.87 15.4-39.54 38.55-39.54Zm77.43.98c1.2 0 2.07.65 2.83 1.64l29.81 43.9 29.81-43.91c.65-.99 1.63-1.65 2.83-1.65h.54c1.52 0 2.83 1.31 2.83 2.83V90.6c0 1.53-1.32 2.84-2.84 2.84 -1.54 0-2.84-1.32-2.84-2.85V26.58l-28.08 40.84c-.66.98-1.43 1.41-2.41 1.41 -.99 0-1.75-.44-2.41-1.42l-28.08-40.85v64.11c0 1.52-1.21 2.73-2.74 2.73 -1.54 0-2.74-1.21-2.74-2.74V19c0-1.53 1.3-2.84 2.83-2.84h.54Zm-142.42.32c1.41 0 2.62 1.2 2.62 2.62 0 1.42-1.21 2.62-2.63 2.62h-24.47v68.81c0 1.52-1.31 2.83-2.84 2.83 -1.53 0-2.84-1.32-2.84-2.84V21.8h-24.47c-1.42-.001-2.63-1.2-2.63-2.63 0-1.42 1.2-2.63 2.62-2.63h54.61Zm-112.28-.77c1.96 0 3.05 1.09 3.82 2.73l32.54 70.55c.32.65.43 1.2.43 1.74 0 1.41-1.21 2.62-2.74 2.62 -1.31 0-2.3-.99-2.84-2.19l-8.96-19.67h-45.12l-8.96 19.77c-.55 1.3-1.42 2.07-2.74 2.07 -1.42 0-2.63-1.1-2.63-2.41 0-.44.11-1.1.44-1.75l32.65-70.78c.76-1.65 1.85-2.74 3.82-2.74h.21Zm177.04 4.58c-18.9 0-32.45 15.29-32.45 34.18v.22c0 18.89 13.76 34.4 32.65 34.4s32.43-15.3 32.43-34.19v-.22c0-18.9-13.77-34.41-32.66-34.41Zm-177.27 1.85l-20.21 44.23h40.3l-20.1-44.24ZM64.89 51.22c.79 3.67-1.55 7.3-5.23 8.09 -3.68.79-7.31-1.55-8.1-5.23 -.8-3.68 1.54-7.31 5.22-8.1 3.67-.8 7.3 1.54 8.09 5.22ZM41.7 34.2l-.11 0c-.45.03-.88.06-1.32.09l-1.56.13 -1.54.15c-.26.02-.51.05-.76.08l-1.5.17c-.25.03-.5.06-.74.09l-1.47.2 -.58.08 .2.76c.32 1.16.66 2.34 1.04 3.54l.46 1.44 .24.72 .49 1.47c.13.39.27.79.42 1.19 .75-1.27 1.54-2.53 2.35-3.8l.51-.81c1.24-1.93 2.51-3.8 3.8-5.61Z"/></svg>