<svg viewBox="0 0 256 256" xmlns="http://www.w3.org/2000/svg"><path fill="#5D83AC" d="M128 13.25a114.75 114.75 0 1 0 0 229.5 114.75 114.75 0 1 0 0-229.5Z"/><g fill="#F0F0F0"><path d="M0 128C0 57.3 57.3 0 128 0c70.69 0 128 57.3 128 128 0 70.69-57.31 128-128 128C57.3 256 0 198.69 0 128ZM128 25.5C71.39 25.5 25.5 71.39 25.5 128c0 56.6 45.89 102.5 102.5 102.5 56.6 0 102.5-45.9 102.5-102.5 0-56.61-45.9-102.5-102.5-102.5v0Z"/><path d="M206.41 166l-58.52-84.7c-2.06-2.99-4.55-5.49-7.49-7.49 -2.94-2.01-6.61-3.01-10.99-3.01 -4.58 0-8.36 1.07-11.34 3.22 -2.99 2.14-5.46 4.57-7.42 7.28L50.59 166h34.3l43.96-62.16 16.8 24.78c1.58 2.24 3.24 4.64 4.97 7.21 1.72 2.56 3.24 4.69 4.55 6.37 -2.24-.19-4.88-.28-7.91-.28h-8.75 -23.52L97.49 166h108.92v0Z"/></g></svg>