<svg viewBox="0 0 512 280" xmlns="http://www.w3.org/2000/svg"><path fill="#4B4B77" d="M116.54 6.28c6.21 3.87 10.59 8.62 13.19 14.14 3.87 8.88 8.18 18.52 12.87 28.99 4.69 10.46 9.45 21.06 14.14 31.78 4.69 10.72 9.26 21.19 13.57 31.34 4.31 10.15 8.24 19.47 11.67 27.91 3.42 8.43 6.15 15.6 8.18 21.5 2.03 5.9 3.04 9.83 3.04 11.67 0 3.17-.45 6.21-1.27 9.26 -.83 3.04-2.35 5.83-4.57 8.31 -2.23 2.47-5.33 4.5-9.27 5.96 -4 1.45-9.14 2.22-15.42 2.22 -6.67 0-12.06-.89-16.25-2.67 -4.19-1.78-7.62-4-10.41-6.79 -2.8-2.8-5.08-5.72-6.92-8.76 -1.84-3.05-3.75-5.97-5.72-8.76 -1.97-2.8-4.19-5.02-6.67-6.79 -2.48-1.78-5.91-2.67-10.16-2.67H88.77c-5.21 0-9.27.88-12.38 2.66 -3.05 1.77-5.52 3.99-7.49 6.78 -1.97 2.79-3.75 5.71-5.4 8.75 -1.65 3.04-3.81 5.96-6.41 8.75 -2.61 2.79-5.97 5.01-10.16 6.78 -4.19 1.77-9.78 2.66-16.82 2.66 -10.35 0-17.96-2.29-22.78-6.92C2.5 187.74.09 182.29.09 176.01c0-2.42.95-6.6 2.91-12.63 1.96-6.03 4.56-13.2 7.93-21.51 3.48-8.38 7.29-17.58 11.54-27.79 4.25-10.16 8.75-20.69 13.57-31.47 4.82-10.85 9.64-21.64 14.4-32.49 4.82-10.85 9.45-21.26 13.89-31.22 2.6-5.72 6.91-10.28 12.87-13.58C83.22 2.02 89.88.3 97.31.3c6.47 0 12.81 1.96 19.03 5.83Zm224.4.95c4.82 4.37 7.23 9.96 7.23 16.81 0 3.87-.96 8.94-2.92 15.29 -1.97 6.28-4.45 13.38-7.49 21.38 -3.05 7.93-6.6 16.55-10.54 25.82 -4 9.26-8 18.65-12.06 28.29 -5.52 13.13-10.35 24.93-14.28 35.4 -4 10.46-8.06 19.35-12.19 26.64 -4.19 7.29-8.7 12.94-13.58 16.93 -4.89 3.99-10.98 5.96-18.15 5.96 -7.43 0-13.58-1.59-18.47-4.89 -4.89-3.24-9.33-8.13-13.33-14.72 -4-6.54-7.87-14.85-11.68-24.81 -3.81-9.97-8.25-21.83-13.46-35.53 -3.88-10.35-7.87-20.5-11.93-30.4 -4.07-9.9-7.75-19.04-11.11-27.35 -3.3-8.32-6.03-15.8-8.19-22.34 -2.1-6.54-3.18-11.68-3.18-15.42 0-8.51 2.85-14.6 8.62-18.34C179.94 2.27 187.1.43 195.61.43c7.74-.001 13.83.95 18.14 2.91 4.31 1.96 8.12 4.5 11.22 7.61 2.22 2.22 4.44 5.45 6.66 9.7 2.22 4.25 4.31 8.94 6.21 14.02 1.96 5.07 3.87 10.21 5.83 15.41 1.96 5.2 3.74 9.96 5.39 14.27 1.64 4.37 3.29 7.86 4.88 10.53 1.58 2.66 2.98 3.99 4.31 3.99 1.45 0 2.98-1.34 4.56-4 1.58-2.67 3.17-6.16 4.88-10.41 1.64-4.26 3.36-8.95 5.13-14.03s3.61-10.16 5.51-15.1c1.9-4.95 3.99-9.59 6.09-13.71 2.09-4.19 4.31-7.36 6.53-9.59 2.03-2.04 3.99-3.75 5.96-5.14 1.96-1.4 4.06-2.54 6.4-3.49 2.28-.96 4.94-1.59 7.93-2.1 2.98-.45 6.53-.7 10.84-.7 7.54 0 13.83 2.15 18.65 6.47Zm94.21-.96c6.21 3.87 10.59 8.62 13.19 14.14 3.87 8.88 8.18 18.52 12.87 28.99 4.69 10.46 9.45 21.06 14.14 31.78 4.69 10.72 9.26 21.19 13.57 31.34 4.31 10.15 8.24 19.47 11.67 27.91 3.42 8.43 6.15 15.6 8.18 21.5 2.03 5.9 3.04 9.83 3.04 11.67 0 3.17-.45 6.21-1.27 9.26 -.83 3.04-2.35 5.83-4.57 8.31 -2.23 2.47-5.33 4.5-9.27 5.96 -4 1.45-9.14 2.22-15.42 2.22 -6.67 0-12.06-.89-16.25-2.67 -4.19-1.78-7.62-4-10.41-6.79 -2.8-2.8-5.08-5.72-6.92-8.76 -1.84-3.05-3.75-5.97-5.72-8.76 -1.97-2.8-4.19-5.02-6.67-6.79 -2.48-1.78-5.91-2.67-10.16-2.67h-17.77c-5.21 0-9.27.88-12.38 2.66 -3.05 1.77-5.52 3.99-7.49 6.78 -1.97 2.79-3.75 5.71-5.4 8.75 -1.65 3.04-3.81 5.96-6.41 8.75 -2.61 2.79-5.97 5.01-10.16 6.78 -4.19 1.77-9.78 2.66-16.82 2.66 -10.35 0-17.96-2.29-22.78-6.92 -4.83-4.64-7.24-10.09-7.24-16.37 0-2.42.95-6.6 2.91-12.63 1.96-6.03 4.56-13.2 7.93-21.51 3.29-8.32 7.1-17.58 11.35-27.73 4.25-10.16 8.75-20.69 13.57-31.47 4.82-10.85 9.64-21.64 14.4-32.49 4.82-10.85 9.45-21.26 13.89-31.22 2.6-5.72 6.91-10.28 12.87-13.58 6.02-3.3 12.68-5.02 20.11-5.02 6.66-.07 13 1.9 19.22 5.77Z"/><path fill="#E0C7C1" d="M96.88 279.53c1.52 0 2.98-.83 3.67-2.23 0-.07 6.02-11.17 11.99-24.3 2.98-6.6 6.02-13.65 8.31-20.18 1.14-3.3 2.09-6.41 2.79-9.27 .69-2.92 1.14-5.59 1.14-8 0-9.46-3.49-17.9-9.33-23.73 -4.89-4.89-11.49-7.87-18.66-7.87s-13.77 2.98-18.66 7.86c-5.78 5.77-9.33 14.21-9.33 23.72 0 2.47.44 5.13 1.14 7.99 1.2 5.07 3.29 10.84 5.64 16.81 7.16 17.82 17.44 36.86 17.44 36.98 .82 1.26 2.22 2.15 3.8 2.15Zm318.62 0c1.52 0 2.98-.83 3.67-2.23 0-.07 6.02-11.17 11.99-24.3 2.98-6.6 6.02-13.65 8.31-20.18 1.14-3.3 2.09-6.41 2.79-9.27 .69-2.92 1.14-5.59 1.14-8 0-9.46-3.49-17.9-9.33-23.73 -4.89-4.89-11.49-7.87-18.66-7.87s-13.77 2.98-18.66 7.86c-5.78 5.77-9.33 14.21-9.33 23.72 0 2.47.44 5.13 1.14 7.99 1.2 5.07 3.29 10.84 5.64 16.81 7.16 17.82 17.44 36.86 17.44 36.98 .82 1.26 2.22 2.15 3.8 2.15Z"/></svg>