<svg viewBox="0 0 256 190" xmlns="http://www.w3.org/2000/svg"><path fill="#494368" d="M22.18 162c1.75 0 3.19.61 4.41 1.83 1.22 1.22 1.83 2.71 1.83 4.41v21.7H6.23c-1.76 0-3.2-.62-4.42-1.84 -1.23-1.23-1.84-2.72-1.84-4.42v-10.33H23.2v-5.12c0-.31-.09-.53-.31-.75 -.22-.22-.44-.31-.75-.31H-.05v-5.21h22.18v0Zm1.05 22.75v-6.17H5.2v5.11c0 .3.08.52.3.74 .21.21.43.3.74.3h16.97v0Zm50.18-22.76h5.55l-10.51 27.95H64.2l-9.41-20.79 -8.89 20.78 -.09-.05 .04.04h-4.21l-10.99-27.96h5.51l7.56 18.55 8.05-18.56h5.95l8.53 18.55 7.08-18.56v0Zm29.4 0c1.75 0 3.19.61 4.41 1.83 1.22 1.22 1.83 2.71 1.83 4.41v10.32H85.81v5.11c0 .3.08.52.3.74 .21.21.43.3.74.3h22.18v5.2H86.84c-1.76 0-3.2-.62-4.42-1.84 -1.23-1.23-1.84-2.72-1.84-4.42v-15.45c0-1.76.61-3.2 1.83-4.42 1.22-1.23 2.71-1.84 4.41-1.84h15.92v0Zm-16.98 11.37h18.02v-5.12c0-.31-.09-.53-.31-.75 -.22-.22-.44-.31-.75-.31H86.86c-.31 0-.53.08-.75.3 -.22.21-.31.43-.31.74v5.11 0Zm56.44-5.08v1.05h-5.21v-1.06c0-.31-.09-.53-.31-.75 -.22-.22-.44-.31-.75-.31h-15.93c-.31 0-.53.08-.75.3 -.22.21-.31.43-.31.74v4.06c0 .3.08.52.3.74 .21.21.43.3.74.3h15.92c1.75 0 3.19.61 4.41 1.83 1.22 1.22 1.83 2.71 1.83 4.41v4.06c0 1.75-.62 3.19-1.84 4.41 -1.23 1.22-2.72 1.83-4.42 1.83h-15.93c-1.76 0-3.2-.62-4.42-1.84 -1.23-1.23-1.84-2.72-1.84-4.42v-1.06h5.2v1.05c0 .3.08.52.3.74 .21.21.43.3.74.3h15.92c.3 0 .52-.09.74-.31 .21-.22.3-.44.3-.75v-4.07c0-.31-.09-.53-.31-.75 -.22-.22-.44-.31-.75-.31h-15.93c-1.76 0-3.2-.62-4.42-1.84 -1.23-1.23-1.84-2.72-1.84-4.42v-4.07c0-1.76.61-3.2 1.83-4.42 1.22-1.23 2.71-1.84 4.41-1.84h15.92c1.75 0 3.19.61 4.41 1.83 1.22 1.18 1.83 2.66 1.83 4.41v0Zm11.02-6.31h15.92c1.75 0 3.19.61 4.41 1.83 1.22 1.22 1.83 2.71 1.83 4.41v15.44c0 1.75-.62 3.19-1.84 4.41 -1.23 1.22-2.72 1.83-4.42 1.83h-15.93c-1.76 0-3.2-.62-4.42-1.84 -1.23-1.23-1.84-2.72-1.84-4.42v-15.45c0-1.76.61-3.2 1.83-4.42 1.22-1.23 2.71-1.84 4.41-1.84v0Zm15.92 5.2h-15.93c-.31 0-.53.08-.75.3 -.22.21-.31.43-.31.74v15.44c0 .3.08.52.3.74 .21.21.43.3.74.3h15.92c.3 0 .52-.09.74-.31 .21-.22.3-.44.3-.75v-15.45c0-.31-.09-.53-.31-.75 -.22-.18-.44-.31-.75-.31v0Zm47.03-5.21c1.75 0 3.19.61 4.41 1.83 1.22 1.22 1.83 2.71 1.83 4.41v21.7h-5.17v-21.71c0-.31-.09-.53-.31-.75 -.22-.22-.49-.31-.79-.31h-11.03c-.31 0-.53.08-.75.3 -.22.21-.31.43-.31.74v21.7h-5.21v-21.71c0-.31-.09-.53-.31-.75 -.22-.22-.44-.31-.75-.31h-11.07c-.31 0-.53.08-.75.3 -.22.21-.31.43-.31.74v21.7h-5.21v-27.96h35.65v0Zm33.47 0c1.75 0 3.19.61 4.41 1.83 1.22 1.22 1.83 2.71 1.83 4.41v10.32h-23.24v5.11c0 .3.08.52.3.74 .21.21.43.3.74.3h22.18v5.2h-22.19c-1.76 0-3.2-.62-4.42-1.84 -1.23-1.23-1.84-2.72-1.84-4.42v-15.45c0-1.76.61-3.2 1.83-4.42 1.22-1.23 2.71-1.84 4.41-1.84h15.92v0Zm-16.98 11.37h18.02v-5.12c0-.31-.09-.53-.31-.75 -.22-.22-.44-.31-.75-.31h-15.93c-.31 0-.53.08-.75.3 -.22.21-.31.43-.31.74v5.11 0Z"/><path fill="#FC60A8" d="M256 60.25L190.35.03l-9.24 10.06 54.7 50.14H20.2l54.7-50.2L65.66-.04 .01 60.21h-.05V99.9c0 17.94 17.28 32.55 38.5 32.55h40.47c21.22 0 38.5-14.62 38.5-32.56V73.8h21v26.08c0 17.94 17.28 32.55 38.5 32.55h40.47c21.22 0 38.5-14.62 38.5-32.56v-39.7 0Z"/></svg>