<svg viewBox="0 0 256 256" xmlns="http://www.w3.org/2000/svg"><defs><linearGradient id="a" x1="0%" x2="100%" y1="100%" y2="0%"><stop offset="0%" stop-color="#B0084D"/><stop offset="100%" stop-color="#FF4F8B"/></linearGradient></defs><path fill="url(#a)" d="M0 0h256v256H0Z"/><path fill="#FFF" d="M150.4 175.99H192v6.4h-41.6v6.4H144v-6.41h-12.8v-6.41H144v-3.21h6.4v3.2Zm12.8-19.21H192v6.4h-28.8v6.4h-6.4v-6.41h-25.6v-6.41h25.6v-3.21h6.4v3.2Zm16-19.21H192v6.4h-12.8v6.4h-6.4v-6.41h-41.6v-6.41h41.6v-3.21h6.4v3.2Zm-112 12.8H96v6.4H67.2c-4.02 0-8.31-1.21-11.48-3.23 -6.47-4.1-17.33-13.68-17.33-31.84 0-22.02 14.92-30.11 23.616-32.94l-.18-2.94c-.01-18.14 11.99-36.74 27.9-43.45 18.63-7.93 38.36-4 52.79 10.49 4.47 4.48 8.16 9.95 10.98 16.3 5.66-4.73 13.38-6.34 20.55-3.99 9.11 2.98 14.78 11.4 15.44 22.74 9.08 2.17 28.07 9.64 28.07 34.04 0 .91-.04 1.79-.08 2.63l-6.4-.17c.03-.86.06-1.65.06-2.47 0-21.55-17.79-26.97-25.43-28.29 -.87-.16-1.63-.65-2.12-1.37 -.49-.73-.66-1.61-.48-2.46 -.1-9.55-4.13-16.31-11.11-18.6 -6.25-2.06-13.12.21-17.1 5.62 -.71.95-1.86 1.44-3.05 1.26 -1.18-.17-2.16-.98-2.55-2.1 -2.67-7.5-6.5-13.79-11.39-18.68 -12.53-12.59-29.64-15.99-45.77-9.13 -13.47 5.67-24.01 22.08-24.01 37.36l.31 5.29c.08 1.52-.92 2.9-2.41 3.28 -7.98 2.02-21.35 8.29-21.35 27.47 0 14.33 7.8 22.28 14.35 26.42 2.16 1.37 5.24 2.23 8.04 2.23v0Zm144 17.02l-5.65-.33c-1.52-.09-2.96.96-3.31 2.49 -1.09 4.79-2.97 9.33-5.6 13.5 -.84 1.32-.6 3.05.57 4.09l4.21 3.75 -10.5 10.5 -3.75-4.21c-1.05-1.18-2.79-1.42-4.1-.58 -4.17 2.63-8.72 4.51-13.52 5.6 -1.53.34-2.58 1.74-2.49 3.3l.32 5.61h-14.85l.32-5.63c.09-1.57-.97-2.97-2.49-3.31 -4.8-1.09-9.35-2.98-13.52-5.61 -1.33-.84-3.06-.6-4.1.57l-3.76 4.2 -10.5-10.51 4.2-3.76c1.16-1.05 1.41-2.78.57-4.1 -2.63-4.17-4.51-8.72-5.6-13.52 -.35-1.53-1.88-2.58-3.31-2.5l-5.64.32V152.4l5.65.32c1.48.08 2.95-.97 3.3-2.49 1.08-4.79 2.96-9.33 5.6-13.49 .83-1.33.58-3.06-.58-4.1l-4.24-3.78 10.49-10.51 3.77 4.23c1.04 1.16 2.77 1.4 4.09.57 4.16-2.63 8.69-4.5 13.49-5.59 1.52-.35 2.57-1.75 2.48-3.31l-.32-5.67h14.84l-.32 5.67c-.1 1.56.96 2.95 2.48 3.3 4.78 1.08 9.31 2.96 13.48 5.58 1.31.83 3.05.59 4.09-.58l3.78-4.25 10.49 10.5 -4.23 3.77c-1.17 1.04-1.42 2.77-.58 4.09 2.63 4.16 4.51 8.7 5.59 13.49 .34 1.52 1.79 2.57 3.3 2.48l5.65-.33v14.85Zm3.01-21.44l-6.41.36c-1.04-3.67-2.51-7.19-4.37-10.53l4.79-4.28c.65-.59 1.04-1.42 1.06-2.3 .02-.88-.32-1.74-.94-2.36l-15.29-15.3c-.63-.63-1.51-.99-2.36-.94 -.89.02-1.72.4-2.3 1.06l-4.29 4.8c-3.34-1.86-6.85-3.32-10.51-4.36l.36-6.43c.05-.89-.27-1.75-.88-2.39 -.61-.65-1.45-1.01-2.33-1.01h-21.63c-.88 0-1.73.36-2.33 1 -.61.64-.93 1.5-.88 2.38l.36 6.42c-3.67 1.04-7.19 2.49-10.52 4.35l-4.29-4.8c-.59-.66-1.42-1.05-2.3-1.07 -.91-.05-1.74.31-2.36.93l-15.29 15.29c-.63.62-.97 1.47-.94 2.35 .02.88.41 1.71 1.06 2.29l4.8 4.28c-1.86 3.33-3.33 6.85-4.37 10.51l-6.41-.37c-.86-.06-1.75.26-2.39.86 -.64.6-1.01 1.44-1.01 2.32v21.62c0 .88.36 1.72 1 2.32 .64.6 1.52.91 2.38.86l6.38-.37c1.04 3.67 2.49 7.2 4.35 10.53l-4.78 4.25c-.66.58-1.05 1.41-1.07 2.29 -.03.88.31 1.73.93 2.35l15.28 15.29c.62.62 1.52.96 2.35.93 .88-.03 1.71-.42 2.29-1.07l4.25-4.78c3.33 1.86 6.86 3.33 10.53 4.37l-.37 6.37c-.06.87.26 1.73.87 2.38 .6.64 1.44 1 2.32 1h21.62c.88 0 1.72-.37 2.32-1.01 .6-.65.91-1.51.86-2.39l-.37-6.37c3.67-1.05 7.2-2.51 10.54-4.38l4.24 4.76c.58.65 1.41 1.04 2.29 1.06 .85.03 1.73-.32 2.35-.94l15.28-15.3c.62-.63.96-1.48.93-2.36 -.03-.89-.42-1.72-1.08-2.3l-4.78-4.26c1.85-3.34 3.31-6.87 4.36-10.54l6.39.36c.86.04 1.74-.27 2.38-.87 .64-.61 1-1.45 1-2.33v-21.63c0-.89-.37-1.73-1.01-2.33 -.64-.61-1.52-.93-2.39-.87v0Z"/></svg>