<svg viewBox="0 0 256 256" xmlns="http://www.w3.org/2000/svg"><defs><linearGradient id="a" x1="0%" x2="100%" y1="100%" y2="0%"><stop offset="0%" stop-color="#4D27A8"/><stop offset="100%" stop-color="#A166FF"/></linearGradient></defs><path fill="url(#a)" d="M0 0h256v256H0Z"/><path fill="#FFF" d="M208 76.8c0-3.53-2.88-6.4-6.4-6.4 -3.53 0-6.4 2.87-6.4 6.4 0 3.52 2.87 6.4 6.4 6.4 3.52 0 6.4-2.88 6.4-6.4v0Zm-73.6 73.6c0-3.53-2.88-6.4-6.4-6.4 -3.53 0-6.4 2.87-6.4 6.4 0 3.52 2.87 6.4 6.4 6.4 3.52 0 6.4-2.88 6.4-6.4v0Zm-6.4-44.8c3.52 0 6.4-2.88 6.4-6.4 0-3.53-2.88-6.4-6.4-6.4 -3.53 0-6.4 2.87-6.4 6.4 0 3.52 2.87 6.4 6.4 6.4v0Zm-67.2 64c0-3.53-2.88-6.4-6.4-6.4 -3.53 0-6.4 2.87-6.4 6.4 0 3.52 2.87 6.4 6.4 6.4 3.52 0 6.4-2.88 6.4-6.4v0Zm153.6-92.8c0 7.05-5.75 12.8-12.8 12.8 -2.66 0-5.14-.82-7.18-2.22l-55.5 56.44c1.16 1.92 1.87 4.15 1.87 6.56 0 7.05-5.75 12.8-12.8 12.8 -7.06 0-12.8-5.75-12.8-12.8 0-5.95 4.09-10.92 9.6-12.35v-26.51c-1.95-.51-3.7-1.46-5.17-2.74l-54.44 53.99c1.25 1.97 2 4.29 2 6.8 0 7.05-5.75 12.8-12.8 12.8 -7.06 0-12.8-5.75-12.8-12.8 0-7.06 5.74-12.8 12.8-12.8 2.22 0 4.29.62 6.11 1.62l55.45-55.01c-.47-1.34-.78-2.74-.78-4.23 0-7.06 5.74-12.8 12.8-12.8 7.05 0 12.8 5.74 12.8 12.8 0 5.94-4.1 10.91-9.6 12.34v26.5c1.12.29 2.17.73 3.15 1.3l55.86-56.83c-.88-1.74-1.42-3.67-1.42-5.74 0-7.06 5.74-12.8 12.8-12.8 7.05 0 12.8 5.74 12.8 12.8v0Zm-160-22.4h147.2v3.2h6.4v-6.4c0-1.77-1.44-3.2-3.2-3.2H51.2c-1.77 0-3.2 1.43-3.2 3.2v99.2h6.4v-96ZM201.6 96h6.4v108.8c0 1.76-1.44 3.2-3.2 3.2H51.2c-1.77 0-3.2-1.44-3.2-3.2v-16h6.4v12.8h147.2V96Z"/></svg>