<svg viewBox="0 0 256 256" xmlns="http://www.w3.org/2000/svg"><defs><linearGradient id="a" x1="0%" x2="100%" y1="100%" y2="0%"><stop offset="0%" stop-color="#4D27A8"/><stop offset="100%" stop-color="#A166FF"/></linearGradient></defs><path fill="url(#a)" d="M0 0h256v256H0Z"/><path fill="#FFF" d="M149.46 85.9v6.42c-2.8 0-5.46 1.01-7.48 2.86 -.79.71-1.88.99-2.91.75 -1.04-.24-1.88-.98-2.27-1.97 -3.93-10.08-14.09-16.86-25.3-16.86 -7.74 0-15.11 3.19-20.22 8.75 -4.4 4.76-6.82 10.86-6.82 17.17 0 1.4-.91 2.67-2.25 3.1 -6.69 2.09-11.67 7.48-13.03 14.07 -.01.05-.02.09-.03.14 -.23 1.22-.34 2.36-.34 3.5 0 10.29 8.73 18.67 19.47 18.67h50.88v6.42H88.27c-14.29 0-25.91-11.27-25.91-25.11 0-1.49.13-2.97.41-4.53 0-.09.02-.16.03-.23 1.62-8.23 7.38-15.08 15.26-18.33 .52-7.14 3.46-13.9 8.42-19.29 6.32-6.89 15.42-10.84 24.94-10.84 12.44 0 23.86 6.8 29.58 17.28 2.53-1.37 5.39-2.1 8.35-2.1m70.5 134.06c-5.35 5.34-14.06 5.34-19.41 0l-43.8-43.77c7.38-5.57 13.8-12.36 18.95-20.06l44.25 44.43c5.32 5.34 5.31 14.03-.02 19.37M31.87 110.56c0-41.64 33.88-75.51 75.53-75.51 41.64 0 75.53 33.87 75.53 75.5s-33.89 75.5-75.54 75.5c-41.65 0-75.54-33.88-75.54-75.51m192.51 85.32l-45.37-45.56c6.57-11.79 10.33-25.35 10.33-39.78 0-45.18-36.77-81.94-81.96-81.94 -45.2 0-81.96 36.75-81.96 81.93 0 45.17 36.76 81.93 81.95 81.93 16.11 0 31.14-4.7 43.83-12.76l44.63 44.6c3.92 3.92 9.08 5.88 14.24 5.88 5.15 0 10.32-1.97 14.24-5.89 7.83-7.84 7.84-20.6.02-28.46m-116.99-29.1c-31.02 0-56.25-25.23-56.25-56.23 0-31.01 25.23-56.23 56.24-56.23s56.24 25.22 56.24 56.22 -25.24 56.22-56.25 56.22m0-118.89c-34.56 0-62.68 28.1-62.68 62.65 0 34.54 28.11 62.65 62.67 62.65 34.55 0 62.67-28.11 62.67-62.66s-28.12-62.66-62.68-62.66"/></svg>