<svg viewBox="0 0 256 256" xmlns="http://www.w3.org/2000/svg"><defs><linearGradient id="a" x1="0%" x2="100%" y1="100%" y2="0%"><stop offset="0%" stop-color="#2E27AD"/><stop offset="100%" stop-color="#527FFF"/></linearGradient></defs><path fill="url(#a)" d="M0 0h256v256H0Z"/><path fill="#FFF" d="M201.43 111.37c6.3-3.64 8.47-11.71 4.83-18 -1.77-3.05-4.62-5.23-8.02-6.14 -1.14-.31-2.3-.46-3.44-.46 -2.29 0-4.55.59-6.58 1.77 -3.06 1.75-5.25 4.59-6.16 7.99 -.91 3.39-.45 6.94 1.32 9.99 3.63 6.28 11.73 8.45 18.03 4.82v0Zm8.19 13.47l3.18 5.49 -15.46 8.9 -3.86-19.86c-6.28-.44-12.24-3.84-15.62-9.67 -2.62-4.52-3.31-9.78-1.96-14.82 1.35-5.04 4.59-9.25 9.12-11.86 4.51-2.61 9.78-3.31 14.84-1.96 5.04 1.34 9.26 4.58 11.88 9.09 5.39 9.32 2.18 21.28-7.17 26.66v0c-1.53.87-3.13 1.52-4.75 1.95l2.02 10.46 7.72-4.45Zm-22.24 38.45c-3.06-1.77-6.62-2.23-10.02-1.32 -3.41.91-6.26 3.09-8.02 6.13 -2.49 4.29-2.21 9.4.19 13.38l2.73 3.14 -.07.05c.6.51 1.25.99 1.96 1.4v-.01c3.05 1.76 6.61 2.22 10.01 1.31 3.4-.92 6.25-3.1 8.01-6.14 3.63-6.29 1.46-14.37-4.84-18v0Zm10.34 21.16c-2.62 4.51-6.84 7.74-11.89 9.09 -1.69.45-3.4.67-5.1.67 -3.39 0-6.74-.89-9.75-2.63v-.01c-1.35-.78-2.55-1.7-3.64-2.72l-4.57 3.95 7.72 4.44 -3.19 5.5 -15.47-8.91 11.63-10.07c-3.04-5.74-3.17-12.87.32-18.89 2.61-4.52 6.83-7.75 11.88-9.1 5.05-1.36 10.32-.66 14.84 1.94s7.76 6.81 9.11 11.85c1.35 5.03.65 10.29-1.96 14.81v0Zm-69.29 13.59c0-7.27-5.93-13.18-13.21-13.18 -7.28 0-13.21 5.91-13.21 13.17s5.92 13.17 13.2 13.17c7.27 0 13.2-5.92 13.2-13.18v0Zm6.36 0c0 10.76-8.78 19.52-19.58 19.52 -10.79 0-19.57-8.76-19.57-19.53 0-1.52.18-2.99.51-4.4l-8.21-2.84v9.56h-6.37v-18.49l17 5.87c3.45-5.55 9.59-9.26 16.61-9.26 10.79 0 19.57 8.75 19.57 19.52v0ZM72.8 147.07c-1.77-3.05-4.62-5.23-8.02-6.14 -3.41-.91-6.96-.45-10.02 1.31 -3.06 1.75-5.24 4.59-6.16 7.99 -.92 3.39-.45 6.94 1.32 9.99 1.75 3.04 4.61 5.22 8.01 6.13 3.39.91 6.95.44 10.01-1.32 6.3-3.64 8.47-11.71 4.82-18v0Zm-1.65 23.49c-3.02 1.73-6.37 2.62-9.76 2.62 -1.7 0-3.42-.23-5.1-.68 -5.05-1.35-9.28-4.59-11.89-9.1 -2.62-4.52-3.31-9.78-1.96-14.82 1.35-5.04 4.58-9.25 9.11-11.86v-.01c.91-.53 1.86-.96 2.83-1.33l-1.98-10.15 -7.7 4.44 -3.19-5.5 15.42-8.91 3.65 18.83c1.92-.07 3.86.14 5.77.65 5.04 1.34 9.26 4.58 11.88 9.09 5.39 9.32 2.17 21.28-7.17 26.66v0Zm6.18-98.39v0c-2.08-1.2-4.34-1.77-6.58-1.77 -4.57 0-9.02 2.36-11.47 6.58 -1.77 3.04-2.24 6.59-1.33 9.99 .91 3.39 3.1 6.23 6.15 7.99 3.05 1.76 6.6 2.23 10.01 1.31 3.4-.92 6.25-3.09 8.01-6.14 3.64-6.3 1.47-14.37-4.83-18v0Zm10.2 1.43c3.49 5.87 3.8 13.41.14 19.73 -2.62 4.51-6.84 7.74-11.89 9.09 -1.69.45-3.4.67-5.1.67 -3.39 0-6.74-.89-9.75-2.63 -4.53-2.61-7.77-6.82-9.13-11.86 -1.36-5.04-.66-10.3 1.95-14.82 5.39-9.33 17.38-12.53 26.72-7.15v0c1.05.6 2.02 1.31 2.91 2.07l8.11-7.04 -7.71-4.45 3.18-5.5 15.41 8.9 -14.92 12.93Zm64.29-15.72c0-7.27-5.93-13.18-13.21-13.18 -7.28 0-13.21 5.91-13.21 13.17s5.92 13.17 13.2 13.17c7.28 0 13.2-5.91 13.2-13.18v0Zm20.4 14.71l-16.32-5.62c-3.29 6.19-9.81 10.42-17.31 10.42 -10.8 0-19.58-8.76-19.58-19.53 0-10.77 8.77-19.53 19.57-19.53 10.78 0 19.57 8.76 19.57 19.52 0 1.04-.11 2.06-.27 3.06l7.94 2.73v-8.15h6.36v17.04Zm-31.46 31.76l-5.83-2.55 -22.42 50.94 5.82 2.55 22.41-50.95Zm24.19 24.3l-18.38-17.91 -4.45 4.54L155.17 128l-14.6 10.92 3.82 5.07 20.53-15.38ZM107 141.59l-18.37-17.9 20.53-15.38 3.82 5.07 -14.61 10.92 13.05 12.72 -4.45 4.54Z"/></svg>