<svg viewBox="0 0 256 256" xmlns="http://www.w3.org/2000/svg"><defs><linearGradient id="a" x1="0%" x2="100%" y1="100%" y2="0%"><stop offset="0%" stop-color="#B0084D"/><stop offset="100%" stop-color="#FF4F8B"/></linearGradient></defs><path fill="url(#a)" d="M0 0h256v256H0Z"/><path fill="#FFF" d="M212.86 89.53l-17.63-4.46c17.48 30.48 14.7 70.43-7.65 96.04 -15.28 17.5-37.94 26.87-60.72 26.87 -13.26 0-26.56-3.18-38.47-9.77l3.04-5.63c29.85 16.51 69.13 9.75 91.37-15.73 20.66-23.68 23.11-60.75 6.72-88.95l-4.58 18.49 -6.16-1.56 6.34-25.65c.42-1.72 2.14-2.78 3.84-2.34l25.37 6.41 -1.54 6.21ZM66.42 165.06l4.57-18.52 6.15 1.55 -6.35 25.64c-.36 1.45-1.66 2.42-3.08 2.42 -.26 0-.52-.03-.78-.1l-25.38-6.42 1.53-6.22 17.59 4.44c-17.35-29.98-14.52-67.1 7.94-92.83 24.5-28.08 66.1-35.27 98.91-17.11l-3.05 5.62C134.23 46.79 95.91 53.4 73.36 79.25c-20.72 23.74-23.24 58.09-7 85.75v0Zm34.04-25.18c4.05 0 7.35 3.33 7.35 7.43 0 4.09-3.3 7.43-7.36 7.43 -4.06 0-7.36-3.34-7.36-7.44 0-4.11 3.29-7.44 7.35-7.44v0Zm23.89-28.39c1.16.32 2.36.55 3.63.55 1.18 0 2.32-.21 3.42-.5l11.83 25.54c-2.01 1.84-3.47 4.25-4.12 7h-25.39c-.64-2.71-2.06-5.09-4.01-6.92l14.62-25.71Zm3.63-20.72c4.05 0 7.35 3.33 7.35 7.43s-3.3 7.43-7.36 7.43c-4.06 0-7.36-3.34-7.36-7.44 0-4.1 3.29-7.44 7.35-7.44v0Zm31.78 56.53c0 4.09-3.3 7.43-7.36 7.43 -4.06 0-7.36-3.34-7.36-7.44 0-4.11 3.29-7.44 7.35-7.44 4.05 0 7.35 3.33 7.35 7.43v0Zm-59.32 13.84c6.45 0 11.84-4.56 13.28-10.64h25.38c1.43 6.08 6.83 10.63 13.28 10.63 7.55 0 13.69-6.21 13.69-13.85s-6.15-13.85-13.7-13.85c-1.26 0-2.45.22-3.6.54l-11.81-25.48c2.83-2.54 4.67-6.21 4.67-10.34 0-7.64-6.15-13.85-13.7-13.85 -7.56 0-13.7 6.2-13.7 13.84 0 4.04 1.75 7.65 4.5 10.19l-14.61 25.66c-1.2-.35-2.44-.6-3.74-.6 -7.56 0-13.7 6.2-13.7 13.84 0 7.63 6.14 13.84 13.69 13.84v0Z"/></svg>