<svg viewBox="0 0 256 256" xmlns="http://www.w3.org/2000/svg"><defs><linearGradient id="a" x1="0%" x2="100%" y1="100%" y2="0%"><stop offset="0%" stop-color="#B0084D"/><stop offset="100%" stop-color="#FF4F8B"/></linearGradient></defs><path fill="url(#a)" d="M0 0h256v256H0Z"/><path fill="#FFF" d="M91.89 139.8l9.6-9.5c.6-.6.94-1.41.94-2.25 0-.85-.34-1.66-.94-2.26l-9.61-9.6 -4.55 4.48 4.12 4.12H76.79v6.36H91.5l-4.16 4.1 4.51 4.51Zm73.31.28l12.8-9.56c.8-.61 1.27-1.55 1.27-2.55 0-1.01-.48-1.95-1.29-2.55l-12.81-9.54 -3.85 5.09 5.12 3.81h-12.81v6.36h12.8l-5.13 3.81 3.84 5.09Zm-52.55-12.1c0 6.75-1.17 13.12-3.36 18.66 5.76-2.22 12.25-3.33 18.74-3.33 6.49 0 12.98 1.1 18.74 3.32 -2.19-5.55-3.35-11.92-3.35-18.67 0-6.76 1.16-13.13 3.34-18.67 -11.52 4.42-25.98 4.42-37.5 0 2.18 5.54 3.35 11.91 3.35 18.66v0Zm-15.69 30.88c-.63-.63-.94-1.44-.94-2.25 0-.82.31-1.63.93-2.25 5.81-5.78 9.28-15.65 9.28-26.39 0-10.75-3.48-20.62-9.29-26.39 -.63-.63-.94-1.44-.94-2.25 0-.82.31-1.63.93-2.25 1.25-1.25 3.27-1.25 4.52 0 12.4 12.32 40.7 12.32 53.1 0 1.25-1.25 3.27-1.25 4.52 0 .62.62.93 1.43.93 2.24 0 .81-.32 1.62-.94 2.24 -5.82 5.77-9.29 15.64-9.29 26.38 0 10.74 3.47 20.61 9.28 26.38 .62.62.93 1.43.93 2.24 0 .81-.32 1.62-.94 2.24 -.63.62-1.45.93-2.27.93 -.82 0-1.64-.32-2.27-.94 -12.41-12.33-40.71-12.33-53.11 0 -1.26 1.24-3.28 1.24-4.53 0v0Zm114.22-30.87c0-2.97-1.17-5.76-3.28-7.85 -2.18-2.17-5.05-3.25-7.9-3.25 -2.86 0-5.73 1.07-7.9 3.24 -4.36 4.32-4.36 11.36 0 15.69 4.35 4.32 11.43 4.33 15.79 0 2.11-2.1 3.27-4.89 3.27-7.85v0Zm1.25 12.34c-3.43 3.4-7.93 5.1-12.43 5.1 -4.51 0-9.01-1.71-12.43-5.11 -6.86-6.81-6.86-17.89 0-24.7 6.85-6.82 18-6.81 24.85 0 6.85 6.8 6.85 17.88 0 24.69v0ZM67.1 128.05c0-2.97-1.17-5.76-3.28-7.85 -2.12-2.1-4.92-3.26-7.9-3.26 -2.99 0-5.79 1.15-7.9 3.25 -2.12 2.09-3.27 4.88-3.27 7.84s1.15 5.74 3.26 7.84c4.22 4.19 11.57 4.19 15.79 0 2.11-2.1 3.27-4.89 3.27-7.85v0Zm1.25 12.34c-3.43 3.4-7.93 5.1-12.43 5.1s-9-1.71-12.43-5.11c-6.85-6.81-6.85-17.89 0-24.7 6.85-6.81 18-6.81 24.85 0 6.85 6.8 6.85 17.88 0 24.69v0Zm107.27 35.1c-12.79 12.7-29.79 19.69-47.87 19.69 -18.09 0-35.09-7-47.87-19.7 -8.77-8.71-13.6-19.12-16.1-26.31l-6.06 2.08c2.72 7.82 7.99 19.16 17.62 28.72 13.99 13.9 32.59 21.56 52.39 21.56 19.79 0 38.39-7.66 52.38-21.57 8.08-8.03 14.52-18.24 18.13-28.74l-6.06-2.07c-3.31 9.6-9.21 18.94-16.61 26.29v0ZM63.79 106.72l-6.05-2.09c3.87-11.09 10.13-21.3 17.63-28.74 13.98-13.9 32.58-21.55 52.37-21.55 19.78 0 38.38 7.65 52.36 21.54 7.89 7.84 14.51 18.31 18.15 28.73l-6.05 2.08c-3.34-9.55-9.41-19.15-16.64-26.33 -12.78-12.7-29.77-19.69-47.85-19.69 -18.08 0-35.07 6.98-47.85 19.68 -6.83 6.78-12.56 16.13-16.12 26.32v0Z"/></svg>