<svg viewBox="0 0 256 256" xmlns="http://www.w3.org/2000/svg"><defs><linearGradient id="a" x1="0%" x2="100%" y1="100%" y2="0%"><stop offset="0%" stop-color="#B0084D"/><stop offset="100%" stop-color="#FF4F8B"/></linearGradient></defs><path fill="url(#a)" d="M0 0h256v256H0Z"/><path fill="#FFF" d="M54.4 121.6c3.52 0 6.4 2.87 6.4 6.4 0 3.52-2.88 6.4-6.4 6.4 -3.53 0-6.4-2.88-6.4-6.4 0-3.53 2.87-6.4 6.4-6.4v0Zm76.8 83.2c-37.4 0-69.48-27.31-76.18-64.07 5.66-.28 10.34-4.23 11.72-9.54h19.65v-6.4H66.73c-1.38-5.31-6.06-9.26-11.72-9.54 6.68-36.2 39.41-64.07 76.17-64.07 13.8 0 28.26 5.19 42.97 15.42l3.65-5.26c-15.81-11-31.5-16.58-46.63-16.58 -40.74 0-76.97 31.56-83 72.06 -3.92 2.19-6.61 6.33-6.61 11.13 0 4.8 2.68 8.93 6.6 11.12 6.1 41.16 41.57 72.07 82.99 72.07 17.3 0 35.01-5.9 49.87-16.61l-3.75-5.2c-13.78 9.92-30.16 15.39-46.13 15.39v0Zm-34.88-88.19c5.93 1.44 13.35 1.78 18.87 1.78 5.25 0 12.23-.31 18.01-1.59l-14.48 28.95c-.23.44-.34.93-.34 1.43v14.24c-2.57 1.63-6.94 4.34-9.6 4.9v-19.16c0-.43-.09-.85-.25-1.24l-12.24-29.36Zm18.87-11.02c12.88 0 19.75 1.93 21.89 3.2 -2.14 1.26-9.02 3.2-21.9 3.2 -12.88 0-19.76-1.94-21.9-3.2 2.13-1.27 9.01-3.2 21.89-3.2v0Zm-9.6 67.2h3.2c.13 0 .27-.01.4-.03 3.91-.51 8.89-3.54 13.26-6.34l.84-.54c.92-.59 1.48-1.61 1.48-2.71v-15.25l17.78-35.58c.87-1.03 1.41-2.2 1.41-3.59 0-8.36-18.05-9.6-28.8-9.6 -10.76 0-28.8 1.24-28.8 9.6 0 1.17.38 2.18 1.02 3.09l14.97 35.94v21.76c0 1.76 1.43 3.2 3.2 3.2v0Zm92.8-3.2c3.52 0 6.4 2.87 6.4 6.4 0 3.52-2.88 6.4-6.4 6.4 -3.53 0-6.4-2.88-6.4-6.4 0-3.53 2.87-6.4 6.4-6.4v0Zm0-96c3.52 0 6.4 2.87 6.4 6.4 0 3.52-2.88 6.4-6.4 6.4 -3.53 0-6.4-2.88-6.4-6.4 0-3.53 2.87-6.4 6.4-6.4v0Zm6.4 48c3.52 0 6.4 2.87 6.4 6.4 0 3.52-2.88 6.4-6.4 6.4 -3.53 0-6.4-2.88-6.4-6.4 0-3.53 2.87-6.4 6.4-6.4v0Zm-32 9.6h19.65c1.42 5.5 6.39 9.6 12.34 9.6 7.05 0 12.8-5.75 12.8-12.8 0-7.06-5.75-12.8-12.8-12.8 -5.95 0-10.92 4.09-12.35 9.6h-19.66v-41.6h13.25c1.42 5.5 6.39 9.6 12.34 9.6 7.05 0 12.8-5.75 12.8-12.8 0-7.06-5.75-12.8-12.8-12.8 -5.95 0-10.92 4.09-12.35 9.6h-16.46c-1.77 0-3.2 1.43-3.2 3.2v44.8h-22.4v6.4h22.4v44.8c0 1.76 1.43 3.2 3.2 3.2H186c1.42 5.5 6.39 9.6 12.34 9.6 7.05 0 12.8-5.75 12.8-12.8 0-7.06-5.75-12.8-12.8-12.8 -5.95 0-10.92 4.09-12.35 9.6h-13.26v-41.6Z"/></svg>