<svg viewBox="0 0 256 256" xmlns="http://www.w3.org/2000/svg"><defs><linearGradient id="a" x1="0%" x2="100%" y1="100%" y2="0%"><stop offset="0%" stop-color="#4D27A8"/><stop offset="100%" stop-color="#A166FF"/></linearGradient></defs><path fill="url(#a)" d="M0 0h256v256H0Z"/><path fill="#FFF" d="M162.64 112.54c-3.4 0-6.15-2.76-6.15-6.14 0-3.39 2.75-6.14 6.14-6.14 3.38 0 6.14 2.75 6.14 6.13s-2.76 6.13-6.15 6.13m-15.57 37.29c-3.39 0-6.15-2.76-6.15-6.14 0-3.39 2.75-6.14 6.14-6.14 3.38 0 6.14 2.75 6.14 6.13s-2.76 6.13-6.15 6.13m-37.37-6.22c-3.39 0-6.15-2.76-6.15-6.14 0-3.39 2.75-6.14 6.14-6.14 3.39 0 6.14 2.75 6.14 6.13s-2.76 6.13-6.15 6.13m-15.57 34.18c-3.39 0-6.15-2.76-6.15-6.14 0-3.39 2.75-6.14 6.14-6.14 3.39 0 6.14 2.75 6.14 6.13s-2.76 6.13-6.15 6.13m68.5-83.92c-6.92 0-12.54 5.61-12.54 12.51 0 4.23 2.12 7.96 5.35 10.22l-5.85 14.8c-.83-.17-1.68-.26-2.54-.26 -5.5 0-10.13 3.57-11.82 8.5l-13.09-2.98c-.41-6.54-5.81-11.76-12.47-11.76 -6.92 0-12.54 5.61-12.54 12.51 0 3.22 1.25 6.14 3.27 8.36l-5.72 13.37c-.21-.02-.4-.07-.6-.07 -6.92 0-12.54 5.61-12.54 12.51 0 6.89 5.62 12.51 12.53 12.51 6.91 0 12.53-5.62 12.53-12.52 0-4.43-2.33-8.31-5.82-10.53l5.04-11.8c1.2.38 2.46.65 3.8.65 4.93 0 9.16-2.89 11.21-7.02l13.86 3.14c1.13 5.74 6.21 10.08 12.29 10.08 6.91 0 12.53-5.62 12.53-12.52 0-3.73-1.68-7.05-4.29-9.35l6.14-15.56c.38.03.76.11 1.16.11 6.91 0 12.53-5.62 12.53-12.52 0-6.91-5.63-12.52-12.54-12.52m-34.65 117.32c-31.14 0-54.41-9.35-54.41-17.71V73.83c10.59 8.6 33.01 13.15 54.47 13.15 21.36 0 43.68-4.52 54.33-13.05v119.31c0 8.35-23.28 17.7-54.41 17.7m.06-166.44c32.02 0 54.33 9.5 54.33 18.04 0 8.53-22.32 18.03-54.34 18.03 -32.03 0-54.34-9.51-54.34-18.04 0-8.54 22.31-18.05 54.33-18.05m60.73 18.04c0-15.87-31.3-24.43-60.74-24.43 -29.45 0-60.74 8.55-60.74 24.42 0 .02 0 .05 0 .07h-.15v130.6c0 15.64 31.32 24.08 60.8 24.08 29.47 0 60.8-8.45 60.8-24.09V62.56h-.01c0-.03 0-.06 0-.08"/></svg>