<svg viewBox="0 0 256 256" xmlns="http://www.w3.org/2000/svg"><defs><linearGradient id="a" x1="0%" x2="100%" y1="100%" y2="0%"><stop offset="0%" stop-color="#4D27A8"/><stop offset="100%" stop-color="#A166FF"/></linearGradient></defs><path fill="url(#a)" d="M0 0h256v256H0Z"/><path fill="#FFF" d="M176.39 166.79c0-5.3-4.31-9.6-9.6-9.6 -5.3 0-9.6 4.3-9.6 9.6 0 5.29 4.3 9.6 9.6 9.6 5.29 0 9.6-4.31 9.6-9.6v0Zm6.4 0c0 8.82-7.18 16-16 16 -8.83 0-16-7.18-16-16 0-8.83 7.17-16 16-16 8.82 0 16 7.17 16 16v0ZM97.25 120.61c0-5.3-4.31-9.6-9.6-9.6 -5.3 0-9.6 4.3-9.6 9.6 0 5.29 4.3 9.6 9.6 9.6 5.29 0 9.6-4.31 9.6-9.6v0Zm6.4 0c0 8.82-7.19 16-16 16 -8.83 0-16-7.18-16-16 0-8.83 7.17-16 16-16 8.81 0 16 7.17 16 16v0Zm23.48-50.2c0 5.29 4.3 9.6 9.6 9.6 5.29 0 9.6-4.31 9.6-9.6 0-5.3-4.31-9.6-9.6-9.6 -5.3 0-9.6 4.3-9.6 9.6v0Zm-6.4 0c0-8.83 7.18-16 16-16s16 7.17 16 16c0 8.82-7.18 16-16 16s-16-7.18-16-16v0Zm90.46 57.57c0-29.68-15.92-57.13-41.57-71.98 -4.6.92-9.05 2.19-14.6 4.2l-2.18-6.02c2.89-1.05 5.48-1.89 7.98-2.62 -10.31-4.45-21.5-6.81-32.86-6.81 -5.41 0-10.73.56-15.92 1.57 3.76 2.2 7.1 4.39 10.34 6.85l-3.87 5.09c-4.57-3.47-9.31-6.4-15.53-9.66 -31.43 9.88-54.06 37.59-57.65 70.13 6.58-1.34 12.91-2.07 19.93-2.24l.15 6.39c-7.36.18-13.69.96-20.6 2.48 -.03.84-.09 1.7-.09 2.54 0 27.7 13.7 53.23 36.24 68.63 -4.01-11.94-6.01-23.23-6.01-34.25 0-6.29 1.08-11.45 2.22-16.91 .26-1.27.53-2.56.79-3.89l6.28 1.23c-.27 1.35-.55 2.67-.82 3.96 -1.12 5.35-2.09 9.97-2.09 15.59 0 12.5 2.74 25.43 8.33 39.47 11.9 6.17 24.75 9.33 38.22 9.33 8.81 0 17.42-1.41 25.63-4.12 3.22-6.36 5.61-12.36 7.6-19.25l6.14 1.78c-1.46 5.02-3.14 9.59-5.13 14.14 5.16-2.33 10.05-5.2 14.63-8.56 -1.11-2.71-2.29-5.4-3.6-8.02l5.72-2.87c1.11 2.22 2.13 4.5 3.11 6.79 18.51-15.85 29.05-38.62 29.05-63.13v0Zm6.4 0c0 27.92-12.7 53.75-34.82 70.87 -5.48 4.256-11.43 7.78-17.71 10.63 -2.67 1.2-5.38 2.32-8.17 3.27 -9.22 3.19-18.96 4.81-28.92 4.81 -14.72 0-29.34-3.67-42.28-10.61 -29.19-15.62-47.33-45.89-47.33-79 0-2.2.05-3.87.18-5.42 2.17-37.39 27.83-69.76 63.81-80.46 8.19-2.48 16.81-3.74 25.59-3.74 15.38 0 30.52 3.96 43.78 11.45 28.25 15.82 45.81 45.77 45.81 78.14v0Zm-98.2-46.52l-4.21-4.83c-7.18 6.25-12.76 12.9-19.28 22.94l5.36 3.48c6.16-9.51 11.41-15.77 18.1-21.61v0Zm-9.73 41.48l-2.08 6.05c14.69 5.04 27.52 13.09 40.34 25.33l4.41-4.64c-13.53-12.9-27.09-21.41-42.69-26.76v0Zm42.78-37.63c12 18.31 18.76 38.4 20.09 59.744l-6.39.39c-1.26-20.22-7.67-39.27-19.06-56.64l5.34-3.52Z"/></svg>