<svg viewBox="0 0 256 256" xmlns="http://www.w3.org/2000/svg"><defs><linearGradient id="a" x1="0%" x2="100%" y1="100%" y2="0%"><stop offset="0%" stop-color="#BD0816"/><stop offset="100%" stop-color="#FF5252"/></linearGradient></defs><path fill="url(#a)" d="M0 0h256v256H0Z"/><path fill="#FFF" d="M182.4 195.19c0-5.21-4.4-9.61-9.6-9.61 -5.21 0-9.6 4.39-9.6 9.6 0 5.2 4.39 9.6 9.6 9.6 5.2 0 9.6-4.4 9.6-9.61v0Zm-54.4-3.21c-5.21 0-9.6 4.39-9.6 9.6 0 5.2 4.39 9.6 9.6 9.6 5.2 0 9.6-4.4 9.6-9.61 0-5.21-4.4-9.61-9.6-9.61v0Zm-44.8-6.41c-5.21 0-9.6 4.39-9.6 9.6 0 5.2 4.39 9.6 9.6 9.6 5.2 0 9.6-4.4 9.6-9.61 0-5.21-4.4-9.61-9.6-9.61v0Zm8.33-48.01h72.928l-24.5-22.05 -9.89 8.47c-.6.51-1.35.77-2.08.77 -.74 0-1.49-.26-2.08-.78l-9.89-8.48 -24.5 22.04Zm-5.14-47.45v43.45l24.73-22.26 -24.74-21.21Zm77.75-3.76H91.83l36.14 30.98 36.15-30.99Zm5.44 47.21V90.1l-24.74 21.19 24.73 22.26Zm19.2 61.58c0 8.67-7.33 16-16 16 -8.68 0-16-7.33-16-16.01 0-7.59 5.6-14.14 12.8-15.67v-9.94h-38.4v16.33c7.2 1.52 12.8 8.08 12.8 15.66 0 8.67-7.33 16-16 16 -8.68 0-16-7.33-16-16.01 0-7.59 5.6-14.14 12.8-15.67v-16.34h-38.4v9.93c7.2 1.52 12.8 8.08 12.8 15.66 0 8.67-7.33 16-16 16 -8.68 0-16-7.33-16-16.01 0-7.59 5.6-14.14 12.8-15.67v-13.14c0-1.77 1.43-3.21 3.2-3.21h41.6v-19.21h-41.6c-1.77 0-3.2-1.44-3.2-3.21V83.02c0-1.77 1.43-3.21 3.2-3.21h89.6c1.76 0 3.2 1.43 3.2 3.2v57.6c0 1.76-1.44 3.2-3.2 3.2h-41.6v19.2h41.6c1.76 0 3.2 1.43 3.2 3.2v13.13c7.2 1.52 12.8 8.08 12.8 15.66v0Zm28.8-67.21c0 18.9-5.84 36.99-16.88 52.3l-5.2-3.75c10.24-14.22 15.66-31.01 15.66-48.57 0-45.88-37.33-83.2-83.2-83.2 -45.88 0-83.21 37.32-83.21 83.19 -.001 17.55 5.41 34.34 15.66 48.56l-5.2 3.74c-11.04-15.32-16.88-33.41-16.88-52.31 0-49.41 40.19-89.6 89.59-89.6 49.4 0 89.6 40.19 89.6 89.59v0Z"/></svg>