<svg viewBox="0 0 256 256" xmlns="http://www.w3.org/2000/svg"><defs><linearGradient id="a" x1="0%" x2="100%" y1="100%" y2="0%"><stop offset="0%" stop-color="#4D27A8"/><stop offset="100%" stop-color="#A166FF"/></linearGradient></defs><path fill="url(#a)" d="M0 0h256v256H0Z"/><path fill="#FFF" d="M141.632 164.256c-14.14 0-25.64-11.5-25.64-25.63 0-14.14 11.49-25.64 25.63-25.64 14.13 0 25.63 11.49 25.63 25.63 0 14.13-11.5 25.62-25.64 25.62v0Zm0-57.67c-17.67 0-32.04 14.36-32.04 32.03 0 17.66 14.36 32.02 32.03 32.02 17.66 0 32.03-14.37 32.03-32.03 0-17.67-14.37-32.04-32.04-32.04v0Zm64.92 89.71c-2.09 2.3-5.67 2.49-7.99.41l-26.69-24.08c2.81-2.51 5.35-5.33 7.47-8.46l26.77 24.12c2.31 2.08 2.49 5.67.42 7.98v0Zm-104.12-57.68c0-21.62 17.58-39.2 39.19-39.2s39.19 17.58 39.19 39.2c0 21.61-17.59 39.19-39.2 39.19 -21.62 0-39.2-17.59-39.2-39.2v0Zm80.16 19.88c2.93-6.02 4.62-12.76 4.62-19.89 0-25.15-20.46-45.6-45.6-45.6 -25.15 0-45.6 20.45-45.6 45.6 0 25.14 20.45 45.59 45.59 45.59 9.27 0 17.9-2.8 25.11-7.58l27.536 24.83c2.29 2.06 5.18 3.08 8.05 3.07 3.29 0 6.58-1.34 8.96-3.98 4.43-4.94 4.03-12.57-.89-17.03l-27.82-25.06Zm31.79-94.512v108.8h-6.4v-105.6h-25.6v35.2h-6.4v-38.4c0-1.77 1.43-3.2 3.2-3.2h32c1.76 0 3.2 1.43 3.2 3.2v0Zm-51.2 131.2h6.4v16c0 1.76-1.44 3.2-3.2 3.2h-32c-1.77 0-3.2-1.44-3.2-3.2v-19.2h6.4v16h25.6v-12.8Zm-25.6-112h-6.4v-38.4c0-1.77 1.43-3.2 3.2-3.2h32c1.76 0 3.2 1.43 3.2 3.2v44.8h-6.4v-41.6h-25.6v35.2Zm-19.2 105.6h6.4v22.4c0 1.76-1.44 3.2-3.2 3.2h-32c-1.77 0-3.2-1.44-3.2-3.2v-48h6.4v44.8h25.6v-19.2Zm-25.6-73.6h-6.4v-41.6c0-1.77 1.43-3.2 3.2-3.2h32c1.76 0 3.2 1.43 3.2 3.2v12.8h-6.4v-9.6h-25.6v38.4Zm-44.8 92.8h25.6V99.18h-25.6v108.8Zm28.8-115.2h-32c-1.77 0-3.2 1.43-3.2 3.2v115.2c0 1.76 1.43 3.2 3.2 3.2h32c1.76 0 3.2-1.44 3.2-3.2V95.98c0-1.77-1.44-3.2-3.2-3.2v0Z"/></svg>