<svg viewBox="0 0 256 256" xmlns="http://www.w3.org/2000/svg"><defs><linearGradient id="a" x1="0%" x2="100%" y1="100%" y2="0%"><stop offset="0%" stop-color="#4D27A8"/><stop offset="100%" stop-color="#A166FF"/></linearGradient></defs><path fill="url(#a)" d="M0 0h256v256H0Z"/><path fill="#FFF" d="M115.22 118.32V89.54h6.38v12.78l8.61-12.79h7.07l-9.99 13.45 10.81 15.31h-7.58l-8.94-13.91v13.9h-6.39Zm95.97 38.84l-2.14 1.85c-4.32 3.77-10.12 5.66-15.92 5.66 -5.81 0-11.62-1.89-15.94-5.68l-4.27-3.7c-6.26-5.49-17.22-5.49-23.47-.02l-4.3 3.71c-8.62 7.55-23.22 7.56-31.85-.01l-4.27-3.7c-6.26-5.49-17.22-5.49-23.47-.02l-4.3 3.71c-8.62 7.55-23.22 7.56-31.85-.01l-2.13-1.85 4.18-4.84 2.13 1.85c6.26 5.48 17.21 5.48 23.46.01l4.29-3.73c8.61-7.56 23.21-7.56 31.84.01l4.26 3.69c6.26 5.48 17.21 5.48 23.46.01l4.29-3.73c8.61-7.56 23.21-7.56 31.84.01l4.26 3.69c6.25 5.48 17.21 5.48 23.46.01l2.15-1.87 4.18 4.83Zm-6.73 38.47l4.18 4.83 -2.14 1.85c-4.31 3.77-10.11 5.66-15.91 5.66 -5.81 0-11.62-1.89-15.94-5.68l-4.27-3.7c-6.26-5.48-17.22-5.48-23.47-.02l-4.3 3.72c-8.62 7.55-23.22 7.55-31.85-.02l-4.27-3.7c-6.26-5.48-17.22-5.48-23.47-.02l-4.3 3.72c-8.62 7.55-23.22 7.55-31.85-.02l-2.13-1.85 4.18-4.84 2.13 1.85c6.26 5.47 17.21 5.48 23.46 0l4.29-3.72c8.62-7.56 23.21-7.56 31.84 0l4.26 3.69c6.26 5.47 17.21 5.48 23.46 0l4.29-3.72c8.62-7.56 23.21-7.56 31.84 0l4.26 3.69c6.26 5.47 17.21 5.48 23.46 0l2.15-1.87Zm0-20.27l4.18 4.83 -2.14 1.85c-8.62 7.55-23.22 7.56-31.85-.01l-4.27-3.7c-6.26-5.49-17.22-5.49-23.47-.02l-4.3 3.72c-4.31 3.77-10.12 5.66-15.91 5.66 -5.81 0-11.62-1.89-15.94-5.68l-4.27-3.7c-6.26-5.49-17.22-5.49-23.47-.02l-4.3 3.72c-8.62 7.55-23.22 7.55-31.85-.02l-2.13-1.85 4.18-4.84 2.13 1.85c6.26 5.48 17.21 5.48 23.46 0l4.29-3.72c8.62-7.56 23.21-7.56 31.84 0l4.26 3.69c6.26 5.48 17.21 5.48 23.46.01l4.29-3.72c8.62-7.56 23.21-7.56 31.84 0l4.26 3.69c6.26 5.48 17.21 5.48 23.46.01l2.15-1.87ZM76.88 121.5c3.52 0 6.38 2.86 6.38 6.39 0 3.52-2.87 6.39-6.39 6.39 -3.53 0-6.39-2.87-6.39-6.4 0-3.53 2.86-6.4 6.38-6.4v0Zm47.9-67.14c3.52 0 6.38 2.86 6.38 6.39 0 3.52-2.87 6.39-6.39 6.39 -3.53 0-6.39-2.87-6.39-6.4 0-3.53 2.86-6.4 6.38-6.4v0Zm54.28 73.52c0 3.52-2.87 6.39-6.39 6.39 -3.53 0-6.39-2.87-6.39-6.4 0-3.53 2.86-6.4 6.38-6.4s6.38 2.86 6.38 6.39v0Zm-54.29-54.35c2.12 0 4.1-.58 5.87-1.5l32.53 47.37c-1.34 1.48-2.31 3.28-2.83 5.27H89.16c-.52-2-1.5-3.79-2.83-5.28l32.53-47.38c1.76.92 3.74 1.49 5.87 1.49v0Zm-47.91 67.13c5.93 0 10.89-4.1 12.31-9.6h71.17c1.42 5.49 6.38 9.59 12.31 9.59 7.04 0 12.77-5.74 12.77-12.79 0-7.06-5.73-12.79-12.78-12.79 -1.48 0-2.87.3-4.19.76L135.4 67.71c1.32-2.02 2.1-4.41 2.1-7 0-7.06-5.73-12.79-12.78-12.79 -7.05 0-12.78 5.73-12.78 12.78 0 2.58.77 4.98 2.1 6.99L80.99 115.8c-1.33-.47-2.72-.77-4.19-.77 -7.05 0-12.78 5.73-12.78 12.78 0 7.05 5.72 12.78 12.77 12.78v0Z"/></svg>