<svg viewBox="0 0 256 256" xmlns="http://www.w3.org/2000/svg"><defs><linearGradient id="a" x1="0%" x2="100%" y1="100%" y2="0%"><stop offset="0%" stop-color="#B0084D"/><stop offset="100%" stop-color="#FF4F8B"/></linearGradient></defs><path fill="url(#a)" d="M0 0h256v256H0Z"/><path fill="#FFF" d="M64.43 165.12c-3.14-5.36-5.58-11.1-7.27-17.06l6.15-1.75c1.54 5.44 3.77 10.67 6.63 15.56l-5.53 3.23Zm-1.12-55.46l-6.16-1.75c1.65-5.84 4.03-11.47 7.07-16.74l5.53 3.2c-2.78 4.8-4.96 9.93-6.47 15.27v0Zm37.18-43.02l-2.62-5.84c9.49-4.27 19.62-6.43 30.1-6.43s20.62 2.16 30.1 6.42l-2.62 5.83c-8.67-3.89-17.92-5.87-27.5-5.87 -9.58 0-18.83 1.97-27.5 5.86v0Zm91.24 24.53c3.04 5.26 5.42 10.89 7.07 16.73l-6.16 1.74c-1.51-5.34-3.68-10.48-6.46-15.28l5.53-3.21Zm.92 55.13l6.15 1.74c-1.66 5.84-4.04 11.46-7.08 16.72l-5.54-3.21c2.77-4.8 4.95-9.94 6.45-15.27v0Zm-37.19 43.01l2.61 5.83c-9.488 4.26-19.62 6.42-30.11 6.42 -10.49 0-20.62-2.16-30.11-6.43l2.61-5.84c8.66 3.88 17.91 5.85 27.49 5.85 9.57 0 18.82-1.98 27.49-5.86v0Zm-75.5-.55c-5.3 0-9.6-4.31-9.6-9.6 0-5.3 4.3-9.6 9.6-9.6 5.29 0 9.6 4.3 9.6 9.6 0 5.29-4.31 9.6-9.6 9.6v0Zm0-25.6c-8.83 0-16 7.18-16 16s7.17 16 16 16c8.82 0 16-7.18 16-16s-7.18-16-16-16v0Zm96 25.6c-5.3 0-9.6-4.31-9.6-9.6 0-5.3 4.3-9.6 9.6-9.6 5.29 0 9.6 4.3 9.6 9.6 0 5.29-4.31 9.6-9.6 9.6v0Zm0-25.6c-8.83 0-16 7.18-16 16s7.17 16 16 16c8.82 0 16-7.18 16-16s-7.18-16-16-16v0Zm-124.8-35.2c0-5.3 4.3-9.6 9.6-9.6 5.29 0 9.6 4.3 9.6 9.6 0 5.29-4.31 9.6-9.6 9.6 -5.3 0-9.6-4.31-9.6-9.6v0Zm25.27 3.2h15.02l-4.16 4.13 4.51 4.53 9.6-9.55c.6-.6.94-1.42.94-2.27 0-.85-.33-1.67-.94-2.27l-9.6-9.66 -4.54 4.51 4.11 4.14H76.39c-1.49-7.3-7.96-12.8-15.68-12.8 -8.83 0-16 7.18-16 16s7.17 16 16 16c7.72 0 14.19-5.51 15.67-12.8v0Zm121.92 6.4c-5.3 0-9.6-4.31-9.6-9.6 0-5.3 4.3-9.6 9.6-9.6 5.29 0 9.6 4.3 9.6 9.6 0 5.29-4.31 9.6-9.6 9.6v0Zm0-25.6c-8.83 0-16 7.18-16 16s7.17 16 16 16c8.82 0 16-7.18 16-16s-7.18-16-16-16v0Zm-118.4-44.8c5.29 0 9.6 4.3 9.6 9.6 0 5.29-4.31 9.6-9.6 9.6 -5.3 0-9.6-4.31-9.6-9.6 0-5.3 4.3-9.6 9.6-9.6v0Zm0 25.6c8.82 0 16-7.18 16-16s-7.18-16-16-16c-8.83 0-16 7.18-16 16s7.17 16 16 16v0Zm96-25.6c5.29 0 9.6 4.3 9.6 9.6 0 5.29-4.31 9.6-9.6 9.6 -5.3 0-9.6-4.31-9.6-9.6 0-5.3 4.3-9.6 9.6-9.6v0Zm0 25.6c8.82 0 16-7.18 16-16s-7.18-16-16-16c-8.83 0-16 7.18-16 16s7.17 16 16 16v0ZM161.23 135l5.11-3.85h-12.8v-6.4h12.8l-5.12-3.84 3.83-5.13 12.8 9.59c.8.6 1.28 1.55 1.28 2.56 0 1-.48 1.95-1.28 2.56l-12.8 9.6 -3.85-5.12Zm-14.55 11.73c-5.76-2.23-12.25-3.35-18.74-3.35 -6.49 0-12.98 1.11-18.74 3.34 2.17-5.58 3.35-11.99 3.35-18.78 0-6.8-1.18-13.2-3.36-18.78 11.51 4.45 25.95 4.45 37.46 0 -2.19 5.57-3.36 11.98-3.36 18.77 0 6.79 1.16 13.2 3.35 18.77v0Zm12.32 7.76c-5.81-5.81-9.28-15.73-9.28-26.54 0-10.81 3.46-20.73 9.27-26.54 .62-.63.93-1.45.93-2.27 0-.82-.32-1.64-.94-2.27 -1.25-1.25-3.28-1.25-4.53 0 -12.4 12.4-40.68 12.4-53.08 0 -1.25-1.25-3.28-1.25-4.53 0 -.63.62-.94 1.44-.94 2.26 0 .81.31 1.63.93 2.26 5.81 5.81 9.28 15.73 9.28 26.53s-3.47 20.72-9.28 26.53c-.63.62-.94 1.44-.94 2.26 0 .81.31 1.63.93 2.26 1.25 1.25 3.27 1.25 4.52 0 12.4-12.4 40.67-12.4 53.07 0 .62.62 1.44.93 2.26.93 .81 0 1.63-.32 2.26-.94 .62-.63.93-1.45.93-2.27 0-.82-.32-1.64-.94-2.27v0Z"/></svg>