<svg viewBox="0 0 256 256" xmlns="http://www.w3.org/2000/svg"><defs><linearGradient id="a" x1="0%" x2="100%" y1="100%" y2="0%"><stop offset="0%" stop-color="#B0084D"/><stop offset="100%" stop-color="#FF4F8B"/></linearGradient></defs><path fill="url(#a)" d="M0 0h256v256H0Z"/><path fill="#FFF" d="M176.18 149.68c0-12.51-10.25-22.69-22.84-22.69 -12.6 0-22.84 10.17-22.84 22.68 0 12.5 10.24 22.68 22.83 22.68 12.59 0 22.83-10.18 22.83-22.69m6.43 0c0 16.03-13.14 29.07-29.28 29.07s-29.27-13.05-29.27-29.08c0-16.04 13.13-29.08 29.26-29.08 16.14 0 29.27 13.04 29.27 29.07m27 43.82l-22.43-20.07c-1.82 2.53-3.91 4.84-6.24 6.91l22.39 20.06c1.91 1.71 4.88 1.55 6.61-.35 1.71-1.9 1.56-4.85-.35-6.57m-56.29-9c19.33 0 35.06-15.63 35.06-34.83 0-19.21-15.73-34.83-35.07-34.83s-35.07 15.62-35.07 34.82c0 19.2 15.72 34.82 35.06 34.82m61.4 19.84c-2.2 2.41-5.23 3.63-8.27 3.63 -2.66 0-5.31-.94-7.43-2.83l-23.29-20.86c-6.48 4.15-14.17 6.59-22.43 6.59 -22.89 0-41.5-18.5-41.5-41.23 0-22.73 18.61-41.23 41.49-41.23 22.88 0 41.49 18.49 41.49 41.22 0 6.52-1.58 12.66-4.31 18.15l23.38 20.92c4.54 4.08 4.9 11.06.82 15.59M67.92 93.9c0 1.66.1 3.31.29 4.91 .11.91-.18 1.82-.79 2.5 -.49.54-1.14.9-1.86 1.02 -7.91 2.02-20.93 8.17-20.93 26.59 0 13.91 7.72 21.59 14.2 25.58 2.21 1.38 4.83 2.12 7.59 2.15l38.79.03 -.01 6.39 -38.82-.04c-3.99-.05-7.77-1.13-10.97-3.13 -6.43-3.96-17.23-13.27-17.23-31.01 0-21.39 14.71-29.3 23.36-32.09 -.07-.99-.1-1.98-.1-2.97 0-17.48 11.93-35.6 27.75-42.15 18.5-7.71 38.1-3.89 52.42 10.2 4.43 4.36 8.09 9.66 10.89 15.79 3.76-3.1 8.4-4.81 13.29-4.81 9.6 0 20.42 7.24 22.34 23.08 8.99 2.06 28 9.26 28 33.15 0 9.54-3.02 17.42-8.96 23.42l-4.59-4.49c4.71-4.77 7.1-11.14 7.1-18.94 0-20.91-17.62-26.1-25.2-27.37 -.87-.15-1.63-.63-2.12-1.35 -.48-.7-.67-1.54-.52-2.36 -1.06-12.98-8.82-18.79-16.1-18.79 -4.6 0-8.91 2.22-11.83 6.1 -.72.93-1.87 1.41-3.05 1.24 -1.17-.18-2.15-.98-2.56-2.08 -2.64-7.26-6.44-13.35-11.29-18.12 -12.42-12.21-29.39-15.52-45.43-8.86 -13.35 5.52-23.8 21.44-23.8 36.24"/></svg>