<svg viewBox="0 0 256 256" xmlns="http://www.w3.org/2000/svg"><defs><linearGradient id="a" x1="0%" x2="100%" y1="100%" y2="0%"><stop offset="0%" stop-color="#1B660F"/><stop offset="100%" stop-color="#6CAE3E"/></linearGradient></defs><path fill="url(#a)" d="M0 0h256v256H0Z"/><path fill="#FFF" d="M48.21 66.91c2.69 9.45 33.86 19.48 74.98 19.48 41.05 0 72.18-10 74.97-19.44l.2-1.44c-.24-4.22-24.42-20.73-75.18-20.73 -50.78 0-74.95 16.51-75.19 20.72l.19 1.38Zm147.68 61.68l-1.23 8.64c10.75 2.64 12.68 1.03 12.7 1.01 0-.08-.15-2.89-11.48-9.67v0Zm-49.74 81.18l.8 6.34c-7.68.97-15.68 1.46-23.8 1.46 -24.43 0-63.11-5.42-63.53-19.92L41.86 67.97c-.15-.63-.24-1.27-.27-1.91l-.01-.07h0c-.01-.15-.03-.29-.03-.44 0-11.1 31.78-27.2 81.6-27.2 49.81 0 81.6 16.1 81.6 27.2 0 .15-.03.29-.04.44h0l-.01.03c-.03.7-.14 1.38-.3 2.05l-7.61 53.63c10.71 6.11 15.96 10.88 16.79 15.31 .36 1.95-.12 3.78-1.4 5.3 -1.56 1.84-4.12 2.77-7.9 2.77 -2.82 0-6.34-.53-10.61-1.55l-.41 2.89 -6.34-.9 .52-3.69c-19.73-5.83-46.8-18.16-59.78-24.31 -1.34 1.1-3.03 1.79-4.89 1.79 -4.24 0-7.69-3.45-7.69-7.69s3.44-7.69 7.68-7.69 7.68 3.44 7.68 7.68c0 .04-.02.08-.02.13 11.04 5.21 38.31 17.72 57.89 23.65l8.15-57.54c-14.15 9.68-44.44 14.8-73.42 14.8 -29.03 0-59.37-5.14-73.48-14.86l16.29 119.05c.01.14.02.29.02.43 0 4.85 21.69 13.75 57.13 13.75 7.84 0 15.58-.48 22.98-1.42v0Zm58.52-24.61l7.58 7.58 -4.53 4.52 -8.49-8.49h-15.21l7.22 12.53 12.19 3.43 -1.74 6.15 -10.16-2.86 -2.78 10.36 -6.19-1.66 3.22-12.04 -7.54-13.07 -7.44 12.85 3.12 12.28 -6.2 1.57 -2.61-10.23 -10.36 2.77 -1.66-6.19 12.02-3.23 7.36-12.74h-15.01l-8.74 8.51 -4.47-4.59 7.55-7.37 -7.59-7.59 4.52-4.53 9.13 9.14h14.94l-7.63-13.2 -12.19-3.43 1.73-6.16 10.16 2.85 2.77-10.36 6.18 1.65 -3.23 12.05 7.54 13.04 7.42-12.88 -3.13-12.27 6.19-1.58 2.6 10.22 10.35-2.78 1.65 6.17 -12.06 3.22 -7.72 13.38h14.7l9.4-9.18 4.47 4.58 -7.56 7.36Z"/></svg>