<svg viewBox="0 0 256 256" xmlns="http://www.w3.org/2000/svg"><defs><linearGradient id="a" x1="0%" x2="100%" y1="100%" y2="0%"><stop offset="0%" stop-color="#2E27AD"/><stop offset="100%" stop-color="#527FFF"/></linearGradient></defs><path fill="url(#a)" d="M0 0h256v256H0Z"/><path fill="#FFF" d="M163.2 196.97v-18.73c-8.11 5.23-22.71 7.71-36.63 7.71 -15.17 0-27-2.65-33.78-7.19v18.2c0 5.41 12.63 11.02 33.77 11.02 21.58 0 36.62-5.81 36.62-11.03v0Zm-36.63-39.48c-15.17 0-27-2.65-33.78-7.19v18.27c.09 5.39 12.71 10.96 33.77 10.96 21.51 0 36.52-5.78 36.62-10.98v-18.8c-8.11 5.24-22.71 7.71-36.63 7.71v0Zm36.62-17.38v-21.64c-8.11 5.23-22.71 7.71-36.63 7.71 -15.17 0-27-2.65-33.78-7.19v21.11c.09 5.39 12.71 10.96 33.77 10.96 21.51 0 36.52-5.78 36.62-10.98v0Zm-70.41-31.36s0 .01 0 .02h0v.03c.09 5.39 12.71 10.96 33.77 10.96 23.49 0 36.52-6.48 36.62-10.98v-.03h0c0-.01 0-.02 0-.03 0-4.51-13.05-11.03-36.64-11.03 -21.16 0-33.79 5.6-33.79 11.02v0Zm76.8.08v31.21h0c0 .02-.01.05-.01.08v28.37h0c0 .02-.01.05-.01.08v28.36c0 11.97-22.31 17.42-43.03 17.42 -24.41 0-40.18-6.84-40.18-17.43v-28.35c0-.04-.01-.07-.01-.1h0v-28.36c0-.04-.01-.07-.01-.1h0v-31.2c0-.04-.01-.07-.01-.1 0-10.59 15.77-17.43 40.18-17.43 20.72 0 43.03 5.45 43.03 17.42 0 .02-.01.05-.01.08v0Zm44.8-41.28c1.76 0 3.2-1.44 3.2-3.21V47.95c0-1.77-1.44-3.21-3.2-3.21H41.58c-1.77 0-3.2 1.43-3.2 3.2v16.38c0 1.76 1.43 3.2 3.2 3.2 3.9 0 7.08 3.15 7.08 7.04 0 3.88-3.18 7.04-7.09 7.04 -1.77 0-3.2 1.43-3.2 3.2v65.54c0 1.76 1.43 3.2 3.2 3.2h32v-6.41h-16v-9.61h16v-6.41h-19.2c-1.77 0-3.2 1.43-3.2 3.2v12.8h-6.4V87.58c5.89-1.44 10.28-6.75 10.28-13.06 0-6.32-4.39-11.63-10.29-13.07V51.08h166.4v10.36c-5.9 1.43-10.29 6.74-10.29 13.06 0 6.31 4.38 11.62 10.28 13.05v59.52h-6.4v-12.81c0-1.77-1.44-3.21-3.2-3.21h-19.2v6.4h16v9.6h-16v6.4h32c1.76 0 3.2-1.44 3.2-3.21V84.69c0-1.77-1.44-3.21-3.2-3.21 -3.91 0-7.09-3.16-7.09-7.05 0-3.89 3.17-7.05 7.08-7.05v0ZM89.58 89.56V63.95c0-1.77-1.44-3.21-3.2-3.21h-19.2c-1.77 0-3.2 1.43-3.2 3.2v54.4c0 1.76 1.43 3.2 3.2 3.2h9.6v-6.41h-6.4V67.12h12.8v22.4h6.4Zm96 25.6h-3.2v6.4h6.4c1.76 0 3.2-1.44 3.2-3.21V63.94c0-1.77-1.44-3.21-3.2-3.21h-19.2c-1.77 0-3.2 1.43-3.2 3.2v25.6h6.4V67.12h12.8v48Zm-25.6-28.81V63.94c0-1.77-1.44-3.21-3.2-3.21h-22.4c-1.77 0-3.2 1.43-3.2 3.2v19.2h6.4V67.12h16v19.2h6.4Zm-41.6-3.21V67.13h-16v19.2h-6.4V63.92c0-1.77 1.43-3.21 3.2-3.21h22.4c1.76 0 3.2 1.43 3.2 3.2v19.2h-6.4Z"/></svg>