<svg viewBox="0 0 256 256" xmlns="http://www.w3.org/2000/svg"><defs><linearGradient id="a" x1="0%" x2="100%" y1="100%" y2="0%"><stop offset="0%" stop-color="#2E27AD"/><stop offset="100%" stop-color="#527FFF"/></linearGradient></defs><path fill="url(#a)" d="M0 0h256v256H0Z"/><path fill="#FFF" d="M194.94 167.33l4.1-4.14h-19.05l-5.04-5.08 -9.53 9.6 -27.65-27.87 4.48-4.53 23.15 23.33 9.52-9.6 7.66 7.72h16.41l-4.11-4.14 4.48-4.53 11.76 11.86 -11.77 11.86 -4.49-4.53Zm-29.51-50.27l5.03-5.08h10.04l9.5 10.66 -4.73 4.27 -7.62-8.54h-4.59l-7.67 7.72 -7.67-7.73h-17.74v-6.4h20.36l5.03 5.07Zm33.6-1.88h-5.04v-6.4h15.87v16h-6.35v-5.08l-8.21 8.27 8.2 8.27v-5.08h6.34v16h-15.88v-6.4h5.03l-8.21-8.28 -8.21 8.27h-19.05l-5.42 5.46 -4.49-4.53 7.27-7.34h19.04l19.04-19.2Zm-61.25 42.53l6.34-6.4 4.48 4.52 -6.35 6.4 -4.49-4.53ZM105.1 44.77c31.8-.001 53.97 10.11 53.97 19.2 0 9.08-22.17 19.2-53.98 19.2 -31.81 0-53.98-10.12-53.98-19.2 0-9.09 22.16-19.2 53.97-19.2v0Zm31.74 60.8h-6.35v70.4c0 1.76 1.41 3.2 3.17 3.2h25.39v12.8c0 9.08-22.17 19.2-53.98 19.2 -30.8 0-53.98-11.14-53.98-18.36v-24.3c9.7 8.35 29.7 13.84 53.97 13.84 7.88 0 15.54-.61 22.75-1.81l-1.03-6.32c-6.88 1.13-14.19 1.71-21.74 1.71 -31.81 0-53.98-10.12-53.98-19.2v-33.05c9.7 8.35 29.7 13.84 53.97 13.84 7.88 0 15.54-.61 22.75-1.81l-1.03-6.32c-6.88 1.13-14.19 1.71-21.74 1.71 -31.81 0-53.98-10.12-53.98-19.2V75.65C60.73 84 80.73 89.49 105 89.49c24.26 0 44.26-5.5 53.97-13.85v33.04h6.34v-44.8c0-14.6-25.94-25.6-60.32-25.6 -34.39 0-60.32 11-60.32 25.6V192.72c0 13.18 28.18 24.75 60.31 24.75 34.38 0 60.31-11.01 60.31-25.6v-12.8h44.44v-6.4h-73.02v-67.2Z"/></svg>