<svg viewBox="0 0 512 92" xmlns="http://www.w3.org/2000/svg"><g transform="translate(103.404 21.0824)"><g fill="#002A41"><path d="M.55 1.34h13.36c6.02 0 10.44 1.02 13.26 3.06 2.82 2.04 4.23 5.13 4.23 9.26 -.01 2.82-.87 5.17-2.59 7.04 -1.73 1.87-4.24 3.08-7.55 3.61v.19c3.88.57 6.74 1.8 8.58 3.68 1.83 1.87 2.74 4.49 2.74 7.84 -.01 4.48-1.49 7.94-4.47 10.36 -2.98 2.42-7.2 3.63-12.67 3.63H.51V1.29v0Zm3.39 21.69h10.73c4.57 0 7.9-.77 9.98-2.29 2.07-1.53 3.11-3.91 3.11-7.15 -.01-3.25-1.18-5.6-3.52-7.07 -2.35-1.47-5.84-2.2-10.49-2.2H3.91v18.69 0Zm0 2.99v21.02H15.4c9.01 0 13.52-3.67 13.52-11C28.91 29.35 24.16 26 14.65 26H3.91v0Z"/><path d="M66.8 32.86H47l-6.8 17.19h-3.77L56.02 1.13h2.16l19.19 48.91h-3.84l-6.77-17.2v0Zm-18.57-3.07h17.42l-6.64-17.57c-.56-1.38-1.23-3.29-2-5.74 -.6 2.13-1.26 4.06-1.97 5.79L48.2 29.76v0Z"/><path d="M105.05 3.7c-6.11 0-10.92 1.95-14.43 5.86 -3.52 3.9-5.27 9.26-5.27 16.06 -.01 6.95 1.65 12.35 4.96 16.19 3.31 3.84 8.04 5.76 14.19 5.76 4.08 0 7.84-.53 11.26-1.57v2.99c-3.23 1.13-7.25 1.69-12.07 1.69 -6.85 0-12.23-2.22-16.17-6.64 -3.94-4.43-5.9-10.6-5.9-18.53 -.01-4.96.93-9.32 2.81-13.1 1.87-3.78 4.57-6.7 8.09-8.75C96.04 1.6 100.13.57 104.79.57c4.75 0 9 .88 12.76 2.66l-1.37 3.06c-3.56-1.78-7.29-2.67-11.2-2.67v0 0Z"/><path d="M159.4 50.06h-4.17l-18.7-25.73 -6.5 5.73v19.99h-3.4V1.33h3.39v25.32l5.39-5.4L154.5 1.32h4.33l-19.97 20.59 20.49 28.12v0Z"/><path d="M166.37 1.34h13.36c6.02 0 10.44 1.02 13.26 3.06 2.82 2.04 4.23 5.13 4.23 9.26 -.01 2.82-.87 5.17-2.59 7.04 -1.73 1.87-4.24 3.08-7.55 3.61v.19c3.88.57 6.74 1.8 8.58 3.68 1.83 1.87 2.74 4.49 2.74 7.84 -.01 4.48-1.49 7.94-4.47 10.36 -2.98 2.42-7.2 3.63-12.67 3.63h-14.93V1.29v0Zm3.39 21.69h10.73c4.57 0 7.9-.77 9.98-2.29 2.07-1.53 3.11-3.91 3.11-7.15 -.01-3.25-1.18-5.6-3.52-7.07 -2.35-1.47-5.84-2.2-10.49-2.2h-9.84v18.69 0Zm0 2.99v21.02h11.46c9.01 0 13.52-3.67 13.52-11 -.01-6.69-4.76-10.04-14.27-10.04h-10.74v0Z"/><path d="M250.11 25.63c-.01 7.73-1.94 13.84-5.8 18.34 -3.87 4.49-9.2 6.74-16 6.74 -6.78 0-12.1-2.25-15.97-6.75 -3.87-4.5-5.8-10.64-5.8-18.42 0-7.76 1.94-13.86 5.84-18.32 3.89-4.46 9.22-6.69 15.97-6.69 6.79 0 12.11 2.23 15.96 6.71 3.84 4.47 5.76 10.59 5.76 18.34v0 0Zm-39.86 0c-.01 6.97 1.55 12.36 4.66 16.17 3.11 3.8 7.57 5.71 13.39 5.71 5.86 0 10.34-1.89 13.44-5.67 3.09-3.78 4.64-9.19 4.64-16.23 -.01-7.03-1.55-12.41-4.65-16.15 -3.1-3.75-7.56-5.62-13.38-5.62 -5.8 0-10.27 1.88-13.42 5.66 -3.15 3.77-4.72 9.14-4.72 16.09v0 0Z"/><path d="M296.7 50.06h-3.44L264.4 6.8h-.27c.26 5.15.39 9.04.39 11.66v31.59h-3.27V1.33h3.39l28.82 43.18h.19c-.2-4-.3-7.8-.3-11.4V1.31h3.29v48.71 0Z"/><path d="M337.09 50.06h-26.63V1.34h26.62v3.13h-23.23v18.42h21.92v3.13h-21.93v20.89h23.22v3.13 0Z"/><path d="M346.68 47.46c-.01-2.18.88-3.27 2.66-3.27 1.82 0 2.73 1.08 2.73 3.26 -.01 2.17-.92 3.26-2.74 3.26 -1.78 0-2.67-1.09-2.67-3.27v0 0Z"/><path d="M356.45 62.35c-2.05 0-3.73-.3-5.04-.9v-2.94c1.73.44 3.38.66 4.96.66 5.37 0 8.06-2.94 8.06-8.8V1.31h3.39v48.71c-.01 8.19-3.8 12.29-11.4 12.29v0 0Z"/><path d="M408.269 37.49c-.01 4.06-1.5 7.28-4.49 9.66 -2.99 2.37-6.96 3.56-11.92 3.56 -5.96 0-10.52-.66-13.7-1.97v-3.4c3.51 1.48 7.98 2.23 13.42 2.23 3.99 0 7.17-.92 9.51-2.75 2.34-1.84 3.51-4.24 3.51-7.22 -.01-1.85-.39-3.38-1.17-4.59 -.78-1.22-2.05-2.32-3.8-3.32 -1.76-1-4.34-2.08-7.74-3.24 -4.98-1.72-8.42-3.57-10.32-5.55 -1.9-1.99-2.85-4.64-2.85-7.95 -.01-3.65 1.42-6.62 4.28-8.92 2.85-2.3 6.52-3.45 11.01-3.45 4.57 0 8.87.86 12.89 2.59l-1.24 2.93c-4.05-1.69-7.91-2.54-11.6-2.54 -3.6 0-6.47.83-8.6 2.49 -2.14 1.66-3.2 3.93-3.2 6.79 -.01 1.79.32 3.27.98 4.43 .65 1.15 1.72 2.19 3.21 3.11 1.48.92 4.04 2.02 7.66 3.31 3.79 1.31 6.65 2.58 8.56 3.81 1.91 1.23 3.3 2.63 4.18 4.19 .87 1.56 1.31 3.46 1.31 5.68v0 0Z"/></g></g><path fill="#002A41" d="M.29.53v49.31l36.7 20.92V56.53l-24.56-14V20.54l24.55 13.99V21.42L.27.49v0Z"/><g fill="#0071B5"><path d="M73.7.53v49.31L36.99 70.76V56.53l24.55-14V20.54L36.98 34.53V21.42L73.68.49v0Z"/><path d="M.29 91.72V42.4l36.7-20.93v14.22L12.43 49.68v20.86l24.55-14v14.22L.27 91.68v0Z"/></g><path fill="#002A41" d="M73.7 91.72V42.4L36.99 21.47v14.22l24.55 13.99v20.86l-24.56-14v14.22l36.7 20.92v0Z"/></svg>