<svg viewBox="0 0 256 217" xmlns="http://www.w3.org/2000/svg"><path fill="#02161F" d="M0 216.3V-.01h256v216.3H0Zm111.26-57.27c19.56 0 29.65-12.22 29.65-27.64 0-12.68-8.56-23.21-19.57-24.89 9.62-1.99 17.57-10.69 17.57-23.37 0-13.59-9.94-25.96-29.35-25.96H55.91v101.84h55.32Zm90.65 0l-36.25-52.62 36.13-49.24h-26.75L138.6 106.4l8.3 11.69 28.12 40.92h26.85Zm-96.17-42.3c8.4 0 12.99 5.19 12.99 11.6 0 7.32-4.9 11.6-13 11.6H77.6v-23.21h28.12Zm-.92-40.47c7.33 0 11.92 4.42 11.92 10.68 0 6.56-4.59 10.68-11.93 10.68H77.6V76.24h27.2Z"/></svg>