<svg viewBox="0 0 512 113" xmlns="http://www.w3.org/2000/svg"><g fill="#1D2D35"><path d="M150.21 31.05h21.48c11.9 0 18.08 4.88 18.08 14.04v.45c.35 5.54-3.42 10.52-8.85 11.69 6.55.57 11.42 6.32 10.91 12.88v.31c0 10-6.57 15.27-19.17 15.27h-22.47V31.02Zm19.48 22.43c5.96 0 8.32-2.15 8.32-7.03v-.32c0-4.57-2.6-6.64-8.4-6.64h-7.34v14.04l7.4-.08Zm1.05 23.62c6.1 0 8.88-2.78 8.88-7.73v-.32c0-5.06-2.78-7.62-9.48-7.62h-7.87v15.69l8.46-.04Zm24.32-2.53c0-9.34 8.53-12.85 20.78-12.85h4.49v-1.58c0-4.74-1.44-7.34-6.5-7.34 -1.66-.2-3.32.29-4.6 1.36 -1.28 1.07-2.06 2.62-2.15 4.28h-10.54c.7-9.48 8.18-13.7 17.97-13.7s16.71 3.96 16.71 14.81V85.6h-10.78v-4.81c-2.76 3.87-7.34 6.02-12.08 5.65 -7.24 0-13.35-3.52-13.35-11.91v0Zm25.27-2.92v-3.52h-4.29c-6.43 0-10.15 1.4-10.15 5.65 0 2.91 1.75 4.8 5.79 4.8 4.88.14 8.63-2.53 8.63-6.96Zm15.58 1.43h10.32c.45 3.51 2.21 5.65 7.02 5.65 4.28 0 6.28-1.58 6.28-4.36 0-2.78-2.39-3.9-8.11-4.71 -10.54-1.62-14.75-4.67-14.75-12.47 0-7.8 7.65-12.47 15.79-12.47 8.88 0 15.51 3.22 16.5 12.39h-10.15c-.6-3.31-2.46-4.81-6.25-4.81 -3.8 0-5.66 1.68-5.66 4.1s1.89 3.51 7.68 4.35c10 1.43 15.51 3.96 15.51 12.53 0 8.56-6.25 13.13-16.82 13.13s-17.03-4.74-17.42-13.38v0Zm37.07-6.96v-.6c-.27-5.55 1.79-10.96 5.7-14.91 3.9-3.96 9.28-6.09 14.83-5.89 10.32 0 19.48 6.03 19.48 20.32v3.05H284.3c.28 6.63 3.89 10.53 9.9 10.53 5.12 0 7.65-2.22 8.35-5.59h10.53c-1.3 8.63-8.19 13.44-19.1 13.44 -12.26-.08-21.03-7.62-21.03-20.4Zm29.24-4.81c-.36-6.04-3.45-8.78-8.71-8.78 -4.93-.03-9 3.85-9.2 8.77h17.9Zm13.69 4.8v-.6c-.28-5.56 1.8-10.98 5.72-14.94 3.91-3.96 9.31-6.08 14.88-5.86 9.26 0 17.79 4.03 18.81 15.51h-10.54c-.15-2-1.09-3.84-2.62-5.13s-3.52-1.9-5.5-1.69c-5.73 0-9.55 4.28-9.55 11.93v.59c0 8.03 3.51 12.14 9.79 12.14 2.15.12 4.27-.63 5.88-2.08 1.6-1.46 2.55-3.49 2.64-5.65h10c-.6 9.47-7.48 16.04-19.1 16.04 -11.63 0-20.47-7.27-20.47-20.33v0Zm42.12 8.42c0-9.34 8.53-12.85 20.74-12.85h4.52V60.1c0-4.74-1.48-7.34-6.5-7.34 -1.67-.22-3.35.26-4.64 1.34 -1.3 1.07-2.08 2.63-2.18 4.31h-10.54c.7-9.48 8.18-13.7 17.94-13.7 9.76 0 16.74 3.96 16.74 14.81v26.05h-10.78v-4.81c-2.76 3.87-7.34 6.02-12.08 5.65 -7.03 0-13.28-3.52-13.28-11.91v0Zm25.27-2.92v-3.52h-4.22c-6.43 0-10.19 1.4-10.19 5.65 0 2.91 1.79 4.8 5.82 4.8 4.95.14 8.7-2.53 8.7-6.96h-.15Zm18.64-26.13h11.05v6.1c2.45-4.43 7.15-7.13 12.21-7.03 4.86-.39 9.4 2.46 11.16 7.02 2.99-4.48 8.06-7.13 13.44-7.03 7.4 0 13.13 4.66 13.13 15.27V85.4h-10.99V61.17c0-5.13-2.29-7.41-6.29-7.41 -2.16-.1-4.25.75-5.72 2.32 -1.48 1.57-2.2 3.7-1.97 5.85v23.59h-11.03V61.15c0-5.13-2.36-7.41-6.25-7.41 -2.17-.11-4.26.74-5.75 2.31 -1.49 1.57-2.21 3.71-1.99 5.86V85.5h-11.06V45.4Zm68.6 0h11.09v6.28c2.68-4.48 7.52-7.21 12.74-7.2 9.79 0 17.55 7.26 17.55 20.46v.63c0 13.2-7.48 20.6-17.56 20.6 -5.23.21-10.14-2.5-12.75-7.03v19.94h-11.1V45.44Zm30.01 20.25v-.64c0-8.08-3.97-12.05-9.55-12.05 -5.59 0-9.77 4.03-9.77 12.04v.63c0 8 3.82 11.9 9.86 11.9 6.03 0 9.44-4.08 9.44-11.77v-.15Z"/><path d="M68.12 0c23.04 0 41.06 17.6 51.47 42.21l.96 2.36c1.89 4.77 3.5 9.78 4.82 14.96l.63 2.6c1.62 6.98 2.71 14.23 3.22 21.6 .08 1.18-.19 2.37-.79 3.4 -9.69 16.8-31.22 24.91-58.69 25.21l-1.57 0c-21.04.34-41.19-8.51-55.17-24.24 -1.47-1.66-1.91-3.99-1.14-6.06l.87-2.24 .73-1.79c.12-.31.26-.63.4-.95 1.57-3.68 3.31-7.36 5.19-10.83 5.04-9.29 10.02-15.44 15.97-17.47 1.25-.43 2.53-.67 3.88-.67 5.3 0 8.73 2.37 14.22 8.09l3.14 3.3 1.08 1.08 .68.6 .52.42 .21-.22c.74-.8 1.62-1.9 2.58-3.26l.48-.7c1.14-1.67 2.36-3.63 3.63-5.81 1.65-2.84 3.29-5.9 4.84-8.97l1.13-2.28 .85-1.78c1.4-3 4.96-4.29 7.96-2.88 2.82 1.32 4.13 4.57 3.08 7.45l-.29.66 -1.25 2.57 -.83 1.64c-1.65 3.25-3.4 6.51-5.18 9.57 -1.41 2.42-2.78 4.62-4.11 6.55 -4.45 6.48-7.92 9.9-12.71 9.9 -3.61 0-5.56-.78-8.92-3.91l-1.06-1.02 -1.16-1.17 -1.98-2.05 -1.31-1.38 -1.07-1.09c-.17-.17-.33-.33-.49-.48l-.89-.84c-.28-.26-.54-.49-.79-.69l-.68-.55c-.74-.56-1.27-.84-1.64-.9l-.13-.02 -.07.02c-1.43.48-3.56 2.71-5.92 6.2l-.96 1.46c-.49.76-.98 1.57-1.47 2.42l-.99 1.76c-1.35 2.48-2.64 5.12-3.84 7.8l-1.31 3.01 .43.43c11.12 10.85 26.05 17.03 41.75 17.14l1.42-.01c22.93 0 40.41-5.86 48.47-16.93l.56-.81 -.07-.76c-.82-8.96-2.59-17.66-5.16-25.71l-.8-2.4c-8.2-23.75-23.51-41.28-42.1-41.84l-.93-.02c-25.86 0-43.24 17.54-54.85 47.71l-1.11 2.95c-.19.49-.37 1-.54 1.5 -1.1 3.11-4.52 4.75-7.64 3.65s-4.76-4.52-3.66-7.64l.54-1.52 1.11-2.99C14.88 20.85 35.73-.33 67.79-.33Z"/></g></svg>