<svg viewBox="0 0 512 229" xmlns="http://www.w3.org/2000/svg"><path fill="#0F0F0F" d="M511.77 109.63c-1.23-14.5-7.24-29.09-22.2-33.85 -11.78-3.77-24.08.72-33.85 7.59 1.9-6.35 3.85-12.69 5.85-19.04 6.02-16.74 11.21-33.75 17.5-50.38 2.11-5.44-2.27-12.39-7.75-13.65 -2.84-.72-5.84-.31-8.39 1.13 -2.55 1.44-4.44 3.8-5.29 6.6 -6.49 17.11-12.41 34.41-17.97 51.84 -.68 1.86-1.36 3.72-2.13 5.56 -.85 2.26-1.74 4.5-2.65 6.74 -.19.5-.4 1.02-.61 1.47v.17c-.5 1.13-1.03 2.28-1.49 3.42 -2.11 4.45-4.26 8.81-6.5 13.14 -6.23 11.6-14.14 22.21-23.48 31.49 -6.5 6.74-15.08 11.11-24.36 12.37 -5 .63-10.04.57-14.29-2.55 -3.1-2.28-5.22-5.66-5.91-9.44 -.47-3.6-.15-7.26.95-10.72 3.38-13.51 11.16-25.51 22.12-34.11l1.75-1.3c1.87-1.53 4.15-2.48 6.56-2.73 6.15-.2 12.3 8.46 18.68 4.35 4.69-3.08 7.59-10.14 3.99-15.19 -8.1-11.29-23.8-14.36-36.12-8.21 -5.71 3.1-10.94 7-15.53 11.59 -4.33 4.18-8.16 8.84-11.42 13.89 -4.54 6.91-8.11 14.42-10.59 22.31 -.53.48-1.03 1.02-1.56 1.47l-35.14 33.5c-3.69-3.81-2.67-10.38-1.74-15.08 1.45-7.41 4.23-14.81 6.34-22.04 4.53-15.39 9.63-30.66 14.26-46.04 1.4-4.85 2.88-9.69 4.42-14.52 13.33-.8 26.72-1.12 40.21-1.18 1.45 0 2.9-.29 4.25-.85 1.34-.56 2.57-1.38 3.6-2.41 1.03-1.04 1.84-2.26 2.4-3.61 .55-1.35.84-2.8.84-4.26s-.29-2.91-.85-4.26c-.56-1.35-1.38-2.58-2.41-3.61 -1.04-1.04-2.26-1.85-3.61-2.41s-2.8-.85-4.26-.85c-11.09 0-22.16.32-33.21.97 .59-2.55.59-5.2 0-7.75 -1.44-5.57-6.99-7.96-12.31-7.07 -5.33.89-8.7 7.04-10.81 11.52l-2.45 5.2c-14.81 1.47-29.63 3.56-44.44 6.49 -2.83.8-5.24 2.68-6.69 5.23 -1.46 2.55-1.85 5.58-1.09 8.42 .85 2.8 2.74 5.16 5.28 6.61 2.54 1.44 5.55 1.85 8.39 1.14 8.2-1.65 16.47-3.06 24.79-4.23l2.58-.38 -.92.14c.3.01.61-.03.91-.13 -15.46 31.85-32.22 63.1-54.63 90.38l-7.96 9.11c-1.41-1.86-2.33-4.04-2.69-6.34 -.4-4.26.08-8.54 1.41-12.6 3.21-12.09 7.66-23.81 13.29-34.98 2.11-3.64 3.67-7.57 4.61-11.67 .43-2.06.33-4.2-.3-6.21s-1.77-3.83-3.3-5.27c-4.4-3.57-11.29-2.12-15.5 1.8 -2 1.89-3.65 4.1-4.91 6.55 -6.43-4.15-13.98-6.2-21.61-5.86 -11.82.88-22.94 5.94-31.38 14.25 -6.42 6.18-11.8 13.35-15.95 21.23 -1.46-7.62-5.29-14.57-10.95-19.87 -8.64-7.71-19.8-10.26-31.08-9.7 5.18-5.55 9.12-12.13 11.57-19.32 3.24-10.1.53-21.54-8.86-27.32 -7.18-4.38-16.07-4.11-24.09-3.3 -2.12.2-4.36.48-6.53.79l.7-2.12c.74-2.84.34-5.86-1.11-8.4 -1.46-2.55-3.85-4.43-6.67-5.24 -2.84-.71-5.85-.3-8.39 1.14 -2.55 1.44-4.44 3.81-5.29 6.61 -1.5 4.73-3.05 9.46-4.65 14.19 -5.11 1.73-10.12 3.73-15.01 5.98 -15.98 7.49-30.53 17.71-43 30.19 -1.1 1-1.97 2.22-2.58 3.57 -.62 1.36-.95 2.84-.98 4.34 -.03 1.5.25 2.99.82 4.37 .55 1.38 1.38 2.63 2.44 3.69 1.05 1.04 2.31 1.86 3.69 2.41 1.37.54 2.85.81 4.34.78 1.49-.03 2.96-.35 4.32-.96 1.36-.61 2.58-1.49 3.6-2.58 2.43-2.42 4.95-4.76 7.53-6.99 1.07-.96 2.11-1.86 3.3-2.77 .67-.58 1.37-1.12 2.11-1.62 -2.33 1.67.75-.55 1.18-.87 5.57-4.1 11.43-7.78 17.54-11.01l1.02-.54C44.34 78 36.99 97.96 30.13 118.04c-1.62 4.75-3.19 9.54-4.72 14.35 -1.53 4.8-3.38 9.65-4.65 14.67 -.59 1.93-.85 3.94-.78 5.96 .25 2.16 1.16 4.2 2.59 5.85 1.43 1.64 3.33 2.82 5.44 3.37 2.83.72 5.84.32 8.39-1.13 2.54-1.45 4.43-3.82 5.27-6.63 4.44-14.58 9.33-28.99 14.35-43.35 1.54-.82 3.07-1.64 4.63-2.39l2.92-1.4 1.69-.77 1.09-.49 .85-.36c10.34-4.17 21.12-7.18 32.13-8.98 5.15-.88 10.35-1.47 15.57-1.76 6.56-.32 13.16.49 17.43 5.96 5.29 6.74.88 17.17-3.08 23.27 -4.17 6.08-9.03 11.65-14.49 16.61 -4.94 4.88-10.21 9.42-15.78 13.57 -1.72 1.2-3.45 2.39-5.18 3.58 -7.84 5.15-16.12 9.61-24.73 13.33 -3.27 1.41-6.57 2.67-9.9 3.79 -3.52 1.22-7.08 2.36-10.59 3.36 -3.51.99-7.18 1.87-10.85 2.59 -3.63.76-7.29 1.31-10.97 1.67 -2.86.17-5.69.55-8.49 1.14 -2.75.55-5.21 2.04-6.97 4.22l-.34.44c-1.23 1.76-1.85 3.88-1.76 6.03 .09 2.1.73 4.13 1.84 5.92 1.11 1.78 2.66 3.25 4.5 4.27 3.33 1.67 7.43.64 10.96.22l3.42-.45c4.84-.69 9.65-1.54 14.42-2.55 4.77-1.02 9.5-2.22 14.16-3.62 4.65-1.38 9.23-2.95 13.79-4.7 4.56-1.76 8.99-3.67 13.33-5.76 4.33-2.1 8.67-4.4 12.86-6.87 4.18-2.47 8.27-5.13 12.23-7.95 3.95-2.83 7.85-5.86 11.57-9.06 .97-.83 1.92-1.68 2.87-2.54 6.59-5.95 12.64-12.47 18.08-19.49 .46-.6.93-1.19 1.37-1.8 .01 1.51.12 3.03.31 4.54 1.49 12.06 9.71 23.94 21.58 26.53 7.7 1.33 15.62-.36 22.11-4.72 6.39-4.36 12.03-9.75 16.67-15.94 1.58-1.96 3.07-3.99 4.63-6 2.43 7.68 7.59 14.22 14.5 18.37 2.15 1.35 4.57 2.22 7.1 2.53 2.52.31 5.08.05 7.5-.74 3.16-1.55 5.95-3.78 8.14-6.54 12.98-14.47 24.67-30.04 34.94-46.55 -.15.71-.34 1.43-.49 2.11 -1.95 9.65-3.63 19.78-.7 29.19 2.92 9.41 11.88 17.63 21.64 16.4 5.83-.76 10.76-4.63 15.26-8.47 6.87-5.82 13.53-11.91 20.01-18.17 1.4 3.75 3.45 7.23 6.06 10.27 8.99 10.74 22.96 14.29 36.41 12.5 12.11-1.86 23.46-7.1 32.74-15.11 1.24-1.03 3.62-3.19 3.62-3.19s-.66 2.47-.86 3.07l-.96 3.59c-.64 2.32-1.26 4.65-1.88 6.98 -1.09 4.01-2.53 8.46-.94 12.45 .59 1.59 1.56 3.02 2.83 4.16 1.26 1.13 2.78 1.95 4.43 2.37 2.02.47 4.14.41 6.14-.2 1.99-.61 3.79-1.73 5.21-3.26 1.43-1.94 2.41-4.18 2.87-6.55 .83-2.73 1.71-5.42 2.68-8.11 2.46-6.26 5.28-12.38 8.45-18.31 4.25-8.59 9.15-16.85 14.66-24.69 2.55-3.36 5.59-6.32 9.01-8.78 2.28-1.8 4.92-3.1 7.74-3.8 2.1-.42 4.28-.12 6.19.84 1.91.96 3.45 2.53 4.38 4.46 3.07 5.47 3.32 12.3 2.96 18.46 -.26 4.27-.88 8.51-1.84 12.68 -.52 2.26-1.03 4.55-1.77 6.74 -.91 2.35-1.3 4.88-1.14 7.4 .04 2.12.76 4.18 2.05 5.87 1.29 1.68 3.09 2.92 5.12 3.53 1.69.37 3.45.38 5.15.03 1.7-.36 3.3-1.07 4.71-2.09 3.59-2.65 4.1-7.09 5.03-11.11 1.29-5.42 2.48-10.88 3.32-16.41 .95-5.93 1.18-11.96.71-17.94l.01.03Zm-407.6-59.4c-3.81 6.14-8.64 11.59-14.29 16.1 -4.18 3.08-8.53 5.93-13.04 8.51 -2.88 1.59-5.86 2.97-8.85 4.39 3.07-8.64 6.15-17.28 9.23-25.94 .55-1.57 1.02-3.16 1.61-4.72 2.68-.68 5.37-1.28 8.1-1.76 4.66-.96 9.39-1.51 14.15-1.64 1.16-.13 2.33.06 3.4.55 1.71.94.49 3.16-.34 4.47Zm78.55 94.21c-3.22 3.74-8.47 7.68-12.53 4.9 -2.76-1.86-3.08-5.78-2.87-9.1 .68-8.97 3.29-17.69 7.63-25.57 4.34-7.88 10.32-14.74 17.53-20.11 3.37-2.74 7.39-4.56 11.68-5.29 2.13-.33 4.32-.05 6.31.79 1.99.84 3.7 2.22 4.96 3.98 0 .16.18.35.29.54 -8.93 17.9-20.03 34.64-33.07 49.82h.02Z"/><path fill="#0968AC" d="M181.35 220s7.27-1.09 10.92-1.59l2.98-.44 8.02-1.03c7.67-.97 15.36-1.84 23.07-2.63 32.13-3.29 64.4-5.05 96.8-5.29 3.29 0 6.59 0 9.88 0 3.29 0 6.62 0 9.93 0 3.31 0 6.62.08 9.94.15 3.32.07 6.62.14 9.93.24 3.31.1 6.62.2 9.93.33 1.65.06 3.29.16 4.93.21 1.42.09 2.85-.03 4.23-.37 1.85-.53 3.54-1.52 4.91-2.88 2.08-2.09 3.26-4.91 3.28-7.85 -.06-2.94-1.26-5.74-3.33-7.81 -2.08-2.08-4.88-3.27-7.82-3.32 -66.05-2.93-132.22.37-197.64 9.85 -4.79.68-9.54 1.41-14.26 2.18 -4.72.77-9.46 1.57-14.22 2.41 -4.73.83-9.45 1.7-14.17 2.6 -2.06.39-4.2.81-6.29 1.23 -2.18.26-4.31.83-6.32 1.71 -1.7.91-3.14 2.24-4.18 3.86 -.12.16-.21.32-.31.49 -1.45 2.57-1.81 5.6-1.03 8.45 .84 2.81 2.74 5.18 5.29 6.63 1.57.88 3.32 1.39 5.12 1.47 1.92-.01 3.83-.24 5.7-.69 1.98-.4 3.97-.87 5.97-1.24l7.45-1.39 8.59-1.56c2.96-.55 5.93-1.07 8.91-1.58 2.8-.5 5.6-.98 8.41-1.44l2.74-.45 2.47-.39Z"/></svg>