<svg viewBox="0 0 256 222" xmlns="http://www.w3.org/2000/svg"><path fill="#FFF" d="M181.24 159.98c-20.79-2.46-31.19-15.5-33.06-18.09 -4.13-5.7-8.8-15.88-12.8-25.07 -1.21-2.78-5.51-3.3-7.09-3.39l-.6-.02c-.74 0-6.28.14-7.7 3.39 -4.01 9.18-8.67 19.35-12.8 25.06 -1.88 2.59-12.28 15.63-33.06 18.08 -3.62.43-7.45.64-11.42.64 -8.68 0-17.26-1.02-24.18-2.76l7.08 28.6 58.93 24.28 21.91 2.64 21.76-2.65 58.93-24.29 6.93-27.99c-6.4 1.34-13.92 2.13-21.51 2.13 -3.95 0-7.79-.21-11.4-.65v0Zm-27.98 36.95H99.32v-5.7h24.11v-12.06c-1.7-.27-3.38-.55-5.07-.88 -2.34-.45-4.66-.94-6.94-1.57 -2.07-.57-4.24-1.2-6.09-2.3 -3.36-2.03-5.9-5.92-3.84-9.76 .97-1.82 2.72-3.51 4.66-4.26 2.2-.85 4.73-.96 7.07-1.05 -1.33.04.89 0 .23-.01h-.12 .11c2.43 0 4.85.06 7.3.22 2.17.14 4.4.63 6.56.38 4.7-.54 9.54-.86 14.28-.45 2.13.18 4.48.44 6.27 1.73 1.66 1.2 3.14 2.84 3.67 4.86 1.03 3.96-2.33 7.41-5.66 8.94 -4.17 1.91-8.98 2.74-13.47 3.52 -1.12.19-2.23.38-3.35.56v12.05h24.13v5.69Zm71.85-102.3c-2.95-.91-6.82-1.6-12.04-2.01 -6.23-.48-14.38-.53-25.21.01 0 0-17.06 1.49-27.05 4.95 -5.43 1.88-12.19 4.77-13.78 9.79 -1.6 5.01-.35 16.06 2.16 21.97 2.5 5.92 9 13.83 14.47 17.53 5.05 3.43 14.77 7.66 28.12 7.57 8.23-.05 16.92-.85 24.12-3.28 3.07-1.04 5.89-2.37 8.27-4.08 2.31-1.66 4.17-3.62 5.68-5.74 3.69-5.19 5.25-11.35 5.98-16.6 1.02-7.4 2.17-20.05-2.17-24.95 -1.77-2-4.13-3.85-8.61-5.23ZM91.69 146.89c5.45-3.7 11.96-11.62 14.45-17.54 2.51-5.92 3.76-16.97 2.16-21.98 -1.6-5.02-8.35-7.92-13.78-9.8 -9.99-3.46-27.05-4.96-27.05-4.96 -12.37-.62-21.26-.46-27.76.21 -5.53.58-9.35 1.54-12.11 2.75 -2.85 1.22-4.6 2.69-5.98 4.25 -4.34 4.89-3.2 17.53-2.18 24.94 .56 4.08 1.63 8.71 3.82 13 1.77 3.48 4.28 6.76 7.86 9.31 1.63 1.17 3.49 2.16 5.47 3.02 7.68 3.25 17.58 4.27 26.92 4.32 13.33.06 23.06-4.16 28.12-7.59ZM47.47 84.12c10.5.08 21.07.81 31.61 2.22 5.86.78 11.71 1.76 17.53 2.95 4.73 1.02 8.52 1.96 11.87 2.79 7.4 1.85 12.29 3.06 19.19 3.07 6.88-.02 11.75-1.24 19.15-3.08 3.34-.84 7.14-1.78 11.84-2.8 5.16-1.07 10.34-1.94 15.55-2.68 10.34-1.47 20.72-2.31 31.04-2.48 1.43-.03 2.87-.06 4.31-.06 .78 0 1.56 0 2.34.01l-.57-4.29 -.28-.87 -13.18-39.45 -32.96-6.46 -38.49-7.52v-.02h-.03s-.02 0-.05 0c-.04-.01-.06-.01-.06-.01h-.03v.02c-1.45.15-20.5 3.88-38.56 7.45 -16.87 3.32-32.88 6.51-32.88 6.51L41.63 78.86l-.3.86 -.57 4.32c1.58-.04 3.2-.06 4.86-.06 .57-.01 1.15.01 1.72.01Z"/><path fill="#454545" d="M252.91 88.51c-.14-.05-10.78-2.85-28.81-3.94l-1.01-9.7 -2.15-6.44 12.8-13.72c11.62-12.47 10.94-31.98-1.52-43.61l-2.44-2.28c-12.46-11.63-31.98-10.95-43.61 1.51l-11.04 11.82 -48.66-10.18v-.02h-.04s-.03 0-.06 0c-.05-.01-.07-.01-.07-.01h-.03v.02c-1.79.2-26.9 5.48-48.74 10.09L66.56 10.3C54.95-2.17 35.42-2.84 22.97 8.78l-2.44 2.27C8.07 22.67 7.39 42.18 19.01 54.65l12.8 13.71 -2.16 6.43 -1.02 9.85c-16.49 1.2-26.16 3.73-26.27 3.77 -1.71.47-2.41 2.2-2.35 3.7l2.03 14.57 .87.46c2.79 1.48 3.51 3.73 7.31 17.01l.67 2.34c4.13 14.41 7.59 20.73 14.44 25.64l11.64 40.16 64.46 26.35 24.92 2.52 24.74-2.53 67.02-26.36 9.17-38.57c.1-.07.21-.13.31-.19 8.3-5.17 12.01-11.24 16.55-27.07l.68-2.38c3.79-13.26 4.5-15.49 7.3-16.98l.87-.47L255 92.23l.01-.19c.05-1.51-.64-3.23-2.34-3.72v0ZM41.45 79.85l.29-.87 13.17-39.45s16.01-3.2 32.87-6.52c18.06-3.58 37.11-7.3 38.55-7.46v-.02h.02s.02 0 .05 0c.03-.01.04-.01.04-.01h.02v.02l38.48 7.51 32.95 6.45 13.17 39.44 .27.86 .56 4.28c-.78-.01-1.56-.02-2.35-.02 -1.44 0-2.89.02-4.32.05 -10.32.17-20.7 1.01-31.05 2.47 -5.21.73-10.39 1.6-15.56 2.67 -4.71 1.01-8.51 1.95-11.85 2.79 -7.4 1.84-12.28 3.06-19.16 3.07 -6.91-.02-11.79-1.23-19.2-3.08 -3.35-.84-7.15-1.78-11.88-2.8 -5.83-1.19-11.67-2.17-17.54-2.96 -10.55-1.42-21.12-2.16-31.62-2.23 -.58 0-1.16-.03-1.74-.03 -1.67 0-3.3.02-4.87.05l.56-4.34v0Zm-4.8 70.3c-1.98-.86-3.85-1.85-5.48-3.03 -3.58-2.55-6.1-5.83-7.87-9.32 -2.18-4.3-3.26-8.93-3.83-13.01 -1.03-7.4-2.17-20.05 2.17-24.95 1.38-1.57 3.12-3.05 5.97-4.26 2.75-1.21 6.57-2.17 12.1-2.76 6.5-.69 15.39-.84 27.75-.22 0 0 17.05 1.49 27.04 4.95 5.43 1.88 12.19 4.77 13.77 9.79 1.59 5.01.35 16.06-2.17 21.97 -2.5 5.92-9 13.83-14.46 17.53 -5.07 3.43-14.79 7.66-28.14 7.57 -9.33-.05-19.23-1.07-26.92-4.33v0Zm170.55 36.33l-58.94 24.28 -21.77 2.64 -21.92-2.65 -58.94-24.29 -7.09-28.61c6.91 1.72 15.49 2.75 24.17 2.75 3.95 0 7.79-.21 11.41-.65 20.78-2.46 31.18-15.5 33.05-18.09 4.13-5.71 8.78-15.88 12.79-25.07 1.41-3.26 6.95-3.39 7.69-3.4l.59.01c1.57.09 5.87.6 7.08 3.38 4 9.19 8.66 19.37 12.79 25.06 1.87 2.59 12.26 15.63 33.05 18.08 3.61.43 7.44.64 11.4.64 7.59 0 15.1-.79 21.5-2.14l-6.95 27.98v0Zm28.68-61.68c-.73 5.25-2.29 11.41-5.99 16.59 -1.52 2.11-3.37 4.07-5.69 5.73 -2.39 1.7-5.21 3.04-8.28 4.07 -7.21 2.43-15.89 3.22-24.13 3.27 -13.36.08-23.07-4.15-28.13-7.58 -5.47-3.7-11.97-11.62-14.48-17.54s-3.76-16.97-2.17-21.98c1.59-5.02 8.34-7.92 13.77-9.8 9.98-3.46 27.04-4.96 27.04-4.96 10.82-.54 18.96-.49 25.2-.02 5.21.4 9.09 1.1 12.03 2 4.48 1.38 6.83 3.22 8.6 5.23 4.33 4.89 3.18 17.53 2.16 24.93Zm-106.76 54.35c1.11-.19 2.23-.37 3.34-.57 4.48-.79 9.29-1.61 13.46-3.53 3.32-1.53 6.69-4.99 5.65-8.95 -.53-2.03-2.02-3.67-3.68-4.87 -1.79-1.3-4.15-1.55-6.28-1.74 -4.74-.41-9.58-.1-14.29.44 -2.17.25-4.39-.23-6.57-.39 -2.45-.16-4.87-.23-7.31-.23 .65 0-1.57.05-.24 0 -2.35.09-4.87.19-7.08 1.04 -1.95.74-3.69 2.43-4.67 4.25 -2.06 3.84.47 7.73 3.83 9.75 1.85 1.1 4.02 1.73 6.08 2.29 2.28.63 4.6 1.11 6.93 1.56 1.68.32 3.36.61 5.06.87v12.06H99.23v5.68h53.93v-5.69h-24.14v-12.07Z"/></svg>