<svg viewBox="0 0 256 211" xmlns="http://www.w3.org/2000/svg"><path fill="#683D87" d="M125.52 36.02l7.38 0c31.97.09 56.36 1.1 71.89 2.04l1.73.1c16.41 1.01 30.03 12.47 33.85 28.51l.57 2.44c3.06 13.14 7.06 31.67 9.81 50.2l.54 3.66c1.86 12.96 3.4 28.14 4.59 45.12 .63 10.05-2.68 19.72-9.42 27.23 -6.75 7.5-16.04 11.83-26.1 12.34l-6.42.28c-21.7.94-52.17 1.97-84.57 2l-5.72-.01c-31.34-.09-60.66-1.09-81.72-2l-6.42-.29c-10.19-.39-19.35-4.84-26.1-12.35s-10.06-17.19-9.42-27.24l.24-3.37c1.14-15.58 2.49-29.5 4.21-41.67l.37-2.59c2.92-20.12 7.38-40.35 10.56-53.85 3.77-15.87 17.14-27.38 33.45-28.48l5.31-.32c16.01-.92 40.15-1.83 71.27-1.88v0Zm5.03 17.43h-4.89c-34.04.05-59.54 1.16-75.08 2.16 -8.79.63-15.92 6.61-17.95 15.14l-.79 3.27c-3.09 12.99-6.95 31.12-9.53 49.04l-.38 2.48c-1.86 12.57-3.26 27.25-4.34 43.71 -.39 5.34 1.4 10.43 4.96 14.38 3.56 3.94 8.4 6.23 13.74 6.49l8.41.37c21.37.91 50.63 1.88 81.79 1.91l5.75-.01c34.38-.1 66.19-1.31 87.33-2.29 5.34-.26 10.18-2.55 13.74-6.5 3.43-3.95 5.21-9.04 5.21-14.39l-.25-3.27c-1.23-16.23-2.68-30.65-4.47-42.94 -2.93-19.48-7.26-39.21-10.32-52.32 -2.04-8.53-9.3-14.64-17.95-15.15l-4.72-.29c-15.79-.92-39.68-1.83-70.37-1.88v0Zm25.82 87.18c0 15.65-12.73 28.38-28.39 28.38 -15.63 0-28.26-12.61-28.51-27.92l-.01-.47h56.89Zm-92.03-35.26c9.66 0 17.35 7.67 17.56 17.16l0 .39H46.76c0-9.68 7.89-17.57 17.56-17.57Zm127.28 0c9.66 0 17.35 7.67 17.56 17.16l0 .39h-35.14c0-9.68 7.89-17.57 17.56-17.57ZM127.97-.03c6.1 0 10.94 4.96 10.94 10.94 0 5.98-4.97 10.81-10.95 10.81 -5.99 0-10.95-4.97-10.95-10.82 0-6.11 4.96-10.95 10.94-10.95Z"/></svg>