<svg viewBox="0 0 256 208" xmlns="http://www.w3.org/2000/svg"><path fill="#FFF" d="M100.43 115.19c.93-16.61 9.06-31.24 21.32-41.61 12.03-10.19 28.22-16.42 45.89-16.42 17.65 0 33.84 6.22 45.88 16.41 12.25 10.37 20.38 25 21.32 41.58 .93 17.06-5.93 32.91-17.96 44.66 -12.27 11.95-29.72 19.45-49.26 19.45s-37.03-7.5-49.28-19.46c-12.04-11.75-18.88-27.6-17.94-44.65Z"/><path fill="#265787" d="M133.16 116.67c.47-8.53 4.64-16.03 10.94-21.35 6.17-5.23 14.48-8.43 23.54-8.43 9.05 0 17.36 3.19 23.54 8.42 6.28 5.32 10.46 12.82 10.94 21.33 .47 8.75-3.05 16.88-9.22 22.91 -6.3 6.13-15.25 9.98-25.28 9.98 -10.03 0-19-3.85-25.29-9.99 -6.18-6.03-9.69-14.17-9.21-22.91Z"/><path fill="#EA7600" d="M78.41 134.17c.05 3.34 1.12 9.83 2.72 14.9 3.35 10.73 9.05 20.66 16.98 29.41 8.13 8.99 18.15 16.21 29.72 21.34 12.16 5.38 25.34 8.13 39.03 8.1 13.66-.02 26.84-2.82 39.01-8.25 11.57-5.18 21.58-12.44 29.7-21.44 7.92-8.79 13.61-18.74 16.98-29.47 1.69-5.43 2.76-10.93 3.19-16.45 .41-5.45.24-10.9-.53-16.34 -1.51-10.62-5.18-20.57-10.84-29.65 -5.18-8.34-11.84-15.65-19.76-21.79l.01-.02L144.64 3.1c-.08-.06-.14-.12-.21-.17 -5.25-4.03-14.07-4.02-19.85.02 -5.84 4.08-6.51 10.83-1.31 15.09l-.03.02 33.35 27.12 -101.67.1h-.14c-8.41 0-16.49 5.52-18.08 12.48 -1.65 7.09 4.06 12.98 12.8 13.01l-.02.03 51.52-.1 -91.96 70.57c-.12.08-.25.17-.36.26 -8.68 6.64-11.48 17.68-6.02 24.67 5.54 7.1 17.33 7.12 26.09.04l50.18-41.08s-.74 5.54-.68 8.87Zm128.95 18.56c-10.35 10.53-24.82 16.5-40.49 16.53 -15.69.02-30.17-5.9-40.51-16.41 -5.06-5.13-8.77-11.03-11.06-17.31 -2.25-6.18-3.12-12.73-2.54-19.34 .54-6.47 2.46-12.63 5.54-18.21 3.01-5.49 7.17-10.44 12.29-14.63 10.05-8.2 22.84-12.63 36.23-12.65 13.39-.02 26.18 4.37 36.24 12.53 5.12 4.17 9.27 9.1 12.28 14.58 3.08 5.57 4.99 11.71 5.56 18.19 .56 6.6-.31 13.14-2.55 19.32 -2.3 6.29-6 12.19-11.05 17.34Z"/></svg>