<svg viewBox="0 0 512 203" xmlns="http://www.w3.org/2000/svg"><g fill="#6700EB"><path d="M199.66 174.98c-.75 0-1.33-.22-1.76-.64 -.43-.43-.64-.96-.64-1.6V59.52c0-1.81.85-2.71 2.54-2.71h38.69c14.65 0 25.9 2.65 33.75 7.96 7.85 5.2 11.78 12.79 11.78 22.77 0 6.26-1.65 11.57-4.94 15.92 -3.3 4.24-8.6 7.69-15.93 10.35 -.43.1-.64.37-.64.79 0 .31.21.53.63.63 7.85 2.12 13.74 5.46 17.67 10.03 4.03 4.56 6.05 10.56 6.05 17.99 0 10.61-3.99 18.57-11.95 23.88 -7.97 5.2-19.64 7.8-35.04 7.8h-40.29Zm41.08-66.73c6.68 0 12.36-1.49 17.03-4.46 4.67-2.98 7-7.65 7-14.02 0-6.37-2.34-11.2-7.01-14.5 -4.57-3.3-10.89-4.94-18.95-4.94H218.9c-1.6 0-2.39.69-2.39 2.07v33.59c0 1.48.58 2.22 1.75 2.22h22.45Zm-1.6 53.18c18.47 0 27.7-6.43 27.7-19.27 0-6.69-2.39-11.68-7.17-14.97 -4.78-3.3-11.1-4.94-18.96-4.94h-21.66c-.96 0-1.65.15-2.08.47 -.32.31-.48.84-.48 1.59v34.71c0 1.59.58 2.38 1.75 2.38h20.85Zm84.88 10.51c0 1.16-.27 1.96-.8 2.38 -.43.42-1.28.63-2.55.63h-10.83c-1.07 0-1.81-.16-2.23-.48 -.43-.43-.64-1.12-.64-2.08l.31-113.22c0-1.6.68-2.39 2.07-2.39h12.57c.66 0 2.07 0 2.07 0v2.38V171.9Zm119.63 2.58c.31.31.9.47 1.75.47h64.17c1.59 0 2.38-.75 2.38-2.23v-7.33 -1.92h-2.08 -43.95c-.85 0-1.28-.27-1.28-.8 0-.32.15-.69.47-1.12l44.42-58.76c1.16-1.81 1.75-3.4 1.75-4.78v-5.74 -1.76s-1.21 0-1.76 0h-61.15c-1.17 0-1.76.63-1.76 1.91v7.16c0 .84.1 1.43.31 1.75 .31.31.9.47 1.75.47h39.65c.95 0 1.43.26 1.43.79l-.48.95 -44.11 58.75c-.85 1.16-1.44 2.07-1.76 2.7 -.22.63-.32 1.43-.32 2.38v5.25c0 .84.15 1.43.47 1.75ZM363.36 56.8h-16.89v27.09c9.32 0 16.88-7.56 16.88-16.88V56.79Zm-.01 115.11c0 1.16-.27 1.96-.8 2.38 -.43.42-1.23.63-2.39.63h-10.83c-1.07 0-1.81-.16-2.23-.48 -.43-.43-.64-1.12-.64-2.08V92.9c0-.85.15-1.44.47-1.76 .31-.43.9-.64 1.75-.64h14.96l-.32 81.37Zm47.5-67.62c0-1.07.47-1.6 1.43-1.6h19.1c1.48 0 2.22-.64 2.22-1.92v-8.44 -1.76h-1.92 -19.11c-.96 0-1.44-.48-1.44-1.44V64.44v-2.55h-2.08 -10.99c-1.07 0-1.7.74-1.92 2.22l-1.92 25c0 .95-.43 1.43-1.28 1.43H380.2c-1.28 0-1.92.58-1.92 1.75v8.43c0 1.27.68 1.91 2.07 1.91h11.94c1.06 0 1.59.63 1.59 1.91v50.47c0 6.79 1.69 11.83 5.09 15.12 3.39 3.18 8.59 4.77 15.6 4.77 7.43 0 12.84-.27 16.24-.8 1.59-.32 2.38-1.22 2.38-2.71v-6.85 -1.92h-1.92 -10.2c-3.61 0-6.27-.86-7.97-2.55 -1.6-1.7-2.39-4.78-2.39-9.24v-46.66Z"/><path d="M33.42 101.04c12.72 0 24.7 5.97 32.34 16.14l32.97 43.81c.62.82.71 1.93.24 2.86l-19.01 36.82c-.92 1.76-3.36 1.97-4.56.38L-.03 101.01h33.42ZM56.08 1.06l75.42 100.03H98.07c-12.73 0-24.71-5.98-32.35-16.15L32.74 41.12c-.63-.83-.72-1.94-.25-2.87l19-36.83c.91-1.77 3.35-1.98 4.55-.39Z"/></g></svg>