<svg viewBox="0 0 256 256" xmlns="http://www.w3.org/2000/svg"><g fill="#122941"><path d="M127.75 62.66c-21.28 19.3-33.86 55.2-35.96 77.91 5.96 4.69 11.74 10 17.68 16.17 1.43 1.3 10.17 9.5 18.27 23.02 8.11-13.52 16.83-21.72 18.27-23.03 5.94-6.17 11.71-11.48 17.67-16.18 -2.11-22.71-14.68-58.62-35.97-77.92"/><path d="M153.38 164.07l-.3.27c-.28.24-26.94 24.49-29.42 60.74 19.76-1.35 40.83-8.87 43.27-9.76 45.13-22.53 54.85-60.98 54.26-91.52 -30.67 9.36-48.33 19.97-67.84 40.25"/><path d="M121.96 190.78c-8.52-16.47-19.36-26.28-19.54-26.44l-.3-.28c-19.51-20.29-37.18-30.89-67.84-40.26 -.6 30.54 9.13 68.99 54.26 91.51 1.66.6 12.12 4.34 24.9 7.06 1.05-11.94 4.36-22.57 8.48-31.63"/><path d="M127.76 19.04c-60.21 0-109.19 48.98-109.19 109.18 0 60.2 48.98 109.18 109.18 109.18 60.2 0 109.18-48.99 109.18-109.19 0-60.21-48.99-109.19-109.19-109.19v0 0Zm0 236.95C57.31 255.99-.01 198.67-.01 128.22 -.01 57.77 57.3.45 127.75.45c70.44 0 127.76 57.31 127.76 127.76 0 70.44-57.32 127.76-127.77 127.76v0 0Z"/></g></svg>