<svg viewBox="0 0 512 82" xmlns="http://www.w3.org/2000/svg"><path fill="#1D1D1B" d="M124.91 63.67c-2.49 2.79-7.2 2.03-15.09-2.33 -4.56-2.49-9.55-5.87-14.82-9.44l-2.03-1.36c-3.23-2.17-6.56-4.41-9.76-6.37 -.84-.51-1.68-1.01-2.45-1.45l-1.64-.91c-1.78-.99-3.32-1.75-4.61-2.29 -.27-.13-.53-.24-.84-.37v-.01c-.5-.22-.99-.43-1.49-.63l-.28-.17h-.13c-8.55-3.45-17.58-5.2-26.88-5.2 -7.59 0-14.95 1.17-22.01 3.45C35.56 24.83 51.66 13.9 57.36 10.58c2.46-1.44 5.5-2.2 8.8-2.2 3.31 0 6.51.78 9.01 2.21 13.72 7.82 48.5 34.45 50.77 48.31l0 .02c.32 1.93-.04 3.45-1.11 4.66M11.25 65.02c-1.59 0-2.74-.46-3.61-1.44 -1.14-1.29-1.54-2.92-1.22-4.97 .12-.81.37-1.7.76-2.65 .02-.08.06-.15.09-.22 .16-.42.34-.83.56-1.27 .08-.17.18-.35.27-.52 .18-.36.36-.71.57-1.08l.2-.33c.01-.03.03-.06.05-.08 1.56-2.63 4.03-4.81 7.12-6.33 8.98-4.41 18.66-6.64 28.76-6.64 3.65 0 7.26.29 10.82.88 -.15.06-.3.14-.44.21 -.46.22-.93.45-1.4.7 -.26.13-.51.26-.76.39 -.48.25-.96.52-1.45.79 -.24.13-.48.26-.72.39 -.64.36-1.27.73-1.91 1.11 -.14.07-.27.15-.41.24 -.67.4-1.35.81-2.02 1.23 -.31.18-.61.38-.92.57 -.44.27-.88.55-1.32.83 -.35.21-.69.44-1.03.66 -.42.26-.83.53-1.24.8 -.35.22-.7.45-1.05.68 -.43.27-.85.56-1.28.84 -.35.22-.7.45-1.04.68 -.7.46-1.4.92-2.09 1.39 -9.61 6.39-19.55 13-25.42 13m121-7.17c-3-18.29-43.36-46.83-53.93-52.86 -3.46-1.97-7.79-3.06-12.2-3.06 -4.43 0-8.6 1.06-12.04 3.06C45.77 9.6 19.42 27.7 6.77 43.99c-1.3 1.66-2.42 3.27-3.34 4.78l-.24.36C1.38 52.18.3 54.9-.09 57.43c-.63 3.94.32 7.47 2.75 10.22 2.09 2.35 5 3.59 8.4 3.59 7.81 0 18.09-6.85 29.13-14.2 8.97-6.01 20.14-13.48 25.84-13.48 .89 0 2.04.23 3.41.69l.35.12c.3.1.61.22.92.34l.93.4c1.17.49 2.5 1.15 4.21 2.09 .19.11.4.22.46.24 .12.06.24.13.39.2l.52.3c.77.44 1.57.92 2.34 1.38 3.06 1.87 6.34 4.07 9.51 6.2l2 1.34c5.4 3.66 10.51 7.11 15.33 9.74 5.83 3.22 10.34 4.72 14.2 4.72 3.59 0 6.55-1.27 8.76-3.77 2.37-2.68 3.28-6.14 2.63-9.99"/><path d="M173.12 55.75c3.91 0 7.22-1.31 9.84-3.92 2.61-2.71 3.91-6.02 3.91-10.03s-1.31-7.32-3.92-9.93c-2.62-2.71-5.93-4.01-9.85-4.01s-7.23 1.3-9.85 4c-2.62 2.61-3.92 5.92-3.92 9.92s1.3 7.32 3.91 10.02c2.61 2.61 5.92 3.91 9.84 3.91Zm16.81-30.23c4.26 4.44 6.35 9.84 6.35 16.28 0 6.36-2.09 11.84-6.36 16.29 -4.27 4.44-9.33 6.62-15.34 6.62 -6.63 0-11.68-2.44-15.25-7.41v6.27h-9.41V2.58h9.4v23.6c3.57-4.88 8.62-7.32 15.24-7.32 6 0 11.06 2.17 15.33 6.62Zm31.97 30.05c3.83 0 7.05-1.31 9.67-3.92 2.61-2.62 3.91-5.93 3.91-9.85s-1.31-7.24-3.92-9.85c-2.62-2.62-5.84-3.93-9.68-3.93s-7.06 1.3-9.68 3.92c-2.62 2.61-3.92 5.92-3.92 9.84 0 3.91 1.3 7.23 3.91 9.84 2.61 2.61 5.83 3.91 9.67 3.91Zm-16.3 2.52c-4.45-4.45-6.71-9.85-6.71-16.3 0-6.45 2.26-11.85 6.7-16.3 4.44-4.45 9.92-6.63 16.29-6.63 6.44 0 11.84 2.17 16.29 6.62 4.44 4.44 6.7 9.84 6.7 16.29 0 6.44-2.27 11.84-6.71 16.29 -4.45 4.44-9.85 6.62-16.3 6.62 -6.37 0-11.85-2.18-16.3-6.63Zm64.89-2.53c3.83 0 7.05-1.31 9.67-3.92 2.61-2.62 3.91-5.93 3.91-9.85s-1.31-7.24-3.92-9.85c-2.62-2.62-5.85-3.93-9.68-3.93 -3.84 0-7.06 1.3-9.68 3.92 -2.62 2.61-3.92 5.92-3.92 9.84 0 3.91 1.3 7.23 3.91 9.84 2.61 2.61 5.83 3.91 9.67 3.91Zm-16.3 2.52c-4.45-4.45-6.71-9.85-6.71-16.3 0-6.45 2.26-11.85 6.7-16.3 4.44-4.45 9.93-6.63 16.29-6.63 6.44 0 11.84 2.17 16.29 6.62 4.44 4.44 6.7 9.84 6.7 16.29 0 6.44-2.27 11.84-6.71 16.29 -4.45 4.44-9.85 6.62-16.3 6.62 -6.36 0-11.85-2.18-16.3-6.63Zm65.07-2.36c3.91 0 7.23-1.31 9.84-3.92 2.61-2.71 3.91-6.02 3.91-10.03s-1.31-7.32-3.92-9.93c-2.62-2.71-5.93-4.01-9.85-4.01s-7.23 1.3-9.85 4c-2.62 2.61-3.92 5.92-3.92 9.92s1.3 7.32 3.91 10.02c2.44 2.44 5.51 3.74 9.11 3.9l.72.01ZM333.02 20h9.4v60.98h-9.41V57.37c-3.58 4.87-8.63 7.31-15.25 7.31 -6.02 0-11.07-2.18-15.34-6.63 -4.27-4.45-6.36-9.85-6.36-16.3 0-6.36 2.08-11.76 6.35-16.21 4.26-4.45 9.32-6.71 15.33-6.71 6.62 0 11.67 2.43 15.24 7.4v-6.28Zm37.63 35.71c3.91 0 7.22-1.31 9.84-3.92 2.61-2.71 3.91-6.02 3.91-10.03s-1.31-7.32-3.92-9.93c-2.62-2.71-5.93-4.01-9.85-4.01s-7.24 1.3-9.85 4c-2.62 2.61-3.92 5.92-3.92 9.92s1.3 7.32 3.91 10.02c2.44 2.44 5.51 3.74 9.11 3.9l.72.01Zm13.76-35.72h9.4v43.55h-9.41v-6.28c-3.58 4.96-8.63 7.4-15.25 7.4 -6.02 0-11.07-2.18-15.34-6.63 -4.27-4.45-6.36-9.94-6.36-16.3 0-6.45 2.08-11.85 6.35-16.29 4.26-4.45 9.32-6.63 15.33-6.63 6.62 0 11.67 2.43 15.24 7.31v-6.19Zm40.07 35.71c3.91 0 7.22-1.31 9.84-3.92 2.61-2.71 3.91-6.02 3.91-10.03s-1.31-7.32-3.92-9.93c-2.62-2.71-5.93-4.01-9.85-4.01s-7.23 1.3-9.85 4c-2.62 2.61-3.92 5.92-3.92 9.92s1.3 7.32 3.91 10.02c2.61 2.61 5.92 3.91 9.84 3.91Zm16.81-30.23c4.26 4.44 6.35 9.84 6.35 16.28 0 6.36-2.09 11.84-6.36 16.29 -4.27 4.44-9.33 6.62-15.34 6.62 -6.62 0-11.68-2.44-15.25-7.41v6.27h-9.41V2.53h9.4v23.6c3.57-4.88 8.62-7.32 15.24-7.32 6.01 0 11.06 2.17 15.33 6.62Zm11.41 38.06h9.4V-.07h-9.41v63.59Zm49.74-25.44c-1.31-7.06-6.28-10.72-12.46-10.72 -6.97 0-11.85 4.09-13.16 10.71h25.61Zm-25.53 7.66c1.39 6.62 6.7 10.28 13.93 10.28 4.96 0 8.71-1.84 11.23-5.41l7.75 4.52c-4.27 6.36-10.63 9.49-19.08 9.49 -7.06 0-12.81-2.18-17.17-6.45 -4.36-4.36-6.54-9.85-6.54-16.47 0-6.54 2.17-11.94 6.44-16.3 4.26-4.45 9.84-6.63 16.55-6.63 6.35 0 11.58 2.26 15.67 6.7s6.18 9.92 6.18 16.29c0 .96-.09 2.26-.35 3.91h-34.68Z"/></svg>