<svg viewBox="0 0 256 135" xmlns="http://www.w3.org/2000/svg"><path fill="#1D1D1B" d="M241.24 119.03c-4.8 5.4-13.91 3.93-29.14-4.49 -8.81-4.81-18.44-11.33-28.62-18.22l-3.92-2.63c-6.23-4.19-12.67-8.51-18.85-12.31 -1.62-.98-3.24-1.94-4.73-2.8l-3.15-1.75c-3.44-1.91-6.41-3.38-8.89-4.42 -.51-.24-1.01-.46-1.63-.71v-.01c-.96-.42-1.91-.83-2.87-1.22l-.55-.33h-.25c-16.51-6.66-33.95-10.03-51.9-10.03 -14.65 0-28.87 2.27-42.5 6.66 24.5-22.71 55.58-43.82 66.6-50.23 4.75-2.78 10.63-4.25 17-4.25 6.39 0 12.57 1.51 17.4 4.27 26.5 15.11 93.68 66.53 98.05 93.31l0 .03c.62 3.73-.07 6.67-2.14 9M21.8 121.68c-3.06 0-5.28-.89-6.97-2.78 -2.21-2.49-2.97-5.63-2.35-9.6 .24-1.57.73-3.28 1.47-5.12 .04-.14.12-.29.18-.43 .32-.8.67-1.61 1.09-2.44 .15-.33.36-.67.53-1 .35-.69.7-1.36 1.11-2.07l.38-.64c.02-.05.06-.11.09-.16 3.02-5.07 7.78-9.29 13.75-12.22 17.35-8.51 36.04-12.83 55.55-12.83 7.06 0 14.04.57 20.89 1.71 -.28.12-.57.28-.84.42 -.89.43-1.79.88-2.7 1.35 -.49.25-.98.5-1.47.76 -.92.49-1.85 1-2.79 1.52 -.47.25-.92.5-1.38.76 -1.22.69-2.45 1.41-3.69 2.15 -.27.15-.53.3-.79.46 -1.29.77-2.59 1.57-3.9 2.38 -.59.36-1.18.74-1.77 1.11 -.85.53-1.7 1.07-2.55 1.62 -.66.42-1.33.85-1.99 1.27 -.8.52-1.6 1.03-2.39 1.56 -.68.44-1.35.87-2.02 1.32 -.82.54-1.65 1.08-2.46 1.63 -.67.44-1.34.88-2 1.32 -1.35.89-2.69 1.79-4.03 2.69 -18.56 12.34-37.75 25.11-49.09 25.11m233.7-13.85c-5.8-35.31-83.73-90.43-104.15-102.08 -6.68-3.81-15.04-5.9-23.55-5.9 -8.56 0-16.6 2.04-23.24 5.92 -15.79 9.17-66.69 44.13-91.11 75.59 -2.5 3.21-4.67 6.32-6.45 9.24l-.45.71C2.91 97.06.84 102.3.08 107.2c-1.21 7.61.62 14.44 5.31 19.74 4.05 4.54 9.66 6.94 16.23 6.94 15.09 0 34.93-13.22 56.27-27.42 17.33-11.6 38.89-26.02 49.9-26.02 1.73 0 3.95.45 6.6 1.34l.68.23c.58.2 1.18.43 1.78.66l1.79.77c2.26.94 4.84 2.23 8.14 4.05 .38.21.77.43.89.48 .23.13.47.25.75.39l1 .58c1.5.86 3.03 1.77 4.53 2.68 5.92 3.62 12.25 7.87 18.37 11.98l3.87 2.59c10.44 7.06 20.3 13.74 29.6 18.81 11.26 6.22 19.98 9.11 27.42 9.11 6.95 0 12.65-2.45 16.93-7.28 4.59-5.18 6.34-11.84 5.09-19.3"/></svg>