<svg viewBox="0 0 256 204" xmlns="http://www.w3.org/2000/svg"><path fill="#7E13F8" d="M53.17 0C38.56 0 27.75 12.78 28.23 26.65c.46 13.32-.14 30.57-4.49 44.64C19.38 85.4 12.01 94.33-.02 95.48v12.95c12.03 1.14 19.4 10.08 23.75 24.19 4.34 14.06 4.94 31.32 4.48 44.64 -.49 13.86 10.32 26.65 24.93 26.65h149.67c14.6 0 25.41-12.79 24.92-26.66 -.47-13.33.13-30.58 4.48-44.65 4.35-14.12 11.7-23.05 23.74-24.2V95.44c-12.04-1.15-19.39-10.09-23.75-24.2 -4.35-14.07-4.95-31.33-4.49-44.65 .48-13.87-10.33-26.66-24.93-26.66H53.1h0Zm120.38 125.53c0 19.09-14.25 30.67-37.88 30.67H95.44c-2.4 0-4.34-1.95-4.34-4.34v-99.8c0-2.4 1.94-4.34 4.33-4.34h39.99c19.7 0 32.63 10.67 32.63 27.06 0 11.5-8.7 21.8-19.79 23.6v.6c15.08 1.65 25.24 12.1 25.24 26.53Zm-42.26-64.05h-22.94v32.39h19.31c14.93 0 23.17-6.02 23.17-16.77 0-10.08-7.09-15.64-19.56-15.64v0Zm-22.94 45.25v35.7h23.78c15.54 0 23.78-6.24 23.78-17.97 0-11.73-8.47-17.75-24.79-17.75h-22.79v0Z"/></svg>