<svg viewBox="0 0 256 256" xmlns="http://www.w3.org/2000/svg" xmlns:xlink="http://www.w3.org/1999/xlink"><defs><mask id="a"><use fill="#FFF" xlink:href="#r"/></mask><mask id="b"><use fill="#FFF" xlink:href="#r"/></mask><mask id="c"><use fill="#FFF" xlink:href="#r"/></mask><mask id="d"><use fill="#FFF" xlink:href="#r"/></mask><mask id="e"><use fill="#FFF" xlink:href="#r"/></mask><mask id="f"><use fill="#FFF" xlink:href="#r"/></mask><mask id="g"><use fill="#FFF" xlink:href="#r"/></mask><mask id="h"><use fill="#FFF" xlink:href="#r"/></mask><mask id="i"><use fill="#FFF" xlink:href="#r"/></mask><mask id="j"><use fill="#FFF" xlink:href="#r"/></mask><mask id="k"><use fill="#FFF" xlink:href="#r"/></mask><mask id="l"><use fill="#FFF" xlink:href="#r"/></mask><mask id="m"><use fill="#FFF" xlink:href="#r"/></mask><mask id="n"><use fill="#FFF" xlink:href="#r"/></mask><mask id="o"><use fill="#FFF" xlink:href="#r"/></mask><mask id="p"><use fill="#FFF" xlink:href="#r"/></mask><mask id="q"><use fill="#FFF" xlink:href="#r"/></mask><path id="r" d="M256 9.14c0-5.05-4.1-9.15-9.15-9.15H9.13C4.08-.01-.02 4.08-.02 9.13v237.71c0 5.04 4.09 9.14 9.14 9.14h237.71c5.04 0 9.14-4.1 9.14-9.15V9.11"/></defs><use fill="#1F5296" xlink:href="#r"/><path mask="url(#a)" fill="#4BA2D9" d="M9.14 0h237.71c5.04 0 9.14 4.09 9.14 9.14v109.71c0 5.04-4.1 9.14-9.15 9.14H9.12c-5.05 0-9.15-4.1-9.15-9.15V9.12c0-5.05 4.09-9.15 9.14-9.15"/><path mask="url(#b)" fill="#1F5296" d="M9.14 128h237.71c5.04 0 9.14 4.09 9.14 9.14v109.71c0 5.04-4.1 9.14-9.15 9.14H9.12c-5.05 0-9.15-4.1-9.15-9.15V137.12c0-5.05 4.09-9.15 9.14-9.15"/><path mask="url(#c)" fill="#356EB6" d="M54.85 54.85l73.14 73.14 -73.15 73.14 -73.15-73.15 73.14-73.15"/><path mask="url(#d)" fill="#FFF" d="M54.85 205.02l-77.03-77.03 77.02-77.03 77.02 77.02L54.83 205v0Zm-69.27-77.03l69.26 69.26 69.26-69.27 -69.27-69.27 -69.27 69.26v0Z"/><path mask="url(#e)" fill="#356EB6" d="M201.14 54.85l73.14 73.14 -73.15 73.14 -73.15-73.15 73.14-73.15"/><g fill="#FFF"><path mask="url(#f)" d="M201.14 205.02l-77.03-77.03 77.02-77.03 77.02 77.02L201.12 205v0Zm-69.27-77.03l69.26 69.26 69.26-69.27 -69.27-69.27 -69.27 69.26v0Z"/><path mask="url(#g)" d="M53.94-19.2h2.19v294.4h-2.2V-19.2Z"/><path mask="url(#h)" d="M127.08-19.2h2.19v294.4h-2.2V-19.2Z"/><path mask="url(#i)" d="M200.22-19.2h2.19v294.4h-2.2V-19.2Z"/></g><path mask="url(#j)" fill="#1F5296" d="M54.85 32C67.47 32 77.7 42.23 77.7 54.85c0 12.62-10.24 22.85-22.86 22.85 -12.63 0-22.86-10.24-22.86-22.86 0-12.63 10.23-22.86 22.85-22.86"/><path mask="url(#k)" fill="#FFF" d="M54.85 82.28c-15.13 0-27.43-12.31-27.43-27.43 0-15.13 12.3-27.43 27.42-27.43 15.12 0 27.42 12.3 27.42 27.42 0 15.12-12.31 27.42-27.43 27.42v0Zm0-45.72c-10.09 0-18.29 8.2-18.29 18.28 0 10.08 8.2 18.28 18.28 18.28 10.08 0 18.28-8.21 18.28-18.29 0-10.09-8.21-18.29-18.29-18.29v0Z"/><path mask="url(#l)" fill="#1F5296" d="M201.14 32c12.62 0 22.85 10.23 22.85 22.85 0 12.62-10.24 22.85-22.86 22.85 -12.63 0-22.86-10.24-22.86-22.86 0-12.63 10.23-22.86 22.85-22.86"/><path mask="url(#m)" fill="#FFF" d="M201.14 82.28c-15.13 0-27.43-12.31-27.43-27.43 0-15.13 12.3-27.43 27.42-27.43 15.12 0 27.42 12.3 27.42 27.42 0 15.12-12.31 27.42-27.43 27.42v0Zm0-45.72c-10.09 0-18.29 8.2-18.29 18.28 0 10.08 8.2 18.28 18.28 18.28 10.08 0 18.28-8.21 18.28-18.29 0-10.09-8.21-18.29-18.29-18.29v0Z"/><path mask="url(#n)" fill="#4BA2D9" d="M54.85 178.28c12.62 0 22.85 10.23 22.85 22.85 0 12.62-10.24 22.85-22.86 22.85 -12.63 0-22.86-10.24-22.86-22.86 0-12.63 10.23-22.86 22.85-22.86"/><path mask="url(#o)" fill="#FFF" d="M54.85 228.57c-15.13 0-27.43-12.31-27.43-27.43 0-15.13 12.3-27.43 27.42-27.43 15.12 0 27.42 12.3 27.42 27.42 0 15.12-12.31 27.42-27.43 27.42v0Zm0-45.72c-10.09 0-18.29 8.2-18.29 18.28 0 10.08 8.2 18.28 18.28 18.28 10.08 0 18.28-8.21 18.28-18.29 0-10.09-8.21-18.29-18.29-18.29v0Z"/><path mask="url(#p)" fill="#4BA2D9" d="M201.14 178.28c12.62 0 22.85 10.23 22.85 22.85 0 12.62-10.24 22.85-22.86 22.85 -12.63 0-22.86-10.24-22.86-22.86 0-12.63 10.23-22.86 22.85-22.86"/><path mask="url(#q)" fill="#FFF" d="M201.14 228.57c-15.13 0-27.43-12.31-27.43-27.43 0-15.13 12.3-27.43 27.42-27.43 15.12 0 27.42 12.3 27.42 27.42 0 15.12-12.31 27.42-27.43 27.42v0Zm0-45.72c-10.09 0-18.29 8.2-18.29 18.28 0 10.08 8.2 18.28 18.28 18.28 10.08 0 18.28-8.21 18.28-18.29 0-10.09-8.21-18.29-18.29-18.29v0Z"/></svg>