<svg viewBox="0 0 256 252" xmlns="http://www.w3.org/2000/svg"><defs><linearGradient id="a" x1="46.645%" x2="57.362%" y1="-2.089%" y2="137.781%"><stop offset="0%" stop-color="#FF992E"/><stop offset="63.5%" stop-color="#FF4C2E"/><stop offset="100%" stop-color="#E3302E"/></linearGradient></defs><path fill="#E5D1BF" d="M51.53 251.61c-15.04 0-27.75-11.59-29.86-26.32C21.44 223.18.61 34.73.61 32.62c-.23-.53-.53-1.06-.53-1.58l.05-6.32c0-5.27 2.05-10.53 6.26-13.69C9.89 6.29 17.97-.03 127.98-.03c109.76 0 117.91 6.31 121.59 11.05 3.7 3.68 5.79 8.42 5.79 14.21l-.08 5.26c0 1.05.07 1.57-.46 2.63l-22.36 192.13c0 .52-.28 1.05-.28 1.57 -2.74 14.21-15.27 24.74-29.48 24.74H51.47v0Z"/><path fill="#FEF9EC" d="M247.55 24.95c0-3.69-1.48-6.85-3.59-8.95 -5.44-6.32-55.28-8.43-116.34-8.43 -60.82 0-110.55 1.57-116.34 7.89 -2.14 2.63-3.69 5.26-3.69 8.94l.05 5.79c0 .52-.06 1.05.47 1.57 -.23.52 21.05 192.13 21.05 192.13 1.52 11.05 11.05 19.47 22.1 19.47h151.12c11.53 0 21-8.43 22.05-19.48h.25l22.55-192.14v-1.58 -5.27h.25v0Z"/><path fill="#E5D1BF" d="M127.1 17.58a105.8 5.79 0 1 0 0 11.58 105.8 5.79 0 1 0 0-11.59Z"/><path fill="url(#a)" d="M213.96 205.5c-.26 6.84-5.27 12.1-12.11 12.1H52.27c-6.52 0-11.51-5.27-12.04-12.11 -1.01-17.9-7.37-71.59-7.37-71.59 -.16-4.74 2.1-7.37 7.36-7.37h173.7c4.76 0 7.36 2.63 7.36 7.36 .15 0-6.85 53.69-7.37 71.58v0 0Z"/><g fill="#FEF9EC"><path opacity=".65" d="M97.15 136.33c-3.01 3.68-2.31 9.47 1.9 12.63l32.68 25.79c4.01 2.63 9.95 2.1 12.58-2.11l25.51-33.17c3-3.69 2.38-9.48-1.83-12.64l-32.77-25.8c-4.02-2.64-9.88-2.11-13.04 2.1l-25.07 33.16v0Z"/><path opacity=".65" d="M65.82 112.12c-5.02.52-8.35 5.26-7.83 10l5.31 41.58c.75 5.26 5.21 8.42 10.47 7.89l40.9-5.27c5.01-1.06 8.57-5.27 7.51-10.53l-5.02-41.59c-.76-4.74-5.52-8.43-10.26-7.37l-41.14 5.26v0Z"/></g></svg>