<svg viewBox="0 0 512 277" xmlns="http://www.w3.org/2000/svg"><path fill="#0061D5" d="M507.48 245.43c6.39 8.94 5.11 20.45-2.56 26.84 -8.95 6.39-21.74 5.11-28.13-2.56l-44.75-57.53 -43.47 56.24c-6.4 8.94-19.18 8.94-28.13 2.55 -8.95-6.4-10.23-17.9-3.84-26.85l51.13-66.48 -51.14-66.48c-6.4-8.95-3.84-21.74 3.83-28.13 8.94-6.4 21.73-3.84 28.12 3.83L432 144.38l44.74-54.97c6.39-8.95 17.89-10.23 28.12-3.84 8.94 6.39 8.94 19.17 2.55 28.12l-49.86 65.19 49.85 66.47v0Zm-232.66-7.67c-33.24 0-60.09-25.57-60.09-58.81 0-31.96 26.84-58.81 60.08-58.81 33.23 0 60.08 26.84 60.08 58.8 -1.28 33.23-28.13 58.8-60.09 58.8Zm-176.41 0c-33.24 0-60.09-25.57-60.09-58.81 0-31.96 26.84-58.81 60.08-58.81 33.23 0 60.08 26.84 60.08 58.8 0 33.23-26.85 58.8-60.09 58.8ZM274.81 81.8c-37.08 0-70.31 20.45-86.93 51.13 -16.62-30.68-49.86-51.14-88.21-51.14 -23.01 0-43.47 7.66-60.09 19.17V19.14C39.58 8.91 30.63-.04 20.4-.04 8.89-.04-.06 8.9-.06 19.13v161.06c1.27 53.68 44.74 95.87 98.42 95.87 38.34 0 71.58-21.74 88.2-52.42 16.61 30.67 49.85 52.41 86.92 52.41 54.96 0 99.7-43.47 99.7-98.43 1.27-52.42-43.47-95.88-98.43-95.88Z"/></svg>