<svg viewBox="0 0 256 241" xmlns="http://www.w3.org/2000/svg"><path fill="#40D1F5" fill-rule="evenodd" d="M0 240.87h209.07v-31.81H31.8V31.79h177.35v116.37h-15.21l30.98 31.06 31.06-31.07h-15.13V-.03H-.03v240.87ZM80.62 51.35c4.1-.66 8.79-1.16 14.21-1.57 5.42-.42 12.08-.58 20.13-.58 6.98 0 13.64.57 19.88 1.72 6.24 1.15 11.75 3.12 16.35 5.83 4.68 2.79 8.3 6.41 11.01 11.01 2.71 4.6 4.02 10.35 4.02 17.25 0 4.1-.58 7.88-1.81 11.42 -1.24 3.53-2.88 6.57-4.85 9.2 -2.06 2.62-4.36 4.76-6.91 6.49 -2.55 1.72-5.18 2.79-7.81 3.12 2.95.41 6.16 1.31 9.77 2.71 3.53 1.39 6.9 3.45 9.94 6.24 3.04 2.71 5.67 6.32 7.64 10.6 2.05 4.35 3.04 9.53 3.04 15.69 0 8.3-1.57 15.12-4.69 20.38 -3.13 5.34-7.32 9.45-12.66 12.57 -5.26 3.04-11.43 5.17-18.41 6.32 -6.99 1.15-14.3 1.72-21.95 1.72 -5.92 0-11.67-.17-17.43-.5 -5.76-.33-12.25-.91-19.56-1.81V51.25Zm27.77 116.86v-39.86h11.5c3.94 0 7.56.32 10.84.98 3.28.65 6.08 1.72 8.46 3.36 2.38 1.56 4.19 3.69 5.42 6.32 1.23 2.62 1.89 5.91 1.89 9.86 0 4.19-.83 7.64-2.47 10.27 -1.65 2.62-3.79 4.68-6.33 6.16 -2.55 1.47-5.35 2.46-8.22 2.95 -2.96.49-5.76.73-8.47.73 -1.9 0-4.03-.09-6.42-.17 -2.39-.17-4.44-.42-6.25-.66m8.46-60.9h-8.47V70.43c2.46-.42 5.42-.58 9.04-.58 2.54 0 5.17.24 7.72.65 2.62.49 5.01 1.31 7.06 2.71 2.13 1.31 3.86 3.2 5.17 5.58s1.97 5.42 1.97 9.12c0 3.86-.58 6.98-1.73 9.53 -1.16 2.46-2.72 4.43-4.77 5.91 -2.06 1.47-4.44 2.46-7.24 3.04 -2.63.49-5.59.82-8.8.82"/></svg>