<svg viewBox="0 0 512 237" xmlns="http://www.w3.org/2000/svg"><path fill="#212124" d="M511.25 140.3s-5.07-7.1-6.63-9.13c-1.09-1.33-2.42-2.89-5.85-.55 -7.71 5.14-16.36 9.89-27.03 9.89 -8.19 0-15.27-2.11-20.57-6.63 2.26-1.02 4.59-2.11 6.93-3.44 12.62-6.79 23.13-15.52 28.2-20.59 24.54-24.57 16.9-61.22-13.09-61.22 -28.29 0-50.56 27.52-50.56 58.18 0 4.59.53 11.22 2.48 18.16 -1.64.78-12.86 6.24-26.26 13.64 -12.63-9.44-32.26-5.23-32.26-5.23 18.22-25.98 45.73-66.45 48.07-69.8 1.71-2.43 1.4-4.77-.24-8.51 -2.11-4.53-4.21-5.31-7.02-5.31h-57.11c-1.87 0-3.35.85-3.9 2.96 -.55 2.1-1.72 9.35-1.95 11.77 -.24 2.49 2.1 4.05 4.51 4.05h41.36l-37.4 53.57c-.24.23-.47.46-.71.78 -5.45 7.87-13.79 18.87-23.76 18.87 -6.24 0-13.95-4.45-13.95-19.04 0-14.27 5.76-44.46 9.97-68.01 .46-2.5-.39-5-4.45-5H309.9c-2.34 0-3.67 1.4-3.98 3.43 -.63 3.58-1.25 7.09-1.8 10.52 -4.99-9.6-13.01-15.06-24.55-15.06 -10.76 0-21.2 3.98-29.76 12.55 -21.36 21.36-17.31 56.23-35.76 74.71 -7.96 7.95-16.92 5.53-16.92-10.14 0-17.86 6.85-37.83 14.65-56.7 1.39-3.36-.09-6.17-1.57-8.27 -2.11-3.05-2.89-4.61-6.62-4.61 -5.85 0-15.12 3.67-33.74 3.67 -3.98 0-7.72-.17-11.15-.4 .23-2.81.23-4.68.32-5.39 .15-2.66-.79-4.3-3.59-4.3h-9.51c-3.43 0-4.29 1.64-4.68 4.37 -1.64 11.38-4.68 53.26-25.71 74.24 -2.42 2.41-3.9 3.19-3.9 3.19 5.22-10.23 8.02-23.64 8.02-34.32 0-29.95-17.69-48.51-39.97-48.51 -6.78 0-13.95 2.17-20.73 6.38 3.11-18.25 5.99-35.33 7.01-41.1 .85-4.92-.86-7.41-2.18-9.44 -2.12-3.27-3.98-4.76-6.79-4.76H24.11c-1.88 0-3.27 1.32-3.75 3.43 -.55 2.41-1.72 8.81-1.87 11.77 -.17 2.57 1.63 3.58 3.73 3.58h23.99c-3.82 23.56-11.14 69.18-13.33 80.64 -2.8 14.58-13.17 32.44-30.61 38.84 -2.18.78-3.04 2.8-2.27 5.15 .78 2.33 3.81 8.41 4.75 9.97 .93 1.64 2.96 2.65 4.83 2.03 9.03-3.21 17.36-8.35 23.91-14.9 1.63-1.64 3.19-3.43 4.67-5.39 7.78 17.62 23.83 24.02 40.11 24.02 18.46 0 38.41-6.48 52.43-20.45 16.36-16.38 23.13-43.37 26.09-62.54 4.04.53 8.65 1 13.09 1 11.21 0 20.64-2.42 20.64-2.42s-11.3 30.1-11.3 52.25c0 25.03 11.99 32.12 25.16 32.12 13.62 0 23.21-10.22 29.98-22.93 1.79 3.97 4.44 8.65 8.02 12.23 6.15 6.16 13.78 10.68 24.84 10.68 12.62 0 23.45-7.26 31.16-18.48 1.39 4.75 3.5 8.65 6.38 11.53 3.88 3.9 11.05 6.94 19.94 6.94 15.34 0 24.3-11.55 48.22-11.55 3.03 0 5.76.46 8.25 1.32 -10.99 6.7-21.43 13.87-27.81 20.27 -19.72 19.73-20.66 45.78-7.72 58.72 15.73 15.75 38.01 7.79 52.03-6.17 16.35-16.38 21.11-47.34 11.68-68.48 11.45-6.01 21.03-10.45 23.29-11.55 7.17 9.74 19.01 17.39 38.48 17.39 13.94 0 28.04-4.92 39.02-13.26 1.56-1.49 1.94-3.91.7-5.62l-.01-.01Zm-423.1-6.71c-4.45 4.44-9.9 6.86-15.43 6.86 -5.14 0-9.58-2.34-13.33-6.09 -12.63-12.63-11.54-43.75 4.75-60.05 4.59-4.61 10.2-7.26 15.89-7.26 5.13 0 9.57 2.26 13.32 6 11.84 11.93 12.53 42.73-5.23 60.52h0Zm180.5 6.78c-13.64 0-22.52-16.46-19.8-36.74 2.72-20.28 15.97-36.73 29.6-36.73 12.62 0 21.19 14.11 20.26 32.28 -.4 2.64-.71 5.14-.94 7.63 -3.67 18.8-16.22 33.53-29.14 33.53Zm113.5 71.43c-17.84 17.85-40.59-4.92-14.03-31.52 6-6.01 15.89-12.63 26.18-18.72 5.83 14.5 1.24 36.8-12.16 50.22Zm71.59-137.11c13.39-13.42 28.28-9.44 28.28 3.58 0 12.71-15.2 26.43-33.58 37.04 -1.8 1.01-3.91 2.17-6.01 3.27 -.71-3.2-1.09-6.71-1.09-10.69 -.08-10.92 4.51-25.35 12.38-33.23v0Z"/></svg>