<svg viewBox="0 0 256 256" xmlns="http://www.w3.org/2000/svg"><path fill="#EA3" d="M94.87 251.6C26.6 233.3-13.91 163.13 4.38 94.87 22.67 26.6 92.84-13.91 161.1 4.38c68.26 18.29 108.77 88.46 90.48 156.72 -18.3 68.26-88.47 108.77-156.73 90.48Z"/><g fill="#FFF"><path d="M101.6 226.5c-13.61-3.65-12.81-50.7 1.76-105.1 14.57-54.41 37.41-95.55 51.01-91.91 13.6 3.64 12.8 50.69-1.77 105.09 -14.58 54.4-37.42 95.54-51.02 91.9Z"/><path d="M176.36 193.74c-6.81-1.83-6.41-25.35.88-52.55 7.28-27.21 18.7-47.78 25.5-45.96 6.8 1.82 6.4 25.34-.89 52.54s-18.71 47.77-25.51 45.95Z"/><path d="M53.24 160.75c-6.81-1.83-6.41-25.35.88-52.55 7.28-27.21 18.7-47.78 25.5-45.96 6.8 1.82 6.4 25.34-.89 52.54s-18.71 47.77-25.51 45.95Z"/></g></svg>