<svg viewBox="0 0 256 216" xmlns="http://www.w3.org/2000/svg"><path fill="#3C6991" d="M110.58 0c-4.43.08-9.97 2.84-13.93 1.88 -1.59-.39-3.52-.55-5.41-.45 -.04 0-.07-.01-.11 0 -1.93.11-3.81.51-5.19 1.36 -.06.03-.13.06-.19.1 -.06.08-.12.15-.19.22 -1.84 1.83-5.91 2-7.8 3.89 -1.55 1.54-2.98 4.5-4.69 7.15 -.02.02-.03.05-.05.08C66.95 21.3 62.1 30 60.39 37.12c-1.41 5.84-1.39 13.74-3.7 19.55 -.65 1.62-3.33 10.63-1.25 12.38 1.41 1.19 7.45 2.1 9.22 0 .95-1.14 9.7-3.97 12.44-7.22 3.22-3.83 4.88-10.44 7.09-16 .35-.89.8-1.83 1.32-2.76 1.25 2.42 2.24 4.41 2.77 5.62 1.09 2.53 2.29 6.04 3.29 9.78 -2.17 3.31-1.27 7.85.3 9.92 -6.34 1.97-3.32 8.78-3.56 9.02 -.42.41-1.74.97-2.28 1.5 -.67.66-.77 2.03-.77 3.03 0 .96.12 1.81.3 2.57 -5.77 14.49-11.2 32.63-18.08 42.41 -1.98.9-4.01 1.67-6.38 2.15 -4.62 1.15-16.3 3.44-26.14 6.75 -.43.56-.93 1.12-1.49 1.68 -.98.97-2.93.97-3.9 1.94 -.76.75-3.13-.1-3.88.66 -2.25 2.24-5.57 3.41-9.11 5.18 -.4.19-1.65-.31-1.95 0 -1.61 1.6-4.49 2.53-5.85 3.89 -2.68 2.67-4.92 5.57-7.8 8.46 -2.87 2.86 2.97 10.75 3.89 11.67 2.7 2.7 7.68 3.14 10.39 5.84 1.13 1.13 4.95-.39 6.33.52 .35.04.67.11.88.22 3.99 1.99 11.81 3.47 16.54 5.04 6.51 2.17 11.67 7.96 18.39 9.64 5.11 1.27 10.91 1.95 16.08 3.67 2.15.71 4.77.22 6.87.92 3.92 1.3 7.46 2.92 11.03 4.12 1.23.41 2.87-.32 4.14 0 2.85.71 5.93.92 8.72 1.84 4.96 1.65 11.58-1.66 16.54 0 3.27 1.09 23.62-.66 25.26-2.3 1.2-1.21 5.78.32 7.35-.47 1.36-.69 5.52-.02 6.43-.93 2.35-2.36 7.18-2.46 10.55-4.15 1.41-.71 3.59.27 5.06-.47 .84-.43 2.56.09 4.42.9 3.54-.08 6.26-.45 9.8-.45 4.21 0 10.02-2 16.18-5.03 6.81-1.54 15.14-3.31 15.53-3.7 2.96-2.97 10.83-2.11 13.76-5.05 2.08-2.09 4.75-2.93 6.89-5.07 1.9-1.91 4.52-4.1 7.27-6.4 .47-1.34 1.7-2.59 2.83-3.72 .47-.48 3.82-10.27 3.21-11.48 -1.11-2.22-2.94-4.05-5.05-5.75 -.66-.23-1.16-.46-1.39-.69 -2.26-2.26-7.65-2.61-9.65-4.61 -3.23-3.23-8.07-6.12-13.85-8.07 -1.22-.61-2.35-1.24-3.16-2.06 -1.03-1.03-6.99-2.35-8.73-3.22 -.94-.47-2.98.25-3.68-.45 -1.7-1.7-8.82-2.91-13.95-4.55 -.75.04-1.96-.53-2.18-.75 -.16-.16-4.14-.75-5.45-2.06 -.15-.15-.69-5.49-.69-6.16 0-.25-.6-1.24-.25-1.59 .05-.06.1-.12.16-.19 -2.38-14.66-4.2-30.84-5.91-32.29 -2.55-2.15-3.96-13.97-6.76-16.33 -2.93-2.47-4.76-5.16-7.02-7.26 -.01-.01 0-.02 0-.03 -.86-4.68-2.47-9.93-2.98-10.36 -.83-.7.42-3.87-.41-4.57 -2.59-2.18-5.95-14.95-8.37-16.99 -3.17-2.67-4.73-6.82-7.74-9.35 -7.44-6.27-19.8-15.59-33.45-14.88 -.59-.17-1.16-.37-1.71-.59 -.87-.35-1.86-.47-2.88-.45v-.01Z"/><g stroke-width="1.179" stroke-opacity="0" stroke="#FFF" fill="#E6B35A"><path d="M107.63 81.11c-1.15-.21-2.27-.22-3.15.07 -1.47.48-3.83-.67-5.36-.39 -5.79 1.04-10.32 2.61-11.11 4.55 8.58-2.47 18.11 3.03 22.02 8.25 1.62 2.16-.89 5.45 0 8.12 .2.6.36 4.46-.34 4.98 -1.46 1.08-1.31 4.87-2.51 6.6 -2.83 4.07-5.3 7.04-7.7 10.5 -2.48 3.56-9.1 4.28-12.8 5.5 -.82.27-1.85-.3-2.71-.01 -.21.06-.45.07-.68.04 .08.09.17.18.24.27 .31.41 1.83.01 2.27.32 2.87 1.99 14.23 1.22 17.38.18 1.96-.66 3.77-1.62 5.73-2.27 2.51-.84 4.98-4.75 6.79-6.76 6.21-6.93 9.04-18.92 5.97-28.18 -1.55-4.66-5.59-7.45-9.03-9.83 -1.18-.82-3.19-1.69-5.1-2.03l-.01-.01Z"/><path d="M121.48 72.17c-.37-.02-.43 3.6-.46 5.33 -.18.01-.17.22-.12.47 -1.87.82-5.94 2.48-5.62 2.82 .01 0 .01.01.02.02 -.15 0-.31.05-.31.26 -.02.26.53.01.8.02 .43.01 4.21 1.4 5.71 2.03 .18 1.42.73 2.28.73 3.91 0 1.01.2 2.41.26 2.41 .02 0 .06-.04.09-.05 .04.17.09.28.16.21 .29-.28.83-1.02 1.37-1.85 .02-.04.04-.06.07-.1 .95-1.19 2.05-2.71 2.98-4.08 1.81.26 3.47.47 3.88.47 .19 0 7.08 1.18 5.09-.81 -.13-.13-.27-.23-.41-.34 .04-.04.06-.08.07-.12 .01-.39-3.84-2.16-4.46-2.83 -.31-.33-.75-.54-1.05-.86 -.08-.09.07-.33.3-.67v-.03c.53-.6 1.1-1.21 1.51-1.62 .19-.2 1.31-2.28.25-2.15 -.72.09-3.04.23-6.09 1.13 0 0-.83-1.08-.83-1.08 -.67-.28-2.54-2.57-4.06-2.62l0 0Z"/><g stroke-width=".803"><path d="M104.28 71.63c-.22.1-.56.53-.66.31 -.11-.22.87-.43.65-.32 -.66.31-3.19 2.59-2.26 3.31 .76.59 3.61-.52 4.82-.1 .18.06 2.18 3.14 2.5 2.24 .51-1.47-.13-3.97-.11-4.01 .23-.68 2.08-.4 2.54-.62 .37-.19 1.13-.51 1.23-.8 .02-.09.04-.33.08-.25 .03.06-.5-.45-1.14-.67 -.96-.34-1.93-.13-2.61-.37 -.32-.12.06-1.97-.06-2.21 -.38-.79-.62-1.7-.55-1.57 .18.38-.81.37-1.08.72 -.33.42-1.19 1.86-1.75 1.85 -.67-.02-3.34-.65-3.52-.14 -.02.02 1.66 1.68 1.84 2.55l-.01 0Z"/><path d="M130.06 97.51c-.18-.17-.71-.32-.54-.5 .16-.18.71.66.53.49 -.54-.5-3.59-2.03-3.92-.89 -.28.93 1.79 3.17 1.84 4.45 .01.19-2.13 3.18-1.18 3.14 1.55-.06 3.64-1.56 3.69-1.56 .71-.03 1.13 1.79 1.5 2.14 .3.28.87.87 1.19.86 .08-.01.31-.08.25-.02 -.05.05.23-.63.21-1.31 -.04-1.02-.59-1.84-.62-2.57 -.02-.34 1.85-.66 2.03-.86 .59-.64 1.35-1.2 1.25-1.09 -.3.31-.65-.62-1.07-.74 -.52-.16-2.17-.43-2.37-.95 -.24-.63-.62-3.34-1.16-3.32 -.04 0-.97 2.16-1.72 2.64v0Z"/></g><path stroke-width="1" d="M188.69 121.55c-.52 1.78-3.78 7.51-5.15 8.88 -1.77 1.76-3.28 3.6-4.83 5.14 -1.1 1.09-4.23 3.89-5.15 4.82 -2.02 2.01-3.19 1.25-5.47 3.53 -1.13 1.12-3.41 1.15-4.51 2.25 -1 .99-8.98 1.59-10.94 2.57 -.48.23-1.9-.37-2.26 0 -1.41 1.4-12.54 1.92-12.87 2.25 -1.71 1.7-6.24-.26-8.69.96 -2.17 1.08-6.48.32-9.01.32 -1.41 0-5.13-.03-8.97-.13 -.91-.13-1.62-.24-1.65-.21 -.02.01-.11.1-.17.16 -.73-.03-1.42-.06-2.12-.09 -.44-.17-.9-.27-1.27-.09 -.02 0-.05.01-.07.02 -3-.15-5.44-.36-6.06-.67 -2.52-1.26-5.22-1.61-8.37-1.61 -4.92 0-15.81-5.82-19.62-7.72 -.59-.3-2.21-1.99-3.08-2.46 -.01-.34-.02-.65-.15-.77 -.9-.9-1.29-2.9-1.93-4.19 -.27-.54 0-2.49 0-2.26 0 .01.64-2.58.64-2.58 -.56 0-3.44 3.75-4.51 4.82 -.01 0 .02.06.04.12 -.61.83-1.03 2.06-1.03 3.93 0 6.37 3.51 6.71 6.81 10.01 .8.8 2.54.27 3.17.9 .64.64 1.59 1.21 2.71 1.72 -1.41.82-4.11 1.02-4.99 1.9 -.87.86-4.88 3.35-6.38 4.1 -.29.14-1.65.29-1.81.46 -8.5 8.49-18.09 13.98-25.93 21.82 -.67.66-.91 9.28-.91 10.91 0 2.84-.97 5.84.9 7.71 .78.78 3.4.22 4.1.92 .15.15 2.05 1.56 2.27 1.34 .82-.83-.47-5.17-.47-6.36 0-6.22.67-12.49 4.56-16.39 7.5-7.51 18.2-10.94 25-17.73 1.99-2 5.65-3.07 8.32-5.25 -.1.64.01 1.24.48 1.74 .31.33 1.41-.33 1.8-.13 2.67 1.41 10.8 4.45 13.2 1.52 .43.82.77 1.66 1.2 2.09 1.59 1.59.34 9.29-.47 10.91 -3.06 6.11-4.67 23.76-7.28 26.37 -.46.45.54 4.73.9 5.46 .94 1.89-.7 6.12 0 6.81 .68.68.24 2.49.92 3.17 .62.62 3.45-.16 4.08.46 .24.24 3.48 2.44 4.1 1.82 .51-.52-1.41-6.43-1.83-7.28 -.37-.74.98-14.2 1.36-14.58 .53-.54-.54-2.65 0-3.18 1.03-1.04 2.27-22.45 2.27-25.47 0-.52 1.3-3.71.46-4.55 -.01-.01-.76-1.73-1.77-3.4 1.49.11 2.76.29 3.13.66 .66.66 14.12 0 16.36 0 8.88 0 22.86-.69 28.2-1.83 2.12-.46 7.17-.86 10.01-2.28 1.64-.83 7.44-1.39 8.46-1.65 2.16-.56 9.12-2.24 11.07-4.19 1.44-1.45 6.38-6.45 8.2-7.36 2.04-1.03 3.07-4.67 4.28-6.36 .15-1.25 3.51-4.52 2.85-5.83 -.75-3.05-1.22-6.2-2.42-6.32l-.01 0Z"/></g></svg>