<svg viewBox="0 0 256 256" xmlns="http://www.w3.org/2000/svg" xmlns:xlink="http://www.w3.org/1999/xlink"><defs><radialGradient id="a" fr="0%" fx="50.14%" fy="50.003%" cx="50.14%" cy="50.003%" r="50.118%"><stop offset="0%" stop-color="#797979"/><stop offset="100%" stop-color="#4C4C4C"/></radialGradient><path id="b" d="M129.33 60.06a44.76 44.76 0 1 0 0 89.53 44.76 44.76 0 1 0 0-89.54Z"/></defs><path fill="#F5BB60" d="M127.94 1.2a127.39 127.39 0 1 0 0 254.79 127.39 127.39 0 1 0 0-254.8Z"/><path fill="#E86F32" d="M114.96.93a114.68 114.68 0 1 0 0 229.36 114.68 114.68 0 1 0 0-229.37Z"/><path fill="#E53D42" d="M130.16.93a99.48 99.48 0 1 0 0 198.97 99.48 99.48 0 1 0 0-198.98Z"/><path fill="#BFD141" d="M138.17 16.95a91.47 91.47 0 1 0 0 182.94 91.47 91.47 0 1 0 0-182.95Z"/><path fill="#6DB64C" d="M131.54 30.22a84.83 84.83 0 1 0 0 169.67 84.83 84.83 0 1 0 0-169.68Z"/><path fill="#AFDBE7" d="M118 30.49a71.29 71.29 0 1 0 0 142.59 71.29 71.29 0 1 0 0-142.6Z"/><path fill="#57BADF" d="M129.6 30.22a59.69 59.69 0 1 0 0 119.38 59.69 59.69 0 1 0 0-119.39Z"/><path fill="#02B2D6" d="M137.06 44.86a52.5 52.5 0 1 0 0 105.01 52.5 52.5 0 1 0 0-105.02Z"/><use fill="url(#a)" xlink:href="#b"/><use fill="#231F20" xlink:href="#b"/><path fill="#FFF" d="M141.08 98.97c4.43 1.99 10.55-2.02 13.67-8.96 3.11-6.94 2.03-14.18-2.41-16.17 -4.44-2-10.56 2.01-13.68 8.95 -3.12 6.93-2.04 14.17 2.4 16.16v0Z"/></svg>