<svg viewBox="0 0 256 253" xmlns="http://www.w3.org/2000/svg"><path fill="#3F894A" d="M76.27 188.76c-.31-4.09-1.45-8.57-5.97-12.69 0-.01-.01-.01-.03-.02 -.18-.17-.38-.34-.56-.5 -.03-.02-.05-.05-.07-.06 -6.25-5.71-11.25-16.68-11.25-28.33 0-16.24 7.19-62.39 8.74-62.39 1.23 0 1.25 22.25.44 43.18 -.57 14.53 1.58 20.25 5.05 20.25 4.61 0 5.35-14.63 5.83-31.07 .39-13.54 1.57-32.27 2.52-32.38h0c1.47 0 2.69 18.61 3.09 32.18 .48 16.84 1.65 30.83 5.51 30.83 4.05 0 5.28-6.47 4.99-20.84 -.36-17.54-.36-42.19.87-42.19 1.55 0 6.82 16.19 8.1 62.38 .32 11.63-5 22.61-11.25 28.32 -.03.01-.04.04-.07.05 -.19.16-.39.33-.56.49 -.01 0-.03 0-.03.01 -4.52 4.12-5.66 8.59-5.97 12.68 -.49 6.52-.71 14.88-.69 24.3l35.59 35.59c.49-15.52.44-30.15-.24-41.2 -.26-4.13-.89-8.93-1.62-12.75 -.23-1.22-1.01-2.35-1.01-3.32 0-13.39 0-126.2 0-134.48 0-11.48 10.74-16.9 20.62 8.28 9.88 25.17 7.12 114.72 7.12 121.08 0 1.35-1.18 2.94-3.1 4.51 -.77.49-1.44.99-2.09 1.51 -5.92 4.74-6.77 10.22-7.08 15.13 -.74 11.87-1.34 27.9-1.49 44.71l49.05-49.06c-.07-5.77-.23-10.95-.5-15.27 -.11-1.66-.52-3.35-.83-5.12 -.89-5.03-7.12-9.15-10.71-12.76 -7-7.03-11.49-18.83-11.49-32.13 0-21.61 11.97-48.97 26.75-48.97 14.77 0 26.75 27.34 26.75 48.96 0 13.3-4.5 25.11-11.49 32.12 -3.61 3.61-9.83 7.73-10.72 12.75 -.32 1.77-.73 3.45-.83 5.11 -.17 2.59-.29 5.52-.38 8.68l68.53-68.55 -128-128 -128 128 76.9 76.9c-.09-6.1-.3-11.58-.64-16.15Z"/></svg>