<svg viewBox="0 0 512 116" xmlns="http://www.w3.org/2000/svg"><path fill="#262626" d="M221.21 0v43.29c7.82-8.78 18.07-13.25 28.48-13.25 23.66 0 41.72 19.18 41.72 42.84 0 23.66-19.19 42.84-42.85 42.84 -23.43 0-42.47-18.81-42.84-42.14l-.01-.71V-.03h15.48Zm95.96 0v43.29c7.82-8.78 18.07-13.25 28.48-13.25 23.66 0 41.72 19.18 41.72 42.84 0 23.66-19.19 42.84-42.85 42.84 -23.43 0-42.47-18.81-42.84-42.14l-.01-.71V-.03h15.48Zm-182 32.37v47.87c0 12.23 7.09 20.08 19.02 20.08 12.08 0 19.02-7.56 19.02-20.09V32.35h16.76v48.02c0 22.2-13.45 35.34-35.8 35.34 -21.75 0-35.65-13.6-35.65-35.35V32.33h16.61ZM37.32-.01v43.29c7.82-8.78 18.07-13.25 28.48-13.25 23.66 0 41.72 19.18 41.72 42.84 0 23.66-19.19 42.84-42.85 42.84 -23.43 0-42.47-18.81-42.84-42.14l-.01-.71V-.04H37.3ZM472.1 30.4c11.62 0 21.29 3.62 28.69 11.02 7.4 7.4 11.17 17.36 11.17 30.05 0 .22-.01.45-.01.69l-.01.47c-.01.08-.01.16-.01.24l-.02.49c-.07 1.83-.24 3.88-.57 6.09h-63.59c2.41 12.68 11.32 21.29 27.03 21.29 9.21 0 20.38-3.48 27.63-8.76l6.94 12.23c-8.31 6.19-21.45 11.32-35.19 11.32 -30.51 0-43.65-21.3-43.65-42.75 0-12.24 3.77-22.36 11.47-30.36 7.7-8.01 17.82-12.09 30.05-12.09ZM417.32-.02v113.77H400.7V-.03h16.61ZM248.53 46.53c-14.55 0-26.35 11.79-26.35 26.34 0 14.54 11.79 26.34 26.34 26.34 14.54 0 26.34-11.8 26.34-26.35s-11.8-26.35-26.35-26.35Zm95.96 0c-14.55 0-26.35 11.79-26.35 26.34 0 14.54 11.79 26.34 26.34 26.34 14.54 0 26.34-11.8 26.34-26.35s-11.8-26.35-26.35-26.35Zm-279.84 0c-14.55 0-26.35 11.79-26.35 26.34 0 14.54 11.79 26.34 26.34 26.34 14.54 0 26.34-11.8 26.34-26.35s-11.8-26.35-26.35-26.35Zm407.42-1.8c-12.54 0-21.9 8.45-24.32 21.14h47.42c-1.36-12.84-10.88-21.15-23.11-21.15Z"/><path fill="#00F" d="M10.59 94.55c-5.86 0-10.6 4.74-10.6 10.59s4.74 10.59 10.59 10.59 10.59-4.75 10.59-10.6c0-5.86-4.75-10.6-10.6-10.6"/></svg>