<svg viewBox="0 0 256 262" xmlns="http://www.w3.org/2000/svg"><path d="M136.44 1.51c38.03 17.64 76.7 35.86 114.69 53.62 2.02.94 4.68 1.59 4.68 4.46s-2.66 3.51-4.69 4.46c-38.14 17.83-76.29 35.663-114.451 53.43 -5.82 2.7-11.79 2.67-17.61-.05C80.81 99.6 42.58 81.74 4.37 63.87 2.4 62.95-.08 62.25 0 59.45c.07-2.62 2.43-3.3 4.33-4.19 38.37-17.94 77.14-36.15 115.57-53.97 4.06-1.89 12.26-1.76 16.5.17Zm-8.57 260.04c-2.77 0-4.85-1.05-8.8-2.53 -38.19-17.72-76.33-35.53-114.46-53.35 -2.03-.95-4.66-1.62-4.63-4.51 .02-2.88 2.65-3.51 4.67-4.48 6.32-3.01 12.68-5.95 19.03-8.9 6.349-2.95 12.65-2.91 19.025.08 25.27 11.85 50.58 23.64 75.87 35.465 6.27 2.93 12.5 2.87 18.77-.07 25.36-11.88 50.73-23.73 76.1-35.58 5.99-2.8 12.06-2.88 18.08-.15 6.76 3.06 13.48 6.244 20.214 9.4 .99.46 2 .99 2.84 1.7 1.79 1.51 1.82 3.56-.02 5.03 -1.12.89-2.45 1.55-3.76 2.16 -37.827 17.67-75.649 35.35-113.53 52.92 -2.95 1.36-6.71 2.75-9.47 2.75Zm-.14-70.83c-1.27 0-6.19-1.35-8.98-2.65C80.72 170.41 42.74 152.64 4.76 134.87c-2.04-.96-4.7-1.57-4.76-4.42 -.06-3.02 2.72-3.62 4.82-4.62 6.39-3.05 12.81-6.06 19.24-9.02 6.1-2.81 12.21-2.74 18.317.11 25.53 11.92 51.06 23.85 76.62 35.74 5.91 2.75 11.92 2.73 17.842-.03 25.62-11.94 51.23-23.91 76.85-35.85 5.92-2.77 11.91-2.76 17.83-.06 6.756 3.08 13.47 6.25 20.19 9.41 .92.43 1.86.89 2.66 1.52 2.03 1.62 2.02 3.75-.04 5.38 -.8.62-1.74 1.08-2.67 1.51 -38.37 17.93-76.731 35.89-115.15 53.72 -2.65 1.22-7.58 2.38-8.85 2.38Z"/></svg>