<svg viewBox="0 0 256 256" xmlns="http://www.w3.org/2000/svg"><path fill="#222" d="M128 0a128 128 0 1 0 0 256 128 128 0 1 0 0-256Z"/><path fill="#FFF" d="M50.41 123.01c1.57-.2 2.74-1.19 2.82-2.73 .16-3.1.16-6.22-.08-9.31 -.07-.81-1.15-1.95-1.99-2.2 -.85-.26-1.75-.34-2.67-.39l-1.11-.05c-.37-.02-.75-.04-1.11-.07v14.95c1.42-.08 2.78-.08 4.11-.24Zm-4.11 23.11l.93-.06v0l1.82-.09c.9-.05 1.79-.12 2.66-.26 1.68-.28 2.86-1.47 2.95-3.19 .14-3 .16-6.02-.01-9.02 -.11-1.81-1.32-3.07-3.17-3.32 -.84-.12-1.69-.17-2.55-.21l-1.76-.07c-.3-.02-.6-.03-.91-.05v16.2Zm10.99-19.78c4.1 2.04 5.42 5.49 5.35 9.67l-.02.4c-.03.56-.03 1.12-.03 1.69l.01 1.69c0 1.41-.02 2.81-.25 4.19 -.88 5.26-5.11 8.7-10.48 8.81 -3.22.06-6.45.03-9.67 0 -2.21-.02-3.69-1.47-3.7-3.67 -.02-14.63-.02-29.25-.01-43.88 0-1.99 1.25-3.62 3.08-3.64l2.6-.04c3.03-.05 6.08-.04 9.07.32 4.82.57 7.73 4.18 7.88 9.05 .08 2.67.08 5.36 0 8.04 -.09 2.85-1.41 5.13-3.55 7.02l-.35.29Zm81.04 4.03h-8.61l0 11.52c-.01 2.54-.01 5.07-.01 7.61 -.01 3.22-3.23 5-6.03 3.36 -1.45-.85-1.8-2.2-1.79-3.75l0-10.9v0l-.01-10.9c0-7.42-.02-14.83 0-22.24 0-2.67 1.49-4.14 4.04-4.1 2.23.03 3.74 1.52 3.75 3.78l.01 8.19v0l-.01 9.89v0h8.52l.06-1.11c0-.19.01-.38.01-.56l-.01-10.83c0-1.81 0-3.61.01-5.42 .01-2.56 1.51-4.01 4.01-3.98 2.26.02 3.76 1.46 3.77 3.74l.01 5.36v0l-.01 10.72v0l-.01 28.38v0c-.01 2.74-1.38 4.2-3.92 4.19 -2.51-.02-3.89-1.51-3.9-4.26l-.01-8.49v0l0-10.3Zm-32.35 20.8l-1.85-.11v0l-.01.05v0h-1.03v0c-1.9 0-2.71.69-3.36 2.88 -.58 1.94-.11 3.66 1.26 4.57 2.01 1.35 6.23 1.06 7.96-.62 1.2-1.17 1.64-2.6 1.17-4.27 -.47-1.66-1.7-2.29-3.26-2.46l-.92-.09v0Zm2.04-22.95h-.01l.02-2.05c0-.69 0-1.37-.05-2.04 -.14-2.08-1.42-3.25-3.39-3.24 -1.94.01-3.24 1.22-3.31 3.31 -.09 2.67-.09 5.34 0 8.01 .06 2.07 1.37 3.3 3.3 3.31 2 .01 3.27-1.23 3.38-3.4 .03-.66.03-1.32.03-1.97l-.02-1.97Zm5.62-7.83c1.5 1.65 1.76 3.56 1.72 5.55l-.02.37c-.03.55-.03 1.1-.04 1.65l-.01 1.66c-.02 1.38-.07 2.76-.3 4.1 -.83 4.81-4.75 7.89-9.63 7.93l-1.44 0v0l-2.72-.01v0l-.02.19v0l-.11.71c-.06.42-.08.86.11 1.2 .31.56 1.3.97 2.03 1.04 1.64.15 3.31.04 4.97.05 6.39.02 10.33 4.67 9.33 11 -.76 4.78-3.97 8.02-9.23 9.11 -3.34.69-6.71.63-10.01-.25 -5.98-1.6-8.23-8.08-4.37-12.57 .32-.38.7-.72 1.11-1.05l.84-.69c.14-.12.29-.24.43-.37 -1.96-1.38-2.79-3.29-2.59-5.65 .19-2.31 1.42-3.98 3.35-5.37 -3.03-2.99-3.41-6.71-3.21-10.61l.03-.88v0l.03-1.76c.02-1.18.07-2.34.26-3.48 .74-4.32 4.18-7.19 8.52-7.63l.39-.04c3.44-.23 6.87-.71 10.3-1.07 .29-.04.58-.08.87-.1 2.55-.19 3.61.53 3.86 2.64 .27 2.35-.72 3.63-3.16 4.04 -.17.02-.34.04-.53.06l-.93.08Zm95.76 13.87c0-3.47-.08-6.93.03-10.39 .04-1.36-.57-1.96-1.66-2.38 -2.53-.97-4.5.37-4.51 3.13 -.03 6.33-.02 12.67 0 19.01 0 .62.1 1.27.31 1.85 .45 1.29 1.81 1.9 3.37 1.62 1.76-.32 2.43-1.04 2.43-2.65l0-10.24Zm.1 16.04c-1.53 2.04-3.37 3.3-5.84 3.36 -4.64.12-7.86-2.85-7.9-7.49 -.08-8.1-.06-16.2-.01-24.3 .01-2.74.96-5.14 3.61-6.38 2.78-1.31 5.58-1.16 8.22.5 .24.15.47.33.71.53l.77.67c.09.08.19.16.29.25l0-12.48v0c0-2.69 1.22-4.03 3.69-4.04 2.53-.02 3.81 1.33 3.82 4.08 0 14.24 0 28.49 0 42.73l0 1.26c-.01.21-.01.42-.02.63 -.07 1.98-1.1 3.35-2.73 3.65 -2.07.37-3.58-.41-4.41-2.27l-.06-.13v0l-.23-.66Zm-128.32.02c-1.92 3.2-4.86 3.81-8.15 3.16 -3.26-.64-5.4-3.32-5.43-7.05 -.1-9.37-.06-18.74-.03-28.1 0-1.9 1.36-3.21 3.21-3.34 2.34-.17 3.84.86 4.19 2.91 .06.39.08.79.08 1.19l0 22.93v0c0 .63.02 1.26.07 1.89 .19 2.3 1.56 3.27 3.8 2.68 1.25-.34 1.95-.96 1.94-2.46 -.07-8.39-.04-16.79-.03-25.18 0-2.58 1.29-3.98 3.61-4.01 2.52-.04 3.89 1.28 3.89 3.83 0 10.14 0 20.29 0 30.43 0 2.44-.79 3.69-2.51 4.04 -2.33.46-3.76-.43-4.71-3.01Zm84.34-19.91l0-1.04v0l.02-2.03c.01-1.33.01-2.63-.08-3.92 -.12-1.65-1.2-2.47-2.72-2.46 -1.43 0-2.64.84-2.74 2.31 -.09 1.17-.1 2.35-.09 3.53l.03 2.38c0 .39 0 .79 0 1.19h5.52Zm-5.61 5.98l-.01 1.42v0l-.02 2.76c-.01 1.36 0 2.69.04 4.03 .06 1.84 1.19 2.87 2.84 2.86 1.68-.01 2.71-1.01 2.9-2.83 .02-.25.02-.49.03-.73 .07-2.47 1.22-3.64 3.57-3.62 2.31.02 3.49 1.25 3.52 3.69 .06 5.83-3.68 9.65-9.53 9.64 -1.41-.01-2.85-.08-4.2-.42 -3.98-1-6.47-3.86-6.62-8.42 -.24-6.96-.27-13.95.05-20.9 .32-7.12 5.78-10.09 12.42-9.05 4.95.77 7.87 4.32 8.04 9.46 .06 1.81.06 3.62.05 5.43l-.05 3.62v0c-.03 1.97-1.13 2.98-3.16 2.98l-3.93 0v0l-6.03-.01Zm25.66-17.68c.62-2.82 2.27-3.96 4.92-3.73 2.09.18 3.13 1.47 3.07 3.96 -.05 2.29-1.25 3.68-3.25 3.69 -.44 0-.87-.06-1.31-.13l-.87-.14v0c-1.65-.24-2.21.23-2.21 1.87 -.01 8.43 0 16.87-.01 25.3 -.01 2.9-2.51 4.58-5.25 3.56 -1.6-.6-2.27-1.77-2.27-4.01 -.01-9.95-.01-19.9-.01-29.85 0-2.51.85-3.75 2.72-4 2.51-.35 3.6.44 4.4 3.4Z"/><path fill="#86BAD3" d="M231.69 148.84c-.02 2.73-1.91 4.57-4.64 4.53 -2.62-.04-4.42-1.93-4.41-4.63 0-2.74 1.87-4.56 4.63-4.52 2.63.03 4.42 1.9 4.4 4.59"/></svg>