<svg viewBox="0 0 512 171" xmlns="http://www.w3.org/2000/svg"><path fill="#222" d="M31.48 58.34c4.18-.51 7.27-3.15 7.48-7.22 .43-8.21.44-16.49-.2-24.67 -.17-2.15-3.05-5.17-5.27-5.83 -2.25-.67-4.64-.89-7.06-1.02l-2.93-.13c-.99-.05-1.97-.1-2.94-.18v39.63c3.78-.2 7.37-.2 10.9-.63ZM20.59 119.6l2.46-.14v0l4.84-.22c2.39-.13 4.74-.31 7.06-.69 4.47-.75 7.6-3.88 7.82-8.43 .38-7.96.44-15.96-.03-23.9 -.28-4.8-3.49-8.12-8.4-8.79 -2.22-.31-4.46-.45-6.75-.54l-4.66-.18c-.79-.04-1.59-.07-2.4-.11v42.96Zm29.14-52.44c10.88 5.43 14.38 14.55 14.18 25.64l-.04 1.07c-.06 1.48-.08 2.98-.07 4.48l.02 4.49c.01 3.74-.05 7.46-.66 11.1 -2.32 13.96-13.54 23.08-27.78 23.36 -8.54.17-17.08.09-25.62.01 -5.85-.06-9.78-3.89-9.79-9.72 -.05-38.77-.05-77.54-.01-116.3 0-5.26 3.31-9.58 8.17-9.65l6.89-.11c8.05-.11 16.12-.1 24.06.85 12.77 1.53 20.49 11.08 20.89 23.99 .21 7.09.22 14.21 0 21.31 -.24 7.56-3.74 13.59-9.41 18.61l-.92.78Zm214.82 10.69h-22.8l.01 30.54c-.01 6.73-.01 13.45-.03 20.17 -.03 8.53-8.57 13.27-15.96 8.92 -3.83-2.25-4.76-5.82-4.75-9.94l.02-28.9v0l-.01-28.9c0-19.65-.03-39.3.01-58.95 .01-7.07 3.95-10.98 10.72-10.87 5.93.09 9.92 4.03 9.94 10.04l.02 21.71v0l-.02 26.23v0h22.59l.15-2.92c.02-.5.03-.99.03-1.49l-.01-28.7c0-4.79.01-9.57.03-14.35 .03-6.78 4.02-10.61 10.64-10.55 6.01.05 9.98 3.89 10 9.91l.02 14.22v0l-.02 28.44v0l-.01 75.23v-.001c-.01 7.27-3.64 11.15-10.37 11.12 -6.63-.03-10.32-4.01-10.33-11.28l-.02-22.5v0l0-27.3Zm-85.75 55.13l-4.89-.3v0l-.01.13v0h-2.72v0c-5.03 0-7.17 1.85-8.89 7.65 -1.53 5.14-.27 9.7 3.35 12.12 5.34 3.58 16.52 2.81 21.11-1.62 3.2-3.1 4.35-6.89 3.1-11.3 -1.24-4.39-4.51-6.05-8.64-6.5l-2.44-.22v0Zm5.42-60.83h-.02l.06-5.42c.01-1.81 0-3.61-.11-5.41 -.36-5.51-3.76-8.62-8.97-8.58 -5.15.03-8.59 3.25-8.76 8.78 -.22 7.08-.22 14.17 0 21.25 .17 5.51 3.64 8.75 8.76 8.78 5.3.03 8.68-3.26 8.97-9 .08-1.74.09-3.48.08-5.22l-.05-5.23Zm14.91-20.74c3.97 4.38 4.68 9.45 4.57 14.73l-.03.99c-.06 1.45-.08 2.92-.09 4.39l-.03 4.4c-.04 3.66-.17 7.31-.78 10.88 -2.19 12.76-12.57 20.92-25.52 21.03l-3.81.01v0l-7.19-.01v0l-.05.52v0l-.29 1.88c-.15 1.12-.2 2.3.3 3.18 .84 1.49 3.45 2.58 5.39 2.76 4.36.4 8.78.12 13.18.13 16.94.06 27.38 12.39 24.73 29.16 -2.01 12.68-10.52 21.26-24.47 24.15 -8.85 1.83-17.78 1.68-26.53-.67 -15.85-4.24-21.79-21.42-11.57-33.3 .86-1.01 1.86-1.9 2.94-2.79l2.23-1.82c.38-.32.76-.64 1.15-.98 -5.19-3.64-7.37-8.71-6.85-14.97 .5-6.1 3.77-10.54 8.88-14.23 -8.01-7.91-9.03-17.79-8.49-28.11l.09-2.33v0l.09-4.66c.06-3.11.19-6.2.71-9.23 1.96-11.44 11.1-19.05 22.58-20.21l1.05-.09c9.13-.61 18.21-1.87 27.32-2.84 .77-.09 1.54-.2 2.31-.26 6.76-.51 9.58 1.43 10.23 6.99 .72 6.24-1.91 9.63-8.37 10.73 -.45.07-.9.12-1.39.17l-2.45.22Zm253.84 36.77c0-9.18-.21-18.36.1-27.53 .11-3.6-1.51-5.19-4.39-6.29 -6.69-2.56-11.92.99-11.96 8.31 -.08 16.8-.05 33.6.01 50.4 0 1.64.28 3.37.83 4.91 1.21 3.42 4.8 5.05 8.94 4.31 4.67-.84 6.44-2.75 6.44-7.02l0-27.14Zm.27 42.54c-4.04 5.42-8.92 8.75-15.46 8.92 -12.28.32-20.83-7.54-20.94-19.86 -.21-21.47-.16-42.94-.01-64.4 .05-7.25 2.56-13.61 9.58-16.91 7.39-3.48 14.81-3.07 21.81 1.32 .64.4 1.25.88 1.88 1.41l2.05 1.78c.25.21.51.44.79.67l0-33.06v0c0-7.13 3.24-10.66 9.78-10.7 6.71-.04 10.12 3.54 10.12 10.82 .01 37.76 0 75.52 0 113.28l.01 3.36c-.01.56-.01 1.12-.03 1.68 -.17 5.26-2.9 8.9-7.22 9.69 -5.47.99-9.49-1.07-11.69-6.02l-.14-.33v0l-.61-1.73Zm-340.15.06c-5.08 8.49-12.87 10.1-21.6 8.39 -8.63-1.69-14.3-8.8-14.4-18.69 -.25-24.83-.15-49.66-.07-74.48 .01-5.02 3.61-8.49 8.52-8.84 6.2-.45 10.18 2.28 11.11 7.71 .17 1.04.21 2.11.22 3.17l.02 60.8v0c0 1.67.06 3.35.2 5.03 .51 6.11 4.16 8.67 10.08 7.1 3.32-.88 5.17-2.53 5.14-6.5 -.18-22.24-.11-44.49-.08-66.73 0-6.82 3.42-10.54 9.57-10.63 6.69-.11 10.32 3.41 10.32 10.17 .02 26.89.01 53.79 0 80.68 0 6.46-2.08 9.8-6.65 10.71 -6.17 1.22-9.96-1.13-12.47-7.98Zm223.56-52.77l.01-2.75v0l.07-5.36c.04-3.53.04-6.97-.19-10.39 -.3-4.37-3.18-6.54-7.2-6.52 -3.78.01-6.98 2.23-7.25 6.14 -.22 3.1-.25 6.23-.22 9.37l.08 6.31c.01 1.05.02 2.11.02 3.17h14.65Zm-14.86 15.86l-.02 3.76v0l-.05 7.33c-.02 3.61 0 7.15.12 10.69 .17 4.9 3.16 7.61 7.55 7.58 4.47-.03 7.19-2.67 7.71-7.5 .06-.65.06-1.29.08-1.94 .19-6.55 3.25-9.65 9.47-9.59 6.14.05 9.27 3.33 9.34 9.79 .17 15.46-9.74 25.59-25.26 25.57 -3.72-.01-7.55-.21-11.13-1.11 -10.54-2.64-17.14-10.21-17.55-22.31 -.62-18.45-.7-36.96.15-55.39 .87-18.86 15.33-26.73 32.94-23.99 13.12 2.04 20.87 11.46 21.32 25.08 .15 4.8.17 9.6.13 14.41l-.12 9.61v0c-.07 5.24-2.97 7.9-8.38 7.92l-10.41.01v0l-15.99-.01Zm68.04-46.85c1.66-7.47 6.02-10.5 13.06-9.87 5.55.49 8.29 3.9 8.15 10.52 -.14 6.07-3.3 9.78-8.6 9.8 -1.15 0-2.31-.15-3.46-.33l-2.3-.37v0c-4.36-.64-5.86.62-5.86 4.98 -.01 22.36.02 44.72-.02 67.08 -.02 7.7-6.65 12.16-13.9 9.44 -4.24-1.59-6.01-4.67-6.02-10.62 -.02-26.37-.02-52.74-.01-79.11 0-6.63 2.26-9.92 7.23-10.59 6.67-.91 9.56 1.18 11.66 9.01Z"/><path fill="#86BAD3" d="M511.99 126.83c-.05 7.23-5.06 12.13-12.29 12.02 -6.93-.11-11.7-5.12-11.68-12.26 .02-7.25 4.97-12.07 12.28-11.96 6.99.1 11.72 5.03 11.67 12.18"/></svg>