<svg viewBox="0 0 512 141" xmlns="http://www.w3.org/2000/svg"><path fill="#000D47" d="M322.65 30.02c-16.33.48-29.13 14.3-29.13 30.64v37.3c0 .88.71 1.6 1.6 1.6h9.04c.88 0 1.6-.72 1.6-1.61V60.5c0-9.61 7.34-17.82 16.89-18.29 9.82-.49 18.17 7.08 18.65 16.9 0 .29.02.59.02.88v37.95c0 .88.71 1.6 1.6 1.6h9.04c.88 0 1.6-.72 1.6-1.61V59.98c-.03-16.62-13.51-30.06-30.12-30.04 -.28-.01-.56 0-.83 0Zm76.32.33c-15.57-.71-29.69 9.04-34.56 23.83 -4.88 14.79.7 31.02 13.63 39.7 12.93 8.68 30.06 7.69 41.91-2.43v6.47c0 .88.71 1.6 1.6 1.6h9.04c.88 0 1.6-.72 1.6-1.61V65.73c-.02-18.73-14.55-34.62-33.24-35.42Zm-1.52 57.21c-9.11 0-17.32-5.48-20.81-13.89 -3.49-8.42-1.57-18.1 4.87-24.54 6.43-6.45 16.11-8.37 24.52-4.89 8.41 3.48 13.89 11.68 13.9 20.79v0c-.01 12.42-10.08 22.49-22.5 22.51Zm81.28-57.21c-15.57-.71-29.69 9.04-34.56 23.83 -4.88 14.79.7 31.02 13.63 39.7 12.93 8.68 30.06 7.69 41.91-2.43v13.73c0 12.61-10.33 23.33-22.95 23.1 -7.15-.12-13.81-3.64-17.93-9.48 -.49-.67-1.41-.85-2.12-.41l-7.69 4.76c-.37.22-.63.58-.72 1 -.1.41-.03.85.2 1.21 .01.02.02.04.04.06 6.31 9.27 16.74 14.89 27.96 15.07 19.47.37 35.41-15.96 35.41-35.44V65.73c-.01-18.76-14.54-34.66-33.23-35.46l-.02 0Zm-1.51 57.2c-9.11 0-17.32-5.49-20.8-13.9 -3.49-8.42-1.57-18.1 4.87-24.54 6.43-6.44 16.11-8.37 24.53-4.89 8.41 3.48 13.89 11.69 13.89 20.79v0c-.02 12.42-10.09 22.49-22.51 22.5ZM187.14 30.33c-15.57-.7-29.69 9.04-34.56 23.84 -4.87 14.79.7 31.02 13.64 39.7 12.93 8.67 30.06 7.68 41.91-2.43v13.73c0 12.61-10.33 23.34-22.95 23.1 -7.15-.12-13.81-3.64-17.93-9.48 -.49-.67-1.41-.85-2.12-.41l-7.69 4.76c-.37.22-.63.58-.72 1 -.1.41-.03.85.2 1.21 .01.02.02.04.04.06 6.3 9.26 16.71 14.89 27.91 15.08 19.47.37 35.41-15.96 35.41-35.44V65.72c.02-18.76-14.5-34.66-33.21-35.46Zm-1.52 57.21c-12.44 0-22.51-10.08-22.51-22.51 0-12.44 10.07-22.51 22.5-22.51s22.5 10.07 22.5 22.5v0c-.02 12.42-10.09 22.49-22.51 22.5v0Zm-47.69-56.77l-9.05.14c-.87.01-1.56.71-1.58 1.57v36.09c-.02 9.83-7.99 17.79-17.83 17.78 -.29 0-.58 0-.87-.03 -9.56-.47-16.9-8.72-16.9-18.29V32.5c0-.89-.72-1.61-1.61-1.61h-9.05c-.89 0-1.61.71-1.61 1.6V67.9c0 16.32 12.8 30.16 29.12 30.65 16.6.46 30.44-12.62 30.91-29.22 0-.27 0-.53 0-.8V32.28c0-.89-.72-1.61-1.61-1.61v0Zm121.31 28.42c-8.87-2.47-14.25-4.31-14.25-9.11 0-6.95 7.59-9.47 12.7-9.47 5.82 0 9.35 1.34 13.93 4.16 .73.44 1.69.22 2.16-.5l4.19-6.52c.47-.75.26-1.73-.48-2.21l-.05-.03c-6.1-3.69-13.08-5.63-20.2-5.62 -11.53 0-23.38 7.58-23.38 20.27 0 12.95 11.52 16.06 21.65 18.81 9.6 2.59 15.41 4.6 15.41 10.64 0 5.55-5.71 9.74-13.28 9.74 -7.29 0-13.25-3.29-17.29-6.41 -.68-.54-1.66-.43-2.21.24l-4.99 6.08c-.56.68-.45 1.68.23 2.24 6.55 5.49 15.28 8.5 24.78 8.5 13.79 0 23.79-8.77 23.79-20.84 .03-13.72-12.64-17.24-22.8-20.06l0 0ZM38.75 30.52c-9.6-1.14-19.23 1.79-26.57 8.07V1.54c0-.89-.72-1.61-1.61-1.61 -.29 0-.58.08-.82.23L.67 5.67c-.48.29-.77.8-.77 1.36v57.25c0 18.73 14.52 34.61 33.22 35.41 18.64.76 34.56-13.33 36.06-31.93 1.49-18.6-11.96-35.07-30.49-37.3l.01 0Zm-4.08 57c-12.44 0-22.51-10.08-22.51-22.51 0-12.44 10.07-22.51 22.5-22.51s22.5 10.07 22.5 22.5c0 5.97-2.38 11.69-6.6 15.91 -4.23 4.22-9.95 6.59-15.92 6.59Z"/></svg>