<svg viewBox="0 0 256 288" xmlns="http://www.w3.org/2000/svg"><path fill="#A9B9CB" d="M255.98 85.672c-.01-4.85-1.04-9.13-3.13-12.8 -2.06-3.62-5.14-6.64-9.27-9.04 -34.09-19.67-68.195-39.28-102.27-58.97 -9.19-5.31-18.1-5.12-27.21.27 -13.57 8-81.481 46.956-101.719 58.689C4.04 68.651-.01 76.041-.02 85.64c-.02 39.55 0 79.11-.02 118.673 .002 4.73.993 8.93 2.993 12.55 2.05 3.72 5.177 6.83 9.401 9.27 20.23 11.73 88.16 50.67 101.72 58.68 9.12 5.38 18.027 5.57 27.21.27 34.07-19.7 68.186-39.3 102.27-58.97 4.22-2.45 7.34-5.56 9.4-9.28 1.99-3.62 2.99-7.82 2.99-12.56 0 0 0-79.094-.02-118.66"/><path fill="#7F8B99" d="M141.101 5.13c-9.17-5.294-18.07-5.11-27.17.26 -13.55 7.98-81.348 46.83-101.553 58.53C4.048 68.73 0 76.1-.01 85.69c-.02 39.45 0 78.9-.02 118.36 .002 4.72.991 8.9 2.988 12.51 2.05 3.71 5.16 6.81 9.38 9.25 4.629 2.68 11.75 6.78 20.159 11.62L219.595 50.33c-26.18-15.08-52.363-30.14-78.524-45.25"/><path fill="#FFF" d="M154.45 126.968l39.83.28c0-16.6-16.81-57.25-64.98-57.25 -30.7 0-71.96 19.512-71.96 75.61 0 56.09 40.447 74.39 71.95 74.39 51.01 0 63.21-35.31 63.21-55.26l-38.01-2.18s1.01 23.07-25.41 23.07c-24.39 0-28.46-29.88-28.46-40.04 0-15.45 5.49-40.25 28.46-40.25 22.96 0 25.33 21.6 25.33 21.6"/></svg>