<svg viewBox="0 0 512 130" xmlns="http://www.w3.org/2000/svg"><g fill="#7ED321"><path d="M94.38 14.64l1.86-1.91 2.41-2.47 -2.99-1.75C86.12 2.94 75.31-.03 64.07-.03 28.9-.03.41 29.02.41 64.84c0 35.81 28.48 64.87 63.65 64.87 35.16 0 63.65-29.06 63.65-64.88 0-7.82-1.36-15.44-3.98-22.61l-1.47-4.01 -2.99 3.04 -1.99 2.02 -1.17 1.18 .53 1.57c2.05 5.98 3.1 12.31 3.1 18.79 0 31.43-24.97 56.9-55.74 56.9 -30.78 0-55.74-25.47-55.74-56.91C8.25 33.36 33.22 7.89 63.99 7.89c9.59 0 18.83 2.47 27.03 7.12l.61.35h.7 0 1.12l.79-.81v0Zm-3.85-3.77l1.92 1.88v-2.7h-.01v2.69l1.32-2.34C84.75 5.29 74.6 2.57 64.07 2.57 30.3 2.56 2.95 30.46 2.95 64.85c-.001 34.38 27.35 62.28 61.11 62.28s61.11-27.9 61.11-62.29c0-7.08-1.16-13.99-3.41-20.54l-.63 2.75 1.98-2.03 -4.45-.97c2.4 6.58 3.64 13.58 3.64 20.76 0 32.86-26.11 59.49-58.28 59.49 -32.18 0-58.28-26.63-58.28-59.5C5.73 31.93 31.84 5.3 64.01 5.3c10.27-.001 20.14 2.71 28.86 7.8l1.35-2.33 -1.93-1.89 -1.87 1.9v0Z"/><path d="M49.49 80.12l.36-.38 72.21-73.66 2.79-2.85 5.58 5.69 -2.8 2.84 -72.22 73.65 -.37.37 -5.59 5.69 -2.8-2.85 -20.16-20.56 -2.8-2.85 5.58-5.7 2.79 2.84 17.36 17.7v0Z"/></g><path fill="#5E5E5E" d="M149.74 64.11c0-4.79.84-9.55 2.52-14.3 1.68-4.75 4.12-8.99 7.34-12.73 3.21-3.74 7.17-6.79 11.88-9.14 4.7-2.36 10.05-3.54 16.02-3.54 7.09 0 13.15 1.6 18.15 4.81 5 3.21 8.74 7.39 11.2 12.55l-6.28 3.81c-1.28-2.62-2.81-4.82-4.6-6.62 -1.8-1.8-3.74-3.26-5.83-4.38 -2.1-1.13-4.26-1.93-6.51-2.41 -2.25-.49-4.45-.73-6.62-.73 -4.79 0-9.01.97-12.67 2.91 -3.67 1.94-6.75 4.48-9.25 7.62 -2.51 3.13-4.4 6.66-5.67 10.59 -1.28 3.92-1.91 7.9-1.91 11.93 0 4.4.76 8.63 2.29 12.66 1.53 4.03 3.62 7.6 6.27 10.7 2.65 3.1 5.79 5.56 9.41 7.39s7.56 2.74 11.82 2.74c2.24 0 4.53-.29 6.89-.85 2.35-.57 4.63-1.46 6.83-2.7 2.2-1.24 4.24-2.77 6.1-4.6 1.86-1.84 3.43-4.06 4.7-6.67l6.5 3.36c-1.28 2.98-3.07 5.62-5.39 7.9 -2.32 2.27-4.9 4.2-7.74 5.77 -2.84 1.56-5.85 2.76-9.03 3.58 -3.18.82-6.3 1.23-9.36 1.23 -5.46 0-10.47-1.2-15.02-3.59 -4.56-2.4-8.49-5.52-11.77-9.36 -3.29-3.85-5.85-8.22-7.68-13.12 -1.84-4.9-2.75-9.89-2.75-14.97v0Zm95.94 41.47c-2.99 0-5.72-.47-8.19-1.41 -2.47-.94-4.58-2.23-6.34-3.87 -1.76-1.65-3.12-3.55-4.1-5.72 -.98-2.17-1.46-4.45-1.46-6.84 0-2.7.59-5.14 1.79-7.35 1.19-2.21 2.87-4.1 5.04-5.67 2.16-1.57 4.76-2.79 7.78-3.65 3.02-.86 6.36-1.29 10.03-1.29 2.91 0 5.9.26 8.96.78 3.06.52 5.79 1.27 8.18 2.24v-5.27c0-5.16-1.48-9.25-4.43-12.28 -2.96-3.03-6.94-4.54-11.94-4.54 -3.14 0-6.26.59-9.36 1.79 -3.11 1.19-6.26 2.91-9.48 5.15l-2.7-5.05c3.81-2.55 7.5-4.45 11.09-5.72 3.58-1.28 7.32-1.91 11.2-1.91 7.09 0 12.74 2.05 16.92 6.16 4.18 4.1 6.27 9.78 6.27 17.03v26.33c0 2.09.89 3.13 2.69 3.13v6.72c-.6.07-1.16.13-1.69.16s-.98.05-1.35.05c-1.5 0-2.86-.45-4.1-1.35 -1.24-.9-1.93-2.25-2.08-4.04l-.23-4.6c-2.55 3.43-5.89 6.1-10.04 8.01 -4.15 1.9-8.36 2.85-12.61 2.85v0Zm1.9-5.83c3.36 0 6.7-.73 10.03-2.19 3.32-1.46 5.95-3.46 7.9-6 .52-.68.97-1.41 1.34-2.19 .37-.79.56-1.52.56-2.19v-9.53c-2.55-.98-5.2-1.72-7.96-2.25 -2.77-.53-5.46-.79-8.08-.79 -5.46 0-9.89 1.1-13.29 3.3 -3.4 2.2-5.1 5.24-5.1 9.13 0 1.56.29 3.1.89 4.59 .59 1.49 1.51 2.83 2.74 4.03 1.23 1.19 2.74 2.16 4.53 2.91 1.79.74 3.92 1.12 6.38 1.12v0Zm40.23-24.66c0-4.11.7-8 2.12-11.66 1.41-3.67 3.41-6.86 5.99-9.59 2.57-2.73 5.66-4.88 9.24-6.45 3.58-1.57 7.54-2.36 11.88-2.36 5.52 0 10.34 1.25 14.45 3.75 4.1 2.5 7.21 5.88 9.3 10.14l-7.4 2.35c-1.65-2.99-3.93-5.33-6.84-7.01 -2.92-1.69-6.17-2.53-9.76-2.53 -2.99 0-5.78.59-8.36 1.79 -2.58 1.19-4.82 2.82-6.73 4.87 -1.91 2.05-3.4 4.5-4.49 7.34 -1.09 2.83-1.63 5.94-1.63 9.3 0 3.28.56 6.38 1.68 9.3 1.12 2.91 2.65 5.43 4.59 7.56 1.94 2.12 4.2 3.81 6.78 5.04 2.57 1.23 5.32 1.84 8.23 1.84 1.86 0 3.71-.27 5.54-.79 1.83-.53 3.53-1.26 5.09-2.19 1.56-.94 2.91-2 4.03-3.2 1.12-1.2 1.9-2.47 2.35-3.82l7.39 2.24c-.83 2.09-2.02 4.01-3.59 5.77 -1.57 1.75-3.42 3.28-5.55 4.59 -2.13 1.3-4.49 2.31-7.07 3.02 -2.58.7-5.25 1.06-8.02 1.06 -4.26 0-8.19-.81-11.77-2.41 -3.59-1.61-6.69-3.82-9.31-6.62 -2.62-2.81-4.66-6.04-6.11-9.7 -1.46-3.67-2.19-7.59-2.19-11.77v0Zm114.54 29.36h-7.63V71.83c0-6.66-1.14-11.62-3.42-14.91 -2.28-3.29-5.63-4.94-10.04-4.94 -2.17 0-4.32.42-6.45 1.28 -2.13.85-4.13 2.03-6 3.53 -1.87 1.49-3.5 3.25-4.88 5.26 -1.39 2.01-2.41 4.22-3.09 6.61v35.75h-7.63V22.58h7.62v36.65c2.39-4.41 5.64-7.89 9.75-10.43 4.1-2.55 8.51-3.82 13.22-3.82 3.36 0 6.22.61 8.57 1.84 2.35 1.23 4.25 2.95 5.71 5.15 1.45 2.2 2.52 4.85 3.19 7.95 .67 3.1 1 6.51 1 10.25v34.18 0Zm41.35 1.12c-4.26 0-8.19-.81-11.77-2.41 -3.59-1.61-6.69-3.82-9.31-6.62 -2.62-2.81-4.66-6.04-6.11-9.7 -1.46-3.67-2.19-7.59-2.19-11.77 0-4.11.72-7.98 2.18-11.61 1.45-3.63 3.49-6.8 6.1-9.53 2.61-2.73 5.69-4.9 9.24-6.51 3.54-1.61 7.45-2.41 11.71-2.41 4.25 0 8.16.8 11.71 2.4 3.54 1.6 6.59 3.79 9.13 6.55 2.54 2.76 4.52 5.94 5.94 9.52 1.41 3.58 2.12 7.39 2.12 11.43 0 .59-.02 1.19-.06 1.79 -.04.59-.1 1-.17 1.23h-49.88c.22 3.13.95 6.03 2.18 8.68 1.23 2.65 2.8 4.95 4.7 6.89 1.9 1.94 4.1 3.45 6.61 4.53 2.5 1.08 5.17 1.62 8.01 1.62 1.94 0 3.84-.27 5.71-.79 1.86-.53 3.58-1.24 5.15-2.13 1.56-.9 2.97-2 4.2-3.31s2.18-2.75 2.85-4.32l6.61 1.79c-.9 2.16-2.17 4.12-3.82 5.88 -1.65 1.75-3.55 3.28-5.72 4.59 -2.17 1.3-4.56 2.31-7.18 3.02 -2.62.7-5.31 1.06-8.08 1.06v0Zm21.52-33.41c-.23-3.14-.96-6-2.19-8.58 -1.24-2.58-2.81-4.81-4.71-6.67 -1.91-1.87-4.13-3.33-6.67-4.38 -2.55-1.05-5.24-1.57-8.08-1.57s-5.53.52-8.08 1.56 -4.77 2.5-6.67 4.37c-1.91 1.86-3.44 4.1-4.6 6.72 -1.16 2.61-1.85 5.45-2.08 8.51h43.04v0Zm46.4 29.47c-.45.22-1.11.52-1.97.89 -.86.37-1.85.74-2.98 1.12 -1.13.37-2.4.7-3.82 1 -1.42.29-2.92.44-4.49.44 -1.65 0-3.22-.23-4.71-.68 -1.5-.45-2.81-1.14-3.93-2.08 -1.13-.94-2.02-2.12-2.7-3.54 -.68-1.42-1.01-3.07-1.01-4.94V52.03h-8.08v-6.06H486V26.24h7.62v19.72h13.45v6.05h-13.46v39.67c.14 2.16.89 3.75 2.24 4.76 1.34 1 2.95 1.51 4.81 1.51 2.16 0 4.07-.36 5.71-1.07 1.64-.71 2.69-1.22 3.13-1.52l2.01 6.16v0Z"/></svg>