<svg viewBox="0 0 512 103" xmlns="http://www.w3.org/2000/svg"><g fill="#D33C44" fill-rule="evenodd"><path d="M0 61.53c0 11.32 29.4 20.5 65.68 20.5v0 20.5c-36.29 0-65.69-9.19-65.69-20.51v0Zm131.39 0v20.5c0 4.83-5.38 9.26-14.33 12.77v0l-51.4-12.78V61.51l51.39 12.77c8.94-3.51 14.32-7.94 14.32-12.78v0ZM65.68-.01c36.28 0 65.7 9.19 65.7 20.5v0 20.52c0 4.81-5.38 9.26-14.32 12.75v0L65.66 41v20.5C29.37 61.5-.03 52.31-.03 40.99v0V20.46C-.03 9.14 29.37-.05 65.65-.05Z"/><path d="M188.24 23.78c10.27 0 16.43 3.43 21.49 8.41l-7.64 8.79c-4.21-3.82-8.5-6.16-13.94-6.16 -9.2 0-15.81 7.63-15.81 16.97v.16c0 9.34 6.45 17.13 15.8 17.13 6.22 0 10.04-2.49 14.32-6.39l7.63 7.7c-5.6 6-11.83 9.74-22.34 9.74 -16.05 0-27.96-12.39-27.96-28.04v-.15c0-15.5 11.67-28.2 28.41-28.2ZM327.29 36.7c13.93 0 20.32 10.82 20.32 22.66v.15c0 1.16-.08 1.87-.16 2.96H318.4c1.16 5.36 4.9 8.17 10.2 8.17 3.97 0 6.84-1.26 10.11-4.29l6.78 6c-3.91 4.82-9.51 7.78-17.06 7.78 -12.54 0-21.82-8.8-21.82-21.57v-.17c0-11.92 8.49-21.73 20.64-21.73Zm-91.56.31c12.92 0 18.61 6.69 18.61 17.99v24.21h-11.46v-4.52c-2.88 3.19-6.85 5.29-12.62 5.29 -7.86 0-14.33-4.52-14.33-12.78v-.17c0-9.12 6.92-13.32 16.81-13.32 4.2 0 7.24.7 10.21 1.71v-.7c0-4.9-3.04-7.64-8.96-7.64 -4.52 0-7.71.86-11.52 2.25l-2.97-9.04c4.59-2.04 9.11-3.35 16.19-3.35Zm40.64-14.65v30.3l13.86-15.19h14.16L288.5 53.89l16.42 25.31h-13.55l-10.91-17.06 -4.14 4.35v12.69h-11.83V22.32h11.82Zm103.55 2.33c12.99 0 20.86 7.7 20.86 18.85v.14c-.01 12.61-9.82 19.15-22.05 19.15h-9.11v16.35h-12V24.66h22.27Zm41.72 0v21.57h22.11V24.68h11.98v54.51h-11.99v-21.9h-22.12v21.89h-11.99V24.66h11.98Zm69.45 0c12.99 0 20.87 7.7 20.87 18.85v.14c0 12.61-9.81 19.15-22.04 19.15h-9.12v16.35h-12V24.66h22.27ZM235.55 60.82c-5.07-.001-8.19 2.02-8.19 5.76v.15c0 3.18 2.65 5.05 6.46 5.05 5.52 0 9.27-3.03 9.27-7.32v-2.1c-2.02-.95-4.68-1.56-7.56-1.56Zm91.71-14.64c-4.91 0-8.11 3.5-9.04 8.87h17.83c-.71-5.3-3.82-8.88-8.81-8.88Zm51.62-10.67h-9.27v16.67h9.5c5.99 0 9.49-3.6 9.49-8.26v-.17c0-5.37-3.74-8.25-9.74-8.25Zm111.19 0h-9.27v16.67h9.49c6 0 9.5-3.6 9.5-8.26v-.17c0-5.37-3.74-8.25-9.74-8.25Z"/></g></svg>