<svg viewBox="0 0 256 256" xmlns="http://www.w3.org/2000/svg"><path fill="#932279" d="M107.86 118.64l9.22 9.17 -9.23 9.17H42.89v30.57L3.27 127.8l39.61-39.08v29.9h64.95v0 0 0Zm28.55-78.07h78.92v78.93H136.4V40.56v0 0 0Z"/><path fill="#EFA724" d="M137.27 107.86l-9.18 9.22 -9.18-9.23V42.89H88.33l39.74-39.62 39.07 39.61h-29.91v64.95 0 0 0Zm-.87 28.55h78.92v78.93h-78.93V136.4v0 0 0Z"/><path fill="#262577" d="M148.05 137.27l-9.23-9.18 9.22-9.18h64.95V88.33l39.61 39.74 -39.62 39.07v-29.91h-64.96v0 0 0Zm-107.49-.87h78.92v78.93H40.55v-78.94 0 0 0Z"/><path fill="#9CCD2A" d="M118.64 148.05l9.17-9.23 9.17 9.22v64.95h30.57L127.8 252.6l-39.08-39.62h29.9v-64.96 0 0 0ZM40.57 40.56h78.92v78.93H40.56V40.55v0 0 0Z"/><g fill="#FFF"><path d="M37.75 37.75h84.56v84.56H37.74V37.74v0 0 0 0Zm5.63 78.93h73.29v-73.3h-73.3v73.29 0 0 0Zm90.2-78.94h84.56v84.56h-84.57V37.73v0 0 0Zm5.63 78.93h73.29v-73.3h-73.3v73.29 0 0 0Zm-5.64 16.91h84.56v84.56h-84.57v-84.57 0 0 0Zm5.63 78.92h73.29v-73.3h-73.3v73.29 0 0 0ZM37.71 133.57h84.56v84.56H37.7v-84.57 0 0 0Zm5.63 78.92h73.29v-73.3h-73.3v73.29 0 0 0 0Z"/><path d="M60.18 187.75l-59.8-59.8 59.79-59.8 59.79 59.79 -59.8 59.79v0 0 0 0 0Zm-51.83-59.8l51.82 51.82 51.82-51.83 -51.83-51.83 -51.83 51.82v0 0 0Zm119.59-7.98l-59.8-59.8L127.93.37l59.79 59.79 -59.8 59.79v0 0 0Zm-51.83-59.8l51.82 51.82 51.82-51.83 -51.83-51.83 -51.83 51.82v0 0 0ZM195.7 187.73l-59.8-59.8 59.79-59.8 59.79 59.79 -59.8 59.79v0 0 0Zm-51.83-59.8l51.82 51.82 51.82-51.83 -51.83-51.83 -51.83 51.82v0 0 0Zm-15.95 127.56l-59.8-59.8 59.79-59.8 59.79 59.79 -59.8 59.79v0 0 0Zm-51.83-59.8l51.82 51.82 51.82-51.83 -51.83-51.83 -51.83 51.82v0 0 0 0 0Z"/></g></svg>