<svg viewBox="0 0 512 174" xmlns="http://www.w3.org/2000/svg" xmlns:xlink="http://www.w3.org/1999/xlink"><defs><radialGradient id="a" fr="0%" fx="73.278%" fy="16.629%" cx="73.278%" cy="16.629%" r="78.998%" gradientTransform="translate(.732782.166299)"><stop offset="0%" stop-color="#FFF"/><stop offset="100%" stop-color="#AB710A"/></radialGradient><radialGradient id="b" fr="0%" fx="3.344%" fy="5.288%" cx="3.344%" cy="5.288%" r="45.151%" gradientTransform="translate(.033442.052886)"><stop offset="0%" stop-color="#D5D5D5"/><stop offset="100%" stop-color="#141006"/></radialGradient><path id="c" d="M202.21 42.26c-5.77-8.24-18.91-15.06-21.97-24.41 -.79-2.4-.92-7.3.59-9.6 1.37-2.08-.88-1.59-.88-1.59 -3.27 1.26-4.69-2.35-4.69-2.35 -.5-1.27.17-5.12-2.64-3.01 -5.08 3.8-3.41 13.04-2.46 16.83 .65 2.9 3.66 11.08 9.65 16.92 1.56 1.52 11.94 12.86 10.53 18.67 -.06.23-.25 3.63-3.52 4.29 -7.52 1.5-9.96-7.71-9.96-7.71 -5.64-24.05-14.73-32.46-14.73-32.46 -16.69-.64-29.05.9-43.98 3.78 -56.26-2.11-98.59 15.17-98.59 15.17C7.18 54.54-.06 87.47-.06 87.47s-.04.15.1.17c.28.04.43-.21.43-.21 7.74-9.7 15.66-15.82 15.66-15.82 -1.18 45.79 9.2 73.67 9.2 73.67h19.64c1.38-16.5 14.35-34.76 14.35-34.76 7.3 5.53 23.79 3.9 23.79 3.9 2.89 11.08 8.81 30.84 8.81 30.84h23.67c2.15-17.09 7.61-32.24 12.87-43.6 0 0 5.86-13.3 6.05-17.25 .37-6.96 6.95-9.02 10.52-9.02 3.56 0 19.79 9.06 31.93 8.45 21.13-1.07 29.47-10.85 29.87-21.99 .27-7.69-1.53-15.13-4.76-19.75Zm-67.9 23.62c-.11.29-.24.59-.44.87s-.47.56-.84.76c-.37.2-.81.28-1.2.26 -.4-.02-.77-.12-1.09-.24 -1.29-.54-2.2-1.36-3.08-2.17 -.44-.41-.85-.83-1.25-1.25 -.4-.42-.8-.85-1.15-1.2 -.55-.52-1.47-.95-2.43-1.29 -.98-.34-2.03-.63-3.11-.9 -1.09-.28-2.19-.54-3.39-.93 -.31-.11-.61-.22-.95-.37 -.16-.07-.38-.18-.52-.27 -.22-.13-.43-.28-.62-.44 -.39-.34-.7-.75-.92-1.16 -.22-.42-.37-.83-.46-1.22 -.18-.79-.2-1.49-.17-2.16 .03-.67.1-1.3.21-1.91 .22-1.22.53-2.37.89-3.49s.75-2.22 1.19-3.29c.21-.55.42-1.06.67-1.62 .25-.57.53-1.12.84-1.65 1.24-2.13 2.92-3.91 4.8-5.34 .94-.71 1.93-1.34 2.97-1.88 1.03-.54 2.1-1 3.21-1.31 -1.88 1.31-3.57 2.8-5.05 4.42 -1.47 1.62-2.7 3.41-3.54 5.32 -.22.47-.4.96-.56 1.45l-.51 1.57c-.33 1.06-.65 2.12-.92 3.18 -.28 1.05-.53 2.1-.68 3.12 -.08.5-.14 1-.15 1.47 -.02.46.01.9.09 1.22 .07.33.18.49.25.55 .02.01.04.03.07.05 .1.05.13.07.23.12 .18.08.4.17.64.26 .94.35 2.04.64 3.13.99 1.1.35 2.23.7 3.35 1.22 1.12.51 2.3 1.12 3.3 2.29 .4.49.71.94 1.04 1.4 .33.45.66.89.99 1.32 .33.42.67.83 1.03 1.21 .35.37.72.71 1.09.95 .37.24.69.34.99.27 .31-.07.67-.41.96-.84 .28-.43.52-.94.72-1.46 .21-.52.38-1.07.55-1.62 .02 1.14-.01 2.31-.42 3.49Zm20.91-14.6c-.81 1.22-2.76 1.36-4.36.31 -1.61-1.06-2.25-2.91-1.44-4.13 .8-1.23 2.75-1.37 4.35-.32 1.6 1.05 2.24 2.89 1.43 4.12Z"/></defs><path fill="#AB710A" d="M60.34 114.71c1.41.68 2.96 1.22 4.57 1.65 -.14 7.53.32 18.76 3.31 29.02v0H48.08c1.1-12.08 8.88-25.41 12.24-30.68Zm75.42-25.28c3.38 10.7 4.96 37.52 11.63 55.95v0h-25.33c.49-3.86-2.14-7.75-1.28-11.64 2.07-9.34 5.2-18.74 9.35-28.11 .08.13 5.52-16.35 5.61-16.22Z"/><use fill="#E3A835" xlink:href="#c"/><use opacity=".45" fill="url(#a)" xlink:href="#c"/><path fill="url(#b)" d="M483.32 76.38c-9.53 0-18.28 5.4-22.53 10.29l-10.3-8.88h-4.9v14.94c-6.25-9.85-17.3-16.36-29.86-16.36 -12.54 0-23.51 6.48-29.73 16.29l-.02-35 -17.9-15.53h-4.88v35.63h-13.51l-15.97 31.4 -16.09-31.41h-24.2l5.27 10.37c-6.15-7.21-15.5-11.8-26.12-11.8 -22.14 0-37.07 15.83-37.07 35.26 0 2.13.18 4.22.53 6.25 -4.92 2.33-9.85 5.05-18.91 5.05 -11.16 0-17.97-8.22-17.97-18.13 0-9.77 6.81-18.29 17.96-18.29 10.37 0 15.02 4.18 21.06 6.19V69.87c-6.98-4.65-13.17-7.29-23.55-7.29 -2.02 0-3.98.12-5.9.35 -.56 7.13-5.02 21.55-31.67 22.89 -.43.02-.87.03-1.31.03 -.33 0-.66-.02-.99-.03 -2.88 5.68-4.46 12.09-4.46 18.88 0 23.08 18.43 42.13 44.3 42.13 10.37 0 16.57-2.79 23.54-7.59V125.2c5.23 12.37 17.87 21.05 36.02 21.05 11.84 0 22.9-5.28 29.21-12.1l-8.63-9.91c-4.12 3.47-9.14 5.66-15.96 5.66 -12.61 0-20.34-6.44-19.69-15.58h46.58c.79-4.53.63-8.92-.33-13.01l16.02 31.53 -20.59 40.53h23.55l38.72-76.03v47.45h22.81l-.01-14.86c6.22 9.79 17.18 16.27 29.7 16.27 12.56 0 23.6-6.52 29.85-16.36v14.94h22.9v-35.01 -8.5c2.57-4.51 6.04-7.47 11.71-7.47 5.66 0 8.23 3.47 8.23 14.02v2.96 33.97h22.9V101.5c0-13.13-7.99-25.36-28.06-25.36Zm-223.16 24.7c2.44-6.7 7.72-10.3 12.35-10.3 6.94 0 10.93 4.37 10.93 10.29h-23.3v0Zm155.58 28.69c-6.05 0-11.2-8.24-11.2-18.4 0-10.18 5.14-18.41 11.19-18.41 6.17 0 11.32 8.23 11.32 18.4 -.01 10.16-5.15 18.39-11.33 18.39Z"/></svg>