<svg viewBox="0 0 256 296" xmlns="http://www.w3.org/2000/svg"><defs><linearGradient id="a" x1="50%" x2="50%" y1="45.226%" y2="100%"><stop offset="0%" stop-color="#F7F6F3"/><stop offset="100%" stop-color="#FEF6D5"/></linearGradient></defs><path fill="#A1070C" d="M11.071 215.71l116.92 67.5 116.93-67.51V80.68L127.981 13.17 11.05 80.68V215.7v0Zm116.92 80.28l-128-73.9V74.29L127.981.38 255.98 74.282v147.79l-128.003 73.9v0Z"/><path fill="url(#a)" d="M9.57 79.833l118.42-68.37 118.421 68.37v136.74l-118.421 68.37L9.56 216.57V79.82"/><path fill="#A1070C" d="M182.33 98.17c0 5.37-1.07 10.7-3.19 16 -2.13 5.3-4.97 10.21-8.54 14.73 -3.57 4.52-7.69 8.48-12.36 11.87 -4.67 3.39-9.51 5.83-14.53 7.31l-2.23-3.72c2.96-1.49 5.68-3.4 8.16-5.73 2.47-2.34 4.59-4.97 6.36-7.9 1.76-2.94 3.12-6.05 4.08-9.33 .95-3.29 1.43-6.63 1.43-10.02 0-3.89-.57-7.57-1.7-11.03 -1.14-3.47-2.8-6.49-4.99-9.07 -2.2-2.58-4.9-4.62-8.12-6.1 -3.22-1.49-6.91-2.23-11.08-2.23 -5.09 0-9.76.98-14 2.96 -4.25 1.97-8.06 4.64-11.45 8 -3.4 3.35-6.35 7.2-8.86 11.55 -2.51 4.34-4.6 8.9-6.26 13.67 -1.67 4.77-2.92 9.59-3.77 14.47 -.85 4.87-1.28 9.47-1.28 13.78 0 4.38.45 8.9 1.37 13.56 .91 4.66 2.26 9.25 4.02 13.78 1.76 4.52 3.95 8.79 6.57 12.82 2.61 4.02 5.63 7.56 9.06 10.6 3.42 3.03 7.24 5.45 11.44 7.26 4.2 1.8 8.78 2.7 13.72 2.7 3.39 0 6.69-.46 9.91-1.38 3.21-.92 6.3-2.16 9.27-3.72 2.96-1.56 5.77-3.4 8.42-5.52 2.65-2.13 5.1-4.42 7.36-6.9l3.49 3.39c-3.11 4.09-6.81 8.03-11.08 11.82 -4.28 3.78-8.89 7.13-13.84 10.07 -4.95 2.93-10.13 5.26-15.54 6.99 -5.41 1.73-10.77 2.59-16.07 2.59 -5.16 0-10.02-.91-14.58-2.71 -4.56-1.81-8.75-4.25-12.57-7.32 -3.82-3.08-7.23-6.68-10.24-10.82 -3.01-4.14-5.55-8.54-7.64-13.2 -2.09-4.67-3.68-9.48-4.78-14.42 -1.1-4.95-1.65-9.79-1.65-14.53 0-6.86 1.14-13.91 3.44-21.15 2.29-7.25 5.45-14.28 9.48-21.1 4.02-6.83 8.78-13.27 14.25-19.35 5.47-6.08 11.37-11.38 17.7-15.91 6.32-4.53 12.93-8.12 19.82-10.77 6.89-2.66 13.76-3.98 20.61-3.98 4.24 0 8.19.61 11.87 1.85 3.67 1.23 6.85 3.02 9.54 5.35 2.68 2.33 4.8 5.23 6.36 8.69 1.55 3.46 2.33 7.42 2.33 11.87v0Z"/></svg>