<svg viewBox="0 0 256 274" xmlns="http://www.w3.org/2000/svg"><g transform="translate(0 208.213)"><g fill="#435363"><path d="M0 34.04v-.18C0 16.83 12.83 2.88 31.232 2.88c11.29 0 18.05 3.76 23.61 9.23l-8.39 9.66c-4.63-4.2-9.33-6.76-15.32-6.76 -10.1 0-17.38 8.38-17.38 18.65v.17c0 10.27 7.1 18.82 17.37 18.82 6.84 0 11.03-2.75 15.74-7.02l8.38 8.47c-6.16 6.58-13.01 10.69-24.56 10.69 -17.63 0-30.72-13.61-30.72-30.81"/><path d="M72.52 3.92h13.17v23.7h24.3V3.91h13.18v59.9h-13.19V39.76H85.67V63.8H72.49V3.89Z"/><path d="M144.39 3.94h45.9v11.9h-32.61v12.34h28.68v11.91h-28.69v12.77h33.03v11.9h-46.34V3.9Z"/><path d="M209.92 3.92h45.6V15.9h-32.44v12.74h28.58v11.98h-28.59v23.19h-13.18V3.9Z"/></g></g><g transform="translate(40.96 0)"><g fill="#435363"><path d="M88.62 127.66c-21.86 0-39.65-17.79-39.65-39.65 0-21.87 17.78-39.65 39.64-39.65 18.04 0 33.3 12.12 38.08 28.64h15.33c-5.11-24.82-27.12-43.54-53.43-43.54 -30.08 0-54.54 24.46-54.54 54.54 0 30.07 24.46 54.53 54.53 54.53 26.3 0 48.31-18.72 53.42-43.54h-15.34c-4.79 16.52-20.04 28.63-38.09 28.63"/><path d="M61.9 114.74c6.84 6.84 16.3 11.08 26.72 11.08v-15.81c-6.08 0-11.58-2.47-15.57-6.45l-11.17 11.16v0Z"/></g><path fill="#F38B00" d="M50.81 88.02c0 5.41 1.15 10.55 3.2 15.21l14.45-6.36c-1.2-2.72-1.87-5.71-1.87-8.86 0-12.16 9.85-22.01 22-22.01V50.19c-20.85 0-37.81 16.96-37.81 37.81"/><path fill="#435363" d="M102.33 52.78l-5.74 14.73c4.68 1.82 8.59 5.19 11.07 9.49h17.12c-3.38-11.1-11.74-20.05-22.47-24.24"/><path fill="#F38B00" d="M96.6 108.52l5.73 14.73c10.72-4.19 19.08-13.14 22.46-24.24h-17.13c-2.5 4.3-6.4 7.67-11.08 9.49"/><path fill="#435363" d="M18.67 109.17c-.25-.83-.49-1.66-.71-2.5 -.02-.06-.03-.11-.05-.16 -.21-.78-.4-1.56-.58-2.35 -.04-.17-.08-.33-.11-.49 -.16-.68-.29-1.36-.42-2.04 -.06-.31-.11-.61-.17-.92 -.1-.55-.2-1.09-.28-1.64 -.08-.47-.14-.94-.2-1.4 -.44-3.19-.67-6.43-.66-9.71H.55c-.01 3.57.22 7.1.64 10.59v0c0 .07.02.15.03.22 .11.94.24 1.89.39 2.83 .04.25.08.51.12.78 .12.77.26 1.54.41 2.31 .07.4.16.81.24 1.21 .12.61.25 1.22.39 1.82 .12.53.25 1.06.39 1.59 .11.47.23.94.36 1.42 .17.62.35 1.24.53 1.87 .07.25.14.52.22.78h0c1.03 3.4 2.25 6.73 3.67 9.96l13.68-6.02c-1.18-2.67-2.2-5.44-3.06-8.27v0Z"/><g fill="#F38B00"><path d="M88.62 161.12c-20.16 0-38.43-8.21-51.66-21.45l-10.58 10.57c15.93 15.93 37.92 25.79 62.23 25.79 44.88 0 81.92-33.61 87.34-77.03h-15.07c-5.33 35.09-35.71 62.09-72.28 62.09"/><path d="M88.62 14.92c16.37 0 31.49 5.41 43.69 14.54l8.94-12C126.56 6.48 108.34-.02 88.6-.02c-37.36 0-69.27 23.26-82.05 56.09l13.92 5.42C31.1 34.24 57.62 14.9 88.58 14.9"/></g><path fill="#435363" d="M160.89 77.02h15.06c-1.62-12.96-6.05-25.04-12.67-35.61l-12.7 7.91c5.18 8.27 8.75 17.64 10.28 27.68"/><path fill="#F38B00" d="M143.91 77.02h15.12c-3.95-25.36-21.31-46.32-44.58-55.41l-5.4 13.88c17.69 6.9 31.07 22.49 34.85 41.51"/><path fill="#435363" d="M88.62 31.65v0l0-14.89h-.01c-30.19 0-56.05 18.86-66.41 45.42l13.87 5.39c8.2-21.01 28.65-35.94 52.53-35.94"/><path fill="#F38B00" d="M32.256 88.02v0h-14.89c0 29.94 18.57 55.62 44.8 66.15l5.52-13.83c-20.75-8.33-35.45-28.65-35.45-52.33"/><path fill="#435363" d="M88.62 144.39v14.89c35.55 0 65.1-26.18 70.41-60.27H143.9c-5.14 25.83-27.97 45.37-55.29 45.37"/></g></svg>