<svg viewBox="0 0 512 79" xmlns="http://www.w3.org/2000/svg"><path fill="#34A8DD" d="M510.48 40.88c-.76 0-1.46.36-1.86.98 -1.21 1.82-2.41 3.6-3.79 5.22 -1.33 1.54-5.45 4.11-8.88 4.75l-1.36.25 .16-1.38 .15-1.31c.11-.93.22-1.82.29-2.71 .56-6.84-.03-11.93-1.93-16.54 -1.72-4.17-4.03-6.71-7.26-8.02 -1.21-.49-2.33-.74-3.33-.74 -2.22 0-4.02 1.19-5.5 3.65 -.16.25-.3.51-.48.79l-.69 1.2 -.93-.77c-.43-.35-.84-.69-1.26-1.04 -.97-.81-1.9-1.58-2.86-2.31 -.78-.59-1.68-1.1-2.62-1.63 -2.05-1.16-4.18-1.75-6.36-1.75 -3.95 0-7.98 1.93-11.04 5.32 -5.01 5.53-8.02 12.35-8.95 20.26 -.12 1-.4 2.32-1.52 3.55 -3.71 4.06-8.14 8.62-13.97 11.52 -1.26.62-2.79 1.03-4.43 1.2 -.19.02-.37.03-.54.03 -.87 0-1.54-.27-2-.78 -.49-.56-.68-1.33-.57-2.37 .26-2.31.6-4.77 1.28-7.14 1.1-3.83 2.31-7.69 3.5-11.42 .61-1.95 1.22-3.91 1.82-5.86 .33-1.12 1.03-1.64 2.24-1.69 1.5-.07 2.95-.14 4.31-.46 1.99-.46 3.43-1.4 4.16-2.71 .73-1.34.76-3.1.09-5.1 -.07-.18-.13-.34-.2-.5l-7.33.7 .28-1.36c.13-.67.27-1.3.4-1.92 .3-1.39.59-2.72.81-4.02 .38-2.27.6-4.91-.67-7.34 -1.41-2.7-4.31-4.37-7.58-4.37 -.73 0-1.46.08-2.19.25 -5.41 1.26-9.5 4.67-12.48 7.62l1.79 9.89 -1.03.16c-.52.09-.99.16-1.42.22 -.88.13-1.64.24-2.36.42 -1.89.46-3.11 1.25-3.63 2.33 -.53 1.07-.37 2.52.43 4.3 .14.33.31.65.48.95l6.51-1.18 -.27 1.44c-.16.83-.29 1.66-.42 2.46 -.52 3.21-1 6.25-2.78 9.15 -5.67 9.25-11.76 15.67-19.15 20.19 -2.22 1.35-5.22 2.96-8.7 3.39 -.75.09-1.48.14-2.19.14 -3.63 0-6.7-1.17-8.88-3.36 -2.17-2.18-3.29-5.24-3.27-8.87l.01-1.36 1.3.38c.4.13.81.25 1.22.38 .76.23 1.51.46 2.27.68 1.61.43 3.28.66 4.94.66 10.42-.02 18.83-8.28 19.14-18.84 .18-6.45-2.45-11-7.82-13.53 -2.19-1.03-4.51-1.53-7.12-1.53 -1.33 0-2.75.14-4.22.4 -7.49 1.37-13.66 5.65-18.86 13.09 -2.02 2.86-3.65 6.14-5.29 10.63 -.6 1.61-1.52 3.28-2.81 5.11 -2.14 3.02-4.82 6.44-8.47 9 -1.39.97-2.92 1.68-4.42 2.05 -.35.08-.71.12-1.05.12 -1.07 0-2-.41-2.67-1.15 -.67-.75-.96-1.77-.83-2.87 .31-2.73.87-5 1.7-6.98 .91-2.2 1.97-4.36 3.01-6.45 .83-1.7 1.7-3.44 2.46-5.19 1.44-3.27 1.99-6.35 1.68-9.4 -.53-4.98-3.81-7.95-8.78-7.95 -.24 0-.47.01-.71.02 -4.22.23-7.81 2.14-11.12 4.07 -1.26.73-2.49 1.54-3.81 2.4 -.64.41-1.29.84-1.99 1.29l-3.12 2 1.64-3.32 .3-.64c.16-.34.29-.61.43-.86 2.01-3.75 4.01-7.83 4.85-12.22 .28-1.47.35-2.97.21-4.35 -.22-2.21-1.43-3.41-3.41-3.41 -.44 0-.92.06-1.42.18 -2.19.53-4.28 1.7-6.39 3.58 -6.02 5.37-9.06 11.31-9.26 18.17 -.11 3.68.96 6.28 3.7 8.99l.56.56 -.4.68c-.42.71-.84 1.43-1.25 2.16 -.93 1.62-1.88 3.29-2.93 4.89 -4.91 7.47-10.54 13.08-17.19 17.11 -2.4 1.45-5.32 2.98-8.71 3.38 -.73.08-1.45.12-2.15.12 -7.18 0-11.85-4.47-12.21-11.68 -.02-.23.02-.4.05-.55l.03-.17 .19-1.15 1.11.33c.41.13.83.26 1.24.39 .86.27 1.68.54 2.5.74 1.54.38 3.1.58 4.66.58 5.61 0 10.96-2.53 14.68-6.92 3.64-4.32 5.2-9.96 4.26-15.48 -1.03-6.05-6.03-10.67-12.17-11.24 -.91-.09-1.81-.14-2.7-.14 -8.13 0-15.1 3.67-21.32 11.22 -2.43 2.93-4.14 6.33-5.96 10.15 -1.66 3.46-4.82 5.59-7.05 6.88 -2.07 1.18-3.88 1.73-5.73 1.73 -.2 0-.39 0-.59-.02l-1.28-.09 .35-1.23c.25-.84.51-1.68.75-2.49 .56-1.83 1.09-3.55 1.53-5.31 1.31-5.4 1.46-9.8.47-13.85 -1.11-4.45-4.03-6.91-8.24-6.91 -.45 0-.92.02-1.4.09 -2.18.24-3.97 1.48-5.47 3.78 -2.45 3.76-3.53 8.3-3.35 14.3 .16 5.62 1.51 10.21 4.11 14.01 .36.54.53 1.5.16 2.16 -1.68 2.84-3.67 5.71-6.91 7.34 -1.37.68-2.74 1.03-4.08 1.03 -2.78 0-5.22-1.47-6.88-4.15 -1.8-2.89-2.74-6.27-2.88-10.34 -.28-7.85 1.46-15.17 5.18-21.77l.06-.12c.09-.2.23-.49.51-.73 .9-.79.88-1.36-.11-3.07 -1.68-2.91-4.6-4.65-7.82-4.65 -2.7 0-5.3 1.19-7.31 3.34 -3.05 3.25-5.02 7.46-6.21 13.25 -.35 1.68-.56 3.43-.76 5.14 -.11.91-.22 1.83-.34 2.74 -.09.53-.21 1.14-.55 1.66 -5.7 8.65-12.1 14.74-19.58 18.65 -3.05 1.58-5.87 2.35-8.66 2.35 -1.47 0-2.94-.23-4.39-.66 -4.9-1.49-8.05-6.16-7.81-11.62l.06-1.32 1.26.37c.39.12.78.24 1.18.37 .76.23 1.53.47 2.3.69 1.61.43 3.27.66 4.93.66 10.43-.02 18.84-8.28 19.15-18.83 .18-6.46-2.45-11.01-7.82-13.53 -2.19-1.04-4.51-1.54-7.12-1.54 -1.33 0-2.75.14-4.21.4 -7.51 1.37-13.67 5.65-18.87 13.08 -2.29 3.26-4.03 6.79-5.16 10.48 -.93 2.98-2.87 5.23-4.76 7.4l-.09.1c-2.3 2.65-4.94 5.03-6.97 6.81 -.82.7-2.08 1.17-3.75 1.37 -.19.03-.35.04-.52.04 -1.02 0-1.6-.42-1.9-.78 -.48-.56-.66-1.31-.53-2.25 .31-2.28.72-4.08 1.27-5.66 .72-2.08 1.52-4.16 2.28-6.17 .93-2.45 1.9-4.99 2.74-7.51 1.68-5.03 1.26-9.21-1.27-12.82 -2.09-2.98-5.21-4.37-9.82-4.37h-.26c-6.02.07-12.93.83-18.8 6.35 -.23.21-.44.56-.69.88 -.32.44-.15.21-.53.77l-.64.88 -.02.05 -.02-.03 .02-.04 .15-.58c.34-1.24.69-2.47 1.04-3.71 .79-2.83 1.61-5.75 2.32-8.64l.31-1.27c.68-2.71 1.38-5.51 1.56-8.24 .28-4.29-2.66-7.76-6.97-8.25 -.22-.03-.39-.1-.54-.18h-2.28c-4.71 1.11-9.06 3.68-13.3 7.85 -.07.06-.15.19-.19.29 1.61 4.3 1.44 8.78 1.07 12.6 -.62 6.24-1.46 12.89-2.66 20.9 -.26 1.67-1.29 3.18-2.22 4.55 -5.6 8.17-11.98 14.1-19.54 18.11 -3.54 1.87-6.6 2.76-9.7 2.77 -5.15 0-9.66-3.69-10.73-8.78 -1.09-5.09-.41-10.35 2.12-16.55 1.25-3.11 3.17-7.05 6.8-9.93 .95-.77 2.18-1.37 3.44-1.7 .51-.13 1.01-.2 1.47-.2 1.24 0 2.32.46 3.03 1.31 .78.93 1.06 2.27.79 3.77 -.38 2.08-1.1 4.1-1.86 6.16 -.46 1.23-1.15 2.54-2.03 3.87 -.25.36-.3.48.16.97 1.11 1.18 2.5 1.76 4.25 1.76 .38 0 .81-.04 1.24-.1 3.37-.48 6.25-2.21 8.11-4.86 1.87-2.7 2.52-6.06 1.79-9.45 -1.63-7.62-7.34-11.97-15.67-11.97 -.25 0-.51 0-.76.01 -7.31.22-13.69 3.32-18.94 9.23C1.88 38.26-1.64 48.04-.97 58.79c.51 8.18 4.17 13.75 10.88 16.54 2.62 1.09 5.41 1.62 8.55 1.62 1.53 0 3.17-.14 4.87-.39 8.86-1.36 16.76-5.55 24.87-13.15 .9-.85 1.83-1.67 2.66-2.39l.94-.84 1.83-1.64 -.15 2.45c-.04.52-.08 1.09-.13 1.68 -.12 1.42-.24 3.03-.2 4.61 .05 1.62.33 3.23.82 4.67 .97 2.82 3.4 4.37 6.91 4.37 2.61-.02 4.85-.73 6.64-2.11 .26-.21.44-.51.46-.63 .47-2.57.92-5.14 1.38-7.7 .7-4.01 1.43-8.15 2.24-12.2 .64-3.23 1.44-6.46 2.23-9.59 .28-1.12.56-2.24.83-3.36 .11-.44.38-1.25 1.01-1.7 3.19-2.28 6.13-3.34 9.27-3.34h.12c1.63.02 2.98.55 3.93 1.53 .89.92 1.35 2.2 1.31 3.66 -.08 2.43-.4 4.94-.97 7.46 -.53 2.27-1.13 4.55-1.71 6.75 -.67 2.5-1.35 5.08-1.9 7.64 -.65 2.95-.42 5.94.66 8.64 1.2 3.01 3.61 4.64 7.14 4.85 .3.02.6.02.9.02 3.42 0 6.77-1.15 10.54-3.61 3.97-2.6 7.59-6.07 11.71-11.25l.15-.2c.14-.2.29-.38.45-.58 .25-.29.57-.36.63-.37l.96-.35 .33.97c.2.62.39 1.23.59 1.85 .41 1.34.8 2.61 1.35 3.8 2.7 5.86 7.41 9.12 14.39 9.97 1.28.16 2.58.23 3.85.23 5.52 0 11.01-1.42 16.78-4.35 6.96-3.55 13.12-8.78 18.28-15.57 .19-.27.4-.52.59-.73l1.09-1.34 .64 1.61c.41 1.05.81 2.12 1.22 3.2 .89 2.39 1.83 4.88 2.95 7.22 1.7 3.52 4.19 6.19 7.38 7.97 2.54 1.39 5.2 2.11 7.92 2.11 2.33 0 4.79-.53 7.31-1.57 5.61-2.31 9.52-6.71 12.3-10.29 .95-1.23 1.84-2.58 2.7-3.87 .55-.84 1.1-1.68 1.67-2.49 .09-.13.87-1.2 1.97-1.2h.01c.62.04 1.24.07 1.86.07 4 0 7.5-.89 10.7-2.72l1.32-.76 .19 1.51c.09.74.17 1.47.24 2.2 .16 1.53.3 2.97.64 4.36 2.16 9.15 8.23 14.04 18.05 14.52 .55.03 1.09.04 1.62.04 5.62 0 11.27-1.47 16.8-4.36 12.05-6.31 20.75-16.19 26.59-30.2 .23-.56.41-1.13.62-1.73 .18-.57.36-1.12.57-1.67 .23-.59.81-1.28 1.52-1.41 .55-.11 1.1-.22 1.64-.33 1.78-.36 3.62-.73 5.48-.78l.17-.02c1.59 0 2.97.61 3.9 1.71 .95 1.14 1.31 2.7 1.02 4.38 -.37 2.05-.98 4.1-1.82 6.08 -1.89 4.47-3.73 9.34-4.3 14.55 -.49 4.36.14 7.4 2.04 9.86 1.73 2.25 4.13 3.3 7.55 3.3 .53 0 1.09-.03 1.67-.08 3.58-.32 7.04-1.7 11.22-4.49 3.81-2.55 7.39-5.81 10.94-9.99 .22-.27.46-.53.71-.83l1.68-1.91 .51 1.81c.13.46.24.93.36 1.37 .23.89.45 1.75.74 2.55 2.49 7.06 7.5 10.94 15.3 11.87 1.23.14 2.48.21 3.72.21 5.48 0 10.98-1.42 16.79-4.36 6.23-3.16 11.7-7.61 16.73-13.6 .14-.18.28-.34.5-.58l2.23-2.55v2.7c0 .71-.03 1.4-.04 2.07 -.05 1.36-.09 2.66.08 3.87 .3 2.21.68 4.55 1.56 6.58 1.45 3.36 4.37 5.3 7.98 5.3 1.48 0 3.02-.33 4.58-.98 6.68-2.81 12.1-7.5 16.08-11.26 1.74-1.65 3.36-3.35 5.09-5.16 .77-.82 1.55-1.63 2.33-2.44l1.15-1.19 .53 1.57c.19.55.37 1.1.55 1.66 .39 1.2.8 2.43 1.27 3.61 2.8 6.91 7.12 11.33 13.2 13.51 2.48.88 5.03 1.33 7.55 1.33 2.7 0 5.43-.52 8.14-1.55 8-3.04 14.06-8.25 18.04-15.53 .89-1.64 2.05-2.11 3.51-2.29 7.02-.91 11.9-7.24 14.56-11.55 .69-1.14 1.27-2.4 1.83-3.63 .24-.54.49-1.08.75-1.6v-.35c-.34-.48-.88-.74-1.52-.74v0Zm-146.71 5.49c1.57-5.68 3.76-11.45 9.15-15.35 .81-.6 1.84-1.08 3.08-1.42 .48-.14.9-.2 1.3-.2 1.53 0 2.55.91 3.04 2.73 .79 2.97-.1 5.74-.83 7.56 -2.15 5.32-6.34 8.25-11.8 8.25 -1.03 0-2.1-.12-3.18-.32l-1.09-.22 .29-1.07v0Zm-108.73.09c1.58-5.74 3.78-11.6 9.25-15.5 .77-.57 1.79-1.02 3.1-1.38 .42-.13.83-.19 1.22-.19 1.57 0 2.68 1.01 2.95 2.68 .29 1.79.29 3.56-.02 5.11 -1.28 6.45-6.36 10.81-12.67 10.83 -.68 0-1.33-.09-2.02-.18 -.31-.05-.64-.08-.96-.12l-1.21-.13 .31-1.17v0Zm-117.57 0c1.58-5.74 3.79-11.6 9.24-15.5 .78-.57 1.8-1.02 3.1-1.38 .42-.13.84-.19 1.23-.19 1.57 0 2.68.99 2.95 2.67 .29 1.8.29 3.57-.02 5.11 -1.27 6.46-6.35 10.82-12.66 10.84 -.68 0-1.32-.09-2.01-.17 -.32-.05-.66-.09-.99-.13l-1.22-.12 .32-1.18v0ZM478.31 52c-.69 4.91-2.86 8.63-6.45 11.02 -1.56 1.03-3.24 1.58-4.87 1.58 -3.29 0-6.1-2.24-7.32-5.85 -1.52-4.47-1.4-9.32.33-14.84 1.55-4.92 4.01-8.49 7.52-10.93 1.76-1.23 4-1.96 5.96-1.96 .1 0 .2 0 .3.01l.97.03v.98c0 .78-.02 1.57-.03 2.35 -.03 1.7-.07 3.45.05 5.16 .23 3.66 1.23 7.17 2.97 10.42 .26.49.61 1.23.5 1.98v0Z"/></svg>