<svg viewBox="0 0 256 259" xmlns="http://www.w3.org/2000/svg"><g fill="#343434"><path d="M126.15 98.41a30.59 30.59 0 1 0 0 61.18 30.59 30.59 0 1 0 0-61.19Z"/><path d="M1.2 96.57c0 .36-.37 1.1-.37 1.47 0 3.31 2.58 6.26 6.26 6.26h51.97c2.58 0 4.42-1.48 5.52-3.69 10.68-23.6 34.27-39.44 61.18-39.44 37.22 0 67.45 30.22 67.45 67.45 0 37.22-30.23 67.45-67.46 67.45 -27.28 0-50.5-16.22-61.19-39.08 -1.11-2.59-2.95-4.06-5.53-4.06H7.05c-3.32 0-6.27 2.58-6.27 6.26 0 .36 0 1.1.36 1.47 14.37 56.02 64.87 97.3 124.95 97.3 71.13 0 129-57.87 129-129.01 0-71.14-57.87-129.01-129.01-129.01C65.99-.06 15.5 41.22 1.12 96.51v0Z"/></g></svg>