<svg viewBox="0 0 256 256" xmlns="http://www.w3.org/2000/svg"><path d="M128 0a128 128 0 1 0 0 256 128 128 0 1 0 0-256Z"/><path fill="#FAFAFA" d="M164.96 70.5c12.59 0 22.79 10.24 22.79 22.86 0 6.92-3.07 13.12-7.92 17.31 4.84 4.19 7.91 10.39 7.91 17.31 0 6.92-3.07 13.12-7.92 17.31 4.84 4.19 7.91 10.39 7.91 17.31 0 12.49-10 22.65-22.42 22.86l-.38 0H73.74c-3.07 0-5.55-2.49-5.55-5.55 0-3 2.37-5.44 5.35-5.55l.19-.01h91.18c6.46 0 11.7-5.27 11.7-11.78 0-6.43-5.11-11.64-11.45-11.78l-.26-.01H73.71c-3.07 0-5.55-2.49-5.55-5.55 0-3 2.37-5.44 5.35-5.55l.19-.01h91.18c6.46 0 11.7-5.27 11.7-11.78 0-6.43-5.11-11.64-11.45-11.78l-.26-.01H73.68c-3.07 0-5.55-2.49-5.55-5.55 0-3 2.37-5.44 5.35-5.55l.19-.01h91.18c6.46 0 11.7-5.27 11.7-11.78 0-6.43-5.11-11.64-11.45-11.78l-.26-.01c-3.07 0-5.55-2.49-5.55-5.55 0-3.07 2.48-5.55 5.54-5.55Z"/></svg>