<svg viewBox="0 0 256 256" xmlns="http://www.w3.org/2000/svg"><path fill="#FFF" d="M127.99 0C57.41 0-.01 57.423-.01 128.001c0 70.584 57.42 128.004 127.99 128.004s128-57.42 128-128.004C255.98 57.423 198.557 0 127.97 0"/><g transform="translate(12 12)"><g fill="#91DC47"><path d="M111.31 118.303c-1.15 2.49-2.42 5.29-3.74 8.27 -4.65 10.52-9.79 23.33-11.67 31.53 -.68 2.92-1.1 6.54-1.09 10.55 0 1.58.08 3.25.22 4.95 6.56 2.41 13.66 3.74 21.06 3.75 6.74-.02 13.22-1.13 19.28-3.15 -1.43-1.31-2.79-2.7-4.03-4.26 -8.22-10.482-12.81-25.85-20.07-51.68"/><path d="M80.97 66.225c-15.7 11.06-25.972 29.31-26.02 49.99 .03 20.37 10.003 38.38 25.3 49.49 3.75-15.637 13.16-29.96 27.27-58.66 -.84-2.31-1.8-4.83-2.87-7.47 -3.91-9.81-9.56-21.2-14.59-26.351 -2.57-2.7-5.69-5.03-9.13-7.01"/></g><path fill="#63B132" d="M169.394 186.36c-8.1-1.02-14.79-2.24-20.64-4.31 -9.84 4.88-20.92 7.64-32.65 7.64 -40.584 0-73.483-32.9-73.488-73.49 0-22.03 9.704-41.78 25.05-55.24 -4.11-1-8.39-1.58-12.77-1.57 -21.57.2-44.33 12.13-53.8 44.36 -.89 4.69-.68 8.238-.68 12.44 0 63.88 51.79 115.67 115.67 115.67 39.12 0 73.68-19.44 94.61-49.17 -11.32 2.82-22.21 4.17-31.53 4.19 -3.5 0-6.78-.19-9.82-.56"/><path fill="#90B4FE" d="M147.65 163.95c.71.35 2.33.93 4.58 1.57 15.15-11.13 25-29.05 25.04-49.31h-.01c-.06-33.78-27.39-61.1-61.17-61.17 -6.72.01-13.17 1.12-19.21 3.12 12.41 14.15 18.39 34.38 24.16 56.51 0 .01 0 .01.01.02s1.84 6.14 5 14.27c3.13 8.11 7.59 18.16 12.46 25.49 3.19 4.9 6.7 8.43 9.1 9.47"/><path fill="#5881D8" d="M116.12.54C77.376.54 43.1 19.61 22.11 48.858c10.92-6.85 22.08-9.31 31.81-9.23 13.44.03 24.01 4.2 29.089 7.06 1.22.7 2.38 1.46 3.52 2.24 9.05-3.99 19.05-6.22 29.57-6.22 40.589 0 73.493 32.89 73.499 73.488h-.01c0 20.464-8.37 38.96-21.87 52.291 3.31.37 6.84.6 10.45.58 12.81 0 26.65-2.83 37.03-11.56 6.76-5.71 12.44-14.06 15.58-26.57 .61-4.84.96-9.75.96-14.76 0-63.89-51.79-115.68-115.68-115.68"/></g></svg>