<svg viewBox="0 0 256 256" xmlns="http://www.w3.org/2000/svg"><g fill="#49BC82"><path d="M194.21 167.13c.49-3.54.91-7.14 1.26-10.8 -3.81 4.6-7.84 9.18-12.11 13.71 3.75-.89 7.37-1.87 10.83-2.92ZM62.56 90.04c-.51 3.5-.95 7.07-1.31 10.7 3.74-4.58 7.72-9.13 11.93-13.63 -3.69.88-7.23 1.86-10.64 2.91Zm134.05 28.77c2.04-3.31 3.91-6.57 5.62-9.79 -2.19-2.89-4.47-5.77-6.84-8.64 .6 5.99 1.01 12.14 1.21 18.42ZM54.63 147.59c2.09 2.8 4.27 5.59 6.54 8.38 -.55-5.83-.93-11.81-1.12-17.91 -1.97 3.21-3.78 6.38-5.44 9.51Zm112.02 46.9c-1.58 5.01-3.32 9.73-5.21 14.09 -3.01 6.92-6.38 12.97-10.02 18.03 -6.92 9.62-14.8 15.67-22.99 17.26 -8.63-1.86-16.64-7.96-23.54-17.49 -6.79 2.54-13.41 4.35-19.79 5.36 2.05 2.85 4.23 5.49 6.54 7.88 9.92 10.27 18.6 16.13 36.66 16.13 18.06 0 28.29-6.64 38.54-18.17 1.54-1.74 3.02-3.6 4.44-5.56 3.8-5.22 7.19-11.18 10.15-17.79 3.28-7.35 6.04-15.48 8.27-24.24 -7.3 1.84-15.03 3.32-23.1 4.43Zm-.16-175.11C156.16 7.58 146.17.78 128.32.78c-17.86 0-24.2 5.02-33.67 13.92 -3.24 3.03-6.25 6.54-9.06 10.43 -3.66 5.07-6.95 10.84-9.85 17.2 -3.46 7.55-6.37 15.94-8.72 24.99 7.23-1.89 14.89-3.42 22.89-4.58 1.61-5.24 3.41-10.15 5.37-14.68 2.91-6.74 6.19-12.65 9.73-17.65 6.98-9.88 15-16.17 23.39-17.99 8.31 1.54 16.3 7.73 23.29 17.6 6.53-2.48 12.92-4.24 19.1-5.24 -1.4-1.92-2.84-3.75-4.34-5.47Zm.41 43.3c-3.45-.48-6.96-.89-10.53-1.24 4.5 3.69 8.98 7.61 13.41 11.76 -.88-3.65-1.85-7.16-2.89-10.54ZM89.81 194.32c3.59.52 7.25.97 10.97 1.33 -4.68-3.86-9.33-7.95-13.93-12.28 .89 3.79 1.87 7.43 2.94 10.93Zm143.06-15.99c-.14-2.26-.4-4.56-.76-6.88 -.99-6.39-2.79-13.01-5.37-19.79 -2.9-7.63-6.76-15.44-11.46-23.33 -3.85 6.46-8.26 12.98-13.18 19.48 2.5 4.78 4.66 9.47 6.44 14 2.76 7.03 4.64 13.69 5.63 19.85 1.86 11.59.55 21.37-4.08 28.24 -7.35 4.74-17.2 6.11-28.68 4.32 -2.96 6.6-6.35 12.56-10.16 17.78 3.34.52 6.62.83 9.83.88 14.29.24 24.56-1.75 37.33-14.52 12.77-12.78 15.31-24.7 14.4-40.11ZM78.28 24.27c-15.65-1.05-27.52 1.21-40.14 13.83 -12.63 12.62-13.56 20.66-13.96 33.65 -.14 4.49.21 9.16 1.01 13.97 1.02 6.16 2.78 12.56 5.23 19.1 2.87 7.67 6.68 15.54 11.34 23.48 3.78-6.45 8.12-12.94 12.97-19.41 -2.49-4.72-4.64-9.34-6.42-13.81 -2.72-6.83-4.59-13.32-5.64-19.35 -2.1-12.03-.89-22.22 3.78-29.49 7.03-4.84 17.18-6.09 29.25-3.97 2.9-6.36 6.19-12.13 9.84-17.21 -2.48-.41-4.91-.7-7.31-.86Zm117.07 76.07c-.35-3.47-.77-6.87-1.25-10.22 -1.17-8.09-2.71-15.83-4.62-23.13 -2.3-8.77-5.11-16.91-8.44-24.26 -6.03 1.01-12.53 2.87-19.38 5.57 1.89 4.43 3.62 9.24 5.19 14.34 1.03 3.37 2 6.88 2.88 10.53 .89 3.72 1.7 7.59 2.42 11.57 1.36 7.6 2.37 15.66 2.99 24.09 .45 6.23.71 12.66.71 19.28 0 6.67-.26 13.15-.73 19.43 5.6-6.47 10.65-12.92 15.1-19.27 2.25-3.22 4.33-6.41 6.28-9.57 -.21-6.28-.62-12.43-1.22-18.43ZM89.79 194.29c-1.07-3.5-2.06-7.15-2.95-10.94 -.85-3.6-1.63-7.32-2.3-11.17 -1.37-7.74-2.36-15.98-2.97-24.63 -.44-6.27-.68-12.74-.68-19.42 0-6.67.25-13.13.71-19.39 -5.62 6.48-10.67 12.97-15.14 19.39 -2.31 3.31-4.47 6.6-6.46 9.86 .19 6.09.56 12.07 1.11 17.9 .34 3.69.76 7.33 1.25 10.89 1.1 7.99 2.57 15.63 4.39 22.85 2.24 8.88 5.02 17.11 8.35 24.54 6.16-1.03 12.82-2.92 19.82-5.7 -1.9-4.41-3.63-9.17-5.18-14.24Zm19.28-139.77c-2.94 2.21-5.87 4.53-8.79 6.95 6.11-.62 12.39-1.04 18.81-1.24 -3.39-2.09-6.73-3.99-10.03-5.73ZM46.23 210.34c-4.84-7.04-6.09-17.19-3.97-29.26 -6.36-2.91-12.13-6.2-17.21-9.85 -.41 2.47-.7 4.9-.86 7.3 -1.05 15.64 1.21 27.51 13.83 40.13 12.62 12.62 20.66 13.55 33.65 13.96 4.3.13 8.77-.2 13.37-.92 -3.73-5.16-7.04-11.02-9.95-17.51 -11.77 1.95-21.76.71-28.9-3.88Zm62.65-8.28c-4.76 2.5-9.42 4.67-13.93 6.46 2.93 6.83 6.26 12.81 9.9 17.83 7.6-2.86 15.4-6.64 23.28-11.25 -6.4-3.82-12.84-8.19-19.26-13.06Zm38.76.04c2.74-2.06 5.49-4.2 8.22-6.44 -5.71.53-11.56.9-17.52 1.09 3.13 1.92 6.23 3.7 9.28 5.33Zm-52.69 6.41c-7.01 2.77-13.66 4.67-19.83 5.69 2.9 6.48 6.21 12.35 9.94 17.5 6.38-1.01 13-2.82 19.78-5.37 -3.64-5.03-6.97-11.01-9.91-17.84Zm123.4-170.16c-12.78-12.78-24.7-15.32-40.11-14.41 -2.46.14-4.95.43-7.48.84 -6.18.99-12.57 2.76-19.11 5.23 -7.7 2.91-15.58 6.81-23.54 11.56 6.51 3.81 13.08 8.19 19.63 13.08 4.74-2.49 9.39-4.63 13.89-6.4 6.84-2.7 13.34-4.56 19.37-5.58 11.85-2.01 21.84-.74 28.82 3.98 4.74 7.34 6.11 17.19 4.32 28.67 6.6 2.95 12.56 6.34 17.78 10.15 .52-3.35.83-6.63.88-9.84 .24-14.29-1.75-24.57-14.52-37.34Zm-9.87 57.04c-1.76 4.39-3.87 8.92-6.33 13.54 -1.71 3.21-3.59 6.48-5.63 9.78 -1.96 3.15-4.04 6.34-6.29 9.56 -4.46 6.35-9.51 12.8-15.11 19.26 -4.2 4.84-8.7 9.7-13.53 14.52 -4.69 4.68-9.41 9.04-14.13 13.12 8.61-.61 16.81-1.6 24.52-2.95 3.88-.69 7.63-1.46 11.26-2.32 4.26-4.54 8.3-9.12 12.1-13.72 2.32-2.82 4.56-5.63 6.69-8.45 4.92-6.51 9.33-13.02 13.17-19.49 4.6-7.74 8.38-15.41 11.25-22.9 -5.07-3.65-11.12-7.02-18.04-10.02ZM84.59 84.62c-3.96.71-7.79 1.51-11.49 2.4 -4.22 4.49-8.2 9.04-11.94 13.62 -2.25 2.73-4.4 5.48-6.46 8.23 -4.85 6.46-9.19 12.95-12.98 19.4 -4.67 7.94-8.5 15.81-11.39 23.49 4.99 3.53 10.9 6.81 17.64 9.73 1.81-4.54 4.01-9.23 6.55-14.01 1.66-3.14 3.46-6.31 5.43-9.52 1.99-3.26 4.15-6.55 6.45-9.87 4.47-6.42 9.52-12.92 15.13-19.4 4-4.63 8.28-9.25 12.85-13.82 4.75-4.76 9.54-9.18 14.34-13.31 -8.48.62-16.57 1.64-24.2 3.01Zm152.92 5.33c-1.74-1.55-3.6-3.03-5.55-4.45 -5.22-3.81-11.19-7.2-17.79-10.16 -7.48-3.35-15.78-6.15-24.73-8.4 1.9 7.3 3.45 15.04 4.61 23.12 5.13 1.6 9.95 3.37 14.4 5.3 6.92 3 12.97 6.37 18.03 10.01 9.62 6.91 15.67 14.79 17.26 22.98 -1.83 8.5-7.78 16.4-17.07 23.23 2.57 6.77 4.37 13.39 5.36 19.78 2.69-1.98 5.19-4.05 7.46-6.25 10.27-9.93 16.13-18.61 16.13-36.67 0-18.07-6.64-28.3-18.17-38.55ZM62.35 166.78c-5.12-1.6-9.93-3.36-14.36-5.28 -6.75-2.92-12.65-6.2-17.65-9.74 -9.88-6.99-16.17-15.01-17.99-23.39 1.56-8.44 7.9-16.54 18.02-23.6 -2.46-6.55-4.22-12.94-5.24-19.11 -2.08 1.48-4.05 3.02-5.89 4.63C7.44 100.61.64 110.6.64 128.45c0 17.85 5.02 24.19 13.92 33.66 3.03 3.23 6.54 6.24 10.43 9.04 5.07 3.65 10.84 6.94 17.2 9.84 7.41 3.38 15.64 6.25 24.5 8.58 -1.83-7.23-3.3-14.87-4.4-22.86Zm66.09-100.43c-3.15-2.19-6.28-4.25-9.39-6.16 -6.42.19-12.7.61-18.82 1.23 -3.52.35-6.99.77-10.39 1.26 -8.01 1.15-15.66 2.68-22.9 4.57 -8.79 2.29-16.95 5.11-24.32 8.44 1.05 6.03 2.92 12.52 5.63 19.34 4.39-1.87 9.13-3.59 14.17-5.14 3.4-1.06 6.94-2.03 10.63-2.92 3.69-.9 7.52-1.7 11.48-2.41 7.63-1.38 15.72-2.4 24.19-3.02 6.23-.46 12.66-.72 19.28-.72 6.87 0 13.54.27 19.99.76 -6.56-5.69-13.13-10.79-19.62-15.3Zm80.07 95.42c-4.45 1.91-9.27 3.66-14.41 5.23 -3.47 1.05-7.09 2.03-10.84 2.91 -3.64.85-7.39 1.63-11.27 2.31 -7.72 1.35-15.92 2.34-24.53 2.94 -6.27.43-12.74.67-19.42.67 -6.47 0-12.75-.24-18.83-.68 6.39 5.53 12.76 10.53 19.05 14.94 3.37 2.36 6.72 4.55 10.03 6.59 5.96-.2 11.8-.57 17.51-1.1 3.63-.35 7.21-.76 10.72-1.24 8.07-1.11 15.8-2.59 23.09-4.44 8.85-2.25 17.07-5.03 24.48-8.34 -.99-6.16-2.87-12.83-5.64-19.86Zm-60.91 40.29c-3.06-1.63-6.16-3.41-9.29-5.34 -3.32-2.04-6.66-4.23-10.04-6.6 -6.29-4.42-12.67-9.41-19.06-14.95 -4.86-4.21-9.73-8.72-14.57-13.57 -4.69-4.69-9.05-9.41-13.13-14.13 .6 8.64 1.59 16.88 2.96 24.62 .67 3.85 1.45 7.56 2.29 11.16 4.6 4.32 9.25 8.42 13.92 12.27 2.7 2.22 5.41 4.38 8.12 6.43 6.42 4.86 12.86 9.23 19.25 13.05 7.85 4.69 15.63 8.55 23.23 11.46 3.64-5.07 7.01-11.12 10.01-18.04 -4.46-1.79-9.06-3.94-13.75-6.44ZM172.12 84.7c-.72-3.99-1.53-7.86-2.43-11.58 -4.43-4.15-8.91-8.08-13.42-11.77 -2.85-2.34-5.71-4.58-8.57-6.72 -6.55-4.9-13.12-9.28-19.64-13.09 -7.83-4.58-15.59-8.34-23.15-11.19 -3.54 4.99-6.82 10.9-9.74 17.64 4.46 1.79 9.08 3.95 13.79 6.44 3.29 1.74 6.64 3.64 10.02 5.72 3.1 1.9 6.23 3.96 9.38 6.15 6.48 4.5 13.05 9.61 19.61 15.29 4.6 3.99 9.21 8.26 13.77 12.82 4.75 4.75 9.17 9.54 13.3 14.33 -.62-8.44-1.64-16.5-3-24.1Z"/><path d="M194.21 167.13c.49-3.54.91-7.14 1.26-10.8 -3.81 4.6-7.84 9.18-12.11 13.71 3.75-.89 7.37-1.87 10.83-2.92"/><path d="M62.56 90.05c-.51 3.5-.95 7.07-1.31 10.7 3.74-4.58 7.72-9.13 11.93-13.63 -3.69.88-7.23 1.86-10.64 2.91"/></g><g fill="#57B6DF"><path d="M196.61 118.83c2.04-3.31 3.91-6.57 5.62-9.79 -2.19-2.89-4.47-5.77-6.84-8.64 .6 5.99 1.01 12.14 1.21 18.42"/><path d="M54.64 147.61c2.09 2.8 4.27 5.59 6.54 8.38 -.55-5.83-.93-11.81-1.12-17.91 -1.97 3.21-3.78 6.38-5.44 9.51"/></g><g fill="#49BC82"><path d="M166.66 194.52c-1.58 5.01-3.32 9.73-5.21 14.09 -3.01 6.92-6.38 12.97-10.02 18.03 -6.92 9.62-14.8 15.67-22.99 17.26 -8.63-1.86-16.64-7.96-23.54-17.49 -6.79 2.54-13.41 4.35-19.79 5.36 2.05 2.85 4.23 5.49 6.54 7.88 9.92 10.27 18.6 16.13 36.66 16.13 18.06 0 28.29-6.64 38.54-18.17 1.54-1.74 3.02-3.6 4.44-5.56 3.8-5.22 7.19-11.18 10.15-17.79 3.28-7.35 6.04-15.48 8.27-24.24 -7.3 1.84-15.03 3.32-23.1 4.43"/><path d="M166.51 19.42C156.18 7.62 146.19.82 128.34.82c-17.86 0-24.2 5.02-33.67 13.92 -3.24 3.03-6.25 6.54-9.06 10.43 -3.66 5.07-6.95 10.84-9.85 17.2 -3.46 7.55-6.37 15.94-8.72 24.99 7.23-1.89 14.89-3.42 22.89-4.58 1.61-5.24 3.41-10.15 5.37-14.68 2.91-6.74 6.19-12.65 9.73-17.65 6.98-9.88 15-16.17 23.39-17.99 8.31 1.54 16.3 7.73 23.29 17.6 6.53-2.48 12.92-4.24 19.1-5.24 -1.4-1.92-2.84-3.75-4.34-5.47"/></g><g fill="#276392"><path d="M166.93 62.72c-3.45-.48-6.96-.89-10.53-1.24 4.5 3.69 8.98 7.61 13.41 11.76 -.88-3.65-1.85-7.16-2.89-10.54"/><path d="M89.84 194.36c3.59.52 7.25.97 10.97 1.33 -4.68-3.86-9.33-7.95-13.93-12.28 .89 3.79 1.87 7.43 2.94 10.93"/></g><g fill="#57B6DF"><path d="M232.91 178.38c-.14-2.26-.4-4.56-.76-6.88 -.99-6.39-2.79-13.01-5.37-19.79 -2.9-7.63-6.76-15.44-11.46-23.33 -3.85 6.46-8.26 12.98-13.18 19.48 2.5 4.78 4.66 9.47 6.44 14 2.76 7.03 4.64 13.69 5.63 19.85 1.86 11.59.55 21.37-4.08 28.24 -7.35 4.74-17.2 6.11-28.68 4.32 -2.96 6.6-6.35 12.56-10.16 17.78 3.34.52 6.62.83 9.83.88 14.29.24 24.56-1.75 37.33-14.52 12.77-12.78 15.31-24.7 14.4-40.11"/><path d="M78.32 24.33c-15.65-1.05-27.52 1.21-40.14 13.83 -12.63 12.62-13.56 20.66-13.96 33.65 -.14 4.49.21 9.16 1.01 13.97 1.02 6.16 2.78 12.56 5.23 19.1 2.87 7.67 6.68 15.54 11.34 23.48 3.78-6.45 8.12-12.94 12.97-19.41 -2.49-4.72-4.64-9.34-6.42-13.81 -2.72-6.83-4.59-13.32-5.64-19.35 -2.1-12.03-.89-22.22 3.78-29.49 7.03-4.84 17.18-6.09 29.25-3.97 2.9-6.36 6.19-12.13 9.84-17.21 -2.48-.41-4.91-.7-7.31-.86"/></g><g fill="#49BC82"><path d="M195.4 100.4c-.35-3.47-.77-6.87-1.25-10.22 -1.17-8.09-2.71-15.83-4.62-23.13 -2.3-8.77-5.11-16.91-8.44-24.26 -6.03 1.01-12.53 2.87-19.38 5.57 1.89 4.43 3.62 9.24 5.19 14.34 1.03 3.37 2 6.88 2.88 10.53 .89 3.72 1.7 7.59 2.42 11.57 1.36 7.6 2.37 15.66 2.99 24.09 .45 6.23.71 12.66.71 19.28 0 6.67-.26 13.15-.73 19.43 5.6-6.47 10.65-12.92 15.1-19.27 2.25-3.22 4.33-6.41 6.28-9.57 -.21-6.28-.62-12.43-1.22-18.43"/><path d="M89.84 194.36c-1.07-3.5-2.06-7.15-2.95-10.94 -.85-3.6-1.63-7.32-2.3-11.17 -1.37-7.74-2.36-15.98-2.97-24.63 -.44-6.27-.68-12.74-.68-19.42 0-6.67.25-13.13.71-19.39 -5.62 6.48-10.67 12.97-15.14 19.39 -2.31 3.31-4.47 6.6-6.46 9.86 .19 6.09.56 12.07 1.11 17.9 .34 3.69.76 7.33 1.25 10.89 1.1 7.99 2.57 15.63 4.39 22.85 2.24 8.88 5.02 17.11 8.35 24.54 6.16-1.03 12.82-2.92 19.82-5.7 -1.9-4.41-3.63-9.17-5.18-14.24"/></g><g fill="#FABB66"><path d="M109.13 54.6c-2.94 2.21-5.87 4.53-8.79 6.95 6.11-.62 12.39-1.04 18.81-1.24 -3.39-2.09-6.73-3.99-10.03-5.73"/><path d="M46.3 210.42c-4.84-7.04-6.09-17.19-3.97-29.26 -6.36-2.91-12.13-6.2-17.21-9.85 -.41 2.47-.7 4.9-.86 7.3 -1.05 15.64 1.21 27.51 13.83 40.13 12.62 12.62 20.66 13.55 33.65 13.96 4.3.13 8.77-.2 13.37-.92 -3.73-5.16-7.04-11.02-9.95-17.51 -11.77 1.95-21.76.71-28.9-3.88"/><path d="M108.95 202.14c-4.76 2.5-9.42 4.67-13.93 6.46 2.93 6.83 6.26 12.81 9.9 17.83 7.6-2.86 15.4-6.64 23.28-11.25 -6.4-3.82-12.84-8.19-19.26-13.06"/><path d="M147.712 202.19c2.74-2.06 5.49-4.2 8.22-6.44 -5.71.53-11.56.9-17.52 1.09 3.13 1.92 6.23 3.7 9.28 5.33"/><path d="M95.02 208.6c-7.01 2.77-13.66 4.67-19.83 5.69 2.9 6.48 6.21 12.35 9.94 17.5 6.38-1.01 13-2.82 19.78-5.37 -3.64-5.03-6.97-11.01-9.91-17.84"/><path d="M218.42 38.44c-12.78-12.78-24.7-15.32-40.11-14.41 -2.46.14-4.95.43-7.48.84 -6.18.99-12.57 2.76-19.11 5.23 -7.7 2.91-15.58 6.81-23.54 11.56 6.51 3.81 13.08 8.19 19.63 13.08 4.74-2.49 9.39-4.63 13.89-6.4 6.84-2.7 13.34-4.56 19.37-5.58 11.85-2.01 21.84-.74 28.82 3.98 4.74 7.34 6.11 17.19 4.32 28.67 6.6 2.95 12.56 6.34 17.78 10.15 .52-3.35.83-6.63.88-9.84 .24-14.29-1.75-24.57-14.52-37.34"/><path d="M208.56 95.49c-1.76 4.39-3.87 8.92-6.33 13.54 -1.71 3.21-3.59 6.48-5.63 9.78 -1.96 3.15-4.04 6.34-6.29 9.56 -4.46 6.35-9.51 12.8-15.11 19.26 -4.2 4.84-8.7 9.7-13.53 14.52 -4.69 4.68-9.41 9.04-14.13 13.12 8.61-.61 16.81-1.6 24.52-2.95 3.88-.69 7.63-1.46 11.26-2.32 4.26-4.54 8.3-9.12 12.1-13.72 2.32-2.82 4.56-5.63 6.69-8.45 4.92-6.51 9.33-13.02 13.17-19.49 4.6-7.74 8.38-15.41 11.25-22.9 -5.07-3.65-11.12-7.02-18.04-10.02"/><path d="M84.68 84.73c-3.96.71-7.79 1.51-11.49 2.4 -4.22 4.49-8.2 9.04-11.94 13.62 -2.25 2.73-4.4 5.48-6.46 8.23 -4.85 6.46-9.19 12.95-12.98 19.4 -4.67 7.94-8.5 15.81-11.39 23.49 4.99 3.53 10.9 6.81 17.64 9.73 1.81-4.54 4.01-9.23 6.55-14.01 1.66-3.14 3.46-6.31 5.43-9.52 1.99-3.26 4.15-6.55 6.45-9.87 4.47-6.42 9.52-12.92 15.13-19.4 4-4.63 8.28-9.25 12.85-13.82 4.75-4.76 9.54-9.18 14.34-13.31 -8.48.62-16.57 1.64-24.2 3.01"/></g><g fill="#276392"><path d="M237.6 90.06c-1.74-1.55-3.6-3.03-5.55-4.45 -5.22-3.81-11.19-7.2-17.79-10.16 -7.48-3.35-15.78-6.15-24.73-8.4 1.9 7.3 3.45 15.04 4.61 23.12 5.13 1.6 9.95 3.37 14.4 5.3 6.92 3 12.97 6.37 18.03 10.01 9.62 6.91 15.67 14.79 17.26 22.98 -1.83 8.5-7.78 16.4-17.07 23.23 2.57 6.77 4.37 13.39 5.36 19.78 2.69-1.98 5.19-4.05 7.46-6.25 10.27-9.93 16.13-18.61 16.13-36.67 0-18.07-6.64-28.3-18.17-38.55"/><path d="M62.44 166.89c-5.12-1.6-9.93-3.36-14.36-5.28 -6.75-2.92-12.65-6.2-17.65-9.74 -9.88-6.99-16.17-15.01-17.99-23.39 1.56-8.44 7.9-16.54 18.02-23.6 -2.46-6.55-4.22-12.94-5.24-19.11 -2.08 1.48-4.05 3.02-5.89 4.63C7.53 100.72.73 110.71.73 128.56c0 17.85 5.02 24.19 13.92 33.66 3.03 3.23 6.54 6.24 10.43 9.04 5.07 3.65 10.84 6.94 17.2 9.84 7.41 3.38 15.64 6.25 24.5 8.58 -1.83-7.23-3.3-14.87-4.4-22.86"/><path d="M128.53 66.47c-3.15-2.19-6.28-4.25-9.39-6.16 -6.42.19-12.7.61-18.82 1.23 -3.52.35-6.99.77-10.39 1.26 -8.01 1.15-15.66 2.68-22.9 4.57 -8.79 2.29-16.95 5.11-24.32 8.44 1.05 6.03 2.92 12.52 5.63 19.34 4.39-1.87 9.13-3.59 14.17-5.14 3.4-1.06 6.94-2.03 10.63-2.92 3.69-.9 7.52-1.7 11.48-2.41 7.63-1.38 15.72-2.4 24.19-3.02 6.23-.46 12.66-.72 19.28-.72 6.87 0 13.54.27 19.99.76 -6.56-5.69-13.13-10.79-19.62-15.3"/><path d="M208.61 161.9c-4.45 1.91-9.27 3.66-14.41 5.23 -3.47 1.05-7.09 2.03-10.84 2.91 -3.64.85-7.39 1.63-11.27 2.31 -7.72 1.35-15.92 2.34-24.53 2.94 -6.27.43-12.74.67-19.42.67 -6.47 0-12.75-.24-18.83-.68 6.39 5.53 12.76 10.53 19.05 14.94 3.37 2.36 6.72 4.55 10.03 6.59 5.96-.2 11.8-.57 17.51-1.1 3.63-.35 7.21-.76 10.72-1.24 8.07-1.11 15.8-2.59 23.09-4.44 8.85-2.25 17.07-5.03 24.48-8.34 -.99-6.16-2.87-12.83-5.64-19.86"/></g><g fill="#57B6DF"><path d="M147.712 202.19c-3.06-1.63-6.16-3.41-9.29-5.34 -3.32-2.04-6.66-4.23-10.04-6.6 -6.29-4.42-12.67-9.41-19.06-14.95 -4.86-4.21-9.73-8.72-14.57-13.57 -4.69-4.69-9.05-9.41-13.13-14.13 .6 8.64 1.59 16.88 2.96 24.62 .67 3.85 1.45 7.56 2.29 11.16 4.6 4.32 9.25 8.42 13.92 12.27 2.7 2.22 5.41 4.38 8.12 6.43 6.42 4.86 12.86 9.23 19.25 13.05 7.85 4.69 15.63 8.55 23.23 11.46 3.64-5.07 7.01-11.12 10.01-18.04 -4.46-1.79-9.06-3.94-13.75-6.44"/><path d="M172.24 84.83c-.72-3.99-1.53-7.86-2.43-11.58 -4.43-4.15-8.91-8.08-13.42-11.77 -2.85-2.34-5.71-4.58-8.57-6.72 -6.55-4.9-13.12-9.28-19.64-13.09 -7.83-4.58-15.59-8.34-23.15-11.19 -3.54 4.99-6.82 10.9-9.74 17.64 4.46 1.79 9.08 3.95 13.79 6.44 3.29 1.74 6.64 3.64 10.02 5.72 3.1 1.9 6.23 3.96 9.38 6.15 6.48 4.5 13.05 9.61 19.61 15.29 4.6 3.99 9.21 8.26 13.77 12.82 4.75 4.75 9.17 9.54 13.3 14.33 -.62-8.44-1.64-16.5-3-24.1"/></g></svg>