<svg viewBox="0 0 512 100" xmlns="http://www.w3.org/2000/svg"><g fill="#3448C5"><path d="M164.38 31.14c5.44.01 10.57 2.54 13.88 6.86 .11.15.29.25.48.27 .19.02.38-.04.53-.17l5.84-4.66c.15-.13.24-.3.26-.49 .02-.2-.04-.39-.16-.54 -5.05-6.55-12.85-10.38-21.11-10.38 -15.27 0-27.65 13.15-27.65 29.33 0 16.17 12.42 29.33 27.64 29.33 8.26.02 16.06-3.81 21.09-10.37 .12-.15.18-.35.16-.54 -.03-.2-.13-.37-.29-.49l-5.84-4.61c-.16-.13-.35-.18-.54-.16 -.2.02-.37.11-.49.26 -3.34 4.28-8.45 6.8-13.88 6.82 -10.44 0-18.6-8.91-18.6-20.27s8.16-20.28 18.59-20.28Zm28.4-10.76h7.33c.4 0 .72.32.72.72v58.14c0 .39-.33.71-.72.71h-7.34c-.41 0-.73-.33-.73-.73V21.08c-.01-.2.07-.38.2-.52 .1-.11.24-.19.39-.21l.11-.01Zm33.04 20.11c-9.72 0-19.55 6.88-19.55 20.03 0 11.56 8.4 20.28 19.54 20.28 11.14 0 19.62-8.73 19.62-20.29 0-11.57-8.44-20.04-19.63-20.04Zm10.78 20.03c0 6.67-4.64 11.71-10.79 11.71 -6.15 0-10.7-5.04-10.7-11.72 0-6.68 4.59-11.47 10.69-11.47 6.09 0 10.78 4.92 10.78 11.46Zm48.36-19.2h-7.34c-.2-.01-.38.07-.52.2s-.22.31-.22.51v19.45c0 7.59-5.25 10.29-9.74 10.29 -3.98 0-7.98-3.01-7.98-9.71V42.02c0-.2-.08-.38-.22-.52s-.33-.21-.52-.21h-7.34c-.4 0-.72.32-.72.71v20.99c0 11.51 5.21 17.85 14.68 17.85 3.44 0 9.01-1.98 11.09-6.34l.7.14v4.54c0 .4.32.72.72.72h7.33c.4 0 .72-.33.72-.73V41.96c0-.2-.08-.38-.22-.52s-.33-.21-.52-.21Zm45.02-20.96h-7.35c-.2 0-.38.07-.52.21 -.14.13-.21.32-.21.51v25.98l-.46-.72c-2.24-3.6-7.04-5.92-12.24-5.92 -8.98 0-18.05 6.91-18.05 20.12 0 11.51 7.79 20.2 18.11 20.2 3.93 0 9.47-1.58 12.16-6.01l.45-.74v5.2c-.01.19.07.37.2.51 .13.13.31.21.51.21h7.34c.19 0 .37-.08.51-.22 .13-.14.2-.33.2-.52V21.02c0-.2-.08-.38-.21-.52 -.11-.11-.25-.19-.4-.21l-.12-.01Zm-8.2 40.14c.09 3-1.01 5.92-3.08 8.11 -2.07 2.18-4.93 3.45-7.94 3.51 -6.01 0-10.71-5.12-10.71-11.64 0-6.52 4.7-11.47 10.7-11.47 6.18.15 11.09 5.27 10.97 11.46h.03Zm19.17-19.2h7.33c.39 0 .71.32.71.71v37.2c0 .39-.33.71-.72.71h-7.34c-.41 0-.73-.33-.73-.73v-37.2c0-.4.32-.72.72-.72Zm3.96-19.78l-.27-.01c-1.54-.04-3.02.55-4.12 1.62s-1.72 2.54-1.72 4.07c.03 3.18 2.64 5.74 5.82 5.71 1.52.01 2.99-.58 4.07-1.66s1.68-2.54 1.67-4.07c.02-1.53-.58-3-1.66-4.08 -1.03-1.02-2.39-1.6-3.82-1.63v0Zm34.27 18.93c-3.22 0-8.93 1.73-11.12 6.33l-.71-.15v-4.64c0-.2-.08-.38-.22-.52s-.33-.21-.52-.21h-7.34c-.4 0-.72.32-.72.71v37.2c-.01.19.07.37.2.51 .13.13.31.21.51.21h7.33c.4 0 .72-.33.72-.73V59.7c0-7.54 5.24-10.24 9.73-10.24 3.97 0 7.97 2.97 7.97 9.62v20.06c0 .4.32.72.72.72h7.35c.4 0 .72-.33.72-.73V58.14c-.03-11.46-5.25-17.78-14.71-17.78Zm58.49.83h-7.34c-.2-.01-.38.07-.52.2s-.22.31-.22.51v5.11l-.45-.72c-2.25-3.6-7.05-5.92-12.29-5.92 -8.96 0-18.05 6.91-18.05 20.12 0 11.51 7.79 20.2 18.12 20.2 3.92 0 9.46-1.58 12.16-6.01l.44-.74v5.13c0 .4.32.72.72.72h7.33c.19 0 .37-.08.51-.22 .13-.14.2-.33.2-.52V41.93c0-.39-.3-.7-.68-.72Zm-8.2 19.19c.09 3.01-1.02 5.93-3.09 8.12 -2.08 2.18-4.94 3.44-7.96 3.5 -6.01 0-10.7-5.12-10.7-11.64 0-6.52 4.68-11.47 10.69-11.47 6.2.13 11.13 5.26 11.01 11.46h.02Zm41.64-19.07c-1.68-.68-3.46-1.03-5.27-1.03 -4.88 0-8.42 2.91-10.24 8.44l-.66-.1v-6.75c0-.2-.08-.38-.22-.52s-.33-.21-.52-.21h-7.34c-.2-.01-.38.07-.52.2s-.22.31-.22.51v37.2c0 .4.32.72.72.72h7.41c.19 0 .37-.08.51-.22 .13-.14.2-.33.2-.52v-12.7c0-.62.01-1.22.02-1.8l.03-.85c.01-.28.03-.56.05-.82l.06-.79c.09-1.04.22-1.99.37-2.87l.12-.65c.47-2.32 1.16-4.1 1.98-5.46l.22-.37c.37-.59.78-1.09 1.2-1.51l.25-.25c.21-.2.42-.38.64-.55l.26-.19c.13-.1.26-.18.39-.26l.26-.16v0l.26-.14v0l.26-.13v0l.26-.12c.04-.02.08-.04.13-.06l.26-.1v0l.26-.09v0l.25-.08v0l.25-.07v0l.25-.06v0l.25-.05v0l.24-.04v0l.24-.03v0l.23-.02v0l.34-.02v0l.22-.01v0c1.38 0 2.75.26 4.04.76l.38.15c.19.09.42.09.62 0 .19-.11.32-.29.36-.5l1.45-7.29c.06-.32-.09-.64-.37-.79l-.1-.05Zm40.68.18c-.14-.21-.37-.33-.61-.32h-7.9c-.3 0-.57.18-.68.46l-9.56 24.75 -9.65-24.76c-.12-.28-.38-.46-.68-.47h-8.05c-.24-.01-.47.11-.6.31 -.14.19-.17.45-.08.67l14.33 35.2 -7.92 20.57c-.11.22-.09.49.05.69 .13.2.37.33.61.32h7.67c.29 0 .56-.19.66-.47l22.38-56.32c.08-.2.08-.42-.01-.61l-.06-.1Z"/><path d="M36.24 36.31c.09 0 .17.03.24.1l11.37 11.38c.09.09.12.23.07.36 -.06.12-.18.2-.31.2H44.7c-.19-.01-.35.14-.35.33v25.59c0 1.62.64 3.17 1.79 4.32l1.69 1.69c.09.09.12.23.07.36 -.06.12-.18.2-.31.2H34.17c-3.4 0-6.15-2.76-6.15-6.15V48.64c0-.19-.16-.34-.34-.34h-2.87c-.14 0-.27-.08-.32-.21 -.06-.13-.03-.28.06-.37l11.38-11.39c.06-.07.15-.11.24-.11Zm25.15 6.59c.09 0 .17.03.24.1l11.38 11.34c.09.09.12.24.06.36s-.18.2-.32.2h-2.91c-.19 0-.34.15-.34.34v19.03c0 1.61.64 3.17 1.78 4.32l1.71 1.69c.09.09.12.24.06.36s-.18.2-.32.2H59.34c-3.4 0-6.15-2.76-6.15-6.15V55.22c0-.19-.15-.35-.34-.35h-2.9c-.14-.01-.26-.09-.31-.21 -.06-.13-.03-.27.07-.37l11.37-11.37c.06-.07.15-.11.24-.11Zm25.16 6.52c.08 0 .17.03.23.09l11.38 11.37c.1.09.13.24.08.37 -.06.12-.18.21-.32.21H95c-.19 0-.34.15-.34.33v12.48c0 1.62.64 3.17 1.79 4.32l1.69 1.69c.09.09.12.23.07.36 -.06.12-.18.2-.31.2H84.47c-3.4 0-6.15-2.76-6.15-6.15V61.75c0-.19-.16-.34-.34-.34h-2.87c-.14 0-.27-.09-.32-.22 -.06-.13-.02-.28.08-.38l11.38-11.38c.06-.07.14-.1.23-.1ZM61.15-.02c17.88.13 33.66 11.74 39.09 28.78 13.28 1.73 23.24 13 23.34 26.39 0 11.05-6.92 20.24-18.08 24.06l-.42.13 -.52.16v-8.26c7.09-3 11.26-8.9 11.26-16.12 -.04-10.19-8.11-18.51-18.25-18.9l-.35-.02h-3.08l-.74-2.93c-3.62-14.94-16.94-25.5-32.31-25.6 -12.65-.07-24.2 7.12-29.74 18.46l-1.14 2.34 -2.16.22c-9.72 1.03-17.69 8.14-19.84 17.66 -2.12 9.39 1.88 19.08 9.96 24.25l.35.22v8.7h-.06l-.77-.35C5.54 73.58-1.58 60.76.11 47.5 1.8 34.23 11.9 23.61 25.06 21.25 32.16 8.01 46-.21 61.03-.13Z"/></g></svg>