<svg viewBox="0 0 512 75" xmlns="http://www.w3.org/2000/svg"><g fill="#005EEC"><path d="M33.91 0c7.14-.07 13.28 5.04 14.52 12.07 6.71-2.56 14.29.15 17.86 6.38v0l0 .01 .06.12c3.44 6.13 2.06 13.86-3.3 18.42 5.55 4.56 7 12.48 3.42 18.72v0l-.04.06v0l-.05.05c-3.56 6.07-10.94 8.75-17.56 6.35 -1.09 7.08-7.15 12.34-14.32 12.4 -7.17.06-13.33-5.09-14.53-12.16 -6.51 2.47-13.81.01-17.52-5.8l-.04-.06 .06.11 -.39-.64c-.02-.03-.03-.05-.04-.07L2 55.89c-3.46-6.14-2.08-13.87 3.29-18.43 -5.58-4.57-7.02-12.5-3.43-18.74v0l.03-.07v0l.03-.06c3.55-6.07 10.93-8.74 17.55-6.36C20.59 5.17 26.64-.04 33.78-.1Zm.08 2.55c-6.5.02-11.74 5.3-11.71 11.79 .01.27-.05.54-.17.78 -.18.33-.49.58-.86.69 -.37.11-.76.07-1.1-.11v0l-.28-.15c-5.51-2.77-12.25-.8-15.4 4.54 -.02.03-.04.07-.06.11v0l-.16.27c-2.98 5.5-1.16 12.4 4.2 15.69 .23.11.43.3.57.52 .41.67.21 1.56-.47 1.99v0l-.33.2 -.21.14c-4.84 3.41-6.43 9.91-3.65 15.17l.15.27c.02.03.04.07.06.1v0l.15.26C7.97 60.13 14.84 62 20.36 59c.43-.29.99-.32 1.45-.08 .46.24.75.71.77 1.23v0l.01.49 -.03-.49 0 .32c.12 3.96 2.24 7.59 5.62 9.65l.28.16c3.64 2.08 8.12 2.06 11.75-.05 3.62-2.12 5.85-6.01 5.83-10.2 -.04-.53.21-1.03.65-1.31 .43-.29.99-.31 1.46-.07v0l.27.14c5.5 2.75 12.22.78 15.37-4.55v0l.05-.12c3.19-5.54 1.4-12.61-4.04-15.97 -.47-.24-.77-.71-.8-1.23 -.03-.53.23-1.02.67-1.3v0c5.34-3.36 7.11-10.31 4.03-15.81 -.03-.04-.05-.07-.07-.11v0l-.16-.27c-3.25-5.34-10.13-7.21-15.65-4.2 -.23.14-.48.22-.75.23 -.8.02-1.47-.61-1.49-1.4v0c-.03-6.5-5.31-11.75-11.8-11.72Zm-9.17 37.98c.72-1.44 2.44-2.05 3.91-1.4 1.46.65 2.16 2.33 1.59 3.83 -.52 1.09-.54 1.73-.2 2.5v0l2.62 5.59c.51 1.12 1.62 1.5 2.54 1.73v0c2.85.68 4.92 3.17 5.07 6.11 .15 2.93-1.65 5.62-4.43 6.61 -2.78.98-5.87.02-7.6-2.36 -1.74-2.39-1.69-5.62.1-7.96 .73-.96.95-1.63.67-2.84v0l-1.42-6.06c-.2-.79-.6-1.18-1.74-1.83 -1.4-.81-1.91-2.56-1.19-3.99Zm1.07-9.59c1.61-.09 3 1.11 3.17 2.71 .16 1.6-.96 3.05-2.56 3.3 -1.21.09-1.78.39-2.27 1.08v0l-3.53 5.08c-.72 1.01-.49 2.16-.23 3.07 .83 2.83-.3 5.88-2.79 7.48 -2.49 1.6-5.73 1.38-7.97-.55 -2.25-1.93-2.95-5.1-1.74-7.8 1.21-2.7 4.05-4.28 6.97-3.88 1.19.15 1.88.01 2.78-.83v0l4.52-4.26c.58-.56.71-1.11.71-2.42 -.01-1.62 1.26-2.95 2.87-3.03Zm22.52 12.31c1.54-1.64 3.8-2.38 6.01-1.98 3.14.56 5.44 3.28 5.48 6.48 .03 3.19-2.2 5.97-5.33 6.61 -3.14.64-6.28-1.03-7.51-3.98 -.47-1.13-.93-1.65-2.11-2.01v0l-5.93-1.81c-.78-.23-1.31-.07-2.45.58 -.62.36-1.35.48-2.05.35 -1.61-.34-2.65-1.89-2.36-3.51 .29-1.62 1.81-2.71 3.43-2.46 .71.12 1.35.5 1.8 1.07 .68.99 1.23 1.34 2.06 1.42v0l6.15.51c1.22.11 2.12-.67 2.76-1.35Zm-.22-22.58c2.09-2.27 5.47-2.81 8.18-1.28 2.77 1.57 4.05 4.89 3.03 7.92 -1.02 3.02-4.04 4.91-7.21 4.49 -1.2-.17-1.89-.02-2.79.82v0l-4.52 4.24c-.59.56-.72 1.1-.72 2.42 0 1.33-.88 2.51-2.17 2.9 -1.29.38-2.67-.13-3.4-1.25 -.74-1.13-.64-2.6.23-3.62 .46-.56 1.11-.93 1.83-1.04 1.2-.1 1.77-.4 2.26-1.09v0l3.51-5.09c.71-1.02.48-2.17.22-3.08 -.65-2.16-.15-4.5 1.3-6.21v0ZM33.45 7.29c2.54-.01 4.87 1.44 5.99 3.73 1.12 2.28.84 5.01-.73 7.02 -.73.95-.96 1.62-.66 2.84v0l1.41 6.03c.19.78.59 1.17 1.72 1.82 1.39.8 1.91 2.54 1.18 3.98 -.73 1.43-2.45 2.04-3.92 1.39 -1.47-.65-2.17-2.34-1.6-3.84 .51-1.1.54-1.75.19-2.51v0l-2.63-5.61c-.52-1.13-1.63-1.51-2.55-1.73v0l-.02 0c-2.87-.7-4.94-3.2-5.1-6.14 -.16-2.95 1.63-5.65 4.4-6.65 .72-.27 1.48-.4 2.24-.4ZM12.62 18.88c3.13-.65 6.27 1.02 7.5 3.97 .46 1.11.93 1.64 2.1 2v0l5.92 1.8c.77.22 1.3.06 2.44-.6 1.39-.81 3.17-.39 4.05.97 .87 1.35.54 3.15-.76 4.1 -1.31.94-3.13.71-4.14-.54 -.69-1-1.23-1.35-2.07-1.43v0l-6.15-.52c-1.23-.12-2.13.65-2.77 1.34 -1.55 1.63-3.81 2.37-6.02 1.97 -3.15-.57-5.45-3.29-5.49-6.49 -.04-3.2 2.19-5.98 5.32-6.62Z"/><path d="M113.71 49.21c-1.57 1.72-3.4 3.18-5.45 4.31 -2.04 1.12-4.69 1.68-7.95 1.68 -2.34.02-4.66-.44-6.82-1.35 -4.08-1.69-7.3-4.94-8.96-9.02 -.86-2.09-1.29-4.32-1.28-6.58v-.13c-.02-2.27.41-4.51 1.27-6.6 .82-2.03 2.02-3.88 3.54-5.45 1.53-1.58 3.37-2.82 5.39-3.67 2.19-.92 4.55-1.38 6.93-1.35 3.09 0 5.66.48 7.7 1.46 2.04.97 3.86 2.34 5.38 4.03l-5.69 6.1c-.97-1.03-2.07-1.91-3.27-2.63 -1.29-.7-2.74-1.03-4.2-.98 -1.11-.02-2.21.22-3.21.7 -.96.46-1.82 1.12-2.51 1.92 -.73.83-1.29 1.8-1.66 2.85 -.39 1.1-.59 2.26-.58 3.43v.12c-.01 1.2.18 2.4.58 3.54 .36 1.05.93 2.02 1.68 2.85 .73.81 1.63 1.47 2.62 1.92 1.07.47 2.24.71 3.42.7 1.41.02 2.81-.3 4.06-.96 1.25-.71 2.41-1.56 3.45-2.55l5.44 5.52Zm12.59 5.25H117V9.81h9.29l0 44.64Zm39.42-16.33c.01 2.27-.45 4.52-1.36 6.61 -.88 2.02-2.15 3.86-3.73 5.39 -1.63 1.56-3.54 2.81-5.63 3.66 -2.26.91-4.67 1.36-7.09 1.34 -2.41.02-4.8-.43-7.04-1.32 -2.09-.82-3.99-2.04-5.6-3.59 -1.58-1.54-2.83-3.37-3.7-5.39 -.91-2.1-1.37-4.36-1.35-6.64v-.13c-.02-2.28.44-4.54 1.34-6.64 .87-2.03 2.14-3.87 3.72-5.4 1.62-1.58 3.53-2.82 5.62-3.67 2.25-.92 4.66-1.37 7.08-1.35 2.4-.03 4.79.42 7.03 1.31 2.08.82 3.98 2.04 5.59 3.6 1.57 1.53 2.82 3.36 3.69 5.38 .9 2.09 1.36 4.35 1.34 6.63l0 .11Zm-9.17.12v-.13c0-1.19-.2-2.36-.61-3.46 -.81-2.16-2.44-3.9-4.54-4.85 -1.1-.5-2.29-.75-3.5-.74 -1.23-.03-2.45.21-3.58.7 -1.02.44-1.92 1.1-2.66 1.92 -.75.83-1.32 1.8-1.69 2.85 -.39 1.1-.58 2.26-.58 3.42v.12c-.01 1.17.2 2.34.61 3.44 .8 2.14 2.41 3.88 4.49 4.85 1.1.5 2.3.75 3.51.73 1.22.02 2.44-.22 3.57-.71 1.01-.45 1.91-1.11 2.65-1.93 .74-.83 1.31-1.8 1.68-2.85 .39-1.11.58-2.28.57-3.45l0 0Zm42.48 16.19h-9.3v-4.66c-.54.7-1.12 1.36-1.75 1.98 -.64.63-1.35 1.19-2.11 1.68 -.81.5-1.67.89-2.57 1.16 -1.04.29-2.11.44-3.18.42 -3.55 0-6.29-1.08-8.22-3.24 -1.94-2.16-2.91-5.14-2.91-8.93V21.63h9.29V39.9c0 2.19.48 3.86 1.46 4.98 .97 1.12 2.36 1.68 4.15 1.68 1.79 0 3.2-.57 4.24-1.69 1.03-1.13 1.55-2.79 1.55-4.99V21.6h9.29l0 32.77Zm38.08 0h-9.3v-4.72c-1.12 1.52-2.53 2.81-4.13 3.81 -1.61.99-3.64 1.49-6.09 1.49 -1.91 0-3.8-.37-5.57-1.09 -1.81-.74-3.43-1.86-4.77-3.27 -1.45-1.54-2.58-3.34-3.34-5.31 -.88-2.32-1.3-4.78-1.26-7.25v-.13c-.05-2.48.38-4.94 1.25-7.25 .75-1.97 1.87-3.78 3.29-5.32 1.32-1.42 2.94-2.54 4.73-3.28 1.78-.74 3.69-1.11 5.62-1.1 2.48 0 4.53.48 6.14 1.46 1.53.91 2.9 2.06 4.06 3.42V9.73h9.29l0 44.64Zm-9.17-16.33v-.13c.01-1.27-.2-2.52-.64-3.7 -.39-1.06-.97-2.04-1.72-2.88 -.7-.79-1.56-1.41-2.51-1.84 -1.97-.86-4.21-.86-6.18 0 -.97.43-1.83 1.05-2.55 1.83 -.76.83-1.35 1.8-1.75 2.85 -.45 1.19-.66 2.45-.64 3.72v.12c-.02 1.26.19 2.51.63 3.7 .39 1.05.98 2.02 1.74 2.85 .71.77 1.57 1.4 2.54 1.83 1.96.85 4.2.85 6.17 0 .95-.43 1.81-1.06 2.5-1.84 .74-.84 1.32-1.81 1.71-2.86 .43-1.2.65-2.46.62-3.73l0 0Zm56.02 16.32h-9v-3.56c-1.16 1.27-2.55 2.3-4.1 3.02 -1.59.75-3.53 1.13-5.81 1.13 -1.49.01-2.96-.21-4.38-.64 -1.31-.4-2.53-1.06-3.58-1.93 -1.03-.87-1.85-1.94-2.42-3.15 -.62-1.36-.92-2.83-.89-4.32v-.13c-.05-1.61.29-3.2.97-4.65 .63-1.29 1.56-2.4 2.71-3.24 1.25-.9 2.66-1.56 4.15-1.93 1.74-.45 3.54-.66 5.34-.64 1.46-.02 2.92.1 4.37.36 1.23.23 2.45.56 3.64.96v-.55c0-1.96-.6-3.44-1.78-4.45 -1.19-1.01-2.94-1.52-5.26-1.53 -1.6-.03-3.19.13-4.74.45 -1.47.33-2.91.77-4.32 1.31l-2.35-7.11c1.82-.79 3.7-1.43 5.62-1.91 2.32-.53 4.7-.78 7.08-.74 5.09 0 8.79 1.24 11.11 3.72 2.31 2.48 3.48 5.94 3.49 10.39l.01 19.02Zm-8.81-11.56v-1.65c-.88-.39-1.79-.69-2.73-.89 -1.06-.24-2.13-.35-3.21-.34 -2 0-3.57.38-4.71 1.16 -1.13.73-1.78 2.01-1.72 3.36v.12c-.06 1.15.47 2.25 1.4 2.93 .93.69 2.15 1.03 3.66 1.03 2.19 0 3.96-.53 5.28-1.59 1.29-1 2.03-2.55 1.98-4.18l0 0Zm42.47 6.29c-1.57 1.72-3.4 3.18-5.44 4.3 -2.04 1.12-4.69 1.68-7.95 1.68 -2.34.02-4.66-.44-6.82-1.35 -4.08-1.69-7.3-4.94-8.96-9.02 -.86-2.09-1.29-4.32-1.28-6.58v-.13c-.02-2.27.41-4.51 1.27-6.6 .82-2.03 2.02-3.88 3.54-5.45 1.53-1.58 3.37-2.82 5.39-3.67 2.19-.92 4.55-1.38 6.93-1.35 3.09 0 5.66.48 7.7 1.46 2.04.97 3.86 2.34 5.38 4.03l-5.69 6.1c-.97-1.03-2.07-1.91-3.28-2.63 -1.12-.66-2.52-.98-4.19-.98 -1.11-.02-2.21.22-3.21.7 -.96.46-1.81 1.12-2.51 1.92 -.73.83-1.29 1.8-1.66 2.85 -.4 1.1-.59 2.27-.59 3.45v.12c-.01 1.2.19 2.4.59 3.53 .36 1.05.93 2.02 1.68 2.85 .73.81 1.63 1.47 2.62 1.92 1.07.47 2.24.71 3.42.7 1.41.02 2.8-.3 4.06-.96 1.25-.7 2.41-1.56 3.45-2.55l5.43 5.52Zm31.05 5.25h-8.99v-3.56c-1.16 1.26-2.55 2.29-4.1 3.02 -1.59.75-3.53 1.13-5.81 1.13 -1.49.01-2.96-.21-4.38-.64 -1.31-.4-2.53-1.06-3.58-1.93 -1.03-.87-1.85-1.94-2.42-3.15 -.62-1.36-.92-2.83-.89-4.32v-.13c-.05-1.61.29-3.2.97-4.65 .63-1.29 1.56-2.4 2.72-3.24 1.25-.9 2.66-1.56 4.15-1.93 1.74-.45 3.54-.66 5.34-.64 1.46-.02 2.92.1 4.37.36 1.23.24 2.44.56 3.63.97v-.57c0-1.96-.6-3.44-1.78-4.45 -1.19-1.01-2.94-1.52-5.26-1.53 -1.6-.03-3.19.13-4.74.45 -1.47.33-2.91.77-4.32 1.31l-2.33-7.1c1.81-.79 3.69-1.43 5.62-1.91 2.32-.53 4.7-.78 7.09-.74 5.09 0 8.79 1.24 11.11 3.72 2.31 2.48 3.48 5.94 3.49 10.39v19.01Zm-8.81-11.56V41.2c-.88-.39-1.79-.69-2.72-.89 -1.06-.24-2.14-.35-3.22-.34 -2 0-3.57.38-4.71 1.16 -1.13.74-1.78 2.01-1.71 3.36v.12c-.06 1.15.47 2.25 1.4 2.93 .93.69 2.15 1.03 3.66 1.03 2.19 0 3.96-.53 5.28-1.59 1.29-.99 2.03-2.55 1.98-4.18v0Zm46.58 11.55h-9.3v-4.72c-1.12 1.52-2.53 2.81-4.13 3.81 -1.61.99-3.64 1.49-6.09 1.49 -1.91 0-3.8-.38-5.57-1.11 -1.81-.74-3.43-1.86-4.77-3.27 -1.45-1.54-2.58-3.34-3.34-5.3 -.88-2.32-1.32-4.78-1.28-7.25v-.13c-.05-2.48.39-4.94 1.27-7.25 .75-1.97 1.87-3.78 3.29-5.32 1.32-1.42 2.94-2.54 4.73-3.28 1.78-.74 3.69-1.11 5.62-1.1 2.48 0 4.53.48 6.14 1.46 1.53.91 2.9 2.06 4.06 3.42V9.68h9.29v44.64Zm-9.16-16.33v-.13c.01-1.27-.2-2.52-.64-3.7 -.39-1.06-.97-2.04-1.72-2.88 -.7-.79-1.56-1.41-2.51-1.84 -1.97-.86-4.21-.86-6.18 0 -.97.43-1.83 1.05-2.55 1.83 -.76.83-1.35 1.8-1.75 2.85 -.45 1.19-.66 2.45-.64 3.72v.12c-.02 1.26.19 2.51.63 3.7 .39 1.05.98 2.02 1.74 2.85 .71.77 1.57 1.4 2.54 1.83 1.96.85 4.2.85 6.17 0 .95-.43 1.81-1.06 2.5-1.84 .74-.84 1.32-1.81 1.71-2.86 .43-1.19.65-2.45.63-3.72v0Zm44.86.85c0 .44 0 .83-.04 1.16 -.04.32-.06.71-.1 1.15h-22.81c.44 2.11 1.37 3.71 2.78 4.79 1.4 1.08 3.14 1.62 5.22 1.61 1.42.02 2.83-.25 4.15-.8 1.39-.65 2.67-1.52 3.79-2.57l5.29 4.7c-1.53 1.89-3.45 3.42-5.63 4.49 -2.2 1.07-4.79 1.61-7.77 1.61 -2.33.02-4.65-.4-6.82-1.23 -2.04-.78-3.89-1.97-5.45-3.5 -1.54-1.53-2.76-3.34-3.58-5.34 -.88-2.19-1.31-4.53-1.28-6.88v-.13c-.02-2.26.39-4.5 1.19-6.6 .75-2.01 1.88-3.86 3.33-5.45 2.99-3.26 7.24-5.09 11.67-5.02 2.73 0 5.09.48 7.09 1.46 1.93.92 3.63 2.27 4.97 3.94 1.34 1.68 2.33 3.61 2.93 5.68 .63 2.17.95 4.42.95 6.69l.01.12Zm-9.05-3.5c-.29-2.09-1.02-3.77-2.21-5.05 -1.19-1.29-2.76-1.92-4.72-1.92s-3.54.63-4.74 1.9c-1.21 1.27-1.99 2.96-2.36 5.08l14-.03Zm62.77 18.94h-9.3V36.09c0-2.2-.47-3.87-1.41-4.99 -.94-1.13-2.29-1.69-4.06-1.69 -1.76 0-3.13.56-4.13 1.68 -1 1.12-1.5 2.78-1.49 4.98v18.27h-9.3V36.06c0-2.2-.47-3.87-1.41-4.99 -.94-1.13-2.29-1.69-4.04-1.69 -1.76 0-3.13.56-4.13 1.68 -1 1.12-1.5 2.78-1.5 4.98v18.27h-9.29V21.54h9.29v4.64c.53-.71 1.11-1.37 1.74-1.99 .63-.64 1.34-1.21 2.1-1.69 .8-.51 1.68-.9 2.59-1.17 1.04-.3 2.12-.44 3.2-.43 1.95-.06 3.87.41 5.59 1.34 1.56.89 2.83 2.23 3.63 3.85 1.3-1.62 2.92-2.94 4.76-3.89 1.86-.91 3.91-1.36 5.99-1.32 3.46 0 6.17 1.01 8.13 3.05 1.95 2.03 2.93 5.03 2.93 8.98l0 21.32Zm36.06-32.76l-12.61 33.54c-.53 1.47-1.18 2.89-1.96 4.24 -.61 1.06-1.39 2.03-2.3 2.85 -.83.72-1.81 1.27-2.86 1.58 -1.2.34-2.43.5-3.67.48 -1.53.02-3.06-.19-4.53-.61 -1.31-.41-2.56-.97-3.73-1.66l3.11-6.73c.62.37 1.29.68 1.98.91 .63.23 1.3.35 1.98.36 .67.03 1.34-.13 1.92-.46 .57-.44 1.02-1.02 1.31-1.69l-12.83-32.9h9.84l7.44 22.31 7.14-22.32h9.68Z"/></g></svg>