<svg viewBox="0 0 256 234" xmlns="http://www.w3.org/2000/svg"><path fill="#00A8E9" d="M14.69 222.61c3.89 1.79 7.79 2.59 11.69 2.59 3.69 0 7.29-.8 10.79-2.5 1.49-.7 2.69-1.1 3.49-1.3 1.49-.3 2.59-.7 2.99-1.1 1.09-1 2.09-2.3 2.89-4 .79-1.7 1.19-3.2 1.19-4.6 0-1.1-.3-2-.9-2.8 -.6-.8-1.3-1.1-2.1-1.1 -.6 0-1.3.39-2.2 1.29 -1 .99-2.5 1.79-4.3 2.49 -1.9.59-3.7.89-5.6.89 -5.1 0-9.1-2.2-11.8-6.7 -2-3.3-3.1-7-3.1-11.1 0-2.9.69-5.3 2.09-7 1.39-1.7 3.29-2.6 5.69-2.6 2.49 0 4.89.79 7.09 2.39 .89.69 1.69 1.39 2.29 2.19 .59.79 1.39 2.09 2.49 3.99 .69 1.29 1.39 2.19 2.19 2.69 .79.49 1.69.79 2.89.79 1.29 0 2.49-.4 3.49-1.1 1.89-1.3 2.89-3.4 2.89-6.2 0-4-1.1-7.4-3.4-10.1 -.9-1.1-2-1.7-3.2-1.7 -.4 0-.7 0-1 .09 -.9.19-1.6.29-2 .29 -.6 0-1.6-.4-3.1-1.1 -3.2-1.5-6.5-2.2-9.9-2.2 -3.6 0-7.2.69-10.6 2.19 -4.5 1.99-8.2 4.79-11 8.49 -3.2 4.29-4.8 8.99-4.8 14.19 0 4.49 1.29 8.69 3.89 12.79 2.69 4.49 6.19 7.69 10.79 9.69Zm38.58-35.39c1.29.79 2.09 1.99 2.49 3.59 .29 1.59.49 5.29.49 10.99 0 5.59-.2 9.89-.6 12.99 -.2 1.79-.8 2.89-1.7 3.29 -1 .39-1.6.79-1.9 1.09 -.3.29-.4.69-.4 1.29 0 .69.29 1.39.79 1.99 .49.59 1.19 1.09 2.09 1.39 1.79.69 4.99.99 9.49.99 3.99 0 6.79-.3 8.49-.8 .89-.3 1.59-.7 2.19-1.3 .49-.6.79-1.3.79-2.1 0-.6-.1-1.1-.4-1.4 -.3-.3-.9-.7-1.7-1.1 -1-.4-1.8-1.1-1.9-1.9 -.2-.8-.4-3.7-.4-8.7v-11.3c0-3.5.39-7.3.69-11.5 .19-2.7.49-4.4.49-5.2 0-2.3-.9-3.4-2.7-3.4 -1.2 0-3 .19-5.6.69 -2.6.39-4.6.89-6.3 1.39 -2.4.69-4.2 1.49-5.3 2.39 -1.1.89-1.6 1.89-1.6 2.99 0 .69.19 1.29.49 1.79 .29.59.99 1.19 1.89 1.69Zm42.78 37.98c5.69 0 10.79-1.7 15.29-5.1 4.69-3.6 6.99-7.9 6.99-12.9 0-2.9-.7-5.7-2.2-8.4 -1.4-2.6-3.3-4.6-5.6-6.2 -3.2-2.2-7-3.3-11.3-3.3 -6.1 0-11.4 1.79-15.7 5.49 -4.1 3.49-6.2 7.99-6.2 13.49 0 4.99 1.69 8.99 4.99 12.09 3.59 3.19 8.19 4.79 13.69 4.79Zm-2-26.69c.59-.8 1.39-1.1 2.49-1.1 1.39 0 2.49.89 3.19 2.49 .69 1.59 1.39 3.59 1.89 6.09 .49 2.49.79 4.69.79 6.69 0 2.59-1 3.99-3.1 3.99 -1.6 0-2.8-1-3.5-2.9 -.7-1.9-1.4-4-1.9-6.4 -.5-2.4-.8-4.3-.8-5.7 0-1.4.29-2.4.89-3.2Zm54.57 26.08c.39.29 1.19.39 2.29.39 2.69 0 5.59-.3 8.49-1 4.99-1.1 7.49-2.8 7.49-4.9 0-1.1-.4-1.9-1.5-2.5 -1.4-.7-1.8-1.4-1.8-2.2v-15.5c0-1.6-.2-3-.2-4.1 0-.8-.1-1.3-.1-1.6 0-2.5-1.2-3.8-3.6-3.8 -4.2 0-8.6.49-12.9 1.59 -2.3.59-3.5 1.59-3.5 2.99 0 1.09.69 1.99 1.99 2.69 .69.39 1.09.69 1.29.89 .19.29.39.69.49 1.29 .29 1.39.39 3.99.39 7.89 0 3.89-.3 6.39-.8 7.49 -.3.59-.7.99-1.4 1.39 -.7.39-1.3.59-2 .59 -2.7 0-4-2-4-6.1v-19c0-1.2-.7-1.8-2.1-1.8 -4.6 0-9.2.49-13.8 1.49 -2.7.59-4 1.79-4 3.49 0 .49.09.89.39 1.19 .19.29.79.69 1.69 1.09 .99.49 1.49 1.29 1.89 2.19 .39.89.49 2.39.49 4.39v1.59 4.89c0 5.09.79 8.79 2.39 10.99 1.79 2.59 4.99 3.89 9.49 3.89 2.69 0 5.29-.8 7.59-2.4 1.19-.8 1.89-1.3 2.09-1.4 .19-.1.49-.2.79-.2 .79 0 1.19.69 1.29 2.19 .29.99.59 1.49.99 1.69Zm26.28-3.4c2.89 2.69 6.19 3.99 9.79 3.99 2.89 0 5.59-1 7.99-2.9 .79-.7 1.49-1.1 1.89-1.1 .69 0 1.09.59 1.29 1.79 .09.79.19 1.39.39 1.59 .19.19.69.29 1.49.29 3.39 0 6.79-.4 10.19-1.3 3.79-1 5.59-2.4 5.59-4.3 0-.6-.1-1.2-.4-1.6 -.3-.4-.9-1-1.7-1.5 -.7-.5-1.6-1-1.7-1.5 -.2-.5-.7-1.7-.7-3.5v-31.99c0-1.9-.6-2.9-2.6-2.9s-5.8.79-11.8 2.49c-3.4.99-5 2.29-5 3.99 0 1.19.79 1.99 2.29 2.49 1.09.29 1.79.69 2.19 1.19 .39.49.59 1.09.59 1.99 0 1.99-.4 2.99-1.1 2.99 -.2 0-.5-.1-.8-.3 -2.1-1.2-4.6-1.8-7.3-1.8 -2.4 0-4.8.59-7.2 1.89 -2.9 1.49-5.2 3.69-6.9 6.49 -1.8 3.09-2.7 6.19-2.7 9.49 0 2.79.69 5.59 2.09 8.29 .89 2.09 2.29 3.99 3.99 5.59Zm12.29-21.9c.89-1.6 2.09-2.4 3.59-2.4 1.19 0 2.09.49 2.79 1.49 .79 1.19 1.19 3.59 1.19 7.19 0 3.89-.3 6.79-1 8.49 -.7 1.79-1.8 2.59-3.3 2.59 -1.4 0-2.5-.6-3.3-1.8 -1.1-1.6-1.7-4-1.7-7.2 -.1-3.5.49-6.3 1.69-8.4Zm43.28 16.99c1.29-.1 2.09-.2 2.39-.2 .89 0 1.39.39 1.39 1.29 0 1.09-.6 2.59-1.7 4.39 -1.2 1.99-2.7 3.49-4.4 4.59 -1.4.89-2.1 1.59-2.1 2.09 0 .69 1.09 1.69 3.39 2.89 2.19 1.19 4.09 1.79 5.49 1.79 .79 0 1.79-.4 2.99-1.3 4.99-3.7 9.29-8.7 12.99-14.9 3.29-5.6 4.99-11 4.99-16.1 0-6.3-2.5-10.9-7.6-13.8 -3.9-2.1-8.1-3.2-12.8-3.2 -5.8 0-10.7 1.49-14.7 4.39 -3.8 2.69-5.7 6.59-5.7 11.59 0 2.49.49 4.89 1.39 7.19 .89 2.29 2.29 4.29 3.99 5.89 2.29 2.19 5.29 3.19 8.99 3.19 .39.19.69.19.89.09Zm1.99-21c.69-.8 1.49-1.3 2.49-1.3 1.09 0 2.09.49 2.99 1.49 .69.79 1.29 1.99 1.79 3.59 .49 1.59.79 2.99.79 4.29 0 1.09-.3 1.99-.9 2.69 -.6.69-1.4 1.09-2.3 1.09 -1.6 0-3-.9-4.2-2.6 -1.2-1.7-1.8-3.8-1.8-6.2 .09-1.2.49-2.2 1.09-3.1Zm8.49-128.05c-13.6-13.6-32.99-18-50.19-13.1 -3-30.39-28.69-54.18-59.78-54.18 -28.79 0-52.88 20.29-58.68 47.38 -19-6.1-40.59-1.6-55.68 13.49 -21.5 21.49-21.5 56.27-.001 77.76 17.79 17.79 43.78 22.89 57.27 22.89h6.39 98.66c20.39.09 42.48-2.2 61.87-21.5 20.09-20.2 20.09-52.68.09-72.78Zm-85.57 43.28c-4 6.79-18.4 28.08-25.4 28.08 -3.7 0-17.3-6.8-17.3-11.6 0-1.7 1.89-3.5 2.89-4.1 6.29-4.1 13.19-16.1 13.19-22.7 0-2.2-1.2-3.1-2.8-3.1 -2.1 0-4.3.49-6.4.49 -19.3 0-28.19-20.9-28.19-39.69 0-26.49 20.59-38.59 39.38-38.59 19.99-.001 40.18 12.29 40.18 40.18 0 19.09-6.7 35.98-15.6 50.98v0Zm-25.6-66.78c-4.4 0-6.8 5.79-6.8 10.79 0 8.29 3.69 21.39 11.59 21.39 4.09 0 6.29-4.6 6.29-9.3 -.1-7.1-3.4-22.9-11.1-22.9v0Z"/></svg>