<svg viewBox="0 0 256 255" xmlns="http://www.w3.org/2000/svg"><path fill="#265597" d="M99.7 5c3.4-.89 6.64-1.71 9.87-2.58 6.46-1.76 13.07-2.48 19.74-2.43 15.01.1 29.14 3.74 42.06 11.43 22.14 13.19 35.71 32.54 40.83 57.81 .73 3.63.08 7.19-.52 10.74 -2.94 17.48-10.78 32.43-23.38 44.9 -.51.5-1.04.98-1.56 1.47 -.06.05-.14.07-.36.19 .5-1.76.99-3.39 1.45-5.03 1.97-7.02 3.06-14.16 3.34-21.44 .48-12.82-1.52-25.23-6.31-37.11 -1.31-3.24-3.11-6.38-5.19-9.18 -4.95-6.64-9.83-13.4-15.42-19.48C150.4 19.22 133.12 10.14 113 6.55c-4.34-.78-8.76-1.08-13.39-1.62Zm69.48 81.83c-14.68-27.31-36.79-44.5-67.33-50.08 -30.54-5.58-57.22 2.77-80.53 23.05 1.08-1.96 2.1-3.96 3.27-5.85 12.97-20.96 31.45-34.37 55.63-39.14 24.32-4.8 46.95.02 67.44 14.14 1.99 1.37 3.57 3.47 5.07 5.43 8.49 11.13 13.83 23.63 15.67 37.52 .6 4.57.59 9.24.85 13.86 .01.29-.07.59-.12 1.03Zm-42.82-16.88c-29.05-8.82-56.75-5.81-82.01 11.68C19.1 99.1 6.45 123.89 4.54 154.57c-.25-.74-.45-1.34-.64-1.93 -.21-.65-.42-1.28-.61-1.93 -2.33-8.3-3.62-16.77-3.28-25.38 .86-21.8 8.64-40.77 23.81-56.55 11.06-11.52 24.4-19.23 39.88-23.2 2.49-.64 5.01-1.31 7.56-1.51 2.26-.19 4.59.12 6.86.45 16.21 2.34 30.48 8.93 42.72 19.82 1.97 1.75 3.71 3.77 5.46 5.57Zm69.41-47.31c9.3 4.53 17.38 10.58 24.38 18.07 11.51 12.33 18.82 26.84 21.52 43.48 3.72 22.92-.98 44.08-14.39 63.11 -1.75 2.47-4.47 4.36-6.98 6.19 -11.39 8.3-24.15 13.23-38.14 14.82 -4.23.48-8.51.5-12.76.59 26.93-14.58 44.44-36.34 49.93-66.61 5.48-30.26-3.2-56.74-23.6-79.7ZM85.91 87.18c-26.86 14.42-44.35 36.13-49.83 66.37 -5.47 30.17 3.12 56.63 23.35 79.47 -.07.09-.14.19-.2.29 -3.63-2.25-7.38-4.3-10.85-6.77 -17.39-12.37-28.85-28.91-33.58-49.72 -5.65-24.83-1.06-47.84 13.57-68.77 .49-.71 1.14-1.32 1.8-1.88 12.37-10.42 26.6-16.66 42.65-18.59 4.31-.52 8.69-.55 13.03-.8 0 .11.01.22.01.34ZM154.01 250c-2.39.66-4.75 1.38-7.15 1.98 -7.67 1.92-15.49 2.79-23.36 2.32 -29.15-1.77-51.85-14.9-67.93-39.26 -6.24-9.46-10.16-19.91-11.91-31.09 -.41-2.6.01-5.38.39-8.03 2.07-14.45 7.65-27.44 16.77-38.83 2.44-3.06 5.28-5.81 7.94-8.69 .17-.2.41-.34.66-.55 -8.89 29.29-5.86 56.99 11.64 82.25 17.5 25.25 42.3 37.92 72.89 39.86Zm-67.4-81.52c14.51 27 36.24 44.43 66.43 49.9 30.2 5.47 56.66-3.16 79.64-23.37 -1.07 1.91-2.06 3.88-3.2 5.74 -12.18 19.88-29.47 33.08-52.14 38.6 -24.89 6.05-48.07 1.62-69.23-12.91 -1-.69-1.91-1.57-2.69-2.5 -9.55-11.43-15.55-24.49-17.94-39.21 -.84-5.15-1.14-10.32-1-15.53 0-.2.04-.4.08-.77Zm165.18-68.52c1.01 4.42 2.18 8.82 3 13.29 1.33 7.25 1.45 14.6.73 21.92 -1.16 11.74-4.59 22.81-10.46 33.07 -9.62 16.83-23.36 29.05-41.2 36.64 -5.97 2.54-12.16 4.42-18.59 5.27 -2.54.33-5.23-.05-7.8-.41 -12.57-1.81-24.1-6.33-34.55-13.56 -4.72-3.26-9.04-6.98-12.97-11.16 -.21-.22-.39-.47-.58-.7 29.24 8.87 56.93 5.87 82.2-11.61 25.23-17.47 37.91-42.24 39.8-72.7 .12-.04.24-.08.36-.12ZM93.67 164.8c5.4 4.91 11.27 9.14 17.58 12.77 .38.22.71.62.96 1.01 7.74 11.8 17.68 21.31 29.86 28.47 .21.12.42.27.56.5 -22.07-7.68-38.38-21.96-48.99-42.77Zm68.43-75.4c-1.75-1.47-3.41-3.07-5.27-4.39 -3.84-2.74-7.79-5.32-11.68-7.99 -.51-.35-1.06-.74-1.39-1.25 -7.69-11.7-17.52-21.15-29.55-28.32 -.27-.16-.52-.34-.7-.61 21.87 7.64 38.06 21.82 48.55 42.52Zm47.14 21.71c-7.79 21.98-21.96 38.24-42.72 48.79 .19-.26.37-.53.59-.77 4.48-4.96 8.37-10.35 11.72-16.15 .3-.53.74-1.05 1.24-1.39 11.84-7.78 21.36-17.76 28.56-29.97 .09-.17.21-.33.33-.49 .01-.02.05-.02.26-.06ZM89.34 94.33c-2.48 3.17-5.05 6.29-7.43 9.54 -1.68 2.29-3.08 4.8-4.67 7.17 -.47.69-1.05 1.4-1.74 1.86 -11.51 7.65-20.85 17.38-27.93 29.26 -.2.32-.42.63-.76 1.15 6.11-19.78 22.07-39.24 42.49-49.01ZM59.49 81.95c20.89-10.17 42.38-11.57 64.45-4.45 -6.38.34-12.69 1.19-18.86 2.83 -2.1.55-4.06.54-6.17.15 -13.01-2.42-25.94-1.99-38.76 1.33 -.23.05-.46.08-.68.11Zm17.41 48.51c.49 4.04.9 8.17 1.52 12.27 .4 2.65 1.05 5.28 1.71 7.89 .28 1.14.33 2.21.09 3.37 -1.69 8.16-2.35 16.42-1.51 24.72 .55 5.5 1.6 10.95 2.31 15.68 -2.47-4.01-7.48-17.22-8.35-31.12 -.71-11.26.65-22.23 4.19-32.84Zm97.68-71.55c10.09 21.28 11.51 42.84 4.5 64.92 -.59-4.49-1.13-8.99-1.78-13.48 -.28-1.88-.64-3.77-1.23-5.57 -.65-1.97-.53-3.85-.15-5.82 1.82-9.38 2.12-18.82.74-28.27 -.57-3.84-1.35-7.63-2.1-11.81Zm-42.72 117.84c7.27-.27 14.38-1.56 21.42-3.35 .92-.24 2.02.1 3.01.29 13.33 2.56 26.56 2.09 39.7-1.29 .22-.06.44-.11.68-.04 -21.01 10.13-42.63 11.54-64.84 4.36Z"/></svg>