<svg viewBox="0 0 256 294" xmlns="http://www.w3.org/2000/svg"><path fill="#248BD2" d="M197.24 224.28l9.34 16.18c.66 1.14.26 2.61-.88 3.27l-4.82 2.78c-1.13.65-2.57.26-3.22-.87l-9.35-16.2c-.62-1.07-1.94-1.46-3.05-.93 -9.57 4.55-20.05 7.48-31.11 8.39 -1.24.1-2.19 1.1-2.19 2.33v18.61c0 1.3-1.06 2.36-2.37 2.36h-5.55c-1.33 0-2.41-1.08-2.41-2.41v-18.58c0-1.23-.96-2.23-2.18-2.33 -11.07-.88-21.57-3.78-31.15-8.3 -1.13-.54-2.47-.14-3.1.94l-9.247 16.018c-.67 1.14-2.13 1.54-3.28.87l-4.82-2.78c-1.13-.66-1.52-2.1-.87-3.23l9.26-16.05c.62-1.08.29-2.44-.73-3.15 -8.91-6.17-16.65-13.89-22.83-22.79 -.71-1.02-2.05-1.34-3.11-.72l-16.02 9.24c-1.14.65-2.6.26-3.26-.88l-2.75-4.77c-.68-1.17-.28-2.66.89-3.33l15.96-9.22c1.06-.62 1.45-1.94.93-3.05 -4.56-9.59-7.47-20.1-8.37-31.19 -.1-1.24-1.11-2.2-2.35-2.2H36.15c-1.33 0-2.41-1.08-2.41-2.41v-5.56c0-1.31 1.05-2.36 2.35-2.36h18.46c1.25 0 2.27-.98 2.37-2.23 .9-11.07 3.81-21.57 8.35-31.14 .53-1.13.13-2.46-.94-3.08l-15.98-9.23c-1.16-.67-1.55-2.14-.88-3.29l2.75-4.78c.66-1.15 2.12-1.54 3.26-.88l16.015 9.24c1.06.61 2.4.29 3.1-.72 6.18-8.91 13.92-16.64 22.84-22.81 1.01-.71 1.34-2.05.72-3.13l-9.28-16.07c-.66-1.13-.27-2.58.86-3.23l4.81-2.78c1.14-.67 2.6-.27 3.27.87l9.26 16.04c.61 1.06 1.94 1.46 3.05.93 9.57-4.53 20.07-7.43 31.14-8.31 1.23-.1 2.19-1.11 2.19-2.35V36.47c0-1.35 1.08-2.43 2.43-2.43h5.51c1.3 0 2.37 1.06 2.37 2.37v18.6c0 1.23.95 2.23 2.18 2.34 11.04.91 21.518 3.83 31.07 8.38 1.12.53 2.46.13 3.09-.95l9.32-16.16c.65-1.14 2.1-1.52 3.23-.87l4.79 2.77c1.15.66 1.54 2.13.88 3.28l-9.33 16.146c-.63 1.07-.3 2.43.72 3.14 4.57 3.18 8.85 6.76 12.76 10.72 2.91 2.94 7.55 3.27 10.73.61l31.82-26.62c3.3-2.77 3.61-7.75.67-10.89C225.11 16.27 183.58-2.13 137.81.49 68.4 4.45 5.31 66.34.14 135.67c-6.44 86.12 61.53 157.99 146.28 157.99 41.81 0 79.53-17.51 106.26-45.59 3.52-3.71 3.1-9.65-.82-12.93l-31.38-26.25c-2.79-2.33-6.87-2.07-9.39.54 -4.09 4.22-8.6 8.03-13.44 11.39 -1.01.7-1.33 2.03-.72 3.1"/><path fill="#423B3D" d="M146.8 161.1c-7.87 0-14.25-6.38-14.25-14.25s6.37-14.25 14.24-14.25c7.86 0 14.24 6.37 14.24 14.24 0 7.86-6.38 14.24-14.25 14.24m2.6-57.73c-20.08-1.17-37.41 11.27-43.66 28.95 -.39 1.09.1 2.3 1.1 2.88l16.61 9.59c1.57.91 1.57 3.18 0 4.09l-16.62 9.59c-1.01.57-1.49 1.79-1.11 2.88 5.98 16.91 22.09 29.02 41.05 29.02 24.75 0 44.68-20.66 43.5-45.67 -.99-20.92-20-40.15-40.91-41.37"/></svg>