<svg viewBox="0 0 256 275" xmlns="http://www.w3.org/2000/svg"><path fill="#F46A54" d="M233.06 0H22.9C10.27.02.04 10.23-.02 22.85v228.56c.05 12.62 10.3 22.83 22.92 22.85h210.15c12.62-.02 22.86-10.24 22.92-22.86v-10.67c-.39-13.72-.77-42.29-.77-55.24 0-7.25-5.35-13.34-12.23-13.34 -7.65 0-12.61 4.57-16.43 8.37 -11.47 10.29-28.67 12.19-43.57 9.53 -6.88-1.53-13.38-3.43-18.72-6.86 -16.44-9.54-27.14-27.44-27.14-46.48 0-19.05 10.69-36.58 27.12-46.48 5.73-3.43 12.23-5.34 18.72-6.86 14.52-2.67 32.09-.77 43.55 9.52 4.2 3.81 9.16 8.37 16.42 8.37 6.87 0 12.22-6.1 12.22-13.34 0-12.57.38-41.53.76-55.24v-9.91c0-12.57-10.32-22.86-22.93-22.86h-.01Z"/></svg>