<svg viewBox="0 0 256 164" xmlns="http://www.w3.org/2000/svg"><path fill="#19223C" d="M139.53.22L9 82.39C2.85 86.1-.16 90.27-.01 94.88v12.5c.14 4.61 3.22 8.7 9.23 12.27l64.59 37.28c.38.22.81.36 1.25.4 .44.04.88-.02 1.3-.17 .41-.15.79-.39 1.11-.7 .31-.32.56-.69.71-1.11l14.5-35.06 -30.77-17.42c-.89-.46-1.64-1.16-2.16-2.01 -.4-.64-.66-1.35-.78-2.1s-.09-1.5.09-2.23 .5-1.42.95-2.02c.44-.61 1.01-1.11 1.65-1.5l56.47-34.61 23.28-56.71c.09-.27.1-.56.02-.83 -.08-.28-.24-.52-.46-.69 -.22-.18-.49-.28-.77-.29 -.28-.01-.56.07-.79.22h0Z"/><path fill="#67A4AC" d="M246.76 46L183.04 7.37c-.37-.24-.79-.38-1.22-.44 -.44-.06-.88-.03-1.29.1 -.42.12-.81.34-1.13.63 -.33.28-.59.64-.77 1.04l-14.95 35.05L194 61.83c.87.47 1.59 1.18 2.1 2.04 .5.86.77 1.85.77 2.86 0 1-.27 1.99-.78 2.86 -.51.86-1.24 1.57-2.11 2.05l-56.92 33.48 -24.18 56.26c-.24.26-.36.61-.34.97 .02.35.17.68.44.92 .12.11.28.2.44.26 .16.05.33.08.51.07 .17-.02.34-.06.5-.14 .15-.08.29-.19.41-.32l41.75-25.24 16.48 23.66c.36.54.84.99 1.42 1.3 .57.31 1.21.47 1.87.47h39.55c.72 0 1.42-.2 2.04-.57 .61-.38 1.11-.92 1.44-1.56 .33-.65.49-1.37.46-2.1 -.04-.73-.27-1.43-.67-2.04l-26.81-41.09 54.27-32.82c6.15-3.73 9.22-7.89 9.22-12.51V58.36c0-4.62-3.08-8.78-9.24-12.51h-.01Z"/></svg>