<svg viewBox="0 0 512 73" xmlns="http://www.w3.org/2000/svg"><g><path d="M72.33 0v72.33H-.01V-.01h72.33Zm-7.4 7.39H7.39v57.53h57.53V7.38Z"/><path d="M147.26 42.53h-7.8c-1.14 7.05-5.86 11.12-12.39 11.12 -8.66 0-14.32-6.73-14.32-17.45 0-10.59 5.46-17.45 13.85-17.45 6.79 0 11.25 3.99 12.51 11.18h7.79c-1.54-10.53-9.99-17.38-20.58-17.38 -12.72 0-21.51 10.52-21.51 23.63 0 13.51 8.98 23.63 21.7 23.63 10.58 0 19.11-6.8 20.7-17.32Zm35.74 0c0-8.99-6.2-17.32-16.32-17.32 -10.13 0-16.32 8.32-16.32 17.31 0 8.98 6.19 17.31 16.31 17.31 10.12 0 16.31-8.33 16.31-17.32Zm-24.98 0c0-7.13 3.12-11.92 8.65-11.92 5.59 0 8.72 4.79 8.72 11.91 0 7.05-3.13 11.91-8.73 11.91 -5.53 0-8.66-4.87-8.66-11.92Zm53.29 9.65h-.2c-1.6 4.59-5.47 7.65-10.53 7.65 -9.06 0-13.99-8-13.99-17.32 0-9.33 5.12-17.32 13.98-17.32 5.06 0 8.92 2.99 10.52 7.59h.19V13.2h7.12v45.94h-7.13v-7Zm-8.4-21.58c-5.53 0-8.66 4.79-8.66 11.91 0 7.05 3.12 11.91 8.65 11.91 5.59 0 8.65-4.87 8.65-11.92 0-7.13-3.07-11.92-8.66-11.92Zm51.33 18.24h-7.26c-.8 2.66-2.67 5.59-7 5.59 -5.07 0-8.59-3.53-8.93-9.59h23.77c.99-11.59-5.53-19.65-15.45-19.65 -9.93 0-15.59 8.12-15.59 17.31 0 9.18 5.79 17.31 15.71 17.31 8.12 0 13.31-4.4 14.71-10.99Zm-14.85-18.25c4.86 0 7.72 3.46 8.19 8.85h-16.45c.46-5.4 3.39-8.86 8.25-8.86Zm36.06.33l7.48 1.79c8.65 1.99 12.98 6.52 12.98 13.78 0 7.65-7.46 13.31-18.12 13.31 -12.19 0-18.78-8.53-19.52-16.85h7.79c.46 5.99 5.32 10.65 11.78 10.65 5.85 0 10.18-2.54 10.18-6.8 0-3.73-2.8-5.73-8.73-7.13l-6.66-1.54c-8.99-2.14-13.46-6.33-13.46-12.72 0-7.73 7.59-12.92 16.84-12.92 11.71 0 17.71 6.39 18.51 14.31h-7.8c-.6-5.47-5.2-8.13-10.59-8.13 -5.27 0-9.06 2.26-9.06 6.19 0 2.73 1.78 4.2 6.78 5.59l1.51.39v0Zm48.47 21.24h.19v6.99h7.12v-33.3h-7.13v6.92h-.2c-1.6-4.6-5.47-7.6-10.53-7.6 -8.86 0-13.99 7.99-13.99 17.31 0 9.32 4.92 17.31 13.98 17.31 5.06 0 8.92-3.07 10.52-7.66Zm-16.85-9.66c0-7.13 3.19-11.92 8.59-11.92 5.39 0 8.72 4.79 8.72 11.91 0 7.05-3.33 11.91-8.73 11.91 -5.33 0-8.6-4.87-8.6-11.92Zm38.68-3.33v19.97h-7.26v-33.3h7.05v6.52h.13c1.39-4.67 4.86-7.2 9.72-7.2 7.32 0 10.92 4.99 10.92 12.31v21.64h-7.26V39.59c0-6.2-2.2-8.99-6.66-8.99 -4.47 0-6.66 3.06-6.66 8.52Zm50.26 12.98h.19v6.99h7.12V13.19h-7.13v19.57h-.2c-1.6-4.6-5.47-7.6-10.53-7.6 -8.86 0-13.99 7.99-13.99 17.31 0 9.32 4.92 17.31 13.98 17.31 5.06 0 8.92-3.07 10.52-7.66Zm-16.85-9.66c0-7.13 3.12-11.92 8.65-11.92 5.59 0 8.65 4.79 8.65 11.91 0 7.05-3.07 11.91-8.66 11.91 -5.53 0-8.66-4.87-8.66-11.92Zm49.27-17.32c8.85 0 13.98 7.99 13.98 17.31 0 9.32-4.93 17.31-13.99 17.31 -5.07 0-8.93-3.07-10.53-7.66h-.2v6.99h-7.13V13.17h7.12v19.57h.19c1.59-4.6 5.46-7.6 10.52-7.6Zm-2.34 5.39c-5.6 0-8.66 4.79-8.66 11.91 0 7.05 3.06 11.91 8.65 11.91 5.52 0 8.65-4.87 8.65-11.92 0-7.13-3.13-11.92-8.66-11.92Zm36.28-5.4c10.12 0 16.31 8.32 16.31 17.31 0 8.98-6.2 17.31-16.32 17.31 -10.13 0-16.32-8.33-16.32-17.32s6.19-17.32 16.31-17.32Zm25.37.66l7.19 10.38 7.19-10.39h8.12l-11.06 15.31 12.71 17.97h-8.13l-8.86-12.92 -8.86 12.91h-8.19l12.78-17.92 -11.13-15.39h8.18Zm-25.38 4.72c-5.53 0-8.66 4.79-8.66 11.91 0 7.05 3.12 11.91 8.65 11.91 5.59 0 8.72-4.87 8.72-11.92 0-7.13-3.13-11.92-8.73-11.92Z"/></g></svg>