<svg viewBox="0 0 512 108" xmlns="http://www.w3.org/2000/svg"><g fill="#204156"><path d="M20.94 74.17c-.93-2.8-1.38-6.33-1.38-11.08s.45-8.29 1.37-11.08C23.5 44 30.32 39.63 39.26 39.63c6.63 0 11.88 2.69 15.39 6.98 .27.36.36.92-.1 1.29l-5.81 5.11c-.47.37-.93.28-1.3-.19 -2.22-2.52-4.52-3.92-8.21-3.92 -3.97 0-7 1.95-8.3 5.86 -.74 2.23-.93 4.84-.93 8.28 0 3.44.18 6.13.92 8.37 1.29 3.81 4.33 5.76 8.29 5.76 3.68 0 5.98-1.4 8.2-3.91 .37-.48.83-.48 1.29-.1l5.8 5.11c.45.37.36.83.09 1.3 -3.51 4.19-8.76 6.88-15.4 6.88 -8.94-.01-15.76-4.39-18.34-12.38"/><path d="M222.27 74.17c-.93-2.8-1.38-6.33-1.38-11.08s.45-8.29 1.37-11.08c2.58-8.01 9.39-12.38 18.33-12.38 6.63 0 11.89 2.69 15.39 6.98 .27.36.36.92-.1 1.29l-5.81 5.11c-.47.37-.92.28-1.29-.19 -2.21-2.52-4.52-3.92-8.21-3.92 -3.96 0-7.01 1.95-8.29 5.86 -.74 2.23-.92 4.84-.92 8.28 0 3.44.17 6.13.91 8.37 1.28 3.81 4.33 5.76 8.28 5.76 3.68 0 5.99-1.4 8.2-3.91 .36-.48.82-.48 1.28-.1l5.8 5.11c.46.37.36.83.09 1.3 -3.5 4.19-8.76 6.88-15.4 6.88 -8.94-.01-15.76-4.39-18.34-12.38"/><path d="M454.96 85.53c-.56 0-.93-.37-.93-.94V58.72c0-5.78-2.86-9.78-8.39-9.78 -5.35 0-8.48 4-8.48 9.77v25.86c0 .56-.38.93-.93.93h-8.49c-.56 0-.93-.37-.93-.94V58.69c0-5.78-2.86-9.78-8.38-9.78 -5.35 0-8.49 4-8.49 9.77v25.86c0 .56-.37.93-.93.93h-8.48c-.56 0-.93-.37-.93-.94v-43c0-.56.36-.94.92-.94h8.47c.55 0 .92.37.92.93v3.25h.09c1.93-2.8 5.8-5.22 11.7-5.22 5.25 0 9.49 2.13 12.15 5.95h.09c3.4-3.72 7.83-5.96 14.19-5.96 10.31 0 16.12 7.07 16.12 16.65v28.28c0 .56-.38.93-.93.93h-8.48v0Z"/><path d="M477.16 102.27c-.56 0-.92-.38-.92-.94v-7.45c0-.56.36-.94.91-.94h1.66c3.49 0 5.25-1.58 6.63-5.31l1.29-3.82 -16.22-42.25c-.19-.56.18-.94.74-.94h9.11c.55 0 .92.37 1.1.93l10.04 29.31h.18l9.58-29.32c.18-.56.55-.94 1.1-.94h8.75c.55 0 .92.37.73.93l-16.96 46.71c-3.87 10.6-7.56 13.95-14.93 13.95l-2.86 0v0Z"/><path d="M63.15 74.18c-1.02-3.17-1.48-6.15-1.48-11.08s.46-7.91 1.47-11.07c2.48-7.82 9.3-12.38 18.32-12.38 8.93 0 15.74 4.55 18.23 12.37 1 3.15 1.47 6.13 1.47 11.06 0 4.93-.47 7.9-1.48 11.07 -2.49 7.81-9.31 12.36-18.24 12.36 -9.03 0-15.85-4.56-18.33-12.37m26.61-2.8c.73-2.33.92-4.47.92-8.29 0-3.81-.19-5.86-.93-8.28 -1.29-3.72-4.15-5.87-8.29-5.87 -4.15 0-7.1 2.14-8.39 5.86 -.74 2.41-.93 4.46-.93 8.27 0 3.81.18 5.96.92 8.28 1.28 3.72 4.24 5.85 8.38 5.85 4.14-.01 7-2.14 8.28-5.86"/><path d="M280.68 39.65c-7.29 0-12.17 1.76-15.76 4.37 -.37.28-.46.74-.18 1.2l3.4 6.14c.28.46.83.55 1.29.18 2.12-1.68 5.15-3.08 10.13-3.08 7.25 0 9.72 2.2 9.84 7.04h0v.05c0 .11 0 .22 0 .34V70.4c0 5.11-3.5 7.62-9.86 7.62 -4.98 0-7.65-1.86-7.65-5.58 0-4.2 2.95-6.06 9.58-6.06l2.01 0c.55 0 .92-.38.92-.93v-5.97c0-.56-.38-.93-.93-.93h-.45l-3.24-.01c-10.97 0-17.79 4.47-17.79 14.23 0 9.4 6.82 13.67 14.92 13.67 6.26 0 10.4-2.14 12.52-5.21h.08v3.25c0 .55.37.93.92.93h7.73c.55 0 .92-.38.92-.94V55.15c0-10.98-4.98-15.64-18.52-15.64"/><path d="M170.6 58.63c-.25 0-.4.15-.4.39v.26 .77 4.92 .66 .38c0 .24.15.4.39.4h.22 22.58c.64 0 1.01-.37 1.01-.93 0-7.27-.47-10.34-1.48-13.5 -2.5-7.64-9.13-12.38-18.25-12.38 -8.85 0-15.67 4.55-18.16 12.37 -.92 2.88-1.48 6.42-1.48 11.07s.64 8.09 1.57 10.98c2.48 7.81 9.11 12.46 18.51 12.46 8.19 0 14.46-3.17 18.24-7.64 .36-.47.36-.93-.1-1.31l-5.44-4.84c-.47-.38-.93-.28-1.39.18 -2.21 2.42-5.44 4.28-10.41 4.28 -4.98 0-8.48-2.42-9.95-6.79 -.23-.62-.41-1.26-.53-1.96h-.01c-.34-1.9-.54-3.74-.54-6.45 .07-2.56.21-4.19.58-6.26 0-.03 0-.06.01-.09 0-.03 0-.04.01-.06v0c.08-.49.2-.95.35-1.41 1.19-3.63 4.51-5.77 8.75-5.77 4.14 0 7.45 2.13 8.65 5.76 .37 1.12.55 2.23.55 3.81 0 .37-.19.55-.56.55h-12.11l0-.01 -.76-.01v0Z"/><path d="M146.53 22.25h-8.47c-.56 0-.93.37-.93.92v21.74 17.98 .14 .14 2.38h-.05c-.1 2.56-.38 4.25-.87 5.83 -1.2 3.71-4.06 5.75-8.29 5.75 -4.14 0-7-2.05-8.2-5.76 -.65-2.05-.92-4.28-.92-8.37 0-4.09.27-6.32.91-8.36 1.17-3.65 3.93-5.71 7.94-5.79h3.61c.17-.05.29-.19.29-.39l.04-8.5c0-.22-.14-.37-.34-.39l-2.89-.02h-3.4v0c-7.42.07-12.85 3.69-15.13 10.77 -1.11 3.44-1.57 6.6-1.57 12.64 0 6.03.45 9.19 1.56 12.63 2.29 7.15 7.82 10.78 15.36 10.78 5.98 0 9.66-2.23 11.77-5.3h.08v3.34c0 .55.36.93.92.93h8.46c.55 0 .92-.37.92-.94V23.07c0-.56-.37-.93-.92-.93"/><path d="M368.38 58.63c-.24 0-.4.15-.4.39v.26 .77 4.92 .66 .38c0 .24.16.4.39.4h.23 22.58c.64 0 1.01-.37 1.01-.93 0-7.27-.47-10.34-1.48-13.5 -2.5-7.64-9.13-12.38-18.25-12.38 -8.85 0-15.67 4.55-18.16 12.37 -.92 2.88-1.48 6.42-1.48 11.07s.64 8.09 1.57 10.98c2.48 7.81 9.11 12.46 18.51 12.46 8.19 0 14.46-3.17 18.24-7.64 .36-.47.36-.93-.1-1.31l-5.44-4.84c-.47-.38-.93-.28-1.39.18 -2.21 2.42-5.44 4.28-10.42 4.28 -4.98 0-8.48-2.42-9.95-6.79 -.23-.62-.41-1.26-.53-1.96h-.01c-.34-1.9-.54-3.74-.54-6.45 .06-2.56.21-4.19.57-6.26 0-.03.01-.06.01-.09s0-.04.01-.06v0c.09-.49.2-.95.35-1.41 1.19-3.63 4.51-5.77 8.75-5.77 4.14 0 7.45 2.13 8.65 5.76 .36 1.12.55 2.23.55 3.81 0 .37-.19.55-.56.55h-12.11v-.01l-.77-.01v0Z"/><path d="M336.27 22.25c-.56 0-.93.37-.93.92v21.77 18 .28 2.39c-.15 2.56-.43 4.25-.92 5.83 -1.2 3.72-4.07 5.76-8.3 5.76 -4.15 0-7-2.05-8.21-5.77 -.65-2.06-.93-4.28-.93-8.38 0-4.1.27-6.34.92-8.38 1.17-3.65 3.94-5.69 7.95-5.78l3.61 0c.55 0 .92-.38.92-.93V40.5c0-.56-.37-.93-.93-.93H329l-5.47-.01h-.13 -.12 -.13c-7.43.07-12.87 3.7-15.15 10.78 -1.11 3.44-1.57 6.61-1.57 12.65s.45 9.21 1.56 12.65c2.3 7.16 7.83 10.79 15.38 10.79 5.99 0 9.67-2.23 11.79-5.31l.08 3.34c0 .56.36.93.92.93h8.47c.55 0 .92-.37.92-.94V23.03c-.01-.56-.38-.93-.93-.93h-8.48Z"/><path d="M221.58 98.21v8.47c0 .55.36.92.92.92h31.41c.56 0 .93-.38.93-.93v-8.48c0-.56-.38-.93-.94-.93h-31.42c-.56 0-.93.37-.93.92"/><path d="M213.6.29c-.02-.02-.03-.04-.04-.05 -.01-.01-.01-.01-.01-.01 -.17-.16-.4-.26-.67-.26h-.02H1.08c-.07 0-.14 0-.21.01 -.02 0-.04.01-.06.01 -.05.01-.09.01-.13.03 -.01 0-.02 0-.02 0C.33.15.13.46.13.86v0 105.75 0c0 .32.12.57.33.73 .01.01.03.03.05.04v0c.14.09.32.14.53.14h211.77 .01c.31 0 .56-.13.72-.33 .12-.16.19-.36.19-.6v-.01V.82 .81c0-.26-.09-.47-.22-.63v0ZM11.42 97.28c-.07 0-.14-.01-.19-.02 -.02-.01-.04-.02-.06-.02 -.05-.01-.09-.02-.13-.04 -.01-.01-.02-.01-.02-.01 -.33-.14-.53-.44-.53-.84V19.69v-8.48c0-.41.2-.72.52-.85 0-.01.01-.01.01-.01 .03-.02.15-.05.17-.06 .06-.01.12-.02.19-.02h191.14c.06 0 .13 0 .19.01 .01 0 .03.01.05.01 .04 0 .08.01.12.03 0 0 .01 0 .01 0 .32.13.52.43.52.84v85.13c-.01.4-.21.7-.53.84 -.01 0-.02 0-.02 0 -.04.01-.09.02-.13.03 -.02 0-.04.01-.06.01 -.07.01-.13.01-.19.01H11.32v-.01 0Z"/></g></svg>