<svg viewBox="0 0 512 85" xmlns="http://www.w3.org/2000/svg"><g fill="#DD4814"><path d="M21.64 83.32c-5.35-2.37-8.99-7.46-9.46-13.29 .31-6 3.48-11.48 8.51-14.75 -.83 2.01-.63 4.3.52 6.14 1.3 1.82 3.55 2.69 5.74 2.24 3.13-.89 4.96-4.14 4.08-7.27 -.32-1.1-.94-2.1-1.8-2.85 -3.55-2.89-5.33-7.41-4.69-11.94 .6-2.4 1.93-4.57 3.8-6.2 -1.41 3.75 2.56 7.45 5.22 9.27 4.72 2.83 9.27 5.94 13.62 9.32 4.75 3.75 7.35 9.62 6.94 15.62 -1.08 6.39-5.6 11.66-11.76 13.64C54.68 80.5 67.4 70.71 67.64 56.82c-.25-11.12-6.88-21.09-17.02-25.64h-.46c.22.54.33 1.13.31 1.72 .03-.39.03-.77 0-1.15 .05.45.05.9 0 1.35 -.78 3.15-3.96 5.1-7.13 4.33 -1.27-.32-2.4-1.03-3.21-2.06 -4.07-5.21 0-11.14.67-16.87 .41-7.33-2.94-14.34-8.87-18.62 2.97 4.95-.99 11.46-3.87 15.16 -2.89 3.7-7.06 6.46-10.45 9.69 -3.66 3.4-7.02 7.14-10.03 11.14C1.07 43.82-1.49 54.31.63 64.36c2.9 9.69 10.95 16.97 20.89 18.85h.05l-.04-.04Z"/><path d="M106.18 41.7c0-3.12.53-6.2 1.6-9.27 1.11-3.12 2.72-5.89 4.81-8.32 2.09-2.44 4.66-4.41 7.73-5.91 3.06-1.56 6.53-2.34 10.42-2.34 4.61 0 8.55 1.04 11.81 3.13 3.3 2.09 5.73 4.81 7.29 8.16l-4.02 2.47c-.83-1.71-1.85-3.14-3.07-4.31 -1.17-1.17-2.44-2.12-3.8-2.85 -1.37-.73-2.78-1.24-4.24-1.54 -1.46-.35-2.9-.52-4.31-.52 -3.12 0-5.86.63-8.25 1.89 -2.39 1.26-4.41 2.91-6.06 4.95 -1.61 2.04-2.83 4.35-3.65 6.92 -.83 2.52-1.24 5.1-1.24 7.73 0 2.86.48 5.61 1.45 8.24 1.02 2.62 2.38 4.95 4.08 7 1.75 1.99 3.79 3.59 6.12 4.81 2.38 1.16 4.95 1.75 7.73 1.75 1.45 0 2.94-.18 4.44-.52 1.55-.39 3.03-.98 4.44-1.76 1.45-.83 2.79-1.83 4.01-3 1.21-1.22 2.23-2.68 3.06-4.38l4.23 2.18c-.83 1.94-2 3.67-3.51 5.17 -1.51 1.45-3.19 2.69-5.04 3.71s-3.82 1.79-5.91 2.33c-2.05.53-4.07.8-6.06.8 -3.55 0-6.81-.78-9.78-2.34 -2.97-1.56-5.52-3.58-7.66-6.06 -2.14-2.53-3.82-5.38-5.04-8.54 -1.17-3.21-1.76-6.47-1.76-9.78Zm68.63 26.98c-2.78 0-5.31-.52-7.59-1.54 -2.29-1.07-4.28-2.51-5.99-4.31 -1.66-1.8-2.95-3.89-3.87-6.28 -.93-2.39-1.39-4.89-1.39-7.52 0-2.68.46-5.21 1.38-7.59 .97-2.39 2.28-4.48 3.93-6.28 1.7-1.8 3.69-3.24 5.98-4.31 2.28-1.07 4.78-1.61 7.51-1.61 2.72 0 5.22.53 7.51 1.6 2.33 1.06 4.32 2.5 5.98 4.3 1.7 1.79 3.01 3.88 3.93 6.27 .97 2.38 1.45 4.91 1.45 7.58 0 2.62-.47 5.12-1.39 7.51 -.93 2.38-2.24 4.47-3.94 6.27 -1.66 1.79-3.65 3.23-5.99 4.3 -2.29 1.02-4.82 1.53-7.59 1.53Zm-13.79-19.55c0 2.13.36 4.13 1.09 5.98 .72 1.79 1.7 3.4 2.91 4.81 1.26 1.36 2.72 2.43 4.37 3.2 1.7.77 3.5 1.16 5.39 1.16 1.89 0 3.67-.39 5.32-1.17 1.7-.83 3.18-1.93 4.44-3.29 1.26-1.42 2.26-3.04 2.99-4.89 .72-1.85 1.09-3.85 1.09-5.99 0-2.1-.37-4.07-1.1-5.91 -.73-1.9-1.73-3.53-3-4.89 -1.27-1.42-2.75-2.51-4.45-3.29 -1.66-.83-3.43-1.24-5.33-1.24s-3.68.41-5.33 1.23c-1.66.77-3.12 1.87-4.38 3.28 -1.27 1.41-2.27 3.06-3 4.95 -.73 1.84-1.1 3.84-1.1 5.98Zm56.59 19.54c-2.63 0-5.06-.54-7.3-1.61 -2.24-1.12-4.16-2.58-5.77-4.38 -1.61-1.8-2.87-3.87-3.8-6.2 -.88-2.39-1.32-4.87-1.32-7.44 0-2.68.43-5.21 1.31-7.59 .87-2.44 2.06-4.55 3.57-6.35 1.55-1.8 3.37-3.21 5.47-4.24 2.13-1.07 4.47-1.61 7-1.61 3.2 0 6.05.85 8.53 2.55 2.47 1.65 4.42 3.67 5.83 6.05v-23.2h4.95v46.82c0 1.36.58 2.04 1.75 2.04v4.37c-.73.14-1.32.21-1.76.21 -1.17 0-2.19-.37-3.07-1.1 -.88-.78-1.32-1.71-1.32-2.78v-3.72c-1.51 2.47-3.55 4.44-6.13 5.9 -2.58 1.45-5.26 2.18-8.03 2.18Zm1.09-4.38c1.21 0 2.5-.25 3.86-.73 1.41-.49 2.72-1.15 3.93-1.97 1.21-.88 2.23-1.88 3.06-3 .87-1.17 1.41-2.41 1.6-3.72V43.12c-.49-1.32-1.2-2.53-2.12-3.65 -.93-1.17-2-2.19-3.21-3.07 -1.17-.88-2.44-1.56-3.8-2.05 -1.37-.49-2.7-.73-4.02-.73 -2.05 0-3.89.43-5.55 1.31 -1.66.87-3.09 2.04-4.31 3.5 -1.17 1.41-2.07 3.03-2.7 4.88 -.64 1.84-.95 3.74-.95 5.68 0 2.04.36 3.98 1.09 5.83 .72 1.84 1.72 3.47 2.99 4.88 1.26 1.36 2.74 2.45 4.44 3.28 1.75.82 3.62 1.23 5.61 1.23Zm45.07 4.37c-2.78 0-5.33-.52-7.66-1.54 -2.29-1.07-4.28-2.51-5.99-4.31 -1.71-1.85-3.04-3.97-4.02-6.35 -.93-2.39-1.39-4.94-1.39-7.66 0-2.68.46-5.18 1.38-7.52 .97-2.39 2.28-4.45 3.93-6.2 1.7-1.8 3.71-3.21 6.05-4.24 2.33-1.07 4.86-1.61 7.58-1.61 2.77 0 5.3.53 7.58 1.6 2.33 1.02 4.32 2.43 5.98 4.23 1.65 1.79 2.94 3.86 3.86 6.19 .92 2.33 1.38 4.81 1.38 7.43 0 .38 0 .77 0 1.16 0 .38-.03.65-.08.8h-32.53c.14 2.04.6 3.93 1.38 5.68 .82 1.7 1.87 3.18 3.13 4.44 1.26 1.26 2.69 2.26 4.3 2.99 1.65.68 3.4 1.02 5.25 1.02 1.21 0 2.43-.18 3.64-.52 1.21-.35 2.33-.81 3.35-1.39 1.02-.59 1.94-1.29 2.77-2.12 .82-.88 1.45-1.83 1.89-2.85l4.3 1.16c-.59 1.41-1.42 2.69-2.48 3.86 -1.07 1.11-2.31 2.11-3.72 2.99 -1.42.82-2.97 1.48-4.67 1.96 -1.71.43-3.48.65-5.33.65Zm-13.94-21.74h27.93c-.15-2.05-.64-3.89-1.46-5.55 -.78-1.71-1.8-3.17-3.07-4.38 -1.22-1.22-2.66-2.17-4.31-2.85 -1.61-.69-3.34-1.03-5.18-1.03 -1.85 0-3.6.34-5.26 1.02 -1.66.68-3.12 1.62-4.38 2.84 -1.22 1.21-2.22 2.67-3 4.37 -.73 1.7-1.17 3.54-1.32 5.54Zm50.32 21h-10.07V16.13h10.06v51.78Zm24.36.21c-2.58 0-4.92-.52-7.01-1.54 -2.1-1.03-3.92-2.41-5.48-4.16 -1.51-1.8-2.68-3.87-3.51-6.2 -.83-2.34-1.24-4.82-1.24-7.44 0-2.78.43-5.35 1.31-7.74 .87-2.39 2.09-4.48 3.64-6.28 1.55-1.8 3.42-3.21 5.61-4.24 2.18-1.03 4.59-1.54 7.22-1.54 2.96 0 5.56.68 7.8 2.04 2.23 1.31 4.08 3.08 5.54 5.32v-6.72h8.53v36.39c0 2.82-.54 5.34-1.61 7.58 -1.07 2.23-2.56 4.13-4.45 5.68 -1.85 1.55-4.09 2.74-6.72 3.57 -2.58.82-5.4 1.23-8.47 1.23 -4.19 0-7.71-.69-10.58-2.05 -2.83-1.42-5.26-3.38-7.3-5.91l5.32-5.18c1.45 1.79 3.28 3.2 5.47 4.23 2.23 1.02 4.59 1.53 7.07 1.53 1.5 0 2.94-.2 4.3-.59 1.41-.44 2.65-1.1 3.71-1.97 1.06-.88 1.89-2 2.47-3.36 .63-1.37.94-2.97.94-4.82v-4.82c-1.27 2.18-3.04 3.88-5.33 5.1 -2.29 1.16-4.75 1.75-7.37 1.75Zm3.28-7.81c1.06 0 2.09-.18 3.06-.52 .97-.35 1.87-.81 2.69-1.39 .82-.59 1.55-1.27 2.18-2.05 .63-.78 1.11-1.61 1.45-2.48v-9.12c-.88-2.24-2.27-4.04-4.16-5.4 -1.85-1.37-3.8-2.05-5.84-2.05 -1.51 0-2.87.34-4.09 1.02 -1.22.63-2.27 1.5-3.14 2.62 -.88 1.06-1.56 2.3-2.05 3.71 -.44 1.41-.66 2.86-.66 4.37 0 1.55.26 3.01.8 4.37 .53 1.36 1.26 2.55 2.18 3.57 .97 1.02 2.09 1.82 3.35 2.4 1.26.58 2.65.87 4.15.87Zm63.52-16.27V67.9h-9.78V46.45c0-3.07-.54-5.31-1.61-6.72 -1.07-1.42-2.56-2.12-4.45-2.12 -.98 0-1.97.19-3 .58 -1.03.38-2 .94-2.92 1.67 -.88.68-1.68 1.5-2.41 2.47 -.73.97-1.27 2.04-1.61 3.2v22.31h-9.78V29.62h8.82v7.07c1.41-2.44 3.45-4.33 6.12-5.69 2.67-1.37 5.68-2.05 9.04-2.05 2.38 0 4.32.43 5.83 1.31 1.5.87 2.67 2.01 3.5 3.42 .82 1.41 1.38 3.01 1.67 4.81 .34 1.79.51 3.62.51 5.47Zm18.3 23.85h-9.78V29.68h9.77v38.21Zm0-43.55h-9.78v-9.71h9.77v9.7Zm29.75 33.84l1.96 7.73c-1.32.58-2.92 1.16-4.82 1.75 -1.9.58-3.89.87-5.99.87 -1.37 0-2.66-.18-3.87-.52 -1.17-.35-2.22-.88-3.14-1.61 -.88-.78-1.59-1.76-2.12-2.92 -.54-1.22-.81-2.68-.81-4.38V37.15h-5.04v-7.52h5.03v-12.4h9.77v12.39h8.02v7.51h-8.03V55.8c0 1.36.34 2.33 1.02 2.91 .72.53 1.6.8 2.62.8s2.01-.18 2.99-.52c.97-.35 1.75-.64 2.33-.88Zm23.85 10.42c-3.07 0-5.84-.52-8.32-1.54 -2.48-1.07-4.6-2.51-6.35-4.31 -1.76-1.8-3.12-3.89-4.09-6.28 -.93-2.39-1.39-4.89-1.39-7.52 0-2.73.46-5.28 1.38-7.66 .92-2.44 2.26-4.55 4.01-6.35 1.75-1.85 3.86-3.31 6.34-4.38 2.52-1.07 5.34-1.61 8.46-1.61 3.11 0 5.88.53 8.31 1.6 2.47 1.06 4.57 2.5 6.27 4.3 1.75 1.79 3.06 3.88 3.93 6.27 .92 2.38 1.38 4.86 1.38 7.43 0 .63-.03 1.23-.08 1.82 0 .58-.05 1.06-.15 1.45h-29.54c.14 1.5.51 2.84 1.09 4.01 .58 1.16 1.33 2.16 2.26 2.99 .92.82 1.96 1.45 3.13 1.89 1.16.43 2.38.65 3.64.65 1.94 0 3.76-.47 5.47-1.39 1.75-.98 2.94-2.24 3.57-3.8l8.38 2.33c-1.42 2.91-3.68 5.32-6.79 7.22 -3.07 1.84-6.74 2.77-11.02 2.77Zm-9.92-23.05h19.83c-.25-2.87-1.32-5.16-3.21-6.86 -1.85-1.76-4.11-2.63-6.79-2.63 -1.32 0-2.56.24-3.72.72 -1.12.43-2.12 1.06-3 1.89 -.88.82-1.61 1.82-2.19 2.99 -.54 1.16-.86 2.45-.95 3.86Zm58.64-16.34v8.89c-2.97.04-5.62.63-7.96 1.75 -2.34 1.06-4.02 2.69-5.04 4.88v23.12h-9.78V29.64h8.97v8.16c.68-1.32 1.48-2.48 2.4-3.51 .92-1.07 1.92-2 2.99-2.78 1.06-.78 2.13-1.37 3.2-1.76 1.11-.44 2.18-.66 3.2-.66 .53 0 .92 0 1.16 0 .29 0 .55.02.8.07Z"/></g></svg>