<svg viewBox="0 0 256 259" xmlns="http://www.w3.org/2000/svg" xmlns:xlink="http://www.w3.org/1999/xlink"><defs><linearGradient id="a" x1="-.002%" x2="100.002%" y1="49.998%" y2="49.998%"><stop offset="0%" stop-color="#0AA1A5"/><stop offset="100%" stop-color="#50D690"/></linearGradient><linearGradient id="b" x1="-.002%" x2="100.002%" y1="49.998%" y2="49.998%" xlink:href="#a"/></defs><path fill="#F44A6A" d="M56.58 28.57c0 15.78-12.67 28.57-28.29 28.57 -15.64 0-28.3-12.79-28.3-28.58C-.01 12.77 12.65-.02 28.28-.02c15.61 0 28.28 12.78 28.28 28.57Zm0 100.74c0 15.77-12.67 28.57-28.29 28.57 -15.64 0-28.3-12.8-28.3-28.58 0-15.79 12.66-28.58 28.29-28.58 15.61 0 28.28 12.78 28.28 28.57Zm0 100.73c0 15.78-12.67 28.57-28.29 28.57 -15.64 0-28.3-12.79-28.3-28.58s12.66-28.58 28.29-28.58c15.61 0 28.28 12.78 28.28 28.57Z"/><path fill="url(#a)" d="M120.57 0c-15.62 0-28.29 12.78-28.29 28.57 0 15.78 12.66 28.57 28.28 28.57H227.7c15.61 0 28.27-12.79 28.27-28.58s-12.66-28.58-28.29-28.58H120.53h.01Z"/><path fill="url(#b)" d="M120.57 100.73c-15.62 0-28.29 12.79-28.29 28.57 0 15.78 12.66 28.58 28.28 28.58h61.16c15.61 0 28.28-12.8 28.28-28.58 0-15.79-12.67-28.58-28.29-28.58h-61.17v-.02Z"/></svg>