<svg viewBox="0 0 512 93" xmlns="http://www.w3.org/2000/svg"><g fill="#1B6DB2"><path d="M456.11 54.6h47.79c-.15-6.39-2.13-12.06-6.39-17.31 -4.12-5.25-9.93-7.81-17.59-7.81 -7.24 0-12.91 2.55-17.17 7.65 -4.12 5.24-6.39 11.06-6.67 17.44v0Zm-7.52 3.26c0-9.65 2.97-17.73 8.93-24.4 5.95-6.67 13.47-10.07 22.55-10.07 9.64 0 17.16 3.26 22.69 9.92 5.53 6.66 8.36 14.89 8.36 24.96v1.84h-55.03c.28 7.51 2.83 13.61 7.51 18.57 4.68 4.96 10.77 7.51 18.29 7.51 8.79 0 15.88-2.98 21.55-9.08l3.68 4.68c-6.81 7.09-15.46 10.63-25.68 10.63 -9.65 0-17.45-3.27-23.55-9.65 -6.1-6.39-9.37-14.76-9.37-24.97v0Zm-321.81 0c0 4.82 1.41 8.65 4.11 11.62 2.69 2.97 6.24 4.39 10.35 4.39 2.26 0 4.53-.57 6.94-1.71 2.41-1.14 4.25-2.56 5.67-4.26V47.76c-1.42-1.71-3.27-3.13-5.68-4.26 -2.42-1.14-4.69-1.57-6.95-1.57 -4.26 0-7.66 1.41-10.36 4.39 -2.84 2.83-4.12 6.66-4.12 11.48v0ZM391 81.97l4.25-5.25c2.26 2.83 5.24 5.1 8.93 6.94 3.68 1.84 7.8 2.69 12.33 2.69 5.38 0 9.64-1.28 12.76-3.69 3.12-2.56 4.82-5.68 4.82-9.65 0-3.27-1.42-5.82-4.26-7.81 -2.84-1.85-6.25-3.41-10.36-4.26 -3.98-1-8.09-1.99-12.2-3.13 -4.12-1.14-7.52-2.98-10.5-5.68 -2.84-2.7-4.26-6.25-4.26-10.5 0-5.25 2.12-9.51 6.38-13.05 4.25-3.55 9.92-5.25 17.16-5.25 9.92 0 17.72 3.26 23.54 9.64l-3.98 4.96c-4.26-5.82-10.78-8.66-19.58-8.66 -4.97 0-8.94 1.13-11.92 3.4 -2.98 2.26-4.4 5.1-4.4 8.65 0 2.97 1.41 5.38 4.25 7.09 2.83 1.7 6.24 2.97 10.35 3.97 3.97.99 8.08 1.98 12.05 3.12 3.97 1.13 7.51 3.26 10.35 6.09 2.83 2.83 4.25 6.66 4.25 11.34 0 5.67-2.13 10.21-6.39 13.89 -4.26 3.68-10.36 5.38-18.16 5.38 -10.93.14-19.29-3.41-25.53-10.36v0ZM204.35 50.48h27.08c-.29-2.7-1.57-5.11-3.83-7.1 -2.13-2.13-5.39-3.13-9.79-3.13 -4.12 0-7.38.99-9.51 2.97 -2.27 2.12-3.55 4.53-3.98 7.23v0Zm132.46 20.13c0 4.68 1.7 8.65 4.96 11.62 3.26 2.97 7.65 4.53 13.04 4.53 8.65 0 15.31-2.98 19.85-9.08V63.35c-4.54-6.1-11.21-9.08-19.86-9.08 -5.39 0-9.65 1.56-13.05 4.68 -3.27 2.97-4.97 6.94-4.97 11.62v0ZM10.03 33.02c6.8-6.39 15.31-9.65 25.67-9.65 6.52 0 12.05 1.13 16.59 3.54 4.53 2.41 7.94 5.24 10.21 8.65L49.16 48.18c-2.84-4.12-6.95-6.25-12.49-6.25 -4.4 0-8.09 1.41-11.07 4.25 -2.84 2.83-4.4 6.66-4.4 11.62 0 4.96 1.41 8.79 4.39 11.62 2.83 2.83 6.52 4.39 11.06 4.39 5.24 0 9.36-2.13 12.48-6.39l13.61 12.76c-2.27 3.4-5.68 6.24-10.22 8.65 -4.54 2.41-10.07 3.54-16.6 3.54 -10.36 0-18.87-3.27-25.68-9.65C3.29 76.19-.12 67.96-.12 57.75c0-10.22 3.4-18.44 10.06-24.82v0Zm319.39 37.44c0-6.81 2.26-12.2 6.8-16.03 4.53-3.83 9.92-5.82 16.16-5.82 9.21 0 16.73 3.12 22.4 9.36V44.63c0-4.69-1.71-8.37-4.97-11.07 -3.27-2.7-7.52-4.12-12.63-4.12 -8.23 0-15.04 3.26-20.71 9.64l-3.98-4.97c6.8-7.38 15.31-11.07 25.38-11.07 7.09 0 12.9 1.7 17.3 5.38 4.39 3.54 6.66 8.79 6.66 15.88v46.37h-7.1v-7.81c-5.68 6.24-13.2 9.36-22.41 9.5 -6.1 0-11.49-1.99-16.03-5.96 -4.69-3.98-6.95-9.22-6.95-16.03v0ZM191.27 33.3c6.52-6.67 14.89-9.93 24.96-9.93 9.92 0 18.01 3.4 24.25 10.06 6.24 6.66 9.36 15.6 9.36 26.66v4.82h-46.81c.85 3.26 2.55 5.81 5.38 7.8 2.83 1.98 6.52 2.97 11.06 2.97 2.55 0 5.38-.57 8.5-1.57s5.67-2.42 7.51-3.98l9.21 13.75c-3.13 2.83-7.24 4.96-12.2 6.38 -4.97 1.56-10.07 2.26-15.32 2.26 -10.36 0-18.87-3.13-25.68-9.51 -6.81-6.39-10.22-14.76-10.22-25.11 .14-9.93 3.4-18.02 9.92-24.68v0Zm78 40.98c1.98 3.26 4.96 6.09 9.07 8.36 3.97 2.26 8.22 3.4 12.62 3.4 7.23 0 12.76-2.7 16.87-7.95 4.11-5.25 6.09-11.92 6.09-20.14 0-8.23-1.99-15.04-6.1-20.29 -4.12-5.25-9.65-7.95-16.88-7.95 -4.4 0-8.51 1.13-12.63 3.54 -4.12 2.41-7.1 5.24-9.08 8.5v32.47 0ZM113.4 32.72c5.38-6.25 12.33-9.37 20.84-9.37 7.94 0 14.46 3.12 19.43 9.5V-.06h20.84v90.77h-20.85v-7.66c-5.39 6.09-11.92 9.21-19.44 9.36 -8.37 0-15.32-3.13-20.85-9.22 -2.84-3.27-4.97-7.1-6.39-11.63l14.04-14.05v-1.14l-13.48-13.62c1.41-3.83 3.26-7.24 5.81-10.07v0Zm148.91 58V-.06h7.09v35.74c5.81-8.23 13.47-12.2 22.83-12.34 8.79 0 15.88 3.12 21.27 9.5 5.38 6.38 8.08 14.75 8.08 25.1 0 10.35-2.7 18.72-8.09 25.1 -5.39 6.24-12.49 9.36-21.28 9.36 -4.69 0-9.08-1.14-13.05-3.41 -3.98-2.27-7.24-5.25-9.79-8.8v10.49h-7.1v0Z"/><path d="M82.26 80.13l-5.82 6.09 -28.09-28.65v-1.14l28.22-28.8 5.81 6.09 6.24-6.1 28.36 28.79v1.13L88.61 86.18l-6.39-6.1v0Zm.42-36.6L69.06 57l13.75 13.33 13.04-13.34 -13.2-13.48v0Z"/></g></svg>