<svg viewBox="0 0 256 245" xmlns="http://www.w3.org/2000/svg"><path fill="#F07" d="M128.28-.001C57.58-.001-.01 56.969-.01 126.479v.56l21.66 12.53h.57c13.68-9.12 30.21-12.54 46.75-9.69 11.4 2.27 22.23 7.4 30.78 15.38l3.99 3.41 2.28-4.56c2.28-4.56 4.56-8.55 6.84-12.54 1.14-1.71 2.28-2.85 3.42-4.56l2.28-2.85 -2.86-2.28c-11.98-9.69-26.23-16.53-41.63-19.38 -14.83-2.85-29.65-2.28-43.34 2.27 10.26-45.02 50.17-76.92 97.49-76.92 26.79 0 51.88 10.25 70.69 29.05 13.68 13.1 22.8 29.62 26.79 47.85 -8.56-2.85-17.68-3.99-26.8-3.99h-1.72c-3.43 0-6.85.56-10.84.56h-.58c-1.15 0-2.86.56-4 .56 -2.29.56-4 .56-6.28 1.13l-1.72.56c-1.72.56-3.43 1.13-5.14 1.7h-.58c-4 1.13-7.42 2.84-11.41 4.55v0c-1.72.56-3.43 1.7-5.14 2.84h-.58c-8.56 5.12-16.54 11.39-22.81 19.37l-.58 1.13c-1.72 2.27-2.86 3.98-4 5.12 -1.15 1.13-1.72 2.84-2.86 4.55l-.58 1.13c-1.15 1.7-1.72 3.41-2.29 4.55v.56c-1.72 3.41-3.43 7.4-4.57 11.39v.56c-2.86 9.11-4.57 18.8-4.57 29.05v1.13c0 1.13 0 2.84 0 3.98 0 .56 0 1.13 0 1.7 0 .56 0 1.7 0 2.27v.56 1.13c0 1.13.57 2.84.57 3.98 2.85 13.67 9.12 26.77 18.81 38.74l.57.56 .57-.57c3.99-4.56 13.11-18.81 14.25-27.35v0 0c-4.57-8.55-6.85-18.24-6.85-27.35 0-31.91 25.08-58.69 57.58-60.4h2.28c13.11-.57 26.22 3.41 37.06 10.82h.57l21.66-12.54v0 -.57c0-33.62-13.12-65.53-37.64-89.46C194.13 12.76 162.2-.35 127.99-.35"/></svg>