<svg viewBox="0 0 512 58" xmlns="http://www.w3.org/2000/svg"><g transform="translate(125.849 10.7563)"><g fill="#0B2734"><path d="M20 .96c5.48 0 9.57 1.72 13.23 5.05 .53.43.53 1.07.1 1.5l-4.31 4.41c-.44.43-.97.43-1.4 0 -2.05-1.83-4.74-2.8-7.43-2.8 -6.24 0-10.76 5.16-10.76 11.29 0 6.13 4.62 11.07 10.75 11.07 2.58 0 5.37-.97 7.31-2.59 .43-.33 1.07-.33 1.39.1l4.3 4.51c.43.43.32 1.07-.11 1.5 -3.77 3.65-8.39 5.27-13.34 5.27 -10.98 0-19.8-8.72-19.8-19.69C-.07 9.6 8.96.89 19.93.89v0Z"/><path d="M56.57.96c10.97 0 19.68 8.82 19.68 19.79 0 10.97-8.72 19.68-19.69 19.68 -10.98 0-19.69-8.72-19.69-19.69 0-10.98 8.82-19.8 19.68-19.8v0Zm0 30.76c6.02 0 10.97-4.95 10.97-10.87 0-6.03-4.95-10.98-10.98-10.98s-10.87 4.94-10.87 10.97c0 5.91 4.94 10.86 10.86 10.86v0Z"/><path d="M82.93 2.58c0-.54.43-1.08.96-1.08h13.33c10.54 0 19.25 8.6 19.25 19.14 0 10.64-8.61 19.25-19.26 19.25H83.87c-.54 0-.97-.54-.97-1.08V2.56v0ZM96.8 31.83c6.23 0 10.64-4.85 10.64-11.08 0-6.24-4.52-11.08-10.65-11.08h-5.28v22.15h5.27v0Z"/><path d="M123.26 2.58c0-.54.43-1.08 1.07-1.08h22.69c.64 0 1.07.53 1.07 1.07v6.02c0 .53-.44 1.07-1.08 1.07h-15.17v6.77h12.47c.53 0 1.07.53 1.07 1.07v6.02c0 .64-.54 1.07-1.08 1.07h-12.48v7.42h15.16c.64 0 1.07.53 1.07 1.07v6.02c0 .53-.44 1.07-1.08 1.07h-22.7c-.65 0-1.08-.54-1.08-1.08V2.51v0Z"/><path d="M184.47.96c5.48 0 9.57 1.72 13.23 5.05 .53.43.53 1.07.1 1.5l-4.31 4.41c-.44.43-.97.43-1.4 0 -2.05-1.83-4.74-2.8-7.43-2.8 -6.24 0-10.76 5.16-10.76 11.29 0 6.13 4.62 11.07 10.75 11.07 2.58 0 5.37-.97 7.31-2.59 .43-.33 1.07-.33 1.39.1l4.3 4.51c.43.43.32 1.07-.11 1.5 -3.77 3.65-8.39 5.27-13.34 5.27 -10.98 0-19.8-8.72-19.8-19.69 0-10.98 9.03-19.69 20-19.69v0Z"/><path d="M204.26 2.58c0-.54.43-1.08 1.07-1.08h6.56c.53 0 1.07.53 1.07 1.07v29.25h13.01c.64 0 1.07.53 1.07 1.07v6.02c0 .53-.44 1.07-1.08 1.07h-20.55c-.65 0-1.08-.54-1.08-1.08V2.54h-.11Z"/><path d="M232.33 2.58c0-.54.53-1.08 1.07-1.08h6.56c.53 0 1.07.53 1.07 1.07v36.24c0 .53-.54 1.07-1.08 1.07h-6.57c-.54 0-1.08-.54-1.08-1.08V2.55v0Z"/><path d="M254.17 1.93c.1-.54.53-.87.96-.87h.86c.32 0 .75.21.96.53l12.69 23.66h.1l12.69-23.67c.21-.33.64-.54.96-.54h.86c.43 0 .96.43.96.86l6.23 36.78c.1.75-.44 1.18-1.08 1.18h-6.46c-.54 0-.97-.44-1.08-.87l-2.48-16.89h-.11l-9.15 17.64c-.22.32-.65.64-.97.64h-.97c-.33 0-.76-.33-.97-.65l-9.26-17.75h-.11l-2.37 16.88c-.11.43-.54.86-1.08.86h-6.46c-.65 0-1.19-.54-1.08-1.19l6.23-36.68v0Z"/><path d="M293.53 38.5l17.1-36.9c.21-.33.53-.65.96-.65h.53c.43 0 .75.32.96.64l17.1 36.89c.32.75-.11 1.39-.97 1.39h-6.14c-.97 0-1.4-.33-1.94-1.4l-1.94-4.31h-14.85l-1.94 4.41c-.33.64-.87 1.29-1.94 1.29h-6.03c-.87 0-1.3-.76-.97-1.4v0Zm22.48-11.73l-4.2-9.04h-.11l-4.09 9.03h8.38v0Z"/><path d="M337.74 9.57h-7.86c-.65 0-1.08-.54-1.08-1.08V2.46c0-.54.43-1.08 1.07-1.08h24.3c.64 0 1.07.53 1.07 1.07v6.13c0 .53-.44 1.07-1.08 1.07h-7.86V38.9c0 .53-.54 1.07-1.08 1.07h-6.57c-.54 0-1.08-.54-1.08-1.08V9.52h.1Z"/><path d="M360.65 2.58c0-.54.43-1.08 1.07-1.08h22.69c.64 0 1.07.53 1.07 1.07v6.02c0 .53-.44 1.07-1.08 1.07h-15.17v6.77h12.47c.53 0 1.07.53 1.07 1.07v6.02c0 .64-.54 1.07-1.08 1.07h-12.48v7.42h15.16c.64 0 1.07.53 1.07 1.07v6.02c0 .53-.44 1.07-1.08 1.07h-22.7c-.65 0-1.08-.54-1.08-1.08V2.51v0Z"/></g></g><g fill="#0B2734"><path d="M68.62 0L49.04 19.46l11.61 11.61 7.95-7.96 22.37 22.48 11.5-11.62L68.58-.02Z"/><path d="M45.49 23.01L33.98 11.5 4.5 40.97l-4.52 4.51 11.61 11.61 4.51-4.63 14.95-14.85 2.9-2.91 11.5 11.5 10.86 10.86 11.61-11.62 -10.87-10.87 -11.62-11.62Z"/></g></svg>