<svg viewBox="0 0 512 95" xmlns="http://www.w3.org/2000/svg"><path d="M9.16 24.81c12.22-12.31 32.09-12.45 44.48-.31 1.75 1.72 1.78 4.54.06 6.29 -1.73 1.75-4.55 1.78-6.3.06 -8.9-8.72-23.16-8.62-31.94.21 -8.78 8.83-8.78 23.09 0 31.93 8.77 8.83 23.03 8.93 31.93.21 1.75-1.73 4.57-1.7 6.29.06 1.72 1.75 1.69 4.57-.07 6.29 -12.4 12.14-32.27 12-44.49-.31 -12.23-12.31-12.23-32.18 0-44.49ZM119.95 0l.13-.01v0h.28v0l.25.01v0l.28.03v0l.12.02v0l.21.04v0l.22.05v0c.21.06.43.13.63.23l.21.1v0l.2.11 .17.11 42.58 28.25c.25.16.49.36.71.58l.11.12v0l.08.09v0l.12.15v0l.18.25v0l.1.15v0l.12.2v0l.09.18v0l.09.19v0c.14.33.24.68.3 1.03l0 .04c.03.2.05.41.05.62v28.75 0c-.01.52-.1 1.04-.29 1.55l-.02.04c-.05.12-.11.24-.17.36l-.12.22v0l-.18.27v0l-.09.12v0l-.16.2v0l-.15.16v0l-.15.15v0c-.23.23-.49.43-.75.61l-42.54 28.22c-.44.29-.92.51-1.45.63l-.28.05v0l-.26.03v0l-.34.02v0l-.18 0c-.09 0-.18-.01-.27-.01l-.33-.04v0l-.21-.04v0c-.45-.08-.88-.23-1.27-.44l-.03-.02c-.16-.09-.31-.18-.45-.27L74.92 64.85v0c-.12-.08-.24-.17-.35-.26l-.19-.16v0l-.18-.18v0l-.24-.26 -.14-.17v0l-.15-.2c-.06-.08-.11-.16-.16-.25l-.14-.25v0l-.11-.23v0c-.25-.57-.38-1.18-.38-1.77V32.43v0c0-.52.09-1.03.27-1.52l.11-.29v0l.03-.08v0l.1-.22v0l.1-.19v0l.12-.19v0l.08-.13v0l.14-.19v0l.14-.18v0l.15-.17v0l.15-.16v0c.18-.18.38-.33.59-.46L117.37.43l.2-.14v0l.23-.14v0l.21-.11v0l.2-.09v0c.31-.13.65-.22.99-.27l.34-.04v0ZM98.93 52.41l-13.29 8.93 30.13 19.994V63.737L98.92 52.39Zm42.6-.01l-16.85 11.33v17.597l30.13-20 -13.29-8.94Zm-21.31-14.33l-13.33 8.96 13.32 8.95 13.31-8.97 -13.32-8.96Zm-38.16 2.99v11.93l8.872-5.97 -8.872-5.97Zm76.29 0l-8.87 5.96 8.86 5.96V41.05Zm-42.6-28.34L85.61 32.71l13.28 8.93 16.84-11.34V12.69Zm8.9 0v17.59l16.84 11.33 13.28-8.94L124.63 12.7Zm88.49 2.73h-19.37c-2.46 0-4.46 1.99-4.46 4.45v54.22c0 2.45 1.99 4.45 4.45 4.45h19.36c17.43 0 31.56-14.14 31.56-31.57 0-17.44-14.14-31.57-31.57-31.57Zm-14.92 54.22V24.35h14.91c12.51 0 22.65 10.14 22.65 22.65 0 12.51-10.15 22.65-22.66 22.65H198.2Zm103.99-54.23c2.45 0 4.45 1.99 4.45 4.45 0 2.29-1.74 4.18-3.97 4.42l-.49.02h-30.41l-.01 18.2 18.78 0c2.45 0 4.45 1.99 4.45 4.45 0 2.29-1.74 4.18-3.97 4.42l-.49.02 -18.79-.01 0 18.2h30.4c2.29 0 4.18 1.73 4.42 3.96l.02.48c0 2.29-1.74 4.18-3.97 4.42l-.49.02h-34.86c-2.3 0-4.19-1.74-4.43-3.97l-.03-.49V19.8c0-2.3 1.73-4.19 3.96-4.43l.48-.03h34.85Zm54.22 0c11.01 0 19.94 8.92 19.94 19.94 0 10.73-8.48 19.48-19.11 19.92l-.85.01h-18.79l0 18.78c0 2.29-1.74 4.18-3.97 4.42l-.49.02c-2.3 0-4.19-1.74-4.43-3.97l-.03-.49V19.84c0-2.3 1.73-4.19 3.96-4.43l.48-.03h23.23Zm-18.79 30.98h18.78c6.09 0 11.03-4.95 11.03-11.04 0-5.88-4.6-10.69-10.39-11.02l-.65-.02h-18.79v22.07Zm96.24-30.99c2.45 0 4.45 1.99 4.45 4.45 0 2.29-1.74 4.18-3.97 4.42l-.49.02h-30.41l-.01 18.2 18.78 0c2.45 0 4.45 1.99 4.45 4.45 0 2.29-1.74 4.18-3.97 4.42l-.49.02 -18.79-.01 0 18.2h30.4c2.29 0 4.18 1.73 4.42 3.96l.02.48c0 2.29-1.74 4.18-3.97 4.42l-.49.02h-34.86c-2.3 0-4.19-1.74-4.43-3.97l-.03-.49V19.79c0-2.3 1.73-4.19 3.96-4.43l.48-.03h34.85Zm26.52 4.45c0-4.08 4.95-5.94 7.65-3.11l.3.34 34.64 44.09 0-41.34c0-2.3 1.73-4.19 3.96-4.43l.48-.03c2.29 0 4.18 1.73 4.42 3.96l.02.48v54.22c0 4.07-4.96 5.93-7.66 3.1l-.31-.35 -34.66-44.1 0 41.34c0 2.29-1.74 4.18-3.97 4.42l-.49.02c-2.3 0-4.19-1.74-4.43-3.97l-.03-.49V19.8Z"/></svg>