<svg viewBox="0 0 256 286" xmlns="http://www.w3.org/2000/svg"><path fill="#4285F4" d="M126.93 0c5.31.08 10.52 1.5 15.16 4.12l96.62 54.57c3.89 2.2 7.36 5.13 10.15 8.58l.09-.06 1.43 2.11 .16.24 1.79 2.65 -.13.07c2.38 4.34 3.69 9.09 3.74 13.91v110.94c.05 5.6-1.38 11.12-4.13 16 -2.76 4.87-6.75 8.94-11.58 11.79l-95.58 56.39c-3.99 2.35-8.41 3.79-12.97 4.25l-.01.14 -6.12.04 0-.16c-4.51-.41-8.89-1.77-12.85-4L11.17 224.23c-6.9-3.89-11.2-11.17-11.27-19.12V87.62c.05-4.15.77-8.15 2.14-11.83l-.12-.07 2.61-5.47 .14.08c2.43-3.95 5.73-7.22 9.79-9.63l95.58-56.39c4.82-2.86 10.31-4.38 15.92-4.44h.83ZM7.49 78.88l-.22.67c-.86 2.81-1.28 5.85-1.24 9.02l-.01 116.57c.05 5.76 3.17 11.05 8.19 13.87l101.52 57.34c3.01 1.7 6.33 2.77 9.75 3.17l.21.02 .02-4.94 .02-20.69 -.04-23.49 -.14-.02c-2.1-.28-4.15-.88-6.07-1.79l-.72-.36 -.64-.35 -61.51-34.75c-2.24-1.27-4.1-3.09-5.41-5.3 -1.31-2.21-2.01-4.73-2.03-7.32l0-70.62c-.03-2.25.26-4.44.84-6.51l.19-.67L7.39 78.75Zm239.55-3.48l-42.2 25.2 .09.19c1.04 2.24 1.65 4.64 1.76 7.08l.01.66 -.01 67.2c.03 3.6-.89 7.15-2.66 10.29 -1.78 3.13-4.34 5.75-7.45 7.58l-57.91 34.16c-2.01 1.18-4.19 2-6.45 2.45l-.5.08 0 4.77 .02 27.67 -.05 16.25 -.01.47 .9-.13c2.88-.48 5.68-1.43 8.26-2.85l.69-.4 95.58-56.4c3.91-2.31 7.14-5.61 9.38-9.57 2.23-3.96 3.38-8.44 3.34-13.01l0-110.95c-.04-3.43-.9-6.86-2.5-10.08l-.41-.78ZM123.98 86.57c-.92.27-1.8.65-2.62 1.13l-38.82 22.89c-1.13.66-2.13 1.53-2.93 2.57 -.32.4-.6.83-.85 1.27 -.13.22-.25.44-.36.68l-.21.51c-.49 1.14-.81 2.38-.94 3.67 -.05.49-.07.99-.07 1.5v47.35c.01 1.36.38 2.69 1.07 3.87 .69 1.17 1.68 2.14 2.87 2.81l41.22 23.28c1.78 1.01 3.81 1.53 5.86 1.51l.43-.02 0 12.75 .02 12.16 -.03-24.92c1.91-.09 3.77-.64 5.43-1.61l38.81-22.9c1.77-1.05 3.24-2.55 4.25-4.34 .16-.29.3-.59.44-.89 .71-1.57 1.08-3.28 1.07-5l0-45.07c-.01-.83-.12-1.63-.32-2.41 -.14-.53-.31-1.04-.52-1.54 -.11-.25-.22-.5-.34-.74 -.15-.29-.31-.57-.47-.84l-.18-.29 -.19-.29c-.29-.42-.59-.82-.92-1.19 -1-1.15-2.18-2.11-3.49-2.86l-39.24-22.16c-1.58-.89-3.33-1.41-5.13-1.51 -1.35-.08-2.71.08-4 .47Zm2.15-80.54c-4.55.04-9 1.28-12.91 3.59L17.63 66c-2.91 1.71-5.32 3.99-7.18 6.73l-.42.63 42.89 24.01 .44-.61c1.29-1.7 2.87-3.15 4.7-4.33l.56-.35 57.9-34.16c3.1-1.84 6.63-2.82 10.24-2.86 3.6-.04 7.15.88 10.29 2.65l58.53 33.06c2.01 1.13 3.85 2.58 5.44 4.28l.39.43 42.11-25.16 -.47-.53c-1.94-2.15-4.22-4.03-6.72-5.53l-.69-.41 -96.63-54.58c-3.96-2.24-8.44-3.4-12.98-3.35Z"/></svg>