<svg viewBox="0 0 256 254" xmlns="http://www.w3.org/2000/svg"><path fill="#4DA9E1" d="M145.95 150.37c9.79-.82 17.06-9.42 16.25-19.21 -.82-9.8-9.42-17.07-19.21-16.26 -9.8.81-17.07 9.41-16.26 19.2 .81 9.79 9.41 17.06 19.2 16.25Zm20.72-.25c-3.84 4.23-8.59 7.55-13.9 9.68l-.05.11c4.02 15.46 10.31 30.24 18.68 43.85 -7.32 3.88-15.28 6.4-23.5 7.43l-1.17.15 -1.39.1 -2.77.21c-1.7 0-3.37.15-5.15.05 -7-.15-13.94-1.34-20.59-3.52 -3.11-1-6.15-2.21-9.08-3.64 -2.66-1.28-5.24-2.72-7.73-4.3 -2.12-1.35-4.17-2.82-6.12-4.39 -1.81-1.36-3.22-2.73-4.44-3.81 -2.35-2.25-3.64-3.61-3.64-3.61s1.08 1.5 3.12 4.07c1.07 1.23 2.31 2.81 3.93 4.42 1.77 1.87 3.65 3.64 5.62 5.3 2.34 1.99 4.8 3.83 7.37 5.52 2.88 1.91 5.89 3.62 9.01 5.12 3.36 1.62 6.83 3.01 10.39 4.14 3.71 1.16 7.5 2.06 11.34 2.67 1.91.37 3.98.49 5.98.74l2.77.16 1.38.08 1.58.02c3.84.03 7.68-.2 11.49-.72 6.53-.9 12.93-2.6 19.05-5.05 2.33 3.17 4.77 6.25 7.34 9.25l-.36.21 -3.06 1.89 -.43.26 -.11.06 -.03.01c-.52.25.67-.34.53-.27l-.06.02 -.23.11 -.93.47 -1.96.99 -1.03.52 -.53.26 -.27.13 -.07.03 -.04.01c-.1.03.68-.29.34-.14l-.14.06 -2.28.99 -2.39 1.04 -.31.13 -.04.01c.52-.19.12-.05.23-.09l-.08.03 -.16.06 -.64.24 -1.29.5c-11.69 4.49-24.15 6.59-36.67 6.18l-1.63-.06 -1.84-.15 -3.69-.3c-2.29-.37-4.58-.52-6.92-1.04 -9.28-1.68-18.25-4.72-26.63-9.02 -2.04-1.02-4-2.09-5.86-3.25 -1.92-1.08-3.68-2.31-5.41-3.48 -3.25-2.25-6.36-4.68-9.31-7.3 -2.52-2.23-4.91-4.58-7.17-7.06 -2.1-2.17-3.67-4.27-5.06-5.93 -1.36-1.7-2.29-3.12-2.99-4.05l-1.05-1.45 .89 1.54c.6.99 1.39 2.51 2.57 4.35 1.21 1.8 2.59 4.08 4.47 6.48 2.03 2.75 4.21 5.39 6.53 7.9 2.75 2.99 5.69 5.82 8.79 8.46 1.66 1.39 3.36 2.85 5.23 4.17 1.81 1.4 3.74 2.72 5.76 4 4.13 2.67 8.45 5.05 12.92 7.11 4.65 2.12 9.46 3.91 14.38 5.34 2.44.79 5.08 1.28 7.63 1.93l3.64.66 1.81.33 2.02.28c4.98.67 10.02.98 15.05.93 9.03-.11 18.02-1.36 26.74-3.74l1.33-.37 .65-.19 .91-.3 2.48-.81 2.35-.77 2.56-.99 2.04-.8 .97-.38 .23-.1 .05-.03 .62-.31 .11-.06 .44-.22 3.23-1.58 4.04-1.97c2.74 2.63 5.58 5.18 8.51 7.62 0 0 13.99 14.41 21.71 8.48 7.24-5.58-1.11-23.05-1.11-23.05 -11.22-31.98-32.19-59.63-59.95-79.05Zm-48.84-23.7l-.09-.1c-15.2-4.48-30.96-6.7-46.8-6.59 .47-8.62 2.57-17.07 6.2-24.89l.48-1.07 .64-1.23 1.28-2.46c.89-1.45 1.64-2.94 2.67-4.4 3.83-5.86 8.51-11.12 13.88-15.6 2.48-2.11 5.12-4.04 7.89-5.78 2.49-1.58 5.07-3.01 7.73-4.27 2.26-1.09 4.58-2.04 6.95-2.87 2.1-.81 4.01-1.29 5.57-1.76 3.14-.81 4.98-1.18 4.98-1.18s-1.86.12-5.12.48c-1.62.25-3.61.47-5.85.99 -2.53.51-5.03 1.17-7.49 1.95 -2.93.93-5.8 2.04-8.6 3.32 -3.16 1.42-6.2 3.07-9.12 4.93 -3.17 1.98-6.18 4.19-9.02 6.61 -2.96 2.52-5.73 5.27-8.29 8.2 -1.34 1.42-2.53 3.11-3.8 4.68l-1.62 2.27 -.81 1.12 -.87 1.33c-2.07 3.23-3.91 6.62-5.49 10.12 -2.84 6.31-4.86 12.96-6.01 19.79l-.05.27c-3.87.35-7.71.84-11.54 1.48l0-2.02 .01-3.6v-.5 -.16c.05-.58-.08.74-.07.59l0-.07 .02-.26 .09-1.04 .19-2.19 .1-1.15 .05-.59 .02-.3 0-.08 0-.04c.01-.1-.13.73-.07.36l.02-.16 .35-2.46 .37-2.59 .04-.34 0-.05c-.13.54-.03.12-.06.24l.01-.09 .03-.17 .12-.67 .25-1.36c2.37-12.3 7.19-23.98 14.17-34.37l.91-1.35 1.09-1.49 2.2-2.97c1.51-1.75 2.86-3.61 4.54-5.32 6.33-6.98 13.66-12.98 21.75-17.81 1.93-1.19 3.88-2.29 5.85-3.25 1.92-1.06 3.9-1.9 5.81-2.75 3.62-1.57 7.33-2.92 11.12-4.03 3.21-.96 6.47-1.74 9.77-2.34 2.94-.63 5.55-.86 7.7-1.15 2.15-.26 3.85-.3 5.01-.4l1.78-.12 -1.79-.07c-1.17-.02-2.88-.16-5.06-.13 -2.18.07-4.84.03-7.87.36 -3.42.26-6.81.72-10.18 1.35 -4.01.75-7.96 1.74-11.84 2.97 -2.07.67-4.21 1.34-6.32 2.22 -2.16.79-4.3 1.73-6.45 2.76 -4.46 2.08-8.77 4.49-12.89 7.19 -4.28 2.82-8.34 5.95-12.16 9.36 -1.97 1.64-3.79 3.63-5.69 5.45l-2.5 2.73 -1.25 1.36 -1.32 1.56c-3.22 3.87-6.15 7.97-8.78 12.27 -4.71 7.71-8.4 16-11 24.65l-.4 1.32 -.2.65 -.24.93 -.64 2.53 -.61 2.4c-.18.92-.36 1.82-.52 2.69l-.42 2.15 -.2 1.02 -.05.24 -.02.06 -.07.69 -.02.12 -.06.49 -.39 3.57c-.36 3.28-.59 5.48-.68 6.36 -3.73 1.01-7.43 2.14-11.08 3.42 0 0-19.57 4.57-18.46 14.23 1.04 9.08 20.32 10.92 20.32 10.92 33.18 6.85 67.68 3.12 98.63-10.66 -1.66-5.48-2.06-11.26-1.16-16.91v0Zm137.79-10.5c-.44-5.11-1.25-10.17-2.42-15.16 -.51-2.52-1.39-5.07-2.07-7.61l-1.21-3.51 -.61-1.75 -.75-1.91c-1.87-4.68-4.07-9.22-6.59-13.58 -4.54-7.82-10.04-15.03-16.4-21.46l-.98-.98 -.49-.49 -.71-.65 -1.92-1.77 -1.83-1.69 -2.13-1.75 -1.7-1.4 -.81-.67 -.2-.17 -.05-.04 -.58-.4 -.11-.08 -.41-.29 -2.97-2.05 -3.97-2.75c1.02-4.08 1.89-8.21 2.59-12.37 .7-4.17 5.46-19.34-3.54-23.05 -8.46-3.49-19.4 12.49-19.4 12.49 -22.06 25.72-35.48 57.72-38.39 91.48 5.59 1.19 10.83 3.64 15.34 7.16l.12-.03c10.98-10.85 20.35-23.22 27.82-36.73 7.16 4.49 13.43 10.29 18.47 17.09l.69.93 .77 1.14 1.54 2.3c.83 1.47 1.78 2.85 2.57 4.45 3.31 6.16 5.68 12.78 7.05 19.65 .66 3.19 1.09 6.43 1.29 9.69 .19 2.94.21 5.89.05 8.83 -.14 2.5-.41 5-.81 7.48 -.31 2.23-.8 4.14-1.13 5.73 -.81 3.14-1.36 4.93-1.36 4.93s.78-1.69 2.01-4.73c.54-1.55 1.31-3.4 1.92-5.61 .75-2.47 1.37-4.98 1.86-7.51 .58-3.02.98-6.07 1.19-9.14 .25-3.46.26-6.92.02-10.37 -.24-3.73-.74-7.44-1.5-11.09 -.81-3.81-1.9-7.56-3.25-11.2 -.62-1.85-1.53-3.72-2.3-5.58l-1.23-2.51 -.61-1.25 -.76-1.4c-1.86-3.37-3.96-6.6-6.28-9.66 -4.11-5.41-8.88-10.27-14.2-14.49 1.64-3.68 3.15-7.42 4.52-11.21l.62.33 3.15 1.73 .43.23 .11.06 .02.01c.47.32-.62-.43-.5-.34l.05.03 .21.14 .86.57 1.82 1.21 .96.63 .49.32 .24.16 .06.04 .03.02c.07.06-.59-.47-.29-.23l.12.09 1.98 1.48 2.08 1.56 .26.2 .03.02c-.43-.37-.1-.09-.19-.17l.06.05 .13.1 .52.42 1.07.87c9.65 7.96 17.61 17.78 23.4 28.88l.74 1.44 .77 1.67 1.55 3.35c.8 2.16 1.79 4.23 2.49 6.53 3.09 8.89 4.85 18.2 5.23 27.62 .11 2.26.15 4.5.05 6.69 0 2.19-.21 4.33-.38 6.41 -.36 3.93-.96 7.83-1.78 11.69 -.7 3.28-1.58 6.51-2.63 9.7 -.86 2.88-1.92 5.28-2.68 7.31 -.81 2-1.6 3.52-2.06 4.59l-.75 1.62 .9-1.54c.57-1.02 1.5-2.46 2.52-4.38 .97-1.95 2.28-4.27 3.44-7.09 1.39-3.13 2.62-6.33 3.67-9.59 1.25-3.88 2.27-7.82 3.05-11.82 .39-2.14.82-4.34 1.06-6.62 .33-2.27.53-4.61.65-6.99 .29-4.92.24-9.85-.17-14.76v0Z"/></svg>