<svg viewBox="0 0 256 246" xmlns="http://www.w3.org/2000/svg" xmlns:xlink="http://www.w3.org/1999/xlink"><defs><linearGradient id="a" x1="99.14%" x2="33.858%" y1="112.708%" y2="37.754%"><stop offset="18%" stop-color="#0052CC"/><stop offset="100%" stop-color="#2684FF"/></linearGradient><linearGradient id="b" x1=".925%" x2="66.18%" y1="-12.583%" y2="62.305%" xlink:href="#a"/></defs><path fill="url(#a)" d="M9.26 187.32c-2.65 4.3-5.61 9.3-8.13 13.28 -2.26 3.81-1.05 8.72 2.72 11.05l52.82 32.5c1.85 1.14 4.09 1.49 6.2.97 2.11-.52 3.93-1.87 5.04-3.75 2.11-3.54 4.83-8.13 7.8-13.05 20.92-34.54 41.97-30.32 79.92-12.19l52.37 24.9c1.98.94 4.26 1.04 6.32.27 2.05-.77 3.72-2.34 4.6-4.35l25.15-56.89c1.77-4.07-.04-8.81-4.07-10.65 -11.06-5.21-33.04-15.57-52.83-25.12 -71.19-34.58-131.7-32.35-177.98 42.94Z"/><path fill="url(#b)" d="M246.11 58.23c2.64-4.31 5.6-9.31 8.12-13.29 2.25-3.82 1.04-8.73-2.73-11.06L198.67 1.37C196.8.11 194.49-.32 192.29.19c-2.2.5-4.09 1.9-5.21 3.85 -2.12 3.53-4.84 8.12-7.81 13.04 -20.93 34.53-41.98 30.31-79.93 12.18L47.12 4.47c-1.99-.95-4.27-1.05-6.33-.28 -2.06.76-3.73 2.33-4.61 4.34L11.02 65.41c-1.78 4.06.03 8.8 4.06 10.64 11.05 5.2 33.03 15.56 52.82 25.11 71.35 34.53 131.85 32.22 178.13-42.99Z"/></svg>