<svg viewBox="0 0 256 289" xmlns="http://www.w3.org/2000/svg"><path fill="#FAE501" d="M87.33 200.77c-15.31-14.41-24.31-34.22-24.31-56.73 0-22.51 9-42.32 23.4-56.73 12.6-12.61 12.6-32.42 0-45.02 -12.61-12.61-32.42-12.61-45.02 0C16.19 68.39-.02 104.41-.02 144.02c0 39.61 16.2 75.62 42.31 101.73 12.6 12.6 32.41 12.6 45.01 0 11.7-12.61 11.7-32.42 0-45.02Z"/><path fill="#4FB5E1" d="M87.33 87.33c14.4-15.31 34.21-24.31 56.72-24.31 22.5 0 42.31 9 56.72 23.4 12.6 12.6 32.41 12.6 45.01 0 12.6-12.61 12.6-32.42 0-45.02C219.67 16.19 183.65-.02 144.04-.02c-39.62 0-75.63 16.2-101.74 42.31 -12.61 12.6-12.61 32.41 0 45.01C54.9 99 74.71 99 87.31 87.3Z"/><path fill="#F05751" d="M200.77 200.77c-14.41 15.3-34.22 24.3-56.73 24.3 -22.51 0-42.32-9.01-56.73-23.41 -12.61-12.61-32.42-12.61-45.02 0 -12.61 12.6-12.61 32.41 0 45.01 26.1 25.2 62.12 41.41 101.73 41.41 39.61 0 75.62-16.21 101.73-42.32 12.6-12.61 12.6-32.42 0-45.02 -12.61-11.71-32.42-11.71-45.02 0Z"/><path fill="#0681B6" d="M64.82 33.31a31.51 31.51 0 1 0 0 63.02 31.51 31.51 0 1 0 0-63.03Z"/><path fill="#CD4739" d="M64.82 191.77a31.51 31.51 0 1 0 0 63.02 31.51 31.51 0 1 0 0-63.03Z"/></svg>