<svg viewBox="0 0 256 256" xmlns="http://www.w3.org/2000/svg"><path d="M128 256c70.69 0 128-57.31 128-128C256 57.3 198.69 0 128 0 57.3 0 0 57.3 0 128c0 70.69 57.3 128 128 128v0Zm0-26.13c-56.27 0-101.88-45.62-101.88-101.88 0-56.27 45.61-101.88 101.87-101.88 56.26 0 101.87 45.61 101.87 101.87 0 56.26-45.62 101.87-101.88 101.87v0Zm-1.05-173.72c-33.96 0-62.44 23.77-69.75 55.64h34.22c6.26-13.59 19.85-22.99 35.52-22.99 21.68 0 39.18 17.5 39.18 39.18s-17.51 39.18-39.19 39.18c-15.68 0-29.26-9.41-35.53-22.73H57.17c7.31 31.6 35.78 55.37 69.74 55.37 39.7 0 71.83-32.14 71.83-71.84 0-39.71-32.14-71.84-71.84-71.84v0Z"/></svg>