<svg viewBox="0 0 256 256" xmlns="http://www.w3.org/2000/svg"><path fill="#ED2226" d="M128 0C57.42 0 0 57.23 0 128c0 70.57 57.23 128 128 128 70.57 0 128-57.24 128-128C256 57.23 198.57 0 128 0v0Zm86.42 150.42c0 7.73-4.45 14.5-13.15 16.04 -15.09 2.7-46.8 4.25-73.29 4.25 -26.49 0-58.2-1.55-73.29-4.26 -8.71-1.55-13.15-8.32-13.15-16.05v-49.89c0-7.74 5.99-14.89 13.14-16.05 4.44-.78 14.88-1.55 23-1.55 3.09 0 5.6 2.32 5.6 5.99v34.99l44.85-.97 44.85.96v-35c0-3.68 2.51-6 5.6-6 8.12 0 18.56.77 23 1.54 7.34 1.16 13.14 8.31 13.14 16.04 -.39 16.43-.39 33.25-.39 49.88v0Z"/></svg>