<svg viewBox="0 0 512 114" xmlns="http://www.w3.org/2000/svg"><path fill="#FF6C2C" d="M42.32 27.89h31.99l-4.96 18.97c-.76 2.64-2.18 4.76-4.25 6.37 -2.08 1.6-4.49 2.4-7.22 2.4H43.01c-3.4 0-6.4.99-9 2.97 -2.6 1.98-4.42 4.67-5.46 8.06 -.67 2.54-.74 4.95-.22 7.22 .51 2.26 1.43 4.27 2.76 6.01 1.32 1.74 3.01 3.13 5.09 4.17 2.07 1.03 4.34 1.55 6.79 1.55h9.06c1.69 0 3.09.68 4.17 2.05 1.08 1.36 1.39 2.9.92 4.6l-5.67 20.95h-9.92c-6.8 0-13.05-1.49-18.76-4.46 -5.72-2.98-10.46-6.92-14.23-11.83 -3.78-4.91-6.35-10.5-7.72-16.78 -1.37-6.28-1.21-12.72.49-19.33l.56-2.13C3.09 54.15 5 49.97 7.6 46.15c2.59-3.83 5.66-7.08 9.2-9.77 3.53-2.69 7.47-4.79 11.82-6.3 4.34-1.51 8.87-2.27 13.59-2.27Zm16.13 85.37L86.34 8.77c.75-2.65 2.16-4.77 4.24-6.38C92.65.78 95.06-.02 97.8-.02h29.58c6.79 0 13.04 1.48 18.75 4.45 5.7 2.97 10.45 6.91 14.22 11.82 3.77 4.9 6.37 10.5 7.78 16.77 1.41 6.27 1.22 12.71-.57 19.32l-.57 2.12c-1.23 4.53-3.12 8.7-5.67 12.52 -2.55 3.82-5.6 7.1-9.14 9.83 -3.54 2.73-7.49 4.86-11.83 6.37 -4.35 1.51-8.88 2.26-13.6 2.26h-25.63l5.09-19.12c.75-2.55 2.16-4.63 4.24-6.23 2.07-1.61 4.48-2.41 7.21-2.41h8.21c3.39 0 6.44-1.04 9.13-3.12 2.69-2.08 4.46-4.77 5.3-8.07 .65-2.36.73-4.68.21-6.94 -.52-2.27-1.45-4.27-2.77-6.02 -1.33-1.75-3.03-3.17-5.1-4.25 -2.08-1.09-4.35-1.63-6.8-1.63h-15.86L89.3 104.52c-.76 2.54-2.18 4.62-4.25 6.22 -2.08 1.6-4.44 2.4-7.08 2.4H58.29Zm176.54-55.79l.42-1.56c.18-.76.07-1.4-.36-1.92s-1.02-.78-1.77-.78h-46.02c-1.99 0-3.78-.43-5.38-1.28 -1.61-.85-2.93-1.96-3.97-3.33 -1.05-1.37-1.75-2.95-2.13-4.75 -.38-1.8-.34-3.64.14-5.53l2.83-10.76h62.29c3.86 0 7.4.84 10.61 2.54 3.2 1.69 5.87 3.91 7.99 6.65 2.12 2.73 3.58 5.87 4.38 9.41 .8 3.53.73 7.19-.22 10.97l-11.19 41.62c-1.14 4.24-3.43 7.69-6.87 10.33 -3.45 2.64-7.39 3.96-11.83 3.96l-46.02-.15c-4.06 0-7.79-.88-11.19-2.62 -3.4-1.75-6.19-4.06-8.36-6.94 -2.18-2.88-3.69-6.19-4.54-9.92 -.85-3.73-.76-7.53.28-11.4l.56-2.13c.65-2.65 1.76-5.1 3.32-7.37 1.55-2.27 3.37-4.2 5.45-5.81 2.07-1.61 4.38-2.86 6.93-3.76 2.54-.9 5.23-1.35 8.07-1.35h38.64l-2.84 10.61c-.76 2.54-2.18 4.62-4.25 6.22 -2.08 1.6-4.44 2.4-7.08 2.4H195.6c-1.61 0-2.65.8-3.12 2.4 -.29 1.03-.1 1.95.56 2.76 .65.8 1.5 1.2 2.54 1.2h27.89c1.03 0 1.93-.29 2.69-.85 .75-.57 1.22-1.33 1.41-2.27l.28-1.14 6.93-25.63Zm82.39-29.59c6.88 0 13.18 1.48 18.89 4.45 5.71 2.97 10.45 6.91 14.22 11.82 3.77 4.9 6.34 10.52 7.71 16.84 1.36 6.32 1.15 12.79-.64 19.39l-7.08 26.61c-.48 1.88-1.49 3.39-3.05 4.53 -1.56 1.13-3.29 1.69-5.17 1.69h-15.29c-1.8 0-3.21-.69-4.25-2.06s-1.33-2.91-.85-4.61l8.49-32.14c.65-2.36.73-4.68.21-6.94 -.53-2.27-1.44-4.27-2.76-6.02 -1.33-1.75-3.03-3.17-5.1-4.25 -2.08-1.09-4.35-1.63-6.8-1.63h-15.86l-13.74 51.39c-.48 1.88-1.49 3.39-3.05 4.53 -1.56 1.13-3.33 1.69-5.31 1.69H262.8c-1.7 0-3.1-.69-4.18-2.06 -1.09-1.37-1.4-2.91-.93-4.61l20.95-78.72h38.65Zm83.38 26.97c-1.14.89-1.94 2.05-2.41 3.46l-6.38 24.06c-.38 1.32-.15 2.54.7 3.68 .84 1.13 1.98 1.69 3.39 1.69h58.61l-4.54 16.84c-.76 2.54-2.18 4.62-4.25 6.22 -2.08 1.6-4.44 2.4-7.08 2.4h-53.38c-3.88 0-7.42-.83-10.62-2.48 -3.22-1.65-5.88-3.87-8-6.66 -2.13-2.79-3.59-5.95-4.39-9.49 -.81-3.54-.69-7.16.35-10.84l8.63-32.14c.94-3.5 2.4-6.71 4.38-9.63 1.98-2.93 4.31-5.43 7-7.51 2.68-2.08 5.7-3.71 9.06-4.89 3.34-1.18 6.81-1.77 10.4-1.77h37.8c3.86 0 7.4.84 10.61 2.54 3.2 1.69 5.87 3.91 7.99 6.65 2.12 2.73 3.56 5.89 4.31 9.48 .75 3.58.65 7.22-.29 10.9l-2.55 9.62c-1.14 4.24-3.43 7.66-6.87 10.26 -3.45 2.59-7.34 3.89-11.69 3.89h-42.76l2.83-10.48c.65-2.55 2.02-4.63 4.1-6.23 2.07-1.61 4.48-2.41 7.22-2.41h17.27c1.6 0 2.64-.81 3.11-2.41l.56-2.13c.28-1.04.09-1.99-.57-2.84 -.67-.85-1.52-1.28-2.55-1.28h-26.34c-1.42 0-2.7.44-3.83 1.34Zm53.79 58.4L483 6.36c.47-1.89 1.48-3.43 3.04-4.61 1.55-1.18 3.32-1.77 5.3-1.77h15.14c1.79 0 3.23.68 4.31 2.05 1.08 1.36 1.39 2.9.91 4.6l-21.24 78.85c-1.04 4.15-2.72 7.92-5.03 11.32 -2.32 3.39-5.06 6.3-8.22 8.7 -3.17 2.4-6.68 4.29-10.55 5.66 -3.88 1.36-7.93 2.05-12.18 2.05Z"/></svg>