<svg viewBox="0 0 512 125" xmlns="http://www.w3.org/2000/svg"><path fill="#E5422B" d="M177.35 75.8c-8.44 0-13.1-5.39-11.94-13.1 1.3-7.86 7.71-13.1 16-13.1 4.36 0 8.29 2.03 10.62 5.09l8.14-6.7c-4.37-4.95-10.63-7.43-17.32-7.43 -13.68 0-25.61 9.16-27.65 22.11 -2.04 13.09 6.69 22.11 20.51 22.11 6.98 0 13.96-2.91 20.07-7.72l-5.82-6.7c-4.22 3.78-8.59 5.38-12.66 5.38M232 40.96s-1.75-.3-1.9-.3c-1.9-.3-3.93-.15-5.82 0 -1.75.14-3.5.43-5.24 1.01 -1.46.43-3.06 1.01-4.37 1.89l.29-2.04h-9.9l-6.7 42.19h9.89l3.92-24.59c.14-1.46.72-2.77 1.45-3.93 .72-1.17 1.74-2.19 2.9-2.91 1.16-.88 2.32-1.46 3.63-1.9 1.3-.44 2.61-.73 4.07-.88 1.89-.15 3.92 0 5.81.43 0 0 .14 0 .14 0 .29 0 1.74-9.03 1.74-9.03m34.62 3.2c-2.77-2.33-6.99-3.64-11.94-3.64 -12.37 0-23.58 8.87-25.76 21.96 -2.04 13.09 6.54 21.96 18.47 21.96 5.38 0 9.89-.73 13.67-3.35l-.3 2.32h9.02l6.54-41.91h-9.32l-.44 2.61Zm-2.04 18.33v0c-1.31 8-7.28 13.53-14.99 13.53 -7.86 0-12.37-5.82-11.06-13.68 1.3-7.86 7.56-13.39 15.27-13.39 7.71.14 11.93 5.52 10.76 13.53v0Zm57.47-20.96l1.89-11.94 -11.35 8.14 -.59 3.92H299.1l1.3-8.01c.72-3.79 4.8-3.64 4.8-3.64h4.8l1.45-8.73h-5.53 -1.31c-13.54 0-13.97 10.47-13.97 10.47l-.88 4.94 -.73 4.94h-.88l-11.06 8.72h10.47l-6.7 42.63h10.18l6.69-42.78h12.8l-5.24 33.46h10.03l5.23-33.47h12.51l1.45-8.73h-12.66Zm26.91 21.09c2.03-12.95 13.82-22.12 27.64-22.12 6.69 0 12.94 2.61 17.31 7.42l-8.15 6.69c-2.33-3.06-6.26-5.1-10.63-5.1 -8.3 0-14.7 5.38-16.01 13.09 -1.17 7.71 3.49 13.09 11.93 13.09 4.07 0 8.43-1.61 12.65-5.39l5.81 6.69c-6.12 4.94-13.1 7.71-20.08 7.71 -13.83 0-22.56-9.03-20.52-22.12M466.67 58l-3.93 25.6h-9.9l3.92-24.88c1.01-5.82-2.19-9.32-7.86-9.32 -5.97 0-11.94 3.63-12.81 9.6l-3.93 24.58h-9.9l3.92-24.88c.87-5.68-2.48-9.17-7.86-9.32 -5.53.29-11.94 3.78-12.81 9.6l-3.93 24.58h-9.9l6.69-42.2h9.89l-.3 2.03c3.34-2.04 7.12-2.91 11.93-3.06h.87c6.11 0 11.05 2.47 13.67 6.69 4.07-4.22 10.33-6.7 16.58-6.7 10.76 0 17.31 7.12 15.56 17.6m-.44 20.51l6.11-7.57c3.34 2.61 9.74 4.65 15.13 4.65 4.94 0 9.89-1.02 10.47-4.37 .43-2.62-4.37-3.5-9.75-4.37 -11.21-1.9-16.88-4.22-15.72-12.66 1.74-10.63 12.65-13.68 21.67-13.68 6.4 0 13.09 2.18 17.6 5.23l-6.12 7.56c-3.5-2.19-8.01-3.79-13.1-3.79 -5.97 0-9.46 1.74-9.9 4.51 -.3 1.89 1.3 2.61 8.29 3.78 10.18 1.74 18.62 3.34 17.02 13.09 -1.31 8.87-10.34 13.82-22.12 13.82 -6.55-.15-14.99-2.48-19.65-6.26M110.9-.35H12.69C5.41-.35-.41 5.46-.41 12.74v98.2c0 7.27 5.81 13.09 13.09 13.09h98.2c7.12 0 13.09-5.82 13.09-13.1V12.72c0-7.28-5.82-13.1-13.1-13.1m-49.33 75.8c4.07 0 8.43-1.61 12.65-5.39L80 76.72c-6.12 4.94-13.1 7.71-20.08 7.71 -13.83 0-22.56-9.17-20.52-22.12 2.03-12.95 13.82-22.12 27.64-22.12 6.69 0 12.94 2.61 17.31 7.42L76.2 54.3c-2.33-3.06-6.26-5.1-10.63-5.1 -8.3 0-14.7 5.38-16.01 13.09 -1.17 7.71 3.49 13.09 11.93 13.09"/></svg>