<svg viewBox="0 0 256 276" xmlns="http://www.w3.org/2000/svg"><g fill="#9B1B1D"><path d="M105.637 54.53s-.01-25.483.06-35.87c.07-11.21 7.14-18.27 18.24-18.31 10.89-.04 21.79-.04 32.69-.001 10.98.03 18.07 7.01 18.09 17.93 .05 21.279.01 42.55 0 63.83 -.01 1.12-.13 2.24-.23 3.82 -20.04-11.61-40.49-13.33-61.28-3.7 -15.55 7.19-26.32 19.19-32.04 35.36 -11.42 32.25 6.04 67.69 38.696 78.75 33.88 11.47 72.2-7.39 81.7-46.1 .97.81 33.11 32.37 48.22 47.35 8.21 8.13 8.19 17.887.02 26.02 -7.45 7.41-14.93 14.8-22.42 22.17 -8.33 8.19-18.2 8.22-26.47.09 -7.5-7.37-26.32-25.768-26.32-25.768s.15 26.47.08 37.24c-.07 10.47-7.18 17.57-17.61 17.63 -11.16.06-22.32.05-33.48 0 -10.65-.05-17.82-7.1-17.94-17.82 -.13-10.38-.03-36.85-.03-36.85s-18.152 18.22-25.56 25.49c-8.33 8.16-18.15 8.16-26.47.01 -7.42-7.27-14.796-14.57-22.17-21.88 -8.59-8.512-8.55-18.04-.13-26.58 8.18-8.3 25.13-25.68 25.13-25.68s-26.85.04-38.131-.02c-11.619-.06-18.31-6.8-18.35-18.41 -.04-10.51-.05-21.02 0-31.53 .049-11.34 6.79-18.1 18.19-18.18 11.02-.08 38.422-.02 38.422-.02s-18.51-18.5-26.13-26.1c-7.83-7.81-7.9-17.68-.14-25.44 7.79-7.8 15.62-15.57 23.53-23.258 7.44-7.25 17.71-7.311 25.03.04 8.49 8.535 26.68 25.638 26.68 25.638"/><path d="M165.772 137.58c.01 13.96-11.14 25.05-25.232 25.09 -14.32.04-25.53-11.07-25.48-25.232 .05-13.87 11.42-25.05 25.41-24.99 14.03.05 25.27 11.23 25.29 25.12"/></g></svg>