<svg viewBox="0 0 256 235" xmlns="http://www.w3.org/2000/svg"><path fill="#09D3AC" d="M233.8 104.89c0-13.05-15.36-24.62-38.98-31.69 5.68-24 3.2-43.09-8.11-49.55 -2.78-1.54-5.91-2.33-9.08-2.28 -10.55 0-23.89 7.36-37.35 20.11 -13.47-12.66-26.76-19.98-37.29-19.98 -3.22-.08-6.4.72-9.21 2.31 -11.25 6.47-13.58 25.45-7.98 49.33 -23.51 7.02-38.79 18.5-38.83 31.49 -.04 12.99 15.37 24.61 38.99 31.66 -5.69 24.01-3.22 43.08 8.1 49.54 2.76 1.54 5.88 2.33 9.05 2.27 10.56 0 23.89-7.37 37.36-20.12 13.44 12.65 26.74 19.97 37.28 19.97 3.21.05 6.39-.74 9.2-2.32 11.24-6.48 13.55-25.46 7.97-49.24 23.5-7.13 38.78-18.6 38.8-31.57Zm-84.83-59.11c15.5-13.89 25.2-15.38 28.65-15.38v0c1.59-.06 3.18.32 4.58 1.09 5.41 3.08 7.57 13.97 5.85 28.4 -.45 3.68-1.08 7.34-1.9 10.96 -7.85-1.83-15.81-3.14-23.83-3.93 -4.78-6.71-9.99-13.08-15.61-19.09 .7-.71 1.45-1.41 2.23-2.09Zm-46.95 69.84c1.47 2.84 3.04 5.68 4.67 8.54 1.62 2.85 3.33 5.75 5.22 8.61 -5.14-.74-10.12-1.67-14.85-2.77 1.32-4.82 3.01-9.55 4.94-14.4Zm-5.25-36.06c4.79-1.12 9.8-2.05 15.01-2.77 -1.9 2.8-3.53 5.68-5.23 8.69 -1.71 3.01-3.21 5.68-4.66 8.55 -1.94-4.93-3.65-9.76-5.14-14.49Zm9.86 25.26c2.34-4.97 4.93-9.93 7.74-14.89 2.84-4.97 5.88-9.8 9.03-14.42 5.51-.42 11.19-.65 17.04-.63 5.85.01 11.36.22 16.83.66 3.14 4.58 6.15 9.46 8.99 14.29 2.84 4.82 5.45 9.88 7.8 14.82 -2.33 4.96-4.93 9.94-7.73 14.86 -2.81 4.92-5.89 9.8-9.04 14.43 -5.52.43-11.2.64-17.05.64 -5.86 0-11.37-.25-16.84-.69 -3.15-4.59-6.18-9.36-9.02-14.3 -2.85-4.95-5.36-9.89-7.73-14.83h-.08Zm62.22-27.98c5.15.71 10.13 1.64 14.84 2.74 -1.41 4.67-3.07 9.46-5 14.29 -1.5-2.85-3.05-5.69-4.7-8.55 -1.65-2.86-3.39-5.74-5.08-8.51h-.08Zm5.22 47.19c1.62-2.87 3.18-5.73 4.65-8.58 1.89 4.92 3.78 9.77 5.11 14.5 -4.78 1.11-9.8 2.02-15 2.74 1.83-2.81 3.59-5.7 5.3-8.68h-.08ZM140.3 54.28c3.4 3.63 6.76 7.57 10.03 11.79 -3.24-.14-6.56-.23-9.91-.23 -3.36 0-6.78 0-10.1.22 3.23-4.21 6.55-8.17 9.96-11.8ZM98.29 31.55c1.43-.77 3.05-1.14 4.67-1.07 3.41.14 6.75.98 9.82 2.48 6.94 3.27 13.32 7.6 18.93 12.83l2.21 2.02c-5.56 5.96-10.73 12.29-15.46 18.93 -8.07.78-16.07 2.08-23.96 3.9 -.84-3.68-1.52-7.28-1.9-10.74 -1.97-14.3.3-25.21 5.62-28.32l.01-.08Zm-10.02 96.01c-3.56-1.09-7.06-2.36-10.5-3.79 -13.45-5.69-21.78-12.98-21.78-19.21 0-6.24 8.37-13.49 21.79-19.08 3.37-1.4 6.8-2.63 10.3-3.68 2.36 7.84 5.25 15.52 8.63 22.99 -3.32 7.39-6.14 14.98-8.47 22.74v0Zm43.55 36.17c-15.51 13.88-25.21 15.35-28.68 15.35 -1.6.05-3.19-.33-4.59-1.1 -5.42-3.09-7.58-13.98-5.86-28.41 .43-3.68 1.07-7.34 1.89-10.95 7.84 1.8 15.8 3.11 23.82 3.9 4.76 6.7 9.98 13.08 15.6 19.08l-2.22 2.1Zm8.65-8.55c-3.41-3.64-6.77-7.58-10.06-11.8 3.25.15 6.57.22 9.92.22 3.35 0 6.77 0 10.09-.21 -3.28 4.2-6.61 8.14-9.99 11.77h.01Zm42 22.72c-1.44.78-3.06 1.17-4.7 1.11 -3.45 0-13.26-1.52-28.71-15.34l-2.22-2.03c5.55-5.97 10.7-12.3 15.43-18.94 8.06-.78 16.07-2.08 23.97-3.91 .83 3.67 1.49 7.27 1.89 10.73 1.87 14.27-.31 25.18-5.71 28.27l.01.07Zm20.45-53.86c-3.24 1.32-6.67 2.55-10.31 3.65 -2.38-7.85-5.27-15.53-8.66-23 3.32-7.39 6.16-14.98 8.5-22.73 3.55 1.08 7.05 2.35 10.49 3.78 13.42 5.68 21.77 12.97 21.75 19.2 -.02 6.23-8.38 13.4-21.82 18.99l.01.07Zm-62.65-1.94c9.6.01 17.39-7.77 17.4-17.37 .01-9.61-7.77-17.4-17.37-17.41 -9.61-.02-17.4 7.76-17.41 17.36 -.02 4.61 1.81 9.03 5.07 12.3 3.25 3.26 7.68 5.09 12.29 5.09v0ZM24.74-.07v209.54h231.17V-.08H24.73Zm222.13 200.53H33.78V8.96h213.08v191.49Zm-160.98-64.2c-5.69 24.01-3.22 43.08 8.1 49.54 2.76 1.54 5.88 2.33 9.05 2.27 10.56 0 23.89-7.37 37.36-20.12 13.44 12.65 26.74 19.97 37.28 19.97 3.21.05 6.39-.74 9.2-2.32 11.24-6.48 13.55-25.46 7.97-49.24 23.5-7.05 38.78-18.53 38.8-31.5 .01-12.98-15.36-24.62-38.98-31.69 5.68-24 3.2-43.09-8.11-49.55 -2.78-1.54-5.91-2.33-9.08-2.28 -10.55 0-23.89 7.36-37.35 20.11 -13.47-12.66-26.76-19.98-37.29-19.98 -3.22-.08-6.4.72-9.21 2.31 -11.25 6.47-13.58 25.45-7.98 49.33 -23.51 7.02-38.79 18.5-38.83 31.49 -.04 12.99 15.39 24.5 39.01 31.58h-.02Zm45.84 27.44c-15.51 13.88-25.21 15.35-28.68 15.35 -1.6.05-3.19-.33-4.59-1.1 -5.42-3.09-7.58-13.98-5.86-28.41 .43-3.68 1.07-7.34 1.89-10.95 7.84 1.8 15.8 3.11 23.82 3.9 4.76 6.7 9.98 13.08 15.6 19.08l-2.22 2.1Zm46.94-69.87c-1.5-2.85-3.05-5.69-4.7-8.55 -1.65-2.86-3.41-5.69-5.16-8.51 5.15.71 10.13 1.64 14.84 2.74 -1.39 4.67-3.05 9.46-4.99 14.29h-.02Zm5.15 35.98c-4.78 1.11-9.8 2.02-15 2.74 1.78-2.81 3.52-5.7 5.22-8.68 1.7-2.98 3.25-5.84 4.65-8.58 1.98 5.01 3.71 9.82 5.07 14.6l.03-.1Zm-9.87-25.29c-2.33 4.96-4.93 9.94-7.73 14.86 -2.81 4.92-5.89 9.8-9.04 14.43 -5.52.43-11.2.64-17.05.64 -5.86 0-11.37-.25-16.84-.69 -3.15-4.59-6.18-9.36-9.02-14.3 -2.85-4.95-5.44-9.89-7.81-14.83 2.34-4.97 4.93-9.93 7.74-14.89 2.84-4.97 5.88-9.8 9.03-14.42 5.51-.42 11.19-.65 17.04-.63 5.85.01 11.36.22 16.83.66 3.14 4.58 6.15 9.46 8.99 14.29 2.84 4.82 5.47 9.98 7.82 14.92l-.02-.1Zm-62.14 28.17c-5.14-.74-10.12-1.67-14.85-2.77 1.4-4.66 3.08-9.47 5.01-14.3 1.47 2.84 3.04 5.68 4.67 8.54 1.62 2.85 3.25 5.66 5.15 8.52Zm-5.29-47.35c-1.65 2.84-3.21 5.68-4.66 8.55 -1.99-4.89-3.72-9.7-5.21-14.44 4.79-1.12 9.8-2.05 15.01-2.77 -1.77 2.8-3.45 5.7-5.16 8.63Zm33.86 69.78c-3.41-3.64-6.77-7.58-10.06-11.8 3.25.15 6.57.22 9.92.22 3.35 0 6.77 0 10.09-.21 -3.26 4.2-6.6 8.14-9.97 11.77Zm42 22.72c-1.44.78-3.06 1.17-4.7 1.11 -3.45 0-13.26-1.52-28.71-15.34l-2.22-2.03c5.55-5.97 10.7-12.3 15.43-18.94 8.06-.78 16.07-2.08 23.97-3.91 .83 3.67 1.49 7.27 1.89 10.73 1.89 14.27-.29 25.18-5.69 28.27v.07Zm9.99-95.94c3.55 1.08 7.05 2.35 10.49 3.78 13.42 5.68 21.77 12.97 21.75 19.2 -.02 6.23-8.36 13.55-21.8 19.14 -3.24 1.32-6.67 2.55-10.31 3.65 -2.38-7.85-5.27-15.53-8.66-23 3.33-7.44 6.17-15.08 8.5-22.88v.07Zm-43.56-36.16c15.5-13.89 25.2-15.38 28.65-15.38v0c1.59-.06 3.18.32 4.58 1.09 5.41 3.08 7.57 13.97 5.85 28.4 -.45 3.68-1.08 7.34-1.9 10.96 -7.85-1.83-15.81-3.14-23.83-3.93 -4.78-6.71-9.99-13.08-15.61-19.09 .71-.78 1.47-1.48 2.25-2.16l-.02.07Zm-8.62 8.44c3.4 3.63 6.76 7.57 10.03 11.79 -3.24-.14-6.56-.23-9.91-.23 -3.36 0-6.78 0-10.1.22 3.23-4.21 6.55-8.17 9.96-11.8ZM98.18 31.45c1.43-.77 3.05-1.14 4.67-1.07 3.41.14 6.75.98 9.82 2.48 6.94 3.27 13.32 7.6 18.93 12.83l2.21 2.02c-5.56 5.96-10.73 12.29-15.46 18.93 -8.07.78-16.07 2.08-23.96 3.9 -.84-3.68-1.52-7.28-1.9-10.74 -1.97-14.3.3-25.21 5.62-28.32l.01-.08ZM77.68 85.4c3.37-1.4 6.8-2.63 10.3-3.68 2.36 7.84 5.25 15.52 8.63 22.99 -3.33 7.38-6.17 14.97-8.51 22.72 -3.56-1.09-7.06-2.36-10.5-3.79 -13.45-5.69-21.78-12.98-21.78-19.21 0-6.24 8.4-13.47 21.83-19.06Zm62.49 1.89c-9.61-.02-17.4 7.76-17.41 17.36 -.02 9.6 7.76 17.39 17.36 17.4 9.6.01 17.39-7.77 17.4-17.37 .03-4.63-1.78-9.08-5.04-12.37 -3.27-3.29-7.7-5.14-12.33-5.14v.09Zm0 0c-9.61-.02-17.4 7.76-17.41 17.36 -.02 9.6 7.76 17.39 17.36 17.4 9.6.01 17.39-7.77 17.4-17.37 .03-4.63-1.78-9.08-5.04-12.37 -3.27-3.29-7.7-5.14-12.33-5.14v.09Zm0 0c-9.61-.02-17.4 7.76-17.41 17.36 -.02 9.6 7.76 17.39 17.36 17.4 9.6.01 17.39-7.77 17.4-17.37 .03-4.63-1.78-9.08-5.04-12.37 -3.27-3.29-7.7-5.14-12.33-5.14v.09Zm93.45 17.49c0-13.05-15.36-24.62-38.98-31.69 5.68-24 3.2-43.09-8.11-49.55 -2.78-1.54-5.91-2.33-9.08-2.28 -10.55 0-23.89 7.36-37.35 20.11 -13.47-12.66-26.76-19.98-37.29-19.98 -3.22-.08-6.4.72-9.21 2.31 -11.25 6.47-13.58 25.45-7.98 49.33 -23.51 7.02-38.79 18.5-38.83 31.49 -.04 12.99 15.37 24.61 38.99 31.66 -5.69 24.01-3.22 43.08 8.1 49.54 2.76 1.54 5.88 2.33 9.05 2.27 10.56 0 23.89-7.37 37.36-20.12 13.44 12.65 26.74 19.97 37.28 19.97 3.21.05 6.39-.74 9.2-2.32 11.24-6.48 13.55-25.46 7.97-49.24 23.5-7.16 38.78-18.64 38.8-31.61v.03Zm-84.83-59.15c15.5-13.89 25.2-15.38 28.65-15.38v0c1.59-.06 3.18.32 4.58 1.09 5.41 3.08 7.57 13.97 5.85 28.4 -.45 3.68-1.08 7.34-1.9 10.96 -7.85-1.83-15.81-3.14-23.83-3.93 -4.78-6.71-9.99-13.08-15.61-19.09 .7-.71 1.45-1.41 2.23-2.09Zm-46.95 69.84c1.47 2.84 3.04 5.68 4.67 8.54 1.62 2.85 3.33 5.75 5.22 8.61 -5.14-.74-10.12-1.67-14.85-2.77 1.32-4.82 3.01-9.55 4.94-14.4Zm-5.25-36.06c4.79-1.12 9.8-2.05 15.01-2.77 -1.9 2.8-3.53 5.68-5.23 8.69 -1.71 3.01-3.21 5.68-4.66 8.55 -1.94-4.93-3.65-9.76-5.14-14.49Zm9.86 25.26c2.34-4.97 4.93-9.93 7.74-14.89 2.84-4.97 5.88-9.8 9.03-14.42 5.51-.42 11.19-.65 17.04-.63 5.85.01 11.36.22 16.83.66 3.14 4.58 6.15 9.46 8.99 14.29 2.84 4.82 5.45 9.88 7.8 14.82 -2.33 4.96-4.93 9.94-7.73 14.86 -2.81 4.92-5.89 9.8-9.04 14.43 -5.52.43-11.2.64-17.05.64 -5.86 0-11.37-.25-16.84-.69 -3.15-4.59-6.18-9.36-9.02-14.3 -2.85-4.95-5.36-9.89-7.73-14.83h-.08Zm62.22-27.98c5.15.71 10.13 1.64 14.84 2.74 -1.41 4.67-3.07 9.46-5 14.29 -1.5-2.85-3.05-5.69-4.7-8.55 -1.65-2.86-3.39-5.74-5.08-8.51h-.08Zm5.22 47.19c1.62-2.87 3.18-5.73 4.65-8.58 1.89 4.92 3.78 9.77 5.11 14.5 -4.78 1.11-9.8 2.02-15 2.74 1.83-2.81 3.59-5.7 5.3-8.68h-.08Zm-33.77-69.75c3.4 3.63 6.76 7.57 10.03 11.79 -3.24-.14-6.56-.23-9.91-.23 -3.36 0-6.78 0-10.1.22 3.23-4.21 6.55-8.17 9.96-11.8ZM98.11 31.4c1.43-.77 3.05-1.14 4.67-1.07 3.41.14 6.75.98 9.82 2.48 6.94 3.27 13.32 7.6 18.93 12.83l2.21 2.02c-5.56 5.96-10.73 12.29-15.46 18.93 -8.07.78-16.07 2.08-23.96 3.9 -.84-3.68-1.52-7.28-1.9-10.74 -1.97-14.3.3-25.21 5.62-28.32l.01-.08Zm-10.02 96.01c-3.56-1.09-7.06-2.36-10.5-3.79 -13.45-5.69-21.78-12.98-21.78-19.21 0-6.24 8.37-13.49 21.79-19.08 3.37-1.4 6.8-2.63 10.3-3.68 2.36 7.84 5.25 15.52 8.63 22.99 -3.32 7.39-6.14 14.98-8.47 22.74v0Zm43.55 36.17c-15.51 13.88-25.21 15.35-28.68 15.35 -1.6.05-3.19-.33-4.59-1.1 -5.42-3.09-7.58-13.98-5.86-28.41 .43-3.68 1.07-7.34 1.89-10.95 7.84 1.8 15.8 3.11 23.82 3.9 4.76 6.7 9.98 13.08 15.6 19.08l-2.22 2.1Zm8.65-8.55c-3.41-3.64-6.77-7.58-10.06-11.8 3.25.15 6.57.22 9.92.22 3.35 0 6.77 0 10.09-.21 -3.28 4.2-6.61 8.14-9.99 11.77h.01Zm42 22.72c-1.44.78-3.06 1.17-4.7 1.11 -3.45 0-13.26-1.52-28.71-15.34l-2.22-2.03c5.55-5.97 10.7-12.3 15.43-18.94 8.06-.78 16.07-2.08 23.97-3.91 .83 3.67 1.49 7.27 1.89 10.73 1.87 14.27-.31 25.18-5.71 28.27l.01.07Zm20.45-53.86c-3.24 1.32-6.67 2.55-10.31 3.65 -2.38-7.85-5.27-15.53-8.66-23 3.32-7.39 6.16-14.98 8.5-22.73 3.55 1.08 7.05 2.35 10.49 3.78 13.42 5.68 21.77 12.97 21.75 19.2 -.02 6.23-8.38 13.4-21.82 18.99l.01.07Zm-62.65-1.94c9.6.01 17.39-7.77 17.4-17.37 .01-9.61-7.77-17.4-17.37-17.41 -9.61-.02-17.4 7.76-17.41 17.36 -.02 4.61 1.81 9.03 5.07 12.3 3.25 3.26 7.68 5.09 12.29 5.09v0ZM8.81 225.16V15.53l-9.08 9.09v209.56h231.13l9.05-9.04H8.79Z"/></svg>