<svg viewBox="0 0 256 293" xmlns="http://www.w3.org/2000/svg"><path fill="#23D96C" d="M190.2 22.98c-2.22-1.34-4.5-2.58-6.82-3.74 -2.38-1.17-4.81-2.29-7.28-3.27 -.79-.33-1.56-.64-2.35-.94 -2.17-.81-4.35-1.7-6.58-2.34C123.79-1.8 75.96 9.08 43.12 40.9 10.27 72.71-2.12 120.17 10.98 163.98c13.1 43.81 49.5 76.67 94.42 85.24v35.06c73.63-11.06 138.83-69.24 143.7-145.64 2.89-45.97-20.14-92.9-58.95-115.7Z"/><g fill="#173647"><path d="M98.79 292.02v-37.43c-46.02-11.12-82.27-46.53-94.45-92.28 -12.19-45.75 1.65-94.5 36.05-127.03C74.78 2.75 124.23-8.34 169.22 6.38c1.72.5 3.51 1.17 5.24 1.83l1.56.58c1.04.4 1.83.71 2.62 1.05 2.19.86 4.66 1.97 7.61 3.42 2.47 1.24 4.89 2.57 7.27 3.99 40.31 23.68 65.29 72.63 62.16 121.81 -4.82 75.67-67.62 139.5-149.33 151.77l-7.62 1.14Zm30.27-278.83h-.17C69.02 12.89 18.8 58.26 13.03 117.85c-5.77 59.58 34.82 113.74 93.63 124.93l5.36 1.04v32.66c71.84-14.03 126.18-71.09 130.45-138.25 2.82-44.36-19.55-88.41-55.69-109.63l-.06-.04c-2.09-1.27-4.24-2.43-6.37-3.5 -2.58-1.27-4.75-2.24-6.76-3.04 -.82-.35-1.49-.64-2.17-.88l-1.71-.64c-1.56-.6-3.04-1.16-4.47-1.58 -11.69-3.84-23.92-5.8-36.22-5.81H129Z"/><path d="M104.33 66.72c3.75-.47 7.5.97 9.98 3.83 1.89 2.06 3.44 4.42 4.59 6.98 4.06 8.96 6.47 21.82 1.45 29.04 -10.7-2.74-19.79-9.79-25.11-19.47 -1.33-2.63-2.08-5.51-2.19-8.45 .17-6.27 5.02-11.41 11.26-11.95v0Zm-35.84 50.6c2.41 1.78 4.98 3.33 7.68 4.64 9.89 4.26 21.15 3.94 30.79-.88 -3.77-9.83-11.39-17.69-21.1-21.76 -2.87-1.29-5.96-1.98-9.1-2.03 -.67-.06-1.35-.06-2.02 0 -4.7.19-8.77 3.3-10.18 7.79 -1.41 4.48.15 9.37 3.89 12.2Zm38.46 21.64c-4.9-3.27-15.01-1.95-20.89-1.85 -3.62.05-7.19.8-10.51 2.21 -2.86 1-5.47 2.59-7.69 4.65 -3.78 3.3-4.96 8.68-2.92 13.26 2.03 4.58 6.82 7.31 11.8 6.72 3.14.02 6.25-.68 9.09-2.03 9.05-3.91 19.8-14.64 21.1-23.01h-.01Zm16.45 12.61c-10.5 3.88-18.98 11.86-23.49 22.1 -1.28 2.57-1.97 5.4-2.03 8.28 -.12 4.98 2.86 9.52 7.48 11.41 4.61 1.88 9.92.72 13.32-2.93 1.71-2.42 3.18-4.99 4.41-7.69 3.91-8.41 5.46-23.46.29-31.21h-.01Zm16.12-45.2c10.27-3.02 18.76-10.29 23.33-19.98 1.27-2.66 1.95-5.55 2.01-8.49 .14-6.48-4.85-11.92-11.32-12.33 -3.83-.42-7.62 1.09-10.1 4.04 -1.73 2.41-3.22 4.98-4.45 7.68 -3.91 9.04-5.31 21.94.51 29.02l-.01.03Zm26.53 76.4c-.06-2.94-.75-5.84-2.03-8.49 -4.17-9.77-12.33-17.28-22.42-20.62 -5.02 9.15-5.55 20.11-1.43 29.7 1.08 2.57 2.57 4.96 4.41 7.06 7.14 7.75 22.1 2.01 21.45-7.69h-.01Zm26.48-39.61c-2.42-1.71-4.99-3.19-7.68-4.42 -3.33-1.42-6.9-2.17-10.51-2.22 -6.9-.58-13.82.63-20.11 3.49 3.71 9.7 11.28 17.43 20.91 21.35 2.86 1.28 5.95 1.96 9.09 2.01 5.05.57 9.87-2.28 11.8-6.99 1.92-4.72.47-10.13-3.54-13.25h.01Z"/></g></svg>