<svg viewBox="0 0 512 94" xmlns="http://www.w3.org/2000/svg"><path fill="#FFCD00" d="M66.58 53.34c10.78 0 20.51-6.5 24.64-16.47 4.12-9.97 1.84-21.45-5.79-29.07C77.79.17 66.32-2.11 56.35 2.02c-9.97 4.13-16.47 13.86-16.46 24.65 0 7.07 2.81 13.85 7.81 18.85 5 5 11.78 7.8 18.85 7.8v0Z"/><path fill="#00ECBB" d="M66.75 66.67h-.09c-18.3-.01-34.26-12.42-38.78-30.15 -1.34-5.34-5.68-9.85-11.18-9.85H-.02c0 36.81 29.84 66.66 66.66 66.66h.08V66.65Z"/><path fill="#AF64FF" d="M66.58 66.67h.07c18.29-.01 34.26-12.42 38.77-30.15 1.35-5.34 5.68-9.85 11.18-9.85h16.71c-.01 36.81-29.86 66.66-66.68 66.66h-.08V66.65Z"/><path fill="#7131FF" d="M113.8 73.81c-12.51 12.5-29.46 19.52-47.14 19.52 -17.69 0-34.64-7.03-47.14-19.53l18.85-18.86c15.62 15.61 40.94 15.61 56.57 0l18.85 18.85Z"/><path fill="#2F326A" d="M465.41 25.34h7.33v31.22h-7.34V25.33Zm3.69-5.11c-1.24.02-2.44-.43-3.35-1.28 -.89-.81-1.38-1.96-1.36-3.16 -.02-1.17.47-2.28 1.35-3.05 .89-.86 2.1-1.32 3.34-1.28 1.23-.03 2.43.43 3.34 1.27 .87.74 1.37 1.83 1.35 2.98 .01 1.23-.47 2.41-1.36 3.27 -.91.82-2.12 1.25-3.35 1.17v.03Zm-14.51 36.73c-1.3.02-2.55-.48-3.46-1.4 -.91-.92-1.41-2.18-1.36-3.47 -.05-1.31.44-2.58 1.35-3.51 .92-.89 2.17-1.38 3.45-1.34 1.29-.04 2.53.46 3.44 1.38 .91.91 1.4 2.16 1.35 3.46 .04 1.29-.45 2.54-1.36 3.46 -.92.92-2.17 1.42-3.46 1.39v0Zm32.1-2.05c5.4 2.71 11.77 2.71 17.18 0 2.46-1.31 4.52-3.27 5.93-5.68 1.45-2.53 2.2-5.4 2.16-8.31 .04-2.9-.71-5.75-2.17-8.25 -1.42-2.42-3.49-4.39-5.97-5.68 -5.41-2.72-11.78-2.72-17.19 0 -2.49 1.3-4.56 3.26-5.99 5.67 -1.44 2.5-2.17 5.35-2.12 8.24 -.05 2.9.68 5.77 2.11 8.3 1.44 2.4 3.53 4.37 6.02 5.67v0ZM501.93 48c-3.75 3.57-9.63 3.57-13.37 0 -1.76-1.93-2.68-4.48-2.56-7.08 -.13-2.61.79-5.16 2.55-7.08 3.73-3.59 9.63-3.59 13.36 0 1.8 1.9 2.75 4.45 2.64 7.07 .11 2.62-.84 5.17-2.65 7.07v0Zm-207.3 6.82c-.93.73-2.01 1.27-3.16 1.56 -1.25.35-2.54.52-3.83.52 -2.9.18-5.74-.78-7.93-2.68 -1.99-2.09-3.01-4.91-2.8-7.79v-27.8h7.27v7.07h8.32v5.81h-8.33v14.75c-.09 1.25.31 2.5 1.1 3.48 .85.82 2.01 1.24 3.2 1.16 1.46.04 2.9-.4 4.08-1.28l2.02 5.14Zm-105.1 2.09c-3.02.04-6-.65-8.68-2.03 -2.49-1.29-4.56-3.24-6-5.64 -1.46-2.51-2.21-5.36-2.16-8.26 -.06-2.88.69-5.72 2.15-8.19 1.42-2.39 3.47-4.34 5.93-5.64 2.7-1.39 5.7-2.09 8.73-2.03 2.79-.07 5.55.57 8.03 1.86 2.26 1.18 4.09 3.06 5.21 5.37l-5.55 3.31c-.81-1.39-1.98-2.52-3.39-3.27 -1.35-.74-2.85-1.12-4.38-1.1 -2.53-.08-4.97.88-6.75 2.66 -1.84 1.86-2.81 4.41-2.68 7.02 -.15 2.61.77 5.16 2.55 7.09 3.05 2.82 7.53 3.46 11.25 1.6 1.39-.78 2.55-1.9 3.38-3.26l5.54 3.25c-1.18 2.29-3.03 4.17-5.3 5.39 -2.46 1.25-5.19 1.88-7.95 1.82l-.02-.03Zm59.95-.99c2.41.65 4.89.98 7.39.98 4.34 0 7.79-.87 10.3-2.56 2.4-1.5 3.85-4.14 3.82-6.97 .11-1.87-.52-3.7-1.75-5.11 -1.12-1.19-2.52-2.07-4.07-2.56 -2.01-.58-4.06-1-6.13-1.28 -1.88-.34-3.72-.85-5.5-1.51 -1.1-.37-1.81-1.41-1.75-2.56 -.01-1.1.62-2.09 1.62-2.56 1.52-.74 3.2-1.08 4.89-.99 3.13-.05 6.21.75 8.92 2.32l2.8-5.53c-1.64-.91-3.41-1.56-5.25-1.92 -2.1-.5-4.24-.75-6.38-.76 -3.54-.18-7.04.75-10.02 2.66 -2.35 1.55-3.73 4.21-3.67 7.02 -.12 1.92.5 3.81 1.73 5.29 1.17 1.17 2.61 2.05 4.19 2.55 2.06.59 4.16 1.03 6.28 1.33 1.8.23 3.58.63 5.3 1.21 1.01.28 1.7 1.21 1.68 2.27 0 2.28-2.18 3.42-6.52 3.41 -1.98-.01-3.94-.28-5.83-.81 -1.77-.51-3.46-1.28-5.01-2.28l-2.8 5.52c1.72 1.22 3.65 2.14 5.68 2.71l-.07-.03ZM305 54.87c5.36 2.7 11.69 2.7 17.06 0 2.44-1.3 4.48-3.25 5.88-5.64 1.45-2.51 2.19-5.36 2.15-8.26 .04-2.88-.71-5.71-2.16-8.19 -1.4-2.39-3.44-4.35-5.89-5.64 -5.37-2.71-11.7-2.71-17.07 0 -2.46 1.3-4.52 3.25-5.95 5.63 -1.42 2.49-2.14 5.32-2.1 8.18 -.05 2.88.67 5.73 2.09 8.25 1.44 2.4 3.52 4.36 6 5.66l-.07-.03ZM320.14 48c-3.71 3.57-9.58 3.57-13.28 0 -1.76-1.91-2.68-4.44-2.56-7.03 -.12-2.59.79-5.12 2.55-7.03 3.71-3.56 9.56-3.56 13.27 0 1.78 1.89 2.73 4.42 2.61 7.02 .14 2.6-.78 5.14-2.56 7.05l-.07-.03Zm56.12-22.89c3.44-.18 6.81 1.06 9.32 3.43 2.28 2.24 3.43 5.62 3.43 10.2v17.75h-7.29V39.63c.2-2.17-.39-4.34-1.66-6.1 -1.33-1.45-3.23-2.22-5.18-2.1 -2.23-.1-4.38.8-5.89 2.44 -1.61 1.9-2.42 4.36-2.26 6.84v15.74h-7.29V39.59c.16-2.19-.48-4.36-1.8-6.1 -1.33-1.45-3.23-2.22-5.18-2.1 -2.24-.1-4.4.77-5.95 2.38 -1.58 1.94-2.36 4.41-2.2 6.91v15.74h-7.29V39.05c0-8.7 6.59-14.04 15.2-14.04 2.75-.04 5.49.41 8.08 1.33 1.79.81 3.29 2.14 4.31 3.82 1.3-1.67 3-2.98 4.94-3.83 2.12-.93 4.42-1.38 6.73-1.32l-.11-.03Zm51.55 18.2c.07-.93.11-1.65.11-2.15 .06-2.92-.64-5.81-2.03-8.37 -1.28-2.39-3.23-4.35-5.6-5.64 -2.47-1.38-5.26-2.08-8.09-2.03 -2.89-.05-5.74.65-8.28 2.02 -2.42 1.32-4.41 3.3-5.76 5.7 -1.39 2.48-2.09 5.28-2.05 8.12 -.05 2.88.67 5.73 2.09 8.25 1.45 2.41 3.56 4.36 6.07 5.63 5.09 2.41 10.95 2.68 16.25.75 2.05-.82 3.87-2.13 5.29-3.83l-3.91-4.48c-2.23 2.25-5.29 3.47-8.45 3.36 -2.41.08-4.78-.61-6.75-1.98 -1.77-1.32-2.96-3.25-3.35-5.41h24.4Zm-21.55-10.29c1.65-1.41 3.77-2.15 5.94-2.1 2.16-.07 4.28.67 5.93 2.09 1.59 1.4 2.61 3.34 2.85 5.45h-17.65c.25-2.12 1.29-4.07 2.9-5.46v0Zm46.64-7.9v6.91c-.56-.11-1.12-.17-1.69-.18 -2.48-.13-4.9.79-6.65 2.55 -1.71 1.95-2.57 4.5-2.39 7.09v14.98h-7.29V40.83c0-11.35 7.28-17.15 17.99-15.73ZM223.29 56.89c-4.16 0-8.59-1.15-10.99-3.44 -2.4-2.29-3.56-5.76-3.56-10.29V25.41h7.28v16.76c-.18 2.24.49 4.48 1.86 6.27 3.09 2.7 7.7 2.7 10.8 0 1.36-1.8 2.02-4.03 1.86-6.28V25.39h7.28v17.74c0 4.53-1.19 7.95-3.56 10.28 -2.43 2.28-6.88 3.43-11.03 3.43h.02Z"/></svg>