<svg viewBox="0 0 256 256" xmlns="http://www.w3.org/2000/svg"><defs><linearGradient id="a" x1="6.319%" x2="87.52%" y1="44.028%" y2="58.406%"><stop offset="0%" stop-color="#315C55"/><stop offset="100%" stop-color="#09293F"/></linearGradient><linearGradient id="b" x1="54.297%" x2="50%" y1="27.262%" y2="100%"><stop offset="0%" stop-color="#4FB38D"/><stop offset="100%" stop-color="#315C55"/></linearGradient><linearGradient id="c" x1="13.908%" x2="70.819%" y1="50%" y2="54.959%"><stop offset="0%" stop-color="#4FB38D"/><stop offset="100%" stop-color="#97DEC0"/></linearGradient><linearGradient id="d" x1="53.859%" x2="38.388%" y1="30.892%" y2="95.793%"><stop offset="0%" stop-color="#97DEC0"/><stop offset="100%" stop-color="#FFFFF0" stop-opacity="0"/><stop offset="100%" stop-color="#FFFFF0" stop-opacity="0"/></linearGradient></defs><path fill="url(#a)" d="M141.65 223.94l-4.34 10.52c-.87 2.08-2.84 3.49-5.05 3.59 -1.47.05-2.95.09-4.44.09 -51.03-.03-96.17-36.12-107.36-85.84l-17.37 3.93c6.27 27.89 22.03 53.2 44.36 71.29 22.59 18.29 51.05 28.39 80.16 28.45 .04 0 .25 0 .25 0 1.7 0 3.4-.05 5.1-.11 9.13-.39 17.3-6.13 20.78-14.64l5.66-13.76 -17.81-3.55Z"/><path fill="url(#b)" d="M4.54 161.91C1.53 150.91-.01 139.5-.01 128c0-52.5 32.86-100.49 81.78-119.42l6.41 16.65C46.07 41.52 17.79 82.81 17.79 127.99c-.001 9.9 1.31 19.72 3.89 29.17l-17.17 4.72Z"/><path fill="url(#c)" d="M225.69 77.29c-19.04-36.67-56.51-59.44-97.77-59.44 -14.62 0-28.83 2.82-42.21 8.37L78.88 9.73C94.42 3.27 110.92-.02 127.9-.02c47.93 0 91.45 26.45 113.56 69.04l-15.8 8.25Z"/><g fill="#09293F"><path d="M89.72 101.59c10.32 0 18.73 5.52 23.05 15.15l.34.75 17.34-5.91 -.37-.9c-6.72-16.41-22.19-26.61-40.38-26.61 -12.79 0-23.19 4.11-31.77 12.55 -8.54 8.38-12.86 18.94-12.86 31.37 0 12.32 4.32 22.81 12.85 31.2 8.58 8.44 18.98 12.55 31.76 12.55 18.18 0 33.65-10.2 40.37-26.59l.36-.9 -17.37-5.93 -.33.78c-3.87 9.47-12.49 15.13-23.05 15.13 -7.2 0-13.27-2.53-18.08-7.49 -4.87-5.03-7.33-11.35-7.33-18.78 0-7.49 2.4-13.68 7.32-18.95 4.8-4.99 10.88-7.52 18.07-7.52Z"/><path d="M198.34 85.72l-24.72 62.72 -24.88-62.73 -20.35 0 34.88 85.61 -24.83 60.38 17.79 3.54 61.3-149.56Z"/></g><path fill="url(#d)" d="M241.48 69.04c9 17.53 14.51 38.13 14.51 59.22 0 49.19-27.68 91.91-68.26 113.34l-8.77-15.55c35.19-18.36 59.22-55.26 59.22-97.8 0-18.46-4.52-35.7-12.52-50.98 0 0 15.79-8.26 15.79-8.26Z"/></svg>