<svg viewBox="0 0 256 243" xmlns="http://www.w3.org/2000/svg" xmlns:xlink="http://www.w3.org/1999/xlink"><defs><linearGradient id="a" x1="-82.637%" x2="103.767%" y1="-92.82%" y2="106.041%"><stop offset="0%" stop-color="#F9A03C"/><stop offset="100%" stop-color="#F7974E"/></linearGradient><linearGradient id="b" x1="-258.924%" x2="97.62%" y1="-248.971%" y2="98.768%" xlink:href="#a"/><linearGradient id="c" x1="-223.163%" x2="94.028%" y1="-261.968%" y2="101.69%" xlink:href="#a"/><linearGradient id="d" x1="11.338%" x2="82.496%" y1="-1.822%" y2="92.106%"><stop offset="0%" stop-color="#F26D58"/><stop offset="100%" stop-color="#F9A03C"/></linearGradient><linearGradient id="e" x1="15.843%" x2="120.126%" y1="3.858%" y2="72.38%"><stop offset="0%" stop-color="#B84E51"/><stop offset="100%" stop-color="#F68E48"/></linearGradient><linearGradient id="f" x1="46.984%" x2="51.881%" y1="23.466%" y2="147.391%" xlink:href="#a"/></defs><path fill="url(#a)" d="M255.52 175.61c.11-1.12.19-2.24.26-3.38 .07-1.34-80.57-77.86-80.57-77.86h-1.93s81.73 86.21 82.22 81.22v0 0Z"/><path fill="url(#b)" d="M83.472 149.07c-.11.23-.22.46-.33.7 -.12.24-.24.49-.35.73 -2.58 5.36 35.98 43.05 39.08 38.47 .14-.21.28-.42.42-.62 .15-.24.31-.47.46-.71 2.48-3.77-38.21-41.04-39.31-38.584v0 0Z"/><path fill="url(#c)" d="M137.95 202.08c-.11.24-.89 1.55-1.6 2.24 -.12.24 37.64 37.68 37.64 37.68h3.4s-35.45-38.35-39.45-39.94v0 0Z"/><path fill="url(#d)" d="M255.83 171.568c-1.77 39.14-34.16 70.44-73.72 70.44h-5.35l-39.52-38.93c3.25-4.59 6.27-9.34 8.96-14.29h35.9c11.35 0 20.59-9.24 20.59-20.6 0-11.36-9.24-20.6-20.6-20.6h-21.25c1.61-8.56 2.5-17.39 2.5-26.41 0-9.17-.91-18.12-2.58-26.81h13.19l81.61 80.41c.09-1.08.17-2.16.23-3.25v0 0ZM21.46 0H-.01v53.21h21.46c37.49 0 68 30.49 68 67.99 0 10.2-2.28 19.88-6.32 28.57l39.16 38.58c12.85-19.24 20.37-42.34 20.37-67.17C142.66 54.34 88.27-.03 21.43-.03v0 0Z"/><path fill="url(#e)" d="M182.11 0H95.18c21.23 12.96 38.81 31.344 50.79 53.21h36.13c11.35 0 20.59 9.23 20.59 20.59 0 11.35-9.24 20.59-20.6 20.59h-8.12l81.61 80.41c.19-2.19.31-4.38.31-6.61 0-17.94-6.44-34.4-17.13-47.21 10.68-12.81 17.12-29.27 17.12-47.2 0-40.7-33.11-73.81-73.81-73.81v0 0Z"/><path fill="url(#f)" d="M176.76 242.016H95.8c16.29-10.07 30.384-23.35 41.44-38.93L176.75 242v0Zm-54.46-53.65l-39.16-38.59c-10.82 23.25-34.4 39.42-61.69 39.42H-.02V242.4h21.46c42.01 0 79.09-21.49 100.84-54.04v0 0Z"/></svg>