<svg viewBox="0 0 256 256" xmlns="http://www.w3.org/2000/svg"><g fill="#632CA6"><path d="M16.59 255.72H-.01V217.5h16.59c11.95 0 17.94 6.02 17.94 18.06 0 13.42-5.99 20.14-17.95 20.14m-9.51-6.16h8.42c7.94 0 11.91-4.67 11.91-14.01 0-7.95-3.968-11.93-11.92-11.93H7.04v25.92Zm34.88 6.15h-7.29l16.25-38.22h7.62l16.6 38.21h-7.64l-4.82-10.43H50.39l2.43-6.15h7.95l-6.27-14.36 -12.61 30.91Zm29.19-38.22h29.05v6.14H89.2v32.06h-7.1V223.6H71.11l0-6.15v0Zm32.7 38.21h-7.29l16.25-38.22h7.62l16.6 38.21h-7.64l-4.82-10.43h-12.27l2.43-6.15h7.95l-6.27-14.36 -12.61 30.91Zm54.5 0h-16.6v-38.22h16.59c11.96 0 17.94 6.02 17.94 18.06 0 13.42-5.99 20.14-17.95 20.14m-9.51-6.16h8.43c7.93 0 11.91-4.67 11.91-14.01 0-7.95-3.98-11.93-11.92-11.93h-8.44v25.92Zm32.25-12.91c0-12.96 6.41-19.44 19.232-19.44 12.62 0 18.92 6.47 18.92 19.43 0 12.88-6.31 19.32-18.93 19.32 -12.25-.01-18.66-6.45-19.232-19.33m19.232 13.16c7.7 0 11.56-4.45 11.56-13.34 0-8.76-3.86-13.14-11.57-13.14 -7.92 0-11.87 4.38-11.87 13.13 0 8.88 3.95 13.33 11.86 13.33m48.53-9.58v8.94c-1.64.42-3.11.63-4.4.63 -8.69 0-13.02-4.59-13.02-13.76 0-8.48 4.6-12.71 13.78-12.71 3.84 0 7.4.71 10.71 2.14v-6.42c-3.3-1.25-7.05-1.88-11.25-1.88 -13.744 0-20.63 6.27-20.63 18.84 0 13.26 6.75 19.91 20.27 19.91 4.64 0 8.512-.68 11.59-2.04v-20h-11.46l-2.4 6.28h6.75v0 0Z"/><path d="M192.03 144.15L175.14 133l-14.09 23.53 -16.39-4.8 -14.43 22.02 .73 6.93 78.45-14.46 -4.56-49.03L192 144.11Zm-73.17-21.14l12.58-1.74c2.03.91 3.45 1.26 5.89 1.88 3.8.98 8.2 1.93 14.72-1.35 1.51-.76 4.67-3.65 5.95-5.29l51.57-9.36 5.26 63.67 -88.36 15.92 -7.64-63.77Zm95.79-22.95l-5.1.96L199.77-.03 33.13 19.29l20.53 166.59 19.5-2.84c-1.56-2.23-3.99-4.92-8.13-8.36 -5.75-4.78-3.72-12.88-.33-18 4.48-8.65 27.58-19.65 26.27-33.47 -.48-5.03-1.27-11.57-5.94-16.06 -.18 1.86.14 3.65.14 3.65s-1.92-2.45-2.88-5.78c-.95-1.28-1.7-1.69-2.71-3.4 -.72 1.97-.63 4.26-.63 4.26s-1.57-3.71-1.83-6.83c-.93 1.39-1.17 4.05-1.17 4.05s-2.04-5.84-1.58-8.99c-.93-2.74-3.69-8.17-2.91-20.51 5.08 3.56 16.28 2.71 20.64-3.72 1.44-2.14 2.44-7.95-.73-19.4 -2.04-7.35-7.07-18.29-9.03-22.432l-.24.16c1.03 3.34 3.16 10.34 3.98 13.75 2.47 10.3 3.13 13.89 1.97 18.64 -.99 4.13-3.36 6.83-9.37 9.85 -6.01 3.03-13.99-4.35-14.49-4.76 -5.84-4.66-10.36-12.24-10.87-15.93 -.53-4.04 2.32-6.46 3.76-9.76 -2.06.58-4.35 1.63-4.35 1.63s2.73-2.84 6.1-5.28c1.39-.93 2.21-1.52 3.68-2.74 -2.14-.04-3.87.02-3.87.02s3.55-1.92 7.23-3.32c-2.7-.12-5.28-.02-5.28-.02s7.93-3.55 14.19-6.16c4.3-1.77 8.51-1.25 10.88 2.17 3.1 4.48 6.36 6.91 13.27 8.41 4.24-1.89 5.52-2.85 10.86-4.31 4.69-5.17 8.37-5.83 8.37-5.83s-1.83 1.67-2.32 4.31c2.65-2.096 5.57-3.85 5.57-3.85s-1.13 1.39-2.19 3.6l.24.36c3.1-1.87 6.75-3.33 6.75-3.33s-1.05 1.31-2.27 3.02c2.34-.02 7.08.09 8.93.3 10.87.24 13.13-11.62 17.3-13.11 5.22-1.87 7.56-3 16.46 5.75 7.63 7.51 13.6 20.95 10.64 23.96 -2.49 2.49-7.39-.98-12.83-7.75 -2.88-3.59-5.05-7.83-6.07-13.22 -.86-4.55-4.2-7.19-4.2-7.19s1.93 4.32 1.93 8.12c0 2.08.25 9.85 3.59 14.21 -.33.63-.49 3.15-.85 3.63 -3.88-4.69-12.21-8.05-13.57-9.04 4.59 3.76 15.16 12.41 19.22 20.71 3.84 7.84 1.57 15.03 3.52 16.89 .55.53 8.256 10.13 9.73 14.95 2.58 8.4.15 17.23-3.23 22.71l-9.45 1.47c-1.39-.39-2.32-.58-3.56-1.3 .68-1.21 2.04-4.23 2.05-4.85l-.54-.94c-2.95 4.16-7.87 8.21-11.96 10.53 -5.36 3.03-11.53 2.56-15.55 1.32 -11.41-3.52-22.2-11.23-24.8-13.26 0 0-.08 1.61.4 1.98 2.87 3.24 9.46 9.11 15.83 13.2l-13.58 1.49 6.41 49.97c-2.85.4-3.29.6-6.41 1.04 -2.75-9.7-8-16.04-13.74-19.73 -5.07-3.26-12.05-3.99-18.73-2.67l-.43.49c4.64-.49 10.13.18 15.76 3.75 5.52 3.49 9.98 12.53 11.62 17.96 2.1 6.95 3.55 14.38-2.11 22.26 -4.03 5.6-15.77 8.69-25.26 2 2.53 4.07 5.95 7.4 10.57 8.03 6.84.93 13.34-.26 17.82-4.86 3.81-3.93 5.84-12.14 5.31-20.79l6.04-.88 2.18 15.52 100.048-12.05 -8.17-79.63Zm-60.88-42.15c-.28.63-.72 1.05-.07 3.12l.03.11 .1.26 .27.62c1.18 2.42 2.48 4.71 4.67 5.88 .56-.1 1.14-.16 1.75-.19 2.04-.09 3.34.23 4.15.67 .07-.41.08-1.01.04-1.89 -.16-3.08.6-8.31-5.31-11.06 -2.24-1.04-5.36-.72-6.41.57 .18.02.35.06.49.1 1.58.54.51 1.09.22 1.74m16.56 28.69c-.78-.43-4.4-.26-6.95.04 -4.86.57-10.09 2.25-11.24 3.14 -2.09 1.61-1.14 4.42.4 5.57 4.32 3.22 8.11 5.39 12.1 4.86 2.45-.33 4.62-4.22 6.15-7.74 1.04-2.43 1.04-5.05-.49-5.91M127.28 61.6c1.36-1.3-6.82-3.01-13.17 1.32 -4.69 3.19-4.84 10.04-.35 13.92 .44.38.81.65 1.16.88 1.3-.62 2.8-1.24 4.51-1.8 2.89-.95 5.31-1.43 7.29-1.69 .94-1.06 2.05-2.93 1.77-6.31 -.38-4.59-3.85-3.86-1.24-6.35"/></g></svg>