<svg viewBox="0 0 256 256" xmlns="http://www.w3.org/2000/svg"><g fill="#83292A"><path d="M126.02 105.396H86.54c-2.92 6.42-9.38 10.9-16.89 10.9 -10.25 0-18.56-8.31-18.56-18.56 0-10.25 8.3-18.56 18.55-18.56 7.51 0 13.97 4.47 16.89 10.9h30.64l-12.994-22.51H34.71l-34.74 60.16 15.699 27.19H61.02c1.29-3.25 4.45-5.55 8.16-5.55 4.86 0 8.79 3.93 8.79 8.79 0 4.86-3.94 8.79-8.8 8.79 -3.64 0-6.76-2.21-8.1-5.36H19.52l15.16 26.27h69.466l34.73-60.16 -12.91-22.36"/><path d="M255.745 60.159L221.005 0h-31.16l-22.6 39.149c2.16 2.74 2.57 6.63.72 9.84 -2.43 4.2-7.81 5.65-12.02 3.22s-5.66-7.81-3.23-12.02c1.81-3.15 5.29-4.75 8.68-4.34L182.085-.01h-30.58L116.76 60.15l34.73 60.16h26.63l19.399-34.26c-4.16-5.71-4.87-13.53-1.17-20.07 5.05-8.92 16.37-12.06 25.28-7.01 8.91 5.05 12.05 16.37 7 25.28 -3.71 6.54-10.79 9.95-17.81 9.32l-15.13 26.71h25.24l34.73-60.16"/><path d="M240.85 221.564l15.14-26.23 -34.74-60.16h-69.47l-12.9 22.34 19.82 34.46c7.02-.68 14.12 2.68 17.87 9.2 5.11 8.88 2.05 20.22-6.83 25.33 -8.89 5.11-20.23 2.05-25.34-6.84 -3.75-6.52-3.09-14.35 1.02-20.08l-15.41-26.79 -13 22.5 34.73 60.15h69.46l15.72-27.244 -22.62-38.98c-3.46.5-7.04-1.07-8.9-4.28 -2.44-4.21-1.01-9.59 3.19-12.03 4.2-2.44 9.58-1.01 12.02 3.19 1.82 3.14 1.48 6.95-.57 9.69l20.71 35.7"/></g><g fill="#B3B2B2"><path d="M220.2 75.364c0 4.22-3.43 7.65-7.66 7.65s-7.66-3.43-7.66-7.66 3.42-7.66 7.65-7.66c4.22 0 7.65 3.42 7.65 7.65"/><path d="M77.309 97.745c0 4.22-3.43 7.65-7.66 7.65s-7.66-3.43-7.66-7.66 3.42-7.66 7.65-7.66c4.22 0 7.65 3.42 7.65 7.65"/><path d="M167.97 210.6c0 4.22-3.43 7.65-7.66 7.65s-7.66-3.43-7.66-7.66 3.42-7.66 7.65-7.66c4.22 0 7.65 3.42 7.65 7.65"/></g><path fill="#040707" d="M212.54 62.05c-7.22 0-13.1 5.87-13.1 13.09 0 3.4 1.34 6.47 3.49 8.79l-22.79 39.89h-30.52l-17.35-29.57H81.96c-1.52-5.55-6.53-9.65-12.55-9.65 -7.22 0-13.1 5.87-13.1 13.09 0 7.21 5.87 13.09 13.09 13.09 5.91 0 10.85-3.96 12.46-9.35h46.09l15.32 26.13 -16.96 29.7 24.91 43.95c-2.38 2.36-3.88 5.61-3.88 9.22 0 7.21 5.87 13.09 13.09 13.09 7.21 0 13.09-5.88 13.09-13.1s-5.88-13.09-13.1-13.09c-.99 0-1.94.13-2.87.35l-22.88-40.494 15.25-26.11h34.24l24.96-43.4c1.06.28 2.15.48 3.3.48 7.21 0 13.09-5.88 13.09-13.09 0-7.22-5.88-13.1-13.1-13.1v0Zm0 24.03c-1.54 0-2.99-.33-4.32-.9l-25.19 43.8h-34.24l-16.5 28.22 24.35 43.03c1.2-.46 2.49-.74 3.85-.74 6.03 0 10.94 4.91 10.94 10.94 0 6.03-4.92 10.95-10.95 10.95 -6.04 0-10.95-4.92-10.95-10.96 0-3.62 1.77-6.8 4.48-8.8l-25.21-44.39 16.96-29.73 -16.57-28.27 -49 0c-.79 5.27-5.3 9.34-10.79 9.34 -6.04 0-10.95-4.92-10.95-10.95 0-6.04 4.91-10.95 10.94-10.95 5.59 0 10.16 4.23 10.81 9.65l50.8-.01 17.34 29.56h32.99l24.23-42.411c-2.45-2.01-4.05-5.02-4.05-8.43 0-6.04 4.91-10.95 10.94-10.95 6.03 0 10.94 4.91 10.94 10.94 0 6.03-4.92 10.94-10.95 10.94v0Z"/></svg>