<svg viewBox="0 0 256 256" xmlns="http://www.w3.org/2000/svg"><defs><linearGradient id="a" x1="111.945%" x2="11.893%" y1="50.038%" y2="50.038%"><stop offset="0%" stop-color="#21D789"/><stop offset="91.7%" stop-color="#FCF84A"/></linearGradient><linearGradient id="b" x1="49.966%" x2="49.966%" y1="9.167%" y2="157.332%"><stop offset="0%" stop-color="#21D789"/><stop offset="100%" stop-color="#087CFA"/></linearGradient><linearGradient id="c" x1="148.04%" x2="-.965%" y1="124.787%" y2="14.924%"><stop offset="10.5%" stop-color="#21D789"/><stop offset="96.7%" stop-color="#087CFA"/></linearGradient><linearGradient id="d" x1="84.527%" x2="39.511%" y1="-7.698%" y2="70.416%"><stop offset="23.5%" stop-color="#21D789"/><stop offset="74%" stop-color="#087CFA"/></linearGradient><linearGradient id="e" x1="49.866%" x2="49.866%" y1="-24.305%" y2="65.375%"><stop offset="8.4%" stop-color="#878585"/><stop offset="53.8%"/></linearGradient></defs><path fill="url(#a)" d="M164.53 0l5.06 104 -129.6 51.2 -40-103.47Z"/><path fill="#21D789" d="M256 60.8l-112 48.53L164.53-.01Z"/><path fill="url(#b)" d="M137.33 84.8l118.66-24 0 112.26 -81.6 30.66 -33.34-30.41Z"/><path fill="url(#c)" d="M88 52l81.87 12.66 86.12 107.4 -82.68 31.93 -31.9-31.67Z"/><path fill="url(#d)" d="M52.8 0l116.8 64.53 -40.27 191.46 -68 0 -58.94-60.8Z"/><path fill="url(#e)" d="M206 50L50 50l0 156 156 0Z"/><path fill="#FFF" d="M125.4 179.13H67.33v9.53h58.06v-9.54ZM68 69.99h22.8c18.5 0 30.98 12.48 30.98 28.83 0 16.35-12.48 29.26-30.99 29.26l-22.81.43V69.98Zm12.91 12.04v34.85h9.89c10.32 0 17.64-6.89 17.64-17.22 0-10.33-6.89-17.65-17.65-17.65h-9.9 -.01Zm47.08 37.63l7.54-9.1c5.2 4.41 10.92 7.01 17.41 7.01 5.2 0 8.57-2.08 8.57-5.46v-.27c0-3.38-2.08-4.94-11.7-7.54 -11.96-2.87-19.51-6.24-19.51-17.95v-.26c0-10.67 8.58-17.68 20.54-17.68 8.57 0 15.85 2.6 21.84 7.53l-6.76 9.62c-5.2-3.64-10.4-5.72-15.34-5.72 -4.95 0-7.55 2.33-7.55 5.2v.25c0 3.9 2.6 5.2 12.74 7.8 11.96 3.12 18.71 7.28 18.71 17.68v.26c0 11.69-8.84 18.2-21.58 18.2 -8.84-.27-17.94-3.39-24.96-9.63v0Z"/></svg>