<svg viewBox="0 0 256 201" xmlns="http://www.w3.org/2000/svg"><defs><linearGradient id="a" x1="0%" x2="100%" y1="0%" y2="100%"><stop offset="0%" stop-color="#7D58FF"/><stop offset="100%" stop-color="#FF007D"/></linearGradient></defs><path fill="url(#a)" d="M40.35 17.02l97.43 56.42 82.11-56.43H40.33Zm113.81 65.9l26.589 15.4 37.28-59.3 -63.88 43.88ZM34.32 33.25l48.85 77.69 39.02-26.81 -87.88-50.89Zm161.29 73.67l43.13 24.97V38.31L195.6 106.9ZM17.22 38.32v117.92l51.77-35.58 -51.78-82.35Zm75.05 87.09l35.7 56.77 43.66-69.43 -33.09-19.16 -46.29 31.8Zm35.7 75.08c-5.58 0-10.72-3.09-14.11-8.47v-.01l-35.78-56.89 -54.03 37.12c-5.49 3.76-11.46 4.48-16.37 1.94 -4.92-2.54-7.74-7.78-7.74-14.38V21.12c0-8.25 4.78-15.41 11.76-18.91 2.12-1.34 5.21-2.3 9.69-2.3h0 .01 213.04 .01 0c4.16 0 7.14.86 9.27 2.09 7.19 3.42 12.17 10.7 12.17 19.11v112.88c0 6.46-2.77 11.73-7.59 14.46 -4.83 2.72-10.85 2.41-16.49-.86l-45.41-26.3 -44.43 70.65c-3.39 5.38-8.53 8.47-14.11 8.47Z"/></svg>