<svg viewBox="0 0 512 118" xmlns="http://www.w3.org/2000/svg" xmlns:xlink="http://www.w3.org/1999/xlink"><defs><linearGradient id="a" x1="0%" x2="100%" y1="0%" y2="100%"><stop offset="0%" stop-color="#7D58FF"/><stop offset="100%" stop-color="#FF007D"/></linearGradient><linearGradient id="b" x1="0%" x2="100%" y1="0%" y2="100%" xlink:href="#a"/></defs><path fill="#251C4B" d="M512 64.46v2.42c0 3.25-.67 6.36-1.97 9.23 -1.27 2.79-3.01 5.28-5.15 7.39 -2.15 2.1-4.67 3.78-7.5 4.99 -2.85 1.21-5.91 1.83-9.08 1.83h-5.73c-3.17 0-6.23-.62-9.08-1.84 -2.83-1.21-5.35-2.89-7.49-5 -2.15-2.12-3.88-4.61-5.15-7.41 -1.31-2.87-1.97-5.98-1.97-9.24v-5.42h14.27v5.41c0 1.26.25 2.44.74 3.51 .53 1.14 1.25 2.17 2.15 3.04 .89.87 1.96 1.56 3.15 2.06 1.17.49 2.42.74 3.72.74h5c1.29 0 2.53-.25 3.68-.74 1.18-.51 2.23-1.2 3.13-2.08 .9-.87 1.62-1.9 2.15-3.05 .49-1.07.74-2.25.74-3.52v-2.43c0-2.12-.38-3.83-1.12-5.1 -.82-1.41-1.93-2.63-3.3-3.62 -1.55-1.13-3.32-2.09-5.27-2.88 -2.23-.9-4.51-1.79-6.86-2.69 -2.46-.94-4.88-1.99-7.21-3.12 -2.55-1.24-4.87-2.81-6.89-4.67 -2.13-1.96-3.85-4.37-5.12-7.18 -1.29-2.84-1.95-6.29-1.95-10.26V23.3c0-3.23.61-6.31 1.81-9.16 1.19-2.82 2.85-5.33 4.95-7.45 2.09-2.13 4.57-3.82 7.36-5.03 2.82-1.23 5.86-1.85 9.03-1.85h5.11c3.17 0 6.21.62 9.01 1.84 2.77 1.21 5.24 2.9 7.33 5.02 2.09 2.12 3.75 4.62 4.94 7.44 1.2 2.84 1.81 5.92 1.81 9.15v4.22h-14.29v-4.23c0-1.31-.24-2.52-.71-3.62 -.49-1.14-1.16-2.14-1.98-2.98 -.83-.84-1.81-1.52-2.94-2.01 -1.08-.48-2.28-.72-3.56-.72h-4.45c-1.29 0-2.48.23-3.57.71 -1.13.49-2.13 1.17-2.98 2.02 -.84.83-1.51 1.82-1.99 2.94 -.48 1.09-.71 2.31-.71 3.61v1.52c0 1.9.36 3.46 1.07 4.64 .81 1.34 1.92 2.51 3.28 3.47 1.55 1.09 3.34 2.06 5.33 2.88 2.23.91 4.53 1.85 6.89 2.81 2.45.99 4.87 2.1 7.19 3.28 2.52 1.29 4.83 2.9 6.84 4.8 2.11 1.99 3.83 4.44 5.09 7.27 1.28 2.86 1.93 6.32 1.93 10.28ZM434.65 6.85c2.09 2.12 3.75 4.62 4.94 7.44 1.2 2.84 1.81 5.92 1.81 9.15v43.42c0 3.22-.62 6.3-1.82 9.15 -1.19 2.81-2.86 5.31-4.95 7.44 -2.1 2.12-4.57 3.81-7.34 5.02 -2.8 1.22-5.84 1.84-9.02 1.84h-5.67c-3.18 0-6.22-.62-9.04-1.85 -2.8-1.21-5.28-2.91-7.37-5.03 -2.1-2.13-3.76-4.63-4.95-7.45 -1.21-2.85-1.82-5.93-1.82-9.15V23.4c0-3.23.61-6.31 1.81-9.16 1.18-2.82 2.85-5.33 4.94-7.45 2.09-2.13 4.57-3.82 7.36-5.03 2.82-1.23 5.86-1.85 9.03-1.85h5.66c3.18 0 6.21.62 9.01 1.84 2.77 1.21 5.24 2.9 7.33 5.02Zm-7.53 60.02V23.44c0-1.31-.25-2.52-.71-3.62 -.49-1.14-1.16-2.14-1.98-2.98 -.83-.84-1.81-1.52-2.93-2.01 -1.09-.48-2.29-.72-3.56-.72h-5.01c-1.29 0-2.48.23-3.57.71 -1.13.49-2.14 1.17-2.98 2.02 -.84.83-1.51 1.82-1.99 2.94 -.47 1.09-.71 2.31-.71 3.61v43.42c0 1.29.23 2.51.7 3.6 .48 1.13 1.15 2.14 2 3 .84.85 1.83 1.54 2.95 2.03 1.08.47 2.27.71 3.56.71h5c1.27 0 2.47-.25 3.55-.72 1.1-.49 2.08-1.17 2.91-2.02 .83-.87 1.5-1.89 1.99-3.02 .46-1.1.7-2.32.7-3.62ZM315.37 14.29c1.2 2.84 1.82 5.92 1.82 9.15v4.22H302.9v-4.23c0-1.31-.24-2.52-.71-3.62 -.49-1.14-1.15-2.14-1.98-2.98 -.83-.84-1.82-1.52-2.94-2.01 -1.08-.48-2.28-.72-3.56-.72h-5.01c-1.28 0-2.48.23-3.56.71 -1.13.49-2.14 1.17-2.99 2.02 -.84.83-1.51 1.82-1.98 2.94 -.47 1.09-.71 2.31-.71 3.61V66.8c0 1.29.24 2.51.7 3.6 .48 1.13 1.15 2.14 2 3 .84.85 1.83 1.54 2.95 2.03 1.07.47 2.27.71 3.55.71h5c1.28 0 2.47-.25 3.55-.72 1.11-.49 2.08-1.17 2.91-2.02 .83-.87 1.5-1.89 1.99-3.02 .47-1.1.71-2.32.71-3.62v-5.42h14.28v5.41c0 3.22-.62 6.3-1.83 9.15 -1.19 2.81-2.86 5.31-4.95 7.44 -2.1 2.12-4.57 3.81-7.34 5.02 -2.81 1.22-5.84 1.84-9.02 1.84h-5.67c-3.18 0-6.22-.62-9.04-1.85 -2.8-1.21-5.28-2.91-7.38-5.03 -2.1-2.13-3.76-4.63-4.95-7.45 -1.21-2.85-1.82-5.93-1.82-9.15V23.29c0-3.23.61-6.31 1.81-9.16 1.19-2.82 2.85-5.33 4.94-7.45 2.09-2.13 4.57-3.82 7.37-5.03 2.82-1.23 5.86-1.85 9.03-1.85h5.66c3.18 0 6.21.62 9.01 1.84 2.77 1.21 5.24 2.9 7.33 5.02 2.09 2.12 3.75 4.62 4.94 7.44Zm-74.44-6.32c2.09 2.12 3.75 4.63 4.95 7.47 1.2 2.86 1.81 5.95 1.81 9.17v41.11c0 3.22-.62 6.3-1.83 9.15 -1.19 2.81-2.86 5.31-4.95 7.44 -2.1 2.12-4.58 3.81-7.38 5.02 -2.83 1.22-5.87 1.84-9.04 1.84H195.7V1.07h28.78c3.17-.001 6.21.62 9.03 1.84 2.79 1.21 5.28 2.9 7.37 5.02Zm-7.52 57.76V24.61c0-1.3-.24-2.52-.71-3.62 -.49-1.14-1.16-2.15-2.01-3.01 -.85-.86-1.85-1.55-2.96-2.04 -1.09-.48-2.28-.72-3.56-.72H210V75h14.16c1.28 0 2.47-.24 3.55-.72 1.12-.5 2.12-1.18 2.97-2.03 .83-.84 1.5-1.83 1.97-2.96 .47-1.1.71-2.32.71-3.62Z"/><path fill="url(#a)" d="M364.54 0l-38.27 90.35 11.94 0L376.46-.01Z"/><path fill="url(#b)" d="M23.73 10.01L81.04 43.2l48.3-33.2H23.71Zm66.94 38.77l15.64 9.06 21.93-34.88 -37.58 25.81Zm-70.5-29.22l28.73 45.7 22.95-15.77 -51.7-29.94Zm94.87 43.33l25.37 14.69V22.53l-25.38 40.34ZM10.1 22.54V91.9l30.45-20.93 -30.46-48.44Zm44.14 51.23l21 33.39 25.68-40.85 -19.46-11.27 -27.23 18.71Zm21 44.16c-3.29 0-6.31-1.82-8.3-4.99v-.01L45.89 79.47 14.1 101.3c-3.23 2.21-6.75 2.63-9.63 1.14 -2.9-1.5-4.55-4.58-4.55-8.46V12.4c0-4.85 2.81-9.06 6.91-11.12C8.08.49 9.9-.07 12.53-.08h0 .01 125.32 .01 0c2.45 0 4.2.51 5.45 1.22 4.23 2.01 7.16 6.29 7.16 11.24v66.4c0 3.8-1.63 6.9-4.47 8.5 -2.85 1.6-6.38 1.42-9.7-.51L109.6 71.3l-26.14 41.56c-2 3.16-5.02 4.98-8.3 4.98Z"/></svg>