<svg viewBox="0 0 256 302" xmlns="http://www.w3.org/2000/svg"><path fill="#0062FF" d="M0 274.03c0 16.46 10.68 27.13 27.15 27.13l79.32 0c47.32 0 86.03-16.01 112.35-44.03H-.02v16.88ZM106.48-.01L27.15-.02C10.68-.02-.01 10.65-.01 27.12V44h218.83C192.5 15.98 153.78-.03 106.46-.03Zm69.23 193.5c0 13.31 8.67 21.95 22.06 21.95h47.53c5.38-13.37 9-28.07 10.69-43.92h-58.23c-13.39 0-22.07 8.63-22.07 21.95Zm-65.89-85.72c0 13.31 8.67 21.95 22.06 21.95h124.11c-1.69-15.86-5.31-30.56-10.7-43.92H131.86c-13.39 0-22.07 8.63-22.07 21.95Zm22.04 85.71c0-13.32-8.68-21.96-22.07-21.96H-.02v43.91h109.8c13.38 0 22.06-8.64 22.06-21.96Zm-65.89-85.72c0-13.32-8.68-21.96-22.07-21.96H-.03v43.91h43.92c13.38 0 22.06-8.64 22.06-21.96Z"/></svg>