<svg viewBox="0 0 512 130" xmlns="http://www.w3.org/2000/svg"><path fill="#45AD47" d="M79.85 23.46l0-23.46 -23.46 0 -2.35 2.36 -11.07 21.09 -3.49 2.34 -39.51 0 0 32.21 21.71 0 1.93 2.33 -23.66 45.19 0 23.45 23.45 0 2.34-2.37 11.06-21.1 3.48-2.35 39.5 0 0-32.22 -21.72 0 -1.94-2.36 23.65-45.19"/><path fill="#1F211F" d="M125.69 106.63l6.66-12.73 3.07 12.72h-9.74v0Zm.64-35.64L95.97 129h18.01l4.4-8.45 20.34-.01 2.01 8.44h18.01l-13.89-58.02H126.3Zm60.76 27.12h-7.7V86.37h7.69c4.69 0 6.47 2.34 6.47 5.91 0 3.47-1.79 5.81-6.48 5.81ZM211.2 92c0-13.33-9.02-21.02-21.68-21.02h-27.5V129h17.35v-16.93h4.22l3.44-.01 8.4 16.93h18.01l-10.72-20.48c5.25-3.35 8.43-9.03 8.43-16.54Zm2.56-21.02v15.38h16.39V129h9.88l7.46-14.28V86.35h14.87l8.04-15.39h-56.66ZM310.98-.03h17.33v58.01h-17.34V-.04Zm-147.49.02l-7.8 14.87h4.78c8.54 0 13.94 5.45 13.94 14.09 0 8.53-5.41 13.99-13.95 13.99h-5.41V16.03l-16.78 32.02v9.89h23.33c18.8 0 29.85-11.34 29.85-29.01 0-17.09-10.34-28.25-28.01-28.97Zm32.59 57.98h44.28V42.59h-26.95v-6.27h24.77V21.6H213.4v-6.27h26.94V-.05h-44.29v58.01Zm75.11-22.91L262.78-.05h-18l13.89 58.01h18.51L307.56-.06h-18.02l-18.38 35.1ZM455.29-.06v15.38h16.39v42.64h9.88l7.46-14.28V15.31h14.87l8.04-15.39h-56.66Zm-93.91 35.63l6.65-12.71 3.07 12.7h-9.73Zm.67-35.64l-30.37 58.01h17.98l4.42-8.46 20.32-.01 2.01 8.45 17.99 0L380.51-.1h-18.49Zm72.18 27.48L414.81-.08h-17.1v58.01h17.33V28.46l21.49 29.46h15.02V-.1h-17.34v27.48Z"/></svg>