<svg viewBox="0 0 512 130" xmlns="http://www.w3.org/2000/svg"><path fill="#45AD47" d="M80.13 23.66V.23H56.7l-2.34 2.35 -11.06 21.06 -3.48 2.34H.37v32.16h21.68l1.93 2.33L.36 105.6v23.42h23.42l2.33-2.36 11.05-21.07 3.47-2.35h39.44V71.07H58.38l-1.93-2.36 23.61-45.12"/><path fill="#1F211F" d="M125.89 106.71L132.54 94l3.07 12.7h-9.73v0Zm.64-35.58l-30.32 57.92h17.98l4.39-8.43 20.31-.01 2 8.43h17.98L145 71.11h-18.52Zm60.67 27.08h-7.69V86.49h7.68c4.68 0 6.46 2.34 6.46 5.9 0 3.46-1.78 5.8-6.47 5.8Zm24.08-6.1c0-13.31-9-20.99-21.65-20.99h-27.45v57.93h17.32v-16.9h4.21l3.44-.01 8.38 16.9h17.98l-10.7-20.45c5.24-3.35 8.42-9.01 8.42-16.51Zm2.56-20.99v15.35h16.37v42.57h9.86l7.44-14.26V86.45h14.85l8.02-15.36H213.8ZM310.92.22h17.31v57.92h-17.32V.21ZM163.65.24l-7.78 14.85h4.77c8.52 0 13.92 5.45 13.92 14.07 0 8.52-5.4 13.97-13.93 13.97h-5.4V16.26l-16.75 31.97v9.87h23.3c18.77 0 29.81-11.33 29.81-28.97 0-17.06-10.32-28.21-27.97-28.93Zm32.54 57.89h44.21V42.77h-26.91V36.5h24.73V21.8h-24.74v-6.26h26.9V.18h-44.22V58.1Zm74.99-22.88L262.78.19H244.8l13.87 57.92h18.48L307.49.18h-18l-18.35 35.05ZM455.01.19v15.35h16.37v42.57h9.86l7.44-14.26V15.52h14.85L511.55.16h-56.58Zm-93.77 35.58l6.64-12.7 3.06 12.69h-9.72Zm.67-35.58l-30.33 57.92h17.95l4.41-8.44 20.29-.01 2.01 8.44 17.96 0L380.33.17h-18.46Zm72.07 27.43L414.58.18H397.5V58.1h17.3V28.68l21.46 29.41h14.99V.16h-17.31v27.43Z"/></svg>