<svg viewBox="0 0 256 259" xmlns="http://www.w3.org/2000/svg"><path d="M129.09 0C59 0-.01 56.81-.01 126.92v131.43l129.07-.13c70.08 0 126.92-59.01 126.92-129.1s-56.9-129.15-126.91-129.15Z"/><path fill="#FFF9AE" d="M130.33 49.12c-27.73.01-53.39 14.61-67.58 38.43 -14.19 23.81-14.79 53.34-1.6 77.71l-14.24 45.79 51.12-11.55c29.27 13.18 63.62 7.26 86.78-14.97 23.16-22.24 30.49-56.31 18.52-86.11 -11.98-29.8-40.86-49.32-72.96-49.34h-.08Z"/><path fill="#00AEEF" d="M191.85 176.49c-22.35 28.18-60.98 37.62-93.8 22.91l-51.13 11.69 52.04-6.15c34.49 20.2 78.67 11.31 102.66-20.67 23.99-31.99 20.16-76.89-8.89-104.35 21.81 28.6 21.44 68.36-.91 96.55Z"/><path fill="#00A94F" d="M187.45 161.54c-19.29 30.36-56.71 43.78-90.89 32.58l-49.63 16.97 51.12-11.58c36.4 16.44 79.36 2.98 99.86-31.31s12.05-78.5-19.66-102.8c24.68 26.16 28.46 65.74 9.18 96.11Z"/><path fill="#F15D22" d="M65.87 167.02C51.62 132.67 63.36 93.04 94.02 72c30.65-21.04 71.85-17.75 98.77 7.9 -24.94-32.73-70.87-40.71-105.39-18.33 -34.52 22.38-45.96 67.57-26.26 103.69L46.9 211.05l18.93-44.06Z"/><path fill="#D0232B" d="M61.17 165.28C43.49 132.62 51.05 92.05 79.3 67.96c28.25-24.1 69.51-25.15 98.96-2.54 -28.26-29.75-74.62-32.8-106.52-7 -31.9 25.79-38.62 71.77-15.44 105.62l-9.36 47.03 14.21-45.82Z"/></svg>