<svg viewBox="0 0 512 100" xmlns="http://www.w3.org/2000/svg"><path fill="#5865F2" d="M82 0c9.26 1.6 18.11 4.42 26.4 8.29 14.48 21.63 21.68 46.02 19.02 74.16 -11.09 8.28-21.84 13.31-32.41 16.6 -2.62-3.59-4.94-7.42-6.94-11.43 3.81-1.45 7.47-3.24 10.94-5.33 -.91-.68-1.81-1.39-2.68-2.12 -20.81 9.84-43.69 9.84-64.75 0 -.87.72-1.77 1.43-2.68 2.11 3.45 2.07 7.1 3.86 10.92 5.31 -2.01 4.01-4.33 7.83-6.94 11.42 -10.56-3.29-21.3-8.32-32.39-16.6 -2.27-24.28 2.26-48.9 18.97-74.15 8.28-3.89 17.15-6.72 26.42-8.32 1.14 2.05 2.5 4.82 3.42 7.02 9.66-1.49 19.41-1.49 29.26 0 .91-2.2 2.24-4.97 3.38-7.03Zm253.93 31.68c7.04 0 12.89 1.51 17.54 4.53v13.16c-1.65-1.16-3.56-2.09-5.74-2.81 -2.19-.72-4.52-1.08-7.02-1.08 -4.37 0-7.79.81-10.25 2.44 -2.47 1.63-3.71 3.76-3.71 6.4 0 2.59 1.19 4.7 3.59 6.37 2.39 1.65 5.86 2.48 10.42 2.48 2.34 0 4.66-.35 6.94-1.04 2.27-.7 4.23-1.56 5.87-2.56V72.3c-5.17 3.16-11.16 4.74-17.97 4.74 -5.74-.03-10.63-1.03-14.67-3.05 -4.04-2.02-7.09-4.75-9.12-8.21 -2.04-3.46-3.06-7.35-3.06-11.66 0-4.32 1.05-8.19 3.16-11.59 2.11-3.41 5.21-6.08 9.3-8.02 4.08-1.95 8.96-2.91 14.65-2.91Zm-52.92-.01c3.94 0 7.55.43 10.85 1.29 3.29.86 6 1.96 8.17 3.31v11.29c-2.22-1.35-4.76-2.41-7.66-3.21 -2.89-.8-5.86-1.19-8.92-1.19 -4.42 0-6.63.77-6.63 2.3 0 .71.34 1.25 1.02 1.61 .68.35 1.94.72 3.76 1.12l7.04 1.29c4.6.81 8.03 2.24 10.28 4.27 2.25 2.03 3.38 5.04 3.38 9.03 0 4.36-1.87 7.83-5.6 10.4 -3.74 2.57-9.03 3.85-15.9 3.85 -4.04-.02-7.97-.52-11.77-1.53 -3.81-1.01-7.24-2.47-10.29-4.39V59.16c2.3 1.81 5.39 3.32 9.26 4.5 3.87 1.17 7.62 1.75 11.24 1.75 1.69 0 2.96-.23 3.83-.68 .86-.46 1.29-1 1.29-1.63 0-.72-.24-1.32-.71-1.8 -.48-.49-1.39-.89-2.75-1.23l-8.46-1.95c-4.85-1.16-8.28-2.75-10.32-4.8 -2.05-2.04-3.07-4.71-3.07-8.02 0-2.79.88-5.21 2.67-7.27 1.78-2.07 4.31-3.66 7.6-4.79 3.29-1.14 7.13-1.7 11.55-1.7Zm228.98-7.85v51.81h-17.27V66.2c-1.46 3.54-3.68 6.25-6.66 8.1 -2.99 1.84-6.67 2.76-11.04 2.76 -3.91 0-7.31-.97-10.22-2.91 -2.91-1.95-5.16-4.61-6.74-7.99 -1.58-3.39-2.37-7.21-2.37-11.49 -.05-4.42.78-8.37 2.5-11.88 1.71-3.51 4.13-6.25 7.25-8.21 3.12-1.97 6.68-2.96 10.67-2.96 8.08 0 13.54 3.52 16.4 10.56l.14.37 0-18.79h17.26Zm-126.54 7.83c5.58 0 10.4.95 14.44 2.87 4.03 1.92 7.11 4.55 9.23 7.91 2.11 3.36 3.16 7.21 3.16 11.58 0 4.31-1.06 8.22-3.17 11.72 -2.12 3.5-5.21 6.26-9.28 8.27 -4.07 2.01-8.87 3.02-14.42 3.02 -5.55 0-10.35-1-14.41-3.02 -4.07-2.02-7.17-4.78-9.31-8.28 -2.14-3.51-3.22-7.42-3.22-11.74s1.06-8.18 3.21-11.56c2.14-3.39 5.22-6.04 9.27-7.96 4.03-1.93 8.85-2.88 14.44-2.88Zm-132.36 11.8v32.4h-17.22V43.44c5.27 2.32 11.81 2.42 17.21 0Zm195.12-10.86c2.48 0 4.62.57 6.41 1.72v15.54c-1.8-1.21-4.11-1.8-6.98-1.8 -3.76 0-6.66 1.16-8.67 3.48 -2.03 2.32-3.03 5.94-3.03 10.83V75.6h-17.27V33.5h16.91v13.38c.93-4.9 2.45-8.51 4.54-10.84 2.08-2.33 4.78-3.49 8.06-3.49Zm-248.8-7.35c6.62 0 12.22 1.05 16.81 3.16 4.57 2.1 8.01 5.04 10.28 8.81 2.27 3.76 3.42 8.07 3.42 12.92 0 4.74-1.19 9.05-3.57 12.91 -2.38 3.86-5.99 6.91-10.85 9.17 -4.87 2.25-10.89 3.38-18.08 3.38h-25.51V25.22h27.47ZM42.69 41.31c-6.44 0-11.51 5.91-11.51 13.09s5.18 13.08 11.5 13.08c6.43 0 11.51-5.91 11.5-13.09 .11-7.2-5.08-13.1-11.51-13.1Zm42.51 0c-6.44 0-11.51 5.91-11.51 13.09s5.18 13.08 11.5 13.08c6.43 0 11.5-5.91 11.5-13.09 .11-7.2-5.08-13.1-11.51-13.1Zm300.21 3.57c-3.02 0-5.37.85-7.09 2.55 -1.72 1.7-2.57 3.98-2.57 6.86 0 2.87.85 5.19 2.56 6.93 1.71 1.74 4.07 2.63 7.08 2.63 2.95-.02 5.29-.89 7-2.64s2.57-4.07 2.57-6.94c0-2.88-.86-5.18-2.58-6.87 -1.72-1.71-4.05-2.56-7.01-2.56Zm99.76.21c-2.91 0-5.24.85-6.98 2.55 -1.75 1.7-2.61 3.91-2.61 6.65 0 2.73.86 4.96 2.6 6.69 1.74 1.72 4.03 2.59 6.9 2.59 2.9-.02 5.24-.89 7-2.64 1.76-1.75 2.63-4.02 2.63-6.8 0-2.69-.86-4.88-2.57-6.55 -1.72-1.68-4.06-2.52-7.01-2.52Zm-287.04-7.07h-8.6v24.75h7.59c4.45 0 7.89-1.15 10.28-3.42 2.39-2.29 3.59-5.39 3.59-9.33 0-3.65-1.07-6.56-3.21-8.74 -2.14-2.18-5.37-3.28-9.69-3.28Zm46.32-15.85c4.75 0 8.6 3.53 8.6 7.89 0 4.36-3.86 7.89-8.61 7.89 -4.76 0-8.61-3.54-8.61-7.9 0-4.37 3.85-7.9 8.6-7.9Z"/></svg>