<svg viewBox="0 0 256 249" xmlns="http://www.w3.org/2000/svg"><path fill="#2E9FFF" d="M132.66 248.63c-30.43 0-58.24-11.12-79.75-29.51l-52.93 7.23 20.44-50.47c-7.13-15.72-11.13-33.17-11.13-51.58C9.29 55.64 64.51-.02 132.63-.02c68.11 0 123.33 55.66 123.33 124.31 0 68.66-55.22 124.31-123.34 124.31v0ZM200 123.95v-.35c0-35.88-25.3-61.46-68.92-61.46H83.96v124.31h46.41c43.95 0 69.61-26.65 69.61-62.52v0 0Zm-68.4 31.97h-13.78V92.69h13.77c20.23 0 33.67 11.53 33.67 31.43v.34c0 20.06-13.44 31.43-33.68 31.43v0Z"/></svg>