<svg viewBox="0 0 512 179" xmlns="http://www.w3.org/2000/svg"><path fill="#092E20" d="M386.89 41.42c12 0 23.09 1.27 36.54 3.99l-9.59 20.19c-7.46-1.46-.6-.2-6.24-.75v2.91l.36 11.81 .18 15.27c.18 3.81.18 7.63.36 11.45v7.63 0c0 24-2 35.27-8 44.54 -8.73 13.63-23.82 20.36-45.28 20.36 -10.91 0-20.37-1.64-30.19-5.46v-25.82h0c9.81 5.09 19.63 7.45 30 7.45 18.36 0 26.18-7.46 26.18-25.28v-.55 0c-5.46 2.72-10.91 3.81-18.19 3.81 -24.55 0-40.19-16.19-40.19-41.82 0-31.83 23.09-49.82 64-49.82ZM132.9 43.23v64.9c0 22.36-1.64 33.09-6.55 42.36 -4.55 8.91-10.55 14.54-22.92 20.72l-26.01-12.37c12.36-5.82 18.36-10.91 22.18-18.73 4-8 5.27-17.28 5.27-41.64V43.19h27.99Zm333.99-2.37c27.99 0 45.09 17.63 45.09 46.18 0 29.27-17.82 47.63-46.19 47.63 -28.01 0-45.28-17.64-45.28-46.01 0-29.46 17.82-47.83 46.36-47.83Zm-280 .36c14.36 0 23.81 3.81 28 11.27 2.36 4.18 3.08 9.63 3.08 21.27v56.9c-12.55 1.81-28.37 3.09-40.01 3.09 -23.46 0-34.01-8.19-34.01-26.37 0-19.64 14-28.73 48.36-31.64v-6.19c0-5.1-2.55-6.91-9.64-6.91 -10.37 0-22 2.9-32.92 8.54V49.54h0c12.36-5.82 24.18-8.37 37.09-8.37ZM88.34-.03v129.6c-14.37 2.72-24.92 3.81-36.37 3.81 -34.19 0-52.01-15.46-52.01-45.1 0-28.55 18.91-47.1 48.18-47.1 4.54 0 7.99.36 12.18 1.45V-.07h28Zm187.27 41.24c14.36 0 24.72 3.27 30.91 9.63 5.81 5.99 7.63 12.54 7.63 26.54v54.9h-28.01V78.46c0-10.73-3.64-14.73-13.64-14.73 -3.82 0-7.28.36-12.92 1.99v66.54h-28V47.53c16.54-4.37 30.18-6.37 43.99-6.37Zm-82.01 52.9c-18.55 1.81-24.55 4.72-24.55 12 0 5.45 3.45 7.99 11.09 7.99 4.18 0 7.99-.37 13.45-1.28V94.09Zm272.9-30.73c-11.1 0-17.46 8.91-17.46 24.36s6.36 24.36 17.27 24.36c10.72 0 17.09-8.91 17.09-24.37 0-15.28-6.19-24.37-16.91-24.37Zm-415.64.36c-14.19 0-22.37 8.72-22.37 23.99 0 14.91 7.81 23.09 22.18 23.09 3.08 0 5.63-.19 9.63-.73V65.17c-3.28-1.09-6-1.46-9.46-1.46Zm310.71 4.18c-6.73 3.81-10.19 10.72-10.19 20.54 0 14 6.91 22 19.27 22 3.81 0 6.9-.73 10.54-1.82V99c0-3.28-.19-6.92-.19-10.73l-.19-12.91 -.19-9.28v-2.19h-2.92c-5.46-.19-11.82 1.27-16.19 3.99ZM132.85.1v28.72h-28V.09h27.99Z"/></svg>