<svg viewBox="0 0 512 131" xmlns="http://www.w3.org/2000/svg"><path fill="#2396ED" d="M140.59 25.71l3.89 2.81c6.76 5.46 10.66 11.62 11.5 18.67 7.27-1.41 16.58-.36 20.64 2.46v0l3.72 2.28 -.68 1.4c-1.19 2.64-1.53 3.34-1.7 3.69 -6.6 13.2-19.64 13.38-25.73 13.2 -15.4 38.57-48.24 59.88-92.57 59.88 -20.48 0-36.05-6.52-46.54-19.38C-.76 93.81-.76 71.79.42 64.74v0l.33-1.41H123.1c6.43 0 11.33-1.77 13.7-3.18 -2.54-3.88-3.39-8.28-3.56-10.75 -.51-7.05 1.18-14.45 4.56-19.73v0l2.7-4.06Zm106.01 8.17c1.36 0 2.52.45 3.46 1.37 .94.91 1.41 2.07 1.41 3.46v43.56c0 7.26-2.55 13.4-7.64 18.43 -5.16 5.08-11.3 7.63-18.44 7.63 -7.2 0-13.35-2.55-18.44-7.64 -5.09-5.09-7.64-11.24-7.64-18.44 0-7.2 2.54-13.35 7.63-18.44 5.08-5.09 11.23-7.64 18.43-7.64 6.17 0 11.61 1.9 16.33 5.72V38.66c0-1.4.45-2.56 1.37-3.47 .91-.92 2.07-1.38 3.46-1.38Zm36.49 22.33c7.13 0 13.27 2.54 18.43 7.63 2.54 2.54 4.44 5.35 5.7 8.42 1.25 3.07 1.9 6.4 1.93 10 0 7.26-2.55 13.4-7.64 18.43 -5.16 5.08-11.3 7.63-18.44 7.63 -7.2 0-13.35-2.55-18.44-7.64 -5.09-5.09-7.64-11.24-7.64-18.44 0-7.2 2.54-13.35 7.63-18.44 5.08-5.09 11.23-7.64 18.43-7.64Zm57.57 0c6.54 0 12.2 2.1 16.98 6.32 1.11.99 1.67 2.21 1.67 3.67 0 1.39-.46 2.55-1.38 3.49 -.92.93-2.08 1.39-3.47 1.39 -1.18 0-2.24-.38-3.17-1.12 -1.59-1.34-3.25-2.35-4.98-3.03 -1.74-.69-3.64-1.03-5.68-1.03 -2.27 0-4.4.42-6.38 1.27 -1.99.85-3.73 2.01-5.22 3.49 -1.49 1.47-2.67 3.2-3.52 5.18 -.86 1.98-1.28 4.11-1.28 6.37s.42 4.39 1.27 6.37c.85 1.98 2.02 3.71 3.51 5.18 1.48 1.47 3.22 2.63 5.21 3.49 1.98.85 4.11 1.27 6.37 1.27 2.04 0 3.94-.34 5.67-1.01 1.73-.67 3.38-1.67 4.93-3.01 .86-.66 1.89-1 3.07-1.03 1.39 0 2.55.45 3.46 1.37 .91.91 1.37 2.07 1.37 3.46 0 1.36-.52 2.55-1.54 3.58 -4.81 4.21-10.48 6.32-16.99 6.32 -7.2 0-13.35-2.55-18.44-7.64 -5.09-5.09-7.64-11.24-7.64-18.44 0-7.2 2.54-13.35 7.63-18.44 5.08-5.09 11.23-7.64 18.43-7.64Zm29.04-22.34c1.33 0 2.47.47 3.42 1.41 .94.94 1.41 2.1 1.41 3.46v36.3l27.83-18.11c.77-.5 1.64-.75 2.6-.75 .68 0 1.31.12 1.9.37 .58.24 1.1.59 1.53 1.04 .43.44.78.96 1.04 1.55 .26.58.39 1.21.39 1.86 0 1.73-.63 3.02-1.87 3.86l-19.51 12.65 20.01 22.52c.89.99 1.34 2.12 1.34 3.39 0 .65-.14 1.27-.4 1.86 -.27.58-.62 1.1-1.05 1.55 -.44.44-.95.79-1.54 1.04 -.59.24-1.23.37-1.91.37 -1.31 0-2.39-.42-3.26-1.26l-21.51-24.16 -5.68 3.72v16.8c0 1.33-.48 2.48-1.42 3.44 -.95.96-2.09 1.44-3.43 1.44 -1.37 0-2.53-.49-3.47-1.45 -.95-.97-1.42-2.11-1.42-3.45v-64.7c0-1.37.47-2.53 1.41-3.47 .94-.95 2.1-1.42 3.46-1.42Zm71.48 22.33c7.13 0 13.27 2.54 18.43 7.63 2.54 2.51 4.45 5.31 5.72 8.4 1.27 3.08 1.9 6.43 1.9 10.02 0 1.39-.48 2.55-1.42 3.46 -.95.91-2.11 1.37-3.47 1.37h-36.87c.52 1.7 1.3 3.26 2.32 4.67 1.02 1.41 2.22 2.62 3.6 3.63 1.38 1 2.9 1.79 4.56 2.35 1.65.55 3.38.83 5.18.83 2.04 0 3.92-.32 5.63-.94 1.7-.63 3.28-1.56 4.74-2.8 .93-.78 2-1.18 3.21-1.22 1.39 0 2.55.45 3.46 1.37 .91.91 1.37 2.07 1.37 3.46 0 1.36-.47 2.52-1.4 3.49 -4.81 4.21-10.49 6.32-17.04 6.32 -7.2 0-13.35-2.55-18.44-7.64 -5.09-5.09-7.64-11.24-7.64-18.44 0-7.2 2.54-13.35 7.63-18.44 5.08-5.09 11.23-7.64 18.43-7.64Zm57.48 0c1.36 0 2.83.09 4.39.27 1.56.18 3 .51 4.32 1 1.31.48 2.41 1.14 3.28 1.97 .86.83 1.3 1.92 1.3 3.25 0 .68-.14 1.31-.4 1.9 -.27.58-.62 1.1-1.05 1.55 -.44.44-.95.79-1.54 1.04 -.59.24-1.23.37-1.91.37 -.59 0-1.28-.18-2.05-.52 -1.96-.78-4.09-1.17-6.38-1.17 -2.27 0-4.4.42-6.38 1.27 -1.99.85-3.72 2.01-5.19 3.49 -1.48 1.47-2.64 3.2-3.5 5.18 -.86 1.98-1.28 4.11-1.28 6.37v21.22c0 1.33-.48 2.47-1.42 3.42 -.95.94-2.09 1.41-3.43 1.41 -1.37 0-2.53-.48-3.47-1.42 -.95-.95-1.42-2.09-1.42-3.43V60.92c0-1.34.47-2.48 1.41-3.43 .94-.95 2.1-1.42 3.46-1.42 1.33 0 2.47.47 3.42 1.41 .94.94 1.41 2.08 1.41 3.42v.93c2.32-1.87 4.85-3.29 7.58-4.29 2.73-1 5.64-1.49 8.74-1.49ZM225.4 65.92c-2.3 0-4.44.43-6.43 1.3 -1.99.86-3.71 2.04-5.17 3.51 -1.46 1.47-2.62 3.2-3.47 5.18 -.86 1.98-1.28 4.09-1.28 6.32 0 2.23.42 4.34 1.27 6.32 .85 1.98 2 3.71 3.46 5.18 1.45 1.47 3.18 2.64 5.16 3.51 1.98.86 4.12 1.3 6.42 1.3 2.26 0 4.39-.44 6.37-1.31 1.98-.87 3.71-2.05 5.18-3.54 1.47-1.49 2.63-3.22 3.49-5.19 .85-1.98 1.27-4.08 1.27-6.31 0-2.24-.43-4.34-1.28-6.31 -.86-1.98-2.02-3.71-3.5-5.19 -1.48-1.49-3.21-2.67-5.19-3.54 -1.99-.87-4.12-1.31-6.38-1.31Zm57.66 0c-2.3 0-4.44.43-6.43 1.3 -1.99.86-3.71 2.04-5.17 3.51 -1.46 1.47-2.62 3.2-3.47 5.18 -.86 1.98-1.28 4.09-1.28 6.32 0 2.23.42 4.34 1.27 6.32 .85 1.98 2 3.71 3.46 5.18 1.45 1.47 3.18 2.64 5.16 3.51 1.98.86 4.12 1.3 6.42 1.3 2.26 0 4.39-.44 6.37-1.31 1.98-.87 3.71-2.05 5.18-3.54 1.47-1.49 2.63-3.22 3.49-5.19 .85-1.98 1.27-4.08 1.27-6.31 0-2.24-.43-4.34-1.28-6.31 -.86-1.98-2.02-3.71-3.5-5.19 -1.48-1.49-3.21-2.67-5.19-3.54 -1.99-.87-4.12-1.31-6.38-1.31Zm158.1 0c-1.77 0-3.5.27-5.17.83 -1.68.55-3.22 1.34-4.61 2.35 -1.4 1-2.61 2.21-3.64 3.63 -1.03 1.41-1.79 2.97-2.29 4.67h31.36c-.53-1.71-1.32-3.27-2.36-4.68 -1.04-1.42-2.25-2.63-3.64-3.64 -1.39-1.01-2.91-1.8-4.57-2.36 -1.66-.56-3.38-.84-5.15-.84ZM32.58 42.23v17.61H13.96V42.22h18.61Zm21.99 0v17.61H35.95V42.22h18.61Zm21.99 0v17.61H57.94V42.22h18.61Zm21.99 0v17.61H79.93V42.22h18.61Zm21.99 0v17.61h-18.62V42.22h18.61Zm-22-21.14V38.7H79.92V21.08h18.61Zm-22 0V38.7H57.92V21.08h18.61Zm-22 0V38.7H35.92V21.08h18.61ZM98.53-.05v17.61H79.91V-.06h18.61Z"/></svg>