<svg viewBox="0 0 256 218" xmlns="http://www.w3.org/2000/svg"><path fill="#FFF" d="M126.03 45.94H236.3v44.63H126.02Z"/><g fill="#3ECC5F"><path d="M26.25 191.67c-9.72 0-18.18-5.29-22.72-13.13 -2.24 3.86-3.55 8.34-3.55 13.12 0 14.5 11.75 26.25 26.25 26.25h26.25v-26.26H26.22Z"/><path d="M144.38 53l91.92-5.75V34.12c0-14.51-11.76-26.26-26.26-26.26H91.88l-3.29-5.69c-1.46-2.53-5.11-2.53-6.57-.001l-3.29 5.68 -3.29-5.69c-1.46-2.53-5.11-2.53-6.57-.001l-3.29 5.68 -3.29-5.69c-1.46-2.53-5.11-2.53-6.57-.001l-3.29 5.68c-.03 0-.06 0-.09 0L46.9 2.38c-2.07-2.07-5.59-1.12-6.34 1.69l-1.8 6.7 -6.82-1.83c-2.82-.76-5.4 1.82-4.65 4.64l1.82 6.81 -6.7 1.79c-2.82.75-3.77 4.27-1.71 6.34l5.43 5.43c0 .02-.01.05-.01.08l-5.69 3.28c-2.53 1.45-2.53 5.1 0 6.56l5.68 3.28 -5.69 3.28c-2.53 1.45-2.53 5.1 0 6.56l5.68 3.28 -5.69 3.28c-2.53 1.45-2.53 5.1 0 6.56l5.68 3.28 -5.69 3.28c-2.53 1.45-2.53 5.1 0 6.56l5.68 3.28 -5.69 3.28c-2.53 1.45-2.53 5.1 0 6.56l5.68 3.28 -5.69 3.28c-2.53 1.45-2.53 5.1 0 6.56l5.68 3.28 -5.69 3.28c-2.53 1.45-2.53 5.1 0 6.56l5.68 3.28 -5.69 3.28c-2.53 1.45-2.53 5.1 0 6.56l5.68 3.28 -5.69 3.28c-2.53 1.45-2.53 5.1 0 6.56l5.68 3.28 -5.69 3.28c-2.53 1.45-2.53 5.1 0 6.56l5.68 3.28 -5.69 3.28c-2.53 1.45-2.53 5.1 0 6.56l5.68 3.28 -5.69 3.28c-2.53 1.45-2.53 5.1 0 6.56l5.68 3.28c0 14.5 11.75 26.25 26.25 26.25h157.53c14.5 0 26.25-11.76 26.25-26.26V86.43l-91.93-5.75c-7.37-.47-13.11-6.57-13.11-13.95 0-7.38 5.73-13.49 13.1-13.95"/><path d="M183.79 217.92l39.38 0 0-52.52 -39.39 0Z"/></g><path fill="#44D860" d="M249.43 185.1c-.29 0-.57.04-.84.08 -.05-.2-.1-.4-.16-.6 2.37-.99 4.03-3.33 4.03-6.06 0-3.63-2.94-6.57-6.57-6.57 -1.5 0-2.86.51-3.96 1.36 -.15-.15-.3-.3-.44-.45 .82-1.1 1.32-2.45 1.32-3.93 0-3.63-2.94-6.57-6.57-6.57 -2.72 0-5.04 1.64-6.04 3.99 -.2-.06-.39-.11-.59-.16 .03-.28.08-.56.08-.84 0-3.63-2.94-6.57-6.57-6.57 -3.63 0-6.57 2.93-6.57 6.56 0 .28.04.56.08.83 -.2.04-.39.09-.59.15 -1.01-2.35-3.33-4-6.04-4 -3.63 0-6.57 2.93-6.57 6.56 0 1.47.5 2.82 1.32 3.92 -4.88 4.76-7.92 11.41-7.92 18.77 0 14.5 11.75 26.25 26.25 26.25 12.26 0 22.52-8.42 25.41-19.78 .27.03.55.08.83.08 3.62 0 6.56-2.94 6.56-6.57 0-3.63-2.94-6.57-6.57-6.57"/><path fill="#3ECC5F" d="M196.92 139.15l39.38 0 0-26.26 -39.39 0Z"/><path fill="#44D860" d="M249.43 129.31c1.81 0 3.28-1.47 3.28-3.29s-1.47-3.29-3.29-3.29c-.15 0-.29.02-.42.04 -.03-.1-.05-.2-.08-.3 1.18-.5 2.01-1.67 2.01-3.03 0-1.82-1.47-3.29-3.29-3.29 -.75 0-1.43.25-1.98.68 -.08-.08-.15-.15-.23-.23 .41-.55.66-1.23.66-1.97 0-1.82-1.47-3.29-3.29-3.29 -1.36 0-2.52.82-3.02 1.99 -1.13-.32-2.31-.5-3.54-.5 -7.25 0-13.13 5.87-13.13 13.12 0 7.24 5.87 13.12 13.12 13.12 1.22 0 2.4-.19 3.53-.5 .5 1.17 1.66 1.99 3.01 1.99 1.81 0 3.28-1.48 3.28-3.29 0-.74-.26-1.42-.67-1.97 .07-.08.14-.15.22-.23 .55.42 1.23.68 1.97.68 1.81 0 3.28-1.47 3.28-3.29 0-1.37-.84-2.54-2.02-3.03 .02-.1.04-.2.07-.3 .13.01.27.04.41.04"/><path d="M78.76 50.54c-1.82 0-3.29-1.47-3.29-3.29 0-5.43-4.42-9.85-9.85-9.85s-9.85 4.41-9.85 9.84c0 1.81-1.47 3.28-3.29 3.28s-3.29-1.47-3.29-3.29c0-9.05 7.36-16.42 16.41-16.42 9.04 0 16.41 7.36 16.41 16.41 0 1.81-1.47 3.28-3.29 3.28"/><path fill="#FFFF50" d="M131.28 217.92h78.76c14.5 0 26.25-11.76 26.25-26.26v-91.9h-78.77c-14.51 0-26.26 11.75-26.26 26.25v91.89Z"/><g><path d="M216.64 140.47h-65.7c-.73 0-1.32-.59-1.32-1.32 0-.73.58-1.32 1.31-1.32h65.69c.72 0 1.31.58 1.31 1.31 0 .72-.59 1.31-1.32 1.31"/><path d="M216.64 166.72h-65.7c-.73 0-1.32-.59-1.32-1.32 0-.73.58-1.32 1.31-1.32h65.69c.72 0 1.31.58 1.31 1.31 0 .72-.59 1.31-1.32 1.31"/><path d="M216.64 192.98h-65.7c-.73 0-1.32-.59-1.32-1.32 0-.73.58-1.32 1.31-1.32h65.69c.72 0 1.31.58 1.31 1.31 0 .72-.59 1.31-1.32 1.31"/><path d="M216.64 127.58h-65.7c-.73 0-1.32-.59-1.32-1.32 0-.73.58-1.32 1.31-1.32h65.69c.72 0 1.31.58 1.31 1.31 0 .72-.59 1.31-1.32 1.31"/><path d="M216.64 153.6h-65.7c-.73 0-1.32-.59-1.32-1.32 0-.73.58-1.32 1.31-1.32h65.69c.72 0 1.31.58 1.31 1.31 0 .72-.59 1.31-1.32 1.31"/><path d="M216.64 179.85h-65.7c-.73 0-1.32-.59-1.32-1.32 0-.73.58-1.32 1.31-1.32h65.69c.72 0 1.31.58 1.31 1.31 0 .72-.59 1.31-1.32 1.31"/><path d="M236.3 58.56c-.02 0-.03-.01-.05-.01 -4.06.13-5.98 4.19-7.67 7.77 -1.77 3.74-3.14 6.17-5.38 6.1 -2.48-.09-3.9-2.9-5.4-5.86 -1.73-3.41-3.7-7.27-7.83-7.13 -4 .13-5.93 3.66-7.63 6.78 -1.81 3.31-3.04 5.33-5.42 5.24 -2.53-.1-3.88-2.37-5.43-5.01 -1.74-2.94-3.74-6.24-7.8-6.13 -3.94.13-5.87 3.13-7.57 5.77 -1.81 2.79-3.07 4.5-5.47 4.39 -2.6-.1-3.93-1.99-5.48-4.18 -1.74-2.46-3.7-5.25-7.74-5.11 -3.85.13-5.78 2.58-7.48 4.74 -1.62 2.05-2.89 3.67-5.56 3.57 -.73-.03-1.34.53-1.36 1.26 -.03.72.53 1.33 1.26 1.36 3.96.13 5.96-2.37 7.7-4.58 1.54-1.97 2.87-3.66 5.5-3.75 2.52-.11 3.71 1.46 5.5 3.99 1.7 2.4 3.63 5.13 7.52 5.27 4.07.13 6.03-2.91 7.76-5.61 1.55-2.41 2.89-4.49 5.44-4.58 2.35-.09 3.63 1.77 5.44 4.83 1.7 2.88 3.63 6.15 7.59 6.29 4.1.14 6.08-3.45 7.8-6.62 1.49-2.75 2.9-5.34 5.4-5.42 2.35-.06 3.58 2.09 5.39 5.68 1.69 3.35 3.61 7.14 7.64 7.29 .07 0 .14 0 .22 0 4.02 0 5.93-4.04 7.62-7.61 1.49-3.17 2.91-6.15 5.33-6.27v-2.63Z"/></g><path fill="#3ECC5F" d="M105.02 217.92l52.51 0 0-52.52 -52.52 0Z"/><path fill="#44D860" d="M183.79 185.1c-.29 0-.57.04-.84.08 -.05-.2-.1-.4-.16-.6 2.37-.99 4.03-3.33 4.03-6.06 0-3.63-2.94-6.57-6.57-6.57 -1.5 0-2.86.51-3.96 1.36 -.15-.15-.3-.3-.44-.45 .82-1.1 1.32-2.45 1.32-3.93 0-3.63-2.94-6.57-6.57-6.57 -2.72 0-5.04 1.64-6.04 3.99 -.2-.06-.39-.11-.59-.16 .03-.28.08-.56.08-.84 0-3.63-2.94-6.57-6.57-6.57 -3.63 0-6.57 2.93-6.57 6.56 0 .28.04.56.08.83 -.2.04-.39.09-.59.15 -1.01-2.35-3.33-4-6.04-4 -3.63 0-6.57 2.93-6.57 6.56 0 1.47.5 2.82 1.32 3.92 -4.88 4.76-7.92 11.41-7.92 18.77 0 14.5 11.75 26.25 26.25 26.25 12.26 0 22.52-8.42 25.41-19.78 .27.03.55.08.83.08 3.62 0 6.56-2.94 6.56-6.57 0-3.63-2.94-6.57-6.57-6.57"/><path fill="#3ECC5F" d="M105.02 139.15l52.51 0 0-26.26 -52.52 0Z"/><path fill="#44D860" d="M170.66 129.31c1.81 0 3.28-1.47 3.28-3.29s-1.47-3.29-3.29-3.29c-.15 0-.29.02-.42.04 -.03-.1-.05-.2-.08-.3 1.18-.5 2.01-1.67 2.01-3.03 0-1.82-1.47-3.29-3.29-3.29 -.75 0-1.43.25-1.98.68 -.08-.08-.15-.15-.23-.23 .41-.55.66-1.23.66-1.97 0-1.82-1.47-3.29-3.29-3.29 -1.36 0-2.52.82-3.02 1.99 -1.13-.32-2.31-.5-3.54-.5 -7.25 0-13.13 5.87-13.13 13.12 0 7.24 5.87 13.12 13.12 13.12 1.22 0 2.4-.19 3.53-.5 .5 1.17 1.66 1.99 3.01 1.99 1.81 0 3.28-1.48 3.28-3.29 0-.74-.26-1.42-.67-1.97 .07-.08.14-.15.22-.23 .55.42 1.23.68 1.97.68 1.81 0 3.28-1.47 3.28-3.29 0-1.37-.84-2.54-2.02-3.03 .02-.1.04-.2.07-.3 .13.01.27.04.41.04"/><g><path d="M183.79 32.49c-.22 0-.44-.03-.65-.07 -.22-.04-.43-.11-.62-.19 -.2-.08-.39-.19-.57-.31 -.18-.12-.35-.27-.5-.41 -.15-.16-.29-.32-.41-.5 -.12-.19-.23-.37-.31-.57 -.08-.2-.15-.41-.19-.62 -.04-.22-.07-.44-.07-.65 0-.22.02-.44.06-.65 .03-.22.1-.41.18-.62 .08-.2.18-.39.3-.57 .11-.18.26-.35.4-.5 .15-.15.32-.29.49-.41 .18-.12.36-.23.56-.31 .19-.08.4-.15.61-.19 .42-.1.85-.1 1.28 0 .2.03.42.1.61.18 .19.07.38.18.56.3 .17.11.34.26.49.4 .14.15.28.32.4.49 .11.18.22.36.3.56 .07.21.14.4.18.61 .03.21.06.43.06.64 0 .86-.36 1.71-.96 2.32 -.16.14-.33.28-.5.4 -.19.11-.37.22-.57.3 -.2.07-.41.14-.62.18 -.22.03-.44.06-.65.06"/><path d="M210.05 30.85c-.87 0-1.71-.36-2.33-.96 -.15-.16-.29-.33-.41-.5 -.12-.19-.23-.37-.31-.57 -.08-.2-.15-.41-.19-.62 -.04-.22-.07-.44-.07-.65 0-.87.35-1.71.95-2.33 .15-.15.32-.29.49-.41 .18-.12.36-.23.56-.31 .19-.08.4-.15.61-.19 .42-.1.86-.1 1.28 0 .2.03.42.1.61.18 .19.07.38.18.56.3 .17.11.34.26.49.4 .6.61.95 1.45.95 2.32 0 .21-.03.43-.07.64 -.04.21-.11.42-.19.61 -.1.19-.19.38-.31.56 -.12.17-.27.34-.41.49 -.16.14-.33.28-.5.4 -.19.11-.37.22-.57.3 -.2.07-.41.14-.62.18 -.22.03-.44.06-.65.06"/></g></svg>