<svg viewBox="0 0 256 256" xmlns="http://www.w3.org/2000/svg"><path fill="#512BD4" d="M0 0h256v256H0Z"/><path fill="#FFF" d="M45.62 163.55c-1.82 0-3.35-.61-4.62-1.81 -1.27-1.24-1.91-2.71-1.91-4.41 0-1.74.63-3.22 1.9-4.46 1.26-1.24 2.8-1.86 4.61-1.86 1.84 0 3.39.61 4.66 1.85 1.29 1.23 1.94 2.72 1.94 4.45 0 1.7-.65 3.17-1.95 4.4 -1.27 1.2-2.83 1.8-4.67 1.8Zm72.36-1.03h-11.77l-31-48.91c-.79-1.24-1.44-2.53-1.95-3.86h-.28l.04.3v0l.04.34v0l.04.39v0l.03.43v0l.04.73v0l.04.83v0l.03.93v0l.02 1.02v0l.02 1.12v0l0 .8v0l.01 2.19v0 43.61H62.88V95.9h12.53l29.95 47.74 .74 1.16v0l.47.76v0l.4.67v0l.34.58v0l.18.33v0l.15.29v0l.12.25v0h.18l-.04-.21v0l-.07-.46v0l-.06-.5v0l-.06-.54c-.01-.1-.02-.19-.03-.29l-.05-.61v0l-.05-.65v0l-.04-.69v0l-.05-1.12v0l-.04-1.22v0l-.02-1.31v0l-.01-1.41v0V95.79h10.36v66.53Zm50.68 0h-36.43V95.98h34.98v9.37H143v18.83h22.3v9.32h-22.31v19.67h25.65v9.32Zm51.77-57.17h-18.65v57.16H191v-57.17h-18.6v-9.38h48.01v9.37Z"/></svg>