<svg viewBox="0 0 512 183" xmlns="http://www.w3.org/2000/svg"><path d="M455.31 36.57c16.45 0 30.47 5.48 40.83 15.23s15.84 23.77 15.84 40.22c0 17.06-5.49 30.47-15.85 40.22 -10.37 9.75-24.39 15.23-41.45 15.23 -17.07 0-29.26-5.49-40.23-17.68v53.02h-19.51V38.96h19.5V54.8c9.75-11.59 22.55-18.29 40.83-18.29ZM248.68-.01v143.23h-19.51v-15.85c-10.37 12.8-24.39 18.89-40.84 18.89 -16.46 0-31.09-5.49-40.84-15.24 -9.76-9.76-15.85-23.78-15.85-40.23 0-17.07 5.48-30.48 15.84-40.23 10.36-9.76 24.38-15.24 40.83-15.24 17.67 0 29.86 5.48 40.83 17.67V-.04h19.5Zm87.77 36.57v17.67h-46.94v92.03h-18.9V36.54h65.82Zm34.74 1.21v108.49H352.9V37.76h18.28ZM16.44 88.36v1.82c-.001 24.38 20.11 39 38.4 39 18.28 0 38.4-14.63 38.4-39.01v0 -1.83h16.45v0 1.82c0 33.52-27.43 55.46-54.86 55.46s-54.86-21.95-54.86-55.47v0 -1.83h16.45v0Zm436.41-34.14c-23.78 0-38.4 14.01-38.4 37.79 0 23.77 14.62 38.4 38.4 38.4 24.38 0 39-14.02 39-38.4 0-23.78-14.63-37.8-39.01-37.8Zm-262.71-1.83c-23.78 0-38.4 14.01-38.4 38.4 0 23.77 14.62 37.79 38.4 37.79 24.38 0 39-14.02 39-37.8 0-23.78-14.63-38.4-39.01-38.4Zm-168.23-.61c6.05 0 10.97 4.91 10.97 10.97 0 6.05-4.92 10.97-10.98 10.97 -6.06 0-10.98-4.92-10.98-10.98 0-6.06 4.91-10.98 10.97-10.98Zm32.91 0c6.05 0 10.97 4.91 10.97 10.97 0 6.05-4.92 10.97-10.98 10.97 -6.06 0-10.98-4.92-10.98-10.98 0-6.06 4.91-10.98 10.97-10.98Zm32.91 0c6.05 0 10.97 4.91 10.97 10.97 0 6.05-4.92 10.97-10.98 10.97 -6.06 0-10.98-4.92-10.98-10.98 0-6.06 4.91-10.98 10.97-10.98ZM54.81-.03C67 10.94 77.36 23.74 87.11 36.54v0H66.38L54.79 20.69 43.2 36.53H22.47c9.75-12.8 20.11-25.6 32.3-36.58Zm312.68 1.82c3.65 1.82 5.48 5.48 5.48 9.75 0 4.26-1.83 8.53-5.49 10.36 -3.66 2.43-7.32 2.43-10.98 0 -3.66-1.83-5.49-6.1-5.49-10.37s1.82-7.93 5.48-9.76c3.65-2.44 7.31-2.44 10.97-.001Z"/></svg>