<svg viewBox="0 0 256 217" xmlns="http://www.w3.org/2000/svg"><defs><radialGradient id="a" fr="0%" fx="49.989%" fy="50%" cx="49.989%" cy="50%" r="55.43%" gradientTransform="translate(.499899.5)"><stop offset="0%" stop-color="#5E464D"/><stop offset="100%" stop-color="#5E464D"/></radialGradient></defs><path fill="url(#a)" d="M252.19 121.24c0-64.26-60.22-116.66-124.47-116.66 -64.26 0-124.5 52.57-124.5 116.82 0 .16-3.24 59.11-3.24 59.11 .67 18.98 64.12 36 127.96 36 64.26 0 128.03-17.03 128.03-36.01 -.06 0-3.81-58.63-3.81-59.29Z"/><path fill="#FFF" d="M58.67 132.26c-.41-7.07-1.34-14.1-2.79-21.03 -1.37-6.66-3.19-13.21-5.46-19.61 -1.17-3.13-2.33-6.21-3.68-9.17 -1.35-2.97-4.79-11.79-5.31-13.26 -.52-1.48-1.18-2.91-1.85-4.32 -1.3-2.83-2.74-5.59-4.32-8.27l-.22-.38c-2.31-4.04-1.9-9.07 1.01-12.69 2.91-3.62 7.74-5.09 12.17-3.71l1.29.41 1.15.38 2.31.73c1.46.54 2.89 1.08 4.31 1.65 2.82 1.15 5.61 2.37 8.35 3.66 5.47 2.58 10.81 5.44 15.99 8.58 10.44 6.3 20.12 13.79 28.85 22.3 8.19 8 15.34 17 21.28 26.79 .46.76-.6 1.66-.56.53 .36-9.7-.39-19.4-2.23-28.93 -2.07-10.58-5.61-20.81-10.53-30.4 -4.98-9.62-11.21-18.53-18.54-26.49l-.16-.16c-3.21-3.52-3.88-8.66-1.68-12.88 2.2-4.22 6.8-6.62 11.51-6l.96.12 .78.11 1.51.25c.98.16 1.95.34 2.9.55 1.9.38 3.77.82 5.62 1.29 3.71.94 7.34 2.03 10.92 3.24 21.48 7.3 41.21 19.02 57.9 34.4 11.06 10.24 20.66 21.95 28.55 34.8 1.04 1.71 2.07 3.44 3.06 5.19 .03.06-.01.21-.02.01 -.18-3.64-.69-7.26-1.54-10.82 -1-3.95-2.38-7.79-4.13-11.46 -1.83-3.81-4-7.45-6.47-10.87 -2.6-3.54-5.44-6.89-8.52-10.02 -3.18-3.2-6.52-6.22-10.02-9.06 4.29 1.61 8.46 3.52 12.49 5.71 4.14 2.21 8.1 4.77 11.82 7.64 3.84 2.96 7.38 6.29 10.56 9.95 3.29 3.76 6.17 7.88 8.57 12.27 4.91 9.12 7.85 19.18 8.61 29.52 .25 2.58.25 5.17 0 7.75 -.34 2.57-.84 5.12-1.49 7.64 -.59 2.58-1.19 5.03-1.96 7.52 -.38 1.29-.79 2.49-1.3 3.75l-.64 1.86 -.42.99 -.54 1.2c-1.86 4.28-6.17 6.98-10.84 6.78 -4.67-.21-8.73-3.26-10.21-7.69l-.11-.34c-4.09-12.5-9.61-24.47-16.47-35.69 -6.79-11.06-15.05-21.13-24.57-29.95 -11.19-10.35-23.97-18.77-37.83-24.95 -.2-.09 1.13 2.06 1.72 3.2 5.89 11.48 10.13 23.73 12.6 36.4 2.47 12.57 3.32 25.41 2.53 38.2 -.4 6.36-1.18 12.69-2.33 18.96 -.6 3.14-1.3 6.25-2.07 9.38 -.39 1.56-.82 3.12-1.3 4.7l-.76 2.37 -.41 1.29 -.51 1.42c-1.67 4.7-6.23 7.76-11.22 7.52 -4.99-.25-9.23-3.74-10.44-8.59l-.08-.33c-2.39-9.96-6.2-19.51-11.31-28.38 -5.18-8.93-11.55-17.1-18.94-24.29 -7.5-7.29-15.81-13.69-24.76-19.08 -1.3-.79-2.6-1.55-3.91-2.3 .15 0 .43-.33.47-.06 .2 1.65.35 3.32.52 4.97 .31 3.87.47 7.68.42 11.48 -.11 7.49-.89 14.95-2.33 22.3 -.73 3.62-1.6 7.19-2.67 10.69 -1 3.52-2.23 6.97-3.69 10.33Z"/><path fill="#E911BD" d="M58.67 132.26c.55-6.98.55-13.99 0-20.97 -.53-6.89-1.56-13.74-3.07-20.48 -.77-3.34-1.67-6.64-2.7-9.89 -1.04-3.24-2.29-6.38-3.35-9.58 -.52-1.61-1.08-3.2-1.66-4.78 -.59-1.58-1.3-3.12-2-4.64 -1.38-3.07-3.01-6.01-4.66-8.92l-.08-.13c-.58-1.02-.74-2.22-.43-3.35 .3-1.13 1.05-2.09 2.06-2.67 1.05-.62 2.31-.76 3.47-.39 3.01.91 5.63 1.91 8.39 3.01 2.75 1.09 5.36 2.26 7.99 3.49 5.25 2.48 10.37 5.23 15.33 8.25 10 6.01 19.27 13.16 27.63 21.3 8.39 8.18 15.63 17.47 21.52 27.61 3.35 5.83 6.21 11.92 8.56 18.22 .02-.04-.28-.35-.27-.29 .15-.76.3-1.52.45-2.28 1.04-5.64 1.73-11.34 2.09-17.06 .74-11.44.01-22.92-2.18-34.17 -2.19-11.22-5.95-22.07-11.17-32.23 -5.26-10.17-11.86-19.59-19.61-28.01 -1.27-1.38-1.53-3.4-.65-5.05 .87-1.65 2.68-2.58 4.52-2.31 2.04.25 3.73.58 5.56.95 1.82.37 3.56.77 5.32 1.29 3.51.86 6.96 1.89 10.34 3.09 20.54 6.96 39.4 18.16 55.36 32.86 10.59 9.81 19.79 21.03 27.34 33.34 5.25 8.57 9.78 17.56 13.56 26.86 1.62 3.99-.57 1.82-.17-.27 .76-4.17 1.2-8.36 1.59-12.58 .68-8.51-.41-17.06-3.19-25.12 -2.92-8.21-7.41-15.77-13.21-22.26 -5.97-6.66-12.8-12.48-20.31-17.31 8.18 3.94 15.78 9.02 22.56 15.08 6.93 6.24 12.55 13.81 16.52 22.25 3.95 8.66 6.07 18.06 6.23 27.58 .07 2.38-.02 4.76-.28 7.13 -.28 2.36-.73 4.7-1.22 7.03 -.5 2.32-1.09 4.63-1.79 6.91 -.35 1.13-.72 2.27-1.13 3.41 -.43 1.16-.82 2.19-1.41 3.5 -.75 1.64-2.43 2.66-4.23 2.57 -1.81-.09-3.38-1.27-3.96-2.98v-.1c-4.25-13.02-10.01-25.49-17.15-37.16 -7.15-11.64-15.85-22.23-25.87-31.5 -15.06-13.89-32.86-24.47-52.26-31.04 -2.47-.84-4.96-1.61-7.46-2.3 -.76-.21-2.47-3.41.17.07 4.74 6.25 8.95 12.9 12.57 19.89 5.59 10.9 9.62 22.54 11.97 34.57 2.31 11.99 3.09 24.23 2.31 36.43 -.38 6.07-1.125 12.12-2.24 18.1 -.56 2.98-1.21 5.97-1.96 8.93 -.39 1.48-.79 2.96-1.23 4.44 -.44 1.48-.88 2.89-1.48 4.52 -.68 1.81-2.46 2.97-4.39 2.87 -1.94-.11-3.58-1.46-4.05-3.33v-.11c-2.56-10.6-6.62-20.77-12.06-30.22 -5.48-9.45-12.23-18.1-20.05-25.72 -7.87-7.67-16.58-14.4-25.97-20.08 -4.71-2.84-9.55-5.43-14.53-7.76 -1.56-.73-3.12-1.43-4.69-2.11 -.01.01.01-.07 0-.06 1.43 3.09 2.74 6.25 3.91 9.46 1.16 3.46 2.02 7.02 2.58 10.63 .63 3.58 1.08 7.17 1.4 10.77 .6 7.15.6 14.34 0 21.49 -.28 3.56-.71 7.09-1.3 10.59 -.54 3.49-1.29 6.95-2.23 10.35Z"/></svg>