<svg viewBox="0 0 256 256" xmlns="http://www.w3.org/2000/svg"><g fill="#028BF4"><path d="M128 42.66c-47.13 0-85.34 38.2-85.34 85.33v85.33h21.33 64c47.12 0 85.33-38.21 85.33-85.34s-38.21-85.34-85.34-85.34v0 0Zm0 149.33H64v-64c0-35.35 28.65-64 64-64 35.34 0 64 28.65 64 64 0 35.34-28.66 64-64 64v0 0Z"/><path d="M128 85.33c-23.57 0-42.67 19.1-42.67 42.66v42.66h21.33 21.33c23.56 0 42.66-19.11 42.66-42.67 0-23.57-19.11-42.67-42.67-42.67v0 0Zm0 64h-21.34v-21.34c0-11.78 9.55-21.34 21.33-21.34 11.77 0 21.33 9.55 21.33 21.33 0 11.77-9.56 21.33-21.34 21.33v0 0Z"/><path d="M128 0H0v256h128c70.69 0 128-57.31 128-128C256 57.3 198.69 0 128 0v0 0Zm0 234.66H21.33v-64 -42.67c0-58.91 47.75-106.67 106.66-106.67 58.9 0 106.66 47.75 106.66 106.66 0 58.9-47.76 106.66-106.67 106.66v0 0Z"/></g></svg>