<svg viewBox="0 0 256 256" xmlns="http://www.w3.org/2000/svg"><path fill="#009DDE" d="M128.04 0c70.67.02 127.95 57.32 127.95 128v0 .04c-.03 70.68-57.35 127.97-128.05 127.95C57.25 255.96-.04 198.62-.02 127.94 0 57.25 57.32-.04 128.02-.02Zm-.66 32.92c-3.52 13.3-15.37 25.11-27.78 37.52 -18.57 18.6-39.67 39.66-39.67 71.29 .04 37.19 30.16 67.34 67.36 67.44 37.26 0 67.49-30.19 67.52-67.45 0-31.63-21.05-52.68-39.67-71.3v0l-1.67-1.67c-11.8-11.81-22.77-23.15-26.12-35.87Zm.91 100.99c7.74 8.25 12.65 13.94 17.75 20.15 .38.46.72.96 1.03 1.49 6.23 8.99 5.39 21.1-2.04 29.13 -8.75 9.46-23.5 10.04-32.96 1.3 -9.47-8.75-10.05-23.5-1.31-32.96 4.96-5.87 10.96-11.64 17.5-19.14Zm-30.82-30.95l3.25 3.07 15.1 15.45c.57.65.57 1.61 0 2.26v0l-15.8 17.45 -5.53 6.72c-2.11 2.56-3.89 5.35-5.31 8.34 -.21.49-.63.86-1.16.98v0h-.56c-1.54-.14-3.29-2.96-3.29-2.96v0l-.28-.43c-.37-.57-.7-1.16-1.01-1.77v0l-.3-.65c-2.17-7.04-2.33-14.53-.52-21.66v0l.2-.75c1.67-5.92 4.32-11.53 7.83-16.59 2.25-3.33 4.7-6.51 7.31-9.55v0Zm29.99-31.24c4.02 4.57 8.56 9.15 12.83 13.43v0l.09.29c8.94 8.32 17.01 17.52 24.13 27.46 6.03 8.47 9.33 18.59 9.45 29.01 0 4.5-.68 8.96-2.01 13.26v0l-.07.17c-.36.87-1.14 1.5-2.08 1.66v0h-.43c-.93-.3-1.7-.92-2.19-1.76v0l-.72-1.08c-3.86-5.72-8.2-11.08-12.98-16.04v0l-6.17-6.51 -20.55-21.41c-3.47-3.34-9.67-9.33-12.28-12.58 -.09-.18-.18-.35-.3-.52 -.72-.98-1.26-2.06-1.63-3.21v0 -.65c-.36-2.1-.08-4.24.8-6.17 .57-1.23 1.35-2.34 2.31-3.29 3.97-3.98 7.95-7.88 11.72-12.15Z"/></svg>