<svg viewBox="0 0 512 150" xmlns="http://www.w3.org/2000/svg"><path fill="#C74634" d="M153.39 0c38.35 0 69.44 31.08 69.44 69.44V79.8c0 38.35-31.09 69.44-69.45 69.44H69.42c-38.36 0-69.45-31.09-69.45-69.45V69.42C-.03 31.06 31.05-.03 69.41-.03h83.95Zm0 25.91H69.43c-23.81 0-43.15 19.1-43.53 42.81l-.01.71v10.36c0 23.8 19.1 43.14 42.81 43.52l.71 0h83.95c23.8 0 43.14-19.11 43.52-42.82l0-.72V69.4c0-23.81-19.11-43.15-42.82-43.53l-.72-.01Z"/><path d="M366 73.08c0 12.1-3.29 21.43-9.85 27.98 -6.57 6.55-15.79 9.82-27.68 9.82h-23.11V38.32h24.72c11.46 0 20.31 2.97 26.55 8.93 6.23 5.95 9.35 14.55 9.35 25.8Zm-16.65 1.6c0-7.89-1.67-13.74-4.99-17.54 -3.33-3.81-8.38-5.71-15.15-5.71h-7.22v48.19h5.51c7.52 0 13.04-2.05 16.55-6.15 3.51-4.1 5.26-10.37 5.26-18.81Zm21.09-36.35l25.88 44.75v27.79h15.86v-27.8l25.68-44.76h-17.27l-16.45 30.04 -15.48-30.05h-18.25Zm80.47 72.55V38.32h14.53l30.3 46.47V38.31h16.24v72.55h-14.3l-30.85-45.41v45.4h-15.95Z"/></svg>