<svg viewBox="0 0 512 94" xmlns="http://www.w3.org/2000/svg"><path fill="#0051FF" d="M355.58 0c6.66 0 13.76 2.28 20.56 6.36l1.12.69 48.37 30.79L480.87.92h28l-68.91 46.04 72.01 45.83H481.2l-57.61-36.66 -54.8 36.65h-28.05l68.46-45.81 -43-27.36c-3.22-2.06-6.31-3.78-10.1-4l-.83-.03c-6.56 0-12.19 4.25-12.51 12.85l-.02.77v39.22c0 16.66-7.67 25.2-21.6 25.2 -8.19 0-15.16-3.65-21.79-10.82l-.74-.82 -56.89-63.84c-1.9-2.01-3.35-2.65-4.95-2.65 -2.68 0-4.79 1.68-4.99 5.28l-.02.55v51.13c0 14.11-7.29 21.13-19.42 21.13 -6.71 0-12.47-2.8-16.65-8l-.54-.7 -9.95-13.34h-46.21v21.13h-16.36V21.51c0-14.08 7.61-21.68 19.6-21.68 5.21 0 11.06 1.79 17.1 9.5l.6.79 49.11 65.85c1.01 1.32 2.13 1.91 3.25 1.91 1.58 0 2.87-1.12 3.03-3.3l.01-.49v-50.9c0-15.64 9.56-23.39 20.96-23.39 7.55 0 14.17 3.76 19.29 9.19l.6.65 57.5 64.62c2.42 2.64 4.66 3.67 6.69 3.67 3.2 0 5.64-2.29 5.85-6.27l.01-.56V30.65c0-20.99 11.74-30.9 29.12-30.9ZM141.84 15.63c-1.33 0-2.56.9-2.71 3.16l-.02.46v37.7h35.24l-29.47-39.53c-.87-1.14-1.65-1.69-2.67-1.8l-.4-.03ZM80.3.92c18.05 0 27.61 9.8 27.61 23.38 0 8.26-4.54 15.27-11.94 19.6l-.23.12 .28.11c9.92 4.22 14.88 11.5 14.88 21.04 0 15.15-10.78 27.6-30.09 27.6H47.22V.88h33.04Zm-3.69 52.36H63.65v23.87H76.6c12.52 0 17.46-5.64 17.46-12.56 0-6.92-5.05-11.33-17.47-11.33Zm.38-36.78H63.64v22.06h11.84c10.38 0 16.35-4.61 16.35-11.48 0-6.33-4.47-10.6-14.86-10.6ZM34.52.9v15.59h-18.2v22.06h16.4v14.71H16.31v23.87H34.5v15.63H-.06V.87h34.55Z"/></svg>