<svg viewBox="0 0 512 121" xmlns="http://www.w3.org/2000/svg" xmlns:xlink="http://www.w3.org/1999/xlink"><defs><linearGradient id="a" x1="49.999%" x2="49.999%" y1="1089.4%" y2="-159.5%"><stop offset="30.33%" stop-color="#473788"/><stop offset="87.2%" stop-color="#2C2255"/></linearGradient><linearGradient id="b" x1="49.998%" x2="49.998%" y1="896.536%" y2="-352.36%" xlink:href="#a"/><linearGradient id="c" x1="49.998%" x2="49.998%" y1="215.169%" y2="-166.716%"><stop offset="30.33%" stop-color="#473788"/><stop offset="86.31%" stop-color="#2C2255"/></linearGradient></defs><g fill="#2C2255"><path d="M116.89 75.46c-2.44 8.28-6.95 15.71-13.56 22.27 -8.32 8.36-18.02 13.37-29.09 15.04 -2.77.41-5.62.63-8.56.63 -14.71 0-27.29-5.23-37.75-15.69 -6.57-6.57-11.05-13.99-13.46-22.28v0Zm2.05-12.39c-.1 1.87-.29 3.71-.56 5.52l-.15.89H13.12c-.3-1.8-.52-3.63-.64-5.49l-.06-.94h106.49Zm-.71-12.39c.3 1.79.51 3.62.64 5.48l.05.93H12.42c.09-1.88.28-3.72.55-5.53l.14-.91h105.1Z"/><path d="M116.9 44.72c-2.44-8.31-6.95-15.77-13.56-22.38C95.05 14.05 85.37 9.07 74.33 7.4c-2.8-.43-5.68-.65-8.65-.65 -14.71 0-27.29 5.19-37.75 15.58 -6.57 6.6-11.05 14.06-13.47 22.37"/></g><g fill="#F7941E"><path d="M9.29 60.09c0-28.14 21.12-51.51 48.61-55.62 -.69-.03-1.37-.06-2.06-.06C24.99 4.41-.02 29.33-.02 60.07c0 30.74 25 55.66 55.85 55.66 .69 0 1.37-.03 2.05-.06 -27.5-4.12-48.62-27.49-48.62-55.62Z"/><path d="M304.57 0h11.1v14.06h-11.11Z"/></g><path fill="#2C2255" d="M362.01 25.22c8.21 0 14.88 3.25 20.01 9.78 5.13 6.52 7.69 15.09 7.69 25.71 0 10.62-2.57 19.2-7.7 25.71 -5.13 6.51-11.81 9.78-20.02 9.78 -4.96 0-9.21-.98-12.77-2.93 -3.57-1.95-6.52-4.94-8.85-8.97v35.86H329.2V26.82h11.16v10.26c2.33-4.03 5.28-7.02 8.84-8.97 3.56-1.95 7.81-2.93 12.76-2.93Zm-179.71 0c9.09 0 16.29 2.92 21.58 8.78 5.29 5.85 7.94 13.81 7.94 23.87v5.43h-51.08c.48 7.65 2.78 13.47 6.91 17.47 4.12 4 9.87 6 17.23 6 4.26 0 8.4-.53 12.4-1.57 4-1.05 7.97-2.62 11.92-4.72v10.5c-3.99 1.69-8.07 2.97-12.26 3.86 -4.19.88-8.44 1.32-12.74 1.32 -10.79 0-19.33-3.14-25.63-9.42 -6.3-6.28-9.45-14.77-9.45-25.48 0-11.07 2.98-19.86 8.96-26.36 5.97-6.5 14.03-9.76 24.17-9.76Zm300.01 0c9.09 0 16.29 2.92 21.58 8.78 5.29 5.85 7.93 13.81 7.93 23.87v5.43h-51.08c.48 7.65 2.78 13.47 6.91 17.47 4.12 4 9.87 6 17.23 6 4.26 0 8.4-.53 12.4-1.57 4-1.05 7.97-2.62 11.92-4.72v10.5c-3.99 1.69-8.08 2.97-12.26 3.86 -4.19.88-8.44 1.32-12.74 1.32 -10.79 0-19.34-3.14-25.63-9.42 -6.31-6.28-9.46-14.77-9.46-25.48 0-11.07 2.98-19.86 8.96-26.36 5.97-6.51 14.03-9.76 24.17-9.76Zm-232.38-.01c3.42 0 6.76.35 10.02 1.05 3.26.7 6.41 1.76 9.47 3.17v10.38c-3.15-1.73-6.29-3.03-9.45-3.9 -3.17-.87-6.35-1.3-9.58-1.3 -7.21 0-12.8 2.28-16.79 6.85 -3.99 4.56-5.98 10.97-5.98 19.22 0 8.25 1.99 14.66 5.97 19.22 3.98 4.56 9.57 6.85 16.78 6.85 3.22 0 6.4-.44 9.57-1.3 3.15-.87 6.3-2.17 9.44-3.9v10.26c-3.11 1.44-6.32 2.53-9.63 3.25 -3.33.72-6.86 1.08-10.6 1.08 -10.19 0-18.28-3.21-24.27-9.6 -6-6.4-9-15.04-9-25.9 0-11.03 3.02-19.71 9.08-26.02 6.05-6.32 14.35-9.48 24.9-9.48Zm170.4-.01c4.1 0 7.96.3 11.59.9 3.62.6 6.96 1.51 10.02 2.72v10.5c-3.15-1.61-6.4-2.82-9.79-3.63 -3.39-.81-6.89-1.21-10.51-1.21 -5.52 0-9.65.84-12.41 2.53 -2.76 1.68-4.14 4.22-4.14 7.6 0 2.57.98 4.59 2.95 6.06 1.97 1.46 5.93 2.86 11.89 4.19l3.8.84c7.88 1.69 13.49 4.07 16.81 7.15 3.32 3.07 4.98 7.37 4.98 12.88 0 6.27-2.49 11.24-7.46 14.91 -4.97 3.66-11.81 5.49-20.5 5.49 -3.63 0-7.4-.36-11.33-1.06 -3.93-.71-8.06-1.77-12.41-3.18V80.41c4.1 2.13 8.15 3.73 12.13 4.8 3.98 1.06 7.92 1.59 11.83 1.59 5.23 0 9.25-.9 12.07-2.69 2.81-1.8 4.22-4.32 4.22-7.58 0-3.02-1.02-5.34-3.05-6.95 -2.04-1.61-6.5-3.16-13.38-4.65l-3.87-.91c-6.89-1.45-11.86-3.68-14.92-6.68 -3.06-3-4.59-7.12-4.59-12.35 0-6.36 2.25-11.27 6.76-14.73 4.5-3.47 10.9-5.2 19.19-5.2ZM290.58.5v93.93h-11.12V.49h11.11Zm25.07 26.32v67.61h-11.11V26.81h11.1Zm43.61 7.66c-5.88 0-10.5 2.32-13.86 6.97 -3.37 4.64-5.05 11.05-5.05 19.22 0 8.17 1.68 14.58 5.04 19.22 3.35 4.65 7.97 6.97 13.85 6.97 5.87 0 10.49-2.33 13.85-6.98 3.36-4.65 5.04-11.06 5.04-19.23 0-8.18-1.69-14.58-5.05-19.23 -3.37-4.65-7.98-6.98-13.86-6.98Zm-176.87.12c-6.2 0-11.16 1.75-14.89 5.25 -3.73 3.5-5.87 8.43-6.43 14.78l39.6-.06c-.09-6.08-1.79-10.93-5.11-14.55 -3.33-3.63-7.72-5.44-13.2-5.44Zm300.01 0c-6.2 0-11.16 1.75-14.89 5.25 -3.73 3.5-5.87 8.43-6.44 14.78l39.6-.06c-.09-6.08-1.79-10.93-5.11-14.55 -3.33-3.63-7.72-5.44-13.19-5.44Z"/><g transform="translate(29.3365 50.4778)"><path fill="url(#a)" d="M72.6 6.63c-.18-2.21-.55-4.35-1.11-6.43H1.21C.65 2.27.28 4.42.1 6.62h72.48Z"/><path fill="url(#b)" d="M72.6 12.59H.12c.17 2.2.54 4.34 1.1 6.42h70.27c.55-2.08.92-4.23 1.1-6.43Z"/><path fill="url(#c)" d="M36.36 45.98c14.59 0 27.17-8.6 32.96-21.01H3.38c5.79 12.4 18.37 21 32.96 21Z"/></g><path fill="#FFF" d="M118.24 69.49c-.36 2.03-.83 4.02-1.41 5.96v0H14.49c-.59-1.95-.99-3.94-1.35-5.97v0Zm.61-12.39c.05 1.02.09 2.05.09 3.09 0 .96-.03 1.91-.08 2.86v0H12.42c-.06-.95-.08-1.91-.08-2.87 0-1.05.03-2.08.09-3.1v0Zm-2.38-12.39c.59 1.94 1.06 3.93 1.43 5.96v0H13.13c.36-2.04.74-4.03 1.34-5.97v0Z"/></svg>