<svg viewBox="0 0 256 263" xmlns="http://www.w3.org/2000/svg"><path fill="#FFF" d="M128 262.39c-14.4 0-28-3.2-40.8-7.98 -12.8-5.59-24-12.77-32.8-23.13 -9.6-9.58-16.8-20.74-21.6-33.5 -1.6-4.79-3.2-9.58-4.8-15.16h-.8l-.8-7.98c-9.6-3.99-16.8-13.56-19.2-22.34C4 141.13.8 124.38 0 109.23 0 97.26 6.4 86.1 17.6 81.31c7.2-3.2 17.6-6.39 29.6-7.98 8-16.75 16.8-31.91 26.4-43.07C90.4 10.32 108.8-.05 128-.05c19.2 0 37.6 10.36 54.4 30.3 9.6 11.16 18.4 25.52 25.6 43.06 12 2.39 22.4 4.78 30.4 7.97 11.2 4.78 17.6 15.95 17.6 27.91 -.8 17.54-4.8 36.68-7.2 43.86 -2.4 9.57-9.6 19.14-19.2 22.33l-.8 7.97h-.8c-.8 4.78-2.4 10.36-4.8 15.15 -4.8 12.76-12 23.92-21.6 33.49 -9.6 9.57-20.8 17.54-32.8 23.12 -12.8 4.78-26.4 7.17-40.8 7.17Z"/><path fill="#FCFBFA" d="M126.91 19.24c45.46 0 82.14 97.3 82.14 142.76 0 45.46-36.69 82.14-82.15 82.14 -45.47 0-82.15-36.69-82.15-82.15 0-45.47 36.68-142.77 82.14-142.77Z"/><g fill="#252526"><path d="M231.4 97.4l-33.5 11.96s4.78 15.95 5.58 15.95l33.49-3.99 -5.59-23.93Z"/><path d="M23.23 97.4l33.49 11.96s-4.79 15.95-5.59 15.95l-33.5-3.99 5.58-23.93Z"/></g><g fill="#E0E0E0"><path d="M92.62 95.01c8.77 0 10.36 7.17 10.36 8.77 .79 4.78 1.59 11.16 2.39 17.54 0 1.59 0 3.19-.8 4.78 -.8-3.99-.8-7.98-1.6-11.97 0-1.6-2.4-8.78-10.37-8.78 -4.79 0-21.54.79-37.49 3.19 .79-3.99 2.39-7.18 3.98-11.17 14.35-2.4 28.71-3.2 33.49-2.4Z"/><path d="M209.06 158.02c-29.51-1.6-55.04-11.17-60.62-14.36 -4.79-2.4-10.37-6.39-11.97-17.55 -.8 12.76 1.59 23.92 12.76 29.5 .79.79 23.12 11.16 59.01 13.55v-7.18c.79-1.6.79-3.2.79-3.99Z"/><path d="M45.56 158.02c29.5-1.6 55.03-11.17 60.61-14.36 4.78-2.4 10.36-6.39 11.96-17.55 .79 12.76-1.6 23.92-12.77 29.5 -.8.79-23.13 11.16-59.02 13.55v-7.18c-.8-1.6-.8-3.2-.8-3.99Z"/><path d="M161.21 95.01c-8.78 0-10.37 7.17-10.37 8.77 -.8 4.78-1.6 11.16-2.4 17.54 0 1.59 0 3.19.79 4.78 .79-3.99.79-7.98 1.59-11.97 0-1.6 2.39-8.78 10.36-8.78 4.78 0 21.53.79 37.48 3.19 -.8-3.99-2.4-7.18-3.99-11.17 -14.36-2.4-28.72-3.2-33.5-2.4Z"/></g><g fill="#56555C"><path d="M55.13 85.44c7.97-19.15 17.54-36.69 27.91-48.66 13.55-16.75 28.71-25.53 43.86-25.53 15.15 0 29.5 8.77 43.86 25.52 10.36 12.76 19.93 29.5 27.91 48.65v.79h-.8c-3.2 0-4.79-.8-7.98-.8v0 0c-8.78-21.54-24.73-48.66-44.67-60.62 -6.39-3.2-11.97-5.59-18.35-5.59 -6.39 0-11.97 1.59-18.35 5.58 -19.94 11.16-35.1 39.08-44.67 60.61v0 0c-3.2 0-4.79.79-7.98.79h-.8v-.8Z"/><path d="M209.86 147.65h-6.39 -.8v-.8c-1.6-15.96-6.39-33.5-12.77-51.05l-.8-1.6h1.59c2.39 0 4.78.79 7.17.79h.79v.79c5.58 17.54 10.36 35.89 11.96 51.04v.79h-.8Z"/></g><path fill="#252526" d="M202.68 108.57c-1.6-3.99-2.4-7.98-3.99-11.97v-.8h-.8c-2.4-.8-4.79-.8-7.18-.8h-1.6l.79 1.59c1.59 3.98 2.39 7.97 3.98 11.96 3.98-.8 6.38-.8 8.77 0Z"/><path fill="#56555C" d="M43.97 146.06c1.59-15.16 6.38-33.5 11.96-51.05v-.8h.79c2.39 0 4.78-.8 7.17-.8h1.59l-.8 1.59c-6.39 17.54-10.37 35.89-12.77 51.04v.79h-.8 -6.39 -.8v-.8Z"/><path fill="#252526" d="M56.73 95.01v0 0c-2.4 4.78-3.2 8.77-4.79 12.76 3.98-.8 5.58-.8 8.77-.8 1.59-3.99 2.39-7.98 3.98-11.97l.79-1.6h-1.6c-2.4.79-4.79 1.59-7.18 1.59Z"/><path fill="#56555C" d="M126.91 251.33c-11.97 0-23.93-2.4-35.1-7.18 -11.17-4.79-20.74-11.17-28.72-19.94 -7.98-8.78-14.36-18.35-19.15-29.51 -4.79-11.17-6.39-23.93-6.39-36.69v-.8h.79 7.17 .79v.79c-.8 11.96 1.59 22.33 5.58 33.49 3.98 10.36 9.57 19.14 16.74 27.11 7.17 7.97 16.74 14.35 26.31 18.34 10.36 4.78 20.73 6.38 31.9 6.38 11.16 0 22.33-2.4 31.9-6.39 9.57-3.99 19.14-10.37 26.31-18.35 7.17-7.98 13.55-16.75 16.74-27.12 3.98-10.37 5.58-21.54 5.58-33.5v-.8h.79 7.17 .79v.79c.79 12.76-1.6 24.72-6.39 36.68 -3.99 11.16-10.37 20.73-19.15 29.5 -7.98 8.77-18.35 15.15-28.72 19.93 -10.37 3.98-22.34 7.17-35.1 7.17Z"/><g fill="#252526"><path d="M46.36 168.39v-10.37 -.8h-.8 -7.18 -.8v.79 10.36 0h8.77v0Z"/><path d="M216.24 157.22v0h-7.18 -.8v.79 10.36h7.97V157.2v0Z"/><path d="M221.03 164.4c-18.35 0-35.1-4.79-51.05-8.78 -7.98-2.4-15.16-6.39-20.74-8.78v-.8c-13.56-6.39-14.36-20.74-13.56-32.71 0-3.2-.8-7.18-3.99-9.58 -1.6-.8-3.2-1.6-4.79-1.6 -1.6 0-3.99.79-4.79 1.59 -3.2 2.39-3.99 6.38-3.99 9.57 1.59 11.96.79 25.52-13.56 31.9v0c-5.59 2.39-12.77 7.97-20.74 10.36 -15.96 3.98-32.71 8.77-51.05 8.77v0c-7.18 0-13.56-7.18-15.16-14.36 -2.4-10.37-6.39-27.12-6.39-41.48 0-5.59 3.19-11.97 8.77-14.36 19.14-8.78 58.22-11.97 74.97-11.97 6.38 0 11.16 2.39 15.15 6.38 5.58-2.4 11.16-3.99 16.74-3.99 5.58 0 11.16 1.59 16.74 3.98 3.19-3.2 7.97-6.39 15.15-6.39 9.57 0 52.63 1.59 74.97 11.16 5.58 2.39 8.77 7.97 8.77 13.55 -.8 14.35-3.99 32.7-6.39 43.06 -1.6 7.17-7.98 14.35-15.16 14.35v0Zm-59.82-69.39c-7.98 0-9.58 7.17-10.37 7.97 -.8 3.98-1.6 10.36-2.4 17.54 0 6.38 2.39 11.16 7.17 13.55 17.54 7.97 38.28 11.96 62.21 11.96 1.59 0 3.19-1.6 3.98-3.2 2.39-8.78 5.58-22.34 5.58-35.1 0-.8-.8-2.4-1.6-2.4 -15.16-7.98-51.05-10.37-64.61-10.37Zm-134 10.36c-.8.79-1.6 1.59-1.6 2.39 0 12.76 3.19 26.31 5.58 35.09 .79 1.59 2.39 3.19 3.98 3.19 24.72 0 44.66-3.99 62.21-11.97 4.78-2.4 7.17-7.18 7.17-13.56 0-5.59-.8-11.17-2.4-17.55 0-1.6-1.6-7.98-10.37-7.98 -6.39 0-45.47 1.59-64.61 10.36Z"/></g></svg>