<svg viewBox="0 0 256 214" xmlns="http://www.w3.org/2000/svg"><path d="M98.32 4.64c2.14 0 3.84 1.21 4.76 3.18 .64 1.38.92 3.13.93 5.33l0 .16v157.54c-.02 2.92-.32 5.2-.99 6.92 -.93 2.38-2.7 3.92-5.12 3.96h-.1l-18.19-.03c-2.46 0-4.23-1.58-5.14-4.01 -.64-1.71-.93-3.98-.95-6.89l-.01-131.71 -4.9 1.24 -1.96.48 -.58.13 -.29.06 -.14.02 -.05 0 -.03 0 -.03 0 -.01-.01 -.01-.01 -.01-.01 0-.01 0-.01 .03-.03c.01-.02.01-.03-.01-.04l-.02-.01 -.06 0c-2.07.07-3.79-1.03-4.72-2.92 -.68-1.36-.96-3.08-.98-5.27l-.01-.17V21.1c0-2.05.32-3.77 1.07-5.17 .85-1.6 2.21-2.7 3.92-3.15l.1-.03 .11-.03 31.44-8.1c.44-.12.94-.18 1.47-.19l.14-.01h.13Zm52.51-4.65c2.25 0 4.04 1.26 5.03 3.34 .71 1.5 1.02 3.44 1.04 5.87l0 .17v46.3l0 .11h13.52c2.12 0 3.87 1.09 4.89 2.96l.04.08 .04.09c.74 1.45 1.07 3.3 1.08 5.62l0 .16v6.43c0 2.35-.33 4.23-1.1 5.71 -1.01 1.91-2.76 3.04-4.88 3.08l-.11 0 -13.55-.01v60.71l0 .48 0 .47 0 .46 0 .46 0 .22 .01.56v0l.01.55 .02.54v0l.02.53 .01.21 .02.41 .02.41 .02.4 .02.39 .01.19 .03.38 .01.19v0l.01.19 .03.37c.01.12.02.24.03.36l.02.18 .04.35c.09.74.19 1.44.31 2.1l.04.21 .02.15 .05.28c.01.09.03.18.05.28l.03.13 .06.27 .06.26 .03.12 .06.25c.08.32.17.62.26.91l.07.24c.38 1.15.81 2.01 1.26 2.57 .84 1.03 1.58 1.66 2.15 1.91l.17.07c.67.26 1.6.42 2.8.43l.13 0h8.44c2.01 0 3.76.8 4.91 2.38 .95 1.31 1.36 2.97 1.38 4.97l0 .13v7.13c0 2.2-.43 4.02-1.43 5.44 -1.16 1.64-2.94 2.5-5.01 2.53l-.11 0 -12.12.02c-3.36 0-6.29-.24-8.84-.72 -2.73-.52-5.51-1.65-8.36-3.39 -2.97-1.81-5.4-4.29-7.3-7.41 -1.84-3.04-3.28-7.13-4.37-12.29 -1.06-5.03-1.6-10.88-1.62-17.55l-.01-.36V79.63l-5.6 0c-2.11 0-3.86-1.07-4.89-2.91l-.05-.09 -.05-.09c-.76-1.44-1.09-3.27-1.1-5.55v-.17 -6.44c0-2.4.32-4.3 1.08-5.79 .99-1.95 2.74-3.11 4.89-3.15l.1-.01h5.59l0-.19 2.14-46.38 .01-.21c.15-2.4.54-4.29 1.24-5.74 .98-2.02 2.67-3.28 4.82-3.31h.09 11.91Zm100.03 55.76c1.99 0 3.55 1.18 4.35 3.01 .54 1.23.77 2.79.77 4.72 0 .07 0 .14-.01.21l-.01.11 -.01.22 -.01.11 -.02.24 -.01.12 -.02.25c-.02.2-.04.42-.07.64l-.02.16 -.04.29 -.04.3 -.05.31 -.04.23 -21.21 110.41 -.05.27 -.11.57 -.11.56 -.17.84 -.11.55 -.17.82 -.11.54 -.11.53 -.12.53 -.12.52 -.12.52 -.17.77 -.12.5 -.12.5 -.12.49 -.12.49 -.12.48 -.12.47 -.12.47 -.12.46 -.12.46 -.12.45 -.12.45 -.12.44 -.12.44 -.12.43 -.12.43 -.13.42 -.13.41 -.13.41 -.13.4 -.13.4 -.13.39 -.13.39 -.13.38 -.13.38 -.13.37 -.07.18 -.13.36 -.07.18v0l-.07.18 -.16.44v0l-.16.43 -.07.17 -.13.34 -.13.33c-.06.14-.12.29-.18.43l-.16.37 -.16.37c-.28.65-.56 1.29-.85 1.9l-.13.25 -.17.34 -.17.33c-1.85 3.66-3.91 6.33-6.29 8 -2.96 2.1-6.74 3.18-11.3 3.3l-.21 0h-1.27c-7.16 0-12.38-1.97-15.39-6.11l-.1-.13 -.08-.12 -.04-.05c-.86-1.09-1.29-2.59-1.45-4.69l-.02-.15 -.02-.27 -.01-.14v0l-.01-.14 -.02-.29 -.01-.15v0l-.01-.15 -.02-.37v0l-.01-.38 -.01-.16 -.01-.32 0-.35 0-.2 0-.38 0-.19v0l0-.19 0-.37 0-.18v0l0-.18 .01-.35 .01-.35 .01-.34c0-.12.01-.23.02-.33l.01-.17 .02-.32 .02-.32c.13-1.39.36-2.58.68-3.57 .83-2.58 2.49-4.31 4.99-4.35l.08-.01 .09 0 .08 0 .08 0 .08 0 .11.01 .12.02 .17.03 .16.03 .14.03 .27.06 .37.09 .5.13 .53.15 .7.2 1.69.49 .48.14 .43.12 .4.11 .38.1 .36.1 .25.06 .24.06 .3.07 .28.06 .19.04 .18.04 .16.03 .19.03 .13.02 .11.01 .06 0 .06 0 .05 0 .02 0 .04 0c.02 0 .04-.01.08-.02 .08-.04.2-.12.35-.26 .46-.44.98-1.23 1.49-2.37 .65-1.46 1.14-3.34 1.43-5.64l.02-.2 .03-.35 .03-.36 .01-.18v0l.01-.18 .03-.37c.09-1.2.15-2.49.15-3.87l0-.3 -.01-.1 -.01-.08 -.01-.13 -.02-.2 -.03-.23 -.04-.27 -.02-.15 -.05-.31 -.06-.35 -.08-.47 -.09-.52 -.1-.57 -.12-.62 -.15-.8 -.17-.87 -.22-1.1 -.28-1.36 -.27-1.29 -.33-1.57 -.35-1.64 -23.37-97.11 -.05-.3 -.04-.28 -.04-.27 -.04-.26 -.04-.31v0l-.04-.3 -.02-.12 -.02-.23 -.02-.22 -.01-.11 -.02-.21 -.01-.2 -.01-.1 -.01-.19 -.01-.1v0 -.26c.01-1.73.21-3.12.68-4.25 .73-1.76 2.18-2.95 4.1-2.98l.09-.01h14.41c1.92 0 3.63.7 4.96 2.06 1.21 1.25 1.94 3.14 2.41 5.77l.02.14 .04.26 12.67 67.09 9.89-66.63 .01-.13c.35-2.67.96-4.66 1.97-6.03l.06-.09 .06-.08c1.22-1.55 2.93-2.41 4.88-2.44h.1 9.98ZM38.44 4.82c2.14 0 3.84 1.21 4.76 3.18 .64 1.38.92 3.13.93 5.33l0 .16v157.36c0 3-.31 5.35-.99 7.1 -.93 2.38-2.7 3.92-5.11 3.96h-.1 -18.22c-2.46 0-4.23-1.58-5.14-4.01 -.64-1.71-.93-3.98-.95-6.89L13.61 39.3l-3.52.88 -2.78.69 -.66.15 -.29.06 -.22.04 -.13.02 -.11.01 -.13 0c-2.15.15-3.95-.96-4.91-2.91 -.68-1.36-.96-3.08-.98-5.27l-.01-.17V21.37c0-2.05.32-3.77 1.07-5.17 .85-1.6 2.21-2.7 3.92-3.15l.1-.03 .11-.03 31.46-8.12c.44-.12.94-.18 1.47-.19l.14-.01h.13Z"/></svg>