<svg viewBox="0 0 256 292" xmlns="http://www.w3.org/2000/svg"><path fill="#4EC6E6" d="M128.15 0l103.256 94.579c33.29 30.5 34.23 82.681 2.04 114.35l-68.06 66.96c-20.8 20.46-54.21 20.31-74.83-.33l-66.517-66.61c-31.48-31.52-30.62-82.84 1.9-113.28L128.129-.03"/><path fill="#FFF" d="M197.351 126.96L128.81 60.13l-76.34 72.49c-7.93 7.93-8.6 30.93.99 40.51l75 72.696 .33-33.05 -52.54-50.23c-5.43-5.43-4.93-11.76.49-17.19l16.35-15.99 78.437 75.71 26.63-26.44c14.63-14.71 13.25-37.62-.85-51.73v0Zm-17.69 34.71l-10.15 10.14 -59.209-57.49 19.37-20.24 49.23 46.92c6.95 6.95 7.7 13.7.74 20.661v0Z"/></svg>