<svg viewBox="0 0 512 82" xmlns="http://www.w3.org/2000/svg"><defs><linearGradient id="a" x1="61.05%" x2="38.449%" y1="82.514%" y2="28.19%"><stop offset="0%" stop-color="#477CD8"/><stop offset="16%" stop-color="#4573D2"/><stop offset="43%" stop-color="#3F5BC2"/><stop offset="76%" stop-color="#3633A7"/><stop offset="100%" stop-color="#2F1391"/></linearGradient><linearGradient id="b" x1="62.856%" x2="52.43%" y1="19.708%" y2="78.902%"><stop offset="0%" stop-color="#2055DA"/><stop offset="11%" stop-color="#2055DA"/><stop offset="100%" stop-color="#00BFF6"/></linearGradient></defs><path fill="#3B62DE" d="M218.95 19.19c2.08.77 4 1.93 5.66 3.41 1.27 1.13 2.28 2.53 2.96 4.1 .48 1.13.8 2.34.94 3.57 .06.46-.12.92-.48 1.22 -.34.31-.78.47-1.24.47h-5.14c-.4.01-.8-.11-1.12-.34 -.25-.2-.45-.45-.6-.73 -.09-.17-.32-.54-.68-1.12 -.47-.68-1.04-1.28-1.7-1.77 -.93-.71-1.96-1.27-3.05-1.68 -1.52-.53-3.12-.77-4.72-.72 -2.75-.14-5.45.78-7.56 2.55 -1.92 1.76-3.02 4.25-3.04 6.86 -.08 1.6-.13 3.32-.13 5.15 0 1.83.04 3.54.12 5.15 .13 3.49 1.14 6.03 3.03 7.61 2.15 1.66 4.83 2.5 7.55 2.36 1.45.01 2.89-.15 4.3-.51 1.22-.31 2.38-.87 3.37-1.65 .98-.81 1.74-1.84 2.21-3.02 .56-1.46.82-3.02.78-4.58v-.51h-7.72c-.94-.03-1.69-.78-1.71-1.71v-4.48c-.01-.46.18-.89.5-1.2 .31-.33.74-.52 1.19-.51h14.53c.45-.02.88.17 1.19.5 .32.31.51.74.5 1.19v6.95c.01 2.38-.39 4.75-1.2 6.99 -.78 2.08-2.01 3.96-3.61 5.5 -1.73 1.61-3.78 2.84-6.02 3.6 -5.46 1.7-11.3 1.7-16.76 0 -2.19-.75-4.19-1.95-5.86-3.54 -1.58-1.54-2.81-3.41-3.58-5.48 -.85-2.24-1.31-4.6-1.36-6.99 0-.81-.08-1.69-.1-2.66 -.02-.97 0-1.97 0-2.98v-2.98c0-.97.07-1.84.11-2.64 .05-2.37.52-4.72 1.38-6.92 .81-2.05 2.06-3.88 3.67-5.38 1.71-1.56 3.72-2.74 5.91-3.48 5.63-1.71 11.66-1.65 17.26.18Zm-63.59-.27c.37.37.65.67.82.88l17.73 26.37V20.12c0-.95.76-1.71 1.7-1.71h5.12c.93.01 1.68.77 1.69 1.7v40.84c-.02.93-.77 1.69-1.7 1.7l-4.47-.04c-.61.04-1.2-.17-1.65-.57 -.38-.39-.66-.68-.83-.89L156.06 34.8v26.04c-.01.94-.77 1.7-1.71 1.7h-5.12c-.95-.01-1.71-.77-1.71-1.71V19.98c0-.95.76-1.71 1.7-1.71h4.42c.6-.05 1.19.16 1.64.56Zm107.84 0c.37.37.65.67.82.88l17.7 26.42v-26.1c0-.95.76-1.71 1.7-1.71h5.11c.94 0 1.7.76 1.7 1.7v40.84c-.01.94-.77 1.7-1.71 1.7l-4.4-.04c-.61.04-1.2-.17-1.65-.57 -.38-.39-.66-.68-.83-.89L263.93 34.8v26.04c-.01.45-.19.89-.52 1.21 -.33.32-.77.49-1.23.49h-5.12c-.95-.01-1.71-.77-1.71-1.71V19.98c0-.95.76-1.71 1.7-1.71h4.42c.6-.05 1.19.16 1.64.56Zm147.86 0c.4.46.7 1.01.88 1.61l15.45 39.96c.13.51.02 1.05-.3 1.48 -.33.42-.83.66-1.36.67h-4.55c-.64.06-1.29-.13-1.78-.54 -.31-.3-.54-.66-.69-1.05l-2.67-7.02h-20.01l-2.72 7.01c-.17.38-.4.74-.69 1.04 -.5.41-1.14.6-1.78.53h-4.56c-.46 0-.89-.19-1.2-.51 -.33-.32-.52-.75-.51-1.2 -.01-.15.01-.3.05-.45l15.49-39.97c.17-.6.48-1.15.88-1.62 .4-.39.95-.59 1.51-.54h6.95c.56-.05 1.11.15 1.51.53Zm23.89-.57l16.31.02c5.27 0 9.27 1.22 12.01 3.67 2.73 2.44 4.1 5.83 4.11 10.17 .08 2.77-.66 5.51-2.13 7.87 -1.5 2.24-3.69 3.94-6.23 4.84l8.73 15.61c.11.21.17.45.18.69 -.02.76-.63 1.37-1.39 1.38h-5.38c-.69.06-1.37-.16-1.89-.61 -.35-.32-.64-.7-.86-1.11l-8.26-14.77h-8.41v14.73c-.01.94-.77 1.7-1.71 1.7h-5.13c-.95-.01-1.71-.77-1.71-1.71V19.98c0-.95.76-1.71 1.7-1.71Zm-297.41.02c.45-.01.88.18 1.19.5 .32.31.51.74.5 1.19v4.49c-.02.93-.77 1.69-1.7 1.7h-20.47V36.3h19.06c.94 0 1.7.76 1.7 1.7v4.48c0 .45-.17.9-.49 1.22 -.32.32-.76.51-1.22.52h-19.08v10.49l20.95-.05c.93.02 1.68.77 1.7 1.7v4.49c-.03.93-.78 1.68-1.71 1.7h-27.75c-.95-.01-1.71-.77-1.71-1.71V19.99c0-.95.76-1.71 1.7-1.71h27.25Zm106.32 0c.93.02 1.68.77 1.7 1.7v40.84c-.03.93-.78 1.68-1.71 1.7h-5.13c-.94-.03-1.69-.78-1.71-1.71V20.05c.02-.94.77-1.69 1.7-1.71h5.12Zm85.26 0c.93.02 1.68.77 1.7 1.7v4.49c-.03.93-.78 1.68-1.71 1.7h-20.46v10.05h19.05c.94 0 1.7.76 1.7 1.7v4.48c0 .45-.18.89-.51 1.2 -.32.32-.75.5-1.2.5h-19.06v10.49h20.94c.93.02 1.68.77 1.7 1.7v4.49c-.03.93-.78 1.68-1.71 1.7h-27.75c-.94-.03-1.69-.78-1.71-1.71V20.01c.02-.94.77-1.69 1.7-1.71h27.25Zm56.25 0c.93.02 1.68.77 1.7 1.7 0 .19-.04.38-.13.56l-14.99 26.36V60.9c-.03.93-.78 1.68-1.71 1.7h-5.06c-.94-.02-1.7-.77-1.71-1.71V46.97l-15.01-26.34c-.09-.18-.13-.38-.13-.57 -.02-.46.17-.89.5-1.2 .31-.34.75-.52 1.2-.51h4.71c.68-.05 1.36.17 1.88.63 .3.27.55.58.75.94l10.24 17.93 10.24-17.94c.2-.36.45-.68.76-.95 .51-.47 1.19-.69 1.88-.64l4.79-.04Zm115.69 1.23c4.31 1.42 7.73 4.73 9.29 9 .84 2.3 1.34 4.72 1.48 7.17 .16 3.11.16 6.24 0 9.36 -.14 2.46-.64 4.89-1.49 7.21 -.78 2.05-1.98 3.93-3.52 5.5 -1.61 1.56-3.55 2.76-5.67 3.5 -2.56.87-5.24 1.28-7.94 1.23h-15.94c-.94-.02-1.7-.77-1.71-1.71V20.05c0-.95.76-1.71 1.7-1.71h15.61c2.75-.06 5.5.36 8.12 1.23Zm-8.56 6.61H484v28.43h8.79c1.52.03 3.04-.21 4.48-.73 1.18-.43 2.26-1.11 3.16-2 .84-.87 1.48-1.9 1.88-3.03 .45-1.22.71-2.49.79-3.78 .2-3.12.24-6.24.13-9.36 -.07-1.3-.34-2.57-.8-3.78 -.44-1.15-1.11-2.18-1.97-3.04 -.94-.91-2.06-1.61-3.29-2.03 -1.52-.52-3.12-.76-4.72-.72Zm-86.46 1.88l-6.99 18.05h13.93l-6.95-18.06Zm44.92-1.77h-9.18l-.04 11.93h9.21c1.99.09 3.98-.35 5.75-1.27 1.42-.84 2.13-2.45 2.14-4.81 0-2.36-.71-3.94-2.15-4.72 -1.8-.87-3.78-1.26-5.76-1.16Z"/><path fill="url(#a)" d="M23.04 40.13c0-9.43 7.64-17.08 17.07-17.08 9.42 0 17.07 7.64 17.07 17.07 0 9.42-7.65 17.07-17.08 17.07v0c-9.43 0-17.08-7.65-17.08-17.08v0m-23.05 0c0 22.15 17.95 40.11 40.11 40.11 22.15 0 40.11-17.96 40.11-40.12 0-22.16-17.96-40.12-40.12-40.12v0C17.93.01-.02 17.95-.05 40.09"/><path fill="url(#b)" d="M48.32 12.33l-8.23 10.73c9.26.21 16.66 7.79 16.66 17.05 0 9.26-7.4 16.84-16.67 17.05L29.77 68.87l10.3 11.32c14.34.33 27.77-7.03 35.21-19.29 7.44-12.27 7.77-27.58.86-40.15C69.23 8.17 56.13.24 41.78-.05c-.58 0-1.17 0-1.74 0l8.22 12.33Z"/></svg>