<svg viewBox="0 0 512 97" xmlns="http://www.w3.org/2000/svg"><path fill="#82B541" d="M65.89 9.76c-2.58-1.43-9.96-.55-18.82 2.19 -15.51 10.6-28.6 26.21-29.51 51.29 -.17.59-1.7-.09-2-.27 -4.19-8.03-5.85-16.48-2.36-28.68 .65-1.09-1.48-2.43-1.87-2.04 -.77.76-3.97 4.17-6.1 7.86 -10.54 18.27-3.65 41.68 14.78 51.93 18.42 10.26 41.69 3.64 51.95-14.79 11.86-21.28.84-63.64-6.11-67.53l-.01-.01Z"/><g><path d="M131.85 19.97c-21.85 0-37.71 16.24-37.71 38.61 0 22.56 15.81 38.31 38.46 38.31 11.44 0 20.49-3.58 27.7-10.95 2.15-2.33 2.38-4.57 2.38-5.42 0-3.65-2.72-6.3-6.46-6.3 -1.89 0-3.46.71-5.27 2.38 -4.08 3.8-9.46 7.68-18.37 7.68 -12.4 0-22.48-9.31-23.12-21.27h49.34c5.36 0 7.97-2.51 7.97-7.67 0-1.52 0-2.62-.31-4.78 -2.66-19.19-15.62-30.64-34.66-30.64l-.01-.01Zm0 11.98c11.84 0 19.44 7.54 19.91 19.73H109.5c1.1-11.28 10.64-19.74 22.33-19.74h0Z"/><path d="M213.92 19.97c-9.93 0-19.76 5.7-23.59 13.63v-4.9c0-7.59-5.89-7.98-7.06-7.98 -3.49 0-7.21 2.09-7.21 7.97v59.15c0 7.87 6.25 8.27 7.51 8.27 1.25 0 7.51-.4 7.51-8.28V56.11c0-13.8 7.81-23.44 19.01-23.44 10.84 0 16.11 7.11 16.11 21.75v33.39c0 7.87 6.26 8.27 7.51 8.27s7.51-.4 7.51-8.28V49.68c0-14.4-7.19-29.78-27.34-29.78v-.01Z"/><path d="M309.27 20.73c-3.48 0-6 2.02-7.5 6.01L281.2 78.45l-20.41-51.72c-1.6-4.05-4.1-6.02-7.65-6.02 -4.15 0-7.52 3.23-7.52 7.2 0 .98.11 2.26.94 4.25l23.63 55.8c2.81 6.73 7.44 8.14 10.83 8.14 3.38 0 8.02-1.42 10.84-8.15l23.78-56.12c.81-1.97.93-3.42.93-4.1 0-4.03-3.17-7.06-7.37-7.06v-.01Z"/><path d="M352.96 19.97c-9.62 0-18.57 2.67-25.21 7.53 -2.26 1.55-3.35 3.49-3.35 5.93 0 3.35 2.56 5.98 5.84 5.98 1.41 0 3-.57 4.46-1.59 5.7-3.81 11.07-5.59 16.88-5.59 11.11 0 17.49 5.65 17.49 15.5v1.63c-24.95.02-50.33 3.04-50.33 24.74 0 15.61 13.34 22.61 26.57 22.61 10.53 0 18.94-4.18 24.34-12.08v3.8c0 5.66 3.8 7.66 7.06 7.66 .68 0 6.75-.22 6.75-7.67v-39.8c0-17.98-11.42-28.71-30.54-28.71l0 0Zm12.95 40.49h3.16v3.46c0 12.66-8.07 20.84-20.55 20.84 -3.39 0-14.44-.79-14.44-10.94 -.01-11.99 18.15-13.38 31.81-13.38v0Z"/><path d="M422.64 34.39c6.57 0 6.9-5.12 6.9-6.15 0-3.05-1.82-6.3-6.91-6.3H409.1V8.26c0-6.12-3.97-8.28-7.37-8.28 -1.26 0-7.52.39-7.52 8.27V73.2c0 14.98 7.39 22.91 21.38 22.91 3.62 0 7.14-.65 9.45-1.72 2.64-1.32 4.16-3.49 4.16-5.96 0-3.48-2.52-6-6-6 -.68 0-1.63.16-2.68.46 -1.29.32-2.16.44-3.12.44 -5.7 0-8.35-3.72-8.35-11.7V34.31h13.52v0Z"/><path d="M472.34 19.97c-22.74 0-39.23 16.11-39.23 38.31 0 10.8 3.99 20.65 11.24 27.73 7.19 7.02 17.13 10.88 27.97 10.88 22.44 0 39.38-16.61 39.38-38.63 -.01-22.2-16.57-38.32-39.39-38.32l-.01-.01Zm0 64.19c-15.59 0-23.75-13.02-23.75-25.88 0-17.68 12.3-25.73 23.74-25.73 11.43 0 23.74 8.04 23.74 25.72 0 17.78-12.31 25.87-23.75 25.87v0Z"/></g></svg>