<svg viewBox="0 0 256 225" xmlns="http://www.w3.org/2000/svg"><path fill="#8080F2" d="M77.96 80.56l48.57-28.05c1.21-.71 2.71-.71 3.92 0l48.57 28.04c1.21.7 1.96 1.99 1.96 3.4v56.08c0 1.4-.76 2.7-1.97 3.4l-48.58 28.04c-1.22.7-2.72.7-3.93 0l-48.58-28.05c-1.22-.71-1.97-2-1.97-3.41V83.92c0-1.41.75-2.71 1.96-3.41"/><path fill="#4B32C3" d="M254.41 107.41L196.31 6.34c-2.12-3.66-6.01-6.35-10.23-6.35H69.89c-4.23 0-8.12 2.69-10.23 6.34L1.56 107.17c-2.12 3.65-2.12 8.26 0 11.92l58.09 100.23c2.11 3.65 6 5.52 10.22 5.52h116.18c4.21 0 8.11-1.82 10.22-5.47l58.09-100.41c2.11-3.66 2.11-7.94 0-11.6v0ZM206.3 156c0 1.48-.9 2.86-2.19 3.6l-74 42.69c-1.29.74-2.9.74-4.19 0l-74.06-42.7c-1.29-.75-2.19-2.12-2.19-3.61V70.59c0-1.49.88-2.87 2.17-3.61l73.99-42.7c1.28-.75 2.89-.75 4.18-.001l74.06 42.69c1.28.74 2.19 2.11 2.19 3.6v85.38 0Z"/></svg>