<svg viewBox="0 0 512 226" xmlns="http://www.w3.org/2000/svg"><path fill="#0C022F" d="M92.51 41.11c10.03 0 19.33 1.46 27.9 4.4 8.81 2.69 16.88 6.85 24.23 12.48 7.09 5.62 13.46 11.87 19.09 18.72 5.87 6.85 11.01 14.19 15.41 22.02L57.62 164.44l-14.32-25.7 86.64-49.2 -1.47-.74v0c-.49-.49-.98-1.11-1.47-1.84l-1.84-1.84c-.49-.74-1.11-1.47-1.84-2.21 -.74-.49-1.6-.98-2.57-1.47l-2.21-2.21v0l-2.94-1.47v0c-.98-.74-2.09-1.35-3.31-1.84 -2.35-1.18-5.16-2.02-8.41-2.51l-.41-.07c-3.19-.49-6.86-.74-11.02-.74 -9.55 0-17.99 1.71-25.34 5.13 -7.1 3.42-13.1 8.44-17.99 15.05 -4.9 6.6-8.57 13.58-11.02 20.92 -2.45 7.34-3.68 14.92-3.68 22.76v1.1c0 7.09 1.22 13.95 3.67 20.55 2.69 6.36 6.48 12.48 11.38 18.35 4.89 5.87 10.89 10.27 17.98 13.21 7.34 2.93 15.66 4.4 24.96 4.4 10.03 0 18.35-1.11 24.96-3.31 6.85-2.45 11.99-6 15.41-10.65 3.42-4.9 6.48-10.65 9.17-17.26 2.84-6.41 5.34-13.61 7.5-21.62l.2-.78v-.37l.36-.37v-.37l31.93 1.83v1.46c0 .24.12.48.36.73v3.3c0 .24.12.48.36.73v1.83c0 1.95-.13 4.03-.37 6.24 -.25 1.95-.62 4.03-1.11 6.24 -.25.97-.62 2.08-1.11 3.3 -.25 1.22-.49 2.32-.74 3.3l-1.47 3.67c-.25.97-.62 2.08-1.11 3.3 -2.94 6.11-6.86 12.11-11.75 17.98 -4.9 5.87-10.9 11.38-17.99 16.52 -6.86 5.13-14.93 8.93-24.24 11.38 -9.06 2.69-19.22 4.03-30.48 4.03 -12.98 0-24.97-1.96-35.98-5.88 -11.02-4.17-20.93-10.41-29.74-18.73 -9.06-8.57-15.79-18.12-20.2-28.64 -4.41-10.77-6.61-22.64-6.61-35.62 0-13.71 1.83-25.83 5.5-36.35 3.67-10.53 9.17-19.58 16.52-27.17 7.34-7.59 15.05-13.83 23.12-18.73s16.52-8.45 25.33-10.65c.97-.25 1.83-.37 2.56-.37l2.93-.74h2.56l2.93-.74c1.95-.25 3.79-.37 5.5-.37 1.95-.25 3.79-.37 5.5-.37Zm329.53 0c14.44 0 27.28 1.95 38.54 5.87 11.25 3.91 20.68 9.78 28.26 17.62 7.83 7.83 13.58 16.15 17.25 24.96 3.91 8.56 5.87 17.49 5.87 26.8v103.16h-34.88V118.19c0-5.39-1.11-10.65-3.31-15.79 -1.96-5.39-5.02-10.41-9.18-15.06 -4.17-4.9-10.04-8.57-17.63-11.02 -7.59-2.45-16.77-3.68-27.54-3.68 -1.72 0-3.55.12-5.51.36 -1.72.24-3.68.61-5.88 1.1 -2.21.24-4.41.73-6.61 1.46 -2.21.73-4.41 1.71-6.61 2.93 -3.92 1.71-7.71 4.16-11.39 7.34 -3.68 2.93-7.23 6.48-10.65 10.64 -3.19 3.91-5.76 8.81-7.71 14.68 -1.96 5.62-3.19 12.11-3.68 19.45 0 9.78 1.34 18.35 4.03 25.69 2.69 7.09 6.73 13.09 12.11 17.98 5.62 4.65 11.38 8.44 17.25 11.38 6.11 2.69 12.48 4.4 19.09 5.13h1.83c.48.24.85.36 1.1.36h5.13c2.93 0 5.62-.13 8.07-.37 2.69-.49 5.26-1.23 7.7-2.21 1.22-.49 2.32-.98 3.3-1.47l3.67-1.47c.97-.74 2.08-1.47 3.3-2.21 1.22-.74 2.32-1.6 3.3-2.57 1.22-.74 2.32-1.6 3.3-2.57 1.22-1.23 2.44-2.33 3.67-3.31 1.22-1.23 2.44-2.33 3.67-3.31l3.67-3.68v40.01c-.22.43-.44.77-.66 1.01l-.09.08v.36c-2.94 1.95-6 3.79-9.18 5.5 -3.19 1.46-6.49 2.81-9.92 4.03 -3.43.97-7.59 1.71-12.49 2.2 -4.9.73-10.53 1.1-16.89 1.1h-4.78c-11.26 0-21.79-1.96-31.58-5.88 -9.55-4.17-18.36-10.41-26.44-18.73 -8.08-8.57-14.2-18.36-18.36-29.37 -3.92-11.26-5.88-23.87-5.88-37.82 0-12.24 1.95-23.62 5.87-34.15 3.91-10.53 9.78-20.2 17.62-29.01 7.83-8.82 17.49-15.42 29-19.83 11.5-4.41 24.84-6.61 40.01-6.61ZM253.88-.01v43.32h66.81v31.57h-66.82v89.57c0 3.42.24 6.48.73 9.17 .48 2.69 1.22 5.26 2.2 7.7 .97 2.44 3.05 4.28 6.24 5.5 3.42.97 8.07 1.46 13.95 1.46l40.75-.74v31.93h-45.53l-.37.36h-2.57c-8.33 0-15.55-1.23-21.67-3.68 -6.12-2.45-11.14-6.25-15.06-11.39 -3.92-5.14-6.98-10.65-9.18-16.53 -1.96-5.88-3.19-12-3.68-18.36 -.25-.49-.37-.98-.37-1.47V-.11h34.5Z"/></svg>