<svg viewBox="0 0 512 92" xmlns="http://www.w3.org/2000/svg"><path fill="#F05537" d="M24.2 31.23c16.81-3.85 33.62 6.48 37.46 22.95 .37 1.74.62 3.55.73 5.37l.03.68 -9.56 2.13 -4.96 1.1 -30.65 6.91c3.84 5.46 10.83 8.27 17.75 6.74 4.05-.92 7.62-3.27 10.02-6.6l.22-.32 14.5 3.41c-3.93 8.44-11.61 15.1-21.51 17.32C21.41 94.76 4.68 84.51.76 67.96 -3.17 51.4 7.33 35.01 24.14 31.17Zm449.55.08c16.81-3.85 33.62 6.48 37.46 22.95 .37 1.74.62 3.55.73 5.37l.03.68 -9.56 2.13 -4.96 1.1 -30.65 6.91c3.84 5.46 10.83 8.27 17.75 6.74 4.05-.92 7.62-3.27 10.02-6.6l.22-.32 14.5 3.32c-3.93 8.44-11.61 15.1-21.51 17.32 -16.82 3.84-33.63-6.49-37.47-22.96 -3.93-16.48 6.57-32.87 23.38-36.71Zm-332.11 0c16.81-3.85 33.54 6.48 37.46 22.95 .37 1.74.62 3.55.73 5.37l.03.68 -9.56 2.13 -4.96 1.1 -30.65 6.91c4.01 5.63 11.01 8.27 17.75 6.74 4.18-.94 7.85-3.42 10.24-6.92l10.25 2.31c2.38.54 4.25.98 4.25 1.01 -3.93 8.44-11.61 15.1-21.51 17.32 -16.82 3.84-33.63-6.49-37.47-22.96 -3.93-16.48 6.57-32.87 23.38-36.71ZM300.9-.02v35.84c4.77-3.85 10.41-5.47 16.64-5.47 17.58 0 31.66 13.57 31.66 30.55 0 16.89-14.09 30.72-31.67 30.72 -6.15 0-11.87-1.63-16.65-5.47v3.84h-15.45V3.44l15.44-3.5Zm68.53 31.4v5.2c4.68-3.35 9.19-4.56 16.83-5.01l.49-.03v15.02c-14.96.5-17.29 5.53-17.33 14.41L369.41 90h-15.45V31.36h15.44ZM268.54 7.31v24.06h12.03v14.59h-12.04V90h-16.05V45.95H243v-14.6h9.47V10.86l16.04-3.59Zm-53.27 22.95c13.05 0 24.41 7.51 24.41 25.86v33.79h-15.54V58.67c0-11.12-5.89-13.72-11.91-13.83l-.39-.01 -.39 0c-6.02.09-11.91 2.53-11.91 13.56v31.58h-15.45V31.33h15.44v4.35l1.14-.83c3.21-2.27 7.25-4.64 14.55-4.64Zm-140.75 1.1l15.19 39.77 15.36-39.78h16.81L97.81 89.98H81.76L57.69 31.34H74.5Zm333.04 0v58.63h-15.45V31.35h15.44Zm31.15-20.49v20.48h12.03V46.2H438.7v43.7h-16.05V46.28h-9.48V31.34h9.47V10.85h16.04ZM317.42 44.41c-9.14 0-16.56 7.25-16.9 15.7v1.45c.42 8.53 7.85 15.7 16.89 15.7 9.21 0 16.81-7.52 16.81-16.48 0-8.8-7.6-16.39-16.82-16.39ZM464.05 58.4l30.55-6.92c-4.02-5.55-11.02-8.2-17.67-6.66 -6.81 1.51-11.63 6.9-12.84 13.25l-.06.31 30.55-6.92 -30.56 6.91Zm-332.11 0l30.55-6.92c-3.85-5.38-10.76-8.2-17.67-6.66 -6.81 1.51-11.71 6.9-12.84 13.26l-.06.3 30.55-6.92 -30.56 6.91Zm-117.45 0l30.55-6.92c-3.85-5.38-10.76-8.2-17.67-6.66 -6.81 1.51-11.71 6.82-12.84 13.25l-.06.31 30.55-6.92 -30.56 6.91ZM399.85 1.29c5.54-.001 9.64 4.09 9.64 9.47 0 5.46-4.19 9.64-9.65 9.64 -5.55 0-9.82-4.19-9.82-9.65 0-5.47 4.26-9.48 9.81-9.48Z"/></svg>