<svg viewBox="0 0 512 149" xmlns="http://www.w3.org/2000/svg"><path fill="#222" d="M3.33 115.62V58.63h71.14v-3.34H3.32V3.3h75.64V-.04H-.02v118.96h79.64v-3.34H3.31v0Zm140.45-82.31l-29.5 38.82L85.45 33.3h-4.34l31.15 41.31 -34.16 44.31h3.99l32.15-41.82 32.32 41.81h4.16l-34.33-44.32 31.32-41.32h-4v0Zm16.99 114.96V94.95h.33c1.99 7.77 5.94 14.02 11.82 18.74 5.88 4.72 13.38 7.08 22.49 7.08 5.88 0 11.1-1.2 15.66-3.59 4.55-2.39 8.35-5.64 11.41-9.75 3.05-4.11 5.38-8.89 6.99-14.33 1.61-5.45 2.41-11.17 2.41-17.17 0-6.45-.84-12.39-2.5-17.83 -1.67-5.45-4.09-10.17-7.25-14.17 -3.17-4-7-7.11-11.5-9.34 -4.5-2.23-9.59-3.34-15.25-3.34 -4.34 0-8.36.63-12.08 1.91 -3.73 1.27-7.03 3.08-9.92 5.41 -2.89 2.33-5.39 5.08-7.5 8.24 -2.12 3.16-3.73 6.63-4.84 10.41h-.34v-24h-3.34v114.96h3.33v0Zm34.65-30.66c-10.45 0-18.83-3.59-25.16-10.75 -6.34-7.17-9.5-17.47-9.5-30.91 0-5.56.77-10.83 2.33-15.83 1.55-5 3.8-9.39 6.74-13.17 2.94-3.78 6.58-6.78 10.91-9 4.33-2.23 9.21-3.34 14.66-3.34 5.55 0 10.41 1.11 14.57 3.33 4.16 2.22 7.6 5.24 10.32 9.08 2.72 3.83 4.77 8.21 6.16 13.16 1.38 4.94 2.08 10.19 2.08 15.74 0 4.99-.64 9.96-1.92 14.91 -1.28 4.94-3.25 9.38-5.92 13.32 -2.67 3.94-6.09 7.16-10.25 9.66 -4.17 2.49-9.2 3.74-15.08 3.74v0 0Zm54.81 1.33V70.45c0-4.67.66-9.22 1.99-13.67 1.33-4.45 3.38-8.36 6.16-11.75 2.77-3.39 6.3-6.06 10.57-8 4.27-1.95 9.35-2.75 15.24-2.42v-3.34c-5.11-.12-9.59.44-13.42 1.66 -3.84 1.22-7.14 2.88-9.92 4.99 -2.78 2.11-5 4.58-6.67 7.41s-2.89 5.85-3.67 9.08h-.34V33.25h-3.34v85.63h3.33v0Zm38.15-42.16h71.64c.22-5.89-.37-11.56-1.75-17 -1.39-5.45-3.61-10.28-6.67-14.5 -3.06-4.23-7-7.61-11.83-10.17 -4.84-2.56-10.58-3.84-17.25-3.84 -4.78 0-9.45.99-14 2.99 -4.56 1.99-8.56 4.91-12 8.74 -3.45 3.83-6.23 8.52-8.34 14.07 -2.12 5.55-3.17 11.88-3.17 18.99 0 6.33.72 12.24 2.16 17.74 1.44 5.49 3.66 10.27 6.66 14.32 2.99 4.05 6.85 7.19 11.57 9.41 4.72 2.22 10.41 3.27 17.07 3.16 9.77 0 17.99-2.75 24.65-8.25s10.6-13.25 11.82-23.25h-3.34c-1.45 9.44-5.14 16.52-11.08 21.24 -5.95 4.72-13.42 7.08-22.41 7.08 -6.11 0-11.28-1.06-15.5-3.17 -4.23-2.12-7.67-5-10.33-8.67 -2.67-3.67-4.64-7.97-5.92-12.92 -1.28-4.95-1.98-10.31-2.09-16.08v0 0Zm68.31-3.34h-68.32c.33-6 1.44-11.39 3.33-16.17 1.88-4.78 4.35-8.86 7.41-12.25 3.05-3.39 6.6-5.98 10.66-7.75 4.05-1.78 8.41-2.67 13.07-2.67 5.55 0 10.44 1.02 14.66 3.08 4.22 2.05 7.74 4.85 10.57 8.41 2.83 3.55 4.97 7.69 6.41 12.41 1.44 4.72 2.16 9.69 2.16 14.91v0 0Zm72.47-14.83h3.33c0-9.56-2.78-16.5-8.34-20.83 -5.56-4.34-13.11-6.5-22.66-6.5 -5.34 0-9.84.66-13.5 1.99 -3.67 1.33-6.67 3.05-9 5.16 -2.34 2.11-4 4.44-5 6.99s-1.5 4.99-1.5 7.33c0 4.66.83 8.38 2.49 11.16 1.66 2.77 4.27 4.94 7.83 6.49 2.44 1.11 5.22 2.11 8.33 2.99 3.11.88 6.72 1.83 10.82 2.83 3.66.88 7.27 1.77 10.82 2.66 3.55.88 6.69 2.08 9.41 3.58 2.72 1.49 4.94 3.41 6.66 5.74 1.72 2.33 2.58 5.38 2.58 9.16 0 3.66-.87 6.77-2.59 9.33 -1.73 2.55-3.92 4.63-6.59 6.24 -2.67 1.61-5.64 2.77-8.92 3.49 -3.28.72-6.48 1.08-9.59 1.08 -10.11 0-17.86-2.25-23.25-6.75 -5.39-4.5-8.09-11.58-8.09-21.25h-3.34c0 10.77 2.91 18.66 8.74 23.65 5.83 4.99 14.46 7.49 25.9 7.49 3.66 0 7.35-.42 11.07-1.25 3.72-.84 7.05-2.2 9.99-4.09 2.94-1.89 5.33-4.34 7.16-7.34s2.74-6.67 2.74-11c0-4.11-.81-7.45-2.42-10 -1.62-2.56-3.73-4.67-6.34-6.34 -2.62-1.67-5.56-2.98-8.84-3.92 -3.28-.95-6.59-1.87-9.92-2.75 -4.67-1.23-8.75-2.28-12.25-3.17 -3.5-.89-6.75-1.95-9.75-3.17 -2.89-1.23-5.2-2.98-6.92-5.25 -1.73-2.28-2.59-5.53-2.59-9.75 0-.78.22-2.17.66-4.17 .44-2 1.49-4.03 3.16-6.09 1.66-2.06 4.22-3.89 7.66-5.5 3.44-1.62 8.16-2.42 14.16-2.42 4.1 0 7.85.44 11.24 1.33 3.38.88 6.3 2.3 8.74 4.24 2.44 1.94 4.33 4.41 5.66 7.41 1.33 2.99 1.99 6.66 1.99 10.99v0 0Zm77.14 0h3.33c0-9.56-2.78-16.5-8.34-20.83 -5.56-4.34-13.11-6.5-22.66-6.5 -5.34 0-9.84.66-13.5 1.99 -3.67 1.33-6.67 3.05-9 5.16 -2.34 2.11-4 4.44-5 6.99s-1.5 4.99-1.5 7.33c0 4.66.83 8.38 2.49 11.16 1.66 2.77 4.27 4.94 7.83 6.49 2.44 1.11 5.22 2.11 8.33 2.99 3.11.88 6.72 1.83 10.82 2.83 3.66.88 7.27 1.77 10.82 2.66 3.55.88 6.69 2.08 9.41 3.58 2.72 1.49 4.94 3.41 6.66 5.74 1.72 2.33 2.58 5.38 2.58 9.16 0 3.66-.87 6.77-2.59 9.33 -1.73 2.55-3.92 4.63-6.59 6.24 -2.67 1.61-5.64 2.77-8.92 3.49 -3.28.72-6.48 1.08-9.59 1.08 -10.11 0-17.86-2.25-23.25-6.75 -5.39-4.5-8.09-11.58-8.09-21.25h-3.34c0 10.77 2.91 18.66 8.74 23.65 5.83 4.99 14.46 7.49 25.9 7.49 3.66 0 7.35-.42 11.07-1.25 3.72-.84 7.05-2.2 9.99-4.09 2.94-1.89 5.33-4.34 7.16-7.34s2.74-6.67 2.74-11c0-4.11-.81-7.45-2.42-10 -1.62-2.56-3.73-4.67-6.34-6.34 -2.62-1.67-5.56-2.98-8.84-3.92 -3.28-.95-6.59-1.87-9.92-2.75 -4.67-1.23-8.75-2.28-12.25-3.17 -3.5-.89-6.75-1.95-9.75-3.17 -2.89-1.23-5.2-2.98-6.92-5.25 -1.73-2.28-2.59-5.53-2.59-9.75 0-.78.22-2.17.66-4.17 .44-2 1.49-4.03 3.16-6.09 1.66-2.06 4.22-3.89 7.66-5.5 3.44-1.62 8.16-2.42 14.16-2.42 4.1 0 7.85.44 11.24 1.33 3.38.88 6.3 2.3 8.74 4.24 2.44 1.94 4.33 4.41 5.66 7.41 1.33 2.99 1.99 6.66 1.99 10.99v0 0Z"/></svg>