<svg viewBox="0 0 256 256" xmlns="http://www.w3.org/2000/svg"><path fill="#1877F2" d="M256 128C256 57.3 198.69 0 128 0 57.3 0 0 57.3 0 128c0 63.88 46.8 116.84 108 126.445V165H75.5v-37H108V99.8c0-32.08 19.1-49.8 48.34-49.8 14 0 28.65 2.5 28.65 2.5V84h-16.15c-15.91 0-20.86 9.86-20.86 19.98v24.01h35.5l-5.68 37h-29.83v89.445c61.19-9.61 108-62.56 108-126.445"/><path fill="#FFF" d="M177.82 165l5.67-37h-35.5v-24.02c0-10.13 4.95-19.99 20.85-19.99h16.14v-31.5s-14.65-2.5-28.66-2.5c-29.238 0-48.35 17.72-48.35 49.8v28.2h-32.5v37h32.5v89.445c6.51 1.02 13.19 1.55 20 1.55 6.8 0 13.48-.54 20-1.56V164.98h29.82"/></svg>