<svg viewBox="0 0 512 199" xmlns="http://www.w3.org/2000/svg"><path fill="#FF282D" d="M444.02 49.1v19.94h-13.25l19.51 48 19.51-48.01h-13.22V49.08h55.42v19.94h-13.25l-33.99 83.61c-9.75 23.48-25.75 45.59-50.11 45.59 -6 0-13.97-.67-19.5-2l2.43-24.39 .42.07c.14.02.28.05.43.07l.43.07c.07.01.14.02.22.03l.44.06c.07.01.15.02.22.03l.45.06c.07.01.15.02.22.03l.68.09v0l.46.05v0l.45.05v0l.45.05v0l.45.04v0l.45.04v0l.44.04v0l.43.03v0l.43.03v0l.42.03v0l.41.02v0l.4.02v0l.38.02v0l.37.01v0l.35.01v0l.34.01v0l.32 0v0l.3 0c.04 0 .09 0 .14 0 11.3 0 24.04-7.01 28.03-19.2l-34.44-84.75h-13.25V48.89h55.44ZM375.31-.01v133.52h13.26v20.41h-40.13V20.33l-.01-20.35 26.87-.01Zm-329.23 0c5.98 0 13.08.88 19.29 2l-3.69 21.84 -.45-.08v0l-.65-.1v0l-.42-.06v0l-.59-.09v0l-.57-.08v0l-.54-.07v0l-.35-.05v0l-.5-.06v0l-.48-.05v0l-.31-.03v0l-.31-.03v0l-.45-.04v0l-.29-.02v0l-.43-.03v0l-.28-.02v0l-.28-.02v0l-.42-.02c-.05-.01-.1-.01-.14-.01l-.29-.01c-.26-.01-.51-.01-.76-.02l-.54-.01 -.3 0v0l-.57 0c-.1 0-.19 0-.28 0l-.55 0v0l-.53.01c-.18 0-.35 0-.51.01l-.5.01c-7.12.3-9.03 2.06-9.03 10.45v15.52h20.27v19.96H40.35v64.45h13.49v20.4l-54.01 0v-20.42h13.64V68.87H-.18V51.14l13.64-2.25V30.94C13.46 9.2 18.19-.23 45.9-.23Zm83.44 28.28v6.82h-3.28v9.27h-.16c6.44 1.19 12.5 3.5 17.95 6.72l.31.18v-7.85h26.87l.01 83.61h6.42v26.86h-28.39l-4.85-7.91c-8.32 5-18.05 7.89-28.46 7.89 -30.51 0-55.24-24.73-55.24-55.24 0-26.8 19.08-49.13 44.4-54.16l.76-.15h-.19v-9.28h-3.28V28.2h27.05Zm-11.93 41.96v3.17h-3.22v-3.17c-14.21.82-25.61 12.08-26.67 26.22l-.03.42h3.18v3.21h-3.2c.74 14.3 12.05 25.79 26.27 26.84l.43.02v-3.15h3.21v3.15c14-.75 25.31-11.64 26.73-25.46l.03-.42v-.89h-3.23v-3.22h3.22v-.93c-1.24-14.02-12.63-25.11-26.77-25.87Zm10.44 14.38l2.04 2.04L120.8 97c.15.49.23 1.02.23 1.56 0 2.88-2.28 5.21-5.08 5.21 -2.81 0-5.08-2.34-5.08-5.22s2.26-5.22 5.07-5.22c.53 0 1.04.08 1.52.24l.14.04 10.38-9.05Zm206.72 42.44c-1.88.39-3.66.59-5.28.69l-.46.02v0l-.46.02v0l-.45.01v0l-.44.01v0l-.64.01v0l-.42 0v0l-1.91.02v0l-.36 0v0l-.18 0c-8.52.2-9.91-1.9-10.1-7.64l-.02-.46c-.01-.24-.01-.47-.02-.71l-.01-.5v0l-.01-.51v0l0-.53v0l.01-2.55v0l0-.92v0V68.94h21.04V48.97h-21.05V-.14h-26.88v119.7c0 23.5 5.8 34.22 31.07 34.22 3.54 0 7.88-.55 12.11-1.26l.79-.14v0l.78-.15v0l.78-.15v0l.77-.15c.12-.03.25-.05.38-.08l.76-.15v0l.75-.15c.12-.03.25-.06.37-.08l.74-.16v0l.72-.16v0l.71-.15v0l.69-.15v0l-4-23.99Zm-81.06-58.04v-3.58c-.19-.04-.38-.07-.57-.1l-.57-.1v0l-.56-.1c-.28-.05-.56-.09-.84-.13l-.56-.09v0l-.56-.08c-.1-.02-.19-.03-.28-.04l-.56-.08c-.1-.02-.19-.03-.28-.04l-.55-.07v0l-.55-.07v0l-.55-.06v0l-.54-.06v0l-.54-.06v0l-.54-.05v0l-.53-.05v0l-.53-.05v0l-.52-.04v0l-.77-.06v0l-.76-.05v0l-.75-.05v0l-.49-.03v0l-.49-.03v0l-.48-.03v0l-.71-.03v0l-.46-.02v0l-.9-.03v0l-.66-.02v0l-.84-.02v0l-1-.02v0l-.94-.01v0l-1.84-.01v0c-11.63 0-13.77 5.73-14.01 9.42l-.02.23v0l-.01.22c-.01.03-.01.07-.01.11l-.01.21v0c0 5.08 1.73 7.83 15.28 10.79l1.18.26v0l1.18.26c.19.04.39.08.59.13l1.18.27c18.33 4.24 35.53 9.85 35.53 32.69 0 23.28-11.99 35.31-37.21 35.31 -8.11 0-16.09-.84-23.59-2.06l-.94-.16v0l-.93-.16c-.31-.06-.62-.11-.93-.17l-.92-.17c-.31-.06-.61-.12-.92-.17l-.91-.18c-.16-.03-.31-.06-.46-.09l-.9-.18v0l-.9-.18c-.15-.03-.3-.06-.45-.09l-.89-.19v0l-.88-.19v0l-.87-.19v0l-.87-.19v0l-.86-.19c-.15-.04-.29-.07-.43-.1l-.85-.2v0l-.84-.2v0l-.83-.2v0l-.82-.2v0l-1.22-.29v0l-1.2-.29v0l-.79-.2v0l-1.17-.29v0l-1.15-.29c-.13-.04-.26-.07-.38-.1v-20.07h20.34l-.02 3.56 .55.1c.55.1 1.12.19 1.68.28l.56.08c.09.01.18.02.28.04l.56.07c.28.03.56.07.83.11l.55.06v0l.55.06v0l.55.06c.09 0 .18.01.27.02l.55.05c.09 0 .18.01.27.02l.54.05v0l.54.04v0l.54.04v0l.54.04v0l.53.03v0l.53.03v0l.52.03v0l.52.02v0l.77.03v0l.51.02v0l.5.02v0l.74.02v0l.73.02v0l.72.01v0l.7.01v0l.91.01v0l.88 0v0l1.26 0v0l1.73-.01v0l1.67-.01v0c13.33 0 15.49-7.18 15.49-10.99 0-5.03-3.46-7.58-14.52-9.99l-.71-.16c-.36-.08-.73-.16-1.11-.23 -23.56-4.03-42.25-12.07-42.25-36 0-22.65 15.14-31.54 40.37-31.54 6.66 0 12.7.4 18.34 1.08l.86.1c.14.01.28.03.42.05l.85.11c.14.01.28.03.42.05l.84.11v0l.83.12v0l.83.12c.41.06.82.13 1.24.19l.82.13v0l.81.13c.13.02.27.04.4.07l.8.14v0l.8.14c.13.02.26.05.4.07l.79.15c.13.02.26.05.39.07l.79.15v0l.78.16v0l.78.16c.13.02.26.05.39.08l.77.16c.12.02.25.05.38.08l.77.17v0l.77.17v0l.76.17v0l.76.17v0l.76.17v0l.76.18v0l.75.18v0l1.13.27v0l1.12.28v0l.75.18c.12.03.25.06.37.09v19.93h-20.35Z"/></svg>