<svg viewBox="0 0 256 165" xmlns="http://www.w3.org/2000/svg"><path d="M247.94 23.31l8.05-20.87 -.36-1.3 -79.72 21c8.49-12.3 5.58-22.16 5.58-22.16s-25.46 16.25-44.71 15.83c-19.26-.43-25.46-5.57-54.98 3.85 -29.52 9.4-37.87 38.29-46.42 44.5C26.82 70.36-.03 90.57-.03 90.57l.05.35 24.2-7.71s-6.64 6.25-20.75 25.26c0 0-.25-.23-.66-.61l.02.13s11.33 17.32 22.46 14.12c1.11-.33 2.37-.86 3.75-1.56 4.47 2.49 10.32 4.94 16.78 5.62 0 0-4.38-5.08-8.02-10.87 .98-.64 1.99-1.3 3.01-1.97l-.48.33 9.21 3.38 -1.02-8.67c.03-.02.05-.05.09-.06l9.05 3.32 -1.13-7.89c1.15-.61 2.29-1.17 3.43-1.7l9.44-35.72 39.04-26.64 -3.11 7.8c-7.92 19.46-22.78 24.06-22.78 24.06l-6.21 2.35c-4.62 5.45-6.56 6.79-8.15 25.1 3.72-.94 7.27-1.16 10.49-.3 16.68 4.49 22.46 24.59 17.96 30.16 -1.13 1.39-3.81 3.77-7.19 6.56h-6.78l-.1 5.48c-.24.18-.47.35-.7.54h-6.89l-.09 5.35c-.61.46-1.22.91-1.81 1.35 -6.48.13-14.68-5.52-14.68-5.52 0 5.13 4.27 13.04 4.27 13.04s.28-.14.75-.37c-.42.3-.66.47-.66.47s17.32 11.55 28.23 7.27c9.7-3.81 34.81-23.61 56.49-32.99l65.6-17.29 8.64-22.42 -50 13.17V83.36l58.66-15.46 8.64-22.42 -67.3 17.73V43.07l75.94-20.02Z"/></svg>