<svg viewBox="0 0 256 290" xmlns="http://www.w3.org/2000/svg"><path fill="#3A1AB6" d="M198.88 60.85c-17.59 5.99-26.05 16.73-31.82 33.46 -1.49 4.46-5.21 9.41-9.4 12.74l14.41 15.78 -45.77-32.71L-.03-.02s9.11 60.47 12.27 82.72c2.23 15.68 6.04 22.72 18.13 29.85l4.83 2.66 20.83 11.22 -12.38-6.57 57.11 31.85 -.38.85 -61.49-29.1c3.25 11.4 9.58 33.37 12.27 43.07 2.88 10.45 6.13 14.26 16.09 17.97l18.32 6.84 11.34-4.57 -14.42 9.79 -72.1 93.46c47.9-45.45 88.46-61.62 118.13-74.83 37.86-16.74 60.65-27.48 75.53-66.09 10.6-27.1 18.88-61.81 29.39-75.21l22.41-29.29s-46.42 12.55-57.12 16.16Z"/></svg>