<svg viewBox="0 0 256 256" xmlns="http://www.w3.org/2000/svg"><path fill="#333" d="M128 9.102c65.66 0 118.89 53.23 118.89 118.898 0 65.66-53.24 118.89-118.9 118.89 -65.67 0-118.898-53.24-118.898-118.9C9.09 62.32 62.32 9.09 127.99 9.09m0-9.11c-70.58 0-128 57.421-128 128 0 70.57 57.421 128 128 128 70.57 0 128-57.43 128-128 0-70.58-57.43-128-128-128M148.82 25.5c-10.43-1.9-35.66 36.409-44 59.73 -.64 1.76-2.09 8.24-2.09 9.95 0 0 6.53 14.05 8.34 17.351 -3.04-1.58-9.33-13.76-9.33-13.76 -3.04 5.78-5.95 32.34-4.994 37.27 0 0 6.76 10.06 9.387 12.57 -3.61-1.21-9.68-9.36-9.68-9.36 -1.14 3.5-.92 10.8-.38 13.27 4.55 6.63 10.619 7.39 10.619 7.39s-6.64 66.18 3.41 71.11c6.25-1.33 7.77-73.96 7.77-73.96s7.58.56 9.29-1.33c3.85-2.66 12.82-30.23 12.95-34.21 0 0-10.41 1.95-15.49 3.92 3.82-3.8 16.04-6.36 16.04-6.36 3.31-3.98 10.29-31.05 10.994-39.4 .17-2.1.58-4.66.26-8.4 0 0-9.95 2.17-12.02 1.42 2.1-.24 12.26-4.14 12.26-4.14 1.8-16.22 2.35-42.1-3.42-43.15v0Zm-36.38 171.69c-.8 19.49-1.3 25-2.12 29.6 -.38.85-.76.99-1.14-.1 -3.48-16-3.23-136.438 36.4-191.241 -23.05 42.092-33.535 122.86-33.16 161.73v0Z"/></svg>