<svg viewBox="0 0 512 138" xmlns="http://www.w3.org/2000/svg"><defs><radialGradient id="a" fr="0%" fx="19.931%" fy="18.851%" cx="19.931%" cy="18.851%" r="50.648%" gradientTransform="translate(.199316.188518)"><stop offset="0%" stop-color="#FFF"/><stop offset="100%" stop-color="#007808"/></radialGradient></defs><g fill="#0B4819"><path d="M1.16 28.2l0-16.63 11.15 3.84 0 15.46Z"/><path d="M10.16 96.53l0-61.81 10.66 2.25 0 57.43Z"/></g><path fill="#105C80" d="M62.32 11.55L34.91 42.98l0 13.37 40.65-45.84 64.38-4.99 -94.71 98.71 12.6.66 68.78-70.36 0 66.49 -7.65 7.18 19.38 1.04 0 18.4 -60.8-4.71 30.99-30.07 0-14.82 -44.31 43.84 -53.06-4.11 85.09-91.52 -14.01.75 -61.49 67.32 0-57.44L26.57 30l-14.33.77 0-15.47Z"/><path fill="#0B4819" d="M10.16 34.73l6.16-7.43 10.32 2.8 -5.83 6.87Z"/><path fill="#084010" d="M25.1 41.15l9.81 1.84 0 13.37 -9.82-.81Z"/><path fill="#0C541E" d="M36.08 107.23l9.15-2.97 12.6.66 -8.32 3.07Z"/><path fill="#1A5C34" d="M54.31 7.08l8.01 4.47 -27.41 31.43 -9.82-1.85Z"/><path fill="#0B4819" d="M25.1 55.56L68.48 5.88l7.08 4.64L34.9 56.35Z"/><path fill="#1A5C34" d="M75.72 23.79l6.58 3.3 -61.49 67.32 -10.67 2.1Z"/><path fill="#0B4819" d="M0 121.68l90.78-98.79 5.52 3.44 -85.1 91.51Z"/><path fill="#1A5C34" d="M104.01 79.1l4.56-1 -44.31 43.84 -7.88 4.49Z"/><g fill="#0B4819"><path d="M104.01 95.21l0-16.11 4.56-1 0 14.81Z"/><path d="M70.65 127.66l33.36-32.46 4.56-2.28 -31 30.06Z"/></g><path fill="#13802D" d="M123.56 104.13l-8.29 7.78 3.71-3.67 7.64-7.19Z"/><path fill="#0B4819" d="M49.53 108l74.03-76.3 3.07 2.86 -68.79 70.35Z"/><g fill="#084010"><path d="M123.56 31.7l3.07 2.86 0 66.49 -3.08 3.06Z"/><path d="M136.32 113.15l2.05-3.86 0 18.4 -2.06 5.52Z"/></g><path fill="#1A5C34" d="M138.02 0l1.92 5.54 -94.71 98.71 -9.16 2.96Z"/><path fill="url(#a)" d="M54.31 7.08L25.1 41.14l0 14.41L68.48 5.87l69.54-5.89L36.07 107.21l13.44.77 74.03-76.3 0 72.42 -8.29 7.78 21.03 1.24 0 20.07 -65.67-5.57 33.36-32.46 0-16.11 -47.63 47.35 -56.4-4.78 90.78-98.79 -15.07.88 -65.57 72.73 0-61.81 6.16-7.43 -15.17.89 -.001-16.63Z"/><path d="M177.03 67.73h23.38v14.63h-23.39v32.57h-12.6v0V36.25h44.28v14.68H177v16.78Zm49.07 0h23.38v14.63h-23.39v32.57H213.5v0V36.25h44.28v14.68h-31.71v16.78Zm51.08 13.64v33.56h-14.69V64l14.68-1.58v4.66c3.28-3.09 7.48-4.62 12.58-4.62 6.64 0 11.71 2.01 15.21 6.03 3.84-4.03 9.61-6.04 17.3-6.04 6.64 0 11.71 2.01 15.21 6.03 3.49 4.02 5.24 8.65 5.24 13.89v32.51h-14.69V86.03c0-3.5-.79-6.21-2.37-8.13 -1.58-1.92-4.13-2.94-7.66-3.05 -2.91.2-5.42 2.13-7.56 5.77 -.18 1.09-.27 2.18-.27 3.31v30.94h-14.69V86.02c0-3.5-.79-6.21-2.37-8.13 -1.58-1.92-4.12-2.94-7.65-3.05 -3.22.2-6 2.35-8.35 6.44v0Zm72.94 55.59V64l14.68-1.58v4.19c3.91-2.81 7.76-4.2 11.54-4.2 8.04 0 14.42 2.61 19.14 7.85 4.72 5.25 7.08 11.36 7.08 18.35 0 6.99-2.37 13.11-7.09 18.35 -4.73 5.24-11.1 7.86-19.15 7.86 -5.25-.36-9.09-1.77-11.55-4.25v26.38l-14.69-.05Zm14.68-53.03v8.5c.69 5.86 4.36 9.32 11.01 10.32 8.39-.67 13.11-5.02 14.16-13.06 -.36-9.8-5.08-14.86-14.17-15.22 -6.65 1.05-10.32 4.2-11.02 9.44v0Zm40.1 4.76c0-7.7 2.44-14 7.34-18.89 4.89-4.9 11.18-7.35 18.88-7.35 7.69 0 13.8 2.44 18.35 7.34 4.54 4.88 6.82 11.18 6.82 18.88v5.24H420.1c.35 2.79 1.57 4.98 3.67 6.55 2.09 1.57 4.54 2.36 7.34 2.36 4.89 0 9.26-1.4 13.11-4.19l8.39 8.38c-3.85 5.24-11.02 7.86-21.51 7.86 -7.7 0-13.99-2.45-18.89-7.35 -4.9-4.9-7.34-11.19-7.34-18.89Zm33.56-11.8c-2.11-1.58-4.55-2.37-7.35-2.37s-5.25.78-7.35 2.36c-2.1 1.57-3.15 3.75-3.15 6.55h20.98c-.02-2.8-1.07-4.99-3.16-6.56Zm73.51-12.85v46.67c0 7.34-2.19 13.48-6.56 18.41 -4.38 4.92-9.88 7.53-16.53 7.82l-3.15.31c-10.14-.21-18.02-3.11-23.61-8.71l6.82-7.87c3.84 2.8 8.51 4.36 14 4.72 5.59 0 9.38-1.32 11.35-3.94 1.98-2.62 2.96-5.51 2.96-8.65v-2.62c-3.92 3.14-8.47 4.72-13.64 4.72 -8.05 0-14.08-2.37-18.1-7.09 -4.03-4.73-6.04-11.1-6.04-19.15 0-7.7 2.18-14 6.55-18.89 4.37-4.9 10.57-7.35 18.61-7.35 5.94.35 10.13 1.93 12.58 4.77v-4.78l14.68 1.55ZM497.28 93.4v-8.5c-.7-5.87-4.37-9.33-11.02-10.33 -8.75.31-13.47 4.66-14.17 13.05 .35 9.79 5.07 14.85 14.16 15.21 6.64-1.06 10.31-4.21 11.01-9.46v0Z"/></svg>