<svg viewBox="0 0 256 384" xmlns="http://www.w3.org/2000/svg"><path fill="#0ACF83" d="M64 384c35.32 0 64-28.68 64-64v-64H64c-35.328 0-64 28.67-64 64 0 35.32 28.672 64 64 64Z"/><path fill="#A259FF" d="M0 192c0-35.328 28.672-64 64-64h64v128H64c-35.328 0-64-28.68-64-64Z"/><path fill="#F24E1E" d="M0 64C0 28.67 28.672 0 64 0h64v128H64C28.67 128 0 99.32 0 64Z"/><path fill="#FF7262" d="M128 0h64c35.32 0 64 28.672 64 64 0 35.32-28.68 64-64 64h-64V0Z"/><path fill="#1ABCFE" d="M256 192c0 35.32-28.68 64-64 64 -35.328 0-64-28.68-64-64 0-35.328 28.67-64 64-64 35.32 0 64 28.67 64 64Z"/></svg>