<svg viewBox="0 0 256 351" xmlns="http://www.w3.org/2000/svg" xmlns:xlink="http://www.w3.org/1999/xlink"><defs><path d="M134.41 148.97l32.03-32.82 -32.04-61.01c-3.05-5.8-10.44-6.4-13.45-.6l-17.71 34.1 -.53 1.74 31.67 58.55Z" id="b"/><path d="M1.25 280.73l1.6-3.14L102.2 89.07 58.05 5.59c-3.67-6.9-12.99-5.14-14.2 2.57L1.23 280.7Z" id="a"/></defs><path fill="#FFC24A" d="M0 282.99l2.12-2.98 100.4-190.52 .21-2.02L58.46 4.33C54.75-2.64 44.31-.88 43.09 6.92L-.03 282.96Z"/><use fill="#FFA712" fill-rule="evenodd" xlink:href="#a"/><use xlink:href="#a"/><path fill="#F4BD62" d="M135 150.38l32.95-33.76 -32.97-62.94c-3.13-5.96-11.87-5.98-14.97-.01l-17.62 33.58v2.86l32.58 60.23Z"/><use fill="#FFA50E" fill-rule="evenodd" xlink:href="#b"/><use xlink:href="#b"/><path fill="#F6820C" d="M0 282.99l.96-.97 3.49-1.43 128.47-128 1.62-4.44 -32.05-61.08Z"/><path fill="#FDE068" d="M139.12 347.55l116.27-64.85 -33.21-204.5c-1.04-6.4-8.89-8.93-13.47-4.34L-.02 282.98l115.6 64.54c7.3 4.07 16.2 4.08 23.51 0"/><path fill="#FCCA3F" d="M254.35 282.15L221.39 79.2c-1.04-6.35-7.56-8.98-12.11-4.43L1.27 282.57l114.33 63.9c7.25 4.04 16.08 4.05 23.33 0l115.39-64.36Z"/><path fill="#EEAB37" d="M139.12 345.64c-7.31 4.07-16.21 4.07-23.52-.01L.92 282l-.94.98 115.6 64.54c7.3 4.07 16.2 4.08 23.51 0l116.27-64.85 -.29-1.76 -116 64.68Z"/></svg>