<svg viewBox="0 0 256 329" xmlns="http://www.w3.org/2000/svg"><path d="M76.5 203.35c-9.75-7.68-20.16-15.03-27.27-25.38 -14.97-18.27-26.48-39.41-34.35-61.63 -4.77-14.45-6.39-29.95-12.53-43.84 -6.42-10.1 1.1-21.12 12.15-24.32 4.91-.95 13.56-5.59 3.12-2.27 -9.37 6.86-10.27-6.24-.67-7.07 6.55-.87 8.96-6.24 6.72-11.06 -7.04-4.6 17.05-9.63 4.93-16.48 -12.63-13.63 17.66-16.25 10.18-.78 -1.79 11.89 21.16-2.19 15.83 11.55 5.41 6.59 20.27 1.5 19.89 10.75 7.88.54 10.59 7.17 17.98 7.68 7.67 3.46 21.57 6.19 24.18 14.83 -7.61 6.02-25.23-12.45-26.08 4.23 2.3 24.63 1.71 50.01 10.72 73.47 4.26 14.2 14.6 25.38 23.93 36.44 8.93 10.83 21.03 18.46 33.36 24.88 10.81 5.1 22.47 8.48 34.26 10.6 4.77-3.66 13.22-17.26 20.67-11.53 .35 6.44-14.8 13.47-.72 12.75 8.27-2.5 14.01 6.39 20.82-1.63 6.27 7.43 26.09-4.75 21.62 10.45 -6.05 3.89-14.86 1.54-20.9 6.9 -9.98-4.99-17.92 4.45-28.96 3.26 -12.27 2.19-24.74 3.08-37.17 3.09 -20.4-1.61-41.23-2.29-60.63-9.39 -10.94-3.18-21.6-9.41-31.21-15.63v0Zm17.22 7.46c10.67 4.61 21.1 9.47 32.8 10.94 18.55 2.57 37.72 6.55 56.34 2.92 -8.43-3.81-17.15 1.47-25.55-2.73 -10.07 2.16-20.88-.56-31.12-1.9 -11.64-5.19-24.21-8.75-35.11-15.49 -13.63-4.98 7.04 6.38 10.72 7.3 8.51 4.83-9.37-2.48-11.89-4.49 -7.14-4.01-8.05-3.17-.71.89 1.47.86 2.93 1.77 4.48 2.51v0ZM73.4 196.45c10.34 3.83-.05-7.28-4.78-6.64 -2.1-3.65-8.03-5.95-3.85-7.9 -7.52 2.6-7.88-9.93-11.41-8.13 -7.96-2.52-3.1-11.41-12.57-16.88 -.87-5.76-9.41-10.75-12.13-19.43 -1.21-4.45-9.66-17.21-4.47-5.33 4.41 11.43 12.19 21.22 18.66 31 5.02 9.31 10.95 19.04 20.1 24.85 3.08 2.96 6.06 7.49 10.41 8.42v0Zm-29.8-32.72c.35-1.57 1.88 3.37 0 0v0Zm42.18 37.3c2.28-1.03-3.3-1.3 0 0v0Zm5.6 2.04c-.59-2.83-2.57 1.58 0 0v0Zm7.03 2.92c3.34-3.19-5.16-2.01 0 0v0Zm12.04 6.71c2.03-3.01-6.51-1.13 0 0v0Zm-23.13-16.13c5.19-3.37-6.72-.05 0 0v0Zm5.26 2.62c-.16-1.78-1.88.79 0 0v0Zm26.34 16.44c4.23 2.67 24.73 5.85 11.9 1.09 -2.16.45-23.81-6.13-11.91-1.1v0Zm-41.83-32.58c-.42-1.78-6.58-1.97 0 0v0Zm12.26 7.15c3.19-2.23-6.63-1.73 0 0v0Zm10.31 6.32c4.58-1.73-7.43-1.74 0 0v0ZM72.08 177.6c4.97 3.81 20.04.49 7.61-2.28 -5.66-3.02-18.41-5.09-9.72 1.81l2.1.45v0Zm34.56 21.09c2.07-3.53-8.69-2.02 0 0v0Zm-10.51-8.35c12.14 3.43-10.22-7.7-3-1.27l1.6.72 1.39.54v0Zm21.05 12.16c11.5.11-10.4-1.59 0 0v0Zm-49.55-31.58c-.46-2.15-2.84.17 0 0v0Zm69.01 42.49c.3-3.88-3.76 2.88 0 0v0Zm-49.38-30.48c-.7-2.05-3.6-.09 0 0v0ZM68.7 169.55c6.6-.4-9.05-2.91 0 0v0Zm-21.98-14.21c-.83-3.18-7.19-5.7 0 0v0Zm57.69 36.61c-1.21-1.39-.57.29 0 0v0Zm35.9 22.03c-.12-2.12-1.96.79 0 0v0Zm-39.09-25.32c.64-2.73-5.64-.83 0 0v0ZM74.46 171.7c4.91-.53-7.88-3.33 0 0v0Zm45.25 28.11c7.66-3.04-7.47-1.48 0 0v0Zm-23.54-15.98c8.82 1.13-10.51-6.01-1.95-.65l1.94.64v0Zm30.68 18.86c8.24-4.93 5.52 11.54 13.98 1.39 8.34-6.1-7.21 7.53 3.07 1.08 7.44-4.98 18.42 2.36 25.36 4.74 4.98-.25 9.84 4.31 14.96 1.54 9.84-2.66-19.27-3.94-11.64-8.64 -9.02 2.62-15.67-3.13-20.11-8.9 -10.11-2.34-21.8-7.51-26.85-16.46 -2.06-3.36 2.96.47-1.78-5.02 -6.09-5.42-9.13-11.57-13.22-18.16 -4.89-2.61-5.47-10.28-5.96-.26 .04-6.33-5.9-10.59-7.35-8.82 -.03-6.09 6.35-3.04 1.88-7.54 -.97-6.32-4.13-12.89-5.08-20.02 -1.48-3.44-.21-10.79-5.05-3.02 -1.76 8.21-.59-10.1 2.15-4.07 3.59-6.16-1.3-5.44-1.5-4.59 2.34-5.2 1.48-12.58-.62-9.77 1.24-5.52 1.97-20.29-1.87-17.67 2.32-5.77 4.41-26.38-5.7-18.52 -4.1.05-11.19 1.48-14.54 3.15 10.5 5.79-1.06 2.09-5.35 1.17 -.56 5.36-4.8 3.04-10.09 3.09 8.46 1.04-4.12 8.65-8.97 5.69 -6.31 3 5.43 10.52.12 12.85 .65 3.49-9.66-1.27-8.85 6.82 -6.12-2.58-.84 9.59 2.22 5.47 10.4 2.81 7.32 9.23 7.58 15.33 -1.7 3.55-8.37-8.35-1.49-7.81 -5.44-8.83-6.01-3.2-10.53.9 -1.05.29 11.5 5.83 3.62 8.56 6.93 1.07 7.13 7.14 8.54 10.97 4.16 4.34 3.3-4.8 8.29.42 -3.16-4.66-16.72-13.1-5.81-10.4 -.06-4.68-1.98-8.45 1.37-8.36 3.31-6-3.48 14.79 3.99 7.16 2.06-.91 2.58-6.01 6.29.48 5.39 5.3 1.94 9.15-5.67 4.28 1.35 4.62 10.18 6.27 8.52 13.49 1.75 6.35 4.21 4.01 6.36 3.64 1.68 6.17 2.63 1.63 2.71-1.31 7.69 1.64 5.89 6.19 8.3 9.37 5.3 2.39-7.6-16.23 1.51-5.6 9.57 8.65 3.59 12.26-5.01 10.87 5.44-.44 7.19 7.35 13.99 7.08 6.2 2.95 10.41 14.29-.29 9.57 -3.71-3.35-16.85-7.48-6.12-1.12 9.9 4.59 17.77 7.33 27.32 13.09 6.83 4.87 9.78 10.46 12.37 11.57 -5.75 2.74-17.32-2.2-8.73-3.71 -5.37-.98-11.39-3.69-6.26 2.98 4.36 3.64 15.46 3.26 17.45 3.67 -1.69 3.71-4.59 4 .06 4.29 -5.19 2.76 1.66 3.19 2.14 4.77v0Zm-10.61-29.96c-3.16-3.31-3.98-9.49-.57-4.11 1.75.7 5.6 10.1.56 4.1v0Zm34.54 21.94c1.96-.14.05 1.49 0 0v0Zm-39.53-30.04c-.13-5 1.13 3.85 0 0v0Zm-3.44-4.62c-3.98-7.68 5 2.17 0 0v0Zm-41.62-28.72c2.33-.63 1.15 3.98 0 0v0Zm33.12 17.94c1.43-5.39 1.68 4.51 0 0v0Zm-23.4-16.27c-1.65-2.97 3.44 2.78 0 0v0Zm20.07 6.43c-3.76-8.43 2.66-4.61.83 1.37l-.84-1.38v0ZM61.35 116.3c-1.69-2.77-4.46-10.88-3.57-13.36 .8 4.03 8.57 17.35 3.8 5.51 -5.27-9.93 6.29 3.21 7.48 5.69 .55 2.45-3.26-.68-.68 5.1 -4.71-6.58-2.78 3.62-7.06-2.97v0Zm-10.7-7.38c.43-6.43 2.44 4.4 0 0v0Zm4.81 1.66c2.29-4.86 3.89 6.76 0 0v0Zm-11.59-8.96c-3.99-3.97-6.87-7.62.18-2.46 2.71.1-6.05-8.3.65-2.67 7.03 1.28 3.47 11.54-.85 5.12v0Zm6.08-.16c2.31-2.3 1.22 2.25 0 0v0Zm3.74 1.19c-3.52-6.58 4.25 2.75 0 0v0Zm-7.45-7.11c-11.59-10.32 14.54 5.38 1.88 1.9l-1.89-1.91v0Zm33.18 19.27c-5.02-3.01-1.34-21.16.37-8.75 4.87-1.58-.27 6.41 3.35 6.33 -.57 5.04-2.2 6.85-3.74 2.4v0Zm12.27 7.25c.49-5.48 1.03 3.74 0 0v0Zm-2.14-2.12c.54-2.34.05 2.75 0 0v0ZM48.49 92.12c-7.45-10.27 21.62 10.38 4.76 2.6 -1.76-.47-3.89-.63-4.77-2.61v0Zm23.63 12.52c-.71-8.65 1.57 1.43 0 0v0Zm17.94 11.51c1.38-4.93.1 3.25 0 0v0ZM49.62 88.18c4.42-.95 18.32 7.76 5.55 2.48 -1.42-1.58-4.45-.86-5.56-2.49v0Zm37.97 18.92c.47-8.85 2.64-5.28.02 1.26l-.03-1.27v0ZM52.9 85.09c1.8-2.65-4.79-11.95.94-3.34 2.47 1.96 7.17 3.29 3.02 4.12 6.51 5.74-1.59 1.55-3.98-.8v0Zm32.8 19.24c1.24-10.08 1.09 5.89 0 0v0ZM49.12 75.78c1.37-.59.73 1.83 0 0v0Zm8.55 5.09c2.2-4.63 4.06 5.15 0 0v0ZM81.8 94.29c-.03-1.78.45 2.58 0 0v0Zm-1.4-3.1c-3.35-8.27 3.11 4.37 0 0v0Zm-2.06-5.43c-.57-3.42 1.91 4.29 0 0v0Zm3.34-5.45c-2.31-4.05 2.9-17.86 3.48-9.3 -2.43 6.66-.7 10.39.98 1.45 3.12-7.04-.68 13.89-4.48 7.83v0Zm3.44-20.53c1-1.24.22 1.48 0 0v0Zm-5.75 113.21c-1.37-1.2.17.75 0 0v0Zm11.83 5.98c6.58 1.69 6.55-1.03.6-1.84 -3.2-2.98-13.3-6.14-4.26-.37 .59 1.51 2.48 1.47 3.65 2.19v0Zm-23.38-15.53c3.62 2.7 13.65 7.66 5.16 1.03 2.86-3.33-5.49-5.11-2.72-7.34 -7.05-4.32-5.56-3.93-.63-3.79 -8.47-3.79 1.22-3.5.76-5.45 -3.27-.65-16.22-5.76-8.6.41 -7.75-3.95-1.85 1.47-4.19.9 -7.92-2.16 7.04 6.02-1.26 3.99 4.53 3.59 12.22 9.22 1.91 3.8 -1.36 1.95 7.37 4.91 9.52 6.4v0Zm12.37 7.11c15.04 4.84-7.39-5.94 0 0v0Zm63.36 38.38c.19-2.99-2.06 2.54 0 0v0Zm6.51 2.74c3.47-3.37.14 5.36 5.75-.83 .05-4.43-.17-7.05-6.45-1.67 -1.74.96-2.51 5.03.69 2.48v0ZM46.67 146.74c-1.07-4.2-7.48-4.18 0 0v0Zm6.95 4.55c-2.59-4.29-9.22-3.88 0 0v0Zm39.56 23.86c3.86 3.43 17.74 2.51 4.68.42 -1.94-2.86-12.27-2.18-4.69-.43v0Zm54.38 33.59c5.94-5-5.77 2.22 0 0v0Zm12.36 8.49c.03-1.61-2.57.69 0 0v0Zm.02-2.25c6.58-6.98-6.38.41 0 0v0Zm-130.4-82.59c-5.61-8.01-3.49-11.61-8.9-18.14 -1.03-5.01-9.29-16.35-4.28-4.33 4.59 7.02 5.95 17.91 13.16 22.46v0Zm128.32 80.36c12.11-7.83-4.97-3.41 0 0v0Zm9.24 3.62c6.06-5.21-3.84-1.09 0 0v0ZM44.57 137.85c1.73-2.59-4.49-.34 0 0v0Zm120.59 76.04c5.87-3.79-1.36-3.21-1.07.34l1.06-.35v0Zm-79.7-50.24c-.21-2.57-3.11.21 0 0v0Zm4.92 2.83c-1.57-3.17-2.41.49 0 0v0Zm84.19 49.95c7.52-5.43-4.56-1.05-1.58 1.03l1.57-1.04v0Zm-2.89-1.4c6.13-5.14-6.47 2.27 0 0v0Zm14.72 9.8c4.11-2.76-5.01-.89 0 0v0ZM48.3 135.95c5.51 1.23 22.04 13.58 12.29.85 -5-1.48-2.01-13.69-7.1-11.53 3.41 5.71 2.81 8.14-4.37 4.54 -9.02-4.41-5.07 2.17-3.31 3.99 -2.41.54 3.17 2.08 2.47 2.13v0ZM23.17 116.1c.98-4.09-9.1-22.47-4.77-9.22 1.56 2.77 1.39 8.04 4.76 9.21v0Zm46.12 28.43c-2.85-2.38-.14-.34 0 0v0Zm6.99 1.62c0-4.33-7.73-1.76 0 0v0Zm60.61 38.2c-1.16-2.96-4.58-.07 0 0v0Zm2.9 2.12c-.44-1.66-1.69.32 0 0v0Zm24.02 15.13c2.3-1.71-2.89-.23 0 0v0ZM35.69 119.26c6.61-2.56-7.09-1.83-.001 0v0Zm95.84 60.38c-.08-4.28-4.22 1.06 0 0v0Zm-98.46-66.47c4.24-1.44-3.94-.95-.001 0v0Zm12.31 5.96c-.08-1.41-1.31.53 0 0v0Zm150.3 92.16c5.45-1.11 17.9 2.77 19.91-1.45 -6.64-.17-22.94-4.69-23.71 1.07l1.45.22 2.34.14v0ZM49.29 120.1c.09-4.34-3.38-.17 0 0v0Zm-32.4-22.48c-1.48-8.26-5.6-1.26 0 0v0Zm7.72 1.94c.09-2.66-7.07-2.39 0 0v0Zm4.41 2.17c-1.28-1.04-1 1.3 0 0v0Zm27.78 17.81c1.3-1.21-3.1-.89 0 0v0ZM26.08 96.83c-.76-6.24-8.96-.94 0 0v0ZM10.23 86.54c-.23-2.88-1.55 1.08 0 0v0Zm2.36-1.78c-.39-3.42-2.03.43 0 0v0Zm13.01 7.76c5.5-2.16-10.03-4.48-1.13-.41l1.12.4v0Zm174.22 107.61c3.52-3.23-4.48-1 0 0v0Zm21.04 10.9c1.41-4.18-3.56.54 0 0v0ZM26.91 85.68c.58-4.05-4.37.8 0 0v0ZM8.38 73.26c-1-5.71-.86-15.72 8.65-12.34 -12.7 2.52 8.79 15.79 6.08 5.31 5.34.26 10.44-3.16 7.64 2.02 10.52-1.16 17.81-10.29 27.98-9.01 7.91-1.06 16.57-1.85 25.1-5.04 7.01-.51 13.77-8.06 9.92-12.54 -9.57-.82-19.59.38-30.16 2.49 -11.72 2.43-22.37 7.06-34.19 9.04 -11.53 1.55 2.31 4.26-.99 4.87 -6.01 2.08 7.17 3.49-.78 5.69 -4.91-.94-10.03-2.63-7.93-7.81C8.66 57.37-1.05 61.95 7.68 73.19l.64 0v0Zm26.6-13.55c2.58-9.54 13.86 7.84 4.23 1.26 -1.15-.87-3.05-1.57-4.24-1.27v0Zm.5-4.63c3.73-2.78 1.98 1.56 0 0v0Zm4.74.07c.34-4.39 10.86 2.32 1.73 1.57l-1.74-1.58v0Zm6.48-2.61c2.37-2.78.68 2.45 0 0v0Zm1.66-1.12c3.94-4.75 22.34-3.03 8.87-.47 -3.61-2.73-6.38 1.6-8.88.46v0Zm24.01-3.71c-.6-12.96 11.93 4.59 0 0v0Zm6.81-.05c2.49-6.53 9.67-2.63 1.15-1.32 .18.69-.26 3.37-1.16 1.31v0ZM24.19 82.27c7.44-4.56-7.9-3.96 0 0v0Zm5.5 1.52c2.6-2.78-5.68-1.13 0 0v0ZM13.47 72.28c4.25-3.27-5.04-1.25 0 0v0Zm219.76 137.48c.12-3.8-3.26 1.7 0 0v0Zm-22.34-15.25c.63-4.37-2.88.37 0 0v0Zm28.47 16.71c5.94.02 18.01-1.86 5.08-1.85 -2.04.31-11.83.24-5.09 1.84v0ZM34.51 81.09c4.81-.33 7.52-5.31-.94-5.03 -13.12-1.36 11.56 4.49-1.69 2.81 -1.78 1.17 2.51 2.53 2.61 2.2v0Zm4.23 2.14c-.51-3.09-1.5 1.64 0 0v0Zm5.02-13.41c2.08-2.59-2.9-.7 0 0v0ZM27.75 43.06c8.59-2.92 20.33-6.2 24.39 1.43 -4.13-4.97-1.67-9.86 2.22-2.59 5.51 7.34 8.27-3.35 4.68-5.81 4.08 5.07 8.72 7.47 2.73.32 6.52-7.85-13.05 1.02-17.5.93 -2.14.96-22.09 5.08-16.56 5.7v0Zm5.03-9.64c4.89-3.7 16.94 2.2 9.21-3.68 -.76-.67-16.93 4.45-9.22 3.67v0Zm17.85.73c5.72.14-2.48-7.71 4.35-4.15 -1.12-3.67-7.96-4.35-11.3-5.82 -1.89 3.34 3.84 10 6.93 9.95v0ZM35.9 17.93c1.98-2.69-3.48 1.36 0 0v0Zm7.29 1.74c9.23-1.23-2.36-3.98-1.87-.1l1.86.09v0ZM29.56 9.01c-6.51-8.5 12.23 1.42 5.62-7.47C29.61-2.89 24.27 6.53 29.55 9v0Zm83.47 44.95c2.98-5.29-12.32-7.13-2.01-1.88 .94.31.73 2.23 2 1.87v0Z"/><g transform="translate(0 244)"><g><path d="M53.1 7.49c-.66 2.6-1.07 6.97-1.23 13.11 0 1.2-.55 1.8-1.64 1.8 -1.09 0-1.85-.53-2.28-1.58 -1.17-2.84-2.28-4.82-3.33-5.95 -1.25-1.32-2.9-2.12-4.96-2.39 -2.22-.36-7.74-.53-16.56-.53 -2.03 0-3.35.21-3.97.64 -.39.27-.59.85-.59 1.74v26.4c0 .89.56 1.31 1.68 1.28 3.46-.05 8.47-.28 15.04-.71 1.28-.16 2.14-.58 2.59-1.26 .44-.68.88-2.44 1.31-5.28 .27-1.56 1.18-2.16 2.74-1.81 1.32.27 1.88.87 1.69 1.8 -1.09 5.28-1.45 12.16-1.06 20.63 .04 1-.6 1.55-1.93 1.63 -1.09.11-1.77-.47-2.05-1.75 -1.01-4.86-2.89-7.46-5.63-7.79 -2.75-.33-7.21-.5-13.39-.5 -.7 0-1.05.25-1.05.75v26.23c0 1.94.71 3.26 2.15 3.96 1.12.58 3.55 1.1 7.28 1.57 1.9.19 2.74 1.03 2.51 2.5 -.24 1.28-1.95 1.78-5.14 1.51 -9.22-.75-16.81-.7-22.8.11 -1.68.23-2.51-.45-2.51-2.05 -.001-1.02.83-1.6 2.5-1.75 3.8-.43 5.71-3.78 5.71-10.03V19.86c0-2.57-.46-4.54-1.37-5.92 -.92-1.39-2.62-2.64-5.11-3.77C.14 9.47-.44 8.51-.05 7.31c.19-.74.5-1.15.93-1.23 .38-.12 1.42-.05 3.08.23 2.45.38 8.22.58 17.31.58 10.72 0 19.99-.24 27.81-.71 2.6-.16 3.9.05 3.9.63 0 .15-.02.31-.07.46v0Z"/><path d="M90.91 81.5c0 1.55-.88 2.23-2.63 2.03 -5.37-.51-12.01-.43-19.94.23 -1.6.15-2.58.11-2.95-.12 -.37-.24-.56-.88-.56-1.93 0-.94 1.05-1.72 3.17-2.36 2.12-.64 3.17-2.56 3.17-5.75V20.83c0-3.15-.46-5.47-1.37-6.94 -.92-1.48-2.52-2.63-4.82-3.44 -1.21-.43-1.81-1.04-1.81-1.81 0-1.17.87-2.05 2.62-2.63 2.64-.86 5.38-2.18 8.22-3.97 2.33-1.41 3.8-2.1 4.42-2.1 1.43 0 2.15.98 2.15 2.97 0-.16-.08 1.78-.24 5.82 -.12 3.84-.16 7.63-.12 11.36l.23 52.06c0 2.37.58 4.09 1.74 5.16 1.16 1.06 3.16 1.77 6 2.12 1.74.19 2.62.85 2.62 1.98v0Z"/><path d="M143.64 78.06c0 .81-1.49 2.04-4.46 3.7 -2.98 1.65-5.36 2.47-7.15 2.47 -1.52 0-2.86-.74-4.03-2.22 -1.17-1.48-1.99-2.22-2.46-2.22 -.35 0-2.2.79-5.54 2.38 -3.34 1.59-6.71 2.39-10.09 2.39 -3.19 0-5.86-.94-7.99-2.8 -2.34-2.07-3.5-4.86-3.5-8.4 0-6.73 7.69-11.55 23.08-14.46 2.63-.51 3.98-1.58 4.02-3.21l.11-3.74c.23-6.38-2.59-9.56-8.46-9.56 -1.68 0-3.26 1.49-4.76 4.48s-3.65 4.6-6.45 4.84c-3.19.3-4.79-1.04-4.79-4.03 0-1.87 2.37-4.05 7.11-6.54 4.97-2.61 9.75-3.91 14.34-3.91 7.88 0 11.79 3.75 11.71 11.25l-.24 24.01c-.04 2.52 1.03 3.78 3.2 3.78 .42 0 1.24-.1 2.44-.3 1.2-.2 1.9-.3 2.1-.3 1.12 0 1.68.76 1.68 2.27v0Zm-17.96-13.3c.04-.98-.19-1.62-.68-1.93 -.49-.32-1.26-.38-2.3-.18 -9.37 1.67-14.06 4.72-14.06 9.15 0 4.46 2.42 6.7 7.28 6.7 1.94 0 3.94-.37 6-1.11 2.41-.86 3.61-1.89 3.61-3.1l.11-9.56Z"/><path d="M186.98 71.35c0 4.12-1.59 7.39-4.76 9.82 -3.17 2.42-7.5 3.64-12.98 3.64 -3.66 0-7.31-.39-10.96-1.17 -3.15-.71-4.98-1.35-5.49-1.93 -.32-.55-.47-3.21-.47-7.99 0-2.07.46-3.13 1.4-3.21 .93-.12 1.72.38 2.38 1.51 2.91 5.09 7.61 7.63 14.1 7.63 5.47 0 8.21-1.91 8.21-5.72 0-1.67-.62-3.07-1.87-4.2 -1.37-1.29-4-2.79-7.93-4.49 -5.68-2.53-9.47-4.75-11.37-6.65 -2.07-2.03-3.09-4.75-3.09-8.17 0-4.2 1.61-7.47 4.83-9.8 2.99-2.26 6.99-3.39 12-3.39 3.14 0 6.02.25 8.63.75 2.79.5 4.25 1.12 4.37 1.86 .3 2.17.95 5.32 1.92 9.44 .11.5-.44.91-1.64 1.22 -1.29.27-2.14.05-2.57-.64 -3.07-5.02-6.96-7.53-11.66-7.53 -5.33 0-7.99 1.7-7.99 5.13 0 1.9.72 3.42 2.15 4.54 1.28.97 4.29 2.49 9.03 4.55 4.97 2.13 8.35 4.06 10.14 5.76 2.33 2.21 3.49 5.19 3.49 8.91v0Z"/><path d="M255.57 81.55c0 1.35-.92 2.08-2.75 2.15 -2.73.04-6.28.23-10.67.58 -2.18.42-3.74.15-4.67-.82 -6.15-6.61-11.36-13.53-15.63-20.76 -.35-.62-.8-.94-1.35-.94 -.67 0-1.81.58-3.44 1.74 -1.84 1-2.75 2.44-2.75 4.31 0 1.32.03 3.22.11 5.71 .07 2.48.69 4.11 1.86 4.89 .81.54 2.7.97 5.65 1.28 1.82.23 2.74.91 2.74 2.03 0 .89-.15 1.44-.44 1.66 -.3.21-1.07.26-2.31.14 -3.89-.35-10.46-.16-19.71.58 -2.34.19-3.6-.1-3.8-.88 -.08-.28-.12-.66-.12-1.17 0-1.21 1.18-2.12 3.55-2.74 2.13-.55 3.2-3.06 3.2-7.53V20.82c0-3.19-.32-5.41-.94-6.65 -.86-1.6-2.65-2.84-5.37-3.74 -1.28-.43-1.93-1.03-1.93-1.81 0-1.13.91-2.01 2.74-2.63 2.91-.98 5.69-2.32 8.33-4.03 2.13-1.4 3.46-2.1 3.96-2.1 1.59 0 2.39 1 2.39 3.03 0-.28-.02 1.65-.07 5.76 -.04 2.83-.06 6.64-.06 11.42l.11 36.49c0 1.01.27 1.51.81 1.51 .58 0 1.47-.51 2.68-1.52 3.22-2.53 7.19-5.83 11.89-9.92 .93-.98 1.4-1.75 1.4-2.34 0-1.05-1.58-1.79-4.72-2.22 -1.37-.16-2.01-.92-1.93-2.28 .11-1.36.79-1.95 2.04-1.75 2.8.38 6.88.6 12.24.64 3.73.03 7.44.05 11.13.05 1.2.04 1.8.75 1.8 2.15 0 1.31-.96 2.03-2.86 2.15 -3 .11-5.82.79-8.46 2.03 -3.7 1.66-7.65 4.6-11.84 8.8 -.31.23-.47.52-.47.87 0 .54.66 1.84 1.98 3.9 4.85 7.38 9.44 12.95 13.75 16.73 2.76 2.36 5.34 3.55 7.75 3.55 1.78 0 2.89.12 3.32.38 .43.25.64.92.64 2v0Z"/></g></g></svg>