<svg viewBox="0 0 256 194" xmlns="http://www.w3.org/2000/svg"><defs><clipPath id="a"><path d="M68.36 0c-3.63 0-7.11 1.44-9.67 4.011L2.07 60.783c-2.79 2.79-2.79 7.31 0 10.1l120.66 120.83c2.79 2.79 7.31 2.79 10.11 0L253.87 70.84c2.78-2.79 2.79-7.29.03-10.09L197.8 4.03c-2.57-2.593-6.06-4.052-9.71-4.052H68.32Z"/></clipPath></defs><g clip-path="url(#a)"><g transform="translate(-2.95-.86)"><path fill="#57BBFB" d="M68.35.85h125.71c1.73 0 3.39.69 4.62 1.92l63.2 63.907 -131.126 130.94L-.01 66.667 63.74 2.73C64.95 1.5 66.61.82 68.34.82"/><path fill="#48ACEC" d="M197.59 1.9c-1.05-.677-2.27-1.05-3.54-1.05H68.33c-1.73 0-3.39.68-4.61 1.91l2.08 2.63 31.91 31.37 66.29-.28L197.55 1.88Z"/><path fill="#2B8FCF" d="M131.35 197.04l-.6.59L-.02 66.685l1.1-1.11h69.09l61.15 127.77v3.68Z"/><path fill="#2D91D1" d="M87.42 109.93l10.87 22.05h65.56l10.77-21.55 -44.21-43.94 -43.01 43.43Z"/><path fill="#7ACBFF" d="M196.79 66.5h64.93L196.31.89l-32.83 32.684 33.29 32.91v0Z"/><path fill="#55B9F9" d="M163.49 33.58L130.84 1.311 98.09 34.137l32.32 32.36 33.06-32.917Z"/><path fill="#3B9FDF" d="M130.43 66.5H65.82l21.592 43.43 43.01-43.44 44.2 43.93 22.15-43.95h-66.36Z"/><path fill="#52B6F7" d="M65.83 66.5v0h64.6L98.1 34.14 65.82 66.49Z"/><path fill="#8FD3FF" d="M163.49 33.58l-33.06 32.917h66.35l0-.01 -33.3-32.92Z"/><path fill="#FF2690" d="M163.49 33.58L130.84 1.311l32.64 32.269Z"/><path fill="#41A5E5" d="M98.11 34.14L65.58 1.58 .04 66.49H65.83l-.01-.01 32.27-32.36Z"/><path fill="#3CA0E0" d="M130.85 198l33.01-66.02H98.29l32.55 66.01Z"/><path fill="#4EB2F2" d="M174.64 110.43l-10.78 21.54h32.45l-21.69-21.55Z"/><path fill="#1A7EBE" d="M65.59 131.98h32.708l-10.88-22.05 -21.84 22.05Z"/><path fill="#FFF" d="M180.4 65.98c5.33-1.14 15.08-10.96 15.93-15.77 .04-.25.44-.25.51-.01 1.46 4.91 11.43 14.84 15.84 15.77 .25.05.28.9.03.96 -4.56 1.03-14.49 11.06-15.87 15.85 -.08.26-.5.26-.56-.01 -1.09-4.56-10.81-14.5-15.94-15.85 -.26-.07-.23-.91.03-.96"/></g></g></svg>