<svg viewBox="0 0 256 353" xmlns="http://www.w3.org/2000/svg"><path fill="#00ACEE" d="M0 213.75c2.18-44.29 22.48-83.38 65.44-108.67C125.25 69.86 185.61 35.57 245.69.81c2.48-1.44 3.2-1.03 4.22 1.58 14.47 37.33.56 76.78-25.46 99.93 -2.27 2.01-4.83 3.62-7.45 5.13 -31.28 18.03-62.54 36.09-93.8 54.15 -4.47 2.58-6.71 6.85-6.01 11.22 .76 4.77 4.61 8.73 9.37 9.59 3.06.55 5.67-.7 8.21-2.16 30.66-17.7 61.32-35.4 91.98-53.1 2.91-1.69 5.88-3.29 8.72-5.09 1.64-1.04 2.34-.68 2.98 1.06 4.48 12.12 6.88 24.59 5.99 37.54 -1.96 28.37-14.34 51.27-37.59 67.57 -11.18 7.83-23.54 13.97-35.38 20.86 -5.32 3.09-10.51 6.46-16.03 9.15 -12.53 6.11-18.6 16.86-21.37 29.69 -5.73 26.53 15.29 51.94 42.45 51.71 1.49-.02 2.99-.27 4.49-.44 1.33-.15 2.37.38 2.72 1.62 .32 1.17-.49 2-1.54 2.39 -3.47 1.29-6.92 2.69-10.46 3.76 -69.51 21.07-144.81-19.14-165.94-88.59 -3.95-12.98-5.6-26.31-5.91-44.75"/></svg>