<svg viewBox="0 0 256 256" xmlns="http://www.w3.org/2000/svg"><path fill="#298EEA" d="M128 231.899c-57.39 0-103.9-46.52-103.9-103.899 0-57.39 46.51-103.899 103.89-103.899s103.899 46.51 103.899 103.899c0 57.38-46.52 103.899-103.899 103.899M127.99 0c-70.7 0-128 57.308-128 128 0 70.69 57.308 128 128 128 70.69 0 128-57.31 128-128 0-70.7-57.31-128-128-128m12.92 117.09c3.13-7.88 5.66-16.06 9.45-23.6 3.98-7.95 9.16-13.12 18.91-12.82 9.33.28 16.59 6.26 19.84 14.1 5.13 12.4 8.887 24.69 13.07 37.47 2.67 8.15 5.29 17.04 13.19 21.22 7.3 4.86 4.42 9.45 2.53 12.72 -3.68 4.55-9.69 3-10.22 2.94 -6.18-.81-15.51-10.74-18.3-17.79 -5.71-14.42-6.96-22.72-12.35-37.26 -.56-1.5-2.05-7.08-2.87-8.67 -1.68-3.26-6.3-3.44-8.2-.31 -.56.9-1.01 1.77-1.36 2.67 -4.03 10.37-12.59 35.22-13.45 37.08 -11.04 24.083-27.14 27.01-46 6.83 -3.21-3.43-6.15-8.06-9.26-11.54 -5.59-6.26-10.44-6.79-15.44-.15 -3.7 4.9-7.58 9.6-11.08 14.66 -5.09 7.34-11.78 13.48-20.82 14.43 -5.12.53-10.35-1.66-11.76-7.21 -1.33-5.2 2.22-9.58 6.84-10.8 6.97-1.84 7.98-3.06 11.45-8.61 .46-.75 3.95-6.31 4.4-7.06 16.77-27.46 37.37-27.16 56.13-1.29 1.33 1.84 3.53 4.89 5.52 7.65 2.02 2.82 6.31 2.51 7.92-.57 6.32-7.57 9.41-18.33 11.75-24.21"/></svg>