<svg viewBox="0 0 256 267" xmlns="http://www.w3.org/2000/svg"><g fill="#FFCA20"><path opacity=".7" d="M237.3 115.09l-88.82-88.81 88.81 0Z"/><path opacity=".7" d="M86.28 0l50.34 0 38.47 38.46 -88.83 0Z"/></g><path opacity=".9" fill="#FFCF39" d="M89.16 88.82L.34-.01h106.78V88.8l-17.98.01Zm78.01 88.8l88.81 88.81h-88.82v-88.82Z"/><path opacity=".7" fill="#FFE490" d="M107.14 177.63L18.33 88.8h88.81v88.81l-.02.01Zm95.64-44.95l-70.8-70.84h70.82l-.04 70.83Zm8.27 125.48l-80.55-80.54h80.54v80.53Z"/><path opacity=".9" fill="#FCBC7C" d="M107.14 70.74L36.39-.01l70.74 0Z"/><g fill="#F9A040"><path opacity=".8" d="M130.87 177.62l88.81 88.81 -88.82 0Z"/><path opacity=".7" d="M220.76 213.07l-88.7-88.7 88.69 0Z"/></g><path opacity=".9" fill="#FFCF39" d="M131.98 61.84l87.73 87.73 -87.74 0Z"/><path opacity=".7" fill="#FFC737" d="M107.14 266.08L-.01 158.91l107.14 0Z"/></svg>