<svg viewBox="0 0 256 322" xmlns="http://www.w3.org/2000/svg"><path fill="#FFF" d="M252.464 309.711c0 4.97-3.53 8.58-8.48 8.58H12.82c-4.96 0-9.3-3.61-9.3-8.59V13.2c0-4.98 4.336-8.91 9.294-8.91h231.155c4.95 0 8.47 3.933 8.47 8.9V309.69"/><g><path d="M243.985 321.82H12.83C5.75 321.82 0 316.38 0 309.7V13.2C0 6.33 5.75.75 12.83.75h231.155c6.84 0 12.01 5.34 12.01 12.44v296.49c0 6.9-5.17 12.11-12.02 12.11v0ZM12.83 7.83c-3.13 0-5.76 2.46-5.76 5.37v296.49c0 3.15 2.928 5.04 5.758 5.04h231.155c3 0 4.94-1.99 4.94-5.05V13.18c0-3.17-2.04-5.38-4.95-5.38H12.81v0Z"/><path d="M203.43 60.16c-15.1 0-27.39 12.28-27.39 27.38 0 6.27 2.12 12.06 5.69 16.68l-46.02 46.01c-2.56-1.65-5.61-2.62-8.866-2.62 -3.25 0-6.28.95-8.83 2.58l-45.99-45.99c3.56-4.63 5.69-10.42 5.69-16.69 0-15.1-12.29-27.39-27.39-27.39 -15.1 0-27.39 12.28-27.39 27.38 0 15.09 12.28 27.38 27.38 27.38 6.27 0 12.06-2.13 16.68-5.7l45.99 45.99c-1.64 2.54-2.59 5.57-2.59 8.82 0 7.98 5.73 14.64 13.29 16.1v65.39c-13.63 1.56-24.24 13.16-24.24 27.19 0 15.09 12.28 27.38 27.38 27.38 15.09 0 27.38-12.29 27.38-27.39 0-13.77-10.22-25.19-23.46-27.1v-65.68c7.13-1.78 12.44-8.238 12.44-15.92 0-3.23-.94-6.24-2.56-8.78l46.035-46.036c4.62 3.56 10.41 5.69 16.68 5.69 15.1 0 27.38-12.29 27.38-27.39 0-15.1-12.29-27.39-27.39-27.39v0ZM50.35 107.85c-11.2 0-20.32-9.12-20.32-20.32 0-11.2 9.11-20.32 20.31-20.32 11.19 0 20.31 9.11 20.31 20.31 0 4.32-1.37 8.33-3.68 11.63l-8.07-8.07c.51-1.18.8-2.48.8-3.84 0-5.31-4.32-9.63-9.63-9.63 -5.31 0-9.628 4.32-9.628 9.62 0 5.31 4.31 9.62 9.628 9.62 1.35 0 2.64-.29 3.82-.8l8.07 8.07c-3.3 2.31-7.31 3.67-11.634 3.67v0Zm96.84 164.882c0 11.2-9.12 20.31-20.32 20.31 -11.2 0-20.32-9.12-20.32-20.32 0-10.13 7.45-18.55 17.16-20.07v11.34c-3.78 1.3-6.494 4.88-6.494 9.09 0 5.3 4.31 9.62 9.62 9.62 5.3 0 9.62-4.32 9.62-9.63 0-3.91-2.35-7.27-5.7-8.78v-11.52c9.32 1.83 16.38 10.07 16.38 19.92v0Zm56.22-164.882c-4.33 0-8.34-1.37-11.64-3.68l8.07-8.07c1.17.5 2.46.79 3.81.79 5.3 0 9.62-4.32 9.62-9.63 0-5.31-4.32-9.63-9.63-9.63 -5.31 0-9.63 4.32-9.63 9.62 0 1.36.29 2.66.8 3.84l-8.07 8.06c-2.32-3.3-3.68-7.31-3.68-11.64 0-11.2 9.11-20.32 20.31-20.32s20.31 9.11 20.31 20.31 -9.12 20.31-20.32 20.31v0Z"/><path d="M138.638 14.166h-7.73l-8.45 9.87 -8.45-9.88h-8.91l12.9 15.1 -12.863 15.02h8.95l8.36-9.8 8.4 9.79h7.74 7.76l8.36-9.8 8.4 9.79h8.93l-12.89-15.03L172.1 14.11h-8.98l-8.45 9.87 -8.45-9.88h-7.67v0Zm-.03 28.74l-11.7-13.65 11.71-13.66 11.65 13.65 -11.68 13.64v0Zm-115.84-17.02h17.87v6.66H22.75v-6.67Zm-3.96-11.734c-.47 0-.907.08-1.32.25 -.41.17-.77.41-1.07.72 -.3.3-.53.66-.7 1.06 -.17.4-.26.84-.26 1.29v26.8h6.62v-23.52h20.86v-6.62H18.77Zm33.57 23.51v-23.52h-6.63v26.803c0 .46.08.9.25 1.31 .16.4.4.76.7 1.05 .29.29.65.53 1.06.7 .4.16.84.25 1.31.25h24.46v-6.63H52.35Zm44.99-23.52v23.514h-8.45c-.15 0-.47-.03-.95-.07 -.48-.05-1.03-.16-1.66-.33 -.63-.18-1.3-.45-2-.81 -.68-.35-1.3-.84-1.87-1.46 -.57-.62-1.05-1.4-1.42-2.33 -.38-.93-.57-2.1-.57-3.47V14.119h-6.63v15.06c0 1.74.21 3.34.63 4.77 .41 1.42 1 2.72 1.74 3.83 .73 1.11 1.6 2.09 2.59 2.9 .97.8 2.03 1.48 3.14 2 1.1.52 2.26.91 3.45 1.16 1.17.25 2.35.37 3.51.37h11.73c.45 0 .88-.09 1.29-.26 .4-.17.75-.41 1.06-.7 .3-.3.55-.66.72-1.07 .16-.41.25-.85.25-1.32V14.05h-6.63Zm105.68 7.23c-.64-1.56-1.53-2.92-2.66-4.04 -1.13-1.13-2.49-2.02-4.03-2.65 -1.55-.64-3.24-.96-5.05-.96h-7.05c-1.81 0-3.51.32-5.06.95 -1.55.63-2.91 1.52-4.04 2.64 -1.14 1.12-2.03 2.48-2.67 4.038 -.64 1.55-.97 3.26-.97 5.08v5.48c0 1.83.32 3.54.96 5.09 .64 1.55 1.53 2.9 2.66 4.03 1.13 1.13 2.49 2.02 4.04 2.64 1.54.62 3.24.94 5.05.94h7.05c1.8 0 3.5-.32 5.04-.95 1.54-.63 2.89-1.52 4.02-2.65 1.12-1.13 2.02-2.49 2.65-4.04 .63-1.55.95-3.27.95-5.1v-5.49c0-1.83-.33-3.54-.96-5.09Zm-5.67 5.084v5.48c0 .93-.15 1.78-.45 2.53 -.29.73-.71 1.37-1.24 1.89 -.54.52-1.18.93-1.92 1.22 -.75.29-1.6.44-2.52.44h-7.01c-.93 0-1.77-.15-2.52-.45 -.74-.29-1.39-.71-1.92-1.23 -.53-.53-.95-1.17-1.24-1.9 -.3-.75-.45-1.61-.45-2.54v-5.49c0-.94.14-1.79.44-2.54 .29-.74.7-1.38 1.23-1.9 .53-.53 1.17-.94 1.91-1.23 .74-.3 1.59-.45 2.51-.45h7.05c.9 0 1.74.14 2.49.44 .74.29 1.37.7 1.9 1.22 .52.52.93 1.16 1.22 1.9 .29.74.44 1.6.44 2.53Zm31.85 8.268c.15-.03.3-.06.46-.09 .77-.16 1.55-.42 2.31-.77 .76-.35 1.49-.8 2.19-1.34 .7-.55 1.33-1.22 1.87-1.99 .54-.78.97-1.67 1.28-2.67 .31-1 .47-2.15.47-3.4l-.01-3.33c0-.71-.13-1.47-.36-2.27 -.25-.82-.65-1.59-1.21-2.29 -.57-.71-1.3-1.31-2.18-1.77 -.9-.48-2-.72-3.28-.72h-19.77c-.47 0-.91.08-1.32.25 -.41.17-.77.41-1.07.72 -.3.3-.53.66-.7 1.064 -.17.4-.26.84-.26 1.29v26.8h6.62v-23.52h16.47c.08 0 .17 0 .27.01l.07.07s.04.09.04.36v3.285c0 .58-.1 1.1-.27 1.54 -.18.43-.43.8-.75 1.1 -.33.31-.73.56-1.19.74 -.47.19-1.01.31-1.53.35h-12.49v6.62h4.18l10.85 9.39h10.21l-11.05-9.55Z"/><path d="M235.905 311.22H21.03c-5.36 0-9.72-3.72-9.72-8.28V57.11c0-4.56 4.36-8.26 9.71-8.26h214.871c4.9 0 8.07 3.24 8.07 8.26V302.94c0 5.03-3.17 8.28-8.08 8.28v0ZM21.03 50.97c-4.19 0-7.6 2.75-7.6 6.13v245.825c0 3.39 3.4 6.15 7.59 6.15h214.871c3.72 0 5.95-2.31 5.95-6.16V57.09c0-3.85-2.23-6.14-5.96-6.14H21.01v0Z"/></g></svg>