<svg viewBox="0 0 512 111" xmlns="http://www.w3.org/2000/svg"><defs><linearGradient id="a" x1="-24.513%" x2="130.063%" y1="75.563%" y2="-56.514%"><stop offset="0%" stop-color="#AB68FC"/><stop offset="86%" stop-color="#5521B3"/></linearGradient><linearGradient id="b" x1="104.596%" x2="48.252%" y1="100.586%" y2="48.39%"><stop offset="2%" stop-color="#AA69FF"/><stop offset="86%" stop-color="#C6B1FF"/></linearGradient></defs><path fill="url(#a)" d="M32.42 110.59l59.83-52.28H32.51s-.09 50.26-.11 52.27Z"/><path fill="url(#b)" d="M59.84 0L-.01 58.31h59.58s.25-56.8.26-58.32Z"/><path fill="#804DDA" d="M157.91 25.56c1.27.01 2.29 1.04 2.29 2.31v6.02c0 .61-.25 1.2-.69 1.62 -.43.43-1.01.67-1.61.67h-27.1v16.47h25.35c1.24.02 2.24 1.02 2.28 2.26v6.03c-.03 1.25-1.04 2.27-2.3 2.29h-25.36v19.44c-.03 1.25-1.04 2.27-2.3 2.29h-6.83c-1.26-.03-2.28-1.04-2.3-2.3V27.82c0-1.28 1.02-2.31 2.29-2.32h36.21Zm9.41 22.15c.14-3.06.75-6.08 1.82-8.95 1-2.74 2.58-5.24 4.62-7.32 2.16-2.15 4.75-3.83 7.6-4.92 3.47-1.29 7.15-1.91 10.86-1.83 3.67-.08 7.33.52 10.78 1.77 5.68 2.09 10.18 6.56 12.32 12.23 1.09 2.88 1.72 5.92 1.86 9 0 .35.01.73.02 1.11l.05 1.19c.01.4.03.83.04 1.26 .01.97 0 1.97 0 3l-.01 5.06v0c0 .55-.02 1.09-.04 1.62l-.1 1.95c-.12 3.05-.7 6.08-1.73 8.96 -1.01 2.73-2.59 5.22-4.63 7.3 -2.19 2.15-4.81 3.81-7.69 4.88 -7.04 2.38-14.67 2.38-21.71 0 -2.86-1.08-5.45-2.74-7.61-4.89 -2.05-2.08-3.63-4.57-4.63-7.31 -1.11-2.87-1.76-5.9-1.93-8.97 0-.36-.02-.74-.03-1.12l-.09-1.82c-.01-.22-.02-.43-.03-.65 -.02-.66-.02-1.32-.02-1.99l.01-2.05v0 -4.04 0c0-.44.01-.86.03-1.27l.06-1.2c.02-.39.03-.76.03-1.12Zm38.47.43c-.01-3.56-1.43-6.97-3.96-9.47 -5.58-4.5-13.53-4.5-19.11 0 -2.53 2.5-3.95 5.92-3.95 9.48 -.08 1.43-.13 2.97-.15 4.62l-.02 1.68v0 2.59c0 1.97.03 3.81.16 5.44 -.01 3.54 1.42 6.94 3.95 9.43 5.6 4.41 13.5 4.41 19.1 0 2.53-2.49 3.95-5.89 3.95-9.44l.03-.73v0l.05-1.51c.02-.77.04-1.57.05-2.4l.01-1.69c0-.29 0-.58 0-.87l-.01-.87v0l-.02-1.69c-.02-.83-.04-1.63-.06-2.4l-.06-1.51c-.02-.25-.03-.49-.04-.73l-.02-.02Zm20.56-.6c.05-3.19.66-6.34 1.81-9.31 1.09-2.74 2.77-5.2 4.93-7.22 2.29-2.1 4.99-3.69 7.93-4.68 7.57-2.29 15.67-2.2 23.19.26 2.79 1.03 5.37 2.59 7.6 4.57 1.74 1.52 3.13 3.42 4.06 5.55 .65 1.52 1.07 3.14 1.26 4.79 .08.62-.16 1.25-.64 1.66 -.46.41-1.05.64-1.67.63h-6.88c-.54.03-1.08-.14-1.5-.47 -.27-.22-.5-.47-.68-.76l-.22-.39v0l-.32-.54v0l-.5-.79v0c-.63-.92-1.4-1.72-2.29-2.38 -1.26-.94-2.65-1.69-4.12-2.22 -2.04-.71-4.19-1.04-6.34-.98 -3.7-.18-7.32 1.06-10.15 3.44 -2.58 2.37-4.06 5.71-4.09 9.21 -.1 1.83-.15 3.79-.17 5.87l-.01 1.96v0l0 1.78c.01 1.46.05 2.86.15 4.21 .17 4.69 1.53 8.11 4.08 10.23 2.89 2.23 6.49 3.36 10.14 3.18 1.94.01 3.88-.22 5.78-.68 1.65-.42 3.2-1.18 4.53-2.25 1.31-1.07 2.34-2.46 2.97-4.04 .75-1.97 1.11-4.06 1.05-6.17v-.68h-10.37c-1.26-.03-2.28-1.04-2.3-2.3v-6.04c.02-1.26 1.03-2.28 2.29-2.3h19.53c1.25.02 2.27 1.03 2.29 2.29v9.34c.05 3.19-.48 6.37-1.55 9.39 -1.05 2.79-2.7 5.32-4.85 7.39 -2.32 2.16-5.08 3.81-8.08 4.82 -7.33 2.29-15.18 2.29-22.51 0 -2.95-1-5.64-2.63-7.9-4.76 -2.13-2.07-3.77-4.58-4.81-7.36 -1.14-3.01-1.75-6.18-1.83-9.39 0-.36-.02-.74-.03-1.12l-.06-1.2c-.02-.41-.04-.84-.05-1.27 -.02-.66-.02-1.31-.01-1.98l0-2.03v0 -4c0-1.31.02-2.44.08-3.52Zm64.54 37.45c-1.26-.03-2.28-1.04-2.3-2.3V27.85c.01-1.27 1.03-2.29 2.29-2.3h25.04c3.11-.1 6.2.46 9.08 1.64 2.22.96 4.22 2.38 5.86 4.17 1.42 1.57 2.5 3.42 3.18 5.43 .61 1.76.94 3.61.97 5.47 .02 1.54-.21 3.07-.69 4.53 -.39 1.2-.95 2.34-1.65 3.39 -.56.82-1.19 1.59-1.89 2.3 -.48.47-1.01.9-1.58 1.26 1.91 1.37 3.56 3.09 4.84 5.07 1.44 2.33 2.18 5.02 2.15 7.76l-.02.51c-.02 2.19-.42 4.36-1.2 6.41 -.8 2.11-1.98 4.05-3.49 5.72 -1.61 1.75-3.56 3.15-5.73 4.11 -2.51 1.09-5.21 1.62-7.94 1.57h-27.02Zm32.69-42.31c.12-1.86-.63-3.67-2.03-4.89 -1.37-1.11-3.52-1.67-6.47-1.67h-15.03V49.2h15.02c2.95 0 5.07-.55 6.46-1.67 1.32-1.15 2.07-2.83 2.04-4.58l-.02-.31Zm-23.52 31.69h15.7c3.11 0 5.39-.67 6.83-2 1.39-1.4 2.17-3.29 2.16-5.27 -.02-1.98-.83-3.86-2.25-5.24 -1.93-1.5-4.34-2.22-6.76-2.03h-15.71v14.51Zm92.74-48.85c1.27.01 2.29 1.04 2.29 2.31v34.79c.04 3.23-.48 6.45-1.54 9.5 -.97 2.74-2.54 5.24-4.59 7.3 -2.16 2.11-4.76 3.72-7.61 4.71 -6.92 2.21-14.36 2.21-21.28 0 -2.86-1-5.45-2.61-7.61-4.72 -2.06-2.04-3.62-4.52-4.58-7.24 -.96-2.85-1.46-5.82-1.49-8.82l0-35.56c0-1.27 1.02-2.3 2.29-2.3h6.87c1.26 0 2.29 1.02 2.29 2.29v34.36c-.05 2.02.27 4.03.93 5.94 1.07 3.07 3.57 5.44 6.7 6.33 1.68.49 3.43.73 5.18.72 1.76.01 3.52-.23 5.22-.73 1.53-.44 2.94-1.22 4.11-2.29 1.21-1.13 2.15-2.52 2.73-4.06 .69-1.91 1.02-3.93.97-5.95V27.73c.01-1.27 1.03-2.29 2.29-2.3l6.73-.03Zm12.99 21.99c.07-3.19.7-6.34 1.86-9.31 1.09-2.74 2.77-5.2 4.93-7.22 2.29-2.1 4.99-3.69 7.93-4.68 7.57-2.29 15.67-2.2 23.19.26 2.79 1.04 5.37 2.59 7.6 4.57 1.72 1.53 3.09 3.43 4.01 5.55 .65 1.52 1.07 3.14 1.26 4.79 .08.62-.16 1.25-.64 1.66 -.46.41-1.05.64-1.67.63h-6.88c-.54.02-1.08-.14-1.5-.47 -.27-.22-.5-.47-.68-.76l-.22-.39v0l-.32-.54v0l-.5-.79v0c-.63-.92-1.4-1.72-2.29-2.38 -1.26-.94-2.65-1.69-4.12-2.22 -2.04-.71-4.19-1.04-6.34-.98 -3.7-.18-7.32 1.06-10.15 3.44 -2.58 2.37-4.06 5.71-4.09 9.21 -.12 2.14-.17 4.44-.17 6.92l0 1.82c0 1.78.03 3.48.16 5.1 .17 4.69 1.53 8.11 4.08 10.23 2.89 2.23 6.49 3.36 10.14 3.18 1.94.01 3.88-.22 5.78-.68 1.65-.41 3.2-1.17 4.53-2.22 1.31-1.07 2.34-2.46 2.97-4.04 .75-1.97 1.11-4.06 1.05-6.17v-.68h-10.36c-1.26-.03-2.28-1.04-2.3-2.3v-6.06c.02-1.26 1.03-2.28 2.29-2.3h19.54c1.25.02 2.27 1.03 2.29 2.29v9.34c.02 3.2-.52 6.38-1.61 9.39 -1.05 2.79-2.7 5.32-4.85 7.39 -2.32 2.16-5.08 3.81-8.08 4.82 -7.33 2.29-15.18 2.29-22.51 0 -2.95-1-5.64-2.63-7.9-4.76 -2.13-2.07-3.77-4.58-4.81-7.36 -1.14-3.01-1.75-6.18-1.83-9.39l-.03-.55v0l-.05-1.16v0l-.04-1.23c-.01-.22-.01-.43-.02-.65 -.02-.66-.02-1.31-.01-1.98l0-2.03v0 -4 0c0-.88.02-1.67.06-2.42l.06-1.1v0Zm103.87 26.83c1.25.02 2.27 1.03 2.29 2.29v6.03c-.03 1.25-1.04 2.27-2.3 2.29h-42.56c-1.26-.03-2.28-1.04-2.3-2.3v-6.04c-.04-.66.13-1.31.46-1.87l.35-.51c.05-.08.1-.16.16-.23l.29-.38v0l30.14-37.55H467.9c-.61 0-1.19-.24-1.61-.68 -.45-.43-.7-1.02-.69-1.63v-6c.01-1.27 1.03-2.29 2.29-2.3h40.85c1.26.01 2.28 1.03 2.29 2.29v6.02c.03 1.04-.37 2.05-1.11 2.8l-30.24 37.68h29.89Z"/></svg>