<svg viewBox="0 0 512 138" xmlns="http://www.w3.org/2000/svg"><path fill="#EBA06D" d="M455.04 4.21h-.12c-8.95-.17-17.82 1.7-25.94 5.47 -4.72-3.43-10.37-5.34-16.2-5.48 -16.63 0-32.25 7.87-41.48 27.6V8.62c0-2.45-1.99-4.43-4.43-4.43h-7.54c-16.66 0-31.22 9.46-38.36 27.73V5.57c0-.37-.15-.73-.41-.99 -.27-.27-.62-.41-.99-.41h-10.58c-16.77 0-32.02 10.4-38.51 28.12V5.77c0-.44-.18-.86-.5-1.17 -.32-.31-.74-.47-1.18-.46h-10.65c-16.12 0-36.5 8.61-44.53 32.4 -8.54-19.46-25.45-32.39-50.53-32.39h-.12c-39.02 0-57.1 29.61-57.1 66.54 0 42.76 18.33 66.55 57.09 66.55 37.83 0 57.09-23.78 57.09-66.56 0-27.3 15.67-40.19 25.56-40.79 .18-.02.37.05.5.17 .13.12.21.3.21.49v100.62c0 1.18.95 2.13 2.13 2.13h19.81c1.18 0 2.13-.96 2.13-2.14v-27.25c0-61 21.09-72.32 25.68-73.79 .2-.08.42-.04.6.08 .17.12.27.33.27.54v100.43c0 1.18.95 2.13 2.13 2.13h19.64c.56 0 1.11-.23 1.51-.63 .4-.41.62-.95.62-1.52v-27.29c0-61.4 20.35-72.51 25.55-73.86 .19-.06.41-.01.57.12 .16.12.25.32.25.52v100.49c0 1.18.95 2.13 2.13 2.13h19.64c.56 0 1.11-.23 1.51-.63 .4-.41.62-.95.62-1.52v-27.29c0-61.68 20.21-74.08 29.51-74.08 2.03.02 4.04.49 5.87 1.37 -6 11.01-8.91 24.62-8.91 39.43 0 42.76 18.33 66.55 57.09 66.55 37.83 0 57.09-23.78 57.09-66.56 .13-36.95-18.95-66.56-56.96-66.56ZM163.16 113.39c-22.81 0-31.63-19.09-31.63-42.63 0-23.55 8.61-42.61 31.62-42.63 23.01-.03 31.62 19.08 31.62 42.62s-8.81 42.59-31.63 42.62ZM104.31.59c.82-.81 2.14-.81 2.97 0l12.91 12.92c.41.41.63.97.62 1.55 -.02.58-.27 1.13-.69 1.53 -10.61 9.82-20.17 15.6-36.63 15.6H51.9c-1.19 0-2.14.95-2.14 2.13v26.11c0 1.18.95 2.13 2.13 2.13h36.48c.56 0 1.11.22 1.51.62 .4.4.62.94.62 1.51v19.45c0 1.18-.96 2.13-2.14 2.13H51.9c-1.19 0-2.14.95-2.14 2.13v42.86c0 1.18-.96 2.13-2.14 2.13H28.16c-1.19 0-2.14-.96-2.14-2.14V88.38c0-.57-.23-1.12-.63-1.52 -.41-.41-.95-.63-1.52-.63H2.04c-1.19 0-2.14-.96-2.14-2.14V64.63c-.02-.58.2-1.13.59-1.54 .39-.42.94-.65 1.51-.66h21.82c1.18 0 2.13-.96 2.13-2.14V10.55c0-1.19.95-2.14 2.13-2.14h49.96l1.02-.01c14.86-.13 20-3.09 25.11-7.95V.44Zm350.65 27.54c23.01-.03 31.62 19.08 31.62 42.62s-8.81 42.59-31.63 42.62c-22.81 0-31.63-19.09-31.63-42.63 0-23.55 8.61-42.61 31.62-42.63Z"/></svg>