<svg viewBox="0 0 256 256" xmlns="http://www.w3.org/2000/svg"><path fill="#EBA06D" d="M253.97 0c1.12 0 2.02.9 2.02 2.02v251.94c0 1.12-.91 2.02-2.03 2.02H2.01c-1.13 0-2.03-.91-2.03-2.03V2C-.02.87.88-.03 2-.03h251.94Zm-20.48 20.48H22.5c-1.13 0-2.03.9-2.03 2.02v210.96c0 .53.21 1.05.59 1.43l1.43.59h210.98c1.12 0 2.02-.91 2.02-2.03V22.48c0-1.13-.91-2.03-2.03-2.03v0Zm-33.82 166.39c7.06 0 12.8 5.73 12.8 12.79 0 7.06-5.74 12.79-12.81 12.79s-12.81-5.74-12.81-12.8c0-7.07 5.73-12.8 12.8-12.8ZM175.83 60.94c.78-.77 2.03-.77 2.82 0l12.26 12.26c.38.39.59.92.58 1.48 -.02.55-.26 1.07-.67 1.45 -10.08 9.32-19.15 14.81-34.77 14.81h-29.99c-1.13 0-2.03.9-2.03 2.02v24.79c0 1.12.9 2.02 2.02 2.02h34.62c.53 0 1.05.21 1.43.59 .38.38.59.89.59 1.43v18.41c0 .53-.22 1.05-.6 1.43 -.39.38-.9.59-1.44.59h-34.61c-1.13 0-2.03.9-2.03 2.02v40.69c0 .53-.22 1.05-.6 1.43 -.39.38-.9.59-1.44.59H103.5c-1.13 0-2.03-.91-2.03-2.03v-40.7c0-1.13-.91-2.03-2.03-2.03H78.71c-1.13 0-2.03-.91-2.03-2.03v-18.47c0-.54.21-1.06.59-1.44 .38-.39.89-.6 1.43-.6h20.72c1.12 0 2.02-.91 2.02-2.03V70.4c0-1.13.9-2.03 2.02-2.03h47.42l.99-.01c14.09-.13 18.96-2.93 23.81-7.55v0Z"/></svg>