<svg viewBox="0 0 256 256" xmlns="http://www.w3.org/2000/svg"><path fill="#54BD7E" d="M21.33 0h213.33c11.78 0 21.33 9.55 21.33 21.33v213.33c0 11.78-9.56 21.33-21.34 21.33H21.31c-11.79 0-21.34-9.56-21.34-21.34V21.31C-.03 9.52 9.52-.03 21.3-.03Z"/><path fill="#FFF" d="M135.69 84.61c30.86-2.33 49.52-17.03 55.34-36.62 -40.74 18.77-91.57-4.2-101.19 37.28l-4.94 22.1c8.57-13.32 19.91-20.45 50.77-22.78Zm-16.06 3.76c-15.18 2.18-27.35 9.22-34.18 21.58 -2.2 3.97-2.98 8.25-2.98 8.25l-3.5 15.64c4.37-7.8 12.19-17.77 32.69-22.51 .46-2.49 3.26-16.71 7.94-22.98Zm-43.82 59.76l-5.34 23.9c14.12-26.9 44.52-32.12 48.28-32.91 26.47-5.54 39.22-18.69 44.28-35.77 -23.11 13.06-77.02-3.34-87.25 44.76Zm-7.9 35.42l-3.93 17.59c31.3-1.77 34.76-31.86 39.87-55.76 -9.75 3.4-31.21 16.72-35.95 38.15Z"/></svg>