<svg viewBox="0 0 256 283" xmlns="http://www.w3.org/2000/svg"><path fill="#524B5A" d="M234.66 54.83l-85.34-49.2c-13.31-7.53-29.62-7.53-42.92 0L21.06 54.82C5.49 63.6-.03 76.65-.03 91.96v98.63c0 15.3 8.03 29.36 21.33 37.14l85.33 49.19c13.3 7.52 29.61 7.52 42.91 0l85.08-49.2c13.3-7.53 21.33-21.84 21.33-37.15V91.93c0-15.31-8.04-29.37-21.34-37.15v0Zm-57.23 158.36c0 2.5-1.76 4.26-4.02 4.26H82.8c-2.51 0-4.27-1.76-4.27-4.27V194.6c0-2.26.75-4.27 2.5-6.03l10.79-10.55 6.52-60.74c.25-1.76-.51-3.27-1.76-4.27l-8.79-7.79c-1.76-1.51-2.51-3.77-2.51-6.03V69.57c0-2.51 1.75-4.52 4.26-4.52h13.3c2.25 0 4.51 2 4.51 4.26v6.77h11.04v-6.53c0-2.51 2-4.52 4.51-4.52h10.79c2.25 0 4.01 2 4.01 4.26v6.77h11.04v-6.28c0-2.51 2.5-4.77 5.01-4.77h13.05c2.25 0 4.76 2 4.76 4.26v30.61c0 2-1.01 3.76-2.26 5.27l-9.54 7.78c-1.26 1-1.76 2.5-1.76 4.01l6.77 60.98 10.79 11.04c1.25 1.25 1.75 2.76 1.75 4.51v19.57 0Zm-49.2-63.75c-7.03-.26-12.55 6.02-12.55 12.8v26.1c0 1.5 1.25 2.76 2.76 2.76h18.82c1.5 0 3.01-1.51 3.01-3.02v-25.86c-.26-6.78-5.02-12.55-12.05-12.8v0Z"/></svg>