<svg viewBox="0 0 256 256" xmlns="http://www.w3.org/2000/svg"><path fill="#734F96" d="M48 0h160c26.5 0 48 21.49 48 48v160c0 26.5-21.5 48-48 48H48c-26.51 0-48-21.5-48-48V48C0 21.49 21.49 0 48 0Z"/><path fill="#FFF" d="M34.89 216.95c0-10.18.07-11.09.96-11.11 .53-.02 5.79-.25 11.69-.53 9.5-.45 11.01-.65 13.27-1.79 1.78-.9 2.88-1.95 3.68-3.5 1.12-2.21 1.13-2.72 1.13-72.33 0-65.42-.07-70.23-.96-71.87 -1.22-2.22-3.32-3.88-5.9-4.67 -1.11-.34-6.94-.75-12.96-.92l-10.95-.3V38.91 27.89h93.1 93.1v41.28 41.28l-9.84-.06c-5.42-.04-10.47-.23-11.23-.45 -1.37-.38-1.4-.53-2.05-8.96 -.84-10.81-1.53-15.6-3.27-22.79 -3.76-15.55-11.69-24.01-24.64-26.28 -5.44-.96-29.14-1.88-48.62-1.89L107.96 50v31.04 31.04l7.06-.36c8.07-.41 14.42-1.38 17.49-2.69 3.26-1.4 6.71-4.93 8.32-8.53 1.68-3.76 2.78-8.7 3.67-16.45 .34-3.05.74-6.11.88-6.79 .25-1.25.3-1.25 11.05-1.25h10.79v49.6 49.6h-11.01 -11.01l-.37-5.73c-.67-10.37-2.69-20.18-5.12-24.87 -3.32-6.41-9.84-9.29-22.95-10.14 -2.9-.19-6.1-.47-7.11-.63l-1.84-.29 .21 31.2c.22 32.91.32 34.2 2.82 36.95 2.56 2.83 4.06 3.03 30.15 3.92 .53.01.69 2.62.69 11.1v11.08H88.19 34.7v-11.09Z"/></svg>