<svg viewBox="0 0 512 275" xmlns="http://www.w3.org/2000/svg"><path fill="#FFF" d="M374.69 0a137.3 137.3 0 1 0 0 274.6 137.3 137.3 0 1 0 0-274.61Z"/><g fill="#EE350F"><path d="M492.21 66.27c12.55 20.72 19.77 45.03 19.77 71.03 0 75.83-61.48 137.3-137.31 137.3 -9.09 0-17.97-.89-26.56-2.57L492.19 66.26Zm-11.27-15.93c.01.01.02.02.03.04l-73.02 104.28 -14.77-16.63 17.13-18.46h-12.77l-14.01 15.4V96.33h-9.89v62.28h9.88v-17.06l14.91 17.05h6.7l-75.84 108.3c-51.66-18.07-89.22-66.12-91.83-123.29l7.8 16.96 12.35-27.85 12.52 27.84 18.86-41.03h-10.06l-8.41 20.01 -8.24-20.02h-8.33l-8.49 20.01 -7.3-18.1c3.07-26.85 13.88-51.34 30.14-71.19h212.52Zm-168.4 68.26c-2.92 0-5.63.52-8.16 1.56 -2.53 1.04-4.74 2.49-6.64 4.36 -1.9 1.86-3.38 4.05-4.45 6.54 -1.08 2.49-1.61 5.17-1.61 8.03 0 2.85.53 5.53 1.6 8.03 1.07 2.49 2.55 4.66 4.44 6.5 1.89 1.83 4.1 3.29 6.63 4.36 2.52 1.07 5.24 1.6 8.15 1.6s5.62-.54 8.15-1.61c2.52-1.08 4.73-2.53 6.63-4.37 1.89-1.84 3.37-4.01 4.44-6.51 1.07-2.5 1.6-5.18 1.6-8.04 0-2.86-.54-5.54-1.61-8.04 -1.08-2.5-2.56-4.69-4.45-6.55 -1.9-1.87-4.11-3.33-6.64-4.37 -2.53-1.05-5.25-1.57-8.16-1.57Zm48.27 0c-2.64 0-4.87.68-6.68 2.05 -1.82 1.37-3.19 2.91-4.12 4.61v-5.69h-9.4v39.04h9.88v-25.54c.76-1.27 1.86-2.46 3.29-3.59 1.42-1.13 3.29-1.69 5.6-1.69 .87 0 1.71.08 2.51.24 .79.16 1.46.38 2.01.65l3.46-8.9c-1.16-.44-2.31-.76-3.47-.95 -1.16-.2-2.2-.29-3.14-.29Zm-48.28 9.22c1.64 0 3.14.3 4.48.9 1.34.6 2.48 1.42 3.41 2.47 .93 1.04 1.64 2.23 2.14 3.58 .49 1.34.74 2.78.74 4.32 0 1.53-.25 2.99-.75 4.36s-1.21 2.56-2.15 3.58c-.94 1.01-2.08 1.82-3.42 2.43 -1.35.6-2.85.9-4.49.9 -1.65 0-3.15-.31-4.49-.91 -1.35-.61-2.49-1.42-3.42-2.44 -.94-1.02-1.65-2.22-2.15-3.59 -.5-1.38-.75-2.83-.75-4.37s.24-2.98.74-4.33c.49-1.35 1.2-2.55 2.14-3.59 .93-1.05 2.07-1.87 3.41-2.48 1.34-.61 2.84-.91 4.48-.91ZM374.66-.02c33.56 0 64.3 12.04 88.16 32.03H286.49c23.85-20 54.59-32.04 88.16-32.04Z"/><path d="M90.86 118.6c5.43 0 9.72 1.31 12.85 3.95 3.13 2.63 4.69 6.17 4.69 10.62v25.45h-9.15v-4.95c-1.27 1.7-3.01 3.11-5.24 4.24 -2.23 1.12-4.71 1.68-7.46 1.68 -1.87 0-3.67-.29-5.4-.87 -1.74-.58-3.26-1.43-4.58-2.56 -1.32-1.13-2.37-2.49-3.14-4.08 -.77-1.6-1.16-3.38-1.16-5.36 0-1.98.39-3.78 1.19-5.4 .79-1.63 1.89-3.01 3.29-4.17 1.4-1.16 3.04-2.05 4.94-2.68 1.89-.64 3.94-.95 6.13-.95 1.81 0 3.67.23 5.6.7 1.92.46 3.59 1.16 5.02 2.1v-2.23c0-1.27-.28-2.34-.83-3.22 -.55-.88-1.24-1.58-2.06-2.11 -.83-.53-1.75-.9-2.76-1.12 -1.02-.22-2-.33-2.93-.33 -1.32 0-3 .21-5.03.65 -2.04.43-4.21 1.18-6.51 2.22l-3.22-8.16c1.97-.94 4.32-1.76 7.04-2.48 2.71-.72 5.58-1.08 8.6-1.08Zm113.27 0c2.69 0 5.23.49 7.62 1.48 2.38.98 4.47 2.37 6.26 4.16 1.78 1.78 3.19 3.92 4.24 6.42 1.04 2.49 1.56 5.25 1.56 8.27v1.56c0 .65-.03 1.37-.09 2.14h-29.17c.21.93.61 1.86 1.19 2.8 .57.93 1.34 1.77 2.3 2.51 .96.74 2.07 1.35 3.33 1.85 1.26.49 2.69.74 4.28.74 1.64 0 3.43-.31 5.35-.91 1.92-.61 3.65-1.63 5.19-3.05l4.94 7.41c-1.6 1.31-3.74 2.58-6.43 3.78 -2.7 1.2-5.77 1.81-9.23 1.81 -2.97 0-5.73-.53-8.28-1.57 -2.56-1.05-4.78-2.5-6.68-4.37 -1.9-1.87-3.38-4.07-4.45-6.6 -1.08-2.53-1.61-5.25-1.61-8.16 0-2.81.49-5.44 1.48-7.91 .98-2.48 2.34-4.63 4.07-6.47 1.73-1.84 3.8-3.3 6.21-4.37 2.41-1.08 5.02-1.61 7.82-1.61ZM34.17 100.97v9.39H9.86v14.08h22.65v9.39H9.85v24.79H-.04v-57.67h34.18Zm28.25 17.62c.93 0 1.97.09 3.13.28 1.15.19 2.3.5 3.46.94l-3.47 8.89c-.55-.28-1.23-.5-2.02-.66 -.8-.17-1.64-.25-2.52-.25 -2.31 0-4.18.56-5.61 1.68 -1.43 1.12-2.53 2.32-3.3 3.58v25.53H42.2v-39.05h9.39v5.68c.93-1.71 2.3-3.25 4.11-4.62 1.81-1.38 4.03-2.06 6.67-2.06Zm101.08 0c1.97 0 3.81.34 5.51 1.02 1.7.68 3.15 1.66 4.36 2.92 1.2 1.26 2.15 2.81 2.84 4.65 .68 1.83 1.02 3.94 1.02 6.3v25.12h-9.89v-22.58c0-5.5-2.23-8.24-6.68-8.24 -2.2 0-3.92.54-5.15 1.64 -1.24 1.09-2.19 2.22-2.85 3.37v25.78h-9.89v-22.58c0-5.5-2.23-8.24-6.68-8.24 -2.2 0-3.92.54-5.15 1.64 -1.24 1.09-2.19 2.22-2.85 3.37v25.78h-9.89v-39.05h9.22v5.68c.98-1.65 2.44-3.18 4.36-4.58 1.92-1.41 4.39-2.11 7.41-2.11 2.58 0 4.94.59 7.08 1.77 2.14 1.18 3.73 2.86 4.77 5.06 .43-.83 1.02-1.65 1.77-2.48 .74-.83 1.63-1.56 2.67-2.19 1.04-.64 2.22-1.16 3.54-1.57 1.31-.42 2.77-.62 4.36-.62Zm-73.57 22.24c-.88 0-1.76.09-2.64.28 -.88.19-1.69.49-2.44.9 -.75.41-1.35.97-1.82 1.68s-.71 1.59-.71 2.63c0 1.04.21 1.89.65 2.55 .43.65 1 1.16 1.68 1.52 .68.35 1.44.6 2.26.74 .82.13 1.59.2 2.3.2 2.3 0 4.2-.49 5.68-1.45 1.48-.97 2.66-2 3.54-3.09v-4.04c-1.27-.66-2.7-1.16-4.29-1.49 -1.6-.33-3.03-.5-4.29-.5Zm114.18-13.27c-1.6 0-2.97.24-4.12.74 -1.16.49-2.13 1.12-2.93 1.89 -.8.76-1.41 1.62-1.82 2.55 -.42.93-.65 1.83-.71 2.71h19.35c-.06-.83-.29-1.71-.71-2.64 -.42-.94-1.02-1.8-1.82-2.6s-1.8-1.45-3.01-1.94c-1.21-.5-2.64-.75-4.29-.75Z"/></g></svg>