<svg viewBox="0 0 256 252" xmlns="http://www.w3.org/2000/svg"><g fill="#B5010F"><path d="M252.72 5.1c13.5 13.5-23.94 72.84-30.27 79.18 -6.34 6.32-22.41.5-35.92-13 -13.51-13.51-19.33-29.59-13-35.92 6.32-6.34 65.67-43.78 79.17-30.27"/><path d="M63.3 19.39C42.67 7.68 13.33-5.33 3.99 4c-9.46 9.45 4.03 39.45 15.85 60.11 10.52-18.3 25.48-33.7 43.44-44.74"/><path d="M232.12 79.63c1.89 6.44 1.55 11.76-1.53 14.83 -7.2 7.19-26.63-.47-44.15-17.14 -1.23-1.1-2.44-2.24-3.63-3.43 -6.34-6.34-11.27-13.09-14.42-19.3 -6.14-11.01-7.67-20.73-3.04-25.37 2.52-2.53 6.57-3.22 11.5-2.33 3.21-2.04 7.01-4.3 11.17-6.63 -16.93-8.83-36.18-13.82-56.6-13.82C63.7 6.44 8.8 61.33 8.8 129.05c0 67.71 54.89 122.6 122.61 122.6 67.71 0 122.61-54.9 122.61-122.61 0-21.87-5.74-42.38-15.77-60.16 -2.17 3.95-4.28 7.57-6.2 10.68"/></g></svg>