<svg viewBox="0 0 256 228" xmlns="http://www.w3.org/2000/svg"><path fill="#38A1E7" d="M90.624 148.45c9.08 0 13.21 4.31 13.84 11.55h.12c-.03.33-.05.67-.06 1 .01.34.02.69.02 1.05v1.03c.64 10.82 9.11 19.59 19.98 20.96 .82-.1 1.69-.14 2.61-.14h3.28c10.43-1.73 18.44-10.32 19.07-20.84v-1.04c0-.45.01-.88.03-1.31 -.01-.26-.02-.52-.04-.77h.08c.64-7.24 4.76-11.56 13.85-11.56h13.93V162c0 9.4-4.9 13.62-13.94 13.62h-2.42c-10.04 1.11-18.1 8.53-19.95 18.09v3.76c0 2.04-.24 3.83-.69 5.39v15.39c0 5.05-4.26 9.2-9.41 9.2h-8.79c-5.18 0-9.4-4.15-9.4-9.21v-21.08c0-.87.12-1.71.35-2.52 -1.52-10.03-9.78-17.92-20.15-19.08h-2.42c-9.04 0-13.94-4.23-13.94-13.63V148.3H90.5Zm36.53 0c9.91 0 13.93 8.16 13.93 13.62 0 9.4-4.91 13.62-13.94 13.62 -9.04 0-13.94-5.15-13.94-13.63s4.01-13.63 13.93-13.63ZM14.72 110.27c9.08 0 13.21 4.31 13.84 11.54h.12c-.03.34-.05.67-.07 1.01 .01.34.02.69.02 1.05v1.03c.65 10.83 9.17 19.6 20.032 20.96 .81-.09 1.67-.13 2.57-.13h3.26c10.25-1.69 18.22-10.01 19.1-20.29v-1.58c0-.5.01-.98.04-1.45l-.05-.64h.08c.64-7.24 4.8-11.55 13.88-11.55h13.93v13.62c0 9.4-4.95 13.61-13.94 13.61h-2.44c-10.02 1.11-18.11 8.53-19.97 18.1v3.76c0 9.4-4.9 13.61-13.94 13.61 -11.33 0-13.94-5.15-13.94-13.62 0-.66.02-1.28.07-1.9 -1.14-10.46-9.59-18.79-20.24-19.97h-2.44c-9.04 0-13.94-4.22-13.94-13.62v-13.63h13.93Zm154.46 0c9.08 0 13.21 4.31 13.84 11.54h.12c-.03.34-.05.67-.07 1.01 .01.34.02.69.02 1.05v1.03c.64 10.7 8.98 19.4 19.66 20.91l.36.04 .49-.05c.66-.06 1.35-.09 2.08-.09h3.26c10.43-1.71 18.5-10.31 19.14-20.84v-1.04c0-.36 0-.72.02-1.06l-.08-1.02h.13c.63-7.24 4.76-11.55 13.84-11.55h13.93v13.62c0 9.4-4.94 13.61-13.94 13.61h-2.44c-10.02 1.11-18.1 8.54-19.97 18.11v3.75c0 9.4-4.9 13.61-13.94 13.61 -11.33 0-13.94-5.15-13.94-13.62 0-.66.02-1.28.07-1.9 -1.14-10.46-9.58-18.79-20.24-19.97h-2.44c-9.04 0-13.94-4.22-13.94-13.62v-13.63h13.93Zm36.53 0c9.92 0 13.93 8.15 13.93 13.62 0 9.4-4.91 13.61-13.94 13.61 -9 0-13.94-5.15-13.94-13.62 0-8.49 4.01-13.63 13.93-13.63Zm-154.46 0c9.91 0 13.92 8.15 13.92 13.62 0 9.27-4.77 13.5-13.58 13.61l-.36 0 -.37-.01c-8.81-.14-13.57-5.26-13.57-13.62 0-8.49 4.01-13.63 13.93-13.63Zm39.34-37.13c9.07 0 13.21 4.31 13.83 11.55h.12l-.06 1c.01.34.02.7.02 1.06v1.03c.65 10.83 9.13 19.59 20 20.95 .81-.09 1.68-.13 2.59-.13h3.25c10.44-1.73 18.47-10.31 19.1-20.84v-1.04c0-.45.01-.88.03-1.31 -.01-.26-.02-.52-.04-.77h.09c.62-7.24 4.76-11.56 13.84-11.56h13.93V86.7c0 9.4-4.9 13.62-13.94 13.62h-2.42c-10.04 1.11-18.1 8.53-19.95 18.1v3.76c0 9.4-4.91 13.61-13.94 13.61 -11.33 0-13.94-5.15-13.94-13.62 0-.66.02-1.28.07-1.9 -1.14-10.46-9.58-18.79-20.26-19.97h-2.42c-9.04 0-13.94-4.23-13.94-13.63V73.04h13.93Zm36.53-.01c9.91 0 13.93 8.15 13.93 13.62 0 9.4-4.91 13.62-13.94 13.62 -9.04 0-13.94-5.15-13.94-13.63s4.01-13.63 13.93-13.63ZM13.89 36.72c9.07 0 13.21 4.31 13.83 11.55h.12l-.07 1c.01.34.02.69.02 1.05v1.02c.65 10.83 9.17 19.61 20.03 20.97v-.01c.81-.09 1.67-.13 2.57-.13h3.26c10.43-1.71 18.51-10.32 19.14-20.86V50.3c0-.36 0-.72.02-1.06 -.02-.34-.04-.68-.07-1.02h.12c.63-7.24 4.76-11.56 13.84-11.56h13.93v13.62c0 9.4-4.95 13.61-13.94 13.61h-2.44c-10.02 1.11-18.11 8.53-19.97 18.1v3.76c0 9.4-4.9 13.62-13.94 13.62 -11.28 0-13.94-5.15-13.94-13.63 0-.66.02-1.28.07-1.9 -1.14-10.46-9.58-18.79-20.24-19.98h-2.45c-9.03 0-13.94-4.22-13.94-13.62V36.61h13.93Zm242.06-.01v13.62c0 9.4-4.94 13.61-13.94 13.61h-2.44c-10.02 1.11-18.1 8.54-19.97 18.11v3.75c0 9.4-4.9 13.62-13.94 13.62 -11.33 0-13.94-5.15-13.94-13.63 0-.66.02-1.28.07-1.9 -1.14-10.46-9.58-18.78-20.24-19.97h-2.44c-9.04 0-13.94-4.22-13.94-13.62V36.68h13.93c9.08 0 13.21 4.31 13.84 11.55h.12l-.07 1c.01.34.02.69.02 1.05v1.02c.65 10.83 9.17 19.61 20.03 20.97l-.01-.01c.81-.09 1.67-.13 2.58-.13h3.26c10.43-1.71 18.5-10.31 19.14-20.84v-1.04c0-.36 0-.72.02-1.06l-.08-1.01h.13c.62-7.24 4.76-11.56 13.84-11.56h13.93Zm-205.53 0c9.91 0 13.92 8.15 13.92 13.62 0 9.4-4.9 13.61-13.94 13.61 -9 0-13.94-5.15-13.94-13.62 0-8.49 4.05-13.63 13.93-13.63Zm155.25 0c9.92 0 13.93 8.15 13.93 13.62 0 9.4-4.91 13.61-13.94 13.61 -9 0-13.94-5.15-13.94-13.62 0-8.49 4.01-13.63 13.93-13.63ZM90.56-.02c9.08 0 13.21 4.31 13.83 11.55h.12l-.06 1c.01.34.02.69.02 1.05v1.03c.65 10.83 9.13 19.59 20 20.95v0c.81-.09 1.68-.13 2.59-.13h3.25c10.44-1.73 18.47-10.31 19.1-20.84v-1.04c0-.45.01-.88.03-1.31 -.01-.26-.02-.52-.04-.77h.09c.62-7.25 4.76-11.57 13.84-11.57h13.93v13.62c0 9.4-4.9 13.62-13.94 13.62h-2.45c-10.02 1.13-18.07 8.54-19.92 18.09v3.76c0 9.4-4.91 13.61-13.94 13.61 -11.33 0-13.94-5.15-13.94-13.62 0-.66.02-1.28.07-1.9 -1.14-10.45-9.56-18.77-20.23-19.97h-2.46c-9.04 0-13.94-4.224-13.94-13.63V-.15h13.93Zm36.53 0c9.91 0 13.93 8.15 13.93 13.62 0 9.4-4.91 13.62-13.94 13.62 -9.04 0-13.94-5.15-13.94-13.63s4.01-13.63 13.93-13.63Z"/></svg>