<svg viewBox="0 0 256 366" xmlns="http://www.w3.org/2000/svg" xmlns:xlink="http://www.w3.org/1999/xlink"><defs><linearGradient id="a" x1="12.518%" x2="88.228%" y1="85.212%" y2="10.022%"><stop offset="0%" stop-color="#FF0057" stop-opacity=".16"/><stop offset="86.1354%" stop-color="#FF0057"/></linearGradient><linearGradient id="b" x1="12.518%" x2="88.228%" y1="85.212%" y2="10.022%" xlink:href="#a"/><path id="c" d="M147.01 68.02a78.99 78.99 0 1 0 0 157.98 78.99 78.99 0 1 0 0-157.99Z"/></defs><path fill="#001B38" d="M0 60.85C0 27.24 27.24-.01 60.85-.01h56.17 138.96v86.59c0 16.8-13.63 30.42-30.43 30.42h-79.77c-15.81.25-28.57 13.03-28.79 28.84v189.4c0 16.8-13.63 30.42-30.43 30.42H-.04V116.97 60.79Z"/><use fill="url(#a)" transform="rotate(90 147.013 147.015)" xlink:href="#c"/><use opacity=".5" fill="url(#b)" transform="rotate(90 147.013 147.015)" xlink:href="#c"/></svg>