<svg viewBox="0 0 256 288" xmlns="http://www.w3.org/2000/svg"><path fill="#E4A663" d="M222.48 215.6c2.99 0 4.03-.7 5.46-3.14 1.42-2.44.73-6.39.68-7.47 -.14-2.37-.93-5.01-1.04-6.33 0-.81 0-5.96.12-8.07 1.8-33.41 16.13-41.36 20.28-42.26 2.64-.78 5.47-.59 7.98.53V97.75v0 -.73 -13.56c0-7.39-5.25-16.47-11.65-20.18L139.59 2.75c-6.46-3.74-16.99-3.74-23.34-.05L11.63 63.14C5.24 66.83-.01 75.91-.001 83.31v13.2c-.01.07-.01.15 0 .22v19.28c.6.33 1.21.68 1.81 1.06 2.03 1.34 4.03 2.08 6.07 3.49 5.82 3.54 11.23 7.73 16.13 12.48 .95.91 4.14 4.92 4.89 5.86 2.31 3.19 4.91 6.16 7.77 8.87 1.57 1.43 3.31 2.69 5.17 3.73 3.07 1.6 8.16 1.23 10.75.09 19.93-8.64 32.44-4.31 38.21-.84 14.27 8.56 19.03 20.55 20.55 35.1 .19 1.88.26 3.78.18 5.67 0 3.45-.13 9.01 3.52 9.93 5.23 1.34 6.49-4.26 7.27-7.97 1.76-8.41 12.95-13.93 21.14-9.69 5.64 2.91 7.96 4.57 13.54 2.11 6.98-3.08 10.58-10.93 13.01-15.1 2.4-4.06 5.88-7.38 10.06-9.58 10.89-6.8 38.27-5.04 39.27 25.15 0 1.64 0 5.83 0 8.39 0 2.87.09 5.68-.1 8.66 -.13 1.97-.48 4.03-.66 6.06 -.06 0-1.08 5.9 3.75 5.93Z"/><path fill="#5E464D" d="M255.95 148.95c-.74-.23-2.9-1.65-7.97-.54 -4.16.9-18.48 8.84-20.29 42.25 -.11 2.05-.18 7.2-.13 8.06 .1 1.34.9 3.95 1.03 6.32 0 1.07.82 4.97-.69 7.46 -1.51 2.48-2.47 3.14-5.47 3.13 -4.83 0-3.81-5.94-3.81-5.94 .18-2.01.53-4.04.65-6.07 .18-2.98.09-5.79.09-8.67 0-2.56 0-6.73 0-8.4 -1-30.19-28.38-31.95-39.28-25.16 -4.18 2.2-7.66 5.51-10.07 9.57 -2.44 4.16-6.04 12.01-13.02 15.09 -5.59 2.46-7.9.8-13.55-2.12 -8.2-4.24-19.39 1.27-21.15 9.68 -.79 3.71-2.05 9.29-7.28 7.96 -3.65-.93-3.53-6.49-3.53-9.94 .07-1.9.01-3.8-.19-5.68 -1.52-14.56-6.29-26.54-20.56-35.11 -5.77-3.48-18.28-7.81-38.22.83 -2.69 1.14-7.73 1.5-10.76-.1 -1.87-1.05-3.6-2.3-5.18-3.74 -2.86-2.72-5.46-5.69-7.78-8.88 -.76-.95-3.95-4.95-4.9-5.87 -4.91-4.75-10.32-8.94-16.14-12.49 -2.05-1.35-4.04-2.21-6.08-3.5 -.61-.38-1.22-.73-1.82-1.07v88.18c0 7.39 5.24 16.47 11.64 20.17l104.71 60.52c6.4 3.71 16.87 3.71 23.28 0l104.73-60.45c6.4-3.7 11.63-12.78 11.62-20.18l-.05-55.48Z"/><g fill="#FFF"><path d="M141.3 134.13c-7.24 4.18-19.09 4.18-26.33 0L7.88 77.64c1.21 1.19 108.59 63.57 108.59 63.57 6.4 3.71 16.87 3.71 23.28 0 0 0 107.23-62.2 108.44-63.39l-106.92 56.3Z"/><path d="M114.8 10.86c7.24-4.15 19.08-4.15 26.33.01l12.97 5.37c-1.22-1.2-14.5-9.81-14.5-9.81 -6.41-3.7-16.87-3.72-23.27 0 0 0-21.23 12.46-22.43 13.65l20.87-9.24Z"/></g></svg>