<svg viewBox="0 0 512 789" xmlns="http://www.w3.org/2000/svg"><path fill="#5E464D" d="M63.96 598.19c3.35-.02 6.69.49 9.88 1.52 2.9.93 5.59 2.43 7.92 4.41 2.19 1.93 3.95 4.3 5.16 6.96 1.32 2.89 1.98 6.05 1.93 9.23 0 3.22-.63 6.42-1.84 9.41 -1.24 3.06-2.9 5.93-4.93 8.54 -2.13 2.74-4.57 5.21-7.28 7.37 -2.69 2.17-5.57 4.09-8.62 5.72 -2.93 1.55-6.02 2.79-9.22 3.68 -2.94.84-5.98 1.29-9.04 1.31 -2.21.04-4.37-.69-6.09-2.07 -1.84-1.63-2.8-4.04-2.59-6.48 0-.7.05-1.4.12-2.09 .09-.71.23-1.41.43-2.09 .15-.57.37-1.12.67-1.63 .16-.39.53-.64.95-.65 .32 0 .65.1.92.28 .35.24.73.45 1.13.61 .63.25 1.29.46 1.96.61 1.13.23 2.29.33 3.45.3 2.77-.07 5.49-.69 8.02-1.84 2.85-1.25 5.51-2.9 7.89-4.91 2.43-1.96 4.52-4.32 6.16-6.97 1.54-2.47 2.38-5.32 2.39-8.24 -.02-1.13-.23-2.25-.62-3.31 -.44-1.21-1.13-2.31-2.02-3.23 -1.04-1.11-2.3-1.99-3.69-2.59 -1.8-.72-3.72-1.07-5.66-1.01 -4.11-.04-8.18.84-11.9 2.58 -3.97 1.88-7.59 4.39-10.74 7.45 -3.48 3.34-6.56 7.07-9.19 11.12 -2.83 4.32-5.21 8.9-7.13 13.7 -1.98 4.98-3.48 10.14-4.49 15.4 -1.07 5.16-1.62 10.41-1.63 15.68 -.08 5.83.47 11.66 1.62 17.39 .9 4.57 2.46 9 4.64 13.13 1.69 3.26 4.1 6.11 7.04 8.33 2.54 1.88 5.63 2.9 8.79 2.91 3.16.03 6.29-.61 9.18-1.89 2.75-1.22 5.29-2.88 7.5-4.93 2.27-2.14 4.24-4.58 5.85-7.26 1.63-2.69 3.03-5.51 4.17-8.44 1.1-2.82 1.96-5.73 2.58-8.7 .54-2.63.82-5.3.85-7.98 -.01-1.07-.07-2.12-.19-3.18 -.11-.92-.17-1.84-.19-2.77 -.06-.71.13-1.4.51-1.99 .36-.47.84-.84 1.39-1.06 .64-.26 1.32-.41 2.01-.44h2.39c1.04.02 2.07.2 3.07.51 1.15.35 2.26.83 3.3 1.44 .96.57 1.83 1.29 2.58 2.14 .68.68 1.07 1.61 1.1 2.58 -.52 4.82-.83 9.41-.96 13.75 -.13 4.33-.21 8.72-.21 13.21v28.07c1.85-.31 3.66-.5 5.41-.62l5.03-.34c2.29 0 3.79.51 4.46 1.96 .68 1.51.78 3.23.28 4.82 -.52 1.85-1.45 3.55-2.74 4.97 -1.13 1.4-2.8 2.25-4.6 2.34h-4.18c-.79 0-1.57.05-2.38.12l-1.71.15v0c-.19 3.35-.5 6.75-.86 10.19 -.39 3.36-1.02 6.7-1.89 9.98 -.83 3.12-1.95 6.15-3.36 9.05 -1.31 2.72-3.05 5.21-5.17 7.37 -2.11 2.12-4.62 3.81-7.38 4.95 -2.89 1.16-5.96 1.78-9.06 1.83l-1.04-.01c-3.1.04-6.17-.5-9.06-1.6 -2.51-1.02-4.79-2.52-6.71-4.42 -1.93-1.9-3.43-4.17-4.42-6.69 -1.06-2.67-1.58-5.5-1.55-8.36 -.08-4.23.98-8.4 3.07-12.08 2.08-3.59 4.83-6.74 8.1-9.29 3.52-2.79 7.41-5.08 11.55-6.82 4.33-1.86 8.79-3.43 13.33-4.7l-.01-4.56v0l-.03-2.63c-.02-1.28-.06-2.49-.12-3.64l-.07-1.14c-.13-1.86-.15-3.55-.15-5.09l.01-2.61v0c-3.72 5.16-8.41 9.54-13.81 12.9 -5 3.03-10.75 4.62-16.6 4.59 -5.66.09-11.24-1.28-16.21-3.98 -4.83-2.74-8.93-6.6-11.95-11.25 -3.44-5.36-5.93-11.27-7.36-17.47 -1.78-7.48-2.64-15.13-2.59-22.81 .02-6.13.69-12.24 2.01-18.22 1.34-6.21 3.32-12.26 5.9-18.07 2.57-5.87 5.73-11.45 9.44-16.67 3.59-5.08 7.84-9.65 12.64-13.6 4.71-3.85 9.98-6.94 15.63-9.19 5.83-2.3 12.05-3.46 18.31-3.41Zm4.38 150.03c-5.55 1.35-10.7 4-15.02 7.74 -3.3 2.94-5.18 7.16-5.17 11.58 -.31 2.01.31 4.06 1.69 5.57 1.37 1.5 3.36 2.3 5.4 2.16l-.13-.13c2.08.02 4.1-.76 5.62-2.2 1.71-1.67 3.03-3.7 3.87-5.94 1.11-2.74 1.94-5.58 2.45-8.49 .61-3.42 1.03-6.86 1.26-10.33Zm312.97-138.97c1.75 1.3 2.79 3.35 2.81 5.54v58.59c1.3-2.43 2.75-4.76 4.36-7 1.5-2.06 3.23-3.93 5.16-5.6 1.73-1.56 3.7-2.83 5.83-3.77 1.86-.8 3.86-1.25 5.89-1.33l.86-.02c2.78-.11 5.55.45 8.07 1.65 1.98 1 3.69 2.47 4.97 4.28 1.24 1.75 2.12 3.73 2.58 5.83 .47 2.05.71 4.15.72 6.26v38.93c.06.94.25 1.86.56 2.76 .32.9.83 1.73 1.49 2.42 .68.65 1.57 1.02 2.51 1.06l.4-.01c1.89.03 3.74-.65 5.16-1.91 1.5-1.38 2.77-3 3.74-4.8 1.06-1.99 1.93-4.09 2.58-6.25l.37-1.33v0l.41-1.51c-.49-2.51-.72-5.07-.67-7.64 -.05-5.36.82-10.68 2.58-15.74 1.56-4.55 3.86-8.8 6.81-12.6 2.62-3.38 5.88-6.21 9.59-8.34 3.35-1.94 7.14-2.97 11.01-3 2.53-.05 5.06.4 7.43 1.31 2.12.8 4.04 2.06 5.62 3.68 1.54 1.63 2.72 3.58 3.48 5.7 .74 2.32 1.08 4.75 1 7.19 -.02 3.52-.66 7.01-1.89 10.32 -1.3 3.57-3.17 6.91-5.55 9.88 -2.61 3.23-5.68 6.05-9.11 8.38 -3.83 2.56-8.06 4.46-12.52 5.62 .66 1.54 1.53 2.99 2.58 4.3 1.06 1.37 2.34 2.57 3.79 3.53 1.58 1.04 3.32 1.83 5.16 2.34 1.88.53 3.82.82 5.78.87l.97 0c3.39.09 6.77-.58 9.88-1.97 2.63-1.24 4.99-2.99 6.94-5.17 1.88-2.17 3.42-4.62 4.56-7.26 1.12-2.61 1.99-5.33 2.58-8.11 .23-1.69 1.24-3.16 2.73-3.98 1.3-.67 2.81-.83 4.23-.47 1.44.34 2.74 1.12 3.74 2.21 1.02 1.08 1.49 2.57 1.29 4.05 -.33 2.08-.76 4.15-1.3 6.19 -.67 2.44-1.59 4.81-2.74 7.06 -1.31 2.49-2.87 4.85-4.68 7.01 -2 2.38-4.34 4.45-6.95 6.14 -3.01 1.91-6.28 3.38-9.71 4.36 -4.15 1.16-8.44 1.72-12.75 1.65 -4.42-.01-8.79-.83-12.91-2.4 -4.12-1.56-7.9-3.9-11.13-6.89 -1.4-1.33-2.68-2.77-3.83-4.3 -.87 1.37-1.82 2.7-2.86 3.96 -2.24 2.74-4.97 5.04-8.06 6.78 -3.11 1.72-6.59 2.65-10.14 2.71l-.89-.01c-2.4.05-4.77-.41-6.97-1.35 -1.95-.87-3.7-2.1-5.17-3.64 -1.44-1.53-2.55-3.34-3.26-5.32 -.74-2.08-1.12-4.26-1.11-6.46v-40.07c-.06-1.1-.24-2.18-.55-3.23 -.24-.83-.66-1.59-1.24-2.22 -.61-.57-1.42-.87-2.25-.83 -1.97.25-3.78 1.16-5.17 2.58 -2.3 2-4.32 4.29-6.04 6.81 -2.07 2.95-3.8 6.13-5.17 9.46 -1.47 3.36-2.42 6.93-2.84 10.57v28.66c-.01.84-.21 1.66-.57 2.42 -.36.75-.93 1.38-1.63 1.83 -.85.47-1.79.73-2.75.75l-.49-.01c-1.04-.01-2.08-.12-3.1-.31 -1.09-.19-2.13-.57-3.08-1.14 -.96-.58-1.75-1.39-2.3-2.35 -.68-1.25-1-2.65-.93-4.06l-.01-1.73c-1.45 1.33-3.01 2.52-4.67 3.57 -3.06 1.91-6.37 3.37-9.84 4.36 -4.16 1.14-8.46 1.68-12.78 1.59 -4.32 0-8.61-.73-12.67-2.17 -4.03-1.42-7.73-3.62-10.89-6.48 -1.4-1.27-2.67-2.66-3.81-4.15 -.74 1.11-1.54 2.2-2.39 3.24 -2.26 2.74-5.01 5.05-8.11 6.78 -3.39 1.86-7.21 2.8-11.07 2.7 -3.13.07-6.23-.62-9.04-2.02 -2.44-1.23-4.52-3.06-6.04-5.32 -2.09 2.1-4.5 3.84-7.15 5.16 -2.75 1.34-5.76 2.07-8.81 2.14l-.92-.01c-3.49.07-6.95-.65-10.12-2.09 -2.84-1.34-5.34-3.29-7.33-5.71l-.52-.67c-2.08 2.26-4.5 4.19-7.18 5.72 -3.11 1.72-6.59 2.65-10.14 2.71l-.89-.01c-2.4.05-4.77-.41-6.97-1.35 -1.95-.87-3.7-2.1-5.17-3.64 -1.45-1.53-2.56-3.34-3.26-5.32 -.74-2.08-1.12-4.26-1.11-6.46v-40.07c-.06-1.1-.24-2.18-.55-3.23 -.24-.83-.66-1.59-1.24-2.22 -.62-.58-1.44-.88-2.28-.83 -1.96.26-3.78 1.16-5.17 2.58 -2.31 2-4.36 4.29-6.09 6.81 -2.06 2.94-3.79 6.1-5.17 9.41 -1.47 3.36-2.42 6.93-2.84 10.57v28.66c-.03.84-.24 1.66-.6 2.42 -.36.75-.93 1.38-1.63 1.83 -.99.55-2.11.81-3.23.74 -1.04-.01-2.08-.12-3.1-.31 -1.09-.19-2.13-.57-3.08-1.14 -.96-.58-1.75-1.39-2.3-2.35 -.67-1.24-.99-2.63-.94-4.03 -1.94 2.02-4.18 3.75-6.63 5.13 -3.13 1.71-6.63 2.64-10.18 2.71l-.9-.01c-3.13.07-6.23-.62-9.04-2.02 -2.44-1.23-4.52-3.06-6.04-5.32 -2.09 2.1-4.5 3.84-7.15 5.16 -2.75 1.34-5.76 2.07-8.81 2.14l-.92-.01c-3.49.07-6.95-.65-10.12-2.09 -2.84-1.34-5.34-3.29-7.33-5.71 -2.05-2.53-3.57-5.44-4.47-8.57 -1.03-3.44-1.53-7-1.5-10.58 -.1-6.84 1.25-13.62 3.94-19.9 2.43-5.7 5.99-10.85 10.44-15.15 4.3-4.13 9.36-7.37 14.91-9.55 5.14-2.04 10.59-3.15 16.11-3.29l1.27-.02c2.34-.12 4.65.59 6.52 2.01 1.7 1.29 2.66 3.33 2.58 5.46 .08 1.09-.11 2.19-.55 3.19 -.43.65-1.19 1-1.97.9 -.94-.01-1.87-.06-2.79-.16 -.99-.13-1.98-.19-2.97-.19 -3.88.03-7.71.78-11.31 2.21 -3.88 1.52-7.4 3.84-10.33 6.81 -3.33 3.3-5.97 7.24-7.75 11.58 -2.14 5.32-3.18 11.03-3.05 16.77 -.25 3.85.8 7.67 2.99 10.86 1.82 2.3 4.57 3.65 7.49 3.69l.58-.01c2.52.05 4.95-.95 6.7-2.77 1.82-1.88 3.28-4.08 4.3-6.48V681.4c.04-.74.04-1.47 0-2.2 -.11-.57-.21-1.06-.31-1.48 0-.42-.19-.78-.24-1.09 -.03-.31-.03-.62 0-.93 .04-.97.62-1.82 1.49-2.22 .92-.49 1.94-.76 2.98-.82l.52-.02c2.76-.14 5.49.67 7.74 2.29 1.73 1.27 2.78 3.28 2.83 5.44v29.46c-.01.98.12 1.96.38 2.91 .25.91.63 1.78 1.13 2.58 1.15 1.69 3.1 2.67 5.16 2.58l-.08.23c1.9.04 3.74-.65 5.16-1.91 1.5-1.41 2.76-3.07 3.71-4.91 1.07-1.99 1.94-4.08 2.58-6.25 .67-2.25 1.21-4.34 1.67-6.33 .16-.95.49-1.85.96-2.67l-.09-30.62c.07-1.24-.08-2.48-.44-3.67 -.27-.67-.41-1.38-.42-2.09 .07-.94.66-1.76 1.52-2.15 1.12-.57 2.37-.86 3.63-.83 2.76-.16 5.5.65 7.74 2.29 1.75 1.3 2.79 3.35 2.81 5.54v8.02c1.3-2.43 2.75-4.76 4.36-7 1.51-2.05 3.24-3.93 5.16-5.6 1.74-1.55 3.72-2.82 5.85-3.77 1.86-.8 3.86-1.25 5.89-1.33l.86-.02c2.77-.12 5.54.45 8.05 1.65 1.99.99 3.71 2.46 5 4.28 1.24 1.75 2.12 3.73 2.58 5.83 .47 2.05.71 4.15.72 6.26v38.93c.06.94.25 1.86.56 2.76 .32.9.83 1.73 1.49 2.42 .68.65 1.57 1.02 2.51 1.06l.4-.01c1.89.03 3.74-.65 5.16-1.91 1.5-1.42 2.74-3.07 3.68-4.91 .31-.6.61-1.2.9-1.81 -.4-2.19-.59-4.41-.57-6.63 -.11-6.86 1.24-13.65 3.94-19.95 2.4-5.69 5.9-10.84 10.32-15.15 4.3-4.13 9.36-7.37 14.91-9.55 5.14-2.04 10.59-3.15 16.11-3.29l1.27-.02c2.34-.12 4.65.6 6.52 2.01 1.7 1.29 2.66 3.33 2.58 5.46 .08 1.09-.11 2.19-.55 3.19 -.43.65-1.19 1-1.97.9 -.94-.01-1.87-.06-2.79-.16 -.99-.13-1.98-.19-2.97-.19 -3.88.03-7.71.78-11.31 2.21 -3.88 1.52-7.4 3.84-10.33 6.81 -3.29 3.31-5.88 7.25-7.62 11.58 -1.59 3.96-2.57 8.12-2.92 12.36 .14.5.22 1.01.23 1.54v.43c-.02.26-.08.52-.19.77l-.2.64c-.01.33 0 .66.01 1 -.25 3.85.8 7.67 2.99 10.86 1.81 2.35 4.6 3.75 7.56 3.8l.59-.01c2.52.05 4.95-.95 6.7-2.77 1.82-1.88 3.28-4.08 4.3-6.48v-27.66c.04-.74.04-1.47 0-2.2 -.07-.38-.14-.73-.21-1.04l-.11-.44c-.11-.42-.19-.78-.24-1.09 -.03-.31-.03-.62 0-.93 .04-.97.62-1.82 1.49-2.22 1.1-.58 2.34-.86 3.58-.83 2.76-.15 5.49.66 7.74 2.29 1.79 1.28 2.86 3.34 2.88 5.54v29.46c-.01.98.12 1.96.38 2.91 .25.91.63 1.78 1.13 2.58 1.15 1.69 3.1 2.67 5.16 2.58l-.29.12c1.9.04 3.74-.65 5.16-1.91 1.5-1.38 2.77-3 3.74-4.8 1.07-1.99 1.94-4.08 2.58-6.25 .18-.64.36-1.26.53-1.86 -.45-2.36-.64-4.76-.59-7.18 0-5.12.81-10.21 2.39-15.07 1.48-4.73 3.71-9.19 6.6-13.22 2.71-3.78 6.15-6.97 10.11-9.4 3.62-2.21 7.76-3.43 11.99-3.56l.9-.02c2.99-.1 5.96.54 8.64 1.88 2.19 1.11 4.14 2.65 5.75 4.51 1.41 1.69 2.5 3.63 3.19 5.72 .61 1.73.95 3.55 1 5.39 .01 1.13-.34 2.23-1.01 3.14 -.67.92-1.49 1.71-2.43 2.34 -.98.64-2.05 1.12-3.18 1.44 -1 .29-2.04.42-3.08.38 -.81-.03-1.58-.34-2.17-.88 -.58-.64-.78-1.53-.52-2.35 -.3-.92-.54-1.85-.73-2.79 -.24-1.12-.63-2.2-1.17-3.2 -.56-1.02-1.32-1.9-2.25-2.59 -1.16-.79-2.54-1.17-3.93-1.09 -1.95.08-3.8.9-5.17 2.29 -1.89 1.8-3.42 3.95-4.52 6.32 -1.4 2.98-2.46 6.11-3.15 9.34 -.83 3.71-1.23 7.51-1.22 11.32 -.07 3.2.44 6.39 1.49 9.41 .88 2.57 2.3 4.92 4.17 6.88 1.78 1.86 3.96 3.31 6.37 4.23 2.55.97 5.26 1.46 7.99 1.44 3.44.08 6.85-.59 10.01-1.97 2.73-1.23 5.19-2.98 7.25-5.17 1.97-2.15 3.59-4.6 4.79-7.26 1.15-2.6 2.02-5.32 2.58-8.11 .05-.38.14-.74.27-1.08l-.25-79.71c.03-1.03-.08-2.06-.34-3.05 -.16-.63-.39-1.24-.68-1.81 -.13-.25-.27-.49-.42-.71l-.26-.33c-.22-.23-.34-.52-.34-.83 .01-.38.23-.71.56-.88 .48-.28 1-.49 1.54-.62 .67-.19 1.36-.32 2.06-.39 .71-.09 1.44-.13 2.16-.13 2.76-.16 5.5.65 7.74 2.29Zm85.97 58.36c-1.55-.02-3.06.5-4.26 1.47 -1.33 1.08-2.44 2.4-3.28 3.89 -.97 1.7-1.74 3.51-2.3 5.39 -.61 1.99-1.1 4.01-1.48 6.06 -.38 1.91-.63 3.85-.78 5.8 -.13 1.52-.18 3.06-.13 4.59 -.04.52-.04 1.04 0 1.57v1.65c2.43-1.01 4.71-2.37 6.75-4.03 1.99-1.6 3.73-3.48 5.16-5.6 2.9-4.3 4.44-9.37 4.41-14.56 .09-1.62-.3-3.23-1.11-4.62 -.64-1.06-1.79-1.69-3.02-1.66Z"/><g transform="translate(7.2786 0)"><path fill="#E4A663" d="M426.8 413.61c5.75 0 7.74-1.35 10.47-6.02 2.73-4.68 1.41-12.26 1.31-14.32 -.26-4.55-1.79-9.6-1.99-12.13 0-1.55 0-11.44.23-15.49 3.45-64.1 30.96-79.34 38.9-81.07 5.06-1.5 10.5-1.13 15.32 1.03v-98.05 0 -1.4 -26.01c0-14.17-10.07-31.59-22.35-38.71L267.8 5.33c-12.39-7.18-32.59-7.18-44.77-.08L22.34 121.2C10.08 128.29.02 145.71.04 159.9v25.33c-.02.14-.02.29 0 .43v36.99c1.16.64 2.32 1.31 3.48 2.03 3.89 2.58 7.74 3.99 11.66 6.7 11.17 6.8 21.55 14.84 30.96 23.94 1.83 1.75 7.94 9.44 9.39 11.24 4.44 6.11 9.43 11.81 14.91 17.02 3.02 2.76 6.36 5.16 9.93 7.17 5.9 3.07 15.66 2.37 20.64.18 38.23-16.57 62.23-8.26 73.3-1.6 27.37 16.43 36.5 39.42 39.42 67.34 .38 3.61.5 7.25.36 10.88 0 6.63-.24 17.28 6.75 19.06 10.03 2.58 12.46-8.16 13.95-15.28 3.37-16.13 24.84-26.71 40.55-18.58 10.83 5.59 15.27 8.77 25.98 4.05 13.39-5.91 20.3-20.96 24.97-28.95 4.61-7.79 11.29-14.15 19.29-18.38 20.89-13.03 73.43-9.65 75.33 48.24 0 3.14 0 11.19 0 16.1 0 5.52.18 10.91-.19 16.61 -.24 3.79-.91 7.74-1.27 11.63 -.11 0-2.07 11.32 7.19 11.37Z"/><path fill="#5E464D" d="M491.02 285.74c-1.42-.44-5.55-3.15-15.28-1.04 -7.98 1.72-35.46 16.97-38.91 81.06 -.21 3.94-.34 13.82-.24 15.48 .2 2.58 1.72 7.58 1.98 12.12 0 2.06 1.57 9.54-1.32 14.31 -2.89 4.77-4.73 6.03-10.48 6.01 -9.27 0-7.31-11.38-7.31-11.38 .36-3.85 1.03-7.75 1.26-11.64 .36-5.71.18-11.1.18-16.62 0-4.91 0-12.91 0-16.11 -1.91-57.9-54.45-61.28-75.34-48.25 -8.01 4.22-14.69 10.58-19.3 18.37 -4.68 7.99-11.59 23.04-24.98 28.94 -10.71 4.72-15.15 1.54-25.99-4.06 -15.72-8.13-37.18 2.45-40.56 18.57 -1.5 7.12-3.93 17.82-13.96 15.27 -7-1.79-6.76-12.44-6.76-19.07 .14-3.64.02-7.28-.37-10.89 -2.92-27.92-12.05-50.91-39.43-67.35 -11.07-6.66-35.07-14.97-73.31 1.59 -5.17 2.19-14.81 2.88-20.65-.19 -3.58-2.01-6.91-4.42-9.94-7.18 -5.49-5.21-10.48-10.91-14.92-17.03 -1.45-1.81-7.56-9.5-9.4-11.25 -9.41-9.11-19.79-17.14-30.97-23.95 -3.93-2.59-7.75-4.24-11.67-6.71 -1.17-.73-2.33-1.4-3.49-2.04v169.17c0 14.19 10.06 31.6 22.34 38.7l200.88 116.1c12.28 7.12 32.38 7.12 44.66 0l200.91-115.96c12.28-7.1 22.31-24.52 22.29-38.71l-.08-106.44Z"/><g fill="#FFF"><path d="M271.06 257.31c-13.89 8.02-36.62 8.02-50.5 0L15.12 148.94c2.32 2.29 208.32 121.96 208.32 121.96 12.28 7.12 32.38 7.12 44.66 0 0 0 205.71-119.31 208.03-121.61l-205.1 108Z"/><path d="M220.24 20.84c13.9-7.95 36.61-7.95 50.51.02l24.89 10.32c-2.33-2.3-27.82-18.81-27.82-18.81 -12.29-7.1-32.36-7.13-44.64 0 0 0-40.72 23.91-43.02 26.18l40.04-17.73Z"/></g></g></svg>