<svg viewBox="0 0 256 203" xmlns="http://www.w3.org/2000/svg"><path fill="#F53" d="M58.76 91.18c0-4.08 3.14-7.07 7.06-7.07 3.92 0 7.06 3.07 7.06 7.06 0 4.07-3.15 7.06-7.07 7.06 -3.93 0-7.07-3.08-7.07-7.07Zm12.56-12.72c0 4.07 3.14 7.06 7.06 7.06 3.92 0 7.06-3.08 7.06-7.07 0-4.08-3.15-7.07-7.07-7.07 -3.93 0-7.07 2.99-7.07 7.06Zm17.2-8.65v12.71c9.92 0 17.7 8.06 17.7 18.63 0 10.56-7.86 18.63-17.71 18.63 -9.93 0-17.71-8.07-17.71-18.64H56.94c0 17.56 13.99 31.34 31.56 31.34 17.56 0 31.56-13.79 31.56-31.35 0-17.57-14-31.35-31.57-31.35Zm142.46 119.18v-12.07h22.35v-12.07h-22.36v-11.86h24.63v-12.14h-38.21v60.19h38.56V188.9h-25v.07Zm-21.64-18c0 17.28-13.22 30.06-31.85 30.06h-19.86v-60.27h19.85c18.63 0 31.84 12.92 31.84 30.2Zm-13.86 0c0-10.29-6.86-18.07-16.93-18.07h-7.43v36.06h7.42c10.06 0 16.92-7.72 16.92-18Zm-90.62 6.92c0 6.92-4.93 12.06-11.72 12.06 -6.79 0-11.72-5.15-11.72-12.07v-36.99H67.99v36.77c0 14.21 10.63 24.63 25.13 24.63 14.49 0 25.13-10.5 25.13-24.64v-36.78h-13.43v36.98 0Zm-78.13 1.21h13.35c-1.22 6.21-6.72 10.99-13.29 10.99 -7.36 0-13.29-5.93-13.29-14.57v-8.93c0-8.5 6.35-14.79 15.28-14.79 6.92 0 13.13 3.78 15.13 9.28l12.49-4.36c-3.43-10.57-14.72-17.14-27.64-17.14 -16.36 0-28.5 10.99-28.5 26.99v8.92c.07 15.35 11.42 26.77 25.42 26.77 8.71 0 16.42-4.43 20.92-11.29v10.06h11.85v-33.5H26.67v11.49Zm151.88-71.34V71h-13.43v36.98c0 6.92-4.93 12.06-11.72 12.06 -6.79 0-11.72-5.15-11.72-12.07V70.98h-13.43v36.77c0 14.21 10.63 24.63 25.13 24.63 14.49 0 25.13-10.43 25.13-24.64ZM22.65 131.2h13.49v-22.86l22.63-37.35H43.48L29.19 95.62 15.12 70.98H-.1l22.63 37.48v22.7h.07ZM158.25 1.09h-45.71v12.13h45.7V1.08Zm-51.49 48.05H81.69V37.07h22.35V25H81.68V13.14h24.63V1H68.1v60.19h38.56V49.12h.07ZM25.71 62.56c8.71 0 16.42-4.43 20.92-11.29v10.06h11.85v-33.5H26.7v11.56h13.35c-1.22 6.21-6.72 10.99-13.29 10.99 -7.36 0-13.29-5.93-13.29-14.57v-8.93c0-8.5 6.35-14.79 15.28-14.79 6.92 0 13.13 3.78 15.13 9.28l12.49-4.36C52.94 6.44 41.65-.13 28.73-.13 12.37-.13.23 10.86.23 26.86v8.92c.07 15.28 11.42 26.7 25.42 26.7Zm183.66 53.41l-7-7.36 6.92-7.5 -7-7.36 6.92-7.5 -7-7.36 7.71-7.93h-14l-7.57 7.99 6.99 7.35 -6.93 7.49 6.99 7.35 -6.93 7.49 6.99 7.35 -6.93 7.49 7.42 7.71h14.06l-7.57-7.79 6.85-7.5Zm-65.63 53.19c1.99-1.79 5.35-4.79 5.35-10.36 0-5.5-3.36-8.57-5.36-10.36 -.08-.08-.15-.15-.22-.22 -1-1.08-1.15-2.58-1.22-3.29v-4.22h-13.57v5.64 0c0 .07 0 .14 0 .21 0 5.49 3.35 8.56 5.35 10.35 1.42 1.28 1.42 1.35 1.42 1.85 0 .49 0 .57-1.43 1.85 -1.93 1.71-5.08 4.57-5.29 9.71v0c0 .07 0 .21 0 .28 0 .07 0 .07 0 .14s0 .07 0 .14 0 .21 0 .28v0c.21 5.14 3.42 7.99 5.28 9.71 1.42 1.28 1.42 1.35 1.42 1.85 0 .49 0 .57-1.43 1.85 -2 1.78-5.36 4.78-5.36 10.35 0 .07 0 .14 0 .21v0 5.64h13.56v-4.22c0-.72.21-2.22 1.21-3.29 .07-.08.14-.15.21-.22 1.99-1.79 5.35-4.79 5.35-10.36 0-5.5-3.36-8.57-5.36-10.36 -1.29-1.15-1.43-1.36-1.43-1.72 .07-.22.21-.43 1.42-1.58ZM128.6 61.26h13.49V50.04h-13.5v11.21Zm13.56-27.21h-13.5v11.21h13.49V34.04Zm0-16.07h-13.5v11.21h13.49V17.97Zm102.32 113.18l-16.43-23c7.99-2.5 13.56-9.5 13.56-18.07 0-10.86-9-19.14-20.36-19.14h-7.93v12.21h7.42c3.92 0 6.99 3.14 6.99 7.28 0 4.14-3.08 7.28-7 7.28h-7.43v11.56l14.71 21.92h16.42v-.08Z"/></svg>