<svg viewBox="0 0 512 165" xmlns="http://www.w3.org/2000/svg"><g transform="translate(0 37.4366)"><g fill="#3D515B"><path d="M.21 70.8h34.9v17.45H.2Z"/><path d="M52.57 70.8h34.88v17.45H52.56Z"/><path d="M.19 35.89h87.28v17.45H.18Z"/><path d="M.21.98h52.36v17.45H.2Z"/><path d="M70.03.98h17.45v17.45H70.02Z"/></g></g><g transform="translate(125.523 0)"><g fill="#404041"><path d="M215.34 38.32c-28.04 0-42.51 19.82-42.51 44.27 0 24.45 14.12 44.27 42.5 44.27 28.38 0 42.5-19.83 42.5-44.28 0-24.46-14.48-44.28-42.51-44.28v0Zm21.2 44.35v0c-.02 15.72-5.32 28.46-21.21 28.46s-21.19-12.74-21.21-28.47v0 -.04 -.04 0c.01-15.73 5.31-28.46 21.2-28.46 15.88 0 21.18 12.73 21.2 28.45v0 .03c0 .01 0 .02 0 .03v0Z"/><path d="M89.83 125.69V3.27s16.14-2.3 17.39-2.47c1.41-.2 3.3.81 3.3 2.81v45.37c3.35-3.19 7.04-5.76 11.06-7.71 4.02-1.96 8.74-2.94 14.16-2.94 4.69 0 8.85.79 12.48 2.38 3.63 1.58 6.66 3.82 9.09 6.7 2.43 2.87 4.27 6.31 5.53 10.3 1.25 3.99 1.88 8.39 1.88 13.19v54.72h-20.71V70.89c0-5.26-1.22-9.32-3.65-12.2 -2.44-2.88-6.08-4.32-10.94-4.32 -3.58 0-6.93.81-10.06 2.43 -3.14 1.62-6.1 3.82-8.89 6.62v62.18h-20.7v0Z"/><path d="M366.17 126.87c-14.25 0-23.18-8.29-23.18-23.76V57.27h-16.06s3.41-11.81 3.68-12.74c.27-.93.97-1.93 2.39-2.13 1.41-.2 9.95-1.39 9.95-1.39l3.94-25.1s11.59-1.64 13.42-1.91c1.73-.26 3.3.98 3.3 2.88V41h20.3v16.24H363.6v45.21c0 6.17 3.75 8.53 7.36 8.53 2.2 0 5.21-1.17 7.46-2.22 1.39-.65 3.54-.17 4.1 1.77 .49 1.71 3.1 10.84 3.1 10.84 -2.26 1.45-9.4 5.42-19.54 5.42v0Z"/><path d="M315.57 57.54c-4.04-1.32-11.62-3.41-18.84-3.41 -7.35 0-13.14 2.53-13.14 8.65 0 7.63 12.46 9.85 20.99 12.96 5.7 2.07 20.99 6.13 20.99 22.58 0 19.98-16.6 28.52-34.3 28.52 -17.71 0-28.17-6.59-28.17-6.59s2.74-9.71 3.3-11.62c.5-1.73 2.5-2.33 3.78-1.84 4.55 1.75 12.78 4.19 22.08 4.19 9.41 0 13.97-2.88 13.97-9.01 0-8.16-12.72-10.65-21.13-13.31 -5.8-1.83-21.13-6.09-21.13-24.18 0-17.83 15.64-26.19 32.37-26.19 14.15 0 21.1 2.96 26.28 5.6 0 0-2.9 10.07-3.32 11.57 -.51 1.78-1.97 2.6-3.81 2v0Z"/><path d="M81.74 41.31c0-1.93-1.65-3.04-3.22-2.86 -6.95.79-11.91 4.06-15.11 7.1 -6.3-4.94-15.04-7.29-24.85-7.29 -19.67 0-35.03 9.49-35.03 30.18 0 11.88 5.05 20.06 13.08 24.88 -5.97 2.82-9.94 8.81-9.94 14.7 0 9.85 7.78 12.93 7.78 12.93s-13.61 6.6-13.61 19.82c0 16.91 15.56 23.75 34.59 23.75 27.42 0 46.28-11.33 46.28-32.13 0-12.8-9.8-19.87-31.14-20.71 -12.67-.5-20.87-.96-22.91-1.63 -2.69-.9-4.01-3.05-4.01-5.42 0-2.63 2.15-5.12 5.54-6.83 2.95.52 6.08.78 9.32.78 19.68 0 35.03-9.47 35.03-30.19 0-5.03-.91-9.39-2.56-13.12 2.89-1.55 6.44-2.63 10.69-2.63 -.01 0-.01-9.66-.01-11.42v0Zm-54.2 84.48c-.001 0 10.32.39 20.64.86 11.59.53 15.2 3.03 15.2 9.03 0 7.33-10.08 14.46-24.16 14.46 -13.37 0-20.05-4.65-20.05-12.4 0-4.45 2.34-9.42 8.34-11.99v0ZM38.6 84.2c-9.32 0-16.59-4.95-16.59-15.75s7.27-15.75 16.58-15.75c9.31 0 16.58 4.93 16.58 15.74 0 10.8-7.27 15.74-16.59 15.74v0Z"/></g></g></svg>