<svg viewBox="0 0 256 229" xmlns="http://www.w3.org/2000/svg"><defs><linearGradient id="a" x1="49.941%" x2="49.941%" y1="100.039%" y2="-.029%"><stop offset="0%" stop-color="#E14760"/><stop offset="100%" stop-color="#FA8816"/></linearGradient></defs><path fill="url(#a)" d="M254.77 80.17L194.48 3.03c-3.47-4.3-9.91-3.97-13.05.49l-25.6 36.5c-8.1-4.63-17.68-7.11-27.59-6.94 -10.74 0-20.82 2.64-29.24 7.26L74.22 4.66C71.08.2 64.47-.13 61.17 4.16L.72 81.29c-2.48 3.13 1.65 7.1 4.62 4.45l52.02-46.42c1.48-1.33 3.96-1.16 5.28.33l6.44 20.14c-29.57 7.26-51.54 34.02-51.54 65.73 .16 35.5 27.74 64.57 62.59 67.22 .99 12.88 8.25 26.92 32.04 35.34 1.98.66 3.46-1.49 2.31-3.14 -2.32-3.14-4.79-7.44-5.62-12.06 5.61 1.98 11.56 3.13 18 3.13 5.61 0 10.9-1 16.18-2.65 -.83 4.45-3.31 8.58-5.46 11.56 -1.16 1.65.33 3.79 2.31 3.13 23.94-8.43 32.04-22.63 33.52-35.51 36.5-1 65.73-31.06 65.56-67.72 -.17-32.21-22.63-58.97-52.69-65.74l6.6-20.65c1.32-1.66 3.63-1.82 5.28-.34l52.02 46.41c2.8 2.64 6.93-1.49 4.45-4.46v0Z"/><path fill="#FFF" d="M72.68 97.92a48.39 35.5 0 1 0 0 71.01 48.39 35.5 0 1 0 0-71.02Z" transform="rotate(58.4447 72.6882 133.438)"/><path fill="#E54D42" d="M58.63 154.74s-.67-2.15-.67-6.12 .66-5.95.66-5.95l18.16-7.6 -18.17-7.77s-.67-2.15-.67-5.95c0-3.97.66-5.95.66-5.95l31.38 13.37s.66 2.31.66 6.11c0 3.79-.67 6.44-.67 6.44l-31.39 13.37v0Z"/><path fill="#FFF" d="M184.5 97.78a48.72 36.16 0 1 0 0 72.33 48.72 36.16 0 1 0 0-72.34Z" transform="rotate(-58.4447 184.51 133.956)"/><path fill="#E54D42" d="M162.35 141.53s-.67-1.49-.67-5.62 .66-5.62.66-5.62h41.62s.66 1.48.66 5.61c0 3.96-.67 5.61-.67 5.61h-41.63v0Z"/></svg>