<svg viewBox="0 0 256 360" xmlns="http://www.w3.org/2000/svg"><path fill="#F3D71D" d="M125.88 359.54c-29.82-1.28-50.55-5.25-67.1-12.84 -2.42-1.11-2.06-.37-4.66-9.54 -4.54-15.97-7.99-30.44-11.68-49 -1.88-9.42-2.75-13.35-7.08-31.74 -7.76-33-10.71-48.18-12.41-63.86 -.43-3.98.34-9.41 1.55-10.95 .71-.92.73-3.25.02-3.44 -.42-.11-.52-.46-.68-2.29 -.13-1.52-.33-2.34-.67-2.77 -.33-.42-.49-1.03-.49-1.9 0-.71-.12-1.36-.26-1.45 -.16-.1-.26-1.84-.26-4.36 0-2.52-.11-4.26-.26-4.36 -.15-.09-.26.07-.26.35 0 3.15-2.27-2.6-3.59-9.1 -3.4-16.7-8.96-33.28-7.68-22.88 .45 3.65 1.28 7.25 3.66 15.87 2.79 10.12 4.07 17.29 3.5 19.71 -.82 3.44-6.08-17.26-9.11-35.84 -.77-4.72-1.93-11.8-2.57-15.74 -1.44-8.81-2.78-15.43-4.6-22.76 -1.83-7.35-1.78-8.54.49-11.43 4.67-5.96 18.4-10.59 19.88-6.71 1.01 2.65-1.99 4.49-10.14 6.22 -7.07 1.49-7.72 2.56-3.89 6.35 3.83 3.78 26.07 7.17 52.38 7.97 46.59 1.41 76.13 1.79 84.45 1.06 2.04-.18 4.94-.4 6.44-.48 2.73-.15 2.73-.15 2.61-.82 -.1-.51.12-.98.89-1.95 .56-.71 1.4-1.8 1.86-2.44 1.57-2.16 4.22-2.98 5.32-1.66 1.37 1.65.16 5.49-2.12 6.66 -1.05.54-.75.7 1.67.92 1.14.1 2.75.25 3.55.34 2.43.25 4.29-.63 3.27-1.56 -2.26-2.05 1.99-6.17 8.56-8.32 .98-.33 1.9-.69 2.03-.81 .13-.13.42-.23.64-.23 .83 0 3.24-1.87 5.9-4.59 1.51-1.55 3.22-3.11 3.79-3.47 .56-.36 1.15-.89 1.3-1.17 .46-.87-.44-.63-2.43.62 -.99.62-2.37 1.48-3.08 1.91 -1.47.89-4.72 3.04-7.85 5.19 -1.18.8-2.43 1.66-2.79 1.9 -.36.23-.85.6-1.11.82 -.57.47-3.2.58-4.66.2 -3.8-1.01-4.07-4.34-.83-10.13 1.41-2.54 5.32-7.72 5.81-7.72 .12 0 .54-.49.94-1.07 .71-1.07 1.17-1.41 3.45-2.62 1.64-.87 2.6-.97 2.86-.29 .15.4-1 2.93-2.3 5.04 -2.72 4.42-2.96 4.87-2.71 5.12 .36.36 3.12-1.3 3.53-2.13 .17-.35.63-1.32 1.02-2.16 2.63-5.69 8.95-6.25 12.84-1.14 1.02 1.35 1.31 1.5 1.31.7 .01-2.5 3.49-4.55 7.73-4.56 1.75-.01 1.87-.3.35-.88 -2.09-.8-2.21-1.2-.83-2.77 1.9-2.18.99-2.6-2.62-1.23 -3.49 1.32-6.88 2.04-9.2 1.94 -1.24-.06-2.52.01-2.86.13 -.34.12-1.25.28-2.01.34 -.77.06-1.49.17-1.6.24 -.12.07-.77.05-1.45-.05 -3.8-.52-3.45-3.82 1.31-12.25 .63-1.13 1.51-2.8 1.94-3.72 .43-.92 2.2-4.55 3.94-8.07 1.73-3.52 3.62-7.44 4.2-8.71 .58-1.27 1.34-2.86 1.69-3.52 .34-.67.63-1.34.63-1.48 0-.15.29-.87.65-1.6 2.32-4.77 6.03-16.53 5.58-17.71 -.1-.24-.02-.4.19-.4 .18 0 .92-.39 1.62-.86 .7-.47 1.59-1.05 1.97-1.29 .57-.36.67-.56.55-1.16 -.67-3.31 5.43-1.2 13.01 4.5 11.15 8.38 21.05 22.54 29.33 41.95 7.35 17.24 9.28 46.49 4.51 68.41 -3.35 15.36-5.62 38.94-8.07 83.56 -1.56 28.4-2.45 41.22-3.74 53.74 -.35 3.37-.8 8.44-1.01 11.26 -1.05 14.13-2.62 27.25-5.29 44.14 -.92 5.77-1.05 7.13-1.12 11.77 -.27 17.5-6.68 27.43-18.85 29.19 -1.18.16-3.65.74-5.48 1.28 -14.84 4.35-30.66 6.66-52.34 7.63 -17.59.78-22.67.86-31.48.49Zm-60.41-26.48c-3.16-12.88-5.01-18.99-7.23-23.91 -2.38-5.28-2.92-5.97-2.63-3.4 1.34 11.85 4.6 22.84 9.89 33.43 2.79 5.58 2.79 5.43-.05-6.14v0Zm-5.54 8.52c.92-3.44-.56-10.68-4.85-23.77 -2.45-7.48-4.26-13.97-4.6-16.54 -.23-1.69-.46-1.83-1.42-.87 -1.54 1.53-1.08 4.71 2.38 16.34 .93 3.12 1.82 6.7 1.98 7.93 .94 7.24 5.71 19.7 6.47 16.89Zm86.77-38.12c4.66-3.1 4.05-12.11-1.02-14.99 -4.57-2.59-7.03 3.05-5.09 11.68 .87 3.87 3.27 5.17 6.1 3.3Zm-13.77-.69c3.48-1.79 4.63-7.75 2.45-12.66 -2.16-4.85-6.47-2.39-7.25 4.12 -.12.94-.38 2.81-.6 4.16 -.77 4.84 1.25 6.48 5.37 4.36Zm-84.74-8.91c.55-4.47-.6-10.93-4.35-24.23 -1.07-3.78-2.29-8.67-2.73-10.88 -1.43-7.22-3.58-10.74-2.54-4.15 .5 3.2 3.35 17.81 3.96 20.34 .34 1.4.91 4.95 1.27 7.89 .9 7.3 1.69 10.19 3.25 11.88 .77.83.89.73 1.09-.87Zm59.23-24.7c19.49-4.47 25.78-28.85 10.39-40.32 -9.93-7.4-16.14-7.93-31.64-2.74 -3.17 1.06-6.02 2.09-6.34 2.29 -1.13.71-2.88 3.23-2.88 4.14 -.01.47-.46 1.97-1.01 3.34 -7.33 18.16 11.32 37.86 31.45 33.25Zm-24.7-13.96c-7.67-1.15-9.33-7.68-3.46-13.64 4.26-4.34 9.22-4.71 12.87-.98 7.21 7.38 1.5 16.24-9.43 14.6Zm97.23 10.36c13.39-2.25 21.78-17.65 16.26-29.83 -12.94-28.52-59.37-14.82-49.19 14.5 4.35 12.53 16.31 18.1 32.91 15.31v0Zm-26.09-11.84c-5.97-1.47-7.91-6.93-4.71-13.27 3.99-7.93 12.55-7.83 16.77.18 2.54 4.83 1.97 6.45-2.17 6.03 -3.72-.38-4.94.15-3.13 1.35 1.32.87 3.01 2.4 3.34 3.01 1.02 1.9-5.87 3.72-10.14 2.67v0ZM90.93 147.91c1-.15 1.71-.49 3.01-1.47 .93-.7 2.41-1.8 3.29-2.45 7.91-5.81 10.46-7.85 13.36-10.69 .98-.97 3.86-3.57 6.39-5.78 2.53-2.22 5.07-4.45 5.65-4.97 .57-.53 1.61-1.45 2.3-2.06 2.16-1.92 5.98-5.42 8.93-8.17 3.45-3.24 10.91-10.78 10.86-11 -.13-.51-2.33-.93-4.98-.96 -2.76-.03-2.82-.05-2.8-.62 .02-.78.05-.77-7.45-.95C69.46 97.4 29.25 95.33 7.51 92.51c-2.54-.33-2.8-.33-2.8.08 0 .71 2.07 2.68 3.71 3.52 2.06 1.06 2.09 1.52.12 1.88 -2.11.38-2.05.13-1.22 4.76 3.32 18.57 8.2 22.78 18.5 15.94 5.92-3.94 43.9-8.01 68.96-7.4 4.3.1 7.26.05 8.7-.14 1.19-.16 2.83-.35 3.63-.43 .8-.08 1.59-.3 1.75-.5 .16-.2.73-.37 1.27-.37 .53 0 1.29-.14 1.69-.3 2.71-1.12 23.37-1.55 23.37-.49 0 .18-1.07 1.19-3.53 3.36 -.58.5-3.56 2.8-6.63 5.11 -4.66 3.49-7.77 5.91-9.17 7.12 -.15.12-1.68 1.73-3.43 3.58 -7.16 7.61-14.64 12.86-21.06 14.76 -.9.26-1.27.52-1.47 1.05 -.35.88-1.47 2.87-1.82 3.22 -.59.58-.3.99.56.82 .45-.1 1.42-.26 2.14-.36Zm12.25-2.35c.09-.16 2.03-.26 4.96-.26 5.67 0 10.26-.25 10.26-.56 0-.12-.17-.22-.37-.22 -1.1 0-1.44-1.28-.75-2.78 .85-1.87 1.64-2.77 10.36-11.69 3.43-3.52 6.71-6.98 7.28-7.68 4.92-6.09 8.89-11.89 8.44-12.33 -.2-.2-3.98 3.34-4.55 4.25 -.23.35-1.33 1.55-2.44 2.64 -2.18 2.15-2.31 2.29-6.39 7.08 -1.5 1.75-3.05 3.54-3.45 3.96 -.4.42-1.3 1.4-1.99 2.17 -2.29 2.54-6.49 6.61-8.37 8.1 -4.22 3.34-10.74 6.63-12.8 6.46 -.7-.06-2.18.29-2.18.52 0 .53 1.61.76 1.91.26v0Zm58.7-1.01c.32-.5.6-.53 3.83-.54 4.75-.01 7.29-1 5.53-2.16 -.36-.24-.64-.67-.64-.99 -.01-1.99-1.48-3.63-2.29-2.56 -2.36 3.1-2.8 3.56-3.99 4.15 -7.72 3.86-12.31-5.03-8.45-16.39 3.32-9.8 3.59-10.69 4.38-14.59 .38-1.89.02-5.61-.55-5.7 -1.21-.21-6.76 17.37-9.08 28.73 -1 4.88-1.03 4.94-2.37 5.79 -4.74 2.99-6.64 1.61-5.14-3.75 .46-1.68 1.96-5.84 2.65-7.36 .26-.6.48-1.16.48-1.23 0-.08.23-.69.52-1.35 3.36-7.7 4.16-10.51 3.05-10.82 -3.19-.92-7.56 1.52-9.47 5.28 -.21.4-.64 1.17-.96 1.69 -.73 1.18-1.98 3.51-4.12 7.62 -2.91 5.6-3.56 6.66-5.52 9.18 -2.08 2.66-4.25 3.96-7.73 4.64 -2.49.48-2.45.61.25.79 7.01.45 39.14.02 39.5-.53v0Zm-28.84-1.31c-1.1-.44-1.66-2.73-1.05-4.27 1.2-3.04 2.82-5.56 8.43-13.13 1.19-1.62 2.61-3.61 3.15-4.42 2.84-4.32 3.27 3.31.53 9.66 -2.93 6.78-7.72 12.57-10.27 12.39 -.13-.01-.5-.13-.82-.26Zm67.97-1.04c1.42-.16 2.65-.44 2.88-.64 .27-.26 1.04-.37 2.48-.37 1.14 0 2.14-.12 2.23-.26 .08-.15.36-.26.62-.26 .42 0 .92-.97.64-1.25 -.07-.07-.73.01-1.47.18 -1.31.29-2.44.46-4.81.73 -3.15.36-11.91.12-14.33-.4 -.85-.19-.9-.26-1.17-1.76 -.49-2.7-1.92-3.97-3.75-3.33 -1.82.63-1.92.96-.48 1.54 1.04.41 2.05 1.24 2.05 1.68 0 .46-1.59 2.05-2.06 2.05 -.26 0-.54.1-.62.23 -.18.28-3.19 1.21-4.69 1.45 -2.83.45-.26.61 9.41.61 5.8 0 11.61-.13 12.98-.28v0Zm16.63-13.92c1.37-.24 2.87-1.56 2.87-2.55 0-.74-.59-1.13-1.1-.74 -.32.24-2.28.76-3.01.79 -.22 0-.87.09-1.47.18 -3.93.63-14.85-2.83-19.96-6.33 -.59-.41-1.14-.74-1.22-.74 -.24 0-2.77-1.8-3.54-2.52 -2.65-2.47 2.3-2.71 8.76-.43 4.08 1.44 4.62 1.65 5.72 2.21 1.69.87 1.89.95 3.69 1.59 4.15 1.47 4.5 1.11 1.2-1.23 -4.92-3.5-10.15-5.66-12.11-5.01 -2.13.7-6.99-.57-11.57-3.02 -8.22-4.4-11.33-5.19-8.53-2.19 3.75 4.02 8.62 8.51 11.69 10.79 1.9 1.41 4.51 3.19 5.01 3.42 .21.09.9.48 1.53.84 1.47.85 6.36 3.05 7.61 3.42 2.44.71 3.66 1 4.94 1.16 .76.09 1.52.25 1.7.34 .41.21 6.28.14 7.69-.1v0ZM187.49 90.6c.63-.06 1.66-.16 2.3-.22 1.23-.13 5.03-.9 7.54-1.53 .84-.22 4.47-.79 8.06-1.28 13.27-1.82 17.19-3.3 20.49-7.73 1.44-1.94 1.45-2.19.11-4.78 -2.67-5.18.13-6.77 6.38-3.64 2.19 1.09 2.17 1.09 2.17.01 0-.99-.2-1.17-1.52-1.44 -7.2-1.48-10.52-6.92-6.74-11.03 .67-.74.62-1.56-.35-5.02 -.43-1.53-.68-1.62-1.92-.68 -.49.36-1.39.88-1.99 1.15 -1.11.48-1.11.48.02 1.61 3.61 3.61-.96 8.08-8.78 8.58 -5.12.32-5.57.48-3.25 1.15 3.91 1.13 4.49 3.57 1.23 5.15 -3.04 1.47-2.91 1.58.87.72 6.05-1.39 10.7-1.18 11.29.48 1.61 4.59-1.53 9.29-7.86 11.75 -1.52.58-2.42.86-5.51 1.67 -1.56.4-6.06 1.09-6.21.94 -.08-.08-.33-.03-.56.09 -.24.12-1.35.3-2.47.39 -6.56.54-10.01.99-17.33 2.28 -4.05.71-4.55.84-4.55 1.18 0 .24 5.02.47 6.39.28 .49-.07 1.41-.17 2.04-.22v0Zm21.84-36.38c1-.68 3.15-2.11 4.77-3.18 5.11-3.39 8.6-7.04 9.32-9.77 .19-.73.42-1.51.51-1.74 .28-.71-.67-3.24-1-2.69 -1.55 2.54-2.71 4-5.01 6.27 -3.81 3.75-5.2 5.06-5.66 5.31 -.77.41-4.89 5.08-5.25 5.94 -.72 1.69-.49 1.68 2.28-.18v0ZM26.76 73.14c-.001-.27.38-.99.85-1.6 1.18-1.56 1.7-2.63 1.7-3.53 0-1.01-.35-.88 5.78-2.19 13.71-2.94 19.58-3.69 30.08-3.86 55.37-.92 71.63-1.43 89.23-2.79 4.47-.35 4.47-.35 5.7 1.59 2.65 4.19-4.87 6.94-16.54 6.05 -1.13-.09-6.49-.2-11.91-.24 -9.86-.08-9.86-.08-15.21-1.16 -7.82-1.58-10.1-1.49-12.35.49 -1.06.92-.72.92-3.25.03 -6.4-2.26-14.3-2.4-27.05-.48 -4.3.64-9.31 1.3-11.14 1.45 -9.51.8-18.43 2.45-29.87 5.51 -4.76 1.27-6.1 1.42-6.1.66Z"/><path fill="#D5AD2D" d="M125.88 359.54c-29.82-1.28-50.55-5.25-67.1-12.84 -2.42-1.11-2.06-.37-4.66-9.54 -4.54-15.97-7.99-30.44-11.68-49 -1.88-9.42-2.75-13.35-7.08-31.74 -7.76-33-10.71-48.18-12.41-63.86 -.43-3.98.34-9.41 1.55-10.95 .71-.92.73-3.25.02-3.44 -.42-.11-.52-.46-.68-2.29 -.13-1.52-.33-2.34-.67-2.77 -.33-.42-.49-1.03-.49-1.9 0-.71-.12-1.36-.26-1.45 -.16-.1-.26-1.84-.26-4.36 0-2.52-.11-4.26-.26-4.36 -.15-.09-.26.07-.26.35 0 3.15-2.27-2.6-3.59-9.1 -3.4-16.7-8.96-33.28-7.68-22.88 .45 3.65 1.28 7.25 3.66 15.87 2.79 10.12 4.07 17.29 3.5 19.71 -.82 3.44-6.08-17.26-9.11-35.84 -.77-4.72-1.93-11.8-2.57-15.74 -1.44-8.81-2.78-15.43-4.6-22.76 -1.83-7.35-1.78-8.54.49-11.43 4.67-5.96 18.4-10.59 19.88-6.71 1.01 2.65-1.99 4.49-10.14 6.22 -7.07 1.49-7.72 2.56-3.89 6.35 3.83 3.78 26.07 7.17 52.38 7.97 46.59 1.41 76.13 1.79 84.45 1.06 2.04-.18 4.94-.4 6.44-.48 2.73-.15 2.73-.15 2.61-.82 -.1-.51.12-.98.89-1.95 .56-.71 1.4-1.8 1.86-2.44 1.67-2.29 4.36-3.01 5.45-1.46 .71 1.02.38 1.32-.41.35 -1.26-1.53-3.17-.92-4.98 1.59 -.43.58-1.15 1.53-1.6 2.09 -1.79 2.2-.17 3.77 2.96 2.86 2.21-.64 4.13-2.91 4.13-4.88 0-.47.08-.62.25-.45 .72.72-1.07 4.06-2.62 4.86 -1.05.54-.75.7 1.67.92 1.14.1 2.75.25 3.55.34 2.43.25 4.29-.63 3.27-1.56 -2.26-2.05 1.99-6.17 8.56-8.32 .98-.33 1.9-.69 2.03-.81 .13-.13.42-.23.64-.23 .83 0 3.23-1.86 5.9-4.58 2.71-2.77 3.96-3.82 4.23-3.56 .07.07-.31.46-.84.85 -3.98 2.92-4.14 4.05-.31 2.06 5.57-2.9 7.89-3.5 6.09-1.57 -2.32 2.47-9.98 6.13-10.91 5.2 -.2-.2-.68-.02-1.68.62 -.78.49-2.55 1.29-3.94 1.78 -4.79 1.67-6.03 2.37-8.81 4.94 -8.87 8.2 38.74 4.79 64.9-4.66 4.38-1.59 5.22-2.54 4.87-5.51 -.61-5.11-10.6-11.47-13.35-8.51 -.66.7-.93.51-.34-.25 1.02-1.3 3.78-1.03 7.22.69 2.19 1.09 2.17 1.09 2.17 0 0-.96-.5-1.41-1.59-1.44 -.58-.02-2.86-.95-2.43-.99 .11-.02.85.16 1.63.39 5.53 1.6 7.58-1.17 4.93-6.67 -.28-.58-1.08-3.29-1.77-6.04 -3.65-14.41-11.06-29.95-14.28-29.95 -.77-.01-.75.03-2.02-4.87 -2.18-8.41-3.79-11.51-6.89-13.27 -6.75-3.84-8.4-10.82-1.93-8.15 13.88 5.72 28.02 23.22 38.35 47.44 7.35 17.24 9.28 46.49 4.51 68.41 -3.35 15.36-5.62 38.94-8.07 83.56 -1.56 28.4-2.45 41.22-3.74 53.74 -.35 3.37-.8 8.44-1.01 11.26 -1.05 14.13-2.62 27.25-5.29 44.14 -.92 5.77-1.05 7.13-1.12 11.77 -.27 17.5-6.68 27.43-18.85 29.19 -1.18.16-3.65.74-5.48 1.28 -14.84 4.35-30.66 6.66-52.34 7.63 -17.59.78-22.67.86-31.48.49Zm-60.41-26.48c-3.16-12.88-5.01-18.99-7.23-23.91 -2.38-5.28-2.92-5.97-2.63-3.4 1.34 11.85 4.6 22.84 9.89 33.43 2.79 5.58 2.79 5.43-.05-6.14v0Zm-5.54 8.52c.92-3.44-.56-10.68-4.85-23.77 -2.45-7.48-4.26-13.97-4.6-16.54 -.23-1.69-.46-1.83-1.42-.87 -1.54 1.53-1.08 4.71 2.38 16.34 .93 3.12 1.82 6.7 1.98 7.93 .94 7.24 5.71 19.7 6.47 16.89Zm86.77-38.12c4.66-3.1 4.05-12.11-1.02-14.99 -4.57-2.59-7.03 3.05-5.09 11.68 .87 3.87 3.27 5.17 6.1 3.3Zm-13.77-.69c3.48-1.79 4.63-7.75 2.45-12.66 -2.16-4.85-6.47-2.39-7.25 4.12 -.12.94-.38 2.81-.6 4.16 -.77 4.84 1.25 6.48 5.37 4.36Zm-84.74-8.91c.55-4.47-.6-10.93-4.35-24.23 -1.07-3.78-2.29-8.67-2.73-10.88 -1.43-7.22-3.58-10.74-2.54-4.15 .5 3.2 3.35 17.81 3.96 20.34 .34 1.4.91 4.95 1.27 7.89 .9 7.3 1.69 10.19 3.25 11.88 .77.83.89.73 1.09-.87Zm59.23-24.7c19.49-4.47 25.78-28.85 10.39-40.32 -9.93-7.4-16.14-7.93-31.64-2.74 -3.17 1.06-6.02 2.09-6.34 2.29 -1.13.71-2.88 3.23-2.88 4.14 -.01.47-.46 1.97-1.01 3.34 -7.33 18.16 11.32 37.86 31.45 33.25Zm-24.7-13.96c-7.67-1.15-9.33-7.68-3.46-13.64 4.26-4.34 9.22-4.71 12.87-.98 7.21 7.38 1.5 16.24-9.43 14.6Zm97.23 10.36c13.39-2.25 21.78-17.65 16.26-29.83 -12.94-28.52-59.37-14.82-49.19 14.5 4.35 12.53 16.31 18.1 32.91 15.31v0Zm-26.09-11.84c-5.97-1.47-7.91-6.93-4.71-13.27 3.99-7.93 12.55-7.83 16.77.18 2.54 4.83 1.97 6.45-2.17 6.03 -3.72-.38-4.94.15-3.13 1.35 1.32.87 3.01 2.4 3.34 3.01 1.02 1.9-5.87 3.72-10.14 2.67v0ZM90.93 147.91c1-.15 1.7-.49 3-1.47 .92-.7 2.35-1.76 3.16-2.35 4.46-3.26 8.31-6.19 9.66-7.36 1.75-1.53 2.17-1.81 2.17-1.47 0 .13-.67.77-1.48 1.43 -.81.65-1.68 1.36-1.92 1.56 -.69.55-5.48 4.13-8.23 6.12 -2.95 2.14-2.99 2.25-.61 2.09 3.36-.24 4.06-.42 3.89-.96 -.18-.56.87-1.1 1.78-.92 .41.07.34.14-.32.3 -.47.11-.8.32-.75.48 .12.38 1.45.52 1.8.17 .17-.18 1.97-.28 5.04-.28 5.64 0 10.22-.25 10.22-.56 0-.12-.17-.22-.37-.22 -.41 0-1.17-.68-1.17-1.05 0-.14.23-.01.51.27 .36.36.85.51 1.69.51 .9 0 1.14.08 1.04.35 -.38.97 41.1.88 41.76-.1 .32-.48.62-.52 3.83-.53 4.75-.01 7.29-1 5.53-2.16 -.36-.24-.64-.67-.64-.99 -.01-.32-.29-1.18-.63-1.92 -.35-.74-.53-1.35-.4-1.35 .32 0 .52.38 1.16 2.27 .55 1.63.59 1.69 1.68 1.97 1.09.27 1.09.29.35.41 -.43.06.26.12 1.53.13 1.61 0 2.03-.06 1.4-.19 -.5-.11-.82-.21-.73-.23 .09-.02 1.06-.16 2.16-.32 3.45-.49 5.93-1.4 6.02-2.23 .07-.63.18-.7 1.1-.7 1.78 0 1.34-1.72-.54-2.07 -.94-.18-1.53-.7-1.26-1.13 .25-.42 1.66-1.08 2-.96 .17.06.08.18-.21.28 -1.61.55-1.73.98-.4 1.51 1.05.42 2.06 1.24 2.06 1.69 0 .46-1.59 2.05-2.06 2.05 -.26 0-.54.1-.62.23 -.18.28-3.19 1.21-4.69 1.45 -2.83.45-.26.61 9.41.61 10.69 0 15.14-.26 15.87-.92 .27-.26 1.04-.37 2.48-.37 1.14 0 2.14-.12 2.23-.26 .08-.15.36-.26.62-.26 .42 0 .92-.97.64-1.25 -.07-.07-.73.01-1.47.16 -2.7.56-3.01.6-3.01.38 0-.13.82-.38 1.82-.56 8.93-1.66 15.78-6.66 18.65-13.62 .39-.97 1.55-3.29 2.57-5.16 6.21-11.43 9.84-21.3 8.92-24.25 -.12-.36-.28-1.06-.36-1.57 -.29-1.75-.43-1.8-3.48-1.4 -13.6 1.8-40.03 4.51-56.18 5.75 -11.35.86-26.78 1.79-29.89 1.8 -1.23 0-1.23 0-5.75 4.34 -5.67 5.42-6.14 5.45-.73.03 2.22-2.23 3.94-4.12 3.82-4.19 -.83-.49-3.9-.97-5.77-.91 -2.08.06-2.14.05-2.12-.52 .02-.78.05-.77-7.45-.95 -60.03-1.39-100.24-3.46-121.98-6.28 -2.54-.33-2.8-.33-2.8.08 0 .71 2.07 2.68 3.71 3.52 2.06 1.06 2.09 1.52.12 1.88 -2.11.38-2.05.13-1.22 4.76 3.32 18.57 8.2 22.78 18.5 15.94 5.92-3.94 43.9-8.01 68.96-7.4 4.3.1 7.26.05 8.7-.14 1.19-.16 2.83-.35 3.63-.43 .8-.08 1.59-.3 1.75-.5 .16-.2.73-.37 1.27-.37 .53 0 1.29-.14 1.69-.3 2.71-1.12 23.37-1.55 23.37-.49 0 .18-1.07 1.19-3.53 3.36 -.58.5-3.56 2.8-6.63 5.11 -4.66 3.49-7.77 5.91-9.17 7.12 -.15.12-1.68 1.73-3.43 3.58 -7.16 7.61-14.64 12.86-21.06 14.76 -.9.26-1.27.52-1.47 1.05 -.35.88-1.47 2.87-1.82 3.22 -.59.58-.3.99.56.82 .45-.1 1.42-.26 2.14-.36ZM26.78 73.17c-.001-.27.38-.99.85-1.6 1.18-1.56 1.7-2.63 1.7-3.53 0-1.01-.35-.88 5.78-2.19 13.71-2.94 19.58-3.69 30.08-3.86 55.37-.92 71.63-1.43 89.23-2.79 4.47-.35 4.47-.35 5.7 1.59 2.65 4.19-4.87 6.94-16.54 6.05 -1.13-.09-6.49-.2-11.91-.24 -9.86-.08-9.86-.08-15.21-1.16 -7.82-1.58-10.1-1.49-12.35.49 -1.06.92-.72.92-3.25.03 -6.4-2.26-14.3-2.4-27.05-.48 -4.3.64-9.31 1.3-11.14 1.45 -9.51.8-18.43 2.45-29.87 5.51 -4.76 1.27-6.1 1.42-6.1.66Z"/><path fill="#28A8DD" d="M125.88 359.54c-29.82-1.28-50.55-5.25-67.1-12.84 -2.42-1.11-2.06-.37-4.66-9.54 -4.54-15.97-7.99-30.44-11.68-49 -1.88-9.42-2.75-13.35-7.08-31.74 -7.76-33-10.71-48.18-12.41-63.86 -.43-3.98.34-9.41 1.55-10.95 .71-.92.73-3.25.02-3.44 -.42-.11-.52-.46-.68-2.29 -.13-1.52-.33-2.34-.67-2.77 -.33-.42-.49-1.03-.49-1.9 0-.71-.12-1.36-.26-1.45 -.16-.1-.26-1.84-.26-4.36 0-2.52-.11-4.26-.26-4.36 -.15-.09-.26.07-.26.35 0 3.15-2.27-2.6-3.59-9.1 -3.4-16.7-8.96-33.28-7.68-22.88 .45 3.65 1.28 7.25 3.66 15.87 2.79 10.12 4.07 17.29 3.5 19.71 -.82 3.44-6.08-17.26-9.11-35.84 -.77-4.72-1.93-11.8-2.57-15.74 -1.44-8.81-2.78-15.43-4.6-22.76 -1.83-7.35-1.78-8.54.49-11.43 4.67-5.96 18.4-10.59 19.88-6.71 1.01 2.65-1.99 4.49-10.14 6.22 -7.07 1.49-7.72 2.56-3.89 6.35 3.83 3.78 26.07 7.17 52.38 7.97 46.55 1.41 76.12 1.79 84.45 1.06 8.23-.72 8.72-.71 10.1.09 1.22.71 1.22.71 2.79.33 1.56-.39 1.94-.38 7.4.19 1.18.12 1.76.04 2.86-.41 1.22-.5 1.49-.53 2.35-.24 1.79.59 18.88.42 24.9-.26 16.73-1.88 36.55-6.45 43.14-9.96 .77-.42 5.87-1.65 9.19-2.23 3.18-.56 5.25-1.05 6.78-1.62 1.4-.53 1.4-.53 1.57 1.69 .73 9.87-.37 25.8-2.35 33.95 -.52 2.13-1.13 5.54-2.04 11.38 -.3 1.9-.67 3.7-.82 4.01 -.16.3-.22.82-.13 1.15 .08.32-.13 2.89-.48 5.71 -1.83 14.81-2.97 29.83-4.73 61.93 -1.56 28.4-2.45 41.22-3.74 53.74 -.35 3.37-.8 8.44-1.01 11.26 -1.05 14.13-2.62 27.25-5.29 44.14 -.92 5.77-1.05 7.13-1.12 11.77 -.27 17.5-6.68 27.43-18.85 29.19 -1.18.16-3.65.74-5.48 1.28 -14.84 4.35-30.66 6.66-52.34 7.63 -17.59.78-22.67.86-31.48.49v0Zm-60.41-26.48c-3.16-12.88-5.01-18.99-7.23-23.91 -2.38-5.28-2.92-5.97-2.63-3.4 1.34 11.85 4.6 22.84 9.89 33.43 2.79 5.58 2.79 5.43-.05-6.14v0Zm-5.54 8.52c.92-3.44-.56-10.68-4.85-23.77 -2.45-7.48-4.26-13.97-4.6-16.54 -.23-1.69-.46-1.83-1.42-.87 -1.54 1.53-1.08 4.71 2.38 16.34 .93 3.12 1.82 6.7 1.98 7.93 .94 7.24 5.71 19.7 6.47 16.89Zm86.77-38.12c4.66-3.1 4.05-12.11-1.02-14.99 -4.57-2.59-7.03 3.05-5.09 11.68 .87 3.87 3.27 5.17 6.1 3.3Zm-13.77-.69c3.48-1.79 4.63-7.75 2.45-12.66 -2.16-4.85-6.47-2.39-7.25 4.12 -.12.94-.38 2.81-.6 4.16 -.77 4.84 1.25 6.48 5.37 4.36Zm-84.74-8.91c.55-4.47-.6-10.93-4.35-24.23 -1.07-3.78-2.29-8.67-2.73-10.88 -1.43-7.22-3.58-10.74-2.54-4.15 .5 3.2 3.35 17.81 3.96 20.34 .34 1.4.91 4.95 1.27 7.89 .9 7.3 1.69 10.19 3.25 11.88 .77.83.89.73 1.09-.87Zm76.95-8.29c2.6-1.41 5.26-2.05 8.48-2.05 2.47 0 4.33.25 11.41 1.56 8.63 1.59 13.7.39 13.1-3.1 -1.36-7.92-5.38-9.65-17.74-7.66 -7.21 1.16-12.43 1.21-15.36.16 -2.32-.84-2.18-.83-3.9-.19 -6.22 2.32-5.95 9.73.43 11.75 .85.27 1.58.5 1.6.5 .02 0 .89-.45 1.94-1.01v0Zm-17.73-16.42c19.49-4.47 25.78-28.85 10.39-40.32 -9.93-7.4-16.14-7.93-31.64-2.74 -3.17 1.06-6.02 2.09-6.34 2.29 -1.13.71-2.88 3.23-2.88 4.14 -.01.47-.46 1.97-1.01 3.34 -7.33 18.16 11.32 37.86 31.45 33.25v0Zm-24.7-13.96c-7.67-1.15-9.33-7.68-3.46-13.64 4.26-4.34 9.22-4.71 12.87-.98 7.21 7.38 1.5 16.24-9.43 14.6Zm97.23 10.36c13.39-2.25 21.78-17.65 16.26-29.83 -12.94-28.52-59.37-14.82-49.19 14.5 4.35 12.53 16.31 18.1 32.91 15.31v0Zm-26.09-11.84c-5.97-1.47-7.91-6.93-4.71-13.27 3.99-7.93 12.55-7.83 16.77.18 2.54 4.83 1.97 6.45-2.17 6.03 -3.72-.38-4.94.15-3.13 1.35 1.32.87 3.01 2.4 3.34 3.01 1.02 1.9-5.87 3.72-10.14 2.67v0ZM89.46 148.12c.25-.14 1.18-.28 2.05-.32 1.28-.06 1.63-.16 1.77-.54 .15-.42.52-.49 2.97-.56 3.68-.12 5.14-.32 6.38-.9 1.1-.52 11.76-.94 18.81-.74 12.53.35 40.05-.01 40.4-.53 .32-.5.59-.54 3.84-.54 3.64-.01 5.13-.3 5.74-1.13 .3-.43 1.18-.46 13.62-.43 13.54.03 18.01-.19 18.81-.91 .27-.26 1.04-.37 2.48-.37 1.14 0 2.14-.12 2.23-.26 .1-.17 3.88-.26 10.49-.26 9.96 0 10.35-.02 10.6-.5 .22-.43.63-.52 3.01-.64 5.65-.29 7.09-.45 7.52-.84 .33-.3.98-.37 2.92-.32 2.5.07 2.5.07 2.81-1.07 .17-.63.54-1.78.82-2.55 .4-1.13.54-2.37.69-6.15 .19-5.18.37-6.83 1.06-9.73 .55-2.33.56-17.86.02-23.93 -.34-3.79-7.33-5.22-12.51-2.55 -.86.43-21.58 2.89-37.6 4.45 -16.2 1.57-36.64 3.07-47.61 3.49 -2.92.11-4.72.28-5.16.51 -.59.29-.88.27-2.05-.1 -.92-.3-2.26-.44-4.06-.45 -2.63-.01-2.69-.02-2.67-.59 .02-.78.05-.77-7.45-.95 -60.03-1.39-100.24-3.46-121.98-6.28 -2.54-.33-2.8-.33-2.8.08 0 .71 2.07 2.68 3.71 3.52 2.06 1.06 2.09 1.52.12 1.88 -2.11.38-2.05.13-1.22 4.76 3.32 18.57 8.2 22.78 18.5 15.94 5.92-3.94 43.9-8.01 68.96-7.4 4.3.1 7.26.05 8.7-.14 1.19-.16 2.83-.35 3.63-.43 .8-.08 1.59-.3 1.75-.5 .16-.2.73-.37 1.27-.37 .53 0 1.29-.14 1.69-.3 2.71-1.12 23.37-1.55 23.37-.49 0 .18-1.07 1.19-3.53 3.36 -.58.5-3.56 2.8-6.63 5.11 -4.66 3.49-7.77 5.91-9.17 7.12 -.15.12-1.68 1.73-3.43 3.58 -7.16 7.61-14.64 12.86-21.06 14.76 -.9.26-1.27.52-1.47 1.05 -.35.88-1.47 2.87-1.82 3.22 -.75.74.19 1.25 1.25.68v0ZM26.77 73.16c0-.27.38-.99.85-1.6 1.18-1.56 1.7-2.63 1.7-3.53 0-1.01-.35-.88 5.78-2.19 13.71-2.94 19.58-3.69 30.08-3.86 55.37-.92 71.63-1.43 89.23-2.79 4.47-.35 4.47-.35 5.7 1.59 2.65 4.19-4.87 6.94-16.54 6.05 -1.13-.09-6.49-.2-11.91-.24 -9.86-.08-9.86-.08-15.21-1.16 -7.82-1.58-10.1-1.49-12.35.49 -1.06.92-.72.92-3.25.03 -6.4-2.26-14.3-2.4-27.05-.48 -4.3.64-9.31 1.3-11.14 1.45 -9.51.8-18.43 2.45-29.87 5.51 -4.76 1.27-6.1 1.42-6.1.66Z"/><path fill="#3698A6" d="M125.88 359.54c-29.82-1.28-50.55-5.25-67.1-12.84 -2.42-1.11-2.06-.37-4.66-9.54 -4.54-15.97-7.99-30.44-11.68-49 -1.88-9.42-2.75-13.35-7.08-31.74 -7.76-33-10.71-48.18-12.41-63.86 -.48-4.39.4-9.77 1.83-11.2 .93-.94 1.05-2.7.24-3.46 -.38-.35-.57-1.03-.75-2.59 -.14-1.22-.41-2.3-.63-2.55 -.5-.56-.69-2.18-.91-7.65 -.1-2.42-.27-4.49-.39-4.6 -.25-.25-.69.37-.69.98 -.03 3.02-2.29-2.75-3.6-9.18 -3.4-16.7-8.96-33.28-7.68-22.88 .45 3.65 1.28 7.25 3.66 15.87 2.79 10.12 4.07 17.29 3.5 19.71 -.82 3.44-6.08-17.26-9.11-35.84 -.77-4.72-1.93-11.8-2.57-15.74 -1.44-8.81-2.78-15.43-4.6-22.76 -1.83-7.35-1.78-8.54.49-11.43 4.67-5.96 18.4-10.59 19.88-6.71 1.01 2.65-1.99 4.49-10.14 6.22 -7.07 1.49-7.72 2.56-3.89 6.35 3.83 3.78 26.07 7.17 52.38 7.97 46.55 1.41 76.12 1.79 84.45 1.06 8.23-.72 8.72-.71 10.1.09 1.22.71 1.22.71 2.79.33 1.56-.39 1.94-.38 7.4.19 1.18.12 1.76.04 2.86-.41 1.22-.5 1.49-.53 2.35-.24 1.79.59 18.88.42 24.9-.26 16.73-1.88 36.55-6.45 43.14-9.96 .77-.42 5.87-1.65 9.19-2.23 3.18-.56 5.25-1.05 6.78-1.62 1.4-.53 1.4-.53 1.57 1.69 .73 9.87-.37 25.8-2.35 33.95 -.52 2.13-1.13 5.54-2.04 11.38 -.3 1.9-.67 3.7-.82 4.01 -.16.3-.22.82-.13 1.15 .08.32-.13 2.89-.48 5.71 -1.83 14.81-2.97 29.83-4.73 61.93 -1.56 28.4-2.45 41.22-3.74 53.74 -.35 3.37-.8 8.44-1.01 11.26 -1.05 14.13-2.62 27.25-5.29 44.14 -.92 5.77-1.05 7.13-1.12 11.77 -.27 17.5-6.68 27.43-18.85 29.19 -1.18.16-3.65.74-5.48 1.28 -14.84 4.35-30.66 6.66-52.34 7.63 -17.59.78-22.67.86-31.48.49v0Zm-60.41-26.48c-3.16-12.88-5.01-18.99-7.23-23.91 -2.38-5.28-2.92-5.97-2.63-3.4 1.34 11.85 4.6 22.84 9.89 33.43 2.79 5.58 2.79 5.43-.05-6.14v0Zm-5.54 8.52c.92-3.44-.56-10.68-4.85-23.77 -2.45-7.48-4.26-13.97-4.6-16.54 -.23-1.69-.46-1.83-1.42-.87 -1.54 1.53-1.08 4.71 2.38 16.34 .93 3.12 1.82 6.7 1.98 7.93 .94 7.24 5.71 19.7 6.47 16.89Zm86.77-38.12c4.66-3.1 4.05-12.11-1.02-14.99 -4.57-2.59-7.03 3.05-5.09 11.68 .87 3.87 3.27 5.17 6.1 3.3Zm-13.77-.69c3.48-1.79 4.63-7.75 2.45-12.66 -2.16-4.85-6.47-2.39-7.25 4.12 -.12.94-.38 2.81-.6 4.16 -.77 4.84 1.25 6.48 5.37 4.36Zm-84.74-8.91c.55-4.47-.6-10.93-4.35-24.23 -1.07-3.78-2.29-8.67-2.73-10.88 -1.43-7.22-3.58-10.74-2.54-4.15 .5 3.2 3.35 17.81 3.96 20.34 .34 1.4.91 4.95 1.27 7.89 .9 7.3 1.69 10.19 3.25 11.88 .77.83.89.73 1.09-.87Zm76.95-8.29c2.6-1.41 5.26-2.05 8.48-2.05 2.47 0 4.33.25 11.41 1.56 8.63 1.59 13.7.39 13.1-3.1 -1.36-7.92-5.38-9.65-17.74-7.66 -7.21 1.16-12.43 1.21-15.36.16 -2.32-.84-2.18-.83-3.9-.19 -6.22 2.32-5.95 9.73.43 11.75 .85.27 1.58.5 1.6.5 .02 0 .89-.45 1.94-1.01v0Zm-17.73-16.42c19.49-4.47 25.78-28.85 10.39-40.32 -10.18-7.58-16.66-8.01-33.23-2.21 -3.48 1.21-5.13 1.68-5.32 1.5 -.19-.19-.27-.13-.27.17 0 .24-.17.5-.37.58 -.76.29-1.62 1.99-1.67 3.29 -.04.79-.43 2.2-1.04 3.73 -7.31 18.12 11.35 37.82 31.47 33.21v0Zm-24.7-13.96c-7.67-1.15-9.33-7.68-3.46-13.64 4.26-4.34 9.22-4.71 12.87-.98 7.21 7.38 1.5 16.24-9.43 14.6Zm97.23 10.36c13.39-2.25 21.78-17.65 16.26-29.83 -12.94-28.52-59.37-14.82-49.19 14.5 4.35 12.53 16.31 18.1 32.91 15.31v0Zm-26.09-11.84c-5.97-1.47-7.91-6.93-4.71-13.27 3.99-7.93 12.55-7.83 16.77.18 2.54 4.83 1.97 6.45-2.17 6.03 -3.72-.38-4.94.15-3.13 1.35 1.32.87 3.01 2.4 3.34 3.01 1.02 1.9-5.87 3.72-10.14 2.67v0Zm-14.9-87.58c.18-.66.09-.99-.56-2.03 -5.03-7.94.58-18.96 8.52-16.75 3.24.9 3.26 2.69.05 9.69 -3.03 6.6-2.8 7.81 1.5 7.81 3.04 0 2.9.21 3.18-4.77 .73-12.79 4.58-17.1 12.79-14.32 2.13.72 2.16.76 2.81 3.3 2.46 9.74 5.83 12.5 14.72 12.09 6.3-.3 7.7-1.63 10.12-9.65 2.05-6.83 3.47-8.5 7.73-9.08 1.01-.14 2.37-.37 3-.5 2.68-.57 5.34-.17 6.04.89 .59.9.94.49.8-.94 -.12-1.25-.12-1.25 9.81-1.25 9.56 0 9.94-.02 10.2-.5 .22-.43.63-.52 3.01-.64 5.65-.29 7.09-.45 7.52-.84 .33-.3.98-.37 2.92-.32 2.5.07 2.5.07 2.81-1.07 .17-.63.54-1.78.82-2.55 .4-1.13.54-2.37.69-6.15 .19-5.18.37-6.83 1.06-9.73 .55-2.33.56-17.86.02-23.93 -.34-3.79-7.33-5.22-12.51-2.55 -.86.43-21.58 2.89-37.6 4.45 -16.2 1.57-36.64 3.07-47.61 3.49 -2.92.11-4.72.28-5.16.51 -.59.29-.88.27-2.05-.1 -.92-.3-2.26-.44-4.06-.45 -2.63-.01-2.69-.02-2.67-.59 .02-.78.05-.77-7.45-.95 -60.03-1.39-100.24-3.46-121.98-6.28 -2.54-.33-2.8-.33-2.8.08 0 .71 2.07 2.68 3.71 3.52 2.06 1.06 2.09 1.52.12 1.88 -2.11.38-2.05.13-1.22 4.76 3.32 18.57 8.2 22.78 18.5 15.94 4.9-3.26 24.7-5.92 53.12-7.15 22.65-.99 17.57.45-12.19 3.45 -14.67 1.47-21.56 2.42-28.67 3.95 -1.55.33-3.63.66-4.62.73 -8.61.62-16.83 10.99-12.51 15.77 1.27 1.41 3.12 2.05 6.66 2.29 1.56.1 2.95.26 3.08.34 .13.08 1.78.43 3.67.77 4.02.73 4.84 1.01 5.02 1.7 .12.46.35.5 2.63.5 2.26 0 2.53.05 2.86.54 .3.45.68.56 2.32.67 1.48.09 2.06.24 2.39.6 .27.3.78.47 1.4.47 .53 0 1.04.11 1.12.25 .08.14.74.25 1.47.25 1 0 1.45.13 1.92.57 .58.55.83.57 5.68.65 4.62.07 5.11.12 5.52.57 .46.51 2.92.73 2.92.26 0-.9 4.41-1.65 10.1-1.71 4.08-.05 5.61-.17 7.54-.6 3.21-.71 3.32-.55 1.55 2.39 -.43.7-.89 1.52-1.02 1.83 -.14.3-.57.7-.95.89 -.39.18-1.16 1.01-1.72 1.83 -.78 1.13-1.33 1.63-2.33 2.1 -4.3 2.03-7.79 5.48-5.54 5.48 .57 0 1.32.18 1.65.4 .55.36.68.36 1.38 0 .42-.23.93-.41 1.13-.41 .19 0 .8-.72 1.34-1.6 1.7-2.78 8.78-9.35 9.68-9 .26.1.47-.04.6-.41 .19-.52.4-.57 3-.65 3.3-.11 5.5-.36 5.89-.67 .16-.14.95.03 1.99.44 2.95 1.14 3.17 2.41.63 3.76 -4.49 2.38-5.25 7.53-1.71 11.55 3.05 3.46 8.18 2.77 5.27-.72 -5.54-6.65-1.66-12.21 10.02-14.38 7.44-1.39 18.36.98 16.35 3.53 -1.75 2.21-1.75 5.31 0 12.43 .43 1.75.78 3.46.78 3.78 0 1.05 3.09.74 3.4-.35h0Zm37.51-9.17c-7.42-2.66-7.34-10.84.11-10.63 2.07.06 2.52-.02 3.88-.62 5.29-2.36 10.27 1.51 8.73 6.79 -.91 3.1-2.72 4.27-7.07 4.56 -4.02.27-4.6.26-5.67-.13ZM26.77 73.14c-.001-.27.38-.99.85-1.6 1.18-1.56 1.7-2.63 1.7-3.53 0-1.01-.35-.88 5.78-2.19 13.71-2.94 19.58-3.69 30.08-3.86 55.37-.92 71.63-1.43 89.23-2.79 4.47-.35 4.47-.35 5.7 1.59 2.65 4.19-4.87 6.94-16.54 6.05 -1.13-.09-6.49-.2-11.91-.24 -9.86-.08-9.86-.08-15.21-1.16 -7.82-1.58-10.1-1.49-12.35.49 -1.06.92-.72.92-3.25.03 -6.4-2.26-14.3-2.4-27.05-.48 -4.3.64-9.31 1.3-11.14 1.45 -9.51.8-18.43 2.45-29.87 5.51 -4.76 1.27-6.1 1.42-6.1.66Z"/><path fill="#008ECF" d="M130.61 359.67c-33.68-1.81-49.71-4.46-66.42-10.98 -7.27-2.84-7.29-2.85-8.03-5.29 -4.5-14.77-9.2-33.9-13.12-53.45 -2.29-11.38-3.07-14.92-7.63-34.32 -11.57-49.21-14.48-69.42-10.63-73.81 .94-1.08 1.07-3.15.24-3.93 -.38-.35-.57-1.03-.75-2.59 -.14-1.22-.41-2.3-.63-2.55 -.5-.56-.69-2.18-.91-7.68 -.14-3.46-.26-4.48-.55-4.66 -.53-.33-.78-.09-.79.71 -.03 2.35-2.12-3.87-3.33-9.94 -3.73-18.62-10.32-35.34-7.53-19.1 .45 2.67 1.8 8.02 3.78 15.06 1.69 6.02 2.64 10.61 2.95 14.27 .98 11.65-5.28-11.77-8.55-32C4.22 101.69 2.96 95.14.48 86.92c-1.07-3.55-.56-5.41 2.31-8.41 6.04-6.32 19.73-9.84 18.73-4.82 -.42 2.07-3.16 3.37-10.12 4.81 -7.2 1.48-7.93 2.72-3.93 6.67 3.14 3.11 20.34 6.36 40.25 7.61 3.7.23 8.02.37 30.71 1.04 30.53.89 58.76 1.12 65.9.53 8.3-.69 9.25-.69 10.42-.04 .93.52 1.16.55 2.22.3 1.12-.27 1.98-.23 7.99.35 1.2.11 1.67.03 2.84-.53 1.2-.58 1.51-.63 2.14-.38 1.44.57 19.13.39 24.91-.26 16.74-1.88 36.55-6.45 43.14-9.96 .77-.42 5.87-1.65 9.19-2.23 3.23-.57 5.27-1.05 6.6-1.57 2.24-.88 2.77 11.01 1.06 23.81 -.94 6.99-1.15 8.35-1.64 10.63 -.29 1.33-.69 3.17-.88 4.09 -2.84 13.2-5.28 39.46-7.59 81.51 -1.68 30.52-2.48 41.83-4.1 57.45 -.27 2.6-.56 5.82-.65 7.16 -.76 11.79-2.46 25.99-5.39 45.1 -.91 5.93-1.1 7.74-.98 9.34 1.24 16.42-6.35 28.65-18.98 30.61 -1.27.19-4.34.94-6.81 1.66 -12.52 3.63-26.73 5.8-45.41 6.93 -12.1.73-28.52 1.3-32 1.12v0Zm-1.11-3.62c.93-.94-1.84-1.39-13.87-2.24 -2.89-.21-6.69-.55-8.45-.76 -9.62-1.15-17.23-1.22-14.42-.13 5.1 1.96 35.3 4.52 36.71 3.1Zm-61.47-13.21c0-.67-4.57-18.97-5.73-22.94 -2.14-7.34-5.93-16.38-6.87-16.38 -.88 0 1.29 12.44 3.39 19.45 2.76 9.23 9.19 23.11 9.19 19.86Zm-7.91-1.08c.88-4.11-.4-10.55-4.78-23.91 -2.41-7.35-4.24-13.92-4.61-16.51 -.24-1.67-.49-1.98-1.28-1.62 -2.29 1.04-1.94 4.69 1.57 16.31 .91 3.01 1.83 6.64 2.04 8.06 1.38 9.08 6.24 21.29 7.03 17.65Zm86.49-37.95c4.07-2.59 4.79-8.51 1.57-13.08 -5.34-7.59-10.83-.12-7.64 10.38 .96 3.17 3.5 4.31 6.05 2.69v0Zm-13.69-.77c4.43-2.28 5.17-10.99 1.28-15.08 -2.33-2.45-5.74 1.08-6.35 6.58 -.13 1.15-.35 2.58-.49 3.17 -1.21 5.21 1.22 7.54 5.54 5.32v0Zm-84.52-9.15c.59-3.85-.66-11.07-3.97-22.93 -1.27-4.56-2.71-10.27-3.2-12.7 -1.19-5.92-3.19-9.93-3.19-6.39 0 1.78 2.84 17.24 4.21 22.96 .35 1.47.94 5.04 1.29 7.93 .95 7.65 1.55 9.94 3.09 11.74 1.15 1.35 1.43 1.24 1.73-.64Zm76.76-8.3c4.56-2.51 8.38-2.66 18.45-.72 13.33 2.56 18.67-1.31 12.02-8.71 -2.73-3.04-5.58-3.36-15.48-1.79 -6.61 1.05-12.31 1.14-14.72.22 -2.94-1.11-4.79-.73-7.05 1.47 -3.88 3.75-1.29 9.4 4.81 10.51 .04 0 .91-.45 1.94-1.01Zm-17.45-16.23c2.81-.72 3.53-1.05 7.95-3.7 14.67-8.78 14.7-30.04.04-38.5 -.99-.57-2.43-1.41-3.2-1.87 -7.04-4.15-13.79-3.92-27.39.91 -2.47.87-4.81 1.58-5.2 1.57 -.54-.02-.78.14-.96.6 -.14.34-.34.62-.46.62 -.58 0-1.85 2.28-1.85 3.33 0 .65-.4 2.04-1.02 3.57 -7.38 18.28 12 38.5 32.03 33.42v0Zm-25.67-14.49c-6.81-1.16-8.1-7.3-2.73-12.98 4.15-4.4 8.8-4.82 12.47-1.14 7.48 7.51 1.59 16.03-9.75 14.11v0Zm98.29 10.87c16.25-3.24 22.85-21.11 12.97-35.18 -15.01-21.39-51.94-8.95-47.52 15.99 2.64 14.91 16.71 22.72 34.54 19.17Zm-26.27-12.17c-7.1-1.41-8.4-10.11-2.42-16.13 5.27-5.32 12.78-2.26 15.22 6.21 .76 2.63.28 3-3.63 2.81 -4.51-.23-4.87.18-2.03 2.32 2.25 1.68 2.92 2.54 2.44 3.12 -1.18 1.41-6.35 2.29-9.62 1.65v0Zm.27-61.79c1.82-.08 3.73-.21 4.22-.29 .49-.09 1.24-.19 1.66-.24 .42-.05 1.28-.16 1.91-.24 .63-.09 1.55-.2 2.04-.27s1.29-.18 1.79-.26c.49-.08 1.24-.2 1.66-.26 .77-.12 3.33-.56 7.29-1.27 16.96-3.05 28.79-8.52 41.49-19.18 .36-.32 1.16-.97 1.75-1.47 .59-.5 1.57-1.36 2.16-1.92 .59-.57 1.85-1.72 2.8-2.56 .95-.85 2.33-2.12 3.06-2.82 2.64-2.52 5.47-5.08 7.85-7.1 .61-.53 1.46-1.25 1.88-1.61 .42-.37 1.31-1.09 1.97-1.62 .84-.67 1.25-1.21 1.37-1.8 .15-.76.24-.84.95-.77 .61.05.85-.06 1.1-.55 .17-.35.49-.73.71-.85 .28-.17.4-.62.4-1.56 0-1.14.08-1.38.57-1.59 .31-.14.61-.5.65-.8 .04-.3.35-.67.68-.82 .49-.23.63-.54.78-1.77 .09-.82.26-1.61.36-1.75 .1-.15.3-.72.45-1.28 .14-.57.5-1.66.78-2.44 .41-1.13.54-2.37.69-6.15 .19-5.18.37-6.83 1.06-9.73 .55-2.33.56-17.86.02-23.93 -.34-3.79-7.33-5.22-12.51-2.55 -.86.44-21.59 2.89-37.6 4.45 -12.35 1.2-28.17 2.44-39.42 3.08 -2.75.15-6.84.39-9.09.53 -5.34.32-6.25.31-6.72-.09 -.29-.24-1.27-.32-3.33-.3 -2.79.03-2.93.01-2.8-.47 .2-.8-.51-.9-7.77-1.08 -63.57-1.56-98.16-3.35-122.2-6.32 -2.69-.34-2.7-.33-2.7.23 0 .78 2.15 2.94 3.82 3.83 1.86.99 1.92 1.22.33 1.44 -2.54.34-2.46 0-1.34 6.04 3.29 17.73 8.83 22.18 18.76 15.05 3.01-2.17 19.88-5.09 35.48-6.14 6.81-.46 8.08-.53 17.14-.92 10.46-.45 12.99-.48 12.65-.14 -.34.33-9.61 1.63-17.39 2.44 -22.86 2.36-25.9 2.75-34.17 4.33 -2.47.47-5.52.98-6.79 1.14 -13.72 1.7-18.43 17.44-5.51 18.36 4.61.33 11.77 2.02 11.77 2.77 0 .3.49.37 2.65.37 2.42 0 2.68.04 3.01.54 .3.45.68.56 2.32.67 1.48.09 2.06.24 2.39.6 .27.3.78.47 1.4.47 .53 0 1.04.11 1.12.25 .08.14.74.25 1.47.25 1 0 1.45.13 1.92.57 .58.55.83.57 5.64.65 4.48.07 5.08.13 5.54.55 .7.65 2.91.79 3.49.21 .9-.91 4.89-1.56 9.34-1.52 3.67.03 7.85-.36 9.62-.91 1.19-.37-1.42 4.76-2.69 5.29 -.39.16-.71.42-.71.58 -.02.9-1.61 2.76-2.88 3.36 -10.94 5.16-11.13 16.39-.41 23.36 6.94 4.51 8.24 5.3 11.21 6.81 7 3.55 16.25 6.44 23.8 7.43 .63.08 1.43.2 1.79.26 .75.13 2.67.36 4.47.53 .7.06 1.85.17 2.55.24 .7.07 2.34.16 3.64.19 1.29.03 2.41.12 2.47.18 .14.14 17.52.04 21.78-.14ZM27 73.05c0-.2.38-.86.85-1.48 1.17-1.55 1.7-2.63 1.7-3.52 0-.57.14-.79.57-.9 12.23-3 24.49-4.75 34.35-4.92 60.08-1.04 72.78-1.44 89.7-2.8 4.5-.37 4.58-.35 5.64 1.33 2.74 4.32-1.42 5.82-15.89 5.72 -23.12-.16-21.53-.09-27.46-1.28 -7.81-1.57-10.25-1.47-12.64.55 -.81.68-.81.68-3.47-.21 -6.62-2.22-13.19-2.26-27.47-.18 -4.93.71-10.52 1.41-12.43 1.55 -6.65.48-13.87 1.82-25.06 4.64 -7.22 1.82-8.47 2.02-8.47 1.42Z"/><path fill="#1B6F95" d="M130.61 359.67c-33.68-1.81-49.71-4.46-66.42-10.98 -7.27-2.84-7.29-2.85-8.03-5.29 -4.5-14.77-9.2-33.9-13.12-53.45 -2.29-11.38-3.07-14.92-7.63-34.32 -11.54-49.09-14.49-69.49-10.65-73.78 1.27-1.43 2.29.24 3.42 5.58 6.42 30.44 16.91 70.29 24.77 94.05 2.93 8.88 2.44 8.03 4.58 7.85 2.22-.19 2.26-.11 1.15 2.47 -2.07 4.79-1.05 7.22 5.41 12.94 2.73 2.42 2.48 3.13-.95 2.64 -2.38-.35-2.22-.68-1.33 2.77 .41 1.6.98 4.06 1.28 5.47 4.5 21.65 9.03 29.34 18.39 31.27 28.94 5.93 61.98 6.96 105.65 3.27 17.15-1.45 30.52-6.79 34.8-13.89 1.1-1.84 1.13-1.76-.7-1.95 -2.95-.31-2.88-1.03.25-2.32 4.62-1.92 6.07-3.43 5.99-6.27 -.04-1.24.14-2.24.68-3.86 1.82-5.5 2.19-9.76 1.77-20.38 -.36-8.96-.25-12.52.48-15.86 1.13-5.16 1.73-10.3 2.73-23.29 .67-8.81 1.17-13.77 1.78-17.66 .56-3.67.86-7.58 1.27-17.02 .46-10.71.76-14.81 1.43-19.84 .83-6.26.97-6.73 2.48-8.24 2.16-2.17 2.1-3.69-.31-7.2 -3.68-5.37-3.68-8.18-.02-11.56 1.4-1.3 1.44-3.18.37-15.51 -1.14-13.06-1.12-17.34.08-17.23 .61.05.85-.06 1.1-.55 .17-.35.49-.73.71-.85 .28-.17.4-.62.4-1.56 0-1.14.08-1.38.57-1.59 .31-.14.61-.5.65-.8 .04-.3.35-.67.68-.82 .49-.23.63-.54.78-1.77 .09-.82.26-1.61.36-1.75 .1-.15.3-.72.45-1.28 .14-.57.5-1.66.78-2.44 .41-1.13.54-2.37.69-6.15 .19-5.18.37-6.83 1.06-9.73 .55-2.33.56-17.86.02-23.93 -.34-3.79-7.33-5.22-12.51-2.55 -.86.44-21.59 2.89-37.6 4.45 -12.35 1.2-28.17 2.44-39.42 3.08 -2.75.15-6.84.39-9.09.53 -5.34.32-6.25.31-6.72-.09 -.29-.24-1.27-.32-3.33-.3 -2.79.03-2.93.01-2.8-.47 .2-.8-.51-.9-7.77-1.08 -63.57-1.56-98.16-3.35-122.2-6.32 -2.69-.34-2.7-.33-2.7.23 0 .78 2.15 2.94 3.82 3.83 1.86.99 1.92 1.22.33 1.44 -2.54.34-2.46 0-1.34 6.04 3.29 17.73 8.83 22.18 18.76 15.05 3.01-2.17 19.88-5.09 35.48-6.14 6.81-.46 8.08-.53 17.14-.92 10.46-.45 12.99-.48 12.65-.14 -.34.33-9.61 1.63-17.39 2.44 -22.86 2.36-25.9 2.75-34.17 4.33 -2.47.47-5.52.98-6.79 1.14 -13.72 1.7-18.43 17.44-5.51 18.36 2.23.16 10.49 1.72 11.25 2.12 .88.47.64 1.25-.54 1.75 -1.06.44-1.06.44.01 1.15 .87.58 1.01.77.76 1.07 -.47.56-.7.51-8.34-1.69 -9.61-2.77-11.68-2.97-9.06-.9 2 1.59 1.74 2.24-.62 1.53 -2.14-.65-2.01-1.29-1.04 5.24 .24 1.61.42 3.37.41 3.9 -.02.52.14 1.73.35 2.68 .96 4.42 1.06 7.5.18 6.31 -.61-.83-2.07-5.9-2.91-10.09 -3.73-18.62-10.32-35.34-7.53-19.1 .45 2.67 1.8 8.02 3.78 15.06 1.69 6.02 2.64 10.61 2.95 14.27 .98 11.65-5.28-11.77-8.55-32C3.91 101.35 2.65 94.8.17 86.58c-1.07-3.55-.56-5.41 2.31-8.41 6.04-6.32 19.73-9.84 18.73-4.82 -.42 2.07-3.16 3.37-10.12 4.81 -7.2 1.48-7.93 2.72-3.93 6.67 3.14 3.11 20.34 6.36 40.25 7.61 3.7.23 8.02.37 30.71 1.04 30.53.89 58.76 1.12 65.9.53 8.3-.69 9.25-.69 10.42-.04 .93.52 1.16.55 2.22.3 1.12-.27 1.98-.23 7.99.35 1.2.11 1.67.03 2.84-.53 1.2-.58 1.51-.63 2.14-.38 1.44.57 19.13.39 24.91-.26 16.74-1.88 36.55-6.45 43.14-9.96 .77-.42 5.87-1.65 9.19-2.23 3.23-.57 5.27-1.05 6.6-1.57 2.24-.88 2.77 11.01 1.06 23.81 -.94 6.99-1.15 8.35-1.64 10.63 -.29 1.33-.69 3.17-.88 4.09 -2.84 13.2-5.28 39.46-7.59 81.51 -1.68 30.52-2.48 41.83-4.1 57.45 -.27 2.6-.56 5.82-.65 7.16 -.76 11.79-2.46 25.99-5.39 45.1 -.91 5.93-1.1 7.74-.98 9.34 1.24 16.42-6.35 28.65-18.98 30.61 -1.27.19-4.34.94-6.81 1.66 -12.52 3.63-26.73 5.8-45.41 6.93 -12.1.73-28.52 1.3-32 1.12v0Zm-1.11-3.62c.93-.94-1.84-1.39-13.87-2.24 -2.89-.21-6.69-.55-8.45-.76 -9.62-1.15-17.23-1.22-14.42-.13 5.1 1.96 35.3 4.52 36.71 3.1Zm-61.47-13.21c0-.67-4.57-18.97-5.73-22.94 -2.14-7.34-5.93-16.38-6.87-16.38 -.88 0 1.29 12.44 3.39 19.45 2.76 9.23 9.19 23.11 9.19 19.86Zm-7.91-1.08c.88-4.11-.4-10.55-4.78-23.91 -2.41-7.35-4.24-13.92-4.61-16.51 -.24-1.67-.49-1.98-1.28-1.62 -2.29 1.04-1.94 4.69 1.57 16.31 .91 3.01 1.83 6.64 2.04 8.06 1.38 9.08 6.24 21.29 7.03 17.65ZM48.41 293.9c.59-3.85-.66-11.07-3.97-22.93 -1.27-4.56-2.71-10.27-3.2-12.7 -1.19-5.92-3.19-9.93-3.19-6.39 0 1.78 2.84 17.24 4.21 22.96 .35 1.47.94 5.04 1.29 7.93 .95 7.65 1.55 9.94 3.09 11.74 1.15 1.35 1.43 1.24 1.73-.64Zm56.19 25.32c-.36-.06-1.68-.22-2.95-.38 -1.27-.16-6.05-1.03-10.63-1.94 -9.51-1.9-14.4-2.65-17.16-2.66 -3.06-.01-4.07-1.35-2.32-3.1 1.27-1.28 3.75-1 11.41 1.31 5.24 1.58 9.15 2.53 11.5 2.79 .99.11 2.95.45 4.35.75 2.09.45 17.05 2.31 18.57 2.31 .23 0 .49.23.56.51 .12.48-10.53.76-13.39.34v0Zm24.18-11.46c-3.42-1.61-4.67-4.03-5.38-10.46 -.97-8.68-2.34-10.61-8.36-11.84 -1.43-.3-1.64-4.95-.36-7.74 1.35-2.97 4.44-6.38 9.45-10.45 1.38-1.13 3.26-2.77 4.16-3.64 1.99-1.93 2.26-2.01 7.37-1.97 11.45.08 23.15 9.12 26.71 20.66 .93 3.04.83 3.2-4.2 6.45 -6.25 4.03-7.57 6.09-6.79 10.56 1.2 6.9-1.93 9.04-10.13 6.92 -5.48-1.42-7.99-1.1-9.77 1.24 -.76.99-1.07 1.01-2.75.22v0Zm17.81-3.97c4.07-2.59 4.79-8.51 1.57-13.08 -5.34-7.59-10.83-.12-7.64 10.38 .96 3.17 3.5 4.31 6.05 2.69Zm-13.69-.77c4.43-2.28 5.17-10.99 1.28-15.08 -2.33-2.45-5.74 1.08-6.35 6.58 -.13 1.15-.35 2.58-.49 3.17 -1.21 5.21 1.22 7.54 5.54 5.32v0Zm-7.76-17.45c4.56-2.51 8.38-2.66 18.45-.72 13.33 2.56 18.67-1.31 12.02-8.71 -2.73-3.04-5.58-3.36-15.48-1.79 -6.61 1.05-12.31 1.14-14.72.22 -2.94-1.11-4.79-.73-7.05 1.47 -3.88 3.75-1.29 9.4 4.81 10.51 .04 0 .91-.45 1.94-1.01Zm-29.81-12.55c-17.97-3.05-30.23-23-23.05-37.5 2.97-6.01 5.81-5.69 3.36.38 -7.94 19.67 16.42 41.75 35.58 32.25 18.72-9.29 21.12-31.4 4.45-41.02 -.99-.57-2.43-1.41-3.2-1.87 -7.01-4.13-13.74-3.92-27.26.85 -4.31 1.51-4.82 1.66-5.44 1.6 -.57-.06-.36-.4 1.28-2.09 15.02-15.57 47.54-4.43 49.56 16.97 1.77 18.73-15.65 33.7-35.33 30.37v0Zm74.49-1.97c-22.61-2.29-36.25-23.96-25.65-40.75 14.11-22.36 46.62-19.41 55.97 5.07 6.93 18.18-9.7 37.74-30.33 35.66Zm10.49-5.33c16.25-3.24 22.85-21.11 12.97-35.18 -15.01-21.39-51.94-8.95-47.52 15.99 2.64 14.91 16.71 22.72 34.54 19.17Zm-26.27-12.17c-7.1-1.41-8.4-10.11-2.42-16.13 5.27-5.32 12.78-2.26 15.22 6.21 .76 2.63.28 3-3.63 2.81 -4.51-.23-4.87.18-2.03 2.32 2.25 1.68 2.92 2.54 2.44 3.12 -1.18 1.41-6.35 2.29-9.62 1.65v0ZM82 254.83c-6.81-1.16-8.1-7.3-2.73-12.98 4.15-4.4 8.8-4.82 12.47-1.14 7.48 7.51 1.59 16.03-9.75 14.11v0ZM26.99 73.03c0-.2.38-.86.85-1.48 1.17-1.55 1.7-2.63 1.7-3.52 0-.57.14-.79.57-.9 12.23-3 24.49-4.75 34.35-4.92 60.08-1.04 72.78-1.44 89.7-2.8 4.5-.37 4.58-.35 5.64 1.33 2.74 4.32-1.42 5.82-15.89 5.72 -23.12-.16-21.53-.09-27.46-1.28 -7.81-1.57-10.25-1.47-12.64.55 -.81.68-.81.68-3.47-.21 -6.62-2.22-13.19-2.26-27.47-.18 -4.93.71-10.52 1.41-12.43 1.55 -6.65.48-13.87 1.82-25.06 4.64 -7.22 1.82-8.47 2.02-8.47 1.42Z"/><path fill="#0C0E0E" d="M130.23 359.58c-33.47-1.85-50.11-4.67-66.61-11.27 -6.74-2.7-6.62-2.62-7.32-4.87 -4-12.79-9.13-33.74-13.25-54.09 -2.4-11.85-3.28-15.79-7.83-35.11 -11.28-47.89-14.66-72.43-9.98-72.43 1.1 0 1.43.94 3.48 10.1 8.25 36.92 17.31 70.85 24.68 92.45 2.08 6.11 1.77 5.65 3.72 5.49 2.07-.17 2.05-.21.99 2.19 -1.88 4.25-.72 7.15 4.9 12.24 3.16 2.86 3.15 3.19-.09 2.72 -2.57-.38-2.53-.42-1.89 1.88 .28 1.03 1.1 4.52 1.82 7.76 4.76 21.61 9.08 28.72 18.62 30.69 28.44 5.85 64.15 6.83 108.31 2.97 15.33-1.35 29.4-7.53 32.88-14.45 .76-1.53.73-1.59-.96-1.81 -2.65-.34-2.62-.53.31-1.8 4.37-1.89 5.74-3.33 5.79-6.13 .02-1.28.27-2.59.81-4.29 1.72-5.38 2.12-10.54 1.63-20.84 -.38-7.84-.29-11 .43-14.47 1.21-5.92 1.81-11.22 2.98-26.1 .35-4.58.98-10.86 1.39-13.95 .78-5.94 1.16-10.29 1.4-16 .66-16.09 1.15-21.83 2.33-27.5 .32-1.54.53-1.95 1.62-3.1 2.39-2.54 2.31-3.85-.5-8.12 -3.34-5.06-3.34-6.87-.01-10.51 1.55-1.7 1.64-4.71.52-17.32 -.83-9.35-.84-15.43-.02-15.63 .35-.09.77-.43.94-.77 .16-.34.48-.71.7-.84 .28-.16.4-.61.4-1.47 0-1.15.05-1.27.76-1.51 .42-.15.76-.45.76-.68 0-.23.27-.53.6-.68 .73-.34 1.31-1.93 1.1-2.99 -.16-.78.17-2.24 1.05-4.66 .4-1.13.54-2.37.68-6.15 .19-5.18.37-6.83 1.06-9.73 .55-2.33.56-17.86.02-23.93 -.34-3.79-7.33-5.22-12.51-2.55 -.86.43-21.58 2.89-37.6 4.45 -16.17 1.57-36.55 3.06-47.61 3.49 -2.47.09-4.7.24-4.96.34 -.27.09-1.08 0-1.8-.19 -2.41-.67-3.35-.79-5.09-.64 -1.65.13-1.73.11-1.73-.42 0-.85 2.45-.73-40.19-1.96 -38.93-1.12-62.49-2.44-82.8-4.62 -10.78-1.16-10.65-1.17-9.61.51 .71 1.16 2.04 2.3 3.61 3.09 1.54.78 1.46 1.02-.42 1.26 -1.85.23-1.83.1-.9 5.29 3.36 18.71 8.43 22.99 18.96 16.01 3.48-2.32 19.09-5.03 35.67-6.2 10.38-.74 27.57-1.39 27.21-1.04 -.35.34-10.06 1.52-24.28 2.94 -12.43 1.23-20.37 2.34-25.98 3.63 -1.27.28-3.31.61-4.53.72 -14.92 1.33-20.61 18.08-6.51 19.17 1.56.12 3.01.28 3.22.37 .21.08 1.89.43 3.75.77 4.76.87 5.26 1.24 3 2.2 -1.38.58-1.38.58-.04 1.45 1.72 1.11.59 1.01-4.04-.34 -12.93-3.79-15.68-4.07-12.51-1.27 1.49 1.32 1.42 1.52-.39.99 -.95-.28-1.45-.32-1.63-.14 -.29.28.37 5.36 2.23 17.31 .63 4.07-1.77-1.97-2.71-6.8 -2.92-15.08-7.54-29.45-8.81-27.4 -.59.95 1.12 9.71 3.71 18.97 2.63 9.44 3.82 15.28 3.82 18.77 0 5.83-5.71-17.03-8.43-33.77 -.58-3.52-1.67-10.26-2.44-14.98 -1.65-10.12-2.83-16.14-4.38-22.27C.23 86.07.29 86.3-.02 85.9c-1.02-1.3.07-4.87 2.24-7.36 5.27-6.04 18.83-9.86 18.83-5.31 0 2-2.88 3.37-10.37 4.95 -7.03 1.47-7.65 2.7-3.5 6.96 1.33 1.37 1.88 1.58 8.23 3.1 12.74 3.06 25.83 4.39 49.13 5 5.56.14 13.9.38 18.55.52 23.98.74 50.99.97 58.73.5 9.85-.61 11.69-.63 12.78-.13 .88.4 1.16.41 2.15.14 .62-.18 1.28-.24 1.45-.13 .17.1 1.36.29 2.64.4 1.28.11 2.87.28 3.53.36 1.24.16 3.2-.37 4.06-1.1 .32-.28.56-.29 1.15-.06 1.44.57 19.12.39 24.92-.26 16.74-1.88 36.55-6.45 43.14-9.96 .77-.42 5.85-1.65 9.19-2.24 3.81-.68 4.86-.92 6.22-1.46 1-.4 1.43-.47 1.64-.25 .71.71.84 15.24.18 19.87 -.15.98-.49 3.69-.78 6.01 -.29 2.32-1.03 6.75-1.66 9.85 -.95 4.68-2.37 13.05-2.84 16.76 -2.09 16.45-3.55 34.44-5.1 62.83 -1.9 34.78-2.59 44.62-4.35 62.19 -.34 3.37-.69 7.35-.78 8.82 -.64 10.36-2.39 24.9-5.26 43.56 -.86 5.54-1.02 7.2-1.02 10.54 0 17.74-6.4 27.5-19.21 29.32 -1.05.14-2.99.61-4.31 1.03 -13.75 4.4-33.82 7.17-58.14 8.04 -2.33.08-5.55.25-7.17.38 -4.28.34-10.91.46-14.59.25Zm-.86-3.35c2.59-.99-1.56-1.76-13.75-2.55 -2.19-.15-5.96-.49-8.37-.76 -10.6-1.22-17.21-1.24-15-.06 3.65 1.95 33.65 4.67 37.11 3.35v0Zm-61.08-13.05c0-4.49-8.65-32.86-11.68-38.33 -3.36-6.06-.18 12.73 4.08 24.12 3.29 8.8 7.59 16.84 7.59 14.2Zm-7.91-2.67c.11-6.07-.6-9.39-4.78-22.29 -2.94-9.04-3.71-11.77-4.48-15.71 -.68-3.47-1.01-3.84-2.27-2.51 -1.7 1.8-1.37 4.64 1.74 15.05 1.83 6.14 2.38 8.42 2.68 11.09 .5 4.46 4.07 14.23 5.96 16.33 .63.7 1.06-.08 1.1-1.99v0Zm-11.96-45.34c1.06-2.78-.34-11.75-3.73-23.88 -2.26-8.08-3.06-11.3-3.65-14.74 -.65-3.74-2.57-7.19-3.08-5.56 -.29.89 3.06 19.77 4.32 24.35 .21.77.68 3.76 1.04 6.65 1.26 10.08 3.77 16.56 5.07 13.15v0Zm57.22 23.77c-2.6-.2-8.71-1.22-14.98-2.51 -7.95-1.64-10.86-2.11-15.62-2.52 -3.59-.31-3.59-.31-3.66-1.08 -.26-2.62 2.45-2.62 11.2-.03 6.65 1.97 8.57 2.44 10.62 2.61 .98.08 2.65.37 3.71.63 2.05.52 6.98 1.22 13.18 1.87 5.34.56 6.01.67 5.37.92 -.5.19-7.51.23-9.86.06v0Zm23.16-11.64c-3.25-1.68-4.34-3.99-5.12-10.85 -.6-5.26-1.1-6.91-2.61-8.58 -1.14-1.26-2.98-2.25-4.58-2.47 -5.72-.79-2.05-9.46 7.29-17.25 1.75-1.47 3.96-3.39 4.89-4.26 1.98-1.86 2.59-2.03 7-1.98 10.99.13 22.52 9.06 26.21 20.32 .99 3.02 1.04 2.94-4.4 6.46 -6.11 3.95-7.45 6.43-6.33 11.66 1.13 5.27-2.79 7.54-9.49 5.51 -4.76-1.45-8.69-.99-10.3 1.18 -.65.87-1.23.91-2.63.19v0Zm16.94-2.91c7.14-2.99 4.77-18.29-2.63-16.91 -4.3.8-5.03 13.74-.93 16.43 1.32.87 2.28.99 3.54.47Zm-12.99-1.19c4.77-2.06 5.63-11.84 1.37-15.58 -2.06-1.81-5.43 1.09-6.09 5.24 -.07.42-.36 2.17-.65 3.89 -1.13 6.79.36 8.58 5.36 6.44v0Zm-7.34-17.6c4.36-2.39 8.21-2.55 17.5-.75 9.28 1.79 15.68 1.03 15.48-1.85 -.22-2.97-1.5-6.06-3.1-7.46 -3.07-2.7-5.65-2.82-18.46-.83 -5.15.79-10.4.46-12.87-.82 -1.55-.8-5.3 1.04-6.67 3.27 -3.13 5.07 2.84 11.28 8.08 8.42v0ZM96.3 272.77c-19.2-3.02-32.14-25.12-22.69-38.73 2.79-4.04 3.87-3.08 1.98 1.75 -8.02 20.53 16.56 42.2 36.42 32.11 18.88-9.6 20.22-31.88 2.51-41.62 -1.18-.65-2.72-1.51-3.42-1.92 -5.9-3.4-13.38-2.83-27.09 2.08 -4.66 1.66-4.77 1.6-2.03-1.09 9.97-9.8 29.83-8.4 41.04 2.89 18.21 18.35-.04 48.68-26.76 44.48Zm74.32-2.08c-21.45-1.83-35.62-21.51-27.32-37.98 12.9-25.62 49.59-21.64 57.58 6.25 4.5 15.73-12.22 33.24-30.28 31.71Zm3.89-4.37c22.08.63 31.64-24.16 15.42-40.01 -11.61-11.34-34.71-7.9-42.08 6.26 -7.93 15.22 4.54 34.99 21.34 33.84 1.4-.1 3.79-.15 5.3-.1Zm-21.23-13.12c-5.5-1.72-6.93-7.82-3.2-13.6 4.8-7.45 13.31-5.72 16.42 3.34 1.1 3.19.75 3.58-2.93 3.33 -4.64-.32-5.52.36-2.9 2.24 3.09 2.21 3.64 3.16 2.25 3.88 -2.09 1.07-7.36 1.5-9.67.78v0Zm-69.56 1.66c-6.88-.68-9.26-4.29-6.51-9.87 3.16-6.43 10.3-8.51 14.53-4.25 6.9 6.95 2.26 15.11-8.03 14.1ZM27.17 73.16c-.08-.13.37-.92.99-1.76 1.22-1.63 1.67-2.57 1.67-3.5 0-.56.29-.65 6.46-1.91 17.4-3.57 14.91-3.39 56.49-4.13 31.71-.57 48.45-1.2 62.18-2.35 3.73-.32 4.71.13 5.35 2.44 1.03 3.79-1.98 4.37-22.24 4.31 -17.23-.06-14.49.15-25.09-1.9 -4.44-.86-7.53-.42-9.07 1.27 -.62.68-.87.67-3.01-.1 -3.84-1.39-6.55-1.77-12.38-1.76 -5.6.01-6.28.08-18.3 1.85 -2.89.42-6.81.89-8.71 1.04 -8.25.64-16.8 2.26-29.66 5.62 -4.22 1.1-4.53 1.15-4.75.79Z"/></svg>