<svg viewBox="0 0 256 249" xmlns="http://www.w3.org/2000/svg"><path fill="#F39800" d="M208.72 153.42l-11.96 21.91 -39.36 28.39 -29.4 1.99v-72.24h82.19l-1.5 19.92Z"/><path fill="#3E3A39" d="M256 124.25c0 68.86-57.39 124.25-127.76 124.25C57.87 248.5-.01 193.1-.01 124.24 -.01 55.37 57.37-.02 127.74-.02c70.36 0 128.24 55.89 128.24 124.25v0ZM128.24 8.47C62.36 8.469 9.47 60.36 9.47 124.24c0 63.87 53.39 115.77 118.76 115.77s118.76-51.9 118.76-115.78 -53.4-115.78-118.77-115.78V8.44Zm83.83 120.76h-79.35v-52.9s-.5-4-4.5-4 -4.5 3.99-4.5 3.99v127.25c-42.42-2.5-77.35-36.93-77.35-79.35 0-42.42 35.43-79.85 82.83-79.85 21.95 0 35.92 7.48 46.9 14.97 8.48 5.48 16.96 14.47 20.95 20.95 .49.49 2.99 2.99 5.98.99 3.49-2 1.49-5.49 1.49-5.99 -16.47-23.96-44.42-39.93-75.86-39.93 -49.91 0-90.83 38.42-90.83 88.82 0 49.9 40.42 88.82 90.82 88.82 36.42 0 68.36-20.96 83.33-52.4 3.49-7.49 4.99-14.48 6.98-22.96 .49-4.5-1.5-8.49-6.99-8.49v0Zm-4.5 15.46c-6.99 23.45-20.47 36.42-30.45 43.41 -10.98 7.48-24.96 14.97-44.92 15.96v-66.37h76.84s-1 4.99-1.5 6.98v0Z"/></svg>