<svg viewBox="0 0 256 256" xmlns="http://www.w3.org/2000/svg"><path fill="#4A7EBF" d="M53.6 0c29.6 0 53.6 23.99 53.6 53.59 0 29.09-23.19 52.74-52.1 53.55 0 2.46.1 7.11 1.5 9.91 1.93 3.89 13.52 11.14 24.89 11.14v0h4.08c2.56-18.28 18.25-32.34 37.23-32.34 18.9 0 34.55 13.94 37.21 32.1v0h21.12c2.66-18.17 18.3-32.11 37.21-32.11 20.77 0 37.61 16.83 37.61 37.6 0 20.76-16.85 37.6-37.62 37.6 -18.91 0-34.56-13.95-37.22-32.12v0h-21.13c-2.67 18.16-18.31 32.11-37.22 32.11 -18.88 0-34.5-13.9-37.2-32.01v0l-4.52.13c-7.44-.06-15.29-2.05-21.6-6.33 -1.72-1.17-3.42-2.4-5.19-3.57v0l-.01 2.44c-.01.78-.16 12.65-.17 25.83l-.01 2.78c0 8.64.07 17.54.27 24.03 .44 14.24 12.03 25.74 24.82 28.43 1.66.34 4.52.39 6.32.23 2.57-18.27 18.25-32.33 37.23-32.33 20.77 0 37.61 16.83 37.61 37.6 0 20.76-16.85 37.6-37.62 37.6 -18.77 0-34.33-13.75-37.16-31.72v0h-3.26c-24.44-1.34-39.63-23.75-39.37-41.93 .33-22.88.08-45.77.07-68.65v0 -7.57C18.37 101.12-.18 79.44-.18 53.42c0-29.6 23.99-53.6 53.6-53.6Zm69.22 191.77c-14.71 0-26.62 11.91-26.62 26.61 0 14.69 11.91 26.61 26.61 26.61s26.62-11.92 26.62-26.62c0-14.7-11.92-26.62-26.63-26.62Zm-.001-84.92c-14.71 0-26.62 11.91-26.62 26.61 0 14.69 11.91 26.61 26.61 26.61s26.62-11.92 26.62-26.62c0-14.7-11.92-26.62-26.63-26.62Zm95.55 0c-14.71 0-26.62 11.91-26.62 26.61 0 14.69 11.91 26.61 26.61 26.61s26.62-11.92 26.62-26.62c0-14.7-11.92-26.62-26.63-26.62Zm15.16 15.4c2.09 2.08 2.15 5.44.17 7.6l-.17.16 -16.31 16.34c-2.08 2.08-5.42 2.15-7.58.19l-.18-.17 -7.99-7.86c-2.17-2.13-2.2-5.62-.07-7.78 2.07-2.11 5.43-2.19 7.6-.22l.16.16 4.09 4.02 12.45-12.48c2.14-2.16 5.62-2.16 7.77-.02Zm-95.99-.09c2.09 2.08 2.15 5.44.17 7.6l-.17.16 -16.31 16.34c-2.08 2.08-5.42 2.15-7.58.19l-.18-.17 -7.99-7.86c-2.17-2.13-2.2-5.62-.07-7.78 2.07-2.11 5.43-2.19 7.6-.22l.16.15 4.09 4.02 12.45-12.48c2.14-2.15 5.62-2.16 7.77-.02ZM53.57 10.95c-23.54-.001-42.61 19.07-42.61 42.59 -.001 23.52 19.07 42.59 42.6 42.59s42.6-19.08 42.6-42.6c0-23.53-19.08-42.6-42.61-42.6Zm-4.44 17.13c8.96 5.38 17.8 10.95 26.53 16.71 7.3 4.82 7.28 13.56-.1 18.39 -8.88 5.8-17.9 11.38-27.06 16.71 -7.46 4.33-15.8-.66-16.01-9.35 -.14-5.61-.03-11.22-.04-16.82 -.01-5.46-.12-10.92.01-16.37 .22-9.25 8.73-14.07 16.64-9.3Zm-5.91 8.87v3.86c-.01 1.91-.01 3.8-.01 5.67l-.01 3.71v5.48c0 4.23 0 8.39.01 12.55 0 1.95 1.02 1.87 2.34 1.06 7.6-4.72 15.21-9.43 22.82-14.13 1.25-.78 1.29-1.59.05-2.37 -8.16-5.14-16.32-10.26-25.24-15.87Z"/><g fill="#85B3DF"><path d="M133.22 223.87c3.03 0 5.49-2.47 5.49-5.5 0-3.04-2.47-5.5-5.5-5.5 -3.04 0-5.5 2.46-5.5 5.49 0 3.03 2.46 5.49 5.49 5.49"/><path d="M112.17 223.87c3.03 0 5.49-2.47 5.49-5.5 0-3.04-2.47-5.5-5.5-5.5 -3.04 0-5.5 2.46-5.5 5.49 0 3.03 2.46 5.49 5.49 5.49"/><path d="M218.38 245c-14.71 0-26.62-11.92-26.62-26.62 0-14.7 11.91-26.62 26.61-26.62s26.62 11.91 26.62 26.61c0 14.69-11.92 26.61-26.63 26.61m0-64.23c-18.91 0-34.56 13.94-37.22 32.11h-6.16c-2.69 0-4.87 2.46-4.87 5.49 0 3.03 2.17 5.49 4.86 5.49h6.15c2.66 18.16 18.3 32.11 37.21 32.11 20.77 0 37.61-16.84 37.61-37.61s-16.85-37.61-37.62-37.61"/></g></svg>