<svg viewBox="0 0 256 224" xmlns="http://www.w3.org/2000/svg"><path fill="#128379" d="M247.77 50.43c-1.06-2.75-4.22-4.01-6.75-2.96 -1.9.84-3.17 2.74-3.17 4.63 0 .63 0 1.26.42 1.68 4.85 12.86 7.59 26.78 7.59 41.54 0 59.67-44.5 109.23-102.28 116.61v-55.04c3.58-.64 6.95-1.69 10.33-2.75v46.18c47.02-11.39 82.24-53.99 82.24-105.02 0-40.7-22.57-76.34-55.89-94.69 -2.54-1.48-5.7-.43-6.96 2.31 -.43.63-.43 1.47-.43 2.31 0 1.89 1.05 3.58 2.53 4.42C205.55 26.3 226 58.57 226 95.47c0 41.54-25.73 76.96-62.21 91.3v-40.91c6.32-1.9 10.96-7.81 10.96-14.98 0-5.91-2.96-10.76-7.81-13.5 3.58-35.43 19.82-25.94 19.82-37.33v-6.54c0-16.87-39.02-71.91-57.36-73.18h-3.38c-18.35 1.26-57.36 56.3-57.36 73.17v6.53c0 11.17 16.02 1.89 19.82 37.32 -4.64 2.74-7.6 7.8-7.6 13.49 0 6.95 4.63 12.86 10.96 14.97v40.9c-36.28-14.34-62.21-49.77-62.21-91.31 -.001-36.91 20.45-69.17 50.6-85.83 2.31-1.27 3.37-4.22 2.1-6.75 -.64-1.9-2.54-2.96-4.43-2.96 -.85 0-1.69.21-2.54.63 -33.32 18.34-55.89 53.98-55.89 94.68 0 51.03 35.21 93.62 82.66 105.22V154.2c3.37 1.05 6.74 2.1 10.33 2.74v55.03c-57.78-7.6-102.28-56.94-102.28-116.83 -.001-14.56 2.74-28.47 7.59-41.55 1.05-2.54-.22-5.49-2.75-6.54 -.64-.22-1.27-.43-1.9-.43 -2.11 0-4.01 1.26-4.86 3.37C2.77 64.11-.18 79.3-.18 95.11c0 68.95 54.4 125.04 122.72 127.78v-64.74c1.89.21 5.27.21 5.27.21s3.37 0 5.27-.22v64.73c68.32-2.75 122.72-58.84 122.72-127.79 -.22-15.82-2.96-31-8.23-44.92v0Zm-96.16 72.96c1.89-1.9 4.42-3.17 7.38-3.17 2.95 0 5.48 1.26 7.38 3.16 1.89 1.89 3.16 4.42 3.16 7.38 0 2.95-1.27 5.48-3.17 7.38 -1.9 1.89-4.43 3.16-7.39 3.16s-5.49-1.27-7.39-3.17c-1.9-1.9-3.17-4.43-3.17-7.39s1.26-5.49 3.16-7.39v0Zm-47.24 14.76c-1.9 1.89-4.43 3.16-7.39 3.16s-5.49-1.27-7.39-3.17c-2.11-1.9-3.17-4.43-3.17-7.39s1.26-5.49 3.16-7.39c1.89-1.9 4.42-3.17 7.38-3.17 2.95 0 5.48 1.26 7.38 3.16 1.89 1.89 3.16 4.42 3.16 7.38 -.22 2.95-1.27 5.48-3.17 7.38v0Z"/></svg>