<svg viewBox="0 0 256 236" xmlns="http://www.w3.org/2000/svg"><path fill="#E24329" d="M128.07 236.07v0l47.1-144.98H80.96l47.1 144.97v0Z"/><path fill="#FC6D26" d="M128.07 236.07L80.96 91.09H14.94l113.11 144.97v0Z"/><path fill="#FCA326" d="M14.95 91.1v0L.63 135.15c-1.31 4.01.12 8.41 3.54 10.9l123.89 90.01L14.94 91.08v0Z"/><path fill="#E24329" d="M14.95 91.1h66.01L52.58 3.78c-1.46-4.5-7.82-4.5-9.28 0L14.93 91.09v0Z"/><path fill="#FC6D26" d="M128.07 236.07l47.1-144.98h66.01L128.06 236.06v0Z"/><path fill="#FCA326" d="M241.19 91.1v0l14.31 44.05c1.3 4.01-.13 8.41-3.55 10.9l-123.9 90.01L241.16 91.08v0Z"/><path fill="#E24329" d="M241.19 91.1h-66.02l28.37-87.32c1.45-4.5 7.81-4.5 9.27 0l28.36 87.31v0Z"/></svg>