<svg viewBox="0 0 512 133" xmlns="http://www.w3.org/2000/svg"><path fill="#6BBFA4" d="M169.19 104.13c0 21.25 17.98 25.78 17.98 25.78h41.1v-25.79h-59.09"/><path fill="#73BE88" d="M247.3 3.23h25.35v127.22h-25.36V3.22Z"/><path fill="#A3CC69" d="M385.42 130.46l-64.53-84.98 -.1 84.97h-25.36V3.22h23.71l64.61 84.97V3.21h25.44v127.22h-23.82"/><path fill="#ECE23C" d="M486.73 28.93c0-21.26-17.99-25.79-17.99-25.79h-41.1v25.78h59.08"/><path fill="#72736D" d="M169.19 104.13l-.03.67V3.13h-25.02v104.12c0 12.51 8.99 22.65 25.01 22.65l15.81-.01h2.18s-17.99-4.54-17.99-25.79v0Zm317.54-75.2l.02-.68v101.66h25.01V25.78c0-12.52-9-22.66-25.02-22.66l-15.82 0h-2.19s17.98 4.53 17.98 25.78v0ZM115.41 20.4L97.14 38.3c-7.27-8.36-17.64-13.36-30.72-13.36 -23.27 0-40.17 17.08-40.17 41.89 0 25.9 17.63 42.25 39.71 42.25 20.81 0 32.8-9.91 36.16-28.09H69.76V59.81h58.52c.27 2.45.36 4.72.36 7.17 0 38.53-26.09 65.7-62.17 65.7 -35.27 0-66.53-24.82-66.53-65.89C-.06 28.34 28.02.81 67.09.81c20.35 0 36.89 7.17 48.25 19.53v0Z"/></svg>