<svg viewBox="0 0 256 200" xmlns="http://www.w3.org/2000/svg" xmlns:xlink="http://www.w3.org/1999/xlink"><defs><linearGradient id="a" x1="48.679%" x2="48.679%" y1="-.001%" y2="99.392%"><stop offset="0%" stop-color="#E459FF"/><stop offset="100%" stop-color="#914DFF"/></linearGradient><linearGradient id="b" x1="23.626%" x2="65.81%" y1="46.645%" y2="51.387%"><stop offset="0%" stop-color="#F0A5FF"/><stop offset="100%" stop-color="#FF676B"/></linearGradient><linearGradient id="c" x1="50%" x2="50%" y1="-2.192%" y2="103.082%"><stop offset="0%" stop-color="#6E3BFF"/><stop offset="100%" stop-color="#3633FF"/></linearGradient><linearGradient id="d" x1="40.569%" x2="57.961%" y1="47.672%" y2="52.149%" xlink:href="#b"/></defs><g fill="url(#a)" fill-rule="evenodd"><path d="M77.63 16.54C53.47 11.68-3.31 36.41.14 64.15v0c8.59 2.55 16.07 5.67 14.85 8.87v0h236.32c1.42-9.47-6.01-16.72-.99-24.62v0c1.58-2.5 2.79-5.34 3.63-8.18v0V24.86c-.13-.12-.27-.21-.41-.29v0c-58.69 18.99-30.19 14.97-92.82 0v0C149.85 10.93 113.77 1.05 96.96-.06v0c-6.46 0-19.38 16.54-19.38 16.54"/><path fill="url(#b)" d="M155.51 64.97v7.26H15.12c.12 2.14-3.42 4.35-12.97 6.45v0c8.47 10.49 33.49 20.57 42.37 21.79v0c-1.59.33-3.36.92-5.23 1.72v0c28.4 3.57 61.98 4.78 78.67 5.13v0h55.09c-.6-.14-1.21-.27-1.84-.41v0c-12.26-2.31-7.36-.65-13.32-4.04v0c78.9-19 33.18-16.19 95.63-2.43v0c2.02-3.64-7.67-12.51-3.23-23.81v0c1.68-4.3 1.27-8.13.42-11.71v0h-95.27Z"/><path fill="url(#c)" d="M100.63 93.62v7.26c-13.2-.28-36-.43-57.53-.05v0C28.87 104.85 3.74 126.32.14 138.95v0 5.14c.11.26.24.52.4.77v0c7.5 2.23 14.16 4.89 14.91 7.66v0h105.74v-7.27h129.65c-1.36-6.02-4.11-11.32-.53-16.95v0c3.68-7.94 5.41-13.38 5.64-16.97v0 -1.6c-1.04-13.35-29.98 7.89-46.01 8.06v0c-18.16-3.24-14.53-5.65-38.75-10.9v0c-12.26-2.31-7.36-.65-13.32-4.04v0c14.99-3.62 25.49-6.44 33.09-8.55v0 -.74h-90.4Z"/><path fill="#974DFF" d="M90.94 36.31h.4c9.67 17.13 3.51 30.28-1.62 47.21v0c-1.45 3.42 3.76 6.07 5.24 2.42v0c4.11-15.74 10.62-33.03 2.82-48.83v0h.8c37.33.28 75.12 7.06 108.95 23.4v0c2.24.5 9.47 6.06 10.89 1.61v0c-16.3-19.28-79.71-30.25-106.54-29.47v0c-1.17.22-3.96-.14-7.16-.49v0c-2.51-.28-5.26-.56-7.68-.56v0c-4.5 0-7.81.96-6.17 4.67v0Z"/><path fill="#F1A5FF" d="M90.94 36.31h.4c5.83 11.03 7.32 24.51 1.61 35.91v0h5.64c2.93-11.45 3.92-23.72-1.22-34.71v0c37.78.11 76.11 6.29 110.16 23.4v0c2.23.39 9.89 6.46 10.89 1.61v0c-17.13-19.64-78.95-30.65-106.54-29.87v0c-1.34.25-4.1-.12-7.21-.5v0c-2.4-.29-5-.58-7.3-.58v0c-4.23 0-7.43.97-6.49 4.7v0Z"/><path fill="#974DFF" d="M76.42 38.33h.4c7.83 10.66 7.48 23.55 2.42 35.1v0c-1.7 2.8 2.52 5.61 4.03 2.42v0c2.83-5.98 4.78-12.74 4.84-19.38v0c.05-7.47-3.36-15.18-7.27-21.39v0c-.52-.93-1.26-1.31-2.02-1.31v0c-1.96 0-4 2.49-2.43 4.53v0Z"/><g fill="#F1A5FF"><path d="M84.89 72.23c2.34-9.77 4.07-20.15-1.22-29.46 -.74-1.53-2.92-5.95-2.83-7.67 -1.69-3.12-6.17-.02-4.44 2.82h.4c7.17 10.24 8.07 23.01 2.82 34.3h5.24Z"/><path d="M76.42 37.93h.4c7.17 10.24 8.07 23.01 2.82 34.3v0h5.24c2.34-9.77 4.07-20.15-1.22-29.46v0c-.74-1.53-2.93-5.95-2.83-7.67v0c-.51-.93-1.25-1.3-2-1.3v0c-1.8 0-3.66 2.12-2.45 4.12v0Z"/></g><path fill="url(#d)" d="M120.81 145.27v7.26H15.46c.61 2.27-2.76 4.62-12.9 6.86v0c19.54 18.99 43.86 24.98 65.36 20.17v0c3.36 15.15 31.67 23.82 50.44 17.75v0c.25-3.88-.44-7.76-2.02-11.3v0c26.24 4.46 90.28-15.67 93.62-17.36v0c3.02-.57 12.32 2.76 21.56 6.08v0c10.5 3.77 20.93 7.55 22.01 5.61v0c2.02-3.64-7.67-12.51-3.23-23.81v0c1.62-4.14 1.3-7.84.52-11.3v0H120.76Z"/><path fill="#373FFF" d="M90.94 117.02h.4c9.76 17.23 3.32 30.54-1.62 47.61v0c-1.45 3.43 3.76 6.07 5.24 2.42v0c4.41-15.55 10.45-32.79 2.82-48.43v0l.8-.4c37.32.3 75.15 6.45 108.95 23v0c2.24.5 9.47 6.06 10.89 1.61v0c-16.3-19.27-79.71-30.25-106.54-29.46v0c-1.17.22-3.96-.14-7.15-.49v0c-2.51-.28-5.27-.56-7.68-.56v0c-4.5 0-7.81.96-6.17 4.67v0Z"/><path fill="#F1A5FF" d="M90.94 117.02h.4c5.77 10.91 7.32 24.23 1.61 35.51v0h5.64c2.95-11.45 3.92-23.72-1.22-34.71v0c37.74.12 75.96 6.89 110.16 23.4v0c2.23.5 9.48 6.06 10.89 1.61v0c-16.3-19.27-79.71-30.26-106.54-29.46v0c-1.17.22-3.96-.14-7.15-.49v0c-2.51-.28-5.27-.56-7.68-.56v0c-4.5 0-7.81.96-6.17 4.67v0Z"/><path fill="#373FFF" d="M76.42 119.04h.4c7.83 10.66 7.48 23.55 2.42 35.1 -1.7 2.8 2.52 5.61 4.03 2.42 2.83-5.98 4.78-12.73 4.84-19.38 .15-7.68-3.68-15.21-7.27-21.8 -2-3.51-7.18.85-4.44 3.63"/><g fill="#F1A5FF"><path d="M84.89 152.53c1.04-6.61 3.53-13.32 2.01-20.18 -.21-4-10.21-27.66-11.3-13.73h1.21c7.24 10.24 8.07 22.99 2.82 34.3l5.24-.41Z"/><path d="M75.61 118.63h1.21c7.24 10.25 8.07 22.99 2.82 34.3v0l5.24-.41c1.04-6.61 3.53-13.32 2.01-20.18v0c-.16-3.11-6.23-18.08-9.45-18.08v0c-.93 0-1.62 1.23-1.86 4.34v0Z"/></g><path fill="#000" d="M43.73 41.16c6.01 0 10.89 4.87 10.89 10.89 0 6.01-4.88 10.89-10.9 10.89 -6.02 0-10.9-4.88-10.9-10.9 0-6.02 4.87-10.9 10.89-10.9"/><g fill="#FFF"><path d="M32.43 51.24v0c.22-6.47 5.63-11.52 12.09-11.3 6.46.22 11.51 5.64 11.29 12.09 -.22 6.29-5.39 11.29-11.69 11.29 -6.01.46-11.24-4.04-11.7-10.03 -.01-.03-.01-.05-.01-.07 .62 4.52 4.73 7.74 9.28 7.26 5.12 0 9.28-4.16 9.28-9.29 0-5.125-4.16-9.29-9.29-9.29 -5.125 0-9.29 4.15-9.29 9.28"/><path d="M37.27 51.24c1.77 0 3.22 1.44 3.22 3.22 0 1.78-1.45 3.22-3.23 3.22 -1.79 0-3.23-1.45-3.23-3.23 0-1.79 1.44-3.23 3.22-3.23"/></g><path fill="#000" d="M43.73 121.87c6.01 0 10.89 4.87 10.89 10.89 0 6.01-4.88 10.89-10.9 10.89 -6.02 0-10.9-4.88-10.9-10.9 0-6.02 4.87-10.9 10.89-10.9"/><g fill="#FFF"><path d="M32.43 131.55v0c.22-6.47 5.63-11.52 12.09-11.3 6.46.22 11.51 5.64 11.29 12.09 -.22 6.3-5.39 11.29-11.69 11.29 -6.01.46-11.24-4.03-11.7-10.03 -.01-.03-.01-.05-.01-.07 .41 4.66 4.54 8.09 9.2 7.67 .02-.01.04-.01.07-.01 5.12-.01 9.27-4.17 9.27-9.29 -.01-5.13-4.17-9.28-9.3-9.28 -4.97 0-9.05 3.91-9.27 8.87"/><path d="M37.27 131.96c1.77 0 3.22 1.44 3.22 3.22 0 1.77-1.45 3.22-3.23 3.22 -1.79 0-3.23-1.45-3.23-3.23 0-1.79 1.44-3.23 3.22-3.23"/></g></g></svg>