<svg viewBox="0 0 512 187" xmlns="http://www.w3.org/2000/svg"><path d="M124.6 80.87c6.27 37.3-88.97 50.92-53.11 78.23 11.26 8.57 22.76 2 21.02-11.3 -1.46-11.11 39.01-17.83 35.84-1.05 -4.16 21.99-26.34 39.36-45.57 39.36 -39.1 0-76.57-45.47-69.24-78.24 10.81-48.46 105.82-57.99 111.03-27.02Zm72.71-15.71c4.28 0 8.37.47 12.28 1.42 3.93.95 7.64 2.35 11.12 4.22L216.24 84c-1.96-1.08-4.2-2.13-6.27-2.87 -3.54-1.19-7.09-1.79-10.66-1.79 -6.62 0-11.72 2.18-15.31 6.56 -3.57 4.34-5.35 10.57-5.35 18.69 0 8.04 1.72 14.25 5.17 18.63 3.44 4.37 8.63 6.56 14.7 6.56 6.16 0 9.98-1.56 12.02-3.2v-13.16h-13.36v-13.14h25.87v36.56c-8.21 6.89-20.25 7.12-25.95 7.12l-.75 0c-10.73 0-19.22-3.54-25.49-10.6 -6.27-7.1-9.4-16.71-9.4-28.83 0-12.26 3.19-21.9 9.57-28.93 6.38-7.03 15.12-10.55 26.21-10.55Zm137.12 0c10.34 0 18.45 3.49 24.32 10.48 5.86 6.99 8.79 16.65 8.79 28.98 0 12.29-2.93 21.92-8.8 28.92 -5.87 6.99-13.98 10.48-24.33 10.48 -10.32 0-18.42-3.5-24.31-10.49 -5.87-7-8.82-16.64-8.82-28.93 0-12.33 2.94-21.99 8.81-28.99 5.66-6.73 13.36-10.23 23.11-10.49 .39-.02.78 0 1.18 0Zm65.14 1.36l14.66 47.46 14.74-47.47h17.85l8.06 76.03h-15.7l-4.85-47.55 -14.84 47.77h-10.53l-14.84-49.39 -4.85 49.15h-15.74l8.06-76.04h17.9Zm-154.67 0l33.09 45.69v-45.7h14.12v76.03h-10.48l-33.1-45.7v45.69H234.4V66.49h10.47Zm266.12 0v14.82h-28.2v15.77h21.67v13.2h-21.68v17.41h29.14v14.82H466.2V66.5H511ZM334.18 79.34l-.24 0c-4.84.13-8.6 2.33-11.3 6.61 -2.79 4.41-4.2 10.64-4.2 18.65 0 7.97 1.4 14.16 4.19 18.57 2.78 4.41 6.69 6.63 11.75 6.63 5.08 0 9.03-2.23 11.81-6.64 2.78-4.42 4.19-10.6 4.19-18.58 0-8.02-1.41-14.25-4.2-18.66 -2.79-4.42-6.74-6.62-11.82-6.62l-.24-.01Zm-316.2-3.12C9.73 79.84-9.01 56.44 5.01 46.76c14.02-9.69 21.21 25.82 12.96 29.45Zm23.24-18.59c-9.82 2-24.67-27.83-7.16-35.06 17.51-7.23 16.97 33.05 7.15 35.05Zm94.2-57.68c38.72 0-2.43 55.15-24.21 55.15 -21.79 0-14.52-55.16 24.2-55.16Zm-64.3 48.31c-11.61-.71-19.27-38.61 2.52-41.44 21.79-2.83 9.07 42.14-2.53 41.43Z"/></svg>