<svg viewBox="0 0 512 173" xmlns="http://www.w3.org/2000/svg"><path fill="#0093DD" d="M508.58 87.94v10.68c-7.93-5.4-15.76-8.09-23.52-8.09 -8.43 0-15.24 2.86-20.42 8.59 -3.25 3.58-5.46 7.52-6.64 11.81 -1.48 5.18-2.22 10.91-2.22 17.19 0 12.93 2.9 22.56 8.72 28.88 4.88 5.35 11.31 8.02 19.27 8.02 4.63 0 9.07-1.21 13.33-3.61v-33.69c0-1.56-.17-2.95-.51-4.18h15.04c-.34 1.3-.51 2.69-.51 4.17v33.18c.04 1.93.31 3.66.82 5.18 -7.76 2.52-13.42 4.15-17.01 4.86 -3.54.71-7.8 1.07-12.77 1.07 -8.98 0-16.31-1.61-22-4.81 -6.83-3.84-11.95-9.46-15.36-16.88 -3-6.49-4.49-13.97-4.49-22.44 0-15.05 4.67-26.63 14.03-34.77 7.54-6.62 17.54-9.93 30.02-9.93 7.58 0 15.63 1.55 24.14 4.67v0Zm-116.1 45.75v32.92c0 1.22.21 2.61.63 4.17h-15.62c.37-1.31.56-2.7.56-4.18V88.73c0-1.56-.19-2.98-.57-4.24h27.61c6.74 0 12.45 1.34 17.12 4.04 7.16 4.21 10.74 10.8 10.74 19.78 0 9.94-4.37 17.1-13.09 21.48 -5.1 2.57-11.19 3.85-18.27 3.85h-9.17Zm0-6.64h7.71c4.21 0 7.6-.76 10.17-2.28 2.44-1.48 4.38-3.67 5.81-6.58 1.43-2.91 2.14-6.14 2.14-9.67 0-5.48-1.52-9.78-4.56-12.9 -3-3.17-7.13-4.75-12.39-4.75h-8.92v36.15 0Zm-45.83 43.73v-9.23c-2.41 3.28-4.72 5.64-6.96 7.07 -3.54 2.23-7.99 3.34-13.34 3.34 -7.21 0-12.75-2.05-16.63-6.14 -3.21-3.38-4.81-8.24-4.81-14.6v-43.74c0-1.44-.17-2.81-.51-4.11h14.22c-.34 1.17-.51 2.54-.51 4.1v42.28c0 3.62.86 6.5 2.59 8.65 2.27 2.73 5.68 4.1 10.23 4.1 4.59 0 8.3-1.31 11.12-3.92 2.86-2.66 4.29-6.09 4.29-10.31v-40.83c0-1.48-.17-2.85-.51-4.11h14.22c-.34 1.09-.51 2.46-.51 4.1v59.09c0 1.34.16 2.73.5 4.17h-13.47v0ZM232.13 103.4h13.46v9.41c2.02-3.17 4.06-5.48 6.13-6.96 3.87-2.7 8.78-4.05 14.72-4.05 7.66 0 13.48 2.33 17.44 7.01 2.52 2.99 3.79 7.16 3.79 12.51v45.25c0 1.39.16 2.78.5 4.17h-14.23c.33-1.06.5-2.45.5-4.18v-43.3c0-3.84-1.12-6.81-3.35-8.92 -2.24-2.11-5.42-3.17-9.55-3.17 -5.15 0-9.02 1.43-11.63 4.29 -2.74 3.03-4.11 6.93-4.11 11.69v39.37c0 1.47.16 2.86.5 4.17h-14.23c.33-1.23.5-2.62.5-4.18v-59.1c0-1.44-.17-2.81-.51-4.11v0Zm-18.59-15.49v10.68c-7.93-5.4-15.76-8.09-23.52-8.09 -8.43 0-15.24 2.86-20.42 8.59 -3.25 3.58-5.46 7.52-6.64 11.81 -1.48 5.18-2.22 10.91-2.22 17.19 0 12.93 2.9 22.56 8.72 28.88 4.88 5.35 11.31 8.02 19.27 8.02 4.63 0 9.07-1.21 13.33-3.61v-33.69c0-1.56-.17-2.95-.51-4.18h15.04c-.34 1.3-.51 2.69-.51 4.17v33.18c.04 1.93.31 3.66.82 5.18 -7.76 2.52-13.42 4.15-17.01 4.86 -3.54.71-7.8 1.07-12.77 1.07 -8.98 0-16.31-1.61-22-4.81 -6.83-3.84-11.95-9.46-15.36-16.88 -3-6.49-4.49-13.97-4.49-22.44 0-15.05 4.67-26.63 14.03-34.77 7.54-6.62 17.54-9.93 30.02-9.93 7.58 0 15.63 1.55 24.14 4.67v0ZM-.02 83.01h9.1V55.6C9.08 24.87 33.99-.05 64.72-.05c30.72 0 55.64 24.91 55.64 55.64v27.13c-.14.09-.27.18-.4.27h0l-.09.05 -.01 0 -.01 0 -.01 0 -.05.02 -.05.03 -.01 0 -.06.03 -.01 0 -.03.01 -.02 0 -.03.01 -.01 0 -.04.02h-.01l-.04.02 -.05.02 -.03.01 -.02.01 -.02 0 -.06.03 -.05.03 -.01 0 -.07.04 -.02 0 -.08.05 -.01 0 -.04.02 -.01 0 -.02 0 -.11.06 -.02.01 -.03.01 -.01 0 -.01 0 -.06.03 -.01 0 -.01 0 -.01 0 -.06.03 -.02 0 -.02.01 -.02.01 -.02 0 -.04.02 -.03.01 -.01 0 -.04.02 -.01 0 -.03.01 -.01 0 -.03.01 -.02 0 -.02.01 -.02.01 -.02 0 -.17.1 -.04.02 -.01 0 -.1.05 -.01 0 -.11.06 -.01 0 -.01 0 -.03.01 -.01 0 -.03.01 -.01 0 -.03.01 -.03.01 -.01 0 -.02 0 -.05.02 -.03.01 -.04.02 -.1.05 -.1.05 -.11.05 -.11.05 -.21.11 -.11.05 -.11.05 -.05.02 -.27.15 -.11.05 -.11.05 -.11.06 -.14.07 -.18.1 -.11.06 -.42.23 -.02 0 -.11.06 -.11.06 -.03.01 -.15.08 -.33.17 -.16.08c-.16.08-.32.17-.48.25l-.05.02 -.08.03 -.24.12 -.12.06 -.02.01 -.22.11 -.01 0 -.12.06 -.04.01 -.21.1 -.12.06 -.12.05c-.15.07-.31.15-.46.23l-.13.06c-.18.09-.37.18-.55.27l-.01 0c-.18.08-.36.17-.53.26l-.18.08c-.2.09-.39.18-.59.28H110c-11.06 5.27-28.78 10.89-62.42 13.31 -24.11 1.73-38.72 12.33-48.25 25.14V82.44h.01Zm34.73 0h60.02V55.6c0-16.58-13.45-30.02-30.02-30.02 -16.58 0-30.02 13.44-30.02 30.01v27.4Zm77.75 4.32c-.18.09-.37.18-.55.27m-22-74.19c-7.14-4.27-15.48-6.72-24.4-6.72 -24.44 0-44.58 18.41-47.32 42.11 7.16-22.42 28.16-38.65 52.94-38.65 6.58 0 12.9 1.14 18.76 3.25Zm39.54 80.08v78.54H18.65c12.21-6.8 21.31-6.1 36.39-5.63 20.53.64 43.21-7.96 54.37-19.34 11.15-11.39-1.01-2.7-13.65.5s-37.08 3.54-53.42-.76c51.46.7 71.48-15.95 82.86-30.86 11.37-14.91-4.92-2.59-15.48 2.55s-28.97 8.81-49.21 6.13c30.63-.07 53.94-15.38 68.89-31.18v0Z"/></svg>