<svg viewBox="0 0 512 192" xmlns="http://www.w3.org/2000/svg"><path fill="#00ACD7" d="M292.53 13.29l1.12.75c13.21 8.72 22.68 20.69 28.91 35.14 1.49 2.24.49 3.48-2.5 4.23l-5.07 1.29c-11.45 2.94-20.54 5.42-31.83 8.37l-6.45 1.67c-2.33.57-2.97.33-5.43-2.48l-.35-.4c-3.52-3.99-6.16-6.66-10.82-9.04l-.9-.45c-15.71-7.73-30.92-5.49-45.13 3.73 -16.96 10.96-25.68 27.17-25.43 47.36 .24 19.94 13.95 36.39 33.65 39.13 16.95 2.24 31.16-3.74 42.37-16.46 2.24-2.75 4.23-5.74 6.73-9.23h-48.12c-5.24 0-6.49-3.25-4.74-7.48l.86-2.04c3.2-7.46 8.17-18.17 11.4-24.3l.7-1.32c.86-1.5 2.61-3.52 5.97-3.52l80.22-.01c3.6-11.42 9.44-22.21 17.24-32.41 18.19-23.94 40.13-36.4 69.79-41.64 25.42-4.49 49.35-2 71.04 12.71 19.69 13.46 31.9 31.65 35.14 55.59 4.23 33.65-5.49 61.07-28.67 84.5 -16.46 16.7-36.65 27.17-59.83 31.9 -6.74 1.24-13.47 1.49-19.95 2.24 -22.69-.5-43.38-6.98-60.83-21.94 -12.28-10.61-20.73-23.65-24.93-38.83 -2.92 5.88-6.41 11.52-10.48 16.89 -17.95 23.68-41.39 38.38-71.05 42.37 -24.43 3.24-47.12-1.5-67.06-16.46 -18.45-13.96-28.92-32.41-31.66-55.35 -3.25-27.18 4.73-51.61 21.18-73.05 17.69-23.19 41.13-37.9 69.79-43.13 22.99-4.16 45.03-1.6 64.93 11.46v0Zm118.58 35.72l-.8.17c-23.19 5.23-38.15 19.94-43.63 43.37 -4.49 19.44 4.98 39.13 22.93 47.11 13.71 5.98 27.42 5.23 40.63-1.5 19.69-10.23 30.41-26.18 31.65-47.62 -.25-3.25-.25-5.74-.75-8.23 -4.44-24.41-26.67-38.33-50.06-33.34v0ZM116.4 94.55c.99 0 1.49.74 1.49 1.74l-.5 5.98c0 .99-1 1.74-1.75 1.74l-54.35-.25c-1 0-1.25-.75-.75-1.5l3.48-6.24c.49-.75 1.49-1.5 2.49-1.5h49.85Zm5.48-22.94c.99 0 1.49.74 1.24 1.49l-2 5.98c-.25.99-1.25 1.49-2.25 1.49L.95 80.81c-1 0-1.25-.5-.75-1.25l5.23-6.74c.49-.75 1.74-1.25 2.74-1.25h113.67Zm12.96-22.94c.99 0 1.24.74.74 1.49l-4.24 6.48c-.5.74-1.75 1.49-2.5 1.49l-90.25-.25c-1 0-1.25-.5-.75-1.25l5.23-6.74c.49-.75 1.74-1.25 2.74-1.25h88.99Z"/></svg>