<svg viewBox="0 0 256 242" xmlns="http://www.w3.org/2000/svg"><path fill="#FFF" d="M240.33 202.85s-.38 2.28-.6 2.26l-41.55-4.01c-3.31-.32-5.88-2.96-6.11-6.27l-1.15-16.36 -32.15-2.3 -2.19 14.82c-.49 3.29-3.37 5.78-6.71 5.78h-43.86c-3.34 0-6.22-2.49-6.7-5.79l-2.19-14.83 -32.15 2.29 -1.15 16.35c-.24 3.31-2.8 5.95-6.11 6.26l-41.57 4c-.22.02-.38-2.28-.59-2.28l-.06-9 35.2-5.68 1.15-16.51c.23-3.35 2.92-6.05 6.27-6.29l44.26-3.16c.16-.02.33-.02.49-.02 3.32 0 6.2 2.48 6.68 5.78l2.24 15.25h32.15l2.24-15.26c.48-3.3 3.36-5.79 6.69-5.79 .16 0 .32 0 .48.01l44.27 3.15c3.34.23 6.04 2.94 6.27 6.28l1.15 16.5 35.18 5.7 -.06 8.96Z" transform="translate(2.84217e-14 367.351) scale(1-1)"/><path fill="#478CBF" d="M101.96 0c-11.7 2.6-23.27 6.21-34.11 11.67 .24 9.57.86 18.75 2.12 28.07 -4.22 2.69-8.64 5.01-12.58 8.17 -4 3.07-8.09 6.01-11.7 9.61 -7.24-4.79-14.89-9.28-22.77-13.25 -8.5 9.14-16.45 19.01-22.94 30.06 4.88 7.9 9.98 15.3 15.48 22.33h.15v67.79c.12 0 .24 0 .37.01l41.56 4c2.17.21 3.88 1.96 4.03 4.14l1.28 18.34 36.25 2.58 2.49-16.94c.32-2.2 2.2-3.83 4.42-3.83h43.85c2.21 0 4.1 1.62 4.42 3.82l2.49 16.93 36.25-2.59 1.28-18.35c.15-2.19 1.85-3.94 4.03-4.15l41.54-4.01c.12-.02.24-.02.37-.02v-5.42l.01-.01V96.56h.15c5.5-7.03 10.6-14.44 15.48-22.34 -6.49-11.05-14.44-20.92-22.94-30.07 -7.89 3.96-15.54 8.46-22.77 13.24 -3.62-3.6-7.7-6.54-11.7-9.62 -3.94-3.16-8.37-5.48-12.57-8.18 1.25-9.33 1.87-18.5 2.12-28.08C177.17 6.05 165.6 2.43 153.9-.17c-4.68 7.85-8.95 16.35-12.67 24.66 -4.42-.74-8.85-1.02-13.29-1.07v-.01c-.04 0-.06 0-.09 0s-.06-.01-.09-.01v0c-4.45.05-8.88.32-13.29 1.06 -3.72-8.32-7.99-16.82-12.67-24.67h-.01Zm-86.4 173.45c.01 4.01.06 8.41.06 9.29 0 39.47 50.07 58.44 112.28 58.66h.15c62.21-.22 112.26-19.2 112.26-58.67 0-.9.05-5.28.07-9.3l-37.36 3.6 -1.29 18.44c-.16 2.22-1.93 3.99-4.15 4.15l-44.28 3.15c-.11 0-.22.01-.33.01 -2.21 0-4.1-1.62-4.43-3.83L146 181.73h-36.13l-2.54 17.21c-.35 2.31-2.42 3.98-4.75 3.81l-44.28-3.16c-2.23-.16-4-1.93-4.15-4.16l-1.29-18.45 -37.38-3.61v0Z" transform="translate(2.84217e-14-2.84217e-14)"/><path fill="#FFF" d="M69.07 99.17c-13.83 0-25.05 11.2-25.05 25.03 0 13.83 11.21 25.04 25.04 25.04 13.83 0 25.04-11.22 25.04-25.05 0-13.84-11.22-25.04-25.05-25.04v0Zm117.84 0c-13.84 0-25.05 11.2-25.05 25.03 0 13.83 11.21 25.04 25.04 25.04 13.82 0 25.04-11.22 25.04-25.05 0-13.84-11.22-25.04-25.05-25.04Zm-58.93 14.65c-4.46 0-8.07 3.28-8.07 7.32v23.05c0 4.04 3.6 7.32 8.06 7.32 4.45 0 8.07-3.29 8.07-7.33v-23.06c0-4.05-3.62-7.33-8.08-7.33Z" transform="translate(2.84217e-14-2.84217e-14)"/><path fill="#414042" d="M71.47 109.07c-9.19 0-16.63 7.44-16.63 16.62 0 9.17 7.44 16.61 16.62 16.61s16.62-7.44 16.62-16.62 -7.45-16.63-16.63-16.63Zm113.04 0c-9.18 0-16.62 7.44-16.62 16.62 0 9.17 7.43 16.61 16.61 16.61s16.62-7.44 16.62-16.62 -7.44-16.63-16.63-16.63v0Z" transform="translate(2.84217e-14-2.84217e-14)"/></svg>