<svg viewBox="0 0 256 256" xmlns="http://www.w3.org/2000/svg" xmlns:xlink="http://www.w3.org/1999/xlink"><defs><linearGradient id="a" x1="63.1%" x2="28.874%" y1="29.811%" y2="83.709%"><stop offset="0%" stop-color="#087CFA"/><stop offset="2%" stop-color="#0D7BFA"/><stop offset="37%" stop-color="#5566F9"/><stop offset="66%" stop-color="#8A57F8"/><stop offset="88%" stop-color="#AB4EF7"/><stop offset="100%" stop-color="#B74AF7"/></linearGradient><linearGradient id="b" x1="49.124%" x2="74.872%" y1="38.464%" y2="4.95%" xlink:href="#a"/><linearGradient id="c" x1="13.895%" x2="86.031%" y1="71.062%" y2="34.549%"><stop offset="0%" stop-color="#087CFA"/><stop offset="10%" stop-color="#1598D3"/><stop offset="22%" stop-color="#23B6AA"/><stop offset="35%" stop-color="#2DCC8B"/><stop offset="46%" stop-color="#35DD74"/><stop offset="57%" stop-color="#39E767"/><stop offset="67%" stop-color="#3BEA62"/></linearGradient></defs><path fill="url(#a)" d="M225.49 99.01l30.5 67.65 -52.22 89.33 -32.16-78.08Z"/><path fill="#B74AF7" d="M171.62 177.92L203.78 256l-80.91-27.82Z"/><path fill="url(#b)" d="M180.34 72.29L163.75-.01l-91.98 0L-.02 109.8l20.77 50.45L-.03 206.3 148.63 79.82Z"/><path fill="url(#c)" d="M256 54.34L148.66 79.83 -.01 206.31l95.89 49.68 75.73-78.08Z"/><path d="M48 48l160 0 0 160 -160 0Z"/><path fill="#FFF" d="M63.01 178h60v10h-60v-10Zm-4.51-75.84v-.19c-.04-9.13 3.62-17.88 10.13-24.28 6.51-6.4 15.32-9.9 24.45-9.7 9.49-.51 18.81 2.74 25.94 9.04l-9.15 11.04c-4.64-4.44-10.84-6.86-17.26-6.75 -10.46 0-18.63 8.96-18.96 19.86l-.01.85c0 11.84 7.97 20.59 19.32 20.92l.67 0c4.85.14 9.63-1.25 13.65-3.98v-9.5H92.66V96.93h28.61v28.64c-7.83 6.78-17.84 10.5-28.19 10.48 -20.51 0-34.65-14.43-34.65-33.95Zm68.96 0v-.19c.03-9.22 3.78-18.02 10.41-24.42 6.62-6.4 15.55-9.85 24.76-9.56 20.05 0 34.53 14.73 34.95 33.1l0 .99c.01 9.23-3.73 18.07-10.35 24.5 -6.39 6.2-14.94 9.65-23.82 9.63l-.99-.02c-20.38-.14-34.99-15.31-34.99-34.08Zm54.96 0v-.19c.16-5.41-1.87-10.66-5.63-14.55 -3.77-3.89-8.94-6.09-14.35-6.11 -5.38-.02-10.52 2.15-14.25 6.01 -3.55 3.66-5.53 8.55-5.56 13.63l.01.99c-.19 5.42 1.83 10.7 5.6 14.61 3.76 3.91 8.96 6.12 14.39 6.13 5.38.01 10.54-2.18 14.27-6.06 3.73-3.89 5.71-9.13 5.48-14.51Z"/></svg>