<svg viewBox="0 0 256 216" xmlns="http://www.w3.org/2000/svg"><path fill="#EA4335" d="M55.57.51C69.95-1.36 84.9 1.84 97.21 9.52c6.95 4.09 12.5 10.02 18.21 15.64 4.13 4.04 8.22 8.14 12.37 12.18l.15.42c-3.1 3.04-6.62 9.14-10.55 18.29 -8.25 2.9-13.88 5.82-16.89 8.78 -6.72-6.47-13.22-13.16-19.91-19.66 -6.37-5.96-15.98-8.36-24.31-5.63 -9.49 2.66-16.73 11.74-17.23 21.58 -.33 5.12 1 10.32 3.78 14.64 1.72 2.78 4.24 4.9 6.5 7.22 5.42 5.45 10.98 10.78 16.33 16.31 -2.86 2.8-6.24 8.23-10.15 16.29 -8.31 3.93-14.08 7.51-17.3 10.74 -7.22-6.79-14.12-13.94-21.28-20.81C8.41 96.64 2.71 85.15.75 73.02 -1.42 60 .64 46.3 6.66 34.56c5.05-9.85 12.71-18.41 22.02-24.41 8.09-5.1 17.26-8.66 26.8-9.73Z"/><path fill="#34A853" d="M128.08 160.77l62.4-61.51 16.87 10.02 10.55 17.15 -89.84 88.87 -62.33-61.66 11.95-16.83 15.64-10.42Z"/><path fill="#FBBC05" d="M100.59 64.91l15.69 8.49 11.79 18.76 -62.33 61.5 -27.49-27.29Z"/><path fill="#4285F4" d="M203.33.89c18.28 3.09 35.1 14.51 44.32 30.67 10.5 17.74 11.07 40.77 1.75 59.13 -3.87 7.88-9.77 14.54-16.04 20.59 -5.22 4.98-10.16 10.29-15.46 15.15 -9.17-9.04-18.35-18.07-27.44-27.19 6.47-6.55 13.05-12.98 19.55-19.5 4.18-4.24 6.81-10.04 7.02-16.02 .28-6.79-2.39-13.67-7.31-18.37 -5.01-4.75-12.03-7.44-18.94-6.87 -5.95.28-11.68 2.97-15.87 7.17 -15.64 15.47-31.24 30.98-46.89 46.44 -9.21-9.05-18.42-18.09-27.5-27.26 -.02-.02-.04-.05-.06-.07 9.16-9.01 18.27-18.07 27.42-27.08 6.63-6.54 13.24-13.1 19.88-19.65 8.59-8.64 19.93-14.3 31.77-16.9 7.8-1.47 15.85-1.64 23.7-.35Z"/></svg>