<svg viewBox="0 0 256 228" xmlns="http://www.w3.org/2000/svg"><defs><radialGradient id="a" fr="0%" fx="21.659%" fy="28.707%" cx="21.659%" cy="28.707%" r="82.869%" gradientTransform="translate(.216598.287076)"><stop offset="0%" stop-color="#F1F2F2"/><stop offset="100%" stop-color="#E6E7E8"/></radialGradient></defs><path fill="#737373" d="M165.97 0L90.01 0 71.08 19.05l0 18.92 18.92 0 0-18.93 75.95 0 0 18.92 18.92 0 0-18.93Z"/><path fill="#BFBFBF" d="M90.02 0l0 19.05 75.95 0 0-19.06Z"/><path fill="url(#a)" d="M36.4 37.97L-.01 74.37v134.17c0 10.51 8.54 18.92 18.92 18.92h218.15c10.51 0 18.92-8.55 18.92-18.93V74.48l-36.54-36.54H36.37Z"/><path fill="#FFF" d="M28.51 109.07l199.09 0 0 118.53 -199.1 0Z"/><path fill="#E0E0E0" d="M36.4 37.97L-.01 74.37l0 34.69 256 0 0-34.57 -36.54-36.54Z"/><path fill="#D1D1D1" d="M42.71 213.28l85.28 0 0 14.19 -85.29 0Z"/><path fill="#4285F4" d="M28.51 86.99c0-8.15 6.57-14.72 14.71-14.72h169.52c8.14 0 14.71 6.57 14.71 14.71v22.07H28.48V86.97Z"/><path fill="#E6E6E6" d="M56.9 90.15c0 3.94-3.16 7.09-7.1 7.09 -3.95 0-7.1-3.16-7.1-7.1 0-3.95 3.15-7.1 7.09-7.1s7.09 3.15 7.09 7.09m23.65 0c0 3.94-3.16 7.09-7.1 7.09 -3.95 0-7.1-3.16-7.1-7.1 0-3.95 3.15-7.1 7.09-7.1s7.09 3.15 7.09 7.09"/><path fill="#BABABA" d="M227.48 165.19l-29.84-29.84 -9.99 30.88 -40.74-40.61 -1.19 62.68 15.11 23.65c2.23-.4-11.31 15.5-11.31 15.5h77.93v-62.3Z"/><path fill="#4D4D4D" d="M208.82 164c0-16.83-9.86-31.28-23.92-38.25v39.95l-18.8 10.11 -19.06-10.12V125.6c-14.07 6.96-23.66 21.55-23.66 38.24 0 16.82 9.72 31.27 23.78 38.24v25.36H185v-25.37c13.93-6.84 23.78-21.43 23.78-38.12"/><path fill="#D1D1D1" d="M42.71 123.26l66.36 0 0 75.82 -66.37 0Z"/></svg>