<svg viewBox="0 0 256 274" xmlns="http://www.w3.org/2000/svg"><path fill="#FFD900" d="M188.81 178.87c32.45-17.83 57.06-31.41 59.18-32.46 6.78-3.61 13.79-13.16 0-20.58 -4.46-2.34-28.43-15.5-59.19-32.46l-42.65 43.06 42.64 42.43Z"/><path fill="#F43249" d="M146.17 136.44L10.39 273.28c3.18.42 6.78-.43 11.02-2.76 8.9-4.88 103.31-56.44 167.39-91.65l-42.65-42.45Z"/><path fill="#00EE76" d="M146.17 136.44l42.64-42.86s-157.85-86.14-167.4-91.23C17.81.21 13.78-.42 10.17.21l135.98 136.2Z"/><path fill="#00D3FF" d="M146.17 136.44L10.18.23C4.66 1.5-.01 6.38-.01 16.35c0 15.91 0 227.64 0 240.8 0 9.12 3.6 15.7 10.39 16.33l135.77-137.06Z"/></svg>