<svg viewBox="0 0 256 256" xmlns="http://www.w3.org/2000/svg"><path fill="#FBBC04" d="M122.16.4c3.68-.31 7.27-.41 10.95-.41 66.66 2.45 120.21 55.91 122.88 122.57v100.65c-.11 18.22-14.96 32.87-33.08 32.76 -16.59-2.57-29.29-16.08-30.83-32.77V122.54c-2.77-35.13-33.49-61.44-68.61-58.68 -.41 0-.82.1-1.23.1"/><path fill="#4285F4" d="M256 223.94c0 17.61-14.34 31.94-31.95 31.94 -17.62 0-31.95-14.34-31.95-31.95 0-17.62 14.33-31.95 31.94-31.95s31.94 14.33 31.94 31.94Z"/><path fill="#EA4335" d="M124 254.87c18.12.2 32.97-14.24 33.17-32.36 0-.11 0-.11 0-.21 -.52-17.62-15.26-31.54-32.88-31.03 -.21 0-.52 0-.72 0 -34.92-2.67-61.24-32.98-58.78-68v-.52c2.56-31.54 27.64-56.43 59.18-58.78 17.61.71 32.46-13.01 33.17-30.62 0-.21 0-.31 0-.52C156.93 14.7 142.08.06 123.96.26c0-.001 0-.001 0-.001h-2.26C53.8 3.42.35 59.13-.06 127.12v.51c0 79.76 69.93 127.28 122.06 127.28h1.94v-.11Z"/></svg>