<svg viewBox="0 0 256 125" xmlns="http://www.w3.org/2000/svg"><path fill="#FABC05" d="M184.31 67.7c13.46-7.74 26.9-15.54 40.417-23.2 12.82-7.27 27.92-.57 30.82 13.57 1.68 8.18-1.97 17.02-9.36 21.32 -24.22 14.113-48.48 28.17-72.85 42.01 -7.55 4.28-15.32 3.49-22.19-1.76 -6.99-5.33-9.19-12.69-7.55-21.24 1.87-6.52 6.15-10.869 11.98-14.13 9.65-5.39 19.14-11.06 28.7-16.61"/><path fill="#109D58" d="M194.2 62.07c-13.44-7.8-26.91-15.54-40.3-23.406 -12.71-7.48-14.45-23.9-3.66-33.49 6.244-5.55 15.72-6.804 23.14-2.559 24.33 13.91 48.63 27.89 72.8 42.08 7.48 4.39 10.68 11.51 9.57 20.09 -1.125 8.71-6.4 14.29-14.62 17.155 -6.58 1.63-12.488.1-18.23-3.32 -9.5-5.67-19.15-11.06-28.74-16.56"/><path fill="#E94436" d="M71.75 56.56c-8.63 4.89-17.25 9.78-25.86 14.7 -5.04 2.87-10.02 5.84-15.09 8.67 -10.203 5.69-22.33 2.35-28.11-7.68 -5.53-9.58-2.35-21.99 7.47-27.72C34.185 30.507 58.27 16.58 82.44 2.82c7.41-4.23 15.1-3.7 21.96 1.35 7.23 5.327 9.6 12.82 7.98 21.61 -1.01 2.12-1.61 4.61-3.12 6.29 -2.46 2.72-5.25 5.33-8.36 7.25 -9.62 5.92-19.44 11.5-29.19 17.21"/><path fill="#4385F3" d="M61.86 62.05c8.55 5.01 17.1 10.043 25.66 15.04 5 2.92 10.07 5.75 15.05 8.72 10.03 5.99 13.2 18.15 7.41 28.18 -5.53 9.56-17.87 13.02-27.75 7.38 -24.16-13.8-48.26-27.7-72.27-41.75C2.59 75.31-.79 68.38.15 59.92c.99-8.94 6.302-14.73 14.72-17.72 2.34-.19 4.8-.92 7.01-.45 3.58.76 7.24 1.875 10.45 3.6 9.93 5.36 19.683 11.08 29.5 16.66"/></svg>