<svg viewBox="0 0 256 256" xmlns="http://www.w3.org/2000/svg"><path fill="#FBBB05" d="M64 58.14c35.32 0 64 28.67 64 64v0 5.85H5.85c-3.22 0-5.86-2.64-5.86-5.86 0-35.33 28.672-64 64-64v0Z"/><path fill="#E94335" d="M197.85 64c0 35.32-28.68 64-64 64h-5.86V5.85c0-3.22 2.63-5.86 5.85-5.86v0c35.32 0 64 28.672 64 64Z"/><path fill="#4285F4" d="M192 197.85c-35.328 0-64-28.68-64-64v0 -5.86h122.14c3.21 0 5.85 2.63 5.85 5.85v0c0 35.32-28.68 64-64 64v0Z"/><path fill="#0F9D58" d="M58.14 192c0-35.328 28.67-64 64-64h5.85v122.14c0 3.21-2.64 5.85-5.86 5.85v0c-35.33 0-64-28.68-64-64Z"/></svg>