<svg viewBox="0 0 256 367" xmlns="http://www.w3.org/2000/svg"><path fill="#34A853" d="M70.58 271.86c10.61 13.52 20.27 27.77 28.91 42.64 7.37 13.98 10.44 23.46 15.83 40.31 3.3 9.3 6.29 12.08 12.71 12.08 6.99 0 10.17-4.73 12.62-12.04 5.09-15.91 9.09-28.06 15.39-39.53 12.37-22.16 27.74-41.84 42.85-60.76 4.09-5.36 30.53-36.55 42.43-61.16 0 0 14.63-27.04 14.63-64.8 0-35.32-14.44-59.82-14.44-59.82L199.96 79.9l-25.24 66.45 -6.25 9.16 -1.25 1.65 -1.66 2.07 -2.92 3.31 -4.17 4.16L136 185l-56.17 32.43 -9.35 54.33Z"/><path fill="#FBBC04" d="M12.61 188.89c13.7 31.31 40.14 58.83 58.03 82.99l95-112.54s-13.39 17.5-37.67 17.5c-27.05 0-48.89-21.6-48.89-48.83 0-18.68 11.23-31.51 11.23-31.51l-64.49 17.28 -13.23 75.08Z"/><path fill="#4285F4" d="M166.7 5.78c31.55 10.17 58.55 31.53 74.89 63.02l-75.93 90.47s11.23-13.06 11.23-31.62c0-27.87-23.47-48.69-48.82-48.69 -23.97 0-37.74 17.47-37.74 17.47v-57l76.34-33.69Z"/><path fill="#1A73E8" d="M30.01 45.76c18.84-22.55 52-45.77 97.72-45.77 22.17 0 38.88 5.82 38.88 5.82L90.27 96.5H36.18l-6.2-50.76Z"/><path fill="#EA4335" d="M12.61 188.89s-12.62-24.7-12.62-60.48c0-33.82 13.14-63.38 30.01-82.65l60.31 50.75 -77.73 92.36Z"/></svg>