<svg viewBox="0 0 256 265" xmlns="http://www.w3.org/2000/svg"><path fill="#3BAB59" d="M199.06 207.63c.02 9.4 3.31 19.02 3.31 28.42 -.01 9.54-3.31 18.87-3.28 28.42 -47.411-.01-94.83 0-142.24-.01 .02-9.39-4.42-19.04-4.43-28.42 -.01-9.57 4.42-18.86 4.44-28.43 47.39.01 94.77 0 142.16 0Z"/><path fill="#4586F7" d="M144.2 50.83c6.58-6.58 17.09-10.04 23.6-16.69 26.97 27.14 54.06 54.17 81.1 81.26 2.43 2.5 5.4 4.81 6.35 8.35 .92 2.3.64 4.81.68 7.23 0 39.65-.01 79.31 0 118.96 .59 7.82-6.87 15.13-14.66 14.51 -14.08 0-28.15 0-42.214 0 -.06-18.95.01-37.9-.04-56.85 .03-20.84.01-41.67 0-62.5 -17.57-17.54-35.09-35.11-52.64-52.66 -6.13-6.18-12.35-12.27-18.41-18.5 3.32-3.19 12.73-19.73 16.17-23.17Z"/><path fill="#FDC00D" d="M56.84 145.22c.07 20.8-.01 41.6.04 62.41 -.04 18.94.01 37.89-.03 56.84 -14.81-.01-29.62 0-44.43-.01C6.23 263.68.79 258.47 0 252.24c-.05-16.72-.02-33.45-.02-50.16C9.84 192.3 16 179.6 25.83 169.79c9.1-9.15 21.91-15.41 30.97-24.6Z"/><path fill="#EC5043" d="M127.24.02c1.22.15 2.67-.33 3.76.35 2.95.57 5.54 2.28 7.62 4.41 8.82 8.84 17.66 17.68 26.5 26.52 .88.94 1.92 1.76 2.67 2.83 -9.92 10.12-20.01 20.05-29.994 30.1 -3.28 3.23-6.47 6.55-9.8 9.738 -4.39 4.134-8.55 8.51-12.84 12.73 -19.44 19.5-38.95 38.93-58.34 58.48 -9.067 9.18-18.244 18.27-27.354 27.42 -9.832 9.81-19.62 19.67-29.48 29.45 -.04-21.44 0-42.87-.01-64.31 .02-4.05-.07-8.1.07-12.14 -.05-.82.57-1.47.53-2.29 .57-.97 1.08-1.97 1.64-2.94 1.4-1.87 3.14-3.43 4.77-5.09C43.76 78.41 80.55 41.568 117.34 4.71c1.5-1.58 3.22-3.02 5.32-3.74 1.47-.5 2.92-1.21 4.52-1.04Z"/></svg>