<svg viewBox="0 0 256 256" xmlns="http://www.w3.org/2000/svg"><path fill="#8AB4F8" d="M150.26 245.51l-44.44-43.34 95.43-97.46 46 45.09Z"/><path fill="#4285F4" d="M150.45 53.93L106.17 8.72 9.35 104.61c-12.48 12.48-12.48 32.71 0 45.2l95.36 95.98 45.09-42.19 -72.66-76.41 73.29-73.3Z"/><path fill="#8AB4F8" d="M246.62 105.37l-96-96c-12.5-12.5-32.76-12.5-45.26 0 -12.5 12.49-12.5 32.75 0 45.25l96 96c12.49 12.49 32.75 12.49 45.25 0 12.49-12.5 12.49-32.76 0-45.26Z"/><path fill="#246FDB" d="M127.26 193.45a31.27 31.27 0 1 0 0 62.54 31.27 31.27 0 1 0 0-62.55Z"/></svg>