<svg viewBox="0 0 256 211" xmlns="http://www.w3.org/2000/svg"><path fill="#00832D" d="M144.82 105.32l24.95 28.52 33.56 21.44 5.83-49.8 -5.84-48.67 -34.21 18.83Z"/><path fill="#0066DA" d="M0 150.65v42.43c0 9.68 7.86 17.55 17.55 17.55h42.43l8.78-32.06 -8.79-27.93 -29.11-8.79 -30.88 8.78Z"/><path fill="#E94235" d="M59.98 0L-.01 59.98l30.87 8.76 29.1-8.77 8.62-27.55Z"/><path fill="#2684FC" d="M0 150.67l59.98 0 0-90.7 -59.99-.001Z"/><g fill="#00AC47"><path d="M241.65 25.39l-38.32 31.43v98.45l38.47 31.55c5.75 4.51 14.18.39 14.18-6.93V32.13c0-7.41-8.63-11.5-14.35-6.79"/><path d="M144.82 105.32v45.33H59.98v59.98h125.8c9.69 0 17.55-7.87 17.55-17.56v-37.8l-58.52-49.98Z"/></g><path fill="#FFBA00" d="M185.78 0H59.97v59.98h84.83v45.33l58.51-48.49V17.54c0-9.7-7.87-17.56-17.56-17.56"/></svg>