<svg viewBox="0 0 512 168" xmlns="http://www.w3.org/2000/svg"><path fill="#FF302F" d="M496.05 102.67l14.2 9.46c-4.61 6.79-15.64 18.43-34.7 18.43 -23.68 0-41.31-18.32-41.31-41.62 0-24.8 17.81-41.62 39.3-41.62 21.61 0 32.2 17.19 35.63 26.47l1.86 4.73 -55.7 23.04c4.23 8.34 10.83 12.58 20.18 12.58 9.34 0 15.82-4.61 20.49-11.53v0Zm-43.67-15.02l37.19-15.45c-2.06-5.18-8.17-8.85-15.45-8.85 -9.29 0-22.18 8.22-21.75 24.29v0Z"/><path fill="#20B15A" d="M407.4 4.93h17.94v121.84h-17.95V4.92v0Z"/><path fill="#3686F7" d="M379.12 50.59h17.31v74c0 30.71-18.13 43.35-39.56 43.35 -20.19 0-32.34-13.59-36.88-24.61l15.88-6.61c2.86 6.79 9.78 14.82 20.99 14.82 13.76 0 22.23-8.54 22.23-24.49v-5.99h-.63c-4.12 4.98-11.97 9.46-21.93 9.46 -20.81 0-39.87-18.13-39.87-41.49 0-23.49 19.06-41.81 39.86-41.81 9.9 0 17.81 4.42 21.92 9.28h.62v-5.99 0Zm1.24 38.49c0-14.71-9.79-25.42-22.24-25.42 -12.59 0-23.18 10.71-23.18 25.41 0 14.51 10.59 25.04 23.17 25.04 12.45.06 22.23-10.53 22.23-25.05v0Z"/><path fill="#FF302F" d="M218.21 88.78c0 23.98-18.69 41.61-41.62 41.61 -22.93 0-41.62-17.7-41.62-41.62 0-24.11 18.68-41.68 41.61-41.68 22.92 0 41.61 17.56 41.61 41.67v0Zm-18.2 0c0-14.96-10.84-25.23-23.43-25.23s-23.43 10.27-23.43 25.22c0 14.82 10.83 25.22 23.42 25.22 12.58 0 23.42-10.41 23.42-25.23v0Z"/><path fill="#FFBA40" d="M309.1 88.96c0 23.98-18.69 41.61-41.62 41.61 -22.93 0-41.62-17.63-41.62-41.62 0-24.11 18.68-41.62 41.61-41.62 22.92 0 41.61 17.44 41.61 41.61v0Zm-18.26 0c0-14.96-10.84-25.23-23.43-25.23s-23.43 10.27-23.43 25.22c0 14.82 10.83 25.22 23.42 25.22 12.64 0 23.42-10.47 23.42-25.23v0Z"/><path fill="#3686F7" d="M66.59 112.32c-26.11 0-46.54-21.06-46.54-47.16C20.05 39.05 40.48 18 66.58 18c14.07 0 24.35 5.54 31.95 12.64l12.52-12.53C100.45 7.95 86.31.23 66.57.23 30.81.23.72 29.38.72 65.14c-.001 35.75 30.08 64.91 65.84 64.91 19.31 0 33.88-6.36 45.28-18.2 11.71-11.72 15.32-28.16 15.32-41.49 0-4.18-.5-8.48-1.06-11.65H66.54v17.31h42.42c-1.25 10.83-4.68 18.25-9.72 23.29 -6.11 6.16-15.77 12.95-32.71 12.95v0 0Z"/></svg>