<svg viewBox="0 0 512 93" xmlns="http://www.w3.org/2000/svg"><g fill="#5F6368"><path d="M482.68 37.1l10.94 26.43h.12l10.68-26.44h7.55l-23.05 53.06h-7.17l8.57-18.57 -15.18-34.51h7.48Zm-24.84-1.22c5.12 0 9.15 1.34 12.09 4.09 2.94 2.75 4.41 6.46 4.41 11.26v22.72h-6.6v-5.13h-.32c-2.89 4.22-6.66 6.33-11.4 6.33 -4.04 0-7.43-1.22-10.18-3.59 -2.76-2.44-4.1-5.45-4.1-9.03 0-3.78 1.4-6.85 4.35-9.09 2.88-2.25 6.72-3.4 11.52-3.4 4.09 0 7.48.76 10.17 2.24v-1.61c0-2.44-.96-4.42-2.89-6.15 -1.92-1.67-4.17-2.5-6.73-2.5 -3.84 0-6.92 1.6-9.16 4.86l-6.08-3.85c3.32-4.81 8.32-7.24 14.85-7.24Zm-34.95-15.81c4.67 0 8.64 1.53 11.9 4.67 3.32 3.13 4.92 6.91 4.92 11.32 0 4.54-1.67 8.38-4.93 11.39 -3.21 3.07-7.17 4.6-11.91 4.6h-11.4v21.82h-6.92V20.03h18.3Zm35.84 35.45c-2.82 0-5.12.7-7.05 2.04 -1.86 1.4-2.82 3.07-2.82 5.05 0 1.79.76 3.32 2.3 4.48 1.53 1.21 3.32 1.79 5.37 1.79 2.88 0 5.5-1.09 7.8-3.21 2.3-2.18 3.39-4.68 3.39-7.62 -2.18-1.73-5.19-2.57-9.03-2.57Zm-35.66-28.74h-11.59v18.75h11.58c2.75 0 5.05-.9 6.84-2.76 1.85-1.86 2.75-4.04 2.75-6.6 0-2.5-.9-4.68-2.76-6.53 -1.8-1.93-4.1-2.89-6.85-2.89Z"/><path d="M306.91 35.95c4.67 0 8.38 2.04 10.3 4.35h.31v-3.21h8.19v35.2c0 14.46-8.52 20.41-18.63 20.41 -9.48 0-15.18-6.41-17.35-11.59l7.49-3.14c1.34 3.2 4.6 6.97 9.85 6.97 6.46 0 10.43-4.04 10.43-11.53v-2.82h-.32c-1.93 2.36-5.64 4.48-10.31 4.48 -9.8 0-18.76-8.52-18.76-19.53 0-11.08 8.96-19.66 18.75-19.66Zm56.32.06c10.17 0 15.1 8.06 16.76 12.48l.89 2.24 -26.18 10.81c1.98 3.9 5.12 5.95 9.47 5.95 4.35-.13 7.42-2.25 9.66-5.51l6.65 4.48c-2.18 3.2-7.36 8.7-16.33 8.7 -11.14 0-19.4-8.58-19.4-19.59 0-11.65 8.38-19.59 18.43-19.59Zm-191.64-21.7c9.28 0 15.87 3.64 20.8 8.38l-5.89 5.88c-3.59-3.33-8.39-5.96-14.98-5.96 -12.23 0-21.83 9.85-21.83 22.08 0 12.22 9.53 22.08 21.82 22.08 7.93 0 12.48-3.21 15.36-6.09 2.36-2.37 3.9-5.77 4.54-10.44h-20.1v-8.33h28.16c.32 1.47.44 3.26.44 5.18 0 6.2-1.73 13.95-7.17 19.45 -5.38 5.56-12.17 8.51-21.19 8.51 -16.78 0-30.86-13.64-30.86-30.41 0-16.78 14.08-30.41 30.85-30.41Zm50.88 21.63c10.81 0 19.65 8.25 19.65 19.58 0 11.26-8.84 19.58-19.66 19.58s-19.66-8.33-19.66-19.59c0-11.33 8.83-19.59 19.65-19.59Zm42.75 0c10.81 0 19.64 8.25 19.64 19.58 0 11.26-8.84 19.58-19.65 19.58 -10.82 0-19.66-8.33-19.66-19.59 0-11.33 8.83-19.59 19.65-19.59Zm75.27-19.59v57.54h-8.58V16.34h8.57ZM222.52 43.68c-5.89 0-11.01 4.8-11.01 11.84 0 6.97 5.12 11.84 11 11.84s11-4.87 11-11.85c0-7.05-5.13-11.85-11.01-11.85Zm42.69 0c-5.9 0-11.02 4.8-11.02 11.84 0 6.97 5.12 11.84 11.01 11.84 5.88 0 11-4.87 11-11.85 0-7.05-5.12-11.85-11.01-11.85Zm42.49-.07c-5.96 0-10.89 5.05-10.89 11.96 0 6.84 4.99 11.77 10.88 11.77 5.82 0 10.43-4.93 10.43-11.78 0-6.92-4.61-11.97-10.44-11.97Zm55.75-.13c-4.36 0-10.44 3.9-10.18 11.45l17.47-7.3c-.96-2.44-3.84-4.17-7.3-4.17Z"/></g><path fill="#EA4335" d="M95.36 17.29c-10.36-5.98-23.6-2.43-29.59 7.93L50.68 51.35c-4.37 7.54 1.25 10.18 7.52 13.94l14.51 8.37c4.91 2.83 11.19 1.15 14.03-3.76l15.5-26.86c5.21-9.03 2.11-20.56-6.91-25.77Z"/><path fill="#FBBC04" d="M78.29 28.11l-14.52-8.38c-8.02-4.45-12.56-4.75-15.85.48L26.5 57.28c-5.98 10.35-2.42 23.58 7.93 29.55 9.02 5.21 20.55 2.11 25.76-6.91l21.82-37.8c2.84-4.92 1.16-11.21-3.76-14.04Z"/><path fill="#34A853" d="M81.08 9.05l-10.2-5.89C59.6-3.35 45.18.51 38.67 11.78L19.25 45.4c-2.87 4.96-1.17 11.31 3.79 14.17l11.41 6.59c5.63 3.25 12.84 1.32 16.1-4.32l22.17-38.42c4.59-7.96 14.76-10.69 22.72-6.09L81.03 9.01Z"/><path fill="#4285F4" d="M41.43 21.41L30.4 15.06c-4.92-2.83-11.2-1.16-14.04 3.75L3.13 41.66C-3.38 52.9.48 67.29 11.75 73.78l8.39 4.83 10.17 5.86 4.41 2.54c-7.85-5.25-10.34-15.77-5.54-24.05l3.42-5.92 12.53-21.67c2.82-4.9 1.14-11.16-3.77-13.99Z"/></svg>