<svg viewBox="0 0 256 229" xmlns="http://www.w3.org/2000/svg"><path fill="#0066DA" d="M19.35 196.03l11.28 19.5c2.34 4.1 5.71 7.33 9.67 9.67 11.33-14.4 19.23-25.44 23.67-33.14 4.51-7.82 10.06-20.04 16.64-36.66 -17.74-2.34-31.18-3.51-40.33-3.51 -8.78 0-22.22 1.16-40.33 3.5 0 4.54 1.17 9.09 3.51 13.19l15.83 27.41Z"/><path fill="#EA4335" d="M215.68 225.21c3.95-2.35 7.33-5.58 9.67-9.68l4.69-8.07 22.43-38.86c2.34-4.11 3.51-8.66 3.51-13.2 -18.21-2.34-31.63-3.51-40.25-3.51 -9.27 0-22.69 1.16-40.25 3.5 6.5 16.71 11.97 28.93 16.42 36.65 4.48 7.78 12.4 18.83 23.75 33.13Z"/><path fill="#00832D" d="M128 73.31c13.11-15.85 22.16-28.07 27.12-36.66 3.99-6.92 8.39-17.97 13.19-33.14 -3.96-2.35-8.51-3.52-13.2-3.52h-54.26c-4.7 0-9.24 1.31-13.2 3.51 6.1 17.4 11.28 29.78 15.54 37.15 4.7 8.14 12.96 19.02 24.77 32.63Z"/><path fill="#2684FC" d="M175.36 155.41H80.64L40.31 225.2c3.95 2.34 8.5 3.51 13.19 3.51h148.96c4.69 0 9.23-1.32 13.19-3.52l-40.33-69.8Z"/><path fill="#00AC47" d="M128 73.31L87.67 3.51c-3.96 2.34-7.34 5.57-9.68 9.67L3.5 142.2c-2.35 4.1-3.52 8.65-3.52 13.19h80.64l47.35-82.11Z"/><path fill="#FFBA00" d="M215.24 77.7l-37.25-64.52c-2.35-4.11-5.72-7.34-9.68-9.68l-40.33 69.79 47.35 82.1h80.49c0-4.55-1.18-9.1-3.52-13.2l-37.1-64.52Z"/></svg>