<svg viewBox="0 0 256 188" xmlns="http://www.w3.org/2000/svg"><path fill="#02303A" d="M242.08 11.89c-15.47-15.48-40.42-15.91-56.41-.98 -.77.72-1.22 1.72-1.25 2.77 0 1.05.41 2.05 1.15 2.8l5.05 5.23c1.36 1.35 3.51 1.5 5.05.35 4-3.03 8.9-4.66 13.92-4.65 9.42-.05 17.94 5.61 21.55 14.32 3.61 8.7 1.61 18.73-5.07 25.38C193.84 89.33 150.83-.96 53.21 45.49c-3.36 1.56-5.91 4.47-7.03 8 -1.13 3.53-.72 7.37 1.11 10.59l16.73 28.94c3.63 6.26 11.61 8.46 17.94 4.93l.41-.24 -.33.23 7.42-4.17c8.26-5.14 16.08-10.98 23.35-17.45 1.53-1.33 3.81-1.33 5.35 0v0c.9.71 1.44 1.8 1.44 2.95 .02 1.12-.45 2.19-1.28 2.95 -7.66 6.79-15.9 12.91-24.63 18.26h-.24l-7.43 4.13c-3.14 1.77-6.69 2.7-10.29 2.69 -7.58 0-14.59-4.02-18.42-10.56L41.49 69.39C11.09 90.85-7.35 132.21 2.55 184.68c.36 1.8 1.94 3.11 3.78 3.13h18.03c1.93 0 3.57-1.45 3.81-3.38 1.66-13.21 12.88-23.11 26.19-23.11 13.3 0 24.52 9.9 26.19 23.1 .25 1.92 1.89 3.37 3.84 3.37h17.56c1.93 0 3.57-1.45 3.81-3.38 1.71-13.17 12.93-23.02 26.2-23.02s24.49 9.84 26.2 23.01c.23 1.92 1.87 3.37 3.81 3.37h17.35c2.09 0 3.81-1.69 3.84-3.79 .41-24.45 7-52.54 25.8-66.61 65.12-48.72 48-90.5 32.93-105.66Zm-66.43 73.69l-12.42-6.24v0c-.02-3.69 2.55-6.88 6.15-7.66 3.6-.78 7.25 1.06 8.76 4.42 1.51 3.36.46 7.32-2.51 9.49v-.03Z"/></svg>