<svg viewBox="0 0 512 121" xmlns="http://www.w3.org/2000/svg"><path d="M168.13 40.13c5.49 0 8.93 2.12 11.75 4.98l.52.54c.08.09.17.18.25.27v-.08c0-2.98 2.46-5.44 5.5-5.44s5.5 2.46 5.5 5.51v25.02c0 6.96-1.67 12.04-4.93 15.3 -3.63 3.62-9.21 5.22-16.75 5.22 -5.15 0-9.65-.87-14.21-2.69 -1.89-.73-3.12-2.25-3.12-4.29 0-2.47 2.02-4.5 4.49-4.5 .72 0 1.3.14 1.81.36 3.18 1.45 6.59 2.32 10.72 2.32 7.53 0 11.08-3.63 11.08-10.6v-1.89c-3.27 3.91-6.82 6.31-12.69 6.31 -8.94 0-17.04-6.43-17.25-17.68l-.01-.61c0-11.61 8.33-18.14 17.25-18.14Zm3.18 9.14c-5.26 0-9.26 3.55-9.42 8.68l-.01.46c0 5.36 4.05 8.99 9.42 8.99 5.25 0 9.32-3.56 9.49-8.68l0-.47c0-5.3-4.14-9-9.5-9Zm67.55-8.85c6.01 0 10.36 1.59 13.11 4.35 2.89 2.89 4.2 7.18 4.2 12.4v17.69c0 2.97-2.4 5.29-5.37 5.29 -3.09 0-5.16-2.11-5.29-4.36l-.01-.3c-2.69 2.97-6.38 4.93-11.75 4.93 -7.2 0-13.14-4.07-13.34-11.52l-.01-.53c0-8.49 6.44-12.41 15.65-12.41 3.91 0 6.73.65 9.49 1.59v-.66c0-4.57-2.83-7.12-8.34-7.12 -3.05 0-5.51.43-7.62 1.08 -.66.21-1.09.29-1.6.29 -2.54 0-4.57-1.97-4.57-4.51 0-1.96 1.23-3.63 2.97-4.29 3.47-1.31 7.24-2.03 12.39-2.03Zm-22.47 0c3.4 0 5.36 2.24 5.36 5.36 0 2.8-1.76 4.52-3.9 5.09l-.24.05c-5.59 1.3-8.71 5.58-8.71 13.42v10.3c0 3.04-2.47 5.51-5.51 5.51 -3.05 0-5.51-2.47-5.51-5.52V45.9c0-3.05 2.46-5.52 5.5-5.52s5.5 2.46 5.5 5.51v1.73c1.59-3.77 4.2-7.26 7.46-7.26Zm22.32 22.19c-4.72 0-7.61 1.88-7.61 5.37v.14c0 2.97 2.46 4.71 6.01 4.71 5.14 0 8.62-2.83 8.62-6.82v-1.96c-1.89-.87-4.35-1.46-7.04-1.46Zm69.51-22.49c8.19 0 13.12 4.93 13.12 14.29v20.23c0 3.04-2.47 5.51-5.51 5.51 -3.05 0-5.51-2.47-5.51-5.52V58.01c0-5.23-2.32-7.91-6.45-7.91 -4.14 0-6.67 2.68-6.67 7.9v16.61c0 3.04-2.47 5.51-5.51 5.51 -3.05 0-5.51-2.47-5.51-5.52V57.98c0-5.23-2.32-7.91-6.45-7.91 -4.14 0-6.67 2.68-6.67 7.9v16.61c0 3.04-2.47 5.51-5.51 5.51 -3.05 0-5.51-2.47-5.51-5.52V45.84c0-3.05 2.46-5.52 5.5-5.52s5.5 2.46 5.5 5.51v.43c2.53-3.27 5.87-6.25 11.45-6.25 5.07 0 8.91 2.24 10.94 6.16 3.4-4 7.46-6.17 12.75-6.17Zm65.23 0c8.19 0 13.12 4.93 13.12 14.29v20.23c0 3.04-2.47 5.51-5.51 5.51 -3.05 0-5.51-2.47-5.51-5.52V58.01c0-5.23-2.32-7.91-6.45-7.91 -4.14 0-6.67 2.68-6.67 7.9v16.61c0 3.04-2.47 5.51-5.51 5.51 -3.05 0-5.51-2.47-5.51-5.52V57.98c0-5.23-2.32-7.91-6.46-7.91 -4.14 0-6.67 2.68-6.67 7.9v16.61c0 3.04-2.47 5.51-5.51 5.51 -3.05 0-5.51-2.47-5.51-5.52V45.84c0-3.05 2.46-5.52 5.5-5.52s5.5 2.46 5.5 5.51v.43c2.53-3.27 5.87-6.25 11.45-6.25 5.07 0 8.91 2.24 10.94 6.16 3.4-4 7.46-6.17 12.75-6.17Zm35.15.29c6.01 0 10.36 1.59 13.11 4.35 2.89 2.89 4.2 7.18 4.2 12.4v17.69c0 2.97-2.4 5.29-5.37 5.29 -3.1 0-5.17-2.11-5.29-4.36l-.01-.3c-2.69 2.97-6.39 4.93-11.75 4.93 -7.21 0-13.14-4.07-13.34-11.52l-.01-.53c0-8.49 6.45-12.41 15.65-12.41 3.91 0 6.74.65 9.49 1.59v-.66c0-4.57-2.83-7.12-8.34-7.12 -3.05 0-5.51.43-7.61 1.08 -.66.21-1.09.29-1.6.29 -2.54 0-4.57-1.97-4.57-4.51 0-1.96 1.23-3.63 2.97-4.29 3.47-1.31 7.24-2.03 12.39-2.03Zm-.15 22.19c-4.72 0-7.62 1.88-7.62 5.37v.14c0 2.97 2.46 4.71 6.01 4.71 5.14 0 8.62-2.83 8.62-6.82v-1.96c-1.89-.87-4.35-1.46-7.03-1.46Zm41.82-22.2c3.4 0 5.36 2.24 5.36 5.36 0 2.8-1.76 4.52-3.9 5.09l-.24.05c-5.59 1.3-8.7 5.58-8.7 13.42v10.3c0 3.04-2.47 5.51-5.51 5.51 -3.05 0-5.51-2.47-5.51-5.52V45.88c0-3.05 2.46-5.52 5.5-5.52s5.5 2.46 5.5 5.51v1.73c1.59-3.77 4.2-7.26 7.46-7.26Zm14.2-14.08c3.04 0 5.51 2.46 5.51 5.51v42.8c0 3.04-2.47 5.51-5.52 5.51 -3.05 0-5.51-2.47-5.51-5.52V31.81c0-3.05 2.46-5.52 5.5-5.52Zm42.25 14.07c2.82 0 5.21 2.17 5.21 5.07 0 .87-.29 2.1-.51 2.61l-13.56 32.57c-3.27 7.9-6.53 10.88-13.12 10.88 -2.47 0-4.21-.37-6.02-1.02 -1.6-.58-3.49-1.89-3.49-4.57 0-2.69 2.1-4.51 4.35-4.51 .67 0 1.13.08 1.5.19l.3.09c.94.29 1.52.43 2.32.43 1.95 0 2.89-.37 3.91-2.33l.36-.87 -13.27-30.77c-.29-.73-.59-1.82-.59-2.54 0-3.12 2.39-5.3 5.43-5.3 2.65 0 4.23 1.41 5.18 3.85l8.51 22.91 8.11-22.57c.87-2.32 2.46-4.21 5.29-4.21Z"/><path fill="#15C39A" d="M60.19 0c33.24 0 60.19 26.97 60.19 60.25 0 32.25-25.33 58.59-57.16 60.18h-6.09C25.29 118.84-.03 92.5-.03 60.24 -.03 26.95 26.92-.02 60.16-.02Z"/><path fill="#FFF" d="M57.78 24.92C71.29 24.01 83.31 30.7 90 41.15c1.05 1.82.54 4.14-1.22 5.36 -1.86 1.28-4.3.71-5.69-1.25 -4.84-6.81-13.28-12.45-22.89-12.45 -18.46 0-32.62 18.53-25.18 37.94 3.27 8.55 11.04 14.67 20.08 16.09 11.1 1.74 21.26-2.21 27.11-10.8v0l-3.66.51h-6.31c-2.01 0-3.86-1.36-4.22-3.33 -.47-2.59 1.5-4.85 4-4.85v0h22.14v23.25c0 2.5-2.26 4.48-4.84 4.01 -1.98-.36-3.32-2.22-3.32-4.22v0 -3.89l.76-4.3c-6.48 7.48-15.99 12.11-26.61 12.11 -20.22 0-36.48-16.75-35.3-37.27C25.86 40.43 40.1 26.01 57.7 24.83Z"/></svg>