<svg viewBox="0 0 256 256" xmlns="http://www.w3.org/2000/svg"><path fill="#4678EB" d="M102.39 25.58v89.59c0 14.13 11.45 25.58 25.58 25.58 14.13 0 25.58-11.46 25.58-25.59V55.55c32.26 11.37 53.11 42.71 51.13 76.87 -1.98 34.15-26.31 62.88-59.67 70.45 -33.37 7.57-67.72-7.83-84.25-37.78 -16.54-29.95-11.27-67.23 12.91-91.43 9.82-10.04 9.74-26.11-.19-36.04 -9.94-9.94-26.01-10.02-36.04-.19C-5.74 80.6-12.41 148.27 21.52 199.04c33.92 50.77 98.99 70.5 155.4 47.13 56.41-23.37 88.46-83.34 76.54-143.23C241.54 43.05 188.98-.09 127.91-.08c-14.14 0-25.59 11.45-25.59 25.58Z"/></svg>