<svg viewBox="0 0 512 96" xmlns="http://www.w3.org/2000/svg"><path fill="#4678EB" d="M38.03 9.5v33.28c0 5.24 4.25 9.5 9.5 9.5 5.24 0 9.5-4.26 9.5-9.51V20.62c11.98 4.22 19.73 15.86 18.99 28.55 -.74 12.68-9.78 23.35-22.17 26.17 -12.4 2.81-25.16-2.91-31.3-14.04 -6.15-11.13-4.19-24.98 4.79-33.97 3.65-3.73 3.61-9.7-.07-13.39 -3.69-3.69-9.67-3.73-13.39-.07C-2.16 29.9-4.64 55.04 7.96 73.9c12.6 18.86 36.77 26.19 57.73 17.51 20.95-8.69 32.86-30.96 28.43-53.21C89.69 15.95 70.16-.08 47.48-.07c-5.25 0-9.51 4.25-9.51 9.5Z"/><path d="M162.39 85.01c7.91 0 15.65-1.9 23.22-5.68 1.14-.55 2.07-1.38 2.78-2.49 .71-1.12 1.06-2.39 1.06-3.81V50c0-1.36-.48-2.51-1.42-3.45 -.91-.93-2.16-1.45-3.45-1.42h-19.99c-1.15 0-2.13.4-2.95 1.21 -.82.81-1.22 1.78-1.22 2.94 0 1.14.4 2.13 1.21 2.94 .81.81 1.79 1.21 2.94 1.21h16.73v18.35c-5.45 2.96-11.56 4.5-17.76 4.46 -5.68 0-10.61-1.21-14.76-3.61 -4.06-2.3-7.37-5.72-9.54-9.84 -2.2-4.16-3.3-8.88-3.3-14.16 0-5.75 1.16-10.7 3.49-14.87 2.22-4.05 5.59-7.35 9.68-9.49 4.12-2.17 8.75-3.25 13.89-3.25 3.71 0 7.17.47 10.34 1.42 3.17.94 6.35 2.36 9.53 4.26 .67.33 1.38.5 2.13.5 1.28 0 2.31-.41 3.09-1.22 .77-.82 1.16-1.8 1.16-2.95 0-.82-.21-1.56-.61-2.23 -.33-.6-.83-1.1-1.42-1.42 -3.57-2.26-7.4-4.07-11.42-5.38 -3.96-1.29-8.58-1.93-13.85-1.93 -6.56 0-12.53 1.52-17.91 4.56 -5.38 3.04-9.62 7.33-12.73 12.88 -3.11 5.54-4.67 11.9-4.67 19.06 0 7.03 1.48 13.3 4.46 18.81 2.87 5.4 7.23 9.87 12.57 12.88 5.4 3.07 11.59 4.61 18.56 4.61h0Zm43.42-.51c1.28 0 2.38-.44 3.29-1.32 .91-.89 1.37-1.97 1.37-3.25V49.09c1.72-2.68 4.05-4.92 6.79-6.55 2.7-1.59 5.78-2.42 8.92-2.39h.5c1.35 0 2.46-.41 3.34-1.22 .88-.82 1.31-1.86 1.31-3.15 0-1.29-.43-2.37-1.27-3.25 -.83-.88-2-1.36-3.2-1.33h-.51c-5.89 0-11.19 3.18-15.93 9.53v-4.37c0-1.29-.46-2.39-1.38-3.3 -.87-.9-2.06-1.39-3.3-1.38 -1.29 0-2.37.45-3.25 1.37 -.89.9-1.32 2-1.32 3.29v43.51c0 1.28.44 2.36 1.31 3.24 .88.88 1.96 1.31 3.24 1.31v0Zm44.29.5c7.7 0 14.06-2.58 19.07-7.71v2.63c0 1.28.43 2.36 1.31 3.24 .88.88 1.96 1.31 3.24 1.31 1.28 0 2.38-.44 3.29-1.32 .91-.89 1.36-1.97 1.36-3.25V51.19c0-3.52-.77-6.78-2.29-9.8 -1.53-3.01-3.89-5.46-7.11-7.36 -3.22-1.9-7.15-2.85-11.82-2.85 -5.96 0-11.8 1.21-17.55 3.65 -1.77.74-2.64 2.02-2.64 3.85 0 1.08.37 1.99 1.11 2.73 .74.74 1.62 1.11 2.63 1.11 .33 0 .77-.08 1.31-.21 2.43-.82 4.64-1.42 6.64-1.83 2.25-.44 4.54-.64 6.84-.61 4.66 0 8.1.98 10.29 2.94 2.19 1.96 3.29 5.17 3.29 9.63v.81h-12.28c-7.65 0-13.44 1.48-17.4 4.46 -3.96 2.97-5.94 6.96-5.94 11.96 0 3.04.74 5.73 2.22 8.06 1.46 2.31 3.55 4.16 6.03 5.32 2.53 1.21 5.29 1.82 8.26 1.82Zm3.45-8.12c-3.86 0-6.62-.74-8.27-2.23 -1.66-1.49-2.49-3.46-2.49-5.89 0-5.35 5.1-8.02 15.31-8.02h11.05v8.52c-1.98 2.22-4.36 4.06-7.01 5.42 -2.66 1.42-5.62 2.17-8.63 2.18l0-.01Zm55.65 7.6c1.21 0 2.33-.36 3.34-1.07 1.01-.72 1.76-1.61 2.23-2.69l17.65-42.2c.3-.68.47-1.4.5-2.14 0-1.29-.45-2.39-1.33-3.3 -.84-.9-2.02-1.4-3.25-1.38 -.89 0-1.71.25-2.49.76 -.78.5-1.34 1.13-1.68 1.87l-15.53 39.35 -15.52-39.36c-.37-.78-.95-1.43-1.68-1.88 -.74-.5-1.61-.76-2.49-.77 -1.29 0-2.37.45-3.25 1.37 -.89.9-1.33 2-1.33 3.29 0 .6.16 1.32.5 2.13l17.64 42.19c.47 1.08 1.21 1.97 2.23 2.69 1.01.71 2.13 1.06 3.34 1.06h1.01Zm43.79.5c7.7 0 14.06-2.58 19.06-7.71v2.63c0 1.28.44 2.36 1.32 3.24 .88.88 1.95 1.31 3.24 1.31 1.28 0 2.38-.44 3.29-1.32 .91-.89 1.37-1.97 1.37-3.25V51.17c0-3.52-.77-6.78-2.29-9.8 -1.53-3.01-3.89-5.46-7.11-7.36 -3.22-1.9-7.15-2.85-11.82-2.85 -5.96 0-11.8 1.21-17.56 3.65 -1.76.74-2.64 2.02-2.64 3.85 0 1.08.36 1.99 1.11 2.73 .74.74 1.62 1.11 2.64 1.11 .33 0 .77-.08 1.31-.21 2.43-.82 4.64-1.42 6.64-1.83 2.25-.44 4.54-.64 6.84-.61 4.66 0 8.1.98 10.29 2.94 2.19 1.96 3.29 5.17 3.29 9.63v.81h-12.28c-7.65 0-13.44 1.48-17.4 4.46 -3.96 2.97-5.94 6.96-5.94 11.96 0 3.04.74 5.73 2.23 8.06 1.46 2.31 3.55 4.16 6.03 5.32 2.53 1.21 5.29 1.82 8.26 1.82v0Zm3.44-8.12c-3.86 0-6.62-.74-8.27-2.23 -1.66-1.49-2.49-3.46-2.49-5.89 0-5.35 5.1-8.02 15.31-8.02h11.05v8.52c-1.98 2.22-4.36 4.06-7.01 5.42 -2.66 1.42-5.62 2.17-8.63 2.18v-.01Zm53.83 8.11c2.97 0 5.77-.61 8.41-1.83 1.55-.82 2.33-2 2.33-3.56 .01-.99-.4-1.93-1.12-2.59 -.67-.68-1.59-1.07-2.54-1.07 -.48 0-.87.03-1.17.1 -.29.06-.58.13-.86.2 -1.32.39-2.69.6-4.06.6 -1.9 0-3.47-.36-4.72-1.07 -1.26-.72-1.88-2.39-1.88-5.03V40.09h11.46c1.14 0 2.09-.39 2.83-1.17 .74-.78 1.11-1.71 1.11-2.79 0-1.16-.37-2.1-1.12-2.85 -.76-.75-1.78-1.16-2.84-1.12h-11.47v-8.12c0-.53-.2-1.04-.56-1.42 -.35-.4-.85-.62-1.38-.61 -.54 0-1.12.3-1.73.91l-13.8 13.48c-.61.47-.92 1.04-.92 1.72 0 .53.19.99.56 1.36 .35.36.85.56 1.36.55h7.2v31.44c0 8.92 4.93 13.38 14.8 13.38v0Zm30.9 0c7.71 0 14.06-2.58 19.07-7.71v2.63c0 1.28.44 2.36 1.31 3.24 .88.88 1.96 1.31 3.24 1.31 1.28 0 2.38-.44 3.29-1.32 .91-.89 1.37-1.97 1.37-3.25V51.16c0-3.52-.77-6.78-2.29-9.8 -1.53-3.01-3.89-5.46-7.11-7.36 -3.22-1.9-7.15-2.85-11.82-2.85 -5.96 0-11.8 1.21-17.55 3.65 -1.77.74-2.64 2.02-2.64 3.85 0 1.08.37 1.99 1.11 2.73 .74.74 1.62 1.11 2.63 1.11 .33 0 .77-.08 1.31-.21 2.43-.82 4.64-1.42 6.64-1.83 2.25-.44 4.54-.64 6.84-.61 4.66 0 8.09.98 10.29 2.94 2.19 1.96 3.29 5.17 3.29 9.63v.81h-12.28c-7.65 0-13.44 1.48-17.4 4.46 -3.96 2.97-5.94 6.96-5.94 11.96 0 3.04.74 5.73 2.23 8.06 1.46 2.31 3.55 4.15 6.03 5.32 2.53 1.21 5.29 1.82 8.26 1.82v0Zm3.45-8.12c-3.86 0-6.62-.74-8.27-2.23 -1.66-1.49-2.49-3.46-2.49-5.89 0-5.35 5.1-8.02 15.31-8.02h11.05v8.52c-1.98 2.22-4.35 4.06-7 5.42 -2.66 1.42-5.62 2.17-8.63 2.18v-.01Zm41.76 7.6c1.28 0 2.38-.44 3.29-1.32 .91-.89 1.37-1.97 1.37-3.25V49.04c1.72-2.68 4.05-4.92 6.79-6.55 2.7-1.59 5.78-2.42 8.92-2.39h.5c1.35 0 2.46-.41 3.34-1.22 .88-.82 1.32-1.86 1.32-3.15 0-1.29-.43-2.37-1.27-3.25 -.83-.88-2-1.36-3.2-1.33h-.51c-5.89 0-11.19 3.18-15.93 9.53v-4.37c0-1.29-.46-2.39-1.38-3.3 -.87-.9-2.06-1.39-3.3-1.38 -1.29 0-2.37.45-3.25 1.37 -.89.9-1.32 2-1.32 3.29V79.8c0 1.28.44 2.36 1.31 3.24 .88.88 1.96 1.31 3.24 1.31v0Z"/></svg>