<svg viewBox="0 0 512 150" xmlns="http://www.w3.org/2000/svg"><path fill="#A6AFBD" d="M42.9 31.87c9.8 0 19.15 3.29 25.89 8.96v0 -7.21H88.4v68.87c0 30.49-15.56 45.96-46.2 45.96 -14.94 0-27.36-5.75-37.93-17.47v0l-2.3-2.61 15.78-12.42 2.06 2.52c7.81 9.8 16.62 11.87 22.67 11.87 16.77 0 25.35-7.05 26.2-21.53 -6.9 5.89-14.87 8.35-26.28 8.35 -26.21 0-42.45-22.3-42.45-42.91 0-23.45 19.22-42.45 42.9-42.45Zm189.38 1.76l22.21 53.47 22.44-53.48h21.22l-49.57 114.76h-20.84l15.55-36.55 -33.1-78.23h22.06Zm-55.7-1.77c23.36 0 38.45 11.41 38.61 29.11v0 55.23h-18.85v-4.3c-5.9 4.13-12.65 6.05-21 6.05 -21.46 0-36.47-12.57-36.47-30.57 0-14.18 11.41-29.42 36.31-29.42 7.43 0 14.32 1.91 20.22 5.43v0 -1.38c0-9.96-10.65-12.03-19.54-12.03 -6.52 0-12.72 1.53-19.62 4.9v0l-2.92 1.37 -8.82-16.94 3.29-1.38c9.8-4.14 19.22-6.13 28.72-6.13Zm-33.03 0v21.29l-3.99-1c-1.92-.39-3.68-.62-5.29-.62 -9.58 0-15.02 6.66-15.02 18.23v0 46.5H99.56V33.59h19.68v4.44c5.82-5.67 12.25-6.21 20.99-6.21h3.29Zm34.01 44.2c-11.57 0-18.24 4.36-18.24 11.95 0 7.58 6.66 11.95 18.23 11.95 11.56 0 18.23-4.37 18.23-11.96 0-7.59-6.67-11.96-18.24-11.96ZM45.09 50.7c-15.4 0-24.6 12.02-24.6 23.59 0 16.08 12.48 24.74 24.2 24.74 13.25 0 24.05-10.81 23.98-23.98 0-13.26-10.81-24.37-23.6-24.37Z"/><path fill="#FF3633" d="M467.79 34.55c11.72 0 23.67 4.9 30.18 14.32h.3V36.45h13.71v68.49c0 29.26-14.03 44.51-44.82 44.51 -14.03 0-26.36-5.21-37.09-17.09l10.95-8.66c8.42 10.49 18.15 13.71 26.35 13.71 21.37 0 30.79-10.65 30.79-28.35v-5.67h-.23c-7.51 8.96-15.25 13.4-30.65 13.4 -26.67 0-40.92-22.91-40.92-41.38 0-23.07 18.92-40.92 41.37-40.92Zm-93.7.07c24.97 0 42.97 19.22 42.97 41.6 0 22.75-17.09 41.52-42.98 41.52 -25.9 0-42.99-18.78-42.99-41.53 -.08-22.38 17.92-41.61 42.98-41.61ZM315.55-.01v91.09c0 8.96 4.44 12.02 8.81 12.02h4.13v12.79h-5.67c-12.65 0-21.07-7.21-21.07-23.83V-.03h13.79ZM374 47.41c-15.17 0-28.35 12.33-28.35 28.8 0 15.24 13.1 28.65 28.34 28.65s28.34-13.41 28.34-28.66c0-16.48-13.11-28.81-28.35-28.81Zm96.22 0c-18.62 0-29.12 14.78-29.12 28.04 0 18.31 14.32 29.26 28.65 29.26 15.7 0 28.49-12.65 28.49-28.5 0-16.02-13.11-28.81-28.05-28.81Z"/><path fill="#A6AFBD" d="M355.94 73.93c1.14 0 2.14.61 2.68 1.6h2.52l3.98-9.58c.15-.46.61-.85 1.07-1 .84-.16 1.68.3 1.83 1.14l4.21 18.54 4.29-24.98v0c.07-.62.53-1.08 1.14-1.23 .84-.23 1.68.3 1.91 1.14l4.59 18.77 2.37-6.98c.07-.31.3-.62.61-.85 .68-.46 1.68-.31 2.14.38l1.99 2.83c.07.68.07 1.37.07 2.06 0 .91-.08 1.83-.16 2.68 -.31-.08-.54-.31-.77-.54v0l-2-2.76 -3.07 9.27c-.31.84-1.15 1.22-2 .99 -.54-.16-.92-.62-1-1.08v0l-4.14-16.71 -4.37 25.35c-.16.84-.92 1.37-1.77 1.3 -.69-.08-1.15-.62-1.31-1.31l-4.68-21.46 -2.53 6.05c-.23.61-.85.99-1.46.99v0h-3.61c-.54.91-1.54 1.53-2.69 1.53 -1.69 0-3.15-1.38-3.15-3.15 .07-1.69 1.45-3.15 3.14-3.15Z"/></svg>