<svg viewBox="0 0 512 102" xmlns="http://www.w3.org/2000/svg" xmlns:xlink="http://www.w3.org/1999/xlink"><defs><linearGradient id="a" x1="20.937%" x2="67.33%" y1="135.775%" y2="141.765%"><stop offset="0%" stop-color="#1A7D75"/><stop offset="100%" stop-color="#1A8864"/></linearGradient><linearGradient id="b" x1="5.878%" x2="-17.307%" y1="11.117%" y2="72.271%"><stop offset="1.29262%" stop-color="#168A81"/><stop offset="100%" stop-color="#31A97F"/></linearGradient><linearGradient id="c" x1="-144.301%" x2="-70.358%" y1="53.433%" y2="117.633%"><stop offset="0%" stop-color="#27A59B"/><stop offset="100%" stop-color="#64D8A2"/></linearGradient><linearGradient id="d" x1="-143.419%" x2="-4.694%" y1="60.47%" y2="180.917%" xlink:href="#c"/><linearGradient id="e" x1="208.845%" x2="86.111%" y1="-141.922%" y2="-183.712%" xlink:href="#c"/></defs><g fill="url(#a)" fill-rule="evenodd"><path d="M91.87 41.99c4.88-.24 9.21 3.55 9.63 8.44 1.82 23.66-19.44 50.13-49.97 50.97 -4.9.13-8.97-3.74-9.11-8.64 -.14-4.91 3.71-9 8.61-9.13 20.24-.57 33.07-18.06 32.39-32.37 -.24-4.91 3.53-9.07 8.42-9.3Z"/><path fill="url(#b)" d="M8.95 41.48c4.89 0 8.85 3.97 8.85 8.88 0 20.47 16.46 33.73 32.91 33.32 4.89-.13 8.95 3.75 9.07 8.66 .12 4.9-3.75 8.97-8.64 9.1 -25.73.63-51.16-19.96-51.16-51.1 -.001-4.91 4.05-8.89 8.94-8.89Z"/></g><path fill="url(#c)" d="M69.74 51.06c0-5.03 4.09-9.1 9.15-9.1h13.33c5.05 0 9.27 4.07 9.27 9.09s-4.23 9.09-9.28 9.09H78.87c-5.06 0-9.16-4.08-9.16-9.1Z"/><path fill="url(#d)" d="M41.76 51.07c0-5.04 4.07-9.11 9.08-9.11s9.08 4.07 9.08 9.1c0 5.03-4.08 9.1-9.09 9.1 -5.02 0-9.09-4.08-9.09-9.11Z"/><g fill="url(#e)" fill-rule="evenodd"><path d="M59.68 8.51c.2 4.9-3.6 9.04-8.49 9.24 -21.11.87-33.99 17.46-33.37 33.21 .19 4.9-3.54 9.03-8.42 9.23 -4.89.19-9.19-3.77-9.39-8.67C-1.02 25.85 20.35.48 50.44-.02c4.88-.21 9.01 3.6 9.21 8.5Z"/><path fill="#1F344A" d="M169.68 46.5h23.82l.05.7c.09 1.4.09 3.18.09 3.77v0c0 8.88-2 15.14-6.91 21.37l-.01 0 -.01 0c-6.4 8.02-15.02 12.26-25.13 12.26 -19.03 0-32.92-14.61-32.92-34.53 0-20.21 13.78-34.83 32.91-34.83 10.1 0 18.82 4.22 25.13 12.16l.46.58 -7.3 5.93 -.49-.54c-2.54-2.85-3.66-3.96-5.34-5.08l-.02-.01 -.02-.01c-3.49-2.56-7.92-3.98-12.46-3.98 -13 0-23 10.97-23 25.65 0 14.48 10 25.55 22.8 25.55 6.99 0 14.28-3.72 18.14-9.3l0-.01 0-.01c2.3-3.12 3.28-6.07 3.95-11.17h-13.86v-8.58Zm32.27-9.82h8.94v5.12c.82-1.41 1.68-2.36 2.88-3.3 2.4-1.89 5.7-2.92 9.07-2.92h2.51v9.17l-.86-.11c-.73-.1-1.47-.1-1.96-.1 -3.76 0-7.05 1.74-9.15 4.86l-.01 0 -.01 0c-1.84 2.67-2.51 5.15-2.51 10.27v23.72h-8.95V36.62Zm39.3 0v46.76h-8.95V36.67h8.94Zm44.63 5.58c-4.24-4.58-9.16-6.67-15.38-6.67 -12.73 0-21.98 10.63-21.98 24.7 0 14.08 9.06 24.21 21.97 24.21 3.52 0 6.56-.69 9.3-2.2 2.2-1.21 4.18-2.93 6.06-5.2v6.3h8.94v-67h-8.95v25.81Zm50.02 8.29h-8.98V49.3c0-1.89-.76-3.39-2.08-4.43 -1.34-1.06-3.31-1.69-5.78-1.69 -2.38 0-4.22.6-5.46 1.6 -1.22.97-1.91 2.37-1.91 4.12 0 .92.11 1.64.37 2.23 .25.58.65 1.11 1.32 1.61 1.37 1.04 3.74 1.94 7.82 3.07 5.8 1.57 8.99 3.09 11.28 5.39 2.38 2.39 3.83 5.83 3.83 9.36 0 4.15-1.72 7.65-4.71 10.1 -2.98 2.44-7.17 3.8-12.09 3.8 -5.25 0-9.45-1.23-12.45-3.73 -3.02-2.51-4.72-6.2-5.13-10.92l-.08-.82h8.84l.06.68c.22 2.39 1.11 4.15 2.52 5.33 1.42 1.18 3.48 1.83 6.2 1.83 2.41 0 4.33-.64 5.63-1.67 1.28-1.03 2.01-2.48 2.01-4.26 0-.9-.15-1.65-.45-2.29 -.3-.65-.78-1.23-1.5-1.78 -1.47-1.13-3.91-2.08-7.76-3.06l-.01-.01 -.01-.01c-4.94-1.34-8.63-3.08-11.08-5.43 -2.49-2.38-3.66-5.34-3.66-8.96 0-4.15 1.68-7.66 4.63-10.11 2.93-2.45 7.08-3.81 11.95-3.81 4.91 0 8.94 1.25 11.8 3.7 2.87 2.45 4.48 6.02 4.68 10.46l.03.78Zm60.44-13.89h8.94v4.7c1.36-1.71 2.82-3.02 4.46-3.96 2.21-1.27 4.69-1.84 7.58-1.84 3.18 0 5.86.68 8.02 2.15 1.8 1.22 3.19 2.95 4.22 5.18 1.52-2.33 3.25-4.08 5.33-5.29 2.45-1.43 5.33-2.06 8.8-2.06 5.33 0 9.51 1.72 12.04 5.11 1.13 1.5 1.86 2.94 2.3 4.95 .43 1.97.58 4.47.58 8.06v29.71h-8.95V55.42c0-2.76-.05-4.4-.23-5.58 -.18-1.14-.45-1.83-.95-2.69 -1.2-2.07-3.84-3.46-7.17-3.46 -3.1 0-5.41 1.03-6.96 2.93 -1.58 1.92-2.46 4.84-2.46 8.77v27.94h-8.95V55.47c0-4.39-.4-6.49-1.38-8.28l-.01-.02 -.01-.02c-1.11-2.23-3.54-3.51-6.66-3.51 -3.08 0-5.47 1.09-7.11 3.06 -1.66 1.98-2.6 4.93-2.6 8.74v27.85h-8.95V36.52ZM511.78 63.2h-37.39c.18 1.47.42 2.61.78 3.63 .41 1.18 1.01 2.22 1.9 3.4l0 0 0 0c2.78 3.82 6.86 5.87 11.5 5.87 5.3 0 10.32-2.91 12.82-7.37l.31-.57 7.93 2.97 -.37.74c-3.86 7.83-11.85 12.59-20.73 12.59 -13.83 0-23.74-10.18-23.74-24.32 0-14.33 9.78-24.62 23.43-24.62 13.53 0 23.63 10.26 23.63 23.92v0c0 .58 0 1.89-.1 3l-.07.68ZM231.31 24.64c0-3.17 2.38-5.57 5.54-5.57 3.09 0 5.44 2.53 5.44 5.66 0 3.08-2.51 5.46-5.55 5.46 -3.08 0-5.45-2.42-5.45-5.57Zm50.67 23.6c-2.43-2.85-5.86-4.5-9.94-4.5 -4.24 0-7.77 1.67-10.25 4.55 -2.49 2.89-3.96 7.05-3.96 12.06 0 4.8 1.44 8.84 3.86 11.67 2.41 2.81 5.81 4.45 9.84 4.45 8.19 0 14.29-6.84 14.29-16.33 0-4.97-1.45-9.08-3.88-11.93Zm67.13-5.89c4.21-4.33 10.18-6.8 17.21-6.8 13.74 0 23.53 10.28 23.53 24.61 0 13.65-10.5 24.31-23.83 24.31 -6.89 0-12.79-2.53-16.96-6.89 -4.18-4.36-6.58-10.49-6.58-17.63 0-7.2 2.4-13.31 6.61-17.63Zm27.63 5.98c-2.5-2.79-6.08-4.4-10.43-4.4 -4.45 0-8.11 1.61-10.65 4.4 -2.56 2.79-4.05 6.82-4.05 11.72 0 4.85 1.49 8.85 4.03 11.63 2.53 2.77 6.16 4.39 10.56 4.39 8.41 0 14.49-6.57 14.49-16.04 0-4.91-1.47-8.94-3.98-11.74Zm97.77 7.83h27.89c-.32-2.91-.98-4.62-2.33-6.57 -2.7-3.63-7.06-5.87-11.81-5.87 -4.75 0-9 2.23-11.49 5.94 -1.18 1.86-1.76 3.48-2.29 6.48ZM236.83 19.8c-2.74 0-4.8 2.06-4.8 4.81 0 2.74 2.05 4.81 4.69 4.81 2.63 0 4.79-2.07 4.79-4.72 0-2.75-2.06-4.91-4.7-4.91Zm0 0c-2.74 0-4.8 2.06-4.8 4.81 0 2.74 2.05 4.81 4.69 4.81 2.63 0 4.79-2.07 4.79-4.72 0-2.75-2.06-4.91-4.7-4.91Z"/></g></svg>