<svg viewBox="0 0 256 256" xmlns="http://www.w3.org/2000/svg" xmlns:xlink="http://www.w3.org/1999/xlink"><defs><linearGradient id="a" x1="20.937%" x2="67.33%" y1="135.775%" y2="141.765%"><stop offset="0%" stop-color="#1A7D75"/><stop offset="100%" stop-color="#1A8864"/></linearGradient><linearGradient id="b" x1="5.878%" x2="-17.307%" y1="11.117%" y2="72.271%"><stop offset="1.29262%" stop-color="#168A81"/><stop offset="100%" stop-color="#31A97F"/></linearGradient><linearGradient id="c" x1="-144.301%" x2="-70.358%" y1="53.433%" y2="117.633%"><stop offset="0%" stop-color="#27A59B"/><stop offset="100%" stop-color="#64D8A2"/></linearGradient><linearGradient id="d" x1="-143.419%" x2="-4.694%" y1="60.47%" y2="180.917%" xlink:href="#c"/><linearGradient id="e" x1="208.845%" x2="86.111%" y1="-141.922%" y2="-183.712%" xlink:href="#c"/></defs><path fill="url(#a)" d="M231.38 105.75c12.3-.6 23.2 8.95 24.26 21.27 4.6 59.59-48.96 126.24-125.82 128.38 -12.32.34-22.59-9.4-22.93-21.75 -.35-12.36 9.36-22.65 21.68-22.99 50.99-1.42 83.29-45.46 81.56-81.51 -.6-12.35 8.9-22.83 21.21-23.43Z"/><path fill="url(#b)" d="M22.55 104.48c12.32 0 22.31 10.01 22.31 22.37 0 51.57 41.46 84.95 82.88 83.93 12.31-.31 22.55 9.46 22.85 21.81 .3 12.35-9.44 22.61-21.76 22.91C64.05 257.09-.01 205.24-.01 126.83c-.001-12.36 10.21-22.38 22.53-22.38Z"/><path fill="url(#c)" d="M175.64 128.59c0-12.66 10.31-22.91 23.04-22.91h33.58c12.72 0 23.36 10.25 23.36 22.9 0 12.65-10.64 22.9-23.37 22.9h-33.59c-12.73 0-23.05-10.26-23.05-22.91Z"/><path fill="url(#d)" d="M105.16 128.62c0-12.67 10.25-22.94 22.88-22.94 12.63 0 22.88 10.27 22.88 22.93s-10.26 22.94-22.89 22.94c-12.64 0-22.89-10.28-22.89-22.95Z"/><path fill="url(#e)" d="M150.3 21.44c.51 12.34-9.06 22.77-21.37 23.28 -53.15 2.21-85.6 43.98-84.02 83.65 .49 12.34-8.9 22.75-21.21 23.24 -12.32.49-23.15-9.48-23.64-21.82C-2.52 65.15 51.3 1.25 127.06-.01c12.31-.52 22.7 9.08 23.21 21.42Z"/></svg>