<svg viewBox="0 0 512 132" xmlns="http://www.w3.org/2000/svg"><path fill="#0BA0BE" d="M43.94 112.52c-10.88 0-21.08-2.81-29.94-7.71l-9.3 16.24c11.6 6.44 24.97 10.12 39.22 10.12s27.62-3.69 39.22-10.13l-9.3-16.25c-8.86 4.9-19.07 7.7-29.94 7.7"/><path d="M98.64 0v19.8H80.68c-.01 0-.03 0-.05 0 4.41 6.87 6.95 15.15 6.95 24.21 0 24.73-19.17 44.14-43.81 44.14C18.96 88.15-.04 68.73-.04 44 -.04 19.09 18.95.02 43.76.02 55.22.01 65.5 4.15 73.21 11.07c2.06-2.31 5.26-5.66 7.16-7.07 2.07-1.54 1.75-1.49 3.98-2.52C86.58.45 90.36-.06 98.58-.06v0Zm100.95.05c24.63 0 43.8 19.06 43.8 43.97 0 24.73-19.17 44.14-43.81 44.14 -24.81 0-43.81-19.42-43.81-44.15 0-24.91 18.99-43.98 43.8-43.98Zm97.72 0c24.63 0 43.79 19.06 43.79 43.97 0 24.73-19.17 44.14-43.8 44.14 -24.81 0-43.8-19.42-43.8-44.15C253.5 19.1 272.49.03 297.29.03ZM471.19 0c7.34 0 13.67 1.31 18.79 3.91 5.1 2.59 9.35 6.03 12.65 10.22 3.28 4.18 5.69 8.95 7.15 14.18 1.45 5.19 2.18 10.53 2.18 15.89v0 6.11h-65.02c.16 2.84.87 6.13 2.13 8.51 1.45 2.75 3.39 5.14 5.76 7.08 2.38 1.96 5.19 3.51 8.34 4.59 3.16 1.09 6.48 1.65 9.86 1.65 4.53 0 8.5-1.07 11.82-3.16 3.4-2.16 6.58-5.04 9.45-8.58v0l.76-.95 13.6 10.44 -.78 1c-8.77 11.38-21.2 17.15-36.94 17.15 -6.53 0-12.53-1.14-17.86-3.37 -5.33-2.24-9.91-5.37-13.61-9.33 -3.7-3.95-6.58-8.66-8.57-14 -1.99-5.33-3-11.17-3-17.37 0-6.22 1.09-12.07 3.26-17.41 2.16-5.34 5.18-10.05 8.99-13.98 3.8-3.95 8.41-7.08 13.67-9.31 5.27-2.24 11.07-3.37 17.26-3.37ZM361.48 1.97l22.35 60.43 22.69-60.44h19.64l-32.48 84.16h-19.73L341.8 1.95h19.64ZM151.83-.02v19.8h-17.96c-.19 0-1.39.39-2.65.82l-.45.15c-.75.25-1.48.5-2.01.68v0 64.69h-18.09V1.93h18.08v6.62c1.7-1.79 3.56-3.61 4.83-4.55 2.07-1.54 1.75-1.49 3.98-2.52s6.01-1.54 14.23-1.54v0ZM297.3 18.41c-14.03 0-24.81 11.5-24.81 25.59 0 14.08 10.77 25.59 24.8 25.59 14.2 0 24.63-11.51 24.63-25.6 0-14.09-10.44-25.6-24.64-25.6ZM43.77 18.4c-14.03 0-24.81 11.5-24.81 25.59 0 14.08 10.77 25.59 24.8 25.59 14.2 0 24.63-11.51 24.63-25.6 0-14.09-10.44-25.6-24.64-25.6Zm155.79 0c-14.03 0-24.81 11.5-24.81 25.59 0 14.08 10.77 25.59 24.8 25.59 14.2 0 24.63-11.51 24.63-25.6 0-14.09-10.44-25.6-24.64-25.6Zm271.26-3.54c-3.57 0-6.88.68-9.84 2.03 -2.98 1.36-5.53 3.14-7.58 5.3 -2.06 2.17-3.68 4.62-4.81 7.27 -.95 2.2-1.5 3.74-1.66 5.9v0h45.99c-.2-2.81-.7-4.75-1.5-7.12 -.91-2.69-2.29-5.05-4.11-7.03 -1.82-1.98-4.11-3.55-6.83-4.68 -2.75-1.14-6.02-1.71-9.71-1.71Z"/></svg>