<svg viewBox="0 0 256 267" xmlns="http://www.w3.org/2000/svg"><g transform="translate(4 3)"><path fill="#92C83E" d="M33.06 178l35.27-67.79 28.1 47.39 -35.83 57.31 -27.56-36.93Z"/><path fill="#4B843D" d="M55.66 209.42l67.23-131.17 36.37 68.33 -51.81 89.83 -51.81-27.01Z"/><path fill="#92C83E" d="M98.09 233.12l93.13-190.14s30.31 34.72 37.47 50.7c6.61 14.88 4.96 47.94-5.52 73.84 -10.48 25.9-31.97 45.19-44.09 50.15 -50.16 22.04-81.02 15.43-81.02 15.43v0Z"/><path fill="#FFF" d="M248 124C248 55.66 192.33 0 124 0 55.66 0 0 55.66 0 124c0 62.82 47.39 115.18 108.56 122.89v13.22l25.9-12.68c63.37-4.96 113.52-58.42 113.52-123.45v0ZM124 225.95c-52.91 0-101.96-49.05-101.96-101.96C22.03 71.08 71.08 22.03 123.99 22.03c52.9-.001 101.95 49.04 101.95 101.95 0 52.9-49.05 101.95-101.96 101.95v0Z"/></g></svg>