<svg viewBox="0 0 256 156" xmlns="http://www.w3.org/2000/svg"><defs><linearGradient id="a" x1="73.715%" x2="8.171%" y1="4.104%" y2="50%"><stop offset="0%" stop-color="#959595"/><stop offset="100%" stop-color="#CCC"/></linearGradient></defs><path opacity=".263" fill="url(#a)" d="M255.85 146.5c0 4.99-57.28 9.04-127.93 9.04 -70.66 0-127.93-4.05-127.93-9.05 -.01-3.24 24.38-6.22 63.96-7.84s88.34-1.62 127.92 0c39.58 1.61 63.96 4.6 63.96 7.83v0Z"/><path fill="#499848" d="M110.63 150.14c-2.48-.79-2.49-1.14-.21-8.07 2.27-6.92 1.23-13.35-2.99-18.4 -5.75-6.87-8.51-12.73-9.4-19.9 -.76-6.16-1-6.65-3.51-7.13 -1.69-.33-4.01.31-9.54 2.62 -8.06 3.35-9.97 4.83-11.87 9.12 -1 2.25-1.12 3.6-.56 6.21 .69 3.18 3.52 8.31 4.59 8.32 .27 0 1.82 1.06 3.43 2.35 2.67 2.14 2.85 2.51 2.09 4.26 -1.65 3.79-5.55 8.4-7.13 8.4 -.89 0-4.5-2.53-8.48-5.94 -7.81-6.69-8.14-7.36-8.95-18.32 -.97-13.08 2.25-19.18 16.57-31.46l8.98-7.71 .57-4.68c.59-4.82-.25-16.29-1.65-22.61 -.83-3.74-3.57-7.31-6.16-8.02 -2.83-.79-4.49.83-6.64 6.47 -2.32 6.08-4.54 8.21-8.58 8.21 -2.52 0-4.86-1.61-6.48-4.45 -1.17-2.03-1.84-14.23-1.15-20.65 .33-3.09.35-6.22.04-6.95 -.51-1.2-4.86-3.78-15.11-8.97 -1.87-.95-4.04-2.22-4.83-2.83 -.8-.61-2.85-1.73-4.57-2.49 -3.9-1.73-14.05-7.66-13.1-7.66C17.78-.14 25.4 2.2 29.46 4c2.47 1.1 4.84 2 5.26 2 .42 0 5.19 1.53 10.61 3.41 5.41 1.87 10.36 3.41 10.99 3.41 1.5 0 1.74-1.31 1.25-6.95 -.22-2.57-.21-4.67.02-4.67 .23-.001 1.22.49 2.21 1.1 3.01 1.84 9.51 2.98 17.15 2.98 7.3 0 16.82 1.45 20.47 3.11 5.22 2.37 11.28 9.78 18.97 23.21 5.34 9.33 11.08 13.28 19.31 13.29 3.32 0 12.2-1.37 24.22-3.75 9.91-1.96 22.99-2.4 28.07-.95 6.19 1.77 14.38 6.51 21.16 12.24 6.33 5.36 7.31 6.55 11.21 13.67 4.64 8.49 9.77 20.57 14.33 33.75 .64 1.87 2.02 5.03 3.05 7.02 2.74 5.29 2.6 5.61-2.38 5.61 -5.41 0-7.95-.86-11.5-3.87 -3.41-2.89-4.29-4.66-9.62-19.12 -2.73-7.41-5.39-11.86-7.08-11.86 -1.17 0-3.52 7.93-3.52 11.86 0 2.78 1.74 6.54 6.25 13.49 7.33 11.28 11.18 27.22 9.64 39.87l-.67 5.46 -4.89.2c-7.7.32-7.62.42-7.62-10.58 0-11.72-.8-14.25-5.97-18.98 -2.15-1.97-6.97-7.54-10.71-12.39 -3.74-4.86-7.33-8.82-7.96-8.82 -1.47 0-2.2 3.98-2.28 12.41 -.06 5.54-.27 6.48-1.91 8.19 -4.44 4.63-7.56 13.07-9.48 25.66 -.43 2.78-.79 3.3-2.6 3.71 -2.66.59-10.02.69-10.66.14 -.55-.48.41-8.05 2.58-20.42 .82-4.7 1.72-11 2-14.01 .49-5.36-.61-15.38-1.91-17.41 -.54-.85-3.29-1.03-16.15-1.08 -8.53-.04-17.87-.32-20.78-.63l-5.28-.57v2.34c0 2.5.64 4.71 4.93 16.98 1.51 4.32 3.7 10.9 4.87 14.63l2.12 6.78 -1.8 5.51c-.99 3.03-2.45 6.66-3.25 8.07 -1.42 2.48-1.58 2.55-5.55 2.5 -2.25-.03-5.09-.38-6.32-.77h-.01Z"/></svg>