<svg viewBox="0 0 256 141" xmlns="http://www.w3.org/2000/svg"><path d="M105.18.35c.02.02-.06.41-.23 1.11l-.09.32c-.02.05-.03.11-.05.17l-.1.38c-.02.06-.04.13-.06.2l-.12.43v0l-.13.47v0l-.14.5v0l-.15.54v0l-.16.57v0l-.26.93v0l-.28 1v0l-.2.7v0l-.32 1.12v0l-.34 1.18v0l-.36 1.25v0l-.25.87v0l-.39 1.35v0l-.4 1.41v0l-.56 1.97v0l-.74 2.6v0l-.79 2.73v0l-.66 2.28v0l-.51 1.76v0l-.7 2.41v0l-.72 2.47v0l-.92 3.18v0l-.76 2.6v0l-.78 2.65v0l-21.33 73.19v0l-1.32 4.51v0l-1.01 3.44v0l-.96 3.26v0l-.8 2.68v0l-.94 3.17v0l-.58 1.92v0l-.61 2.03v0l-.39 1.3v0l-.42 1.38v0l-.19.61v0l-.23.73v0l-.2.63v0l-.17.53v0l-.08.22v0l-.07.19v0l-.06.17v0l-.05.14v0l-.04.11c-.03.08-.05.13-.06.15 -.18.33-.69.52-4.14.63l-.46.01c-.08 0-.16 0-.25 0l-.51.01v0l-.55.01v0l-.58.01v0l-.62 0v0l-.66 0c-.12 0-.23 0-.35 0l-.72 0v0l-.76 0v0l-.8 0v0l-.85 0v0l-.89 0v0l-1.42 0v0l-1.53 0v0l-1.64 0v0l-1.76 0v0l-1.88 0v0l-2 0v0l-3.62 0v0h-4.84v0h-2.83v0l-2.6-.01v0l-2.55-.01v0l-2.48-.01v0l-2.4-.01v0l-1.4-.01v0l-1.82-.01v0l-2.19-.02v0l-2.08-.02v0l-1.97-.02v0l-1.49-.02v0l-1.41-.02v0l-1.32-.02v0l-.93-.02v0l-.88-.02v0l-1.09-.02v0l-.75-.02v0l-.69-.02v0l-.43-.01v0l-.59-.02v0l-.36-.01v0l-.48-.02v0l-.29-.02c-.05-.01-.09-.01-.13-.01l-.24-.02c-.04-.01-.08-.01-.11-.01l-.19-.02c-.29-.02-.45-.04-.46-.06 -.04-.06.45-1.86 1.29-4.87l.33-1.19v0l.36-1.29c.06-.23.12-.46.19-.69l.4-1.44c.06-.25.14-.5.21-.76l.44-1.57v0l.46-1.65v0l.49-1.72v0l.77-2.7v0l.53-1.88v0l.83-2.9v0l.57-1.99v0l.87-3.04v0l.89-3.09v0l.9-3.12v0l.6-2.09v0l.9-3.13v0l.6-2.07v0l.89-3.07v0l.58-2.01v0l.57-1.98v0l.84-2.88v0l.54-1.86v0l.52-1.8v0l.5-1.74v0l.48-1.66v0l.46-1.59v0l.44-1.5v0l.41-1.41v0l.38-1.31c.06-.21.12-.42.18-.62l.34-1.15c.82-2.74 1.33-4.4 1.41-4.53 .09-.16 2.22-.27 5.25-.34l.66-.02c.11-.01.22-.01.34-.01l.69-.02c.11-.01.23-.01.35-.01l.72-.02c.12-.01.24-.01.37-.01l.75-.01c.25-.01.51-.01.76-.01l.77-.01v0l.78-.01c.26-.01.52-.01.79-.01l.79-.01c.26-.01.53-.01.79-.01l.79 0v0l.79 0c.26 0 .52 0 .78 0l.77 0c.25 0 .51 0 .76 0l.75 0v0l.73 0c.24 0 .48 0 .71.01l.69.01c3.54.06 6.14.18 6.25.35 .01.02-.01.17-.07.44l-.04.15v0l-.05.18v0l-.05.2v0l-.06.22v0l-.07.24v0l-.07.26v0l-.08.28v0l-.08.3v0l-.09.32v0l-.19.71v0l-.11.38v0l-.17.61v0l-.24.88v0l-.2.7v0l-.28.99v0l-.22.78v0l-.31 1.1v0l-.33 1.16v0l-.35 1.21v0L43 82.31v0l-.38 1.32v0l-.39 1.36v0l-.51 1.76v0l-.53 1.81v0l-.33 1.11v0l-.55 1.89v0l-.45 1.54v0l-.57 1.93v0l-.56 1.9v0l-.43 1.49v0l-.42 1.45v0l-.41 1.42v0l-.3 1.04v0l-.49 1.69v0l-.37 1.3v0l-.36 1.25v0l-.26.9v0l-.33 1.16v0l-.24.83v0l-.37 1.32v0l-.34 1.22v0l-.13.46v0l-.18.66v0l-.12.41v0l-.16.59v0l-.1.37v0l-.1.35v0l-.09.33v0l-.09.31v0l-.08.29v0l-.07.27c-.02.04-.03.08-.04.12l-.06.24v0l-.06.21v0l-.05.19v0l-.04.17c-.08.32-.11.51-.09.55 .11.31 1.55.49 3.27.56l.25 0c.52.01 1.06.01 1.6.01l.26-.01c1.95-.05 3.75-.24 4.01-.58 .13-.18.89-2.58 2.01-6.32l.34-1.17c.05-.2.12-.41.18-.61l.37-1.28v0l.39-1.34v0l.41-1.4v0l.42-1.46v0l.44-1.51v0l.45-1.56v0l.46-1.6v0l.47-1.63v0l.48-1.66v0l.48-1.68v0l.49-1.7v0l.49-1.71v0l.49-1.72v0l.49-1.72v0l.49-1.72v0l.49-1.71v0l.48-1.7v0l.47-1.68v0l.47-1.65v0l.46-1.62v0l.44-1.59v0l.43-1.55c.07-.26.14-.51.21-.76l.41-1.48v0l.39-1.42c.06-.24.12-.47.19-.69l.37-1.33c1.5-5.39 2.47-9.02 2.39-9.13 -.02-.04-.19-.07-.49-.1l-.14-.02c-.03-.01-.05-.01-.08-.01l-.17-.02c-.03-.01-.06-.01-.09-.01l-.19-.02v0l-.21-.02v0l-.22-.02v0l-.24-.02v0l-.25-.02v0l-.4-.02v0l-.29-.02v0l-.3-.02v0l-.31-.02v0l-.49-.02v0l-.7-.02v0l-.56-.02v0l-.59-.02v0l-.82-.02v0l-.65-.02v0l-.9-.02v0l-1.19-.02v0l-.5-.01v0l-1.27-.02v0l-1.06-.01v0l-1.09-.01v0l-1.41-.01v0l-1.17-.01v0l-1.19-.01v0l-1.22-.01v0l-1.21-.01v0l-1.47-.01v0l-1.43-.01v0l-1.12-.01v0l-1.36-.01v0l-.8-.01v0l-1.03-.01v0l-1-.02v0l-.73-.01v0l-1.16-.02v0l-.67-.02v0l-1.05-.02v0l-.4-.01v0l-.58-.02v0l-.55-.02v0l-.52-.02v0l-.65-.02v0l-.31-.01v0l-.43-.02v0l-.4-.02v0l-.25-.01v0l-.34-.02v0l-.21-.02v0l-.19-.02v0l-.18-.02c-.03-.01-.06-.01-.08-.01l-.15-.02v0l-.13-.02c-.24-.03-.37-.05-.39-.07 -.02-.02.01-.18.07-.45l.04-.18v0l.05-.21v0l.05-.24v0l.06-.27v0l.07-.3v0l.08-.32v0l.09-.35v0l.15-.57v0l.16-.63v0l.25-.92v0l.28-1.01v0l.15-.54v0l.32-1.15v0l.34-1.23v0l.37-1.31v0l.29-1.03v0l.4-1.44v0l.54-1.89v0l.69-2.4v0l.6-2.1v0l.63-2.18v0l.65-2.26v0l.67-2.32v0l.55-1.9v0l.7-2.42v0l8.86-30.15 34-.12v0l2.64-.01v0l1.84-.01v0l1.81-.01v0h1.42v0h1.7v0l2.9 0v0l2.41 0v0l1.97 0v0l1.56 0v0l1.77 0v0l1.39 0v0l1.05 0v0l1.47.01v0l1.34.01v0l.62 0v0l.39 0v0l.91.01v0l.33 0v0l.62.01v0l.41.01v0l.37.01v0l.33.01v0l.2 0v0l.18 0v0l.16 0c.02 0 .05 0 .07 0l.13 0v0l.11 0c.15.01.24.02.25.03Zm21.64 92.2l-.02.04c-1.86 8.13-6.93 15.65-16.6 16.01l-.3 0H80.98l2.61-8.81h28.07c-.01 0 0 0 0 0 8.68.02 13.47-.77 15.11-7.25l0-.03Zm-21.56-25.87h.25v0l.34 0v0l.44 0v0l.46 0v0l1.99.02v0l.67 0v0l.55 0v0l.42 0v0l.29 0v0l.44-.01v0l.3-.01v0l.46-.01v0l.31-.01v0l.31-.01c.05-.01.1-.01.16-.01 10.47.23 11.08 1.91 10.9 12.83l-.02.69v0l-.02.71h-.06l-.01-.26v0l-.01-.5v0l-.03-1.36v0l-.01-.41c-.1-4.7-.5-5.07-6.28-5.03l-.51 0v0l-1.97.02v0l-.63 0c-.11 0-.22 0-.33 0l-.67 0c-.35 0-.7 0-1.07 0l-.37 0h-5.55c-6.8 4.99-9.15 15.63-2.64 20.89l-.08-.04v0l-.17-.08c-.03-.02-.06-.03-.09-.04l-.18-.08v0l-.28-.12v0l-.71-.3v0l-.22-.1v0l-.33-.15v0l-.23-.1v0l-.23-.11c-2.9-1.29-6.68-3.36-8.26-7.51 -1.51-4.85-.58-11.76 3.4-15.94 2.32-2.44 4.46-3.05 7.65-3.18l.22-.01c.07-.01.15-.01.23-.01l.23-.01v0l.23-.01c.04-.01.08-.01.12-.01l.36-.01v0ZM127.12 91c-.08.47-.17.92-.27 1.35l-.05.18 .04-.22c.09-.44.18-.88.26-1.32ZM247.77.32c.01.01-.01.17-.07.44l-.04.17c-.02.06-.04.13-.05.2l-.06.23v0l-.07.26v0l-.08.29v0l-.09.31v0l-.09.34v0l-.1.37v0l-.11.39v0l-.18.64v0l-.19.69v0l-.21.74v0l-.22.79v0l-.32 1.14v0l-.35 1.22v0l-.37 1.3v0l-.39 1.38v0l-.31 1.08v0l-.32 1.12v0l-.34 1.15v0l-.46 1.59v0l-.48 1.65v0l-.37 1.27v0l-.64 2.19v0l-.66 2.26v0l-.55 1.85v0l-.56 1.89v0l-.57 1.92v0l-.29.97v0l-8.74 29.67 -13.45.11v0l-.87 0v0l-.64 0v0l-1.05 0v0l-1.03 0v0l-.6-.01v0l-.98-.01v0l-.76-.01v0l-.73-.01v0l-.36-.01v0l-.69-.01v0l-.66-.01v0l-.48-.01v0l-.61-.02v0l-.43-.01v0l-.28-.01v0l-.27-.01v0l-.26-.01v0l-.49-.02v0l-.34-.02v0l-.22-.01v0l-.3-.02v0l-.19-.01v0l-.18-.01v0l-.17-.01v0l-.15-.02v0l-.14-.02c-.03-.01-.05-.01-.07-.01l-.12-.02v0l-.11-.02c-.22-.03-.35-.06-.38-.08 -.04-.04-.02-.27.06-.68l.03-.17v0l.03-.18v0l.04-.2v0l.04-.21v0l.05-.23c0-.04.01-.08.02-.12l.05-.25v0l.06-.27v0l.06-.28v0l.07-.3v0l.11-.47v0l.08-.33v0l.13-.52v0l.09-.36v0l.14-.57v0l.1-.4v0l.1-.41v0l.22-.85v0l.11-.44v0l.18-.68v0l.19-.71v0l.27-.98v0l.21-.76v0l.29-1.05v0l.3-1.08v0l.31-1.12v0l.24-.86v0l.25-.88v0l.25-.89v0l.26-.91v0l.35-1.23v0l.69-2.39v0l.58-2.02v0l.48-1.68v0l.61-2.14v0l.43-1.52v0l.47-1.67v0l.31-1.12v0l.35-1.26v0l.27-.97v0l.15-.54v0l.14-.51v0l.21-.79v0l.11-.43v0l.13-.52v0l.12-.46v0l.07-.3v0l.08-.34v0l.05-.21v0l.02-.12v0l.02-.1c.02-.11.03-.18.03-.21 0-.05-.01-.09-.01-.14l-.01-.04c-.05-.21-.22-.34-.67-.42l-.08-.02v0l-.09-.02c-.02-.01-.03-.01-.05-.01l-.09-.01c-.04-.01-.07-.01-.1-.01l-.1-.01c-.02-.01-.04-.01-.06-.01l-.11-.01v0l-.12-.01v0l-.13-.01v0l-.2-.01v0l-.14-.01v0l-.15-.01v0l-.16-.01v0l-.25-.01v0l-.26 0v0l-.28 0v0l-.3 0v0l-.53 0v0l-.46 0v0l-.76.01v0l-4.99.12 -5.91 19.84v0l-.72 2.38v0l-.69 2.29v0l-.42 1.37v0l-.64 2.09v0l-.53 1.71v0l-.49 1.58v0l-.39 1.24v0l-.36 1.13v0l-.37 1.17v0l-.19.59v0l-.17.53v0l-.16.46v0l-.11.3v0l-.09.27v0l-.06.15v0l-.08.2v0l-.05.11v0l-.04.09c-.04.09-.07.16-.08.18 -.14.2-3.22.36-7.23.45l-.72.01c-.13 0-.25 0-.37 0l-.75.01v0l-.76.01c-.13 0-.26 0-.39 0l-.78.01c-.26 0-.52 0-.78 0l-.79 0v0l-.79 0c-.27 0-.53 0-.79 0l-.79 0c-.4 0-.78 0-1.17 0h-.77c-.77-.01-1.51-.01-2.23-.01l-.71-.01c-.12-.01-.24-.01-.35-.01l-.68-.01c-3.32-.05-5.72-.16-5.83-.34 -.01-.02 0-.1.03-.24l.03-.14c0-.03.01-.06.01-.08l.04-.18c0-.04.01-.07.02-.11l.05-.23v0l.1-.39v0l.07-.3v0l.08-.32v0l.14-.53v0l.15-.59v0l.17-.65v0l.19-.7v0l.2-.75v0l.3-1.08v0l.41-1.47v0l.45-1.6v0l.38-1.37v0l.41-1.44v0l.54-1.89v0l.57-1.99v0l.6-2.08v0l.62-2.17v0l.38-1.34v0l.8-2.75v0l.82-2.84v0l.7-2.42v0l8.87-30.17 33.63-.12v0l2.07-.01v0l1.53-.01v0l2.5-.01v0l2.43-.01v0l2.35 0v0l2.26 0v0l2.16 0v0l1.65 0v0l1.58 0v0l1.5 0v0l1.42 0v0l1.01 0v0l1.27.01v0l1.18.01v0l.82.01v0l.76.01v0l.48 0v0l.45 0v0l.42 0v0l.58.01v0l.35 0v0l.32 0v0l.29 0v0l.26 0v0l.23 0c.07 0 .14 0 .2 0l.17 0c.24.01.37.03.38.04ZM177 .32c.01.01-.02.16-.09.44l-.05.17c-.01.03-.02.06-.03.1l-.06.22v0l-.07.25v0l-.08.27v0l-.09.3v0l-.09.33v0l-.1.35v0l-.16.58v0l-.18.64v0l-.2.69v0l-.21.74v0l-.31 1.07v0l-.25.86v0l-.35 1.22v0l-.38 1.3v0l-.3 1.02v0l-.63 2.17v0l-.56 1.92v0l-.59 2.02v0l-.62 2.11v0l-.51 1.74v0l-.79 2.71v0l-.82 2.8v0l-.71 2.39v0l-.43 1.46v0l-8.73 29.67 -33.23.11v0l-2.1 0v0l-2.57 0v0l-1.51 0v0l-2.94 0v0l-1.9-.01v0l-2.29-.01v0l-2.19-.01v0l-1.68-.01v0l-1.22-.01v0l-1.93-.01v0l-1.45-.01v0l-1.37-.02v0l-1.59-.02v0l-.6-.01v0l-.85-.01v0l-.79-.02v0l-.73-.02v0l-.46-.01v0l-.43-.01v0l-.4-.01v0l-.55-.02v0l-.33-.01v0l-.3-.01v0l-.27-.01v0l-.24-.01c-.48-.03-.74-.05-.76-.07 -.01-.02.01-.15.06-.37l.03-.17c0-.03.01-.07.02-.1l.05-.21v0l.06-.24v0l.06-.27v0l.07-.3v0l.08-.32v0l.14-.53v0l.15-.59v0l.17-.65v0l.19-.7v0l.28-1.01v0l.3-1.1v0l.42-1.5v0l.36-1.29v0l.59-2.08v0l.31-1.1v0l.54-1.91v0l.46-1.6v0l.6-2.08v0l.37-1.29v0l.51-1.77v0l.66-2.27v0l.81-2.81v0l.84-2.89v0l9.01-30.66 13.44-.12v0l.86-.01v0l1.06-.01v0l1.03-.01v0l.6-.01v0l.59 0v0l.97 0v0l.75 0v0l.72 0v0l.35 0v0l.51 0v0l.5 0v0l.64 0v0l.45 0v0l.44 0v0l.42 0v0l.4.01v0l.37.01v0l.35.01v0l.33.01v0l.21 0v0l.29.01v0l.18 0v0l.17 0v0l.16 0v0l.14.01v0l.13.01c.02 0 .04 0 .06 0l.11.01v0l.1.01c.21.02.34.05.37.07 .03.03.01.26-.07.67l-.04.16c-.01.02-.02.05-.02.08l-.04.18v0l-.05.2v0l-.05.21c-.01.03-.02.07-.03.11l-.06.24v0l-.07.25c-.02.04-.03.08-.04.13l-.07.27v0l-.08.29v0l-.12.46v0l-.09.32v0l-.09.33v0l-.14.53v0l-.15.56v0l-.22.79v0l-.23.84v0l-.25.88v0l-.2.69v0l-.2.71v0l-.28.99v0l-.3 1.03v0l-.31 1.06v0l-.24.82v0l-.25.84v0l-.34 1.15v0l-.35 1.18v0l-.27.9v0l-.36 1.22v0l-.62 2.09v0l-.43 1.45v0l-.66 2.25v0l-.32 1.08v0l-.61 2.08v0l-.5 1.71v0l-.52 1.81v0l-.3 1.04v0l-.33 1.16v0l-.3 1.04v0l-.26.92v0l-.15.54v0l-.1.36v0l-.09.33v0l-.08.29v0l-.07.26v0l-.04.15v0l-.05.19v0l-.03.1v0l-.02.09c-.02.08-.03.13-.03.15l0 .03c0 .25.11.41.54.51l.06.01v0l.07.01v0l.07.01v0l.08.01c.01 0 .02 0 .04 0l.08 0c.03 0 .06 0 .09 0l.09 0c.01 0 .03 0 .05 0l.1 0v0l.11 0v0l.12 0v0l.12 0v0l.2 0v0l.14 0v0l.15 0v0l.15 0v0l.25-.01v0l.26-.01v0l.38-.01v0l.3-.01v0l.44-.01v0l.35-.01v0l.63-.02v0l4.98-.13 5.8-19.55v0l.8-2.69v0l.68-2.3v0l.65-2.18v0l.54-1.8v0l.51-1.68v0l.34-1.13v0l.32-1.05v0l.35-1.16v0l.27-.88v0l.24-.79v0l.17-.57v0l.12-.39v0l.14-.46v0l.06-.21v0l.08-.28v0l.07-.24v0l.04-.14v0l.04-.12v0l.03-.1c.01-.03.02-.06.02-.08l.02-.06c.01-.03.01-.04.02-.05 .12-.2 2.86-.35 6.53-.44l.69-.02c.11-.01.23-.01.35-.01l.72-.02c.24-.01.49-.01.74-.02l.75-.02c.25-.01.5-.01.76-.02l.77-.02c.12-.01.25-.01.39-.01l.78-.01v0l.78-.01c.26-.01.52-.01.78-.01l.78-.01c.26-.01.51-.01.77-.01l.77-.01v0l.76 0c.5 0 .99 0 1.48 0l.71 0c.11 0 .23 0 .35 0l.68 0c3.48.04 6.04.15 6.15.33Zm78.93 24.63c.43 2.3-2.75 13.44-4.29 15 -1.47 1.48-3.69 1.62-5.36.35l-.06-.04c-1.66-1.31-1.86-2.74-.61-7.74l.08-.35c.02-.12.06-.24.09-.36l.09-.37v0l.1-.39v0l.1-.4v0l.14-.55v0l.11-.42v0l.14-.53v0l.1-.38v0l.1-.37v0l.1-.35v0l.06-.23v0l.06-.22v0l.09-.32v0l.06-.21v0l.09-.3v0l.05-.19v0l.08-.28v0l.05-.18v0l.05-.17v0l.05-.17v0l.05-.16c0-.03.01-.06.02-.08l.05-.16v0l.05-.15v0l.05-.15c0-.03.01-.05.02-.07l.05-.14v0l.05-.13v0l.05-.13c0-.03.01-.05.02-.07l.05-.12v0l.05-.12v0l.05-.12c.02-.06.05-.11.07-.16l.05-.11v0l.05-.1v0l.05-.1v0l.05-.1c.01-.03.03-.06.05-.09l.05-.09v0l.05-.09c.09-.15.18-.28.28-.4l.05-.07c0-.02.01-.03.02-.04l.05-.07v0l.05-.06v0l.05-.06v0c2.26-2.3 6.23-1.11 6.82 2.04ZM67.49 21.68l-.44-.01v0h-.42v0l-.28 0v0l-.36 0v0l-.34 0v0l-.17 0v0l-.32 0v0l-.23 0v0l-.29.01v0l-.21 0v0l-.2 0v0l-.2.01v0l-.13 0v0l-.18.01v0l-.18.01v0l-.17.01v0l-.11.01v0l-.11.01v0l-.1.01v0l-.1.01v0l-.14.01v0l-.09.01c-.02 0-.03 0-.05 0l-.12.02v0l-.08.01v0l-.08.01v0l-.07.01v0l-.07.01v0l-.07.01v0l-.06.01v0l-.06.01c-.02 0-.04.01-.06.01l-.05.01v0l-.05.01c-.01 0-.02 0-.03 0l-.05.01c-.01 0-.02 0-.02 0l-.04.01c-.07.03-.12.07-.15.11 -.07.09-.21.44-.4.98l-.09.24v0l-.09.26v0l-.1.28v0l-.1.3v0l-.11.32v0l-.11.33v0l-.12.35v0l-.18.55v0l-.12.38v0l-.13.39v0l-.19.61v0l-.2.63v0l-.2.64v0l-.2.65v0l-.13.44v0l-.26.88v0l-.2.65v0l-.13.43v0l-.19.64v0l-.18.62v0l-.12.4v0l-.17.59v0l-.11.38v0l-.11.37v0l-.1.35v0l-.1.34c-.02.05-.03.11-.05.16l-.09.31c-.02.05-.03.1-.04.15l-.08.28v0l-.07.26c-.16.64-.25 1.08-.25 1.24l0 .03c0 .02 0 .04 0 .06l0 .03c.04.18.17.3.51.39l.06.01v0l.06.01c.02 0 .04 0 .07.01l.07.01v0l.07.01c.01 0 .02 0 .04 0l.08.01v0l.09.01c.01 0 .03 0 .04 0l.09 0v0l.1 0v0l.1 0v0l.11 0v0l.18.01v0l.12 0v0l.13 0v0l.14 0v0l.14 0v0l.23 0v0l.24 0v0l.35 0v0l.37 0v0l.51 0v0l.65 0v0l.27-.01v0l.35-.01v0l.25-.01v0l.24-.01v0l.24-.01v0l.3-.01v0l.22-.01v0l.21-.01v0l.2-.01v0l.19-.02v0l.18-.02v0l.12-.01v0l.23-.02v0l.16-.02v0l.1-.02v0l.15-.02v0l.09-.02v0l.09-.02v0l.09-.02v0l.08-.02c.01-.01.02-.01.04-.01l.08-.02v0l.11-.03v0l.07-.02v0l.07-.02v0l.06-.02v0l.06-.02c.01-.01.02-.01.03-.01l.05-.02v0l.05-.02c.01-.01.03-.02.05-.02l.04-.02v0l.04-.02c.01-.01.02-.02.04-.02l.03-.02c.08-.05.14-.09.18-.14 .08-.11.27-.61.52-1.35l.09-.28c.01-.05.03-.1.04-.15l.09-.31v0l.1-.33c.01-.06.03-.12.05-.17l.1-.35v0l.11-.37v0l.11-.38v0l.11-.39v0l.12-.4v0l.12-.41v0l.18-.63v0l.25-.86v0l.19-.66v0l.19-.67v0l.12-.45v0l.19-.67v0l.18-.66v0l.12-.44v0l.12-.43v0l.17-.63v0l.11-.41v0l.1-.4v0l.1-.39v0l.1-.38v0l.09-.36v0l.09-.35c.01-.06.02-.12.04-.17l.08-.32v0l.07-.3v0l.06-.28c.17-.72.28-1.22.28-1.39l-.01-.02v0l-.01-.04c-.02-.19-.1-.32-.34-.42l-.05-.02c-.04-.02-.07-.03-.11-.04l-.06-.02c-.04-.01-.07-.02-.1-.03l-.07-.02c-.02-.01-.03-.01-.04-.01l-.08-.02v0l-.08-.02v0l-.09-.02v0l-.09-.02c-.02-.01-.04-.01-.05-.01l-.1-.01v0l-.16-.02v0l-.17-.02v0l-.12-.01v0l-.19-.01v0l-.2-.01v0l-.29-.01v0l-.32-.01v0l-.34-.01v0l-.18-.01v0l-.38-.01v0l-.41-.01v0Z"/></svg>