<svg viewBox="0 0 256 192" xmlns="http://www.w3.org/2000/svg"><path fill="#FF0" d="M94.91 42.18l-16.96 2.75 -15.47 6.78 -13.14 8.26 -12.51 15.25 -7.07 7.48 -6.84 2.51 -1.81-4.42 3.15-4.56 .7-6.43 2.11.08 2.31 2.1 -.63-6.56 -2.57-1.72 .07-2.5 -6.08 3.43 -5.5 6.48 -1.15 5.79 2.35 4.64 2.19 7.88 4.45 2.11 4.69-.24 4.44-2.59 -2.97 15.04 2.96 16.74 -3.27 7.73 -10.7 11.52 1.9 6.88 5.06 7.97 9.55 6.72 5.06.69 5.63.19 -3.52 14.43 12.92 5.29 16.1 2.11 5.5-3.61 .42-9.75 6.14-10.18 .42-8.06 14.83 1.05 13.77-1.28 -13.78 8.26 2.33 9.96 8.68 13.56 8.47 3.6 6.78-2.76 2.75-5.51 14.19-10.81 2.75 2.33 22.25.84 4.44-3.61 .42-6.36 -1.49-2.76 -1.07-17.17 -7.42-14.84 1.27-6.58 4.44 2.33 12.5 11.65 6.14.42 6.78-2.76 6.78-5.09 3.38-11.03 19.92 1.27 12.07-4.67 9.74-9.12 6.99-13.14 1.69-15.48 -1.49-18.02 -3.82-16.11 -3.82-5.09 -5.3-1.7 -9.33 10.17 -8.48 2.96 -7.42-12.3 -7.42-6.79 -4.03-2.55 -16.11-13.36 -12.93-7 -12.93-1.06 -15.05 2.54 -13.14 4.87 -9.12 7.41 -7.21 8.68 -7.42 2.11 -12.93 12.29"/><g fill="#FFC"><path d="M45.74 80.43c-14.53 16.93-11.3 37.48-7.28 57.6 -2.15-5.43-4.3-10.86-6.45-16.29 -.8-4.98-1.59-9.96-2.38-14.93 .22-5.09.45-10.18.67-15.27 2.03-4.87 4.07-9.73 6.1-14.59 3.05-4.53 6.1-9.05 9.15-13.57 4.74-3.96 9.49-7.92 14.24-11.88 5.19-2.15 10.4-4.3 15.6-6.45 6.1-.8 12.21-1.59 18.31-2.38C88.04 49.11 82.39 55.55 76.74 62c-13.62 4.41-21.65 7.39-31.06 18.36"/><path d="M114.11 28.82c-10.1 9.85-15.62 17.27-22.04 28.81 -4.6 8.25-9.76 16.19-14.59 24.33 -2.45 4.11-2.68 7.57-3.41 12.31 -2.38-2.83-4.75-5.66-7.13-8.48 1.13-3.4 2.26-6.79 3.39-10.18 3.84-6.9 7.68-13.8 11.53-20.7 8.14-8.03 16.28-16.06 24.42-24.09 2.59-.68 5.2-1.36 7.8-2.04"/><path d="M163.97 4.4c-8.09 3.03-21.52 4.03-22.45 13.31 -.67 6.59.49 9.9 4.46 16.87 -9.82-10.16-12.24-8.59-31.21-5.43 2.71-3.85 5.42-7.69 8.14-11.54 4.74-2.95 9.49-5.89 14.24-8.82 6.1-1.36 12.21-2.72 18.31-4.08 2.82-.12 5.65-.23 8.47-.34"/></g><g fill="#CC0"><path d="M186.28 129.94c2.69 1.66 2.63 2.86 2.18 4 2.12-.85 4.24-1.7 6.37-2.55 1.37-1.85 2.75-3.7 4.12-5.55 1.02-2.64 2.04-5.27 3.06-7.9 -1.31-.99-2.61-1.97-3.92-2.95 -5.71.72-11.41 1.45-17.11 2.18 -.43 1.15-.85 2.3-1.28 3.45 .12 1.63.24 3.27.36 4.91 .54.97 1.09 1.94 1.63 2.91 .84.42 1.69.84 2.54 1.27 .66.05 1.33.12 2 .18"/><path d="M184.69 100.68c-8.58 2.47-8.51 3.15-11.05 11.66 3.34-5.37 5.81-8.08 11.04-11.67"/><path d="M241.71 37.01c-1.53.7-3.01 1.04-3.97 2.43 -2.06 3-3.82 5.52-7.21 7.63 -1.71 1.06-3.48 1.74-5.29 2.31 -1.51.46-2.41.04-3.69.96 .75.13 1.51.26 2.27.39h5.02c2.06-1.28 4.12-2.55 6.18-3.83 1.21-1.28 2.42-2.55 3.64-3.83 1-2.04 2-4.08 3.01-6.11"/><path d="M105.1 56.04c-3.38 9.23-6.33 17.14-11.44 25.5 6.54-7.06 10.51-13.06 14.27-21.04 1.45-3.1 1.73-6.74 5.79-5.39 .18 3.09.83 6.18 1.01 9.28 2.19-15.72 8.37-22.3 22.75-28.4 -4.07.48-8.14.97-12.2 1.45 -3.83.84-7.65 1.69-11.47 2.54 -1.89 2.73-3.77 5.46-5.65 8.19 -1.04 2.6-2.07 5.21-3.1 7.82"/><path d="M132.95 55.68c3.1 14.59 7.56 28.59 9.5 43.41 1.25 9.63 1.39 14.25-3.45 22.56 -5.3-.35-8.59.25-13.71 1.93 -20.4 6.68-32.09 16.51-45.83-3.3 4.38 2.06 8.77 4.13 13.16 6.2 3.12-.62 6.25-1.23 9.38-1.85 5.52-3.22 11.04-6.44 16.56-9.65 4.3-.85 8.61-1.7 12.92-2.55 1.39-5.83 2.79-11.65 4.18-17.48 -1.04-7.71-2.07-15.42-3.1-23.12 -.13-3.64-.25-7.28-.37-10.93 .24-1.77.48-3.52.72-5.28"/><path d="M168.08 145.96c-1.72 11.85 3.94 18.22 1.6 21.5 -.67.92-1.57 2.54-2.57 2.98 -3.59 1.58-8.52-.3-8.87.62H146.4c-1.58-.67-3.16-1.34-4.74-2.01 2.42-2.86 4.85-5.71 7.28-8.56 2.36-5.16 4.73-10.32 7.09-15.48 1.51-5.22 3.03-10.44 4.55-15.66h2.36c1.69 5.52 3.39 11.04 5.09 16.56"/><path d="M148.2 111.5c.96 5.38 2.63 6.66 5.16 11.87 -1.69 8.49-4.4 18.6-7.66 26.1 -1.38 3.16-2.49 4.9-4.91 7.35 -4.09 4.12-8.23 7.72-12.87 11.3 -3.34 2.57-5.67 1.28-9.79.69 -1.76 3.17-2.24 4.93-5.46 6.55 -4.96 2.47-9.4-2.87-13.29-6.01 2.81 4.38 5.62 8.77 8.42 13.16 1.94 1.82 3.88 3.63 5.82 5.45 1.63.24 3.27.48 4.91.72 2.18-1.34 4.36-2.68 6.55-4.01 1.15-2.19 2.3-4.37 3.45-6.56 2.42-1.83 4.85-3.65 7.28-5.47 2.97-2.55 5.94-5.1 8.91-7.65 1.88-2.67 3.76-5.34 5.64-8.01 1.69-3.16 3.39-6.31 5.09-9.47 2.18-6.56 4.36-13.11 6.55-19.66 .18-2.49.36-4.98.54-7.47 -2.74-1.22-5.46-2.43-8.2-3.65 -2.01-1.88-4.24-3.46-6.24-5.34"/><path d="M82.9 149.42c9.18 0 18.88-.52 27.3-4.37 2.38-3.58 4.73-6.49 7.64-9.65 -2.66 5-3.49 7.83-4.19 13.46 -.92 1.33-1.82 2.66-2.74 4 -6.92.18-13.84.36-20.75.54 -2.25-.25-4.49-.49-6.74-.73 -.25-.25-.49-.49-.73-.73 .06-.85.12-1.7.18-2.55"/><path d="M81.62 143.05c-.24-2.16-.48-4.31-.72-6.47 -1.57 9.44-1.2 15.77-5.55 24.24 -3.25 3.76-7.25 7.18-11.83 9.01 .38 2.31.5 3.77.27 5.47 -.81 6.11-13.05 3.41-18.09 3.17 8.07 2.08 16.15 4.15 24.23 6.23 1.82-.73 3.63-1.46 5.46-2.19 .6-3.52 1.21-7.04 1.82-10.56 1.69-3.16 3.39-6.32 5.09-9.47 .3-1.95.6-3.89.91-5.83 -.55-4.56-1.1-9.11-1.64-13.66"/><path d="M67.97 89.72c-.26 4.59-.55 6.5 1.47 10.56 2.57 5.15 5.73 10 8.53 15.09 .3-3.4.6-6.8.91-10.2 -3.64-5.16-7.29-10.32-10.93-15.48"/><path d="M30.61 124.42c-.79 1.67-1.58 3.35-2.37 5.03 2.16 7.3 4.09 11.93 8.22 18.31 -.72 2.58-1.26 3.71-2.92 5.82 -3.64-.56-6.87-.73-10.55-.71 4.06 3.15 8.13 6.31 12.19 9.46 2-.37 4-.73 6-1.1 2-2.01 4-4.01 6-6.01 -2.86-4.43-5.71-8.86-8.56-13.29 -2.69-5.85-5.38-11.7-8.06-17.54"/><path d="M241.74 34.59c2.47 11.13 5.66 21.41 5.37 32.82 -.37 13.99-3.1 31.67-16.06 40.11 -14.53 9.45-31.57 4.98-47.51.93 6.49 2.67 12.98 5.33 19.47 8 6.06.3 12.13.6 18.2.9 4.12-1.22 8.25-2.43 12.37-3.64 3.21-2.68 6.43-5.34 9.64-8.01 2.42-5.1 4.85-10.2 7.28-15.29 .91-5.89 1.81-11.78 2.72-17.66 -.73-5.77-1.46-11.53-2.19-17.3 -1.34-5.71-2.68-11.41-4.01-17.11 -1.78-1.27-3.56-2.53-5.34-3.8"/><path d="M25.02 67.79c-6.6 4.29-9.19 6.17-8.46 14.12 .65 2.38 1.31 4.76 1.97 7.14 .93.63 1.86 1.26 2.79 1.88 1.15.38 2.3.76 3.45 1.14 2.08-.5 4.16-.99 6.24-1.48 1.06-3.32 2.13-6.63 3.2-9.94 -2.96 1.45-5.92 2.9-8.88 4.35h-2.06c-.77-1.18-1.54-2.36-2.31-3.54 .93-1.37 1.86-2.74 2.79-4.11 .49-2.61.98-5.21 1.47-7.81 .62.19 1.25.38 1.88.57 .76.6 1.53 1.2 2.3 1.8 -.11-1.37-.22-2.74-.33-4.11 -.52-.88-1.05-1.76-1.57-2.63 -.52-.44-1.04-.88-1.56-1.32 -.33 1.28-.66 2.57-.99 3.85"/><path d="M172.93 5.12c5.85 5.43 13.03 10.15 17.71 16.79 1.81 2.56 3.82 3.88-.04 7.51 4.07-1.17 5.58-1.04 8.84-.65 5.92.71 11.48 9.14 11.84 15.18 -.07.56-1.65 1.84-6.24 3.11 -.1.17-2.59-.35-2.53-.18 .47 1.3 1.11 1.5 2.08 2.11 .21 1.45.34 3.68 1.33 5.27 2.88-.06 5.7.26 8.52.82 .95 1.57.8 3.15.72 4.73 1.09-.19 2.18-.37 3.27-.55 -.31-2.49-.61-4.98-.91-7.47 .97-1.64 1.94-3.28 2.91-4.92 -1.4-3.16-2.8-6.32-4.19-9.47 -2.67-2.55-5.34-5.1-8.01-7.65 -.26-.02-.52-.03-.77-.04 -3.01-1.85-6.01-3.69-9.01-5.53 -4.9-4.01-9.8-8.02-14.69-12.02 -3.64-2.38-7.28-4.75-10.91-7.13"/><path d="M182.79 49.97c-.31.53-.78 1.4-1.38 2 2.43 2.3 3.63 3.84 4.5 7.1 -2.76 1.36-5.52 2.73-8.27 4.1 -2.34 2.23-4.67 4.47-7 6.7 -3.07-1.66-3.84-2.92-5.32-6.07 -1.73.45-3.37.89-4.8.37 .9 0 1.46-.22 2.36-.78 1.48-1.55 2.96-3.09 4.45-4.63 2.61-1.99 5.24-3.97 7.86-5.96 1.71-.56 3.42-1.12 5.14-1.68 .65-.27 1.75-.93 2.41-1.2"/><path d="M190.39 58.19c-8.77 4.71-17.16 9.46-21.65 18.42 0-11.38 11.42-16.39 21.64-18.43"/><path d="M167.01 35.81c-6.51 4.43-11.12 13.39-10.54 22.12 -2.12-7.56-1.37-14.7 5.14-19.92 1.09-.54 2.19-1.07 3.29-1.61 .69-.21 1.39-.41 2.09-.61"/></g><g><path d="M254.6 56.42c-1.19-7.45-3.14-14.67-5.86-19.87 -.34-.64-.84-1.28-1.46-1.9 -1.35-1.33-3.35-2.59-5.41-3.3 -2.19-.76-4.5-.91-6.33.05 -.48.24-.92.56-1.31.96 -1.19 1.2-2.19 2.65-3.19 4.12 -1.12 1.62-2.24 3.26-3.58 4.4 -1.56 1.32-3.5 2.13-5.33 2.86 -.81-1.95-1.73-3.73-2.78-5.4 -1.26-2-2.68-3.87-4.25-5.75 -1.29-1.53-2.54-2.68-3.89-3.71 -1.36-1.04-2.74-1.91-4.36-2.92 -4.33-2.72-8.02-5.95-11.78-9.24 -1.71-1.5-3.44-3.02-5.12-4.41C181 4.93 172.65 1.35 163.72.79c-8.87-.56-18.24 1.87-29.29 6.53 -5.34 2.24-9.3 4.89-12.75 8.08 -3.3 3.05-6.1 6.56-9.18 10.66 -1.8.12-3.38.39-5 1.04 -1.79.71-3.59 1.86-5.74 3.76 -1.53 1.34-2.99 2.7-4.41 4.06 -1.33 1.27-2.61 2.58-3.88 3.89 -10.07 1.61-18.27 3.4-25.61 6.24 -7.51 2.9-14.13 6.91-20.93 12.94 -2.78 2.46-5.19 5.06-7.29 7.82 -2.07 2.7-3.84 5.55-5.4 8.55 -1.37 1.5-2.73 3.02-4.2 4.35 -1.44 1.29-2.98 2.38-4.69 3.04l0 0c-1 .38-1.42.6-1.46.59 -.05-.03-.08-.18-.15-.46 2.46-2.36 2.85-5.82 3.08-9.25 .29.35.58.79.87 1.24 .32.5.65 1.02 1.05 1.52l1.67 2.11 .58-2.64c.49-2.21.86-5.15.28-7.7 -.38-1.66-1.15-3.13-2.48-4.18 .12-.34.24-.65.36-.95 .42-1.08.85-2.18 1.22-3.22l.72-2.07 -2.16.37c-2.88.49-9.06 3.89-13.4 8.4 -1.62 1.67-3.01 3.52-3.92 5.47 -.95 2.02-1.38 4.13-1.01 6.25 .32 1.85 1.24 3.66 2.93 5.38 .3 1.23.58 2.3.89 3.27 .34 1.1.72 2.08 1.18 3.05 1.26 2.63 3.28 4.24 5.61 4.99 1.87.6 3.95.63 5.98.18 -.4 2.3-.65 4.7-.75 7.33 -.13 3.43-.01 7.23.37 11.63 .08.96.2 2.03.36 3.18 .13.98.3 1.95.48 2.91 -.39 1.03-.77 2.07-1.15 3.11 -.6 1.61-1.19 3.22-1.78 4.83 -1.31 1.29-2.61 2.58-3.92 3.87 -1.22 1.2-2.44 2.4-3.65 3.61 -.11.1-.52.49-.89.85 -2.47 2.37-2.96 2.84-2.26 7.01 .42 2.55 1.26 5.14 2.58 7.64 1.21 2.3 2.83 4.54 4.91 6.63 2.6 2.6 6.86 5.84 11.32 7.53 2.55.96 5.17 1.44 7.64 1.04 -.13.37-.25.75-.39 1.14 -.39 1.07-.83 2.14-1.31 3.19 -3.03 6.63.08 10.09 4.91 12.3 2.41 1.1 5.28 1.84 7.95 2.54 .54.14 1.09.28 1.77.46 3.16.85 8.62 2.42 13.6 2.73 5.44.34 10.35-.78 11.66-5.67 .52-1.94.82-3.43.94-4.88 .11-1.35.06-2.72-.09-4.4 1.55-3.44 2.21-4.41 3.34-6.07 .22-.33.49-.73.57-.85 1.21-1.81 1.78-3.09 1.99-4.53 .19-1.4.03-2.78-.23-4.9 -.03-.21-.07-.5-.12-.89 3.18.4 6.32.62 9.45.64 1.58 0 3.17-.04 4.75-.13 -.41.2-.81.41-1.24.63 -.2.09-.4.2-.59.3 -4.21 2.16-4.38 6.25-3.07 10.46 1.18 3.79 3.62 7.67 5.15 10.03 3.22 4.96 6.29 9.16 10.01 11.44 3.9 2.39 8.36 2.67 14.12-.45 2.92-1.59 3.85-3.21 5.09-5.39 .38-.67.8-1.4 1.26-2.11 1.21-.81 4.22-3.29 7.18-5.74 1-.84 2.01-1.67 3.14-2.59 .78.57 1.72.97 2.86 1.24 1.48.35 3.24.51 5.36.66 1.58.11 6.74.11 10.07.11 1.02 0 1.88 0 2.39 0 3.44.02 6.22-.17 8.32-1.35 2.23-1.27 3.56-3.52 3.85-7.55 .12-1.8.14-2.9-.1-4.03 -.24-1.06-.69-2.02-1.47-3.42 -.05-1.75-.1-3.49-.14-5.23 -.05-1.85-.1-3.7-.15-5.55 -.06-2.18-.3-3.95-.75-5.69 -.44-1.73-1.07-3.4-1.91-5.39 -.57-1.35-1.03-2.59-1.48-3.81l-1.21.44 .18-.07 1.02-.38v-.01c-.73-1.95-1.44-3.84-2.43-5.86 .06-.4.12-.81.19-1.26 .63.61 1.28 1.23 1.91 1.84l2.82 2.72c2.15 2.07 4.13 3.96 6.44 5.33 2.39 1.41 5.09 2.23 8.58 2.06 3.65-.18 7.56-1.72 10.78-4.09 3.11-2.3 5.61-5.4 6.65-8.83 .3-1 .6-1.99.9-2.98 .24-.8.48-1.59.72-2.38 5.12.86 10.62 1.14 15.93.59 5.12-.54 10.07-1.85 14.34-4.13 6.27-3.35 10.98-8.29 14.36-14.15l0 0c3.78-6.55 5.89-14.27 6.7-22.21 .64-6.37.29-15.03-1.04-23.38v0Zm-66.39 53.51c-2.96-1-5.01-2.45-7.61-4.08 .7 3.18 1.02 6.54.08 9.72 -1.5 5.04-3.91 13.28 2.94 14.81 2.6.57 3.78.49 7.46-1.41 -2.98.67-4.48.5-6.53.12 -1.86-.35-2.84-1.52-3.36-2.91 .64.46 1.7.72 3.5 1.15 5.07 1.22 9.9-1.23 10.85-4.74 .55-2.06.45-3.14 1.62-5.94 1.04.32 2.13.61 3.24.88 -.63 2.04-1.26 4.09-1.89 6.14 -1.64 5.32-7.99 9.6-13.6 9.51 -5.19-.1-8.48-3.34-12.06-6.53 -2.47-2.2-4.85-4.3-7.2-6.38 -6.46-2.04-11.63-4.42-17.62-8.86 4.26 5 7.15 7.78 13.1 10.27 -.87 8.82-3.93 15.25-6.55 23.69 -1.19 3.81-10.53 19.11-13.11 20.6 -1.85 1.06-13.41 10.79-15.58 12.08 -1.62 2.15-3.05 5.12-5.48 6.4 -7.42 3.92-12.19-3.59-16.18-9.94 -1.82-2.9-6.87-11.22-2.47-13.55 4.16-2.21 6.49-3.78 10.73-6.57 .62 1.13 1.69 2.23 2.39 3.36 -.16-1.25-.31-2.49-.47-3.73 -.28-2.26-.27-4.08-.09-6.35 .17-2.2.34-4.39.51-6.58 -.64 2.22-1.92 4.45-2.56 6.68 -.26.89-.47 1.61-.59 2.27 -9.53 1.94-18.98 2.06-28.51.36 -.61-3.53-1.35-7.21-1.97-9.84 -.19 2.95-.07 11.1-.09 15.67 -.02 3.53-.17 4.74-1.99 7.76 -1.71 2.81-2.44 3.45-4.83 8.21 .19 3 .2 4.99-.6 7.84 -1.33 4.74-14.73 1.06-18.26.1 -4.36-1.2-13.35-2.97-11.09-8.76 1.99-5.11 3.25-10.49 4.22-17.63 -7.98-11.49-15.39-27.22-16.81-41.17 -1.11-10.83-.45-17.49 1.9-24.11 3.71-10.5 8.9-19.58 17.23-26.89 11.23-9.87 21.74-13.83 38.19-16.33 -3.96 4.42-7.88 9.11-12.14 14.13 -4.32 5.08-6.89 10.21-9.63 15.77 -3.79 7.67-3.71 10.6 1.31 17.34 4.32 5.81 6.66 8.42 8.55 14.11 -1.56 3.21-2.13 5.93-2.66 10.32 5.29 5.79 9.23 9.76 14.38 10.98 5.04 1.19 9.25.96 13.77-1.34 10.02-5.13 19.3-11.75 30.61-12.03 5.23-12.87 4.7-23.62 2.19-36.07 -1.72-8.51-2.41-16.55-2.94-25.22 -2.13 8.92-2.53 16.77-.95 25.66 1.89 10.71 3.37 22.55-1.91 31.96 -10.23.78-19 7-28.22 11.77 -3.71 1.91-7.57 2.1-11.67.98 -3.81-1.05-6.38-3.57-10.48-8.3 -.07-4.75 1-6.95 3.18-11.25 3.5-6.91 7.37-13.34 11.61-20.14 -5.2 6.27-10.13 11.51-14.22 17.81 -1.57-4.46-3.8-6.72-7.51-11.74 -3.62-4.9-4-7.05-1.3-12.72 2.71-5.7 5.02-10.71 9.65-15.71 7.99-8.64 15.32-18.25 24.06-26.76 4.74-4.62 6.67-4.46 12.97-5.42 5.69-.87 11.25-1.96 17.05-3.31 -5.62.52-11.05.71-16.52.85 -.06 0-.12 0-.17 0 5.37-6.87 8.5-10.7 17.23-14.5 21.5-9.35 35.17-10.36 52.06 3.85 4.37 3.68 8.2 7.25 12.64 10.43 -1.61.13-3 .42-4.84 1.14 2.23-.43 4.81-.01 7.13.42 .65.42 1.31.83 2 1.23 3.13 1.84 4.91 2.86 7.03 5.82 2.24 3.12 4.1 6.23 5.75 9.67 -1.08-.39-1.99-.72-2.79-.96 -.6-.28-1.24-.46-1.93-.52 -1.36-.14-2.66.2-3.74.86 -.05.01-.09.03-.14.06 -1.74.84-4.42 1.8-6.22 2.09 .91.31 2.94.43 3.9.05 .12-.06.25-.09.39-.13 -.44.73-.72 1.56-.8 2.46 -.12 1.19.12 2.33.64 3.33 0 0 0 0 0 .01 .16.38.38.73.63.98 -.83.3-1.66.64-2.53 1.02 4-.62 7.62-.72 11.53-.21 .25 1.23.51 2.54.75 3.86 -.49.03-.97.07-1.46.11 -.04 0-.08 0-.12.01 -1.86-1.48-3.92-1.24-6.73-.59 -8.57 1.95-6.56 6.76-10.5 14 4.09-5.01 3.78-10.24 10.45-11.82 1.55-.37 2.61-.83 3.66-.68 -1.9.95-3.54 2.53-4.18 4.36 -1.84 5.16-.7 9.52-2.71 14.35 2.49-4.32 2.64-8.53 4.86-13.07 .79-1.64 3.76-4.25 5.59-4.29 .5-.02.99-.03 1.5-.04 .43 2.87.7 5.72.53 8.09 -.32 4.31-1.44 10.72-2.11 13.17 2.25-2.91 3.28-9.05 4.27-13.37 1.03-4.51.77-9.91-.14-14.75 -1.24-6.64 5.59-5.56 9.56-8.69 2.91-2.31 4.92-5.98 7.6-8.58 2.65-2.58 6.82 1.21 7.87 3.73 4.52 10.94 6.58 28.16 5.39 39.2 -1.35 12.38-7.33 25.89-18.25 31.99 -13.93 7.77-30.34 3.02-44.17-1.64v0Zm-19.79 54.99c-.46 5.1-2.16 5.44-6.65 5.36 -2.04-.04-10.16-.08-12.22-.26 -2.91-.26-4.55-.52-5.44-1.18 4.57-3.36 12.34-17.22 13.85-21.99 1.6-5.04 3.35-9.44 4.65-14.1 .59 1.94 1.07 3.87 1.94 5.94 1.45 3.45 2.16 5.59 2.27 9.29 .1 3.91.22 7.82.33 11.73 1.25 2.19 1.44 2.66 1.22 5.16v0Zm-137.6-38.71c2.9 10.04 7.84 19.91 13.33 28.2 0 .04-.01.09-.01.14 -.35 1.42-.75 2.81-1.58 3.93 -3.92 5.24-13.89-2.46-16.78-5.4 -3.16-3.23-5.27-7.04-5.77-10.62 -.37-2.61-.01-2.68 1.8-4.52 2.45-2.49 4.9-4.97 7.36-7.46 .53-1.44 1.07-2.87 1.61-4.31v0Zm-5.55-63.17c-.75 1.59-1.28 2.8-1.64 4.05 -1.57 5.39.7 10.21-4.2 14.12 2.3 4.64 2.19 6.49 7.55 4.35 2.06-.83 3.77-2 5.29-3.37 -.73 1.87-1.4 3.8-2.04 5.8 -.11.33-.21.66-.31.99 -3.84 1.62-8.87 2.65-10.8-1.37 -.94-1.96-1.47-3.88-2.15-6.35 -6.31-6.54 3.12-15.17 8.25-18.27v0Zm3.1 6.92c-.78-.78-1.41-1.31-2.41-1.2 .08-.67.19-1.3.35-1.9 .08-.31.16-.61.25-.92 1.3.76 1.65 2.13 1.79 4v0Zm189.17-24.42c.23.5.47 1.01.7 1.53 -.2.13-.38.28-.55.44 -.32-.73-.77-1.39-1.33-1.94 .37-.02.76-.03 1.15-.04v0ZM35.39 75.2l-.01-.01 0 0v0Zm-20.54 6.93h0 -.01v0Zm69.03 72.16h0 -.01v0Zm56.86 16.97v0h-.01 0v0Zm23.11-43.93h0l-.01 0v-.01 0ZM25.89 83.03v-.01l-.01 0 -.05-.12 .04.11v0Zm221.85 18.23v0l.02.01 -.03-.02v0Z"/><path d="M3.68 81.53c1-11.37 3.21-16.28 11.29-24.84C4.83 63.82 2.31 67.07 3.67 81.52"/><path d="M1.07 72.25C2.18 67.13 3.22 65.2 6.37 61 1.25 64.57.58 66.04 1.06 72.24"/><path d="M119.92.93c-6.07 1.46-7.23 2.58-9.05 8.53 2.9-4.36 4.57-5.78 9.04-8.54"/><path d="M129.49.06c-12.04 2.95-15.58 5.04-19.58 18.99 5.08-10.22 8.93-13.98 19.57-19"/><path d="M155.41 50.92c1.28-5.69 3.56-11.17 12.39-15.4 -11.71 2.93-13.9 7.84-12.4 15.39"/><path d="M229.86 51.31c6.92-2.48 10.26-8.05 11.92-14.6 -2.72 5.49-6.9 10.08-12.59 12.9 -3.06 1.5-5 .98-8.41.66 3.46.99 5.65 2.24 9.06 1.03"/><path d="M182.66 56.88c-.93-1.94-2.55-3.33-4.42-4.01 1.69-.91 3.36-1.87 4.67-3.05 -3.82 1.76-8.26 1.33-11.53 3.54 -2.89 1.94-6.87 8.11-9.8 10.73 2.12-.83 4.16-2.25 6.04-3.76 0 1.11.25 2.24.76 3.31 .76 1.59 1.99 2.81 3.45 3.58 -1.06 1.38-1.94 2.94-2.56 4.67 5.57-6.62 13.66-11.61 21.27-13.75 -2.13-.03-4.65.36-7.21 1.21 -.1-.86-.33-1.71-.72-2.53"/><path d="M174.63 106.84c-.28 1.71-.65 3.84-.92 5.55 .72-1.94 1.59-4.2 2.43-6.04 .89-1.96 1.39-2.14 3.29-3.18 1.34-.74 3.78-1.74 5.13-2.48 -1.39.23-3.87.74-5.25.97 -3.7.62-4.14 1.51-4.71 5.15"/><path d="M111.49 40.74c-4.3 4.24-8.46 18.79-9.79 24.61 2.09-4.84 7.34-18.37 11.37-21.81 1.11-.96 1.88-1.54 2.72-1.96 -2.89 4.83-2.68 6.03-1.66 12.5 .85-6.59 3.13-9.13 6.87-14.04 4.09-1.03 7.92-2.26 12.12-3.9 -4.74.53-9.47 1.02-14.21 1.47 -3.98.37-4.62.31-7.44 3.1"/></g><g fill="#FFC"><path d="M169.93 65.51c-.79-1.64-.09-3.61 1.55-4.39 1.63-.79 3.61-.09 4.39 1.55 .07.15.13.31.18.47 -1.57 1.16-3.01 2.53-4.21 4.11 -.81-.33-1.53-.92-1.93-1.76"/><path d="M206.57 51.34c.13-1.36 1.28-2.36 2.64-2.23 1.35.13 2.35 1.34 2.22 2.69 -.03.28-.11.55-.23.8 -1.25.21-2.49.57-3.76 1.04 -.54-.55-.96-1.55-.89-2.33"/></g></svg>