<svg viewBox="0 0 512 132" xmlns="http://www.w3.org/2000/svg" xmlns:xlink="http://www.w3.org/1999/xlink"><defs><linearGradient id="a" x1="49.083%" x2="49.083%" y1="4.311%" y2="95.786%"><stop offset="0%" stop-color="#F1CB2B"/><stop offset="100%" stop-color="#D62B5F"/></linearGradient><linearGradient id="b" x1="143.212%" x2="143.212%" y1="-204.867%" y2="86.049%" xlink:href="#a"/></defs><path d="M275.94 39.18c23.79 0 33.26 8.38 33.26 23.12v0 35.69c0 6.49.27 11.22 2.43 16.49v0h-25.97c-1.36-2.03-2.3-4.47-2.84-7.04 -4.74 6.49-11.36 8.92-20.42 8.92 -15.28 0-23.94-9.33-23.94-22.45 0-14.47 8.24-22.72 31.91-25.7v0l11.76-1.49v-2.84c0-5.01-1.36-7.04-6.63-7.04 -5.28 0-7.17 2.16-7.31 6.76v0h-26.91c.54-15.69 12.71-24.48 34.61-24.48ZM466.7 41.2v42.72c0 7.16 2.83 9.46 7.83 9.46 6.49 0 10.41-5.41 10.41-12.58v0V41.18h27.04v73.28h-25.7v-9.2c-5.68 7.57-12.44 11.08-22.72 11.08 -12.85 0-23.94-7.44-23.94-25.83v0V41.15h27.04ZM172.57 19.83v34.21h28.39V19.83h28.66v94.65h-28.67V76.75h-28.4v37.72h-28.67V19.81h28.66ZM346.4 41.19v73.28h-27.05V41.18h27.04Zm37.89-21.37v45.29l21.76-23.94h30.29l-26.91 27.58 28.12 45.7h-31.24l-15.29-26.91 -6.76 7.03v19.87h-27.05V19.78h27.04Zm-102.16 62.2l-5.95.94c-7.71 1.21-10.42 3.78-10.42 7.84 0 3.92 2.56 5.94 6.35 5.94 5.94 0 10-4.06 10-9.61v0 -5.14Zm50.73-76.54c7.97 0 14.87 5.94 14.87 13.92 0 7.84-6.9 13.92-14.88 13.92 -7.85 0-14.88-6.09-14.88-13.93 0-7.98 7.03-13.93 14.87-13.93Z"/><path fill="url(#a)" d="M91.94.39l-.82-.3c-.36-.09-.73-.12-1.1-.1 -.58.03-1.15.19-1.65.48 -5.61 2.28-11.85 4.84-18.05 7.45 -1.12.46-1.12 2.05 0 2.51l15.04 6.26c.51.21.84.71.84 1.26 0 4.92.07 9.54.01 14.47 -.01.54-.34 1.02-.84 1.24L45.74 50.34c-.91.37-1.9-.29-1.9-1.27l0-37.16c0-1.43-.8-2.51-2-3.12 -.12-.07-.23-.12-.36-.18L21.67.21c-.54-.23-1.12-.33-1.7-.3 -.58.03-1.15.19-1.65.48C12.92 2.59 6.49 5.24.76 7.63c-1.11.46-1.13 2.02-.03 2.5l14.74 6.51c.49.21.81.7.81 1.25V65.3c.11.51.32.96.6 1.32 .28.47.76.9 1.47 1.23l43.57 20.73 .23.09c.47.23 1 .36 1.57.36l.25-.01c.9-.07 1.74-.48 2.35-1.14 .61-.67.95-1.54.94-2.44V70.8c0-.6.38-1.13.95-1.31l16.13-5.13c.88-.29 1.78.37 1.78 1.3l-.02 62.89c-.01.55.33 1.05.85 1.26l.74.3c.23.09.48.17.74.21 1.02.34 2.13.31 3.14-.09l19.75-8.09c.75-.34 1.27-.71 1.59-1.13 .49-.53.79-1.21.79-2.19V11.73c0-1.07-.49-1.94-1.23-2.56 -.32-.31-.7-.56-1.13-.74L91.75.13Z"/><path fill="url(#b)" d="M43.97 101.85c0-.54-.3-1.03-.79-1.25L21.19 90.15c-.44-.19-.9-.28-1.37-.28 -.47-.01-.94.08-1.37.26 -.44.17-.83.44-1.16.77 -.34.33-.6.72-.77 1.15 -.08.17-.13.34-.18.52v36.13c0 .54.32 1.03.82 1.25l1.15.49c.11.04.23.09.36.12 .93.45 2.05.52 3.09.1l19.58-7.81c.7-.3 1.31-.79 1.73-1.43 .42-.64.65-1.39.65-2.15 .01-.11.01-.22.01-.32l.16-17.18Z"/></svg>