<svg viewBox="0 0 256 295" xmlns="http://www.w3.org/2000/svg" xmlns:xlink="http://www.w3.org/1999/xlink"><defs><linearGradient id="a" x1="49.083%" x2="49.083%" y1="4.311%" y2="95.786%"><stop offset="0%" stop-color="#F1CB2B"/><stop offset="100%" stop-color="#D62B5F"/></linearGradient><linearGradient id="b" x1="143.212%" x2="143.212%" y1="-204.867%" y2="86.049%" xlink:href="#a"/></defs><path fill="url(#a)" d="M206.68.89l-1.84-.66c-.81-.2-1.64-.27-2.47-.23 -1.31.07-2.58.44-3.71 1.08 -12.61 5.14-26.63 10.89-40.57 16.75 -2.52 1.05-2.51 4.61.01 5.66l33.82 14.08c1.14.47 1.89 1.59 1.89 2.83 .01 11.08.16 21.45.02 32.54 -.02 1.22-.76 2.31-1.88 2.78l-89.07 37.5c-2.03.85-4.27-.64-4.27-2.84l0-83.53c0-3.21-1.8-5.65-4.49-7 -.26-.14-.52-.27-.8-.39L48.78.59c-1.21-.51-2.51-.74-3.81-.67 -1.31.07-2.58.44-3.71 1.08C29.13 5.94 14.67 11.91 1.8 17.29c-2.49 1.04-2.53 4.55-.06 5.64l33.15 14.65c1.11.49 1.83 1.59 1.83 2.81v106.6c.25 1.16.72 2.15 1.36 2.98 .64 1.07 1.7 2.02 3.3 2.78l97.96 46.61 .52.2c1.06.53 2.26.82 3.53.82l.56-.02c2.02-.16 3.91-1.08 5.28-2.57 1.37-1.5 2.13-3.45 2.12-5.48v-32.9c0-1.35.86-2.53 2.14-2.94l36.27-11.53c1.98-.64 4 .85 4 2.93l-.05 141.38c-.01 1.25.75 2.37 1.91 2.84l1.67.68c.53.21 1.09.38 1.67.48 2.3.78 4.8.71 7.06-.2l44.41-18.17c1.7-.75 2.86-1.59 3.59-2.53 1.11-1.18 1.79-2.72 1.79-4.92V26.7c0-2.39-1.09-4.35-2.76-5.74 -.72-.68-1.57-1.24-2.53-1.65L206.48.65Z"/><path fill="url(#b)" d="M98.85 228.98c.01-1.2-.68-2.3-1.76-2.81l-49.44-23.5c-.97-.41-2.02-.63-3.07-.63 -1.06-.01-2.1.2-3.07.6 -.98.4-1.86.99-2.6 1.73 -.75.74-1.34 1.63-1.73 2.6 -.17.38-.3.78-.39 1.18v81.22c0 1.22.72 2.33 1.85 2.82l2.58 1.11c.26.1.53.2.81.28 2.1 1.02 4.61 1.18 6.96.23l44.03-17.55c1.59-.66 2.95-1.77 3.9-3.2 .95-1.43 1.46-3.11 1.47-4.84 .02-.24.03-.48.03-.72l.37-38.6Z"/></svg>