<svg viewBox="0 0 256 262" xmlns="http://www.w3.org/2000/svg"><g fill="#DC3011" fill-opacity=".65"><path d="M152.22 2.78l103.63 117.05 -79.28 134.64 -152.72-33.89L8.94 65.05Z"/><path d="M176.15 10.72l77.03 136.04 -105.54 115.21L5.3 197.07 23.05 41.84Z"/></g><path fill="#DC3011" d="M127.17 0l125.7 92.95 -49.55 148.17 -156.43-1.4L-.03 90.69Z"/><path fill="#FFF" d="M127.93 79.21c28.57 0 51.73 23.16 51.73 51.73 0 28.57-23.17 51.73-51.74 51.73 -28.58 0-51.74-23.17-51.74-51.74 0-28.58 23.16-51.74 51.73-51.74Zm0 11.11c-22.44 0-40.63 18.18-40.63 40.62 0 22.43 18.18 40.62 40.62 40.62 22.43 0 40.62-18.19 40.62-40.63s-18.19-40.63-40.63-40.63Zm18.17 24.31l6.68 9.01 -24.86 30.89 -24.78-30.9 6.63-9.02h36.31Z"/></svg>