<svg viewBox="0 0 512 351" xmlns="http://www.w3.org/2000/svg"><path fill="#9B99A6" d="M17.08 260.95c4.2.36 8.16 1.98 11.91 3.81 2.61 1.34 4.38 3.9 5.26 6.65 2.21 6.12.96 13.24-3.05 18.35 -2.51 3.02-5.55 5.86-9.49 6.8 -5.85 1.72-12.29-.39-16.53-4.62 -5.06-5.6-6.9-14.28-3.44-21.17 2.7-5.85 8.89-9.82 15.31-9.86Zm51.21-57.73c7.76 4.52 15.12 10.06 20.58 17.28 3.66 4.86 6.9 10.07 9.49 15.58 1.83 4.02 3.28 8.34 3.38 12.8 .11 4.28-2.53 8.06-5.55 10.86 -3.45 2.8-6.82 5.76-10.74 7.9 -5.04 2.64-10.96 3.95-16.61 2.89 -6.94-1.16-13.43-4.49-18.68-9.11 1.88-1.21 4-2.9 4-5.36 .38-4.61-4.14-8.62-8.62-8.28 -1.71.75-2.79 2.4-4.02 3.73 -2.82-4.42-5.04-9.61-4.53-14.95 1.42-9.48 4.54-18.87 10.2-26.69 .59-.72.65-1.66.74-2.54 2.86-1.94 4.8-5.15 8.17-6.36 4.11-1.53 8.6-.09 12.13 2.18Zm203.68-83.1c2.85 2.81 4.85 6.51 5.61 10.44 .94 5.49.64 11.18-1.28 16.44 -1.6 5.22-4.26 10.88-9.45 13.29 -.07-3.03-.75-5.99-1.26-8.96 -2.2-11.7-5.61-23.21-10.6-34.03 -.9-2.07-1.91-4.09-3.25-5.92 7.74-.76 14.47 4.1 20.2 8.7Zm28.1-21.26c4.12.63 7.73 3.58 9.38 7.39 2.18 5.12.8 11.65-3.73 15.05 -4.12 3.18-10.4 3.07-14.3-.42 1.97-1.84 4.2-4.38 3.54-7.27 -1.97-2.54-5.88-2.18-8.41-.72 -.61-4.09.81-8.51 4.05-11.16 2.49-2.35 6.06-3.35 9.43-2.92ZM138.9 63.44c1.75.63 3.48 1.59 4.52 3.22 -2.6.46-5.02 1.52-7.46 2.44 -9.66 3.78-19.15 8.02-28.26 12.98 -4.02 2.2-8.03 4.46-11.49 7.48 -2.48 2.2-5.41 3.91-7.51 6.51 -.72-6.76.64-13.91 4.75-19.42 1.78-2.92 4.69-4.81 7.03-7.23 3.23-2.99 7.24-5.02 11.39-6.43 2.78-.48 5.38-1.76 8.23-1.88 6.31-.22 12.75.17 18.76 2.28ZM70.59.08c3.51.85 7.22 2.22 9.34 5.33 3.69 5.22 3.09 12.63-.72 17.62l-.29-.29c-.86-.86-1.7-1.78-2.73-2.42 -1.15-.76-2.97-.12-3.28 1.24 -.41 1.99.55 3.89 1.5 5.58 -3.38.69-7.04 1.15-10.3-.26 -4.88-2.01-8.65-6.79-9.06-12.09 .26-4.38 2.65-8.43 5.7-11.49C63.46 1.14 67-.55 70.54.03Z"/><path fill="#F79727" d="M54.19 256.09c0 2.46-2.12 4.14-4.01 5.35 -2.63 1.61-5.35 3.08-7.92 4.79 -2.68 1.71-5.15 3.76-8.02 5.18 -.89-2.76-2.66-5.31-5.27-6.66 3.25-5.23 8.58-8.62 12.56-13.22 1.22-1.34 2.3-2.99 4.01-3.74 4.47-.34 9 3.66 8.61 8.27Zm240.8-142.45c.65 2.89-1.58 5.42-3.55 7.26 -4.32 3.6-8.86 7.04-13.86 9.65 -.77-3.94-2.77-7.64-5.62-10.45 4.56-3 9.92-4.41 14.6-7.19 2.52-1.46 6.44-1.83 8.4.71ZM76.21 20.34c1.03.64 1.87 1.55 2.72 2.41 1.55 1.91 3.37 3.58 5.05 5.38 6.84 7.52 13 15.63 19.5 23.46 2.98 3.63 5.93 7.28 8.84 10.97l-.44.45c-4.15 1.4-8.16 3.44-11.4 6.42 -1.4-1.44-2.34-3.19-3.4-4.86 -5.76-9.19-11.35-18.49-16.55-28.01 -1.84-3.28-4.26-6.18-6.14-9.43 -.96-1.69-1.92-3.6-1.51-5.59 .31-1.36 2.13-2.01 3.27-1.25Z"/><path fill="#787880" d="M156.4 64.25c6.93-1.11 13.96-.82 20.95-.71 20.53 1.39 41.01 9.29 55.86 23.77 2.08 1.43 3.36 3.67 5.2 5.37 5.24 5.63 9.25 12.25 13.33 18.73 1.33 1.82 2.34 3.84 3.24 5.91 4.98 10.81 8.39 22.32 10.59 34.02 .51 2.96 1.19 5.92 1.25 8.95 -.26 5.21.9 10.42.18 15.63 -.36 2.81-.04 5.68-.56 8.47 -.81 5.25-3.11 10.09-5.44 14.81 -1.12 2.35-3.57 3.52-5.62 4.91 -2.09 1.35-4.86 2.6-7.29 1.35 -3.84-2.19-5.69-6.56-6.57-10.69 -.97-3.84-.63-7.8-.69-11.71 -.61-10.91-1.22-21.91-3.64-32.6 -1.63-7.01-4.4-14.08-9.81-19.04 -3.43-2.9-7.35-5.23-11.57-6.77 -6.31-1.88-12.87-2.96-19.46-2.82 -7.96-.18-15.79 1.48-23.44 3.48 -7.74 2.01-15.05 5.3-22.27 8.69 -5.74 2.42-11.16 5.48-16.67 8.36 -3.09 1.66-6.14 3.41-8.92 5.56 -5.04 3.83-10.45 7.32-14.57 12.19 -4.14 4.87-7.81 10.44-9.06 16.81 -1.58 9.37.21 19 3.55 27.81 3.81 9.71 9.51 18.65 16.57 26.34 4.88 6.11 11.37 10.59 17.67 15.12 3.44 2.26 5.71 6.26 5.73 10.4 -.33 3.45-2.96 6.16-5.68 8.05 -2.94 1.81-6.36 2.98-9.83 2.88 -8.13-.08-16.33-1.05-24.05-3.68 -3.26-1.1-6.25-2.79-9.35-4.22 3.01-2.8 5.66-6.58 5.54-10.87 -.1-4.47-1.55-8.78-3.39-12.81 -2.6-5.51-5.84-10.72-9.5-15.59 -5.46-7.23-12.82-12.76-20.59-17.29 -3.54-2.27-8.03-3.72-12.14-2.19 -3.37 1.2-5.31 4.41-8.18 6.35 -.85-2.45-.45-5.09-.79-7.61 -.43-2.95-.19-5.93-.48-8.89 -.46-4.08-.24-8.18-.31-12.27 -.12-8 .03-16.04 1.26-23.96 1.19-7.35 4.21-14.25 7.63-20.81 3.71-6.95 8.44-13.32 13.79-19.09 2.92-3.37 6.04-6.58 9.52-9.38 3.12-3.38 7.18-5.75 10.1-9.31 2.1-2.61 5.02-4.32 7.5-6.52 3.45-3.02 7.47-5.29 11.48-7.49 9.1-4.96 18.59-9.2 28.25-12.99 2.44-.93 4.86-1.99 7.45-2.45 4.4-.33 8.56-2.05 12.96-2.44Z"/><path fill="#464646" d="M398.32 225.32c2.27 3.29 2.28 7.47 2.23 11.31 4.99-6.09 11.14-11.64 18.78-14.03 9.89-3.06 21.07-1.78 30 3.49 6.12 3.5 10.99 8.95 14.26 15.17 4.75 8.75 6.23 18.9 6.01 28.75 -.26 10.68-3.03 21.57-9.28 30.36 -5.97 8.41-15.63 14.1-25.91 15.09 -7.84.73-16.24-.33-22.84-4.92 -4.26-2.73-7.64-6.51-11.03-10.2 -.07 11.61.01 23.22-.04 34.83 -.09 4.22-.6 8.89-3.6 12.14 -2.37 2.56-6.1 3.16-9.41 2.8 -2.63-.22-5.48-1.27-6.82-3.69 -1.79-3.26-2.14-7.07-2.24-10.72 -.02-34 0-67.98-.02-101.97 .01-3.73.75-7.87 3.65-10.48 4.6-4.04 12.76-3.21 16.18 1.99ZM190.2 188.27c3.38 2.74 4.32 7.34 4.36 11.49 .05 11.68.02 23.36.01 35.04 4.02-4.45 8.54-8.68 14.15-11.01 7.01-2.92 14.92-3.53 22.35-2.1 7.77 1.49 14.9 6.32 18.78 13.27 3.85 6.08 4.31 13.51 4.46 20.53 .02 14.85-.01 29.71.01 44.57 .05 3.61-.21 7.43-2.14 10.58 -3.77 6.35-14.39 6.88-18.69.87 -2.03-3.02-2.42-6.77-2.45-10.31 -.02-13.02 0-26.03-.01-39.05 -.07-6.15-.53-12.66-3.75-18.06 -2.85-4.51-8.69-5.62-13.63-5.27 -8.77.45-16.42 7.62-18.04 16.15 -.81 4.19-.98 8.48-1.07 12.74 -.04 11.32.02 22.65-.03 33.98 -.05 3.91-.85 8.18-3.79 11 -2.84 2.8-7.16 3.35-10.93 2.67 -2.44-.43-4.74-1.75-6.14-3.81 -1.99-2.86-2.46-6.45-2.5-9.84 0-32.71 0-65.41 0-98.11 -.02-4.17-.25-8.6 1.75-12.4 3.06-6.16 12.09-7.08 17.21-3.05Zm317.5 35.72c2.86 2.6 3.87 6.61 3.82 10.36 0 22.46.01 44.93-.01 67.39 -.03 3.78-.83 7.87-3.6 10.64 -3.07 3.23-8.1 4.08-12.23 2.64 -3.22-1.14-5.63-3.98-6.63-7.19 -1.2-3.59-.83-7.4-.88-11.11 .02-21.17-.07-42.33.03-63.49 .01-5.14 2.94-10.67 8.23-11.91 3.85-.98 8.3-.22 11.22 2.61Zm-179.72-3.09c8.13.85 16.93 2.86 22.66 9.15 5.51 6.17 6.75 14.85 7.18 22.83 .19 10.35-.05 20.7-.08 31.05 .02 5.52 1.45 10.9 3.06 16.14 .75 3.03 2.06 6.41.47 9.41 -2.1 3.95-6.64 6.61-11.14 6.13 -2.24-.26-4.22-1.51-5.84-3.02 -3.17-2.99-5.53-6.68-7.84-10.32 -7.58 5.94-16.12 11.24-25.79 12.73 -8.52 1.33-17.76.88-25.33-3.6 -6.43-3.63-11.16-10.15-12.44-17.43 -1-5.81-.18-12.06 2.89-17.15 2.75-4.59 7.04-8.16 11.91-10.31 5.11-2.37 10.76-3.04 16.21-4.27 10.4-2.1 20.76-4.4 30.96-7.34 -.24-4.92-.88-10.22-3.94-14.26 -2.95-3.37-7.76-3.9-11.96-4.1 -5.84-.09-12.29.21-17.03 4.05 -4.38 3.25-6.52 8.43-9.79 12.64 -1.43 1.77-3.96 1.79-6.03 1.82 -4.27.05-8.6-3.02-9.33-7.34 -.56-3.92.57-7.92 2.51-11.31 3.44-6.26 9.81-10.22 16.31-12.7 10.28-3.78 21.49-3.83 32.27-2.92Zm7.01 48.02c-9.2 3.11-18.84 4.52-28.23 6.9 -3.61.98-7.19 2.94-9.34 6.07 -2.73 4.59-1.54 10.98 2.49 14.45 3.73 3.53 9.24 4.15 14.13 3.5 7.18-.91 14.55-4.57 18.1-11.14 2.96-6.14 2.72-13.15 2.83-19.8Zm85.15-30.23c-6.32 1.23-11.69 5.72-14.7 11.31 -3.56 6.8-4.11 14.72-3.67 22.25 .46 7.51 3.05 15.28 8.89 20.34 5.14 4.74 12.85 6.45 19.53 4.34 4.77-1.52 8.78-5.01 11.27-9.32 4.45-7.45 5.18-16.48 4.45-24.95 -.7-7.45-3.42-15.18-9.33-20.07 -4.5-3.8-10.75-5.17-16.47-3.94Zm87.09-49.4c4.83 3.28 5.4 10.51 2.67 15.32 -3.87 6.27-13.64 6.91-18.73 1.82 -2.79-2.68-3.46-6.9-2.78-10.56 .8-4.24 4.47-7.55 8.56-8.57 3.48-.84 7.34-.18 10.25 1.97Z"/></svg>