<svg viewBox="0 0 256 255" xmlns="http://www.w3.org/2000/svg"><path fill="#00ADE5" d="M217.78 131.99c-1.57 4.8-4.11 9.24-7.46 13.03l-19.14 19.02 -37.01-36.8 37-36.8 19.13 18.65c3.35 2.67 5.84 6.25 7.16 10.32 1.32 4.06 1.42 8.42.28 12.54v0Zm-95.15 84.57c-4.72-1.62-9.06-4.18-12.74-7.52L90.8 190.06l37-36.8 37 36.79 -19.19 19.08c-2.69 3.33-6.3 5.81-10.39 7.12 -4.09 1.31-8.48 1.41-12.62.28v0Zm-85.11-94.62c1.58-4.82 4.16-9.26 7.55-13.04L64.2 89.92l37 36.79 -37.01 36.79L45 144.41c-3.36-2.69-5.86-6.28-7.19-10.35 -1.34-4.07-1.45-8.44-.33-12.58v.42Zm95.14-85c4.86 1.56 9.35 4.12 13.16 7.51l19.08 18.97 -37.01 36.79 -37.01-36.8 18.97-18.56c2.68-3.34 6.29-5.82 10.38-7.13 4.08-1.32 8.47-1.42 12.61-.29l-.22-.53Zm104.07 46.15l-64.81-64.24c-7.59-7.06-16.6-12.43-26.43-15.77 -22.05-7.31-43.93-1.63-61.69 15.76L18.94 83.07c-7.1 7.54-12.5 16.5-15.86 26.28 -7.35 21.91-1.64 43.73 15.85 61.39l64.48 64.38c7.55 7.17 16.56 12.65 26.42 16.08 6.01 2.01 12.31 3.06 18.65 3.1 8.09-.17 16.08-1.95 23.47-5.25 7.39-3.3 14.04-8.04 19.55-13.95l65.17-64.18c7.18-7.53 12.68-16.49 16.12-26.29 7.34-21.92 1.58-43.74-16.13-61.35"/></svg>