<svg viewBox="0 0 512 88" xmlns="http://www.w3.org/2000/svg"><g fill="#2962FF" fill-rule="evenodd"><path d="M5.91 28.77c-7.9 7.89-7.9 20.68 0 28.57l22.85 22.85c7.89 7.89 20.68 7.89 28.57 0l22.85-22.86c7.89-7.9 7.89-20.69 0-28.58L57.32 5.89c-7.9-7.9-20.69-7.9-28.58 0L5.88 28.74Zm47.14 24.28c5.52-5.53 5.52-14.48 0-20.01 -5.53-5.53-14.48-5.53-20.01 0 -5.53 5.52-5.53 14.47 0 20 5.52 5.52 14.47 5.52 20 0h-.01Z"/><path fill="#000" d="M120.18 58.33c.03-6.37 3.92-10.1 9.51-10.1 5.56 0 8.83 3.56 8.8 9.64v28.99h13.69V55.42c.03-11.58-6.79-18.58-17.07-18.58 -7.49 0-12.51 3.53-14.76 9.35h-.58V21.02h-13.31v65.83h13.69V58.3v0Zm53.25 29.47c7.29 0 12.02-3.19 14.43-7.78h.38v6.84h12.98V53.55c0-11.77-9.97-16.72-20.96-16.72 -11.83 0-19.61 5.65-21.51 14.65l12.66 1.02c.93-3.28 3.85-5.69 8.77-5.69 4.66 0 7.32 2.34 7.32 6.39v.19c0 3.18-3.38 3.59-11.96 4.43 -9.78.9-18.55 4.17-18.55 15.2 0 9.77 6.97 14.72 16.39 14.72v0Zm3.92-9.46c-4.22 0-7.24-1.97-7.24-5.73 0-3.86 3.18-5.76 8-6.43 2.98-.42 7.87-1.13 9.51-2.22v5.24c0 5.17-4.28 9.12-10.29 9.12Zm71.96-26.78c-1.23-9.1-8.56-14.73-21.03-14.73 -12.64 0-20.96 5.85-20.93 15.366 -.04 7.39 4.62 12.18 14.27 14.11l8.55 1.7c4.3.86 6.26 2.44 6.33 4.91 -.07 2.92-3.25 5.01-8.04 5.01 -4.89 0-8.14-2.09-8.97-6.11l-13.47.7c1.28 9.45 9.32 15.26 22.4 15.26 12.79 0 21.95-6.53 21.98-16.27 -.04-7.14-4.7-11.42-14.28-13.38l-8.94-1.81c-4.6-1-6.31-2.58-6.27-4.96 -.04-2.96 3.31-4.89 7.55-4.89 4.75 0 7.58 2.6 8.26 5.78l12.53-.78v0Zm19.82 6.75c.03-6.37 3.92-10.1 9.51-10.1 5.56 0 8.83 3.56 8.8 9.64v28.99h13.69V55.4c.03-11.58-6.79-18.58-17.07-18.58 -7.49 0-12.51 3.53-14.76 9.35h-.58V21h-13.31v65.83h13.69V58.28Zm52.86 0c.03-6.37 3.82-10.1 9.35-10.1 5.49 0 8.8 3.6 8.77 9.64v28.99h13.69V55.4c0-11.51-6.76-18.58-17.04-18.58 -7.33 0-12.64 3.6-14.86 9.35h-.58v-8.72h-13.06v49.37h13.69V58.27Zm61.3 29.5c14.98 0 24.3-10.26 24.3-25.46 0-15.31-9.33-25.53-24.31-25.53 -14.98 0-24.31 10.22-24.31 25.52 0 15.2 9.32 25.45 24.3 25.45Zm.06-10.61c-6.92 0-10.45-6.34-10.45-14.95 0-8.62 3.53-14.98 10.44-14.98 6.78 0 10.31 6.36 10.31 14.97s-3.54 14.94-10.32 14.94Zm47.71 10.44c7.97 0 12.11-4.6 14.01-8.72h.57v7.9h13.5V20.98h-13.67v24.75h-.42c-1.84-4.02-5.79-8.94-14.05-8.94 -10.84 0-20 8.42-20 25.39 0 16.52 8.77 25.42 20.02 25.42Zm4.33-10.9c-6.72 0-10.39-5.98-10.39-14.6 0-8.56 3.6-14.44 10.38-14.44 6.65 0 10.38 5.62 10.38 14.43 0 8.8-3.8 14.59-10.39 14.59v0Zm53.89 11.05c12.21 0 20.44-5.95 22.37-15.11l-12.67-.84c-1.39 3.76-4.92 5.72-9.49 5.72 -6.85 0-11.19-4.54-11.19-11.9v-.04h33.62v-3.77c0-16.78-10.16-25.08-23.21-25.08 -14.53 0-23.95 10.31-23.95 25.55 0 15.65 9.29 25.42 24.49 25.42v0Zm-10.97-30.64c.28-5.63 4.56-10.13 10.64-10.13 5.94 0 10.06 4.24 10.09 10.12H478.3Z"/></g></svg>