<svg viewBox="0 0 512 150" xmlns="http://www.w3.org/2000/svg"><path fill="#1EB4D4" d="M135.39 1.19c.93-1.44 3.01-1.62 4.14-.33 8.42 9.73 11.13 35.85 7 49.48l-.21.63c-1.47 4.46-1.89 9.18-1.04 13.76l.34 1.86v0l.33 1.92c.58 3.56 1.05 7.27 1.05 10.07 0 39.26-32.6 71.12-72.83 71.12 -40.21 0-72.83-31.84-72.83-71.13 -.001-3.07.55-7.19 1.21-11.05l.33-1.91c.05-.32.11-.62.17-.93 .81-4.32.5-8.75-.76-12.98l-.25-.8C-2.38 37.48.27 10.68 8.83.77c1.06-1.22 2.99-1.13 3.98.1l.15.21L23.5 17.24c2.62 3.21 7.31 3.97 10.83 1.71 11.44-7.32 25.1-11.57 39.79-11.57 14.68-.001 28.35 4.24 39.79 11.56 3.42 2.18 7.92 1.56 10.57-1.41l.26-.32 10.54-16.17ZM74.21 23.75c-8.63 0-16.81 1.88-24.11 5.29 -18.21 8.42-31.08 26.1-32.21 46.8 -.06.97-.09 1.95-.09 2.94 0 30.37 25.28 55.07 56.37 55.07 31.09 0 56.39-24.71 56.41-55.07 0-.98-.04-1.98-.09-2.95 -1.13-20.68-14-38.38-32.21-46.81 -7.32-3.43-15.48-5.31-24.11-5.31Zm-3.75 30.72c.49 0 .97.21 1.27.6l.12.17L84.2 75.58l14.4 24.4c.29.48.29 1.09 0 1.56 -.25.42-.69.71-1.19.77l-.22.01H85.47c-.5 0-.98-.24-1.28-.62l-.13-.18 -7.7-13.03 -8.58 13.07c-.26.39-.69.65-1.16.71l-.21.01h-11.9c-.61 0-1.16-.33-1.44-.83 -.25-.45-.26-.98-.04-1.43l.1-.19L68.98 76.2 57.15 56.8c-.3-.49-.32-1.1-.02-1.59 .25-.45.69-.74 1.19-.8l.21-.02h11.8Z"/><path fill="#1B2738" d="M214.19 37.91h15.03v80.49h-15.04V84.1h-16.99v34.31h-15.04V37.9h15.03v34.95h16.98V37.89Zm61.4 80.5l-3.15-16.72H254.4l-2.89 16.71h-15.04l16.58-80.5h20.24l17.37 80.49h-15.12Zm-19.21-27.83h13.97l-7.18-38.53 -6.8 38.52Zm67.8 13.14V86.49c0-1.37-.26-2.28-.78-2.75 -.52-.48-1.49-.71-2.89-.71h-10.58c-8.98 0-13.47-4.25-13.47-12.76V50.51c0-8.43 4.69-12.63 14.09-12.63h14.37c9.4 0 14.09 4.21 14.09 12.62v11.22h-15.16v-9.19c0-1.37-.26-2.28-.78-2.75 -.52-.48-1.49-.71-2.89-.71h-4.97c-1.49 0-2.49.23-3.01.7 -.52.47-.78 1.38-.78 2.74V68.7c0 1.36.25 2.27.77 2.74 .51.47 1.51.7 3 .7h10.31c9.14 0 13.71 4.16 13.71 12.5v21.05c0 8.42-4.75 12.62-14.24 12.62h-14.12c-9.5 0-14.24-4.22-14.24-12.63V94.57h15.01v9.04c0 1.36.25 2.27.77 2.74 .51.47 1.51.7 3 .7h4.96c1.39 0 2.34-.24 2.88-.71 .53-.48.8-1.39.8-2.75Zm55.23-65.83h15.01v67.86c0 8.42-4.75 12.62-14.24 12.62h-15.93c-9.5 0-14.24-4.22-14.24-12.63V37.87h15.03v65.83c0 1.36.25 2.27.77 2.74 .51.47 1.48.7 2.88.7h6.91c1.48 0 2.48-.24 3-.71 .51-.48.77-1.39.77-2.75V37.84Zm42.45 49.12v31.38h-15.02V37.88h30.3c9.49 0 14.23 4.21 14.23 12.62v23.86c0 6.97-3.18 11.05-9.55 12.25l13.71 31.76h-16.21l-12.55-31.39h-4.96Zm0-37.91v27.05h10.83c1.39 0 2.34-.24 2.88-.71 .51-.48.77-1.39.77-2.75V52.54c0-1.37-.26-2.28-.78-2.75 -.52-.48-1.49-.71-2.89-.71h-10.84Zm74.98 69.28l-3.15-16.72h-18.04l-2.89 16.71h-15.02l16.58-80.5h20.24l17.37 80.49h-15.14Zm-19.2-27.83h13.97l-7.18-38.53 -6.8 38.52Z"/></svg>