<svg viewBox="0 0 256 259" xmlns="http://www.w3.org/2000/svg"><path fill="#1EB4D4" d="M233.49 2.05c1.6-2.48 5.2-2.8 7.14-.56 14.53 16.79 19.19 61.83 12.07 85.33l-.35 1.1c-2.54 7.7-3.25 15.84-1.79 23.74l.59 3.21v0l.57 3.32c1.01 6.15 1.81 12.54 1.81 17.38 0 67.72-56.22 122.65-125.59 122.65 -69.35 0-125.59-54.91-125.59-122.66 -.001-5.28.95-12.4 2.09-19.06l.58-3.28c.09-.54.19-1.07.29-1.59 1.4-7.45.87-15.09-1.3-22.39l-.43-1.37C-4.04 64.73.54 18.52 15.3 1.43c1.83-2.1 5.16-1.95 6.87.18l.26.37 18.18 27.87c4.52 5.55 12.61 6.85 18.68 2.96 19.73-12.62 43.3-19.94 68.62-19.94 25.32 0 48.89 7.32 68.62 19.93 5.89 3.76 13.65 2.69 18.22-2.43l.46-.55 18.18-27.88Zm-105.5 38.91c-14.89 0-28.99 3.25-41.58 9.12 -31.4 14.53-53.6 45.02-55.54 80.71 -.09 1.68-.15 3.37-.15 5.08 0 52.37 43.59 94.98 97.22 94.98 53.62 0 97.25-42.61 97.28-94.96 0-1.69-.06-3.41-.15-5.09 -1.94-35.67-24.14-66.18-55.54-80.72 -12.62-5.91-26.7-9.16-41.58-9.16Zm-6.46 52.98c.85 0 1.67.37 2.2 1.03l.2.29 21.3 35.08 24.84 42.08c.5.84.5 1.88 0 2.7 -.42.73-1.18 1.23-2.04 1.34l-.38.02h-20.21c-.86 0-1.68-.41-2.21-1.07l-.21-.31 -13.28-22.47 -14.8 22.55c-.45.68-1.19 1.12-2 1.22l-.36.02H94.07c-1.05 0-2-.56-2.48-1.43 -.42-.77-.45-1.69-.07-2.47l.18-.33 27.34-40.75 -20.39-33.46c-.51-.85-.54-1.89-.03-2.74 .44-.77 1.2-1.26 2.06-1.38l.37-.03h20.35Z"/></svg>