<svg viewBox="0 0 256 297" xmlns="http://www.w3.org/2000/svg"><g fill="#0F1689"><path d="M60.34 70.53l-.82-.77c-.1-.09-.19-.18-.28-.27 -7.59-7.3-13.47-15.73-17.01-25.69 -.96-2.68-1.68-5.4-1.63-8.27l.01-.38c.01-.29.01-.58.03-.86 .26-3.88 2.86-5.84 6.65-4.92 1.19.3 2.35.75 3.44 1.32 4 2 7.29 4.94 10.31 8.18l.31.33c5.51 5.87 9.94 12.68 13.06 20.1 .06.17.14.34.23.51 .01.02.03.04.06.07l.21.18c.01.01.04.03.06.05 14.78-8.88 31.51-14.01 48.73-14.96l-.05-.22v0l-.12-.59c-.03-.13-.05-.24-.08-.36l-.05-.17c-1.76-7.28-2.3-14.79-1.6-22.23 .3-4.47 1.2-8.87 2.67-13.1 .7-2.23 1.82-4.31 3.29-6.12 .55-.65 1.19-1.23 1.9-1.7 1.44-1.03 3.37-1.04 4.83-.04 1.5 1.01 2.71 2.41 3.51 4.04 1.48 2.77 2.55 5.74 3.16 8.82 1.4 6.51 1.83 13.2 1.27 19.85 -.28 4.05-.98 8.06-2.1 11.97 .71.13 1.42.25 2.13.38l3.19.55c2.48.43 4.94.87 7.38 1.45 4.16.96 8.26 2.17 12.29 3.61 4.05 1.48 8.02 3.21 11.89 5.15 2.22 1.11 4.39 2.34 6.56 3.61l1.86 1.09c.93.54 1.87 1.09 2.82 1.63l.08-.17v0l.17-.36c.05-.13.11-.26.16-.39 3.96-10.98 10.8-20.69 19.78-28.13 2.09-1.81 4.5-3.21 7.11-4.15 .71-.25 1.45-.43 2.21-.51 3.76-.44 5.34 1.93 5.62 4.77 .2 2.08.05 4.19-.47 6.22 -1.33 5.06-3.4 9.9-6.15 14.35l-.31.49c-3.99 6.43-8.7 12.24-14.64 16.97l-.46.36c-.05.03-.08.06-.12.09l-.2.17v0l-.25.22c-.04.02-.07.05-.1.09 6.02 5.55 11.39 11.79 15.99 18.57 -.34.08-.68.14-1.02.17 -6.38 0-12.75-.02-19.12.02 -.77-.02-1.47-.4-1.91-1.02 -13.91-15.2-32.66-25.09-53.04-28 -5.78-.85-11.63-1.1-17.46-.76l-.76.04c-17.94 1.09-35.11 7.65-49.21 18.78l-.44.34c-3.67 2.88-7.08 6.07-10.22 9.52 -.57.69-1.43 1.09-2.33 1.05 -3.66-.03-7.31-.03-10.96-.03l-8.6 0c.02-.12.07-.25.14-.4l.08-.2c.03-.07.06-.14.1-.22l.12-.23v0l.14-.25v0l.15-.27v0l.17-.28v0l.18-.3v0l.3-.47v0l.33-.5v0l.24-.35v0l.38-.54c.04-.07.08-.13.13-.19l.41-.57v0l.29-.39v0l.3-.4v0l.47-.61v0l.49-.62v0l.33-.42v0l.34-.43v0l.35-.43v0l.35-.43v0l.36-.43v0l.55-.65v0l.37-.43v0l.38-.43v0l.38-.43v0l.38-.43v0c1.89-2.05 3.85-4.04 5.86-6.05l2.01-2.02c.67-.68 1.35-1.37 2.03-2.06Zm155.18 136.4c-4.24 5.92-9.07 11.4-14.43 16.33l1.12.93v0c9.29 7.6 16.3 17.62 20.26 28.95 1.05 2.76 1.5 5.72 1.32 8.67 -.05.66-.18 1.31-.37 1.95l-.09.27c-.64 2.1-2.75 3.4-4.91 3.02 -1.42-.19-2.79-.6-4.07-1.21 -1.96-.97-3.82-2.14-5.53-3.5 -8.88-7.3-15.65-16.82-19.63-27.59l-.27-.72v0l-.36-.93v0c-4.81 3.17-9.83 5.99-15.05 8.42 -5.19 2.36-10.56 4.32-16.06 5.84 -5.59 1.51-11.28 2.59-17.03 3.24l.07.41v0l.06.37c.02.11.04.23.07.34l.04.16c1.82 7.15 2.42 14.56 1.78 21.92 -.25 4.61-1.14 9.16-2.67 13.52 -.73 1.8-1.57 3.56-2.51 5.25 -.39.65-.86 1.26-1.41 1.78 -2.4 2.47-5.26 2.49-7.59-.05 -.93-1.03-1.72-2.16-2.36-3.38 -1.86-3.48-2.81-7.26-3.49-11.11 -.88-5.26-1.15-10.6-.82-15.92 .17-3.67.69-7.31 1.56-10.88l.16-.67c.08-.33.16-.65.22-.97 0-.04 0-.08-.02-.14l-.07-.23c-.01-.03-.02-.06-.03-.09 -17.22-.98-33.94-6.14-48.71-15.04l-.56 1.23c-.04.07-.07.15-.11.23 -4.07 9.48-10.29 17.89-18.17 24.55l-.43.35c-2.14 1.82-4.6 3.24-7.25 4.18 -1.25.49-2.6.64-3.92.42 -1.44-.26-2.63-1.22-3.2-2.56l-.06-.15c-.79-1.9-.72-3.86-.48-5.82l.06-.52v0c.47-2.97 1.34-5.85 2.59-8.58 3.68-8.6 9.11-16.33 15.94-22.72l.55-.52c.09-.09.18-.18.27-.27 .08-.13.15-.26.21-.4 -6.44-5.58-12.19-11.91-17.13-18.84l.19-.02v0l.64-.07c.19-.02.36-.03.54-.03 5.05-.01 10.11 0 15.17-.01l3.79-.02c.85-.03 1.67.33 2.22.97 6.71 6.91 14.52 12.67 23.1 17.07l.59.3c9.32 4.79 19.46 7.81 29.89 8.88 28.34 2.75 52.72-5.84 73.14-25.78 .92-1 2.24-1.54 3.6-1.47 2.94.03 5.89.04 8.84.04l5.89-.01c.98-.01 1.96-.01 2.94-.01h1.52l.1.35Z"/><path d="M189.19 116.62c.37 0 .74 0 1.1.01l1.09.02c.72.01 1.43.01 2.14-.03l.53-.04c1.8-.17 3.09.48 4.4 1.69 6.32 5.82 12.69 11.59 19.07 17.36l3.96 3.59v0l.44.39v0l.67.59v0l.79-.68c.17-.15.33-.3.5-.45 7.87-7.17 15.74-14.35 23.6-21.53 .62-.65 1.47-1 2.36-1l.16 0c1.21.04 2.42.04 3.65.03l1.49-.02c.25-.01.5-.01.76-.01v63.37c-.03 0-.06.01-.1.02l-.14.02v0l-.19.01v0l-.22.01v0l-.26.01v0l-.45.02v0l-.9.03v0l-1.06.03v0l-1.19.02v0l-1.82.02v0l-1.64.01v0l-1.66 0v0l-1.09-.01v0l-1.31-.02v0l-.98-.02v0l-.69-.02v0l-.64-.02v0l-.77-.03v0l-.5-.03v0l-.43-.03v0l-.24-.02v0l-.21-.03c-.04-.01-.06-.01-.09-.02l-.15-.03v0 -32.1l-.33-.16 -16.39 14.94v0l-16.52-14.88v0l-.32.11 -.01 2.67v0l0 5.35v0l-.01 3.99v0l0 20.15h-16.5c-.02-.06-.04-.26-.05-.58l-.02-.46v0l-.02-.58v0l-.03-1.08v0l-.03-1.32v0l-.03-2.1v0l-.04-3.11v0l-.05-5.89v0l-.04-5.85v0l-.03-7.16v0l-.02-8.25v0l-.01-5.38v0l0-6.74v0l.01-3.82v0l.02-4.04v0l.02-2.81v0l.02-1.83v0l.02-1.1v0l.01-.59v0l.01-.47v0l.01-.35c0-.05 0-.09 0-.13Zm-152.25.07h16.39c.01.04.02.18.03.4l.01.4v0l.01.53v0l.01.65v0l.02 1.19v0l.03 2.5v0l.02 2.42v0l.02 3.47v0l.03 6.39v0l.01 4.37v0l.01 8.26v0l0 5.58v0l-.01 6.34v0l-.02 4.29v0l-.02 4.74v0l-.03 3.51v0l-.04 3.55v0l-.03 1.46v0l-.02.84v0l-.02.73v0l-.02.61v0l-.02.49v0l-.02.36c-.01.14-.02.24-.03.29H36.83c-.06-2.31-.06-4.61-.05-6.91l0-3.45c0-.58 0-1.15-.01-1.73l-.01-1.71v0l-.01-3.43v0l0-6.93v0H16.42v23.9c-.04 0-.07.01-.12.02l-.17.02v0l-.21.02v0l-.39.03v0l-.31.02v0l-.71.03v0l-.61.02v0l-.91.03v0l-.74.01v0l-1.05.02v0l-1.66.02v0l-1.72.01v0l-1.43-.01v0L5 180.03v0L3.44 180v0l-.94-.03v0l-.84-.03v0l-.56-.03v0l-.33-.02v0l-.3-.02v0l-.37-.04c-.04-.01-.07-.01-.11-.02l-.18-.03c-.06-.01-.1-.02-.13-.03v-63.33h16.56v22.36c.02 0 .05.01.09.02l.13.02v0l.17.01v0l.33.02v0l.41.02v0l.66.03v0l.57.02v0l.63.02v0l1.42.03v0l1.86.03v0l1.13.01v0l1.76.01v0l1.78 0v0l2.34-.01v0l1.39-.02v0l1.3-.02v0l1.19-.03v0l1.05-.03v0l.87-.04v0l.43-.03v0l.35-.03v0l.19-.02c.02-.01.05-.01.08-.01l.13-.03v0l.01-4.09c0-.46 0-.92 0-1.38l0-2.86v0l-.01-14.15v0Zm36.05 63.44v-63.27c.02-.01.08-.02.18-.03l.21-.02c.04-.01.08-.01.13-.01l.52-.03v0l.68-.03v0l.82-.03v0l1.3-.03v0l1.51-.03v0l1.7-.03v0l4.37-.05v0l2.12-.02v0l5-.03v0l3.95-.01v0l4.38 0v0l3.56.01v0l2.73.01v0l1.98.02v0l1.67.02v0l.56.01v0l.73.02v0l.57.02v0l.29.01v0l.22.01c.03 0 .05 0 .08 0v13.48c-.53.03-1.08.11-1.62.11l-9.63 0v0l-11.42-.01v10.48h20.05v13.94H89.75c-.03.1-.06.25-.08.44l-.03.25v0l-.03.29v0l-.04.5v0l-.03.37v0l-.04.61v0l-.03.66v0l-.03.95v0l-.02.74v0l-.02.76v0l-.01 1.02v0l0 1.26v0l0 .72v0l0 .46v0l.01.44v0l.02.63v0l.02.57v0l.02.34v0l.02.31v0l.02.27c0 .04 0 .08.01.12 .5.03 1.05.1 1.59.1l9.62 0v0l11.41-.01v13.42H72.75Zm58.16.02c-.02-.07-.03-.24-.04-.48l-.02-.44v0l-.02-.57v0l-.02-.69v0l-.02-1.24v0l-.02-1.47v0l-.04-3.57v0l-.02-3.52v0l-.02-5.59v0l-.02-7.95v0l0-10.2v0l.02-8.12v0l.03-6.59v0l.03-4.33v0l.02-3.09v0l.02-2.06v0l.01-.88v0l.02-1.11v0l.01-.6v0l.01-.48v0l.01-.35c0-.14.01-.23.02-.27h16.33v46.77l.5.02v0l.45.02v0l.43.02c.14 0 .27 0 .41 0l9.7 0v0l11.44-.01v0 16.59h-39.36Z"/></g></svg>