<svg viewBox="0 0 512 102" xmlns="http://www.w3.org/2000/svg"><path fill="#2A3B47" d="M140.79 19.19l-.19.06v27.24h-25.85V19.24l-.19-.07c-3.84-.8-7.62-.8-11.4 0l-.19.06v62.65l.18.06c1.88.36 3.77.6 5.66.6 1.88 0 3.77-.19 5.72-.61l.18-.07V56.44h25.84v25.41l.18.06c3.77.79 7.61.79 11.39 0l.18-.07V19.18l-.19-.07c-3.84-.74-7.62-.74-11.4 0v0Zm40.04 17.61c-13.54 0-21.58 8.53-21.58 22.85 0 7.43 1.7 13.34 5.11 17.43 3.71 4.44 9.26 6.7 16.63 6.7 12.49 0 18.89-7.44 19.68-14.82v-.19l-.19-.07c-3.17-1.04-6.1-1.28-9.57-.8h-.13v.12c-.74 4.38-4.39 7-9.7 7 -7.44 0-11.1-4.09-11.22-12.5h31.45v-.19c.91-8.29-.74-15-4.76-19.57 -3.72-3.91-9.15-6.04-15.79-6.04v0Zm-.13 8.1c3.1 0 5.72.97 7.49 2.86 1.82 1.95 2.74 4.87 2.55 8.35h-20.85c.18-7.14 4.14-11.22 10.78-11.22v0Zm28.28-25.73l-.19.06v62.65l.18.06c1.76.36 3.53.6 5.36.6 1.76 0 3.59-.19 5.36-.61l.18-.07V19.2l-.19-.07c-3.54-.8-7.14-.74-10.73 0Zm41.75 17.61c-4.7 0-9.64 1.82-14.33 5.3l-.68-3.3 -.13-.07c-2.69-.8-4.88-.8-7.5 0l-.13.06v62.35l.18.06c1.76.36 3.53.6 5.36.6 1.82 0 3.59-.19 5.36-.61l.18-.07V80.25c3.71 2.37 7.67 3.47 12.12 3.47 12.31 0 19.68-8.72 19.68-23.41 -.07-14.94-7.38-23.59-20.18-23.59ZM238.9 49.15c3.29-2.26 6.33-3.3 9.63-3.3 7.49 0 11.58 5.18 11.58 14.68 0 9.32-4.03 14.26-11.71 14.26 -3.3 0-6.4-1.04-9.51-3.24V49.11Zm78.99-.98c-1.89-.74-3.6-1.35-5.25-1.89 -8.54-3.05-13.66-4.88-13.78-9.51 -.07-2.14.6-3.97 2.07-5.49 2.13-2.2 5.72-3.36 10.11-3.36 4.32 0 7.67 1.15 9.69 3.29 1.7 1.82 2.43 4.32 2.25 7.43v.18l.18.06c3.71.73 7.43.67 11.45-.25l.18-.07v-.19c.24-5.25-1.35-9.82-4.58-13.23 -4.03-4.27-10.49-6.53-18.66-6.59h-.25c-15.18 0-24.32 6.76-24.45 18.1 -.07 11.27 10.3 15.05 16.51 17.24l.91.36c2.07.73 4.02 1.4 5.72 2.01 8.41 2.92 13.47 4.69 13.65 9.14 .06 2.31-.61 4.2-2.02 5.66 -2.02 2.07-5.55 3.1-10.24 3.04 -5.19 0-9.15-1.35-11.4-3.78 -1.65-1.83-2.32-4.15-2.08-6.95v-.19l-.19-.07c-3.78-.74-7.62-.68-11.4.18l-.13.06v.18c-.31 5.05 1.21 9.56 4.51 13.04 4.38 4.69 11.58 7.13 20.84 7.07 9.08 0 24.01-2.44 24.13-18.29 -.19-10.55-9.21-13.96-17.92-17.32v0Zm45.16-2.32c7.49 0 9.26 4.87 9.63 7.74v.18h.18c3.47.54 6.76.3 9.93-.61l.18-.07v-.19c-.31-4.39-2.2-8.36-5.31-11.22 -3.54-3.24-8.6-5-14.57-5 -14.27 0-22.13 8.35-22.13 23.52 0 15.11 7.8 23.46 21.94 23.46 6.09 0 11.21-1.77 14.81-5.12 2.98-2.81 4.81-6.59 5.18-10.67v-.19l-.19-.07c-2.99-1.04-6.28-1.22-9.88-.61h-.13v.12c-.98 6.82-7.62 7.31-9.64 7.31 -7.68 0-11.28-4.58-11.28-14.39 -.07-9.7 3.53-14.27 11.21-14.27v0Zm46.93-9.09c-14.02 0-21.76 8.35-21.76 23.52 0 15.11 7.74 23.46 21.75 23.46s21.75-8.36 21.75-23.47c0-15.18-7.75-23.53-21.76-23.53Zm11.15 23.58c0 9.69-3.66 14.38-11.16 14.38s-11.16-4.7-11.16-14.39c0-9.88 3.53-14.51 11.15-14.51 7.49 0 11.15 4.75 11.15 14.5Zm45.71-21.58l-.19.06v31.2c-3.54 3.04-6.77 4.38-10.49 4.38 -5.25 0-7.5-2.99-7.5-10.06v-25.6l-.19-.07c-3.54-.86-7.14-.86-10.73 0l-.19.06v28.09c0 10.66 5.72 16.82 15.78 16.82 5.36 0 10.05-2.08 15.11-6.71l1.03 4.87 .12.06c2.55.67 5.24.67 7.8 0l.18-.07v-43.1l-.19-.07c-3.42-.86-7.01-.86-10.61.06v0Zm44.55 34.74l-.07-.19 -.19.06c-4.27.97-6.77.91-8.23-.25 -1.22-.98-1.77-2.69-1.77-5.37v-20h8.65l.06-.19c.6-2.93.6-5.92 0-8.9l-.07-.19h-8.66V26.64l-.19-.07c-3.54-.8-7.14-.8-10.67 0l-.19.06 .06 11.82h-5.49l-.07.18c-.68 2.92-.68 5.97 0 8.89l.06.18h5.48l.06 19.19c0 5.36.3 10.78 4.02 13.89 2.01 1.64 4.93 2.49 8.71 2.49 2.31 0 4.99-.31 8.1-.92h.12l.06-.13c.85-2.87.91-5.86.12-8.84v0Z"/><path fill="#1292EE" d="M6.03 59.24l29.62-29.63c3.83-3.78 6.21-9.09 6.21-14.88 0-5.73-2.32-10.98-6.04-14.76L6.19 29.59C2.35 33.36-.03 38.67-.03 44.46c0 5.79 2.31 10.97 6.03 14.75Zm71.73-17.32L48.13 71.54c-3.84 3.77-6.22 9.08-6.22 14.87 0 5.72 2.31 10.97 6.03 14.75l29.62-29.63c3.83-3.78 6.21-9.09 6.21-14.88 0-5.8-2.32-10.98-6.04-14.76Zm-.19-12.26c3.83-3.78 6.21-9.09 6.21-14.88 0-5.73-2.32-10.98-6.04-14.76L6.18 71.51C2.34 75.34-.04 80.59-.04 86.44c0 5.72 2.31 10.97 6.03 14.75l71.55-71.56Z"/></svg>