<svg viewBox="0 0 512 144" xmlns="http://www.w3.org/2000/svg"><g fill="#430098"><path d="M116.49 0c7.04 0 12.77 5.62 12.94 12.63l0 .3v117.93c0 7.04-5.63 12.77-12.64 12.94l-.31 0H12.92c-7.05 0-12.78-5.63-12.95-12.64l-.01-.31V12.91C-.04 5.86 5.58.13 12.59-.04l.3-.01h103.55Zm0 7.19H12.93c-3.1 0-5.64 2.46-5.75 5.53l-.01.22v117.93c0 3.09 2.46 5.63 5.53 5.74l.22 0h103.55c3.09 0 5.63-2.47 5.74-5.54l0-.23V12.9c0-3.18-2.58-5.76-5.76-5.76ZM32.35 93.48l16.17 14.38 -16.18 14.38V93.47Zm14.38-71.92v40.82c7.18-2.34 17.21-4.88 26.96-4.88 8.88 0 14.21 3.49 17.1 6.42 6.09 6.16 6.26 13.98 6.26 15.1l-.01.04 0 43.14H82.65V79.25c-.08-3.36-1.69-7.39-8.99-7.39 -14.48 0-30.7 7.2-31.18 7.42l-.01 0 -10.16 4.6V21.51h14.38Zm50.33 0c-.98 8.16-4.29 16-10.79 23.37v0H71.88c5.65-7.42 9.2-15.22 10.78-23.38v0Z"/><path d="M365.09 45.82c12.76 0 26.02 8.1 26.02 27.52s-13.27 27.52-26.03 27.52c-12.84 0-26.1-8.11-26.1-27.53 0-19.43 13.26-27.53 26.09-27.53Zm116.72 1V78.5c0 7.3 2.36 10.6 8.1 10.6 5.73 0 8.02-3.3 8.02-10.61V46.8h14.05v31.75c0 14.05-6.74 22.07-22.23 22.07s-22.3-8.03-22.3-22.08V46.78h14.33Zm-305.69 0v19.71h17.63V46.81h14.33v53.04h-14.34V78.41H176.1v21.43h-14.34V46.79h14.33Zm88.28 0v11.9h-23.52v8.6h16.77V78.5h-16.78v9.81h24.73v11.54h-39.08V46.8h37.84Zm37.68 0c13.61 0 21.93 4.51 21.93 17.27 0 8.31-3.52 13.12-10.47 15.48l11.25 20.28h-15.2l-10.26-18.43h-3.95v18.42h-14.05V46.79h20.71Zm119.3 0v19.21L436 46.81h16.62l-17.85 20.93 19.42 32.11h-16.21l-12.55-21.23 -4.09 4.73v16.48H407V46.78h14.33Zm-56.32 10.82c-7.53 0-11.76 5.94-11.76 15.69s4.22 16.05 11.75 16.05c7.45 0 11.68-6.31 11.68-16.06s-4.23-15.7-11.69-15.7Zm-63.49.78h-6.17v12.11h6.16c5.87 0 8.45-1.65 8.45-6.1 0-4.45-2.58-6.03-8.46-6.03Z"/></g></svg>