<svg viewBox="0 0 164 256" xmlns="http://www.w3.org/2000/svg"><path fill="#D1D2D3" d="M125.53 84.85c.7-18.29-3.92-25.67-7.39-30.95 -3.52-4.93-11.96-12.67-22.33-12.99 -9.81-.31-12.17 5.11-21.21 5.44 -1.49-16.48 10.94-25.52 10.94-25.52s-3.4-4.81-6.22-5.98c-3.24 2.87-11 11.13-12.66 22.22C64.91 20.73 56.74 10.28 38.64 3 33.49 20.98 50.47 37.79 61.5 44.43c-5.85-1.97-10.93-4.57-17.74-3.22 -11.92 2.34-21.73 9.54-27.33 25.34 -5.6 15.8 1.97 34.23 3.62 39.5 1.64 5.27 13.82 27.65 23.37 30.94 9.54 3.29 9.54 1.81 14.65-.17 5.1-1.98 12.83-5.6 24.19-1.48 11.35 4.11 12.83 5.09 19.9.49 7.08-4.61 16.29-18.93 18.43-23.05 2.14-4.12 3.29-6.26 3.95-8.4 .82-6.27.26-3.23.89-19.61"/><path fill="#FEFEFE" d="M126.21 110.16v8.94c0 2.09 1.69 3.79 3.79 3.79v0h14.06c4.52 0 8.86 1.79 12.06 4.99 3.2 3.2 5 7.54 5 12.06v0l-.01 41.23c-.01.45-.01.91-.01 1.37l-.01 9.28c-.01.42-.01.84-.01 1.26l-.01 4.87c-.01.39-.01.78-.01 1.16l-.01 2.26c0 4.53-1.81 8.88-5.02 12.08 -3.22 3.2-7.58 4.99-12.11 4.97 -4.76.01-9.76 0-13.93-.06 -1.03-.03-2.01.36-2.74 1.08 -.73.71-1.14 1.68-1.14 2.7v0l-.01 4.51c-.01.18-.01.36-.01.55l-.01 2.24c-.01.18-.01.37-.01.56l-.01 1.12c-.01 3.17-.01 6.18-.02 7.99 0 1.12-.51 2.18-1.37 2.9 -4.35 3.28-19.54 10.56-53.5 10.56 -33.27 0-49.11-5.44-54.05-8.3 -1.1-.7-1.76-1.9-1.76-3.19 -.02-7.38-.08-33.63-.13-60.73l-.01-3.7c-.07-31.45-.14-62.93-.15-66.33l-.01-.31h110.96Zm16.81 27.92h-12.08c-1.18 0-2.31.43-3.17 1.21l-.19.17c-.83.83-1.33 1.93-1.39 3.1l-.01.25v55.16c0 1.17.43 2.3 1.21 3.16l.17.18c.82.82 1.93 1.31 3.09 1.38l.25 0h12.07c1.17 0 2.3-.44 3.16-1.22l.18-.18c.82-.83 1.31-1.94 1.38-3.11l0-.26v-55.17c0-1.18-.44-2.31-1.22-3.18l-.18-.19c-.83-.83-1.94-1.33-3.11-1.39l-.26-.01Z"/><path fill="#FAAF41" d="M26.19 109.06v117.55c0 1.35.72 2.6 1.89 3.28 4.79 2.28 18.71 7.74 43.12 7.74 24.56 0 38.07-6.64 42.59-9.37 1.08-.7 1.73-1.9 1.73-3.18 .01-15.59.01-116.05.01-116.05H26.16Z"/><path fill="#FFDA95" d="M39.32 123.71c2.8 0 5.09 2.18 5.25 4.95l0 .3v90.84c0 2.9-2.36 5.25-5.26 5.25 -2.81 0-5.1-2.19-5.26-4.95l-.01-.32v-90.85c0-2.91 2.35-5.26 5.25-5.26"/><path fill="#FEFEFE" d="M89.81 133.18c0-1.9-1.12-4.17-2.95-5.3 -2.99-1.81-5.32-4.58-6.59-7.87 -24.27.81-46.42-3.45-57.57-6.46 -2.87-.82-5.77-1.49-8.7-2.02 -6.68-1.33-11.76-7.2-11.76-14.25 0-7.77 6.15-14.07 13.84-14.35 1.48-8.21 8.64-14.44 17.28-14.44 9.71 0 17.58 7.87 17.58 17.58 0 2.04-.37 3.99-1.01 5.82l.05 0c2.16-6.79 8.51-11.7 16.02-11.7 7.45 0 13.76 4.85 15.97 11.57 -.07-.61-.1-1.23-.1-1.85 0-10.11 8.18-18.29 18.28-18.29 8.17 0 15.09 5.36 17.43 12.76l1.59-.42c2.08-1.18 4.48-1.86 7.04-1.86 7.93 0 14.36 6.43 14.36 14.36 0 7.26-5.4 13.27-12.4 14.23 -1.59.22-3.15.62-4.64 1.2 -4.17 1.56-8.43 2.86-12.72 3.94 -.22 2.11-.85 4.11-1.82 5.9 -1.75 3.27-2.53 6.97-2.26 10.67 -.01.22 0 1.39 0 1.62 0 4.69-3.81 7.55-8.52 7.55 -4.7 0-8.51-3.81-8.51-8.51"/><g fill="#010202"><path d="M86.4 112.43l.1.3 -.04-.31Z"/><path d="M37.19 0l2.33.93C54.54 6.97 63.29 15.27 67.08 27.5c2.39-5.32 6.04-10.05 10.27-13.92v0l1.53-1.38 1.31.54c.56.23 1.13.56 1.7.97 .89.63 1.79 1.45 2.7 2.42 .69.73 1.35 1.51 1.96 2.29v0l.33.43 .37.5 1.38 1.95 -1.82 1.31 -.25.19 -.35.27 -.42.37 -.5.45c-1.2 1.13-2.41 2.49-3.53 4.05 -3.15 4.37-5.03 9.43-5.11 15.18v0l-.01.66 .49-.09c1.69-.31 3.28-.91 5.6-1.97v0l1.32-.61c4.49-2.04 7.19-2.74 11.7-2.6 9.57.3 18.79 6.5 24.15 14 .11.18.24.36.35.54v0l.68 1.09 .65 1.08c4.09 6.95 6.06 13.69 6.13 24.59 8.43.8 15.04 7.9 15.03 16.55 0 8.34-6.18 15.36-14.36 16.48 -.03 0-.06.01-.09.01v0 6.05c0 .83.68 1.52 1.52 1.52v0h14.06c5.12 0 10.04 2.03 13.67 5.66 3.62 3.62 5.66 8.54 5.66 13.67v0l-.01 61.47c0 5.14-2.05 10.06-5.69 13.69 -3.65 3.62-8.58 5.65-13.71 5.63 -.73 0-1.44 0-2.14 0v0l-4.14-.01 -5.03-.03 -2.69-.04c-.41-.01-.81.14-1.1.43 -.3.28-.46.67-.46 1.08v0l-.01 12.43 -.02 4.56c0 1.79-.81 3.5-2.27 4.71 -2.07 1.56-4.82 3.03-8.22 4.37v0l-1.16.43c-1.78.65-3.72 1.26-5.82 1.83v0l-1.43.37 -1.48.36c-1.5.35-3.07.68-4.7.99v0l-1.67.3 -1.71.28c-1.45.23-2.94.44-4.48.64v0l-1.88.22 -1.92.2 -1.97.18 -2.01.17 -2.06.15 -2.1.12c-.36.02-.71.03-1.07.05v0l-2.17.09 -2.22.07c-.75.02-1.5.04-2.26.05v0l-2.31.03c-.78 0-1.56.01-2.35.01v0h-1.2c-.8-.01-1.59-.02-2.37-.03v0l-2.33-.04 -2.28-.06c-.76-.03-1.5-.05-2.24-.08v0l-2.19-.1c-.37-.02-.73-.04-1.08-.06v0l-2.13-.12 -2.08-.13 -2.03-.15c-.34-.03-.67-.06-1-.08v0l-1.97-.17c-.33-.04-.65-.06-.97-.1v0l-1.9-.2 -1.85-.21c-.31-.04-.61-.08-.91-.11v0l-1.78-.23 -1.73-.24 -1.68-.26c-.83-.14-1.64-.27-2.43-.41v0l-1.56-.29c-.26-.05-.51-.1-.76-.15v0l-1.49-.31 -1.44-.32 -1.39-.33 -1.34-.34c-1.31-.34-2.54-.7-3.7-1.07v0l-1.13-.38c-.56-.19-1.09-.38-1.6-.58v0l-1.01-.4c-1.47-.6-2.75-1.22-3.85-1.86 -1.75-1.12-2.8-3.04-2.81-5.11v0l-.28-127.59C4.9 111.29-.56 104.58-.56 96.74c0-7.65 5.17-14.09 12.23-16.02 -.09-2.33-.04-4.62.2-6.89 .32-3 .94-5.86 1.9-8.57 5.5-15.54 15.29-24.12 29.02-26.82 2.45-.49 4.69-.54 7.05-.22 -1.79-1.67-3.5-3.46-5.05-5.31 -8.26-9.82-11.89-20.6-8.89-31.09v0l.69-2.43Zm86.75 114.28l-1.1.4c-.24.08-.48.15-.71.23 -2.13.74-4.32 1.43-6.54 2.06 -1.38.39-1.38.39-2.69.76v0l-.11.51c-.32 1.39-.79 2.73-1.41 4v0l-.61 1.17c-.12.22-.19.46-.29.69 -1.13 2.57-1.64 5.39-1.43 8.35v0l0 .33 0 1.29c0 5.86-4.69 9.83-10.79 9.83 -3.1 0-5.88-1.32-7.85-3.41 -1.44-1.53-2.43-3.47-2.78-5.63 -.1-.58-.16-1.16-.16-1.76 0-1.22-.8-2.7-1.86-3.36 -2.92-1.77-5.27-4.32-6.8-7.35v0l-.08-.16 -1.5.03c-17.23.29-34.76-1.82-49.15-5.11 -1.68-.39-3.32-.78-4.9-1.2v0l-1.2-.32c-.04-.02-.07-.02-.11-.03 -1.48-.42-2.97-.8-4.47-1.14v0l.27 126.61c0 .51.26 1 .62 1.22 .65.38 1.39.75 2.21 1.12v0l.84.36c.87.36 1.82.71 2.85 1.06v0l1.05.33c.54.16 1.1.33 1.68.49v0l1.18.32 1.23.31 1.28.3 1.33.29c.22.04.45.09.68.14v0l1.41.27c.47.09.96.18 1.46.27v0l1.51.25c.51.08 1.03.16 1.56.24v0l1.6.23 1.65.22c.27.03.56.07.84.1v0l1.73.2 1.77.19 1.82.17c.3.03.61.05.93.08v0l1.89.16 1.94.14 1.98.13 2.03.11 2.08.1c.34.01.7.02 1.05.04v0l2.14.07c.36.01.72.02 1.09.03v0l2.21.05c.37 0 .74.01 1.12.02v0l2.28.02c.76 0 1.54 0 2.32 0v0l1.13-.01c1.89-.02 3.73-.05 5.53-.1v0l2.13-.08c.35-.02.7-.03 1.04-.05v0l2.06-.11 2.02-.13c.33-.03.66-.05.99-.07v0l1.95-.16c.31-.03.64-.06.95-.09v0l1.88-.18c.3-.04.61-.07.92-.1v0l1.81-.21c.29-.04.59-.08.89-.11v0l1.74-.23 1.69-.25 1.65-.26c.54-.09 1.07-.19 1.6-.28v0l1.55-.29c.51-.1 1.01-.2 1.51-.31v0l1.46-.32 1.41-.33c.92-.23 1.82-.46 2.68-.69v0l1.27-.37c.2-.07.41-.13.61-.19v0l1.19-.38 1.15-.39c3.94-1.37 6.99-2.9 9.11-4.51 .34-.29.54-.71.54-1.17v0l.01-16.99c0-1.63.65-3.2 1.82-4.33 1.16-1.15 2.73-1.77 4.35-1.74v0l2.65.02 3.94.02 5.17 0 2.12-.01c3.93.01 7.7-1.54 10.49-4.32 2.78-2.78 4.35-6.55 4.35-10.49v0l0-61.48c0-3.93-1.56-7.69-4.34-10.47 -2.78-2.78-6.54-4.34-10.47-4.34v0h-14.07c-3.35 0-6.07-2.72-6.07-6.07v0 -4.82Zm19.09 21.53c1.85 0 3.64.73 4.95 2.05 1.31 1.31 2.05 3.09 2.05 4.95v0 55.16c0 1.85-.74 3.64-2.06 4.95s-3.1 2.05-4.96 2.05v0h-12.08c-1.86 0-3.65-.74-4.96-2.06 -1.32-1.32-2.06-3.1-2.06-4.96v0 -55.17c0-1.87.73-3.65 2.05-4.96 1.31-1.32 3.09-2.06 4.95-2.06v0Zm0 4.54h-12.08c-.66 0-1.29.25-1.75.72 -.47.46-.73 1.09-.73 1.74v0 55.16c0 .65.26 1.28.72 1.74 .46.46 1.09.72 1.74.72v0H143c.65 0 1.28-.27 1.74-.73 .46-.47.72-1.1.72-1.75v0 -55.17c0-.66-.27-1.29-.73-1.75 -.47-.47-1.1-.73-1.75-.73v0ZM33.4 70.78c-7.43 0-13.75 5.33-15.05 12.57v0l-.33 1.79 -.95.03 -.89.03c-1.27.04-2.48.28-3.62.69 -4.7 1.66-8.05 6.13-8.05 11.38 -.001 5.34 3.5 9.98 8.43 11.61 .47.15.95.29 1.45.39 1.63.29 3.26.64 4.87 1.03 1.34.31 2.68.65 4 1.03 .56.15 1.17.29 1.76.44 .8.2 1.6.41 2.43.61 15.13 3.63 34.24 5.93 52.7 5.31v0l1.61-.06 .58 1.5c1.08 2.81 3.07 5.18 5.66 6.75 2.43 1.51 4.02 4.46 4.02 7.22v0l0 .33c.05 1.1.42 2.12.98 3.01 1.1 1.73 3.02 2.89 5.23 2.89 3.73 0 6.24-2.12 6.24-5.29v0l-.01-1.31 0-.16c-.05-.55-.06-1.09-.06-1.62 0-3.59.88-7.12 2.57-10.3v0l.26-.53c.68-1.42 1.12-2.95 1.28-4.54v0l.16-1.59 1.54-.39c1.58-.4 3.11-.85 4.64-1.3 1.34-.4 2.67-.81 3.98-1.23 1.29-.43 2.57-.87 3.81-1.34v0l.71-.27c.53-.19 1.08-.34 1.63-.48 .91-.25 1.85-.46 2.79-.6v0l.4-.07c.04-.01.09-.03.13-.03 5.67-1.05 9.89-6.02 9.89-11.9 0-6.16-4.61-11.24-10.57-11.99 -.51-.07-1.02-.11-1.53-.11 -1.04 0-2.05.13-3.03.38 -1.02.26-1.99.65-2.91 1.17v0l-.26.14 -3.97 1.03 -.66-2.06c-2.09-6.61-8.24-11.18-15.27-11.18 -8.85 0-16.02 7.16-16.02 16.01 0 .54.02 1.08.08 1.6v0l1.71 16.3 .47 4.54h-.07l-1.5-4.55 -5.05-15.37c-1.95-5.93-7.49-10.02-13.82-10.02 -6.38 0-11.95 4.13-13.86 10.11v0l-.6 1.86 -4.66-.77 .89-2.56c.58-1.66.88-3.36.88-5.08 0-8.46-6.86-15.32-15.32-15.32Zm46.23-53.09l-.56.54C73.99 23.29 69.24 31.77 68.95 37c-.3 5.22.56 11.7.56 11.7v0l-3.21-.62c-1.39-.27-2.63-.58-4.07-1.03v0l-1-.32c-.18-.06-.35-.12-.53-.18v0l-.19-.07 -.94-.33 -3.75-1.34 -1.03-.35c-4.18-1.37-7.14-1.73-10.6-1.05 -12.15 2.39-20.66 9.84-25.63 23.87 -.84 2.36-1.39 4.87-1.68 7.52 -.01.04-.01.09-.02.13 3.49-5.2 9.35-8.6 15.94-8.77v0l.51-.01c9.78 0 17.91 7.07 19.55 16.39v0l.07.45 .48-.45c3.26-2.84 7.47-4.57 12.01-4.68v0l.51-.01c5.53 0 10.61 2.38 14.14 6.27v0l.2.23 .12-.45c2.5-8.31 10.1-14.4 19.16-14.62v0l.51-.01c8.14 0 15.36 4.77 18.66 11.93v0l.11.25 .21-.11c1.31-.62 2.7-1.05 4.13-1.31 -.05-10.4-1.88-16.48-5.77-22.94v0l-.63-1.01 -.66-1.02c-4.56-6.38-12.59-11.79-20.55-12.04 -3.89-.13-6.01.48-10.34 2.49v0l-.73.33c-3.97 1.8-6.29 2.48-10 2.61v0l-2.16.07 -.2-2.15c-.74-8.14 1.56-15.24 5.82-21.17 1.44-2.02 2.89-3.62 4.16-4.81v0l.07-.08 -.5-.59 -.59-.65c-.49-.52-.96-.97-1.4-1.34v0l-.31-.25ZM40.29 6.17l-.06.37c-1.17 7.94 2.04 16.2 8.61 24.02 4.01 4.77 9.17 9.08 13.58 11.79 .68.42 1.35.81 2 1.15v0l.37.19 -.01-.36c-.03-2.34-.17-4.54-.42-6.64C62.62 22.04 55.4 12.9 40.49 6.25v0l-.24-.11Z"/></g></svg>