<svg viewBox="0 0 256 257" xmlns="http://www.w3.org/2000/svg"><path fill="#FF4C46" d="M25.55 2.11C26.1.53 27.78-.33 29.37.1l.22.07s50.52 19.2 85.77 32.6c4.05-.67 8.08-1.01 12.04-.98 14.96.1 29.1 3.46 43.28 11.83l82.5-6.84v0c.97-.05 1.89.44 2.4 1.28 .72 1.19.4 2.72-.7 3.53l-.24.15c-1.03.59-26.87 15.64-51.55 30.01 .83.95 1.66 1.93 2.5 2.92 23.48 27.99 37.76 68.51 44.58 91.93 4.02 13.83 1.41 28.75-7.09 40.39 -15.34 20.98-48.04 49.55-112.19 49.09 -70.05-.49-106.22-35.34-123.6-56.75 -7.41-9.2-9.39-21.64-5.2-32.68l1.3-3.4C13.64 136.57 32.75 90.23 48.06 73c9.21-10.36 19.84-19.31 31.06-26.2L26.43 5.51v0c-1.03-.85-1.42-2.26-.98-3.51Z"/><path fill="#FFF" d="M128.96 183.47c.11-.29.43-.44.72-.32 11.19 6.42 24.63 7.6 36.76 3.26l.69-.26c.21-.11.47-.05.62.13 .16.19.16.46.02.66l-15.36 16.9v0c-.98 1.06-2.63 1.16-3.72.21 -5.68-4.88-15.16-15.08-19.71-20.08 -.12-.16-.14-.36-.07-.54Zm21.31-86.59c39.7-27.63 61.22-3.65 73.3 22.95 8.72 19.17 11.81 55.06-16.51 60.56 -21.7 4.23-41.75-17.75-56.57-38.28 -1.53-2.11-4.46-2.58-6.57-1.05 -.4.28-.75.63-1.04 1.02l-.61.84c-10.15 14.23-34.36 52.91-70.17 43.12 -34.57-9.47-42.16-48.34-27.79-75.22 21.26-40.53 52.33-53.73 105.91-13.99Zm-5.65 55.6c1.36-1.32 3.51-1.34 4.9-.09l.19.19v0l18.97 21.62v0c.1.11.18.24.25.37 .49.94.12 2.1-.82 2.59 -5.72 2.91-12.01 4.5-18.42 4.64 -8.44-.07-17.08-5.67-20.61-8.25l-.15-.12v0c-.75-.66-.86-1.77-.29-2.55l.13-.17s15.59-18.09 15.59-18.09l.02 0v0c.06-.07.12-.14.18-.2Z"/><path fill="#FF4C46" d="M196.35 120.77l.21.35c4.59 7.12 2.53 16.62-4.6 21.21 -7.13 4.59-16.63 2.53-21.22-4.6 -4.47-6.94-2.65-16.13 4.04-20.85l.36-.26c6.66-4.78 15.93-3.24 20.7 3.43 .16.22.31.45.46.69Zm-95.98-8.18c-7.99 2.72-11.97 11.2-9.59 19.11 2.72 7.98 11.2 11.96 19.11 9.58 7.98-2.73 11.89-11.32 9.58-19.12 .02-.06-.04-.2-.13-.38 -2.46-7.7-10.31-11.76-17.79-9.64 -.35-.09-.78.16-1.21.42Z"/></svg>