<svg viewBox="0 0 512 101" xmlns="http://www.w3.org/2000/svg"><g fill="#FF4C46"><path d="M137.08 79.53h-10.41v0V32.65v0h10.4v0 20.36 0h34.49v0V32.64v0h10.4v0 46.87 0h-10.41v0V61.78v0h-34.5v0V79.5v0Zm74.3 1.17c-6.89 0-12.43-1.79-16.63-5.35 -4.21-3.57-6.3-8.28-6.3-14.14 0-5.86 2.09-10.58 6.29-14.14 4.19-3.57 9.74-5.35 16.62-5.35 6.93 0 12.49 1.78 16.69 5.34 4.19 3.56 6.29 8.27 6.29 14.13 0 5.85-2.11 10.57-6.3 14.13 -4.21 3.56-9.77 5.34-16.7 5.34Zm0-8.06c4 0 7.22-1.05 9.66-3.15 2.44-2.1 3.66-4.86 3.66-8.28 0-3.47-1.23-6.26-3.67-8.36 -2.45-2.1-5.67-3.15-9.67-3.15 -3.96 0-7.16 1.06-9.6 3.18 -2.45 2.12-3.67 4.89-3.67 8.31 0 3.41 1.22 6.17 3.66 8.27 2.44 2.1 5.63 3.14 9.59 3.14Zm50.56 8.05c-6.89 0-12.43-1.79-16.63-5.35 -4.21-3.57-6.3-8.28-6.3-14.14 0-5.86 2.09-10.58 6.29-14.14 4.19-3.57 9.74-5.35 16.62-5.35 6.93 0 12.49 1.78 16.69 5.34 4.19 3.56 6.29 8.27 6.29 14.13 0 5.85-2.11 10.57-6.3 14.13 -4.21 3.56-9.77 5.34-16.7 5.34Zm0-8.06c4 0 7.22-1.05 9.66-3.15 2.44-2.1 3.66-4.86 3.66-8.28 0-3.47-1.23-6.26-3.67-8.36 -2.45-2.1-5.67-3.15-9.67-3.15 -3.96 0-7.16 1.06-9.6 3.18 -2.45 2.12-3.67 4.89-3.67 8.31 0 3.41 1.22 6.17 3.66 8.27 2.44 2.1 5.63 3.14 9.59 3.14Zm42.21 7.61c-4.51 0-7.08-2.07-8.46-3.94l-.09-.12c-1.35-1.87-2.41-4.31-2.45-9.57l-.01-16.2v0h-5.28v0 -7.55 0h6.73v0V32.6v0h8.93v0 10.25 0h10.54v0 7.54 0h-10.55v0 13.69 0c-.08 4.09.57 5.58 1.56 6.57 1.74 1.74 7.06.56 8.97-.66v7.93 0c-2.23 1.54-6.26 2.25-9.97 2.25Zm36.46.44c-6.5 0-13.04-.96-19.63-2.86v-8.36 0c5.51 2.1 11.49 3.14 17.94 3.14l.76-.01c4.24-.04 7.3-.33 9.2-.88 2-.59 3-1.64 3-3.15 0-1.42-1.12-2.41-3.34-2.97 -2.12-.54-4.68-.89-7.68-1.04l-.46-.03c-3.2-.15-6.4-.43-9.6-.85 -3.2-.42-5.91-1.43-8.14-3.04 -2.23-1.62-3.34-3.89-3.34-6.82 0-4.01 1.92-7.04 5.78-9.09 3.85-2.06 9.1-3.08 15.74-3.08 5.22 0 11.32.68 18.31 2.05v8.05 0c-6.01-1.27-11.75-1.91-17.22-1.91 -8.31 0-12.46 1.27-12.46 3.8 0 1.27 1.12 2.16 3.36 2.67 2.12.48 4.67.82 7.63 1.03l.49.03c3.17.19 6.35.52 9.55.98 3.19.46 5.91 1.52 8.16 3.18 2.24 1.66 3.36 3.98 3.36 6.95 0 4.1-1.91 7.14-5.72 9.11 -3.81 1.97-9.09 2.96-15.83 2.96Zm60.85-37.8h10.4v0V79.5v0h-11.43v0l1.46-15.09v0h-.59v0c-1.72 10.84-7.72 16.26-18.02 16.26 -5.28-.1-9.14-1.82-11.58-5.17 -2.4-3.29-3.62-8.73-3.67-16.33l-.01-16.32v0h10.4v0 14.64c0 5.51.78 9.44 2.34 11.79 1.56 2.34 4.12 3.51 7.69 3.51 3.95 0 7.1-1.81 9.44-5.43 2.29-3.54 3.46-8.21 3.51-14.03l0-10.52v0Zm24.51-3.52c-2.01 0-3.57-.5-4.69-1.51 -1.13-1-1.69-2.48-1.69-4.44 0-1.96.56-3.42 1.68-4.4 1.12-.98 2.68-1.47 4.68-1.47 2.05 0 3.65.48 4.79 1.46 1.14.97 1.72 2.44 1.72 4.39 0 3.95-2.18 5.93-6.52 5.93Zm5.34 40.14H420.9v0V42.87v0h10.4v0 36.62 0Zm58.6 1.17c-6.65 0-11.98-1.79-16.01-5.35 -4.03-3.57-6.05-8.28-6.05-14.14 0-5.86 2.01-10.58 6.04-14.14 4.02-3.57 9.36-5.35 16-5.35 6.54 0 11.82 1.52 15.85 4.57 3.95 2.99 6.01 6.91 6.18 11.76l0 .35c0 .64 0 5.94 0 5.94h-34.14v0c.58 2.97 2.13 5.12 4.65 6.44 2.51 1.31 6.21 1.97 11.09 1.97l.69-.01c5.97-.08 8.79-1.07 11.83-2.2l.29-.12c.96-.41 3.65-1.59 3.95-1.72v8.35 0c-3.67 1.41-6.87 2.36-9.6 2.85 -2.74.48-6.35.73-10.84.73ZM477.6 59.28l24.46-.59v0c-.15-3.23-1.2-5.54-3.15-6.93 -1.96-1.4-4.96-2.09-9.01-2.09 -3.91 0-6.85.74-8.83 2.23 -1.98 1.49-3.14 3.94-3.48 7.36Zm-23.11 20.94c-4.51 0-7.08-2.07-8.46-3.94l-.09-.12c-1.35-1.87-2.41-4.31-2.45-9.57l-.01-16.2v0h-5.28v0 -7.55 0h6.73v0V32.58v0h8.93v0 10.25 0h10.54v0 7.54 0h-10.55v0 13.69 0c-.08 4.09.57 5.58 1.56 6.57 1.74 1.74 7.06.56 8.97-.66v7.93 0c-2.23 1.54-6.26 2.25-9.97 2.25Z"/><path d="M10.05.83c.21-.63.88-.97 1.5-.79l.08.02s19.88 7.56 33.76 12.83c1.59-.27 3.18-.4 4.74-.39 5.89.04 11.45 1.36 17.03 4.65l32.47-2.69v0c.38-.02.74.17.94.5 .28.46.15 1.07-.28 1.38l-.1.06c-.41.23-10.58 6.15-20.29 11.81 .32.37.65.75.98 1.15 9.24 11.02 14.86 26.96 17.54 36.18 1.58 5.44.55 11.31-2.79 15.89 -6.04 8.26-18.91 19.5-44.16 19.32 -27.57-.2-41.81-13.91-48.65-22.34C-.1 74.78-.88 69.89.77 65.54l.51-1.34c4.03-10.51 11.55-28.74 17.58-35.52 3.62-4.08 7.8-7.6 12.22-10.32L10.34 2.1v0c-.41-.34-.56-.89-.39-1.39Z"/></g><path fill="#FFF" d="M50.76 72.21c.04-.12.17-.17.28-.13 4.4 2.52 9.69 2.99 14.46 1.28l.27-.11c.08-.04.18-.02.24.05s.06.18.01.26l-6.05 6.65v0c-.39.41-1.04.45-1.47.08 -2.24-1.93-5.97-5.94-7.76-7.91 -.05-.07-.06-.14-.03-.22Zm8.38-34.09c15.62-10.88 24.09-1.44 28.85 9.03 3.43 7.54 4.65 21.67-6.5 23.83 -8.54 1.66-16.44-6.99-22.27-15.07 -.6-.83-1.76-1.02-2.59-.42 -.16.11-.3.24-.41.4l-.24.33c-4 5.6-13.53 20.82-27.62 16.97 -13.61-3.73-16.6-19.03-10.94-29.61 8.37-15.95 20.6-21.15 41.68-5.51ZM56.91 60c.53-.52 1.38-.53 1.92-.04l.07.07v0l7.46 8.5v0c.03.04.07.09.1.14 .19.37.04.82-.33 1.02 -2.25 1.14-4.73 1.77-7.25 1.82 -3.33-.03-6.72-2.24-8.12-3.25l-.06-.05v0c-.3-.26-.34-.7-.12-1.01l.05-.07s6.13-7.12 6.13-7.12l.01 0v0c.02-.03.04-.06.07-.08Z"/><path fill="#FF4C46" d="M77.28 47.53l.08.13c1.8 2.8.99 6.54-1.81 8.35 -2.81 1.8-6.55.99-8.36-1.81 -1.76-2.73-1.05-6.35 1.59-8.21l.14-.1c2.62-1.88 6.27-1.28 8.15 1.35 .06.08.12.17.18.27ZM39.5 44.31c-3.15 1.07-4.71 4.41-3.78 7.52 1.07 3.14 4.41 4.7 7.52 3.77 3.14-1.08 4.68-4.46 3.77-7.53 0-.03-.02-.08-.06-.15 -.97-3.03-4.06-4.63-7-3.8 -.14-.04-.31.06-.48.16Z"/></svg>