<svg viewBox="0 0 256 355" xmlns="http://www.w3.org/2000/svg"><path fill="#2E93EE" d="M194.53 259.73c-10.04 9.73-20.03 23.1-30.15 32.75 4.81 25.36-4.61 36.5 6.74 45.62 4.11 3.25 28.79 10.23 42.97 2.14 .28-13.16-6.87-17.08-14.52-21.99 -7.78-16.51-4.98-42.08-5.15-58.54"/><g fill="#2E578B"><path d="M200.29 343.97c-1.65-7.54-6.97-13.74-14.15-16.51 5.69 3.49 9.06 9.8 8.8 16.5 1.8.08 3.57.08 5.34 0Z"/><path d="M212.25 341.25c-1.61-7.54-6.9-13.75-14.07-16.51 7.32 5.65 9.66 11.71 8.63 18.31 1.86-.44 3.68-1.04 5.42-1.82v0Z"/></g><path fill="#2E93EE" d="M182.81 128.39c-5.19 7.54-7.49 23.38 33.72 46.61 0 0-17.32 29.99-22.79 35.47 -5.48 5.48-8.81 20.08-3.46 27.43 2.76 3.86 5.93 7.41 9.45 10.6 0 0 13.65 2.55 19.49-.75 7.22-8.02 8.85-19.64 4.11-29.34 0 0 34.75-36.47 32.53-47.44 -2.23-10.98-56.68-66.54-73.09-42.62Z"/><path fill="#2E578B" d="M223.15 218.44s-14.07 11.63-17.61 13.61c2.86-.87 5.62-2.06 8.22-3.55 0 0 6.25 7.67 1.68 14.14 0 0 8.22-4.83 2.75-15.93 1.89-2.4 3.62-4.92 5.18-7.55l-.25-.75Z"/><g transform="translate(20.4342 192.085)"><g fill="#2E93EE"><path d="M57.86 19.59c-.11 2.69-.93 5.32-2.39 7.59 -2.39 3.75-3.75 3.34 2.17 6.55 4.41 2.24 9.16 3.71 14.06 4.37 8.22 1.36 6.37.45 2.71-7.39 -1.61-3.53-3.53-6.92-5.72-10.11 -8.23-11.35-10.53-10.57-10.86-1.12"/><path d="M28.33 15.67c-3.05 5.65 1.6 6.55 7.56 8.66 2.23.78 4.55 1.29 6.9 1.52 6.7.74 4.97-.25 2.01-5.7 -1.79-3.36-3.77-6.61-5.93-9.74 -11.81-17-6.17-3.02-10.58 5.23"/><path d="M2.83 13.15c.09 1.29.09 2.58 0 3.87 -.42 4.7-.95 3.91 4.85 4.45 2.58.29 5.19.29 7.77 0 7.4-1.12 4.68-3.72.82-8.05 -1.33-1.51-2.79-2.9-4.36-4.13 -14.65-11.31-9.14-3.35-8.93 3.87"/></g></g><g fill="#2E93EE"><path d="M121.36 39.45s-42 21.69-41.63 28.58c.37 6.88 11.84 5.94 16.45 15.18 0 0-25.71 17.82-24.07 25.98 1.64 8.16 18.22 5.19 22.33 11.67 0 0-4.12 16.25-.38 22.19 3.74 5.94 3.16.82 8.22 8.25 .37.16-2.6-60.48 19.04-111.88Z"/><path d="M112.56 59.17c14.8 14.1 33.47 22.97 50.5 33.9 11.72 7.02 22.05 16.15 30.47 26.93 10.19 13.69 4.11 29.82 6.66 46.61 .78 5.69 1.15 11.46 1.39 17.24 .43 10.5.13 21.01-.91 31.47 -2.6 24.99-3.87 45.37-21.47 64.1 -21.97 23.43-46.15 28.87-73.58 8.49 -9.67-6.34-18.48-13.91-26.2-22.53 -5.64-6.61-12.63-10.81-18.68-16.96 -7.68-8.17-16.84-14.79-26.99-19.52 -10.62-4.13-17.94 1.48-23.16 3.87C7.91 234 4.21 236.4 1.21 234c-1.16-.87-1.58-2.42-1.03-3.76 1.56-3.76 3.93-7.13 6.95-9.86 16.16-14.86 42.28-15.19 61.69-4.75 7.36 4.12 15.38 8.45 23.89 8.99 6 .7 12.04-1.03 16.78-4.79 3.67-3.39 6.09-7.93 6.86-12.88 1.37-6.89.87-14.01-1.44-20.63 -3.17-9.58-8.85-18.24-12.55-27.69 -12.34-32.14-16.46-68.77 3.57-98.8l2.79-4.13 3.74 3.34Z"/></g><path fill="#FFCF00" d="M37.25 230.36c14.14 7.09 29.2 22.97 43.63 40.09 18.87 22.48 65.8 55.6 104.92 3.54 36.64-49.01 19.41-117.7 17.27-125.49l-.25-.83c-1.24-1.57-33.9-43.4-63.84-49.51 -7.98 6.93-9.55 19.18 1.06 40.3 17.89 35.51 32.2 87.28.41 119.09 -4.74 4.85-10.54 8.52-16.95 10.72 -22.58 7.46-34.55-6.28-48.7-19.56 -10.3-9.94-23.45-16.37-37.6-18.4v0Z"/><g fill="#ECA93F"><path d="M190.21 267.74c-13.77-1.57-26.84-6.93-37.76-15.47 7.8 11.41 19.79 19.26 33.35 21.82 1.56-2.07 3.24-4.21 4.4-6.36Z"/><path d="M126.62 270.91c5.37 11.42 13.14 21.53 22.78 29.66 3.07-.73 6.08-1.75 8.96-3.06 -12.94-5.6-23.97-14.84-31.76-26.61v0Z"/><path d="M78.59 267.82l2.3 2.72 1.06 1.27c-.74-3.36-.38-6.86 1.02-9.99 -1.61 1.88-3.08 3.88-4.41 5.98v0Z"/><path d="M94.46 283.7c1.64 1.32 3.33 2.64 5.09 4.12 -1.2-5.7-1.73-11.64.2-14.94 -2.17 3.39-3.95 7.01-5.31 10.8Z"/></g><path fill="#FF9144" d="M63.45 251.36l3.66 3.75c-.07-2.66.21-5.3.82-7.88 -1.6 1.25-3.1 2.63-4.49 4.12Z"/><g fill="#ECA93F"><path d="M162.57 225.08c14.3-4.34 29.57-4.34 43.88 0 .37-2.07.69-4.13.98-6.11 -28.75-6.85-44.88 6.1-44.88 6.1Z"/><path d="M208.31 179.95c-.21-2.48-.46-4.83-.7-7.1v0c-30.48-.75-46.19 14.1-46.19 14.1 14.45-7.4 30.91-9.86 46.88-7.02Z"/><path d="M196.3 139.94c-1.2-1.37-2.51-2.85-4.12-4.42 -32.37 0-41.13 15.09-41.13 15.09 13.47-8.52 29.39-12.28 45.24-10.69Z"/><path d="M207.9 175.29c-.8-7.34-2-14.62-3.58-21.83l-2.35-1.45c-10.33-6.77-55.82-34.2-69.14-42.45 -.24 2.02-.24 4.07 0 6.1 13.98 19.63 45.36 52.88 75.06 59.6Z"/></g><path fill="#2E93EE" d="M104.74 254.66c4.17-6.17 11.34-9.59 18.75-8.96 20.81 2.72 14.23 27.43 9.25 41.95 -3.46 10.43-5.46 21.31-5.93 32.3 0 14.35 5.47 18.68-1.2 24.29 -10.61 7.45-23.44 11.03-36.36 10.14 -11.56-2.65-11.85-26.49 6.58-32.55 5.09-11.14 4.89-22.53 4.48-34.41 -.29-8.26-.99-24.76 4.4-33.01"/><g fill="#2E578B"><path d="M100.26 354.28c1.64-.25 3.29-.54 4.89-.91 -1.45-7.01.71-14.28 5.75-19.35 -7.57 4.33-10.04 11.71-10.66 20.25Z"/><path d="M89.11 354.45c-1.72-7.66.34-15.68 5.55-21.54 -6.4 3.96-10.34 10.93-10.45 18.48 1.26 1.51 2.98 2.58 4.89 3.05v0Z"/><path d="M99.81 224.46s-2.39 13.81 6.99 18.43c7.89 4.12 17.6 4.12 22.45-1.78 6.7-8.26 16.45-24.76-10.25-40.97 -16.46-10.03-17.48 24-17.48 24l-1.73.28Z"/><path d="M102.11 158.21c3.49 7.63 6.66 13.53 6.82 14.06 .16.53 21.71-27.03 17.68-31.48 -4.04-4.46-21.1 11.42-24.52 17.4Z"/></g><g fill="#2E93EE"><path d="M123.25 118.69c23.32 22.56-25.09 52.43-25.09 52.43 5.26 3.34 11.92 14.76 16.9 23.1 4.97 8.33 6.95 6.97 13.03 13.9 6.08 6.93-11.27 17.28-11.27 17.28s-58.24-31.56-58.08-51.78c0-2.52 13.53-25 27.18-38.95 6.86-7.02 26.15-26.78 37.3-16.01Z"/><path d="M100.63 214.19s-4.12 21.49 8.47 27.76c0 0 10.4.66 15.67-3.14 0 0 13.12-20.22 3.33-30.7s-27.48 6.06-27.48 6.06Z"/></g><path fill="#2E578B" d="M100.38 215.72s16.82 9.03 19.74 9.85c-2.93.4-5.92-.04-8.6-1.28 0 0-4.12 8.25.69 13.36 0 0-7.74-1.37-4.98-14.32l-7.04-7.27 .16-.38Z"/><path fill="#2E93EE" d="M115.48 52.69s8.76-51.82 30.18-52.68c14.1-.62 21.22 17.4 21.22 17.4 8.64.03 17.09 2.55 24.34 7.26 0 0 4.11-7.14 10.65-4.83 6.53 2.31 13.98 17.32 11.31 41.99 6.47.99 12.13 4.9 15.38 10.6 -1.74 2.49-4.38 4.2-7.37 4.74 -4.45.37-23.61-6.65-28.8-2.07 -5.28 3.7-7.96 10.13-6.87 16.5 0 0-21.19-2.15-30.6-14.24 -9.42-12.09-17.53-35.52-39.49-24.71Z"/><g fill="#F1F1F2"><path d="M188.4 56.44s5.26-17.41 15.38-22.28c.35 8.42 1.27 16.81 2.75 25.12 -5.99-1.31-12.05-2.26-18.14-2.85v0Z"/><path d="M142.58 20.76s13.03 6.31 21.79 33.41c-9.76-1.67-19.64-2.55-29.54-2.65 4.85-9.55 7.49-20.07 7.73-30.78Z"/></g><g fill="#2E578B"><path d="M147.93 32.81c3.16 0 5.75 3.54 5.75 7.96 0 4.41-2.6 7.92-5.76 7.92 -3.17 0-5.76-3.55-5.76-7.93s2.54-7.97 5.75-7.97"/><path d="M196.63 53.93c2.5 0 4.52-2.69 4.52-6.03 0-3.35-2.02-6.03-4.53-6.03 -.49.02-.96.13-1.4.33 -1.39 1.6-2.44 3.46-3.09 5.48 -.03.13-.03.27 0 .41 -.05 3.13 1.97 5.81 4.48 5.81Z"/></g><path fill="#FF9144" d="M143.82 65.6s-15.63-12.38-23.57-3.55c-9.46 10.64 0 27.18 0 27.18s1.15-7.1 4.68-9.45c0 0 1.39 22.39 37.75 47.31 36.35 24.91 52.19 22.19 60.13 20.08 7.93-2.11 15.99-7.8 12.95-14.2 -3.05-6.4-23.57-23.77-23.57-23.77s-7.78.94-23.61-4.63c-15.84-5.57-37.02-16.51-50.68-35.48 2.02-1.08 3.98-2.27 5.88-3.55"/><path fill="#FF6B17" d="M134.69 94.73c20.36-4.9 41.8.89 56.96 15.38l-4.12-2.23s18.67-.91 21.26 1.69c11.07 7.5 18.18 19.63 19.33 33 .53 6.39-14.56 10.02-48.21-6.77 -20.9-10.57-45.25-41.09-45.25-41.09Z"/><path fill="#FF9144" d="M175.57 98.97l.78.41 -.79-.42Z"/><g fill="#EBEEF2"><path d="M210.69 109.12s-4.53 18.6-11.52 16.5c-2.35-.71-1.4-5.99-2.35-9.62 -.95-3.64-3.67-10.57-3.67-10.57l17.52 3.67Z"/><path d="M245.28 102.07s-1.44 19.09-8.68 18.19c-2.43-.29-2.35-5.66-3.87-9.08 -1.53-3.43-5.27-9.86-5.27-9.86l17.8.74Z"/></g><path fill="#FFCF00" d="M252.97 85.32c-.91-13.45-18.6-19.35-31.59-9.91 -10.62-2.36-22.38-9.45-32.91 1.19 -4.31 3.6-5.64 9.67-3.25 14.76 0 0-22.05-3.55-29.66-14.81 -7.61-11.27-17.57-26.37-28.22-27.44 -5.68-.54-15.26-1.37-20.82 9.48 -5.56 10.84-8.23 30.44 32.9 61.46 41.12 31.02 59.14 39.39 68.1 39.35 11.39 0 12.09-4.13 25.21-6.11 6.7-.95 11.8-12.38 4.44-22.28 -6.16-7.77-13.62-14.38-22.05-19.56 -.42.41 15.95 13.57 19 19.96 3.04 6.39-5.97 10.43-13.87 12.37 -7.9 1.93-18.06 4.12-54.38-20.63 -36.32-24.76-40.23-49.8-40.23-49.8 -4.61-.71-5.15 9.32-5.15 9.32s-5.31-11.6 1.8-18.53c8.59-8.26 17.47 1.93 17.47 1.93h-.54c-5.39-2.6-6.13 2.06-6.13 2.06 14.32 18.49 33.24 32.87 54.86 41.7 15.83 5.56 24.14-.71 24.14-.71 7.51-.06 15.02-.67 22.45-1.82 5.67-1.53 19.57-3.92 18.3-22.12Z"/><g fill="#ECA93F"><path d="M200.29 83.88c3.7-1.16 6.53 3.83 1.68 5.98 -.7 1.85.41 3.87 3.37 4.57 -2.91 1.4-6.4.17-7.8-2.75 -1.4-2.92-.18-6.42 2.73-7.82"/><path d="M241.99 82.35c-3.05-1-5.39 3.13-1.36 4.95 .53 1.52-.38 3.17-2.84 3.75 7.81 1.6 8.22-7.27 4.11-8.71"/></g></svg>