<svg viewBox="0 0 256 361" xmlns="http://www.w3.org/2000/svg"><path fill="#E44D26" d="M255.55 70.76L232.3 331.11l-104.47 28.96 -104.19-28.93L.42 70.73h255.1v0Z"/><path fill="#F16529" d="M128 337.95l84.41-23.41 19.86-222.49H127.99v245.89 0Z"/><g fill="#EBEBEB"><path d="M82.82 155.93h45.17v-31.94H47.9l.76 8.56 7.84 88h71.46v-31.94H85.69l-2.92-32.71v0Z"/><path d="M90.01 236.54H57.95l4.47 50.14 65.42 18.16 .14-.05v-33.23l-.14.03 -35.57-9.61 -2.28-25.48v0Z"/></g><g><path d="M24.18 0H40.4v16.03h14.84V-.01h16.23v48.55H55.24V32.27H40.39v16.26H24.16V-.03h-.01v0Z"/><path d="M92.83 16.1H78.54V-.01h44.81v16.1h-14.3v32.45H92.81V16.08h-.01v0Z"/><path d="M130.46 0h16.92l10.41 17.06L168.18-.01h16.92v48.55h-16.17V24.47l-11.17 17.26h-.28L146.3 24.46v24.06h-15.89V-.04v0Z"/><path d="M193.2 0h16.23v32.5h22.82v16.05h-39.06V-.01v0Z"/></g><g fill="#FFF"><path d="M127.88 220.57h39.32l-3.71 41.41 -35.62 9.61v33.22l65.47-18.15 .48-5.4 7.5-84.08 .77-8.58h-74.24v31.93 0Z"/><path d="M127.88 155.85v.07h77.14l.64-7.18 1.45-16.2 .76-8.57h-80.01v31.85 0Z"/></g></svg>