<svg viewBox="0 0 512 148" xmlns="http://www.w3.org/2000/svg"><g><path d="M382.14 40.1c16.72 0 25.38 13.77 25.38 36.6 0 23.72-8.97 37.65-25.83 37.65 -8.92 0-15.51-3.42-19.69-11.23 -.43-.73-1.28-1.09-2.09-.88 -.82.2-1.4.92-1.42 1.76v25.93c0 .65-.27 1.29-.73 1.75 -.47.46-1.1.72-1.76.72h-15.13c-.67 0-1.3-.26-1.77-.73 -.48-.47-.74-1.11-.74-1.77V44.46c.01-1.38 1.12-2.49 2.5-2.49h15.12c1.37 0 2.48 1.11 2.48 2.48v5.93c0 1.91 2.57 2.59 3.49.91 4.3-7.88 11.15-11.28 20.13-11.28Zm-120.8-15.71c1.34 0 2.44 1.07 2.48 2.4l0 .07v15.15h28.33V26.85c-.01-.66.26-1.3.72-1.76 .44-.45 1.03-.71 1.66-.73l.09-.01h14.99c1.34 0 2.44 1.07 2.48 2.4l0 .07v15.15h15.86c1.34.01 2.43 1.07 2.48 2.41l0 .07v11.92c0 1.34-1.08 2.44-2.41 2.48l-.08 0h-15.87v27.42c0 5.63 2.05 8.3 8.07 8.3 1.81 0 3.78-.36 5.6-.78l.51-.12c.08-.03.17-.05.25-.07 .69-.17 1.42-.04 2 .37 .55.38.93.98 1.03 1.65l.01.09 1.62 13.81c.13 1.2-.61 2.33-1.77 2.68l-.37.1v0l-.37.1v0l-.36.1v0l-.36.1v0l-.36.09v0l-.36.09v0l-.36.09v0l-.36.08v0l-.36.08v0l-.36.08v0l-.36.08c-.06.01-.12.02-.18.03l-.37.07c-.07.01-.13.02-.19.03l-.37.07v0l-.37.06v0l-.38.06v0l-.38.06v0l-.39.06v0l-.4.05v0l-.4.05v0l-.41.05c-.07 0-.14.01-.21.02l-.42.04c-.08 0-.15.01-.22.02l-.43.04c-.08 0-.15.01-.22.01l-.45.03c-.23.01-.46.03-.69.04l-.47.02c-.24.01-.48.02-.73.03l-.5.01c-.09 0-.17 0-.26 0l-.52.01c-.09 0-.18 0-.27 0l-.54 0v0l-.56 0c-.1 0-.19 0-.29 0 -15.99 0-22.77-10.61-22.9-23.77l-.01-.4V58.59h-28.34v27.42c0 5.63 2.05 8.3 8.07 8.3 1.81 0 3.78-.36 5.6-.78l.51-.12c.08-.03.17-.05.25-.07 .69-.17 1.42-.04 2 .37 .55.38.93.98 1.03 1.65l.01.09 1.62 13.81c.13 1.2-.61 2.33-1.77 2.68l-.37.1v0l-.37.1v0l-.36.1v0l-.36.1v0l-.36.09v0l-.36.09v0l-.36.09v0l-.36.08v0l-.36.08v0l-.36.08v0l-.36.08c-.06.01-.12.02-.18.03l-.37.07c-.07.01-.13.02-.19.03l-.37.07v0l-.37.06v0l-.38.06v0l-.38.06v0l-.39.06v0l-.4.05v0l-.4.05v0l-.41.05c-.07 0-.14.01-.21.02l-.42.04c-.08 0-.15.01-.22.02l-.43.04c-.08 0-.15.01-.22.01l-.45.03c-.23.01-.46.03-.69.04l-.47.02c-.24.01-.48.02-.73.03l-.5.01c-.09 0-.17 0-.26 0l-.52.01c-.09 0-.18 0-.27 0l-.54 0v0l-.56 0c-.1 0-.19 0-.29 0 -15.99 0-22.77-10.61-22.91-23.77l-.01-.4V58.33h-5.59c-.66 0-1.3-.27-1.76-.73 -.45-.45-.71-1.04-.73-1.67l-.01-.1V43.9c0-.66.26-1.3.72-1.76 .44-.45 1.03-.71 1.66-.73l.09-.01h5.58V26.24c-.01-.66.26-1.3.72-1.76 .44-.45 1.03-.71 1.66-.73l.09-.01h14.99Zm218.8 15.75c21.21 0 31.63 13.51 31.84 32.33l0 .57v7.53c-.02 1.34-1.08 2.43-2.41 2.48l-.08 0h-45c-.09-.01-.17-.02-.26-.03 1.46 9.6 6.7 13.86 15.88 13.86 8.02 0 11.4-3.46 13.21-7.96 .46-1.16 1.7-1.8 2.9-1.51l.07.02 12.62 3.56c.65.19 1.2.64 1.52 1.25 .31.6.36 1.31.14 1.96 -3.89 11.48-13 19.99-30.79 19.99 -20.99 0-35.66-12.16-35.66-35.57 0-24.31 13.35-38.54 35.94-38.54Zm-46.63 1.92c.65 0 1.29.26 1.75.72 .46.46.72 1.09.72 1.75v65.27c0 1.37-1.12 2.48-2.49 2.48h-15.15c-1.37-.01-2.48-1.12-2.49-2.49V44.51c0-.67.26-1.3.73-1.77s1.1-.73 1.76-.73h15.12ZM182.17 21.4c.65 0 1.29.26 1.75.72 .46.46.72 1.09.72 1.75v26.5c.02.84.6 1.56 1.42 1.76 .81.2 1.67-.17 2.08-.9 4.21-8.01 10.85-11.07 18.91-11.18 12.1-.18 21.91 9.84 21.91 21.95v47.76c0 .65-.27 1.29-.73 1.75 -.47.46-1.1.72-1.76.72h-15.01c-1.38 0-2.49-1.12-2.49-2.49V71c0-7.27-3.24-12.76-11.59-12.76 -8.08 0-12.78 4.74-12.78 12.75v38.73c0 .66-.27 1.29-.74 1.76 -.47.46-1.11.72-1.77.72h-15.14c-.66 0-1.3-.27-1.76-.73 -.47-.47-.73-1.1-.73-1.76V23.79c-.01-.66.26-1.3.72-1.76 .46-.47 1.09-.73 1.75-.73h15.13Zm190.99 36.9c-9.25 0-14.68 6.37-14.68 17.93v1.33c0 11.41 5.42 18.52 14.67 18.52 9.97 0 14.52-7.12 14.52-19.27 0-11.71-4.41-18.53-14.53-18.53Zm106.38-1.45c-8.72 0-13.84 4.06-15.22 13.79l-.05.29h29.34c-.59-9.35-5.14-14.09-14.09-14.09Zm-53.1-45.13c3.05 0 5.97 1.21 8.12 3.38 2.11 2.12 3.3 4.99 3.32 7.98v.16c-.05 6.28-5.16 11.36-11.45 11.36h-1.07c-3.06 0-5.98-1.22-8.13-3.39 -2.12-2.13-3.31-5-3.33-7.99v-.17c.04-6.29 5.15-11.37 11.44-11.37h1.06Z"/><path d="M123.49 31.97C123.36 14.18 108.52-.01 90.73-.01H32.77C15.11-.01.33 13.95-.01 31.61c-.16 8.65 3.17 17 9.23 23.18 6.06 6.17 14.35 9.65 23.01 9.66h25.89c.86.02 1.6.64 1.78 1.49 .17.84-.25 1.71-1.04 2.08l-39.7 17.39C7.41 90.61-.12 102.28-.04 115.12c.13 17.78 14.96 31.98 32.75 31.98h13.58c17.91 0 32.83-14.38 32.8-32.29 -.04-13.13-8.02-24.93-20.2-29.85 -.7-.29-1.15-.96-1.16-1.71 -.01-.75.43-1.43 1.11-1.73l45.39-19.91c11.72-5.22 19.25-16.89 19.16-29.72Z"/></g></svg>