<svg viewBox="0 0 512 72" xmlns="http://www.w3.org/2000/svg"><defs><linearGradient id="a" x1="-.001%" x2="100.215%" y1="-228.727%" y2="-228.727%"><stop offset="0%" stop-color="#FF0069"/><stop offset="100%" stop-color="#4707FF"/></linearGradient></defs><path fill="url(#a)" d="M7.09 0H35.6c3.94 0 7.09 3.15 7.09 7.08s-3.16 7.08-7.1 7.08H7.07c-3.95 0-7.1-3.16-7.1-7.09 0-3.94 3.15-7.09 7.09-7.09Zm127.99 42.67c3.91 0 7.09-3.18 7.09-7.09 0-3.92-3.18-7.09-7.1-7.09 -3.92 0-7.1 3.17-7.1 7.08s3.17 7.08 7.09 7.08Zm-113.81 0c3.91 0 7.09-3.18 7.09-7.09 0-3.92-3.18-7.09-7.1-7.09 -3.92 0-7.1 3.17-7.1 7.08s3.17 7.08 7.09 7.08Zm28.51 0h28.51c3.94 0 7.09-3.16 7.09-7.09 0-3.94-3.16-7.09-7.1-7.09H49.76c-3.95 0-7.1 3.15-7.1 7.08s3.15 7.08 7.09 7.08Zm63.99-7.09c0 3.91-3.18 7.08-7.1 7.08 -3.92 0-7.1-3.18-7.1-7.09 0-3.92 3.17-7.09 7.09-7.09 3.91 0 7.09 3.17 7.09 7.08ZM56.86 63.93c0 3.91-3.18 7.08-7.1 7.08 -3.92 0-7.1-3.18-7.1-7.09 0-3.92 3.17-7.09 7.09-7.09 3.91 0 7.09 3.17 7.09 7.08Zm49.8-7.09H78.14c-3.95 0-7.1 3.15-7.1 7.08s3.15 7.08 7.09 7.08h28.51c3.94 0 7.09-3.16 7.09-7.09 0-3.94-3.16-7.09-7.1-7.09ZM63.94 14.16h28.51c3.94-.001 7.09-3.16 7.09-7.09 0-3.94-3.16-7.09-7.1-7.09H63.92c-3.95-.001-7.1 3.15-7.1 7.08s3.15 7.08 7.09 7.08Zm56.9-14.18h28.51c3.94 0 7.09 3.15 7.09 7.08s-3.16 7.08-7.1 7.08h-28.52c-3.95 0-7.1-3.16-7.1-7.09 0-3.94 3.15-7.09 7.09-7.09Z"/><path fill="#050000" d="M419.87 6.04c6.3 0 11.95 1.44 16.82 4.46 4.99 2.88 8.41 7.22 10.38 12.73l-10.39 3.67c-3.42-6.57-9.07-9.98-16.96-9.98 -5.13 0-9.34 1.83-12.88 5.38 -3.55 3.67-5.26 8.14-5.26 13.39 0 5.38 1.83 9.84 5.38 13.52 3.67 3.67 8.14 5.38 13.4 5.38 4.33 0 8.01-1.19 11.03-3.55 3.02-2.37 5.12-5.52 6.04-9.59h-19.98V30.94h31.27c.13 1.96.26 3.67.26 4.85 0 8.53-2.76 15.49-8.15 21.13 -5.39 5.64-12.36 8.4-20.77 8.4 -8.55 0-15.64-2.89-21.43-8.54 -5.79-5.65-8.68-12.74-8.68-21.14 0-8.28 2.89-15.37 8.67-21.01 5.78-5.78 12.87-8.67 21.15-8.67ZM264.66 7.35v31.37c0 4.72 1.18 8.53 3.67 11.42 2.49 2.88 5.78 4.33 9.85 4.33 3.81 0 6.96-1.45 9.33-4.34 2.36-2.89 3.54-6.7 3.54-11.43V7.32h11.56v31.37h-.14c0 8-2.24 14.44-6.71 19.3 -4.47 4.85-10.39 7.35-17.75 7.35 -7.5 0-13.54-2.5-18.14-7.36 -4.6-4.86-6.84-11.3-6.84-19.31V7.29h11.56Zm99.35 2.23c4.99 2.88 8.54 6.95 10.64 12.47l-10.26 3.8c-3.55-6.57-9.34-9.72-17.22-9.59 -5.13.13-9.34 1.96-12.75 5.64 -3.42 3.67-5.13 8.14-5 13.52 .13 5.38 1.97 9.84 5.65 13.39 3.67 3.54 8.14 5.25 13.53 5.12 4.33-.14 7.88-1.32 10.9-3.68 3.02-2.37 4.99-5.65 5.78-9.72l-19.72.52 -.27-10.51 31.14-.66c.26 1.96.26 3.54.39 4.85 .13 8.53-2.37 15.62-7.76 21.26 -5.26 5.64-12.1 8.66-20.51 8.79 -8.55.13-15.64-2.5-21.69-8.15 -5.92-5.65-8.94-12.61-9.2-20.88 -.14-8.28 2.62-15.37 8.27-21.27 5.65-5.91 12.61-8.8 21.02-9.06 6.3-.14 11.95 1.18 16.95 4.07ZM196.19 7.34v23.1h27.2V7.33h11.56v56.84h-11.57V40.8h-27.21v23.36H184.6V7.31h11.56Zm271.63 0l15.5 26.78 15.37-26.79h13.27l-22.87 38.59v18.24h-11.57V46.17L455.04 7.3h12.74Z"/></svg>