<svg viewBox="0 0 256 224" xmlns="http://www.w3.org/2000/svg"><defs><linearGradient id="a" x1="47.952%" x2="47.952%" y1="97.594%" y2="0%"><stop offset="0%" stop-color="#FFB300"/><stop offset="61.372%" stop-color="#DC3939"/><stop offset="100%" stop-color="#FF1BB4"/></linearGradient></defs><path d="M13.18 4.5h229.63c4.51 0 8.18 3.65 8.18 8.16v197.67c0 4.5-3.67 8.16-8.19 8.16H13.16c-4.52 0-8.19-3.66-8.19-8.17V12.64c0-4.51 3.66-8.17 8.18-8.17Z"/><path fill="url(#a)" d="M7.17 14.34v194.58c0 3.96 3.21 7.17 7.17 7.17h227.29c3.96 0 7.17-3.22 7.17-7.18V14.32c0-3.97-3.22-7.18-7.18-7.18H14.32c-3.97 0-7.18 3.21-7.18 7.17Zm-7.18 0C-.01 6.41 6.41-.01 14.34-.01h227.29c7.92 0 14.35 6.42 14.35 14.34v194.58c0 7.92-6.43 14.34-14.36 14.34H14.32c-7.93 0-14.36-6.43-14.36-14.35V14.31Z"/><path fill="#FFF" d="M76.14 83.31h38.48v7.47H76.13V83.3ZM64.39 63.94L30.5 94.38l10.54-26.65 -14.89-10.05 33.88-30.45 -11.48 28.34 15.81 8.33Z"/></svg>