<svg viewBox="0 0 512 205" xmlns="http://www.w3.org/2000/svg"><path d="M99.55 190.06v14.22H-.01v-14.23h99.55Zm155.58-.01c-9.99 9.18-23.07 14.25-36.64 14.22v0l-104.73-.15v-14.09Zm148.028-.01l-4.97 14.22 -4.93-14.23h9.88Zm-47.62 0v14.22h-71.12v-14.23h71.11Zm156.44 0v14.22h-71.12v-14.23h71.11Zm-240.76-27.16c-1.23 4.98-3.15 9.77-5.73 14.22v0h-151.75v-14.23Zm141.45 0l-5 14.22h-18.97l-5-14.23h28.95Zm-57.15-.01v14.22h-71.12v-14.23h71.11Zm156.44 0v14.22h-71.12v-14.23h71.11Zm-412.45 0v14.22H-.06v-14.23h99.55Zm-28.45-27.16v14.22H28.38V135.7h42.66Zm113.77 0v14.22h-42.67V135.7h42.66Zm86.01 0c1.26 4.63 1.89 9.41 1.9 14.22v0h-47.84V135.7Zm151.32 0l-5 14.22h-38.03l-5-14.23h48.01Zm-66.68 0v14.22h-42.67V135.7h42.66Zm127.99 0v14.22h-42.67V135.7h42.66ZM71.01 108.55v14.22H28.34v-14.23H71Zm284.44 0v14.22h-42.67v-14.23h42.66Zm127.99 0v14.22h-42.67v-14.23h42.66Zm-229.91-.01c4.73 4.02 8.74 8.83 11.86 14.22v0h-123.29v-14.23Zm178.11 0l-5 14.22h-57.1l-5-14.23h67.07Zm-37.54-27.16l3.99 11.49 3.99-11.5h81.33v14.22h-42.67V82.52l-4.59 13.06h-76.16L355.4 82.5v13.07h-42.67V81.34h81.33Zm-252.01-.01l123.28 0c-3.12 5.38-7.13 10.19-11.87 14.22v0H142.07V81.36Zm-71.12 0v14.22H28.3V81.36h42.66Zm0-27.16v14.22H28.3V54.2h42.66Zm113.77 0v14.22h-42.67V54.2h42.66Zm87.91 0c-.01 4.8-.65 9.58-1.91 14.22v0h-45.94V54.2Zm111.97-.01l4.94 14.22h-76.84V54.19h71.89Zm98.77 0v14.22h-76.84l4.94-14.23h71.89Zm-384-27.16v14.22H-.17V27.03h99.55Zm165.96 0c2.57 4.44 4.5 9.23 5.72 14.22v0H113.6V27.03Zm246.47-.01v14.22h-95.85l4.94-14.23h90.89Zm-136.66 0l4.94 14.22h-95.85V27.02h90.89ZM99.37-.13v14.22H-.19V-.14h99.55Zm118.94-.01c13.56-.02 26.63 5.05 36.63 14.22v0H113.58V-.15Zm293.49 0v14.22h-86.4l4.94-14.23h81.45Zm-146.11 0l4.94 14.22h-86.4V-.15h81.45Z"/></svg>