<svg viewBox="0 0 512 281" xmlns="http://www.w3.org/2000/svg"><path fill="#BBBCC1" d="M256.96 84.9c1.76 1.44 3.22 3.17 4.86 4.72l30.83 30.8c-11.98 12-23.97 23.98-35.97 35.96 -3.28-3.16-6.44-6.44-9.67-9.61 -8.66-8.68-17.34-17.32-25.97-25.99 11.97-11.96 23.94-23.92 35.89-35.9Zm84.62-.16c4.81 4.86 9.73 9.62 14.56 14.47l21.15 21.15v0c-1.56 1.88-3.53 3.42-5.19 5.18l-21.81 21.82c-3.04 2.96-5.96 6.06-9.05 8.95 -8.9-8.88-17.82-17.79-26.77-26.73 -3.07-3.04-6.05-6.16-9.19-9.12 1.62-1.91 3.52-3.53 5.28-5.29 10.08-10.05 20.11-20.16 30.21-30.19l.28.22 .47-.52Zm-169.57.52l35.57 35.52c-9.91 9.94-19.84 19.87-29.78 29.79 -1.96 1.88-3.8 3.91-5.81 5.72 -9.67-9.58-19.24-19.24-28.87-28.83 -2.12-2.23-4.54-4.38-6.67-6.7l35.52-35.53Zm127.23-41.88l34.94 35.08c-11.75 11.88-23.65 23.62-35.42 35.48 -1.1-.95-2.15-1.95-3.14-3l-27.3-27.4c-1.66-1.77-3.53-3.28-4.99-5.1 11.74-11.76 23.47-23.51 35.2-35.27 .21-.38.51 0 .68.17Zm84.16-.32c1.09.88 2 1.99 3.03 2.96l32.35 32.43c-11.35 11.38-22.71 22.76-34.08 34.11 -.45.51-.96.97-1.54 1.33 -1.94-2.09-4.01-4.04-6-6.07l-5.87-5.88v0L359.54 90.2c-3.92-3.92-7.83-7.84-11.73-11.77 8.26-8.34 16.62-16.68 24.98-24.97 3.52-3.53 7.05-7.06 10.57-10.46ZM75.78 82.69c-.25.35-.52.68-.83.98l-23.29 23.3c-2.33 2.29-4.59 4.68-7.06 6.91 -8.47-8.54-17-17-25.48-25.52 -.74-.68-1.42-1.4-2.05-2.17 .1-1.19.07-2.35.07-3.53h58.62Zm418.94.66v2.83H496c-.59.75-1.24 1.44-1.94 2.08l-16.7 16.69c-3 2.94-5.89 6.01-8.98 8.81 -8.97-9-17.96-17.99-26.98-26.98 -1.19-1.08-2.3-2.24-3.34-3.46h56.62ZM214.04 42.14c.45.29.86.65 1.21 1.07l20.55 20.53c4.63 4.7 9.37 9.29 13.96 14.1 -11.92 11.91-23.84 23.83-35.76 35.73 -6.32-6.26-12.58-12.58-18.87-18.85 -5.58-5.63-11.25-11.11-16.81-16.74 .07-.3.22-.58.44-.8 11.37-11.45 22.67-22.82 34.04-34.05 .38-.36.68-.87 1.19-1.05Zm-84.24.19c7.05 7.05 14.12 14.12 21.21 21.21l14.2 14.2v0c-11.85 11.84-23.71 23.69-35.57 35.54 -11.96-12.02-23.94-24.01-35.94-35.97l.49-.3c11.58-11.61 23.18-23.2 34.78-34.79 .21-.3.59-.16.79.08Zm338.71-.39l24.38 24.36c1.26 1.33 2.67 2.55 3.87 3.96h-2.05v0 3.13 0h-57.59v0c.65-.89 1.46-1.63 2.23-2.42 9.71-9.68 19.39-19.4 29.12-29.06Zm-423.27.45c7.63 7.7 15.37 15.33 23.06 23.02 2.46 2.53 5.05 4.93 7.45 7.54H17.12v-2.74 0h-.52c.43-.57.91-1.11 1.44-1.59l26.39-26.45c.24-.36.56 0 .77.19ZM172.08-.07c11.95 11.95 23.95 23.83 35.89 35.89 -5.29 5.48-10.85 10.86-16.24 16.29l-19.59 19.55c-.16-.18-.37-.29-.6-.32 -1.38-1.2-2.61-2.58-3.92-3.85l-31.42-31.4c-.3-.22 0-.5.14-.67 9.33-9.29 18.64-18.6 27.92-27.93 2.64-2.46 5.11-5.06 7.66-7.59h.12Zm84.55-.001c8.53 8.32 16.9 16.78 25.38 25.26 3.36 3.4 6.84 6.69 10.11 10.19l-35.95 35.98c-.48-.4-.93-.82-1.36-1.26 -11.27-11.18-22.43-22.45-33.68-33.63 -.16-.22-.59-.48-.32-.78 4.72-4.79 9.48-9.56 14.24-14.33l14.3-14.31c2.38-2.39 4.76-4.78 7.13-7.16h.1Zm84.69 0c10.14 10.15 20.29 20.29 30.44 30.42 1.76 1.76 3.52 3.38 5.11 5.28 -11.8 11.79-23.63 23.55-35.37 35.4 -2.91-2.72-5.63-5.61-8.47-8.38l-27.14-27.16c.32-.65.78-1.21 1.35-1.64L341.16-.12h.12Z"/><g fill="#221E1F"><path d="M298.97 28.59c2.39 2.25 4.67 4.65 7.05 6.94l27.18 27.08c2.83 2.76 5.55 5.65 8.46 8.37 11.74-11.85 23.57-23.61 35.36-35.41 2.22-2.19 4.38-4.43 6.62-6.6 14.8 14.79 29.6 29.63 44.46 44.37 3.03 0 6.06 0 9.09 0 19.19 0 38.39 0 57.58 0 0-1.05 0-2.1 0-3.14 .66 0 1.35 0 2.04 0 5.04 0 10.08 0 15.14 0v15.86c-5.29 0-10.58 0-15.87 0h-1.29v-2.72h-56.72c-4.8 0-9.6 0-14.39 0 -1.64-1.64-3.28-3.3-4.94-4.94l-32.43-32.41c-1.03-.97-1.94-2.09-3.04-2.97 -3.53 3.43-7.06 7.05-10.58 10.45 -8.36 8.28-16.65 16.62-24.99 24.92l-6.28 6.27 -.48.51 -.32-.29 -6.53-6.49 -34.95-35.05c-.18-.18-.48-.55-.69-.18 -11.76 11.75-23.51 23.5-35.27 35.26 -2.16 2.11-4.29 4.24-6.4 6.39 -11.93 11.95-23.88 23.91-35.85 35.87 -2.28 2.23-4.5 4.51-6.78 6.73l-6.7-6.74 -35.58-35.53 -35.53 35.52c-2.21 2.15-4.34 4.37-6.56 6.5 -14.85-14.92-29.69-29.78-44.54-44.57 -3.2 0-6.39 0-9.58 0H17.02c0 1.18 0 2.34 0 3.52 -5.73 0-11.46 0-17.19 0V70.24h14.7c.64.06 1.29.06 1.93 0h.51c.08.91 0 1.76 0 2.73h72.28c1.44 1.46 2.9 2.89 4.35 4.35 11.98 11.96 23.96 23.95 35.93 35.96 11.85-11.83 23.71-23.68 35.56-35.55 2.11-2.14 4.26-4.22 6.34-6.39 .23.03.44.14.59.31 2.04 2.09 4.12 4.14 6.18 6.2 5.55 5.62 11.23 11.1 16.8 16.73 6.29 6.27 12.55 12.58 18.86 18.84 11.91-11.96 23.83-23.91 35.73-35.85l6.43-6.35 35.91-35.92c2.27-2.28 4.58-4.54 6.8-6.86m0 2.3c-3.11 3.24-6.33 6.34-9.49 9.55 -25.16 25.05-50.3 50.15-75.44 75.29 -14.11-14.11-28.21-28.21-42.32-42.32 -13.98 14.03-27.97 28.07-41.98 42.11 -4.36-4.25-8.61-8.61-12.93-12.89l-22.55-22.5c-1.91-1.87-3.72-3.81-5.68-5.59 -23.79 0-47.61 0-71.39 0 0 2.16 0 4.33 0 6.5 22.51 0 45.02 0 67.54 0 .47 0 1.07-.18 1.46.17l43.74 43.68c13.93-13.99 27.9-27.95 41.88-41.89h.26l24.8 24.73c5.74 5.78 11.58 11.49 17.26 17.33 .48-.35.92-.74 1.32-1.19 27.77-27.77 55.54-55.53 83.32-83.31 14.1 14.1 28.2 28.2 42.31 42.31 3.82-4.01 7.86-7.82 11.75-11.76l30.32-30.33c.58-.2.89.74 1.37 1.02 13.29 13.28 26.58 26.56 39.87 39.86 23.43 0 46.87 0 70.3 0v-6.88H426.9c-13.37-13.49-26.87-26.84-40.29-40.25 -1.19-1.12-2.24-2.39-3.53-3.41 -.52.62-1.07 1.21-1.66 1.76 -13.39 13.43-26.84 26.79-40.18 40.23 -.42-.22-.78-.52-1.08-.89l-32.5-32.53c-3.04-2.98-5.98-6.07-9.08-9.01l.01.08Z"/><path d="M36.15 220.51v59.94 0H14.99c.02-20.01.02-39.99 0-59.95h21.15Zm315.89 0v15.09 0h-18.76v44.79 0h-21v-44.8 0h-18.75c-.02-5.05 0-10.07-.02-15.1h58.51Zm-161.89-.02v12.72 0h-23.86v0 10.47 0h21.87v0 12.64h-21.87v11.37 0h24.25v0 12.64 0h-45.35c-.02-19.94-.02-39.89 0-59.86h44.92Zm310.69 0v12.72 0h-22.73v0 10.75 0h21.38v12.71H478.1v0 23.65 0h-21.09v-59.86h43.81Z"/></g><path fill="#FDD34F" d="M298.95 30.88c3.1 2.92 6.04 6.01 9.07 8.99l32.52 32.54c.29.36.66.66 1.07.88 13.34-13.44 26.79-26.8 40.17-40.24 .59-.55 1.14-1.14 1.65-1.77 1.25 1.02 2.3 2.29 3.52 3.4 13.41 13.41 26.92 26.76 40.28 40.24h67.5v6.75c-23.44 0-46.88 0-70.31 0C411.1 68.38 397.81 55.1 384.54 41.8c-.48-.29-.8-1.22-1.38-1.03l-30.33 30.32c-3.9 3.94-7.94 7.75-11.76 11.75 -14.11-14.11-28.21-28.21-42.32-42.32 -27.81 27.75-55.59 55.51-83.33 83.3 -.4.44-.84.84-1.33 1.18 -5.68-5.84-11.52-11.55-17.27-17.34l-24.81-24.69h-.27c-13.97 13.99-27.93 27.98-41.89 41.95L86.07 81.16c-.39-.36-.99-.11-1.47-.18 -22.52 0-45.03 0-67.55 0 0-2.17 0-4.34 0-6.51 23.8 0 47.6 0 71.38 0 1.95 1.76 3.77 3.71 5.67 5.58l22.58 22.56c4.31 4.28 8.56 8.63 12.92 12.88 14.02-14.04 28.04-28.05 42.06-42.05 14.1 14.1 28.2 28.2 42.31 42.31 25.18-25.09 50.32-50.21 75.42-75.37 3.1-3.28 6.29-6.39 9.39-9.65Z"/></svg>