<svg viewBox="0 0 512 314" xmlns="http://www.w3.org/2000/svg"><path fill="#00E7C3" d="M321.34 0c28.05 0 56.11 17.42 67.77 51.87 -4.93-2-10.2-3.01-15.51-3 -6.1-.01-12.11 1.33-17.62 3.92 -7.98-16.88-22.16-23.43-36.95-23.43 -19.37 0-37.58 20.4-57.43 51.38 2.82 3.92 5.7 7.94 8.6 11.94l1.28 1.76c16.28 22.31 33.59 43.51 50.55 43.51 13.52 0 17.55-2.79 27.4-13.89 7.04 5.04 15.48 7.75 24.14 7.74 4.84 0 9.49-.84 13.83-2.36 .42-.02.76-.05.99-.11 -12.28 32.04-42.41 49.71-69.25 49.71 -32.78 0-55.88-29.47-78.87-61.82l-.57-.8c-21.13 33.92-42.42 61.15-73.26 61.15 -27.06 0-54.11-16.21-66.46-48.26 .14.04.34.08.58.1 4.43 1.56 9.09 2.36 13.79 2.35 6.5 0 12.91-1.52 18.71-4.46 8.16 14.97 21.64 20.86 35.65 20.86 18.39 0 40.18-25.33 57.15-51.29 -23.35-32.87-41.75-56.65-62.15-57.33 -10.11-.34-19.38 5.79-26.62 16.03 -6.76-4.46-14.68-6.83-22.78-6.82 -4.33 0-8.49.65-12.41 1.88C113.68 16.91 141.22-.14 168.75-.14c32.34 0 54.88 29.11 78.52 61.35C267.36 28.47 290.24-.15 321.19-.15ZM115.63 60.25c16.62 0 30.1 13.48 30.1 30.11s-13.48 30.11-30.11 30.11 -30.11-13.49-30.11-30.12c0-16.64 13.47-30.12 30.1-30.12Zm257.96 0c16.62 0 30.1 13.48 30.1 30.11s-13.48 30.11-30.11 30.11 -30.11-13.49-30.11-30.12c0-16.64 13.47-30.12 30.1-30.12Z"/><path d="M375.94 270.49l.93 3.08c3.49 11.41 11.4 17.32 24.15 18.12 6.71.4 9.66 0 14.62-2.42 3.35-1.62 9.87-7.6 9.87-7.6l17.77 12.03 -5.1 5.23c-2.82 2.81-8.46 6.84-12.49 8.86 -9.63 4.81-29.07 6.56-40.94 2.55 -8.73-2.96-13.83-6.05-19.6-12.09 -9.8-10.08-14.1-22.83-13.02-39.08 1.87-29.68 26.7-49.28 57.17-44.98 20.13 2.82 32.74 16.24 36.37 38.8 .8 4.83 1.47 10.74 1.47 13.15v4.29h-71.27Zm-177.03-55.05h22.81v13.96l4.69-5.51c5.9-6.99 13.68-10.07 24.82-10.21 10.73 0 16.91 2.68 23.48 10.06l4.83 5.37 4.69-4.84c7.51-7.66 14.22-10.48 25.23-10.48 12.21 0 19.46 2.95 26.03 10.33 8.18 9.26 8.72 12.21 9.26 50.75l.53 34.5h-24.03l-.54-30.48c-.41-26.32-.81-31.29-2.96-35.72 -6.31-12.89-23.63-11.55-30.87 2.41 -2.56 4.83-2.82 8.05-3.23 34.64l-.54 29.13h-23.9v-30.48c0-26.86-.41-31.29-2.55-36.12 -2.96-6.58-8.46-9.27-16.65-8.19 -6.85.93-13.43 7.38-15.57 15.3 -.81 2.81-1.48 17.18-1.48 32.35v27.12H198.8v-93.99Zm-171.8 93.98H2.95v-93.99H27.1v93.98Zm428.14-93.99h22.81v15.44l3.35-4.97c4.02-6.05 12.61-11.15 20.39-12.36 5.21-.76 9.78-.44 9.78-.44l.01 22.69 -5.91.02c-11.95-.94-21.88 5.77-24.83 16.78 -.81 2.82-1.48 16.78-1.48 31.01v25.77h-24.16v-93.99Zm-414.73 0h22.81v13.96l4.69-5.51c5.9-6.99 13.68-10.07 24.82-10.21 10.73 0 16.91 2.68 23.48 10.06l4.83 5.37 4.69-4.84c7.51-7.66 14.22-10.48 25.23-10.48 12.21 0 19.46 2.95 26.03 10.33 8.18 9.26 8.72 12.21 9.26 50.75l.53 34.5h-24.03l-.54-30.48c-.41-26.32-.81-31.29-2.96-35.72 -6.31-12.89-23.63-11.55-30.87 2.41 -2.56 4.83-2.82 8.05-3.23 34.64l-.54 29.13h-23.9v-30.48c0-26.86-.41-31.29-2.56-36.12 -2.96-6.58-8.46-9.27-16.65-8.19 -6.85.93-13.43 7.38-15.57 15.3 -.81 2.81-1.48 17.18-1.48 32.35v27.12H40.39v-93.99 0Zm381.17 33.97c0-5.24-4.43-11.96-9.67-14.64 -12.89-6.85-31.01.94-35.3 15.3l-.81 2.95h45.76v-3.63h0ZM15.47 168.75c8.55 0 15.49 6.94 15.49 15.5 0 8.55-6.95 15.5-15.5 15.5 -8.56 0-15.5-6.95-15.5-15.51 0-8.56 6.94-15.51 15.49-15.51v-.01Z"/></svg>