<svg viewBox="0 0 512 73" xmlns="http://www.w3.org/2000/svg"><path fill="#FC4349" d="M0 0h23.72v70.144H-.01V0Zm31.06 0h18.43l18.26 26.96L86.01-.01h18.6V70.13H82.08V44.87l-14.34 20.99 -14.34-21v25.25H31.04V-.03Zm80.72 0h18.6l18.09 26.96L166.73-.01h18.6V70.13H162.8V44.87l-14.34 21.16 -14.34-21v25.25h-22.36V-.04Zm107.69 72.02c-4.44 0-8.37-.52-11.95-1.71 -3.59-1.2-6.66-2.74-9.22-5.12 -2.56-2.22-4.44-5.12-5.81-8.54 -1.37-3.42-2.05-7.51-2.05-12.12V-.02h22.35v43.69c0 2.38.51 4.26 1.53 5.63 1.02 1.36 2.73 1.87 5.12 1.87 2.38 0 4.09-.69 5.12-1.88 1.02-1.37 1.53-3.25 1.53-5.64V-.05h22.52V44.5c0 4.6-.69 8.7-2.05 12.11 -1.37 3.41-3.42 6.31-5.98 8.53 -2.56 2.21-5.64 3.92-9.22 5.12 -3.59 1.02-7.51 1.7-11.95 1.7Zm45.73-53.59h-12.98V-.01h48.98V18.42h-12.98V70.13H265V18.42h.17ZM318.1-.01h16.89l26.62 70.144h-22.02l-2.39-6.32h-21.34l-2.39 6.31h-22.02L318.07-.02Zm13.14 48.46l-4.78-12.29 -4.78 12.28h9.55ZM363.32-.02h27.47c3.58 0 6.65.34 9.55 1.19 2.9.85 5.46 2.048 7.5 3.58 2.04 1.53 3.75 3.58 4.77 5.97 1.19 2.38 1.7 5.12 1.7 8.19 0 2.21-.35 4.096-.86 5.8 -.52 1.53-1.2 2.9-1.71 3.92 -.86 1.19-1.71 2.38-2.56 3.07 1.53 1.02 2.9 2.21 4.26 3.75 1.02 1.36 2.04 3.07 2.9 5.12 .85 2.04 1.36 4.6 1.36 7.5 0 3.41-.52 6.48-1.71 9.21 -1.2 2.73-2.91 5.12-5.12 6.99 -2.22 1.87-4.95 3.41-8.03 4.43 -3.25 1.02-6.83 1.53-10.76 1.53H363.4V-.09h-.18Zm29.52 21.33c0-3.25-1.71-4.78-5.3-4.78h-2.56v9.72h2.56c3.58 0 5.29-1.71 5.29-4.95v0 0Zm-5.3 32.25c5.29 0 8.02-2.05 8.02-6.15 0-4.1-2.74-6.15-8.03-6.15h-2.56v12.28h2.56ZM423.72-.03h23.38V51.68h19.28v18.43h-42.67V-.04Zm46.08 0h41.3V18.4h-18.95v7.85h18.6v17.4h-18.61v8.02h19.79V70.1h-42.16V-.05Z"/><path fill="#2C3E50" d="M0 0h23.72v70.144H-.01V0v0Zm13.31 61.78V8.36h-2.74v53.41h2.73ZM31.05-.01h18.43l18.26 26.96L86-.02h18.6V70.12H82.07V44.86l-14.34 20.99 -14.34-21v25.25H31.03V-.04Zm13.14 61.78v-48.3l23.55 34.3 23.55-34.31v48.29h2.73V8.33h-2.74L67.72 42.97 44.16 8.32h-2.74v53.41h2.73ZM111.77-.02h18.6l18.09 26.96L166.72-.03h18.6v70.144h-22.53v-25.26l-14.34 21.16 -14.34-21v25.25h-22.36V-.06Zm13.14 61.78v-48.3l23.55 34.3 23.38-34.31v48.29h2.73V8.32h-2.74l-23.39 34.64 -23.56-34.65h-2.74v53.41h2.73ZM219.45 72c-4.44 0-8.37-.52-11.95-1.71 -3.59-1.2-6.66-2.74-9.22-5.12 -2.56-2.22-4.44-5.12-5.81-8.54 -1.37-3.42-2.05-7.51-2.05-12.12V-.04h22.35v43.69c0 2.38.51 4.26 1.53 5.63 1.02 1.36 2.73 1.87 5.12 1.87 2.38 0 4.09-.69 5.12-1.88 1.02-1.37 1.53-3.25 1.53-5.64V-.07h22.52V44.48c0 4.6-.69 8.7-2.05 12.11 -1.37 3.41-3.42 6.31-5.98 8.53 -2.56 2.21-5.64 3.92-9.22 5.12 -3.59 1.02-7.51 1.7-11.95 1.7Zm0-12.63c-10.59 0-15.71-5.12-15.71-15.54V8.33H201v35.49c0 5.97 1.53 10.41 4.77 13.48 3.24 3.07 7.85 4.6 13.65 4.6 5.97 0 10.58-1.54 13.82-4.61 3.24-3.08 4.77-7.68 4.77-13.49V8.3h-2.91v35.49c0 10.24-5.12 15.53-15.71 15.53Zm45.73-40.96H252.2V-.03h48.98V18.4H288.2v51.712h-23.22V18.402h.17Zm12.97 43.34V10.89h15.01V8.33h-32.77v2.56h15.01v50.85h2.73ZM318.08-.04h16.89L361.59 70.1h-22.02l-2.39-6.32h-21.34l-2.39 6.31h-22.02L318.05-.05Zm-10.93 61.78l2.04-5.3h34.64l2.04 5.29h2.9L328.46 8.31h-3.93l-20.31 53.41h2.9v0Zm19.28-50.86l16.38 43h-32.77l16.38-43.01v0Zm4.77 37.54l-4.78-12.29 -4.78 12.28h9.55ZM363.28-.05h27.47c3.58 0 6.65.34 9.55 1.19 2.9.85 5.46 2.048 7.5 3.58 2.04 1.53 3.75 3.58 4.77 5.97 1.19 2.38 1.7 5.12 1.7 8.19 0 2.21-.35 4.096-.86 5.8 -.52 1.53-1.2 2.9-1.71 3.92 -.86 1.19-1.71 2.38-2.56 3.07 1.53 1.02 2.9 2.21 4.26 3.75 1.02 1.36 2.04 3.07 2.9 5.12 .85 2.04 1.36 4.6 1.36 7.5 0 3.41-.52 6.48-1.71 9.21 -1.2 2.73-2.91 5.12-5.12 6.99 -2.22 1.87-4.95 3.41-8.03 4.43 -3.25 1.02-6.83 1.53-10.76 1.53h-28.68V-.12h-.18Zm25.77 61.78c6.14 0 10.75-1.37 13.65-3.93 2.9-2.74 4.43-6.15 4.43-10.59 0-2.91-.69-5.12-1.88-6.83 -1.2-1.71-2.56-3.08-3.93-4.1 -1.71-1.2-3.76-1.88-5.81-2.39 1.7-.52 3.24-1.2 4.6-2.39 1.19-.86 2.21-2.22 3.24-3.76 1.02-1.54 1.36-3.59 1.36-5.98 0-4.44-1.37-7.68-4.27-10.07 -2.74-2.22-6.66-3.42-11.44-3.42h-15.19v53.41h15.18v0Zm-12.46-29.19V10.86h12.45c4.6 0 7.85 1.02 9.89 3.07 2.04 2.04 3.07 4.6 3.07 7.85 0 3.24-1.03 5.8-3.08 7.85 -2.05 2.04-5.3 3.07-9.9 3.07h-12.46v-.18 0Zm0 26.62V35.09h12.28c2.21 0 4.26.17 5.97.68 1.87.51 3.41 1.19 4.94 2.04 1.36 1.02 2.56 2.21 3.24 3.75 .85 1.53 1.19 3.41 1.19 5.46 0 4.26-1.37 7.33-4.27 9.21 -2.91 1.87-6.66 2.9-11.27 2.9h-12.12v0Zm16.21-37.89c0-3.25-1.71-4.78-5.3-4.78h-2.56v9.72h2.56c3.58 0 5.29-1.71 5.29-4.95v0 0Zm-5.3 32.25c5.29 0 8.02-2.05 8.02-6.15 0-4.1-2.74-6.15-8.03-6.15h-2.56V53.5h2.56ZM423.68-.07h23.38V51.64h19.28v18.43h-42.67V-.08Zm36.86 61.78v-2.56h-23.56V8.29h-2.74V61.7h26.28Zm9.21-61.79h41.3V18.35H492.1v7.85h18.6v17.4h-18.61v8.02h19.79v18.43h-42.16V-.1Zm34.3 61.78v-2.56h-21V36.1h19.96v-2.56h-19.97v-22.7h20.99V8.28H480.3v53.41h23.72v0Z"/></svg>