<svg viewBox="0 0 256 613" xmlns="http://www.w3.org/2000/svg"><path fill="#2C6791" d="M193.43 15.57c3.46 4.17 6.51 8.26 9.75 12.6 42.17 56.52 54.84 124.22 42.57 193.16 -.78 4.38-3.09 4.57-6.37 7.73 -20.25 19.53-39.75 39.78-51.85 65.5 -5.09 10.8-7.68 22.94-10.15 34.74 -.74 3.52 1.77 10.15 4.54 11.36 3.1 1.35 9.63-.5 12.17-3.26 12.9-14.03 25.33-28.53 37.26-43.4 8.14-10.15 15.19-21.17 23.49-31.42 2.24 22.43 1.85 44.47-8.42 64.577 -4.33 12.8-9.9 14.31-16.86 22.03 -7.92 5.93-17.03 14.95-22.63 22.49 -8.76 14.02-8.29 25.36 4.83 35.19 .82.5 5.14 2.57 6.54 2.88 -2.97 1.98-5.58 2.63-12.38 4.61 -.25 10.19-8.74 16.98-11.23 21.75 -1.18 4.56-1.62 5.25-1.99 10.34 -3.21 43.8-9.68 91.21-25.98 132.44 -5.51 13.93-12.15 22.66-25.95 28.44 -1.66.69-9.38 4.7-10.38 4.91 3.39-5.4 4.03-13.36-.47-19.48 -3.23-4.39-16.12-4.15-20.29-8.16 .79-.19 6.32.23 7.11.26 6.57.22 12.79-.11 14.71-8.2 1.54-6.5-1.92-12.98-8.45-17.524 -4.45-3.1-7.509-3.98-11.31-7.85 -.92-.94-2.31-6.1-1.35-9.49 .13-.47.68-.64 1.04-.32 4.28 3.84 9.878 7.91 13.45 12.19 2.29 2.1 5.19 4.51 7.19 4.48 2.11-.03 3.33-2.6 5.8-4.35 5.69-5.07 7.7-7.54 11.29-14.46 .62-3.81-.73-10.27-1.92-14.96 -4.99-19.62-6.56-40.03-1.44-59.72 3.66-14.11 8.91-28.52 16.75-40.67 12.53-19.44 13.11-37.22-.02-55.83 -22.45-31.81-19.86-63.96-1.68-96.56 12.95-23.24 29.63-43.46 48.089-62.46 3.82-3.94 6.31-4.34 7.369-9.72 13.51-62.3 5.2-125.49-24.56-180.89 -1.32-2.39-12.44-17.84-12.61-18.71 .35-.24 13.82 15.81 14.17 15.57ZM71.73 352.46c-.73-9.12-.81-17.71-2.17-26.11 -5.43-33.5-23.18-60.46-45.85-84.69 -1.81-1.93-3.47-4.11-5.6-5.58 -11.33-7.78-14.78-19.2-16.25-32.1C-6.32 132.07 11.95 68.3 59.72 13.44 60.03 13.07 69.49.73 71.03.12c-13.4 23.34-29.34 46.14-36.9 85.16 -7.32 37.77-7.4 75.24.5 112.76 .8 3.83 3.61 7.63 6.41 10.58C60.88 229.5 79.56 251.4 90.946 278.08c5.45 12.79 9.14 26.84 10.72 40.65 2.14 18.74-9.48 30.81-29.98 33.66Zm-20.18 58.96c18.1-12.05 31.53-8.31 39.11 8.11 8.06 17.46 13.18 42.64 14.06 61.88 -4.56-11.16-10.9-28.83-15.34-40.03 -2.09-5.27-4.85-9.09-11.33-8.98 -6.06.11-10.05-3.44-11.36-9.11 -.61-2.61-1.33-6.51-2.91-8.27 -2.64-2.94-6.99-3-12.27-3.64Zm-6.32-57.26C21.59 338.34 4.5 318.07 1.26 287.87c13.006 5.58 36.59 40.66 43.963 66.286Z"/></svg>