<svg viewBox="0 0 256 261" xmlns="http://www.w3.org/2000/svg"><path fill="#020A47" d="M57.79 153.55l.46.11 109.58 33.54c.91.26 1.77.7 2.52 1.29 .74.59 1.36 1.33 1.83 2.16 .46.83.75 1.75.86 2.7 .08.75.04 1.52-.11 2.27l-.14.55 -18.37 58.78c-.65 1.79-1.91 3.29-3.57 4.24 -1.51.85-3.24 1.21-4.95 1l-.52-.08 -109.59-33.87c-1.84-.56-3.37-1.82-4.28-3.5 -.83-1.54-1.07-3.31-.71-5l.12-.51 18.23-58.66c.54-1.86 1.79-3.42 3.48-4.35 1.54-.86 3.35-1.12 5.06-.75Zm184.99 26.84l-.25.25 -73.19 67.75c-2.7 2.69-4.09 1.8-3.23-1.71l.09-.36 15.25-49.1c.68-2.03 1.87-3.86 3.44-5.31 1.4-1.29 3.07-2.25 4.88-2.81l.68-.2 50.29-11.43c3.56-1.29 4.39.14 2.21 2.62l-.23.25ZM3.34 103.95l.23.26 35.03 37.81c1.37 1.66 2.34 3.61 2.82 5.72 .42 1.86.45 3.8.09 5.67l-.16.7 -15.26 49.09c-.94 3.67-2.64 3.79-3.39.36l-.08-.37L.4 105.92c-1.09-3.68.58-4.55 2.89-2.01Zm223.42-62.56c1.49.89 2.6 2.29 3.13 3.93l.13.45 25.66 111.33c.27.9.34 1.86.23 2.8 -.12.94-.44 1.84-.93 2.66 -.49.81-1.15 1.51-1.92 2.06 -.63.43-1.31.76-2.04.97l-.56.13 -60.36 13.83c-1.84.45-3.79.16-5.41-.81 -1.5-.9-2.61-2.3-3.14-3.94l-.14-.46L155.81 63c-.47-1.83-.18-3.77.78-5.39 .88-1.49 2.27-2.6 3.9-3.13l.45-.14 60.33-13.84c1.83-.46 3.78-.17 5.4.8Zm-78.68 26.03l.11.37 24.27 105.09c.98 3.82-1.24 5.87-4.86 5.06l-.37-.1 -103.35-31.81c-3.68-1.01-4.45-3.94-2-6.63l.27-.29 79.06-73.45c2.66-2.67 5.68-1.78 6.82 1.71ZM91.22-.02c.94.02 1.86.23 2.72.61 .68.3 1.32.72 1.87 1.22l.4.39 41.89 45.36c1.26 1.36 1.93 3.17 1.87 5.04 -.06 1.7-.74 3.32-1.9 4.56l-.33.32 -83.92 77.81c-1.39 1.27-3.22 1.96-5.11 1.89 -1.73-.06-3.37-.75-4.63-1.92l-.34-.34 -41.97-45.4C.51 88.14-.15 86.33-.09 84.48c.05-1.71.72-3.33 1.87-4.57l.32-.34 83.93-77.7C86.7 1.21 87.5.7 88.38.36c.87-.35 1.81-.51 2.75-.49Zm21.23 1.89l.34.09 95.71 29.29c3.69.98 3.82 2.64.48 3.69l-.36.1 -50.3 11.4c-2.11.43-4.29.35-6.36-.24 -1.85-.52-3.55-1.43-5.01-2.65l-.54-.48 -35.04-37.69c-3.01-3.01-2.46-4.41 1.04-3.55Z"/></svg>