<svg viewBox="0 0 256 256" xmlns="http://www.w3.org/2000/svg"><defs><linearGradient id="a" x1="38.263%" x2="58.004%" y1="9.701%" y2="40.205%"><stop offset="0%" stop-color="#DB221A"/><stop offset="100%" stop-color="#9E020B"/></linearGradient><linearGradient id="b" x1="0%" x2="59.126%" y1="58.373%" y2="44.551%"><stop offset="0%" stop-color="#87D152"/><stop offset="100%" stop-color="#5CA82C"/></linearGradient><linearGradient id="c" x1="55.986%" x2="47.765%" y1="94.205%" y2="50%"><stop offset="0%" stop-color="#39BE90"/><stop offset="100%" stop-color="#2C8A72"/></linearGradient></defs><path fill="url(#a)" d="M25.54 25.33l1.12 4.45L68.2 71.55l42.44-42.67 .34-3.56H25.52"/><path fill="#F6B937" d="M68.13 67.84l-.67 2.59 23.2 96.78 39.524-39.53 -59.29-59.52 -2.79-.35"/><path fill="#FFD500" d="M185.89 67.59l40.422-40.572 4.35-1.26v84.19l-3.46-.45 -41.33-41.92"/><path fill="#FFF67D" d="M136.18 0l94.48 25.767 -42.29 41.854 -8.91 4.8 -80.85 20.63 -7.15-1.87L68.11 67.82 136.16-.02Z"/><path fill="#5ACDA5" d="M188.37 67.62l-3.39 1.61 -21.26 20.66 .48 1.89 -.63 2.75 22.45 89.828 1.9 3.13 .19 2.25 39.524 39.37 2.93 1.03 25.4-94.78 -67.63-67.77"/><path fill="url(#b)" d="M25.91 145.433v84.87l5.026-1.11 41.32-41.92 -43.35-40.95 -3.01-.91"/><path fill="#AFE682" d="M25.91 230.3l42.43-43.018 3.91-1.99 92.29-22.91 23.38 25.11 -1.05 2.4 -37.4 38.73 -3.51 1.43 -25.03 25.41 -95.063-25.19"/><path fill="#7DD769" d="M164.21 91.78l-3.37 1.89 -32.12 31.55 -.63 2.66 59.83 59.61 -23.73-95.72"/><path fill="#AADC50" d="M188.37 67.621l-60.27 60.27L91.47 91.19l96.89-23.58Z"/><path fill="url(#c)" d="M146.08 230.16l41.85-42.655 42.65 42.655h-84.51"/><path fill="#DC4B1E" d="M0 120.248l68.349 67.03 3.23-1.77 20.77-18.08 -.79-3.24 -23.44-96.38L25.537 25.29 -.02 120.216"/><path fill="#AABE55" d="M68.34 187.28l59.76-59.4 36.39 36.24 -96.155 23.14"/></svg>