<svg viewBox="0 0 512 146" xmlns="http://www.w3.org/2000/svg"><g fill="#343433"><path d="M27.12.9C16.67 5.27 5.18 17.62 1.56 33.13c-4.6 19.64 14.52 27.95 16.08 25.23 1.84-3.21-3.43-4.29-4.52-14.48C11.71 30.71 17.83 16 25.54 9.54c1.43-1.2 1.36.46 1.36 3.55 0 5.52-.31 55.08-.31 65.42 0 13.99-.58 18.41-1.62 22.78 -1.06 4.42-2.75 7.41-1.47 8.56 1.43 1.28 7.54-1.78 11.08-6.72 4.24-5.93 5.72-13.04 5.99-20.77 .32-9.32.3-24.1.32-32.53 .01-7.74.12-30.38-.14-43.99 -.07-3.34-9.33-6.85-13.7-5.02"/><path d="M398.06 66.4c-.34 7.27-1.95 12.96-3.95 16.97 -3.88 7.76-11.91 10.17-15.32-.99 -1.86-6.09-1.95-16.25-.61-24.75 1.35-8.66 5.15-15.19 11.44-14.6 6.2.58 9.1 8.57 8.42 23.34v0Zm-104.55 45.14c-.09 12.09-1.99 22.69-6.07 25.77 -5.79 4.36-13.57 1.09-11.96-7.74 1.42-7.81 8.16-15.79 18.03-25.53 0 0 .02 2.22-.02 7.48v0Zm-1.59-45.22c-.36 6.62-2.08 13.28-3.95 17.04 -3.87 7.76-11.96 10.19-15.32-.99 -2.3-7.64-1.75-17.53-.61-23.76 1.47-8.09 5.03-15.59 11.44-15.59 6.22 0 9.29 6.83 8.42 23.27v0Zm-60.57-.11c-.38 7.01-1.75 12.88-3.95 17.14 -3.98 7.71-11.85 10.15-15.32-.99 -2.51-8.04-1.65-19-.61-24.92 1.54-8.79 5.4-15.02 11.44-14.43 6.19.6 9.21 8.57 8.42 23.17v0ZM508.9 74.4c-1.52 0-2.21 1.56-2.78 4.19 -1.99 9.14-4.08 11.2-6.76 11.2 -3.01 0-5.71-4.53-6.4-13.59 -.55-7.13-.46-20.25.23-33.3 .14-2.69-.6-5.34-7.79-7.95 -3.1-1.13-7.6-2.78-9.84 2.62 -6.33 15.27-8.81 27.39-9.39 32.32 -.04.25-.35.3-.4-.29 -.38-3.95-1.21-11.12-1.31-26.18 -.02-2.94-.65-5.45-3.89-7.49 -2.11-1.33-8.5-3.68-10.8-.89 -2 2.28-4.31 8.44-6.71 15.73 -1.96 5.92-3.31 9.94-3.31 9.94s.02-16 .04-22.07c.01-2.29-1.57-3.06-2.04-3.2 -2.14-.62-6.34-1.66-8.12-1.66 -2.2 0-2.74 1.22-2.74 3.01 0 .23-.35 21.06-.35 35.62 0 .63 0 1.32 0 2.05 -1.22 6.69-5.17 15.78-9.46 15.78 -4.3 0-6.33-3.8-6.33-21.17 0-10.13.3-14.54.45-21.86 .08-4.22.25-7.47.24-8.2 -.04-2.26-3.94-3.4-5.75-3.82 -1.83-.43-3.41-.59-4.65-.52 -1.76.09-2.99 1.24-2.99 2.82 0 .84 0 2.45 0 2.45 -2.26-3.55-5.89-6.01-8.3-6.73 -6.5-1.94-13.29-.22-18.4 6.93 -4.07 5.68-6.52 12.12-7.49 21.38 -.71 6.76-.48 13.62.77 19.43 -1.52 6.54-4.33 9.23-7.41 9.23 -4.47 0-7.72-7.3-7.34-19.92 .24-8.3 1.9-14.13 3.72-22.55 .77-3.6.14-5.48-1.44-7.28 -1.45-1.66-4.53-2.5-8.96-1.46 -3.16.74-7.67 1.53-11.8 2.14 0 0 .24-1 .45-2.75 1.07-9.2-8.92-8.45-12.1-5.51 -1.91 1.75-3.2 3.81-3.69 7.53 -.78 5.89 4.03 8.67 4.03 8.67 -1.58 7.22-5.45 16.66-9.45 23.48 -2.14 3.65-3.78 6.36-5.89 9.24 -.01-1.08-.02-2.15-.02-3.22 -.05-15.19.15-27.14.24-31.45 .08-4.22.25-7.38.24-8.11 -.03-1.65-.99-2.28-3-3.07 -1.78-.7-3.87-1.19-6.04-1.35 -2.75-.22-4.4 1.24-4.36 2.96 0 .32 0 2.31 0 2.31 -2.26-3.55-5.89-6.01-8.3-6.73 -6.5-1.93-13.29-.22-18.4 6.93 -4.07 5.68-6.73 13.66-7.49 21.31 -.71 7.12-.58 13.18.38 18.28 -1.04 5.1-4.01 10.44-7.37 10.44 -4.3 0-6.74-3.8-6.74-21.17 0-10.13.3-14.54.45-21.86 .08-4.22.25-7.47.24-8.2 -.04-2.26-3.94-3.4-5.75-3.82 -1.9-.44-3.54-.61-4.8-.51 -1.67.12-2.83 1.6-2.83 2.71v2.55c-2.26-3.55-5.89-6.01-8.3-6.73 -6.5-1.93-13.25-.2-18.4 6.93 -3.37 4.64-6.09 9.8-7.49 21.21 -.41 3.29-.59 6.38-.57 9.27 -1.35 8.19-7.26 17.64-12.11 17.64 -2.84 0-5.54-5.5-5.54-17.21 0-15.61.96-37.82 1.12-39.96 0 0 6.11-.11 7.3-.12 3.05-.04 5.81.03 9.87-.17 2.03-.11 4-7.42 1.89-8.33 -.96-.41-7.7-.77-10.37-.83 -2.25-.06-8.51-.52-8.51-.52s.56-14.75.69-16.31c.11-1.3-1.57-1.97-2.54-2.38 -2.35-1-4.44-1.47-6.93-1.98 -3.44-.71-4.99-.02-5.3 2.88 -.46 4.39-.7 17.26-.7 17.26 -2.52 0-11.12-.5-13.64-.5 -2.35 0-4.87 10.06-1.64 10.18 3.72.14 10.2.26 14.5.39 0 0-.2 22.57-.2 29.54 0 .74 0 1.45 0 2.14 -2.37 12.33-10.71 18.99-10.71 18.99 1.79-8.17-1.87-14.29-8.46-19.48 -2.43-1.92-7.22-5.54-12.58-9.5 0 0 3.1-3.06 5.85-9.22 1.95-4.37 2.03-9.36-2.76-10.46 -7.92-1.82-14.44 3.99-16.39 10.19 -1.51 4.8-.71 8.37 2.24 12.07 .21.27.44.54.69.82 -1.79 3.44-4.24 8.07-6.32 11.67 -5.77 9.97-10.13 17.87-13.42 17.87 -2.64 0-2.6-8.02-2.6-15.52 0-6.47.47-16.2.85-26.27 .12-3.33-1.54-5.23-4.33-6.95 -1.7-1.05-5.32-3.1-7.42-3.1 -3.14 0-12.19.42-20.75 25.16 -1.08 3.11-3.2 8.8-3.2 8.8l.18-29.76c0-.7-.38-1.38-1.23-1.84 -1.45-.79-5.3-2.39-8.72-2.39 -1.64 0-2.45.75-2.45 2.27l-.3 46.54c0 3.53.09 7.66.44 9.46 .34 1.8.91 3.27 1.61 4.15 .69.87 1.5 1.53 2.83 1.81 1.23.25 8.02 1.12 8.37-1.47 .42-3.11.43-6.47 4-19.01 5.54-19.52 12.77-29.04 16.17-32.42 .59-.6 1.27-.63 1.24.34 -.15 4.27-.66 14.96-1 24.05 -.93 24.3 3.5 28.8 9.81 28.8 4.83 0 11.64-4.81 18.95-16.97 4.55-7.58 8.97-15.01 12.15-20.37 2.21 2.04 4.69 4.25 7.18 6.61 5.76 5.47 7.66 10.67 6.4 15.61 -.97 3.77-4.59 7.66-11.03 3.88 -1.88-1.11-2.68-1.96-4.57-3.2 -1.02-.67-2.57-.87-3.5-.17 -2.42 1.81-3.8 4.13-4.58 6.99 -.77 2.78 2.02 4.26 4.91 5.54 2.49 1.1 7.84 2.11 11.26 2.22 13.3.44 23.96-6.43 31.38-24.15 1.32 15.3 6.98 23.96 16.8 23.96 6.56 0 13.14-8.49 16.02-16.84 .82 3.4 2.04 6.36 3.62 8.86 7.56 11.98 22.24 9.4 29.62-.78 2.27-3.15 2.62-4.28 2.62-4.28 1.07 9.61 8.81 12.97 13.25 12.97 4.96 0 10.09-2.35 13.68-10.44 .42.87.88 1.71 1.38 2.51 7.56 11.98 22.24 9.4 29.62-.78 .34-.48.64-.92.91-1.3l.21 6.31s-4.21 3.85-6.79 6.22c-11.38 10.42-20.03 18.34-20.67 27.55 -.81 11.74 8.71 16.11 15.92 16.68 7.64.6 14.2-3.63 18.23-9.54 3.54-5.21 5.86-16.42 5.69-27.49 -.07-4.44-.18-10.08-.27-16.12 3.99-4.64 8.49-10.51 12.63-17.37 4.51-7.48 9.35-17.53 11.83-25.34 0 0 4.2.03 8.69-.26 1.43-.1 1.84.19 1.58 1.25 -.33 1.27-5.67 21.9-.79 35.64 3.34 9.4 10.87 12.43 15.34 12.43 5.22 0 10.22-3.95 12.9-9.82 .32.65.66 1.28 1.02 1.87 7.56 11.98 22.19 9.39 29.62-.78 1.67-2.3 2.62-4.28 2.62-4.28 1.59 9.94 9.33 13.02 13.76 13.02 4.61 0 8.99-1.9 12.55-10.31 .14 3.7.38 6.73.75 7.68 .22.58 1.53 1.31 2.49 1.67 4.22 1.56 8.53.82 10.12.5 1.1-.23 1.96-1.11 2.08-3.4 .3-6.01.11-16.1 1.93-23.6 3.05-12.59 5.9-17.47 7.25-19.89 .75-1.36 1.61-1.58 1.64-.15 .06 2.89.2 11.41 1.39 22.85 .86 8.41 2.03 13.38 2.92 14.95 2.54 4.5 5.69 4.71 8.25 4.71 1.62 0 5.03-.46 4.73-3.32 -.15-1.4.11-10.03 3.12-22.43 1.96-8.1 5.24-15.41 6.43-18.09 .43-.99.63-.21.63-.06 -.25 5.57-.81 23.81 1.46 33.78 3.07 13.51 11.98 15.02 15.08 15.02 6.62 0 12.04-5.05 13.87-18.31 .43-3.2-.22-5.66-2.17-5.66v0Z"/></g></svg>