<svg viewBox="0 0 256 252" xmlns="http://www.w3.org/2000/svg"><path fill="#1EBBEE" d="M256 131.59c0-20.24-5.24-39.26-14.41-55.78 39.1-88.52-41.91-75.55-46.42-74.67 -17.17 3.35-33.05 8.75-47.7 15.58 -2.16-.13-4.34-.19-6.53-.19 -54.67 0-100.43 38.12-112.14 89.24C57.61 73.44 77.77 60.4 89.85 55.18c-1.93 1.72-3.82 3.46-5.68 5.21 -.62.58-1.22 1.17-1.83 1.76 -1.23 1.17-2.45 2.35-3.64 3.54 -.71.7-1.41 1.42-2.1 2.13 -1.06 1.07-2.12 2.15-3.15 3.23 -.74.76-1.45 1.54-2.17 2.31 -.97 1.03-1.93 2.06-2.87 3.1 -.74.8-1.46 1.61-2.17 2.42 -.9 1-1.78 2-2.65 3.01 -.73.83-1.44 1.66-2.15 2.5 -.83.97-1.65 1.95-2.45 2.92 -.72.86-1.43 1.72-2.13 2.58 -.76.93-1.5 1.86-2.24 2.79 -.72.9-1.44 1.8-2.14 2.7 -.67.85-1.32 1.71-1.97 2.56 -.74.96-1.48 1.93-2.2 2.89 -.52.68-1.01 1.36-1.51 2.05 -4.55 6.2-8.7 12.28-12.45 18.12 -.01.01-.02.02-.03.04 -.99 1.53-1.95 3.05-2.88 4.55 -.06.08-.11.16-.16.24 -.94 1.5-1.84 2.99-2.72 4.45 -.04.05-.07.1-.1.15 -2.37 3.94-4.57 7.75-6.54 11.33 -10.37 18.77-15.41 31.89-15.63 32.67 -32.72 116.97 69.39 67.57 83.64 60.2 15.34 7.57 32.61 11.84 50.88 11.84 50.02 0 92.58-31.93 108.42-76.52h-60.45c-8.95 15.11-26.17 25.34-45.95 25.34 -28.99 0-52.48-21.96-52.48-49.05h164.53c.62-4.86.94-9.8.94-14.82v0ZM234.5 18.38c9.9 6.68 17.85 17.18 4.2 52.54 -13.09-21.05-32.78-37.56-56.19-46.64 10.64-5.15 37.01-16.02 51.97-5.92v0ZM23.96 234.54c-8.07-8.28-9.5-28.43 8.3-65.16 8.98 25.83 26.91 47.48 50.09 61.22 -11.53 6.34-42.13 20.62-58.41 3.93v0Zm66.27-119.61c.91-26.33 23.83-47.41 51.98-47.41s51.06 21.08 51.98 47.4H90.21v0Z"/></svg>