<svg viewBox="0 0 256 263" xmlns="http://www.w3.org/2000/svg"><path d="M221.66 144.56c0 2.34-.9 4.58-2.5 6.24 -1.6 1.65-3.77 2.58-6.03 2.58 -2.26 0-4.43-.94-6.03-2.59 -1.6-1.66-2.5-3.91-2.5-6.25V65.65c0-2.35.89-4.59 2.49-6.25 1.59-1.66 3.76-2.59 6.02-2.59 2.25 0 4.42.93 6.02 2.58 1.59 1.65 2.49 3.9 2.49 6.24v78.88Zm-2.96 54.65c-1.13 1.16-32.8 28.53-90.85 28.53 -58.06 0-89.51-27.22-90.85-28.39 -.85-.74-1.54-1.64-2.05-2.66 -.51-1.02-.82-2.13-.91-3.27 -.1-1.14.03-2.29.37-3.38 .33-1.09.87-2.1 1.59-2.97 1.46-1.77 3.55-2.86 5.79-3.04 2.24-.18 4.45.57 6.16 2.08 .49.36 28.78 24.15 79.79 24.15 51.01 0 79.51-23.94 79.79-24.16 1.72-1.5 3.95-2.24 6.2-2.06 2.24.17 4.33 1.25 5.83 3 1.43 1.73 2.15 3.99 1.99 6.27 -.16 2.28-1.18 4.4-2.84 5.91l-.08-.08ZM33.98 65.66c.12-2.35 1.14-4.56 2.83-6.13 1.68-1.58 3.9-2.39 6.17-2.27 2.1.12 4.08 1.04 5.56 2.59 1.48 1.54 2.35 3.61 2.45 5.79v78.73c0 2.34-.9 4.58-2.5 6.24 -1.6 1.65-3.77 2.58-6.03 2.58 -2.26 0-4.43-.93-6.03-2.59 -1.6-1.66-2.5-3.91-2.5-6.25V65.61Zm42.71-17.52c.12-2.35 1.14-4.56 2.83-6.13 1.68-1.58 3.9-2.39 6.17-2.27 2.1.12 4.08 1.04 5.56 2.59 1.48 1.54 2.35 3.61 2.45 5.79v116.75c0 2.34-.9 4.58-2.5 6.24 -1.6 1.65-3.77 2.58-6.03 2.58 -2.26 0-4.43-.94-6.03-2.59 -1.6-1.66-2.5-3.91-2.5-6.25V48.09Zm42.92-4.38c0-2.35.89-4.59 2.49-6.25 1.59-1.66 3.76-2.59 6.02-2.59 2.25 0 4.42.93 6.02 2.58 1.59 1.65 2.49 3.9 2.49 6.24v126.97c0 2.34-.9 4.58-2.5 6.24 -1.6 1.65-3.77 2.58-6.03 2.58 -2.26 0-4.43-.94-6.03-2.59 -1.6-1.66-2.5-3.91-2.5-6.25V43.71Zm42.22 4.37c0-2.35.89-4.59 2.49-6.25 1.59-1.66 3.76-2.59 6.02-2.59 2.25 0 4.42.93 6.02 2.58 1.59 1.65 2.49 3.9 2.49 6.24v116.75c0 2.34-.9 4.58-2.5 6.24 -1.6 1.65-3.77 2.58-6.03 2.58 -2.26 0-4.43-.94-6.03-2.59 -1.6-1.66-2.5-3.91-2.5-6.25V48.08ZM223.96-.04H31.99c-4.19-.03-8.34.79-12.21 2.43 -3.88 1.63-7.4 4.04-10.38 7.09 -2.98 3.05-5.34 6.67-6.96 10.67C.81 24.14-.03 28.44-.05 32.77v197.02c.01 4.33.86 8.62 2.48 12.62 1.61 3.99 3.98 7.62 6.95 10.67s6.49 5.46 10.37 7.09c3.87 1.63 8.02 2.46 12.2 2.43h191.96c4.17.02 8.31-.8 12.18-2.43 3.86-1.64 7.39-4.04 10.36-7.08 2.97-3.05 5.33-6.67 6.96-10.66 1.62-4 2.47-8.28 2.5-12.61V32.71c-.02-4.34-.86-8.62-2.48-12.62s-3.98-7.62-6.95-10.67 -6.49-5.47-10.35-7.11c-3.87-1.64-8.01-2.48-12.19-2.46"/></svg>