<svg viewBox="0 0 512 173" xmlns="http://www.w3.org/2000/svg"><g fill="#3880FF"><path d="M86.51 0c14.02 0 27.23 3.27 39.62 9.62v0l1.63.81 -1.44 1.12c-3.49 2.76-6.25 6.34-7.99 10.44v0l-.52 1.12 -1.03-.52c-9.53-4.51-19.66-6.86-30.21-6.86 -39.01 0-70.65 31.73-70.65 70.64 0 38.9 31.53 70.64 70.53 70.64s70.64-31.74 70.64-70.65c0-9.32-1.75-18.43-5.43-27.03v0l-.52-1.13 1.12-.52c4.19-1.54 7.88-4.1 10.85-7.38v0l1.12-1.44 .71 1.63c5.22 11.36 7.78 23.44 7.78 35.62 0 47.6-38.81 86.4-86.41 86.4C38.7 172.51-.1 133.7-.1 86.1 -.1 38.49 38.7-.31 86.41-.11Zm0 47.09c21.6 0 39.31 17.6 39.41 39.41 0 21.8-17.61 39.41-39.42 39.41 -21.81 0-39.42-17.61-39.42-39.42 0-21.81 17.71-39.42 39.41-39.42Zm56.41-32.56c9.95-.001 18.01 8.06 18.01 18.01 0 9.95-8.07 18.01-18.02 18.01 -9.96 0-18.02-8.07-18.02-18.02 0-9.96 8.06-18.02 18.01-18.02Z"/><path d="M480.56 46.99c6.75 0 12.69 2.25 17.19 4.91 6.04 3.58 10.44 7.16 14.23 13v0l-13.11 8.9s-7.17-11.27-18.84-11.27c-13.83 0-22.84 10.64-22.84 23.95 0 13.3 9.11 23.95 22.83 23.95 11.67 0 18.73-11.47 18.73-11.37v0l13.2 8.8c-3.79 5.83-8.2 9.31-14.24 13 -4.51 2.66-10.55 4.91-17.2 4.91 -22.84 0-40.24-17.2-40.34-39.42 .1-22.22 17.5-39.42 40.33-39.42Zm-197.5.1c18.94 0 39.41 13.41 39.31 39.41 0 22.83-17.51 39.31-39.01 39.31 -23.76 0-39.73-18.33-39.73-39.73 0-20.99 16.48-39.01 39.41-39.01Zm-47.51 1.74v75.24h-18.23V48.82h18.22Zm196.67 0v75.24h-18.23V48.82h18.22Zm-60.31-1.75c23.03 0 31.63 15.86 31.94 35.62v0 41.25h-18.23V80.84c0-10.04-6.86-18.54-15.57-18.54 -9.01 0-21.1 7.26-21.1 16.17v0 45.55h-18.23V48.77h15.15l1.12 8.08 .08-.09c2.31-2.17 12.15-9.75 24.79-9.75Zm-88.67 15.45c-12.7 0-22.43 10.13-22.43 23.85 0 13.82 9.82 23.95 22.31 23.95 11.46 0 22.11-9.42 22.11-23.86 0-14.75-10.75-23.96-22.02-23.96Z"/></g></svg>