<svg viewBox="0 0 257 128" xmlns="http://www.w3.org/2000/svg"><path d="M1.86 124.97h21.16V34.85H1.85v90.11ZM12.4 23.03c6.63-.001 11.81-5.11 11.81-11.48 0-6.47-5.19-11.57-11.82-11.57C5.84-.02.65 5.08.65 11.54c0 6.37 5.18 11.47 11.73 11.47ZM93.51.24c-35.8 0-58.24 24.4-58.24 63.42s22.44 63.34 58.23 63.34c35.7 0 58.15-24.32 58.15-63.35C151.65 24.62 129.2.22 93.49.22Zm0 18.7c21.84 0 35.79 17.34 35.79 44.72 0 27.29-13.95 44.63-35.8 44.63 -21.94 0-35.8-17.35-35.8-44.64 0-27.38 13.85-44.73 35.79-44.73Zm67.08 71.5c.93 22.61 19.46 36.55 47.69 36.55 29.67 0 48.37-14.63 48.37-37.92 0-18.28-10.55-28.57-35.46-34.27l-14.12-3.24c-15.05-3.58-21.26-8.34-21.26-16.5 0-10.21 9.35-17.01 23.21-17.01 14.02 0 23.63 6.88 24.65 18.36h20.91c-.52-21.6-18.37-36.22-45.4-36.22 -26.7 0-45.66 14.7-45.66 36.47 0 17.51 10.71 28.39 33.32 33.58l15.89 3.74c15.47 3.65 21.76 8.75 21.76 17.59 0 10.2-10.29 17.51-25.08 17.51 -14.97 0-26.28-7.4-27.64-18.71h-21.26l-.01-.01Z"/></svg>