<svg viewBox="0 0 256 388" xmlns="http://www.w3.org/2000/svg"><path fill="#569A83" d="M52.55 272c1.81 0 2.64.88 2.64 2.64v88.8c0 3.26-.63 6.42-1.92 9.32 -1.3 2.89-2.96 5.43-5.13 7.61 -2.18 2.17-4.72 3.88-7.62 5.12 -2.9 1.24-6.01 1.91-9.33 1.91h-7.25c-3.27 0-6.43-.63-9.33-1.92 -2.9-1.25-5.44-2.96-7.62-5.13 -2.18-2.18-3.89-4.72-5.13-7.62 -1.3-2.9-1.92-6.01-1.92-9.33v-20.35c0-1.82.82-2.9 2.48-3.42l17.29-4.56c1.65-.52 2.48.1 2.48 1.91v25.47c0 1.29.41 2.33 1.34 3.21 .88.88 1.96 1.34 3.21 1.34h1.55c1.24 0 2.33-.42 3.21-1.35 .88-.89 1.34-1.97 1.34-3.22v-87.82c0-1.82.88-2.65 2.64-2.65 .05-.06 16.98-.06 16.98-.06v0 0Zm73.94 111.43c.25 1.81-.52 2.64-2.28 2.64h-17.3c-1.66 0-2.59-.89-2.85-2.65l-1.56-18.59H90.69l-1.56 18.58c-.26 1.81-1.25 2.64-2.85 2.64h-17.3c-1.82 0-2.54-.89-2.28-2.65l14.29-108.74c.25-1.82 1.24-2.65 3.05-2.65h25.11c1.81 0 2.79.88 3.05 2.64l14.23 108.73v0Zm-25.48-39.93l-3.58-42.05h-1.56l-3.58 42.04h8.69v0Zm69.17-71.51c3.26 0 6.36.62 9.32 1.91 2.89 1.29 5.43 2.95 7.61 5.12 2.17 2.17 3.88 4.71 5.12 7.61 1.24 2.89 1.91 6 1.91 9.32v66.17c0 3.26-.63 6.42-1.92 9.32 -1.3 2.89-2.96 5.43-5.13 7.61 -2.18 2.17-4.72 3.88-7.62 5.12 -2.9 1.29-6.01 1.91-9.33 1.91h-28.48c-1.82 0-2.65-.89-2.65-2.65V274.64c0-1.82.88-2.65 2.64-2.65l28.47-.06v0Zm1.76 24.9c0-1.25-.42-2.34-1.35-3.22 -.89-.89-1.97-1.35-3.22-1.35h-6.06v73.37h6.05c1.24 0 2.33-.42 3.21-1.35 .88-.89 1.34-1.97 1.34-3.22v-64.26 0Zm84.03 69.59v16.93c0 1.81-.89 2.64-2.65 2.64h-41.27c-1.82 0-2.65-.89-2.65-2.65V274.66c0-1.82.88-2.65 2.64-2.65h41.21c1.81 0 2.64.88 2.64 2.64v16.88c0 1.81-.89 2.64-2.65 2.64h-21.7v21.69h18.79c1.81 0 2.64.88 2.64 2.64v16.93c0 1.81-.89 2.64-2.65 2.64h-18.8v25.68h21.69c1.81 0 2.69.88 2.69 2.69v0 0Z"/><path fill="#C1272D" d="M193.06 143.72c1.17 1.17 1.28 3.1-.11 4.07 -3.43 2.24-7.83 1.92-11.9 1.49 -6.86-.75-15-1.08-18.54-7.5 -.11 0-.11-.11-.22-.22 -4.5-2.47 3.1-4.18 5.24-4.5 4.82-.65 9.96.64 14.67 1.71 3.96.74 7.71 1.82 10.82 4.92v0 0Zm62.56 102.2c-3.22 2.24-1.83 6.1-4.08 8.78 -2.25 2.57-7.72 2.57-10.61 2.57 -12.33.1-24.32-.86-36.43.1 -3.11.21-5.9.64-8.79 1.39 -.86.21-2.25.74-3.22.21 -2.47-1.29-4.72-5.36-7.93-4.08 -2.68 1.17-4.72 5.03-7.93 2.67 -5.9-4.4-10.83-.43-17.04.74 -6.43 1.28-12.54-2.25-18.86-.54 -4.72 1.39-9.22 2.78-14.04 1.17 -4.83-1.72-6.11-5.47-1.93-9 6.64-5.47 14.89-6.33 23.14-5.68 12.53 1.07 24.96.1 37.49-.54 .42 0 .64.21.64.53 5.35 2.14 8.78-2.15 11.89-5.9 .42-.54 1.17-.22 1.39.1 4.49 6.64 9.96-.86 15.64-.22 1.49.1 2.89.53 3.85 1.92 .42.64.53 1.39.53 2.14 .21 3.42 4.6 2.67 4.49-.75 0-.54.64-1.08 1.17-.86 4.49 1.82 10.28 4.17 13.92-.54 3.1-3.97 3.53-9.65 3.85-14.47 .64-12.97-.22-26.25-1.18-39.11 -.75-12.54-2.15-25.29-.65-37.82 1.49-12.43 1.39-24.54 1.17-37.07 -.11-6.54-.43-13.08 0-19.61 .21-6 1.28-12.43.64-18.43 -.65-5.36-3.86-9.97-4.5-15.22 -.65-4.83 0-9.86 1.17-14.58 .64-2.9 2.14-6.43 2.03-9.43 -.11-2.58-.22-5.25-.11-7.83 0-1.29-.22-3.33.74-4.4 1.49-1.83 2.24-4.5-1.29-4.83 -8.47-1.08-17.15-6.43-25.18-1.18 .1 1.82.21 3.85-.22 5.67l1.17 1.49c2.03.85 4.07 1.17 6.32 1.28 2.57 0 5.35-.65 7.92-.43 2.14.21 3.96 2.14 3.21 4.6 -.54 1.82-2.15 3.32-3.11 4.82 -1.72 2.67-1.4 6.53-1.4 9.64 -.11 7.82 0 15.64.21 23.24 .21 6.42.85 12.96 1.28 19.39 .1.1.53.21.53.53 .21 7.28 2.67 14.46 2.78 21.74 .1.1-1.93 8.99-1.93 8.99 -.11 9.42-.86 26.89-.86 26.89 -.11 16.07-2.9 32.03-.11 47.99 1.17 6.42-1.29 12.64-1.5 19.07 -.22 7.07.64 14.03-.43 21.1 .1.42 0 .85-.54 1.07 -14.68 2.78-29.57 3.32-44.57 2.46 -3.75-.22-8.15-.54-11.79.85 -1.4.64-3.33 1.49-5.04 1.39 -2.15-.22-3.22-1.93-5.25-2.25 -2.58-.54-5.04-1.08-7.5-1.29 -6.65-.86-12.97-1.29-19.18 1.39 -3.43 1.49-7.08.85-10.5-.54 -4.08-1.72-7.18-3.75-11.68-1.5 -1.83.85-3.43 1.82-5.47 2.24 -1.72.42-3.22 0-4.72-.65 -3.43-1.29-6.11-1.72-9.75-1.08 .42.53.1 1.49-.65 1.49 -21.75-1.18-43.61 1.39-65.36 1.71 -1.08.21-1.83 1.39-2.47 1.39h-.65c-.54 0-.65-1.83-.54-2.15 -2.9-3.22-2.15-13.83-2.04-16.93 .85-20.25-1.72-40.61-2.25-60.75 -.22-10.08-.22-20.25 1.39-30.22 1.92-11.25 1.92-22.18 1.71-33.43 -.54-22.4 1.71-44.68 1.07-67.07 0-.43.42-.54.64-.43l.21-.11c5.99-.54 12.53-2.15 18.42-.54 .1 0 .21.1.21.21l.85.1h6.64c.21 0 .53.1.53.21 11.78.1 23.56-.86 35.35-1.4 4.07-.11 8.35 0 12.42-1.29 2.03-.65 4.49-1.72 6.64-1.5 5.35.42 10.82 2.03 16.07 3.21 3.74.74 6.32-5.68 9.64-3.43 5.03 3.21 10.82 2.03 16.6 2.14 3.1.1 5.99-.54 9.1-.54 1.71 0 3.1.42 4.6.74 1.49-.22 2.78-.11 4.49.53l27.42-.86c5.46.1 11.46.53 16.71-1.5 1.39-.54 2.14-1.29 2.57-2.15 -.22-.43-.43-.86-.65-1.4 -.43-.75-.86-1.72-1.4-2.25 -5.9-1.93-12.65-1.4-18.86-1.72 -8.47-.43-16.72.74-25.18 1.39 -7.83.64-15.97 1.17-23.79.53 -4.61-.43-13.29-2.47-17.25.74 -.43.21-.75.21-1.18 0 -7.5-6.11-17.36 3.1-25.93.53 -5.15-1.5-9.97-2.58-15.43-1.93 -5.25.53-10.4 1.28-15.75 1.28 -11.68-.11-23.25.64-34.93.21 -2.58-.11-5.04-.11-7.4-.43 -2.04-.22-4.72-1.29-6.75-.43 -3.22 1.17-3.86 2.24-3.54 3.21 .85.64-2.15 4.71-2.15 6.74l-.22 5.35c-.11 7.92-.65 15.21-2.47 22.92 -.86 4.07-2.9 9.85-1.4 13.92 .85 2.67 2.89 4.49 4.07 6.85 2.03 4.39 2.14 9.74 1.92 14.46l-1.29 46.06c-.54 15.32-1.5 30.74-.86 46.17 .53 14.24 2.78 28.81.85 42.96 -.65 4.71-6.33 13.07-.86 16.39 3.1 1.82 6.74 2.24 10.28 2.57 8.67.53 17.35-.43 26.14-1.4 3.21-.43 6.42-1.08 9.64-1.08 2.46-.11 4.71.21 7.07 1.07 2.03.74 5.14 2.14 7.49 2.14 .1.1 3.85-.11 4.07-1.18 3.21-1.4 5.99-2.47 10.07-1.72 3.96.74 7.49 1.28 11.67.53 2.14-.43 5.35-.65 7.49-.11l.85.64c.85-.43-.54 1.07-1.4 1.39 -4.83 1.92-3.33 8.14-3.86 12.32 0 .42-.54.53-.75.53 -1.93 0-4.61 0-5.68-2.04 -2.25-4.18-7.72-7.08-7.72 1.71 0 .53-.43.74-.75.74 -.43 0-.75-.22-.75-.75 0-.54-5.68-3.54-6.33-3.86 -2.79-1.5-6-3.33-9.33-2.15 -2.04.64-3.75 1.82-5.68 2.67 -3.43 4.17-7.08 8.67-12.11 5.99 -1.08-.54-5.25-4.18-6.11-3.43 -1.18 1.28-2.47 2.57-4.08 3.21 -4.61 1.82-9.43 1.49-14.36 1.39 -.22 0-.75-.22-.75-.65 -.22-1.93-1.29-5.79-3.97-3.43 -.65.53-1.18 1.07-1.83 1.71 -.75.64-1.72 1.49-2.68 1.92 -3.22 1.28-13.08-.43-14.36-2.68 -1.08-1.72-1.4-3.43-1.83-5.36 -.75-4.72-.22-9.86-.43-14.68 -.43-12.11-1.29-24-2.25-36.11 -.54-6.11-1.08-12.43-.54-18.65 .21-3.97.42-9.43 2.46-13.08 1.71-2.9.53-5.25-1.72-7.4 -.54-.65-.75-1.83-.75-2.58 -.43-4.5.42-9.22.64-13.72 .21-3.33.74-6.65.74-9.97 0-2.58-.54-5.04-.75-7.5 -.11-1.29-.22-2.58.53-3.75 1.49-2.15 1.28-3.33.42-5.79 -1.72-4.72 0-10.4.21-15.33 .42-5.79.64-11.47 0-17.36 -.65-6.43-1.93-12.65-1.5-19.18 .42-5.9.74-11.25 1.07-17.04 .53-10.5.53-21.11.21-31.61v2.46s-.86-13.4 4.71-16.61c8.57-4.72 18.96-3.97 28.28-4.4 12.1-.54 24.31.64 36.42.64 7.07 0 14.03-.11 20.89-1.72 4.82-1.08 9.64-1.5 14.57-1.29 5.99.42 11.78 1.92 17.67 2.46 5.89.53 11.67.21 17.57-.11 12.74-.86 25.6-.54 38.35 0l19.92.85c3.1.1 6.64.85 9.64.1l5.67-1.93c4.17-1.18 7.07-.11 11.14.85L240.94 5c1.71-.43 3.32-.54 4.6.74 2.78 2.57.1 5.78 2.14 8.67 2.46 3.42 4.71 5.67 5.24 10.07 .53 4.71.74 9.85-.75 14.46 -1.08 3.1-2.47 6.42-1.18 9.74 .74 2.03 2.14 3.96 2.67 6.1 1.07 4.6 1.07 9.21.74 13.92 -.22 5.35-.54 10.82-1.18 16.07 -.43 3.42-1.83 6.74-1.93 10.07 -.11 2.78.74 5.14 1.28 7.82 1.82 8.78-5.9 14.35-7.29 22.39 -.75 4.39 4.17 2.46 6.42 5.03 1.39 1.71.64 4.49.53 6.32 -.54 4.71.85 9.32.64 14.03 -.22 5.89-2.04 10.71-.65 16.6 .74 3.32 1.39 6.64.64 9.96 -.75 3.32-4.61 11.67.53 13.17 .21 0 .42.21.42.53 0 1.49-.22 2.57-.86 3.96 -2.25 5.14 1.28 4.07 1.92 7.39 .64 3.1-1.18 4.17-1.72 7.07 -.75 4.6 1.71 8.14 1.49 12.64 -.11 4.17-2.47 6.53-1.72 10.39 .21 0 .53.21.53.53 .42 2.03.64 4.39-.11 6.42 -1.08 2.89-2.25 3.74 1.07 5.46 .85-.65.85.1.32.42v0 0Zm-56.04-142.17c-2.04-12.54-3.22-25.61-7.4-37.61 -1.83-5.04-2.68-10.5-8.58-11.47 -7.72-1.29-5.15 5.14-4.08 11.24 1.49 9.42 2.14 19.07 4.6 28.39 1.71 6.42 4.82 14.03-3.75 9.1 -14.36-8.68-19.29-27.65-25.07-41.79 -2.58-6.43-10.08-21.75-15.22-25.61 -2.47-1.83-14.58-4.5-16.93-2.9 -5.04 3.42 10.49 27.53 12.64 31.81 4.71 9.64 9.74 19.17 15.85 27.85 4.39 6.1 11.24 11.78 1.49 15.42 -10.08 3.85-15-1.83-21.86-7.08 -5.47-4.08-12.43-4.72-19.29-5.47 -18.86-2.25-36.75-.11-51.86 12.42 -7.29 6.1-11.9 14.46-15.75 23.03 -1.08 2.14-7.29 21.1-6.43 21.21 -3.86-.65-1.5-9.65-6.43-4.4 -4.4 4.6 1.28 17.89 3.21 22.49 4.39 10.28 8.99 20.35 12.42 31.06 3.42 10.71 4.17 10.49 14.03 11.35 12.53 1.17 24.85-2.68 37.17-4.18 0 0-21.86-13.61 21.31 1.28 9.64 3.32 19.81 2.46 29.89 2.78 7.17-1.72 7.39-14.04 11.14-19.82 1.39-2.15 8.35-13.08 10.49-13.93 3.1-1.18 7.49 2.03 10.6 2.46 17.99 2.78 23.56-12 20.67-26.47 -2.47-12.65-1.08-26.79.74-36.54 .74-3.65-3.11-11.47-3.75-14.79v0 0Zm-80.46 153.84c-1.93-1.83-4.83-2.25-6.75-4.18 -1.08-1.18-1.4-2.25-1.18-3.54 0 0-.11 0-.11-.11 -1.4-2.58 1.82-4.72 4.07-3.86 1.17.53 2.89 1.28 3.1 2.67 .1 1.82-1.08 3.1-1.4 4.71 1.28.74 2.57 2.57 3.21 3.42 .42.74-.43 1.39-.97.85v0 0Z"/></svg>