<svg viewBox="0 0 512 98" xmlns="http://www.w3.org/2000/svg"><path fill="#FFF" d="M187.5 31.89c4.8 0 10.15 1.8 12.75 6.13v0h.15v-4.64h13.06v43.64h-13.07V72.3h-.16c-2.37 4.48-8.04 6.21-12.76 6.21 -13.47 0-21.97-10.38-21.97-23.36 0-12.74 8.81-23.28 21.96-23.28Zm126.42 0c8.73 0 15.9 4.48 16.76 13.76v0h-12.84c-.08-2.44-1.82-3.31-4.1-3.31 -1.74 0-3.71.94-3.71 2.9 0 6.84 21.96 2.98 21.96 18.39 0 9.82-8.9 14.86-17.8 14.86 -9.14 0-16.77-4.88-17.8-14.47v0h12.99c.39 2.67 2.36 4.01 4.95 4.01 1.96 0 4.56-1.11 4.56-3.39 0-3.15-3.55-4.09-5.91-5.04 -1.89-.63-3.78-1.26-5.67-1.97 -5.2-1.89-10.4-5.27-10.4-11.41 0-9.13 8.5-14.39 16.92-14.39Zm71.01 0c4.79 0 10.15 1.8 12.75 6.13v0h.15v-4.64h13.07v43.64h-13.08V72.3h-.16c-2.37 4.48-8.04 6.21-12.76 6.21 -13.47 0-21.97-10.38-21.97-23.36 0-12.74 8.81-23.28 21.96-23.28Zm56.45 0c11.17 0 20.86 7.23 23.14 18.32v0h-13.23c-1.89-4.09-5.28-6.14-9.77-6.14 -6.3 0-10.08 5.18-10.08 11.08 0 6.13 4.01 11.08 10.39 11.08 4.33 0 7.48-2.05 9.44-5.82v0h13.3c-2.52 10.69-11.89 18-22.92 18 -13.07 0-23.39-10.31-23.39-23.36 0-12.9 10.07-23.2 23.06-23.2ZM159.01 18.83L159 54.38c-.01 5.48-.09 11.65-3.63 16.1 -3.94 4.87-10.24 7.62-16.46 7.62 -2.68 0-5.44-.48-7.88-1.42 -8.27-2.99-11.74-9.91-11.74-18.4v0h15.82c.15 2.9.7 6.76 4.48 6.76 4.25 0 4.48-4.17 4.48-7.4V18.79h14.87Zm114.84 13.05c4.33 0 8.42 1.25 11.49 4.4 4.95 5.03 4.72 10.22 4.72 16.9V77h-13.07l-.01-23.44c-.03-4.72-.73-9.44-6.7-9.44 -5.83 0-7.25 4.08-7.25 9.04v0 23.82h-13.07V53.23c0-4.49-1.03-9.13-6.54-9.13 -6.07 0-7.41 4.56-7.41 9.67v0 23.19h-13.07V33.31h12.2v4.63h.15c2.51-4.49 7.08-6.14 12.04-6.14 5.66 0 9.91 2.83 12.59 7.78 3.14-4.96 7.95-7.79 13.85-7.79Zm80.36-13.06v14.54h6.29v9.9h-6.3v33.73h-13.08V43.25h-6.46v-9.91h6.45V18.79h13.07Zm129.96 0v30.35h.15l12.12-15.81h15.51l-16.46 19.18 15.98 24.45h-14.81l-12.37-21h-.16v20.99h-13.07V18.79h13.06ZM189.36 44.06c-6.38 0-10.79 5.03-10.79 11.24 0 6.05 4.72 11 10.86 11 6.37 0 10.94-4.88 10.94-11.17 0-6.37-4.65-11.09-11.03-11.09Zm197.43 0c-6.38 0-10.79 5.03-10.79 11.24 0 6.05 4.72 11 10.86 11 6.37 0 10.94-4.88 10.94-11.17 0-6.37-4.65-11.09-11.03-11.09Z"/><path fill="#F0047F" d="M48.68 0C21.75 0-.01 21.76-.01 48.68c0 26.92 21.76 48.68 48.68 48.68 26.92 0 48.68-21.77 48.68-48.69V-.02H48.66Z"/><path fill="#FFF" d="M46.03 51.33v35.49c-18.9-1.08-34.1-16.11-35.46-34.93l-.04-.58h35.49Zm34.59 0c-.99 18.89-14.77 34.09-32.02 35.45l-.53.03v-35.5H80.6Zm.04-34.65v32.57H48.08V16.67h32.57Z"/></svg>