<svg viewBox="0 0 256 346" xmlns="http://www.w3.org/2000/svg"><g fill="#5382A1"><path d="M82.55 267.47s-13.2 7.67 9.39 10.27c27.36 3.12 41.35 2.67 71.51-3.04 0 0 7.92 4.97 19 9.27 -67.62 28.97-153.02-1.68-99.92-16.52"/><path d="M74.29 229.65s-14.81 10.95 7.8 13.29c29.23 3.01 52.32 3.26 92.27-4.44 0 0 5.52 5.6 14.21 8.66 -81.75 23.9-172.8 1.88-114.3-17.54"/></g><path fill="#E76F00" d="M143.94 165.51c16.65 19.18-4.38 36.44-4.38 36.44s42.3-21.84 22.87-49.19c-18.15-25.51-32.06-38.18 43.26-81.86 0 0-118.24 29.53-61.77 94.6"/><g fill="#5382A1"><path d="M233.36 295.44s9.76 8.04-10.76 14.27c-39.03 11.82-162.44 15.39-196.72.47 -12.33-5.37 10.78-12.81 18.05-14.37 7.58-1.65 11.91-1.34 11.91-1.34 -13.71-9.66-88.59 18.95-38.04 27.15 137.85 22.35 251.29-10.07 215.53-26.2"/><path d="M88.9 190.47s-62.78 14.9-22.23 20.32c17.11 2.29 51.24 1.77 83.03-.89 25.97-2.2 52.06-6.86 52.06-6.86s-9.17 3.92-15.79 8.44c-63.75 16.76-186.89 8.96-151.44-8.19 29.98-14.5 54.35-12.85 54.35-12.85"/><path d="M201.5 253.42c64.79-33.68 34.83-66.04 13.92-61.68 -5.13 1.06-7.42 1.99-7.42 1.99s1.9-2.99 5.53-4.28c41.37-14.55 73.18 42.89-13.36 65.64 0 0 1-.9 1.3-1.7"/></g><path fill="#E76F00" d="M162.43.37s35.88 35.89-34.04 91.1c-56.08 44.28-12.79 69.52-.03 98.37 -32.73-29.54-56.75-55.53-40.64-79.73C111.37 74.59 176.89 57.37 162.41.35"/><path fill="#5382A1" d="M95.26 344.66c62.19 3.98 157.71-2.21 159.97-31.64 0 0-4.35 11.15-51.41 20.01 -53.09 9.99-118.57 8.82-157.4 2.42 0-.01 7.94 6.57 48.82 9.2"/></svg>