<svg viewBox="0 0 256 256" xmlns="http://www.w3.org/2000/svg"><path fill="#F7DF1E" d="M0 0h256v256H0V0Z"/><g><path d="M67.31 213.93l19.59-11.86c3.77 6.7 7.21 12.37 15.46 12.37 7.9 0 12.88-3.1 12.88-15.13v-81.8h24.05v82.13c0 24.91-14.61 36.25-35.92 36.25 -19.25 0-30.42-9.97-36.09-22"/><path d="M152.38 211.35L171.96 200c5.15 8.42 11.85 14.6 23.71 14.6 9.96 0 16.32-4.99 16.32-11.86 0-8.25-6.53-11.18-17.53-15.99l-6.02-2.58c-17.36-7.39-28.88-16.67-28.88-36.26 0-18.05 13.74-31.8 35.22-31.8 15.29 0 26.29 5.32 34.19 19.24l-18.74 12.02c-4.13-7.39-8.6-10.31-15.47-10.31 -7.05 0-11.52 4.46-11.52 10.3 0 7.21 4.46 10.13 14.77 14.6l6.01 2.57c20.44 8.76 31.96 17.69 31.96 37.8 0 21.65-17.02 33.5-39.87 33.5 -22.34 0-36.78-10.66-43.82-24.58"/></g></svg>