<svg viewBox="0 0 256 417" xmlns="http://www.w3.org/2000/svg"><path fill="#D33833" d="M250.74 169.27c0 69.45-55.07 125.81-123.04 125.81s-123.04-56.36-123.04-125.82 55.06-125.82 123.03-125.82c67.96 0 123.03 56.35 123.03 125.81"/><path fill="#EF3D3A" d="M9.72 200.43s-8.94-131.18 112.02-134.95l-8.44-14.09 -65.59 22.02 -18.76 21.53 -16.38 31.35 -9.33 36.51 2.77 24.4"/><path fill="#231F20" d="M43.46 83.44c-21.54 22.12-34.93 52.58-34.93 86.32v0c0 33.73 13.39 64.19 34.92 86.32v0c21.63 22.12 51.29 35.72 84.24 35.72v0c32.94 0 62.61-13.6 84.24-35.73v0c21.53-22.13 34.92-52.59 34.92-86.33v0c0-33.74-13.4-64.2-34.93-86.33v0c-21.64-22.03-51.3-35.73-84.25-35.73v0c-32.85 0-62.62 13.59-84.25 35.72v0 0ZM38 261.35C15.07 237.93.88 205.48.88 169.76v0c0-35.73 14.18-68.17 37.11-91.69v0c22.92-23.42 54.67-38.01 89.69-38.01v0c35.02 0 66.77 14.58 89.69 38v0c22.92 23.41 37.11 55.86 37.11 91.68v0c0 35.72-14.19 68.16-37.12 91.58v0c-22.93 23.51-54.68 38-89.7 38v0c-35.03 0-66.78-14.49-89.7-38.01v0 0Z"/><path fill="#F0D6B7" d="M179.49 169.97l-18.76 2.77 -25.31 2.87 -16.38.39 -15.98-.5 -12.21-3.78 -10.82-11.71 -8.44-23.92 -1.89-5.16 -11.22-3.78 -6.55-10.82 -4.67-15.48 5.15-13.6 12.2-4.27 9.82 4.66 4.66 10.31 5.65-.9 1.88-2.39 -1.89-10.82 -.5-13.6L87 51.48l-.1-10.72 8.53-13.7 14.98-10.82L136.6 5.02l29.07 4.26 25.3 18.25 11.7 18.75 7.54 13.59 1.88 33.73 -5.66 29.07 -10.32 25.79 -9.73 13.79"/><path fill="#335061" d="M163.62 251.03l-66.98 2.77v11.21l5.65 39.39 -2.78 3.27 -46.84-15.98 -3.28-5.66 -4.67-52.99 -11.02-31.76 -2.39-7.55 37.5-25.8 11.7-4.67 10.31 12.7 8.93 7.93 10.31 3.27 4.66 1.38 5.65 24.4 4.26 5.15 10.81-3.78 -7.55 14.58 40.68 19.24 -5.07 2.77"/><path fill="#6D6B6D" d="M52.48 87.51l12.2-4.27 9.82 4.66 4.66 10.31 5.65-.9 1.38-5.66 -2.78-10.82 2.77-25.8 -2.39-14.09 8.43-9.83 18.25-14.49 -5.16-7.05 -25.8 12.7 -10.82 8.43 -6.06 13.09 -9.33 12.7 -2.78 14.98 1.88 15.97"/><g fill="#DCD9D8"><path d="M71.73 43.46s7.04-17.37 35.12-25.8c28.08-8.44 1.38-6.06 1.38-6.06L77.76 23.3 66.05 35l-5.16 9.32 10.81-.9"/><path d="M57.64 84.24s-9.83-32.85 27.68-37.51l-1.39-5.66 -25.8 6.05 -7.55 24.4 1.88 15.97 5.15-3.28"/></g><g fill="#F7E4CD"><path d="M72.63 127.8l6.15-5.96s2.77.29 3.27 3.57c.49 3.27 1.88 32.84 22.02 48.71 1.88 1.48-14.99-2.39-14.99-2.39l-14.99-23.42"/><path d="M158.85 118.87s1.09-14.19 4.96-13.1c3.86 1.09 3.86 4.96 3.86 4.96s-9.33 5.95-8.84 8.13"/><path d="M197.75 66.87s-7.74 1.58-8.44 8.43c-.7 6.84 8.43 1.38 9.82.89"/><path d="M141.09 67.37s-10.32 1.38-10.32 7.93c0 6.54 11.7 6.05 14.98 3.27"/><path d="M77.39 97.83s-17.77-10.82-19.65-.5c-1.89 10.31-6.06 17.76 2.77 28.57l-6.06-1.89 -5.66-14.49 -1.89-14.09 10.81-11.22 12.2.89 7.04 5.65 .39 7.04"/><path d="M85.82 68.26s7.93-41.28 48.22-49.22c33.14-6.55 50.6 1.38 57.15 8.93 0 0-29.57-35.13-57.65-24.41 -28.09 10.81-48.72 30.46-48.23 43.06 .79 21.63.49 21.63.49 21.63"/><path d="M194.48 32.64s-13.6-.5-14.09 11.7c0 0 0 1.88.89 3.77 0 0 10.81-12.21 17.36-5.66"/><path d="M135.04 49.41s-2.39-18.66-18.26-7.84c-10.32 7.04-9.33 16.86-7.55 18.75 1.88 1.88 1.38 5.65 2.77 3.07 1.38-2.58.99-11.02 6.15-13.4 5.06-2.39 13.59-4.97 16.86-.6"/></g><g fill="#49728B"><path d="M90.98 176.02l-44.06 19.64s18.25 72.63 8.93 95.15l-6.55-2.39 -.5-27.69 -12.21-52.4 -5.16-14.49 45.94-30.96 13.59 13.09"/><path d="M95.45 216.21l6.25 7.64v28.08h-7.45s-.9-19.65-.9-22.03c0-2.39.89-10.82.89-10.82"/><path d="M95.65 256.19l-21.14.89 6.05 4.26 14.98 2.38"/></g><g fill="#335061"><path d="M167.78 251.53l17.36-.5 4.26 43.06 -17.77 2.38 -3.87-44.95"/><path d="M172.45 251.53l26.19-1.39s10.81-27.19 10.81-28.58c0-1.39 9.32-39.4 9.32-39.4l-21.14-22.03 -4.27-3.78 -11.22 11.21v43.55l-9.73 40.38"/></g><g fill="#49728B"><path d="M184.16 248.26l-16.38 3.27 2.38 13.09c6.05 2.77 16.37-4.67 16.37-4.67"/><path d="M184.65 166.2l32.84 24.4 .89-11.22 -24.81-22.93 -8.94 9.72"/></g><path fill="#FFF" d="M111.92 343.81l-9.73-39.4 -4.87-29.08 -.8-21.54 43.95-2.39h27.28l-2.49 49.21 4.26 38 -.5 7.04 -35.63 2.77 -21.54-4.67"/><path fill="#DCD9D8" d="M161.73 251.03s-2.39 48.71 4.66 83.44c0 0-14.09 8.93-34.63 11.21l39.39-1.39 4.66-2.78 -5.66-76.8 -1.49-16.48"/><path fill="#FFF" d="M190.11 290.43l18.25-5.16 34.62-1.89 5.15-15.98 -9.33-27.69 -10.82-1.39 -14.99 4.66 -14.29 7.04 -7.65-1.39 -5.96 2.38"/><path fill="#DCD9D8" d="M189.81 281s12.2-5.66 14.08-5.16l-5.16-25.8 6.05-2.39s4.26 24.4 4.26 27.18c0 0 26.19 1.38 28.57 1.38 0 0 5.65-10.82 4.26-22.03l5.15 14.98 .49 8.43 -7.55 11.21 -8.44 1.88 -14.09-.5 -4.67-6.06 -16.38 2.38 -5.16 1.88"/><path fill="#FFF" d="M171.36 247.76l-10.32-26.2 -10.82-15.48s2.38-6.55 5.65-6.55h10.81l10.31 3.77 -.9 17.36 -4.77 27.08"/><path fill="#DCD9D8" d="M173.44 238.83s-13.1-25.31-13.1-29.08c0 0 2.38-5.66 5.65-4.27 3.27 1.38 10.31 5.15 10.31 5.15v-8.94l-15.98-3.28 -10.82 1.38 18.25 43.26 3.77.49"/><path fill="#FFF" d="M116.09 177.01l-13-1.39 -12.21-3.78v4.26l5.95 6.54 18.75 8.43"/><path fill="#DCD9D8" d="M95.15 178.4s14.48 6.05 19.24 4.66l.49 5.65 -13.1-2.78 -7.94-5.66 1.28-1.89"/><path fill="#D33833" d="M190.11 201.12c-7.94-.2-15.19-1.2-21.44-2.98 .39-2.58-.4-5.07.29-6.95 1.78-1.29 4.66-1.29 7.34-1.59 -2.29-1.1-5.56-1.59-8.14-.9 -.1-1.79-.9-2.88-1.39-4.27 4.46-1.59 14.98-12.01 20.93-8.64 2.87 1.68 4.06 11.01 4.26 15.67 .19 3.77-.4 7.54-1.89 9.62"/><path stroke="#D33833" stroke-width="2" d="M190.11 201.12c-7.94-.2-15.19-1.2-21.44-2.98 .39-2.58-.4-5.07.29-6.95 1.78-1.29 4.66-1.29 7.34-1.59 -2.29-1.1-5.56-1.59-8.14-.9 -.1-1.79-.9-2.88-1.39-4.27 4.46-1.59 14.98-12.01 20.93-8.64 2.87 1.68 4.06 11.01 4.26 15.67 .19 3.77-.4 7.54-1.89 9.62v0Z"/><path fill="#D33833" d="M152.11 188.13c0 .59 0 1.19-.1 1.78 -2.49 1.58-6.45 1.58-9.23 2.97 3.96.19 7.14 1.19 9.92 2.48 -.1 1.48-.1 3.07-.2 4.56 -4.57 3.07-8.74 7.73-14.09 10.71 -2.58 1.38-11.42 4.96-14.09 4.26 -1.49-.4-1.69-2.29-2.29-4.07 -1.29-3.78-4.27-9.93-4.57-15.68 -.3-7.25-1.1-19.45 6.74-17.96 6.35 1.19 13.69 4.06 18.55 6.74 3.07 1.78 4.76 3.77 9.32 4.16"/><path stroke="#D33833" stroke-width="2" d="M152.11 188.13c0 .59 0 1.19-.1 1.78 -2.49 1.58-6.45 1.58-9.23 2.97 3.96.19 7.14 1.19 9.92 2.48 -.1 1.48-.1 3.07-.2 4.56 -4.57 3.07-8.74 7.73-14.09 10.71 -2.58 1.38-11.42 4.96-14.09 4.26 -1.49-.4-1.69-2.29-2.29-4.07 -1.29-3.78-4.27-9.93-4.57-15.68 -.3-7.25-1.1-19.45 6.74-17.96 6.35 1.19 13.69 4.06 18.55 6.74 3.07 1.78 4.76 3.77 9.32 4.16v0Z"/><path fill="#D33833" d="M156.57 196.76c-.7-3.97-1.49-5.07-1.2-8.54 10.61-7.05 12.5 12.1 1.19 8.53"/><path stroke="#D33833" stroke-width="2" d="M156.57 196.76c-.7-3.97-1.49-5.07-1.2-8.54 10.61-7.05 12.5 12.1 1.19 8.53v0Z"/><g fill="#EF3D3A"><path d="M171.85 199.93s-3.28-4.67-.9-6.06c2.38-1.39 4.66 0 6.05-2.39 1.38-2.39 0-3.78.49-6.55 .49-2.78 2.77-3.28 5.15-3.78 2.38-.5 8.93-1.39 9.82.89l-2.78-8.44 -5.66-1.89 -17.77 10.31 -.9 5.15v10.31"/><path d="M122.64 215.41c-.6-7.35-1.2-14.59-1.79-21.93 -1-10.92 2.57-9.03 12.1-9.03 1.48 0 8.93 1.68 9.42 2.77 2.57 5.25-4.27 4.06 2.97 8.03 6.05 3.27 16.86-1.99 14.38-9.43 -1.39-1.69-7.15-.5-9.23-1.59 -3.68-1.89-7.35-3.78-11.02-5.66 -4.67-2.39-15.38-5.96-20.35-2.58 -12.61 8.53.79 29.96 5.25 38.89"/></g><g fill="#231F20"><path d="M135.04 49.41c-12.8-2.98-19.16 5.35-23.03 13.99 -3.48-.8-2.09-5.56-1.2-7.94 2.28-6.26 11.51-14.69 19.05-13.5 3.17.39 7.54 3.37 5.15 7.44"/><path d="M197.25 63.9h.59c2.87 5.95 5.35 12.3 9.02 17.66 -2.49 5.75-18.46 10.71-18.26.59 3.47-1.49 9.42-.3 12.5-2.29 -1.79-4.87-4.27-9.03-3.87-15.98"/><path d="M141.49 64.09c2.77 5.06 3.67 10.31 7.54 14.08 1.78 1.68 5.15 3.77 3.47 8.53 -.4 1.09-3.28 3.57-4.97 4.06 -6.06 1.78-20.25.39-15.48-7.25 5.06.19 11.8 3.27 15.57-.4 -2.88-4.57-8.04-13.7-6.16-19.06"/><path d="M194.97 115.1c-9.13 5.85-19.35 12.3-34.44 10.81 -3.18-2.78-4.47-9.03-1.29-13.1 1.58 2.77.59 7.93 5.15 8.73 8.53 1.48 18.45-5.26 24.6-7.55 3.77-6.45-.3-8.74-3.78-12.9 -7.05-8.44-16.38-18.96-16.08-31.56 2.87-2.09 3.07 3.17 3.47 4.06 3.67 8.53 12.89 19.54 19.54 26.88 1.68 1.78 4.36 3.57 4.66 4.76 .89 3.37-2.29 7.54-1.89 9.82"/><path d="M74.12 108.94c-2.88-1.69-3.58-8.84-6.95-9.03 -4.87-.3-3.97 9.32-3.97 14.98 -3.28-2.98-3.87-12.31-1.49-17.07 -2.78-1.39-3.97 1.48-5.56 2.48 2.08-14.39 21.13-6.65 17.95 8.63"/><path d="M200.73 121.15c-4.27 8.13-10.32 17.06-22.83 17.36 -.3-2.58-.5-6.65 0-8.24 9.62-1 15.57-5.86 22.82-9.13"/><path d="M140.8 126.41c7.93 4.16 22.62 4.66 33.53 4.36 .59 2.38.59 5.35.59 8.23 -14 .59-30.47-2.88-34.14-12.61"/><path d="M139.31 134.15c5.55 13.89 24.5 12.3 40.48 11.9 -.7 1.78-2.19 3.96-4.17 4.66 -5.16 2.08-19.25 3.67-26.4-.1 -4.47-2.39-7.45-7.84-9.93-11.02 -1.1-1.49-7.05-5.36 0-5.46"/></g><path fill="#81B0C4" d="M194.28 210.65c-6.45 11.11-12.71 22.52-20.35 32.24 3.17-9.43 4.56-25.31 5.06-37.41 6.74-3.18 12.5.69 15.28 5.15"/><g fill="#231F20"><path d="M229.11 250.54c-7.25 1.48-12.31 8.53-19.45 8.03 3.96-5.46 10.71-7.84 19.44-8.04"/><path d="M232.28 261.85c-5.96.59-12.9 1.58-18.86 1.09 2.87-4.37 13.79-2.78 18.85-1.1"/><path d="M234.36 271.67c-6.65.09-14.89 0-21.24-.5 3.77-4.07 16.96-1.49 21.23.49"/></g><path fill="#DCD9D8" d="M181.77 298.46c.99 8.33 4.26 16.76 3.86 25.89 -3.68 1.19-5.76 2.28-10.72 2.28 -.3-7.74-1.39-19.65-1.1-27.09 2.38.19 5.95-1.69 7.93-1.1"/><path fill="#F0D6B7" d="M171.06 175.42c-3.38 2.18-6.16 4.86-9.43 7.24 -7.15.39-11.02-.5-16.18-4.57 .09-.3.59-.2.59-.6 7.64 3.37 17.36-1.39 25-2.09"/><path fill="#81B0C4" d="M131.17 227.32c2.08-9.03 10.31-13.8 17.76-18.76 7.64 9.72 12.3 22.22 17.46 34.33 -12.21-3.68-24.61-9.53-35.23-15.58"/><path fill="#231F20" d="M173.84 299.65c-.3 7.44.69 19.24 1.09 27.08 4.96 0 7.04-1.1 10.71-2.29 .39-9.13-2.88-17.57-3.87-25.9 -1.99-.7-5.56 1.19-7.94 1.09v0Zm-76.61-42.08c3.27 29.86 7.93 54.87 16.57 81.36 19.15 5.85 42.17 6.35 59.13 1.09 -3.08-14.89-1.79-33.05-3.58-49.02 -1.39-12.01-.7-24.02-2.58-36.22 -20.54-4.27-49.52-1-69.56 2.77v0Zm74.41-2.58c-.2 12.8.59 25.5 1.58 38.3 4.96-.7 8.23-1.2 12.8-2.29 -1.49-12.31-1.29-26.3-4.37-37.21 -3.48.09-6.55 0-10.03 1.19v0Zm24.9-2.09c-2.39-.5-5.07 0-7.25 0 1.09 10.41 3.57 21.92 4.46 32.94 3.47.09 5.35-1.59 8.23-2.09 .19-9.63-.8-22.93-5.46-30.86v0 0Zm37.8 34.53c7.34-1.79 11.9-10.72 9.82-19.95 -1.39-6.16-3.78-17.87-6.45-21.83 -1.89-2.88-7.15-6.75-11.42-4.07 -6.85 4.36-18.86 5.65-23.82 10.91 2.48 8.33 3.27 19.64 4.26 30.16 8.53.49 18.95-2.39 26.09.69 -4.97 1.58-11.32 1.58-15.58 3.96 3.57 1.68 11.7 1.38 17.06.09v0 0Zm-68.07-44.56c-5.16-12.11-9.83-24.61-17.47-34.34 -7.45 4.96-15.58 9.72-17.77 18.75 10.71 6.05 23.11 11.9 35.22 15.57v0Zm12.7-37.41c-.5 12.1-1.89 27.98-5.07 37.4 7.64-9.83 13.89-21.14 20.34-32.25 -2.78-4.47-8.54-8.34-15.29-5.16v0Zm-14.39-5.07c-2.88-.3-5.36 3.37-9.13 1.78 -.9.99-1.69 1.98-2.58 2.97 8.33 10.12 12.2 24.4 18.65 36.21 3.47-11.42 3.07-23.82 3.86-36.22 -4.77.19-7.45-4.47-10.82-4.77v0Zm-9.23-12.21c-.3 3.47.49 4.56 1.19 8.53 11.31 3.57 9.42-15.58-1.2-8.54v0Zm-12.61-4.17c-4.87-2.68-12.21-5.56-18.56-6.75 -7.84-1.49-7.05 10.71-6.75 17.95 .29 5.75 3.27 11.8 4.56 15.67 .59 1.78.79 3.67 2.28 4.06 2.67.59 11.6-2.88 14.08-4.27 5.35-2.88 9.52-7.55 14.08-10.72 .09-1.49.09-3.08.19-4.57 -2.78-1.39-5.86-2.29-9.93-2.49 2.67-1.39 6.74-1.39 9.22-2.98 0-.6 0-1.2.09-1.79 -4.57-.5-6.26-2.49-9.33-4.17v0Zm-46.64-8.44c-4.07 4.16 11.41 9.72 16.27 10.02 0-2.58 1.48-5.07 1.19-6.95 -5.86-1-13.5-.3-17.47-3.08v0Zm50 1.88c0 .39-.5.29-.6.59 5.25 4.06 9.12 4.96 16.17 4.56 3.17-2.29 6.05-5.07 9.42-7.25 -7.74.69-17.47 5.45-25.01 2.08v0Zm45.84 13.89c-.2-4.57-1.39-14-4.27-15.68 -5.96-3.48-16.48 7.04-20.94 8.63 .49 1.38 1.28 2.48 1.38 4.26 2.67-.7 5.85-.2 8.13.89 -2.68.29-5.56.29-7.35 1.58 -.6 1.88.19 4.36-.3 6.94 6.25 1.78 13.49 2.67 21.43 2.97 1.48-1.99 2.08-5.76 1.88-9.63v0Zm-102.7-11.81c-1.29-.9-9.93-12.11-11.12-11.61 -15.58 6.15-30.17 16.76-43.17 26.88 12.4 26.69 17.46 59.33 18.35 90.79 14.18 6.64 26.69 16.27 46.04 17.26 -2.29-15.78-4.27-29.97-5.56-44.85 -4.87-2.09-11.81.09-16.38-.6 0-5.46 6.94-2.39 7.54-6.06 .39-2.78-3.87-2.98-2.49-7.35 3.57 1.28 5.45 4.16 9.22 5.25 3.47-7.55 0-20.94.49-27.29 .09-1.2.59-6.55 3.27-5.66 2.38.79-.1 14.38.09 20.34 .19 5.55-.7 10.81 1.58 14.28 18.65-2.58 37.6-4.17 57.84-4.77 -4.47-1.89-9.73-3.68-15.48-6.95 -3.18-1.79-13-5.46-13.9-8.44 -1.49-4.77 3.77-7.25 4.66-11.32 -9.43 5.15-11.22-4.97-13.5-12.01 -1.99-6.45-3.18-11.32-3.68-14.99 -8.24-4.17-16.97-8.04-23.92-13v0 0Zm94.46-10.32c12.99-6.26 15.37 23.51 10.22 33.14 .79 2.87 3.47 3.96 4.56 6.54 -7.25 12.99-15.29 25.1-22.73 37.9 5.45-3.48 13.39-.6 19.84-3.18 2.38-.9 4.06-6.36 5.85-10.72 4.96-11.91 10.12-26.99 12.4-38.31 .49-2.58 1.98-8.24 1.58-10.52 -.6-4.17-6.16-7.25-9.03-9.73 -5.26-4.77-8.54-8.84-14.09-13.3 -2.09 3.27-6.85 5.45-8.64 8.13v0 0ZM59.56 54.01c-6.16 6.84-4.87 19.54-4.17 28.67 11.21-7.05 25.99.59 25.89 12.5 5.35-.1 1.98-6.65.99-10.92 -3.18-13.8 5.35-28.68.39-41.28 -9.63.79-17.47 4.66-23.12 11.01v0 0Zm44.25-39.6c-14 3.96-31.96 14.18-37.71 26.79 4.46-.7 7.54-2.88 11.9-3.18 1.68-.1 3.86.69 5.75.19 3.77-1 7.04-9.53 9.92-12.71 2.77-3.08 6.15-4.47 8.43-7.25 1.48-.7 3.67-.7 3.77-2.88 -.6-.7-1.29-1.2-2.09-1v0Zm72.93 3.77c-14.59-8.24-39.2-14.39-54.68-6.65 -12.51 6.25-29.38 16.57-35.13 29.56 5.35 12.6-1.59 24.11-2.09 36.91 -.2 6.84 3.17 12.7 3.47 20.14 -1.89 3.07-7.45 3.37-11.32 3.17 -1.29-6.55-3.58-13.9-10.32-14.69 -9.53-1.1-16.58 6.84-16.97 15.08 -.5 9.72 7.44 25.79 18.75 24.7 4.36-.4 5.45-4.77 10.22-4.77 2.57 5.15-3.97 6.74-4.67 10.41 -.2.99.49 4.66.99 6.44 2.08 8.43 6.64 19.44 11.11 25.89 5.75 8.23 16.96 9.42 29.07 10.22 2.18-4.67 10.12-4.27 15.28-3.08 -6.26-2.49-12.01-8.44-16.77-13.7 -5.46-6.06-11.02-12.51-11.32-20.45 10.41 14.38 18.95 26.98 37.8 33.33 14.28 4.76 30.95-2.19 41.97-9.93 4.56-3.18 7.24-8.34 10.51-12.9 12.1-17.47 17.76-42.27 16.57-66.39 -.5-9.93-.5-19.85-3.87-26.5 -3.48-6.95-15.29-13.3-22.23-6.95 -1.29-6.85 5.75-11.02 13.99-8.54 -5.86-7.65-12.01-16.67-20.45-21.44v0 0Zm27.18 224.34c11.41-5.66 32.64-15.19 39.68 0 2.67 5.65 5.75 15.08 7.04 20.93 1.88 8.13-2.09 25.4-10.52 28.08 -7.45 2.38-16.08 2.28-25.01.49 -1.1-.9-2.19-2.39-3.08-3.97 -6.36-.2-12.41.29-17.37 2.97 .49 4.76-2.68 5.45-5.76 6.44 -2.19 8.83 4.46 20.34 2.87 28.27 -1.1 5.75-8.14 6.64-13.3 7.64 -.2 3.17.19 5.85.59 8.53 -1.2 4.36-6.45 6.84-11.52 7.44 -16.58 1.98-41.68 2.87-57.56-2.88 -4.47-10.92-7.94-24.12-11.61-36.52 -15.48 1.68-28.09-6.65-39.89-12.21 -4.07-1.89-9.73-2.98-11.32-6.26 -1.49-3.18-.9-9.23-1.29-14.89 -.9-14.59-1.79-28.68-5.56-43.56 -1.69-6.75-4.77-12.61-6.85-19.06 -1.99-5.96-5.36-13.4-6.26-19.35 -1.29-8.84 7.04-9.33 12.3-13.2 8.23-5.96 14.68-9.23 23.61-14.59 2.67-1.59 10.61-5.56 11.51-7.45 1.78-3.68-3.08-8.84-4.37-11.71 -2.09-4.57-3.18-8.44-3.48-12.9 -7.45-1.2-13.2-5.66-16.58-10.62 -5.66-8.34-9.63-23.72-4.67-35.33 .39-.9 2.28-2.78 2.57-4.17 .59-2.78-1.1-6.45-1.2-9.43 -.5-15.19 2.57-28.28 12.8-32.85 4.16-16.58 19.05-22.03 33.04-30.27 5.25-3.08 11.01-5.07 16.96-7.25 21.33-7.84 54.17-6.36 71.93 7.04 7.54 5.65 19.54 17.66 23.81 26.39 11.41 22.92 10.51 61.32 2.57 89.3 -1.1 3.77-2.58 9.22-4.77 13.79 -1.49 3.17-6.16 9.42-5.66 12.2 .59 2.87 10.71 10.51 12.89 12.6 3.86 3.77 11.31 8.73 11.9 13.49 .69 5.06-2.19 12-3.68 16.86 -4.77 16.27-9.53 31.25-14.99 45.84v0Z"/><path fill="#F7E4CD" d="M128.09 129.88c.59-.8 3.96-2.09 8.73.19 0 0-5.66.89-5.16 10.31l-2.39-.5c.09.09-2.39-8.44-1.2-10.03"/><g fill="#1D1919"><path d="M169.17 210.45c0 1.38-1.2 2.57-2.58 2.57 -1.39 0-2.58-1.2-2.58-2.58 0-1.39 1.19-2.58 2.57-2.58 1.48 0 2.57 1.19 2.57 2.57"/><path d="M171.75 222.46c0 1.38-1.2 2.57-2.58 2.57 -1.39 0-2.58-1.2-2.58-2.58 0-1.39 1.19-2.58 2.57-2.58 1.48 0 2.57 1.09 2.57 2.57"/></g><g transform="translate(.992248 367.132)"><g fill="#231F20"><path d="M35.62 7.14c-.8.09-1.49.19-2.09.29 -.6.09-1.2.19-1.99.39 -.9.19-1.39.59-1.59 1.19 -.2.59-.4 1.19-.4 1.98V35.2c0 2.18-.5 4.26-1.39 6.15 -.9 1.88-2.09 3.37-3.68 4.66 -1.59 1.19-3.38 2.18-5.36 2.77 -1.99.59-4.07.99-6.26.99 -3.87 0-6.95-.9-9.33-2.78 -2.39-1.89-3.58-4.37-3.58-7.65 0-1.89.49-3.48 1.58-4.77 1.09-1.29 2.57-1.89 4.46-1.89 1.78 0 3.17.49 4.26 1.58 1.09 1.09 1.58 2.38 1.58 3.86 0 1.28-.5 2.57-1.39 3.67 -.9 1.09-1.99 2.18-3.18 3.07v.39c.19.39.59.79 1.19 1.09 .59.29 1.28.39 1.88.39 2.48 0 4.46-.9 5.85-2.68 1.38-1.79 2.08-4.47 2.08-8.04V11.2c0-.7-.1-1.39-.3-1.89 -.2-.5-.8-.9-1.69-1.29 -.6-.3-1.39-.5-2.29-.7 -.9-.2-1.59-.3-2.19-.4V4.53H35.2v2.48h.29Z"/><path d="M72.33 41.27c-.7 1.19-1.59 2.28-2.58 3.37 -1 1.09-2.19 1.88-3.48 2.67 -1.39.79-2.78 1.38-4.17 1.78 -1.39.39-3.08.59-4.87.59 -3.08 0-5.66-.4-7.94-1.29 -2.19-.9-4.07-1.99-5.46-3.48 -1.49-1.49-2.49-3.18-3.28-5.16 -.7-1.99-1.1-4.17-1.1-6.45 0-2.09.39-4.17 1.19-6.06 .79-1.89 1.88-3.68 3.27-5.16 1.38-1.49 3.17-2.68 5.35-3.58 2.18-.9 4.56-1.39 7.14-1.39 2.87 0 5.25.39 7.14 1.09 1.88.69 3.37 1.68 4.56 2.87 1.19 1.19 1.98 2.57 2.57 4.16 .49 1.58.79 3.27.79 5.06v1.98H50.52c0 4.26.79 7.44 2.48 9.62 1.58 2.18 4.26 3.27 7.73 3.27 1.98 0 3.67-.5 5.25-1.59 1.58-1.1 2.87-2.39 3.96-4.07l2.28 1.68v0ZM60.52 29.46c0-1.2-.1-2.49-.2-3.78 -.1-1.29-.3-2.39-.7-3.18 -.4-1-.8-1.69-1.49-2.19 -.6-.5-1.39-.7-2.29-.7 -1.59 0-2.88.79-3.78 2.38 -1 1.58-1.49 4.16-1.59 7.64l10.02-.2v0Z"/><path d="M116.09 48.62H97.43v-2.29c.39 0 .89-.1 1.38-.2 .59-.1.99-.2 1.28-.3 .39-.2.69-.6.89-1 .19-.4.29-1.1.29-1.89V28.45c0-2.09-.4-3.68-1.2-4.77 -.8-1.1-1.89-1.59-3.48-1.59 -.8 0-1.59.09-2.29.39 -.7.19-1.39.59-2.09 1.09 -.6.39-1.1.79-1.49 1.28 -.4.39-.7.79-.9 1.19v16.57c0 .69.09 1.28.29 1.78 .19.49.59.89.99 1.09 .29.19.69.39 1.19.49 .49.09.99.19 1.48.29v2.28H74.91v-2.29c.49 0 .99-.1 1.58-.2 .49-.1.99-.2 1.38-.3 .69-.2 1.09-.6 1.38-1.1 .19-.5.39-1.1.39-1.89V24.7c0-.6-.2-1.29-.5-1.89 -.3-.6-.8-1.1-1.29-1.49 -.4-.2-.8-.5-1.39-.6 -.6-.2-1.2-.3-1.89-.3v-2.29l14.78-.8 .49.49v4.46h.09c.59-.5 1.28-1.1 2.08-1.89 .79-.7 1.58-1.29 2.28-1.79 .79-.5 1.78-.9 2.97-1.29 1.19-.4 2.57-.5 3.96-.5 3.37 0 5.85.99 7.54 2.87 1.68 1.88 2.48 4.46 2.48 7.64V42.5c0 .79.09 1.38.29 1.78 .19.49.69.79 1.28 1.09 .29.09.69.29 1.19.39 .49.09.99.19 1.68.29v2.38h.19Z"/><path d="M158.75 48.62h-14.59c-1.79-3.18-3.48-5.86-4.97-8.04 -1.49-2.19-2.88-4.27-4.17-6.06l-1.79 1.58v6.74c0 .69.09 1.38.29 1.78 .19.49.59.79 1.28 1.09 .39.19.79.29 1.28.39 .49.09.99.19 1.48.19v2.28h-19.25v-2.29c.49 0 .99-.1 1.58-.2 .49-.1.99-.2 1.38-.3 .69-.2 1.09-.6 1.38-1.1 .19-.5.39-1.1.39-1.89V8.25c0-.7-.2-1.39-.5-2.09s-.7-1.29-1.29-1.69c-.4-.2-1-.5-1.79-.6 -.8-.2-1.49-.3-2.19-.3V1.28l15.37-.8 .49.49v31.95c1.48-1.39 3.27-2.98 5.15-4.77 1.88-1.79 3.47-3.28 4.56-4.47 .69-.7 1.09-1.2 1.09-1.59 .09-.4.09-.6.09-.7 0-.4-.3-.7-1-.9 -.7-.2-1.59-.5-2.98-.7V17.6h15.67v2.18c-2.09.59-3.68 1.09-4.77 1.58 -1.1.49-2.29 1.19-3.58 1.98 -.9.59-1.69 1.19-2.49 1.78 -.8.59-1.69 1.38-2.78 2.28 1.98 2.97 3.86 5.65 5.55 8.13 1.68 2.48 3.47 5.15 5.35 7.93 .59.99 1.38 1.58 2.38 1.98 .99.29 1.88.49 2.87.59v2.38h.29Z"/><path d="M178.6 48.62h-19.55v-2.29c.49 0 1.09-.1 1.58-.2s.99-.2 1.28-.3c.69-.2 1.09-.6 1.38-1.1 .29-.5.39-1.1.39-1.89V24.78c0-.7-.2-1.39-.5-1.89 -.3-.6-.7-1-1.2-1.29 -.4-.2-.9-.5-1.69-.7 -.8-.2-1.49-.4-2.09-.4v-2.29l15.18-.8 .49.49v24.6c0 .69.19 1.28.49 1.88 .29.49.79.89 1.28 1.09 .39.19.89.39 1.38.49 .49.09.99.19 1.58.29v2.28h-.1Zm-4.47-42.18c0 1.58-.6 2.87-1.79 3.96 -1.2 1.09-2.68 1.68-4.27 1.68 -1.69 0-3.08-.6-4.37-1.69 -1.2-1.1-1.79-2.49-1.79-3.97 0-1.59.59-2.88 1.78-4.07 1.19-1.1 2.67-1.69 4.36-1.69 1.68 0 3.07.59 4.26 1.68 1.19 1.09 1.78 2.48 1.78 4.06v0Z"/><path d="M222.36 48.62H203.7v-2.29c.39 0 .89-.1 1.38-.2 .59-.1.99-.2 1.28-.3 .39-.2.69-.6.89-1 .19-.4.29-1.1.29-1.89V28.45c0-2.09-.4-3.68-1.2-4.77 -.8-1.1-1.89-1.59-3.48-1.59 -.8 0-1.59.09-2.29.39 -.7.29-1.39.59-2.09 1.09 -.6.39-1.1.79-1.49 1.28 -.4.39-.7.79-.9 1.19v16.57c0 .69.09 1.28.29 1.78 .19.49.59.89.99 1.09 .29.19.69.39 1.19.49 .49.09.99.19 1.48.29v2.28h-18.86v-2.29c.49 0 .99-.1 1.58-.2 .49-.1.99-.2 1.38-.3 .69-.2 1.09-.6 1.38-1.1 .19-.5.39-1.1.39-1.89V24.7c0-.6-.2-1.29-.5-1.89 -.3-.6-.8-1.1-1.29-1.49 -.4-.2-.8-.5-1.39-.6 -.6-.2-1.2-.3-1.89-.3v-2.29l14.78-.8 .49.49v4.46h.09c.59-.5 1.28-1.1 2.08-1.89 .79-.7 1.58-1.29 2.28-1.79 .79-.5 1.78-.9 2.97-1.29 1.19-.4 2.57-.5 3.96-.5 3.37 0 5.85.99 7.54 2.87 1.68 1.88 2.48 4.46 2.48 7.64V42.5c0 .79.09 1.38.29 1.78 .19.49.69.79 1.28 1.09 .29.09.69.29 1.19.39 .49.09.99.19 1.68.29v2.38h.19Z"/><path d="M239.52 49.71c-1.99 0-3.97-.3-5.86-.9 -1.89-.6-3.38-1.2-4.47-1.89l-.9 2.08h-2.39l-.4-11.52h2.28c.29.89.79 1.98 1.58 3.17 .69 1.19 1.58 2.18 2.48 3.17 .99.89 2.08 1.68 3.37 2.38 1.28.59 2.57.99 3.96.99 1.88 0 3.27-.4 4.16-1.1 .89-.7 1.38-1.89 1.38-3.38 0-.8-.2-1.49-.6-2.09 -.4-.5-1-1-1.69-1.39 -.8-.4-1.69-.8-2.68-1.1 -1-.3-2.19-.6-3.58-1.1 -1.39-.4-2.58-.8-3.58-1.29 -1-.4-2.09-1.1-3.08-1.99 -.9-.8-1.69-1.79-2.19-2.88 -.6-1.1-.8-2.49-.8-4.07 0-2.88 1.19-5.26 3.67-7.05s5.65-2.68 9.62-2.68c1.88 0 3.57.19 5.15.59 1.58.39 2.87.79 3.96 1.28l.69-1.79h2.38l.49 10.51h-2.19c-.7-2.19-1.99-3.97-3.68-5.56 -1.79-1.59-3.68-2.39-5.66-2.39 -1.59 0-2.88.29-3.78.99 -.9.69-1.39 1.58-1.39 2.77 0 1.58.69 2.67 1.98 3.37 1.28.69 3.17 1.38 5.55 1.98 3.67.99 6.35 2.28 8.13 3.86 1.68 1.68 2.57 3.77 2.57 6.25 0 3.37-1.29 6.05-3.97 7.83 -2.98 1.78-6.45 2.77-10.72 2.77v0Z"/></g></g></svg>