<svg viewBox="0 0 512 142" xmlns="http://www.w3.org/2000/svg"><defs><linearGradient id="a" x1="45.082%" x2="55.522%" y1="-1.344%" y2="97.609%"><stop offset="0%" stop-color="#FCF84A"/><stop offset="32%" stop-color="#ABE682"/><stop offset="79%" stop-color="#36CDD2"/><stop offset="100%" stop-color="#07C3F2"/></linearGradient><linearGradient id="b" x1="-2.942%" x2="100.445%" y1="38.992%" y2="62.105%"><stop offset="0%" stop-color="#3BEA62"/><stop offset="100%" stop-color="#087CFA"/></linearGradient><linearGradient id="c" x1="-3.308%" x2="111.745%" y1="71.806%" y2="15.462%"><stop offset="0%" stop-color="#009AE5"/><stop offset="18%" stop-color="#0490DD"/><stop offset="49%" stop-color="#1073C6"/><stop offset="89%" stop-color="#2346A1"/><stop offset="100%" stop-color="#293896"/></linearGradient></defs><path d="M168.65 94.54l10.73-13.17c7.52 6.24 15.3 10.21 24.8 10.21 7.33 0 11.75-2.87 11.97-7.58l0-.53 -.02-.48c-.12-2.43-1.12-4.23-4.27-5.95l-.64-.34c-.23-.12-.46-.23-.7-.34l-.75-.34v0l-.81-.34c-.14-.06-.29-.12-.43-.17l-.91-.34c-.16-.06-.32-.12-.48-.17l-1.01-.34c-.18-.06-.35-.12-.53-.18l-1.11-.35v0l-1.18-.35c-.21-.06-.41-.12-.62-.18l-1.96-.54v0l-3.43-.91v0l-1.32-.37v0l-1.93-.56v0l-1.25-.38v0l-1.22-.39v0l-1.19-.4v0l-1.16-.41c-10.66-3.87-17.2-9.45-17.42-22.01l-.01-.93c0-15.05 11.77-25.09 28.38-25.35l.66-.01c11.21-.19 22.14 3.6 30.83 10.69l-9.41 13.93c-7.36-5.18-14.6-8.3-21.59-8.3 -7 0-10.69 3.23-10.69 7.33l0 .5v0l.02.54c.22 3.02 1.8 4.86 6.18 6.67l.8.31v0l.86.31v0l.92.32v0l.98.32v0l1.05.32v0l1.12.33v0l1.81.51v0l1.29.35v0l3.58.94v0l1.49.41c.49.14.97.28 1.45.42l1.41.43c13.45 4.29 20.94 10.44 21.19 23.09l0 .9c0 16.69-12.58 26.08-30.49 26.08 -13.01.03-25.57-4.77-35.24-13.47Zm125.44-19.82v-.25c0-10.7-7.11-17.79-15.54-17.79 -8.28 0-15.17 6.83-15.42 17.21l-.01.81c0 10.68 6.99 17.76 15.41 17.76s15.53-6.96 15.53-17.77Zm-48.76-32.33h18.03v9.25c4.26-6.47 11.45-10.38 19.17-10.46l.64 0c14.64 0 28.61 11.49 28.93 32.53l0 .99c0 21.26-13.56 33-28.42 33.27l-.53 0c-7.76.12-15.12-3.45-19.82-9.61v27.58h-18.04V42.35Zm114.7 41.7v-3.26c-3.62-1.63-7.55-2.45-11.51-2.41 -7.71 0-12.45 3.12-12.45 8.89v.22c0 4.92 4.02 7.82 9.83 7.82 8.42 0 14.12-4.69 14.12-11.29Zm-41.39 4.19v-.17c0-14.07 10.54-20.56 25.61-20.56 5.29-.05 10.55.85 15.53 2.65v-1.1c0-7.53-4.63-11.78-13.64-11.78 -6.02 0-11.98 1.18-17.55 3.47l-4.52-13.94c7.38-3.44 15.42-5.21 23.56-5.19l1.1.01c9.83 0 16.92 2.65 21.47 7.22 4.55 4.56 6.86 11.88 6.86 20.55v37.28h-17.44v-6.98c-4.85 5.48-11.91 8.48-19.22 8.17 -11.98 0-21.82-6.98-21.82-19.71Zm67.95-13.36l0-.23c-.19-8.72 3.1-17.14 9.13-23.43 6.03-6.29 14.31-9.93 23.02-10.11l.58-.01v0l.58 0c11.97 0 19.44 4.08 25.36 10.81l-11.02 12.01c-4.05-4.33-8.07-7.09-14.48-7.09 -8.85 0-15.19 7.76-15.42 17.03l-.01.75c0 9.85 6.29 17.76 16.13 17.76 6.05 0 10.21-2.64 14.59-6.85l10.54 10.81 -.82.88v0l-.83.86v0l-.84.83c-5.51 5.34-12.12 9.02-22.68 9.2l-.82 0c-18.05.23-32.87-14.22-33.1-32.26 -.01-.35-.01-.7 0-1.05Zm107.82-5.38c-1.08-8.18-5.82-13.71-13.41-13.71 -7.6 0-12.34 5.41-13.77 13.7h27.17Zm-44.83 5.39v-.23c0-18.4 12.91-33.53 31.42-33.53 21.22 0 30.97 16.69 30.97 34.95 0 .72-.04 1.5-.08 2.32l-.17 2.49v0h-44.25c1.12 7.59 7.86 13.06 15.53 12.61 6.05 0 10.43-1.89 15.41-6.62l10.32 9.27c-6.25 7.91-15.9 12.38-25.97 12.01 -19.11 0-33.21-13.6-33.21-33.31Z"/><path fill="url(#a)" d="M25.54 141.02c50.17-4.4 94.19-35.22 115.49-80.86C114.65 22.46 71.54 0 25.53-.02c-4.1 0-8.22.18-12.36.54C-8.11 46.19-3.4 99.74 25.52 141v0Z"/><path fill="url(#b)" d="M13.33.56c30.02 12.2 55.81 32.92 74.2 59.6h53.49C114.72 22.44 71.63-.03 25.65-.02c-4.1 0-8.22.18-12.34.56v0Z"/><path fill="url(#c)" d="M87.53 60.17c-6.45 42.62-62.06 80.85-62.06 80.85 50.56-4.78 94.88-35.06 115.55-80.86h-53.5Z"/></svg>