<svg viewBox="0 0 256 257" xmlns="http://www.w3.org/2000/svg"><defs><linearGradient id="a" x1="25.176%" x2="99.172%" y1="43.309%" y2="67.433%"><stop offset="21%" stop-color="#FE2857"/><stop offset="100%" stop-color="#293896"/></linearGradient><linearGradient id="b" x1="2.278%" x2="90.695%" y1="77.149%" y2="24.093%"><stop offset="0%" stop-color="#FE2857"/><stop offset="1%" stop-color="#FE2857"/><stop offset="86%" stop-color="#FF318C"/></linearGradient><linearGradient id="c" x1="6.298%" x2="94.643%" y1="13.918%" y2="87.693%"><stop offset="2%" stop-color="#FF318C"/><stop offset="21%" stop-color="#FE2857"/><stop offset="86%" stop-color="#FDB60D"/></linearGradient><linearGradient id="d" x1="91.086%" x2="1.966%" y1="27.72%" y2="68.621%"><stop offset="1%" stop-color="#FDB60D"/><stop offset="86%" stop-color="#FCF84A"/></linearGradient></defs><path fill="url(#a)" d="M112.66 117.37L42.05 57.6c-7.89-6.6-18.96-7.85-28.11-3.16C4.78 59.12-.68 68.83.06 79.08 .8 89.33 7.6 98.15 17.33 101.47h.25l.66.2 89.06 27.13c.64.23 1.32.35 2.01.35 2.84-.02 5.33-1.92 6.1-4.66 .76-2.75-.38-5.66-2.81-7.15l.01-.02Z"/><path fill="url(#b)" d="M126.81 18.7c.04-6.85-3.69-13.17-9.7-16.45 -6.02-3.28-13.35-2.99-19.08.76L11.79 55.36C3.79 60.56-.64 69.78.28 79.27c.91 9.49 7.03 17.69 15.86 21.27 8.83 3.58 18.93 1.96 26.2-4.22l77.3-63 .61-.52c4.13-3.55 6.51-8.72 6.52-14.16v0Z"/><path fill="url(#c)" d="M252.22 131.53L121.38 5.52C116.55.67 109.46-1.14 102.91.8c-6.56 1.93-11.53 7.3-12.95 13.98 -1.43 6.68.92 13.61 6.12 18.05l.23.2 138.99 117.1c3.74 3.14 8.97 3.82 13.39 1.75s7.25-6.52 7.24-11.41c0-3.38-1.36-6.62-3.76-8.99Z"/><path fill="url(#d)" d="M256 140.56c.03-4.74-2.61-9.09-6.82-11.26 -4.22-2.17-9.29-1.78-13.12 1L77.74 207.65c-8.61 4.32-14.06 13.11-14.12 22.74 -.06 9.63 5.29 18.47 13.85 22.9 8.55 4.42 18.86 3.67 26.69-1.95l146.39-100.48c3.39-2.35 5.41-6.21 5.41-10.34v0Z"/><path d="M75.84 76.88l102.45 0 0 102.45 -102.46 0Z"/><path fill="#FFF" d="M86.99 160.13h38.42v6.4H86.98v-6.41Zm-1.61-56.83l2.85-2.7c.55.86 1.48 1.42 2.51 1.48 1.09 0 1.81-.77 1.81-2.26V89.71h4.4v10.14c.13 1.65-.44 3.28-1.58 4.49 -1.08 1.05-2.52 1.66-4.02 1.7l-.38-.01c-2.09.08-4.09-.84-5.39-2.46l-.24-.32Zm13.55-13.58h12.85v3.73h-8.54v2.44h7.66v3.41h-7.6v2.54h8.53v3.75H98.85l.05-15.9Zm19.12 3.87h-4.79v-3.88h14.01v3.87h-4.8v12.1h-4.44V93.57Zm-30.91 18.42h7.54c1.58-.14 3.15.38 4.35 1.41 .68.68 1.06 1.62 1.04 2.59 .02 1.59-.98 3.03-2.48 3.56 1.87.34 3.22 2 3.17 3.91 0 2.88-2.24 4.59-6.07 4.59H87.1v-16.09Zm8.53 4.93c0-.89-.72-1.37-2.02-1.37h-2.21v2.8h2.13c1.33 0 2.11-.47 2.11-1.39l-.04-.06Zm-1.54 4.54h-2.69v2.95h2.76c1.36 0 2.11-.53 2.11-1.47 -.04-.85-.6-1.41-1.89-1.48l-.33-.01Zm17.17 6.6l-3.23-4.85h-1.49v4.84h-4.44l.03-16.09h7.08c1.89-.16 3.77.46 5.2 1.7 .88.9 1.39 2.11 1.42 3.37l-.01.34c.06 2.17-1.26 4.15-3.3 4.93l3.11 4.66 6.34-15.16h4.26l6.83 16.11h-4.77l-1.15-2.89h-6.2l-1.15 2.97h-8.61Zm12.85-10.95l-1.82 4.52h3.6l-1.8-4.53Zm-15.17-1.3h-2.38v3.87l2.39-.04c1.48 0 2.39-.74 2.39-1.92 0-1.29-.94-1.93-2.41-1.93Zm24.86-3.9h4.43v16h-4.44v-16.01Zm6.07 0h4.16l5.75 8.53v-8.54h4.38v16h-3.88l-6.03-8.78v8.77h-4.41V111.9Zm15.04 13.62l2.45-2.96c1.44 1.2 3.24 1.88 5.12 1.92 1.21 0 1.84-.43 1.84-1.11 0-.52-.28-.84-1.31-1.18l-.49-.15c-.09-.03-.19-.05-.29-.08l-.65-.16v0l-.36-.09v0l-.69-.17v0l-.66-.18c-2.56-.75-4.35-1.85-4.35-4.58 0-2.98 2.35-5.13 6.19-5.13 2.37-.09 4.7.66 6.57 2.13l-2.14 3.03c-1.3-.98-2.86-1.53-4.48-1.58 -1.08 0-1.61.42-1.61 1.02 0 .54.29.85 1.34 1.18l.49.14c.09.02.18.04.28.07l.65.15c3.67.8 5.94 1.99 5.94 4.98 0 3.15-2.41 4.99-6.08 5.11l-.39 0c-2.56.1-5.06-.66-7.11-2.17l-.41-.32Z"/></svg>