<svg viewBox="0 0 256 248" xmlns="http://www.w3.org/2000/svg"><path fill="#41BF47" d="M113.66 162.39l-13.53 3.76c1.17 3.41 2.11 9.52 2.11 17.76v40.46h15.17v-42.82c2.82-3.42 5.88-5.06 9.17-5.06 1.64 0 2.94.35 4.35 1.17l4.11-14c-2.36-1.06-3.42-1.3-5.65-1.3 -1.65 0-3.65.35-4.95.94 -2.83 1.41-6.36 4.58-8.59 7.64 0-3.42-.83-6.12-2.24-8.59Zm-52.23-20h-1.65v81.87h15.76v-36.23h19.87V174.5H75.53v-18.83h24.81l.94-7.18c-14.94-1.06-28.47-3.42-39.88-6.12Zm-36.82 92.8l7.29 8.46c7.05-2.83 15.87-9.18 18.23-19.3 .82-3.3 1.05-5.42 1.05-16.12v-65.76H35.3v67.51c0 8.82-.36 12.11-1.53 15.17 -1.53 3.41-5.18 7.41-9.18 9.99Zm143.15-41.53c0 14.35-2.83 20.46-9.3 20.46 -2.95 0-6.24-1.65-7.65-4.95 -1.18-3.06-1.89-8.24-1.89-15.3 0-6 .58-10.24 1.52-13.53 1.17-3.77 4.11-6.12 7.76-6.12 2.7 0 5.05 1.17 6.46 3.17 2.11 2.82 3.05 8.11 3.05 16.23Zm9.29 23.52c4.94-5.89 7.17-13.06 7.17-23.41 0-9.77-2-16.47-6.59-22.12 -4.95-6.12-11.3-9.06-19.53-9.06 -15.53 0-25.88 12.58-25.88 31.64 0 19.05 10.23 31.28 25.87 31.28 8.82.11 14.58-3.18 18.93-8.36Zm43.05-33.88c0 5.52-3.3 8.58-9.18 8.58 -5.3 0-8.83-2.48-8.83-8.59 0-5.65 3.29-8.94 8.93-8.94s9.05 3.29 9.05 8.93Zm26.7-12.94l-6.24-10c-3.53 3.29-7.77 5.17-11.89 5.17 -1.89 0-2.95-.24-7.06-1.3 -4.12-1.18-7.06-1.53-10.36-1.53 -14.71 0-24.24 7.99-24.24 20.46 0 8.93 3.99 14.58 12.35 16.82 -3.42.82-7.06 2.58-8.71 4.58 -1.18 1.41-1.77 3.29-1.77 5.52 0 1.88.47 3.52 1.17 4.94 .82 1.29 1.88 2.35 3.29 2.94 2.7 1.05 7.05 1.76 13.76 1.88 3.52 0 5.64.11 6.35.11 4.11.23 6.23.94 7.88 1.76 1.52.94 2.7 3.05 2.7 5.41 0 2.35-1.42 4.7-3.65 6.11 -2 1.41-5.3 1.99-9.53 1.99 -6.95 0-10.83-2.59-10.83-7.42 0-2.12.23-2.59.7-3.89h-13.89c-.59 1.17-1.3 2.82-1.3 6.11 0 4.11 1.52 7.64 4.7 10.7 5.17 5.05 13.64 6.46 21.76 6.46 8.93 0 17.64-2.12 22.7-7.77 3.17-3.53 4.58-7.42 4.58-12.47 0-5.42-1.53-9.53-4.95-12.94 -4-3.89-8.59-5.3-17.41-5.42l-8.12-.12c-1.53 0-2.48-.59-2.48-1.42 0-1.65 2.11-3.06 5.99-4.95 1.17.11 1.52.11 2.23.11 12.23 0 21.17-7.53 21.17-18 0-4-1.18-7.06-3.42-9.89 1.88.23 2.47.35 3.88.35 3.99 0 7.17-1.3 10.46-4.47ZM57.41 71.19c-18.83 4.58-31.65 13.64-31.65 23.99 0 6.46 4.94 12.35 13.05 16.93 -2.48-3.89-3.77-8.12-3.77-12.36 .11-10.71 8.46-20.71 22.34-28.59Zm198.55 40.58c0-6.83-4.24-13.06-11.3-18.24 .58 2.11 1.05 4.23 1.05 6.35 0 19.4-27.18 36.11-65.76 43.05 4.35.47 8.82.7 13.52.7 34.46-.12 62.46-14.36 62.46-31.88Zm-22.24-10.59c0-7.18-6.12-13.77-16.59-19.18 2.47 2.94 3.76 6.11 3.76 9.41 0 17.29-36.71 31.28-82.11 31.28 -45.29 0-82.11-14-82.11-31.29 -.001-2.24.58-4.36 1.76-6.36 -7.3 4.82-11.42 10.35-11.42 16.23 0 18.7 41.75 33.87 93.28 33.87 51.52 0 93.39-15.41 93.39-34Zm-40.7-.95c-19.06 12.23-77.64 16.93-102.81 1.17 -19.77-12.36-12.94-32-69.52-75.05 -7.42-5.65 1.41-11.65 6.94-7.77 5.52 3.88.47 4.82 11.64 15.99 22.58 22.58 22.34 2.23 25.87 9.99C72.66 60.67 89.13 76.9 89.13 76.9c16.58 10.82 29.76 13.17 54.22-3.42 15.52-10.47 9.17 16.7 47.16-2.95 13.88-7.18 13.29-2.36 27.4-22 5.88-8.12 17.05 6.23 4.35 8.23 -5.06.82-13.65 6.35-17.3 15.05 -5.3 13.05-3.06 22.7-12 28.34ZM87.38 67.05c-4.71-2.12-9.65-10.12-11.53-13.3 5.29-5.18 3.17-13.77.11-18.47 -2.95-4.71-6.59-3.42-10.47-7.77 -4-4.36 1.52-15.65 6.58-6.95 18.93 32.58 31.4 19.05 46.81 17.05 14.82-1.89 27.99 6.23 31.99-16.71 .7-3.77 4.35-4.59 4.7 1.52 .35 6.23 2.7 21.29 10.82 23.17 8.11 1.99 14.7-1.89 16.58-4 1.88-2.12 2.94-1.89 3.76 3.52 .82 5.29 2.94 12.7 14.35 4.46 23.4-16.71 16.7-23.18 25.87-27.53 5.17-2.48 13.4 5.52 1.52 11.52 -16.94 8.58-18.71 19.17-29.41 25.87 -18 11.29-12.47.47-41.41-3.65 -11.18-1.53-14.71 10.82-23.41 7.29 -19.88-8.24-33.88-6.59-46.94 3.88ZM150.07 6.7c.7 4.94 1.52 4.82 3.29 5.17 1.76.47 3.99-2.36 3.99-4.95 .11-2.71-1.18-4.36-3.77-4.24 -2.71.11-3.65 1.41-3.53 3.99Zm87.04 8.82c2.11 1.99 7.76.7 9.05-.83 3.41-3.77 3.52-6 1.76-8.59 -1.77-2.48-5.42-2.12-9.06.58 -3.65 2.7-2.95 7.76-1.77 8.82Zm-1.53 24.93c-1.77 2.35-1.89 4.11-.59 5.41 1.41 1.41 4.23 2.58 6.23 1.05 1.99-1.65 1.99-4 .35-6 -1.77-2.12-4.12-2.12-6-.48ZM57.01 11.04c2.7.82 3.99 3.41 6.23.47 1.17-1.42 1.29-3.42-.24-5.53 -.95-1.3-5.42-2.24-7.3-.36 -1.89 1.88-.12 4.94 1.29 5.41ZM1.84 9.39c4.94 3.05 8.11 7.64 11.88 3.52 1.29-1.42 2.82-3.89.11-8.83C11.83.43 5.36-.98 3.12.43 .76 1.72-2.06 7.01 1.82 9.36Zm45.52 23.4c1.52 1.64 4.23 1.52 5.88.58 1.52-.95 1.29-3.42-.24-5.53 -.95-1.3-3.77-2-5.65 0 -1.89 1.99-1.06 3.76 0 4.94Z"/></svg>