<svg viewBox="0 0 256 358" xmlns="http://www.w3.org/2000/svg" xmlns:xlink="http://www.w3.org/1999/xlink"><defs><path d="M.78 52.44v146.94c0 28.5 53.16 51.62 118.75 51.62 65.58 0 118.75-23.12 118.75-51.63V52.42c0-.001-4.94 50.17-118.76 50.17C5.7 102.59.76 52.41.76 52.41v0Z" id="a"/></defs><g transform="translate(7.96887 106.584)"><use fill="#9EAAB2" xlink:href="#a"/><path fill="#8E979A" d="M119.53.82a118.75 51.61 0 1 0 0 103.23 118.75 51.61 0 1 0 0-103.24Z"/><use fill="#9EAAB2" xlink:href="#a"/><g fill="#8E979A"><path d="M222.4 76.92c3.35-2.57 6.61-5.14 9.08-8.61 1.41-2 2.58-4.13 3.68-6.3 1.21-2.12 2.25-4.3 3.11-6.55v143.9c0 13.21-11.44 25.27-30.24 34.4V85.55c5.07-2.39 9.9-5.27 14.35-8.67l0 0Z"/><path d="M16.66 76.92c-3.36-2.57-6.62-5.14-9.09-8.61 -1.43-2-2.59-4.13-3.69-6.3 -1.22-2.12-2.26-4.3-3.12-6.55v143.9c0 13.21 11.43 25.27 30.23 34.4V85.55c-5.07-2.39-9.91-5.27-14.36-8.67l0 0Z"/><path d="M119.53 247.15c-63.97 0-116.11-21.38-118.58-48.14 -.07.65-.11 1.32-.11 1.98 0 27.68 53.13 50.12 118.67 50.12 65.54 0 118.67-22.45 118.67-50.13 0-.67-.04-1.33-.11-1.99 -2.48 26.76-54.61 48.13-118.58 48.13v0Z"/></g><g fill="#DBE1E3"><path d="M119.53 100.58C55.56 100.58 3.42 79.2.95 52.44c-.07.65-.11 1.32-.11 1.98 0 27.68 53.13 50.12 118.67 50.12 65.54 0 118.67-22.45 118.67-50.13 0-.67-.04-1.33-.11-1.99 -2.48 26.76-54.61 48.13-118.58 48.13v0Z"/><path d="M119.53 230.7C55.56 230.7 3.42 209.32.95 182.56c-.07.66-.11 1.32-.11 1.98 0 27.68 53.13 50.12 118.67 50.12 65.54 0 118.67-22.45 118.67-50.13 0-.67-.04-1.33-.11-1.99 -2.48 26.76-54.61 48.13-118.58 48.13v0Z"/></g></g><g transform="translate(18.9261 99.6109)"><path fill="#1A2B2F" d="M216.99 56.73c0 4.54-1.97 8.64-5.58 12.72 -7.16 8.08-54.53 26.83-102.11 26.87 -48.07.04-96.34-18.71-103.58-26.88C2.09 65.35.14 61.26.14 56.71c0-22.64 48.53-40.98 108.41-40.98 59.87 0 108.41 18.34 108.41 40.97h-.01Z"/><path fill="#1B3134" d="M5.73 7.8c17.1 11.93 60.62 23.07 102.83 23.07s88.11-11.54 102.83-23.08V.62s-32.26 20.63-102.84 20.63C37.96 21.25 5.71.61 5.71.61v7.16 0Z"/><path fill="#213F48" d="M211.41 65.3s-20.91 29.43-102.84 29.43c-81.94 0-102.84-29.44-102.84-29.44V1.37s29.6 20.15 100.41 20.15 105.25-20.16 105.25-20.16v63.91h-.01 0Z"/><path fill="#1B3134" d="M108.53 91.59c-51.64-.01-94.32-14.95-102.8-32.18v10.04s20.89 28.22 102.75 28.24v0h.04 .03v0c81.86-.02 102.83-28.25 102.83-28.25V59.39c-8.49 17.23-51.25 32.17-102.88 32.17h-.01Z"/></g><path fill="#8E979A" d="M127.5 118.78C58.77 118.78 2.76 97.4.1 70.64c-.07.65-.11 1.32-.11 1.98 0 27.68 57.08 50.12 127.5 50.12 70.41 0 127.5-22.45 127.5-50.13 0-.67-.05-1.33-.11-1.99 -2.66 26.76-58.68 48.13-127.4 48.13v0Z"/><path fill="#9EAAB2" d="M127.5 0C57.08 0-.01 22.44-.01 50.12V72c0 27.68 57.08 50.12 127.5 50.12 70.41 0 127.5-22.45 127.5-50.13V50.1c0-27.69-57.09-50.13-127.51-50.13V-.04Z"/><path fill="#DBE1E3" d="M127.24 16.9c18.84 0 36.2 2.58 49.37 6.85l18.87-6.86 4.56 19.44h-57l-.73-.15 20.26-7.36c-9.33-3.12-21.76-5.02-35.31-5.02 -10.86 0-21.04 1.23-29.45 3.34l-18.73-3.81c13.13-4.1 30.07-6.47 48.11-6.47v-.01Zm-73.7 17.9c.63-2.84 7.57-5.1 15.51-5.1 7.93 0 14.07 2.25 13.7 5.09 -.38 2.88-7.35 5.25-15.55 5.25 -8.21 0-14.33-2.38-13.68-5.26v0Zm74.01 35.91c-22.22 0-41.9-3.54-55.46-9.08l-25 9.07 5.18-23.69h59.63l.27.05 -23.03 8.35c9.52 3.74 23.1 6.11 38.3 6.11 12.49 0 23.81-1.59 32.67-4.21l21.81 4.67c-13.25 5.24-32.38 8.68-54.42 8.68v0Zm61.91-16.31c-8.57 0-15.89-2.6-16.35-5.74 -.45-3.09 5.9-5.55 14.18-5.55 8.27 0 15.57 2.45 16.3 5.54 .74 3.13-5.59 5.73-14.16 5.73v0Z"/><g fill="#8E979A"><path d="M216.01 108.07V83.75s34.51-10.61 38.98-33.64v21.88c0 14.16-14.96 26.95-38.99 36.07v0Z"/><path d="M38.98 108.07V83.48C11.82 74.99 1.21 59.61-.01 50.11v21.88c0 14.16 14.95 26.95 38.98 36.07v0Z"/></g><path fill="#DBE1E3" d="M127.5 96.27C58.77 96.27 2.76 74.89.1 48.13c-.07.66-.11 1.32-.11 1.98 0 27.68 57.08 50.12 127.5 50.12 70.41 0 127.5-22.45 127.5-50.13 0-.67-.05-1.33-.11-1.99 -2.66 26.76-58.68 48.13-127.4 48.13v0Z"/><g transform="translate(58.7704 135.471)"><g transform="translate(102.599 0)"><path fill="#1B3134" d="M34.02 19.72c0 9.74-7.14 17.65-16.92 17.65C7.32 37.37.18 29.46.18 19.71c0-9.76 7.13-17.66 16.91-17.66C26.87 2.05 34 9.95 34 19.7v0Z"/><path fill="#51C3F1" d="M17.11.68a15.53 15.53 0 1 0 0 31.07 15.53 15.53 0 1 0 0-31.08Z"/><path fill="#FFF" d="M17.11 8.74a5.06 5.06 0 1 0 0 10.13 5.06 5.06 0 1 0 0-10.14Z"/></g><path fill="#1B3134" d="M34.26 19.72c0 9.74-7.14 17.65-16.92 17.65C7.56 37.37.42 29.46.42 19.71c0-9.76 7.13-17.66 16.91-17.66 9.78 0 16.91 7.9 16.91 17.65v0Z"/><path fill="#51C3F1" d="M17.5.68a15.53 15.53 0 1 0 0 31.07 15.53 15.53 0 1 0 0-31.08Z"/><path fill="#FFF" d="M17.35 8.74a5.06 5.06 0 1 0 0 10.13 5.06 5.06 0 1 0 0-10.14Z"/></g><path fill="#DBE1E3" d="M128.23 326.02c-5.3 0-10.63-.28-19.01-.99 -3.93-.34-7.13-3.85-7.13-7.84v-79.67c0-3.72 2.81-6.52 6.54-6.52 .2 0 .41 0 .63.02 8.34.7 13.66.98 18.95.98 5.29 0 10.6-.28 18.95-.99 .2-.02.42-.03.62-.03 3.72 0 6.54 2.8 6.54 6.51v79.66c0 3.98-3.2 7.49-7.13 7.83 -8.39.71-13.72.98-19.01.98h-.01Zm-19.59-91.03c-1.54 0-2.57 1.01-2.57 2.53v79.66c0 1.9 1.62 3.71 3.48 3.87 8.25.7 13.49.97 18.67.97 5.17 0 10.4-.28 18.66-.98 1.85-.16 3.48-1.97 3.48-3.88v-79.67c0-1.62-1.2-2.68-2.86-2.53 -8.48.71-13.89 1-19.31 1 -5.42 0-10.83-.29-19.3-1.01 -.1-.01-.2-.02-.29-.02h0Z"/><g transform="translate(162.366 231.097)"><path fill="#F5DD3E" d="M62.99.49C53.54 6.61 35.96 18 .89 25.9c5.03 26.73 5.03 26.73 11.66 61.77 12.13-3.62 37.38-11.14 57.83-28 -2.34-19.59-4.21-34.83-7.41-59.2"/><g fill="#3B3735"><path d="M40.14 70.89c-6.92 3.81-11.64-1.73-11.64-1.73l4.08-3.88s2.27 2.93 6.03.43c1.76-1.18.61-7.04.61-7.04l-3.39-16.14 5.32-2.25s3.22 18.62 3.56 20.49c.62 3.48 1.14 6.92-4.6 10.09v0Z"/><path d="M54.47 62.74c-3.9.58-6.1-2.32-6.1-2.32l3.54-4.35s1.33 1.48 3.19 1.2c1.57-.25 3.42-1.29 4.07-3.28 1.09-3.4.08-4.56-3.38-4.17 -3.45.38-7.79.89-8.56-5.92 -.69-6.04 4.59-10.66 8.16-11.28 3.54-.63 5.52 1.88 5.52 1.88l-3.54 4.29s-2.35-1.07-3.76.19c-1.29 1.15-1.78 2.65-1.29 3.79 .42.99 1.71 1.43 3.79 1.28 2.07-.15 5.48-1.36 7.59 2.87 2.36 4.75-.1 14.37-9.29 15.76l-.01-.01Z"/></g></g></svg>