<svg viewBox="0 0 256 203" xmlns="http://www.w3.org/2000/svg"><path fill="#F7DF1E" d="M1.85 1.83l201.09 0 0 199 -201.1 0Z"/><path fill="#EEE" d="M204.8 202.66H0V-.01h204.8v202.66ZM3.84 198.83h197.1V3.82H3.83v195Z"/><path d="M137.16 158.02c4.05 6.63 9.34 11.5 18.68 11.5 7.84 0 12.86-3.93 12.86-9.35 0-6.5-5.15-8.8-13.79-12.58l-4.74-2.04c-13.67-5.83-22.75-13.12-22.75-28.54 0-14.21 10.82-25.02 27.73-25.02 12.04 0 20.7 4.19 26.93 15.16l-14.75 9.46c-3.25-5.83-6.75-8.12-12.19-8.12 -5.55 0-9.07 3.52-9.07 8.11 0 5.68 3.52 7.98 11.64 11.5l4.73 2.02c16.09 6.9 25.17 13.93 25.17 29.75 0 17.05-13.4 26.39-31.39 26.39 -17.6 0-28.96-8.39-34.52-19.37 0-.01 15.39-8.95 15.39-8.95v0Zm68.32 0c4.05 6.63 9.34 11.5 18.68 11.5 7.84 0 12.86-3.93 12.86-9.35 0-6.5-5.15-8.8-13.79-12.58l-4.74-2.04c-13.67-5.83-22.75-13.12-22.75-28.54 0-14.21 10.82-25.02 27.73-25.02 12.04 0 20.7 4.19 26.93 15.16l-14.75 9.46c-3.25-5.83-6.75-8.12-12.19-8.12 -5.55 0-9.07 3.52-9.07 8.11 0 5.68 3.52 7.98 11.64 11.5l4.73 2.02c16.09 6.89 25.17 13.93 25.17 29.75 0 17.05-13.4 26.39-31.39 26.39 -17.6 0-28.96-8.39-34.52-19.37l15.39-8.95v0Zm-135.24 1.64c2.97 5.28 5.68 9.74 12.18 9.74 6.22 0 10.14-2.44 10.14-11.91V93.08h18.93v64.66c0 19.61-11.5 28.53-28.29 28.53 -15.17 0-23.95-7.85-28.42-17.31l15.42-9.34c0-.01 0 0 0 0v0Z"/></svg>