<svg viewBox="0 0 256 300" xmlns="http://www.w3.org/2000/svg"><path fill="#4E4E4E" d="M10.58 156.4v-.22 -32.54h7.13v35.25c.33 2.84.08 5.72-.72 8.46 -.81 2.74-2.16 5.29-3.97 7.51 -3.38 2.9-7.7 4.48-12.15 4.42l-.75-5.33c2.87 0 5.64-1.07 7.77-2.99 1.91-2.24 2.66-5.28 2.66-14.6Zm53.21-4.21c0 3.99 0 7.56.31 10.65h-6.34l-.43-6.34c-1.33 2.24-3.23 4.09-5.5 5.36 -2.28 1.27-4.85 1.91-7.45 1.87 -6.18 0-13.53-3.36-13.53-17.05v-22.74h7.13v21.3c0 7.4 2.28 12.35 8.73 12.35 1.32.01 2.64-.24 3.86-.74 1.22-.51 2.34-1.25 3.28-2.18 .93-.94 1.67-2.06 2.17-3.29s.75-2.55.73-3.87v-23.86h7.13v28.27l-.16.21Zm13.52-15.56c0-4.96 0-9.01-.32-12.68h6.39l.31 6.65c1.42-2.41 3.47-4.38 5.93-5.72 2.45-1.34 5.22-1.98 8.02-1.86 9.47 0 16.61 7.93 16.61 19.75 0 13.95-8.58 20.87-17.85 20.87 -2.38.1-4.74-.41-6.85-1.48 -2.12-1.08-3.93-2.68-5.25-4.65v21.3h-7.03v-42.08 -.16Zm7.02 10.38c.01.96.12 1.92.31 2.87 .6 2.36 1.97 4.46 3.9 5.95 1.92 1.49 4.3 2.3 6.74 2.29 7.5 0 11.92-6.13 11.92-15.02 0-7.78-4.16-14.44-11.67-14.44 -2.98.24-5.76 1.56-7.83 3.7 -2.07 2.14-3.29 4.97-3.42 7.95v6.65Zm42.64-23.1l8.57 22.95c.9 2.55 1.86 5.64 2.5 7.93 .74-2.35 1.54-5.33 2.5-8.1l7.77-22.8h7.5l-10.66 27.69c-5.33 13.31-8.58 20.18-13.48 24.33 -2.47 2.25-5.48 3.83-8.74 4.57l-1.76-5.97c2.27-.75 4.39-1.93 6.23-3.47 2.59-2.12 4.65-4.82 6.01-7.89 .29-.54.48-1.11.58-1.71 -.07-.65-.23-1.28-.48-1.87l-14.49-35.85h7.77l.1.1Zm47.8-11.18v11.18h10.22v5.32h-10.23v20.98c0 4.79 1.38 7.56 5.32 7.56 1.39.02 2.79-.14 4.15-.48l.31 5.32c-2.04.7-4.19 1.03-6.34.95 -1.43.08-2.86-.14-4.19-.65 -1.34-.52-2.54-1.32-3.54-2.34 -2.17-2.91-3.16-6.52-2.77-10.12v-21.31h-6.08v-5.33h6.17v-9.48l6.92-1.66Zm23.37 31.87c-.15 1.8.1 3.62.73 5.32 .62 1.7 1.61 3.24 2.89 4.52 1.28 1.28 2.82 2.26 4.52 2.89 1.7.62 3.51.87 5.32.73 3.65.08 7.28-.61 10.65-2.03l1.22 5.32c-4.14 1.7-8.58 2.51-13.05 2.39 -2.61.17-5.22-.21-7.66-1.14 -2.45-.93-4.66-2.37-6.49-4.24 -1.84-1.87-3.24-4.1-4.13-6.56 -.89-2.46-1.24-5.08-1.01-7.68 0-11.72 6.97-20.99 18.37-20.99 12.78 0 15.97 11.18 15.97 18.31 .06 1.09.06 2.2 0 3.3h-27.54l.15-.22Zm20.87-5.33c.2-1.43.1-2.88-.3-4.26 -.41-1.39-1.1-2.66-2.04-3.75 -.94-1.1-2.11-1.97-3.41-2.57 -1.31-.61-2.73-.92-4.17-.93 -2.93.21-5.67 1.5-7.69 3.63 -2.02 2.12-3.18 4.93-3.24 7.86h20.82Zm17.32-3.27c0-4.58 0-8.53-.32-12.15h6.39v7.61h.31c.67-2.36 2.05-4.44 3.96-5.97 1.9-1.53 4.24-2.43 6.68-2.57 .67-.09 1.35-.09 2.02 0v6.65c-.82-.1-1.64-.1-2.45 0 -2.42.09-4.72 1.06-6.48 2.73 -1.76 1.66-2.85 3.91-3.07 6.32 -.2 1.08-.31 2.19-.32 3.3v20.71h-7.03V136l.26-.06Z"/><path fill="#767677" d="M233.25 16.96c.21 3.57-.64 7.13-2.45 10.23 -1.82 3.09-4.51 5.57-7.74 7.13 -3.23 1.55-6.85 2.11-10.4 1.6 -3.55-.51-6.87-2.06-9.53-4.46 -2.67-2.4-4.56-5.54-5.43-9.02 -.88-3.48-.7-7.14.51-10.51 1.21-3.38 3.4-6.31 6.28-8.44 2.88-2.13 6.34-3.35 9.92-3.5 2.34-.13 4.69.2 6.91.98 2.21.78 4.25 1.99 6 3.56 1.74 1.57 3.16 3.47 4.17 5.6 1 2.12 1.58 4.42 1.7 6.77Z"/><g fill="#F37726"><path d="M127.95 225.54c-47.93 0-90.06-17.21-111.84-42.61 8.45 22.85 23.7 42.56 43.69 56.49 19.99 13.92 43.77 21.38 68.14 21.38 24.36 0 48.14-7.47 68.14-21.39 19.99-13.93 35.24-33.64 43.69-56.5 -21.73 25.4-63.7 42.6-111.84 42.6Z"/><path d="M127.95 60.35c47.92 0 90.05 17.2 111.83 42.6 -8.46-22.86-23.71-42.57-43.7-56.5 -20-13.93-43.78-21.39-68.15-21.39 -24.37 0-48.15 7.46-68.15 21.38 -20 13.92-35.25 33.63-43.7 56.49 21.78-25.46 63.69-42.61 111.83-42.61Z"/></g><path fill="#9E9E9E" d="M61.97 274.97c.28 4.5-.79 8.99-3.07 12.89 -2.28 3.89-5.67 7.02-9.74 8.99 -4.07 1.96-8.63 2.67-13.1 2.04 -4.48-.64-8.66-2.59-12.01-5.61 -3.36-3.02-5.75-6.97-6.85-11.35 -1.11-4.38-.89-8.99.64-13.24 1.52-4.26 4.27-7.96 7.91-10.64 3.63-2.68 7.98-4.22 12.49-4.42 2.95-.16 5.91.26 8.7 1.25 2.79.98 5.35 2.51 7.56 4.48 2.2 1.97 3.99 4.37 5.26 7.04 1.27 2.66 2.01 5.56 2.16 8.52Z"/><path fill="#616262" d="M21.56 54.56c-2.59.07-5.13-.63-7.32-2 -2.19-1.38-3.93-3.37-4.99-5.72 -1.07-2.36-1.41-4.98-.99-7.53 .42-2.55 1.58-4.92 3.34-6.81 1.76-1.89 4.04-3.22 6.55-3.81 2.51-.6 5.14-.44 7.57.46 2.42.89 4.52 2.49 6.04 4.58 1.51 2.09 2.38 4.58 2.49 7.16 .1 3.49-1.18 6.88-3.57 9.43 -2.39 2.55-5.68 4.06-9.17 4.2Z"/></svg>