<svg viewBox="0 0 256 413" xmlns="http://www.w3.org/2000/svg"><path fill="#1A1919" d="M87.93 36.71c-4.55-4.58-10.9-7.4-17.96-7.4 -7.03 0-13.33 2.82-17.83 7.39h-.13c-4.54 4.54-7.36 10.9-7.36 17.92 0 7.05 2.82 13.35 7.35 17.87l.12.1c4.49 4.54 10.79 7.34 17.82 7.34 7.05 0 13.4-2.8 17.95-7.35l.06-.11c4.55-4.53 7.35-10.82 7.35-17.88 0-7.03-2.8-13.38-7.36-17.93h-.07ZM69.97 383.34c7.05 0 13.4-2.88 17.95-7.37l.06-.14c4.55-4.49 7.35-10.84 7.35-17.82 0-7.06-2.8-13.38-7.36-17.96h-.07c-4.55-4.63-10.9-7.43-17.96-7.43 -7.03 0-13.33 2.79-17.83 7.42h-.13c-4.54 4.57-7.36 10.89-7.36 17.95 0 6.97 2.82 13.33 7.35 17.81l.12.13c4.49 4.49 10.79 7.36 17.82 7.36Zm137.97-76.72c6.27-1.65 11.95-5.68 15.42-11.77l.46-.89c3.08-5.78 3.64-12.44 1.99-18.35 -1.66-6.33-5.74-11.92-11.81-15.42l-.36-.24c-5.92-3.25-12.67-3.95-18.86-2.28 -6.3 1.56-11.96 5.77-15.41 11.81 -3.5 5.98-4.23 12.88-2.56 19.23 1.72 6.24 5.76 11.89 11.79 15.41h.04c6.04 3.47 12.89 4.1 19.24 2.45ZM95.95 180.37c-6.66-6.64-15.83-10.8-25.99-10.8 -10.13 0-19.28 4.15-25.92 10.79 -6.61 6.61-10.69 15.76-10.69 25.89 0 10.16 4.07 19.33 10.68 26.02 6.64 6.58 15.78 10.71 25.91 10.71 10.16 0 19.33-4.13 25.98-10.72 6.62-6.69 10.69-15.87 10.69-26.03 0-10.14-4.08-19.29-10.7-25.9ZM81.33 137.2c14.72 2.42 27.97 9.48 38.08 19.67h.08c1.6 1.61 3.17 3.37 4.62 5.14l25.28-14.63c-3.4-10.28-3.56-21.02-.83-31.08 3.6-13.49 12.34-25.56 25.45-33.14l.43-.26c12.96-7.35 27.69-8.87 41-5.26 13.46 3.6 25.62 12.38 33.18 25.47v.02c7.52 13.01 9.05 27.95 5.46 41.39 -3.59 13.47-12.37 25.63-25.46 33.15l-3.46 2.04h-.36c-12.11 5.77-25.43 6.66-37.66 3.44 -10.05-2.67-19.26-8.26-26.47-16.23l-25.25 14.58c2.89 7.68 4.5 15.96 4.5 24.69 0 8.7-1.62 17.09-4.51 24.82l25.24 14.53c7.21-8.08 16.42-13.57 26.46-16.23 13.46-3.69 28.4-2.12 41.45 5.49l.83.39v.05C242 242.86 250.46 254.68 254 268c3.59 13.35 2.06 28.3-5.47 41.34l-.46.91 -.06-.09c-7.57 12.57-19.49 21.09-32.64 24.69 -13.51 3.55-28.44 2.03-41.48-5.46v-.11c-13.11-7.58-21.85-19.68-25.46-33.14 -2.73-10.04-2.58-20.78.82-31.05l-25.29-14.59c-1.45 1.77-3.02 3.45-4.63 5.07l-.09.07c-10.12 10.14-23.37 17.19-38.09 19.54v29.21c10.49 2.19 19.9 7.44 27.27 14.81l.03.08c9.87 9.82 15.99 23.51 15.99 38.56 0 15-6.12 28.61-16 38.48l-.04.15c-9.95 9.87-23.6 15.99-38.65 15.99 -14.98 0-28.65-6.12-38.57-16h-.04v-.16c-9.9-9.88-16.03-23.49-16.03-38.49 0-15.06 6.12-28.75 16.02-38.57v-.09h.03c7.35-7.37 16.77-12.63 27.24-14.82v-29.22c-14.75-2.36-27.96-9.41-38.05-19.55l-.11-.08C7.61 242.8-.28 225.37-.28 206.03c0-19.29 7.88-36.72 20.51-49.39h.1c10.09-10.2 23.3-17.25 38.04-19.68v-29.09c-10.47-2.28-19.89-7.53-27.25-14.85h-.04v-.09C21.18 83 15.05 69.41 15.05 54.36c0-14.98 6.12-28.7 16.02-38.58l.03-.05C41.01 5.82 54.68-.3 69.66-.3c15.05 0 28.7 6.11 38.64 16.02v.04h.03c9.87 9.87 15.99 23.59 15.99 38.57 0 15.05-6.12 28.64-16 38.56l-.04.08c-7.38 7.31-16.78 12.56-27.28 14.84v29.08Zm142.01-19.4l-.21-.32c-3.5-5.89-9.06-9.81-15.22-11.51 -6.35-1.68-13.2-.97-19.29 2.51h.04c-6.08 3.44-10.14 9.09-11.84 15.41 -1.68 6.27-.95 13.19 2.55 19.23l.11.16c3.5 5.95 9.06 9.95 15.28 11.56 6.24 1.75 13.21 1.02 19.2-2.48l.32-.16c5.9-3.53 9.83-9.1 11.48-15.21 1.67-6.3 1-13.2-2.47-19.24Z"/></svg>