<svg viewBox="0 0 512 234" xmlns="http://www.w3.org/2000/svg"><g fill="#1A1919"><path d="M49.76 20.97c-2.59-2.6-6.17-4.19-10.16-4.19s-7.54 1.59-10.09 4.18h-.07c-2.58 2.57-4.18 6.16-4.18 10.13 0 3.99 1.59 7.56 4.17 10.11l.06.07c2.54 2.57 6.1 4.14 10.08 4.14 3.99 0 7.57-1.58 10.15-4.15l.03-.08c2.58-2.55 4.16-6.13 4.16-10.12 0-3.97-1.58-7.57-4.17-10.14h-.04ZM39.6 217.09c3.99 0 7.57-1.63 10.15-4.18l.03-.08c2.58-2.54 4.16-6.14 4.16-10.09 0-4-1.58-7.57-4.17-10.16h-.04c-2.59-2.62-6.17-4.2-10.16-4.2s-7.54 1.58-10.09 4.19h-.07c-2.58 2.58-4.18 6.16-4.18 10.15 0 3.94 1.59 7.54 4.17 10.08l.06.07c2.54 2.54 6.1 4.17 10.08 4.17Zm78.06-43.41c3.54-.94 6.75-3.21 8.72-6.66l.26-.51c1.74-3.27 2.06-7.04 1.13-10.39 -.95-3.58-3.25-6.75-6.68-8.72l-.21-.14c-3.35-1.85-7.17-2.25-10.67-1.29 -3.57.89-6.77 3.26-8.72 6.67 -1.98 3.39-2.39 7.29-1.45 10.88 .97 3.53 3.25 6.72 6.67 8.72h.02c3.42 1.96 7.29 2.32 10.89 1.39Zm-63.37-71.43c-3.77-3.76-8.96-6.11-14.7-6.11 -5.74 0-10.92 2.35-14.67 6.1 -3.75 3.74-6.05 8.91-6.05 14.65s2.3 10.93 6.04 14.72c3.75 3.72 8.92 6.05 14.66 6.05s10.93-2.33 14.69-6.06c3.75-3.79 6.05-8.98 6.05-14.73s-2.31-10.92-6.06-14.66Zm-8.27-24.42c8.33 1.37 15.82 5.36 21.55 11.13h.04c.91.9 1.79 1.9 2.62 2.9l14.3-8.28c-1.93-5.82-2.02-11.89-.47-17.59 2.03-7.63 6.98-14.46 14.4-18.74l.24-.16c7.33-4.15 15.67-5.02 23.19-2.98 7.62 2.04 14.49 7.01 18.77 14.41v.02c4.25 7.36 5.12 15.81 3.09 23.42 -2.03 7.62-7 14.5-14.41 18.76l-1.96 1.15h-.2c-6.86 3.26-14.39 3.77-21.31 1.95 -5.69-1.51-10.9-4.68-14.98-9.18l-14.29 8.25c1.64 4.34 2.54 9.02 2.54 13.97 0 4.92-.91 9.67-2.55 14.03l14.28 8.22c4.08-4.58 9.29-7.68 14.97-9.19 7.62-2.09 16.07-1.2 23.45 3.1l.47.22v.02c7.13 4.32 11.92 10.99 13.92 18.53 2.03 7.56 1.16 16.01-3.1 23.39l-.26.51 -.04-.05c-4.28 7.11-11.03 11.93-18.47 13.97 -7.64 2.01-16.09 1.15-23.47-3.09v-.06c-7.42-4.29-12.37-11.14-14.41-18.75 -1.55-5.68-1.46-11.75.46-17.56l-14.31-8.26c-.83.99-1.72 1.95-2.63 2.86l-.05.04c-5.73 5.74-13.22 9.73-21.56 11.06v16.52c5.94 1.24 11.26 4.21 15.43 8.38l.02.04c5.58 5.56 9.04 13.3 9.04 21.82 0 8.48-3.47 16.19-9.05 21.78l-.03.08c-5.63 5.58-13.35 9.04-21.87 9.04 -8.48 0-16.22-3.47-21.83-9.05h-.03v-.09c-5.6-5.59-9.06-13.3-9.06-21.79 0-8.52 3.46-16.27 9.05-21.83v-.05h.02c4.16-4.17 9.49-7.15 15.41-8.39v-16.53c-8.34-1.33-15.82-5.33-21.53-11.07l-.07-.05C4.2 137.49-.27 127.63-.27 116.69c0-10.92 4.46-20.79 11.6-27.95h.06c5.71-5.77 13.18-9.76 21.52-11.14V61.14c-5.92-1.29-11.26-4.26-15.42-8.41h-.03v-.05c-5.6-5.62-9.06-13.31-9.06-21.83 0-8.48 3.46-16.24 9.05-21.83l.02-.03C23.08 3.38 30.82-.08 39.29-.08c8.51 0 16.23 3.45 21.86 9.06V9h.02c5.58 5.58 9.04 13.35 9.04 21.82 0 8.51-3.47 16.21-9.05 21.82l-.03.04c-4.17 4.14-9.49 7.11-15.44 8.4v16.45Zm80.35-10.98l-.13-.19c-1.98-3.33-5.13-5.55-8.61-6.5 -3.6-.96-7.47-.56-10.92 1.42h.02c-3.44 1.95-5.74 5.14-6.7 8.71 -.95 3.54-.54 7.46 1.44 10.88l.06.08c1.97 3.37 5.13 5.63 8.64 6.54 3.53 1 7.47.57 10.86-1.4l.18-.09c3.34-2 5.56-5.15 6.49-8.61 .94-3.58.56-7.48-1.4-10.89Z"/><path d="M189.85 71.7h15.96v48.72l23.01-25.46h19.13l-27.79 29.49 27.9 37.38h-18.28l-24-33.4v33.39h-15.97V71.67Zm76.65 56.99c0 8.29 5.96 20.35 20.34 20.35 8.89 0 14.75-4.64 17.78-10.72 1.58-2.95 2.32-6.11 2.56-9.39 .11-3.18-.49-6.48-1.84-9.41 -2.8-6.32-9.01-11.8-18.64-11.8 -12.91 0-20.23 10.46-20.23 20.82v.11Zm56.53 33.15h-15.97v-9.63c-4.25 7.78-13.15 11.68-22.54 11.68 -21.45 0-33.99-16.71-33.99-35.58 0-21.07 15.22-35.45 33.98-35.45 12.18 0 19.61 6.45 22.53 11.82v-9.76H323v66.88Zm18.07-54.58h-8.28V94.95h8.27v-3.77c0-19.88 15.11-21.08 26.57-21.21v12.28c-4.03 0-10.61 0-10.61 9.4v3.28h10.6v12.3h-10.61v54.57h-15.97v-54.58Zm37.42-35.58h15.95v48.72l23.02-25.46h19.13l-27.79 29.49 27.89 37.38h-18.28l-24-33.4v33.39h-15.96V71.65Zm76.65 56.99c0 8.29 5.96 20.35 20.34 20.35 8.88 0 14.73-4.64 17.77-10.72 1.59-2.95 2.32-6.11 2.57-9.39 .11-3.18-.49-6.48-1.85-9.41 -2.8-6.32-9.01-11.8-18.63-11.8 -12.92 0-20.23 10.46-20.23 20.82v.11Zm56.52 33.15h-15.97v-9.63c-4.27 7.78-13.16 11.68-22.54 11.68 -21.45 0-33.98-16.71-33.98-35.58 0-21.07 15.22-35.45 33.97-35.45 12.17 0 19.61 6.45 22.53 11.82V94.9h15.96v66.88Z"/></g></svg>