<svg viewBox="0 0 512 134" xmlns="http://www.w3.org/2000/svg"><path fill="#5E3580" fill-rule="evenodd" d="M15.43.3C6.9.3-.01 7.21-.01 15.73v102.14c0 8.52 6.91 15.43 15.43 15.43s15.43-6.92 15.43-15.44V15.71C30.85 7.18 23.93.27 15.41.27m51.11 47.32c-4.8-6.85-14.24-8.52-21.09-3.72 -6.85 4.79-8.52 14.23-3.72 21.08l43.32 61.86c4.79 6.84 14.23 8.51 21.08 3.71 6.84-4.8 8.51-14.24 3.71-21.09L66.49 47.56m19.74-6.57c11.25 0 20.38-9.13 20.38-20.39C106.61 9.34 97.48.21 86.22.21 74.96.2 65.83 9.33 65.83 20.59c0 11.25 9.12 20.38 20.38 20.38m78.77 65.5c-10.68-.001-19.36-8.69-19.36-19.36 0-10.68 8.68-19.36 19.35-19.36 10.67 0 19.35 8.68 19.35 19.35 0 10.67-8.69 19.35-19.36 19.35Zm0-65.47c25.46 0 46.11 20.64 46.11 46.11 0 .69-.03 1.38-.06 2.06v30.71c0 7.36-5.98 13.33-13.34 13.33 -4.45 0-8.38-2.19-10.81-5.54 -6.52 3.53-13.99 5.53-21.93 5.53 -25.47 0-46.12-20.65-46.12-46.12s20.64-46.12 46.11-46.12Zm75.63 0c8.48 0 15.35 6.87 15.35 15.35v61.51c0 8.48-6.88 15.35-15.36 15.35 -8.49 0-15.36-6.88-15.36-15.36V56.33c0-8.49 6.87-15.36 15.35-15.36Zm96.38 63.41c-20.79 0-37.71-16.92-37.71-37.71s16.91-37.71 37.7-37.71c20.78 0 37.7 16.91 37.7 37.7 0 20.78-16.92 37.7-37.71 37.7Zm0-104.22c-36.74 0-66.51 29.77-66.51 66.5 0 36.73 29.77 66.51 66.5 66.51 36.73 0 66.5-29.78 66.5-66.52 0-36.74-29.78-66.51-66.51-66.51Zm133.87 50.07h-18.13c-5.79 0-10.5-4.72-10.5-10.5 0-6.33 5.85-10.09 11.63-10.54 7.11-.57 26.62-.17 33.54.03 7.91.28 14.71-6.09 14.94-14.11 .23-8.03-6.09-14.72-14.11-14.95 -2.71-.09-26.71-.74-36.68.03 -21.91 1.72-38.43 18.7-38.43 39.51 0 21.81 17.74 39.56 39.55 39.56h18.12c6.48 0 11.96 5.6 11.96 12.23 0 7.6-6.57 11.51-13.08 12 -8.36.63-33.41.19-42.35-.04 -8.03-.2-14.7 6.14-14.9 14.16 -.21 8.02 6.13 14.69 14.16 14.89 2.19.05 15.44.37 27.68.37 6.91 0 13.51-.11 17.6-.42 23.13-1.76 39.93-19 39.93-40.99 0-22.78-18.41-41.3-41.04-41.3"/></svg>