<svg viewBox="0 0 512 111" xmlns="http://www.w3.org/2000/svg"><path fill="#F35757" d="M51.55 63.03l6.07 10.52 -15.16 26.3h78.89l6.03 10.46H24.14l27.38-47.3Z"/><path fill="#49C5B1" d="M51.6 20.94L78.86 68.3H66.71L51.55 42.04l-39.54 68.28H-.03l51.6-89.39Z"/><path fill="#00AFD7" d="M115.3 89.36H60.64l6.08-10.56h30.31L57.66 10.41 63.68-.02l51.6 89.36Z"/><path fill="#546A7E" d="M212.14 81.16l-25.72-31.72 23.87-23.69c1.03-1.04 1.53-2.14 1.53-3.38 0-2.51-2.16-4.71-4.61-4.71 -1.62 0-2.7.76-3.68 1.63l-37.84 38.78V22.45c0-2.65-2.16-4.8-4.8-4.8 -2.56 0-4.71 2.19-4.71 4.79V84.5c0 2.6 2.15 4.8 4.7 4.8 2.64 0 4.79-2.16 4.79-4.81V69.87l13.94-13.95 25.07 31.22c.99 1.41 2.28 2.13 3.85 2.13 2.6 0 4.8-2.2 4.8-4.81 0-1.56-.62-2.55-1.28-3.4v0Zm54.38-19.37c0-13.26-8.42-26.68-24.51-26.68 -14.19 0-25.3 12.01-25.3 27.36v.19c0 15.6 11.29 27.36 26.28 27.36 7.98 0 14.09-2.45 19.78-7.9 .95-.84 1.47-1.94 1.47-3.12 0-2.27-1.89-4.12-4.22-4.12 -1.27 0-2.16.61-2.76 1.11 -4.22 3.87-8.7 5.68-14.1 5.68 -8.95 0-15.66-6.2-16.96-15.53h35.88c2.42-.01 4.4-1.98 4.4-4.41v0Zm-24.71-18.55c9.91 0 14.36 7.89 15.3 15.616h-30.89c1.28-9.25 7.58-15.616 15.58-15.616v0Zm80.56 18.54c0-13.26-8.42-26.68-24.51-26.68 -14.19 0-25.3 12.01-25.3 27.36v.19c0 15.6 11.29 27.36 26.27 27.36 7.98 0 14.09-2.45 19.78-7.9 .95-.84 1.47-1.94 1.47-3.11 0-2.27-1.9-4.12-4.22-4.12 -1.27 0-2.16.61-2.76 1.11 -4.22 3.87-8.7 5.68-14.1 5.68 -8.95 0-15.66-6.2-16.97-15.53h35.87c2.43-.01 4.41-1.98 4.41-4.41v0Zm-24.71-18.55c9.9 0 14.36 7.89 15.29 15.616h-30.89c1.28-9.25 7.58-15.616 15.58-15.616v0Zm59.79-8.13c-6.93 0-12.5 2.69-16.58 8.02v-2.73c0-2.64-2.07-4.71-4.71-4.71 -2.54 0-4.61 2.11-4.61 4.7v44.23c0 2.63 2.06 4.7 4.7 4.7 2.62 0 4.6-2.03 4.6-4.71V58.78c0-8.89 5.92-15.1 14.4-15.1 8.27 0 13.22 5.42 13.22 14.5v26.4c0 2.63 2.06 4.7 4.7 4.7 2.58 0 4.6-2.07 4.6-4.71V56.29c0-12.92-8-21.26-20.38-21.26v0Zm66.1-17.44c-2.55 0-4.71 2.19-4.71 4.79v62.06c0 2.6 2.15 4.8 4.7 4.8 2.64 0 4.8-2.16 4.8-4.81V22.43c0-2.65-2.16-4.8-4.81-4.8v0Zm52.47-.69c-20.26 0-36.13 16.04-36.13 36.52v.19c0 20.71 15.44 36.33 35.93 36.33 20.26 0 36.13-16.05 36.13-36.53v-.2c0-20.72-15.45-36.33-35.94-36.33v0Zm26.13 36.52v.19c0 15.62-11.24 27.41-26.14 27.41 -15.01 0-26.33-11.88-26.33-27.62v-.2c0-15.63 11.23-27.42 26.12-27.42 14.76 0 26.33 12.12 26.33 27.6v0Z"/></svg>