<svg viewBox="0 0 512 149" xmlns="http://www.w3.org/2000/svg"><path fill="#2E3234" d="M14.83 119.89c1.45.05 2.92.26 4.29.76v-.02l.2.07 18.08-17.64 .66.88c.93 1.26 1.93 2.43 2.98 3.59l.38.44c.27.27.49.55.77.82l.44.44 .43.44 .38.38 .44.44 .38.38 .49.44 .44.38c8.38 7.13 18.96 11.17 29.97 11.44 9.06.22 18.01-2.1 25.82-6.7l1.38 1.43c1.6 1.71 3.26 3.42 4.87 5.14 -9.62 6.18-20.88 9.32-32.3 9.01 -12.9-.31-25.3-4.99-35.18-13.28l.05-.12 -11.61 11.43c1.8 5.97-.43 12.42-5.53 16.01 -5.11 3.58-11.94 3.5-16.95-.22s-7.08-10.24-5.12-16.16c1.95-5.93 7.49-9.93 13.73-9.93h.37l-.01 0v0Zm110.58-74.61c5.67 9.35 8.53 20.14 8.23 31.08 -.33 13.35-5.36 26.16-14.22 36.16l.05.05 7.13 7.57c2.87-.39 5.75.6 7.74 2.7 3.39 3.59 3.24 9.25-.34 12.66 -3.6 3.38-9.25 3.24-12.67-.34 -1.99-2.1-2.83-5.03-2.28-7.86 -4.17-4.46-8.36-8.91-12.55-13.33l-.73-.78 .82-.67c2.16-1.72 4.16-3.62 5.97-5.7 7.55-8.49 11.85-19.39 12.11-30.75 .23-8.58-1.83-17.06-5.98-24.56l6.63-6.31v0ZM24.63 11.47c2.53-.04 4.92.96 6.7 2.77 1.98 2.09 2.82 5.02 2.26 7.85L47.3 36.46l-.84.66c-2.16 1.71-4.15 3.59-5.98 5.69 -13.58 15.28-16.06 37.45-6.2 55.35l-6.59 6.41c-5.76-9.39-8.64-20.25-8.3-31.25 .28-13.32 5.47-26.18 14.18-36.2l-7.56-7.89c-2.87.39-5.75-.62-7.75-2.72 -3.4-3.6-3.25-9.26.33-12.67 1.4-1.32 3.19-2.16 5.1-2.4 .28-.03.57-.04.85-.06l-.01 0v0ZM140.03-.02c5.71 0 10.89 3.36 13.21 8.59 2.31 5.22 1.34 11.32-2.5 15.56s-9.81 5.82-15.24 4.04v.01l-.23-.08 -19.64 18.63 -.67-.89c-1.05-1.39-2.22-2.77-3.43-4.04l-.23-.29 -.61-.61 -1.11-1.11 -.39-.34 -.39-.33 -.5-.45 -.39-.34 -.51-.45c-8.35-7.04-18.85-11.02-29.76-11.29 -9.13-.23-18.04 2.04-25.77 6.69l-6.31-6.59c9.61-6.19 20.87-9.33 32.29-9.02 12.9.3 25.31 5 35.17 13.32h.11l12.99-12.35c-1.38-4.4-.58-9.19 2.14-12.9 2.72-3.72 7.05-5.91 11.66-5.9h-.01V-.17Z"/><g fill="#047AED"><path d="M77 32.29c1.63 0 3.26.13 4.88.32 23.33 2.93 39.87 24.22 36.99 47.56 -2.94 23.34-24.23 39.87-47.57 36.99 -23.34-2.94-39.88-24.23-37-47.57 2.78-21.66 20.97-37.25 42.67-37.33Zm.25 18.25l-.9.02c-9.45.75-16.29 7.9-16.53 17.4 .14 6.59 2.99 11.25 8.38 14.89l1.29.7L66.2 99h22.03l-3.29-15.47c6.05-3.12 9.51-8.84 9.68-15.6 -.13-9.8-7.71-17.18-17.42-17.43Z"/><path d="M294.4 54.2c1.18 0 1.61.96 1.71 2.14v0l1.93 36.93c.1 1.28.21 1.82.85 1.82v0h.85l15.35-38.88c.42-1.18 1.5-2.04 2.68-2.04v0h17.71c.96 0 1.93.74 1.93 1.6v0c-.02.26-.09.51-.21.75v0l-29.53 63.77c-5.27 11.48-11.39 18.14-28.25 18.14 -4.3 0-11.38-.86-14.18-1.94 -1.08-.43-2.04-.75-2.04-1.72v0 -.32l1.82-10.42c.21-1.19 1.5-2.26 2.78-2.26v0h.1c3.97.21 10.41.85 14.49.85 3 0 5.26-.97 6.55-4.08v0l1.5-3.55h-1.4c-5.05 0-7.84-1.94-8.49-7.41v0l-6.23-51.11v-.33c0-1.19.85-2.04 2.68-2.04v0Zm-52.09-.97c15.57 0 22.87 10.3 22.87 23.08 0 1.78-.17 3.56-.43 5.35l-.12.76 -1.08 6.44c-.19 1.28-1.24 2.25-2.51 2.35l-.18 0h-33.4c-.22 1.28-.33 2.36-.33 3.32 0 5.37 3.43 6.12 8.8 6.12l.39-.01c5.65-.02 15.75-.42 19.93-.83l.28-.03h.42c.91 0 1.53.37 1.6 1.23l0 .15v.42l-1.72 9.66c-.33 1.71-.86 2.46-2.69 3.01 -7.2 2.25-14.5 3.32-23.52 3.32 -11.92 0-23.74-7.41-23.74-22.66 -.01-1.61.1-3.21.32-4.8l.1-.68 1.18-7.09c3.54-21.26 15.78-29.21 33.71-29.21ZM175.4 33.68c1.28 0 2.14.53 1.82 2.14v0l-7.74 43.48 17.82-23.2c1.28-1.72 2.04-1.94 3.11-1.94v0h19.96c1.5 0 1.61 1.39.75 2.25v0l-24.49 27.8 13.74 30.06c.53 1.07 0 2.36-1.4 2.36v0h-19.33c-1.19 0-2.04-.65-2.69-2.37v0l-9.35-24.49 -4.3 24.48c-.22 1.18-1.4 2.36-2.58 2.36v0h-16.11c-1.19 0-2.26-.65-1.94-2.37v0l13.85-78.49c.21-1.19.75-2.15 2.68-2.15v0Zm63.9 35.53c-5.91 0-8.51 4.35-9.82 10.31l-.07.31h15.89c.32-1.51.53-3.01.53-4.3 0-3.76-1.72-6.34-6.56-6.34Z"/></g><path fill="#2E3234" d="M385.16 56.67c0-1.08-.65-1.4-1.83-1.72 -2.9-.75-8.06-1.72-14.39-1.72 -16.54 0-27.17 8.26-30.6 28.24l-1.4 8.05c-.33 2.02-.51 4.07-.54 6.12 0 12.55 7.3 22 21.15 22 6.33 0 11.27-.86 15.03-1.72 1.5-.33 2.36-.86 2.57-2.26l2.14-12.03v-.43c0-.98-.76-1.62-1.72-1.62h-.22c-3.77.21-7.2.64-12.46.64 -3.66 0-5.81-1.29-5.81-6.13 0-1.29.1-2.79.42-4.62l1.39-8.06c1.5-8.92 4.61-10.85 9.23-10.85 5.26 0 8.48.53 12.13.75h.21c1.18 0 2.25-.86 2.46-2.04l2.15-12.14v-.54 0Zm67.01-21.15c0-1.08-.97-1.84-2.04-1.84h-16c-1.19 0-2.26.97-2.47 2.15l-3.23 18.14c-2.15-.33-5.81-.76-7.52-.76 -19.55 0-29.32 8.16-32.86 28.02l-1.51 8.37c-.33 1.8-.51 3.63-.54 5.47 0 13.2 9.12 22.54 23.83 22.54 9.66 0 18.78-1.51 24.58-2.69 3.43-.76 3.97-1.4 4.29-3.44l13.42-75.71 -.01-.32v0Zm-26.74 35.21l-5.16 29.41c-2.05.32-4.3.53-7.41.53 -4.62 0-6.23-2.69-6.23-6.88 0-1.29.1-2.69.42-4.19l1.5-8.38c1.07-6.23 3.64-10.96 9.66-10.96 2.57 0 5.04.21 7.19.42v0Zm86.55.74c0-12.03-4.95-18.26-16.86-18.26 -3.98 0-9.88.97-17.4 5.9l.53-2.8c.32-1.61-.43-2.15-1.84-2.15H461.7c-1.19 0-2.26.96-2.47 2.14l-10.31 57.98c-.22 1.5.96 2.36 2.46 2.36h15.35c1.61 0 2.68-1.08 2.9-2.37l7.3-41.56c1.93-1.08 5.9-2.37 9.12-2.37 3.65 0 5.04.85 5.04 4.19 0 1.82-.43 3.64-.76 5.47l-6.02 34.25c-.22 1.07 0 2.36 1.82 2.36h16.1c1.28 0 2.46-1.19 2.68-2.37l5.9-33.51c.53-3.01 1.07-6.56 1.07-9.35v-.01 0Z"/></svg>