<svg viewBox="0 0 512 124" xmlns="http://www.w3.org/2000/svg"><path fill="#E42E16" fill-rule="evenodd" d="M299.66 6.01c1.56-2.77 3.95-5.12 7.07-6 1.4-.03 2.81-.03 4.23-.02 1.91.88 3.59 2.27 4.63 4.12 .82 1.85.37 3.8-.05 5.69 -.55 1.14-.96 2.34-1.36 3.53 -.34.72-.64 1.45-.9 2.2 -.33.72-.62 1.45-.89 2.2 -.32.72-.62 1.45-.89 2.2 -.32.72-.62 1.46-.89 2.2 -.32.72-.61 1.45-.89 2.2 -.32.72-.61 1.45-.89 2.2 -.32.72-.61 1.45-.88 2.2 -.32.72-.62 1.45-.89 2.2 -.32.72-.62 1.45-.89 2.2 -.32.72-.62 1.45-.89 2.2 -.32.72-.62 1.45-.89 2.2 -.32.72-.62 1.45-.89 2.2 -.32.72-.62 1.46-.89 2.2 -.32.72-.62 1.46-.89 2.2 -.32.72-.62 1.45-.88 2.19 -.32.72-.62 1.45-.89 2.2 -.32.72-.62 1.46-.88 2.2 -.33.72-.63 1.46-.9 2.2 -.18.45-.34.92-.48 1.38 5.55-4.17 11-8.49 16.72-12.43 .58-.32 1.17-.63 1.76-.94 1.94-.8 4.06-.66 6.11-.52 1.45.83 2.83 1.82 3.68 3.3 1.07 2.7.59 5.88-1.18 8.18 -1.12 1.39-2.47 2.56-3.8 3.72 -.62.41-1.22.85-1.8 1.32 -3.04 2.08-5.94 4.35-8.87 6.56 .49.73.98 1.47 1.47 2.2 .29.45.58.9.88 1.35 .66 1.21 1.42 2.36 2.2 3.51 .93 1.67 2.02 3.25 3.09 4.85 .4.73.83 1.46 1.28 2.17 .3.44.6.89.92 1.33 .85 1.58 1.76 3.16 2.26 4.91 .32 1.28-.23 2.55-.47 3.8 -1.33 2.1-3.08 4.03-5.42 5.02 -1.61.52-3.23.59-4.82-.02 -.98-.69-2.01-1.37-2.64-2.41 -2.23-3.36-4.45-6.72-6.68-10.07 -.3-.45-.59-.89-.89-1.33 -.3-.45-.59-.89-.89-1.33 -.3-.45-.59-.89-.89-1.33 -.3-.45-.6-.9-.89-1.33 -1.88-3.24-4.16-6.21-6.06-9.42 .03.14.11.42.14.56 -.4.71-.74 1.46-1.03 2.22 -.31.73-.6 1.46-.86 2.2 -.33.72-.63 1.45-.89 2.2 -.32.72-.62 1.45-.88 2.2 -.33.72-.62 1.45-.88 2.2 -1.58 3.7-2.83 7.55-4.84 11.06 -1.66 1.83-3.33 3.9-5.84 4.53 -1.12.14-2.21.74-3.35.43 -.9-.23-1.81-.38-2.72-.52 -1.33-1.15-2.91-2.25-3.43-4.02 -1.11-2.48.37-5.06 1.06-7.44 .32-.73.62-1.46.9-2.21 .3-.74.6-1.47.87-2.21 .3-.73.61-1.47.88-2.21 .3-.73.6-1.47.88-2.21 .3-.74.6-1.47.88-2.21 .31-.73.6-1.46.87-2.2 .31-.73.6-1.47.88-2.21 .3-.74.6-1.47.88-2.21 .31-.73.6-1.46.88-2.21 .31-.73.6-1.46.88-2.21 .31-.73.6-1.46.88-2.2 .31-.73.6-1.47.88-2.21 .3-.73.6-1.46.88-2.21 .31-.73.6-1.46.88-2.21 .31-.73.6-1.46.88-2.21 .31-.73.6-1.46.88-2.21 .31-.73.6-1.47.87-2.21 .31-.73.61-1.47.88-2.21 .31-.73.6-1.47.88-2.21 .31-.73.61-1.46.88-2.21 .31-.73.6-1.46.88-2.21 .31-.73.6-1.46.88-2.21 .31-.73.6-1.46.88-2.21 .31-.73.6-1.46.87-2.21 .6-1.46 1.2-2.93 1.76-4.41 .31-.73.61-1.46.88-2.21 .31-.73.6-1.46.88-2.21 .31-.73.6-1.46.87-2.21 .31-.73.61-1.46.88-2.21 .31-.73.61-1.46.88-2.21 .31-.73.61-1.46.87-2.21 .66-1.6 1.31-3.21 1.91-4.83ZM26.7 11.09c5.07-1.75 10.5-1.63 15.78-1.37 .86.17 1.71.39 2.59.47 2.91.88 5.75 2.01 8.39 3.56 3.31 2.42 6.29 5.36 8.32 8.96 .49 1.31 1.02 2.61 1.52 3.93 .71 3.02.62 6.13.53 9.22 -.3 3.43-1.33 6.74-2.32 10.03 -.53 1.14-.96 2.33-1.34 3.53 -.7 1.37-1.18 2.85-1.95 4.19 1.36-1.79 3.08-3.26 4.58-4.92 2.45-2.96 5.31-5.53 7.91-8.36 3.05-3.69 6.74-6.79 9.78-10.5 5.5-5.39 10.43-11.31 16.09-16.54 .91-.59 1.81-1.18 2.71-1.79 2.25-1.28 4.85-1.23 7.36-1.01 1.96.97 3.9 2.4 4.69 4.53 .73 1.65.4 3.5.4 5.26 -.66 1.18-1.24 2.4-1.89 3.59 -.32.44-.62.89-.92 1.35 -1.84 1.84-3.37 3.96-5.27 5.74 -2.17 2.24-4.46 4.39-6.44 6.8 -2.99 3.17-6.22 6.12-9.01 9.46 -2.24 2.31-4.53 4.57-6.74 6.91 -2.37 2.85-5.12 5.35-7.67 8.05 .27.59.54 1.18.82 1.78 .51 1.64 1.04 3.28 1.74 4.85 .55 1.62 1.05 3.27 1.76 4.84 .55 1.62 1.05 3.27 1.76 4.84 .55 1.62 1.05 3.27 1.76 4.83 .55 1.62 1.05 3.27 1.76 4.84 .54 1.62 1.06 3.26 1.75 4.83 .39 1.2.79 2.41 1.36 3.56 .04.2.14.6.18.8 .51 1.32.93 2.68 1.49 4 .24.59.51 1.17.8 1.75 1.41 2.17 4.1 3.21 6.62 3.25 130.15-.01 260.31 0 390.47-.01 1.17-.02 2.29.43 3.46.52 .92.46 1.84.92 2.77 1.37 .74.83 1.32 1.79 1.87 2.77 .06 1.7.07 3.41-.03 5.11 -.2.46-.39.92-.55 1.39 -1.08 1.89-2.68 3.41-4.53 4.54 -1.87.56-3.71 1.37-5.67 1.43 -131.49 0-262.98 0-394.47 0 -1.6.04-3.11-.57-4.71-.51 -1.63-.62-3.38-1.03-4.83-2.04 -1.88-1.11-2.95-3.07-4.19-4.77 -.53-1.06-1.07-2.1-1.58-3.16 -.35-.89-.7-1.77-1.11-2.63 -.05-.2-.14-.6-.19-.8 -.96-2.52-1.83-5.07-2.85-7.56 -.56-1.64-1.05-3.3-1.81-4.86 -.05-.2-.15-.6-.2-.8 -.52-1.34-.93-2.72-1.53-4.02 -.4-1.2-.81-2.4-1.33-3.54 -.56-1.63-1.06-3.28-1.77-4.84 -.56-1.63-1.07-3.27-1.76-4.84 -.4-1.21-.81-2.42-1.37-3.56 -.05-.2-.15-.6-.2-.8 -.52-1.34-.93-2.72-1.53-4.02 -.4-1.2-.81-2.4-1.33-3.54 -.63-1.92-1.3-3.82-2.09-5.67 -.1.56-.21 1.13-.32 1.7 -.37.71-.7 1.45-.97 2.21 -.31.72-.61 1.45-.88 2.2 -.32.72-.62 1.45-.89 2.19 -.32.72-.61 1.46-.89 2.2 -.32.72-.61 1.45-.89 2.2 -.32.72-.61 1.46-.88 2.2 -.82 1.72-1.52 3.49-2.19 5.28 -.33.72-.62 1.45-.89 2.2 -.32.72-.62 1.45-.89 2.2 -.32.72-.62 1.45-.89 2.2 -.32.72-.62 1.45-.89 2.19 -.32.72-.62 1.45-.89 2.19 -.32.73-.62 1.46-.89 2.2 -.38.85-.71 1.72-1.06 2.58 -.29.59-.58 1.18-.86 1.78 -1.4 2.25-2.97 4.45-5.25 5.88 -.23.11-.66.36-.87.48 -1.72.45-3.44 1.22-5.25.93 -.75-.16-1.48-.37-2.24-.49 -1.32-.75-2.56-1.63-3.59-2.74 -.33-.64-.66-1.27-1.01-1.89 -.42-2.99.18-5.97 1.43-8.68 .31-.73.61-1.46.88-2.2 .31-.73.61-1.46.88-2.21 .31-.73.61-1.46.88-2.21 .31-.73.61-1.46.88-2.2 .31-.73.61-1.46.88-2.2 .31-.74.61-1.47.88-2.21 .3-.74.6-1.47.88-2.21 .31-.73.6-1.47.88-2.21 .3-.73.6-1.47.87-2.21 1.13-2.45 2.08-4.98 3.06-7.49 .31-.73.62-1.46.88-2.21 .31-.73.61-1.46.88-2.21 .31-.73.61-1.46.88-2.2 .31-.73.61-1.46.88-2.21 .31-.73.61-1.46.88-2.21 .31-.73.61-1.46.88-2.21 .3-.73.6-1.46.88-2.2 .31-.73.6-1.47.88-2.21 1.28-3.03 2.4-6.13 3.24-9.32 .62-2.32.97-4.88.08-7.17 -1.38-2.39-3.69-4.17-6.39-4.8 -2.82-.4-5.77-.19-8.4.99 -.6.27-1.19.55-1.76.88 -4.55 2.85-8.44 7.29-9.58 12.66 -.41 1.26-.24 2.61-.45 3.91 .11 1.76.22 3.54 1.12 5.12 1.24 2.08 3.09 3.78 5.29 4.82 .91.39 1.82.8 2.78 1.08 1.34.7 2.57 1.6 3.62 2.71 .1.23.29.71.39.95 .18.46.37.92.57 1.39 .63 4.17-2.22 8.08-5.93 9.71 -3.39.98-7.1.8-10.49-.04 -.73-.35-1.46-.65-2.21-.93 -.74-.48-1.5-.91-2.26-1.33 -3.47-2.35-5.97-5.76-8.07-9.32 -.43-1.06-.82-2.13-1.31-3.15 -1.17-4.08-1.7-8.3-1.4-12.54 .58-3.3 1.03-6.66 2.27-9.81 .47-1.03.88-2.08 1.3-3.12 .62-1.02 1.24-2.04 1.81-3.08 .59-.88 1.18-1.76 1.76-2.65 2.9-3.72 6.29-7.07 10.19-9.75 .44-.3.9-.61 1.34-.92 1.72-.95 3.49-1.82 5.26-2.67 .88-.28 1.76-.58 2.64-.9Zm448.13 11.99c2.21-.88 4.61-.8 6.95-.64 1.41.67 2.63 1.67 3.67 2.83 .1.23.3.7.4.94 .18.47.37.94.58 1.41 .12 1.42-.18 2.81-.54 4.18 -.33.88-.63 1.77-.91 2.67 -.73 1.42-1.43 2.86-1.97 4.36 -.26.43-.5.86-.75 1.29 1.83.32 3.7.22 5.55.35 .46.19.93.37 1.42.54 1.2.77 2.53 1.63 2.91 3.12 .82 1.84.32 3.9-.12 5.78 -1.1 2.51-3.49 3.93-5.9 4.96 -3.21.78-6.51.47-9.78.52 -.04.25-.13.75-.17 1 -.37.72-.7 1.47-.98 2.24 -.32.72-.61 1.46-.88 2.2 -.32.72-.62 1.46-.89 2.2 -.32.72-.62 1.46-.89 2.2 -.32.72-.62 1.46-.89 2.2 -.32.72-.62 1.46-.89 2.2 -.32.72-.62 1.45-.88 2.19 -.33.72-.62 1.45-.89 2.19 -.33.75-.63 1.52-.87 2.31 -.15.14-.45.44-.59.58 3.83.16 7.71-.35 11.48.54 .89.45 1.8.9 2.7 1.36 .49.77.99 1.54 1.5 2.32 -.01 1.76.32 3.64-.41 5.31 -.36.94-.97 1.76-1.51 2.6 -1.16.84-2.32 1.69-3.61 2.31 -3.72.99-7.6.49-11.4.61 -3.83-.15-7.74.4-11.48-.62 -2.32-1.01-4.35-2.65-5.44-4.97 -.23-1.85-.95-3.73-.22-5.56 .36-2.07 1.24-3.95 2.05-5.86 .3-.73.6-1.46.87-2.21 .31-.73.61-1.46.88-2.21 .3-.73.6-1.46.87-2.21 .31-.73.6-1.46.88-2.21 .31-.73.6-1.46.87-2.21 1.21-2.86 2.23-5.81 3.54-8.63 -2.95.18-6.52-.44-7.99-3.33 -.21-1.15-.72-2.27-.51-3.45 .17-.91.39-1.8.48-2.71 1.08-2.34 3.1-3.98 5.44-4.98 2.54-.79 5.21-.56 7.83-.68 1.47-.59 1.46-2.7 2.19-3.98 .31-.73.6-1.46.88-2.21 .31-.73.61-1.46.88-2.21 .31-.73.61-1.47.86-2.22 .43-.89.87-1.78 1.31-2.66 1.24-1.46 2.59-2.82 4.1-3.99Zm-340.3 16.55c2.13-.22 4.29-.08 6.44-.01 1.85.65 3.71 1.3 5.42 2.29 1.76 1.56 3.43 3.27 4.54 5.38 .51 2.02 1.16 4.07.95 6.18 -.3 2.39-1.1 4.69-1.89 6.96 -2.4 5.44-4.53 11.01-6.69 16.55 3.95.11 7.96-.35 11.85.51 1.43.62 2.66 1.58 3.68 2.77 .91 2.26.52 4.72-.11 7 -1.15 1.43-2.46 2.73-4.04 3.68 -.93.27-1.84.58-2.72.96 -6.98.2-13.96.19-20.94 0 -1.48-.79-3.06-1.45-4.3-2.59 -.91-.99-1.5-2.21-2.13-3.36 -.07-.97-.17-1.93-.42-2.86 .28-.92.36-1.88.41-2.83 .06-.11.2-.31.27-.41 .2-.74.44-1.47.66-2.21 .65-1.45 1.22-2.93 1.79-4.41 .31-.73.61-1.46.88-2.21 .31-.73.61-1.46.88-2.21 .31-.73.61-1.46.88-2.2 .31-.74.6-1.47.88-2.21 .31-.73.6-1.46.88-2.2 .92-1.82 1.38-3.81 1.17-5.85 -.7-.74-1.51-1.36-2.38-1.88 -.62-.05-1.22-.1-1.82-.17 -3.63-.31-6.42 2.41-8.36 5.15 -.52.83-.99 1.69-1.45 2.56 -3.46 7.83-6.43 15.86-9.66 23.79 -.57.89-1.12 1.8-1.61 2.73 -1.48 1.74-3.22 3.27-5.38 4.09 -.79.09-1.57.24-2.33.43 -1.15.31-2.25-.3-3.37-.43 -1.43-.61-2.62-1.6-3.62-2.77 -.14-.25-.42-.73-.56-.97 -.34-2.52-.05-5.05.99-7.37 .32-.73.62-1.46.9-2.21 .31-.73.6-1.46.87-2.21 .31-.73.6-1.46.88-2.21 .31-.73.6-1.46.88-2.21 .31-.73.6-1.46.87-2.21 .31-.73.61-1.46.88-2.21 .31-.73.61-1.46.87-2.21 2.65-6.61 5.33-13.21 7.91-19.84 .29-.59.58-1.18.87-1.76 1.18-1.92 2.98-3.26 5-4.2 2.31-.1 4.74-.41 6.95.5 1.44.88 2.57 2.13 3.45 3.57 .62-.45 1.25-.88 1.87-1.31 1.21-.67 2.36-1.42 3.57-2.08 1.7-.62 3.42-1.24 5.22-1.57Zm50.68.49c3.44-.78 6.99-.65 10.49-.53 1.94.22 3.82.79 5.68 1.41 1.88.84 3.61 1.98 5.32 3.14 1.05 1.02 2.09 2.06 3.12 3.12 .57.91 1.17 1.8 1.78 2.68 .45.88.89 1.77 1.35 2.65 .58 1.87 1.03 3.79 1.37 5.71 .11 1.74.03 3.49.05 5.25 .11 2.22-.76 4.32-.99 6.51 -.48 1.32-.93 2.65-1.35 4 -2.19 5-5.17 9.71-9.34 13.29 -2.45 1.76-5.1 3.23-8.01 4.05 -5.08.89-10.26.56-15.39.51 -3.53-.37-7.22-1-10.09-3.24 -2.69-2.33-4.85-5.21-6.26-8.47 -.15-.46-.3-.91-.46-1.35 -1.6-5.88-1.28-12.11.44-17.92 .33-.74.63-1.49.89-2.25 .56-1.2 1.15-2.37 1.76-3.54 2.53-4.16 5.92-7.7 9.78-10.63 .45-.31.9-.61 1.35-.92 1.43-.79 2.9-1.52 4.37-2.24 1.34-.43 2.68-.87 4.01-1.34Zm49.3 1.97c2.78-1.16 5.63-2.32 8.66-2.52 3.55-.1 7.2-.33 10.58.97 2.68 1.15 5.17 2.76 7.13 4.94 3.2 4.22 4.06 9.87 2.69 14.93 -.34.71-.65 1.44-.93 2.19 -.32.46-.62.93-.91 1.4 -.6.61-1.2 1.21-1.8 1.82 -.61.3-1.22.62-1.81.94 -2.9 1.13-6.52.6-8.53-1.9 -.93-1.92-.37-4.09-.72-6.11 -.15-.79-.22-1.59-.25-2.4 -.57-1.07-1.43-2.13-2.69-2.28 -1.69-.04-3.51-.28-4.98.73 -2.1.99-3.52 2.85-4.81 4.71 -.37.56-.71 1.13-1.05 1.7 -.73 1.54-1.39 3.15-1.48 4.87 -.7 2.73-.24 5.84 1.48 8.11 1.84 1.92 4.67 2.26 7.17 2.69 5.72.09 11.46-.01 17.19.04 1.47.15 2.91.57 4.35.95 .79.58 1.57 1.17 2.31 1.84 .11.24.36.74.47.99 .11.87.32 1.72.48 2.59 -.24 1.3-.52 2.61-.93 3.88 -.51.59-.99 1.21-1.44 1.85 -.63.44-1.23.9-1.82 1.38 -.22.11-.66.35-.87.47 -1.61.54-3.22 1.17-4.95 1.04 -8.28-.01-16.56.17-24.83-.12 -.6-.23-1.22-.38-1.83-.53 -.87-.39-1.76-.73-2.65-1.05 -1.24-.79-2.44-1.62-3.58-2.54 -1.27-1.01-2.09-2.42-3.18-3.58 -.79-1.45-1.52-2.93-2.24-4.42 -2.36-7-1.7-14.68.89-21.5 .58-1.19 1.16-2.37 1.79-3.53 .47-.72.91-1.46 1.33-2.2 2.5-3.39 5.5-6.42 8.9-8.91 .91-.51 1.8-1.06 2.68-1.61Zm119.22-2.47c4.56-.25 9.28-.39 13.6 1.37 4.4 1.93 8.11 5.26 10.51 9.42 .18.43.38.85.58 1.28 .26.75.57 1.5.92 2.23 1.79 6.16 1.12 12.76-.89 18.79 -.35.72-.65 1.47-.9 2.23 -.7 1.48-1.44 2.95-2.21 4.4 -2.39 3.89-5.45 7.39-9.35 9.8 -.89.44-1.77.88-2.65 1.33 -.92.27-1.83.58-2.72.92 -5.05.89-10.21.55-15.32.52 -1.47.07-2.84-.54-4.3-.52 -1.44-.54-2.95-.89-4.26-1.7 -2.47-1.48-4.36-3.71-6.07-5.98 -.62-1.17-1.21-2.35-1.8-3.52 -1.82-5.18-1.79-10.79-.89-16.14 .19-.61.33-1.22.47-1.84 .3-.89.59-1.77.86-2.66 .84-1.78 1.71-3.55 2.66-5.28 .3-.45.61-.9.92-1.34 .45-.59.9-1.19 1.32-1.81 2.21-2.37 4.43-4.77 7.09-6.64 .44-.3.89-.61 1.34-.92 3.39-1.97 7.1-3.41 10.98-4.05Zm47.12.47c2.71-.88 6.14-1.17 8.39.91 1.06.84 1.72 2.05 2.33 3.23 .1 1.88.04 3.78-.55 5.59 -.66 1.44-1.25 2.92-1.8 4.41 -.33.72-.63 1.45-.89 2.2 -.32.72-.62 1.45-.88 2.2 -.62 1.45-1.22 2.92-1.77 4.4 -.33.72-.63 1.45-.89 2.2 -.33.72-.62 1.46-.87 2.21 -.22.46-.43.93-.63 1.4 -.14.41-.27.82-.41 1.23 -.15.44-.29.88-.44 1.31 -.17.43-.34.87-.51 1.3 -.39 1.13-.49 2.35.17 3.42 1.06.99 2.55.83 3.9.83 2.02.11 3.98-.65 5.77-1.54 2.02-1.36 3.61-3.32 4.29-5.68 .3-.74.59-1.47.87-2.21 .3-.73.6-1.46.88-2.21 .3-.73.6-1.47.88-2.21 .3-.73.6-1.47.88-2.21 .3-.73.6-1.47.88-2.21 .3-.74.6-1.47.88-2.21 .3-.73.6-1.46.87-2.2 .3-.73.61-1.47.88-2.21 .3-.74.6-1.48.86-2.23 .68-1.5 1.4-2.98 2.2-4.42 .3-.46.6-.92.9-1.38 1.35-1.59 3.09-2.78 4.95-3.7 1.72-.13 3.45-.15 5.18-.01 1.41.68 2.62 1.67 3.67 2.83 .1.23.3.7.4.94 .17.46.37.93.58 1.39 .25 2.86-1.06 5.51-1.89 8.18 -.34.72-.64 1.45-.91 2.2 -.32.72-.61 1.46-.88 2.2 -.32.72-.62 1.45-.89 2.2 -.32.72-.62 1.45-.89 2.19 -.32.72-.61 1.46-.89 2.2 -.32.72-.62 1.46-.87 2.2 -1.47 3.26-2.77 6.6-4.03 9.95 4.41.1 8.92-.44 13.2.95 .81.79 1.78 1.52 2.22 2.61 .25.83.32 1.71.55 2.55 -.32 1.38-.44 2.81-.9 4.16 -.84 1.3-1.9 2.42-3.23 3.22 -.61.29-1.22.59-1.81.91 -2.85.85-5.84.57-8.77.62 -3.95-.04-7.89.08-11.83-.12 -1.66-.75-3.03-1.94-4.2-3.3 -.03-.19-.09-.58-.12-.77 -.91.9-1.85 1.77-2.8 2.62 -.61.28-1.21.57-1.8.86 -.48.16-.94.34-1.39.54 -5.5.21-11.01.19-16.51-.01 -.48-.19-.94-.37-1.41-.52 -1.78-.81-3.56-1.72-4.94-3.13 -1.43-1.38-2.31-3.18-3.15-4.94 -.64-2.14-.63-4.37-.5-6.58 .42-2.09 1.15-4.1 1.84-6.11 .33-.73.62-1.46.9-2.21 .31-.73.6-1.46.87-2.21 .31-.73.61-1.46.88-2.21 .3-.73.6-1.46.88-2.21 .31-.73.6-1.46.88-2.21 .31-.73.6-1.46.88-2.21 .31-.73.6-1.46.88-2.21 .31-.73.6-1.46.88-2.21 .3-.73.6-1.46.88-2.2 .3-.74.6-1.48.85-2.23 .56-1.19 1.15-2.37 1.75-3.54 1.28-2 2.98-3.71 4.98-4.99ZM185.06 56.07c1.57-1.1 3.41-1.74 5.3-1.96 1.06-.03 2.07.39 3.12.49 1.76.85 3.18 2.31 4.08 4.04 1.32 4.61.34 9.76-2.38 13.7 -1.06 1.65-2.52 3.05-4.29 3.93 -2.99 1.24-6.42 1.2-9.42.02 -1.19-.86-2.45-1.81-2.95-3.24 -1.15-3.47-.45-7.28 1.12-10.5 1.26-2.54 3.03-4.86 5.37-6.51v0Zm167.62-1.04c1.81-.58 3.78-1.34 5.68-.63 2.37.34 4.12 2.28 5.17 4.31 1.05 3.61.57 7.54-.93 10.96 -.34.61-.68 1.21-1.04 1.8 -.3.43-.59.87-.87 1.31 -.87 1.31-2.01 2.42-3.38 3.21 -1.56.86-3.32.98-5.05 1.22 -2.68-.2-5.92-.65-7.34-3.26 -2-3.59-1-7.97.66-11.48 1.56-3.1 3.88-5.94 7.04-7.5Zm144.5 21.16c2.2-1.4 4.78-1.66 7.34-1.41 .47.18.96.36 1.47.52 2.04 1.01 3.75 2.59 4.94 4.54 1.1 2.48 1.34 5.26.45 7.85 -.32.59-.63 1.2-.92 1.81 -1 1.12-2.08 2.17-3.18 3.19 -2.69 1.38-5.96 1.41-8.79.45 -.23-.13-.67-.38-.89-.5 -2.39-1.49-4.05-3.96-4.62-6.7 -.08-1.27-.03-2.55 0-3.82 .18-.48.36-.95.55-1.43 .28-.61.57-1.21.86-1.81 .89-.94 1.8-1.85 2.73-2.75Z"/></svg>