<svg viewBox="0 0 512 228" xmlns="http://www.w3.org/2000/svg" xmlns:xlink="http://www.w3.org/1999/xlink"><defs><linearGradient id="a" x1="88.235%" x2="16.289%" y1="153.238%" y2="-50.279%"><stop offset="0%" stop-color="#FFF"/><stop offset="13.71%" stop-color="#FFF" stop-opacity=".862"/><stop offset="100%" stop-color="#FFF" stop-opacity="0"/></linearGradient><linearGradient id="b" x1="69.628%" x2="44.772%" y1="118.972%" y2="24.262%" xlink:href="#a"/><linearGradient id="c" x1="98.409%" x2="-30.582%" y1="199.021%" y2="-165.518%" xlink:href="#a"/></defs><g fill="#414042"><path d="M199.44 159.25c-3.14-5.36-9.88-7.25-15.33-4.42l-15.82-17.84c2.5-7.29 3.87-15.1 3.87-23.25 0-7.99-1.33-15.67-3.75-22.85l13.39-15.87c3.24 1.35 7.02 1.25 10.27-.66 5.52-3.21 7.38-10.32 4.16-15.84 -3.24-5.53-10.34-7.41-15.88-4.17 -3.25 1.88-5.2 5.15-5.62 8.64l-20.09 3.84c-10.39-11.98-24.65-20.47-40.88-23.53l-7.63-22.15c5.04-3.38 6.69-10.15 3.58-15.48 -3.24-5.5-10.35-7.39-15.86-4.15 -5.53 3.2-7.4 10.34-4.17 15.86 .83 1.44 1.95 2.63 3.23 3.52l-7.65 22.76c-15.73 3.37-29.51 11.91-39.53 23.73l-22.49-4.21c-.11-1.75-.58-3.49-1.51-5.1 -3.23-5.53-10.35-7.39-15.86-4.17C.34 57.13-1.52 64.25 1.7 69.77c2.95 5.05 9.15 7 14.39 4.81l15.77 18.06c-2.04 6.64-3.14 13.69-3.14 20.99 0 8.17 1.36 16 3.89 23.31l-16.2 18.95c-3.35-1.6-7.39-1.55-10.81.44 -5.55 3.24-7.39 10.34-4.17 15.88 3.22 5.49 10.34 7.38 15.86 4.16 3.42-2.02 5.43-5.53 5.71-9.22l24.78-4.87c9.82 10.59 22.79 18.21 37.44 21.38l8.08 22.99c-4.53 3.52-5.91 9.89-2.93 14.96 3.22 5.52 10.34 7.38 15.87 4.16 5.5-3.23 7.37-10.35 4.15-15.89 -.84-1.41-1.94-2.6-3.19-3.51l7.71-22.64c14.95-3.1 28.21-10.86 38.18-21.7l24.74 4.77c.22 1.35.63 2.69 1.39 3.94 3.21 5.52 10.31 7.38 15.86 4.16 5.51-3.23 7.37-10.37 4.15-15.87Zm-98.94 7.19c-29.11 0-52.7-23.59-52.7-52.7 0-29.11 23.58-52.7 52.69-52.7 29.09 0 52.69 23.58 52.69 52.69 0 29.1-23.6 52.69-52.7 52.69Z"/><path d="M90.65 117.83c-.59-1.98-.81-3.68-.71-5.11 .11-1.61.63-3.28 1.53-4.96 .92-1.68 1.97-3.04 3.15-4.06l29.46-25.27c-8.99-5.99-20.22-8.61-31.66-6.42 -23.05 4.45-38.12 26.72-33.68 49.76 0 0 .29 2.03 1.33 5.13 .06.18.12.38.2.57 .11.33.24.69.37 1.06 .46 1.18.93 2.35 1.46 3.5l.04-.03c2.99 6.24 8.49 14.01 18.39 19.23 .15.06.31.14.47.23 .48.25.97.48 1.46.72 .33.14.67.29.99.44 .14.06.29.12.44.21v-.03c7.5 3.18 15.98 4.23 24.57 2.59 4.08-.79 7.93-2.17 11.47-3.98l-25.7-27.67c-1.9-1.98-3.14-4.02-3.7-6.01Z"/></g><path fill="#27AAE1" d="M134.63 88.45l-25.01 20.57c-.93.74-1.79 1.46-2.6 2.25 -.64.59-.99 1.42-1.07 2.48 -.09 1.42.21 2.6.97 3.58 .88 1.12 1.8 2.2 2.73 3.2l21.74 22.33c9-9.6 13.46-23.25 10.78-37.16 -1.25-6.48-3.9-12.34-7.59-17.29Z"/><path fill="url(#a)" d="M94.26 123.86c-1.9-2-3.14-4.02-3.7-6.03 -.59-1.96-.81-3.66-.71-5.1 .11-1.6.63-3.3 1.53-4.95 .92-1.7 1.97-3.06 3.15-4.06l29.46-25.27c-8.99-5.99-20.22-8.63-31.66-6.42 -23.05 4.43-38.12 26.73-33.68 49.76 0 0 .29 2.03 1.33 5.13 .06.16.12.38.2.57 .11.33.24.7.37 1.04 .46 1.21.93 2.37 1.46 3.52l.04-.05c.4.85.97 1.76 1.48 2.65 12.12-1.32 23.8-3.45 34.79-6.4l-4.15-4.46Z"/><path fill="url(#b)" d="M168.33 90.91l13.39-15.84c4.7-6.5 7.81-13.49 9.74-20.73 -3.43-1.81-7.59-2.06-11.18.04 -3.25 1.91-5.2 5.17-5.62 8.66l-20.09 3.84c-10.39-12-24.65-20.49-40.88-23.55l-7.63-22.13c5.04-3.38 6.69-10.15 3.58-15.48C106.4.19 99.28-1.67 93.77 1.55c-5.53 3.22-7.4 10.34-4.17 15.86 .83 1.44 1.95 2.63 3.23 3.54l-7.65 22.73c-15.73 3.37-29.51 11.91-39.53 23.75l-22.49-4.21c-.11-1.75-.58-3.49-1.51-5.12 -3.23-5.53-10.35-7.37-15.87-4.15 -5.53 3.22-7.39 10.34-4.17 15.83 2.95 5.05 9.15 7.02 14.39 4.84l15.77 18.04c-2.04 6.64-3.13 13.69-3.13 21.02 0 7.83 1.31 15.35 3.65 22.39 1.25.02 2.47.12 3.73.12 5.57 0 11.06-.2 16.49-.56 -3.1-6.71-4.95-14.1-4.95-21.98 0-29.11 23.58-52.72 52.69-52.72 25.9 0 47.33 18.74 51.76 43.37 5.97-4.06 11.44-8.39 16.28-13.04 -.07-.15-.08-.32-.13-.49Z"/><path fill="url(#c)" d="M134.54 88.47l-25 20.57c-.93.72-1.79 1.46-2.6 2.22 -.64.61-.99 1.42-1.07 2.5 -.09 1.42.21 2.58.97 3.56 .88 1.14 1.8 2.22 2.73 3.2l3.22 3.31c10.85-3.76 20.82-8.35 29.89-13.55 -.13-1.51-.3-3.04-.6-4.59 -1.25-6.48-3.9-12.32-7.6-17.27Z"/><path fill="#414042" d="M248.7 114.03l20.33-22.45h21.64l-23.6 26.09 25.03 36.36h-20.87l-16.31-23.21h-10.04v23.2h-18.13V61.45h18.12v52.54h3.77ZM354.34 98.1c6.39 6.13 9.65 14.22 9.65 24.26 0 10.16-3.26 18.36-9.66 24.62 -6.4 6.26-14.87 9.38-25.43 9.38 -10.57 0-19.04-3.13-25.56-9.39 -6.52-6.27-9.78-14.46-9.78-24.63 0-10.05 3.25-18.14 9.63-24.27 6.52-6.12 15.12-9.26 25.69-9.26 10.56 0 19.03 3.14 25.42 9.25Zm-25.43 6.92c-10.3 0-17.35 6.9-17.35 17.34 0 10.55 7.04 17.85 17.34 17.85 10.29 0 17.2-7.31 17.2-17.86 0-10.45-6.92-17.35-17.21-17.35Zm115.55 17.47c0 9.63-2.87 17.47-8.48 23.46 -5.61 5.86-12.91 8.87-21.65 8.87 -7.44 0-13.56-.28-18.65-.79v30.1h-18.13V92.62c15.51-1.98 27.37-3.02 35.58-3.02 19.69-.01 30.77 12.65 31.29 32.86Zm-17.61.5c0-12.26-5.48-18.39-16.57-18.39 -4.18 0-9 .27-14.6.78v33.24c4.56.65 9.77 1.04 15.77 1.04 8.99 0 15.38-7.31 15.38-16.69Zm31.74 13.03c9.51 3.65 17.98 5.47 25.28 5.47 7.16 0 10.68-1.55 10.68-4.82 0-2.87-2.74-4.32-6.92-5.23 -2.22-.64-3.39-.77-6.4-1.3l-3.39-.66c-14.73-2.74-21.52-8.22-21.52-18.77 0-13.04 10.56-20.85 27.37-20.85 9.25 0 17.99 1.54 26.21 4.69l-4.05 13.67c-10.04-2.87-17.61-4.29-22.82-4.29 -5.74 0-9 2.08-9 5.35 0 2.86 2.08 3.9 5.73 5.07 2.21.53 3.25.65 6.4 1.29l3.64.65c15.24 3.12 21.63 7.55 21.63 18.64 0 13.94-10.95 20.99-28.3 20.99 -9.65 0-19.04-1.83-28.3-5.48l3.66-14.49Z"/></svg>