<svg viewBox="0 0 512 112" xmlns="http://www.w3.org/2000/svg"><defs><linearGradient id="a" x1="99.99%" x2=".009%" y1=".029%" y2="99.97%"><stop offset="0.343514%" stop-color="#E44857"/><stop offset="46.89%" stop-color="#C711E1"/><stop offset="100%" stop-color="#7F52FF"/></linearGradient></defs><path fill="url(#a)" d="M105.09 109.33l-105.1 0 0-105.06 105.09 0 -52.55 52.5Z"/><path d="M269.14 30.63c7.25 0 14.17 1.97 20.1 5.27 5.92 3.28 10.55 8.22 13.81 14.17 3.3 6.26 5.27 13.18 5.27 20.75 0 7.56-1.65 14.48-4.95 20.75 -3.31 5.92-7.91 10.87-13.84 14.17 -5.93 3.63-12.85 5.27-20.42 5.27 -7.57 0-14.49-1.98-20.42-5.28 -6.27-3.31-10.88-8.25-14.18-14.18 -3.31-5.93-4.95-13.19-4.95-20.76 0-7.57 1.64-14.49 4.94-20.76 3.3-5.93 8.24-10.54 14.17-14.18 5.92-3.64 12.84-5.28 20.41-5.28ZM232.25 3.94l-47.78 51.05 48.42 54.33h-21.41l-45.8-50.74v50.73h-16.81V4.25h16.8v48.42L211.13 3.9h21.08Zm36.58 41.78c-4.61-.001-8.56.98-11.86 3.3 -3.31 1.97-5.93 4.94-7.91 8.89 -1.98 3.63-2.97 8.24-2.97 13.18 0 4.94.65 9.23 2.62 13.18 1.97 3.61 4.6 6.58 7.9 8.89 3.61 2.31 7.59 3.3 11.85 3.3s8.22-.99 11.52-3.31c3.3-1.98 5.92-4.95 7.9-8.9 1.97-3.96 2.96-8.25 2.96-13.19 0-4.95-.66-9.24-2.63-13.19 -1.98-3.62-4.61-6.59-7.91-8.9 -3.29-2.32-7.24-3.31-11.53-3.31Zm73.44-32.55h-16.15v13.18c0 1.97-.34 3.61-1.65 4.6 -.99.98-2.63 1.64-4.61 1.64h-7.91v13.83h13.83v41.5c0 4.28.98 8.24 2.62 11.52 1.64 3.3 4.28 5.92 7.56 7.56 3.3 1.97 6.91 2.62 11.52 2.62h12.51V95.13h-9.24c-2.32 0-4.29-.66-5.93-2.63 -1.33-1.65-2.32-3.96-2.32-6.59V46.37h17.78V32.53h-17.79V13.1h-.3ZM372.9-.02h16.46v109.33h-16.47V-.03Zm35.24.33h16.8v17.13h-16.81V.3Zm0 32.27h16.46v77.04h-16.47V32.57Zm100.48 12.51c-2.32-4.61-5.6-8.25-9.89-10.54 -4.29-2.63-9.24-3.96-14.83-3.96 -5.93 0-11.21 1.64-15.82 4.28 -3.62 2.31-6.59 5.59-8.9 9.23V32.24h-15.82v77.04h16.46V66.11c0-4.29.65-7.91 2.31-11.21 1.64-3.31 3.95-5.6 6.58-7.57 2.96-1.65 6.26-2.63 10.21-2.63 3.61 0 6.26.65 8.89 2.31 2.62 1.66 4.28 3.61 5.59 6.26 1.32 2.62 1.97 5.92 1.97 9.54v46.11h16.46V60.83c.35-5.91-.95-11.17-3.29-15.8Z"/></svg>