<svg viewBox="0 0 512 76" xmlns="http://www.w3.org/2000/svg"><path d="M283.18 49.69h-25.56c-.37-.01-.72.19-.9.51 -.19.32-.19.71 0 1.04 .18.32 4.69 8.08 13.67 8.08s13.48-7.76 13.66-8.09c.17-.33.16-.73-.02-1.05 -.19-.32-.52-.52-.89-.52h0Zm.41-27.42c1.18 0 2.12-.97 2.12-2.16 0-1.2-.95-2.16-2.13-2.16 -5.03 0-9.1 4.11-9.1 9.16v10.55c0 1.18.95 2.14 2.13 2.14h6.96c1.18 0 2.12-.97 2.12-2.15v-7.03c0-1.2-.95-2.16-2.13-2.16h-4.86v-1.38c0-2.67 2.17-4.86 4.85-4.86l-.01-.01Zm-26.4 17.56c-1.19 0-2.13-.97-2.13-2.15V27.12c0-5.06 4.07-9.17 9.09-9.17 1.18 0 2.13.96 2.13 2.15 0 1.18-.96 2.15-2.14 2.15 -2.67 0-4.84 2.18-4.84 4.85v1.37h4.83c1.18 0 2.13.96 2.13 2.15v7.02c0 1.18-.96 2.14-2.14 2.14h-6.98ZM4.63 3.18c-2.57 0-4.66 2.09-4.66 4.68V69.1c0 2.59 2.08 4.68 4.65 4.68 2.56 0 4.64-2.1 4.64-4.69V7.84c0-2.6-2.08-4.69-4.65-4.69Zm464.16 9.36h20.33c7.35 0 13.33 6.03 13.33 13.45 0 7.42-5.99 13.45-13.34 13.45h-20.34V12.52Zm29.18 34.45c8.09-3.49 13.77-11.59 13.77-21.01 0-12.59-10.16-22.84-22.64-22.84h-24.99c-2.57-.001-4.65 2.09-4.65 4.68v61.25c0 2.59 2.08 4.68 4.64 4.68 2.56 0 4.64-2.1 4.64-4.69V48.78h19.68l11.3 22.4c.55 1.1 1.52 1.94 2.69 2.33 1.17.38 2.45.28 3.55-.28 2.28-1.18 3.19-4 2.03-6.31l-10.1-19.99ZM49.52 4.5c-.88-.87-2.07-1.36-3.31-1.35 -1.24.01-2.42.51-3.28 1.39L13.07 35.16c-1.78 1.82-1.78 4.75-.001 6.57l29.85 30.61c.91.93 2.1 1.39 3.31 1.39 1.17 0 2.34-.45 3.25-1.35 1.82-1.82 1.85-4.79.05-6.63L22.87 38.41l26.64-27.34c1.79-1.86 1.76-4.82-.06-6.64h-.01Zm59.9-1.35c-2.57 0-4.65 2.09-4.65 4.68V46.5c0 9.86-7.96 17.89-17.75 17.89 -9.78 0-17.74-8.03-17.74-17.9V7.81c0-2.6-2.09-4.69-4.66-4.69 -2.57 0-4.65 2.09-4.65 4.68v38.67c0 15.03 12.12 27.26 27.03 27.26 14.91 0 27.03-12.23 27.03-27.27V7.78c0-2.6-2.09-4.69-4.65-4.69Zm37.55 29.44c-16.49-3.9-15.18-11.16-14.7-13.9 .51-2.82 2.26-4.8 5.37-6.08 6.15-2.52 15.97-1.33 21.46 2.62 1 .72 2.25 1.01 3.47.8 1.21-.21 2.3-.9 3.01-1.91 1.48-2.12 1-5.04-1.09-6.54 -8-5.75-21.34-7.37-30.36-3.67 -6.04 2.47-9.96 7.12-11.02 13.09 -1.27 7-.12 19.53 21.7 24.68 7 1.65 12.08 4.73 13.93 8.46 1.19 2.41 1.09 5.15-.31 8.36 -1.47 3.35-5.22 4.77-8.11 5.36 -7.17 1.47-16.38-.54-20.57-4.47 -1.88-1.78-4.83-1.69-6.57.22 -1.76 1.89-1.66 4.85.22 6.62 4.95 4.66 13.6 7.47 21.96 7.47 2.32 0 4.62-.22 6.81-.67 7.11-1.48 12.35-5.31 14.73-10.78 2.52-5.76 2.55-11.4.11-16.33 -3.14-6.34-10.29-11.1-20.13-13.42Zm75.5-29.45h-45.1c-2.57 0-4.65 2.09-4.65 4.68s2.07 4.68 4.64 4.68h17.9v56.56c0 2.59 2.07 4.68 4.64 4.68s4.64-2.1 4.64-4.69V12.48h17.9c2.57 0 4.64-2.1 4.64-4.69 0-2.6-2.08-4.69-4.65-4.69h-.01Zm162.44.36c-1.73-.72-3.71-.36-5.06.96l-26.44 26.03 -26.44-26.04c-1.34-1.33-3.33-1.69-5.06-.97 -1.73.73-2.85 2.43-2.85 4.32v61.25c0 2.59 2.08 4.68 4.65 4.68 2.56 0 4.64-2.1 4.64-4.69V18.92l21.79 21.46c1.8 1.78 4.69 1.78 6.49 0l21.78-21.47v50.11c0 2.59 2.07 4.68 4.64 4.68s4.64-2.1 4.64-4.69V7.75c0-1.89-1.13-3.59-2.85-4.33Zm61.5 9c2.56 0 4.64-2.096 4.64-4.69 0-2.6-2.09-4.69-4.65-4.69h-43.34c-2.58-.001-4.65 2.09-4.65 4.68v61.25c0 2.59 2.07 4.68 4.64 4.68h43.33c2.56 0 4.64-2.1 4.64-4.69 0-2.6-2.09-4.69-4.65-4.69h-38.7V42.39h31.38c2.56 0 4.65-2.1 4.65-4.69 0-2.6-2.09-4.69-4.66-4.69h-31.39V12.46h38.69Z"/><path fill="#FF655D" d="M285.1 0h-28.87c-12.82 0-23.24 10.51-23.24 23.43v29.11c0 12.91 10.42 23.43 23.23 23.43h19.57l-12.91-9.38h-6.67c-7.69 0-13.95-6.31-13.95-14.06V23.41c0-7.76 6.25-14.07 13.94-14.07h28.86c7.68 0 13.95 6.3 13.95 14.06v29.11c0 7.75-6.27 14.05-13.96 14.05h-5.49v9.37h5.48c12.81 0 23.24-10.52 23.24-23.44V23.37c0-12.92-10.44-23.44-23.25-23.44"/></svg>