<svg viewBox="0 0 256 264" xmlns="http://www.w3.org/2000/svg"><path fill="#FF2D20" d="M255.85 59.61c.09.35.14.71.14 1.07v56.56c0 1.47-.8 2.84-2.08 3.57l-47.48 27.33v54.18c0 1.47-.79 2.83-2.07 3.57l-99.11 57.05c-.23.12-.48.21-.73.29 -.1.03-.19.08-.28.11 -.7.18-1.43.18-2.12 0 -.12-.04-.22-.1-.33-.14 -.23-.09-.47-.16-.69-.28L2.01 205.86c-1.29-.74-2.08-2.11-2.08-3.58V32.57c0-.38.05-.74.14-1.09 .03-.12.1-.23.14-.35 .07-.22.14-.44.26-.64 .07-.14.19-.25.28-.37 .11-.17.22-.34.36-.48 .11-.12.27-.21.4-.31 .14-.13.28-.26.45-.36h0L51.5.44C52.77-.3 54.34-.3 55.62.43l49.54 28.52h.01c.16.1.3.23.45.35 .13.1.28.19.4.3 .14.14.24.31.37.48 .08.12.2.23.27.36 .11.2.18.42.26.63 .04.11.11.22.14.35 .09.35.14.71.14 1.07v105.99l41.28-23.78V60.51c0-.37.05-.73.14-1.08 .03-.13.1-.24.14-.36 .08-.22.15-.44.26-.64 .07-.14.19-.25.27-.37 .12-.17.22-.34.37-.48 .11-.12.26-.21.4-.31 .15-.13.28-.26.45-.36h0l49.55-28.53c1.27-.74 2.84-.74 4.12 0l49.54 28.52c.17.1.3.23.46.35 .12.1.27.19.39.3 .14.14.24.31.37.48 .09.12.2.23.27.36 .11.2.18.42.26.63 .04.11.11.22.14.35Zm-8.12 55.25V67.81l-17.34 9.98 -23.96 13.79v47.04l41.29-23.78h-.01Zm-49.55 85.09v-47.08l-23.57 13.45 -67.29 38.39v47.51l90.84-52.3ZM8.24 39.77v160.17l90.83 52.29v-47.51l-47.46-26.86 -.02-.02 -.03-.02c-.16-.1-.3-.23-.45-.35 -.13-.11-.28-.19-.4-.3l-.02-.02c-.14-.13-.23-.29-.35-.44 -.11-.14-.23-.26-.31-.41l-.01-.02c-.1-.16-.15-.35-.22-.52 -.07-.16-.16-.3-.2-.47v-.01c-.06-.2-.07-.41-.09-.61 -.03-.16-.07-.31-.07-.47v-.02V63.43l-23.95-13.8 -17.34-9.98v-.01ZM53.66 8.86L12.37 32.62l41.27 23.76 41.27-23.77L53.63 8.85h.01Zm21.46 148.29l23.94-13.79V39.75l-17.34 9.98 -23.96 13.79v103.6l17.34-9.99ZM202.29 36.89l-41.28 23.76 41.27 23.76 41.27-23.77 -41.28-23.76Zm-4.13 54.67l-23.96-13.8 -17.34-9.99v47.04l23.94 13.78 17.34 9.98V91.52Zm-94.98 106l60.54-34.57 30.26-17.28 -41.25-23.75 -47.49 27.34 -43.29 24.91 41.2 23.32Z"/></svg>