<svg viewBox="0 0 256 256" xmlns="http://www.w3.org/2000/svg" xmlns:xlink="http://www.w3.org/1999/xlink"><defs><linearGradient id="a" x1="0%" x2="37.75%" y1="73.25%" y2="36.583%"><stop offset="0%" stop-color="#0060FF"/><stop offset="100%" stop-color="#1F66D6"/></linearGradient><mask id="b"><use fill="#FFF" xlink:href="#h"/></mask><mask id="c"><use fill="#FFF" xlink:href="#h"/></mask><linearGradient id="d" x1="31.818%" x2="100%" y1="0%" y2="90.75%"><stop offset="0%" stop-color="#1F6AE2"/><stop offset="100%" stop-color="#2E7BED"/></linearGradient><mask id="e"><use fill="#FFF" xlink:href="#h"/></mask><linearGradient id="f" x1="76.5%" x2="0%" y1="36.3%" y2="88.056%"><stop offset="0%" stop-color="#0D57D9"/><stop offset="100%" stop-color="#0D57D9"/></linearGradient><mask id="g"><use fill="#FFF" xlink:href="#h"/></mask><path id="h" d="M255.99 255.99l0-256 -256 0L-.02 255.77Z"/></defs><use fill="url(#a)" xlink:href="#h"/><path mask="url(#b)" fill="#115EDE" d="M102.599 0l-.01 0 14.48 14.48L130.03 1.5l.9.9 -12.98 12.97 14.48 14.48 12.97-12.98 .9.9 -12.98 12.97 14.48 14.48 12.97-12.98 .9.9 -12.98 12.97 14.48 14.48 12.97-12.98 .9.9 -12.98 12.97 14.48 14.48 12.97-12.98 .9.9 -12.98 12.97 14.48 14.48 12.97-12.98 .9.9 -12.98 12.97 18.7 18.7 -.91.9 -18.71-18.71 -14.49 14.48 18.7 18.7 -.91.9 -18.71-18.71 -14.49 14.48 18.7 18.7 -.91.9 -18.71-18.71 -14.49 14.48 18.7 18.7 -.91.9 -18.71-18.71 -14.49 14.48 18.7 18.7 -.91.9 -18.71-18.71 -14.49 14.48 18.7 18.7 -.91.9 -18.71-18.71 -14.49 14.48 18.7 18.7 -.91.9 -18.71-18.71 -14.49 14.48 18.7 18.7 -.91.9 -18.71-18.71 -14.49 14.48 18.7 18.7 -.91.9 -18.71-18.71 -14.49 14.48 18.7 18.7 -.91.9 -18.71-18.71 -14.49 14.48 9.63 9.63 -1.82-.01 -8.74-8.74 -8.72 8.71 -1.81-.01 9.62-9.63 -14.49-14.49 -13.28 13.27 -.91-.91 13.27-13.28 -14.49-14.49 -9.38 9.37v-1.81l8.46-8.47 -8.47-8.47v-1.82l9.37 9.37 14.48-14.49 -14.49-14.49 -9.38 9.37v-1.81l8.46-8.47 -8.47-8.47v-1.82l9.37 9.37 14.48-14.49L8.9 154.35l-9.38 9.37v-1.82l8.46-8.47 -8.47-8.47v-1.81l9.37 9.37 14.48-14.49 -14.49-14.49 -9.38 9.37v-1.81l8.46-8.47 -8.47-8.47v-1.82l9.37 9.37 14.48-14.49L8.84 92.73l-9.38 9.37v-1.82l8.46-8.47 -8.47-8.47v-1.82l9.37 9.37L23.3 76.4 8.81 61.91l-9.38 9.37v-1.82l8.46-8.47 -8.47-8.47V50.7l9.37 9.37 14.48-14.49L8.78 31.09 -.6 40.46v-1.82l8.46-8.47 -8.47-8.47v-1.82l9.37 9.37 14.48-14.49L8.75.27 -.63 9.64V7.83L7.83-.64l-.01-.01h1.81l-.01 0L24.1 13.83 38.58-.66l-.01-.01h1.81l-.01 0 14.48 14.48L69.33-.68l-.01-.01h1.81l-.01 0L85.6 13.79 100.08-.7l-.01-.01h1.81Zm-62.46 216.31l-14.49 14.48 14.48 14.48 14.48-14.49 -14.49-14.49Zm15.38-15.39l-14.49 14.48 14.48 14.48 14.48-14.49 -14.49-14.49Zm-30.78 0L10.24 215.4l14.48 14.48 14.48-14.49 -14.49-14.49Zm15.38-15.39l-14.49 14.48 14.48 14.48L54.58 200l-14.49-14.49Zm30.77 0l-14.49 14.48 14.48 14.48L85.35 200l-14.49-14.49Zm-15.39-15.39L41 184.62l14.48 14.48 14.48-14.49 -14.49-14.49Zm30.77 0l-14.49 14.48 14.48 14.48 14.48-14.49 -14.49-14.49Zm-61.55 0l-14.49 14.48L24.7 199.1l14.48-14.49 -14.49-14.49Zm46.15-15.39l-14.49 14.48 14.48 14.48 14.48-14.49 -14.49-14.49Zm-30.78 0l-14.49 14.48 14.48 14.48 14.48-14.49 -14.49-14.49Zm61.54 0l-14.49 14.48 14.48 14.48 14.48-14.49 -14.49-14.49Zm-46.16-15.39l-14.49 14.48 14.48 14.48 14.48-14.49 -14.49-14.49Zm30.77 0l-14.49 14.48 14.48 14.48 14.48-14.49 -14.49-14.49Zm-61.55 0l-14.49 14.48 14.48 14.48 14.48-14.49 -14.49-14.49Zm92.31 0l-14.49 14.48 14.48 14.48 14.48-14.49 -14.49-14.49Zm15.38-15.39l-14.49 14.48 14.48 14.48 14.48-14.49 -14.49-14.49Zm-61.55 0l-14.49 14.48 14.48 14.48 14.48-14.49 -14.49-14.49Zm-30.78 0l-14.49 14.48 14.48 14.48 14.48-14.49 -14.49-14.49Zm61.54 0l-14.49 14.48 14.48 14.48 14.48-14.49 -14.49-14.49Zm15.38-15.39l-14.49 14.48 14.48 14.48 14.48-14.49 -14.49-14.49Zm-92.32-.01l-14.49 14.48 14.48 14.48 14.48-14.49 -14.49-14.49Zm123.09 0l-14.49 14.48 14.48 14.48 14.48-14.49 -14.49-14.49Zm-61.55-.01l-14.49 14.48 14.48 14.48 14.48-14.49 -14.49-14.49Zm-30.78 0l-14.49 14.48 14.48 14.48 14.48-14.49 -14.49-14.49Zm107.7-15.39l-14.49 14.48 14.48 14.48 14.48-14.49 -14.49-14.49Zm-61.55 0l-14.49 14.48 14.48 14.48 14.48-14.49 -14.49-14.49Zm30.77 0l-14.49 14.48 14.48 14.48 14.48-14.49 -14.49-14.49ZM40 93.16l-14.49 14.48 14.48 14.48 14.48-14.49 -14.49-14.49Zm30.77 0l-14.49 14.48 14.48 14.48 14.48-14.49 -14.49-14.49Zm15.38-15.39L71.66 92.25l14.48 14.48 14.48-14.49 -14.49-14.49Zm-61.55 0L10.11 92.25l14.48 14.48 14.48-14.49 -14.49-14.49Zm30.77-.01l-14.49 14.48 14.48 14.48 14.48-14.49 -14.49-14.49Zm61.54 0l-14.49 14.48 14.48 14.48 14.48-14.49 -14.49-14.49Zm30.77-.01l-14.49 14.48 14.48 14.48 14.48-14.49 -14.49-14.49Zm30.77 0l-14.49 14.48 14.48 14.48 14.48-14.49 -14.49-14.49Zm-46.16-15.39L117.8 76.84l14.48 14.48 14.48-14.49 -14.49-14.49Zm30.77 0l-14.49 14.48 14.48 14.48 14.48-14.49 -14.49-14.49Zm-92.32 0L56.25 76.84l14.48 14.48 14.48-14.49 -14.49-14.49Zm-30.78 0L25.47 76.84l14.48 14.48 14.48-14.49 -14.49-14.49Zm61.54 0L87.01 76.84l14.48 14.48 14.48-14.49 -14.49-14.49ZM24.56 46.97L10.07 61.45l14.48 14.48 14.48-14.49 -14.49-14.49Zm92.31 0l-14.49 14.48 14.48 14.48 14.48-14.49 -14.49-14.49Zm-30.78 0L71.6 61.45l14.48 14.48 14.48-14.49 -14.49-14.49Zm-30.78 0L40.82 61.45 55.3 75.93l14.48-14.49 -14.49-14.49Zm92.31 0l-14.49 14.48 14.48 14.48 14.48-14.49 -14.49-14.49Zm-15.39-15.39l-14.49 14.48 14.48 14.48 14.48-14.49 -14.49-14.49Zm-30.78 0L86.96 46.06l14.48 14.48 14.48-14.49 -14.49-14.49Zm-30.78 0L56.18 46.06l14.48 14.48 14.48-14.49 -14.49-14.49Zm-30.78 0L25.4 46.06l14.48 14.48 14.48-14.49 -14.49-14.49ZM24.5 16.19L10.01 30.67l14.48 14.48 14.48-14.49 -14.49-14.49Zm92.31 0l-14.49 14.48 14.48 14.48 14.48-14.49 -14.49-14.49Zm-30.78 0L71.54 30.67l14.48 14.48 14.48-14.49 -14.49-14.49Zm-30.78 0L40.76 30.67l14.48 14.48 14.48-14.49 -14.49-14.49ZM39.86.8L25.37 15.28l14.48 14.48 14.48-14.49L39.84.78Zm30.77 0L56.14 15.28l14.48 14.48L85.1 15.27 70.61.78Zm30.77 0L86.91 15.28l14.48 14.48 14.48-14.49L101.38.78Z"/><g mask="url(#c)"><g transform="translate(21.3333 0)"><path fill="url(#d)" d="M234.66 255.99l0-256L-.01-.01l191.99 255.99Z"/><path fill="#3582F7" fill-rule="evenodd" d="M234.66 0l-.01.72 -10.99 10.98 10.98 10.98v1.81L222.75 12.6l-14.49 14.48 14.48 14.48 11.88-11.89v1.81l-10.99 10.98 10.98 10.98v1.81l-11.89-11.89 -14.49 14.48 14.48 14.48 11.88-11.89v1.81L223.6 73.22l10.98 10.98v1.81l-11.89-11.89L208.2 88.6l14.48 14.48 11.88-11.89V93l-10.99 10.98 10.98 10.98v1.81l-11.89-11.89 -14.49 14.48 14.48 14.48 11.88-11.89v1.81l-10.99 10.98 10.98 10.98v1.81l-11.89-11.89 -14.49 14.48 14.48 14.48 11.88-11.89v1.81l-10.99 10.98 10.98 10.98v1.81L222.6 166.4l-14.49 14.48 14.48 14.48 11.88-11.89v1.81l-10.99 10.98 10.98 10.98v1.81l-11.89-11.89 -14.49 14.48 14.48 14.48 11.88-11.89v1.81l-10.99 10.98 10.98 10.98v1.81l-11.89-11.89 -14.49 14.48 13.48 13.48h-1.82l-12.59-12.59 -12.59 12.58h-1.81l13.48-13.49 -14.49-14.49 -12 11.98 -.78-1.04 11.86-11.87 -14.49-14.49 -9.8 9.79 -.78-1.04 9.66-9.67 -14.49-14.49 -7.6 7.59 -.78-1.04 7.46-7.47 -14.49-14.49 -5.4 5.39 -.78-1.04 5.26-5.27 -14.49-14.49 -3.2 3.19 -.78-1.04 3.06-3.07 -14.49-14.49 -1.01.99 -.78-1.04 .87-.88 -6.1-6.1 -5.44-7.25 12.43 12.43 14.48-14.49 -14.49-14.49 -14.19 14.18 -.78-1.04 14.05-14.06 -14.49-14.49 -12 11.98 -.78-1.04 11.86-11.87L83.8 89.172 74 98.96l-.78-1.04 9.66-9.67 -14.49-14.49 -7.6 7.59 -.78-1.04 7.46-7.47 -14.49-14.49 -5.4 5.39 -.78-1.04 5.26-5.27L37.58 42.95l-3.2 3.19 -.78-1.04 3.06-3.07 -14.49-14.49 -1.01.99 -.78-1.04 .87-.88 -6.1-6.1 -5.429-7.24 12.42 12.42L36.62 11.2 24.9-.52h1.81l10.8 10.8L48.31-.53h1.81L38.4 11.18l14.48 14.48 14.48-14.49L55.64-.55h1.81l10.8 10.8L79.05-.56h1.81L69.14 11.15l14.48 14.48L98.1 11.14 86.38-.58h1.81l10.8 10.8 10.8-10.81h1.81L99.88 11.12l14.48 14.48 14.48-14.49L117.12-.61h1.81l10.8 10.8 10.8-10.81h1.81l-11.72 11.71 14.48 14.48 14.48-14.49L147.86-.64h1.81l10.8 10.8 10.8-10.81h1.81l-11.72 11.71 14.48 14.48 14.48-14.49L178.6-.67h1.81l10.8 10.8 10.8-10.81h1.81L192.1 11.03l14.48 14.48 14.48-14.49L209.34-.7h1.81l10.8 10.8 10.8-10.81 1.08 0Zm-.01 245.1v1.81l-9.09 9.08h-1.81l10.89-10.9Zm-27.28-32.47l-14.49 14.48 14.48 14.48 14.48-14.49 -14.49-14.49Zm-15.387-15.387l-14.49 14.48 14.48 14.482 14.48-14.49 -14.49-14.482Zm15.38-15.39l-14.49 14.48 14.48 14.482 14.48-14.49 -14.49-14.49Zm-30.78 0l-14.49 14.48 14.48 14.48 14.48-14.49 -14.48-14.48Zm-15.387-15.387l-14.49 14.48 14.48 14.48 14.48-14.49 -14.49-14.49Zm30.77 0l-14.49 14.48 14.48 14.48 14.48-14.49 -14.48-14.48Zm-15.387-15.39l-14.49 14.48 14.48 14.48 14.48-14.49 -14.49-14.49Zm-30.78 0l-14.49 14.48 14.48 14.48 14.48-14.49 -14.49-14.49Zm61.54 0l-14.49 14.482 14.48 14.48 14.48-14.49 -14.49-14.49Zm-15.387-15.387l-14.49 14.482 14.48 14.48 14.48-14.49 -14.49-14.482Zm-61.55 0l-14.49 14.48 14.48 14.482 14.48-14.49 -14.49-14.482Zm30.77 0l-14.49 14.48 14.48 14.48 14.48-14.49 -14.49-14.49Zm-15.387-15.39l-14.49 14.48 14.48 14.482 14.48-14.49 -14.49-14.482Zm30.77 0l-14.49 14.482 14.48 14.48 14.48-14.482 -14.49-14.49Zm30.77 0l-14.49 14.48 14.48 14.482 14.48-14.49 -14.49-14.482Zm-46.16-15.39l-14.49 14.48 14.48 14.48 14.48-14.49 -14.49-14.49Zm-30.78 0l-14.49 14.48 14.48 14.48 14.48-14.49 -14.49-14.49Zm61.54 0l-14.49 14.48 14.48 14.48 14.48-14.49 -14.49-14.49Zm-76.94-15.39l-14.49 14.48 14.48 14.48 14.48-14.49 -14.49-14.49Zm30.77-.01l-14.49 14.48 14.48 14.48 14.48-14.49 -14.49-14.49Zm30.774 0l-14.49 14.48 14.48 14.48 14.48-14.49 -14.49-14.49Zm30.77 0l-14.49 14.48 14.48 14.48 14.48-14.49 -14.49-14.49ZM130.35 74.12L115.86 88.6l14.48 14.48 14.48-14.49 -14.49-14.49Zm30.77 0L146.63 88.6l14.48 14.48 14.48-14.49 -14.49-14.482Zm30.77 0L177.4 88.6l14.48 14.48 14.48-14.49 -14.49-14.49Zm-92.32-.01L85.08 88.59l14.48 14.48 14.48-14.49L99.55 74.1Zm76.93-15.39L162.01 73.2l14.48 14.48 14.48-14.49 -14.49-14.482Zm30.77 0L192.78 73.2l14.48 14.48 14.48-14.49 -14.49-14.49Zm-92.32 0L100.47 73.2l14.482 14.48 14.48-14.49 -14.49-14.49Zm-30.78 0L69.68 73.2l14.48 14.48 14.48-14.49L84.15 58.7Zm61.54 0L131.22 73.2l14.48 14.48 14.48-14.49 -14.49-14.49Zm46.15-15.387L177.37 57.81l14.48 14.482 14.48-14.482 -14.49-14.482Zm-61.55 0L115.83 57.81l14.48 14.48 14.48-14.49 -14.49-14.49Zm-61.55 0L54.27 57.81l14.48 14.48L83.23 57.8 68.74 43.31Zm92.31 0l-14.49 14.48 14.48 14.48 14.48-14.49 -14.49-14.49Zm-61.55-.01L85.03 57.8l14.48 14.48 14.48-14.49L99.5 43.31ZM53.36 27.93L38.87 42.41 53.35 56.89 67.83 42.4l-14.49-14.49Zm123.09 0l-14.49 14.48 14.48 14.48 14.48-14.482 -14.49-14.49Zm30.77 0l-14.49 14.48 14.48 14.482 14.48-14.49 -14.49-14.49Zm-123.1 0L69.63 42.41l14.48 14.48L98.59 42.41 84.1 27.92Zm30.77 0L100.41 42.41 114.89 56.89l14.48-14.482 -14.49-14.49Zm30.77 0l-14.49 14.48 14.48 14.48 14.48-14.49 -14.49-14.49Zm15.38-15.387l-14.49 14.48 14.48 14.48 14.48-14.49 -14.49-14.49Zm-92.32 0L54.23 27.02 68.71 41.5l14.48-14.49L68.7 12.52Zm30.77 0L85 27.02 99.48 41.5l14.48-14.49 -14.49-14.49Zm92.31 0l-14.49 14.48 14.48 14.48 14.48-14.49 -14.49-14.49Zm-153.87 0L23.44 27.02 37.92 41.5 52.4 27.01 37.91 12.52Zm92.31 0l-14.49 14.48 14.48 14.48 14.48-14.49 -14.49-14.49ZM19.76-.08L8.34 11.34l-.78-1.04L17.94-.09h1.81Z"/></g></g><g mask="url(#e)"><g transform="translate(.000376 164.904)"><path fill="url(#f)" stroke="#0D57D9" d="M186.44 0L-.01 52.69l0 38.39 255.99 0 0-17.5Z"/><path fill="#1362DD" fill-rule="evenodd" d="M156.72 8.4l10 33.76 39.27-11.64 -4.25-14.34 3.89 4.116 2.81 9.49 4.8-1.43 1.97 2.08 -6.06 1.79 11.63 39.27 25.95-7.7 1.97 2.08 -27.21 8.05 5.06 17.1h-2.67l-4.86-16.39 -39.28 11.63 1.4 4.74h-2.68l-1.2-4.03 -13.58 4.02h-9.02l21.86-6.48 -11.64-39.28 -39.28 11.63 10.1 34.11h-2.67l-9.89-33.39 -39.28 11.63 6.44 21.75h-2.67L81.4 69.93 42.12 81.56l2.78 9.39h-2.67l-2.57-8.67 -29.27 8.66H1.37l37.55-11.13 -10.48-35.37 2.46-.7 10.46 35.33 39.27-11.64L70.3 32.59l2.46-.7 10.31 34.8 39.27-11.64 -10.17-34.32 2.46-.7 10.15 34.28 39.27-11.64 -10.02-33.8 2.46-.7Zm49.99 24.58l-39.28 11.63 11.63 39.27 39.27-11.64 -11.64-39.28Z"/></g></g><g mask="url(#g)"><g transform="translate(46.9327 45.2267)"><path fill="#6AABD4" fill-rule="evenodd" d="M51.19 0L39.67 65.7 81.9 88.31Z"/><path fill="#E4F6FE" d="M122.45 65.7L51.19-.01 81.9 88.3l40.53-22.62Z"/><path fill="#A8CCE9" d="M122.45 65.7L81.91 88.31l80.63 47.35 -40.11-69.98Z"/><path fill="#D8E9F8" d="M162.55 135.67L81.91 88.31l39.25 64.85Z"/><path fill="#84C1F2" d="M121.17 153.17L81.91 88.31 -.01 135.66l121.17 17.49Z"/><path fill="#AECEE9" d="M0 135.67l81.91-47.36 -42.24-22.62 -39.68 69.97Z"/></g></g></svg>