<svg viewBox="0 0 512 129" xmlns="http://www.w3.org/2000/svg" xmlns:xlink="http://www.w3.org/1999/xlink"><defs><mask id="a"><path fill="#FFF" d="M64.38 0a64.38 64.38 0 1 0 0 128.76 64.38 64.38 0 1 0 0-128.77Z"/></mask><linearGradient id="b" x1="0%" x2="37.75%" y1="73.25%" y2="36.583%"><stop offset="0%" stop-color="#0060FF"/><stop offset="100%" stop-color="#1F66D6"/></linearGradient><linearGradient id="c" x1="34.722%" x2="92.013%" y1="0%" y2="90.75%"><stop offset="0%" stop-color="#1F6AE2"/><stop offset="100%" stop-color="#2E7BED"/></linearGradient><mask id="d"><path fill="#FFF" d="M118.03 128.76l0-128.77 -118.04 0 96.57 128.76Z"/></mask><linearGradient id="e" x1="76.5%" x2="0%" y1="48.265%" y2="54.818%"><stop offset="0%" stop-color="#0D57D9"/><stop offset="100%" stop-color="#0D57D9"/></linearGradient><mask id="f"><path fill="#FFF" d="M93.78 0L-.01 26.5l0 19.31 128.76 0 0-8.8Z"/></mask><path id="k" d="M17.18 81.39l128.76 0 0 .64 -128.77 0Z"/><path id="l" d="M24.92 89.13l128.76 0 0 .64 -128.77 0Z"/><path id="g" d="M-13.78 50.43l128.76 0 0 .64 -128.77 0Z"/><path id="j" d="M9.44 73.65l128.76 0 0 .64 -128.77 0Z"/><path id="i" d="M1.7 65.91l128.76 0 0 .64 -128.77 0Z"/><path id="n" d="M40.4 104.61l128.76 0 0 .64 -128.77 0Z"/><path id="m" d="M32.66 96.87l128.76 0 0 .64 -128.77 0Z"/><path id="h" d="M-6.04 58.17l128.76 0 0 .64 -128.77 0Z"/><path id="o" d="M48.14 112.35l128.76 0 0 .64 -128.77 0Z"/><path id="p" d="M55.87 120.09l128.76 0 0 .64 -128.77 0Z"/></defs><path fill="#006BFF" d="M181.8 38.36c0-2.35-.31-3.88-.72-4.59 -.41-.62-1.43-1.02-3.06-1.02 -1.23 0-2.66.2-4.18.5v63.3h23.54c1.22 0 2.14-.21 2.65-.62 .4-.41.71-1.33.71-2.66 0-.82-.11-1.84-.31-3.06l-18.66.4v-52.3Zm63.09 53.82c.4 2.03.91 3.26 1.63 3.87 .61.61 1.83.81 3.56.81 1.83 0 3.36-.21 4.48-.82l-14.79-63.31h-11.63l-3.98 15.9c-2.66 10.7-5.31 21.4-7.96 32 -2.66 10.6-3.88 15.9-3.78 15.9h7.84l2.95-13.66h19.67l1.93 9.27Zm-12.03-53.01h1.22l7.74 38.12h-17.33l8.35-38.13Zm45.76-1.13v58.51h7.95V38.24l10.9.1c1.52.1 2.54-.11 3.16-.51 .61-.41.91-1.13.91-2.35 0-.62-.11-1.53-.21-2.76h-33.34c-1.64 0-2.66.2-3.17.61 -.62.4-.82 1.22-.82 2.24 0 .81.1 1.83.3 2.85l14.27-.41Zm49.32 28.74l16.41.3c1.22 0 2.03-.21 2.54-.72 .5-.51.81-1.43.81-2.66 0-1.02-.11-1.94-.21-2.66h-19.58V38.51l19.26.2c1.42 0 2.34-.21 2.95-.62 .5-.41.81-1.23.81-2.45 0-.72-.11-1.74-.31-2.96h-30.69v57.79c0 2.75.3 4.48.91 5.09 .61.61 2.44.91 5.5.91h20.69c1.42 0 2.34-.21 2.85-.72 .4-.51.71-1.43.71-2.76 0-.62-.11-1.64-.21-2.86l-22.53.4V66.67Zm57.13-1.53c-2.55 0-4.69-.21-6.43-.62V38.22c1.63-.21 3.97-.31 6.82-.31 4.68 0 7.95 1.01 9.98 3.05 1.93 2.03 2.95 5.3 2.95 9.98 0 5.4-1.33 9.37-3.98 12.02 -2.04 1.52-5.1 2.24-9.38 2.24Zm-14.38 31.29h7.95v-25.8c1.83.2 3.46.3 5.09.3 1.83 0 3.56-.11 4.99-.41l8.66 22.52c.5 1.42 1.22 2.44 2.03 2.95 .81.61 2.03.81 3.66.81 1.83 0 3.46-.31 4.79-1.02l-12.65-27.63c3.16-1.23 5.91-3.47 8.25-6.83 2.34-3.37 3.56-7.14 3.56-11.22 0-11.63-6.02-17.54-18.05-17.54h-18.35v63.81Zm85.08-4.39c.4 2.03.91 3.26 1.63 3.87 .61.61 1.83.81 3.56.81 1.83 0 3.36-.21 4.48-.82L450.65 32.7h-11.63l-3.98 15.9c-2.66 10.7-5.31 21.4-7.96 32 -2.66 10.6-3.88 15.9-3.78 15.9h7.84l2.95-13.66h19.67l1.93 9.27Zm-12.03-53.01h1.22l7.74 38.12h-17.33l8.35-38.13Zm49.25-.82c0-2.35-.31-3.88-.72-4.59 -.41-.62-1.43-1.02-3.06-1.02 -1.23 0-2.66.2-4.18.5v63.3h23.54c1.22 0 2.14-.21 2.65-.62 .4-.41.71-1.33.71-2.66 0-.82-.11-1.84-.31-3.06l-18.66.4v-52.3Z"/><g mask="url(#a)"><g transform="translate(-61.4491-35.2042)"><path fill="url(#b)" d="M190.21 163.96l0-128.77 -128.77 0 0 128.65Z"/><g fill="#115EDE"><use transform="rotate(-45 50.6088 50.7606)" xlink:href="#g"/><use transform="rotate(-45 58.3481 58.4999)" xlink:href="#h"/><use transform="rotate(-45 66.0874 66.2392)" xlink:href="#i"/><use transform="rotate(-45 73.8264 73.9784)" xlink:href="#j"/><use transform="rotate(-45 81.5659 81.7177)" xlink:href="#k"/><use transform="rotate(-45 89.3053 89.457)" xlink:href="#l"/><use transform="rotate(-45 97.0444 97.196)" xlink:href="#m"/><use transform="rotate(-45 104.784 104.935)" xlink:href="#n"/><use transform="rotate(-45 112.523 112.675)" xlink:href="#o"/><use transform="rotate(-45 120.262 120.414)" xlink:href="#p"/><path d="M45.43 58.76l.64 0 0 128.76 -.65 0Z" transform="rotate(-45 45.7528 123.146)"/><path d="M53.16 51.02l.64 0 0 128.76 -.65 0Z" transform="rotate(-45 53.4918 115.406)"/><path d="M60.9 43.28l.64 0 0 128.76 -.65 0Z" transform="rotate(-45 61.2313 107.667)"/><path d="M68.64 35.54l.64 0 0 128.76 -.65 0Z" transform="rotate(-45 68.9706 99.9277)"/><path d="M76.38 27.8l.64 0 0 128.76 -.65 0Z" transform="rotate(-45 76.7099 92.1883)"/><path d="M84.12 20.06l.64 0 0 128.76 -.65 0Z" transform="rotate(-45 84.4491 84.4494)"/><path d="M91.86 12.32l.64 0 0 128.76 -.65 0Z" transform="rotate(-45 92.1883 76.71)"/><path d="M99.6 4.58l.64 0 0 128.76 -.65 0Z" transform="rotate(-45 99.9277 68.9707)"/><path d="M107.34-3.16l.64 0 0 128.76 -.65 0Z" transform="rotate(-45 107.667 61.2314)"/><path d="M115.08-10.9l.64 0 0 128.76 -.65 0Z" transform="rotate(-45 115.406 53.4921)"/><path d="M122.82-18.63l.64 0 0 128.76 -.65 0Z" transform="rotate(-45 123.145 45.7528)"/></g><path fill="url(#c)" d="M190.21 163.96l0-128.77 -118.04 0 96.57 128.76Z"/><g mask="url(#d)" transform="translate(72.1795 35.2042)"><g transform="translate(-31.5005-75.7506)"><g fill="#3582F7"><use transform="rotate(-45 50.6089 50.7605)" xlink:href="#g"/><path d="M63.61 127.83l128.76 0 0 .64 -128.77 0Z" transform="rotate(-45 128.002 128.153)"/><use transform="rotate(-45 58.3481 58.4999)" xlink:href="#h"/><path d="M71.35 135.57l128.76 0 0 .64 -128.77 0Z" transform="rotate(-45 135.741 135.893)"/><use transform="rotate(-45 66.0874 66.2392)" xlink:href="#i"/><path d="M79.09 143.31l128.76 0 0 .64 -128.77 0Z" transform="rotate(-45 143.48 143.632)"/><use transform="rotate(-45 73.8267 73.9784)" xlink:href="#j"/><path d="M86.83 151.04l128.76 0 0 .64 -128.77 0Z" transform="rotate(-45 151.219 151.371)"/><use transform="rotate(-45 81.566 81.7177)" xlink:href="#k"/><path d="M94.57 158.78l128.76 0 0 .64 -128.77 0Z" transform="rotate(-45 158.959 159.11)"/><use transform="rotate(-45 89.3051 89.457)" xlink:href="#l"/><path d="M102.31 166.52l128.76 0 0 .64 -128.77 0Z" transform="rotate(-45 166.698 166.85)"/><use transform="rotate(-45 97.0444 97.196)" xlink:href="#m"/><path d="M110.05 174.26l128.76 0 0 .64 -128.77 0Z" transform="rotate(-45 174.437 174.589)"/><use transform="rotate(-45 104.784 104.935)" xlink:href="#n"/><path d="M117.79 182l128.76 0 0 .64 -128.77 0Z" transform="rotate(-45 182.177 182.328)"/><use transform="rotate(-45 112.523 112.675)" xlink:href="#o"/><path d="M125.53 189.74l128.76 0 0 .64 -128.77 0Z" transform="rotate(-45 189.916 190.067)"/><use transform="rotate(-45 120.262 120.414)" xlink:href="#p"/><path d="M83.44 43.01l.64 0 0 236.28 -.65 0Z" transform="rotate(-45 83.7663 161.159)"/><path d="M91.18 35.27l.64 0 0 236.28 -.65 0Z" transform="rotate(-45 91.5056 153.42)"/><path d="M98.92 27.53l.64 0 0 236.28 -.65 0Z" transform="rotate(-45 99.2447 145.68)"/><path d="M106.66 19.79l.64 0 0 236.28 -.65 0Z" transform="rotate(-45 106.984 137.941)"/><path d="M114.4 12.06l.64 0 0 236.28 -.65 0Z" transform="rotate(-45 114.723 130.202)"/><path d="M122.14 4.32l.64 0 0 236.28 -.65 0Z" transform="rotate(-45 122.463 122.463)"/><path d="M129.87-3.42l.64 0 0 236.28 -.65 0Z" transform="rotate(-45 130.202 114.723)"/><path d="M137.61-11.16l.64 0 0 236.28 -.65 0Z" transform="rotate(-45 137.941 106.984)"/><path d="M145.35-18.9l.64 0 0 236.28 -.65 0Z" transform="rotate(-45 145.68 99.2448)"/><path d="M153.09-26.64l.64 0 0 236.28 -.65 0Z" transform="rotate(-45 153.42 91.5055)"/><path d="M160.83-34.38l.64 0 0 236.28 -.65 0Z" transform="rotate(-45 161.159 83.7663)"/></g></g></g><path fill="url(#e)" stroke="#0D57D9" d="M155.23 118.15l-93.79 26.5 0 19.31 128.76 0 0-8.8Z"/><g mask="url(#f)" transform="translate(61.4491 118.15)"><g transform="translate(-46.6396-43.4927)"><g fill="#1362DD"><path d="M-5.12 43.92l257.52 0 0 1.28 -257.53 0Z" transform="rotate(-16.5 123.645 44.5727)"/><path d="M1.09 64.91l257.52 0 0 1.28 -257.53 0Z" transform="rotate(-16.5 129.862 65.5613)"/><path d="M7.31 85.9l257.52 0 0 1.28 -257.53 0Z" transform="rotate(-16.5 136.079 86.5496)"/><path d="M13.53 106.89l257.52 0 0 1.28 -257.53 0Z" transform="rotate(-16.5 142.296 107.538)"/><path d="M45.38 38.4l1.28 0 0 257.52 -1.29 0Z" transform="rotate(-16.5 46.0316 167.165)"/><path d="M66.37 32.18l1.28 0 0 257.52 -1.29 0Z" transform="rotate(-16.5 67.0202 160.947)"/><path d="M87.36 25.96l1.28 0 0 257.52 -1.29 0Z" transform="rotate(-16.5 88.0086 154.73)"/><path d="M108.35 19.74l1.28 0 0 257.52 -1.29 0Z" transform="rotate(-16.5 108.997 148.513)"/><path d="M129.34 13.53l1.28 0 0 257.52 -1.29 0Z" transform="rotate(-16.5 129.986 142.296)"/><path d="M150.33 7.31l1.28 0 0 257.52 -1.29 0Z" transform="rotate(-16.5 150.974 136.079)"/><path d="M171.31 1.09l1.28 0 0 257.52 -1.29 0Z" transform="rotate(-16.5 171.963 129.862)"/><path d="M192.3-5.12l1.28 0 0 257.52 -1.29 0Z" transform="rotate(-16.5 192.951 123.645)"/></g></g></g></g></g><g transform="translate(23.6068 22.7483)"><path fill="#6AABD4" d="M25.75 0l-5.8 33.04 21.24 11.37Z"/><path fill="#E4F6FE" d="M61.59 33.04L25.75-.01 41.2 44.41Z"/><path fill="#A8CCE9" d="M61.59 33.04L41.2 44.41l40.56 23.82Z"/><path fill="#D8E9F8" d="M81.76 68.24L41.19 44.41l19.74 32.62Z"/><path fill="#84C1F2" d="M60.94 77.04L41.19 44.41 -.02 68.23Z"/><path fill="#AECEE9" d="M0 68.24l41.2-23.83 -21.25-11.38Z"/></g></svg>