<svg viewBox="0 0 256 283" xmlns="http://www.w3.org/2000/svg"><path fill="#A4A7AD" d="M243.26 54.87L138.39 2.22c-6.37-2.98-13.59-2.98-19.96-.001l-88.31 43.72 -14.01 7.21c6.36-2.98 13.58-2.98 19.95 0l49.67 22.07 2.54.84 119.72 62.4 -120.15 62.83 -1.28.42 -50.95 26.74c-6.37 2.97-13.59 3.39-19.96 0l-2.55-1.28 104.86 52.21c6.36 2.97 13.58 2.97 19.95 0l105.28-52.65c7.64-3.83 12.73-11.47 12.73-19.96V74.72c-.43-8.5-5.1-16.14-12.74-19.96Z"/><path fill="#4D515D" d="M85.75 75.25L36.07 53.17c-6.37-2.98-13.59-3.4-19.96 0l-2.55 1.27c-.43 0-.43.42-.85.42C5.06 58.68-.03 66.32-.03 74.81v132.03c0 8.49 5.09 16.55 12.73 20.37l2.54 1.27c6.36 2.97 13.58 3.21 19.95.23l51.79-27.03 1.27-125.2 -2.55-1.28Z"/></svg>