<svg viewBox="0 0 512 62" xmlns="http://www.w3.org/2000/svg"><path fill="#47545F" d="M329.96 1.54c3.14 1.19 6.07 2.91 8.65 5.07 .51.35.93.84 1.2 1.41 .21.55.32 1.14.31 1.74 .02.96-.39 1.89-1.12 2.53 -.7.64-1.62 1-2.58.99 -.99-.01-1.95-.36-2.7-1 -1.83-1.63-3.9-2.94-6.15-3.9 -2.5-.88-5.13-1.29-7.77-1.21 -3.91-.03-7.74 1.06-11.04 3.14 -3.38 2.11-6.13 5.07-8.01 8.58 -1.98 3.61-3 7.68-2.96 11.8 -.05 4.13.97 8.21 2.95 11.85 1.88 3.49 4.64 6.43 8 8.53 3.3 2.08 7.13 3.17 11.03 3.14 5.13-.06 10.11-1.82 14.14-5 .72-.57 1.61-.89 2.53-.93 .91-.02 1.78.35 2.4 1.03 .66.75 1 1.72.96 2.72 0 1.07-.43 2.1-1.21 2.84 -5.3 4.37-11.98 6.74-18.85 6.69 -5.31.04-10.51-1.39-15.05-4.13 -4.52-2.69-8.22-6.55-10.74-11.16 -2.64-4.79-3.99-10.17-3.92-15.63 -.07-5.43 1.28-10.77 3.91-15.51 2.52-4.61 6.23-8.46 10.73-11.16 4.53-2.74 9.74-4.16 15.04-4.1 3.43-.08 6.86.44 10.11 1.53Zm91.93 17.15c2.16 0 3.92 1.75 3.92 3.92v18.91c0 4.15 1.11 7.29 3.34 9.42 2.41 2.2 5.61 3.35 8.88 3.19 2.03.02 4.05-.43 5.88-1.32 1.68-.8 3.12-2.03 4.17-3.57 .99-1.48 1.52-3.22 1.5-5V22.6c-.05-1.07.35-2.1 1.11-2.85 1.61-1.44 4.03-1.44 5.64 0v-.03c.73.76 1.12 1.79 1.08 2.84v34.3c.03 1.04-.36 2.05-1.09 2.81 -1.13 1.15-2.85 1.51-4.34.89 -1.5-.63-2.46-2.09-2.43-3.71V56c-1.67 1.65-3.66 2.95-5.85 3.8 -2.3.9-4.75 1.36-7.22 1.34 -3.34.04-6.63-.76-9.57-2.35 -2.83-1.55-5.13-3.89-6.62-6.74 -1.68-3.3-2.51-6.96-2.41-10.65V22.5c0-2.17 1.75-3.93 3.92-3.93Zm88.3-14.52v-.05c.65.83.93 1.89.78 2.94l-3.61 34.85c-.35 3.79-1.7 7.43-3.91 10.54 -4.4 6.17-11.81 9.46-19.33 8.58 -3.78-.35-7.39-1.69-10.47-3.9 -3-2.14-5.36-5.04-6.83-8.42 -1.52-3.5-2.09-7.33-1.65-11.11 .33-3.78 1.59-7.41 3.67-10.57 1.93-2.98 4.63-5.36 7.82-6.9 8.65-4.14 19.03-1.26 24.32 6.74l2.11-20.67c.08-1.05.6-2.01 1.43-2.66 1.75-1.27 4.16-1.02 5.62.57ZM184.07 21.1c2.86 1.74 5.16 4.28 6.61 7.3 1.59 3.37 2.38 7.08 2.3 10.81 0 .87-.36 1.72-.99 2.33 -.63.59-1.46.93-2.32.96l-29.45-.01c.46 3.41 2.2 6.51 4.87 8.68 4.17 3.23 9.69 4.13 14.68 2.4 1.45-.46 2.82-1.14 4.06-2.02 .72-.57 1.61-.87 2.53-.85 .83-.05 1.66.22 2.3.76 .84.61 1.35 1.58 1.38 2.62 0 .92-.45 1.78-1.21 2.3 -1.96 1.49-4.16 2.64-6.51 3.38 -6.17 2.15-12.96 1.63-18.73-1.42 -3.27-1.75-5.97-4.37-7.82-7.58 -1.91-3.35-2.88-7.15-2.82-11 -.05-3.85.87-7.64 2.69-11.03 1.69-3.19 4.25-5.83 7.37-7.62 3.27-1.85 6.97-2.8 10.73-2.73 3.58-.1 7.12.81 10.22 2.62Zm86.95-1.07c2.43.92 4.59 2.46 6.27 4.45 .59.66.94 1.51.99 2.4 -.04.96-.53 1.85-1.32 2.4 -.64.42-1.39.64-2.16.61 -1.35-.01-2.64-.54-3.61-1.47 -1.17-1.11-2.56-1.97-4.08-2.5 -1.7-.53-3.46-.78-5.23-.74 -2.01-.08-4 .33-5.81 1.2 -1.36.56-2.25 1.87-2.28 3.34 -.04.91.23 1.82.76 2.57 .79.88 1.79 1.54 2.92 1.92 2.01.77 4.09 1.37 6.21 1.79 5.6 1.12 9.57 2.69 11.88 4.68 2.29 1.91 3.58 4.77 3.49 7.76 .02 2.28-.65 4.52-1.93 6.41 -1.4 2.03-3.35 3.61-5.62 4.56 -2.85 1.17-5.9 1.73-8.97 1.65 -3.37.02-6.71-.52-9.88-1.62 -2.7-.86-5.16-2.3-7.22-4.24 -.66-.63-1.02-1.5-1-2.41 -.02-1.2.55-2.32 1.53-3.01 .75-.64 1.7-1.02 2.69-1.09 1.12.04 2.17.54 2.92 1.38 1.23 1.25 2.73 2.21 4.38 2.81 1.97.8 4.09 1.21 6.22 1.2 2.35.12 4.7-.38 6.8-1.47 1.47-.76 2.39-2.27 2.4-3.92 -.04-1.66-.96-3.17-2.41-3.97 -2.51-1.38-5.25-2.28-8.08-2.66 -9.84-1.89-14.75-5.94-14.75-12.17 -.07-2.33.73-4.61 2.23-6.39 1.56-1.8 3.58-3.15 5.84-3.92 2.46-.89 5.07-1.33 7.69-1.32 3.06-.06 6.11.49 8.96 1.61Zm127.74 1.15c3.16 1.77 5.77 4.4 7.53 7.57 1.86 3.39 2.8 7.21 2.72 11.08 .06 3.83-.87 7.62-2.7 10.99 -1.75 3.17-4.35 5.79-7.5 7.57 -6.87 3.64-15.1 3.64-21.96 0 -3.18-1.77-5.79-4.39-7.54-7.58 -1.84-3.38-2.76-7.17-2.7-11 -.08-3.87.85-7.69 2.69-11.09 1.74-3.19 4.36-5.81 7.53-7.58 3.36-1.86 7.15-2.8 10.99-2.73 3.8-.07 7.56.87 10.88 2.72ZM112.49.73c1.06-.01 2.08.42 2.83 1.18 .69.7 1.08 1.64 1.11 2.63l0 48.3h27.84c1.42-.01 2.75.76 3.46 2 .71 1.23.71 2.76 0 4 -.72 1.23-2.04 2-3.47 2h-31.85c-1.07.01-2.09-.43-2.81-1.21 -.69-.71-1.09-1.65-1.12-2.63l-.01-52.26c-.02-1.08.42-2.11 1.2-2.85 .71-.77 1.71-1.21 2.76-1.21Zm241.68.52c1.18.68 1.92 1.95 1.92 3.33v41.99c-.07 1.63.31 3.24 1.08 4.68 .49 1.08 1.56 1.8 2.76 1.85h1.92c.95-.04 1.86.36 2.49 1.08 .65.76 1 1.75.96 2.76 0 1.1-.55 2.14-1.47 2.76 -1.11.76-2.44 1.14-3.78 1.08h-.16c-2.13.02-4.2-.61-5.95-1.81 -1.83-1.27-3.25-3.03-4.12-5.08 -1.01-2.32-1.51-4.82-1.47-7.35V4.53c0-1.38.73-2.65 1.92-3.34 1.18-.69 2.65-.69 3.84-.001Zm-147.5 4.09c2.12 0 3.84 1.72 3.84 3.84v11.08h6.53c.96-.05 1.9.28 2.62.92 .65.62 1.02 1.49.99 2.4 .01.87-.35 1.72-1 2.3 -.73.63-1.66.96-2.63.92h-6.54v19.04c-.07 1.86.53 3.69 1.69 5.15 .97 1.31 2.52 2.08 4.15 2.07h2.62c.89-.01 1.74.38 2.31 1.06 .65.76 1 1.75.96 2.76 .02 1.06-.45 2.08-1.28 2.76 -.93.74-2.09 1.13-3.27 1.08h-1.39c-2.44.02-4.82-.66-6.88-1.95 -2.08-1.32-3.77-3.16-4.88-5.35 -1.21-2.36-1.82-4.98-1.77-7.62V26.79h-3.54c-.97.04-1.91-.29-2.63-.93 -.66-.59-1.02-1.43-1-2.31 -.03-.91.33-1.79.99-2.41 .72-.64 1.65-.97 2.62-.93h3.53V9.08c0-2.13 1.72-3.85 3.84-3.85Zm274.02 21.28c-2.2 1.01-4.08 2.59-5.46 4.57 -1.47 2.14-2.34 4.62-2.55 7.21 -.3 2.55.06 5.15 1.04 7.53 .91 2.24 2.42 4.2 4.36 5.67 4.02 2.93 9.31 3.47 13.84 1.41l.01-.07c2.18-1.04 4.05-2.65 5.38-4.67 1.42-2.16 2.29-4.64 2.51-7.22 .3-2.55-.05-5.13-1.01-7.5 -1.45-3.37-4.19-6.01-7.61-7.32 -3.42-1.32-7.22-1.2-10.55.33Zm-99.89.57c-2.08 1.23-3.77 3.01-4.88 5.15 -1.2 2.3-1.81 4.86-1.77 7.46 -.05 2.58.56 5.14 1.76 7.42 1.12 2.12 2.81 3.89 4.87 5.12 4.36 2.46 9.7 2.46 14.07 0 2.05-1.23 3.71-3 4.8-5.12 1.18-2.3 1.77-4.85 1.73-7.43 .04-2.6-.56-5.16-1.74-7.47 -1.09-2.14-2.76-3.93-4.81-5.16 -4.37-2.47-9.71-2.47-14.08 0Zm-216.11.9c-2.39 2.14-3.96 5.05-4.43 8.23h25.61c-.31-3.11-1.67-6.01-3.85-8.24 -2.22-2.1-5.19-3.21-8.24-3.08 -3.32-.15-6.57.95-9.12 3.07Z"/><g transform="translate(0 6.23245)"><path fill="#0DABE3" d="M17.49 42.6h64.62c1.67-.13 3.28.7 4.16 2.14 .87 1.43.87 3.24 0 4.68 -.88 1.43-2.49 2.26-4.17 2.14H17.47c-1.68.12-3.29-.71-4.17-2.15 -.88-1.44-.88-3.25 0-4.69 .87-1.44 2.48-2.27 4.16-2.15Zm71.78-14.63c2.47 0 4.48 2 4.48 4.48 0 2.47-2.01 4.48-4.49 4.48h-60.1c-2.48 0-4.49-2.01-4.49-4.49 0-2.48 2-4.49 4.48-4.49h60.09ZM13.46 13.29c2.5 0 4.54 2.03 4.54 4.54 0 2.5-2.04 4.54-4.55 4.54s-4.55-2.04-4.55-4.55 2.03-4.55 4.54-4.55Zm69.22.02c2.4.07 4.29 2.07 4.23 4.48 .06 2.4-1.83 4.41-4.24 4.48l-56.65.03c-1.16-.04-2.26-.54-3.05-1.39 -.8-.85-1.22-1.98-1.18-3.14 -.07-2.41 1.81-4.41 4.21-4.49h56.64ZM63.41-.02c2.47 0 4.48 2 4.48 4.48 0 2.47-2.01 4.48-4.49 4.48H33.74c-2.48 0-4.49-2.01-4.49-4.49 0-2.48 2-4.49 4.48-4.49h29.65Z"/><path fill="#80D2EB" d="M29.19 36.94H4.47c-2.48 0-4.49-2.01-4.49-4.49 0-2.48 2-4.49 4.48-4.49h24.71c-2.48 0-4.49 2-4.49 4.48 0 2.47 2 4.48 4.48 4.48Z"/></g><path fill="#00AFE6" d="M232.81 18.69a4.54 4.54 0 1 0 0 9.08 4.54 4.54 0 1 0 0-9.09Z"/></svg>