<svg viewBox="0 0 256 256" xmlns="http://www.w3.org/2000/svg" xmlns:xlink="http://www.w3.org/1999/xlink"><defs><mask id="a"><use fill="#FFF" xlink:href="#o"/></mask><linearGradient id="b" x1="49.994%" x2="49.994%" y1=".226%" y2="99.725%"><stop offset="0%" stop-color="#212121" stop-opacity=".04"/><stop offset="66%" stop-color="#212121" stop-opacity="0"/></linearGradient><mask id="c"><path fill="#FFF" d="M29.88-.001H-.01v31.45h29.88c8.68-.01 15.72-7.05 15.72-15.73C45.58 7.02 38.54-.02 29.86-.02Z"/></mask><radialGradient id="d" fr="0%" fx="10.105%" fy="14.269%" cx="10.105%" cy="14.269%" r="144.565%" gradientTransform="translate(.101055.14269)"><stop offset="0%" stop-color="#FFF" stop-opacity=".1"/><stop offset="100%" stop-color="#FFF" stop-opacity="0"/></radialGradient><linearGradient id="e" x1="36.626%" x2="64.01%" y1="20.358%" y2="100.652%" xlink:href="#d"/><linearGradient id="f" x1="68.935%" x2="31.065%" y1="65.756%" y2="35.799%"><stop offset="0%" stop-color="#262626" stop-opacity=".1"/><stop offset="100%" stop-color="#262626" stop-opacity="0"/></linearGradient><linearGradient id="g" x1="62.531%" x2="24.779%" y1="13.086%" y2="100.996%" xlink:href="#f"/><linearGradient id="h" x1="0%" x2="100%" y1="50%" y2="50%" xlink:href="#f"/><radialGradient id="i" fr="0%" fx="14.489%" fy="14.584%" cx="14.489%" cy="14.584%" r="99.973%" xlink:href="#d"/><mask id="j"><use fill="#FFF" xlink:href="#p"/></mask><linearGradient id="k" x1="49.994%" x2="49.994%" y1=".226%" y2="99.725%" xlink:href="#b"/><mask id="l"><path fill="#FFF" d="M34.48 0H-.01v36.3h34.48c10.01 0 18.15-8.14 18.15-18.16s-8.14-18.15-18.16-18.15Z"/></mask><radialGradient id="m" fr="0%" fx="10.105%" fy="14.269%" cx="10.105%" cy="14.269%" r="144.567%" gradientTransform="translate(.101055.14269)" xlink:href="#d"/><radialGradient id="n" fr="0%" fx="14.489%" fy="14.584%" cx="14.489%" cy="14.584%" r="99.973%" xlink:href="#d"/><path id="p" d="M61.7 18.14h-8.83C49.13 7.55 39.05-.01 27.2-.01 12.17-.01-.03 12.18-.03 27.21c0 15.02 12.19 27.22 27.22 27.22h34.48c10.01 0 18.15-8.14 18.15-18.15 0-10.02-8.14-18.16-18.16-18.16Z"/><path id="r" d="M.71.71l12.75 40.28c4.26-4.28 10.83-10.18 10.83-16.7C24.29 11.26 13.72.69.69.69Z"/><path id="s" d="M.44.44l14.71 46.48c4.92-4.94 12.5-11.75 12.5-19.26C27.65 12.63 15.45.43.42.43Z"/><path id="q" d="M127.77 0a127.77 127.77 0 1 0 0 255.55 127.77 127.77 0 1 0 0-255.56Z"/><path id="o" d="M53.48 15.72h-7.65C42.58 6.55 33.85-.01 23.58-.01 10.55-.01-.02 10.55-.02 23.58c0 13.02 10.56 23.59 23.59 23.59h29.88c8.68-.01 15.72-7.05 15.72-15.74 -.01-8.69-7.05-15.73-15.73-15.73Z"/></defs><use fill="#0535C1" xlink:href="#q"/><path fill="none" d="M155.36 58.08l75.5 0 0 75.5 -75.51 0Z"/><g transform="translate(158.51 73.8102)"><g mask="url(#a)"><use fill="#EAEAEA" xlink:href="#o"/><path fill="#FFF" fill-opacity=".2" d="M69.21 31.64v-.19c-.01-8.69-7.05-15.73-15.73-15.73h-7.87v.39h7.86c8.6 0 15.61 6.92 15.72 15.52v-.01Z"/><path fill="url(#b)" d="M77.31 47.19l-53.72 0 22.25-31.47Z"/><g transform="translate(23.5943 15.7295)"><g mask="url(#c)"><g transform="translate(-.719725-16.4492)"><use xlink:href="#r"/><use fill="#E1E1E1" xlink:href="#r"/></g></g></g><path fill="#EEE" d="M23.59 0a23.59 23.59 0 1 0 0 47.18 23.59 23.59 0 1 0 0-47.19Z"/><path fill="#FFF" fill-opacity=".2" d="M23.59.39c12.96 0 23.48 10.46 23.59 23.4v-.19c0-13.03-10.58-23.6-23.6-23.6 -13.03 0-23.6 10.55-23.6 23.57v.18C.08 10.81 10.61.35 23.57.35Z"/><path fill="#212121" fill-opacity=".1" d="M53.48 46.79H23.59C10.63 46.79.1 36.32-.01 23.38v.18c0 13.02 10.56 23.59 23.59 23.59h29.88c8.68-.01 15.72-7.05 15.72-15.73v-.19c-.11 8.61-7.12 15.53-15.73 15.54v-.01Z"/></g></g><path fill="url(#d)" d="M211.99 89.53h-7.65c-3.25-9.17-11.98-15.73-22.25-15.73 -13.03 0-23.6 10.56-23.6 23.59 0 13.02 10.56 23.59 23.59 23.59h29.88c8.68-.01 15.72-7.05 15.72-15.74 -.01-8.69-7.05-15.73-15.73-15.73Z"/><path fill="#FFF176" d="M92.92 53.72l66.79 0 0 58.08 -66.8 0Z"/><path fill="#FFF" d="M85.66 142.29l79.86 0 0 79.86 -79.87 0Z"/><g fill="#F4481E"><path d="M174.23 105.99h11.61v23.23H69.68v-23.24h11.61V59.51l46.46-29.04 46.46 29.03v46.46Zm-23.24 0V72.4l-23.24-14.52 -23.24 14.51v33.58h46.46Z"/><path d="M64.53 238.83l19.68-132.84h87.11l19.67 132.83c-18.65 10.64-40.24 16.72-63.24 16.72 -23.01 0-44.6-6.08-63.25-16.73Zm89.25-92.76l-54.66 17.75 -6.65 44.83 67.33-21.89 -6.04-40.72v0Z"/></g><path fill="url(#e)" d="M174.12 129.22l16.23 109.6c-18.65 10.64-40.24 16.72-63.24 16.72 -23.01 0-44.6-6.08-63.25-16.73L80.09 129.2H69.65v-23.24h11.61V59.49l46.46-29.04 46.46 29.03v46.46h11.61v23.23h-11.73 -.01Z"/><path fill="url(#f)" d="M127.77 105.99l-46.47 0 0-46.47 46.46-29.04Z"/><path fill="url(#g)" d="M127.77 255.55c-22.18.01-43.97-5.75-63.25-16.73l14.55-109.61h48.67v126.32h0Z"/><path fill="url(#h)" d="M69.69 105.99l58.08 0 0 23.23 -58.09 0Z" transform="matrix(-1 0 0 1 197.473 0)"/><use fill="url(#i)" xlink:href="#q"/><path fill="none" d="M27.58 82.76l87.11 0 0 87.11 -87.12 0Z"/><g transform="translate(31.2173 100.913)"><g mask="url(#j)"><use fill="#FAFAFA" xlink:href="#p"/><path fill="#FFF" fill-opacity=".2" d="M79.86 36.51v-.22c0-10.02-8.14-18.16-18.16-18.16h-9.08v.45h9.07c9.93 0 18.02 7.98 18.15 17.91v0Z"/><path fill="url(#k)" d="M89.2 54.44l-61.99 0 25.68-36.31Z"/><g transform="translate(27.225 18.1493)"><g mask="url(#l)"><g transform="translate(-.444998-18.5943)"><use xlink:href="#s"/><use fill="#E1E1E1" xlink:href="#s"/></g></g></g><g fill="#FFF"><path d="M27.22 0a27.22 27.22 0 1 0 0 54.44 27.22 27.22 0 1 0 0-54.45Z"/><path fill="#FFF" fill-opacity=".2" d="M27.22.45c14.95 0 27.09 12.07 27.22 27v-.22C54.44 12.2 42.24 0 27.21 0 12.18 0-.02 12.17-.02 27.2v.21C.1 12.49 12.24.42 27.2.42Z"/></g><path fill="#212121" fill-opacity=".1" d="M61.7 53.99H27.21C12.25 53.99.11 41.91-.02 26.98v.21c0 15.02 12.19 27.22 27.22 27.22h34.48c10.01 0 18.15-8.14 18.15-18.16v-.22c-.13 9.92-8.21 17.93-18.16 17.93Z"/></g></g><path fill="url(#m)" d="M92.92 119.06h-8.83c-3.74-10.59-13.82-18.15-25.67-18.15 -15.03 0-27.23 12.19-27.23 27.22 0 15.02 12.19 27.22 27.22 27.22h34.48c10.01 0 18.15-8.14 18.15-18.15 0-10.02-8.14-18.16-18.16-18.16Z"/><g opacity=".1"><path fill="#FFF" d="M127.77 1.33c70.34 0 127.39 56.84 127.76 127.1 0-.22.01-.44.01-.67 0-70.57-57.21-127.78-127.78-127.78C57.19-.02-.02 57.18-.02 127.75c0 .21.01.43.01.66C.35 58.14 57.4 1.3 127.75 1.3Z"/><path fill="#263238" d="M255.53 127.1c-.37 70.26-57.42 127.1-127.77 127.1C57.41 254.2.36 197.35-.01 127.09c-.001.23-.02.45-.02.66 0 70.56 57.2 127.77 127.77 127.77 70.56 0 127.77-57.21 127.77-127.78 0-.22-.02-.44-.02-.67Z"/></g><use fill="url(#n)" xlink:href="#q"/></svg>