<svg viewBox="0 0 256 239" xmlns="http://www.w3.org/2000/svg" xmlns:xlink="http://www.w3.org/1999/xlink"><defs><linearGradient id="a" x1="50%" x2="50%" y1="0%" y2="100%"><stop offset="0%" stop-color="#4AD8AC"/><stop offset="100%" stop-color="#4076C4"/></linearGradient><linearGradient id="b" x1="50%" x2="50%" y1="0%" y2="100%" xlink:href="#a"/><linearGradient id="c" x1="50%" x2="50%" y1="0%" y2="100%" xlink:href="#a"/><linearGradient id="d" x1="50%" x2="50%" y1="0%" y2="100%" xlink:href="#a"/><linearGradient id="e" x1="50%" x2="50%" y1="0%" y2="100%" xlink:href="#a"/><linearGradient id="f" x1="50%" x2="50%" y1="0%" y2="100%" xlink:href="#a"/></defs><g transform="translate(0 44.4444)"><g fill="#40A0B4"><path d="M238.21 97.21l17.77 10.26 0-96.4L238.2.8Z"/><path d="M0 11.07l0 96.4L17.77 97.2l0-96.41Z"/><path d="M78.232 183.51l17.77 10.26 42.32-24.44 -17.78-10.27Z"/></g><path fill="#338090" d="M103.11 169.14l17.77 10.26 17.44-10.08 -17.78-10.27Z"/></g><g transform="translate(87.1111 133.333)"><g fill="#45C1A8"><path d="M81.77 64.85l0-20.53L5.22.12 -.01 3.13l0 0 0 14.49Z"/><path d="M0 62.81l72.88 42.07 17.78-10.27L-.01 42.26Z"/></g></g><g fill="#7CE1C0"><path d="M194.712 70.37l17.77 10.26 43.5-25.12 -17.79-10.27Z"/><path d="M136.98 124.22l-17.78-10.27 -40.99 23.66 17.77 10.26Z"/><path d="M216.89 32.94L199.1 22.67l-43.51 25.11 17.77 10.26Z"/><path d="M97.88 101.65L80.1 91.38l-40.99 23.66 17.77 10.26Z"/><path d="M116.5 25.22l17.77 10.26 43.5-25.12L159.98.09Z"/><path d="M.01 92.47l17.77 10.26 40.98-23.67 -17.78-10.27Z"/></g><g transform="translate(0 92.4444)"><path fill="url(#a)" d="M238.21 10.28l0 90.32 17.77-10.27 0-90.33Z"/><path fill="url(#b)" d="M216.88 112.93l0-90.33 -17.78 10.26 0 90.32Z"/><path fill="url(#c)" d="M159.99 55.45l0 90.32 17.77-10.27 0-90.33Z"/><path fill="url(#d)" d="M78.232 135.51l17.77 10.26 0-90.33 -17.78-10.27Z"/><path fill="url(#e)" d="M56.89 32.87l0 90.32 -17.78-10.27 0-90.33Z"/><path fill="url(#f)" d="M0 90.35l17.77 10.26 0-90.33L-.01.01Z"/></g><g transform="translate(24.8889 67.5556)"><g fill="#45C1A8"><path d="M78.21 55.7l17.77 10.26 16.1-9.3L94.3 46.39Z"/><path d="M.01 10.55l17.77 10.26 16.1-9.3L16.1 1.24Z"/><path d="M39.11 33.13l17.77 10.26 16.1-9.3L55.2 23.82Z"/></g></g><g fill="#A2EACF"><path d="M96 .09L78.22 10.35l159.99 92.37 17.77-10.27Z"/><path d="M56.88 22.67L39.1 32.93l159.99 92.37 17.78-10.27Z"/><path d="M0 55.51l159.99 92.37 17.78-10.27 -160-92.38Z"/></g></svg>