<svg viewBox="0 0 256 256" xmlns="http://www.w3.org/2000/svg"><path fill="#69B53F" d="M128 10a118 118 0 1 0 0 236 118 118 0 1 0 0-236Z"/><path fill="#FFF" d="M128 0C57.3 0 0 57.3 0 128c0 70.69 57.3 128 128 128 70.69 0 128-57.31 128-128C256 57.3 198.69 0 128 0Zm0 20c59.64 0 108 48.35 108 108 0 59.64-48.36 108-108 108 -59.65 0-108-48.36-108-108C20 68.35 68.35 20 128 20Z"/><path fill="#F8F8F8" d="M78.5 62.5V153c0 10.77 8.42 19.31 19.15 19.49l.34 0h60c10.77 0 19.31-8.43 19.49-19.16l0-.35v-50c0-5.37-4.14-9.5-9.5-9.5 -5.28 0-9.36 3.99-9.5 9.22l-.01.27v50.5h-21v-50.5c0-5.37-4.14-9.5-9.5-9.5 -5.28 0-9.36 3.99-9.5 9.22l-.01.27v50.5h-21v-50.5c0-16.73 13.77-30.5 30.5-30.5 7.03 0 13.73 2.51 19.17 6.99l.39.33 .42.36 .43-.38c5.25-4.47 11.71-7.07 18.53-7.31l.52-.02 .5-.01c16.55 0 30.22 13.49 30.49 29.99l0 .5v50c0 22.02-17.89 40.13-39.84 40.49l-.67 0h-60c-22.03 0-40.14-17.89-40.5-39.84l-.01-.67v-90.5h21Z"/></svg>