<svg viewBox="0 0 256 295" xmlns="http://www.w3.org/2000/svg" xmlns:xlink="http://www.w3.org/1999/xlink"><defs><linearGradient id="a" x1="48.547%" x2="51.047%" y1="115.276%" y2="41.363%"><stop offset="0%" stop-color="#FFEED7"/><stop offset="100%" stop-color="#BDBFC2"/></linearGradient><linearGradient id="b" x1="54.406%" x2="46.175%" y1="2.404%" y2="90.542%"><stop offset="0%" stop-color="#FFF" stop-opacity=".8"/><stop offset="100%" stop-color="#FFF" stop-opacity="0"/></linearGradient><linearGradient id="c" x1="51.859%" x2="47.946%" y1="88.247%" y2="9.747%" xlink:href="#a"/><linearGradient id="d" x1="49.925%" x2="49.923%" y1="85.49%" y2="13.81%" xlink:href="#a"/><linearGradient id="e" x1="53.901%" x2="45.955%" y1="3.101%" y2="93.894%"><stop offset="0%" stop-color="#FFF" stop-opacity=".65"/><stop offset="100%" stop-color="#FFF" stop-opacity="0"/></linearGradient><linearGradient id="f" x1="45.592%" x2="54.811%" y1="5.474%" y2="93.523%" xlink:href="#e"/><linearGradient id="g" x1="49.984%" x2="49.984%" y1="89.845%" y2="40.631%" xlink:href="#a"/><linearGradient id="h" x1="53.504%" x2="42.745%" y1="99.975%" y2="23.545%" xlink:href="#a"/><linearGradient id="i" x1="49.841%" x2="50.241%" y1="13.228%" y2="94.672%" xlink:href="#b"/><linearGradient id="j" x1="49.927%" x2="50.727%" y1="37.327%" y2="92.782%" xlink:href="#e"/><linearGradient id="k" x1="49.875%" x2="49.875%" y1="2.299%" y2="81.203%" xlink:href="#e"/><linearGradient id="l" x1="49.833%" x2="49.824%" y1="2.271%" y2="71.798%" xlink:href="#e"/><linearGradient id="m" x1="53.467%" x2="38.948%" y1="48.921%" y2="98.099%"><stop offset="0%" stop-color="#FFA63F"/><stop offset="100%" stop-color="#FF0"/></linearGradient><linearGradient id="n" x1="52.373%" x2="47.579%" y1="143.008%" y2="-64.622%" xlink:href="#a"/><linearGradient id="o" x1="30.58%" x2="65.886%" y1="34.024%" y2="89.175%" xlink:href="#m"/><linearGradient id="p" x1="59.571%" x2="48.36%" y1="-17.216%" y2="66.118%" xlink:href="#e"/><linearGradient id="q" x1="47.768%" x2="51.373%" y1="1.564%" y2="104.312%" xlink:href="#e"/><linearGradient id="r" x1="43.549%" x2="57.114%" y1="4.533%" y2="92.826%" xlink:href="#e"/><linearGradient id="s" x1="49.732%" x2="50.558%" y1="17.608%" y2="99.385%" xlink:href="#m"/><linearGradient id="t" x1="50.169%" x2="49.68%" y1="2.89%" y2="94.17%" xlink:href="#e"/></defs><g transform="translate(10 0)"><path fill-opacity=".2" d="M235.12 249.35c0 17.35-52.62 31.49-117.55 31.49s-117.55-14.05-117.55-31.5v0c0-17.36 52.61-31.5 117.54-31.5 64.92 0 117.44 14.14 117.54 31.49v0 0Z"/><path d="M53.21 215.47c-11.39-16.35-13.6-69.61 12.94-102.39 13.13-15.71 16.52-26.64 17.53-41.42 .73-16.81-11.85-66.86 35.53-70.62 48.02-3.86 45.36 43.52 45.08 68.59 -.19 21.12 15.51 33.15 26.35 49.67 19.92 30.3 18.27 82.46-3.77 110.74 -27.92 35.35-51.8 20.01-67.68 21.3 -29.76 1.74-30.77 17.53-66.03-35.91v0Z"/><path fill="url(#a)" d="M169.1 122.45c8.26 7.62 29.66 41.69-4.23 62.99 -11.94 7.43 10.65 35.72 21.48 22.03 19.19-24.62 6.97-63.92-4.6-77.97 -7.72-9.92-19.66-13.78-12.68-7.08v0Z"/><path stroke="#000" stroke-width=".977" d="M166.8 117.85c13.59 11.01 38.29 49.58 2.2 74.74 -11.85 7.8 10.46 32.5 23.04 19.92 43.61-43.9-1.11-94.31-16.53-111.67 -13.78-15.16-25.99 3.48-8.73 16.98v0Z"/><path fill="url(#b)" d="M147.24 25.02c-.46 12.58-14.33 23.5-30.95 24.51 -16.63 1.01-29.67-8.55-29.21-21.13v0c.45-12.59 14.32-23.51 30.94-24.52 16.62-.92 29.66 8.54 29.2 21.12v0 0Z"/><path fill="url(#c)" d="M107.48 54.95c.45 8.17-3.4 15.05-8.73 15.33 -5.33.27-10.01-6.07-10.47-14.24v0c-.46-8.18 3.39-15.06 8.72-15.34 5.32-.28 10 6.06 10.46 14.23v0 0Z"/><path fill="url(#d)" d="M117.12 55.59c.18 9.45 6.33 16.98 13.68 16.8 7.34-.19 13.13-7.99 12.94-17.54v0c-.19-9.46-6.34-16.99-13.69-16.81 -7.35.18-13.23 8.08-12.95 17.53v0 0Z"/><g><path d="M123.18 57.71c-.1 5.23 2.47 9.45 5.87 9.45 3.3 0 6.15-4.23 6.24-9.37v0c.09-5.24-2.48-9.46-5.88-9.46s-6.16 4.22-6.25 9.36v0 0Z"/><path d="M101.97 57.8c.45 4.31-1.2 7.98-3.59 8.35 -2.39.27-4.69-2.94-5.15-7.26v0c-.46-4.32 1.19-7.99 3.58-8.36 2.38-.28 4.68 2.93 5.14 7.25v0 0Z"/></g><path fill="url(#e)" d="M124.56 54.77c-.28 2.93 1.1 5.32 3.03 5.5 1.92.18 3.76-2.12 4.04-4.96v0c.27-2.94-1.11-5.33-3.04-5.51 -1.93-.19-3.77 2.11-4.05 4.95v0 0Z"/><path fill="url(#f)" d="M99.95 55.5c.27 2.38-.74 4.49-2.21 4.68 -1.47.18-2.85-1.66-3.13-4.14v0c-.28-2.39.73-4.5 2.2-4.69 1.46-.19 2.84 1.74 3.12 4.13v0 0Z"/><path fill="url(#g)" d="M71.02 145.68c6.51-14.79 20.38-40.78 20.66-60.89 0-15.98 47.84-19.84 51.69-3.86 3.85 15.97 13.59 39.85 19.83 51.42 6.24 11.47 24.33 48.11 5.05 80.07 -17.36 28.28-69.98 50.68-98.08-3.86 -9.56-18.92-7.81-42.34.82-62.91v0Z"/><path fill="url(#h)" d="M65.15 134.66c-5.61 10.56-17.18 38.29 11.11 53.44 30.39 16.16 30.3 49.31-6.25 33.51 -33.43-14.24-18.65-71.91-9.28-85.68 6.06-9.65 15.24-21.49 4.4-1.29v0Z"/><path stroke="#000" stroke-width="1.25" d="M69.92 122.72c-8.91 14.5-30.22 48.66-1.66 66.48 38.38 23.6 27.54 47.1-7.53 25.89 -49.41-29.57-5.97-89.26 13.77-112.04 22.58-25.53 4.31 4.68-4.6 19.65v0Z"/><path fill="url(#i)" d="M156.42 151.28c0 16.16-15.52 37.09-42.15 36.91 -27.46.18-39.12-20.76-39.12-36.92 0-16.17 18.18-29.3 40.58-29.3 22.49.09 40.68 13.13 40.68 29.29v0Z"/><path fill="url(#j)" d="M141.91 100.5c-.28 16.71-11.21 20.66-24.98 20.66 -13.78 0-23.79-2.48-24.98-20.67 0-11.39 11.2-18 24.97-18 13.77-.1 24.97 6.51 24.97 17.99v0Z"/><path fill="url(#k)" d="M58.63 126.21c8.99-13.69 28-34.72 3.58 2.93 -19.84 31.03-7.35 50.96-.92 56.47 18.54 16.52 17.81 27.64 3.21 18.91 -31.32-18.65-24.8-50.05-5.88-78.33v0Z"/><path fill="url(#l)" d="M188.93 131.81c-7.81-16.08-32.6-56.85 1.19-9.46 30.76 42.88 9.18 72.72 5.32 75.66 -3.86 2.93-16.81 8.9-13.04-1.47 3.85-10.38 22.95-30.03 6.51-64.74v0Z"/><path fill="url(#m)" stroke="#E68C3F" stroke-width="6.25" d="M51.83 258.54c-20.57-10.93-50.42 2.11-39.58-27.46 2.2-6.71-3.22-16.81.27-23.33 4.13-7.99 13.03-6.25 18.36-11.58 5.23-5.51 8.54-15.06 18.36-13.6 9.73 1.46 16.25 13.4 23.04 28.09 5.05 10.46 22.86 25.25 21.67 37C92.48 265.65 72 269.05 51.8 258.49v0Z"/><path fill="url(#n)" d="M201.6 189.11c-3.13 5.87-16.17 15.33-24.89 12.85 -8.82-2.39-12.86-15.8-11.12-25.99 1.65-11.39 11.11-12.03 23.04-6.34 12.85 6.33 16.71 11.66 12.94 19.46v0Z"/><path fill="url(#o)" stroke="#E68C3F" stroke-width="6.25" d="M194.44 253.49c15.05-18.28 48.57-14.51 25.98-39.58 -4.78-5.42-3.31-16.99-9.19-21.95 -6.89-6.07-14.51-1.11-21.49-4.23 -6.98-3.4-14.33-9.92-22.87-5.33 -8.55 4.68-9.46 16.8-10.29 32.78 -.74 11.47-11.21 30.67-5.61 41.23 8.08 16.34 29.1 14.14 43.43-2.94v0Z"/><path fill="url(#p)" d="M187.92 229.06c23.32-34.44 5.96-34.17.09-36.83 -5.88-2.76-12.03-8.18-18.92-4.41 -6.89 3.85-7.26 13.77-7.44 26.81 -.28 9.36-8.09 25.06-3.4 33.79 5.69 10.19 19.46-4.6 29.66-19.38v0Z"/><path fill="url(#q)" d="M47.06 234.02c-34.9-22.59-18.55-30.31-13.32-33.89 6.33-4.6 6.42-13.41 14.23-12.59 7.8.82 12.39 10.46 17.63 22.4 3.85 8.54 17.26 19.92 16.25 29.75 -1.29 11.57-19.75 3.94-34.81-5.7v0Z"/><path d="M199.58 188.84c-2.76 4.77-13.96 12.3-21.4 10.28 -7.63-1.93-11.12-12.68-9.56-20.76 1.37-9.19 9.55-9.65 19.83-5.06 10.92 4.95 14.32 9.18 11.11 15.51v0Z"/><path fill="url(#r)" d="M192.05 186.18c-1.75 3.3-9.1 8.54-14.24 7.16 -5.15-1.38-7.72-8.82-6.89-14.42 .73-6.34 6.24-6.71 13.22-3.59 7.52 3.48 9.91 6.42 7.89 10.83v0Z"/><g stroke-width="3.75" fill="url(#s)" stroke="#E68C3F"><path d="M97.1 66.34c3.67-3.4 12.58-13.78 29.47-2.94 3.12 2.02 5.69 2.2 11.66 4.77 12.02 4.95 6.33 16.89-6.52 20.93 -5.51 1.74-10.47 8.44-20.39 7.8 -8.55-.46-10.75-6.07-15.98-9.1 -9.28-5.24-10.66-12.31-5.61-16.08 5.05-3.77 6.97-5.15 7.34-5.42v0Z"/><path fill="none" stroke-width="2.5" d="M138.42 75.98c-5.06.27-15.98 11.2-27.46 11.2s-18.37-10.66-20.12-10.66"/></g><path fill="url(#t)" d="M102.8 65.42c1.83-1.66 7.62-6.16 15.24-1.57 1.65.91 3.3 1.92 5.69 3.3 4.86 2.84 2.47 6.97-3.4 9.55 -2.67 1.1-7.08 3.48-10.38 3.3 -3.68-.37-6.16-2.76-8.55-4.32 -4.5-2.94-4.23-5.42-2.12-7.35 1.56-1.47 3.3-2.85 3.48-2.94v0Z"/></g></svg>