<svg viewBox="0 0 512 242" xmlns="http://www.w3.org/2000/svg"><path d="M475.25 93.96v34.69h36.74v18.79h-36.75v42.88c0 4.33.12 8.67.6 12.4 .96 6.38 4.81 12.64 10.11 15.05 6.86 3.13 11.68 2.52 26.02 2.04l-3.5 20.72c-.97.48-4.82.36-8.44.36 -8.44 0-40.24 3.01-46.75-29.76 -1.09-5.67-.85-11.45-.85-20.36v-43.13h-16.39l.24-19.16h16.14V93.9h22.76Zm-62.29 34.57v110.23h-22.65V128.52h22.64Zm0-34.58v19.63h-22.89V93.94h22.88ZM312.24 217.07h58.06l-21.69 21.68h-59.52V93.94h23.13v123.12Z"/><path fill="#00E8FF" d="M48.18 144.56l19.52-33.68 28.78-14.4 48.16 48.16 8.15 46.49 -8.26 49.77 -48.19-48.19 -28.67-19.29Z"/><path fill="#283198" d="M96.37 192.75V96.37l48.18-48.19v96.37l-48.19 48.18Zm-96.38 0l48.18 48.18 6.92-45.63 -6.93-50.75 -28.27 17.85 -19.93 30.33Z"/><path fill="#324FFF" d="M48.18 144.56V48.18L96.36-.01v96.37l-48.19 48.18Zm96.37 96.37v-96.38l48.18-48.19v96.37l-48.19 48.18ZM-.02 192.74V96.36l48.18 48.18 -48.19 48.18Z"/><path fill="#0FF" d="M48.18 240.94l0-96.38 48.18 48.18Z"/></svg>