<svg viewBox="0 0 256 233" xmlns="http://www.w3.org/2000/svg"><g fill-rule="evenodd"><path d="M.38 0h23.79v157.89h94.08v19.46H.37V-.01L.36-.02Z"/><path d="M183.15 46.5c16.22-2.17 33.52 1.08 46.5 11.89 14.05 9.73 21.62 27.03 22.71 43.25 2.16 19.46 0 38.93-10.82 55.15 -9.74 12.97-24.88 21.62-42.18 22.71 -16.23 2.16-34.61-1.09-48.67-11.9 -12.98-10.82-19.47-27.04-21.63-43.26 -2.17-17.31 0-36.77 10.81-51.92 8.65-15.15 25.95-24.88 43.25-25.96v0Zm3.24 18.38c10.81-1.09 22.71 2.16 31.36 9.73 7.57 8.65 11.89 19.46 12.97 30.28 1.08 11.89 0 24.87-5.41 35.68 -5.41 10.81-15.15 18.38-27.04 20.54 -10.82 2.16-22.72-1.09-30.29-7.58 -8.66-6.49-14.06-16.23-16.23-25.96 -2.17-14.06-1.09-28.12 4.32-41.1 5.4-11.9 17.3-20.55 30.28-21.63h0Z"/><path fill="#3492FF" d="M.38 205.47H255.6v27.03H.37v-27.04 0Z"/></g></svg>