<svg viewBox="0 0 256 256" xmlns="http://www.w3.org/2000/svg"><path fill="#F47721" d="M201.73 255.65H53.58c-29.52 0-53.36-23.84-53.36-53.36V53.57C.22 24.05 24.05.21 53.57.21h148.14c29.51 0 53.35 23.83 53.35 53.35v148.71c0 29.51-23.84 53.35-53.36 53.35Z"/><path fill="#FFF" d="M202.29 71.74c2.27-1.71 5.1-3.41 7.37-5.11 -1.14-3.98-3.41-7.38-5.68-10.79 -2.84 1.13-5.11 2.83-7.95 3.97 -1.71-1.14-3.41-2.84-5.68-3.98 .56-2.84 1.13-6.25 1.7-9.09 -3.98-1.14-7.95-2.84-11.92-3.41 -1.14 2.83-1.71 5.67-2.84 8.51 -2.28 0-4.55.56-6.25 1.13 -1.71-2.28-3.41-5.11-5.11-7.38 -3.98 1.13-7.38 3.4-10.79 6.24 1.13 2.83 2.27 5.67 3.97 8.51 -1.71 1.7-2.84 3.4-3.98 5.1 -2.84-.57-6.25-1.14-9.09-1.71 -1.14 3.97-2.28 7.94-3.41 11.91 2.83 1.13 5.67 2.27 8.51 2.83 0 2.27.56 4.54.56 6.81 -2.28 1.7-5.11 3.4-7.38 5.1 1.13 3.97 3.4 7.37 6.24 10.78 2.83-1.14 5.67-2.84 8.51-3.98 1.7 1.7 3.4 2.83 5.1 3.97 -.57 2.83-1.14 6.24-1.71 9.08 3.97 1.7 7.94 2.27 11.91 2.83 .56-2.84 1.7-5.68 2.83-8.52 2.27 0 4.54-.57 6.81-.57 1.7 2.27 3.4 5.1 5.1 7.37 3.97-1.71 7.37-3.41 10.21-6.25 -1.14-2.84-2.84-5.68-3.98-8.52 1.13-1.71 2.83-3.41 3.97-5.11 2.83.56 6.24 1.13 9.08 1.7 1.13-3.98 2.83-7.95 3.4-11.92 -2.84-.57-5.68-1.71-8.52-2.84 0-2.28-.57-4.55-1.14-6.82v0Zm-12.49 7.94c0 7.37-7.95 12.48-14.76 10.21 -6.25-1.71-10.22-9.09-7.95-15.33 1.13-3.98 4.54-6.25 7.94-7.38 7.37-2.28 15.32 4.54 14.75 12.48v0Z"/><path fill="#F36D21" d="M177.32 61.53a17.02 17.02 0 1 0 0 34.05 17.02 17.02 0 1 0 0-34.06Z"/><path fill="#FFF" d="M127.37 193.21c13.62-.57 22.7 9.08 33.48 14.75 15.89 8.51 31.21 6.81 43.13-7.38 5.67-6.82 8.51-13.63 8.51-21.01v0c0-6.82-2.84-14.2-7.95-20.44 -11.92-14.76-27.25-14.76-43.14-6.82 -5.68 2.83-10.79 7.37-17.03 10.21 -14.76 6.81-28.95 6.24-42.01-5.68 -13.06-12.49-17.6-26.68-9.65-43.14 2.83-5.68 6.81-11.36 9.64-17.03 9.08-16.47 10.78-32.93-4.55-45.98 -6.25-5.68-13.63-7.95-20.44-7.95v0c-6.82 0-14.2 2.83-21.01 7.94 -15.9 12.48-17.6 30.08-6.82 45.4 15.89 22.13 17.59 42 .56 64.13 -10.79 14.19-10.79 30.65 2.83 43.7 6.81 6.81 14.19 9.64 21.56 9.64v0c7.37 0 15.32-2.84 22.7-7.38 9.64-6.25 18.16-14.2 30.08-13.06v0Z"/></svg>