<svg viewBox="0 0 512 96" xmlns="http://www.w3.org/2000/svg"><g fill="#192D41"><path d="M296.12 31.54c-7.94 0-13.19 3.33-20.23 8.92V.99l-1.93-1.01 -24.32 11.49v1.76l9.4 5.78v71.82c8.64 3.76 16.38 4.77 24.31 4.77 17.72 0 35.2-12.07 35.2-34.69 -.07-16.91-9.6-29.42-22.47-29.42Zm-8.96 55.36c-4.74 0-8.33-2.14-11.34-5.79V45.16c3.41-.82 6.91-1.26 10.43-1.32 8.64 0 14.33 7.03 14.33 21.3 .06 13.82-4.36 21.73-13.44 21.73v0Zm85.43-2.71V56.1c0-15.97-6.15-24.64-21.57-24.64 -9.99 0-18.18 3.58-25.35 10.61l2.74 5.46c5.24-3.33 10.24-5.35 15.36-5.35 8.51 0 11.84 5.02 11.84 14.82v2.57C330.26 62.14 322.9 70.5 322.9 81.3c0 10.61 7.48 14.26 14.52 14.26 6.01 0 12.16-2.58 18.17-6.61v5.02h24.19v-9.18h-6.6l-.65-.7v-.01ZM355.75 84c-2.58.75-5.25 1.19-7.94 1.31 -5 0-8.51-2.45-8.33-7.92 .12-6.48 4.86-9.62 16.25-10.62v17.22h-.01Zm64.83 1.63c-10.12 0-19.65-8.05-19.65-26.08 0-12.82 3.97-19.74 11.45-19.74 3.07 0 5.43 1.13 8.06 3.32l11.13 14.64h1.91V34.64c-5.5-2.02-11.3-3.08-17.16-3.15 -20.55 0-33.28 14.64-33.28 33.49 0 18.41 11.7 30.48 30.01 30.48 8.44.12 16.64-2.85 23.04-8.37l-2.76-5.03c-4.42 2.51-8.13 3.51-12.8 3.51v-.01Zm82.3-.76L483.1 57.53l25.92-23.44v-1.14h-32.39v1.25l8.38 8.04 -18.76 19.6 22.52 32.23h23.16v-9.24h-9.09v-.01Z"/><path d="M465.08 84.2V1l-2.05-1.01 -24.2 11.49v1.69l9.41 5.78v65.23l-.77.69h-6.6v9.23h31.55v-9.24h-6.59l-.77-.7v-.01ZM15.03 9.48H-.01v84.77h50.87V80.61H15.02V9.47Zm68.41 22.18c-18.57 0-32.58 13.76-32.58 31.98s14.01 32.11 32.57 32.11c18.56 0 32.7-13.83 32.7-32.12s-14.02-31.99-32.71-31.99v0Zm0 50.77c-10.37 0-18.18-8.05-18.18-18.73 0-10.69 7.8-18.67 18.17-18.67 10.24 0 18.3 8.16 18.3 18.6 0 10.68-7.81 18.78-18.31 18.78Zm70.14-50.84c-18.57 0-32.58 13.76-32.58 31.98s14.01 32.11 32.57 32.11c18.56 0 32.7-13.83 32.7-32.12s-14.09-31.99-32.71-31.99Zm0 50.71c-10.37 0-18.18-8.05-18.18-18.73 0-10.69 7.8-18.61 18.17-18.61 10.24 0 18.3 8.16 18.3 18.6 0 10.68-7.88 18.72-18.31 18.72Zm93.05-49.27h-19.59L208.41 52V6.37h-14.4v87.72h14.4V67.13l25.21 26.96h18.88l-32.26-34.57 26.36-26.53v0Z"/></g></svg>