<svg viewBox="0 0 256 413" xmlns="http://www.w3.org/2000/svg"><path fill="#34A853" d="M127.12 0c-13.34 0-25.58 7.36-31.84 19.12 -6.27 11.76-5.54 26.02 1.9 37.09l15.41-15.4c-.51-1.54-.77-3.15-.77-4.77 0-8.41 6.81-15.22 15.21-15.22 8.4 0 15.21 6.81 15.21 15.21 0 8.4-6.82 15.21-15.22 15.21 -1.62 0-3.22-.26-4.74-.77l-15.4 15.39c12.81 8.69 29.75 8.23 42.08-1.15 12.32-9.38 17.28-25.58 12.33-40.25C156.33 9.78 142.56-.09 127.07-.07v0Z"/><path fill="#FBBC04" d="M112.78 105.11c.02-12.19-3.93-24.05-11.24-33.79L81.53 91.29c6.25 11.44 4 25.66-5.48 34.6l10.86 26.56c16.1-10.38 25.84-28.22 25.84-47.38Z"/><path fill="#EA4335" d="M56.88 133.78h-.53c-12.27 0-23.18-7.8-27.16-19.41 -3.98-11.61-.13-24.46 9.56-31.98 9.69-7.52 23.09-8.04 33.34-1.31l19.8-19.81C72.63 45.65 45.43 44.45 24.87 58.3 4.3 72.14-4.8 97.8 2.43 121.51c7.22 23.71 29.09 39.92 53.88 39.94 3.82 0 7.64-.38 11.39-1.14l-10.87-26.59Z"/><path fill="#4285F4" d="M127.88 156.76c-12.52-.02-24.97 1.81-36.96 5.41l15.84 38.71c6.89-1.71 13.98-2.58 21.08-2.57 41.18.01 76.62 29.11 84.64 69.5 8.02 40.39-13.6 80.83-51.65 96.58 -38.06 15.75-81.94 2.43-104.81-31.81 -22.88-34.25-18.38-79.89 10.74-109.01 6.07-6.06 13.01-11.19 20.58-15.22l-15.68-38.61c-58.43 28.61-86.1 96.5-64.3 157.8 21.79 61.29 86.1 96.49 149.48 81.8 63.37-14.69 105.65-74.59 98.25-139.23 -7.4-64.64-62.11-113.45-127.16-113.44l-.11.02Z"/></svg>