<svg viewBox="0 0 256 515" xmlns="http://www.w3.org/2000/svg"><path fill="#E54537" d="M15.11 142.74c2.13 0 4.29-.46 6.35-1.42L247.25 36.33c7.56-3.52 10.84-12.5 7.32-20.06 -3.52-7.57-12.5-10.85-20.06-7.33L8.71 113.92c-7.57 3.51-10.85 12.497-7.33 20.05 2.55 5.5 8 8.73 13.7 8.73Zm219.41-69.61L8.72 178.11c-7.57 3.51-10.85 12.49-7.33 20.05 2.55 5.5 8 8.73 13.7 8.73 2.13 0 4.29-.46 6.35-1.42l225.79-104.99c7.56-3.52 10.84-12.5 7.32-20.06 -3.52-7.57-12.5-10.85-20.06-7.33Zm0 64.71L8.72 242.82c-7.57 3.51-10.85 12.49-7.33 20.05 2.55 5.5 8 8.738 13.7 8.738 2.13 0 4.29-.46 6.35-1.42l225.79-104.99c7.56-3.52 10.84-12.5 7.32-20.06 -3.52-7.57-12.5-10.85-20.06-7.33ZM15.1 78.72c2.13 0 4.3-.46 6.37-1.42l104.08-48.54c7.55-3.53 10.82-12.51 7.3-20.07 -3.53-7.56-12.52-10.83-20.07-7.31L8.69 49.91C1.13 53.43-2.14 62.42 1.38 69.97c2.56 5.49 8 8.72 13.69 8.72Zm219.35 123.31l-79.82 37.52c-5.3 2.48-8.68 7.81-8.68 13.66v75.37h-34.88v-56.27c0-8.35-6.76-15.11-15.1-15.11 -8.35 0-15.11 6.76-15.11 15.1v56.26H59.21c-6.43 0-11.29 5.81-10.15 12.13l5.09 28.27c.88 4.91 5.15 8.48 10.14 8.48h52.98l-56.12 10.19c-4.11.74-6.83 4.67-6.08 8.77 .66 3.64 3.84 6.2 7.42 6.2 .44 0 .9-.04 1.35-.13l128.71-23.38c2-.37 3.66-1.5 4.77-3.03 2.66-1.52 4.62-4.18 5.11-7.39l4.36-28.28c.96-6.25-3.87-11.89-10.2-11.89h-20.52V262.71l71.14-33.45c7.54-3.55 10.78-12.55 7.24-20.09 -3.55-7.55-12.54-10.79-20.09-7.25ZM189.9 402.78L61.18 426.14c-4.11.74-6.83 4.67-6.09 8.77 .66 3.64 3.84 6.2 7.42 6.2 .44 0 .9-.04 1.35-.13l128.71-23.37c4.1-.75 6.82-4.68 6.08-8.78 -.75-4.11-4.68-6.84-8.78-6.08Zm0 39.9L61.18 466.04c-4.11.74-6.83 4.67-6.09 8.77 .66 3.64 3.84 6.2 7.42 6.2 .44 0 .9-.04 1.35-.13l128.71-23.37c4.1-.75 6.82-4.68 6.08-8.78 -.75-4.11-4.68-6.84-8.78-6.08Zm-15.4 40.25l-96 16.54c-4.11.7-6.87 4.61-6.16 8.72 .63 3.67 3.82 6.27 7.43 6.27 .42 0 .85-.04 1.29-.12l95.99-16.54c4.1-.71 6.86-4.62 6.15-8.73s-4.61-6.86-8.73-6.16Z"/></svg>