<svg viewBox="0 0 256 199" xmlns="http://www.w3.org/2000/svg"><path fill="#6C6BBD" d="M162.61 141.31l-69.23 0 0-124.41 69.22 0Z"/><path fill="#D32011" d="M97.78 79.11c0 25.23 11.81 47.71 30.21 62.2 -13.46 10.59-30.44 16.91-48.9 16.91 -43.7 0-79.11-35.43-79.11-79.12 0-43.7 35.41-79.12 79.1-79.12 18.45 0 35.43 6.32 48.89 16.91 -18.4 14.48-30.22 36.96-30.22 62.2" transform="matrix(1 0 0-1 0 158.233)"/><path fill="#0099DF" d="M256 79.11c0-43.7-35.42-79.12-79.11-79.12 -18.46 0-35.44 6.32-48.9 16.91 18.4 14.48 30.22 36.96 30.22 62.2 0 25.23-11.82 47.71-30.23 62.2 13.46 10.59 30.44 16.91 48.89 16.91 43.69 0 79.1-35.43 79.1-79.12" transform="matrix(1 0 0-1 0 158.233)"/><path fill="#110F0D" d="M186.03 192.82c.92 0 2.24-.18 3.25-.58l-1.41-4.31c-.97.39-1.94.52-2.86.52 -2.99 0-4.49-1.94-4.49-5.41v-11.79h-4.58v21h4.52v-2.56c1.18 1.84 2.9 3.07 5.53 3.07v0Zm-16.9-4.71h-7.47v-9.5c0-2.11.74-3.52 3.03-3.52 1.18 0 2.68.39 4.03 1.18l1.31-3.91c-1.45-1.02-3.74-1.63-5.71-1.63 -5.41 0-7.3 2.9-7.3 7.78v9.57h-4.27v4.17h4.26v6.37h4.61v-6.38h7.46v-4.18 0Zm-58.5-4.49c.48 3.03 2.32 5.1 5.58 5.1 2.94 0 4.83-1.85 5.31-5.11h-10.9Zm15.64-1.85c-.05 6.54-4.09 11.03-9.98 11.03 -6.16 0-10.46-4.49-10.46-11.04 0-6.68 4.48-11.03 10.76-11.03 3.16 0 6.06.78 8.61 2.94l-2.25 3.38c-1.76-1.41-4-2.2-6.11-2.2 -2.95 0-5.63 1.36-6.29 5.14h15.59c.04.57.09 1.14.09 1.75v0Zm20.07 5.14c-1.28.79-3.87 1.8-6.55 1.8 -2.51 0-4-.93-4-2.47 0-1.41 1.57-1.81 3.55-2.07l2.15-.31c4.57-.67 7.33-2.6 7.33-6.29 0-4-3.52-6.86-9.58-6.86 -3.44 0-6.6.88-9.1 2.72l2.15 3.56c1.53-1.19 3.82-2.2 6.99-2.2 3.11 0 4.78.92 4.78 2.55 0 1.18-1.19 1.84-3.7 2.19l-2.16.3c-4.71.66-7.26 2.77-7.26 6.19 0 4.17 3.43 6.72 8.74 6.72 3.33 0 6.37-.75 8.56-2.2l-1.98-3.7v0Zm56.36 1.54c-.95 0-1.82-.17-2.63-.5 -.81-.34-1.51-.8-2.1-1.39 -.59-.6-1.06-1.31-1.39-2.14 -.34-.83-.51-1.75-.51-2.75 0-1.01.16-1.92.5-2.75 .33-.83.79-1.55 1.38-2.14 .58-.6 1.28-1.06 2.09-1.39 .8-.34 1.68-.5 2.62-.5 .94 0 1.81.16 2.62.49 .8.33 1.51.79 2.1 1.38 .59.59 1.06 1.3 1.4 2.13 .33.82.5 1.74.5 2.74 0 .99-.17 1.91-.51 2.74 -.35.82-.81 1.54-1.41 2.13 -.59.59-1.3 1.05-2.11 1.38 -.81.32-1.69.49-2.63.49v0Zm-.01 4.34c1.62 0 3.13-.29 4.52-.86 1.38-.57 2.59-1.35 3.6-2.34 1.01-1 1.8-2.17 2.37-3.52 .57-1.36.86-2.83.86-4.41 0-1.59-.29-3.06-.87-4.41 -.58-1.35-1.37-2.53-2.38-3.52 -1.02-1-2.22-1.77-3.61-2.34 -1.39-.57-2.9-.85-4.53-.85 -1.63 0-3.14.28-4.53.84 -1.39.56-2.59 1.34-3.59 2.33 -1.01.99-1.8 2.16-2.37 3.51 -.58 1.35-.87 2.82-.87 4.4 0 1.58.28 3.05.86 4.4 .57 1.34 1.36 2.52 2.36 3.51 1 .99 2.19 1.77 3.58 2.33 1.38.56 2.89.85 4.52.85v0ZM83.9 181.75c0 3.69 2.41 6.72 6.37 6.72 3.77 0 6.32-2.91 6.32-6.73 0-3.83-2.56-6.73-6.33-6.73 -3.96 0-6.38 3.02-6.38 6.72v0Zm17 0v10.5h-4.57v-2.56c-1.46 1.89-3.65 3.07-6.64 3.07 -5.9 0-10.51-4.62-10.51-11.04 0-6.42 4.61-11.04 10.5-11.04 2.98 0 5.18 1.18 6.63 3.07v-2.56h4.56v10.5Zm-25.75-10.51v13.18c0 4.96-3.17 8.3-8.26 8.34 -2.69.04-5.46-.79-7.39-3.74 -1.45 2.32-3.74 3.73-6.95 3.73 -2.24 0-4.44-.66-6.16-3.12v2.59h-4.57v-21.01h4.61v11.64c0 3.64 2.02 5.58 5.14 5.58 3.03 0 4.57-1.98 4.57-5.54V171.2h4.61v11.64c0 3.64 2.11 5.58 5.14 5.58 3.12 0 4.61-1.98 4.61-5.54v-11.69h4.61v0Z" transform="matrix(1 0 0-1 0 369.291)"/></svg>