<svg viewBox="0 0 512 158" xmlns="http://www.w3.org/2000/svg"><g fill="#262F45"><path d="M146.19 74.02c-15.88 0-27.79 11.9-27.79 27.78v26.45h7.93v-26.46c0-11.91 7.93-19.85 19.84-19.85 11.9 0 19.84 7.93 19.84 19.84v26.45h7.93v-26.46c0-11.91 7.93-19.85 19.84-19.85 11.9 0 19.84 7.93 19.84 19.84v26.45h7.93v-26.46c0-15.88-11.91-27.79-27.79-27.79 -10.37 0-19.05 5.08-23.82 13.02 -4.78-7.94-13.46-13.03-23.82-13.03v0Z"/><path d="M261.95 74.02c-15.88 0-27.79 11.9-27.79 27.78 0 15.87 11.9 27.78 27.78 27.78 7.93 0 14.88-2.98 19.84-7.94v6.61h7.93v-26.46c0-15.88-11.91-27.79-27.79-27.79v0Zm0 7.93c11.9 0 19.84 7.93 19.84 19.84 0 11.9-7.94 19.84-19.85 19.84s-19.85-7.94-19.85-19.85 7.93-19.85 19.84-19.85v0Z"/><path d="M329.42 74.02c-15.88 0-27.79 11.9-27.79 27.78 0 15.87 11.9 27.78 27.78 27.78 7.93 0 14.88-2.98 19.84-7.94v7.93c0 11.9-7.94 19.84-19.85 19.84v7.93c15.87 0 27.78-11.91 27.78-27.79v-27.79c0-15.88-11.91-27.79-27.79-27.79v0Zm0 7.93c11.9 0 19.84 7.93 19.84 19.84 0 11.9-7.94 19.84-19.85 19.84s-19.85-7.94-19.85-19.85 7.93-19.85 19.84-19.85v0Z"/><path d="M396.89 74.02c-15.88 0-27.79 11.9-27.79 27.78 0 15.87 11.9 27.78 27.78 27.78v-7.94c-10.53 0-17.94-6.22-19.52-15.88h47.04c.16-1.3.24-2.62.24-3.97 0-15.88-11.91-27.79-27.79-27.79v0Zm0 7.93c10.52 0 17.93 6.21 19.51 15.87h-39.03c1.58-9.66 8.99-15.88 19.51-15.88v0Z"/><path d="M436.58 75.35h7.93v52.91h-7.94V75.34Z"/></g><path fill="#2397D4" d="M440.55 148.77c-3.29 0-5.96-2.67-5.96-5.96s2.66-5.96 5.95-5.96c3.28 0 5.95 2.66 5.95 5.95 0 3.28-2.67 5.95-5.96 5.95v0Z"/><g fill="#262F45"><path d="M484.21 74.02c-15.88 0-27.79 11.9-27.79 27.78 0 15.87 11.9 27.78 27.78 27.78 7.93 0 14.88-2.98 19.84-7.94v6.61h7.93v-26.46c0-15.88-11.91-27.79-27.79-27.79v0Zm0 7.93c11.9 0 19.84 7.93 19.84 19.84 0 11.9-7.94 19.84-19.85 19.84s-19.85-7.94-19.85-19.85 7.93-19.85 19.84-19.85v0Z"/><path d="M12.51 62.62C5.59 71.58-.01 81.65-.01 93.86c0 26.46 20.08 48.28 44.98 48.28 24.89 0 44.98-21.83 44.98-48.29 0-12.22-5.62-21.97-12.92-31.25 -2.74-2.88-6.7-2.45-9.58-.61 -8.43 4.35-12.97 6.09-22.5 6.05 -9.21-.05-14.05-1.55-22.48-6.14 -2.88-1.76-7.26-2.19-10 .68v0Zm6 7.43c8.73 4.82 16.51 7.27 26.45 7.27 9.95 0 17.72-2.45 26.45-7.28 4.76 6.72 9.26 15.05 9.26 23.81 0 21.69-16 39.02-35.73 39.02 -19.73 0-36.39-17.34-36.39-39.03 0-8.75 5.14-17.09 9.92-23.82v0Z"/></g><g transform="translate(26.3223.417538)"><g fill="#2397D4"><path d="M8.52 54.98h-.01c-4.42 0-8.01-3.59-8.02-8.01 -.01-4.43 3.58-8.03 8-8.03s8.01 3.58 8.02 8c0 4.42-3.59 8.02-8.01 8.02v0l-.01-.01Z"/><path d="M30.16 49.11c-4.13 0-7.48-3.36-7.48-7.47 -.01-4.13 3.34-7.49 7.47-7.49 4.12 0 7.48 3.35 7.48 7.46 0 4.12-3.35 7.48-7.48 7.48h-.01 -.01Z"/><path d="M24.01 27.75c0 3.68-2.99 6.67-6.68 6.67 -3.69 0-6.68-2.99-6.68-6.68 0-3.69 2.98-6.68 6.67-6.68 3.68 0 6.67 2.98 6.67 6.67v0Z"/><path d="M34.16 16.53c0 3.39-2.76 6.14-6.15 6.14 -3.4 0-6.15-2.76-6.15-6.15 0-3.4 2.75-6.15 6.14-6.15 3.39 0 6.14 2.75 6.14 6.14v0Z"/><path d="M20.27 5.58c0 2.95-2.4 5.34-5.35 5.34 -2.96 0-5.35-2.4-5.35-5.35 0-2.96 2.39-5.35 5.34-5.35 2.95 0 5.34 2.39 5.34 5.34v0Z"/></g></g></svg>