<svg viewBox="0 0 512 108" xmlns="http://www.w3.org/2000/svg"><path fill="#131B20" d="M512 80.8h-10.76V52.7c.03-2.94-.62-5.83-1.92-8.46 -1.22-2.51-3.08-4.64-5.4-6.17 -3.38-2.26-7.59-2.88-11.47-1.69 -3.88 1.18-7.03 4.04-8.57 7.8 -1.22 2.66-1.82 5.57-1.77 8.5v28.09h-10.76V26.91h10.75v7.5c1.91-2.87 4.25-5.07 6.92-6.65 2.72-1.59 5.82-2.41 8.98-2.39 4.68 0 8.84 1.24 12.42 3.63 3.63 2.43 6.45 5.73 8.45 9.84 1.95 4.1 3.01 8.64 3.05 13.57v28.33 0ZM397.31 26.94h10.75v28c0 3.05.62 5.92 1.91 8.45 1.29 2.58 3.1 4.63 5.35 6.11 4.53 3.04 10.46 3.04 15 0 2.15-1.49 3.82-3.54 5.06-6.12 1.19-2.54 1.76-5.4 1.76-8.46V26.91h10.75v53.85h-10.71V73.2c-1.92 2.86-4.31 5.01-6.98 6.64 -2.73 1.57-5.69 2.38-8.94 2.38 -4.69 0-8.85-1.25-12.43-3.68 -3.66-2.46-6.59-5.86-8.46-9.85 -2.04-4.26-3.08-8.91-3.06-13.62V26.92l-.05-.05Zm-23.42 35.84c-1.23 2.66-3.17 4.94-5.6 6.59 -5.09 3.19-11.55 3.19-16.64 0 -5.25-3.43-8.4-9.28-8.37-15.54 0-3.25.71-6.22 2.19-8.99 1.43-2.78 3.48-4.97 6.06-6.55 5.09-3.22 11.58-3.22 16.67 0 2.38 1.57 4.3 3.82 5.63 6.54s2 5.73 2 8.98c0 3.24-.67 6.21-2.01 8.98v-.05Zm2.72-35.85v7.93c-1.75-2.84-4.16-5.2-7.03-6.89 -2.94-1.69-6.28-2.55-9.66-2.49 -5.02 0-9.66 1.24-13.86 3.82 -8.65 5.13-13.92 14.46-13.86 24.51 -.05 10.04 5.22 19.37 13.85 24.51 4.2 2.53 8.84 3.82 13.85 3.82 3.58 0 6.78-.82 9.65-2.49 2.86-1.7 5.27-4.06 7.02-6.89v9.41c0 2.77-.87 5.25-2.49 7.5 -1.68 2.24-3.83 4.01-6.5 5.25 -2.7 1.26-5.63 1.91-8.61 1.91 -5.46-.22-10.52-2.93-13.72-7.36h-12.1c2.75 7.03 8.16 12.71 15.05 15.81 3.44 1.57 7.02 2.38 10.75 2.38 4.92 0 9.55-1.15 13.9-3.35 4.3-2.2 7.83-5.26 10.46-9.18 2.62-3.88 3.96-8.22 3.96-13V26.88h-10.76v-.05Zm-63.42 53.8h10.7V-.04h-10.71v80.76Zm-13.1-67.05c.19 2.16-.85 4.25-2.7 5.39 -1.85 1.14-4.19 1.14-6.04 0 -1.85-1.15-2.9-3.24-2.7-5.4 .27-2.96 2.74-5.22 5.71-5.22 2.96 0 5.44 2.25 5.71 5.21m-11.09 67.09h10.75V26.89h-10.76v53.85Zm-41.2-8.99c2.98.05 5.91-.8 8.41-2.44 2.38-1.63 4.3-3.83 5.63-6.5 1.38-2.73 2.05-5.74 2.05-9.04 0-3.35-.67-6.36-2.06-9.08 -1.26-2.64-3.21-4.89-5.64-6.5 -5.26-3.21-11.86-3.21-17.11 0 -5.46 3.27-8.76 9.21-8.65 15.57 -.03 6.35 3.29 12.25 8.74 15.53 2.67 1.62 5.54 2.38 8.6 2.38v.04Zm27.71-44.93v53.9h-10.71v-8.22c-3.54 6.06-10.09 9.72-17.11 9.55 -15.56-.21-28.12-12.79-28.3-28.34 .07-15.62 12.67-28.28 28.29-28.44 7.03-.16 13.59 3.55 17.1 9.65V26.8h10.75 -.05Zm-146.52 0h10.75v6.21c1.19-1.58 2.38-2.87 3.58-3.83 2.51-2.06 5.68-3.14 8.93-3.06 3.96 0 7.45.95 10.51 2.72 3.1 1.76 5.73 4.3 7.83 7.55 3.78-6.47 10.76-10.39 18.25-10.28 4.49 0 8.5 1.14 12.04 3.44 3.54 2.28 6.4 5.48 8.26 9.27 2 3.87 2.96 8.12 2.96 12.75v29.1h-10.76V51.59c0-2.73-.48-5.21-1.53-7.41 -.94-2.14-2.45-3.97-4.35-5.31 -1.92-1.34-4.11-1.96-6.65-1.96 -4.87-.08-9.3 2.79-11.24 7.26 -1.12 2.3-1.7 4.84-1.68 7.4v29.1h-10.71V51.56c0-2.68-.53-5.17-1.68-7.41 -1.04-2.15-2.62-3.98-4.59-5.31 -1.99-1.32-4.32-2-6.7-1.96 -2.39 0-4.5.66-6.41 2.05 -1.92 1.38-3.35 3.24-4.5 5.54 -1.1 2.36-1.66 4.94-1.63 7.55v28.62h-10.76V26.78l-.05-.05Z"/><path fill="#F06B66" d="M50.13.04c28.43 0 51.61 23.17 51.61 51.65 -.04 6.02-3.31 11.57-8.58 14.51 -5.27 2.93-11.71 2.81-16.86-.32l-.24-.15 -.1.23c-7.2 13.04-22.98 18.7-36.82 13.2 -13.85-5.5-21.45-20.44-17.73-34.87 3.71-14.43 17.58-23.85 32.36-21.97 14.78 1.87 25.86 14.44 25.86 29.34 .26 2.79 2.61 4.93 5.42 4.93s5.16-2.14 5.42-4.94c0-22.31-18.08-40.41-40.39-40.43 -18.72-.04-35.01 12.77-39.38 30.97C6.32 60.38 15 79.2 31.68 87.68c16.68 8.48 37 4.4 49.12-9.86l8.6 7.26c-9.79 11.57-24.18 18.25-39.33 18.25C22.13 102.48-.07 79.59-.07 51.64 -.07 23.69 22.13.8 50.06-.05v0Zm0 33.35c-6.78-.34-13.18 3.08-16.66 8.9 -3.49 5.81-3.48 13.08.02 18.88 3.49 5.8 9.91 9.21 16.68 8.86 9.75-.52 17.4-8.58 17.39-18.35 -.02-9.78-7.68-17.82-17.44-18.31v0Zm0 10.89c4.09 0 7.4 3.31 7.4 7.4s-3.32 7.4-7.41 7.4c-4.1 0-7.41-3.32-7.41-7.41 0-4.1 3.31-7.41 7.4-7.41Z"/></svg>