<svg viewBox="0 0 256 159" xmlns="http://www.w3.org/2000/svg"><defs><linearGradient id="a" x1="50%" x2="0%" y1="33.756%" y2="100%"><stop offset="0%" stop-color="#60676F"/><stop offset="100%" stop-color="#303439"/></linearGradient></defs><path fill="#393E42" d="M21.33 158.11l0-42.17 128 0 0 42.16Z"/><path fill="#60676F" d="M0 158.11V-.01h42.66l42.66 42.16L127.98-.02h42.66s85.33 0 85.33 79.05 -85.34 79.05-85.34 79.05h-42.67V52.66L85.29 94.82 42.62 52.65v105.41H-.05ZM170.66 42.15v73.78s41.78 0 42.66-36.9c.88-36.9-42.67-36.9-42.67-36.9Z"/><path fill="url(#a)" d="M252.75 54.36c2.07 7.22 3.24 15.41 3.24 24.68 0 79.05-85.34 79.05-85.34 79.05V21.05s51.36 8.78 82.08 33.28Zm-82.09-12.21v73.78s41.78 0 42.66-36.9c.88-36.9-42.67-36.9-42.67-36.9Z"/></svg>