<svg viewBox="0 0 256 261" xmlns="http://www.w3.org/2000/svg"><path fill="#F06B66" d="M126.14.04c71.54 0 129.85 58.31 129.85 129.97 -.09 15.16-8.33 29.11-21.57 36.5 -13.25 7.39-29.45 7.08-42.4-.8l-.61-.37 -.25.6c-18.11 32.82-57.81 47.05-92.65 33.22 -34.85-13.84-53.96-51.43-44.61-87.74 9.34-36.31 44.23-59.99 81.43-55.28 37.19 4.71 65.07 36.34 65.07 73.83 .66 7.04 6.57 12.42 13.64 12.42s12.98-5.39 13.64-12.43c0-56.14-45.47-101.66-101.61-101.73 -47.09-.09-88.08 32.15-99.09 77.92 -11.02 45.77 10.82 93.12 52.79 114.46 41.96 21.33 93.09 11.08 123.59-24.79L225 214.09c-24.62 29.13-60.82 45.94-98.96 45.93C55.76 257.88-.11 200.29-.11 129.98 -.11 59.66 55.75 2.07 126.03-.06v0Zm0 83.92c-17.04-.85-33.16 7.76-41.92 22.4 -8.76 14.63-8.74 32.91.06 47.52 8.79 14.61 24.93 23.18 41.97 22.29 24.55-1.29 43.78-21.59 43.75-46.17 -.04-24.59-19.33-44.84-43.88-46.06v0Zm0 27.41c10.29 0 18.63 8.34 18.63 18.63s-8.35 18.63-18.64 18.63c-10.3 0-18.64-8.35-18.64-18.64 0-10.3 8.34-18.64 18.63-18.64Z"/></svg>