<svg viewBox="0 0 512 114" xmlns="http://www.w3.org/2000/svg"><path fill="#485160" d="M57.61 0c31.82 0 57.61 25.51 57.61 56.99 0 31.47-25.8 56.99-57.62 56.99 -31.83 0-57.62-25.52-57.62-57s25.79-57 57.61-57Zm262.22 31.22c13.54 0 24.49 11.54 24.49 25.77s-10.96 25.77-24.5 25.77c-6.34 0-12.29-2.51-16.74-6.93l-.32-.32v24.42l-.01.13c-.07.66-.62 1.2-1.29 1.26l-.14 0h-8.69l-.14-.01c-.68-.07-1.22-.61-1.29-1.27l-.01-.14V33.86l0-.14c.06-.67.61-1.21 1.28-1.27l.13-.01h8.68l.13 0c.67.06 1.21.6 1.28 1.26l0 .13v4.55c4.47-4.62 10.62-7.25 17.04-7.25ZM43.47 29.93c-19.77 19.55-13.42 54.3-13.42 54.3s35.19 6.21 54.89-13.28c10.95-10.84 10.56-28.86-.91-40.14 -11.48-11.29-29.62-11.74-40.58-.9Zm320.16-17.32l.13 0c.67.06 1.21.6 1.28 1.26l0 .13v24.42c4.47-4.62 10.62-7.25 17.04-7.25 13.54 0 24.49 11.54 24.49 25.77s-10.96 25.77-24.5 25.77c-6.34 0-12.29-2.51-16.74-6.93l-.32-.32v4.55l-.01.13c-.07.66-.62 1.2-1.29 1.26l-.14 0h-8.69c-.74 0-1.35-.57-1.42-1.28l-.01-.14V13.94c0-.73.57-1.34 1.29-1.41l.13-.01h8.68Zm74.92 18.59c14.64 0 26.5 11.54 26.5 25.77s-11.87 25.77-26.51 25.77c-14.65 0-26.51-11.55-26.51-25.78 0-14.24 11.86-25.78 26.5-25.78Zm-189.25 0c6.33 0 12.28 2.5 16.73 6.92l.31.31v-4.56l0-.14c.06-.67.61-1.21 1.28-1.27l.13-.01h8.68c.73 0 1.34.56 1.41 1.27l0 .13v46.16l-.01.13c-.07.66-.62 1.2-1.29 1.26l-.14 0h-8.69l-.14-.01c-.68-.07-1.22-.61-1.29-1.27l-.01-.14v-4.56c-4.48 4.61-10.63 7.24-17.05 7.24 -13.55 0-24.5-11.55-24.5-25.78 0-14.24 10.95-25.78 24.49-25.78Zm261.24 1.21c.25 0 .51.06.71.19 .54.36.75 1.11.45 1.68l-.07.11 -14.91 22.43 15.03 22.63c.12.25.19.51.19.76 0 .66-.52 1.2-1.17 1.27l-.14 0h-9.92c-.72 0-1.39-.33-1.79-.89l-.1-.15 -8.95-14.75 -8.95 14.74c-.36.59-1 .96-1.71 1.01l-.18 0h-10.05c-.26 0-.52-.07-.72-.2 -.55-.37-.76-1.12-.46-1.69l.06-.12 15.03-22.64 -14.91-22.44c-.13-.2-.2-.45-.2-.71 0-.67.51-1.21 1.16-1.28l.13-.01h10.04c.71 0 1.38.32 1.78.88l.09.14 8.74 14.48 8.74-14.56c.35-.6.99-.97 1.7-1.02l.17-.01h10.04ZM198.8 31.19c9.93 0 18.02 7.45 18.2 16.79l0 .31 .06 31.73 -.01.13c-.07.66-.62 1.2-1.29 1.26l-.14 0h-8.75c-.74 0-1.35-.57-1.42-1.28l-.01-.14V51.78c0-5.97-4.61-10.52-10.12-10.52 -4.91 0-8.93 4.2-9.81 9.7l-.05.3 .06 28.72 -.01.13c-.07.66-.62 1.2-1.29 1.26l-.14 0h-8.75c-.74 0-1.35-.57-1.42-1.28l-.01-.14V51.74c0-5.97-4.61-10.52-10.12-10.52 -5.23 0-9.52 4.77-9.97 10.78l-.02.3v27.63l-.01.13c-.07.66-.62 1.2-1.29 1.26l-.14 0h-8.69l-.14-.01c-.68-.07-1.22-.61-1.29-1.27l-.01-.14V33.73l0-.14c.06-.67.61-1.21 1.28-1.27l.13-.01h8.68l.13 0c.67.06 1.21.6 1.28 1.26l0 .13v4.1c3.11-4.24 8.1-6.8 13.41-6.8 6.8-.07 13.15 3.65 16.33 9.61 2.78-5.84 8.68-9.56 15.16-9.62Zm181.27 10.32c-8.13 0-14.68 6.62-14.97 14.93l-.01.32v.38c.06 8.46 6.74 15.25 14.97 15.25s14.97-6.93 14.97-15.46c0-8.53-6.68-15.46-14.98-15.46Zm58.39 0c-8.24 0-14.98 6.92-14.98 15.45 0 8.52 6.67 15.45 14.97 15.45 8.23 0 14.97-6.93 14.97-15.46 0-8.53-6.75-15.46-14.98-15.46Zm-187.18 0c-8.24 0-14.98 6.92-14.98 15.45 0 8.52 6.67 15.45 14.97 15.45 8.12 0 14.73-6.63 14.96-14.94l0-.33v-.39c-.07-8.47-6.75-15.26-14.98-15.26Zm66.49 0c-8.13 0-14.68 6.62-14.97 14.93l-.01.32v.38c.06 8.46 6.74 15.25 14.97 15.25 8.29 0 14.97-6.93 14.97-15.46 0-8.53-6.68-15.46-14.98-15.46ZM64.16 33.36l5.63 11.47 11.6 5.57 -11.61 5.57 -5.64 11.47 -5.64-11.48 -11.61-5.58 11.6-5.58 5.63-11.48Z"/></svg>