<svg viewBox="0 0 256 158" xmlns="http://www.w3.org/2000/svg"><path d="M238.37 157.89H18.39c-9.97 0-18.4-8.44-18.4-18.4V18.38c0-9.97 8.43-18.4 18.39-18.4h219.2c9.96 0 18.39 8.43 18.39 18.39v121.1c0 9.96-7.67 18.39-17.63 18.39v0ZM18.39 12.26c-3.07 0-6.14 3.06-6.14 6.13v121.1c0 3.83 3.06 6.13 6.13 6.13h219.2c3.83 0 6.13-3.07 6.13-6.14V18.37c0-3.84-3.07-6.14-6.14-6.14 .76 0-219.21 0-219.21 0v0Zm18.39 108.83V36.77H61.3l24.52 30.65 24.52-30.66h24.52v84.31h-24.53V72.78L85.8 103.43 61.27 72.77v48.28H36.74v0Zm154.05 0l-36.8-40.63h24.52V36.77h24.52v42.92h24.52l-36.8 41.38v0Z"/></svg>