<svg viewBox="0 0 512 127" xmlns="http://www.w3.org/2000/svg"><path fill="#3088D4" d="M115.23 75.67c-1.74 8.9-15.51 18.64-31.32 20.53 -8.25.98-16.37 1.88-25.03 1.49 -14.17-.65-25.34-3.39-25.34-3.39 0 1.37.08 2.69.25 3.91 1.84 13.97 13.85 14.81 25.23 15.2 11.48.39 21.71-2.84 21.71-2.84l.47 10.38s-8.04 4.31-22.36 5.1c-7.9.43-17.7-.2-29.12-3.22C4.96 116.27.7 89.88.05 63.1c-.2-7.96-.08-15.45-.08-21.72 0-27.39 17.94-35.41 17.94-35.41C26.95 1.81 42.47.06 58.61-.07H59C75.13.06 90.66 1.8 99.71 5.96s17.94 8.02 17.94 35.4c0 0 .22 20.2-2.51 34.22"/><path fill="#FFF" d="M24.87 34.8c0-3.99 3.23-7.22 7.21-7.22s7.21 3.23 7.21 7.21 -3.24 7.21-7.22 7.21c-3.99 0-7.22-3.24-7.22-7.22m103.5 8.76v33.15h-13.14V44.5c0-6.79-2.86-10.23-8.57-10.23 -6.32 0-9.48 4.08-9.48 12.16v17.61H84.1V46.42c0-8.08-3.17-12.17-9.48-12.17 -5.71 0-8.57 3.44-8.57 10.22v32.18H52.91V43.49c0-6.78 1.72-12.17 5.19-16.15 3.57-3.99 8.25-6.03 14.06-6.03 6.72 0 11.81 2.58 15.17 7.75l3.27 5.48 3.27-5.49c3.36-5.17 8.45-7.76 15.17-7.76 5.8 0 10.48 2.04 14.06 6.02 3.46 3.98 5.19 9.36 5.19 16.14m45.25 16.48c2.71-2.87 4.01-6.48 4.01-10.82 0-4.35-1.31-7.96-4.02-10.72 -2.61-2.87-5.93-4.25-9.94-4.25 -4.02 0-7.33 1.37-9.94 4.24 -2.62 2.75-3.92 6.36-3.92 10.71 0 4.34 1.3 7.95 3.91 10.81 2.6 2.75 5.92 4.13 9.93 4.13s7.32-1.38 9.93-4.14m4.01-37.34h12.95v53.04H177.5v-6.26c-3.92 5.19-9.34 7.74-16.37 7.74 -6.73 0-12.45-2.66-17.27-8.07 -4.72-5.41-7.13-12.1-7.13-19.95 0-7.75 2.4-14.43 7.12-19.84 4.81-5.41 10.54-8.17 17.26-8.17 7.02 0 12.44 2.54 16.36 7.74v-6.26 0Zm56.52 25.56c3.81 2.86 5.72 6.89 5.62 11.98 0 5.41-1.91 9.65-5.83 12.62 -3.92 2.86-8.64 4.34-14.36 4.34 -10.35 0-17.37-4.25-21.09-12.63l11.24-6.69c1.5 4.56 4.81 6.89 9.83 6.89 4.61 0 6.92-1.49 6.92-4.57 0-2.23-3.02-4.25-9.14-5.84 -2.32-.64-4.22-1.28-5.73-1.81 -2.11-.85-3.92-1.81-5.43-2.97 -3.72-2.87-5.63-6.69-5.63-11.57 0-5.2 1.8-9.34 5.42-12.31 3.71-3.08 8.23-4.57 13.65-4.57 8.63 0 14.96 3.71 19.07 11.24l-11.05 6.36c-1.61-3.61-4.32-5.41-8.04-5.41 -3.92 0-5.83 1.48-5.83 4.34 0 2.22 3.01 4.24 9.13 5.83 4.71 1.06 8.43 2.65 11.14 4.66m41.16-12.42h-11.35v22.06c0 2.65 1 4.24 2.91 4.98 1.4.53 4.21.63 8.43.42v12.41c-8.74 1.06-15.06.21-18.78-2.66 -3.72-2.76-5.53-7.85-5.53-15.17V35.55h-8.74V22.39h8.73V11.67l12.95-4.14v14.85h11.34v13.15Zm41.26 23.86c2.61-2.76 3.91-6.26 3.91-10.51s-1.31-7.75-3.92-10.51c-2.62-2.76-5.83-4.14-9.74-4.14 -3.92 0-7.13 1.37-9.74 4.13 -2.52 2.86-3.82 6.36-3.82 10.5 0 4.13 1.3 7.63 3.81 10.5 2.61 2.75 5.82 4.13 9.73 4.13s7.12-1.38 9.73-4.14m-28.62 9.44c-5.13-5.41-7.64-11.99-7.64-19.95 0-7.86 2.51-14.43 7.63-19.84s11.44-8.17 18.87-8.17c7.43 0 13.75 2.75 18.87 8.16 5.12 5.4 7.73 12.09 7.73 19.83 0 7.85-2.61 14.53-7.74 19.94 -5.13 5.41-11.35 8.06-18.88 8.06 -7.53 0-13.76-2.66-18.88-8.07m88.75-9.13c2.61-2.87 3.91-6.48 3.91-10.82 0-4.35-1.31-7.96-3.92-10.72 -2.61-2.87-5.93-4.25-9.94-4.25 -4.02 0-7.33 1.37-10.05 4.24 -2.61 2.75-3.92 6.36-3.92 10.71 0 4.34 1.3 7.95 3.91 10.81 2.71 2.75 6.12 4.13 10.04 4.13 4.01 0 7.32-1.38 9.93-4.14m3.91-58.56h12.95v74.25h-12.96v-6.26c-3.82 5.19-9.24 7.74-16.27 7.74 -6.73 0-12.55-2.66-17.37-8.07 -4.72-5.41-7.13-12.1-7.13-19.95 0-7.75 2.4-14.43 7.12-19.84 4.81-5.41 10.64-8.17 17.36-8.17 7.02 0 12.44 2.54 16.26 7.74V1.03Zm58.43 58.23c2.6-2.76 3.91-6.26 3.91-10.51s-1.31-7.75-3.92-10.51c-2.62-2.76-5.83-4.14-9.74-4.14 -3.92 0-7.13 1.37-9.74 4.13 -2.52 2.86-3.82 6.36-3.82 10.5 0 4.13 1.3 7.63 3.81 10.5 2.6 2.75 5.82 4.13 9.73 4.13s7.12-1.38 9.73-4.14m-28.62 9.44c-5.13-5.41-7.64-11.99-7.64-19.95 0-7.86 2.5-14.43 7.63-19.84 5.12-5.41 11.44-8.17 18.87-8.17 7.43 0 13.75 2.75 18.87 8.16 5.12 5.4 7.73 12.09 7.73 19.83 0 7.85-2.61 14.53-7.74 19.94 -5.13 5.41-11.35 8.06-18.88 8.06 -7.53 0-13.76-2.66-18.88-8.07m101.5-25.99v32.56h-12.96V44.36c0-3.51-.91-6.16-2.72-8.17 -1.71-1.81-4.12-2.76-7.23-2.76 -7.33 0-11.05 4.34-11.05 13.15v28.64h-12.96V22.18h12.95v5.94c3.11-4.99 8.03-7.43 14.96-7.43 5.52 0 10.04 1.9 13.55 5.83 3.61 3.92 5.42 9.22 5.42 16.12"/></svg>