<svg viewBox="0 0 256 145" xmlns="http://www.w3.org/2000/svg" xmlns:xlink="http://www.w3.org/1999/xlink"><defs><mask id="a"><path fill="#FFF" d="M105.42 70.88l.03-.03 -.67-1.01c-.11-.16-.21-.32-.31-.46L58.9-.02 -.04 43.88l43.07 66.3c.18.28.35.56.55.84l.22.35 .02-.02c6.67 9.47 17.67 15.67 30.14 15.67 20.37 0 36.88-16.52 36.88-36.89 0-7.09-2.03-13.68-5.49-19.3"/></mask><path id="b" d="M250.51 88.44l.03-.03 -.67-1.01c-.11-.16-.21-.32-.31-.46l-45.57-69.4 -58.94 43.9 43.07 66.3c.18.28.35.56.55.84l.22.35 .02-.02c6.67 9.47 17.67 15.67 30.14 15.67 20.37 0 36.88-16.52 36.88-36.89 0-7.09-2.03-13.68-5.49-19.3"/></defs><use fill="#95C748" xlink:href="#b"/><path fill="#35BFC0" d="M73.77 107.73c0-20.38-16.52-36.89-36.89-36.89 -20.38 0-36.89 16.51-36.89 36.88s16.51 36.89 36.88 36.89 36.88-16.52 36.88-36.9"/><path fill="#3253A0" d="M172.74 0c20.37 0 36.88 16.51 36.88 36.88 0 7.66-2.35 14.78-6.35 20.68v0 -.01l-43.68 68.25c-.65 1.14-1.36 2.24-2.12 3.31v0l-.3.45h-.06c-6.72 9.09-17.49 15.02-29.67 15.02 -12.18 0-22.95-5.93-29.67-15.03v0h-.05L68.56 88.62h-.05c-6.47-10.68-18.16-17.84-31.55-17.84 -12.73 0-23.94 6.43-30.57 16.23v0l44.6-69.53h.03C57.51 6.95 69.12-.09 82.39-.09c13.27 0 24.87 7.03 31.37 17.56v0h.04l28 39.59 .01-.01s0 0 0 0c-3.84-5.82-6.08-12.78-6.08-20.27 0-20.38 16.51-36.89 36.88-36.89Z"/><use fill="#95C748" xlink:href="#b"/><path mask="url(#a)" d="M64.54 19.32c0-20.38-16.52-36.89-36.89-36.89 -20.38 0-36.89 16.51-36.89 36.88 0 7.48 2.24 14.44 6.07 20.26 -.01 0-.01 0-.01-.01l-.02 0L-31.21-.04h-.05c-6.5-10.53-18.11-17.57-31.38-17.57 -13.28 0-24.88 7.03-31.38 17.56h-.04l-44.61 69.52c6.63-9.8 17.84-16.24 30.56-16.24 13.39 0 25.07 7.15 31.54 17.83h.04l29.15 40.92h.04c6.71 9.09 17.48 15.02 29.66 15.02s22.94-5.93 29.66-15.03h.05l.29-.46c.75-1.07 1.47-2.17 2.11-3.32L58.1 39.93s0 0 0 0c4-5.91 6.34-13.03 6.34-20.69M2.26 46.05c.21.2.43.39.65.59 -.22-.2-.44-.4-.66-.6m3.27 2.74c.24.18.48.36.72.54 -.25-.18-.49-.37-.73-.55m8.09 4.59c.3.12.62.22.94.34 -.32-.12-.64-.22-.95-.35m3.96 1.34c.43.12.88.23 1.32.33 -.45-.11-.89-.22-1.33-.34m4.31.92c.42.06.85.14 1.28.19 -.44-.06-.86-.14-1.29-.2m29.89-8.68c.32-.29.65-.59.97-.89 -.32.3-.65.59-.98.88m-19.97 8.87c.43-.06.86-.14 1.3-.2 -.44.06-.87.14-1.31.19m4.19-.76c.46-.11.93-.24 1.4-.36 -.47.12-.93.25-1.41.35m4.16-1.26c.39-.15.79-.28 1.18-.44 -.39.15-.79.29-1.19.43m8.36-4.33c.31-.22.6-.46.91-.69 -.31.22-.61.46-.92.68m6.25-5.53c.25-.29.52-.57.77-.86 -.26.29-.52.57-.78.85" transform="translate(145.085 17.5601)"/><path fill="#F38334" d="M209.48 36.88c0-20.38-16.52-36.89-36.89-36.89 -20.38 0-36.89 16.51-36.89 36.88s16.51 36.88 36.88 36.88 36.88-16.52 36.88-36.89"/><path fill="#3152A0" d="M172.59 73.78c-12.89 0-24.22-6.62-30.81-16.63h-.03l-28.01-39.6h-.05C107.19 7.02 95.58-.01 82.31-.01c-13.28 0-24.88 7.03-31.38 17.55h-.04L6.28 87.06c6.62-9.8 17.84-16.24 30.56-16.24 13.39 0 25.08 7.15 31.54 17.82h.04l29.15 40.92h.04c6.72 9.09 17.48 15.02 29.66 15.02 12.17 0 22.94-5.93 29.66-15.03h.05l.29-.47c.75-1.07 1.47-2.17 2.11-3.31l43.67-68.26c-6.64 9.77-17.84 16.2-30.55 16.2"/></svg>