<svg viewBox="0 0 512 85" xmlns="http://www.w3.org/2000/svg"><path fill="#0058CC" d="M42.64 0l.53.01 -5.76 6.79c-10.66 1.92-19.85 9.19-23.47 19.87 -5.38 15.88 3.63 33.28 20.13 38.87 16.49 5.58 34.22-2.77 39.6-18.66 3.55-10.49.82-21.64-6.18-29.61l-.32-.35 -.45-8.93c14.5 10.52 21.16 29.63 15.11 47.51 -7.45 21.99-31.32 33.78-53.31 26.34 -22-7.45-33.79-31.32-26.35-53.31C8.16 10.8 24.82-.3 42.58-.04Zm147.75 28.3c5.55 0 9.89 1.33 13.01 4 3.12 2.67 4.68 6.94 4.68 12.81v24.03c-1.87.58-4.14 1.14-6.81 1.68 -2.67.53-5.69.8-9.06.8 -2.73 0-5.23-.24-7.5-.73 -2.27-.48-4.22-1.29-5.85-2.41 -1.63-1.13-2.89-2.57-3.77-4.33 -.89-1.77-1.33-3.93-1.33-6.49 0-2.57.54-4.72 1.64-6.45 1.09-1.74 2.51-3.13 4.24-4.17 1.73-1.05 3.67-1.79 5.8-2.25 2.13-.46 4.27-.69 6.4-.69 1.54 0 3.25.08 5.12.24v-.97c0-1.29-.22-2.33-.65-3.13 -.43-.81-1.02-1.43-1.77-1.89 -.75-.46-1.67-.77-2.77-.93 -1.1-.17-2.32-.25-3.65-.25 -2.89 0-5.96.56-9.22 1.68 -.75-1.39-1.31-2.7-1.69-3.93 -.38-1.23-.57-2.7-.57-4.41 2.35-.81 4.69-1.39 7.04-1.77 2.34-.38 4.54-.57 6.56-.57Zm-30.33-12.21c2.19 0 4.3.16 6.33.48l2.95 54.57c-2.2.32-4.29.48-6.25.48 -1.97 0-3.91-.17-5.82-.49l-1.57-39.46 -12.67 27.26c-.82.1-1.65.2-2.52.28 -.87.08-1.74.12-2.61.12 -.76 0-1.51-.03-2.26-.08 -.76-.06-1.54-.17-2.35-.33l-11.81-27.84 -1.22 40.02c-1.86.32-3.65.48-5.39.48 -1.86 0-3.77-.17-5.73-.49l2.42-54.58c2.31-.33 4.54-.49 6.68-.49 2.25 0 4.48.16 6.68.48l14.31 29.71 14.75-29.72c1.79-.33 3.78-.49 5.98-.49Zm130.83 12.2c2.88 0 5.44.5 7.68 1.52 2.24 1.01 4.15 2.4 5.72 4.16 1.57 1.76 2.76 3.85 3.56 6.28 .8 2.42 1.2 5.03 1.2 7.8 0 1.01-.04 2.01-.12 3 -.08.98-.18 1.77-.29 2.36h-26.6c.21 3.2 1.33 5.52 3.36 6.96 2.02 1.44 4.69 2.16 8.01 2.16 1.81 0 3.67-.18 5.56-.53 1.89-.35 3.69-.85 5.4-1.49 .58 1.06 1.09 2.34 1.52 3.84 .42 1.49.66 3.09.72 4.8 -4.17 1.6-8.87 2.4-14.1 2.4 -3.85 0-7.15-.54-9.9-1.61s-5-2.56-6.73-4.45c-1.74-1.9-3.02-4.16-3.85-6.77 -.83-2.62-1.25-5.48-1.25-8.57 0-3.05.42-5.91 1.28-8.58 .85-2.68 2.12-5 3.8-6.97 1.68-1.98 3.76-3.54 6.24-4.69 2.48-1.15 5.38-1.73 8.69-1.73Zm136.09 0c3.36 0 6.3.56 8.81 1.68 2.5 1.12 4.59 2.65 6.24 4.6 1.65 1.94 2.88 4.25 3.68 6.92 .8 2.66 1.2 5.52 1.2 8.57 0 3.04-.41 5.87-1.21 8.49 -.81 2.61-2.03 4.89-3.69 6.84 -1.66 1.95-3.74 3.47-6.25 4.56 -2.51 1.09-5.45 1.64-8.82 1.64s-6.29-.55-8.78-1.65c-2.49-1.1-4.54-2.62-6.17-4.57 -1.63-1.95-2.86-4.24-3.69-6.85 -.83-2.62-1.25-5.45-1.25-8.5s.41-5.91 1.24-8.58c.82-2.67 2.05-4.98 3.68-6.93 1.62-1.95 3.68-3.49 6.16-4.61 2.48-1.13 5.4-1.69 8.77-1.69Zm41.27 0c2.08 0 4.13.18 6.16.56 2.02.37 4.08.93 6.16 1.68 -.11 1.38-.38 2.82-.81 4.32 -.43 1.49-.94 2.8-1.53 3.92 -1.29-.54-2.7-1.01-4.25-1.41 -1.55-.4-3.18-.61-4.89-.61 -1.82 0-3.24.28-4.25.84 -1.02.56-1.53 1.45-1.53 2.68 0 1.17.36 2 1.08 2.48 .72.48 1.74.93 3.08 1.36l4.56 1.36c1.49.42 2.84.94 4.04 1.56 1.2.61 2.22 1.37 3.08 2.28 .85.9 1.52 2.02 2 3.36 .48 1.33.72 2.96.72 4.88 0 1.97-.42 3.81-1.25 5.52 -.83 1.7-2.03 3.19-3.61 4.44 -1.58 1.25-3.49 2.24-5.73 2.96 -2.25.72-4.78 1.08-7.61 1.08 -1.29 0-2.46-.04-3.53-.12 -1.07-.09-2.1-.22-3.09-.41 -.99-.19-1.97-.42-2.93-.69 -.97-.27-2.01-.62-3.13-1.05 .1-1.45.36-2.9.76-4.37 .4-1.47.92-2.9 1.56-4.29 1.76.69 3.43 1.21 5 1.56 1.57.34 3.21.52 4.92.52 .74 0 1.56-.07 2.44-.21 .88-.14 1.69-.38 2.44-.73 .74-.35 1.37-.81 1.88-1.37 .5-.57.75-1.3.75-2.21 0-1.29-.39-2.21-1.17-2.77 -.78-.56-1.86-1.06-3.25-1.49l-4.97-1.45c-3-.86-5.33-2.13-7.01-3.81 -1.69-1.69-2.53-4.21-2.53-7.57 0-4.06 1.45-7.24 4.36-9.54 2.91-2.3 6.87-3.45 11.89-3.45ZM256.92 17.15v12.09h9.69c.15.8.26 1.52.32 2.16 .05.64.07 1.3.07 2 0 .74-.03 1.46-.08 2.16 -.06.69-.17 1.46-.33 2.32h-9.7v16.26c0 1.65.13 2.98.4 4 .26 1.01.65 1.81 1.16 2.4 .5.58 1.13.98 1.88 1.2 .74.21 1.62.32 2.64.32 .8 0 1.58-.07 2.36-.21 .77-.14 1.45-.26 2.04-.37 .37 1.01.64 2.06.8 3.16 .16 1.09.24 2.07.24 2.92 0 .58-.02 1.08-.04 1.48 -.03.39-.07.78-.13 1.16 -2.46.58-5 .88-7.61.88 -4.86 0-8.58-1.14-11.14-3.41 -2.57-2.27-3.85-5.97-3.85-11.1V37.82h-5.21l-.41-1.61 14.97-19.15h1.84Zm-30.06 0v12.09h9.69c.15.8.26 1.52.32 2.16 .05.64.07 1.3.07 2 0 .74-.03 1.46-.08 2.16 -.06.69-.17 1.46-.33 2.32h-9.7v16.26c0 1.65.13 2.98.4 4 .26 1.01.65 1.81 1.16 2.4 .5.58 1.13.98 1.88 1.2 .74.21 1.62.32 2.64.32 .8 0 1.58-.07 2.36-.21 .77-.14 1.45-.26 2.04-.37 .37 1.01.64 2.06.8 3.16 .16 1.09.23 2.07.23 2.92 0 .58-.02 1.08-.04 1.48 -.03.39-.07.78-.13 1.16 -2.46.58-5 .88-7.61.88 -4.86 0-8.58-1.14-11.14-3.41 -2.57-2.27-3.85-5.97-3.85-11.1V37.82h-5.21l-.41-1.61 14.97-19.15h1.84Zm107.83 11.61c.53 0 1.14.02 1.84.08 .69.05 1.2.13 1.52.24 .1.53.18 1.14.24 1.84 .05.69.08 1.41.08 2.16 0 .9-.05 1.89-.13 2.96 -.09 1.06-.23 2.08-.45 3.04 -.59-.11-1.25-.16-1.97-.16h-1.33v0c-.91 0-1.93.09-3.05.28 -1.13.18-2.19.68-3.21 1.48 -1.02.8-1.86 2-2.53 3.6 -.67 1.6-1.01 3.84-1.01 6.72v19.7c-.97.15-1.93.26-2.89.31 -.97.05-1.9.07-2.81.07 -.91 0-1.83-.03-2.77-.08 -.94-.06-1.91-.17-2.93-.32v-41.5c.8-.16 1.56-.29 2.28-.36 .72-.09 1.5-.13 2.36-.13 .8 0 1.58.05 2.36.16 .77.1 1.53.24 2.28.4 .16.26.3.65.44 1.16 .13.5.25 1.04.36 1.6 .1.56.19 1.12.28 1.68 .07.56.14 1.02.2 1.4 1.17-1.66 2.61-3.14 4.32-4.45 1.7-1.31 3.84-1.97 6.4-1.97Zm55.39-.49c4.69 0 8.15 1.29 10.37 3.88 2.21 2.58 3.32 6.63 3.32 12.13v26.35c-1.93.32-3.82.48-5.69.48 -1.87 0-3.77-.16-5.69-.49V47.23c0-2.89-.37-5.1-1.09-6.65 -.72-1.55-2.18-2.33-4.37-2.33 -.91 0-1.81.13-2.69.39 -.89.26-1.69.76-2.41 1.48 -.73.72-1.31 1.73-1.77 3.04 -.46 1.3-.69 3-.69 5.08v22.34c-1.93.32-3.82.48-5.69.48 -1.87 0-3.77-.16-5.69-.49V47.18c0-2.89-.36-5.1-1.09-6.65 -.73-1.55-2.18-2.33-4.37-2.33 -.91 0-1.82.13-2.73.39 -.91.26-1.73.78-2.45 1.56 -.73.77-1.3 1.85-1.73 3.24 -.43 1.38-.65 3.2-.65 5.44v21.7c-1.93.32-3.82.48-5.69.48 -1.87 0-3.77-.16-5.69-.49V29.1c.74-.16 1.49-.29 2.24-.36 .74-.09 1.57-.13 2.48-.13 .9 0 1.7.03 2.4.12 .69.07 1.41.2 2.16.35 .15.26.3.65.44 1.16 .13.5.25 1.04.36 1.6 .1.56.19 1.1.28 1.64 .08.53.14.98.2 1.36 .42-.8.98-1.61 1.68-2.41 .69-.81 1.52-1.53 2.48-2.17 .96-.65 2.04-1.17 3.24-1.57 1.2-.41 2.55-.61 4.04-.61 6.46 0 10.59 2.45 12.41 7.36 1.06-1.98 2.57-3.7 4.52-5.17 1.94-1.47 4.41-2.21 7.4-2.21Zm110.33-11.14v12.09h9.69c.16.8.26 1.52.32 2.16 .05.64.08 1.3.08 2 0 .74-.03 1.46-.09 2.16 -.06.69-.17 1.46-.33 2.32h-9.7v16.26c0 1.65.13 2.98.4 4 .26 1.01.65 1.81 1.16 2.4 .5.58 1.13.98 1.88 1.2 .74.21 1.62.32 2.64.32 .8 0 1.58-.07 2.36-.21 .77-.14 1.45-.26 2.04-.37 .37 1.01.64 2.06.8 3.16 .16 1.09.24 2.07.24 2.92 0 .58-.02 1.08-.04 1.48 -.03.39-.07.78-.12 1.16 -2.46.58-5 .88-7.61.88 -4.86 0-8.58-1.14-11.14-3.41 -2.57-2.27-3.85-5.97-3.85-11.1V37.8h-5.21l-.41-1.61 14.97-19.15h1.84Zm-73.47 20.02c-2.94 0-5.06 1.1-6.37 3.32 -1.31 2.21-1.97 5.4-1.97 9.57 0 4.16.65 7.35 1.96 9.57 1.3 2.21 3.43 3.32 6.36 3.32 2.99 0 5.14-1.11 6.44-3.33 1.3-2.22 1.96-5.41 1.96-9.58s-.66-7.36-1.97-9.58c-1.31-2.22-3.46-3.33-6.45-3.33ZM192.9 51.24c-2.62 0-4.69.46-6.21 1.4 -1.53.93-2.29 2.44-2.29 4.52 0 1.38.29 2.45.88 3.2 .58.74 1.29 1.29 2.12 1.64 .82.34 1.7.56 2.64.64 .93.07 1.74.12 2.44.12 .8 0 1.6-.07 2.4-.21 .8-.14 1.49-.26 2.08-.37V51.6c-.65-.11-1.34-.21-2.09-.29 -.75-.08-1.42-.12-2.01-.12ZM54.91 3.82c.19.06.35.18.46.34l.06.09 .02.03 .02.04c.05.1.1.22.12.37 .04.27.05.88.06 1.53l0 .39c0 .13 0 .25 0 .38l-.01.69c-.01.36-.01.63-.01.68l-.01.01 .16 6.22 .24 7.18 .3 12.47s0 0 0 .02l0 .06c-.01.72-.16 5.93-3.85 9.55 -3.98 3.89-8.87 3.54-12.05 2.46 -3.19-1.08-7.29-3.77-8.08-9.28 -.78-5.42 2.66-9.83 2.79-9.99l0-.01 7.82-9.73 4.55-5.56 3.91-4.85s1.79-2.41 2.3-2.91c.06-.07.13-.12.2-.16l.1-.06 .07-.04 .01-.01c.21-.1.46-.12.7-.04Zm235.76 33.07c-2.68 0-4.7.74-6.09 2.24 -1.39 1.49-2.22 3.6-2.49 6.32h16.17c-.11-2.57-.82-4.64-2.13-6.21 -1.31-1.58-3.14-2.37-5.49-2.37Z"/></svg>