<svg viewBox="0 0 512 78" xmlns="http://www.w3.org/2000/svg"><path d="M38.4.85c21.16 0 38.4 17.23 38.4 38.57 0 21.33-17.24 38.57-38.4 38.57C17.23 77.99 0 60.92 0 39.41 0 17.9 17.23.83 38.4.83ZM339.45-.01v67.584c0 5.12 2.04 6.48 5.97 7.5v0l.17.85h-21.68v-8.37c-2.56 6.14-7.86 9.89-14.68 9.89 -11.61 0-19.29-10.59-19.29-26.29 0-8.88 2.56-16.39 7.33-22.02 4.6-5.47 10.92-8.37 17.92-8.37 3.41 0 6.31.68 8.7 2.21v0V13.75c0-2.048-.52-3.42-1.54-4.44 -1.37-1.2-3.59-1.71-7-1.37v0h-.18v-.86L339.4-.09Zm82.26 20.99v46.59c0 5.12 2.04 6.48 5.97 7.5v0 .85h-21.68v-8.54c-2.56 6.14-8.2 10.06-14.51 10.06 -7.51 0-12.29-3.42-14.17-10.07v0l-.35-1.71c-.35-1.71-.52-3.42-.52-5.12v0V35.62c0-5.47-1.2-7.17-5.98-7.51v0h-.18v-.86l21.67-6.32v39.25c0 5.8 2.56 9.04 7.33 9.04 2.9 0 5.29-1.54 6.65-4.1v0V35.59c0-5.64-1.03-7.34-4.95-7.68v0h-.18v-.86l20.82-6.15ZM265.2 20.8c5.8 0 11.43 2.04 15.18 5.63 4.26 4.096 6.48 10.06 6.65 17.92v0 .17h-32.6c-.69 11.26 6.31 20.48 15.53 20.82 6.65.51 12.45-3.59 15.7-10.24v0l.85.34c-1.88 12.45-9.22 21.84-22.02 21.84 -14.51 0-22.7-12.12-23.04-27.31v0 -3.93c.68-6.66 2.73-12.63 6.31-17.07 2.21-2.74 4.77-4.78 7.85-6.15 2.56-1.37 6.31-2.05 9.38-2.05v0Zm225.79.17c9.21 0 14.84 5.8 14.84 15.7v0 31.74c0 3.75 1.7 5.63 5.97 6.65v0h.17v.85h-21.85V37.16c0-6.15-2.22-9.22-6.83-9.22 -3.76 0-5.64 2.73-6.66 5.12 .17 1.19.34 2.38.34 3.58v0 32.25c0 3.92 1.19 5.29 4.6 6.14v0h.17v.85h-20.31V37.13c0-6.15-2.39-9.22-6.83-9.22 -3.59 0-5.47 2.56-6.32 4.6v0 36.52c0 3.92 1.19 5.29 4.6 6.14v0h.17v.85h-20.31V35.4c0-5.47-1.37-7.17-5.98-7.51v0h-.18v-.86l21.67-5.98v9.04c2.21-5.81 7.33-9.22 13.82-9.22 7.33 0 12.45 3.58 14.16 10.06 2.21-6.15 7.85-10.07 14.67-10.07ZM179.7 3.39L200 51l20.3-47.62h21.84l-.18.85 -.25.05c-3.77.85-5.73 2.26-5.73 6.94v0 58.02c.34 3.75 2.38 4.94 5.97 5.8v0h.17v.85H214.3v-.86h.17c3.58-.86 5.63-2.05 5.97-5.81v0 -56.5l-26.8 62.976h-1.54l-26.12-61.27v53.41c0 4.77 2.04 6.14 5.97 6.99v0h.17v.85h-16.05v-.86h.17c3.92-.86 5.97-2.22 5.97-7v0V11.14c0-4.78-2.05-6.15-5.98-7v0h-.18v-.86h23.55Zm186.19 17.57v46.59l0 .31c.08 4.86 2.12 6.19 5.97 7.19v0l.17.85h-21.68V35.62c0-5.47-1.2-7.17-5.98-7.51v0h-.18v-.86l21.67-6.32ZM99.82 3.04c10.41 0 19.11 16.384 19.11 36.35 0 20.13-8.54 36.35-19.12 36.35 -10.59 0-19.12-16.22-19.12-36.352 0-20.14 8.53-36.352 19.11-36.352Zm29.35 3.75c3.92 0 6.82 14.67 6.82 32.59s-3.08 32.59-6.83 32.59c-3.72 0-6.77-14.39-6.83-32.07l-.01-.54c0-17.92 3.07-32.6 6.82-32.6Zm188.58 17.06c-6.83-.001-11.1 9.04-11.1 23.04 0 6.65 1.19 12.45 3.24 16.38 1.87 3.75 4.6 5.8 7.68 5.8 3.07 0 5.29-1.37 6.31-3.93v0V27.59c-1.2-2.39-3.42-3.76-6.15-3.76Zm-52.74.17c-6.15 0-9.73 7.33-10.24 17.57v0 .17h18.6c.34-8.03-1.03-13.32-3.59-15.88 -1.37-1.2-2.91-1.88-4.78-1.88ZM357.51.46c4.94-.001 8.7 3.75 8.7 8.7 0 4.94-3.76 8.7-8.71 8.7 -4.95 0-8.71-3.76-8.71-8.71 0-4.95 3.75-8.71 8.7-8.71Z"/></svg>