<svg viewBox="0 0 256 277" xmlns="http://www.w3.org/2000/svg"><defs><linearGradient id="a" x1="-66.698%" x2="108.629%" y1="81.87%" y2="34.418%"><stop offset="26.5625%" stop-color="#592EE1"/><stop offset="100%" stop-color="#B836D9"/></linearGradient></defs><path fill="url(#a)" d="M223.51 44.82L161.16 8.84c-20.4-11.8-45.4-11.8-65.8 0L32.72 44.81C12.6 56.6-.04 78.48-.04 101.79v72.23c0 23.59 12.64 45.18 32.75 56.98l62.34 36.26c20.39 11.79 45.39 11.79 65.79 0l62.34-36.27c20.39-11.8 32.75-33.39 32.75-56.99v-72.24c.57-23.32-12.07-45.19-32.47-56.99Zm-95.39 157.42c-35.34 0-64.07-28.78-64.07-64.18 0-35.4 28.72-64.18 64.06-64.18 35.33 0 64.35 28.77 64.35 64.17 0 35.39-28.73 64.17-64.36 64.17Z"/></svg>