<svg viewBox="0 0 512 100" xmlns="http://www.w3.org/2000/svg"><path fill="#5A7281" d="M122.28 73.83h4.54c1.13 0 1.75-.32 1.75-2.74V41.51c0-2.53-.42-3.16-1.76-3.16h-4.55v-7.9h8.05c5.05 0 9.69-.53 11.96-1.06v10.1c3.09-6.74 8.04-10.43 15.68-10.43 8.04 0 13.2 3.78 14.96 11.68 2.68-7.58 8.04-11.69 16.51-11.69 10.93 0 16.61 6.2 16.61 19.99v21.99c0 2.42.61 2.73 1.75 2.73h4.53v7.89h-25.8v-7.9h3.81c1.13 0 1.75-.32 1.75-2.74V49.85c0-7.9-2.58-11.37-8.26-11.37 -6.4 0-9.6 5.15-9.6 14.94v17.57c0 2.42.61 2.73 1.75 2.73h4.33v7.89h-25.6v-7.9h3.81c1.13 0 1.75-.32 1.75-2.74V48.86c0-6.95-2.89-10.43-8.26-10.43 -6.4 0-9.6 5.15-9.6 14.94v17.57c0 2.42.62 2.73 1.75 2.73h4.02v7.89h-26.01v-7.9h-.01v0Zm106.99-15.06c.3 9.57 4.95 15.89 14.34 15.89 7.12 0 11.24-3.69 13.62-9.9l7.84 3.57c-2.79 8.21-9.6 14.73-22.6 14.73 -18.27 0-27.45-11.27-27.45-27.06 0-16 10.62-26.95 26.1-26.95 15.89 0 24.66 10.1 24.66 27.04v2.63h-36.53v0Zm-.21-7.16h22.7c-.21-10.43-3.31-14.42-10.63-14.42 -7.33 0-11.46 4.31-12.08 14.41v0Zm60.25-12c3.19-7.06 8.97-10.53 17.02-10.53 10.62 0 16.3 6.31 16.3 19.15v22.83c0 2.42.61 2.73 1.75 2.73h4.53v7.89H302.9v-7.9h4.02c1.13 0 1.75-.32 1.75-2.74V48.51c0-7.16-2.58-10.21-8.26-10.21 -6.92 0-10.94 5.26-10.94 16.73v15.99c0 2.42.61 2.73 1.75 2.73h4.02v7.89h-26.01v-7.9h4.53c1.13 0 1.75-.32 1.75-2.74V41.42c0-2.53-.42-3.16-1.76-3.16h-4.54v-7.9h8.04c5.05 0 9.69-.53 11.97-1.06v10.21 0Zm47.46 27.46V38.33h-6.82v-7.06s4.23-.32 3.92-.32c3.5-.64 5.77-2 6.19-5.79l1.03-9.27h9.59v14.52h10v7.89h-10.32v28.52c0 5.57 1.96 7.47 6.39 7.47 2.16 0 3.5-.43 4.74-.85v8.1c-1.97.63-5.37 1.36-8.98 1.36 -11.36-.01-15.79-4.43-15.79-15.9v0Zm28.26 6.73h4.64c1.13 0 1.65-.53 1.65-2.74V42.53c0-3.27-.52-4.22-2.28-4.22h-4.03v-7.9h8.25c5.05 0 9.7-.53 12.07-1.06v41.67c0 2.2.51 2.73 1.65 2.73h4.33v7.89h-26.32v-7.9h-.01v0Zm4.53-56.73c0-4.74 3.4-8.64 8.66-8.64 5.05 0 8.66 3.89 8.66 8.63 0 4.73-3.62 8.63-8.67 8.63 -5.27-.01-8.67-3.9-8.67-8.64v0Zm25.58 38.94c0-16 10.83-26.95 27.03-26.95 15.78 0 26.41 10.84 26.41 26.94s-10.74 27.05-26.83 27.05c-16 0-26.63-10.85-26.63-27.06v0Zm39.52.73v-1.37c0-12.32-4.03-17.9-12.7-17.9 -8.78 0-12.8 5.57-12.8 17.89v1.36c0 12.31 3.92 17.89 12.69 17.89s12.79-5.69 12.79-17.9v0Zm37.55-17.16c3.19-7.06 8.97-10.53 17.02-10.53 10.62 0 16.3 6.31 16.3 19.15v22.83c0 2.42.61 2.73 1.75 2.73h4.53v7.89H485.8v-7.9h4.02c1.13 0 1.75-.32 1.75-2.74V48.48c0-7.16-2.59-10.21-8.26-10.21 -6.92 0-10.94 5.26-10.94 16.73v15.99c0 2.42.61 2.73 1.75 2.73h4.02v7.89h-26.01v-7.9h4.54c1.13 0 1.75-.32 1.75-2.74V41.39c0-2.53-.42-3.16-1.76-3.16h-4.55v-7.9h8.04c5.05 0 9.69-.53 11.97-1.06v10.21h0v0Z"/><path fill="#00A0DE" d="M48.96 0C21.91 0-.01 22.35-.01 49.94c0 27.58 21.92 49.94 48.96 49.94s48.96-22.37 48.96-49.95c0-27.59-21.92-49.95-48.97-49.95v0 0Zm21.96 82.34l-21.97-16.2 -21.97 16.19 8.37-26.15 -22.1-16.64h27.36l8.32-26.24 8.32 26.23H84.6L62.5 56.16l8.37 26.14v0Z"/></svg>