<svg viewBox="0 0 256 240" xmlns="http://www.w3.org/2000/svg"><path fill="#E17726" d="M250.06 0L140.21 81.27l20.42-47.91Z"/><g fill="#E27625"><path d="M6.19.09l89.18 33.28 19.39 48.52Z"/><path d="M205.85 172.85l48.55.92 -16.97 57.64 -59.25-16.32Z"/><path d="M50.13 172.85l27.55 42.25 -59.15 16.31 -16.87-57.65Z"/><path d="M112.13 69.55l1.98 64.08 -59.38-2.71 16.88-25.48 .21-.25Z"/><path d="M143.25 68.83l40.89 36.37 .21.24 16.88 25.47 -59.36 2.7Z"/><path d="M79.43 173.04l32.41 25.25 -37.66 18.18Z"/><path d="M176.57 173.04l5.13 43.44 -37.56-18.19Z"/></g><g fill="#D5BFB2"><path d="M144.97 195.92l38.1 18.45 -35.45 16.84 .36-11.14Z"/><path d="M111.01 195.92l-2.91 23.97 .23 11.3 -35.54-16.84Z"/></g><g fill="#233447"><path d="M100 141.99l9.95 20.92 -33.91-9.94Z"/><path d="M155.99 142l24.05 10.99 -34.02 9.92Z"/></g><g fill="#CC6228"><path d="M82.02 172.83l-5.49 45.03 -29.38-44.06Z"/><path d="M173.97 172.83l34.85.98 -29.49 44.05Z"/><path d="M202.11 128.38l-25.37 25.85 -19.56-8.94 -9.37 19.68 -6.14-33.85Z"/><path d="M53.87 128.38l60.43 2.74 -6.14 33.84 -9.37-19.69 -19.46 8.93Z"/></g><g fill="#E27525"><path d="M52.16 123.08l28.69 29.12 .99 28.74Z"/><path d="M203.86 123.02l-29.75 57.97 1.11-28.81Z"/><path d="M112.9 124.85l1.15 7.26 2.85 18.11 -1.84 55.62 -8.68-44.69 -.01-.47Z"/><path d="M143.07 124.75l6.52 35.96 -.01.46 -8.7 44.79 -.35-11.21 -1.36-44.87Z"/></g><g fill="#F5841F"><path d="M177.78 151.04l-.98 24.97 -30.28 23.58 -6.13-4.33 6.86-35.34Z"/><path d="M78.31 151.04l30.39 8.9 6.85 35.33 -6.13 4.32L79.14 176Z"/></g><path fill="#C0AC9D" d="M67.01 208.85l38.73 18.35 -.17-7.84 3.24-2.85 38.33 0 3.35 2.83 -.25 7.83 38.48-18.3 -18.73 15.47 -22.65 15.55 -38.87 0 -22.64-15.62Z"/><path fill="#161616" d="M142.2 193.47l5.47 3.86 3.2 25.6 -4.65-3.93 -36.48 0 -4.56 4 3.1-25.69 5.47-3.88Z"/><g fill="#763E1A"><path d="M242.81 2.24l13.18 39.55 -8.24 39.99 5.86 4.52 -7.94 6.05 5.96 4.6 -7.9 7.19 4.84 3.51 -12.87 15.02 -52.77-15.37 -.46-.25 -38.03-32.08Z"/><path d="M13.18 2.24l98.32 72.77 -38.03 32.07 -.46.24 -52.78 15.36 -12.87-15.03 4.84-3.51 -7.9-7.2 5.95-4.61 -8.06-6.08 6.08-4.53 -8.33-39.98Z"/></g><g fill="#F5841F"><path d="M180.39 103.99l55.91 16.27 18.16 55.98 -47.93-.01 -33.03.41 24.01-46.81Z"/><path d="M75.6 103.99l-17.16 25.87 24.01 46.8 -33.01-.42 -47.84 0 18.06-55.99Z"/><path d="M163.38 33.11l-15.64 42.23 -3.32 57.06 -1.27 17.88 -.11 45.68 -30.12 0 -.1-45.61 -1.28-17.99 -3.33-57.05 -15.64-42.24Z"/></g></svg>