<svg viewBox="0 0 512 124" xmlns="http://www.w3.org/2000/svg"><g transform="translate(303.543 0)"><g fill="#DF4F4F" fill-rule="evenodd"><path d="M.21.21l107.28 113.64s3.65 2.57 6.45-.43c2.79-3.01.64-6.02.64-6.02L.19.2v0Z"/><path d="M34.18 10.95l81.7 88.07s3.65 2.57 6.45-.43c2.79-3.01.64-6.02.64-6.02l-88.8-81.64v-.001Z"/><path d="M10.32 33.94l81.7 88.07s3.65 2.57 6.45-.43c2.79-3.01.64-6.02.64-6.02l-88.8-81.64v0Z"/><path d="M62.9 20.19l57.07 61.53s2.55 1.8 4.5-.31c1.95-2.11.45-4.21.45-4.21L62.88 20.16v0Z"/><path d="M18.18 60.58l57.07 61.53s2.55 1.8 4.5-.31c1.95-2.11.45-4.21.45-4.21L18.16 60.55v0Z"/><path d="M92.23 33.51l25.87 27.97s1.26.84 2.22-.15c.96-.99.22-1.97.22-1.97L92.21 33.49v0Z"/><path d="M32.46 88.93l25.87 27.97s1.26.84 2.22-.15c.96-.99.22-1.97.22-1.97L32.44 88.91v0Z"/></g></g><g transform="translate(0 44.1841)"><g fill="#26262C" fill-rule="evenodd"><path d="M446.17 2.04v75.43l17.06 0V53.13h12.8l16.45 24.33h19.5L493.69 51.3s16.23-6.42 16.23-23.83c0-24.58-22.34-25.45-22.34-25.45l-41.45-.01v0Zm17.06 14.6v21.89h21.94s8.38-.01 8.38-10.96c0-11.37-10.22-10.95-10.22-10.95h-20.12v0Z"/><path d="M257.21 2.04v75.43h57.29v-14.6h-40.23V47.05h34.74v-14.6h-34.75V16.62h40.22V2.03h-57.3v0Z"/><path d="M174.32 2.04v14.59h22.55v60.83h17.06V16.62h22.55V2.02H174.3v0Z"/><path d="M96.3 2.04v75.43h57.29v-14.6h-40.23V47.05h34.74v-14.6h-34.75V16.62h40.22V2.03h-57.3v0Z"/><path d="M0 2.04v75.43l17.05-.01V30l20.72 30.41L58.5 29.99v47.45l17.06 0V2H58.49L37.75 33.02 17.02 1.99l-17.06 0v0Z"/></g></g></svg>