<svg viewBox="0 0 512 177" xmlns="http://www.w3.org/2000/svg"><path d="M219.89 69.65v-4.1c2.73-.18 4.95-.69 6.99-1.37 2.04-.69 4.26-1.71 6.82-3.08h3.92v8.87l1.19-.94c.38-.31.76-.6 1.13-.87l1.07-.81c.17-.13.34-.26.51-.38l.99-.71c.16-.12.31-.23.47-.33l.9-.61c.14-.1.29-.2.43-.29l.82-.53v0l.77-.47v0l.71-.42c.11-.07.22-.13.33-.19 3.41-1.71 6.82-2.57 9.9-2.57 2.21 0 4.26.34 6.31 1.19 2.04.85 3.75 1.7 4.95 2.9 1.19 1.19 2.39 2.73 3.24 4.78 3.53-3.06 6.76-5.35 9.69-6.61l.54-.23c3.24-1.37 6.31-2.05 9.56-2.05 3.07 0 5.8.68 8.19 1.87 2.39 1.36 4.09 2.9 5.12 4.78 1.02 1.87 1.53 4.78 1.53 8.53l0 26.57v0l0 .64v0l.01.55v0l.02.45v0l.03.36c.02.21.05.35.09.43 .17.68.51 1.36 1.19 1.87 .44.59 1.02.93 1.73 1.12l.48.11v0l.41.07c.07.01.15.02.24.03l.55.06v0l.65.05v0l.75.04c.26.01.54.01.84.02l2.16 0v4.43h-26.47v-4.44l1.03-.01c.32-.01.64-.02.93-.03l.84-.05c1.33-.09 2.3-.25 2.96-.53l.18-.09c.85-.35 1.53-1.03 2.04-2.05 .38-.77.57-1.93.64-3.61l.02-.89v0l0-.98v0V76.74c0-2.91-.35-4.96-.86-6.15 -.52-1.2-1.54-2.05-2.91-2.91 -1.37-.69-3.08-1.2-5.13-1.2 -2.57 0-5.13.68-7.86 2.04 -3.76 1.87-6.66 3.92-8.71 6.14v25.26l0 .91v0l.02.84v0l.03.75v0l.04.67v0l.05.57v0l.06.48v0l.06.37c.01.05.02.1.03.15 .17.68.68 1.36 1.19 1.87 .51.51 1.19.85 1.87 1.02 .08.02.17.04.29.05l.38.05v0l.47.05v0l.56.04v0l.65.04v0l.73.03v0l.81.02c.14 0 .28 0 .43 0l.92 0v0 4.43h-26.13v-4.44h1.53c2.04 0 3.58-.18 4.43-.69 .85-.52 1.53-1.2 2.04-2.22 .25-.63.4-1.72.47-3.19l.02-.85c0-.15 0-.3 0-.46l0-23.01c0-.73-.02-1.4-.05-2.04l-.06-.91c-.13-1.6-.37-2.82-.67-3.54l-.09-.19c-.52-1.2-1.54-2.22-2.91-2.91 -1.37-.86-3.08-1.2-5.13-1.2 -2.22 0-4.61.51-7 1.7 -3.42 1.7-6.66 3.75-9.57 6.48v27.14c0 1.7.17 2.73.68 3.58 .51.68 1.19 1.36 2.04 1.87 1.02.51 2.21.68 3.92.68h1.87v4.43h-26.64v-4.44h1.36c.31 0 .62-.01.91-.01l.84-.03v0l.75-.05c.95-.08 1.67-.2 2.11-.37l.15-.07c1.08-.47 1.74-1.22 2.24-2.25l.14-.32c.14-.29.22-.71.27-1.31l.03-.56v0l.02-.64v0l.01-.73v0l0-1.74v0V69.06h-8.71Zm101.75 0v-4.27c2.66-.32 5.03-.77 6.85-1.37l.48-.17c1.36-.46 2.8-1.07 4.37-1.78l1.61-.75c.27-.13.55-.26.84-.4h3.92v42.51c0 1.38.13 2.35.53 3.15l.14.26c.34.68 1.02 1.36 1.7 1.53 .52.26 1.55.42 2.85.48l.81.02c.14 0 .28 0 .42 0h2.56v4.43h-27.15v-4.44h2.21l.91-.01c1.87-.05 3.12-.23 3.86-.68 .85-.35 1.36-1.03 1.7-1.88 .14-.36.25-.85.33-1.52l.06-.62c0-.11.01-.23.02-.34l.04-.75v0l.02-.84v0l.01-.93c0-.17 0-.33 0-.5V69.53h-9.22Zm13.48-32.61c1.7 0 3.07.51 4.26 1.7s1.87 2.56 1.87 4.26c0 1.7-.69 3.07-1.88 4.26 -1.2 1.19-2.74 1.87-4.27 1.87 -1.71 0-3.08-.69-4.27-1.88 -1.2-1.2-1.88-2.74-1.88-4.27 0-1.71.68-3.08 1.87-4.27 1.02-1.03 2.56-1.71 4.26-1.71Zm66.24 61.63l3.41 2.73c-6.66 8.87-14.69 13.31-23.91 13.31 -7.18 0-13.32-2.57-18.27-7.69 -4.96-5.13-7.52-11.61-7.52-19.3 0-5.13 1.19-9.74 3.41-13.83 2.21-4.1 5.46-7.18 9.56-9.57 4.09-2.22 8.87-3.42 14.17-3.42 6.14 0 11.09 1.53 15.19 4.43 4.09 2.9 6.14 5.97 6.14 9.04 0 1.7-.52 2.9-1.37 3.75 -.86.85-2.05 1.36-3.25 1.36 -.69 0-1.2-.18-1.88-.52 -.69-.35-1.2-.86-1.88-1.54 -.14-.14-.29-.37-.47-.69l-.24-.44v0l-.26-.52v0l-.43-.93c-.06-.12-.11-.23-.16-.35l-.98-1.94v0l-.33-.63v0l-.3-.55v0l-.27-.46c-.13-.21-.25-.39-.36-.54 -1.03-1.37-2.4-2.57-4.1-3.42 -1.54-.86-3.42-1.2-5.3-1.2 -3.08 0-5.81.85-8.37 2.56 -2.57 1.7-4.61 4.09-6.15 7.34 -1.54 3.24-2.22 7.17-2.22 11.6 0 6.99 1.87 12.46 5.63 16.56 3.24 3.58 6.99 5.29 11.43 5.29 2.04 0 4.09-.35 6.14-1.03 2.04-.69 4.09-1.71 5.97-3.08 .46-.31.98-.71 1.57-1.21l.61-.54c.1-.1.21-.2.32-.3l.67-.65v0l.72-.72v0l.77-.79v0l.82-.87v0l.87-.95v0l.45-.51Zm9.56-29.03v-4.27c2.56-.18 4.78-.69 6.82-1.37 2.04-.69 4.26-1.71 6.82-3.25h3.92v10.07c2.56-3.08 5.46-5.47 8.7-7.35 3.24-1.88 6.31-2.74 8.87-2.74 2.56 0 4.6.68 6.14 1.87 1.53 1.19 2.21 2.73 2.21 4.43 0 1.19-.52 2.39-1.54 3.41 -1.03 1.02-2.22 1.53-3.59 1.53 -.57 0-1.02-.12-1.46-.26l-.26-.09c-.52-.18-1.2-.52-2.05-1.2 -1.88-1.2-3.59-1.88-4.96-1.88 -1.71 0-3.76.68-5.81 2.21 -2.74 1.87-4.79 3.75-6.32 5.63v24.58c0 .43 0 .85.02 1.24l.03.74v0l.04.66v0l.05.57c.02.17.04.34.06.48l.07.39c.01.05.02.11.03.15 .17.68.68 1.36 1.19 1.87 .51.51 1.19 1.02 1.87 1.19l.24.04v0l.56.08c.1.01.21.02.32.04l.71.07c.64.05 1.38.08 2.24.08h1.7v4.43h-27.32v-4.44h2.21c.29 0 .57-.01.84-.01l.75-.03c1.3-.07 2.17-.23 2.67-.48 .74-.45 1.36-1.03 1.84-1.86l.2-.37c.44-.74.63-2.13.67-4.15l0-.98v0V69.42h-8.71Zm75.28-8.71c5.12 0 9.73 1.02 13.48 3.24 3.75 2.21 6.82 5.29 9.04 9.38 2.21 4.09 3.24 8.87 3.24 14.17 0 5.29-1.2 10.07-3.42 14.17 -2.11 3.88-4.98 6.99-8.61 9.05l-.62.33c-3.93 2.21-8.54 3.24-13.83 3.24 -8.54 0-15.03-2.74-19.3-8.03 -4.27-5.3-6.49-11.61-6.49-18.78 0-5.3 1.19-9.91 3.41-14 2.21-4.1 5.29-7.18 9.38-9.57 3.85-1.93 8.16-3.11 12.78-3.24l.87-.02Zm-.35 5.12c-4.1 0-7.52 1.53-10.25 4.78 -3.59 3.92-5.3 9.73-5.3 17.24 0 7.34 1.53 12.8 4.43 16.56 2.73 3.41 6.48 5.12 11.09 5.12 3.07 0 5.63-.86 8.02-2.4 2.39-1.54 4.26-4.1 5.63-7.69 1.36-3.42 2.21-7.52 2.21-12.3 0-4.61-.86-8.71-2.4-12.3 -1.2-2.91-3.08-5.13-5.47-6.83 -2.08-1.28-4.59-2.11-7.42-2.21l-.62-.02Z"/><path fill="#2E3192" d="M88.09 0C39.43 0-.01 39.43-.01 88.09c0 48.65 39.43 88.09 88.09 88.09 48.65 0 88.09-39.44 88.09-88.1s-39.44-88.1-88.1-88.1Zm41.82 100.04c-.86 3.41-2.22 6.14-4.1 8.36 -1.71 2.21-3.42 3.58-5.3 4.26 -1.88.68-3.76 1.02-5.81 1.02s-3.76-.35-5.13-1.2c-1.37-.69-2.4-1.88-3.25-3.25 -.86-1.37-1.37-3.08-1.71-4.96 -.35-1.88-.52-3.93-.52-6.15 0-.86 0-1.71.17-2.91 .17-1.2.34-2.74.51-2.74h-.35c-2.74 6.82-6.49 11.77-11.27 15.7 -4.79 3.92-10.08 5.8-15.88 5.8 -3.93 0-7.18-1.54-9.39-4.44 -2.4-2.91-3.59-7.35-3.59-13.15 0-.86 0-1.71.17-2.74 .17-.86.17-1.2.34-2.91h-1.2c-1.54 3.41-2.91 8.19-3.93 12.46 -1.03 4.26-1.88 8.19-2.4 11.77 -.69 3.58-1.03 6.82-1.37 9.56 -.35 2.73-.52 4.6-.69 5.63 .17.85.34 1.7.51 2.73 .34 1.02.51 2.04.85 2.9 .34.85.51 1.87.68 2.73 .17.85.34 1.53.34 2.04 0 2.39-.52 4.26-1.54 5.46 -1.03 1.19-2.22 1.87-3.42 1.87 -1.54 0-2.91-.52-3.93-1.37 -1.2-1.03-1.71-2.57-1.71-4.61 0-2.91.51-6.66 1.53-11.1 1.02-4.44 2.56-10.08 4.43-16.74 1.02-3.08 1.87-6.15 2.9-9.22 1.02-3.08 1.87-5.98 2.73-8.54 .85-2.57 1.53-4.96 2.21-7 .68-2.05 1.02-3.59 1.19-4.79 .17-.52.34-1.71.51-3.42 .17-1.71.34-3.59.68-5.81 .34-2.22.51-4.61.85-7 .34-2.57.68-4.79.85-6.83 .34-1.54.51-3.25.85-5.13 .34-1.88.85-3.76 1.53-5.3 .68-1.71 1.7-3.08 2.9-4.27 1.19-1.2 2.73-1.71 4.6-1.71 2.04 0 3.41.68 4.09 1.87 .68 1.19 1.02 2.73.85 4.43 -.18 1.7-.35 3.58-.86 5.46 -.52 1.87-1.03 3.58-1.54 4.95 -1.37 4.26-2.74 8.19-4.27 11.43 -1.54 3.24-2.91 6.82-4.1 10.58 -1.03 2.56-1.37 4.95-1.37 6.99 0 3.75 1.19 6.48 3.41 8.53 2.39 2.04 5.12 2.9 8.36 2.9 2.56 0 5.12-.86 7.51-2.74 2.39-1.88 4.6-4.1 6.65-6.66 2.04-2.57 3.75-5.3 5.12-8.37 1.36-2.91 2.39-5.64 3.07-7.86 .17-.35.34-1.03.51-2.4 .34-1.37.51-2.91.85-4.61 .34-1.71.68-3.42 1.02-5.3 .34-1.88.68-3.42.85-4.61 .34-1.37.51-2.74.85-4.44 .34-1.71.85-3.25 1.53-4.79s1.7-2.74 2.73-3.76c1.19-1.03 2.56-1.54 4.43-1.54 2.21 0 3.58.68 4.43 1.87 .68 1.19 1.02 2.73 1.02 4.43 -.18 1.7-.35 3.41-.86 5.12 -.52 1.7-.86 3.07-1.2 4.09 -1.37 4.26-2.74 8.02-4.1 11.43 -1.37 3.41-2.57 6.48-3.76 8.87 -1.03 2.56-1.88 4.43-2.57 5.97 -.69 1.53-1.03 2.56-1.03 3.07 0 4.43 1.02 7.68 2.9 9.56 1.87 1.87 3.92 2.9 6.14 2.9 3.75 0 6.65-1.2 8.87-3.42 2.21-2.4 3.92-6.66 4.95-11.78h1.36c.34 4.95-.18 9.04-1.03 12.46v0Z"/></svg>