<svg viewBox="0 0 256 239" xmlns="http://www.w3.org/2000/svg" xmlns:xlink="http://www.w3.org/1999/xlink"><defs><linearGradient id="a" x1="17.372%" x2="82.628%" y1="-6.511%" y2="106.51%"><stop offset="0%" stop-color="#5A62C3"/><stop offset="50%" stop-color="#4D55BD"/><stop offset="100%" stop-color="#3940AB"/></linearGradient><path id="b" d="M136.93 64.47v12.8c-2.01-.14-4.01-.46-5.96-.96 -12.06-2.86-22.02-11.31-26.8-22.75h21.84c6 .02 10.87 4.88 10.89 10.89Z"/></defs><g fill="#5059C9"><path d="M178.56 89.3h66.12c6.24 0 11.31 5.06 11.31 11.31 0 0 0 0 0 0v60.23c0 22.96-18.62 41.57-41.58 41.57v0h-.2c-22.97 0-41.58-18.61-41.58-41.57 0-.01 0-.01 0-.01V95.19c0-3.27 2.64-5.92 5.91-5.92v0Z"/><path d="M223.25 23.81a26.79 26.79 0 1 0 0 53.58 26.79 26.79 0 1 0 0-53.59Z"/></g><g fill="#7B83EB"><path d="M139.9 0a38.69 38.69 0 1 0 0 77.39 38.69 38.69 0 1 0 0-77.4Z"/><path d="M191.5 89.3H82.34c-6.18.15-11.06 5.27-10.92 11.44v68.69c-.87 37.04 28.44 67.78 65.48 68.69 37.04-.91 66.35-31.65 65.48-68.7v-68.7c.14-6.18-4.74-11.3-10.92-11.45Z"/></g><g><path opacity=".1" d="M142.88 89.3v96.26c-.03 4.41-2.71 8.38-6.79 10.06 -1.3.54-2.7.83-4.11.83H76.67c-.78-1.97-1.49-3.93-2.09-5.96 -2.09-6.84-3.15-13.94-3.16-21.08V100.7c-.15-6.17 4.73-11.28 10.89-11.44h60.54Z"/><path opacity=".2" d="M136.93 89.3v102.22c0 1.41-.29 2.8-.84 4.1 -1.69 4.08-5.65 6.75-10.07 6.78H79.46c-1.02-1.97-1.97-3.93-2.8-5.96 -.84-2.03-1.49-3.93-2.09-5.96 -2.09-6.84-3.15-13.94-3.16-21.08v-68.71c-.15-6.17 4.73-11.28 10.89-11.44h54.59Z"/><path opacity=".2" d="M136.93 89.3v90.31c-.05 5.99-4.9 10.84-10.9 10.89H74.59c-2.09-6.84-3.15-13.94-3.16-21.08v-68.71c-.15-6.17 4.73-11.28 10.89-11.44h54.59Z"/><path opacity=".2" d="M130.97 89.3v90.31c-.05 5.99-4.9 10.84-10.9 10.89H74.58c-2.09-6.84-3.15-13.94-3.16-21.08v-68.71c-.15-6.17 4.73-11.28 10.89-11.44h48.63Z"/><path opacity=".1" d="M142.88 58.52v18.75c-1.02.05-1.97.11-2.98.11 -1.02 0-1.97-.06-2.98-.12 -2.01-.14-4.01-.46-5.96-.96 -12.06-2.86-22.02-11.31-26.8-22.75 -.83-1.92-1.46-3.92-1.91-5.96h29.7c6 .02 10.87 4.88 10.89 10.89Z"/><use opacity=".2" xlink:href="#b"/><use opacity=".2" xlink:href="#b"/><path opacity=".2" d="M130.97 64.47v11.84c-12.06-2.86-22.02-11.31-26.8-22.75h15.89c6 .02 10.87 4.88 10.89 10.89Z"/></g><path fill="url(#a)" d="M10.91 53.58h109.15c6.02 0 10.91 4.88 10.91 10.91v109.15c0 6.02-4.89 10.91-10.92 10.91H10.89c-6.03 0-10.92-4.89-10.92-10.92V64.47c0-6.03 4.88-10.92 10.91-10.92Z"/><path fill="#FFF" d="M94.2 95.12l-21.82 0 0 59.41 -13.91 0 0-59.42 -21.72 0 0-11.53 57.43 0Z"/></svg>