<svg viewBox="0 0 512 110" xmlns="http://www.w3.org/2000/svg"><path fill="#706D6E" d="M512 49.44v-9.01h-11.19v-14l-.38.11 -10.51 3.21 -.21.06v10.6h-16.58V34.5c0-2.76.61-4.86 1.82-6.27 1.2-1.39 2.92-2.1 5.12-2.1 1.57 0 3.21.37 4.85 1.1l.41.18v-9.49l-.2-.08c-1.54-.56-3.63-.83-6.22-.83 -3.27 0-6.23.7-8.81 2.11 -2.59 1.4-4.63 3.41-6.05 5.97 -1.43 2.55-2.15 5.5-2.15 8.76v6.49h-7.79v9h7.78v37.93h11.17V49.33h16.57v24.1c0 9.92 4.68 14.95 13.91 14.95 1.51 0 3.11-.18 4.74-.53 1.65-.36 2.79-.72 3.45-1.1l.14-.09v-9.09l-.46.3c-.61.4-1.37.73-2.25.98 -.89.25-1.64.37-2.21.37 -2.17 0-3.77-.59-4.76-1.74 -1.01-1.17-1.52-3.2-1.52-6.04V49.27h11.18v0Zm-82.77 29.92c-4.06 0-7.26-1.35-9.51-4 -2.27-2.67-3.42-6.47-3.42-11.29 0-4.98 1.14-8.88 3.41-11.59 2.25-2.7 5.42-4.06 9.41-4.06 3.87 0 6.96 1.3 9.17 3.88 2.22 2.58 3.34 6.45 3.34 11.48 0 5.09-1.06 9.01-3.16 11.63 -2.08 2.59-5.2 3.92-9.28 3.92v0Zm.49-40.07c-7.75 0-13.89 2.26-18.28 6.74 -4.39 4.47-6.61 10.66-6.61 18.4 0 7.34 2.16 13.26 6.44 17.56 4.27 4.3 10.09 6.49 17.29 6.49 7.5 0 13.52-2.3 17.9-6.84 4.38-4.54 6.6-10.67 6.6-18.22 0-7.47-2.09-13.42-6.2-17.7 -4.12-4.28-9.9-6.45-17.19-6.45v0Zm-42.9-.01c-5.27 0-9.62 1.34-12.95 4 -3.35 2.67-5.05 6.17-5.05 10.41 0 2.2.36 4.16 1.08 5.82 .72 1.66 1.84 3.13 3.34 4.36 1.48 1.22 3.76 2.49 6.79 3.8 2.54 1.04 4.44 1.93 5.64 2.63 1.17.68 2.01 1.37 2.48 2.04 .45.65.69 1.55.69 2.66 0 3.15-2.37 4.68-7.23 4.68 -1.81 0-3.86-.38-6.12-1.12 -2.26-.75-4.36-1.81-6.26-3.18l-.47-.34V85.8l.17.07c1.58.72 3.57 1.34 5.92 1.83 2.34.48 4.47.73 6.32.73 5.71 0 10.31-1.36 13.67-4.03 3.37-2.69 5.09-6.28 5.09-10.67 0-3.17-.93-5.88-2.74-8.07 -1.81-2.18-4.94-4.17-9.31-5.93 -3.49-1.4-5.71-2.56-6.63-3.45 -.89-.86-1.34-2.08-1.34-3.62 0-1.37.55-2.46 1.69-3.35 1.14-.9 2.74-1.35 4.75-1.35 1.86 0 3.76.29 5.66.87 1.89.57 3.55 1.34 4.94 2.29l.45.31V41.22l-.18-.08c-1.29-.55-2.97-1.02-5.03-1.41 -2.05-.38-3.9-.57-5.51-.57v0Zm-47.14 40.06c-4.06 0-7.26-1.35-9.51-4 -2.27-2.67-3.42-6.46-3.42-11.29 0-4.98 1.14-8.88 3.41-11.59 2.25-2.7 5.42-4.06 9.41-4.06 3.87 0 6.95 1.3 9.16 3.88 2.22 2.58 3.34 6.45 3.34 11.48 0 5.09-1.07 9.01-3.16 11.63 -2.08 2.59-5.2 3.92-9.28 3.92v0Zm.49-40.07c-7.75 0-13.89 2.26-18.28 6.74 -4.39 4.47-6.61 10.66-6.61 18.4 0 7.35 2.16 13.26 6.44 17.56 4.27 4.3 10.09 6.49 17.29 6.49 7.5 0 13.52-2.3 17.9-6.84 4.37-4.54 6.6-10.67 6.6-18.22 0-7.47-2.09-13.42-6.2-17.7 -4.12-4.28-9.9-6.45-17.19-6.45v0Zm-41.85 9.25v-8.13h-11.05v46.93h11.04V63.31c0-4.09.92-7.44 2.75-9.98 1.8-2.51 4.2-3.78 7.14-3.78 .99 0 2.11.16 3.31.48 1.19.32 2.06.67 2.57 1.04l.46.33V40.26l-.18-.08c-1.03-.44-2.49-.66-4.33-.66 -2.78 0-5.26.89-7.39 2.64 -1.87 1.54-3.22 3.65-4.25 6.29h-.12v0Zm-30.82-9.26c-5.07 0-9.59 1.08-13.43 3.22 -3.86 2.14-6.83 5.2-8.86 9.1 -2.02 3.88-3.05 8.42-3.05 13.48 0 4.43.99 8.5 2.95 12.09 1.96 3.59 4.74 6.4 8.26 8.35 3.51 1.94 7.57 2.93 12.07 2.93 5.24 0 9.72-1.05 13.31-3.12l.14-.09V75.1l-.47.33c-1.63 1.18-3.45 2.13-5.41 2.81 -1.96.68-3.74 1.02-5.3 1.02 -4.34 0-7.82-1.36-10.34-4.03 -2.54-2.68-3.82-6.44-3.82-11.17 0-4.76 1.33-8.62 3.97-11.46 2.62-2.84 6.11-4.28 10.35-4.28 3.62 0 7.16 1.22 10.51 3.65l.46.33V41.64l-.15-.09c-1.26-.71-2.98-1.29-5.11-1.73 -2.13-.45-4.2-.67-6.18-.67v0Zm-32.93 1.13h-11.05v46.93h11.04V40.38v0Zm-5.41-20c-1.82 0-3.41.61-4.71 1.84 -1.31 1.22-1.98 2.77-1.98 4.6 0 1.79.65 3.31 1.95 4.51 1.28 1.19 2.87 1.79 4.72 1.79 1.84 0 3.44-.61 4.74-1.8 1.31-1.2 1.97-2.72 1.97-4.52 0-1.77-.65-3.3-1.93-4.56 -1.28-1.26-2.89-1.9-4.8-1.9v0Zm-27.55 16.53v50.39h11.26v-65.5h-15.6l-19.83 48.64L158.2 21.8h-16.23v65.49h10.58V36.88h.36l20.31 50.4h7.99l19.99-50.4h.36v0Z"/><path fill="#F1511B" d="M51.93 51.93l-51.94 0 0-51.94 51.93 0Z"/><path fill="#80CC28" d="M109.28 51.93l-51.94 0 0-51.94 51.93 0Z"/><path fill="#00ADEF" d="M51.93 109.3l-51.94 0 0-51.94 51.93 0Z"/><path fill="#FBBC09" d="M109.28 109.3l-51.94 0 0-51.94 51.93 0Z"/></svg>