<svg viewBox="0 0 256 256" xmlns="http://www.w3.org/2000/svg"><rect width="256" height="256" rx="22" fill="#F1C761"/><g transform="translate(19.5615 32.3189)"><g fill-opacity=".35"><path d="M98.53 156.87V35.89L69.1 40.02l-22.5 43.6 -21.39-38.41 -24.74 3.9v95.35l23.27 3.96V88.07L46.51 131h.5l24-43.1v64.87l27.46 4.07"/><path d="M0 21.66v12.5l108.86-18.04V.15L-.01 21.64"/><path d="M0 169.55l108.86 21.43v-15.92L-.01 156.97v12.56"/></g></g><g transform="translate(128.425 32.3189)"><g fill="#FFF"><path d="M0 .17v15.96l108.86 18.03V21.65L-.01.15"/><path d="M108.36 144.48V49.12l-24.74-3.91 -21.39 38.4L39.73 40 10.3 35.86v120.97l27.46-4.08V87.87l24 43.09h.5l22.77-42.94v60.34l23.27-3.97"/><path d="M0 190.98l108.86-21.44v-12.57L-.01 175.05v15.91"/></g></g></svg>