<svg viewBox="0 0 512 111" xmlns="http://www.w3.org/2000/svg" xmlns:xlink="http://www.w3.org/1999/xlink"><defs><linearGradient id="a" x1="-63.299%" x2="55.731%" y1="87.26%" y2="-28.57%"><stop offset="0%" stop-color="#3AC155"/><stop offset="100%" stop-color="#0CB3FF"/></linearGradient><linearGradient id="b" x1="-.001%" x2="100%" y1="50%" y2="50%" xlink:href="#a"/></defs><path fill="url(#a)" d="M164.13 27.66c-16.13 3.85-29.39 4.04-40.86 2.4 -7.34 8.96-11.84 17.98-15.58 26.84 15.61-4.38 30.96-10.17 43.63-17.75 -13.69 10.09-29.52 17.16-45.47 22.2 -5.84 14.65-10.36 29.07-23.21 40.23l-1.51 1.3c18.71-6.53 51.37-24.31 82.95-75.26v0Z"/><path fill="url(#b)" d="M20.38 22.4c-33.34 24.31-18.16 63.55-7.71 54.38C29.74 62 55.4 25.98 104.53 13.06 59.92 25.19 28.46 67.77 20.2 78.48c-8.27 10.7 1.3 28.28 20.88 31.02 19.58 2.73 30.57-4.56 38.5-11.45l0 0c25.67-22.3 15.63-60.36 65.19-93.24C62.79-11.41 26.53 17.83 20.33 22.36v-.01Z"/><path fill="#444" d="M211.79 108.66c-2.23 0-4.16-.83-5.8-2.47 -1.65-1.65-2.47-3.58-2.47-5.8V11.13c0-2.23.82-4.16 2.46-5.8 1.64-1.65 3.57-2.47 5.79-2.47h3.62c2.51 0 4.82.67 6.95 2.02 2.12 1.35 3.67 3.13 4.63 5.36L252.32 65c0 .09.04.14.14.14 .09 0 .14-.05.14-.15l25.35-54.77c.96-2.23 2.51-4.01 4.63-5.37 2.12-1.36 4.44-2.03 6.95-2.03h4.2c2.22 0 4.15.82 5.79 2.46 1.64 1.64 2.46 3.57 2.46 5.79v89.25c0 2.22-.83 4.15-2.47 5.79 -1.65 1.64-3.58 2.46-5.8 2.46h-3.19c-2.23 0-4.16-.83-5.8-2.47 -1.65-1.65-2.47-3.58-2.47-5.8V37.27c0-.1-.05-.15-.15-.15 -.1 0-.15.04-.15.14l-17.39 37.23c-1.07 2.22-2.71 4.05-4.93 5.5 -2.13 1.35-4.4 2.02-6.81 2.02h-.87c-2.42 0-4.74-.68-6.96-2.03 -2.13-1.45-3.72-3.29-4.79-5.51l-17.39-37.24c0-.1-.05-.15-.15-.15 -.1 0-.15.04-.15.14v63.02c0 2.22-.83 4.15-2.47 5.79 -1.65 1.64-3.58 2.46-5.8 2.46h-2.61Zm124.3 0c-2.23 0-4.16-.83-5.8-2.47 -1.65-1.65-2.47-3.58-2.47-5.8V41.56c0-2.23.82-4.16 2.46-5.8 1.64-1.65 3.57-2.47 5.79-2.47h3.76c2.22 0 4.15.82 5.79 2.46 1.64 1.64 2.46 3.57 2.46 5.79v58.82c0 2.22-.83 4.15-2.47 5.79 -1.65 1.64-3.58 2.46-5.8 2.46h-3.77Zm0-91.29c-2.23 0-4.16-.83-5.8-2.47 -1.65-1.65-2.47-3.58-2.47-5.8v-.87c0-2.23.82-4.16 2.46-5.8 1.64-1.65 3.57-2.47 5.79-2.47h3.76c2.22 0 4.15.82 5.79 2.46 1.64 1.64 2.46 3.57 2.46 5.79v.86c0 2.22-.83 4.15-2.47 5.79 -1.65 1.64-3.58 2.46-5.8 2.46l-3.77 0Zm44.61 91.28c-2.23 0-4.16-.83-5.8-2.47 -1.65-1.65-2.47-3.58-2.47-5.8V41.55c0-2.23.82-4.16 2.46-5.8 1.64-1.65 3.57-2.47 5.79-2.47h1.88c2.31 0 4.24.82 5.79 2.46 1.64 1.54 2.51 3.47 2.6 5.79v1.01c0 .09.04.14.14.14 .09 0 .19-.05.28-.15 6.56-7.15 14.24-10.73 23.03-10.73 8.78 0 15.16 2.51 19.12 7.53 4.05 4.92 6.08 13.18 6.08 24.77v36.22c0 2.22-.83 4.15-2.47 5.79 -1.65 1.64-3.58 2.46-5.8 2.46h-2.47c-2.23 0-4.16-.83-5.8-2.47 -1.55-1.65-2.32-3.58-2.32-5.8V65.52c0-7.25-.97-12.18-2.9-14.78 -1.84-2.71-5.17-4.06-10-4.06 -3.97 0-7.64 1.69-11.02 5.07 -3.39 3.38-5.08 7-5.08 10.86v37.67c0 2.22-.83 4.15-2.47 5.79 -1.65 1.64-3.58 2.46-5.8 2.46h-2.9Zm78.83-58.4c-1.94 0-3.58-.68-4.93-2.03 -1.36-1.45-2.03-3.14-2.03-5.08s.67-3.58 2.02-4.93c1.35-1.36 2.99-2.03 4.92-2.03h6.95c.86 0 1.3-.44 1.3-1.31V16.9c0-2.23.77-4.16 2.31-5.8 1.64-1.65 3.57-2.47 5.79-2.47h2.89c2.22 0 4.15.82 5.79 2.46 1.64 1.64 2.46 3.57 2.46 5.79v17.96c0 .86.43 1.3 1.3 1.3h16.51c1.93 0 3.57.67 4.92 2.02 1.44 1.35 2.17 2.99 2.17 4.92 0 1.93-.73 3.62-2.18 5.07 -1.36 1.35-3 2.02-4.93 2.02h-16.52c-.87 0-1.31.38-1.31 1.15v29.26c0 6.27.67 10.33 2.02 12.17 1.35 1.83 4.15 2.75 8.4 2.75 2.31 0 4.05-.1 5.21-.29 1.93-.2 3.62.24 5.07 1.3 1.44 1.06 2.17 2.51 2.17 4.34 0 2.12-.73 4.05-2.18 5.79 -1.36 1.64-3.05 2.55-5.08 2.75 -4.25.38-7.44.57-9.57.57 -9.37 0-15.94-1.99-19.71-5.95 -3.77-4.06-5.66-11.26-5.66-21.59V51.26c0-.78-.44-1.16-1.31-1.16h-6.96Z"/></svg>