<svg viewBox="0 0 512 141" xmlns="http://www.w3.org/2000/svg"><path fill="#00B5DE" d="M132.5 13.21l-66.46 0 -9.21 14.41 48.03 29.62 0 0 0 0Z"/><path fill="#00DECC" d="M56.84 27.62L12.4-.01l0 66.45 15.61 8.8 76.86-18.02 0 0Z"/><path fill="#FF5529" d="M119.29 70.85l-14.42-8.81 -29.63 47.63 44.03 27.62Z"/><path fill="#FF9640" d="M104.88 62.04l0 0 0 0L27.61 80.45 -.02 123.68l66.45 0 8.8-14.02Z"/><path fill="#102C53" d="M310.24 35.22c22.01 0 38.43 15.21 38.43 36.42s-16.42 36.42-38.43 36.42c-22.02 0-38.43-15.62-38.43-36.43 0-20.82 16.41-36.43 38.43-36.43Zm-120.1 1.2l26.02 43.63 26.02-43.64h13.21l.4 70.05h-15.62V64.82l-20.82 34.82h-7.21l-20.42-33.63v41.23H176.5V36.38h13.61Zm270.61.4l16.01 22.81 16.01-22.82h17.61l-24.42 34.02 26.02 36.42h-18.42v-.41l-16.82-24.42 -16.82 24.41H441.1l26.02-35.63 -24.82-34.43h18.41Zm-63.65-.41c22.81 0 38.83 14.01 38.83 35.22s-15.62 35.22-38.84 35.22h-32.03V36.39h32.02Zm-86.87 12.81c-12.41 0-22.02 9.2-22.02 22.41s9.6 22.41 22.01 22.41c12.4 0 22.01-9.21 22.01-22.42 0-13.22-9.61-22.42-22.02-22.42Zm86.06.8h-14.82v43.63h14.81v-.41c14.01 0 23.21-8.41 23.21-21.62C419.49 58 410.28 50 396.27 50Z"/></svg>