<svg viewBox="0 0 256 156" xmlns="http://www.w3.org/2000/svg"><path fill="#F62B54" d="M31.84 153.48c-11.53.02-22.17-6.16-27.87-16.17 -5.62-9.96-5.28-22.2.87-31.83l57.37-90.1C68.18 5.52 79-.36 90.53-.01c11.51.27 21.98 6.73 27.41 16.89 5.34 10.11 4.67 22.28-1.73 31.77l-57.34 90.09c-5.91 9.2-16.12 14.75-27.06 14.7v0Z"/><path fill="#FC0" d="M130.25 153.48c-11.58 0-22.23-6.19-27.82-16.14 -5.61-9.93-5.27-22.14.87-31.74l57.26-89.89c5.89-10 16.74-16.02 28.34-15.72 11.66.25 22.24 6.78 27.59 16.99 5.31 10.21 4.53 22.45-2.07 31.92l-57.26 89.88c-5.9 9.16-16.06 14.69-26.95 14.67Z"/><path fill="#00CA72" d="M226.46 96.4a29.53 28.91 0 1 0 0 57.83 29.53 28.91 0 1 0 0-57.84Z"/></svg>