<svg viewBox="0 0 256 329" xmlns="http://www.w3.org/2000/svg"><path fill="#1A1918" d="M239.96 0H16.02C7.16 0-.02 7.17-.02 16.03v84.57l50.39-14.08 33.54 13.9 -27.45-13.91s-19.31-10.56-22.71-24.39c-3.4-13.84 13.81-29.62 13.81-29.62l62.26 7.96 -33.88-6.38s11.88-7.92 38.59-7.06c29.32.94 70.63 8.35 77.45 15.17 6.81 6.81 19.52 52.87 12.22 60.18 -3.44 3.43-47.26-7.33-47.26-7.33l36.55 11.59s20.27 46.53 7.44 86.55c0 0-27.92-15.15-50.01-45.06 18.31 38.32 48.29 50.6 48.29 50.6s-11.28 30.34-17.8 36.86L75.06 189.85l-54 66.07h218.79c8.85 0 16.03-7.18 16.03-16.04V15.94c0-8.86-7.18-16.04-16.04-16.04"/><g transform="translate(0 275)"><g fill="#1A1918"><path d="M44.92 28.07v17.26c0 2.72-.63 4.77-1.88 6.13 -1.26 1.36-2.91 2.04-4.97 2.04 -2 0-3.61-.69-4.85-2.05 -1.24-1.37-1.86-3.41-1.86-6.14V24.62c0-3.27-.12-5.81-.34-7.61 -.23-1.81-.84-3.29-1.83-4.45 -1-1.16-2.56-1.74-4.7-1.74 -4.29 0-7.11 1.45-8.47 4.37 -1.37 2.91-2.04 7.1-2.04 12.55v17.54c0 2.69-.62 4.73-1.86 6.11 -1.24 1.37-2.87 2.06-4.9 2.06 -2 0-3.63-.7-4.9-2.07C1.05 50 .41 47.96.41 45.26V8.11c0-2.45.56-4.3 1.7-5.57C3.25 1.27 4.75.63 6.61.63c1.79 0 3.3.59 4.5 1.78 1.2 1.18 1.8 2.83 1.8 4.92v1.23c2.27-2.7 4.7-4.69 7.3-5.95C22.8 1.33 25.68.7 28.85.7c3.29-.001 6.13.65 8.5 1.95 2.37 1.3 4.32 3.26 5.86 5.9 2.2-2.67 4.57-4.65 7.09-5.93C52.82 1.33 55.62.69 58.69.69c3.57-.001 6.66.69 9.25 2.09 2.58 1.39 4.52 3.39 5.8 5.99 1.11 2.34 1.67 6.04 1.67 11.08v25.34c0 2.72-.63 4.77-1.87 6.13 -1.25 1.36-2.89 2.04-4.93 2.04 -1.98 0-3.6-.7-4.86-2.07 -1.27-1.38-1.9-3.42-1.9-6.12V23.34c0-2.79-.13-5.03-.37-6.71 -.25-1.69-.89-3.1-1.95-4.24 -1.06-1.15-2.66-1.72-4.81-1.72 -1.74 0-3.37.5-4.93 1.52 -1.56 1.01-2.77 2.37-3.63 4.08 -.97 2.18-1.45 6.05-1.45 11.6"/><path d="M137.24 27.16c0 3.86-.61 7.43-1.83 10.69 -1.22 3.26-2.98 6.07-5.27 8.41 -2.3 2.34-5.05 4.14-8.24 5.39 -3.2 1.24-6.79 1.87-10.78 1.87 -3.97 0-7.53-.64-10.69-1.91 -3.17-1.27-5.9-3.09-8.22-5.45 -2.32-2.37-4.08-5.16-5.27-8.38 -1.2-3.22-1.8-6.79-1.8-10.69 0-3.94.6-7.54 1.81-10.81 1.21-3.27 2.95-6.07 5.22-8.38 2.26-2.32 5.01-4.11 8.24-5.36 3.22-1.26 6.78-1.89 10.68-1.89 3.95 0 7.55.63 10.77 1.9 3.22 1.27 5.98 3.08 8.28 5.43 2.29 2.35 4.04 5.14 5.24 8.38 1.19 3.24 1.79 6.81 1.79 10.71v0Zm-13.15 0c0-5.3-1.18-9.42-3.52-12.37 -2.35-2.95-5.49-4.43-9.45-4.43 -2.56 0-4.8.65-6.75 1.97 -1.95 1.31-3.45 3.25-4.5 5.82 -1.06 2.56-1.58 5.56-1.58 8.98 0 3.39.51 6.35 1.55 8.89 1.03 2.53 2.51 4.47 4.44 5.82 1.92 1.34 4.19 2.02 6.81 2.02 3.95 0 7.1-1.49 9.44-4.45 2.34-2.97 3.51-7.07 3.51-12.3v0Z"/><path d="M159.49 7.9v1.56c2.29-3.02 4.81-5.23 7.54-6.65 2.72-1.42 5.86-2.12 9.41-2.12 3.44 0 6.52.74 9.24 2.23 2.71 1.49 4.74 3.6 6.08 6.33 .86 1.58 1.42 3.3 1.67 5.13 .25 1.84.38 4.18.38 7.04v24.17c0 2.6-.6 4.56-1.8 5.9 -1.2 1.33-2.76 1.99-4.67 1.99 -1.95 0-3.53-.69-4.74-2.05 -1.22-1.37-1.82-3.32-1.82-5.86V23.91c0-4.29-.6-7.56-1.8-9.83 -1.2-2.27-3.59-3.41-7.17-3.41 -2.34 0-4.46.69-6.38 2.07 -1.92 1.37-3.33 3.27-4.22 5.68 -.65 1.93-.97 5.55-.97 10.85v16.27c0 2.63-.62 4.6-1.84 5.92 -1.23 1.31-2.81 1.97-4.75 1.97 -1.88 0-3.42-.69-4.63-2.05 -1.21-1.37-1.82-3.32-1.82-5.86V7.96c0-2.48.54-4.33 1.62-5.55 1.08-1.23 2.55-1.84 4.43-1.84 1.14 0 2.17.27 3.1.8 .92.54 1.65 1.34 2.21 2.42 .55 1.08.83 2.39.83 3.95"/><path d="M255.94 27.16c0 3.86-.61 7.43-1.82 10.69 -1.22 3.26-2.98 6.07-5.27 8.41 -2.3 2.34-5.05 4.14-8.24 5.39 -3.2 1.24-6.79 1.87-10.78 1.87 -3.97 0-7.53-.64-10.69-1.91 -3.17-1.27-5.91-3.09-8.22-5.45 -2.32-2.37-4.08-5.16-5.27-8.38 -1.2-3.22-1.8-6.79-1.8-10.69 0-3.94.6-7.54 1.82-10.81 1.21-3.27 2.95-6.07 5.22-8.38 2.26-2.32 5.01-4.11 8.24-5.36 3.22-1.26 6.78-1.89 10.68-1.89 3.95 0 7.55.63 10.77 1.9 3.22 1.27 5.98 3.08 8.28 5.43 2.29 2.35 4.04 5.14 5.24 8.38 1.19 3.24 1.79 6.81 1.79 10.71v0Zm-13.15 0c0-5.3-1.18-9.42-3.52-12.37 -2.35-2.95-5.49-4.43-9.45-4.43 -2.56 0-4.8.65-6.75 1.97 -1.95 1.31-3.45 3.25-4.5 5.82 -1.06 2.56-1.58 5.56-1.58 8.98 0 3.39.51 6.35 1.55 8.89 1.03 2.53 2.51 4.47 4.44 5.82 1.92 1.34 4.2 2.02 6.81 2.02 3.95 0 7.1-1.49 9.44-4.45 2.34-2.97 3.51-7.07 3.51-12.3v0Z"/></g></g></svg>