<svg viewBox="0 0 512 106" xmlns="http://www.w3.org/2000/svg"><g fill="#3DB5E6"><path d="M507.62 36.76c4.01 3.24-.24 8.38-3.78 5.78 -4.37-2.78-14.29-4.08-15.53 2.06 -1.6 9.68 24.09 4.13 23.67 19.83 -.42 14.99-22.15 15.35-30.3 8.62 -1.95-1.6-1.89-4.2-.83-5.79 1.53-1.54 3.24-2.07 5.25-.42 4.84 3.3 17.3 5.78 18.18-2.6 -.77-8.74-25.34-3.49-23.5-20.26 1.35-11.46 18.65-13.53 26.8-7.27Zm-38.74 2.3v21.37c0 22.08-35.61 22.08-35.61 0V39.05c0-5.32 7.73-5.56 7.73 0v21.37c0 11.63 20.13 12.34 20.13 0V39.04c0-5.26 7.73-5.67 7.73 0Zm-243.81-5.38c10.33.53 21.13 7.67 21.13 21.66s-10.81 21.25-21.14 21.25c-10.93.47-22.27-6.8-22.27-21.26 0-14.53 11.33-21.67 22.26-21.67Zm52.02 1.47c14.99 0 18.06 20.07 5.55 25.09l7.85 9.56c3.07 4.54-3.08 8.91-6.62 4.42l-8.92-12.76h-9.28v10.68c0 5.13-7.86 5.31-7.86.11V38.71c0-2.07 1.59-3.61 3.54-3.61h15.7Zm-122.35-.54c1.71 0 2.71 1 3.72 2.12l12.98 17.53 13.46-18.19c1.94-2.43 6.73-1.48 6.73 2.59V71.9c0 2.59-1.66 4.07-3.55 4.07 -2.13 0-3.78-1.48-3.78-4.08V50.04l-9.81 12.39c-2.13 2.59-4.79 2.59-6.74 0l-8.8-12.4v21.84c0 2.59-2.13 4.07-4.26 4.07 -1.89 0-3.55-1.48-3.55-4.08V38.61c0-3.08 2.59-4.08 3.54-4.08Zm165.15 0c7.67 0 14.58 5.13 14.58 14.99 0 9.32-6.91 14.52-14.59 14.52h-9.87v7.79c0 2.59-1.66 4.07-3.78 4.07 -1.95 0-4.02-1.48-4.02-4.08V38.65c0-1.95 1.53-4.08 4.01-4.08h13.63Zm56.38.53c2.06 0 3.66 1.53 3.66 3.66v33.53c0 2.06-1.6 3.66-3.67 3.66 -2.13 0-4.02-1.6-4.02-3.67V59.38h-19.25v12.93c0 2.06-1.54 3.66-3.61 3.66 -2.66 0-4.2-1.6-4.2-3.67V38.76c0-2.13 1.53-3.67 4.19-3.67 2.06 0 3.6 1.53 3.6 3.66v12.87h19.24V38.74c0-2.13 1.88-3.67 4.01-3.67Zm41.09-.01c5.43 0 5.31 7.67 0 7.67h-17.01v8.85h14.87c5.25 0 5.25 7.73 0 7.73h-14.88v8.85h18c5.37 0 5.78 7.73 0 7.73h-22.21c-2.07 0-3.67-1.6-3.67-3.67V38.75c0-2.13 1.59-3.67 3.66-3.67h21.19Zm-192.97 6.19c-6.62 0-13.82 4.66-13.82 13.99 0 9.26 7.2 13.99 13.81 13.99 6.79 0 14.05-4.73 14.05-14 0-9.33-7.27-14-14.06-14Zm95.47.7h-9.87v14.7h9.86c3.95 0 7.08-3.49 7.08-7.15 0-4.14-3.13-7.56-7.09-7.56Zm-42.81.23h-11.4v12.39h11.39c7.67 0 8.14-12.4 0-12.4Z"/><path d="M104.38 66.16c-5.76 23.12-26.82 39.58-51.63 39.58 -24.92 0-45.8-17.43-51.33-40.66 6.63 0 12.84.03 15.72.03 1.35 0 1.62.02 1.7.01 2.16-.11 4.88-.83 6.69-5.22l6.89-18.03 15.3 36.84c1.37 2.93 3.67 2.72 5.04 2.72h.12c2.67 0 3.83-.94 4.85-2.88l17.28-36.43 5.89 16.41 .35.79c1.24 2.73 2.14 5.43 5.22 5.78 .63.07 8.02-.06 17.97-.06 0 0 0 .06-.15 1.04Z"/></g><path fill="#D8292F" d="M106.07 52.54c0 .27 0 .96-.01.96h-.02 -15.9l-9.28-25.91c-.83-1.93-2.07-4.82-5.69-4.82 -2.22 0-4.22 1.82-5.35 4.84L53.01 66.54l-16.19-38.7c-1.59-3.44-2.68-5.06-5.85-5.06 -2.16 0-3.73.79-5.45 4.86l-9.61 26.21 -15.96-.02c-.02-.4-.02-.8-.02-1.2C-.07 23.49 23.55-.06 52.68-.06c29.13 0 53.31 23.4 53.31 52.54Z"/></svg>