<svg viewBox="0 0 256 256" xmlns="http://www.w3.org/2000/svg"><path fill="#70211D" d="M35.08 28.54c-11.57 9.38-19.08 23-20.67 38.15L-.01 203.94l.07 2.36 .03.79c.54 8.63 4.22 16.67 10.21 22.68 6.51 6.53 15.39 10.29 24.79 10.28l134.63-.12 1.4-.03c13.71-.46 26.45-5.61 36.35-14.56 11.27-10.2 17.84-24.3 18.61-39.21 .77-14.92-4.29-29.63-14.44-40.95L112.55 34.64l-.96-1.04c-9.51-9.95-21.84-16.02-35.09-17.43 -15.09-1.61-29.92 2.91-41.48 12.3Zm36.13 38.35c1.35.14 2.62.76 3.56 1.75l99.21 110.66c1.05 1.17 1.56 2.64 1.47 4.19 -.09 1.55-.74 2.95-1.91 4.01 -1.02.91-2.33 1.44-3.69 1.49l-117.35.09L64.8 72.01c.16-1.57.91-2.93 2.11-3.9 1.2-.98 2.68-1.43 4.25-1.27Z"/><path fill="#ED7344" d="M220.73 0L35.2.15l-1.51.03 -.85.04c-7.86.53-15.31 3.7-21.17 8.99C4.65 15.55.55 24.34.07 33.62c-.49 9.27 2.67 18.45 8.99 25.5l165.98 185.15 1.03 1.1 .6.6c5.64 5.5 12.97 8.95 20.8 9.79 9.38.99 18.63-1.83 25.83-7.67 7.19-5.85 11.87-14.34 12.87-23.77l19.78-188.11 -.08-2.38 -.04-.8c-.55-8.68-4.24-16.74-10.26-22.78 -6.55-6.57-15.46-10.35-24.9-10.34Zm-17.29 50.94l-14.02 133.25L70.06 51.03l133.37-.11Z"/></svg>