<svg viewBox="0 0 256 256" xmlns="http://www.w3.org/2000/svg"><path d="M0 0h256v256H0Z"/><g transform="translate(46.3535 52.8665)"><path fill="#7A1818" d="M22.51 15.31c-7.38 5.97-12.16 14.62-13.18 24.25L.25 125.82l-.05.49 -.01.13c-.04.51-.06 1.03-.06 1.55 0 5.96 2.38 11.59 6.51 15.72 4.13 4.13 9.76 6.51 15.72 6.51l86.78-.01 .62-.01c8.62-.2 16.9-3.48 23.31-9.26 7.19-6.48 11.38-15.44 11.88-24.92 .49-9.48-2.74-18.83-9.22-26.02L71.81 19.01l-.43-.47C65.46 12.25 57.48 8.3 48.89 7.4c-9.63-1.02-19.1 1.86-26.47 7.83Zm23.11 23.98l.24.03c.79.13 1.53.49 2.12 1.05l.14.14 .2.22 63.67 70.72c.74.82 1.09 1.84 1.03 2.93 -.06 1.08-.52 2.06-1.34 2.8l-.19.15c-.64.5-1.4.8-2.21.87l-.22.01 -.21 0 -75.68 0 7.92-75.35c.11-1.11.64-2.06 1.48-2.74 .84-.69 1.88-1 2.98-.89Z"/><path fill="#FF6A33" d="M139.89 0L22.05 0l-.66.01 -.19 0C16.06.24 11.17 2.25 7.34 5.69 2.9 9.68.31 15.21.01 21.05 -.3 26.88 1.7 32.66 5.69 37.09l105.46 117.13 .45.47 .12.13c3.61 3.65 8.37 5.95 13.49 6.48 5.93.62 11.77-1.16 16.32-4.84 4.54-3.68 7.49-9.03 8.12-14.96l12.32-117.15 .04-.5 0-.14c.03-.52.05-1.04.05-1.56 0-5.97-2.39-11.6-6.52-15.73 -4.14-4.14-9.77-6.52-15.73-6.52Zm-10.85 32l-8.88 84.42L44.14 32l84.89-.01Z"/></g></svg>