<svg viewBox="0 0 256 206" xmlns="http://www.w3.org/2000/svg"><path fill="#546FFF" d="M77.12 77.12c14.09 0 25.52 11.42 25.52 25.52 0 7.04-2.86 13.41-7.47 18.036v0l24.96 34.87c2.52-.84 5.21-1.31 8.02-1.31 2.83 0 5.54.48 8.09 1.33v0l15.03-22.113c1.93-2.85 5.82-3.59 8.67-1.66 2.85 1.93 3.59 5.82 1.65 8.67v0l-14.85 21.84c4.28 4.56 6.92 10.68 6.92 17.43 0 14.09-11.43 25.524-25.524 25.524 -14.1 0-25.524-11.43-25.524-25.524 0-6.78 2.65-12.92 6.96-17.49v0l-25.2-35.19c-2.32.69-4.76 1.07-7.3 1.07 -2.99 0-5.84-.54-8.49-1.48v0l-23.45 36.81c3.65 4.41 5.85 10.08 5.85 16.26 0 14.09-11.43 25.524-25.53 25.524 -14.1 0-25.53-11.43-25.53-25.524 0-14.1 11.42-25.53 25.52-25.53 3.38 0 6.6.67 9.56 1.87v0L58.15 119.7c-4.12-4.53-6.64-10.53-6.64-17.13 0-14.1 11.427-25.53 25.52-25.53ZM230.47-.01c14.09 0 25.52 11.42 25.52 25.52 0 14.096-11.43 25.523-25.53 25.523 -3.11 0-6.07-.59-8.82-1.6v0l-23.36 36.66c3.79 4.45 6.09 10.22 6.09 16.53 0 14.09-11.43 25.52-25.524 25.52 -14.1 0-25.53-11.43-25.53-25.53 0-6.74 2.62-12.84 6.88-17.4v0l-25.23-35.25c-2.28.66-4.69 1.04-7.19 1.04 -2.54 0-4.98-.39-7.29-1.07v0l-15.84 23.29c-1.94 2.85-5.83 3.58-8.68 1.65 -2.86-1.94-3.6-5.82-1.66-8.68v0l15.41-22.68c-4.625-4.62-7.49-11.01-7.49-18.057 0-14.1 11.42-25.53 25.524-25.53 14.09 0 25.52 11.42 25.52 25.52 0 7.08-2.89 13.489-7.55 18.114v0l24.93 34.83c2.55-.87 5.28-1.35 8.13-1.35 3.26 0 6.37.63 9.23 1.75v0l23.24-36.49c-3.98-4.5-6.41-10.392-6.41-16.865 0-14.1 11.42-25.53 25.524-25.53Z"/></svg>