<svg viewBox="0 0 256 256" xmlns="http://www.w3.org/2000/svg"><path fill="#113B6A" d="M230.44 0c-14.12 0-25.56 11.44-25.56 25.55 0 4.96 1.43 9.57 3.88 13.49l-16.28 16.27c-20.45-18.5-47.55-29.77-77.29-29.77C51.55 25.54-.04 77.13-.04 140.76c0 63.63 51.59 115.22 115.22 115.22 63.63 0 115.22-51.59 115.22-115.23 0-29.74-11.28-56.85-29.77-77.29l16.27-16.28c3.91 2.44 8.53 3.88 13.49 3.88 14.1 0 25.54-11.45 25.54-25.56 0-14.12-11.44-25.56-25.56-25.56Z"/><path fill="#FFF" d="M61.57 160.17c-.18.33-.63.49-1.34.49h-8.42c-1.13 0-1.69-.54-1.69-1.61 0-2.25 0-4.48.01-6.71l.02-3.33c.02-3.32.03-6.66.03-10.03 0-2.15-.38-3.67-1.12-4.56 -.74-.9-1.93-1.34-3.56-1.34 -1.23 0-2.56.29-3.98.87 -1.43.58-2.61 1.03-3.53 1.34v23.72c0 .4-.1.77-.27 1.11 -.18.33-.63.49-1.34.49h-8.35c-.67 0-1.12-.14-1.34-.43 -.24-.28-.35-.68-.35-1.19v-34.45c0-.51.11-.92.34-1.23 .22-.31.67-.46 1.33-.46h8.34c.71 0 1.16.18 1.33.53 .18.35.26.73.26 1.14v1.83c.03 0 .06 0 .08.01l.02.02c.02.02.06.03.11.03 1.68-1.28 3.64-2.31 5.89-3.1 2.24-.8 4.28-1.19 6.12-1.19 2.7 0 4.83.44 6.39 1.33 1.55.89 2.71 2.06 3.48 3.52 .76 1.45 1.23 3.07 1.41 4.86 .18 1.78.26 3.57.26 5.35v21.73c0 .4-.09.77-.27 1.1Zm29.51-4.1c-1.03.91-2.12 1.7-3.3 2.37 -1.18.66-2.38 1.21-3.6 1.64 -1.23.43-2.43.73-3.6.91 -1.18.17-2.25.26-3.22.26 -2.25 0-4.08-.32-5.48-.96 -1.41-.64-2.49-1.47-3.26-2.49 -.77-1.02-1.3-2.21-1.57-3.56 -.24-1.13-.38-2.3-.41-3.52l-.02-.74c-.06-2.35.26-4.34.95-5.97 .68-1.64 1.66-2.95 2.94-3.95 1.27-1 2.83-1.71 4.66-2.15 1.83-.44 3.87-.66 6.12-.66h8.8v-1.23c0-.82-.1-1.51-.27-2.07 -.19-.57-.52-1.03-1-1.38 -.49-.36-1.17-.63-2.03-.81 -.77-.16-1.74-.25-2.93-.27l-.53-.01c-.34 0-.73.01-1.17.02l-3.59.2v0c-.92.05-1.84.12-2.76.22 -.69.07-1.34.13-1.94.18l-1.25.09c-.71.04-1.19.02-1.45-.06 -.34-.11-.6-.54-.81-1.31l-.85-3.98c-.11-.67-.02-1.21.26-1.65 .27-.44 1-.88 2.18-1.34 .86-.31 1.87-.58 3.02-.81 1.14-.23 2.32-.43 3.52-.58 1.2-.16 2.38-.27 3.56-.35 1.17-.08 2.19-.12 3.06-.12 3.57 0 6.44.33 8.61.99 2.16.66 3.82 1.6 4.97 2.83 1.14 1.22 1.9 2.73 2.25 4.51 .35 1.78.53 3.82.53 6.12v12.09c0 .81.03 1.45.11 1.91 .07.45.21.8.41 1.03 .2.23.48.39.83.49 .28.08.65.14 1.1.19l.35.03c.66.05 1.09.16 1.3.34 .2.18.3.49.3.95v4.9c0 .94-.64 1.58-1.92 1.91l-.31.07c-1.43.35-3.02.53-4.75.53 -1.89 0-3.55-.33-4.98-.96 -1.43-.64-2.4-1.98-2.91-4.02l-.16-.08Zm-1.15-11.33h-6.89c-1.44 0-2.56.33-3.37.99 -.82.66-1.23 1.88-1.23 3.67 0 1.17.24 1.98.72 2.44 .48.45 1.39.69 2.71.69 1.17 0 2.53-.28 4.09-.85 1.55-.56 2.87-1.18 3.94-1.84l-.01-5.13Zm50.29 4.01c0 2.39-.48 4.39-1.42 5.99 -.95 1.6-2.21 2.89-3.79 3.85 -1.59.96-3.39 1.66-5.4 2.09 -2.02.43-4.13.64-6.32.64 -.92 0-1.92-.04-2.99-.12 -1.08-.08-2.16-.2-3.26-.35 -1.1-.16-2.15-.33-3.14-.54 -1-.21-1.88-.43-2.65-.69 -1.28-.46-2.1-.93-2.45-1.41 -.32-.43-.4-1.07-.23-1.92l.91-3.98c.15-.72.38-1.15.69-1.3 .26-.14.74-.16 1.44-.06l.31.05c1.78.3 3.72.54 5.81.72 2.09.18 3.8.26 5.12.26 1.93 0 3.31-.22 4.13-.66 .81-.44 1.22-1.17 1.22-2.19 0-1.13-.31-1.88-.92-2.27 -.62-.39-1.74-.68-3.37-.89 -2.1-.31-4.05-.67-5.86-1.08 -1.82-.41-3.41-1.03-4.79-1.85 -1.38-.82-2.47-1.92-3.26-3.3 -.8-1.39-1.19-3.2-1.19-5.45 0-2.05.39-3.84 1.17-5.38 .78-1.54 1.86-2.82 3.23-3.84 1.36-1.03 3-1.8 4.9-2.31 1.9-.52 3.97-.77 6.22-.77 .86 0 1.82.03 2.87.11 1.04.07 2.1.18 3.17.3 1.07.13 2.1.29 3.09.5 .99.2 1.9.46 2.71.77 1.02.35 1.77.73 2.25 1.11 .48.38.6 1.06.34 2.04l-.85 3.93c-.21.71-.42 1.15-.66 1.3 -.21.13-.66.17-1.37.1l-2.36-.29c-.25-.04-.5-.07-.76-.1 -1.03-.13-2.03-.24-3.03-.31l-2.14-.15c-.23-.02-.45-.03-.67-.05l-.99-.05c-.16-.01-.31-.02-.45-.02l-.8-.02c-1.94-.06-3.16.16-3.64.64 -.49.48-.73 1.13-.73 1.94 0 .96.44 1.58 1.34 1.86 .89.28 2.03.54 3.41.8 1.99.25 3.89.57 5.68.95 1.79.38 3.36 1 4.72 1.87 1.35.86 2.44 2.02 3.26 3.47 .81 1.44 1.22 3.36 1.22 5.76Zm61.5 11.41c-.19.33-.61.49-1.27.49h-8.42c-.67 0-1.12-.14-1.35-.43 -.23-.28-.35-.68-.35-1.19v-20.14c0-2.35-.36-3.91-1.08-4.67 -.72-.77-1.79-1.15-3.22-1.15 -.92 0-2.05.24-3.37.72 -1.33.48-2.48.98-3.45 1.49V159c0 .4-.09.77-.27 1.11 -.18.33-.63.49-1.34.49h-8.42c-.62 0-1.04-.14-1.27-.43 -.23-.28-.35-.68-.35-1.19v-20.37c0-2.15-.35-3.61-1.04-4.41 -.7-.8-1.74-1.19-3.13-1.19 -.93 0-2.05.22-3.36.68 -1.32.45-2.51.97-3.59 1.53v23.72c0 .4-.11.77-.31 1.11 -.21.33-.66.49-1.37.49h-8.37c-.62 0-1.03-.14-1.26-.43 -.23-.28-.34-.68-.34-1.19v-34.45c0-.51.11-.92.33-1.23 .22-.31.64-.46 1.25-.46h8.36c.7 0 1.16.18 1.36.53 .2.35.3.73.3 1.14v1.76l.15.07c1.63-1.33 3.41-2.36 5.35-3.1 1.93-.74 3.9-1.12 5.89-1.12 2.29 0 4.3.41 6.04 1.26 1.73.84 3.01 2.15 3.82 3.94 1.78-1.48 3.81-2.72 6.08-3.72 2.26-1 4.55-1.5 6.85-1.5 2.7 0 4.81.44 6.31 1.33 1.5.89 2.62 2.05 3.36 3.48 .73 1.42 1.18 3.03 1.34 4.82 .15 1.78.22 3.57.22 5.35v21.81c0 .4-.09.77-.27 1.11Z"/></svg>