<svg viewBox="0 0 512 148" xmlns="http://www.w3.org/2000/svg"><defs><linearGradient id="a" x1="50%" x2="50%" y1="0%" y2="100%"><stop offset="0%" stop-color="#16B0ED" stop-opacity=".8"/><stop offset="100%" stop-color="#0F59B2" stop-opacity=".837"/></linearGradient><linearGradient id="b" x1="50%" x2="50%" y1="0%" y2="100%"><stop offset="0%" stop-color="#7DB643"/><stop offset="100%" stop-color="#367533"/></linearGradient><linearGradient id="c" x1="50%" x2="50%" y1="0%" y2="100%"><stop offset="0%" stop-color="#88C649" stop-opacity=".8"/><stop offset="100%" stop-color="#439240" stop-opacity=".84"/></linearGradient></defs><path fill="url(#a)" d="M.01 32.18L31.32.56l-.01 146.99L-.01 116.3V32.16v0Z"/><path fill="url(#b)" d="M89.48 32.48L121.22.58l-.65 146.98 -31.32-31.25 .21-83.84v0Z" transform="matrix(-1 0 0 1 210.495 0)"/><path fill="url(#c)" d="M31.31.59l81.41 124.23 -22.79 22.78L8.47 23.64 31.29.58v0Z"/><path fill-opacity=".13" d="M31.33 58.21l-.05 4.89L6.14 25.99l2.32-2.38 22.85 34.58v0Z"/><g transform="translate(156.579 20.7848)"><g transform="translate(0 20.092)"><g fill="#444"><path d="M0 65.81V3.76h3.22c1.07-.001 1.69.52 1.86 1.55l.55 9.35c2.81-3.58 6.08-6.46 9.82-8.64 3.74-2.19 7.9-3.28 12.49-3.28 3.38 0 6.37.54 8.96 1.62 2.58 1.08 4.72 2.64 6.41 4.67 1.69 2.03 2.97 4.49 3.84 7.35 .86 2.86 1.3 6.11 1.3 9.72v39.66h-5.9V26.09c0-5.83-1.33-10.39-3.97-13.69 -2.65-3.31-6.7-4.96-12.16-4.96 -4.06 0-7.82 1.05-11.29 3.14 -3.48 2.1-6.58 4.97-9.31 8.63v46.52h-5.9v0Z"/><path d="M85.65 2.77c3.51 0 6.75.6 9.74 1.8 2.98 1.2 5.57 2.95 7.77 5.25 2.19 2.3 3.9 5.13 5.14 8.49 1.23 3.36 1.84 7.22 1.84 11.57 0 .91-.14 1.53-.41 1.86 -.28.33-.7.49-1.29.49H63.43v1.18c0 4.64.54 8.73 1.62 12.26 1.08 3.52 2.63 6.48 4.63 8.87 2 2.38 4.42 4.18 7.27 5.38 2.84 1.2 6.01 1.8 9.52 1.8 3.13 0 5.85-.35 8.14-1.03 2.29-.69 4.23-1.46 5.79-2.31 1.56-.86 2.81-1.62 3.72-2.31 .91-.69 1.58-1.03 2-1.03 .54 0 .96.2 1.25.62l1.62 1.99c-1.01 1.24-2.33 2.4-3.99 3.48 -1.66 1.07-3.5 2-5.52 2.76 -2.03.76-4.2 1.37-6.52 1.83 -2.32.45-4.65.68-6.99.68 -4.27 0-8.15-.74-11.66-2.21 -3.52-1.48-6.53-3.63-9.04-6.45 -2.52-2.83-4.46-6.28-5.83-10.37 -1.38-4.09-2.06-8.77-2.06-14.04 0-4.44.63-8.54 1.91-12.3 1.27-3.76 3.11-7 5.51-9.72 2.4-2.72 5.34-4.85 8.83-6.39 3.48-1.54 7.44-2.31 11.87-2.31v0 0Zm.39 4.15c-3.26 0-6.17.48-8.75 1.45s-4.81 2.37-6.69 4.19c-1.88 1.82-3.41 4.01-4.57 6.56 -1.17 2.55-1.94 5.4-2.32 8.56h41.56c0-3.25-.47-6.15-1.4-8.73 -.94-2.58-2.24-4.76-3.93-6.54 -1.69-1.79-3.72-3.15-6.09-4.11 -2.37-.96-4.99-1.43-7.86-1.43v0 0Z"/><path d="M144.48 2.77c4.52 0 8.56.75 12.14 2.27 3.57 1.51 6.58 3.66 9.03 6.44 2.45 2.77 4.32 6.13 5.61 10.05 1.28 3.92 1.93 8.3 1.93 13.16 0 4.85-.65 9.23-1.94 13.13 -1.29 3.9-3.16 7.24-5.62 10.02 -2.46 2.77-5.47 4.91-9.04 6.41 -3.58 1.49-7.62 2.24-12.15 2.24s-8.57-.75-12.15-2.25 -6.6-3.64-9.07-6.42c-2.48-2.78-4.36-6.13-5.65-10.03 -1.29-3.91-1.94-8.28-1.94-13.14 0-4.86.64-9.25 1.93-13.17 1.28-3.93 3.17-7.28 5.64-10.06 2.47-2.78 5.49-4.93 9.06-6.45 3.57-1.52 7.61-2.28 12.14-2.28v0 0Zm-.35 59.58c3.7 0 6.93-.64 9.69-1.92 2.76-1.28 5.07-3.1 6.92-5.48 1.84-2.38 3.23-5.25 4.14-8.62 .91-3.37 1.37-7.13 1.37-11.31 0-4.14-.46-7.9-1.38-11.28 -.92-3.39-2.3-6.28-4.15-8.68 -1.85-2.4-4.16-4.25-6.93-5.55 -2.77-1.3-6-1.95-9.7-1.95 -3.7 0-6.94.64-9.7 1.94 -2.77 1.29-5.08 3.14-6.93 5.54 -1.86 2.4-3.25 5.29-4.18 8.67 -.94 3.38-1.41 7.13-1.41 11.27 0 4.17.46 7.94 1.4 11.3 .93 3.36 2.32 6.23 4.17 8.61 1.84 2.37 4.15 4.2 6.92 5.47 2.76 1.27 5.99 1.91 9.69 1.91v0 0Z"/><path d="M210.32 64.43h-13.9L171.11.68h12.71c1.11 0 2.05.26 2.82.8 .76.53 1.29 1.22 1.58 2.05l12.27 34.04c.7 1.98 1.29 3.93 1.76 5.83s.89 3.81 1.27 5.71c.37-1.91.79-3.81 1.27-5.72 .47-1.91 1.08-3.86 1.82-5.84L219.19 3.5c.28-.83.8-1.52 1.55-2.06 .74-.54 1.63-.81 2.66-.81h12.09l-25.24 63.74v0Z"/><path d="M239.02 1.38h15.93v63.74h-15.94Z"/><path d="M265.35 65.12V.99h9.43c2-.001 3.31.93 3.93 2.81l1 4.75c1.12-1.26 2.3-2.4 3.53-3.44 1.22-1.05 2.54-1.94 3.93-2.69 1.39-.76 2.89-1.35 4.5-1.79 1.6-.44 3.36-.66 5.28-.66 4.04 0 7.36 1.09 9.96 3.28 2.6 2.18 4.55 5.09 5.84 8.71 1-2.13 2.25-3.95 3.75-5.47 1.5-1.53 3.14-2.77 4.93-3.72 1.79-.96 3.69-1.67 5.71-2.13 2.02-.46 4.05-.69 6.09-.69 3.54 0 6.68.54 9.43 1.62s5.06 2.66 6.93 4.75c1.87 2.08 3.3 4.62 4.28 7.62 .97 3 1.47 6.43 1.47 10.31v40.81H339.9V24.24c0-4.09-.9-7.16-2.69-9.22 -1.8-2.07-4.42-3.1-7.88-3.1 -1.59 0-3.06.27-4.41.81 -1.36.54-2.55 1.32-3.57 2.34 -1.03 1.02-1.83 2.3-2.41 3.84 -.59 1.54-.88 3.31-.88 5.31v40.81h-15.5V24.21c0-4.3-.87-7.42-2.6-9.38 -1.74-1.96-4.29-2.94-7.66-2.94 -2.22 0-4.29.55-6.22 1.65 -1.94 1.1-3.75 2.61-5.41 4.53V65h-15.45v0Z"/></g></g><path fill="#444" d="M239.02 0h15.93v13.16h-15.94Z"/></g></svg>