<svg viewBox="0 0 512 102" xmlns="http://www.w3.org/2000/svg"><path fill="#00AC69" d="M71.05 35.16l0 31.25 -27.07 15.63 0 19.53 43.99-25.4 0-50.81Z"/><path fill="#1CE783" d="M43.99 19.54l27.06 15.62 16.92-9.78 0 0 -44-25.4 -44 25.39 0 0 16.92 9.77Z"/><g fill="#1D252C"><path d="M27.07 60.57l0 31.25 16.92 9.76 0-50.8 -44-25.41 0 19.54Z"/><path d="M148.37 25.32c-4.31 0-7.59 1.23-9.88 2.58l-.34.2c-.06.03-.11.06-.17.1l-.32.2v0l-.3.2v0l-.29.2c-.05.03-.1.06-.14.1l-.27.19v0l-.25.19v0l-.35.28v0l-.22.18v0l-.3.26v0l-.26.24v0l-.23.22v0l-.26.26v0l-.24.26v0l-.22.25v0h-.5l-1-4.99h-11.48v50.84h12.46v-29.4c0-6.49 4.47-10.97 10.96-10.97 6.49 0 10.96 4.47 10.96 10.96v29.39h12.46V46.65c0-12.97-8.48-21.44-19.94-21.44Zm134.39 34.39h-.72l-8.48-33.4h-12.68L252.4 59.7h-.71l-8.49-33.4h-12.97l12.96 50.84h15.17l8.46-32.9h.71L276 77.13h15.17l12.96-50.85h-12.97l-8.48 33.39Zm59.59-28.92h-.5l-1-4.48h-10.47v50.83h12.46v-29.4c0-6.49 2.99-9.48 9.47-9.48h6.39V26.28h-7.42c-3.52 0-6.84 1.66-8.95 4.47Zm43.93-5.49c-14.95 0-25.92 10.96-25.92 26.41s10.34 26.41 25.91 26.41c7.56 0 13.32-2.68 17.4-5.99l.4-.34c.33-.28.64-.57.95-.85l.36-.35c.47-.47.92-.93 1.34-1.4l.3-.36c.05-.06.1-.12.15-.18l.29-.36c.09-.12.18-.24.28-.36l.27-.36v0l.25-.35v0l.24-.35v0l.23-.35c.03-.06.07-.12.11-.18l.22-.34v0l.21-.34v0l.2-.34c.03-.06.06-.11.09-.17l-11.44-4.08c-1.14 2.07-5.7 6.05-11.93 6.05 -7.27 0-12.46-4.56-13.46-11.51h37.87c.35-1.64.51-3.31.49-4.99 0-14.49-10.97-25.45-24.93-25.45Zm-13.46 21.93c1.49-6.49 5.98-11.47 13.45-11.47 6.98 0 11.46 4.98 12.46 11.46h-25.92ZM202.17 25.29c-14.96 0-25.93 10.96-25.93 26.41s10.32 26.41 25.92 26.41c7.31 0 12.93-2.5 16.98-5.66l.41-.33c.54-.45 1.05-.9 1.54-1.36l.35-.35c.76-.76 1.44-1.52 2.05-2.29l.27-.36c.04-.06.08-.12.13-.18l.25-.35c.04-.06.08-.12.12-.18l.24-.35c.03-.06.07-.12.11-.18l.22-.35c.03-.06.07-.12.1-.17l.21-.34v0l.2-.34c.03-.06.06-.11.09-.17l-11.44-4.08c-.13.22-.29.46-.49.72l-.18.22c-.38.45-.87.95-1.45 1.45l-.3.24c-2.16 1.73-5.49 3.39-9.51 3.39 -7.27 0-12.47-4.56-13.46-11.51h37.88c.35-1.64.51-3.31.49-4.99 0-14.49-10.97-25.45-24.93-25.45Zm-13.46 21.93c1.49-6.49 5.98-11.47 13.45-11.47 6.97 0 11.46 4.98 12.46 11.46h-25.93ZM442.29 6.21h12.46v12.46h-12.47V6.2Zm46.85 60.45c-7.48 0-13.46-5.99-13.46-14.96 0-8.98 5.98-14.96 13.45-14.96 5.3 0 8.34 2.5 10.02 5.02l.17.27c.02.04.05.09.08.13l.15.26c.02.04.05.08.07.13l.14.26v0l.13.26v0l.12.26v0l.11.25c.01.04.03.08.05.12l.1.24c.01.04.03.08.04.12l.09.24v0l.08.23c.01.03.02.07.03.11l11.28-4.02 -.17-.43v0l-.18-.43v0l-.19-.44c-3.03-6.79-9.71-14.14-22.22-14.14 -14.96 0-25.93 10.96-25.93 26.41s10.96 26.41 25.92 26.41c12.34 0 19.01-7.17 22.09-14.11l.19-.46c.06-.16.12-.31.18-.46l.17-.45c.05-.15.11-.3.16-.45l-11.36-4.04 -.08.26v0l-.09.26v0l-.1.27c-.02.04-.04.09-.06.13l-.11.27c-.02.04-.04.09-.06.14l-.12.28v0l-.13.28v0l-.14.28c-.03.04-.05.09-.08.14l-.16.28c-.03.04-.06.09-.08.14l-.17.28c-1.66 2.77-4.72 5.39-10.14 5.39Zm-76.58-49.38h7.07v59.84h12.46V6.2h-19.54v11.07Zm29.72 8.99h12.46v50.84h-12.47V26.26Z"/></g></svg>