<svg viewBox="0 0 512 141" xmlns="http://www.w3.org/2000/svg"><path d="M253.69 129.15V39.2h44.97v-.001c12.68 0 24.21 11.53 24.21 24.21v65.72 0h-16.15l-.01-62.28v0c0-6.28-4.62-11.54-11.54-11.54H269.8v0 85.33l-16.15-11.54Zm99.17 0V39.2H369v89.94h-16.15Zm0-110.71H369V-.02l-16.15 11.53v6.91Zm62.27 110.7h-16.15V39.19h88.79c13.83-.001 24.21 10.37 24.21 24.21v65.72l-16.15 11.53 -.01-73.81c-.01-6.92-4.62-11.54-11.54-11.54h-20.76v73.8h-16.15V55.29h-32.29v73.8Z"/><path fill="#F3D400" d="M103.44 0s-7.87 6.21-15.89 12.38c-8.25-.27-24.43 1.58-33.2 4.77 -8.08-5.12-15.18-10.77-15.18-10.77 0-.001-6.07 10.43-9.88 16.55 -5.66 3-11.34 6.39-16.4 10.86C7 31.45.18 28.6-.05 28.5c7.79 15.72 13.03 31.46 27.28 40.92 22.69-35.84 128.13-32.54 151.29-.21 14.96-7.81 20.78-24.61 26.67-40.12 -.65.21-8.66 2.89-13.85 4.87 -3.1-3.38-10.41-8.57-14.56-11.07 -3.94-7.22-9.68-16.96-9.68-16.96s-6.8 5.05-14.67 10.56c-10.64-1.97-23.5-4.35-34.32-3.76 -7.37-6.06-14.77-12.8-14.77-12.8v0Z"/><path fill="#FFE953" d="M8.05 61.94s11.04 26.74 18.71 45.33c32.51 42.89 115.52 45.87 151.71.83 8.56-19.31 20.11-46.43 20.11-46.43 -9.29 13.75-24.4 23.25-33.71 28.36 -6.62 3.62-21.88 5.81-21.88 5.81l-40.06-20.76 -40.29 20.34s-15.06-2.42-21.88-5.61C27 82.46 17.75 73.79 7.99 61.91Z"/></svg>