<svg viewBox="0 0 256 290" xmlns="http://www.w3.org/2000/svg"><path fill="#3D3B47" d="M127.86 286.23c-2.74 0-5.26-.69-7.08-1.6L10.49 221.15c-3.89-2.29-7.08-8-7.08-12.33V81.41c0-4.34 3.42-10.05 7.07-12.33L120.76 5.6c1.82-1.15 4.33-1.6 7.07-1.6 2.73 0 5.25.68 7.07 1.59l110.05 63.7c3.88 2.28 7.07 7.99 7.07 12.32v127.18c0 4.33-3.43 10.04-7.08 12.32l-110.06 63.7c-1.83.91-4.34 1.36-7.08 1.36v0Z"/><path fill="#CCC" d="M127.86 7.44c2.05 0 4.1.45 5.47 1.14l110.05 63.47c2.73 1.59 5.47 6.16 5.47 9.36v127.18c0 3.19-2.74 7.76-5.48 9.36l-110.06 63.7c-1.37.68-3.43 1.14-5.48 1.14 -2.06 0-4.11-.46-5.48-1.15L12.29 218.16c-2.74-1.6-5.48-6.17-5.48-9.37V81.38c0-3.2 2.73-7.77 5.47-9.37L122.33 8.53c1.36-.69 3.42-1.15 5.47-1.15v0Zm0-6.85c-3.2 0-6.4.68-8.91 2.05L8.89 66.11C4.09 69.07-.02 75.92-.02 81.4v127.18c0 5.7 3.88 12.55 8.9 15.29l110.05 63.7c2.51 1.36 5.7 2.05 8.9 2.05 3.19 0 6.39-.69 8.9-2.06l110.05-63.71c4.79-2.74 8.9-9.59 8.9-15.3V81.36c0-5.71-3.89-12.56-8.91-15.3L136.71 2.58C134.19 1.21 131 .52 127.8.52v0Z"/><g fill="#EFF3F3"><path d="M127.86 135.3h.68c3.19.22 6.16 2.05 7.99 4.79 .91 1.59 1.36 3.65 1.36 5.7 -.46 5.25-4.57 9.13-9.82 9.13h-.69c-3.2-.23-6.17-2.06-8-4.8 -.92-1.6-1.37-3.66-1.37-5.71 .22-5.03 4.56-9.14 9.81-9.14v0Zm0-.69c-5.48 0-10.05 4.33-10.51 9.81 -.23 2.05.22 4.1 1.36 5.93 1.82 2.96 4.79 5.02 8.44 5.25h.68c5.47 0 10.04-4.34 10.5-9.82 .22-2.06-.46-4.11-1.37-5.94 -1.83-2.97-4.8-5.03-8.45-5.26h-.69v0Z"/><path d="M128.09 141.69c1.82.22 3.42 1.82 3.19 3.65 -.23 1.82-1.83 3.42-3.66 3.19 -1.83-.23-3.43-1.83-3.2-3.66 0-1.83 1.82-3.43 3.65-3.2v0Z"/><path d="M127.86 159.05h-.92c-4.57-.23-8.91-2.97-11.19-6.85 -1.37-2.52-2.06-5.26-1.83-8 .22-3.2 1.59-6.17 3.65-8.45v-.23l-90.2 68.72 103.66-45.67c-1.15.22-2.06.45-3.2.45v0Z"/></g><path fill="#0977F7" d="M124.44 131.65c1.36-.23 2.73-.46 4.33-.46 4.56.22 8.9 2.96 11.18 6.84 1.36 2.51 2.05 5.25 1.82 7.99 -.23 3.42-1.6 6.39-3.89 8.67l91.1-67.13 -104.58 44.06v0Z"/></svg>