<svg viewBox="0 0 256 292" xmlns="http://www.w3.org/2000/svg"><path fill="#76D04B" d="M120.94 289.19c4.25 2.46 9.51 2.46 13.76 0l114.08-65.84c4.26-2.46 6.89-7.01 6.89-11.94V79.64c0-4.93-2.63-9.47-6.89-11.94L134.7 1.81c-4.27-2.47-9.52-2.47-13.79-.001L6.86 67.68C2.59 70.14-.03 74.69-.03 79.61v131.76c0 4.91 2.62 9.46 6.89 11.92l114.05 65.83"/><path fill="#4F4D3F" d="M201.7 114.11l-5.09-2.93c7.82-11.54 12.49-28.89 6.63-54.83 0 0-13.21 36.99-39.74 35.77l-31.08-17.89c-1.18-.7-2.49-1.06-3.82-1.11h-.72c-1.33.05-2.64.41-3.83 1.1L92.97 92.1c-26.54 1.22-39.75-35.78-39.75-35.78 -5.87 25.93-1.19 43.28 6.63 54.82l-5.09 2.92c-2.59 1.48-4.2 4.25-4.2 7.27l.15 107.33c0 1.49.77 2.88 2.09 3.61 1.28.77 2.87.77 4.15 0l41.16-23.58c2.6-1.55 4.18-4.28 4.18-7.26v-50.15c0-2.99 1.58-5.77 4.17-7.25l17.52-10.1c1.3-.77 2.73-1.14 4.19-1.14 1.42 0 2.89.36 4.16 1.12L149.85 144c2.59 1.48 4.18 4.25 4.18 7.24v50.14c0 2.98 1.6 5.73 4.19 7.25l41.15 23.57c1.29.77 2.9.77 4.18 0 1.27-.73 2.07-2.12 2.07-3.62l.13-107.34c-.01-3.02-1.59-5.79-4.19-7.28l-.01 0Z"/></svg>