<svg viewBox="0 0 512 136" xmlns="http://www.w3.org/2000/svg"><path d="M187.42 46.81v61.62h-15V27.17h20.47l30.79 61.68V27.16h14.99v81.25h-20.48l-30.8-61.63h-.01Zm87.81 62.79c-20.36 0-25.84-11.23-25.84-23.42v-15c0-12.1 5.48-23.4 25.83-23.4 20.35 0 25.85 11.2 25.85 23.39v15.07c0 12.09-5.49 23.33-25.86 23.33Zm0-49.14c-7.93 0-10.97 3.52-10.97 10.23v15.96c0 6.71 3.04 10.25 10.96 10.25 7.92 0 10.92-3.55 10.92-10.26V70.67c0-6.62-2.99-10.24-10.93-10.24Zm71.08 47.96V66.9c0-3.17-1.36-4.76-4.76-4.76 -3.41 0-10.08 2.19-15.48 4.99v41.27h-14.88V48.96h11.32l1.47 4.99c7.4-3.7 15.5-5.82 23.78-6.21 5.72 0 9.25 2.31 11.2 6.32 7.42-3.79 15.57-5.95 23.9-6.33 9.87 0 13.4 6.93 13.4 17.55v43.08h-14.88V66.84c0-3.17-1.34-4.76-4.76-4.76 -5.46.57-10.73 2.27-15.48 4.99v41.27h-14.88v0Zm106.18 0h-12.2l-1.11-4.04c-5.27 3.41-11.41 5.23-17.68 5.23 -10.85 0-15.48-7.44-15.48-17.68 0-12.1 5.23-16.71 17.31-16.71h14.26v-6.27c0-6.57-1.84-8.89-11.35-8.89 -5.54.05-11.05.66-16.47 1.81l-1.82-11.33c6.62-1.84 13.47-2.78 20.35-2.81 18.64 0 24.18 6.56 24.18 21.44l-.05 39.19v0Zm-14.88-22.43h-10.99c-4.88 0-6.21 1.35-6.21 5.86 0 4.03 1.33 6.04 6.04 6.04 3.93-.07 7.79-1.11 11.22-3.05l-.09-8.87Zm23.99-17.26c0-13.16 5.84-20.96 19.62-20.96 5.32.05 10.64.61 15.86 1.69V24.71l14.87-2.02v85.7h-11.83l-1.48-5c-5.42 4.05-12 6.24-18.77 6.22 -11.96 0-18.3-7.08-18.3-20.62v-20.3 0Zm35.48-6.68c-4.34-.97-8.75-1.49-13.18-1.58 -5.37 0-7.44 2.55-7.44 7.92v20.93c0 4.87 1.83 7.55 7.31 7.55 4.92-.18 9.63-2.09 13.3-5.39V62.01Z"/><path fill="#00CA8E" d="M58.72 0L-.01 33.87v67.77l58.68 33.87 58.72-33.88V33.85L58.7-.03Zm26.19 74.56l-15.64 9.02 -18.91-10.34v21.6L32.6 106.1V60.95l14.1-8.63 19.54 10.29V40.56l18.64-11.21v45.16Z"/></svg>