<svg viewBox="0 0 256 256" xmlns="http://www.w3.org/2000/svg"><path fill="#17B6A7" d="M256 186.07c0 38.61-31.31 69.92-69.922 69.92H69.922C31.305 255.99 0 224.68 0 186.06V69.9C0 31.28 31.305-.03 69.922-.03h116.156C224.688-.03 256 31.28 256 69.9v116.15Z"/><g fill="#FFF"><path d="M146.34 56.18c-4.88 0-6.26 3.01-3.06 6.7l51.67 59.55c3.19 3.68 5.81 2.7 5.81-2.18V65.032c0-4.88-4-8.87-8.87-8.87h-45.57Z"/><path d="M64.09 56.18c-4.88 0-8.87 3.99-8.87 8.87v32.81c0 4.87 2.59 11.9 5.76 15.6l68.16 79.612c3.17 3.7 9.76 6.73 14.64 6.73h48.11c4.87 0 8.87-4 8.87-8.87v-34.91c0-4.88-2.63-11.88-5.84-15.55l-67.85-77.64c-3.22-3.68-9.83-6.68-14.71-6.68h-48.3Z"/><path d="M55.22 190.94c0 4.87 3.99 8.87 8.87 8.87h45.47c4.87 0 6.27-3.04 3.11-6.75L60.975 132.5c-3.17-3.72-5.76-2.76-5.76 2.12v56.31Z"/></g></svg>