<svg viewBox="0 0 256 160" xmlns="http://www.w3.org/2000/svg"><path fill="#012F55" d="M39.37 0l55.96 94.21 .04-42.65 32.47 50.75 -33.42 52.51 -55.39-89.89 -.13 94.1H-.04V-.03h39.37Zm94.89 44.46l16.2 25.43 .2.35c10.58-16.11 28.57-25.81 47.85-25.8 31.24 0 56.65 26.44 57.27 57.58l.01 1.05h-.03l-.01.39c-.06 2.58-1.44 4.96-3.67 6.3 -2.32 1.38-5.19 1.42-7.54.11 -2.27-1.27-3.73-3.61-3.86-6.2l-.01-.28 -.01-.36c-.13-4.93-2.84-6.93-6.39-8.4l-.53-.22v0l-.54-.21v0l-.55-.21v0l-2.84-1.01v0l-.58-.22v0l-.59-.22v0l-.59-.23c-.1-.04-.2-.08-.3-.12l-.58-.25v0l-.58-.26c-2.3-1.07-4.49-2.5-6.24-4.77l-.21-.28v0l-.21-.29v0l-.31-.45v0l-.41-.63v0l-1.29-2.07v0l-.47-.73v0l-.38-.56v0l-.26-.38v0l-.41-.56v0l-.29-.38v0l-.3-.38c-.05-.07-.1-.13-.15-.19l-.31-.37c-3.05-3.56-7.8-6.75-17.01-6.75 -7.62-.01-14.92 3.01-20.3 8.4 -5.39 5.38-8.41 12.68-8.41 20.29 .02 1.08.27 2.15.75 3.12l.14.28 34.24 53.89h-37.77l-16.73-25.24 -16.43 25.23H96.07l36.04-56.75 -36.94-57.85h38.87Zm121.58 66.75c.38 2.68 0 5.41-1.1 7.89 -1.33 3.05-3.19 3.61-4.43 3.58l-.21-.02v0l-.2-.02v0l-.18-.03v0l-.24-.05v0l-.2-.06v0l-.26-.09v0l-.1-.05v0l-.12-.07v0l-.17-.11v0l-.14-.1v0l-.15-.12v0l-.16-.13c-.03-.03-.06-.05-.09-.08l-.17-.16c-.7-.72-1.33-1.94-.22-3.65 .82-1.27 1.95-1.98 3.14-2.62l1.2-.64c1.43-.78 2.82-1.69 3.7-3.57ZM134.35-.02v40.43l-.09.45H95.37l-.01-.46L95.4-.04h38.93Z"/><path fill="#96D8E9" d="M194.36 84.98c-9.32-.18-17.73 5.53-21.01 14.25 5.45-8.16 15.83-11.44 24.98-7.89 4.22 1.72 9.78 4.5 14.18 3.01 -4.19-5.88-10.96-9.38-18.17-9.39v0Z"/><path fill="#48C4E5" d="M238.48 104.12c0-4.77-2.6-5.88-7.98-7.83 -4-1.39-8.53-2.96-11.82-7.26 -.65-.86-1.25-1.82-1.88-2.83 -1.43-2.64-3.36-4.97-5.69-6.85 -3.15-2.31-7.26-3.44-12.61-3.44 -10.72 0-20.38 6.47-24.46 16.38 5.16-7.17 13.74-11.05 22.53-10.2 8.78.85 16.46 6.3 20.15 14.33 1.84 3.04 5.48 4.49 8.91 3.56 5.25-1.13 4.89 3.84 12.82 5.52l-.01-1.42Z"/></svg>