<svg viewBox="0 0 512 323" xmlns="http://www.w3.org/2000/svg"><path d="M505.04 209.64c1.7-.25 2.91 4.62 2.91 8.27 0 9-5.36 15.08-11.93 15.57v0l-110.45 7.78 -219.69 16.79c-3.65.24-7.06 1.94-9.49 4.62v0l-54.26 57.67c-4.14 4.13-10.95 1.94-10.95-3.66v0 -48.92c0-2.2-1.71-3.9-4.14-3.9v0l-73.72 5.59c-8.03.48-8.52 3.16-10.47 3.4 -1.71 0-2.92-4.63-2.92-8.52 0-9.01 5.35-15.09 11.92-15.58v0l51.57-3.41 43.79-3.41c2.18-.25 4.13 1.46 4.13 3.65v0 36.26l36.49-38.94c2.43-2.44 5.83-4.14 9.24-4.39v0l319.91-24.34v0l17.51-1.22c8.02-.49 8.51-3.17 10.46-3.41ZM402.59.1c9.29-.99 15.4 4.41 15.4 11.27v0 89.2c9.29-13.24 20.54-25.49 33.5-26.47 17.61-1.48 25.43 12.74 25.43 28.91 0 22.05-15.9 39.7-27.4 49.01 2.93 12.25 9.04 23.28 20.3 22.3 13.2-.99 22.74-19.86 25.43-32.6 3.42-17.9 19.07-5.64 16.38 3.67 -5.14 15.93-19.33 46.07-45.25 48.03 -22.51 1.96-37.43-22.8-37.43-41.67 0-2.92 2.9-6.09 6.79-10l.71-.72c7.88-7.87 19.14-18.65 19.14-35.86 0-7.11-3.67-11.77-9.05-11.28 -6.85.49-19.82 10.78-28.62 41.9v0l0 50.57c-.01.07-.01.14-.01.22l-.01.44c-.01.15-.01.3-.01.45l-.02.45c-.15 4.68-1.18 9.48-8.05 10.09 -5.63.49-13.7-.74-13.7-11.28 -6.12 7.84-14.44 13.47-25.44 14.45 -13.46.98-29.6-5.15-29.6-30.39 0-18.39 6.35-32.36 15.4-57.84v0l-25.93-4.91c-.25 11.27-1.96 36.27-7.1 53.42 0 .24-.25.49-.25.73 -5.14 19.11-16.64 43.86-40.36 45.82 -10.03.73-17.62-3.44-22.02-10.05 -5.88 7.1-13.95 12.74-24.71 13.72 -12.97.98-22.26-4.66-27.89-14.22 -7.59 9.8-17.62 17.89-30.58 18.87 -22.02 1.71-33.76-12.75-33.76-35.3v0V79.81c-5.88 5.14-12.48 9.8-17.37 12.25 1.22 7.84 1.71 15.68 1.71 22.54 0 72.78-31.56 108.07-64.82 110.77 -41.83 3.18-63.6-37.26-63.6-88.48 0-97.55 57.72-124.5 60.17-125.49 .97-.25 1.95-.74 3.17-.74 6.35-.5 10.02 7.84 10.02 14.21 0 3.67-.98 6.61-3.67 6.86 -.49 0-.98 0-1.47-.25 -10.03 6.37-45.25 27.2-45.25 100.72 0 51.95 21.27 73.27 41.58 71.56 23.72-1.72 41.58-33.58 41.82-87.25 0-5.4-.49-11.52-.98-17.41v0l-5.39.49C75.82 101.3 56.75 88.8 56.75 66.74c0-14.95 10.51-28.19 25.92-29.41 20.79-1.72 32.77 13.96 39.13 33.57 7.82-3.68 17.36-12.99 22.01-17.9v0 -2.46c0-21.57 11.74-37.75 26.17-38.97 25.19-1.97 25.43 27.93 25.43 44.11 0 42.15-26.18 102.19-29.85 105.87v0 16.66c0 11.51 4.64 19.36 15.16 18.62 9.29-.74 16.87-10.3 21.52-20.35 -.25-1.97-.25-3.68-.25-5.64 0-47.8 33.26-79.66 67.99-82.6 7.82-.5 13.2 3.67 13.2 11.02 0 4.9-.74 6.61-3.67 6.86 -2.7 0-5.39-.25-8.32 0 -21.77 1.71-47.21 22.3-47.21 63.72 0 14.94 6.35 23.03 16.38 22.3 7.82-.5 12.96-7.85 16.14-16.18v0 -44.12c0-5.4-1.23-7.11-1.23-9.07 0-2.7 3.42-5.15 7.33-5.4 9.29-.99 15.4 4.41 15.4 11.27v0 47.54c0 6.37 2.93 12.98 9.78 12.49 11.25-.99 16.38-19.86 19.07-32.6 .24-.25.24-.5.24-.74v-.74c3.17-11.77 4.4-35.54 4.64-50.25 -7.1-3.44-12.23-9.07-12.23-17.41 0-7.85 7.09-13.73 14.43-14.22 6.84-.5 14.92 2.2 18.09 13.72 2.5.37 5.18.8 7.87 1.26l1.27.21v0l.84.14c.7.12 1.41.24 2.11.37l.83.15c9.6 1.72 18.11 3.47 18.11 3.47 7.58 1.47 14.92 8.33 13.69 14.94 0 3.43-13.95 31.61-13.95 60.28 0 7.84 3.66 15.19 11.49 14.45 13.2-.99 17.85-19.86 20.54-32.6 .24-1.48.73-2.7 1.22-3.93v0V14.29c0-8.34-2.94-8.83-2.94-10.79 0-1.97 5.13-3.68 9.04-3.93ZM178.05 57.93c0-18.88-3.18-27.21-7.83-26.96 -3.18.24-4.41 7.1-4.41 11.76v0h.24v81.85c5.87-12.5 11.98-50.98 11.98-66.67Zm-76.07 21.56c-2.7-12.99-8.57-22.31-17.37-21.57 -5.63.49-7.1 4.65-7.1 7.84 0 7.1 6.35 15.43 21.27 14.21v0Z"/></svg>