<svg viewBox="0 0 512 94" xmlns="http://www.w3.org/2000/svg"><path fill="#DA1A32" d="M21.63 63.86v3.42c0 2.65 2.15 4.81 4.81 4.81v0h42.89c2.65 0 4.81-2.16 4.81-4.82v0 -3.43h21.62V84.8c0 4.89-4.01 8.89-8.9 8.89v0H8.88c-4.9 0-8.9-4.01-8.9-8.9v0V63.82h21.63Zm-.01-27.82v21.62H-.01V36.03h21.62Zm74.14 0v21.62H74.13V36.03h21.62ZM86.86-.02c4.89 0 8.89 4 8.89 8.9v0 20.96H74.12v-3.43c0-2.66-2.16-4.82-4.82-4.82v0H26.4c-2.66 0-4.82 2.15-4.82 4.81v0 3.42H-.05V8.85c0-4.9 4-8.9 8.89-8.9v0Z"/><path fill="#4E4540" d="M192.57 21.61c9.71 0 18.88 8.15 18.88 24.57v0 1.28c0 16.31-9.08 24.56-18.89 24.56 -7.06 0-11.28-3.95-14.21-8.26v0 21.17h-10.36V22.49h10.35v7.79c3.02-4.68 7.24-8.71 14.2-8.71Zm257.45 0c6.96 0 11.55 2.56 15.58 6.6v0l-5.78 7.61c-2.57-2.66-5.41-4.86-9.82-4.86 -6.79 0-11.74 6.5-11.74 15.67v0 .45c0 9.44 4.94 15.76 12 15.76 4.21 0 7.05-2.11 9.9-4.95v0l5.59 6.87c-3.86 4.3-8.71 7.33-16.14 7.33 -12.65 0-21.82-10.18-21.82-24.67v0 -.92c0-14.49 9.44-24.94 22.18-24.94Zm-212.21 0c13.2 0 20.16 11 20.16 25.57v0l-.01.29c-.01.73-.02 2-.1 3.27v0h-30.44c.91 8.15 5.95 12.55 12.28 12.55 4.58 0 7.97-2.02 11.18-5.14v0l5.4 6.41c-4.41 4.67-9.82 7.51-17.06 7.51 -12.47 0-22.19-9.54-22.19-24.76v0 -.74c0-14.58 8.8-25.03 20.72-25.03Zm-97.97-.01c12.83 0 22.27 10.45 22.27 24.84v0 .82c0 14.3-9.54 24.84-22.46 24.83 -12.84 0-22.29-10.36-22.29-24.76v0 -.83c0-14.31 9.53-24.94 22.46-24.94Zm188.84.18c5.4 0 11.18 1.92 15.76 5.22v0l-4.41 7.61c-3.67-2.48-7.71-4.31-11.56-4.31 -3.86 0-6.15 2.11-6.15 4.76v0 .18c0 3.2 3.85 4.85 9.53 7.42 7.51 3.39 13.2 6.87 13.2 14.48v0 .09c0 9.53-7.25 14.76-16.6 14.76 -5.78 0-12.47-2.12-18.06-6.79v0l4.85-7.43c4.4 3.57 9.07 5.68 13.38 5.68 4.3 0 6.78-2.3 6.78-5.32v0 -.1c0-3.49-3.76-5.05-9.54-7.52 -7.25-3.12-13.3-6.42-13.3-14.4v0 -.19c0-8.71 6.96-14.21 16.04-14.21Zm73.88.18c6.32 0 11.18 1.74 14.3 4.94 3.2 3.2 4.85 7.97 4.85 14.03v0 30.16h-10.18v-5.97c-2.85 4.12-7.15 6.87-13.48 6.87 -8.07 0-14.86-5.41-14.86-14.86v0 -.46c0-10.45 6.96-15.59 17.23-15.59 4.58 0 7.88.82 11.18 1.92v0 -2.02c0-6.51-3.86-9.91-10.46-9.91 -4.68 0-8.53 1.46-11.74 2.93v0l-2.94-8.26c4.67-2.3 9.53-3.86 16.04-3.86ZM366.34 9.39V22.5h10.9v8.89h-10.91v25.85c0 3.75 1.92 5.31 5.22 5.31 2.01 0 3.85-.46 5.59-1.38v0 8.52c-2.39 1.28-5.14 2.11-8.63 2.1 -7.15 0-12.56-3.03-12.56-12.47v0V31.35h-3.62l-1.71-8.9h5.31V9.33h10.35Zm-77.97 12.2c9.35 0 14.94 6.59 14.94 16.96v0 32.54h-10.36V41.47c0-6.79-3.21-10.55-8.71-10.55 -5.41 0-9.17 4.03-9.17 10.72v0 29.42h-10.36v-48.6h10.35v7.14c2.75-4.31 6.69-8.07 13.29-8.07Zm209.08 24.28l14.49 25.21h-12.02l-9.76-17.41 7.27-7.82ZM482.6 4.89v38.96l16.59-21.37h12.28l-28.89 34.56v14.02h-10.36V4.86h10.35Zm-79.88 43.27c-5.96 0-9.45 3.02-9.45 8.15v0 .18c0 4.85 3.38 7.61 7.88 7.7 5.96.09 10.54-3.95 10.54-9.45v0 -4.86c-2.39-1.01-5.51-1.75-8.99-1.75ZM139.61 30.73c-7.25 0-11.92 6.68-11.92 15.76v0 .55c0 9.07 5.04 15.95 12.1 15.94 7.24 0 11.91-6.79 11.91-15.86v0 -.56c0-9.08-5.05-15.86-12.11-15.86Zm50.05 0c-6.24 0-11.56 6.04-11.56 15.58v0 .91c0 9.53 5.31 15.58 11.55 15.59 6.32 0 11.27-5.87 11.27-15.59v0 -.83c0-9.72-5.04-15.68-11.28-15.68Zm48.09-.47c-5.69 0-9.72 5.04-10.45 13.29v0h20.53c-.56-7.71-4.04-13.3-10.09-13.3Z"/></svg>