<svg viewBox="0 0 256 209" xmlns="http://www.w3.org/2000/svg"><path fill="#B8C6C9" d="M231.94 142.04c-3.54 0-6.96.77-9.98 2.14 -1.33-.81-2-1.59-4-2.35V52.7L127.74.2 51.97 44.92c-1.29-.76-2.58-1.54-3.91-2.35 -.11-13.17-10.85-23.85-24.04-23.85C10.75 18.72-.03 29.5-.03 42.76c0 13.26 10.79 24.04 24.05 24.04 3.53 0 7.03-.78 10.05-2.15 1.25.76 2.85 1.5 3.85 2.22v89.93L128 208.94l76.49-44.75c1.12.66 2.22 1.34 3.38 2.04 .1 13.16 10.83 23.84 24.02 23.84 13.26 0 24.04-10.79 24.04-24.06s-10.8-24.05-24.06-24.05"/><g transform="translate(13 15)"><g fill="#759BC5"><path d="M114.87 179.06l77.14-45.15V45.26L114.85.34 37.74 45.88v88.54l77.11 44.61"/><path d="M229.93 151.29c0 6.04-4.9 10.95-10.94 10.95 -6.05 0-10.94-4.91-10.94-10.96 0-6.05 4.89-10.96 10.93-10.96 6.03 0 10.93 4.9 10.93 10.95"/><path d="M.07 27.78c0-6.05 4.89-10.96 10.93-10.96 6.03 0 10.93 4.9 10.93 10.95 0 6.04-4.9 10.95-10.94 10.95C4.94 38.72.05 33.81.05 27.76"/></g></g><path fill="#343532" d="M232.09 172.74c-3.62 0-6.57-2.95-6.57-6.57s2.94-6.57 6.56-6.57c3.61 0 6.56 2.94 6.56 6.56 0 3.61-2.95 6.56-6.57 6.56v0 0Zm-89.16 7.35c7.14-10.3 15.61-25.05 20.82-42.77 11.06 2.27 21.39 5.95 32.59 11.54l-53.43 31.21v0ZM89 78.02c-1.73 7.2-2.91 14.87-3.18 22.94 -10.06 0-19.86 0-30.87 0V65.54c11 5.93 22.59 9.93 34.04 12.46v0 0Zm-64.99-28.7c-3.62 0-6.57-2.95-6.57-6.57s2.94-6.57 6.56-6.57c3.61 0 6.56 2.94 6.56 6.56 0 3.61-2.95 6.56-6.57 6.56v0 0Zm87.42-19.17c-7.18 10.02-15.4 24.08-20.53 41.13 -10.35-2.26-20.11-5.77-30.61-10.97l51.13-30.17v0Zm19.38 97.08c0-2.7.01-5.43.02-8.19 5.67-1.14 10.17-5.52 11.52-11.11 6.93 0 13.55.01 20.05.01 -.27 7.48-1.35 14.67-3 21.49 -8.79-1.43-18.12-2.11-28.61-2.22v0 0Zm-.02 7c9.86.1 18.59.7 26.78 1.97 -6.93 22.82-19.53 40.67-26.64 49.49 -.13-16.33-.17-33.13-.15-51.47v0 0Zm-39.89 4.05c5.14 17.12 13.36 31.12 20.55 41.06L58.96 149c6.42-3.02 17.44-7.5 31.93-10.74v0 0Zm22.53-30.35c1.32 5.5 5.7 9.82 11.25 11.04 -.01 2.79-.02 5.55-.03 8.26 -10.81.18-20.72 1.32-29.55 2.97 -1.71-6.99-2.82-14.44-3.07-22.27 6.96-.01 14.01-.01 21.37-.02v0 0Zm11.22-26.28c0 2.76.01 5.51.02 8.26 -5.54 1.21-9.91 5.51-11.25 11 -7.37 0-14.42.01-21.38.01 .26-7.66 1.35-14.93 2.99-21.76 9.08 1.58 18.71 2.33 29.59 2.47v0 0Zm-.07-53.74c0 15.35.01 31.08.05 46.73 -10.25-.13-19.27-.8-27.74-2.22 7.12-23.31 20.27-40.68 27.67-49.15l0 4.62v0Zm38.96 43.15c-5.2-17.35-13.52-31.77-20.57-41.89l53.77 31.27c-6.65 3.01-18.11 7.48-33.21 10.6v0 0ZM130.69 27.9l-.01-4.7c7.01 8.57 19.69 26.21 26.71 49 -8.07 1.36-17 2.29-26.67 2.42 -.04-15.65-.05-31.38-.06-46.74v0 0Zm-2.84 84.41c-4.35 0-7.88-3.54-7.88-7.88 0-4.35 3.53-7.88 7.87-7.88s7.87 3.53 7.87 7.87 -3.54 7.87-7.88 7.87v0 0Zm-3.09 73.84c-7.32-8.35-20.59-25.77-27.81-49.15 8.31-1.54 17.59-2.61 27.65-2.79 -.03 18.51.02 35.45.14 51.92v0 0Zm17.52-85.25c-1.37-5.58-5.86-9.94-11.52-11.07 -.01-2.74-.02-5.47-.03-8.21 10.39-.14 19.95-1.14 28.52-2.61 1.69 6.92 2.81 14.25 3.07 21.89 -6.51-.01-13.13-.01-20.07-.02v0 0Zm57.71-.02c-10.01.01-21.21.02-31.84.02 -.26-8.07-1.56-15.78-3.3-23.05 16.32-3.39 29.12-8.3 35.12-11.49v34.5 0Zm-145.12 7.03c11 0 20.85 0 30.9-.01 .24 8.29 1.33 16.15 3.08 23.5 -15.62 3.49-26.99 8.37-33.99 11.58v-35.1 0Zm110.24 22.61c1.67-7.16 2.61-14.73 2.87-22.63 10.62-.01 21.99-.01 32-.03v35.32c-11.01-6.13-22.95-10.19-34.88-12.69v0 0Zm66.87 20.26c-4.12 0-8.05 1.63-10.8 4.28 -4.16-2.61-8.2-5-12.21-7.18V57.64L127.59 10.2 51 55.44c-4.09-2.29-8.28-4.82-12.75-7.62 .57-1.62.93-3.35.93-5.16 0-8.45-6.86-15.32-15.31-15.32s-15.32 6.87-15.32 15.31c0 8.44 6.87 15.31 15.32 15.31 4.11 0 7.61-1.64 10.37-4.29 4.08 2.56 8.55 4.9 11.56 7.04v91.02l81.75 47.11 77.6-45.29c3.91 2.2 8.03 4.63 12.3 7.31 -.58 1.61-.89 3.34-.89 5.15 0 8.44 6.88 15.31 15.33 15.31 8.44 0 15.32-6.88 15.32-15.32 0-8.45-6.87-15.32-15.31-15.32v0 0Z"/></svg>