<svg viewBox="0 0 256 256" xmlns="http://www.w3.org/2000/svg"><path fill="#F5A800" d="M135.44 139.91c-10.91 10.9-10.91 28.58 0 39.49 10.9 10.9 28.59 10.9 39.49 0 10.9-10.91 10.9-28.59 0-39.5 -10.91-10.91-28.6-10.91-39.5 0Zm29.52 29.54c-5.41 5.4-14.16 5.4-19.56 0 -5.41-5.41-5.41-14.16 0-19.56 5.4-5.41 14.15-5.41 19.55 0 5.4 5.37 5.4 14.15 0 19.55Zm9.5-166.96L157.34 19.6c-3.35 3.34-3.35 8.85 0 12.2l66.81 66.8c3.34 3.34 8.85 3.34 12.2 0l17.11-17.12c3.34-3.35 3.34-8.86 0-12.21L186.61 2.46c-3.35-3.35-8.83-3.35-12.18-.001v0ZM54.56 221.13c3.03-3.04 3.03-8 0-11.04l-8.7-8.7c-3.04-3.04-8-3.04-11.04 0l-17.97 17.96 -.03.02 -4.94-4.94c-2.73-2.73-7.17-2.73-9.87 0 -2.73 2.72-2.73 7.16 0 9.86l29.6 29.59c2.72 2.72 7.16 2.72 9.86 0 2.7-2.73 2.72-7.17 0-9.87l-4.94-4.94 .02-.03 17.96-17.97Z"/><path fill="#425CC7" d="M145.1 51.63l-38.02 38.01c-3.38 3.37-3.38 8.93 0 12.3l23.47 23.47c16.59-11.95 39.86-10.47 54.79 4.46l19-19.01c3.37-3.38 3.37-8.94 0-12.31L157.39 51.6c-3.38-3.41-8.94-3.41-12.31 0Zm-24.41 83.68l-13.87-13.87c-3.25-3.25-8.57-3.25-11.82 0l-48.9 48.91c-3.25 3.24-3.25 8.56 0 11.81l27.7 27.7c3.24 3.24 8.56 3.24 11.81 0l31.44-31.5c-6.65-13.74-5.46-30.33 3.6-43.08Z"/></svg>