<svg viewBox="0 0 256 237" xmlns="http://www.w3.org/2000/svg"><g fill="#DA2430"><path d="M74.83 106.89l-40.87 14.87c.52 6.55 1.65 13.02 3.24 19.36l38.81-14.14c-1.25-6.56-1.69-13.32-1.19-20.11"/><path d="M255.44 61.7c-2.86-5.88-6.15-11.57-9.97-16.92l-40.86 14.87c4.75 4.86 8.74 10.32 12 16.17l38.81-14.14 -.01 0v0Z"/><path d="M182.95 61.46c-5.15-4.47-10.95-8.32-17.41-11.33h-.01c-37.95-17.69-83.21-1.24-100.9 36.72 -1 2.14-1.88 4.3-2.66 6.48 -2.21 6.42-3.5 12.98-4 19.54l-.15.05c-.01.04-.01.09-.02.14L33.2 122l-15.83 5.84c-.01-.03-.01-.06-.01-.09l-.44.15c-1.54-19.44 1.73-39.52 10.55-58.42 1.15-2.48 2.38-4.9 3.68-7.25C60.2 8.11 126.31-14.51 182.06 11.9c11.53 5.46 21.77 12.63 30.55 21.07 5.9 5.46 11.18 11.48 15.78 17.94l-40.86 14.87c-.22-.22-.43-.43-.64-.65l-.12.04c-1.26-1.31-2.57-2.58-3.92-3.8Z"/></g><path fill="#E82429" d="M19.26 193.89l-.07.02C10.68 181.93 4.5 168.49.93 154.33l38.82-14.15 0 0c0 .04.01.08.02.12l.25-.1 0 .01c1.99 10.56 6.14 20.63 12.19 29.49 2.3 3.29 4.88 6.41 7.72 9.32l-.16.05c.09.1.19.2.29.3l-40.49 14.97c-.13-.18-.24-.35-.36-.52Z"/><path fill="#DA2430" d="M173.46 183.44c-21.06 13.01-48.06 15.53-72.12 4.31 -8.52-3.97-15.93-9.34-22.12-15.7l-40.78 14.84c.1.14.2.29.31.43l-.03 0c11.21 16.01 26.5 29.4 45.26 38.29 40.46 19.16 86.38 12.5 119.63-13.29 14.88-11.16 27.31-26.02 35.71-44.02 8.81-18.9 12.07-38.97 10.51-58.39l-1.14.41c-.02-.21-.04-.42-.05-.63l-40.49 14.95 0 0c-.65 8.92-2.87 17.87-6.81 26.45 -6.32 13.75-16.17 24.7-27.95 32.27Z"/><path fill="#E82429" d="M218.55 75.12l.6-.23v-.01c6.38 13.14 10.28 27.42 11.45 42.05l-40.78 14.83c0-.11.01-.21.02-.31l-.78.28c1.11-15.09-2.28-30.1-9.44-43.13l38.54-14.26 0-.01c.11.24.23.48.34.72Z"/><g fill="#C22035"><path d="M74.89 106.65L34.3 121.64c.51 6.6 1.63 13.13 3.21 19.53l38.54-14.26c-1.25-6.63-1.7-13.44-1.17-20.28"/><path d="M254.22 61.08c-2.83-5.93-6.11-11.66-9.9-17.06l-40.58 14.99c4.72 4.9 8.68 10.41 11.92 16.31l38.54-14.26 0 0v0Z"/></g><g fill="#AC223B"><path d="M34.3 121.65l40.48-14.83 -.17 8.13 -39.06 14.74 -1.27-8.07 0 0v0Z"/><path d="M203.76 58.89l41.11-14.11 4.27 6.44 -39.95 14.12 -5.44-6.47 -.01 0v0Z"/></g><g fill="#B92135"><path d="M38.76 187.2l40.53-14.75 12.25 11.56 -42.51 15.95 -10.29-12.78 -.01 0v0Z"/><path d="M249.38 109.86l-41.17 14.84 -3.04 16.47 43.89-15.65 .31-15.68 -.01-.01v0Z"/></g></svg>