<svg viewBox="0 0 512 224" xmlns="http://www.w3.org/2000/svg"><path fill="#5586A4" d="M83.96 67.07c.2-.1.4-.2.61-.3 5.69-2.69 12.33-4.04 19.9-4.04 7.56 0 14.2 1.34 19.9 4.03 5.69 2.68 10.46 6.28 14.29 10.79 3.82 4.5 6.7 9.68 8.61 15.53 1.91 5.84 2.87 11.93 2.87 18.26 0 6.32-.96 12.41-2.88 18.26 -1.92 5.84-4.79 11.03-8.62 15.53 -3.83 4.5-8.6 8.08-14.3 10.72 -5.7 2.63-12.34 3.96-19.91 3.96 -7.58 0-14.21-1.33-19.91-3.97 -1.2-.56-2.35-1.15-3.46-1.79 29.69 26.92 86.85 45.14 152.5 45.14 53.39 0 101.25-10.81 133.2-29.8 -34.97 31.79-97.35 54.21-168.57 54.2C88.67 223.57-.09 173.48-.08 111.72 -.08 49.95 88.71-.11 198.22-.09c71.5.01 134.04 22.5 168.91 54.52 -31.96-19.11-80.01-30.12-133.61-30.12 -63.61 0-119.26 17.11-149.66 42.66Zm-10.65 58.19c1.24 4.55 3.21 8.65 5.88 12.29 2.67 3.64 6.1 6.57 10.29 8.78 4.18 2.21 9.18 3.31 14.97 3.31 5.79 0 10.78-1.11 14.97-3.32 4.18-2.22 7.62-5.15 10.29-8.79 2.67-3.65 4.63-7.75 5.88-12.3 1.24-4.56 1.87-9.18 1.87-13.87 0-4.69-.63-9.31-1.88-13.86 -1.25-4.56-3.21-8.66-5.89-12.31 -2.68-3.65-6.11-6.58-10.3-8.79 -4.2-2.22-9.19-3.33-14.98-3.33 -5.8 0-10.79 1.1-14.98 3.32 -4.2 2.21-7.63 5.14-10.3 8.78 -2.68 3.64-4.64 7.74-5.89 12.3 -1.25 4.55-1.87 9.17-1.87 13.85s.62 9.3 1.86 13.86Zm95.66-26.62v8.02h.2c1.63-3.29 4.21-5.68 7.72-7.17 3.51-1.49 7.37-2.24 11.59-2.24 4.68 0 8.76.84 12.23 2.52 3.47 1.68 6.35 3.94 8.66 6.8 2.3 2.86 4.03 6.16 5.21 9.9 1.17 3.73 1.75 7.7 1.75 11.9 0 4.19-.57 8.16-1.7 11.9 -1.14 3.73-2.85 7-5.16 9.78 -2.31 2.78-5.2 4.97-8.67 6.57 -3.48 1.6-7.52 2.4-12.13 2.4 -1.49 0-3.15-.16-4.98-.46 -1.84-.31-3.65-.81-5.45-1.49 -1.8-.69-3.5-1.63-5.1-2.81 -1.61-1.19-2.95-2.66-4.04-4.42h-.21v30.55h-10.05V98.57h10.04Zm35.63 21.04c-.75-2.64-1.87-4.98-3.39-7.04 -1.52-2.06-3.47-3.71-5.85-4.92 -2.38-1.23-5.17-1.84-8.36-1.84 -3.36 0-6.2.65-8.53 1.94 -2.34 1.29-4.25 2.99-5.73 5.08 -1.49 2.09-2.56 4.48-3.22 7.15 -.67 2.66-1 5.37-1 8.12 0 2.9.34 5.7 1.05 8.4 .69 2.71 1.81 5.09 3.32 7.15 1.51 2.06 3.48 3.71 5.89 4.97 2.41 1.25 5.33 1.88 8.76 1.88 3.42 0 6.28-.65 8.58-1.95 2.29-1.3 4.14-3.02 5.55-5.16 1.39-2.14 2.41-4.58 3.03-7.33 .62-2.75.93-5.57.93-8.47 -.01-2.75-.38-5.44-1.12-8.07Zm62.96 34.35c-4.54 3.35-10.25 5.03-17.13 5.03 -4.86 0-9.06-.77-12.62-2.29 -3.57-1.53-6.56-3.67-8.98-6.42 -2.43-2.75-4.25-6.03-5.46-9.85 -1.22-3.82-1.9-7.98-2.06-12.48 0-4.51.7-8.63 2.11-12.37 1.4-3.74 3.38-6.99 5.93-9.74 2.54-2.75 5.55-4.89 9.04-6.41 3.48-1.53 7.3-2.29 11.45-2.29 5.4 0 9.88 1.09 13.44 3.26 3.56 2.17 6.42 4.95 8.57 8.31 2.15 3.36 3.64 7.03 4.46 11 .82 3.97 1.15 7.76.99 11.35h-45.39c-.08 2.59.23 5.04.93 7.37 .7 2.32 1.83 4.38 3.39 6.17 1.56 1.78 3.55 3.21 5.97 4.28 2.41 1.06 5.26 1.6 8.54 1.6 4.21 0 7.66-.96 10.36-2.87 2.69-1.92 4.46-4.82 5.32-8.72h9.85c-1.34 6.63-4.27 11.62-8.81 14.98Zm-2.44-37.98c-.9-2.06-2.11-3.83-3.63-5.32 -1.53-1.49-3.32-2.67-5.39-3.55 -2.07-.88-4.35-1.32-6.85-1.32 -2.58 0-4.9.43-6.96 1.31 -2.07.87-3.85 2.07-5.33 3.59 -1.49 1.52-2.66 3.29-3.51 5.31 -.86 2.01-1.37 4.16-1.53 6.45h34.74c-.16-2.29-.69-4.46-1.59-6.52Zm28.31-17.43v9.39h.18c4.15-7.19 10.75-10.78 19.79-10.78 4 0 7.34.53 10.01 1.6 2.66 1.07 4.82 2.55 6.47 4.47 1.65 1.9 2.8 4.18 3.47 6.81 .66 2.63 1 5.55 1 8.76v38.96H324.3v-40.09c0-3.67-1.1-6.57-3.3-8.71 -2.2-2.14-5.22-3.21-9.05-3.21 -3.06 0-5.71.46-7.94 1.37 -2.24.91-4.1 2.21-5.59 3.89 -1.49 1.68-2.61 3.64-3.35 5.89 -.75 2.25-1.12 4.71-1.12 7.38v33.44H283.9V98.53h9.45Zm110.35 58.6c-4.54 1.86-9.12 2.8-13.74 2.8 -7.3 0-13.85-1.25-19.67-3.72 -5.83-2.48-10.74-5.9-14.74-10.25 -4.01-4.36-7.07-9.47-9.21-15.34 -2.14-5.88-3.2-12.21-3.2-19 0-6.96 1.06-13.43 3.19-19.39 2.12-5.97 5.18-11.16 9.17-15.6 3.99-4.44 8.89-7.92 14.71-10.45 5.82-2.53 12.37-3.79 19.66-3.79 4.88 0 9.62.72 14.19 2.15 4.57 1.44 8.71 3.55 12.4 6.34 3.68 2.78 6.73 6.22 9.13 10.31 2.4 4.08 3.86 8.78 4.4 14.07h-20c-1.25-5.21-3.65-9.12-7.21-11.73 -3.56-2.61-7.87-3.91-12.94-3.91 -4.72 0-8.72.89-12.01 2.67 -3.29 1.78-5.96 4.17-8.01 7.18 -2.05 3-3.54 6.41-4.47 10.24 -.94 3.82-1.4 7.78-1.4 11.87 0 3.91.46 7.72 1.4 11.42 .93 3.69 2.42 7.02 4.47 9.98 2.04 2.95 4.71 5.32 8.01 7.11 3.29 1.78 7.29 2.67 12.01 2.67 6.94 0 12.29-1.71 16.08-5.14 3.78-3.43 5.98-8.39 6.61-14.89h-21.07v-15.31h39.94v50.3h-13.3l-2.13-10.56c-3.74 4.69-7.87 7.97-12.41 9.83Zm61.76-92.37v75.73h46.4v17.26h-67.29V64.83h20.88Z"/></svg>