<svg viewBox="0 0 256 248" xmlns="http://www.w3.org/2000/svg"><path fill="#3DA639" d="M143.33 167.83c22.06-8.48 33.08-33.24 24.61-55.31 -8.48-22.07-33.23-33.1-55.29-24.62 -22.07 8.47-33.09 33.23-24.62 55.3 4.34 11.32 13.29 20.27 24.61 24.61l-28.83 75.12c-63.55-24.4-95.29-95.71-70.9-159.27 24.38-63.57 95.66-95.32 159.21-70.92 63.54 24.39 95.28 95.7 70.89 159.26 -12.52 32.62-38.29 58.39-70.9 70.91l-28.83-75.13"/><g fill="#1D531D"><path d="M172.16 247.36c-.62 0-1.23-.13-1.8-.39 -1.07-.48-1.91-1.36-2.33-2.45l-28.83-75.13c-.88-2.28.26-4.83 2.53-5.7 9.57-3.68 17.13-10.86 21.3-20.23 4.17-9.37 4.44-19.81.76-29.38 -7.59-19.77-29.84-29.68-49.6-22.09 -19.76 7.58-29.67 29.84-22.08 49.6 3.89 10.14 11.93 18.19 22.07 22.08 2.27.87 3.4 3.42 2.53 5.69l-28.83 75.12c-.42 1.09-1.26 1.97-2.33 2.44s-2.28.5-3.38.08c-31.84-12.23-57-36.11-70.87-67.27 -13.87-31.16-14.78-65.85-2.57-97.7 12.21-31.85 36.09-57.02 67.24-70.89 31.14-13.88 65.82-14.79 97.65-2.57 31.83 12.22 56.99 36.1 70.86 67.26 13.86 31.15 14.77 65.84 2.56 97.69 -12.95 33.73-39.71 60.5-73.43 73.45 -.51.19-1.05.29-1.58.29v0ZM127.95 8.93c-16.44-.001-32.84 3.45-48.3 10.34 -29 12.91-51.23 36.35-62.61 65.99C5.66 114.9 6.51 147.2 19.42 176.2c12.31 27.65 34.18 49.16 61.88 60.96l25.71-67.02c-10.56-5.24-18.86-14.3-23.11-25.39 -9.33-24.31 2.85-51.67 27.14-61 24.29-9.34 51.64 2.85 60.97 27.15 4.51 11.77 4.18 24.6-.95 36.12 -4.53 10.16-12.31 18.24-22.17 23.1l25.7 67.01c29.46-12.6 52.75-36.7 64.27-66.73 11.37-29.65 10.52-61.95-2.39-90.95 -12.92-29.01-36.35-51.25-65.98-62.63 -13.84-5.32-28.25-7.96-42.63-7.96v0Z"/><path d="M237.74 229.57c-1.6 1.63-2.4 3.57-2.4 5.81 0 2.32.81 4.29 2.43 5.92 1.61 1.62 3.56 2.43 5.85 2.43 2.27 0 4.22-.82 5.83-2.45 1.61-1.65 2.42-3.62 2.42-5.91 0-2.24-.81-4.17-2.41-5.82 -1.63-1.67-3.58-2.51-5.86-2.51 -2.31 0-4.27.83-5.9 2.5v0Zm12.91 13.01c-1.96 1.88-4.3 2.83-7.03 2.83 -2.83 0-5.2-.97-7.14-2.9 -1.94-1.94-2.9-4.32-2.9-7.14 0-2.94 1.04-5.37 3.13-7.31 1.95-1.82 4.26-2.73 6.9-2.73 2.76 0 5.13.97 7.09 2.93 1.95 1.95 2.93 4.32 2.93 7.09 0 2.84-1.01 5.24-3.01 7.2v0Zm-6.12-10.55c-.4-.16-.97-.24-1.69-.24h-.71v3.22h1.12c.68 0 1.21-.14 1.59-.41 .38-.28.57-.72.57-1.33 0-.61-.3-1.03-.9-1.27v0Zm-5.31 8.92v-11.12c.68 0 1.72 0 3.09 0 1.37 0 2.13.01 2.29.02 .88.06 1.61.25 2.19.57 .98.54 1.48 1.42 1.48 2.65 0 .93-.27 1.61-.79 2.02 -.53.41-1.17.66-1.93.74 .69.14 1.22.35 1.57.63 .65.52.97 1.35.97 2.49v.99c0 .1 0 .21.02.32 .01.1.03.21.07.32l.09.31h-2.78c-.1-.36-.15-.87-.18-1.54 -.03-.68-.09-1.13-.18-1.37 -.15-.4-.42-.67-.82-.82 -.22-.1-.55-.15-1-.18l-.64-.05h-.62v3.93h-2.92Z"/></g></svg>