<svg viewBox="0 0 512 67" xmlns="http://www.w3.org/2000/svg"><path fill="#EA1B22" d="M221.03 43.3h33.83l-17.89-28.79 -32.84 52.03h-14.95l39.93-62.51c1.73-2.53 4.63-4.06 7.83-4.06 3.1 0 5.99 1.47 7.68 3.94l40.09 62.61h-14.95l-7.06-11.63h-34.26l-7.48-11.63v0Zm155.21 11.62V.62h-12.69v59.61c0 1.63.63 3.2 1.84 4.41 1.2 1.21 2.84 1.89 4.63 1.89h57.82l7.47-11.63h-59.09v0Zm-209.78-9.74c12.31 0 22.3-9.95 22.3-22.26 0-12.32-10-22.31-22.31-22.31h-55.48v65.92h12.67v-54.3h41.95c5.89 0 10.62 4.78 10.62 10.68 0 5.89-4.74 10.68-10.63 10.68l-35.75-.06 37.85 32.99h18.41l-25.47-21.37h5.78v0ZM32.95 66.54C14.74 66.54-.02 51.8-.02 33.6c0-18.21 14.76-33 32.96-33h38.31c18.2 0 32.96 14.78 32.96 32.99 0 18.2-14.76 32.93-32.97 32.93H32.92v0Zm37.46-11.63c11.79 0 21.34-9.53 21.34-21.31 0-11.79-9.55-21.37-21.35-21.37H33.77c-11.79 0-21.35 9.57-21.35 21.36 0 11.78 9.55 21.3 21.34 21.3h36.62v0Zm240.78 11.62c-18.21 0-33-14.74-33-32.94 0-18.21 14.78-33 32.99-33h45.51l-7.42 11.62h-37.26c-11.79 0-21.37 9.57-21.37 21.36 0 11.78 9.57 21.3 21.36 21.3h45.72l-7.48 11.62h-39.1v0ZM466.24 54.9c-9.74 0-18-6.53-20.53-15.53h54.19l7.47-11.63H445.7c2.52-8.95 10.78-15.53 20.52-15.53h37.19L510.93.58h-45.57c-18.21 0-33 14.78-33 32.99 0 18.2 14.78 32.93 32.99 32.93h39.09l7.47-11.63h-45.73v0Z"/></svg>