<svg viewBox="0 0 512 93" xmlns="http://www.w3.org/2000/svg"><path fill="#221F20" d="M271.92 16.34V1.47h-62.05v89.255h62.04V75.85h-47.17V53.53h44.89V38.65h-44.9V16.32h47.17Zm46.03 74.38V1.47h14.88v74.373h42.9v14.87h-57.791Zm69.91 0V1.47h14.88v74.373h42.92v14.87h-57.81ZM287.51 1.47h14.87v89.24H287.5V1.46ZM-.03 46.5C-.03 20.821 20.78.02 46.462.01c25.67 0 46.479 20.806 46.485 46.485 -.01 25.67-20.81 46.48-46.485 46.491C20.78 92.981-.03 72.17-.03 46.5ZM24.1 24.139c-5.73 5.76-9.25 13.61-9.26 22.361 .01 8.75 3.53 16.601 9.26 22.348 5.74 5.73 13.604 9.26 22.36 9.26 8.75 0 16.6-3.54 22.34-9.27 5.74-5.747 9.26-13.6 9.26-22.348 0-8.76-3.53-16.61-9.27-22.361 -5.75-5.72-13.59-9.25-22.35-9.25 -8.76 0-16.613 3.53-22.37 9.24Zm152.25 28.28c10.73-3.23 18.56-13.15 18.56-24.93 0-14.38-11.66-26.03-26.04-26.03H124.03v89.24h14.87V53.51h20.72l22.43 37.17h17.35l-23.08-38.3Zm-37.44-13.768V16.32h29.96c6.16 0 11.15 5 11.16 11.16 -.02 6.15-5.01 11.14-11.17 11.16h-29.97Zm373.04-37.19h-18.08l-22.9 33.138 -22.9-33.138h-18.09l33.51 48.531v40.71h14.88v-40.69L511.92 1.45Z"/><path fill="#D31242" d="M113.53 10.97c0 6.05-4.9 10.95-10.95 10.95 -6.06 0-10.96-4.91-10.96-10.96C91.62 4.91 96.51.01 102.57.01c6.04 0 10.94 4.904 10.94 10.948"/></svg>