<svg viewBox="0 0 256 344" xmlns="http://www.w3.org/2000/svg"><defs><linearGradient id="a" x1="50%" x2="50%" y1="0%" y2="100%"><stop offset="0%" stop-color="#F90"/><stop offset="100%" stop-color="#F05A22"/></linearGradient></defs><path fill="url(#a)" d="M127.61 2.37c.7 1.8-.52 3.45-1.51 4.84 -7.03 9.95-12.55 21.09-14.76 33.06 -.87 2.45-.68 4.28 0 4.49 13.63-1.2 29.01-1.06 42.43 1.8 24.42 4.91 47.24 17.27 64.79 34.94 17.49 17.48 29.77 40.14 34.73 64.38 5.5 26.24 2.42 54.18-8.59 78.63 -23.36 49.91-62.74 92.14-110.92 118.9 -1.56.72-3.8.75-4.86-.8 -1.26-1.62-.74-3.93.5-5.4 6.49-9.07 11.03-19.5 13.5-30.37 .47-2.26 1.12-4.54.92-6.86 -.8-1.04-2.11-.73-3.23-.69 -23.39 2.34-47.46-1.84-68.59-12.17 -22.64-10.91-41.85-28.74-54.55-50.41C5.7 216.77-.49 193.55-.06 170.39c.08-21.26 5.87-42.34 16.09-60.95C39.8 63.79 77.13 25.27 122.19.39c1.88-1.06 4.68-.27 5.33 1.91v0Zm-6.65 120.06c-13.92 1.86-26.75 10.03-34.54 21.68 -5.28 7.99-8.47 17.49-8.41 27.1 -.4 12.88 4.74 25.78 13.64 35.06 7.77 8.37 18.58 13.83 29.9 15.29 11.53 1.52 23.57-1.18 33.34-7.52 9.92-6.31 17.49-16.26 20.87-27.53 6.35-19.57-1.27-42.49-17.84-54.58 -10.41-7.93-24.06-11.44-37-9.54v0 0Z"/></svg>