<svg viewBox="0 0 512 237" xmlns="http://www.w3.org/2000/svg"><path fill="#ED225D" d="M28.69 56.89V73.6h.75c1.49-2.33 3.44-4.7 5.86-7.12 2.41-2.42 5.36-4.58 8.86-6.5 3.49-1.91 7.44-3.5 11.85-4.75 4.4-1.25 9.35-1.88 14.84-1.88 8.48 0 16.3 1.62 23.45 4.86 7.15 3.25 13.31 7.7 18.46 13.35 5.15 5.65 9.14 12.31 11.97 19.96 2.82 7.65 4.24 15.89 4.24 24.7 0 8.81-1.38 17.09-4.12 24.82 -2.75 7.73-6.66 14.47-11.73 20.21 -5.08 5.73-11.23 10.32-18.47 13.72 -7.24 3.4-15.44 5.11-24.59 5.11 -8.49 0-16.27-1.75-23.34-5.24 -7.08-3.5-12.53-8.24-16.35-14.23h-.5v75.86H-.08V56.79h28.69Zm69.87 59.39c0-4.66-.71-9.28-2.13-13.86s-3.54-8.7-6.37-12.36c-2.84-3.66-6.41-6.61-10.74-8.86 -4.33-2.25-9.4-3.37-15.23-3.37 -5.5 0-10.41 1.16-14.73 3.49 -4.33 2.33-8.04 5.32-11.11 8.98 -3.09 3.66-5.41 7.82-6.99 12.48 -1.59 4.65-2.38 9.32-2.38 13.97s.78 9.27 2.37 13.84c1.58 4.57 3.9 8.69 6.98 12.35 3.07 3.65 6.77 6.61 11.1 8.85 4.32 2.24 9.23 3.36 14.72 3.36 5.82 0 10.89-1.17 15.22-3.5 4.32-2.34 7.9-5.33 10.73-8.99 2.82-3.66 4.94-7.82 6.36-12.48 1.41-4.66 2.12-9.32 2.12-13.98Zm291.89-65.12V183.9c0 7.15-.59 13.93-1.75 20.33 -1.17 6.4-3.37 11.97-6.62 16.72 -3.25 4.74-7.66 8.52-13.23 11.35 -5.58 2.83-12.86 4.24-21.84 4.24 -2.5 0-4.99-.17-7.49-.5 -2.5-.34-4.49-.67-5.99-1.01l2.49-25.46c1.33.33 2.74.58 4.24.75 1.49.16 2.82.24 3.99.24 3.49 0 6.31-.67 8.48-2 2.15-1.34 3.82-3.17 4.99-5.5 1.16-2.34 1.91-5.04 2.24-8.12 .33-3.08.49-6.37.49-9.86V51.09h29.94Zm-74.78 81.57l-.01 18.59 17.83-5.39 3.5 10.77 -17.77 6.05 11.02 15.63 -9.3 6.74 -11.61-15.36 -11.31 14.95 -9.03-6.88 11.02-15.1 -17.9-6.46 3.5-10.79 17.97 5.79v-18.6h12.02Zm176.84-43.92c-2.67-3.5-6.33-6.53-10.99-9.11 -4.66-2.58-9.74-3.88-15.23-3.88 -4.83 0-9.24 1-13.23 2.99 -4 1.99-5.99 5.32-5.99 9.98 0 4.65 2.2 7.94 6.6 9.85 4.4 1.91 10.85 3.87 19.34 5.86 4.48 1 9.02 2.33 13.59 3.99 4.57 1.66 8.73 3.86 12.48 6.61 3.73 2.74 6.77 6.15 9.1 10.23 2.32 4.07 3.49 9.02 3.49 14.84 0 7.32-1.38 13.52-4.12 18.59 -2.75 5.07-6.41 9.19-10.99 12.35s-9.9 5.44-15.98 6.86c-6.08 1.41-12.35 2.11-18.85 2.11 -9.33 0-18.39-1.71-27.21-5.12s-16.14-8.28-21.97-14.6l19.71-18.47c3.32 4.32 7.65 7.9 12.97 10.72 5.32 2.83 11.22 4.24 17.71 4.24 2.15 0 4.36-.25 6.61-.75 2.24-.5 4.32-1.29 6.23-2.37 1.91-1.09 3.44-2.54 4.61-4.37 1.16-1.84 1.74-4.08 1.74-6.75 0-5-2.29-8.57-6.86-10.73 -4.58-2.17-11.45-4.33-20.59-6.49 -4.5-1.01-8.87-2.29-13.11-3.88 -4.25-1.59-8.03-3.66-11.36-6.24 -3.34-2.58-5.99-5.78-7.99-9.62 -2-3.83-3-8.57-3-14.23 0-6.66 1.37-12.4 4.11-17.22 2.74-4.84 6.36-8.78 10.85-11.87 4.48-3.08 9.56-5.37 15.22-6.86 5.65-1.5 11.47-2.25 17.46-2.25 8.64 0 17.09 1.49 25.32 4.48s14.76 7.57 19.59 13.72L492.3 88.63Zm-238.45 6.11c-3.08-6.9-7.36-12.73-12.86-17.47 -5.49-4.75-11.94-8.37-19.34-10.86 -7.41-2.5-15.44-3.75-24.09-3.75 -3.17 0-6.7.17-10.61.49 -3.92.33-7.28.91-10.11 1.75l1.74-38.19h72.12V-.06H150.34l-3 96.57c2.65-1.33 5.69-2.58 9.1-3.75 3.4-1.17 6.9-2.21 10.48-3.12 3.57-.92 7.23-1.62 10.98-2.13 3.74-.5 7.27-.75 10.6-.75 4.82 0 9.56.53 14.22 1.61 4.65 1.08 8.85 2.99 12.6 5.73 3.74 2.74 6.77 6.36 9.1 10.85 2.32 4.48 3.49 10.14 3.49 16.97 0 5.32-.88 10.1-2.63 14.34 -1.75 4.23-4.12 7.77-7.11 10.6 -3 2.83-6.49 4.99-10.49 6.48 -4 1.5-8.24 2.24-12.73 2.24 -7.99 0-14.9-2.13-20.72-6.37 -5.83-4.25-9.99-9.86-12.48-16.85l-.34.12 -21.68 20.3c4.38 7.14 10.03 13.12 17.01 17.87 10.14 6.89 22.62 10.35 37.43 10.35 8.81 0 17.13-1.42 24.95-4.25 7.81-2.83 14.64-6.91 20.46-12.24 5.82-5.32 10.43-11.86 13.85-19.59 3.4-7.74 5.11-16.51 5.11-26.33 0-8.99-1.54-16.93-4.62-23.84Z"/></svg>