<svg viewBox="0 0 512 106" xmlns="http://www.w3.org/2000/svg"><path fill="#06AC38" d="M466.25 21.95l11.24 33.14c1.99 5.77 3.36 9.71 4.88 14.6v0h.21c1.94-5.68 2.99-9.04 5.09-14.92v0l11.55-32.78h12.76c-7.2 18.12-19.81 49.68-27.21 68.22 -3.58 8.98-12.24 14.81-21.85 14.81v0h-5.94V94.67h5.77c5.09 0 9.71-3.1 11.66-7.83 .57-1.42 1.1-2.79 1.62-4.1v0l-23.27-60.83h13.44ZM144.7 20.11c10.55 0 16.91 4.51 20.37 9.5 -.11-1.27-.11-2.58-.11-3.84v-3.84h11.6v49.16c0 22-10.09 33.93-30.47 33.93 -15.18 0-24.32-7.99-27.58-20.02h12.29c2.1 5.56 6.46 10.55 15.49 10.55 13.91 0 18.85-8.67 18.85-25.16l-.07-.02v0l-.09-.08c-.02-.01-.04-.02-.07-.02 -3 5.19-9.72 9.82-20.38 9.82 -17.13 0-28.05-12.4-28.05-29.79 0-18.07 11.81-30.26 28.15-30.26Zm69.69.15c19.8 0 28.94 15.07 28.94 31.4v3.83l-47.59-.01 .01.29c.6 10.49 7.41 18.76 19.1 18.76 8.35 0 12.39-3.94 15.49-9.14h11.71c-3.47 10.97-13.08 18.85-27.68 18.85 -18.76 0-30.47-12.61-30.47-31.62 0-19.02 12.18-32.41 30.46-32.41Zm156.94 1.73v33.45c0 11.92 3.93 19.11 13.44 19.11 12.5 0 14.7-11.35 14.7-24.69v-27.9h11.71v51.63c0 3.15 0 6.14.1 9.13h-11.25v-8.67c-3.16 5.19-9.04 10.18-19.33 10.18 -14.13 0-21.07-8.67-21.07-24.43V21.93h11.66ZM437.5 5.55v16.43h11.34v9.03h-11.35v36.5c0 5.77 2.88 7.51 7.4 7.51 .78 0 2.2-.11 2.88-.22v8.66c-1.74.21-3 .47-4.52.47 -10.77 0-17.6-3.58-17.6-15.76V30.98h-9.14v-9.04h9.13V5.5h11.81ZM84.38 20.41c13.97 0 24.73 5.77 24.73 28.04v11.81c0 9.82.47 17.01 1.52 22.58H99.6v-.06c-.37-2.42-.37-3.94-.58-8.36 -4.63 6.61-10.77 9.5-20.49 9.5 -12.77 0-22.01-6.26-22.01-17.6 0-13.08 12.5-17.39 28.73-19.6 4.04-.58 8.56-1.06 12.5-1.37 0-12.03-6.68-15.66-13.66-15.66C77.1 29.69 72 34.57 72 40.98H60.65c0-12.35 9.71-20.65 23.68-20.65Zm192.39.1c1.52 0 2.2.1 2.99.21v10.66c-1.06-.22-2.79-.37-4.05-.37 -10.98 0-13.08 8.08-13.08 20.27v31.51h-11.72v-49.9c0-3.84 0-7.2-.11-10.88h11.24v7.72c1.94-5.68 7.87-9.25 14.7-9.25ZM307.18-.03c30.35.21 44.96 15.02 45.06 41.59 .1 22.63-11.61 40.91-43.07 41.23h-22.22V-.04h20.22ZM12.1 60.68v22.05H-.04V60.67h12.13Zm85.87-6.94c-19.81 2.04-28.84 3.99-28.84 12.44 0 5.67 4.62 9.24 12.02 9.24 10.87 0 16.7-6.62 16.7-18.44 0-1.53 0-2.58.1-3.26Zm209.46-43.39c-3.86 0-7.86.09-8.22.1l-.03 0v0 61.97h7.09c22 0 33.51-8.41 33.51-30.94 -.06-19.81-11.46-31.15-32.36-31.15Zm-160.2 19.59c-11.14 0-17.97 7.98-17.97 20.27 0 11.81 6.61 20.27 17.96 20.27 10.18 0 18.06-7.2 18.06-20.65 0-11.93-6.94-19.91-18.07-19.91Zm-122.7-30c10.25.02 14.72.64 21.11 4.04 7.03 3.83 11.39 11.34 11.39 20.74 0 8.66-3.52 16.17-10.35 20.69 -6.26 4.14-13.35 4.72-22.85 4.72v0H-.07V-.09Zm189.55 29.78c-9.51 0-16.81 6.25-17.97 16.43h34.98c-1.06-9.62-7.1-16.44-17.02-16.44ZM44.53 24.83c-.001-9.98-6.26-14.4-18.76-14.24v0l-13.71.1v28.94H26.6c10.18 0 17.91-4.1 17.91-14.82Z"/></svg>