<svg viewBox="0 0 256 203" xmlns="http://www.w3.org/2000/svg"><path fill="#090B08" d="M256 39.78c0-20.41-14.7-37.01-35.11-37.01 -12.06 0-20.82 4.19-26.34 11.08 -1.04.78-1.94 1.69-2.84 2.6C173.89 6.06 152.12.05 128.1-.02c-24.94.068-47 5.888-64.8 16.15C57.63 7.81 47.75 2.75 34.37 2.75 13.96 2.74-.03 19.354-.03 39.75c0 15.64 7.68 28.08 19.476 33.704 -1.82 7.38-2.87 15.13-2.87 23.29 0 59.07 48.976 105.96 111.49 105.96h.05c60.43 0 111.49-48.816 111.49-105.92 0-8.34-1.23-16.32-3.33-23.94 11.62-5.9 19.65-18.04 19.65-33.108"/><path fill="#FFF" d="M226.806 97.41c0 49.378-45.422 91.5-98.875 91.5 -53.46 0-98.89-40.04-98.89-89.42 0-49.385 45.429-89.411 98.88-89.411 53.453 0 98.875 37.93 98.875 87.31"/><path fill="#090B08" d="M107.819 78.44c-2.27 17.23-13.732 29.93-25.6 28.36 -11.863-1.57-19.65-16.81-17.38-34.035 2.27-17.24 13.73-29.94 25.6-28.37 11.863 1.55 19.643 16.796 17.36 34.03"/><path fill="#FFF" d="M98.38 62.067c0 5.13-4.17 9.3-9.31 9.3 -5.14 0-9.31-4.17-9.31-9.31 0-5.14 4.16-9.31 9.3-9.31 5.13 0 9.3 4.16 9.3 9.3"/><path fill="#090B08" d="M147.91 78.44c2.27 17.23 13.73 29.93 25.59 28.36 11.869-1.57 19.643-16.81 17.37-34.035 -2.28-17.24-13.74-29.94-25.595-28.37 -11.87 1.55-19.65 16.796-17.37 34.03"/><path fill="#FFF" d="M157.35 62.067c0 5.13 4.16 9.3 9.3 9.3 5.13 0 9.3-4.17 9.3-9.31 0-5.14-4.17-9.31-9.3-9.31 -5.15 0-9.31 4.16-9.31 9.3"/><path fill="#090B08" d="M134.853 138.44v-10.21c0-.56-.06-1.08-.17-1.56 7.57-1.46 13.07-5.53 13.07-10.38 0-4.76-1.06-8.81-8.41-10.35 -2.04-.43-8.42-.66-10.7-.66 -2.19 0-8.48.21-10.43.6 -7.5 1.48-8.68 5.58-8.68 10.39 0 6 8.38 10.87 18.78 10.97 -.04.31-.1.62-.1.96v10.68c-15.29-.19-29.52-10.613-29.52-3.65 0 7.03 15.13 13.69 30.58 13.69 15.44 0 27.95-5.7 27.95-12.74 0-6.07-9.82.33-22.43 2.21"/><path fill="#E7EBE0" d="M136.94 114.206c0 1.96-4.87 3.56-8.29 3.56 -3.43 0-8.29-1.6-8.29-3.56 0-1.57 2.47-2.9 4.9-3.375 .63-.13 2.67-.2 3.38-.2 .74 0 2.8.08 3.46.21 2.37.49 4.81 1.8 4.81 3.35"/><path fill="#E1DEDC" d="M127.93 10.09c-53.46 0-98.89 40.026-98.89 89.411 0 49.37 45.429 89.41 98.88 89.41 -2.14 0-4.26-.09-6.36-.22 2.78-.18 5.54-.46 8.26-.85 -46.756-6.58-84.047-43.62-84.047-88.36 0-44.86 37.49-81.98 84.43-88.4 -2.81-.38-5.65-.65-8.52-.82 2.06-.12 4.128-.2 6.2-.2"/><path fill="#F1EFEE" d="M127.93 10.09c2.86 0 5.69.13 8.5.34 -2.09.16-4.16.38-6.21.66 46.74 6.26 84 41.578 84 86.3 0 44.84-37.48 83.69-84.4 90.44 2.09.29 4.2.52 6.33.69 -2.73.22-5.48.36-8.25.36 53.453 0 98.875-42.13 98.875-91.51 0-49.39-45.422-87.32-98.875-87.32"/><path fill="#D3D0CD" d="M129.846 187.85c-2.73.39-5.49.67-8.27.84 2.1.12 4.22.21 6.35.21 2.77 0 5.52-.14 8.24-.37 -2.13-.18-4.24-.41-6.34-.7M127.9 10.06v0c-2.09 0-4.15.08-6.21.19 2.86.16 5.7.43 8.51.81 2.04-.29 4.12-.51 6.2-.67 -2.82-.22-5.65-.35-8.51-.35"/><g fill="#FFF"><path d="M229.008 54.533c4.09-3.62 6.72-8.84 6.72-14.73 0-10.89-8.83-19.716-19.72-19.716 -4.74 0-9.04 1.74-12.44 4.52 10.63 8.31 19.26 18.42 25.42 29.912"/><path d="M26.04 55.36c5.817-11.823 14.19-22.11 24.68-30.52 -3.439-2.92-7.84-4.75-12.7-4.75 -10.89 0-19.716 8.831-19.716 19.716 0 6.35 3.05 11.94 7.727 15.552"/></g></svg>