<svg viewBox="0 0 256 268" xmlns="http://www.w3.org/2000/svg"><path fill="#FF37AD" d="M22.49 68.97c4.27.06 8.25-2.18 10.4-5.87 2.15-3.7 2.15-8.26 0-11.95 -2.16-3.7-6.14-5.94-10.41-5.87 -6.48.09-11.67 5.37-11.67 11.84s5.19 11.74 11.66 11.84v0Zm181.39-10.05c4.27.06 8.25-2.18 10.4-5.88 2.15-3.7 2.15-8.26-.01-11.95 -2.16-3.7-6.14-5.94-10.41-5.87 -6.48.09-11.67 5.37-11.67 11.84s5.19 11.74 11.66 11.84v0Z"/><path fill="#FCC954" d="M213.5 211.09c4.27.06 8.25-2.18 10.4-5.88 2.15-3.7 2.15-8.26-.01-11.95 -2.16-3.7-6.14-5.94-10.41-5.87 -6.48.09-11.67 5.37-11.67 11.84s5.19 11.74 11.66 11.84v0ZM70.86 23.68c4.27.06 8.25-2.18 10.4-5.87 2.15-3.7 2.15-8.26 0-11.95 -2.16-3.7-6.14-5.94-10.41-5.87 -6.48.09-11.67 5.37-11.67 11.84s5.19 11.74 11.66 11.84Z"/><path fill="#2890E9" d="M140.94 105.93c-2.85 0-5.54-1.32-7.29-3.56 -1.76-2.25-2.38-5.17-1.69-7.94 .36-1.49.67-2.98.89-4.46 -2.78 1.14-5.74 1.78-8.74 1.9 -5.38.2-10.2-.71-14.3-2.69 -4.03-1.93-7.38-5.03-9.62-8.88 -4.42-7.66-4.04-17.72.96-25.65 4.76-7.57 12.83-11.67 21.58-11 6.73.52 12.64 3.05 17.37 7.38 .86-2.44 1.68-5.04 2.47-7.81 4.83-17.06 6.42-34.19 6.44-34.37 .22-2.45 1.4-4.7 3.28-6.27 1.88-1.57 4.31-2.33 6.75-2.11 5.08.46 8.83 4.95 8.37 10.04 -.07.76-1.77 19.02-7.07 37.73 -2.68 9.44-5.84 17.42-9.43 23.79 .26 1.42.47 2.87.63 4.37 .74 7.21.15 14.97-1.72 22.44 -1.04 4.1-4.73 6.99-8.97 6.99v0ZM120.81 62.1c-.96 0-2.65.28-4 2.43 -1.3 2.06-1.56 4.87-.59 6.54 1.28 2.22 5.05 2.41 7.19 2.33 2.42-.1 4.9-1.62 7.33-4.39 -.41-.85-.89-1.66-1.44-2.43 -2.01-2.79-4.55-4.22-8-4.49 -.13-.01-.31-.03-.52-.03v0Z"/><path fill="#F0A420" d="M114.36 131.26c-38.35-30.23-78.42-43.32-89.52-29.25 -1.05 1.33-1.82 2.87-2.26 4.5 -.07.19-.13.4-.16.61v.02c-.15.63-.26 1.26-.34 1.91L.37 236.14c-3.48 20.41 16.72 36.75 35.96 29.09l117.72-46.91c2.07-.83 7.18-3.99 8.58-5.73 .36-.37.71-.75 1.03-1.16 11.09-14.08-11-49.99-49.35-80.23v0Z"/><path fill="#FCC954" d="M163.68 211.49c11.09-14.09-10.99-50-49.33-80.23C76 101.03 35.92 87.94 24.82 102.02c-11.1 14.08 10.98 49.99 49.32 80.22 38.34 30.22 78.42 43.31 89.52 29.23v0Z"/><path fill="#F0A420" d="M156.99 203.29c9.1-11.56-10.96-42.57-44.82-69.26 -33.87-26.7-68.7-38.97-77.81-27.42 -9.11 11.55 10.95 42.56 44.81 69.25 33.86 26.69 68.69 38.96 77.8 27.41v0Z"/><path fill="#2E6AC9" d="M76.05 249.45c-14.33.07-26.01-7.11-40.16-18.26C19.41 218.2 8.48 202.65 7.61 193.8l-4.67 27.32c2.16 7.79 9.52 17.68 20.2 26.1 8.88 7 17.84 11.81 27.13 12.47l25.76-10.27v0Zm-14.34-49.6c-27.45-21.64-45.28-46.47-44.77-60.67l-4.55 26.63c.35 12.68 15.17 33.18 36.26 49.8 18.89 14.89 38.58 25.38 53.66 23.36l25.59-10.21c-20.63 1.42-42.38-10.15-66.2-28.94Z"/><path fill="#2890E9" d="M118.53 145.05c4.27.06 8.25-2.18 10.4-5.87 2.15-3.7 2.15-8.26 0-11.95 -2.16-3.7-6.14-5.94-10.41-5.87 -6.48.09-11.67 5.37-11.67 11.84s5.19 11.74 11.66 11.84Z"/><g fill="#FF37AD"><path d="M182.41 122l.08-.1c.1-.12.3-.33.59-.63 .58-.59 1.52-1.48 2.79-2.56 3.55-2.98 7.44-5.54 11.59-7.64 10.12-5.13 25.2-9.31 44.98-4.75 5.94 1.37 11.87-2.34 13.24-8.28 1.37-5.95-2.34-11.88-8.28-13.25 -25.61-5.91-45.96-.51-59.93 6.56 -5.68 2.86-11 6.36-15.86 10.44 -1.47 1.22-2.87 2.51-4.22 3.86 -.53.52-1.04 1.06-1.54 1.61l-.12.13 -.05.04 -.02.02 -.01 0c-.01 0-.01.01 8.36 7.2l-8.38-7.2c-3.88 4.62-3.33 11.49 1.23 15.44 4.56 3.94 11.44 3.5 15.46-1v0Z"/><path d="M73.02 43.24c-1.67-2.65-4.31-4.52-7.36-5.21 -3.05-.69-6.24-.14-8.88 1.53 -2.64 1.66-4.51 4.31-5.2 7.35 -.69 3.04-.14 6.23 1.53 8.87 .42.68 9.17 14.86 10.97 34.27 1.83 19.72-3.97 37.85-17.26 54.11 4.47 5.68 9.85 11.59 16 17.5 8.51-9.84 14.91-20.41 19.11-31.59 5.17-13.76 7-28.35 5.44-43.35 -2.49-23.88-12.88-41.12-14.41-43.54v0Z"/></g><path fill="#2890E9" d="M220.24 156.57c6 1.55 10.24 3.24 12.07 4.03 4.39 2.69 10.03 2.24 13.94-1.13 2.55-2.21 4.04-5.4 4.1-8.77 .08-5.16-3.18-9.78-8.06-11.43 -5.62-2.5-26.91-10.92-55.05-9.43 -18.95 1-37.16 6.25-54.14 15.6 -16.08 8.85-31.01 21.41-44.56 37.42 6.46 4.6 13.2 8.81 20.16 12.6 22.88-26.08 49.28-40.22 78.7-42.09 11.03-.67 22.09.39 32.79 3.14v0Z"/></svg>