<svg viewBox="0 0 256 233" xmlns="http://www.w3.org/2000/svg"><path fill="#D40000" d="M137.9-.001l.39 0 1.08.05c5.41.37 10.58 2.44 14.79 6l.82.73 .78.75 93.12 93.55c9.32 9.36 9.41 24 .37 33.64l-.64.64 -.65.62 -96.55 89.48c-9.77 9.05-24.82 9.32-34.68.76l-.68-.62 -.66-.64 -53.95-54.17c-.74-.74-.62-1.96.24-2.54 11.38-7.65 19.67-19.07 23.26-32.17l.34-1.32 .32-1.39c.15-.66.68-1.14 1.32-1.25l.28-.03h40.24c.81 0 1.48.58 1.62 1.35l.02.29v15.62c0 4.74 3.54 8.66 8.13 9.2l.55.04 .57.01h19.8c4.74 0 8.66-3.55 9.2-8.14l.04-.56 .01-.58v-15.63c0-.82.58-1.49 1.35-1.63l.29-.03h7.06c4.83 0 8.78-3.58 9.31-8.25l.04-.57 .01-.57v-10.28c0-4.86-3.6-8.88-8.25-9.42l-.57-.05 -.57-.02h-91.1c-.7 0-1.31-.44-1.55-1.08 -4.76-12.9-14.17-23.69-26.38-30.37l-1.23-.66 -1.24-.63c-.94-.47-1.19-1.66-.59-2.46l.2-.23 65.4-60.59c4.39-4.08 9.95-6.51 15.76-6.97l1.1-.08 .85-.04 .38-.01ZM28.64 93.48c15.81 0 28.64 12.57 28.64 28.11 0 15.53-12.84 28.11-28.65 28.11 -15.82 0-28.65-12.58-28.65-28.12 0-15.54 12.83-28.12 28.64-28.12Z"/></svg>