<svg viewBox="0 0 256 302" xmlns="http://www.w3.org/2000/svg"><g fill="#27346A"><path d="M217.16 23.5C203.22 7.61 178.03.8 145.81.8H52.28c-6.6 0-12.2 4.79-13.23 11.29L.11 259.05c-.78 4.86 2.99 9.28 7.93 9.28h57.73l14.5-91.98 -.45 2.88c1.03-6.51 6.59-11.3 13.17-11.3h27.43c53.89 0 96.1-21.9 108.42-85.23 .36-1.88.68-3.7.95-5.48 -1.56-.83-1.56-.83 0 0 3.67-23.41-.03-39.34-12.69-53.77"/><path d="M102.39 68.83c1.53-.74 3.25-1.15 5.05-1.15h73.31c8.68 0 16.78.56 24.18 1.75 2.12.34 4.17.73 6.17 1.18 1.99.44 3.93.94 5.81 1.48 .94.27 1.86.55 2.77.85 3.63 1.21 7.02 2.63 10.13 4.28 3.67-23.42-.03-39.34-12.69-53.77C203.17 7.56 177.99.75 145.77.75H52.24c-6.59 0-12.19 4.79-13.22 11.29L.08 258.99c-.78 4.87 2.99 9.28 7.92 9.28h57.74L95.82 77.5c.61-3.92 3.12-7.12 6.5-8.75Z"/></g><path fill="#2790C3" d="M228.89 82.74c-12.33 63.32-54.54 85.22-108.43 85.22H93.01c-6.59 0-12.15 4.79-13.17 11.29L61.8 293.6c-.68 4.26 2.62 8.12 6.93 8.12h48.67c5.76 0 10.66-4.2 11.56-9.89l.47-2.49 9.17-58.14 .59-3.22c.89-5.69 5.8-9.89 11.56-9.89h7.28c47.14 0 84.06-19.16 94.85-74.55 4.5-23.15 2.17-42.48-9.74-56.06 -3.62-4.12-8.1-7.51-13.33-10.29 -.29 1.78-.6 3.6-.96 5.47v0Z"/><path fill="#1F264F" d="M216.95 72.12c-1.89-.55-3.83-1.05-5.82-1.49 -2-.45-4.07-.84-6.18-1.18 -7.41-1.2-15.5-1.77-24.19-1.77h-73.31c-1.81 0-3.53.4-5.06 1.14 -3.39 1.62-5.9 4.81-6.51 8.74l-15.59 98.79 -.45 2.88c1.02-6.51 6.58-11.3 13.16-11.3h27.44c53.89 0 96.1-21.9 108.42-85.23 .36-1.88.67-3.69.95-5.48 -3.13-1.65-6.51-3.08-10.14-4.28 -.91-.3-1.84-.6-2.78-.87"/></svg>