<svg viewBox="0 0 256 245" xmlns="http://www.w3.org/2000/svg"><defs><linearGradient id="a" x1="35.537%" x2="53.876%" y1="63.2%" y2="45.611%"><stop offset="19.81%" stop-color="#914F00"/><stop offset="33.48%" stop-color="#9F5600"/><stop offset="60.93%" stop-color="#B76200"/><stop offset="84.08%" stop-color="#C66900"/><stop offset="100%" stop-color="#CB6C00"/></linearGradient><linearGradient id="b" x1="22.231%" x2="97.843%" y1="75.36%" y2="-2.213%"><stop offset="0%" stop-color="#FBBA00"/><stop offset="6.47122%" stop-color="#FDC000"/><stop offset="30.61%" stop-color="#FFD500"/><stop offset="54.52%" stop-color="#FFE300"/><stop offset="77.87%" stop-color="#FFEB00"/><stop offset="100%" stop-color="#FFED00"/></linearGradient></defs><path fill="#D18F00" d="M53.92 76.25c10.02 26.47 25.16 50.65 44.55 71.24 19.39 20.58 42.59 37.14 68.41 48.8L255.22-.02 53.9 76.23v0Z"/><path fill="#E94F35" d="M77.23 191.4s0-.11 0 0c0-.11 0-.11 0 0 -11.99-11.99-12.53-12.53-24.41-24.41v0h-.11C25.47 157.51-.02 186.92-.02 244.11c57.95.65 86.6-25.5 77.23-52.73v0Z"/><path fill="#F39200" d="M72.98 187.15v0c0-.11 0-.11 0 0 -7.74-7.85-8.18-8.18-15.91-15.91v0 0c-17.76-6.11-34.32 12.96-34.32 50.21 37.69.43 56.32-16.67 50.21-34.32v0Z"/><path fill="#4B5B5C" d="M95.31 222.12l-72.34-72.34 27.01-11.55 56.86 56.86Z"/><path fill="#3A4949" d="M106.86 195.1l-56.87-56.87 -9.7 4.13c8.27 11.98 17.42 23.31 27.45 33.87 10.56 11.22 21.89 21.46 33.98 30.82l5.12-11.99v0Z"/><path fill="url(#a)" d="M98.47 147.49c-19.4-20.59-34.54-44.78-44.56-71.25l-35.3 13.39c11.76 31.04 29.52 59.47 52.28 83.77 22.76 24.29 50.11 43.68 80.39 57.3l15.46-34.43c-25.71-11.66-49.03-28.22-68.31-48.81v0Z"/><path fill="url(#b)" d="M56.97 75.05c9.91 26.03 24.72 49.89 43.79 70.15 19.06 20.26 41.94 36.6 67.32 48.04L255.22-.02 56.95 75.03v0Z"/><g fill="#AA2322"><path d="M160.68 35.84c.76 11.76 10.56 21.13 22.54 21.13 12.52 0 22.65-10.14 22.65-22.66 0-5.23-1.75-10.03-4.8-13.84l-40.42 15.36v0Z"/><path d="M222.77 57.4c-8.18 0-14.93 6.64-14.93 14.92 0 5.99 3.59 11.22 8.71 13.5l12.2-27.13c-1.86-.88-3.93-1.31-6-1.31v0Z"/></g><g fill="#441A0D"><path d="M180.61 44.33a3.15 3.15 0 1 0 0 6.31 3.15 3.15 0 1 0 0-6.32Z"/><path d="M180.61 30.61a3.15 3.15 0 1 0 0 6.31 3.15 3.15 0 1 0 0-6.32Z"/></g><g fill="#D89687"><path d="M193.25 30.61a3.15 3.15 0 1 0 0 6.31 3.15 3.15 0 1 0 0-6.32Z"/><path d="M194.01 41.83a3.15 3.15 0 1 0 0 6.31 3.15 3.15 0 1 0 0-6.32Z"/><path d="M169.5 35.84a3.15 3.15 0 1 0 0 6.31 3.15 3.15 0 1 0 0-6.32Z"/></g><g fill="#441A0D"><path d="M213.73 64.38a2.06 2.06 0 1 0 0 4.13 2.06 2.06 0 1 0 0-4.14Z"/><path d="M220.37 69.06a2.06 2.06 0 1 0 0 4.13 2.06 2.06 0 1 0 0-4.14Z"/></g><g fill="#D89687"><path d="M221.35 61a2.06 2.06 0 1 0 0 4.13 2.06 2.06 0 1 0 0-4.14Z"/><path d="M213.73 73.31a2.06 2.06 0 1 0 0 4.13 2.06 2.06 0 1 0 0-4.14Z"/></g><path fill="#AA2322" d="M169.44 71a22.65 22.54 0 1 0 0 45.09 22.65 22.54 0 1 0 0-45.1Z" transform="rotate(-71.8676 169.441 93.557)"/><g fill="#441A0D"><path d="M156.33 95.79a3.15 3.15 0 1 0 0 6.31 3.15 3.15 0 1 0 0-6.32Z" transform="rotate(-71.8676 156.332 98.9497)"/><path d="M182.71 92.05a3.15 3.15 0 1 0 0 6.31 3.15 3.15 0 1 0 0-6.32Z" transform="rotate(-71.8676 182.718 95.216)"/><path d="M165.38 74.71a3.15 3.15 0 1 0 0 6.31 3.15 3.15 0 1 0 0-6.32Z" transform="rotate(-71.8676 165.383 77.8717)"/><path d="M169.68 87.82a3.15 3.15 0 1 0 0 6.31 3.15 3.15 0 1 0 0-6.32Z" transform="rotate(-71.8676 169.687 90.9844)"/></g><g fill="#D89687"><path d="M165.76 99.79a3.15 3.15 0 1 0 0 6.31 3.15 3.15 0 1 0 0-6.32Z" transform="rotate(-71.8676 165.762 102.959)"/><path d="M156.69 84.08a3.15 3.15 0 1 0 0 6.31 3.15 3.15 0 1 0 0-6.32Z" transform="rotate(-71.8676 156.699 87.2469)"/><path d="M176.13 104.1a3.15 3.15 0 1 0 0 6.31 3.15 3.15 0 1 0 0-6.32Z" transform="rotate(-71.8676 176.131 107.261)"/><path d="M178.13 78.93a3.15 3.15 0 1 0 0 6.31 3.15 3.15 0 1 0 0-6.32Z" transform="rotate(-71.8676 178.138 82.0947)"/></g><path fill="#AA2322" d="M106.19 63.54a22.65 22.65 0 1 0 0 45.31 22.65 22.65 0 1 0 0-45.32Z" transform="rotate(-64.1063 106.19 86.202)"/><g fill="#441A0D"><path d="M119.33 77.32a3.15 3.15 0 1 0 0 6.31 3.15 3.15 0 1 0 0-6.32Z" transform="rotate(-64.1063 119.335 80.4823)"/><path d="M98.03 93.84a3.15 3.15 0 1 0 0 6.31 3.15 3.15 0 1 0 0-6.32Z" transform="rotate(-64.1063 98.039 97.0072)"/><path d="M97.74 69.2a3.15 3.15 0 1 0 0 6.31 3.15 3.15 0 1 0 0-6.32Z" transform="rotate(-64.1063 97.7447 72.3688)"/><path d="M104.13 81.31a3.15 3.15 0 1 0 0 6.31 3.15 3.15 0 1 0 0-6.32Z" transform="rotate(-64.1063 104.138 84.4704)"/></g><g fill="#D89687"><path d="M115.5 86.9a3.15 3.15 0 1 0 0 6.31 3.15 3.15 0 1 0 0-6.32Z" transform="rotate(-64.1063 115.506 90.067)"/><path d="M110.44 69.5a3.15 3.15 0 1 0 0 6.31 3.15 3.15 0 1 0 0-6.32Z" transform="rotate(-64.1063 110.443 72.6639)"/><path d="M111.17 97.3a3.15 3.15 0 1 0 0 6.31 3.15 3.15 0 1 0 0-6.32Z" transform="rotate(-64.1063 111.174 100.461)"/><path d="M91.83 81.28a3.15 3.15 0 1 0 0 6.31 3.15 3.15 0 1 0 0-6.32Z" transform="rotate(-64.1063 91.8369 84.4481)"/></g><path fill="#AA2322" d="M122.77 120.7a15.25 15.25 0 1 0 0 30.5 15.25 15.25 0 1 0 0-30.51Z" transform="rotate(-8.52226 122.776 135.957)"/><g fill="#441A0D"><path d="M127.78 125.6a2.17 2.17 0 1 0 0 4.35 2.17 2.17 0 1 0 0-4.36Z" transform="rotate(-8.52226 127.786 127.787)"/><path d="M122.33 142.81a2.17 2.17 0 1 0 0 4.35 2.17 2.17 0 1 0 0-4.36Z" transform="rotate(-8.52226 122.34 144.998)"/><path d="M112.75 129.31a2.17 2.17 0 1 0 0 4.35 2.17 2.17 0 1 0 0-4.36Z" transform="rotate(-8.52226 112.754 131.492)"/><path d="M120.92 133.66a2.17 2.17 0 1 0 0 4.35 2.17 2.17 0 1 0 0-4.36Z" transform="rotate(-8.52226 120.923 135.849)"/></g><g fill="#D89687"><path d="M129.31 132.36a2.17 2.17 0 1 0 0 4.35 2.17 2.17 0 1 0 0-4.36Z" transform="rotate(-8.52226 129.31 134.54)"/><path d="M119.94 124.62a2.17 2.17 0 1 0 0 4.35 2.17 2.17 0 1 0 0-4.36Z" transform="rotate(-8.52226 119.943 126.807)"/><path d="M131.05 139.76a2.17 2.17 0 1 0 0 4.35 2.17 2.17 0 1 0 0-4.36Z" transform="rotate(-8.52226 131.056 141.948)"/><path d="M114.06 138.24a2.17 2.17 0 1 0 0 4.35 2.17 2.17 0 1 0 0-4.36Z" transform="rotate(-8.52226 114.06 140.423)"/></g><g transform="translate(153.6 132.902)"><path fill="#AA2322" d="M35.73 3.92C25.16-2.84 11.21.32 4.57 10.89 -2.19 21.45.97 35.4 11.54 42.04c3.05 1.96 6.42 3.05 9.91 3.37L39.09 6.3c-1.2-.88-2.29-1.75-3.38-2.4v0Z"/><g fill="#441A0D"><path d="M9.37 21.82a3.15 3.15 0 1 0 0 6.31 3.15 3.15 0 1 0 0-6.32Z" transform="rotate(-57.513 9.37462 24.9884)"/><path d="M23.38 3.48a3.15 3.15 0 1 0 0 6.31 3.15 3.15 0 1 0 0-6.32Z" transform="rotate(-57.513 23.3869 6.6455)"/><path d="M24.46 17.22a3.15 3.15 0 1 0 0 6.31 3.15 3.15 0 1 0 0-6.32Z" transform="rotate(-57.513 24.4654 20.3887)"/></g><g fill="#D89687"><path d="M17.59 27.88a3.15 3.15 0 1 0 0 6.31 3.15 3.15 0 1 0 0-6.32Z" transform="rotate(-57.513 17.5945 31.0462)"/><path d="M12.77 10.52a3.15 3.15 0 1 0 0 6.31 3.15 3.15 0 1 0 0-6.32Z" transform="rotate(-57.513 12.7702 13.6823)"/><path d="M23.96 36.05c-.66 1.08-.66 2.39 0 3.37l2.17-4.8c-.88.1-1.64.65-2.18 1.41v0Z"/><path d="M36.49 11.22c-1.53-.99-3.49-.55-4.36.98 -.99 1.52-.55 3.48.98 4.35 .32.21.65.32.98.43l2.39-5.78c.1.1.1 0 0 0v0Z"/></g></g><path fill="#441A0D" d="M192.38 26.68c1.74 0 3.15-1.42 3.15-3.16 0-.33 0-.55-.11-.88l-5.89 2.28c.54.98 1.63 1.74 2.83 1.74v0Z"/></svg>