<svg viewBox="0 0 256 250" xmlns="http://www.w3.org/2000/svg"><defs><linearGradient id="a" x1="50%" x2="50%" y1="0%" y2="100%"><stop offset="0%" stop-color="#FBB32F"/><stop offset="50.4739%" stop-color="#C11511"/><stop offset="100%" stop-color="#C11411"/></linearGradient></defs><path fill="url(#a)" d="M128 .57C57.3.57 0 56.4 0 125.28c0 43.08 22.427 81.06 56.526 103.47V125.34c-.01-.16-.03-.31-.03-.47 0-.16.02-.31.02-.47v-.88h.04c.7-40.146 32.33-72.481 71.323-72.481 39.42-.001 71.388 33.053 71.388 73.826 0 40.77-31.97 73.825-71.388 73.825 -15.36 0-29.55-5.07-41.187-13.6v58.2c12.96 4.3 26.84 6.67 41.295 6.67 70.69 0 128-55.84 128-124.72 0-68.876-57.31-124.711-128-124.711"/><path fill="#FCB42F" d="M171.19 127.47c0 23.59-19.13 42.71-42.72 42.71s-42.714-19.13-42.714-42.72 19.12-42.72 42.714-42.72c23.59 0 42.71 19.12 42.71 42.71"/></svg>