<svg viewBox="0 0 512 142" xmlns="http://www.w3.org/2000/svg"><path fill="#5C007B" d="M97.36 0c14.57 6.48 27.49 16.47 28 16.87l.01.01c-2.06-8.14-3.55-12.5-3.55-12.5 4.57 2.49 10.04 5.69 15.43 9.04l1.19.74c8.54 5.36 16.67 10.97 20.44 14.5 3.65-.18 6.58-1.1 8.46-1.88 3.19-1.34 5.88 1.95 6.9 5.29 1.01 3.32 2.22 8.46 2.28 14.04 .06 6.21-1.32 11.58-4.1 15.95 -5.27 8.28-15.51 13.89-26.55 19.65l-1.24.64 -.62.32c-12.26 6.36-22.47 12.83-30.46 24.72 -4.13 6.14-7.36 12.98-9.49 20.09 -2.28 7.56-4.08 13.7-9.2 13.7 -4.64 0-7.4-5.97-9.49-9.34 -4.02-6.49-9.02-14.55-17.12-15.23 -7.19-1.07-13.09 1.59-17.36 5.11 -2.11 1.73-3.86 3.71-5.2 5.6 -1.2 1.43-2.33 2.9-3.43 4.33 -3.36 4.37-6.26 8.14-10.08 9.24 -.63.17-1.25.27-1.84.27 -.42 0-.9-.05-1.4-.19l-.26-.08 -.01.01c-12.07-3.54-12.69-25.6-12.69-25.6 -5.8 1.38-11.79 5.19-11.79 5.19 5.4-18.5 15.75-30.59 15.75-30.59 -2.26-.18-4.81-.14-7.3.02l-.72.04c-6.28.45-12.07 1.55-12.07 1.55 16.11-20.74 26.98-28.34 26.98-28.34 -8.54-3.73-19.45-5.64-19.45-5.64C27 46.19 46.48 40.64 46.48 40.64c-4.25-4.01-19.52-9.4-19.52-9.4 2.98-.86 6.46-1.65 10.09-2.36l.99-.2c.66-.13 1.32-.25 1.99-.37l1-.18c.54-.1 1.08-.19 1.63-.29l.81-.14c.13-.03.27-.05.4-.07l.8-.14c10.37-1.68 19.79-2.64 19.79-2.64 -5.08-4.28-16.57-8.94-16.57-8.94 6.46-.23 12.25-.31 17.12-.31l1.34 0c9.55.01 15.27.3 15.27.3 -3.57-4.91-12.77-11.32-12.77-11.32 19.14 1.8 32.79 6.55 32.79 6.55 -.15-1.17-.97-3.35-1.87-5.49l-.24-.56C98.34 2.3 97.09-.26 97.09-.26ZM66.54 120.59c-.57 1.52-1.21 3.16-1.89 4.81 -.1.23-.2.46-.29.69l-.3.69c-2.5 5.87-5.42 11.54-8.56 12.04 -.21.03-.41.04-.61.04 -2.49 0-4.72-2.3-6.81-7.02 3.66-5.18 10.94-11.2 18.43-11.28Zm58.14-18.48c-2.06 7.69-2.33 15.42-2.55 21.63l-.01 0c-.15 4.01-.27 7.48-.84 10 -.77 3.37-2.45 5.09-5 5.09l-.09-.01c-2.47-.04-5.08-2.15-7.95-6.43 1.68-9.68 8.37-22.04 16.41-30.32Zm114.2-75.55c8.19-.001 16.2 3.6 21.57 9.43 5.36 5.82 8.68 13.86 8.68 22.74 0 8.87-3.32 16.91-8.69 22.73 -5.38 5.82-13.39 9.43-21.58 9.43 -6.01 0-12.3-1.86-16.69-6.01l.01 19.73c.01 16.59-12.95 14.07-15.95 13.91 -1.03-.06-1.82-.28-2.38-.83 -.56-.55-.84-1.33-.84-2.34l-.05-85.55c0-1.03.28-1.85.85-2.41 .56-.57 1.38-.85 2.43-.85h11.26c1.05 0 1.86.28 2.43.84 .57.56.84 1.36.85 2.4l.04 3.26c2.52-2.09 5.33-3.71 8.29-4.82 3.08-1.16 6.35-1.76 9.66-1.76Zm222.42-.09c.85 0 1.58.23 2.13.66 .55.43.96 1.09 1.31 1.9l16.09 37.64 11.54-37.54c.24-.9.68-1.52 1.27-1.97 .57-.45 1.31-.71 2.17-.71h13.31c1.13 0 1.93.32 2.4.92 .46.62.53 1.48.18 2.64l-17.92 56.21 -6.92 21.81 -2.65 8.38c-.3.93-.78 1.58-1.44 1.95l-.2.09c-.72.29-1.48.24-2.38.02 -2.91-.72-16.37-2.23-10.98-17.95l3.19-9.33 -.73-1.82 -3.5-8.32 -21.93-50.93c-.49-1.06-.31-2.02.12-2.68 .44-.69 1.23-1.03 2.34-1.05h12.47ZM41.46 78.9l-15.02 22.59 14.14-12.94 .86-9.67Zm335.81-52.35c.66 0 1.2.25 1.59.66 .57.59.85 1.38.85 2.42v14.9c0 1.01-.22 1.76-.67 2.27 -.44.5-1.07.75-1.91.75 -1.82-.07-3.55.12-5.24.56 -1.67.44-3.19 1.19-4.51 2.23 -1.33 1.05-2.39 2.46-3.17 4.18 -.79 1.74-1.19 3.87-1.2 6.39l-.09 15.89c-.1 16.59-12.95 14.08-15.95 13.91 -1.03-.06-1.82-.28-2.38-.82 -.56-.55-.84-1.33-.84-2.34V29.71c0-1.01.27-1.79.83-2.34 .55-.55 1.34-.83 2.37-.83h12.82c1.02 0 1.81.27 2.37.82 .55.54.83 1.32.83 2.33v3.17c1.53-2.69 5.05-6.51 14.22-6.39Zm38.23-.09c14.48 0 26.61 8.77 30.45 21.45 .74 2.07-.5 3.41-2.6 3.41h-13.62c-1.62 0-2.73-.74-3.72-2.08 -2.23-3.05-6.07-4.76-10.53-4.76 -8.05 0-14.24 5.73-14.24 14.14s6.19 14.14 14.23 14.14c4.45 0 8.29-1.71 10.52-4.64 .98-1.47 1.97-2.2 3.71-2.2h13.61c2.1 0 3.34 1.34 2.59 3.41 -3.84 12.67-15.97 21.45-30.46 21.45 -18.82 0-32.81-14.03-32.81-32.19 0-18.17 13.99-32.19 32.8-32.19Zm-108.02.02c4.52.02 8.67.82 12.46 2.43 3.78 1.59 7.05 3.84 9.85 6.72 2.77 2.89 4.93 6.27 6.45 10.16 1.52 3.88 2.3 8.14 2.32 12.76 0 .79-.03 1.55-.09 2.28 -.05.74-.11 1.47-.17 2.2 -.13.97-.5 1.68-1.07 2.12 -.58.44-1.34.66-2.27.66h-41.22c.78 2.39 1.87 4.33 3.31 5.83 1.44 1.47 3.12 2.55 5.01 3.24 1.91.68 3.94 1.01 6.11 1.01 1.74-.03 3.43-.29 5.03-.83 1.58-.55 2.96-1.28 4.09-2.21 .59-.49 1.19-.88 1.76-1.16 .59-.29 1.27-.43 2.05-.43l11.84-.13c1.13.02 1.95.34 2.44.97 .47.62.49 1.43.02 2.43 -1.63 3.52-3.79 6.48-6.48 8.85 -2.7 2.39-5.83 4.17-9.39 5.38 -3.56 1.19-7.45 1.8-11.67 1.8 -5.15-.03-9.78-.86-13.89-2.48 -4.14-1.63-7.66-3.87-10.58-6.79 -2.95-2.9-5.19-6.3-6.75-10.17 -1.57-3.89-2.35-8.11-2.37-12.67 .02-4.56.82-8.78 2.42-12.66 1.6-3.87 3.86-7.28 6.8-10.17 2.92-2.92 6.41-5.17 10.44-6.79 4.03-1.62 8.49-2.46 13.38-2.48ZM84.44 61.57L50.43 77.81l28.34-6.94 5.66-9.31Zm-30.43-3.93L27.07 76.95l21.94-9.66 4.98-9.66ZM238.6 44.35c-7.9 0-14.31 6.34-14.31 14.17s6.4 14.17 14.3 14.17c7.89 0 14.29-6.35 14.29-14.18s-6.41-14.18-14.3-14.18Zm-123.67 7.61l-30.21 3.25 22.08 1.29 8.12-4.55Zm192.4-9.35c-3.48.02-6.4.81-8.71 2.41 -2.33 1.57-3.97 3.9-4.94 6.94h26.43c-.66-2.29-1.65-4.14-2.97-5.51 -1.3-1.36-2.82-2.36-4.53-2.96 -1.71-.61-3.48-.92-5.31-.9Zm-225.55.47l-30.21 3.25 22.19 2.11 8.01-5.37Zm42.55-3.79l-22.52 4.77 17.52-.99 4.99-3.79Zm-51.17-7.96l23.41 5.99 10.21-3.4 -33.64-2.61Zm24.11-11.55l18.95 8.82 9.07-1.88 -28.03-6.96Z"/></svg>