<svg viewBox="0 0 256 229" xmlns="http://www.w3.org/2000/svg"><path d="M130.3 0c42.69 61.443 83.97 120.842 125.69 180.877 -41.52 15.99-82.43 31.75-124.1 47.81v0 -24.72c3.02-1.86 6.25-3.84 9.77-5.99 -3.75-65.21-7.48-130.3-11.37-197.99Zm-4.63 0c-3.21 55.86-6.32 110.13-9.43 164.25l-.78 13.52c-.39 6.76-.78 13.52-1.17 20.28 3.32 1.96 6.43 3.81 9.75 5.78v0 24.81c-11.05-4.26-22.05-8.49-33.04-12.72l-16.49-6.35c-24.72-9.52-49.47-19.05-74.57-28.72 5.95-8.57 11.89-17.13 17.83-25.68l8.91-12.83C59.35 95.3 92.04 48.26 125.6-.05Z"/></svg>