<svg viewBox="0 0 512 129" xmlns="http://www.w3.org/2000/svg"><path fill="#1C1C1C" d="M176.77 38.8l-.52-.02v0l-18.83-.01c-.72 0-1.29.58-1.29 1.31v47.66c0 .72.57 1.31 1.28 1.31h6.58c.71 0 1.28-.59 1.28-1.32V77.38l11.26-.01v0l.61-.03v0l.75-.06c2.75-.27 7.65-1.29 11.55-5.02 3.57-3.5 5.29-8.17 5.29-14.14 0-5.98-1.87-10.79-5.3-14.14 -3.22-3.19-7.07-4.44-9.88-4.93l-.95-.15c-.15-.02-.3-.04-.44-.06l-.79-.08v0l-.67-.04v0Zm6.27 26.66c-1.34 1.36-3.29 1.97-4.77 2.25l-.76.11v0l-.63.06v0l-.74.03v0h-10.88V48.08l10.98-.01v0l.68.03v0l.64.06c1.53.19 3.88.75 5.56 2.38 1.57 1.6 2.43 4.08 2.43 7.43 0 3.35-.86 5.83-2.58 7.43Zm48.66 14.28h-19.33V40.09c0-.73-.58-1.32-1.29-1.32h-6.59c-.72 0-1.29.58-1.29 1.31v47.66c0 .72.57 1.31 1.28 1.31h27.33c.85 0 1.57-.59 1.57-1.32v-6.71c0-.73-.72-1.32-1.72-1.32Zm108.62-40.97h-6.59c-.72 0-1.29.58-1.29 1.31v30.9L308.96 39.2c-.29-.3-.58-.44-.86-.44h-6.59c-.72 0-1.29.58-1.29 1.31v47.66c0 .72.57 1.31 1.28 1.31h6.58c.71 0 1.28-.59 1.28-1.32V57.54l23.47 30.9 .14.14c.14.14.42.29.71.29h6.72c.71 0 1.28-.59 1.28-1.32V40.02c-.15-.73-.72-1.32-1.44-1.32Zm42.22 40.96h-19.33V40.08c0-.73-.58-1.32-1.29-1.32h-6.59c-.72 0-1.29.58-1.29 1.31v47.66c0 .72.57 1.31 1.28 1.31h27.33c.85 0 1.57-.59 1.57-1.32v-6.71c-.15-.73-.86-1.32-1.72-1.32Zm75.13-40.67c-7.3-1.03-14.75 1.45-18.32 6.12 -2.87 3.64-3.44 8.45-1.44 13.26 1.98 5.19 6.9 7.63 10.88 8.95l1.16.36c.18.05.37.1.55.15l3.71 1.02c2.43.72 5.44 1.89 6.29 3.93 .85 2.18.28 3.35-.15 3.93 -1.62 2.05-5.39 3.21-9.17 2.85l-.71-.09c-1.2-.14-3.73-.77-5.46-2.47l-.42-.45c-.51-.65-1.25-.96-2.01-.71l-5.3 2.15c-1.15.43-1.58 1.89-1.01 2.91 2.43 4.22 7.01 6.99 12.73 7.87 1.14.14 2.29.29 3.43.29 6.15 0 11.87-2.34 15.02-6.42 2.86-3.65 3.43-8.46 1.43-13.27 -2.29-5.69-7.87-8.17-12.17-9.33l-.17-.08c-.09-.04-.2-.08-.27-.08l-3.87-1.17c-2.44-.73-5.44-1.9-6.3-3.94 -.86-2.19-.29-3.36.14-3.94 1.71-2.19 5.86-3.36 9.87-2.77 1.28.14 4.29.87 5.86 3.06 .57.72 1.43.87 2.14.58l5.15-2.05c1.14-.44 1.57-1.75.85-2.77 -2.3-4.38-6.87-7.29-12.6-8.02Zm39.93 9.18c1.28.14 4.29.87 5.86 3.06 .57.72 1.43.87 2.14.58l5.15-2.05c1.04-.41 1.49-1.54 1.01-2.51l-.16-.27c-2.44-4.23-7.02-7.15-12.74-8.02 -7.3-1.03-14.75 1.45-18.32 6.12 -2.87 3.64-3.44 8.45-1.44 13.26 1.99 5.19 6.9 7.63 10.88 8.95l1.16.36c.18.05.37.1.55.15l3.72 1.02c2.43.72 5.43 1.89 6.29 3.93 .85 2.18.28 3.35-.15 3.93 -1.62 2.05-5.39 3.21-9.17 2.85l-.71-.09c-1.2-.14-3.73-.77-5.46-2.47l-.42-.45c-.52-.65-1.25-.96-2.01-.71l-5.3 2.15c-1.15.43-1.58 1.89-1.01 2.91 2.43 4.22 7.01 6.99 12.73 7.87 1.14.14 2.28.29 3.43.29 6.15 0 11.87-2.34 15.02-6.42 2.86-3.65 3.43-8.46 1.43-13.27 -2.3-5.69-7.88-8.17-12.17-9.33h-.43v0l-4.4-1.33v0l-1.09-.38c-2.01-.74-4.01-1.8-4.69-3.41 -.73-1.86-.43-2.97-.06-3.63l.2-.32v0c1.86-2.34 6.01-3.5 10.01-2.92Zm-226.42-8.61c-.24-.49-.58-.77-1.02-.86l-.34-.03v0h-7.38c-.58 0-1.01.29-1.29.87l-20.76 47.52c-.43 1.02.28 2.04 1.28 2.04h7.15c.57 0 1-.3 1.28-.88l4.43-10.06h23.18l4.43 10.05c.28.58.71.87 1.28.87h7.15c1 0 1.71-1.03 1.28-2.05l-20.76-47.53Zm-12.46 29.15l7.44-17.21 7.44 17.2h-14.89ZM426.45 38.6h-31.92c-.86 0-1.44.72-1.44 1.45v47.37c0 .87.71 1.45 1.43 1.45h31.91c.85 0 1.43-.73 1.43-1.46v-6.42c0-.88-.72-1.46-1.44-1.46h-24.19V68.59h16.74c.85 0 1.43-.73 1.43-1.46v-6.42c0-.88-.72-1.46-1.44-1.46h-16.75V48.02h24.18c.85 0 1.43-.73 1.43-1.46v-6.42c0-.88-.58-1.61-1.44-1.61Z"/><path fill="#FF6254" d="M54.52 73.77L94.3 90.38 4.99 127.4c-3.43 1.39-4.89.38-5.01-3.15l-.01-.5V98.09c0-1.46.82-2.8 2.05-3.47l.37-.19 52.09-20.7Zm55.67-26.83V80.9L69.97 65.15c-.58-.15-.86-.73-.86-1.17 0-.37.19-.83.59-1.06l40.47-16ZM-.02 4.23c0-3.77 1.3-5 4.55-3.82l.45.17 89.3 37.17 -39.79 16.47 -52.1-20.56c-1.31-.54-2.25-1.79-2.41-3.33l-.03-.47V4.2Z"/></svg>