<svg viewBox="0 0 256 285" xmlns="http://www.w3.org/2000/svg"><path fill="#FF4300" d="M97.32 120.75l26.76-15.33c2.42-1.39 5.4-1.39 7.82 0l26.76 15.32c1.96 1.12 3.32 3.02 3.78 5.19l-.86 1.23L127.96 144l-33.88-18.09 -.29-1.06c.62-1.73 1.84-3.21 3.48-4.15Zm144.03-59.58L142.451 4.54c-8.96-5.13-19.97-5.13-28.92 0l-98.9 56.62c-5.59 3.19-9.85 8.08-12.3 13.81l-.03.58L24.13 87.68l.56-.23c1.98-4.84 5.538-8.98 10.22-11.67L116.09 29.3c7.35-4.209 16.38-4.209 23.73-.001l81.17 46.47c5.52 3.16 9.47 8.34 11.137 14.31l1.44.94 20.79-10.6 .46-2.03c-2.06-7.21-6.84-13.46-13.52-17.29ZM76.31 105.61l45.08-25.82c4.08-2.34 9.09-2.34 13.18 0l45.08 25.81c3.19 1.82 5.42 4.86 6.28 8.34l.36.39 22.2-11.26 .24-.71c-1.23-4.78-4.33-8.94-8.72-11.46l-62.86-35.99c-5.7-3.26-12.69-3.26-18.38 0L55.91 90.89c-3.65 2.08-6.49 5.51-8.018 9.28l.28.66 21.62 12.2 .52-.28c1.03-3 3.11-5.58 5.95-7.21Z"/><path fill="#FF5B00" d="M232.17 90.14c.57 2.06.88 4.21.88 6.4v92.6c0 8.56-4.59 16.47-12.02 20.72l-81.18 46.47c-3.68 2.1-7.82 3.15-11.91 3.15l-.52.58 -.05 24.04 .6.85c4.99 0 9.98-1.29 14.46-3.85l98.89-56.63c9.05-5.19 14.64-14.82 14.64-25.26V86.37c0-2.74-.4-5.42-1.13-7.98l-22.71 11.67Zm-23.42 12.26l-22.81 11.56c.25 1.02.38 2.08.38 3.16v51.43c0 4.75-2.55 9.14-6.68 11.51l-45.09 25.81c-2.08 1.19-4.4 1.77-6.72 1.74l-.68.99 .23 23.53 .43 1c3.21.02 6.43-.79 9.31-2.44l62.85-35.99c5.75-3.3 9.3-9.42 9.3-16.05v-71.71c0-1.58-.21-3.12-.59-4.6Zm-46.3 23.54c.08.47.17 1.15.17 1.64v30.53c0 2.82-1.52 5.43-3.97 6.83l-26.762 15.32c-1.22.69-2.57 1.04-3.92 1.04l-.66-1.06 .11-36.803 .53-.51 34.46-17.006Z"/><path fill="#DC2F03" d="M127.99 142.95l0 38.36c-1.35 0-2.7-.35-3.92-1.05L97.3 164.93c-2.46-1.41-3.97-4.01-3.97-6.84v-30.54c0-.93.16-1.84.47-2.69l34.16 18.05Zm-.13 64.69c-2.24-.03-4.47-.61-6.47-1.76l-27.86-15.96v50.65l-24.07-12.92 .16-110.55c0-1.46.27-2.98.71-4.31l-22.433-12.6c-.8 2.07-1.29 4.47-1.29 6.76l-.35 108.652 -11.51-6.55c-7.44-4.26-11.87-11.39-11.87-19.95V96.49c0-3.17.62-6.24 1.79-9.07L2.28 74.93C.75 78.48-.07 82.36-.07 86.36v112.83c0 10.43 5.586 20.06 14.64 25.25l98.899 56.62c4.47 2.56 9.46 3.84 14.45 3.84l-.13-77.351Z"/></svg>