<svg viewBox="0 0 512 108" xmlns="http://www.w3.org/2000/svg"><defs><linearGradient id="a" x1="49.998%" x2="49.998%" y1="1.575%" y2="100.442%"><stop offset="0%" stop-color="#DF5430"/><stop offset="100%" stop-color="#D7197E"/></linearGradient></defs><path fill="url(#a)" d="M107.94 53.97c0 29.8-24.17 53.97-53.98 53.97 -29.81 0-53.98-24.17-53.98-53.98C-.02 24.15 24.14-.02 53.95-.02c29.8 0 53.97 24.16 53.97 53.97"/><g fill="#FFFFFE"><path d="M40.09 25.92v56.09l48.58-28.05 -48.59-28.05Zm4.65 8.05l34.62 19.99 -34.63 19.99V33.96v0Z"/><path d="M28.93 32.04v43.84L66.9 53.95 28.92 32.02Zm4.65 8.05L57.6 53.95 33.57 67.82V40.08v0Z"/></g><path fill="#1B1A19" d="M424.63 38.84c5.09 0 8.23 1.42 11.24 3.97l-3.27 3.88c-2.26-1.93-4.47-3.14-8.19-3.14 -5.22 0-9.21 4.41-9.47 9.76l-.02.64c0 6.01 3.96 10.44 9.94 10.44 2.75 0 5.26-.88 7.05-2.22v-5.48h-7.48v-4.47h12.45V64.5c-2.89 2.46-7.03 4.55-12.21 4.55 -8.93 0-14.87-6.2-15.16-14.41l-.02-.72c0-8.19 6.26-15.13 15.08-15.13Zm-214.82.5v16.63c0 5.43 2.8 8.35 7.39 8.35 4.55 0 7.35-2.76 7.35-8.15V39.32h5.13V55.9c0 8.73-4.93 13.12-12.58 13.12 -7.61 0-12.46-4.39-12.46-12.88V39.29h5.13Zm155.22-.42c4.26 0 7.64 1.29 10.61 3.68l-2.76 3.88c-2.64-1.97-5.27-3.01-7.95-3.01 -2.84 0-4.56 1.36-4.75 3.13l-.02.41c0 1.89.94 2.9 4.56 3.97l1.1.3c.39.1.81.2 1.26.31 5.95 1.44 9.15 3.55 9.38 8.03l.01.6c0 5.47-4.31 8.73-10.45 8.73 -4.48 0-8.69-1.55-12.2-4.68l3.08-3.68c2.8 2.42 5.6 3.8 9.23 3.8 2.99 0 4.95-1.31 5.16-3.32l.01-.45c0-1.84-.91-2.94-4.83-4.03l-1.15-.3c-.21-.05-.42-.1-.64-.15l-1.3-.33c-5.21-1.41-8.21-3.25-8.44-7.84l-.02-.65c0-5.02 4.17-8.49 9.98-8.49Zm-216.31.41c6.58 0 10.83 3.63 11.1 9.21l.01.64c0 6.55-5.27 9.98-11.71 9.98h-5.81v9.4h-5.14V39.3h11.53Zm29.01 0V63.9h15.37v4.68h-20.52V39.32h5.14Zm79.55 0c3.67 0 6.55 1.08 8.43 2.92 1.41 1.45 2.27 3.4 2.4 5.68l.01.71c0 4.8-2.89 7.68-6.98 8.85l7.89 11.07h-6.06l-7.2-10.2h-6.44v10.19h-5.14V39.29h13.03Zm39.79-.21l12.87 29.45h-5.44l-2.97-7.06H287.7l-3.01 7.05h-5.27l12.87-29.46h4.76Zm30.51.2v24.57h15.37v4.68h-20.52V39.31h5.13Zm67.9 0v29.25h-5.14V39.31h5.13Zm60.71 0v12.16h13.95V39.32h5.14v29.25h-5.15V56.24h-13.96v12.32h-5.14V39.3h5.13Zm55.75 0v4.76h-9.28v24.48h-5.18V44.07h-9.28V39.3h23.73Zm-217.37 5.93l-5.02 11.69h10.06l-5.06-11.7Zm-146.33-1.26h-5.98v10.53h5.97c3.7 0 6.08-1.98 6.29-4.82l.01-.5c0-3.43-2.47-5.23-6.32-5.23Zm108.57 0h-7.49v9.82h7.52c3.5 0 5.79-1.75 6-4.48l.01-.5c0-3.14-2.26-4.85-6.06-4.85Z"/></svg>