<svg viewBox="0 0 256 210" xmlns="http://www.w3.org/2000/svg"><defs><linearGradient id="a" x1="67.129%" x2="46.161%" y1="64.687%" y2="45.78%"><stop offset="0%" stop-color="#520BF5"/><stop offset="100%" stop-color="#9D1FE0"/><stop offset="100%" stop-color="#9D1FE0"/></linearGradient><linearGradient id="b" x1="67.462%" x2="42.409%" y1="34.993%" y2="56.901%"><stop offset="0%" stop-color="#9E1FA7"/><stop offset="100%" stop-color="#E540AE"/></linearGradient><linearGradient id="c" x1="100%" x2="29.973%" y1="50%" y2="50%"><stop offset="0%" stop-color="#4B6AF2"/><stop offset="100%" stop-color="#4CA7EB"/></linearGradient></defs><path fill="url(#a)" d="M175.28 0l-9.36 16.03c-1.07 1.83-3 2.85-4.98 2.85 -.99 0-1.99-.26-2.9-.79 -2.75-1.6-3.67-5.13-2.07-7.87l5.97-10.25h-16.8c0 .98-.23 1.97-.75 2.88l-25.85 44.63C112.2 58.47 98.6 64.84 88.02 64.84s-2.76 0-8.28 0c-3.18 0-5.75-2.58-5.75-5.75 0-3.18 2.57-5.75 5.74-5.75H88c7.49 0 16.08-5.33 20.34-11.25 2.84-3.95 10.97-18 24.38-42.14h-15.27c-24.13 51.94-38.5 41.88-81.62 41.88 -2.86 4.32-5.73 8.66-8.54 12.93h30.09c3.17 0 5.74 2.57 5.74 5.74 0 3.17-2.58 5.74-5.75 5.74H19.78c-2.57 3.98-5.01 7.82-7.24 11.44l94.45-.67 -4.23 0c5.72.11 14.97-3.24 19.45-10.28l22.27-35.2c1.69-2.69 5.24-3.49 7.93-1.79 2.68 1.69 3.48 5.24 1.78 7.93l-22.28 35.21c-6.72 10.55-19.43 15.77-29.34 15.61l-96.89.71c-4.5 8.07-5.83 13.35-5.77 15.81h128.43L193.86 4.4c-4.14-2.39-10.07-4.32-17.65-4.52h-1.1Z"/><path fill="url(#b)" d="M128.48 105.12H.04c-.42 6.09 1.48 12.41 5.06 17.97 1.45 0 2.52 0 3.19 0h.04 82.74c13.37-1.47 25.25 4.09 35.61 16.69l21.56 34.86c1.69 2.68.88 6.23-1.81 7.92 -.96.59-2.02.88-3.06.88 -1.92 0-3.78-.96-4.88-2.69 -13.3-21.56-21.4-33.75-24.29-36.57 -4.35-4.25-9.91-9.58-23.16-9.58H12.27l7.67 12.18h30.7c3.17 0 5.74 2.57 5.74 5.74 0 3.17-2.58 5.74-5.75 5.74H27.16l7.23 11.48c51.74 0 58.92 5.74 76.69 40.03h15.07c-12.88-22.99-21.01-36.55-24.41-40.68 -5.1-6.2-11.96-10.85-20.85-10.85h-7.98c-3.18 0-5.75-2.58-5.75-5.75 0-3.18 2.57-5.75 5.74-5.75h7.97c12.19 0 25.86 7.83 30.8 17.36l27.28 44.63c.19.33.34.67.46 1.02h20.55l-6.57-11.26c-1.61-2.75-.68-6.27 2.06-7.87 .91-.54 1.9-.79 2.89-.79 1.97 0 3.9 1.02 4.97 2.85l9.94 17.05h5.05c4 .01 6.94-.42 12.66-4.11L128.3 105.01Z"/><path fill="url(#c)" d="M194.01 4.51l-7.99 12.15 9.89 14.84c1.76 2.64 1.04 6.21-1.6 7.97 -.98.65-2.09.96-3.19.96 -1.86 0-3.69-.9-4.79-2.56l-7.19-10.79 -7.94 12.07 28.35 46.4c6.62 10.84 6.59 24.3-.09 35.11 -.09.13-.18.27-.28.4l-3.48 4.68c-1.13 1.52-2.87 2.32-4.63 2.32 -1.2 0-2.4-.37-3.42-1.13 -2.56-1.9-3.09-5.5-1.2-8.05l3.32-4.48c4.27-7.08 4.24-15.83-.07-22.89l-25.53-41.78 -36.35 55.31 28.58-43.1 14.11 21.8c7.24 11.19 7.21 25.6-.08 36.76l-16.76 25.67 -25.88-41.16 33.25 52.9 15.32-20.43c1.9-2.54 5.5-3.06 8.04-1.15 2.53 1.9 3.05 5.5 1.14 8.04l-17.97 23.95 8.73 13.9 42.35-66.88c4.83-7.63 4.88-17.52.14-25.2L198.3 56.97c-1.67-2.71-.84-6.25 1.87-7.92 2.7-1.67 6.24-.84 7.91 1.86l20.48 33.16c7.03 11.39 6.95 26.07-.21 37.39L183.6 192.1c-.18.28-.39.53-.61.78l7.96 12.67c3.46-2.75 5.93-5.05 7.4-6.91 16.87-21.37 34.42-47.05 52.67-77.02 6.24-10.27 6.41-22.99.22-33.22 -23.52-38.94-49.65-80.22-57.44-84.08Z"/></svg>