<svg viewBox="0 0 512 368" xmlns="http://www.w3.org/2000/svg"><path fill="#F9AD00" d="M511.99 126.27v114.79h-114.8v-114.8h114.79Zm0-126.28v114.79h-114.8V-.02h114.79Zm-126.28 0v114.79h-114.8V-.02H385.7Zm-126.28 0v114.79h-114.8V-.02h114.79Z"/><path fill="#4E4E4E" d="M385.72 252.54v114.79h-114.8v-114.8h114.79Zm126.27 0v114.79h-114.8v-114.8h114.79Zm-252.55 0v114.79h-114.8v-114.8h114.79Zm126.27-126.28v114.79h-114.8v-114.8H385.7ZM21.48 159.75c3.85 0 7.44.49 10.75 1.49 3.31.99 6.15 2.52 8.53 4.58 2.37 2.05 4.24 4.64 5.59 7.76 1.34 3.11 2.02 6.83 2.02 11.13 0 4.11-.58 7.71-1.74 10.79 -1.16 3.08-2.8 5.67-4.92 7.76 -2.13 2.08-4.68 3.64-7.67 4.67 -2.99 1.02-6.32 1.54-9.99 1.54 -2.77 0-5.34-.42-7.72-1.26v0 16l-.16.04c-.65.18-1.63.37-2.94.58 -1.42.22-2.87.33-4.34.33 -1.42 0-2.69-.1-3.81-.29 -1.13-.2-2.08-.58-2.85-1.16 -.78-.58-1.35-1.37-1.74-2.37 -.39-1-.58-2.3-.58-3.91v0 -46.29l0-.35c.04-1.58.41-2.88 1.1-3.9 .73-1.1 1.75-2.09 3.03-2.99 1.99-1.29 4.46-2.32 7.42-3.09 2.95-.78 6.26-1.16 9.93-1.16Zm112.62 0c3.85 0 7.44.49 10.75 1.49 3.31.99 6.15 2.52 8.53 4.58 2.37 2.05 4.24 4.64 5.59 7.76 1.34 3.11 2.02 6.83 2.02 11.13 0 4.11-.58 7.71-1.74 10.79 -1.16 3.08-2.8 5.67-4.92 7.76 -2.13 2.08-4.68 3.64-7.67 4.67 -2.99 1.02-6.32 1.54-9.99 1.54 -2.77 0-5.34-.42-7.72-1.26v0 16l-.16.04c-.65.18-1.63.37-2.94.58 -1.42.22-2.87.33-4.34.33 -1.42 0-2.69-.1-3.81-.29 -1.13-.2-2.08-.58-2.85-1.16 -.78-.58-1.35-1.37-1.74-2.37 -.39-1-.58-2.3-.58-3.91v0 -46.29l0-.35c.04-1.58.41-2.88 1.1-3.9 .73-1.1 1.75-2.09 3.03-2.99 1.99-1.29 4.46-2.32 7.42-3.09 2.95-.78 6.26-1.16 9.93-1.16Zm-54.29 0c7.26 0 12.85 1.59 16.77 4.77 3.92 3.18 5.88 7.6 5.88 13.25v0 30.18l-.17.04c-.65.17-1.61.35-2.87.53 -1.39.19-2.82.28-4.3.28 -1.42 0-2.69-.1-3.81-.29 -1.13-.2-2.08-.58-2.85-1.16 -.78-.58-1.37-1.37-1.79-2.37 -.42-1-.63-2.3-.63-3.91v0 -22.76l-.01-.32c-.06-1.84-.62-3.2-1.69-4.08 -1.13-.94-2.66-1.4-4.59-1.4 -1.29 0-2.56.16-3.81.48 -1.26.32-2.34.8-3.24 1.44v0 33.46l-.17.04c-.65.17-1.61.35-2.87.53 -1.39.19-2.82.28-4.3.28 -1.42 0-2.69-.1-3.81-.29 -1.13-.2-2.08-.58-2.85-1.16 -.78-.58-1.37-1.37-1.79-2.37 -.42-1-.63-2.3-.63-3.91v0 -28.93l0-.35c.04-1.58.41-2.88 1.1-3.9 .73-1.1 1.75-2.09 3.03-2.99 2.18-1.55 4.93-2.8 8.24-3.77 3.31-.97 6.99-1.45 11.04-1.45Zm141.26 0c2.44 0 4.83.32 7.18.96 2.34.64 4.43 1.65 6.26 3.03s3.29 3.21 4.38 5.49c1.09 2.28 1.63 5.06 1.63 8.34v0 30.37l-.17.04c-.65.17-1.61.35-2.87.53 -1.39.19-2.82.28-4.3.28 -1.42 0-2.69-.1-3.81-.29 -1.13-.2-2.08-.58-2.85-1.16 -.78-.58-1.37-1.37-1.79-2.37 -.42-1-.63-2.3-.63-3.91v0 -23.05l-.01-.32c-.06-1.77-.61-3.06-1.64-3.88 -1.1-.87-2.58-1.31-4.44-1.31 -.9 0-1.87.2-2.9.62 -1.03.41-1.8.85-2.32 1.3 .06.25.09.49.09.72v0 32.73l-.19.04c-.7.17-1.69.35-2.96.53 -1.39.19-2.79.28-4.2.28 -1.42 0-2.69-.1-3.81-.29 -1.13-.2-2.08-.58-2.85-1.16 -.78-.58-1.37-1.37-1.79-2.37 -.42-1-.63-2.3-.63-3.91v0 -23.05l-.01-.31c-.06-1.78-.66-3.08-1.78-3.9 -1.19-.87-2.62-1.31-4.3-1.31 -1.16 0-2.16.17-2.99.53 -.84.35-1.55.69-2.13 1.01v0 33.84l-.17.04c-.65.17-1.61.35-2.87.53 -1.39.19-2.82.28-4.3.28 -1.42 0-2.69-.1-3.81-.29 -1.13-.2-2.08-.58-2.85-1.16 -.78-.58-1.37-1.37-1.79-2.37 -.42-1-.63-2.3-.63-3.91v0 -29.13l0-.35c.04-1.58.41-2.85 1.1-3.81 .73-1.03 1.75-2 3.03-2.9 2.18-1.55 4.9-2.8 8.14-3.77 3.24-.97 6.63-1.45 10.17-1.45 2.63 0 5.22.36 7.76 1.1 2.53.73 4.74 1.84 6.6 3.32 1.92-1.29 4.09-2.35 6.5-3.19 2.41-.84 5.31-1.26 8.72-1.26ZM22.04 172.57c-1.23 0-2.32.14-3.28.43 -.97.28-1.8.62-2.51 1.01v0 21.21l.39.18c.66.3 1.36.56 2.11.77 .89.25 1.86.38 2.89.38 6.62 0 9.93-3.96 9.93-11.87 0-4.12-.82-7.17-2.46-9.17 -1.64-2-4.01-2.99-7.09-2.99Zm112.62 0c-1.23 0-2.32.14-3.28.43 -.97.28-1.8.62-2.51 1.01v0 21.21l.39.18c.66.3 1.36.56 2.11.77 .89.25 1.86.38 2.89.38 6.62 0 9.93-3.96 9.93-11.87 0-4.12-.82-7.17-2.46-9.17 -1.64-2-4.01-2.99-7.09-2.99Z"/></svg>