<svg viewBox="0 0 256 207" xmlns="http://www.w3.org/2000/svg"><path fill="#FFF" d="M59.91 19.97h112.56V163.4H59.9Z" transform="translate(1.42109e-14 183.376) scale(1-1)"/><path fill="#24C1CE" d="M61.26 206.97H-.01v-26.14c0-43.9 35.54-77.36 79.39-77.36h73.13c11.02 0 19.95 8.95 19.95 19.98v25.09h-34.01c-35.26 0-70.07 24.94-77.21 58.41" transform="translate(1.42109e-14 310.468) scale(1-1)"/><path fill="#3DD0AD" d="M59.91 12.55c0 39.59 39 70.96 78.56 70.96h34c-.01 11.02-8.94 19.97-19.96 19.97H79.38c-43.85 0-79.4-33.46-79.4-77.36V-.02h61.26c-.87 4.07-1.36 8.26-1.36 12.55" transform="translate(0 103.49) scale(1-1)"/><path fill="#404953" d="M123.46 74.44c-10.03 0-18.16-8.13-18.16-18.16s8.12-18.16 18.15-18.16c10.02 0 18.15 8.13 18.15 18.15 0 10.03-8.14 18.15-18.16 18.15" transform="translate(0 112.568) scale(1-1)"/><path fill="#FFF" d="M116.19 54.46c-3.003 0-5.45-2.45-5.45-5.45 0-3.01 2.44-5.46 5.44-5.46 3 0 5.44 2.44 5.44 5.45 0 2.99-2.45 5.44-5.45 5.44" transform="translate(0 98.0433) scale(1-1)"/><path fill="#404953" d="M101.67 87.14l49.02 0 0 14.52 -49.03 0Z" transform="translate(1.42109e-14 188.823) scale(1-1)"/><path fill="#FFDA00" d="M32.68 121.64c-10.03 0-18.16-8.14-18.16-18.16 -.01-10.03 8.13-18.16 18.15-18.16 10.02 0 18.15 8.13 18.15 18.15 0 10.02-8.13 18.15-18.16 18.15" transform="translate(1.42109e-14 206.979) scale(1-1)"/><path fill="#404953" d="M230.54 155.76c-16.11 16.1-36.97 24.55-58.06 25.37V90.89l58.05-58.06c33.94 33.94 33.94 88.97 0 122.91v0Zm-58.06-92.64V19.95c11.3.61 22.47 4.26 32.17 10.98L172.47 63.1Z" transform="translate(0 201.118) scale(1-1)"/><path fill="#3A4287" d="M61.26 187H59.9v-59.15c0-13.52 10.95-24.43 24.47-24.38l88.09.33v24.77h-34.01c-35.26 0-70.07 24.94-77.21 58.41" transform="translate(1.42109e-14 290.497) scale(1-1)"/></svg>