<svg viewBox="0 0 256 330" xmlns="http://www.w3.org/2000/svg"><g fill="#6CCB94" fill-opacity=".9"><path d="M18.75 0L-.01 91.45l53.78 50.74 -34.95 62.28 71.1 125.18h77.78l71.4-125.19 -35.25-62.29 51.95-50.75L238.69-.04l-73.15 97.4H92.31L18.68-.05Z"/><path fill="#5DBD85" d="M18.83 204.49l34.94-62.29 75.04 62.28 -109.99-.01Z"/><path fill="#64C48C" d="M53.78 142.2l75.04 62.28L92.36 97.39l-38.59 44.79Z"/><path fill="#6ECC95" d="M239.13 204.49l-35.25-62.29 -75.06 62.28 110.3-.01Z"/><path fill="#5EBE86" d="M89.93 329.67h77.78l-38.9-125.19 -38.89 125.18Z"/><path fill="#76D29C" d="M203.88 142.2l-75.06 62.28 36.77-107.09 38.28 44.79Z"/><path fill="#74D09B" d="M238.73 0l17.1 91.45 -51.96 50.74 -38.29-44.8L238.72-.03Z"/><path fill="#64C48C" d="M128.82 204.49l38.89 125.18 71.4-125.19H128.8Z"/><path fill="#58B880" d="M128.82 204.49l-38.9 125.18 -71.09-125.19h109.98Z"/><path fill="#5FBF87" d="M18.75 0L-.01 91.46l53.78 50.74 38.58-44.8L18.73-.02Z"/><path fill="#6ECC95" d="M128.82 204.49l36.77-107.08H92.36l36.45 107.07Z"/></g></svg>