<svg viewBox="0 0 256 256" xmlns="http://www.w3.org/2000/svg"><rect width="256" height="256" rx="18"/><g transform="translate(25 40)"><path fill="#669CFE" d="M205.11 88.531c0 7.04-5.72 12.76-12.77 12.76s-12.76-5.72-12.76-12.76c0-7.05 5.71-12.77 12.76-12.77 7.04 0 12.76 5.71 12.76 12.76"/><path fill="#3FE7FE" d="M178.806 114.531c0 7.04-5.72 12.76-12.77 12.76s-12.77-5.72-12.77-12.76c0-7.05 5.71-12.77 12.76-12.77 7.04 0 12.76 5.71 12.76 12.76"/><path fill="#FFF" d="M152.45 141.072c0 7.04-5.72 12.76-12.76 12.76 -7.05 0-12.77-5.72-12.77-12.77s5.71-12.76 12.76-12.76c7.04 0 12.76 5.71 12.76 12.76"/><path fill="#669CFE" d="M177.993 62.33c0 6.59-5.35 11.94-11.95 11.94s-11.95-5.35-11.95-11.95 5.34-11.945 11.94-11.945c6.59 0 11.94 5.34 11.94 11.945"/><path fill="#3FE7FE" d="M151.738 88.298c0 6.59-5.35 11.94-11.95 11.94s-11.95-5.35-11.95-11.95 5.34-11.95 11.94-11.95c6.59 0 11.94 5.34 11.94 11.94"/><path fill="#FFF" d="M125.569 114.642c0 6.59-5.35 11.94-11.95 11.94s-11.95-5.35-11.95-11.95 5.34-11.95 11.94-11.95c6.59 0 11.94 5.34 11.94 11.94"/><path fill="#669CFE" d="M150.74 36.23c0 5.991-4.86 10.84-10.85 10.84 -6 0-10.85-4.86-10.85-10.85 0-6 4.85-10.85 10.84-10.85s10.84 4.85 10.84 10.84"/><path fill="#3FE7FE" d="M124.52 62.191c0 5.99-4.86 10.84-10.85 10.84 -6 0-10.85-4.86-10.85-10.85 0-6 4.85-10.85 10.84-10.85s10.85 4.85 10.85 10.85"/><path fill="#FFF" d="M98.253 88.618c0 5.99-4.86 10.84-10.85 10.84 -6 0-10.85-4.86-10.85-10.85 0-5.991 4.85-10.85 10.84-10.85s10.84 4.85 10.84 10.84"/><path fill="#669CFE" d="M123.618 10.008c0 5.38-4.366 9.75-9.76 9.75 -5.39 0-9.76-4.37-9.76-9.76s4.366-9.76 9.75-9.76c5.38 0 9.75 4.366 9.75 9.75"/><path fill="#3FE7FE" d="M97.29 36.089c0 5.38-4.366 9.753-9.76 9.753 -5.39 0-9.76-4.37-9.76-9.753 0-5.39 4.36-9.76 9.75-9.76 5.38 0 9.75 4.36 9.75 9.75"/><path fill="#FFF" d="M71.06 62.471c0 5.38-4.37 9.75-9.753 9.75 -5.39 0-9.76-4.366-9.76-9.76 0-5.39 4.366-9.76 9.75-9.76 5.38 0 9.753 4.36 9.753 9.75"/><g fill="#6A9EFE"><path d="M70.06 114.721c0 4.78-3.89 8.66-8.67 8.66 -4.79 0-8.67-3.89-8.67-8.67 0-4.79 3.88-8.67 8.66-8.67s8.66 3.88 8.66 8.66"/><path d="M96.18 140.846c0 4.78-3.89 8.66-8.67 8.66 -4.79 0-8.67-3.89-8.67-8.67 0-4.79 3.88-8.67 8.66-8.67s8.66 3.88 8.66 8.66"/><path d="M122.268 166.929c0 4.78-3.89 8.66-8.67 8.66 -4.79 0-8.67-3.89-8.67-8.67 0-4.79 3.88-8.67 8.66-8.67s8.66 3.88 8.66 8.66"/><path d="M70.18 166.929c0 4.78-3.89 8.66-8.67 8.66 -4.79 0-8.67-3.89-8.67-8.67 0-4.79 3.88-8.67 8.66-8.67s8.66 3.88 8.66 8.66"/><path d="M17.601 166.929c0 4.78-3.89 8.66-8.67 8.66 -4.79 0-8.669-3.89-8.669-8.67 0-4.79 3.88-8.67 8.669-8.67 4.78 0 8.66 3.88 8.66 8.66"/><path d="M43.72 140.804c0 4.78-3.89 8.66-8.67 8.66 -4.79 0-8.67-3.89-8.67-8.67 0-4.79 3.88-8.67 8.66-8.67s8.66 3.88 8.66 8.66"/></g><path fill="#3FE7FE" d="M70.17 10.032c0 5.003-4.06 9.05-9.06 9.05 -5.003 0-9.06-4.06-9.06-9.06 0-5.01 4.05-9.06 9.05-9.06 5 0 9.05 4.05 9.05 9.06"/><g fill="#FFF"><path d="M43.79 36.538c0 5-4.06 9.06-9.06 9.06 -5.003 0-9.06-4.06-9.06-9.06 0-5.003 4.05-9.06 9.05-9.06 5 0 9.06 4.05 9.06 9.05"/><path d="M16.17 9.663c0 4.03-3.28 7.31-7.31 7.31 -4.04 0-7.31-3.28-7.31-7.31 0-4.04 3.27-7.31 7.3-7.31 4.03 0 7.31 3.27 7.31 7.3"/></g></g></svg>