<svg viewBox="0 0 256 256" xmlns="http://www.w3.org/2000/svg"><path fill="#A5DBE8" d="M82.979 196.416c2.04-.91 4.11-1.75 6.2-2.54 2.36-.89 4.73-1.73 7.15-2.45 3-.91 6.02-1.73 9.09-2.38 4.13-.88 8.31-1.53 12.53-1.94 -2.37 7.43-4.98 14.82-7.81 22.16 .12 1.42.18 2.85.22 4.28 5.7-1.13 11.59-1.73 17.62-1.73 6.03 0 11.92.6 17.62 1.72 .03-1.44.1-2.87.22-4.29 -2.84-7.35-5.45-14.74-7.81-22.17 4.21.4 8.39 1.05 12.53 1.93 3.06.65 6.09 1.46 9.09 2.37 2.41.72 4.79 1.56 7.15 2.44 2.09.78 4.16 1.62 6.2 2.53 14.5 6.45 27.72 16.03 38.57 28.47 27.18-23.48 44.4-58.16 44.4-96.89 0-70.7-57.31-128-128-128 -70.7 0-128 57.308-128 128 0 38.73 17.227 73.416 44.407 96.88 10.84-12.44 24.06-22.02 38.572-28.48"/><g fill="#525353"><path d="M173.023 196.41l7.94 27.32 2.25.1c1.46 0 2.49.38 2.49 1.84 0 2.43.12 5.16.35 7.55 1.98 1.68 4.39 3.57 6.21 5.41 6.86-4 13.32-8.62 19.3-13.78 -10.85-12.44-24.07-22.02-38.57-28.48"/><path d="M157.48 196.14l9.33-2.26c-2.36-.89-4.74-1.73-7.16-2.45 -3.01-.91-6.03-1.73-9.1-2.38 -4.14-.88-8.32-1.53-12.54-1.94 2.36 7.43 4.97 14.82 7.8 22.16 -.13 1.42-.19 2.85-.23 4.28 6.61 1.3 13.11 3.57 19.12 6.22l-7.26-23.67"/></g><g><path d="M63.7 238.66c1.48.86 2.98 1.71 4.51 2.51 .53-2.57 1.38-6.12 1.64-8.76 -1.98 1.68-4.34 4.39-6.16 6.24"/><path d="M164.58 219.575c-6.01-2.66-12.36-4.69-18.97-6 -5.71-1.13-11.6-1.73-17.63-1.73 -6.04 0-11.92.6-17.622 1.72 -6.61 1.3-13.51 3.28-19.52 5.93l-.64 3.98h75.554l-1.2-3.93"/></g><path fill="#525353" d="M69.63 233.18c.23-2.39.4-4.52.4-6.95 0-1.47 1-2.4 2.46-2.4l2.39-.09 8.07-27.34c-14.51 6.45-27.728 16.04-38.572 28.47 5.97 5.16 12.433 9.77 19.3 13.77 1.82-1.85 3.73-3.61 5.71-5.29"/><path d="M187.05 238.045c.51 2.6.63 3.11.72 3.13 1.52-.81 3.02-1.66 4.51-2.52 -1.83-1.85-3.8-3.67-5.78-5.35l.53 4.73"/><path fill="#AA9678" d="M164.58 219.575l1.19 3.92h15.45l-8.21-27.09c-2.05-.91-4.12-1.75-6.21-2.54l-9.33 2.26 7.1 23.43"/><path fill="#C4B6A1" d="M75.039 228.971c.08-.06.16-.12.24-.18h-.24c-.01.05-.01.11-.02.17"/><g fill="#AA9678"><path d="M180.95 228.79h-.24c.08.05.16.11.24.17 -.01-.06-.01-.12-.01-.18"/><path d="M180.68 228.404l-52.8.06 .11 27.536c19.64 0 38.25-4.44 54.89-12.36 -1.09-4.78-1.2-9.92-1.38-14.92 -.08-.06-.84-.34-.84-.34"/></g><path fill="#C4B6A1" d="M127.915 228.57s-53.09-.07-53.166-.01c-.18 5-1.21 10.93-1.65 15.08 16.63 7.91 35.24 12.35 54.893 12.35l.03-27.333 -.12-.09"/><path fill="#786453" d="M128 226.15h0v2.64h-.01v-2.65Z"/><path fill="#525353" d="M164.64 205.23c-.39-.45-.79-.92-1.2-1.46 .41.54.81 1.01 1.19 1.46"/><path fill="#AA9678" d="M167.594 208.16s0 .02.02.08c-.02-.06-.03-.09-.03-.09s-1.3-1.03-2.95-2.93c1.64 1.89 2.94 2.92 2.94 2.92"/><g fill="#FFF"><path d="M206.706 92.348v0 -.01"/><path d="M211.85 129.201c0-.02 0-.03 0-.04 0 .01-.01.02-.01.03"/></g><path fill="#BBBCBD" d="M211.85 129.16c0-.02-.01-.03-.01-.04 0 .01 0 .02 0 .03"/><path fill="#676A6A" d="M211.71 127.16c0 .03.01.06.01.09 0 .02 0 .04.01.06v0c.06.48.08 1 .09 1.51 0 .09.01.18.01.27 0 .01 0 .02 0 .03 0 .01-.01.02-.01.03 -.01.1-.02.19-.02.29 -.02.5-.04 1-.1 1.48v0c-.01.02-.01.04-.02.07 -.01.03-.02.07-.03.11 -.08.52-.17 1.03-.29 1.51 -.01 0-.01 0-.01 0v0l.01-.02c0-.01 0-.02 0-.03v0l3.35-3.51 -3.38-3.54s0 0 0 0c.12.49.22 1.01.29 1.54"/><path d="M211.71 131.17c0-.07.02-.13.03-.2 .05-.48.08-.99.09-1.49 0-.12.01-.23.01-.34 0-.11-.02-.21-.02-.32 -.02-.52-.04-1.03-.1-1.52 -.01-.06-.03-.11-.03-.17 -.08-.54-.17-1.06-.3-1.55 -.05-.18-.11-.33-.16-.5 -.31-1.01-.72-1.89-1.21-2.63 -.07-.1-.14-.2-.21-.29 -.14-.19-.27-.36-.42-.52 -.22-.23-.44-.44-.67-.62 -.09-.07-.19-.12-.28-.18 -.2-.13-.41-.25-.62-.33 -.09-.04-.19-.08-.28-.11 -.3-.1-.61-.16-.92-.16 -.32 0-.62.06-.92.15 -.1.02-.19.06-.28.1 -.22.08-.42.19-.62.32 -.09.05-.19.1-.27.17 -.24.17-.46.38-.67.61 -.15.15-.28.33-.42.51 -.07.09-.14.18-.21.28 -.49.73-.91 1.62-1.21 2.62 -.02.04-.03.07-.04.12 -.14.46-.24.94-.33 1.44 -.03.15-.07.29-.09.45 -.08.55-.13 1.13-.14 1.73 -.01.08-.02.16-.02.24h.02c0 4.87 2.3 8.82 5.15 8.82 .49 0 .96-.13 1.41-.35 .07-.04.14-.08.21-.12 .18-.11.36-.23.54-.37 .09-.08.18-.18.28-.26 .22-.22.44-.46.64-.72 .14-.19.28-.38.41-.59 .08-.14.15-.28.23-.42 .14-.27.28-.55.4-.84 .04-.11.09-.21.13-.32 .15-.41.29-.85.41-1.3 .12-.49.21-1 .28-1.52v0Zm-4.82-3.19c-1.07 0-1.94-1.49-1.94-3.32 0-1.83.86-3.31 1.93-3.31 1.06 0 1.93 1.48 1.93 3.31 0 1.82-.87 3.31-1.94 3.31v0Z"/><path fill="#FFF" d="M206.89 121.36c-1.07 0-1.94 1.48-1.94 3.31 0 1.82.86 3.31 1.93 3.31 1.06 0 1.93-1.49 1.93-3.32 0-1.83-.87-3.31-1.94-3.31"/><path fill="#909393" d="M202.148 125.133v0c.3-1.01.71-1.89 1.2-2.63 .06-.1.13-.2.2-.29 .13-.18.26-.36.41-.52 .21-.24.43-.44.66-.62 .08-.07.18-.12.26-.18 .2-.14.4-.24.61-.33 .09-.04.18-.08.27-.11 .29-.1.6-.16.91-.16 .31 0 .61.06.91.15 .09.02.18.06.27.1 .21.08.41.19.61.32 .09.05.18.1.27.17 .23.17.45.38.66.61 .14.15.27.33.41.51 .06.09.13.18.2.28 .49.73.9 1.62 1.2 2.62v0l-4.56-20.88 -4.56 20.87h0"/><path d="M146.29 128.96c-.01-.42-.04-.84-.08-1.25 -.01-.01-.01-.02-.01-.02 -.05-.41-.12-.8-.21-1.19 -.01-.01-.01-.02-.01-.03 -.09-.39-.2-.77-.32-1.14 -.01-.01-.01-.02-.01-.03 -.13-.38-.27-.74-.43-1.09 -.01-.01-.01-.02-.01-.03 -.16-.36-.34-.71-.53-1.04 -.59-1.03-1.32-1.96-2.17-2.77 -1.08-1.03-2.35-1.86-3.75-2.44 -.02-.01-.03-.01-.04-.02 -.69-.29-1.42-.51-2.16-.66 -.02-.01-.04-.01-.06-.01 -.75-.15-1.53-.23-2.32-.23 -.78 0-1.54.08-2.28.22 -.03 0-.06 0-.08.01 -.74.14-1.44.36-2.12.63 -.02 0-.04.01-.06.02 -.69.28-1.35.62-1.97 1.01 -.01 0-.01 0-.01 0 -.63.4-1.21.85-1.75 1.36l-.02.04 -.05.01c-.86.81-1.6 1.75-2.19 2.79 -.01.01-.02.02-.03.03 -.18.31-.35.64-.5.98 -.02.03-.04.07-.06.1 -.14.31-.26.63-.37.95 -.03.06-.05.12-.07.18 -.1.3-.18.61-.25.92 -.02.09-.05.17-.07.26 -.07.3-.11.62-.15.93 -.02.09-.04.19-.05.28 -.05.41-.07.83-.07 1.25 0 .79.08 1.57.23 2.33 0 .01 0 .03 0 .04 .15.75.37 1.47.65 2.17 0 .01 0 .02.01.02 .58 1.4 1.41 2.67 2.45 3.76 .82.85 1.76 1.58 2.8 2.17 0 0 .01 0 .01 0 .32.18.65.34 1 .49 .02.01.05.02.08.04 .31.13.64.25.97.36 .05.01.11.04.16.06 .3.09.61.17.93.24 .08.02.16.04.25.06 .3.06.61.1.93.14 .09.01.18.03.28.04 .41.04.82.06 1.25.06 1.66 0 3.25-.34 4.69-.95 .72-.31 1.4-.68 2.04-1.12 1.28-.87 2.39-1.98 3.25-3.26 .43-.65.8-1.33 1.11-2.05 .61-1.45.94-3.03.94-4.7 0-.03-.01-.06-.01-.09 -.01-.04-.01-.06-.01-.1v0Zm-12.05-1.42c-2.51 0-4.53-2.03-4.53-4.54 0-2.51 2.02-4.53 4.53-4.53 2.5 0 4.53 2.02 4.53 4.53 0 2.5-2.03 4.53-4.53 4.53v0Z"/><path fill="#FFF" d="M134.24 118.49c-2.51 0-4.53 2.02-4.53 4.53 0 2.5 2.02 4.53 4.53 4.53 2.5 0 4.53-2.03 4.53-4.54 0-2.51-2.03-4.53-4.53-4.53"/><path fill="#BBBCBD" d="M125.952 120.404v0l.04-.01 .01-.05 8.3-25.41v-5.95c0-.05-.01-.07-.01-.07 -4.63-.95-9.39-1.47-14.25-1.47 -1.63 0-3.24.06-4.84.17 -.24.01-.47.03-.71.04 -8.34.63-16.55 2.8-24.149 6.27 -6.52 2.97-12.58 6.89-18.03 11.54v0c-.01 0-.01 0-.01 0 -1.47 1.24-2.87 2.55-4.24 3.89 -.26.25-.52.49-.77.75 -1.29 1.29-2.54 2.63-3.74 4.01 -.27.3-.52.6-.78.91 -1.21 1.42-2.39 2.88-3.51 4.38 -.1.12-.18.25-.28.38 -1.07 1.44-2.08 2.93-3.06 4.44 -.2.29-.39.58-.58.88 -.79 1.25-1.53 2.54-2.26 3.83h37.83l34.94-8.64"/><path fill="#E3DDDB" d="M157.895 117.54c.07-1 .14-1.99.19-2.98 .06-1.35.11-2.69.14-4.03 .02-1.05.01-2.09.01-3.13 0-.31 0-.61 0-.91 -.03-2.69-.14-5.38-.3-8.08 -.01-.01-.02-.01-.03-.02 -.01-.01-.01-.02-.01-.02 -.01-.01-.05-.03-.09-.05 -.04-.02-.06-.04-.12-.07 -.5-.29-1.71-.98-2.8-1.6 -.03-.02-.05-.03-.07-.04 -.28-.16-.55-.31-.79-.45 -.01-.01-.01-.01-.02-.01 -.21-.12-.39-.22-.55-.31 -.04-.02-.08-.05-.11-.06 -.18-.1-.32-.18-.4-.22 -1.74-.91-3.52-1.74-5.32-2.5 -4.31-1.82-10.1-3.41-13.37-4.18v6.01l8.23 25.44 0 .02c.85.81 1.58 1.74 2.16 2.76v0c.19.33.36.68.52 1.03 0 0 0 .01.01.02 .15.35.29.71.42 1.08 0 0 0 .01.01.02 .12.37.22.74.31 1.13 0 .01 0 .02 0 .03 .08.38.15.78.2 1.18 0 0 0 .01 0 .01 .04.4.07.82.08 1.24l.03.06h10.08c.68-3.69 1.15-7.43 1.45-11.19 0-.11.01-.21.02-.31"/><path fill="#FCB03F" d="M171.07 108.55c-.01.01-.02.02-.02.03 0-.02.01-.03.01-.04"/><path fill="#909393" d="M126.01 120.353v0c.53-.51 1.12-.97 1.74-1.37 0 0 0-.01 0-.01 .61-.4 1.27-.74 1.96-1.02 .01-.01.03-.02.05-.03 .67-.28 1.38-.49 2.11-.64 .02-.01.05-.01.07-.02 .73-.15 1.49-.23 2.27-.23 .79 0 1.56.08 2.31.22 .01 0 .03 0 .05 0 .74.15 1.46.37 2.15.65 .01 0 .02 0 .03.01 1.39.57 2.66 1.4 3.74 2.43l-.01-.03 -8.24-25.45 -8.31 25.4"/><path fill="#676A6A" d="M123.085 133.69c-.29-.7-.51-1.43-.66-2.18 -.01-.02-.01-.04-.01-.05 -.15-.76-.24-1.54-.24-2.33 0-.43.02-.85.06-1.26 .01-.1.03-.19.04-.29 .04-.32.08-.64.14-.94 .01-.09.04-.18.06-.27 .07-.32.15-.63.24-.93 .02-.07.04-.13.06-.19 .11-.33.22-.65.36-.96 .01-.04.03-.07.05-.11 .15-.34.31-.67.49-.99 0-.02.01-.03.02-.04 .59-1.04 1.33-1.98 2.18-2.8l-34.95 8.63h-.07l34.6 8.44c-1.04-1.09-1.88-2.36-2.46-3.76 -.01-.01-.01-.02-.02-.03"/><g fill="#E3DDDB"><path d="M201.7 127.148c.02-.16.05-.31.08-.46 .08-.5.19-.99.32-1.45 .01-.06.02-.12.03-.17l4.55-20.88 -.01-11.91c-3.73-3.08-7.72-4.759-11.87-4.759 -5.25 0-10.15 2.89-13.8 6.47 -4.01 3.91-7.1 8.84-9.6 13.81 -.12.22-.24.44-.35.67 .77.66 1.53 1.34 2.28 2.03 1.7 1.55 3.37 3.15 5.01 4.78 .76.75 1.51 1.52 2.27 2.29 .8.81 1.6 1.62 2.38 2.45 1.01 1.06 2.01 2.13 3.01 3.22 .41.45.83.91 1.25 1.37 1.19 1.32 2.39 2.66 3.56 4.01l0 0c.19.2.33.35.38.41h10.28c0-.09.01-.16.01-.25 .01-.6.05-1.18.13-1.73"/><path d="M171.09 108.58c-.01-.02-.01-.03-.02-.04 -.01.01-.02.02-.02.03 0 0 .03.03.04.04 -.01-.02-.01-.04-.02-.05"/></g><path fill="#525353" d="M46.97 142.17c.03-.08.06-.16.09-.23 .66-1.74 1.38-3.44 2.14-5.14 .21-.48.43-.94.65-1.41 .62-1.33 1.28-2.64 1.96-3.94 .27-.53.55-1.06.83-1.59 .15-.29.33-.57.5-.86 .73-1.29 1.46-2.58 2.25-3.83 .18-.3.38-.59.57-.89 .97-1.52 1.99-3 3.05-4.45 .09-.13.17-.26.27-.39 1.11-1.51 2.29-2.96 3.5-4.39 .25-.31.51-.61.77-.92 1.2-1.38 2.44-2.73 3.73-4.02 .25-.26.51-.51.76-.76 1.36-1.35 2.76-2.66 4.23-3.9 0-.01 0-.01 0-.01 5.75-19.27 24.32-31.11 45.14-31.11 8.38 0 16.71 2.41 23.85 6.78 7.32 4.48 12.32 8.85 16.19 16.512 .01.03.03.07.05.11 .09.19.2.38.3.57 0 0 0 .01.01.01 0 0 .01.01.02.01 3.24 1.99 6.33 4.26 9.28 6.74 .98.82 1.94 1.67 2.89 2.55 .31.28.63.55.94.84 0-.02.01-.03.01-.04 0-.01 0-.02.01-.03 .1-.22.21-.44.31-.66 2.93-18.52 12.25-28.62 21.89-28.62 7.26 0 12.54 4.33 16.52 15.98l.04.12s0 0 .01.01c1.12 1.22 2.22 2.57 3.28 4.04l-.01-.01c.02.02.04.05.06.08l-.01-.01 0 0c.05.16.1.34.16.51v-.01l-.15-.61c-11.99-35.49-45.55-61.03-85.08-61.03 -49.58 0-89.772 40.19-89.772 89.77 0 9.77 1.56 19.18 4.46 27.94 0-.02 0-.04.01-.06 .57-2.65 1.25-5.27 2.04-7.87 .62-2.03 1.3-4.04 2.06-6.02"/><path fill="#FFF" d="M214.577 129.155l-3.14 3.5v-.01c-.01 0-.01.01-.01.02 -.12.46-.27.89-.43 1.3 -.05.1-.09.21-.14.31 -.13.29-.26.57-.41.83 -.08.14-.16.28-.24.41 -.13.2-.27.39-.42.58 -.21.26-.43.5-.65.71 -.1.08-.19.18-.29.26 -.18.14-.36.25-.55.36 -.08.04-.15.07-.22.11 -.45.21-.92.34-1.41.34 -2.85 0-5.16-3.96-5.16-8.83h-10.34s0 0 0 0c1.92 2.21 3.8 4.46 5.66 6.73 .02.02.04.05.06.08 1.8 2.2 3.59 4.43 5.35 6.67 .08.11.17.21.26.32 1.67 2.13 3.32 4.27 4.96 6.43 .15.2.31.41.47.62 1.73 2.28 3.45 4.56 5.15 6.85 .01.01.02.03.03.04 2.95-8.738 4.6-18.08 4.7-27.79l-2.91-.11 -.46.14"/><path d="M114.52 87.69c.23-.02.46-.04.7-.05 1.6-.11 3.21-.18 4.83-.18 4.86 0 9.62.52 14.25 1.47h0c3.26.76 9.06 2.36 13.36 4.17 1.8.76 3.58 1.59 5.31 2.49 .08.04.21.11.39.21 .03.01.07.04.1.06 .16.09.33.18.54.3 0 0 0 0 .01 0 .24.13.5.28.78.44 .02.01.04.02.07.04 1.1.62 2.33 1.33 2.79 1.59 .06.03.08.05.12.06 .02.01.07.04.08.04 -.1-.2-.21-.39-.31-.58 -.02-.04-.04-.08-.06-.12 -3.88-7.66-9.85-14.22-17.18-18.7 -7.15-4.37-15.48-6.79-23.86-6.79 -20.82 0-38.42 14.02-44.17 33.288 5.44-4.65 11.5-8.57 18.021-11.55 7.6-3.47 15.81-5.65 24.149-6.28"/><path fill="#BBBCBD" d="M213.225 99.51l-.01-.01 0 0c-.03-.03-.05-.06-.07-.09l0 0c-1.07-1.48-2.17-2.83-3.29-4.05 -.01-.01-.01-.01-.01-.02 0 0 0 0 0 .01 -.01-.02-.02-.03-.03-.04 -.52-.56-1.03-1.09-1.56-1.59 -.2-.19-.41-.36-.6-.54 -.33-.3-.66-.61-.99-.89v11.9l4.55 20.87v-.01c.05.16.11.31.15.48l3.15 3.53 .03-.04h3.3c0-.31.02-.61.02-.92v-.01c-.01-9.85-1.62-19.31-4.55-28.18v0c-.06-.17-.11-.35-.17-.52"/><g><path d="M181.038 94.03c3.65-3.58 8.55-6.48 13.8-6.48 4.15 0 8.14 1.68 11.86 4.759 0 0 0 .02 0 .03v0 -.01c.33.27.66.58.99.88 .19.18.4.34.6.53 .52.5 1.03 1.03 1.55 1.58 .01.01.02.02.02.03 -.01-.01-.01-.01-.01-.02l-.01-.01 -.05-.13c-3.99-11.66-10.42-19.229-17.68-19.229 -9.64 0-17.81 13.34-20.74 31.85l.03-.03c2.5-4.98 5.59-9.91 9.6-13.82"/><path d="M168.019 207.836s-1.3-1.03-2.95-2.93c-.39-.45-.79-.92-1.2-1.46 -.32-.41-.63-.84-.95-1.3 -.21-.31-.42-.63-.625-.96 -.63-.99-1.12-2.19-1.67-3.37 -.64-1.38-.64-2.29-1-3.57 -.26-.92-.48-1.87-.64-2.87 -.25-1.49-.36-3.07-.31-4.73 .02-.92.12-1.86.25-2.82 .13-.93.31-1.88.55-2.84 .72-2.91 1.98-6 3.93-9.26 0-.01.49-1.11.49-1.12 .64-1.07.78-1.02 1.39-2.05 8.56-14.46 13.18-25.39 10.92-42.21 -.17-1.21-.61-3.9-.85-5.16 -.13.87-.62 3.65-.625 3.71 -.09.38-.32.8-.41 1.06 -3.72 11.01-9.58 19.1-18.01 28.25 -1.15 1.23-2.34 2.49-3.57 3.76 -2.06 2.13-4.22 4.31-6.51 6.59 -.92.9-1.85 1.82-2.79 2.76 -.87.86-1.95 2.69-3.24 4.05 -.8 2.22-1.71 4.74-2.47 7.38 -.35-.14-.68-.25-1.03-.39 -16.37-6.34-27.33-14.79-27.33-14.79s8.43 10.97 22.63 21.28c1.375.99 2.73 1.86 4.05 2.62 -.59 9.27 3.5 18.18 21.97 20.83 3.12.44 6.32.42 9.54.06 -.04-.1.18-.1.16-.15 -.02-.06.17-.2.17-.2"/></g><path fill="#9F2254" d="M158.13 183.959c16.39 2.64 40.66 2.21 65.86-9.59 .6-.29 1.27.46 1.88.16 0 0-17.22 17.58-37.79 27.53 -.61.29-1.2.59-1.81.875 -1.99.9-4.01 1.69-6.04 2.42 -3.98 1.43-8.02 2.51-12.02 3.01 -.19.02-.37.05-.56.07 -.04-.1-.06-.18-.08-.23 -.02-.06-.03-.09-.03-.09s-1.3-1.03-2.95-2.93c-.39-.45-.79-.92-1.2-1.46 -.32-.41-.63-.84-.95-1.3 -.21-.31-.42-.63-.63-.96 -.63-.99-1.23-2.08-1.78-3.26 -.55-1.19-1.04-2.47-1.43-3.84 -.27-.92-.48-1.87-.64-2.87 -.25-1.5-.36-3.07-.31-4.73 .02-.92.12-1.86.25-2.82l.13-.07"/><path fill="#FCB03F" d="M146.38 165.29c2.28-2.28 4.44-4.46 6.506-6.59 1.22-1.27 2.42-2.53 3.56-3.77 8.42-9.15 14.61-17.71 18.33-28.72 .08-.27.17-.61.26-1 .01-.06.02-.12.04-.18 .08-.42.17-.87.25-1.39 .03-.36 1.14-1.08 1.17-1.41 -.94-4.8-3.09-9.84-5.43-13.69 0 .01.01.03.01.04 -.01-.01-.04-.04-.05-.05 -.31-.3-.63-.57-.95-.85 -.95-.875-1.92-1.73-2.9-2.56 -2.95-2.49-6.04-4.75-9.29-6.75 .16 2.69.26 5.38.29 8.07 0 .3-.01.6-.01.9 0 1.04 0 2.08-.02 3.13 -.03 1.34-.08 2.68-.15 4.02 -.06.99-.12 1.98-.2 2.97 -.01.1-.02.2-.03.3 -.31 3.75-.78 7.49-1.46 11.18l-1.19 5.59c-2.48 10.02-7.5 19.12-11.63 28.51 -1.1 2.49-2.14 5-3.05 7.57 -.09.23-.18.48-.26.72 1.29-1.36 2.43-2.53 3.3-3.39 .94-.94 1.87-1.86 2.78-2.77"/><path fill="#525353" d="M92.198 219.21c6-2.66 11.57-4.33 18.18-5.63 -.04-1.44-.11-2.87-.23-4.29 2.83-7.35 5.44-14.74 7.8-22.17 -4.22.4-8.4 1.05-12.54 1.93 -3.07.65-6.1 1.46-9.1 2.37 -2.42.72-4.79 1.56-7.15 2.44l9.33 2.26 -7.51 23.56 1.19-.5"/><path fill="#DF0067" d="M207.559 149.378c-1.64-2.16-3.3-4.3-4.97-6.43 -.09-.11-.18-.22-.26-.33 -1.77-2.25-3.55-4.48-5.36-6.68 -.03-.03-.05-.06-.07-.09 -1.87-2.27-3.75-4.52-5.67-6.73 -.13-.15-.25-.29-.37-.43 -1.18-1.36-2.37-2.69-3.57-4.02 -.42-.46-.84-.92-1.26-1.38 -1-1.09-2-2.16-3.02-3.23 -.79-.83-1.59-1.65-2.39-2.46 -.76-.77-1.51-1.55-2.28-2.3 -1.65-1.63-3.32-3.23-5.02-4.79 -.76-.69-1.52-1.37-2.29-2.04 -.01 0-.01.01-.02.02 1.62 4.66 3.47 9.38 4.4 14.24 .24 1.26.44 2.49.6 3.69 2.26 16.82-3.14 27.81-11.7 42.26 -.62 1.03-1.25 2.09-1.89 3.16 -1.96 3.26-3.22 6.35-3.94 9.26 -.25.96-.43 1.91-.56 2.83 16.79 2.71 42.04 3.21 67.882-9.48 0 0-5.07-7.45-12.7-17.69 -1.71-2.29-3.43-4.58-5.16-6.86 -.16-.21-.32-.42-.48-.63"/><path fill="#AA9678" d="M90.115 223.92l8.4-27.78 -9.34-2.26c-2.09.78-4.17 1.62-6.21 2.53l-8.32 27.5 9.28.14 6.16-.15"/><path fill="#FFF" d="M96.02 211.904c.82.31 1.65.59 2.48.89 9.28 3.25 19.25 5.04 29.65 5.04 11.85 0 23.16-2.33 33.52-6.5 .54-.22 1.08-.47 1.62-.7 .88-.38 1.75-.76 2.61-1.17 .77-.36 1.54-.72 2.31-1.1 -.19.02-.37.05-.56.07 -3.23.36-6.42.38-9.55-.07 -18.48-2.66-22.57-11.57-21.98-20.84 -1.33-.77-2.69-1.63-4.06-2.63 -14.21-10.31-22.64-21.29-22.64-21.29s10.95 8.45 27.32 14.79c.35.13.68.25 1.02.38 .76-2.65 1.67-5.16 2.46-7.39 .08-.25.17-.49.25-.73 .91-2.57 1.95-5.09 3.04-7.58 4.13-9.39 9.15-18.49 11.62-28.51l1.18-5.6H146.2l-.01 0s0 .01 0 .02l-.01 0c0 .02 0 .05 0 .08 0 1.66-.34 3.25-.95 4.69 -.31.72-.68 1.4-1.12 2.04 -.87 1.28-1.98 2.39-3.26 3.25 -.65.43-1.33.8-2.05 1.11 -1.45.61-3.03.94-4.7.94 -.43 0-.85-.03-1.26-.07 -.1-.01-.19-.04-.29-.05 -.32-.05-.63-.09-.94-.15 -.09-.02-.17-.05-.26-.07 -.32-.08-.63-.15-.94-.25 -.06-.02-.11-.05-.17-.07 -.33-.12-.66-.23-.98-.37 -.03-.02-.06-.03-.09-.04 -.35-.16-.68-.32-1-.5l-.02-.01c-1.04-.59-1.99-1.32-2.81-2.18l-34.61-8.45H52.96c-.17.28-.35.56-.51.85 -.29.52-.56 1.05-.84 1.58 -.69 1.29-1.35 2.6-1.97 3.93 -.22.46-.44.93-.66 1.4 -.77 1.69-1.49 3.4-2.15 5.13 -.03.07-.07.15-.1.23 -.76 1.98-1.45 3.99-2.07 6.01 -.8 2.59-1.48 5.22-2.05 7.86 5.94 18.13 17.51 33.72 32.63 44.7 .44.31.9.6 1.35.91 2.55 1.78 5.2 3.46 7.94 4.97 3.6 1.99 7.34 3.76 11.22 5.25"/><path fill="#8B7460" d="M186.58 233.374c-.24-2.39-.38-4.8-.38-7.23 0-1.47-1.19-2.65-2.65-2.65H72.43c-1.47 0-2.65 1.18-2.65 2.64 0 2.43-.15 4.83-.38 7.22 -.26 2.63-.67 5.24-1.2 7.8 1.61.85 3.23 1.68 4.88 2.46 1.08-4.78 1.75-9.68 1.93-14.68 0-.06 0-.12.01-.18h105.9c0 .05 0 .11.01.17 .17 5 .84 9.9 1.93 14.67 1.65-.79 3.27-1.62 4.88-2.47 -.54-2.57-.95-5.17-1.2-7.81"/></svg>