<svg viewBox="0 0 256 256" xmlns="http://www.w3.org/2000/svg"><rect width="24.38" height="12.19" x="182.857" rx="5" y="48.761" fill="#56B3B4"/><rect width="73.142" height="12.19" rx="5" ry="5" y="243.809" fill="#EA5E5E"/><rect width="48.761" height="12.19" x="146.285" rx="5" y="146.285" fill="#BF85BF"/><rect width="60.952" height="12.19" x="73.142" rx="5" y="146.285" fill="#EA5E5E"/><rect width="60.952" height="12.19" rx="5" y="146.285" fill="#56B3B4"/><g fill="#BF85BF"><rect width="73.142" height="12.19" rx="5" y="195.047"/><rect width="73.142" height="12.19" rx="5" y="97.523"/></g><rect width="134.095" height="12.19" x="60.952" y="24.38" rx="5" ry="5" fill="#F7BA3E"/><rect width="48.761" height="12.19" rx="5" ry="5" y="24.38" fill="#EA5E5E"/><rect width="24.38" height="12.19" x="48.761" rx="5" y="219.428" fill="#F7BA3E"/><g fill="#56B3B4"><rect width="24.38" height="12.19" x="48.761" rx="5" y="73.142"/><rect width="36.571" height="12.19" rx="5" y="219.428"/></g><rect width="36.571" height="12.19" rx="5" y="73.142" fill="#F7BA3E"/><g fill="#D0D4D8"><rect width="24.38" height="12.19" x="158.476" y="219.428" opacity=".5" rx="5"/><rect width="60.952" height="12.19" x="85.333" y="219.428" opacity=".5" rx="5"/><rect width="60.952" height="12.19" x="195.047" y="219.428" opacity=".5" rx="5"/></g><rect width="109.714" height="12.19" x="97.523" rx="5" y="121.904" fill="#56B3B4"/><rect width="48.761" height="12.19" x="36.571" y="121.904" rx="5" ry="5" fill="#F7BA3E"/><rect width="24.38" height="12.19" rx="5" y="121.904" fill="#EA5E5E"/><rect width="60.952" height="12.19" x="109.714" rx="5" y="48.761" fill="#BF85BF"/><rect width="97.523" height="12.19" rx="5" y="48.761" fill="#56B3B4"/><rect width="121.904" height="12.19" x="36.571" rx="5" y="170.666" fill="#F7BA3E"/><rect width="24.38" height="12.19" rx="5" y="170.666" fill="#BF85BF"/><rect width="73.142" height="12.19" x="146.285" rx="5" y="73.142" fill="#EA5E5E"/><rect width="73.142" height="12.19" x="146.285" rx="5" y="97.523" fill="#F7BA3E"/><rect width="158.476" height="12.19" rx="5" ry="5" fill="#56B3B4"/><g fill="#D0D4D8"><rect width="85.333" height="12.19" x="170.666" opacity=".5" rx="5" ry="5"/><rect width="36.571" height="12.19" x="170.666" y="170.666" opacity=".5" rx="5"/><rect width="36.571" height="12.19" x="219.428" y="170.666" opacity=".5" rx="5"/><rect width="48.761" height="12.19" x="207.238" y="146.285" opacity=".5" rx="5"/><rect width="48.761" height="12.19" x="207.238" y="24.38" opacity=".5" rx="5" ry="5"/><rect width="36.571" height="12.19" x="219.428" y="121.904" opacity=".5" rx="5"/><rect width="36.571" height="12.19" x="219.428" y="48.761" opacity=".5" rx="5"/><rect width="24.38" height="12.19" x="231.619" y="73.142" opacity=".5" rx="5"/><rect width="24.38" height="12.19" x="231.619" y="97.523" opacity=".5" rx="5"/><rect width="121.904" height="12.19" x="134.095" y="195.047" opacity=".5" rx="5"/><rect width="36.571" height="12.19" x="85.333" y="195.047" opacity=".5" rx="5"/><rect width="73.142" height="12.19" x="182.857" y="243.809" opacity=".5" rx="5" ry="5"/><rect width="85.333" height="12.19" x="85.333" y="243.809" opacity=".5" rx="5" ry="5"/><rect width="48.761" height="12.19" x="85.333" y="73.142" opacity=".5" rx="5" ry="5"/><rect width="48.761" height="12.19" x="85.333" y="97.523" opacity=".5" rx="5" ry="5"/></g></svg>