<svg viewBox="0 0 256 256" xmlns="http://www.w3.org/2000/svg"><path fill="#417EDF" d="M234.02 56.2c-7.77-11.6-20.69-24.85-33.66-33.42C173.41 4.32 142.2-2.23 114.6.63c-28.79 3.1-53.44 13.95-73.71 32.04C22.11 49.43 9.72 69.93 4.26 89.49c-5.53 19.55-4.79 37.65-2.82 51.28 2.07 13.83 8.97 31.24 8.97 31.24 1.4 3.33 3.35 4.69 4.37 5.25 5.03 2.75 13.3.33 19.64-6.8 .31-.44.49-1.05.31-1.56 -1.78-6.82-2.42-11.95-3.04-15.92 -1.44-7.86-2.08-21.01-1.12-33.17 .47-6.59 1.75-13.63 3.99-21.01 4.33-14.59 13.46-29.81 27.73-42.46 15.37-13.63 35.08-22.04 53.82-24.22 6.57-.79 19.07-1.55 34.12 2.16 3.21.8 16.99 4.39 31.73 14.37 10.73 7.29 19.37 16.29 25.32 25.2 6.05 8.5 12.63 22.83 14.57 33.33 2.73 11.94 2.73 24.6.78 36.93 -2.4 12.35-6.74 24.36-13.47 34.93 -4.64 8.19-14.27 19.01-25.64 27.14 -10.26 7.21-21.96 12.41-33.97 15.29 -6.08 1.44-12.19 2.35-18.44 2.56 -5.56.17-12.93 0-18.11-.88 -7.7-1.23-9.3-3.19-11.06-5.86 0 0-1.23-1.93-1.57-7.07 .11-46.99.09-34.45.09-58.84 0-6.9-.23-13.15-.16-18.82 .31-9.32 1.1-15.72 7.76-22.65 4.81-5.11 11.54-8.2 18.95-8.2 2.25 0 10 .1 16.82 5.77 7.3 6.1 8.53 14.44 8.82 16.67 1.66 13.04-6.96 22.76-10.27 25.22 -4.1 3.07-7.78 4.56-10.27 5.44 -5.3 1.77-11.11 2.28-16.34 1.94 -.8-.06-1.53.46-1.69 1.26l-1.76 9.13c-1.72 6.93 2.13 9.47 4.37 10.36 7.15 2.2 13.5 3.12 21.02 2.56 11.53-.82 22.9-5.36 32.55-14.36 8.21-7.81 12.89-17.45 14.49-28.22 1.59-11.96-.48-24.84-5.94-35.74 -6-12.03-16.35-22.06-29.98-27.56 -13.78-5.42-24.73-5.62-38.85-2.01l-.16.05c-9.18 3.15-17.03 7.05-25.2 15.48 -5.6 5.82-10.19 12.87-12.99 20.83 -2.78 8.02-3.52 14-3.65 23.3 -.18 6.89.15 13.29.15 19.28v39.47c0 12.62-.43 14.81 0 21.31 .23 4.3.83 9.18 2.71 14.42 1.94 5.77 6.01 11.69 8.81 14.42 3.91 4.17 8.89 7.52 13.79 9.6 11.21 4.98 26.43 5.77 38.77 5.29 8.17-.31 16.38-1.45 24.43-3.35 16.1-3.83 31.57-10.8 45.17-20.46 14.58-10.28 27.25-24.29 34.25-36.2 8.97-14.15 14.77-30.02 17.79-46.33 2.71-16.35 2.59-33.1-1.06-49.2 -2.88-14.94-10.58-31.32-19.45-44.55l.4.39v0Z"/></svg>