<svg viewBox="0 0 512 64" xmlns="http://www.w3.org/2000/svg"><g transform="translate(0 5.22594)"><path fill="#FF2638" d="M27.86 27.42l27.86 27.42 -55.73 0Z"/><path fill="#FFC600" d="M0 0l27.86 27.42L55.72-.01Z"/><path fill="#0079F2" d="M27.86 27.42l27.86 27.42 27.86-27.43L55.71-.02Z"/></g><path fill="#000C2C" d="M504.24 18.22c0 .39-.56.57-.82.26 -2.04-2.37-5.41-4.17-10.02-4.17 -9.98 0-15.65 8.05-15.65 17.8 0 9.68 5.66 17.73 15.64 17.73 4.67 0 8.32-1.64 10.58-4.46 .25-.32.82-.15.82.25v3.01c0 .22.17.4.39.4h6.36c.22 0 .4-.18.4-.41V.35c0-.23-.19-.41-.41-.41h-6.96c-.23 0-.4.18-.4.4v17.82Zm.32 13.9c0 6.09-3.59 10.86-9.52 10.86 -5.87 0-9.52-4.78-9.52-10.87 0-6.22 3.64-10.93 9.51-10.93 5.93 0 9.51 4.71 9.51 10.92Zm-28.73-16.91c0-.21-.16-.39-.37-.4 -.25-.02-.5-.04-.75-.04 -4.8 0-7.59 1.92-9.12 3.8 -.26.31-.86.14-.86-.27v-2.81c0-.23-.18-.41-.4-.41h-6.38c-.23 0-.4.18-.4.4v33.16c0 .22.17.4.39.4h6.95c.22-.01.39-.19.39-.41V31.36c0-6.55 3.26-9.43 8.73-9.43 .46 0 .95.04 1.29.07 .11.01.23-.03.31-.11 .08-.08.13-.19.14-.31v-6.44 0Zm-32.85 17.95c.11-.02.23.01.32.09 .08.07.13.18.13.3v1.69c0 4.58-3.07 8.5-9.33 8.5 -3.72 0-6.01-1.25-6.01-4.46 0-2.36 1.56-4.12 6.32-4.85l8.53-1.3v-.01Zm-10.43 16.68c4.82 0 8.45-1.41 10.8-4.17 .25-.31.81-.14.83.26 .09 1.94.37 3.1.42 3.1h6.75c.28 0 .48-.3.39-.57 -.48-1.49-.78-3.9-.78-5.85V26.96c0-7.79-4.7-12.7-14.6-12.7 -9.99 0-14.08 5.23-14.88 11.01 -.02.11.02.22.09.3 .07.08.18.13.29.13h6.77c.19 0 .35-.15.4-.34 .63-2.95 3.02-4.71 7.1-4.71 4.62 0 7.23 2.09 7.23 6.21v.17c-.01.2-.15.36-.35.39l-9.44 1.32c-8.93 1.24-12.97 4.97-12.97 10.72 0 5.82 3.45 10.27 11.86 10.27v0Zm-32.4 0c10.81 0 17.59-8.19 17.59-17.74 0-9.56-6.78-17.81-17.6-17.81 -10.76 0-17.54 8.24-17.54 17.8 0 9.55 6.77 17.73 17.53 17.73v0Zm-9.78-17.74c0-6.62 4.16-10.94 9.77-10.94 5.67 0 9.84 4.31 9.84 10.92 0 6.54-4.17 10.86-9.85 10.86 -5.61 0-9.78-4.32-9.78-10.87v0Zm-36.33-13.65c-.26.3-.81.12-.81-.27V.35c0-.23-.19-.41-.41-.41h-6.96c-.23 0-.41.18-.41.4v48.27c0 .22.17.4.4.4h6.36c.22 0 .4-.18.4-.41v-3.05c0-.41.55-.58.8-.26 2.31 2.84 5.96 4.49 10.59 4.49 10.03 0 15.7-8.06 15.7-17.74 0-9.76-5.68-17.81-15.71-17.81 -4.56 0-7.97 1.79-10.02 4.16Zm-1.08 13.63c0-6.22 3.58-10.93 9.51-10.93 5.86 0 9.52 4.71 9.52 10.92 0 6.09-3.66 10.86-9.53 10.86 -5.93 0-9.52-4.78-9.52-10.87Zm-14.09 10.55c-.01-.13-.07-.25-.17-.33 -.11-.08-.24-.11-.36-.09 -.45.08-1.14.2-1.89.2 -2.68 0-3.78-1.32-3.78-4V21.66c0-.23.18-.4.4-.4h5.51c.22 0 .4-.18.4-.41v-5.41c0-.23-.19-.41-.41-.41h-5.53c-.11 0-.21-.05-.29-.12 -.08-.08-.12-.18-.12-.29V6.59c0-.23-.18-.41-.4-.41h-6.96c-.23 0-.41.18-.41.4v8.03c0 .1-.05.2-.12.28 -.08.07-.18.11-.29.11h-4.35c-.23-.01-.41.17-.41.39v5.41c0 .22.17.4.4.4h4.34c.22 0 .4.17.4.39v17.53c0 6.41 3 10.01 9.91 10.01 1.91 0 3.19-.22 3.74-.33 .17-.04.29-.2.29-.38v-5.91 0Zm-54.72-10.56c0 9.81 6.9 17.73 16.88 17.73 9.78 0 14.86-6.66 15.95-12.63 .02-.12-.02-.24-.09-.33 -.08-.09-.19-.14-.31-.14h-7.18c-.19 0-.35.12-.4.3 -1.01 3.49-4.02 5.91-8.07 5.91 -5.54 0-9.06-4.52-9.06-10.87 0-6.42 3.51-10.93 9.05-10.93 4.05 0 7.06 2.41 8.06 5.91 .04.17.21.3.39.3h7.17c.11 0 .22-.05.3-.14 .07-.09.1-.21.08-.33 -1.1-5.98-6.18-12.63-15.96-12.63 -9.98 0-16.89 7.91-16.89 17.79v0Zm-13.07 2.55c0 5.56-3 8.5-7.82 8.5 -4.7 0-6.59-3.08-6.59-7.73V15.43c0-.23-.19-.41-.41-.41h-6.96c-.23 0-.41.18-.41.4v21c0 7.91 4.24 13.34 12.44 13.34 4.55 0 7.67-1.72 9.41-3.85 .26-.33.89-.14.89.27v2.38c0 .22.17.4.4.4h6.36c.22 0 .4-.18.4-.41V15.38c0-.23-.19-.41-.41-.41h-6.96c-.23 0-.41.18-.41.4v19.16 0Zm-35.87-16.46c0 .39-.56.57-.82.26 -2.04-2.37-5.41-4.17-10.02-4.17 -9.98 0-15.65 8.05-15.65 17.8 0 9.68 5.67 17.73 15.64 17.73 4.66 0 8.31-1.64 10.58-4.46 .25-.32.81-.15.81.25v3.01c0 .22.17.4.4.4h6.36c.22 0 .4-.18.4-.41V.29c0-.23-.19-.41-.41-.41h-6.96c-.23 0-.41.18-.41.4V18.1h0Zm.32 13.9c0 6.09-3.59 10.86-9.52 10.86 -5.87 0-9.53-4.78-9.53-10.87 0-6.22 3.65-10.93 9.52-10.93 5.92 0 9.51 4.71 9.51 10.92ZM188 49.79c10.82 0 17.59-8.19 17.59-17.74 0-9.57-6.78-17.81-17.6-17.81 -10.76 0-17.54 8.24-17.54 17.8 0 9.55 6.77 17.73 17.53 17.73v0Zm-9.78-17.74c0-6.62 4.16-10.94 9.77-10.94 5.67 0 9.84 4.31 9.84 10.92 0 6.54-4.17 10.86-9.85 10.86 -5.61 0-9.78-4.32-9.78-10.87v0Zm-8.65-16.91c0-.21-.16-.39-.37-.4 -.25-.02-.5-.04-.74-.04 -4.8 0-7.59 1.92-9.13 3.8 -.26.31-.86.14-.86-.27v-2.81c0-.23-.19-.41-.41-.41h-6.37c-.23 0-.41.18-.41.4v33.16c0 .22.17.4.4.4h6.95c.22 0 .4-.18.4-.41V31.29c0-6.55 3.25-9.43 8.73-9.43 .47 0 .95.04 1.29.07 .11.01.23-.03.31-.11 .08-.08.13-.19.14-.31v-6.44Zm-49.58 30.77c0-.41.55-.58.81-.27 2.04 2.39 5.45 4.13 10 4.13 10.03 0 15.7-8.06 15.7-17.74 0-9.76-5.68-17.81-15.71-17.81 -4.64 0-8.29 1.7-10.61 4.52 -.26.3-.81.13-.81-.27V15.4c0-.23-.19-.41-.41-.41h-6.37c-.23 0-.41.18-.41.4v46.77c0 .22.17.4.4.4h6.95c.22 0 .4-.18.4-.41v-16.3h-.01Zm-.26-13.87c0-6.29 3.58-11.07 9.51-11.07 5.86 0 9.52 4.77 9.52 11.06 0 6.09-3.66 10.86-9.53 10.86 -5.93 0-9.52-4.78-9.52-10.87Z"/></svg>