<svg viewBox="0 0 256 256" xmlns="http://www.w3.org/2000/svg"><path fill="#FBDE34" d="M0 .25h255.83v255.71H-.01Z"/><path fill="#524739" d="M110.25 197.03v7.48h-8.19v20.15c0 1.89.31 3.15.94 3.78 .63.62 1.88.94 3.77.94 .63 0 1.23-.03 1.81-.08 .57-.06 1.12-.14 1.65-.24v8.66c-.95.15-2 .26-3.15.31 -1.16.05-2.29.07-3.39.07 -1.74 0-3.38-.12-4.93-.36 -1.55-.24-2.92-.7-4.1-1.38 -1.19-.69-2.12-1.66-2.8-2.92 -.69-1.26-1.03-2.92-1.03-4.97v-24.02h-6.78v-7.49h6.77v-12.21H102v12.2h8.18Zm15.74-15.52v21.18h.23c1.41-2.37 3.22-4.09 5.43-5.16 2.2-1.08 4.35-1.62 6.45-1.62 2.99 0 5.44.4 7.36 1.22 1.91.81 3.42 1.94 4.52 3.38 1.1 1.44 1.87 3.2 2.32 5.27 .44 2.07.66 4.37.66 6.89v25.04h-11.19v-23c0-3.36-.53-5.87-1.58-7.53 -1.06-1.66-2.92-2.49-5.6-2.49 -3.05 0-5.25.9-6.62 2.71s-2.05 4.79-2.05 8.93v21.33h-11.19v-56.23h11.18Zm43.54 46.45c1.67 1.62 4.09 2.44 7.24 2.44 2.25 0 4.19-.57 5.82-1.7 1.62-1.13 2.62-2.33 2.99-3.59h9.84c-1.58 4.88-4 8.37-7.25 10.47 -3.26 2.1-7.2 3.15-11.82 3.15 -3.21 0-6.1-.52-8.67-1.54 -2.58-1.03-4.76-2.49-6.54-4.38 -1.79-1.89-3.17-4.15-4.14-6.78 -.98-2.63-1.46-5.52-1.46-8.67 0-3.05.49-5.88 1.49-8.51 .99-2.63 2.41-4.9 4.25-6.82 1.83-1.92 4.02-3.43 6.57-4.53 2.54-1.11 5.36-1.66 8.46-1.66 3.46 0 6.48.66 9.05 2 2.57 1.33 4.68 3.13 6.33 5.39 1.65 2.25 2.84 4.83 3.58 7.71 .73 2.88.99 5.9.78 9.05h-29.38c.15 3.62 1.07 6.24 2.75 7.87Zm12.63-21.42c-1.34-1.47-3.38-2.21-6.11-2.21 -1.79 0-3.27.3-4.45.9 -1.19.6-2.13 1.35-2.84 2.24 -.71.89-1.21 1.83-1.5 2.83 -.29.99-.47 1.88-.52 2.67h18.18c-.53-2.84-1.46-4.99-2.8-6.46Zm27.28-9.53v5.67h.23c1.41-2.37 3.25-4.09 5.51-5.16 2.25-1.08 4.56-1.62 6.92-1.62 2.99 0 5.44.4 7.36 1.22 1.91.81 3.42 1.94 4.52 3.38 1.1 1.44 1.87 3.2 2.32 5.27 .44 2.07.66 4.37.66 6.89v25.04h-11.19v-23c0-3.36-.53-5.87-1.58-7.53 -1.06-1.66-2.92-2.49-5.6-2.49 -3.05 0-5.25.9-6.62 2.71s-2.05 4.79-2.05 8.93v21.33h-11.19v-40.72h10.63v0Z"/></svg>