<svg viewBox="0 0 512 197" xmlns="http://www.w3.org/2000/svg"><path fill="#3E3E3E" d="M0 180.24V142.7c0-8.77 7.73-15.81 17.27-15.81h35.32c23.67 0 29.91-22.64 29.91-34.59 0-9.18-2.9-17.77-7.91-23.65 -5.3-6.1-12.47-9.07-22.02-9.07H17.25C7.7 59.58-.03 52.52-.03 43.79c0-8.72 7.73-15.81 17.27-15.81h35.32c19.92 0 37.35 7.48 49.09 21.11 9.87 11.45 15.32 26.81 15.32 43.19 0 32.07-22.56 66.19-64.43 66.19H34.46v21.73c0 8.71-7.72 15.8-17.25 15.8 -9.55 0-17.28-7.09-17.28-15.81v0ZM194.02 27.99c-11.03-.001-20.33 3.36-26.23 9.34 -.37-5.95-7.14-9.06-13.82-9.06 -7.23 0-15.02 3.58-15.02 11.44l-1.11 103.1c0 3.73 1.66 6.88 4.82 9.11 2.71 1.91 6.32 2.96 10.17 2.96 6.95 0 14.45-3.67 14.45-11.71l1.09-61.26c0-16.33 10.37-27.72 25.22-27.72 1.77 0 3.6.15 5.55.5 8 .77 12.58-6.05 12.9-12.75 .29-6.27-3.19-12.93-11.58-13.62 -2.18-.27-4.35-.41-6.5-.41v0Zm149.73 63.12c0 17.3-6.19 33.18-17.4 44.74 -11.4 11.72-27.3 18.17-44.77 18.17 -17.48 0-33.38-6.46-44.77-18.18 -11.23-11.56-17.42-27.45-17.42-44.75 .01-35.99 26.74-63.13 62.19-63.13 35.43 0 62.15 25.52 62.15 63.12l-.02 0Zm-95.09.09c0 19.53 14.45 34.81 32.91 34.81 18.45 0 32.91-15.28 32.91-34.82 0-19.73-14.46-35.2-32.92-35.2s-32.92 15.46-32.92 35.19v-.01Zm262.97 43.26c-1.18-5.11-5.03-8.41-9.8-8.41 -.71 0-1.41.06-2.21.22 -2.8.67-5.27 1.01-7.34 1.01 -5.6 0-8.2-2.39-8.2-7.54V59.06h14.48c7.02 0 10.21-6.67 10.21-12.86 0-6.21-3.2-12.87-10.22-12.87h-14.49V11.37c0-7.85-7.75-11.43-14.96-11.43 -7.21 0-14.95 3.57-14.95 11.42v21.95h-54.78V11.35c.01-7.85-7.74-11.43-14.95-11.43 -7.21 0-14.95 3.57-14.95 11.42v21.95h-8.84c-3.13 0-5.69 1.4-7.42 4.06 -1.43 2.18-2.22 5.14-2.22 8.33 0 6.61 3.3 13.33 9.63 13.33h8.82v67.95c0 16.64 10.56 26.98 27.56 26.98 7.1 0 14.87-1.78 23.09-5.26 6.29-2.76 7.92-9.35 6.78-14.31 -1.19-5.11-5.04-8.41-9.81-8.41 -.7 0-1.41.06-2.2.22 -2.81.67-5.27 1.01-7.36 1.01 -5.59 0-8.19-2.39-8.19-7.54V58.97h54.75v67.95c0 16.64 10.55 26.98 27.56 26.98 7.1 0 14.86-1.78 23.07-5.26 6.29-2.76 7.94-9.35 6.8-14.31h-.02Z"/></svg>