<svg viewBox="0 0 256 256" xmlns="http://www.w3.org/2000/svg"><path fill="#E23237" d="M256 128c0 70.69-57.31 128-128 128C57.3 256 0 198.69 0 128 0 57.3 57.308 0 128 0c70.69 0 128 57.308 128 128"/><path fill="#B52E31" d="M255.99 127.99c0-.42-.03-.83-.04-1.24 -25.58-24.66-51.45-49.64-52.17-50.5 -18.04-21.338-45-34.89-75.12-34.89 -54.29 0-98.3 44.01-98.3 98.298 0 7.51.87 14.81 2.46 21.84 35.62 37.535 68.765 71.67 93.56 94.441 .52 0 1.05.04 1.58.04 70.69 0 128-57.31 128-128"/><path fill="#FFF" d="M191.87 138.25H66c-.01-.18-.02-.34-.02-.51 0-34.77 28.18-62.95 62.94-62.95s62.94 28.18 62.94 62.94c0 .17-.02.33-.02.51v0Zm14.89-2.85h20.1c-1.09-25.3-11.72-48.11-28.39-64.928L184.58 84.35l-3.36-3.36 13.82-13.83C178 51.55 155.46 41.9 130.66 41.4V59.3h-4.75V41.42c-24.82.68-47.33 10.54-64.26 26.34L74.29 80.4l-3.36 3.35 -12.68-12.68c-16.33 16.76-26.72 39.31-27.79 64.29h18.4v4.74H30.35c.03 7.34.89 14.48 2.45 21.36H224.47c1.56-6.88 2.41-14.03 2.45-21.37h-20.21v-4.75Z"/></svg>