<svg viewBox="0 0 256 256" xmlns="http://www.w3.org/2000/svg"><path fill="#F2F2F2" d="M128 0a128 128 0 1 0 0 256 128 128 0 1 0 0-256Z"/><path fill="#ED1C24" d="M166.49 203.68c-25.28 9.3-53.02 9.3-78.29 0 -2.33-.84-4.19-3.59-4.19-5.96v-6.1c0-2.38 1.86-3.54 4.18-2.7 25.27 9.3 53.01 9.3 78.28 0 2.32-.84 4.18.32 4.18 2.69v6.09c-.05 2.37-1.91 5.12-4.19 5.95v0Z"/><path fill="#C1272D" d="M166.49 196.23c-25.28 12.93-53.02 12.93-78.29 0 -2.33-1.17-4.19-4.99-4.19-8.29v-8.43c0-3.31 1.86-4.94 4.18-3.73 25.27 12.93 53.01 12.93 78.28 0 2.32-1.17 4.18.41 4.18 3.72v8.42c-.05 3.3-1.91 7.12-4.19 8.28v0Z"/><g transform="translate(117.76 202.938)"><path fill="#C1272D" d="M9.58.32a3.58 3.58 0 1 0 0 7.16 3.58 3.58 0 1 0 0-7.17Z"/><path fill="#FF931E" d="M9.58.32a3.07 3.07 0 1 0 0 6.14 3.07 3.07 0 1 0 0-6.15Z"/><path fill="#FFB81E" d="M10.47 3.39a1.07 1.07 0 1 0 0 2.14 1.07 1.07 0 1 0 0-2.15Z"/><path fill="#FF931E" d="M9.58 5.95a9.58 9.58 0 1 0 0 19.17 9.58 9.58 0 1 0 0-19.18Z"/><path fill="#FFB81E" d="M9.58 7.02a8.61 8.61 0 1 0 0 17.22 8.61 8.61 0 1 0 0-17.23Z"/><path fill="#FF931E" d="M12.1 12.89c.51.46.79 1.11.79 2.04 0 .93-.28 1.58-.8 2.04 -.56.41-1.35.65-2.47.65h-.98v2.09H6.96v-7.5h2.65c1.11 0 1.95.18 2.46.65v0Zm-1.22 2.93c.18-.24.27-.56.27-.98 0-.42-.14-.75-.38-.94 -.28-.19-.66-.28-1.22-.28h-.94v2.51h1.11c.55 0 .93-.1 1.11-.33v0Z"/></g><path fill="#F7BD89" d="M205.03 140.47c2.32 31.88-32.17 60.5-77.22 60.46 -45.01.04-79.55-28.58-77.22-60.47 2.32-31.98 37-58.37 77.31-58.42 40.35.04 74.75 26.43 77.12 58.41v0Z"/><path fill="#FBD5A0" d="M127.67 77.59c-42.36 0-81.69 29.83-74.24 75.26 1.48 4.18 3.95 15.08 15.73 24.71 3.53 2.88 9.63 5.3 12.52 3.35 7.4-5.03-5.73-19.46 9.26-32.77h-.33c8.14-6.2 19.68-11.13 36.95-11.13 17.26 0 28.81 4.93 36.95 11.12h-.33c14.98 13.31 1.9 27.74 9.26 32.76 2.88 1.95 9.02-.47 12.52-3.36 11.77-9.64 14.28-20.53 15.77-24.72 7.44-45.48-31.744-75.27-74.11-75.27v0Z"/><path d="M164.11 153.04c-7.13-8.76-20.62-17.23-36.31-17.23h-.14 -.05c-15.74 0-29.24 8.47-36.31 17.22 -7.36 8.93-4.71 12.75-4.71 21.31 0 30.99 10.84 21.96 18.15 25.69 7.44 3.63 14.98 2.32 22.9 2.32v0h.13c7.91 0 15.45 1.3 22.9-2.38 7.26-3.73 18.15 5.39 18.15-25.6 -.05-8.52 2.6-12.43-4.75-21.37v0Z"/><g transform="translate(62.3709 123.811)"><path fill="#F7BD89" d="M13.03 2.46a12.98 12.98 0 1 0 0 25.97 12.98 12.98 0 1 0 0-25.98Z"/><path d="M14.19.27a12.98 12.98 0 1 0 0 25.97 12.98 12.98 0 1 0 0-25.98Z"/><path fill="#FFF" d="M17.5 4.09a3.35 3.35 0 1 0 0 6.7 3.35 3.35 0 1 0 0-6.71Z"/></g><g transform="translate(165.702 123.811)"><path fill="#F7BD89" d="M13.96 2.46a12.98 12.98 0 1 0 0 25.97 12.98 12.98 0 1 0 0-25.98Z"/><path d="M13.21.27a12.98 12.98 0 1 0 0 25.97 12.98 12.98 0 1 0 0-25.98Z"/><path fill="#FFF" d="M16.52 4.09a3.35 3.35 0 1 0 0 6.7 3.35 3.35 0 1 0 0-6.71Z"/></g><g fill="#F7BD89"><path d="M100.35 89.22s-43.99 7.58-45.76 60.13c-.05.79-.89 1.3-1.59.88l-1.4-.84 -1.08-13.78 2-28.12 18.33-13.55 16.47-6.66 12.98 1.9v0Z"/><path d="M154.94 89.22s43.98 7.58 45.75 60.13c.04.79.88 1.3 1.58.88l1.39-.84 1.07-13.78 -2.01-28.12 -18.34-13.55 -16.48-6.66 -12.99 1.9v0Z"/></g><path fill="#4D4D4D" d="M126.75 182.8v-26.52h1.93v26.44c2.85.33 6.56 1.99 10.1 3.06 3.67 1.3 7.21 1.81 5.81 2 -4.85.18-10.15-1.63-16.67-1.54 -6.57-.1-11.87 1.72-16.67 1.53 -1.4-.24 2.14-.75 5.81-2.01 3.36-1.02 6.83-2.56 9.64-3Zm13.11-35.45c1.53 3.39-3.78 8.93-12.2 8.93 -8.43 0-13.74-5.54-12.2-8.94 1.48-3.5 6.84-4.61 12.19-4.66 5.35.04 10.7 1.16 12.19 4.65Z"/><path d="M100.35 89.22s-51.81 7.16-47.34 58.6c.23 2.6-10.34-11.13-18.53-15.32 -8.2-4.19-7.92-17.74-7.92-17.74s-.14-23.6 32.95-30.59c33.04-6.94 40.82 5.02 40.82 5.02Zm54.59 0s51.8 7.16 47.33 58.6c-.24 2.6 10.33-11.13 18.52-15.32 8.19-4.19 7.91-17.74 7.91-17.74s.13-23.6-32.96-30.59c-33.05-6.94-40.83 5.02-40.83 5.02Z"/><g fill="#F7BD89"><path d="M127.72 126.27c-16.11 0-32.4 15.82-29 14.05 6.28-3.31 9.91-9.13 28.99-9.13s22.66 5.81 28.99 9.12c3.39 1.76-12.9-14.06-29-14.06v0Z"/><path d="M127.72 119.34c-12.25 0-24.58 12-22.02 10.65 4.79-2.52 10.93-6.94 22.01-6.94 11.07 0 17.22 4.42 22.01 6.93 2.56 1.34-9.78-10.66-22.02-10.66v0Z"/><path d="M127.62 80.384c-13.5 0-27.19 7.72-24.35 6.84 5.3-1.63 12.1-4.47 24.34-4.47s19.03 2.83 24.34 4.46c2.83.88-10.8-6.85-24.35-6.85v0Z"/></g><path fill="#808080" d="M130.74 145.5c.37.83-.94 2.18-3.03 2.18 -2.1 0-3.4-1.35-3.03-2.19 .37-.84 1.67-1.12 3.02-1.17 1.3 0 2.65.27 3.02 1.16v0Z"/></svg>