<svg viewBox="0 0 512 181" xmlns="http://www.w3.org/2000/svg"><path fill="#FFAE1A" d="M90.49 90.49V48.85H58.62L41.63 31.77V-.01H-.01v41.63h31.86l17.07 17.07v22L31.84 97.76H-.03v41.63H41.6v-31.78l17.07-17.08h31.77v-.1 0ZM13.87 13.87h13.87v13.87H13.86V13.86Zm13.87 111.58H13.86v-13.88h13.87v13.87Z"/><path d="M136.6 180.98h-18.36v-90.5h18.35v5.47c2.92-3.57 9.49-6.94 16.52-6.94 19.26 0 30.13 15.97 30.13 34.6 0 18.62-10.96 34.42-30.14 34.42 -7.13 0-13.61-3.38-16.53-6.94v29.85 0Zm0-46.57c2.35 4.69 7.16 7.66 12.41 7.67 9.95 0 15.79-7.95 15.79-18.45 0-10.69-5.94-18.63-15.8-18.63 -5.25.03-10.04 2.99-12.42 7.67v21.73 0Zm113.22 22.18h-18.36v-6.03c-4.59 4.89-11.01 7.64-17.72 7.57 -14.8 0-23.2-9.78-23.2-24.39v-43.2h18.35v39.44c0 6.93 3.37 11.68 10.68 11.68 5.66 0 10.5-3.38 11.87-9.14V90.51h18.44v66.01h-.1v0Zm30.49 24.38h-18.36v-90.5h18.35v5.47c2.92-3.57 9.49-6.94 16.52-6.94 19.26 0 30.13 15.97 30.13 34.6 0 18.62-10.96 34.42-30.14 34.42 -7.13 0-13.61-3.38-16.53-6.94v29.85 0Zm0-46.57c2.35 4.69 7.16 7.66 12.41 7.67 9.95 0 15.79-7.95 15.79-18.45 0-10.69-5.94-18.63-15.8-18.63 -5.25.03-10.04 2.99-12.42 7.67v21.73Zm73.05 46.57H335v-90.5h18.35v5.47c2.92-3.57 9.49-6.94 16.52-6.94 19.26 0 30.13 15.97 30.13 34.6 0 18.62-10.96 34.42-30.14 34.42 -7.13 0-13.61-3.38-16.53-6.94v29.85 0Zm0-46.57c2.35 4.69 7.16 7.66 12.41 7.67 9.95 0 15.79-7.95 15.79-18.45 0-10.69-5.94-18.63-15.8-18.63 -5.25.03-10.04 2.99-12.42 7.67v21.73Zm112.49.54c-2.38 14.06-12.7 23.1-29.32 23.1 -19.27 0-32.06-14.07-32.06-34.43 0-20 13.33-34.61 31.77-34.61 19.35 0 30.04 13.42 30.04 32.87v5.66h-44.11c.54 9.95 6.2 15.79 14.33 15.79 6.2 0 10.77-2.65 12.23-8.31h17.07v-.1 0Zm-43.2-18.63h25.56c-.19-6.94-4.3-12.42-11.88-12.42 -7.04 0-12.06 4.29-13.7 12.41Zm55.61-11.05h-10.05v-14.8h10.04v-17.9h18.17v17.89h14.51v14.79h-14.52v28.94c0 5.2 2.83 7.57 7.57 7.57 2.79-.02 5.53-.78 7.94-2.2v16.25c-2.56 1.36-6.94 2.1-11.88 2.1 -13.43 0-21.92-6.67-21.92-21.28V105.2h.09Z"/></svg>