<svg viewBox="0 0 512 193" xmlns="http://www.w3.org/2000/svg"><path fill="#3D3D3D" d="M376.81 158.24l14.79-37.41 42.7 0 -20.27-56.74L439.37-.02l72.6 192.76 -53.55 0 -12.41-34.53Z"/><path fill="#5A0FC8" d="M331.13 192.76L408.85-.01l-51.53 0 -53.17 124.57L266.34-.02 226.73-.03l-40.6 124.57 -28.63-56.77 -25.91 79.81 26.3 45.14 50.7 0L245.27 81l34.97 111.71Z"/><path fill="#3D3D3D" d="M48.91 126.59h31.73c9.61 0 18.17-1.08 25.68-3.22l8.2-25.29 22.94-70.68c-1.75-2.78-3.75-5.39-5.99-7.86C119.69 6.5 102.45-.02 79.77-.02H-.03v192.76h48.91v-66.18Zm42.01-82.25c4.6 4.63 6.9 10.82 6.9 18.58 0 7.82-2.03 14.02-6.07 18.61 -4.44 5.09-12.61 7.64-24.51 7.64H48.89V37.38h18.47c11.08 0 18.93 2.31 23.53 6.94Z"/></svg>