<svg viewBox="0 0 256 256" xmlns="http://www.w3.org/2000/svg"><defs><linearGradient id="a" x1="-46.686%" x2="90.513%" y1="50%" y2="50%"><stop offset="0%" stop-color="#21D789"/><stop offset="100%" stop-color="#07C3F2"/></linearGradient><linearGradient id="b" x1="-19.16%" x2="105.922%" y1="105.481%" y2="-7.578%"><stop offset="1%" stop-color="#FCF84A"/><stop offset="11%" stop-color="#A7EB62"/><stop offset="21%" stop-color="#5FE077"/><stop offset="27%" stop-color="#32DA84"/><stop offset="31%" stop-color="#21D789"/><stop offset="58%" stop-color="#21D789"/><stop offset="60%" stop-color="#21D789"/><stop offset="69%" stop-color="#20D68C"/><stop offset="76%" stop-color="#1ED497"/><stop offset="83%" stop-color="#19D1A9"/><stop offset="90%" stop-color="#13CCC2"/><stop offset="97%" stop-color="#0BC6E1"/><stop offset="100%" stop-color="#07C3F2"/></linearGradient><linearGradient id="c" x1="42.229%" x2="61.179%" y1="115.966%" y2="22.252%"><stop offset="0%" stop-color="#21D789"/><stop offset="16%" stop-color="#24D888"/><stop offset="30%" stop-color="#2FD985"/><stop offset="43%" stop-color="#41DC80"/><stop offset="55%" stop-color="#5AE079"/><stop offset="67%" stop-color="#7AE46F"/><stop offset="79%" stop-color="#A1EA64"/><stop offset="90%" stop-color="#CFF157"/><stop offset="100%" stop-color="#FCF84A"/></linearGradient><linearGradient id="d" x1="-9.712%" x2="118.641%" y1="144.549%" y2="8.291%"><stop offset="0%" stop-color="#21D789"/><stop offset="9%" stop-color="#23D986"/><stop offset="17%" stop-color="#2ADE7B"/><stop offset="25%" stop-color="#36E669"/><stop offset="27%" stop-color="#3BEA62"/><stop offset="35%" stop-color="#47EB61"/><stop offset="49%" stop-color="#67ED5D"/><stop offset="69%" stop-color="#9AF156"/><stop offset="92%" stop-color="#E0F64D"/><stop offset="100%" stop-color="#FCF84A"/></linearGradient><linearGradient id="e" x1="105.92%" x2="-8.04%" y1="50.48%" y2="49.366%"><stop offset="39%" stop-color="#FCF84A"/><stop offset="46%" stop-color="#ECF74C"/><stop offset="61%" stop-color="#C1F451"/><stop offset="82%" stop-color="#7EEF5A"/><stop offset="100%" stop-color="#3BEA62"/></linearGradient></defs><path fill="url(#a)" d="M179.49 40.4l74.8 62.21 -26.94 54.8 -45.1-12.51 -39.02 0Z"/><path fill="url(#b)" d="M104.13 80.8l-14.48 76.61 -1.39 26.02 -36.51 15.81 -51.76 5.57 15.7-165.52L109.47-.02l57.78 37.89Z"/><path fill="url(#c)" d="M104.13 80.8l7.04 147.62 -23.39 27.57 -87.79-51.18L72.07 97.39Z"/><path fill="url(#d)" d="M200.72 70.02l-88.7 0L190.39-.01Z"/><path fill="url(#e)" d="M256 229.01l-78.08 26.5 -103.98-29.28 30.18-145.44 12.05-10.78 63.3-5.95 -5.74 63.57 50.34-19.52Z"/><path d="M48 48l160 0 0 160 -160 0Z"/><path fill="#FFF" d="M67.94 177.76h60v10h-60v-10ZM67.99 68h24.53c14.15 0 22.78 8.31 22.95 20.35l0 .52c0 13.86-10.8 21.06-24.24 21.06h-9.92v17.97H67.97V67.98Zm23.62 30.21c6.47 0 10.32-3.79 10.45-8.81l0-.43c0-5.92-4.11-9.1-10.67-9.1H81.31v18.32H91.6Zm31.01-.06v-.16c-.16-8.31 3.09-16.32 8.98-22.17 5.89-5.86 13.93-9.04 22.23-8.82 8.83-.45 17.43 2.91 23.62 9.22l-8.38 9.68c-4.04-4.18-9.54-6.61-15.34-6.78 -10 0-17.23 8.21-17.39 18.32l-.01.52c0 10.26 7.12 18.82 17.38 18.82 6.23 0 10.25-2.21 14.48-5.88l.63-.57c.21-.2.42-.39.64-.59l8.37 8.45c-6.12 7.14-15.17 11.07-24.56 10.66 -8.2.12-16.09-3.09-21.88-8.89 -5.79-5.8-8.99-13.7-8.85-21.9Z"/></svg>