<svg viewBox="0 0 512 77" xmlns="http://www.w3.org/2000/svg"><path fill="#091313" d="M136.58 7.61c7.8 0 13.9 2.46 18.29 7.39 4.38 4.92 6.57 11.73 6.57 20.4 0 6.91-1.41 12.66-4.21 17.25 -2.67 4.46-6.9 7.78-11.87 9.31l12.94 13.37h-9.18l-10.6-12.2 -2.05.07c-8.02 0-14.2-2.44-18.54-7.3 -4.35-4.87-6.53-11.74-6.53-20.61 0-8.8 2.18-15.62 6.54-20.46 4.36-4.84 10.56-7.27 18.59-7.28Zm374.04 2.98l-1.97 5.46c-4.5-1.87-8.86-2.81-13.1-2.81 -3.35 0-5.97.71-7.85 2.14 -1.89 1.42-2.83 3.41-2.83 5.94 0 1.86.34 3.4 1.04 4.59 .69 1.19 1.86 2.29 3.51 3.28 1.65.99 4.17 2.09 7.56 3.3 5.7 2.01 9.62 4.18 11.77 6.5 2.14 2.31 3.21 5.33 3.21 9.06 0 4.75-1.74 8.46-5.21 11.12 -3.48 2.66-8.19 3.99-14.14 4 -6.45 0-11.41-.83-14.88-2.48v-6.08c2.35.97 4.79 1.71 7.29 2.21 2.56.53 5.18.8 7.8.8 4.21 0 7.38-.81 9.51-2.41 2.13-1.61 3.19-3.82 3.2-6.64 0-1.87-.38-3.41-1.14-4.6 -.76-1.2-2.02-2.3-3.79-3.31 -1.78-1.01-4.48-2.16-8.09-3.44 -5.06-1.8-8.68-3.94-10.85-6.42s-3.26-5.7-3.26-9.65c0-4.17 1.57-7.48 4.72-9.94 3.14-2.47 7.31-3.7 12.49-3.7 5.12-.06 10.19.94 14.91 2.95ZM188.48 8.46v35.25c0 4.5 1.23 7.96 3.71 10.38 2.47 2.41 6.12 3.61 10.93 3.6 4.58 0 8.11-1.22 10.59-3.64 2.48-2.43 3.72-5.9 3.71-10.41V8.44h6.32v34.95c0 6.15-1.87 10.99-5.61 14.52 -3.74 3.52-8.89 5.28-15.45 5.28 -6.55 0-11.62-1.78-15.2-5.33 -3.59-3.55-5.37-8.44-5.37-14.65V8.41h6.32Zm234.01 0v35.25c0 4.5 1.23 7.96 3.71 10.38 2.47 2.41 6.12 3.61 10.93 3.6 4.58 0 8.11-1.22 10.6-3.64 2.48-2.43 3.72-5.91 3.71-10.45V8.43h6.32v34.95c0 6.15-1.87 10.99-5.61 14.52 -3.74 3.52-8.89 5.28-15.44 5.28 -6.55 0-11.61-1.78-15.2-5.33s-5.38-8.44-5.39-14.65V8.4h6.32Zm-155.86-.23l21.38 54.24h-6.55l-6.78-17.19h-21.8l-6.7 17.18h-6.42l21.5-54.25h5.31Zm52.91.22c6.67 0 11.6 1.26 14.77 3.8 3.17 2.53 4.76 6.35 4.77 11.45 0 7.14-3.65 11.97-10.94 14.48l14.75 24.27h-7.48l-13.17-22.47 -11.34-.01v22.46h-6.33V8.4h14.91Zm79.75-.01l-21.87 23.47 22.68 30.55h-7.44l-19.82-26.21 -5.69 5.02v21.17h-6.33V8.41h6.32v26.78L391.79 8.4h7.47Zm-262.73 4.77c-6.03 0-10.61 1.89-13.75 5.67 -3.14 3.78-4.71 9.28-4.71 16.49h-.01c0 7.31 1.56 12.86 4.7 16.64 3.13 3.78 7.69 5.67 13.66 5.66 6.02 0 10.57-1.89 13.64-5.66 3.07-3.77 4.61-9.33 4.61-16.67 0-7.27-1.54-12.78-4.6-16.54 -3.07-3.76-7.6-5.64-13.59-5.64Zm127.3 1.88c-.63 2.64-1.41 5.24-2.35 7.79l-6.42 16.73 17.6 0 -6.33-16.75c-.82-2.12-1.67-4.72-2.54-7.8Zm55.29-1.15h-8.22v20.65h8.66c4.46 0 7.73-.89 9.81-2.65 2.08-1.77 3.12-4.41 3.12-7.93 0-3.58-1.06-6.15-3.18-7.73s-5.53-2.37-10.21-2.37Z"/><path fill="#4695EB" d="M63.89 0c7 .02 12.68 5.7 12.69 12.7v0 51.19c-.02 7.01-5.7 12.68-12.71 12.7v0h-7.62l-3.49-8.48h11.1c2.32-.04 4.2-1.91 4.23-4.24v0 -51.2c-.04-2.33-1.91-4.21-4.24-4.24v0h-51.2c-2.33.03-4.21 1.9-4.24 4.23v0 51.19c.03 2.32 1.9 4.2 4.23 4.23v0h18.73l6.86-14.52 9.46 22.98H12.63C5.61 76.52-.06 70.84-.08 63.83v0 -51.2C-.07 5.61 5.61-.06 12.62-.08v0ZM50.72 41.8v13.61l-11.8-6.81 11.79-6.82ZM25.84 28.18v13.61l-11.8-6.82 11.79-6.81Zm24.22-14.74v13.61l-11.8-6.82 11.79-6.81Z"/><path fill="#FF004A" d="M25.86 41.8l11.79 6.81 -11.8 6.8V41.79Zm24.87-13.62l11.79 6.8 -11.8 6.81V28.17ZM26.5 13.44l11.79 6.8 -11.8 6.81V13.43Z"/><path fill="#091313" d="M25.86 28.19l11.79 6.8v13.62l-11.8-6.82V28.17Zm24.87 0V41.8l-11.8 6.81V34.98l11.79-6.81Zm-12.44-7.93l11.79 6.81 -11.8 6.81 -11.8-6.82 11.79-6.82Z"/></svg>