<svg viewBox="0 0 256 193" xmlns="http://www.w3.org/2000/svg"><defs><linearGradient id="a" x1="37.972%" x2="91.12%" y1="16.998%" y2="76.326%"><stop offset="0%" stop-color="#C9CBCE"/><stop offset="100%" stop-color="#7B7A81"/></linearGradient></defs><path fill="url(#a)" d="M149.333 149.333c-53.333 0-98.66-26.72-98.66-58.72 -.001-32 39.99-58.62 93.326-58.62 67.35 0 98.572 25.91 98.572 57.91 0 32-34.41 59.42-93.239 59.42M127.999-.01C58.666-.01-.01 37.32-.01 85.32c0 45.334 58.312 82.96 127.646 82.96 69.33 0 128.35-34.97 128.35-82.97s-58.667-85.333-128-85.333"/><path fill="#2165B6" d="M105.946 51.82v141.1h42.643v-54.875c10.66 0 17.01-2.33 23.98 10.45 10.66 18.29 23.98 44.423 23.98 44.423h50.63s-31.982-52.262-34.65-54.875c-4.92-5.23-10.67-5.23-18.66-7.84 15.99-2.62 30.899-9.25 36.08-23.47 4.53-13.07 3.99-29.69-5.72-40.83 -8.42-8.82-17.05-14.1-38.37-14.1h-79.96v0Zm42.643 29.38h27.98c6.63 0 11.99 6.53 11.99 13.06s-5.33 13.06-12 13.06h-27.99V81.18v0Z"/></svg>