<svg viewBox="0 0 256 257" xmlns="http://www.w3.org/2000/svg"><path fill="#F60" d="M245.73 102.43h-81.92c-2.73.01-5.35-1.06-7.28-2.99 -1.93-1.93-3.01-4.55-2.99-7.28V10.24c0-2.72-1.09-5.32-3.01-7.24 -1.93-1.92-4.54-2.99-7.26-2.97H112.6c-2.72-.02-5.33 1.04-7.26 2.96 -1.93 1.91-3.01 4.51-3.01 7.23v81.91c.01 2.72-1.06 5.34-2.99 7.27 -1.93 1.92-4.55 3-7.28 2.98H61.39c-2.73.01-5.35-1.06-7.28-2.99 -1.93-1.93-3.01-4.55-2.99-7.28V10.19c.01-2.73-1.06-5.35-2.99-7.28C46.2.98 43.58-.1 40.85-.08H10.12C7.4-.08 4.8 1 2.88 2.93 .96 4.85-.11 7.46-.09 10.18v235.53c-.02 2.72 1.05 5.34 2.98 7.27 1.92 1.92 4.54 3 7.27 2.98h235.47c2.72.01 5.34-1.06 7.27-2.99 1.92-1.93 3-4.55 2.98-7.28V112.78c.06-2.77-.99-5.44-2.92-7.41 -1.94-1.98-4.59-3.08-7.35-3.06Zm-41.18 86.97c.01 4.07-1.6 7.99-4.47 10.88 -2.88 2.88-6.79 4.51-10.87 4.51h-20.53c-4.08 0-7.99-1.63-10.87-4.52 -2.88-2.89-4.49-6.81-4.47-10.89v-20.47c-.02-4.08 1.59-8 4.46-10.89 2.87-2.89 6.78-4.52 10.86-4.52h20.52c4.07 0 7.98 1.62 10.86 4.51 2.87 2.88 4.48 6.8 4.46 10.88v20.46 0Z"/></svg>