<svg viewBox="0 0 512 180" xmlns="http://www.w3.org/2000/svg"><g fill="#C00"><path d="M219.11 150.63s22.56-1.94 22.56-31.09 -27.35-31.86-27.35-31.86h-49.27v91.95h24.76v-22.19l21.4 22.18h36.62l-28.76-29.02Zm-9.55-18.83h-19.74v-21.03h19.86s5.54 2.06 5.54 10.44c0 8.38-5.68 10.57-5.68 10.57Zm93.24-43.47h-25.15c-17.93 0-23.99 16.24-23.99 23.98v67.32h25.14V163.5h23.6v16.12h24.37v-67.33c0-19.61-17.8-23.99-23.99-23.99Zm-.39 49.13h-23.73v-22.32s0-5.03 7.86-5.03h8.64c6.96 0 7.09 5.02 7.09 5.02v22.31h.12Zm35.85-49.14h26.18v91.3h-26.19V88.31Zm62.93 67.7V88.31h-26.06v67.7 23.6h26.05 35.2V156h-35.21Zm43.84.25v23.34h42.17c8.64 0 23.47-6.32 23.98-23.99v-9.03c0-15.09-12.39-23.99-23.99-23.99h-21.03v-10.84h41.65V88.28h-39.98c-10.32 0-24.12 8.51-24.12 24.37v8.12c0 15.86 13.67 23.98 24.11 23.98 29.01.12-6.97 0 19.86 0v11.34l-42.69.12Z"/><path d="M9.02 179.52H110.9s-19.48-88.86 45-124.85c14.05-6.84 58.8-32.38 132.06 21.79 2.32-1.94 4.51-3.49 4.51-3.49s-67.07-66.94-141.74-59.46c-37.53 3.35-83.7 37.52-110.79 82.66 -27.09 45.13-30.96 83.31-30.96 83.31ZM221.3 20.76l.51-8.65c-1.17-.65-4.39-2.2-12.51-4.52l-.52 8.51c4.25 1.41 8.38 2.96 12.5 4.64ZM209.04 48.1l-.52 8.12c4.25.12 8.51.64 12.76 1.54l.51-8c-4.39-.91-8.65-1.42-12.77-1.68ZM161.32 7.86h1.28l-2.58-7.87c-4 0-8.13.25-12.39.77l2.45 7.6c3.74-.39 7.48-.52 11.22-.52Zm6.19 47.45l2.96 8.89c3.74-1.81 7.48-3.36 11.22-4.52l-2.84-8.52c-4.39 1.28-8.13 2.7-11.35 4.12Zm-58.56-33.92l-5.81-8.9c-3.23 1.67-6.58 3.48-10.06 5.54l5.93 9.02c3.35-2.07 6.57-4 9.93-5.68Zm26.43 58.03l6.19 9.28c2.19-3.23 4.77-6.2 7.6-9.16l-5.81-8.77c-2.97 2.7-5.68 5.67-8 8.64Zm-18.71 41.52l10.44 8.25c.51-5.03 1.41-10.06 2.7-15.09l-9.29-7.36c-1.68 4.77-2.84 9.54-3.87 14.18ZM60.18 59.68l-9.16-8c-3.36 3.22-6.58 6.44-9.55 9.67l9.93 8.51c2.7-3.49 5.67-6.97 8.76-10.19Zm-38.95 57.64L6.39 111.9c-2.46 5.54-5.16 11.99-6.45 15.47l14.83 5.41c1.67-4.39 4.38-10.71 6.44-15.48Zm93.5 36.36c.25 6.83.9 12.38 1.54 16.24l15.47 5.54c-1.17-5.03-2.33-10.71-3.1-16.77l-13.93-5.03Z"/></g></svg>