<svg viewBox="0 0 512 147" xmlns="http://www.w3.org/2000/svg"><path fill="#75C9E1" d="M78.22 2.33H-.01l7.79 12.51h69.97c8.54 0 16.59 3.42 22.66 9.65 6.04 6.2 9.36 14.38 9.36 23.03 0 8.49-3.19 16.15-9.21 22.13 -5.74 5.69-13.73 9.44-22.52 10.55h-8.57l-23.63-.19 6.81 11.8H63l.56.9h.08l30.63 51.72 .19.19c1.32 1.32 2.99 1.97 5.09 1.97 3.58 0 6.61-3.14 6.61-6.85 0-1.48-.48-2.14-1.06-2.8 -.24-.27-.53-.61-.98-1.36L78.9 92.67c11.72-.21 22.68-4.88 30.93-13.21 8.44-8.52 13.08-19.88 13.08-32 0-24.93-20.11-45.21-44.83-45.21ZM183.5 3.6c-1.01-1.94-3.18-3.15-5.7-3.15 -2.28 0-4.55 1.22-5.65 3.05l-.69 1.18c-.9 1.55-.4 3.81.49 5.35l10.71 18.53 40.99 71.24h-1.79l.05.09h-52.76l7.62 13.31h54.57l16.48 28.53 .03.06c1.01 1.62 2.72 4.34 6.28 4.34 3.65 0 6.62-2.98 6.62-6.63 0-1.26-.32-2.33-.99-3.37L183.4 3.51Zm320.84 129.36h-70.39V7.07c0-3.65-2.97-6.62-6.62-6.62s-6.62 2.96-6.62 6.61v132.5c0 3.65 2.96 6.62 6.61 6.62h84.65l-7.65-13.24ZM366.18 6.91c-.09-3.58-3.02-6.46-6.62-6.46 -.17 0-.34 0-.5.02 -.17-.02-.33-.03-.5-.03 -2.52 0-4.7 1.2-5.7 3.14l-43.71 76.81 -43.71-76.82c-1-1.95-3.18-3.15-5.7-3.15 -2.28 0-4.55 1.22-5.65 3.05l-.69 1.18c-.9 1.55-.41 3.8.47 5.35l48.73 85.5 .04.07c1.01 1.62 2.71 4.34 6.28 4.34 .06 0 .12-.01.18-.01s.12 0 .18 0c3.56 0 5.26-2.73 6.28-4.35l37.3-65.44v109.38c0 3.65 2.96 6.62 6.61 6.62 3.64 0 6.61-2.98 6.61-6.63V6.97c0-.04-.01-.07-.01-.11l.01-.03 -.02-.03Z"/></svg>