<svg viewBox="0 0 256 121" xmlns="http://www.w3.org/2000/svg"><path fill="#2453FF" d="M255.86 26.36l-2.82-16.64c-.27-1.58-.63-3.06-1.05-4.38l-.22-.65c-1-2.83-2.26-4.72-3.35-4.72 -1.05 0-1.99 1.76-2.55 4.41l-.12.6c-.02.1-.04.2-.06.31l-.1.64c-.02.1-.03.21-.05.32l-.08.67c-.03.22-.05.46-.06.69l-.05.71c-.03.48-.04.97-.04 1.47v4.35c0 5.37-4.48 9.85-9.86 9.85h-5.25v0 12.03h17.27c5.5 0 9.21-4.36 8.31-9.73Zm-39.3-14.08h-54.53c-.39 0-.64 0-.9.12l-.01-2.94v0l-.02-.74c-.01-.13-.01-.25-.02-.37l-.05-.72c-.04-.48-.08-.93-.14-1.38l-.09-.66c-.04-.22-.07-.43-.11-.63l-.12-.61c-.56-2.65-1.51-4.42-2.55-4.42 -1.47 0-3.22 3.35-4.24 7.81l-.17.75c-.06.25-.11.51-.15.77l-2.89 17.02c-.9 5.37 2.81 9.72 8.19 9.72h16.38c1.66 0 3.32-.26 4.6-.77 -.52 2.81-2.95 4.86-5.89 4.86h-23.04c-3.72 0-6.53-3.33-5.89-7.04l2.3-13.96c.63-3.72-2.18-7.04-5.89-7.04H27.16c-2.44 0-4.48 1.4-5.51 3.58L.14 48.52c-.39.51-.39 1.27.12 1.79l4.22 4.99c.51.63 1.4.76 2.04.25l14.59-11.52v70.13c0 3.32 2.68 6.01 6.01 6.01h32.5c3.32 0 6.01-2.69 6.01-6.02V89.83c0-3.33 2.68-6.02 6.01-6.02h81.01c3.32 0 6.01 2.68 6.01 6.01v24.31c0 3.32 2.68 6.01 6.01 6.01h32.5c3.32 0 6.01-2.69 6.01-6.02v-26.5H185.9c-5.38 0-9.86-4.48-9.86-9.86V60.99c0-3.2 1.53-6.02 3.96-7.81v20.09c0 5.37 4.47 9.85 9.85 9.85h26.49c5.37 0 9.85-4.48 9.85-9.86v-51.2c0-5.51-4.48-9.99-9.86-9.99Z"/></svg>