<svg viewBox="0 0 256 256" xmlns="http://www.w3.org/2000/svg"><path fill="#F89938" d="M127.99 247.45c-14.07 0-27.29-5.48-37.24-15.43l-66.79-66.79C14 155.28 8.51 142.05 8.51 127.98c0-14.08 5.48-27.31 15.44-37.26l66.78-66.78c9.94-9.95 23.16-15.43 37.23-15.43 14.06 0 27.28 5.47 37.23 15.41l66.77 66.78c9.95 9.93 15.44 23.16 15.44 37.24 0 14.07-5.49 27.3-15.46 37.24l-66.78 66.77c-9.95 9.95-23.18 15.42-37.24 15.42v0 0Z"/><path fill="#39F" d="M82.23 58.3c0-25.28 20.48-45.77 45.76-45.77 25.27 0 45.76 20.48 45.76 45.76 0 25.27-20.49 45.76-45.77 45.76 -25.28 0-45.77-20.49-45.77-45.77"/><path fill="#333" d="M246.71 159.02c6.03-9.13 9.28-19.83 9.28-31.02 0-15.09-5.89-29.27-16.55-39.91l-71.56-71.57 -.03.02C157.63 6.31 143.53-.03 127.97-.03c-15.56 0-29.66 6.33-39.87 16.56l-.03-.03 -71.56 71.55C5.83 98.71-.04 112.88-.04 127.96c0 15.07 5.87 29.25 16.54 39.9l64.52 64.52c2.58 2.9 5.3 5.61 8.16 8.11 10.51 9.96 24.21 15.44 38.76 15.44 15.06 0 29.24-5.87 39.89-16.53l69.61-69.62c.17-.18.35-.36.52-.53l1.41-1.41c2.68-2.69 5.07-5.6 7.13-8.69 .04-.07.1-.14.15-.21l-.02-.02v0ZM235.11 128c0 7.01-2.04 13.71-5.81 19.45 -2.27 3.08-4.62 5.78-7.06 8.11l-.18.17c-11.45 10.88-24.38 13.97-35.36 13.97 -6.04 0-11.49-.94-15.78-2.02 -25.09-6.34-52.35-27.92-64.83-59.4 6.72 2.84 14.1 4.41 21.85 4.41 29.09 0 53.11-22.17 56.05-50.5l40.63 40.63c6.72 6.72 10.43 15.65 10.43 25.15v0 0ZM127.98 20.86c19.56-.001 35.48 15.91 35.48 35.48 0 19.56-15.92 35.48-35.49 35.48s-35.48-15.92-35.48-35.49 15.91-35.49 35.47-35.49v0 0Zm-96.7 132.27c-6.73-6.72-10.43-15.65-10.43-25.15 0-9.5 3.7-18.43 10.42-25.15l27.49-27.5c-7.18 24.42-10.26 50.13-8.61 74.78 .59 8.85 1.81 17.35 3.57 25.46l-22.47-22.46v0Zm47-70.24c6.03 47.24 43.43 93.88 87.54 105.03 7.18 1.81 14.23 2.7 21.04 2.7 .09 0 .19-.01.29-.01l-34.07 34.06c-6.72 6.71-15.65 10.41-25.14 10.41 -6.61 0-12.93-1.84-18.43-5.19l.01-.02c-2.17-1.44-4.23-3.06-6.24-4.78 -.16-.16-.33-.29-.48-.44l-6.89-6.89c-14.16-16.25-23.06-40.43-24.97-69.08 -1.45-21.68 1.15-44.29 7.29-65.84v0 0Z"/></svg>