<svg viewBox="0 0 256 327" xmlns="http://www.w3.org/2000/svg"><path d="M69.29 0c-1.66.05-3.44.66-5.46 2.25C58.88.34 54.08-.32 49.79 3.56c-6.63-.859-8.78.91-10.41 2.98 -1.46-.03-10.88-1.495-15.21 4.953 -10.87-1.29-14.3 6.38-10.41 13.546 -2.22 3.43-4.52 6.82.67 13.375 -1.84 3.64-.7 7.6 3.62 12.38 -1.15 5.12 1.1 8.74 5.125 11.56 -.76 7.01 6.433 11.09 8.57 12.54 .82 4.08 2.54 7.94 10.74 10.07 1.35 6.09 6.28 7.14 11.06 8.42 -15.79 9.17-29.33 21.25-29.24 50.87l-2.32 4.12c-18.11 11-34.39 46.39-8.92 75.14 1.66 9 4.45 15.46 6.93 22.62 3.71 28.83 27.96 42.339 34.35 43.93 9.37 7.13 19.35 13.91 32.85 18.65 12.73 13.13 26.52 18.13 40.39 18.12 .2 0 28.27-5 41.01-18.13 13.506-4.75 23.48-11.52 32.85-18.66 6.39-1.6 30.64-15.1 34.35-43.94 2.48-7.16 5.27-13.63 6.93-22.63 25.46-28.77 9.18-64.15-8.93-75.16l-2.32-4.13c.09-29.622-13.45-41.696-29.24-50.88 4.77-1.28 9.7-2.33 11.06-8.43 8.2-2.14 9.92-5.99 10.74-10.08 2.14-1.46 9.33-5.54 8.57-12.55 4.02-2.82 6.26-6.436 5.12-11.57 4.32-4.79 5.46-8.75 3.62-12.39 5.18-6.55 2.88-9.94.67-13.38 3.88-7.16.45-14.84-10.41-13.55 -4.33-6.448-13.75-4.99-15.21-4.96 -1.63-2.07-3.79-3.85-10.41-2.983 -4.29-3.89-9.09-3.23-14.04-1.32 -5.88-4.635-9.77-.92-14.21.48 -7.12-2.33-8.74.859-12.24 2.156 -7.76-1.64-10.113 1.92-13.84 5.695l-4.33-.09c-11.7 6.894-17.51 20.93-19.57 28.149 -2.07-7.22-7.86-21.26-19.56-28.149l-4.33.08c-3.73-3.77-6.08-7.34-13.84-5.695 -3.5-1.3-5.116-4.48-12.24-2.156 -2.92-.93-5.6-2.838-8.75-2.74l-80.3 140.996"/><g fill="#75A928"><path d="M46 30.33c31.03 16 49.07 28.945 58.964 39.96 -5.07 20.289-31.47 21.21-41.13 20.64 1.97-.92 3.62-2.03 4.21-3.72 -2.43-1.73-11.02-.19-17.012-3.56 2.3-.48 3.38-.95 4.45-2.65 -5.67-1.81-11.77-3.37-15.36-6.36 1.93.02 3.74.43 6.27-1.33 -5.08-2.74-10.491-4.91-14.7-9.09 2.62-.07 5.45-.03 6.27-1 -4.65-2.878-8.57-6.08-11.81-9.58 3.67.44 5.22.06 6.11-.58 -3.52-3.6-7.96-6.634-10.075-11.07 2.72.94 5.221 1.3 7.01-.09 -1.2-2.692-6.305-4.28-9.25-10.58 2.87.27 5.91.62 6.52 0 -1.34-5.43-3.62-8.48-5.86-11.65 6.14-.1 15.45.02 15.03-.5l-3.8-3.89c6-1.62 12.14.25 16.59 1.65 2-1.58-.04-3.58-2.48-5.62 5.1.68 9.7 1.85 13.87 3.468 2.22-2.01-1.45-4.02-3.23-6.03 7.87 1.49 11.21 3.59 14.53 5.69 2.4-2.31.13-4.27-1.49-6.28 5.94 2.2 9 5.04 12.22 7.84 1.09-1.48 2.77-2.56.74-6.12 4.21 2.43 7.39 5.29 9.74 8.506 2.61-1.67 1.55-3.94 1.56-6.029 4.38 3.56 7.16 7.36 10.57 11.06 .68-.5 1.28-2.2 1.81-4.872 10.45 10.14 25.23 35.7 3.79 45.83 -18.25-15.05-40.04-25.99-64.18-34.19l0-.01"/><path d="M210.686 30.33c-31.04 16-49.08 28.94-58.959 39.96 5.06 20.289 31.46 21.21 41.12 20.64 -1.98-.92-3.63-2.03-4.22-3.72 2.42-1.73 11.01-.19 17.01-3.56 -2.31-.48-3.39-.95-4.46-2.65 5.66-1.81 11.77-3.37 15.36-6.36 -1.94.02-3.75.43-6.28-1.33 5.07-2.74 10.49-4.91 14.7-9.09 -2.63-.07-5.46-.03-6.28-1 4.64-2.878 8.56-6.08 11.8-9.58 -3.68.44-5.23.06-6.12-.58 3.51-3.6 7.95-6.634 10.07-11.07 -2.73.94-5.23 1.3-7.02-.09 1.19-2.692 6.3-4.28 9.24-10.58 -2.87.27-5.92.62-6.53 0 1.33-5.43 3.62-8.482 5.86-11.65 -6.15-.1-15.46.02-15.03-.5l3.79-3.89c-6.01-1.62-12.15.26-16.6 1.65 -2.01-1.58.03-3.58 2.47-5.615 -5.1.68-9.71 1.85-13.88 3.46 -2.23-2.01 1.44-4.019 3.22-6.03 -7.88 1.49-11.22 3.59-14.54 5.698 -2.41-2.31-.14-4.27 1.48-6.28 -5.95 2.2-9.01 5.041-12.23 7.84 -1.1-1.48-2.78-2.56-.75-6.12 -4.22 2.43-7.4 5.29-9.75 8.5 -2.61-1.67-1.56-3.94-1.57-6.03 -4.39 3.56-7.17 7.36-10.58 11.066 -.69-.5-1.29-2.2-1.82-4.88 -10.46 10.146-25.24 35.7-3.8 45.83 18.23-15.05 40.02-25.99 64.166-34.19h-.01"/></g><g fill="#BC1142"><path d="M165.933 236.93c.1 18.93-16.45 34.36-36.98 34.46 -20.54.1-37.27-15.17-37.38-34.1 -.01-.12-.01-.24 0-.37 -.11-18.94 16.44-34.37 36.98-34.47 20.53-.1 37.26 15.16 37.37 34.1v.36"/><path d="M107.24 139.004c15.4 10.09 18.18 32.96 6.2 51.095 -11.979 18.12-34.18 24.64-49.59 14.54 -15.41-10.1-18.18-32.97-6.21-51.095 11.979-18.13 34.17-24.65 49.581-14.55"/><path d="M148.82 137.177c-15.41 10.09-18.18 32.96-6.21 51.095 11.97 18.12 34.17 24.64 49.58 14.54 15.4-10.1 18.18-32.97 6.2-51.1 -11.98-18.13-34.18-24.64-49.59-14.55"/><path d="M30.25 155.504c16.63-4.46 5.61 68.8-7.92 62.792 -14.89-11.98-19.679-47.04 7.91-62.792"/><path d="M222.453 154.59c-16.64-4.46-5.62 68.8 7.91 62.79 14.88-11.98 19.67-47.04-7.92-62.8"/><path d="M165.946 100.03c28.7-4.85 52.583 12.2 51.619 43.32 -.95 11.93-62.2-41.56-51.619-43.33"/><path d="M86.64 99.121c-28.71-4.85-52.59 12.2-51.62 43.32 .94 11.93 62.19-41.56 51.61-43.33"/><path d="M127.87 91.86c-17.13-.45-33.57 12.71-33.61 20.34 -.05 9.27 13.54 18.77 33.72 19.01 20.61.14 33.76-7.61 33.82-17.18 .07-10.85-18.75-22.36-33.95-22.19v0"/><path d="M128.92 282.043c14.93-.66 34.97 4.81 35.01 12.05 .24 7.03-18.18 22.93-36.01 22.62 -18.47.79-36.58-15.13-36.336-20.65 -.28-8.1 22.48-14.41 37.32-14.04"/><path d="M73.756 239.09c10.63 12.81 15.48 35.316 6.6 41.95 -8.4 5.06-28.79 2.97-43.272-17.84 -9.773-17.47-8.514-35.25-1.66-40.47 10.26-6.25 26.11 2.19 38.31 16.35h-.01"/><path d="M181.956 235.03c-11.51 13.47-17.92 38.053-9.52 45.96 8.02 6.15 29.56 5.29 45.47-16.79 11.55-14.83 7.68-39.6 1.08-46.17 -9.81-7.59-23.88 2.12-37.05 16.98v0"/></g></svg>