<svg viewBox="0 0 256 140" xmlns="http://www.w3.org/2000/svg"><path d="M78.06 92.58c12.81 0 23.2-10.4 23.2-23.21 0-12.82-10.4-23.21-23.21-23.21 -12.82 0-23.21 10.39-23.21 23.2 0 12.81 10.39 23.2 23.2 23.2ZM23.2 138.99c12.81 0 23.2-10.4 23.2-23.21 0-12.82-10.4-23.21-23.21-23.21 -12.82 0-23.21 10.39-23.21 23.2 0 12.81 10.39 23.2 23.2 23.2Zm209.58 0c12.81 0 23.2-10.4 23.2-23.21 0-12.82-10.4-23.21-23.21-23.21 -12.82 0-23.21 10.39-23.21 23.2 0 12.81 10.39 23.2 23.2 23.2Z"/><path fill="#D0021B" d="M156.56 70.35c-.75-7.76-1.12-14.21-7.06-18.75 -7.53-5.75-16.05-2.02-26.55-5.81 -10.32-2.5-17.97-11.66-17.97-22.57 0-12.84 10.57-23.24 23.62-23.24 9.66 0 17.97 5.7 21.63 13.88 5.6 10.63 1.96 21.46 8.99 26.92 8.33 6.45 19.56 1.72 32.1 7.84 4.02 1.85 7.43 4.78 9.83 8.42 2.4 3.63 3.79 7.97 3.79 12.64 0 10.91-7.66 20.07-17.97 22.56 -10.5 3.78-19.02.06-26.55 5.8 -8.46 6.45-3.94 17.26-10.83 28.68 -3.92 7.51-11.87 12.66-21.05 12.66 -13.05 0-23.63-10.41-23.63-23.24 0-9.33 5.58-17.37 13.63-21.07 12.53-6.12 23.77-1.39 32.1-7.85 4.8-3.73 5.82-9.48 5.82-16.93Z"/></svg>