<svg viewBox="0 0 256 228" xmlns="http://www.w3.org/2000/svg"><path fill="#00D8FF" d="M210.48 73.82c-2.66-.92-5.41-1.78-8.25-2.6 .46-1.91.89-3.78 1.27-5.63 6.23-30.29 2.15-54.68-11.77-62.71 -13.36-7.71-35.2.32-57.26 19.52 -2.13 1.84-4.25 3.8-6.38 5.84 -1.42-1.36-2.84-2.67-4.25-3.92C100.72 3.79 77.55-4.86 63.63 3.19c-13.35 7.72-17.3 30.65-11.68 59.35 .54 2.77 1.17 5.6 1.89 8.48 -3.28.93-6.45 1.92-9.48 2.97C17.25 83.43-.06 98.24-.06 113.61c0 15.86 18.58 31.77 46.81 41.42 2.22.76 4.53 1.48 6.92 2.16 -.78 3.11-1.45 6.16-2.02 9.13 -5.36 28.19-1.18 50.59 12.13 58.26 13.74 7.92 36.81-.23 59.27-19.86 1.77-1.56 3.55-3.2 5.34-4.93 2.31 2.22 4.62 4.33 6.92 6.31 21.75 18.72 43.24 26.28 56.53 18.58 13.73-7.95 18.19-32.01 12.39-61.27 -.45-2.24-.96-4.52-1.54-6.85 1.61-.48 3.21-.98 4.76-1.49 29.34-9.73 48.44-25.45 48.44-41.53 0-15.42-17.87-30.33-45.52-39.85v0Zm-6.37 70.98c-1.4.46-2.84.91-4.3 1.34 -3.24-10.26-7.62-21.17-12.97-32.44 5.1-11.01 9.3-21.77 12.45-31.96 2.61.75 5.16 1.55 7.6 2.4 23.68 8.15 38.14 20.21 38.14 29.5 0 9.89-15.61 22.74-40.95 31.13v0Zm-10.52 20.83c2.56 12.94 2.92 24.64 1.23 33.78 -1.53 8.21-4.6 13.69-8.39 15.89 -8.07 4.66-25.33-1.41-43.93-17.42 -2.14-1.84-4.29-3.8-6.44-5.87 7.21-7.89 14.42-17.07 21.45-27.25 12.37-1.1 24.06-2.9 34.67-5.35 .52 2.1.98 4.17 1.38 6.19v0ZM87.26 214.5c-7.89 2.78-14.17 2.86-17.96.67 -8.08-4.66-11.44-22.64-6.86-46.76 .52-2.77 1.14-5.6 1.86-8.5 10.48 2.31 22.09 3.98 34.49 4.99 7.08 9.96 14.5 19.12 21.97 27.15 -1.64 1.57-3.26 3.07-4.88 4.49 -9.94 8.68-19.89 14.84-28.66 17.93v0Zm-36.93-69.77c-12.49-4.27-22.8-9.82-29.86-15.87 -6.35-5.44-9.56-10.84-9.56-15.22 0-9.33 13.89-21.22 37.07-29.3 2.81-.99 5.75-1.91 8.81-2.78 3.2 10.42 7.4 21.31 12.47 32.33 -5.14 11.18-9.4 22.24-12.64 32.79 -2.18-.63-4.29-1.29-6.32-1.98v0ZM62.7 60.47c-4.82-24.59-1.62-43.14 6.42-47.79 8.56-4.96 27.5 2.11 47.46 19.83 1.27 1.13 2.55 2.31 3.84 3.54 -7.44 7.98-14.79 17.07-21.81 26.98 -12.04 1.11-23.57 2.9-34.17 5.3 -.67-2.68-1.26-5.32-1.76-7.89v0Zm110.42 27.26c-2.54-4.38-5.14-8.65-7.79-12.81 8.16 1.03 15.99 2.4 23.34 4.08 -2.21 7.07-4.96 14.46-8.2 22.04 -2.33-4.41-4.78-8.86-7.37-13.33v0Zm-45.04-43.87c5.04 5.46 10.09 11.56 15.06 18.18 -5.01-.24-10.08-.36-15.19-.36 -5.07 0-10.1.12-15.08.35 4.97-6.56 10.06-12.66 15.19-18.18v0ZM82.75 87.79c-2.54 4.38-4.95 8.8-7.23 13.23 -3.19-7.56-5.91-14.98-8.14-22.16 7.3-1.64 15.09-2.98 23.2-3.99 -2.69 4.19-5.32 8.49-7.85 12.89v0 0Zm8.08 65.35c-8.39-.94-16.3-2.21-23.6-3.8 2.26-7.3 5.04-14.89 8.29-22.61 2.29 4.42 4.71 8.84 7.25 13.24h0c2.59 4.47 5.27 8.86 8.03 13.14v0Zm37.54 31.03c-5.19-5.6-10.36-11.78-15.41-18.44 4.9.19 9.89.29 14.97.29 5.21 0 10.37-.12 15.45-.35 -4.99 6.77-10.02 12.96-15.03 18.48v0Zm52.19-57.82c3.42 7.79 6.3 15.34 8.59 22.51 -7.43 1.69-15.44 3.05-23.89 4.07 2.65-4.22 5.28-8.56 7.85-13.03 2.6-4.53 5.08-9.06 7.42-13.57v0Zm-16.9 8.1c-4.01 6.93-8.12 13.56-12.29 19.81 -7.6.54-15.45.82-23.45.82 -7.97 0-15.72-.25-23.18-.74 -4.34-6.34-8.54-12.98-12.52-19.85h0c-3.97-6.85-7.62-13.76-10.93-20.63 3.3-6.89 6.94-13.81 10.88-20.64l-.01 0c3.95-6.86 8.11-13.47 12.41-19.77 7.61-.58 15.42-.88 23.31-.88h0c7.92 0 15.74.3 23.35.88 4.23 6.24 8.36 12.83 12.33 19.69 4.01 6.93 7.7 13.8 11.03 20.54 -3.33 6.85-7.01 13.79-11.01 20.72v0Zm22.56-122.13c8.57 4.94 11.9 24.88 6.52 51.02 -.35 1.66-.74 3.36-1.16 5.08 -10.63-2.46-22.16-4.28-34.23-5.41 -7.04-10.02-14.33-19.13-21.65-27.01 1.96-1.9 3.93-3.7 5.88-5.4 18.89-16.45 36.56-22.95 44.61-18.31v0Zm-58.29 78.43c12.62 0 22.85 10.23 22.85 22.85 0 12.62-10.24 22.85-22.86 22.85 -12.63 0-22.86-10.24-22.86-22.86 0-12.63 10.23-22.86 22.85-22.86v0Z"/></svg>