<svg viewBox="0 0 256 256" xmlns="http://www.w3.org/2000/svg"><defs><radialGradient id="a" fr="0%" fx="33.434%" fy="32.389%" cx="33.434%" cy="32.389%" r="64.015%" gradientTransform="translate(.334344.323892)"><stop offset="0%" stop-color="#FFF" stop-opacity=".904"/><stop offset="100%" stop-color="#FF6D6D"/></radialGradient></defs><path fill="#FFF" d="M127.76 0a127.76 127.76 0 1 0 0 255.53 127.76 127.76 0 1 0 0-255.54Z"/><path fill="#1B1A22" d="M113.64 191.3c-.56.29-1.15.36-1.84.19 -.75-.2-1.53-.9-1.8-1.56 -.24-.59-.23-2.18.12-3.54 -1.82-.41-5.41-1.29-7.2-1.78 -13-3.58-22.96-8.47-28.1-13.71 -2.78-2.84-3.97-5.45-3.96-8.27 .01-2.08.64-3.79 2.23-5.83 1.31-1.68 3.76-3.72 6.54-5.41 -3.42-.93-8.49-2.48-11.26-3.46 -4.59-1.65-9.98-4.15-12.68-5.89 -4.73-3.04-7.72-6.28-9.57-10.21 -1.14-2.42-1.64-4.71-1.52-6.88 .11-2.22.86-4.32 2.25-6.32 2.28-3.28 6.8-6.69 13.35-9.99 1.37-.7 3.56-1.69 5.2-2.41 -4.64-3.13-7.66-7-8.6-10.81 -.31-1.23-.34-3.69-.08-4.83 1.59-6.77 10.66-14.18 25.86-20.5 1.21-.51 4.72-1.86 6.49-2.5 -.12-2.02.34-3.23 2.14-5.15 1.18-1.24 2.42-1.93 3.92-2.19 .68-.12 1.18-.09 1.54.03 .58.18.98.56 1.22 1.2 .21.6.2 1.08-.07 1.63 -.16.32-.46.7-1.01 1.24 -.44.41-.59.57-.69.95h.13c2.85-.88 9.31-2.43 13.43-3.22 15.07-2.89 32.82-4.03 46.17-2.95 12.09.96 25.34 3.72 29.59 6.1 1.27.7 2.3 1.7 2.84 2.69 .41.78.48 1.02.48 2.32 0 1.36-.08 1.56-.5 2.33 -1.39 2.55-5.34 4.33-14.88 5.77 -12.2 1.84-31.83 2.74-46.72 2.12 -14.66-.6-25.66-2.64-31.75-5.79 -.74-.39-.96-.66-1.15-.63 -.2.03-1.68.54-3.32 1.09 -9.02 3.06-16.21 6.52-20.8 10.03 -1.27.96-3.11 2.73-3.9 3.75 -.67.84-1.33 2.07-1.41 2.74 -.11.82.32 1.71 1.06 2.65 .93 1.19 2.38 2.44 4.28 3.71 1.28.85 4.92 2.8 6.47 3.45l1.99-.42c9.76-3.42 21.56-6.4 33.27-8.41 15.81-2.72 35.23-4.38 53.71-4.58 11-.12 17.34.31 24.11 1.63 5.28 1.02 10.41 2.87 12.58 4.48 1.54 1.13 2.57 2.45 3.1 3.85 .55 1.47.57 3.04 0 4.64 -1.49 4.16-7.36 7.93-17.23 10.71 -9.34 2.62-22.23 4.47-37.85 5.28 -9.33.49-22.92.55-30.47.14 -19.29-1.07-34.07-3.67-44.53-7.81l-.72-.29c-4.78 1.67-11.71 4.79-14.91 6.67 -2.67 1.57-5.02 3.36-6.12 4.73 -.69.84-1.1 1.63-1.16 2.48 -.07.88.22 1.82.79 2.92 .89 1.71 2.98 4.01 4.89 5.41 5.89 4.31 16.84 8.42 31.06 11.73l3.08.71 1.99-.69c13.15-4.53 31.28-8.03 48.8-9.4 9.71-.76 20.76-.86 28.84-.24 6.41.48 11.9 1.29 16.57 2.44 4.12 1.01 7.19 2.22 9.31 3.65 2.36 1.59 3.62 3.47 3.97 5.66 .26 1.67-.12 3.26-1.1 4.68 -.91 1.3-2.34 2.46-4.28 3.36 -5.64 2.61-15.94 4.24-31.98 4.99 -4 .17-17.68.17-21.91 0 -17.69-.78-34.41-2.72-49.74-5.75l-2.9-.58 -1 .43c-2.89 1.25-5.96 2.97-7.93 4.44 -1.16.85-2.48 2.22-2.88 3.04 -.22.42-.23.51-.21.94 .05.76.35 1.28 1.08 2.21 3.17 4.07 11.53 8.46 22.03 11.74 4 1.24 8.32 2.34 12.67 3.21l2.1.42c4.1-1.73 9.06-2.39 17.37-2.39 9.54.01 19.98 1.34 23.22 2.11 3.77.89 6.44 2.69 6.93 3.87 .3.76.32 1.58.12 2.33 -.22.77-.68 1.46-1.32 1.88 -.94.63-3.79 1.23-8 1.52 -2.98.21-11.68.28-15.65.13 -7.23-.28-12.22-.73-18.79-1.69l-2.08-.3c-1.09.57-1.88 1.37-2.44 2.22 -.46.67-.9 1.08-1.35 1.31Zm36.63-39.36c4.92.08 6.95.07 13.51-.06 7.91-.17 16.13-.92 21.72-2 2.74-.53 5.18-1.17 6.77-2.04 -.87-.4-2.05-.82-3.23-1.17 -5.73-1.68-13.22-2.77-23.66-3.44 -3.16-.22-18.01-.2-21.55 0 -11.93.68-22.35 2.01-32.42 4.12 -1.29.27-2.81.61-4.26.95 14.05 2.1 28.99 3.35 43.08 3.6v0Zm24.89-44.33c11.07-1.73 19.53-4.4 22.62-6.76 -.28-.2-.65-.42-.99-.59 -3.47-1.78-10.09-3.04-18.48-3.59 -3.46-.23-16.18-.19-21.91.06 -27.44 1.21-48.38 4.09-66.78 9.23 4.98 1.19 11.52 2.33 17.36 2.98 10.96 1.22 23.55 1.7 35.42 1.34 13.2-.4 23.32-1.24 32.73-2.71Zm-22.54-35.87c9.03-.31 16.78-.99 22.15-1.9 -.73-.18-1.47-.35-2.16-.49 -11.86-2.47-24.21-3.23-38.08-2.35 -8.14.52-16.19 1.51-23.64 2.93 5.73.9 12.51 1.48 21.37 1.82 2.31.09 17.46.07 20.33-.04v0Z" transform="scale(1-1) rotate(40 469.144 3.03708e-14)"/><path fill="url(#a)" d="M127.87 86.32a41.55 41.63 0 1 0 0 83.26 41.55 41.63 0 1 0 0-83.27Z"/><path fill="#1B1A22" d="M207.37 124.78c.81.32.99.42 1.87 1.46 .83.99.93 1.22 1.12 2.08 .22 1.1.07 2.52-.45 3.88 -1.74 4.55-10.11 15.18-18.76 23.7 -9.54 9.4-23.87 19.94-37.27 27.42 -3.67 2.04-9.61 5-12.36 6.17l-.11.08 -6.89 2.82c-.7.25-1.66.59-2.66.93l-.67.23c-1.33.45-2.61.89-3.27 1.09 -15.72 4.92-27.43 5.08-33 .92l5.18-5.87c.49.46 1.78.97 2.83 1.2 1.25.27 3.79.44 5.39.37 5.77-.26 13.5-2.23 22.38-5.68 1.6-.64 3.07-1.21 3.24-1.3l15.71-7.68c6.61-3.7 13.42-8.11 19.99-12.94 11.19-8.24 20.16-16.77 27.66-26.27 .43-.55.89-1.16 1.34-1.76l8.62-10.95Zm-6.59-33.87c1.46.85 2.46 2.07 2.98 3.56 .49 1.4.55 3.08.1 4.94 -.63 2.62-3.37 7.33-6.76 11.52 -4.34 5.35-8.92 9.76-17.43 16.74 -14.29 11.72-30.24 22.93-44.09 31.01 -10.26 5.98-21.22 11.28-30.9 14.94l-1.8.96 -11.33 3.45c-1.73.51-4.04 1.15-5.54 1.5 -7.15 1.68-12.8 1.97-16.65.93 -2.36-.64-4.28-1.77-5.79-3.39 -1.49-1.6-2.58-3.67-3.26-6.25l7.86-1.23c.27 1.2.65 2.11 1.27 2.75 .59.61 1.41.95 2.48 1.16 1.73.34 4.67.2 7.73-.31 3.66-.63 10.97-2.69 15.7-4.48l14.86-6.04c17.39-7.89 35.29-19.15 57.08-35.85 4.55-3.5 14.32-11.65 16.82-14.04 6.07-5.82 10.33-11.04 11.85-14.63 .15-.36.29-.76.38-1.09l4.34-6.27Zm-35.03-34.43c1.63.42 2.98 1.43 3.85 2.88 1.13 1.9 1.38 4.15.59 6.89 -.71 2.46-2.29 5.35-4.79 8.78 -2.85 3.87-6.53 8.02-11.13 12.52 -5.8 5.66-14.32 12.69-22.25 18.36 -14.31 10.21-30.44 19.18-43.43 24.17l-1.97.75 -6.92 2.08 -6.29 1.41c-3.22.49-6.41.51-8.49.06 -2.54-.55-4.12-1.45-5.47-3.03 -1.83-2.15-2.59-4.92-2.29-8.88l6.88 2.11c.03 1.18.14 1.77.58 2.39 .25.34.32.39.76.59 .82.37 2.72.57 4.15.48 .95-.06 2.53-.33 4.09-.64l.51-.11c2.06-.43 3.99-.88 4.27-.95l.03-.01v0l17.96-7.4 .04-.03c.34-.18 2.75-1.42 3.83-1.99 9.07-4.86 17.91-10.55 27.48-17.68 2.84-2.13 14.22-11.67 16.5-13.86 7.55-7.23 12.59-12.87 15.9-17.84 .68-1.03 1.08-2.1 1.72-2.97l3.75-8.24Z"/></svg>