<svg viewBox="0 0 256 230" xmlns="http://www.w3.org/2000/svg"><path fill="#00435B" d="M157.98 142.48l-4.92 8.52c-1.48 2.56-4.22 4.15-7.19 4.15h-37.62c-2.97 0-5.71-1.59-7.19-4.16l-4.92-8.53h61.8Zm13.74-23.88l-8.66 15.03H91.08l-8.66-15.04h89.29Zm-8.35-23.35l8.35 14.5H82.39l8.35-14.51h72.61Zm-17.5-22.07c2.96 0 5.7 1.58 7.18 4.15l5.22 9.07H95.83l5.22-9.08c1.47-2.57 4.21-4.16 7.18-4.16h37.61Z"/><path fill="#002B3B" d="M53.52 69.25c-4.17-20.21-5.07-35.71-2.37-46.96 1.6-6.7 4.53-12.16 8.98-16.1 4.7-4.16 10.64-6.2 17.32-6.2 11.01-.001 22.6 5.02 34.98 14.57 5.04 3.89 10.28 8.58 15.73 14.08 .43-.56.92-1.09 1.46-1.57C145 13.35 157.96 4.83 169.03 1.55c6.58-1.96 12.77-2.14 18.4-.25 5.94 2 10.68 6.13 14.02 11.93 5.51 9.56 6.97 22.12 4.91 37.63 -.84 6.32-2.28 13.21-4.3 20.67 .76.09 1.52.26 2.28.51 19.52 6.46 33.34 13.42 41.71 21.37 4.97 4.73 8.23 9.99 9.4 15.82 1.24 6.15.03 12.32-3.31 18.11 -5.51 9.54-15.63 17.07-30.06 23.04 -5.8 2.39-12.35 4.56-19.67 6.51 .33.75.59 1.55.76 2.39 4.16 20.2 5.06 35.7 2.36 46.95 -1.61 6.69-4.54 12.15-8.99 16.09 -4.71 4.15-10.65 6.19-17.33 6.19 -11.02 0-22.61-5.03-34.99-14.58 -5.11-3.94-10.41-8.69-15.91-14.26 -.57.88-1.27 1.7-2.09 2.44 -15.39 13.71-28.35 22.23-39.42 25.51 -6.59 1.95-12.78 2.13-18.41.24 -5.95-2.01-10.69-6.14-14.03-11.94 -5.52-9.57-6.98-22.13-4.92-37.64 .86-6.56 2.37-13.71 4.51-21.49 -.84-.09-1.68-.27-2.51-.54 -19.53-6.47-33.35-13.43-41.72-21.38 -4.98-4.74-8.24-10-9.41-15.83 -1.25-6.16-.04-12.33 3.3-18.12 5.5-9.55 15.62-17.08 30.05-23.05 5.96-2.47 12.73-4.7 20.32-6.69 -.28-.67-.49-1.36-.64-2.09Z"/><path fill="#FF4154" d="M189.64 161.33c1.94-.35 3.8.9 4.23 2.8l.02.11 .2 1.07c6.7 35.27 1.98 52.91-14.18 52.91 -15.82 0-35.95-15.06-60.4-45.16 -.55-.67-.84-1.5-.83-2.36 .01-2 1.61-3.61 3.6-3.66l.11-.01 1.28 0c10.28.05 20.28-.31 30-1.08 11.46-.92 23.44-2.48 35.92-4.69ZM78.63 134.66l.06.1 .64 1.12c5.17 9 10.57 17.54 16.18 25.62 6.6 9.52 14.03 19.15 22.29 28.91 1.27 1.5 1.13 3.74-.31 5.08l-.1.08 -.84.71c-27.31 23.39-45.06 28.06-53.25 14.01 -8.02-13.76-5.12-38.78 8.71-75.05 .3-.8.87-1.47 1.61-1.89 1.73-.99 3.92-.42 4.96 1.26ZM203.48 82.6l.11.03 1.02.35c33.7 11.72 46.51 24.6 38.41 38.65 -7.92 13.73-30.94 23.73-69.05 30 -.85.13-1.73-.03-2.47-.46 -1.76-1.04-2.34-3.29-1.31-5.05 5.45-9.29 10.37-18.53 14.74-27.72 4.96-10.43 9.61-21.62 13.96-33.58 .65-1.82 2.59-2.8 4.43-2.3l.11.03ZM84.42 76.69c1.75 1.03 2.33 3.28 1.3 5.04 -5.46 9.28-10.38 18.52-14.75 27.71C66 119.86 61.35 131.05 57 143.01c-.68 1.84-2.68 2.83-4.55 2.26l-.12-.04 -1.03-.36c-33.71-11.73-46.52-24.61-38.42-38.66 7.91-13.74 30.93-23.74 69.04-30.01 .84-.14 1.72.02 2.46.45Zm108.2-57.75c8.01 13.75 5.11 38.77-8.72 75.04 -.31.79-.88 1.46-1.62 1.88 -1.74.98-3.93.41-4.97-1.27l-.07-.11 -.65-1.13c-5.18-9.01-10.58-17.55-16.19-25.63 -6.61-9.53-14.04-19.16-22.3-28.92 -1.28-1.51-1.14-3.75.3-5.09l.09-.09 .83-.72c27.3-23.4 45.05-28.07 53.24-14.02ZM77.41 10.56c15.81 0 35.94 15.05 60.39 45.15 .54.66.83 1.49.82 2.35 -.02 1.99-1.62 3.6-3.61 3.65l-.12 0 -1.29-.01c-10.29-.06-20.29.3-30.01 1.07 -11.47.91-23.45 2.47-35.93 4.68 -1.95.34-3.81-.91-4.24-2.81l-.03-.12 -.21-1.08c-6.71-35.28-1.99-52.92 14.17-52.92Z"/><path fill="#FFD94C" d="M30.71 0h31.57c4.61 0 8.88 2.46 11.18 6.47l15.85 27.62c2.28 3.97 2.28 8.86 0 12.83L73.45 74.54c-2.3 4-6.57 6.47-11.19 6.47H30.68c-4.62 0-8.89-2.47-11.19-6.48L3.63 46.9c-2.29-3.98-2.29-8.87-.001-12.84L19.47 6.43c2.29-4.01 6.56-6.48 11.18-6.48Zm26.76 8.33c4.62 0 8.88 2.47 11.18 6.48L79.7 34.09c2.27 3.97 2.27 8.85 0 12.82L68.64 66.19c-2.3 4-6.57 6.48-11.19 6.48H35.49c-4.63 0-8.89-2.48-11.19-6.49L13.24 46.89c-2.28-3.98-2.28-8.86 0-12.83l11.05-19.29c2.29-4.01 6.56-6.49 11.18-6.49h21.95Zm-5.19 9.11H40.7c-4.62 0-8.88 2.46-11.18 6.46v0l-5.85 10.16c-2.29 3.97-2.29 8.86 0 12.84v0l5.84 10.16c2.29 4 6.56 6.46 11.17 6.46v0h11.57c4.61 0 8.87-2.47 11.17-6.47v0l5.84-10.17c2.28-3.98 2.28-8.87 0-12.85v0l-5.85-10.17c-2.3-4.01-6.57-6.47-11.18-6.47v0Zm-5 8.72c4.61 0 8.87 2.46 11.17 6.46l.82 1.43c2.29 3.98 2.29 8.88 0 12.86l-.83 1.43c-2.31 3.99-6.57 6.46-11.18 6.46h-1.59c-4.62 0-8.88-2.47-11.18-6.47l-.83-1.44c-2.3-3.99-2.3-8.89 0-12.87l.82-1.44c2.3-4 6.56-6.47 11.17-6.47h1.58Zm-.8 8.59c-2.06 0-3.95 1.09-4.98 2.86 -1.03 1.77-1.03 3.95 0 5.73 1.02 1.77 2.91 2.86 4.96 2.86v0c2.05 0 3.94-1.1 4.97-2.87 1.02-1.78 1.02-3.96 0-5.74 -1.03-1.78-2.92-2.87-4.97-2.87v0ZM-.03 40.48h10.32" transform="translate(80.5755 73.6691)"/></svg>