<svg viewBox="0 0 512 182" xmlns="http://www.w3.org/2000/svg"><g fill="#1C1E21"><path d="M38.94 0c8.46 0 15.31 6.85 15.31 15.31 0 6.3-3.83 11.73-9.29 14.08l-.17.07v6.45c0 6.22 4.63 11.53 10.78 12.39l.18.02 1.84.24c10.01 1.26 17.77 8.46 19.76 18.35 1.99 9.89-2.36 19.53-11.1 24.6 -3.92 2.25-8.19 3.63-12.69 4.09l-.23.02 -27.81 2.61c-2.84.26-5.51 1.12-7.99 2.55 -5.05 2.91-6.04 7.96-5.27 11.69 .75 3.7 3.58 7.91 9.23 8.7l2.02.26c12.17 1.51 21.38 11.83 21.56 24.07l0 .37v5.99c5.36 2.37 9.12 7.75 9.12 14.01 0 8.46-6.86 15.31-15.32 15.31 -8.47 0-15.32-6.86-15.32-15.32 0-6.29 3.8-11.72 9.24-14.07l.16-.08v-5.88c0-6.23-4.64-11.54-10.79-12.4l-.19-.03 -1.85-.25C10.1 131.88 2.34 124.68.35 114.79c-2.02-9.9 2.35-19.54 11.09-24.61 3.91-2.26 8.18-3.64 12.68-4.1l.22-.03 27.8-2.62c2.83-.27 5.5-1.13 7.98-2.56 5.04-2.92 6.03-7.97 5.26-11.7 -.76-3.71-3.59-7.92-9.24-8.71l-2.03-.27c-12.18-1.52-21.39-11.84-21.57-24.08l-.01-.38v-6.62c-5.35-2.4-9.09-7.76-9.09-14 0-8.47 6.85-15.32 15.31-15.32Zm18.41 102.5l8.58 9.4c6.38 7.02 9.93 16.08 10.01 25.54l0 .28H63.81c0-6.49-2.39-12.71-6.71-17.53l-.14-.15 -14.6-16.01 11.65-1.11 .36-.05c.87-.1 1.74-.22 2.6-.37l.32-.06ZM12.98 43.65c-.001 6.48 2.38 12.7 6.7 17.52l.13.14 14.63 16.04 -10.78 1.02 -.33.02c-1.18.11-2.35.28-3.49.51l-.32.06 -8.67-9.51C4.46 62.44.91 53.37.83 43.9l-.01-.29h12.1Z"/><path d="M181 47.74l.23 0 .24 0c3.98.11 11.01 1.2 16.73 6.86 3.92 3.85 6.35 9.28 6.89 15.27 .5 5.7-.75 11.37-3.54 15.96 -4.76 7.86-12.65 10.61-15.93 11.45l-.42.1 7.73 9.76c6.71 7.27 10.39 16.7 10.39 26.51v4.02h-11.64v-4.03c0-6.96-2.64-13.61-7.44-18.76l-.17-.17 -11.02-13.9 .8-.64c-3.83.94-7.59 1.88-11.28 2.81l-4.23 1.06c-5.03 1.26-10.18 2.57-15.48 3.87l-.13 29.71 -11.66-.05 .22-74.26c.02-8.53 7.05-15.44 15.7-15.44h.06c4.76.04 9.4-.02 13.93-.08l6.03-.1c4.49-.07 9.11-.13 13.9-.08Zm-12.66 11.71l-8.25.12c-4.23.06-8.58.1-13.06.06 -2.22.02-4.01 1.72-4.03 3.81l-.11 32.52 1.7-.43 1.84-.47c3.05-.77 6.07-1.53 9.03-2.27l1.59-.41c5.59-1.42 11.37-2.87 17.3-4.3l8.43-2.14 .11-.04c1.96-.53 6.15-2.11 8.59-6.14 3.15-5.21 2.43-12.95-1.59-16.93 -3.11-3.07-7.34-3.47-9.08-3.5l-.06-.01c-3.72-.04-7.38-.02-10.97.03l-1.54.02Zm118.41 76.23h-40.71c-14.04 0-25.46-11.42-25.46-25.46V72.9c0-14.04 11.41-25.46 25.45-25.46h21.77c14.03 0 25.45 11.41 25.45 25.45v5.87c0 10.79-8.79 19.58-19.59 19.58h-41.44v11.88c0 7.59 6.19 13.79 13.79 13.79h40.7v11.63Zm-54.5-48.98h41.45c4.36 0 7.92-3.56 7.92-7.93v-5.88c0-7.6-6.2-13.8-13.8-13.8h-21.8c-7.6 0-13.8 6.19-13.8 13.79v13.79Zm118.98 49.93h-21.78c-14.04 0-25.46-11.42-25.46-25.46V73.83c0-14.04 11.41-25.46 25.45-25.46h21.77c14.03 0 25.45 11.41 25.45 25.45v5.82H365v-5.83c0-7.6-6.2-13.8-13.8-13.8h-21.78c-7.6 0-13.8 6.19-13.8 13.79v37.33c0 7.59 6.19 13.79 13.79 13.79h21.77c7.59 0 13.79-6.2 13.79-13.8v-5.83h11.65v5.82c0 14.03-11.42 25.45-25.46 25.45Zm85.27-.97h-21.78c-14.04 0-25.46-11.42-25.46-25.46V72.88c0-14.04 11.41-25.46 25.45-25.46h21.77c14.03 0 25.45 11.41 25.45 25.45v37.33c-.03 14.03-11.42 25.43-25.46 25.43ZM414.72 59.1c-7.6-.001-13.8 6.19-13.8 13.79v37.33c0 7.59 6.19 13.79 13.79 13.79h21.77c7.59 0 13.79-6.2 13.79-13.8V72.87c0-7.6-6.2-13.8-13.8-13.8h-21.78Zm60.34-4.33h11.65v79.44h-11.66V54.76Zm0-24.91h11.65v10.91h-11.66V29.85Zm25.22-.39h11.65v104.75h-11.66V29.46Z"/></g></svg>