<svg viewBox="0 0 256 596" xmlns="http://www.w3.org/2000/svg"><path fill="#1C1E21" d="M128.01 0c27.82 0 50.35 22.53 50.35 50.35 0 20.73-12.57 38.56-30.52 46.29l-.55.23v21.21c0 20.47 15.22 37.91 35.46 40.75l.61.08 6.07.79c32.91 4.16 58.41 27.82 64.96 60.33 6.54 32.51-7.74 64.23-36.48 80.88 -12.88 7.41-26.9 11.94-41.69 13.47l-.75.07 -91.4 8.59c-9.32.85-18.11 3.7-26.24 8.39 -16.59 9.58-19.83 26.16-17.32 38.46 2.48 12.16 11.77 26.02 30.36 28.6l6.64.86c40.03 4.97 70.29 38.89 70.9 79.13l0 1.22v19.69c17.64 7.79 30 25.5 30 46.06 0 27.82-22.54 50.35-50.36 50.35 -27.83 0-50.36-22.54-50.36-50.36 0-20.68 12.5-38.5 30.38-46.23l.54-.24v-19.3c0-20.48-15.23-37.92-35.47-40.76l-.62-.09 -6.08-.8c-32.92-4.17-58.42-27.83-64.97-60.34 -6.61-32.52 7.73-64.24 36.47-80.89 12.87-7.42 26.89-11.95 41.68-13.48l.74-.08 91.39-8.6c9.31-.86 18.1-3.71 26.23-8.4 16.58-9.59 19.82-26.17 17.31-38.47 -2.49-12.17-11.78-26.03-30.37-28.61l-6.65-.87c-40.04-4.98-70.3-38.9-70.91-79.14l-.01-1.23V96.16c-17.58-7.87-29.88-25.51-29.88-46C77.47 22.33 100-.2 127.82-.2Zm60.53 336.96l28.21 30.92c21 23.09 32.67 52.86 32.9 83.97l0 .94H209.8c0-21.33-7.84-41.75-22.04-57.61l-.44-.48 -47.98-52.61 38.32-3.64 1.21-.14c2.87-.33 5.73-.71 8.56-1.2l1.05-.2ZM42.68 143.52c-.001 21.32 7.83 41.74 22.03 57.6l.43.47 48.11 52.73 -35.43 3.37 -1.06.09c-3.86.36-7.71.92-11.48 1.67l-1.03.2 -28.49-31.26c-21.01-23.03-32.68-52.86-32.91-83.98l-.01-.95h39.78Z"/></svg>