<svg viewBox="0 0 512 121" xmlns="http://www.w3.org/2000/svg"><path fill="#E00" d="M106.25 69.44c10.46 0 25.61-2.16 25.61-14.62 .03-.97-.06-1.93-.26-2.87l-6.24-27.08c-1.44-5.96-2.71-8.67-13.17-13.9C104.07 6.81 86.39-.04 81.16-.04c-4.88 0-6.29 6.27-12.1 6.27 -5.59 0-9.75-4.69-14.98-4.69 -5.03 0-8.3 3.42-10.83 10.46 0 0-7.04 19.84-7.95 22.72 -.15.52-.21 1.07-.19 1.62 0 7.71 30.37 33.01 71.07 33.01m27.22-9.53c1.44 6.85 1.44 7.57 1.44 8.47 0 11.71-13.18 18.21-30.49 18.21 -39.13.02-73.41-22.91-73.41-38.06 -.01-2.11.42-4.2 1.26-6.14C18.12 43-.1 45.51-.1 61.59c0 26.34 62.41 58.81 111.84 58.81 37.89 0 47.44-17.14 47.44-30.67 0-10.65-9.21-22.73-25.8-29.95"/><g><path d="M133.47 59.89c1.44 6.85 1.44 7.57 1.44 8.47 0 11.71-13.18 18.21-30.49 18.21 -39.13.02-73.41-22.91-73.41-38.06 -.01-2.11.42-4.2 1.26-6.14l3.06-7.59c-.15.51-.21 1.05-.19 1.58 0 7.71 30.37 33.01 71.07 33.01 10.46 0 25.61-2.16 25.61-14.62 .03-.97-.06-1.93-.26-2.87l1.86 7.94Z"/><path d="M484.71 77.23c0 9.94 5.98 14.78 16.89 14.78 3.35-.09 6.69-.56 9.94-1.41V79.06c-2.08.65-4.25.98-6.43.97 -4.5 0-6.16-1.41-6.16-5.64V56.7h13.02V44.81h-13.03V29.74l-14.23 3.07v11.98h-9.45v11.88h9.41v20.5Zm-44.36.26c0-3.08 3.08-4.58 7.74-4.58 2.84.01 5.68.37 8.45 1.05v5.98c-2.73 1.48-5.8 2.24-8.9 2.2 -4.57 0-7.31-1.76-7.31-4.67m4.35 14.69c5.02 0 9.07-1.06 12.85-3.61v2.82h14.07V61.52c0-11.35-7.65-17.58-20.41-17.58 -7.13 0-14.18 1.67-21.76 5.1l5.1 10.47c5.45-2.3 10.04-3.7 14.08-3.7 5.85 0 8.88 2.28 8.88 6.95v2.28c-3.45-.9-7-1.34-10.57-1.33 -11.98 0-19.19 5.02-19.19 13.99 0 8.18 6.51 14.42 16.89 14.42m-77.36-.79h15.13V67.18h25.34v24.11h15.17V29.68h-15.13v23.67h-25.35V29.67h-15.14l-.06 61.63Zm-57.63-23.35c0-6.7 5.28-11.8 12.23-11.8 3.61-.08 7.13 1.21 9.84 3.61v16.27c-2.66 2.5-6.2 3.84-9.85 3.73 -6.87 0-12.24-5.11-12.24-11.8m22.26 23.32h14.08V26.59l-14.23 3.07v17.51c-3.63-2.06-7.73-3.12-11.89-3.08 -13.55 0-24.21 10.46-24.21 23.84 -.08 6.34 2.39 12.44 6.86 16.95 4.46 4.5 10.55 7.01 16.9 6.98 4.48.02 8.86-1.4 12.49-4.05l-.04 3.46Zm-64.63-35.8c4.48 0 8.26 2.9 9.76 7.38h-19.42c1.4-4.63 4.92-7.39 9.64-7.39m-24 12.55c0 13.55 11.08 24.11 25.33 24.11 7.83 0 13.55-2.12 19.45-7.05l-9.43-8.37c-2.21 2.29-5.46 3.52-9.33 3.52 -4.98.14-9.53-2.8-11.45-7.39h33.17v-3.54c0-14.79-9.95-25.44-23.5-25.44 -6.44-.1-12.65 2.4-17.22 6.94 -4.57 4.53-7.12 10.72-7.06 17.16m-24.57-25.44c5.02 0 7.83 3.16 7.83 6.95s-2.82 6.95-7.84 6.95h-14.98V42.54h14.97Zm-30.13 48.66h15.13V68.76h11.52l11.62 22.44h16.94l-13.56-24.65c7.04-2.87 11.64-9.73 11.61-17.34 0-11.09-8.72-19.63-21.76-19.63h-31.54v61.6Z"/></g></svg>