<svg viewBox="0 0 256 151" xmlns="http://www.w3.org/2000/svg"><path fill="#F26B00" d="M208.61 119.9H96.67c-10.54 0-19.11-8.58-19.11-19.11 0-10.54 8.57-19.12 19.1-19.12h61.12c17.84 0 32.35-14.52 32.35-32.36s-14.52-32.36-32.36-32.36H47.18C44.12 7.11 34.95-.04 24.1-.04 10.75-.04-.06 10.77-.06 24.11c0 13.34 10.81 24.15 24.15 24.15 11.23 0 20.68-7.68 23.38-18.08v0h110.27c10.53 0 19.1 8.57 19.1 19.1 0 10.53-8.58 19.1-19.11 19.1H96.6c-17.84 0-32.36 14.51-32.36 32.35 0 17.84 14.51 32.35 32.35 32.35h111.93c2.87 10.12 12.18 17.53 23.23 17.53 13.34 0 24.15-10.82 24.15-24.16 0-13.35-10.82-24.16-24.16-24.16 -11.05 0-20.36 7.4-23.24 17.52Z"/></svg>