<svg viewBox="0 0 256 297" xmlns="http://www.w3.org/2000/svg"><path fill="#121212" d="M141.67 0c76.37 0 114.32 36.34 114.32 94.41 0 43.43-26.71 71.75-62.79 76.47 30.45 6.13 48.25 23.6 51.54 58.06l.47 6.33 .41 5.92 .35 5.54 .24 4.17 .26 4.93 .13 2.81 .19 4.46 .15 4.22 .07 2.42 .1 3.88 .09 4.44 .03 2.14 .06 6.22 .01 6.49 0 3.88h-78.76l0-1.63v0l.02-3.15v0l.04-3.07 .13-7.43 .03-2.49 .02-3.91v0l-.01-2.5 -.03-2.62 -.04-2.06 -.07-2.88 -.1-3.05 -.13-3.25 -.17-3.46 -.1-1.82 -.17-2.84 -.19-2.98 -.29-4.21 -.25-3.35c-.08-1.04-.16-2.04-.25-3.02l-.21-1.94c-2.61-22.83-11.66-32.16-27.17-35.27l-1.31-.25c-.89-.16-1.79-.29-2.71-.41l-1.4-.17c-.24-.03-.48-.05-.71-.08l-1.45-.13v0l-1.48-.11v0l-1.51-.09v0l-1.52-.06 -1.55-.04 -1.58-.02v0l-124.67-.01v-61.85h127.61c2.08 0 4.1-.04 6.06-.13l1.93-.1v0l1.89-.13v0l1.85-.16c.3-.03.6-.06.9-.09l1.78-.2c1.17-.14 2.32-.3 3.44-.48l1.65-.29c20.7-3.76 31.06-14.75 31.06-36.2 0-24.08-16.87-38.67-50.61-38.67H-.35V-.33h141.67Zm-58.4 250.78c10.33 0 14.65 5.73 16.19 11.22l.2.78v0l.16.78 .1.61 .04.3 .07.6 .05.59 .02.29 .03.56 0 .27 0 .54v29.5H-.08v-46.11h83.27Z"/></svg>