<svg viewBox="0 0 512 128" xmlns="http://www.w3.org/2000/svg"><path fill="#121212" d="M404.47 38.33v89.49H372.2v-89.5h32.26Zm41.6-.18l14.73 21.27 15.13-21.28h33.25l-32.27 42.53 35.05 46.95h-35.65l-17.73-24.28 -17.73 24.27h-33.27l34.85-45.55 -32.07-43.95H446Zm-116.09-2.83c24.25 0 31.52 16.71 31.66 35.15l0 .55v56.18h-32.27l-.01-47.93v0l-.01-.73v0l-.02-.71v0l-.02-.7v0l-.03-.68c-.01-.12-.01-.23-.02-.34l-.04-.66c-.02-.22-.03-.44-.04-.65l-.05-.63c-.01-.11-.02-.21-.03-.31l-.06-.61v0l-.07-.6c-.92-7.72-3.91-11.73-11.62-11.73 -9.15 0-13.11 6.37-14.09 16.54l-.07.72c-.12 1.46-.18 2.99-.19 4.59l-.01 44.34h-32.27V79.55l-.01-.73c-.01-.13-.01-.24-.01-.36l-.02-.71v0l-.02-.7v0l-.03-.68v0l-.04-.67c-.01-.11-.02-.22-.02-.33l-.05-.65v0l-.05-.63v0l-.06-.62c-.84-8.31-3.89-12.63-11.89-12.63 -10.45 0-14.27 8.65-14.34 21.87l-.01 44.34H211.9v-89.5h32.26v13.44c4.77-9.84 14.33-15.86 27.68-15.86 15.73 0 23.89 7.22 27.68 17.65 4.77-10.04 15.33-17.66 30.27-17.66Zm-170.42-2.83c29.37 0 45.09 20.06 45.4 44.02l0 .72v9.02h-62.34c.79 11.03 8.76 16.25 18.52 16.25 8.64 0 14.19-2.94 17.2-9.77l.11-.28 25.89 2.4c-4.59 20.46-20.92 31.9-44.42 31.9 -28.48 0-48.8-17.26-48.8-45.76 0-28.3 20.71-48.56 48.39-48.56ZM60.35-.02c32.54 0 48.71 15.48 48.71 40.22 0 18.5-11.38 30.57-26.76 32.58 12.97 2.61 20.56 10.05 21.96 24.74l.2 2.7v0l.17 2.52v0l.15 2.36v0l.1 1.78v0l.11 2.1v0l.05 1.19v0l.08 1.9v0l.06 1.79v0l.03 1.03v0l.04 1.65v0l.03 1.89v0l.01.91v0l.02 2.65v0l0 2.76v0l0 1.65v0H71.75c0-.7 0-1.38.01-2.04l.02-1.31v0l.05-3.17 .01-1.07v0l0-1.1c0-.19 0-.38 0-.57l-.01-1.07v0l-.01-1.12v0l-.02-.88v0l-.03-1.23v0l-.04-1.3v0l-.06-1.39v0l-.07-1.48v0l-.05-.78v0l-.07-1.21v0l-.08-1.27v0l-.13-1.8v0l-.11-1.43c-.93-13.47-6.35-17.2-16.26-17.66l-.65-.03v0l-.66-.02c-.23-.01-.45-.01-.68-.01l-53.12-.01V58.1h54.37c14.37 0 21.56-4.41 21.56-16.08 0-10.26-7.19-16.48-21.57-16.48H-.23V-.25h60.36ZM35.46 106.83c4.4 0 6.24 2.44 6.9 4.78l.07.26c.01.04.02.08.03.13l.05.26v0l.04.26c0 .04.01.08.01.13l.03.25v0l.02.25c0 .04 0 .08 0 .12l.01.24c0 .03 0 .07 0 .11l0 .23v0 12.57H-.08v-19.65H35.4Zm123.68-51.08c-8.08 0-12.65 3.9-14.83 9.62l-.17.44v0l-.16.45c-.15.45-.29.91-.41 1.39l-.12.47c-.08.31-.15.64-.22.96l-.1.49c-.02.08-.03.16-.05.24l-.08.5v0l-.04.25h31.26c-.4-8.03-5.58-14.85-15.14-14.85Zm245.5-54.37v28.49h-32.67V1.37h32.66Z"/></svg>