<svg viewBox="0 0 512 110" xmlns="http://www.w3.org/2000/svg"><g fill="#262626"><path d="M104.68 91.42c2.77 0 5.02 2.25 5.02 5.02v3.2c0 5.55-4.51 10.05-10.06 10.05H60.31c-5.552 0-10.06-4.51-10.06-10.06v-3.21c0-2.78 2.25-5.03 5.02-5.03h49.37Zm-5.03-54.86c5.55 0 10.05 4.5 10.05 10.05v26.06c0 2.77-2.26 5.02-5.03 5.02H10.03c-5.56 0-10.06-4.51-10.06-10.06V41.56c0-2.78 2.25-5.03 5.02-5.03h94.63ZM49.36-.02c5.552 0 10.05 4.5 10.05 10.05v7.77c0 2.776-2.26 5.02-5.03 5.02H5c-2.78 0-5.03-2.26-5.03-5.03v-7.78c0-5.56 4.5-10.06 10.05-10.06h39.32Z"/><path d="M261.85 31.78c20.12 0 31.07 14.84 31.07 33.58v0 5.28h-44.91c1.38 9.05 6.79 14.21 14.46 14.21 6.28 0 11.19-3.02 13.08-8.81v0l16.85 5.4c-4.91 12.7-16.99 19.37-30.2 19.37 -20.01 0-33.59-13.97-33.59-34.6 0-19.63 14.08-34.47 33.21-34.47Zm114.86 0c19.49 0 33.21 13.96 33.21 34.59 0 20.63-13.72 34.46-33.22 34.46 -19.63 0-33.22-13.84-33.22-34.47 0-20.64 13.58-34.6 33.21-34.6Zm72.48 0c19.49 0 33.2 13.96 33.2 34.59 0 20.63-13.71 34.46-33.21 34.46 -19.63 0-33.22-13.84-33.22-34.47 0-20.64 13.58-34.6 33.21-34.6ZM324.2 14.79v18.36h12.95v16.6h-12.96v26.79c0 5.53 2.89 6.54 7.92 6.54 2.38 0 3.52-.13 5.78-.38v0 16.47c-3.53.5-7.3.88-12.08.88 -14.35 0-21.52-4.79-21.52-18.37v0V49.72h-8.43V33.11h8.42V14.74h19.87ZM188.96 9.12c21.25 0 34.46 10.18 34.46 29.05 0 13.46-7.05 22.76-19.13 26.92v0l21.76 34.34h-24.03l-19.63-32.08h-10.57v32.07h-21.01V9.09Zm323.02 0v90.32h-20.13V9.11h20.12ZM376.69 48.24c-8.06 0-13.21 6.54-13.21 18.11s5.15 18.11 13.2 18.11c8.05 0 13.2-6.55 13.2-18.12 0-11.58-5.16-18.12-13.21-18.12Zm72.48 0c-8.06 0-13.21 6.54-13.21 18.11s5.15 18.11 13.2 18.11c8.05 0 13.2-6.55 13.2-18.12 0-11.58-5.16-18.12-13.21-18.12Zm-187.6-.89c-6.17 0-10.95 3.64-12.96 10.94v0h24.4c-.13-5.92-4.03-10.95-11.45-10.95ZM187.8 26.84h-15.98v23.39h15.97c9.93 0 14.96-4.41 14.96-11.7 0-7.43-5.04-11.7-14.97-11.7v0Z"/></g></svg>