<svg viewBox="0 0 256 254" xmlns="http://www.w3.org/2000/svg"><path fill="#3D4C67" d="M137.45 220.04c-.02-3.13-.53-43.3-13.28-77.87 -13.28-36-35.77-66.14-35.77-66.14s46.56 28.34 67.93 51.96c18.41 20.35 34.49 52.39 38.58 60.87v0c-4.44 3.27-7.32 8.54-7.32 14.48 0 9.93 8.05 17.99 17.99 17.99 9.93 0 17.99-8.06 17.99-18 0-9.64-7.58-17.51-17.1-17.98 -2.85-7.27-14.89-35.65-39.15-63.02 -28.13-31.73-67.27-52.87-67.27-52.87s42.29 13.49 63.66 22.94c18.97 8.38 50.35 25.81 57.16 29.62 -.6 1.79-.93 3.7-.93 5.69 0 9.93 8.05 17.99 17.99 17.99 9.93 0 17.99-8.06 17.99-18s-8.06-18-18-18c-3.79 0-7.3 1.16-10.2 3.16v0c-6.93-4.56-35.24-22.39-77.99-38.72 -49.5-18.9-85.94-25.43-85.94-25.43l-6.3 14.17s23.93 15.86 47.55 67.15c21.66 47.05 20.26 82.46 19.88 87.99 -8.19 1.68-14.35 8.93-14.35 17.62 0 9.93 8.05 17.99 17.99 17.99 9.93 0 17.99-8.06 17.99-18 0-6.76-3.73-12.64-9.23-15.72Z"/><path fill="#F6861A" d="M63.89 51.29c0-9.45-7.66-17.1-17.1-17.1 -9.45 0-17.1 7.65-17.1 17.09s7.65 17.09 17.09 17.09 17.09-7.66 17.09-17.1" transform="matrix(1 0 0-1 0 102.583)"/><g fill="#3D4C67"><path d="M146.67 18.44c0-9.94-8.06-18-18-18s-18 8.05-18 17.99c0 9.93 8.05 17.99 17.99 17.99 9.93 0 17.99-8.06 17.99-18" transform="matrix(1 0 0-1 0 36.8925)"/><path d="M223.61 52.19c0-9.94-8.06-18-18-18s-18 8.05-18 17.99c0 9.93 8.05 17.99 17.99 17.99 9.93 0 17.99-8.06 17.99-18" transform="matrix(1 0 0-1 0 104.382)"/><path d="M68.38 204.71c0-9.94-8.06-18-18-18s-18 8.05-18 17.99c0 9.93 8.05 17.99 17.99 17.99 9.93 0 17.99-8.06 17.99-18" transform="matrix(1 0 0-1 0 409.436)"/><path d="M35.99 127.78c0-9.94-8.06-18-18-18s-18 8.05-18 17.99c0 9.93 8.05 17.99 17.99 17.99 9.93 0 17.99-8.06 17.99-18" transform="matrix(1 0 0-1 0 255.56)"/></g></svg>