<svg viewBox="0 0 256 256" xmlns="http://www.w3.org/2000/svg"><defs><linearGradient id="a" x1="90.832%" x2="-19.124%" y1="81.802%" y2="19.04%"><stop offset="0%" stop-color="#DD1265"/><stop offset="48%" stop-color="#DD1265"/><stop offset="94%" stop-color="#FDB60D"/></linearGradient><linearGradient id="b" x1="35.983%" x2="53.699%" y1="7.27%" y2="92.993%"><stop offset="14%" stop-color="#087CFA"/><stop offset="48%" stop-color="#DD1265"/><stop offset="96%" stop-color="#087CFA"/></linearGradient><linearGradient id="c" x1="39.544%" x2="56.938%" y1="11.352%" y2="91.694%"><stop offset="28%" stop-color="#DD1265"/><stop offset="97%" stop-color="#FDB60D"/></linearGradient></defs><path fill="url(#a)" d="M256 99.6L76.53 0l120.16 178.53 24.69-16.19Z"/><path fill="url(#b)" d="M184.4 58.98L161.92 4.02l-49.74 48.96 20.34 177.65 48.18 25.36 75.28-43.98Z"/><path fill="url(#c)" d="M76.53 0L-.01 51.54l28.45 175.81 73.38 28.21 94.85-77.04Z"/><path d="M48 48.32l160 0 0 160 -160 0Z"/><path fill="#FFF" d="M67.94 178.08h60v10h-60v-10Zm.05-109.98h27.46c6.42-.4 12.73 1.8 17.52 6.1 3.32 3.5 5.17 8.14 5.18 12.95l-.02.96c.4 8.42-4.89 16.07-12.91 18.66l14.72 21.49h-15.5L91.56 109H81.29v19.25H67.95V68.06Zm26.66 29.33c6.23 0 9.9-3.22 10.14-8.01l.01-.67c0-5.68-3.95-8.62-10.4-8.62H81.3v17.28h13.33Zm34.48-29.34h23.46c18.61 0 31.59 12.59 31.99 29.14l0 .96c0 16.93-13.07 30.08-32 30.08h-23.47V68.08Zm13.33 11.94v36.26h10.24c4.86.28 9.61-1.51 13.07-4.94 3.27-3.25 5.09-7.68 5.07-12.27l-.03-.93c.24-4.89-1.59-9.65-5.04-13.11 -3.46-3.46-8.22-5.3-13.1-5.06l-10.24.02Z"/></svg>