<svg viewBox="0 0 512 87" xmlns="http://www.w3.org/2000/svg"><path fill="#F5455C" d="M27.74 3.64c3.02 1.67 5.88 3.8 8.33 6.16 3.94-.72 8-1.08 12.12-1.08 12.33 0 24.02 3.23 32.92 9.09 4.6 3.04 8.26 6.64 10.88 10.71 2.9 4.53 4.38 9.41 4.38 14.65 0 5.09-1.48 9.97-4.39 14.51 -2.62 4.07-6.28 7.67-10.89 10.71 -8.9 5.86-20.59 9.09-32.93 9.09 -4.13 0-8.18-.36-12.13-1.08 -2.45 2.36-5.31 4.48-8.34 6.16 -11.24 5.61-21.14 3.52-26.14 1.71 -1.65-.6-2.15-2.68-.94-3.94 3.52-3.66 9.36-10.88 7.92-17.44 -5.58-5.72-8.61-12.6-8.61-19.91 0-7.18 3.02-14.06 8.6-19.78C9.95 16.63 4.11 9.41.59 5.76c-1.22-1.26-.71-3.35.93-3.94 5-1.81 14.9-3.9 26.13 1.72Zm19.94 14.7C26.04 18.34 8.5 29.69 8.5 43.69c0 6.1 3.32 11.7 8.88 16.07 1.56 4.98.64 10.6-2.75 16.86 -.17.3-.32.6-.48.9 2.91-.25 5.85-1.05 8.83-2.51 2.06-1.16 4.04-2.61 5.78-4.21l.46-.45 3.38-3.27c4.63 1.24 9.71 1.93 15.05 1.93 21.63 0 39.17-11.35 39.18-25.36 0-14.01-17.55-25.36-39.19-25.36Zm120.67 3.87c6.16 0 11.37 2.08 15.62 6.16 4.24 4.08 6.41 9.21 6.41 15.22 0 6-2.17 11.13-6.42 15.21s-9.46 6.16-15.63 6.16 -11.38-2.09-15.63-6.17c-4.25-4.09-6.42-9.22-6.42-15.22 0-6.02 2.16-11.14 6.41-15.23 4.24-4.09 9.45-6.17 15.62-6.17Zm125.64.24c5.84 0 10.57 1.92 14.18 5.84 3.68 3.84 5.52 8.65 5.52 14.33 0 1.2-.08 2.4-.17 3.44h-30.94c.32 6.4 5.04 10.49 12.18 10.49 6.33 0 11.13-1.53 14.5-4.65v8.97c-3.93 2.72-8.9 4.08-14.91 4.08 -6.34 0-11.54-1.93-15.47-5.69 -3.93-3.85-5.85-8.98-5.85-15.31v-.4h-.01c0-6.34 1.92-11.46 5.84-15.31 3.92-3.93 8.97-5.85 15.06-5.85Zm209.09-12.31v13.27h8.89v8.73h-8.9v23.71h8.41v8.57c-1.37.31-3.05.48-4.97.48 -8.74 0-13.07-4.57-13.07-13.7V10.12h9.61Zm-172.52 0v13.27h8.89v8.73h-8.9v23.71h8.41v8.57c-1.37.31-3.05.48-4.97.48 -8.74 0-13.07-4.57-13.07-13.7V10.12h9.61ZM217.37 22.12c5.2 0 9.53 1.36 12.98 4.09v9.61c-3.45-3.29-7.62-4.97-12.43-4.97 -3.77 0-6.9 1.2-9.38 3.6 -2.49 2.4-3.69 5.44-3.69 9.05 0 3.6 1.2 6.65 3.68 9.05 2.48 2.4 5.6 3.6 9.37 3.6 4.89 0 9.05-1.69 12.42-4.97v9.61c-3.37 2.72-7.7 4.08-12.99 4.08 -6.25 0-11.46-2.01-15.71-6.09 -4.25-4.09-6.34-9.14-6.34-15.31s2.08-11.22 6.33-15.31c4.24-4.09 9.45-6.09 15.7-6.09Zm162.08 0c5.2 0 9.53 1.36 12.97 4.09v9.61c-3.45-3.29-7.62-4.97-12.42-4.97 -3.77 0-6.9 1.2-9.38 3.6 -2.49 2.4-3.69 5.44-3.69 9.05 0 3.6 1.2 6.65 3.68 9.05 2.48 2.4 5.6 3.6 9.37 3.6 4.88 0 9.05-1.69 12.41-4.97v9.61c-3.37 2.72-7.7 4.08-12.98 4.08 -6.25 0-11.47-2.01-15.71-6.09 -4.25-4.09-6.34-9.14-6.34-15.31s2.08-11.22 6.33-15.31c4.24-4.09 9.45-6.09 15.7-6.09Zm-30.51 31.07c3.18 0 5.77 2.57 5.77 5.74 0 3.17-2.59 5.74-5.78 5.74 -3.19 0-5.78-2.58-5.78-5.75 0-3.18 2.58-5.75 5.77-5.75Zm113.43-30.67c6.64 0 11.53 2.8 12.9 6.73V23.4h9.61v40.37h-9.62v-5.85c-1.37 3.92-6.25 6.72-12.91 6.72 -5.69 0-10.5-2.01-14.43-6.01 -3.85-4.09-5.78-9.06-5.78-15.07 0-6.02 1.92-10.98 5.77-14.99 3.92-4.09 8.73-6.09 14.42-6.09Zm-321.39.08c1.12 0 2.08.07 2.88.24v9.29c-1.21-.25-2.57-.4-4.01-.4 -6.66 0-10.9 4.16-10.9 10.81v21.23h-9.54V23.39h9.53v6c1.92-4.25 6.33-6.81 12.01-6.81Zm268.1-12.48v18.87c1.84-3.85 6.24-6.41 11.77-6.41 9.29 0 14.74 6.16 14.74 16.18v24.99h-9.54V40.11c0-5.53-2.97-8.98-8.1-8.98 -5.21 0-8.9 3.84-8.9 9.37v23.23h-9.54V10.08h9.53Zm-162.09 0v30.49l13.62-17.23h10.89l-15.31 19.3 16.58 21.06h-11.22l-14.59-18.67v18.66h-9.54V10.08h9.53Zm-78.7 20.8c-3.61 0-6.57 1.2-8.98 3.68 -2.33 2.4-3.53 5.36-3.53 8.97 0 3.6 1.2 6.56 3.52 9.05 2.4 2.4 5.36 3.6 8.97 3.6 3.52 0 6.48-1.21 8.89-3.61 2.4-2.49 3.6-5.45 3.6-9.06 0-3.61-1.21-6.58-3.61-8.98 -2.41-2.49-5.37-3.69-8.9-3.69Zm295.34.32c-3.45 0-6.25 1.2-8.58 3.52 -2.25 2.32-3.37 5.28-3.37 8.81 0 3.52 1.12 6.48 3.36 8.81 2.32 2.32 5.12 3.52 8.57 3.52 3.44 0 6.41-1.21 8.73-3.53 2.4-2.33 3.6-5.29 3.6-8.82 0-3.53-1.21-6.49-3.61-8.82 -2.33-2.33-5.29-3.53-8.74-3.53ZM66.04 37.83c3.18 0 5.77 2.57 5.77 5.74 0 3.17-2.59 5.74-5.78 5.74 -3.19 0-5.78-2.58-5.78-5.75 0-3.18 2.58-5.75 5.77-5.75Zm-37.18 0c3.18 0 5.77 2.57 5.77 5.74 0 3.17-2.59 5.74-5.78 5.74 -3.19 0-5.78-2.58-5.78-5.75 0-3.18 2.58-5.75 5.77-5.75Zm18.58 0c3.18 0 5.77 2.57 5.77 5.74 0 3.17-2.59 5.74-5.78 5.74 -3.19 0-5.78-2.58-5.78-5.75 0-3.18 2.58-5.75 5.77-5.75Zm246.47-7.24c-2.97 0-5.53.88-7.7 2.56 -2.17 1.68-3.29 3.68-3.45 6.08h21.07c0-2.33-.96-4.41-2.89-6.09 -1.93-1.69-4.25-2.57-7.06-2.57Z"/></svg>