<svg viewBox="0 0 256 230" xmlns="http://www.w3.org/2000/svg"><path fill="#F5455C" d="M4.27 5.1C17.55.31 43.85-5.25 73.68 9.67c8.04 4.45 15.63 10.1 22.12 16.37 10.46-1.9 21.24-2.85 32.19-2.85 32.75 0 63.8 8.58 87.44 24.16 12.23 8.07 21.96 17.65 28.9 28.46 7.72 12.05 11.65 25.01 11.64 38.91 0 13.51-3.92 26.49-11.66 38.54 -6.95 10.82-16.68 20.39-28.91 28.46 -23.63 15.58-54.69 24.15-87.45 24.15 -10.95 0-21.73-.96-32.2-2.85 -6.5 6.27-14.09 11.91-22.13 16.37 -29.85 14.92-56.14 9.35-69.42 4.56 -4.37-1.58-5.71-7.12-2.49-10.45 9.36-9.7 24.86-28.89 21.05-46.32C7.94 152-.09 133.71-.09 114.3c0-19.05 8.03-37.34 22.85-52.52C26.57 44.34 11.07 25.17 1.7 15.47 -1.53 12.13-.19 6.59 4.18 5.01Zm122.39 43.63c-57.47 0-104.06 30.14-104.06 67.33 0 16.2 8.84 31.07 23.58 42.69 4.15 13.24 1.71 28.17-7.3 44.78 -.43.8-.84 1.6-1.28 2.39 7.73-.64 15.55-2.77 23.47-6.66 5.97-3.37 11.7-7.63 16.59-12.35v0l8.99-8.68c12.3 3.31 25.81 5.14 39.97 5.14 57.46 0 104.05-30.15 104.06-67.35 0-37.19-46.61-67.34-104.07-67.34Zm-49.8 51.86c8.47 0 15.33 6.83 15.33 15.26s-6.87 15.26-15.34 15.26c-8.47 0-15.34-6.84-15.34-15.27 0-8.44 6.86-15.27 15.33-15.27Zm49.37 0c8.46 0 15.33 6.83 15.33 15.26s-6.87 15.26-15.34 15.26c-8.48 0-15.34-6.84-15.34-15.27 0-8.44 6.86-15.27 15.33-15.27Zm49.37 0c8.46 0 15.33 6.83 15.33 15.26s-6.87 15.26-15.34 15.26c-8.48 0-15.34-6.84-15.34-15.27 0-8.44 6.86-15.27 15.33-15.27Z"/></svg>