<svg viewBox="0 0 256 214" xmlns="http://www.w3.org/2000/svg"><path fill="#3C72FF" d="M256 6.35c-.01-.42-.05-.83-.13-1.23 0-.13-.07-.24-.1-.36 -.04-.13-.16-.56-.26-.83l-.19-.4c-.12-.24-.25-.46-.4-.68 -.09-.14-.18-.27-.27-.41l-.18-.24c-.1-.12-.21-.2-.31-.3l-.25-.3 -.2-.14c-.18-.16-.37-.3-.57-.43l-.48-.31c-.22-.12-.43-.21-.65-.3l-.52-.21c-.24-.08-.48-.12-.72-.16l-.53-.12c-.29-.02-.59-.02-.88 0h-.5c-3.29.29-46.72 4.43-95.53 26.2 -29.31 13.03-52 33.05-66.28 57.34l-3.68 1.59C31.11 108.38-.11 153.72-.11 206.34v.88c0 2.47 1.43 4.72 3.67 5.76 .84.38 1.75.58 2.68.58H179.7c.33 0 .67-.03 1-.09l.44-.12c.2-.07.41-.1.62-.18 .2-.08.3-.15.46-.23 .15-.08.36-.15.53-.25 .32-.2.63-.41.91-.65l69.9-58.94c1.44-1.22 2.27-3.02 2.25-4.91v-142h.01Zm-63.21 181.63l-6.71 5.65V68.23l57.19-48.21v125.39l-50.49 42.55Zm-114.2-33.25h94.77v46.22H23.74l54.84-46.23Zm79.99-116.9c22.33-9.84 45.7-17.15 69.66-21.8l-51.13 43.1c-23.6 2.87-46.82 8.34-69.22 16.29 12.65-15.46 29.72-28.27 50.67-37.62ZM95.75 93.72c24.89-10.25 50.96-17.4 77.6-21.28v69.55H82.74c.65-16.87 5.09-33.37 12.99-48.29v0Zm-17.46 8.11c-5.36 13.9-8.21 28.64-8.42 43.54l-56.42 47.6c4.26-38.68 27.23-71.04 64.82-91.16Z"/></svg>