<svg viewBox="0 0 256 256" xmlns="http://www.w3.org/2000/svg"><path fill="#27272A" d="M38.31 153.17v102.11H.01V153.16H38.3Zm216.99 0v102.11H217V153.16h38.29ZM90.13 23.68l10.11 21.08c.82 1.71.88 3.7.15 5.46 -.73 1.76-2.18 3.12-3.98 3.75 -33.95 12.05-58.15 43.21-58.15 79.75v6.68H-.04v-6.69c0-51.77 33.95-95.95 81.79-113.47 3.24-1.2 6.85.28 8.34 3.39Zm83.35-3.49c47.85 17.57 81.81 61.77 81.81 113.51v6.68h-38.3v-6.69c0-36.55-24.18-67.7-58.15-79.76 -1.8-.63-3.25-2-3.98-3.76 -.73-1.77-.68-3.75.15-5.47l10.09-21.15c1.48-3.12 5.1-4.59 8.34-3.4Z"/><path fill="#FFC905" d="M127.66 60.78c42.29 0 76.58 32.65 76.58 72.94v121.56h-38.3V133.71c0-20.15-17.15-36.48-38.3-36.48s-38.3 16.31-38.3 36.47v121.56h-38.3V133.69c0-40.29 34.29-72.95 76.58-72.95Zm24.29-59.14c2.11.28 3.97 1.57 4.98 3.45 1.01 1.88 1.07 4.13.15 6.06l-1.84 3.84 -14.22 29.78c-1.19 2.45-3.75 3.95-6.47 3.79 -2.3-.13-4.6-.2-6.93-.2 -2.32 0-4.64.06-6.93.19 -2.73.16-5.28-1.34-6.47-3.8L99.99 14.96l-1.84-3.85c-.92-1.94-.86-4.19.15-6.07 1.01-1.89 2.87-3.17 4.98-3.46 16.12-2.2 32.46-2.2 48.59 0Z"/></svg>