<svg viewBox="0 0 387 103" xmlns="http://www.w3.org/2000/svg"><path fill="#232E4A" d="M260.56.89c24.9 0 40.64 21.07 40.64 51.05 0 29.98-15.74 51.05-40.65 51.05 -24.77 0-40.51-21.08-40.51-51.06 0-29.99 15.73-51.06 40.5-51.06Zm91 0c13 0 22.85 4.95 31.33 13.43l-10.125 10.6c-6.03-6.37-12.87-9.48-22.31-9.48 -11.23 0-16.02 5.65-16.02 12.3l0 .41c0 .13 0 .27.01.41l.02.4c.01.19.03.39.06.58l.05.38c.04.25.09.5.15.74l.1.36c.37 1.25 1.01 2.39 1.99 3.45l.28.3v0l.3.29v0l.32.29v0l.34.29c.41.34.87.67 1.37 1l.44.28c.15.09.3.18.46.28l.48.28v0l.5.27v0l.53.27v0l.55.27v0l.57.27v0l.6.27c.1.04.2.09.31.13l.63.27v0l.66.27v0l.69.28v0l.71.28v0l.74.28v0l.76.28v0l.79.28v0l.82.28v0l1.28.43v0l.89.29v0l.92.3v0l1.44.45v0l.99.3v0l1.12.35v0l1.1.35v0l1.08.35v0l1.07.36v0l1.05.36v0l1.03.36c.34.12.68.24 1.01.37l.99.37v0l.97.38v0l.96.38c1.58.65 3.08 1.32 4.5 2.03l.84.43c9.42 4.94 14.86 11.66 14.86 23.68 0 17.82-10.95 29.98-35.45 29.98 -13.97 0-26-6.23-34.08-15.99l10.26-10.33c6.43 7.21 15.87 11.73 24.9 11.73 13.41 0 19.83-4.81 19.83-14.43 0-4.6-2.04-7.82-7.15-10.73l-.56-.32v0l-.59-.31c-.1-.06-.2-.11-.31-.16l-.62-.31v0l-.65-.31c-.11-.06-.23-.11-.34-.16l-.69-.31c-.12-.06-.24-.11-.36-.16l-.72-.31c-.13-.06-.25-.11-.37-.16l-.76-.31c-.13-.06-.26-.11-.39-.16l-.8-.31v0l-.83-.31v0l-.86-.31v0l-.88-.31v0l-.91-.31v0l-.94-.32v0l-1.46-.47v0l-1.01-.32v0l-1.72-.54v0l-1.18-.38v0l-1.16-.37v0l-1.13-.37v0l-1.11-.37v0l-1.08-.38c-.18-.07-.36-.13-.53-.19l-1.04-.38c-.35-.13-.69-.25-1.02-.38l-.99-.38c-.17-.07-.33-.13-.49-.2l-.96-.39c-.32-.13-.63-.26-.93-.39l-.91-.4v0l-.88-.41c-10.38-4.84-15.42-11.12-15.42-23.85 0-17.12 13.95-27.58 31.6-27.58ZM10.91 79.11c6.02 0 10.91 5.05 10.91 11.28 0 6.23-4.9 11.28-10.92 11.28 -6.04 0-10.93-5.06-10.93-11.29 0-6.24 4.89-11.29 10.92-11.29Zm76.21 0c6.03 0 10.92 5.05 10.92 11.28 0 6.23-4.9 11.28-10.93 11.28 -6.04 0-10.92-5.06-10.92-11.29 0-6.24 4.88-11.29 10.91-11.29Zm-38.11 0c6.03 0 10.91 5.05 10.91 11.28 0 6.23-4.89 11.28-10.92 11.28 -6.04 0-10.93-5.06-10.93-11.29 0-6.24 4.89-11.29 10.92-11.29ZM171.59 2.43c16.69 0 30.78 9.19 30.78 29.55 0 15.83-8.08 25.59-21.08 28.99l19.56 40.44h-16.56l-19.03-39.18h-21.63v39.17h-14.1v-99h42.01Zm88.94 13.29c-16.7 0-25.87 14-25.87 36.2 0 22.2 9.16 36.2 25.86 36.2 16.83 0 26-14 26-36.21s-9.17-36.21-26-36.21ZM10.88 40.63c6.02 0 10.91 5.05 10.91 11.28 0 6.23-4.9 11.28-10.92 11.28 -6.04 0-10.93-5.06-10.93-11.29 0-6.24 4.89-11.29 10.92-11.29Zm38.1 0c6.03 0 10.91 5.05 10.91 11.28 0 6.23-4.89 11.28-10.92 11.28 -6.04 0-10.93-5.06-10.93-11.29 0-6.24 4.89-11.29 10.92-11.29Zm38.1 0c6.03 0 10.92 5.05 10.92 11.28 0 6.23-4.9 11.28-10.93 11.28 -6.04 0-10.92-5.06-10.92-11.29 0-6.24 4.88-11.29 10.91-11.29Zm84.48-24.22h-27.92v31.81h27.91c9.57 0 16.28-5.09 16.28-15.84 0-10.33-6.57-15.99-16.29-15.99ZM10.86 2.16c6.02 0 10.91 5.05 10.91 11.28 0 6.23-4.9 11.28-10.92 11.28 -6.04 0-10.93-5.06-10.93-11.29 0-6.24 4.89-11.29 10.92-11.29Zm38.1 0c6.03 0 10.91 5.05 10.91 11.28 0 6.23-4.89 11.28-10.92 11.28 -6.04 0-10.93-5.06-10.93-11.29 0-6.24 4.89-11.29 10.92-11.29Zm38.1 0c6.03 0 10.92 5.05 10.92 11.28 0 6.23-4.9 11.28-10.93 11.28 -6.04 0-10.92-5.06-10.92-11.29 0-6.24 4.88-11.29 10.91-11.29Z"/></svg>