<svg viewBox="0 0 256 176" xmlns="http://www.w3.org/2000/svg"><path fill="#B2271B" d="M31.43 5.591L35.28.87l20.62 16.28L90.7 1.5l21.518 32.871 33.63-2.77 19.25-30.11 34.96 15.95L220.67 1.17l4.13 1.96 .7 171.11 -5.28.15 -19.333-14.488 -35.75 14.488 -19.08-29.72 -35.67.38 -19.52 29.12 -35.62-15.12 -19.65 15.35 -4.77-.26 .51-168.61"/><g fill="#D82A1F"><path d="M2.33 0h31.32c1.28 0 2.33 1.044 2.33 2.33v171.143c0 1.28-1.05 2.33-2.34 2.33H2.32c-1.29 0-2.34-1.05-2.34-2.34V2.32c0-1.29 1.044-2.34 2.33-2.34"/><path d="M57.5 0h31.32c1.28 0 2.33 1.044 2.33 2.33v171.143c0 1.28-1.05 2.33-2.34 2.33H57.49c-1.29 0-2.34-1.05-2.34-2.34V2.32c0-1.29 1.04-2.34 2.33-2.34"/><path d="M112.34 0h31.32c1.28 0 2.33 1.044 2.33 2.33v171.143c0 1.28-1.05 2.33-2.34 2.33h-31.32c-1.29 0-2.34-1.05-2.34-2.34V2.32c0-1.29 1.04-2.34 2.33-2.34"/><path d="M167.17 0h31.32c1.28 0 2.33 1.044 2.33 2.33v171.143c0 1.28-1.05 2.33-2.34 2.33h-31.32c-1.29 0-2.34-1.05-2.34-2.34V2.32c0-1.29 1.04-2.34 2.33-2.34"/><path d="M222.34 0h31.32c1.28 0 2.33 1.044 2.33 2.33v171.143c0 1.28-1.05 2.33-2.34 2.33h-31.32c-1.29 0-2.34-1.05-2.34-2.34V2.32c0-1.29 1.04-2.34 2.33-2.34"/></g></svg>