<svg viewBox="0 0 256 302" xmlns="http://www.w3.org/2000/svg"><path fill="#0A0B09" d="M248.49 128.68v-9.69c0-10.6-8.67-19.27-19.27-19.27H26.76c-10.6 0-19.27 8.67-19.27 19.26v9.68c-4.49 2.75-7.51 7.68-7.51 13.3v25.9c0 5.61 3.01 10.55 7.5 13.3v10.05c0 10.59 8.67 19.26 19.26 19.26h202.45c10.59 0 19.26-8.68 19.26-19.27v-10.06c4.48-2.76 7.5-7.69 7.5-13.31v-25.91c0-5.62-3.02-10.56-7.51-13.31ZM128.75-.01c-54.57 0-99.58 40.76-106.32 93.5h212.63C228.31 40.75 183.3-.02 128.74-.02ZM95.96 237.22h63.29l6.46 7.48 9.72-8.4 -10.31-11.94H90.06l-10.31 11.93 9.72 8.39 6.46-7.49Zm109.59-22.82v40.98c0 11.26-9.22 20.48-20.49 20.48h-11.15v-.04c-2.45 0-4.6-1.15-6.04-2.9h-.03l-13.33-17.03 -.02.01c-1.43-1.85-3.63-3.06-6.14-3.08 -.02 0-.04-.01-.05-.01 -.02 0-.03 0-.05 0h-38.6c-.02 0-.04-.01-.05-.01 -.02 0-.04 0-.05 0 -2.33.01-4.38 1.05-5.81 2.67l-.03-.02 -13.65 17.42h-.02c-1.44 1.75-3.6 2.89-6.04 2.89v.03H72.84c-11.27 0-20.49-9.22-20.49-20.49v-40.99H27.31v41.1c0 25.03 20.48 45.51 45.51 45.51h112.15c25.03 0 45.51-20.49 45.51-45.52v-41.11h-25.04Z"/><path fill="#D7252C" d="M210.78 167.61H45.21c-7.82 0-14.22-6.4-14.22-14.22s6.39-14.22 14.21-14.22h165.56c7.81 0 14.21 6.39 14.21 14.21 0 7.81-6.4 14.21-14.22 14.21"/></svg>