<svg viewBox="0 0 256 267" xmlns="http://www.w3.org/2000/svg"><g fill="#0A0B09"><path d="M223.58 124.98l.11.63c.32 1.61 1.74 2.84 3.44 2.84 .15 0 20.62 0 20.62 0 1.91-.04 3.44-1.65 3.44-3.58 -1.45-10.4-4.17-20.37-8-29.77l10.87-8.88c1.5-1.23 1.9-3.59.89-5.25l-11.62-19.04c-1.02-1.66-3.3-2.38-5.08-1.61l-15.11 6.59c-5.85-7.57-12.57-14.43-20.02-20.41l6.15-15.1c.73-1.8-.05-4.07-1.73-5.04l-19.32-11.15c-1.69-.98-4.03-.52-5.23 1.02l-9.84 12.66c-8.77-3.57-18.04-6.12-27.69-7.53l-2.35-17.07c-.27-1.93-2.07-3.52-4.01-3.52h-22.3c-1.95 0-3.75 1.59-4.01 3.51l-2.34 17c-9.66 1.37-18.95 3.89-27.72 7.42l-9.88-12.72c-1.2-1.54-3.54-2-5.23-1.03L48.3 26.09c-1.69.97-2.46 3.23-1.73 5.03l6.13 15.05c-7.48 5.95-14.22 12.77-20.09 20.32l-15.24-6.52c-1.79-.77-4.07-.03-5.07 1.63L.82 80.71c-1 1.66-.58 4.02.93 5.23l10.69 8.59c-3.93 9.52-6.72 19.62-8.18 30.16 -.01 1.94 1.53 3.55 3.44 3.59h20.15c2.42-.09 3.87-1.54 3.96-3.35 8.12-45.59 48.03-80.13 95.8-80.13 47.84 0 87.66 34.54 95.73 79.99Z"/><path d="M32.11 158.3c-.32-1.62-1.73-2.81-3.44-2.81 -.16 0-.26 0-.47 0l-.01 0H8.03c-1.92.03-3.46 1.59-3.46 3.51l0 .01c8.38 60.53 60.31 107.13 123.15 107.13h-.01c62.83 0 114.77-46.61 123.15-107.14l-.01 0 0-.03c0-1.93-1.53-3.48-3.45-3.52h-20.17c-.15-.02-.3-.05-.46-.05 -1.89 0-3.42 1.48-3.52 3.34 -.02.03-.05.05-.06.08 -8.08 45.45-47.77 79.94-95.54 79.94h0c-47.78 0-87.46-34.5-95.54-79.95l-.12-.6"/></g><path fill="#3E64A0" d="M171.93 142.08c0-24.15-19.66-43.73-43.9-43.73 -24.25 0-43.9 19.57-43.9 43.72s19.64 43.72 43.89 43.72c24.23 0 43.89-19.58 43.89-43.73"/></svg>