<svg viewBox="0 0 256 216" xmlns="http://www.w3.org/2000/svg"><path fill="#5C4863" d="M51.43 123.55c14.91 0 22.3-7.89 22.3-17.51 0-22.93-37.48-13.81-37.48-28.72 0-6.17 5.54-10.85 14.79-10.85 7.88 0 14.29 3.2 17.74 7.88l3.57-4.57c-4.32-4.81-11.1-8.76-21.33-8.76 -13.44 0-21.21 7.39-21.21 16.51 0 21.44 37.59 12.2 37.59 28.47 0 6.9-5.92 12.07-15.91 12.07 -8.39 0-15.41-3.95-19.23-8.76l-3.83 4.68c5.91 6.65 13.31 9.49 22.92 9.49v0Zm83.07-1.48V80.16c0-13.32-9.62-19.11-21.7-19.11 -9.87 0-16.77 3.32-22.93 9.98l3.57 4.43c5.42-6.17 11.21-8.76 18.73-8.76 8.75 0 15.9 4.8 15.9 13.68v12.07c-5.18-5.8-11.96-8.51-20.22-8.51 -10.36 0-20.84 6.77-20.84 19.72 0 12.81 10.6 19.84 20.83 19.84 8.25 0 14.91-2.72 20.21-8.51v7.02h6.4v0Zm-24.41-3.58c-9.74 0-16.28-6.29-16.28-14.67 0-8.51 6.53-14.8 16.27-14.8 7.14 0 13.8 2.71 17.99 8.25v13.06c-4.2 5.42-10.85 8.13-18 8.13v0Zm62.12 5.05c14.91 0 22.3-7.89 22.3-17.51 0-22.93-37.48-13.81-37.48-28.72 0-6.17 5.54-10.85 14.79-10.85 7.88 0 14.29 3.2 17.74 7.88l3.57-4.57c-4.32-4.81-11.1-8.76-21.33-8.76 -13.44 0-21.21 7.39-21.21 16.51 0 21.44 37.59 12.2 37.59 28.47 0 6.9-5.92 12.07-15.91 12.07 -8.39 0-15.41-3.95-19.23-8.76l-3.83 4.68c5.91 6.65 13.31 9.49 22.92 9.49v0Zm56.57 0c14.91 0 22.3-7.89 22.3-17.51 0-22.93-37.48-13.81-37.48-28.72 0-6.17 5.54-10.85 14.79-10.85 7.88 0 14.29 3.2 17.74 7.88l3.57-4.57c-4.32-4.81-11.1-8.76-21.33-8.76 -13.44 0-21.21 7.39-21.21 16.51 0 21.44 37.59 12.2 37.59 28.47 0 6.9-5.92 12.07-15.91 12.07 -8.39 0-15.41-3.95-19.23-8.76l-3.83 4.68c5.91 6.65 13.31 9.49 22.92 9.49v0ZM59.92 214.5c22.35 0 37.93-14.19 37.93-35.9 0-21.5-15.59-35.79-38.04-35.79H31.54v71.67H59.9v0Zm-.11-13.44H46.8v-44.81h13.1c14.61 0 22.35 9.77 22.35 22.35 0 12.25-8.28 22.45-22.46 22.45v0Zm82.95 14.72c21.59 0 37.39-15.48 37.39-37.08 0-21.6-15.8-37.08-37.4-37.08 -21.71 0-37.51 15.47-37.51 37.07 0 21.59 15.79 37.07 37.5 37.07v0Zm0-13.54c-13.33 0-21.82-10.21-21.82-23.54 0-13.44 8.48-23.54 21.81-23.54 13.21 0 21.7 10.1 21.7 23.53 0 13.32-8.49 23.53-21.71 23.53v0Zm82.95 13.53c15.68 0 24.82-8.71 29.87-17.63l-13.11-6.34c-3.01 5.8-9.46 10.42-16.77 10.42 -13.12 0-22.57-10-22.57-23.54s9.45-23.54 22.56-23.54c7.3 0 13.75 4.62 16.76 10.42l13.1-6.45c-5.06-9.03-14.19-17.52-29.88-17.52 -21.6 0-38.26 14.93-38.26 37.07 -.01 22.02 16.65 37.07 38.25 37.07v0Z"/><path fill="#DD5A6F" d="M8.3 61.08c-.31.91-.65 1.83-1.04 2.74 -.39.91-.83 1.71-1.32 2.4 -.5.68-1.06 1.2-1.67 1.54 -.62.34-1.27.4-1.95.17 -.92-.16-1.44-.83-1.55-2.01 -.12-1.19.01-2.35.4-3.5 .53-1.84 1.31-4.26 2.34-7.28 1.03-3.02 2.21-6.33 3.55-9.91 1.33-3.59 2.74-7.32 4.23-11.18 1.49-3.86 2.92-7.55 4.29-11.06 1.37-3.52 2.63-6.71 3.78-9.57 1.14-2.87 2.02-5.1 2.63-6.71 .22-.46.57-.84 1.03-1.15 .45-.31.93-.46 1.43-.46 .49 0 .99.15 1.48.45 .49.3.89.8 1.2 1.48 .61 1.6.64 3.16.11 4.69 -.54 1.22-1.3 3.11-2.3 5.67 -1 2.56-2.12 5.44-3.38 8.65 -1.27 3.2-2.58 6.6-3.96 10.19 -1.38 3.58-2.68 7-3.9 10.25 -1.23 3.24-2.33 6.16-3.33 8.76 -1 2.59-1.72 4.5-2.18 5.72v0Zm61.06-28.76c-1.53-1.15-3.19-2.37-4.99-3.67 -1.8-1.3-3.69-2.64-5.68-4.01 1.29 4.65 2.67 9.08 4.12 13.28 .22.91.13 1.71-.29 2.4 -.42.68-.94 1.03-1.55 1.03 -1-.16-2.01-.62-3.04-1.38 -1.04-.77-1.74-1.69-2.12-2.75 -.31-.69-.69-1.8-1.15-3.33 -.46-1.53-1-3.33-1.61-5.39 -1.3 1.9-2.51 3.78-3.61 5.61 -1.11 1.83-2.16 3.58-3.16 5.27 -.62.83-1.3 1.31-2.07 1.43 -.77.11-1.34-.06-1.72-.52 -.54-.84-.86-1.93-.98-3.27s.09-2.47.63-3.38c.38-.62 1.06-1.72 2.06-3.33 .99-1.61 2.21-3.48 3.66-5.62 -1.61.38-3.17.78-4.7 1.2 -1.53.42-3.06.82-4.59 1.2 -.92.15-1.72 0-2.41-.46 -.69-.46-1-1-.92-1.61 .22-1 .74-1.89 1.54-2.7 .8-.81 1.73-1.36 2.8-1.67 .76-.23 2-.56 3.72-.98 1.71-.43 3.68-.9 5.9-1.44 -1.53-.92-3.04-1.86-4.53-2.81 -1.49-.96-3-1.86-4.53-2.7 -.84-.54-1.32-1.23-1.44-2.07 -.12-.84.05-1.46.51-1.84 .83-.54 1.85-.79 3.03-.75 1.18.03 2.23.36 3.15.97 .76.38 1.83 1.03 3.2 1.94 -.23-1.3-.43-2.54-.58-3.73 -.16-1.19-.27-2.32-.35-3.39 -.08-.84.11-1.57.57-2.18 .45-.62.99-.96 1.6-1.04 .53-.16 1.18.01 1.94.51 .76.49 1.33 1.43 1.71 2.8 .3 1.45.64 2.94 1.03 4.46 .38 1.52.76 3.16 1.14 4.92 1.52-2.07 3.01-4.01 4.46-5.85 1.45-1.84 2.82-3.4 4.12-4.7 .61-.62 1.29-.96 2.06-1.04 .76-.08 1.37.11 1.83.57 .38.3.66.91.85 1.83 .19.91-.14 1.94-.98 3.09 -.84 1.14-1.8 2.42-2.87 3.83 -1.07 1.41-2.18 2.92-3.33 4.52 1.98-.39 3.93-.67 5.84-.86 1.9-.2 3.7-.33 5.38-.41 .83 0 1.56.15 2.17.45 .61.3.95.76 1.03 1.37 .07.53-.16 1.18-.69 1.94 -.54.76-1.49 1.26-2.87 1.48 -1.3.22-2.7.45-4.19.68 -1.49.22-3 .49-4.53.8 1.75 1.29 3.39 2.57 4.92 3.83 1.52 1.26 2.94 2.46 4.23 3.6 .61.61 1.01 1.24 1.2 1.89 .19.64.09 1.24-.29 1.77 -.39.38-1.04.64-1.95.8 -.92.15-1.91-.16-2.98-.92v0Zm46.51 0c-1.53-1.15-3.19-2.37-4.99-3.67 -1.8-1.3-3.69-2.64-5.68-4.01 1.29 4.65 2.67 9.08 4.12 13.28 .22.91.13 1.71-.29 2.4 -.42.68-.94 1.03-1.55 1.03 -1-.16-2.01-.62-3.04-1.38 -1.04-.77-1.74-1.69-2.12-2.75 -.31-.69-.69-1.8-1.15-3.33 -.46-1.53-1-3.33-1.61-5.39 -1.3 1.9-2.51 3.78-3.61 5.61 -1.11 1.83-2.16 3.58-3.16 5.27 -.62.83-1.3 1.31-2.07 1.43 -.77.11-1.34-.06-1.72-.52 -.54-.84-.86-1.93-.98-3.27s.09-2.47.63-3.38c.38-.62 1.06-1.72 2.06-3.33 .99-1.61 2.21-3.48 3.66-5.62 -1.61.38-3.17.78-4.7 1.2 -1.53.42-3.06.82-4.59 1.2 -.92.15-1.72 0-2.41-.46 -.69-.46-1-1-.92-1.61 .22-1 .74-1.89 1.54-2.7 .8-.81 1.73-1.36 2.8-1.67 .76-.23 2-.56 3.72-.98 1.71-.43 3.68-.9 5.9-1.44 -1.53-.92-3.04-1.86-4.53-2.81 -1.49-.96-3-1.86-4.53-2.7 -.84-.54-1.32-1.23-1.44-2.07 -.12-.84.05-1.46.51-1.84 .83-.54 1.85-.79 3.03-.75 1.18.03 2.23.36 3.15.97 .76.38 1.83 1.03 3.2 1.94 -.23-1.3-.43-2.54-.58-3.73 -.16-1.19-.27-2.32-.35-3.39 -.08-.84.11-1.57.57-2.18 .45-.62.99-.96 1.6-1.04 .53-.16 1.18.01 1.94.51 .76.49 1.33 1.43 1.71 2.8 .3 1.45.64 2.94 1.03 4.46 .38 1.52.76 3.16 1.14 4.92 1.52-2.07 3.01-4.01 4.46-5.85 1.45-1.84 2.82-3.4 4.12-4.7 .61-.62 1.29-.96 2.06-1.04 .76-.08 1.37.11 1.83.57 .38.3.66.91.85 1.83 .19.91-.14 1.94-.98 3.09 -.84 1.14-1.8 2.42-2.87 3.83 -1.07 1.41-2.18 2.92-3.33 4.52 1.98-.39 3.93-.67 5.84-.86 1.9-.2 3.7-.33 5.38-.41 .83 0 1.56.15 2.17.45 .61.3.95.76 1.03 1.37 .07.53-.16 1.18-.69 1.94 -.54.76-1.49 1.26-2.87 1.48 -1.3.22-2.7.45-4.19.68 -1.49.22-3 .49-4.53.8 1.75 1.29 3.39 2.57 4.92 3.83 1.52 1.26 2.94 2.46 4.23 3.6 .61.61 1.01 1.24 1.2 1.89 .19.64.09 1.24-.29 1.77 -.39.38-1.04.64-1.95.8 -.92.15-1.91-.16-2.98-.92v0Z"/></svg>