<svg viewBox="0 0 256 192" xmlns="http://www.w3.org/2000/svg"><path fill="#CD6799" d="M220.28 110.51c-8.91.04-16.65 2.19-23.13 5.36 -2.38-4.71-4.76-8.91-5.18-11.99 -.47-3.6-1.03-5.79-.47-10.08 .55-4.29 3.07-10.4 3.03-10.87 -.05-.47-.56-2.66-5.69-2.71 -5.13-.05-9.56.97-10.08 2.33 -.52 1.35-1.5 4.42-2.15 7.6 -.89 4.66-10.26 21.31-15.63 30.02 -1.73-3.41-3.22-6.39-3.55-8.77 -.47-3.6-1.03-5.79-.47-10.08 .55-4.29 3.07-10.4 3.03-10.87 -.05-.47-.56-2.66-5.69-2.71 -5.13-.05-9.56.97-10.08 2.33 -.52 1.35-1.08 4.52-2.15 7.6 -1.08 3.07-13.53 30.86-16.79 38.05 -1.68 3.68-3.13 6.62-4.16 8.62v0s-.05.13-.19.37c-.89 1.72-1.4 2.65-1.4 2.65s0 0 0 .04c-.7 1.25-1.45 2.42-1.82 2.42 -.28 0-.8-3.36.09-7.93 1.86-9.66 6.29-24.67 6.24-25.19 0-.28.83-2.9-2.9-4.25 -3.64-1.36-4.95.88-5.27.88 -.33 0-.56.79-.56.79s4.05-16.89-7.75-16.89c-7.37 0-17.54 8.06-22.57 15.34 -3.18 1.72-9.94 5.4-17.16 9.37 -2.76 1.53-5.6 3.07-8.26 4.52 -.19-.19-.38-.42-.56-.61 -14.27-15.25-40.67-26.02-39.55-46.5 .41-7.47 2.98-27.05 50.68-50.83 39.26-19.36 70.5-13.99 75.91-2.1 7.74 16.97-16.75 48.49-57.31 53.06 -15.49 1.72-23.6-4.25-25.65-6.49 -2.15-2.34-2.48-2.48-3.27-2.01 -1.31.69-.47 2.79 0 4.01 1.21 3.17 6.2 8.76 14.64 11.51 7.46 2.42 25.6 3.77 47.56-4.71 24.57-9.52 43.78-35.96 38.14-58.11C154.51 1.2 117.21-6.21 81.91 6.33c-20.99 7.46-43.74 19.21-60.11 34.5C2.35 59.01-.73 74.82.53 81.44c4.52 23.5 36.93 38.79 49.89 50.12 -.66.37-1.26.69-1.78.97 -6.49 3.21-31.2 16.13-37.36 29.79 -7 15.48 1.11 26.57 6.48 28.07 16.64 4.61 33.76-3.69 42.94-17.4 9.18-13.71 8.06-31.53 3.82-39.69 -.05-.1-.1-.19-.19-.28 1.67-.98 3.4-2.01 5.08-2.99 3.31-1.96 6.57-3.78 9.37-5.27 -1.59 4.33-2.76 9.51-3.32 16.97 -.7 8.76 2.89 20.14 7.6 24.62 2.09 1.95 4.56 2 6.15 2 5.5 0 7.97-4.57 10.72-9.98 3.35-6.63 6.38-14.32 6.38-14.32s-3.78 20.79 6.48 20.79c3.73 0 7.5-4.85 9.18-7.33v.04s.09-.14.27-.47c.37-.61.6-.98.6-.98v-.1c1.49-2.62 4.84-8.54 9.83-18.38 6.43-12.69 12.63-28.54 12.63-28.54s.55 3.87 2.47 10.3c1.11 3.77 3.45 7.92 5.31 11.93 -1.5 2.09-2.43 3.26-2.43 3.26s0 0 .04.04c-1.22 1.58-2.52 3.31-3.97 4.98 -5.09 6.06-11.15 13-11.99 15.01 -.98 2.37-.75 4.1 1.11 5.5 1.35 1.02 3.77 1.16 6.24 1.02 4.56-.33 7.78-1.45 9.37-2.15 2.47-.89 5.36-2.24 8.06-4.25 4.98-3.69 8.02-8.96 7.74-15.91 -.14-3.83-1.4-7.65-2.94-11.24 .46-.66.88-1.31 1.35-1.96 7.88-11.52 13.98-24.16 13.98-24.16s.55 3.87 2.47 10.3c.93 3.26 2.84 6.8 4.52 10.25 -7.42 6.01-11.99 13-13.62 17.57 -2.94 8.48-.66 12.31 3.68 13.19 1.95.41 4.75-.52 6.8-1.4 2.61-.84 5.68-2.29 8.62-4.43 4.98-3.69 9.79-8.82 9.51-15.77 -.14-3.18-.98-6.3-2.15-9.33 6.29-2.62 14.4-4.06 24.76-2.85 22.19 2.61 26.57 16.46 25.73 22.28 -.84 5.82-5.51 8.99-7.05 9.97 -1.54.97-2.06 1.3-1.92 2 .18 1.02.93.97 2.23.79 1.81-.33 11.65-4.71 12.07-15.44 .69-13.71-12.36-28.68-35.44-28.54v0ZM49.05 168.23c-7.37 8.02-17.63 11.05-22.06 8.48 -4.76-2.76-2.9-14.6 6.15-23.09 5.5-5.18 12.59-9.98 17.29-12.92 1.07-.66 2.65-1.59 4.56-2.76 .32-.19.51-.28.51-.28v0c.37-.24.74-.47 1.11-.7 3.31 12.12.13 22.8-7.61 31.24v0Zm53.62-36.47c-2.57 6.24-7.93 22.24-11.2 21.35 -2.8-.75-4.53-12.87-.56-24.86 2-6.02 6.24-13.2 8.71-16 4.01-4.48 8.44-5.97 9.51-4.16 1.35 2.37-4.9 19.72-6.49 23.64v0Zm44.25 21.17c-1.08.55-2.1.93-2.57.65 -.33-.19.46-.94.46-.94s5.54-5.97 7.74-8.68c1.25-1.59 2.75-3.46 4.33-5.55v.6c0 7.13-6.91 11.93-9.98 13.89v0Zm34.13-7.79c-.8-.56-.66-2.43 2-8.26 1.02-2.29 3.45-6.11 7.6-9.8 .46 1.49.79 2.93.74 4.28 -.05 8.99-6.49 12.35-10.36 13.75v0Z"/></svg>