<svg viewBox="0 0 256 256" xmlns="http://www.w3.org/2000/svg"><path fill="#E12826" d="M31.27 165.04l68.2.03 -38.21 72.05C6.14 203.47-15.25 134.03 11.36 75.2c29.12-64.37 104.9-92.94 169.27-63.82L57.86 134.14h109.3l-80.39 81.17 33.19-62.63H40.42c-2.24-8.05-3.38-16.38-3.38-24.73 .06-50.17 40.71-90.83 90.87-90.89 1.07-.001 2.12.07 3.18.07l11.7-11.73c-4.86-.72-9.77-1.07-14.68-1.07 -57.12 0-103.75 46.47-103.75 103.6 -.04 12.66 2.28 25.22 6.82 37.04Zm163.4-146.19c55.14 33.64 76.55 103.12 49.9 161.96 -29.15 64.35-104.94 92.9-169.3 63.75l121.82-122.77H87.48l81.61-81.24 -33.21 62.68h79.52c3.41 11.49 3.41 24.72 3.41 24.72 -.07 50.16-40.73 90.81-90.89 90.87 -1.2 0-2.4-.09-3.59-.09l-11.59 11.7c5.02.73 10.09 1.1 15.16 1.1 12.74 0 25.37-2.34 37.25-6.91 53.35-20.54 79.95-80.43 59.42-133.78h-68.19l38.2-72.06Z"/></svg>