<svg viewBox="0 0 256 416" xmlns="http://www.w3.org/2000/svg" xmlns:xlink="http://www.w3.org/1999/xlink"><defs><linearGradient id="a" x1="0%" x2="100%" y1="50%" y2="50%"><stop offset="0%" stop-color="#4F4F4F"/><stop offset="100%"/></linearGradient><linearGradient id="b" x1="0%" x2="100%" y1="50%" y2="50%" xlink:href="#a"/><linearGradient id="c" x1="0%" x2="100%" y1="50%" y2="50%"><stop offset="0%" stop-color="#C40000"/><stop offset="100%" stop-color="#F00"/></linearGradient><linearGradient id="d" x1="0%" x2="100%" y1="50%" y2="50%" xlink:href="#c"/><linearGradient id="e" x1="0%" x2="100%" y1="50%" y2="50%" xlink:href="#c"/></defs><path fill="url(#a)" d="M0 288v-32c0-5.4 116.37-14.43 192.19-32v0c36.62 8.49 63.8 18.96 63.8 32v0 32c0 13.02-27.18 23.5-63.81 32v0C116.35 302.42-.02 293.39-.02 288" transform="matrix(1 0 0-1 0 544)"/><path fill="url(#b)" d="M0 160v-32c0-5.4 116.37-14.43 192.19-32v0c36.62 8.49 63.8 18.96 63.8 32v0 32c0 13.02-27.18 23.5-63.81 32v0C116.35 174.42-.02 165.39-.02 160" transform="matrix(1 0 0-1 0 288)"/><path fill="url(#c)" d="M0 224v-96c0 8 256 24 256 64v0 96c0-40-256-56-256-64" transform="matrix(1 0 0-1 0 416)"/><path fill="url(#d)" d="M0 96V0c0 8 256 24 256 64v0 96c0-40-256-56-256-64" transform="matrix(1 0 0-1 0 160)"/><path fill="url(#e)" d="M0 352v-96c0 8 256 24 256 64v0 96c0-40-256-56-256-64" transform="matrix(1 0 0-1 0 672)"/></svg>