<svg viewBox="0 0 256 316" xmlns="http://www.w3.org/2000/svg"><path fill="#1E7B85" d="M163.43 153.47c9.05-9.12 21.56-13.94 34.38-13.26 16.24-.54 31.81 6.5 42.15 19.05 10.68 12.7 16.02 30.37 16.02 53 0 31.21-9.83 55.67-29.47 73.38 -20.62 17.63-46.6 27.75-73.71 28.71 -4.99.69-10.1.69-15.4.69l-1.41-.01c-46.37-.18-91.1-17.29-125.75-48.15v0l-10.29-9.22 40.44-47.9 23.72 18.29 -22.47 26.24c27.76 20.61 61.45 31.68 96.03 31.55 41.26 0 69.85-15.65 80.95-42.91 .63-2.78.94-5.62.94-8.46 0-8.08-3.35-12.12-10.04-12.12 -3.06.27-6.08.84-9.03 1.7 -3.71.85-7.5 1.33-11.3 1.45 -9.84-.2-19.23-4.15-26.25-11.05 -8.25-7.56-12.73-18.37-12.25-29.54 -.17-11.78 4.37-23.14 12.62-31.56ZM123.17 0c40.69-.65 80.32 12.99 112 38.55v0l10.85 8.51 -33.7 48.08 -24.87-16.41 17.92-25.75c-24.34-16.01-52.92-24.32-82.04-23.86 -14.43-.24-28.73 2.6-41.97 8.32 -4.24 2.17-8.31 4.66-12.18 7.44 -13.55 9.75-20.32 21.43-20.32 35.02 0 8.07 3.34 12.11 10.03 12.11 3.05-.28 6.07-.85 9.02-1.71 3.7-.86 7.49-1.34 11.29-1.46 9.69.2 18.95 4.06 25.93 10.79 8.26 7.6 12.73 18.49 12.17 29.72 .16 11.77-4.38 23.13-12.63 31.55 -9.06 9.11-21.57 13.93-34.39 13.25 -16.23.56-31.8-6.43-42.16-18.94 -10.73-12.69-16.47-30.61-16.54-53.26v0 -4.11C11.58 40.16 57.45-.1 123.07-.1Z"/></svg>