<svg viewBox="0 0 256 269" xmlns="http://www.w3.org/2000/svg"><path fill="#2CB134" d="M234.15 0c.65-.05 1.27.29 1.6.86 .32.56.29 1.27-.07 1.81v0l-66.3 90.05c-.49.54-1.19.86-1.92.86 -.74 0-1.44-.32-1.92-.87v0l-23.38-26.06c-.58-.6-1.39-.9-2.2-.82 -.82.07-1.57.51-2.02 1.2v0l-14.18 18.01c-.45 1.01-.31 2.19.38 3.06v0l42.15 43.68c.48.54 1.18.86 1.91.86s1.43-.32 1.91-.87v0l82.77-93.13c.48-.53 1.24-.71 1.91-.46 .67.25 1.12.88 1.14 1.6v0 226.48c.03.51-.16 1.02-.53 1.38 -.37.36-.88.55-1.39.52v0H1.84c-.52.03-1.03-.16-1.39-.53 -.37-.37-.56-.88-.53-1.39v0V1.81C-.12 1.29.07.78.44.42c.36-.37.87-.56 1.38-.53v0ZM169 152.9c-11.41-.21-22.41 4.26-30.44 12.37 -8.04 8.1-12.41 19.13-12.11 30.54 0 26.44 19.16 43.3 44.07 43.3 11.53.28 22.83-3.22 32.19-9.97 .86-.79 1.02-2.09.38-3.07v0l-6.9-10.35c-.78-.89-2.1-1.06-3.07-.39 -6 4.09-13.06 6.35-20.32 6.51 -13.42 0-21.85-8.44-23.38-18.4 .02-.42.35-.74.76-.77v0h57.86c1.23-.09 2.21-1.07 2.29-2.3v0 -2.3c0-26.83-16.87-45.23-41.39-45.23Zm-57.11-14.57c-11.64-9.52-26.37-14.43-41.39-13.8 -26.06 0-42.16 15.32-42.16 33.72 -.001 41.77 63.61 28.35 63.61 47.9 0 6.13-6.14 12.26-19.17 12.26 -12.38.1-24.32-4.57-33.35-13.03 -.54-.51-1.27-.76-2.01-.68 -.74.07-1.41.45-1.83 1.06v0l-9.97 13.79c-.65.97-.49 2.27.38 3.06 10.34 9.58 24.9 16.09 45.22 16.09 29.89 0 44.45-15.33 45.22-35.26 0-41.39-63.62-29.51-63.62-47.14 0-6.52 5.74-11.12 15.71-11.12 10.98-.16 21.68 3.5 30.27 10.34 .5.41 1.15.6 1.8.53 .64-.08 1.24-.41 1.64-.92v0l9.96-13.42c.41-.51.6-1.16.53-1.81 -.08-.65-.41-1.25-.92-1.65Zm57.48 31.42c10.42-.59 19.42 7.22 20.31 17.62 -.03.41-.36.73-.77.76v0h-39.09c-.42-.03-.74-.36-.77-.77 1.28-10.2 10.03-17.8 20.31-17.63Z"/></svg>