<svg viewBox="0 0 256 160" xmlns="http://www.w3.org/2000/svg"><path fill="#F06332" d="M26.52 66.61l44.34 44.99c12.77 12.99 33.71 12.99 46.49 0l35.11-35.72c5.04-5.14 13.31-5.14 18.36 0l17.39 17.69 -44.25 45.1c-13.75 13.97-31.79 20.85-49.83 20.85 -18.05 0-36.09-6.99-49.83-20.97l-44.35-45 26.52-26.98Z"/><path fill="#029D74" d="M211.65 20.96l44.34 45.1 -26.64 27.08L185 48.03c-12.89-13.11-33.62-13.11-46.5 0l-35.12 35.71c-5.05 5.13-13.32 5.13-18.37 0l-17.4-17.7 44.34-45.11c27.48-27.96 72.16-27.96 99.65-.001v0Z"/></svg>