<svg viewBox="0 0 256 256" xmlns="http://www.w3.org/2000/svg"><path fill="#34BDB2" d="M0 0h256v256H0V0Z"/><path fill="#FFF" d="M168.461 87.04c-13.52-7.85-25.52-14.01-41.21-13.74 -8.98.15-16.69 5.03-18.32 13.97 -1.51 8.31 5.87 12.92 13.56 15.75 12.74 4.69 23.84 9.65 36.369 14.869 22.76 9.48 34.44 24.85 33.06 44.57 -1.76 25.08-16.86 43.08-40.85 49.01 -31.354 7.75-61.801-4.06-87.526-20.54 6.49-9.9 14.02-16.643 20.48-26.48 14.86 6.32 26.53 14.87 42.08 16.2 10.96.94 23.38.41 25.84-12.46 2.22-11.62-7.89-17.84-17.75-21.32 -11.74-4.14-23.45-9.21-34.96-13.91 -21.28-8.69-29.93-25.69-28.48-45.71 0-11.74 9.74-35.47 33.62-42.85 36.69-11.34 56.908.27 83.515 17.37 -7.07 9.34-12.5 15.99-19.49 25.22"/></svg>