<svg viewBox="0 0 512 90" xmlns="http://www.w3.org/2000/svg"><path fill="#212F38" d="M177.11 57.29c2.12-4.77 6.59-8.02 12.47-8.02 5.88 0 10.24 2.73 12.06 8.01h-24.55Zm38.53 6.08c0-14.61-10.65-26.27-26.17-26.27 -14.61 0-26.37 11.76-26.37 26.36s10.95 26.36 26.77 26.36c10.95 0 18.83-5.29 23.27-12.87l-11.03-6.58c-2.34 4.48-6.83 7.26-12.16 7.26 -7.31 0-11.87-3.66-13.49-9.23h39.14v-5.08Zm282.85 0c-.001-7.51-5.48-13.59-12.99-13.59 -7.71 0-13.6 5.78-13.6 13.58s5.88 13.69 13.59 13.69c7.5 0 12.98-6.19 12.98-13.7v0Zm-40.17.1c0-17.95 13.18-26.37 24.64-26.37 6.59 0 11.76 2.43 15.11 5.98v-28.3h13.89v74.03h-13.9v-5.68c-3.35 3.95-8.73 6.69-15.32 6.69 -10.76 0-24.45-8.52-24.45-26.37v0Zm-10.21-33.08c4.59 0 8.31-3.73 8.31-8.32 0-4.6-3.73-8.32-8.32-8.32s-8.31 3.72-8.31 8.31 3.72 8.31 8.3 8.31v0Zm-6.95 7.71h13.89v50.7h-13.9V51.58l-5.05-.01 5.04-13.49Zm-37.02 0h13.79v8.31c2.53-5.28 7.09-8.32 13.99-8.32h5.57l-5.04 13.48h-3.79c-7.41 0-10.65 3.85-10.65 13.28v23.93h-13.9V38.07Zm-78.17 13.69c0-21.1 15.92-38.04 37.82-38.04 10.95 0 20.17 3.94 26.84 10.23 2.71 2.55 5 5.5 6.82 8.73l-12.38 7.5c-4.57-8.42-11.57-12.78-21.2-12.78 -13.49 0-23.94 11.05-23.94 24.34 0 13.58 10.24 24.33 24.44 24.33 10.75 0 18.35-6.09 20.99-15.52h-23.23V47.09h38.43v5.67c0 19.87-14.2 37.01-36.21 37.01 -23.13 0-38.44-17.55-38.44-38.04v0Zm-16.75 11.56c0-7.51-5.48-13.59-12.99-13.59 -7.71 0-13.6 5.78-13.6 13.58s5.88 13.69 13.59 13.69c7.5 0 12.98-6.19 12.98-13.7v0Zm-40.17.1c0-17.95 13.18-26.37 24.64-26.37 6.59 0 11.76 2.43 15.11 5.98v-28.3h13.89v74.03h-13.9v-5.68c-3.35 3.95-8.73 6.69-15.32 6.69 -10.76 0-24.45-8.52-24.45-26.37v0Zm-50.22-25.36h13.79v5.67c3.24-4.16 8.21-6.7 13.99-6.7 11.96 0 19.16 7.7 19.16 20.78v30.93h-14.1V59.66c0-6.8-3.15-10.76-9.33-10.76 -5.28 0-9.64 3.65-9.64 12.16v27.68h-13.9V38.03ZM105.38 76.52l12.88-10.15c3.65 6.28 9.43 9.93 16.02 9.93 7.2 0 11.05-4.67 11.05-9.74 0-6.09-7.41-8.02-15.32-10.45 -9.94-3.05-21-6.9-21-21.1 0-11.87 10.34-21.3 24.64-21.3 12.06 0 18.96 4.56 24.94 10.75l-11.67 8.82c-3.05-4.57-7.41-7-13.19-7 -6.6 0-10.15 3.54-10.15 8.21 0 5.67 7.09 7.6 15 10.24 10.04 3.24 21.39 7.7 21.39 21.9 0 11.76-9.34 23.12-25.66 23.12 -13.39 0-22.32-5.68-29.01-13.29v0Z"/><path fill="#9DD6E3" d="M88.83 0v59.22H59.21v29.61H-.02L-.03 29.6h29.61V-.02H88.8Z"/><path fill="#3F72AB" d="M0 88.83l29.61 0 0-29.62 -29.62 0Z"/><g fill="#00A9D1"><path d="M59.22 59.22l29.61 0 0-29.62 -29.62 0Z"/><path d="M29.61 29.61l29.61 0 0-29.62 -29.62 0Z"/></g><path fill="#2191C4" d="M29.61 59.22l29.61 0 0-29.62 -29.62 0Z"/><path fill="#3F72AB" d="M59.22 29.61l29.61 0 0-29.62 -29.62 0Z"/></svg>