<svg viewBox="0 0 256 256" xmlns="http://www.w3.org/2000/svg"><path fill="#73CC58" d="M256 127.94L128.05-.01 -.01 127.93l128.05 128.05 127.94-128.06ZM128.05 34.01l47.1 47.16c-15.43-4.15-31.3-6.29-47.17-6.29 -15.94-.02-31.8 2.09-47.17 6.28l47.22-47.17ZM86.1 179.84c12.84-7.1 27.27-10.8 41.94-10.77 14.91 0 29.23 3.74 41.94 10.76l-41.95 41.94 -41.95-41.95Zm101.38-17.5C169.36 150.8 148.68 145 127.97 145c-21.09-.02-41.74 6-59.51 17.33l-33.02-33.02c26.7-19.62 58.84-30.27 92.63-30.27 33.78 0 65.9 10.57 92.63 30.26l-33.25 33.01Z"/></svg>