<svg viewBox="0 0 512 113" xmlns="http://www.w3.org/2000/svg"><path fill="#362D59" d="M74.12 5.78c-2.17-3.6-6.06-5.79-10.25-5.79 -4.2 0-8.08 2.19-10.25 5.78L36.77 34.62c26.19 13.07 43.49 39.05 45.45 68.26H70.38C68.42 77.84 53.36 55.71 30.79 44.7l-15.6 26.96c12.67 5.68 21.57 17.42 23.63 31.16H11.65c-.66-.05-1.25-.42-1.57-1 -.32-.58-.33-1.27-.03-1.86l7.52-12.81c-2.56-2.13-5.47-3.78-8.61-4.87L1.5 95.08c-1.57 2.68-2 5.89-1.18 8.89 .81 3 2.79 5.55 5.5 7.08 1.76.99 3.75 1.52 5.78 1.53h37.2c1.4-17.35-6.37-34.16-20.49-44.33L34.22 58c17.82 12.24 27.85 32.99 26.37 54.56h31.52c1.49-32.69-14.52-63.71-42.03-81.43l11.95-20.49c.55-.93 1.75-1.24 2.68-.7 1.35.74 51.95 89.03 52.9 90.05 .33.6.32 1.35-.04 1.95 -.36.59-1.02.95-1.71.94h-12.19c.15 3.26.15 6.51 0 9.75h12.23c3.13.02 6.15-1.22 8.37-3.44 2.22-2.22 3.46-5.24 3.45-8.38 0-2.06-.55-4.07-1.59-5.84L73.94 5.62ZM318.2 72.4l-37.8-48.81h-9.43v65.42h9.55V38.87L319.39 89h8.34V23.57h-9.56v48.8Zm-95.18-12.14h33.87v-8.51h-33.91v-19.7h38.23v-8.51h-47.97v65.45h48.44v-8.51h-38.72l.02-20.26Zm-39.85-8.3v0c-13.19-3.18-16.88-5.69-16.88-11.78 0-5.48 4.83-9.2 12.06-9.2 6.57.19 12.91 2.48 18.1 6.52l5.12-7.25c-6.57-5.15-14.71-7.87-23.05-7.69 -12.96 0-22 7.68-22 18.61 0 11.77 7.68 15.85 21.66 19.25 12.44 2.86 16.26 5.53 16.26 11.49s-5.13 9.65-13.04 9.65c-7.88-.04-15.46-3.02-21.26-8.35l-5.77 6.88c7.42 6.37 16.89 9.87 26.68 9.85 14.03 0 23.04-7.56 23.04-19.24 -.08-9.89-5.92-15.19-20.98-18.83Zm317.8-28.38l-19.7 30.72 -19.57-30.73h-11.43l25.83 39.56v25.88h9.83v-26.2l26.01-39.26h-11.02Zm-165.5 8.85h21.43v56.59h9.83v-56.6h21.43v-8.86h-52.68l-.03 8.85Zm98.17 31.03C443.52 60.72 449 53.8 449 43.92c0-12.58-9.2-20.49-24.02-20.49h-29.09v65.52h9.73V65.44h16.51l16.59 23.55h11.36l-17.93-25.15 1.45-.41Zm-28.04-6.41V32.21h18.35c9.57 0 15.05 4.53 15.05 12.39s-5.87 12.44-14.96 12.44h-18.47Z"/></svg>