<svg viewBox="0 0 256 296" xmlns="http://www.w3.org/2000/svg"><path fill="#2F406A" d="M219.01 94.36v106.59l-90.58 53.58 -.82.74v39.839l.81.77 127.56-73.69V73.64l-1.21-.3 -35.97 20.1 .18.86"/><path fill="#2379BD" d="M37.57 201.82l90.86 52.71v41.35L-.01 221.905V73.95l1.318-.2L37.17 94.6l.39 1.19v106.011"/><path fill="#03AFEF" d="M37.57 95.818L0 73.96 128.146-.01 255.99 73.67 219 94.347l-90.87-51.85L37.56 95.79"/><path fill="#2F406A" d="M126.87 189.63l-.99-1.01v-40.03l.98-.51 .23-.99 34.31-20.02 1.05.23v41.24l-35.61 21.06"/><path fill="#2379BD" d="M90.68 169.85v-42.83l.99-.05 34.9 20.31 .29.8v41.53l-36.2-19.78"/><path fill="#03AFEF" d="M126.28 105.96l-35.61 21.06 36.19 21.06 35.6-20.77 -36.2-21.37"/><path fill="#2F406A" d="M82.57 215.74l-.99-1.01V174.7l.98-.51 .24-.99 34.31-20.02 1.05.23v41.24l-35.604 21.06"/><path fill="#2379BD" d="M46.37 195.968v-42.83l.99-.05 34.9 20.31 .29.8v41.53L46.35 195.94"/><path fill="#03AFEF" d="M81.977 132.079l-35.61 21.06 36.197 21.06 35.6-20.77 -36.2-21.37"/><path fill="#2F406A" d="M174.35 216.737l-.99-1.01v-40.03l.98-.51 .23-.99 34.315-20.02 1.05.23v41.24l-35.61 21.06"/><path fill="#2379BD" d="M138.15 196.95v-42.83l.99-.05 34.9 20.31 .29.8v41.53l-36.2-19.78"/><path fill="#03AFEF" d="M173.75 133.068l-35.61 21.06 36.19 21.06 35.6-20.77 -36.2-21.37"/><path fill="#2F406A" d="M130.042 242.847l-.99-1.01V201.8l.98-.51 .24-.99 34.315-20.02 1.04.23v41.24l-35.61 21.06"/><path fill="#2379BD" d="M93.845 223.067v-42.83l.99-.05 34.9 20.31 .29.8v41.53L93.82 223.04"/><path fill="#03AFEF" d="M129.44 159.177l-35.61 21.06 36.197 21.06 35.6-20.77 -36.197-21.363"/><path fill="#2F406A" d="M126.87 132.87l-.99-1.01V91.83l.98-.51 .23-.99 34.31-20.02 1.05.23v41.241l-35.61 21.06"/><path fill="#2379BD" d="M90.68 113.09V70.266l.99-.05 34.9 20.31 .29.8v41.53l-36.2-19.78"/><path fill="#03AFEF" d="M126.28 49.2L90.67 70.26l36.19 21.06 35.6-20.77 -36.2-21.37"/><path fill="#2F406A" d="M82.57 158.97l-.99-1.01v-40.03l.98-.51 .24-.99 34.31-20.02 1.05.23v41.24l-35.604 21.06"/><path fill="#2379BD" d="M46.37 139.19V96.36l.99-.05 34.9 20.31 .29.8v41.53L46.35 139.17"/><path fill="#03AFEF" d="M81.977 75.31L46.36 96.37l36.197 21.06 35.6-20.77 -36.2-21.37"/><path fill="#2F406A" d="M174.35 159.96l-.99-1.01v-40.03l.98-.51 .23-.99L208.88 97.4l1.05.23v41.24l-35.61 21.06"/><path fill="#2379BD" d="M138.15 140.188V97.35l.99-.05 34.9 20.31 .29.8v41.53l-36.2-19.78"/><path fill="#03AFEF" d="M173.75 76.299l-35.61 21.06 36.19 21.06 35.6-20.77 -36.2-21.37"/><path fill="#2F406A" d="M130.042 186.07l-.99-1.01v-40.03l.98-.51 .24-.99 34.315-20.02 1.04.23v41.24l-35.61 21.06"/><path fill="#2379BD" d="M93.845 166.298v-42.83l.99-.05 34.9 20.31 .29.8v41.53L93.82 166.27"/><path fill="#03AFEF" d="M129.44 102.4l-35.61 21.06 36.197 21.06 35.6-20.77 -36.197-21.363"/></svg>