<svg viewBox="0 0 512 178" xmlns="http://www.w3.org/2000/svg"><path fill="#5D50C6" d="M6.5 104.15c1.13-1.79 2.59-1.95 4.21-1.14 3.08 1.61 13.3 6.32 23.36 6.32 6.65 0 10.38-2.92 10.38-6.49 0-5.2-5.68-6.82-16.56-10.06C11.98 87.91 2.09 80.61 1.93 67.3c-.001-13.96 10.54-24.67 31.8-24.67 12.97 0 20.93 4.22 27.74 8.27 1.78.97 2.27 2.27 1.62 3.57l-7.14 11.35c-.98 1.45-2.44 1.61-3.9.97 -4.06-2.44-11.52-5.2-18.83-5.2 -8.44 0-10.39 3.73-10.39 6.32 0 4.7 6.16 6.48 13.79 8.59 19.62 5.35 30.01 12.33 30.01 26.28 0 16.87-14.93 24.98-33.1 24.98 -11.59.01-22.93-3.38-32.62-9.74 -.99-.79-1.3-1.95-.65-3.39l6.16-10.57Zm147.95 22.39h-16.58c-3.9 0-6.01-2.76-6.01-6.49V78.84c0-9.26-5.52-15.75-15.42-15.75 -8.28 0-14.45 4.7-18.01 11.03v49.65c0 1.45-.82 2.43-1.95 2.59 -.2.12-.43.18-.65.16H77.49c-.54.04-1.06-.14-1.46-.49 -.68-.56-1.04-1.4-.98-2.27V17.33c0-8.28-1.62-11.36-1.62-14.61 0-1.62.8-2.76 2.59-2.76H91.1c4.86 0 7.3 2.26 7.3 7.29v49c5.67-7.15 14.27-13.64 26.93-13.64 16.55 0 29.85 10.54 29.85 30.82v37.97c.04 3.9.31 7.8.8 11.68 .48 1.77-.17 3.39-1.62 3.39h.02Zm265.16-80v77.39c.04.67-.2 1.33-.66 1.82 -.47.49-1.11.77-1.79.76h-18.34c-.71.06-1.41-.19-1.91-.69 -.51-.51-.76-1.2-.69-1.91v-9.9c-5.68 7.13-14.12 13.64-26.94 13.64 -16.56 0-29.86-10.55-29.86-30.83V58.83c-.02-3.91-.35-7.81-1-11.66 -.33-1.79.32-3.42 1.78-3.42h16.38c4.05 0 6.16 2.75 6.16 6.48v41.21c0 9.24 5.51 15.73 15.41 15.73 8.27 0 14.27-4.71 18-11.04V46.45c-.03-1.48 1.12-2.7 2.59-2.76h18.17c1.64 0 2.61 1.13 2.61 2.75Zm90.66 79.99h-16.56c-3.9 0-6.01-2.76-6.01-6.49V78.83c0-9.26-5.52-15.75-15.58-15.75 -8.12 0-14.29 4.7-18.02 11.03v49.65c0 1.45-.98 2.75-2.43 2.75h-18.34c-1.62 0-2.6-1.14-2.6-2.76v-77.4c-.04-1.39 1.04-2.55 2.43-2.6h18.49c1.61 0 2.42.97 2.42 2.59v9.9c5.67-7.15 14.28-13.64 27.09-13.64 16.38 0 29.85 10.54 29.85 30.82v37.97c-.04 3.9.23 7.81.81 11.68 .32 1.78-.33 3.4-1.63 3.4Zm-252.73 13.25c-1.49-.43-3.09-.04-4.2 1.03 -2.93 2.9-4.89 6.83-4.89 12.13 0 15.9 18.49 24.01 41.2 24.17 23.68.32 45.26-7.79 45.26-29.37 0-14.77-10.71-20.12-30.02-23.04l-24.83-3.58c-7.79-1.14-12.98-1.79-12.98-5.52 0-2.6 2.27-5.04 8.76-3.25 4.05 1.46 8.92 3.73 16.71 3.73 20.6.16 37.31-13.31 37.31-33.92 0-9.74-3.74-18.01-10.88-23.37 5.03-.17 9.9-.65 11.51-2.28l.63-9.72c.09-.72-.16-1.43-.66-1.94 -.51-.51-1.23-.76-1.94-.66 -19.15 1.61-25.48-1.46-36.18-1.46 -23.69 0-39.11 15.9-38.79 36.5 .32 13.78 7.62 21.09 11.19 24.49 -8.61-.98-16.72 4.86-16.72 14.27 0 7.17 4.67 11.42 11.49 14.01 1.5.55 3.03 1.02 4.59 1.4 5.48 1.19 15.87 3.4 25.29 5.02l1.98.33h.03l10.47 1.79c6.65 1.13 8.27 4.05 8.27 7.13 0 6.97-8.93 10.06-18.18 10.06 -12.5 0-21.91-2.6-21.91-11.04v-.04c.04-2.02-1.27-3.81-3.2-4.38l-9.47-2.65Zm34.07-77.36c9.41-.001 16.87 6.65 16.87 17.03 0 9.57-6.49 16.71-16.55 16.71 -9.91 0-17.2-6.98-17.2-17.04 0-10.38 7.78-16.71 16.87-16.71v-.02ZM160.78 84.68c0-25.58 19.39-42.86 43.99-42.86 24.43 0 43.82 17.27 43.82 42.85 0 25.43-19.4 42.68-43.83 42.68 -24.63.01-44.02-17.26-44.02-42.68l.02-.02Zm66.31 0c0-13.2-9.29-22.98-22.33-22.98 -13.21 0-22.49 9.77-22.49 22.97 0 13.19 9.28 22.81 22.48 22.81 13 .01 22.29-9.61 22.29-22.81l.02-.02Zm10.23-56.41c4.96-1.01 8.21-5.8 7.31-10.78 -.91-4.99-5.63-8.33-10.63-7.53 -29.27 5.29-58.15.1-58.67 0 -5-.82-9.73 2.49-10.66 7.46 -.94 4.97 2.28 9.77 7.23 10.81 .86.16 14.75 2.7 33.55 2.7 10.67.04 21.32-.85 31.83-2.69v0Z"/></svg>