<svg viewBox="0 0 256 292" xmlns="http://www.w3.org/2000/svg"><path fill="#95BF46" d="M223.77 57.34c-.21-1.47-1.48-2.27-2.54-2.36 -1.06-.09-23.39-1.75-23.39-1.75s-15.51-15.4-17.21-17.1c-1.71-1.71-5.03-1.19-6.32-.81 -.2.05-3.39 1.04-8.68 2.67 -5.19-14.91-14.33-28.61-30.41-28.61 -.45 0-.91.01-1.36.04 -4.58-6.05-10.25-8.68-15.14-8.68 -37.47 0-55.37 46.83-60.98 70.63 -14.56 4.51-24.91 7.71-26.23 8.13 -8.13 2.54-8.39 2.8-9.45 10.46C21.25 95.75-.01 260.18-.01 260.18l165.67 31.04 89.77-19.43s-31.52-213.06-31.72-214.52v-.001Zm-67.29-16.5c-4.17 1.28-8.9 2.75-14.02 4.33 0-.99 0-1.97 0-3.03 0-9.27-1.29-16.73-3.35-22.64 8.28 1.04 13.8 10.46 17.35 21.32v0Zm-27.64-19.49c2.3 5.77 3.8 14.05 3.8 25.23 0 .57-.01 1.09-.01 1.62 -9.12 2.82-19.03 5.89-28.96 8.96 5.57-21.52 16.02-31.91 25.16-35.83v-.001ZM117.7 10.81c1.61 0 3.24.54 4.8 1.62 -12.01 5.64-24.88 19.88-30.32 48.29 -7.95 2.45-15.71 4.86-22.89 7.08 6.36-21.68 21.48-57.01 48.39-57.01v-.001Z"/><path fill="#5E8E3E" d="M221.23 54.98c-1.06-.09-23.39-1.75-23.39-1.75s-15.51-15.4-17.21-17.1c-.64-.64-1.5-.96-2.4-1.1L165.7 291.26l89.76-19.42s-31.52-213.06-31.72-214.52c-.21-1.47-1.48-2.27-2.54-2.36"/><path fill="#FFF" d="M135.24 104.58l-11.07 32.92s-9.7-5.18-21.59-5.18c-17.43 0-18.31 10.93-18.31 13.69 0 15.03 39.2 20.79 39.2 56.02 0 27.71-17.58 45.55-41.28 45.55 -28.45 0-42.99-17.71-42.99-17.71l7.61-25.16s14.94 12.83 27.56 12.83c8.24 0 11.59-6.49 11.59-11.24 0-19.62-32.17-20.5-32.17-52.73 0-27.13 19.47-53.39 58.77-53.39 15.14 0 22.62 4.33 22.62 4.33"/></svg>