<svg viewBox="0 0 512 188" xmlns="http://www.w3.org/2000/svg"><path fill="#991B21" d="M47.59 86.9s-2.16-.45-2.79-.26c-.64.19-4.26-.45-5.84-1.6 -1.59-1.15-3.18-.32-4.64-1.21 -1.46-.9-3.68-.77-5.33-.83 -1.65-.07-3.75.06-4.51 1.08 -.77 1.01-3.75 4.13-4.82 5.4 -1.08 1.27-5.46 5.85-7.17 6.55 0 0 .44.7.19 1.21 -.26.51-.07 1.97-.07 2.48s.12 1.33-.32 1.84c-.45.5-.7 1.33-.7 1.65 0 .31-.51 1.46 0 2.99 .5 1.52.94 3.24-1.15 2.54 -2.1-.7-1.65-2.61-3.37-2.68 -1.72-.07-3.94 0-4.57-2.36 -.64-2.36-1.84-6.37-2.1-7.01 -.26-.64-1.15-3.57.5-6.11 1.64-2.55 1.96-4.4 2.22-4.97 .25-.58 1.45-4.21 2.34-4.72 .88-.51.56-2.11 1.07-2.8 .5-.71.31-1.85.63-2.49 .31-.64.44-2.49.88-3.89s1.9-3.57 2.79-4.72c.88-1.15 1.39-2.87 1.39-3.44 0-.58-.32-1.79 1.14-2.8 1.45-1.02 4.05-4.33 4.31-4.84 0-.13 0-2.49-.13-3.31 -.13-.83-.32-1.6.5-1.91 .82-.33 1.96-1.03 1.96-1.03s-.8-1.02-2.51-1.88c-1.72-.86-6.86-6.69-7.33-10.12 -.48-3.44-.67-8.88 3.99-10.79 4.66-1.92 9.79-2.97 10.56-3.06 .76-.1 3.42-.67 4.47.09 0 0-1.15-.19-1.62 0 -.48.19 2.28.09 2.94.85 0 0-1.34-.39-2.1-.29 -.76.09 1.33.95 1.71 1.62 .37.66 1.8 1.14 1.61 2.19 -.19 1.04-.29 2.67-.1 3.14 .19.47.66 1.33.76 2.67 .09 1.33.47 3.15.85 4 .38.85 1.33 3.53.95 5.44 0 0 .38.95 2.28-1.25s3.8-2.58 4.75-2.58c.95 0 2.38-.96 3.33-.58 .95.38 2-.1 3.14.19 1.14.28 5.89 0 6.94-.39 1.04-.39 4.66-.86 5.42-.86 .76 0-.95-1.25.47-2.2 1.42-.96-1.53-1.44.66-4.2 2.18-2.77.09-3.54-.29-4.11 -.38-.58-.48-2.39-.48-3.44 0-1.06-.29-3.73-.29-3.73l.38-.48s-.31-.51-.61-.69c-.3-.18-.6-1.27-.84-1.99 -.25-.73-2.89-4.64-3.66-5.24 -.79-.61-.9-1.51-.79-2.35 .12-.85.71-1.57.59-2.47 -.13-.91-.07-2.11-.13-2.53 -.06-.43.12-2.95.66-3.19 0 0 .41-.19.59.41 0 0-.31-2.11.35-2.11 0 0 .78-.25 1.08.84 .29 1.08.59 1.68.65 1.98 .06.3.29.78.29.78s.65-.3 1.19-.06c.53.24.9.48.9.78 0 .3 0-.25.65-.25s1.25-.19 1.44.48c.17.66.29 1.14.35 1.8 .06.66.18 1.2.42 1.68s.59 1.32.59 2.46 .42 3.24.6 4.21c.17.96 2.21 4.69 2.21 4.69s3.11.6 4.55.3c1.44-.31 3.95.24 3.65 1.56 -.3 1.32-.48 5.23-.6 8.3 -.13 3.06-.61 9.02-1.09 11.12 -.49 2.1-3.42 7.57-4.62 8.48 -1.2.9-2.52 1.5-5.82 3.06 -3.3 1.56-7.14 3.3-7.14 3.3s2.03 2.88 2.51 3.06c.47.17.42-.43 1.01-.19 .29.11 1.33.52.67.25 -.01.02 3.61.95 3.61.95 .34-.01.56-.07.51-.28 -.19-.85.65-1.93 1.01-2.17 .36-.25-.54 1.08 0 1.68 .54.6 8.29-1.7 8.14-1.29 -.15.41.42.44.91.05 .49-.39 2.54-1.73 4-1.73s4.78.3 5.67-.03c.89-.33 4.93-2.83 6.28-3.5 1.34-.67 6-.61 7.97-1.94 1.96-1.34 6.29-4.45 8.12-5.58 1.82-1.14 15.38-9.46 18.27-9.91 2.89-.46 9.82-3.2 11.01-4.05 1.18-.85 4.92-2.92 5.67-3.57 .75-.65 4.49.99 6.45 3.78 0 0 3.81-1.88 4.63-1.95 .82-.08 2.34-1.14 3.5-2.03 1.16-.9 4.68-3.28 6.21-4.03 0 0 .77-.35.92-.89 .14-.55.76-1.6 1.32-1.38 0 0 1.22-1.57 1.71-1.1 0 0 1.07-1.03 1.69-.47 0 0 .6.08.81.41 0 0 .77-.63 1.13-.16 0 0 .55-.64 1.49.1 0 0 .62.77-.53 2.19 0 0-.73.37-1.23 1.41 -.51 1.04-1.91 3.03-3.45 3.8 -1.55.77-3.33 2.14-3.26 4.93 .06 2.79-1.12 6.04-4.05 5.31 -2.93-.74-5.49.25-8.05 1.65 0 0-.23 1.47-.48 1.82 -.25.35-1.4.23-2.97 1.22 -1.58.98-2.54 1.35-3.78 2.29 -1.25.93-1.51 1.55-2.56 2.04s-2.22 1.81-2.91 2.55c-.7.73-3.26 2.54-6.28 4.01 -3.03 1.47-15.47 5.93-18.35 8.27 -2.88 2.34-8.18 6.53-16.21 10.47 -.34.16-.65.32-.96.47 -.49.44-7.4 6.78-9.76 8.44 -2.46 1.71-3.44 1.96-4.17 5.89 -.49 2.59-2.46 6.77-3.82 10.1 -.3 3.24-.48 6.39-.55 8.31 -.1 2.48-3.27 27.15-4.03 29.82 -.77 2.67-.96 4.67-.58 6.77 .38 2.09-.58 4.57-1.72 6.67 -1.15 2.09-3.05 7.05-2.77 9.92 .28 2.86.57 3.91-.29 4.29 -.86.38-3.62.28-4 1.24 -.39.95-1.81.95-1.81.95s-.43 4.25.31 5c.74.74 3.38 3.88.17 6.21 -3.22 2.33-6.61 4.41-7.4 6.04 -.8 1.62-2.56 2.55-3.22 3.08 -.66.52-1.85 1.27-1.94 1.58 -.09.31-1.06.88-1.98.62 0 0-.8.35-1.63-.58 0 0-1.37.13-1.63-.75 0 0-1.15.08-1.28-.8 0 0-.58-1.28 1.14-1.81 1.71-.54 4.44-4.38 4.53-4.99 .08-.62 1.36-4.46 2.33-6.05 .96-1.59 2.24-5.74 2.42-9.53 0 0-.4-.27-.4-.66 0-.4.02-2.23.21-2.93 .19-.71.57-2.74.31-5.73 -.26-2.99.38-7.89 0-11.26 -.39-3.38.34-26.78 1.35-29.83 1.01-3.06 1.39-3.76 1.33-4.97 -.07-1.21 0-4.9.38-5.09 .37-.2.44-4.84.31-5.35 -.13-.51-2.86-2.42-3.24-3.76 0 0 .06 1.39 0 1.9 -.07.5-.13-.13-1.15-1.21 -1.02-1.09-2.93-3.38-3.05-5.03 -.23-.13-3.04-1.79-3.04-1.79 -.35.01-.53-.15-.61-.3Z"/><path d="M60.56 58.7c-.29 5.16-12.37 28.69-12.37 28.69 -.43 2.08-.34 4.02-.13 5.18 .51 2.77-2.05 6.92-2.05 6.92l2.78 1.46c3.76-2.19 2.15-8.73 2.15-8.73 -.32-1.18-.35-2.3-.19-3.36l.02.03s13.7-27.16 13.03-29.3c-.01 0-1.64-.24-3.29-.93v0 0Z"/><path fill="#991B21" d="M482.15 99.45c6.68 0 13.8 1.79 21.33 5.38l.84-4.34h7.6l.05 86.87h-8.77V157.3c-6.73 4.71-13.84 7.07-21.34 7.07 -8.77 0-14.62-3.12-17.54-9.35 -1.7-3.53-2.68-7.98-2.96-13.37 -.11-2.47-.16-5.18-.16-8.14 0-3 .01-6.01.05-9.04 .07-3.03.29-5.83.68-8.4 .38-2.58.98-4.88 1.79-6.92 .84-2.08 2.04-3.84 3.59-5.29 3.2-3 8.13-4.49 14.78-4.49ZM141.24 81.49c9.04 0 16.44 1.3 22.18 3.9l-2.75 8.08c-6.94-3-13.33-4.49-19.18-4.49h-.48c-6.45 0-10.88 1.21-13.31 3.64 -2.05 2.04-3.07 5.58-3.07 10.61v.21c0 5.73 1.58 9.5 4.75 11.3 2.14 1.16 5.98 2.18 11.51 3.06 5.56.88 9.7 1.63 12.41 2.27 2.71.59 5.01 1.6 6.91 3.01 3.94 2.95 5.91 8.57 5.91 16.84v.68c0 12.64-5.09 20.17-15.27 22.6 -3.14.77-6.1 1.16-8.88 1.16 -2.79 0-5.32-.11-7.61-.32 -2.26-.18-4.56-.52-6.92-1.01 -5.53-1.13-10.16-2.82-13.9-5.08l3.48-7.4c7.99 4.22 15.8 6.33 23.44 6.33 8.87 0 14.06-2.84 15.58-8.51 .49-1.87.73-4.02.73-6.45v-2.06c0-2.47-.18-4.46-.53-5.97 -.36-1.52-1.1-2.75-2.22-3.7 -1.84-1.59-6.17-2.91-13-3.97 -6.1-.96-10.3-1.85-12.63-2.7 -2.33-.85-4.25-1.77-5.76-2.75 -1.48-1.03-2.75-2.29-3.81-3.81 -2.19-3.17-3.28-7.56-3.28-13.16v-.53c0-11.62 4.82-18.58 14.47-20.87 3.06-.71 6.53-1.06 10.4-1.06h.68Zm127.7-8.88v61.84c0 12.14.33 21.63 1 28.46l-7.87.63 -1.27-7.24c-7.43 5.38-14.99 8.08-22.66 8.08 -8.49 0-14.14-3.12-16.96-9.35 -1.62-3.53-2.54-7.24-2.75-11.15 -.18-3.95-.27-7.4-.27-10.36 0-3 .01-6.01.05-9.04 .07-3.03.29-5.83.68-8.4 .38-2.58.98-4.88 1.79-6.92 .84-2.08 2.04-3.84 3.59-5.29 3.2-3 8.48-4.49 15.84-4.49 7.39 0 14.06 1.28 20.01 3.85V73.38l8.76-.85Zm49.22 26.82c9.54 0 16.05 2.35 19.54 7.07 1.69 2.28 2.79 5.07 3.32 8.34 .56 3.23.84 6.33.84 9.29 0 4.61-.11 8.18-.32 10.72 -4.97.21-9.42.31-13.37.31h-8.51c-8.88 0-15.71-.39-20.5-1.17 0 8.09 1.02 13.74 3.06 16.95 2.49 3.9 7.48 5.86 14.94 5.86 7.46 0 14.61-1.47 21.44-4.39l2.58 7.55c-7.29 2.92-15.34 4.38-24.14 4.38 -5.11 0-9.44-.53-13-1.59 -5.67-1.62-9.44-4.97-11.31-10.04 -1.73-4.76-2.59-11.8-2.59-21.13v-2.7c0-11.17 2.32-19 6.97-23.51 4.18-4.02 11.17-6.03 20.96-6.03Zm-123.54 1.05v62.84h-8.56l-.11-62.85h8.66Zm178.03-27.79v54.5c1.4.28 3.09-.45 5.07-2.17 2-1.73 3.78-3.37 5.33-4.92 1.54-1.59 3.15-3.31 4.8-5.18 5.95-6.87 9.85-11.69 11.72-14.48h10.45c-.78 1.76-2.56 4.26-5.34 7.49l-7.08 7.97c-3.84 4.11-6.92 7.16-9.25 9.13 -2.29 1.97-3.81 3.09-4.55 3.38v.52l1.58.79c2.28 1.09 5.28 3.99 8.97 8.71l19.69 24.82h-11.1l-13.42-17.59c-6.2-8.1-10.94-12.29-14.21-12.57l-1.17-.11c-.36-.04-.67-.04-.96 0h-.64v0 30.26h-8.77V73.56l8.76-.96Zm65.01 27.78v62.84h-8.56l-.11-62.85h8.66Zm-195.89 6.86c-4.3 0-7.13.35-8.51 1.05 -1.38.7-2.43 1.61-3.17 2.74 -.71 1.12-1.29 2.67-1.75 4.64 -.79 3.6-1.2 9.47-1.22 17.62l-.01 1.8c0 7.92.86 13.39 2.58 16.42 1.86 3.2 5.33 4.8 10.4 4.8h.79c4.85 0 10.03-1.55 15.52-4.65 1.51-.85 2.81-1.7 3.9-2.54v-.11c-.18-3.28-.27-8.33-.27-15.16l.05-23.51c-6.34-2.12-12.47-3.17-18.38-3.17Zm243.04-.01c-4.3 0-7.13.35-8.51 1.05 -1.38.7-2.43 1.61-3.17 2.74 -.71 1.12-1.29 2.67-1.75 4.64 -.81 3.69-1.22 9.78-1.22 18.27v1.16c0 7.81.96 13.29 2.9 16.42 1.93 3.2 5.47 4.8 10.61 4.8h.79c4.85 0 9.82-1.34 14.89-4.02 1.44-.74 2.71-1.5 3.8-2.28v-38.08c-6.34-3.17-12.47-4.76-18.38-4.76Zm-167.53-.37c-7.05 0-11.85 1.53-14.42 4.59 -2.47 2.92-3.7 8.34-3.7 16.26h33.74v-5.08c0-5.53-1.08-9.48-3.23-11.84 -2.4-2.65-6.54-3.97-12.42-3.97ZM189.31 72.56c1.76 0 3.01.08 3.74.26 .77.17 1.4.51 1.9 1 .84.84 1.26 2.23 1.26 4.17 0 1.9-.11 3.27-.32 4.11 -.18.8-.5 1.46-.96 1.95 -.89.88-2.47 1.32-4.76 1.32 -2.36 0-3.88-.34-4.55-1.01 -1.06-1.1-1.59-2.59-1.59-4.49 0-1.94.1-3.31.31-4.12 .24-.85.59-1.5 1.05-1.96 .84-.85 2.13-1.27 3.85-1.27Zm243.04 0c1.76 0 3.01.08 3.74.26 .77.17 1.4.51 1.9 1 .84.84 1.26 2.23 1.26 4.17 0 1.9-.11 3.27-.32 4.11 -.18.8-.5 1.46-.96 1.95 -.89.88-2.47 1.32-4.76 1.32 -2.36 0-3.88-.34-4.55-1.01 -1.06-1.1-1.59-2.59-1.59-4.49 0-1.94.1-3.31.31-4.12 .24-.85.59-1.5 1.05-1.96 .84-.85 2.13-1.27 3.85-1.27Z"/></svg>