<svg viewBox="0 0 256 256" xmlns="http://www.w3.org/2000/svg"><path fill="#3A76F0" d="M97.28 3.73l2.88 11.63c-11.33 2.78-22.18 7.26-32.17 13.29l-6.17-10.28c11-6.65 22.95-11.59 35.44-14.66Zm61.44 0l-2.89 11.63c11.32 2.78 22.17 7.26 32.16 13.29l6.2-10.28c-11.02-6.65-22.99-11.6-35.49-14.66V3.7ZM18.39 61.82c-6.65 11-11.59 22.95-14.67 35.43l11.64 2.87c2.78-11.33 7.27-22.18 13.3-32.16L18.37 61.8Zm-6.41 66.15c-.01-5.82.43-11.63 1.3-17.38l-11.87-1.8c-1.92 12.71-1.92 25.64 0 38.35l11.86-1.8c-.87-5.76-1.31-11.57-1.31-17.38v0Zm182.16 109.59l-6.17-10.28c-9.98 6.02-20.81 10.5-32.13 13.29l2.88 11.63c12.47-3.08 24.4-8.02 35.4-14.66v0Zm49.84-109.6c0 5.81-.44 11.62-1.31 17.37l11.86 1.79c1.91-12.72 1.91-25.65 0-38.36l-11.87 1.79c.86 5.75 1.3 11.56 1.3 17.37Zm8.26 30.71l-11.65-2.88c-2.79 11.32-7.28 22.17-13.31 32.15l10.28 6.19c6.64-11.02 11.59-22.98 14.66-35.48v0Zm-106.89 83.99c-11.53 1.73-23.24 1.73-34.77 0l-1.81 11.85c12.71 1.91 25.64 1.91 38.36 0l-1.81-11.86Zm76-45.9c-6.92 9.36-15.21 17.64-24.59 24.55l7.12 9.65c10.34-7.61 19.48-16.72 27.12-27.04l-9.67-7.18ZM196.76 34.57c9.37 6.91 17.66 15.2 24.58 24.57l9.66-7.2c-7.62-10.32-16.73-19.43-27.05-27.04l-7.21 9.65ZM34.57 59.14c6.91-9.38 15.2-17.67 24.58-24.58l-7.21-9.66c-10.32 7.61-19.43 16.72-27.05 27.03l9.66 7.19Zm202.98 2.63l-10.29 6.15c6.02 9.97 10.5 20.8 13.3 32.11l11.64-2.88c-3.08-12.48-8.02-24.41-14.67-35.4v0ZM110.56 13.23c11.52-1.74 23.23-1.74 34.76 0l1.8-11.86c-12.72-1.92-25.65-1.92-38.37 0l1.8 11.85Zm-69.85 220.9l-24.79 5.77 5.78-24.78 -11.69-2.74 -5.79 24.77c-.95 4.04.26 8.28 3.19 11.22 2.93 2.93 7.17 4.14 11.22 3.19l24.76-5.68 -2.73-11.78Zm-28.19-32.44l11.68 2.71 4-17.18c-5.84-9.8-10.18-20.41-12.91-31.48l-11.65 2.87c2.6 10.6 6.57 20.82 11.8 30.41l-2.95 12.63Zm56 25.99l-17.19 3.99 2.72 11.67 12.64-2.94c9.59 5.22 19.81 9.18 30.42 11.79l2.88-11.64c-11.05-2.76-21.64-7.13-31.41-12.98l-.08.07Zm59.4-203.77c-37.85.01-72.69 20.59-90.99 53.71 -18.3 33.12-17.16 73.57 2.98 105.61L29.9 225.88l42.66-10c37.41 23.56 85.64 20.89 120.23-6.67 34.58-27.56 47.96-73.97 33.35-115.7 -14.62-41.74-54.03-69.67-98.25-69.63Z"/></svg>