<svg viewBox="0 0 512 108" xmlns="http://www.w3.org/2000/svg"><defs><linearGradient id="a" x1="67.344%" x2="-18.523%" y1="-26.005%" y2="22.987%"><stop offset="0%" stop-color="#FF7BFF"/><stop offset="35.0158%" stop-color="#A0F"/><stop offset="100%" stop-color="#80C"/></linearGradient><linearGradient id="b" x1="36.259%" x2="111.722%" y1="-19.363%" y2="44.997%"><stop offset="3.54358%" stop-color="#FF7BFF"/><stop offset="57.6537%" stop-color="#80C"/><stop offset="100%" stop-color="#311B92"/></linearGradient></defs><path fill="url(#a)" d="M55.97 0c11.47 3.19 21.92 11.23 26.26 21.06 6.62 15.95 5.09 36.12-2.17 48.12C73.94 79 64.5 84.24 53.66 84.11c-16.83-.13-30.48-13.54-30.6-30.39 0-16.86 13.25-30.77 30.59-30.77 2.8 0 6.84.38 11.43 2.3 0 0-3.3-1.96-11.78-3.27C28.94 18.78.21 37.24 6.84 79.75c9.17 16.34 26.77 27.44 46.79 27.31 29.45-.13 53.54-24.26 53.42-53.88 0-28.35-23.08-52.47-51.13-53.24Z"/><path fill="url(#b)" d="M75.99 22.59c-4.08-8.56-12.5-15.32-22.83-18 -2.3-.64-4.72-.9-7.4-1.03 -3.96 0-7.78.51-11.73 1.53 -9.82 2.93-16.71 8.68-20.79 13.14 -5.23 5.99-8.67 12.25-10.71 18.51 0 .12-.13.25-.13.51 -.13.51-.64 2.04-.64 2.42 -.13.25-.13.63-.26.89 -.13.51-.26 1.02-.39 1.53 0 .12 0 .25-.13.38 -3.32 16.46 2.19 31.24 5.5 36.73 .82 1.37 1.51 2.51 2.19 3.56C1.14 41.9 22.77 22.41 47.38 21.9c12.87-.26 25.75 4.97 32 15.44 -.39-5.75-.77-8.94-3.45-14.81Z"/><path d="M253.62 36.17c2.33 0 4.74.19 7.23.6 2.48.4 4.66.93 6.54 1.63v42.79c0 7.71-1.75 13.33-5.21 16.81 -3.48 3.47-8.77 5.2-15.86 5.2 -.37 0-.51 0-.88-.03v-8.34c3.96 0 6.87-.92 8.76-2.75 1.88-1.83 2.81-4.9 2.81-9.24v-4.11h-.51c-1 1.63-2.38 2.91-4.11 3.88 -1.73.97-3.72 1.45-5.95 1.45 -2.8 0-5.35-.78-7.66-2.34 -2.32-1.56-4.18-4.07-5.58-7.51 -1.42-3.45-2.12-7.86-2.12-13.22 0-8.32 1.86-14.56 5.57-18.68 3.71-4.14 9.34-6.22 16.9-6.24Zm170.91-.03c5.98 0 10.59 1.98 13.83 5.94 3.22 3.96 4.85 10.02 4.85 18.21 0 16.05-6.24 24.08-18.68 24.08 -6.03 0-10.66-1.97-13.88-5.86 -3.23-3.89-4.84-9.96-4.84-18.16 0-16.18 6.23-24.24 18.69-24.24Zm-112.18-.02c11.23 0 16.85 8.06 16.85 24.19v3.18h-24.44c.11 3.16.58 5.63 1.41 7.44 .83 1.78 2.09 3.07 3.8 3.84s3.98 1.14 6.84 1.14c2.93 0 6.33-.55 10.18-1.64v8.41c-2.09.56-4.03.99-5.84 1.24 -1.81.25-3.68.38-5.58.38 -4.96 0-9-.82-12.13-2.47 -3.13-1.66-5.45-4.24-6.96-7.78 -1.52-3.56-2.28-8.25-2.28-14.1 0-7.99 1.57-13.96 4.72-17.94 3.14-3.99 7.6-5.97 13.37-5.97Zm182.78 0c11.23 0 16.85 8.06 16.85 24.19v3.18h-24.44c.11 3.16.58 5.63 1.41 7.44 .83 1.78 2.09 3.07 3.8 3.84s3.98 1.14 6.84 1.14c2.93 0 6.33-.55 10.18-1.64v8.41c-2.08.56-4.03.99-5.84 1.24 -1.81.25-3.68.38-5.58.38 -4.96 0-9-.82-12.13-2.47 -3.13-1.66-5.45-4.24-6.96-7.78 -1.52-3.56-2.28-8.25-2.28-14.1 0-7.99 1.57-13.96 4.72-17.94 3.14-3.99 7.59-5.97 13.37-5.97Zm-347.08-16.7c2.21 0 4.43.13 6.6.42s4.1.68 5.75 1.2v8.94c-3.45-1.09-7.27-1.64-11.47-1.64 -8.5 0-12.76 2.91-12.76 8.72 0 1.57.27 2.87.79 3.92 .52 1.04 1.41 2 2.64 2.81 1.24.83 2.95 1.61 5.15 2.35l3.8 1.28c4.83 1.63 8.51 3.88 11.01 6.78 2.48 2.89 3.75 6.66 3.75 11.31 0 3.9-.86 7.26-2.59 10.06 -1.73 2.79-4.24 4.95-7.55 6.45 -3.31 1.49-7.29 2.23-11.94 2.23 -2.32 0-4.77-.2-7.35-.63 -2.59-.41-4.92-1.02-7.04-1.77v-8.98c5.01 1.63 9.75 2.42 14.24 2.42 3.9 0 6.8-.76 8.72-2.28 1.9-1.52 2.85-3.72 2.85-6.63 0-1.64-.3-3-.88-4.13 -.59-1.13-1.56-2.12-2.92-3 -1.36-.88-3.21-1.72-5.58-2.51l-3.82-1.29c-9.31-3.17-13.98-9.08-13.98-17.69 0-3.85.83-7.16 2.52-9.92s4.19-4.88 7.54-6.36c3.34-1.46 7.48-2.2 12.38-2.2Zm243.17.79v16.63h11.19v8.26h-11.2v21.8c0 2.13.23 3.82.71 5.05 .48 1.22 1.24 2.09 2.27 2.62 1.02.52 2.4.79 4.13.79 1.04 0 2.52-.18 4.45-.53v8.62c-2.26.54-4.59.81-7.02.81 -4.88 0-8.58-1.29-11.12-3.87 -2.55-2.59-3.81-6.69-3.81-12.29V45.04h-7.14v-8.27h7.13l1.84-16.64h8.51Zm-34.17-.82c2.21 0 4.43.13 6.6.42s4.1.68 5.75 1.2v8.94c-3.45-1.09-7.27-1.64-11.47-1.64 -8.5 0-12.76 2.91-12.76 8.72 0 1.57.27 2.87.79 3.92 .52 1.04 1.41 2 2.64 2.81 1.24.83 2.95 1.61 5.15 2.35l3.8 1.28c4.83 1.63 8.51 3.88 11.01 6.78 2.48 2.89 3.75 6.66 3.75 11.31 0 3.9-.86 7.26-2.59 10.06 -1.73 2.79-4.24 4.95-7.55 6.45 -3.31 1.49-7.29 2.23-11.94 2.23 -2.34.01-4.79-.18-7.35-.61 -2.59-.41-4.92-1.02-7.04-1.77v-8.98c5.01 1.63 9.75 2.42 14.24 2.42 3.9 0 6.8-.76 8.72-2.28 1.9-1.52 2.85-3.72 2.85-6.63 0-1.64-.3-3-.88-4.13 -.59-1.13-1.56-2.12-2.92-3 -1.36-.88-3.21-1.72-5.58-2.51l-3.82-1.29c-9.33-3.19-13.98-9.1-13.98-17.71 0-3.85.83-7.16 2.52-9.92s4.19-4.88 7.54-6.36c3.34-1.46 7.48-2.2 12.38-2.2ZM211.22 36.1c3.96 0 7.11 1.24 9.42 3.73 2.31 2.48 3.47 6.51 3.47 12.03v31.6h-10.34V52.65c0-2.63-.53-4.49-1.58-5.6 -1.05-1.11-2.55-1.68-4.5-1.68 -1.48 0-2.98.36-4.46 1.08 -1.48.71-2.67 1.82-3.56 3.32v33.7h-10.34V36.8h8.62l.77 4.99h.56c1.47-1.85 3.22-3.27 5.22-4.26 2-1 4.21-1.48 6.64-1.48Zm-31.06.73v46.64h-10.4V36.82h10.39Zm106.78-22.45v69.09H276.6v-69.1h10.33Zm184.63 21.88c.99 0 1.98.07 2.95.25v9.65c-.98-.18-2.16-.26-3.6-.26 -2.08 0-4.05.48-5.91 1.43 -1.85.95-3.29 2.27-4.28 3.96v32.14h-10.35V36.78h8.55l.81 6.41h.5c1.14-2.4 2.68-4.16 4.64-5.29 1.94-1.13 4.15-1.7 6.64-1.7Zm-47.08 7.73c-1.79 0-3.29.46-4.46 1.39 -1.17.93-2.07 2.56-2.69 4.93 -.63 2.37-.94 5.63-.94 9.83 0 4.25.31 7.56.93 9.91 .62 2.37 1.51 4 2.68 4.93 1.14.93 2.64 1.39 4.46 1.39 1.78.01 3.24-.45 4.41-1.37 1.14-.92 2.04-2.55 2.68-4.88 .64-2.34.93-5.58.93-9.76 0-4.28-.32-7.62-.94-10.01 -.63-2.4-1.52-4.07-2.71-5 -1.19-.94-2.65-1.42-4.42-1.42Zm-171.75.23c-3.68 0-6.44 1.2-8.29 3.63 -1.85 2.42-2.76 6.49-2.76 12.22 0 3.98.34 7.11 1.06 9.34 .71 2.23 1.71 3.78 2.97 4.64 1.26.85 2.87 1.28 4.81 1.28 1.24 0 2.46-.3 3.65-.9 1.18-.59 2.11-1.4 2.79-2.41V44.65c-1.42-.32-2.86-.47-4.28-.47Zm59.51-1.03c-1.6 0-2.94.4-4.01 1.2 -1.07.79-1.93 2.19-2.55 4.19 -.63 2-.96 4.74-1 8.26h14.67c-.02-3.5-.34-6.26-.9-8.27 -.57-2.01-1.37-3.41-2.4-4.2 -1.04-.8-2.32-1.21-3.85-1.21Zm182.78 0c-1.6 0-2.94.4-4.01 1.2 -1.07.79-1.93 2.19-2.55 4.19 -.63 2-.96 4.74-1 8.26h14.67c-.03-3.5-.34-6.26-.9-8.27 -.57-2.01-1.37-3.41-2.4-4.2 -1.04-.8-2.32-1.21-3.85-1.21ZM174.58 21.61c1.84 0 3.26.46 4.21 1.37 .95.91 1.43 2.17 1.43 3.78 0 1.63-.47 2.89-1.42 3.78 -.96.89-2.36 1.34-4.24 1.34 -1.85 0-3.25-.45-4.2-1.35 -.96-.9-1.42-2.16-1.42-3.79 0-1.64.46-2.9 1.41-3.81 .95-.9 2.35-1.37 4.19-1.37Z"/></svg>