<svg viewBox="0 0 512 77" xmlns="http://www.w3.org/2000/svg"><path fill="#0A0A0A" d="M135.2 23.78c6.64 0 11.48 2.28 14.76 6.03v-4.66h14.87V74.7h-14.88v-4.66c-3.28 3.77-8.12 6.03-14.77 6.03 -12.98 0-23.7-11.4-23.7-26.16 0-14.77 10.69-26.16 23.69-26.16ZM379.18 5.33v69.36H364.3v-4.66c-3.28 3.77-8.12 6.03-14.77 6.03 -12.98 0-23.7-11.4-23.7-26.16 0-14.77 10.69-26.16 23.69-26.16 6.64 0 11.48 2.28 14.76 6.03V5.3h14.87ZM273.14 23.6c14.32 0 25.84 11.2 25.84 25.73 0 14.53-11.51 25.73-25.85 25.73 -14.33 0-25.84-11.21-25.84-25.74 0-14.54 11.5-25.74 25.83-25.74Zm-247-20.96c11.39 0 20.32 5.44 25.36 15.66l-13.39 7.82c-2.38-4.96-5.66-8.03-11.99-8.03 -4.96 0-7.44 2.48-7.44 5.24 0 3.16 1.69 5.35 12.48 8.61l.63.19c.63.19 1.27.38 1.9.58l.63.2c.1.03.21.06.31.1l.63.2c9.23 3.02 18.15 7.45 18.15 20.21 0 13.38-10.7 21.29-25.78 21.29 -14.55.01-23.87-6.93-27.73-17.13l13.67-7.94c2.48 5.74 6.73 9.6 14.56 9.6 7.52 0 9.4-2.97 9.4-5.66 0-4.26-3.96-5.95-14.38-8.82 -10.3-2.88-20.4-7.83-20.4-21.1 0-13.39 11.3-21.12 23.28-21.12Zm385.78 19.8c14.46 0 25.16 11.19 25.16 26.15 0 2.08-.21 4.06-.59 5.94h-35.18c1.89 5.16 6.44 6.95 11.89 6.95 4.06 0 7.52-1.59 9.51-3.78l11.89 6.83c-4.86 6.73-12.19 10.19-21.62 10.19 -16.96 0-27.45-11.4-27.45-26.16 0-14.77 10.69-26.16 26.36-26.16ZM205.45.05V15.1c-5.86-.53-9.72 1.25-9.72 7.31h9.71v15.05h-9.72v37.21h-15.68V37.45h-7.01V22.39h7c0-14.64 8.04-23.42 25.39-22.38ZM244.94.04v15.05c-5.86-.53-9.72 1.25-9.72 7.31h9.71v15.05h-9.72v37.21h-15.68V37.44h-7.01V22.38h7c0-14.64 8.04-23.42 25.39-22.38Zm228.87 24.09v16.84c-6.15-1-14.88 1.49-14.88 11.3v22.4h-14.88v-49.56h14.87v8.81c1.98-6.65 8.63-9.82 14.87-9.82ZM75.46 4.69v69.96h-15V4.68h14.99Zm244.29.21l.1 69.41 -.11-.05h-14.88V4.89h14.87Zm-181.63 32.89c-6.84 0-11.8 4.65-11.8 12.09 0 7.43 4.95 12.09 11.79 12.09 6.84-.02 11.79-4.68 11.79-12.1 0-7.44-4.96-12.1-11.8-12.1Zm214.34 0c-6.84 0-11.8 4.65-11.8 12.09 0 7.43 4.95 12.09 11.79 12.09 6.84-.02 11.79-4.68 11.79-12.1 0-7.44-4.96-12.1-11.8-12.1Zm-79.38 0c-6.34 0-11.21 4.57-11.21 11.5 0 6.92 4.87 11.5 11.2 11.5 6.33 0 11.2-4.58 11.2-11.51s-4.88-11.51-11.21-11.51Zm138.69-2.19c-5.66 0-9.41 2.77-10.81 7.82h21.31c-1.59-5.75-6.04-7.83-10.52-7.83Z"/><path fill="#FF6B35" d="M112.14 24.73l-18.2 24.99 18.69 24.99h-17l-16-22.1 -2.13-2.91 17.12-25h17.49Zm382.63-.02l17.12 24.99 -2.13 2.9 -16 22.09h-17l18.69-25 -18.2-25h17.49Z"/></svg>