<svg viewBox="0 0 256 289" xmlns="http://www.w3.org/2000/svg"><path fill="#BAC4C5" d="M239.348 64.287L127.99 0 16.65 64.287C6.34 70.227-.01 81.227-.01 93.12v109.345c0 11.89 6.348 22.89 16.652 28.84l89.17 51.48c13.72 7.92 30.62 7.92 44.342 0l89.17-51.49c10.3-5.95 16.65-16.95 16.65-28.85V93.1c0-11.9-6.35-22.9-16.66-28.85v0Zm-17.28 122.84c0 8.8-4.65 16.94-12.2 21.34l-63.81 37.21c-10.98 6.4-24.55 6.4-35.52 0l-63.81-37.22c-7.55-4.41-12.198-12.54-12.198-21.35v-80.92c0-8.81 4.65-16.95 12.198-21.35l81.56-47.58 81.564 47.57c7.54 4.4 12.19 12.53 12.19 21.34v80.91 0Z"/><g transform="translate(68 84)"><path fill="#ED1A3B" d="M92.4 26.04l-.66.45 -30.13 31.96 -.41.59 .15.06 30.984.04 .04-.11 29.38-27.966L92.36 26"/><path fill="#C2315D" d="M92.4 92.083l-.19.04 -30.88-32.69 -.13-.38h31.18l29.38 27.62 -29.39 5.4"/><path fill="#94407E" d="M61.22 59.062L92.4 92.083l-1.44 25.67L61.21 88.39l-.08-.28 -.07-28.67 .14-.4"/><path fill="#577F9F" d="M28.206 90.24l-.04-.31L60.83 59.28l.39-.24 -.01 29.33 -29.53 29.363 -3.49-27.52"/><path fill="#00AEC5" d="M61.22 59.06L28.19 90.24 .67 86.59 31.87 59.05l.17-.15 28.79-.03 .37.16"/><path fill="#93C483" d="M61.22 59.06l-.4-.65 -32.125-30.5 -.51-.04L.67 31.77l31.197 27.27H61.2"/><path fill="#FCDE11" d="M28.2 27.883L61.22 59.064l.14-.78v-28l-.16-.57L31.63.36 28.18 27.87"/><path fill="#F78E36" d="M61.223 59.06L92.4 26.039 90.633.37 61.21 29.725v29.33"/></g></svg>