<svg viewBox="0 0 256 256" xmlns="http://www.w3.org/2000/svg" xmlns:xlink="http://www.w3.org/1999/xlink"><defs><linearGradient id="a" x1="42.172%" x2="57.827%" y1=".584%" y2="99.415%"><stop offset="1%" stop-color="#00B7F0"/><stop offset="34%" stop-color="#009DE5"/><stop offset="76%" stop-color="#0082D9"/><stop offset="100%" stop-color="#0078D4"/></linearGradient><linearGradient id="b" x1="6.658%" x2="93.341%" y1="75%" y2="25%"><stop offset="0%" stop-color="#0078D4"/><stop offset="37%" stop-color="#007AD5"/><stop offset="57%" stop-color="#0082D9"/><stop offset="74%" stop-color="#0090DF"/><stop offset="88%" stop-color="#00A3E7"/><stop offset="100%" stop-color="#00BCF2"/></linearGradient><radialGradient id="c" fr="0%" fx="48.539%" fy="50%" cx="48.539%" cy="50%" r="50.021%"><stop offset="0%"/><stop offset="100%" stop-opacity="0"/></radialGradient><mask id="d"><path fill="#FFF" d="M179.9 104.18c-13.57-.01-26.89 3.64-38.57 10.55 19.53-32.95 11.49-75.28-18.75-98.77 -30.25-23.5-73.26-20.8-100.34 6.28 -27.09 27.08-29.78 70.08-6.29 100.33 23.49 30.24 65.82 38.28 98.76 18.74 -17.5 29.64-12.85 67.34 11.32 91.85 24.16 24.5 61.79 29.68 91.68 12.61 29.88-17.08 44.54-52.12 35.7-85.39 -8.84-33.27-38.96-56.42-73.37-56.41l-.18.17Z"/></mask><linearGradient id="e" x1="30.436%" x2="80.436%" y1="16.124%" y2="102.736%"><stop offset="0%" stop-color="#00B7F0"/><stop offset="100%" stop-color="#007CC1"/></linearGradient><linearGradient id="f" x1="45.636%" x2="54.363%" y1="99.815%" y2=".184%"><stop offset="0%" stop-color="#0078D4"/><stop offset="100%" stop-color="#00BCF2"/></linearGradient><path id="g" d="M127.94 8.25a119.86 119.86 0 1 0 0 239.73 119.86 119.86 0 1 0 0-239.74Z"/></defs><path fill="#FFF" d="M246.66 143.9c.74-5.23 1.13-10.51 1.15-15.79 0-31.8-12.63-62.28-35.11-84.76 -22.48-22.48-52.97-35.11-84.76-35.11 -5.29.02-10.56.4-15.79 1.15C82.6-6.54 46.1-1.19 22.37 22.54 -1.37 46.27-6.72 82.76 9.21 112.31c-.75 5.22-1.14 10.5-1.16 15.78 0 66.2 53.66 119.86 119.86 119.86 5.28-.03 10.55-.41 15.78-1.16 29.54 15.92 66.04 10.57 89.77-13.16 23.73-23.74 29.08-60.23 13.15-89.78v0Z"/><path fill="url(#a)" d="M75.99.27a75.89 75.89 0 1 0 0 151.78 75.89 75.89 0 1 0 0-151.79Z"/><path fill="url(#b)" d="M179.9 104.18a75.89 75.89 0 1 0 0 151.78 75.89 75.89 0 1 0 0-151.79Z"/><path mask="url(#d)" fill="url(#c)" d="M125.54-8.24a141.81 141.81 0 1 0 0 283.62 141.81 141.81 0 1 0 0-283.63Z"/><use fill="url(#e)" xlink:href="#g"/><use fill="url(#f)" xlink:href="#g"/><path fill="#FFF" d="M84.23 113.4c-2.82-5.29-4.23-11.22-4.08-17.2 -.19-7.57 2.4-14.95 7.27-20.75 5.12-5.78 11.66-10.12 18.97-12.59 7.94-2.81 16.31-4.22 24.73-4.17 5.52-.04 11.03.37 16.49 1.24 3.88.65 7.71 1.63 11.43 2.92 3.38 1.16 6.42 3.14 8.86 5.76 1.86 2.09 2.87 4.81 2.83 7.62 .13 2.97-.92 5.87-2.93 8.06 -1.88 2-4.53 3.09-7.28 3.01 -1.9-.03-3.78-.46-5.5-1.25 -4.18-1.85-8.48-3.42-12.86-4.7 -4.08-1.07-8.29-1.58-12.51-1.51 -5.47-.19-10.87 1.16-15.61 3.9 -4.06 2.46-6.45 6.95-6.21 11.7 -.04 3.02 1.11 5.95 3.19 8.15 2.54 2.62 5.54 4.75 8.86 6.29 3.63 1.77 8.86 4.16 16.31 7.18l2.3.88c7.03 2.68 13.77 6.06 20.12 10.1 5.05 3.27 9.32 7.63 12.5 12.76 3.11 5.37 4.68 11.51 4.52 17.73 .25 7.61-1.96 15.1-6.3 21.36 -4.46 6.02-10.64 10.53-17.74 12.94 -8.39 2.99-17.26 4.43-26.16 4.25 -12.18.4-24.29-1.9-35.47-6.74 -2.87-1.29-5.39-3.24-7.36-5.68 -1.56-2.31-2.36-5.03-2.31-7.81 -.2-2.97.94-5.86 3.1-7.9 2.21-1.97 5.11-2.98 8.06-2.84 3.3.04 6.55.86 9.48 2.39 3.63 1.77 6.47 3.19 8.86 4.07 2.37 1 4.83 1.77 7.35 2.3 3.11.7 6.29 1.03 9.48.97 5.64.41 11.26-1.09 15.95-4.26 3.59-2.76 5.61-7.1 5.4-11.62 .08-3.29-1.13-6.47-3.37-8.87 -2.9-2.95-6.25-5.41-9.93-7.28 -4.35-2.31-10.56-5.06-18.45-8.43 -7.09-2.83-13.89-6.33-20.31-10.47 -4.8-3.2-8.98-6.73-11.89-11.71Z"/></svg>