<svg viewBox="0 0 256 256" xmlns="http://www.w3.org/2000/svg"><path fill="#E01E5A" d="M53.84 161.32c0 14.83-11.99 26.81-26.82 26.81C12.18 188.13.2 176.14.2 161.31c0-14.84 11.98-26.82 26.81-26.82h26.81v26.81Zm13.4 0c0-14.84 11.98-26.82 26.81-26.82 14.83 0 26.81 11.98 26.81 26.81v67.04c0 14.83-11.99 26.81-26.82 26.81 -14.84 0-26.82-11.99-26.82-26.82v-67.05Z"/><path fill="#36C5F0" d="M94.06 53.63c-14.84 0-26.82-11.99-26.82-26.82 0-14.84 11.98-26.82 26.81-26.82 14.83 0 26.81 11.98 26.81 26.81v26.81H94.04Zm0 13.61c14.83 0 26.81 11.98 26.81 26.81 0 14.83-11.99 26.81-26.82 26.81H26.79c-14.84 0-26.82-11.99-26.82-26.82 0-14.84 11.98-26.82 26.81-26.82h67.25Z"/><path fill="#2EB67D" d="M201.54 94.06c0-14.84 11.98-26.82 26.81-26.82 14.83 0 26.81 11.98 26.81 26.81 0 14.83-11.99 26.81-26.82 26.81h-26.82V94.04Zm-13.41 0c0 14.83-11.99 26.81-26.82 26.81 -14.84 0-26.82-11.99-26.82-26.82V26.79c0-14.84 11.98-26.82 26.81-26.82 14.83 0 26.81 11.98 26.81 26.81v67.25Z"/><path fill="#ECB22E" d="M161.32 201.54c14.83 0 26.81 11.98 26.81 26.81 0 14.83-11.99 26.81-26.82 26.81 -14.84 0-26.82-11.99-26.82-26.82v-26.82h26.81Zm0-13.41c-14.84 0-26.82-11.99-26.82-26.82 0-14.84 11.98-26.82 26.81-26.82h67.25c14.83 0 26.81 11.98 26.81 26.81 0 14.83-11.99 26.81-26.82 26.81h-67.26Z"/></svg>