<svg viewBox="0 0 256 274" xmlns="http://www.w3.org/2000/svg"><g transform="translate(0 11)"><path fill="#729544" d="M50.424 22.74c-1.49 3.497-3.16 6.92-4.41 10.5 -3.06 8.67-3.83 17.64-3.07 26.78 .6 7.26 2.01 14.33 4.82 21.08 3.86 9.28 9.93 16.9 17.661 23.26 7.59 6.253 16.107 10.98 24.98 15.1 11.17 5.18 22.75 9.3 34.375 13.35 12.11 4.21 24.07 8.82 35.42 14.86 7.73 4.11 15.03 8.87 21.23 15.14 7.72 7.79 12.34 17.08 13.74 28.03 1.83 14.34-2.33 26.74-11.89 37.4 -9.09 10.14-20.53 16.41-33.54 19.96 -10.04 2.74-20.25 3.33-30.57 2.13 -20.38-2.38-38.29-10.68-54.57-22.83 -2.73-2.04-5.27-4.31-7.9-6.47 -.35-.29-.67-.59-1.02-.87 -2.04-1.61-4.03-1.72-6.1-.16 -1.11.83-2.05 1.89-3.2 2.98 -2.48-2.26-5.1-4.48-7.55-6.875 -17.03-16.64-28.68-36.44-34.762-59.47 -2.29-8.64-3.6-17.44-4-26.37C-1.01 106.58 4 84.285 15.23 63.42 23.85 47.39 35.44 33.85 49.84 22.73c.11-.09.25-.15.38-.22 .04.03.08.07.12.11"/><path fill="#93BD5A" d="M208.879 223.17c.99-2.47 2.07-4.9 2.96-7.4 2.07-5.83 3.07-11.86 3.11-18.05 .06-8.65-1.09-17.1-4.09-25.25 -3.24-8.81-8.39-16.35-15.07-22.88 -7.46-7.28-16.11-12.86-25.28-17.68 -12.96-6.82-26.59-12.02-40.38-16.83 -9.28-3.24-18.64-6.25-27.64-10.229 -8.72-3.86-17.104-8.3-24.43-14.51 -7.07-5.997-12.44-13.21-15.01-22.19 -4.759-16.61-2.09-31.91 8.64-45.6C77.61 14.98 85.29 9.69 94.11 6c7.56-3.17 15.47-4.86 23.625-5.6 5.72-.52 11.45-.65 17.17-.14 8.506.762 16.75 2.72 24.79 5.57 9.02 3.2 17.61 7.289 25.68 12.46 .55.35 1.15.66 1.75.93 2.12.94 4.07.63 5.71-1.01 .85-.85 1.53-1.87 2.4-2.94 2.14 1.44 4.41 2.88 6.59 4.44 15.34 10.89 27.72 24.5 37.11 40.807 7.2 12.5 12.11 25.86 14.75 40.055 1.67 9.01 2.42 18.09 2.15 27.25 -.5 16.43-3.94 32.22-10.51 47.31 -6.81 15.63-16.36 29.35-28.62 41.18 -2.5 2.4-5.22 4.58-7.83 6.86 -.04-.04-.08-.08-.12-.12"/></g></svg>