<svg viewBox="0 0 256 230" xmlns="http://www.w3.org/2000/svg"><path fill="#FFF" d="M54.33 215.77L3.52 127.65c-4.71-8.17-4.71-18.23 0-26.39l50.8-88.06C59.04 5.01 67.77-.02 77.17-.02h101.55c9.42 0 18.17 5.02 22.85 13.21l50.82 88.09c4.7 8.16 4.7 18.22 0 26.38l-50.81 88.11c-4.73 8.18-13.46 13.21-22.86 13.21H77.21c-9.47-.05-18.18-5.1-22.93-13.26Z"/><path fill="#7C4DFF" d="M58.66 209.78L10.87 126.9c-4.45-7.69-4.45-17.16 0-24.82l47.78-82.9c4.46-7.71 12.66-12.43 21.52-12.43h95.56c8.85 0 17.08 4.72 21.52 12.42l47.82 82.85c4.44 7.68 4.44 17.15 0 24.81l-47.81 82.93c-4.47 7.7-12.67 12.42-21.53 12.42H80.18c-8.91 0-17.12-4.75-21.58-12.46Z"/><path fill="#F7F7F7" d="M71.57 95.17c-2.18-2.14-3.52-5.12-3.51-8.43 0-17.18 13.91-31.09 31.08-31.07h59.03c12.25 0 22.2 9.94 22.2 22.2V96.3c0 1.21-.98 2.22-2.23 2.22h-42.75l40.6 40.62c.06.06.12.12.19.19 2.53 1.96 4.16 5.03 4.16 8.49 0 17.74-14.42 32.15-32.16 32.15H89.42c-11.83 0-21.45-9.6-21.43-21.47v-19.29c0-1.16.91-2.14 2.13-2.14h43.23L72.33 96.05c-.31-.31-.59-.62-.86-.94Z"/><g fill="#444"><path opacity=".3" d="M146.96 170.68l-43.09-33.57 9.53 0Z"/><path opacity=".3" d="M101.5 64.6l33.93 33.93 11.51 0Z"/></g></svg>