<svg viewBox="0 0 256 239" xmlns="http://www.w3.org/2000/svg" xmlns:xlink="http://www.w3.org/1999/xlink"><defs><linearGradient id="a" x1="-5.86%" x2="91.406%" y1="38.27%" y2="60.924%"><stop offset="10%" stop-color="#76B3E1"/><stop offset="30%" stop-color="#DCF2FD"/><stop offset="100%" stop-color="#76B3E1"/></linearGradient><linearGradient id="b" x1="56.996%" x2="37.941%" y1="38.439%" y2="68.374%"><stop offset="0%" stop-color="#76B3E1"/><stop offset="50%" stop-color="#4377BB"/><stop offset="100%" stop-color="#1F3B77"/></linearGradient><linearGradient id="c" x1="10.708%" x2="104.336%" y1="34.531%" y2="70.454%"><stop offset="0%" stop-color="#315AA9"/><stop offset="50%" stop-color="#518AC8"/><stop offset="100%" stop-color="#315AA9"/></linearGradient><linearGradient id="d" x1="61.992%" x2="17.761%" y1="29.579%" y2="105.119%"><stop offset="0%" stop-color="#4377BB"/><stop offset="50%" stop-color="#1A336B"/><stop offset="100%" stop-color="#1A336B"/></linearGradient><path id="e" d="M256 50.47s-85.34-62.8-151.35-48.31l-4.84 1.61c-9.67 3.22-17.72 8.05-22.55 14.49l-3.23 4.83 -24.16 41.86L91.73 73c17.71 11.27 40.25 16.1 61.18 11.27l74.06 14.49 28.98-48.31Z"/><path id="f" d="M77.28 50.47l-6.45 1.61c-27.38 8.05-35.43 33.81-20.94 56.35 16.1 20.93 49.91 32.2 77.28 24.15l99.82-33.82s-85.34-62.8-149.74-48.31Z"/></defs><use fill="#76B3E1" xlink:href="#e"/><use opacity=".3" fill="url(#a)" xlink:href="#e"/><use fill="#518AC8" xlink:href="#f"/><use opacity=".3" fill="url(#b)" xlink:href="#f"/><path fill="url(#c)" d="M209.3 122.92c-18.44-23.04-49.01-32.59-77.29-24.16l-99.83 32.2 -32.21 56.35 180.32 30.59 32.2-57.97c6.44-11.28 4.83-24.16-3.23-37.04Z"/><path fill="url(#d)" d="M177.1 179.27c-18.44-23.04-49.01-32.59-77.29-24.16l-99.83 32.2s85.33 64.4 151.34 48.3l4.83-1.62c27.37-8.06 37.03-33.82 20.93-54.75Z"/></svg>