<svg viewBox="0 0 512 125" xmlns="http://www.w3.org/2000/svg"><path fill="#070707" d="M269 99.31c-8.4 5.7-19.87 3.51-25.58-4.88 -5.72-8.4-3.52-19.87 4.87-25.59 8.39-5.71 19.86-3.52 25.57 4.88 5.71 8.39 3.52 19.86-4.88 25.58m11.39-30.02c-8.16-12.02-24.52-15.13-36.52-6.97 -12.02 8.16-15.13 24.51-6.97 36.52 7.22 10.63 20.86 14.28 32.22 9.32l10.17 16.52 8.07-5.49 -10.17-16.53c8.78-8.75 10.41-22.79 3.18-33.41M-.05 106.06c3.78 2.04 9.6 3.57 16.14 3.57 14.3 0 21.56-6.85 21.56-16.25 -.11-7.26-3.99-12.06-13.49-15.33 -6.14-2.05-8.08-3.38-8.08-5.73 0-2.46 2.14-3.99 5.92-3.99 4.19 0 8.58 1.63 10.83 2.75l2.65-10.63c-3.07-1.54-8.18-2.97-14.01-2.97 -12.37 0-20.34 7.05-20.34 16.45 -.11 5.82 3.88 11.44 14.3 14.92 5.72 1.83 7.25 3.16 7.25 5.72 0 2.55-1.95 4.08-6.65 4.08 -4.6 0-10.53-1.95-13.39-3.68L-.12 106Zm65.2 3.67c13.28 0 26.26-8.39 26.26-26.58 0-15.13-10.22-25.66-25.45-25.66 -16.15 0-26.78 10.32-26.78 26.46s11.24 25.75 25.85 25.75h.1Zm.2-11.14c-6.55 0-10.12-6.44-10.12-14.93 0-7.47 2.86-15.03 10.21-15.03 7.05 0 9.91 7.56 9.91 14.92 0 8.99-3.79 15.02-9.92 15.02h-.11ZM95.9 108.6h15.53V79.78c0-1.44.1-2.87.51-3.89 1.12-2.87 3.67-5.83 7.97-5.83 5.62 0 7.86 4.39 7.86 10.83v27.69h15.53V79.04c0-14.72-7.67-21.57-17.89-21.57 -8.39 0-13.39 4.8-15.44 8.07h-.31l-.72-6.95H95.45c.2 4.49.4 9.7.4 15.94v34.03Zm96.37-29.54c0-11.76-5.22-21.57-21.87-21.57 -9.1 0-15.95 2.55-19.42 4.49l2.86 9.91c3.27-1.95 8.68-3.68 13.79-3.68 7.66 0 9.09 3.78 9.09 6.43v.61c-17.68 0-29.34 6.13-29.34 19.11 0 7.97 6.02 15.32 16.14 15.32 5.92 0 11.03-2.15 14.3-6.14h.3l.91 5h14c-.62-2.76-.82-7.36-.82-12.06V79ZM177.24 90.4c0 .91-.11 1.83-.31 2.65 -1.03 3.16-4.3 5.72-8.08 5.72 -3.48 0-6.14-1.95-6.14-5.93 0-5.93 6.33-7.87 14.51-7.87v5.41Zm22.27 18.19h15.53V83.34c0-1.33.1-2.46.3-3.48 1.02-4.91 4.9-7.87 10.62-7.87 1.73 0 2.96.2 4.19.4V57.77c-1.13-.21-1.84-.31-3.28-.31 -4.91 0-10.94 3.06-13.49 10.42h-.41l-.62-9.3h-13.29c.3 4.29.4 9.09.4 16.45v33.52ZM331.57 59.4h-9v30.24c0 1.73-.31 3.37-.82 4.59 -1.64 4.08-5.83 8.27-11.86 8.27 -8.08 0-11.04-6.44-11.04-15.85V59.36h-9v28.92c0 17.27 9.29 21.66 17.06 21.66 8.78 0 14.1-5.22 16.35-9.2h.2l.51 8.07h7.97c-.31-3.89-.41-8.39-.41-13.6V59.33Zm9.81 36.68c0 4.39-.11 9.4-.41 12.77h7.76l.51-8.18h.2c3.78 6.54 9.4 9.29 16.55 9.29 11.03 0 22.27-8.79 22.27-26.58 0-14.93-8.59-25.15-20.85-25.15 -7.98 0-13.7 3.47-16.87 8.99h-.21V36.25h-9v59.78Zm8.99-15.95c0-1.44.2-2.66.51-3.79 1.73-6.75 7.46-11.04 13.59-11.04 9.6 0 14.71 8.48 14.71 18.49 0 11.34-5.52 19-15.03 19 -6.44 0-11.76-4.3-13.49-10.53 -.21-1.03-.31-2.15-.31-3.28v-8.9Zm83.8 5.62c.2-1.03.3-2.36.3-4.2 0-9.1-4.2-23.31-20.34-23.31 -14.41 0-23.31 11.75-23.31 26.67 0 14.81 9.19 24.93 24.32 24.93 7.86 0 13.38-1.74 16.55-3.17l-1.64-6.44c-3.28 1.43-7.26 2.55-13.7 2.55 -9 0-16.66-5.01-16.87-17.07h34.64Zm-34.55-6.44c.71-6.24 4.59-14.62 13.79-14.62 10.01 0 12.46 8.89 12.36 14.61H399.6Z"/><path fill="#499CD2" d="M496.69 108.78h-6.29c0-50.63-41.78-91.82-93.12-91.82v-6.29c54.81 0 99.39 43.99 99.39 98.09Zm4.34-33.77c-7.55-31.76-33.28-58.27-65.55-67.54l1.44-5.04c34.05 9.78 61.21 37.78 69.19 71.35l-5.1 1.21Zm7.07-29.81c-7.78-16.96-21.04-31.75-37.31-41.64l2.17-3.59c16.99 10.33 30.8 25.75 38.93 43.46l-3.81 1.75Z"/></svg>