<svg viewBox="0 0 256 145" xmlns="http://www.w3.org/2000/svg" xmlns:xlink="http://www.w3.org/1999/xlink"><defs><linearGradient id="a" x1="49.719%" x2="49.719%" y1="-27.702%" y2="100.084%"><stop offset="0%" stop-color="#F6871F"/><stop offset="23.93%" stop-color="#F57E20"/><stop offset="62.62%" stop-color="#F36621"/><stop offset="100%" stop-color="#F04923"/></linearGradient><linearGradient id="b" x1="50.207%" x2="50.207%" y1="-25.001%" y2="100.195%" xlink:href="#a"/><linearGradient id="c" x1="50.03%" x2="50.03%" y1="-26.167%" y2="100.311%" xlink:href="#a"/><linearGradient id="d" x1="49.936%" x2="49.936%" y1="-23.197%" y2="100.193%" xlink:href="#a"/><linearGradient id="e" x1="49.525%" x2="49.525%" y1="-89.846%" y2="101.504%" xlink:href="#a"/><linearGradient id="f" x1="50.151%" x2="50.151%" y1="-13.847%" y2="100.178%" xlink:href="#a"/><linearGradient id="g" x1="49.659%" x2="49.659%" y1="-95.239%" y2="100.836%" xlink:href="#a"/><linearGradient id="h" x1="49.596%" x2="49.596%" y1="-51.09%" y2="100.373%" xlink:href="#a"/><linearGradient id="i" x1="50.414%" x2="50.414%" y1="-33.211%" y2="100.08%" xlink:href="#a"/><linearGradient id="j" x1="50.034%" x2="50.034%" y1="-7.143%" y2="100.167%" xlink:href="#a"/><linearGradient id="k" x1="50.324%" x2="50.324%" y1="-220.199%" y2="147.927%" xlink:href="#a"/><linearGradient id="l" x1="49.159%" x2="49.159%" y1="-121.474%" y2="112.576%" xlink:href="#a"/><linearGradient id="m" x1="50.422%" x2="50.422%" y1="-94.485%" y2="103.334%" xlink:href="#a"/><linearGradient id="n" x1="49.93%" x2="49.93%" y1="-.001%" y2="100.017%"><stop offset="0%" stop-color="#F7941E"/><stop offset="0%" stop-color="#F68B1F"/><stop offset="0%" stop-color="#F6871F"/><stop offset="24.02%" stop-color="#F57E20"/><stop offset="63.06%" stop-color="#F36621"/><stop offset="100%" stop-color="#F04923"/></linearGradient></defs><path fill="url(#a)" d="M109.97 81.48l-1.5-54.49c0-1.7-1.4-2.99-2.99-2.99 -1.7 0-2.99 1.29-2.99 2.98l-1.4 54.48 1.39 26.19c0 1.69 1.39 2.98 2.98 2.98 1.69 0 2.98-1.3 2.98-2.99l1.49-26.2Z"/><path fill="url(#b)" d="M99.21 81.48l-1.7-56.58c0-1.6-1.3-2.79-2.79-2.79 -1.5 0-2.79 1.19-2.79 2.78l-1.5 56.47 1.49 26.39c0 1.59 1.29 2.78 2.78 2.78 1.49 0 2.78-1.2 2.78-2.79l1.69-26.3Z"/><path fill="url(#c)" d="M76 25.3c-.1-1.3-1.1-2.4-2.4-2.4 -1.3 0-2.3.99-2.4 2.39l-1.7 56.08 1.69 26.79c0 1.29 1.09 2.29 2.39 2.29 1.29 0 2.29-1 2.39-2.4l1.99-26.8 -2-55.99Z"/><path fill="url(#d)" d="M86.76 23.4c0-1.4-1.2-2.59-2.59-2.59 -1.4 0-2.59 1.09-2.59 2.58l-1.6 57.97 1.59 26.59c0 1.39 1.19 2.58 2.58 2.58 1.39 0 2.49-1.1 2.58-2.59l1.79-26.6 -1.8-57.98Z"/><path fill="url(#e)" d="M32.47 109.87c.79 0 1.39-.6 1.49-1.5l2.58-27 -2.59-27.9c-.1-.8-.7-1.5-1.5-1.5s-1.4.59-1.5 1.49l-2.3 27.89 2.29 26.99c0 .89.69 1.49 1.49 1.49Z"/><path fill="url(#f)" d="M120.82 81.48l-1.4-64.75c0-1.1-.6-2.1-1.5-2.69 -.5-.3-1.1-.6-1.8-.6 -.6 0-1.2.19-1.8.49 -.9.59-1.5 1.59-1.5 2.68v.59l-1.2 64.14 1.19 25.99v.09c0 .69.29 1.39.79 1.89 .59.69 1.49 1.19 2.49 1.19 .89 0 1.69-.4 2.29-.9 .59-.6.99-1.4.99-2.3l.09-2.59 1.29-23.31Z"/><path fill="url(#g)" d="M44.32 55.48c-.1-1-.8-1.7-1.7-1.7 -.9 0-1.7.69-1.7 1.69l-2.1 25.89 2.09 27.19c.09.99.79 1.69 1.69 1.69 .89 0 1.69-.7 1.69-1.7l2.39-27.2 -2.4-25.9Z"/><path fill="url(#h)" d="M52.89 37.35c-1 0-1.9.79-1.9 1.89l-2 42.13 1.99 27.19c.09 1.09.89 1.89 1.89 1.89 .99 0 1.89-.8 1.89-1.9l2.29-27.2 -2.3-42.14c0-1-.9-1.9-1.9-1.9Z"/><path fill="url(#i)" d="M65.24 108.57l2.09-27.1 -2.1-51.8c-.1-1.2-1-2.1-2.2-2.1 -1.2 0-2.1.89-2.2 2.09l-1.9 51.79 1.89 27.09c0 1.19.99 2.09 2.19 2.09 1.19.09 2.09-.9 2.19-2.1Z"/><path fill="url(#j)" d="M128.69 7.86c-.5-.3-1.1-.5-1.8-.5 -.8 0-1.6.29-2.2.79 -.8.59-1.3 1.59-1.3 2.68v.39l-1.4 70.32 .69 12.94 .69 12.65c0 1.89 1.59 3.38 3.48 3.38s3.38-1.6 3.48-3.49l1.49-25.6 -1.5-70.63c-.1-1.3-.7-2.4-1.7-2.99Z"/><path fill="url(#k)" d="M2.88 96.32c.49 0 .89-.4.99-1l2.19-13.95 -2.2-14.15c-.1-.6-.5-1-1-1s-1 .39-1 .99l-1.9 14.14 1.89 13.94c0 .59.49.99.99.99Z"/><path fill="url(#l)" d="M12.35 104.79c.49 0 .99-.4 1.09-1l2.88-22.42 -2.89-22.92c-.1-.6-.5-1-1.1-1 -.5 0-1 .39-1.1.99l-2.5 22.91 2.49 22.41c.09.59.49.99 1.09.99Z"/><path fill="url(#m)" d="M22.31 108.87c.69 0 1.19-.5 1.29-1.3l2.68-26.2 -2.69-27.2c-.1-.7-.6-1.3-1.3-1.3 -.7 0-1.2.49-1.3 1.29l-2.4 27.19 2.39 26.19c.09.69.59 1.29 1.29 1.29Z"/><path fill="url(#n)" d="M223.62 48.01c-4.29 0-8.37.89-12.16 2.39 -2.5-28.19-26.2-50.41-55.09-50.41 -7.08 0-13.95 1.39-20.03 3.78 -2.4.89-2.99 1.89-2.99 3.68v99.51c0 1.89 1.49 3.38 3.38 3.58h86.96c17.33 0 31.37-13.85 31.37-31.18 -.1-17.34-14.15-31.38-31.48-31.38Z"/><path fill="#F04923" d="M25 129.49c-3.69-.9-4.69-1.3-4.69-2.79 0-1 .79-2.1 3.28-2.1 2.09 0 3.78.89 5.27 2.39l3.38-3.29c-2.2-2.3-4.89-3.69-8.47-3.69 -4.59 0-8.27 2.58-8.27 6.77 0 4.58 2.98 5.97 7.27 6.87 4.38.99 5.17 1.69 5.17 3.18 0 1.79-1.3 2.49-4.09 2.49 -2.2 0-4.29-.8-5.98-2.69l-3.39 2.98c1.79 2.58 5.17 4.18 8.96 4.18 6.37 0 9.06-2.99 9.06-7.38 .19-4.89-3.89-6.18-7.58-6.98Zm21.41-9.37c-6.38 0-10.07 4.88-10.07 11.95 0 7.07 3.78 11.95 10.06 11.95 6.27 0 10.06-4.89 10.06-11.96 0-7.08-3.79-11.96-10.07-11.96Zm0 19.22c-3.79 0-5.28-3.19-5.28-7.38 0-4.19 1.59-7.38 5.27-7.38 3.78 0 5.27 3.18 5.27 7.37 0 4.18-1.6 7.37-5.28 7.37Zm28.78-5.88c0 3.68-1.8 5.97-4.79 5.97s-4.79-2.4-4.79-6.08V120.4h-4.69v13.04c0 6.77 3.78 10.55 9.36 10.55 5.87 0 9.36-3.89 9.36-10.56v-12.95h-4.69v12.94h.19Zm24.6-3.19c0 1.29.09 4.18.09 5.08 -.3-.6-1.1-1.8-1.6-2.59l-8.27-12.26h-4.49v23.2h4.58v-10.26c0-1.3-.1-4.19-.1-5.09 .29.59 1.09 1.79 1.59 2.58l8.46 12.65h4.18v-23.21h-4.59v9.86h.09Zm17.83-9.87h-7.28v23.2h6.87c5.97 0 11.85-3.49 11.85-11.56 0-8.57-4.89-11.66-11.46-11.66Zm-.4 18.72h-2.3v-14.15h2.49c4.88 0 6.97 2.39 6.97 7.07 0 4.18-2.3 7.07-7.18 7.07Zm26.19-14.45c2.09 0 3.38.89 4.28 2.49l4.28-2c-1.5-2.99-4.09-5.18-8.47-5.18 -6.08 0-10.26 4.88-10.26 11.95 0 7.27 4.08 11.95 10.16 11.95 4.18 0 6.97-2 8.56-5.28l-3.89-2.3c-1.2 2.09-2.5 2.98-4.59 2.98 -3.49 0-5.48-3.19-5.48-7.38 0-4.29 1.99-7.28 5.37-7.28Zm17.23-4.29h-4.69v23.2h13.94v-4.59h-9.27v-18.63Zm21.51-.3c-6.38 0-10.07 4.88-10.07 11.95 0 7.07 3.78 11.95 10.06 11.95 6.37 0 10.06-4.89 10.06-11.96 0-7.08-3.69-11.96-10.07-11.96Zm0 19.22c-3.79 0-5.28-3.19-5.28-7.38 0-4.19 1.59-7.38 5.27-7.38 3.78 0 5.27 3.18 5.27 7.37 0 4.18-1.5 7.37-5.28 7.37Zm28.78-5.88c0 3.68-1.8 5.97-4.79 5.97s-4.79-2.4-4.79-6.08v-12.95h-4.69v13.04c0 6.77 3.78 10.55 9.36 10.55 5.87 0 9.36-3.89 9.36-10.56v-12.95h-4.69v12.94h.19Zm17.73-13.05h-7.28v23.2h6.87c5.97 0 11.85-3.49 11.85-11.56 0-8.57-4.89-11.66-11.46-11.66Zm-.4 18.72h-2.2v-14.15h2.49c4.88 0 6.87 2.39 6.87 7.07 0 4.18-2.3 7.07-7.18 7.07Z"/></svg>