<svg viewBox="0 0 512 134" xmlns="http://www.w3.org/2000/svg"><path fill="#55555A" d="M.64 118.99l7.97-9.65c5.53 4.63 11.32 7.46 18.39 7.46 5.53 0 8.87-2.19 8.87-5.79v-.13c0-3.48-2.06-5.15-12.48-7.85 -12.23-3.22-20.33-6.69-20.33-18.92v-.13c-.001-11.2 9-18.66 21.61-18.66 9 0 16.59 2.83 22.89 7.84l-7.08 10.16c-5.41-3.74-10.81-6.05-16.09-6.05 -5.15 0-7.98 2.44-7.98 5.4v.12c0 4.11 2.7 5.4 13.25 8.1 12.47 3.21 19.55 7.71 19.55 18.52v.12c0 12.22-9.4 19.16-22.65 19.16 -9.14 0-18.53-3.22-25.99-9.78v0Zm57.11-52.75h25.21c14.66 0 23.67 8.74 23.67 21.35v.12c0 14.27-11.07 21.74-24.96 21.74h-10.3v18.52H57.73V66.22v0Zm24.31 31.13c6.81 0 10.8-4.12 10.8-9.4v-.13c0-6.05-4.25-9.4-11.07-9.4H71.24v18.91h10.8v0Zm43.73-31.52h12.47l26.5 62.13H150.6l-5.67-13.9h-26.12l-5.67 13.89H99.37l26.37-62.14v0Zm14.27 36.27l-8.24-20.07 -8.24 20.06h16.46v0Zm31.13-35.9h28.17c7.84 0 13.89 2.18 18.01 6.3 3.47 3.47 5.27 8.23 5.27 14.15v.12c0 9.9-5.41 16.2-13.26 19.16l15.05 21.99H208.6l-13.26-19.69h-10.68v19.68h-13.64V66.18h.12Zm27.27 29.97c6.56 0 10.42-3.48 10.42-8.75v-.13c0-5.79-4.12-8.88-10.68-8.88h-13.51v17.75h13.76v0Zm96.35-29.98h22.38c13.63 0 22.89 6.94 22.89 18.91v.12c0 12.99-11.2 19.68-24.06 19.68h-16.6v23.02h-4.64V66.19v0Zm21.48 34.47c11.44 0 19.16-6.05 19.16-15.18v-.13c0-9.78-7.59-14.93-18.66-14.93h-17.5v30.23h16.98v0Zm97.25 18.26l2.95-3.48c6.81 6.3 12.99 9.13 22.12 9.13 9.26 0 15.56-5.15 15.56-12.23v-.13c0-6.57-3.48-10.3-17.5-13.13 -14.8-2.96-20.85-7.98-20.85-17.37v-.13c0-9.14 8.36-16.21 19.81-16.21 9 0 14.92 2.44 21.09 7.46l-2.96 3.6c-5.79-5.02-11.58-6.95-18.4-6.95 -9.14 0-15.06 5.14-15.06 11.57v.12c0 6.56 3.34 10.54 18.01 13.5 14.27 2.95 20.32 7.97 20.32 16.98v.12c0 9.9-8.5 16.85-20.46 16.85 -9.78 0-17.37-3.22-24.7-9.78v0Zm71.65-48.5H463.7v-4.25h47.59v4.24H489.8v57.5h-4.64V70.42v0ZM245.52 92.18l21.35-25.99h16.59l-25.09 29.33 26.88 32.41h-17.5l-22.26-27.66v27.52h-13.51V66.04h13.5v26.11 0Z"/><path fill="#FA6423" d="M399.43 52.22c-6.82 5.14-8.24 14.27-8.37 20.45C380.25 60.06 411.12 23.14 376 .37c21.74 28.17-31.01 55.95-31.01 97.51 0 16.33 10.16 30.61 32.54 35.63 21.86-4.64 32.8-19.3 32.8-35.64 -.13-24.32-15.31-32.42-10.94-45.67v0Zm-21.87 67.92c-11.97 0-21.62-9.65-21.62-21.62s9.64-21.62 21.61-21.62c11.96 0 21.61 9.64 21.61 21.61 0 11.96-9.78 21.61-21.62 21.61v0Z"/></svg>