<svg viewBox="0 0 256 256" xmlns="http://www.w3.org/2000/svg"><path fill="#4295C2" d="M60.04 162.47c11.41.06 20.89-4.34 29.09-12.13 21.01-19.96 42.1-39.84 63.22-59.69 22.6-21.25 55.5-23.62 80.19-5.87 27.73 19.93 31.65 58.66 7.41 82.64 -24.66 24.38-50.28 47.78-75.5 71.6 -3.1 2.92-6.11 5.97-9.41 8.66 -20.4 16.59-51.91 6.95-57.96-17.87 -3.02-12.37.67-23.03 9.88-31.74 17.65-16.72 35.35-33.38 53.03-50.06 8.06-7.61 15.96-15.41 24.3-22.71 2.36-2.07 9.36-7.7 15.75-1.32 6.38 6.38 2.84 11.71-.38 14.74 -12.73 11.99-25.43 24-38.15 36 -12.72 11.99-25.47 23.96-38.18 35.97 -7.23 6.82-8.14 14.48-2.54 20.55 5.73 6.21 15.27 6.26 22.1-.16 26.71-25.13 53.44-50.24 80-75.53 11.38-10.84 15.03-24.11 9.17-38.88 -5.92-14.9-17.78-22.44-33.55-23.69 -12.34-.99-22.75 3.46-31.69 11.94 -21.12 20.05-42.31 40.04-63.56 59.97 -24.21 22.7-60.73 23.38-84.82 1.68 -23.44-21.11-25.1-56.54-2.62-78.62C43.09 61.16 71.07 35.07 99.09 9.06c10.18-9.46 22.74-11.4 35.83-6.82 12.33 4.31 20.23 13.04 22.32 26.16 1.82 11.42-2.42 20.86-10.72 28.67 -19.57 18.41-39.1 36.86-58.65 55.29 -5.49 5.16-10.9 10.41-16.5 15.45 -4.43 3.97-10.67 3.96-14.74.29 -4.61-4.17-4.33-10.35.84-15.25 16.1-15.25 32.26-30.44 48.4-45.65 8.27-7.81 16.55-15.6 24.8-23.42 6.78-6.44 7.64-13.73 2.36-19.41 -5.47-5.88-14.48-5.84-20.96.27C86 49.21 59.97 73.81 33.97 98.46c-12.47 11.81-16.05 26.25-10.26 40.56 5.67 14.01 20.05 23.27 36.13 23.25"/></svg>