<svg viewBox="0 0 256 256" xmlns="http://www.w3.org/2000/svg"><path fill="#1ED760" d="M127.99 0c-70.7 0-128 57.3-128 128 0 70.69 57.3 127.99 127.99 127.99s128-57.31 128-128 -57.31-128-128.01-128l0-.01Zm58.69 184.61c-2.3 3.76-7.22 4.95-10.98 2.64 -30.06-18.36-67.89-22.52-112.45-12.34 -4.3.97-8.58-1.72-9.56-6.01 -.99-4.3 1.69-8.58 6-9.56 48.75-11.14 90.58-6.35 124.32 14.27 3.76 2.3 4.95 7.21 2.64 10.97v0Zm15.66-34.86c-2.89 4.69-9.04 6.17-13.73 3.28 -34.41-21.15-86.86-27.28-127.55-14.92 -5.28 1.59-10.86-1.39-12.46-6.65 -1.59-5.28 1.38-10.85 6.65-12.45 46.48-14.11 104.27-7.28 143.78 17 4.69 2.88 6.17 9.03 3.28 13.71v-.01Zm1.34-36.3C162.42 88.94 94.36 86.69 54.97 98.64c-6.33 1.91-13.02-1.66-14.94-7.98 -1.92-6.33 1.65-13.02 7.98-14.94 45.21-13.73 120.37-11.08 167.87 17.12 5.7 3.37 7.56 10.72 4.18 16.4 -3.37 5.68-10.73 7.56-16.41 4.18h-.01Z"/></svg>