<svg viewBox="0 0 512 228" xmlns="http://www.w3.org/2000/svg"><defs><linearGradient id="a" x1="57.661%" x2="57.661%" y1="2.046%" y2="94.438%"><stop offset="0%" stop-color="#97D9F6"/><stop offset="92.0245%" stop-color="#0F80CC"/><stop offset="100%" stop-color="#0F80CC"/></linearGradient></defs><path fill="#003B57" d="M194.51 112.04c-6.83 0-12.37 2.01-16.62 6.05 -4.26 4.03-6.41 9.33-6.41 15.82 0 3.36.53 6.42 1.59 9.23 1.05 2.81 2.69 5.42 4.9 7.77 2.2 2.35 6.62 5.56 13.21 9.63 8.08 4.93 13.37 8.93 15.91 12.06 2.54 3.12 3.8 6.39 3.8 9.81 0 4.57-1.51 8.21-4.6 10.96 -3.1 2.74-7.24 4.11-12.38 4.11 -5.42 0-10.14-1.91-14.19-5.71 -4.06-3.8-6.1-8.83-6.15-15.12h-2.52v22.85h2.51c.76-2.17 1.83-3.28 3.22-3.28 .67 0 2.24.46 4.68 1.32 5.94 2.11 10.83 3.13 14.67 3.13 6.61 0 12.26-2.32 16.97-7.03 4.69-4.71 7.07-10.39 7.07-17.02 0-5.15-1.57-9.72-4.65-13.71 -3.08-4-9.06-8.64-17.99-13.97 -7.69-4.62-12.68-8.39-14.99-11.32 -2.31-2.93-3.5-6.17-3.5-9.73 0-3.85 1.41-6.94 4.19-9.24 2.78-2.31 6.43-3.45 11-3.45 5.14 0 9.42 1.52 12.81 4.59 3.38 3.07 5.34 7.33 5.92 12.81h2.51v-19.81h-2.35c-.29 1-.56 1.65-.8 1.94 -.24.28-.7.44-1.38.44 -.82 0-2.27-.35-4.34-1.02 -4.42-1.49-8.5-2.26-12.25-2.26v0Zm82.34 0c-8.32 0-15.86 1.95-22.68 5.87 -6.83 3.91-12.24 9.34-16.23 16.26 -3.99 6.91-5.97 14.26-5.97 22.09 0 10.52 3.44 19.89 10.38 28.11 6.94 8.21 15.26 13.32 24.92 15.29 2.2 1.15 5.36 4.12 9.5 8.92 4.66 5.42 8.6 9.33 11.84 11.66 3.23 2.33 6.73 4.04 10.43 5.17 3.69 1.12 7.69 1.67 12.02 1.67 5.23 0 9.92-.92 14.05-2.79l-.93-2.3c-2.4.86-4.96 1.28-7.65 1.28 -3.66 0-7.35-1.21-11.05-3.63 -3.7-2.43-8.32-7.06-13.84-13.88 -2.6-3.28-4.39-5.34-5.4-6.15 10.56-2.07 19.25-7.19 26.03-15.39 6.77-8.2 10.16-17.55 10.16-28.03 0-12.45-4.43-22.9-13.22-31.43 -8.8-8.53-19.62-12.82-32.45-12.82v0Zm51.4 0l.13 2.69c5.53 0 8.63 1.63 9.32 4.9 .25 1.17.37 3.33.39 6.45l-.05 59.62c-.05 4.45-.69 7.29-1.91 8.53 -1.23 1.22-3.29 1.99-6.28 2.29l-.14 2.69h55.16l1.41-13.53h-2.52c-.72 3.68-2.37 6.32-5 7.82 -2.64 1.51-7.29 2.25-14.02 2.25h-5.22c-6.05 0-9.56-2.19-10.48-6.59 -.2-.88-.26-1.81-.27-2.83l.22-60.29c-.01-4.45.56-7.43 1.72-8.89 1.17-1.46 3.29-2.27 6.36-2.48l-.14-2.7h-28.78 -.01Zm-50.52 3.27c9.37 0 17.02 3.69 22.93 11.13 5.91 7.44 8.83 17.65 8.83 30.58 0 12.24-2.98 22.05-8.93 29.43 -5.96 7.37-13.89 11.04-23.74 11.04 -9.47 0-17.14-3.79-23.03-11.41 -5.89-7.62-8.8-17.51-8.8-29.66 0-12.5 2.94-22.5 8.88-29.97 5.93-7.47 13.87-11.19 23.82-11.19v0Zm126.85 12.81c-1.35 0-2.38.45-3.14 1.37 -.79.91-1.03 2.01-.76 3.35 .26 1.3.99 2.44 2.16 3.4 1.15.95 2.41 1.45 3.75 1.45 1.3 0 2.29-.5 3-1.46 .71-.97.92-2.11.66-3.41 -.28-1.35-.99-2.45-2.08-3.36 -1.11-.92-2.33-1.38-3.63-1.38v0Zm36.37 9.14c-2.29 8.79-7.25 13.55-14.86 14.32l.08 2.51h8.88l-.18 29.79c.01 5.09.16 8.48.53 10.2 .87 4.13 3.57 6.23 8.08 6.23 6.53 0 13.38-3.98 20.55-11.94l-2.17-1.86c-5.18 5.23-9.76 7.86-13.75 7.86 -2.46 0-3.98-1.42-4.56-4.2 -.16-.68-.23-1.47-.23-2.39l.08-33.73h13.56l-.14-4.03h-13.4V137.2h-2.57 -.01Zm52.46 11.22c-7.59 0-13.77 3.68-18.57 11 -4.78 7.33-6.26 15.45-4.38 24.39 1.1 5.23 3.3 9.29 6.67 12.15 3.36 2.85 7.62 4.28 12.72 4.28 4.74 0 11.36-1.21 14.14-3.63 2.78-2.43 5.36-6.35 7.73-11.72l-1.91-1.99c-3.79 6.96-11.43 10.47-17.2 10.47 -7.93 0-12.78-4.35-14.59-13 -.24-1.11-.42-2.29-.54-3.54 9.42-1.5 16.57-4.14 21.39-7.96 4.81-3.83 9.65-7.88 8.75-12.16 -.54-2.55-1.86-4.55-3.89-6.06 -2.06-1.52-7.41-2.3-10.39-2.3v0Zm-82.97.3l-16.36 3.75v2.91l5.65-.71c2.74 0 4.35 1.24 4.86 3.71 .17.82.27 1.98.3 3.44l-.18 26.74c-.05 3.7-.46 5.85-1.29 6.49 -.84.64-3.03.97-6.59.97l-.09 2.51h25.94l-.05-2.52c-3.61 0-5.95-.29-6.99-.84 -1.03-.56-1.73-1.56-2.04-3.1 -.24-1.11-.34-3.02-.36-5.66l.08-37.75h-2.97 -.01Zm78.8 4.95c1.57 0 3.1.6 4.64 1.81 1.51 1.19 2.43 2.53 2.74 3.97 1.47 7.1-4.83 12.02-19.01 14.76 -.41-5.19.49-9.89 2.78-14.15 2.27-4.25 5.23-6.41 8.83-6.41v0Z"/><path fill="#0F80CC" d="M157.88 9.95H17.14C7.7 9.95-.01 17.66-.01 27.1v155.2c0 9.43 7.71 17.14 17.14 17.14h92.69c-1.06-46.13 14.69-135.63 48.04-189.51v0Z"/><path fill="url(#a)" d="M152.77 14.95H17.14c-6.7 0-12.15 5.44-12.15 12.14v143.88C35.7 159.18 81.8 149 113.68 149.47c6.4-33.5 25.23-99.14 39.07-134.54v0Z"/><path fill="#003B57" d="M190.71 4.87c-9.64-8.6-21.31-5.15-32.83 5.07 -1.71 1.51-3.42 3.2-5.12 5 -19.71 20.9-38 59.62-43.68 89.18 2.21 4.48 3.94 10.21 5.08 14.59 .29 1.12.55 2.17.76 3.07 .5 2.12.76 3.49.76 3.49s-.18-.67-.91-2.78c-.14-.41-.3-.85-.48-1.37 -.08-.22-.19-.48-.31-.76 -1.29-2.99-4.85-9.3-6.41-12.04 -1.34 3.94-2.53 7.64-3.52 10.98 4.51 8.26 7.26 22.42 7.26 22.42s-.24-.92-1.38-4.13c-1.01-2.84-6.03-11.63-7.22-13.69 -2.04 7.5-2.85 12.57-2.12 13.81 1.41 2.39 2.76 6.51 3.94 11.08 2.67 10.28 4.53 22.79 4.53 22.79s.06.82.16 2.1c-.38 8.63-.15 17.58.51 25.67 .88 10.7 2.55 19.91 4.67 24.83l1.44-.79c-3.13-9.71-4.39-22.42-3.84-37.08 .83-22.42 5.99-49.44 15.52-77.61 16.09-42.53 38.43-76.65 58.87-92.94 -18.64 16.82-43.86 71.29-51.4 91.46 -8.46 22.58-14.45 43.78-18.06 64.09 6.22-19.04 26.36-27.23 26.36-27.23s9.87-12.19 21.42-29.59c-6.92 1.57-18.27 4.27-22.08 5.87 -5.61 2.35-7.13 3.15-7.13 3.15s18.17-11.07 33.76-16.08C190.7 73.66 214.05 25.69 190.53 4.7"/></svg>