<svg viewBox="0 0 256 256" xmlns="http://www.w3.org/2000/svg"><g fill="#2E3B4E"><path d="M212.65 0H42.66C19.09 0-.01 19.1-.01 42.66v169.98c0 23.56 19.1 42.66 42.66 42.66h169.98c23.56 0 42.66-19.11 42.66-42.67V42.64c0-23.57-19.1-42.67-42.67-42.67v0Zm-3.75 195.44c0 7.43-6.03 13.46-13.47 13.46H59.89c-7.44 0-13.47-6.03-13.47-13.47V59.89c0-7.44 6.02-13.47 13.46-13.47h135.53c7.43 0 13.46 6.02 13.46 13.46v135.53 0Z"/><path d="M100.56 162.47c-4.28 0-7.73-3.49-7.73-7.77v-54.1c0-4.29 3.45-7.77 7.72-7.77h54.18c4.28 0 7.72 3.48 7.72 7.76v54.09c0 4.28-3.45 7.76-7.73 7.76h-54.19v0Z"/></g></svg>