<svg viewBox="0 0 256 257" xmlns="http://www.w3.org/2000/svg"><path fill="#FF364E" d="M177.24 78.76l61.36 30.97c5.22 2.61 9.61 6.63 12.68 11.59 2.63 4.25 4.2 9.07 4.6 14.03l.1 2.49v70.89c0 12.53-4.98 24.55-13.84 33.41 -8.23 8.22-19.18 13.11-30.74 13.77l-2.68.07H.12l78.68-78.79h98.4V78.71Zm78.6-78.77l-78.61 78.76H78.82v98.47l-61.53-30.89c-5.21-2.63-9.59-6.66-12.65-11.63 -2.63-4.26-4.19-9.07-4.58-14.04l-.1-2.5V47.27c-.01-6.22 1.2-12.37 3.57-18.11C5.9 23.41 9.38 18.19 13.77 13.8c4.38-4.4 9.6-7.89 15.34-10.27 4.78-1.99 9.85-3.17 15-3.51l3.09-.11h208.59Z"/></svg>