<svg viewBox="0 0 256 228" xmlns="http://www.w3.org/2000/svg"><path fill="#0090F9" d="M231.34 0c13.61 0 24.64 10.89 24.65 24.33 -.01 0-.01 178.42-.01 178.42 0 13.43-11.04 24.33-24.65 24.33H24.63c-13.62 0-24.66-10.9-24.66-24.34V24.31C-.03 10.86 11-.03 24.62-.03h206.69Z"/><path fill="#FFF" d="M195.95 136.49c-9.51 0-17.71 5.69-21.37 13.85h-29.77l-11.7-36.97 11.85-36.75h29.56c3.64 8.21 11.86 13.95 21.41 13.95 12.91 0 23.42-10.51 23.42-23.43s-10.51-23.43-23.43-23.43c-9.1 0-16.99 5.21-20.87 12.8h-37.32c-4.31 0-8.14 2.74-9.52 6.82l-13.54 40.06H81.51c-3.59-8.36-11.89-14.22-21.54-14.22 -12.92 0-23.43 10.5-23.43 23.42 0 12.91 10.5 23.41 23.42 23.41 8.99 0 16.8-5.1 20.73-12.55h33.8l13.53 40.06c1.37 4.08 5.2 6.82 9.5 6.82h37.41c3.85 7.65 11.78 12.91 20.91 12.91 12.91 0 23.42-10.51 23.42-23.43s-10.51-23.42-23.43-23.42v0 0Zm0-80.2c5.99-.001 10.87 4.87 10.87 10.87 0 5.99-4.88 10.87-10.88 10.87 -6 0-10.88-4.88-10.88-10.88 0-6 4.87-10.88 10.87-10.88v0 0ZM60.03 123.51c-6 0-10.88-4.88-10.88-10.88 0-6 4.87-10.88 10.87-10.88 5.99 0 10.87 4.87 10.87 10.87 0 5.99-4.88 10.87-10.88 10.87v0 0Zm135.91 47.25c-6 0-10.88-4.88-10.88-10.88 0-6 4.87-10.88 10.87-10.88 5.99 0 10.87 4.87 10.87 10.87 0 5.99-4.88 10.87-10.88 10.87v0 0Z"/></svg>