<svg viewBox="0 0 256 189" xmlns="http://www.w3.org/2000/svg"><defs><linearGradient id="a" x1="50%" x2="50%" y1="82.799%" y2="-5.782%"><stop offset="0%" stop-color="#2684FF"/><stop offset="82%" stop-color="#0052CC"/></linearGradient></defs><path fill="url(#a)" d="M128 68.56a59.86 59.86 0 1 0 0 119.72 59.86 59.86 0 1 0 0-119.73Z"/><path fill="#2684FF" d="M1.61 59.25l32.18 38.11c1.18 1.39 2.89 2.26 4.72 2.39 1.83.13 3.64-.47 5.02-1.68 52.11-46.74 116.65-46.74 168.91 0 1.38 1.2 3.19 1.81 5.02 1.67 1.83-.14 3.53-1 4.72-2.4l32.18-38.12c2.43-2.89 2.07-7.2-.79-9.65C178.08-16.59 78-16.59 2.38 49.57c-2.87 2.45-3.23 6.75-.79 9.64Z"/></svg>