<svg viewBox="0 0 256 259" xmlns="http://www.w3.org/2000/svg"><path fill="#1A1918" d="M127.77 0C60.41 0 5.23 52.41-.01 119.01l68.72 28.67c5.82-4.03 12.86-6.37 20.42-6.37 .68 0 1.35.01 2.02.05l30.56-44.71v-.63c0-26.91 21.69-48.8 48.35-48.8s48.35 21.89 48.35 48.79 -21.7 48.8-48.36 48.8c-.37 0-.73-.01-1.1-.02l-43.6 31.37c.02.58.04 1.16.04 1.73 0 20.2-16.29 36.63-36.3 36.63 -17.57 0-32.27-12.66-35.59-29.42L4.34 164.59c15.22 54.31 64.67 94.13 123.36 94.13 70.81 0 128.22-57.94 128.22-129.4 0-71.47-57.41-129.4-128.23-129.4ZM80.34 196.33l-15.75-6.57c2.78 5.86 7.62 10.77 14.03 13.46 13.85 5.83 29.83-.81 35.61-14.8 2.79-6.78 2.81-14.25.04-21.04 -2.77-6.8-8-12.09-14.71-14.91 -6.68-2.8-13.82-2.7-20.09-.31l16.27 6.79c10.22 4.29 15.05 16.14 10.79 26.45 -4.26 10.31-16 15.19-26.22 10.89Zm121.95-100.3c0-17.93-14.46-32.53-32.22-32.53 -17.77 0-32.23 14.59-32.23 32.52 0 17.92 14.45 32.51 32.22 32.51 17.75 0 32.21-14.59 32.21-32.52Zm-56.38-.06c0-13.49 10.84-24.43 24.19-24.43 13.36 0 24.2 10.93 24.2 24.42 0 13.48-10.85 24.42-24.21 24.42 -13.36 0-24.2-10.94-24.2-24.43Z"/></svg>