<svg viewBox="0 0 512 107" xmlns="http://www.w3.org/2000/svg"><path d="M104.57 75.01l-28.89 31.64H22.52L51.12 75h53.44Zm94.92-50.29c19.47 0 26.2 12.39 26.68 21.89h-17.01c-.38-4.08-3.5-7.79-9.8-7.79 -5.71 0-8.94 2.73-8.94 6.33 0 10.89 35.99 0 35.99 26.61 0 11.64-9.96 20.81-27.55 20.81 -20.45-.06-27.39-10.47-28.25-22.59h17.86c.26 4.34 3.49 8.42 10.81 8.42 6.72 0 10.16-2.37 10.16-5.96 0-10.9-36.11-.65-36.11-26.35 0-11.76 10.06-21.41 26.09-21.41Zm230.17 0c20.23 0 29.8 14.21 31.04 25.27h-18.14c-1.35-5.59-6.57-9.66-13.03-9.66 -9.42 0-14.91 7.4-14.91 18.29 0 10.89 5.48 18.29 14.9 18.29 6.45 0 11.67-4.08 13.02-9.66h18.13c-1.24 11-10.82 25.27-31.05 25.27 -18.89 0-32.66-14.6-32.66-33.92s13.77-33.92 32.65-33.92Zm-137.53-.06c19.26 0 32.28 14.59 32.28 33.8 0 2.84-.27 5.2-.27 5.2h-47.19c1.23 8.9 6.94 13.73 15.76 13.73 5.32 0 10.43-2.37 12.53-7.09h17.75c-3.88 13.14-15.77 22.16-30.78 22.16 -19.27 0-32.77-14.12-32.77-34.02 0-19.21 13.39-33.81 32.65-33.81Zm-42.62-13.58v15.07h12.96v14.32H249.5v50.54h-17.65V11.05h17.64ZM366.53 24.7c15.65 0 23.94 10.4 23.94 25.86v40.45h-17.65V52.48c0-7.57-3.23-12.78-11.03-12.78 -8.56 0-13.29 5.47-13.29 14.11v37.13h-17.65V26.12h16.3v7.94c2.95-5.59 9.68-9.4 19.36-9.4Zm118.36 1.44v64.87h-17.65V26.13h17.64Zm27.06-22.11V91H494.3V4.02h17.64ZM138.61 37.46L109.73 69.1H-.07L28.8 37.45h109.79Zm153.27 1.33c-8.02 0-13.24 4.82-14.75 12.23h29.53c-1.24-7.3-6.57-12.24-14.8-12.24ZM116.07-.06L87.31 31.58H34.02L62.81-.07h53.24ZM475.99-.07c6.18 0 10.65 4.45 10.65 10.62 0 6.17-4.47 10.51-10.66 10.51 -6.14 0-10.66-4.3-10.66-10.52 0-6.18 4.46-10.63 10.65-10.63Z"/></svg>