<svg viewBox="0 0 512 83" xmlns="http://www.w3.org/2000/svg"><path fill="#77E8B9" d="M82.37 46.07V60.6H65.41c-1.43-.06-2.82-.41-4.1-1.03l-.43-.22 -4.12-2.39c-1.21-.63-2.63-.67-3.86-.13l-.27.12 -5.28 3.08c-.47.23-.77.7-.77 1.22 0 .46.23.89.61 1.14l.14.08 11.09 6.5c1.24.67 2.62 1.08 4.03 1.2l.47.02H82.3v9.69c-.02 1.25-.98 2.28-2.21 2.39l-.21 0H2.34c-1.25-.01-2.27-.95-2.41-2.16l-.02-.21v-9.7h19.33c1.41-.06 2.8-.41 4.08-1.03l.42-.22L60.8 47.17c1.25-.67 2.63-1.08 4.04-1.21l.47-.04h16.95Zm0-24.28v14.53H63.03c-1.42.06-2.81.41-4.09 1.02l-.43.21 -37.07 21.78c-1.26.66-2.64 1.07-4.05 1.2l-.48.03H-.05V46.02h19.33c1.41-.07 2.8-.42 4.08-1.03l.42-.22 37.06-21.79c1.25-.67 2.63-1.08 4.04-1.21l.47-.04H82.3ZM79.95-.02c1.24 0 2.27.94 2.4 2.16l.01.2v9.69H63.02c-1.42.05-2.81.4-4.09 1.02l-.43.21 -37.07 21.77c-1.26.67-2.63 1.08-4.05 1.2l-.48.02H-.06V21.71h16.95c1.42.06 2.81.41 4.09 1.02l.42.21 4.11 2.4c1.2.62 2.62.66 3.85.12l.26-.13 5.27-3.11c.45-.24.74-.71.74-1.23 0-.46-.23-.89-.61-1.14l-11.24-6.61c-1.26-.67-2.63-1.08-4.04-1.21l-.48-.04H-.13v-9.7c0-1.27.97-2.31 2.21-2.41l.19-.01H79.8Z"/><path d="M148.87 8.47c-1.47-1.09-3.19-1.79-4.99-2.06 -2.23-.38-4.49-.56-6.75-.54h-12.36c-2.3-.02-4.6.16-6.87.53 -2.03.32-3.98 1.02-5.74 2.07 -1.75 1.08-3.21 2.55-4.29 4.29 -1.3 2.18-2.14 4.6-2.5 7.12l-2.01 11.55c-.55 2.42-.6 4.93-.14 7.37 .36 1.73 1.29 3.29 2.63 4.44 1.47 1.15 3.22 1.91 5.07 2.21 2.06.37 4.15.57 6.25.6l12.55 0 -2.12 12.08h-11.88l1.2-6.95 -18.51 2.42 -.75 4.42c-.52 2.4-.58 4.88-.17 7.31 .32 1.72 1.21 3.28 2.52 4.44 1.42 1.15 3.13 1.91 4.95 2.19 2.04.35 4.11.54 6.19.57l14.92 0c2.41.01 4.82-.18 7.2-.58 2.04-.35 3.99-1.1 5.75-2.2 1.74-1.14 3.19-2.68 4.24-4.48 1.27-2.28 2.13-4.76 2.52-7.34l2.14-12.36c.52-2.36.52-4.79 0-7.14 -.49-1.71-1.53-3.2-2.97-4.23 -1.57-1.09-3.36-1.8-5.25-2.06 -2.35-.38-4.72-.56-7.09-.54h-11.66l1.96-11.37h10.66l-1.02 6.1 18.17-2.3 .74-4.33c.54-2.34.54-4.78 0-7.12 -.4-1.58-1.27-2.98-2.49-4.04l-.29-.24Zm178.92-1.84L319.2 55.9h11.14l8.56-49.28h18.97l-8.93 51.49c-.39 2.57-1.23 5.05-2.49 7.33 -1.05 1.79-2.5 3.31-4.25 4.44 -1.81 1.1-3.82 1.85-5.91 2.18 -2.16.36-4.34.55-6.52.58l-.94 0H314.7c-2.4.02-4.8-.18-7.16-.6 -1.87-.29-3.64-1.04-5.14-2.19 -1.36-1.15-2.3-2.71-2.65-4.45 -.42-2.23-.42-4.51-.02-6.73l.12-.61 8.95-51.5h18.9Zm-121.24 0l-2.9 16.54h-14.74l-8.49 48.7H161.5l8.48-48.71h-14.74l2.88-16.55h48.39Zm24.32 0L219.5 71.88h-18.94l11.38-65.26h18.91Zm23.35 0l10.11 25.86 18.36-25.87h17.28L288.6 71.87h-18.98l5.97-34.12 -16.14 23.21 -8.54-22.75 -5.87 33.64h-16.37l11.36-65.26h14.12Zm131.45 0l-8.49 48.7h20.31l-2.89 16.54h-39.26L366.7 6.61h18.93Zm44.42 0L421.5 55.9h11.13l8.58-49.28h18.98l-8.96 51.49c-.39 2.57-1.24 5.05-2.5 7.33 -1.04 1.8-2.5 3.32-4.25 4.44 -1.8 1.11-3.81 1.85-5.89 2.18 -2.16.36-4.35.55-6.54.58l-15.06 0c-2.4.02-4.8-.18-7.16-.6 -1.87-.29-3.64-1.04-5.14-2.19 -1.37-1.14-2.3-2.71-2.65-4.45 -.42-2.23-.42-4.51-.02-6.73l.12-.61 8.93-51.5H430Zm66.98-.76c2.25-.02 4.51.15 6.74.53 1.81.26 3.53.97 5.01 2.05 1.35 1.07 2.32 2.56 2.74 4.24 .49 2.16.53 4.41.11 6.59l-.12.54 -.76 4.32 -18.18 2.29 1.02-6.11h-10.69l-1.97 11.36h11.65c2.37-.02 4.74.16 7.08.53 1.88.26 3.68.96 5.24 2.05 1.43 1.03 2.48 2.52 2.96 4.22 .49 2.16.53 4.41.11 6.59l-.12.54 -2.15 12.35c-.4 2.57-1.25 5.05-2.52 7.33 -1.05 1.8-2.5 3.33-4.25 4.47 -1.76 1.1-3.72 1.84-5.77 2.19 -2.08.35-4.19.54-6.3.57l-.91 0h-14.04c-2.38.02-4.75-.17-7.09-.58 -1.83-.29-3.54-1.05-4.97-2.2 -1.32-1.16-2.2-2.73-2.52-4.45 -.39-2.23-.37-4.5.04-6.72l.12-.61 .74-4.43 18.5-2.43 -1.23 6.94h11.94l2.08-12.09h-11.65c-2.41.02-4.81-.18-7.17-.61 -1.86-.3-3.61-1.06-5.08-2.22 -1.35-1.16-2.27-2.72-2.64-4.45 -.42-2.24-.41-4.54.02-6.77l.12-.61 2-11.56c.34-2.52 1.17-4.94 2.45-7.13 1.07-1.75 2.54-3.23 4.29-4.3 1.76-1.05 3.7-1.76 5.72-2.08 1.94-.32 3.9-.5 5.87-.53l.98-.01h12.35Z"/></svg>