<svg viewBox="0 0 256 256" xmlns="http://www.w3.org/2000/svg"><path fill="#FFC600" d="M81.48 119.33v-17.97h174.51V-.02h-256v137.3H182.2v17.96H-.02v100.73h256V118.66H81.46v.64Zm48.76-93.04c7.05 0 12.83 5.77 12.83 12.83 0 7.05-5.78 12.83-12.84 12.83s-12.84-5.78-12.84-12.84c.64-7.06 6.41-12.84 12.83-12.84ZM75.7 65.42h113.56l-5.14 17.96H80.82l-5.14-17.97Zm54.53 164.25c-7.06-.001-12.84-5.78-12.84-12.84s5.77-12.84 12.83-12.84c7.05 0 12.83 5.77 12.83 12.83 0 7.05-5.78 12.83-12.84 12.83Zm-54.54-39.14l4.49-17.97h103.93l5.13 17.96H75.67Z"/></svg>