<svg viewBox="0 0 256 290" xmlns="http://www.w3.org/2000/svg"><path fill="#202A5A" d="M241.02 73.9L130.4 9.65 9.64 77.27v135.24l120.75 67.62 115.92-67.63V77.25v-5.8l-5.32 2.41Z"/><path fill="#2C448A" d="M9.66 77.28l120.75 67.62 115.92-67.63L130.4 9.64 9.64 77.26Z"/><path fill="#283A79" d="M246.33 71.48l-38.65 20.28 -.49 8.69 -76.8 44.43v135.24l115.92-67.63V71.44Z"/><path fill="#202A5A" d="M9.66 77.28v135.24l120.75 67.62V144.89L9.65 77.26Z"/><g fill="#3558A7"><path d="M0 212.52v-43.48l130.41 77.28v43.47L-.01 212.5Z"/><path d="M0 77.28v24.15l130.41 77.28v-24.16L-.01 77.26Z"/></g><path fill="#416FB5" d="M256 212.52v-24.16l-105.79-45.89 -19.81 12.07v23.66l64.24 28.49 -64.25 39.6v43.47l125.58-77.29Z"/><g fill="#477FC1"><path d="M194.65 206.73l-7.73-2.9 -56.52 32.84L9.64 169.04v-5.8l-9.67 5.79 130.41 77.28 64.24-39.61Z"/><path d="M56.99 86.94l73.41-43.48 77.28 48.3 38.64-20.29L130.39-.02 -.03 77.26l130.41 77.28 19.8-12.08 -93.23-55.55Z"/></g><path fill="#202A5A" d="M207.21 100.46l.48-8.7 -77.29-48.31 -73.42 43.47 8.21 4.83 65.2-38.65 76.8 47.33Z"/></svg>