<svg viewBox="0 0 512 315" xmlns="http://www.w3.org/2000/svg"><path fill="#333" d="M78.9 244.6c13.28-15.89 14.84-32.29 4.55-62.76 -6.51-19.27-17.32-34.12-9.38-46.09 8.46-12.76 26.43-.4 11.45 16.66l2.99 2.08c17.96 2.08 26.82-22.53 13.41-29.56 -35.42-18.49-66.41 17.05-52.73 58.19 5.85 17.44 14.06 35.93 7.42 50.64 -5.73 12.62-16.8 20.05-24.22 20.31 -15.5.78-5.21-34.77 12.62-43.62 1.56-.79 3.77-1.83 1.69-4.43 -22.01-2.48-34.9 7.68-42.32 21.87 -21.62 41.27 41.01 56.5 74.47 16.66Zm386.68-121.35c5.07 12.49 12.75 24.86 8.2 35.8 -3.78 9.37-8.73 13.28-14.2 14.19 -7.69 1.3-5.6-22.79 7.55-29.95 1.17-.66 2.86-3.78 1.3-5.6 -16.67-.92-26.04 7.03-31.12 17.57 -14.72 30.85 33.33 39.31 56.89 8.98 9.37-12.11 9.76-24.09.78-45.83 -5.73-13.81-14.46-24.09-8.99-33.21 5.85-9.64 19.92-1.31 9.37 11.58l2.34 1.3c13.67.78 19.26-17.45 8.85-22.01 -27.48-11.72-53.13 17.83-41.02 47.13ZM291.63 90.31c-9.51-7.56-36.2 5.07-43.75 23.82 -9.51 23.82-23.57 58.58-37.37 73.82 -14.59 16.01-16.02 3.64-14.59-5.6 3.38-21.75 24.6-72.13 36.19-86.33 -4.3-6.38-32.42-5.47-51.95 24.86 -7.3 11.45-23.96 49.6-42.45 79.68 -4.04 6.5-9.12 1.95-5.21-13.29 4.42-17.58 17.44-65.88 34.24-103.9 44-8.73 90.74-14.85 126.55-14.98 4.81-1.31 8.07-5.6 0-5.86 -30.86-1.05-77.21 2.6-120.57 8.07 8.33-16.67 17.31-29.95 26.43-35.55 -9.9-6.25-29.95-3.78-41.41 13.14 -5.08 7.55-10.16 16.66-14.98 26.56 -31.77 4.94-58.98 10.54-72.79 15.75 -14.33 5.46-12.76 22.78-4.04 19.52 18.09-6.78 42.57-13.81 69.78-20.06 -17.32 39.05-30.86 85.14-34.12 103.89 -8.08 45.56 20.18 45.3 33.98 27.34 14.97-19.66 46.21-88.8 51.03-96.09 1.43-2.48 3.38-1.18 2.34 1.04 -34.9 69.65-31.9 96.6-3.65 90.61 12.75-2.74 34.76-24.61 40.49-35.94 1.17-2.74 3.64-2.48 3.12-1.31 -22.14 57.41-50.26 103.89-69.14 118.47 -17.19 13.14-29.95-15.37 30.85-56.25 8.98-6.12 4.81-14.46-5.34-11.59 -31.38 4.94-121.22 33.46-160.67 60.8 -3 2.08-5.73 3.77-5.6 8.07 .13 2.47 4.42 1.56 6.5.26 51.03-30.6 92.83-42.58 140.74-52.6 .65.26 1.43.39 2.08.13 2.21-.53 2.08.65.65 1.56 -3.26 1.82-6.51 3.51-7.3 3.77 -32.29 12.62-51.82 40.49-44.92 54.68 5.85 12.23 37.49 7.81 52.46-.27 36.71-19.93 63.4-58.98 81.63-112.89 15.88-47.79 35.93-101.95 40.62-103.51Zm213.39 110.27c-59.77-7.82-188.66 2.6-245.56 17.7 -16.93 4.42-12.24 13.41-3.65 11.71 .13 0 3.77-.92 3.9-.92 46.74-9.12 160.14-17.06 226.28-4.43 7.94 1.43 31.76-22.4 19-24.09Zm-196.73-7.04c16.66-8.34 41.4-59.9 57.67-88.15 1.17-2.09 3.25-.4 2.08 1.04 -41.15 70.82-23.7 79.02-7.43 77.98 21.74-1.31 41.79-32.55 46.21-39.58 1.82-2.74 2.86-.53 1.82 1.43 -1.05 3.25-4.82 8.98-8.34 16.79 -4.95 11.06.26 15.36 4.55 17.31 6.77 3.25 25.25 1.17 28.12-10.16 -18.49-.4 25.77-87.63 30.33-92.97 -12.37-7.17-31.51.65-40.24 17.83 -18.62 36.84-34.25 66.53-44.01 67.05 -19.01 1.04 21.87-82.16 28.51-84.76 -4.04-5.86-29.95-3.39-44.4 19 -5.21 8.07-36.98 64.31-44.79 73.56 -13.81 16.4-14.85 2.34-10.94-14.07 1.3-5.6 3.51-12.76 6.37-20.71 9.11-20.58 18.87-27.09 24.86-33.73 40.23-44.66 63.27-80.86 54.16-95.05 -8.08-12.63-35.03-7.04-52.34 19 -31.9 47.78-61.33 113.27-65.1 143.21 -3.65 29.94 18.09 32.15 32.8 24.86Zm16.92-87.63c1.43-3.26 2.34-4.17 4.81-9.64v0c14.32-31.51 32.28-64.71 44.65-80.21 7.68-8.08 18.48 2.86-1.05 32.8 -11.46 17.7-24.48 33.98-38.67 48.3 0 0 0 0 0 .13 -3.65 4.03-6.91 7.42-8.34 9.37 -1.05 1.3-2.22 1.04-1.44-.79v0Z"/></svg>