<svg viewBox="0 0 256 245" xmlns="http://www.w3.org/2000/svg"><path d="M129.74 243.648c28-100.11 27.18-100.57 47.42-171.95l4.86 2.81c2.64 1.51 4.81.26 4.81-2.78V37.67c5.37-18.81 9.57-33.35 10.81-37.7h21.92l36.42 33.72 -23.93 20.67 18.09 19.56 -119.23 169.68c-.58.96-1.39.74-1.21-.001v0Zm13.02-215.79c1.08-.001 1.95.59 1.95 1.34v17.44c0 .72-.88 1.32-1.96 1.32h-29.44c-1.09 0-1.97-.6-1.97-1.34V29.16c0-.74.87-1.35 1.95-1.35h29.44l0 .01Zm36.35-19.32l-32.4 18.7c.37.57.6 1.23.6 1.95v17.45c0 .89-.36 1.71-.94 2.36l32.72 18.89c2.22 1.29 4.05.23 4.05-2.34V10.85c0-2.58-1.82-3.63-4.06-2.35Zm-70.37 38.1V29.17c0-.72.23-1.38.6-1.95L76.94 8.5c-2.23-1.28-4.06-.24-4.06 2.34v54.68c0 2.57 1.83 3.62 4.06 2.33l32.71-18.9c-.58-.66-.93-1.48-.93-2.37l-.01.01Zm16.3 196.992h1.2c-28-100.11-27.19-100.57-47.43-171.95l-4.87 2.81c-2.65 1.51-4.82.26-4.82-2.78V37.66C63.74 18.86 59.54 4.31 58.3-.04H36.38L-.05 33.68l23.91 20.67 -18.1 19.57 119.232 169.67Zm2.05-159.24c4.88 0 8.84-3.96 8.84-8.85s-3.96-8.85-8.85-8.85 -8.85 3.95-8.85 8.84c0 4.88 3.95 8.84 8.84 8.84Zm0 52.57c4.88 0 8.84-3.96 8.84-8.85s-3.96-8.85-8.85-8.85 -8.85 3.95-8.85 8.84c0 4.88 3.95 8.84 8.84 8.84Zm0 52.58c4.88 0 8.84-3.96 8.84-8.85s-3.96-8.85-8.85-8.85 -8.85 3.95-8.85 8.84c0 4.88 3.95 8.84 8.84 8.84Z"/></svg>