<svg viewBox="0 0 256 154" xmlns="http://www.w3.org/2000/svg"><path d="M178.9 2.85l-2.11-1.42v0C174.85.16 172.51-.3 170.24.15h-.08c-2.24.47-4.19 1.8-5.46 3.7L74.8 138.4v0c-1.27 1.91-1.72 4.25-1.28 6.5v0 .11 0c.47 2.22 1.8 4.16 3.7 5.41l2.1 1.38c1.92 1.27 4.28 1.73 6.54 1.27 2.26-.47 4.25-1.82 5.52-3.75L181.27 14.8v-.001c1.26-1.94 1.71-4.28 1.27-6.55 -.46-2.25-1.79-4.22-3.71-5.47Zm-1.46 9.44l-10.69 15.99 -8.8-5.82L168.63 6.5c.58-.89 1.5-1.51 2.54-1.71 1.04-.22 2.12-.01 3.01.58l2.1 1.41c.88.58 1.5 1.5 1.7 2.54 .2 1.02-.01 2.08-.59 2.94v-.01ZM51.1 118.16c-1.18 0-2.32-.4-3.24-1.13L1.99 80.79C.72 79.8-.02 78.28-.02 76.67c-.001-1.61.74-3.13 2-4.12l45.83-36.3c2.27-1.81 5.57-1.43 7.38.84 1.8 2.27 1.42 5.57-.85 7.38L13.7 76.65l40.59 32.08c1.76 1.38 2.45 3.72 1.72 5.84 -.73 2.11-2.73 3.53-4.96 3.54Zm153.81 0c-2.24-.01-4.23-1.43-4.96-3.55 -.73-2.12-.04-4.47 1.72-5.85l40.59-32.09 -40.64-32.22c-1.47-1.17-2.21-3.03-1.94-4.88 .27-1.86 1.51-3.43 3.25-4.12 1.74-.7 3.71-.41 5.18.76l45.83 36.33c1.26.98 2 2.5 2 4.11 0 1.6-.75 3.12-2.01 4.11l-45.84 36.18c-.92.74-2.06 1.15-3.24 1.16Z"/><path fill="#1C96D4" d="M114.1 45.03c2.86-7.87 5.22-10.2 13.09-13.1 -7.87-2.87-10.18-5.23-13.1-13.09 -2.87 7.86-5.23 10.19-13.1 13.09 7.87 2.89 10.19 5.22 13.09 13.08Z"/><path fill="#C61A41" d="M81.71 89.53c5-13.64 9.02-17.67 22.66-22.67 -13.64-5.01-17.67-9.03-22.67-22.67 -5.01 13.63-9.03 17.66-22.67 22.66 13.63 4.96 17.69 9.02 22.66 22.66Z"/><path fill="#EEB034" d="M170.24 110.49c3.62-9.9 6.56-12.8 16.41-16.42 -9.9-3.63-12.8-6.57-16.42-16.42 -3.63 9.89-6.57 12.8-16.42 16.41 9.85 3.61 12.79 6.56 16.41 16.41Z"/></svg>