<svg viewBox="0 0 512 62" xmlns="http://www.w3.org/2000/svg"><defs><linearGradient id="a" x1="55.117%" x2="63.68%" y1="58.679%" y2="39.597%"><stop offset="0%" stop-color="#FF9700"/><stop offset="53%" stop-color="#F48E00"/><stop offset="100%" stop-color="#D06F00"/></linearGradient></defs><path fill="#FFF" d="M498.97 7.4v9.11c0 .45.19.68.58.68h10.14v5.73h-10.73v19.01c0 2.18.36 3.72 1.09 4.6 .72.88 2.04 1.33 3.96 1.33 1.77 0 3.8-.4 6.07-1.2l1.6 5.05c-3.56 1.63-7.01 2.45-10.35 2.45 -3.65 0-6.29-.83-7.94-2.46 -1.66-1.64-2.48-4.2-2.48-7.69V23.59c0-.46-.25-.59-.58-.8 -1.15-.72-5.03-.84-5.03-.84v-4.96c2.61-.32 4.57-1.35 5.87-3.08 1.29-1.74 2.18-3.32 2.66-6.6h5.08ZM100.46 1.83c4.62-.001 9.11.85 13.48 2.56v12.59l-6.01-.55 -1-5.81c-.14-.71-.37-1.15-.69-1.34 -1.26-.76-3.32-1.13-6.19-1.13 -3.12 0-5.5.64-7.12 1.92 -1.63 1.28-2.45 3.06-2.45 5.34 0 1.02.21 1.95.63 2.8 .42.84.88 1.51 1.4 2.03 .51.51 1.3 1.02 2.37 1.53 1.06.51 1.97.89 2.71 1.14 .73.25 1.81.59 3.22 1.02 1.86.56 3.27 1.02 4.23 1.36 .95.34 2.21.93 3.77 1.77 1.55.84 2.73 1.72 3.53 2.66 .79.93 1.5 2.19 2.13 3.77 .62 1.58.93 3.37.93 5.37 0 5.21-1.76 9.06-5.28 11.54 -3.52 2.48-8.08 3.72-13.68 3.72 -2.94 0-5.87-.3-8.8-.88 -2.93-.59-5.09-1.21-6.48-1.87V39.04h5.97l1.36 6.31c.09.45.21.76.35.92 .14.15.42.31.83.47 2.41.68 4.72 1.02 6.93 1.02h.2v0c6.94 0 10.41-2.63 10.41-7.89 0-1.35-.26-2.51-.77-3.5 -.52-.99-1.32-1.81-2.41-2.46 -1.1-.65-2.12-1.17-3.08-1.54 -.96-.38-2.28-.8-3.97-1.25 -4.58-1.35-7.7-2.57-9.36-3.66 -3.6-2.37-5.4-6.03-5.4-10.97 0-4.9 1.66-8.59 5-11.08 3.33-2.5 7.68-3.74 13.06-3.74Zm323.5 14.68c9.87 0 14.81 5.61 14.81 16.83 0 1.38-.07 2.74-.21 4.06h-22.57c.18 3.41 1.01 5.99 2.51 7.73 1.48 1.74 3.86 2.61 7.11 2.61 2.93 0 6.36-.83 10.27-2.46l2.25 5.59c-4.28 2.18-8.76 3.28-13.42 3.31 -11.52-.03-17.28-6.4-17.28-19.13 0-6.06 1.53-10.67 4.6-13.83 3.07-3.17 7.03-4.75 11.88-4.75Zm-101.23 0c9.87 0 14.81 5.61 14.81 16.83 0 1.38-.07 2.74-.21 4.06h-22.57c.18 3.41 1.01 5.99 2.5 7.73 1.49 1.74 3.86 2.61 7.11 2.61 2.93 0 6.36-.83 10.27-2.46l2.25 5.59c-4.29 2.18-8.76 3.28-13.42 3.31 -11.52-.03-17.28-6.4-17.28-19.13 0-6.06 1.53-10.67 4.6-13.83 3.07-3.17 7.03-4.75 11.88-4.75ZM172.14.56v19.7c3.96-2.51 7.77-3.76 11.43-3.76h.1v0c4.09 0 7.34 1.43 9.74 4.3 2.4 2.86 3.6 7.3 3.6 13.31 0 6.89-1.33 11.96-3.97 15.21 -2.65 3.24-6.29 4.86-10.93 4.86 -4.19 0-7.68-1.38-10.45-4.14h-.28l-.42 3.27h-7.76c.59-3.35.88-6.6.88-9.74V7.78c0-.8-.3-1.29-.89-1.47l-4-1.34 .68-4.48h12.18Zm-40.77 16.62v23.35c0 2.52.31 4.35.95 5.49 .63 1.13 1.87 1.7 3.72 1.7 3.3 0 6.54-1.63 9.73-4.89V24.08c0-.57-.06-.95-.18-1.13 -.12-.19-.44-.32-.96-.42l-3.35-.86 .61-4.55h11.91v29.8c0 .84.29 1.3.88 1.39l3.65.47v4.47h-11.07l-.62-4.27 -.21-.07c-4.33 3.46-8.69 5.19-13.08 5.19 -3.69 0-6.29-.95-7.81-2.84 -1.52-1.89-2.28-4.92-2.28-9.09V24c0-.57-.07-.95-.19-1.13 -.13-.19-.44-.32-.94-.42l-3.59-.86 .64-4.55h12.08Zm156.89-.69c3.68 0 6.32 1.02 7.9 3.07 1.58 2.04 2.37 5 2.37 8.87v18.54c0 .56.05.93.17 1.09 .11.15.43.26.95.3l3.82.47v4.47h-17.76v-4.41l3.65-.48c.7-.09 1.06-.5 1.09-1.24l0-16.63c0-2.37-.3-4.19-.88-5.45 -.59-1.27-1.76-1.9-3.54-1.9 -2.85 0-5.71.93-8.58 2.8 .18 1.06.27 2.37.27 3.92v17c0 .56.05.93.17 1.09 .11.15.42.26.92.3l3.24.47v4.47h-17.21v-4.41l3.68-.48c.45-.05.75-.18.9-.4 .14-.22.22-.56.22-1.01V30.85c0-1.26-.04-2.26-.11-3.01 -.07-.76-.23-1.54-.48-2.36 -.25-.82-.7-1.43-1.34-1.83 -.64-.4-1.45-.6-2.43-.6 -2.76 0-5.65 1.19-8.68 3.58v20.21c0 .56.06.93.18 1.09 .12.15.43.26.93.3l3.41.47v4.47h-17.04v-4.41l3.34-.55c.45-.05.75-.17.9-.36 .14-.2.22-.55.22-1.05V24.26c0-.8-.31-1.29-.93-1.47l-3.86-1.34 .71-4.48h10.34l.54 3.92 .3.06c4.09-3.12 8.08-4.68 11.95-4.68 3.96 0 6.73 1.4 8.33 4.19 4.32-2.8 8.37-4.2 12.15-4.2ZM212.75.54v46.43c0 .56.06.93.18 1.09 .12.15.43.26.93.3l3.92.47v4.47h-18.2v-4.41l3.99-.55c.45-.05.75-.17.9-.36 .14-.2.22-.55.22-1.05V7.76c0-.8-.31-1.29-.93-1.47l-4-1.34 .71-4.48h12.22Zm22.43 16.62v29.8c0 .56.06.93.18 1.09 .12.15.43.26.93.3l4.13.47v4.47h-18.61v-4.41l4.19-.55c.45-.05.75-.17.9-.36 .14-.2.22-.55.22-1.05V24.38c0-.8-.31-1.29-.93-1.47l-3.86-1.34 .71-4.48h12.08ZM408.49 2.68v12.87h-5.81l-1.13-6.08c-.1-.53-.47-.79-1.13-.79h-9.43v38.2c0 .52.05.85.17 1 .11.14.43.24.95.29l7.68.58v4.54h-25.34v-4.55l7.2-.48c.45-.05.75-.16.9-.33 .14-.18.22-.53.22-1.08V8.64h-9.36c-.67 0-1.04.26-1.13.78l-1.13 6.07h-5.88V2.61h43.15Zm52.21 14.47v4.54l-3.93.58 6.48 8.29 7.06-8.3 -4.27-.59 .71-4.55h14.34v4.54l-3.08.71c-.66.22-1.3.67-1.92 1.33l-9.02 10.61 10.07 12.59c.65.75 1.28 1.16 1.87 1.22l3.51.64v4.47h-17.93v-4.48l3.92-.65 -6.8-8.88 -7.21 8.87 4.26.64v4.47h-15.71v-4.41l3.2-.62c.79-.14 1.49-.56 2.08-1.27l9.59-11.48 -9.6-11.89c-.53-.62-1.09-1.02-1.68-1.2l-2.94-.79 .71-4.55h16.15Zm-279.37 5.87c-2.85 0-5.9 1.14-9.16 3.44v17.17c2.84 2.66 5.73 3.99 8.67 3.99 5.21 0 7.81-4.36 7.81-13.08 0-3.74-.65-6.6-1.93-8.58 -1.29-1.99-3.1-2.98-5.42-2.98Zm141.22-.48c-2.14 0-3.93.74-5.35 2.23 -1.43 1.49-2.23 3.75-2.41 6.77h14.68c0-6.01-2.32-9.02-6.94-9.02Zm101.22 0c-2.14 0-3.93.74-5.35 2.23 -1.43 1.49-2.23 3.75-2.41 6.77h14.68c0-6.01-2.32-9.02-6.94-9.02ZM230.27-.07c1.63 0 2.92.44 3.85 1.33 .93.88 1.39 2.15 1.39 3.78 0 1.68-.47 2.97-1.4 3.87 -.94.89-2.22 1.34-3.86 1.34 -1.69 0-2.99-.45-3.9-1.35 -.92-.9-1.37-2.2-1.37-3.88 0-1.64.45-2.91 1.36-3.79 .91-.89 2.2-1.34 3.89-1.34Z"/><g transform="translate(0 3.58358)"><path fill="url(#a)" d="M40.66 26.56c0-.62-.46-.98-1.02-.8L1.01 38c-.57.17-1.02.82-1.02 1.44v12.51c0 .61.45.97 1.01.79l38.62-12.25c.56-.18 1.01-.83 1.01-1.45V26.52v0Z"/><g fill="#FF9800"><path d="M0 26.16c0 .61.45 1.26 1.01 1.44l38.62 12.24c.56.17 1.01-.18 1.01-.8V26.52c0-.62-.46-1.27-1.02-1.45L.99 12.82c-.57-.18-1.02.17-1.02.79v12.51Z"/><path d="M40.66.84c0-.62-.46-.98-1.02-.8L1.01 12.28c-.57.17-1.02.82-1.02 1.44v12.51c0 .61.45.97 1.01.79l38.62-12.25c.56-.18 1.01-.83 1.01-1.45V.8Z"/></g></g></svg>