<svg viewBox="0 0 256 256" xmlns="http://www.w3.org/2000/svg" xmlns:xlink="http://www.w3.org/1999/xlink"><defs><mask id="a"><path fill="#FFF" d="M8.69 14.58L26.03-.01l-.001 81.53 -16.91 35.56L.3 39.72l8.36-25.16Z"/></mask><mask id="b"><path fill="#FFF" d="M.44.49l114.01 0 0 102.34 -114.02 0Z"/></mask><mask id="c"><path fill="#FFF" d="M129.59 1.15l-106.09 0L.15 15.46l0 102.4 113.96 0 0-1.22 16.51-35.13 0-81.48Z"/></mask><mask id="d"><path fill="#FFF" d="M8.09.38C3.96.04 1.42 2.85.05 5.27c1.37 3.96 3.63 6.99 7.48 6.77 3.85-.23 6.16-3.25 7.76-7.11C13.91 2.89 11.71.69 8.07.36v0Z"/></mask><mask id="e"><path fill="#FFF" d="M8.53.22c9.68.22 6.05 24.6 5.83 32.53 -.23 7.92 1.43 15.02 1.59 20.2 .16 5.17 2.8 20.75-8.87 20.64 -11.68-.12-4.52-30.45-4.41-36.73C2.61 36.86-1.19-.09 8.5.19Zm32.81 0c-9.69.22-6.06 24.6-5.84 32.53 .22 7.92-1.44 15.02-1.6 20.2 -.17 5.17-2.81 20.75 8.86 20.64 11.67-.12 4.51-30.45 4.4-36.73 .05 0 3.85-36.95-5.84-36.67Z"/></mask><mask id="f"><path fill="#FFF" d="M129.81 6.93s.66-7.88 6.82-6.17c0 0 10.24 9.74 0 20.42 -10.24 10.68-20.54 14.03-33.26 17.06 -12.72 3.02-12.23 6.27-24.23 7.65 -12.01 1.37-14.48-4.13-14.37-8.98 .11-4.85 4.45-10.91 15.3-10.69 10.84.22 9.63 4.29 20.64 2.47 11.01-1.82 22.46-7.49 26.26-10.41 3.79-2.92 7.15-6.89 2.8-11.4V6.87ZM11.71 8.96C11.7 8.96-.63 11.65.47 21.89c1.1 10.24 9.9 12.33 20.14 14.69 10.24 2.36 8.31 7.15 20.59 8.31 12.27 1.15 17.17-4.41 15.96-11.68 -1.22-7.27-13.38-6.83-27.42-6.94 -14.04-.12-18.06-6.5-18.06-6.5V8.92v0Z"/></mask><path id="m2" d="M27.63 106.75a1.1 1.09 0 1 0 0 2.18 1.1 1.09 0 1 0 0-2.19Z"/><path id="J3" d="M67.66 58.45a1.1 1.09 0 1 0 0 2.18 1.1 1.09 0 1 0 0-2.19Z"/><path id="F1" d="M119.41 136.11a1.1 1.09 0 1 0 0 2.18 1.1 1.09 0 1 0 0-2.19Z"/><path id="u4" d="M155.14 119.74a1.1 1.09 0 1 0 0 2.18 1.1 1.09 0 1 0 0-2.19Z"/><path id="b1" d="M134.55 12.55a1.1 1.09 0 1 0 0 2.18 1.1 1.09 0 1 0 0-2.19Z"/><path id="n3" d="M103.22 100.25a1.1 1.09 0 1 0 0 2.18 1.1 1.09 0 1 0 0-2.19Z"/><path id="z4" d="M69.86 156.25a1.1 1.09 0 1 0 0 2.18 1.1 1.09 0 1 0 0-2.19Z"/><path id="n" d="M4.73 36.73a1.1 1.09 0 1 0 0 2.18 1.1 1.09 0 1 0 0-2.19Z"/><path id="e4" d="M120.95 9.66a1.1 1.09 0 1 0 0 2.18 1.1 1.09 0 1 0 0-2.19Z"/><path id="H4" d="M35.06 108.99a1.1 1.09 0 1 0 0 2.18 1.1 1.09 0 1 0 0-2.19Z"/><path id="Q" d="M79.93 18.77a1.1 1.09 0 1 0 0 2.18 1.1 1.09 0 1 0 0-2.19Z"/><path id="g1" d="M129.48 21.5a1.1 1.09 0 1 0 0 2.18 1.1 1.09 0 1 0 0-2.19Z"/><path id="U1" d="M112.19 46.33a1.1 1.09 0 1 0 0 2.18 1.1 1.09 0 1 0 0-2.19Z"/><path id="i4" d="M93.48 22.04a1.1 1.09 0 1 0 0 2.18 1.1 1.09 0 1 0 0-2.19Z"/><path id="d1" d="M108.51 6.93a1.1 1.09 0 1 0 0 2.18 1.1 1.09 0 1 0 0-2.19Z"/><path id="B2" d="M86.21 140.97a1.1 1.09 0 1 0 0 2.18 1.1 1.09 0 1 0 0-2.19Z"/><path id="t3" d="M139.01 70.95a1.1 1.09 0 1 0 0 2.18 1.1 1.09 0 1 0 0-2.19Z"/><path id="S" d="M99.7 5.73a1.1 1.09 0 1 0 0 2.18 1.1 1.09 0 1 0 0-2.19Z"/><path id="Y3" d="M57.03 42.57a1.1 1.09 0 1 0 0 2.18 1.1 1.09 0 1 0 0-2.19Z"/><path id="c2" d="M45.58 18.17a1.1 1.09 0 1 0 0 2.18 1.1 1.09 0 1 0 0-2.19Z"/><path id="y3" d="M123.87 55.72a1.1 1.09 0 1 0 0 2.18 1.1 1.09 0 1 0 0-2.19Z"/><path id="g4" d="M124.09 13.26a1.1 1.09 0 1 0 0 2.18 1.1 1.09 0 1 0 0-2.19Z"/><path id="b4" d="M83.4 24.61a1.1 1.09 0 1 0 0 2.18 1.1 1.09 0 1 0 0-2.19Z"/><path id="Y1" d="M125.46 24.39a1.1 1.09 0 1 0 0 2.18 1.1 1.09 0 1 0 0-2.19Z"/><path id="h4" d="M91.93 17.73a1.1 1.09 0 1 0 0 2.18 1.1 1.09 0 1 0 0-2.19Z"/><path id="Y2" d="M147.92 83.5a1.1 1.09 0 1 0 0 2.18 1.1 1.09 0 1 0 0-2.19Z"/><path id="G1" d="M133.5 128.69a1.1 1.09 0 1 0 0 2.18 1.1 1.09 0 1 0 0-2.19Z"/><path id="C" d="M66.94 24.61a1.1 1.09 0 1 0 0 2.18 1.1 1.09 0 1 0 0-2.19Z"/><path id="j1" d="M91.88 45.84a1.1 1.09 0 1 0 0 2.18 1.1 1.09 0 1 0 0-2.19Z"/><path id="J1" d="M113.24 84.1a1.1 1.09 0 1 0 0 2.18 1.1 1.09 0 1 0 0-2.19Z"/><path id="w2" d="M50.2 112.92a1.1 1.09 0 1 0 0 2.18 1.1 1.09 0 1 0 0-2.19Z"/><path id="p" d="M4.67 49.72a1.1 1.09 0 1 0 0 2.18 1.1 1.09 0 1 0 0-2.19Z"/><path id="P1" d="M126.62 47.7a1.1 1.09 0 1 0 0 2.18 1.1 1.09 0 1 0 0-2.19Z"/><path id="w1" d="M125.57 66.63a1.1 1.09 0 1 0 0 2.18 1.1 1.09 0 1 0 0-2.19Z"/><path id="i1" d="M123.59 35.85a1.1 1.09 0 1 0 0 2.18 1.1 1.09 0 1 0 0-2.19Z"/><path id="Q2" d="M104.76 134.64a1.1 1.09 0 1 0 0 2.18 1.1 1.09 0 1 0 0-2.19Z"/><path id="l3" d="M109 107.51a1.1 1.09 0 1 0 0 2.18 1.1 1.09 0 1 0 0-2.19Z"/><path id="y" d="M77.57 36.07a1.1 1.09 0 1 0 0 2.18 1.1 1.09 0 1 0 0-2.19Z"/><path id="V1" d="M107.29 43.22a1.1 1.09 0 1 0 0 2.18 1.1 1.09 0 1 0 0-2.19Z"/><path id="p3" d="M108.45 95.89a1.1 1.09 0 1 0 0 2.18 1.1 1.09 0 1 0 0-2.19Z"/><path id="k2" d="M16.57 88.63a1.1 1.09 0 1 0 0 2.18 1.1 1.09 0 1 0 0-2.19Z"/><path id="j4" d="M110.49 29.08a1.1 1.09 0 1 0 0 2.18 1.1 1.09 0 1 0 0-2.19Z"/><path id="t1" d="M152.22 36.67a1.1 1.09 0 1 0 0 2.18 1.1 1.09 0 1 0 0-2.19Z"/><path id="s4" d="M160.64 101.67a1.1 1.09 0 1 0 0 2.18 1.1 1.09 0 1 0 0-2.19Z"/><path id="r2" d="M12.93 123.56a1.1 1.09 0 1 0 0 2.18 1.1 1.09 0 1 0 0-2.19Z"/><path id="A4" d="M56.04 159.47a1.1 1.09 0 1 0 0 2.18 1.1 1.09 0 1 0 0-2.19Z"/><path id="E1" d="M111.92 135.02a1.1 1.09 0 1 0 0 2.18 1.1 1.09 0 1 0 0-2.19Z"/><path id="Q3" d="M23.45 40.66a1.1 1.09 0 1 0 0 2.18 1.1 1.09 0 1 0 0-2.19Z"/><path id="K2" d="M79.27 104.57a1.1 1.09 0 1 0 0 2.18 1.1 1.09 0 1 0 0-2.19Z"/><path id="q2" d="M20.53 138.84a1.1 1.09 0 1 0 0 2.18 1.1 1.09 0 1 0 0-2.19Z"/><path id="E3" d="M57.47 69.47a1.1 1.09 0 1 0 0 2.18 1.1 1.09 0 1 0 0-2.19Z"/><path id="e3" d="M127.77 126.07a1.1 1.09 0 1 0 0 2.18 1.1 1.09 0 1 0 0-2.19Z"/><path id="I3" d="M73.55 60.52a1.1 1.09 0 1 0 0 2.18 1.1 1.09 0 1 0 0-2.19Z"/><path id="w4" d="M123.59 146.97a1.1 1.09 0 1 0 0 2.18 1.1 1.09 0 1 0 0-2.19Z"/><path id="A1" d="M92.82 97.09a1.1 1.09 0 1 0 0 2.18 1.1 1.09 0 1 0 0-2.19Z"/><path id="g2" d="M29.72 17.9a1.1 1.09 0 1 0 0 2.18 1.1 1.09 0 1 0 0-2.19Z"/><path id="h3" d="M119.63 109.37a1.1 1.09 0 1 0 0 2.18 1.1 1.09 0 1 0 0-2.19Z"/><path id="h" d="M29.89 47.04a1.1 1.09 0 1 0 0 2.18 1.1 1.09 0 1 0 0-2.19Z"/><path id="E" d="M64.13 29.14a1.1 1.09 0 1 0 0 2.18 1.1 1.09 0 1 0 0-2.19Z"/><path id="G4" d="M36.33 118.21a1.1 1.09 0 1 0 0 2.18 1.1 1.09 0 1 0 0-2.19Z"/><path id="H2" d="M54.61 106.97a1.1 1.09 0 1 0 0 2.18 1.1 1.09 0 1 0 0-2.19Z"/><path id="S2" d="M136.14 121.05a1.1 1.09 0 1 0 0 2.18 1.1 1.09 0 1 0 0-2.19Z"/><path id="j3" d="M115.17 116.03a1.1 1.09 0 1 0 0 2.18 1.1 1.09 0 1 0 0-2.19Z"/><path id="Q1" d="M133.83 46.33a1.1 1.09 0 1 0 0 2.18 1.1 1.09 0 1 0 0-2.19Z"/><path id="k4" d="M115.72 29.03a1.1 1.09 0 1 0 0 2.18 1.1 1.09 0 1 0 0-2.19Z"/><path id="L3" d="M35.78 64.12a1.1 1.09 0 1 0 0 2.18 1.1 1.09 0 1 0 0-2.19Z"/><path id="o4" d="M156.24 59.27a1.1 1.09 0 1 0 0 2.18 1.1 1.09 0 1 0 0-2.19Z"/><path id="g3" d="M122.54 114.17a1.1 1.09 0 1 0 0 2.18 1.1 1.09 0 1 0 0-2.19Z"/><path id="Z1" d="M114.73 16.1a1.1 1.09 0 1 0 0 2.18 1.1 1.09 0 1 0 0-2.19Z"/><path id="Z" d="M93.7 33.12a1.1 1.09 0 1 0 0 2.18 1.1 1.09 0 1 0 0-2.19Z"/><path id="M1" d="M97 73.95a1.1 1.09 0 1 0 0 2.18 1.1 1.09 0 1 0 0-2.19Z"/><path id="a3" d="M146.71 75.75a1.1 1.09 0 1 0 0 2.18 1.1 1.09 0 1 0 0-2.19Z"/><path id="W" d="M119.96 25.7a1.1 1.09 0 1 0 0 2.18 1.1 1.09 0 1 0 0-2.19Z"/><path id="R1" d="M130.97 42.62a1.1 1.09 0 1 0 0 2.18 1.1 1.09 0 1 0 0-2.19Z"/><path id="u1" d="M148.2 41.91a1.1 1.09 0 1 0 0 2.18 1.1 1.09 0 1 0 0-2.19Z"/><path id="B4" d="M50.31 159.25a1.1 1.09 0 1 0 0 2.18 1.1 1.09 0 1 0 0-2.19Z"/><path id="n1" d="M53.78 66.96a1.1 1.09 0 1 0 0 2.18 1.1 1.09 0 1 0 0-2.19Z"/><path id="a4" d="M44.31 39.89a1.1 1.09 0 1 0 0 2.18 1.1 1.09 0 1 0 0-2.19Z"/><path id="D2" d="M70.63 126.01a1.1 1.09 0 1 0 0 2.18 1.1 1.09 0 1 0 0-2.19Z"/><path id="r1" d="M142.53 39.18a1.1 1.09 0 1 0 0 2.18 1.1 1.09 0 1 0 0-2.19Z"/><path id="m1" d="M61.71 65.11a1.1 1.09 0 1 0 0 2.18 1.1 1.09 0 1 0 0-2.19Z"/><path id="D1" d="M106.74 127.82a1.1 1.09 0 1 0 0 2.18 1.1 1.09 0 1 0 0-2.19Z"/><path id="u" d="M3.52 83.39a1.1 1.09 0 1 0 0 2.18 1.1 1.09 0 1 0 0-2.19Z"/><path id="N" d="M16.51 46.71a1.1 1.09 0 1 0 0 2.18 1.1 1.09 0 1 0 0-2.19Z"/><path id="a1" d="M138.35 18.39a1.1 1.09 0 1 0 0 2.18 1.1 1.09 0 1 0 0-2.19Z"/><path id="q4" d="M159.27 80.33a1.1 1.09 0 1 0 0 2.18 1.1 1.09 0 1 0 0-2.19Z"/><path id="N1" d="M107.52 62.7a1.1 1.09 0 1 0 0 2.18 1.1 1.09 0 1 0 0-2.19Z"/><path id="V" d="M145.34 17.51a1.1 1.09 0 1 0 0 2.18 1.1 1.09 0 1 0 0-2.19Z"/><path id="r3" d="M129.26 80.33a1.1 1.09 0 1 0 0 2.18 1.1 1.09 0 1 0 0-2.19Z"/><path id="T2" d="M142.47 114.5a1.1 1.09 0 1 0 0 2.18 1.1 1.09 0 1 0 0-2.19Z"/><path id="y4" d="M82.08 153.52a1.1 1.09 0 1 0 0 2.18 1.1 1.09 0 1 0 0-2.19Z"/><path id="J2" d="M56.09 99.87a1.1 1.09 0 1 0 0 2.18 1.1 1.09 0 1 0 0-2.19Z"/><path id="d4" d="M115.83 21.23a1.1 1.09 0 1 0 0 2.18 1.1 1.09 0 1 0 0-2.19Z"/><path id="C4" d="M33.63 155.87a1.1 1.09 0 1 0 0 2.18 1.1 1.09 0 1 0 0-2.19Z"/><path id="o3" d="M107.85 101.18a1.1 1.09 0 1 0 0 2.18 1.1 1.09 0 1 0 0-2.19Z"/><path id="h1" d="M131.68 27.56a1.1 1.09 0 1 0 0 2.18 1.1 1.09 0 1 0 0-2.19Z"/><path id="W3" d="M83.24 32.03a1.1 1.09 0 1 0 0 2.18 1.1 1.09 0 1 0 0-2.19Z"/><path id="m4" d="M143.91 33.61a1.1 1.09 0 1 0 0 2.18 1.1 1.09 0 1 0 0-2.19Z"/><path id="h2" d="M23.28 53.97a1.1 1.09 0 1 0 0 2.18 1.1 1.09 0 1 0 0-2.19Z"/><path id="o2" d="M27.74 130.65a1.1 1.09 0 1 0 0 2.18 1.1 1.09 0 1 0 0-2.19Z"/><path id="S1" d="M128.11 54.03a1.1 1.09 0 1 0 0 2.18 1.1 1.09 0 1 0 0-2.19Z"/><path id="u2" d="M47.45 79.68a1.1 1.09 0 1 0 0 2.18 1.1 1.09 0 1 0 0-2.19Z"/><path id="g" d="M28.62 55.39a1.1 1.09 0 1 0 0 2.18 1.1 1.09 0 1 0 0-2.19Z"/><path id="l4" d="M137.68 26.9a1.1 1.09 0 1 0 0 2.18 1.1 1.09 0 1 0 0-2.19Z"/><path id="r" d="M35.61 51.13a1.1 1.09 0 1 0 0 2.18 1.1 1.09 0 1 0 0-2.19Z"/><path id="L1" d="M91.93 83.23a1.1 1.09 0 1 0 0 2.18 1.1 1.09 0 1 0 0-2.19Z"/><path id="m" d="M29.39 23.52a1.1 1.09 0 1 0 0 2.18 1.1 1.09 0 1 0 0-2.19Z"/><path id="t2" d="M37.1 88.25a1.1 1.09 0 1 0 0 2.18 1.1 1.09 0 1 0 0-2.19Z"/><path id="U" d="M141.98 12.49a1.1 1.09 0 1 0 0 2.18 1.1 1.09 0 1 0 0-2.19Z"/><path id="I2" d="M48.61 101.4a1.1 1.09 0 1 0 0 2.18 1.1 1.09 0 1 0 0-2.19Z"/><path id="s3" d="M135.04 75.8a1.1 1.09 0 1 0 0 2.18 1.1 1.09 0 1 0 0-2.19Z"/><path id="p4" d="M158.22 68.87a1.1 1.09 0 1 0 0 2.18 1.1 1.09 0 1 0 0-2.19Z"/><path id="z1" d="M102.95 87.16a1.1 1.09 0 1 0 0 2.18 1.1 1.09 0 1 0 0-2.19Z"/><path id="x1" d="M118.42 71.33a1.1 1.09 0 1 0 0 2.18 1.1 1.09 0 1 0 0-2.19Z"/><path id="y1" d="M108.01 79.62a1.1 1.09 0 1 0 0 2.18 1.1 1.09 0 1 0 0-2.19Z"/><path id="K" d="M16.62 27.45a1.1 1.09 0 1 0 0 2.18 1.1 1.09 0 1 0 0-2.19Z"/><path id="u3" d="M141.92 66.25a1.1 1.09 0 1 0 0 2.18 1.1 1.09 0 1 0 0-2.19Z"/><path id="f2" d="M31.82 13.04a1.1 1.09 0 1 0 0 2.18 1.1 1.09 0 1 0 0-2.19Z"/><path id="I" d="M27.74 33.45a1.1 1.09 0 1 0 0 2.18 1.1 1.09 0 1 0 0-2.19Z"/><path id="I1" d="M126.01 90.48a1.1 1.09 0 1 0 0 2.18 1.1 1.09 0 1 0 0-2.19Z"/><path id="l" d="M23.72 12.22a1.1 1.09 0 1 0 0 2.18 1.1 1.09 0 1 0 0-2.19Z"/><path id="R3" d="M44.09 34.05a1.1 1.09 0 1 0 0 2.18 1.1 1.09 0 1 0 0-2.19Z"/><path id="B1" d="M91 104.84a1.1 1.09 0 1 0 0 2.18 1.1 1.09 0 1 0 0-2.19Z"/><path id="F" d="M56.15 23.95a1.1 1.09 0 1 0 0 2.18 1.1 1.09 0 1 0 0-2.19Z"/><path id="l2" d="M21.41 91.47a1.1 1.09 0 1 0 0 2.18 1.1 1.09 0 1 0 0-2.19Z"/><path id="x3" d="M141.59 55.61a1.1 1.09 0 1 0 0 2.18 1.1 1.09 0 1 0 0-2.19Z"/><path id="M2" d="M99.42 115.21a1.1 1.09 0 1 0 0 2.18 1.1 1.09 0 1 0 0-2.19Z"/><path id="V3" d="M58.85 16.26a1.1 1.09 0 1 0 0 2.18 1.1 1.09 0 1 0 0-2.19Z"/><path id="c4" d="M110.27 21.83a1.1 1.09 0 1 0 0 2.18 1.1 1.09 0 1 0 0-2.19Z"/><path id="r4" d="M160.15 92.34a1.1 1.09 0 1 0 0 2.18 1.1 1.09 0 1 0 0-2.19Z"/><path id="k1" d="M78.83 48.3a1.1 1.09 0 1 0 0 2.18 1.1 1.09 0 1 0 0-2.19Z"/><path id="O2" d="M97.99 129.07a1.1 1.09 0 1 0 0 2.18 1.1 1.09 0 1 0 0-2.19Z"/><path id="K3" d="M51.47 58.72a1.1 1.09 0 1 0 0 2.18 1.1 1.09 0 1 0 0-2.19Z"/><path id="P" d="M67.33 36.18a1.1 1.09 0 1 0 0 2.18 1.1 1.09 0 1 0 0-2.19Z"/><path id="A3" d="M93.92 53.43a1.1 1.09 0 1 0 0 2.18 1.1 1.09 0 1 0 0-2.19Z"/><path id="Y" d="M93.09 27.77a1.1 1.09 0 1 0 0 2.18 1.1 1.09 0 1 0 0-2.19Z"/><path id="p2" d="M25.54 138.57a1.1 1.09 0 1 0 0 2.18 1.1 1.09 0 1 0 0-2.19Z"/><path id="N3" d="M7.98 70.13a1.1 1.09 0 1 0 0 2.18 1.1 1.09 0 1 0 0-2.19Z"/><path id="A2" d="M77.57 136.33a1.1 1.09 0 1 0 0 2.18 1.1 1.09 0 1 0 0-2.19Z"/><path id="T1" d="M120.29 50.97a1.1 1.09 0 1 0 0 2.18 1.1 1.09 0 1 0 0-2.19Z"/><path id="L" d="M14.97 32.69a1.1 1.09 0 1 0 0 2.18 1.1 1.09 0 1 0 0-2.19Z"/><path id="T3" d="M57.31 31.21a1.1 1.09 0 1 0 0 2.18 1.1 1.09 0 1 0 0-2.19Z"/><path id="f4" d="M125.57 7.04a1.1 1.09 0 1 0 0 2.18 1.1 1.09 0 1 0 0-2.19Z"/><path id="X1" d="M127.39 30.5a1.1 1.09 0 1 0 0 2.18 1.1 1.09 0 1 0 0-2.19Z"/><path id="s" d="M17.78 59.98a1.1 1.09 0 1 0 0 2.18 1.1 1.09 0 1 0 0-2.19Z"/><path id="N2" d="M102.06 121.16a1.1 1.09 0 1 0 0 2.18 1.1 1.09 0 1 0 0-2.19Z"/><path id="H3" d="M75.75 69.14a1.1 1.09 0 1 0 0 2.18 1.1 1.09 0 1 0 0-2.19Z"/><path id="P3" d="M8.31 54.03a1.1 1.09 0 1 0 0 2.18 1.1 1.09 0 1 0 0-2.19Z"/><path id="R" d="M90.83 10.04a1.1 1.09 0 1 0 0 2.18 1.1 1.09 0 1 0 0-2.19Z"/><path id="D4" d="M28.51 154.18a1.1 1.09 0 1 0 0 2.18 1.1 1.09 0 1 0 0-2.19Z"/><path id="s2" d="M17.06 106.86a1.1 1.09 0 1 0 0 2.18 1.1 1.09 0 1 0 0-2.19Z"/><path id="n4" d="M152.05 47.48a1.1 1.09 0 1 0 0 2.18 1.1 1.09 0 1 0 0-2.19Z"/><path id="d3" d="M129.7 118.21a1.1 1.09 0 1 0 0 2.18 1.1 1.09 0 1 0 0-2.19Z"/><path id="d2" d="M36.44 19.15a1.1 1.09 0 1 0 0 2.18 1.1 1.09 0 1 0 0-2.19Z"/><path id="A" d="M66.44 17.57a1.1 1.09 0 1 0 0 2.18 1.1 1.09 0 1 0 0-2.19Z"/><path id="n2" d="M30.05 120.34a1.1 1.09 0 1 0 0 2.18 1.1 1.09 0 1 0 0-2.19Z"/><path id="X" d="M99.26 30.45a1.1 1.09 0 1 0 0 2.18 1.1 1.09 0 1 0 0-2.19Z"/><path id="x2" d="M51.47 123.07a1.1 1.09 0 1 0 0 2.18 1.1 1.09 0 1 0 0-2.19Z"/><path id="v2" d="M49.93 87.05a1.1 1.09 0 1 0 0 2.18 1.1 1.09 0 1 0 0-2.19Z"/><path id="R2" d="M118.47 128.09a1.1 1.09 0 1 0 0 2.18 1.1 1.09 0 1 0 0-2.19Z"/><path id="j2" d="M18.49 80.82a1.1 1.09 0 1 0 0 2.18 1.1 1.09 0 1 0 0-2.19Z"/><path id="j" d="M36.22 35.42a1.1 1.09 0 1 0 0 2.18 1.1 1.09 0 1 0 0-2.19Z"/><path id="t" d="M74.26.21a1.1 1.09 0 1 0 0 2.18 1.1 1.09 0 1 0 0-2.19Z"/><path id="G2" d="M59.23 110.13a1.1 1.09 0 1 0 0 2.18 1.1 1.09 0 1 0 0-2.19Z"/><path id="W2" d="M152.77 98.51a1.1 1.09 0 1 0 0 2.18 1.1 1.09 0 1 0 0-2.19Z"/><path id="H1" d="M137.96 107.84a1.1 1.09 0 1 0 0 2.18 1.1 1.09 0 1 0 0-2.19Z"/><path id="k3" d="M114.01 111.82a1.1 1.09 0 1 0 0 2.18 1.1 1.09 0 1 0 0-2.19Z"/><path id="z3" d="M114.56 52.55a1.1 1.09 0 1 0 0 2.18 1.1 1.09 0 1 0 0-2.19Z"/><path id="q" d="M47.12 9.82a1.1 1.09 0 1 0 0 2.18 1.1 1.09 0 1 0 0-2.19Z"/><path id="M" d="M15.19 40.82a1.1 1.09 0 1 0 0 2.18 1.1 1.09 0 1 0 0-2.19Z"/><path id="C3" d="M65.4 53.54a1.1 1.09 0 1 0 0 2.18 1.1 1.09 0 1 0 0-2.19Z"/><path id="F3" d="M59.95 74.82a1.1 1.09 0 1 0 0 2.18 1.1 1.09 0 1 0 0-2.19Z"/><path id="c1" d="M115.22 8.56a1.1 1.09 0 1 0 0 2.18 1.1 1.09 0 1 0 0-2.19Z"/><path id="E2" d="M64.57 117.5a1.1 1.09 0 1 0 0 2.18 1.1 1.09 0 1 0 0-2.19Z"/><path id="f3" d="M124.42 122.85a1.1 1.09 0 1 0 0 2.18 1.1 1.09 0 1 0 0-2.19Z"/><path id="l1" d="M71.01 49.66a1.1 1.09 0 1 0 0 2.18 1.1 1.09 0 1 0 0-2.19Z"/><path id="V2" d="M148.59 101.35a1.1 1.09 0 1 0 0 2.18 1.1 1.09 0 1 0 0-2.19Z"/><path id="X2" d="M149.69 92.56a1.1 1.09 0 1 0 0 2.18 1.1 1.09 0 1 0 0-2.19Z"/><path id="L2" d="M86.04 109.1a1.1 1.09 0 1 0 0 2.18 1.1 1.09 0 1 0 0-2.19Z"/><path id="T" d="M116.98 3.98a1.1 1.09 0 1 0 0 2.18 1.1 1.09 0 1 0 0-2.19Z"/><path id="q3" d="M116.21 91.3a1.1 1.09 0 1 0 0 2.18 1.1 1.09 0 1 0 0-2.19Z"/><path id="w3" d="M148.92 61.01a1.1 1.09 0 1 0 0 2.18 1.1 1.09 0 1 0 0-2.19Z"/><path id="v" d="M82.08 8.56a1.1 1.09 0 1 0 0 2.18 1.1 1.09 0 1 0 0-2.19Z"/><path id="D3" d="M59.29 59.65a1.1 1.09 0 1 0 0 2.18 1.1 1.09 0 1 0 0-2.19Z"/><path id="J" d="M20.2 31.87a1.1 1.09 0 1 0 0 2.18 1.1 1.09 0 1 0 0-2.19Z"/><path id="F2" d="M65.56 112.64a1.1 1.09 0 1 0 0 2.18 1.1 1.09 0 1 0 0-2.19Z"/><path id="P2" d="M98.05 135.57a1.1 1.09 0 1 0 0 2.18 1.1 1.09 0 1 0 0-2.19Z"/><path id="O3" d="M5.28 64.45a1.1 1.09 0 1 0 0 2.18 1.1 1.09 0 1 0 0-2.19Z"/><path id="o" d="M42.17 1.69a1.1 1.09 0 1 0 0 2.18 1.1 1.09 0 1 0 0-2.19Z"/><path id="G" d="M47.51 28.92a1.1 1.09 0 1 0 0 2.18 1.1 1.09 0 1 0 0-2.19Z"/><path id="D" d="M62.21 22.75a1.1 1.09 0 1 0 0 2.18 1.1 1.09 0 1 0 0-2.19Z"/><path id="f1" d="M104.82 11.89a1.1 1.09 0 1 0 0 2.18 1.1 1.09 0 1 0 0-2.19Z"/><path id="S3" d="M54.11 36.4a1.1 1.09 0 1 0 0 2.18 1.1 1.09 0 1 0 0-2.19Z"/><path id="x4" d="M95.68 152.54a1.1 1.09 0 1 0 0 2.18 1.1 1.09 0 1 0 0-2.19Z"/><path id="W1" d="M112.36 39.56a1.1 1.09 0 1 0 0 2.18 1.1 1.09 0 1 0 0-2.19Z"/><path id="w" d="M34.62 78.26a1.1 1.09 0 1 0 0 2.18 1.1 1.09 0 1 0 0-2.19Z"/><path id="F4" d="M36.44 133.76a1.1 1.09 0 1 0 0 2.18 1.1 1.09 0 1 0 0-2.19Z"/><path id="b3" d="M136.14 94.69a1.1 1.09 0 1 0 0 2.18 1.1 1.09 0 1 0 0-2.19Z"/><path id="t4" d="M158.38 110.24a1.1 1.09 0 1 0 0 2.18 1.1 1.09 0 1 0 0-2.19Z"/><path id="i3" d="M122.76 105.82a1.1 1.09 0 1 0 0 2.18 1.1 1.09 0 1 0 0-2.19Z"/><path id="E4" d="M34.02 144.95a1.1 1.09 0 1 0 0 2.18 1.1 1.09 0 1 0 0-2.19Z"/><path id="q1" d="M101.9 51.13a1.1 1.09 0 1 0 0 2.18 1.1 1.09 0 1 0 0-2.19Z"/><path id="v1" d="M133.72 60.19a1.1 1.09 0 1 0 0 2.18 1.1 1.09 0 1 0 0-2.19Z"/><path id="B3" d="M82.8 53.86a1.1 1.09 0 1 0 0 2.18 1.1 1.09 0 1 0 0-2.19Z"/><path id="C1" d="M91.27 115.97a1.1 1.09 0 1 0 0 2.18 1.1 1.09 0 1 0 0-2.19Z"/><path id="Z2" d="M151.39 73.73a1.1 1.09 0 1 0 0 2.18 1.1 1.09 0 1 0 0-2.19Z"/><path id="M3" d="M21.91 67.62a1.1 1.09 0 1 0 0 2.18 1.1 1.09 0 1 0 0-2.19Z"/><path id="o1" d="M83.57 70.02a1.1 1.09 0 1 0 0 2.18 1.1 1.09 0 1 0 0-2.19Z"/><path id="s1" d="M150.4 32.2a1.1 1.09 0 1 0 0 2.18 1.1 1.09 0 1 0 0-2.19Z"/><path id="G3" d="M70.13 75.2a1.1 1.09 0 1 0 0 2.18 1.1 1.09 0 1 0 0-2.19Z"/><path id="U3" d="M59.12 11.46a1.1 1.09 0 1 0 0 2.18 1.1 1.09 0 1 0 0-2.19Z"/><path id="v4" d="M142.14 136.28a1.1 1.09 0 1 0 0 2.18 1.1 1.09 0 1 0 0-2.19Z"/><path id="k" d="M1.26 44.42a1.1 1.09 0 1 0 0 2.18 1.1 1.09 0 1 0 0-2.19Z"/><path id="x" d="M77.95 29.52a1.1 1.09 0 1 0 0 2.18 1.1 1.09 0 1 0 0-2.19Z"/><path id="a2" d="M105.59 22.48a1.1 1.09 0 1 0 0 2.18 1.1 1.09 0 1 0 0-2.19Z"/><path id="X3" d="M83.07 40.11a1.1 1.09 0 1 0 0 2.18 1.1 1.09 0 1 0 0-2.19Z"/><path id="O1" d="M114.62 59.7a1.1 1.09 0 1 0 0 2.18 1.1 1.09 0 1 0 0-2.19Z"/><path id="i" d="M40.96 26.57a1.1 1.09 0 1 0 0 2.18 1.1 1.09 0 1 0 0-2.19Z"/><path id="m3" d="M113.3 99.76a1.1 1.09 0 1 0 0 2.18 1.1 1.09 0 1 0 0-2.19Z"/><path id="p1" d="M91.6 64.01a1.1 1.09 0 1 0 0 2.18 1.1 1.09 0 1 0 0-2.19Z"/><path id="C2" d="M85.05 136.55a1.1 1.09 0 1 0 0 2.18 1.1 1.09 0 1 0 0-2.19Z"/><path id="B" d="M67.27 12.55a1.1 1.09 0 1 0 0 2.18 1.1 1.09 0 1 0 0-2.19Z"/><path id="z" d="M44.75 61.61a1.1 1.09 0 1 0 0 2.18 1.1 1.09 0 1 0 0-2.19Z"/><path id="e1" d="M103.83 16.2a1.1 1.09 0 1 0 0 2.18 1.1 1.09 0 1 0 0-2.19Z"/><path id="z2" d="M57.69 132.35a1.1 1.09 0 1 0 0 2.18 1.1 1.09 0 1 0 0-2.19Z"/><path id="U2" d="M147.32 106.91a1.1 1.09 0 1 0 0 2.18 1.1 1.09 0 1 0 0-2.19Z"/><path id="y2" d="M52.46 129.83a1.1 1.09 0 1 0 0 2.18 1.1 1.09 0 1 0 0-2.19Z"/><path id="I4" d="M36.61 101.45a1.1 1.09 0 1 0 0 2.18 1.1 1.09 0 1 0 0-2.19Z"/><path id="b2" d="M73.6 19.26a1.1 1.09 0 1 0 0 2.18 1.1 1.09 0 1 0 0-2.19Z"/><path id="Z3" d="M39.85 42.18a1.1 1.09 0 1 0 0 2.18 1.1 1.09 0 1 0 0-2.19Z"/><path id="c3" d="M131.35 110.46a1.1 1.09 0 1 0 0 2.18 1.1 1.09 0 1 0 0-2.19Z"/><path id="H" d="M33.25 30.78a1.1 1.09 0 1 0 0 2.18 1.1 1.09 0 1 0 0-2.19Z"/><path id="K1" d="M97.83 83.99a1.1 1.09 0 1 0 0 2.18 1.1 1.09 0 1 0 0-2.19Z"/><path id="O" d="M45.91 45.24a1.1 1.09 0 1 0 0 2.18 1.1 1.09 0 1 0 0-2.19Z"/><path id="i2" d="M18.99 74.66a1.1 1.09 0 1 0 0 2.18 1.1 1.09 0 1 0 0-2.19Z"/><path id="e2" d="M36.66 13.58a1.1 1.09 0 1 0 0 2.18 1.1 1.09 0 1 0 0-2.19Z"/><path id="v3" d="M147.43 66.09a1.1 1.09 0 1 0 0 2.18 1.1 1.09 0 1 0 0-2.19Z"/></defs><path fill="#2DCC9F" d="M127.88 0a127.88 127.88 0 1 0 0 255.77 127.88 127.88 0 1 0 0-255.78Z"/><path fill="#D0F5F5" d="M68.1 91.49l23.72-14.37 106.91 0 -8.98 24.77 -79.06 7.26 -42.62-17.68Z"/><path fill="#C8EEEE" d="M181.98 91.54l16.77-14.43 .2 80.94 -16.91 35.56 -8.81-77.36Z"/><g transform="translate(181.127 76.5247)"><path mask="url(#a)" opacity=".35" fill="#9DEEEE" d="M-39.42 101.18s47.07-10.91 53.84-26.6c6.77-15.7-11.9 3.79-11.9 3.79l-43.88 14.14 1.92 8.64v0Zm-41.13-1.11s-6.39 1.87-15.31-2.15c-8.92-4.02-19.71-5.84-19.71-5.84l-1.6-5.84 5.56-2.76 21.63 8.53 9.41 8.03v0Z"/></g><path fill="#F0FFFF" d="M68.21 91.33l114.01 0 0 102.34 -114.02 0Z"/><g transform="translate(75.9742 90.8387)"><path mask="url(#b)" opacity=".35" fill="#9DEEEE" d="M65.73 86.87s47.07-10.91 53.84-26.6c6.77-15.7-11.9 3.79-11.9 3.79L63.79 78.2l1.92 8.64v0ZM24.6 85.76s-6.39 1.87-15.31-2.15c-8.92-4.02-19.71-5.84-19.71-5.84l-1.6-5.84 5.56-2.76 21.63 8.53 9.41 8.03v0Z"/></g><g transform="translate(76.5247 76.5247)"><g mask="url(#c)" opacity=".35"><g transform="translate(-24.1686-20.7391)"><g fill="#D0F5F5"><path d="M28.62 55.28a1.21 1.2 0 1 0 0 2.4 1.21 1.2 0 1 0 0-2.41Z"/><use xlink:href="#g"/><use xlink:href="#g"/><path d="M29.89 46.93a1.21 1.2 0 1 0 0 2.4 1.21 1.2 0 1 0 0-2.41Z"/><use xlink:href="#h"/><use xlink:href="#h"/><path d="M40.96 26.47a1.21 1.2 0 1 0 0 2.4 1.21 1.2 0 1 0 0-2.41Z"/><use xlink:href="#i"/><use xlink:href="#i"/><path d="M36.22 35.31a1.21 1.2 0 1 0 0 2.4 1.21 1.2 0 1 0 0-2.41Z"/><use xlink:href="#j"/><use xlink:href="#j"/><path d="M1.26 44.31a1.21 1.2 0 1 0 0 2.4 1.21 1.2 0 1 0 0-2.41Z"/><use xlink:href="#k"/><use xlink:href="#k"/><path d="M23.72 12.11a1.21 1.2 0 1 0 0 2.4 1.21 1.2 0 1 0 0-2.41Z"/><use xlink:href="#l"/><use xlink:href="#l"/><path d="M29.39 23.41a1.21 1.2 0 1 0 0 2.4 1.21 1.2 0 1 0 0-2.41Z"/><use xlink:href="#m"/><use xlink:href="#m"/><path d="M4.73 36.62a1.21 1.2 0 1 0 0 2.4 1.21 1.2 0 1 0 0-2.41Z"/><use xlink:href="#n"/><use xlink:href="#n"/><path d="M42.17 1.58a1.21 1.2 0 1 0 0 2.4 1.21 1.2 0 1 0 0-2.41Z"/><use xlink:href="#o"/><use xlink:href="#o"/><path d="M4.67 49.61a1.21 1.2 0 1 0 0 2.4 1.21 1.2 0 1 0 0-2.41Z"/><use xlink:href="#p"/><use xlink:href="#p"/><path d="M47.12 9.71a1.21 1.2 0 1 0 0 2.4 1.21 1.2 0 1 0 0-2.41Z"/><use xlink:href="#q"/><use xlink:href="#q"/><path d="M35.61 51.03a1.21 1.2 0 1 0 0 2.4 1.21 1.2 0 1 0 0-2.41Z"/><use xlink:href="#r"/><use xlink:href="#r"/><path d="M17.78 59.87a1.21 1.2 0 1 0 0 2.4 1.21 1.2 0 1 0 0-2.41Z"/><use xlink:href="#s"/><use xlink:href="#s"/><path d="M74.26.1a1.21 1.2 0 1 0 0 2.4 1.21 1.2 0 1 0 0-2.41Z"/><use xlink:href="#t"/><use xlink:href="#t"/><path d="M3.52 83.28a1.21 1.2 0 1 0 0 2.4 1.21 1.2 0 1 0 0-2.41Z"/><use xlink:href="#u"/><use xlink:href="#u"/><path d="M82.08 8.45a1.21 1.2 0 1 0 0 2.4 1.21 1.2 0 1 0 0-2.41Z"/><use xlink:href="#v"/><use xlink:href="#v"/><path d="M34.62 78.15a1.21 1.2 0 1 0 0 2.4 1.21 1.2 0 1 0 0-2.41Z"/><use xlink:href="#w"/><use xlink:href="#w"/><path d="M77.95 29.41a1.21 1.2 0 1 0 0 2.4 1.21 1.2 0 1 0 0-2.41Z"/><use xlink:href="#x"/><use xlink:href="#x"/><path d="M77.57 35.96a1.21 1.2 0 1 0 0 2.4 1.21 1.2 0 1 0 0-2.41Z"/><use xlink:href="#y"/><use xlink:href="#y"/><path d="M44.75 61.5a1.21 1.2 0 1 0 0 2.4 1.21 1.2 0 1 0 0-2.41Z"/><use xlink:href="#z"/><use xlink:href="#z"/><path d="M66.44 17.46a1.21 1.2 0 1 0 0 2.4 1.21 1.2 0 1 0 0-2.41Z"/><use xlink:href="#A"/><use xlink:href="#A"/><path d="M67.27 12.44a1.21 1.2 0 1 0 0 2.4 1.21 1.2 0 1 0 0-2.41Z"/><use xlink:href="#B"/><use xlink:href="#B"/><path d="M66.94 24.5a1.21 1.2 0 1 0 0 2.4 1.21 1.2 0 1 0 0-2.41Z"/><use xlink:href="#C"/><use xlink:href="#C"/><path d="M62.21 22.64a1.21 1.2 0 1 0 0 2.4 1.21 1.2 0 1 0 0-2.41Z"/><use xlink:href="#D"/><use xlink:href="#D"/><path d="M64.13 29.03a1.21 1.2 0 1 0 0 2.4 1.21 1.2 0 1 0 0-2.41Z"/><use xlink:href="#E"/><use xlink:href="#E"/><path d="M56.15 23.85a1.21 1.2 0 1 0 0 2.4 1.21 1.2 0 1 0 0-2.41Z"/><use xlink:href="#F"/><use xlink:href="#F"/><path d="M47.51 28.81a1.21 1.2 0 1 0 0 2.4 1.21 1.2 0 1 0 0-2.41Z"/><use xlink:href="#G"/><use xlink:href="#G"/><path d="M33.25 30.67a1.21 1.2 0 1 0 0 2.4 1.21 1.2 0 1 0 0-2.41Z"/><use xlink:href="#H"/><use xlink:href="#H"/><path d="M27.74 33.34a1.21 1.2 0 1 0 0 2.4 1.21 1.2 0 1 0 0-2.41Z"/><use xlink:href="#I"/><use xlink:href="#I"/><path d="M20.2 31.76a1.21 1.2 0 1 0 0 2.4 1.21 1.2 0 1 0 0-2.41Z"/><use xlink:href="#J"/><use xlink:href="#J"/><path d="M16.62 27.34a1.21 1.2 0 1 0 0 2.4 1.21 1.2 0 1 0 0-2.41Z"/><use xlink:href="#K"/><use xlink:href="#K"/><path d="M14.97 32.58a1.21 1.2 0 1 0 0 2.4 1.21 1.2 0 1 0 0-2.41Z"/><use xlink:href="#L"/><use xlink:href="#L"/><path d="M15.19 40.71a1.21 1.2 0 1 0 0 2.4 1.21 1.2 0 1 0 0-2.41Z"/><use xlink:href="#M"/><use xlink:href="#M"/><path d="M16.51 46.6a1.21 1.2 0 1 0 0 2.4 1.21 1.2 0 1 0 0-2.41Z"/><use xlink:href="#N"/><use xlink:href="#N"/><path d="M45.91 45.13a1.21 1.2 0 1 0 0 2.4 1.21 1.2 0 1 0 0-2.41Z"/><use xlink:href="#O"/><use xlink:href="#O"/><path d="M67.33 36.07a1.21 1.2 0 1 0 0 2.4 1.21 1.2 0 1 0 0-2.41Z"/><use xlink:href="#P"/><use xlink:href="#P"/><path d="M79.93 18.66a1.21 1.2 0 1 0 0 2.4 1.21 1.2 0 1 0 0-2.41Z"/><use xlink:href="#Q"/><use xlink:href="#Q"/><path d="M90.83 9.93a1.21 1.2 0 1 0 0 2.4 1.21 1.2 0 1 0 0-2.41Z"/><use xlink:href="#R"/><use xlink:href="#R"/><path d="M99.7 5.62a1.21 1.2 0 1 0 0 2.4 1.21 1.2 0 1 0 0-2.41Z"/><use xlink:href="#S"/><use xlink:href="#S"/><path d="M116.98 3.87a1.21 1.2 0 1 0 0 2.4 1.21 1.2 0 1 0 0-2.41Z"/><use xlink:href="#T"/><use xlink:href="#T"/><path d="M141.98 12.38a1.21 1.2 0 1 0 0 2.4 1.21 1.2 0 1 0 0-2.41Z"/><use xlink:href="#U"/><use xlink:href="#U"/><path d="M145.34 17.41a1.21 1.2 0 1 0 0 2.4 1.21 1.2 0 1 0 0-2.41Z"/><use xlink:href="#V"/><use xlink:href="#V"/><path d="M119.96 25.59a1.21 1.2 0 1 0 0 2.4 1.21 1.2 0 1 0 0-2.41Z"/><use xlink:href="#W"/><use xlink:href="#W"/><path d="M99.26 30.34a1.21 1.2 0 1 0 0 2.4 1.21 1.2 0 1 0 0-2.41Z"/><use xlink:href="#X"/><use xlink:href="#X"/><path d="M93.09 27.67a1.21 1.2 0 1 0 0 2.4 1.21 1.2 0 1 0 0-2.41Z"/><use xlink:href="#Y"/><use xlink:href="#Y"/><path d="M93.7 33.01a1.21 1.2 0 1 0 0 2.4 1.21 1.2 0 1 0 0-2.41Z"/><use xlink:href="#Z"/><use xlink:href="#Z"/><path d="M138.35 18.28a1.21 1.2 0 1 0 0 2.4 1.21 1.2 0 1 0 0-2.41Z"/><use xlink:href="#a1"/><use xlink:href="#a1"/><path d="M134.55 12.44a1.21 1.2 0 1 0 0 2.4 1.21 1.2 0 1 0 0-2.41Z"/><use xlink:href="#b1"/><use xlink:href="#b1"/><path d="M115.22 8.45a1.21 1.2 0 1 0 0 2.4 1.21 1.2 0 1 0 0-2.41Z"/><use xlink:href="#c1"/><use xlink:href="#c1"/><path d="M108.51 6.82a1.21 1.2 0 1 0 0 2.4 1.21 1.2 0 1 0 0-2.41Z"/><use xlink:href="#d1"/><use xlink:href="#d1"/><path d="M103.83 16.1a1.21 1.2 0 1 0 0 2.4 1.21 1.2 0 1 0 0-2.41Z"/><use xlink:href="#e1"/><use xlink:href="#e1"/><path d="M104.82 11.78a1.21 1.2 0 1 0 0 2.4 1.21 1.2 0 1 0 0-2.41Z"/><use xlink:href="#f1"/><use xlink:href="#f1"/><path d="M129.48 21.39a1.21 1.2 0 1 0 0 2.4 1.21 1.2 0 1 0 0-2.41Z"/><use xlink:href="#g1"/><use xlink:href="#g1"/><path d="M131.68 27.45a1.21 1.2 0 1 0 0 2.4 1.21 1.2 0 1 0 0-2.41Z"/><use xlink:href="#h1"/><use xlink:href="#h1"/><path d="M123.59 35.74a1.21 1.2 0 1 0 0 2.4 1.21 1.2 0 1 0 0-2.41Z"/><use xlink:href="#i1"/><use xlink:href="#i1"/><path d="M91.88 45.73a1.21 1.2 0 1 0 0 2.4 1.21 1.2 0 1 0 0-2.41Z"/><use xlink:href="#j1"/><use xlink:href="#j1"/><path d="M78.83 48.19a1.21 1.2 0 1 0 0 2.4 1.21 1.2 0 1 0 0-2.41Z"/><use xlink:href="#k1"/><use xlink:href="#k1"/><path d="M71.01 49.55a1.21 1.2 0 1 0 0 2.4 1.21 1.2 0 1 0 0-2.41Z"/><use xlink:href="#l1"/><use xlink:href="#l1"/><path d="M61.71 65a1.21 1.2 0 1 0 0 2.4 1.21 1.2 0 1 0 0-2.41Z"/><use xlink:href="#m1"/><use xlink:href="#m1"/><path d="M53.78 66.85a1.21 1.2 0 1 0 0 2.4 1.21 1.2 0 1 0 0-2.41Z"/><use xlink:href="#n1"/><use xlink:href="#n1"/><path d="M83.57 69.91a1.21 1.2 0 1 0 0 2.4 1.21 1.2 0 1 0 0-2.41Z"/><use xlink:href="#o1"/><use xlink:href="#o1"/><path d="M91.6 63.91a1.21 1.2 0 1 0 0 2.4 1.21 1.2 0 1 0 0-2.41Z"/><use xlink:href="#p1"/><use xlink:href="#p1"/><path d="M101.9 51.03a1.21 1.2 0 1 0 0 2.4 1.21 1.2 0 1 0 0-2.41Z"/><use xlink:href="#q1"/><use xlink:href="#q1"/><path d="M142.53 39.07a1.21 1.2 0 1 0 0 2.4 1.21 1.2 0 1 0 0-2.41Z"/><use xlink:href="#r1"/><use xlink:href="#r1"/><path d="M150.4 32.09a1.21 1.2 0 1 0 0 2.4 1.21 1.2 0 1 0 0-2.41Z"/><use xlink:href="#s1"/><use xlink:href="#s1"/><path d="M152.22 36.56a1.21 1.2 0 1 0 0 2.4 1.21 1.2 0 1 0 0-2.41Z"/><use xlink:href="#t1"/><use xlink:href="#t1"/><path d="M148.2 41.8a1.21 1.2 0 1 0 0 2.4 1.21 1.2 0 1 0 0-2.41Z"/><use xlink:href="#u1"/><use xlink:href="#u1"/><path d="M133.72 60.08a1.21 1.2 0 1 0 0 2.4 1.21 1.2 0 1 0 0-2.41Z"/><use xlink:href="#v1"/><use xlink:href="#v1"/><path d="M125.57 66.53a1.21 1.2 0 1 0 0 2.4 1.21 1.2 0 1 0 0-2.41Z"/><use xlink:href="#w1"/><use xlink:href="#w1"/><path d="M118.42 71.22a1.21 1.2 0 1 0 0 2.4 1.21 1.2 0 1 0 0-2.41Z"/><use xlink:href="#x1"/><use xlink:href="#x1"/><path d="M108.01 79.51a1.21 1.2 0 1 0 0 2.4 1.21 1.2 0 1 0 0-2.41Z"/><use xlink:href="#y1"/><use xlink:href="#y1"/><path d="M102.95 87.05a1.21 1.2 0 1 0 0 2.4 1.21 1.2 0 1 0 0-2.41Z"/><use xlink:href="#z1"/><use xlink:href="#z1"/><path d="M92.82 96.98a1.21 1.2 0 1 0 0 2.4 1.21 1.2 0 1 0 0-2.41Z"/><use xlink:href="#A1"/><use xlink:href="#A1"/><path d="M91 104.73a1.21 1.2 0 1 0 0 2.4 1.21 1.2 0 1 0 0-2.41Z"/><use xlink:href="#B1"/><use xlink:href="#B1"/><path d="M91.27 115.86a1.21 1.2 0 1 0 0 2.4 1.21 1.2 0 1 0 0-2.41Z"/><use xlink:href="#C1"/><use xlink:href="#C1"/><path d="M106.74 127.71a1.21 1.2 0 1 0 0 2.4 1.21 1.2 0 1 0 0-2.41Z"/><use xlink:href="#D1"/><use xlink:href="#D1"/><path d="M111.92 134.91a1.21 1.2 0 1 0 0 2.4 1.21 1.2 0 1 0 0-2.41Z"/><use xlink:href="#E1"/><use xlink:href="#E1"/><path d="M119.41 136a1.21 1.2 0 1 0 0 2.4 1.21 1.2 0 1 0 0-2.41Z"/><use xlink:href="#F1"/><use xlink:href="#F1"/><path d="M133.5 128.58a1.21 1.2 0 1 0 0 2.4 1.21 1.2 0 1 0 0-2.41Z"/><use xlink:href="#G1"/><use xlink:href="#G1"/><path d="M137.96 107.73a1.21 1.2 0 1 0 0 2.4 1.21 1.2 0 1 0 0-2.41Z"/><use xlink:href="#H1"/><use xlink:href="#H1"/><path d="M126.01 90.38a1.21 1.2 0 1 0 0 2.4 1.21 1.2 0 1 0 0-2.41Z"/><use xlink:href="#I1"/><use xlink:href="#I1"/><path d="M113.24 83.99a1.21 1.2 0 1 0 0 2.4 1.21 1.2 0 1 0 0-2.41Z"/><use xlink:href="#J1"/><use xlink:href="#J1"/><path d="M97.83 83.88a1.21 1.2 0 1 0 0 2.4 1.21 1.2 0 1 0 0-2.41Z"/><use xlink:href="#K1"/><use xlink:href="#K1"/><path d="M91.93 83.12a1.21 1.2 0 1 0 0 2.4 1.21 1.2 0 1 0 0-2.41Z"/><use xlink:href="#L1"/><use xlink:href="#L1"/><path d="M97 73.84a1.21 1.2 0 1 0 0 2.4 1.21 1.2 0 1 0 0-2.41Z"/><use xlink:href="#M1"/><use xlink:href="#M1"/><path d="M107.52 62.6a1.21 1.2 0 1 0 0 2.4 1.21 1.2 0 1 0 0-2.41Z"/><use xlink:href="#N1"/><use xlink:href="#N1"/><path d="M114.62 59.59a1.21 1.2 0 1 0 0 2.4 1.21 1.2 0 1 0 0-2.41Z"/><use xlink:href="#O1"/><use xlink:href="#O1"/><path d="M126.62 47.59a1.21 1.2 0 1 0 0 2.4 1.21 1.2 0 1 0 0-2.41Z"/><use xlink:href="#P1"/><use xlink:href="#P1"/><path d="M133.83 46.22a1.21 1.2 0 1 0 0 2.4 1.21 1.2 0 1 0 0-2.41Z"/><use xlink:href="#Q1"/><use xlink:href="#Q1"/><path d="M130.97 42.51a1.21 1.2 0 1 0 0 2.4 1.21 1.2 0 1 0 0-2.41Z"/><use xlink:href="#R1"/><use xlink:href="#R1"/><path d="M128.11 53.92a1.21 1.2 0 1 0 0 2.4 1.21 1.2 0 1 0 0-2.41Z"/><use xlink:href="#S1"/><use xlink:href="#S1"/><path d="M120.29 50.86a1.21 1.2 0 1 0 0 2.4 1.21 1.2 0 1 0 0-2.41Z"/><use xlink:href="#T1"/><use xlink:href="#T1"/><path d="M112.19 46.22a1.21 1.2 0 1 0 0 2.4 1.21 1.2 0 1 0 0-2.41Z"/><use xlink:href="#U1"/><use xlink:href="#U1"/><path d="M107.29 43.11a1.21 1.2 0 1 0 0 2.4 1.21 1.2 0 1 0 0-2.41Z"/><use xlink:href="#V1"/><use xlink:href="#V1"/><path d="M112.36 39.45a1.21 1.2 0 1 0 0 2.4 1.21 1.2 0 1 0 0-2.41Z"/><use xlink:href="#W1"/><use xlink:href="#W1"/><path d="M127.39 30.39a1.21 1.2 0 1 0 0 2.4 1.21 1.2 0 1 0 0-2.41Z"/><use xlink:href="#X1"/><use xlink:href="#X1"/><path d="M125.46 24.28a1.21 1.2 0 1 0 0 2.4 1.21 1.2 0 1 0 0-2.41Z"/><use xlink:href="#Y1"/><use xlink:href="#Y1"/><path d="M114.73 15.99a1.21 1.2 0 1 0 0 2.4 1.21 1.2 0 1 0 0-2.41Z"/><use xlink:href="#Z1"/><use xlink:href="#Z1"/><path d="M105.59 22.37a1.21 1.2 0 1 0 0 2.4 1.21 1.2 0 1 0 0-2.41Z"/><use xlink:href="#a2"/><use xlink:href="#a2"/><path d="M73.6 19.15a1.21 1.2 0 1 0 0 2.4 1.21 1.2 0 1 0 0-2.41Z"/><use xlink:href="#b2"/><use xlink:href="#b2"/><path d="M45.58 18.06a1.21 1.2 0 1 0 0 2.4 1.21 1.2 0 1 0 0-2.41Z"/><use xlink:href="#c2"/><use xlink:href="#c2"/><path d="M36.44 19.04a1.21 1.2 0 1 0 0 2.4 1.21 1.2 0 1 0 0-2.41Z"/><use xlink:href="#d2"/><use xlink:href="#d2"/><path d="M36.66 13.48a1.21 1.2 0 1 0 0 2.4 1.21 1.2 0 1 0 0-2.41Z"/><use xlink:href="#e2"/><use xlink:href="#e2"/><path d="M31.82 12.93a1.21 1.2 0 1 0 0 2.4 1.21 1.2 0 1 0 0-2.41Z"/><use xlink:href="#f2"/><use xlink:href="#f2"/><path d="M29.72 17.79a1.21 1.2 0 1 0 0 2.4 1.21 1.2 0 1 0 0-2.41Z"/><use xlink:href="#g2"/><use xlink:href="#g2"/><path d="M23.28 53.86a1.21 1.2 0 1 0 0 2.4 1.21 1.2 0 1 0 0-2.41Z"/><use xlink:href="#h2"/><use xlink:href="#h2"/><path d="M18.99 74.55a1.21 1.2 0 1 0 0 2.4 1.21 1.2 0 1 0 0-2.41Z"/><use xlink:href="#i2"/><use xlink:href="#i2"/><path d="M18.49 80.72a1.21 1.2 0 1 0 0 2.4 1.21 1.2 0 1 0 0-2.41Z"/><use xlink:href="#j2"/><use xlink:href="#j2"/><path d="M16.57 88.52a1.21 1.2 0 1 0 0 2.4 1.21 1.2 0 1 0 0-2.41Z"/><use xlink:href="#k2"/><use xlink:href="#k2"/><path d="M21.41 91.36a1.21 1.2 0 1 0 0 2.4 1.21 1.2 0 1 0 0-2.41Z"/><use xlink:href="#l2"/><use xlink:href="#l2"/><path d="M27.63 106.64a1.21 1.2 0 1 0 0 2.4 1.21 1.2 0 1 0 0-2.41Z"/><use xlink:href="#m2"/><use xlink:href="#m2"/><path d="M30.05 120.23a1.21 1.2 0 1 0 0 2.4 1.21 1.2 0 1 0 0-2.41Z"/><use xlink:href="#n2"/><use xlink:href="#n2"/><path d="M27.74 130.54a1.21 1.2 0 1 0 0 2.4 1.21 1.2 0 1 0 0-2.41Z"/><use xlink:href="#o2"/><use xlink:href="#o2"/><path d="M25.54 138.46a1.21 1.2 0 1 0 0 2.4 1.21 1.2 0 1 0 0-2.41Z"/><use xlink:href="#p2"/><use xlink:href="#p2"/><path d="M20.53 138.73a1.21 1.2 0 1 0 0 2.4 1.21 1.2 0 1 0 0-2.41Z"/><use xlink:href="#q2"/><use xlink:href="#q2"/><path d="M12.93 123.45a1.21 1.2 0 1 0 0 2.4 1.21 1.2 0 1 0 0-2.41Z"/><use xlink:href="#r2"/><use xlink:href="#r2"/><path d="M17.06 106.75a1.21 1.2 0 1 0 0 2.4 1.21 1.2 0 1 0 0-2.41Z"/><use xlink:href="#s2"/><use xlink:href="#s2"/><path d="M37.1 88.14a1.21 1.2 0 1 0 0 2.4 1.21 1.2 0 1 0 0-2.41Z"/><use xlink:href="#t2"/><use xlink:href="#t2"/><path d="M47.45 79.57a1.21 1.2 0 1 0 0 2.4 1.21 1.2 0 1 0 0-2.41Z"/><use xlink:href="#u2"/><use xlink:href="#u2"/><path d="M49.93 86.94a1.21 1.2 0 1 0 0 2.4 1.21 1.2 0 1 0 0-2.41Z"/><use xlink:href="#v2"/><use xlink:href="#v2"/><path d="M50.2 112.81a1.21 1.2 0 1 0 0 2.4 1.21 1.2 0 1 0 0-2.41Z"/><use xlink:href="#w2"/><use xlink:href="#w2"/><path d="M51.47 122.96a1.21 1.2 0 1 0 0 2.4 1.21 1.2 0 1 0 0-2.41Z"/><use xlink:href="#x2"/><use xlink:href="#x2"/><path d="M52.46 129.73a1.21 1.2 0 1 0 0 2.4 1.21 1.2 0 1 0 0-2.41Z"/><use xlink:href="#y2"/><use xlink:href="#y2"/><path d="M57.69 132.24a1.21 1.2 0 1 0 0 2.4 1.21 1.2 0 1 0 0-2.41Z"/><use xlink:href="#z2"/><use xlink:href="#z2"/><path d="M77.57 136.22a1.21 1.2 0 1 0 0 2.4 1.21 1.2 0 1 0 0-2.41Z"/><use xlink:href="#A2"/><use xlink:href="#A2"/><path d="M86.21 140.86a1.21 1.2 0 1 0 0 2.4 1.21 1.2 0 1 0 0-2.41Z"/><use xlink:href="#B2"/><use xlink:href="#B2"/><path d="M85.05 136.44a1.21 1.2 0 1 0 0 2.4 1.21 1.2 0 1 0 0-2.41Z"/><use xlink:href="#C2"/><use xlink:href="#C2"/><path d="M70.63 125.91a1.21 1.2 0 1 0 0 2.4 1.21 1.2 0 1 0 0-2.41Z"/><use xlink:href="#D2"/><use xlink:href="#D2"/><path d="M64.57 117.39a1.21 1.2 0 1 0 0 2.4 1.21 1.2 0 1 0 0-2.41Z"/><use xlink:href="#E2"/><use xlink:href="#E2"/><path d="M65.56 112.53a1.21 1.2 0 1 0 0 2.4 1.21 1.2 0 1 0 0-2.41Z"/><use xlink:href="#F2"/><use xlink:href="#F2"/><path d="M59.23 110.02a1.21 1.2 0 1 0 0 2.4 1.21 1.2 0 1 0 0-2.41Z"/><use xlink:href="#G2"/><use xlink:href="#G2"/><path d="M54.61 106.86a1.21 1.2 0 1 0 0 2.4 1.21 1.2 0 1 0 0-2.41Z"/><use xlink:href="#H2"/><use xlink:href="#H2"/><path d="M48.61 101.29a1.21 1.2 0 1 0 0 2.4 1.21 1.2 0 1 0 0-2.41Z"/><use xlink:href="#I2"/><use xlink:href="#I2"/><path d="M56.09 99.76a1.21 1.2 0 1 0 0 2.4 1.21 1.2 0 1 0 0-2.41Z"/><use xlink:href="#J2"/><use xlink:href="#J2"/><path d="M79.27 104.46a1.21 1.2 0 1 0 0 2.4 1.21 1.2 0 1 0 0-2.41Z"/><use xlink:href="#K2"/><use xlink:href="#K2"/><path d="M86.04 108.99a1.21 1.2 0 1 0 0 2.4 1.21 1.2 0 1 0 0-2.41Z"/><use xlink:href="#L2"/><use xlink:href="#L2"/><path d="M99.42 115.1a1.21 1.2 0 1 0 0 2.4 1.21 1.2 0 1 0 0-2.41Z"/><use xlink:href="#M2"/><use xlink:href="#M2"/><path d="M102.06 121.05a1.21 1.2 0 1 0 0 2.4 1.21 1.2 0 1 0 0-2.41Z"/><use xlink:href="#N2"/><use xlink:href="#N2"/><path d="M97.99 128.96a1.21 1.2 0 1 0 0 2.4 1.21 1.2 0 1 0 0-2.41Z"/><use xlink:href="#O2"/><use xlink:href="#O2"/><path d="M98.05 135.46a1.21 1.2 0 1 0 0 2.4 1.21 1.2 0 1 0 0-2.41Z"/><use xlink:href="#P2"/><use xlink:href="#P2"/><path d="M104.76 134.53a1.21 1.2 0 1 0 0 2.4 1.21 1.2 0 1 0 0-2.41Z"/><use xlink:href="#Q2"/><use xlink:href="#Q2"/><path d="M118.47 127.98a1.21 1.2 0 1 0 0 2.4 1.21 1.2 0 1 0 0-2.41Z"/><use xlink:href="#R2"/><use xlink:href="#R2"/><path d="M136.14 120.94a1.21 1.2 0 1 0 0 2.4 1.21 1.2 0 1 0 0-2.41Z"/><use xlink:href="#S2"/><use xlink:href="#S2"/><path d="M142.47 114.39a1.21 1.2 0 1 0 0 2.4 1.21 1.2 0 1 0 0-2.41Z"/><use xlink:href="#T2"/><use xlink:href="#T2"/><path d="M147.32 106.8a1.21 1.2 0 1 0 0 2.4 1.21 1.2 0 1 0 0-2.41Z"/><use xlink:href="#U2"/><use xlink:href="#U2"/><path d="M148.59 101.24a1.21 1.2 0 1 0 0 2.4 1.21 1.2 0 1 0 0-2.41Z"/><use xlink:href="#V2"/><use xlink:href="#V2"/><path d="M152.77 98.4a1.21 1.2 0 1 0 0 2.4 1.21 1.2 0 1 0 0-2.41Z"/><use xlink:href="#W2"/><use xlink:href="#W2"/><path d="M149.69 92.45a1.21 1.2 0 1 0 0 2.4 1.21 1.2 0 1 0 0-2.41Z"/><use xlink:href="#X2"/><use xlink:href="#X2"/><path d="M147.92 83.39a1.21 1.2 0 1 0 0 2.4 1.21 1.2 0 1 0 0-2.41Z"/><use xlink:href="#Y2"/><use xlink:href="#Y2"/><path d="M151.39 73.62a1.21 1.2 0 1 0 0 2.4 1.21 1.2 0 1 0 0-2.41Z"/><use xlink:href="#Z2"/><use xlink:href="#Z2"/><path d="M146.71 75.64a1.21 1.2 0 1 0 0 2.4 1.21 1.2 0 1 0 0-2.41Z"/><use xlink:href="#a3"/><use xlink:href="#a3"/><path d="M136.14 94.58a1.21 1.2 0 1 0 0 2.4 1.21 1.2 0 1 0 0-2.41Z"/><use xlink:href="#b3"/><use xlink:href="#b3"/><path d="M131.35 110.35a1.21 1.2 0 1 0 0 2.4 1.21 1.2 0 1 0 0-2.41Z"/><use xlink:href="#c3"/><use xlink:href="#c3"/><path d="M129.7 118.1a1.21 1.2 0 1 0 0 2.4 1.21 1.2 0 1 0 0-2.41Z"/><use xlink:href="#d3"/><use xlink:href="#d3"/><path d="M127.77 125.96a1.21 1.2 0 1 0 0 2.4 1.21 1.2 0 1 0 0-2.41Z"/><use xlink:href="#e3"/><use xlink:href="#e3"/><path d="M124.42 122.74a1.21 1.2 0 1 0 0 2.4 1.21 1.2 0 1 0 0-2.41Z"/><use xlink:href="#f3"/><use xlink:href="#f3"/><path d="M122.54 114.06a1.21 1.2 0 1 0 0 2.4 1.21 1.2 0 1 0 0-2.41Z"/><use xlink:href="#g3"/><use xlink:href="#g3"/><path d="M119.63 109.26a1.21 1.2 0 1 0 0 2.4 1.21 1.2 0 1 0 0-2.41Z"/><use xlink:href="#h3"/><use xlink:href="#h3"/><path d="M122.76 105.71a1.21 1.2 0 1 0 0 2.4 1.21 1.2 0 1 0 0-2.41Z"/><use xlink:href="#i3"/><use xlink:href="#i3"/><path d="M115.17 115.92a1.21 1.2 0 1 0 0 2.4 1.21 1.2 0 1 0 0-2.41Z"/><use xlink:href="#j3"/><use xlink:href="#j3"/><path d="M114.01 111.72a1.21 1.2 0 1 0 0 2.4 1.21 1.2 0 1 0 0-2.41Z"/><use xlink:href="#k3"/><use xlink:href="#k3"/><path d="M109 107.4a1.21 1.2 0 1 0 0 2.4 1.21 1.2 0 1 0 0-2.41Z"/><use xlink:href="#l3"/><use xlink:href="#l3"/><path d="M113.3 99.65a1.21 1.2 0 1 0 0 2.4 1.21 1.2 0 1 0 0-2.41Z"/><use xlink:href="#m3"/><use xlink:href="#m3"/><path d="M103.22 100.14a1.21 1.2 0 1 0 0 2.4 1.21 1.2 0 1 0 0-2.41Z"/><use xlink:href="#n3"/><use xlink:href="#n3"/><path d="M107.85 101.07a1.21 1.2 0 1 0 0 2.4 1.21 1.2 0 1 0 0-2.41Z"/><use xlink:href="#o3"/><use xlink:href="#o3"/><path d="M108.45 95.78a1.21 1.2 0 1 0 0 2.4 1.21 1.2 0 1 0 0-2.41Z"/><use xlink:href="#p3"/><use xlink:href="#p3"/><path d="M116.21 91.19a1.21 1.2 0 1 0 0 2.4 1.21 1.2 0 1 0 0-2.41Z"/><use xlink:href="#q3"/><use xlink:href="#q3"/><path d="M129.26 80.22a1.21 1.2 0 1 0 0 2.4 1.21 1.2 0 1 0 0-2.41Z"/><use xlink:href="#r3"/><use xlink:href="#r3"/><path d="M135.04 75.69a1.21 1.2 0 1 0 0 2.4 1.21 1.2 0 1 0 0-2.41Z"/><use xlink:href="#s3"/><use xlink:href="#s3"/><path d="M139.01 70.84a1.21 1.2 0 1 0 0 2.4 1.21 1.2 0 1 0 0-2.41Z"/><use xlink:href="#t3"/><use xlink:href="#t3"/><path d="M141.92 66.14a1.21 1.2 0 1 0 0 2.4 1.21 1.2 0 1 0 0-2.41Z"/><use xlink:href="#u3"/><use xlink:href="#u3"/><path d="M147.43 65.98a1.21 1.2 0 1 0 0 2.4 1.21 1.2 0 1 0 0-2.41Z"/><use xlink:href="#v3"/><use xlink:href="#v3"/><path d="M148.92 60.9a1.21 1.2 0 1 0 0 2.4 1.21 1.2 0 1 0 0-2.41Z"/><use xlink:href="#w3"/><use xlink:href="#w3"/><path d="M141.59 55.5a1.21 1.2 0 1 0 0 2.4 1.21 1.2 0 1 0 0-2.41Z"/><use xlink:href="#x3"/><use xlink:href="#x3"/><path d="M123.87 55.61a1.21 1.2 0 1 0 0 2.4 1.21 1.2 0 1 0 0-2.41Z"/><use xlink:href="#y3"/><use xlink:href="#y3"/><path d="M114.56 52.44a1.21 1.2 0 1 0 0 2.4 1.21 1.2 0 1 0 0-2.41Z"/><use xlink:href="#z3"/><use xlink:href="#z3"/><path d="M93.92 53.32a1.21 1.2 0 1 0 0 2.4 1.21 1.2 0 1 0 0-2.41Z"/><use xlink:href="#A3"/><use xlink:href="#A3"/><path d="M82.8 53.75a1.21 1.2 0 1 0 0 2.4 1.21 1.2 0 1 0 0-2.41Z"/><use xlink:href="#B3"/><use xlink:href="#B3"/><path d="M65.4 53.43a1.21 1.2 0 1 0 0 2.4 1.21 1.2 0 1 0 0-2.41Z"/><use xlink:href="#C3"/><use xlink:href="#C3"/><path d="M59.29 59.54a1.21 1.2 0 1 0 0 2.4 1.21 1.2 0 1 0 0-2.41Z"/><use xlink:href="#D3"/><use xlink:href="#D3"/><path d="M57.47 69.36a1.21 1.2 0 1 0 0 2.4 1.21 1.2 0 1 0 0-2.41Z"/><use xlink:href="#E3"/><use xlink:href="#E3"/><path d="M59.95 74.71a1.21 1.2 0 1 0 0 2.4 1.21 1.2 0 1 0 0-2.41Z"/><use xlink:href="#F3"/><use xlink:href="#F3"/><path d="M70.13 75.09a1.21 1.2 0 1 0 0 2.4 1.21 1.2 0 1 0 0-2.41Z"/><use xlink:href="#G3"/><use xlink:href="#G3"/><path d="M75.75 69.04a1.21 1.2 0 1 0 0 2.4 1.21 1.2 0 1 0 0-2.41Z"/><use xlink:href="#H3"/><use xlink:href="#H3"/><path d="M73.55 60.41a1.21 1.2 0 1 0 0 2.4 1.21 1.2 0 1 0 0-2.41Z"/><use xlink:href="#I3"/><use xlink:href="#I3"/><path d="M67.66 58.34a1.21 1.2 0 1 0 0 2.4 1.21 1.2 0 1 0 0-2.41Z"/><use xlink:href="#J3"/><use xlink:href="#J3"/><path d="M51.47 58.61a1.21 1.2 0 1 0 0 2.4 1.21 1.2 0 1 0 0-2.41Z"/><use xlink:href="#K3"/><use xlink:href="#K3"/><path d="M35.78 64.01a1.21 1.2 0 1 0 0 2.4 1.21 1.2 0 1 0 0-2.41Z"/><use xlink:href="#L3"/><use xlink:href="#L3"/><path d="M21.91 67.51a1.21 1.2 0 1 0 0 2.4 1.21 1.2 0 1 0 0-2.41Z"/><use xlink:href="#M3"/><use xlink:href="#M3"/><path d="M7.98 70.02a1.21 1.2 0 1 0 0 2.4 1.21 1.2 0 1 0 0-2.41Z"/><use xlink:href="#N3"/><use xlink:href="#N3"/><path d="M5.28 64.34a1.21 1.2 0 1 0 0 2.4 1.21 1.2 0 1 0 0-2.41Z"/><use xlink:href="#O3"/><use xlink:href="#O3"/><path d="M8.31 53.92a1.21 1.2 0 1 0 0 2.4 1.21 1.2 0 1 0 0-2.41Z"/><use xlink:href="#P3"/><use xlink:href="#P3"/><path d="M23.45 40.55a1.21 1.2 0 1 0 0 2.4 1.21 1.2 0 1 0 0-2.41Z"/><use xlink:href="#Q3"/><use xlink:href="#Q3"/><path d="M44.09 33.94a1.21 1.2 0 1 0 0 2.4 1.21 1.2 0 1 0 0-2.41Z"/><use xlink:href="#R3"/><use xlink:href="#R3"/><path d="M54.11 36.29a1.21 1.2 0 1 0 0 2.4 1.21 1.2 0 1 0 0-2.41Z"/><use xlink:href="#S3"/><use xlink:href="#S3"/><path d="M57.31 31.1a1.21 1.2 0 1 0 0 2.4 1.21 1.2 0 1 0 0-2.41Z"/><use xlink:href="#T3"/><use xlink:href="#T3"/><path d="M59.12 11.35a1.21 1.2 0 1 0 0 2.4 1.21 1.2 0 1 0 0-2.41Z"/><use xlink:href="#U3"/><use xlink:href="#U3"/><path d="M58.85 16.15a1.21 1.2 0 1 0 0 2.4 1.21 1.2 0 1 0 0-2.41Z"/><use xlink:href="#V3"/><use xlink:href="#V3"/><path d="M83.24 31.92a1.21 1.2 0 1 0 0 2.4 1.21 1.2 0 1 0 0-2.41Z"/><use xlink:href="#W3"/><use xlink:href="#W3"/><path d="M83.07 40a1.21 1.2 0 1 0 0 2.4 1.21 1.2 0 1 0 0-2.41Z"/><use xlink:href="#X3"/><use xlink:href="#X3"/><path d="M57.03 42.46a1.21 1.2 0 1 0 0 2.4 1.21 1.2 0 1 0 0-2.41Z"/><use xlink:href="#Y3"/><use xlink:href="#Y3"/><path d="M39.85 42.07a1.21 1.2 0 1 0 0 2.4 1.21 1.2 0 1 0 0-2.41Z"/><use xlink:href="#Z3"/><use xlink:href="#Z3"/><path d="M44.31 39.78a1.21 1.2 0 1 0 0 2.4 1.21 1.2 0 1 0 0-2.41Z"/><use xlink:href="#a4"/><use xlink:href="#a4"/><path d="M83.4 24.5a1.21 1.2 0 1 0 0 2.4 1.21 1.2 0 1 0 0-2.41Z"/><use xlink:href="#b4"/><use xlink:href="#b4"/><path d="M110.27 21.72a1.21 1.2 0 1 0 0 2.4 1.21 1.2 0 1 0 0-2.41Z"/><use xlink:href="#c4"/><use xlink:href="#c4"/><path d="M115.83 21.12a1.21 1.2 0 1 0 0 2.4 1.21 1.2 0 1 0 0-2.41Z"/><use xlink:href="#d4"/><use xlink:href="#d4"/><path d="M120.95 9.55a1.21 1.2 0 1 0 0 2.4 1.21 1.2 0 1 0 0-2.41Z"/><use xlink:href="#e4"/><use xlink:href="#e4"/><path d="M125.57 6.93a1.21 1.2 0 1 0 0 2.4 1.21 1.2 0 1 0 0-2.41Z"/><use xlink:href="#f4"/><use xlink:href="#f4"/><path d="M124.09 13.15a1.21 1.2 0 1 0 0 2.4 1.21 1.2 0 1 0 0-2.41Z"/><use xlink:href="#g4"/><use xlink:href="#g4"/><path d="M91.93 17.62a1.21 1.2 0 1 0 0 2.4 1.21 1.2 0 1 0 0-2.41Z"/><use xlink:href="#h4"/><use xlink:href="#h4"/><path d="M93.48 21.94a1.21 1.2 0 1 0 0 2.4 1.21 1.2 0 1 0 0-2.41Z"/><use xlink:href="#i4"/><use xlink:href="#i4"/><path d="M110.49 28.98a1.21 1.2 0 1 0 0 2.4 1.21 1.2 0 1 0 0-2.41Z"/><use xlink:href="#j4"/><use xlink:href="#j4"/><path d="M115.72 28.92a1.21 1.2 0 1 0 0 2.4 1.21 1.2 0 1 0 0-2.41Z"/><use xlink:href="#k4"/><use xlink:href="#k4"/><path d="M137.68 26.79a1.21 1.2 0 1 0 0 2.4 1.21 1.2 0 1 0 0-2.41Z"/><use xlink:href="#l4"/><use xlink:href="#l4"/><path d="M143.91 33.51a1.21 1.2 0 1 0 0 2.4 1.21 1.2 0 1 0 0-2.41Z"/><use xlink:href="#m4"/><use xlink:href="#m4"/><path d="M152.05 47.37a1.21 1.2 0 1 0 0 2.4 1.21 1.2 0 1 0 0-2.41Z"/><use xlink:href="#n4"/><use xlink:href="#n4"/><path d="M156.24 59.16a1.21 1.2 0 1 0 0 2.4 1.21 1.2 0 1 0 0-2.41Z"/><use xlink:href="#o4"/><use xlink:href="#o4"/><path d="M158.22 68.76a1.21 1.2 0 1 0 0 2.4 1.21 1.2 0 1 0 0-2.41Z"/><use xlink:href="#p4"/><use xlink:href="#p4"/><path d="M159.27 80.22a1.21 1.2 0 1 0 0 2.4 1.21 1.2 0 1 0 0-2.41Z"/><use xlink:href="#q4"/><use xlink:href="#q4"/><path d="M160.15 92.23a1.21 1.2 0 1 0 0 2.4 1.21 1.2 0 1 0 0-2.41Z"/><use xlink:href="#r4"/><use xlink:href="#r4"/><path d="M160.64 101.56a1.21 1.2 0 1 0 0 2.4 1.21 1.2 0 1 0 0-2.41Z"/><use xlink:href="#s4"/><use xlink:href="#s4"/><path d="M158.38 110.13a1.21 1.2 0 1 0 0 2.4 1.21 1.2 0 1 0 0-2.41Z"/><use xlink:href="#t4"/><use xlink:href="#t4"/><path d="M155.14 119.63a1.21 1.2 0 1 0 0 2.4 1.21 1.2 0 1 0 0-2.41Z"/><use xlink:href="#u4"/><use xlink:href="#u4"/><path d="M142.14 136.17a1.21 1.2 0 1 0 0 2.4 1.21 1.2 0 1 0 0-2.41Z"/><use xlink:href="#v4"/><use xlink:href="#v4"/><path d="M123.59 146.86a1.21 1.2 0 1 0 0 2.4 1.21 1.2 0 1 0 0-2.41Z"/><use xlink:href="#w4"/><use xlink:href="#w4"/><path d="M95.68 152.43a1.21 1.2 0 1 0 0 2.4 1.21 1.2 0 1 0 0-2.41Z"/><use xlink:href="#x4"/><use xlink:href="#x4"/><path d="M82.08 153.41a1.21 1.2 0 1 0 0 2.4 1.21 1.2 0 1 0 0-2.41Z"/><use xlink:href="#y4"/><use xlink:href="#y4"/><path d="M69.86 156.14a1.21 1.2 0 1 0 0 2.4 1.21 1.2 0 1 0 0-2.41Z"/><use xlink:href="#z4"/><use xlink:href="#z4"/><path d="M56.04 159.36a1.21 1.2 0 1 0 0 2.4 1.21 1.2 0 1 0 0-2.41Z"/><use xlink:href="#A4"/><use xlink:href="#A4"/><path d="M50.31 159.14a1.21 1.2 0 1 0 0 2.4 1.21 1.2 0 1 0 0-2.41Z"/><use xlink:href="#B4"/><use xlink:href="#B4"/><path d="M33.63 155.76a1.21 1.2 0 1 0 0 2.4 1.21 1.2 0 1 0 0-2.41Z"/><use xlink:href="#C4"/><use xlink:href="#C4"/><path d="M28.51 154.07a1.21 1.2 0 1 0 0 2.4 1.21 1.2 0 1 0 0-2.41Z"/><use xlink:href="#D4"/><use xlink:href="#D4"/><path d="M34.02 144.84a1.21 1.2 0 1 0 0 2.4 1.21 1.2 0 1 0 0-2.41Z"/><use xlink:href="#E4"/><use xlink:href="#E4"/><path d="M36.44 133.66a1.21 1.2 0 1 0 0 2.4 1.21 1.2 0 1 0 0-2.41Z"/><use xlink:href="#F4"/><use xlink:href="#F4"/><path d="M36.33 118.1a1.21 1.2 0 1 0 0 2.4 1.21 1.2 0 1 0 0-2.41Z"/><use xlink:href="#G4"/><use xlink:href="#G4"/><path d="M35.06 108.88a1.21 1.2 0 1 0 0 2.4 1.21 1.2 0 1 0 0-2.41Z"/><use xlink:href="#H4"/><use xlink:href="#H4"/><path d="M36.61 101.35a1.21 1.2 0 1 0 0 2.4 1.21 1.2 0 1 0 0-2.41Z"/><use xlink:href="#I4"/><use xlink:href="#I4"/></g></g></g></g><path fill="#94B3CA" d="M110.93 125.08c.16-3.2-.12-6.45-.83-9.58 -.34-1.49-.94-2.92-1.88-4.19 -.89-1.16-2.26-1.77-3.69-1.66 -1.44.05-2.81.71-3.75 1.87 -.94 1.21-1.6 2.64-1.93 4.12 -.72 3.13-1.05 6.33-.83 9.52 .05.88-.61.99-.72.05 -.17-1.66-.28-3.31-.23-4.96 0-1.66.22-3.31.55-4.96 .33-1.71 1.04-3.31 2.09-4.68 .55-.72 1.26-1.33 2.09-1.71 .82-.39 1.7-.67 2.64-.67 1.87-.12 3.68.71 4.84 2.25 .55.71.99 1.48 1.26 2.31 .33.77.55 1.59.71 2.42 .33 1.65.49 3.3.49 4.95 .05 1.65-.06 3.3-.23 4.95 -.06 1.1-.67.99-.67-.12v0Zm28.62.11c-.17-1.66-.28-3.31-.23-4.96 0-1.66.16-3.31.49-4.96 .16-.83.38-1.66.71-2.43 .33-.83.71-1.6 1.26-2.32 1.15-1.49 2.97-2.37 4.84-2.26 .93.05 1.81.27 2.64.66 .82.44 1.54.99 2.09 1.7 1.04 1.37 1.76 2.97 2.09 4.67 .33 1.65.55 3.3.55 4.95 .05 1.65-.06 3.3-.23 4.95 -.12.93-.78.82-.72-.06 .16-3.2-.12-6.45-.83-9.53 -.34-1.49-1-2.92-1.93-4.13 -.94-1.16-2.26-1.82-3.75-1.88 -1.44-.12-2.81.49-3.69 1.65 -.89 1.21-1.55 2.64-1.88 4.18 -.67 3.13-.94 6.33-.83 9.57 .11 1.1-.56 1.21-.67.11v0Z"/><path fill="#FF8AFF" d="M126.51 144.07c-4.13-.34-6.67 2.47-8.04 4.89 1.37 3.96 3.63 6.99 7.48 6.77 3.85-.23 6.16-3.25 7.76-7.11 -1.38-2.04-3.58-4.24-7.22-4.57Z"/><g transform="translate(126.624 143.69)"><path mask="url(#d)" opacity=".35" fill="#FF8AFF" d="M-3.36-1.22s-4.46 8.14 5.61 12.44c10.07 4.29-2.32 6.77-3.75 6 -1.44-.78-10.19-9.14-10.19-9.14l-1.33-5.4 9.63-3.91v0Z"/></g><path fill="#733335" d="M116.49 131.57s-.56 10.24 1.92 17.39c1.37-2.37 3.9-5.24 8.03-4.9 3.63.33 5.83 2.53 7.15 4.56 2.91-7.16 2.86-17.07 2.86-17.07 -11.46 7.92-19.99 0-19.99 0v0Z"/><path fill="#CDEEEE" d="M103.28 147.76c9.68.22 6.05 24.6 5.83 32.53 -.23 7.98 1.43 15.02 1.59 20.2 .11 5.17 2.8 20.75-8.87 20.64 -11.68-.12-4.52-30.45-4.41-36.73 -.06 0-3.86-36.95 5.83-36.67Zm32.81 0c-9.69.22-6.06 24.6-5.84 32.53 .22 7.98-1.44 15.02-1.6 20.2 -.12 5.17-2.81 20.75 8.86 20.64 11.67-.12 4.51-30.45 4.4-36.73 .05 0 3.85-36.95-5.84-36.67v0Z"/><g transform="translate(94.7475 147.544)"><path mask="url(#e)" opacity=".35" fill="#9DEEEE" d="M15.02 28.51L5.38 33.9s-.17 14.09-1.49 20.81c-1.33 6.71-.5 16.18 4.23 19.76 4.73 3.57-9.42 1.65-9.42 1.65s-10.13-8.54-9.86-11.07c.27-2.54-1.93-33.26-1.33-37.28 .6-4.02 5.12-28.91 5.12-28.91l12-2.37 3.63 1.43C6.82 4.08 6 10.3 5.83 16.63c-.17 9.3 9.13 7.15 9.13 7.15v4.67Zm35.23 0L40.06 33.9s-.45 14.09-1.77 20.81c-1.33 6.71-.67 16.18 4.07 19.76 4.73 3.57-9.47 1.65-9.47 1.65s-10.19-8.54-9.86-11.07c.27-2.54-1.93-33.26-1.33-37.28 .6-4.02 5.06-28.91 5.06-28.91l12-2.37 3.63 1.43c-1.11 6.16-1.71 12.44-1.93 18.71 -.17 9.3 9.68 7.15 9.68 7.15l.05 4.67v0Z"/></g><path fill="#DDF5F5" d="M186.02 138.51s.66-7.88 6.82-6.17c0 0 10.24 9.74 0 20.42 -10.24 10.68-20.54 14.03-33.26 17.06 -12.72 3.02-12.23 6.27-24.23 7.65 -12.01 1.37-14.48-4.13-14.37-8.98 .11-4.85 4.45-10.91 15.3-10.69 10.84.22 9.63 4.29 20.64 2.47 11.01-1.82 22.46-7.49 26.26-10.41 3.79-2.92 7.15-6.89 2.8-11.4v0Zm-118.1 2.03s-12.34 2.69-11.24 12.93c1.1 10.24 9.9 12.33 20.14 14.69 10.24 2.36 8.31 7.15 20.59 8.31 12.27 1.15 17.17-4.41 15.96-11.68 -1.22-7.27-13.38-6.83-27.42-6.94 -14.04-.12-18.06-6.5-18.06-6.5V140.5v0Z"/><g transform="translate(56.2099 131.578)"><path mask="url(#f)" opacity=".35" fill="#C2F5F5" d="M11.34 19.15s-4.52 6 1.92 9.3c6.44 3.3 14.2 4.78 17.34 7.65 3.13 2.86 18.38 6.11 28.46 0 10.07-6.12 3.13 14.09 3.13 14.09l-37.11-.78c-.001 0-22.74-11.24-22.74-11.95 0-.72-4.68-23.95-4.68-23.95s17.67-9.42 18.11-9.97c.44-.56 10.18-1.16 10.18-1.16L11.3 19.11Zm52.68 14.58s.05 6.77 11.89 6.33c11.83-.45 16.73-3.86 16.73-3.86s8.2 1.21 26.04-6.01c17.83-7.22 23.78-14.98 23.78-14.98l-3.58 13.37L95.33 47.9H73.3s-4.79-1.6-6.28-1.88c-1.49-.28-4.79-3.75-4.79-3.75l1.76-8.59v0Z"/></g><path fill="#249E7C" d="M70.13 40.79h1.65v39.63h-1.66V40.78Zm13.76 13.76h1.65v13.76h-1.66V54.54Zm110.1-19.82h1.65v30.83h-1.66V34.72ZM179.67 56.2h1.65v15.96h-1.66V56.19Z"/></svg>