<svg viewBox="0 0 512 99" xmlns="http://www.w3.org/2000/svg" xmlns:xlink="http://www.w3.org/1999/xlink"><defs><linearGradient id="a" x1="20.861%" x2="63.425%" y1="20.686%" y2="44.071%"><stop offset="0%" stop-color="#249361"/><stop offset="100%" stop-color="#3ECF8E"/></linearGradient><linearGradient id="b" x1="1.991%" x2="21.402%" y1="-13.159%" y2="34.708%"><stop offset="0%"/><stop offset="100%" stop-opacity="0"/></linearGradient><path id="c" d="M56.17 97.09c-2.53 3.17-7.64 1.43-7.7-2.62l-.89-59.33h39.88c7.22 0 11.25 8.34 6.76 14L56.15 97.07Z"/></defs><path fill="#1F1F1F" d="M253.81 26.41c12.69 0 20 9.7 20 22.58 0 13.14-8.2 22.85-20.45 22.85 -5.87 0-10.21-2.28-12.38-5.11l-.15-.19v20.99h-11.72V27.35h11.36v5.29c1.93-3.36 6.78-6.27 13.3-6.27Zm-102.93-.36c8.58 0 13.19 3.8 15.39 7.68l.19.36v0l.18.36c.05.12.11.24.17.36l.15.36v0l.14.35v0l.13.35c.02.05.04.11.06.17l.11.35v0l.1.34v0l.08.34c.01.05.02.11.04.16l.07.33v0l.06.32v0l.05.31v0l.03.3 -9.79 2.2c-.36-2.56-2.21-5.83-7.14-5.83 -3.09 0-5.56 1.85-5.56 4.32 0 2.05 1.48 3.35 3.74 3.83l.22.04 6.16 1.32c8.54 1.76 12.86 6.97 12.86 13.32 0 7.05-5.47 14.29-16.84 14.29 -8.56 0-13.44-3.65-15.93-7.56l-.24-.38c-.08-.13-.15-.25-.22-.38l-.21-.38c-.1-.19-.19-.38-.28-.56l-.17-.38c-.06-.13-.11-.25-.16-.37l-.15-.37v0l-.13-.37c-.03-.07-.05-.13-.07-.19l-.12-.36v0l-.1-.36v0l-.09-.35v0l-.08-.35v0l-.07-.34v0l-.06-.33v0l-.05-.32v0l-.02-.16 10.04-2.21c.26 3.44 2.82 6.61 7.93 6.61 3.87 0 5.72-2.03 5.72-4.33 0-1.89-1.25-3.45-4.4-4.18l-.28-.07 -5.73-1.33c-8.38-1.86-12.17-6.89-12.17-12.97 0-7.77 6.87-14.21 16.21-14.21Zm294.84 0c8.44 0 13.05 3.68 15.28 7.5l.2.36c.19.36.37.72.53 1.09l.15.36v0l.13.35c.06.17.12.35.18.53l.1.34c.01.05.03.11.04.17l.08.34c.01.05.02.11.04.16l.07.33c.01.05.02.1.03.16l.05.32c0 .05.01.1.02.15l.03.3 -9.79 2.2 -.05-.3c-.05-.26-.11-.51-.19-.77l-.1-.31c-.77-2.22-2.74-4.46-6.82-4.46 -3.09 0-5.56 1.85-5.56 4.32 0 2.05 1.48 3.35 3.74 3.83l.22.04 6.16 1.32c8.54 1.76 12.86 6.97 12.86 13.32 0 7.05-5.47 14.29-16.84 14.29 -8.43 0-13.29-3.54-15.81-7.37l-.24-.38v0l-.23-.38v0l-.21-.38v0l-.2-.38c-.1-.19-.19-.38-.27-.56l-.17-.38v0l-.15-.37c-.03-.07-.05-.13-.07-.19l-.13-.37v0l-.12-.36v0l-.11-.36c-.02-.06-.04-.12-.05-.18l-.09-.35v0l-.08-.35v0l-.07-.34v0l-.06-.33v0l-.05-.32v0l-.02-.16 10.04-2.21c.26 3.44 2.81 6.61 7.93 6.61 3.87 0 5.72-2.03 5.72-4.33 0-1.89-1.25-3.45-4.4-4.18l-.28-.07 -5.73-1.33c-8.38-1.86-12.17-6.89-12.17-12.97 0-7.77 6.87-14.21 16.21-14.21Zm44.85 0c13.39 0 21.41 8.55 21.41 22.49l-.01.6v0l-.02.59v0l-.03.56v0l-.07.98v0l-.07.83v0l-.01.02h-31.02c.26 5.73 5.11 9.88 10.92 9.88 5.35 0 8.33-2.63 9.78-6.39l.08-.24 9.78 2.91c-2.21 7.49-9.08 13.76-19.75 13.76 -11.9 0-22.39-8.56-22.39-23.21 0-13.86 10.22-22.86 21.32-22.86Zm-190.66 0c13.05 0 18.32 7 18.81 15.19l.02.51c0 .17.01.34.01.52l0 .26 0 21.66v0l.01.65v0l.02.68v0l.03.69c0 .11.01.23.02.34l.04.69v0l.05.67v0l.05.65v0l.06.61v0l.06.57v0l.07.51c.01.08.02.15.03.23l.03.21h-10.76c-.21-.88-.36-2.48-.42-3.94l-.03-.66c-.01-.22-.01-.43-.01-.62 -2.21 3.44-6.35 6.44-12.78 6.44 -9.26 0-14.9-6.27-14.9-13.06 0-7.66 5.56-11.97 12.64-13.1l.3-.05 10.66-1.59c2.46-.36 3.26-1.59 3.26-3.09 0-3.09-2.38-5.65-7.32-5.65 -5.02 0-7.83 3.14-8.27 6.84l-.03.21 -10.4-2.21c.7-6.8 6.96-14.3 18.59-14.3Zm101.46 0c13.06 0 18.32 7 18.82 15.19l.02.51c0 .17.01.34.01.52l0 .26 0 21.66v0l.01.65v0l.02.68c0 .11.01.23.01.34l.03.69c0 .11.01.23.02.34l.05.68v0l.05.66v0l.06.63c.01.1.02.2.03.3l.06.57c.03.27.07.52.1.74l.03.21h-10.76c-.14-.61-.26-1.57-.34-2.58l-.05-.68c-.01-.12-.02-.23-.02-.35l-.03-.68c-.02-.33-.02-.65-.02-.95 -2.21 3.44-6.35 6.44-12.78 6.44 -9.26 0-14.9-6.27-14.9-13.06 0-7.66 5.56-11.97 12.64-13.1l.3-.05 10.66-1.59c2.46-.36 3.26-1.59 3.26-3.09 0-3.09-2.38-5.65-7.32-5.65 -5.02 0-7.83 3.14-8.27 6.84l-.03.21 -10.4-2.21c.7-6.8 6.96-14.3 18.59-14.3Zm-212.62 1.32v25.05c0 4.85 2.46 8.73 7.93 8.73 5.1 0 8.09-3.41 8.19-8.3l0-.26V27.35h11.72V62.9c0 .24 0 .49 0 .73l.01.72v0l.01.7v0l.02.68v0l.04.98v0l.03.62v0l.06.88v0l.06.8v0l.08.93v0l.06.58v0l.01.17h-11.2l-.03-.15v0l-.06-.35c-.02-.13-.04-.27-.06-.42l-.05-.47c-.01-.09-.02-.17-.03-.25l-.05-.53v0l-.04-.55v0l-.03-.57c-.01-.1-.01-.2-.02-.29l-.02-.58c-.01-.19-.01-.38-.01-.57 -2.38 4.05-7.41 5.82-11.99 5.82 -10.38 0-16.36-7.52-16.48-16.82l-.01-.31V27.21h11.72ZM342.11 6.9v25.23c1.93-3.09 6.69-5.92 13.13-5.92 12.69 0 20 9.79 20 22.67 0 13.14-8.11 22.94-20.45 22.94 -5.87 0-10.39-2.54-12.72-6.13l-.15-.24v5.29h-11.37V6.86h11.54Zm-34.82 46.32v-1.95l-9.79 1.49c-3 .44-5.38 2.11-5.38 5.47 0 2.55 1.85 5.02 5.64 5.02 4.86 0 9.38-2.32 9.51-9.73l0-.34Zm101.46 0v-1.95l-9.79 1.49c-3 .44-5.38 2.11-5.38 5.47 0 2.55 1.85 5.02 5.64 5.02 4.86 0 9.38-2.32 9.51-9.73l0-.34ZM251.47 36.89c-6 0-10.84 4.49-10.84 12.17 0 7.67 4.84 12.26 10.83 12.26s10.75-4.5 10.75-12.27c0-7.68-4.76-12.18-10.76-12.18Zm101.28-.18c-5.91 0-10.84 4.32-10.84 12.26 0 7.85 4.93 12.35 10.83 12.35 5.99 0 10.75-4.42 10.75-12.36 0-7.95-4.76-12.27-10.76-12.27Zm137.94-1.15c-5.98 0-9.32 4.43-9.68 8.35l-.02.2h19.38c-.18-4.33-3-8.56-9.7-8.56Z"/><use fill="url(#a)" xlink:href="#c"/><use fill="url(#b)" fill-opacity=".2" xlink:href="#c"/><path fill="#3ECF8E" d="M39.95 1.64c2.52-3.18 7.63-1.44 7.69 2.61l.38 59.32H8.63c-7.23 0-11.26-8.35-6.77-14.01L39.92 1.62Z"/></svg>