<svg viewBox="0 0 256 258" xmlns="http://www.w3.org/2000/svg"><path fill="#171D1A" d="M64.07 59.91V.01C47.11 0 30.84 6.76 18.83 18.79 7.11 30.52.37 46.34-.001 62.92l-.02 1.45c.05 17 6.81 33.29 18.78 45.31 11.68 11.72 27.41 18.45 43.88 18.81l1.39.01c16.92-.05 33.14-6.82 45.12-18.84 11.97-12.02 18.72-28.32 18.78-45.32V-.04c-16.22 0-31.84 6.18-43.7 17.3 -11.86 11.11-19.09 26.33-20.22 42.58Zm127.8 68.64h64.07c-.01-16.3-6.16-31.98-17.23-43.9 -11.07-11.92-26.22-19.17-42.4-20.31h59.61c0-17.04-6.73-33.38-18.7-45.45C225.54 7.11 209.79.35 193.28-.03l-1.45-.02c-16.94.05-33.16 6.83-45.13 18.86 -11.68 11.73-18.38 27.53-18.74 44.09l-.02 1.4c.04 17 6.78 33.3 18.75 45.33 11.96 12.02 28.18 18.81 45.11 18.86Zm-127.78-.01H.01c0 16.28 6.14 31.96 17.2 43.88 11.05 11.91 26.19 19.17 42.36 20.32H0c-.001 17.03 6.72 33.37 18.69 45.44 11.68 11.77 27.42 18.53 43.93 18.9l1.44.01c16.92-.06 33.14-6.85 45.11-18.88 11.67-11.74 18.37-27.54 18.73-44.1l.01-1.41c-.05-17.01-6.79-33.31-18.75-45.34 -11.97-12.04-28.19-18.82-45.12-18.88Zm127.98.02h-.16c-16.94.04-33.16 6.81-45.14 18.83 -11.98 12.02-18.73 28.31-18.79 45.32v64.37c16.21-.01 31.82-6.18 43.68-17.29s19.08-26.33 20.22-42.58v59.85c16.95 0 33.22-6.76 45.23-18.78 11.71-11.74 18.45-27.56 18.82-44.14l.01-1.46c-.06-17.01-6.81-33.31-18.79-45.33 -11.98-12.03-28.21-18.8-45.14-18.84Z"/></svg>