<svg viewBox="0 0 512 96" xmlns="http://www.w3.org/2000/svg"><g fill="#171D1A"><path d="M23.84 22.29V0C17.52-.001 11.47 2.51 7 6.98 2.63 11.34.13 17.23-.01 23.4l-.01.53C0 30.25 2.51 36.32 6.97 40.79c4.34 4.36 10.2 6.86 16.33 7l.51 0c6.29-.02 12.33-2.54 16.79-7.01 4.45-4.48 6.96-10.54 6.99-16.87V-.05c-6.04 0-11.85 2.3-16.27 6.43s-7.11 9.8-7.53 15.84ZM71.4 47.83h23.84c-.01-6.07-2.3-11.91-6.41-16.34 -4.12-4.44-9.76-7.14-15.78-7.56h22.18c0-6.35-2.51-12.43-6.96-16.92C83.92 2.62 78.06.11 71.91-.03l-.54-.01c-6.31.01-12.34 2.54-16.8 7.02 -4.35 4.36-6.84 10.24-6.98 16.41l-.01.52c.01 6.32 2.52 12.39 6.97 16.87 4.45 4.47 10.48 7 16.79 7.02Zm-47.56-.01H-.01c-.001 6.06 2.28 11.89 6.4 16.33 4.11 4.43 9.74 7.13 15.76 7.56H-.02c-.001 6.34 2.5 12.42 6.95 16.91 4.34 4.38 10.2 6.89 16.35 7.03l.53 0c6.3-.03 12.33-2.55 16.78-7.03 4.34-4.37 6.83-10.25 6.97-16.41l0-.53c-.02-6.33-2.53-12.4-6.98-16.88 -4.46-4.48-10.49-7.01-16.79-7.03Zm47.62 0h-.06c-6.31.01-12.34 2.53-16.8 7 -4.46 4.47-6.98 10.53-7 16.86v23.95c6.03-.01 11.84-2.3 16.25-6.44 4.41-4.14 7.1-9.8 7.52-15.85v22.27c6.31 0 12.36-2.52 16.83-6.99 4.36-4.37 6.86-10.26 7-16.43l0-.55c-.03-6.33-2.54-12.4-6.99-16.87 -4.46-4.48-10.5-7-16.8-7.02Z"/><path d="M146.35 51.38l-.86-.27v0l-3.31-1.02v0l-4.59-1.39v0l-.86-.28v0l-.58-.2v0l-.38-.14v0l-.33-.13v0l-.28-.13v0l-.24-.12v0l-.14-.08v0l-.12-.08v0l-.11-.08v0l-.09-.08v0l-.08-.08v0l-.07-.09v0l-.05-.09v0l-.04-.09c-.02-.03-.02-.06-.03-.1l-.02-.1v0l-.01-.1c-.01-.02-.01-.04-.01-.06 0-1.21 1.99-1.67 3.73-1.7l.31-.01v0l.28.01v0l.3.02c.05 0 .1.01.16.01l.33.04c1.49.22 3.31.9 3.31 2.67h15.13c0-8.14-7.3-15.3-20.2-15.3 -9.7 0-18.52 5.35-18.52 14.21 0 7.6 5.42 11.89 14.33 14.21l6.07 1.53v0l.97.25v0l.64.17v0l.57.17v0l.35.11v0l.47.16v0l.28.1c.04.01.08.03.13.05l.24.1c.03.01.07.03.11.05l.2.1v0l.18.1c.55.35.76.73.76 1.26 0 1.15-1.48 1.61-2.93 1.78l-.38.03v0l-.38.02v0l-.36.01v0l-.35 0c-.06 0-.11 0-.17 0 -4.2 0-7.04-1.34-7.04-3.58h-15.13c0 8.4 5.16 13.31 13.24 15.19l.67.15c1.94.4 4.04.64 6.28.71l.79.02c.26 0 .53 0 .8 0 10.59 0 20.02-4.65 20.02-14.04l-.01-.34v0l-.02-.34v0l-.02-.35v0l-.03-.35v0l-.04-.36c-.01-.06-.02-.12-.03-.18l-.05-.36v0l-.07-.36c-.02-.07-.03-.13-.04-.19l-.08-.37v0l-.1-.37c-.02-.07-.04-.13-.06-.19l-.12-.37c-.28-.87-.67-1.74-1.22-2.6l-.25-.38c-1.83-2.66-5.19-5.22-11.24-7.15v0Zm50.49 2.65c0 8.24-4.23 10.82-8.21 11.21l-.38.03v0l-.38.01c-.07 0-.13 0-.19 0l-.19 0c-4.12 0-6.54-1.84-7.2-8.1l-.07-.67c-.01-.12-.02-.23-.03-.35l-.05-.72c-.04-.61-.05-1.25-.06-1.93l-.01-20.09h-15.14v27c0 11.89 4.89 19.13 16.28 19.13 5.77-.19 11.3-2.44 15.57-6.35l.89 5.45h14.23V33.4h-15.14l-.01 20.56Zm47.18-21.48c-1.8.13-3.54.63-5.12 1.48 -1.58.84-2.97 2.01-4.07 3.43l-.63-4.02h-14.24v45.23h15.13V61.68c0-11.09 3.38-14.85 7.92-14.85 1.44 0 2.87.3 4.19.89l1.95-13.33c-1.42-1.27-3.27-1.95-5.17-1.88Zm35.57 29.87l-10.87-28.98H251.8l18.95 45.24h17.52l18.96-45.25h-16.91l-10.77 28.96Zm39.69-33.81c1.4-.01 2.78-.43 3.95-1.22 1.17-.79 2.08-1.91 2.62-3.21 .53-1.31.67-2.75.4-4.13 -.28-1.39-.96-2.67-1.95-3.67 -1-1-2.27-1.69-3.65-1.96 -1.38-.28-2.82-.14-4.12.4 -1.31.54-2.42 1.45-3.2 2.63 -.79 1.17-1.21 2.55-1.21 3.97v.19 0c.01.92.2 1.84.57 2.69 .36.85.89 1.62 1.55 2.26 .66.64 1.44 1.15 2.29 1.49 .85.34 1.77.51 2.69.5Zm7.57 4.83h-15.13v45.24h15.12V33.43Zm6.21 22.6c-.08 3.06.45 6.11 1.56 8.96 1.11 2.85 2.78 5.45 4.91 7.64 2.13 2.19 4.68 3.93 7.49 5.11 2.81 1.18 5.83 1.79 8.88 1.78 4.42.15 8.77-1.17 12.37-3.76V61.46c-1.29 1.24-2.81 2.21-4.48 2.86 -1.67.64-3.45.94-5.23.89 -1.23.04-2.46-.17-3.61-.61 -1.16-.45-2.2-1.12-3.09-1.98 -.89-.86-1.6-1.89-2.08-3.03 -.49-1.14-.74-2.37-.74-3.61 0-1.24.24-2.47.73-3.61 .47-1.14 1.18-2.17 2.07-3.03 .88-.86 1.93-1.54 3.08-1.98 1.15-.45 2.37-.65 3.6-.61 1.77-.08 3.54.2 5.2.81 1.66.61 3.19 1.55 4.49 2.75V36.18c-3.6-2.6-7.95-3.92-12.38-3.76 -3.05 0-6.07.62-8.88 1.81 -2.81 1.19-5.36 2.93-7.48 5.12 -2.13 2.18-3.81 4.78-4.93 7.63 -1.12 2.84-1.67 5.88-1.6 8.95Zm76.01-16.63c-1.87-3.67-6.77-6.9-13.62-6.9 -12.91 0-21.81 10.54-21.81 23.51 0 12.96 8.9 23.51 21.8 23.51 6.85 0 11.74-3.22 13.61-6.89l.89 5.99h14.24V33.39h-14.25l-.9 5.99Zm-10.95 25.83h-.32c-2.42-.07-4.71-1.1-6.38-2.85 -1.67-1.76-2.58-4.1-2.54-6.53 .04-2.43 1.03-4.74 2.76-6.44 1.72-1.7 4.04-2.64 6.46-2.63 2.42 0 4.76.97 6.48 2.69 1.71 1.72 2.68 4.06 2.68 6.51 0 2.44-.97 4.78-2.69 6.51 -1.73 1.72-4.06 2.69-6.49 2.69ZM453.28 20h-15.14v13.41h-7.75v14.3h7.74v30.93h15.13V47.7h10.94V33.39h-10.95V19.97Zm37.02 46.12c-5.43 0-7.55-2.51-8.12-4.58l-.07-.27c-.01-.05-.02-.09-.03-.13l-.05-.26c-.02-.09-.03-.17-.03-.25h29.91v-3.94c0-13.24-8.55-24.23-22.52-24.23 -13.89 0-22.52 10.72-22.52 23.24 0 12.69 8.99 23.78 23.31 23.78 13.17 0 20.19-9.66 21.09-15.74l-13.18-1.34c-.94 1.17-2.13 2.11-3.49 2.75 -1.36.63-2.85.94-4.35.91l-.01-.01Zm-.89-20.21c4.45 0 7.21 2.14 7.38 4.47h-14.78c.17-2.33 2.93-4.48 7.38-4.48Z"/></g></svg>