<svg viewBox="0 0 512 125" xmlns="http://www.w3.org/2000/svg"><path fill="#4A4A55" d="M166.66 96.86c-5.43.13-10.76-1.38-15.31-4.33 -4.25-2.81-7.41-6.99-8.94-11.84l9.31-3.43c1.29 2.98 3.4 5.53 6.08 7.36 2.72 1.82 5.94 2.77 9.22 2.7 3.15.16 6.26-.78 8.79-2.67 2.23-1.88 3.44-4.7 3.27-7.61 .01-1.34-.3-2.66-.91-3.85 -.53-1.07-1.22-2.05-2.05-2.91 -1.05-.96-2.24-1.74-3.52-2.33 -1.59-.8-2.9-1.4-3.95-1.81 -1.05-.42-2.59-.97-4.62-1.67 -2.54-.89-4.44-1.59-5.71-2.1 -1.72-.74-3.39-1.58-5-2.52 -1.73-.92-3.31-2.11-4.66-3.52 -1.18-1.38-2.12-2.94-2.81-4.62 -2.7-6.56-.9-14.1 4.46-18.73 3.8-3.36 8.96-5.04 15.49-5.04 5.44 0 9.93 1.2 13.44 3.61 3.41 2.27 5.92 5.66 7.08 9.6l-9.13 3.04c-.92-2.06-2.47-3.78-4.43-4.9 -2.37-1.32-5.05-1.96-7.75-1.86 -2.66-.16-5.28.58-7.47 2.09 -1.82 1.4-2.83 3.6-2.71 5.89 .01 1.74.77 3.4 2.09 4.56 1.26 1.24 2.74 2.24 4.37 2.94 1.52.63 3.83 1.48 6.94 2.56 1.89.69 3.3 1.22 4.22 1.56 .91.34 2.26.93 4.04 1.75 1.42.62 2.78 1.37 4.08 2.23 1.16.83 2.27 1.74 3.32 2.7 1.14.99 2.12 2.16 2.9 3.46 .73 1.35 1.31 2.78 1.71 4.27 .48 1.74.72 3.55.71 5.37 0 6.21-2.13 11.07-6.37 14.59 -4.25 3.51-9.7 5.27-16.35 5.27Zm60.92-1.15l-22.82-66.54h10.64l15.11 46.38c.83 2.49 1.53 5.03 2.09 7.6 .55-2.58 1.25-5.12 2.09-7.61l14.92-46.39h10.55l-22.72 66.53h-9.89Zm52.75 0V29.17h41.25v9.31h-31.37v18.25h20.24v9.31H290.2v20.34h33.45v9.31H280.3Zm68.53 0V29.17h9.88V86.2h32.5v9.5h-42.4Zm79.65-57.04V95.7h-9.89V38.66H399.8v-9.51h47.52v9.5l-18.83-.01Zm39.25 57.03V29.16h41.25v9.31h-31.37v18.25h20.24v9.31h-20.25v20.34h33.45v9.31h-43.35Z"/><path fill="#FF3E00" d="M97.32 16.52C85.71-.09 62.8-5.01 46.24 5.54l-29.1 18.54C9.19 29.07 3.71 37.19 2.06 46.43c-1.39 7.69-.17 15.64 3.46 22.56 -2.5 3.77-4.19 8.02-5 12.47 -1.68 9.41.51 19.11 6.07 26.9 11.6 16.6 34.51 21.52 51.07 10.97l29.09-18.55c7.94-5 13.42-13.12 15.07-22.36 1.38-7.7.16-15.65-3.47-22.57 2.48-3.78 4.18-8.03 4.99-12.48 1.67-9.42-.52-19.12-6.08-26.91"/><path fill="#FFF" d="M43.4 109.96c-9.38 2.43-19.29-1.24-24.81-9.2 -3.35-4.69-4.67-10.52-3.66-16.18 .16-.93.4-1.83.69-2.72l.54-1.68 1.49 1.09c3.44 2.52 7.29 4.45 11.38 5.68l1.08.32 -.1 1.07c-.14 1.53.28 3.06 1.17 4.32 1.66 2.39 4.64 3.5 7.46 2.77 .63-.17 1.23-.44 1.78-.79l29.09-18.55c1.43-.91 2.43-2.38 2.73-4.06 .3-1.71-.1-3.47-1.11-4.88 -1.67-2.4-4.65-3.51-7.48-2.78 -.64.16-1.24.43-1.79.78l-11.11 7.07c-1.83 1.16-3.82 2.03-5.91 2.59 -9.38 2.43-19.29-1.24-24.81-9.2 -3.35-4.69-4.67-10.52-3.66-16.18 .99-5.56 4.28-10.44 9.06-13.45l29.09-18.55c1.82-1.17 3.82-2.04 5.91-2.6 9.37-2.44 19.28 1.23 24.8 9.19 3.34 4.68 4.66 10.51 3.65 16.17 -.17.92-.41 1.82-.7 2.71l-.55 1.67 -1.49-1.1c-3.45-2.54-7.3-4.46-11.39-5.69l-1.09-.33 .09-1.08c.13-1.54-.29-3.07-1.18-4.33 -1.67-2.4-4.65-3.51-7.47-2.78 -.64.16-1.24.43-1.79.78l-29.1 18.54c-1.44.9-2.44 2.37-2.74 4.05 -.31 1.7.09 3.46 1.09 4.87 1.66 2.39 4.64 3.5 7.47 2.77 .63-.17 1.23-.44 1.78-.79l11.1-7.08c1.82-1.17 3.81-2.04 5.9-2.6 9.37-2.44 19.28 1.23 24.8 9.19 3.34 4.68 4.66 10.51 3.65 16.17 -1 5.55-4.29 10.43-9.07 13.44l-29.1 18.53c-1.83 1.16-3.83 2.03-5.92 2.59"/></svg>