<svg viewBox="0 0 256 308" xmlns="http://www.w3.org/2000/svg"><path fill="#FF3E00" d="M239.68 40.7c-28.57-40.89-85-53.01-125.79-27.02L42.24 59.34C22.66 71.65 9.18 91.63 5.1 114.39c-3.42 18.95-.42 38.51 8.53 55.57 -6.14 9.3-10.32 19.75-12.3 30.71 -4.13 23.19 1.27 47.07 14.96 66.24 28.57 40.89 84.99 53 125.78 27.01l71.64-45.67c19.57-12.32 33.05-32.3 37.13-55.06 3.41-18.96.41-38.52-8.54-55.58 6.13-9.31 10.31-19.76 12.29-30.72 4.12-23.2-1.27-47.08-14.97-66.25"/><path fill="#FFF" d="M106.88 270.84c-23.11 6-47.5-3.04-61.11-22.65 -8.24-11.54-11.49-25.9-9.01-39.85 .41-2.27.98-4.51 1.71-6.7l1.34-4.12 3.67 2.69c8.47 6.23 17.96 10.96 28.03 14l2.66.8 -.25 2.65c-.33 3.78.69 7.55 2.89 10.65 4.09 5.9 11.43 8.63 18.39 6.82 1.55-.42 3.04-1.07 4.4-1.94l71.67-45.68c3.54-2.24 5.98-5.86 6.73-9.98 .74-4.21-.24-8.54-2.72-12.02 -4.1-5.91-11.45-8.64-18.41-6.84 -1.56.41-3.04 1.06-4.4 1.93l-27.35 17.43c-4.5 2.85-9.41 5.01-14.56 6.39 -23.11 6-47.5-3.04-61.11-22.65 -8.24-11.54-11.49-25.9-9.01-39.85C42.89 108.23 51 96.2 62.77 88.8l71.66-45.68c4.49-2.87 9.41-5.03 14.56-6.4 23.1-6.01 47.49 3.03 61.1 22.64 8.23 11.53 11.48 25.89 9 39.84 -.42 2.26-.99 4.5-1.72 6.69l-1.35 4.11 -3.67-2.7c-8.48-6.24-17.97-10.98-28.04-14.02l-2.67-.81 .24-2.66c.32-3.79-.71-7.56-2.9-10.66 -4.1-5.91-11.44-8.64-18.4-6.83 -1.56.41-3.05 1.06-4.41 1.93l-71.68 45.67c-3.55 2.23-5.99 5.85-6.73 9.97 -.75 4.2.22 8.53 2.7 12.01 4.09 5.9 11.44 8.63 18.4 6.83 1.55-.42 3.04-1.07 4.4-1.94l27.34-17.43c4.49-2.87 9.4-5.03 14.55-6.4 23.1-6.01 47.49 3.03 61.1 22.64 8.23 11.53 11.48 25.89 9 39.84 -2.46 13.69-10.57 25.71-22.34 33.11l-71.67 45.67c-4.5 2.86-9.42 5.02-14.57 6.39"/></svg>