<svg viewBox="0 0 256 256" xmlns="http://www.w3.org/2000/svg"><path d="M245.23 153.52c14.01-14.02 14.01-36.82-.01-50.83 -6.79-6.79-15.82-10.53-25.42-10.53 -2.28 0-4.53.2-6.72.61 9.53-6.53 15.71-17.5 15.71-29.7 0-19.82-16.13-35.94-35.94-35.94 -12.23 0-23.22 6.2-29.74 15.77 2.15-11.38-1.23-23.54-9.87-32.18C146.45 3.93 137.42.19 127.82.19c-9.6 0-18.63 3.73-25.42 10.52 -8.65 8.64-12.03 20.8-9.87 32.18 -6.52-9.58-17.51-15.78-29.74-15.78 -19.82 0-35.94 16.12-35.94 35.93 0 12.19 6.18 23.17 15.71 29.69 -2.19-.41-4.44-.62-6.72-.62 -9.6 0-18.63 3.73-25.42 10.52 -6.79 6.78-10.53 15.81-10.53 25.41 0 9.59 3.73 18.62 10.52 25.41 6.78 6.78 15.81 10.52 25.41 10.52 2.27 0 4.52-.21 6.71-.62 -9.54 6.52-15.72 17.49-15.72 29.69 0 19.81 16.12 35.93 35.93 35.93 12.22 0 23.21-6.21 29.73-15.78 -2.16 11.37 1.22 23.53 9.86 32.18 6.78 6.78 15.81 10.52 25.41 10.52 9.59 0 18.62-3.74 25.41-10.53 8.64-8.65 12.02-20.81 9.86-32.19 6.51 9.57 17.5 15.77 29.73 15.77 19.81 0 35.93-16.13 35.93-35.94 0-12.2-6.19-23.18-15.72-29.7 2.18.4 4.43.61 6.71.61 9.59 0 18.62-3.74 25.41-10.53"/><path fill="#FFB13B" d="M234.39 113.53c-8.05-8.05-21.1-8.05-29.15 0h-42.19l29.82-29.83c11.38 0 20.61-9.23 20.61-20.62s-9.23-20.62-20.62-20.62 -20.62 9.22-20.62 20.61l-29.83 29.82V50.7c8.04-8.05 8.04-21.1-.01-29.15 -8.05-8.05-21.1-8.05-29.15 0 -8.05 8.04-8.05 21.09 0 29.14v42.18L83.42 63.04c0-11.39-9.23-20.62-20.62-20.62s-20.62 9.22-20.62 20.61c0 11.38 9.22 20.61 20.61 20.61l29.82 29.82H50.42c-8.05-8.05-21.1-8.05-29.15 0 -8.05 8.04-8.05 21.09 0 29.14 8.04 8.04 21.09 8.04 29.14 0h42.18l-29.83 29.82c-11.39 0-20.62 9.22-20.62 20.61 0 11.38 9.22 20.61 20.61 20.61 11.38 0 20.61-9.23 20.61-20.62l29.82-29.83v42.18c-8.05 8.04-8.05 21.09 0 29.14 8.04 8.04 21.09 8.04 29.14 0 8.04-8.05 8.04-21.1 0-29.15v-42.19l29.82 29.82c0 11.38 9.22 20.61 20.61 20.61 11.38 0 20.61-9.23 20.61-20.62s-9.23-20.62-20.62-20.62l-29.83-29.83h42.18c8.04 8.04 21.09 8.04 29.14 0 8.04-8.05 8.04-21.1 0-29.15"/></svg>