<svg viewBox="0 0 256 251" xmlns="http://www.w3.org/2000/svg"><path fill="#7099A6" d="M123.92 11.59l0 11.64 -20.83 0 0 7.57 20.82 0 0 23.18 8.13 0 0-23.19 21.34 0 0-7.58 -21.35 0 0-23.24 -8.14 0Z"/><path fill="#EB912C" d="M55.88 41.12l0 16.89 -31.52 0 0 10.59 31.51 0 0 34.3 11.68 0 0-34.31 31.98 0 0-10.6 -31.99 0 0-33.79 -11.69 0Z"/><path fill="#59879B" d="M187.95 41.12l0 16.89 -31.52 0 0 11.12 31.51 0 0 33.78 12.16 0 0-33.79 31.51 0 0-11.13 -31.52 0 0-33.79 -12.17 0Z"/><path fill="#E8762C" d="M120.9 98.66l0 18.92 -35.07 0 0 14.1 35.06 0 0 37.85 14.19 0 0-37.86 35.06 0 0-14.11 -35.07 0 0-37.86 -14.2 0Z"/><path fill="#5B6591" d="M224 108.21l0 11.87 -21.35 0 0 9.6 21.34 0 0 23.7 10.64 0 0-23.71 21.34 0 0-9.61 -21.35 0 0-23.71 -10.65 0Z"/><path fill="#7099A6" d="M20.82 109.26l0 11.35 -20.83 0 0 8.04 20.82 0 0 22.71 8.13 0 0-22.72 21.34-.76 0-7.29 -21.35 0 0-22.72 -8.14 0Z"/><path fill="#C72035" d="M55.88 162.73l0 16.89 -31.52 0 0 11.12 31.51 0 0 33.78 12.16 0 0-33.79 31.51 0 0-11.13 -31.52 0 0-33.79 -12.17 0Z"/><path fill="#1F447E" d="M187.95 162.73l0 16.89 -31.52 0 0 10.59 31.51 0 0 34.3 12.16 0 0-34.31 31.51 0 0-10.6 -31.52 0 0-33.79 -12.17 0Z"/><path fill="#5B6591" d="M122.93 205.64l0 11.82 -21.35 0 0 9.6 21.34 0 0 23.7 10.64 0 0-23.71 21.34 0 0-9.61 -21.35 0 0-23.71 -10.65 0Z"/></svg>