<svg viewBox="0 0 256 154" xmlns="http://www.w3.org/2000/svg"><defs><linearGradient id="a" x1="-2.778%" x2="100%" y1="32%" y2="67.555%"><stop offset="0%" stop-color="#2298BD"/><stop offset="100%" stop-color="#0ED7B5"/></linearGradient></defs><path fill="url(#a)" d="M128-.001c-34.14 0-55.47 17.06-64 51.2 12.8-17.07 27.73-23.47 44.8-19.2 9.73 2.43 16.69 9.49 24.4 17.31 12.54 12.73 27.07 27.48 58.79 27.48 34.13 0 55.46-17.07 64-51.2 -12.8 17.06-27.74 23.46-44.8 19.2 -9.74-2.44-16.7-9.5-24.41-17.32C174.23 14.72 159.7-.03 127.98-.03Zm-64 76.8c-34.14 0-55.47 17.06-64 51.2 12.8-17.07 27.73-23.47 44.8-19.2 9.73 2.43 16.69 9.49 24.4 17.31 12.54 12.73 27.07 27.48 58.79 27.48 34.13 0 55.46-17.07 64-51.2 -12.8 17.06-27.74 23.46-44.8 19.2 -9.74-2.44-16.7-9.5-24.41-17.32 -12.55-12.74-27.08-27.49-58.8-27.49Z"/></svg>