<svg viewBox="0 0 512 117" xmlns="http://www.w3.org/2000/svg"><g fill="#1B191B"><path d="M125.28 42.82L88.89 6.43c-2.04-2.05-4.45-3.67-7.12-4.77C79.1.55 76.25-.02 73.37-.02c-2.89 0-5.74.56-8.4 1.67 -2.67 1.1-5.08 2.72-7.12 4.76l-16.2 16.26c8.46 1.35 16.16 5.67 21.73 12.19 5.56 6.52 8.61 14.81 8.61 23.38 0 8.57-3.06 16.86-8.62 23.38 -5.57 6.52-13.27 10.84-21.74 12.19l16.26 16.28c2.03 2.04 4.44 3.66 7.11 4.76 2.66 1.1 5.51 1.67 8.39 1.67 2.88 0 5.73-.57 8.39-1.68 2.66-1.11 5.07-2.73 7.11-4.77l36.3-36.4c4.09-4.11 6.39-9.67 6.39-15.47 0-5.8-2.31-11.36-6.4-15.47ZM41.19 23.2l.49-.5c-5.15-.83-10.41-.52-15.43.89 -5.02 1.41-9.67 3.89-13.64 7.27 -3.97 3.38-7.15 7.58-9.34 12.31C1.08 47.9-.05 53.04-.05 58.26c0 5.21 1.13 10.35 3.31 15.09 2.18 4.73 5.36 8.93 9.33 12.31 3.96 3.38 8.61 5.86 13.63 7.27 5.01 1.41 10.27 1.71 15.42.89l-.5-.5c-9.3-9.31-14.53-21.93-14.53-35.08 0-13.16 5.22-25.78 14.52-35.08Z"/><path d="M238.35 39.53h11.8v47h-11.81v-5.76c-2.29 2.31-5.03 4.13-8.05 5.34 -3.02 1.21-6.26 1.79-9.51 1.71 -6.23.03-12.25-2.27-16.86-6.46 -4.97-4.27-7.45-10.43-7.45-18.35 0-7.93 2.48-13.96 7.44-18.35 4.6-4.2 10.62-6.5 16.85-6.46 3.24-.07 6.47.51 9.49 1.72 3.01 1.2 5.75 3.01 8.05 5.31v-5.76Zm-14.88 36.98c3.89.22 7.73-1.07 10.7-3.6 1.33-1.26 2.39-2.78 3.09-4.47 .7-1.7 1.03-3.52.96-5.35 .07-1.85-.25-3.68-.95-5.39 -.71-1.71-1.77-3.24-3.12-4.5 -3.07-2.39-6.84-3.68-10.72-3.68 -3.89 0-7.66 1.29-10.72 3.67 -1.38 1.22-2.47 2.74-3.19 4.43 -.72 1.69-1.06 3.53-.98 5.37 -.08 1.85.25 3.69.97 5.4 .72 1.7 1.81 3.23 3.19 4.47 2.97 2.53 6.81 3.82 10.71 3.59Zm81.39-31.83c4.86 4.35 7.35 10.49 7.35 18.34 0 7.84-2.49 14.08-7.36 18.34 -4.66 4.17-10.7 6.47-16.95 6.45 -3.24.09-6.45-.47-9.46-1.67 -3.01-1.2-5.73-3-8.01-5.29v22.16h-11.81V39.42h11.8v5.64c2.28-2.29 5.01-4.08 8.01-5.27 3-1.2 6.21-1.76 9.44-1.67 6.26-.01 12.3 2.31 16.94 6.51ZM285.22 76.5c3.95.21 7.83-1.1 10.85-3.66 1.34-1.25 2.4-2.78 3.1-4.47 .7-1.7 1.02-3.52.96-5.36 .07-1.84-.26-3.66-.96-5.36 -.71-1.7-1.77-3.22-3.11-4.47 -3.02-2.57-6.91-3.89-10.86-3.68 -3.93-.22-7.78 1.1-10.75 3.67 -1.35 1.24-2.4 2.77-3.11 4.46s-1.03 3.51-.97 5.35c-.08 1.84.25 3.67.95 5.38 .7 1.7 1.76 3.23 3.1 4.49 2.98 2.54 6.83 3.83 10.74 3.59Zm41.26 5.36c-2.9-2.22-5.22-5.1-6.77-8.4 -1.56-3.3-2.3-6.92-2.17-10.56 -.11-3.62.64-7.2 2.17-10.47 1.53-3.28 3.81-6.14 6.65-8.38 5.28-3.83 11.64-5.88 18.15-5.85 8.22 0 16.64 3.28 21.71 9.47 0 .07-8.64 8.65-8.64 8.63 -1.42-2.16-3.37-3.92-5.66-5.11 -2.29-1.2-4.85-1.78-7.43-1.71 -3.73-.04-7.37 1.18-10.32 3.47 -1.53 1.16-2.75 2.68-3.55 4.43 -.8 1.74-1.16 3.66-1.04 5.58 -.12 1.91.23 3.83 1.03 5.58 .79 1.74 2.01 3.27 3.54 4.43 2.94 2.28 6.58 3.5 10.31 3.45 5.25 0 10.7-2.47 13.18-6.94l8.63 8.63 -.1.12c-2.29 2.82-5.22 5.06-8.55 6.51 -4.12 1.95-8.63 2.97-13.19 2.97 -6.51.02-12.84-2.07-18.05-5.96Zm84.73-42.36h11.8v47H411.2v-5.76c-2.3 2.31-5.03 4.12-8.05 5.34 -3.03 1.21-6.26 1.79-9.51 1.71 -6.23.03-12.23-2.28-16.85-6.46 -4.97-4.27-7.45-10.43-7.45-18.35 0-7.93 2.48-13.96 7.44-18.35 4.61-4.2 10.62-6.5 16.85-6.46 3.24-.07 6.47.51 9.49 1.72 3.01 1.2 5.75 3.01 8.06 5.31l-.02-5.76Zm-14.88 36.98c3.9.21 7.74-1.1 10.69-3.66 1.34-1.25 2.4-2.78 3.1-4.47 .7-1.7 1.03-3.52.97-5.36 .06-1.84-.26-3.66-.97-5.36 -.71-1.7-1.77-3.22-3.12-4.47 -3.06-2.39-6.83-3.68-10.71-3.68 -3.88 0-7.65 1.29-10.71 3.67 -1.38 1.22-2.46 2.74-3.18 4.44 -.72 1.69-1.06 3.53-.99 5.37 -.09 1.85.24 3.69.97 5.4 .71 1.7 1.8 3.23 3.18 4.47 2.97 2.53 6.81 3.82 10.71 3.59Zm46.98-29.75c5.25-5.67 12-7.37 20.03-7.37v11.1c-8.74 0-20.04 3.59-20.04 14.8v21.21h-11.81V39.46h11.8v7.24Zm-255.9 26.14c-.34 1.11-1.05 2.08-2.02 2.73 -.97.65-2.13.95-3.29.85 -3.46 0-5.65-2.28-5.65-6.35V50.76h15.07V39.45h-15.08V23.58l-11.81 7.04v8.82h-11.68v11.3h11.59v20.92c-.09 2.18.31 4.35 1.17 6.36 .85 2 2.15 3.8 3.78 5.24 3.43 3.03 7.91 4.63 12.49 4.46 2.57.06 5.13-.45 7.49-1.49 2.35-1.05 4.45-2.6 6.13-4.55l.23-.27s-8.49-8.63-8.5-8.63Zm315.98 0c-.34 1.11-1.04 2.08-2.01 2.74 -.97.65-2.13.95-3.29.85 -3.48 0-5.66-2.28-5.66-6.35V50.77h15.07V39.46h-15.08V23.59h-.08l-11.81 7.04v8.82h-11.61v11.3h11.6v20.92c-.09 2.18.31 4.35 1.17 6.36 .85 2 2.15 3.8 3.78 5.24 3.43 3.03 7.91 4.63 12.49 4.46h.07c2.57.05 5.12-.46 7.47-1.5 2.35-1.05 4.44-2.6 6.12-4.54l.23-.27s-8.52-8.63-8.55-8.63Z"/></g></svg>