<svg viewBox="0 0 512 141" xmlns="http://www.w3.org/2000/svg"><path fill="#FFF" d="M69.46 6.69c3.14 0 5.83 1.89 7.02 4.59 .11.26.38.41.64.41 .18 0 .37-.08.51-.24 1.44-1.73 3.59-2.75 5.87-2.75 .65 0 1.32.08 1.98.26 3.04.81 5.15 3.34 5.59 6.27 .05.34.36.57.68.57 .13 0 .26-.04.38-.13 1.29-.91 2.84-1.4 4.41-1.4 1.29 0 2.61.33 3.81 1.02 2.72 1.57 4.11 4.56 3.77 7.5 -.05.41.29.75.68.75 .07 0 .15-.02.22-.05 .84-.31 1.74-.47 2.63-.47 1.96 0 3.91.74 5.41 2.24 2.22 2.22 2.79 5.47 1.7 8.22 -.18.44.17.93.64.93 .02 0 .04-.01.05-.01 .22-.02.44-.03.67-.03 2.64 0 5.22 1.36 6.64 3.82 1.57 2.72 1.27 6-.49 8.38 -.3.4-.06.99.43 1.08 2.84.49 5.28 2.58 6.08 5.55 .81 3.03-.33 6.13-2.64 7.97 -.4.3-.32.94.14 1.15 2.61 1.21 4.43 3.86 4.43 6.94 0 3.14-1.9 5.83-4.61 7.01 -.47.2-.57.83-.19 1.15 2.21 1.85 3.28 4.88 2.48 7.85 -.82 3.03-3.35 5.15-6.28 5.59 -.5.07-.75.66-.46 1.07 1.65 2.36 1.9 5.56.36 8.22 -1.42 2.45-4 3.82-6.65 3.82 -.29 0-.58-.02-.87-.05 -.03-.01-.06-.01-.08-.01 -.46 0-.81.47-.65.92 .98 2.71.4 5.86-1.78 8.04 -1.5 1.49-3.46 2.24-5.42 2.24 -.96 0-1.92-.18-2.83-.54 -.09-.04-.17-.05-.25-.05 -.39 0-.73.33-.69.74 .25 2.87-1.14 5.77-3.81 7.3 -1.21.69-2.53 1.02-3.82 1.02 -1.64 0-3.25-.53-4.58-1.51 -.13-.09-.26-.14-.4-.14 -.32 0-.63.22-.69.56 -.51 2.84-2.59 5.28-5.57 6.07 -.67.17-1.34.26-1.99.26 -2.35 0-4.56-1.09-6-2.9 -.14-.17-.34-.26-.53-.26 -.26 0-.51.13-.63.39 -1.23 2.61-3.87 4.43-6.95 4.43 -3.15 0-5.84-1.9-7.03-4.6 -.12-.27-.39-.42-.65-.42 -.19 0-.38.07-.52.23 -1.45 1.72-3.6 2.74-5.88 2.74 -.66 0-1.33-.09-1.99-.27 -3.05-.82-5.16-3.35-5.6-6.28 -.06-.36-.37-.58-.69-.58 -.14 0-.27.03-.39.12 -1.3.9-2.85 1.39-4.42 1.39 -1.3 0-2.62-.34-3.82-1.03 -2.73-1.58-4.12-4.57-3.78-7.51 .04-.42-.3-.76-.69-.76 -.08 0-.16.01-.23.04 -.85.3-1.75.46-2.64.46 -1.97 0-3.92-.75-5.42-2.24 -2.23-2.23-2.8-5.48-1.71-8.23 .17-.45-.18-.94-.65-.94 -.03 0-.05 0-.06 0 -.23.01-.45.02-.68.02 -2.65 0-5.23-1.37-6.65-3.83 -1.58-2.73-1.28-6.01.48-8.39 .29-.41.05-1-.44-1.09 -2.85-.5-5.29-2.59-6.09-5.56 -.82-3.04.32-6.14 2.63-7.98 .39-.32.31-.95-.15-1.16 -2.62-1.22-4.44-3.87-4.44-6.95 0-3.15 1.89-5.84 4.6-7.02 .46-.21.56-.84.17-1.16 -2.22-1.86-3.29-4.89-2.49-7.86 .81-3.04 3.34-5.16 6.27-5.6 .49-.08.74-.67.45-1.08 -1.66-2.37-1.91-5.57-.37-8.23 1.41-2.46 3.99-3.83 6.64-3.83 .28 0 .57.01.86.04 .02 0 .05 0 .07 0 .45 0 .8-.48.64-.93 -.99-2.72-.41-5.87 1.77-8.05 1.49-1.5 3.45-2.24 5.41-2.24 .95 0 1.91.17 2.82.53 .08.03.16.04.24.04 .38 0 .72-.34.68-.75 -.26-2.88 1.13-5.78 3.8-7.31 1.2-.7 2.52-1.03 3.81-1.03 1.63 0 3.24.52 4.57 1.5 .12.08.25.12.39.12 .31 0 .62-.23.68-.57 .5-2.85 2.58-5.29 5.56-6.08 .66-.18 1.33-.27 1.98-.27 2.34 0 4.55 1.08 5.99 2.89 .13.17.33.25.52.25 .25 0 .5-.14.62-.4C63.2 8 65.85 6.18 68.93 6.18"/><g fill="#2F2F2F"><path d="M98.16 99.64c-7.01 0-6.46-9.88 0-9.88 6.45 0 7 9.87 0 9.87m-57.85 0c-7.01 0-6.46-9.88 0-9.88 6.45 0 7 9.87 0 9.87m78.99-36.48h-2.38c-4.26 0-7.91-2.54-9.55-6.18 -1.64 3.63-5.29 6.17-9.54 6.17 -4.26 0-7.91-2.54-9.54-6.18 -1.64 3.63-5.29 6.17-9.55 6.17 -4.26 0-7.91-2.54-9.54-6.18 -1.64 3.63-5.29 6.17-9.54 6.17 -4.26 0-7.91-2.54-9.55-6.18 -1.64 3.63-5.29 6.17-9.54 6.17 -4.26 0-7.91-2.54-9.54-6.18 -1.64 3.63-5.29 6.17-9.55 6.17h-2.35c-3.56 3.82-1.31 7.05 7.48 7.05v19.63c0 18.45 21.26 27.67 42.53 27.67 21.26 0 42.53-9.23 42.53-27.68V70.12c8.79 0 11.08-3.24 7.55-7.06"/><path d="M69.92 0c-3.12 0-6.1.97-8.58 2.68 -1.72-.67-3.57-1.03-5.48-1.03 -1.32 0-2.63.17-3.9.51 -3.02.8-5.65 2.52-7.6 4.82 -.56-.07-1.11-.1-1.67-.1 -2.64 0-5.23.69-7.52 2.01 -2.7 1.55-4.8 3.89-6.09 6.61 -3.16.47-6.07 1.93-8.37 4.23 -2.21 2.2-3.63 5-4.17 7.97 -2.89 1.27-5.37 3.43-6.99 6.24 -1.56 2.69-2.21 5.76-1.96 8.77 -2.46 1.96-4.29 4.68-5.13 7.84 -.81 3.01-.64 6.14.38 8.97 -1.87 2.52-2.93 5.63-2.93 8.9 0 3.11.97 6.09 2.69 8.57 -1.15 2.92-1.37 6.19-.52 9.35 .8 3 2.52 5.63 4.82 7.58 -.35 3.11.28 6.33 1.92 9.16 1.55 2.69 3.89 4.79 6.62 6.07 .47 3.1 1.91 6.04 4.23 8.35 2.2 2.2 4.97 3.63 7.98 4.17 1.26 2.86 3.41 5.32 6.24 6.96 2.28 1.31 4.88 2.01 7.51 2.01 .42 0 .85-.02 1.27-.06 1.96 2.44 4.68 4.26 7.84 5.11 1.27.34 2.58.51 3.89.51 1.76 0 3.48-.31 5.1-.89 2.52 1.85 5.62 2.9 8.89 2.9 3.11 0 6.09-.98 8.57-2.69 1.71.67 3.57 1.02 5.47 1.02 1.31 0 2.62-.18 3.89-.52 3.01-.81 5.64-2.53 7.59-4.83 .55.06 1.1.09 1.66.09 2.63 0 5.22-.7 7.51-2.02 2.7-1.56 4.79-3.9 6.08-6.62 3.15-.48 6.06-1.94 8.36-4.24 2.2-2.21 3.62-5.01 4.16-7.98 2.88-1.27 5.36-3.44 6.98-6.25 1.55-2.7 2.2-5.77 1.95-8.78 2.45-1.97 4.28-4.69 5.12-7.85 .8-3.02.63-6.15-.39-8.98 1.86-2.54 2.92-5.64 2.92-8.91 0-3.12-.98-6.1-2.7-8.58 1.14-2.93 1.36-6.2.51-9.36 -.81-3.01-2.53-5.64-4.83-7.59 .34-3.12-.29-6.34-1.93-9.17 -1.56-2.7-3.9-4.8-6.63-6.08 -.48-3.11-1.92-6.05-4.24-8.36 -2.21-2.21-4.98-3.64-7.99-4.18 -1.27-2.87-3.42-5.34-6.25-6.97 -2.29-1.32-4.89-2.02-7.52-2.02 -.43 0-.86.01-1.28.05 -1.97-2.45-4.69-4.27-7.85-5.12 -1.28-.35-2.59-.52-3.9-.52 -1.77 0-3.49.3-5.11.88 -2.53-1.86-5.63-2.91-8.9-2.91m0 7.41c3.13 0 5.81 1.88 6.99 4.57 .11.26.37.41.64.41 .18 0 .37-.08.51-.24 1.43-1.72 3.57-2.74 5.85-2.74 .65 0 1.31.08 1.97.26 3.02.81 5.13 3.33 5.57 6.24 .05.34.36.57.68.57 .13 0 .26-.04.38-.13 1.29-.91 2.83-1.39 4.39-1.39 1.29 0 2.6.32 3.8 1.02 2.71 1.56 4.09 4.54 3.76 7.47 -.05.41.29.75.68.75 .07 0 .15-.02.22-.05 .84-.31 1.73-.47 2.62-.47 1.95 0 3.9.74 5.39 2.23 2.21 2.21 2.78 5.45 1.7 8.19 -.18.44.17.92.63.92 .02 0 .03-.01.05-.01 .22-.02.44-.03.66-.03 2.63 0 5.2 1.36 6.61 3.81 1.56 2.71 1.27 5.98-.49 8.35 -.3.39-.06.98.43 1.07 2.83.49 5.26 2.57 6.05 5.53 .81 3.02-.33 6.11-2.63 7.94 -.39.3-.32.94.14 1.15 2.6 1.21 4.41 3.84 4.41 6.91 0 3.12-1.89 5.8-4.59 6.98 -.47.2-.57.82-.18 1.15 2.2 1.84 3.27 4.86 2.47 7.82 -.82 3.02-3.34 5.13-6.26 5.56 -.5.07-.74.65-.46 1.06 1.65 2.35 1.89 5.54.36 8.19 -1.42 2.44-3.98 3.8-6.62 3.8 -.29 0-.58-.02-.87-.05 -.03-.01-.06-.01-.08-.01 -.46 0-.81.47-.65.91 .98 2.7.39 5.84-1.78 8 -1.49 1.48-3.44 2.23-5.4 2.23 -.96 0-1.91-.18-2.81-.54 -.08-.04-.17-.05-.25-.05 -.39 0-.73.33-.69.74 .25 2.86-1.13 5.74-3.79 7.27 -1.21.69-2.52 1.02-3.81 1.02 -1.64 0-3.24-.53-4.56-1.51 -.13-.09-.26-.13-.4-.13 -.32 0-.63.22-.69.56 -.5 2.83-2.58 5.25-5.55 6.05 -.67.17-1.33.26-1.98.26 -2.34 0-4.54-1.09-5.98-2.89 -.14-.17-.34-.25-.53-.25 -.26 0-.51.13-.63.38 -1.22 2.6-3.86 4.41-6.93 4.41 -3.14 0-5.82-1.89-7-4.58 -.12-.27-.38-.42-.65-.42 -.19 0-.38.07-.52.23 -1.44 1.71-3.58 2.73-5.86 2.73 -.66 0-1.32-.09-1.98-.27 -3.03-.82-5.14-3.34-5.58-6.25 -.06-.35-.37-.58-.69-.58 -.14 0-.27.03-.39.12 -1.3.9-2.84 1.38-4.4 1.38 -1.3 0-2.61-.33-3.81-1.03 -2.72-1.57-4.1-4.55-3.77-7.48 .04-.42-.3-.76-.69-.76 -.08 0-.16.01-.23.03 -.85.3-1.74.46-2.63.46 -1.96 0-3.91-.75-5.4-2.24 -2.22-2.22-2.79-5.46-1.71-8.2 .17-.45-.18-.93-.64-.93 -.03 0-.04 0-.06 0 -.23.01-.45.02-.67.02 -2.64 0-5.21-1.37-6.62-3.82 -1.57-2.72-1.28-5.99.48-8.36 .29-.4.05-.99-.44-1.08 -2.84-.5-5.27-2.58-6.06-5.54 -.82-3.03.32-6.12 2.62-7.95 .38-.31.31-.95-.15-1.16 -2.61-1.22-4.42-3.85-4.42-6.92 0-3.13 1.88-5.81 4.58-6.99 .46-.21.56-.83.17-1.16 -2.21-1.85-3.28-4.87-2.48-7.83 .81-3.03 3.33-5.14 6.25-5.57 .49-.08.73-.66.45-1.07 -1.66-2.36-1.9-5.55-.37-8.2 1.41-2.45 3.97-3.81 6.61-3.81 .28 0 .57.01.86.04 .02 0 .05 0 .07 0 .45 0 .8-.48.63-.92 -.99-2.71-.4-5.85 1.76-8.01 1.49-1.49 3.44-2.24 5.39-2.24 .95 0 1.9.17 2.8.53 .07.03.16.04.24.04 .38 0 .72-.34.68-.75 -.26-2.87 1.12-5.75 3.78-7.28 1.2-.7 2.51-1.03 3.8-1.03 1.63 0 3.23.52 4.55 1.5 .12.08.25.12.39.12 .31 0 .62-.22.68-.57 .49-2.84 2.57-5.26 5.54-6.06 .66-.18 1.32-.27 1.97-.27 2.33 0 4.53 1.08 5.97 2.88 .13.16.33.25.52.25 .25 0 .5-.14.62-.4 1.21-2.61 3.85-4.42 6.91-4.42"/></g><path d="M192.37 93.42c1.07 0 1.98.41 2.73 1.25 .74.83 1.12 1.91 1.12 3.22 0 1.31-.5 2.38-1.48 3.22 -.99.83-2.26 1.25-3.82 1.25h-1.62c-2.93 0-5.61-.77-8.03-2.29 -2.43-1.53-4.32-3.6-5.7-6.23 -1.38-2.63-2.07-5.59-2.07-8.88V62.82h-4.13c-1.26 0-2.28-.36-3.05-1.08 -.78-.72-1.17-1.62-1.17-2.69 0-1.2.38-2.16 1.16-2.87 .77-.72 1.79-1.08 3.04-1.08h4.12V42.19c0-1.32.41-2.39 1.25-3.23 .83-.84 1.91-1.26 3.22-1.26 1.31 0 2.39.41 3.22 1.25 .83.83 1.25 1.91 1.25 3.22v12.9h7.62c1.25 0 2.27.35 3.04 1.07 .77.71 1.16 1.67 1.16 2.86 0 1.07-.39 1.97-1.17 2.68 -.78.71-1.8 1.07-3.05 1.07h-7.63v22.13c0 2.38.65 4.39 1.97 6 1.31 1.61 2.92 2.41 4.84 2.41h3.04Zm34.16-40.41c4.6 0 8.77 1.09 12.51 3.27 3.73 2.18 6.69 5.16 8.87 8.96 2.18 3.79 3.27 8.01 3.27 12.67v19.98c0 1.31-.44 2.4-1.31 3.27 -.87.86-1.96 1.29-3.28 1.29 -1.32 0-2.41-.44-3.28-1.3 -.87-.87-1.31-1.96-1.31-3.28v-3.32c-2.1 2.56-4.64 4.56-7.63 6 -2.99 1.43-6.22 2.15-9.69 2.15 -4.31 0-8.21-1.08-11.71-3.23 -3.5-2.16-6.25-5.13-8.26-8.92 -2.01-3.8-3.01-8.02-3.01-12.68s1.07-8.89 3.22-12.68c2.15-3.8 5.12-6.78 8.92-8.96 3.79-2.19 7.99-3.28 12.59-3.28Zm0 41.66c2.98 0 5.69-.74 8.11-2.2 2.42-1.47 4.31-3.47 5.69-6.01 1.37-2.54 2.06-5.4 2.06-8.56 0-3.17-.69-6.04-2.07-8.61 -1.38-2.57-3.28-4.59-5.7-6.05 -2.43-1.47-5.13-2.2-8.12-2.2 -2.99 0-5.7.73-8.12 2.19 -2.43 1.46-4.34 3.47-5.74 6.04 -1.41 2.56-2.11 5.43-2.11 8.6 0 3.16.7 6.01 2.1 8.55 1.4 2.53 3.31 4.53 5.73 6 2.42 1.46 5.12 2.19 8.11 2.19Zm53 8.06c-4.07 0-7.9-.63-11.48-1.89 -3.59-1.26-6.4-2.9-8.43-4.93 -.78-.78-1.17-1.71-1.17-2.78 0-1.44.59-2.6 1.79-3.5 1.13-.84 2.18-1.26 3.13-1.26 1.19 0 2.33.53 3.4 1.61 1.13 1.25 2.83 2.34 5.11 3.27 2.27.92 4.69 1.38 7.26 1.38 3.4 0 6.05-.57 7.93-1.71 1.88-1.14 2.82-2.66 2.82-4.57 0-1.86-.93-3.39-2.79-4.62 -1.86-1.23-5-2.26-9.42-3.1 -11.48-2.22-17.22-6.93-17.22-14.16 0-2.93.86-5.41 2.6-7.44 1.73-2.04 4-3.56 6.81-4.57 2.8-1.02 5.79-1.53 8.96-1.53 3.88 0 7.36.62 10.44 1.88 3.07 1.25 5.51 2.98 7.3 5.19 .77.95 1.16 1.91 1.16 2.86 0 1.01-.51 1.94-1.53 2.77 -.66.47-1.5.71-2.52.71 -1.56 0-2.96-.57-4.22-1.71 -1.5-1.38-3.08-2.35-4.76-2.92 -1.68-.57-3.71-.86-6.1-.86 -2.76 0-5.01.46-6.78 1.38 -1.77.92-2.65 2.22-2.65 3.89 0 1.19.29 2.19.89 3 .59.8 1.73 1.55 3.4 2.24 1.67.68 4.09 1.35 7.26 2.01 6.51 1.31 11.13 3.13 13.85 5.46 2.72 2.32 4.08 5.34 4.08 9.04 0 2.74-.75 5.24-2.25 7.48s-3.7 4-6.6 5.28c-2.9 1.28-6.39 1.92-10.45 1.92Zm64.74-6.81c.65.71.98 1.61.98 2.68 0 1.31-.54 2.41-1.62 3.31 -.9.71-1.86 1.07-2.87 1.07 -1.32 0-2.4-.54-3.23-1.62L320.49 80.3 316 84.24v13.7c0 1.31-.41 2.37-1.22 3.18 -.81.8-1.87 1.2-3.19 1.2 -1.32 0-2.38-.41-3.19-1.21 -.81-.81-1.22-1.87-1.22-3.19v-61.2c0-1.32.4-2.38 1.21-3.19 .8-.81 1.86-1.21 3.18-1.21 1.31 0 2.37.4 3.18 1.2 .8.8 1.21 1.86 1.21 3.18v36.46l21.79-19.45c.77-.78 1.7-1.17 2.78-1.17 1.25 0 2.27.47 3.04 1.43 .77.77 1.16 1.7 1.16 2.77 0 1.25-.48 2.26-1.44 3.04l-16.51 14.69 17.39 21.32ZM372.87 53c4.6 0 8.77 1.09 12.51 3.27 3.73 2.18 6.69 5.16 8.87 8.96 2.18 3.79 3.27 8.01 3.27 12.67v19.98c0 1.31-.44 2.4-1.31 3.27 -.87.86-1.96 1.29-3.28 1.29 -1.32 0-2.41-.44-3.28-1.3 -.87-.87-1.31-1.96-1.31-3.28v-3.32c-2.1 2.56-4.64 4.56-7.63 6 -2.99 1.43-6.22 2.15-9.69 2.15 -4.31 0-8.21-1.08-11.71-3.23 -3.5-2.16-6.25-5.13-8.26-8.92 -2.01-3.8-3.01-8.02-3.01-12.68s1.07-8.89 3.22-12.68c2.15-3.8 5.12-6.78 8.92-8.96 3.79-2.19 7.99-3.28 12.59-3.28Zm0 41.66c2.98 0 5.69-.74 8.11-2.2 2.42-1.47 4.31-3.47 5.69-6.01 1.37-2.54 2.06-5.4 2.06-8.56 0-3.17-.69-6.04-2.07-8.61 -1.38-2.57-3.28-4.59-5.7-6.05 -2.43-1.47-5.13-2.2-8.12-2.2 -2.99 0-5.7.73-8.12 2.19 -2.43 1.46-4.34 3.47-5.74 6.04 -1.41 2.56-2.11 5.43-2.11 8.6 0 3.16.7 6.01 2.1 8.55 1.4 2.53 3.31 4.53 5.73 6 2.42 1.46 5.12 2.19 8.11 2.19Zm77.48-62.28c1.37 0 2.48.41 3.31 1.25 .83.83 1.25 1.94 1.25 3.31v40.85c0 4.65-1.1 8.88-3.28 12.67 -2.19 3.79-5.15 6.77-8.88 8.96 -3.74 2.18-7.91 3.27-12.52 3.27 -4.61 0-8.81-1.1-12.6-3.28 -3.8-2.19-6.78-5.17-8.93-8.96 -2.16-3.8-3.23-8.02-3.23-12.68s1-8.89 3-12.68c2-3.8 4.75-6.77 8.25-8.92 3.49-2.16 7.39-3.23 11.7-3.23 3.46 0 6.69.71 9.68 2.15 2.98 1.43 5.53 3.43 7.62 6V36.89c0-1.38.43-2.48 1.3-3.32 .86-.84 1.95-1.26 3.27-1.26Zm-20.09 62.27c2.98 0 5.69-.74 8.11-2.2 2.42-1.47 4.31-3.48 5.69-6.05 1.37-2.57 2.06-5.44 2.06-8.61 0-3.17-.69-6.02-2.07-8.56 -1.38-2.54-3.28-4.54-5.7-6.01 -2.43-1.47-5.13-2.2-8.12-2.2 -2.99 0-5.7.73-8.12 2.19 -2.43 1.46-4.34 3.46-5.74 6 -1.41 2.53-2.11 5.39-2.11 8.55 0 3.16.7 6.03 2.1 8.6 1.4 2.56 3.31 4.58 5.73 6.04 2.42 1.46 5.12 2.19 8.11 2.19Zm81.69-17.57c0 1.13-.39 2.07-1.17 2.82 -.78.74-1.77 1.12-2.96 1.12h-34.08c.65 4.18 2.55 7.55 5.69 10.12 3.13 2.56 6.97 3.85 11.52 3.85 1.79 0 3.66-.33 5.6-.99 1.94-.66 3.54-1.47 4.79-2.42 .83-.66 1.82-.99 2.95-.99 1.13 0 2.03.29 2.69.89 1.07.89 1.61 1.91 1.61 3.04 0 1.07-.48 1.97-1.44 2.68 -2.04 1.61-4.56 2.92-7.58 3.94 -3.02 1.01-5.91 1.52-8.66 1.52 -4.91 0-9.3-1.07-13.19-3.19 -3.89-2.13-6.93-5.07-9.11-8.83 -2.19-3.77-3.28-8.04-3.28-12.82 0-4.78 1.03-9.07 3.09-12.86 2.06-3.8 4.93-6.75 8.6-8.88 3.67-2.13 7.84-3.19 12.51-3.19 4.6 0 8.57 1.01 11.92 3.04 3.34 2.03 5.91 4.86 7.71 8.51 1.79 3.64 2.69 7.82 2.69 12.54Zm-22.34-16.4c-4.37 0-7.91 1.19-10.63 3.58 -2.73 2.38-4.44 5.58-5.16 9.58h29.86c-.54-4.01-2.04-7.2-4.49-9.59 -2.46-2.39-5.65-3.59-9.6-3.59Z"/></svg>