<svg viewBox="0 0 256 289" xmlns="http://www.w3.org/2000/svg"><path fill="#FFC131" d="M178.49 104.93c0 15.15-12.29 27.43-27.44 27.43 -15.16 0-27.44-12.29-27.44-27.44 0-15.16 12.28-27.44 27.43-27.44s27.43 12.28 27.43 27.43v0Z"/><path fill="#24C8DB" d="M104.91 156.06a27.43 27.43 0 1 0 0 54.87 27.43 27.43 0 1 0 0-54.88Z" transform="rotate(180 104.911 183.505)"/><path fill="#FFC131" d="M207.93 192.85c-11.03 7.12-23.3 12.12-36.17 14.71 3.73-10.64 4.96-21.99 3.61-33.18 29.95-10.48 49.82-38.97 49.29-70.7 -.53-31.73-21.34-59.55-51.63-69.01 -30.29-9.47-63.23 1.54-81.74 27.32 -13.97 1.57-27.55 5.53-40.17 11.72C64.82 29.49 105.92-.49 152.2-.04c46.28.45 86.79 31.22 99.63 75.69 12.84 44.47-5.03 92.1-43.95 117.15v0ZM52.4 92.82l25.69 3.11c.58-4.97 1.66-9.86 3.24-14.6 -10.17 2.36-19.92 6.23-28.94 11.47v0Z"/><path fill="#24C8DB" d="M47.91 95.57C59 88.36 71.36 83.33 84.32 80.72c-3.93 10.63-5.34 22.03-4.12 33.3 -29.85 10.61-49.55 39.14-48.91 70.82 .64 31.67 21.48 59.38 51.73 68.77 30.25 9.39 63.12-1.62 81.6-27.36 13.95-1.54 27.53-5.46 40.16-11.6 -13.74 44.16-54.82 74.09-101.07 73.64 -46.26-.46-86.74-31.19-99.61-75.62 -12.87-44.43 4.91-92.04 43.76-117.15v0Zm155.52 100.02l-.5.24 .49-.25Z"/></svg>