<svg viewBox="0 0 256 405" xmlns="http://www.w3.org/2000/svg"><path fill="#0AB7C9" d="M255.96 209.71c0-24.78-21.68-45.42-46.45-44.39 -24.78 0-44.39 20.64-44.39 45.41 0 24.77 21.67 45.41 46.44 44.38 25.8 0 45.41-20.65 44.38-45.42v0Zm-136.24 37.15c14.44-8.26 35.09 0 47.47 20.64 12.38 19.6 11.35 43.34-3.1 51.6 -14.45 8.25-35.1 0-48.51-20.65 -11.36-19.61-10.33-43.35 4.12-51.61v0Zm-43.35 50.57c12.38-5.17 27.86 6.19 36.12 25.8 8.25 19.6 5.16 39.21-7.23 44.38 -12.39 5.16-27.87-6.2-36.13-25.81 -8.26-19.61-5.17-39.22 7.22-44.39v0Zm-40.26 39.21c8.25-3.1 20.64 9.28 27.86 27.86 7.22 18.57 5.16 36.12-3.1 39.21 -8.26 3.09-20.65-9.29-27.87-27.87 -6.2-18.58-5.17-36.13 3.09-39.22v0ZM153.76 92.03c15.48 5.16 23.73 26.83 16.51 49.54 -6.2 22.7-24.78 37.15-41.29 31.99 -16.52-5.17-23.74-26.84-17.55-49.55 8.25-22.71 26.83-37.16 42.31-32v0Zm-57.8-51.61c12.38 3.09 18.57 21.67 13.41 42.31 -5.17 20.64-19.61 34.05-33.03 29.93 -12.39-3.1-18.58-22.71-12.39-42.32 5.16-20.65 19.6-34.06 31.99-29.94v0ZM52.61.16c9.28 2.06 12.38 18.57 8.25 38.18 -4.13 19.6-14.45 33.02-23.74 30.96 -8.26-1.04-12.39-18.58-8.26-37.16C32.98 12.53 43.3-1.92 52.59.14V.13Z"/><path fill="#24D6E0" d="M113.53 203.49c1.03 19.6-10.33 36.12-24.78 36.12 -14.45 0-25.81-15.49-25.81-35.1s11.35-36.13 24.77-36.13c14.44 0 25.8 15.48 25.8 35.09Zm-82.57 58.82c-3.1-17.55 3.09-34.06 13.41-36.13 11.35-2.07 21.67 11.35 25.8 28.89 3.09 18.57-3.1 34.05-13.42 36.12 -11.36 3.09-22.71-10.33-25.81-28.9Zm3.09 36.12v0c4.12 16.51 2.06 30.96-6.2 33.02 -7.23 2.06-17.55-9.29-21.68-24.78C1 291.18 4.1 275.7 11.33 273.64c8.25-2.07 17.54 8.25 22.7 24.77Zm33.02-153.79v0c1.03 17.54-7.23 31.99-17.55 31.99 -10.33 0-19.61-14.45-19.61-32 -1.04-17.55 7.22-32 17.54-32s19.6 14.44 19.6 31.99ZM29.91 97.16c1.03 16.51-6.2 28.89-14.45 28.89C7.2 127.08-.03 113.66-.03 98.18c0-15.49 6.19-28.9 14.44-28.9 8.25-1.04 15.48 12.38 15.48 27.86Z"/></svg>