<svg viewBox="0 0 256 256" xmlns="http://www.w3.org/2000/svg"><defs><linearGradient id="a" x1="50%" x2="50%" y1="0%" y2="100%"><stop offset="0%" stop-color="#2AABEE"/><stop offset="100%" stop-color="#229ED9"/></linearGradient></defs><path fill="url(#a)" d="M128 0C94.06 0 61.48 13.494 37.5 37.49 13.5 61.48 0 94.066 0 128c0 33.934 13.5 66.51 37.5 90.51C61.48 242.5 94.06 256 128 256c33.94 0 66.52-13.494 90.5-37.49 24-24 37.5-56.58 37.5-90.51 0-33.934-13.5-66.52-37.5-90.51 -23.98-24-56.56-37.49-90.5-37.49Z"/><path fill="#FFF" d="M57.94 126.64c37.32-16.256 62.2-26.98 74.64-32.152 35.56-14.79 42.94-17.354 47.76-17.45 1.06-.02 3.42.24 4.96 1.49 1.28 1.05 1.64 2.47 1.82 3.46 .16.99.38 3.26.2 5.03 -1.92 20.24-10.26 69.35-14.5 92.02 -1.78 9.59-5.32 12.8-8.74 13.12 -7.44.68-13.08-4.92-20.28-9.64 -11.26-7.39-17.62-11.982-28.56-19.19 -12.64-8.33-4.44-12.91 2.76-20.39 1.88-1.96 34.64-31.75 35.26-34.45 .08-.34.16-1.6-.6-2.27 -.74-.67-1.84-.44-2.64-.26 -1.14.25-19.12 12.15-54 35.68 -5.1 3.5-9.72 5.21-13.88 5.12 -4.56-.1-13.36-2.59-19.9-4.71 -8-2.61-14.38-3.99-13.82-8.41 .28-2.31 3.46-4.67 9.52-7.08v0Z"/></svg>