<svg viewBox="0 0 256 274" xmlns="http://www.w3.org/2000/svg"><path fill="#E55B2D" d="M145.72 42.06v42.06l72.86 42.06V84.11l-72.87-42.07ZM-.01 84.12v42.06l36.43 21.03v-42.07L-.02 84.1Zm109.29 21.03l-36.44 21.03v126.2l36.43 21.03v-84.14l36.43 21.03v-42.07l-36.44-21.04v-42.07Z"/><path fill="#ED8E24" d="M145.72 42.06l-109.3 63.1v42.06l72.86-42.07v42.06l36.43-21.04V42.03Zm109.29 21.03l-36.44 21.03v42.06L255 105.14V63.07Zm-72.87 84.13l-36.44 21.03v42.06l36.43-21.04V147.2Zm-36.44 63.1l-36.44-21.04v84.13l36.43-21.04V210.3Z"/><path fill="#F8BF3C" d="M145.72-.01L-.01 84.12l36.43 21.03 109.29-63.11 72.86 42.06L255 63.06 145.7-.05Zm0 126.2l-36.44 21.03 36.43 21.03 36.43-21.04 -36.44-21.04Z"/></svg>