<svg viewBox="0 0 256 210" xmlns="http://www.w3.org/2000/svg"><rect width="256" height="209.342" rx="5"/><path fill="#FFF" d="M28.24 21.77c-.86-.86-1.89-1.29-3.1-1.29 -1.21 0-2.25.43-3.12 1.29 -.86.85-1.29 1.88-1.29 3.09 0 1.2.43 2.24 1.28 3.09l13.44 13.44 -13.43 13.42c-.87.86-1.3 1.9-1.31 3.11 .01 1.2.44 2.24 1.29 3.09 .86.85 1.9 1.28 3.09 1.29 1.22 0 2.25-.44 3.12-1.3l14.93-14.95c3.13-3.13 3.13-6.26 0-9.4L28.19 21.7v0Zm58.54 33.1c-.87-.87-1.92-1.3-3.14-1.3v-.01H54.8v0c-1.23 0-2.26.43-3.13 1.29 -.87.86-1.3 1.9-1.3 3.12 0 1.22.43 2.27 1.29 3.13 .86.86 1.9 1.29 3.12 1.29v-.01h28.83v0c1.22 0 2.27-.44 3.13-1.3 .86-.87 1.29-1.92 1.29-3.14 0-1.23-.44-2.26-1.3-3.13v0 0Z"/></svg>