<svg viewBox="0 0 256 219" xmlns="http://www.w3.org/2000/svg"><path fill="#C5CF21" d="M256 7.56L142.88 60.44l3.07 1.24 107.024 14.28 3.01-.52V7.54"/><path fill="#70B540" d="M256 75.46L142.88 60.44l1.89 2.78 55.96 42.39 2.61.29 52.64-30.46"/><path fill="#006D69" d="M203.35 105.92l-60.48-45.468 .44 4.02 42.49 129.03 2.95 2.31 14.58-89.91"/><path fill="#008CA9" d="M188.77 195.82l-60.78 22.95 14.88-158.33 45.88 135.37"/><path fill="#70B540" d="M127.98 38.006l.31-.6 .07-22.06 -.39-.49L37.19-.02l1.58 1.402 85.818 35.563 3.37 1.04"/><path fill="#008CA9" d="M0 7.56l113.115 52.88 -3.08 1.24L3.01 75.96l-3.02-.52V7.54"/><path fill="#006D69" d="M127.982 38.006v-23.14l90.8-14.87 -1.59 1.402 -85.82 35.563 -3.41 1.04"/><path fill="#C5CF21" d="M127.854 38.006L37.21 0 -.001 7.569 127.85 38.006"/><path fill="#006D69" d="M0 75.46l113.115-15.02 -1.9 2.78 -55.969 42.39 -2.62.29L-.02 75.44"/><path fill="#C5CF21" d="M52.64 105.92l60.47-45.468 -.44 4.02 -42.5 129.03 -2.96 2.31 -14.59-89.91"/><path fill="#70B540" d="M67.22 195.82l60.76 22.95 -14.89-158.33L67.2 195.81"/><path fill="#008CA9" d="M128.14 38.006L218.784 0l37.21 7.569 -127.86 30.437"/></svg>