<svg viewBox="0 0 512 88" xmlns="http://www.w3.org/2000/svg"><path fill="#333" d="M209.23 25.02c.05 2.59.2 5.44.43 8.53 .23 3.08.56 6.29.99 9.61 .43 3.32.95 6.65 1.55 10 .6 3.34 1.31 6.55 2.12 9.61 2.19-3.47 4.18-7.07 5.97-10.79 1.79-3.73 3.36-7.3 4.72-10.7 1.26-3.19 2.34-6.13 3.23-8.83l.32-1v0l.26-.83v0l.24-.8v0l.23-.76v0l.21-.73v0l.19-.69v0l.18-.66v0l.16-.63c.02-.11.05-.21.07-.3l.14-.58c.04-.19.08-.37.12-.54h8.4l-.21.71v0l-.23.74v0l-.25.78v0l-.27.81v0l-.28.85v0l-.3.88v0l-.32.92v0l-.34.95v0l-.53 1.5v0c-1.16 3.26-2.56 6.78-4.21 10.56 -1.65 3.78-3.5 7.65-5.55 11.6 -2.06 3.95-4.29 7.75-6.72 11.39 -1.85 2.71-3.7 5.26-5.55 7.66 -1.85 2.39-3.83 4.47-5.94 6.23 -2.11 1.76-4.44 3.14-6.98 4.15 -2.55 1.01-5.4 1.51-8.58 1.51 -1.62 0-3.12-.21-4.51-.61 -1.39-.41-2.4-.84-3.04-1.3l2.77-6.59c.57.46 1.35.85 2.33 1.16 .98.31 2.07.47 3.29.47 3.34 0 6.19-.81 8.53-2.43 2.33-1.62 4.54-3.76 6.62-6.42 -2.14-6.99-3.89-14.36-5.25-22.1 -1.36-7.74-2.19-15.6-2.47-23.57h8.22Zm-53.89-14.99l-1.65 7.01h-18.11l-12.74 53.01h-8.41l12.73-53.02h-18.11l1.64-7.02h44.61Zm18.36-7.2l-5.55 22.78c1.32-.47 2.72-.84 4.2-1.13 1.47-.29 2.95-.44 4.46-.44 2.59 0 4.83.36 6.71 1.08 1.87.72 3.39 1.7 4.54 2.94s2 2.74 2.55 4.5c.54 1.76.82 3.68.82 5.76 0 2.54-.41 5.42-1.22 8.66l-5.55 23.04h-8.06l5.11-21.32c.4-1.62.79-3.27 1.16-4.94 .37-1.68.56-3.27.56-4.77 0-2.32-.64-4.24-1.91-5.77 -1.28-1.54-3.64-2.3-7.11-2.3 -1.39 0-2.82.12-4.29.38 -1.48.25-2.7.62-3.69 1.08l-9.01 37.59h-8.06l15.85-65.84 8.4-1.39Zm116.42 21.22c2.54 0 4.69.38 6.45 1.16 1.76.77 3.17 1.83 4.24 3.16 1.06 1.32 1.83 2.87 2.29 4.63 .46 1.76.69 3.62.69 5.58 0 1.27-.11 2.64-.31 4.11 -.18 1.26-.4 2.49-.68 3.69l-5.69 23.63h-8.06l5.11-21.32 .41-1.87v0l.46-2.06c.04-.18.08-.36.12-.55 .37-1.65.56-3.28.56-4.9 0-1.1-.13-2.17-.39-3.21s-.7-1.94-1.3-2.69c-.61-.76-1.46-1.36-2.56-1.82 -1.1-.47-2.46-.7-4.08-.7 -1.85 0-3.64.36-5.38 1.08 -1.74.72-3.18 1.45-4.34 2.2 .11.8.21 1.6.3 2.38 .08.77.12 1.54.12 2.29 0 1.32-.11 2.67-.31 4.02 -.21 1.35-.45 2.69-.74 4.02l-5.55 23.04h-8.06l5.11-21.32 .4-1.88v0l.43-2.08c.03-.19.07-.37.11-.56 .34-1.68.51-3.35.51-5.03 0-1.1-.12-2.16-.35-3.17 -.24-1.02-.63-1.9-1.17-2.65 -.55-.76-1.29-1.35-2.21-1.78 -.93-.44-2.11-.65-3.56-.65 -1.45 0-2.85.08-4.21.25 -1.36.17-2.5.4-3.43.69l-9.19 38.11h-8.06l10.39-43.32c2.59-.81 5.44-1.46 8.53-1.95 3.08-.5 5.84-.74 8.27-.74 2.42 0 4.47.41 6.15 1.25 1.67.83 3 1.94 3.98 3.33 .47-.34 1.09-.71 1.85-1.11l.52-.28v0c1.01-.52 2.16-1.02 3.46-1.48 1.29-.47 2.71-.87 4.24-1.22 1.53-.35 3.1-.52 4.72-.52Zm30.66 22.35c3.34-.12 6.41-.34 9.18-.65 2.77-.32 5.16-.87 7.19-1.65 2.02-.78 3.59-1.84 4.72-3.17 1.12-1.33 1.68-3.07 1.68-5.2 0-.52-.11-1.07-.31-1.65 -.21-.58-.55-1.12-1.04-1.61 -.5-.5-1.17-.9-2.04-1.22 -.87-.32-1.94-.48-3.21-.48 -2.03 0-3.92.43-5.68 1.29 -1.77.86-3.34 2-4.73 3.42 -1.39 1.41-2.57 3.06-3.56 4.93 -.99 1.87-1.74 3.85-2.26 5.93ZM329 71.17c-2.95 0-5.49-.42-7.63-1.26 -2.14-.84-3.93-2-5.38-3.47 -1.45-1.48-2.52-3.2-3.21-5.16 -.7-1.97-1.04-4.05-1.04-6.24 0-4.05.6-7.95 1.81-11.7 1.21-3.76 2.94-7.08 5.19-9.97 2.25-2.89 4.99-5.19 8.22-6.89 3.23-1.71 6.9-2.56 11-2.56 2.36 0 4.4.3 6.1.9 1.7.6 3.08 1.42 4.15 2.46 1.06 1.03 1.86 2.23 2.38 3.59 .51 1.35.77 2.75.77 4.2 0 2.71-.5 5.01-1.48 6.88 -.99 1.87-2.29 3.45-3.9 4.72 -1.62 1.27-3.51 2.25-5.68 2.94s-4.42 1.24-6.76 1.64c-2.34.4-4.71.67-7.11.82l-4.35.25v0l-2.46.13v0c-.06.46-.09.83-.09 1.12v.69 0c0 1.32.15 2.58.47 3.76 .31 1.18.9 2.22 1.77 3.11 .86.89 2.06 1.6 3.59 2.12 1.53.51 3.53.77 6.02.77 1.09 0 2.23-.11 3.42-.31 1.18-.21 2.31-.47 3.37-.78 1.06-.32 2.02-.64 2.85-.96 .83-.32 1.42-.63 1.77-.91l.69 6.84c-.36.19-.77.39-1.26.59l-.43.17v0l-.47.17v0l-.5.17v0l-.53.17c-.1.03-.19.06-.28.09l-.58.18c-.1.03-.2.06-.3.09l-.63.18c-.22.06-.44.12-.66.18 -2.57.72-5.59 1.08-9.06 1.08Zm37.59-20.97l-.22.94v0l-.44 1.86c-.08.3-.15.61-.22.91 -.29 1.21-.44 2.36-.44 3.46 0 1.96.47 3.52 1.42 4.67s2.72 1.87 5.32 2.16l-1.82 6.58c-2.37-.06-4.38-.42-6.03-1.09 -1.65-.67-2.98-1.55-3.99-2.65 -1.02-1.1-1.75-2.4-2.21-3.9 -.47-1.51-.7-3.15-.7-4.94 0-1.33.11-2.72.34-4.16 .23-1.45.54-2.95.95-4.51l10.91-45.4 8.4-1.39 -11.35 47.38Zm22.17-3.82c3.34-.12 6.41-.34 9.18-.65 2.77-.32 5.16-.87 7.19-1.65 2.02-.78 3.59-1.84 4.72-3.17 1.12-1.33 1.68-3.07 1.68-5.2 0-.52-.11-1.07-.31-1.65 -.21-.58-.55-1.12-1.04-1.61 -.5-.5-1.17-.9-2.04-1.22 -.87-.32-1.94-.48-3.21-.48 -2.03 0-3.92.43-5.68 1.29 -1.77.86-3.34 2-4.73 3.42 -1.39 1.41-2.57 3.06-3.56 4.93 -.99 1.87-1.74 3.85-2.26 5.93Zm8.22 24.77c-2.95 0-5.49-.42-7.63-1.26 -2.14-.84-3.93-2-5.38-3.47 -1.45-1.48-2.52-3.2-3.21-5.16 -.7-1.97-1.04-4.05-1.04-6.24 0-4.05.6-7.95 1.81-11.7 1.21-3.76 2.94-7.08 5.19-9.97 2.25-2.89 4.99-5.19 8.22-6.89 3.23-1.71 6.9-2.56 11-2.56 2.36 0 4.4.3 6.1.9 1.7.6 3.08 1.42 4.15 2.46 1.06 1.03 1.86 2.23 2.38 3.59 .51 1.35.77 2.75.77 4.2 0 2.71-.5 5.01-1.48 6.88 -.99 1.87-2.29 3.45-3.9 4.72 -1.62 1.27-3.51 2.25-5.68 2.94s-4.42 1.24-6.76 1.64c-2.34.4-4.71.67-7.11.82l-4.35.25v0l-2.46.13v0l-.03.19v0l-.04.35c-.02.16-.03.31-.03.45l-.01.82v0c0 1.32.15 2.58.47 3.76 .31 1.18.9 2.22 1.77 3.11 .86.89 2.06 1.6 3.59 2.12 1.53.51 3.53.77 6.02.77 1.09 0 2.23-.11 3.42-.31 1.18-.21 2.31-.47 3.37-.78 1.06-.32 2.02-.64 2.85-.96 .83-.32 1.42-.63 1.77-.91l.69 6.84c-.46.24-1.02.5-1.69.76l-.47.17v0l-.5.17v0l-.53.17c-.1.03-.19.06-.28.09l-.58.18c-.1.03-.2.06-.3.09l-.63.18v0l-.66.18v0c-2.57.72-5.59 1.08-9.06 1.08ZM502.06 2.79c2.02-.001 3.94.2 5.76.6 1.81.4 3.19.83 4.11 1.29l-3.21 6.41 -.11-.06v0l-.24-.11v0l-.28-.12c-.1-.04-.21-.08-.32-.13l-.37-.13c-.07-.03-.13-.05-.2-.07l-.43-.14v0l-.47-.15v0c-1.13-.35-2.79-.52-4.99-.52 -1.91 0-3.53.27-4.86.82 -1.33.54-2.46 1.31-3.38 2.29 -.93.98-1.67 2.16-2.21 3.55 -.55 1.38-1.03 2.94-1.43 4.67l-.96 3.89h15.07l-1.56 6.75H486.9l-6.94 28.58 -.71 3.03v0l-.65 2.79v0l-.47 2.05v0c-.52 2.31-1.15 4.47-1.87 6.49 -.73 2.02-1.68 3.97-2.86 5.84 -1.19 1.87-2.79 3.82-4.81 5.84l-7.11-1.04 .3-.4v0l.58-.77c.28-.38.55-.75.81-1.1l.5-.7v0l.47-.67c.53-.76.99-1.47 1.4-2.11 .98-1.56 1.8-3.15 2.46-4.77 .6-1.49 1.14-3.18 1.6-5.07l1.21-5.16v0l.85-3.56v0l9.61-40.2c.69-2.89 1.57-5.46 2.64-7.71 1.06-2.26 2.42-4.15 4.07-5.68 1.64-1.54 3.59-2.7 5.84-3.51 2.25-.81 4.93-1.22 8.05-1.22ZM455.8 24.01c1.55 0 3.37.17 5.45.51 2.07.34 3.86.92 5.37 1.73l-6.68 27.2c-.29 1.32-.54 2.59-.74 3.81 -.21 1.21-.31 2.48-.31 3.81 0 1.32.11 2.67.34 4.02 .23 1.35.63 2.81 1.21 4.37l-7.11 1.03c-.29-.64-.58-1.35-.87-2.13 -.29-.78-.52-1.61-.7-2.47 -1.28 1.15-2.98 2.31-5.12 3.46s-4.77 1.73-7.89 1.73c-2.55 0-4.73-.41-6.55-1.22 -1.82-.81-3.31-1.94-4.47-3.38 -1.16-1.45-2.01-3.15-2.56-5.12 -.55-1.97-.83-4.13-.83-6.5 0-3.87.64-7.66 1.94-11.35 1.29-3.7 3.24-6.99 5.84-9.88 2.59-2.89 5.86-5.23 9.78-7.02 3.92-1.8 8.51-2.69 13.77-2.69Zm-1.74 6.93c-3.3 0-6.27.63-8.93 1.9s-4.93 2.95-6.81 5.06c-1.88 2.1-3.33 4.56-4.34 7.36 -1.02 2.8-1.52 5.73-1.52 8.79 0 1.21.11 2.44.34 3.68 .23 1.24.64 2.33 1.25 3.29 .6.95 1.41 1.73 2.42 2.33 1.01.6 2.32.9 3.94.9 2.42 0 4.5-.52 6.23-1.56 1.73-1.04 3.23-2.26 4.5-3.64 .05-.99.15-2.01.3-3.08 .14-1.07.33-2.16.56-3.25l5.19-21.49c-.29-.12-.77-.21-1.43-.26 -.67-.06-1.26-.09-1.78-.09Z"/><path fill="#005F0F" d="M-.001 0h86.95v87.1H-.02Z"/><path fill="#FFF" d="M74.11 11.87C63.4 24.99 50.32 35.98 36.37 45.51c-4.54 3.24-9.54 6.13-13.03 10.57 -1.34 2.33-1.66 5.63.62 7.53 3.79 3.57 9.69 4.34 14.44 2.34 6.64-2.54 11.24-8.3 15.1-14.02 8.61-12.41 13.83-26.69 20.59-40.1Z"/><path fill="#AEA99F" d="M67.97 16.41c-13.34 10.56-24 16.27-37.64 21.18 -4.12 1.76-8.53 3.99-10.44 8.31 -1.97 4.08-1.33 9.78.93 13.57 -.17-1.6.68-4.17 1.94-5.38 4.2-4.69 9.67-7.75 14.49-11.31l.01-.01 .01-.01c11.14-7.66 21.59-16.4 30.67-26.39v0Z"/></svg>