<svg viewBox="0 0 256 257" xmlns="http://www.w3.org/2000/svg"><path fill="#005F0F" d="M-.001 0h256v256.43h-256Z"/><path fill="#FFF" d="M218.18 34.96c-31.53 38.63-70.04 70.99-111.1 99.04 -13.35 9.55-28.09 18.05-38.35 31.14 -3.92 6.88-4.87 16.58 1.83 22.17 11.16 10.51 28.54 12.8 42.52 6.91 19.57-7.46 33.09-24.43 44.45-41.25 25.35-36.54 40.73-78.56 60.62-118.03v0Z"/><path fill="#AEA99F" d="M200.1 48.32c-39.26 31.1-70.66 47.91-110.8 62.37 -12.12 5.18-25.11 11.76-30.73 24.48 -5.8 12.03-3.9 28.81 2.75 39.96 -.5-4.7 2-12.28 5.73-15.83 12.37-13.78 28.48-22.81 42.66-33.27l.03-.03 .03-.03c32.8-22.54 63.56-48.28 90.3-77.67v0Z"/></svg>