<svg viewBox="0 0 512 68" xmlns="http://www.w3.org/2000/svg"><g><path d="M203.29 8.5v11.26h-17v46.61h-13.15V19.75h-17V8.48h47.13Zm52.54 0v57.87h-13.22V8.49h13.21Zm233.29-.01v46.45h22.86v11.42h-36.09V8.47h13.21Zm-72.3 0l23.84 57.88h-14.54l-4.23-11.43h-24.41l-4.27 11.42h-14.14l24.07-57.89h13.64Zm-95.58 0c15.8 0 31.52 8.36 31.52 28.78 0 19.24-15.42 29.09-30.75 29.09l-22.2 0V8.48h21.41Zm-.08 11.26h-8.52v35.27h8.19c11.02 0 18.38-6.89 18.38-17.84 0-10.41-7.44-17.45-18.08-17.45Zm88.59 2.27l-8.72 22.63h17.35l-8.64-22.64Z"/><path d="M50.82 33.88l16.94 16.94 -16.95 16.94 -16.95-16.95L50.8 33.86ZM16.93 0l16.94 16.93 -16.95 16.94L-.03 16.92 16.91-.02Zm67.76-.001l16.94 16.93 -16.95 16.94 -16.95-16.95 -16.94 16.94L33.84 16.9 50.78-.04l16.94 16.93L84.66-.05Z"/></g></svg>