<svg viewBox="0 0 256 230" xmlns="http://www.w3.org/2000/svg"><path fill="#383838" d="M34.4 15.29h23.54V0H34.39c-6.53 0-12.88 1.835-18.37 5.306l8.17 12.925c3.04-1.93 6.56-2.95 10.19-2.95v0ZM15.28 34.4c0-2.8.58-5.49 1.74-8L3.13 19.999c-2.09 4.53-3.15 9.372-3.15 14.39v27.06h15.29v-27.07 0ZM-.01 76.9h15.29v38.532H-.01V76.9ZM205.89 18.7c4.61-2.92 9.2-5.677 13.75-8.26 -2.6-2.68-5.64-4.94-8.95-6.65 -4.84-2.5-10.29-3.82-15.76-3.82h-13.54v15.29h13.53c4.006 0 7.78 1.21 10.94 3.42v0ZM-.01 130.87h15.29v38.6H-.01v-38.61ZM73.385-.02h38.53v15.29h-38.54V-.03Zm53.97 0h38.6v15.29h-38.61V-.03Zm17.04 214.067h38.53v15.29h-38.54v-15.3Zm69.64-127.22h15.29v38.6h-15.3V86.81Zm0 54.05h15.29v38.53h-15.3v-38.54ZM15.25 194.92v-10.02H-.04v10.01c0 12.52 6.81 24.06 17.78 30.12l7.39-13.39c-6.099-3.37-9.89-9.79-9.89-16.75v0ZM214.02 61.24v10.14h15.29V48.67c-5.03 3.74-10.13 7.93-15.29 12.56v0Zm0 133.687c0 9.58-7.16 17.73-16.64 18.95l1.95 15.16c8.23-1.06 15.8-5.08 21.33-11.32 5.57-6.3 8.64-14.393 8.64-22.81v-.08h-15.29v.07 0ZM36.26 214.04h38.6v15.29H36.25v-15.3Zm54.05 0h38.6v15.29H90.3v-15.3Z"/><path fill="#AF2F2F" d="M35.01 121.738l71.72 71.72s71.72-137.98 149.26-168.93l-2.92-21.85C210.83 19.42 146.76 63.47 99.43 130.827l-49.88-29.488 -14.57 20.387"/></svg>