<svg viewBox="0 0 256 256" xmlns="http://www.w3.org/2000/svg"><path fill="#E44332" d="M224 0H31.99C14.34.03.05 14.33-.01 32v192c0 17.6 14.39 32 31.99 32h192c17.6 0 31.99-14.4 31.99-32V32c0-17.6-14.4-32-32-32"/><g fill="#FFF"><path d="M54.13 120.8c4.46-2.61 100.34-58.33 102.53-59.62 2.19-1.28 2.31-5.2-.16-6.62 -2.46-1.42-7.12-4.09-8.85-5.12 -2.47-1.36-5.48-1.33-7.91.09 -1.23.71-83.16 48.29-85.89 49.86 -3.3 1.88-7.34 1.91-10.61 0L-.03 73.99v21.58c10.52 6.2 36.71 21.59 43.06 25.22 3.78 2.15 7.41 2.1 11.07-.03"/><path d="M54.13 161.6c4.46-2.61 100.34-58.33 102.53-59.62 2.19-1.28 2.31-5.2-.16-6.62 -2.46-1.42-7.12-4.09-8.85-5.12 -2.47-1.36-5.48-1.33-7.91.09 -1.23.71-83.16 48.29-85.89 49.86 -3.3 1.88-7.34 1.91-10.61 0l-43.27-25.4v21.58c10.52 6.2 36.71 21.59 43.06 25.22 3.78 2.15 7.41 2.1 11.07-.03"/><path d="M54.13 204.96c4.46-2.61 100.34-58.33 102.53-59.62 2.19-1.28 2.31-5.2-.16-6.62 -2.46-1.42-7.12-4.09-8.85-5.12 -2.47-1.36-5.48-1.33-7.91.09 -1.23.71-83.16 48.29-85.89 49.86 -3.3 1.88-7.34 1.91-10.61 0l-43.27-25.4v21.58c10.52 6.2 36.71 21.59 43.06 25.22 3.78 2.15 7.41 2.1 11.07-.03"/></g></svg>