<svg viewBox="0 0 512 310" xmlns="http://www.w3.org/2000/svg"><path fill="#68B044" d="M288.43 23.1l-8.16 32.61C291.82 32.6 310.5 15.28 331.9-.01c-15.63 18-29.9 36.01-38.4 54.35 14.6-20.73 34.31-31.94 56.39-39.75 -29.56 26.15-53 54.69-70.67 82.89l-14.27-6.12c2.37-22.77 10.87-45.87 23.44-68.29v-.001Z"/><path fill="#F5F8DE" d="M250.72 85.27l26.83 11.21c0 6.79-.68 27.85 3.73 33.97 44.84 57.75 37.37 173.94-9.18 176.66 -70.67 0-97.85-47.91-97.85-92.07 0-40.43 48.24-66.93 77.12-90.71 7.81-6.46 6.45-20.73-.68-39.07v0Z"/><path fill="#7E4798" d="M277.56 96.14l9.85 5.09c-1.02 6.45.33 20.72 6.79 24.12 28.53 17.66 55.03 36.69 65.56 56.05 37.37 67.6-26.16 130.45-81.54 124.34 29.89-22.09 38.72-67.61 27.51-117.55 -4.42-19.37-11.56-37.04-24.13-57.08 -5.44-9.18-3.4-21.41-4.08-35v0Z"/><path fill="#010101" d="M248.68 78.81l44.5 18.34c-6.12 19.7 11.55 33.63 17.32 36.69 12.9 7.13 25.14 14.6 34.99 23.44 18.68 16.98 29.21 40.76 29.21 65.56 0 24.8-11.22 48.92-30.58 64.88 -18.01 14.94-43.15 21.4-67.27 21.4 -14.95 0-28.54-.68-43.15-5.44 -33.64-11.22-58.44-39.75-60.48-74.07 -2.04-26.5 4.07-46.89 24.8-68.29 10.53-11.22 32.27-24.13 47.22-34.32 7.47-4.76 15.28-19.03.33-45.87v0l3.05-2.38Zm3.39 7.13c1.69 2.37 5.77 12.57 6.79 15.62 2.03 8.49 1.01 16.64-.68 20.38 -9.18 16.98-25.49 21.74-37.04 31.25 -2.28 1.86-4.58 3.69-6.87 5.51l-1.25.99c-18.03 14.47-34.73 29.77-32.66 70.26 1.35 22.76 19.02 50.96 45.86 63.87 5.11 2.49 10.44 4.46 15.95 6.01 -6.57-2.9-12.17-6.49-16.64-11.46 0-.34-1.7-1.7-1.7-1.7 -9.52-10.88-21.41-29.22-25.49-46.55 -1.7-6.8-3.06-12.24-1.02-19.37 7.11-25.36 21.81-36.92 37.2-47.5l1.01-.7c.16-.12.33-.24.5-.35l1.52-1.05c.5-.35 1.01-.7 1.52-1.04 3.73-2.38 8.49-4.76 12.23-7.82 6.16-4.03 9.79-14.83 12.88-25.55l.3-1.08c.71-2.5 1.4-4.99 2.09-7.36 -2.04 10.53-4.42 29.55-13.59 36.69 -3.74 2.71-7.82 5.43-11.9 8.15l-1.5 1c-16.13 10.85-31.69 21.54-38.94 47.57 -1.7 5.77-.34 11.89 1.01 17.66 4.07 16.64 15.62 34.31 24.8 44.84 0 .13.28.45.62.79l.29.29c.39.39.77.78.77.94 6.57 7.76 9.2 10.8 29.12 15.81 -4.89-1.99-9.56-4.36-12.83-6.64 -16.31-11.22-24.47-25.15-25.82-45.87 -1.02-16.31 8.83-32.96 28.19-43.15 13.24-7.14 17.32-17.67 21.4-30.58 -3.06 14.94-6.46 23.78-20.05 31.93 -16.31 9.17-27.86 27.85-26.84 40.42 1.35 15.28 11.89 32.95 24.12 43.48 4.93 4.38 12.73 7.44 20.38 9.35 -2.01-1.58-4.2-3.84-6.12-6.64 -2.38-3.4-4.08-8.16-5.78-12.58 -1.7-4.08-3.4-8.84-3.4-12.91 0-9.86 1.01-22.09 8.15-30.24 6.45-7.48 8.49-8.5 11.21-17.33 -2.04 9.85-3.4 10.53-9.52 19.36 -7.82 10.87-8.16 21.74-7.14 28.53 .67 4.41 2.37 8.49 3.73 11.89 1.69 4.41 3.73 8.49 6.45 12.23 2.37 2.71 3.73 4.41 7.13 6.11 3.73-7.14 6.11-21.41 6.45-29.22 .33-6.8.67-14.61-.34-22.43 -1.36-10.54-4.42-20.73-4.76-28.88 1.69 7.47 5.43 18 7.47 28.19 1.69 8.15 2.03 15.96 1.35 22.08 -.68 7.13-1.02 12.9-2.04 19.02 -.94 4.67-3.3 9.06-7.1 13.68 8.59-5.49 13.58-15.22 15.92-26.26 3.05-13.59 3.39-26.5 3.39-33.3 0-4.84-1.7-12.01-3.59-19.17l-.34-1.27c-.4-1.48-.79-2.94-1.18-4.38 -1.7-6.8-8.16-13.59-9.86-18.69 -3.06-8.5-1.7-14.61-2.04-26.5 1.35 10.87 1.35 20.38 4.41 25.48 2.37 4.41 6.45 10.53 8.83 16.64 4.75 11.21 7.13 23.44 7.47 29.21 .33 9.85-1.02 25.14-4.42 37.37 -1.27 4.1-2.89 7.91-4.71 11.25 3.85-5.94 6.79-12.92 8.1-19.07 .22-1.04.43-2.08.65-3.12l.32-1.57c3.91-19.31 6.63-39.1 4.12-51.04 -.68-3.06-1.7-13.25-5.78-24.13 -5.78-15.97-14.27-28.88-15.29-31.94 -3.25-8.44-4.01-28.94-4.37-41.13l-.01-.29c.1 3 .3 6.27.58 9.62l.09 1.05c.06.7.12 1.41.19 2.12l.1 1.06c.01.17.03.35.05.53l.11 1.05c1.08 10.21 2.74 19.86 4.25 22.89 1.01 3.05 10.19 17.66 16.64 32.95 4.41 9.85 5.77 19.36 6.11 22.08 3.39 28.53.67 40.42-6.8 65.9 -.91 3.12-2.14 6.1-3.57 8.88 4.29-5.52 7.46-11.43 8.65-16.36 7.13-31.6 9.85-72.37-.34-103.62 -5.44-16.31-18.35-30.58-20.73-40.43 -2.04-9.18-2.04-18.69-1.36-30.92v0l3.39 1.69c-1.7 3.73-.68 22.76 2.03 29.89 3.39 9.51 13.24 20.38 19.36 35.67 1.54 3.56 3.09 8.88 4.46 14.4l.23.94c.11.47.23.95.34 1.42l.22.95c2.14 9.17 3.71 18.06 3.91 19.64 3.39 28.53 1.69 55.37-6.8 78.13 -4.02 10.53-12.48 20.15-18.69 24.59 16.5-2.23 39.26-10.67 52.99-21.88 17.66-14.61 27.17-37.04 27.17-59.8 0-22.77-8.84-44.51-26.16-59.8 -9.86-8.84-25.82-19.71-36.02-25.49 -10.2-5.78-22.77-21.75-18.69-37.04v0Z"/><g fill="#7E4798"><path d="M12.9 29.89h183.79c6.79 0 12.9 5.77 12.9 12.9v54.35c0 7.13-6.12 12.9-12.91 12.9h-37.72c-8.5 0-12.24 4.75-12.24 10.19v177.68c0 6.11-4.76 10.53-10.54 10.53H73.66c-5.78 0-10.2-4.42-10.2-10.54V118.51c0-5.44-5.1-8.84-8.84-8.84H12.83c-7.14 0-12.91-5.78-12.91-12.91V42.4c0-6.8 5.77-12.58 12.9-12.58Z"/><path d="M484.46 101.92h16.3c6.11 0 10.87 4.75 10.87 10.53v58.09c0 7.47.33 10.53-8.84 10.53 -18.01 0-26.16 9.51-26.16 20.04v98.18c0 4.41-4.42 8.49-9.52 8.49h-58.44c-5.1 0-9.52-3.74-9.52-8.5V187.5c0-2.04 0-4.76.33-6.46 3.05-41.45 35.67-74.41 76.78-78.82 1.01 0 5.77-.34 8.15-.34v0Z"/></g></svg>