<svg viewBox="0 0 256 307" xmlns="http://www.w3.org/2000/svg"><g fill="#C00000"><path d="M26.4 241.05c11.47 13.6 31.05 26.86 43.41 21.86 12.35-5.01 17.36-41.6 12.93-46.47 -4.43-4.88-28.1-44.53-46.51-38.8 -18.41 5.73-21.33 49.79-9.85 63.39v0Z"/><path d="M30.91 140.04c11.22 18.67 44.55 42.25 65.97 33.86 21.41-8.39 6.76-37.78-5.11-57.25 -1.72-2.82-2.46-14.65-10.07-24.78C74.08 81.73 62 75.15 52.86 78.21c-25.92 8.67-33.45 48.2-21.98 61.8v0Z"/><path d="M127.12 132.18c11.47 13.6 13.73 27.56 31.47 26.88 17.74-.68 31.35-42.8 30.86-59.85 -.5-17.06-16.81-55.56-45.59-47.4 -28.79 8.16-29.9 43.03-16.76 80.35v0Z"/><path d="M197.25 185.86c3.18 16.76 16.48 28.45 36.23 23.04 19.74-5.42 24.93-56.23 20.49-61.11 -4.43-4.88-13.27-30.35-31.68-24.62s-32.1 41.14-25.07 62.67v0Z"/><path d="M96.06 303.56c26.8 10.63 36.15-17.23 65.75-25.41 29.59-8.19 54.94 5.17 63.53-21.09 11-33.66-16-28.62-37.66-43.55 -21.66-14.94-16.11-32.03-49.57-23.98 -36.08 8.68-17.8 44.78-31.81 57.99 -20.34 19.17-26.8 49.44-10.26 56v0Z"/><path d="M1.66 166.61c2.31 6.36 13.36 12.54 19.08 10.01 5.71-2.53 5.47-9.08 2.8-17.1 -2.67-8.02-15.38-18.14-19.8-16.33 -4.43 1.8-4.41 17.04-2.1 23.4v0Z"/><path d="M28.44 62.65c2.31 6.36 5.45 17.69 14.42 14.25 8.96-3.44 11.74-9.67 9.07-17.69 -2.67-8.02-13.52-19.83-17.94-18.03 -4.43 1.8-7.89 15.09-5.57 21.45v0Z"/><path d="M129.07 27.34c2.31 6.36 14.04 17.03 19.76 14.5 5.71-2.53 8.59-14.64 5.92-22.66s-14.9-20.61-19.33-18.81c-4.43 1.8-8.68 20.58-6.37 26.94v0Z"/><path d="M215.14 106.68c2.31 6.36 6.4 12.74 12.12 10.22 5.71-2.53 12.19-8.05 9.53-16.07 -2.67-8.02-8.92-26.39-13.35-24.58 -4.43 1.8-10.63 24.05-8.32 30.41v0Z"/></g></svg>