<svg viewBox="0 0 512 50" xmlns="http://www.w3.org/2000/svg" xmlns:xlink="http://www.w3.org/1999/xlink"><defs><linearGradient id="a" x1="28.027%" x2="65.933%" y1="64.774%" y2="20.383%"><stop offset="0%" stop-color="#85F"/><stop offset="100%" stop-color="#00B6FF"/></linearGradient><linearGradient id="b" x1="49.197%" x2="57.126%" y1="50.863%" y2="43.346%"><stop offset="7%" stop-color="#FFF"/><stop offset="89%" stop-color="#009FFF"/></linearGradient><linearGradient id="c" x1="19.367%" x2="129.608%" y1="222.565%" y2="308.847%" xlink:href="#b"/><linearGradient id="d" x1="11.014%" x2="75.429%" y1="39.461%" y2="63.266%"><stop offset="0%" stop-color="#4036C1"/><stop offset="98%" stop-color="#539EFF"/></linearGradient></defs><path fill="url(#a)" d="M39.06 48.37l33-33.02c.66-.67 1.03-1.57 1.03-2.51 0-.94-.38-1.85-1.04-2.51v0l-8.68-8.68C62.3.57 60.85-.03 59.33-.03H13.74c-1.52-.001-2.97.6-4.04 1.67L.99 10.33c-.67.65-1.05 1.53-1.06 2.46 -.01.93.35 1.82 1 2.48l.05.05 33 33.01c.66.66 1.56 1.03 2.5 1.03 .93 0 1.84-.38 2.5-1.04l-.01-.02Z"/><path opacity=".4" fill="url(#b)" d="M9.48 1.93C10.67.73 12.38.21 14.04.55l57.32 11.62c.94.19 1.55 1.12 1.36 2.06 -.03.11-.07.23-.12.34 .8-1.39.57-3.14-.56-4.26l-8.68-8.68C62.29.55 60.84-.05 59.32-.05H13.73c-1.52 0-2.97.6-4.04 1.67l-.27.26Z"/><path opacity=".4" fill="url(#c)" d="M60.48 2.53L57.14 9.3l14.22 2.87c.94.19 1.55 1.12 1.36 2.06 -.03.11-.07.23-.12.34 .8-1.39.57-3.14-.56-4.26l-8.68-8.68C62.29.55 60.84-.05 59.32-.05h-.45c.6-.01 1.17.31 1.48.83 .31.51.34 1.16.06 1.7v0Z"/><path fill="url(#d)" d="M72.63 14.62c.38-.89-.03-1.92-.92-2.31 -.12-.05-.23-.09-.35-.12l-14.23-2.9L37.99 47.9c-.52 1.03-1.7 1.54-2.81 1.2 1.31.54 2.83.24 3.84-.77l33-33.02c.21-.22.4-.47.55-.74v0Z"/><path fill="#2E40AA" d="M273.54 6.1v18.97c0 3.11.75 5.48 2.25 7.1 1.5 1.61 3.57 2.42 6.23 2.42 2.61 0 4.68-.78 6.18-2.34 1.5-1.56 2.25-3.88 2.25-6.97V6.06h5.81l.02 18.92c.04 2.21-.29 4.41-1.01 6.51 -.61 1.75-1.6 3.36-2.89 4.69 -1.27 1.27-2.81 2.23-4.51 2.81 -1.92.64-3.92.96-5.94.93 -2 .02-3.98-.29-5.87-.94 -1.7-.58-3.24-1.54-4.51-2.8 -1.29-1.31-2.26-2.88-2.87-4.6 -.71-2.05-1.05-4.21-1.01-6.37V6.01h5.8Zm-18.75.57c1.99.73 3.85 1.79 5.5 3.12l-3.15 4.43c-1.39-1.04-2.91-1.9-4.51-2.55 -1.44-.58-2.97-.88-4.51-.89 -1.72 0-3.06.38-4.01 1.16 -.9.66-1.43 1.71-1.43 2.83 -.04.59.05 1.18.27 1.73 .28.54.7 1 1.22 1.33 .75.49 1.57.88 2.43 1.14 1.03.35 2.34.71 3.94 1.09 1.58.39 3.13.88 4.65 1.47 1.22.47 2.37 1.14 3.37 2 .85.74 1.54 1.67 2 2.71 .48 1.15.72 2.39.69 3.64 .02 1.46-.28 2.91-.88 4.24 -.57 1.21-1.4 2.29-2.44 3.14 -1.11.89-2.39 1.55-3.76 1.95 -1.57.46-3.19.68-4.81.66 -2.53 0-5.03-.44-7.4-1.31 -2.41-.91-4.62-2.27-6.52-4.01l3.53-4.2c1.47 1.3 3.12 2.38 4.9 3.21 1.77.77 3.69 1.15 5.62 1.12 1.81 0 3.25-.39 4.31-1.15 1.02-.7 1.62-1.86 1.59-3.1 .01-.56-.1-1.11-.32-1.63 -.26-.54-.66-.99-1.16-1.32 -.72-.48-1.49-.86-2.3-1.12 -1.25-.44-2.52-.8-3.8-1.1 -1.62-.37-3.21-.83-4.76-1.39 -1.27-.44-2.46-1.09-3.51-1.91 -.93-.74-1.67-1.69-2.16-2.77 -.53-1.26-.78-2.61-.75-3.96 -.03-1.39.27-2.76.85-4.01 .55-1.18 1.35-2.23 2.34-3.08 1.04-.91 2.26-1.59 3.58-2.01 1.47-.48 3.02-.71 4.57-.7 2.25-.05 4.5.31 6.63 1.05Zm-126.8-.58v5.43H117.4v27.94h-5.92V11.51H100.9V6.07h27.07Zm21.07 0c1.75-.02 3.49.23 5.17.74 1.42.43 2.75 1.14 3.9 2.09 1.06.9 1.9 2.04 2.45 3.33 1.04 2.6 1.14 5.49.26 8.15 -.38 1.05-.94 2.03-1.65 2.9 -.72.84-1.56 1.57-2.51 2.14 -1.01.6-2.09 1.06-3.23 1.36l9.01 12.63h-6.92l-8.23-11.64h-7.37v11.63h-5.82V6.04h14.87Zm44.28 0v5.29h-18.88v8.58h16.73v5.29h-16.74v8.91h19.11v5.28h-24.94V6.06h24.69Zm24.5-.24l14.69 33.61h-6.21l-3.39-8.06h-15.79l-3.44 8.05h-6.02l14.68-33.62h5.43Zm101.36.23c1.75-.02 3.49.23 5.17.74 1.42.43 2.75 1.14 3.9 2.09 1.06.9 1.9 2.04 2.45 3.33 1.04 2.6 1.13 5.49.26 8.15 -.38 1.05-.94 2.03-1.65 2.9 -.72.84-1.56 1.57-2.51 2.14 -1.01.6-2.09 1.06-3.23 1.36l9.01 12.63h-6.92l-8.23-11.64h-7.37v11.63h-5.82V6.03h14.87Zm44.31 0l-.03 5.29h-18.86v8.58h16.73v5.29h-16.74v8.91h19.11v5.28h-24.94V6.05h24.69Zm73.78-.24l14.68 33.61h-6.21l-3.39-8.06h-15.79l-3.44 8.05h-6.02L431.8 5.82h5.43Zm40.8.23v5.43H467.5v27.94h-5.92V11.49h-10.59V6.05h27.08Zm19.16-.24l14.68 33.61h-6.21l-3.39-8.06h-15.79l-3.44 8.05h-6.02l14.68-33.62h5.43Zm-99.79.23c2.45-.03 4.88.39 7.17 1.26 2.08.79 3.99 1.98 5.62 3.5 1.57 1.49 2.81 3.29 3.64 5.29 .86 2.08 1.3 4.32 1.28 6.57 .01 2.26-.43 4.51-1.29 6.6 -.83 2-2.08 3.81-3.65 5.31 -1.64 1.52-3.55 2.71-5.63 3.5 -2.3.87-4.73 1.31-7.18 1.28h-12.45V6.01h12.44Zm-.02 5.29h-6.6v22.79h6.59c1.63.02 3.25-.27 4.77-.85 1.37-.52 2.61-1.32 3.65-2.35 1.01-1.03 1.81-2.25 2.34-3.6 1.11-2.95 1.11-6.2 0-9.15 -.54-1.35-1.33-2.58-2.35-3.62 -1.04-1.05-2.29-1.87-3.66-2.4 -1.53-.6-3.15-.89-4.78-.87Zm-182.45 1.47l-5.73 13.33h11.49l-5.78-13.34Zm219.45 0l-5.7 13.33h11.49l-5.8-13.34Zm59.98 0l-5.73 13.33h11.49l-5.77-13.34Zm-345.93-1.48h-8.57v11.25h8.61c2.1 0 3.77-.52 5-1.54 1.23-1.01 1.92-2.53 1.86-4.12 .01-1.85-.6-3.25-1.81-4.19 -1.22-.95-2.92-1.42-5.12-1.42Zm170.16 0h-8.57v11.25h8.61c2.1 0 3.77-.52 5-1.54 1.23-1.01 1.92-2.53 1.86-4.12 0-1.85-.61-3.25-1.81-4.19 -1.22-.95-2.92-1.42-5.12-1.42Z"/></svg>