<svg viewBox="0 0 256 305" xmlns="http://www.w3.org/2000/svg"><g fill="#398CCB"><path d="M28.57 244.48h21.98v11.15H28.56v25.3c-.05 1.81.2 3.62.73 5.36 .4 1.28 1.12 2.45 2.08 3.4 .93.87 2.06 1.51 3.3 1.85 1.23.32 2.5.5 3.77.53l.54 0c1.15 0 2.33 0 3.56-.17l.72-.09v0l1.4-.16c.46-.06.91-.12 1.36-.19l.65-.11v0l1.24-.19c.4-.07.78-.13 1.17-.2l.91-.19c.14-.04.28-.06.42-.09l.79-.18c.12-.03.24-.06.36-.09l1.47 10.39c-1.19.67-2.45 1.2-3.76 1.6 -1.48.46-2.99.83-4.52 1.11 -1.61.3-3.27.52-5.01.68 -1.74.16-3.42.23-5.09.23 -2.97.04-5.92-.38-8.76-1.26 -2.53-.79-4.84-2.16-6.73-4.01 -1.96-1.92-3.43-4.27-4.31-6.86 -1.09-3.23-1.61-6.61-1.53-10.01v-26.76H-.16v-11.16h13.44v-14.42H28.4v14.41Zm53.87 29.27v29.6h-15.3v-79.24h26.62c4.02-.05 8.03.47 11.91 1.55 3.31.91 6.41 2.45 9.14 4.55 2.5 1.99 4.49 4.57 5.78 7.5 1.42 3.25 2.12 6.78 2.05 10.34 .03 2.58-.31 5.15-1.02 7.63 -1.21 4.31-3.82 8.11-7.41 10.8 -1.83 1.38-3.81 2.55-5.91 3.48l17.02 32.69v.71h-16.45L93.96 273.7h-11.6Zm.01-12.43h11.31c2.12.04 4.24-.3 6.25-1.01 1.67-.6 3.18-1.6 4.38-2.92 .93-1.05 1.65-2.27 2.11-3.59 .44-1.36.69-2.78.72-4.21l0-.54c.03-1.91-.29-3.8-.96-5.58 -.6-1.56-1.58-2.93-2.86-4.01 -1.23-.99-2.64-1.73-4.14-2.18 -1.62-.48-3.29-.73-4.98-.77l-11.89-.01v24.75Zm67.84 42.03h-15.27v-79.24h27.09c3.98-.06 7.94.57 11.7 1.87 3.28 1.13 6.31 2.9 8.92 5.2 2.42 2.25 4.34 4.99 5.62 8.05 1.27 3.08 1.94 6.38 1.98 9.72l-.01.66c.03 3.38-.65 6.74-1.99 9.85 -1.3 2.96-3.22 5.61-5.63 7.77 -2.62 2.3-5.67 4.06-8.97 5.17 -3.77 1.28-7.73 1.9-11.71 1.85h-11.81l.01 29.05Zm0-41.47h11.8c1.93.03 3.85-.3 5.66-.99 1.51-.6 2.88-1.51 4.02-2.67 1.04-1.13 1.85-2.45 2.36-3.89 .53-1.48.8-3.04.8-4.61 .01-1.76-.26-3.5-.81-5.17 -.5-1.55-1.3-2.98-2.37-4.21 -1.13-1.22-2.5-2.19-4.03-2.83 -1.8-.73-3.73-1.09-5.67-1.04h-11.81v25.36Zm103.04 27.42c-1.41 3.08-3.41 5.86-5.91 8.16 -2.57 2.29-5.57 4.06-8.82 5.2 -3.41 1.16-6.97 1.77-10.56 1.81l-.78-.01c-3.07.03-6.12-.39-9.06-1.26 -2.69-.81-5.23-2.05-7.51-3.68 -2.07-1.52-3.89-3.34-5.42-5.39 -1.61-2.16-2.96-4.5-4.01-6.97 -1.1-2.71-1.91-5.51-2.42-8.38 -.58-3.2-.87-6.45-.86-9.7v-10.67c-.01-3.06.24-6.11.76-9.12 .42-2.45 1.07-4.85 1.95-7.17l.33-.87c1.1-2.91 2.64-5.62 4.57-8.06 1.82-2.31 3.98-4.32 6.41-5.98 2.17-1.41 4.55-2.49 7.05-3.19 2.43-.7 4.95-1.07 7.48-1.11l.75-.01c3.95-.07 7.88.55 11.61 1.85 6.53 2.24 11.77 7.23 14.34 13.65 1.43 3.56 2.31 7.32 2.61 11.15h-15.23c-.09-2.12-.45-4.22-1.06-6.26 -.5-1.64-1.32-3.16-2.43-4.47 -1.13-1.19-2.52-2.09-4.06-2.64 -1.87-.64-3.83-.95-5.81-.91 -1.13-.01-2.26.12-3.36.38 -1 .24-1.96.62-2.86 1.13 -1.53.93-2.82 2.22-3.76 3.75 -1.1 1.75-1.94 3.65-2.51 5.63 -.5 1.81-.84 3.65-1.03 5.52 -.23 2.15-.34 4.33-.33 6.5v10.76c-.03 2.83.14 5.65.51 8.46 .27 2.22.81 4.4 1.6 6.5 .47 1.19 1.08 2.32 1.82 3.37 .66.95 1.48 1.8 2.42 2.5 .98.73 2.1 1.27 3.28 1.6 1.31.36 2.68.54 4.05.52 1.82.02 3.64-.24 5.38-.77 1.53-.48 2.93-1.3 4.08-2.41 1.18-1.19 2.09-2.62 2.66-4.19 .72-1.98 1.14-4.06 1.25-6.16h15.29c-.23 3.7-1.12 7.34-2.66 10.72Z"/><path d="M186.37 92.4l38.48 22.21v44.46l-38.49 22.21 -17.09-9.89 -41.55 23.98 -41.3-23.85 -16.85 9.74L31.08 159v-44.43l38.48-22.22 38.48 22.21v44.42l-11.65 6.73 31.29 18.07 31.54-18.22 -11.41-6.6v-44.43l38.48-22.22Zm-28.49 33.79v27.12l23.48 13.55v-27.13l-23.49-13.56Zm56.96-.04l-23.49 13.55v27.15l23.48-13.6v-27.13Zm-173.74 0v27.12l23.48 13.55v-27.13l-23.49-13.56Zm56.96 0L74.57 139.7v27.12l23.48-13.56v-27.13Zm88.28-22.19l-23.49 13.55 23.48 13.56 23.48-13.57 -23.49-13.56Zm-116.78-.04l-23.49 13.59 23.48 13.52 23.48-13.53 -23.49-13.6ZM88.7 34.99v11.54L53.08 67.09v34.77l-10.01 5.77V61.3l45.61-26.34ZM127.18-.04l38.51 22.21v12.21l46.61 26.91v46.03l-10.01-5.78V67.05L165.67 45.9v20.66l-38.49 22.21 -38.49-22.22V22.11L127.15-.11ZM98.72 33.71v27.12l23.45 13.55V47.27L98.71 33.7Zm56.94 0L132.2 47.27v27.09l23.45-13.55V33.68ZM127.17 11.5l-23.46 13.55 23.45 13.55 23.48-13.56 -23.49-13.56Z"/></g></svg>