<svg viewBox="0 0 256 253" xmlns="http://www.w3.org/2000/svg"><path fill="#5E464D" d="M127.69 0a124.96 126.42 0 1 0 0 252.84 124.96 126.42 0 1 0 0-252.85Z"/><g fill="#FFF"><path d="M88.39 238.52c5.11 1.74 22.27 7.32 23 1.86 .39-3-8.67-6.07-20.94-12.57 -17.45-9.23-33.41-21.02-47.35-34.98 -20.35-19.95-32.05-47.09-32.58-75.58C9.48 79 24.43 48.08 49.02 28.13 18.94 51.34.93 86.87 0 124.85c-.74 27.66 7 50.97 21.53 72.18 4.51 5.82 9.78 11.02 15.68 15.44 13.92 10.53 34.28 20.27 51.13 25.99"/><path d="M254.37 97.44c-7.75-36.44-31.84-61.95-64.06-79.98 24.69 17.53 59.34 54.83 38.86 87.73 -17.33 26.35-59.42 21.19-82.5 8.66 -27.38-14.86-61.64-48.28-27.85-80.94 21.9-21.15 91.59 2.56 79.32 34.16 -7.16 18.38-35.01 14.29-47.53 5.3 -9.24-6.64-17.01-18.04-12.89-29.81 1.31-3.78 1.12-9.63-4.21-5.33 -3.94 3.21-5.98 8.51-6.68 13.46 -5.83 41.2 67.58 73.15 89.36 33.28 11.3-20.7-7.02-50.75-30.08-63.06 -17.33-9.29-35.37-15.81-57.47-14.23C93.29 9.15 63.63 31.31 59.9 67.42c-3.72 35.89 20.28 68.19 48.54 87.52 29.7 20.29 69.63 33.67 106.17 21.57 32.75-10.86 46.27-48.45 39.69-79.13"/></g><path fill="#3FE0C5" d="M208.28 69.53c3.51-23.62-17.84-39.84-37.56-47.2 -23.25-8.67-53.96-4.88-70.89 14.37 -12.38 14.13-11.58 34.65-5.19 51.26 9.65 25.08 31.45 43.22 56.82 51.05 18.03 5.56 39.83 7.99 58.09 2.11 26.64-8.58 35.32-36.37 29.81-61.83 -1.18-5.51-3-10.86-5.4-15.95 -3.37-7.07-13.68-21.38.53-3.95 1.48 1.94 2.86 3.97 4.1 6.07 2.93 4.81 5.25 9.97 6.91 15.36 7.74 23.76 1.67 51.49-19.81 65.83 -16.48 10.97-37.42 12.29-56.53 9.54 -25.63-3.72-49.77-16.1-66.56-36.01 -15.33-18.16-25.79-44.24-19.49-68.08 4.61-17.44 18.77-30.47 35.73-35.9 21.45-6.95 45.06-3.72 64.36 7.56 9.67 5.63 18.56 13.42 23.51 23.65 2.23 4.6 3.44 9.64 3.52 14.76 .04 2.07-.12 4.14-.49 6.18 -.14.74-1.71 2.83-1.49 1.11"/></svg>