<svg viewBox="0 0 256 202" xmlns="http://www.w3.org/2000/svg"><path fill="#FFF" d="M93.61 181.67l38.54.29h39.74c32.92-14.87 56.02-48.15 56.02-86.58 0-52.26-42.66-94.92-94.8-94.92 -52.27 0-94.95 42.65-94.95 94.91 -.01 38.21 22.73 71.33 55.41 86.28Z"/><path fill="#221815" d="M133.14 0c1.41 0 2.83.03 4.26.1 2.48.1 4.95.31 7.39.61l.09.01v0c.34.04.68.08 1.03.13l.24.03c2.36.32 4.69.73 7 1.23 1.49.31 2.98.67 4.48 1.07l1.37.38v0l.35.1c.5.14 1 .29 1.5.44l-.01-.02 1.14.36c.66.21 1.33.43 2.01.67l.68.24 .79.28c1.46.53 2.91 1.1 4.34 1.7l1.83.75 -.1 0c5.96 2.65 11.6 5.9 16.85 9.67l.57.41v0l.76.56c1.2.9 2.38 1.82 3.53 2.77l1.24 1.02 -.02-.01c4.65 3.94 8.92 8.33 12.75 13.08l.71.89 .46.59v0l.22 0 0 .29c3.18 4.15 6.03 8.56 8.51 13.21l.5.94c.08.18.18.37.28.55l.15 0 0 .3c6.53 12.9 10.22 27.48 10.22 42.88l-.02-1.29 .01 0 -.02.19 0 .93 0 .1 -.01-.01 0 .05c0 4.12-.27 8.2-.79 12.22l-.17 1.18c-.07.47-.14.94-.22 1.41l-.26 1.54v0l-.22 1.2v0l-.16.8v0l-.14.65v0c-.5 2.41-1.09 4.81-1.77 7.17 -.22.74-.44 1.47-.67 2.21l-.15.44c-8.08 25.28-26.5 46.45-51.07 57.8l-.75.34 -.2.04H131.9l-38.18-.3h-.37l-.2-.05c-.65-.3-1.29-.6-1.95-.92 -13.65-6.62-25.32-16.3-34.26-28.04l-.06 0 -.01-.08 -.57-.76v0l-.77-1.06v0l-.1-.13c-2.98-4.13-5.63-8.5-7.92-13.06l-.04-.05 -.01-.04c-6.49-12.96-10.08-27.49-10.08-42.64 0-15.8 3.88-30.73 10.73-43.88l.07-.15 -.01.01c2.37-4.54 5.1-8.86 8.14-12.94l1.29-1.71 -.01.01c3.82-4.89 8.1-9.39 12.78-13.44l.92-.8c1.67-1.42 3.4-2.78 5.17-4.08l1.19-.87v0l.9-.64v0l.2-.15c4.83-3.34 9.99-6.24 15.41-8.65l-.07 0 1.19-.5c2.44-1.06 4.94-2.01 7.49-2.85l1.08-.36v-.01l.29-.1 .39-.13 .12-.04v0l.12-.04c2.32-.72 4.68-1.35 7.07-1.88l.78-.18v0l.77-.17 .57-.13c2.62-.53 5.22-.94 7.81-1.23l1.11-.12c2.81-.3 5.65-.46 8.53-.5l.75-.01 0-.01h.47Zm-28.86 167.73h-8.62v13.48l8.61.06v-13.56Zm-9.57-.16h-8.25v9.87l.39.22c1.81 1.02 3.47 1.9 5.08 2.69l.92.44v0l.84.39 .99 0v-13.63Zm84.83-.01h-8.25v13.62h.99l.45-.21c1.8-.84 3.66-1.8 5.71-2.93l.68-.39 .39-.23v-9.88Zm-47.15.15h-8.26l0 13.46h8.25l-.01-13.47Zm-9.48 0h-8.24l0 13.46h8.23V167.7Zm-9.45-.16h-8.26v13.62h8.25v-13.63Zm56.54.15h-8.21v13.46h8.2l-.01-13.47Zm-9.4 0h-8.27l0 13.46h8.26l-.01-13.47Zm-9.48 0h-8.24l0 13.46h8.23l-.01-13.47Zm-9.34 0h-8.24l0 13.46h8.23l-.01-13.47Zm47.01 0h-8.25l0 9.1 .74-.45c2.36-1.42 4.47-2.79 6.45-4.19l.65-.47 .39-.29 -.01-3.73Zm-103.61 0h-8.23v3.59l.65.48c1.99 1.44 4.1 2.83 6.33 4.19l.96.57 .26.15 -.01-9.01Zm108.32 0h-3.51l0 2.8 .68-.53c.7-.55 1.38-1.09 2.04-1.64l.65-.55 .12-.11Zm-117.78 0h-3.33l.33.27c.5.41 1 .82 1.5 1.22l.75.59 .74.56 -.01-2.67Zm28.21-14.57h-8.24v13.6h8.23v-13.61Zm-18.77 0h-8.24l-.01 13.45h8.23l0-13.46Zm113.06 0h-8.24l-.01 13.45h4.81l.42-.38 .51-.46 .52-.49 .55-.52 .59-.57 .81-.78v-10.29Zm-18.66-.02h-8.67v13.46h8.66V153.1Zm-84.83 0H86.1v13.46h8.62V153.1Zm18.91 0h-8.77v13.45h8.76V153.1Zm9.19 0h-8.24l-.01 13.44h8.23V153.1Zm28.24 0h-8.24l-.01 13.44h8.23l0-13.45Zm9.47 0h-8.27l-.01 13.44h8.26l0-13.45Zm-28.24 0h-8.26l-.01 13.44h8.25l0-13.45Zm37.63 0h-8.21v13.44h8.2l0-13.45Zm-28.2 0h-8.24l-.01 13.44h8.23l0-13.45Zm47.02 0h-8.26l-.01 13.44h8.25l0-13.45Zm-113.06 0h-8.25l-.01 10.13 .54.52c.68.65 1.36 1.28 2.02 1.88l.66.6 .33.29h4.67l0-13.44Zm131.8 0h-8.1v9.1l.93-.94c2.1-2.15 4.07-4.35 5.92-6.62l.78-.98 .44-.58Zm-141.28-.01h-7.89l.25.33c2.08 2.66 4.36 5.26 6.79 7.76l.83.84v-8.94Zm122.77-14.49h-8.62v13.52h8.61V138.6Zm-84.84 0h-8.62v13.52h8.61V138.6Zm37.71 0h-8.64v13.52h8.63V138.6Zm28.04 0h-8.21v13.51h8.2l-.01-13.52Zm-103.71 0h-8.22l0 13.51h8.21l-.01-13.52Zm84.83 0h-8.24l0 13.51H151l-.01-13.52Zm9.47 0h-8.27l0 13.51h8.26l-.01-13.52Zm-65.94 0h-8.25l0 13.51h8.24l-.01-13.52Zm-18.92 0h-8.25l0 13.51h8.24l-.01-13.52Zm131.95 0h-8.24l0 13.51h8.23l-.01-13.52Zm-75.35 0h-8.26l0 13.51h8.25l-.01-13.52Zm-9.48 0h-8.24l0 13.51h8.23V138.6Zm56.61 0h-8.25l0 13.51h8.24l-.01-13.52Zm-66.06 0h-8.26l0 13.51h8.25l-.01-13.52Zm-28.24 0h-8.24l0 13.51h8.23l-.01-13.52Zm113.05 0h-8.24l0 13.51h8.23l-.01-13.52Zm18.53.01h-7.85l0 12.65 .55-.77c2.4-3.35 4.61-6.91 6.63-10.66l.54-1.03 .1-.2ZM56.8 138.6h-7.78l.07.14c1.98 3.82 4.18 7.47 6.6 10.92l.66.93 .43.59v0l0-12.6Zm131.85-14.44h-8.26l0 13.48h8.25l-.01-13.49Zm-47.03 0h-8.24l0 13.48h8.23l-.01-13.49Zm-37.83 0h-8.24l0 13.48h8.23l-.01-13.49Zm113.2 0h-8.24v13.34h8.24l-.01-13.35Zm-160.23 0H48.5v13.34h8.25v-13.35Zm94.17 0h-8.24v13.34h8.23v-13.35Zm-65.93 0h-8.24v13.34h8.23v-13.35Zm94.29 0h-8.25v13.34h8.24v-13.35Zm28.2 0h-8.24v13.34h8.23v-13.35Zm-94.27 0h-8.26v13.34h8.25v-13.35Zm56.55 0h-8.21v13.34h8.2v-13.35Zm-37.64 0h-8.26v13.34h8.25v-13.35Zm65.89 0h-8.24v13.34h8.23v-13.35Zm-103.6 0h-8.25v13.34h8.24v-13.35Zm-28.38 0h-8.22v13.34h8.21v-13.35Zm94.31 0h-8.27v13.34h8.26v-13.35Zm-37.72 0h-8.24v13.34h8.23v-13.35Zm-47.14 0h-8.25v13.34h8.24v-13.35Zm147.1-.01h-4.62l0 11.49 .07-.16c1.57-3.3 2.93-6.62 4.07-9.96l.37-1.12 .08-.27Zm-175.34 0H42.9l.1.32c1.03 3.16 2.24 6.28 3.62 9.37l.52 1.15 .08.18 -.01-11.05Zm0-14.6h-7.82l.08.57c.59 3.74 1.42 7.45 2.49 11.16l.32 1.11 .19.65h4.7l-.01-13.52Zm169.65 0h-8.24l-.01 13.5h8.23l0-13.51Zm9.13-.01h-6.32l-1.75 0v13.5h4.94l.2-.68v0l.21-.73 .18-.64c.75-2.66 1.39-5.35 1.91-8.08l.09-.49 .1-.59c.06-.34.11-.68.17-1.02l.12-.78v0l.08-.55Zm-46.82 0h-8.25l-.01 13.49h8.24l0-13.5Zm-9.51 0h-8.21v13.49h8.2l0-13.5Zm37.71 0h-8.24l-.01 13.49h8.23l0-13.5Zm-47.11 0h-8.27l-.01 13.49h8.26l0-13.5Zm-84.85 0H67.2l-.01 13.49h8.24l0-13.5Zm122.5 0h-8.24l-.01 13.49h8.23l0-13.5Zm-47.13 0h-8.24l-.01 13.49h8.23l0-13.5Zm-37.69 0h-8.26l-.01 13.49h8.25l0-13.5Zm18.91 0h-8.26l-.01 13.49h8.25l0-13.5Zm-47.16 0h-8.24l-.01 13.49h8.23l0-13.5Zm18.76 0H95.4l-.01 13.49h8.23l0-13.5Zm84.84 0h-8.26l-.01 13.49h8.25l0-13.5Zm-65.94 0h-8.24l-.01 13.49h8.23v-13.5Zm-28.22 0h-8.25l-.01 13.49h8.24l0-13.5Zm-28.38 0h-8.22l-.01 13.49h8.21l0-13.5Zm75.5 0h-8.24l-.01 13.49h8.23l0-13.5Zm-84.84 0h-8.26l-.01 13.49h8.25l0-13.5ZM75.38 95.1h-8.25l0 13.48h8.24l-.01-13.49Zm75.37 0h-8.24l0 13.48h8.23l-.01-13.49Zm-37.69 0h-8.26l0 13.48h8.25l-.01-13.49Zm-28.24 0h-8.24l0 13.48h8.23l-.01-13.49Zm75.39 0h-8.27l0 13.48h8.26l-.01-13.49Zm37.65 0h-8.24l0 13.48h8.23l-.01-13.49Zm-75.38 0h-8.24l0 13.48h8.23V95.09Zm65.93 0h-8.26l0 13.48h8.25l-.01-13.49Zm-122.53 0h-8.22l0 13.48h8.21l-.01-13.49Zm28.37 0H86l0 13.48h8.24l-.01-13.49Zm75.32 0h-8.21v13.48h8.2l-.01-13.49Zm-66.02 0h-8.24l0 13.48h8.23l-.01-13.49Zm113.2 0h-8.24l0 13.48h8.23l-.01-13.49Zm1.06.01v13.46h2.03l6.09-.01 .94-13.38 -9.08-.09Zm-10.54-.02h-8.24l0 13.48h8.23l-.01-13.49Zm-150.75 0h-8.26l0 13.48h8.25l-.01-13.49Zm75.39 0h-8.26l0 13.48h8.25l-.01-13.49Zm9.43 0h-8.24l0 13.48h8.23l-.01-13.49Zm37.7 0h-8.25l0 13.48h8.24l-.01-13.49Zm-131.99 0l-8.72.05 .47 10.63 .23 2.2 .06.58h7.94l-.01-13.48Zm0-14.57h-7.71l-.07.38 -.13.82 -.14.96 -.22 1.65 -.47 9.66 8.71-.02 0-13.49Zm47.14 0h-8.25v13.49h8.24v-13.5Zm-18.92 0h-8.25v13.49h8.24v-13.5Zm122.5 0h-8.24v13.49h8.23v-13.5Zm-28.27 0h-8.21v13.49h8.2v-13.5Zm37.71 0h-8.24v13.49h8.23v-13.5Zm-103.74 0h-8.24v13.49h8.23v-13.5Zm75.52 0h-8.25v13.49h8.24v-13.5Zm9.31 0h-8.26v13.49h8.25v-13.5Zm-75.38 0h-8.26v13.49h8.25v-13.5Zm28.35 0h-8.24v13.49h8.23v-13.5Zm-18.91 0h-8.24v13.49h8.23v-13.5Zm28.24 0h-8.24v13.49h8.23v-13.5Zm-94.17 0h-8.26v13.49h8.25v-13.5Zm160.21 0h-8.24v13.49h8.23v-13.5Zm-84.82 0h-8.26v13.49h8.25v-13.5Zm-66.08 0h-8.22v13.49h8.21v-13.5Zm18.91 0h-8.24v13.49h8.23v-13.5Zm75.39 0h-8.27v13.49h8.26v-13.5Zm65.63 0h-7.99L217.67 94l9.07-.05 -.81-11.61 -.04-.26 -.24-1.59Zm-3.48-14.46h-4.51l0 13.5h7.82l-.1-.57c-.65-3.74-1.54-7.45-2.67-11.17l-.35-1.12 -.22-.66Zm-175.24-.01l-4.25 0 -.21.64c-1.17 3.69-2.11 7.4-2.82 11.15l-.21 1.12 -.1.57h7.56V66.01Zm150.73 0h-8.24v13.5h8.23V66.04Zm-56.47 0h-8.24v13.5h8.23V66.04Zm-47.13 0h-8.25v13.5h8.24V66.04Zm56.46 0h-8.24v13.5h8.23V66.04Zm56.57 0h-8.24v13.5h8.23V66.04Zm-18.9 0h-8.26v13.5h8.25V66.04Zm-65.94 0h-8.24v13.5h8.23V66.04Zm56.61 0h-8.25v13.5h8.24V66.04Zm-47.14 0h-8.26v13.5h8.25V66.04Zm-56.62 0h-8.25v13.5h8.24V66.04Zm28.22 0H95.1v13.5h8.23V66.04Zm-18.77 0h-8.24v13.5h8.23V66.04Zm75.39 0h-8.27v13.5h8.26V66.04Zm-47.16 0h-8.26v13.5h8.25V66.04Zm56.55 0h-8.21v13.5h8.2V66.04Zm47.18.01h-8.24v13.49h8.23v-13.5Zm-160.22-.01h-8.26v13.5h8.25V66.04Zm9.32-.01h-8.22v13.5h8.21V66.03Zm151.96-11.23l-.01 10.14h4.12l-.08-.24c-1-2.95-2.17-5.86-3.5-8.74l-.56-1.18Zm-57.66-3.34h-8.27v13.47h8.26V51.46Zm-28.24 0h-8.26v13.47h8.25V51.46Zm-18.92 0h-8.26v13.47h8.25V51.46Zm-28.24 0h-8.24v13.47h8.23V51.46Zm94.29-.01h-8.25l-.01 13.47h8.24l0-13.48Zm-113.22 0h-8.22l-.01 13.47h8.21l0-13.48Zm141.41 0h-8.24v13.47H207V51.45Zm-18.9 0h-8.26v13.47h8.25V51.45Zm-37.69 0h-8.24v13.47h8.23V51.45Zm47.12 0h-8.24v13.47h8.23V51.45Zm-94.29-.01h-8.24L95 64.92h8.23l0-13.48Zm66.01 0h-8.21v13.47h8.2V51.44Zm-47.11 0h-8.24v13.47h8.23V51.44ZM46.79 64.92l0-9.63 -.07.14c-1.4 3-2.63 6.02-3.69 9.08l-.14.39h3.88Zm28.22-13.48h-8.25v13.47H75V51.43Zm66.04 0h-8.24v13.47h8.23V51.43Zm-47.13 0h-8.25v13.47h8.24V51.43Zm121.93 0h-7.66l-.01 13.47h8.23l0-12.32 -.59-1.16ZM56.21 64.91l0-13.48 -7.53 0 -.45.83 -.18.33 -.12.23 -.01 12.06h8.25Zm0-25.52l-.44.59c-2.32 3.21-4.44 6.59-6.38 10.12l-.2.36h7V39.37Zm150.25-2.43h-7.74v13.5h8.23l0-12.86 -.23-.3 -.17-.22v0l-.12-.15Zm-93.79-.01h-8.26v13.51h8.25V36.94Zm28.35 0h-8.24v13.51h8.23V36.94Zm-56.6 0h-8.24v13.51h8.23V36.94Zm37.68 0h-8.24v13.51h8.23V36.94Zm-28.22-.13h-8.25l-.01 13.63h8.24l0-13.64Zm65.93.12h-8.27v13.51h8.26V36.93Zm-56.37 0h-8.62v13.51h8.61V36.93Zm28.13 0h-8.26v13.51h8.25V36.93Zm47.24 0h-8.67v13.51h8.66V36.93Zm-9.62 0h-8.21v13.51h8.2V36.93Zm-18.87 0h-8.24v13.51h8.23V36.93Zm-75.38 0h-8.25v13.5h8.24V36.93Zm122.5 0h-8.24v13.5h8.23V36.93Zm-9.45-.01h-8.26v13.51h8.25V36.92Zm20.13 2.26v11.23h7.14l-.16-.29c-1.79-3.24-3.73-6.36-5.84-9.35l-.71-.99 -.46-.63ZM65.46 36.92H58l-.27.33 -.28.36 -.22.29v12.51h8.21l-.01-13.51Zm113.2-14.56h-8.25l0 13.59h8.24l-.01-13.6Zm-75.53-.01h-8.24l0 13.6h8.23l-.01-13.61Zm37.82 0h-8.24v13.48h8.23V22.34Zm-9.44-.01h-8.26l-.01 13.48h8.25l0-13.49Zm-18.93 0h-8.26v13.48h8.25V22.33Zm47.15 0h-8.27v13.48h8.26V22.33Zm-9.48 0h-8.24v13.48h8.23V22.33Zm-65.93-.01h-8.24v13.48h8.23V22.32Zm9.58.01h-8.63V35.8h8.62V22.33Zm94.03-.02h-8.26V35.8h8.25V22.31Zm-65.94 0h-8.24V35.8h8.23V22.31Zm70.15-.01h-3.01l-.01 13.48h8.23l0-8.79 -.39-.38c-1.39-1.33-2.68-2.51-3.95-3.59l-.55-.46 -.35-.29Zm-23.05 0h-8.21v13.48h8.2V22.3Zm-94.24-.01h-2.73l-.27.21c-1.44 1.17-2.86 2.45-4.46 3.99l-.8.76 -.01 8.51h8.24V22.28Zm-9.48 6.14l-.89.9c-1.69 1.73-3.31 3.54-4.88 5.42l-.83 1.01h6.58l0-7.35Zm133.18-.26l-.01 7.59h6.86l-.72-.88c-1.7-2.05-3.48-4.02-5.35-5.92l-.81-.81ZM93.73 8.84l-.37.16c-2.41 1.09-4.79 2.29-7.13 3.6l-.77.43 0 8.3h8.24V8.82Zm95.36 11.05v1.44h1.84l-.44-.35 -.73-.58 -.69-.53ZM170.31 8.75l-.01 12.57h8.24l0-8.38 -.88-.5c-1.87-1.04-3.77-2.02-5.7-2.93l-1.17-.55 -.51-.23Zm-86.05 4.97l-.12.06c-1.7 1-3.31 2.01-4.84 3.04l-.83.56 -.62.42 -.71.5 -.57.4 -.58.43v2.14h8.22l0-7.6Zm95.35-.18l-.01 7.76h8.24l0-2.36c-.29-.21-.57-.42-.86-.63 -1.97-1.41-3.98-2.73-6.03-3.98l-1.04-.62 -.34-.2Zm-19.97-5.73h-8.27V21.3h8.26V7.8Zm-28-.02h-8.77l0 0h-.01v13.49h8.76V7.77Zm36.5 0h-7.31v13.49h8.2l0-13.14 -.9-.37Zm-17.98 0h-8.24v13.49h8.23V7.78Zm-9.34-.01l-8.24 0v13.49h8.23V7.76Zm-18.91 0h-8.24v13.49h8.23V7.77Zm-9.45-.01h-8.26v13.5h8.25V7.76Zm-9.47 0h-7l-1.25.52v12.97h8.23V7.76ZM74.77 20.05l-.63.48 -.68.52 -.26.19h1.54l0-1.21ZM131.37.56l-.58 0c-2.45.03-4.81.15-7.12.37l-.57.05 0 5.8h8.24V.53Zm29.42 4.48l-.01 1.64h4.65l-.48-.19 -.96-.36v0l.13.04c-1.11-.41-2.23-.79-3.36-1.16ZM132.55.54v6.13h8.23l0-5.73 -.74-.07c-1.31-.12-2.6-.2-3.89-.26l-.99-.04 -1.55-.04 -1.09-.01Zm9.34.51l-.01 5.61h8.23l0-4.38 -.76-.16c-1.1-.22-2.19-.4-3.29-.57l-1.1-.16c-.55-.08-1.1-.15-1.65-.22l-.83-.1 -.63-.07Zm-20.02.02c-2.79.3-5.54.72-8.24 1.26l0 4.32h8.23l-.01-5.59Zm-9.45 1.51c-.36.07-.71.15-1.06.23 -2.07.47-4.17 1.02-6.28 1.64l-.94.27v0l0 1.91h8.25l0-4.08Zm38.89-.08l-.01 4.14h8.26l0-2.01 -.7-.22c-.3-.1-.6-.18-.89-.27 -2.08-.6-4.19-1.13-6.32-1.59l-.38-.08Zm-48.36 2.61l-.56.18c-.69.23-1.39.47-2.08.72l-1.05.38 -.63.23h4.29l-.01-1.53Z"/><path fill="#211714" stroke="#211714" stroke-linecap="round" stroke-linejoin="round" d="M95.2 36.7V22.13h-9.21v14.56h9.2Zm0 130.55v-14.57h-9.21v14.56h9.2Zm9.29-116.09v-14.6H95.3v14.59h9.18Zm0 101.51v-14.61H95.3v14.6h9.18v0Zm0 28.98v-14.58H95.3v14.57h9.18Zm9.47-14.42v-14.57h-9.22v14.56h9.21Zm18.91-145.12V7.53h-9.21V22.1l9.2-.01v0 0Zm9.43 130.54v-14.61h-9.19v14.6h9.18v0ZM180 51.13v-14.6h-9.19v14.59h9.18Zm0 116.08v-14.57h-9.19v14.56h9.18Zm9.31-14.57v-14.61h-9.21v14.6h9.2v0Z"/><path fill="#E60012" d="M236.89 197.28v-3.91l-209.59.12v7.88l209.58-.15v-3.96ZM43.06 78.72v-6.84l-14.32.13c-1.82 0-1.72-.4-1.72-2.76l.15-9.34 -7.23-.13c-2.22 4.98-4.98 8.26-6.55 8.91L-.03 74.6v4.21l5.02.12c2.22 0 3.14-.13 3.14 2.5v27.69c0 8.41 4.58 14.58 16.42 14.86 8.89.24 14.29-3.7 18.09-7.39l-1.04-3.55c-1.6 1.06-2.88 1.98-5.01 1.98 -10.11 0-9.84-7.89-9.84-14.85V81.4c0-2.77.22-2.77 2.08-2.77h14.16v-.01Zm27.84 44.65c11.56-.54 22.71-3.03 22.71-14.2 0-8.12-8.92-13.27-18.37-17.33 -6.06-2.5-14.85-6.17-14.85-9.07 0-3.41 6.68-9.98 13.11-4.73l11.17 9.33 5.12-1.07 -2.88-13.9c-2.64.12-4.48.26-14.08-1.34 -11.83-1.7-25.87 4.22-25.87 15.23 0 7.38 10.65 12.48 19.06 15.89 4.58 1.96 12.73 4.86 12.73 9.32 0 4.3-7.64 5.51-11.96 5.51 -7.36 0-15.51-9.87-15.51-9.87h-4.84l2.61 14.72c.89-.81 4.21-.69 4.86-.41 2.34.89 10.87 2.22 16.91 1.83v0Zm29.54-14.07c0 8.14-2.1 12.47-8.67 12.85l.16 1.32c10.99-.13 22.19 0 32.93-.25l.12-.69c-4.97 0-8.8-5.25-8.8-11.79V88.8c0-5.41 6.56-8.82 11.03-8.42 6.93.65 10.76 5.1 10.76 9.06v21.53c0 6.56-1.97 10.63-7.09 11.01v1.2h30.18v-.93c-4.47-.55-7.61-4.63-7.61-10.78V88.85c0-4.84 4.19-8.12 11.69-8.25 6.56-.14 10.49 4.73 10.49 9.33v20.46c0 6.96-2.1 11.28-7.34 11.83v.92c11.02.12 20.07.12 30.96 0v-.69c-5.77 0-7.73-3.8-7.73-11.79V88.05c0-7.48-4.08-16.42-15.5-16.42 -7.74 0-13.43 3.78-16.67 4.88 -2.24.87-3.83 1.94-4.36 1.94 -1.03 0-2.21-.66-3.67-2.23 -2.77-2.92-7.74-4.61-13.01-4.61 -6.71 0-13.41 3.78-16.57 4.88 -.38.1-2.73 1.28-3.02 1.28 -.52 0-2.62 0-2.62-.25 0-6.32.4-3.18.14-7.64h-4.35c-1.3 0-3.56 2.37-6.18 3.39 -3.16 1.34-9.46 1.2-12.07 1.86v4.46l6.8 1.3v8.67l-.13 19.56v0Zm129.69-38.09c-19.44 0-34.28 10.11-34.28 27.72 0 14.84 13.51 25.33 31.64 25.33 13.79 0 25.21-9.98 28.48-16.29 0-1.96-1.97-2.76-3.8-2.76 -3.17 4.85-12.09 8.55-15.75 8.39 -21.94-.8-25.49-9.59-25.75-18.77 -.41-9.99 10.37-18.67 19.56-17.99 5.36.37 7.22 9.15 11.92 12.32 1.47.81 4.87.66 7.11.27 1.7-.28 6.27-1.32 6.27-5.26 0-3.28-4.07-6.97-7.99-9.33 -3.94-1.82-12.75-3.68-17.48-3.68v0Z"/></svg>