<svg viewBox="0 0 512 225" xmlns="http://www.w3.org/2000/svg"><path fill="#14D8CC" fill-rule="evenodd" d="M512 7.66v158.32c0 4.23-3.45 7.66-7.68 7.66H327.68v43.41c0 4.23-3.44 7.66-7.69 7.66H7.67c-4.25 0-7.68-3.43-7.68-7.67V58.71c0-4.23 3.43-7.67 7.68-7.67h304.64V7.62c0-4.24 3.44-7.67 7.67-7.67H504.3c4.23 0 7.67 3.42 7.67 7.66Zm-50.6 45.45c0-1.13-.93-2.05-2.05-2.05H449.1c-1.13 0-2.05.91-2.05 2.04v38.39c0 .61-.72.81-.93.2l-14.03-38.81c-.31-.93-1.03-1.84-2.57-1.84h-12.19c-1.13 0-2.05.91-2.05 2.04v67.4c0 1.12.92 2.04 2.04 2.04h10.23c1.12 0 2.04-.92 2.04-2.05V85.13c0-.62.71-.82.92-.21l13.92 35.84c.3.81 1.02 1.73 2.76 1.73h12.08c1.12 0 2.04-.92 2.04-2.05V53.03Zm-57.45 57.69c0-1.13-.92-2.05-2.05-2.05h-8.71c-.62 0-1.03-.41-1.03-1.03V65.84c0-.62.4-1.03 1.02-1.03h7.68c1.12 0 2.04-.92 2.04-2.05v-9.71c0-1.13-.93-2.05-2.05-2.05h-31.74c-1.13 0-2.06.91-2.06 2.04v9.7c0 1.12.92 2.04 2.05 2.04h7.67c.61 0 1.02.41 1.02 1.02v41.87c0 .61-.41 1.02-1.03 1.02h-8.71c-1.13 0-2.05.91-2.05 2.04v9.7c0 1.12.92 2.04 2.04 2.04h33.78c1.12 0 2.04-.92 2.04-2.05v-9.71ZM312.3 66.38H16.62c-.71 0-1.29.57-1.29 1.27v140.44c0 .7.57 1.27 1.28 1.27h294.4c.7 0 1.28-.58 1.28-1.28V66.35Zm-45.38 92.94c1.12 0 2.04.91 2.04 2.04v10.21c0 1.12-.93 2.04-2.05 2.04h-37.58c-1.13 0-2.05-.92-2.05-2.05v-67.41c0-1.13.92-2.05 2.04-2.05h37.16c1.12 0 2.04.91 2.04 2.04v10.21c0 1.12-.93 2.04-2.05 2.04h-23.86c-.62 0-1.03.4-1.03 1.02v12.25c0 .61.41 1.02 1.02 1.02h23.03c1.12 0 2.04.91 2.04 2.04v10.21c0 1.12-.93 2.04-2.05 2.04h-23.04c-.62 0-1.03.4-1.03 1.02v12.25c0 .61.41 1.02 1.02 1.02h24.26Zm-53.05-57.2c1.12 0 2.04.91 2.04 2.04v67.4c0 1.12-.93 2.04-2.05 2.04h-12.09c-1.75 0-2.46-.92-2.77-1.74l-13.93-35.85c-.21-.62-.93-.41-.93.2v35.33c0 1.12-.92 2.04-2.05 2.04h-10.24c-1.13 0-2.05-.92-2.05-2.05v-67.41c0-1.13.92-2.05 2.04-2.05h12.18c1.53 0 2.25.91 2.55 1.83l14.02 38.8c.2.61.92.4.92-.21v-38.4c0-1.13.92-2.05 2.04-2.05h10.24Zm-57.76 0c1.12 0 2.04.91 2.04 2.04v48c0 12.35-10.24 22.56-24.37 22.56 -13.93 0-24.17-10.22-24.17-22.57v-48.01c0-1.13.92-2.05 2.05-2.05h10.33c1.12 0 2.04.91 2.04 2.04v48c0 4.49 3.68 8.16 9.72 8.16 6.24 0 9.93-3.68 9.93-8.17v-48.01c0-1.13.92-2.05 2.04-2.05h10.33Zm-56.32 2.04v10.21c0 1.12-.93 2.04-2.05 2.04h-12.8c-.62 0-1.03.4-1.03 1.02v54.12c0 1.12-.93 2.04-2.05 2.04H71.62c-1.13 0-2.05-.92-2.05-2.05v-54.13c0-.62-.41-1.03-1.03-1.03h-12.8c-1.13 0-2.05-.92-2.05-2.05v-10.22c0-1.13.91-2.05 2.04-2.05H97.7c1.12 0 2.04.91 2.04 2.04Z"/></svg>