<svg viewBox="0 0 512 115" xmlns="http://www.w3.org/2000/svg" xmlns:xlink="http://www.w3.org/1999/xlink"><defs><linearGradient id="a" x1="123.779%" x2="123.779%" y1="-.001%" y2="698.962%"><stop offset="0%" stop-color="#1E90FF"/><stop offset="100%" stop-color="#FF1E56"/></linearGradient><linearGradient id="b" x1="11.485%" x2="11.485%" y1="-2.194%" y2="512.397%" xlink:href="#a"/><linearGradient id="c" x1="-153.744%" x2="-153.744%" y1="-62.264%" y2="278.479%" xlink:href="#a"/><linearGradient id="d" x1="-153.744%" x2="-153.744%" y1="-178.481%" y2="162.263%" xlink:href="#a"/><linearGradient id="e" x1="11.485%" x2="11.485%" y1="-412.398%" y2="102.193%" xlink:href="#a"/><linearGradient id="f" x1="123.779%" x2="123.779%" y1="-598.961%" y2="99.999%" xlink:href="#a"/></defs><g transform="translate(419.719 0)"><path fill="url(#a)" d="M37.27.03C24.08-.43 10.9 3.66-.01 12.3l7.27 4.09c8.63-6.37 19.54-9.1 30-8.64V.02Z"/><path fill="url(#b)" d="M75.91 17.3C66.81 7.75 54.99 1.84 42.27.48V8.2c10.91 1.81 20.45 6.81 28.18 14.54l5.45-5.46Z"/><path fill="url(#c)" d="M92.28 54.58c-.46-11.82-5.01-23.64-12.73-33.64l-5.46 5.45c6.36 8.63 10 18.18 10.45 28.18h7.72Z"/><path fill="url(#d)" d="M79.55 93.67c7.72-10.01 12.27-21.82 12.72-33.64h-7.73c-.46 10-4.1 19.54-10.46 28.18l5.45 5.45Z"/><path fill="url(#e)" d="M42.27 114.13c12.27-1.37 24.54-7.28 33.63-16.82l-5.46-5.46c-7.73 8.18-17.73 13.18-28.19 14.54v7.72Z"/><path fill="url(#f)" d="M0 102.31c10.91 8.63 24.09 12.72 37.27 12.27v-7.73c-10.46.45-20.92-2.28-30.01-8.64l-7.28 4.09Z"/></g><path d="M28.58 40.69v47.08h-15.7V40.68H-.02v-13.3h41.48v13.29h-12.9Zm31.56-13.3v32.83c0 1.76.05 3.57.16 5.44 .16 1.81.56 3.46 1.2 4.96 .69 1.49 1.76 2.72 3.2 3.68 1.44.9 3.47 1.36 6.08 1.36s4.61-.46 6-1.37c1.44-.97 2.5-2.19 3.2-3.69 .69-1.5 1.09-3.15 1.2-4.97 .16-1.87.24-3.69.24-5.45V27.34h15.61v34.99c0 9.39-2.17 16.25-6.49 20.58 -4.28 4.32-10.87 6.48-19.78 6.48 -8.92 0-15.54-2.17-19.86-6.49 -4.33-4.33-6.49-11.19-6.49-20.59v-35H60.1Zm61.29 26.98h2.96c3.09 0 5.47-.65 7.12-1.93 1.65-1.29 2.48-3.13 2.48-5.53 0-2.41-.83-4.25-2.49-5.53 -1.66-1.29-4.04-1.93-7.13-1.93h-2.97v14.89Zm34.51 33.39H136.4l-14.98-23.23v23.22h-15.7V27.37h24.42c3.36 0 6.29.5 8.8 1.52 2.5.96 4.56 2.29 6.16 4 1.65 1.7 2.88 3.68 3.68 5.92 .85 2.24 1.28 4.64 1.28 7.2 0 4.59-1.13 8.32-3.37 11.21 -2.19 2.82-5.45 4.75-9.77 5.76l18.97 24.74Zm18.25-12.18h3.44c3.95 0 6.78-.51 8.48-1.53 1.7-1.02 2.56-2.65 2.56-4.89 0-2.25-.86-3.88-2.57-4.89 -1.71-1.02-4.54-1.53-8.49-1.53h-3.45v12.81Zm0-24.51h2.88c4.91 0 7.36-1.95 7.36-5.85 0-3.9-2.46-5.85-7.37-5.85h-2.89v11.69Zm-15.7-23.71h23.38c5.55 0 9.76 1.33 12.65 4 2.88 2.66 4.32 6.51 4.32 11.53 0 3.04-.57 5.57-1.69 7.6 -1.07 1.97-2.73 3.65-4.97 5.04 2.24.42 4.13 1.09 5.68 2 1.6.85 2.88 1.92 3.84 3.2 1.01 1.28 1.73 2.72 2.16 4.32 .42 1.6.64 3.3.64 5.12 0 2.82-.51 5.33-1.53 7.52 -.97 2.18-2.35 4.03-4.17 5.52 -1.77 1.49-3.93 2.61-6.49 3.36 -2.57.74-5.45 1.12-8.65 1.12h-25.23V27.31Zm64.66 30.18c0 2.4.45 4.61 1.36 6.64 .9 2.02 2.13 3.79 3.68 5.28 1.54 1.49 3.33 2.66 5.36 3.52 2.08.8 4.27 1.2 6.56 1.2s4.45-.41 6.48-1.21c2.08-.86 3.89-2.03 5.44-3.53 1.6-1.5 2.85-3.26 3.76-5.29 .9-2.03 1.36-4.25 1.36-6.65 0-2.41-.46-4.62-1.37-6.65 -.91-2.03-2.17-3.8-3.77-5.29 -1.55-1.5-3.37-2.65-5.45-3.45 -2.03-.86-4.2-1.29-6.49-1.29 -2.3 0-4.49.42-6.57 1.28 -2.03.8-3.82 1.94-5.37 3.44 -1.55 1.49-2.78 3.25-3.69 5.28 -.91 2.02-1.37 4.24-1.37 6.64Zm-16.42 0c0-4.49.82-8.65 2.48-12.5 1.65-3.9 3.95-7.29 6.88-10.17 2.93-2.89 6.43-5.13 10.49-6.73 4.11-1.66 8.62-2.49 13.53-2.49 4.85 0 9.34.82 13.45 2.48 4.11 1.6 7.63 3.84 10.57 6.72 2.98 2.88 5.31 6.27 6.96 10.16 1.65 3.84 2.48 8 2.48 12.49 0 4.48-.83 8.67-2.49 12.57 -1.66 3.84-3.98 7.2-6.97 10.08 -2.94 2.88-6.47 5.15-10.58 6.8 -4.12 1.6-8.6 2.4-13.46 2.4 -4.92 0-9.43-.81-13.54-2.41 -4.06-1.66-7.56-3.93-10.5-6.81 -2.94-2.89-5.24-6.25-6.89-10.09 -1.66-3.9-2.49-8.09-2.49-12.58Zm88.47-3.21h2.96c3.09 0 5.47-.65 7.12-1.93 1.65-1.29 2.48-3.13 2.48-5.53 0-2.41-.83-4.25-2.49-5.53 -1.66-1.29-4.04-1.93-7.13-1.93h-2.97V54.3Zm34.51 33.39h-19.54l-14.98-23.23v23.22h-15.7V27.33h24.42c3.36 0 6.29.5 8.8 1.52 2.5.96 4.56 2.29 6.16 4 1.65 1.7 2.88 3.68 3.68 5.92 .85 2.24 1.28 4.64 1.28 7.2 0 4.59-1.13 8.32-3.37 11.21 -2.19 2.82-5.45 4.75-9.77 5.76l18.97 24.74Zm36.91-47.09h-18.66v10.08h17.61V64h-17.62v10.41h18.65V87.7h-34.36V27.32h34.35v13.29Zm23 14.41h5.2c5.76 0 8.64-2.51 8.64-7.53 0-5.02-2.89-7.53-8.65-7.53h-5.21v15.05Zm0 32.67h-15.7V27.33h24.98c6.78 0 11.95 1.76 15.53 5.28 3.62 3.52 5.44 8.48 5.44 14.89 0 6.4-1.82 11.37-5.45 14.89 -3.58 3.52-8.76 5.28-15.54 5.28h-9.29v20.01Zm48.26-30.19c0 2.4.45 4.61 1.36 6.64 .9 2.02 2.13 3.79 3.68 5.28 1.54 1.49 3.33 2.66 5.36 3.52 2.08.8 4.27 1.2 6.56 1.2s4.45-.41 6.48-1.21c2.08-.86 3.89-2.03 5.44-3.53 1.6-1.5 2.85-3.26 3.76-5.29 .9-2.03 1.36-4.25 1.36-6.65 0-2.41-.46-4.62-1.37-6.65 -.91-2.03-2.17-3.8-3.77-5.29 -1.55-1.5-3.37-2.65-5.45-3.45 -2.03-.86-4.2-1.29-6.49-1.29 -2.3 0-4.49.42-6.57 1.28 -2.03.8-3.82 1.94-5.37 3.44 -1.55 1.49-2.78 3.25-3.69 5.28 -.91 2.02-1.37 4.24-1.37 6.64Zm-16.42 0c0-4.49.82-8.65 2.48-12.5 1.65-3.9 3.95-7.29 6.88-10.17 2.93-2.89 6.43-5.13 10.49-6.73 4.11-1.66 8.62-2.49 13.53-2.49 4.85 0 9.34.82 13.45 2.48 4.11 1.6 7.63 3.84 10.57 6.72 2.98 2.88 5.31 6.27 6.96 10.16 1.65 3.84 2.48 8 2.48 12.49 0 4.48-.83 8.67-2.49 12.57 -1.66 3.84-3.98 7.2-6.97 10.08 -2.94 2.88-6.47 5.15-10.58 6.8 -4.12 1.6-8.6 2.4-13.46 2.4 -4.92 0-9.43-.81-13.54-2.41 -4.06-1.66-7.56-3.93-10.5-6.81 -2.94-2.89-5.24-6.25-6.89-10.09 -1.66-3.9-2.49-8.09-2.49-12.58Z"/></svg>