<svg viewBox="0 0 256 233" xmlns="http://www.w3.org/2000/svg"><g fill="#8E8F8F"><path d="M138.62 32.23c3.08 0 5.58 2.45 5.66 5.52l0 .14v64.84c0 3.08-2.46 5.58-5.53 5.66l-.15 0H85.72c-3.09 0-5.59-2.46-5.67-5.53l-.01-.15V37.86c0-3.09 2.45-5.59 5.52-5.67l.14-.01h52.87Zm0 2.52H85.74c-1.7 0-3.09 1.34-3.15 3.03l-.01.11v64.84c0 1.7 1.35 3.08 3.03 3.14l.11 0h52.87c1.7-.01 3.08-1.36 3.14-3.04l0-.12V37.86c-.01-1.74-1.42-3.15-3.15-3.15ZM93.29 92.66v3.77h-3.78v-3.78h3.77Zm42.17 0v3.77H95.17v-3.78h40.28ZM93.28 76.29v3.77H89.5v-3.78h3.77Zm42.17 0v3.77H95.16v-3.78h40.28ZM93.27 60.55v3.77h-3.78v-3.78h3.77Zm42.17 0v3.77H95.15v-3.78h40.28Zm0-14.49v3.77H89.48v-3.78h45.95Z"/><path d="M138.62 121.62v.03c3.06-.01 5.56 2.43 5.66 5.48l0 .14v64.84c0 3.08-2.46 5.58-5.53 5.66l-.15 0H85.72c-1.51 0-2.95-.6-4.01-1.66 -1.03-1.03-1.62-2.4-1.66-3.84l-.01-.18v-64.85c0-3.09 2.45-5.59 5.52-5.67l.14-.01h52.87Zm0 2.52H85.74c-1.7 0-3.09 1.34-3.15 3.03l-.01.11v64.84c0 1.7 1.35 3.08 3.03 3.14l.11 0h52.87c1.69-.01 3.07-1.34 3.14-3.02l0-.12v-64.85c-.01-1.7-1.36-3.09-3.04-3.15l-.12-.01v-.02Zm-45.33 57.93v3.77h-3.78v-3.78h3.77Zm42.17.02v3.72H95.17v-3.73h40.28Zm-42.18-16.4v3.77H89.5v-3.78h3.77Zm42.17.02v3.72H95.16v-3.73h40.28Zm-42.18-15.77v3.77h-3.78v-3.78h3.77Zm42.17.02v3.71H95.15v-3.72h40.28Zm0-14.51v3.77H89.48v-3.78h45.95Z"/><path d="M153.87 70.31l0 3.14 18.88 0 0 85.53 -18.89 0 0 3.14 18.88 0 3.14 0 0-3.15 0-85.54 0-3.15 -3.15 0Z"/></g><path fill="#FE0902" d="M19.33 14.79c3.72-6.11 9.85-9.67 16.05-11.74l.84-.28v0l.84-.26c.42-.13.84-.24 1.26-.36l.83-.22c.13-.04.27-.07.41-.11l.82-.19c.13-.04.27-.06.41-.09l.81-.17v0l.8-.16v0l.79-.14v0l.78-.13v0l.77-.12v0l.75-.11v0l.74-.1v0l.72-.09v0l.7-.08v0l1.02-.09v0l.97-.08v0l.92-.06v0l1-.05v0l.91-.03v0l.55-.01 .51-.01H54l.61 0 .34 0 .63.02 .28.01v15.11c-13.37-1.28-19.34 2.76-21.97 7.06l-.24.4c-.35.6-.62 1.21-.85 1.81l-.15.39c-.03.06-.05.13-.07.19l-.13.38v0l-.11.38v0l-.1.37c-.02.06-.03.12-.05.18l-.08.36c-.02.06-.03.11-.04.17l-.07.35v0l-.06.34v0l-.05.32v0l-.05.46v0l-.04.43v0l-.02.34 -.01.31 -.01.29 0 .26 0 .22 .01.28 .03.33 -.01 5.55 -.04 11.33 -.04 8.16 -.05 6.87 -.06 5.8 -.05 4.57 -.06 4.45 -.06 3.79 -.08 4.02 -.05 2.09 -.06 1.97 -.07 2.2 -.03.69 -.01 1.27 -.01.78 -.01.52 -.03.79v0l-.04.77v0l-.03.47v0l-.04.47v0l-.04.47v0l-.07.71v0l-.06.47v0l-.07.47v0l-.08.47c-.02.07-.03.15-.04.23l-.09.47c-.02.07-.04.15-.05.23l-.1.47v0l-.12.47v0l-.13.47c-.05.15-.09.31-.14.47l-.15.46v0l-.16.46v0l-.18.46c-1.94 5-6.32 9.45-16.25 11.52 9.65 2 14.06 6.26 16.08 11.1l.18.46c.17.46.33.93.47 1.4l.13.47c.08.31.16.63.22.94l.09.47c.01.07.03.15.04.23l.08.47v0l.07.47v0l.06.47v0l.05.47v0l.04.47v0l.04.47v0l.03.47v0l.04.7v0l.02.47v0l.02.78v0l.01.52 0 .51 0 .76 0 1.27 .06 2.21 .06 2.33 .05 2.5 .05 2.65 .05 3.25 .07 5.37 .05 4.55 .02 2.56 .05 6.54 .05 9.71 .03 10.51 .01-.01v9.32l-.02.13 -.02.19 -.02.17 -.02.33v0l-.01.26 0 .29 0 .31 .01.34 .03.43v0l.02.3v0l.05.48v0l.04.33v0l.05.34v0l.06.35c.01.05.02.12.03.18l.08.36c.01.06.03.12.04.18l.1.37v0l.11.38c.02.06.04.12.06.19l.13.39c.04.13.09.26.15.39l.16.39c2.09 4.7 7.63 9.79 21.96 8.62l.78-.07v15.11l-.41.01 -.75.02 -.62.01h-.73v0l-.55-.01 -.59-.02 -.64-.02 -.83-.04v0l-.58-.03v0l-.61-.04v0l-.63-.05v0l-.65-.06v0l-.67-.06v0l-.69-.07v0l-.71-.08v0l-.72-.09v0l-.74-.1c-.13-.02-.25-.04-.38-.06l-.76-.12c-.13-.02-.26-.05-.39-.07l-.78-.14c-.13-.03-.26-.05-.39-.08l-.79-.16c-.14-.03-.27-.06-.4-.09l-.8-.18v0l-.81-.19c-.27-.07-.55-.14-.82-.2l-.82-.22c-7.5-2.05-15.36-6.08-19.41-13.99 .87-9.73 4.87-18.02 12.05-23.17 .33-.24.68-.47 1.02-.7l.39-.25c-.49.3-.97.61-1.44.95 -7.17 5.14-11.17 13.43-12.05 23.12 -1.81-3.64-2.75-7.65-2.76-11.71l-.1-4.17 -.12-5.06 -.15-5.92 -.2-7.54 -.19-6.54 -.26-8.56 -.29-9.17 -.48-14.43 -.12-3.35c-.29-7.58-3.33-11.27-6.49-13.05l-.38-.21c-.07-.04-.13-.07-.19-.1l-.38-.18c-.13-.06-.25-.11-.38-.16l-.37-.15c-.13-.05-.25-.09-.37-.14l-.37-.12c-.12-.04-.24-.08-.36-.11l-.29-.08 -.28-.07 -.28-.06 -.27-.06 -.4-.07v0l-.26-.04 -.25-.04 -.36-.04v0l-.32-.01 -.64-.01c-.33-.01-.66-.01-1 0l-.35 0v-17.72c.82.02 1.56.01 2.29-.03l.35-.04 .24-.04 .25-.04 .39-.07v0l.26-.06 .27-.06 .27-.07 .28-.08 .35-.11v0l.36-.12v0l.36-.14c3.67-1.38 7.82-4.91 8.15-13.82l.43-12.81 .33-10.47 .18-5.94 .27-9.53 .18-6.63 .13-5.05 .16-6.76 .09-4.21 .07-3.34c.1-5.25 1.4-9.51 3.45-12.97l.13-.23 -.01-.02Zm180.64.37V.04l.4-.02 .56-.02 .36-.01 .64-.01v0h.49l.53 0 .83.01v0l1.06.03v0l.56.02v0l.59.03v0l.93.06v0l.64.05v0l.66.06v0l.68.06v0l.7.07v0l.71.08v0l.73.09v0l.74.1v0l.75.12c.12.02.25.04.38.06l.77.13v0l.78.15v0l.79.16v0l.79.17v0l.8.19c.4.1.8.2 1.21.31l.81.23c7.6 2.23 15.43 6.59 19.1 15.02 1.39 3.29 2.13 6.83 2.15 10.41l.09 4.16 .11 5.05 .08 3.38 .12 5.05 .17 6.66 .13 4.88 .25 8.55 .28 9.16 .47 14.42 .11 3.34c.28 7.69 3.42 11.37 6.64 13.12l.37.19c.06.03.12.06.18.09l.37.16v0l.36.15c.06.02.12.04.18.07l.36.13c.06.02.12.04.18.06l.35.11c.05.01.11.03.17.05l.52.13v0l.34.07 .33.06v0l.32.05 .25.03 .24.03 .35.03v0c.61.03 1.26.04 1.94.03l.34-.01v17.71c-.83-.03-1.57-.02-2.3.02l-.24.02 -.25.02 -.38.05v0l-.4.06v0l-.27.05 -.28.05 -.28.06 -.29.07 -.18.05v0l-.36.11c-.07.01-.13.03-.19.06l-.37.13c-.07.02-.13.04-.19.07l-.38.15c-3.53 1.51-7.29 5.13-7.61 13.59l-.44 12.8 -.34 10.46 -.19 5.93 -.28 9.52 -.19 6.62 -.14 5.04 -.17 6.75 -.1 4.2 -.08 3.32c-.03 3.11-.59 6.2-1.64 9.13l-.13.34 0 .03c-3.77 9.73-12.89 14.31-21.31 16.44l-.83.2c-.14.03-.28.06-.42.09l-.82.17c-.14.02-.28.05-.41.08l-.81.15c-.14.02-.27.04-.4.07l-.79.13c-.14.02-.27.04-.4.06l-.78.11v0l-.76.1v0l-.75.09v0l-.73.08v0l-.72.07v0l-.7.06v0l-1 .08v0l-.64.04v0l-.92.05v0l-.86.03v0l-1.06.03v0l-.6.01 -.55 0h-.5l-.45-.01 -.39-.01 -.48-.02 -.42-.02 -.15-.01v-15.12c13.99 1.33 19.87-3.16 22.31-7.68l.2-.41c.06-.14.13-.27.19-.41l.17-.41c.05-.14.1-.27.15-.4l.14-.4v0l.12-.4c.02-.07.03-.13.05-.2l.1-.39v0l.09-.38v0l.08-.37v0l.07-.37v0l.06-.36v0l.05-.35v0l.04-.33v0l.04-.47v0l.02-.3v0l.02-.49 0-.32 0-.3 -.01-.27 -.01-.23 -.02-.2 -.03-.29 -.02-.14v-8.29l.02-7.72 .03-7.97 .04-6.72 .05-6.86 .06-6.15 .04-3.58 .04-2.88 .05-3.31 .04-2.1 .04-1.99 .04-1.88 .06-2.17 0-1.28 0-.78 0-.53 .01-.53 .02-.8v0l.02-.54 .02-.48v0l.03-.48v0l.04-.48v0l.04-.48v0l.05-.49v0l.06-.49c.01-.09.02-.17.03-.25l.07-.49v0l.08-.49v0l.09-.48v0l.1-.48c.13-.56.28-1.12.46-1.67l.16-.47c.22-.63.48-1.25.79-1.85l.23-.46c2.28-4.2 6.72-7.8 15.35-9.6 -10.89-2.26-15.11-7.39-16.74-12.97l-.14-.48c-.09-.32-.17-.64-.23-.95l-.1-.48c-.02-.08-.04-.16-.05-.24l-.09-.48v0l-.08-.48v0l-.07-.48v0l-.06-.48v0l-.05-.48v0l-.05-.48v0l-.04-.48v0l-.05-.71v0l-.03-.48v0l-.03-.79v0l-.02-.53 -.01-.52 -.01-.77 -.01-1.28 -.05-1.48 -.06-1.88 -.06-2.42 -.06-2.58 -.05-2.71 -.06-3.79 -.07-5.45 -.06-5.09 -.05-5.9 -.07-10.49 -.05-11.36v0c.85-.48 1.69-1 2.49-1.57 4-2.87 7.01-6.74 9.05-11.29l.13-.32c-2.04 4.68-5.1 8.66-9.21 11.6 -.67.47-1.36.91-2.07 1.31l-.43.24v-8.44l.01-.14 .01-.2 .01-.18 .01-.34v0l0-.27 -.01-.3 -.01-.32 -.02-.35 -.02-.29v0l-.05-.46v0l-.06-.49v0l-.05-.34v0l-.06-.35v0l-.07-.36c-.02-.06-.03-.13-.04-.19l-.09-.37c-.02-.07-.04-.13-.05-.19l-.11-.38v0l-.12-.39c-.03-.07-.05-.13-.07-.2l-.14-.4c-.05-.14-.1-.27-.16-.4l-.17-.4c-2.1-4.71-7.64-9.8-21.97-8.63l-.79.06Z"/><path fill="#FFAB00" d="M31.16 36.09c.15.1.3.21.46.31l.46.29v-5.56l-.02-.14 -.02-.2 -.02-.18 -.02-.34v0l-.01-.27 0-.3 0-.32 .01-.35 .01-.29v0l.02-.31v0l.03-.32v0l.04-.33v0l.05-.35v0l.06-.36v0l.07-.37c.01-.07.02-.13.03-.19l.08-.38v0l.1-.38c.01-.07.03-.13.05-.2l.12-.39c.02-.07.04-.14.06-.2l.14-.4c.22-.6.5-1.21.84-1.82l.23-.41c2.63-4.31 8.59-8.35 21.96-7.07V.14L55.6.12 55.11.1l-.33-.01 -.8-.02v0L53.5.06l-.52 0 -.86.01v0l-.79.02v0l-.85.03 -.93.05v0l-.98.07v0l-.68.05v0l-1.06.1v0l-.73.08v0l-.75.09v0l-.76.1v0l-.78.11v0l-.79.12v0l-.8.13v0l-.81.15v0l-.82.16c-.14.02-.28.05-.42.08l-.83.18c-.14.03-.28.06-.42.1l-.84.21c-.42.11-.85.22-1.27.35l-.85.25v0l-.85.27C28.91 4.83 22.78 8.4 19.05 14.5c1.2 8.91 5.13 16.51 11.83 21.29Zm24.85 195.95v-15.12c-14.63 1.39-20.39-3.57-22.62-8.29l-.19-.41c-.09-.21-.17-.41-.25-.61l-.15-.4c-.03-.07-.05-.14-.07-.2l-.13-.39v0l-.11-.39v0l-.1-.38v0l-.09-.37v0l-.08-.37v0l-.07-.36v0l-.06-.35v0l-.05-.33v0l-.05-.47v0l-.04-.44v0l-.02-.35 -.01-.32 -.01-.3 0-.27 0-.23 .01-.2 .02-.29 .01-.15v-9.32c-.53.32-1.05.66-1.56 1.02 -7.19 5.15-11.18 13.44-12.06 23.16 4.04 7.9 11.91 11.94 19.4 13.98l.81.21c.27.06.54.13.81.19l.8.18v0l.79.17v0l.79.15c.13.02.26.04.39.07l.77.13c.12.02.25.04.38.06l.76.11c.12.01.25.03.37.05l.74.1c.12.01.24.03.36.04l.71.08v0l.7.07v0l.68.06v0l.66.05v0l.64.05v0l.62.04v0l.6.03v0l.85.04v0l.54.02v0l.63.01 .58.01 .54 0 .72-.01 .61-.01 .48-.02 .65-.03ZM238.09 17.31c-3.91-8.98-12.52-13.34-20.56-15.43l-.81-.21v0l-.8-.19c-.14-.04-.27-.06-.4-.09l-.79-.17c-.14-.03-.27-.06-.4-.08l-.78-.15v0l-.77-.14v0l-.76-.13v0l-.75-.12v0l-.74-.11v0l-.72-.1v0L209.1.3v0l-.69-.08v0l-.67-.07v0l-.97-.08v0l-.92-.07v0l-.87-.05v0l-.82-.04v0l-.52-.02v0l-.62-.02 -.57-.01 -.52-.01 -.47 0 -.42 0 -.52.01 -.38.01 -.32.01v15.11c14.62-1.4 20.38 3.56 22.61 8.28l.18.4c.08.2.16.4.24.6l.14.39c.02.06.04.13.06.19l.12.38v0l.1.38v0l.09.37v0l.08.36v0l.07.36v0l.06.35v0l.05.34v0l.04.32v0l.04.46v0l.03.43v0l.01.34 0 .31 0 .29 -.01.26 -.01.22 -.02.28 -.04.33v8.43c.85-.48 1.69-1 2.49-1.57 6.49-4.66 10.38-11.92 11.71-20.45Zm-11.08 177.25c-1-.71-2.05-1.35-3.13-1.92v8.28l.01.13 .01.19 .01.17 .01.33v0l0 .26 -.01.29 -.01.31 -.03.48v0l-.03.29v0l-.05.46v0l-.05.32v0l-.06.34v0l-.07.35v0l-.08.36v0l-.09.36v0l-.1.37v0l-.11.38c-.02.06-.04.12-.06.19l-.13.39v0l-.15.39c-.06.13-.11.26-.16.39l-.18.4c-.07.13-.13.26-.2.4l-.21.4c-2.44 4.51-8.32 9-22.32 7.67v15.11l.22.01 .64.02v0l.79.01v0l.48 0 .81-.01v0l.6-.02 .65-.02 .81-.04v0l.86-.05v0l.6-.04v0l.94-.08v0l.65-.06v0l.67-.07v0l.69-.08v0l.7-.09v0l.72-.1v0l.73-.11v0l.75-.12c.12-.03.25-.05.37-.07l.76-.14v0l.77-.15c.13-.03.26-.06.39-.08l.78-.17c.13-.03.26-.06.39-.09l.79-.19c8.55-2.08 17.96-6.64 21.8-16.57 -1.53-7.94-5.36-14.65-11.48-19.03Z"/></svg>