<svg viewBox="0 0 512 128" xmlns="http://www.w3.org/2000/svg"><path fill="#3178C6" d="M14 0h484c7.73 0 14 6.26 14 14v99.49c0 7.73-6.27 14-14 14H14c-7.74 0-14-6.27-14-14v-99.5c0-7.74 6.26-14 14-14Z"/><path fill="#FFF" d="M161.56 46.28h17.42v-8.55H134.1v8.54h17.38V98.4h10.06V46.26Zm33.49 59.07l19.63-50.29h-9.95l-10.88 31.57c-.26.96-.47 1.75-.61 2.36l-.16.68h-.22c-.23-.97-.41-1.73-.55-2.27l-.23-.87 -10.37-31.5h-10.93l17.29 43.25 -2.94 7.11c-1.82 3.61-4.57 5.41-8.25 5.41 -1.28 0-2.7-.26-4.25-.77v8.16c1.38.36 3.11.55 5.18.55 7.36 0 13.08-4.49 17.16-13.46Zm50.54-51.31c5.51 0 9.82 1.93 12.9 5.79 3.08 3.86 4.62 9.05 4.62 15.56 0 7.21-1.75 13-5.23 17.34 -3.49 4.34-8.24 6.51-14.27 6.51 -5.55 0-9.83-2.43-12.83-7.28h-.17v26.31h-9.85V55.03h9.84v7.61h.16c3.36-5.76 8.29-8.63 14.77-8.63Zm-3.44 8.15c-3.51 0-6.33 1.23-8.47 3.7 -2.14 2.46-3.21 5.55-3.21 9.25v0 5.34c0 3.14 1.01 5.8 3.03 7.99 2.02 2.18 4.58 3.28 7.69 3.28 3.64 0 6.51-1.41 8.58-4.23 2.07-2.82 3.11-6.76 3.11-11.81 0-4.24-.97-7.56-2.91-9.96 -1.94-2.4-4.56-3.6-7.87-3.6Zm46.82-8.16c5.89 0 10.45 1.9 13.67 5.71 3.22 3.81 4.84 9.1 4.84 15.87v3.76H278.1c.11 4 1.34 7.09 3.68 9.27 2.34 2.17 5.56 3.26 9.65 3.26 4.6 0 8.82-1.39 12.66-4.15v7.91c-3.93 2.48-9.12 3.72-15.58 3.72 -6.35 0-11.32-1.97-14.92-5.91 -3.61-3.94-5.41-9.48-5.41-16.62 0-6.75 1.98-12.25 5.95-16.5s8.9-6.38 14.79-6.38Zm42.35-17.34c3.62 0 7.25.6 10.87 1.81v4.39c-3.57-1.61-7.39-2.42-11.44-2.42 -4.14 0-7.42 1.04-9.84 3.12 -2.43 2.08-3.64 4.73-3.64 7.95 0 3.1.82 5.56 2.48 7.4 1.65 1.83 5.23 4.32 10.73 7.48 5.69 3.21 9.48 6.06 11.36 8.56 1.88 2.49 2.82 5.36 2.82 8.6 0 4.65-1.63 8.44-4.87 11.37 -3.25 2.93-7.83 4.39-13.75 4.39 -2.1 0-4.52-.33-7.25-.98 -2.74-.65-4.83-1.4-6.27-2.25v-4.78c4.36 2.76 8.78 4.14 13.25 4.14 4.75 0 8.37-.98 10.83-2.94 2.46-1.96 3.69-4.71 3.69-8.23 0-3.11-.83-5.58-2.49-7.43 -1.6-1.79-5-4.19-10.19-7.22l-.59-.34c-6.18-3.59-10.09-6.58-11.73-8.99 -1.65-2.42-2.47-5.2-2.47-8.36 0-4.29 1.67-7.93 5.01-10.92s7.8-4.49 13.38-4.49Zm-42.21 24.47c-2.8 0-5.17 1.03-7.12 3.1 -1.95 2.06-3.14 4.77-3.59 8.11v0h19.88c-.03-3.55-.86-6.3-2.48-8.27 -1.63-1.97-3.87-2.96-6.72-2.96Zm80.53 38.24c4.49 0 8.36-.99 11.6-2.96v-4.06c-3.25 2.31-7.06 3.46-11.44 3.46 -4.78 0-8.63-1.71-11.55-5.12s-4.38-7.92-4.38-13.53c0-5.81 1.59-10.53 4.77-14.18 3.18-3.65 7.33-5.48 12.45-5.48 3.72 0 7.15.95 10.28 2.87V56c-3.13-1.36-6.36-2.03-9.69-2.03 -6.43 0-11.7 2.19-15.79 6.57 -4.1 4.38-6.15 10-6.15 16.88 0 6.53 1.82 11.82 5.46 15.86 3.64 4.04 8.43 6.06 14.37 6.06Zm37.27-40.46c-1.3-.94-2.82-1.41-4.57-1.41 -3.41 0-6.27 1.77-8.58 5.31 -2.31 3.54-3.47 8.57-3.47 15.08v20.44h-3.81V54.84h3.8v9.64h.16c.98-3.32 2.54-5.9 4.68-7.74 2.13-1.85 4.61-2.77 7.43-2.77 1.6 0 3.04.25 4.3.76v4.16Zm10.19-3.91v43.34h-4.08V55.02h4.07Zm-1.83-17.34c.88 0 1.67.29 2.34.87 .67.58 1.01 1.36 1.01 2.35 0 .93-.33 1.73-1 2.39 -.66.66-1.45 1-2.37 1 -.87 0-1.63-.32-2.29-.96 -.67-.64-1-1.46-1-2.45 0-.96.33-1.74 1.01-2.34 .67-.6 1.42-.9 2.26-.9ZM446.51 54c5.49 0 9.78 1.89 12.86 5.68s4.62 8.94 4.62 15.45c0 7.24-1.77 13.09-5.31 17.56 -3.54 4.46-8.21 6.7-14.01 6.7 -6.48 0-11.27-2.92-14.37-8.76v0h-.17v27.6h-3.89v-63.2h3.88v8.91h.16c1.54-3.19 3.76-5.65 6.65-7.38 2.88-1.74 6.06-2.6 9.52-2.6Zm-.16 3.56c-5.1 0-9.04 1.68-11.83 5.06 -2.79 3.37-4.19 7.34-4.19 11.9v5.44c0 4.33 1.37 8.05 4.13 11.16 2.75 3.1 6.38 4.66 10.88 4.66 4.46 0 8.09-1.9 10.88-5.68 2.78-3.79 4.18-8.76 4.18-14.93 0-5.41-1.29-9.7-3.85-12.88 -2.57-3.19-5.98-4.78-10.25-4.78Zm36.45 41.81c1.76 0 3.65-.48 5.67-1.44v-3.64c-1.85 1.04-3.58 1.56-5.17 1.56 -2.25 0-3.84-.67-4.78-2.01 -.94-1.34-1.41-3.5-1.41-6.48V58.82h11.34v-3.55H477.1V42.73c-.62.22-1.27.43-1.94.63 -.68.22-1.32.45-1.94.67v11.22h-7.74v3.54h7.73v29.04c0 7.65 3.18 11.48 9.54 11.48v0Z"/></svg>