<svg viewBox="0 0 512 302" xmlns="http://www.w3.org/2000/svg"><path fill="#262627" d="M38.51 39.34C66.66 10.62 102.14-2.49 145.25.38c41.52 2.76 83.82 23.25 114.13 53.43 25.76 25.65 35.5 50.78 35.16 88.34 2.86-6.13 8.45-10.97 17.4-10.97 13.52 0 19.49 11 19.49 20.5v3.77h-30.01c0 6.64 3.86 11.68 10.5 11.68 4.7 0 8.99-2.7 11.09-7.15l7.47 2.94c-4.29 8.31-9.25 11.93-18.58 11.93 -10.2 0-16.04-6.29-18.45-13.61 -3.72 35.31-17.66 66.26-41.93 92.03 -29.28 31.08-62.57 47.7-100.92 48.3v0l-1.26.01c-38.81.27-72.89-15.19-102.43-45.34C17.58 226.3 1.83 190.65.07 148.67 -1.78 104.6 11.1 67.09 38.41 39.24ZM145.13 2.16C102.53-.68 67.56 12.24 39.77 40.58 12.82 68.05.11 105.08 1.93 148.67c1.74 41.52 17.31 76.76 46.32 106.38 29.52 30.13 63.56 45.39 102.36 44.78v0l1.21-.03c37.31-.93 69.76-17.3 98.42-47.73 25.4-26.98 39.34-59.66 41.99-97.16 -.05-.64-.07-1.28-.07-1.9 0-1.55.13-3.14.41-4.71 1.47-40.59-7.71-66.58-34.5-93.26 -30.02-29.9-71.93-50.19-113-52.93Zm54.02 129.7l13.6 31.03 14.42-31.04h10.16l-27.66 59.49h-10.18l8.04-17.31 -18.5-42.19h10.06Zm66.53-.68c12.35 0 18.9 8.06 18.9 21.84 0 13.44-6.65 21.84-19.08 21.84 -4.96 0-9.25-2.36-11.35-5.38v21.84h-8.75v-59.5h8.74v4.87c1.59-2.78 6.38-5.55 11.51-5.55Zm123.03 0c6.3 0 11.34 2.1 15.12 6.3 3.78 4.2 5.71 9.41 5.71 15.54 0 6.13-1.94 11.34-5.72 15.54 -3.79 4.2-8.83 6.3-15.13 6.3 -6.31 0-11.43-2.11-15.22-6.31 -3.79-4.21-5.63-9.42-5.63-15.55 0-6.14 1.84-11.35 5.62-15.55 3.78-4.21 8.9-6.31 15.21-6.31Zm-201.04-15.8v8.73h-18.56v50.08h-9.25V124.1H141.3v-8.74h46.36Zm251.43 15.79c1.93 0 3.69.33 5.37 1l-1.52 7.98c-1.35-.85-3.03-1.26-4.96-1.26 -3.11 0-5.8 1.67-8.07 5.12 -2.28 3.36-3.37 8.15-3.37 14.45v15.71h-8.74v-42.36h8.73v7.05c2.77-4.96 7.81-7.74 12.52-7.74Zm60.75 0c7.64 0 12.1 5.04 12.1 12.68v30.33h-8.74v-28.41c0-4.46-2.44-6.9-6.22-6.9 -5.47 0-9.92 7.14-9.92 18.31v16.97h-8.75v-28.41c0-4.46-2.44-6.9-6.22-6.9 -5.64 0-9.92 7.14-9.92 19.24v16.04h-8.74v-42.36h8.73v7.22c3.44-5.3 7.64-7.9 12.77-7.9 5.71 0 10.42 3.44 11.68 8.73 2.93-5.63 7.72-8.74 13.19-8.74ZM358.2 114.69c2.77 0 5.04.5 6.97 1.51l-1.77 7.39c-1.51-.76-3.2-1.18-4.96-1.18 -3.78 0-5.72 2.18-5.72 6.64v2.77h9.32v7.72h-9.33v34.62h-8.74v-34.63h-5.47v-7.73h5.46v-2.19c0-10.01 5.37-14.96 14.2-14.96Zm-93.73 24.2c-3.2 0-5.8 1.26-7.82 3.86 -2.02 2.51-3.03 5.96-3.03 10.25 0 4.28 1 7.72 3.02 10.33 2.01 2.52 4.62 3.78 7.81 3.78 3.19 0 5.79-1.27 7.81-3.79 2.01-2.61 3.02-6.06 3.02-10.34 0-4.29-1.01-7.74-3.03-10.26 -2.02-2.61-4.63-3.87-7.82-3.87Zm124.21 0c-3.62 0-6.48 1.42-8.58 4.2 -2.02 2.77-3.03 6.05-3.03 9.91 0 3.86 1 7.22 3.02 9.99 2.1 2.77 4.95 4.11 8.57 4.11 3.61 0 6.47-1.35 8.48-4.12 2.1-2.78 3.1-6.14 3.1-10 0-3.87-1.01-7.15-3.11-9.92 -2.02-2.78-4.88-4.21-8.49-4.21Zm-76.78 0c-5.63 0-9.33 3.77-10.34 9.24h20.58c-.76-5.3-4.29-9.25-10.26-9.25Z"/></svg>