<svg viewBox="0 0 256 260" xmlns="http://www.w3.org/2000/svg"><path fill="#F49700" d="M109.52 4.05c-4.72 4.03-8.07 8.74-8.07 22.82 0 38.31 48.36 153.4 81.3 153.4 3.69.05 7.38-.48 10.92-1.56l-.07.01 -.85 1.35c-28.43 45.31-62.65 78.55-83.35 79.21l-.63.01c-44.98 0-108.8-135.77-108.8-195.5C-.03 54.38 2.1 47 5.34 42.41 20.8 23.5 69.16 8.7 109.48 4.01Zm63.14-4.06c41.64 0 83.328 6.72 83.328 30.22 0 47.7-30.26 105.51-45.696 105.51 -27.55 0-61.87-76.61-61.87-114.93 0-17.48 6.69-20.83 24.17-20.83h.06Z"/></svg>