<svg viewBox="0 0 256 256" xmlns="http://www.w3.org/2000/svg"><path fill="#2015FF" d="M19.6 59.55l64.55-37.51 .03 105.17c-.13 38.97 27.22 73.94 65.02 83.14l.84.2 -.54.68c-.86 1.12-1.68 2.19-2.7 3.2 -3.43 3.38-7.19 6.45-11.19 9.13 -4.04 2.69-8.34 5-12.81 6.87v0c-4.55 1.89-9.31 3.35-14.13 4.31 -5.09 1.01-9.49 1.47-14.2 1.47 -.16 0-.31 0-.46 0 -5.13-.02-10.24-.55-15.19-1.58 -4.82-1-9.56-2.48-14.1-4.41 -4.45-1.89-8.74-4.23-12.77-6.95 -3.99-2.71-7.74-5.81-11.13-9.21 -3.41-3.42-6.5-7.16-9.18-11.14 -2.71-4.02-5.03-8.31-6.9-12.76 -1.91-4.52-3.37-9.25-4.34-14.07 -1.06-5.21-1.18-10.58-1.17-15.15l-.02-101.32 .27-.17Zm162.42 132.53c3.73-10.5 5.64-20.77 5.67-30.53V50.47l48.93-28v105.18c-.02 4.76-.46 9.28-1.33 13.42 -.89 4.26-2.22 8.46-3.93 12.45 -1.69 3.94-3.78 7.73-6.2 11.28 -2.41 3.52-5.17 6.83-8.2 9.83 -3.05 3.01-6.39 5.73-9.93 8.1 -3.58 2.38-7.4 4.44-11.38 6.1 -4.02 1.72-7.76 2.87-12.52 3.82 -.17.03-.35.06-.53.09l-.95.16 .31-.9ZM-.02 49.37l.04 111.59c-.16 51.69 41.93 93.87 93.82 94.03h.28c16.48 0 32.71-4.32 46.91-12.46l68.63-39.29c28.45-14.71 46.18-43.65 46.27-75.53l.01-116.56c0-.34-.18-.65-.47-.81v-.01L238.65.53c-.29-.17-.65-.17-.94-.01l-68.96 38.76c-.3.16-.48.47-.48.81l.05 121.33c-.02 5.1-.55 10.19-1.58 15.12 -1.01 4.8-2.49 9.52-4.42 14.03 -.37.84-.74 1.67-1.14 2.5l-.18.36 -.41-.06c-1.17-.16-1.94-.3-3.99-.68l-.55-.11c-4.32-.89-13.11-3.38-23.58-10.12 -3.55-2.41-6.88-5.16-9.89-8.18 -3.03-3.03-5.77-6.36-8.14-9.89 -2.41-3.58-4.47-7.38-6.13-11.32 -1.69-4.01-2.99-8.22-3.85-12.49 -.78-3.82-1.1-7.77-1.08-13.22V10.95c0-.34-.17-.64-.46-.81L86.12-.03c-.16-.1-.32-.14-.5-.14 -.17 0-.33.04-.47.12L.3 48.4c-.29.16-.48.47-.48.81v0Z"/></svg>