<svg viewBox="0 0 512 193" xmlns="http://www.w3.org/2000/svg"><path fill="#A435F0" d="M79.53 45.92L39.75 22.95 -.02 45.91l0-22.97L39.74-.03l39.77 22.96 0 22.96Z"/><path d="M0 65.2h20.83v50.61c0 13.07 9.76 19.45 18.93 19.45 9.25 0 18.94-6.55 18.94-19.63V65.18h20.83V117c0 12.04-3.79 21.34-11.37 27.71 -7.59 6.36-17.05 9.47-28.59 9.47s-21.01-3.1-28.41-9.48c-7.41-6.37-11.2-15.32-11.2-27.21V65.15Zm259.65 62.9c-6.31 5.61-13.5 8.36-21.69 8.36 -14.95 0-24.97-8.52-26.1-21.7h67.31s.45-4.26.45-8.26c0-12.4-3.97-22.73-12.06-31.17 -7.92-8.44-18.25-12.57-30.82-12.57 -13.26 0-24.11 4.13-32.72 12.56 -8.44 8.43-12.74 19.45-12.74 33.23v.67c0 13.6 4.3 24.45 12.73 32.54 8.43 8.08 19.62 12.22 33.23 12.22 15.81 0 28.4-6.24 37.84-17l-15.48-8.94Zm-39.6-42.25c4.64-3.62 10.33-5.51 16.7-5.51 6.02 0 11.01 1.89 15.32 5.68 4.1 3.45 6.32 7.69 6.52 12.56h-46.21c.66-5.04 3.21-9.29 7.65-12.74l-.01-.01Zm249.3 79.87c-8.46 19.95-17.3 26.74-30.86 26.74h-9.4v-18.47h7.59c4.66 0 9-1.76 13.13-11.29l4.13-9.55 -35.65-87.98h21.17l25.31 63.35 26-63.36h21.17l-42.63 100.53h-.01ZM160.63 31.96v41.08c-6.83-6.12-17.45-9.76-27.72-9.76 -12.23 0-22.56 4.3-30.99 13.07 -8.27 8.61-12.4 19.28-12.4 32.19 0 12.91 4.13 23.59 12.39 32.37 8.43 8.61 18.76 12.91 30.98 12.91 14.09 0 23-5.55 27.71-9.89v7.98h20.66V31.92h-20.67v-.01Zm-6.2 95.54c-5 4.99-11.37 7.58-18.77 7.58 -7.41 0-13.43-2.59-18.43-7.59 -4.82-5-7.23-11.37-7.23-18.94 0-7.59 2.41-13.95 7.22-18.95 4.99-5 11.01-7.58 18.42-7.58 7.4 0 13.77 2.58 18.76 7.57 5.16 4.99 7.75 11.36 7.75 18.94 0 7.57-2.6 13.94-7.76 18.93Zm231.76-64.05c-15.7-.001-23.86 6.51-29.44 12.78 -2.24-4.27-8.54-12.79-23.24-12.79 -12.44 0-19.76 6.28-23.42 10.75v-9.03H289.6v86.76h20.48v-49.94c0-11.71 7.23-20.15 16.87-20.15 9.82 0 15.5 7.4 15.5 19.28v50.78h20.48v-49.94c0-11.88 7.05-20.15 17.2-20.15 9.81 0 15.49 7.4 15.49 19.27v50.79h20.66V98.14c0-22.63-12.17-34.78-30.14-34.78v-.01Z"/></svg>