<svg viewBox="0 0 256 146" xmlns="http://www.w3.org/2000/svg"><path fill="#8F9495" d="M146.88 122.21c-42.01 0-65.441-22.84-65.99-64.31 -.12-8.54.86-38.24 2.73-49.954 0-.001 18.64-7.96 19.05-7.96 .12 0 16.74 11.69 16.74 11.69 -.9 10-1.32 40.6-1.26 45.73 .32 24.89 10.18 37.52 29.29 37.52l.56-.01c24.46-.33 29.33-20.87 29.1-38.05 -.05-3.48-1.03-37.417-1.76-44.879L193.59.2l18.65 8.169c.72 7.05 1.82 43.034 1.88 48.002 .55 41.87-22.82 65.238-65.79 65.798 -.51.01-1.02.01-1.52.01"/><path fill="#496B8C" d="M234.67 72.02s4.49 14.5 11.29-1.29c6.8-15.79 3.35-38.29 3.35-38.29s21.39 45.506-12.44 79.161c0 0-7.51 8.59-23.79 13.44 0 0 25.5-21.5 21.57-53.036"/><path fill="#4A5D75" d="M50.32 90.25c40.06 15.92 60.31 49.92 120.226 37.14 59.91-12.79 51.12-73.493 51.12-73.493s13.18 30.55-7.2 62.3c-17.87 27.84-72.493 50.32-142.6-2.8 0 0-40.75-34.351-71.897-16.375 -.001-.01 17.673-19.78 50.32-6.8"/><path fill="#4B73A2" d="M82.81 97.5c-2.3-3.72-5.5-9.43-6.69-14.16 0 0-14.8-14.01-33.544-8.994 -9.54 1.75-15.7 7.96-15.7 7.96 15.869-4.72 21.92-3.52 37.2 5.19 12.75 7.27 28.503 21.38 18.72 9.988"/></svg>