<svg viewBox="0 0 512 108" xmlns="http://www.w3.org/2000/svg"><defs><linearGradient id="a" x1="50.116%" x2="50.116%" y1="-.094%" y2="84.061%"><stop offset="0%" stop-color="#487BF6"/><stop offset="100%" stop-color="#0093CB"/></linearGradient></defs><path fill="#5F5F5F" d="M0 68.71V21.17c0-1.51 1.17-2.68 2.67-2.68h14.05c1.5 0 2.67 1.17 2.67 2.67v47.03c0 14.22 7.19 21.75 18.91 21.75 11.71 0 18.91-7.2 18.91-21.09V21.14c0-1.51 1.17-2.68 2.67-2.68h14.05c1.5 0 2.67 1.17 2.67 2.67v46.86c0 26.61-14.9 39.66-38.5 39.66 -23.77 0-38.17-13.23-38.17-39Zm98.24-47.54c0-1.51 1.17-2.68 2.67-2.68h33.3c20.92 0 33.64 12.38 33.64 30.29v.33c0 20.25-15.74 30.79-35.49 30.79h-14.73v23.76c0 1.5-1.18 2.67-2.68 2.67h-14.06c-1.51 0-2.68-1.18-2.68-2.68V21.13Zm34.47 41.67c9.7 0 15.23-5.7 15.23-13.23v-.17c0-8.71-6.03-13.23-15.74-13.23h-12.39c-1.51 0-2.68 1.17-2.68 2.67v21.59c0 1.5 1.17 2.67 2.67 2.67h12.88v-.34Zm48.03-.17v-.34c0-24.94 18.74-45.36 45.86-45.36 15.39 0 23.59 5.02 31.96 11.21 1.17.83 1.33 2.51.5 3.68l-7.87 11.21c-.84 1.17-2.52 1.33-3.69.66 -6.7-4.52-13.23-8.88-21.26-8.88 -14.73 0-25.45 12.21-25.45 27.28v.66c0 15.06 12.21 27.95 27.28 27.28 8.2-.34 13.55-2.85 19.08-8.21 1-1.01 2.51-1.01 3.51-.17l9.37 8.2c1 1 1.17 2.67.16 3.68 -8.04 9.03-18.75 14.22-34.65 14.22 -25.61 0-44.86-20.09-44.86-45.2Zm181.6 28.11l9.2-8.71c1-1.01 2.67-.84 3.68 0 6.69 6.36 14.39 8.36 23.59 8.36 7.86 0 12.72-3.19 12.72-8.21v-.34c0-4.86-3.02-7.37-17.75-11.22 -17.75-4.52-29.13-9.38-29.13-26.78v-.34c0-15.91 12.72-26.45 30.79-26.45 11.88 0 22.09 3.51 30.62 9.54 1.17.83 1.33 2.51.66 3.68l-7.2 10.37c-.84 1.17-2.35 1.33-3.52.66 -7.03-4.52-13.9-7.2-20.76-7.2 -7.37 0-11.22 3.34-11.22 7.69v.33c0 5.69 3.68 7.69 18.91 11.54 17.74 4.68 27.78 11.04 27.78 26.27v.33c0 17.4-13.23 27.28-32.31 27.28 -12.39 0-26.78-3.52-35.99-12.89 -1.34-1.34-1.34-3.02-.17-4.02Zm82.68-69.63c0-1.51 1.17-2.68 2.67-2.68h60.92c1.5 0 2.67 1.17 2.67 2.67v11.88c0 1.5-1.18 2.67-2.68 2.67h-41.85c-1.51 0-2.68 1.17-2.68 2.67v12.55c0 1.5 1.17 2.67 2.67 2.67h36.15c1.5 0 2.67 1.17 2.67 2.67v11.88c0 1.5-1.18 2.67-2.68 2.67h-36.16c-1.51 0-2.68 1.17-2.68 2.67v13.22c0 1.5 1.17 2.67 2.67 2.67h42.51c1.5 0 2.67 1.17 2.67 2.67v11.88c0 1.5-1.18 2.67-2.68 2.67h-61.6c-1.51 0-2.68-1.18-2.68-2.68V21.04Z"/><path fill="url(#a)" d="M307.52 1.73c-9.7 14.03-37.27 54.64-46.13 68.51 -1.17 1.67-.67 4.01.83 5.34 2.17 1.67 5.18 4.01 7.35 5.84 1.67 1.16 3.84 1.16 5.51-.17 15.87-13.71 19.04-16.21 28.74-25.07 3.84-3.51 9.69-3.51 13.53 0 12.69 11.36 18.38 15.7 28.9 25.23 1.5 1.33 3.84 1.5 5.34.16 2.33-1.84 5.51-4.18 7.68-5.85 1.67-1.34 2-3.51.83-5.35 -9.03-14.04-36.43-54.48-46.13-68.52 -1.34-2.51-4.85-2.51-6.52-.17v0 0Z"/></svg>