<svg viewBox="0 0 256 320" xmlns="http://www.w3.org/2000/svg"><path fill="#FF6720" d="M202.4 0L256 35.2v176c-.8 60-52 106.4-93.6 106.4 40.8-24.8 51.2-60.8 51.2-96v0V56l-11.2-7.2L192 56v168l-.02 1.58c-.86 52.07-43.72 94.41-95.99 94.41 -52.8 0-96-43.2-96-96v0 -10.4c0-10.4 10.4-21.6 10.4-32 0-5.03-2.34-10.44-4.84-15.7l-.51-1.05c-.93-1.92-1.85-3.82-2.67-5.66 -1.6-2.4-2.4-6.4-2.4-9.6 0-12 9.6-21.6 20.8-21.6 12 0 21.6 9.6 21.6 21.6 0 3.2-.8 6.4-2.4 9.6 -.82 1.84-1.75 3.73-2.67 5.65l-.51 1.04c-2.5 5.25-4.84 10.67-4.84 15.69 0 5.2 2.6 10.6 5.2 16l.62 1.29c2.37 4.96 4.57 9.92 4.57 14.7v0 10.4l0 .71c.31 23.67 16.21 43.35 37.59 50.48 -10.4-14.4-16-32-16-51.2v0 -10.4c0-5.2 2.6-10.6 5.2-16l.62-1.3c2.37-4.97 4.57-9.93 4.57-14.71 0-5.03-2.34-10.44-4.84-15.7l-.51-1.05c-.93-1.92-1.85-3.82-2.67-5.66 -1.6-2.4-2.4-6.4-2.4-9.6 0-12 8.8-21.6 20.8-21.6s21.6 9.6 21.6 21.6c0 3.2-.8 6.4-2.4 9.6 -.82 1.84-1.75 3.73-2.67 5.65l-.51 1.04c-2.5 5.25-4.84 10.67-4.84 15.69 0 5.2 2.6 10.6 5.2 16l.62 1.29c2.37 4.96 4.57 9.92 4.57 14.7v0 10.4c0 16.8 7.2 32.8 20 43.2 13.6-9.6 22.4-25.6 22.4-43.2v0V35.09l53.6-35.2ZM21.6 70.4c11.92 0 21.6 9.67 21.6 21.6 0 11.92-9.68 21.6-21.6 21.6 -11.93 0-21.6-9.68-21.6-21.6 0-11.93 9.67-21.6 21.6-21.6Zm64-.8c11.92 0 21.6 9.67 21.6 21.6 0 11.92-9.68 21.6-21.6 21.6 -11.93 0-21.6-9.68-21.6-21.6 0-11.93 9.67-21.6 21.6-21.6Zm-64-56.8c11.92 0 21.6 9.67 21.6 21.6 0 11.92-9.68 21.6-21.6 21.6 -11.93 0-21.6-9.68-21.6-21.6 0-11.93 9.67-21.6 21.6-21.6Zm64-.8c11.92 0 21.6 9.67 21.6 21.6 0 11.92-9.68 21.6-21.6 21.6 -11.93 0-21.6-9.68-21.6-21.6C64 21.67 73.67 12 85.6 12Z"/></svg>