<svg viewBox="0 0 512 161" xmlns="http://www.w3.org/2000/svg"><path fill="#AEC84D" d="M.12 54.61l0 67.65s-.49 38.52 35.47 37.66c5.6-.25 26.33.73 31.45-15.36 0-.37 0 12.43 0 12.43H91.9l.04-102.4H67.07l-.05 63.26s.73 22.67-20.48 21.57c-21.22-1.1-20.85-19.75-20.85-19.75l-.13-65.1H.08Z"/><g fill="#141215"><path d="M132.38 159.69l10.24 0 33.4-82.66 33.4 82.4 10.24 0L261.1 6.8 235.98.46l-25.12 94.35 -29.75-74.37 -10.49 0 -28.77 73.62L116 .43 91.13 6.76Z"/><path d="M260.38 125.07s6.33 19.01 16.82 25.84c10.48 6.82 28.28 9.5 36.81 9.26 8.53-.25 51.93-.98 52.41-41.21 3.65-20.48-14.15-35.36-19.02-38.28 -4.88-2.93-20.73-13.17-33.41-16.83 -12.68-3.66-25.12-11.71-26.09-18.05 -.98-6.34 0-24.87 27.3-25.12 19.01 1.95 19.74 9.99 22.67 14.38l5.12 10.48 20.96-9.76s-8.3-19.75-10.24-21.46c-1.95-1.71-9.76-13.9-40.48-13.66 -30.72.24-48.77 12.92-49.99 34.86 -1.22 21.94 3.41 32.18 25.84 45.83 13.89 7.55 28.52 9.26 43.64 20.72 10.48 8.53 8.29 18.28 8.04 22.43 -.25 4.14-5.37 15.84-26.58 14.87 -21.22-.98-25.36-9.51-26.82-11.95 -1.47-2.44-6.59-12.44-6.59-12.44l-20.48 9.99Z"/><path d="M486.15 3.17h25.84v154.57h-25.85Z"/><path d="M431.78 75.33v20.23h19.99v40.96s-6.1 3.65-19.51 3.17c-13.41-.49-34.62 1.21-36.33-59.74 -1.71-60.96 27.3-59.01 30.72-59.01 3.41 0 20.48.24 29.25 24.38 .24.24 20.96-9.76 20.96-9.76s-9.03-36.82-49.01-34.87c-39.99 1.94-55.35 22.67-57.54 74.6 -2.2 51.93 16.09 85.82 59.73 84.11 43.64-1.71 46.81-5.37 46.81-5.37l-.07-78.69 -45.05-.07Z"/></g><path fill="#AEC84D" d="M347.67 19.99a8.53 8.53 0 1 0 0 17.06 8.53 8.53 0 1 0 0-17.07Z"/><path fill="#252326" d="M347.67 25.96a2.56 2.56 0 1 0 0 5.12 2.56 2.56 0 1 0 0-5.12Z"/><g><path d="M25.7 112.02l-.11-57.42H.11v66.47c7.29-4.05 15.98-7.17 25.58-9.06Z"/><path d="M91.96 54.61H67.09l-.05 57.06c9.22 1.64 17.65 4.42 24.88 8.05l.02-65.13Z"/></g><path opacity=".1" fill="#FFF" d="M.12 122.27s-.49 38.52 35.47 37.66c5.6-.25 26.33.73 31.45-15.36 0-.37 0 12.43 0 12.43H91.9l.01-37.28c-7.23-3.64-15.67-6.42-24.89-8.06l-.01 6.2s.73 22.67-20.48 21.57c-21.22-1.1-20.85-19.75-20.85-19.75l-.02-7.69c-9.6 1.89-18.3 5.01-25.59 9.05v1.18Z"/><path d="M217.15 71.32l-6.26 23.51 -10.17-25.41c-16.75-2.14-32.24-4.78-46.14-7.84l-12.71 32.5 -10.63-38.49c-12-3.59-22.16-7.55-30.12-11.8l31.23 115.87h10.24L175.99 77l33.4 82.4h10.24l23.33-85.92c-8.86-.62-17.49-1.36-25.86-2.22Z"/><g fill="#FFF"><path opacity=".1" d="M261.12 6.82L236 .48l-18.86 70.83c8.36.86 16.99 1.6 25.84 2.21L261.09 6.8Z"/><path opacity=".1" d="M116.05.48L91.18 6.81l9.97 36.99c7.96 4.25 18.12 8.21 30.11 11.79L116.04.45Z"/><path opacity=".1" d="M181.15 20.48h-10.49L154.59 61.6c13.89 3.06 29.39 5.69 46.13 7.83l-19.59-48.96Z"/><path opacity=".1" d="M313.29.73c-30.72.24-48.77 12.92-49.99 34.86 -1.04 18.54 2.11 28.72 16.65 39.67 7.78.2 15.69.3 23.69.3 11.62 0 23.05-.22 34.19-.64 -6.93-4.02-15.99-8.81-23.84-11.07 -12.68-3.66-25.12-11.71-26.09-18.05 -.98-6.34 0-24.87 27.3-25.12 19.01 1.95 19.74 9.99 22.67 14.38l5.12 10.48 20.96-9.76s-8.3-19.75-10.24-21.46c-1.95-1.71-9.76-13.9-40.48-13.66Z"/><path opacity=".1" d="M427.88.73c-39.41 1.92-54.9 22.07-57.44 72.36 8.73-.67 17.24-1.47 25.48-2.39 1.34-51.48 27.5-49.75 30.73-49.75 3.41 0 20.48.24 29.25 24.38 .24.24 20.96-9.76 20.96-9.76s-9.03-36.82-49.01-34.87Z"/><path opacity=".1" d="M486.15 52.36c10.54-3.69 19.26-7.7 25.84-11.97V3.16h-25.85v49.19Z"/></g></svg>