<svg viewBox="0 0 256 304" xmlns="http://www.w3.org/2000/svg"><defs><linearGradient id="a" x1="-26.26%" x2="99.866%" y1="20.881%" y2="90.009%"><stop offset="0%" stop-color="#231F20" stop-opacity=".16"/><stop offset="100%" stop-color="#231F20" stop-opacity="0"/></linearGradient><radialGradient id="b" fr="0%" fx="10.534%" fy=".168%" cx="10.534%" cy=".168%" r="142.584%" gradientTransform="translate(.105347.001688)"><stop offset="0%" stop-color="#FFF" stop-opacity=".1"/><stop offset="100%" stop-color="#FFF" stop-opacity="0"/></radialGradient></defs><path fill="#4285F4" d="M128 31.35a127.27 125.48 0 1 0 0 250.97 127.27 125.48 0 1 0 0-250.98Z"/><path opacity=".2" fill="#263238" d="M128 280.3C58.08 280.3 1.29 224.64.72 155.78v.97c0 69.26 56.95 125.48 127.27 125.48 70.31 0 127.27-56.23 127.27-125.49v-.98c-.57 68.86-57.36 124.51-127.28 124.51Z"/><path opacity=".2" fill="#FFF" d="M128 33.37c69.91 0 126.7 55.65 127.27 124.51v-.98c0-69.27-56.96-125.49-127.28-125.49C57.67 31.41.71 87.55.71 156.81v.97C1.27 89 58.06 33.34 127.98 33.34Z"/><path fill="#424242" d="M97.78 61.08l0 37.5 30.21 40.58 30.21-41.65 0-36.46 35.72 0L228.83.61 27.18.61l34.83 60.43Z"/><path fill="#9E9E9E" d="M90.08 61.08H62.04L72 78.33h18.06V61.07Zm75.82 17.25h18.06l9.96-17.26h-28.04v17.25Z"/><path fill="#424242" d="M158.21 242.63l0-24.71 -30.22-41.48 -30.22 41.47 0 24.7 -35.65 0 -35 60.43 201.72 0L194 242.6Z"/><path opacity=".2" fill="#263238" d="M158.21 94.46l-30.22 41.72 -30.22-40.75 0 3.15 30.21 40.58 30.21-41.65Z"/><path opacity=".2" fill="#FFF" d="M27.22.64l201.55 0 -1.22 2.1 -199.13 0Z"/><path opacity=".2" fill="#263238" d="M97.78 221l30.29-41.56 30.13 41.55v-3.08l-30.14-41.48 -30.3 41.39v3.15Zm130.99 81.98H27.21l1.21-2.19h199.12l1.21 2.18Z"/><path fill="url(#a)" d="M228.77 302.98l-1.22-2.19L203 258.17c26-18.72 44.47-46.91 50.3-79.4L135.66 59.6l-15.8 185.92 55.81 57.43 53.14.08 -.09-.09Z"/><path fill="#E8E8E8" d="M135.69 59.62L78.98 173.11l41.15 0 -.25 72.42 57.43-114.15 -41.89 0Z"/><path fill="#FFF" d="M135.69 59.62L80.03 171.09l40.1 0 -.25 72.42 56.38-112.13 -40.84 0Z"/><path fill="#9E9E9E" d="M97.78 61.08H62.05l9.96 17.25h25.76V61.07Zm60.43 17.25h25.76l9.96-17.26H158.2v17.25Z"/><path opacity=".3" fill="#263238" d="M158.21 76.31v2.02h25.76l1.21-2.11 -26.98.08Zm-60.44 0l-26.98-.09 1.21 2.1h25.76v-2.03Z"/><path fill="url(#b)" d="M255.27 157.81v-.98c0-43.43-22.45-81.75-56.47-104.27L228.85.63H27.2l29.97 51.92C23.14 75.07.7 113.39.7 156.81v.97c.32 41.23 20.9 77.77 52.33 100.45L28.4 300.76l-1.22 2.18 -.09.08h201.64l-.09-.09 -1.22-2.19 -24.55-42.62c31.51-22.61 52.01-59.06 52.33-100.38Z"/></svg>