<svg viewBox="0 0 512 124" xmlns="http://www.w3.org/2000/svg"><path d="M290.78 25.67c0 5.31-4.15 7.99-8 7.99h-.89c-3.85 0-8-2.69-8-8v-1.2c0-5.32 4.14-8 7.99-8h.88c3.84 0 7.99 2.68 7.99 7.99v1.19 0ZM126.65 78.99c4.5.57 6.78 4.37 6.78 7.91 0 3.84-2.69 7.99-8 7.99h-6.79c-2.81 0-5.34-1.57-6.77-3.83 -4.48 2.65-9.72 4.17-15.38 4.17 -15.95 0-29.45-13.32-29.45-29.45 0-16.55 12.89-30.47 29.78-30.47 16.1 0 29.54 12.87 29.78 29l0 14.65v0Zm-16.42-14c0-7.26-6.05-13.18-13.38-13.18 -7.51 0-13.38 6.18-13.38 13.76 0 7.19 6.06 13.18 13.17 13.18 7.64-.01 13.57-6.13 13.57-13.77v0Zm119.86-13.36c-7.26 0-13.18 6.04-13.18 13.37 0 7.5 6.18 13.37 13.76 13.37 7.19 0 13.18-6.07 13.18-13.18 0-7.65-6.13-13.58-13.77-13.58v0Zm30.25 27.21c4.51.57 6.78 4.37 6.78 7.91 0 3.84-2.69 7.99-8 7.99h-6.79c-2.86 0-5.43-1.62-6.85-3.95 -4.32 2.51-9.31 3.97-14.62 3.97 -16.55 0-30.47-12.9-30.47-29.79 0-16.26 13.11-29.79 29.44-29.79 5.22 0 10.16 1.27 14.48 3.55V23.19c0-5.32 4.14-7.2 7.99-7.2 3.84 0 7.99 1.88 7.99 7.19v41.16 1.68 12.76h0ZM25.35 90.62L8.99 51.74H7.96c-5.32 0-8.01-4.15-8.01-8.01 0-3.86 2.68-8.01 8-8.01h6.33c3.39 0 6.28 2.2 7.38 4.92l12.52 32.83 12.55-32.89c1.13-2.55 3.9-4.88 7.36-4.88h6.33c5.31 0 8 4.14 8 8 0 3.85-2.69 8-8.01 8h-1.03L43.02 90.57c-1.13 2.62-3.16 4.89-8.86 4.89 -5.74 0-7.77-2.26-8.9-4.9v0Zm167.4-11.66c4.5.57 6.78 4.37 6.78 7.91 0 3.84-2.69 7.99-8 7.99h-6.79c-2.81 0-5.34-1.57-6.77-3.83 -4.48 2.65-9.72 4.17-15.38 4.17 -15.95 0-29.45-13.32-29.45-29.45 0-16.55 12.89-30.47 29.78-30.47 16.1 0 29.54 12.87 29.78 29l0 14.65v0Zm-16.42-14c0-7.26-6.05-13.18-13.38-13.18 -7.51 0-13.38 6.18-13.38 13.76 0 7.19 6.06 13.18 13.17 13.18 7.64-.01 13.57-6.13 13.57-13.77v0Zm146.64-2.83l-.04 26.03c0 5.31-3.87 6.69-8.93 6.69 -3.85 0-8-1.39-8-6.7 -.04-.52-.06-35.11-.06-35.11 -4.52-.58-6.79-4.38-6.79-7.92 0-3.85 2.68-8 7.99-8h6.78c2.77 0 5.28 1.52 6.72 3.76 4.61-3.77 11.08-5.76 17.19-5.76 17.07 0 27.56 12.54 27.61 28.12l.01 15.63c4.51.57 6.78 4.37 6.78 7.92 0 3.84-2.69 7.99-8 7.99h-.89 -5.91 -.89c-4.31 0-8-3.7-8-8v-2.15l0-22.34c0-7.08-4.63-12.53-12.98-12.53 -6.67 0-12.71 5.54-12.71 12.29v0Zm-33.84 32.72h-5.91 -.89c-4.31 0-8-3.7-8-8V45.03c0-5.32 4.14-8 7.99-8h.88c3.84 0 7.99 2.68 7.99 7.99v33.89c4.51.57 6.78 4.37 6.78 7.92 0 3.84-2.68 7.99-8 7.99h-.89v0Z"/><path fill="#00B4F0" d="M507.45 69.8l-43.26 14.6v.91c0 4.74-3.71 7.14-7.15 7.14 -3.44 0-7.15-2.4-7.15-7.15v-5.66c0-3.03 1.96-5.61 4.39-6.6l37.85-11.19 -37.91-11.21c-2.27-1.02-4.36-3.49-4.36-6.58V38.4c0-4.75 3.7-7.15 7.14-7.15 3.43 0 7.14 2.39 7.14 7.14v.91l43.25 14.6c2.34 1 4.36 2.81 4.36 7.9 0 5.11-2.02 6.93-4.37 7.94v0Zm-97.08 33.6V75.97c0-12.49 9.59-13.45 14.39-13.86 -4.81-.69-14.4-1.65-14.4-14.13V20.54c0-5.76-2.61-8.23-6.45-8.23h-3.44c-3.57 0-6.18-1.92-6.18-6.18 0-3.98 2.6-6.18 6.17-6.18h10.15c11.92 0 17.83 5.62 17.83 18.24v27.97c0 8.36 3.56 9.18 6.99 9.18 4.52 0 6.58 3.28 6.58 6.58 0 3.29-2.06 6.58-6.59 6.58 -3.44 0-7 .82-7 9.18v27.97c0 12.61-5.91 18.24-17.84 18.24h-10.16c-3.57 0-6.18-2.2-6.18-6.18 0-4.26 2.6-6.18 6.17-6.18h3.43c3.84 0 6.44-2.47 6.44-8.23v0Z"/></svg>