<svg viewBox="0 0 256 254" xmlns="http://www.w3.org/2000/svg"><defs><linearGradient id="a" x1="50%" x2="50%" y1="-1.02%" y2="100%"><stop offset="0%" stop-color="#8FC53B"/><stop offset="100%" stop-color="#48A23C"/></linearGradient></defs><path fill="url(#a)" d="M189.57 13.209c25.131 18.66 41.42 48.55 41.42 82.26 0 56.55-45.85 102.4-102.4 102.4 -56.56 0-102.4-45.85-102.4-102.4 0-35.14 17.7-66.125 44.66-84.57C28.84 31.88-.01 75.28-.01 125.43c0 70.69 57.308 128.001 128 128.001 70.69 0 128-57.31 128-128.001 0-48.37-26.84-90.47-66.43-112.23ZM81.74 179.81c-18.82-13.97-31.006-36.35-31.006-61.58 0-42.333 34.318-76.65 76.651-76.65 42.33 0 76.65 34.31 76.65 76.65 0 26.29-13.26 49.49-33.44 63.3 31.43-15.72 53.041-48.2 53.041-85.74 0-52.915-42.9-95.812-95.82-95.812C74.9-.02 32 42.88 32 95.79c0 36.2 20.08 67.71 49.72 84Zm78.2-80.78c0 17.64-14.31 31.95-31.95 31.95 -17.646 0-31.95-14.31-31.95-31.95 0-17.65 14.3-31.96 31.95-31.96 17.64 0 31.95 14.3 31.95 31.95Z"/></svg>