<svg viewBox="0 0 256 266" xmlns="http://www.w3.org/2000/svg"><path fill="#1159CC" d="M221.1 0l34.89 20.4 -58.19 33.83 -.01.04 58.18-33.89v24.25l-78.14 191.59 -49.89 28.79 0 0 -.01-.01 -.01 0 -.01-.01 -49.41-28.58L-.07 45.34V20.33L34.83-.08l58.23 34.14 -.2.11 .15.06v23.06l34.88 81.59 -.01 27.26 0-.01v-27.26l34.93-81.6V33.98h.04L220.99-.13ZM71.57 46.548l-13.39 7.7 -.01.04 13.38-7.75Z"/><path fill="#127EFF" d="M221.1 0l-58.15 34.1 -.05 0 0 23.28 -34.94 81.59 0 27.25 -23.25 13.51L58.16 74.76l0-20.55L93.09 34.1 34.85-.05 -.06 20.35l0 25L78.5 236.41l49.41 28.58 0-71.79 23.29-13.52 -.31-.18 46.85-104.79 0-20.55 58.18-33.84Z"/></svg>