<svg viewBox="0 0 512 139" xmlns="http://www.w3.org/2000/svg"><path d="M229.81 32.46h14.47l-22 73.73h-20.55l-22-73.74h14.47l17.78 61.43 17.8-61.44h0Zm54.71 73.73h-11.05l-.99-3.67c-4.8 3.12-10.39 4.77-16.11 4.76 -9.85 0-14.04-6.76-14.04-16.13 0-10.97 4.76-15.17 15.69-15.17h12.93V70.4c0-5.97-1.66-8.09-10.29-8.09 -5.03.05-10.03.6-14.94 1.65l-1.66-10.3c5.99-1.67 12.18-2.53 18.4-2.56 16.91 0 21.88 5.96 21.88 19.49l.13 35.55v0Zm-13.49-20.37h-9.94c-4.42 0-5.64 1.22-5.64 5.32 0 4.1 1.21 5.41 5.4 5.41 3.56-.06 7.06-1.01 10.16-2.77V85.8h0v0Zm39.22 5.85c-1.71.82-2.9 2.43-3.2 4.3 0 1.42.87 2.09 2.99 2.3 5.95.66 9.2.99 15.57 1.65 8.74.99 11.5 5.32 11.5 13.06 0 11.52-4.22 16.12-24.32 16.12 -7 0-13.97-.93-20.71-2.77l1.65-10.07c5.92 1.5 12.01 2.28 18.13 2.3 10.72 0 12.81-.79 12.81-4.31 0-3.53-1-3.88-5.09-4.31 -6.19-.67-8.75-1-15.58-1.78 -7.62-.88-10.61-3.44-10.61-10.3 .23-3.82 2.34-7.27 5.63-9.22 -4.98-3-7.3-7.98-7.3-14.5v-5.12c.23-11.18 6.07-17.93 21.67-17.93 3.1-.03 6.19.34 9.2 1.1h16.58v6.75c-1.89.55-4.1 1.1-5.96 1.65 1.28 2.61 1.92 5.49 1.88 8.41v5.09c0 10.96-6.63 17.6-21.68 17.6 -1.09.02-2.17-.02-3.25-.12v0Zm3.08-29.68c-6.63 0-8.95 2.44-8.95 7.53v4.17c0 5.32 2.64 7.3 8.94 7.3 6.3 0 9.06-2.1 9.06-7.31V69.5c.02-5.05-2.31-7.52-9.05-7.52l-.03-.03Zm59.59 1.56c-4.95 2.24-9.71 4.86-14.25 7.83v34.79h-13.58V52.25h11.5l.87 5.96c4.38-2.97 9.14-5.35 14.15-7.08l1.28 12.39v0Zm45.09 42.62h-11.05l-1-3.67c-4.79 3.12-10.39 4.77-16.11 4.76 -9.85 0-14.04-6.76-14.04-16.13 0-10.97 4.76-15.17 15.69-15.17h12.92v-5.58c0-5.97-1.66-8.09-10.29-8.09 -5.03.05-10.03.6-14.94 1.65l-1.66-10.3c5.99-1.67 12.18-2.53 18.4-2.56 16.91 0 21.88 5.96 21.88 19.49l.13 35.55v0ZM404.52 85.8h-9.94c-4.42 0-5.64 1.22-5.64 5.32 0 4.1 1.21 5.41 5.4 5.41 3.56-.06 7.06-1.01 10.17-2.77v-7.98 0Zm53.61 20.36V68.5c0-2.89-1.22-4.31-4.31-4.31 -4.94.58-9.72 2.14-14.04 4.6v37.35h-13.49V52.22h10.28l1.33 4.6c6.71-3.37 14.05-5.29 21.55-5.65 8.94 0 12.14 6.31 12.14 15.94v39.17l-13.51-.17v0Zm53.17-1.02c-3.81 1.33-7.8 2.04-11.83 2.09 -9.85 0-14.82-4.61-14.82-14.29V62.98h-8.08V52.21h8.07V38.82l13.48-1.89V52.2h13.8l-.88 10.73H498.1v28.22c-.18 1.32.28 2.65 1.24 3.59 .95.93 2.29 1.37 3.61 1.17 2.28-.07 4.55-.45 6.73-1.11l1.56 10.27Z"/><path fill="#1159CC" d="M115.32 0l18.2 10.64 -30.35 17.65 -.01.02 30.35-17.68v12.65l-40.76 99.93 -26.03 15.02 0 0 -.01-.01 -.01 0 -.01-.01 -25.77-14.91L-.06 23.64V10.59L18.14-.06l30.37 17.81 -.11.05 .08.03v12.02L66.67 72.4l-.01 14.21 0-.01V72.38l18.22-42.56V17.67h.02L115.22-.12Z"/><path fill="#127EFF" d="M115.32 0L84.99 17.78l-.03 0 0 12.14 -18.23 42.55 0 14.21 -12.13 7.05 -24.28-54.75 0-10.72 18.22-10.49L18.16-.05 -.05 10.59l0 13.04 40.97 99.65 25.77 14.9 0-37.45 12.14-7.06 -.17-.1 24.43-54.66 0-10.72 30.34-17.66Z"/></svg>