<svg viewBox="0 0 256 301" xmlns="http://www.w3.org/2000/svg" xmlns:xlink="http://www.w3.org/1999/xlink"><defs><linearGradient id="a" x1="13.523%" x2="86.413%" y1="74.678%" y2="25.305%"><stop offset="0%" stop-color="#10E7FF"/><stop offset="10.3%" stop-color="#33D5FF"/><stop offset="25.5%" stop-color="#60BDFF"/><stop offset="40.8%" stop-color="#86AAFF"/><stop offset="56%" stop-color="#A39AFF"/><stop offset="71%" stop-color="#B790FF"/><stop offset="85.8%" stop-color="#C489FF"/><stop offset="100%" stop-color="#C887FF"/></linearGradient><linearGradient id="b" x1="21.005%" x2="96.465%" y1="54.032%" y2="27.046%" xlink:href="#a"/></defs><path fill="url(#a)" d="M128 300.34L0 225.25V75.07L128-.02l128 75.08v150.17l-128 75.08ZM17.88 214.67l109.85 64.5 109.85-64.51V85.65L127.97 21.14 17.85 85.64v129Z"/><path fill="url(#b)" d="M183.18 109.35l-44.86 78.86 14.61 25.7 59.46-104.57h-29.23v0Zm-50.15 0l-44.86 78.86 14.61 25.7 59.46-104.57h-29.23v0Zm-89.45 0l59.46 104.56 14.61-25.71 -44.86-78.87H43.56v0Zm0 0l59.46 104.56 14.61-25.71 -44.86-78.87H43.56v0Zm89.44 0l-44.86 78.86 14.61 25.7 59.46-104.57H133v0Z"/></svg>