<svg viewBox="0 0 512 96" xmlns="http://www.w3.org/2000/svg"><path fill="#405236" d="M183.51 73.16l33.52-61.35h-4.91l-24 44.81c-2.05 3.8-3.78 7.25-5.21 10.36v0h-.17c-.26-4.14-.75-9.25-1.47-15.32v0l-4.91-39.86h-4.2l7.63 61.34h3.69Zm45.18.83c4.44 0 8.62-.97 12.54-2.9v0 -3.95c-4.03 2.04-7.89 3.06-11.59 3.06 -3.89 0-6.87-1.21-8.94-3.63 -2.07-2.42-3.11-5.94-3.11-10.56 0-1.52.08-2.89.25-4.12v0h1.38c9 0 15.79-1.33 20.37-3.99 4.57-2.66 6.86-6.52 6.86-11.59 0-2.94-.96-5.26-2.86-6.97 -1.91-1.71-4.45-2.56-7.64-2.56 -4.2 0-8.04 1.37-11.52 4.11 -3.49 2.74-6.22 6.43-8.21 11.07 -1.99 4.64-2.98 9.49-2.98 14.55 0 5.48 1.35 9.75 4.06 12.81 2.71 3.06 6.48 4.59 11.32 4.59Zm-8.19-25.77h-2.06c1.39-5.4 3.67-9.72 6.81-12.95 3.14-3.24 6.55-4.85 10.21-4.85 2.04 0 3.67.6 4.88 1.82 1.21 1.21 1.82 2.76 1.82 4.63 0 7.55-7.24 11.32-21.7 11.32v0Zm34.57 24.92l4.19-20.19c.89-4.17 2.29-8.05 4.19-11.63 1.9-3.59 4.04-6.27 6.41-8.06 2.37-1.8 4.88-2.69 7.51-2.69 1.84 0 3.42.2 4.74.62v0l.88-3.91c-1.52-.4-3.24-.59-5.17-.59 -1.88 0-3.61.32-5.19.96 -1.59.64-3.07 1.54-4.47 2.7 -1.4 1.16-3.12 3.05-5.17 5.68v0h-.26l1.21-8.56h-3.36l-9.7 45.6h4.11Zm40.48.83c7.02 0 12.95-4.12 17.79-12.34v0h.25l-1.89 11.49h3.44l13.84-65.29h-4.16c-3.67 16.92-5.67 26.3-6 28.15v0h-.17c-1.38-6.13-5.28-9.19-11.71-9.19 -4.42 0-8.4 1.41-11.92 4.25 -3.53 2.83-6.29 6.73-8.29 11.68 -2 4.95-3 10.12-3 15.52 0 10.46 3.93 15.69 11.79 15.69Zm.96-3.78c-5.63 0-8.44-4.13-8.44-12.38 0-4.7.89-9.28 2.68-13.75 1.79-4.47 4.08-7.86 6.88-10.18 2.79-2.33 5.93-3.49 9.39-3.49 2.99 0 5.34 1.05 7.06 3.16 1.72 2.11 2.58 4.93 2.58 8.45 0 2.34-.51 5.27-1.52 8.79 -1.01 3.51-2.5 6.74-4.47 9.69 -1.98 2.95-4.21 5.3-6.72 7.04 -2.51 1.74-5 2.62-7.49 2.62Zm46.57 3.77c3.74 0 7.06-1.07 9.94-3.19 2.88-2.13 5.49-5.18 7.84-9.15v0h.25l-1.89 11.49h3.44l9.6-45.61h-3.36l-2.48 8.47h-.26c-1.32-6.13-5.22-9.19-11.71-9.19 -4.26 0-8.14 1.36-11.65 4.09 -3.52 2.72-6.32 6.59-8.42 11.6 -2.1 5-3.15 10.26-3.15 15.77 0 10.46 3.93 15.69 11.79 15.69Zm.96-3.78c-2.83 0-4.94-1-6.34-3 -1.4-2-2.1-5.13-2.1-9.38 0-4.54.89-9.09 2.68-13.66 1.79-4.58 4.08-8.01 6.88-10.31 2.79-2.3 5.93-3.45 9.39-3.45 2.12 0 3.9.51 5.32 1.53 1.42 1.02 2.5 2.4 3.23 4.15 .72 1.74 1.09 3.72 1.09 5.93 0 2.43-.52 5.41-1.56 8.93 -1.04 3.52-2.54 6.74-4.52 9.65 -1.98 2.9-4.2 5.23-6.68 6.96 -2.48 1.73-4.96 2.6-7.45 2.6Zm50.51 3.77c4.39 0 8.2-.8 11.45-2.4v0 -3.87c-1.99.92-3.83 1.56-5.52 1.93 -1.7.36-3.54.54-5.52.54 -3.78 0-6.7-1.2-8.75-3.59 -2.06-2.4-3.09-5.8-3.09-10.22 0-4.9.82-9.38 2.47-13.43 1.65-4.06 3.92-7.17 6.81-9.32 2.89-2.16 6.14-3.24 9.75-3.24 3.1 0 6.15.65 9.14 1.97v0l1.17-3.78c-3-1.21-6.37-1.81-10.12-1.81 -4.62 0-8.68 1.23-12.17 3.71 -3.5 2.47-6.28 6.06-8.33 10.78 -2.06 4.71-3.09 9.76-3.09 15.16 0 5.48 1.4 9.76 4.21 12.86 2.81 3.09 6.65 4.63 11.51 4.63Zm37.21 0c4.39 0 8.2-.8 11.45-2.4v0 -3.87c-1.99.92-3.83 1.56-5.52 1.93 -1.7.36-3.54.54-5.52.54 -3.78 0-6.7-1.2-8.75-3.59 -2.06-2.4-3.09-5.8-3.09-10.22 0-4.9.82-9.38 2.47-13.43 1.65-4.06 3.92-7.17 6.81-9.32 2.89-2.16 6.14-3.24 9.75-3.24 3.1 0 6.15.65 9.14 1.97v0l1.17-3.78c-3-1.21-6.37-1.81-10.12-1.81 -4.62 0-8.68 1.23-12.17 3.71 -3.5 2.47-6.28 6.06-8.33 10.78 -2.06 4.71-3.09 9.76-3.09 15.16 0 5.48 1.4 9.76 4.21 12.86 2.81 3.09 6.65 4.63 11.51 4.63Zm34.4-55.05c.97 0 1.77-.47 2.39-1.39 .61-.93.92-2.19.92-3.78 0-2.02-.8-3.03-2.4-3.03 -1.07 0-1.91.46-2.52 1.38 -.62.92-.93 2.15-.93 3.69 0 .97.21 1.74.65 2.28 .43.54 1.05.81 1.86.81Zm-9.91 54.2l9.6-45.61h-4.03l-9.7 45.6h4.11Zm32.47.83c4.53 0 8.53-1.26 11.99-3.78 3.46-2.52 6.2-6.18 8.2-10.98 1.99-4.8 2.99-9.96 2.99-15.47 0-5.35-1.38-9.54-4.14-12.57 -2.76-3.04-6.66-4.56-11.69-4.56 -4.4 0-8.33 1.25-11.8 3.77 -3.47 2.51-6.23 6.11-8.27 10.78 -2.05 4.67-3.07 9.67-3.07 15.02 0 5.7 1.33 10.09 4 13.15 2.67 3.06 6.58 4.59 11.72 4.59Zm.41-3.61c-7.89 0-11.84-4.79-11.84-14.35 0-4.59.82-8.94 2.47-13.03 1.65-4.1 3.86-7.25 6.62-9.45 2.76-2.2 5.88-3.3 9.35-3.3 3.83 0 6.76 1.16 8.81 3.48 2.04 2.32 3.06 5.63 3.06 9.94 0 5.03-.82 9.65-2.46 13.86 -1.64 4.2-3.84 7.39-6.59 9.56 -2.76 2.16-5.91 3.25-9.47 3.25Z"/><path opacity=".101" stroke="#0F5200" stroke-linecap="square" stroke-width="1.6" d="M132.95 41.95l0 13.37"/><path fill="#405236" d="M96.46 34.04l-30.81 61.6 -17.84 0L-.02-.02l30.8 0 25.94 51.88 8.91-17.84Z"/><path fill="#CD4000" d="M56.74 22.69l0-4.87 17.02-.01 2.42-4.87 -11.35 0 0-4.87 13.78-.01 1.62-3.25 -7.3 0 0-4.87 40.53 0 -11.35 22.69Z"/><path fill="#4A5E3F" d="M27.79 4.86l38.86 77.99 -4 7.93 -11.84 0L7.84 4.85Z"/></svg>