<svg viewBox="0 0 256 257" xmlns="http://www.w3.org/2000/svg"><path fill="#019833" d="M128.286 1.95L1.93 127.88l126.34 126.51 125.761-126.52L128.276 1.93"/><path fill="#66FE98" d="M128.26 13.51V2.87L2.77 127.902H13.52L128.253 13.51"/><g fill="#45FE02"><path d="M128.26 13.51V2.87l125.88 125.023H242.5L128.25 13.51"/><path d=""/></g><path fill="#017D17" d="M128.26 242.836v11.76L2.77 127.896H13.52l114.73 114.92"/><path fill="#005D04" d="M128.26 242.836v11.76l125.88-126.7H242.5l-114.25 114.92"/><g><path d="M65.22 230.591H40.89l-9.5-9.26V44.54h-7.54l-6.46-6.47V18.3l6.68-7.253h85.075l7.64 7.65v18.75l-6.36 7.74h-6.43v59.75l60.48-59.76h-3.38l-7.04-7.59V17.69l6.91-6.35h85.87l6.79 6.8v18.81L65.16 230.52"/><path d="M128.26 256.34L-.01 127.9 128.25-.01 255.98 127.89l-127.74 128.43v0ZM3.92 127.9l124.33 124.5L252.055 127.89 128.25 3.92 3.91 127.89v0Z"/></g><g fill="#FEFEFE"><path d="M108.07 22.74l3.77-2.45 -3.87-4.01H26.13l-4.16 4.16v15.75l4.61 4.616 2.19-4.616 -2.9-2.9V22.18l2.16-1.94 77.264.09 2.72 2.37"/><path d="M41.458 35.83v184.334l2.59 2.46 -2.08 3.92 -5.46-5.37V40.59l4.93-4.78"/></g><path fill="#808080" d="M28.23 35.833l-1.63 4.99h9.88l5.71-4.99H28.21"/><path fill="#FEFEFE" d="M166.531 35.897l-3.46-2.442v-9.9l3.61-3.63h75.44l2.89 3.86 4.11-3.25 -4.24-3.872h-81.12l-4.04 4.04v15.87l4.25 3.84m-65.62 76.31l-7.88 19.14 88.94-89.31 -.44-10.81 -80.64 80.969"/><g fill="#808080"><path d="M107.897 22.67l3.95-2.37v15.53l-4.52 4.52h-8.78l-.17 76.39 -7.85 19.1V35.82h14.65l2.72-2.22 -.04-10.95"/><path d="M244.76 22.72l4.38-2.18v14.183L62.39 226.54H41.95l1.99-3.77 15.69 0L244.75 31.36l-.03-8.66"/><path d="M179.03 35.78l-4.55 4.56 -10.48.09 2.55-4.59c.08 0 12.46-.07 12.46-.07"/></g><path fill="#CCC" d="M165.973 19.79l-2.89 2.89V33.3l2.53 2.53h13.37v10.26l-88.46 89.78V35.94h14.7l3.01-3.02V22.16L105.44 20H28.07l-2.54 2.535v10.98l2.57 2.57h13.45v184l2.53 2.53h15.29L244.74 31.06v-8.45l-2.89-2.9h-75.94"/><path fill="#808080" d="M59.51 222.918h-15.5l-2.68-2.68V36.37H28.016l-2.72-2.72V22.46l2.67-2.68h77.55l2.94 2.27v10.97l-3.16 3.16H90.73v99.08l87.97-89.29v-9.92h-13.23l-2.68-2.68V22.55l3.03-3.04h76.13l3.03 3.03v8.64l-.07.07L59.45 222.87v0Zm-15.3-.49h15.08l185.238-191.4v-8.25l-2.75-2.75h-75.73l-2.75 2.75V33.2l2.38 2.39h13.51v10.6l-.07.07 -88.879 90.2V35.69h14.84l2.87-2.878V22.28l-2.63-2.03H28.12l-2.39 2.39v10.78l2.43 2.43h13.599v184.14l2.38 2.39v0Z"/><path fill="#CCC" d="M134.56 143.819c-.15.02-.28.09-.38.19l-3.59 3.08c-.11.09-.19.22-.24.35l-3.59 10.05c-.11.3-.04.63.19.86l2.74 2.74c.15.15.37.23.59.23h11.07c.22 0 .43-.08.59-.24l2.89-2.92c.1-.1.17-.23.21-.36l3.08-10.59c.08-.3 0-.61-.22-.83l-2.39-2.39c-.16-.16-.38-.24-.59-.24h-10.23c-.06-.01-.12-.01-.17 0v0Zm-20.29 28.34c-.32.06-.56.3-.64.61l-1.38 5.44c-.12.44.16.89.6 1.01 .06.01.12.02.19.02h6.51l-16.16 46.19c-.15.43.08.9.52 1.05 .08.02.16.04.25.04h23.51c.36 0 .68-.23.8-.58l1.54-4.97c.13-.44-.12-.91-.56-1.05 -.08-.03-.17-.04-.25-.04h-5.32l15.988-46.68c.14-.44-.09-.91-.53-1.06 -.09-.03-.17-.05-.26-.05h-24.72c-.06-.01-.12-.01-.17 0v0Zm74.83.16c-.19.03-.35.13-.47.27l-4.9 5.53h-7.79l-5.19-5.39c-.16-.17-.37-.26-.59-.26h-18.59c-.35 0-.67.22-.79.54l-1.71 5.11c-.15.43.08.9.52 1.05 .08.02.16.04.25.04h4.97l-15.49 45.68c-.15.43.08.9.52 1.05 .08.02.16.04.25.04h19.78c.35-.01.66-.22.78-.55l1.51-4.46c.14-.44-.09-.91-.53-1.06 -.09-.03-.17-.05-.26-.05h-3.46l9.87-31.12h17.86l-11.27 36.13c-.14.44.11.9.55 1.04 .08.02.16.03.24.03h19.08c.33-.01.63-.21.76-.51l1.7-4.1c.17-.43-.04-.92-.47-1.09 -.1-.04-.2-.06-.3-.06h-3.46l10.04-31.64h17l-11.44 36.3c-.14.44.11.9.55 1.04 .08.02.16.03.25.03h20.96c.34 0 .65-.21.78-.53l1.7-4.46c.15-.44-.07-.91-.5-1.07 -.1-.04-.19-.06-.29-.06h-4.16l12.63-41.08c.08-.26.03-.55-.13-.77l-3.93-5.28c-.17-.21-.42-.33-.68-.32h-15c-.24-.01-.46.08-.62.25l-4.73 5.19h-8.27l-4.9-5.37c-.16-.17-.39-.26-.62-.26h-12.09c-.06-.01-.12-.01-.17 0v0Z"/><g><path d="M128.359 162.524c.52.5 1.2.78 1.9.78 .01 0 .03 0 .04-.01h11.03c.74.02 1.44-.27 2.01-.81l2.88-2.91c.33-.34.57-.76.7-1.2l3.07-10.58c.28-.98.01-2.04-.71-2.76l-2.41-2.42c-.54-.52-1.24-.8-1.95-.78h-10.16c-.15-.01-.3-.01-.44.01l-.21.03c-.47.09-.91.31-1.26.62l-3.59 3.08 -.05.03c-.35.31-.62.72-.77 1.16l-3.58 10.03c-.36 1-.11 2.13.64 2.9l2.76 2.77v0Zm16.15-16.76l1.57 1.57 -2.82 9.67 -2.35 2.36 -10.17 0 -1.9-1.9 3.25-9.13 3.01-2.6h9.38v0Z"/><path d="M241.63 176.93l-3.93-5.28 -.04-.05c-.54-.68-1.36-1.08-2.23-1.06h-14.95c-.78-.02-1.52.29-2.05.84l-4.19 4.6h-6.55l-4.32-4.73 -.04-.05c-.54-.56-1.28-.85-2.02-.85h-12.02c-.15-.01-.3-.01-.44.01l-.21.03c-.61.12-1.16.45-1.53.89l-4.31 4.87h-6.08l-4.62-4.79c-.52-.54-1.24-.85-2-.85h-18.59c-1.17 0-2.22.74-2.62 1.83l-1.73 5.15c-.49 1.45.29 3.04 1.75 3.53 .27.09.56.14.87.14h2.25l-14.61 43.11c-.49 1.45.3 3.03 1.75 3.52 .27.09.56.14.87.14h19.79c1.16-.01 2.21-.75 2.625-1.88l1.52-4.47c.48-1.46-.3-3.04-1.76-3.53 -.28-.1-.57-.15-.88-.15h-.79l8.63-27.21h13.77l-10.48 33.61c-.45 1.47.38 3.03 1.84 3.48 .27.08.56.11.82.12h19.1c1.11-.01 2.1-.68 2.54-1.71l1.72-4.13c.56-1.43-.14-3.06-1.56-3.62 -.32-.13-.65-.2-1.02-.2h-.79l8.79-27.73h12.9l-10.637 33.78c-.45 1.46.38 3.03 1.84 3.47 .26.08.54.12.8.12h.01 20.95c1.15-.01 2.19-.71 2.61-1.79l1.71-4.49c.52-1.45-.22-3.05-1.66-3.58 -.31-.12-.63-.17-.96-.17h-1.51l11.84-38.52c.28-.87.12-1.82-.42-2.54v0Zm-16.73 44.96h5.16l-.85 2.19h-18.68l11.77-37.39h-21.1l-11.28 35.54h4.43l-.77 1.83h-16.82l11.59-37.214h-21.96l-11.12 35.01h4.55l-.75 2.19h-17.41l15.85-46.79h-6.14l.95-2.85h17.28l5.43 5.63h9.49l5.13-5.81 11.11-.01 5.12 5.619h9.99l4.95-5.45h13.97l3.23 4.35 -13.25 43.08v0Z"/><path d="M130.096 218.105c-.27-.09-.54-.12-.83-.13h-2.58l15.1-44.1c.48-1.46-.3-3.05-1.76-3.54 -.28-.1-.57-.15-.88-.15h-24.65c-.15-.01-.3-.01-.44.01l-.22.03c-1.05.22-1.86 1.01-2.12 2.04l-1.38 5.45c-.38 1.49.53 3 2.03 3.38 .21.05.43.08.66.08h3.76l-15.26 43.61c-.49 1.45.3 3.04 1.75 3.53 .27.09.56.14.87.14h23.48 .04c1.2 0 2.26-.77 2.65-1.95l1.54-4.98c.44-1.47-.39-3.04-1.85-3.48v0Zm-24.3 6.48l16.54-47.29h-7.83l.8-3.19h22.26l-16.37 47.77h6.53l-.84 2.7h-21.12v0Z"/></g></svg>