<svg viewBox="0 0 256 256" xmlns="http://www.w3.org/2000/svg"><defs><linearGradient id="a" x1="50%" x2="50%" y1=".002%" y2="99.999%"><stop offset="0%" stop-color="#FFF"/><stop offset="100%" stop-color="#FFF" stop-opacity="0"/></linearGradient></defs><path fill="#52218A" d="M36.98 200.4c-3.06 2.61-7.33 3.28-11.04 1.73l-19.39-8.14c-3.96-1.65-6.54-5.51-6.56-9.79V70.44c.02-4.29 2.6-8.14 6.56-9.79l19.38-8c3.71-1.56 7.98-.89 11.04 1.73l4.34 3.6c-1.8-1.3-4.17-1.47-6.14-.46 -1.97 1.01-3.21 3.04-3.2 5.25v129.06c-.01 2.21 1.22 4.24 3.19 5.25 1.96 1.01 4.33.83 6.13-.46l-4.35 3.73Z"/><path fill="#6C33AF" d="M6.56 194C2.6 192.35.02 188.49 0 184.21v-.88c.02 2.51 1.58 4.76 3.93 5.67 2.34.91 5.01.29 6.73-1.55L175.99 4.65c4.79-4.78 12.08-6.02 18.18-3.1l52.74 25.38c5.54 2.66 9.06 8.27 9.06 14.42v.61c-.01-3.91-2.26-7.46-5.79-9.13 -3.53-1.68-7.71-1.16-10.73 1.31L41.29 196.62l-4.35 3.73c-3.06 2.61-7.33 3.28-11.04 1.73l-19.39-8.14Z"/><path fill="#854CC7" d="M6.56 60.67C2.6 62.31.02 66.17 0 70.45v.88c.02-2.52 1.58-4.77 3.93-5.68 2.34-.92 5.01-.3 6.73 1.54l165.33 182.8c4.79 4.77 12.08 6.01 18.18 3.09l52.74-25.39c5.54-2.67 9.06-8.28 9.06-14.43v-.62c-.01 3.9-2.26 7.45-5.79 9.12 -3.53 1.67-7.71 1.15-10.73-1.32L41.29 57.96l-4.35-3.74c-3.09-2.57-7.36-3.19-11.04-1.6l-19.39 8Z"/><path fill="#B179F1" d="M194.18 253.09c-6.11 2.91-13.39 1.68-18.19-3.1 2.68 2.66 6.71 3.45 10.21 2 3.49-1.46 5.78-4.87 5.78-8.65v-232c.01-3.8-2.27-7.23-5.77-8.7 -3.51-1.47-7.55-.68-10.24 1.99 4.79-4.78 12.08-6.02 18.18-3.1l52.74 25.36c5.54 2.66 9.06 8.27 9.06 14.42v171.94c0 6.15-3.53 11.76-9.07 14.42l-52.75 25.36Z"/><path fill="url(#a)" fill-opacity=".25" d="M183.7 254.27c3.52.8 7.21.39 10.48-1.18l52.74-25.36c5.54-2.67 9.06-8.28 9.06-14.43V41.35c0-6.16-3.53-11.77-9.07-14.43L194.16 1.56c-3.74-1.8-8.02-2.08-11.95-.78 -2.36.78-4.49 2.11-6.24 3.86L90.95 98.66l-49.66-40.7 -4.35-3.74c-2.66-2.27-6.25-3.1-9.63-2.22 -.49.1-.97.26-1.42.48L6.5 60.61C2.8 62.13.26 65.6-.06 69.59c0 .26 0 .53 0 .8v113.76c0 .26 0 .53 0 .8 .32 3.98 2.86 7.45 6.56 8.98l19.38 8c.45.21.92.37 1.41.48 3.37.88 6.97.05 9.62-2.22l4.34-3.6 49.65-40.7 85.01 94.02c2.11 2.11 4.78 3.59 7.7 4.26v0Zm8.29-181.12l-66.11 54.18 66.1 54.18V73.13Zm-160 17.57l33.09 36.61 -33.1 36.61V90.71Z"/></svg>