<svg viewBox="0 0 256 254" xmlns="http://www.w3.org/2000/svg" xmlns:xlink="http://www.w3.org/1999/xlink"><defs><mask id="a"><use fill="#FFF" xlink:href="#f"/></mask><mask id="b"><use fill="#FFF" xlink:href="#f"/></mask><mask id="c"><use fill="#FFF" xlink:href="#f"/></mask><linearGradient id="d" x1="50%" x2="50%" y1="-.001%" y2="99.999%"><stop offset="0%" stop-color="#FFF"/><stop offset="100%" stop-color="#FFF" stop-opacity="0"/></linearGradient><mask id="e"><use fill="#FFF" xlink:href="#f"/></mask><path id="f" d="M180.82 252.6c4.01 1.56 8.59 1.46 12.65-.49l52.5-25.27c5.51-2.66 9.02-8.24 9.02-14.37V41.17c0-6.13-3.51-11.71-9.03-14.37L193.45 1.53c-5.33-2.56-11.55-1.94-16.22 1.46 -.67.48-1.31 1.02-1.9 1.62L74.82 96.3 31.04 63.06c-4.08-3.1-9.78-2.85-13.57.6L3.42 76.43c-4.63 4.21-4.64 11.49-.02 15.71l37.96 34.63L3.39 161.4c-4.63 4.21-4.62 11.5.01 15.71l14.04 12.77c3.78 3.44 9.48 3.69 13.56.6l43.77-33.24 100.5 91.69c1.58 1.59 3.45 2.78 5.46 3.57Zm10.46-183.65l-76.27 57.88 76.26 57.88V68.93Z"/></defs><path mask="url(#a)" fill="#0065A9" d="M246.13 26.87l-52.55-25.3c-6.09-2.93-13.35-1.7-18.13 3.07L3.44 161.46c-4.63 4.21-4.63 11.5.01 15.71l14.04 12.77c3.78 3.44 9.49 3.69 13.56.6L238.18 33.4c6.94-5.28 16.92-.32 16.92 8.4v-.62c0-6.13-3.51-11.71-9.03-14.36Z"/><path mask="url(#b)" fill="#007ACC" d="M246.13 226.81l-52.55 25.29c-6.09 2.92-13.35 1.69-18.13-3.08L3.44 92.19c-4.63-4.22-4.63-11.51.01-15.72l14.04-12.78c3.78-3.45 9.49-3.7 13.56-.61l207.13 157.13c6.94 5.27 16.92.31 16.92-8.41v.61c0 6.12-3.51 11.7-9.03 14.35Z"/><path mask="url(#c)" fill="#1F9CF0" d="M193.42 252.13c-6.09 2.92-13.36 1.68-18.13-3.09 5.88 5.88 15.93 1.71 15.93-6.61V11.25c0-8.32-10.06-12.49-15.94-6.61 4.77-4.78 12.04-6.02 18.12-3.09l52.53 25.26c5.52 2.65 9.03 8.23 9.03 14.36v171.29c0 6.12-3.52 11.7-9.04 14.36l-52.54 25.26Z"/><path mask="url(#e)" fill="url(#d)" fill-opacity=".25" d="M180.82 252.6c4.01 1.56 8.59 1.46 12.64-.49l52.5-25.27c5.51-2.66 9.02-8.24 9.02-14.37V41.17c0-6.13-3.51-11.71-9.03-14.37L193.44 1.53c-5.32-2.56-11.55-1.94-16.22 1.46 -.67.48-1.31 1.02-1.9 1.62L74.81 96.3 31.03 63.06c-4.08-3.1-9.78-2.85-13.57.6L3.41 76.43c-4.63 4.21-4.64 11.49-.02 15.71l37.96 34.63L3.38 161.4c-4.63 4.21-4.62 11.5.01 15.71l14.04 12.77c3.78 3.44 9.48 3.69 13.56.6l43.77-33.24 100.5 91.69c1.58 1.59 3.45 2.78 5.46 3.57Zm10.46-183.65l-76.27 57.88 76.26 57.88V68.93Z"/></svg>