<svg viewBox="0 0 512 88" xmlns="http://www.w3.org/2000/svg"><defs><linearGradient id="a" x1="20.984%" x2="75.846%" y1="5.131%" y2="100.365%"><stop offset="0%" stop-opacity=".2"/><stop offset="79%" stop-opacity=".05"/></linearGradient></defs><path fill="#333" d="M512 18.15v58.09h-14.53v-58.1h14.52Zm-63.31 0c7.64 0 14.96 3.06 20.37 8.5 5.4 5.44 8.43 12.83 8.43 20.54 0 7.7-3.04 15.09-8.44 20.54 -5.41 5.44-12.74 8.5-20.38 8.5v0h-20.22v-58.1Zm-63.79 0v45.39h25.41v12.7h-39.95v-58.1h14.52Zm-61.69 0l29 58.09h-13.94l-4.25-8.9h-21.75l-4.25 8.89h-13.94l29.09-58.1Zm-72.74 0l12.76 28.71 12.76-28.72h14.47l-27.24 58.09 -27.23-58.1h14.46Zm-32.62 0v58.09h-14.53v-58.1h14.52Zm-72.68 0l12.76 28.71 12.76-28.72h14.46l-27.23 58.09 -27.24-58.1h14.47Zm303.49 11.94h-7.23v34.2h7.22c9.7 0 16.26-7.77 16.26-17.11s-6.6-17.11-16.27-17.11v0ZM323.19 44.84l-5.57 11.97h11.12l-5.57-11.98Z"/><path fill="#EF3939" d="M43.57 87.14c19.09 0 29.7 0 36.64-6.94 6.93-6.94 6.93-17.55 6.93-36.65 0-19.1 0-29.71-6.94-36.65C73.26-.04 62.65-.04 43.55-.04c-19.1 0-29.72 0-36.65 6.93C-.03 13.82-.04 24.43-.04 43.53c0 19.09 0 29.7 6.93 36.64 6.93 6.93 17.54 6.93 36.64 6.93Z"/><path fill="url(#a)" d="M71.9 27.44c-2.11-3.8-5.73-6.9-9.13-9.59 -3.41-2.69-6.76-4.31-10.94-5.47 -4.18-1.17-8.46-1.14-12.76-.6 -4.31.54-8.01 1.52-11.77 3.69 -3.76 2.16-6.68 4.81-9.31 8.26 -2.63 3.45-4.38 6.87-5.47 11.07 -1.1 4.19-1.49 8.84-.87 13.14 .61 4.29 1.36 8.37 3.59 12.09l.18.31 15.35 26.6c2.54.07 5.3.1 8.27.09h4.35c6.96.14 13.92-.06 20.86-.62 6.94-.77 11.93-2.47 15.75-6.32 5.62-5.62 6.68-13.66 6.88-26.65L71.83 27.36Z"/><path fill="#FFF" d="M66.65 20.45c-4.58-4.57-10.4-7.68-16.73-8.94 -6.34-1.26-12.91-.61-18.88 1.86 -5.97 2.47-11.07 6.66-14.66 12.03 -3.59 5.37-5.51 11.69-5.51 18.15 0 6.46 1.91 12.77 5.5 18.15 3.58 5.37 8.68 9.56 14.65 12.03 5.96 2.47 12.53 3.12 18.87 1.86 6.33-1.26 12.15-4.37 16.72-8.94 3.04-3.04 5.45-6.64 7.1-10.61 1.64-3.97 2.49-8.23 2.49-12.52 0-4.3-.85-8.55-2.5-12.52 -1.65-3.97-4.07-7.58-7.11-10.61v0Zm-1.96 15.04c-5.4 9.38-10.78 18.75-16.16 28.13 -.43.83-1.06 1.53-1.84 2.05 -.78.51-1.68.81-2.61.88 -1.03.11-2.07-.09-2.98-.57 -.92-.49-1.66-1.24-2.14-2.16 -3.41-5.87-6.79-11.78-10.17-17.67 -2.07-3.58-4.13-7.17-6.18-10.76 -.49-.81-.76-1.73-.78-2.67 -.03-.95.19-1.88.64-2.71 .44-.84 1.09-1.54 1.89-2.04 .79-.51 1.71-.79 2.65-.83 1.01-.07 2.02.17 2.9.66 .88.49 1.6 1.24 2.07 2.14 1.52 2.63 3.02 5.26 4.52 7.89 1.09 1.89 2.14 3.78 3.26 5.65 .71 1.29 1.74 2.37 2.99 3.15 1.25.77 2.68 1.21 4.15 1.26 2.23.13 4.43-.59 6.15-2.04 1.71-1.45 2.8-3.49 3.05-5.72 0-.36 0-.72.07-.9 0-1.41-.31-2.8-.93-4.07 -.38-.7-.6-1.47-.65-2.27 -.05-.8.08-1.59.37-2.32 .29-.74.74-1.41 1.31-1.95 .57-.55 1.26-.96 2.01-1.21 .75-.26 1.54-.34 2.33-.25 .78.09 1.54.35 2.21.76 .67.41 1.25.97 1.68 1.63 .43.66.72 1.4.84 2.19 .14 1.25-.13 2.53-.79 3.61v0Z"/></svg>