<svg viewBox="0 0 256 253" xmlns="http://www.w3.org/2000/svg" xmlns:xlink="http://www.w3.org/1999/xlink"><defs><mask id="a"><use fill="#FFF" xlink:href="#d"/></mask><mask id="b"><use fill="#FFF" xlink:href="#d"/></mask><mask id="c"><use fill="#FFF" xlink:href="#d"/></mask><path id="d" d="M5.61.03l68.17 6.56c4.32.41 9 4.08 10.43 8.18l43.85 125.29 43.63-125.29c1.39-4.02 5.89-7.62 10.14-8.16l.28-.04 68.17-6.57c4.32-.42 6.64 2.56 5.17 6.65v0l-86.7 241.08 -.42 1.14c-.48 1.3-1.61 2.45-2.93 3.11 -.49.37-1.14.58-1.92.58H96.69c-.09 0-.17-.01-.25-.01l.24 0c-.13 0-.25-.01-.37-.01 -.05-.01-.09-.01-.13-.01 -4.21-.24-8.63-3.46-10.05-7.4L.35 6.6c-1.47-4.09.84-7.08 5.17-6.66Z"/></defs><path mask="url(#a)" fill="#536B8A" d="M168.79 247.77L255.48 6.68c1.46-4.09-.85-7.08-5.18-6.66l-68.18 6.56c-4.33.41-9 4.08-10.43 8.18L91.44 245.15c-1.43 4.1.93 7.43 5.28 7.43h66.36c2.17 0 4.53-1.66 5.26-3.71l.41-1.15Z"/><path mask="url(#b)" d="M158.9 248.92l-36.1-104.28 5.15-3.23 36.74 106.34Z"/><path mask="url(#c)" fill="#5D87BF" d="M5.61.03l68.17 6.56c4.32.41 9 4.08 10.43 8.18l81.94 234.11c.71 2.05-.47 3.71-2.64 3.71H96.72c-4.35 0-9.07-3.32-10.54-7.41L.4 6.65c-1.47-4.09.84-7.08 5.17-6.66Z"/></svg>