<svg viewBox="0 0 512 147" xmlns="http://www.w3.org/2000/svg"><path fill="#A41E22" d="M47.27 62.59c-5.96 17.52 4.62 37.3 26.42 54.92C25.21 96.74-6.14 66.32 1 40.39 10.89 4.46 90.71-9.27 171.67 6.38c71.6 13.82 123.57 54.18 134.25 82.53 -23.63-21.36-59.8-42.97-104.09-54.09 -73.78-18.61-143.02-6.16-154.59 27.75Zm90.25 81.64h-24.91L80.12 43.83h22.63l22.34 70.62h.29l22.63-70.63h22.78l-33.32 100.39Zm100.24 0h-19v-10.14h-.45c-2.51 4.23-5.81 7.28-9.85 9.15s-8.17 2.8-12.36 2.8c-5.37 0-9.75-.69-13.15-2.12 -3.45-1.43-6.11-3.4-8.08-5.96 -1.97-2.56-3.35-5.71-4.14-9.4 -.79-3.7-1.19-7.83-1.19-12.31V71.51h19.98v41.04c0 6 .93 10.48 2.8 13.43 1.87 2.95 5.21 4.42 9.99 4.42 5.41 0 9.39-1.63 11.81-4.88 2.46-3.25 3.64-8.57 3.64-15.95v-38.1h19.98v72.68h-.05Zm13.23-85.29v0c6.88 3.39 13.53 7.08 19.98 11.02v74.21h-19.99V58.93Zm54.97 85.28h-19.99V80.38c6.39 3.54 14.81 10.08 19.98 16.38v47.44Zm24.65-46.02l30.51 46.01H336.9l-27.66-43.76 -.05-2.81 25.19-26.19H358l-27.42 26.72ZM306 76.54c-4.73-7.49-11.47-15.21-19.99-22.84v-9.95h19.98v32.77Zm58.76 17.32c.29-4.68 1.47-8.57 3.54-11.67 2.06-3.11 4.67-5.57 7.87-7.44 3.19-1.88 6.79-3.2 10.77-3.99 3.98-.79 7.97-1.19 12-1.19 3.64 0 7.38.24 11.12.78 3.74.54 7.18 1.52 10.28 3 3.1 1.52 5.61 3.59 7.57 6.25 1.96 2.65 2.95 6.2 2.95 10.63v37.84c0 3.29.19 6.44.54 9.39 .39 3 1.03 5.26 1.96 6.74h-20.28c-.4-1.14-.69-2.27-.94-3.45 -.25-1.19-.4-2.37-.5-3.6 -3.2 3.29-6.94 5.56-11.28 6.88 -4.34 1.32-8.72 1.96-13.24 1.96 -3.45 0-6.7-.45-9.7-1.28 -3.01-.84-5.62-2.17-7.88-3.94 -2.27-1.78-4.04-4.04-5.27-6.75 -1.28-2.71-1.92-5.96-1.92-9.7 0-4.14.73-7.53 2.16-10.19 1.47-2.66 3.34-4.83 5.61-6.4 2.31-1.58 4.92-2.81 7.87-3.6s5.9-1.43 8.9-1.92c3-.45 5.95-.84 8.85-1.14 2.9-.3 5.46-.69 7.72-1.28 2.26-.55 4.03-1.38 5.36-2.47 1.32-1.09 1.91-2.66 1.82-4.73 0-2.17-.35-3.89-1.09-5.12 -.69-1.28-1.63-2.27-2.81-2.96 -1.19-.69-2.51-1.19-4.09-1.43 -1.53-.25-3.2-.35-4.98-.35 -3.94 0-7.04.83-9.31 2.5 -2.27 1.67-3.55 4.47-3.94 8.41h-19.84v.04Zm46.16 14.76c-.84.73-1.92 1.32-3.15 1.77 -1.28.44-2.61.78-4.09 1.08 -1.43.29-2.96.49-4.58.68 -1.58.19-3.2.44-4.78.68 -1.48.29-2.96.63-4.43 1.13 -1.48.49-2.71 1.08-3.79 1.91 -1.09.78-1.97 1.82-2.61 3 -.64 1.23-.99 2.75-.99 4.62 0 1.77.34 3.29.98 4.47 .63 1.23 1.52 2.16 2.65 2.9 1.13.68 2.46 1.18 3.93 1.47 1.52.29 3.05.44 4.62.44 3.93 0 6.98-.64 9.15-1.97 2.16-1.33 3.74-2.91 4.77-4.73 1.03-1.83 1.67-3.7 1.91-5.57 .24-1.88.34-3.4.34-4.48v-7.49 0Zm32.87-37.16h18.99v10.13h.44c2.5-4.24 5.8-7.29 9.84-9.21 4.03-1.92 8.16-2.91 12.35-2.91 5.36 0 9.74.73 13.14 2.16 3.44 1.47 6.1 3.49 8.07 6.05 1.96 2.55 3.34 5.7 4.13 9.39 .78 3.69 1.18 7.82 1.18 12.3v44.73h-19.99v-41.05c0-6.01-.94-10.49-2.81-13.44 -1.88-2.96-5.22-4.43-10-4.43 -5.42 0-9.36 1.62-11.82 4.87 -2.47 3.24-3.65 8.56-3.65 15.94v38.09h-19.99V71.39h.04Z"/></svg>