<svg viewBox="0 0 512 123" xmlns="http://www.w3.org/2000/svg"><path fill="#142149" d="M511.48 88.85l-12.88-22.2c8.74-3.73 13.65-13.1 11.75-22.41 -1.91-9.32-10.1-16.01-19.6-16.01H462.5c-.94-.01-1.84.36-2.51 1.02 -.67.66-1.04 1.56-1.03 2.5v58.84c0 1.94 1.58 3.53 3.53 3.53h2.35c1.94 0 3.53-1.59 3.53-3.54V68.21h20.59l14 24.12c.63 1.09 1.79 1.76 3.05 1.76h2.39c1.26 0 2.42-.68 3.05-1.77 .63-1.1.63-2.44 0-3.54h-.05Zm-43.08-51.2h22.36c5.84 0 10.59 4.74 10.59 10.59 0 5.84-4.75 10.59-10.6 10.59h-22.37V37.64Zm-29.43-9.42c.93 0 1.83.37 2.49 1.03 .59.59.95 1.38 1.02 2.21l.01.27v2.35c0 1.86-1.46 3.39-3.29 3.52l-.25 0h-20.01v52.96c-.01 1.86-1.46 3.39-3.29 3.52l-.25 0h-2.36c-1.87 0-3.4-1.46-3.53-3.29l-.01-.25V37.58h-20.01c-.94 0-1.84-.37-2.51-1.03 -.6-.6-.96-1.39-1.02-2.23l-.02-.28v-2.36c-.01-.94.36-1.84 1.02-2.51 .59-.6 1.38-.96 2.22-1.02l.27-.01h49.43Zm-87.1-.01c.93-.01 1.83.36 2.5 1.02 .59.59.95 1.38 1.01 2.22l0 .27v52.96h31.77c.93-.01 1.83.36 2.5 1.02 .59.59.95 1.38 1.01 2.22l0 .27v2.35c0 1.86-1.46 3.39-3.29 3.52l-.25 0h-37.67c-1.87 0-3.4-1.46-3.53-3.29l-.01-.25V31.68c-.01-.94.36-1.84 1.02-2.51 .59-.6 1.38-.96 2.22-1.02l.27-.02h2.35Zm-24.72 3.53c0-.94-.37-1.84-1.03-2.51 -.67-.67-1.57-1.04-2.51-1.03h-2.36c-.94-.01-1.84.36-2.51 1.02 -.67.66-1.04 1.56-1.03 2.5v36.48c0 9.74-7.91 17.65-17.66 17.65s-17.66-7.91-17.66-17.66V31.71c0-1.95-1.59-3.54-3.54-3.54h-2.36c-.94-.01-1.84.36-2.51 1.02 -.67.66-1.04 1.56-1.03 2.5v36.48c0 14.94 12.11 27.06 27.06 27.06 14.94 0 27.06-12.12 27.06-27.07V31.67Zm-71.8-3.54h-2.23c-1.45-.01-2.76.87-3.29 2.22l-20.39 50.96 -20.39-50.97c-.53-1.35-1.84-2.24-3.29-2.23h-2.23c-1.18 0-2.27.58-2.93 1.54 -.66.96-.8 2.2-.36 3.29l23.53 58.84c.53 1.34 1.83 2.22 3.28 2.22h4.7c1.44 0 2.74-.88 3.28-2.23L258.56 33c.43-1.09.3-2.33-.36-3.3 -.66-.97-1.76-1.55-2.93-1.55Z"/><path fill="#C9F4FF" d="M49.2 3.29c-1.29-2.06-3.55-3.31-5.98-3.3H7.04C4.46-.01 2.09 1.38.85 3.64c-1.25 2.25-1.17 5 .2 7.17L8.4 22.57l48.12-7.54 -7.36-11.77Z"/><path fill="#51B9FF" d="M56.62 15.06c-1.29-2.06-3.55-3.31-5.98-3.3H14.46c-2.58 0-4.95 1.39-6.19 3.65 -1.25 2.25-1.17 5 .2 7.17l10.38 16.47 48.12-7.54 -10.39-16.48Z"/><g fill="#007BFC"><path d="M18.88 39.07c-.71-1.13-1.09-2.44-1.09-3.77 0-3.9 3.16-7.07 7.06-7.07h36.17c2.42-.01 4.68 1.24 5.97 3.29l32.36 51.34c1.45 2.3 1.45 5.23 0 7.53l-18.09 28.74c-1.3 2.05-3.55 3.29-5.98 3.29 -2.43 0-4.68-1.25-5.98-3.3L18.84 39.03Z"/><path d="M110.11 54.43c1.28 2.07 3.55 3.32 5.99 3.32 2.43 0 4.7-1.26 5.99-3.33l6.17-9.86 11.85-18.82c1.45-2.31 1.45-5.24 0-7.54l-9.42-14.94c-1.29-2.06-3.55-3.31-5.98-3.3H88.53c-2.58 0-4.95 1.39-6.19 3.65 -1.25 2.25-1.17 5 .2 7.17l27.51 43.6Z"/></g></svg>