<svg viewBox="0 0 256 256" xmlns="http://www.w3.org/2000/svg" xmlns:xlink="http://www.w3.org/1999/xlink"><defs><mask id="a"><use fill="#FFF" xlink:href="#c"/></mask><mask id="b"><use fill="#FFF" xlink:href="#c"/></mask><path id="c" d="M256 128c0 70.69-57.31 128-128 128C57.3 256 0 198.69 0 128 0 57.3 57.308 0 128 0c70.69 0 128 57.308 128 128"/></defs><use fill="#4356E6" xlink:href="#c"/><g fill="#FFF"><path mask="url(#a)" d="M128 172.29c-11.37.29-35.131-7.03-71.49-43.15 31.92-32.31 53.98-43.45 71.016-43.87 11.36-.3 32.03 6.06 71.8 43.86 -31.01 30.92-54.3 42.73-71.34 43.14m86.81-41.74c-.39-.38-1.05-1.04-1.43-1.42 18.29-18.18 31.43-31.55 40.11-40.47 -1.05-3.36-2.24-6.65-3.54-9.878 -11.61 11.59-30.94 30.99-43.45 44.1 -32.6-31.384-58.72-46.95-78.41-46.792 -.27 0-.53 0-.8.01 -21.12.13-45.97 15.87-77.67 46.45 -.35-.33-28.07-29.485-43.01-45.212 -1.52 3.62-2.875 7.33-4.067 11.12 15.67 16.527 40.004 40.97 40.269 41.22 -.59.56-24.11 23.97-39.503 40.14 1.19 3.54 2.53 7.01 4 10.42 14.94-15.63 41.555-43.4 42.256-44.07 33.64 31.21 58.99 45.96 77.72 45.96 .26 0 .53-.01.79-.01 19.61-.48 42.322-12.62 78.53-46.42 .33.32 27.24 28.04 42.39 43.66 1.35-3.18 2.57-6.42 3.68-9.72 -9.34-10.23-22.91-24.64-37.91-39.14"/><path mask="url(#b)" d="M149.69 114.46v29.51l-21.7 10.78 -21.7-11.4v-29.52l21.69-10.71 21.69 11.31Zm-25.75-19.54l-21.7 10.7c-3.13 1.54-5.11 4.73-5.11 8.21v29.51c0 3.4 1.88 6.52 4.9 8.113l21.69 11.39c1.33.7 2.79 1.05 4.26 1.05 1.39 0 2.79-.32 4.08-.96l21.69-10.79c3.11-1.55 5.08-4.73 5.08-8.21v-29.52c0-3.42-1.9-6.55-4.93-8.13l-21.7-11.32c-1.33-.7-2.79-1.04-4.24-1.04 -1.39 0-2.78.31-4.06.94v0Z"/></g></svg>