<svg viewBox="0 0 512 83" xmlns="http://www.w3.org/2000/svg"><g fill="#5645BD"><path d="M71.34 14.7l.2.57c1.02 2.84 2.44 7.97 3.02 10.18l.42-.28c2.23-1.43 6.2-3.59 7.05-2.67 1.13 1.23-4.3 23.15-6.56 24.15l-.99 7.97c-.11.84-.22 1.71-.34 2.57l-.24 1.71 -.36 2.41c-.58 3.75-1.17 6.71-1.64 6.82 -.09-.42-.14-.87-.19-1.35l-.09-.98c-.07-.82-.13-1.67-.27-2.51l-.09-.44c-.26-1.18-.82-2.42-2.52-3.38 -1.77-1-4.08.15-7.19 2.09l-3.01 1.91c-.41.25-.83.52-1.26.79 -3.64 2.24-6.62 3.46-8.95 4.35l-.72.27c-.83.31-1.57.59-2.21.87l-.27.09 -1.14.42c-.58.2-1.14.36-2.04.43l-.36.02h-1.22c-1.25-.06-1.88-.26-2.61-.54l-.68-.26c-.17-.06-.34-.12-.52-.19 -.52-.23-1.09-.45-1.72-.7l-1.58-.6c-2.28-.88-5.13-2.09-8.58-4.22l-1.26-.8 -2.66-1.7c-3.3-2.08-5.71-3.35-7.54-2.31 -1.92 1.08-2.39 2.51-2.61 3.81 -.12.62-.18 1.26-.23 1.88l-.05.61c-.07.82-.13 1.62-.27 2.31 -.6-.13-1.37-4.68-2.05-9.67l-.18-1.28 -.34-2.58c-.18-1.42-.35-2.79-.5-4.01l-.42-3.4c-.03-.21-.06-.4-.08-.58 -1.06-.47-2.8-5.46-4.24-10.79l-.22-.81C.47 28.99-.67 22.94-.08 22.31c.91-.99 5.36 1.54 7.48 2.93l.41-1.55c.65-2.4 1.65-5.91 2.46-8.23l.14-.43C14.44 3.42 18.78-.38 20.59-.25c.73.05 1.05.5.83 1.62l-.2 1.03c-.69 3.75-.97 6.89-1.09 8.78l-.11 1.77c-.01.08-.02.12-.03.13 5.18-5.14 12.02-8.25 19.27-8.8l.66-.05h1.77c7.5.4 14.59 3.55 19.93 8.83 -.01-.01-.02-.06-.02-.14l-.11-1.79c-.14-2.06-.45-5.61-1.29-9.82 -.22-1.12.1-1.58.83-1.63 1.78-.13 6.01 3.54 9.98 14.7Zm-7.16 28.91c-1.5.14-5.11 1.48-9.27 4.33 -6.35 4.33-8.34 7.33-8.68 8.66 -.26 1.01-.34 2.11-.34 2.6 0 .04.02.07.07.07 2.47-.02 6.95-.95 11.42-3.09l.51-.26c4.32-2.17 4.91-2.82 5.39-3.77l.27-.57c.52-1.06.66-5.69.66-7.94 0-.02-.01-.04-.03-.06 -.02-.02-.04-.03-.06-.02Zm-46.16-.01c-.03-.01-.05 0-.06.01 -.02.01-.03.03-.02.05l0 .9c.03 2.4.19 6.09.66 7.02l.14.3c.05.12.11.24.17.35l.09.16 .1.16c.5.76 1.48 1.51 5.15 3.34 4.62 2.31 9.36 3.31 11.94 3.33 .03 0 .06-.03.06-.08 -.02-.88-.13-1.75-.34-2.61l-.06-.2c-.48-1.42-2.58-4.34-8.62-8.48 -4.17-2.85-7.78-4.19-9.27-4.34Z"/><path d="M157.86 16.02c.66 2.26 1.38 4.83 2.15 7.7 .83 2.81 1.68 5.74 2.57 8.78l2.81 9.11c.93 3.03 1.84 5.85 2.73 8.45 .72-2.82 1.43-5.89 2.15-9.21 .77-3.32 1.49-6.75 2.15-10.28 .66-3.54 1.3-7.05 1.9-10.53 .66-3.54 1.27-6.94 1.82-10.2h13.42c-1.98 9.81-4.22 19.56-6.72 29.26 -2.38 9.48-5.09 18.88-8.13 28.18h-11.86c-2.01-5.52-3.89-11.07-5.64-16.67 -1.83-5.85-3.62-11.71-5.4-17.58L146.5 50.6c-1.71 5.6-3.56 11.15-5.56 16.66h-11.86c-3.05-9.31-5.79-18.7-8.21-28.19 -2.45-9.71-4.66-19.46-6.64-29.27h14c1.17 6.93 2.47 13.83 3.89 20.72 .71 3.53 1.43 6.96 2.15 10.27 .77 3.31 1.54 6.38 2.32 9.2 .99-2.71 1.96-5.59 2.9-8.63 .93-3.04 1.85-6.08 2.73-9.12 .85-2.92 1.65-5.85 2.4-8.79l2.07-7.55h11.02 -.01ZM211.4 58.7c1.21 0 2.37-.03 3.48-.09 1.1-.06 1.98-.14 2.65-.25v-9.37c-.75-.15-1.49-.26-2.24-.34 -.91-.11-1.83-.17-2.74-.17 -1.17 0-2.27.08-3.32.24 -.93.08-1.83.34-2.66.74 -.78.38-1.39.91-1.83 1.57 -.45.66-.67 1.49-.67 2.48 0 1.93.63 3.28 1.9 4.06 1.32.71 3.12 1.07 5.39 1.07v0Zm-1-36.14c3.64 0 6.68.41 9.11 1.24 2.43.83 4.36 2.01 5.8 3.56 1.51 1.58 2.59 3.52 3.14 5.63 .61 2.21.91 4.66.91 7.37v25.69c-1.77.38-4.23.83-7.38 1.32 -3.15.55-6.97.82-11.44.82 -2.82 0-5.39-.25-7.71-.75 -2.27-.5-4.23-1.31-5.89-2.41 -1.64-1.14-2.95-2.68-3.82-4.48 -.89-1.83-1.33-4.07-1.33-6.72 0-2.55.49-4.7 1.49-6.47 1.04-1.77 2.43-3.18 4.14-4.23 1.81-1.09 3.8-1.85 5.88-2.24 2.25-.51 4.56-.76 6.88-.75 1.6 0 3 .08 4.22.24 1.27.1 2.29.27 3.06.49V39.7c0-2.11-.64-3.79-1.91-5.06 -1.28-1.28-3.49-1.91-6.64-1.91 -2.11 0-4.18.16-6.22.49 -2.05.27-3.82.68-5.31 1.24l-1.58-9.95c.71-.23 1.6-.45 2.65-.67 1.1-.28 2.29-.5 3.56-.67 1.27-.22 2.6-.39 3.98-.5 1.43-.17 2.87-.25 4.31-.25v0Zm67.8 1.16c-2.35 7.95-4.94 15.83-7.8 23.62 -2.67 7.24-5.63 14.37-8.87 21.38 -1.17 2.48-2.33 4.58-3.49 6.3 -1.17 1.76-2.44 3.2-3.82 4.3 -1.39 1.16-2.96 1.98-4.73 2.48 -1.72.55-3.73.83-6.05.83 -1.82.01-3.63-.19-5.4-.59 -1.36-.26-2.7-.65-3.98-1.17l2.15-9.87c1.27.43 2.4.74 3.39.91 .99.16 2.04.24 3.14.24 2.21 0 3.89-.61 5.05-1.83 1.21-1.16 2.23-2.8 3.06-4.9 -3.07-6.08-5.89-12.27-8.46-18.57 -2.82-6.91-5.48-14.65-7.96-23.22h13.09c.55 2.15 1.18 4.5 1.9 7.04 .77 2.48 1.57 5.02 2.4 7.62 .83 2.54 1.65 5.02 2.48 7.45 .88 2.43 1.71 4.63 2.48 6.63 .71-1.99 1.46-4.2 2.23-6.64 .77-2.44 1.51-4.92 2.23-7.47 .77-2.6 1.49-5.14 2.15-7.63 .71-2.55 1.35-4.89 1.9-7.05h12.76v0Zm23.11 33.73c1.82 0 3.31-.14 4.47-.42 1.21-.33 2.18-.75 2.89-1.25 .71-.56 1.21-1.19 1.49-1.91 .27-.72.41-1.52.41-2.41 0-1.88-.89-3.43-2.66-4.65 -1.77-1.28-4.81-2.63-9.12-4.07 -1.91-.68-3.79-1.43-5.64-2.24 -1.83-.85-3.53-1.94-5.06-3.24 -1.5-1.34-2.74-2.94-3.65-4.73 -.94-1.88-1.41-4.15-1.41-6.8 0-2.66.49-5.03 1.48-7.13 .99-2.16 2.4-3.98 4.22-5.48 1.82-1.49 4.03-2.63 6.63-3.4 2.59-.83 5.52-1.25 8.78-1.25 3.86 0 7.21.41 10.02 1.24 2.81.82 5.14 1.73 6.96 2.73l-3.74 10.19c-1.61-.84-3.4-1.55-5.39-2.16 -1.94-.67-4.29-1-7.05-1 -3.1 0-5.34.44-6.72 1.32 -1.33.82-1.99 2.12-1.99 3.89 0 1.05.24 1.93.74 2.65 .49.71 1.18 1.38 2.07 1.98 .94.55 1.99 1.07 3.15 1.57 1.21.44 2.54.91 3.97 1.4 2.98 1.1 5.58 2.21 7.79 3.31 2.21 1.05 4.03 2.29 5.47 3.73 1.47 1.41 2.61 3.14 3.31 5.05 .71 1.93 1.07 4.28 1.07 7.04 0 5.35-1.88 9.53-5.64 12.51 -3.76 2.92-9.43 4.39-17 4.39 -2.55 0-4.84-.17-6.88-.5 -1.85-.24-3.68-.6-5.48-1.08 -1.39-.39-2.74-.86-4.07-1.41 -.97-.43-1.91-.9-2.82-1.41l3.65-10.28c1.7.93 3.81 1.79 6.29 2.56 2.54.71 5.63 1.07 9.28 1.07v0Zm29.67-11.94c0-3.15.49-6.11 1.49-8.87 .98-2.71 2.5-5.2 4.47-7.3 1.97-2.14 4.37-3.83 7.04-4.98 2.76-1.22 5.91-1.83 9.45-1.83 2.32 0 4.44.22 6.38.66 1.93.38 3.81.96 5.63 1.74l-2.58 9.86c-1.25-.47-2.52-.86-3.82-1.16 -1.53-.35-3.09-.52-4.65-.5 -3.65 0-6.39 1.13-8.21 3.39 -1.77 2.26-2.66 5.24-2.66 8.95 0 3.92.83 6.96 2.48 9.11 1.71 2.15 4.66 3.23 8.86 3.23 1.49 0 3.09-.14 4.8-.42 1.62-.26 3.2-.7 4.72-1.33l1.73 10.11c-1.44.6-3.24 1.13-5.39 1.57 -2.16.44-4.54.66-7.13.66 -3.98 0-7.41-.59-10.28-1.75 -2.88-1.22-5.25-2.85-7.13-4.9 -1.86-2.09-3.24-4.55-4.07-7.22 -.85-2.97-1.27-6.04-1.25-9.12v-.01Zm69.79-10.86c-1.3-.32-2.59-.6-3.9-.83 -1.58-.35-3.2-.51-4.81-.5 -.95.01-1.89.09-2.82.24 -.82.06-1.62.2-2.41.41v33.32h-12.36V26c2.21-.78 4.8-1.5 7.79-2.16 3.03-.72 6.41-1.08 10.11-1.08 .66 0 1.46.05 2.4.16 .94.05 1.87.16 2.81.32 .93.11 1.87.27 2.81.49 .94.16 1.74.38 2.4.66l-2.08 10.19v0Zm21.04 32.66h-12.36V23.7h12.35v43.6Zm1.16-56.21c0 2.26-.75 4.06-2.24 5.38 -1.42 1.26-3.25 1.94-5.14 1.9 -1.92.02-3.78-.66-5.23-1.91 -1.44-1.33-2.16-3.13-2.16-5.39 0-2.27.71-4.04 2.15-5.31 1.42-1.31 3.29-2.02 5.22-1.99 1.98 0 3.7.66 5.13 1.98 1.49 1.27 2.23 3.03 2.23 5.3v0Zm38.38 34.73c0-3.82-.86-6.86-2.58-9.12 -1.72-2.33-4.26-3.49-7.63-3.49 -1.11 0-2.13.05-3.07.16 -.78.03-1.56.11-2.33.24v22.29c.77.49 1.76.91 2.98 1.24 1.27.32 2.54.49 3.81.49 5.85 0 8.78-3.96 8.78-11.86Zm12.59-.34c0 3.37-.42 6.43-1.25 9.2 -.83 2.76-2.05 5.13-3.65 7.12 -1.61 1.98-3.65 3.57-5.97 4.64 -2.38 1.1-5.12 1.65-8.21 1.65 -1.62 0-3.23-.16-4.81-.5 -1.48-.33-2.93-.8-4.31-1.41V82.6h-12.36V25.15c1.1-.34 2.37-.64 3.81-.92 1.43-.34 2.92-.61 4.47-.84 1.6-.22 3.2-.39 4.8-.5 1.56-.17 3.14-.25 4.72-.25 3.59 0 6.79.55 9.61 1.65 2.81 1.05 5.19 2.57 7.12 4.55 1.93 1.93 3.39 4.31 4.39 7.12 1.05 2.81 1.57 5.96 1.57 9.45v0Zm9.07-32.66l12.35-1.99v12.84h14.83v10.27h-14.84v15.33c0 2.59.44 4.66 1.32 6.21 .93 1.54 2.79 2.32 5.55 2.32 1.36-.01 2.71-.12 4.06-.34 1.32-.25 2.63-.61 3.89-1.08L511.9 66c-1.5.6-3.15 1.13-4.98 1.57 -1.83.44-4.07.66-6.72.66 -3.37 0-6.16-.45-8.38-1.33 -2.22-.94-3.99-2.22-5.31-3.82 -1.33-1.66-2.27-3.65-2.82-5.97 -.52-2.54-.77-5.13-.75-7.72V12.75v-.001Z"/></g></svg>