<svg viewBox="0 0 256 240" xmlns="http://www.w3.org/2000/svg"><path fill="#808285" d="M85.36 43.78s-9.49 5.47-9.49 16.41c0 10.95 0 54.67 0 54.67s0 10.95-9.49 5.47c-9.49-5.48-9.49-16.42-9.49-16.42s0-43.74 0-54.68c0-.69.03-1.35.1-2 1.04-9.63 9.36-14.44 9.36-14.44L47.39 21.85s-.02 0-.04.01c-.57.32-9.46 5.8-9.46 16.39 0 10.95 0 54.67 0 54.67s0 10.95-9.49 5.47c-9.49-5.48-9.49-16.42-9.49-16.42s0-43.74 0-54.68c0-10.94 9.48-16.42 9.48-16.42L9.43-.09C9.42-.09-.06 5.38-.06 16.32c0 10.95 0 54.67 0 54.67s0 32.84 28.44 49.26c8.71 5.03 14.75 5.42 18.95 3.56 4.19 6.7 10.23 13.29 18.95 18.32 28.44 16.41 28.44-16.42 28.44-16.42s0-43.74 0-54.68c0-10.96 9.48-16.42 9.48-16.42 -2.92-3.67-5.51-6.16-7.78-7.48 -1.94-1.13-5.65-2.29-11.15-3.49Z"/><path fill="#BCBEC0" d="M189.64 136.81c0-32.43 28.44-16.42 28.44-16.42v0l37.91 21.89v21.89l-37.92-21.9s-.12-.07-.34-.18l-.13-.07c-1.9-.93-9.04-3.79-9.04 5.73 0 10.93 9.48 16.41 9.48 16.41v0l18.95 10.93s18.95 10.95 18.95 43.78c0 32.82-28.45 16.41-28.45 16.41v0l-37.92-21.9v-21.9l37.93 21.89s9.48 5.47 9.48-5.48c0-10.94-9.49-16.42-9.49-16.42v0l-9.49-5.48c-.57-.34-28.45-17.17-28.45-49.27Zm-28.45-49.25c5.66.65 9.51 1.56 11.52 2.72 2.19 1.26 4.67 4.01 7.42 8.22 0 0-9.49 5.47-9.49 16.41v0l-.01 54.75c-.03 1.83-.86 32.25-28.45 16.32 -27.6-15.93-28.42-47.31-28.45-49.18l-.01-.09 18.95 10.95v0l0 .03c.01.69.31 11.08 9.48 16.37 9.19 5.3 9.47-4.83 9.48-5.45l0-54.71c0-10.94 9.48-16.42 9.48-16.42Zm-47.39 5.59l18.95 10.93v21.89l-18.96-10.94v-21.9Z"/><path fill="#F16822" d="M218.08 43.78c-8.74-5.06-16.57-7.51-23.25-8.5 -1.75-3.81-6.01-8.28-14.68-13.23 -28.45-16.25-56.88-.18-56.88-.18L85.33 43.76l18.95 10.93 37.91-21.9s9.48-5.48 18.95 0c9.48 5.47 0 10.95 0 10.95l-37.92 21.89v0 0l18.95 10.93 37.94-21.91c.56-.33 9.74-5.29 18.92.01 9.48 5.47 0 10.93 0 10.93l-37.92 21.89 18.95 10.95 47.4-27.37s18.95-10.94-9.48-27.36Z"/></svg>