<svg viewBox="0 0 512 275" xmlns="http://www.w3.org/2000/svg"><path d="M73.7 219.64l-17.24 54.45h-1.9l-17.28-50.28c-.18-.51-.33-1.03-.43-1.55 -.11.52-.25 1.04-.43 1.54l-17.36 50.27H17.2L-.04 219.61H1.7c.4-.03.77.25.85.65l15.02 48.37c.26.91.48 1.84.65 2.78 .1-.52.21-1.01.32-1.48 .11-.47.23-.91.36-1.32l16.77-48.38c.1-.43.49-.71.92-.66h.5c.4-.03.77.25.85.65l16.77 48.37c.28.9.51 1.82.69 2.74 .1-.52.2-1.01.3-1.46 .1-.46.21-.89.34-1.3l15.02-48.38c.1-.43.49-.71.92-.66h1.58Zm43.03 52.63l-.08 1.82H84.5v-54.46h32.14v1.81H86.62v24.13h25.29v1.78h-25.3v24.9h30.09Zm27.57-52.64c5.93 0 10.35 1.18 13.24 3.56 2.89 2.37 4.33 5.74 4.33 10.1 0 1.5-.29 2.99-.86 4.39 -.57 1.41-1.38 2.71-2.39 3.85 -1.07 1.19-2.33 2.2-3.72 2.98 -1.52.84-3.16 1.43-4.87 1.74 2.04.19 4.05.66 5.96 1.41 1.64.64 3.15 1.57 4.47 2.74 1.21 1.1 2.17 2.47 2.8 3.98 .66 1.62.99 3.37.96 5.13 .04 2.12-.37 4.22-1.21 6.17 -.79 1.77-1.99 3.33-3.51 4.55 -1.68 1.3-3.59 2.26-5.64 2.82 -2.48.67-5.03 1-7.6.96h-16.81v-54.46h14.75Zm-12.63 1.7v24.36h12.89c2.37.05 4.74-.32 6.99-1.11 1.75-.64 3.35-1.61 4.72-2.87 1.17-1.1 2.08-2.46 2.67-3.96 .53-1.38.82-2.85.83-4.32 0-3.9-1.28-6.9-3.82-8.99 -2.55-2.1-6.44-3.14-11.68-3.14h-12.63Zm14.67 51.01c5.08 0 8.99-1.1 11.71-3.28 2.72-2.19 4.08-5.37 4.08-9.55 .02-1.76-.35-3.5-1.11-5.08 -.74-1.51-1.82-2.82-3.14-3.84 -1.49-1.13-3.17-1.95-4.96-2.45 -2.14-.6-4.35-.88-6.57-.86h-14.72v25.02h14.67Zm76.68-25.49c.06 3.89-.57 7.76-1.86 11.44 -1.13 3.18-2.91 6.1-5.23 8.55 -2.27 2.34-5.02 4.17-8.06 5.36 -3.3 1.27-6.81 1.9-10.35 1.85h-19.64v-54.46h19.63c3.53-.05 7.04.58 10.34 1.85 3.04 1.18 5.79 3.01 8.05 5.36 2.32 2.45 4.1 5.37 5.22 8.55 1.29 3.67 1.91 7.55 1.85 11.44v0Zm-2.25 0c.05-3.68-.52-7.34-1.69-10.83 -1.01-2.98-2.64-5.7-4.77-8 -2.06-2.18-4.58-3.87-7.36-4.96 -3.01-1.17-6.21-1.75-9.44-1.71H180v50.97h17.5c3.22.03 6.42-.54 9.43-1.71 2.78-1.1 5.3-2.79 7.35-4.96 2.13-2.31 3.75-5.03 4.76-8 1.17-3.49 1.74-7.15 1.68-10.83v0Zm52.09 27.22h-1.75c-.26 0-.52-.04-.76-.12 -.27-.12-.49-.31-.64-.55l-19.22-23.52c-.19-.26-.4-.5-.64-.7 -.23-.19-.48-.34-.74-.45 -.32-.13-.64-.22-.97-.26 -.46-.06-.92-.09-1.38-.08h-7.95v25.64h-2.14v-54.46h13.13c5.91 0 10.4 1.14 13.47 3.44 3.07 2.29 4.6 5.78 4.6 10.45 .02 2-.39 3.99-1.21 5.82 -.8 1.73-1.94 3.27-3.37 4.53 -1.55 1.33-3.34 2.37-5.27 3.06 -2.21.79-4.52 1.25-6.86 1.37 .51.3.97.69 1.35 1.16l20.25 24.59Zm-34.01-27.27h10.38c2.33.02 4.66-.28 6.91-.92 1.89-.53 3.67-1.43 5.22-2.64 1.4-1.12 2.53-2.54 3.29-4.17 .78-1.73 1.17-3.61 1.14-5.5 0-4.21-1.37-7.31-4.11-9.3 -2.74-1.99-6.69-2.99-11.86-2.99h-11v25.48Zm46.24 27.26h-2.14V219.6h2.13v54.45Zm57.16-54.46l-22.63 54.45h-1.9l-22.62-54.46h1.66c.4-.03.77.25.85.65L317.82 269c.15.41.3.83.44 1.25 .14.42.27.85.4 1.29 .22-.87.49-1.72.81-2.56l20.17-48.77c.1-.43.49-.71.92-.66h1.62Zm42.25 52.63l-.08 1.82h-32.15v-54.46h32.14v1.81h-30.02v24.13h25.29v1.78h-25.3v24.9h30.09Zm48.95 1.82h-1.75c-.26 0-.52-.04-.76-.12 -.27-.12-.49-.31-.64-.55l-19.22-23.52c-.19-.26-.4-.5-.64-.7 -.23-.19-.48-.34-.74-.45 -.32-.13-.64-.22-.97-.26 -.46-.06-.92-.09-1.38-.08h-7.95v25.64h-2.14v-54.46h13.13c5.91 0 10.4 1.14 13.47 3.44 3.07 2.29 4.6 5.78 4.6 10.45 .02 2-.39 3.99-1.21 5.82 -.8 1.73-1.94 3.27-3.37 4.53 -1.55 1.33-3.34 2.37-5.27 3.06 -2.21.79-4.52 1.25-6.86 1.37 .51.3.97.69 1.35 1.16l20.25 24.59Zm-34.01-27.27h10.37c2.33.02 4.66-.28 6.91-.92 1.89-.53 3.67-1.43 5.22-2.64 1.4-1.12 2.53-2.54 3.29-4.17 .78-1.73 1.17-3.61 1.14-5.5 0-4.21-1.37-7.31-4.11-9.3 -2.74-1.99-6.69-2.99-11.86-2.99h-11v25.48Z"/><path fill="#EA5906" d="M450.81 218.18h53.3c4.24 0 7.69 3.44 7.69 7.69v40.63c0 4.24-3.45 7.69-7.7 7.69h-53.31c-4.25 0-7.7-3.45-7.7-7.7v-40.64c0-4.25 3.44-7.7 7.69-7.7Z"/><path fill="#F2F2F2" d="M454.96 263.66h-1.35v-34.41h1.34v34.4Zm3.93 1.41c-.07.17-.2.32-.37.41 -.16.08-.34.12-.52.12h-.49l15.46-36.81c.14-.34.47-.55.83-.54h.53l-15.47 36.8Zm47.86-18.63c.03 2.47-.37 4.94-1.18 7.28 -.72 2.04-1.84 3.93-3.31 5.53 -1.43 1.52-3.16 2.72-5.1 3.51 -4.21 1.63-8.87 1.63-13.07 0 -1.94-.79-3.67-1.99-5.1-3.52 -1.47-1.61-2.59-3.49-3.31-5.54 -1.57-4.73-1.57-9.83 0-14.55 .71-2.06 1.83-3.94 3.3-5.55 1.42-1.53 3.16-2.74 5.09-3.54 2.06-.85 4.27-1.28 6.51-1.25 2.24-.03 4.47.39 6.55 1.23 1.93.79 3.66 1.99 5.09 3.52 1.46 1.6 2.59 3.49 3.3 5.54 .81 2.34 1.2 4.81 1.17 7.29h-.01Zm-1.42 0c.03-2.34-.33-4.67-1.07-6.89 -.65-1.92-1.67-3.68-3.02-5.18 -1.3-1.42-2.88-2.53-4.65-3.26 -3.84-1.51-8.09-1.51-11.92 0 -1.78.72-3.36 1.84-4.66 3.25 -1.35 1.5-2.38 3.26-3.04 5.17 -1.46 4.47-1.46 9.3 0 13.77 .65 1.9 1.68 3.65 3.03 5.15 1.29 1.4 2.88 2.5 4.64 3.23 3.83 1.5 8.08 1.5 11.91 0 1.76-.73 3.35-1.83 4.64-3.24 1.34-1.5 2.37-3.25 3.01-5.16 .73-2.23 1.09-4.55 1.06-6.89v0Z"/><path fill="#EA5906" d="M290.99 40.1c3.91.01 7.07 3.17 7.09 7.09v0 .72c4.75.77 20.73 6.14 20.73 23.41v0 37.58c1.87 1.24 3.03 2.94 3.03 4.81 -.06 1.5-.73 2.91-1.88 3.89 -.13 2.74.67 8.22 1.02 10.3v0l.01.13c0 .11.01 2.76-1.74 4.52 -1.05 1.02-2.47 1.56-3.93 1.5 -5.11 0-5.33-4.3-5.44-6.36 -.02-.27-.03-.5-.05-.71 -.09-.86-.39-1.29-.9-1.3v0h-.05c-.55 0-.9.16-1.48 1.04 -1.61 2.38-4.53 2.15-6.09 1.23 -.85-.48-1.45-1.29-1.66-2.24 -.3-1.34.19-2.93 1.44-4.71 .76-.99 1.15-2.21 1.09-3.46 -1.14-.99-1.82-2.4-1.87-3.9 0-1.88 1.16-3.58 3.04-4.83v0V74.94c0-2.83-.87-3.9-2.66-5.5 -.77-.67-1.71-1.11-2.72-1.27v0 54.04c-.02 3.91-3.18 7.07-7.1 7.09v0h-5.03v19.87h4.08l.07.01c.07.01 6.99 1.38 7.82 8.82v0 7.62h-24.7l-7.6-2.66v-5.78c-.19-2.99.34-5.2 1.54-6.41v0 -21.52h-32.4v21.51c1.2 1.21 1.73 3.42 1.54 6.4v0 5.77l-7.6 2.65h-24.7v-7.63c.8-7.21 7.31-8.72 7.79-8.82l.02-.01 .08-.02h4.08v-19.88h-4.89c-3.92-.02-7.08-3.18-7.1-7.1v0V68.07c-1.01.15-1.95.59-2.71 1.26 -1.79 1.59-2.66 2.67-2.66 5.49v0 33.86c1.88 1.24 3.05 2.94 3.05 4.82 -.05 1.5-.73 2.91-1.87 3.89 -.06 1.24.33 2.46 1.09 3.45 1.24 1.78 1.73 3.37 1.44 4.7 -.22.94-.82 1.75-1.67 2.23 -1.56.91-4.48 1.14-6.09-1.24 -.58-.89-.94-1.05-1.48-1.05v0h-.05c-.51 0-.81.44-.89 1.29 -.03.2-.04.44-.05.7 -.11 2.06-.33 6.35-5.43 6.35 -1.47.06-2.89-.49-3.93-1.51 -1.75-1.76-1.74-4.41-1.73-4.53v0l.01-.14c.35-2.08 1.14-7.56 1.02-10.31 -1.15-.99-1.82-2.4-1.88-3.9 0-1.88 1.15-3.58 3.03-4.82v0V71.02c0-17.28 15.97-22.65 20.73-23.42v0 -.73c.01-3.92 3.17-7.08 7.09-7.1v0Zm4.97 116.99h-21.31c.03.34.04.69.03 1.04v0h21.46c-.05-.36-.12-.71-.2-1.05v0Zm-68.59 0h-21.31c-.09.34-.15.69-.2 1.04v0h21.46c-.02-.35 0-.7.03-1.05v0Zm42.15-5.31c-.4-.04-.78.1-1.05.39 -.69.67-1.06 2.07-1.08 3.91v0l5.49 1.91c-.04-1.86-.68-3.66-1.84-5.11 -.65-.79-1.22-1.1-1.54-1.12Zm-36.9-.01l-.15 0c-.32.02-.9.33-1.54 1.11 -1.16 1.45-1.81 3.25-1.84 5.1v0l5.49-1.92c-.02-1.85-.4-3.24-1.08-3.92 -.28-.29-.66-.43-1.05-.4Zm-2.42-.71h-18.07c-.56.12-4.27 1.1-5.76 4.94v0h21.14c.34-1.55 1.04-3.01 2.02-4.25 .2-.25.41-.48.64-.7v0Zm59.64 0h-18.07c.23.21.44.44.64.69 .98 1.24 1.67 2.69 2.02 4.24v0h21.14c-1.39-3.56-4.68-4.66-5.59-4.91l-.13-.04v0l-.05-.02Zm-18.43-21.67h-2.45v19.87h2.44v-4.41h-.84v-3.76h.83v-11.72Zm13.44 0h-2.25v19.87h2.24v-19.88Zm-51.86 0h-2.45v11.71h.83v3.75h-.84v4.4h2.44v-19.88Zm-13.64 0h-2.25v19.87h2.24v-19.88Zm-35.41-10.5c-.17 3.09-.52 6.17-1.04 9.22 .01.34.12 2.09 1.22 3.19 .71.67 1.67 1.02 2.64.96 1.25 0 2.06-.35 2.59-.91 -.94-.17-1.78-.67-2.38-1.4 -.68-.89-.82-2.04-.43-3.42 .13-.49.25-.88.34-1.21 .08-.28.15-.51.21-.74l.06-.23c.21-.83.36-1.67.7-4.09 -1.39-.26-2.73-.74-3.96-1.42Zm134.19 0c-1.24.68-2.58 1.16-3.96 1.41 .46 3.29.57 3.67.98 5.04 .11.39.23.8.34 1.2 .39 1.38.24 2.53-.43 3.41 -.61.73-1.45 1.22-2.38 1.39 .53.56 1.34.9 2.59.9 .97.05 1.93-.3 2.65-.97v0c1.09-1.11 1.2-2.85 1.21-3.2 -.52-3.06-.87-6.14-1.04-9.23Zm-9.8 1.48c-.51.76-1.08 1.47-1.72 2.12 -.64.62-1.2 1.34-1.65 2.11 -.14.23-.17.51-.08.77 .14.32.36.59.65.79 .13-.13.25-.28.36-.43 .63-.97 1.46-1.86 3.03-1.85 1.47.02 2.46 1.11 2.63 2.91 .02.26.03.52.04.78 .02.69.1 1.39.23 2.07 .51-.06 1.35-.26 1.76-.81 .31-.42.35-1.04.12-1.86 -.14-.49-.25-.86-.35-1.19 -.43-1.44-.56-1.87-1.04-5.32 -.44.03-.89.05-1.34.05 -.92 0-1.83-.08-2.74-.23Zm-114.6 0c-.91.15-1.82.22-2.74.22 -.46-.01-.91-.02-1.35-.06 -.49 3.44-.62 3.87-1.04 5.31 -.1.32-.21.7-.35 1.18 -.23.81-.19 1.43.12 1.85 .4.54 1.25.74 1.76.8 .13-.69.21-1.39.23-2.08 .01-.3.02-.56.05-.79 .17-1.81 1.15-2.89 2.63-2.92 1.57-.02 2.4.87 3.03 1.84 .1.15.22.29.36.42 .29-.2.51-.48.65-.8 .08-.26.05-.54-.08-.78 -.45-.78-1.01-1.49-1.65-2.12 -.64-.66-1.21-1.37-1.72-2.13Zm4.39-1.52c-.92.51-1.89.91-2.9 1.18 .39.51.81 1.01 1.26 1.48 .73.72 1.36 1.54 1.86 2.44 .3.57.36 1.26.15 1.88 -.14.36-.34.69-.6.97 .66.05 1.32-.08 1.91-.39 .41-.23.71-.62.82-1.08 .17-.82-.23-1.97-1.17-3.31 -.7-.96-1.17-2.06-1.37-3.22Zm105.8-.01c-.21 1.16-.67 2.26-1.37 3.21 -.94 1.34-1.34 2.48-1.17 3.3 .1.45.4.84.82 1.07 .58.3 1.25.44 1.91.38 -.27-.29-.47-.62-.6-.98 -.22-.63-.16-1.31.15-1.89 .5-.9 1.13-1.73 1.86-2.45 .44-.48.87-.97 1.26-1.49 -1.02-.28-1.99-.68-2.9-1.19Zm-15.66-11.95h-74.5v10.56c.01 3.91 3.17 7.07 7.09 7.09v0h2.82c-4.36-.74-7.42-4.69-7.06-9.09 .36-4.41 4.04-7.79 8.46-7.79 4.41 0 8.09 3.38 8.46 7.78 .36 4.4-2.7 8.34-7.06 9.08v0h14.92c-4.35-.75-7.4-4.7-7.02-9.1 .37-4.4 4.05-7.77 8.46-7.77 4.4 0 8.08 3.37 8.46 7.76 .37 4.39-2.68 8.34-7.02 9.09v0h36.86c3.91-.02 7.07-3.18 7.08-7.09v0 -10.57Zm-41.9 3.57c-2.9-1.79-6.68-1.12-8.79 1.54 -2.12 2.66-1.92 6.48.47 8.91 2.38 2.42 6.21 2.67 8.9.59 2.69-2.09 3.4-5.85 1.66-8.77v0l-4.93 4.93c-.63.62-1.65.62-2.28 0 -.63-.63-.63-1.65-.01-2.28v0Zm-21.28-1.01c-3.4 0-6.25 2.53-6.66 5.89 -.41 3.36 1.75 6.5 5.04 7.32v0 -6.63c-.01-.43.16-.84.47-1.14 .3-.31.71-.48 1.13-.48v0c.42 0 .83.16 1.13.47 .3.3.47.71.47 1.13v0 6.62c3.29-.82 5.45-3.96 5.04-7.33 -.41-3.37-3.27-5.9-6.66-5.9Zm43.32 9.99c.87.01 1.58.72 1.58 1.6 0 .87-.71 1.59-1.59 1.6v0h-6.44c-.88-.02-1.59-.73-1.59-1.61 0-.88.7-1.6 1.58-1.61v0Zm12.84-4.83c.87.01 1.58.72 1.58 1.6 0 .87-.71 1.59-1.59 1.6v0h-19.29c-.59 0-1.13-.3-1.42-.8 -.3-.51-.3-1.13 0-1.63 .29-.51.83-.81 1.41-.8v0Zm0-4.83c.88 0 1.6.71 1.6 1.6 0 .88-.72 1.6-1.61 1.6v0h-19.29c-.89 0-1.61-.72-1.61-1.61 0-.89.71-1.61 1.6-1.61v0ZM204 50.35c-3.43.73-6.68 2.15-9.55 4.16 -5.77 4.05-8.69 9.68-8.69 16.72v0 35.31h8.21v-31.6c0-4.16 1.41-8.25 4.2-10.75 1.68-1.45 3.66-2.51 5.8-3.09v0Zm93.97 0v10.78c2.14.58 4.12 1.63 5.8 3.08 2.79 2.49 4.2 6.58 4.2 10.74v0 31.59h8.21V71.22c0-7.04-2.93-12.67-8.69-16.73 -2.88-2.02-6.12-3.44-9.55-4.17v0Zm-9.74 37.42c-2.35-2.67-4.18-3.01-5.67-2.82 -1.21.14-2.55 1.5-3.84 2.95 -1.63 1.83-3.48 3.9-6 3.9 -1.82 0-3.32-1.2-4.91-2.46 -2.14-1.7-4.56-3.62-8.49-3.81 -3.07-.16-5.58 2.54-7.14 4.83 -.79 1.16-1.48 2.38-2.07 3.65v0h38.09Zm-62.85-13.6h-1.23l-8.24 19.64h1.22l8.23-19.65Zm7.49.42c-5.31 0-8.84 4.27-8.84 9.05v0 .04c0 4.77 3.47 9 8.78 9 5.3 0 8.82-4.28 8.82-9.06 .02-.03.02-.03 0-.06 0-4.78-3.48-9.01-8.78-9.01Zm-17.44.3h-1.31v17.5h1.3V74.88Zm17.38.87c4.32 0 7.47 3.55 7.47 7.88v0 .04c0 4.32-3.11 7.83-7.43 7.83 -4.33 0-7.48-3.56-7.48-7.88v0 -.05c0-4.33 3.1-7.84 7.43-7.84Zm55.4-2.46h-39.08v15.85c2.2-3.42 5.66-7.06 10.35-6.84 4.95.23 8.05 2.69 10.32 4.48 1.14.9 2.21 1.76 2.9 1.76 1.07 0 2.35-1.44 3.59-2.83 1.68-1.89 3.94-3.97 6.59-4.03 2.16-.06 3.62.37 5.3 1.61v0V73.26Zm-7.09-28.86H220.8c-3.92.01-7.08 3.17-7.1 7.09v0 8.83h74.49v-8.84c-.02-3.92-3.18-7.08-7.09-7.1v0Zm-62.23 11.1v2.97h-2.98v-2.98h2.97Zm5 0v2.97h-2.98v-2.98h2.97Zm5 0v2.97h-2.98v-2.98h2.97Zm5 0v2.97h-2.98v-2.98h2.97ZM277.08-.14c3.91.01 7.07 3.17 7.09 7.09v0V30.1c-.02 3.91-3.19 7.07-7.1 7.09v0h-52.28c-3.92-.02-7.08-3.18-7.1-7.1v0V6.93c.01-3.92 3.17-7.08 7.09-7.1v0Zm-.01 1.78h-52.28c-2.93 0-5.3 2.37-5.31 5.3v0 23.15c0 2.92 2.37 5.29 5.3 5.3v0h52.27c2.92-.01 5.3-2.38 5.3-5.31v0V6.92c-.01-2.93-2.38-5.31-5.31-5.31V1.6Zm-61.84 11.19v18.45c-3.3-.01-6.35-1.76-8-4.62 -1.65-2.86-1.65-6.38 0-9.23 1.64-2.86 4.69-4.62 7.99-4.62v0Zm71.4 0c5.09 0 9.22 4.13 9.22 9.22v0c-.01 5.09-4.14 9.22-9.23 9.22v0V12.81Zm-49.4-.9c5.21-.01 9.44 4.22 9.44 9.44 0 5.21-4.23 9.44-9.45 9.44 -2.51 0-4.91-1-6.68-2.77 -1.78-1.78-2.77-4.18-2.77-6.68 0-5.22 4.22-9.45 9.44-9.45Zm27.39 0c5.21-.01 9.44 4.22 9.44 9.44 0 5.21-4.23 9.44-9.45 9.44 -2.51 0-4.91-1-6.68-2.77 -1.78-1.78-2.77-4.18-2.77-6.68 0-5.22 4.22-9.45 9.44-9.45Zm-27.4 1.78c-2.04-.01-3.98.8-5.42 2.24 -1.44 1.43-2.25 3.38-2.25 5.41 0 4.22 3.42 7.65 7.65 7.65 4.22 0 7.65-3.43 7.65-7.66s-3.43-7.66-7.66-7.66Zm27.39 0c-2.04-.01-3.98.8-5.42 2.24 -1.44 1.43-2.25 3.38-2.25 5.41 0 4.22 3.42 7.65 7.65 7.65 4.22 0 7.65-3.43 7.65-7.66s-3.43-7.66-7.66-7.66Zm-29.85 1.73c2.39-1 5.15-.45 6.98 1.38 1.83 1.83 2.38 4.58 1.38 6.98 -1 2.39-3.33 3.95-5.93 3.95 -1.7 0-3.33-.68-4.54-1.88 -1.21-1.21-1.88-2.84-1.88-4.54 0-2.6 1.56-4.93 3.95-5.93Zm29.84-.49c3.53 0 6.4 2.86 6.4 6.4 0 3.53-2.87 6.4-6.41 6.4 -1.7 0-3.33-.68-4.54-1.88 -1.21-1.21-1.88-2.84-1.88-4.54 0-3.54 2.86-6.41 6.4-6.41Zm15.78 6.78l0 2.97h-2.98v-2.98h2.97Zm0-4.29l0 2.97h-2.98v-2.98h2.97Z"/></svg>