<svg viewBox="0 0 256 256" xmlns="http://www.w3.org/2000/svg"><path fill="#4700A3" d="M127.2 0c34.08-.22 66.84 13.18 91.02 37.2 24.17 24.02 37.77 56.7 37.77 90.79 0 70.58-57.15 127.85-127.74 127.99C57.66 256.12.28 199.1-.02 128.51 -.32 57.92 56.59.42 127.17-.03Zm0 14.24C64.4 14.32 13.52 65.2 13.44 127.99c-.22 30.12 11.61 59.08 32.85 80.44 21.24 21.36 50.13 33.35 80.26 33.31 62.79-.09 113.67-50.97 113.75-113.76 0-62.41-50.73-113.12-113.12-113.76Zm39.67 77.27c-.58 1.42-.86 2.94-.81 4.47 0 3.81 1.51 7.48 4.21 10.18 2.7 2.7 6.36 4.21 10.18 4.21 1.78.16 3.58-.05 5.27-.64 4.56 7.41 7 15.93 7.04 24.64 0 49.43-39.05 54.08-64.96 54.08 -66.37 0-75.98-25.57-76.16-32.29l-.01-.2h-3.2c-10.99-.09-19.89-8.88-20.16-19.82l-.01-.35v-4.01h9.12c6.56-.2 12.84 2.71 16.95 7.84 3.66-5.12 9.48-8.24 15.75-8.47l.4-.02h9.27v5.27c.12 5.1-1.8 10.04-5.35 13.71 -3.45 3.56-8.15 5.64-13.1 5.79l-.44 0h-1.28c.63 3.2 10.39 4.48 12.96 4.48 6.75.41 13.13-3.15 16.31-9.13 2.99-5.81 4.11-12.41 3.2-18.88 0-25.93 7.03-46.73 51.35-46.73 8.2-.66 16.4 1.36 23.35 5.75Zm39.04-21.45l-12.48 20.16 -3.85 7.83c-.49.95-1.14 1.82-1.93 2.56 -2.35 1.98-5.51 2.69-8.48 1.91 -1.49-.11-2.87-.8-3.84-1.92 -3.2-3.49-3.2-8.84 0-12.33 .56-.57 1.13-.64 1.59-1.09l.16-.2 28.79-16.96Z"/></svg>