<svg viewBox="0 0 256 213" xmlns="http://www.w3.org/2000/svg" xmlns:xlink="http://www.w3.org/1999/xlink"><defs><mask id="a"><use fill="#FFF" xlink:href="#B"/></mask><linearGradient id="b" x1="12.932%" x2="71.216%" y1="9.052%" y2="81.625%"><stop offset="0%" stop-color="#67337A"/><stop offset="100%" stop-color="#723986"/></linearGradient><mask id="c"><use fill="#FFF" xlink:href="#B"/></mask><linearGradient id="d" x1="91.997%" x2="29.654%" y1="52.448%" y2="52.448%"><stop offset="0%" stop-color="#623274" stop-opacity="0"/><stop offset="100%" stop-color="#542C65"/></linearGradient><mask id="e"><use fill="#FFF" xlink:href="#B"/></mask><linearGradient id="f" x1="91.997%" x2="29.654%" y1="52.448%" y2="52.448%" xlink:href="#d"/><mask id="g"><use fill="#FFF" xlink:href="#B"/></mask><linearGradient id="h" x1="91.675%" x2="56.225%" y1="5.599%" y2="79.874%"><stop offset="0%" stop-color="#8A519F"/><stop offset="100%" stop-color="#8A53A0"/></linearGradient><mask id="i"><use fill="#FFF" xlink:href="#B"/></mask><linearGradient id="j" x1="63.479%" x2="0%" y1="48.225%" y2="48.225%"><stop offset="0%" stop-color="#8A529F" stop-opacity=".1"/><stop offset="100%" stop-color="#542C65"/></linearGradient><mask id="k"><use fill="#FFF" xlink:href="#B"/></mask><linearGradient id="l" x1="24.699%" x2="80.097%" y1="31.401%" y2="66.964%"><stop offset="0%" stop-color="#5C2E6D"/><stop offset="100%" stop-color="#6D377B"/></linearGradient><mask id="m"><use fill="#FFF" xlink:href="#B"/></mask><linearGradient id="n" x1="12.346%" x2="81.65%" y1="34.458%" y2="53.652%"><stop offset="0%" stop-color="#612E74"/><stop offset="100%" stop-color="#7F4395"/></linearGradient><mask id="o"><use fill="#FFF" xlink:href="#B"/></mask><linearGradient id="p" x1="100%" x2="100%" y1="0%" y2="69.36%"><stop offset="0%" stop-color="#582C6A"/><stop offset="100%" stop-color="#743983"/></linearGradient><mask id="q"><use fill="#FFF" xlink:href="#B"/></mask><linearGradient id="r" x1="50%" x2="19.624%" y1="74.788%" y2="71.707%" xlink:href="#d"/><mask id="s"><use fill="#FFF" xlink:href="#B"/></mask><linearGradient id="t" x1="0%" x2="0%" y1="0%" y2="100%"><stop offset="0%" stop-color="#723A85"/><stop offset="100%" stop-color="#8C519C"/></linearGradient><mask id="u"><use fill="#FFF" xlink:href="#B"/></mask><linearGradient id="v" x1="-.001%" x2="62.291%" y1="35.927%" y2="46.718%"><stop offset="0%" stop-color="#66397A"/><stop offset="100%" stop-color="#9F69AB"/></linearGradient><mask id="w"><use fill="#FFF" xlink:href="#B"/></mask><linearGradient id="x" x1="72%" x2="0%" y1="48.225%" y2="48.225%" xlink:href="#d"/><mask id="y"><use fill="#FFF" xlink:href="#B"/></mask><linearGradient id="z" x1="50%" x2="50%" y1="21.039%" y2="78.192%"><stop offset="0%" stop-color="#5D306E"/><stop offset="100%" stop-color="#9F6AAA"/></linearGradient><mask id="A"><use fill="#FFF" xlink:href="#B"/></mask><path id="B" d="M0 .32h256v210.93H-.01Z"/></defs><path mask="url(#a)" fill="#5B2E6E" d="M0 139.99L0 .32 64.1 70.4 128.47.31l63.52 69.72 64-69.73 0 139.98 -63.29 70.95 -64.25-70L64.2 211.22Z"/><path mask="url(#c)" fill="url(#b)" d="M32.12 105.79c6.65-7.29 28.06-30.73 32.11-35.16C56.09 61.72 13.26 14.85-.02.31c.8 2.66 28.86 94.77 32.12 105.46Z"/><path mask="url(#e)" fill="url(#d)" d="M16.91-3l15.03 31.26 .58 85.21 -25.89 0Z" transform="scale(1) rotate(-17 19.5881 55.2391)"/><path mask="url(#g)" fill="url(#f)" d="M29.72 60.73L60.4 70.81l-2.83 40.89 -20.41 2.71Z" transform="rotate(-125 45.0642 87.5803)"/><path mask="url(#i)" fill="url(#h)" d="M191.76 70.31L256 140.3 256 .31Z"/><path mask="url(#k)" fill="url(#j)" d="M223.55 50.9l19.75-.5 -5.48 75.97 -20.01 19.31Z" transform="rotate(-46 230.577 98.0561)"/><path mask="url(#m)" fill="url(#l)" d="M192.72 211.26L256 140.3l-87.26-95.89Z"/><path mask="url(#o)" fill="url(#n)" d="M128.48 141.27l64.24 69.99 -23.98-166.84Z"/><path mask="url(#q)" fill="url(#p)" d="M64.24 211.26l64.24-70 0-140.95Z"/><path mask="url(#s)" fill="url(#r)" d="M64.24 211.26l25.12-27.38 39.11-142.4 0-41.18Z"/><path mask="url(#u)" fill="url(#t)" d="M128.48 141.27l40.27-96.85L128.47.31Z"/><path mask="url(#w)" fill="url(#v)" d="M31.64 105.66c2.19 7.2 32.6 105.6 32.6 105.6L128.47.32 31.62 105.65Z"/><path mask="url(#y)" fill="url(#x)" d="M41.81 102.19l28.95-16.95 -.25 110.83 -25.12 14.74Z" transform="scale(1) rotate(-17 56.2895 148.038)"/><path mask="url(#A)" fill="url(#z)" d="M0 140.77l64.24 70.49L0 .32Z"/></svg>