<svg viewBox="0 0 256 295" xmlns="http://www.w3.org/2000/svg"><path fill="#EB324B" d="M125.33 293.51c-3.12-1.66-121.48-70.04-122.64-70.85 -2.47-1.73-2.3 3.7-2.3-75.24C.38 68.48.22 73.91 2.68 72.18c.6-.43 28.66-16.69 62.35-36.14C107.29 11.64 126.72.63 127.72.51c1.81-.22-4.44-3.72 67.32 37.72 42.38 24.46 59.22 34.39 59.85 35.25l.86 1.2v72.71 72.71l-.87 1.2c-.63.86-17.47 10.78-59.86 35.25 -67.07 38.71-65.53 37.84-66.92 37.85 -.58 0-1.85-.43-2.83-.95v0Z"/><path fill="#333943" d="M126.39 275.23c-.45-.19-24.96-14.31-54.47-31.37 -34.36-19.86-53.97-31.42-54.49-32.12 -.82-1.09-.82-1.33-.82-64.34 0-63.05 0-63.25.81-64.34 .52-.71 20.06-12.22 54.48-32.12 29.51-17.06 54.11-31.2 54.66-31.42 .54-.22 1.55-.3 2.23-.17 .96.18 104.48 59.6 108.8 62.45 .58.38 1.24 1.18 1.47 1.78 .27.72.45 22.02.54 64.04l.12 62.96 -.84 1.13c-.56.74-12.01 7.57-33.66 20.05 -81.05 46.73-75.87 43.8-77.41 43.74 -.38-.02-1.04-.18-1.48-.37v0Zm2.76-69.65c1.1-2.15 5.3-7.49 8.67-11.05 1.85-1.97 8.96-8.56 15.79-14.66 15.76-14.08 20.85-19.39 26.14-27.25 6.77-10.08 10-22.11 8.49-31.65 -1.65-10.46-8.02-19.17-17.42-23.82 -4.06-2.01-6.99-2.7-12.42-2.92 -4-.17-5.42-.06-8.42.65 -8.68 2.05-16.21 7.75-20.31 15.35 -.69 1.26-1.4 2.3-1.58 2.3 -.19 0-.79-.89-1.34-1.97 -1.43-2.82-5.45-7.67-7.92-9.55 -6.93-5.28-12.89-7.19-21.31-6.82 -5.45.23-8.75 1.08-13.12 3.36 -7.47 3.9-13.58 11.51-15.85 19.77 -.9 3.23-1 13.33-.17 17.02 1.92 8.59 6.35 17.04 13.25 25.23 3.87 4.6 11.21 11.69 22.24 21.48 13.55 12.02 18.43 17.1 22.4 23.31 .8 1.25 1.62 2.27 1.83 2.27 .2 0 .64-.51.96-1.14v0Z"/><path fill="#252A32" d="M151.6 228.56c-12.33-11.16-22.47-20.56-22.54-20.88 -.15-.66 1.67-3.69 4.06-6.78 3.65-4.72 8.41-9.42 20.1-19.87 19.5-17.43 24.87-23.38 30.36-33.63 3.73-6.97 5.5-13.99 5.49-21.79 -.01-5.92-.77-9.27-3.28-14.44 -.64-1.31-1.1-2.49-1.04-2.64 .11-.27 52.38 48.13 53.69 49.71 .65.78.7 2.65.69 26.34 -.01 23.55-.06 25.58-.71 26.62 -.52.82-9.06 5.95-31.95 19.18 -17.19 9.92-31.54 18.13-31.89 18.22 -.41.11-8.53-6.97-23.04-20.11v0Z"/></svg>