<svg viewBox="0 0 256 256" xmlns="http://www.w3.org/2000/svg"><path fill="#FFF" d="M128 12.8a115.2 115.2 0 1 0 0 230.4 115.2 115.2 0 1 0 0-230.4Z"/><g fill="#3C790A"><path d="M128 256c70.69 0 128-57.31 128-128C256 57.3 198.69 0 128 0 57.3 0 0 57.3 0 128c0 70.69 57.3 128 128 128v0Zm0-25.6c-56.56 0-102.4-45.85-102.4-102.4C25.6 71.44 71.44 25.6 128 25.6c56.55 0 102.4 45.84 102.4 102.4 0 56.55-45.85 102.4-102.4 102.4v0Z"/><path d="M97.28 97.28c0-30.72 61.44-38.4 58.88-5.12 0 23.04-40.96 33.28-40.96 58.88v17.92h25.6v-10.24c0-23.04 43.52-30.72 43.52-69.12 -5.12-56.32-115.2-56.32-115.2 7.68h28.16Zm17.92 81.92h25.6v25.6h-25.6v-25.6Z"/></g></svg>