<svg viewBox="0 0 256 192" xmlns="http://www.w3.org/2000/svg"><path fill-rule="evenodd" d="M198.75 31.3C181.26 12.06 156.04-.01 127.99-.01c-28.05 0-53.27 12.07-70.76 31.3h141.5v0ZM57.24 159.9c17.48 19.23 42.7 31.3 70.75 31.3 28.04 0 53.26-12.08 70.75-31.31H57.23ZM42.45 39.42C18.99 39.42-.02 58.43-.02 81.88v27.41c0 23.45 19.01 42.46 42.46 42.46h171.07c23.45 0 42.46-19.02 42.46-42.47V81.86c0-23.46-19.02-42.47-42.47-42.47H42.42Zm209.16 41.97c0-20.78-16.84-37.62-37.62-37.62h-42.47c-20.78 0-37.62 16.83-37.62 37.61v28.51c0 20.77-16.84 37.61-37.62 37.61h117.68c20.77 0 37.61-16.84 37.61-37.62V81.36Zm-147.54 2.54v40.15h12.13V83.92h-12.14Zm-1.22-12.68c0 3.98 3.23 7.21 7.21 7.21s7.21-3.24 7.21-7.22c0-3.99-3.24-7.22-7.22-7.22 -3.99 0-7.22 3.23-7.22 7.21v0Zm-80.93-5.77l15.65 58.6h10.07L59.4 83.55l11.76 40.52h10.43l15.4-58.61H85.22l-8.98 38.58 -11.17-38.59h-10.8L43.1 103.06l-8.5-37.62H21.86Zm131.27 0v58.6h12.86v-22.94h29.11v-11.9h-29.12v-11.9h31.05v-11.9h-43.93Zm52.65 18.44v40.15h12.13V83.91h-12.14v0Zm-1.1-12.8c0 3.98 3.23 7.21 7.21 7.21s7.21-3.24 7.21-7.22c0-3.99-3.24-7.22-7.22-7.22 -3.99 0-7.22 3.23-7.22 7.21v0Z"/></svg>