<svg viewBox="0 0 512 202" xmlns="http://www.w3.org/2000/svg"><path d="M0 .23s20.29-2.56 33.82 9.42c8.35 7.39 10.78 19.17 10.78 19.17l27.63 107.57 22.98-88.05c2.23-9.36 6.26-20.94 12.64-28.76 8.14-9.97 24.66-10.6 26.43-10.6 1.76 0 18.28.62 26.41 10.59 6.37 7.82 10.41 19.38 12.65 28.75l22.98 88.04 27.62-107.58c0-.001 2.44-11.79 10.79-19.18C248.26-2.39 268.54.17 268.54.17l-52.92 201.04s-17.45 1.26-26.19-3.21c-11.48-5.88-16.93-10.41-23.88-37.78 -3.52-14-6.99-28.01-10.41-42.02l-1.31-5.28c-3.67-14.96-7.33-29.86-9.91-40.23l-1.26-5.04c-1.16-4.57-1.96-7.64-2.25-8.57 -.79-2.53-1.72-8.55-6.22-8.55 -4.4 0-5.42 6.02-6.22 8.54 -.3.92-1.1 3.98-2.25 8.56l-1.26 5.03c-2.68 10.77-5.34 21.54-7.98 32.33l-1.3 5.25c-4.07 16.65-8.18 33.3-12.34 49.94 -6.95 27.35-12.41 31.89-23.88 37.76 -8.74 4.47-26.19 3.2-26.19 3.2L-.15.09v0Zm318.93 33.34v7.26h.01v121.36c-.1 24.9-2.51 30.43-12.98 36.16 -8.15 4.45-20.6 2.76-20.6 2.76V65.16c0-6.83 2.11-11.3 9.91-15.31 4.65-2.41 8.99-4.24 13.51-6.96 6.16-3.7 9.29-8.09 9.98-9.13l.14-.22ZM335.73.89c0-.001 27.33-4.85 40.87 7.97 7.61 7.2 16.03 19.49 17.93 22.33l.36.53 .04.06 23.83 35.72c1.14 1.85 2.66 3.87 5.07 3.87 2.4 0 3.92-2.02 5.08-3.88l23.82-35.73 .04-.07 .36-.54c1.9-2.84 10.32-15.13 17.94-22.35C484.6-4.01 511.93.82 511.93.82L447.15 101l64.59 99.85s-27.97 3.74-41.51-9.08c-8.67-8.2-17.54-21.53-17.54-21.53l-23.84-35.72c-1.15-1.87-2.67-3.89-5.08-3.89 -2.42 0-3.93 2.01-5.09 3.88l-23.83 35.71s-8.39 13.33-17.04 21.52c-13.54 12.81-42.01 9.07-42.01 9.07l64.59-99.86L335.62.77V.76Zm-16.88-.9h.08c0 13.34-1.26 21.27-9.32 27.43 -3.75 2.87-7.87 5.21-12.26 6.94 -4.46 1.73-8.53 4.31-12.01 7.58 0-24.31 3.55-33.12 13.09-38.33C304.36.37 314.1-.001 317.6-.04h1.21V-.05Z"/></svg>