<svg viewBox="0 0 256 376" xmlns="http://www.w3.org/2000/svg" xmlns:xlink="http://www.w3.org/1999/xlink"><defs><path d="M142.61 241.45l54.07-26.4c1.95-.95 4.25.47 4.25 2.63 0 1.14-.55 2.16-1.56 2.7l-57.8 32.13" id="b"/><path d="M138.96 236.66c-.07 1.08 1.08 9.78 1.08 9.78l6.14.27c4.18.2 7.83-3.99 8.1-9.39 .27-5.41-2.98-9.93-7.16-10.13l-6.15-.28s-1.96 8.03-2.03 9.72Z" id="a"/></defs><path fill="#FFF" d="M242.8 269.47c-12.09 15.79-43.62 10.32-43.62 10.32l-.28-106.61 -.07-21.54s17.95.47 31.59 6.14c6.54 2.7 12.15 6.61 14.24 12.28 7.29 19.51 8.03 86.41-1.9 99.38Z"/><path fill="#371A45" fill-opacity=".35" d="M250.16 214.51c.4 23.35-1.76 47.66-7.36 54.95 -12.09 15.79-43.62 10.32-43.62 10.32l-.34-128.15 .94.06 .27 99.92s31.52 5.46 43.61-10.33c3.3-4.33 5.4-14.45 6.48-26.81Z"/><path fill="#371A45" d="M198.76 154.92l.17-6.53 .57.02 .87.04 .66.03c.41.02.83.05 1.26.08l1.33.1c.9.07 1.85.16 2.83.26 5.62.59 11.25 1.54 16.54 2.94 2.06.54 4.02 1.14 5.88 1.79l.99.36c9.06 3.36 15.34 8.14 17.82 14.82 .16.44.32.91.48 1.4l.23.75c.23.76.46 1.58.68 2.45l.21.87 .21.9c.03.15.06.3.1.46l.2.95c.03.16.06.32.1.48l.19.99 .19 1.01 .18 1.04 .18 1.07c.02.18.05.36.08.54l.17 1.1c.02.18.05.37.08.56l.16 1.14 .15 1.16 .15 1.18 .14 1.2 .14 1.22 .13 1.24 .13 1.26 .12 1.28 .11 1.29 .11 1.31 .1 1.33 .1 1.34 .09 1.36 .08 1.37 .08 1.38 .07 1.39 .1 2.11 .08 2.14 .07 2.16 .04 1.45 .03 1.45 .02 1.46 .02 1.46 .01 1.47 0 2.21 -.01 2.22 -.03 2.11 -.03 1.39 -.05 2.07 -.04 1.36 -.05 1.35 -.06 1.33 -.06 1.32 -.07 1.3 -.07 1.29 -.08 1.27 -.09 1.26 -.14 1.86 -.1 1.22 -.11 1.2 -.11 1.18 -.12 1.17 -.13 1.15 -.13 1.13 -.14 1.11 -.14 1.09 -.15 1.07 -.16 1.05c-.03.17-.06.34-.08.52l-.16 1.02 -.17 1 -.18.98 -.18.96c-.04.15-.07.31-.1.47l-.19.93 -.2.91c-.04.15-.07.29-.1.44l-.21.87c-.07.28-.14.57-.21.85l-.22.83 -.23.81c-.12.39-.23.79-.35 1.17l-.24.75c-.16.49-.33.96-.49 1.42l-.26.67 -.26.65c-.75 1.8-1.57 3.3-2.46 4.46 -4.75 6.2-12.2 9.85-21.51 11.5 -7.07 1.25-14.53 1.26-21.52.54l-.67-.08 -1.19-.15 -.52-.07 -.87-.13 -.51-.09 1.11-6.43 .66.1 .53.07 .78.1c.13.01.27.03.41.04l.88.09c6.43.66 13.31.65 19.69-.48 7.85-1.4 13.86-4.35 17.47-9.06 8.55-11.1 9.02-76.07 1.48-96.33 -2.12-5.7-9.37-10.08-20.26-12.95 -4.94-1.31-10.26-2.2-15.58-2.77l-.7-.08 -1.35-.13c-.22-.02-.44-.04-.66-.06l-1.26-.1 -1.2-.09 -.91-.06 -1-.05Z"/><path fill="#FFF" d="M247.86 224.3l-21.47 1.62c-1.92.14-3.49 1.55-3.85 3.44 -1.29 6.95-3.31 23.08 3.44 28.42 6.04 4.3 14.21 4.05 19.98-.61 5.94-5.07 6.54-20.87 6.41-28.7 0-2.44-2.1-4.33-4.53-4.19v0Z"/><path fill="#371A45" fill-opacity=".35" d="M222.55 229.36c-1.29 6.95-3.31 23.08 3.44 28.42 6.04 4.3 14.21 4.05 19.98-.61 3.64-3.11 5.26-10.27 6-17.15 -.75 3.03-2.26 5.82-4.39 8.1 -10.81 10.53-18.91-1.9-18.91-1.9s-1.42 3.03-2.5 3.17c-4.66.74-3.72-13.91-3.04-21.47 -.28.4-.48.87-.61 1.41v0Z"/><g fill="#371A45"><path d="M247.68 221.04l-21.55 1.62c-3.38.26-6.17 2.75-6.81 6.08 -.19 1.02-.37 2.08-.53 3.17l-.11.7 -.15 1.07 -.14 1.06 -.12 1.04c-.02.17-.04.34-.06.51l-.1 1.02c-.02.16-.03.33-.05.5l-.08 1c-.02.16-.03.33-.04.49l-.06.98c-.41 9.1 1.19 16.19 5.99 19.98l.13.09c7.23 5.15 17.01 4.85 23.92-.73 4.02-3.44 6.19-9.91 7.11-18.13l.1-1.02c.01-.18.03-.35.04-.52l.08-1.04c.05-.7.1-1.41.13-2.13l.05-1.09 .04-1.11c0-.19.01-.37.01-.56l.02-1.13c0-.38.01-.76.01-1.14l0-1.15c0-.39-.01-.78-.01-1.16l-.02-1.18c0-4.26-3.68-7.63-7.97-7.39Zm.42 6.51c.53-.03 1.01.41 1.01.93l.01 1.07 0 1.06c0 .17-.01.35-.01.52l-.02 1.04 -.03 1.03 -.04 1.02 -.05 1.01 -.06 1c-.02.33-.04.66-.07.98l-.08.97c-.04.48-.09.95-.13 1.42l-.1.93c-.06.46-.11.91-.17 1.36l-.13.88c-.05.29-.09.57-.14.86l-.15.83c-.87 4.83-2.27 8.49-4.21 10.15l-.27.2c-4.47 3.42-10.71 3.6-15.44.41l-.21-.15 .05.04c-2.72-2.15-3.81-7.76-3.47-15.06l.04-.91c0-.16.01-.31.02-.46l.06-.93 .08-.95 .09-.96 .11-.97 .12-.99c.02-.17.04-.34.06-.5l.09-.68c.14-1.01.31-1.99.48-2.92 .08-.42.44-.75.88-.79l21.46-1.63Z"/><path d="M230.65 233.55c.27 2.7.27 5.26.4 7.83 .1 2.48.47 4.94 1.08 7.35 .6 2.36 1.62 4.52 3.03 6.14 1.41 1.62 3.37 2.7 5.53 3.17 1.21.27 1.96 1.48 1.68 2.7 -.28 1.21-1.49 1.96-2.71 1.68l-.14-.07c-1.45-.47-2.83-1.1-4.12-1.9 -1.29-.82-2.42-1.88-3.31-3.11 -1.71-2.34-2.85-5.05-3.31-7.9 -.55-2.71-.68-5.41-.68-8.04 0-2.64.2-5.27.13-7.77 0-.68.47-1.22 1.14-1.22 .67-.07 1.14.4 1.21 1.08v0Zm4.52-64.28c-4 .29-7.97.85-11.89 1.68 -3.94.71-7.81 1.68-11.62 2.9h-.07c-1.22.33-2.44-.34-2.84-1.49 -.34-1.22.33-2.44 1.48-2.84l.2-.07c2.02-.41 4.05-.75 6.14-1.02l6.14-.68c2.02-.21 4.11-.28 6.14-.34l6.14-.07c.54 0 .94.47.94 1.01 .13.47-.28.87-.82.87v0Z"/><path fill="#371A45" fill-opacity=".35" d="M230.51 157.73c-9.43 7.14-20.17 12.37-31.6 15.39l-.07-21.54c0 .06 18.02.54 31.66 6.14v0Z"/></g><path fill="#FFF" d="M156.99 348.93c-9.19 21.26-48.48 17.75-58.4 8.97 -10.2-9.05 8.23-20.33 8.23-20.33 -8.17-13.91-8.44-40.51-7.57-57.59 .47-9.39 1.28-15.87 1.28-15.87l57.92-31.4c-.07 11.81-2.03 21.87-3.79 29.97 -3.79 17.14-3.52 30.38-2.03 41.18 2.83 20.11 10.05 31.79 4.32 45.03v0Z"/><path fill="#371A45" fill-opacity=".35" d="M156.99 348.93c-9.19 21.26-48.48 17.75-58.4 8.97 -3.18-2.84-3.58-5.95-2.57-8.78 13.43 7.89 47.52 13.9 54.21-6.22 3.24-9.86-3.11-16.68-6.55-29.98 -1.5-5.6-5.88-9.96-11.48-11.41 -11.89-3.04-26.54-9.52-32.55-20.8l-.34-.75c.47-9.39 1.28-15.87 1.28-15.87L152.44 236l6.07-3.31c-.07 11.81-2.03 21.87-3.79 29.97l-.75 3.71 -.61 3.57 -.28 1.75 -.68 5.06 -.14 1.62 -.28 3.03c-.21 3.1-.28 6.07-.28 8.84v.87l.06 1.82 .13 2.43 .13 1.68 .06 1.08 .06.94 .06.87 .47 3.71c2.7 20.25 9.92 31.93 4.18 45.16v0Zm-3.11-82.44l-.61 3.57 .6-3.58Z"/><g fill="#371A45"><path d="M155.08 232.86l6.52.03c-.06 9.33-1.1 17.33-3.23 27.68l-.42 1.96 -.22 1c-4.46 20.32-3.78 34.5.51 52.67l1.89 7.77 .25 1.07 .23 1.01 .21.96c.03.15.06.31.1.46l.18.89 .17.86 .15.84c.02.13.04.27.07.41 .85 4.84 1.02 8.88.38 12.83 -.38 2.35-1.04 4.63-2.02 6.91 -4.76 11.01-16.67 16.87-31.74 17.72 -12.7.71-25.98-2.42-31.84-7.61 -2.1-1.88-3.42-4.02-3.92-6.36 -1.08-5.06 1.6-9.85 6.44-14.4 .96-.91 1.96-1.76 2.97-2.54l.65-.51 -.22-.46c-3.46-7.44-5.45-17.49-6.28-29.62l-.06-.78c-.69-10.76-.42-22.23.43-33.31l.12-1.52 .12-1.46 .12-1.39 .12-1.32 .18-1.74 .14-1.27 6.47.8 -.17 1.5 -.08.72 -.13 1.24 -.13 1.31 -.13 1.38 -.12 1.44c-.02.24-.04.49-.06.74 -.84 10.8-1.1 21.98-.44 32.38l.1 1.47c.12 1.7.27 3.36.44 4.97l.15 1.36c1.12 9.47 3.15 17.14 6.16 22.45l.21.37 1.62 2.75 -2.82 1.72 -.32.2 -.44.29 -.48.33c-.09.05-.17.11-.26.17 -1.22.87-2.44 1.86-3.56 2.91 -3.34 3.13-5 6.1-4.54 8.28 .19.91.77 1.85 1.86 2.83 4.34 3.84 15.99 6.58 27.13 5.96 12.85-.72 22.51-5.48 26.1-13.79 .76-1.78 1.27-3.54 1.56-5.36 .5-3.16.36-6.5-.38-10.68l-.15-.77 -.16-.8 -.17-.83 -.19-.87 -.21-.92 -.23-.97 -.53-2.18 -1.42-5.78c-4.61-19.18-5.48-34.29-.96-55.48l.41-1.94 .39-1.9c1.99-9.66 2.98-17.12 3.09-25.62l0-.83Z"/><path d="M100.94 309.47c5.55 3.12 12.97 5.22 21.77 6.4 9.76 1.3 20.2 1.39 29.87.75l1.02-.08 .96-.08 .89-.08 1.1-.11 .48-.05 .54 4.85 -1.01.1 -1.16.1 -.97.07 -1.58.11c-9.97.65-20.72.56-30.85-.79 -9.1-1.22-16.88-3.39-22.98-6.69l-.55-.31 2.39-4.27Z"/></g><path fill="#FFF" d="M220.25 233.48c-.21 8.64-1.29 16-3.25 21.67l-.21.54c-5 14.44-15.83 26.12-29.85 32.2 -13.21 5.86-27.65 8.41-42.07 7.42 -10.81-.75-36.73-6.96-45.31-23.03 -5.74-10.81-4.39-41.8 2.63-88.79 2.76-18.64 6.48-39.84 10.93-63.27l83.91 4.52c6.07 15.86 10.86 31.25 14.51 45.63 5.65 20.54 8.56 41.74 8.64 63.05v0Z"/><g fill="#371A45" fill-opacity=".35"><path d="M216.81 255.69c-5 14.44-15.82 26.12-29.85 32.2 -5.41 2.43-21.27 8.84-42.07 7.42 -10.81-.75-36.73-6.96-45.31-23.03 -2.71-5-3.79-14.32-3.58-27.62 .2 7.89 1.35 13.57 3.57 16.94 8.57 13.16 34.56 18.29 45.3 18.9 20.79 1.21 36.66-4.12 42.06-6.08 13.18-4.32 23.98-13.9 29.84-26.47 2.16-5.07 3.37-11.75 3.44-19.79 .13 11.27-1.02 20.59-3.45 27.47v0Z"/><path d="M98.32 212.89c-1.36 12.28-2.17 22.95-2.3 31.79 -.21-8.24.6-18.98 2.29-31.8Z"/></g><path fill="#371A45" d="M200.21 123.55c21.17 55.45 28.55 108.06 19.68 133.14 -5.25 15.11-16.49 27.39-31.04 33.93l-.55.24c-11.86 5.33-26 8.75-42.76 7.76l-1.02-.07 -10.41-1.65 1.01-6.45 10.11 1.59 .69.04c15.26.9 28.22-2.16 39.1-6.96l.59-.27c13.17-5.76 23.35-16.77 28.07-30.38 8.15-23.06 1.19-73.51-19.01-127.04l-.62-1.63 6.09-2.33Zm-90.25-3.98l6.41 1.22 -.97 5.08c-.48 2.52-.94 5.01-1.4 7.47l-.9 4.88c-.74 4.03-1.44 7.97-2.12 11.83l-.8 4.58c-.27 1.51-.52 3.01-.78 4.5l-.75 4.42 -.72 4.33c-1.06 6.44-2.01 12.6-2.88 18.47l-.57 3.87c-6.31 44.04-7.08 71.21-2.13 80.48 .99 1.87 2.36 3.71 4.12 5.6 6.1 6.32 16.12 11.08 27.25 13.78l.64.15 -1.49 6.35c-12.5-2.94-23.86-8.27-31.15-15.81 -2.17-2.33-3.88-4.62-5.15-7.04 -6.77-12.68-4.73-49.28 5.44-110.43l.75-4.52 .78-4.61c.8-4.65 1.64-9.44 2.53-14.35l.9-4.96c.3-1.67.61-3.35.93-5.05l.96-5.14c.32-1.73.65-3.47.98-5.23Z"/><path fill="#FFF" d="M153.82 280.27s-8.78 43.95 9.45 65.28c0 0-18.37 11.27-8.24 20.32 9.92 8.77 49.21 12.28 58.39-8.98 8.77-20.39-13.1-37.14-2.37-86.15 1.75-8.11 3.71-18.17 3.78-29.98l-61.04 39.49v0Z"/><path fill="#371A45" fill-opacity=".35" d="M211.14 270.82c-10.74 49.01 11.13 65.82 2.36 86.14 -9.19 21.26-48.48 17.75-58.4 8.97 -2.64-2.37-3.38-4.87-2.98-7.3 13.36 7.02 46.78 8.23 55.15-11.14 3.03-7.03-15.26-20.66-15.4-35.85 .24-12.31 2.69-24.48 7.22-35.92 1.39-3.83.89-8.1-1.36-11.5 -2.26-3.4-5.99-5.53-10.06-5.73h-.21c-4.93-.28-10.27-.95-15.94-2.17 0 0-9.25-11.75 1.08-18.3 0 0 31.39 4.32 47.66-4.53 -.21 8.64-1.29 16-3.25 21.67l-3.18.87c-.82 5.4-1.83 10.39-2.77 14.71v0Z"/><g fill="#371A45"><path d="M154.56 280.54c.13 5.67-.14 11.27-.34 16.81 -.14 5.53-.21 11.07.27 16.6 .44 5.46 1.44 10.87 2.97 16.13 1.52 5.15 4.07 9.95 7.49 14.11 .81.94.67 2.36-.28 3.17l-.21.2c-.82.47-1.69 1.14-2.5 1.75 -2.38 1.84-4.49 4-6.28 6.41 -1.01 1.36-1.51 3.03-1.42 4.72 .3 1.59 1.19 3.01 2.49 3.98 1.35 1.14 3.17 2.09 5.06 2.83 1.89.74 3.84 1.35 5.87 1.82 8.18 1.86 16.67 1.98 24.91.33 6.04-.97 11.58-3.95 15.73-8.44 1.25-1.5 2.3-3.15 3.1-4.93 1.55-3.71 2.17-7.75 1.82-11.75 -.28-4.12-1.29-8.24-2.3-12.43 -1.02-4.19-2.1-8.51-2.98-12.83 -2.71-13.1-2.98-26.58-.82-39.77 .67-4.39 1.62-8.78 2.49-12.97 .87-4.26 1.35-8.51 1.95-12.7 .6-4.26 1.14-8.44 2.43-12.77 .13-.41.54-.68.94-.55 .27.06.47.27.54.54 1.07 4.34 1.35 8.85.81 13.3 -.41 4.45-1.42 8.77-2.3 13.03 -2.07 8.34-3.33 16.86-3.79 25.45 -.38 8.53.3 17.08 2.02 25.45 .81 4.18 1.89 8.37 2.9 12.62s2.09 8.57 2.36 13.23c.33 4.59-.34 9.45-2.17 13.84 -1.87 4.42-5.06 8.17-9.12 10.73 -5.95 3.53-12.62 5.65-19.52 6.21 -9.06.76-18.16-.39-26.74-3.38 -2.26-.88-4.38-2.09-6.28-3.58l-.75-.68 -.68-.68c-.41-.55-.88-1.02-1.22-1.63 -1.58-2.41-1.93-5.41-.95-8.11 .4-1.21.94-2.37 1.62-3.45 1.35-2.1 2.97-3.79 4.65-5.41l2.63-2.23 2.83-2.03 -.55 3.37c-3.81-4.59-6.65-9.9-8.38-15.6 -.95-2.77-1.56-5.68-2.17-8.51l-.75-4.33c-1.48-10-1.35-20.17.4-30.12 .54-2.84 1.34-5.61 2.36-8.31 .13-.41.6-.61 1.01-.41 .4.2.6.47.6.74v0Z"/><path d="M153.5 315.05c4.22 1.97 8.85 3.37 13.82 4.25 10.83 1.92 22.51 1.29 33.76-.93 2.02-.4 3.87-.83 5.54-1.25l.98-.26 .68-.19 .85-.25 .3-.1 1.47 4.65 -.26.07 -.72.2 -.7.19 -.78.2c-1.92.5-4.08 1-6.46 1.47 -11.8 2.32-24.05 2.98-35.57.94 -5.08-.9-9.85-2.32-14.27-4.29l-.78-.36 2.06-4.44Z"/><path fill="#371A45" fill-opacity=".35" d="M96.7 241.11c1.6-10.68 2.14-21.49 1.62-32.28 -.26 5.87-.82 11.73-1.69 17.55 -1.13 7.28-1.38 14.66-.75 22 .2-2.5.47-4.93.81-7.3v0Z"/></g><path fill="#FFF" d="M106.76 261.37l54.55 2.83c6.48.33 12.01-4.66 12.35-11.14l1.48-29.04c.26-6.49-4.73-12-11.21-12.36l-54.56-2.84c-3.12-.17-6.18.91-8.49 3 -2.32 2.08-3.71 5.01-3.87 8.13l-1.22 23.02 -.34 6c-.2 6.48 4.79 11.95 11.27 12.35v0Z"/><path fill="#371A45" fill-opacity=".35" d="M106.76 261.37l54.55 2.83c6.48.33 12.01-4.66 12.35-11.14l1.48-29.04c.27-5.68-3.52-10.6-8.85-12.02l-5.27 3.1c-3.85 23.15-11.08 34.43-40.04 33.41 -12.5-.48-20.33-2.77-25.12-5.61l-.34 6c-.27 6.5 4.71 12.02 11.2 12.42v0Z"/><path fill="#371A45" d="M93.91 219.74l-1.49 29.03c-.44 8.27 5.94 15.34 14.22 15.78l54.55 2.83c8.23.43 15.35-5.97 15.78-14.23l1.48-29.04c.43-8.28-5.95-15.35-14.23-15.79l-54.56-2.84c-8.28-.44-15.36 5.94-15.79 14.22Zm15.44-7.72l54.55 2.83c4.68.24 8.29 4.24 8.05 8.92l-1.49 29.03c-.25 4.65-4.29 8.29-8.93 8.04L106.97 258c-4.69-.25-8.3-4.25-8.06-8.93l1.48-29.04c.24-4.69 4.24-8.3 8.92-8.05Z"/><path fill="#FFF" d="M104.6 261.03c.67.2 1.41.27 2.16.33l54.55 2.83c6.47.3 11.99-4.67 12.35-11.14l.67-12.9 .2-4.26 .6-11.89c.33-6.49-4.66-12.02-11.14-12.36l-11.82-.61c5.4 1.28 9.24 6.27 8.97 12.01l-.82 15.66 -.68 13.36c-.34 6.48-5.88 11.47-12.36 11.13l-42.74-2.23v0Z"/><path fill="#371A45" fill-opacity=".35" d="M104.6 261.03c.67.2 1.41.27 2.16.33l54.55 2.83c6.48.33 12.01-4.66 12.35-11.14l.87-17.15c-1.56 2.97-4.19 6.54-8.17 6.75 -2.17.13-4.26-1.56-6.01-3.85l-.68 13.36c-.34 6.48-5.88 11.47-12.36 11.13l-42.74-2.3v0Z"/><path fill="#371A45" d="M164.32 208.35l-11.82-.61 -.93 6.43c3.92.93 6.66 4.57 6.47 8.68l-1.49 29.01c-.25 4.68-4.25 8.29-8.93 8.04l-69.89-3.64 25.97 7.79c.39.11.73.19 1.11.26l.4.06 .45.05 .82.08 .29.01 -.17-.01 54.55 2.83c8.27.43 15.35-5.95 15.78-14.23l1.55-29.03c.43-8.29-5.95-15.36-14.23-15.79Zm-1.79 6.49l-.04-.06 1.48.07c4.68.24 8.29 4.24 8.04 8.92l-1.56 29.02 -.02.25c-.38 4.56-4.32 8.04-8.92 7.8l-1.71-.09 .06-.09c1.84-2.36 3-5.28 3.17-8.49l1.48-29.04c.14-3.02-.62-5.9-2.05-8.35Z"/><use fill="#22A7F0" xlink:href="#a"/><use fill="#371A45" fill-opacity=".35" xlink:href="#a"/><path fill="#371A45" d="M142.75 224.62l-.22 0c-2.02.06-3.75 1.44-4.33 3.39l-.07.25 -.66 2.96 -.27 1.24 -.24 1.16 -.19.98 -.11.63 -.06.36 -.05.32 -.04.29c-.01.04-.01.08-.02.13l-.02.29 -.01.19 0 .31 .02.4 .07.82 .26 2.43 .44 3.87c0 .04 0 .08.01.12 .27 2.29 2.12 4.02 4.39 4.14l4.26.2c5.69.27 10.32-5.09 10.65-11.71 .33-6.62-3.79-12.42-9.48-12.7l-4.44-.21Zm.12 4.89l4.08.19c2.7.13 5.03 3.42 4.83 7.56l-.02.26c-.31 4.01-2.89 6.92-5.53 6.79l-4.06-.2 -.15-1.3 -.34-2.95 -.18-1.57 -.09-.8 -.05-.61 -.01-.06 0-.09 .03-.33 .06-.43 .09-.53 .16-.85 .25-1.28 .47-2.19 .37-1.7Z"/><path fill="#22A7F0" d="M132.82 236.45c.27-5.41 3.84-9.66 8.1-9.46 4.18.2 7.42 4.72 7.15 10.12 -.28 5.4-3.85 9.58-8.11 9.45 -4.19-.21-7.43-4.73-7.16-10.13Z"/><g fill="#371A45"><path d="M141.04 224.55c-5.74-.28-10.34 5.11-10.67 11.77 -.34 6.62 3.78 12.42 9.48 12.69 5.76.18 10.33-5.15 10.66-11.78 .33-6.63-3.79-12.43-9.49-12.7Zm-.24 4.89c2.7.13 5.03 3.41 4.82 7.55 -.21 4.18-2.81 7.21-5.58 7.12 -2.67-.13-5-3.42-4.79-7.56 .2-4.2 2.81-7.26 5.53-7.13Z"/><path d="M114.11 209.06l4.88.23 -1.22 24.98 9.01 6.32 -.58 21.49 -4.89-.14 .5-18.88 -9.08-6.37Z"/></g><path fill="#FFF" d="M222.61 223.49s5.06 4.05 5.26 10.19c.27 7.15-4.26 10.05-4.26 10.05s-19.65 10.05-51.11 3.37c0 0-9.25-11.75 1.08-18.3 -.07 0 33.21 4.52 49.01-5.34Z"/><path fill="#371A45" fill-opacity=".35" d="M227.88 233.69c.27 7.15-4.26 10.05-4.26 10.05s-19.65 10.05-51.11 3.37c0 0-3.04-3.85-3.72-8.38l.27.33c15.53 3.65 31.76 3.07 46.98-1.69 4.99-1.64 8.36-6.3 8.37-11.55v-.55c1.41 1.75 3.3 4.65 3.44 8.37v0Z"/><path fill="#371A45" d="M222.85 219.5l-1.97 1.22c-6.28 3.91-16.46 5.74-28.77 5.86l-1.32 0c-2.2-.01-4.38-.06-6.51-.16l-.8-.05 1.33-.85h-11.24l-.37 2.67 -1.38-2.18c-4.95 3.13-6.91 7.68-6.3 12.77 .39 3.3 1.78 6.41 3.58 9.13l.26.39 .22.31 .18.25 .14.19 .73.92 1.15.24c14.2 3.01 27.16 3.01 38.63.83l.42-.09 .85-.18 .84-.18 .82-.19 .81-.2 .8-.2 .78-.21 .76-.21 1.11-.32 .71-.22 .69-.22 .66-.22 .64-.22 .61-.21 .58-.21 .55-.21 .52-.2 .71-.29c.07-.04.14-.07.22-.1l.41-.19c.06-.03.13-.06.19-.09l.35-.17 .31-.17c.04-.03.09-.06.14-.08l.25-.15c.03-.03.07-.05.1-.07 .33-.22.74-.54 1.21-.98 .7-.66 1.38-1.46 2-2.39 1.7-2.58 2.65-5.77 2.5-9.56 -.11-3.34-1.32-6.38-3.24-9.07 -.69-.97-1.43-1.82-2.17-2.56l-.17-.17 -.32-.3 -.28-.26 -.24-.21 -1.91-1.53Zm-.82 8.05l.27.34c.09.12.19.25.28.38 1.22 1.71 1.96 3.57 2.02 5.5 .09 2.39-.46 4.25-1.43 5.71l-.13.18c-.38.53-.74.91-1 1.13l-.12.09 -.39.17 -.17.07c-.69.29-1.51.62-2.46.96 -2.76.99-6.01 1.89-9.71 2.59l-.72.13c-10 1.8-21.25 1.83-33.59-.58l-.52-.11 -.05-.08c-2.95-4.59-3.59-8.81-.15-11.74l.19-.16 .67.07 .96.09 1.01.09 1.07.09c.18.01.36.03.55.04 4.28.34 8.83.53 13.44.48 11.95-.12 22.13-1.74 29.55-5.42l.29-.15Z"/><path fill="#FFF" d="M205.74 155.57s28.35 41.45 17.41 70.61c-6.96 18.49-37.61 17.35-46.86 3.64l-18.17-32.01 47.59-42.27Z"/><path fill="#371A45" fill-opacity=".35" d="M223.15 226.19c-6.96 18.49-37.54 17.35-46.86 3.64l-18.17-32.01 6.75-6.01 15.59 16.87c6.27 13.63 36.11 22.61 43 4.11 .87-2.37 1.48-4.87 1.89-7.43 .84 7.01.08 14.12-2.23 20.79v0Z"/><g fill="#371A45"><path d="M203.04 157.41l5.38-3.69 .41.61 .49.76 .26.41 .55.88 .58.94 .6 1c.1.17.2.34.31.52 2.38 4.01 4.77 8.46 6.99 13.2 5.2 11.08 8.75 22.08 9.89 32.46 .91 8.32.21 15.98-2.34 22.79 -3.75 9.97-13.67 15.63-25.52 16.01 -10.96.35-21.62-3.93-26.87-11.35l-.24-.34 5.4-3.66c3.76 5.58 12.42 9.1 21.47 8.81 9.42-.31 16.9-4.57 19.61-11.79 2.16-5.77 2.76-12.42 1.95-19.8 -1.05-9.57-4.39-19.92-9.32-30.41 -2.14-4.55-4.42-8.8-6.71-12.65l-.3-.5 -.58-.96 -.56-.9 -.53-.84 -.52-.8 -.55-.82Z"/><path fill="#371A45" fill-opacity=".35" d="M211.68 170.36c-14.12 13.82-32.38 22.65-51.99 25.11 -1.69.2-3.38.4-5.14.47 -18.33 1.25-36.61-3.11-52.4-12.5 2.76-18.64 6.48-39.84 10.93-63.27l83.91 4.52c5.78 14.9 10.67 30.14 14.65 45.63v0Z"/></g><path fill="#FFF" d="M71.11 134.91c9.05 15.92 22.89 28.58 39.56 36.18l4.32 1.89c12.55 4.99 26.08 7.09 39.56 6.14l5.13-.48c31.94-3.97 59.32-24.73 71.76-54.42 8.97-21.64 8.86-45.98-.31-67.53 -9.18-21.56-26.63-38.51-48.45-47.05 -8.78-3.52-17.83-5.54-26.81-6.15l-3.18-.21c-9.28-.38-18.55.71-27.48 3.24 -6.15 1.68-12.16 4.05-17.83 7.02l-5.34 2.97c-16.11 9.82-28.69 24.5-35.92 41.92 -10.25 24.86-8.43 53.07 4.92 76.42v0Z"/><g fill="#371A45"><path d="M125.17 6.25c-6.18 1.69-12.21 4.07-17.89 7.04l-5.35 2.97c-16.18 9.86-28.81 24.59-36.07 42.08 -10.29 24.96-8.46 53.27 4.94 76.71 9.08 15.98 22.98 28.69 39.71 36.32l4.32 1.89c12.61 5.02 26.18 7.12 39.71 6.17l5.13-.48c32.07-3.98 59.55-24.82 72.04-54.62 9.01-21.72 8.9-46.15-.31-67.79 -9.12-21.42-26.39-38.32-47.97-46.97l-.66-.26c-8.71-3.49-17.78-5.55-26.91-6.17l-3.18-.21c-9.32-.38-18.63.72-27.59 3.25Zm27.55-2.6l3.16.2c8.74.59 17.44 2.52 25.8 5.76l.89.35c21.73 8.5 39.12 25.39 48.26 46.86 9.13 21.47 9.24 45.71.3 67.27 -12.4 29.58-39.68 50.26-71.51 54.21l-5.13.47c-13.43.95-26.91-1.15-39.42-6.13l-4.32-1.89c-16.6-7.58-30.39-20.19-39.41-36.05 -13.31-23.27-15.12-51.37-4.92-76.14 7.2-17.36 19.73-31.99 35.78-41.78l5.32-2.97c5.31-2.79 10.95-5.05 16.73-6.71l1.02-.29c8.89-2.52 18.13-3.61 27.37-3.23Z"/><path fill="#371A45" fill-opacity=".35" d="M231.46 124.18c-12.41 29.71-39.81 50.49-71.77 54.41 -1.69.2-3.38.4-5.14.47 -18.31 1.24-36.56-3.12-52.33-12.5 -20.07-11.99-34.53-31.47-40.18-54.15 9.06 15.11 22.51 27.12 38.55 34.43l4.32 1.89c12.55 4.99 26.08 7.09 39.56 6.14l5.13-.48c31.94-3.97 59.32-24.73 71.76-54.42 7.42-17.9 8.43-36.73 4.18-54.08 13.77 22.88 16.87 51.64 5.87 78.24v0Z"/><path d="M124.59 4.13c-6.34 1.73-12.51 4.17-18.33 7.21l-5.4 3 -.09.05C84.2 24.48 71.27 39.58 63.83 57.5c-10.55 25.59-8.68 54.62 5.06 78.65 9.31 16.37 23.55 29.4 40.7 37.23l4.35 1.9c12.98 5.17 26.89 7.33 40.75 6.34l5.18-.48c32.92-4.09 61.07-25.43 73.86-55.96 9.24-22.28 9.12-47.32-.31-69.5 -9.35-21.96-27.05-39.28-49.18-48.15l-.68-.27c-8.9-3.56-18.2-5.68-27.56-6.32l-3.19-.21c-9.27-.38-18.49.65-27.38 3.06l-.94.25Zm28.04 1.72l3.11.19c8.5.57 16.97 2.45 25.12 5.61l.9.35c21.19 8.29 38.15 24.75 47.05 45.68 8.9 20.92 9.01 44.56.29 65.56 -12.09 28.84-38.7 49.02-69.75 52.87l-5.06.46c-13.05.92-26.2-1.12-38.4-5.98l-4.25-1.86c-16.15-7.37-29.59-19.67-38.38-35.13 -12.98-22.68-14.74-50.07-4.79-74.22l.29-.72c6.96-16.38 18.82-30.21 33.93-39.62l.62-.39 5.28-2.95c5.13-2.7 10.63-4.9 16.26-6.52l1.01-.29c8.67-2.46 17.68-3.52 26.68-3.15Z"/><path d="M124.37 3.43l.02-.01c-6.39 1.75-12.61 4.2-18.48 7.27l-5.41 3.01 -.12.06c-16.7 10.18-29.74 25.39-37.24 43.46 -10.64 25.8-8.75 55.07 5.1 79.29 9.38 16.51 23.75 29.64 41.04 37.53l4.36 1.91 .1.04c13.01 5.18 27.02 7.35 41 6.36l5.3-.49c33.1-4.11 61.48-25.63 74.37-56.4 9.31-22.46 9.2-47.71-.31-70.07 -9.42-22.14-27.27-39.6-49.58-48.54l-.68-.27C174.87 2.99 165.5.85 156.06.21l-3.19-.21c-9.7-.4-19.32.74-28.58 3.35Zm28.23 3.15l3.09.19c8.42.57 16.82 2.43 24.9 5.56l.89.35c21.01 8.22 37.82 24.54 46.65 45.29 8.82 20.74 8.93 44.17.29 64.99l-.37.85c-12.03 27.86-37.79 47.39-67.87 51.45l-.89.11 -5.07.46 -.85.05c-12.37.75-24.82-1.18-36.43-5.68l-.75-.3 -4.27-1.87c-16-7.3-29.32-19.49-38.04-34.82 -12.87-22.49-14.62-49.64-4.75-73.58l.3-.72c6.9-16.23 18.65-29.94 33.63-39.26l.62-.39 5.26-2.94c5.06-2.66 10.48-4.83 16.05-6.44l1.06-.31c8.59-2.43 17.53-3.49 26.45-3.13Z"/><path d="M84.75 152.87c52.79 34.97 123.55 7.83 126.31-54.42 1.89-42.4-38.62-76.7-80.01-75.69 -30.12.74-59.21 14.44-71.1 60.83 0 0-2.03 21.33 3.98 35.37C70 133 78.31 145.62 78.31 145.62l6.41 7.22v0Z"/></g><path fill="#220F2D" d="M211.07 98.45c-2.84 62.24-73.53 89.38-126.32 54.41l-1.29-1.49c57.65 8.97 114.43-26.2 118.48-89.12 6.48 10.92 9.65 23.49 9.11 36.18v0Z"/><g fill="#371A45"><path d="M130.44 10.53c-13.83.37-26.26 2.98-37.24 8.21l-.31.14 -.27.2c-12.99 9.87-23.13 23-29.4 38.07 -10.7 25.81-8.84 55.12 5.04 79.36 9.38 16.51 23.75 29.64 41.04 37.53l4.36 1.91 .1.04c4.56 1.81 9.26 3.26 14.06 4.33l.24.05 .25.01c50.69 3.32 93.01-30.65 95.35-81.43 2.18-48.15-43.35-89.72-93.27-88.48Zm.16 6.52c46.29-1.15 88.59 37.46 86.58 81.65l-.08 1.4c-2.85 45.71-40.84 76.24-86.93 73.88l-1.17-.07 -.87-.2c-3.71-.88-7.35-2.01-10.91-3.37l-1.03-.4 -4.26-1.87c-16-7.3-29.32-19.49-38.04-34.82 -12.88-22.51-14.61-49.69-4.69-73.64l.3-.74c5.73-13.45 14.81-25.21 26.37-34.16l.36-.29 -.31.14c10.09-4.81 21.64-7.24 34.59-7.59Z"/><path d="M130.99 19.51c-37.06.91-63.18 20.34-74.18 63.28l-.07.24 -.07.77 -.06.82 -.07 1.14c-.39 6.98-.2 14.69.99 22.03 .74 4.64 1.86 8.82 3.41 12.44 1.24 2.88 2.63 5.82 4.14 8.8 2.29 4.53 4.75 8.94 7.2 13.05l.63 1.05 .6.99 .86 1.39 .82 1.3 .49.76 6.85 7.71 .35.23c55.79 36.95 128.54 6.85 131.37-57 1.92-43.1-38.73-80.19-83.35-79.09Zm.16 6.52c40.99-1.01 78.4 33.13 76.66 72.27 -1.26 28.32-17.42 50.46-42.39 60.79l-.75.3c-24.32 9.76-53.28 6.87-77.4-8.78l-.39-.26 -5.97-6.72 -.73-1.14 -.82-1.31 -.58-.94 -.61-1c-.11-.17-.21-.35-.31-.52 -2.39-3.99-4.77-8.27-6.99-12.66 -1.45-2.87-2.79-5.69-3.98-8.44 -1.32-3.07-2.3-6.76-2.97-10.91 -1.1-6.81-1.28-14.09-.92-20.65l.06-1.06 .06-.93 -.07.25C73.3 44.3 96.84 26.78 131.06 25.94Z"/></g><path fill="#FFF" d="M250.56 93.8c1.35 17.28-7.9 32.67-20.66 34.29 -12.77 1.62-24.18-11.08-25.46-28.43v-.34c-1.22-17.15 8.03-32.34 20.65-33.96 9.85-1.29 18.9 6.07 23.08 17.41 1.28 3.37 2.09 7.02 2.36 11Z"/><path fill="#371A45" fill-opacity=".35" d="M250.56 93.8c1.35 17.28-7.9 32.67-20.66 34.29 -12.77 1.62-24.18-11.08-25.46-28.43v-.34c1.55 1.62 3.84 3.03 6.75 2.09 5.06-1.69 13.5-13.98 13.5-13.98s10.19-2.1 23.49-4.66c1.28 3.37 2.09 7.02 2.36 11Z"/><path fill="#371A45" d="M226.95 61.98c-14.88.23-26.2 16.19-25.83 35.19 .29 18.96 12.13 34.49 27.01 34.25 14.69-.32 25.9-15.93 25.76-34.63l-.01-.56c-.3-18.97-12.13-34.51-26.95-34.27Zm.1 6.52c10.6-.17 19.88 11.88 20.3 27.37l.01.48c.3 15.7-8.63 28.31-19.36 28.54 -10.76.16-20.13-12.12-20.37-27.85 -.31-15.76 8.65-28.39 19.4-28.56Z"/><path fill="#FFF" d="M216.27 98.39c.27-13.78 8.91-24.85 19.37-24.65 10.39.2 18.7 11.54 18.43 25.38 -.28 13.77-8.98 24.77-19.38 24.57 -10.47-.21-18.71-11.48-18.44-25.32v0Z"/><g fill="#371A45"><path d="M235.65 73.4c-10.66-.21-19.46 11-19.73 24.97 -.28 13.99 8.07 25.46 18.76 25.66 10.62.2 19.45-10.99 19.72-24.92 .27-13.99-8.14-25.53-18.77-25.74Zm-.02.68c10.2.19 18.36 11.39 18.09 25.03 -.27 13.58-8.84 24.43-19.03 24.23 -10.27-.2-18.37-11.32-18.1-24.97 .26-13.5 8.62-24.29 18.72-24.31l.3 0Z"/><path fill="#371A45" fill-opacity=".35" d="M218.23 110.74c-1.52-4.55-1.87-9.4-1.02-14.12 4.32 9.92 14.11 13.3 22.54 7.49 5.68-4.3 9.4-10.7 10.32-17.76l.74 1.95c3.84 11.4-.34 25.65-9.32 31.86 -9.05 6.21-19.45 1.95-23.3-9.46v0Z"/><path d="M234.7 69.13c-11.79.24-20.51 13.55-20.21 29.31 .3 15.78 9.5 28.76 21.28 28.51 11.78-.25 20.5-13.56 20.2-29.32 -.3-15.75-9.56-28.77-21.29-28.52Zm.13 6.52c7.47-.16 14.38 9.56 14.62 22.11 .23 12.56-6.28 22.51-13.82 22.66 -7.52.15-14.39-9.54-14.63-22.12 -.24-12.57 6.27-22.52 13.81-22.67Z"/></g><path fill="#FFF" fill-opacity=".7" d="M152.67 37.76s-40.38 3.57-62.19 27.07l-.07.06c-4.59 4.91-7.76 10.98-9.19 17.55 -1.49 6.68-2.06 13.54-1.69 20.38 .6 16.67 4.05 24.37 4.05 24.37 -9.97-7.72-15.96-19.48-16.34-32.07l-.07-4.26 .06-1.02c.27-2.98.81-6.82 1.75-11.08 2.83-12.97 9.65-29.98 25.65-38.42 29.84-15.8 59.27-4.46 57.99-2.64v0Zm27.34 26.73c6.27-2.03 13.23 2.22 15.52 9.45 2.36 7.22-.88 14.71-7.16 16.67 -6.28 2.02-13.24-2.17-15.53-9.39 -2.37-7.23.87-14.72 7.15-16.68v-.07Zm9.38 31.66c2.49-1.09 5.53.4 6.75 3.3 1.21 2.83.2 6.07-2.3 7.15 -2.5 1.01-5.54-.41-6.76-3.38 -1.22-2.84-.21-6.08 2.29-7.09Z"/><path fill-opacity=".35" d="M156.99 242.53s0 .2-.21.47l.2-.48Z"/><path fill="#CE2E2E" d="M128.5 216.2s4.05 19.44 3.03 22.54c-1.02 3.1-9.46 19.44-12.16 14.24 -2.71-5.2-11.21-14.52-8.17-23.97 3.03-9.46 3.78-13.51 6.27-12.83 2.56.67 11 0 11 0Z"/><path fill="#6B184E" d="M131.13 214.71l4.38 21.4 -5.27 1.08 -4.39-21.41 5.26-1.09Zm-17.69-1.24l5.11 1.65 -6.35 19.57 -5.12-1.66 6.34-19.58Z"/><path fill="#33AEF1" d="M140.04 241.45H26.27l-.55-1.76 -.34-1.15 -1.49-4.73 -7.63-24.58 -3.04-9.93 -9.59-30.86c-.62-2.01-.26-4.18.98-5.87 1.23-1.7 3.2-2.7 5.29-2.71h99.58c3.03 0 5.73 2.02 6.68 4.92l18.36 59.2 1.48 4.86 3.98 12.55v0Z"/><path fill="#FFF" fill-opacity=".35" d="M134.64 224.03c-4.99-1.09-9.02-4.74-10.6-9.59l-11.35-35.72c-1.82-5.67-7.09-9.52-13.04-9.52H30.92c-6.42 0-12.23-3.65-14.99-9.25h98.77l19.91 64.07v0Z"/><path fill="#F92323" d="M141.6 241.45v11H32.69c-3.56 0-6.45-2.87-6.49-6.42v-4.6h115.38Z"/><use fill="#848484" xlink:href="#b"/><path fill="#371A45" fill-opacity=".35" d="M141.6 246.72v4.65H32.69c-2.98 0-5.41-1.96-6.22-4.66h115.11Z"/><path fill="#33AEF1" d="M195.61 215.59l-18.37 14.11 -37.88 11 -7.5-26 4.05.06 44.15.6Z"/><path fill="#FFF" fill-opacity=".6" d="M137.48 236.12l29.23-15.26 -31.6 0Z"/><g fill="#371A45"><path d="M110.14 156.63H9.47c-3.01-.01-5.84 1.42-7.63 3.84C.05 162.88-.49 166 .4 168.88l23.46 75.82h120.59l-25.29-81.4c-1.23-3.98-4.91-6.69-9.06-6.69Zm0 6.52l.18 0c1.21.07 2.27.89 2.63 2.07l22.65 72.94H28.67L6.62 166.93c-.28-.89-.11-1.86.45-2.62 .55-.76 1.43-1.2 2.37-1.2H110.1Z"/><path d="M141.6 238.19v6.52l-112.06-.01 0 1.32c0 1.68 1.31 3.05 2.97 3.14l.17 0h108.9v6.52H32.67c-5.26 0-9.53-4.19-9.68-9.41l-.01-.28v-7.86h118.57Z"/></g><use fill="#F92323" xlink:href="#b"/><path fill="#371A45" fill-opacity=".35" d="M200.94 217.62v.06c0 1.08-.61 2.09-1.56 2.63l-57.8 32.13 .47-5.54 56.37-29.1c.47-.28.87-.61 1.21-1.09 .2-.34.33-.75.4-1.22 .54.6.87 1.28.87 2.09Z"/><path fill="#371A45" d="M197.3 211.45l-.01.07c3.52-.4 6.9 2.32 6.9 6.15 0 2.26-1.12 4.31-3.02 5.43l-58.01 32.25 -1.63-2.92 -3.84 0v-11.01l4.88-.01 -1.44-2.94 42.07-20.55 -51.39 0v-6.53h65.42Zm-8.39 11.02l-44.67 21.8v3.03l44.66-24.84Z"/><path fill="#FFF" d="M85.7 253.33s-11.14 13.03-28.97 12.15c-30.66-1.49-23.84-24.72-17.42-29.04 16.81-11.28 34.43.87 36.39 5.87 3.57 9.24 9.99 11 9.99 11v0Z"/><path fill="#371A45" fill-opacity=".35" d="M85.7 253.33s-11.14 12.96-28.97 12.15c-18.44-.88-23.36-9.66-22.89-17.42 3.03 4.45 9.24 7.89 20.52 8.43 11.27.54 19.91-4.46 24.71-8.24 3.24 4.11 6.61 5.06 6.61 5.06v0Z"/><g fill="#371A45"><path d="M37.5 233.74c-4.81 3.23-8.03 11.74-6.58 18.93 1.89 9.36 10.58 15.33 25.64 16.06 7.16.35 13.83-1.31 19.9-4.44 4.24-2.2 7.74-4.87 10.45-7.55l.38-.39 .4-.42 .3-.34 .14-.18 3.34-3.91 -4.96-1.36 -.18-.07c-.29-.12-.63-.28-1-.49 -1.13-.65-2.29-1.59-3.39-2.87 -1.19-1.39-2.23-3.08-3.07-5.14l-.2-.5c-1.55-3.95-7.71-8.64-14.63-10.95 -8.85-2.96-18.19-2.11-26.62 3.54Zm35.16 9.76c1.14 2.96 2.63 5.45 4.38 7.5l.34.39c.8.9 1.65 1.68 2.51 2.36l.34.26 -.23.19c-5.97 5-13.85 8.45-23.14 7.99 -12.33-.6-18.34-4.73-19.58-10.85 -.95-4.67 1.26-10.51 3.81-12.23 6.64-4.46 13.89-5.12 20.9-2.78 2.81.94 5.44 2.33 7.53 3.92 .9.69 1.67 1.39 2.25 2.03 .41.46.68.86.8 1.09l.02.05Z"/><path fill="#371A45" fill-opacity=".35" d="M180.08 215.39c-5.74 17.48-41.12 16.74-44.02.13l-.14-.75 44.15.6v0Z"/></g><path fill="#FFF" d="M205.06 197.16s-15.67-14.93-33.36-14.93c-18.23 0-38.89 9.78-35.72 27.95 3.1 17.62 42.8 17.41 44.76-3.58"/><path fill="#371A45" fill-opacity=".35" d="M180.82 206.54c-1.9 20.99-41.66 21.19-44.77 3.57 -.53-2.76-.44-5.6.27-8.31 3.98 14.17 32.74 15.59 41.79 2.63 .81-1.15 2.63-.61 2.63.81v1.28h.06v0Z"/><g fill="#371A45"><path d="M171.71 178.98c8.42 0 16.88 2.98 25 7.93 2.8 1.7 5.37 3.53 7.66 5.37l.27.21 .75.61 .65.55 .55.48 .45.41 .24.22 -4.51 4.72 -.51-.46 -.12-.1c-.19-.16-.38-.33-.58-.5l-.64-.54c-.23-.19-.46-.38-.7-.57 -2.08-1.67-4.43-3.34-6.98-4.89 -7.2-4.38-14.57-6.99-21.62-6.99 -8.83 0-17.82 2.42-24.07 6.61 -6.65 4.44-9.68 10.38-8.44 17.5 1.1 6.25 9.35 10.45 19.45 9.99 10.29-.47 17.93-5.47 18.81-13.02l.03-.3 6.49.6c-1.08 11.53-11.73 18.63-25.06 19.22 -12.99.58-24.38-5.22-26.18-15.4 -1.73-9.87 2.56-18.26 11.23-24.06 7.39-4.96 17.64-7.72 27.69-7.72Z"/><path d="M194.8 347.85c-7.35-2.96-15.41-3.67-23.16-2.03 -1.29.2-2.5.6-3.72.87l-1.83.54 -1.9.54 -.21.06c-1.22.27-2.44-.48-2.71-1.63 -.28-1.09.27-2.17 1.28-2.57l2.02-.88c2-.84 4.12-1.41 6.27-1.69 5.77-.75 11.64-.05 17.08 2.02 2.63 1.08 5.13 2.43 7.35 4.25 .13.13.13.33.06.47h-.61v0Zm-58-7.97c-4.78-1.7-9.79-2.63-14.86-2.77h-1.83l-1.83.13 -1.83.2 -.88.13 -.88.2c-2.37.33-4.6 1.21-6.89 1.89l-.21.06c-1.22.33-2.44-.34-2.77-1.49 -.34-1.09.2-2.17 1.14-2.64l1.89-.95 .94-.41 1.01-.34 2.02-.61 2.09-.34c8.26-.75 16.51 1.53 23.22 6.41 .13.13.13.33.06.47h-.48v0Z"/><path d="M199.33 189.73c7.83 11.73 9.82 24.02 6.49 34.38 -2.98 9.25-10.02 15.76-17.77 16.37l-.35.02 -.28-4.89c5.69-.32 11.28-5.42 13.73-13.02 2.81-8.77 1.17-19.32-5.59-29.69l-.33-.5 4.06-2.72Z"/></g><path fill="#FFF" d="M73.54 214.38l-.14.06c-5.09 3.07-11.68 1.75-15.2-3.04 -1.81-2.55-2.49-5.72-1.89-8.79 .59-3.07 2.42-5.75 5.05-7.43l.06-.07c1.55-.95 3.37.67 2.7 2.36 -1.15 2.76-1.02 6.07.74 8.84 1.75 2.76 4.65 4.32 7.69 4.52 1.82.13 2.49 2.56.94 3.51Z"/></svg>