<svg viewBox="0 0 512 104" xmlns="http://www.w3.org/2000/svg"><g fill="#7F54B3" fill-rule="evenodd"><path d="M157.26 0H16.08C7.14 0-.09 7.3-.02 16.16v53.88C-.03 78.97 7.21 86.2 16.14 86.2H83l30.56 17.01 -6.95-17.02h50.62c8.93 0 16.16-7.24 16.16-16.17V16.13c0-8.94-7.24-16.17-16.17-16.17ZM13.11 12.47c-1.99.14-3.48.85-4.47 2.19 -1 1.27-1.35 2.9-1.14 4.75 4.18 26.58 8.08 44.52 11.69 53.81 1.41 3.4 3.04 5.03 4.96 4.89 2.97-.22 6.52-4.33 10.7-12.34 2.19-4.54 5.6-11.35 10.21-20.43 3.82 13.4 9.07 23.46 15.66 30.2 1.84 1.91 3.75 2.76 5.6 2.62 1.63-.15 2.9-1 3.75-2.56 .7-1.35.99-2.91.85-4.68 -.43-6.46.21-15.46 1.98-27.02 1.84-11.92 4.11-20.5 6.87-25.6 .56-1.07.77-2.13.7-3.41 -.15-1.64-.86-2.98-2.2-4.05 -1.35-1.07-2.84-1.56-4.47-1.42 -2.06.14-3.62 1.13-4.68 3.11 -4.4 8.01-7.52 20.98-9.36 38.99 -2.7-6.81-4.97-14.82-6.74-24.25 -.78-4.19-2.7-6.17-5.82-5.96 -2.13.14-3.9 1.55-5.32 4.25L26.35 55.12c-2.56-10.29-4.97-22.84-7.17-37.66 -.5-3.69-2.56-5.39-6.17-5.11Zm136.63 5.1c5.03 1.06 8.79 3.75 11.34 8.22 2.26 3.82 3.4 8.43 3.4 13.96 0 7.3-1.85 13.96-5.54 20.06 -4.26 7.09-9.79 10.63-16.67 10.63 -1.21 0-2.49-.15-3.83-.43 -5.04-1.07-8.8-3.76-11.35-8.23 -2.27-3.9-3.41-8.58-3.41-14.04 0-7.31 1.84-13.97 5.53-20 4.32-7.1 9.85-10.64 16.66-10.64 1.2 0 2.48.14 3.82.42Zm-2.98 38.35c2.62-2.34 4.39-5.82 5.38-10.5 .28-1.64.49-3.41.49-5.25 0-2.06-.43-4.26-1.28-6.46 -1.07-2.77-2.49-4.26-4.19-4.61 -2.56-.5-5.04.92-7.38 4.39 -1.92 2.69-3.13 5.53-3.76 8.43 -.36 1.63-.5 3.4-.5 5.17 0 2.05.42 4.25 1.27 6.45 1.06 2.76 2.48 4.25 4.18 4.6 1.77.35 3.68-.43 5.74-2.27Zm-30.14-30.14c-2.56-4.47-6.39-7.17-11.35-8.23 -1.35-.29-2.63-.43-3.83-.43 -6.81 0-12.34 3.54-16.67 10.63 -3.69 6.02-5.54 12.69-5.54 19.99 0 5.45 1.13 10.13 3.4 14.03 2.55 4.46 6.31 7.16 11.34 8.22 1.34.28 2.62.42 3.82.42 6.87 0 12.4-3.55 16.66-10.64 3.68-6.1 5.53-12.77 5.53-20.07 0-5.54-1.14-10.14-3.41-13.97Zm-8.94 19.64c-1 4.67-2.77 8.15-5.39 10.49 -2.06 1.84-3.98 2.62-5.75 2.26 -1.71-.36-3.13-1.85-4.19-4.61 -.86-2.2-1.28-4.4-1.28-6.46 0-1.78.14-3.55.49-5.18 .63-2.91 1.84-5.75 3.75-8.44 2.34-3.48 4.82-4.9 7.37-4.4 1.7.35 3.12 1.84 4.18 4.6 .85 2.19 1.27 4.39 1.27 6.45 0 1.84-.15 3.61-.5 5.24Z"/><path fill="#000" d="M191.37 25.17c-4.76 4.67-7.1 10.63-7.1 17.86 0 7.72 2.33 14.03 7.01 18.78 4.67 4.75 10.77 7.16 18.36 7.16 2.19 0 4.67-.36 7.37-1.14V56.34c-2.49.7-4.61 1.06-6.46 1.06 -3.76 0-6.74-1.28-9.01-3.76 -2.27-2.56-3.41-5.96-3.41-10.29 0-4.05 1.13-7.38 3.33-9.93 2.26-2.63 5.03-3.9 8.43-3.9 2.19 0 4.53.35 7.09 1.06V19.09c-2.34-.64-4.97-.93-7.73-.93 -7.24-.08-13.19 2.26-17.94 6.94Zm49.2-7.02c-6.53 0-11.63 2.19-15.32 6.52 -3.69 4.32-5.46 10.42-5.46 18.22 0 8.43 1.84 14.88 5.45 19.35 3.61 4.46 8.93 6.73 15.88 6.73 6.73 0 11.91-2.27 15.52-6.74 3.61-4.47 5.45-10.78 5.45-18.87 0-8.09-1.85-14.33-5.54-18.72 -3.76-4.33-9.08-6.53-16.03-6.53Zm5.6 36.87c-1.28 1.98-3.2 2.97-5.61 2.97 -2.27 0-3.98-1-5.18-2.98 -1.21-1.99-1.78-5.96-1.78-11.99 0-9.29 2.33-13.9 7.09-13.9 4.96 0 7.51 4.67 7.51 14.1 -.08 5.81-.78 9.78-2.06 11.77Zm50.98-35.53l-2.56 10.84c-.64 2.76-1.28 5.6-1.85 8.5l-1.42 7.51c-1.35-7.52-3.2-16.45-5.54-26.88h-16.45l-6.17 48.28h12.33l3.33-33.26 8.43 33.25h8.79l8.08-33.19 3.47 33.18h12.9l-6.53-48.29h-16.88Zm59.06 0l-2.56 10.84c-.64 2.76-1.28 5.6-1.85 8.5l-1.42 7.51c-1.35-7.52-3.2-16.45-5.54-26.88h-16.45l-6.17 48.28h12.33l3.33-33.26 8.43 33.25h8.79l8.01-33.19 3.47 33.18h12.9l-6.53-48.29h-16.81Zm40.13 29.21h11.55v-10h-11.56v-8.87h13.33V19.54h-26.38v48.28h26.44V57.53h-13.41v-8.87Zm50.12-7.66c1.34-2.2 2.05-4.47 2.05-6.81 0-4.54-1.78-8.16-5.32-10.78 -3.55-2.63-8.44-3.98-14.54-3.98h-15.18v48.28h13.04V45.76h.21l10.56 21.98h13.75L440.6 45.97c2.48-1.14 4.46-2.77 5.81-4.97Zm-20-.78V28.77c3.11.07 5.31.56 6.66 1.55 1.34.99 1.98 2.55 1.98 4.82 0 3.33-2.91 5.03-8.66 5.1Zm29.7-15.11c-4.75 4.67-7.09 10.63-7.09 17.86 0 7.72 2.33 14.03 7.02 18.78 4.68 4.75 10.77 7.16 18.36 7.16 2.19 0 4.68-.36 7.37-1.14V56.32c-2.48.7-4.61 1.06-6.46 1.06 -3.76 0-6.74-1.28-9.01-3.76 -2.28-2.56-3.41-5.96-3.41-10.29 0-4.05 1.13-7.38 3.33-9.93 2.27-2.63 5.03-3.9 8.43-3.9 2.19 0 4.54.35 7.09 1.06V19.07c-2.34-.64-4.97-.93-7.73-.93 -7.17-.08-13.19 2.26-17.95 6.94Zm42.33 32.26v-8.8h11.55v-10h-11.56v-8.87h13.39V19.45h-26.38v48.28h26.44V57.44h-13.48v-.08Z"/></g></svg>