<svg viewBox="0 0 256 255" xmlns="http://www.w3.org/2000/svg"><path fill="#464342" d="M18.12 127.5c0 43.29 25.16 80.71 61.64 98.44L27.58 82.98c-6.07 13.6-9.47 28.65-9.47 44.51v0Zm183.22-5.52c0-13.52-4.86-22.88-9.03-30.17 -5.55-9.01-10.75-16.64-10.75-25.65 0-10.06 7.62-19.42 18.36-19.42 .48 0 .94.06 1.41.08 -19.47-17.83-45.39-28.72-73.87-28.72 -38.22 0-71.84 19.6-91.39 49.3 2.56.07 4.98.13 7.03.13 11.44 0 29.15-1.39 29.15-1.39 5.89-.35 6.59 8.31.7 9 0 0-5.93.69-12.52 1.04l39.83 118.47 23.93-71.8 -17.05-46.7c-5.9-.35-11.48-1.05-11.48-1.05 -5.9-.35-5.21-9.36.69-9.01 0 0 18.06 1.38 28.81 1.38 11.43 0 29.15-1.39 29.15-1.39 5.9-.35 6.59 8.31.7 9 0 0-5.94.69-12.52 1.04l39.52 117.58 10.91-36.46c4.72-15.13 8.32-26 8.32-35.36v0Zm-71.93 15.08l-32.82 95.36c9.79 2.88 20.16 4.45 30.89 4.45 12.73 0 24.95-2.21 36.32-6.21 -.3-.47-.56-.97-.78-1.51l-33.63-92.12v0Zm94.05-62.05c.47 3.48.73 7.22.73 11.24 0 11.09-2.08 23.57-8.32 39.17l-33.42 96.59c32.51-18.97 54.39-54.2 54.39-94.55 0-19.02-4.86-36.9-13.4-52.48v0ZM127.48-.02C57.17-.02-.03 57.17-.03 127.48c0 70.31 57.2 127.5 127.5 127.5s127.51-57.2 127.51-127.51C254.97 57.16 197.77-.04 127.46-.04v0Zm0 249.16c-67.09 0-121.66-54.58-121.66-121.67C5.82 60.38 60.39 5.81 127.47 5.81c67.07 0 121.65 54.57 121.65 121.65 0 67.08-54.58 121.66-121.66 121.66v0Z"/></svg>