<svg viewBox="0 0 512 117" xmlns="http://www.w3.org/2000/svg"><path fill="#00749A" d="M296.94 45.72h-20.16v2.13c6.3 0 7.31 1.35 7.31 9.34V71.6c0 7.99-1.02 9.45-7.32 9.45 -4.85-.68-8.11-3.27-12.62-8.22l-5.18-5.63c6.98-1.25 10.69-5.64 10.69-10.59 0-6.2-5.3-10.93-15.2-10.93h-19.82v2.13c6.3 0 7.31 1.35 7.31 9.34v14.41c0 7.99-1.02 9.45-7.32 9.45v2.13h22.4V81c-6.31 0-7.32-1.47-7.32-9.46v-4.06h1.91l12.49 15.64h32.76c16.1 0 23.08-8.56 23.08-18.81 0-10.25-6.99-18.69-23.09-18.69v0 0Zm-47.18 18.35V49.09h4.61c5.06 0 7.31 3.49 7.31 7.54 0 3.94-2.26 7.43-7.32 7.43h-4.62v-.01 0Zm47.51 15.65h-.79c-4.06 0-4.62-1.02-4.62-6.2V49.08h5.4c11.7 0 13.84 8.55 13.84 15.19 0 6.86-2.14 15.42-13.85 15.42v0 0ZM171.95 68.23l7.76-22.98c2.25-6.65 1.23-8.56-5.97-8.56v-2.26h21.16v2.25c-7.1 0-8.79 1.68-11.6 9.9l-12.84 38.5h-1.47L157.5 49.83l-11.71 35.24h-1.47l-12.5-38.51c-2.71-8.22-4.51-9.91-11.04-9.91v-2.26h24.99v2.25c-6.65 0-8.45 1.57-6.09 8.55l7.54 22.97 11.37-33.78h2.13l11.14 33.77v0Zm38.28 16.43c-12.39 0-22.52-9.12-22.52-20.27 0-11.04 10.13-20.16 22.51-20.16s22.51 9.12 22.51 20.15c0 11.14-10.14 20.26-22.52 20.26v0 0Zm0-36.93c-10.36 0-13.97 9.34-13.97 16.66 0 7.43 3.6 16.66 13.96 16.66 10.47 0 14.07-9.24 14.07-16.67 0-7.32-3.61-16.67-14.08-16.67v0 0Z"/><g fill="#464342"><path d="M347.84 80.96v2.25h-25.79v-2.26c7.54 0 8.89-1.92 8.89-13.18V49.75c0-11.27-1.36-13.07-8.9-13.07v-2.26h23.3c11.59 0 18.01 5.96 18.01 13.96 0 7.76-6.42 13.84-18.02 13.84h-6.42v5.51c0 11.26 1.35 13.17 8.89 13.17v0 0Zm-2.48-42.45h-6.42V58.1h6.41c6.3 0 9.23-4.4 9.23-9.69 0-5.41-2.93-9.92-9.24-9.92v0 0Zm95.36 34.11l-.57 2.02c-1.02 3.71-2.26 5.06-10.25 5.06h-1.58c-5.86 0-6.87-1.36-6.87-9.35v-5.18c8.78 0 9.45.78 9.45 6.64h2.13V55.03h-2.14c0 5.85-.68 6.64-9.46 6.64V49.06h6.19c7.99 0 9.23 1.35 10.24 5.06l.56 2.13h1.8l-.79-10.59h-33.11v2.13c6.3 0 7.31 1.35 7.31 9.34v14.41c0 7.31-.87 9.15-5.84 9.41 -4.73-.73-7.97-3.3-12.41-8.18l-5.18-5.63c6.98-1.25 10.69-5.64 10.69-10.59 0-6.2-5.3-10.93-15.2-10.93h-19.82v2.13c6.3 0 7.31 1.35 7.31 9.34V71.5c0 7.99-1.02 9.45-7.32 9.45v2.13h22.4v-2.14c-6.31 0-7.32-1.47-7.32-9.46v-4.06h1.91l12.49 15.64h46.27l.67-10.59h-1.7v-.01 0Zm-59.68-8.56V49.08h4.61c5.06 0 7.31 3.49 7.31 7.54 0 3.94-2.26 7.43-7.32 7.43h-4.62v-.01 0Zm82.52 20.6c-4.51 0-8.45-2.37-10.14-3.83 -.57.56-1.58 2.25-1.81 3.82h-2.14V69.11h2.25c.9 7.43 6.07 11.82 12.72 11.82 3.6 0 6.53-2.03 6.53-5.41 0-2.93-2.59-5.18-7.21-7.32l-6.42-3.04c-4.51-2.15-7.89-5.86-7.89-10.81 0-5.41 5.06-10.02 12.04-10.02 3.71 0 6.86 1.35 8.78 2.92 .56-.46 1.12-1.69 1.46-3.05h2.13v13.28h-2.37c-.79-5.3-3.72-9.69-9.69-9.69 -3.16 0-6.09 1.8-6.09 4.61 0 2.92 2.36 4.5 7.77 6.98l6.19 3.03c5.4 2.58 7.54 6.75 7.54 10.13 0 7.09-6.2 12.04-13.74 12.04v0 0Zm34.67 0c-4.51 0-8.45-2.37-10.14-3.83 -.57.56-1.58 2.25-1.81 3.82h-2.14V69.11h2.25c.9 7.43 6.07 11.82 12.72 11.82 3.6 0 6.53-2.03 6.53-5.41 0-2.93-2.59-5.18-7.21-7.32l-6.42-3.04c-4.51-2.15-7.89-5.86-7.89-10.81 0-5.41 5.06-10.02 12.04-10.02 3.71 0 6.86 1.35 8.78 2.92 .56-.46 1.12-1.69 1.46-3.05h2.13v13.28h-2.37c-.79-5.3-3.72-9.69-9.69-9.69 -3.16 0-6.09 1.8-6.09 4.61 0 2.92 2.36 4.5 7.77 6.98l6.19 3.03c5.4 2.58 7.54 6.75 7.54 10.13 0 7.09-6.2 12.04-13.74 12.04v0 0Z"/><path d="M8.25 58.08c0 19.72 11.46 36.76 28.08 44.84L12.56 37.79c-2.77 6.19-4.32 13.05-4.32 20.27v0 0Zm83.46-2.52c0-6.16-2.22-10.43-4.11-13.75 -2.53-4.11-4.9-7.59-4.9-11.69 0-4.59 3.47-8.85 8.36-8.85 .22 0 .43.02.64.03 -8.87-8.13-20.68-13.09-33.65-13.09 -17.41 0-32.73 8.93-41.64 22.45 1.16.03 2.27.05 3.2.05 5.21 0 13.27-.64 13.27-.64 2.68-.16 3 3.78.31 4.1 0 0-2.7.31-5.71.47l18.14 53.97 10.9-32.71 -7.77-21.28c-2.69-.16-5.23-.48-5.23-.48 -2.69-.16-2.38-4.27.31-4.11 0 0 8.22.63 13.12.63 5.21 0 13.27-.64 13.27-.64 2.68-.16 3 3.78.31 4.1 0 0-2.71.31-5.71.47l18 53.56 4.97-16.61c2.15-6.9 3.79-11.85 3.79-16.11v0 0Zm-32.77 6.87l-14.96 43.44c4.46 1.31 9.18 2.02 14.07 2.02 5.8 0 11.36-1.01 16.54-2.83 -.14-.22-.26-.44-.36-.69L58.91 62.4v0Zm42.84-28.27c.21 1.58.33 3.29.33 5.12 0 5.05-.95 10.74-3.79 17.84l-15.23 44c14.81-8.64 24.77-24.69 24.77-43.08 0-8.67-2.22-16.81-6.11-23.91v0 0ZM58.05-.02C26.02-.02-.04 26.03-.04 58.06c0 32.03 26.05 58.08 58.08 58.08 32.02 0 58.08-26.06 58.08-58.09C116.11 26.02 90.05-.04 58.03-.04v0 0Zm0 113.5c-30.56 0-55.43-24.87-55.43-55.43s24.86-55.43 55.42-55.43c30.55 0 55.41 24.86 55.41 55.42 0 30.56-24.87 55.42-55.42 55.42v0 0Z"/></g></svg>