<svg viewBox="0 0 256 273" xmlns="http://www.w3.org/2000/svg"><path fill="#4326C4" d="M256 119.74C256 53.56 202.33-.01 136.25-.01c-18.33 0-36.25 3.6-52.97 10.81 -16.32 6.9-30.84 16.71-43.36 29.23C27.4 52.44 17.59 67.06 10.68 83.28 3.57 100.09-.04 117.92-.04 136.34c0 18.42 3.6 36.24 10.71 53.06 6.9 16.21 16.71 30.73 29.23 43.25 12.51 12.51 27.13 22.32 43.35 29.23 16.71 7.1 34.64 10.71 53.06 10.71 17.72 0 34.64-3.41 50.15-9.52l-10.32-26.04c-12.32 4.9-25.74 7.6-39.85 7.6 -28.94 0-56.17-11.32-76.59-31.74 -20.43-20.43-31.74-47.66-31.74-76.59 0-28.94 11.31-56.17 31.73-76.59 20.52-20.43 47.65-31.74 76.58-31.74 50.65 0 91.7 41.04 91.7 91.7 0 18.62-5.61 36.04-15.22 50.55l-23.83-58.67c-3.51-8.61-7.71-21.53-23.53-21.53s-20.03 13.01-23.43 21.52l-21.93 54.16 -29.44-74.29H59.65l36.64 90.3c3.7 9.11 7.8 21.52 23.72 21.52 15.91 0 19.92-12.42 23.62-21.53l21.72-53.67 21.82 53.66c4.4 11.11 9.11 21.52 23.62 21.52 10.31 0 16.81-6.61 20.42-10.92 15.41-20.13 24.62-45.36 24.62-72.69Z"/></svg>