<svg viewBox="0 0 256 256" xmlns="http://www.w3.org/2000/svg"><path fill="#40BAC8" d="M86.83 256h82.32v-62.25l-20.08-20.08H106.4l-19.58 20.07v62.24ZM193.24 86.83l-19.58 19.57v43.16l19.57 19.57h62.74V86.8h-62.75ZM169.14-.01H86.81v62.74l19.57 19.57h42.66l20.07-19.58V-.03Zm86.83 256v-62.25l-19.58-20.08h-62.75v82.32h82.32ZM19.54-.01L-.04 19.56V82.3h82.32V-.03H19.53Zm154.1 0v62.74l19.57 19.57h62.74V-.03h-82.33Zm-45.68 140.04c-6.53 0-11.55-5.53-11.55-11.55 0-6.53 5.52-11.55 11.54-11.55 6.52 0 11.54 5.52 11.54 11.54s-5.02 11.54-11.55 11.54ZM82.28 86.82H-.05v82.32h62.24l20.07-19.58V86.81Zm0 106.91L62.2 173.65H-.05v82.32h62.24l20.07-19.58v-42.67Z"/></svg>