<svg viewBox="0 0 256 256" xmlns="http://www.w3.org/2000/svg"><path fill="#1FC0E7" d="M128 256c70.69 0 127.99-57.32 127.99-128 0-70.71-57.31-128-128-128C57.29 0-.02 57.29-.02 128c0 70.68 57.3 128 128 128"/><path fill="#FFF" d="M62.36 127.96l21.79-21.91c.72-.73 1.12-1.71 1.12-2.75 0-2.17-1.76-3.92-3.91-3.92 -1.06 0-2.04.4-2.78 1.16l-21.79 21.8 -21.88-21.85c-.74-.73-1.72-1.13-2.76-1.13 -2.17 0-3.91 1.75-3.91 3.9 0 1.05.42 2.04 1.17 2.78l21.79 21.82 -21.79 21.84c-.77.76-1.19 1.75-1.19 2.8 0 2.16 1.75 3.91 3.9 3.91 1.04 0 2.01-.4 2.75-1.14l21.84-21.86 21.76 21.77c.77.79 1.76 1.22 2.83 1.22 2.15 0 3.9-1.76 3.9-3.92 0-1.05-.4-2.02-1.14-2.76l-21.79-21.88 0 .02Zm129.59-.01c0 3.92 3.18 7.11 7.11 7.11 3.9 0 7.08-3.19 7.08-7.12s-3.19-7.12-7.1-7.12c-3.91 0-7.09 3.18-7.09 7.11h-.02Zm-13.46 0c0-11.35 9.21-20.6 20.55-20.6 11.32 0 20.55 9.24 20.55 20.59 0 11.34-9.23 20.59-20.56 20.59 -11.34 0-20.56-9.24-20.56-20.6v0Zm-8.09 0c0 15.81 12.85 28.69 28.64 28.69 15.79 0 28.64-12.87 28.64-28.69 0-15.82-12.86-28.7-28.65-28.7 -15.8 0-28.65 12.87-28.65 28.69v-.01Zm-2.04-28.2h-1.2c-3.62 0-7.1 1.13-10.01 3.38 -.4-1.75-1.97-3.08-3.84-3.08 -2.15 0-3.87 1.73-3.87 3.89l.01 48.32c0 2.14 1.76 3.89 3.89 3.89 2.15 0 3.9-1.75 3.9-3.91v-29.72c0-9.9.91-13.91 9.37-14.97 .79-.1 1.63-.08 1.64-.08 2.3-.09 3.95-1.69 3.95-3.84 0-2.17-1.77-3.92-3.93-3.92l.02-.01Zm-75.02 23.48c0-.12.01-.23.01-.33 2.26-8.99 10.38-15.63 20.05-15.63 9.78 0 17.97 6.79 20.13 15.94H93.31l0 .01Zm48.2-.74c-1.69-7.99-6.05-14.55-12.69-18.76 -9.72-6.18-22.54-5.84-31.92.85 -7.66 5.44-12.08 14.36-12.08 23.55 0 2.3.28 4.63.85 6.92 2.88 11.37 12.66 20 24.31 21.43 3.45.42 6.82.22 10.29-.69 3-.74 5.89-1.95 8.56-3.67 2.77-1.79 5.08-4.14 7.33-6.96 .03-.06.07-.1.12-.16 1.55-1.94 1.26-4.7-.44-6.01 -1.45-1.11-3.87-1.56-5.77.88 -.41.59-.88 1.19-1.37 1.79 -1.52 1.67-3.41 3.29-5.66 4.56 -2.88 1.53-6.15 2.4-9.62 2.42 -11.37-.14-17.45-8.08-19.61-13.75 -.38-1.07-.67-2.17-.88-3.3l-.06-.6h40.78c5.58-.13 8.59-4.08 7.75-8.6l.01.01Z"/></svg>