<svg viewBox="0 0 256 212" xmlns="http://www.w3.org/2000/svg"><path d="M44.93 8.28l80.1 95.604 -84.8 99.926c-2.46 2.89-.4 7.32 3.39 7.32h31.12c1.49 0 2.92-.66 3.88-1.8l91.61-107.83L88.34 2.57C87.1 1.07 85.25.2 83.31.2H48.65C44.48.19 42.21 5.06 44.89 8.25ZM4.66 33.82l59.09 70.31L.69 178.65c-1.64 1.93-.27 4.89 2.27 4.89h26.12l69.31-80.97 -64.11-75.94H7.97c-3.71 0-5.73 4.33-3.34 7.16Zm203.28-31.7L157.72 63.49l24.167 26.177 68.19-80.69c3-3.56.47-9.01-4.19-9.01h-33.46c-1.75 0-3.41.78-4.51 2.137ZM155.7 136.16l61 73.24c.9 1.08 2.24 1.71 3.66 1.71h30.79c4.08 0 6.29-4.79 3.65-7.9l-77.37-90.91 -21.75 23.84Z"/></svg>