<svg viewBox="0 0 512 172" xmlns="http://www.w3.org/2000/svg"><path fill="#70B700" d="M85.98 0c3.21 0 5.83 2.54 5.95 5.73l0 .22v26.72c0 3.29-2.67 5.96-5.97 5.96 -3.22 0-5.84-2.55-5.96-5.74l-.01-.23V5.93c0-3.3 2.66-5.97 5.96-5.97Z"/><path fill="#F70" d="M166.52 79.5c3.29 0 5.96 2.66 5.96 5.96 0 3.2-2.53 5.81-5.7 5.95l-.27 0h-26.73c-3.3 0-5.97-2.67-5.97-5.97 0-3.21 2.52-5.82 5.69-5.96l.26-.01h26.72Z"/><path fill="#F00" d="M91.94 166c0 3.29-2.67 5.96-5.97 5.96 -3.21 0-5.82-2.53-5.96-5.7l-.01-.27v-26.73c0-3.3 2.66-5.97 5.96-5.97 3.2 0 5.81 2.52 5.95 5.69l0 .26v26.72Z"/><path fill="#0087CB" d="M5.96 91.42c-3.3 0-5.97-2.67-5.97-5.97 0-3.21 2.52-5.82 5.69-5.96l.26-.01h26.72c3.29 0 5.96 2.66 5.96 5.96 0 3.2-2.53 5.81-5.7 5.95l-.27 0H5.92Z"/><path fill="#505052" d="M151.14 11.52c4.23 3.7 4.72 10.08 1.17 14.39l-.21.23 -52.36 59.82 52.35 59.82c3.77 4.31 3.33 10.86-.98 14.63 -4.24 3.7-10.63 3.35-14.43-.75l-.21-.24 -50.54-57.74 -50.54 57.73c-3.78 4.31-10.33 4.74-14.64.97 -4.24-3.71-4.73-10.09-1.18-14.4l.2-.24 52.35-59.83 -52.36-59.83c-3.78-4.32-3.34-10.87.97-14.64 4.23-3.71 10.62-3.36 14.42.74l.2.23 50.53 57.73 50.53-57.74c3.77-4.32 10.32-4.75 14.63-.98Z"/><path fill="#F70" d="M333.93 9.98c3.85.74 6.4 4.4 5.8 8.25l-.05.24 -26.49 137.73c-1.39 7.2-11.33 8-13.9 1.24l-.09-.25 -40.82-117.92 -40.82 117.91c-2.41 6.93-12.35 6.3-13.94-.75l-.06-.26 -26.49-137.74c-.76-3.94 1.82-7.75 5.75-8.5 3.85-.75 7.58 1.71 8.44 5.51l.05.24 21.36 111.1 38.8-112.12c2.22-6.43 11.22-6.52 13.62-.26l.09.25 38.8 112.11 21.36-111.11c.75-3.94 4.56-6.52 8.49-5.76Zm27.76-.35c3.92 0 7.12 3.11 7.25 7l0 .24V154.6c0 4-3.26 7.25-7.26 7.25 -3.93 0-7.13-3.12-7.26-7.01l-.01-.25V16.85c0-4.01 3.25-7.26 7.25-7.26Zm34.43 0c3.92 0 7.12 3.11 7.25 7l0 .24V78.8l67.06-67.07c2.83-2.84 7.43-2.84 10.26 0 2.77 2.77 2.83 7.22.18 10.07l-.19.19 -63.74 63.73 63.73 63.73c2.77 2.77 2.83 7.22.18 10.07l-.19.19c-2.78 2.77-7.23 2.83-10.08.18l-.2-.19 -67.07-67.07v61.93c0 4-3.26 7.25-7.26 7.25 -3.93 0-7.13-3.12-7.26-7.01l-.01-.25V16.81c0-4.01 3.25-7.26 7.25-7.26Zm108.59 0c3.92 0 7.12 3.11 7.25 7l0 .24V154.6c0 4-3.26 7.25-7.26 7.25 -3.93 0-7.13-3.12-7.26-7.01l-.01-.25V16.85c0-4.01 3.25-7.26 7.25-7.26Z"/></svg>