<svg viewBox="0 0 256 256" xmlns="http://www.w3.org/2000/svg"><path fill="#70B700" d="M127.61 0c4.77 0 8.66 3.78 8.84 8.51l0 .33V48.5c0 4.88-3.97 8.85-8.86 8.85 -4.78 0-8.67-3.79-8.85-8.52l-.01-.34V8.82c0-4.89 3.96-8.86 8.85-8.86Z"/><path fill="#F70" d="M247.14 117.99c4.88 0 8.85 3.96 8.85 8.85 0 4.75-3.76 8.63-8.46 8.84l-.4 0h-39.67c-4.89 0-8.86-3.97-8.86-8.86 0-4.76 3.75-8.64 8.45-8.85l.39-.01h39.66Z"/><path fill="#F00" d="M136.46 246.37c0 4.88-3.97 8.85-8.86 8.85 -4.76 0-8.64-3.76-8.85-8.46l-.01-.4v-39.67c0-4.89 3.96-8.86 8.85-8.86 4.75 0 8.63 3.75 8.84 8.45l0 .39v39.66Z"/><path fill="#0087CB" d="M8.85 135.69c-4.89 0-8.86-3.97-8.86-8.86 0-4.76 3.75-8.64 8.45-8.85l.39-.01h39.66c4.88 0 8.85 3.96 8.85 8.85 0 4.75-3.76 8.63-8.46 8.84l-.4 0H8.81Z"/><path fill="#505052" d="M224.31 17.1c6.28 5.49 7.01 14.97 1.74 21.36l-.3.35 -77.71 88.79 77.7 88.79c5.59 6.39 4.95 16.12-1.45 21.71 -6.29 5.49-15.77 4.97-21.41-1.11l-.31-.35 -75-85.7 -75 85.69c-5.6 6.39-15.33 7.04-21.72 1.44 -6.29-5.5-7.02-14.98-1.75-21.37l.29-.36 77.7-88.8 -77.71-88.8c-5.6-6.4-4.96-16.13 1.44-21.72 6.28-5.5 15.76-4.98 21.4 1.1l.3.34 74.99 85.69 74.99-85.7c5.59-6.4 15.32-7.05 21.71-1.45Z"/></svg>