<svg viewBox="0 0 512 143" xmlns="http://www.w3.org/2000/svg"><path fill="#5F01D1" d="M0 34.6h30.47l17.69 45.32L66.1 34.59h29.69L51.11 142.02H21.28l12.26-28.41L-.04 34.58Zm126.67-1.81c-22.86 0-37.32 20.53-37.32 40.93 0 22.98 15.88 41.19 36.93 41.19 15.75 0 21.69-9.56 21.69-9.56v7.48h26.6V34.57h-26.61v7.1c-.13 0-6.72-8.91-21.31-8.91Zm5.68 25.18c10.58 0 16.01 8.39 16.01 15.88 0 8.13-5.82 16.14-16.02 16.14 -8.4 0-16.02-6.85-16.02-15.76 0-9.04 6.06-16.28 16.01-16.28Zm51.26 54.88V-.01h27.76v41.96s6.58-9.17 20.4-9.17c16.91 0 26.85 12.65 26.85 30.6v49.45h-27.64V70.08c0-6.07-2.85-12.01-9.43-12.01 -6.72 0-10.21 5.93-10.21 12v42.74h-27.77Zm122.41-80.07c-26.22-.001-41.84 19.88-41.84 41.32 0 24.27 18.85 40.93 41.96 40.93 22.33 0 41.83-15.89 41.83-40.55 0-26.99-20.54-41.71-41.97-41.71Zm.25 25.3c9.29 0 15.62 7.74 15.62 15.88 0 6.97-5.94 15.62-15.63 15.62 -8.91 0-15.5-7.11-15.5-15.76 0-8.14 5.42-15.76 15.49-15.76Zm87.93-25.31c-26.22 0-41.84 19.88-41.84 41.32 0 24.27 18.85 40.93 41.96 40.93 22.33 0 41.83-15.89 41.83-40.55 0-26.99-20.41-41.71-41.97-41.71Zm.25 25.3c9.29 0 15.62 7.74 15.62 15.88 0 6.97-5.94 15.62-15.63 15.62 -8.91 0-15.5-7.11-15.5-15.76 0-8.14 5.55-15.76 15.49-15.76Zm63.66 19.49c10.2 0 18.46 8.26 18.46 18.46 0 10.2-8.27 18.46-18.47 18.46 -10.21 0-18.47-8.27-18.47-18.47 0-10.21 8.26-18.47 18.46-18.47Zm24.53-6.72h-33.19l29.44-70.9h33.05l-29.32 70.89Z"/></svg>