<svg viewBox="0 0 512 176" xmlns="http://www.w3.org/2000/svg"><path fill="#FFF" d="M117.1.8l297.05 0 0 28.9 96.34 144.51 -509 0Z"/><g><path d="M414.96 0H116.67L-.01 175.01h512L414.95 29.45V-.02Zm-1.61 1.6v28.34l95.64 143.46h-506L117.52 1.59h295.81Z"/><g stroke="#000"><path d="M117.1.8l38.53 0L40.02 174.21l-38.54 0 57.8-86.71L1.47.79 40 .79l38.53 57.8Z"/><path d="M49.67 174.21l38.53 0L165.27 58.6l0 115.6 38.53 0 0-173.42 -38.54 0Z"/><path d="M211.84 174.21l38.53 0 0-115.61 38.53 57.8 38.53-57.81 0 115.6 38.53 0 0-173.42 -48.18 0 -28.91 57.8L250.33.76l-38.54 0Z"/><path d="M375.62 174.21l134.87 0 -25.7-38.54 -70.65 0 0-134.88 -38.54 0Z"/></g></g></svg>