<svg viewBox="0 0 256 218" xmlns="http://www.w3.org/2000/svg"><path fill="#265495" d="M245.76 97.86c-.54-.03-1.11-.04-1.69-.04 -9.85.01-80.62 7.78-77.07 14.99 3.53 7.13 47.11 10.6 78.17 10.61 6.5-1.13 11.22-7.02 10.77-13.74 -.42-5.91-4.71-10.63-10.21-11.84m-24 74.84c-27.25-14.93-67.11-32.87-73.65-28.3 -6.59 4.6 51.72 45.46 60.34 50.2 .52.28 1.01.54 1.48.79 5.42 1.57 11.43-.5 14.64-5.49 3.63-5.68 2.32-13.11-2.84-17.24m0-122.85c5.15-4.13 6.46-11.56 2.83-17.23 -3.22-4.99-9.23-7.06-14.65-5.48 -.48.24-.97.5-1.49.79 -8.63 4.75-66.93 45.6-60.35 50.21 6.53 4.56 46.4-13.38 73.64-28.31ZM58.34 159.16c-8.11 22.88-15.61 33.6-32.85 33.6 -1.67 0-7.47-.35-7.84-.38 -5.57-.29-10.76 3.33-12.26 8.92 -1.72 6.35 2.01 12.89 8.32 14.7 4.56.8 9.26 1.1 13.46 1.1 31.77 0 42.27-18.3 52.77-45l61.99-154.65c2.23-7.01-1.66-14.5-8.63-16.73 -6.85-2.18-14.1 1.44-16.55 8.09L73.19 123.93h-.69L26.68 7.94C23.57 1.38 15.91-1.82 8.99.77 1.89 3.43-1.76 11.19.57 18.33l57.7 140.77Z"/></svg>