<svg viewBox="0 0 256 256" xmlns="http://www.w3.org/2000/svg"><defs><linearGradient id="a" x1="65.797%" x2="2.104%" y1="66.686%" y2="5.573%"><stop offset="0%" stop-color="#905CFB"/><stop offset="7%" stop-color="#A554E6"/><stop offset="25%" stop-color="#D641B5"/><stop offset="39%" stop-color="#F43597"/><stop offset="47%" stop-color="#FF318C"/></linearGradient></defs><path fill="#0CB0F2" d="M83.61 98.19c42.34-38.63 89.38-81.7 90.75-83.06 2.12-2.16 4.39-4.17 6.79-6 17.86-13.17 42.52-12.01 59.06 2.8 16.54 14.8 20.43 39.17 9.32 58.39 -2.02 3.52-4.51 6.75-7.4 9.59 -9.4 9.39-45.4 47.59-45.4 47.59s47.19 45.39 47.99 45.99c11.69 9.36 14.68 25.93 6.99 38.79 -4.61 7.59-12.26 12.83-21 14.39 -2.6.45-36.92-32.58-74.82-59.3 -23.96 26.87-71.63 80.33-71.78 80.33 -20.24 14.15-45 6.35-56.2.19 -15.54-9.08-25.83-25.02-27.68-42.92 -1.86-17.9 4.93-35.61 18.27-47.68 6.59-6 34.59-31.4 64.99-59.2l.03.02Z"/><path fill="url(#a)" d="M167.8 111.98c-1.37-9.38-6.35-17.85-13.87-23.61l-73.72-74.6C67.73 1.27 49.3-3.17 32.5 2.27 15.69 7.7 3.36 22.1.57 39.54 -2.22 56.97 5 74.5 19.27 84.91l88.98 62.12c12.02 9.35 28.54 10.41 41.67 2.68 13.12-7.74 20.2-22.71 17.84-37.76v0Z"/><path d="M47.85 48.76h159.38v159.38H47.84Z"/><path fill="#FFF" d="M63.99 175.87h58.37v10.55H63.98v-10.56Zm21.31-63.96L58.4 69.67h17.93l16.73 28.09 16.93-28.1h17.49l-26.9 42.03v27.89H85.23v-27.7h.03Zm65.74-28.1h-21.32V69.66h57.77V83.8h-21.12v55.58h-15.35V83.79Z"/></svg>