<svg viewBox="0 0 512 234" xmlns="http://www.w3.org/2000/svg"><path fill="#FF4A00" d="M242.25 83.8c5.88 0 11.35.98 16.39 2.93 5.03 1.95 9.35 4.99 12.95 9.1 3.59 4.11 6.41 9.33 8.44 15.66 2.02 6.33 3.04 13.8 3.04 22.42 0 17.23-4.68 30.71-14.04 40.43 -9.37 9.72-22.61 14.58-39.76 14.58 -2.88 0-5.83-.2-8.84-.59 -3.02-.4-5.63-.92-7.86-1.57v46.01c-1.58.25-3.24.45-5.01.58 -1.77.12-3.38.19-4.82.19 -1.45 0-3.05-.07-4.81-.2 -1.77-.14-3.38-.33-4.81-.59V86.08c1.3-.26 2.64-.46 4.02-.59 1.37-.13 2.78-.2 4.22-.2 1.3 0 2.68.06 4.12.19 1.43.13 2.81.32 4.12.58 .12.26.29 1.07.48 2.45 .19 1.36.39 2.83.59 4.4 .19 1.56.39 3.07.58 4.5 .19 1.43.29 2.35.29 2.74 1.3-2.1 2.87-4.12 4.71-6.08 1.83-1.96 4.02-3.73 6.57-5.29 2.55-1.57 5.42-2.81 8.63-3.73 3.2-.92 6.76-1.38 10.69-1.38Zm-110.33 0c13.08 0 23.03 2.97 29.83 8.9 6.8 5.94 10.2 15.43 10.2 28.48v62.85c-4.59 1.04-10.15 2.12-16.69 3.23 -6.55 1.1-13.23 1.66-20.03 1.66 -6.42 0-12.21-.59-17.38-1.77 -5.18-1.18-9.56-3.07-13.16-5.69 -3.61-2.61-6.39-5.94-8.35-9.99 -1.97-4.05-2.95-8.94-2.95-14.69 0-5.61 1.14-10.54 3.43-14.79 2.28-4.24 5.39-7.77 9.32-10.58 3.92-2.81 8.44-4.9 13.54-6.27 5.1-1.38 10.47-2.06 16.09-2.06 4.18 0 7.62.1 10.3.29 2.68.2 4.94.42 6.77.68v-3.73c0-7.71-1.97-13.06-5.89-16.06 -3.93-3-9.62-4.51-17.08-4.51 -4.59 0-8.87.36-12.86 1.07 -4 .71-7.9 1.66-11.69 2.83 -2.49-4.31-3.73-9.46-3.73-15.47 4.44-1.44 9.35-2.55 14.72-3.33 5.36-.79 10.53-1.18 15.5-1.18Zm-50.06 2.34l.98 2.54 -53.4 82.43H79.5c.38 2.61.58 5.28.58 8.02 0 2.61-.21 5.09-.59 7.44H.96l-.99-2.75 53-82.25H6.24c-.4-2.36-.6-4.96-.6-7.84 0-2.74.19-5.29.59-7.64h75.58Zm55.94 52.08c-8.12 0-14.31 1.5-18.56 4.5 -4.26 3-6.39 7.57-6.39 13.7 0 3.91.71 6.98 2.16 9.2 1.43 2.22 3.23 3.91 5.39 5.09 2.15 1.17 4.54 1.89 7.16 2.15 2.61.26 5.1.39 7.45.39 3.01 0 6.11-.17 9.32-.5 3.2-.33 6.05-.82 8.54-1.47v0 -31.92c-1.97-.27-4.45-.52-7.46-.79 -3.02-.27-5.57-.4-7.66-.4Zm100.11-37.6c-3.28 0-6.42.58-9.43 1.76 -3.02 1.16-5.7 2.93-8.05 5.28 -2.36 2.35-4.26 5.32-5.69 8.91 -1.45 3.59-2.17 7.86-2.17 12.82v0 40.72c2.48.91 5.03 1.56 7.65 1.95 2.61.38 6.01.58 10.2.58 4.71 0 9.02-.76 12.95-2.26 3.92-1.5 7.29-3.82 10.1-6.96 2.81-3.14 5.03-7.08 6.67-11.85 1.63-4.77 2.45-10.41 2.45-16.94 0-10.45-1.94-18.74-5.8-24.88 -3.87-6.14-10.18-9.21-18.95-9.21Zm157.05-16.85c6.93 0 13.02 1.17 18.25 3.52s9.61 5.57 13.15 9.69c3.52 4.11 6.21 9 8.04 14.68 1.83 5.67 2.75 11.84 2.75 18.5 0 1.82-.07 3.75-.21 5.77 -.13 2.02-.27 3.75-.39 5.18v0h-68.52c.26 10.96 3.1 18.99 8.54 24.08 5.43 5.08 13.44 7.63 24.04 7.63 9.29 0 18.12-1.64 26.5-4.9 1.04 1.95 1.89 4.33 2.55 7.14 .65 2.81 1.04 5.58 1.17 8.32 -4.32 1.82-9.07 3.19-14.24 4.11 -5.18.9-10.9 1.36-17.18 1.36 -9.17 0-17.02-1.28-23.56-3.82 -6.55-2.55-11.95-6.14-16.2-10.77 -4.26-4.64-7.37-10.12-9.33-16.45 -1.97-6.34-2.95-13.29-2.95-20.86 0-7.44.94-14.39 2.84-20.86 1.89-6.46 4.81-12.07 8.73-16.84 3.92-4.77 8.86-8.55 14.82-11.36 5.95-2.81 12.98-4.22 21.1-4.22Zm-68.71 2.34v100.45c-1.45.25-3.05.44-4.82.58 -1.77.12-3.38.19-4.82.19 -1.31 0-2.85-.07-4.62-.2 -1.77-.14-3.38-.33-4.82-.59v-85.19H294.4c-.27-1.05-.46-2.26-.59-3.63 -.14-1.37-.2-2.71-.2-4.02 0-1.31.06-2.65.19-4.02 .12-1.37.32-2.58.58-3.63h31.8Zm91.67 40.53c0-3.66-.5-7.15-1.48-10.49 -.99-3.33-2.43-6.23-4.32-8.72 -1.91-2.48-4.32-4.48-7.27-5.97 -2.95-1.51-6.45-2.26-10.51-2.26 -7.99 0-14.11 2.41-18.36 7.24 -4.26 4.82-6.84 11.55-7.76 20.16h49.67Zm48.89-41.32c1.43 0 2.87.06 4.31.19 1.43.13 2.74.32 3.92.58 .38 1.95.78 4.54 1.17 7.73 .39 3.2.59 5.9.59 8.12 2.74-4.44 6.38-8.3 10.89-11.56 4.51-3.26 10.3-4.9 17.37-4.9 1.04 0 2.12.03 3.23.09 1.1.06 2.06.16 2.84.29 .25 1.17.45 2.42.58 3.72 .13 1.3.19 2.67.19 4.11 0 1.56-.1 3.19-.3 4.89 -.2 1.69-.43 3.33-.69 4.89 -1.06-.26-2.13-.39-3.25-.39v0h-2.65c-3.54 0-6.91.49-10.12 1.46 -3.22.98-6.09 2.7-8.64 5.18 -2.55 2.48-4.59 5.87-6.09 10.18 -1.51 4.3-2.26 9.85-2.26 16.63v0 49.93c-1.45.25-3.05.45-4.82.58 -1.77.12-3.38.19-4.81.19 -1.45 0-3.05-.07-4.82-.2 -1.77-.14-3.44-.33-5.01-.59v0V85.98c1.43-.26 2.81-.46 4.12-.59 1.3-.13 2.68-.2 4.12-.2ZM312.65-.06c1.84 0 3.65.15 5.41.45v0 18.97l13.45-13.42c1.48 1.05 2.87 2.22 4.16 3.51 1.28 1.28 2.46 2.67 3.52 4.15v0l-13.46 13.41h19.02c.29 1.75.45 3.55.45 5.39v0 .04c0 1.83-.16 3.64-.46 5.39v0h-19.03l13.45 13.41c-1.06 1.48-2.24 2.87-3.52 4.15v0c-1.29 1.28-2.68 2.45-4.17 3.51v0l-13.46-13.42v18.97c-1.76.29-3.57.44-5.41.45v0h-.05c-1.85-.01-3.65-.16-5.41-.46v0V45.46l-13.46 13.41c-2.98-2.11-5.57-4.71-7.69-7.67v0l13.45-13.42h-19.03c-.3-1.76-.46-3.57-.46-5.41v0 -.03c0-.52.03-1.18.08-1.85l.03-.45c.13-1.58.33-3.11.33-3.11v0h19.02l-13.46-13.42c1.05-1.49 2.23-2.87 3.51-4.15v0c1.28-1.29 2.68-2.47 4.16-3.52v0l13.45 13.41V.27c1.76-.3 3.56-.45 5.41-.46v0Zm-.01 24.38h-.04c-2.43 0-4.74.44-6.89 1.24 -.81 2.13-1.25 4.44-1.26 6.86v.03c0 2.41.44 4.72 1.25 6.86 2.14.8 4.45 1.24 6.87 1.24h.03c2.42 0 4.73-.45 6.87-1.25 .8-2.14 1.25-4.45 1.25-6.87v-.04c0-2.42-.45-4.73-1.26-6.87 -2.15-.81-4.46-1.25-6.88-1.25Z"/></svg>