<svg viewBox="0 0 512 99" xmlns="http://www.w3.org/2000/svg"><path fill="#03363D" d="M340.96 29.14c21.89 0 34.31 16.72 33.2 39.94H322.5c1.48 9.83 10.43 16.76 20.32 15.76 6.77.16 13.32-2.4 18.19-7.1l9.02 9.78c-7.09 7.3-16.96 11.21-27.13 10.74 -22.06 0-36.3-14.71-36.3-34.58 -.21-9.19 3.33-18.07 9.8-24.59 6.47-6.53 15.32-10.13 24.51-9.99Zm-236.39 0c21.89 0 34.31 16.72 33.2 39.94H86.16c1.48 9.81 10.4 16.74 20.27 15.76 6.77.16 13.32-2.4 18.19-7.1l9.02 9.78c-7.09 7.3-16.96 11.21-27.13 10.74 -22.06 0-36.3-14.71-36.3-34.58 -.21-9.19 3.33-18.07 9.8-24.59 6.47-6.53 15.32-10.13 24.51-9.99Zm333.5 12.41l-11.82 6.89c-3.32-4.92-8.93-7.78-14.86-7.56 -7.56 0-11.41 3.7-11.41 7.95s6.08 6.08 15.66 8.21c.21.04.43.09.65.14l.65.14c.32.07.66.15.99.22l.66.15c.22.05.44.1.66.16l.66.16v0l.66.17c9.36 2.5 18.26 6.86 18.26 18.58 0 9.17-7.96 21.49-26.82 21.39 -11.84.86-23.14-5.1-29.1-15.36l12.72-6.85c3.42 6.13 9.96 9.85 16.98 9.68 7.95 0 12.06-4.11 12.06-8.77 0-4.67-7.71-6.49-16.07-8.22 -.23-.05-.46-.1-.68-.15l-.68-.15c-.12-.03-.23-.06-.34-.08l-.68-.16c-10.51-2.43-20.59-6.52-20.59-19.25 0-10.5 10.13-20.28 25.65-20.28 10.53-.64 20.64 4.23 26.71 12.87ZM293.29-.02V96.9h-14.1v-9.13c-5.41 6.68-13.56 10.55-22.16 10.49 -9.02-.08-17.62-3.8-23.85-10.31 -6.24-6.52-9.58-15.27-9.26-24.28 -.39-9.05 2.94-17.85 9.21-24.37 6.27-6.53 14.94-10.2 23.98-10.16 8.49-.07 16.57 3.65 22.05 10.13V-.07h14.09ZM58.27 30.75v12.97L18.42 84.27h40.55v12.77H-.04V84.11L39.8 43.55H.86V30.72h57.38ZM464.37-.03v63.46l29.85-33.06h17.13L485.44 58.8l26.51 38.07h-15.87l-20.59-29.46 -11.16 12.21V96.9h-14.1V-.08h14.09ZM182.06 29.16c16.72 0 30.82 10.89 30.82 28.94v0 38.78h-14.5V59.87c0-10.85-5.28-17.39-15.92-17.39 -4.66-.35-9.23 1.39-12.47 4.75 -3.25 3.35-4.83 7.98-4.32 12.62v0 37h-14.35V58.06c0-18.05 13.99-28.95 30.72-28.95Zm76.9 13.53c-11.6 0-20.99 9.39-20.99 20.98s9.39 20.98 20.98 20.98 20.98-9.4 20.98-20.99c0-11.6-9.4-20.99-20.99-20.99Zm63.46 15.25l36.14.05c-.5-9.15-8.3-16.16-17.44-15.67 -9.38-.56-17.58 6.28-18.71 15.61Zm-236.29 0l36.04.05c-.52-9.13-8.32-16.11-17.44-15.62 -9.33-.5-17.45 6.29-18.61 15.56Z"/></svg>