<svg viewBox="0 0 24 24" xmlns="http://www.w3.org/2000/svg"><path fill="none" d="M0 0h24v24H0Z"/><path d="M16 2l5 5v13.99h0c0 .55-.45 1-1 1 -.01 0-.01 0-.01 0H3.97v0c-.55-.01-.99-.45-1-1V2.97c-.001-.55.44-1 .99-1h12Zm0 6.66H8V7.32h3.333V5.98h1.33l-.01 1.33h2.333l0-3.333h-10v16h14v-12l-3-.01v.66Zm-6.67 6v1.99h6.66v1.33h-8V14.64h1.33Zm2.66-.34v-.001c.55-.01 1 .44 1 .99s-.45 1-1 1c-.01 0-.01 0-.01 0v0c-.56 0-1-.45-1-1 0-.56.44-1 1-1Zm0-5.333v0c1.38 0 2.5 1.11 2.5 2.5 0 1.38-1.12 2.5-2.5 2.5v0c-1.39 0-2.5-1.12-2.5-2.5 0-1.39 1.11-2.5 2.5-2.5Zm0 1.33v0c-.65-.01-1.17.52-1.17 1.16 -.01.64.52 1.16 1.16 1.16 0 0 0 0 0 0v0c.64-.01 1.16-.53 1.16-1.17 -.01-.65-.53-1.17-1.17-1.17Z"/></svg>