<svg viewBox="0 0 24 24" xmlns="http://www.w3.org/2000/svg" xmlns:xlink="http://www.w3.org/1999/xlink"><defs><path d="M0 0h24v24H0Z" id="a"/></defs><g fill="none"><use xlink:href="#a"/><use xlink:href="#a"/></g><g><path d="M21.71 11.29l-9-9c-.39-.39-1.02-.39-1.41-.001l-3.09 3.09 4.79 4.79V7.49l3.15 3.15c.2.2.2.51 0 .71l-.98.98 3.45 3.45 3.09-3.09c.38-.38.38-1.01 0-1.41Z"/><path d="M6.79 6.79L3.51 3.51c-.39-.39-1.02-.39-1.41 0v0c-.39.39-.39 1.02 0 1.41L5.38 8.2l-3.09 3.09c-.39.39-.39 1.02 0 1.41l9 9c.39.39 1.02.39 1.41 0l3.09-3.09 3.28 3.28c.39.39 1.02.39 1.41 0v0c.39-.39.39-1.02 0-1.41L6.79 6.79ZM9.99 14c0 .55-.45 1-1 1s-1-.45-1-1v-3c0-.05.02-.1.03-.15l1.97 1.97V14Z"/></g></svg>