<svg viewBox="0 0 24 24" xmlns="http://www.w3.org/2000/svg"><path fill="none" d="M0 0h24v24H0V0Z"/><path d="M18.92 5.01C18.72 4.42 18.16 4 17.5 4h-11c-.66 0-1.21.42-1.42 1.01l-1.97 5.67c-.07.21-.11.43-.11.66v7.16c0 .83.67 1.5 1.5 1.5s1.5-.67 1.5-1.5V18h12v.5c0 .82.67 1.5 1.5 1.5 .82 0 1.5-.67 1.5-1.5v-7.16c0-.22-.04-.45-.11-.66l-1.97-5.67ZM6.5 15c-.83 0-1.5-.67-1.5-1.5s.67-1.5 1.5-1.5 1.5.67 1.5 1.5 -.67 1.5-1.5 1.5Zm11 0c-.83 0-1.5-.67-1.5-1.5s.67-1.5 1.5-1.5 1.5.67 1.5 1.5 -.67 1.5-1.5 1.5ZM5 10l1.27-3.82c.14-.4.52-.68.95-.68h9.56c.43 0 .81.28.95.68L19 10H5Z"/></svg>