<svg viewBox="0 0 24 24" xmlns="http://www.w3.org/2000/svg"><path fill="none" d="M0 0h24v24H0Z"/><g><path d="M20 10a2 2 0 1 0 0 4 2 2 0 1 0 0-4Z"/><path d="M4 10a2 2 0 1 0 0 4 2 2 0 1 0 0-4Z"/><path d="M12 18a2 2 0 1 0 0 4 2 2 0 1 0 0-4Z"/><path d="M10.05 8.59L6.03 4.55h-.01l-.31-.32 -1.42 1.41 4.02 4.05 .01-.01 .31.32Zm3.89.02l4.4-4.392 1.41 1.415 -4.41 4.39ZM10 15.35l-1.42-1.41 -4.03 4.01 -.32.33 1.41 1.41 4.03-4.02Zm9.75 2.94l-3.99-4.01 -.36-.35 -1.41 1.41 3.99 4.01 .35.35Z"/><path d="M12 2a2 2 0 1 0 0 4 2 2 0 1 0 0-4Z"/></g></svg>