<svg viewBox="0 0 24 24" xmlns="http://www.w3.org/2000/svg"><path fill="none" d="M0 0h24v24H0Z"/><path d="M16 17.47v-.001c1.09.98 2.52 1.53 4 1.52h2v2h-2v0c-1.41 0-2.79-.37-4-1.07v0c-1.22.7-2.6 1.07-4 1.07h-.001c-1.41 0-2.79-.37-4-1.07v0c-1.22.7-2.6 1.07-4 1.07h-2v-2h2c1.537 0 2.94-.58 4-1.53l0 0c1.09.98 2.52 1.53 4 1.52 1.53 0 2.94-.58 4-1.53ZM12.57 1.53l.1.08 10.327 9.38h-3v6h-.001c-1.58 0-3.06-.74-4-2l-.001 0c-.95 1.26-2.43 2-4 2v0c-1.58 0-3.06-.74-4-2H7.99c-.95 1.26-2.43 2-4 2l-.01-6h-3L11.311 1.6v0c.31-.29.76-.35 1.14-.15l.1.06Z"/></svg>