<svg viewBox="0 0 24 24" xmlns="http://www.w3.org/2000/svg"><path fill="none" d="M0 0h24v24H0Z"/><path d="M18.99 17.794v0c-.12-2.21-2-3.91-4.2-3.8 -.3.01-.6.06-.89.14v0c-.48-2.16-2.61-3.53-4.77-3.06 -1.84.4-3.15 2.02-3.15 3.9 0 1.08.42 2.05 1.12 2.77v0c-4.3-1.04-6.94-5.37-5.9-9.66 1.03-4.3 5.36-6.94 9.65-5.9 2.54.61 4.62 2.43 5.57 4.87v0c2.97-.6 5.87 1.34 6.46 4.31 .56 2.82-1.16 5.6-3.94 6.37Zm-9-.8v0c-1.11 0-2-.9-2-2 0-1.11.89-2 2-2v0c1.1 0 2 .89 2 2 0 1.1-.9 2-2 2Zm5 3v0c-1.11 0-2-.9-2-2 0-1.11.89-2 2-2v0c1.1 0 2 .89 2 2 0 1.1-.9 2-2 2Zm-5 3v0c-1.11 0-2-.9-2-2 0-1.11.89-2 2-2v0c1.1 0 2 .89 2 2 0 1.1-.9 2-2 2Z"/></svg>