<svg viewBox="0 0 24 24" xmlns="http://www.w3.org/2000/svg"><path fill="none" d="M0 0h24v24H0Z"/><path d="M6.083 13l-.001 0C5.532 9.73 7.73 6.63 11 6.08c3.26-.55 6.36 1.65 6.91 4.92 .11.65.11 1.33 0 1.98h-2.05v0c.55-2.14-.74-4.32-2.88-4.88 -2.14-.56-4.32.73-4.88 2.87 -.17.65-.17 1.33 0 1.99H6.05ZM2 15h10v2H2v-2Zm12 0h8v2h-8v-2Zm2 4h4v2h-4v-2ZM4 19h10v2H4v-2Zm7-18h2v3h-2V1ZM3.51 4.92l1.41-1.42 2.12 2.12 -1.42 1.41 -2.13-2.12ZM19.07 3.5l1.41 1.41 -2.13 2.12 -1.42-1.42 2.12-2.121ZM23 10.985v2h-3v-2h3Zm-19 0v2H1v-2h3Z"/></svg>