<svg viewBox="0 0 24 24" xmlns="http://www.w3.org/2000/svg"><path fill="none" d="M0 0h24v24H0Z"/><path d="M8.67 5.007l0-.001c1.34-2.86 4.44-4.46 7.55-3.91v0c-.78 2.36.51 4.9 2.88 5.67 .9.29 1.88.29 2.79-.001 .07.39.1.8.1 1.22v0c0 1.17-.3 2.33-.87 3.373v0c2.27 2 2.49 5.48.49 7.76 -1.05 1.18-2.55 1.86-4.13 1.86h-8.5v0c-4.42-.01-8-3.59-8-8.01 0-4.29 3.38-7.81 7.66-7.99Zm2.17.2V5.2c2.55.6 4.65 2.43 5.61 4.885v0c.99-.19 2.01-.11 2.96.24 .22-.43.39-.89.48-1.37v0c-3.13-.29-5.6-2.76-5.88-5.88v0c-1.3.25-2.45 1.02-3.18 2.12Zm6.65 13.78v-.001c1.93-.01 3.49-1.57 3.49-3.51 -.01-1.94-1.57-3.5-3.51-3.5 -.95 0-1.85.37-2.5 1.04v-.05 0c0-3.32-2.69-6-6-6 -3.32 0-6 2.68-6 6 0 3.31 2.68 6 6 6h8.5Z"/></svg>