<svg viewBox="0 0 24 24" xmlns="http://www.w3.org/2000/svg"><path fill="none" d="M0 0h24v24H0Z"/><path d="M12 4c6.07 0 11 4.92 11 11v5h-2v-5 0c-.01-4.87-3.87-8.86-8.735-9l-.27-.01v0c-4.87 0-8.86 3.86-8.996 8.73l-.01.26v5h-2v-5c0-6.08 4.925-11 11-11Zm0 4v0c3.86 0 7 3.13 7 7v5h-2v-5 0c-.01-2.68-2.11-4.88-4.79-5l-.22-.01h0c-2.68 0-4.88 2.1-5 4.78l-.01.21v5h-2v-5 0c0-3.87 3.13-7 7-7Zm0 4v0c1.65 0 3 1.34 3 3v5h-2v-5 0c-.01-.51-.38-.94-.89-1l-.12-.01v0c-.51 0-.94.37-1 .88l-.01.11v5h-2v-5 0c0-1.66 1.34-3 3-3Z"/></svg>