<svg viewBox="0 0 24 24" xmlns="http://www.w3.org/2000/svg"><path fill="none" d="M0 0h24v24H0Z"/><path d="M16 18v-2h1v0c2.2-.01 3.99-1.8 3.99-4.01 -.01-2.21-1.8-4-4.01-4 -.77 0-1.51.21-2.16.62v0c-.76-3.23-3.99-5.23-7.22-4.47 -3.23.75-5.23 3.98-4.47 7.21 .55 2.35 2.45 4.14 4.83 4.54v2.02h0c-4.39-.56-7.49-4.56-6.94-8.95 .5-4 3.9-7 7.93-7V1.95c2.89-.01 5.56 1.56 6.98 4.08v0c3.26-.57 6.36 1.62 6.93 4.89 .56 3.26-1.63 6.36-4.9 6.93 -.34.05-.68.08-1.02.08h-1Zm-5.77.73l1.76-1.77 1.76 1.76v0c.97.97.97 2.55-.01 3.53 -.98.97-2.56.97-3.54-.01s-.98-2.56-.001-3.54Z"/></svg>