<svg viewBox="0 0 24 24" xmlns="http://www.w3.org/2000/svg"><path fill="none" d="M0 0h24v24H0Z"/><path d="M12 18v0c-3.32 0-6-2.69-6-6 0-3.32 2.68-6 6-6v0c3.31 0 6 2.68 6 6 0 3.31-2.69 6-6 6Zm0-2v0c2.2 0 4-1.8 4-4 0-2.21-1.8-4-4-4v0c-2.21 0-4 1.79-4 4 0 2.2 1.79 4 4 4ZM11 1h2v3h-2V1Zm0 19h2v3h-2v-3ZM3.51 4.929l1.41-1.42 2.12 2.12 -1.42 1.41 -2.13-2.12Zm13.43 13.435l1.41-1.42 2.12 2.12 -1.42 1.41 -2.13-2.13Zm2.12-14.85l1.41 1.415 -2.13 2.12 -1.42-1.42L19.04 3.5ZM5.62 16.95l1.41 1.41 -2.13 2.12 -1.42-1.42 2.12-2.13ZM22.98 11v2h-3v-2h3Zm-19 0v2h-3v-2h3Z"/></svg>