<svg viewBox="0 0 24 24" xmlns="http://www.w3.org/2000/svg"><path fill="none" d="M0 0h24v24H0Z"/><path d="M17.65 1.7L14.86 4.23v0c1.29.39 2.48 1.06 3.49 1.97 3.51 3.2 3.51 8.38 0 11.58 -2.6 2.36-6.6 3.86-12.02 4.506l2.782-2.54h0c-1.3-.4-2.49-1.07-3.49-1.98 -3.52-3.2-3.533-8.37 0-11.59C8.22 3.81 12.22 2.31 17.647 1.67ZM11.99 6c-3.87 0-7 2.68-7 6 0 3.314 3.13 6 7 6 3.86 0 7-2.686 7-6s-3.14-6-7-6Zm0 2.3c2.21 0 4 1.657 4 3.7 0 2.04-1.79 3.7-4 3.7s-4-1.657-4-3.7c0-2.05 1.79-3.7 4-3.7Zm0 2c-1.14 0-2 .79-2 1.7 0 .9.86 1.7 2 1.7 1.13 0 2-.8 2-1.7 0-.91-.87-1.7-2-1.7Z"/></svg>