<svg viewBox="0 0 24 24" xmlns="http://www.w3.org/2000/svg"><path fill="none" d="M0 0h24v24H0Z"/><g><path d="M19.46 10v0c-.21.29-.23.67-.07 1h0c.24.57.42 1.18.52 1.81h-.001c.25 1.61.01 3.26-.69 4.73v0c-.18.32-.52.53-.89.53H5.67v0c-.38 0-.72-.21-.89-.54H4.78c-1.96-3.97-.33-8.76 3.63-10.72 1.41-.7 3-.97 4.57-.76v0c.72.08 1.43.27 2.11.56v0c.32.15.7.13 1-.07v0c.46-.31.58-.93.28-1.39 -.12-.17-.27-.3-.46-.38V4.76c-5.08-2.18-10.96.17-13.14 5.24 -1.25 2.9-1.05 6.22.54 8.96H3.31c.35.61 1 .99 1.72 1h13.85v0c.71 0 1.38-.38 1.74-1h0c1.56-2.72 1.76-6.01.55-8.89v0c-.24-.5-.84-.72-1.34-.49 -.18.08-.32.2-.42.37Z"/><path d="M10.59 12.59h-.001c-.79.78-.79 2.04 0 2.83 .78.78 2.04.78 2.83 0l5.66-8.49Z"/></g></svg>