<svg viewBox="0 0 24 24" xmlns="http://www.w3.org/2000/svg"><path fill="none" d="M0 0h24v24H0Z"/><path d="M12 19v0c.82 0 1.5.67 1.5 1.5 0 .82-.68 1.5-1.5 1.5v0c-.83 0-1.5-.68-1.5-1.5 0-.83.67-1.5 1.5-1.5Zm-5.5 0v0c.82 0 1.5.67 1.5 1.5 0 .82-.68 1.5-1.5 1.5v0c-.83 0-1.5-.68-1.5-1.5 0-.83.67-1.5 1.5-1.5Zm11 0v0c.82 0 1.5.67 1.5 1.5 0 .82-.68 1.5-1.5 1.5v0c-.83 0-1.5-.68-1.5-1.5 0-.83.67-1.5 1.5-1.5ZM13 2v2h6v2h-1.968l-.001-.001c-.78 2.32-2.01 4.46-3.63 6.3v0c1.54 1.37 3.35 2.41 5.32 3.04l-.54 1.93v0c-2.3-.73-4.42-1.94-6.21-3.548v-.001c-1.79 1.61-3.91 2.82-6.21 3.54l-.54-1.93 -.001 0c1.96-.63 3.78-1.67 5.32-3.05v0c-1.15-1.3-2.1-2.74-2.83-4.3h2.24l-.001-.001c.55 1.02 1.22 1.99 1.99 2.87v-.001c1.25-1.45 2.23-3.1 2.91-4.88l-9.91-.001v-2h6v-2h2Z"/></svg>