<svg viewBox="0 0 24 24" xmlns="http://www.w3.org/2000/svg"><path fill="none" d="M0 0h24v24H0Z"/><path d="M6 21.5c-1.94 0-3.5-1.57-3.5-3.5 0-1.94 1.56-3.5 3.5-3.5 1.585 0 2.92 1.05 3.35 2.5h5.645v-2h2V9.24l-2.25-2.25H8.98v2h-6v-6h6v2h5.757l3.24-3.25 4.24 4.244 -3.25 3.24v5.75h2v6h-6v-2H9.32c-.43 1.44-1.77 2.5-3.36 2.5Zm0-5c-.83 0-1.5.67-1.5 1.5 0 .82.67 1.5 1.5 1.5 .82 0 1.5-.68 1.5-1.5 0-.83-.68-1.5-1.5-1.5Zm13 .5h-2v2h2v-2ZM18 4.586l-1.42 1.41 1.41 1.41 1.41-1.42 -1.42-1.42Zm-11 .41H5v2h2v-2Z"/></svg>