<svg viewBox="0 0 24 24" xmlns="http://www.w3.org/2000/svg"><path fill="none" d="M0 0h24v24H0Z"/><path d="M18 3c1.657 0 3 1.343 3 3s-1.343 3-3 3h-3c-1.31 0-2.417-.84-2.83-2h-1.18c-1.1 0-2 .9-2 2v.17c1.16.41 2 1.52 2 2.82 0 1.3-.84 2.417-2 2.82v.17c0 1.1.9 2 2 2h1.17c.41-1.17 1.52-2 2.83-2h3c1.657 0 3 1.343 3 3s-1.343 3-3 3h-3c-1.31 0-2.417-.84-2.83-2h-1.18c-2.21 0-4-1.79-4-4h-2c-1.657 0-3-1.343-3-3s1.343-3 3-3h2c0-2.21 1.79-4 4-4h1.17c.41-1.165 1.52-2 2.83-2h3Zm0 14h-3c-.56 0-1 .44-1 1 0 .55.44 1 1 1h3c.55 0 1-.45 1-1 0-.56-.45-1-1-1ZM8 11H5c-.56 0-1 .44-1 1 0 .55.44 1 1 1h3c.55 0 1-.45 1-1 0-.56-.45-1-1-1Zm10-6h-3c-.56 0-1 .44-1 1 0 .55.44 1 1 1h3c.55 0 1-.45 1-1 0-.56-.45-1-1-1Z"/></svg>