<svg viewBox="0 0 24 24" xmlns="http://www.w3.org/2000/svg"><path fill="none" d="M0 0h24v24H0Z"/><path d="M18.5 10l4.4 11h-2.16l-1.21-3h-4.09l-1.2 3H12.08l4.39-11h2ZM10 2v2h6v2h-1.968v0c-.78 2.32-2.01 4.46-3.62 6.3v-.001c.72.64 1.5 1.21 2.33 1.7l-.76 1.87 0 0c-1.08-.61-2.08-1.34-3-2.17v0c-1.79 1.61-3.91 2.82-6.21 3.54L2.23 15.3l0 0c1.96-.63 3.78-1.67 5.32-3.05l-.001-.001c-1.15-1.3-2.1-2.75-2.83-4.31h2.24l0-.001c.55 1.02 1.22 1.99 1.99 2.87l-.001-.001c1.25-1.45 2.23-3.1 2.91-4.88l-9.91-.01v-2h6v-2h2Zm7.5 10.88l-1.25 3.11h2.49l-1.25-3.12Z"/></svg>