<svg viewBox="0 0 15 15" xmlns="http://www.w3.org/2000/svg"><path d="M5.5 11.5H5v.5h.5v-.5Zm5 0v.5h.5v-.5h-.5Zm-4.5 0v-.51H5v.5h1Zm4-.5v.5h1V11h-1Zm.5 0h-5v1h5v-1ZM8 9c1.1 0 2 .89 2 2h1c0-1.66-1.35-3-3-3v1Zm-2 1.99c0-1.11.89-2 2-2v-1c-1.66 0-3 1.343-3 2.99h1Zm2-8c-1.11 0-2 .89-2 2h1c0-.56.44-1 1-1v-1Zm2 2c0-1.11-.9-2-2-2v1c.55 0 1 .44 1 1h1Zm-2 2c1.1 0 2-.9 2-2H9c0 .55-.45 1-1 1v1Zm0-1c-.56 0-1-.45-1-1H6c0 1.1.89 2 2 2v-1Zm-4.5-5h9v-1h-9v1Zm9.5.5v12h1v-12h-1Zm-.5 12.5h-9v1h9v-1Zm-9.5-.5v-12H2v12h1Zm.5.5c-.28 0-.5-.23-.5-.5H2c0 .82.67 1.5 1.5 1.5v-1Zm9.5-.5c0 .27-.23.5-.5.5v1c.82 0 1.5-.68 1.5-1.5h-1ZM12.5.99c.27 0 .5.22.5.5h1c0-.83-.68-1.5-1.5-1.5v1Zm-9-1c-.83 0-1.5.67-1.5 1.5h1c0-.28.22-.5.5-.5v-1Zm.5 4H1v1h3v-1Zm0 6H1v1h3v-1Z"/></svg>