<svg viewBox="0 0 15 15" xmlns="http://www.w3.org/2000/svg"><g fill="none" stroke="#000"><path d="M7.82 3.24c-.19 0-.35-.16-.35-.35 0-1.33 1.07-2.4 2.39-2.4 .18 0 .34.15.34.34 0 1.32-1.08 2.39-2.4 2.39Z"/><path d="M12.828 10.45c.13.09.17.27.1.42 -1.21 2.41-2.17 3.61-3.05 3.61 -.41 0-.82-.14-1.21-.39 -.58-.38-1.31-.4-1.9-.05 -.48.28-.93.43-1.36.43 -1.3 0-3.43-3.99-3.43-6.17 0-2.34 1.22-4.12 3.08-4.12 .87 0 1.63.12 2.26.39 .26.11.57.1.83-.03 .51-.25 1.19-.37 2.03-.37 1.02 0 1.92.51 2.67 1.5 .11.15.08.36-.07.47 -.84.62-1.24 1.32-1.24 2.12 0 .79.4 1.5 1.23 2.12Z"/></g></svg>