<svg viewBox="0 0 15 15" xmlns="http://www.w3.org/2000/svg"><path d="M.5 14.5H0v.5h.5v-.5Zm1.5-3v.5h1v-.5H2Zm13-9V2h-1v.5h1ZM0 0v14.5h1V0H0Zm.5 15H15v-1H.5v1ZM3 11.5c0-1.46.24-2.88.7-3.93 .47-1.06 1.09-1.58 1.79-1.58v-1c-1.3 0-2.18.98-2.71 2.17 -.54 1.2-.8 2.78-.8 4.32h1ZM5.5 6c.32 0 .64.15 1 .49 .36.33.71.79 1.09 1.3 .36.49.77 1.03 1.21 1.44 .44.41 1 .75 1.68.75v-1c-.33 0-.65-.16-1.01-.5 -.37-.34-.72-.8-1.1-1.31 -.37-.5-.78-1.04-1.22-1.45 -.45-.42-1.01-.76-1.69-.76v1Zm5 4c1.22 0 2.36-.77 3.17-2.05 .81-1.29 1.32-3.14 1.32-5.46h-1c0 2.18-.49 3.83-1.18 4.92 -.69 1.09-1.56 1.57-2.33 1.57v1Z"/></svg>