<svg viewBox="0 0 15 15" xmlns="http://www.w3.org/2000/svg"><path d="M6.5 1.5l-.36-.36c-.1.09-.15.22-.15.35h.5Zm1-1l.35-.36c-.2-.2-.52-.2-.71 0l.35.35Zm1 1H9c0-.14-.06-.26-.15-.36l-.36.35ZM6.5 9h2V8h-2v1Zm2.5.5v3h1v-3H9ZM8.5 13h-2v1h2v-1ZM6 12.5v-3H5v3h1Zm.5.5c-.28 0-.5-.23-.5-.5H5c0 .82.67 1.5 1.5 1.5v-1Zm2.5-.5c0 .27-.23.5-.5.5v1c.82 0 1.5-.68 1.5-1.5H9ZM8.5 9c.27 0 .5.22.5.5h1C10 8.67 9.32 8 8.5 8v1Zm-2-1C5.67 8 5 8.67 5 9.5h1c0-.28.22-.5.5-.5V8Zm.5.5v-5H6v5h1ZM6.5 4h2V3h-2v1ZM8 3.5v5h1v-5H8ZM7 13v2h1v-2H7Zm0-9.5v-2H6v2h1Zm-.15-1.65l1-1L7.14.14l-1 1 .7.7Zm.29-1l1 .99 .7-.71 -1-1.01 -.71.7Zm.85.64v2h1v-2h-1Z"/></svg>