<svg viewBox="0 0 15 15" xmlns="http://www.w3.org/2000/svg"><path d="M14.5 9.5v.5h.5v-.5h-.5Zm-14-7V2H0v.5h.5Zm0 10H0v.5h.5v-.5Zm7.5-3c0 1.93 1.56 3.5 3.5 3.5v-1C10.11 12 9 10.88 9 9.5H8ZM11.5 6C9.56 6 8 7.56 8 9.5h1C9 8.11 10.11 7 11.5 7V6ZM15 9.5C15 7.56 13.43 6 11.5 6v1C12.88 7 14 8.11 14 9.5h1Zm-1.48 1.46c-.46.62-1.2 1.03-2.03 1.03v1c1.16 0 2.2-.58 2.83-1.45l-.81-.59ZM.49 2.99h2.5v-1H.49v1Zm2.5 4H.49v1h2.5v-1Zm-2 .5v-5h-1v5h1Zm4-2.5c0 1.1-.9 2-2 2v1c1.65 0 3-1.35 3-3h-1Zm-2-2c1.1 0 2 .89 2 2h1c0-1.66-1.35-3-3-3v1Zm-2.5 5h3.5v-1H.49v1Zm3.5 4H.49v1h3.5v-1Zm-3 .5v-5h-1v5h1Zm5-2.5c0 1.1-.9 2-2 2v1c1.65 0 3-1.35 3-3h-1Zm-2-2c1.1 0 2 .89 2 2h1c0-1.66-1.35-3-3-3v1Zm4.5 2h6v-1h-6v1Zm.5-6h5v-1h-5v1Z"/></svg>