<svg viewBox="0 0 15 15" xmlns="http://www.w3.org/2000/svg"><path d="M.5.5V0C.35 0 .21.06.12.17c-.1.1-.14.25-.12.39L.49.48Zm14 0l.49.07c.02-.15-.03-.29-.12-.4 -.1-.11-.24-.18-.38-.18v.5Zm-2 14v.5c.24 0 .45-.19.49-.43l-.5-.08Zm-10 0l-.5.07c.03.24.24.42.49.42v-.5ZM5 4.5V4c-.14 0-.28.05-.37.16 -.1.1-.15.24-.14.38l.49-.05Zm4.5 6v.5c.26 0 .47-.2.49-.46l-.5-.05Zm-4 0l-.5.04c.02.25.23.45.49.45v-.5ZM.5 1h14V0H.5v1ZM14.005.42l-2 14 .99.14 2-14 -.99-.15Zm-1.51 13.57h-10v1h10v-1Zm-9.51.42L.98.4l-.99.14 2 13.99 .98-.15Zm2-9.43h5v-1h-5v1Zm4.5-.55l-.5 6 .99.08 .5-6 -1-.09Zm-.01 5.54h-4v1h4v-1Zm-3.51.45l-.5-6.01 -1 .08 .5 5.99 .99-.09Zm4-5.46h4v-1h-4v1Z"/></svg>