<svg viewBox="0 0 15 15" xmlns="http://www.w3.org/2000/svg"><path d="M4.07 6.46l.49.07v0l-.5-.08Zm-.02.07l-.5-.08v0l.49.07Zm6.85-.08l.49-.08v0l-.5.07Zm.01.07l-.5.07v0l.49-.08Zm-1.44 5.95v.5c.27 0 .5-.23.5-.5h-.5Zm-4 0h-.5c0 .27.22.5.5.5v-.5Zm-.75-3.35l.39-.31 -.4.3Zm5.48-.01l-.4-.31 .39.3Zm-4.25 5.84h3v-1h-3v1ZM3.53 6.34l-.02.07 .98.14 .01-.08 -.99-.15Zm3.91-3.4c-1.98 0-3.65 1.44-3.92 3.39l.98.14c.2-1.46 1.45-2.55 2.92-2.55v-1Zm3.91 3.39c-.28-1.96-1.95-3.4-3.92-3.4v1c1.47 0 2.72 1.08 2.92 2.54l.98-.15Zm.01.07l-.02-.08 -.99.14 .01.07 .99-.15Zm-.79 2.98c.62-.82.94-1.88.78-2.99l-.99.14c.11.83-.12 1.62-.6 2.23l.79.61Zm-1.64 1.44v1.59h1v-1.6h-1Zm.5 1.09h-4v1h4v-1Zm-3.5.5v-1.6h-1v1.59h1ZM3.5 6.37c-.16 1.11.15 2.17.78 2.98l.79-.62c-.48-.61-.71-1.41-.6-2.24l-.99-.15Zm2.42 4.43c0-.83-.44-1.53-.85-2.06l-.8.61c.38.49.63.96.63 1.44h1Zm3.84-2.06c-.42.53-.85 1.23-.85 2.05h1c0-.48.25-.95.63-1.45l-.8-.62ZM6.91-.11v2h1v-2h-1Zm-7 8h2v-1h-2v1Zm13 0h2v-1h-2v1ZM3.26 3.53l-1.5-1.5 -.71.7 1.5 1.5 .7-.71Zm9 .7l1.5-1.5 -.71-.71 -1.5 1.5 .7.7Z"/></svg>