<svg viewBox="0 0 15 15" xmlns="http://www.w3.org/2000/svg"><path d="M8.99 2.49v-.5 .5Zm-3.01 0v.5 -.5Zm6.85 9.42l-.36-.36 -.21.2 .06.27 .48-.13Zm.64 2.57l-.13.48c.17.04.35-.01.47-.14s.17-.31.13-.48l-.49.12Zm-4-1l-.36-.36 -.63.62 .85.21 .12-.49Zm.02-.03l.35.35c.14-.15.18-.38.09-.57 -.09-.2-.29-.31-.5-.29l.04.49ZM.46 7.97h-.5 .5Zm6.5-8v2.5h1v-2.5h-1Zm1.99 1.99l-3.01 0 0 1 3-.01 -.01-1Zm6 6c0-3.32-2.69-6.01-6.01-6l0 1c2.76-.01 5 2.23 5 5h1Zm-1.8 4.27c1.1-1.09 1.79-2.61 1.79-4.28h-1c0 1.39-.58 2.65-1.5 3.56l.7.71Zm.77 2.09l-.65-2.58 -.98.24 .64 2.57 .97-.25Zm-4.61-.4l4 1 .24-.98 -4-1 -.25.97Zm-.21-.87l-.03.02 .7.7 .02-.03 -.71-.71Zm-.18.87c.19 0 .38-.01.57-.03l-.1-1c-.16.01-.32.02-.48.02v1Zm-3.01 0h3v-1H5.9v1Zm-6-6.01c-.01 3.31 2.68 6 5.99 6v-1c-2.77 0-5-2.24-5-5.01h-1Zm5.99-6c-3.32 0-6 2.68-6 5.99h1c0-2.77 2.23-5 4.99-5l-.01-1Zm1.5 6c-.83 0-1.5-.68-1.5-1.5h-1c0 1.38 1.11 2.5 2.5 2.5v-1Zm1.5-1.5c0 .82-.68 1.5-1.5 1.5v1c1.38 0 2.5-1.12 2.5-2.5h-1Zm-1.5-1.5c.82 0 1.5.67 1.5 1.5h1c0-1.39-1.12-2.5-2.5-2.5v1Zm0-1c-1.39 0-2.5 1.11-2.5 2.5h1c0-.83.67-1.5 1.5-1.5v-1Zm-.01 8c1.06 0 2.04-.37 2.81-.99l-.63-.79c-.6.48-1.36.76-2.19.76v1Zm-2.82-.99c.77.61 1.74.98 2.81.98v-1c-.83 0-1.59-.29-2.19-.77l-.63.78Z"/></svg>