<svg viewBox="0 0 15 15" xmlns="http://www.w3.org/2000/svg"><path d="M1.5 8.5l-.4-.31c-.16.19-.14.48.04.66l.35-.36Zm5-7l-.36.35v0l.35-.36Zm2 2l.35.35 .35-.36 -.36-.36 -.36.35Zm-2 2l-.36.35 .35.35 .35-.36 -.36-.36Zm-2-2l-.36.35v0l.35-.36Zm3.13.86l.35.35v0l-.36-.36Zm-.28.27l-.36-.36v0l.35.35Zm.27 5.72l-.36-.36v0l.35.35Zm5.72-5.73l-.36-.36v0l.35.35Zm0-.28l-.36.35 .35-.36Zm-6 6l.35-.36 -.36.35Zm-5.37 4.63h11v-1h-11v1Zm5.85-.86l-6-6.01 -.71.7 6 6 .7-.71ZM1.86 8.77l3.5-4.5 -.79-.62 -3.5 4.5 .78.61Zm4.25-6.96l2 2 .7-.71 -2-2 -.71.7Zm2 1.29l-2 2 .7.7 2-2 -.71-.71Zm-1.3 2l-2-2 -.71.7 2 2 .7-.71Zm-2-3.3c.35-.36.93-.36 1.29 0l.7-.71c-.75-.75-1.96-.75-2.71 0l.7.7Zm-.71-.71c-.75.74-.75 1.95 0 2.7l.7-.71c-.36-.36-.36-.94 0-1.3l-.71-.71Zm3.13 2.86l-.28.27 .7.7 .27-.28 -.71-.71Zm.7 6.7l5.72-5.73 -.71-.71 -5.73 5.72 .7.7Zm5.72-5.73c.27-.28.27-.71 0-.98l-.71.7c-.12-.12-.12-.32 0-.44l.7.7Zm-6.71 5.72c.27.27.7.27.97 0l-.71-.71c.11-.12.31-.12.43 0l-.71.7Zm0-6.44c-1.78 1.77-1.78 4.65 0 6.43l.7-.71c-1.39-1.39-1.39-3.64 0-5.03l-.71-.71Zm.97.43c1.38-1.39 3.63-1.39 5.02 0l.7-.71c-1.78-1.78-4.66-1.78-6.44 0l.7.7Z"/></svg>