<svg viewBox="0 0 15 15" xmlns="http://www.w3.org/2000/svg"><path d="M10.5.5l.27-.42 -.13-.09h-.16v.5Zm3 2h.5v-.27l-.23-.15 -.28.41Zm-1 9.5h-8v1h8v-1ZM4 11.5v-10H3v10h1ZM4.5 1h6V0h-6v1ZM13 2.5v9h1v-9h-1ZM10.22.91l3 2 .55-.84 -3-2 -.56.83ZM4.49 11.99c-.28 0-.5-.23-.5-.5h-1c0 .82.67 1.5 1.5 1.5v-1Zm8 1c.82 0 1.5-.68 1.5-1.5h-1c0 .27-.23.5-.5.5v1Zm-8.5-11.5c0-.28.22-.5.5-.5v-1c-.83 0-1.5.67-1.5 1.5h1Zm-3 2v10h1v-10h-1Zm1.5 11.5h8v-1h-8v1Zm0-12h1v-1h-1v1Zm9.5 10.5v-1h-1v1h1Zm-1.5 1.5c.82 0 1.5-.68 1.5-1.5h-1c0 .27-.23.5-.5.5v1Zm-9.5-1.5c0 .82.67 1.5 1.5 1.5v-1c-.28 0-.5-.23-.5-.5h-1Zm1-10c0-.28.22-.5.5-.5v-1c-.83 0-1.5.67-1.5 1.5h1Z"/></svg>