<svg viewBox="0 0 15 15" xmlns="http://www.w3.org/2000/svg"><path d="M6.14 9.85l.35.35 .7-.71 -.36-.36 -.71.7ZM4.49 7.49l-.36-.36 -.36.35 .35.35 .35-.36Zm2.35-1.65l.35-.36 -.71-.71 -.36.35 .7.7Zm2.29 4l.35.35 .7-.71 -.36-.36 -.71.7ZM7.48 7.48l-.36-.36 -.36.35 .35.35 .35-.36Zm2.35-1.65l.35-.36 -.71-.71 -.36.35 .7.7Zm-3 3.29l-2-2 -.71.7 2 2 .7-.71Zm-2-1.3l2-2 -.71-.71 -2 2 .7.7Zm5 1.29l-2-2 -.71.7 2 2 .7-.71Zm-2-1.3l2-2 -.71-.71 -2 2 .7.7Zm-.36 7.14c4.14 0 7.5-3.36 7.5-7.5h-1c0 3.58-2.92 6.5-6.5 6.5v1Zm-7.5-7.5c0 4.14 3.35 7.5 7.5 7.5v-1c-3.59 0-6.5-2.92-6.5-6.5h-1Zm7.5-7.5c-4.15 0-7.5 3.35-7.5 7.5h1c0-3.59 2.91-6.5 6.5-6.5v-1Zm0 1c3.58 0 6.5 2.91 6.5 6.5h1c0-4.15-3.36-7.5-7.5-7.5v1Z"/></svg>