<svg viewBox="0 0 15 15" xmlns="http://www.w3.org/2000/svg"><path d="M5.14 6.14l-.36.35 .7.7 .35-.36 -.71-.71Zm2.35-1.65l.35-.36 -.36-.36 -.36.35 .35.35Zm1.64 2.35l.35.35 .7-.71 -.36-.36 -.71.7Zm-4 2.29l-.36.35 .7.7 .35-.36 -.71-.71Zm2.35-1.65l.35-.36 -.36-.36 -.36.35 .35.35Zm1.64 2.35l.35.35 .7-.71 -.36-.36 -.71.7ZM.47 7.47h-.5 .5Zm7 7v.5 -.5Zm0-14v.5 -.5Zm7 7h-.5 .5Zm-8.65-.65l2-2 -.71-.71 -2 2 .7.7Zm1.29-2l2 2 .7-.71 -2-2 -.71.7Zm-1.3 5l2-2 -.71-.71 -2 2 .7.7Zm1.29-2l2 2 .7-.71 -2-2 -.71.7Zm-7.15-.36c-.01 4.14 3.35 7.5 7.5 7.5v-1c-3.59 0-6.5-2.92-6.5-6.5h-1Zm7.5-7.5C3.3-.05-.05 3.31-.05 7.46h1c0-3.59 2.91-6.5 6.5-6.5v-1Zm7.5 7.5c0-4.15-3.36-7.5-7.5-7.5v1c3.58 0 6.5 2.91 6.5 6.5h1Zm-1 0c0 3.58-2.92 6.5-6.5 6.5v1c4.14 0 7.5-3.36 7.5-7.5h-1Z"/></svg>