<svg viewBox="0 0 15 15" xmlns="http://www.w3.org/2000/svg"><path d="M9.85 8.85l.35-.36 -.71-.71 -.36.35 .7.7Zm-2.36 1.64l-.36.35 .35.35 .35-.36 -.36-.36ZM5.84 8.13l-.36-.36 -.71.7 .35.35 .7-.71Zm4-2.3l.35-.36 -.71-.71 -.36.35 .7.7ZM7.48 7.47l-.36.35 .35.35 .35-.36 -.36-.36ZM5.83 5.11l-.36-.36 -.71.7 .35.35 .7-.71Zm8.64 2.35h-.5 .5Zm-7-7v.5 -.5Zm0 14v.5 -.5Zm-7-7h-.5 .5Zm8.64.64l-2 1.99 .7.7 2-2.01 -.71-.71Zm-1.3 1.99l-2-2 -.71.7 2 2 .7-.71Zm1.29-5l-2 2 .7.7 2-2 -.71-.71Zm-1.3 2l-2-2 -.71.7 2 2 .7-.71Zm7.14.35c0-4.15-3.36-7.5-7.5-7.5v1c3.58 0 6.5 2.91 6.5 6.5h1Zm-7.5 7.5c4.14 0 7.5-3.36 7.5-7.5h-1c0 3.58-2.92 6.5-6.5 6.5v1Zm-7.5-7.5c-.01 4.14 3.35 7.5 7.5 7.5v-1c-3.59 0-6.5-2.92-6.5-6.5h-1Zm1 0c0-3.59 2.91-6.5 6.5-6.5v-1c-4.15-.01-7.5 3.35-7.5 7.5h1Z"/></svg>