<svg viewBox="0 0 15 15" xmlns="http://www.w3.org/2000/svg"><path d="M4.85 6.14l-.36-.36 -.71.7 .35.35 .7-.71Zm2.64 3.35l-.36.35 .35.35 .35-.36 -.36-.36Zm3.35-2.65l.35-.36 -.71-.71 -.36.35 .7.7Zm-6.71 0l3 3 .7-.71 -3-3 -.71.7Zm3.7 3l3-3 -.71-.71 -3 3 .7.7Zm6.14-2.36c0 3.58-2.92 6.5-6.5 6.5v1c4.14 0 7.5-3.36 7.5-7.5h-1ZM7.47.98c3.58 0 6.5 2.91 6.5 6.5h1c0-4.15-3.36-7.5-7.5-7.5v1Zm-6.5 6.5c0-3.59 2.91-6.5 6.5-6.5v-1c-4.15-.01-7.5 3.35-7.5 7.5h1Zm-1 0c-.01 4.14 3.35 7.5 7.5 7.5v-1c-3.59 0-6.5-2.92-6.5-6.5h-1Z"/></svg>