<svg viewBox="0 0 15 15" xmlns="http://www.w3.org/2000/svg"><path d="M7.5 7.5l.13-.49c-.18-.05-.37-.01-.5.12 -.13.12-.18.31-.13.49l.48-.14Zm2 7l-.49.13c.05.2.23.34.44.36 .21.01.4-.11.49-.31l-.46-.2Zm5-5l.19.45c.19-.09.31-.29.3-.5 -.02-.22-.16-.4-.37-.45l-.14.48ZM11 11l-.2-.46c-.12.05-.22.14-.27.26l.45.19ZM3.5 3.5V3H3v.5h.5Zm10 0h.5V3h-.5v.5Zm-10 10H3v.5h.5v-.5ZM0 1h1V0H0v1Zm4 0h1V0H4v1Zm4 0h1V0H8v1ZM0 5h1V4H0v1Zm0 4h1V8H0v1Zm7.01-1.37l2 7 .96-.28 -2-7L7 7.62Zm7.61 1.38l-7.01-2 -.28.96 6.99 2 .27-.97Zm-4.68 5.67l1.5-3.5 -.92-.4 -1.5 3.5 .91.39Zm1.23-3.24l3.5-1.51 -.4-.92 -3.5 1.49 .39.91Zm-7.7-7.46h10v-1h-10v1Zm9.5-.5v3.5h1v-3.5h-1Zm-10 0v10h1v-10h-1Zm.5 10.5h3.5v-1h-3.5v1Z"/></svg>