<svg viewBox="0 0 15 15" xmlns="http://www.w3.org/2000/svg"><path d="M.5 12.5l-.36-.36 -.15.14v.2h.5ZM8 5l.35-.36c-.2-.2-.52-.2-.71 0l.35.35Zm2 2l.35.35c.19-.2.19-.52 0-.71l-.36.35Zm-7.5 7.5v.5h.2l.14-.15 -.36-.36Zm-2 0H0c0 .27.22.5.5.5v-.5Zm7-10l-.36-.36 -.36.35 .35.35 .35-.36Zm3.08-3.09l-.36-.36 .35.35Zm2.82 0l-.36.35v0l.35-.36Zm.17.17l.35-.36v0l-.36.35Zm0 2.82l-.36-.36 .35.35Zm-3.09 3.08l-.36.35 .35.35 .35-.36 -.36-.36ZM.83 12.83l7.49-7.51 -.71-.71 -7.51 7.5 .7.7Zm6.79-7.51l2 2 .7-.71 -2.01-2 -.71.7Zm2 1.29l-7.5 7.5 .7.7 7.5-7.51 -.71-.71Zm-7.15 7.35h-2v1h2v-1Zm-1.5.5v-2h-1v2h1ZM6.11 3.81l4.99 5 .7-.71 -5.01-5 -.71.7Zm1.7 1l3.08-3.09 -.71-.71 -3.09 3.08 .7.7Zm5.2-3.09l.17.17 .7-.71L13.7 1l-.71.7Zm.17 2.29l-3.09 3.08 .7.7 3.08-3.09 -.71-.71ZM10.8 7.09l-3.01-3 -.71.7 2.99 3 .7-.71Zm2.37-5.21c.58.58.58 1.53 0 2.12l.7.7c.97-.98.97-2.56 0-3.54l-.71.7Zm-2.3-.18c.58-.59 1.53-.59 2.12 0l.7-.71c-.98-.98-2.56-.98-3.54 0l.7.7Z"/></svg>