<svg viewBox="0 0 15 15" xmlns="http://www.w3.org/2000/svg"><path d="M7.5.5l.38-.33c-.1-.12-.24-.18-.39-.18 -.15 0-.29.06-.39.17l.38.32Zm-5 6l-.39-.33c-.14.16-.16.4-.04.58l.42-.27Zm5 8l-.43.26c.09.14.25.23.42.23 .17 0 .33-.09.42-.24l-.43-.27Zm5-8l.42.26c.11-.19.09-.42-.04-.59l-.39.32Zm-5-2l.18-.47 -.19-.08 -.19.07 .18.46ZM7.11.17l-5 6 .76.64 5-6L7.1.16ZM2.07 6.75l5 8 .84-.53 -5-8 -.85.53Zm5.848 8l5-8 -.85-.53 -5 8 .84.53Zm4.96-8.59l-5-6.01 -.77.64 5 5.99 .76-.65Zm-10.2.78l5-2 -.38-.93 -5 2 .37.92Zm4.62-2l5 2 .37-.93 -5-2 -.38.92Z"/></svg>