<svg viewBox="0 0 15 15" xmlns="http://www.w3.org/2000/svg"><path d="M4 6h1V5H4v1Zm6 0h1V5h-1v1Zm.1 2.7c-1.3 1.73-3.9 1.73-5.2 0l-.8.6c1.7 2.26 5.1 2.26 6.8 0l-.8-.6ZM1 5V2.5H0V5h1Zm1.5-4H5v-1H2.5v1ZM1 2.5C1 1.67 1.67 1 2.5 1v-1C1.11-.001 0 1.11 0 2.5h1ZM0 10v2.5h1V10H0Zm2.5 5H5v-1H2.5v1ZM0 12.5C0 13.88 1.11 15 2.5 15v-1c-.83 0-1.5-.68-1.5-1.5H0ZM10 1h2.5V0H10v1Zm4 1.5V5h1V2.5h-1ZM12.5 1c.82 0 1.5.67 1.5 1.5h1C15 1.11 13.88 0 12.5 0v1ZM10 15h2.5v-1H10v1Zm5-2.5V10h-1v2.5h1ZM12.5 15c1.38 0 2.5-1.12 2.5-2.5h-1c0 .82-.68 1.5-1.5 1.5v1Z"/></svg>