<svg viewBox="0 0 15 15" xmlns="http://www.w3.org/2000/svg"><path d="M4.5 2.5V2c-.28 0-.5.22-.5.5h.5Zm6 0h.5c0-.28-.23-.5-.5-.5v.5Zm-6 4H4c0 .27.22.5.5.5v-.5ZM3.5 1h8V0h-8v1Zm8.5.5v10h1v-10h-1ZM9.5 14h-6v1h6v-1ZM3 13.5v-12H2v12h1Zm.5.5c-.28 0-.5-.23-.5-.5H2c0 .82.67 1.5 1.5 1.5v-1Zm8.5-2.5c0 1.38-1.12 2.5-2.5 2.5v1c1.93 0 3.5-1.57 3.5-3.5h-1ZM11.5 1c.27 0 .5.22.5.5h1c0-.83-.68-1.5-1.5-1.5v1Zm-8-1C2.67 0 2 .67 2 1.5h1c0-.28.22-.5.5-.5V0Zm1 3h6V2h-6v1Zm5.5-.5v3h1v-3h-1ZM9.5 6h-5v1h5V6ZM5 6.5v-4H4v4h1Zm5-1c0 .27-.23.5-.5.5v1c.82 0 1.5-.68 1.5-1.5h-1ZM5 8v3h1V8H5Zm-1 2h3V9H4v1Zm6-1h1V8h-1v1Zm-1 2h1v-1H9v1Z"/></svg>