<svg viewBox="0 0 15 15" xmlns="http://www.w3.org/2000/svg"><path d="M3.91 14.08l.35.35v0l-.36-.36Zm.08-.09l-.36-.36v0l.35.35Zm2.5 0l.35-.36v0l-.36.35Zm.14.14l-.36.35v0l.35-.36Zm1.7 0l-.36-.36v0l.35.35Zm.14-.15l.35.35v0l-.36-.36Zm2.5 0l-.36.35 .35-.36Zm.08.08l-.36.35v0l.35-.36ZM4.96 5.97h1v-1h-1v1Zm4 0h1v-1h-1v1Zm1.1 1.7c-1.3 1.73-3.9 1.73-5.2 0l-.8.6c1.7 2.26 5.1 2.26 6.8 0l-.8-.6ZM4.22 14.4l.08-.09 -.71-.71 -.09.08 .7.7Zm.93-.44h.08v-1h-.09v1Zm.93.35l.14.14 .7-.71 -.15-.15 -.71.7Zm2.56.14l.14-.15 -.71-.71 -.15.14 .7.7Zm1-.5h.08v-1h-.09v1Zm.93.35l.08.08 .7-.71 -.09-.09 -.71.7Zm1.43.64c1.05 0 1.91-.86 1.91-1.92h-1c0 .5-.41.91-.92.91v1Zm-1.36-.57c.359.35.84.56 1.35.56v-1c-.25 0-.48-.1-.65-.27l-.71.7Zm-.94-.44c.32 0 .62.12.85.35l.7-.71c-.42-.42-.98-.65-1.57-.65v1Zm-.94.35c.22-.23.53-.36.85-.36v-1c-.59 0-1.15.23-1.57.64l.7.7Zm-1.36.64c.45 0 .88-.18 1.2-.5l-.71-.71c-.14.13-.32.2-.5.2v1Zm-1.21-.5c.32.32.75.5 1.2.5v-1c-.19 0-.37-.08-.5-.21l-.71.7Zm-1-.5c.32 0 .62.12.85.35l.7-.71c-.42-.42-.98-.65-1.57-.65v1Zm-.94.35c.22-.23.53-.36.85-.36v-1c-.59 0-1.15.23-1.57.64l.7.7Zm-1.44.64c.5 0 .99-.21 1.35-.57l-.71-.71c-.18.17-.41.26-.65.26v1ZM.89 12.99c0 1.05.85 1.91 1.91 1.91v-1c-.51 0-.92-.41-.92-.92h-1ZM7.39.9c3.03 0 5.5 2.46 5.5 5.5h1c0-3.59-2.92-6.5-6.5-6.5v1Zm-5.5 5.5c0-3.04 2.46-5.5 5.5-5.5v-1C3.8-.1.89 2.81.89 6.4h1Zm-1 0v6.58h1V6.39h-1Zm13 6.58V6.39h-1v6.58h1Z"/></svg>