<svg viewBox="0 0 15 15" xmlns="http://www.w3.org/2000/svg"><path d="M2.5 10.5H2v.5h.5v-.5Zm2 0v.5H5v-.5h-.5Zm9-7h.5v-.21l-.15-.15 -.36.35Zm-3-3l.35-.36 -.15-.15h-.21v.5ZM2 6v4.5h1V6H2Zm.5 5h2v-1h-2v1Zm2.5-.5v-2H4v2h1ZM3 7h2V6H3v1ZM2 5V1.5H1V5h1Zm11-1.5V5h1V3.5h-1ZM2.5 1h8V0h-8v1Zm7.64-.15l3 2.99 .7-.71 -3-3.01 -.71.7Zm-8.15.64c0-.28.22-.5.5-.5v-1c-.83 0-1.5.67-1.5 1.5h1Zm-1 10.5v1.5h1v-1.5h-1Zm1.5 3h10v-1h-10v1Zm11.5-1.5v-1.5h-1v1.5h1Zm-1.5 1.5c.82 0 1.5-.68 1.5-1.5h-1c0 .27-.23.5-.5.5v1Zm-11.5-1.5c0 .82.67 1.5 1.5 1.5v-1c-.28 0-.5-.23-.5-.5h-1Zm5-6.5h3v-1h-3v1Zm0 4h3v-1h-3v1Zm1-4.5v4h1v-4h-1Zm3.5.5h2.5v-1h-2.5v1Zm-.5-1v5h1v-5h-1Zm.5 3h1.5v-1h-1.5v1Z"/></svg>