<svg viewBox="0 0 15 15" xmlns="http://www.w3.org/2000/svg"><path d="M7.5 13.5l-.36.35c.19.19.51.19.7 0l-.36-.36ZM1.53 7.53l-.36.35v0l.35-.36Zm5-5l-.36.35 .35-.36Zm.96.96l-.36.35c.19.19.51.19.7 0l-.36-.36Zm.96-.97l-.36-.36v0l.35.35Zm-.62 10.61L1.86 7.16l-.71.7 5.96 5.96 .7-.71Zm5.25-5.97l-5.97 5.96 .7.7 5.96-5.97 -.71-.71Zm-6.93-4.3l.96.96 .7-.71 -.97-.97 -.71.7Zm1.67.96l.96-.97 -.71-.71 -.97.96 .7.7ZM10.93.96c-1.08 0-2.1.42-2.86 1.18l.7.7c.56-.57 1.34-.89 2.14-.89v-1Zm3.03 4.03c0 .8-.32 1.57-.89 2.14l.7.7c.75-.76 1.18-1.79 1.18-2.86h-1Zm1 0c0-2.23-1.81-4.04-4.04-4.04v1c1.67 0 3.03 1.35 3.03 3.03h1ZM3.99 1.95c.8 0 1.57.31 2.14.88l.7-.71C6.07 1.36 5.04.93 3.97.93v1ZM.95 4.98c0-1.68 1.35-3.04 3.03-3.04v-1C1.75.94-.06 2.74-.06 4.97h1Zm.88 2.14C1.26 6.55.94 5.77.94 4.97h-1c0 1.07.42 2.09 1.18 2.85l.7-.71Z"/></svg>