<svg viewBox="0 0 15 15" xmlns="http://www.w3.org/2000/svg"><path d="M13.5 3.5h.5v-.21l-.15-.15 -.36.35Zm-3-3l.35-.36 -.15-.15h-.21v.5Zm1 7.99l.35-.36 -.36-.36 -.36.35 .35.35Zm-3 2.99l-.4.31 .34.43 .39-.4 -.36-.36Zm-4-5l.39-.32 -.41-.51 -.39.51 .4.3Zm8 7.5h-10v1h10v-1ZM2 13.48v-12H1v12h1Zm11-10v10h1v-10h-1ZM2.5.98h8v-1h-8v1Zm7.64-.15l3 2.99 .7-.71 -3-3.01 -.71.7ZM2.49 13.97c-.28 0-.5-.23-.5-.5h-1c0 .82.67 1.5 1.5 1.5v-1Zm10 1c.82 0 1.5-.68 1.5-1.5h-1c0 .27-.23.5-.5.5v1ZM1.99 1.47c0-.28.22-.5.5-.5v-1c-.83 0-1.5.67-1.5 1.5h1Zm8 4.5h1v-1h-1v1Zm3.85 4.14l-2-2.01 -.71.7 2 2 .7-.71ZM11.13 8.1l-3.01 2.99 .7.7 2.99-3 -.71-.71Zm-2.26 3.03l-4-5 -.79.62 4 4.99 .78-.63Zm-4.8-4.99l-3 4 .8.6 3-4 -.8-.6Z"/></svg>