<svg viewBox="0 0 15 15" xmlns="http://www.w3.org/2000/svg"><path d="M1.5 10.5V10c-.28 0-.5.22-.5.5h.5Zm12 0h.5c0-.28-.23-.5-.5-.5v.5Zm0 4v.5c.27 0 .5-.23.5-.5h-.5Zm-12 0H1c0 .27.22.5.5.5v-.5Zm0-3.5h12v-1h-12v1Zm11.5-.5v4h1v-4h-1Zm.5 3.5h-12v1h12v-1ZM2 14.5v-4H1v4h1Zm6-4v-4H7v4h1ZM7.5 0C5.56 0 4 1.567 4 3.5h1C5 2.11 6.11 1 7.5 1V0ZM11 3.5C11 1.567 9.43 0 7.5 0v1C8.88 1 10 2.11 10 3.5h1ZM7.5 7C9.43 7 11 5.43 11 3.5h-1C10 4.88 8.88 6 7.5 6v1Zm0-1C6.11 6 5 4.88 5 3.5H4C4 5.43 5.56 7 7.5 7V6ZM3 9h2V8H3v1Z"/></svg>