<svg viewBox="0 0 15 15" xmlns="http://www.w3.org/2000/svg"><path d="M6.5 6.5V6H6v.5h.5Zm4 4H10v.5h.5v-.5Zm2 0v.5h.5v-.5h-.5Zm1-7h.5v-.21l-.15-.15 -.36.35Zm-3-3l.35-.36 -.15-.15h-.21v.5Zm-6 6H5V6h-.5v.5Zm0 4v.5H5v-.5h-.5Zm-2 0H2v.5h.5v-.5Zm4-3.5h1V6h-1v1Zm.5 4V8.5H6V11h1Zm0-2.5v-2H6v2h1Zm.5-.5h-1v1h1V8Zm.5-.5c0 .27-.23.5-.5.5v1C8.32 9 9 8.32 9 7.5H8ZM7.5 7c.27 0 .5.22.5.5h1C9 6.67 8.32 6 7.5 6v1ZM10 6v4.5h1V6h-1Zm.5 5h2v-1h-2v1Zm2.5-.5v-2h-1v2h1ZM10.5 7H13V6h-2.5v1ZM2 5V1.5H1V5h1Zm11-1.5V5h1V3.5h-1ZM2.5 1h8V0h-8v1Zm7.64-.15l3 2.99 .7-.71 -3-3.01 -.71.7Zm-8.15.64c0-.28.22-.5.5-.5v-1c-.83 0-1.5.67-1.5 1.5h1Zm-1 10.5v1.5h1v-1.5h-1Zm1.5 3h10v-1h-10v1Zm11.5-1.5v-1.5h-1v1.5h1Zm-1.5 1.5c.82 0 1.5-.68 1.5-1.5h-1c0 .27-.23.5-.5.5v1Zm-11.5-1.5c0 .82.67 1.5 1.5 1.5v-1c-.28 0-.5-.23-.5-.5h-1Zm1-6.5h2.5v-1h-2.5v1Zm2-.5v4h1v-4h-1Zm.5 3.5h-2v1h2v-1Zm-1.5.5v-1.5h-1v1.5h1Z"/></svg>