<svg viewBox="0 0 15 15" xmlns="http://www.w3.org/2000/svg"><path d="M8.85 4.85l.35-.36 -.71-.71 -.36.35 .7.7ZM5.49 7.49l-.36-.36 -.36.35 .35.35 .35-.36Zm2.64 3.35l.35.35 .7-.71 -.36-.36 -.71.7Zm0-6.71l-3 3 .7.7 3-3 -.71-.71Zm-3 3.7l3 3 .7-.71 -3-3 -.71.7Zm2.35 6.14c-3.59 0-6.51-2.92-6.5-6.5h-1c-.01 4.14 3.35 7.5 7.5 7.5v-1Zm6.5-6.5c0 3.58-2.92 6.5-6.5 6.5v1c4.14 0 7.5-3.36 7.5-7.5h-1ZM7.48.97c3.58 0 6.5 2.91 6.5 6.5h1c0-4.15-3.36-7.5-7.5-7.5v1Zm0-1c-4.15-.01-7.5 3.35-7.5 7.5h1c0-3.59 2.91-6.51 6.5-6.5v-1Z"/></svg>