<svg viewBox="0 0 15 15" xmlns="http://www.w3.org/2000/svg"><path d="M.5 14.5l-.36-.36c-.15.14-.19.35-.11.54 .07.18.25.3.46.3v-.5Zm.65-.66l-.36-.36v0l.35.35Zm13.34.65v.5c.2 0 .38-.13.46-.31 .07-.19.03-.41-.11-.55l-.36.35Zm-11-4l-.23-.45c-.15.07-.25.2-.27.36 -.03.15.02.32.13.43l.35-.36Zm.86-.44l.22.44v0l-.23-.45Zm6.26 0l-.23.44 .22-.45Zm.86.43l.35.35c.11-.12.16-.28.13-.44 -.03-.16-.13-.3-.27-.37l-.23.44Zm-7.42.58l.35-.36 -.36.35ZM.81 14.82l.65-.66 -.71-.71 -.66.65 .7.7Zm1.14-1.84V6.46h-1v6.51h1Zm11-6.52v6.51h1V6.45h-1Zm.49 7.69l.65.65 .7-.71 -.66-.66 -.71.7Zm1-.2h-14v1h14v-1Zm-1.5-.99c0 .44.17.86.49 1.18l.7-.71c-.13-.13-.2-.3-.2-.48h-1ZM7.44.94c3.03 0 5.5 2.46 5.5 5.5h1c0-3.59-2.92-6.5-6.5-6.5v1Zm-5.5 5.5c0-3.04 2.46-5.5 5.5-5.5v-1c-3.59 0-6.5 2.91-6.5 6.5h1Zm-.5 7.69c.31-.32.49-.74.49-1.19h-1c0 .17-.08.34-.2.47l.7.7Zm2.21-3.25l.86-.44 -.45-.9 -.87.43 .44.89Zm6.68-.44l.86.43 .44-.9 -.87-.44 -.45.89Zm.73-.37l-.59.58 .7.7 .58-.59 -.71-.71Zm-6.71.58l-.59-.59 -.71.7 .58.58 .7-.71Zm3.06 1.26c-1.15 0-2.25-.46-3.07-1.27l-.71.7c.99.99 2.35 1.56 3.76 1.56v-1Zm3.06-1.27c-.82.81-1.92 1.26-3.07 1.26v1c1.41 0 2.76-.57 3.76-1.57l-.71-.71Zm-5.97-.22c1.82-.92 3.98-.92 5.81 0l.44-.9c-2.12-1.06-4.6-1.06-6.71 0l.44.89ZM6.9 6.4v1h1v-1h-1Zm-3 1v-1h-1v1h1Zm1.5 1.5c-.83 0-1.5-.68-1.5-1.5h-1c0 1.38 1.11 2.5 2.5 2.5v-1Zm1.5-1.5c0 .82-.68 1.5-1.5 1.5v1c1.38 0 2.5-1.12 2.5-2.5h-1ZM5.4 4.9c.82 0 1.5.67 1.5 1.5h1c0-1.39-1.12-2.5-2.5-2.5v1Zm0-1c-1.39 0-2.5 1.11-2.5 2.5h1c0-.83.67-1.5 1.5-1.5v-1Zm5.5 2.5v1h1v-1h-1ZM9.4 8.9c-.83 0-1.5-.68-1.5-1.5h-1c0 1.38 1.11 2.5 2.5 2.5v-1Zm1.5-1.5c0 .82-.68 1.5-1.5 1.5v1c1.38 0 2.5-1.12 2.5-2.5h-1ZM9.4 4.9c.82 0 1.5.67 1.5 1.5h1c0-1.39-1.12-2.5-2.5-2.5v1Zm0-1c-1.39 0-2.5 1.11-2.5 2.5h1c0-.83.67-1.5 1.5-1.5v-1Zm-4.5 3v1h1v-1h-1Zm4 0v1h1v-1h-1Z"/></svg>