<svg viewBox="0 0 15 15" xmlns="http://www.w3.org/2000/svg"><path d="M.5 13.5l-.36-.36c-.15.14-.19.35-.11.54 .07.18.25.3.46.3v-.5Zm1-11H2V2h-.5v.5ZM5 8h10V7H5v1Zm0-4h10V3H5v1Zm0 8h10v-1H5v1Zm-2 1H.5v1H3v-1Zm-2.15.85l1.79-1.8 -.71-.71 -1.8 1.79 .7.7Zm.93-3.86h-.3v1h.29v-1Zm-.3 0c-.83 0-1.5.67-1.5 1.5h1c0-.28.22-.5.5-.5v-1Zm1.5 1.2c0-.67-.55-1.21-1.21-1.21v1c.11 0 .2.09.2.2h1Zm-.36.85c.22-.23.35-.54.35-.86h-1c0 .05-.03.1-.07.14l.7.7ZM-.03 5.97h3v-1h-3v1Zm2-.5v-3h-1v3h1Zm-.5-3.5h-1.5v1h1.5v-1Z"/></svg>