<svg viewBox="0 0 15 15" xmlns="http://www.w3.org/2000/svg"><path d="M14.5 3.5l.35.35c.19-.2.19-.52 0-.71l-.36.35Zm-14 8l-.36-.36c-.2.19-.2.51 0 .7l.35-.36ZM11.14.85l3 2.99 .7-.71 -3-3.01 -.71.7Zm3 2.29l-3 3 .7.7 3-3 -.71-.71ZM3.84 14.13l-3-3 -.71.7 2.99 3 .7-.71Zm-3-2.3l2.99-3.01 -.71-.71L.11 11.1l.7.7Zm-.36.14h11v-1h-11v1Zm14.5-3.5v-1.5h-1v1.5h1Zm-3.5 3.5c1.93 0 3.5-1.57 3.5-3.5h-1c0 1.38-1.12 2.5-2.5 2.5v1Zm3-9h-11v1h11v-1Zm-14.5 3.5v1.5h1v-1.5h-1Zm3.5-3.5c-1.933 0-3.5 1.56-3.5 3.5h1c0-1.39 1.11-2.5 2.5-2.5v-1Z"/></svg>