<svg viewBox="0 0 15 15" xmlns="http://www.w3.org/2000/svg"><path d="M2.5 5.5l.35-.36c-.15-.15-.36-.19-.55-.11 -.19.07-.31.25-.31.46h.5Zm2 2l-.36.35 .35.35 .35-.36 -.36-.36Zm2-2H7c0-.21-.13-.39-.31-.47 -.19-.08-.41-.04-.55.1l.35.35Zm4 4l-.36.35 .35.35 .35-.36 -.36-.36ZM1.5 3h12V2h-12v1Zm12.5.5v8h1v-8h-1Zm-.5 8.5h-12v1h12v-1ZM1 11.5v-8H0v8h1Zm.5.5c-.28 0-.5-.23-.5-.5H0c0 .82.67 1.5 1.5 1.5v-1Zm12.5-.5c0 .27-.23.5-.5.5v1c.82 0 1.5-.68 1.5-1.5h-1ZM13.5 3c.27 0 .5.22.5.5h1c0-.83-.68-1.5-1.5-1.5v1Zm-12-1C.67 2 0 2.67 0 3.5h1c0-.28.22-.5.5-.5V2ZM3 10V5.5H2V10h1Zm-.86-4.15l2 2 .7-.71 -2-2 -.71.7Zm2.7 2l2-2 -.71-.71 -2 2 .7.7Zm1.14-2.36v4.5h1v-4.5h-1Zm4-.5v4.5h1v-4.5h-1ZM8.12 7.84l1.99 2 .7-.71 -2.01-2 -.71.7Zm2.7 2l2-2 -.71-.71 -2 2 .7.7Z"/></svg>