<svg viewBox="0 0 15 15" xmlns="http://www.w3.org/2000/svg"><path d="M2.93 12.26l.48.13c.05-.19-.02-.4-.17-.52l-.32.38Zm-.61 2.23l-.49-.14c-.06.18.01.38.16.51 .14.12.35.15.53.07l-.22-.46Zm2.43-1.15l.18-.47c-.13-.06-.28-.05-.41.01l.21.45Zm1.73-6.86l.3-.4 -.3-.22 -.3.21 .29.4Zm2 1.5l-.3.4 .31.23 .3-.26 -.33-.39Zm-1-8c-4.13 0-7.5 3.2-7.5 7.19h1c0-3.41 2.88-6.2 6.5-6.2v-1Zm-7.5 7.19c0 2.18 1.02 4.13 2.61 5.45l.63-.78C1.83 10.69.96 9.02.96 7.15h-1Zm2.45 4.93l-.61 2.23 .96.26 .6-2.24 -.97-.27Zm.08 2.81l2.43-1.15 -.43-.91 -2.44 1.14 .42.9Zm2.03-1.14c.9.36 1.88.56 2.92.56v-1c-.91 0-1.77-.18-2.56-.5l-.38.92Zm2.92.56c4.12 0 7.5-3.21 7.5-7.2h-1c0 3.4-2.89 6.19-6.5 6.19v1Zm7.5-7.2c0-4-3.38-7.2-7.5-7.2v1c3.61 0 6.5 2.79 6.5 6.19h1ZM3.25 9.34l3.5-2.5 -.59-.82 -3.5 2.5 .58.81Zm2.9-2.51l2 1.5 .6-.8 -2-1.5 -.6.8Zm2.62 1.48l3-2.5 -.65-.77 -3 2.5 .64.76Z"/></svg>