<svg viewBox="0 0 15 15" xmlns="http://www.w3.org/2000/svg"><path d="M5.5 11.49l.41-.28c-.1-.14-.25-.23-.42-.23v.5Zm2 2.99l-.42.27c.09.13.24.22.41.22 .16 0 .32-.09.41-.23l-.42-.28Zm2-3v-.5c-.17 0-.33.08-.42.22l.41.27Zm-4.42.27l2 2.99 .83-.56 -2-3 -.84.55Zm2.83 2.99l2-3 -.84-.56 -2 2.99 .83.55Zm1.58-2.78h4v-1h-4v1Zm4 0c.82 0 1.5-.68 1.5-1.5h-1c0 .27-.23.49-.5.49v1Zm1.5-1.5v-9h-1v8.99h1Zm0-9c0-.83-.68-1.5-1.5-1.5v1c.27 0 .5.22.5.49h1Zm-1.5-1.5h-12v1h12v-1Zm-12 0c-.83 0-1.5.67-1.5 1.49h1c0-.28.22-.5.5-.5v-1Zm-1.5 1.49v8.99h1v-9h-1Zm0 8.99c0 .82.67 1.49 1.5 1.49v-1c-.28 0-.5-.23-.5-.5h-1Zm1.5 1.49h4v-1h-4v1Zm3.5-5h5v-1h-5v1Z"/></svg>