<svg viewBox="0 0 15 15" xmlns="http://www.w3.org/2000/svg"><path d="M3.5 11.49H4v-.5h-.5v.5Zm0 2.99H3c0 .18.1.36.27.44 .16.08.37.06.52-.05l-.3-.41Zm4-3v-.5h-.17l-.14.09 .29.4Zm-3-7.5H4v1h.5v-1Zm6 1h.5v-1h-.5v1Zm-6 1.99H4v1h.5v-1Zm4 1H9v-1h-.5v1ZM3 11.46v2.99h1v-3H3Zm.79 3.39l3.99-3 -.6-.81 -4.01 2.99 .59.8Zm3.7-2.9h6v-1h-6v1Zm6 0c.82 0 1.5-.68 1.5-1.5h-1c0 .27-.23.49-.5.49v1Zm1.5-1.5v-9h-1v8.99h1Zm0-9c0-.83-.68-1.5-1.5-1.5v1c.27 0 .5.22.5.49h1Zm-1.5-1.5h-12v1h12v-1Zm-12 0c-.83 0-1.5.67-1.5 1.49h1c0-.28.22-.5.5-.5v-1Zm-1.5 1.49v8.99h1v-9h-1Zm0 8.99c0 .82.67 1.49 1.5 1.49v-1c-.28 0-.5-.23-.5-.5h-1Zm1.5 1.49h2v-1h-2v1Zm3-7h6v-1h-6v1Zm0 2.99h4v-1h-4v1Z"/></svg>