<svg viewBox="0 0 15 15" xmlns="http://www.w3.org/2000/svg"><path d="M5.29 10.18l-.43.26 .53.84 .42-.27 -.54-.85Zm4.89-.25l.49.03 .06-1 -.5-.04 -.07.99Zm-4.37 1.09c1.3-.82 2.83-1.2 4.36-1.1l.06-1c-1.75-.13-3.49.31-4.97 1.24l.53.84ZM3.98 5.98h1v-1h-1v1Zm6 0h1v-1h-1v1Zm-2.5 8c-3.59 0-6.5-2.92-6.5-6.5h-1c0 4.14 3.35 7.5 7.5 7.5v-1Zm6.5-6.5c0 3.58-2.92 6.5-6.5 6.5v1c4.14 0 7.5-3.36 7.5-7.5h-1ZM7.48.98c3.58 0 6.5 2.91 6.5 6.5h1c0-4.15-3.36-7.5-7.5-7.5v1Zm0-1c-4.15 0-7.5 3.35-7.5 7.5h1c0-3.59 2.91-6.5 6.5-6.5v-1Z"/></svg>