<svg viewBox="0 0 15 15" xmlns="http://www.w3.org/2000/svg"><path d="M13.5 3.5h.5v-.21l-.15-.15 -.36.35Zm-3-3l.35-.36 -.15-.15h-.21v.5Zm-8 6l.35-.36c-.15-.15-.36-.19-.55-.11 -.19.07-.31.25-.31.46h.5Zm1 1l-.36.35 .35.35 .35-.36 -.36-.36Zm1-1H5c0-.21-.13-.39-.31-.47 -.19-.08-.41-.04-.55.1l.35.35Zm6 3H10v.2l.14.14 .35-.36Zm1 1l-.36.35c.19.19.51.19.7 0l-.36-.36Zm1-1l.35.35 .14-.15v-.21h-.5ZM2 5V1.5H1V5h1Zm11-1.5V5h1V3.5h-1ZM2.5 1h8V0h-8v1Zm7.64-.15l3 2.99 .7-.71 -3-3.01 -.71.7Zm-8.15.64c0-.28.22-.5.5-.5v-1c-.83 0-1.5.67-1.5 1.5h1Zm-1 10.5v1.5h1v-1.5h-1Zm1.5 3h10v-1h-10v1Zm11.5-1.5v-1.5h-1v1.5h1Zm-1.5 1.5c.82 0 1.5-.68 1.5-1.5h-1c0 .27-.23.5-.5.5v1Zm-11.5-1.5c0 .82.67 1.5 1.5 1.5v-1c-.28 0-.5-.23-.5-.5h-1Zm2-2.5v-4.5h-1v4.5h1Zm-.86-4.15l1 1 .7-.71 -1-1 -.71.7Zm1.7 1l1-1 -.71-.71 -1 1 .7.7Zm.14-1.36v4.5h1v-4.5h-1Zm4 1v2h1v-2h-1Zm-1 2v-2h-1v2h1Zm.5.5c-.28 0-.5-.23-.5-.5h-1c0 .82.67 1.5 1.5 1.5v-1Zm.5-.5c0 .27-.23.5-.5.5v1c.82 0 1.5-.68 1.5-1.5h-1Zm-.5-2.5c.27 0 .5.22.5.5h1c0-.83-.68-1.5-1.5-1.5v1Zm0-1c-.83 0-1.5.67-1.5 1.5h1c0-.28.22-.5.5-.5v-1Zm2.5 0v3.5h1v-3.5h-1Zm.14 3.85l1 1 .7-.71 -1-1 -.71.7Zm1.7 1l1-1.01 -.71-.71 -1 .99 .7.7Zm1.14-1.36v-3.5h-1v3.5h1Z"/></svg>