<svg viewBox="0 0 15 15" xmlns="http://www.w3.org/2000/svg"><path fill="none" stroke="#000" d="M3 3.5c2.86-1.28 6.13-1.28 9 0M.5 6.5v5.76c0 .68.55 1.23 1.23 1.23 .46 0 .89-.27 1.1-.69l.65-1.32m11-5v5.76c0 .68-.56 1.23-1.24 1.23 -.47 0-.9-.27-1.11-.69l-.66-1.32m-5.5-4h3m-5.71 3.49L1.1 8.26C.67 7.73.45 7.08.45 6.41v-.4c0-1.42 1.14-2.57 2.56-2.57 1.14 0 2.15.75 2.46 1.86l1.11 3.9c.21.74-.05 1.54-.65 2.02 -.83.66-2.04.52-2.71-.31Zm8.4 0l2.15-2.69c.42-.53.64-1.18.64-1.85v-.4c0-1.42-1.15-2.57-2.57-2.57 -1.15 0-2.16.75-2.47 1.86L8.29 9.2c-.22.74.04 1.54.64 2.02 .82.66 2.03.52 2.7-.31Z"/></svg>