<svg viewBox="0 0 15 15" xmlns="http://www.w3.org/2000/svg"><path d="M8.5 14.5H8c0 .13.05.25.14.35 .09.09.22.14.35.14v-.5Zm0-12V2c-.14 0-.26.05-.36.14 -.1.09-.15.22-.15.35h.5Zm6 9h.5 -.5Zm-3 3V14v.5Zm3-9H14h.5Zm-3-3V3v-.5Zm-5-2H7c0-.28-.23-.5-.5-.5v.49Zm0 11.99v.5c.27 0 .5-.23.5-.5h-.5Zm-6-9H1 .5Zm3-3v.5 -.5Zm0 12v.5 -.5Zm-3-3H0h.5Zm13.5-4v6h1v-6h-1Zm-2.5 8.5h-3v1h3v-1Zm-2.5.5v-12H8v12h1Zm-.5-11.5h3v-1h-3v1Zm5.5 8.5c0 1.38-1.12 2.5-2.5 2.5v1c1.93 0 3.5-1.57 3.5-3.5h-1Zm1-6c0-1.94-1.57-3.5-3.5-3.5v1c1.38 0 2.5 1.11 2.5 2.5h1Zm-9-5v11.99h1v-12H6Zm.5 11.49h-3v1h3v-1ZM1 9.48v-6H0l-.01 6h1ZM3.5.98h3v-1l-3-.01v1ZM1 3.48C1 2.09 2.11.97 3.5.98v-1C1.56-.03 0 1.54 0 3.48h.99Zm2.5 8.5c-1.39 0-2.5-1.12-2.5-2.5H0c-.01 1.93 1.567 3.5 3.5 3.5v-1Zm9.5-1.5c0-.83-.68-1.5-1.5-1.5v1c.27 0 .5.22.5.5h1Zm-1.5 1.5c.82 0 1.5-.68 1.5-1.5h-1c0 .27-.23.5-.5.5v1Zm-1.5-1.5c0 .82.67 1.5 1.5 1.5v-1c-.28 0-.5-.23-.5-.5h-1Zm1 0c0-.28.22-.5.5-.5v-1c-.83 0-1.5.67-1.5 1.5h1Zm-7.5-5.5c-.28 0-.5-.23-.5-.5H2c0 .82.67 1.5 1.5 1.5v-1Zm.5-.5c0 .27-.23.5-.5.5v1c.82 0 1.5-.68 1.5-1.5H4Zm-.5-.5c.27 0 .5.22.5.5h1c0-.83-.68-1.5-1.5-1.5v1Zm0-1c-.83 0-1.5.67-1.5 1.5h1c0-.28.22-.5.5-.5v-1Z"/></svg>