<svg viewBox="0 0 15 15" xmlns="http://www.w3.org/2000/svg"><path d="M10.5 14.5H10c0 .2.12.38.3.46 .18.07.4.03.54-.11l-.36-.36Zm0-4V10c-.28 0-.5.22-.5.5h.5Zm4 0l.35.35c.14-.15.18-.36.1-.55 -.08-.19-.26-.31-.47-.31v.5ZM1.5 1h12V0h-12v1ZM1 13.5v-12H0v12h1Zm13-12v8.58h1V1.49h-1ZM10.08 14H1.49v1h8.58v-1Zm3.76-3.57l-3.42 3.41 .7.7 3.41-3.42 -.71-.71Zm-3.77 4.56c.39 0 .77-.16 1.06-.44l-.71-.71c-.1.09-.23.14-.36.14v1Zm3.91-4.92c0 .13-.06.25-.15.35l.7.7c.28-.29.43-.67.43-1.07h-1Zm-14 3.41c0 .82.67 1.5 1.5 1.5v-1c-.28 0-.5-.23-.5-.5h-1ZM13.48.98c.27 0 .5.22.5.5h1c0-.83-.68-1.5-1.5-1.5v1Zm-12-1c-.83 0-1.5.67-1.5 1.5h1c0-.28.22-.5.5-.5v-1Zm9.5 14.5v-4h-1v4h1Zm-.5-3.5h4v-1h-4v1Zm3.64-.86l-4 4 .7.7 4-4 -.71-.71ZM2.97 3.97h9v-1h-9v1Z"/></svg>