<svg viewBox="0 0 15 15" xmlns="http://www.w3.org/2000/svg"><path d="M.5 8.99H0v1h.5v-1Zm2 1H3v-1h-.5v1Zm2-1H4v1h.5v-1Zm2 1H7v-1h-.5v1Zm2-1H8v1h.5v-1Zm2 1h.5v-1h-.5v1Zm2-1H12v1h.5v-1Zm2 1h.5v-1h-.5v1Zm-4-9.5l.35-.36 -.15-.15h-.21v.5Zm3 3h.5v-.21l-.15-.15 -.36.35ZM.5 9.98h2v-1h-2v1Zm4 0h2v-1h-2v1Zm4 0h2v-1h-2v1Zm4 0h2v-1h-2v1Zm0 4h-10v1h10v-1Zm-10-13h8v-1h-8v1Zm7.64-.15l3 2.99 .7-.71 -3-3.01 -.71.7Zm2.85 2.64v4.5h1v-4.5h-1Zm0 8.25v1.75h1v-1.75h-1Zm-11-3.75v-6.5h-1v6.5h1Zm0 5.5v-2.5h-1v2.5h1Zm.5.5c-.28 0-.5-.23-.5-.5h-1c0 .82.67 1.5 1.5 1.5v-1Zm10 1c.82 0 1.5-.68 1.5-1.5h-1c0 .27-.23.5-.5.5v1Zm-10-15c-.83 0-1.5.67-1.5 1.5h1c0-.28.22-.5.5-.5v-1Z"/></svg>