<svg viewBox="0 0 15 15" xmlns="http://www.w3.org/2000/svg"><path d="M6.5 5.5l.24-.44c-.16-.09-.35-.09-.5 0 -.16.08-.25.25-.25.43h.5Zm0 4H6c0 .17.09.34.24.43 .15.08.34.09.49 0l-.25-.44Zm3.5-2l.24.43c.15-.09.25-.26.25-.44s-.1-.35-.26-.44l-.25.43ZM7.5 14C3.91 14 1 11.08 1 7.5H0C0 11.64 3.35 15 7.5 15v-1ZM14 7.5c0 3.58-2.92 6.5-6.5 6.5v1c4.14 0 7.5-3.36 7.5-7.5h-1ZM7.5 1C11.08 1 14 3.91 14 7.5h1C15 3.35 11.64 0 7.5 0v1Zm0-1C3.35 0 0 3.35 0 7.5h1C1 3.91 3.91 1 7.5 1V0ZM6 5.5v4h1v-4H6Zm.74 4.43l3.5-2 -.5-.87 -3.5 2 .49.86Zm3.5-2.87l-3.51-2 -.5.86 3.5 2 .49-.87Z"/></svg>