<svg viewBox="0 0 15 15" xmlns="http://www.w3.org/2000/svg"><g fill="none" stroke="#000"><path d="M14.5 7.58c0 1.65-3.14 3-7 3 -3.87 0-7-1.35-7-3.01 0-1.66 3.13-3 7-3 3.86 0 7 1.34 7 3Z"/><path d="M4.16 13.73c1.45.78 4.13-1.33 5.97-4.73 1.84-3.4 2.15-6.8.69-7.59C9.36.62 6.68 2.73 4.84 6.13c-1.85 3.39-2.16 6.79-.7 7.58Z"/><path d="M10.834 13.73c-1.46.78-4.14-1.33-5.98-4.73C3 5.6 2.69 2.2 4.15 1.41 5.6.62 8.28 2.73 10.12 6.13c1.84 3.39 2.15 6.79.69 7.58Z"/><path d="M6.5 7.58c0 .55.44 1 1 1 .55 0 1-.45 1-1 0-.56-.45-1-1-1 -.56 0-1 .44-1 1Z"/></g></svg>