<svg viewBox="0 0 15 15" xmlns="http://www.w3.org/2000/svg"><path d="M7.5 1.5l.12-.49c-.15-.04-.31-.01-.43.09 -.13.09-.2.24-.2.39h.5Zm5.5 8c0 .77-.56 1.64-1.59 2.34 -1.02.69-2.42 1.15-3.92 1.15v1c1.69 0 3.29-.53 4.47-1.34 1.16-.8 2.02-1.93 2.02-3.17h-1ZM7.49 13c-1.5 0-2.91-.47-3.92-1.16 -1.04-.71-1.59-1.57-1.59-2.35h-1c0 1.24.85 2.37 2.02 3.16 1.18.8 2.78 1.33 4.47 1.33v-1Zm-5.5-3.5c0-.78.55-1.65 1.58-2.35 1.01-.7 2.41-1.16 3.91-1.16v-1c-1.7 0-3.3.52-4.48 1.33C1.83 7.11.97 8.24.97 9.48h1ZM7.48 6c1.49 0 2.9.46 3.91 1.15 1.03.7 1.58 1.56 1.58 2.34h1c0-1.25-.86-2.38-2.03-3.17 -1.19-.81-2.79-1.34-4.48-1.34v1Zm2.3 4.53c-.69.29-1.32.46-2.31.46v1c1.13 0 1.89-.21 2.69-.54l-.39-.93Zm-2.31.46c-.99 0-1.62-.18-2.31-.47l-.39.92c.79.33 1.55.53 2.69.53v-1Zm.49-5.5l0-4h-1l-.01 4h1Zm-.63-3.52l3.99 1 .24-.98 -4.01-1 -.25.97ZM3.92 6.82c-.29-.86-1.13-1.3-1.96-1.3v1c.51 0 .88.26 1 .61l.94-.32Zm-1.96-1.3c-1.12 0-2.03.9-2.03 2.02h1c0-.57.45-1.03 1.02-1.03v-1ZM-.07 7.54c0 1.02.76 1.85 1.74 1.99l.13-1c-.5-.07-.88-.5-.88-1.01h-1Zm11.97-.41c.11-.36.49-.62 1-.62v-1c-.84 0-1.67.44-1.96 1.29l.94.31Zm1-.62c.56 0 1.02.45 1.02 1.02h1c0-1.12-.91-2.03-2.03-2.03v1Zm1.02 1.02c0 .51-.38.93-.88 1l.13.99c.97-.14 1.74-.98 1.74-2h-1Zm-1.5-4.57c-.28 0-.5-.23-.5-.5h-1c0 .82.67 1.5 1.5 1.5v-1Zm.5-.5c0 .27-.23.5-.5.5v1c.82 0 1.5-.68 1.5-1.5h-1Zm-.5-.5c.27 0 .5.22.5.5h1c0-.83-.68-1.5-1.5-1.5v1Zm0-1c-.83-.001-1.5.67-1.5 1.5h1c0-.28.22-.5.5-.5v-1Zm-7.5 8h1v-1h-1v1Zm4 0h1v-1h-1v1Z"/></svg>