<svg viewBox="0 0 15 15" xmlns="http://www.w3.org/2000/svg"><path d="M6.14 10.14l-.36.35 .7.7 .35-.36 -.71-.71Zm3.35-2.65l.35.35 .35-.36 -.36-.36 -.36.35ZM6.84 4.13l-.36-.36 -.71.7 .35.35 .7-.71Zm0 6.7l3-3.01 -.71-.71 -3 2.99 .7.7Zm3-3.71l-3-3 -.71.7 3 3 .7-.71ZM7.48.97c3.58 0 6.5 2.91 6.5 6.5h1c0-4.15-3.36-7.5-7.5-7.5v1Zm-6.5 6.5c0-3.59 2.91-6.5 6.5-6.5v-1c-4.15-.01-7.5 3.35-7.5 7.5h1Zm6.5 6.5c-3.59 0-6.5-2.92-6.5-6.5h-1c-.01 4.14 3.35 7.5 7.5 7.5v-1Zm0 1c4.14 0 7.5-3.36 7.5-7.5h-1c0 3.58-2.92 6.5-6.5 6.5v1Z"/></svg>