<svg viewBox="0 0 15 15" xmlns="http://www.w3.org/2000/svg"><path d="M4.5 8.5H4c0 .27.22.5.5.5v-.5Zm4 0V9c.27 0 .5-.23.5-.5h-.5Zm0-2.5H9c0-.14-.06-.26-.15-.36l-.36.35Zm-2-2l.35-.36c-.2-.2-.52-.2-.71 0l.35.35Zm-2 2l-.36-.36c-.1.09-.15.22-.15.35h.5Zm10.35 8.14l-4-4 -.71.7 4 4 .7-.71Zm-8.36-2.15c-3.04 0-5.5-2.47-5.5-5.5h-1c0 3.58 2.91 6.5 6.5 6.5v-1Zm5.5-5.5c0 3.03-2.47 5.5-5.5 5.5v1c3.58 0 6.5-2.92 6.5-6.5h-1ZM6.49.99c3.03 0 5.5 2.46 5.5 5.5h1c0-3.59-2.92-6.5-6.5-6.5v1Zm0-1c-3.59 0-6.5 2.91-6.5 6.5h1c0-3.04 2.46-5.5 5.5-5.5v-1Zm-2 9h4v-1h-4v1Zm4.5-.5v-2.5h-1v2.5h1Zm-.15-2.86l-2-2 -.71.7 2 2 .7-.71Zm-2.71-2l-2 2 .7.7 2-2 -.71-.71ZM3.98 5.98v2.5h1v-2.5h-1Z"/></svg>