<svg viewBox="0 0 15 15" xmlns="http://www.w3.org/2000/svg"><path d="M3.5 11.5H4v-.31l-.28-.14 -.23.44Zm-1.45-.73l.22-.45v0l-.23.44Zm10.89 0l-.23-.45v0l.22.44Zm-1.45.72l-.23-.45 -.28.13v.3h.5Zm-4-2l.35-.36c-.2-.2-.52-.2-.71 0l.35.35Zm-5.5.38V6.48h-1v3.38h1Zm11-3.39v3.38h1V6.47h-1Zm-9.28 4.55l-1.45-.73 -.45.89 1.44.72 .44-.9Zm8.99-.73l-1.45.72 .44.89 1.44-.73 -.45-.9Zm-8.73 2.17v-1h-1v1h1Zm7-1v1h1v-1h-1Zm-1.5 2.5h-4v1h4v-1Zm1.5-1.5c0 .82-.68 1.5-1.5 1.5v1c1.38 0 2.5-1.12 2.5-2.5h-1Zm2-2.62c0 .18-.11.36-.28.44l.44.89c.5-.26.82-.78.82-1.35h-1ZM7.47.96c3.03 0 5.5 2.46 5.5 5.5h1c0-3.59-2.92-6.5-6.5-6.5v1Zm-4.5 11.5c0 1.38 1.11 2.5 2.5 2.5v-1c-.83 0-1.5-.68-1.5-1.5h-1Zm-1-6c0-3.04 2.46-5.5 5.5-5.5v-1c-3.59 0-6.5 2.91-6.5 6.5h1Zm-1 3.38c0 .56.32 1.08.82 1.34l.44-.9c-.17-.09-.28-.26-.28-.45h-1Zm3.5-1.89c-.28 0-.5-.23-.5-.5h-1c0 .82.67 1.5 1.5 1.5v-1Zm.5-.5c0 .27-.23.5-.5.5v1c.82 0 1.5-.68 1.5-1.5h-1Zm-.5-.5c.27 0 .5.22.5.5h1c0-.83-.68-1.5-1.5-1.5v1Zm0-1c-.83 0-1.5.67-1.5 1.5h1c0-.28.22-.5.5-.5v-1Zm6 2c-.28 0-.5-.23-.5-.5h-1c0 .82.67 1.5 1.5 1.5v-1Zm.5-.5c0 .27-.23.5-.5.5v1c.82 0 1.5-.68 1.5-1.5h-1Zm-.5-.5c.27 0 .5.22.5.5h1c0-.83-.68-1.5-1.5-1.5v1Zm0-1c-.83 0-1.5.67-1.5 1.5h1c0-.28.22-.5.5-.5v-1ZM6.82 10.8l1-1.01 -.71-.71 -1 .99 .7.7Zm.29-1.01l1 1 .7-.71 -1-1 -.71.7Z"/></svg>