<svg viewBox="0 0 15 15" xmlns="http://www.w3.org/2000/svg"><path fill="none" stroke="#000" d="M10.5 7.5V6c0-.83.67-1.5 1.5-1.5 .82 0 1.5.67 1.5 1.5 0 .82-.68 1.5-1.5 1.5h-1.5Zm0 0h-3m3 0V2c0-.83-.68-1.5-1.5-1.5 -.83 0-1.5.67-1.5 1.5v5.5m0 0v-3m0 3H2C1.17 7.5.5 6.82.5 6c0-.83.67-1.5 1.5-1.5h5.5m0 3H13c.82 0 1.5.67 1.5 1.5 0 .82-.68 1.5-1.5 1.5H7.5m0-3v3m0-3h-3m3 0V13c0 .82-.68 1.5-1.5 1.5 -.83 0-1.5-.68-1.5-1.5V7.5m3-3V3c0-.83-.68-1.5-1.5-1.5 -.83 0-1.5.67-1.5 1.5 0 .82.67 1.5 1.5 1.5h1.5Zm0 6H9c.82 0 1.5.67 1.5 1.5 0 .82-.68 1.5-1.5 1.5 -.83 0-1.5-.68-1.5-1.5v-1.5Zm-3-3V9c0 .82-.68 1.5-1.5 1.5 -.83 0-1.5-.68-1.5-1.5 0-.83.67-1.5 1.5-1.5h1.5Z"/></svg>