<svg viewBox="0 0 15 15" xmlns="http://www.w3.org/2000/svg"><path fill="none" stroke="#000" d="M7.5 1c-1.16 0-2.18.41-2.9 1.28 -.65.77-1.01 2.35-1.07 3.66l-.08.01 -.03 0c-.11.01-.24.03-.37.05 -.47.08-1.35.32-1.55 1.27 -.1.44.01.83.24 1.13 .21.26.49.42.7.52 .09.04.18.08.27.11 -.22.58-.58 1.18-.99 1.72 -.39.5-.29 1.15-.09 1.57 .19.42.57.4 1.19.42 .35.01.72.05 1.09.12 .16.03.36.09.6.2 .14.06.28.12.42.18 .11.05.23.1.37.16 .57.25 1.27.51 2.05.51 .77 0 1.48-.27 2.05-.52 .13-.07.26-.12.37-.17l.02-.02c.13-.07.26-.12.39-.18 .24-.11.43-.17.6-.21 .36-.07.73-.11 1.08-.13 .62-.03 1.1-.01 1.3-.43 .19-.43.29-1.07-.09-1.58 -.41-.54-.78-1.14-.99-1.72 .09-.04.19-.08.3-.13 .21-.1.51-.27.72-.55 .24-.33.31-.74.17-1.19 -.28-.89-1.1-1.13-1.57-1.22 -.13-.03-.26-.05-.36-.06l-.02-.01 -.06-.01c-.07-1.24-.41-2.8-1.04-3.59C9.51 1.3 8.49.82 7.31.82Z"/></svg>