<svg viewBox="0 0 15 15" xmlns="http://www.w3.org/2000/svg"><path d="M11.5.5h.5c0-.28-.23-.5-.5-.5v.5Zm1 11l.47.15 -.48-.16Zm.48-1.45l-.48-.16 .47.15Zm-8.49 4.44l-.36.35c.09.09.22.14.35.14 .13 0 .25-.06.35-.15l-.36-.36ZM9.99.99h1.5v-1h-1.5v1Zm1-.5v6h1v-6h-1Zm-1 6.5h3v-1h-3v1Zm1.86 1h-.87v1h.86v-1Zm1.11 3.65l.48-1.45 -.95-.32 -.49 1.44 .94.31Zm-1.98.34h1.5v-1h-1.5v1Zm.97 2.65l1-3 -.95-.32 -1 3 .94.31ZM8.97 9.97c0 1.1.89 2 2 2v-1c-.56 0-1-.45-1-1h-1Zm2-2c-1.11 0-2 .89-2 2h1c0-.56.44-1 1-1v-1Zm.86 1c.46 0 .79.45.64.89l.94.31c.36-1.09-.45-2.22-1.6-2.22v1Zm-7.01 5.85l3-3 -.71-.71 -3 3 .7.7Zm0-.71l-3-3 -.71.7 3 3 .7-.71ZM3.96-.04v14.5h1V-.04h-1Z"/></svg>