<svg viewBox="0 0 15 15" xmlns="http://www.w3.org/2000/svg"><path d="M3.5 14.5l-.36.35c.09.09.22.14.35.14 .13 0 .25-.06.35-.15l-.36-.36Zm6-6V8H9v.5h.5Zm0 6H9v.5h.5v-.5Zm-5.65.35l3-3 -.71-.71 -3 3 .7.7Zm-.001-.71l-3-3 -.71.7 3 3 .7-.71ZM2.989-.01v14.5h1V-.01h-1Zm6.5 9h2.5v-1h-2.5v1Zm2.5 2h-2.5v1h2.5v-1Zm-2 .5v-3h-1v3h1Zm3-1.5c0 .55-.45 1-1 1v1c1.1 0 2-.9 2-2h-1Zm-1-1c.55 0 1 .44 1 1h1c0-1.11-.9-2-2-2v1Zm0 5h-2.5v1h2.5v-1Zm-2 .5v-3h-1v3h1Zm3-1.5c0 .55-.45 1-1 1v1c1.1 0 2-.9 2-2h-1Zm-1-1c.55 0 1 .44 1 1h1c0-1.11-.9-2-2-2v1Zm-2-5v-4.5h-1v4.5h1Zm3-4.5v4.5h1v-4.5h-1Zm-1.5-1.5c.82 0 1.5.67 1.5 1.5h1c0-1.39-1.12-2.5-2.5-2.5v1Zm-1.5 1.5c0-.83.67-1.5 1.5-1.5v-1c-1.39 0-2.5 1.11-2.5 2.5h1Zm-.5 2.5h4v-1h-4v1Z"/></svg>