<svg viewBox="0 0 15 15" xmlns="http://www.w3.org/2000/svg"><path d="M3.5 10.49l.25-.43 -.12-.08h-.14v.49Zm0-6v.5h.13l.11-.08 -.26-.43Zm5-3H9c0-.19-.1-.35-.26-.44 -.16-.09-.35-.09-.51 0l.25.42Zm0 11.99l-.26.42c.15.09.34.09.5 0 .15-.09.25-.26.25-.44h-.5Zm5.35-9.35l-.36-.36 -.71.7 .35.35 .7-.71Zm-.71 5.99l-.36.35 .7.7 .35-.36 -.71-.71Zm-9.65-.15h-2v.99h2v-1Zm-2 0c-.28 0-.5-.23-.5-.5h-1c0 .82.67 1.49 1.5 1.49v-1Zm-.5-.5v-4h-1v3.99h1Zm0-4c0-.28.22-.5.5-.5v-1c-.83 0-1.5.66-1.5 1.49h1Zm.5-.5h2v-1h-2v1Zm2.25-.08l5-3 -.52-.86 -5 2.99 .51.85Zm4.24-3.43v11.99h1v-12h-1Zm.75 11.56l-5-3 -.52.85 5 2.99 .51-.86Zm4.74-8.57c-.36.35-.36.35-.36.35 0-.01-.01-.01-.01-.01 -.01-.01-.01-.01-.01-.01 -.01-.01-.01-.01-.01-.01 -.01-.01-.01-.01-.01-.01s0 0 0 0 .01.01.02.02c.01.02.05.05.08.11 .07.1.18.26.29.48 .21.43.44 1.11.44 2.02h1c0-1.09-.28-1.92-.56-2.48 -.14-.28-.29-.5-.4-.64 -.06-.08-.11-.13-.14-.17 -.02-.03-.04-.04-.05-.05 -.01-.01-.02-.02-.02-.02 -.01-.01-.01-.01-.01-.01 -.01-.01-.01-.01-.01-.01C13.7 4 13.7 4 13.7 4c-.01-.01-.01-.01-.01-.01 -.01-.01-.01-.01-.36.35Zm.5 2.99c0 .91-.23 1.58-.45 2.02 -.12.22-.22.38-.3.48 -.04.05-.07.08-.09.11 -.01.01-.02.01-.03.02 -.01 0-.01 0-.01 0s0-.01 0-.01c0-.01 0-.01 0-.01 0-.01 0-.01 0-.01 0-.01 0-.01 0-.01 0-.01 0-.01.35.35 .35.35.35.35.35.35s0-.01 0-.01c0-.01 0-.01 0-.01 0-.01 0-.01 0-.01 0-.01 0-.01 0-.01 0-.01 0-.01.01-.02 .01-.02.02-.03.04-.05 .03-.05.08-.1.13-.17 .1-.15.25-.36.39-.64 .28-.57.55-1.39.55-2.48h-1Z"/></svg>