<svg viewBox="0 0 15 15" xmlns="http://www.w3.org/2000/svg"><path d="M.5 7.5l-.36-.36c-.2.19-.2.51 0 .7l.35-.36Zm7 7l-.36.35c.19.19.51.19.7 0l-.36-.36Zm7-7l.35.35c.09-.1.14-.23.14-.36h-.5Zm-7-7V0c-.14 0-.26.05-.36.14l.35.35ZM.14 7.85l7 7 .7-.71 -7-7 -.71.7Zm7.7 7l7-7.01 -.71-.71 -7 6.99 .7.7Zm7.14-7.36v-6h-1v6h1Zm-1.5-7.5h-6v1h6v-1ZM7.12.13l-7.01 7 .7.7 6.99-7L7.09.12Zm7.85 1.35c0-.83-.68-1.5-1.5-1.5v1c.27 0 .5.22.5.5h1Zm-4.5 3.5c-.28 0-.5-.23-.5-.5h-1c0 .82.67 1.5 1.5 1.5v-1Zm.5-.5c0 .27-.23.5-.5.5v1c.82 0 1.5-.68 1.5-1.5h-1Zm-.5-.5c.27 0 .5.22.5.5h1c0-.83-.68-1.5-1.5-1.5v1Zm0-1c-.83 0-1.5.67-1.5 1.5h1c0-.28.22-.5.5-.5v-1Z"/></svg>