<svg viewBox="0 0 15 15" xmlns="http://www.w3.org/2000/svg"><path d="M3.5 5.49l-.43-.27 -.08.12v.14h.5Zm2.69-4.24l.42.26 -.43-.27Zm2.66 1.51l-.45-.23v0l.44.22ZM7.48 5.48l-.45-.23c-.08.15-.07.33.02.48 .09.14.25.23.42.23v-.5Zm7 5l.4.3 .1-.14v-.17h-.5Zm-2.4 3.2l.4.3 -.4-.3ZM8.26.74l.25-.43v0l-.26.42ZM-.03 4.97v10h1V4.96h-1Zm3.92.76l2.69-4.24 -.85-.54 -2.7 4.23 .84.53ZM8.38 2.5L7.01 5.22l.89.44 1.36-2.73 -.9-.45Zm-.92 3.45h5v-1h-5v1Zm6.5 1.5v3h1V7.44h-1Zm.1 2.7l-2.4 3.2 .8.6 2.4-3.2 -.8-.6Zm-3.6 3.8h-5v1h5v-1Zm-6.5-1.5V5.44h-1v7h1Zm8.5-6.51c.82 0 1.5.67 1.5 1.5h1c0-1.39-1.12-2.5-2.5-2.5v1Zm-7 8c-.83 0-1.5-.68-1.5-1.5h-1c0 1.38 1.11 2.5 2.5 2.5v-1ZM7.98 1.13c.46.27.63.86.39 1.34l.89.44c.47-.96.13-2.11-.78-2.66l-.52.85Zm3.67 12.2c-.29.37-.73.6-1.2.6v1c.78 0 1.52-.38 2-1l-.8-.6ZM6.56 1.45c.3-.48.92-.63 1.4-.34l.51-.86C7.52-.32 6.29-.03 5.7.9l.84.53Z"/></svg>