<svg viewBox="0 0 15 15" xmlns="http://www.w3.org/2000/svg"><path d="M9.12 4.12l.35-.36v0l-.36.35ZM5.49 6.99h4v-1h-4v1Zm4.5.5v3h1v-3h-1Zm-.5 3.5h-4v1h4v-1Zm-4.5-.5v-3h-1v3h1Zm.5.5c-.28 0-.5-.23-.5-.5h-1c0 .82.67 1.5 1.5 1.5v-1Zm4.5-.5c0 .27-.23.5-.5.5v1c.82 0 1.5-.68 1.5-1.5h-1Zm-.5-3.5c.27 0 .5.22.5.5h1c0-.83-.68-1.5-1.5-1.5v1Zm-4-1c-.83 0-1.5.67-1.5 1.5h1c0-.28.22-.5.5-.5v-1Zm.5.5v-.88h-1v.87h1Zm2.76-2.03l.37.37 .7-.71 -.38-.38 -.71.7ZM7.6 3.98c.43 0 .84.17 1.14.47l.7-.71c-.5-.5-1.16-.77-1.86-.77v1ZM5.97 5.6c0-.9.72-1.63 1.62-1.63v-1c-1.45 0-2.63 1.17-2.63 2.62h1Zm1.5 8.37c-3.59 0-6.5-2.92-6.5-6.5h-1c0 4.14 3.35 7.5 7.5 7.5v-1Zm6.5-6.5c0 3.58-2.92 6.5-6.5 6.5v1c4.14 0 7.5-3.36 7.5-7.5h-1ZM7.47.97c3.58 0 6.5 2.91 6.5 6.5h1c0-4.15-3.36-7.5-7.5-7.5v1Zm0-1c-4.15 0-7.5 3.35-7.5 7.5h1c0-3.59 2.91-6.5 6.5-6.5v-1Z"/></svg>