<svg viewBox="0 0 15 15" xmlns="http://www.w3.org/2000/svg"><path d="M10.5 14.49v.5h.5v-.5h-.5Zm-10 0H0v.5h.5v-.5Zm14 0v.5h.5v-.5h-.5ZM8 3.48c0 1.37-1.12 2.49-2.5 2.49v1C7.43 6.97 9 5.4 9 3.47H8ZM5.5 5.97C4.11 5.97 3 4.85 3 3.47H2C2 5.4 3.56 6.96 5.5 6.96v-1ZM3 3.47C3 2.09 4.11.97 5.5.97v-1C3.56-.03 2 1.53 2 3.46h1ZM5.5.97C6.88.97 8 2.08 8 3.46h1c0-1.94-1.57-3.5-3.5-3.5v1Zm5 12.99H.5v1h10v-1Zm-9.5.5c0-.01 0-.01 0-.01 0-.01 0-.01 0-.01 0-.01 0-.01 0-.01 0-.01 0-.01 0-.01 0-.01 0-.01 0-.01 0-.01 0-.01 0-.01 0-.01 0-.01 0-.01 0-.01 0-.01 0-.01 0-.01 0-.01 0-.01 0-.01 0-.01 0-.01 0-.01 0-.01 0-.01 0-.01 0-.01 0-.01 0-.01 0-.01 0-.01 0-.01 0-.01 0-.01 0-.01 0-.01 0-.01 0-.01 0-.01 0-.01 0-.01 0-.01 0-.01 0-.01 0-.01 0-.01 0-.01 0-.01 0-.01 0-.01 0-.01 0-.01 0-.01 0-.01 0-.01 0-.01 0-.01 0-.01 0-.01 0-.01 0-.01 0-.01 0-.01 0-.01 0-.01 0-.01 0-.01 0-.01 0-.01 0-.01 0-.01 0-.01 0-.01 0-.01 0-.01 0-.01 0-.01 0-.01 0-.01 0-.01 0-.01 0-.01 0-.01 0-.01 0-.01 0-.01 0-.01 0-.01 0-.01 0-.01 0-.01 0-.01 0-.01 0-.01 0-.01 0-.01 0-.01 0-.01 0-.01 0-.01 0-.01 0-.01 0-.01 0-.01 0-.01 0-.01 0-.01 0-.01 0-.01 0-.01 0-.01 0-.01 0-.01 0-.01 0-.01 0-.01 0-.01 0-.01 0-.01 0-.01 0-.01 0-.01 0-.01 0-.01 0-.01 0-.01 0-.01C1 14 1 14 1 14c0-.01 0-.01 0-.01 0-.01 0-.01 0-.01 0-.01 0-.01 0-.01 0-.01 0-.01 0-.01 0-.01 0-.01 0-.01 0-.01 0-.01 0-.01 0-.01 0-.01 0-.01 0-.01 0-.01 0-.01 0-.01 0-.01 0-.01 0-.01 0-.01 0-.01 0-.01 0-.01 0-.01 0-.01 0-.01 0-.01 0-.01 0-.01 0-.01 0-.01 0-.01 0-.01 0-.01 0-.01 0-.01 0-.01 0-.01 0-.01 0-.01 0-.01 0-.01 0-.01 0-.01 0-.01 0-.01 0-.01 0-.01 0-.01 0-.01 0-.01 0-.01 0-.01 0-.01 0-.01 0-.01 0-.01 0-.01 0-.01 0-.01 0-.01 0-.01 0-.01 0-.01 0-.01 0-.01 0-.01 0-.01 0-.01 0-.01 0-.01 0-.01 0-.01 0-.01 0-.01 0-.01 0-.01 0-.01 0-.01 0-.01 0-.01 0-.01 0-.01 0-.01 0-.01 0-.01 0-.01 0-.01 0-.01 0-.01 0-.01 0-.01 0-.01 0-.01 0-.01 0-.01 0-.01 0-.01 0-.01 0-.01 0-.01 0-.01 0-.01 0-.01 0-.01 0-.01 0-.01 0-.01 0-.01 0-.01 0-.01 0-.01 0-.01 0-.01 0-.01 0-.01 0-.01 0-.01 0-.01 0-.01 0-.01 0-.01 0-.01 0-.01 0-.01 0-.01 0-.01 0-.01 0-.01 0-.01 0-.01 0-.01 0-.01 0-.01 0-.01 0-.01 0-.01 0-.01 0-.01 0-.01 0-.01 0-.01 0-.01 0-.01 0-.01 0-.01 0-.01 0-.01 0-.01 0-.01 0-.01 0-.01 0-.01 0-.01 0-.01 0-.01 0-.01 0-.01 0-.01 0-.01 0-.01 0-.01 0-.01 0-.01 0-.01 0-.01 0-.01 0-.01 0-.01 0-.01 0-.01 0-.01 0-.01 0-.01 0-.01 0-.01 0-.01 0-.01 0-.01 0-.01 0-.01 0-.01 0-.01 0-.01 0-.01 0-.01 0-.01 0-.01 0-.01 0-.01 0-.01 0-.01 0-.01 0-.01 0-.01 0-.01 0-.01 0-.01 0-.01 0-.01 0-.01 0-.01 0-.01 0-.01 0-.01 0-.01 0-.01 0-.01 0-.01 0-.01 0-.01 0-.01 0-.01 0-.01 0-.01 0-.01 0-.01 0-.01 0-.01 0-.01 0-.01 0-.01 0-.01 0-.01 0-.01 0-.01 0-.01 0-.01 0-.01 0-.01 0-.01 0-.01 0-.01 0-.01 0-.01 0-.01 0-.01 0-.01 0-.01 0-.01 0-.01 0-.01 0-.01 0-.01 0-.01 0-.01 0-.01 0-.01 0-.01 0-.01 0-.01 0-.01 0-.01 0-.01 0-.01 0-.01 0-.01 0-.01 0-.01 0-.01 0-.01 0-.01 0-.01 0-.01 0-.01 0-.01 0-.01 0-.01 0-.01 0-.01 0-.01 0-.01 0-.01 0-.01 0-.01 0-.01 0-.01 0-.01 0-.01 0-.01 0-.01 0-.01 0-.01 0-.01 0-.01 0-.01 0-.01 0-.01C1 13 1 13 1 13c0-.01 0-.01 0-.01 0-.01 0-.01 0-.01 0-.01 0-.01 0-.01 0-.01 0-.01 0-.01 0-.01 0-.01 0-.01 0-.01 0-.01 0-.01 0-.01 0-.01 0-.01 0-.01 0-.01 0-.01 0-.01 0-.01 0-.01 0-.01 0-.01 0-.01 0-.01 0-.01 0-.01 0-.01 0-.01 0-.01 0-.01 0-.01 0-.01 0-.01 0-.01 0-.01 0-.01 0-.01 0-.01 0-.01 0-.01 0-.01 0-.01 0-.01 0-.01 0-.01 0-.01 0-.01 0-.01 0-.01 0-.01 0-.01 0-.01 0-.01 0-.01 0-.01 0-.01 0-.01 0-.01 0-.01 0-.01 0-.01 0-.01 0-.01 0-.01 0-.01 0-.01 0-.01 0-.01 0-.01 0-.01 0-.01 0-.01 0-.01 0-.01 0-.01 0-.01 0-.01 0-.01 0-.01 0-.01 0-.01 0-.01 0-.01 0-.01 0-.01 0-.01 0-.01 0-.01 0-.01 0-.01 0-.01 0-.01 0-.01 0-.01 0-.01 0-.01 0-.01 0-.01 0-.01 0-.01 0-.01 0-.01 0-.01 0-.01 0-.01 0-.01 0-.01 0-.01 0-.01 0-.01 0-.01 0-.01 0-.01 0-.01 0-.01 0-.01 0-.01 0-.01 0-.01 0-.01 0-.01 0-.01 0-.01 0-.01 0-.01 0-.01 0-.01 0-.01 0-.01 0-.01 0-.01 0-.01 0-.01 0-.01 0-.01 0-.01 0-.01 0-.01 0-.01 0-.01 0-.01 0-.01 0-.01 0-.01 0-.01 0-.01 0-.01 0-.01 0-.01 0-.01 0-.01 0-.01 0-.01 0-.01 0-.01 0-.01 0-.01 0-.01 0-.01 0-.01 0-.01 0-.01 0-.01 0-.01 0-.01 0-.01 0-.01 0-.01 0-.01 0-.01 0-.01 0-.01 0-.01 0-.01 0-.01 0-.01 0-.01 0-.01 0-.01 0-.01 0-.01 0-.01 0-.01 0-.01 0-.01 0-.01 0-.01 0-.01 0-.01 0-.01 0-.01 0-.01 0-.01 0-.01 0-.01 0-.01 0-.01 0-.01 0-.01 0-.01 0-.01 0-.01 0-.01 0-.01 0-.01 0-.01 0-.01 0-.01 0-.01 0-.01 0-.01 0-.01 0-.01 0-.01 0-.01 0-.01 0-.01 0-.01 0-.01 0-.01 0-.01 0-.01 0-.01 0-.01 0-.01 0-.01 0-.01 0-.01 0-.01 0-.01 0-.01 0-.01 0-.01 0-.01 0-.01 0-.01 0-.01 0-.01 0-.01 0-.01 0-.01 0-.01 0-.01 0-.01 0-.01 0-.01 0-.01 0-.01 0-.01 0-.01 0-.01 0-.01 0-.01 0-.01 0-.01 0-.01 0-.01 0-.01 0-.01 0-.01 0-.01 0-.01 0-.01 0-.01 0-.01 0-.01 0-.01 0-.01 0-.01 0-.01 0-.01 0-.01 0-.01 0-.01 0-.01 0-.01 0-.01 0-.01 0-.01 0-.01 0-.01 0-.01 0-.01 0-.01 0-.01 0-.01 0-.01 0-.01 0-.01 0-.01C1 12 1 12 1 12c0-.01 0-.01 0-.01 0-.01 0-.01 0-.01 0-.01 0-.01 0-.01 0-.01 0-.01 0-.01 0-.01 0-.01 0-.01 0-.01 0-.01 0-.01 0-.01 0-.01 0-.01 0-.01 0-.01 0-.01 0-.01 0-.01 0-.01 0-.01 0-.01 0-.01 0-.01 0-.01 0-.01 0-.01 0-.01 0-.01 0-.01 0-.01 0-.01 0-.01 0-.01 0-.01 0-.01 0-.01 0-.01 0-.01 0-.01 0-.01 0-.01 0-.01 0-.01 0-.01 0-.01 0-.01 0-.01 0-.01 0-.01 0-.01 0-.01 0-.01 0-.01 0-.01 0-.01 0-.01 0-.01 0-.01 0-.01 0-.01 0-.01 0-.01 0-.01 0-.01 0-.01 0-.01 0-.01 0-.01 0-.01 0-.01 0-.01 0-.01 0-.01 0-.01 0-.01 0-.01 0-.01 0-.01 0-.01 0-.01 0-.01 0-.01 0-.01 0-.01 0-.01 0-.01 0-.01 0-.01 0-.01 0-.01 0-.01 0-.01 0-.01 0-.01 0-.01 0-.01 0-.01 0-.01 0-.01 0-.01 0-.01 0-.01 0-.01 0-.01 0-.01 0-.01 0-.01 0-.01 0-.01 0-.01 0-.01 0-.01 0-.01 0-.01 0-.01 0-.01 0-.01 0-.01 0-.01 0-.01 0-.01 0-.01 0-.01 0-.01 0-.01 0-.01 0-.01 0-.01 0-.01 0-.01 0-.01 0-.01 0-.01 0-.01 0-.01 0-.01 0-.01 0-.01 0-.01 0-.01 0-.01 0-.01 0-.01 0-.01 0-.01 0-.01 0-.01 0-.01 0-.01 0-.01 0-.01 0-.01 0-.01 0-.01 0-.01 0-.01 0-.01 0-.01 0-.01 0-.01 0-.01 0-.01 0-.01 0-.01 0-.01 0-.01 0-.01 0-.01 0-.01 0-.01 0-.01 0-.01 0-.01 0-.01 0-.01 0-.01 0-.01 0-.01 0-.01 0-.01 0-.01 0-.01 0-.01 0-.01 0-.01 0-.01 0-.01 0-.01 0-.01 0-.01 0-.01 0-.01 0-.01 0-.01 0-.01 0-.01 0-.01 0-.01 0-.01 0-.01 0-.01 0-.01 0-.01 0-.01 0-.01 0-.01 0-.01 0-.01 0-.01 0-.01 0-.01 0-.01 0-.01 0-.01 0-.01 0-.01 0-.01 0-.01 0-.01 0-.01 0-.01 0-.01 0-.01 0-.01 0-.01 0-.01 0-.01 0-.01 0-.01 0-.01 0-.01 0-.01 0-.01 0-.01 0-.01 0-.01 0-.01 0-.01 0-.01 0-.01 0-.01 0-.01 0-.01 0-.01 0-.01 0-.01 0-.01 0-.01 0-.01 0-.01 0-.01 0-.01 0-.01 0-.01 0-.01 0-.01 0-.01 0-.01 0-.01 0-.01 0-.01 0-.01 0-.01 0-.01 0-.01 0-.01 0-.01 0-.01 0-.01 0-.01 0-.01 0-.01 0-.01 0-.01 0-.01 0-.01 0-.01 0-.01 0-.01 0-.01 0-.01 0-.01 0-.01 0-.01 0-.01 0-.01 0-.01 0-.01 0-.01C1 11 1 11 1 11c0-.01 0-.01 0-.01 0-.01 0-.01 0-.01 0-.01 0-.01 0-.01 0-.01 0-.01 0-.01 0-.01 0-.01 0-.01 0-.01 0-.01 0-.01 0-.01 0-.01 0-.01 0-.01 0-.01 0-.01 0-.01 0-.01 0-.01 0-.01 0-.01 0-.01 0-.01 0-.01 0-.01 0-.01 0-.01 0-.01 0-.01 0-.01 0-.01 0-.01 0-.01 0-.01 0-.01 0-.01 0-.01 0-.01 0-.01 0-.01 0-.01 0-.01 0-.01 0-.01 0-.01 0-.01 0-.01 0-.01 0-.01 0-.01 0-.01 0-.01 0-.01 0-.01 0-.01 0-.01 0-.01 0-.01 0-.01 0-.01 0-.01 0-.01 0-.01 0-.01 0-.01 0-.01 0-.01 0-.01 0-.01 0-.01 0-.01 0-.01 0-.01 0-.01 0-.01 0-.01 0-.01 0-.01 0-.01 0-.01 0-.01 0-.01 0-.01 0-.01 0-.01 0-.01 0-.01 0-.01 0-.01 0-.01 0-.01 0-.01 0-.01 0-.01 0-.01 0-.01 0-.01 0-.01 0-.01 0-.01 0-.01 0-.01 0-.01 0-.01 0-.01 0-.01 0-.01 0-.01 0-.01 0-.01 0-.01 0-.01 0-.01 0-.01 0-.01 0-.01 0-.01 0-.01 0-.01 0-.01 0-.01 0-.01 0-.01 0-.01 0-.01 0-.01 0-.01 0-.01 0-.01 0-.01 0-.01 0-.01 0-.01 0-.01 0-.01 0-.01 0-.01 0-.01 0-.01 0-.01 0-.01 0-.01 0-.01 0-.01 0-.01 0-.01 0-.01 0-.01 0-.01 0-.01 0-.01 0-.01 0-.01 0-.01 0-.01 0-.01 0-.01 0-.01 0-.01 0-.01 0-.01 0-.01 0-.01 0-.01 0-.01 0-.01 0-.01 0-.01 0-.01 0-.01 0-.01 0-.01 0-.01 0-.01 0-.01 0-.01 0-.01 0-.01 0-.01 0-.01 0-.01 0-.01 0-.01 0-.01 0-.01 0-.01 0-.01 0-.01 0-.01 0-.01 0-.01 0-.01 0-.01 0-.01 0-.01 0-.01 0-.01 0-.01 0-.01 0-.01 0-.01 0-.01 0-.01 0-.01 0-.01 0-.01 0-.01 0-.01 0-.01 0-.01 0-.01 0-.01 0-.01 0-.01 0-.01 0-.01 0-.01 0-.01 0-.01 0-.01 0-.01 0-.01 0-.01 0-.01 0-.01 0-.01 0-.01 0-.01 0-.01 0-.01 0-.01 0-.01 0-.01 0-.01 0-.01 0-.01 0-.01 0-.01 0-.01 0-.01 0-.01 0-.01 0-.01 0-.01 0-.01 0-.01 0-.01 0-.01 0-.01 0-.01 0-.01 0-.01 0-.01 0-.01 0-.01 0-.01 0-.01 0-.01 0-.01 0-.01 0-.01 0-.01 0-.01 0-.01 0-.01 0-.01 0-.01 0-.01 0-.01 0-.01 0-.01 0-.01 0-.01 0-.01 0-.01 0-.01 0-.01 0-.01 0-.01 0-.01 0-.01 0-.01 0-.01 0-.01 0-.01 0-.01 0-.01 0-.01 0-.01C1 10 1 10 1 10c0-.01 0-.01 0-.01 0-.01 0-.01 0-.01 0-.01 0-.01 0-.01 0-.01 0-.01 0-.01 0-.01 0-.01 0-.01 0-.01 0-.01 0-.01 0-.01 0-.01 0-.01 0-.01 0-.01 0-.01 0-.01 0-.01 0-.01 0-.01 0-.01 0-.01 0-.01 0-.01 0-.01 0-.01 0-.01 0-.01 0-.01 0-.01 0-.01 0-.01 0-.01 0-.01 0-.01 0-.01 0-.01 0-.01 0-.01 0-.01 0-.01 0-.01 0-.01 0-.01 0-.01 0-.01 0-.01 0-.01 0-.01 0-.01 0-.01 0-.01 0-.01 0-.01 0-.01 0-.01 0-.01 0-.01 0-.01 0-.01 0-.01 0-.01 0-.01 0-.01 0-.01 0-.01 0-.01 0-.01 0-.01 0-.01 0-.01 0-.01 0-.01 0-.01 0-.01 0-.01 0-.01 0-.01 0-.01 0-.01 0-.01 0-.01 0-.01 0-.01 0-.01 0-.01 0-.01 0-.01 0-.01 0-.01 0-.01 0-.01 0-.01 0-.01 0-.01 0-.01 0-.01 0-.01 0-.01 0-.01 0-.01 0-.01 0-.01 0-.01 0-.01 0-.01 0-.01 0-.01 0-.01 0-.01 0-.01 0-.01 0-.01 0-.01 0-.01 0-.01 0-.01 0-.01 0-.01 0-.01 0-.01 0-.01 0-.01 0-.01 0-.01 0-.01 0-.01 0-.01 0-.01 0-.01 0-.01 0-.01 0-.01 0-.01 0-.01 0-.01 0-.01 0-.01 0-.01 0-.01 0-.01 0-.01 0-.01 0-.01 0-.01 0-.01 0-.01 0-.01 0-.01 0-.01 0-.01 0-.01 0-.01 0-.01 0-.01 0-.01 0-.01 0-.01 0-.01 0-.01 0-.01 0-.01 0-.01 0-.01 0-.01 0-.01 0-.01 0-.01 0-.01 0-.01 0-.01 0-.01 0-.01 0-.01 0-.01 0-.01 0-.01 0-.01 0-.01 0-.01 0-.01 0-.01 0-.01 0-.01 0-.01 0-.01 0-.01 0-.01 0-.01 0-.01H0s0 0 0 0 0 0 0 0 0 0 0 0 0 0 0 0 0 0 0 0 0 0 0 0 0 0 0 0 0 0 0 0 0 0 0 0 0 0 0 0 0 0 0 0 0 0 0 0 0 0 0 0 0 0 0 0 0 0 0 0 0 0 0 0 0 0 0 0 0 0 0 0 0 0 0 0 0 0 0 0 0 0 0 0 0 0 0 0 0 0 0 0 0 0 0 0 0 0 0 0 0 0 0 0 0 0 0 0 0 0 0 0 0 0 0 0 0 0 0 0 0 0 0 0 0 0 0 0 0 0 0 0 0 0 0 0 0 0 0 0 0 0 0 0 0 0 0 0 0 0 0 0 0 0 0 0 0 0 0 0 0 0 0 0 0 0 0 0 0 0 0 0 0 0 0 0 0 0 0 0 0 0 0 0 0 0 0 0 0 0 0 0 0 0 0 0 0 0 0 0 0 0 0 0 0 0 0 0 0 0 0 0 0 0 0 0 0 0 0 0 0 0 0 0 0 0 0 0 0 0 0 0 0 0 0 0 0 0 0 0 0 0 0 0 0 0 0 0 0 0 0 0 0 0 0 0 0 0 0 0 0 0 0 0 0 0 0 0 0 0 0 0 0 0 0 0 0 0 0 0 0 0 0 0 0 0 0 0 0 0 0 0 0 0 0 0 0 0 0 0 0 0 0 0 0 0 0 0 0 0 0 0 0 0 0 0 0 0 0 0 0 0 0 0 0 0 0 0 0 0 0 0 0 0 0 0 0 0 0 0 0 0 0 0 0 0 0 0 0 0 0 0 0 0 0 0 0 0 0 0 0 0 0 0 0 0 0 0 0 0 0 0 0 0 0 0 0 0 0 0 0 0 0 0 0 0 0 0 0 0 0 0 0 0 0 0 0 0 0 0 0 0 0 0 0 0 0 0 0 0 0 0 0 0 0 0 0 0 0 0 0 0 0 0 0 0 0 0 0 0 0 0 0 0 0 0 0 0 0 0 0 0 0 0 0 0 0 0 0 0 0 0 0 0 0 0 0 0 0 0 0 0 0 0 0 0 0 0 0 0 0 0 0 0 0 0 0 0 0 0 0 0 0 0 0 0 0 0 0 0 0 0 0 0 0 0 0 0 0 0 0 0 0 0 0 0 0 0 0 0 0 0 0 0 0 0 0 0 0 0 0 0 0 0 0 0 0 0 0 0 0 0 0 0 0 0 0 0 0 0 0 0 0 0 0 0 0 0 0 0 0 0 0 0 0 0 0 0 0 0 0 0 0 0 0 0 0 0 0 0 0 0 0 0 0 0 0 0 0 0 0 0 0 0 0 0 0 0 0 0 0 0 0 0 0 0 0 0 0 0 0 0 0 0 0 0 0 0 0 0 0 0 0 0 0 0 0 0 0 0 0 0 0 0 0 0 0 0 0 0 0 0 0 0 0 0 0 0 0 0 0 0 0 0 0 0 0 0 0 0 0 0 0 0 0 0 0 0 0 0 0 0 0 0 0 0 0 0 0 0 0 0 0 0 0 0 0 0 0 0 0 0 0 0 0 0 0 0 0 0 0 0 0 0 0 0 0 0 0 0 0 0 0 0 0 0 0 0 0 0 0 0 0 0 0 0 0 0 0 0 0 0 0 0 0 0 0 0 0 0 0 0 0 0 0 0 0 0 0 0 0 0 0 0 0 0 0 0 0 0 0 0 0 0 0 0 0 0 0 0 0 0 0 0 0 0 0 0 0 0 0 0 0 0 0 0 0 0 0 0 0 0 0 0 0 0 0 0 0 0 0 0 0 0 0 0 0 0 0 0 0 0 0 0 0 0 0 0 0 0 0 0 0 0 0 0 0 0 0 0 0 0 0 0 0 0 0 0 0 0 0 0 0 0 0 0 0 0 0 0 0 0 0 0 0 0 0 0 0 0 0 0 0 0 0 0 0 0 0 0 0 0 0 0 0 0 0 0 0 0 0 0 0 0 0 0 0 0 0 0 0 0 0 0 0 0 0 0 0 0 0 0 0 0 0 0 0 0 0 0 0 0 0 0 0 0 0 0 0 0 0 0 0 0 0 0 0 0 0 0 0 0 0 0 0 0 0 0 0 0 0 0 0 0 0 0 0 0 0 0 0 0 0 0 0 0 0 0 0 0 0 0 0 0 0 0 0 0 0 0 0 0 0 0 0 0 0 0 0 0 0 0 0 0 0 0 0 0 0 0 0 0 0 0 0 0 0 0 0 0 0 0 0 0 0 0 0 0 0 0 0 0 0 0 0 0 0 0 0 0 0 0 0 0 0 0 0 0 0 0 0 0 0 0 0 0 0 0 0 0 0 0 0 0 0 0 0 0 0 0 0 0 0 0 0 0 0 0 0 0 0 0 0 0 0 0 0 0 0 0 0 0 0 0 0 0 0 0 0 0 0 0 0 0 0 0 0 0 0 0 0 0 0 0 0 0 0 0 0 0 0 0 0 0 0 0 0 0 0 0 0 0 0 0 0 0 0 0 0 0 0 0 0 0 0 0 0 0 0 0 0 0 0 0 0 0 0 0 0 0 0 0 0 0 0 0 0 0 0 0 0 0 0 0 0 0 0 0 0 0 0 0 0 0 0 0 0 0 0 0 0 0 0 0 0 0 0 0 0 0 0 0 0 0 0 0 0 0 0 0 0 0 0 0 0 0 0 0 0 0 0 0 0 0 0 0 0 0 0 0 0 0 0 0 0 0 0 0 0 0 0 0 0 0 0 0 0 0 0 0 0 0 0 0 0 0 0 0 0 0 0 0 0 0 0 0 0 0 0 0 0 0 0 0 0 0 0 0 0 0 0 0 0 0 0 0 0 0 0 0 0 0 0 0 0 0 0 0 0 0 0 0 0 0 0 0 0 0 0 0 0 0 0 0 0 0 0 0 0 0 0 0 0 0 0 0 0 0 0 0 0 0 0 0 0 0 0 0 0 0 0 0 0 0 0 0 0 0 0 0 0 0 0 0 0 0 0 0 0 0 0 0 0 0 0 0 0 0 0 0 0 0 0 0 0 0 0 0 0 0 0 0 0 0 0 0 0 0 0 0 0 0 0 0 0 0 0 0 0 0 0 0 0 0 0 0 0 0 0 0 0 0 0 0 0 0 0 0 0 0 0 0 0 0 0 0 0 0 0 0 0 0 0 0 0 0 0 0 0 0 0 0 0 0 0 0 0 0 0 0 0 0 0 0 0 0 0 0 0 0 0 0 0 0 0 0 0 0 0 0 0 0 0 0 0 0 0 0 0 0 0 0 0 0 0 0 0 0 0 0 0 0 0 0 0 0 0 0 0 0 0 0 0 0 0 0 0 0 0 0 0 0 0 0 0 0 0 0 0 0 0 0 0 0 0 0 0 0 0 0 0 0 0 0 0 0 0 0 0 0 0 0 0 0 0 0 0 0 0 0 0 0 0 0 0 0 0 0 0 0 0 0 0 0 0 0 0 0 0 0 0 0 0 0 0 0 0 0 0 0 0 0 0 0 0 0 0 0 0 0 0 0 0 0 0 0 0 0 0 0 0 0 0 0 0 0 0 0 0 0 0 0 0 0 0 0 0 0 0 0 0 0 0 0 0 0 0 0 0 0 0 0 0 0 0 0 0 0 0 0 0 0 0 0 0 0 0 0 0 0 0 0 0 0 0 0 0 0 0 0 0 0 0 0 0 0 0 0 0 0 0 0 0 0 0 0 0 0 0 0 0 0 0 0 0 0 0 0 0 0 0 0 0 0 0 0 0 0 0 0 0 0 0 0 0 0 0 0 0 0 0 0 0 0 0 0 0 0 0 0 0 0 0 0 0 0 0 0 0 0 0 0 0 0 0 0 0 0 0 0 0 0 0 0 0 0 0 0 0 0 0 0 0 0 0 0 0 0 0 0 0 0 0 0 0 0 0 0 0 0 0 0 0 0 0 0 0 0 0 0 0 0 0 0 0 0 0 0 0 0 0 0 0 0 0 0 0 0 0 0 0 0 0 0 0 0 0 0 0 0 0 0 0 0 0 0 0 0 0 0 0 0 0 0 0 0 0 0 0 0 0 0 0 0 0 0 0 0 0 0 0 0 0 0 0 0 0 0 0 0 0 0 0 0 0 0 0 0 0 0 0 0 0 0 0 0 0 0 0 0 0 0 0 0 0 0 0 0 0 0 0 0 0 0 0 0 0 0 0 0 0 0 0 0 0 0 0 0 0 0 0 0 0 0 0 0 0 0 0 0 0 0 0 0 0 0 0 0 0 0 0 0 0 0 0 0 0 0 0 0 0 0 0 0 0 0 0 0 0 0 0 0 0 0 0 0 0 0 0 0 0 0 0 0 0 0 0 0 0 0 0 0 0 0 0 0 0 0 0 0 0 0 0 0 0 0 0 0 0 0 0 0 0 0 0 0 0 0 0 0 0 0 0 0 0 0 0 0 0 0 0 0 0 0 0 0 0 0 0 0 0 0 0 0 0 0 0 0 0 0 0 0 0 0 0 0 0 0 0 0 0 0 0 0 0 0 0 0 0 0 0 0 0 0 0 0 0 0 0 0 0 0 0 0 0 0 0 0 0 0 0 0 0 0 0 0 0 0 0 0 0 0 0 0 0 0 0 0h1Zm2.5-4.5h4v-1h-4v1Zm6.5 2.49s0 0 0 0 0 0 0 0 0 0 0 0 0 0 0 0 0 0 0 0 0 0 0 0 0 0 0 0 0 0 0 0 0 0 0 0 0 0 0 0 0 0 0 0 0 0 0 0 0 0 0 0 0 0 0 0 0 0 0 0 0 0 0 0 0 0 0 0 0 0 0 0 0 0 0 0 0 0 0 0 0 0 0 0 0 0 0 0 0 0 0 0 0 0 0 0 0 0 0 0 0 0 0 0 0 0 0 0 0 0 0 0 0 0 0 0 0 0 0 0 0 0 0 0 0 0 0 0 0 0 0 0 0 0 0 0 0 0 0 0 0 0 0 0 0 0 0 0 0 0 0 0 0 0 0 0 0 0 0 0 0 0 0 0 0 0 0 0 0 0 0 0 0 0 0 0 0 0 0 0 0 0 0 0 0 0 0 0 0 0 0 0 0 0 0 0 0 0 0 0 0 0 0 0 0 0 0 0 0 0 0 0 0 0 0 0 0 0 0 0 0 0 0 0 0 0 0 0 0 0 0 0 0 0 0 0 0 0 0 0 0 0 0 0 0 0 0 0 0 0 0 0 0 0 0 0 0 0 0 0 0 0 0 0 0 0 0 0 0 0 0 0 0 0 0 0 0 0 0 0 0 0 0 0 0 0 0 0 0 0 0 0 0 0 0 0 0 0 0 0 0 0 0 0 0 0 0 0 0 0 0 0 0 0 0 0 0 0 0 0 0 0 0 0 0 0 0 0 0 0 0 0 0 0 0 0 0 0 0 0 0 0 0 0 0 0 0 0 0 0 0 0 0 0 0 0 0 0 0 0 0 0 0 0 0 0 0 0 0 0 0 0 0 0 0 0 0 0 0 0 0 0 0 0 0 0 0 0 0 0 0 0 0 0 0 0 0 0 0 0 0 0 0 0 0 0 0 0 0 0 0 0 0 0 0 0 0 0 0 0 0 0 0 0 0 0 0 0 0 0 0 0 0 0 0 0 0 0 0 0 0 0 0 0 0 0 0 0 0 0 0 0 0 0 0 0 0 0 0 0 0 0 0 0 0 0 0 0 0 0 0 0 0 0 0 0 0 0 0 0 0 0 0 0 0 0 0 0 0 0 0 0 0 0 0 0 0 0 0 0 0 0 0 0 0 0 0 0 0 0 0 0 0 0 0 0 0 0 0 0 0 0 0 0 0 0 0 0 0 0 0 0 0 0 0 0 0 0 0 0 0 0 0 0 0 0 0 0 0 0 0 0 0 0 0 0 0 0 0 0 0 0 0 0 0 0 0 0 0 0 0 0 0 0 0 0 0 0 0 0 0 0 0 0 0 0 0 0 0 0 0 0 0 0 0 0 0 0 0 0 0 0 0 0 0 0 0 0 0 0 0 0 0 0 0 0 0 0 0 0 0 0 0 0 0 0 0 0 0 0 0 0 0 0 0 0 0 0 0 0 0 0 0 0 0 0 0 0 0 0 0 0 0 0 0 0 0 0 0 0 0 0 0 0 0 0 0 0 0 0 0 0 0 0 0 0 0 0 0 0 0 0 0 0 0 0 0 0 0 0 0 0 0 0 0 0 0 0 0 0 0 0 0 0 0 0 0 0 0 0 0 0 0 0 0 0 0 0 0 0 0 0 0 0 0 0 0 0 0 0 0 0 0 0 0 0 0 0 0 0 0 0 0 0 0 0 0 0 0 0 0 0 0 0 0 0 0 0 0 0 0 0 0 0 0 0 0 0 0 0 0 0 0 0 0 0 0 0 0 0 0 0 0 0 0 0 0 0 0 0 0 0 0 0 0 0 0 0 0 0 0 0 0 0 0 0 0 0 0 0 0 0 0 0 0 0 0 0 0 0 0 0 0 0 0 0 0 0 0 0 0 0 0 0 0 0 0 0 0 0 0 0 0 0 0 0 0 0 0 0 0 0 0 0 0 0 0 0 0 0 0 0 0 0 0 0 0 0 0 0 0 0 0 0 0 0 0 0 0 0 0 0 0 0 0 0 0 0 0 0 0 0 0 0 0 0 0 0 0 0 0 0 0 0 0 0 0 0 0 0 0 0 0 0 0 0 0 0 0 0 0 0 0 0 0 0 0 0 0 0 0 0 0 0 0 0 0 0 0 0 0 0 0 0 0 0 0 0 0 0 0 0 0 0 0 0 0 0 0 0 0 0 0 0 0 0 0 0 0 0 0 0 0 0 0 0 0 0 0 0 0 0 0 0 0 0 0 0 0 0 0 0 0 0 0 0 0 0 0 0 0 0 0 0 0 0 0 0 0 0 0 0 0 0 0 0 0 0 0 0 0 0 0 0 0 0 0 0 0 0 0 0 0 0 0 0 0 0 0 0 0 0 0 0 0 0 0 0 0 0 0 0 0 0 0 0 0 0 0 0 0 0 0 0 0 0 0 0 0 0 0 0 0 0 0 0 0 0 0 0 0 0 0 0 0 0 0 0 0 0 0 0 0 0 0 0 0 0 0 0 0 0 0 0 0 0 0 0 0 0 0 0 0 0 0 0 0 0 0 0 0 0 0 0 0 0 0 0 0 0 0 0 0 0 0 0 0 0 0 0 0 0 0 0 0 0 0 0 0 0 0 0 0 0 0 0 0 0 0 0 0 0 0 0 0 0 0 0 0 0 0 0 0 0 0 0 0 0 0 0 0 0 0 0 0 0 0 0 0 0 0 0 0 0 0 0 0 0 0 0 0 0 0 0 0 0 0 0 0 0 0 0 0 0 0 0 0 0 0 0 0 0 0 0 0 0 0 0 0 0 0 0 0 0 0 0 0 0 0 0 0 0 0 0 0 0 0 0 0 0 0 0 0 0 0 0 0 0 0 0 0 0 0 0 0 0 0 0 0 0 0 0 0 0 0 0 0 0 0 0 0 0 0 0 0 0 0 0 0 0 0 0 0 0 0 0 0 0 0 0 0 0 0 0 0 0 0 0 0 0 0 0 0 0 0 0 0 0 0 0 0 0 0 0 0 0 0 0 0 0 0 0 0 0 0 0 0 0 0 0 0 0 0 0 0 0 0 0 0 0 0 0 0 0 0 0 0 0 0 0 0 0 0 0 0 0 0 0 0 0 0 0 0 0 0 0 0 0 0 0 0 0 0 0 0 0 0 0 0 0 0 0 0 0 0 0 0 0 0 0 0 0 0 0 0 0 0 0 0 0 0 0 0 0 0 0 0 0 0 0 0 0 0 0 0 0 0 0 0 0 0 0 0 0 0 0 0 0 0 0 0 0 0 0 0 0 0 0 0 0 0 0 0 0 0 0 0 0 0 0 0 0 0 0 0 0 0 0 0 0 0 0 0 0 0 0 0 0 0 0 0 0 0 0 0 0 0 0 0 0 0 0 0 0 0 0 0 0 0 0 0 0 0 0 0 0 0 0 0 0 0 0 0 0 0 0 0 0 0 0 0 0 0 0 0 0 0 0 0 0 0 0 0 0 0 0 0 0 0 0 0 0 0 0 0 0 0 0 0 0 0 0 0 0 0 0 0 0 0 0 0 0 0 0 0 0 0 0 0 0 0 0 0 0 0 0 0 0 0 0 0 0 0 0 0 0 0 0 0 0 0 0 0 0 0 0 0 0 0 0 0 0 0 0 0 0 0 0 0 0 0 0 0 0 0 0 0 0 0 0 0 0 0 0 0 0 0 0 0 0 0 0 0 0 0 0 0 0 0 0 0 0 0 0 0 0 0 0 0 0 0 0 0 0 0 0 0 0 0 0 0 0 0 0 0 0 0 0 0 0 0 0 0 0 0 0 0 0 0 0 0 0 0 0 0 0 0 0 0 0 0 0 0 0 0 0 0 0 0 0 0 0 0 0 0 0 0 0 0 0 0 0 0 0 0 0 0 0 0 0 0 0 0 0 0 0 0 0 0 0 0 0 0 0 0 0 0 0 0 0 0 0 0 0 0 0 0 0 0 0 0 0 0 0 0 0 0 0 0 0 0 0 0 0 0 0 0 0 0 0 0 0 0 0 0 0 0 0 0 0 0 0 0 0 0 0 0 0 0 0 0 0 0 0 0 0 0 0 0 0 0 0 0 0 0 0 0 0 0 0 0 0 0 0 0 0 0 0 0 0 0 0 0 0 0 0 0 0 0 0 0 0 0 0 0 0 0 0 0 0 0 0 0 0 0 0 0 0 0 0 0 0 0 0 0 0 0 0 0 0 0 0 0 0 0 0 0 0 0 0 0 0 0 0 0 0 0 0 0 0 0 0 0 0 0 0 0 0 0 0 0 0 0 0 0 0 0 0 0 0 0 0 0 0 0 0 0 0 0 0 0 0 0 0 0 0 0 0 0 0 0 0 0 0 0 0 0 0 0 0 0 0 0 0 0 0 0 0 0 0 0 0 0 0 0 0 0 0 0 0 0 0 0 0 0 0 0 0 0 0 0 0 0 0 0 0 0 0 0 0 0 0 0 0 0 0 0 0 0 0 0 0 0 0 0 0 0 0 0 0 0 0 0 0 0 0 0 0 0 0 0 0 0 0 0 0 0 0 0 0 0 0 0 0 0 0 0 0 0 0 0 0 0 0 0 0 0 0 0 0 0 0 0 0 0 0 0 0 0 0 0 0 0 0 0 0 0 0h1c0-.01 0-.01 0-.01 0-.01 0-.01 0-.01 0-.01 0-.01 0-.01 0-.01 0-.01 0-.01 0-.01 0-.01 0-.01 0-.01 0-.01 0-.01 0-.01 0-.01 0-.01 0-.01 0-.01 0-.01 0-.01 0-.01 0-.01 0-.01 0-.01 0-.01 0-.01 0-.01 0-.01 0-.01 0-.01 0-.01 0-.01 0-.01 0-.01 0-.01 0-.01 0-.01 0-.01 0-.01 0-.01 0-.01 0-.01 0-.01 0-.01 0-.01 0-.01 0-.01 0-.01 0-.01 0-.01 0-.01 0-.01 0-.01 0-.01 0-.01 0-.01 0-.01 0-.01 0-.01 0-.01 0-.01 0-.01 0-.01 0-.01 0-.01 0-.01 0-.01 0-.01 0-.01 0-.01 0-.01 0-.01 0-.01 0-.01 0-.01 0-.01 0-.01 0-.01 0-.01 0-.01 0-.01 0-.01 0-.01 0-.01 0-.01 0-.01 0-.01 0-.01 0-.01 0-.01 0-.01 0-.01 0-.01 0-.01 0-.01 0-.01 0-.01 0-.01 0-.01 0-.01 0-.01 0-.01 0-.01 0-.01 0-.01 0-.01 0-.01 0-.01 0-.01 0-.01 0-.01 0-.01 0-.01 0-.01 0-.01 0-.01 0-.01 0-.01 0-.01 0-.01 0-.01 0-.01 0-.01 0-.01 0-.01 0-.01 0-.01 0-.01 0-.01 0-.01 0-.01 0-.01 0-.01 0-.01 0-.01 0-.01 0-.01 0-.01 0-.01 0-.01 0-.01 0-.01 0-.01 0-.01 0-.01 0-.01 0-.01 0-.01 0-.01 0-.01 0-.01 0-.01 0-.01 0-.01 0-.01 0-.01 0-.01 0-.01 0-.01 0-.01 0-.01 0-.01 0-.01 0-.01 0-.01 0-.01 0-.01 0-.01 0-.01 0-.01 0-.01 0-.01 0-.01 0-.01 0-.01 0-.01 0-.01 0-.01 0-.01 0-.01 0-.01 0-.01 0-.01 0-.01 0-.01 0-.01 0-.01 0-.01 0-.01 0-.01 0-.01 0-.01 0-.01 0-.01 0-.01 0-.01 0-.01 0-.01 0-.01 0-.01 0-.01 0-.01 0-.01 0-.01 0-.01 0-.01 0-.01 0-.01 0-.01 0-.01 0-.01 0-.01 0-.01 0-.01 0-.01 0-.01 0-.01 0-.01 0-.01 0-.01 0-.01 0-.01 0-.01 0-.01 0-.01 0-.01 0-.01 0-.01 0-.01 0-.01 0-.01 0-.01 0-.01 0-.01 0-.01 0-.01 0-.01 0-.01 0-.01 0-.01 0-.01 0-.01 0-.01 0-.01 0-.01 0-.01 0-.01 0-.01 0-.01 0-.01 0-.01 0-.01 0-.01 0-.01 0-.01 0-.01 0-.01 0-.01 0-.01 0-.01 0-.01 0-.01 0-.01 0-.01 0-.01 0-.01 0-.01 0-.01 0-.01 0-.01 0-.01 0-.01 0-.01 0-.01 0-.01 0-.01 0-.01 0-.01 0-.01 0-.01 0-.01 0-.01 0-.01 0-.01 0-.01 0-.01 0-.01 0-.01 0-.01 0-.01 0-.01 0-.01 0-.01 0-.01 0-.01 0-.01 0-.01 0-.01 0-.01 0-.01 0-.01 0-.01 0-.01 0-.01 0-.01 0-.01 0-.01 0-.01 0-.01 0-.01 0-.01 0-.01 0-.01 0-.01 0-.01 0-.01 0-.01 0-.01 0-.01 0-.01 0-.01 0-.01 0-.01 0-.01 0-.01 0-.01 0-.01 0-.01 0-.01 0-.01 0-.01 0-.01 0-.01 0-.01 0-.01 0-.01 0-.01 0-.01 0-.01 0-.01 0-.01 0-.01 0-.01 0-.01 0-.01 0-.01 0-.01 0-.01 0-.01 0-.01 0-.01 0-.01 0-.01 0-.01 0-.01 0-.01 0-.01 0-.01 0-.01 0-.01 0-.01 0-.01 0-.01 0-.01 0-.01 0-.01 0-.01 0-.01 0-.01 0-.01 0-.01 0-.01 0-.01 0-.01 0-.01 0-.01 0-.01 0-.01 0-.01 0-.01 0-.01 0-.01 0-.01 0-.01 0-.01 0-.01 0-.01 0-.01 0-.01 0-.01 0-.01 0-.01 0-.01 0-.01 0-.01 0-.01 0-.01 0-.01 0-.01 0-.01 0-.01 0-.01 0-.01 0-.01 0-.01 0-.01 0-.01 0-.01 0-.01 0-.01 0-.01 0-.01 0-.01 0-.01 0-.01 0-.01 0-.01 0-.01 0-.01 0-.01 0-.01 0-.01 0-.01 0-.01 0-.01 0-.01 0-.01 0-.01 0-.01 0-.01 0-.01 0-.01 0-.01 0-.01 0-.01 0-.01 0-.01 0-.01 0-.01 0-.01 0-.01 0-.01 0-.01 0-.01 0-.01 0-.01 0-.01 0-.01 0-.01 0-.01 0-.01 0-.01 0-.01 0-.01 0-.01 0-.01 0-.01 0-.01 0-.01 0-.01 0-.01 0-.01 0-.01 0-.01 0-.01 0-.01 0-.01 0-.01 0-.01 0-.01 0-.01 0-.01 0-.01 0-.01 0-.01 0-.01 0-.01 0-.01 0-.01 0-.01 0-.01 0-.01 0-.01 0-.01 0-.01 0-.01 0-.01 0-.01 0-.01 0-.01 0-.01 0-.01 0-.01 0-.01 0-.01 0-.01 0-.01 0-.01 0-.01 0-.01 0-.01 0-.01 0-.01 0-.01 0-.01 0-.01 0-.01 0-.01 0-.01 0-.01 0-.01 0-.01 0-.01 0-.01 0-.01 0-.01 0-.01 0-.01 0-.01 0-.01 0-.01 0-.01 0-.01 0-.01 0-.01 0-.01 0-.01 0-.01 0-.01 0-.01 0-.01 0-.01 0-.01 0-.01 0-.01 0-.01 0-.01 0-.01 0-.01 0-.01 0-.01 0-.01 0-.01 0-.01 0-.01 0-.01 0-.01 0-.01 0-.01 0-.01 0-.01 0-.01 0-.01 0-.01 0-.01 0-.01 0-.01 0-.01 0-.01 0-.01 0-.01 0-.01 0-.01 0-.01 0-.01 0-.01 0-.01 0-.01 0-.01 0-.01 0-.01 0-.01 0-.01 0-.01 0-.01 0-.01 0-.01 0-.01 0-.01 0-.01 0-.01 0-.01 0-.01 0-.01 0-.01 0-.01 0-.01 0-.01 0-.01 0-.01 0-.01 0-.01 0-.01 0-.01 0-.01 0-.01 0-.01 0-.01 0-.01 0-.01 0-.01 0-.01 0-.01 0-.01 0-.01 0-.01 0-.01 0-.01 0-.01 0-.01 0-.01 0-.01 0-.01 0-.01 0-.01 0-.01 0-.01 0-.01 0-.01 0-.01 0-.01 0-.01 0-.01 0-.01 0-.01 0-.01 0-.01 0-.01 0-.01 0-.01 0-.01 0-.01 0-.01 0-.01 0-.01 0-.01 0-.01 0-.01 0-.01 0-.01 0-.01 0-.01 0-.01 0-.01 0-.01 0-.01 0-.01 0-.01 0-.01 0-.01 0-.01 0-.01 0-.01 0-.01 0-.01 0-.01 0-.01 0-.01 0-.01 0-.01 0-.01 0-.01 0-.01 0-.01 0-.01 0-.01 0-.01 0-.01 0-.01 0-.01 0-.01 0-.01 0-.01 0-.01 0-.01 0-.01 0-.01 0-.01 0-.01 0-.01 0-.01 0-.01 0-.01 0-.01 0-.01 0-.01 0-.01 0-.01 0-.01 0-.01 0-.01 0-.01 0-.01 0-.01 0-.01 0-.01 0-.01 0-.01 0-.01 0-.01 0-.01 0-.01 0-.01 0-.01 0-.01 0-.01 0-.01 0-.01 0-.01 0-.01 0-.01 0-.01 0-.01 0-.01 0-.01 0-.01 0-.01 0-.01 0-.01 0-.01 0-.01 0-.01 0-.01 0-.01 0-.01 0-.01 0-.01 0-.01 0-.01 0-.01 0-.01 0-.01 0-.01 0-.01 0-.01 0-.01 0-.01 0-.01 0-.01 0-.01 0-.01 0-.01 0-.01 0-.01 0-.01 0-.01 0-.01 0-.01 0-.01 0-.01 0-.01 0-.01 0-.01 0-.01 0-.01 0-.01 0-.01 0-.01 0-.01 0-.01 0-.01 0-.01 0-.01 0-.01 0-.01 0-.01 0-.01 0-.01 0-.01 0-.01 0-.01 0-.01 0-.01 0-.01 0-.01 0-.01 0-.01 0-.01 0-.01 0-.01 0-.01 0-.01 0-.01 0-.01 0-.01 0-.01 0-.01 0-.01 0-.01 0-.01 0-.01 0-.01 0-.01 0-.01 0-.01 0-.01 0-.01 0-.01 0-.01 0-.01 0-.01 0-.01 0-.01 0-.01 0-.01 0-.01 0-.01 0-.01 0-.01 0-.01 0-.01 0-.01 0-.01 0-.01 0-.01 0-.01 0-.01 0-.01 0-.01 0-.01 0-.01 0-.01 0-.01 0-.01 0-.01 0-.01 0-.01 0-.01 0-.01 0-.01 0-.01 0-.01 0-.01 0-.01 0-.01 0-.01 0-.01 0-.01 0-.01 0-.01 0-.01 0-.01 0-.01 0-.01 0-.01 0-.01 0-.01 0-.01 0-.01 0-.01 0-.01 0-.01 0-.01 0-.01 0-.01 0-.01 0-.01 0-.01 0-.01 0-.01 0-.01 0-.01 0-.01 0-.01 0-.01 0-.01 0-.01 0-.01 0-.01 0-.01 0-.01 0-.01 0-.01 0-.01 0-.01 0-.01 0-.01 0-.01 0-.01 0-.01 0-.01 0-.01 0-.01 0-.01 0-.01 0-.01 0-.01 0-.01 0-.01 0-.01 0-.01 0-.01 0-.01 0-.01 0-.01 0-.01 0-.01 0-.01 0-.01 0-.01 0-.01 0-.01 0-.01 0-.01 0-.01 0-.01 0-.01 0-.01 0-.01 0-.01 0-.01 0-.01 0-.01 0-.01 0-.01 0-.01 0-.01 0-.01 0-.01 0-.01 0-.01 0-.01 0-.01 0-.01 0-.01 0-.01 0-.01 0-.01 0-.01 0-.01 0-.01 0-.01 0-.01 0-.01 0-.01 0-.01 0-.01 0-.01 0-.01 0-.01 0-.01 0-.01 0-.01 0-.01 0-.01 0-.01 0-.01 0-.01 0-.01 0-.01 0-.01 0-.01 0-.01 0-.01 0-.01 0-.01 0-.01 0-.01 0-.01 0-.01 0-.01 0-.01 0-.01 0-.01 0-.01 0-.01 0-.01 0-.01 0-.01 0-.01 0-.01 0-.01 0-.01 0-.01 0-.01 0-.01 0-.01 0-.01 0-.01 0-.01 0-.01 0-.01 0-.01 0-.01 0-.01 0-.01 0-.01 0-.01 0-.01 0-.01 0-.01 0-.01 0-.01 0-.01 0-.01 0-.01 0-.01 0-.01 0-.01 0-.01 0-.01 0-.01 0-.01 0-.01 0-.01 0-.01 0-.01 0-.01 0-.01 0-.01 0-.01 0-.01 0-.01 0-.01 0-.01 0-.01 0-.01 0-.01 0-.01 0-.01 0-.01 0-.01 0-.01 0-.01 0-.01 0-.01 0-.01C11 9 11 9 11 9c0-.01 0-.01 0-.01 0-.01 0-.01 0-.01 0-.01 0-.01 0-.01 0-.01 0-.01 0-.01 0-.01 0-.01 0-.01 0-.01 0-.01 0-.01 0-.01 0-.01 0-.01 0-.01 0-.01 0-.01 0-.01 0-.01 0-.01 0-.01 0-.01 0-.01 0-.01 0-.01 0-.01 0-.01 0-.01 0-.01 0-.01 0-.01 0-.01 0-.01 0-.01 0-.01 0-.01 0-.01 0-.01 0-.01 0-.01 0-.01 0-.01 0-.01 0-.01 0-.01 0-.01 0-.01 0-.01 0-.01 0-.01 0-.01 0-.01 0-.01 0-.01 0-.01 0-.01 0-.01 0-.01 0-.01 0-.01 0-.01 0-.01 0-.01 0-.01 0-.01 0-.01 0-.01 0-.01 0-.01 0-.01 0-.01 0-.01 0-.01 0-.01 0-.01 0-.01 0-.01 0-.01 0-.01 0-.01 0-.01 0-.01 0-.01 0-.01 0-.01 0-.01 0-.01 0-.01 0-.01 0-.01 0-.01 0-.01 0-.01 0-.01 0-.01 0-.01 0-.01 0-.01 0-.01 0-.01 0-.01 0-.01 0-.01 0-.01 0-.01 0-.01 0-.01 0-.01 0-.01 0-.01 0-.01 0-.01 0-.01 0-.01 0-.01 0-.01 0-.01 0-.01 0-.01 0-.01 0-.01 0-.01 0-.01 0-.01 0-.01 0-.01 0-.01 0-.01 0-.01 0-.01 0-.01 0-.01 0-.01 0-.01 0-.01 0-.01 0-.01 0-.01 0-.01 0-.01 0-.01 0-.01 0-.01 0-.01 0-.01 0-.01 0-.01 0-.01 0-.01 0-.01 0-.01 0-.01 0-.01 0-.01 0-.01 0-.01 0-.01 0-.01 0-.01 0-.01 0-.01 0-.01 0-.01 0-.01 0-.01 0-.01 0-.01 0-.01 0-.01 0-.01 0-.01 0-.01 0-.01 0-.01 0-.01 0-.01 0-.01 0-.01 0-.01 0-.01 0-.01 0-.01 0-.01 0-.01 0-.01 0-.01 0-.01 0-.01 0-.01 0-.01 0-.01 0-.01 0-.01 0-.01 0-.01 0-.01 0-.01 0-.01 0-.01 0-.01 0-.01 0-.01 0-.01 0-.01 0-.01 0-.01 0-.01 0-.01 0-.01 0-.01 0-.01 0-.01 0-.01 0-.01 0-.01 0-.01 0-.01 0-.01 0-.01 0-.01 0-.01 0-.01 0-.01 0-.01 0-.01 0-.01 0-.01 0-.01 0-.01 0-.01 0-.01 0-.01 0-.01 0-.01 0-.01 0-.01 0-.01 0-.01 0-.01 0-.01 0-.01 0-.01 0-.01 0-.01 0-.01 0-.01 0-.01 0-.01 0-.01 0-.01 0-.01 0-.01 0-.01 0-.01 0-.01 0-.01 0-.01 0-.01 0-.01 0-.01 0-.01 0-.01 0-.01 0-.01 0-.01 0-.01 0-.01 0-.01 0-.01 0-.01 0-.01 0-.01 0-.01 0-.01 0-.01 0-.01 0-.01 0-.01 0-.01 0-.01 0-.01 0-.01 0-.01 0-.01 0-.01 0-.01 0-.01 0-.01 0-.01 0-.01C11 8 11 8 11 8c0-.01 0-.01 0-.01 0-.01 0-.01 0-.01 0-.01 0-.01 0-.01 0-.01 0-.01 0-.01 0-.01 0-.01 0-.01 0-.01 0-.01 0-.01 0-.01 0-.01 0-.01 0-.01 0-.01 0-.01 0-.01 0-.01 0-.01 0-.01 0-.01 0-.01 0-.01 0-.01 0-.01 0-.01 0-.01 0-.01 0-.01 0-.01 0-.01 0-.01 0-.01 0-.01 0-.01 0-.01 0-.01 0-.01 0-.01 0-.01 0-.01 0-.01 0-.01 0-.01 0-.01 0-.01 0-.01 0-.01 0-.01 0-.01 0-.01 0-.01 0-.01 0-.01 0-.01 0-.01 0-.01 0-.01 0-.01 0-.01 0-.01 0-.01 0-.01 0-.01 0-.01 0-.01 0-.01 0-.01 0-.01 0-.01 0-.01 0-.01 0-.01 0-.01 0-.01 0-.01 0-.01 0-.01 0-.01 0-.01 0-.01 0-.01 0-.01 0-.01 0-.01 0-.01 0-.01 0-.01 0-.01 0-.01 0-.01 0-.01 0-.01 0-.01 0-.01 0-.01 0-.01 0-.01 0-.01 0-.01 0-.01 0-.01 0-.01 0-.01 0-.01 0-.01 0-.01 0-.01 0-.01 0-.01 0-.01 0-.01 0-.01 0-.01 0-.01 0-.01 0-.01 0-.01 0-.01 0-.01 0-.01 0-.01 0-.01 0-.01 0-.01 0-.01 0-.01 0-.01 0-.01 0-.01 0-.01 0-.01 0-.01 0-.01 0-.01 0-.01 0-.01 0-.01 0-.01 0-.01 0-.01 0-.01 0-.01 0-.01 0-.01 0-.01 0-.01 0-.01 0-.01 0-.01 0-.01 0-.01 0-.01 0-.01 0-.01 0-.01 0-.01 0-.01 0-.01 0-.01 0-.01 0-.01 0-.01 0-.01 0-.01 0-.01 0-.01 0-.01 0-.01 0-.01 0-.01 0-.01 0-.01 0-.01 0-.01 0-.01 0-.01 0-.01 0-.01 0-.01 0-.01 0-.01 0-.01 0-.01 0-.01 0-.01 0-.01 0-.01 0-.01 0-.01 0-.01 0-.01 0-.01h-1Zm-2.5-2.5c1.38 0 2.5 1.11 2.5 2.49h1c0-1.94-1.57-3.5-3.5-3.5v1ZM1 12.44c0-1.39 1.11-2.5 2.5-2.5v-1C1.56 8.94 0 10.5 0 12.43h1Zm13 .5v1.5h1v-1.5h-1Zm.5 1H12v1h2.5v-1Zm-2.5-3c1.1 0 2 .89 2 2h1c0-1.66-1.35-3-3-3v1Zm-.5-3c-.83 0-1.5-.68-1.5-1.5H9c0 1.38 1.11 2.5 2.5 2.5v-1Zm1.5-1.5c0 .82-.68 1.5-1.5 1.5v1c1.38 0 2.5-1.12 2.5-2.5h-1Zm-1.5-1.5c.82 0 1.5.67 1.5 1.5h1c0-1.39-1.12-2.5-2.5-2.5v1Zm0-1c-1.39 0-2.5 1.11-2.5 2.5h1c0-.83.67-1.5 1.5-1.5v-1Z"/></svg>