<svg viewBox="0 0 15 15" xmlns="http://www.w3.org/2000/svg"><path d="M13.5 3.5h.5v-.21l-.15-.15 -.36.35Zm-3-3l.35-.36 -.15-.15h-.21v.5Zm-7 4V4H3v.5h.5Zm2 0H6V4h-.5v.5Zm0 2V7H6v-.5h-.5Zm-2 0H3V7h.5v-.5Zm8-2h.5V4h-.5v.5Zm0 2V7h.5v-.5h-.5Zm-2 0H9V7h.5v-.5Zm0-2V4H9v.5h.5Zm-6 6V10H3v.5h.5Zm2 0H6V10h-.5v.5Zm0 2v.5H6v-.5h-.5Zm-2 0H3v.5h.5v-.5Zm6-2V10H9v.5h.5Zm0 2H9v.5h.5v-.5Zm2 0v.5h.5v-.5h-.5Zm0-2h.5V10h-.5v.5Zm1 3.5h-10v1h10v-1ZM2 13.5v-12H1v12h1Zm11-10v10h1v-10h-1ZM2.5 1h8V0h-8v1Zm7.64-.15l3 2.99 .7-.71 -3-3.01 -.71.7ZM2.49 13.99c-.28 0-.5-.23-.5-.5h-1c0 .82.67 1.5 1.5 1.5v-1Zm10 1c.82 0 1.5-.68 1.5-1.5h-1c0 .27-.23.5-.5.5v1ZM1.99 1.49c0-.28.22-.5.5-.5v-1c-.83 0-1.5.67-1.5 1.5h1Zm1.5 3.5h2v-1h-2v1Zm1.5-.5v2h1v-2h-1Zm.5 1.5h-2v1h2v-1Zm-1.5.5v-2h-1v2h1Zm7-2v2h1v-2h-1Zm.5 1.5h-2v1h2v-1Zm-1.5.5v-2h-1v2h1Zm-.5-1.5h2v-1h-2v1Zm-6 6h2v-1h-2v1Zm1.5-.5v2h1v-2h-1Zm.5 1.5h-2v1h2v-1Zm-1.5.5v-2h-1v2h1Zm5-2v2h1v-2h-1Zm.5 2.5h2v-1h-2v1Zm2.5-.5v-2h-1v2h1Zm-.5-2.5h-2v1h2v-1Zm-6-4h4v-1h-4v1Zm-1.5.5v4h1v-4h-1Zm6 0v4h1v-4h-1Zm-4.5 5.5h4v-1h-4v1Z"/></svg>