<svg viewBox="0 0 15 15" xmlns="http://www.w3.org/2000/svg"><path d="M3.5 10.49l.25-.43 -.12-.08h-.14v.49Zm0-6v.5h.13l.11-.08 -.26-.43Zm5-3H9c0-.19-.1-.35-.26-.44 -.16-.09-.35-.09-.51 0l.25.42Zm0 11.99l-.26.42c.15.09.34.09.5 0 .15-.09.25-.26.25-.44h-.5Zm-5-3.5h-2v.99h2v-1Zm-2 0c-.28 0-.5-.23-.5-.5H0c0 .82.67 1.49 1.5 1.49v-1Zm-.5-.5v-4H0v3.99h1Zm0-4c0-.28.22-.5.5-.5v-1c-.83 0-1.5.66-1.5 1.49h1Zm.5-.5h2v-1h-2v1Zm2.25-.08l5-3 -.52-.86 -5 2.99 .51.85Zm4.24-3.43v11.99h1v-12h-1Zm.75 11.56l-5-3 -.52.85 5 2.99 .51-.86Zm1.24-7.07v3h1v-3h-1Zm2-2v7h1v-7h-1Zm2-2v11h1v-11h-1Z"/></svg>