<svg viewBox="0 0 15 15" xmlns="http://www.w3.org/2000/svg"><path d="M6.85 8.84l.35-.36 -.71-.71 -.36.35 .7.7Zm2.14 1.64v.5h1v-.5h-1Zm1-1v-.5h-1v.5h1Zm-1-8v.5h1v-.5h-1Zm1-1v-.5h-1v.5h1Zm-5.5 4.49h-.5v1h.5v-1Zm1 1h.5v-1h-.5v1Zm8-1h-.5v1h.5v-1Zm1 1h.5v-1h-.5v1Zm-2.36-3.86l-.36.35 .7.7 .35-.36 -.71-.71Zm1.7-.3l.35-.36 -.71-.71 -.36.35 .7.7Zm-8-.71L5.47.74l-.71.7 .35.35 .7-.71Zm.29 1.7l.35.35 .7-.71 -.36-.36 -.71.7Zm6.7 5.28l-.36-.36 -.71.7 .35.35 .7-.71Zm.29 1.7l.35.35 .7-.71 -.36-.36 -.71.7ZM.81 14.77l6-6 -.71-.71 -6 5.99 .7.7Zm9.14-4.36v-1h-1v.99h1Zm0-9v-1h-1v.99h1ZM4.45 5.9h1v-1h-1v1Zm9 0h1v-1h-1v1Zm-.65-3.15l1-1 -.71-.71 -1 .99 .7.7Zm-7.71-1l1 .99 .7-.71 -1-1 -.71.7Zm7 6.99l1 .99 .7-.71 -1-1 -.71.7Z"/></svg>