<svg viewBox="0 0 15 15" xmlns="http://www.w3.org/2000/svg"><path d="M1.89 11.7l.44.22 .13-.28 -.19-.25 -.4.3Zm1.39 1.39l.3-.4 -.25-.19 -.28.13 .22.44Zm-2.8 1.39l-.45-.23c-.1.19-.06.42.09.57 .15.15.38.18.57.09l-.23-.45Zm4-10l-.28-.42c-.14.09-.23.24-.23.41h.5Zm6 6v.5c.16 0 .32-.09.41-.23l-.42-.28ZM6.23 5l.49-.09 -.5.08Zm.13.83l-.5.08 .49-.09Zm-.44.99l.27.41v0l-.28-.42Zm4.68 3.42l.41.27 -.42-.28Zm-.67-1.55l.08-.5 -.09.49Zm-.84-.14L9 9.04v0l.08-.5Zm-1 .43l-.42-.28 .41.27ZM-.06 7.44c-.001 1.68.55 3.24 1.5 4.5l.79-.61C1.41 10.24.93 8.89.93 7.42h-1Zm7.5-7.5c-4.15 0-7.5 3.35-7.5 7.5h1c0-3.59 2.91-6.5 6.5-6.5v-1Zm7.5 7.5c0-4.15-3.36-7.5-7.5-7.5v1c3.58 0 6.5 2.91 6.5 6.5h1Zm-7.5 7.5c4.14 0 7.5-3.36 7.5-7.5h-1c0 3.58-2.92 6.5-6.5 6.5v1Zm-4.51-1.5c1.25.94 2.81 1.5 4.5 1.5v-1c-1.47 0-2.82-.49-3.91-1.3l-.61.79ZM.65 14.88l2.79-1.4 -.45-.9 -2.8 1.39 .44.89Zm.72-3.48l-1.4 2.79 .89.44 1.39-2.8 -.9-.45Zm2.54-6.98v1h1v-1h-1Zm5.5 6.5h1v-1h-1v1Zm-5.5-5.5c0 3.03 2.46 5.5 5.5 5.5v-1c-2.49 0-4.5-2.02-4.5-4.5h-1Zm.77-.59l.21-.15 -.56-.84 -.22.14 .55.83Zm.98.19l.13.83 .98-.17 -.14-.84 -.99.16Zm-.08 1.33l-.97.64 .55.83 .96-.65 -.56-.84Zm.21-.5c.03.19-.06.38-.22.49l.55.83c.49-.33.74-.92.64-1.5l-.99.16Zm-.91-1.18c.3-.21.71-.03.77.33l.98-.17c-.18-1.08-1.41-1.61-2.32-1.01l.55.83Zm5.92 6l.14-.22 -.84-.56 -.15.21 .83.55Zm-.86-2.53L9.1 8l-.17.98 .83.13 .16-.99Zm-2.34.5l-.65.96 .83.55 .64-.97 -.84-.56Zm1.49-.65c-.59-.1-1.17.15-1.5.64l.83.55c.1-.17.3-.25.49-.22l.16-.99Zm1.83 2.45c.6-.91.07-2.14-1.01-2.32l-.17.98c.35.05.53.46.33.77l.83.55Z"/></svg>