<svg viewBox="0 0 15 15" xmlns="http://www.w3.org/2000/svg"><path d="M13.5 3.5h.5v-.21l-.15-.15 -.36.35Zm-3-3l.35-.36 -.15-.15h-.21v.5Zm-4 10H6v.5h.5v-.5Zm-2-1H5v-.21l-.15-.15 -.36.35Zm-2-2H2v.2l.14.14 .35-.36Zm8-1V6H10v.5h.5Zm0 2H10V9h.5v-.5Zm2 0h.5V8h-.5v.5Zm0 2v.5h.5v-.5h-.5Zm-10-1l-.36-.36 -.15.14v.2h.5Zm2-2l.35.35 .14-.15v-.21h-.5ZM2 5V1.5H1V5h1Zm11-1.5V5h1V3.5h-1ZM2.5 1h8V0h-8v1Zm7.64-.15l3 2.99 .7-.71 -3-3.01 -.71.7Zm-8.15.64c0-.28.22-.5.5-.5v-1c-.83 0-1.5.67-1.5 1.5h1Zm-1 10.5v1.5h1v-1.5h-1Zm1.5 3h10v-1h-10v1Zm11.5-1.5v-1.5h-1v1.5h1Zm-1.5 1.5c.82 0 1.5-.68 1.5-1.5h-1c0 .27-.23.5-.5.5v1Zm-11.5-1.5c0 .82.67 1.5 1.5 1.5v-1c-.28 0-.5-.23-.5-.5h-1Zm5-7.5v4.5h1v-4.5h-1Zm.5 5h2.5v-1h-2.5v1Zm-2.5-1.5v1.5h1v-1.5h-1Zm.85-.36l-2-2 -.71.7 2 2 .7-.71ZM2.98 7.48v-1.5h-1v1.5h1Zm10-1.5h-2.5v1h2.5v-1Zm-3 .5v2h1v-2h-1Zm.5 2.5h2v-1h-2v1Zm1.5-.5v2h1v-2h-1Zm.5 1.5h-2.5v1h2.5v-1Zm-9.5 1v-1.5h-1v1.5h1Zm-.15-1.15l2-2 -.71-.71 -2 2 .7.7Zm2.14-2.36v-1.5h-1v1.5h1Z"/></svg>