<svg viewBox="0 0 15 15" xmlns="http://www.w3.org/2000/svg"><path d="M3.5 8.5V8h-.4l-.1.37 .48.12Zm2 0l.48-.13 -.1-.38h-.4v.5Zm.68 2.75l.48-.13v0l-.49.12Zm-3.38 0l.48.12 -.49-.13Zm6.68-.76l.27-.42c-.16-.11-.36-.12-.52-.03 -.17.08-.27.25-.27.44h.5Zm3 2l-.28.41c.15.1.35.11.51.02 .16-.09.26-.26.26-.45h-.5Zm-3-8h-.5v.5h.5v-.5Zm-8-3.5h12v-1h-12v1Zm12.5.5v12h1v-12h-1Zm-.5 12.5h-12v1h12v-1Zm-12.5-.5v-12h-1v12h1Zm.5.5c-.28 0-.5-.23-.5-.5h-1c0 .82.67 1.5 1.5 1.5v-1Zm12.5-.5c0 .27-.23.5-.5.5v1c.82 0 1.5-.68 1.5-1.5h-1Zm-.5-12.5c.27 0 .5.22.5.5h1c0-.83-.68-1.5-1.5-1.5v1Zm-12-1c-.83 0-1.5.67-1.5 1.5h1c0-.28.22-.5.5-.5v-1Zm1.5 3h3v-1h-3v1Zm0 2h3v-1h-3v1Zm0 2h3v-1h-3v1Zm.5 2h2v-1h-2v1Zm1.51-.38l.68 2.75 .97-.25 -.69-2.76 -.98.24Zm.2 3.37H3.75v1h1.43v-1Zm-1.93-.63l.68-2.76 -.98-.25 -.69 2.75 .97.24Zm.48.62c-.33 0-.57-.31-.49-.63l-.98-.25c-.24.94.47 1.86 1.45 1.86v-1Zm1.92-.63c.07.31-.16.62-.49.62v1c.97 0 1.69-.92 1.45-1.87l-.98.24Zm4.29 1.62v-2.5h-1v2.5h1Zm-.78-2.09l2.99 2 .55-.84 -3.01-2 -.56.83Zm3.77 1.58v-2.5h-1v2.5h1Zm-4-6.5v3h1v-3h-1Zm3 0v3h1v-3h-1Zm-2.5 2h3v-1h-3v1Zm.5-3.5v-1h-1v1h1Zm3-.5h-1.5v1h1.5v-1Zm-1.5 0h-2v1h2v-1Zm-.5-.5v1h1v-1h-1Zm-.5-.5c.27 0 .5.22.5.5h1c0-.83-.68-1.5-1.5-1.5v1Zm-.5.5c0-.28.22-.5.5-.5v-1c-.83 0-1.5.67-1.5 1.5h1Z"/></svg>