<svg viewBox="0 0 24 24" xmlns="http://www.w3.org/2000/svg"><path fill="none" d="M0 0h24v24H0Z"/><path d="M16 4c0-1.11.89-2 2-2 1.11 0 2 .89 2 2 0 1.11-.89 2-2 2 -1.11 0-2-.89-2-2Zm4 17v-5h1.11c.68 0 1.16-.67.95-1.32l-2.1-6.31C19.68 7.55 18.92 7 18.06 7h-.12c-.86 0-1.63.55-1.9 1.37l-.86 2.58c1.08.6 1.82 1.73 1.82 3.05v8h2c.55 0 1-.45 1-1Zm-7.5-9.5c.83 0 1.5-.67 1.5-1.5s-.67-1.5-1.5-1.5 -1.5.67-1.5 1.5 .67 1.5 1.5 1.5ZM5.5 6c1.11 0 2-.89 2-2 0-1.11-.89-2-2-2 -1.11 0-2 .89-2 2 0 1.11.89 2 2 2Zm2 15v-6H8c.55 0 1-.45 1-1V9c0-1.1-.9-2-2-2H4c-1.1 0-2 .9-2 2v5c0 .55.45 1 1 1h.5v6c0 .55.45 1 1 1h2c.55 0 1-.45 1-1Zm2.5-7v3c0 .55.45 1 1 1v0 3c0 .55.45 1 1 1h1c.55 0 1-.45 1-1v-3 0c.55 0 1-.45 1-1v-3c0-.82-.68-1.5-1.5-1.5h-2c-.82 0-1.5.68-1.5 1.5"/></svg>