<svg viewBox="0 0 24 24" xmlns="http://www.w3.org/2000/svg"><path fill="none" d="M0 0h24v24H0Z"/><path d="M15 4v0c.55 0 1 .45 1 1v0c0 .55-.45 1-1 1v0c-.55 0-1-.45-1-1v0c0-.55.45-1 1-1Zm-1 3v0c.55 0 1 .45 1 1v0c0 .55-.45 1-1 1v0c-.55 0-1-.45-1-1v0c0-.55.45-1 1-1Zm-2-3v0c.55 0 1 .45 1 1v0c0 .55-.45 1-1 1v0c-.55 0-1-.45-1-1v0c0-.55.45-1 1-1Zm5 5v0c-.55 0-1-.45-1-1v0c0-.55.45-1 1-1v0c.55 0 1 .45 1 1v0c0 .55-.45 1-1 1Zm1-3v0c-.55 0-1-.45-1-1v0c0-.55.45-1 1-1v0c.55 0 1 .45 1 1v0c0 .55-.45 1-1 1Zm2 3v0c-.55 0-1-.45-1-1v0c0-.55.45-1 1-1v0c.55 0 1 .45 1 1v0c0 .55-.45 1-1 1Zm1-3v0c-.55 0-1-.45-1-1v0c0-.55.45-1 1-1v0c.55 0 1 .45 1 1v0c0 .55-.45 1-1 1Zm-6.38 8.38L12.1 16.9c-2.5-1.43-4.57-3.5-6-6l2.52-2.52c.24-.24.34-.58.28-.9L8.16 3.8c-.09-.46-.5-.8-.98-.8H3.03c-.56 0-1.03.47-1 1.03 .17 2.89 1.02 5.6 2.4 7.97 1.58 2.73 3.85 4.99 6.57 6.57 2.37 1.37 5.08 2.23 7.97 2.4 .56.03 1.03-.44 1.03-1v-4.15c0-.48-.34-.89-.8-.98l-3.67-.73c-.33-.07-.67.03-.91.27ZM15 10v0c.55 0 1 .45 1 1v0c0 .55-.45 1-1 1v0c-.55 0-1-.45-1-1v0c0-.55.45-1 1-1Zm-3 0v0c.55 0 1 .45 1 1v0c0 .55-.45 1-1 1v0c-.55 0-1-.45-1-1v0c0-.55.45-1 1-1Zm6 2v0c-.55 0-1-.45-1-1v0c0-.55.45-1 1-1v0c.55 0 1 .45 1 1v0c0 .55-.45 1-1 1Zm3 0v0c-.55 0-1-.45-1-1v0c0-.55.45-1 1-1v0c.55 0 1 .45 1 1v0c0 .55-.45 1-1 1Z"/></svg>