<svg viewBox="0 0 24 24" xmlns="http://www.w3.org/2000/svg"><path fill="none" d="M0 0h24v24H0Z"/><path d="M17.12 6.28l-2.62.64L13 5.77V3.88 3.4c0-.26.22-.48.5-.48 .23 0 .43.16.49.36 .11.42.5.72.95.72 .55 0 1-.45 1-1 0-.1-.02-.2-.05-.3 -.3-.98-1.26-1.7-2.39-1.7C12.12 1 11 2.07 11 3.4v.48 1.89L9.5 6.92l-2.62-.64c-.38-.09-.72.27-.6.64l4.77 14.39c.15.46.55.69.95.69 .4 0 .8-.23.95-.69l4.77-14.39c.12-.37-.22-.73-.6-.64ZM11 14.8L9.03 8.86l.92.23 .76-.58 .29-.22v6.51Zm2 0V8.29l.28.22 .76.58 .92-.23L13 14.8Z"/></svg>