<svg viewBox="0 0 24 24" xmlns="http://www.w3.org/2000/svg"><path fill-rule="evenodd" d="M6.07 3.17c-1.75.34-3.35 1.2-4.61 2.46l2.12 2.12c.83-.84 1.9-1.41 3.06-1.64 .87-.18 1.77-.15 2.63.06 -.22.25-.42.52-.61.8 -.99 1.48-1.52 3.22-1.52 5 0 1.78.52 3.52 1.51 5 .18.28.38.54.6.8 -.86.21-1.76.24-2.64.06 -1.17-.24-2.23-.81-3.07-1.64l-2.13 2.12c1.25 1.25 2.86 2.11 4.6 2.46 1.74.34 3.55.16 5.19-.52 .24-.11.49-.22.72-.35 .23.12.47.23.72.34 1.64.68 3.45.85 5.2.51 1.74-.35 3.34-1.21 4.6-2.47l-2.13-2.13c-.84.83-1.91 1.4-3.07 1.63 -.88.17-1.78.14-2.64-.07 .21-.26.41-.53.6-.81 .98-1.48 1.51-3.23 1.51-5.01 0-1.78-.53-3.53-1.52-5.01 -.19-.29-.39-.55-.61-.81 .85-.22 1.75-.25 2.63-.07 1.16.23 2.22.8 3.06 1.63l2.12-2.13c-1.26-1.26-2.87-2.12-4.61-2.47 -1.75-.35-3.56-.17-5.2.51 -.25.1-.5.21-.73.34 -.24-.13-.48-.24-.73-.35 -1.65-.69-3.46-.86-5.2-.52Zm5.92 4.53c-.31.29-.58.61-.81.96 -.66.98-1.01 2.14-1.01 3.32 0 1.18.35 2.34 1 3.32 .23.35.5.67.8.96 .3-.3.57-.62.8-.97 .65-.99 1-2.15 1-3.33 0-1.19-.36-2.35-1.01-3.33 -.24-.36-.51-.68-.81-.97Z"/></svg>