<svg viewBox="0 0 24 24" xmlns="http://www.w3.org/2000/svg"><g><path d="M20.38 2.87c-1.18-1.18-3.08-1.18-4.25 0L14 4.99l-.71-.71c-.4-.4-1.03-.4-1.42 0 -.4.39-.4 1.02 0 1.41l5.65 5.65c.39.39 1.02.39 1.41 0 .39-.4.39-1.03 0-1.42l-.71-.71 2.12-2.13c1.17-1.18 1.17-3.08 0-4.25Z"/><path fill-rule="evenodd" d="M11.92 7.09l-7.78 7.77c-.93.92-1.12 2.29-.59 3.41l-1.57 1.56 1.41 1.41 1.56-1.57c1.11.53 2.49.33 3.41-.59l7.77-7.78 -4.25-4.25Zm1.41 4.24l-1.42-1.42 -6.37 6.36c-.4.39-.4 1.02 0 1.41 .39.39 1.02.39 1.41 0l6.36-6.37Z"/></g></svg>