<svg viewBox="0 0 24 24" xmlns="http://www.w3.org/2000/svg"><path fill-rule="evenodd" d="M1 11.95v.08c.01 2.68.98 5.14 2.59 7.04 .46.55.98 1.05 1.54 1.5 .56.45 1.18.85 1.83 1.18 .93.48 1.94.83 3 1.02 .61.11 1.24.17 1.89.18 .04 0 .08 0 .12 0 3.68 0 6.95-1.82 8.95-4.61 .41-.59.78-1.22 1.07-1.88 .62-1.39.97-2.92.97-4.53 0-3.27-1.42-6.19-3.68-8.21 -.53-.47-1.09-.89-1.7-1.25C15.93 1.48 14 .91 11.94.91c-.12 0-.23 0-.34 0 -1.67.04-3.25.47-4.65 1.18 -.96.48-1.83 1.1-2.6 1.83 -.72.67-1.34 1.44-1.85 2.29 -.37.59-.67 1.23-.92 1.89 -.43 1.16-.67 2.43-.68 3.74Zm19.48 3.06c.33-.95.51-1.96.51-3.02 0-2.46-.99-4.69-2.59-6.31 -.83 1.36-1.91 2.49-3.16 3.35 .46 1.21.72 2.51.73 3.83 .76.17 1.52.42 2.26.77 .8.37 1.54.83 2.21 1.36Zm-4.64-.13c.53.13 1.06.32 1.58.56 .8.37 1.52.84 2.15 1.4 -1.51 2.33-4.06 3.92-7 4.11 .97-.93 1.79-2.05 2.39-3.34 .41-.9.7-1.83.86-2.76Zm-1.85-2.28c-.04-.89-.21-1.76-.5-2.59 -2.82 1.25-6.14 1.33-9.15-.07 -.35-.16-.68-.34-.99-.53 -.24.8-.37 1.66-.37 2.55 0 1.94.61 3.74 1.66 5.22 2.16-3.04 5.7-4.73 9.32-4.6Zm-7.95 6.12c1.72-2.7 4.72-4.22 7.81-4.14 -.14.73-.37 1.47-.7 2.18 -.79 1.67-2.02 2.99-3.49 3.89 -1.37-.37-2.6-1.04-3.63-1.95Zm5.95-15.76c1.78 0 3.44.51 4.84 1.41 -.64 1.13-1.49 2.08-2.48 2.81 -1.03-1.66-2.5-3.07-4.35-4.02 .63-.15 1.29-.22 1.97-.22ZM8.79 4.8c1.64.76 2.94 1.96 3.83 3.39 -2.3 1.01-5 1.06-7.44-.08 -.37-.18-.72-.37-1.05-.58 .75-1.35 1.85-2.48 3.17-3.28 .49.13.99.31 1.47.53Z"/></svg>