<svg viewBox="0 0 24 24" xmlns="http://www.w3.org/2000/svg"><g><path d="M12 14c1.1 0 2-.9 2-2 0-1.11-.9-2-2-2 -1.11 0-2 .89-2 2 0 1.1.89 2 2 2Z"/><path fill-rule="evenodd" d="M12 22C6.47 22 2 17.52 2 12 2 6.47 6.47 2 12 2c5.52 0 10 4.47 10 10 0 5.52-4.48 10-10 10Zm-2.97-2.57c-.03-.15-.04-.29-.04-.44 0-1.66 1.34-3 3-3 1.65 0 3 1.34 3 3 0 .14-.02.29-.04.43 2.03-.82 3.64-2.44 4.46-4.47 -.15.02-.29.03-.44.03 -1.66 0-3-1.35-3-3 0-1.66 1.34-3 3-3 .06 0 .12 0 .18 0 .08 0 .16.01.24.02 -.82-2.04-2.44-3.65-4.47-4.47 .02.14.03.28.03.43 0 1.65-1.35 3-3 3 -1.66 0-3-1.35-3-3 0-.15.01-.3.03-.44 -2.04.81-3.65 2.43-4.47 4.46 .07-.02.15-.02.24-.03 .06-.01.12-.01.18-.01 1.65 0 3 1.34 3 3 0 1.65-1.35 3-3 3 -.15 0-.3-.02-.44-.04 .81 2.03 2.43 3.64 4.46 4.46Z"/></g></svg>