<svg viewBox="0 0 24 24" xmlns="http://www.w3.org/2000/svg"><path fill-rule="evenodd" d="M17.53 2.87c-1.18-1.18-3.08-1.18-4.25 0l-1.42 1.41c-.07.06-.12.12-.18.18 -.06-.07-.12-.13-.18-.19l-1.42-1.42C8.9 1.67 7 1.67 5.83 2.85c-1.18 1.17-1.18 3.07 0 4.24l.87.87H.94v6h2v8h18v-8h2v-6h-6.35l.87-.88c1.17-1.18 1.17-3.08 0-4.25ZM14.7 7.11l1.41-1.42c.39-.4.39-1.03 0-1.42 -.4-.4-1.03-.4-1.42 0l-1.42 1.41c-.4.39-.4 1.02 0 1.41 .39.39 1.02.39 1.41 0Zm-4.59-1.42L8.69 4.27c-.4-.4-1.03-.4-1.42 0 -.4.39-.4 1.02 0 1.41l1.41 1.41c.39.39 1.02.39 1.41 0 .39-.4.39-1.03 0-1.42Zm10.87 4.29v2h-18v-2h18Zm-8.09 4h6.08v6h-6.09v-6Zm-1.84 0v6H4.96v-6h6.08Z"/></svg>