<svg viewBox="0 0 24 24" xmlns="http://www.w3.org/2000/svg"><path fill-rule="evenodd" d="M12 21c4.97 0 9-4.03 9-9 0-4.98-4.03-9-9-9 -4.98 0-9 4.02-9 9 0 4.97 4.02 9 9 9Zm2.8-2.59c2.31-1.02 3.97-3.25 4.17-5.9 -.83.44-1.87.81-3.05 1.07 -.15 1.86-.56 3.53-1.14 4.81ZM9.18 5.57c-1.95.85-3.44 2.56-3.98 4.65 .23.21.62.49 1.22.75 .44.19.97.37 1.55.52 .05-2.33.49-4.42 1.18-5.95Zm.9 8.32c.15 1.45.48 2.7.89 3.64 .29.66.59 1.07.82 1.29 .08.07.14.11.17.14 .03-.03.09-.07.17-.15 .23-.22.52-.64.82-1.3 .41-.94.74-2.19.89-3.65 -.62.05-1.25.08-1.9.08 -.66 0-1.29-.04-1.9-.09Zm-2.04-.32c.14 1.86.55 3.53 1.13 4.81 -2.32-1.02-3.98-3.25-4.18-5.9 .82.44 1.86.81 3.04 1.07Zm5.93-1.71c-.64.07-1.31.11-2 .11 -.7 0-1.37-.04-2-.12 .01-2.23.42-4.15.99-5.45 .29-.67.59-1.08.82-1.3 .08-.08.14-.12.17-.15 .03.02.09.06.17.14 .23.21.52.63.82 1.29 .57 1.29.98 3.21.99 5.44Zm1.99-.36c-.06-2.33-.5-4.42-1.19-5.95 1.94.85 3.43 2.56 3.97 4.65 -.24.21-.63.49-1.23.75 -.45.19-.98.37-1.56.52Z"/></svg>