<svg viewBox="0 0 24 24" xmlns="http://www.w3.org/2000/svg"><g><path d="M5 3c-.56 0-1-.45-1-1 0-.56.44-1 1-1h14c.55 0 1 .44 1 1 0 .55-.45 1-1 1H5Z"/><path d="M9 15c-.56 0-1-.45-1-1 0-.56.44-1 1-1h2v-2c0-.56.44-1 1-1 .55 0 1 .44 1 1v2h2c.55 0 1 .44 1 1 0 .55-.45 1-1 1h-2v2c0 .55-.45 1-1 1 -.56 0-1-.45-1-1v-2H9Z"/><path fill-rule="evenodd" d="M4 19c0 1.65 1.34 3 3 3h10c1.65 0 3-1.35 3-3V9c0-1.66-1.35-3-3-3H7C5.34 6 4 7.34 4 9v10Zm13 1c.55 0 1-.45 1-1V9c0-.56-.45-1-1-1H7c-.56 0-1 .44-1 1v10c0 .55.44 1 1 1h10Z"/></g></svg>