<svg viewBox="0 0 24 24" xmlns="http://www.w3.org/2000/svg"><g><path d="M8.01 6.98c-.56 0-1 .45-1 1s.44 1 1 1h7.95c.55 0 1-.46 1-1.01 0-.56-.45-1.01-1-1.01H8Z"/><path d="M7.01 12c0-.56.44-1.01 1-1.01h7.95c.55 0 1 .45 1 1s-.45 1-1 1H8c-.56 0-1.01-.46-1.01-1.01Z"/><path d="M8.02 15.01c-.56 0-1 .45-1 1s.44 1 1 1h7.95c.55 0 1-.46 1-1.01 0-.56-.45-1.01-1-1.01H8.01Z"/><path fill-rule="evenodd" d="M3 6c0-1.66 1.34-3 3-3h12c1.65 0 3 1.34 3 3v12c0 1.65-1.35 3-3 3H6c-1.66 0-3-1.35-3-3V6Zm3-1h12c.55 0 1 .44 1 1v12c0 .55-.45 1-1 1H6c-.56 0-1-.45-1-1V6c0-.56.44-1 1-1Z"/></g></svg>