<svg viewBox="0 0 24 24" xmlns="http://www.w3.org/2000/svg"><g><path d="M12 9c1.1 0 2-.9 2-2 0-1.11-.9-2-2-2 -1.11 0-2 .89-2 2 0 1.1.89 2 2 2Z"/><path d="M14 12c0 1.1-.9 2-2 2 -1.11 0-2-.9-2-2 0-1.11.89-2 2-2 1.1 0 2 .89 2 2Z"/><path d="M12 19c1.1 0 2-.9 2-2 0-1.11-.9-2-2-2 -1.11 0-2 .89-2 2 0 1.1.89 2 2 2Z"/><path fill-rule="evenodd" d="M2 3c0-1.66 1.34-3 3-3h14c1.65 0 3 1.34 3 3v18c0 1.65-1.35 3-3 3H5c-1.66 0-3-1.35-3-3V3Zm3-1h14c.55 0 1 .44 1 1v18c0 .55-.45 1-1 1H5c-.56 0-1-.45-1-1V3c0-.56.44-1 1-1Z"/></g></svg>