<svg viewBox="0 0 24 24" xmlns="http://www.w3.org/2000/svg"><g><path opacity=".2" d="M22 11c0 2.65-1.06 5.19-2.93 7.07 -1.88 1.87-4.42 2.92-7.08 2.92s-5.2-1.06-7.08-2.93c-1.88-1.88-2.93-4.42-2.93-7.08h20Z"/><path opacity=".3" d="M20 11c0 2.12-.85 4.15-2.35 5.65 -1.51 1.5-3.54 2.34-5.66 2.34 -2.13 0-4.16-.85-5.66-2.35 -1.51-1.51-2.35-3.54-2.35-5.66h16Z"/><path d="M20 11c0-2.13-.85-4.16-2.35-5.66 -1.51-1.51-3.54-2.35-5.66-2.35 -2.13 0-4.16.84-5.66 2.34 -1.51 1.5-2.35 3.53-2.35 5.65h16Z"/></g></svg>