<svg viewBox="0 0 24 24" xmlns="http://www.w3.org/2000/svg"><path d="M7.17 18.02c-1.36-.74-2.48-1.86-3.22-3.24 -.94-1.75-1.2-3.78-.73-5.7 .47-1.93 1.64-3.61 3.28-4.72 1.63-1.12 3.63-1.58 5.59-1.31l-.44 3.12c-1.19-.17-2.4.11-3.39.78 -1 .67-1.71 1.69-1.99 2.85 -.29 1.16-.13 2.39.43 3.45 .44.83 1.12 1.51 1.94 1.95l6.14-11.28 2.63 1.43c1.35.73 2.47 1.85 3.21 3.23 .93 1.74 1.19 3.77.72 5.69 -.48 1.92-1.65 3.6-3.29 4.71 -1.64 1.11-3.64 1.57-5.6 1.3l.43-3.13c1.18.16 2.39-.12 3.38-.79 .99-.68 1.7-1.7 1.98-2.86 .28-1.17.12-2.4-.44-3.46 -.45-.84-1.13-1.52-1.95-1.96L9.7 19.35l-2.64-1.44Z"/></svg>