<svg viewBox="0 0 24 24" xmlns="http://www.w3.org/2000/svg"><path fill-rule="evenodd" d="M19.07 19.07c3.9-3.91 3.9-10.24 0-14.15 -3.91-3.91-10.24-3.91-14.15 0 -3.91 3.9-3.91 10.23 0 14.14 3.9 3.9 10.23 3.9 14.14 0Zm.87-8.04c-.21-1.72-.97-3.38-2.29-4.7 -1.33-1.33-3-2.09-4.72-2.29l-.02.05c-.83 4.47-4.35 7.99-8.82 8.81l-.06.01c.2 1.72.96 3.39 2.28 4.71 1.31 1.31 2.98 2.07 4.69 2.28 0-.03 0-.05.01-.08 .82-4.48 4.34-8 8.81-8.82 .02-.01.04-.01.07-.02Zm-.08 2.38v-.34c-3.37.76-6.02 3.41-6.78 6.77h.33c1.54-.28 3.03-1.02 4.22-2.22 1.19-1.2 1.93-2.68 2.21-4.23ZM4.09 10.86v-.23C4.35 9.04 5.1 7.52 6.32 6.3c1.22-1.23 2.73-1.97 4.32-2.24h.22c-.77 3.36-3.42 6.01-6.78 6.77Z"/></svg>