<svg viewBox="0 0 24 24" xmlns="http://www.w3.org/2000/svg"><g><path d="M16.94 5.63c.39-.4 1.02-.4 1.41 0 .39.39.39 1.02 0 1.41l-7.08 7.07c-.4.39-1.03.39-1.42 0 -.4-.4-.4-1.03 0-1.42l7.07-7.08Z"/><path fill-rule="evenodd" d="M7.82 17.58c1.94 1.28 4.58 1.07 6.29-.64l7.071-7.08c1.95-1.96 1.95-5.12 0-7.08 -1.96-1.96-5.12-1.96-7.071 0L7.03 9.85c-1.72 1.71-1.93 4.35-.64 6.29l-3.61 3.6c-.4.39-.4 1.02 0 1.41 .39.39 1.02.39 1.41 0l3.6-3.61Zm4.87-2.06l7.071-7.08c1.17-1.18 1.17-3.08 0-4.25 -1.18-1.18-3.08-1.18-4.25 0l-7.08 7.07c-1.18 1.17-1.18 3.07 0 4.24 1.17 1.17 3.07 1.17 4.24 0Z"/></g></svg>