<svg viewBox="0 0 640 480" xmlns="http://www.w3.org/2000/svg"><path fill="#012169" d="M0 0h640v480H0Z"/><path fill="#49497D" d="M484.3 180.4l2 2Z"/><path fill="#0E0E6E" d="M486.3 180.4l2 2Z"/><path fill="#262678" d="M480.2 182.4l2 2Z"/><path fill="#808067" d="M482.3 182.4l2 2Z"/><path fill="#58587B" d="M488.3 182.4l2 2Z"/><path fill="#0E0E6E" d="M413.2 184.5l2 2Z"/><path fill="#1B1B74" d="M476.2 184.5l2 2Z"/><path fill="#6E6C70" d="M478.2 184.5l2 2Z"/><path fill="#CC3" d="M416.8 188c0 52.6-6 111.7 33 152.8 8 8.4 23.4 27.7 36.5 27 13.7-.8 31.4-21.1 39.2-31 34-44.8 28.7-98.2 29.8-150.2 -15.3 6.9-23 9.2-36.4 9 -10 1-25.3-5.5-34.5-10 -6 4-14.7 8.9-30.4 9.4 -18 .8-23.8-2.3-37.2-7Z"/><path fill="#99994E" d="M490.4 184.5l2 2Z"/><path fill="#49497D" d="M492.4 184.5l2 2Z"/><path fill="#0E0E6E" d="M555.3 184.5l2 2Z"/><path fill="#A4A43D" d="M415.3 186.5l2 2Z"/><path fill="#6E6C70" d="M417.3 186.5l2 2Z"/><path fill="#3A3A7C" d="M419.3 186.5l2 2Z"/><path fill="#1B1B74" d="M472 186.5l2 2Z"/><path fill="#6E6C70" d="M474 186.5l2 2Z"/><path fill="#A4A43D" d="M476.2 186.5l2 2Z"/><path fill="#D0D045" d="M484.3 186.5l2 2Z"/><path fill="#A4A43D" d="M492.4 186.5l2 2Z"/><path fill="#8D8D5B" d="M494.4 186.5l2 2Z"/><path fill="#3A3A7C" d="M496.5 186.5l2 2Z"/><path fill="#262678" d="M549.2 186.5l2 2Z"/><path fill="#53527C" d="M551.3 186.5l2 2Z"/><path fill="#8D8D5B" d="M553.3 186.5l2 2Z"/><path fill="#737370" d="M423.4 188.6l2 2Z"/><path fill="#53527C" d="M425.4 188.6l2 2Z"/><path fill="#1B1B74" d="M427.4 188.6l2 2Z"/><path fill="#262678" d="M468 188.6l2 2Z"/><path fill="#6E6C70" d="M470 188.6l2 2Z"/><path fill="#A4A43D" d="M472 188.6l2 2Z"/><path fill="#E5E59D" d="M482.3 188.6l2 2Z"/><path fill="#FFF" d="M420.9 193.8c-1 27.6-.2 58.6 4 88 4.9 15.5 4.2 24 11.3 33.2l99-.8c6-9.7 10.5-24.4 11-30.3 5.6-29.7 5.7-62.6 5.9-92v0c-10.89 5.98-23.33 8.56-35.7 7.4v0c-10.75-.65-21.2-3.8-30.5-9.2 -9.5 5.6-12.8 8.2-28.4 8.9 -12.2.6-22 1.6-36.6-5.2Z"/><path fill="#F2F1D7" d="M486.3 188.6l2 2Z"/><path fill="#D9D868" d="M488.3 188.6l2 2Z"/><path fill="#A4A43D" d="M496.5 188.6l2 2Z"/><path fill="#99994E" d="M498.5 188.6l2 2Z"/><path fill="#49497D" d="M500.5 188.6l2 2Z"/><path fill="#0E0E6E" d="M502.5 188.6l2 2Z"/><path fill="#3A3A7C" d="M543.2 188.6l2 2Z"/><path fill="#667" d="M545.2 188.6l2 2Z"/><path fill="#99994E" d="M547.2 188.6l2 2Z"/><path fill="#A4A43D" d="M549.2 188.6l2 2 -2-2m-121.8 2l2 2Z"/><path fill="#99994E" d="M429.5 190.6l2 2Z"/><path fill="#6E6C70" d="M431.5 190.6l2 2Z"/><path fill="#49497D" d="M433.5 190.6l2 2Z"/><path fill="#1B1B74" d="M435.5 190.6l2 2 -2-2m26.4 0l2 2Z"/><path fill="#53527C" d="M463.9 190.6l2 2 -2-2Z"/><path fill="#8D8D5B" d="M466 190.6l2 2Z"/><path fill="#A4A43D" d="M468 190.6l2 2Z"/><path fill="#E5E59D" d="M478.2 190.6l2 2Z"/><path fill="#FBFAF2" d="M480.2 190.6l2 2Z"/><path fill="#F2F1D2" d="M490.4 190.6l2 2Z"/><path fill="#D9D868" d="M492.4 190.6l2 2Z"/><path fill="#A4A43D" d="M502.5 190.6l2 2Z"/><path fill="#6E6C70" d="M504.6 190.6l2 2Z"/><path fill="#3A3A7C" d="M506.6 190.6l2 2Z"/><path fill="#0E0E6E" d="M533 190.6l2 2Z"/><path fill="#32327B" d="M535 190.6l2 2Z"/><path fill="#58587B" d="M537 190.6l2 2Z"/><path fill="#808067" d="M539 190.6l2 2Z"/><path fill="#A4A43D" d="M542.5 191.2l1.3.7Z"/><path fill="#DDDC7A" d="M419.3 192.6l2 2Z"/><path fill="#D0D045" d="M421.3 192.6l2 2Z"/><path fill="#A4A43D" d="M436.9 193.2l1.4.7Z"/><path fill="#808067" d="M439.6 192.6l2 2Z"/><path fill="#667" d="M441.6 192.6l2 2Z"/><path fill="#58587B" d="M443.7 192.6l2 2Z"/><path fill="#49497D" d="M445.7 192.6l2 2Z"/><path fill="#737370" d="M457.9 192.6l2 2Z"/><path fill="#99994E" d="M459.9 192.6l2 2Z"/><path fill="#A4A43D" d="M461.9 192.6l2 2Z"/><path fill="#E5E59D" d="M474 192.6l2 2Z"/><path fill="#FBFAF2" d="M476.2 192.6l2 2Z"/><path fill="#F2F1D2" d="M494.4 192.6l2 2Z"/><path fill="#D9D868" d="M496.5 192.6l2 2Z"/><path fill="#A4A43D" d="M507.9 193.2l1.4.7 -1.3-.7Z"/><path fill="#808067" d="M510.7 192.6l2 2Z"/><path fill="#667" d="M512.7 192.6l2 2Z"/><path fill="#58587B" d="M514.7 192.6l2 2Z"/><path fill="#3A3A7C" d="M516.8 192.6l2 2Z"/><path fill="#58587B" d="M526.2 193.2l1.4.7Z"/><path fill="#737370" d="M528.9 192.6l2 2Z"/><path fill="#99994E" d="M530.9 192.6l2 2 -2-2Z"/><path fill="#A4A43D" d="M533 192.6l2 2Z"/><path fill="#DDDC7A" d="M549.2 192.6l2 2Z"/><path fill="#D0D045" d="M551.3 192.6l2 2Z"/><path fill="#F2F1D7" d="M423.4 194.6l2 2Z"/><path fill="#E0DEA1" d="M425.4 194.6l2 2Z"/><path fill="#DDDC7A" d="M427.4 194.6l2 2Z"/><path fill="#D9D868" d="M468 194.6l2 2Z"/><path fill="#E5E3AF" d="M470 194.6l2 2Z"/><path fill="#F6F6E4" d="M498.5 194.6l2 2Z"/><path fill="#E1E18C" d="M500.5 194.6l2 2Z"/><path fill="#D4D456" d="M541 194.6l2 2Z"/><path fill="#E1E18C" d="M543.2 194.6l2 2Z"/><path fill="#EEEDC1" d="M545.2 194.6l2 2Z"/><path fill="#F2F1D2" d="M431.5 196.6l2 2Z"/><path fill="#E0DEA1" d="M433.5 196.6l2 2Z"/><path fill="#DDDC7A" d="M435.5 196.6l2 2Z"/><path fill="#D0D045" d="M437.6 196.6l2 2Z"/><path fill="#DDDC7A" d="M461.9 196.6l2 2Z"/><path fill="#E5E3AF" d="M463.9 196.6l2 2 -2-2Z"/><path fill="#F6F6E4" d="M466 196.6l2 2Z"/><path fill="#EEEDC1" d="M504.6 196.6l2 2Z"/><path fill="#E1E18C" d="M506.6 196.6l2 2Z"/><path fill="#D4D456" d="M508.6 196.6l2 2Z"/><path fill="#D9D868" d="M533 196.6l2 2Z"/><path fill="#E1E18C" d="M535 196.6l2 2Z"/><path fill="#EEEDC1" d="M537 196.6l2 2Z"/><path fill="#F6F6E4" d="M539 196.6l2 2Z"/><path fill="#F2F1D7" d="M441.6 198.6l2 2 -2-2Z"/><path fill="#F2F1D2" d="M443.7 198.6l2 2 -2-2Z"/><path fill="#EEEDC1" d="M445.7 198.6l2 2 -2-2Z"/><path fill="#F2F1D2" d="M455.2 199.3l1.3.7Z"/><path fill="#FBFAF2" d="M457.9 198.6l2 2 -2-2Z"/><path fill="#FEF8F1" d="M468 198.6l4 4v-4h-4Z"/><path fill="#F2F1D7" d="M512.7 198.6l2 2 -2-2Z"/><path fill="#F2F1D2" d="M514.7 198.6l2 2 -2-2Z"/><path fill="#E5E3AF" d="M516.8 198.6l2 2 -2-2Z"/><path fill="#E5E59D" d="M520.2 199.3l1.3.7 -1.4-.7Z"/><path fill="#E0DEA1" d="M522.9 198.6l2 2 -2-2Z"/><path fill="#F2F1D2" d="M526.2 199.3l1.4.7Z"/><path fill="#FBFAF2" d="M528.9 198.6l2 2 -2-2Z"/><path fill="#FEF8F1" d="M463.9 200.7l2 2 -2-2Z"/><path fill="#FBBE66" d="M466 200.7l2 2Z"/><path fill="#FBC477" d="M463.9 202.7l2 2 -2-2Z"/><path fill="#FCB144" d="M468 202.7l2 2Z"/><path fill="#FE9F11" d="M463.9 204.8l2 2 -2-2Z"/><path fill="#FEA522" d="M468 204.8l2 2Z"/><path fill="#FAE3C9" d="M461.9 206.8l2 2 -2-2m8.2 0l2 2Z"/><path fill="#FBEAD6" d="M480.2 206.8l2 2Z"/><path fill="#F9D6AA" d="M482.3 206.8l2 2Z"/><path fill="#FAE3C9" d="M490.4 206.8l2 2Z"/><path fill="#FEF8F1" d="M492.4 206.8l2 2Z"/><path fill="#F9D099" d="M461.9 208.8l2 2Z"/><path fill="#FDAB33" d="M470 208.8l2 2Z"/><path fill="#FCF1E4" d="M474 208.8l2 2Z"/><path fill="#FBC477" d="M476.2 208.8l2 2Z"/><path fill="#FEA522" d="M478.2 208.8l2 2Z"/><path fill="#FCB755" d="M494.4 208.8l2 2Z"/><path fill="#F9D6AA" d="M496.5 208.8l2 2Z"/><path fill="#FACA88" d="M461.9 210.9l2 2Z"/><path fill="#FEA522" d="M472 210.9l2 2 -2-2m26.5 0l2 2Z"/><path fill="#F8DCBB" d="M500.5 210.9l2 2Z"/><path fill="#F6F6E4" d="M419.3 212.9l2 2Z"/><path fill="#FBC477" d="M461.9 212.9l2 2Z"/><path fill="#FBBE66" d="M502.5 212.9l2 2Z"/><path fill="#F8DCBB" d="M504.6 212.9l2 2Z"/><path fill="#FACA88" d="M461.9 214.9l2 2Z"/><path fill="#FCB755" d="M508.6 214.9l2 2Z"/><path fill="#F8DCBB" d="M510.7 214.9l2 2Z"/><path fill="#FEF8F1" d="M459.9 217l2 2Z"/><path fill="#FE9F11" d="M461.9 217l2 2Z"/><path fill="#FDAB33" d="M518.8 217l2 2Z"/><path fill="#FCB144" d="M520.9 217l2 2Z"/><path fill="#FBC477" d="M522.9 217l2 2Z"/><path fill="#F9D6AA" d="M524.9 217l4 4Z"/><path fill="#FEF8F1" d="M526.9 217l2 2Z"/><path fill="#FCB144" d="M459.9 219l2 2Z"/><path fill="#FDAB33" d="M488.3 219l2 2Z"/><path fill="#FBC477" d="M490.4 219l2 2Zm8 0l2 2 -2-2Z"/><path fill="#FEA522" d="M500.5 219l2 2Z"/><path fill="#FAE3C9" d="M457.9 221l2 2Z"/><path fill="#FCB144" d="M484.3 221l2 2Z"/><path fill="#FAE3C9" d="M486.3 221l2 2Z"/><path fill="#F8DCBB" d="M502.5 221l2 2Z"/><path fill="#FDAB33" d="M504.6 221l2 2Z"/><path fill="#FE9F11" d="M516.8 221l2 2Z"/><path fill="#FCB755" d="M518.8 221l2 2Z"/><path fill="#F9D099" d="M520.9 221l2 2Z"/><path fill="#FBEAD6" d="M522.9 221l2 2Z"/><path fill="#FCB144" d="M457.9 223l2 2Z"/><path fill="#FBBE66" d="M482.3 223l2 2Z"/><path fill="#F9D099" d="M506.6 223l2 2Z"/><path fill="#FBEAD6" d="M514.7 223l2 2Z"/><path fill="#FCF1E4" d="M455.9 225l2 2Z"/><path fill="#FBBE66" d="M480.2 225l2 2Z"/><path fill="#F9D099" d="M508.6 225l2 2Z"/><path fill="#FAE3C9" d="M514.7 225l2 2Z"/><path fill="#FBC477" d="M455.9 227l2 2Z"/><path fill="#FCB144" d="M478.2 227l2 2 -2-2m32.5 0l2 2Z"/><path fill="#FBBE66" d="M514.7 227l2 2Z"/><path fill="#F6F6E4" d="M419.3 229l2 2Z"/><path fill="#FEA522" d="M455.9 229l2 2Z"/><path fill="#FBEAD6" d="M478.2 229l2 2Z"/><path fill="#FCF1E4" d="M510.7 229l2 2Z"/><path fill="#FEF8F1" d="M516.8 229l2 2Z"/><path fill="#FCF1E4" d="M453.9 231.2l2 2Z"/><path fill="#FBBE66" d="M476.2 231.2l2 2Z"/><path fill="#FACA88" d="M512.7 231.2l2 2Z"/><path fill="#F9D099" d="M516.8 231.2l2 2Z"/><path fill="#F9D6AA" d="M453.9 233.2l2 2Z"/><path fill="#FCF1E4" d="M476.2 233.2l2 2Z"/><path fill="#FAE3C9" d="M486.3 233.2l2 2Z"/><path fill="#FEA522" d="M488.3 233.2l2 2Z"/><path fill="#FCB144" d="M490.4 233.2l2 2Z"/><path fill="#F9D6AA" d="M492.4 233.2l2 2Z"/><path fill="#FEF8F1" d="M512.7 233.2l2 2Z"/><path fill="#FEA522" d="M514.7 233.2l2 2Z"/><path fill="#FDAB33" d="M516.8 233.2l2 2Z"/><path fill="#FACA88" d="M453.9 235.2l-2.1 6 2-6Z"/><path fill="#FEA522" d="M474 235.2l2 2Z"/><path fill="#FEF8F1" d="M476.2 235.2l2 2Z"/><path fill="#F9D099" d="M486.3 235.2l2 2Z"/><path fill="#FDAB33" d="M494.4 235.2l2 2Z"/><path fill="#FAE3C9" d="M496.5 235.2l2 2Z"/><path fill="#F8DCBB" d="M514.7 235.2l2 2Z"/><path fill="#F90" d="M516.8 235.2l2 2Z"/><path fill="#FBEAD6" d="M519.5 236.6l.6 1.3Z"/><path fill="#FEA522" d="M478.2 237.2l2 2Z"/><path fill="#FBBE66" d="M480.2 237.2l2 2Z"/><path fill="#FACA88" d="M482.3 237.2l2 2Z"/><path fill="#FCB144" d="M484.3 237.2l2 2Z"/><path fill="#FAE3C9" d="M486.3 237.2l2 2Z"/><path fill="#FE9F11" d="M488.3 237.2l2 2Z"/><path fill="#FDAB33" d="M498.5 237.2l2 2Z"/><path fill="#FBC477" d="M500.5 237.2l2 2Z"/><path fill="#FACA88" d="M502.5 237.2l2 2Z"/><path fill="#F9D6AA" d="M504.6 237.2l2 2Z"/><path fill="#FAE3C9" d="M507.9 237.9l1.4.7 -1.3-.7Z"/><path fill="#FEF8F1" d="M510.7 237.2l2 2Z"/><path fill="#FBC477" d="M516.8 237.2l2 2Z"/><path fill="#FEF8F1" d="M429.5 239.3l2 2Z"/><path fill="#FCF1E4" d="M431.5 239.3l2 2Z"/><path fill="#FCB755" d="M484.3 239.3l2 2Z"/><path fill="#FBEAD6" d="M488.3 239.3l2 2Z"/><path fill="#FEA522" d="M490.4 239.3l2 2Z"/><path fill="#FE9F11" d="M506.6 239.3l2 2Z"/><path fill="#FCB144" d="M508.6 239.3l-2 4Z"/><path fill="#FE9F11" d="M512.7 239.3l2 2Z"/><path fill="#FBBE66" d="M514.7 239.3l2 2Z"/><path fill="#FCF1E4" d="M516.8 239.3l2 2Z"/><path fill="#FAE3C9" d="M429.5 241.3l2 2Z"/><path fill="#FE9F11" d="M431.5 241.3l4 4Z"/><path fill="#FBEAD6" d="M433.5 241.3l2 2Zm18.3 0l2 2Z"/><path fill="#FAE3C9" d="M453.9 241.3l2 2Z"/><path fill="#FE9F11" d="M472 241.3l2 2Z"/><path fill="#FBC477" d="M474 241.3l2 2Z"/><path fill="#FEA522" d="M476.2 241.3l2 2Z"/><path fill="#FBC477" d="M482.3 241.3l2 2Z"/><path fill="#FEF8F1" d="M484.3 241.3l2 2Z"/><path fill="#FBC477" d="M492.4 241.3l2 2Z"/><path fill="#FFF" d="M508.6 241.3l2 2Z"/><path fill="#FDAB33" d="M510.7 241.3l2 2Z"/><path fill="#FBC477" d="M518.8 241.3l2 2Z"/><path fill="#FEF8F1" d="M429.5 243.3l2 2Z"/><path fill="#FBEAD6" d="M435.5 243.3l2 2Z"/><path fill="#F9D6AA" d="M445.7 243.3l2 2Z"/><path fill="#FE9F11" d="M455.9 243.3l2 2Z"/><path fill="#F9D6AA" d="M459.2 244l1.4.7Z"/><path fill="#F8DCBB" d="M472 243.3l2 2Z"/><path fill="#FCF1E4" d="M478.2 243.3l2 2Z"/><path fill="#F9D6AA" d="M494.4 243.3l2 2Z"/><path fill="#FDAB33" d="M508.6 243.3l2 2Z"/><path fill="#FCB755" d="M520.9 243.3l2 2Z"/><path fill="#FEF8F1" d="M522.9 243.3l2 2Z"/><path fill="#53527C" d="M413.2 245.4l2 2Z"/><path fill="#FCB755" d="M431.5 245.4l2 2Z"/><path fill="#FEA522" d="M435.5 245.4l2 2Z"/><path fill="#FBEAD6" d="M443.7 245.4l2 2Z"/><path fill="#FE9F11" d="M447.7 245.4l2 2Z"/><path fill="#FCF1E4" d="M449.8 245.4l2 2Z"/><path fill="#FBBE66" d="M455.9 245.4l2 2Z"/><path fill="#FBC477" d="M457.9 245.4l2 2Z"/><path fill="#FBBE66" d="M459.9 245.4l2 2Z"/><path fill="#FEA522" d="M470 245.4l2 2Z"/><path fill="#F9D6AA" d="M496.5 245.4l2 2Z"/><path fill="#FCB144" d="M522.9 245.4l2 2Z"/><path fill="#8D8D5B" d="M555.3 245.4l2 2Z"/><path fill="#E5E3AF" d="M419.3 247.4l2 2Z"/><path fill="#F8DCBB" d="M431.5 247.4l2 2Z"/><path fill="#FDAB33" d="M437.6 247.4l2 2Z"/><path fill="#FE9F11" d="M443.7 247.4l2 2Z"/><path fill="#FACA88" d="M447.7 247.4l2 2Z"/><path fill="#FCF1E4" d="M455.9 247.4l2 2Z"/><path fill="#F9D099" d="M470 247.4l2 2 -2-2m28.5 0l2 2Z"/><path fill="#FBBE66" d="M524.9 247.4l2 2Z"/><path fill="#FEA522" d="M433.5 249.4l2 2Z"/><path fill="#FDAB33" d="M439.6 249.4l2 2Z"/><path fill="#FEA522" d="M441.6 249.4l2 2Z"/><path fill="#FE9F11" d="M445.7 249.4l2 2Z"/><path fill="#FEF8F1" d="M447.7 249.4l2 2Z"/><path fill="#FBBE66" d="M457.9 249.4l2 2Z"/><path fill="#FEF8F1" d="M470 249.4l2 2Z"/><path fill="#FBBE66" d="M500.5 249.4l2 2Z"/><path fill="#F9D099" d="M526.9 249.4l2 2Z"/><path fill="#F9D6AA" d="M433.5 251.5l2 2Z"/><path fill="#F9D099" d="M445.7 251.5l2 2Z"/><path fill="#FCF1E4" d="M457.9 251.5l2 2Z"/><path fill="#FDAB33" d="M468 251.5l2 2 -2-2m34.5 0l2 2Z"/><path fill="#FBEAD6" d="M528.9 251.5l2 2Z"/><path fill="#FEA522" d="M435.5 253.5l2 2Z"/><path fill="#FE9F11" d="M443.7 253.5l2 2Z"/><path fill="#FCB144" d="M459.9 253.5l2 2Z"/><path fill="#FACA88" d="M468 253.5l2 2Z"/><path fill="#F8DCBB" d="M502.5 253.5l2 2Z"/><path fill="#FCB144" d="M528.9 253.5l2 2Z"/><path fill="#D3D079" d="M419.3 255.6l2 2Z"/><path fill="#FACA88" d="M435.5 255.6l2 2Zm24.4 0l2 2Z"/><path fill="#FAE3C9" d="M468 255.6l2 2 -2-2m34.5 0l2 2Z"/><path fill="#F8DCBB" d="M530.9 255.6l2 2 -2-2Z"/><path fill="#F2F1D7" d="M549.2 255.6l2 2Z"/><path fill="#58587B" d="M556 256.9l.7 1.3Z"/><path fill="#D9D868" d="M419.9 258.9l.8 1.4 -.7-1.4Z"/><path fill="#F8DCBB" d="M435.5 257.6l2 2Z"/><path fill="#F9D6AA" d="M500.5 257.6l2 2Z"/><path fill="#FE9F11" d="M502.5 257.6l2 2Z"/><path fill="#FCB144" d="M530.9 257.6l2 2 -2-2Z"/><path fill="#F2F1D2" d="M549.9 258.9l.7 1.4Z"/><path fill="#FCF1E4" d="M435.5 259.6l2 2Z"/><path fill="#FEF8F1" d="M498.5 259.6l2 2Z"/><path fill="#FE9F11" d="M500.5 259.6l2 2Z"/><path fill="#FDAB33" d="M506.6 259.6l-2 4Z"/><path fill="#FCB755" d="M508.6 259.6l2 2Z"/><path fill="#FEA522" d="M533 259.6l2 2Z"/><path fill="#F9D099" d="M535 259.6l2 2Z"/><path fill="#53527C" d="M555.3 259.6l2 2Z"/><path fill="#808067" d="M415.9 263l.7 1.3Z"/><path fill="#FEA522" d="M437.6 261.6l2 2 -2-2m6 0l2 2 -2-2Z"/><path fill="#FE9F11" d="M466 261.6l2 2Z"/><path fill="#FAE3C9" d="M498.5 261.6l2 2Z"/><path fill="#FEF8F1" d="M506.6 261.6l2 2Z"/><path fill="#FCB144" d="M510.7 261.6l2 2Z"/><path fill="#FCB755" d="M537 261.6l2 2Z"/><path fill="#FEF8F1" d="M539 261.6l4 4Z"/><path fill="#E5E59D" d="M549.9 263l.7 1.3Z"/><path fill="#32327B" d="M556 263l.7 1.3Z"/><path fill="#FCB755" d="M438.3 265l.6 1.4Z"/><path fill="#FEF8F1" d="M445.7 263.6l2 2Z"/><path fill="#FBBE66" d="M466 263.6l2 2Z"/><path fill="#FBEAD6" d="M498.5 263.6l2 2Z"/><path fill="#FE9F11" d="M502.5 263.6l2 2Z"/><path fill="#FCF1E4" d="M504.6 263.6l2 2Z"/><path fill="#FBEAD6" d="M510.7 263.6l2 2Z"/><path fill="#FDAB33" d="M539 263.6l2 2Z"/><path fill="#667" d="M415.3 265.6l2 2 -2-2Z"/><path fill="#F6F6E4" d="M421.3 265.6l2 2 -2-2Z"/><path fill="#F9D6AA" d="M445.7 265.6l2 2 -2-2Z"/><path fill="#FDAB33" d="M461.9 265.6l2 2 -2-2Z"/><path fill="#FE9F11" d="M463.9 265.6l2 2 -2-2Z"/><path fill="#FCF1E4" d="M466 265.6l2 2 -2-2Z"/><path fill="#FEA522" d="M500.5 265.6l2 2 -2-2Z"/><path fill="#FACA88" d="M502.5 265.6l2 2 -2-2m10.2 0l2 2Z"/><path fill="#FCB144" d="M541 265.6l2 2 -2-2Z"/><path fill="#DDDC7A" d="M549.2 265.6l2 2 -2-2Z"/><path fill="#58587B" d="M415.3 267.7l2 2Z"/><path fill="#F2F1D2" d="M421.3 267.7l2 2Z"/><path fill="#FCB144" d="M438.3 269l.6 1.4Z"/><path fill="#FEA522" d="M445.7 267.7l2 2Z"/><path fill="#FEF8F1" d="M466 267.7l2 2Z"/><path fill="#FEA522" d="M468 267.7l2 2Z"/><path fill="#FCB144" d="M472 267.7l2 2Z"/><path fill="#FBEAD6" d="M474 267.7l2 2Z"/><path fill="#F8DCBB" d="M500.5 267.7l2 2Z"/><path fill="#FCF1E4" d="M502.5 267.7l2 2Z"/><path fill="#FEF8F1" d="M512.7 267.7l2 2Z"/><path fill="#FE9F11" d="M514.7 267.7l2 2Z"/><path fill="#FBEAD6" d="M543.2 267.7l2 2Z"/><path fill="#D9D868" d="M549.2 267.7l2 2Z"/><path fill="#3A3A7C" d="M415.3 269.7l2 2Z"/><path fill="#E5E3AF" d="M421.3 269.7l2 2Z"/><path fill="#FACA88" d="M447.7 269.7l2 2Z"/><path fill="#FBEAD6" d="M468 269.7l2 2Z"/><path fill="#FE9F11" d="M474 269.7l2 2Z"/><path fill="#FCF1E4" d="M476.2 269.7l2 2Z"/><path fill="#FBEAD6" d="M498.5 269.7l2 2Z"/><path fill="#FAE3C9" d="M500.5 269.7l2 2Z"/><path fill="#FBEAD6" d="M502.5 269.7l2 2Z"/><path fill="#FBBE66" d="M514.7 269.7l2 2 -2-2m16.3 0l2 2Z"/><path fill="#FCF1E4" d="M533 269.7l2 2Z"/><path fill="#FEF8F1" d="M535 269.7l2 2Z"/><path fill="#F8DCBB" d="M537 269.7l2 2Z"/><path fill="#FCB755" d="M539 269.7l2 2Z"/><path fill="#FAE3C9" d="M543.2 269.7l2 2Z"/><path fill="#808067" d="M553.3 269.7l2 2Z"/><path fill="#32327B" d="M415.3 271.8l2 2Z"/><path fill="#A4A43D" d="M417.9 273l.7 1.5 -.6-1.4Z"/><path fill="#E5E59D" d="M421.3 271.8l2 2Z"/><path fill="#FBC477" d="M437.6 271.8l2 2Z"/><path fill="#F9D6AA" d="M449.8 271.8l2 2Z"/><path fill="#FBBE66" d="M470 271.8l2 2Z"/><path fill="#F9D099" d="M476.2 271.8l2 2Z"/><path fill="#FAE3C9" d="M494.4 271.8l2 2Z"/><path fill="#FCB144" d="M496.5 271.8l2 2Z"/><path fill="#FAE3C9" d="M504.6 271.8l2 2Z"/><path fill="#F8DCBB" d="M514.7 271.8l2 2Z"/><path fill="#F9D099" d="M530.9 271.8l2 2 -2-2Z"/><path fill="#FBC477" d="M541 271.8l2 2Z"/><path fill="#FBEAD6" d="M543.2 271.8l2 2Z"/><path fill="#737370" d="M553.3 271.8l2 2Z"/><path fill="#D9D868" d="M421.3 273.8l2 2Z"/><path fill="#F9D099" d="M437.6 273.8l2 2Z"/><path fill="#F9D6AA" d="M451.8 273.8l2 2 -2-2m18.3 0l2 2Z"/><path fill="#FBC477" d="M476.2 273.8l2 2Z"/><path fill="#FEF8F1" d="M486.3 273.8l2 2Z"/><path fill="#F8DCBB" d="M488.3 273.8l2 2Z"/><path fill="#FBC477" d="M490.4 273.8l2 2Z"/><path fill="#FEA522" d="M492.4 273.8l2 2Z"/><path fill="#FBEAD6" d="M504.6 273.8l2 2Z"/><path fill="#F2F1D2" d="M547.2 273.8l2 2Z"/><path fill="#58587B" d="M553.3 273.8l2 2Z"/><path fill="#99994E" d="M417.3 275.8l2 2Z"/><path fill="#D0D045" d="M421.3 275.8l2 2Z"/><path fill="#FCB144" d="M453.9 275.8l2 2Z"/><path fill="#FAE3C9" d="M455.9 275.8l2 2Z"/><path fill="#FEF8F1" d="M470 275.8l2 2Z"/><path fill="#FCB755" d="M478.2 275.8l2 2Z"/><path fill="#FBC477" d="M480.2 275.8l2 2Z"/><path fill="#FCB144" d="M482.3 275.8l2 2Z"/><path fill="#FEA522" d="M484.3 275.8l2 2Z"/><path fill="#FE9F11" d="M500.5 275.8l2 2Z"/><path fill="#F9D6AA" d="M502.5 275.8l2 2Z"/><path fill="#FEF8F1" d="M530.9 275.8l2 2 -2-2Z"/><path fill="#E0DEA1" d="M547.2 275.8l2 2Z"/><path fill="#3A3A7C" d="M553.3 275.8l2 2Z"/><path fill="#737370" d="M417.3 277.9l2 2Z"/><path fill="#FBFAF2" d="M423.4 277.9l2 2Z"/><path fill="#FEA522" d="M439.6 277.9l2 2Z"/><path fill="#FE9F11" d="M457.9 277.9l2 2Z"/><path fill="#FCB144" d="M459.9 277.9l2 2Z"/><path fill="#FBC477" d="M461.9 277.9l2 2Z"/><path fill="#FACA88" d="M463.9 277.9l2 2 -2-2Z"/><path fill="#FBC477" d="M466 277.9l2 2Z"/><path fill="#FCB144" d="M468 277.9l2 2Z"/><path fill="#FDAB33" d="M470 277.9l2 2Z"/><path fill="#FBC477" d="M498.5 277.9l2 2Z"/><path fill="#FEF8F1" d="M500.5 277.9l2 2Z"/><path fill="#FDAB33" d="M528.9 277.9l2 2Z"/><path fill="#E1E18C" d="M547.2 277.9l2 2Z"/><path fill="#A4A43D" d="M551.9 279.2l.7 1.4Z"/><path fill="#262678" d="M553.3 277.9l2 2Z"/><path fill="#58587B" d="M417.3 279.9l2 2Z"/><path fill="#F2F1D2" d="M423.4 279.9l2 2Z"/><path fill="#FACA88" d="M439.6 279.9l2 2Z"/><path fill="#FE9F11" d="M494.4 279.9l2 2Z"/><path fill="#FBEAD6" d="M496.5 279.9l2 2Z"/><path fill="#FBC477" d="M514.7 279.9l2 2Z"/><path fill="#FACA88" d="M528.9 279.9l2 2Z"/><path fill="#D4D456" d="M547.2 279.9l2 2Z"/><path fill="#32327B" d="M417.3 281.9l2 2Z"/><path fill="#E5E59D" d="M423.4 281.9l2 2Z"/><path fill="#FEF8F1" d="M439.6 281.9l2 2Z"/><path fill="#FE9F11" d="M441.6 281.9l2 2Z"/><path fill="#FBEAD6" d="M494.4 281.9l2 2Z"/><path fill="#FEA522" d="M514.7 281.9l2 2Z"/><path fill="#FCF1E4" d="M528.9 281.9l2 2Z"/><path fill="#808067" d="M551.3 281.9l2 2Z"/><path fill="#0E0E6E" d="M417.3 283.9l2 2Z"/><path fill="#A4A43D" d="M419.3 283.9l2 2Z"/><path fill="#D9D868" d="M423.4 283.9l2 2Z"/><path fill="#F8DCBB" d="M441.6 283.9l2 2Z"/><path fill="#F9D6AA" d="M512.7 283.9l2 2Z"/><path fill="#FACA88" d="M526.9 283.9l2 2Z"/><path fill="#F2F1D2" d="M545.2 283.9l2 2Z"/><path fill="#58587B" d="M551.3 283.9l2 2Z"/><path fill="#8D8D5B" d="M419.3 286l2 2Z"/><path fill="#F9D6AA" d="M443.7 286l2 2Z"/><path fill="#FDAB33" d="M484.3 286l2 2Z"/><path fill="#FFF" d="M486.3 286l2 2Z"/><path fill="#FCB144" d="M489.7 286.6l1.4.7Z"/><path fill="#FEF8F1" d="M510.7 286l-2 4Z"/><path fill="#FE9F11" d="M512.7 286l2 2Z"/><path fill="#FDAB33" d="M524.9 286l-2 4Z"/><path fill="#E5E59D" d="M545.2 286l2 2Z"/><path fill="#3A3A7C" d="M551.3 286l2 2Z"/><path fill="#667" d="M419.3 288l2 2Z"/><path fill="#F2F1D2" d="M425.4 288l2 2Z"/><path fill="#F9D6AA" d="M445.7 288l2 2Z"/><path fill="#FE9F11" d="M484.3 288l2 2Z"/><path fill="#FACA88" d="M486.3 288l2 2Z"/><path fill="#FEA522" d="M488.3 288l2 2Z"/><path fill="#FCF1E4" d="M490.4 288l2 2Z"/><path fill="#FDAB33" d="M510.7 288l2 2Z"/><path fill="#FEF8F1" d="M524.9 288l2 2Z"/><path fill="#D9D868" d="M545.2 288l2 2Z"/><path fill="#A4A43D" d="M549.2 288l2 2Z"/><path fill="#0E0E6E" d="M551.3 288l2 2Z"/><path fill="#3A3A7C" d="M419.3 290l2 2Z"/><path fill="#E5E59D" d="M425.4 290l2 2Z"/><path fill="#FAE3C9" d="M447.7 290l4 4Z"/><path fill="#FE9F11" d="M449.8 290l2 2Z"/><path fill="#F8DCBB" d="M488.3 290l2 2Z"/><path fill="#FCF1E4" d="M506.6 290l2 2Z"/><path fill="#FDAB33" d="M508.6 290l2 2Z"/><path fill="#FCB144" d="M520.9 290l2 2Z"/><path fill="#FEF8F1" d="M522.9 290l2 2Z"/><path fill="#FBFAF2" d="M543.2 290l2 2Z"/><path fill="#8D8D5B" d="M549.2 290l2 2Z"/><path fill="#0E0E6E" d="M419.3 292l2 2Z"/><path fill="#A4A43D" d="M421.3 292l2 2Z"/><path fill="#D4D456" d="M425.4 292l2 2Z"/><path fill="#F9D6AA" d="M486.3 292l2 2Z"/><path fill="#F9D099" d="M504.6 292l2 2Z"/><path fill="#FE9F11" d="M506.6 292l2 2Z"/><path fill="#FACA88" d="M518.8 292l2 2Z"/><path fill="#EEEDC1" d="M543.2 292l2 2Z"/><path fill="#58587B" d="M549.2 292l2 2Z"/><path fill="#737370" d="M421.3 294l2 2Z"/><path fill="#F6F6E4" d="M427.4 294l2 2Z"/><path fill="#FBBE66" d="M449.8 294l2 2Z"/><path fill="#FCB144" d="M482.3 294l2 2Z"/><path fill="#F8DCBB" d="M484.9 295.5l.7 1.3Z"/><path fill="#FBBE66" d="M500.5 294l2 2Z"/><path fill="#FE9F11" d="M502.5 294l2 2Z"/><path fill="#FBC477" d="M514.7 294l2 2Z"/><path fill="#FCF1E4" d="M516.8 294l2 2Z"/><path fill="#D3D079" d="M543.2 294l2 2Z"/><path fill="#A4A43D" d="M547.2 294l2 2Z"/><path fill="#262678" d="M549.2 294l2 2Z"/><path fill="#49497D" d="M421.3 296l2 2Z"/><path fill="#E0DEA1" d="M427.4 296l2 2Z"/><path fill="#FAE3C9" d="M447.7 296l2 2Z"/><path fill="#FDAB33" d="M476.2 296l2 2Z"/><path fill="#FBC477" d="M478.2 296l2 2Z"/><path fill="#FBEAD6" d="M480.2 296l2 2Z"/><path fill="#FCB144" d="M486.3 296l2 2Z"/><path fill="#F9D6AA" d="M512.7 296l2 2Z"/><path fill="#99994E" d="M547.2 296l2 2Z"/><path fill="#0E0E6E" d="M421.3 298.2l2 2Z"/><path fill="#A4A43D" d="M423.4 298.2l2 2Z"/><path fill="#D4D456" d="M427.4 298.2l2 2Z"/><path fill="#F9D099" d="M445.7 298.2l2 2Z"/><path fill="#FE9F11" d="M447.7 298.2l2 2 -2-2m10.2 0l2 2Z"/><path fill="#F9D6AA" d="M459.9 298.2l2 2Z"/><path fill="#F9D099" d="M461.9 298.2l2 2Z"/><path fill="#F9D6AA" d="M470 298.2l2 2Z"/><path fill="#FAE3C9" d="M472 298.2l2 2Z"/><path fill="#FEF8F1" d="M474 298.2l2 2Z"/><path fill="#FBEAD6" d="M490.4 298.2l2 2Z"/><path fill="#FAE3C9" d="M492.4 298.2l2 2Z"/><path fill="#FACA88" d="M494.4 298.2l2 2Z"/><path fill="#FBC477" d="M496.5 298.2l2 2Z"/><path fill="#FDAB33" d="M498.5 298.2l2 2Z"/><path fill="#FE9F11" d="M508.6 298.2l2 2Z"/><path fill="#F9D6AA" d="M510.7 298.2l2 2Z"/><path fill="#E5E3AF" d="M541 298.2l2 2Z"/><path fill="#667" d="M547.2 298.2l2 2Z"/><path fill="#737370" d="M423.4 300.2l2 2Z"/><path fill="#F2F1D7" d="M429.5 300.2l2 2Z"/><path fill="#FEA522" d="M443.7 300.2l2 2Z"/><path fill="#FE9F11" d="M453.9 300.2l2 2Z"/><path fill="#FBBE66" d="M455.9 300.2l2 2Z"/><path fill="#FCF1E4" d="M457.9 300.2l2 2Z"/><path fill="#FEA522" d="M506.6 300.2l2 2Z"/><path fill="#FBEAD6" d="M508.6 300.2l2 2Z"/><path fill="#DDDC7A" d="M541 300.2l2 2Z"/><path fill="#A4A43D" d="M545.2 300.2l2 2Z"/><path fill="#262678" d="M547.2 300.2l2 2Z"/><path fill="#49497D" d="M423.4 302.2l2 2Z"/><path fill="#A4A43D" d="M426 303.6l.8 1.3Z"/><path fill="#D3D079" d="M429.5 302.2l2 2Z"/><path fill="#F9D099" d="M445.7 302.2l2 2Z"/><path fill="#FCB144" d="M447.7 302.2l2 2Z"/><path fill="#FACA88" d="M449.8 302.2l2 2Z"/><path fill="#F8DCBB" d="M451.8 302.2l2 2Z"/><path fill="#FEF8F1" d="M453.9 302.2l2 2Z"/><path fill="#F8DCBB" d="M498.5 302.2l2 2Z"/><path fill="#FCF1E4" d="M506.6 302.2l2 2Z"/><path fill="#F6F6E4" d="M539 302.2l2 2Z"/><path fill="#8D8D5B" d="M545.2 302.2l2 2Z"/><path fill="#FBFAF2" d="M431.5 304.2l2 2Z"/><path fill="#FBBE66" d="M498.5 304.2l2 2Z"/><path fill="#FACA88" d="M504.6 304.2l2 2Z"/><path fill="#E1E18C" d="M539 304.2l2 2Z"/><path fill="#49497D" d="M545.2 304.2l2 2Z"/><path fill="#58587B" d="M425.4 306.3l2 2Z"/><path fill="#E5E59D" d="M431.5 306.3l2 2Z"/><path fill="#FE9F11" d="M498.5 306.3l2 2Z"/><path fill="#FDAB33" d="M502.5 306.3l2 2Z"/><path fill="#FBFAF2" d="M537 306.3l2 2Z"/><path fill="#A4A43D" d="M543.2 306.3l2 2Z"/><path fill="#0E0E6E" d="M545.2 306.3l2 2Z"/><path fill="#1B1B74" d="M425.4 308.3l2 2Z"/><path fill="#A4A43D" d="M427.4 308.3l2 2Z"/><path fill="#D0D045" d="M431.5 308.3l2 2Z"/><path fill="#FBEAD6" d="M496.5 308.3l2 2Z"/><path fill="#FE9F11" d="M500.5 308.3l2 2Z"/><path fill="#FBEAD6" d="M502.5 308.3l2 2Z"/><path fill="#E5E59D" d="M537 308.3l2 2Z"/><path fill="#667" d="M543.2 308.3l2 2Z"/><path fill="#6E6C70" d="M427.4 310.3l2 2Z"/><path fill="#E5E3AF" d="M433.5 310.3l2 2Z"/><path fill="#FACA88" d="M497 311.7l.8 1.4Z"/><path fill="#FAE3C9" d="M500.5 310.3l2 2Z"/><path fill="#FBFAF2" d="M535 310.3l2 2Z"/><path fill="#A4A43D" d="M541 310.3l2 2Z"/><path fill="#1B1B74" d="M543.2 310.3l2 2 -2-2m-115.8 2l2 2Z"/><path fill="#A4A43D" d="M429.5 312.4l2 2Z"/><path fill="#D0D045" d="M433.5 312.4l2 2Z"/><path fill="#FBFAF2" d="M435.5 312.4l2 2Z"/><path fill="#F9D6AA" d="M498.5 312.4l2 2Z"/><path fill="#E5E59D" d="M535 312.4l2 2Z"/><path fill="#6E6C70" d="M541 312.4l2 2 -2-2m-111.5 2l2 2Z"/><path fill="#8CBF84" d="M435.5 314.4l2 2Z"/><path fill="#0CF" d="M436.4 314.4c7 14.8 32 49.8 51 49.2 18.6-.7 39.5-35 47.6-49.2Z"/><path fill="#A4A43D" d="M539 314.4l2 2Z"/><path fill="#1B1B74" d="M541 314.4l2 2 -2-2m-111.5 2l2 2Z"/><path fill="#A4A43D" d="M431.5 316.4l2 2Z"/><path fill="#ADB333" d="M435.5 316.4l2 2Z"/><path fill="#1AC5B5" d="M437.6 316.4l2 2Z"/><path fill="#68B070" d="M533 316.4l2 2Z"/><path fill="#667" d="M539 316.4l2 2Z"/><path fill="#58587B" d="M431.5 318.5l2 2Z"/><path fill="#7FB15C" d="M437.6 318.5l2 2Z"/><path fill="#27C2AA" d="M530.9 318.5l2 2 -2-2Z"/><path fill="#A4A43D" d="M537 318.5l-2 4Z"/><path fill="#0E0E6E" d="M539 318.5l2 2 -2-2m-107.5 2l2 2Z"/><path fill="#A4A43D" d="M433.5 320.5l4 4Z"/><path fill="#34BE9E" d="M439.6 320.5l2 2Z"/><path fill="#96B247" d="M530.9 320.5l2 2 -2-2Z"/><path fill="#53527C" d="M537 320.5l2 2Z"/><path fill="#3A3A7C" d="M433.5 322.6l2 2Z"/><path fill="#A2B23D" d="M439.6 322.6l2 2Z"/><path fill="#0DC9C1" d="M441.6 322.6l2 2Z"/><path fill="#5BB47C" d="M528.9 322.6l2 2Z"/><path fill="#8D8D5B" d="M535 322.6l2 2Z"/><path fill="#737370" d="M435.5 324.6l2 2Z"/><path fill="#74B166" d="M441.6 324.6l2 2Z"/><path fill="#27C2AA" d="M526.9 324.6l2 2Z"/><path fill="#A4A43D" d="M533 324.6l-2 4Z"/><path fill="#262678" d="M535 324.6l2 2Z"/><path fill="#0E0E6E" d="M435.5 326.6l2 2Z"/><path fill="#A4A43D" d="M437.6 326.6l4 4Z"/><path fill="#42BB92" d="M443.7 326.6l2 2Z"/><path fill="#0DC9C1" d="M524.9 326.6l2 2Z"/><path fill="#96B247" d="M526.9 326.6l2 2Z"/><path fill="#58587B" d="M533 326.6l2 2Z"/><path fill="#3A3A7C" d="M437.6 328.6l2 2Z"/><path fill="#ADB333" d="M443.7 328.6l2 2Z"/><path fill="#27C2AA" d="M445.7 328.6l2 2Z"/><path fill="#74B166" d="M524.9 328.6l2 2Z"/><path fill="#8D8D5B" d="M530.9 328.6l2 2 -2-2Z"/><path fill="#6E6C70" d="M439.6 330.6l2 2Z"/><path fill="#96B247" d="M445.7 330.6l2 2Z"/><path fill="#0DC9C1" d="M447.7 330.6l2 2Z"/><path fill="#42BB92" d="M522.9 330.6l2 2Z"/><path fill="#A4A43D" d="M528.9 330.6l-4 6 4-6Z"/><path fill="#1B1B74" d="M530.9 330.6l2 2 -2-2Z"/><path fill="#0E0E6E" d="M439.6 332.6l2 2 -2-2Z"/><path fill="#8D8D5B" d="M441.6 332.6l2 2 -2-2Z"/><path fill="#7FB15C" d="M447.7 332.6l2 2 -2-2Z"/><path fill="#34BE9E" d="M520.9 332.6l2 2 -2-2Z"/><path fill="#3A3A7C" d="M528.9 332.6l2 2 -2-2Z"/><path fill="#1B1B74" d="M441.6 334.7l2 2Z"/><path fill="#A4A43D" d="M443.7 334.7L466 357Z"/><path fill="#74B166" d="M449.8 334.7l2 2Z"/><path fill="#27C2AA" d="M518.8 334.7l2 2Z"/><path fill="#ADB333" d="M520.9 334.7l2 2Z"/><path fill="#667" d="M526.9 334.7l2 2Z"/><path fill="#32327B" d="M443.7 336.7l2 2Z"/><path fill="#42BB92" d="M451.8 336.7l2 2Z"/><path fill="#0DC9C1" d="M516.8 336.7l-8.2 10.2 8.3-10.3Z"/><path fill="#ADB333" d="M518.8 336.7l2 2Z"/><path fill="#737370" d="M524.9 336.7l2 2Z"/><path fill="#49497D" d="M445.7 338.8l2 2Z"/><path fill="#42BB92" d="M453.9 338.8l2 2Z"/><path fill="#96B247" d="M516.8 338.8l2 2Z"/><path fill="#8D8D5B" d="M522.9 338.8l-2 4Z"/><path fill="#0E0E6E" d="M524.9 338.8l2 2Z"/><path fill="#53527C" d="M447.7 340.8l2 2Z"/><path fill="#42BB92" d="M455.9 340.8l2 2Z"/><path fill="#96B247" d="M514.7 340.8l2 2Z"/><path fill="#0E0E6E" d="M522.9 340.8l2 2Z"/><path fill="#6E6C70" d="M449.8 342.8l2 2Z"/><path fill="#42BB92" d="M457.9 342.8l2 2Z"/><path fill="#96B247" d="M512.7 342.8l2 2Z"/><path fill="#A4A43D" d="M518.8 342.8l-4 6 4-6Z"/><path fill="#262678" d="M520.9 342.8l2 2Z"/><path fill="#6E6C70" d="M451.8 344.9l2 2Z"/><path fill="#42BB92" d="M459.9 344.9l2 2Z"/><path fill="#96B247" d="M510.7 344.9l2 2Z"/><path fill="#262678" d="M518.8 344.9l2 2Z"/><path fill="#6E6C70" d="M453.9 346.9l2 2Z"/><path fill="#68B070" d="M461.9 346.9l2 2Z"/><path fill="#27C2AA" d="M506.6 346.9l2 2Z"/><path fill="#ADB333" d="M508.6 346.9l2 2Z"/><path fill="#262678" d="M516.8 346.9l2 2Z"/><path fill="#667" d="M455.9 348.9l2 2Z"/><path fill="#74B166" d="M463.9 348.9l2 2 -2-2Z"/><path fill="#34BE9E" d="M504.6 348.9l2 2Z"/><path fill="#ADB333" d="M506.6 348.9l2 2Z"/><path fill="#8D8D5B" d="M512.7 348.9l-2 4Z"/><path fill="#262678" d="M514.7 348.9l2 2Z"/><path fill="#49497D" d="M457.9 350.9l2 2Z"/><path fill="#96B247" d="M466 350.9l2 2Z"/><path fill="#0DC9C1" d="M468 350.9l2 2Z"/><path fill="#42BB92" d="M502.5 350.9l2 2Z"/><path fill="#0E0E6E" d="M512.7 350.9l2 2Z"/><path fill="#49497D" d="M459.9 353l2 2Z"/><path fill="#A2B23D" d="M468 353l2 2Z"/><path fill="#27C2AA" d="M470 353l2 2Z"/><path fill="#74B166" d="M500.5 353l2 2Z"/><path fill="#A4A43D" d="M506.6 353l-6 8Z"/><path fill="#808067" d="M508.6 353l2 2Z"/><path fill="#0E0E6E" d="M510.7 353l2 2Z"/><path fill="#262678" d="M461.9 355l2 2Z"/><path fill="#ADB333" d="M470 355l2 2Z"/><path fill="#42BB92" d="M472 355l2 2Z"/><path fill="#0DC9C1" d="M496.5 355l2 2Z"/><path fill="#96B247" d="M498.5 355l2 2Z"/><path fill="#6E6C70" d="M506.6 355l2 2Z"/><path fill="#1B1B74" d="M463.9 357l2 2 -2-2Z"/><path fill="#8D8D5B" d="M466 357l2 2Z"/><path fill="#74B166" d="M474 357l2 2Z"/><path fill="#0DC9C1" d="M476.2 357l2 2Z"/><path fill="#34BE9E" d="M494.4 357l2 2Z"/><path fill="#ADB333" d="M496.5 357l2 2Z"/><path fill="#49497D" d="M504.6 357l2 2Z"/><path fill="#0E0E6E" d="M466 359l2 2Z"/><path fill="#6E6C70" d="M468 359l2 2Z"/><path fill="#A4A43D" d="M470 359l4 4Z"/><path fill="#96B247" d="M476.2 359l2 2Z"/><path fill="#27C2AA" d="M478.2 359l2 2Z"/><path fill="#68B070" d="M492.4 359l2 2Z"/><path fill="#32327B" d="M502.5 359l2 2Z"/><path fill="#49497D" d="M470 361l2 2Z"/><path fill="#5BB47C" d="M480.2 361l2 2Z"/><path fill="#27C2AA" d="M488.3 361l2 2Z"/><path fill="#96B247" d="M490.4 361l2 2Z"/><path fill="#A4A43D" d="M496.5 361l-2 4Z"/><path fill="#808067" d="M498.5 361l2 2Z"/><path fill="#0E0E6E" d="M500.5 361l2 2Z"/><path fill="#262678" d="M472 363l2 2Z"/><path fill="#8D8D5B" d="M474 363l2 2Z"/><path fill="#8BB252" d="M482.3 363l2 2Z"/><path fill="#1AC5B5" d="M484.3 363l2 2Z"/><path fill="#5BB47C" d="M486.3 363l2 2Z"/><path fill="#58587B" d="M496.5 363l2 2Z"/><path fill="#0E0E6E" d="M474 365.2l2 2Z"/><path fill="#667" d="M476.2 365.2l2 2Z"/><path fill="#A4A43D" d="M478.2 365.2l2 2Z"/><path fill="#99994E" d="M492.4 365.2l2 2Z"/><path fill="#32327B" d="M494.4 365.2l2 2 -2-2m-16.2 2l2 2Z"/><path fill="#99994E" d="M480.2 367.2l2 2Z"/><path fill="#A4A43D" d="M488.3 367.2l2 2Z"/><path fill="#667" d="M490.4 367.2l2 2Z"/><path fill="#0E0E6E" d="M492.4 367.2l2 2 -2-2m-12.2 2l2 2Z"/><path fill="#667" d="M482.3 369.2l2 2Z"/><path fill="#A4A43D" d="M484.3 369.2l2 2Z"/><path fill="#99994E" d="M486.3 369.2l2 2Z"/><path fill="#32327B" d="M488.3 369.2l2 2Z"/><path fill="#262678" d="M484.3 371.2l2 2Z"/><path fill="#0E0E6E" d="M486.3 371.2l2 2Z"/><path fill="#F90" d="M488.3 235.2c3.2 7.4 13.2 15.5 16 19.5 -3.5 4-4.2 3.6-3.8 11 6-6.4 6.2-7 10.2-6.1 8.6 8.6 1.5 27-5.6 31 -7.1 4.3-5.8-.1-16.5 5.2 4.9 4.2 10.6-.6 15.2.7 2.5 3-1.2 8.4.7 13.6 4-.4 3.6-8.7 4.6-11.7 3-11 21-18.6 21.9-28.7 3.8-1.7 7.5-.5 12 2 -2.2-9.4-9.7-9.3-11.8-12.2 -4.8-7.4-9.1-15.8-19.4-18 -8-1.7-7.3.5-12.3-3 -3.2-2.4-12.7-7-11.2-3.3Z"/><path fill="#FFF" fill-rule="evenodd" d="M510.9 243.6v0c0 .91-.74 1.65-1.65 1.65 -.92 0-1.65-.74-1.65-1.65v0c0-.92.73-1.65 1.65-1.65 .91 0 1.65.73 1.65 1.65Z"/><path fill="#F90" d="M463.2 266.5c5-6.2 7.6-19 9.8-23.2 5.2 1.2 5 2 11.5-1.8 -8.5-2.4-9.2-2.2-10.2-6.1 3.6-11.7 23.2-14 30-9.6 7.2 4.3 2.7 5.2 12.4 12 1.4-6.2-5.5-9-6.5-13.6 1.5-3.7 8-3 11.6-7 -2.2-3.5-9.3.8-12.4 1.4 -11 2.5-26.3-9.8-35.6-6 -3.3-2.5-4-6.4-4-11.7 -7.1 6.5-3.5 13-5.2 16.3 -4.2 7.7-9.7 15.5-6.8 25.6 2.2 7.8 3.8 6.2 3.2 12.3 -.7 3.9-.4 14.5 2.2 11.4Z"/><path fill="#FFF" fill-rule="evenodd" d="M460 242.6c.9-.4 1.9-.1 2.3.7v-.001c.38.79.06 1.75-.74 2.14 -.8.38-1.76.06-2.15-.74 -.38-.78-.09-1.71.67-2.12Z"/><path fill="#F90" d="M504.3 270.8c-8-1-20.1 3.3-25 3.7 -1.5-5.1-.8-5.5-7.4-9 2.3 8.6 2.8 9 0 12 -11.8 2.9-24-12.7-23.8-20.8 0-8.3 3.2-5 4-17 -6 2-4.8 9.5-8.3 12.8 -4 .6-6.6-5.3-12-6.3 -1.8 3.7 5.5 7.5 7.6 9.9 7.9 8.2 5.2 27.5 13.3 33.5 -.4 4.2-3.4 6.8-8 9.4 9.3 2.9 13-3.7 16.7-4 8.8-.2 18.3.4 25.5-7.3 5.4-6 3.3-6.5 8.8-9 3.7-1.4 12.6-7.2 8.6-8Z"/><path fill="#FFF" fill-rule="evenodd" d="M485.5 285.9v0c-.78-.47-1.02-1.48-.55-2.25 .46-.78 1.47-1.02 2.25-.55v0c.77.46 1.01 1.47.55 2.25 -.47.77-1.48 1.01-2.25.55Z"/><path fill="#012169" d="M0 0h320v240H0Z"/><path fill="#FFF" d="M37.5 0l122 90.5L281 0h39v31l-120 89.5 120 89V240h-40l-120-89.5L40.5 240H0v-30l119.5-89L0 32V0Z"/><path fill="#C8102E" d="M212 140.5L320 220v20l-135.5-99.5Zm-92 10l3 17.5 -96 72H0ZM320 0v1.5l-124.5 94 1-22L295 0ZM0 0l119.5 88h-30L0 21Z"/><path fill="#FFF" d="M120.5 0v240h80V0ZM0 80v80h320V80Z"/><path fill="#C8102E" d="M0 96.5v48h320v-48ZM136.5 0v240h48V0Z"/></svg>