<svg viewBox="0 0 640 480" xmlns="http://www.w3.org/2000/svg"><path fill="#3F9C35" d="M.1 0h640v480H.1Z"/><path fill="#ED2939" d="M.1 0h640v320H.1Z"/><path fill="#00B9E4" d="M.1 0h640v160H.1Z"/><path fill="#FFF" d="M304 168a72 72 0 1 0 0 144 72 72 0 1 0 0-144Z"/><path fill="#ED2939" d="M320 180a60 60 0 1 0 0 120 60 60 0 1 0 0-120Z"/><path fill="#FFF" d="M384 200l7.7 21.5 20.6-9.8 -9.8 20.7L424 240l-21.5 7.7 9.8 20.6 -20.6-9.8L384 280l-7.7-21.5 -20.6 9.8 9.8-20.6L344 240l21.5-7.7 -9.8-20.6 20.6 9.8L384 200Z"/></svg>