<svg viewBox="0 0 640 480" xmlns="http://www.w3.org/2000/svg"><defs><clipPath id="a"><path d="M0 0h682.6v512H0Z"/></clipPath></defs><g clip-path="url(#a)" transform="scale(.9376.9375)"><g fill="#B20000" fill-rule="evenodd"><path d="M0 0h1024v340.1H0Z"/><path fill="#429F00" d="M0 340.1h1024V512H0Z"/><path fill="#FFF" d="M0 0h113.4v512H0Z"/><path d="M5.4 8.7h5.4v8.7H5.4Zm16.2 0h16.2v8.7H21.6ZM27 0h5.4v8.7H27Zm27 0h5.4v8.7H54Zm21.6 8.7h16.2v8.7H75.6ZM81 0h5.4v8.7H81ZM16.2 17.4H27V26H16.2Zm16.2 0h10.8V26H32.4Zm37.8 0H81V26H70.2Zm16.2 0h10.8V26H86.4ZM10.8 26h10.8v8.7H10.8Zm27 0h10.8v8.7H37.8Zm27 0h10.8v8.7H64.8Zm27 0h10.8v8.7H91.8Zm10.8-17.3h5.4v8.7h-5.4Zm-97.2 26h10.8v8.7H5.4Zm37.8 0H54v8.7H43.2Zm54 0H108v8.7H97.2Zm-86.4 26h10.8v8.7H10.8Zm5.4 8.7H27v8.7H16.2Zm21.6-8.6h10.8v8.6H37.8Zm-5.4 8.6h10.8v8.7H32.4Zm-10.8 8.7h16.2v8.7H21.6Z"/><path d="M27 86.8h5.4v8.7H27Zm37.8-26h10.8v8.6H64.8Zm5.4 8.6H81v8.7H70.2Zm21.6-8.6h10.8v8.6H91.8Zm-5.4 8.6h10.8v8.7H86.4Zm-10.8 8.7h16.2v8.7H75.6Zm5.4 8.7h5.4v8.7H81ZM54 78h5.4v8.7H54ZM0 78h5.4v8.7H0Zm108 0h5.4v8.7H108Zm-81 43.4h5.4v8.7H27Zm-5.4 8.8h16.2v8.6H21.6Zm-5.4 8.6h27v8.7h-27ZM81 121.5h5.4v8.7H81Zm-5.4 8.7h16.2v8.6H75.6Zm-5.4 8.6h27v8.7h-27Zm5.4 43.4h27v8.7h-27Zm-10.8-34.7h37.8v8.7H64.8Zm-54 0h37.8v8.7H10.8Zm5.4 43.4h16.2v8.7H16.2Zm-5.4-8.7h27v8.7h-27ZM86.4 165h27v8.7h-27ZM81 191h16.2v8.7H81Z"/><path d="M21.6 199.6H27v8.7h-5.4Zm64.8 0h5.4v8.7h-5.4ZM0 164.9h27v8.7H0Zm48.6 17.3h16.2v8.7H48.6ZM54 191h5.4v8.7H54Zm-16.2-26h37.8v8.7H37.8ZM59.4 34.7h10.8v8.7H59.4Zm-10.8 8.7h16.2v8.7H48.6Zm-5.4 8.7H54v8.6H43.2Zm16.2 0h10.8v8.6H59.4Zm-59.4-8.7h10.8v8.7h-10.8Zm5.4 8.7h10.8v8.6H5.4Zm97.2-8.7h10.8V52h-10.8ZM97.2 52H108v8.6H97.2Zm-97.2 78h5.4v8.7h-5.4Zm108 0h5.4v8.7H108Zm-59.4 69.5h16.2v8.7H48.6Zm-5.4 8.7H54v8.6H43.2Zm16.2 0h10.8v8.6H59.4Zm-21.6 8.6h10.8v8.7H37.8Zm27 0h10.8v8.7H64.8Zm-32.4 8.7h10.8v8.7H32.4Zm37.8 0H81v8.7H70.2ZM27 234.3h10.8v8.7H27Zm48.6 0h10.8v8.7H75.6ZM16.2 243h16.2v8.7H16.2Zm64.8 0h16.2v8.7H81Zm10.8-8.7h10.8v8.7H91.8Zm5.4-8.7H108v8.7H97.2Zm5.4-8.7h10.8v8.7h-10.8Zm-91.8 17.4h10.8v8.7H10.8Zm-5.4-8.7h10.8v8.7H5.4ZM0 217h10.8v8.7H0Zm21.6 34.8H27v8.6h-5.4Zm64.8 0h5.4v8.6h-5.4Zm-32.4-26h5.4v8.6H54Zm-16.2 26h5.4v8.6h-5.4Zm32.4 0h5.4v8.6h-5.4Zm-16.2 0h5.4v8.6H54Zm-54 0h5.4v8.6H0Zm108 0h5.4v8.6H108ZM54 130.2h5.4v8.6H54ZM27 43.4h5.4v8.7H27Zm54 0h5.4v8.7H81Zm-32.4 60.7h16.2v8.7H48.6Zm-10.8 8.7H54v8.7H37.8Zm5.4 8.7h5.4v8.7h-5.4Zm-10.8-17.4h10.8v8.7H32.4Zm5.4-8.6H54v8.6H37.8Zm5.4-8.7h5.4v8.7h-5.4Zm16.2 8.7h16.2v8.6H59.4Zm5.4-8.7h5.4v8.7h-5.4Zm5.4 17.3H81v8.7H70.2Zm-10.8 8.7h16.2v8.7H59.4Zm5.4 8.7h5.4v8.7h-5.4Zm21.6-17.4h10.8v8.7H86.4Zm5.4-8.6H108v8.6H91.8Zm10.8 8.6h10.8v8.7h-10.8Zm-10.8 8.7H108v8.7H91.8Zm5.4 8.7h5.4v8.7h-5.4Zm0-34.7h5.4v8.7h-5.4ZM0 104h10.8v8.7H0Zm5.4-8.6h16.2v8.6H5.4Zm10.8 8.6H27v8.7H16.2Zm-10.8 8.7h16.2v8.7H5.4Z"/><path d="M10.8 121.5h5.4v8.7h-5.4Zm0-34.7h5.4v8.7h-5.4Zm-5.4 69.4H27v8.7H5.4Zm27 0H54v8.7H32.4Zm27 0H81v8.7H59.4Zm27 0H108v8.7H86.4Zm-43.2 17.4h27v8.6h-27Zm-37.8 0h27v8.6h-27Zm75.6 0h27v8.6H81Zm27 34.7h5.4v8.6H108Zm-108 0h5.4v8.6H0Zm5.4 295h5.4v-8.6H5.4Zm16.2 0h16.2v-8.6H21.6ZM27 512h5.4v-8.7H27Zm27 0h5.4v-8.7H54Zm21.6-8.7h16.2v-8.7H75.6ZM81 512h5.4v-8.7H81Zm-64.8-17.4H27V486H16.2Zm16.2 0h10.8V486H32.4Zm37.8 0H81V486H70.2Zm16.2 0h10.8V486H86.4ZM37.8 486h10.8v-8.7H37.8Zm27 0h10.8v-8.7H64.8Zm27 0h10.8v-8.7H91.8Zm10.8 17.3h5.4v-8.7h-5.4Zm-97.2-26h10.8v-8.7H5.4Zm37.8 0H54v-8.7H43.2Zm54 0H108v-8.7H97.2Zm-86.4-26h10.8v-8.7H10.8Zm5.4-8.7H27v-8.7H16.2Zm21.6 8.7h10.8v-8.7H37.8Zm-5.4-8.7h10.8v-8.7H32.4Zm-10.8-8.7h16.2v-8.7H21.6Zm5.4-8.7h5.4v-8.6H27Zm37.8 26h10.8v-8.6H64.8Zm5.4-8.6H81v-8.7H70.2Zm21.6 8.7h10.8v-8.7H91.8Zm-5.4-8.7h10.8v-8.7H86.4Zm-10.8-8.7h16.2v-8.7H75.6Zm5.4-8.7h5.4v-8.6H81ZM54 434h5.4v-8.7H54Zm-54 0h5.4v-8.7H0Zm108 0h5.4v-8.7H108Zm-81-43.4h5.4v-8.7H27Zm-5.4-8.8h16.2v-8.6H21.6Zm-5.4-8.6h27v-8.7h-27ZM81 390.5h5.4v-8.7H81Z"/><path d="M75.6 381.8h16.2v-8.6H75.6Zm-5.4-8.6h27v-8.7h-27Zm5.4-43.4h27V321h-27Zm-10.8 34.7h37.8v-8.7H64.8Zm-54 0h37.8v-8.7H10.8Zm5.4-43.4h16.2v-8.7H16.2Zm-5.4 8.7h27V321h-27ZM86.4 347h27v-8.7h-27ZM81 321h16.2v-8.7H81Zm-81 26h27v-8.7h-27Zm48.6-17.3h16.2V321H48.6ZM54 321h5.4v-8.7H54Zm-16.2 26h37.8v-8.7H37.8Zm21.6 130.2h10.8v-8.7H59.4Zm-10.8-8.7h16.2V460H48.6Zm-5.4-8.7H54v-8.7H43.2Zm16.2 0h10.8v-8.7H59.4Zm-59.4 8.8h10.8V460h-10.8Zm5.4-8.7h10.8v-8.6H5.4Zm97.2 8.7h10.8V460h-10.8Zm-5.4-8.7H108v-8.6H97.2ZM-.001 382h5.4v-8.7h-5.4Zm108 0h5.4v-8.7H108Zm-64.8-78.2H54v-8.6H43.2Zm16.2 0h10.8v-8.6H59.4Zm-21.6-8.6h10.8v-8.7H37.8Zm27 0h10.8v-8.7H64.8Zm-32.4-8.7h10.8v-8.7H32.4Zm37.8 0H81v-8.7H70.2ZM27 277.7h10.8V269H27Zm48.6 0h10.8V269H75.6ZM16.2 269h16.2v-8.7H16.2Zm64.8 0h16.2v-8.7H81Zm10.8 8.7h10.8V269H91.8Zm5.4 8.7H108v-8.7H97.2Zm5.4 8.7h10.8v-8.7h-10.8Zm-91.8-17.4h10.8V269H10.8Zm-5.4 8.7h10.8v-8.7H5.4ZM0 295h10.8v-8.7H0Zm21.6-34.8H27v-8.6h-5.4Zm32.4 26h5.4v-8.6H54Zm0 95.5h5.4v-8.6H54Zm-27 86.8h5.4V460H27Zm54 0h5.4V460H81ZM48.6 408h16.2v-8.7H48.6Zm-10.8-8.7H54v-8.7H37.8Zm5.4-8.7h5.4v-8.7h-5.4ZM32.4 408h10.8v-8.7H32.4Zm5.4 8.5H54V408H37.8Zm5.4 8.7h5.4v-8.6h-5.4Zm16.2-8.7h16.2V408H59.4Zm5.4 8.7h5.4v-8.6h-5.4Zm5.4-17.3H81v-8.7H70.2Zm-10.8-8.7h16.2v-8.7H59.4Zm5.4-8.7h5.4v-8.7h-5.4ZM86.4 408h10.8v-8.7H86.4Zm5.4 8.5H108V408H91.8Zm10.8-8.6h10.8v-8.7h-10.8Zm-10.8-8.7H108v-8.7H91.8Zm5.4-8.7h5.4v-8.7h-5.4Zm0 34.7h5.4v-8.6h-5.4ZM0 408h10.8v-8.7H0Zm5.4 8.5h16.2V408H5.4Z"/><path d="M16.2 407.9H27v-8.7H16.2Zm-10.8-8.7h16.2v-8.7H5.4Zm5.4-8.7h5.4v-8.7h-5.4Zm0 34.7h5.4v-8.6h-5.4Zm-5.4-69.4H27v-8.7H5.4Zm27 0H54v-8.7H32.4Zm27 0H81v-8.7H59.4Zm27 0H108v-8.7H86.4Zm-43.2-17.4h27v-8.6h-27Zm-37.8 0h27v-8.6h-27Zm75.6 0h27v-8.6H81Zm27-34.6h5.4V295H108Zm-108 0h5.4V295H0Zm48.6-43.5H54v8.7h-5.4Zm10.8 0h5.4v8.7h-5.4Zm0-17.3h5.4v8.7h-5.4Zm-10.8 0H54v8.7h-5.4ZM10.8 477.3h10.8v8.7H10.8Zm75.6-164.9h5.4v-8.7h-5.4Zm-64.8 0H27v-8.7h-5.4Zm27-8.7h16.2v8.7H48.6Z"/></g></g></svg>