<svg viewBox="0 0 640 480" xmlns="http://www.w3.org/2000/svg" xmlns:xlink="http://www.w3.org/1999/xlink"><defs><radialGradient id="a" cx="247.1" fr="0%" fx="247.1" fy="238.3" gradientUnits="userSpaceOnUse" cy="238.3" r="36" gradientTransform="matrix(1.22624 0 0 .8155 0 0)"><stop offset="0%" stop-color="#FFEF5D"/><stop offset="100%" stop-color="#EA5700"/></radialGradient><radialGradient id="b" cx="322" fr="0%" fx="322" fy="152.9" gradientUnits="userSpaceOnUse" cy="152.9" r="10.6" gradientTransform="scale(.93615 1.06821)" xlink:href="#a"/><radialGradient id="c" cx="364.2" fr="0%" fx="364.2" fy="237.8" gradientUnits="userSpaceOnUse" cy="237.8" r="36" gradientTransform="scale(1.2242.81686)"><stop offset="0%" stop-color="#952D1A"/><stop offset="100%" stop-color="#570A00"/></radialGradient><radialGradient id="d" cx="468.1" fr="0%" fx="468.1" fy="156.1" gradientUnits="userSpaceOnUse" cy="156.1" r="10.7" gradientTransform="scale(.95596 1.04607)" xlink:href="#c"/><path id="e" d="M345.9 213.7v0c-.48-.66-1.14-1.15-1.9-1.4l-2-1c-.7-.4-1.7-.5-2.4-.9m.5 2.6l-.9-.5c-.3 0-.7 0-1-.2 0 0 0-.2-.2-.2v0c-.95-.1-1.81-.56-2.4-1.3m-62.8-9.3c1 .7 3.2 2.2 3.4 5.1v-.001c.17 1.04.51 2.05 1 3m-13.2-7.6c.5 1.7.6 7.4 6 13.4m-5-21.4c-.4 1.1-1 2.2.2 3m14.4 10.7c1.1-2.6 4.6-2.4 4.6-4.8"/><path id="g" d="M284.4 190.5c0 2 0 8.4 9 8.4 2.8 0 5.8-2 7.4-3.3m2.2-2.7c-.3-2-.3-4.4-.3-7m-13.6-3.4c2.4-.3 4.4-.6 9-.6m.2-6.3c.5 2.2-.3 5.8 4 6.3m4.3-7.1c-.6 1.6-.6 3.3-.8 4.4m.2 2.7c1.7 0 5-1.1 9-.3m1.4 22.8c.9 1.6 1 3.8 3.6 6.2m-31.7-11.4c.2 1.3-1.8 5.7-.3 9.3l-.001-.001c1.36 3.64.91 7.73-1.2 11m6.7-19c-.9 1.7-2.3 3.3-2.6 4.7m6.6-1.6c0 1-2.7 8.7-4.7 10.9 0 0 3.6 1.4 3 6.6m7.4-21c0 1.2-.2 1.6 1 2.4m2.4 0c1.3 1.6 5.5 6.5 4.6 9.2m-7.4-6.5c.3 1 .3 6.3-.6 9m-2.1-.2c-1.1 0-2.8.8-3 2.7m8.7-3c1.1-.3 3.3 1.6 3.3 7m15.7-10.2c-2.1.6-3 1.7-2.4 1.1 -1.1 1-2.2 1.6-2.2 1.6"/><path id="i" d="M280.5 239.8c1.3-8 5-14.5 5.1-15.2 0 0 3.9.9 10.6 1.5 6.6.7 8.4.4 11.5.2l6.8-.8s1.2 2.4 1.3 4.8c.3 5.2 2.3 27.7 2.5 33.7 0 0 .8 3.6.8 12.3 0 9.6 2.6 29 2.6 39.4l-2.6.5s-14.5 1.1-14.5-.8c0-2.1-.8-27 1.4-42.1 0 0-.5-3-1.4-5.5 -.8-2.5-4.3-10-4.3-11.7 0 0-5.7 16-6 18.8 -.3 2.6-1.2 38.4-1.7 41.3 0 0-8.2 6.3-9.3 7 -1.1.4-9-3.4-9.3-4.4l0 0c.65-11.18 2.18-22.28 4.6-33.2 1.4-7.1.6-8.4.6-10.4s.1-27.5 1.3-35.4Z"/><path id="k" d="M285 224.4s0-3.2 1.1-4.8c0 0 3.5.7 8.4 1.2 5 .5 9 .9 12.6.5 3.7-.4 7.4-1.3 7.4-1.3s1 4.8.5 5.5c0 0-4 .8-8.3 1v-.001c-4.85.14-9.7-.13-14.5-.8v0c-2.46-.28-4.9-.71-7.3-1.3Z"/><path id="f" d="M284.8 207.3c-.3-2.9-1-4.5-.4-8.7 .2-1.2.4-5.9 0-8.1 0 0 1.6 7.8-3.7 9.3m34.4 12.5c0-4 1-6.2 1-6.2 1.2-5.6-1.2-7.7-.3-9.1 .9-1.2 2-3.8.5-8.9 0 0 2.8 10.5-4.5 10.5 -7.5 0-7.2-2.7-7.2-2.7"/><path id="l" d="M288 224.8l.7-4.8h1l-.2 5.1 -1.4-.2m22-4.1l.1 5.5 1.3-.2 -.1-5.6 -1.3.3m-15.6 0l-.4 5.3h.7l.7-5.3h-1"/><path id="h" d="M289.8 198c.6 0 1.1-.4 1.1-1 0-.3-.5-.7-1.1-.7 -.5 0-1 .4-1 .8 0 .5.5.9 1 .9Zm23 .3c.6 0 1.1-.4 1.1-1 0-.4-.5-.7-1-.7 -.6 0-1.1.3-1.1.8s.5.9 1 .9Z"/><path id="m" d="M276.8 320.8c-.3 1.3-.8 3.2-1 5.5 0 .5-.6 3.3 1 3.4 1 0 1.4-2.9 1.4-2.9s-1 3.3.3 3.7c1.8.4 2-3.6 2-3.6 -.2 1.1-1.4 4 .3 4.3 1.9.3 2.4-3.9 2.4-3.9s-1.6 4.2.3 4.3c1.7 0 1.7-4 1.7-4s-.9 5 1.5 4.5c1.4-.2 1.7-2 2-3 .4-1.5 1.3-3.4.2-6.6 -.8-2.3-.5-3-.5-3s-2.9 2.2-5.1 3.6c-1 .6-6.5-2.3-6.5-2.3Zm29.7-4.4c-.5-.3-.4 1.9-.6 2.9 -.1 1 .2 3.2 3.6 3 3.4-.3 6.7-1 8.9-.5 2.1.6 5.3.7 7 .7 1.7 0 2.8-.2 3.7-.5 .7-.3 2.2.4 3 .4 .8 0 1.7-1 1.6-1.8 0-1.3-1.3-1.3-3-1.4v0c-1.7-.14-3.38-.48-5-1 -1.1-.3-3.1-1.5-5.7-2l-5.9.2c-1 0-7 .3-7.6 0Z"/><path id="j" d="M294.3 275c-.6 2.2-1.7 4.3-3.6 5.7m-2.7-53.6c-.3 1.3-2.3 7.3-7.2 10.9m14.3-9.8c-1.1 3.6-5.5 22.7-6.3 45.4m-.3 7.1l-1.7 20.8m-.8 3v0c-1.73 6.08-2.64 12.37-2.7 18.7m32.2-36c-.2 2-1 15.7 3.6 28m-18.5-86c-.3 2.3-.8 16.7-.8 17.8 0 1.2 1.6 2.8 2.4 3 0 0-1.6.6-2 6m-4-12.8c-.3 1.7-2 8.5-3 11.3m13-25.5s5 1 5.3 0c0 0 1.6 29.5 3.8 46m-11.2-42.2l-.6 16.5m2.5 2.1s1.9 2.8 1.4 4m-17.8-28l3 .8m5.2 1.6c-.3.9-.6 4.6-.6 4.6m8.8 38.9c.6.8 1.4 2 .8 4.4"/></defs><path fill="#CE1126" d="M0 0h640v480H0Z"/><path fill="#003F87" d="M0 34.3h640v411.4H0Z"/><path fill="#FFF" d="M320 51.4a188.6 188.6 0 1 0 0 377.2 188.6 188.6 0 1 0 0-377.2Z"/><path fill="none" stroke="#552300" stroke-width="3.9" d="M320 82.7a156.3 156.3 0 1 0 0 312.6 156.3 156.3 0 1 0 0-312.6Z"/><path fill="#007F00" d="M302 73.2c14-15.2 26.9 2.3 26.5 10.6C328.2 92 314 110 301 95.5c13.4 3.4 17.4-11.5 24.1-11.7 -6.7.2-9.5-14.6-23.2-10.6Zm-147.2 119c-7.4-19.4 14-23 21.3-19 7.3 3.9 17.3 24.6-1.6 29.6 9-10.4-2.7-20.5.2-26.6 -2.9 6-17.5 2-19.9 16ZM471.9 173c19.4 7.6 7.6 25.8-.2 28.4 -7.9 2.7-30-4-21-21.2 1.6 13.6 17 12 19.7 18.1 -2.6-6.2 10.3-14 1.5-25.3ZM218.8 377.4c-20.7-2-14.3-22.7-7.5-27.4 6.8-4.7 30-4.3 26 14.7 -5.3-12.6-19.7-6.8-24-12 4.3 5.2-6 16.3 5.5 24.7Zm209.3-15c.3 20.7-21.1 16.8-26.6 10.6 -5.4-6.2-7.7-29 11.8-27.3 -12 6.6-4.6 20.2-9.4 25 4.8-4.8 17.1 4 24.2-8.2ZM170 153c-1.9-20.6 19.8-18.3 25.7-12.6 6 5.8 10 28.4-9.6 28.2 11.5-7.6 3-20.5 7.4-25.6 -4.4 5-17.3-2.8-23.5 10Zm22.2 193c-20.5-3.5-12.7-23.7-5.6-27.9 7-4.2 30.1-2.3 25 16.4 -4.5-13-19.3-8-23.1-13.6 3.8 5.5-7.2 16 3.7 25ZM354.3 74c18.6-9.2 24.3 11.7 21 19.3 -3.2 7.5-23 19.4-29.8 1.3 11.2 7.9 20.3-4.7 26.7-2.4 -6.4-2.3-3.7-17-17.9-18.2ZM394 388.3c-9.3 18.5-26.5 5.3-28.5-2.7s6.5-29.3 23-19c-13.8.5-13.4 16-19.8 18 6.4-2 13.3 11.4 25.3 3.7Zm90.5-178.7c15.6 13.7-1.7 26.8-10 26.7 -8.2-.1-26.8-13.8-12.5-27 -3 13.4 12 17 12.4 23.6 -.3-6.7 14.5-9.8 10-23.3Zm-263-108.8c4.7-20 24.5-11.2 28.4-3.9 3.8 7.3.5 30-18 23.8 13.3-3.7 9.3-18.6 15-22 -5.7 3.4-15.5-8-25.4 2.1Zm-61.6 172.5c-18.2-10-4.2-26.5 4-28.1 8-1.7 29.2 7.7 18 23.7 .2-13.7-15.4-14-17.2-20.5 1.8 6.5-12 12.7-4.8 25Zm263.6-159.6c20.6-3 19.4 18.7 14 24.8 -5.5 6.2-28 11.4-28.9-8 8.2 11 20.8 1.9 26.2 6 -5.4-4.1 1.9-17.3-11.3-22.8ZM306.3 408.1c-19 8.4-23.8-12.7-20.3-20 3.6-7.5 23.9-18.6 30-.1 -11-8.4-20.5 3.8-26.8 1.3 6.3 2.5 3 17.2 17.1 18.8ZM476.8 293c8.6 18.8-12.6 23.7-20.1 20.2 -7.5-3.5-18.8-23.6-.2-29.7 -8.4 10.9 4 20.3 1.4 26.6 2.5-6.3 17.3-3 19-17.1Zm-325.1-60.6c-12-17 8-25.7 16-23.6 8 2 22.8 19.8 5.7 29.2 6.2-12.3-7.6-19.3-6.3-25.9 -1.3 6.6-16.5 6.1-15.4 20.2ZM264 395.6c-19.6 7.1-23-14.2-18.9-21.4 4-7.2 25-16.9 29.9 2 -10.3-9.1-20.7 2.4-26.8-.5 6 2.9 1.8 17.3 15.8 19.9Zm-5.7-314c11.6-17.2 27-2 28 6.3 .9 8.1-10.3 28.2-25.4 15.8 13.8 1.3 15.4-14 22-15.2 -6.6 1.2-11.7-13-24.6-7Zm200.2 252.1c1.3 20.6-20.3 17.7-26 11.7 -5.8-5.9-9.1-28.6 10.4-27.8 -11.7 7.2-3.6 20.4-8.2 25.4 4.6-5 17.3 3.3 23.8-9.3Zm-5.3-194.4c20.4 4 12 24 4.7 28 -7.2 4-30.2 1.3-24.4-17.2 4 13.1 19 8.7 22.6 14.4 -3.6-5.7 7.7-15.7-3-25.2Zm-258.4-14.6c.2-20.6 21.5-16.2 26.8-9.9 5.3 6.3 7 29.3-12.4 27 12.2-6.3 5-20 10-24.7 -5 4.7-17-4.5-24.4 7.6ZM169 311c-18.6-9.4-5.1-26.4 2.9-28.3 8-2 29.5 6.7 19 23 -.4-13.7-16-13.4-18-19.8 2 6.4-11.6 13.1-4 25ZM392 91c19.5-7.3 23 14 19 21.2 -4 7.2-24.9 17.1-29.9-1.7 10.4 9 20.7-2.6 26.9.3 -6.2-2.9-2-17.3-16-19.8Zm-41.3 314.8c-15.2 14.2-26.7-4.1-25.8-12.3 .9-8.2 16.3-25.3 28.2-9.9 -13-4.3-18 10.4-24.9 10 6.8.4 8.5 15.3 22.5 12.2Zm132.7-158c14.2 15.1-4.4 26.5-12.6 25.5 -8.2-.9-25.4-16.3-9.8-28 -4.4 13 10.3 18 10 24.7 .3-6.7 15.4-8.4 12.4-22.2Z"/><path fill="#005800" d="M301 95.5c13.4 3.4 16.7-11.3 23.5-11.5 -4 4.7-14.2 16.7-23.5 11.5Zm1-22.3c14-15.2 26.9 2.3 26.5 10.6 -11.5-20-15-17-26.6-10.6ZM174.4 202.8c9-10.4-2.8-19.9 0-26 2.6 5.6 8.9 20.1 0 26Zm-19.7-10.7c-7.4-19.3 14-22.9 21.3-19 -23.1 1.4-22 6-21.3 19Zm295.9-11.8c1.6 13.5 16.7 11.3 19.3 17.5 -5.9-2-21-7.1-19.3-17.6Zm21.2-7.3c19.4 7.6 7.6 25.8-.3 28.4 14.7-17.8 10.5-20 .3-28.4ZM237.3 364.7c-5.3-12.6-19.2-6.4-23.4-11.7 6.2.3 22 1.2 23.4 11.7Zm-18.5 12.7c-20.7-2-14.3-22.7-7.5-27.4 -9.2 21.1-4.6 22.1 7.5 27.4Zm194.5-31.7c-12 6.6-4.2 19.6-9 24.3 -.4-6-1.3-21.8 9-24.3Zm14.8 16.7c.3 20.7-21.1 16.8-26.6 10.6 22.3 6.6 22.7 2 26.6-10.6ZM186 168.4c11.5-7.5 2.7-19.8 7-25 1 6.1 3 21.8-7 25ZM169.9 153c-1.9-20.6 19.8-18.3 25.7-12.6 -22.7-4.9-22.8-.2-25.7 12.6Zm41.5 181.5c-4.4-13-18.7-7.6-22.5-13.2 6.1.7 21.9 2.7 22.5 13.2ZM192.1 346c-20.5-3.5-12.7-23.7-5.6-27.9 -10.6 20.5-6 21.8 5.6 27.9ZM345.4 94.6c11.3 7.9 19.7-4.7 26.1-2.5 -5.4 3-19.3 10.6-26 2.5Zm8.9-20.6c18.6-9.2 24.3 11.7 21 19.3 -3.5-22.8-8-21.1-21-19.3Zm34.2 292.6c-13.8.5-12.8 15.6-19.3 17.6 2.5-5.6 9-20 19.3-17.5Zm5.5 21.7c-9.3 18.5-26.5 5.3-28.5-2.7 16.7 16 19.2 12 28.5 2.7Zm68-179c-3.1 13.4 11.9 16.3 12.2 23 -4.9-3.8-17.2-13.7-12.2-23Zm22.5.3c15.6 13.7-1.7 26.8-10 26.7 19.9-12 16.7-15.4 10-26.7Zm-252.6-89c13.3-3.6 8.8-18 14.6-21.5 -1 6-4 21.5-14.6 21.6Zm-10.4-19.8c4.7-20 24.5-11.2 28.4-3.9 -20-11.7-21.6-7.2-28.4 4Zm-39.5 168c.1-13.6-15.2-13.3-17-19.8 5.6 2.7 19.9 9.7 17 19.9Zm-22 4.5c-18.3-10-4.3-26.5 3.9-28.1 -16.8 15.9-13 18.6-4 28.1Zm248.6-142.8c8.2 11 20.2 1.6 25.6 5.7 -6.1 1.2-21.7 4.1-25.6-5.7Zm14.9-16.8c20.6-3 19.4 18.7 14 24.8 3.7-22.7-1-22.5-14-24.8ZM316 388c-11-8.4-19.9 3.9-26.1 1.4 5.5-2.8 19.7-9.8 26-1.4Zm-9.7 20.1c-19 8.4-23.8-12.7-20.3-20 2.7 22.8 7.2 21.4 20.3 20Zm150.2-124.7c-8.4 10.9 4 19.7 1.5 25.9 -2.8-5.4-10-19.5-1.5-26Zm20.3 9.5c8.6 18.8-12.6 23.7-20.1 20.2 23-2.8 21.6-7.2 20.1-20.2Zm-303.3-55c6.2-12.3-7.7-18.6-6.4-25.2 3.8 4.8 13.5 17.3 6.4 25.2Zm-21.8-5.7c-12-16.9 8-25.5 16-23.5 -22.1 7-19.8 11-16 23.6Zm123.3 144c-10.3-9.1-20 2.5-26.2-.4 5.7-2.4 20.4-8.5 26.2.3Zm-11 19.4c-19.6 7.1-23-14.2-18.9-21.4 1.1 23 5.7 21.9 18.9 21.4Zm-3-291.9c13.7 1.3 14.7-13.8 21.3-15 -3.1 5.3-11.4 18.8-21.4 15Zm-2.7-22.2c11.6-17.1 27-1.8 28 6.3 -14.5-18-17.6-14.3-28-6.3ZM443 317.6c-11.7 7.2-3.3 19.8-7.9 24.8 -.7-6.1-2.3-21.8 8-24.8Zm15.6 16.1c1.3 20.6-20.3 17.7-26 11.7 22.4 5.7 22.7 1 26-11.7Zm-25-183.6c4 13.1 18.5 8.3 22.1 14 -6-1-21.8-3.5-22-14Zm19.7-10.8c20.4 4 12 24 4.7 28 11.3-20.1 6.8-21.6-4.7-28Zm-244 2.6c12.2-6.4 4.7-19.6 9.6-24.2 .3 6.1.8 21.9-9.6 24.2Zm-14.4-17.2c.2-20.6 21.5-16.2 26.8-9.9 -22-7.1-22.6-2.4-26.8 10Zm-4 181c-.3-13.7-15.6-12.8-17.6-19.2 5.7 2.4 20.2 9 17.6 19.2ZM169 311c-18.5-9.4-5-26.4 3-28.3 -16.2 16.4-12.3 19-3 28.3Zm212.2-200.4c10.4 9 20-2.8 26.2 0 -5.7 2.6-20.3 8.7-26.2 0ZM392 91c19.5-7.3 23 14 19 21.3 -1.2-23-5.8-21.9-19-21.3Zm-38.9 292.6c-13-4.3-17.4 10.2-24.2 10 4.3-4.5 15.4-15.8 24.2-10Zm-2.4 22.2c-15.2 14.2-26.7-4.1-25.8-12.3 10 20.7 13.8 17.9 25.8 12.3ZM461 245.3c-4.4 13 10.2 17.3 9.9 24 -4.5-4.2-15.8-15.3-9.9-24Zm22.4 2.5c14.2 15.1-4.4 26.5-12.6 25.5 21-9.9 18.1-13.6 12.6-25.5Z"/><g stroke-width=".5" fill="#730000" stroke="#000"><path d="M349 120.3s.6-1.3 1.7-.6c1 .8 1.3 4.2 1.3 4.2l-1.6.8s.9-1.3-1.3-4.4Zm-8.8 30.7s.8-1-.3-3.4l1.5-.5s.6 1.8-.2 3.9h-1m27-5.4l-3.7 2.3 1.9.8 4.5-2.6 -2.7-.5m-49.7 14.6c-1 .8-1 2.1-1.7 3 -.4.7-2 1.8-2 3 -.2 1.1-.3 1.9.2 3.5 .6 1.5 3 8.5 2 13.7 -1 5.3-.6 7.5-.3 8.3 .4.8 1.6 3 2.3 3 1.6-.2.9-.7 1.5-1.7 1.4-2.5 0-22.2-.7-27.6 -.5-4.2-2.5-8-2.7-8.4l-.8-2.6c-1.5-3.5-3.3-6.5-3.3-13.9 0 0-4.7 1.1-8.8-8.2 -2.2-4.7-5.3-4.2-9-5.7l1.6-1.1s3.2 1.6 4.7 1.6c1.6 0 1-3.2 1-3.2l1.7-1.5v6.8c0 3.1 4.3 7.4 6.8 8.7 1.6.8 3.6-2.4 3.1-5.6 -.5-3 0-7.3 0-7.3l2.2 1.3s-.8 1.3-.6 2.1c.3.8 1.3-.7 2.1-1.5 0 0 .2.2 1 .2l-2.3 4c-.8 1.2-.8 6.2-.8 8 0 2 .7 6.2.7 7.6 0 1 1.8 5 3.3 7.4l1.6 3.5c1.2 1.9 1.3 3.2 2 4.7 .4.8 1 3 1.6 7l.7 7c.2 2.4 2.2.6 4.5-1 2.4-1.8 2.4-6 2.4-6s1.8-1.6 1.5-.7c-.2 1 1 2 1 2 -1.4 3.3-.6 2.9.9 2.8 1.5-.2 6.5-4 6.5-4 .7-.2 3.8-.2 3.3 0 -.6.3-1.4 1.7-1.4 1.7l3.3-.4c-1.1.9-5.5 3.4-6.5 4v-.001c-2.8 1.51-5.67 2.88-8.6 4.1 -2.3 1-6.7 3.2-6.9 5.4 0 2.3.3 8.3 0 10.3l-1 10.6h-10.4s2-7.6 0-9.7c-2.1-2.1-7-8.4-10-10.5 -3.2-2 2-.5 2-.5v-2.1l4.8 5.7s8.3-7.3 0-17.3c-2.6-3.1-5.3-7.9-7.3-8.4 -2.2-.6-3.3-1-6.9 0 -3.7 1.1-12.6 1.1-16.3-4.8l3.1-.5 2.7-1s-1.1 3.7 6.3 3.7 8.4 0 7.8-6.8l2.2-1.1 1.6 1.5s-1.1 3.8-.5 5.3c.5 1.6 3 2.7 5.1 4.2 1 .7 1.6.8 2.2.8 .9-.1 1-.1 2.2-1.3 1.8-2 1.4-1.8 3.2-3.4l1-1.6 1.1 2.9Z"/><path d="M319 155c.5-.4 1.2-1.9 2-3.1 1.1-2 2.5-3.2 4-5.6 1.5-2.2 2-5.6 1.5-7.9l1.4.8v3.7l2.7-2 .8.4s-5.9 6-11.3 15.9l-1-2.2Zm-51.3-20.3c.8 1.4 1.6 4 3.9 6l1.6-.4s-3.6-4.2-3.6-6l-1.9.4m9.2-2.4s.5 5-.8 6.9l1.6-.8s1-3.4.7-5.3l-1.5-.7Zm51.4-15.7s-.3 7 1.1 11.3l1.9-.5s-.3-1.3 1.2-1.9c1.6-.5 5.3-2 7.2-3.6l-.6-1.6s-2.8 2.3-4.2 2.9c-1.3.5-2 1-3.1.7 -1.1-.3-2.4-2-1.6-6l-1.9-1.3m20.7 32.8s-.4 5-.2 7.2l1.7.4s-.4-6 .7-6.5l-2.2-1m7.5 3.7s-1.9 3.2-4 3.5l3.4-.7s1-.5 2.4-2l-1.8-.8"/><g fill="#289400" stroke="#030"><path d="M326.6 138.4l1.3.8 1.3.2 3.2 2.6c1.2 1 1.2-.2 1.2-.2l.8 3.1h1l-.2 3.2 1.8-1.6 2.2 1.9s1.5-1.4 2.3-1.4c.8 0 1.1-.8 1.1-.8h.1c-5.2-2.4-7.4-5-5.9-7.6 2.6-4.4 6.8-1.6 8.1-1l19 10.2s1.3-.8.4-1.6c-1-.8-1.4-2.7-1-3.5 .2-.8 2.4 2.4 3.4 2.7l3.5.7v-1s3 2.2 3 3.3c0 0 2.3-1.2 1.5-1.9 -.7-.7 3.5 1.7 3.7 3l1-1c-.2 0 .2-3.2 1.3-4.6v0c.46-.82 1.16-1.48 2-1.9 0 0 1-1.7 2-1.7 0 0-1-.6-1.4-1.4 -.5-.8-1.6-1.2-1.6-1.2s1.4-1 1.8-1.5c.4-.6.8-.7.8-.7s-2.2-1.9-3.8-2.2c0 0-.1-2.5-2-2.7h.8s-1.4-2.8-2.8-2.8c0 0 .9-1 1.6-1.1 0 0-1.6-2.2-3.9-1.4l1.5-.6s-1-1.1-4.4-.6c0 0 .3-1.3-1.2-2.4 0 0-1.2 0-1.2 1 0 0-1.2-1-2.7-1 -1.4 0 .5 1.6.5 1.6s-2-1.3-3.1-1c0 0 .5-2.2-.8-3.3 0 0-1.4.7-1.8 1.7l-.4-1s-2 2.4-2.4 1.7c-.3-.4-.6-2-.6-2l-1.1 1.7 .2-2.4s-1.4.8-2.5 3.3c0 0-1.3 1.3-1.3 2.4 0 0-1.1-1.2-2 0 -1 1.4 0 1.1 0 1.1s-.5.5-1.5.7l.2.8s-1.2-.7-2.2-.4l.5 1.2s-2.6.2-2.7-2c0 0-2.1-1-2.4.2l-1.6 1s-.5-1-1.3-1.2c-1-.3-.2 1.3-.2 1.3s-.3-1.2-1.5-1.8c-1.2-.5-.2 1-.2 1s-1.5-1.2-.8-2.2c0 0-1.4 1.4-.7 2.7l-1 .7s-.5-.5-.4-1c0-.3-1.7 1.3-1.7 1.3s-1-2.6 0-2.6c.1 0-1.8 0-2.1 2.2 0 0-1.3 0-2.5.4s1 1.3 1 1.3 -2-.4-3 .2l.7.9s-.7-.7-2.4-.1c-1.7.5.4.8.4.8s-1.7-.4-2.6 0c-.9.4.3 1 .3 1s-3.2-1-3.7-.6c-.5.3 1 1.8 1 1.8s-2 .5-2.3 2l1.8.7s-.8.4-1.2 1.1c-.4.8 1.2.4 1.2.4s-2.2 1.6-2.2 2.8c0 0 1.6.5 2.7-.7 1.2-1.2.4-.8.4-.8l.1.8s2.3-1 2.3-1.6c0-.5-.4.8-.4.8l2.2-1.2 1.5 1Z"/><path d="M324.7 108l-.5-2.2 5 .6 .9-2s2.4 1 3.1 1.8c0 0 4.6-1.2 6-.7l-.6 2.1s4.2.3 5.6.8c1.2.5-.6 1.6-.6 1.6s4.8.6 6.8 1.8c2.2 1.3 2.2 2.4 1.1 2.7l2.6 4.2s-4.2.5-5 1.5c-.7 1.1-1.5-1-1.5-1l-.8 2.9s-2.6-1.4-3.7-2.4c0 0-1.3 1.6-.5 2.4l-4.8-3.1s-2-.3-2 1.5l-3-3.4 -2.6.8s-.8-1-1.7-1.4c-1.1-.2-.3 1.4-.3 1.4l-1.6-1.9 -1.6-1.8s-1.3 1.8-2.4 1.8c-1 0-1-1.2-.8-2.1 .3-.8-3.1-1-3.4 0 0 0-1-4 2.6-5l3.7-1Zm-19 13.3l-1.6 1.6 -1-.5 -1.9 2.1 -.4-1.1 -1 1.7 -1.7-.6 -.8 1.3 -1.5-.3s-1.2 1.2-2 1.5c-.8.2 0-1.8 0-1.8s-1.2 2-2 2c-.9 0-.6-1-.6-1s-.5 1.4-1.4 1.6c-.9 0-.5-1-.5-1l-1.6 1.2v-1l-.7-.3s.4-1.8 1.1-2.2c.7-.4-.7-1.5-.7-1.5l.7-.8s-2-.5-2-.1c0 0 1-2.6 2.4-3.1l.1-3s1.4-1.1 2.6-1.2c1.4-.2-.4-2.3-.4-2.3l3.2-1.8 .4-2.3 4.7.4 1-2 3.8 1 3.3-1.7 2.3 2.7 3.5.3v3.1s4.1 1.3 4.6 1.7c0 0-.8 2.5-.8 3 0 0 3-.8 3.8-.6l.4 3.4s5 1.6 5.3 2.5c0 0-1 .7-1.7 1.6 0 0 .6 3 .6 4l-.4.5s-1.4-1.3-2.6-1.5l-1 2.1 -1.7-1.1h-1.1s-.9-1-1.6-1v-1l-1.4.9s-2.2-1.1-2.2-1.8l.1-1.5 -2.2 1.5s-.5-1.1-.4-1.6c0-.5-.9 1.1-.9 1.1s-1.2-2-1-2.4l-.4 1.7s-2.3-.8-2.6-2.4Z"/><path d="M274.5 130.9s4.1 2 4.1 3c0 0 1.1-2.1.5-3l1.6 1.1s.5-1.9-.1-2.5c-.5-.5 3.5-2.1 4.4.5 0 0 2.4-2.5-2.3-4.7 0 0-.4-1.6 2.5-1.2 0 0-.2-1-.9-1.3h2.7s-1.6-1.4-4-1.8c-2.4-.4-1-.7-1-1.2 -.2-.5 0-2.2 0-2.2s-1.4-.5-2.5 0l.4-.4s-2.5-.7-3.5-.1c0 0-1.5-.6-1.3-2.1 0 0-1.5-.1-2.1 1.4 0 0-1.4 1.6-3.3 1.6 -.3 0-1.7-.8-1.7-.8l-1.2 2.7H265l.5 1s-2.8-.8-3.7 0c0 0 1.1 1.7.8 2.8 0 0-2.2.4-2.7.8 -.6.4.8.7.8.7s-2.6.8-3.2 1.6l1 .7 -1.2 1.6 1 .2 -2.5.8c-.9.3 1.5.5 1.5.5l-1.1 1 1.8.3s-1.4 4-1.5 5.8c0 0 2.2-2.7 2.8-3l-1.8 3s3.4-1 3.7-1.6l.5-1 .1 1.6s1.3-1.7 1.5-2.4c.1-.7 2 .7 2 .7v-1l2.4.7c.7 0 .8-.3.8-.3l1.6-.2 -.3 1.4s1.2-.8 1.5-1.6c.2-.8.8 0 .8 0l.8-3.1h1.6Zm-13.4 13.8l1.6 3.3c-1.3 0-3.1 1.5-3.1 1.5 .3 5.4-1 5.1-1 5.1 .3 1-.3 2.8-.3 2.8l7.7-4.6 .1-.5 9.2-4.3 .3.5 2.6-1.5 1.9 4.9 -1.9 1c.1 1.7 2.1 4.6 2.1 4.6l2.4-.6 2.7-1v1c0-.3 2.9-1.3 2.9-1.3l1.3 1.3c1-.1 2.7-2.5 2.7-2.5l2 .8s.7-1.2.7-2 2.6-.8 2.6-.8l1.7 1.2 2.3-1.8s.7 1.3 1.6 1.5c1 .1 3.4 2 3.4 1.6 0-.4 1-2.5 1-2.5l4.1 1.6c-.5-1.8-2-4-2-4s2-1.6 1.7-2c-.4-.4-1.6 0-1.6 0l1.2-2.4h-1.6l.5-.6 -2.5-1 1.3-2.8c-.6-.7-7.3-2-7.3-2l1.6-1.5s-.8-1.2-1.6-1.2 -4.9.1-5-.3l-1.8-1.8 -2.6 1.9 -1.3-.4 -2.2.8s0 1.3-.3.4c-.3-.8-2.3-2.8-2.3-2.8 -.4.7-3 3.8-3 3.8s-.5 1.7-1.3.5c-1-1.2-3-2.4-3.4-1.5 -.2 1.1-2.1 2-2.5 1.8 -.4-.3-2.5-.1-2.7.5 -.1.7-2.5 2.4-2.5 2.4 -1.4-.7-3.8-.3-3.8-.3s-.7 1.1-.8 2l-4.7 1.2Zm44.2 39.6v-2l2.3 1.5 1.4-1.5 1.8 1.7 1-1.7v2.8l2.7-2.3 1.5.6v-2.2s1.9-3.1 1.1-3.7l1.6-.5s-2.7-2.6-3.4-3.1c-.8-.6-1.9-.6-1.9-.6s-2-2-3.4-2.7c-1.3-.5-2 .6-2 .6s-.8-1.5-2.2-1.8c-1.3-.3-1.3 1-1.3 1s-1-1-2.2-1.4c-1.3-.6-.4 1.2-.4 1.2l-4.5-1.4 .6 1.4 -4.2-1.1 .5 1.5 -3-.5 -.2 1.3 -4.2.8 .8 1.4 -2.6-1.1v1.9l-3 1 1.1 1 -4.7 2.4c-.7.5 1.6 1.6 1.6 1.6l-4.2-.6 1.6 1.4 -3.7 3.4 2.6 1.9 -1.6 2.3 4 .8 1.5 2.6 3.2-.6v3l4.7-3.7s3.4 3 3.7 2.1c.2-.8.2-3.4.2-3.4h1.7V187l1.2 1 2.2-3.1 2.8 3.9 2.2-5 3.1.5Zm19.1-11.8l-.4-4.5 -1.4 1.4 .6-4.2 -2.2-.4 .8-4.1 -1.6-.8 .4-2 1.6-1.1 2.8-2.8 6.6.1 .7-2.1 4.7.8c.8.8 3.3-1.8 3.3-1.8h1l1 2s3.4-.4 5 .6l-1.9 2.6 3.5.3 2.3.5 2.4-.8 3.2-.2 .7 1.3h3l-1 1.1 3.8 1.8 -.8.8s2.2.8 3.7.8h.8s.8 1.8-.3 2.6c0 0 1.1 2.6 3.4 3.1 2.4.5 2.4.5 2.7 1 .3.6 0 3.2-2.7 3.2v2.7s-2 1.8-2.3 2.6l-1.6-1s-1.3 1.5-1.3 2.5c0 0-3.5-4.5-4.7-4.7 -1.4-.2-1 2.6-1 2.6l-3.8-3.1 -.5 2.1 -3.1-2.6 -1.9 1.3 -3.3-3.5 -3.2.4 1.2-1.6h-3.9l-.7-3.4 -.6 2.8 -2.4-1.6 -3 3.3s-.4-.4-.9-2c-.5-1.5-1.8 2-1.8 2l-1.1-2.5 -1.3 2.4s-1-1.8-2.1-2.4c-1-.5-2 3-2.4 4.5Zm.6 10.3l.2-1.6 5.6-2.2 4.7-1.7 2.3-1.1 1.1 1.9 1.4-2.7 2.1 2.8 1.2-1.5 1.8 1.4h1.6l.3 2s3.9.3 4.2-.5c.3-.8.8 2.7.8 2.7l3.7.5 .8 4.2s1.8 3.9 1.2 5.4c-.5 1.7-2-2-2-2s-.3 2.9-.6 3.7c-.2.8-5-.8-5-.8l-2 3.9s-2.2-3.1-3.2-3.1 -1 3.1-1 3.1l-4.5-5.3c-1.3-1.5-1.6 1.6-1.6 1.6s-2-3.4-2-4.4c0-1-1.9-2.2-1.9-2.2s-3.2 3.7-5.6 4.7c0 0 .3-2.3-.5-3 -.7-.9-3 1.5-3 1.5s-1.7-3.6 0-7.4Z"/></g><g fill="none" stroke="#004B00"><path d="M350.8 124.5l.5 2s1.8-.4 3-.3l-.7 2.2s2.3-.4 3.4.3l-.5 1.2 2.7 1.2 -2.5 2s4 1.5 4.9 2.7c0 0-2.7 1.8-3 1.7 -.5-.2-.2.8.5 1.7l-2.2-.1s.9 2 .8 2.8c-.2.8-3.8.6-3.8.6m14.1-5.3s.7-3.9-.4-4.9c0 0 2.5 2.2 4.2 2.3 1.8 0 0-3.2 0-3.2s2.3 1.2 3.5 1.5c1.2.2-.9-2.4-.9-2.4s.7-1.3 2.7-.1m-45.4-15.5s0-1-.3-1.4c-2.4-3.2 2.4 2.4 3.4 2.6m4.5 0s1.6 1.2 2.3 1.2c.8 0-.5-3.1-.9-3.5 -.3-.4 2.9 1.3 4 1.4 1.2.3 1.4-2 1.4-2s3.6.7 4.4 1.2m-25-.7l-.5-3m-24.2 12.7c-.2-.3 1-2 .5-2.9 0 0 .7.6 1.4.7 .6.1.4-2.2.4-2.2l.7.3s2-1 1.7-1.8c-.4-.8 1.4 1.2 1.4 1.2s1.1-1.2 1.1-1.7 1.4 1.2 1.4 1.2 1.5-.3 1.5-1.2c0-.9 1.8.3 1.8.3s.8-1 .7-1.8m-19.7 9.8s.9-2-.1-3.4m-23.6 9.8c0-1 .5-3.6 0-4 -.4-.4 1 .4 2.2.7m9.3-.4c-1.2-1.1-1.9-1.7-3.7-1.7m-16.2 8.3c.3-.7.8-2.4.5-3.3m25 51.7l1.3-2.6 1.6 3.7 1-2.3 .4.7 2.4-2.5 2.5 3.8m40.7-16.5l1.7-3.3 2.3 1.2 1-3.3 2.4 1.5 1.3-3 2.7.7 .2-2.2s1.8 1 2.3 1.9c.6.7 0-2.7 0-2.7l2.2 1s1.5-1.6-.6-2.4"/><path d="M343.6 163.1l2.3 3.4 2-2.2 1.7 3.8 2.3-1.4 3.2 1.9 1.5-1.2 3.5 2.5 1.4-3 3.2 1 2-3.5m-84.4-9.2s1.4-2.3 1-3.4c-.7-1 2.8 1.8 2.8 1.8s.7-2.3.3-3.4c-.6-1 3.9 3.2 3.9 3.2s.7-3.7 0-4.4c-.8-.8 4.3 1 4.3 1s2-.6 1.2-1.6c-.8-1.1 3.4 1.5 3.4 1.5s1-2.6 0-3.6 3.2 1.3 3.2 1.3l-1.6-2.8 3.4.2 -.3-3.2m30.3 45.1l2.2-1 2 2 2.2-3.5 2.6 2.5 .4-2.5 2.8 1.2 .6-1.6 3.1 1.7 .3-2.4 1.6.5 .3-1.5"/></g></g><path fill="#9DD7FF" d="M283.1 298.1v0c-2.45-4.12-4.46-8.48-6-13l42.4-37.2 42.3 37.1h0c-1.56 4.65-3.64 9.11-6.2 13.3l-.3.5 -3.2-1.2s-1.4 1.3-2.5 1.4c-1.4.2-2.7-1.3-2.7-1.3s-1.8 1.6-3.7 1.3c-1.9-.2-2.6-1.4-2.6-1.4s-2 1.6-3.4 1.3c-1.2-.3-2.1-1.2-2.1-1.2s-1.2 1.5-2.8 1.2c-1.6-.3-3-1.2-3-1.2s-2.5 1-4 1.3c-1.6.3-3-1.4-3-1.4s-2 1.4-2.8 1.4c-.8 0-3.7-1.4-3.7-1.4s-3 1-4.1 1c-1 0-4-1.3-4-1.3s-2.9.8-4.1.8c-1.4 0-3.4-.8-3.4-.8s-2.3 1.1-3.6.8c-1.4-.3-2.4-.8-2.4-.8s-2.6 1.1-4.2.8c-1.6-.3-3.4-1.4-3.4-1.4s-.3.8-3.4 1.4"/><g stroke-width=".7" fill="#FFF" stroke="#000"><path d="M319.5 205.1V248l-42.3 37.4v0c-2.94-8.74-4.43-17.89-4.4-27.1V205h46.7"/><path fill="#FFD83C" d="M319.5 205.1V248l42.2 37.4h0c2.9-8.74 4.35-17.9 4.3-27.1V205h-46.5"/><g fill="#730000" stroke-width=".5"><path d="M292.2 289.2c3.2 1.7 2 1.2 8.7 3.5v0c6.69 2.1 13.69 3.04 20.7 2.8 8 0 12.4-.7 15-1.4 2.5-.7 3.1-1.8 3.1-1.8l-6.5 6.7s-26.3 1.4-31-1.7c-2-1-6-4.2-10-8Z"/><path fill="none" d="M330.8 276.8s8.4 4.8 0 14m-37.8-1l12-11.6 -1.3 15.4m6.3 1.4v-25.8m20.8 25.8v-27.4m-10.5 27.9V266"/><path fill="#FF0018" d="M310 270.6l-5.4 1.7 5.4.6v-2.3m10.3-4l-5.8 2.1 5.8.2v-2.4m10.5 1.6l-5.8 2.2 5.8.3V268Zm3.4 12.4c-.3-1.1 3.4-1 3.4-1s1 3.9 0 6.3l-3.1-.6s.3-2.6-.3-4.7Z"/></g><g stroke-width=".5"><path d="M294.8 288.1l10.3-10 -.5 6s-5.3 3.5-5.3 5.9l-4.5-1.9m5.5 2.1s1-3.1 4-4.7l-.3 6.3 -3.7-1.6Zm14.7-17.3s4.2-.6 7.4 0c0 0-.5 4.2 0 5 0 0-5.8-1.4-8.1.8 0 0-.8-4 .7-5.8Zm-8.9 1s4.2-.5 7.4 0c0 0-.8 4.8-.3 5.5 0 0-4.7-2.6-7-.4 0 0-1.6-3.3 0-5Z"/><path d="M305.9 279.4s4.2-.4 7.3 0c0 0-.5 4.3 0 5 0 0-5.5-1.2-7.8.8 0 0-1.1-3.9.5-5.8Zm8.4-.7s6-.8 9.1-.3c0 0-1.2 3.4.3 5.7 0 0-6.5-1.7-9 .3 0 0-2-3.9-.4-5.7Zm-9 6.5l8.2.6s-.8 6-.3 6.7c0 0-6.6-1.5-7.8.6 0 0-2.2-5.4 0-7.9Zm9.2 0s7-.5 10.3 0c0 0-1.9 4.5.2 8.4 0 0-9.2-2.6-10.5-.5 0 0-2.1-5.4 0-7.9Zm10.8-12.3s4.2-.6 7.3 0c0 0-.5 4.2 0 5 0 0-5.8-1.4-8 .8 0 0-.9-4 .7-5.8Zm0 5.8s4.2-.5 7.3 0c0 0-.5 4.2 0 5 0 0-5.8-1.3-8 .7 0 0-.9-3.9.7-5.7Zm.5 6s4.2-.6 7.4 0c0 0-1 6.6-.6 7.4 0 0-4.8-2.3-7-.3 0 0-1.4-5.2.2-7Z"/><path d="M334.5 285.2s1.3 5 3 5.6l-2.2 2.8s-2.9-2-3.2-4.4c0 0 1.9-2.1 2.4-4Z"/></g></g><path fill="#006AC8" d="M355.4 298.7v0c-8.26 13.41-21.02 23.44-36 28.3l0-.001c-15.13-5.01-28-15.21-36.3-28.8h.1c3-.7 3.4-1.5 3.4-1.5s1.8 1.1 3.4 1.4c1.6.3 4.2-.8 4.2-.8s1 .5 2.4.8c1.3.3 3.6-.8 3.6-.8s2 .8 3.3.8c1.3 0 4.1-.8 4.1-.8s3 1.3 4 1.3c1.1 0 4.2-1 4.2-1s2.9 1.4 3.7 1.4c.7 0 2.8-1.4 2.8-1.4s1.4 1.7 3 1.4c1.5-.2 4-1.3 4-1.3s1.4.9 3 1.2c1.6.3 2.8-1.2 2.8-1.2s.9.9 2.1 1.2c1.4.3 3.3-1.3 3.3-1.3s.8 1.2 2.7 1.4c1.8.3 3.7-1.3 3.7-1.3s1.3 1.5 2.7 1.3c1.1-.1 2.5-1.4 2.5-1.4l3.3 1"/><g stroke-width=".5" fill="none" stroke="#000"><path d="M353.7 301.2c-1.4.1-1.6-.8-1.6-.8s-2 1.6-3.8 1.3c-2-.3-2.9-1.5-2.9-1.5s-2 1.6-3.4 1.3h0c-.85-.17-1.65-.55-2.3-1.1 0 0-1.3 1.4-3 1.1 -1.6-.2-3-1.1-3-1.1s-2.7 1-4.4 1.3c-1.6.3-3-1.5-3-1.5s-3.8 1.2-4.6 1.2c-.9 0-3.6-1.2-3.6-1.2s-1.9 1.1-3 1.1 -4.2-1.3-4.2-1.3 -3 .8-4.3.8c-1.4 0-3.5-.8-3.5-.8s-2.5 1-3.9.8l-2.4-.8s-2.7 1-4.4.8c-1.6-.4-3.6-1.4-3.6-1.4s-.3.7-3.5 1.4h-.1"/><g fill="#5AC800" stroke-width=".6"><path d="M293.1 305.2s-.3.7-2.8 1.2l-.7.2 .6-.2 -.7.3v0c3.19 4.35 7.15 8.08 11.7 11 4.5 3 9.6 6.6 18.4 9.2v-.001c6.32-2.15 12.31-5.18 17.8-9 6-4.5 9.2-7.2 12.6-11.7 -2.7 1.5-2.3 1.5-3.7 1.3 -1.3-.3-2.3-1.3-2.3-1.3s-1.3 1.5-3 1.3c-1.6-.3-3-1.3-3-1.3s-2.2 1.5-4.4 1.4c-1.6-.1-3-1.6-3-1.6s-3.8 1.3-4.6 1.3c-.9 0-3.6-1.3-3.6-1.3s-1.9 1.2-3 1.2 -4.2-1.4-4.2-1.4 -3 .8-4.3.8c-1.3 0-3.4-.8-3.4-.8s-2.5 1-4 .8c-1.3-.3-2.4-.8-2.4-.8s-2.7 1-4.4.8c-1.6-.3-3.6-1.4-3.6-1.4Z"/><path fill="#FFD800" d="M319.6 326.9v0c5.99-2.25 11.72-5.13 17.1-8.6 -1 0-4-1-2.9-1.2 0 0-1.2 1-2.3 1 -1.1 0-4.2-1.3-4.2-1.3s-3 .7-4.3.7c-1.4 0-3.4-.7-3.4-.7s-2.6 1-4 .7l-2.4-.7s-2.8 1-4.4.7c-1.6-.3-3.6-1.3-3.6-1.3s-2.4 1.3-4 1.4v0c5.49 4.23 11.73 7.38 18.4 9.3Z"/></g><path fill="#B34B00" d="M313.2 249c1.9-1.6 3-3 2.3-4.2 -.7-1-1.8.6-3 .2 0 0-2-1.1-2.5-2 -1-1.2-2.5-2.3-3.3-3.4 -.9-1-4.2-5.3-9.1-10.3 -1.5-.9-1.1-4.4-2.2-5.5 0-.8-10-10.6-13.4-14 -1.5-1.1-2.2-1.8-4.7.5 -2 1.7-2.7 3.6-.1 5.8l12.8 11.7c1.9 1.8 4.5 2.1 5.6 3l13 13.4c1.7 1.4 2.5 2.4 1.5 3.6 -1 2 .1 2.3.3 2.3 .2.1 1.1.1 1.7-.4l1-.7Z"/><path d="M280.7 214l13.4 13.2"/><path fill="#FFF" stroke-width=".6" d="M298.8 220l1.1-2.5c.2-.4 3.8-6.2 5.6-6.3l11.3 8.2c0 .5-5 7.8-5.3 7.2 0 0-13.2-5.5-12.7-6.6Z"/></g><path fill="#CCB8C8" d="M306 222c-1.6-1.2-4.1-2.4-6.2-3.8l-.9 2c.7.8 10 5.1 11.6 6 0 0-1.8-2-4.6-4.2Z"/><g stroke-width=".4" fill="none" stroke="#000"><path d="M299.8 218v0c1.62 1.1 3.29 2.13 5 3.1 2.7 2 4.4 4 6.4 5.2"/><g fill="#782121" stroke-width=".5"><path d="M277.1 253l25.5-31.7c.5-.4 2.9-.4 3.2 2l-24.2 33s-2.7-.3-4.5-3.4Z"/><path fill="#730000" d="M362.7 253.3c-1 .7-2.4.8-2.4.8 -1.7-1.9-3-4-5.4-6.5l-25.5-31.3 2.7-2.6 23 26.9c.6.7 4.6 4.9 8.4 9.8 0 0 .3 2-.8 2.9Z"/><path fill="#FFF" d="M338.1 220.3l-4-5s-3.2.5-3.8 2.1c0 0-2.2 3.7-8.2 4.1 0 0 1.7 7 8.6 10.7 0 0 2.5-7.2 5-8.4 0 0 2.5-1.9 2.4-3.6Z"/><path fill="#730000" d="M327.9 242c-.6-.3-1.2 0-2 .4 -.9.5-1.8.3-1.7-.7 0-.8 0-.7 1-1.4v0c1.52-.86 3.33-1.04 5-.5l-2.3 2.1m27.8-27.7c-.2-.7-.4-1.4.3-2.2 .7-.8.7-2.2-1-1.5 -1.7.7-2.2 2.5-.9 5.4l1.6-1.7Z"/><path fill="#FFF" d="M327.3 242.5l28.9-28.7 7.1 7.6s-1.5-.6-2-.2c-.5.4.5 1.9.5 1.9s-1.3-.5-1.9-.1c-.7.4 0 2 0 2s-1.2-.8-1.8-.5c-.5.4 0 2.3 0 2.3s-1.5-.5-2-.1c-.3.4 0 2 0 2s-1.5-.7-2.3 0c-.8.7.4 1.9.4 1.9s-2-.8-2.7.4c-.8 1.2.1 2.2.1 2.2s-1.6-.7-2-.4c-.4.4 0 2.3 0 2.3s-1.3-.8-2.2.2c-.9 1 .1 2 .1 2s-1.3-.8-2-.4c-.6.4.2 2.2.2 2.2s-1.2-.9-2.1 0c-.9 1 0 2 0 2s-1-1-2.2 0c-1 1 0 2.1 0 2.1s-1.5-.8-2.1 0c-.7.8.2 1.9.2 1.9s-1.2-.7-2-.3c-.7.4 0 2.1 0 2.1s-1.1-1.3-1.6-.6c-.6.7 0 2.4 0 2.4s-1-1.3-1.6-.6c-.7.6.4 2 .4 2s-2-.8-1.5-.8Z"/></g></g><path fill="#7E4B7E" d="M354.5 216.2l-2.2 2.2 .5 7.7s.5-2.2 1.1-.7c0 0 .2-1.8.7-1.5 -.4-.2 0-7.8 0-7.8m-4.3 4.3l-1.6 1.5 .6 7.7s.4-2.9 1.1-.6v-8.6m-17.6 17.2l-1.5 1.7 .4 4.7s.5-3 1.1-.7l-.2-2.6 .2-3"/><g stroke-width=".9" fill="none" stroke="#7E4B7E"><path d="M330.9 218.3c1 1 4 5 4 5m-2.6-2.9c-.2.6-.6 2.3-1.5 3.2m2-2.8c-.2.4-.2 1.7-1.5 3m2-2.4c-.3.7-.4 1.2-.8 1.7m1-1c0 .4-.3.5-.4.8m-3.2-2.7v0c-1.51 1.08-3.12 2.02-4.8 2.8m4-1.8l-.001 0c-.93.87-1.98 1.61-3.1 2.2m2.8-1c-.5.4-1.5 1.4-2.3 1.7m1.8-.5c-.4.5-1 .8-1.5 1.1"/><path fill="none" stroke="#7E4B7E" stroke-linecap="square" stroke-width=".9" d="M311.3 224.7c.3-.6.9-1.8 1.6-2.8 1-1.4 1.3-1.6 1.8-2"/></g><g stroke-width=".5" fill="#289400" stroke="#060"><path d="M217 303.4c1.5.7 0-4.8.5-6.8 .6-2.2 4.8 5.2 6.8 6.2 2.2 1 15.3-5.2 15.3-5.2l3.1-5.8 1.7 4.8s3.6-4.2 4.6-5.8c1.1-1.6 0 3.1-1 4.7 -1.1 1.5 3.1 2.1 2.6 5.3 -.5 3 4.2-2.2 4.2-2.2l12.1 1s2-7.3 5.3-11.5l1 4.8 5-5.1v0c7.11 18.64 22.3 33.06 41.3 39.2v0c17.99-5.93 32.61-19.24 40.2-36.6l6.7 7s5.3-1.6 6.3-2.2v0c5.36 1.25 10.57 3.13 15.5 5.6 1 .7.3-3.5.3-3.5s5.8 1.1 5.3 4.2c0 0 1.2-2.9 2.3-3.4 1.1-.5 3.6 2.7 4.2 3.7 .5 1 13 2.6 14.7 3.6 0 0 1.3 1.6 1.3 2.7 0 0 2.7-.3 4.7-.3 0 0-1.5.8-1.5 2.4 0 1.6-.8 2.9-2.4 3.6 -1.5.8 0 1.4 2 1.6 2.2.3 0 3-4.1 4.5 0 0-1 2.3.8 3.1 0 0-3.7.3-4.2-.8 0 0-1.3 2.5-1.3 3.8 0 0-4-1.3-5-1.9 0 0-1.6 1.6-.5 2.3 0 0-7.1-.7-8.5-3.4 0 0-2.5.8-2 1.7 0 0-5-3.4-6.6-3.4l-1 1.7s-3.5-2-4.5-2 -.2 1.5-.2 1.5l-4.8-2.9 -1.9 3 -5-2.7c-1-.8-1.2 1.6-2 1.9 0 0-1.6-2.2-3.7-1.9 0 0-.8 2.6-.5 3.4l-7.1-1.5c-1.1-.3-.5 1.2 0 2.3 0 0-4.5-1.3-5.5-2l-.3 2s-3.7-.3-4.5-1l-2.3 3.1h-3.5l-.7 2.9s-6.6-1.9-7.2-.8c-.5 1 .3 2.6.3 2.6l-5.7-.7 -.5 2.3s-6.7-2-8.2-1c0 0-2 2-3.4 2.6 -1.3.5 0-.8 0-.8l-2-2.9s-2.4 1.3-3.8.8c-1.3-.6-5.5 2-6.8 1.3 0 0 0-1.9-1.1-2.4 -1-.4-2.8-.4-3.6.8l-2.2-3c-1.2-2.2-3.1.1-3.1.1l-.3-2.5 -3.6-.3c-2.2-.3-2.6-2.2-2.6-2.2s-5.6.6-6.4.3l1.4-1.3s-7.6 1.6-9.2 1c-1.7-.5 1.8-2.6 1.8-2.6l-8.4-2c-1.3-.4-9 1.2-10 1.2s-1.6-1.8-1.6-1.8 -1.8 1.6-3.4 2.1c0 0-1.3-3.1-.5-3.4 0 0-5 1.3-5.3 2.6 0 0-1.2-2-1-3 0 0-2.4 3.8-3.5 4.6 -1 .8-.2-1.9-.2-1.9s-2.9 3.7-4 4v-2.6s-8.4 4.5-10.7 3.9c0 0 0-1.9.8-2.4l-5.3-.2c-1.3-.2-2.8-.8-4.2-1.1 -1.3-.2 1.9-1.6 4-1 0 0-5.8-2.1-7.6-1 0 0-.8-2.2 2.3-3 0 0-4-3.9-6.3-3.6 0 0 2.6-1.6 4.8-.8 0 0-2.5-6.6-4-7.4 0 0 5.5-1 7.1-.2Z"/><g fill="#730000" stroke="#000"><path d="M208.9 188.8L280 152c.3-2-.7-3.4-1.9-5 -20.3 10-38.8 22.2-61.4 29.5 -1.3.5-12.5 5.2-18.3 12.1v0c-1.15 1.24-1.85 2.82-2 4.5 0 0 .2 3.1.9 4 0 0 .1.8 1.2 1.5 0 0 .7.3 1.1.2 .5 0 1.4 0 2.6-2v0c1.96-2.89 4.2-5.57 6.7-8Z"/><path fill="#FFF" d="M266.1 152.4l9.2-4.4s3.1 2.3 2.8 5c0 0 .7 6 8.2 10.2 0 0-6.3 8-17.4 8.6 0 0 1.2-10.4-1.1-13.5 0 0-.4.4-.2-.1 .3-1-.2-4.5-1.7-5.3l.2-.5Z"/></g></g><path fill="none" stroke="#7E4B7E" stroke-width=".8" d="M276.9 153.6c-2 .8-8.3 4.1-8.3 4.1m5.2-2.1c0 1-.6 3.3 0 5m-.8-4.7c0 .5-.8 2.2 0 4.6m-1-4.1c-.2 1-.4 1.5 0 2.6m-.8-2c-.2.5 0 .8 0 1.2m5.8-1.5c.3.7 2.9 4.8 4.5 6.5m-4.1-4.7c.3.8 1.7 3.6 2.8 4.7m-3-3c.4 1 1.1 2.7 2 3.7m-2-1.8v0c.22.89.59 1.73 1.1 2.5"/><g stroke-width=".5" fill="#B34B00" stroke="#000"><path d="M342.3 148.3l26.1 12.8c5.2 2.5 7.1.2 10 1.5l51.6 26.2c4.5 2 7 2.5 6.3 4.8 -.1 3.7 1.7 3.7 2.2 3.8 .4 0 2.1-.2 2.8-1.2l.6-.6c.6-.6.5-.7.7-1 2.1-3 3.3-5.8 1-7.5 -2.5-1.3-2.8 1.5-5.6 1.2 0 0-4.8-1.8-6.6-3.1 -3.2-1.8-7.8-3.9-8.8-5 -3.3-.6-28-14.6-42.1-21.6 -1.5-1.2-2.3-5.9-5.3-7.4 -.8-1.3-19.8-10-29.8-15 -3.6-1.3-5.7-2.2-8.3 2.3 -2.3 4.4-1.8 6.8 5.2 9.8Z"/><path fill="none" d="M344.5 142.8l29.2 14.6"/></g><g transform="matrix(.96 0 0 .96-40 0)"><g stroke-width=".5" fill="url(#a)" stroke="#000"><path d="M309.7 165.1c-.2.6-.7.2-.7.4 -.4 2.2-.3 3.3-.8 4.5v0c-.76 1.14-1.84 2.05-3.1 2.6 -2 .7-4.5 3.1-8.5.9l-.6-.5s1.1 4.1-3 6.2l-15.7 8.2s-1.5 2.8-.5 6.5c0 .6.3 1.1-.3 1.5 -1 .7-2.7 2.8-3.7 6 0 0-3-1.3-3-3.2 0-2 1.2-3 1.5-4.4 .3-1.3 1-4.7.7-5.7 -.4-1.1-2.3-1.5-3-2 -.6-.3-1.4.5-1.3 1.4 .1 1 .8.8 1.6 1 0 0-.9 2-.8 3.4l-9.2 4.8 1.6 2.3c.4.7 1.3 10.2 4 14.7s3.7 3.2 4.3 3.8l2 2c.8.5 4 .8 4.5-1v-.001c.63-1.66 1.75-3.08 3.2-4.1 2-1.6 6-5.4 6-7.2 0 0 2.3 6.8 2 12.4 0 0 8.5 1.7 16.1 1.9 7.6 0 11.5-1.5 11.5-1.5s1-6.4.6-7.7c0 0 1.2 4.2 2.2 5.6 1 1.8 2.1 5.3 4.3 5.5 2.2.1 4-2.1 4.2-3v-6.8h8.7s3.8 1.5 5 1.3c1.3-.1 2-1.3.8-1.7l-.4-.3c1.2 0 2.6.7 2.6.7h4.3l-.1-.5c-.3-1.2-2.6-2.2-4.2-3 -1.6-.5-3.5-1.2-4.7-1.3v0c-2.08-.2-4.17-.06-6.2.4 -.8 0-3.9.4-5.8 1.3 -.5.3-1 .4-.8-1 .3-1.3.2-7.8-1.3-10.5 -1.2-2-1-3.6-.9-5.2v-.001c.14-2.94.14-5.87 0-8.8 -.3-1.7-2.5-4-6.6-4.4 -3.8-.5-7-3.7-7.3-6.2 -.3-2.6.4-7.2.8-9.3"/><path fill="url(#b)" d="M292.4 153.6c-.7 3.3-.7 6.1-.6 9.3 .1 2.1 1.1 4.6 2 6.7v0c.6 1.5 1.56 2.84 2.8 3.9 3.6 2.3 7-.2 8.9-1v-.001c1.12-.56 2.06-1.43 2.7-2.5 .5-1.2.3-2.1.8-4.5l.7-.4c1-1.5.7-2 1.2-3 .6-1-.5-2.2-1.8-2 .6-1.9 1-4 .4-5.9 -.2-.6.5-2.2-.6-1.8 -4.6 1.8-10 1.4-14.8 1.4 -.4 0-.8-.8-1.4-.7l-.3.5"/><path fill="#000" d="M292 155.3c-.5-.4-.6-1.3 0-3.2 .7-2 0-2 1.1-3.2 1.1-1.2.9-1.6 1.6-1.9 .7-.2 2.8-.2 3.5-.5v0c2.81-1.38 6.09-1.49 9-.3 1.5.8 2.5 2.8 3.4 3.6 1 .7 1.7 3.6 1.5 7.9 -.3 4.3-1.2 3.5-1.2 3.5s-1.2-2-2.2-.3c0 0 0-1.7.2-3 .1-1.1-.6-3.4.1-4.9 0 0-5.8 1.8-8.7 1.7 -3-.2-7.4-.9-7.6-1.6l-.7 2.2"/><path fill="#FFF" stroke="#FFF" d="M295 151.8c-.3-.6-1.8-2.9-.6-3.6 1-.6.4 2.8 2 3.5 0 0-.6 1.5-1.4.1Z"/><path fill="none" d="M298.3 160.1l-.9 3.2m10.6 1.6c.2.6.4.3 1 .4m.3-4c.5-.5 1.2-.2.8 1.3m-17.7-4.9l2.8 1c1.5.6.6 2.9.2 4.3 -.2.7-1 2-.6 2.5 .5.8 1.1.3 2 .4 0-.3.6-.5.8-.5 .7 0 1.1.5 1.7.3 .6-.3.5-1.2.3-1.7m-.1-4.5c0-.4 1-.8 1.5-.9 2.1-.4 3.6-.7 5.4.5m-5.7 11.1c-1.8.4-3.6.7-5.2-.2m0-.8c.8-.4 1.1-.8 2.1-.3v0c.34-.18.71-.32 1.1-.4 .8 0 1.4.3 2.2.8m-5.5.3c1-.3 3.3-.3 5.4.1"/><g fill="#FFF" stroke-width=".3"><path d="M292.3 160.1c.7 0 1.6-.9 3.2.3 1.1.8-1.8 1.5-1.3 1.4 -1.4.2-1.8-.5-1.9-1.2 0-.1-.2-.5 0-.5Zm8.4.8c.7-1.4 1.8-1 2.8-.8 1 .3.7.1 1.7.7 -1.2.1-.9.2-1.7.6 -.9.5-1.7.7-2.3.3 -.2-.2-.7-.5-.7-1 0 .2 0 .3.2.3Z"/><path fill="#000" d="M293.8 161.4c.4 0 .7-.4.7-.8 0-.6-.3-1-.7-1 -.5 0-.9.4-.9 1 0 .4.4.8.9.8Zm8.6.2c.4 0 .7-.4.7-1h0c0-.45-.36-.8-.8-.8 -.4 0-.7.3-.7.8 0 .6.4 1 .8 1Z"/></g><g fill="none"><use xlink:href="#e"/><use xlink:href="#f"/><use xlink:href="#g"/></g><use fill="#000" stroke-width=".3" xlink:href="#h"/><use fill="#FFF" xlink:href="#i"/><use fill="none" xlink:href="#j"/><use fill="#9B5F00" xlink:href="#k"/><use fill="#FFF" xlink:href="#l"/><use fill="#FFA54B" xlink:href="#m"/><path fill="#FFB366" d="M255.7 189.8c-.5.3-1.1-2 .4-2.9 0 0 .4-2 2-2.1 0 0 1.4-1.9 3.3-1.7 0 0 2.2-1.5 3-1.3 .9.1 3 2.1 3 2.9 .2.7 0 1.9-.5 2.4 -.6.6-1-.1-1.1-1 0 0 .4 1.6-.8 2.2 -1.2.7-1.1.2-1.2-.6 0 0-.4 1.6-1.2 1.9 -.8.3-1.3-.5-2-.5 0 0 1.1.9.4 1.5 -.7.5-1.5.3-2-.1 -.5-.5-1.2-1.9-3.3-.6Z"/><path fill="none" d="M265.7 186c-.5-1.5-2.2-3-4-2.8m2.2 4.4c-.3-.4-.4-.8-.8-1.2 -.9-1.5-2.8-1.4-4.4-1.8m2.4 4.5c-.6-.4-.8-1.2-1.4-1.5 -1-.4-2-.9-3.3-.7"/><path fill="url(#c)" d="M439.1 165.1c.7-.3.5.6.6 1 .4 1.3.4 2.7.9 3.9 .6 1.1.8 1.5 1.8 2 1.6 1 6.4 3.6 9.8 1.5l-.001 0c.25-.14.49-.31.7-.5 0 0-1.3 4.1 3 6.2l15.6 8.2s1.5 2.7.6 6.5c-.2.6-.4 1.1.2 1.5 1 .7 2.6 2.8 3.8 6 0 0 3-1.3 3-3.2 0-2-1.3-3-1.6-4.4 -.2-1.3-1-4.7-.6-5.7 .4-1.1 2.1-1.5 2.8-2 .7-.3 1.6.5 1.3 1.4 0 1-.8.8-1.6 1 0 0 1 2 .8 3.4l9.4 4.8 -1.6 2.3c-.5.7-1.5 10.2-4.2 14.6 -2.8 4.5-3.7 3.3-4.2 4l-2.1 1.8c-.6.5-3.8.9-4.5-.9v0c-.62-1.64-1.7-3.07-3.1-4.1 -2-1.6-6-5.4-6-7.2 0 0-2.3 6.8-2 12.4 0 0-8.4 1.7-16.2 1.9 -7.6 0-11.5-1.5-11.5-1.5s-1-6.4-.6-7.7c0 0-1.2 4.2-2 5.6 -1.1 1.8-2.2 5.3-4.4 5.5 -2.2.1-4-2.1-4.2-3v-6.8h-8.7s-3.8 1.5-5 1.3c-1.3-.1-1.9-1.3-.9-1.7l.4-.3v0c-.87.07-1.72.31-2.5.7h-4.3l.1-.5c.3-1.2 2.6-2.2 4.3-3 1.6-.5 3.3-1.2 4.6-1.3 1.9-.2 3.2-.1 6.2.4 .8 0 4 .4 5.8 1.3 .5.3 1 .4.8-1 -.3-1.3-1.2-5.5.3-8.3 1-1.9.9-3.5.8-5.2 -.2-1.7-1.1-5.6-1.1-7.3 0-5.7 4.4-8 8.2-9.2 4.3-1.4 7.1-2.8 7-5.3 -.2-2.7.5-7 .1-9"/><path fill="url(#d)" d="M456.3 153.6h-.001c.63 1.7 1.04 3.48 1.2 5.3 0 1.2-.5 1.4-.1 2.8 .7 2.4-.8 5-2.5 8 -.8 1.2-1.4 3-2.7 3.8 -3.4 2.1-7.5-.4-9.6-1.3v0c-.95-.43-1.68-1.22-2-2.2 -.4-1.2-.5-2.3-.8-4 0-.3 0-1.2-.6-.9 -1.3-1.4-1-2-1.6-3 -.5-1 1-2.2 2-2v0c-.66-1.91-.73-3.96-.2-5.9 .2-.6-.6-2.2.5-1.8 4.5 1.8 10 1.4 14.8 1.4 .4 0 .7-.8 1.3-.7l.3.5"/><path fill="#000" d="M456.8 155.3c.4-.4.1-2.3-.4-4.3 -.1-1-1-1.5-2-2.6s-1.6-1-2.3-1.4c-.6-.2-2-.2-2.8-.5 -.6-.3-2.2-.1-3.7.1 -2 .3-3.2.2-4.7 1s-2.8 1.8-3.3 3.3c-.4 1-1 2.5-.8 6.8 .2 4.3 1 3.5 1 3.5s1.1-1.7 1.9-.6l-.3-3.6c-.1-1.2 0-2.8.5-4.6 0 0 4.6 1.7 9 1.7 3 0 7-.3 7.1-1l.7 2.2Z"/><g fill="none"><path d="M450.4 160.1c.7 1.8.1 1.3.4 2.4m-10.2 2c0 .8-.6.6-1 .6"/><path d="M456.9 158.8c-1-.7-2.7-.2-3.5.1 -1.5.7-.7 2.3-.2 3.7 .2.7 1 1.7.5 2.4 -.4.8-.7.4-1.6.5 0-.3-.8 0-1.1 0 -.6 0-1 .4-1.5.2 -.6-.3-.5-1.2-.3-1.7m.1-4.5c0-.4-1.3-.8-2.7-.9 -2.3 0-2.5.1-4.2 1.3m11.5 9c-.4-.6-1-1-2.1-.4 0-.2-1.6-.4-1.6-.4 -.8 0-1.3.3-2.1.7m5.6.6c-1-.6-3.3-.2-5.6-.2m.2.8c1.7.5 3.5.8 5.2 0"/></g><g fill="#FFF" stroke-width=".3"><path d="M456.4 160.1c-.7 0-1-.9-3.1.3 -1.1.7 1.8 1.5 1.4 1.4 1.2.2 1.6-.5 1.7-1.2 0-.1.2-.5 0-.5Zm-8.3.8c0-.8-1.8-1-2.9-.8 -1 .3-.5.1-1.5.7 1 .1.7.2 1.6.6 .9.5 1 .9 2.3.3 .3-.1.7-.5.8-1 0 .2-.2.3-.3.3Z"/><path fill="#000" d="M455.1 161.4v0c-.45 0-.8-.36-.8-.8 0-.6.3-1 .8-1 .4 0 .7.4.7 1 0 .4-.3.8-.7.8Zm-8.7.2c-.4 0-.7-.4-.7-1 0-.5.4-.8.8-.8s.7.3.7.8c0 .6-.3 1-.8 1Z"/></g></g><g transform="matrix(-1 0 0 1 748.8 0)"><g stroke-width=".5" fill="none" stroke="#000"><use xlink:href="#e"/><use xlink:href="#f"/><use xlink:href="#g"/><use fill="#000" stroke-width=".3" xlink:href="#h"/><use fill="#FFF" xlink:href="#i"/><use xlink:href="#j"/><use fill="#9B5F00" xlink:href="#k"/><use fill="#FFF" xlink:href="#l"/><use fill="#730000" xlink:href="#m"/></g></g><g stroke-width=".5" fill="#730000" stroke="#000"><path d="M491.6 193.5c.5.2 2-2 .5-3 0 0-.5-2-2-2 0 0-1.4-2-3.4-1.7 0 0-2-1.5-2.9-1.4 -1 .2-3 2.2-3 3 -.2.5 0 1.8.5 2.4 .6.5 1-.1 1-1 0 0-.3 1.5.9 2.2 1.2.7 1.1 0 1.2-.7 0 0 .3 1.6 1.1 2 .9.2 1.4-.5 2-.5 0 0-1 .8-.3 1.3 .7.6 1.5.3 2 0 .6-.5.3-1.8 2.4-.6Z"/><path fill="none" d="M482.5 189.8c.5-1.8 2.2-3.2 4-2.9m-2 4.4c.1-.4.2-.8.5-1.2 1-1.6 3-1.6 4.6-1.9m-2.5 4.5c.6-.4.8-1.1 1.4-1.4l-.001 0c.96-.57 2.08-.82 3.2-.7"/></g><path fill="#730000" d="M482.3 186.8c-.9.7-1.8 1.8-1.9 2.2 0 .7 0 1.9.5 2.5 .6.5 1 0 1.1-.8 0 .5 0 1.5.8 2 1.3.7 1.2.1 1.3-.7 0 0 .3 1.6 1 2 .9.2 1.4-.5 2-.5 0 0-1 .8-.3 1.3 .7.6 1.5.3 2 0 .6-.5.3-1.8 2.5-.6 .2.2.8-.4 1-1.1l-7.7-5.5 -2.3-.8Z"/><path fill="none" stroke="#000" stroke-width=".5" d="M480.7 188.2c-1.5 2.6.5 4.1 1.1 2.6 -.1 2.4 1.7 2.3 2.3 1.5 .7 2.5 1.9 1.4 3 1.2 -1.3 2.3 1.4 1.6 2 1 1-1.3 1.4-.2 2-.3l1.3-1.3m-8-5.7c-1.7 1-2.5 2.2-2.6 3.7m5-2.2c-1.8 1-2.6 2.2-2.6 3.7m5.4-1.7c-1.7.9-1.8 1.7-2.5 2.8"/></g><path fill="#5AC800" d="M238.5 310.7l-.2-4.5 1.9 1.6 .4-3.4c.8-.2 2.1 1.3 2.1 1.3l-.2-3.4 2.8 3.1s-.2-2.6.8-4.2c0 0 2.2 1.9 2.2 4 0 1.9 1.8-2.6 1.8-2.6l0-.001c.53 1.66 1.06 3.33 1.6 5l1.3-1.9 1 4 2.4-3.5 1.8 4 4.2-.3 .5 2.4 1.9-2 2.4 1.5s2-.6 3.1-.6 2.4 1.4 2.4 1.4 .8-1.4 1.5-1.9 1.9.8 2.2 1.6l1.6-2.9s2 2 2.3 2.9c0 0 .3-2.4.8-3.2 .5-.7 1.2.3 1.8 1.3l1.3-4.2s1.4.3 2.3 1.9c1.1 1.5 1.1-2.4 1.1-2.4s2.4 3.2 3 5.3c0 0-16.2 5.6-27.6 4v-.001c-8.23-1.11-16.4-2.54-24.5-4.3m110.9-.5s.7-2.1 1.8-3.2c0 0 2 2.4 2 3.2l1.7-1 1.6 1.5 1.8-1.3 1.8 1.6 3.2-1.4 1.3 1.4 5-.6 1.8.8 1.8-2.3 1.6 1.8 2.7-2.6s1.3 1 1.5 1.8c0 0 2.2-1 2.7-1.8 0 0 2-.8 2.3.5 0 0 1.3-1 1.2-2 -.1-1.2 1.5-.4 2 1 0 0 .5-2.2 2-2.4 0 0 1.2 1.3.9 3.7 0 0 2.3-1.9 3.4-2.1 0 0 .5 2.6-.3 5 0 0 2.4-4 3-2.7 .1.8.7 3.5.1 5.3l2.2-1.3 .8 2.6 2.3-.5s-13.9 2.1-27 .9c-13-1.3-25.3-5.9-25.3-5.9m-9.6 9.7c.6-.4-4.4 10.3-16.5 10.9 -16.9.8-31.3-7.7-31.3-7.7s1.8-2.9 2.9-3.7c0 0 2.3 1.9 3 4.2 0 0 .4-1.5 1.2-2.9 0 0 2.9 1.4 3.4 3.2 0 0 1-1.8 1.8-2.3 .8-.6 1.6 2 1.6 3.6 0 0 1.9-2 3-2 0 0 2 1 2.6 4.3 0 0 2-1.8 2.6-1.5 0 0 2.3 1.5 1.8 3.7 -.3 1.2 2.3-1.4 5.5-2.2l2.9 2.2 3.4-4.7s2.1.8 2.1 2c0 0 1-3.7 1.8-4 .8-.5 1.8 1.1 1.8 2.2 0 0 .3-2.8 1.9-3.4 0 0 1.6 1 1.6 2.1 0 0 1.6-3.2 2.9-4Z"/><path fill="none" stroke="#060" stroke-width=".5" d="M238.5 310.7l-.2-4.5 1.9 1.6 .4-3.4c.8-.2 2.1 1.3 2.1 1.3l-.2-3.4 2.8 3.1s-.2-2.6.8-4.2c0 0 2.2 1.9 2.2 4 0 1.9 1.8-2.6 1.8-2.6l1.6 5 1.3-1.9 1 4 2.4-3.5 1.8 4 4.2-.3 .5 2.4 1.9-2 2.4 1.5s2-.6 3.1-.6 2.4 1.4 2.4 1.4 .8-1.4 1.5-1.9c.8-.5 1.9.8 2.2 1.6l1.6-2.9s2 2.1 2.3 2.9c0 0 .3-2.4.8-3.2 .5-.7 1.2.3 1.8 1.3l1.3-4.2s1.4.3 2.3 1.9c1.1 1.5 1.1-2.4 1.1-2.4s2.4 3.2 3 5.3m58.7-.8s.8-2.1 1.9-3.2c0 0 2 2.4 2 3.2l1.7-1 1.6 1.5 1.8-1.3 1.8 1.6 3.2-1.4 1.3 1.4 5-.6 1.8.8 1.8-2.2 1.6 1.7 2.7-2.6s1.2 1 1.5 1.8c0 0 2.2-1 2.7-1.8 0 0 2-.8 2.3.5 0 0 1.3-1 1.2-2 -.1-1.2 1.5-.4 2 1 0 0 .5-2.2 2-2.4 0 0 1.2 1.3.9 3.7 0 0 2.3-1.9 3.4-2 0 0 .5 2.5-.3 4.9 0 0 2.4-4 3-2.7 .1.8.7 3.5.1 5.3l2.2-1.3 .8 2.6 2.3-.5m-109.8 8s1.8-3 2.9-3.7c0 0 2.3 1.8 3.1 4.2 0 0 .3-1.6 1-3 0 0 3 1.4 3.5 3.2 0 0 1-1.8 1.9-2.3 .7-.6 1.5 2 1.5 3.6 0 0 1.9-2 3-2 0 0 2 1 2.6 4.4 0 0 2-1.9 2.6-1.6 0 0 2.4 1.6 1.8 3.7 -.3 1.2 2.3-1.4 5.5-2.1l2.9 2.1 3.4-4.7s2.1.8 2.1 2c0 0 1-3.6 1.8-4 .8-.5 1.9 1.1 1.9 2.2 0 0 .3-2.8 1.8-3.4 0 0 1.6 1 1.6 2.1 0 0 1.6-3.2 3-4"/><g fill="#FFF"><path d="M319.5 361.9c22 .2 35-7.8 42-12.6 16.8-11.2 20.3-11.6 23-11.4 3.1.3 7.7 1.3 8 4 .2 4.3-6.6 6.1-10.5 6.1 -4 0-14.5-2.6-14.5-2.6l-2.7 1.9c1.8.8 23.2 8 27.3 1.2 4.2-6.8 8.4-17.9 8.4-17.9s-4.7-8.4-15.1-8.4c-10.6 0-20.8 6.7-27.6 11.7 -6.9 5-15.5 11.8-38.3 11.8 -22.9 0-31.6-6.8-38.4-11.8 -6.9-5-17.1-11.7-27.6-11.7l-.001 0c-6.18 0-11.91 3.17-15.2 8.4 0 0 4.2 11 8.4 18 4.1 6.7 25.5-.5 27.3-1.4l-2.6-1.8s-10.4 2.6-14.4 2.6 -10.9-1.8-10.6-6c.2-2.8 4.8-3.8 8-4.1 2.7-.2 6.2.2 22.9 11.4v0c12.4 8.5 27.16 12.91 42.2 12.6"/><path d="M284.1 336s0-1.9-.3-4.6c-.4-3.5-2.4-4.4-4-3.9 -1.2.4-3.3 3-3.3 3v.1 0c-.97-.66-1.97-1.26-3-1.8v0c1.83-1.62 3.97-2.85 6.3-3.6 1 0 14.5 5.4 18.8 9.1 1 1 1.8 7 1.2 9v-.001c-5.64-1.4-10.97-3.85-15.7-7.2m-6.5 13.6s-2.9 3-3 8.3c0 6.3 4.5 6.6 7.5 6.5 3.7 0 6.6-2.1 6.5-8.9 0 0-6-2.5-11-6m77.1-13.6l.4-4.6c.4-3.5 2.4-4.4 4-3.9 1 .4 3.2 3 3.2 3v.1l3-1.8c-.7-1-5.2-3.6-6.2-3.6s-14.5 5.4-18.8 9.1c-1 1-1.8 7-1.3 9h-.001c5.64-1.38 10.97-3.82 15.7-7.2v-.1m6.5 13.7s2.9 3 3 8.3c.2 6.3-4.5 6.6-7.5 6.5 -3.6 0-6.5-2.1-6.5-8.9 0 0 6-2.5 11-6"/></g><path fill="#69F" d="M271.3 345.4s-10.4 2.6-14.3 2.6c-4 0-10.9-1.8-10.6-6 .2-2.8 4.8-3.8 8-4.1 2.3-.2 5.3 0 17 7.5m96.1 0s10.5 2.6 14.5 2.6c3.9 0 10.7-1.8 10.4-6 -.2-2.8-4.8-3.8-7.9-4.1 -2.3-.2-5.4 0-17 7.5m-83.4-9.3v0c-1.05-.75-2.09-1.52-3.1-2.3 -1.5-1.1-3-2-4.5-3.2 0 0 2.1-2.7 3.2-3 1.7-.6 3.7.3 4.1 3.8 .3 2.7.3 4.7.3 4.7m-7.1 27.6c1.8 1 3.9 1 5.1.8 3.7 0 6.6-2.1 6.5-8.9 0 0 4.5 2.3 11.8 4 0 0 1.2 1.5 1.4 4.4 .3 2.5-1.4 5.1-3.3 5 0 0-10.3-2-16.5-3 -3.7-.7-5-2.3-5-2.3m77.7-27.6l3.2-2.3 4.4-3.2s-2.1-2.7-3.2-3c-1.6-.6-3.6.3-4 3.8l-.4 4.7m7.1 27.6c-1.8 1-3.9 1-5.1.8 -3.6 0-6.5-2.1-6.5-8.9 0 0-4.5 2.3-11.7 4 0 0-1.3 1.5-1.5 4.4 -.2 2.5 1.5 5.1 3.4 5 0 0 10.3-2 16.5-3 3.6-.7 5-2.3 5-2.3"/><g stroke-width=".7" fill="none" stroke="#000"><path d="M319.5 361.9c22 .2 35-7.8 42-12.6 16.8-11.2 20.3-11.6 23-11.4 3.1.3 7.7 1.3 8 4 .2 4.3-6.6 6.1-10.5 6.1 -4 0-14.5-2.6-14.5-2.6l-2.7 1.9c1.8.8 23.2 8 27.3 1.2 4.2-6.8 8.4-17.9 8.4-17.9s-4.7-8.4-15.1-8.4c-10.6 0-20.8 6.7-27.7 11.7 -6.8 5-15.4 11.8-38.2 11.8 -22.8 0-31.6-6.8-38.4-11.8 -6.9-5-17.1-11.7-27.6-11.7s-15.2 8.4-15.2 8.4 4.2 11 8.4 18c4.1 6.7 25.5-.5 27.4-1.4l-2.7-1.8s-10.4 2.6-14.4 2.6 -10.9-1.8-10.6-6c.2-2.8 4.8-3.8 8-4.1 2.7-.2 6.2.2 22.9 11.4v0c12.4 8.5 27.16 12.91 42.2 12.6Z"/><path d="M271.3 345.4s-10.4 2.6-14.3 2.6c-4 0-10.9-1.8-10.6-6 .2-2.8 4.8-3.8 8-4.1 2.3-.2 5.3 0 17 7.5Zm96.2 0s10.5 2.6 14.5 2.6c3.9 0 10.7-1.8 10.4-6 -.2-2.8-4.8-3.8-7.9-4.1 -2.3-.2-5.4 0-17 7.5Zm-83.4-9.3v0c-1.05-.75-2.09-1.52-3.1-2.3 -1.5-1.1-3-2-4.5-3.2 0 0 2.1-2.7 3.2-3 1.7-.6 3.7.3 4.1 3.8 .3 2.8.3 4.7.3 4.7Z"/><path d="M284.1 336s0-1.9-.3-4.6c-.4-3.5-2.4-4.4-4-3.9 -1.2.4-3.3 3-3.3 3v.1 0c-.97-.66-1.97-1.26-3-1.8h0c1.83-1.62 3.97-2.85 6.3-3.6 1 0 14.5 5.4 18.8 9.1 1 1 1.8 7 1.2 9v0c-5.64-1.41-10.97-3.85-15.7-7.2m-6.5 13.6s-2.9 3-3 8.3c0 6.3 4.5 6.6 7.5 6.5 3.7 0 6.6-2.1 6.5-8.9 0 0-6-2.5-11-6Z"/><path d="M280.1 351.1s-2.3 2.5-2.7 6.5c-.2 3.1 1.8 4.9 4.5 4.7 3.7-.2 5.1-5.3 3.4-8.1l-5.2-3"/><path d="M277 363.7c1.8 1 3.9 1 5.2.8 3.6 0 6.5-2.1 6.4-8.9 0 0 4.5 2.3 11.8 4 0 0 1.2 1.5 1.4 4.5 .3 2.4-1.4 5-3.3 4.8L282 366c-3.7-.7-5-2.3-5-2.3Zm77.7-27.6l3.3-2.3c1.3-1.1 2.8-2 4.4-3.2 0 0-2.2-2.7-3.3-3 -1.6-.6-3.6.3-4 3.8l-.4 4.7Z"/><path d="M354.7 336l.4-4.6c.4-3.5 2.4-4.4 4-3.9 1 .4 3.2 3 3.2 3v.1 0c.96-.66 1.96-1.26 3-1.8 -.7-.9-5.2-3.6-6.2-3.6s-14.5 5.4-18.8 9.1c-1 1-1.8 7-1.3 9v0c5.64-1.39 10.97-3.83 15.7-7.2m6.5 13.6s2.9 3 3 8.3c.2 6.3-4.5 6.6-7.5 6.5 -3.6 0-6.5-2.1-6.5-8.9 0 0 6-2.5 11-6Z"/><path d="M358.7 351.1s2.4 2.5 2.8 6.5c.3 3.1-1.9 4.9-4.5 4.7 -3.7-.2-5.1-5.3-3.4-8.1l5.1-3"/><path d="M361.9 363.7c-2 1-4 1-5.2.8 -3.6 0-6.5-2.1-6.5-8.9 0 0-4.5 2.3-11.7 4 0 0-1.3 1.5-1.5 4.5 -.2 2.4 1.5 5 3.4 4.8l16.5-2.9c3.6-.7 5-2.3 5-2.3Z"/><path stroke="#FFF" d="M299.6 361.4s3.3 2.4-.7 5.3m-9-6.8l10 4.3m-8.3-2.1l7.2 3.1m-4.6-5l5.4 2.5m39.7-1.3s-3.3 2.4.6 5.3m9-6.8l-10 4.3m8.4-2.1l-7.2 3.1m4.6-5l-5.4 2.5"/><path fill="#000" d="M261 331.4c.2.2.2.4.3.7v0c.04.26.04.53 0 .8v0c-.15.68-.59 1.26-1.2 1.6v0c-.66.41-1.45.55-2.2.4h-.001c-.36-.09-.69-.22-1-.4v0c-.36-.16-.7-.36-1-.6l-.3.4 -.4-.1 .4-2.9 .5.1c0 .4 0 .7.2 1l.3 1 .7.6c.2.2.5.3.9.4h.7v0c.37-.05.71-.27.9-.6v0c.1-.19.16-.39.2-.6v0c.06-.34.03-.69-.1-1v0c-.17-.3-.41-.54-.7-.7h-.001c-.27-.17-.54-.34-.8-.5l-.8-.6c-.5-.3-.8-.6-1-1 -.2-.4-.2-.8-.1-1.4 0-.3.2-.6.4-.8v0c.35-.51.89-.87 1.5-1v0c.33-.06.66-.06 1 0l1 .4 .8.6 .3-.4 .5.1 -.5 2.8 -.5-.1v0c.01-.34.01-.67 0-1v0c-.1-.29-.24-.56-.4-.8v0c-.12-.27-.29-.51-.5-.7v0c-.24-.2-.51-.33-.8-.4v0c-.35-.07-.71 0-1 .2 -.4.2-.6.5-.6.8v1l.7.7 .8.5v0c.45.3.88.64 1.3 1 .2 0 .4.3.5.5m12 1.6l-.5-.1v0c-.16-.07-.33-.1-.5-.1 -.2 0-.4.1-.5.3v0c-.24.31-.44.64-.6 1l-1.8 3.1v0c-.38.72-1.09 1.21-1.9 1.3h-1.1v0c-.36-.13-.7-.29-1-.5v-.001c-.38-.22-.71-.49-1-.8v0c-.3-.29-.54-.63-.7-1h0c-.12-.33-.15-.67-.1-1h0c.01-.28.07-.56.2-.8l2.4-4.3v0c.06-.13.09-.27.1-.4v-.3h-.001c-.09-.12-.19-.22-.3-.3l-.4-.3 .2-.3 3.1 1.7 -.2.3 -.3-.1v0c-.13-.05-.27-.09-.4-.1h-.4v0c-.09.08-.16.18-.2.3l-2.2 4h-.001c-.13.22-.23.45-.3.7v0c-.07.26-.07.53-.001.8 0 .2 0 .5.2.7l.9.8 1 .3v0c.54.05 1.09-.13 1.5-.5l.5-.6 1.6-3 .5-1v-.6c0-.2-.2-.3-.4-.5v-.001c-.13-.11-.26-.21-.4-.3l.2-.4 3 1.7h0c-.07.1-.14.2-.2.3m4.3 7.5v0c.3.56.3 1.23 0 1.8v0c-.19.33-.47.61-.8.8v0c-.31.17-.65.28-1 .3l-1-.1v0c-.32-.1-.62-.24-.9-.4l-3.5-2 .2-.4 -.001 0c.25.12.52.22.8.3v0c.09.03.2.03.3 0v0c.12-.07.23-.18.3-.3l3-5.3v0c.04-.1.08-.2.1-.3v0c.01-.15-.03-.29-.1-.4l-.001 0c-.09-.12-.19-.22-.3-.3l-.3-.2 .2-.4 3.4 2 .7.5 .6.7v0c.28.49.28 1.1 0 1.6v0c-.15.24-.36.45-.6.6l-.7.3v0c-.24.03-.47.03-.7 0v0c-.28-.04-.55-.11-.8-.2v.1 0c.21.18.41.38.6.6l.5.7Zm-.6-1.8c.2 0 .4-.2.5-.3h-.001c.19-.18.36-.38.5-.6 .2-.4.3-.8.2-1.2 -.1-.3-.4-.6-.9-.9l-.4-.2 -.4-.3 -1.6 2.8 .6.4 .8.3h.7Zm-.6 2.7c.2-.4.3-.8.1-1.3 0-.4-.4-.8-1-1.1v0c-.17-.14-.34-.27-.5-.4l-.4-.1 -1.5 2.5v0c-.16.2-.16.49 0 .7 .1.2.4.4.7.5 .5.3 1 .4 1.4.3 .5-.2.8-.5 1.2-1Zm18.9 4.3v0c-.17-.02-.34-.02-.5 0v0c-.2-.08-.4-.12-.6-.1 -.1 0-.3.1-.4.4v0c-.2.31-.37.65-.5 1l-1.5 3.3c-.1.4-.4.7-.7 1v0c-.31.2-.65.33-1 .4v0c-.37.06-.74.06-1.1-.001v0c-.82-.12-1.58-.47-2.2-1v0c-.28-.23-.52-.5-.7-.8v0c-.18-.31-.29-.65-.3-1v0c-.01-.32.06-.62.2-.9l2-4.5v0c.03-.14.03-.27 0-.4v-.001c-.02-.11-.05-.21-.1-.3v0c-.09-.12-.19-.22-.3-.3l-.4-.2 .2-.4 3.3 1.4 -.2.4v0c-.14-.05-.27-.08-.4-.1v0c-.14-.02-.27-.02-.4 0h-.3l0 0c-.09.08-.16.18-.2.3l-1.9 4.3 -.2.7v0c-.09.5.06 1.01.4 1.4 .2.3.5.5 1 .7l1 .2v0c.58 0 1.13-.25 1.5-.7v0c.16-.18.29-.39.4-.6l1.3-3.1 .3-1v-.7l-.4-.4v0c-.16-.12-.33-.22-.5-.3l.2-.4 3.1 1.4 -.1.3m9.2 10.8l-3.6-1v-.4h0c.19 0 .4 0 .6 0l.4.1v0c.14-.03.28-.1.4-.2v-.001c.09-.09.16-.19.2-.3l1.7-5.8v0c-.04-.01-.07-.01-.1 0l-4.8 6h-.3l-.6-7.9 -1.5 4.8 -.2 1.1 .1.6 .5.4h0c.15.11.32.21.5.3l-.2.4 -3.2-1v-.4h.6v0c.16.04.33.04.5 0 .2 0 .3-.2.5-.4l.3-1 1.2-4.2v0c.06-.2.1-.4.1-.6v0c-.01-.14-.04-.28-.1-.4v0c-.1-.17-.24-.31-.4-.4v0c-.16-.09-.33-.16-.5-.2l.1-.4 2.8.8 .6 6.7 3.5-4.5 .3-.5h0c.07-.13.14-.27.2-.4l2.7.8 -.1.4v0c-.17-.02-.34-.02-.5 0v0c-.14-.05-.27-.08-.4-.1v0c-.11-.01-.22.02-.3.1v0c-.07.12-.1.26-.1.4l-1.7 5.8v0c-.02.09-.02.2 0 .3l.1.3v0c.24.16.51.3.8.4l-.1.4m8.7-2.6h0c.51.4.77 1.05.7 1.7l-.4 1c-.2.3-.5.4-.8.6 -.3.2-.6.2-1 .3h-1l-4-.5v-.4h.5v0c.13.01.26.01.4 0v0c.12-.03.22-.1.3-.2v0c.07-.13.1-.26.1-.4l.8-6h0c.01-.1.01-.21-.001-.3h-.001c-.07-.14-.17-.24-.3-.3v0c-.13-.09-.26-.16-.4-.2h-.3v-.5l3.9.5c.3 0 .6 0 .9.2l.7.4h0c.45.35.68.92.6 1.5l-.2.8v0c-.16.21-.37.38-.6.5v0c-.19.12-.39.22-.6.3l-.001-.001c-.26.09-.53.16-.8.2l.8.3 .7.5Zm-1.3-1.5l.4-.5 .2-.7v0c.04-.4-.06-.79-.3-1.1 -.2-.3-.6-.5-1.1-.5v0c-.34-.04-.67-.08-1-.1l-.4 3.2h.8c.3.1.6 0 .8 0v0c.22-.05.42-.15.6-.3Zm.5 2.8c0-.5 0-1-.3-1.3 -.3-.3-.8-.5-1.4-.6l-.7-.1h-.4l-.3 2.9v0c-.06.22.02.45.2.6l.8.3c.6 0 1 0 1.5-.4 .3-.3.5-.7.6-1.4Zm11.4 2.6h-2.2v0c-.45-.68-.92-1.35-1.4-2l-1.3-1.8h-1v2.7l.1.4 .3.2h.4l.5.1v.4h-3.6v-.4h.4l.4-.1v0c.08-.05.15-.12.2-.2v0c.07-.13.1-.26.1-.4v-6.4l-.3-.3v0c-.14-.02-.27-.02-.4 0l-.4-.1v-.4h4.9v0c.32.07.62.21.9.4l.6.6v0c.24.57.24 1.22 0 1.8v0c-.09.25-.23.49-.4.7v0c-.22.17-.45.3-.7.4v-.001c-.26.12-.53.22-.8.3l1 1.4c.3.4.7.8 1 1.4v-.001c.25.34.6.62 1 .8v0c.26.06.53.1.8.1v.4Zm-3.1-6.2c0-.5-.2-1-.4-1.2 -.3-.3-.8-.5-1.3-.5h-1v3.6h.8c.5 0 1-.1 1.3-.5 .4-.3.6-.8.6-1.4Zm13 5.6l-3.6.3v-.4l.7-.2c.2 0 .3-.2.3-.2v-.2 0c0-.04 0-.07 0-.1l-.9-1.8 -3 .2v0c-.08.23-.15.46-.2.7l-.1.6v0c-.05.13-.08.26-.1.4v.3c0 .2.1.3.4.3l.9.1v.4l-3.2.3v-.4 0c.13-.02.27-.06.4-.1v0c.29-.11.54-.33.7-.6l.2-.5 1.1-3.6 1.1-3.6h.5l3.4 7 .2.3v0c.18.21.42.35.7.4h.4v.4Zm-3.7-3.1l-1.6-3.2 -1 3.4 2.6-.2Zm15.7-6.7v0c-.14.06-.27.13-.4.2v0c-.21-.35-.48-.66-.8-.9 -.4-.2-.7-.4-1-.3v0c-.1-.01-.21-.01-.3 0l-.6.2 -1.4.4 .9 3.2 1-.2 .6-.3 .3-.4 .1-.4v-.6l.4-.2 .9 3.2 -.4.1v-.001c-.09-.18-.19-.35-.3-.5l-.4-.4v0c-.15-.12-.32-.19-.5-.2v0c-.21 0-.41.04-.6.1l-1 .3 .8 2.8s0 .2.2.3v0c.07.09.18.16.3.2h.4l.4-.1 .1.4 -3.5 1 -.1-.4v0c.13-.07.26-.14.4-.2l.4-.2v0c.1-.08.17-.18.2-.3v0c.01-.1.01-.21 0-.3l-1.6-5.9v0c-.05-.12-.12-.22-.2-.3l-.3-.2h0c-.14-.02-.27-.02-.4 0h0c-.17-.02-.34-.02-.5 0l-.1-.3 6.4-1.8 .6 2m9.4-.7l1 2.4 -6 2.8 -.2-.3 .4-.3v0c.1-.06.2-.13.3-.2v0c.06-.09.1-.2.1-.3v0c.03-.14.03-.27 0-.4l-2.7-5.4v0c-.05-.12-.12-.22-.2-.3v0c-.13-.06-.28-.06-.4 0h-.4v0c-.14-.02-.27-.02-.4 0l-.2-.3 3.3-1.6 .2.4v0c-.14.05-.28.12-.4.2v0c-.11.09-.21.19-.3.3v0c-.12.06-.19.17-.2.3v0c-.01.13.03.27.1.4l2.5 5c0 .3.2.5.3.6l.3.2h.4l.7-.3 .4-.2 .4-.3 .3-.2v0c.09-.08.16-.19.2-.3v-.001c.17-.66.24-1.33.2-2l.3-.2m4.5-8.3v0c.54.16 1.05.43 1.5.8l1.2 1.4v0c.3.52.5 1.1.6 1.7v0c.1.52.1 1.07 0 1.6v0c-.13.54-.37 1.05-.7 1.5v0c-.34.4-.74.74-1.2 1v0c-.97.57-2.13.72-3.2.4v0c-.51-.14-.99-.38-1.4-.7v0c-.49-.39-.9-.87-1.2-1.4v0c-.31-.53-.51-1.11-.6-1.7v-.001c-.12-.57-.12-1.14 0-1.7v0c.31-1.04 1.03-1.91 2-2.4v0c.45-.3.96-.51 1.5-.6v0c.5-.07 1.01-.04 1.5.1Zm2.3 5.6v0c0-.45-.07-.89-.2-1.3v0c-.19-.5-.42-.97-.7-1.4v0c-.29-.48-.62-.91-1-1.3v0c-.29-.32-.63-.59-1-.8v-.001c-.32-.14-.66-.21-1-.2 -.5 0-.8.1-1.2.3 -.4.3-.7.6-.9 1v0c-.17.3-.27.64-.3 1 0 .5.1.9.3 1.3h0c.31.96.82 1.84 1.5 2.6 .3.4.7.6 1 .8l-.001 0c.36.2.78.3 1.2.3 .3 0 .7 0 1.1-.3h-.001c.73-.4 1.19-1.17 1.2-2Zm10.5-5.7l-1.9 1.3 -2.3-.9 -2-.6 -.8.5 1.6 2.1 .2.3h.4v0c.1-.03.2-.06.3-.1l.4-.3 .3.4 -3 2 -.2-.3v0c.2-.16.4-.33.6-.5v0c.05-.13.05-.28 0-.4v0c.02-.1.02-.21 0-.3l-3.6-5v0c-.06-.08-.13-.15-.2-.2v0c-.12-.11-.29-.11-.4 0v-.001c-.25.06-.49.17-.7.3l-.3-.4 3.2-2.2v0c.28-.2.58-.37.9-.5v0c.28-.12.59-.19.9-.2l.8.1h-.001c.54.29.94.79 1.1 1.4v.8 0c-.04.24-.1.47-.2.7v0c-.15.28-.31.55-.5.8l1.6.5 1.6.5v0c.38.13.79.16 1.2.1h.4v0c.14-.09.27-.19.4-.3l.2.4Zm-6.2-3.3c-.3-.4-.6-.6-1-.7 -.4-.1-.9 0-1.3.3l-.8.6 2 3 .7-.5c.4-.3.7-.7.8-1.2 0-.5 0-1-.4-1.5Zm13.2-2l.7 2.4 -6.6 2.4 -.2-.4v0c.27-.11.54-.24.8-.4v0c.09-.08.16-.19.2-.3v0c.03-.14.03-.27 0-.4l-2.2-5.6v0c-.02-.11-.06-.21-.1-.3l-.4-.1h-.4v0c-.17-.02-.34-.02-.5 0l-.1-.3 6.1-2.3 .7 1.9 -.4.1v0c-.22-.29-.49-.53-.8-.7l-.9-.3 -.001 0c-.14.05-.28.12-.4.2l-.6.2 -1.2.4 1.1 3.1 1-.3c.2 0 .4-.2.5-.3v0c.13-.11.23-.25.3-.4v-1.1l.4-.1 1.1 3 -.4.2v0c-.09-.18-.19-.35-.3-.5v0c-.12-.13-.26-.23-.4-.3v0c-.15-.12-.32-.19-.5-.2 -.2 0-.4 0-.6.2l-.9.3 .9 2.4 .2.5h-.001c.05.13.16.24.3.3h.5l.7-.3 .5-.2v0c.35-.09.68-.23 1-.4l.2-.3 .2-1v-1l.5-.1m7.1-5.8c.4.3.8.7 1 1.3 .3.5.5 1 .6 1.7v-.001c.11.59.11 1.2 0 1.8v0c-.16.55-.44 1.06-.8 1.5v0c-.64.88-1.62 1.46-2.7 1.6v0c-1.09.13-2.17-.2-3-.9v0c-.41-.34-.75-.74-1-1.2v0c-.31-.53-.51-1.11-.6-1.7v0c-.13-.63-.13-1.28 0-1.9l.8-1.5v0c.66-.85 1.63-1.39 2.7-1.5v0c.52-.11 1.07-.11 1.6 0l1.4.8Zm-.1 6c.2-.4.3-.8.3-1.3v-1.5 0c-.08-.52-.22-1.02-.4-1.5v0c-.16-.44-.4-.85-.7-1.2v0c-.24-.31-.55-.55-.9-.7l0 0c-.36-.13-.74-.16-1.1-.1 -.5 0-1 .2-1.2.5 -.3.2-.6.6-.7 1v0c-.17.38-.27.78-.3 1.2v0c-.09 1.01.04 2.04.4 3l.7 1.1c.2.4.5.6.9.7 .3.2.7.2 1.2.2v0c.36-.09.71-.26 1-.5v0c.35-.26.62-.61.8-1Z"/><path stroke-width="1" d="M366 205.1v53c0 10.6-1.4 52.6-46.5 69 -45.3-16.4-46.7-58.4-46.7-69v-53H366"/></g></svg>