<svg viewBox="0 0 640 480" xmlns="http://www.w3.org/2000/svg" xmlns:xlink="http://www.w3.org/1999/xlink"><defs><path d="M0-360l69.4 215.8 212-80.3L156-35.6 351 80.1 125 99.8l31.1 224.6L0 160l-156.2 164.3 31.1-224.5L-351 80l195-115.7 -125.5-188.9 212 80.3Z" id="a"/></defs><path fill="#008000" d="M0 0h640v480H0Z"/><path fill="#FFE000" d="M320 173.3a66.7 66.7 0 1 0 0 133.4 66.7 66.7 0 1 0 0-133.4Z"/><path fill="#008000" d="M340.8 185.1a54.9 54.9 0 1 0 0 109.8 54.9 54.9 0 1 0 0-109.8Z"/><path fill="#FFE000" d="M109.8 103.5a69.8 69.8 0 1 0 0 139.6 69.8 69.8 0 1 0 0-139.6Z"/><path fill="#802000" stroke="#7B3100" stroke-width="1.5" d="M105 226h17.5s.7-1.6-.2-2.4c-1-.8-4.7-1-3.7-3.8 2-5.8 2.4-4 3.7-17.8h-.001c.95-11.82 1.61-23.66 2-35.5h-2.6s.5 6.7-1 15.5c-1.4 8.8-1.9 9.5-3.5 16.3v0c-.76 3.82-1.86 7.57-3.3 11.2 -1.4 4-1.6 4.1-3.8 7.8 -2.3 3.6-1.5 2.2-2.7 4.4 -.7 1.1-1.4.8-1.9 1.6 -.4.8-.5 2.7-.5 2.7Z"/><path fill="#008000" d="M118.3 122.5v0c.22 3.11-.18 6.24-1.2 9.2h0c-1.39 3.08-2.17 6.41-2.3 9.8 -1.8.6-3.7-3.9-5.5-1.2 1.3 3.7 4.4 6.6 6.4 9.9 .4 1 3.4 3.7 1.6 4.3 -4.3-1.5-5.4-7-8-10.3h0c-3.1-5.79-8.96-9.57-15.5-10 -2.5.1-10.4-.5-8.4 3.7 3 2 6.8 3.4 9.8 5.7 2.3.2 6.3 4 6.1 5.4 -4-1.6-5.8-3.5-10-5.2 -5.8-2.2-13.7-.9-17 4.8 -.5 1.5-1.4 5.8.5 6.3 2.2-3.4 5.3-7.3 9.9-6.2 3.6.3-4 6.7-1.1 5.4 1-.4 3-1.8 4.6-2 1.5 0 2.3 1 3.4 1.2 2.3.3 3 1.2 2.7 1.8 -.2.6-1 0-3.3.8 -1.1.4-1.7 1.4-3 1.9 -1.4.4-4.2.5-5.2 0 -3.7-1.5-9.7-1.3-10.8 3.3 0 2-1.8-.2-2.6.7 -.7 2.2-.8 4.4-4 4.2 -2 2-4 4.2-6.6 5.7 1.5 3.4 7.3-3.4 7-.5 -2.5 3.5 1.4 4.2 3 1.5 2.9-3 6.5-6.7 10.7-3.6 2 1.9 3.2-1 4.7-1 1 2.5 2.1.2 3.2-.5 1.7-.2 1.2 2.2 3.2.7 4.1-2.7 9.1-.4 13.1-3 4.3-2 .6 1.5-.5 2.9 -1.9 3.6-.3 8.4-4.3 10.6 -1.7 4.3 1.9 10-1.7 13.2 -.5 2 4.6 1.8 6 2.6 2.6 0 0-5.8 2.5-6.6 3.4 2 3.2-3.8 2.5-5.6 .4-4 .6-8.6 2.6-12.3 2.2-4.5 4.2 1.9 1.8 3.7 -1.4 4.1-3.4 9.4-.3 13.3 1 .2 1.7 2.4 2.8 3 1.2.7 2.8-.1 3-2.1 1.6-6 .8-12.4 3-18.3 1.5-1.8 3.6-.3 4.5 1.4 3 3.5 5.1 7.8 8.7 10.7v0c3.4 1.39 6.18 3.99 7.8 7.3 0 2.6 7.4 3 5.2 0 -2.1-2.7-.7-5.6 1.4-7.5 1.2.3.9-1.8 0-1 -1.5-.3-1.6-3 .4-1.7 3.5 1.1-.2-2.5-1.5-2.6 -2.9-1.8-6.2-3.8-7.6-7 3.8 0 7.7 2.1 11.5.9 3.1-1.6 6.2 0 7.3 2.8 2.4-.4 1.4-2.8 0-3.6 1.7-.7 3-2.2.8-3.5 -1-1.4 1.5-4-1.7-3.8 .1-2.5-.8-4.7-3.5-5.6 -2.7-2.2-10.6 3.4-10.3-1.7 -.8-2.8 3.2-.4 4.3-1.8 1.1-3-5.5-2.6-3.3-5 1.4-.8 8.1-2.1 2.9-3.1v0c-2.39.69-4.95.29-7-1.1 -1.9 3.1-7.2-1.8-6.3 3.8 -.7 2.1-5.5 7.6-6.8 3.4 1-3.3 6.8-4.3 5-8.8 -.3-2.7-2.6.5-3.6.3 -.6-1.7 1.6-3.8 3.2-4.2 3 2.4 3-3 6-2.5 2.1-.5-.7-1.4-1.3-1.8 .6-1.5 3.9-2.3.7-3.7 -2.9-2-5 2.1-7.3 2.3 -2.2-2.5 2-3.7 3.2-5 .1-1-2.4-.3-1.7-1.2 .7-1.1 5.2-1.2 3-3v0c-3.37-1.03-6.99-.82-10.2.6 -2 .6-2.5 5-4.2 4.8 -.7-2 .3-5.8-2.4-6.3Zm15 42.3c2.4-.4 0 3.7-1 3.6 0-1.4-3.6-1.3-1.3-2.6v0c.7-.47 1.48-.81 2.3-1Z"/><g transform="matrix(.0635 0 0 .0635 0 80)"><g fill="#FFE000"><use xlink:href="#a" x="7560" y="4200"/><use xlink:href="#a" x="6300" y="2205"/><use xlink:href="#a" x="7560" y="840"/><use xlink:href="#a" x="8680" y="1869"/><path d="M0-210L54.9-75.5l144.8 10.6 -111 93.8 34.7 141L0 93.3 -123.4 170l34.6-141 -111-93.8 145-10.6Z" transform="translate(8064 2730)"/></g></g></svg>