<svg viewBox="0 0 640 480" xmlns="http://www.w3.org/2000/svg" xmlns:xlink="http://www.w3.org/1999/xlink"><defs><path d="M307.8 398.6v-.001c-.08-.06-.15-.13-.2-.2h-.1l-1.3-1.4 -3.8-4.5 -4.9-6.3 -.6-.9 -6.2-1.9 -4.6-2.1 2.4-2.7 8.4 3.5 6.2 1.3 11.5 8.5 -3.3 2.9v0c-1.18 1.09-2.28 2.26-3.3 3.5l.7-.5 .8.6 -1.6.2Zm-42.6-12.8v0c-5.64-.06-11.17-1.61-16-4.5 0 0 .7-1.3 2.3-2.4 1.6-1.2 4.4-2.5 9-2.6 5.4 0 12 1.9 19.5 5.4v0c-4.49 2.64-9.6 4.02-14.8 4Zm-23.5-5.2c-1 0-2-.4-2.6-1h0c-.57-.7-.95-1.52-1.1-2.4v0c-.27-1.12-.37-2.26-.3-3.4v0c.41-.15.85-.22 1.3-.2 2 0 3.6 1.7 4.3 3.4 .4 1 .5 1.8.2 2.5 -.2.6-1 1-1.8 1Zm41.3-4.8c-13.9-2-19.8-7-22.3-10.9 -2.6-4.1-2-8-2-8s.8-.2 2-.2c3.8 0 13.2 1.9 22.3 19Zm-28.5-2.8c-5.9 0-10.4-1-13.4-3v0c-1.29-.81-2.32-1.95-3-3.3v0c-.22-.51-.35-1.05-.4-1.6v0c2.28-.96 4.72-1.43 7.2-1.4l0-.001c7.2.25 14.01 3.39 18.9 8.7 -3.4.4-6.5.6-9.3.6Zm-28.7-1c-6.2 0-14.8-2-20.2-7.3 0 0 5.9-1.5 12.4-1.7h1.2c5.9 0 10.4 1.1 13.4 3.4 1 .8 1.6 1.5 1.7 2.2 .1.6-.2 1.2-.8 1.7 -1.4 1-3.8 1.6-7.2 1.6h-.5Zm-20.3-10.5v0c-.79-.02-1.52-.39-2-1v0c-.42-.6-.7-1.29-.8-2 -.3-1.4-.2-2.8-.2-2.9l-.001-.001c.31-.14.65-.21 1-.2 .9 0 1.6.5 2 1v0c.6.55 1.08 1.23 1.4 2 .2.9.3 1.6 0 2.2 0 .4-.6 1-1.3 1Zm46.9-1c-1 0-2-.4-2.6-1l-.001-.001c-.57-.7-.95-1.52-1.1-2.4h-.001c-.27-1.12-.37-2.26-.3-3.4h-.001c.41-.15.85-.22 1.3-.2 2 0 3.7 1.7 4.3 3.4 .4 1 .5 1.8.3 2.5 -.3.6-1 1-2 1Zm-22.8-1c-12.6-.4-19.2-4-22.4-7v0c-1.4-1.21-2.55-2.67-3.4-4.3 -.5-1-.7-1.8-.7-2 0-.2 1.2-.4 3-.4h.4c4.2 0 12.9 1.8 23 13.7Zm13.6-1.2v-.001c-7.2-.79-13.89-4.08-18.9-9.3v0c-1.85-2.02-3.25-4.41-4.1-7 0 0 1.2-.3 3-.4v0c.33-.02.66-.02 1 0 5 .1 14.3 2.4 19 16.7Zm-52-5h0c-3.2.02-6.39-.31-9.5-1 -5.3-1.4-7.6-3.4-8.6-4.9v0c-.41-.61-.69-1.29-.8-2v0c-.04-.27-.04-.54-.001-.8 0 0 3.5-1 8.4-1.1v0c2.48-.07 4.96.13 7.4.6v0c5.1 1.07 9.64 3.95 12.8 8.1 0 0-4 1.2-9.7 1.2Zm23.5-8.4v0c-.94.02-1.84-.34-2.5-1h0c-.57-.7-.95-1.52-1.1-2.4 -.4-1.6-.3-3.2-.3-3.4l0 0c.37-.18.78-.28 1.2-.3h.1c2 0 3.6 1.8 4.3 3.5 .4 1 .4 1.8.2 2.4 -.3.7-1 1.1-1.9 1.1Zm-17.6-2.5v0c-3.38-.96-6.61-2.38-9.6-4.2 -4.4-2.7-9.9-7.5-10.5-15l1-.1h.3c1.3 0 4 .3 7.3 2.8 4.2 3.2 8 8.8 11.5 16.5Zm11.5-.4v-.001c-2.76-1.26-5.32-2.91-7.6-4.9h-.001c-5.86-5.06-10.42-11.43-13.3-18.6 0 0 .9-.5 2.3-.6v0c.06-.01.13-.01.2 0h.4c2 0 4.9.9 8.1 4.4 3.8 4 7.1 10.6 10 19.7Zm-29.9-.9c-3.9 0-5.2-2-5.6-3h-.001c-.39-.95-.53-1.99-.4-3h0c.65-.15 1.32-.22 2-.2v0c2.51-.08 4.92 1.03 6.5 3 .2.4.8 1.4.3 2.3 -.4.6-1.3 1-2.8 1Zm-8.5-10.8v0c-3.02.03-6.03-.21-9-.7 -3.4-.6-5.3-3.5-6.4-5.9 -1-2.5-1.4-5-1.4-5 10.6.3 15.7 3.4 18 6v0c1.45 1.49 2.36 3.42 2.6 5.5 0 0-1.6.2-3.8.2Zm11-11h0c-.86-1.1-1.66-2.23-2.4-3.4 -1.3-2-2.4-4-2.4-5.6 0-1.7-.4-5-.6-7l-.6-4.5c.3 0 6.6 2.4 6.6 8.4s-.6 12-.6 12v.1Zm-8.2-.6h-.2 0c-6.86-2.06-13.11-5.77-18.2-10.8 -1.7-2-2.8-5.2-3.1-9.4 -.2-3 0-5.5 0-5.8v0c.35-.1.73-.13 1.1-.1 1.4 0 3 .6 5 2h-.001c1.85 1.31 3.59 2.78 5.2 4.4 3.2 3.2 5.7 6.4 5.7 6.4 .3.4 2 3.7 3.5 6.9h0c.7 1.46 1.23 3.01 1.6 4.6 .1.6.2 1 0 1.4v0c-.05.16-.16.3-.3.4v0c-.14.03-.27.03-.4 0Z" id="a"/></defs><path fill="#FFF" d="M0 0h640v480H0Z"/><g fill="#435125"><use xlink:href="#a"/><use transform="matrix(-1 0 0 1 593.7 0)" xlink:href="#a"/></g><path fill="#D47600" d="M519 76.4l-1.8.7 -.8.3 -2.2-.1 -2.2 1 -3.8 2.6 -.1.1 -1.5.4 -1.3-.6 -.7.4 -.3 1.5 -.7 1.1 -.9.6 -3 .3 -2.5 1.4 -3.4-1 -1.5.7 -3.3 3 -1.7.7h-.5l-2.3-.1 -.9.3 -1.4 1.3 -2.6.2 -.9.6 -1.3 2.6L476 96l-.8.1 -.8-.3 -.7.1 -.3 1.7 -.6.7 -1.8.6 -1.4 1.2 -1.3.6h-2l-1.7 1 -3.1.2 -1.3 1.2 -.3.3 -.6.3 -1 .6 -.2.2 -1.2-.2 -1.4.5 -.6-.8 -1 .5 -1.2.1 -1.6-.7 -1.3-.6 -.9.2 -.3 1.5v.2l-1 1.2 -1.7 1.1 -.2.3 -2 2.6 -3.8 4 -3.2 1.6 -3.3 1 -2.3 1.9 -6 3 -9.7 4.8 -2 .6 -2.8.4 -5 1.9 -4.4 1.3 -.3.1 -.8.3 -6.3 1.9 -2.9-.4 -1.7.7 -4.5-.5h-3.1l-2 .4 -3.7 1.8 -6.3 3 -2 2 -3.2 1.6 -3.8 1.2v-1.6l-1.3.4 -1 .3 -3 .4h-1.7l-1.1-.3h-.2l-6.2 2.1 -7 .7 -3.5 1.1H333l-1.6.5 -3.2.4 -1.2-.3 -.2-.1 -9.4.4 -4.3-.5 -2 .5 -3.5-1.2 -5-.6 -1.2-.3 -2.6-.8 -1.2.7 -1 .1 -2-.8h-.8l-1.8.6 -1-.2 -1-.8 -2.1-.3 -1.4-1.1 -7.5 1 -2-.6 -6.9-2h-1l-1.4 1 -2 .8 -1.9.4 -2.4.1 -2.8-.7 -2.8-1.4 -1.1-.3 -2.4.3h-.7l-4.4-2.3 -5.6-3.5 -3.8-1.9 -1.5-.2 -.2.7 .7 2.2 .3 2.3v2l-.1 1.3 .3 1.1 1.4 1.6 .6 1.5 .4 4.2v4.3l-.7 6.8 -.2 1 -.8 3.6 -.7 3.3 -2.9 8.7 -.7 1 -2 1.3 -4.3 3 -3.2 1.8 -1 .4 -2.6.2H219l-2-1.1 -2-.5 -2.6-1.9 -2.8-.6 -3.2-1.8 -.8-1 -1.7-.2 -2.4-.7 -.9-.3 -.6-.1 -3-.1 -2.9-1.3 -1.5-.4h-2l-2.1 1 -1.1.4 -1.4-.5h-1l-1 1.7 -.2.3 -.8.4h-1.7l-.8.3 -1.1.5 -1 .4 -.5.2h-.3l-.5.2h-.6l-1.2-.6 -.6-.3 -1-.2 -.5.3 -.1 1.9 -.5 1.1 -1.6 1.4 -1.6 1.4 -1 1.6 -3 6.7 -1.9 2.7 -.5.7 -2 2.1 -1.7 1.3 -3.9 3 -3.7 1.5 -3.2.6h-1.6l-3-.4 -2.6-.8 -3-1.8 -3.1-2.6 -4.7-4.5 -.6-.4 -.2-.1 -1.4-1h-1.1l-.4.8 -.3 1 -.2.9 -.5 5v.3l.3 2.1 3.6 5 1 2.6 .2.3 .7 1.2 .6 1 1.3 3.6 -.9 2 .4 1.4 -1 .8 -.2 1.2 3.1 4 .7 1.7 -.7 2.4 -1.3 1.4 -.3.3 .2 1 1.4 1.4 2.5 2.2 1.3 3.2 1 1 1.2-.3 .6.5h1l1 1 .6.2 1 .5 .8 1 .1 3.2 1.5 3.8v2.5l1 1.5 .2 1.2 -.5 3.3 1.2 1 1.2-.2 .8.1 1.3 1.1 1.6 2.4 1.6-.2 1 .4 4.7 4.3 1 .6 .9.4 1 1 1.4-1h.2l1.6-.2 .7.5 1.4.9h1.7l4 1.2 1.6.4 3.4 2.1 1.5.9 .8.7 1.2 1 2.2 1 2 .4 1 .2 .9.3 4.2 1.7 2.3.5 2 .8 1.6.5h1.2l1.6-1.3h1.5l1.3.2 1.3-.2 2-1.2 .3-.6 1.4-.6 4.8-.6 1.4.4 3.6-1.5 2.4.6 2-.7 4.7 1 1.2.9 1.4 1.5h1.7l-.7 1.1 2 2.2 1.9 2.7 .1.4 1.3 3.9 1 1.4 .7 1.9v1.2l-1 .9 -.2.4v.2l.2.5 .4-.2 .7-.4 1-.2 1.6.2 1.1.1 1.7-.8 1.2-.6 1.8.8h2l.9.3 2.4 1.1 1.2.1 .4-.3 .3-.6 -.1-.8 -1-1.1 -2-2.4 -.8-1.2 -.6-1.7 -.2-2.2 -.2-1.5 .3-2 .5-.7 .4-1.6 .1-.4 1.2-1.5 3-2 3.2-2.8 2.5-1.7 2.6-1.1v-.3l.4.1 6.6-2.3 3-.5 20 1.4 .7-.2 .7-1.9 .3-.3 .3-.2 2.2-1 1-.2 2.8.7 1.2.3 1.9-1h1.3l2.7-1.5h1.7l.7-.2 3.3-2.4 3.1-.9 .8-.4 .3-.2 3.3-1.7 2-1.6 1.8-1 2-.4 5-.4 1.1-1.7 2.2-.3 1.3-1.5 1.5-.6 1.1-1.6 1-1.3 1.2-.7 4.1-.3 4.8.6 .7-.4 1-3.9 1.2-.7 3-4.5v-1.6l.1-1.4 .5-2 -.3-3.4 .4-3.6 1.9-4.5 1.7-1.8 2.7-1.9 1.4-.6 2-.3h.2l.5-.2h9.2l2.3-.1 5.7 1h.4l1.9.7 2.2 1.7 2.4 2.3 .4.4 1.5.7 .5.2 1.2-.2 1.8-1 1.4-1 1.8-1v-.2l1.1-1.5 .4-.7 3.6-1.4 4.2-.2 .5-.3h.2l1.1-1.4h1l2.6 1 1.7-.4 1.4.5 1.1-.1 2-.3 2.3 1.6 1.3.2 4.5 2.6h.4l.2.1 .5-.2 .8-.2h.1l.1.1 .6.7 .7.1 .8-1 -.3-.6 -.1-.2 -1.7-.3 -1.4-2.5 1.4-1.5 -2.2-2.6 -.4-.5v-.1l-.8-1.2 -3.8-5.8 -5-4 -1.7-1.3 -.6-.5 -2.7-2.7 -1.9-2.5 -.2-.5 -.4-.9 -1.1-2.4 -2-1.5 -1.6-1.8 -3.4-4.6 -.5-.7 -.8-.5h-1.7l-.1-.2h-.1v-.1l.8-.8 1-.2 .3-.9 -1.7-4.9v-.2l-.1-1.5 1.3-7.1 .2-.9 2.4-4.7 1.4-1.2 1.6-3.1 1.4-2 1.3-1.3 .2-.1 2.3-1.4 2-.3 1.9-.3 3.3 1h3l.7-.1 1.4-.2 2.3-.7 1.1-.7 .6-.8 1.2-4 .4-1.3 .7-1.4 4.3-4.9 3.2-3 7.2-5.2 3.5-2.1 1.8-1.1 16.1-7.2 4.2-4.2 2.2-2.2 3.8-2.6 4.5-1.9 4-3 .8-1.1 1-3.5 1-.2 .7-1.7 .3-.5 3.1-2.2 .4-.2 12.3-6.2 1.8.3 1-1.5 3.5-.6h.7l.9-.5 .7-1.3v-.3l.1-3.4 .8-.9 .4-2.2 .4-.6 .4-.5 1-.7 -.2-.4Z"/></svg>