<svg viewBox="0 0 640 480" xmlns="http://www.w3.org/2000/svg" xmlns:xlink="http://www.w3.org/1999/xlink"><defs><path d="M0-1v1h.5" id="a"/></defs><path fill="#CE1126" d="M0 0h640v480H0Z"/><path fill="#007A5E" d="M67.2 67.2h505.6v345.6H67.2Z"/><path fill="#FCD116" d="M67.2 67.3h505.6L67.2 412.9h505.6Z"/><path fill="#CE1126" d="M319.9 182.5a57.6 57.6 0 1 0 0 115.2 57.6 57.6 0 1 0 0-115.2Z"/><g transform="matrix(52.8 0 0 52.8 320 240)"><use fill="#FCD116" transform="rotate(18 0-1)" xlink:href="#a"/><g transform="scale(-1 1)"><use fill="#FCD116" transform="rotate(18 0-1)" xlink:href="#a"/></g><g transform="rotate(72)"><use fill="#FCD116" transform="rotate(18 0-1)" xlink:href="#a"/><g transform="scale(-1 1)"><use fill="#FCD116" transform="rotate(18 0-1)" xlink:href="#a"/></g></g><g transform="rotate(144)"><use fill="#FCD116" transform="rotate(18 0-1)" xlink:href="#a"/><g transform="scale(-1 1)"><use fill="#FCD116" transform="rotate(18 0-1)" xlink:href="#a"/></g></g><g transform="scale(-1) rotate(36)"><use fill="#FCD116" transform="rotate(18 0-1)" xlink:href="#a"/><g transform="scale(-1 1)"><use fill="#FCD116" transform="rotate(18 0-1)" xlink:href="#a"/></g></g><g transform="rotate(-72)"><use fill="#FCD116" transform="rotate(18 0-1)" xlink:href="#a"/><g transform="scale(-1 1)"><use fill="#FCD116" transform="rotate(18 0-1)" xlink:href="#a"/></g></g></g><g transform="translate(-130.3 0)"><g transform="matrix(31.2 0 0 31.2 320 33.6)"><use fill="#FCD116" transform="rotate(18 0-1)" xlink:href="#a"/><g transform="scale(-1 1)"><use fill="#FCD116" transform="rotate(18 0-1)" xlink:href="#a"/></g><g transform="rotate(72)"><use fill="#FCD116" transform="rotate(18 0-1)" xlink:href="#a"/><g transform="scale(-1 1)"><use fill="#FCD116" transform="rotate(18 0-1)" xlink:href="#a"/></g></g><g transform="rotate(144)"><use fill="#FCD116" transform="rotate(18 0-1)" xlink:href="#a"/><g transform="scale(-1 1)"><use fill="#FCD116" transform="rotate(18 0-1)" xlink:href="#a"/></g></g><g transform="scale(-1) rotate(36)"><use fill="#FCD116" transform="rotate(18 0-1)" xlink:href="#a"/><g transform="scale(-1 1)"><use fill="#FCD116" transform="rotate(18 0-1)" xlink:href="#a"/></g></g><g transform="rotate(-72)"><use fill="#FCD116" transform="rotate(18 0-1)" xlink:href="#a"/><g transform="scale(-1 1)"><use fill="#FCD116" transform="rotate(18 0-1)" xlink:href="#a"/></g></g></g></g><g transform="matrix(31.2 0 0 31.2 320 33.6)"><use fill="#FCD116" transform="rotate(18 0-1)" xlink:href="#a"/><g transform="scale(-1 1)"><use fill="#FCD116" transform="rotate(18 0-1)" xlink:href="#a"/></g><g transform="rotate(72)"><use fill="#FCD116" transform="rotate(18 0-1)" xlink:href="#a"/><g transform="scale(-1 1)"><use fill="#FCD116" transform="rotate(18 0-1)" xlink:href="#a"/></g></g><g transform="rotate(144)"><use fill="#FCD116" transform="rotate(18 0-1)" xlink:href="#a"/><g transform="scale(-1 1)"><use fill="#FCD116" transform="rotate(18 0-1)" xlink:href="#a"/></g></g><g transform="scale(-1) rotate(36)"><use fill="#FCD116" transform="rotate(18 0-1)" xlink:href="#a"/><g transform="scale(-1 1)"><use fill="#FCD116" transform="rotate(18 0-1)" xlink:href="#a"/></g></g><g transform="rotate(-72)"><use fill="#FCD116" transform="rotate(18 0-1)" xlink:href="#a"/><g transform="scale(-1 1)"><use fill="#FCD116" transform="rotate(18 0-1)" xlink:href="#a"/></g></g></g><g transform="translate(130.3 0)"><g transform="matrix(31.2 0 0 31.2 320 33.6)"><use fill="#FCD116" transform="rotate(18 0-1)" xlink:href="#a"/><g transform="scale(-1 1)"><use fill="#FCD116" transform="rotate(18 0-1)" xlink:href="#a"/></g><g transform="rotate(72)"><use fill="#FCD116" transform="rotate(18 0-1)" xlink:href="#a"/><g transform="scale(-1 1)"><use fill="#FCD116" transform="rotate(18 0-1)" xlink:href="#a"/></g></g><g transform="rotate(144)"><use fill="#FCD116" transform="rotate(18 0-1)" xlink:href="#a"/><g transform="scale(-1 1)"><use fill="#FCD116" transform="rotate(18 0-1)" xlink:href="#a"/></g></g><g transform="scale(-1) rotate(36)"><use fill="#FCD116" transform="rotate(18 0-1)" xlink:href="#a"/><g transform="scale(-1 1)"><use fill="#FCD116" transform="rotate(18 0-1)" xlink:href="#a"/></g></g><g transform="rotate(-72)"><use fill="#FCD116" transform="rotate(18 0-1)" xlink:href="#a"/><g transform="scale(-1 1)"><use fill="#FCD116" transform="rotate(18 0-1)" xlink:href="#a"/></g></g></g></g><path fill="#CE1126" d="M102.3 240.7h0c7.59 14.16 19.26 25.73 33.5 33.2v0c-.56-15.63-4.41-30.97-11.3-45l-22.2 11.8Z"/><path fill="#FCD116" d="M90.1 194.7c10.4 21.7-27.1 73.7 35.5 85.9v0c-8.46-12.25-12.32-27.09-10.9-41.9l-.001 0c13.91 6.43 25.33 17.25 32.5 30.8 16.4-59.5-42-55.8-57.1-74.8Z"/><g transform="translate(-130.3 414.6)"><g transform="matrix(31.2 0 0 31.2 320 33.6)"><use fill="#FCD116" transform="rotate(18 0-1)" xlink:href="#a"/><g transform="scale(-1 1)"><use fill="#FCD116" transform="rotate(18 0-1)" xlink:href="#a"/></g><g transform="rotate(72)"><use fill="#FCD116" transform="rotate(18 0-1)" xlink:href="#a"/><g transform="scale(-1 1)"><use fill="#FCD116" transform="rotate(18 0-1)" xlink:href="#a"/></g></g><g transform="rotate(144)"><use fill="#FCD116" transform="rotate(18 0-1)" xlink:href="#a"/><g transform="scale(-1 1)"><use fill="#FCD116" transform="rotate(18 0-1)" xlink:href="#a"/></g></g><g transform="scale(-1) rotate(36)"><use fill="#FCD116" transform="rotate(18 0-1)" xlink:href="#a"/><g transform="scale(-1 1)"><use fill="#FCD116" transform="rotate(18 0-1)" xlink:href="#a"/></g></g><g transform="rotate(-72)"><use fill="#FCD116" transform="rotate(18 0-1)" xlink:href="#a"/><g transform="scale(-1 1)"><use fill="#FCD116" transform="rotate(18 0-1)" xlink:href="#a"/></g></g></g></g><g transform="matrix(31.2 0 0 31.2 320 448.2)"><use fill="#FCD116" transform="rotate(18 0-1)" xlink:href="#a"/><g transform="scale(-1 1)"><use fill="#FCD116" transform="rotate(18 0-1)" xlink:href="#a"/></g><g transform="rotate(72)"><use fill="#FCD116" transform="rotate(18 0-1)" xlink:href="#a"/><g transform="scale(-1 1)"><use fill="#FCD116" transform="rotate(18 0-1)" xlink:href="#a"/></g></g><g transform="rotate(144)"><use fill="#FCD116" transform="rotate(18 0-1)" xlink:href="#a"/><g transform="scale(-1 1)"><use fill="#FCD116" transform="rotate(18 0-1)" xlink:href="#a"/></g></g><g transform="scale(-1) rotate(36)"><use fill="#FCD116" transform="rotate(18 0-1)" xlink:href="#a"/><g transform="scale(-1 1)"><use fill="#FCD116" transform="rotate(18 0-1)" xlink:href="#a"/></g></g><g transform="rotate(-72)"><use fill="#FCD116" transform="rotate(18 0-1)" xlink:href="#a"/><g transform="scale(-1 1)"><use fill="#FCD116" transform="rotate(18 0-1)" xlink:href="#a"/></g></g></g><g transform="translate(130.3 414.6)"><g transform="matrix(31.2 0 0 31.2 320 33.6)"><use fill="#FCD116" transform="rotate(18 0-1)" xlink:href="#a"/><g transform="scale(-1 1)"><use fill="#FCD116" transform="rotate(18 0-1)" xlink:href="#a"/></g><g transform="rotate(72)"><use fill="#FCD116" transform="rotate(18 0-1)" xlink:href="#a"/><g transform="scale(-1 1)"><use fill="#FCD116" transform="rotate(18 0-1)" xlink:href="#a"/></g></g><g transform="rotate(144)"><use fill="#FCD116" transform="rotate(18 0-1)" xlink:href="#a"/><g transform="scale(-1 1)"><use fill="#FCD116" transform="rotate(18 0-1)" xlink:href="#a"/></g></g><g transform="scale(-1) rotate(36)"><use fill="#FCD116" transform="rotate(18 0-1)" xlink:href="#a"/><g transform="scale(-1 1)"><use fill="#FCD116" transform="rotate(18 0-1)" xlink:href="#a"/></g></g><g transform="rotate(-72)"><use fill="#FCD116" transform="rotate(18 0-1)" xlink:href="#a"/><g transform="scale(-1 1)"><use fill="#FCD116" transform="rotate(18 0-1)" xlink:href="#a"/></g></g></g></g></svg>