<svg viewBox="0 0 640 480" xmlns="http://www.w3.org/2000/svg" xmlns:xlink="http://www.w3.org/1999/xlink"><defs><radialGradient id="a" fr="0%" fx="447.4" fy="308.3" gradientUnits="userSpaceOnUse" cx="447.4" cy="308.3" r="16.5"><stop offset="20%" stop-color="#F9F0AA"/><stop offset="100%" stop-color="#B07E09"/></radialGradient><radialGradient id="b" fr="0%" fx="451.6" fy="313" gradientUnits="userSpaceOnUse" cx="451.6" cy="313" r="10.9" xlink:href="#a"/><radialGradient id="c" fr="0%" fx="454.1" fy="308.6" gradientUnits="userSpaceOnUse" cx="454.1" cy="308.6" r="9.8" xlink:href="#a"/><radialGradient id="d" fr="0%" fx="458.4" fy="307.1" gradientUnits="userSpaceOnUse" cx="458.4" cy="307.1" r="17.4" xlink:href="#a"/><linearGradient id="e" x1="473.9" x2="472.4" gradientUnits="userSpaceOnUse" y1="259.2" y2="232"><stop offset="20%" stop-color="#B07E09" stop-opacity="0"/><stop offset="100%" stop-color="#B07E09"/></linearGradient><linearGradient id="f" x1="483.1" x2="485.5" gradientUnits="userSpaceOnUse" y1="296.7" y2="326.6" xlink:href="#e"/><radialGradient id="g" fr="0%" fx="446" fy="252.4" gradientUnits="userSpaceOnUse" cx="446" cy="252.4" r="13" xlink:href="#a"/><linearGradient id="h" x1="451.5" x2="455.4" gradientUnits="userSpaceOnUse" y1="249.5" y2="240.6" xlink:href="#a"/><linearGradient id="i" x1="473.3" x2="475.9" gradientUnits="userSpaceOnUse" y1="237.2" y2="270.4" xlink:href="#a"/><radialGradient id="j" fr="0%" fx="477.9" fy="215.3" gradientUnits="userSpaceOnUse" cx="477.9" cy="215.3" r=".3"><stop offset="30%" stop-color="#A50A0A"/><stop offset="100%" stop-color="#4C0505"/></radialGradient><radialGradient id="k" cx="489.1" fr="0%" fx="489.1" fy="210.3" gradientUnits="userSpaceOnUse" cy="210.3" r=".3" gradientTransform="scale(.97707 1.02346)"><stop offset="0%" stop-color="#FFF"/><stop offset="100%" stop-color="#FFF" stop-opacity="0"/></radialGradient><path id="o" d="M515.2 249.3l-40.1 39.5L434 328l-4.6 5.4c-2 2.3-4.4 5.3-7.2 8 -.5.7-1.1.4-1.7.8 -1.8 1-3.7 2.8-5 4.3L403.2 360c-.7.9-1 1.4-.4 2l6.6 8.8c1.2 1.2 2.6 1.8 3.2.8 3.1-5.5 11-13.8 14-20.3 1.7-4 3.9-11.1 5.5-12.8 2-2.2 7.1-7.8 11.8-12.7l1-1c.2-.4.5-.7.9-1 23.5-24 50.7-53.1 70.5-73.6l-1-1Z"/><path id="D" d="M523.2 359.6c-.5-.3-.8-.8-.6-1.1 .2-.3.7-.4 1.2-.2 .5.3.8.8.7 1.1 -.2.3-.8.5-1.3.2Z"/><path id="s" d="M438.2 327.5a.6.6 0 1 0 0 1.2 .6.6 0 1 0 0-1.2Z"/><path id="v" d="M502.2 259l3.5 3.5 .6-.6 -3.5-3.4 -.6.6Z"/><path id="x" d="M510.6 359.8L509 361c-23-29.6-55-57.9-76.7-69 30.1 13.8 55.4 41.7 78 67.6h.1Z"/><path id="w" d="M508.5 360v0c-20.14-27.92-46.11-51.12-76.1-68 3.5-.2 11.4 3.9 14.7 6 23.9 15.4 44.3 35.8 65.6 59.8 -1.2 1.2-2 2-3.4 3l-.8-.8Z"/><path id="n" d="M437.2 338.3h-.001c-.31.39-.68.73-1.1 1 -.5.2-1 .4-1.5.3v0c-.27-.01-.52-.12-.7-.3v0c-.25-.13-.43-.35-.5-.6 -.2-.2-.2-.4-.3-.7 0-.3 0-.5.2-.8l.1.1 -1.1 1.3v-.1l1 1.3 .7.4 .8.1h-.001c.57-.02 1.12-.19 1.6-.5 .5-.2 1-.6 1.3-1l1-1.4c.2-.5.4-1 .3-1.6 0-.3 0-.5-.2-.8v0c-.46-.72-1.12-1.28-1.9-1.6h.1l-1 1.1h-.1c.2-.2.5-.2.7-.2l.8.2c.4.3.8.7.9 1.2 .1.5 0 1-.2 1.4 -.2.5-.5.9-.9 1.2Zm0 0c.4-.3.6-.7.8-1.2 .2-.4.3-1 .2-1.4 -.1-.5-.5-.8-.9-1 -.4-.3-1-.4-1.3-.2h-.1l1-1.2 0 0c.83.33 1.53.93 2 1.7 .2.2.3.5.3.8 0 .6-.1 1.2-.4 1.7 -.2.5-.5 1-1 1.4 -.3.5-.8.8-1.3 1.1 -.5.3-1 .5-1.7.5v0c-.6.02-1.17-.2-1.6-.6v0c-.42-.41-.76-.88-1-1.4l1-1.3h.2l-.1.8c0 .2 0 .5.2.7l.5.5c.1.2.4.3.6.3 .5.1 1 0 1.5-.2l1.1-1Z"/><path id="F" d="M511.3 363.6c.7-1.8 2-3.4 3.5-3.8m-3.3 4.1c1.3.2 3.3-1.3 3.8-2.6m-2.6 4c1.6.4 3.3-1.2 4-2.4m-2.5 4c2 0 3.1-1.3 3.7-2.4m-2.2 3.9c1.7 0 3.2-1.3 3.6-2.4m-2.2 3.8c1.9 0 3.1-.9 3.7-2m-2 3.4c1.7.1 3-.9 3.4-1.8m-1.6 3.3c1.6 0 2.7-1 3.1-2"/><path id="m" d="M437.2 338.3c-1 1.2-2.5 1.7-3.4.9 -.6-.6-.8-1.2-.5-2l-1 1.3s.6 1.3 1.6 1.8c1.3.5 3-.3 4-1.6 .8-1 1.6-2.4 1-3.6v0c-.46-.78-1.17-1.38-2-1.7l-1 1c.5-.2 1.2 0 1.7.4 1.3 1 .6 2.5-.4 3.5Z"/><path id="q" d="M557 220.1l-31.8 26.2c-.3.4-.6.3-.9 0l-2.9-2.4v-.6l1.4-1.4c.2-.2 0-.3-.1-.6l-.6-.6c-.3-.1-.5 0-.7.2l-1.4 1.5c-.7 0-1.3.6-1.4 1.4 -19.2 18.7-35.8 35.4-54.9 53.8l-22.6 21.6c-.8 1-4.3 2.9-6.6 4.4 -.8.5-1.5 1-1.8 1.5l-1.8 5.5c-.6 1.2-2.5 4-2.5 4.2l3.8 3.7 11.1-11.9 .9-1v0c-.74-1.02-1.62-1.93-2.6-2.7l-.7-.5c-.1-.2.3-.5.5-.7 26.4-25.6 55-53.7 78.2-76.6v0c.32.12.67.12 1-.001l2.9 3.1c.6.7 1.2.7 1.7.4l31.9-28.5Z"/><path id="E" d="M522.2 358.6c-.6-.2-.8-.8-.6-1v-.2c.2.1.7.2.6-.1 0-.2-.1-.3 0-.2l.6.2c.5.3.8.8.6 1.1 -.1.4-.7.5-1.2.2Z"/><path id="y" d="M510.6 359.8L509 361v0c-10.63-13.65-22.41-26.37-35.2-38v0c-9.57-8.79-19.73-16.91-30.4-24.3 -3.6-2.4-7.3-4.7-11.1-6.7v-.2c8 3.7 15.4 8.2 22.5 13.3 7 5 13.6 10.7 20 16.6l0-.001c6.32 5.94 12.42 12.11 18.3 18.5 6 6.4 11.6 13 17.4 19.5Zm0 0c-5.8-6.6-11.5-13-17.5-19.4v-.001c-5.88-6.39-11.98-12.56-18.3-18.5 -6.4-5.9-13-11.5-20-16.6 -7-5-14.5-9.6-22.4-13.2v-.2 0c7.54 4.28 14.79 9.05 21.7 14.3v0c13.77 10.51 26.56 22.26 38.2 35.1h-.001c5.87 6.36 11.47 12.97 16.8 19.8l1.5-1.3Z"/><path id="B" d="M524.6 361.8c-.5-.3-.8-.8-.6-1.2 .2-.3.7-.4 1.2-.1 .5.2.8.7.7 1 -.2.4-.8.5-1.3.3Z"/><path id="u" d="M441 322.4v0c-.66-.47-1.26-1.01-1.8-1.6h0c.65.46 1.25 1 1.8 1.6Z"/><path id="A" d="M524.9 362.8c-.5-.3-.8-.8-.6-1.1 .2-.4.7-.5 1.2-.2 .5.2.8.7.7 1 -.2.4-.8.5-1.3.3Z"/><path id="G" d="M511.3 363.6h0c.44-1.27 1.24-2.38 2.3-3.2 .3-.3.7-.5 1.2-.6v0c-.44.13-.84.33-1.2.6v0c-.38.29-.71.62-1 1v0c-.55.65-.99 1.4-1.3 2.2Zm.2.3c.4 0 .8 0 1.2-.2l1-.6 1-.8 .6-1v0c-.1.38-.31.73-.6 1v0c-.55.61-1.24 1.09-2 1.4 -.4.2-.8.3-1.2.2Zm1.2 1.4h1.2l1-.6v0c.69-.47 1.27-1.09 1.7-1.8l-.7 1 -.9.9 -1 .5h-1.3Zm1.5 1.6c.4 0 .8 0 1.1-.2l1-.5 1-.8 .6-1v0c-.3.77-.82 1.43-1.5 1.9l-1 .5h-1.2Zm1.5 1.5c.8 0 1.5-.3 2.1-.8v0c.6-.43 1.11-.97 1.5-1.6 -.1.3-.3.7-.6 1l-.8.7 -1 .6v0c-.39.11-.8.14-1.2.1Zm1.4 1.4c.4 0 .8 0 1.1-.2v0c.73-.17 1.42-.51 2-1l.6-.9 -.6 1c-.3.2-.6.5-1 .6 -.6.4-1.3.5-2 .5Zm1.7 1.4v0c.69-.01 1.38-.19 2-.5l.8-.5c.2-.3.5-.5.6-.8 0 .3-.3.6-.5.8v0c-.8.77-1.9 1.14-3 1Zm1.8 1.5l1-.1 .8-.4 .7-.6 .6-.8v0c-.49 1.25-1.76 2.03-3.1 1.9Z"/><path id="C" d="M524 360.6c-.5-.2-.8-.7-.6-1 .2-.4.7-.5 1.2-.3 .5.3.8.8.6 1.1 -.1.4-.7.5-1.2.2Z"/><path id="l" d="M434.3 336.3c-.2 1 .8 2.3 2 2 .5 0 .7-.5.2-.5 -.4.2-.9 0-1.2-.3v0c-.49-.55-.65-1.32-.4-2l-.6.8Z"/><path id="z" d="M517.5 355c-2 .6-3.7 1.3-5.3 2.3 -.2 1.4-2 3-3.5 3.3l-.6-.8h-.2l-.6.3c-.6 0-1.3.2-1.6 1 -.4 1 .3 2.3 1.2 3.1 1 .7 1.4 1 2.4 1 1.1-.3 1.7-1.3 2-1.6 3.7 4.5 6.5 7 11.2 10.6 2.1 0 3.2-1.3 2.5-2.8 -.2-.5-.8-.8-1.3-.6v-.5c2.4-2.2 3.5-5 .9-9.8 -2.2-4-4.7-5.4-7-5.4h-.1Zm6.2 4.6c.5.7.7 1.4 1 2 1.6 3 .3 6.7-2.3 7.8h-.2c.4-.7-.8-2.2-1.4-1.7 .3-.7-.7-2-1.5-1.7 .4-.7-.5-1.9-1.4-1.5 .4-.7-.3-1.8-1.3-1.6 .3-.8-.4-1.8-1.3-1.6 0-.8-.2-1.2-.5-1.5 1-.8 2.3-2.1 3.4-2.7 2.7-1.2 4.4 1 5.5 2.5Z"/><path id="t" d="M434.4 331.3a.6.6 0 1 0 0 1.2 .6.6 0 1 0 0-1.2Z"/><path id="r" d="M431 330.4h.6l.5-.1 .7-2.4 .8-2.4c-.2-.2-.4-.4-.7-.4 .3 0 .5.2.7.4l-.7 2.4 -.7 2.4 -.6.2 -.7-.1Z"/><path id="p" d="M431.9 328.1c-1.2 0-2-.7-2.9-1.4 1.2.4 2.4.8 3.5.3l-.6 1.1Z"/></defs><path fill="#4997D0" d="M0 0h640v480H0Z"/><path fill="#FFF" d="M213.3 0h213.4v480H213.3Z"/><g transform="matrix(.81133 0 0 .8264-69.4-8)"><g stroke-width=".4" fill="none" stroke="#24420E"><path d="M452.1 377.5c2.7-.4 4.2-1.2 6-1.8m2.3-4.1v0c1.32 1.33 2.35 2.93 3 4.7m-8.1-5.1h0c1.27 1.18 2.29 2.61 3 4.2m-49.5-136.6c-1 1.6-3 2.7-4.8 3.4m-.3-.2c0-1.4-.2-3 0-4.4m-1.9 5c0 .4.4 1.4.6 2m2.1 1l-2 .3m-4-.9c0 2.6.3 5.6.5 7.9m-1.8-1c.5.8 1 1.5 1.6 1.9m-4.6 6.5c.5.9 1 2 1.3 4m3.7-4.7l-2 1.5m1.7 4.4c-1 .9-2.2 1.5-3.5 2.1m-3.8 40.4v0c1.01 1.81 2.37 3.4 4 4.7m.6 1.7v0c-1.06-.14-2.08-.48-3-1m4.4 8.5l1.7 1m-.4 3.4c1.2.8 2.5 2.3 3.7 3.9m-1.4 2.8c1.4.3 2.5.7 3.2 1m-1 2.5h2m1.3-5.3l-.5 4.2m1 1.6l.4-1.6m4.7 6l-.1 3.2m39.2 27.9l-1.2 1.6m-2.4-3.9l-.7-1.8"/><g fill="#406325" stroke-width=".2"><path d="M486.1 385h0c-.83-1.19-1.98-2.13-3.3-2.7 -7.7-4-15.4-5.9-24-7.3 -2.1-.3-4.1-2.2-6.2-3.2 -5-2.3-10.5-3.2-15.3-5.7 -.3-.1-1.5-.8-2-1.5 -2-2.2-5.5-2.9-7.6-5 -8.4-7.8-17.2-15-21.8-25.5 -5.6-12.7-12.5-25.8-11.6-40.2 .6-9.2-.7-18.4 1.5-27 3.4-13 7.6-25.7 15.4-36.4l-1.3.8v0c-7.41 11-12.64 23.32-15.4 36.3 -2.3 8.7-1 18-1.5 27 -1 14.5 6 27.6 11.5 40.3 4.6 10.4 13.5 17.7 21.8 25.6 2.2 2 5.6 2.7 7.6 5v0c.6.58 1.27 1.08 2 1.5 4.9 2.4 10.4 3.3 15.4 5.7 2 1 4 2.8 6 3.2l-.001 0c8.4 1.04 16.58 3.47 24.2 7.2v0c1.32.58 2.46 1.51 3.3 2.7l1.3-.9"/><g fill="#67923D"><path d="M406.3 331.6l0-.001c-2.06-7.69-2.13-15.78-.2-23.5 6.7 13 4.5 23.7.2 23.5Zm45.9 45.4v0c-8.16 1.86-15.7 5.79-21.9 11.4 15.1.1 24-7.3 21.9-11.4Zm7.5-4.3h0c-6.83-7.51-11.65-16.63-14-26.5 15 10.9 18.9 24.3 14 26.5Z"/><path d="M454.6 372.8v-.001c-7.2-6.11-12.71-13.96-16-22.8 15.3 8.2 20.3 20.2 16 22.8ZM439 366c1-7.8-5.6-24.2-7.5-26 -3 16.5 3 27.6 7.5 26Zm-27.3-24.3v0c-1.62-6.93-1.45-14.16.5-21 5.5 11.7 3.3 21.2-.5 21ZM398 264.9v0c5.47-7.09 12.71-12.61 21-16 -6.8 14.6-18 19.9-21 16Z"/><path d="M398.7 259.3v0c3.96-8.07 9.96-14.96 17.4-20 -3.7 15.7-13.7 23.2-17.4 20Zm27.9 99.2v0c-4.63-8.05-7.14-17.13-7.3-26.4 11.2 12.5 12 25.3 7.2 26.4ZM397.9 322c-7 1.1-21.4-4.6-23-6.3 14.6-3.2 24.4 2 23 6.3Zm-2.2-9.7c.8-5.5 8.6-15.8 10.3-16.6 -1 12-7.4 18.6-10.3 16.6Zm51.3 58.6v0c-9.75 2.17-18.75 6.86-26.1 13.6 18 .1 28.7-8.7 26.1-13.6Z"/></g><path d="M406.4 331.5c4.2.2 6.4-10.4-.3-23.4l0-.001c1.26 7.74 1.36 15.62.3 23.4Zm11.2 20v0c-6.17-5.52-13.64-9.37-21.7-11.2 8.9 12.1 19.9 15.1 21.7 11.2Zm-24.4-53h-.001c-2.84-9.12-7.93-17.38-14.8-24 1.5 17.2 10.6 26.7 14.8 24Zm8.4 34.3c-5-3.7-19-5.4-21-4.8 10.2 8.4 20.2 8.5 21 4.8Zm-9.4-24.8v0c-4.32-6.01-10.15-10.77-16.9-13.8 5.5 12.4 14.6 17 16.9 13.7Zm2.8-47.6c.8-7.6-5.6-23.4-7.4-25.2 -2.9 16 2.9 26.7 7.3 25.2Zm4.4-14.9c2.7-6.5.8-22.4-.5-24.4 -6.4 13.5-3.8 24.6.5 24.4Z"/><path d="M404.4 237.8v0c2.75-6.08 3.95-12.75 3.5-19.4 -7.2 9.7-7 18.9-3.5 19.4Zm6-6.1v0c4.43-4.94 7.53-10.93 9-17.4 -9.7 7-12.2 15.8-9 17.4Zm-16.1 43.2c.1.9-1-8.2-10-18.3 .4 14.8 6.2 20.4 10 18.3Zm32.6 85.8l-.001-.001c-7.96-4.16-16.84-6.22-25.8-6 12.6 10.4 24.9 10.6 25.8 6ZM439 366c-4.6 1.5-10.5-9.5-7.6-26v0c1.29 8.96 3.82 17.71 7.5 26Zm13.3 11c2 4.1-6.8 11.5-21.8 11.4 12-5 21.2-9.9 21.8-11.3Zm7.3-4.4c4.9-2.3 1.1-15.5-14-26.4 8.6 13.2 14.5 24.6 14 26.4Z"/><path d="M454.6 372.7c4.2-2.7-.7-14.5-16-22.7 9.5 11.2 16.2 21 16 22.7Zm-42.8-31c3.7.2 6-9.3.5-21 .7 11 .4 20-.5 21ZM398 265c3 3.8 14-1.4 20.9-16v0c-6.16 6.32-13.2 11.71-20.9 16Z"/><path d="M398.9 259.3c3.6 3.2 13.5-4.3 17.2-20 -8 11.3-15.6 19.8-17.2 20Zm27.7 99.1c4.7-1.1 4-13.8-7.3-26.3 5 13.5 8 24.8 7.3 26.3ZM397.7 322c1.4-4.3-8.3-9.4-22.8-6.3 12.3 2.2 22 5 22.8 6.3Zm-1.9-9.6c2.9 1.8 9.1-4.7 10.3-16.7v0c-2.62 6.03-6.09 11.65-10.3 16.7ZM447 371c2.5 5-8 13.7-26 13.6 14.2-5.9 25.3-11.8 26-13.6Z"/><path d="M399.4 326.3v0c-4.19-6.67-10.05-12.12-17-15.8 5 13.6 14.2 19.1 17 15.8Z"/><g fill="#67923D"><path d="M392.4 274c4-4.7 17.5-9.2 19.6-9 -8 10.5-18 12.6-19.6 9Zm25.1 77.5c-1.8 4-12.7 1-21.7-11.1l0 0c6.65 4.73 13.96 8.46 21.7 11.1Zm-24.4-53c-4.2 2.7-13.1-6.8-14.7-24 6.6 13.3 13 23.5 14.7 24Zm8.4 34.3c-.7 3.7-10.7 3.6-20.8-4.7h-.001c6.67 2.56 13.67 4.14 20.8 4.7Zm-9.5-24.9c-2.3 3.2-11.2-1.3-16.7-13.7 8.2 8 15.5 13.7 16.8 13.7Zm2.8-47.6c-4.4 1.6-10.1-9-7.3-25 2.7 13.5 6 24.2 7.3 25Zm4.5-14.9c-4.3.3-6.9-10.8-.5-24.3 -.8 12.8-.5 23.3.5 24.3Zm5-7.6c-3.4-.6-3.7-9.7 3.6-19.4v0c-2.17 6.25-3.38 12.78-3.6 19.4Zm6-6.1c-3.1-1.7-.7-10.4 9-17.3v0c-3.84 5.29-6.88 11.12-9 17.3Z"/><path d="M394.3 274.9c-3.9 2.1-9.6-3.5-10-18.3 5 11.7 8.6 17.8 10 18.3Zm32.5 85.8c-.9 4.6-13.1 4.4-25.7-5.9 13.2 4.3 24.3 6.7 25.7 5.9Zm-8.2-9.5v0c-3.78-5.75-6.05-12.35-6.6-19.2 9 8.7 10.2 18.1 6.8 19.2Zm-16.8-25c-3.6-5.8-4-20.9-3-23 8.3 11.9 7.3 22.7 3 23Zm-2.7.1c-2.7 3.3-11.9-2.1-16.8-15.8v0c4.77 6.07 10.44 11.4 16.8 15.8Z"/></g><path d="M392.4 274c1.6 3.6 11.4 1.5 19.5-8.9 -12 6.8-16.7 9.8-19.5 8.9Zm9.3 52c4.3-.3 5.3-11-3-22.8v0c2.21 7.42 3.22 15.15 3 22.9Zm17 25.2c3.4-1 2.2-10.5-6.7-19.2 4.4 9.7 7.2 18 6.7 19.2Z"/><path d="M394.2 291.8c2-8.4-1.7-22.6-4.3-25.6 -4.7 15.4-.2 26.6 4.3 25.6Z"/><g fill="#67923D"><path d="M394 293.8c-6 1.3-8.7-12-4.1-27.1 1 13.5 2.8 26.1 4 27Z"/><path d="M392.7 293.7v0c.87-8.86 3.97-17.36 9-24.7 2 15.8-4.5 26.3-9 24.7Z"/></g><path d="M392.8 293.6c4.5 1.6 10.9-8.8 8.9-24.6 -3.5 13.3-7.5 23.8-8.9 24.6Z"/><path fill="#67923D" d="M394.1 303.3v0c1.38-8.7 5.04-16.88 10.6-23.7 .8 16.2-6.3 25.9-10.6 23.7Z"/><path d="M394.2 303.4c4.2 2.2 11.3-7.4 10.5-23.5 -4.4 12.8-9 22.9-10.5 23.5Z"/></g></g><g stroke-width=".2" fill="#BA1F3E" stroke="#511124"><path d="M396.8 250.2a1.1 1.1 0 1 0 0 2.2 1.1 1.1 0 1 0 0-2.2Z"/><path d="M405.2 244a1.1 1.1 0 1 0 0 2.2 1.1 1.1 0 1 0 0-2.2Z"/><path d="M401.6 240.6a1.1 1.1 0 1 0 0 2.2 1.1 1.1 0 1 0 0-2.2Z"/><path d="M392.5 311.8a1.3 1.3 0 1 0 0 2.6 1.3 1.3 0 1 0 0-2.6Z"/><path d="M395 295.8a1.3 1.3 0 1 0 0 2.6 1.3 1.3 0 1 0 0-2.6Z"/><path d="M408.2 333.2a1.3 1.3 0 1 0 0 2.6 1.3 1.3 0 1 0 0-2.6Z"/><path d="M402.4 335.1a1.3 1.3 0 1 0 0 2.6 1.3 1.3 0 1 0 0-2.6Z"/><path d="M446.7 366.3a1.3 1.3 0 1 0 0 2.6 1.3 1.3 0 1 0 0-2.6Z"/><path d="M449.6 373.4a1.3 1.3 0 1 0 0 2.6 1.3 1.3 0 1 0 0-2.6Z"/></g><g stroke-width=".4" fill="none" stroke="#24420E"><path d="M561.1 259c.7.6 1.2.8 2.3 1.9m-6.6-18.9c0-1.4-.6-3.7-.9-5m3.5 3c0 1.9-.3 3.7-1.1 5.4m-4.2-.5c1.8 1.6 3.5 3 5.3 3.9m3.8 1.2c.1 2-.1 4-.7 6m.4 1.5l1.3-2.3m-1.9 12.2c1.4.3 2.8 2 3.5 3.5m.5-1.3l1.6-2.2m1.7 30.8v0c-.71 1.2-1.51 2.33-2.4 3.4m-4 0c.8 1.4 1.6 3 2.6 4m2.5 5.9v0c-1.18 1.66-2.72 3.03-4.5 4m.2 4.5c-1.1.8-2.5 3-3.7 4.7m8.4-20.2l-2.1.9m-1.4-7.4l1.2 1m-9.3 37.4h-2m-2.1-1.8l.6 1.6m-7.6 5.1c-.3 1.9-.1 3.7.1 5.6m4.3-9l1 2.2m3.9-.1l-2.5.3M522 365.6l-1 1.8m11.9-4c-1.5.2-2.8 0-4.1-.2m-5.5 6c-1-.5-2-.7-3-1m-14.7 2.7c-.9.7-2 2.4-3 4m-.6-4.5c-2.4 1.3-3.2 3.7-4.4 5.8m2.8 2.8c-1.6-.4-3.4-1.2-5.3-2m16.7-.7c-2.3-1.2-4.7-1-7.1-1.4m10.8-.4c-3.7-.7-7-.6-10.3-.1m7.8-2.6l-1.4-.6m-5.6 5.5l-2.3-1.3m57.9-49.2c-1.2.8-2.5 2.3-3.7 3.9m1.8-79.6l-2.2-.8"/><g fill="#406325" stroke-width=".2"><path d="M474.4 384.9c.8-1.3 2.1-2 3.3-2.7 7.7-4 15.4-5.8 24-7.2 2.1-.4 4.1-2.3 6.2-3.2 5-2.4 10.5-3.3 15.3-5.7 .3-.2 1.5-.9 2-1.6 2-2.2 5.5-2.9 7.6-5 8.4-7.8 17.2-15 21.8-25.5 5.6-12.7 12.5-25.8 11.6-40.2 -.6-9.2.7-18.4-1.5-27v0c-2.78-13.01-8.01-25.36-15.4-36.4l1.3.8v0c7.41 11.03 12.64 23.39 15.4 36.4 2.3 8.6 1 17.9 1.5 27 1 14.4-6 27.5-11.5 40.3 -4.6 10.4-13.5 17.6-21.8 25.5 -2.2 2-5.6 2.7-7.6 5v0c-.61.58-1.28 1.08-2 1.5 -4.9 2.4-10.4 3.4-15.4 5.7 -2 1-4 2.8-6 3.2h-.001c-8.41 1.04-16.59 3.47-24.2 7.2v0c-1.33.58-2.47 1.51-3.3 2.7l-1.3-.8"/><path d="M553.6 334.6c2.8-7.4 0-24.8-1.4-27 -6.7 15.4-3.4 27.6 1.4 27Z"/><path d="M546.5 341.6c2.3-5.6.7-19.3-.4-21 -5.5 11.7-3.3 21.3.4 21Zm16.9-74.1v0c-5.05-6.48-11.71-11.51-19.3-14.6 6.2 13.3 16.5 18.2 19.3 14.6Z"/><path d="M561.8 259.5v0c-3.31-6.73-8.31-12.49-14.5-16.7 3.1 13 11.4 19.3 14.5 16.7Zm4.7 14.9c-3.5-4-15.2-7.9-17-7.7 7 9 15.6 10.9 17 7.7Zm-2.8 46.4v0c7.15-.06 14.16-2.02 20.3-5.7 -12.9-2.8-21.5 1.9-20.3 5.7Zm-.2-5.7c0-5.6-6.3-16.8-8-18 -.5 12 4.9 19.5 8 18Z"/><path d="M564 301.4v-.001c-1.41-8.67-5.06-16.8-10.6-23.6 -.8 16.2 6.3 25.8 10.6 23.6Zm-53 75.3v0c6.3 5.55 13.96 9.35 22.2 11 -8.8-12.3-20.1-15.1-22.1-11Z"/><g fill="#67923D"><path d="M553.6 334.4c-4.9.6-8.1-11.4-1.4-26.8 -.5 14.2.2 25.7 1.4 26.8ZM500.2 378h-.001c8.14 1.93 15.67 5.89 21.9 11.5 -15.1.1-24-7.3-22-11.4Zm0-7.9c2-8 15-21.2 17.5-22.1 -3.6 17.1-13.7 25.5-17.5 22.1Zm21.3-4.1v0c.25-9.17 2.83-18.12 7.5-26 3 16.4-3 27.5-7.5 26Zm21.5-14.6v0c6.13-5.5 13.56-9.36 21.6-11.2 -8.9 12.1-19.8 15.1-21.7 11.2Zm25.7-53.3c1-6.3 9.7-17.9 11.6-18.9 -1.2 13.6-8.3 21-11.6 19Z"/><path d="M557 336.2h0c7.54-3.86 15.93-5.75 24.4-5.5 -11.8 9.7-23.5 9.8-24.4 5.5Zm10.3-24.5v0c4.53-6.28 10.63-11.24 17.7-14.4 -5.8 13-15.3 17.8-17.7 14.4Zm-1.5-45.6c0-7.6 8-22.7 10-24.2 1.1 16.1-5.7 26.2-10 24.2Zm-6.9-25.9h-.001c-1.71-6.56-1.75-13.44-.1-20 5.5 10.9 3.7 20 0 20Z"/><path d="M554.6 238v-.001c-5.26-6.39-8.83-13.99-10.4-22.1 11.8 9.3 14.4 20.4 10.4 22.1Zm11.7 34.5c-.3.9 3-7.7 14.2-15.3 -4 14.3-11 18.3-14.2 15.3Zm-34.1 89.9v0c9.02-4.63 19.06-6.93 29.2-6.7 -14.2 11.8-28.2 12-29.2 6.7Zm14.3-20.8c-3.7.2-6-9.3-.5-21 -.7 11-.4 20 .5 21Zm16.9-74.1c-2.7 3.6-13-1.2-19.2-14.6v0c5.61 5.82 12.08 10.74 19.2 14.6Zm-1.7-8c-3.1 2.6-11.3-3.6-14.4-16.7 6.7 9.4 13 16.5 14.4 16.7Zm4.8 15c-1.4 3.1-9.9 1.3-16.9-7.7 10.4 5.9 14.5 8.4 17 7.7Zm-2.6 46.2c-1.3-3.8 7.3-8.3 20.2-5.5h-.001c-6.98.79-13.79 2.64-20.2 5.5Zm-.4-5.6c-3.2 1.5-8.5-5.9-8-17.9v0c1.78 6.35 4.48 12.41 8 18Z"/><path d="M563.9 301.6c-4.3 2.2-11.3-7.4-10.5-23.5 4.4 12.8 9 22.9 10.5 23.5Zm-52.7 75.1c2-4.2 13.1-1.4 22 10.8 -11-6.7-20.5-11.3-22-10.8Z"/></g><path d="M521.5 365.8c4.6 1.6 10.5-9.4 7.6-25.9 -2.8 14-6.2 25.1-7.6 26Z"/><path d="M531.8 360.6v0c3.78-8.47 5.36-17.76 4.6-27 -10 13.6-9.4 26.3-4.6 27Zm-31.7 17.5c-2 4.1 6.7 11.5 21.8 11.3 -12-4.8-21.2-9.8-21.8-11.3Zm.2-8.1c3.8 3.4 13.8-4.9 17.4-22 -8.1 12.4-15.7 21.8-17.4 22Zm42.7-18.6c1.8 4 12.7 1 21.7-11.1v0c-6.66 4.73-13.97 8.46-21.7 11.1Zm25.8-53.3c3.3 2.1 10.3-5.3 11.5-18.8v0c-2.89 6.8-6.76 13.13-11.5 18.8ZM557 336.2c1 4.4 12.5 4.2 24.4-5.5 -12.5 4-23 6.2-24.3 5.5Zm10.4-24.6c2.5 3.4 11.9-1.4 17.7-14.4v0c-5.14 5.67-11.11 10.53-17.7 14.4ZM566 266c4.2 2 11-8 9.8-24 -4 13-8.4 23.3-9.9 24Zm-7-25.9c3.5.1 5.4-9-.2-20 1 10.5 1 19.1.2 20Zm-4.3-2.2c4-1.7 1.4-12.7-10.4-22h-.001c4.54 6.77 8.05 14.18 10.4 22Zm11.6 34.7c3.2 3 10.2-1 14.2-15.4 -7.8 10.1-12.7 15.2-14.2 15.4Zm-34 89.9c1 5.2 14.9 5 29-6.7 -14.9 4.8-27.4 7.6-29 6.7Z"/><path d="M539.1 354.8l0 0c2.87-6.29 4.11-13.21 3.6-20.1 -7.5 10-7.2 19.5-3.6 20Zm19.6-28.7c3.6-5.7 4-20.9 3-23 -8.3 11.9-7.3 22.7-3 23Z"/><path fill="#67923D" d="M531.8 360.5c-4.8-.6-5.3-13.3 4.5-26.8 -3.6 13.8-5.4 25.4-4.5 26.8Zm35.2-68.3c-1-7.8 4-20.1 6.6-22.5 2.6 14.4-2.7 24-6.6 22.5Zm-27.9 62.5c-3.6-.5-3.9-10 3.6-20v0c-2.21 6.44-3.42 13.18-3.6 20Zm23.4-104.2c-2.2-6 0-20 1.2-21.8 5.3 12.2 2.6 22.1-1.2 21.8Zm-58.1 120.1c2.5-8 16.2-21 18.8-22 -4.3 17.5-15 25.6-18.8 22ZM559 329h0c4.16-6.65 9.98-12.1 16.9-15.8 -5 13.6-14.2 19.1-17 15.8Zm-.2-3c-4.3-.4-5.3-11 3-22.9v0c-2.22 7.42-3.23 15.15-3 22.9Z"/><path d="M567 294c5.2 1.9 9-9.8 6.6-23.9v0c-1.18 8.24-3.39 16.31-6.6 24Z"/><path d="M567.8 293.6c.5-7.5-7-23-9-24.7 -2 15.8 4.5 26.3 9 24.7Zm-5.3-43.2c3.9.4 6.5-9.4 1.2-21.7 .4 11.5-.2 20.8-1.2 21.7Zm-58 120.1c3.8 3.7 14.4-4.4 18.7-21.8 -8.8 12.3-17 21.6-18.7 21.8Zm54.6-41.5c2.8 3.3 12-2.1 17-15.8v-.001c-4.84 6.09-10.58 11.41-17 15.8Z"/><path fill="#67923D" d="M567.7 293.5c-4.5 1.7-10.9-8.7-8.9-24.5 3.5 13.2 7.5 23.7 8.9 24.5Z"/></g></g><g stroke-width=".2" fill="#BA1F3E" stroke="#511124"><path d="M564.6 253.8a1.1 1.1 0 1 0 0 2.2 1.1 1.1 0 1 0 0-2.2Z"/><path d="M568.4 265.7a1.1 1.1 0 1 0 0 2.2 1.1 1.1 0 1 0 0-2.2Z"/><path d="M569.8 303a1.3 1.3 0 1 0 0 2.6 1.3 1.3 0 1 0 0-2.6Z"/><path d="M564.6 296a1.3 1.3 0 1 0 0 2.6 1.3 1.3 0 1 0 0-2.6Z"/><path d="M549.9 335.9a1.3 1.3 0 1 0 0 2.6 1.3 1.3 0 1 0 0-2.6Z"/><path d="M556.2 338.6a1.3 1.3 0 1 0 0 2.6 1.3 1.3 0 1 0 0-2.6Z"/><path d="M513.8 371a1.3 1.3 0 1 0 0 2.6 1.3 1.3 0 1 0 0-2.6Z"/><path d="M506.8 376a1.3 1.3 0 1 0 0 2.6 1.3 1.3 0 1 0 0-2.6Z"/><path d="M557.1 248.2a1.1 1.1 0 1 0 0 2.2 1.1 1.1 0 1 0 0-2.2Z"/></g><use fill="#8C959D" stroke="#485654" stroke-width=".1" xlink:href="#l"/><use fill="#8C959D" xlink:href="#m"/><use fill="#485654" xlink:href="#n"/><use fill="#6C301E" stroke="#351710" stroke-linejoin="round" stroke-width=".2" xlink:href="#o"/><g stroke-width=".1" fill="#8C959D" stroke="#485654"><use xlink:href="#p"/><use fill="#B2B6BA" stroke-width=".2" xlink:href="#q"/></g><use fill="#485654" xlink:href="#r"/><g stroke-width=".2" fill="none" stroke="#485654"><use xlink:href="#s"/><use xlink:href="#t"/></g><use fill="#485654" xlink:href="#u"/><use fill="#8C959D" stroke="#485654" stroke-width=".1" xlink:href="#v"/><g transform="scale(-1 1) rotate(-2.80002-9.3 19640.2)"><use fill="#8C959D" stroke="#485654" stroke-width=".1" xlink:href="#l"/><use fill="#8C959D" xlink:href="#m"/><use fill="#485654" xlink:href="#n"/><use fill="#6C301E" stroke="#351710" stroke-linejoin="round" stroke-width=".2" xlink:href="#o"/><g stroke-width=".1" fill="#8C959D" stroke="#485654"><use xlink:href="#p"/><use fill="#B2B6BA" stroke-width=".2" xlink:href="#q"/></g><use fill="#485654" xlink:href="#r"/><g stroke-width=".2" fill="none" stroke="#485654"><use xlink:href="#s"/><use xlink:href="#t"/></g><use fill="#485654" xlink:href="#u"/><use fill="#8C959D" stroke="#485654" stroke-width=".1" xlink:href="#v"/></g><g stroke-width=".2" fill="#67923D" stroke="#24420E"><path d="M434 365.4h-.001c-9.68-2.32-19.79-2.01-29.3.9 16.3 8 29.5 4.6 29.2-1Zm89 3.3c7.8-3.3 26.8-.7 29.1 1 -16.2 7.9-29.5 4.5-29.2-1Z"/><path fill="#406325" d="M433.8 365.5c.3 5.5-12.8 8.9-29.1.9 15.3 1 27.8.4 29-1Zm89.2 3.3c-.2 5.5 12.9 8.9 29.2.9 -15.3 1-27.8.4-29.1-1Z"/><use fill="#B2B6BA" stroke="#485654" xlink:href="#w"/></g><use fill="#8C959D" xlink:href="#x"/><use fill="#485654" xlink:href="#y"/><g stroke-width=".2" fill="#FAB81C" stroke="#6C301E"><use xlink:href="#z"/><g stroke-width=".1"><use xlink:href="#A"/><use xlink:href="#B"/><use xlink:href="#C"/><use xlink:href="#D"/><use xlink:href="#E"/></g></g><use fill="#FAB81C" xlink:href="#F"/><use fill="#6C301E" xlink:href="#G"/><g transform="scale(-1 1) rotate(-3.40001-13.8 16470.8)"><use fill="#B2B6BA" stroke="#485654" stroke-width=".2" xlink:href="#w"/><use fill="#8C959D" xlink:href="#x"/><use fill="#485654" xlink:href="#y"/><g stroke-width=".2" fill="#FAB81C" stroke="#6C301E"><use xlink:href="#z"/><g stroke-width=".1"><use xlink:href="#A"/><use xlink:href="#B"/><use xlink:href="#C"/><use xlink:href="#D"/><use xlink:href="#E"/></g></g><use fill="#FAB81C" xlink:href="#F"/><use fill="#6C301E" xlink:href="#G"/></g><g stroke-width=".2" fill="#406325" stroke="#24420E"><path d="M409.2 240v0c7.92-4.2 14.63-10.37 19.5-17.9 -15.6 4.2-22.7 14.3-19.5 18Zm145.8 4.7v0c-3.41-7.87-8.79-14.72-15.6-19.9 2.8 15.2 12 22.8 15.6 20Z"/><path fill="#67923D" d="M409.2 240c-3.3-3.6 3.8-13.6 19.4-17.8 -11 8.4-19.2 16.2-19.4 17.8Zm145.8 4.7c-3.7 3-12.7-4.6-15.5-19.7 7.2 11 14 19.5 15.5 19.7Z"/><g fill="url(#a)" stroke="#999270"><path d="M452.2 318.1s-6.1.7-7.9-7.8c-1.8-9.1 5.3-10 5.3-10s8.1-.9 13.2-1l2.2 18 -12.8.8Z"/><path fill="url(#b)" d="M453 315.4s-4 .7-4.8-5.6c-.6-4.5 2.2-5.1 2.2-5.1l9.2 1.6v8.2l-6.6.9Z"/><path fill="url(#c)" d="M450.4 304.7s6-.4 9-.8l1.3 5.7 -7.1.4s-.5-5.1-3.2-5.3Z"/><path fill="url(#d)" d="M449.2 300.4s7.5-1.9 8.5 6.4c.2 2.2-1 7.2-4.7 8.6l13.9-1.5 -1.3-15 -4.6.4s-10 .3-11.8 1Z"/><path fill="#F9F0AA" d="M452.2 318.1s51.9-3.5 57.2-3.3c15.8-8.6 0-42.5-13.3-61.5 1.5-4.3-29.9-13.9-44-13 -1.9 0-3.6.2-5.2.3 -7.7.8-7.8 10.7-4.7 17 3 6 30.4 55 11.2 60.3l-1.2.2Z"/><path fill="url(#e)" d="M507.8 273.3c-3.5-7.3-7.7-14.3-11.7-20 1.5-4.3-29.9-13.9-44-13 -1.9 0-3.6.2-5.2.3 -7.7.8-7.8 10.7-4.7 17 1 1.8 4.3 8 7.9 15.7"/><path fill="url(#f)" d="M455 285c5.6 14.6 8.7 30-1.6 32.9l-1.2.2s52-3.5 57.2-3.3c8.6-4.7 7.8-16.8 3.2-30"/><path fill="url(#g)" d="M447.4 243.5c-3.7 0-4.7 3.6-4.6 5.8 .1 6 4.6 6.2 4.6 6.2l6-.3 2.8-12.2 -8.8.5Z"/><path fill="url(#h)" d="M447.4 243.5l8.8-.5 1 9.1 -7.8.4s2.5-7.3-2-9Z"/><path fill="url(#i)" d="M496.1 253.3c6.7-1 6.6-10 2-13.7 -15.5-.6-35.8-.1-50.6 1 1.7 0 6.4.4 6.9 6.5v0c.2 2.68-.92 5.3-3 7v0c-1.16.86-2.56 1.35-4 1.4h3.6l3-.4c21-2.7 42-1.8 42-1.8h.1Z"/></g></g><path fill="#B07E09" d="M458.5 267.4c-.2-.3-.4-.7-.8-.8 -.2 0-.6 0-.5-.4h.8l1.6-.2c.4.1.3.5 0 .5 -.5 0-.2.5-.1.8l1.3 3c.1.4.4.7.7.7l1.1-.1c.3-.2.2-.6.2-1 -.1-.3.5-.2.5 0l.4 1.4c0 .2-.2.1-.4.1l-3 .2c-.3 0-.8.3-1 0 0-.4.6-.2.6-.5l-.3-1 -1.1-2.7Zm4.8-.4c-.1-.2-.3-.6-.7-.7 -.2 0-.6 0-.6-.4 .2-.2.5 0 .7 0l1.7-.2c.3 0 .4.5 0 .4 -.3 0-.3.4-.2.7l1.5 3.4c0 .2.2.5.5.6 .2 0 .6 0 .7.3 0 .3-.4.1-.6.1 -.5 0-1 0-1.6.2 -.2 0-.5 0-.5-.3s.5 0 .6-.4c0-.3-.2-.6-.4-1l-1.1-2.6Zm4.5.8c0 .2.4 0 .5 0 .3 0 .6-.1.6-.4 0-.5-.3-1-.7-1.2 -.3-.3-.7-.2-1.1-.2l.1.5 .6 1.3Zm.6 1.6c.2.3.3.7.6 1 .2.2.6.1.8 0 .3 0 .5-.3.4-.5 -.1-.7-.5-1.3-1.2-1.5h-1l.2.5 .2.5Zm-2-2.4c-.2-.3-.3-.8-.7-1 -.2 0-.6.1-.7-.2 0-.3.6-.1.8-.2 .9 0 1.8-.3 2.6 0 .7.2 1.4.8 1.5 1.6 0 .4-.3.7-.6.8l.5.1c.6.2 1.1.6 1.4 1.2 .2.4.3.9 0 1.3 -.4.4-1 .4-1.4.4 -.8 0-1.5 0-2.3.2 -.3 0-.4-.5 0-.5 .3 0 .3-.4.2-.6l-1.3-3Zm7.4-1.9c.3 0 .4.3.5.5l.3.9c-.3.2-.5-.2-.6-.4 -.2-.2-.4-.5-.7-.4h-1.2c-.2.2 0 .4.1.6l.6 1.4c.2 0 .6 0 .8-.3 0-.2-.3-.7.2-.6 .3.2.2.6.4.9l.5 1.1c-.3.3-.5-.1-.6-.4 -.2-.3-.7-.3-1-.3 -.2 0 0 .2 0 .3l.6 1.5c.2.3.7.3 1 .3 .3 0 .8 0 1-.4 .2-.2-.3-.7 0-.8 .4 0 .4.4.5.6 0 .3.2.6.3.8 0 .2-.3.2-.4.2l-3 .2c-.4 0-.9.2-1-.2 0-.3.7-.1.6-.5l-.4-1 -1.1-2.7c-.2-.3-.4-.7-.8-.7 -.2 0-.6 0-.4-.4h1l2.8-.2Zm2.3 1.3c-.1-.3-.3-.7-.7-.9 -.2 0-.7 0-.7-.4 .3-.2.7 0 1 0 .8 0 1.6-.3 2.4 0 .8.1 1.5.9 1.6 1.8 0 .4-.3.7-.7.8 -.3 0 .2.1.3.2 .7.3 1 .9 1.4 1.5 .1.2.5.7.6.2 0-.5.6 0 .5.3 0 .4-.4.6-.7.6 -.4 0-.9-.2-1.1-.6 -.4-.6-.7-1.3-1.3-1.7v-.001c-.21-.21-.52-.29-.8-.2v.5l.6 1.2c.2.3.6.3 1 .3 .3.1.2.6-.2.5h-1.7c-.3.2-.9 0-.7-.3 .3 0 .7-.2.5-.5l-1-2.6 -.3-.7Zm1.4 1c.2.2.6 0 .9 0 .3 0 .3-.5.2-.7 -.1-.5-.4-1-.9-1.2 -.2 0-.8-.2-.9.1l.7 1.6v.1Zm7.2 1.6c.1.3.3.6.6.7 .2 0 .6 0 .7.3 0 .3-.4.1-.6.2h-1.6c-.3.1-.6 0-.6-.3 .2-.2.7 0 .7-.4l-.5-1.1 -1.1-2.9c-.1-.3-.5-.3-.7-.3 -.3 0-.7 0-.7.4 0 .3.2.6 0 .8 -.3 0-.4-.3-.5-.5 0-.3-.2-.6-.4-1 0-.2.4-.1.5-.1l4.2-.2c.3 0 .5.2.5.5l.4 1c-.1.3-.5 0-.6-.3 -.1-.3-.5-.7-.9-.7 -.2 0-.6 0-.8.2l.2.7 1.2 3Zm3.8-.9c-.2 0-.1.3-.1.4v.8c.1.4.5.3.8.4 .2 0 .1.5-.2.4h-1.2c-.3.1-.8-.1-.5-.4 .2 0 .4-.1.5-.3v-5c.2-.3.5 0 .6.2l3.6 4.5c.2.2.5.4.8.4 .3 0 .4.5 0 .4h-1.5c-.2 0-.5.2-.7 0 -.2-.1 0-.4.2-.4 .3 0 0-.4-.1-.6l-.6-.8h-1.6Zm1.1-.5c.2 0 0-.1 0-.2l-1.3-1.7v2h1.3Zm3.1-1.8c-.1-.4-.3-1-.8-1 -.3 0-.7-.2-.5-.4h1.7c.7-.1 1.4-.1 2 .1 1.5.5 2.7 1.8 3 3.4 0 .6-.1 1.3-.6 1.6 -.8.5-1.7.4-2.5.3l-1.4.1c-.3 0-.4-.5 0-.4 .4 0 .4-.5.2-.7l-1.1-3Zm2 2.5c.1.3.2.7.5 1h1c.5 0 .7-.5.7-.9v0c-.05-.74-.25-1.46-.6-2.1 -.4-.7-1-1.2-1.8-1.4h0c-.34-.06-.67-.06-1 0 -.1 0 0 .2 0 .4l1.2 3Zm-21.1 12.4c0 .3.4.6.8.6 .2 0 .7 0 .7.4 -.2.2-.6 0-.8 0l-1.5.2h-.9c-.2 0-.2-.4.1-.4 .3 0 .6-.1.6-.4l-.2-.8 -1.2-2.8c0-.3-.4-.3-.7-.3 -.2 0-.6.1-.7-.2 0-.3.5-.2.7-.4l1-.3c.2 0 .3.1.3.3l1.8 4Zm.7-4.5h2c.4 0 .2-.5.4-.5 .4 0 .4.5.4.7 0 .4-.3.7-.6.6H475l.5 1.2 .6-.2c1 0 2.2.6 2.6 1.6 .2.5.3 1 0 1.5 -.4.5-1 .6-1.6.6 -.5 0-1-.1-1.4-.6 -.1-.2-.1-.7.2-.6 .4 0 .7.2.7.6 .1.2.5.1.7.1 .3 0 .6-.2.6-.5 0-.5-.2-1-.5-1.4 -.2-.4-.7-.7-1.3-.7l-.8.1c-.3 0-.3-.3-.4-.5l-.7-1.9 .2-.1Zm6.9 1c-.2-.4-.4-.9-.9-1 -.2 0-.7-.1-.4-.4h1.6c.7-.2 1.5-.1 2.1.1 1.5.5 2.7 1.8 3 3.4 0 .6-.1 1.2-.7 1.6 -.7.4-1.6.3-2.4.3l-1.3.2c-.3 0-.4-.5 0-.5 .3 0 .3-.4.2-.7l-1.2-3Zm2 2.5c.1.3.3.7.6 1h1c.4-.1.6-.6.6-1 0-.7-.3-1.4-.7-2.1 -.4-.7-1-1.2-1.8-1.3v0c-.34-.06-.67-.06-1 0v.4l1.3 3Zm6.4-4.3c.3 0 .4.3.5.5 0 .3.2.5.3.8 -.2.3-.5 0-.6-.3 -.1-.2-.3-.5-.6-.5h-1.3c-.2.2 0 .5 0 .6l.6 1.4c.3 0 .6 0 .8-.2 .2-.2-.3-.7.2-.6 .3 0 .3.5.4.8l.5 1.1c-.1.4-.5 0-.6-.3 -.1-.3-.5-.3-.8-.3 -.2 0-.4 0-.2.2l.6 1.5c.2.4.7.3 1 .3 .4 0 .8 0 1-.3 .2-.2-.2-.6 0-.8 .4 0 .5.3.5.5l.3 1c0 .1-.3 0-.4 0l-3.1.2c-.3 0-.7.2-.9-.1 -.2-.4.5-.2.6-.5l-.3-.9 -1.1-2.9c-.2-.3-.4-.6-.8-.7 -.2 0-.6 0-.4-.4h1l2.8-.1Zm-27.2 14.3c.1.5.6.7 1 .8 .8.2 1.7.5 2.2 1.1 .3.4.5.9.5 1.4 0 .5-.5.9-1 1 -.5.2-1.1.1-1.7-.1 -.2-.1-.1.4-.5.3 -.2-.2-.1-.6-.2-.9v0c-.12-.35-.25-.68-.4-1 0-.3.4 0 .5.2 .3.6.9 1 1.6 1.1 .4 0 .8-.2.8-.6 0-.5-.4-1-.8-1.2 -.7-.3-1.4-.4-2-.8v0c-.58-.34-.96-.94-1-1.6 0-.4.4-.8.8-.9 .5-.2 1-.2 1.6 0 .2 0 .3-.3.6-.1 0 .2 0 .4.2.6l.3.9c-.2.2-.5 0-.5-.2 -.3-.4-.5-.8-1-.8 -.4 0-.8 0-1 .3v.5Zm6.6-1.7c.4 0 .4.3.5.5l.2.8c0 .3-.4 0-.5-.2 -.1-.2-.3-.5-.7-.5h-1.2c-.2.2 0 .5 0 .6l.5 1.4c.3 0 .6 0 .8-.2 .2-.2-.2-.6.1-.7 .4 0 .4.5.5.7 0 .4.3.8.4 1.3 -.1.3-.5 0-.5-.3 -.1-.3-.5-.4-.8-.3 -.2 0-.4 0-.3.2l.6 1.5c.1.3.4.3.7.3 .4 0 .9 0 1.2-.3 .2-.2 0-.6 0-.8 .3-.2.6 0 .6.3l.2 1c0 .2-.3.2-.4.2l-3 .2c-.4 0-.8.3-1 0 0-.4.5-.3.6-.6 0-.2 0-.5-.2-.8l-1-3c0-.3-.3-.6-.7-.6 -.2 0-.6-.1-.4-.4h1l2.8-.3Zm4.2 4.2c.1.3.3.6.6.7 .3 0 .7-.1.8.2 0 .4-.5.2-.7.2 -.6 0-1 0-1.6.2 -.2 0-.5 0-.6-.2 0-.4.5-.2.6-.4l-.1-.8 -1-3c-.2-.3-.3-.7-.7-.7 -.2 0-.6 0-.5-.4 .1-.2.4 0 .7 0 .7 0 1.4-.3 2.2-.2v0c.74.05 1.4.51 1.7 1.2 .2.4.2 1 0 1.3 -.5.4-1.1.5-1.7.6 -.2 0 0 .2 0 .3l.3 1Zm-.6-1.8h.7c.3-.1.5-.4.4-.7 0-.5-.2-.9-.5-1.2 -.3-.3-.8-.3-1.1-.2 -.2.1 0 .3 0 .5l.5 1.6Zm6.2 1.5c0 .2.2.6.5.6 .2 0 .7 0 .7.3s-.5.2-.7.2l-1.6.1c-.2 0-.5 0-.5-.3 .2-.2.7 0 .7-.4l-.3-1.2 -1-2.9c0-.3-.4-.2-.7-.2 -.2 0-.6 0-.7.3v.8c-.2.2-.5 0-.4-.3l-.4-1c0-.3.3-.2.5-.3l4.1-.2c.3 0 .5.2.5.5l.4 1c-.1.2-.5 0-.5-.2 -.2-.3-.5-.7-1-.7 -.2 0-.5-.1-.8 0l.2.7 1 3.2Zm2.1-3.3c-.1-.3-.2-.7-.6-.8 -.2 0-.6 0-.6-.4 .1-.2.4 0 .6 0l1.8-.2c.3-.1.5.4.2.4s-.6.2-.5.5l.5 1.6 .7 2.2c0 .2.3.4.5.4 .3 0 .7 0 .6.4h-.7l-1.6.2c-.2 0-.6-.2-.4-.4 .2-.1.6 0 .6-.4l-.3-1.2 -.8-2.3Zm5.8-1.6c.3 0 .3.3.4.5l.2.8c-.1.3-.5 0-.5-.2 -.1-.3-.3-.6-.7-.6H485c-.2.2 0 .5 0 .7l.5 1.3c.2 0 .5 0 .8-.2 .2-.1-.2-.6.1-.6 .4 0 .4.4.5.6 0 .5.3.9.4 1.3 -.1.3-.5 0-.5-.2 -.1-.3-.5-.4-.8-.4 -.1 0-.5 0-.3.2l.5 1.5c.1.3.5.4.7.4 .4 0 .9 0 1.2-.3 .2-.2 0-.6.1-.9 .3-.1.5.1.5.4l.2 1c0 .2-.2.2-.4.2l-3 .1c-.4 0-.7.2-1 0 -.1-.4.5-.3.6-.5v0c.08-.27.04-.56-.1-.8l-1-3c0-.3-.3-.7-.7-.7 -.2 0-.6-.2-.4-.4h1l2.9-.2Zm2 1c-.1-.4-.4-.7-.8-.7 -.3.1-.5-.6 0-.4h1.5l.7.9 2.2 2.9c-.2 0 0-.2-.1-.3l.4-3.6c.2-.2.7 0 1-.2 .3 0 1 0 .8.4 -.4 0-.8.2-.6.6l1.2 3.6c0 .4.4.6.8.5 .3 0 .3.6 0 .5H494c-.3.1-.8.1-.7-.3 .3 0 .8-.2.6-.6l-1-3.2c.1.1 0 .3 0 .4l-.2 3 -.1.8c-.3.1-.4-.1-.5-.3l-2.9-3.7 .2.3c.3 1 .5 2 .9 2.9 0 .4.5.5.8.5 .4.2.1.5-.2.4h-1.5c-.3 0-.3-.4 0-.4 .5 0 .4-.5.2-.8l-1-3.2Zm8.7.8c0 .2.4 0 .5 0 .3 0 .6 0 .7-.4 0-.4-.2-1-.5-1.2 -.4-.3-.8-.2-1.2-.2v.5l.5 1.3Zm.5 1.6l.4 1c.3.2.6.1.9.1 .2 0 .5-.2.4-.5 0-.6-.3-1.3-.9-1.5h-1v.3l.2.6ZM496 288c-.1-.4-.2-.8-.6-1 -.2 0-.6 0-.6-.3s.5 0 .7-.1c1 0 1.8-.2 2.7 0 .7.2 1.3.9 1.3 1.6 0 .4-.4.7-.7.9 0-.2.4 0 .5 0 .5.2 1 .6 1.2 1.2 .2.4.3.9 0 1.3 -.4.4-1 .4-1.5.4l-2.3.1c-.3 0-.4-.5 0-.4 .3 0 .4-.4.2-.7l-.9-3Zm5.1-.2c0-.3-.2-.8-.6-1 -.2 0-.6 0-.6-.3 .2-.3.6 0 1-.1h2c.8 0 1.5.6 1.7 1.4 .1.4 0 1-.4 1.2l-.4.2c.6.2 1.1.7 1.4 1.2l.5.8c.2.2.3-.1.3-.3 .4-.2.6.3.4.6 -.1.4-.7.5-1 .4v0c-.37-.02-.68-.26-.8-.6l-1-1.7c-.3-.1-.6-.3-.9-.1v.4l.5 1.2c.1.3.5.4.8.4 .4 0 .4.5 0 .4h-1.8c-.2 0-.6.2-.7 0 -.2-.5.4-.3.6-.5l-.2-.9 -.8-2.7Zm1.3 1c.1.3.6 0 .8 0 .3 0 .5-.3.4-.5 0-.5-.2-1-.5-1.3 -.3-.2-.7-.2-1-.1 -.2 0-.1.3 0 .5l.3 1.3Zm6.9-2.6c.3 0 .3.3.4.5 0 .3.2.6.3.8 -.2.3-.5 0-.6-.2 0-.2-.2-.6-.6-.6h-1.3c-.2.1 0 .4 0 .6l.4 1.4c.3 0 .6 0 .8-.2 .3-.1-.1-.5.2-.7 .4 0 .4.4.4.7 0 .5.3.9.4 1.3 -.1.3-.5 0-.5-.2 0-.3-.4-.5-.7-.4 -.1 0-.5-.2-.4 0l.5 1.7c.1.3.4.3.7.3 .4 0 .9 0 1.2-.2 .2-.2 0-.6.1-.8 .3-.2.6 0 .5.3l.2 1c0 .2-.3.2-.4.2h-3.1c-.3 0-.6.2-.8 0 -.3-.4.2-.3.4-.5s0-.5 0-.7l-.9-3.1c0-.3-.3-.7-.6-.7s-.6-.1-.5-.4h1l3-.1Zm-32.8 13.1c0-.3-.2-.8-.6-1 -.3 0-.7 0-.5-.3l1-.1c.8 0 1.6-.2 2.4 0 1.2.2 2.3 1.2 2.6 2.3 .2.8.3 1.6-.2 2.3 -.5.6-1.4.8-2.2.8 -.7 0-1.3 0-1.9.2 -.2.1-.6-.1-.4-.4 .3 0 .7-.1.6-.5l-.4-1.5 -.4-1.8Zm1.6 2.5c.1.3.2.7.4.9 .3.2.7.1 1 0 .4 0 .8-.4.9-.9v0c.07-.76-.07-1.52-.4-2.2h0c-.27-.63-.83-1.09-1.5-1.2v0c-.37-.07-.74-.07-1.1 0 -.1 0 0 .2 0 .4l.7 3Zm7.1-4.5c.3 0 .3.3.4.5l.2.9c-.2.2-.5 0-.5-.2 -.1-.3-.3-.6-.6-.6h-1.3c-.2.1 0 .4 0 .6 0 .5.2 1 .3 1.4 .3 0 .6 0 .8-.2 .2-.2-.1-.6.2-.7 .4 0 .3.5.4.7l.3 1.3c0 .3-.5 0-.5-.2 0-.3-.4-.5-.7-.4 -.1 0-.5-.1-.3.1 0 .5.2 1 .4 1.6 0 .3.4.3.7.3 .4 0 .9 0 1.2-.3 .2-.2 0-.6.2-.8 .2-.2.4.1.4.4 0 .3 0 .6.2 1 -.1.2-.3.1-.5.1l-3 .2c-.3 0-.6.2-.9 0 -.2-.2.1-.4.4-.4 .3-.1.2-.5.1-.7l-.7-3.2c-.1-.3-.3-.7-.6-.7s-.6-.1-.5-.4h1l2.9-.3Zm6.5 4.1c0 .3.3.6.6.7 .2 0 .6 0 .7.2 .1.3-.4.2-.6.2l-1.7.1c-.3 0-.6.1-.8 0 -.3 0-.2-.4.1-.4 .3 0 .6-.1.7-.4l-.1-.8 -.7-2.8c0-.3-.3-.3-.6-.3 -.2 0-.6.2-.7-.1 0-.4.5-.3.7-.4l1.1-.4c.2 0 .3.1.3.3l1 4.1Zm3.7-3.3c0-.4-.3-.8-.7-.8 -.3 0-.7 0-.8.3 -.1.4 0 .8.4 1l.9.5 .2-.6v-.4Zm.8 2.9c0-.5-.6-.8-1-1 -.2 0-.4-.2-.5-.1v0c-.32.22-.48.61-.4 1 .2.6.5 1 1 1 .4.1.8 0 1-.4v-.5Zm1-.2c0 .5-.2 1-.6 1.3 -.5.4-1.3.4-2 .2 -.6-.1-1-.6-1.2-1.2 0-.5.1-1 .5-1.4 .1 0 .5-.1.2-.2 -.5-.2-1-.6-1-1.2 -.2-.5 0-1 .5-1.3v-.001c.91-.48 2.04-.17 2.6.7 .2.4.2.9 0 1.2l-.6.5c.5 0 1 .4 1.2.8 .2.1.3.4.3.6Zm3.2.6c.2 0 .5-.2.5-.4 .1-.2 0-.7.3-.6 .3 0 .2.3.3.6 0 .4 0 .8-.4 1.1 -.2.2-.5.1-.8.1h-1.7c-.2 0-.5.2-.7 0 -.2-.2 0-.5 0-.7 .2-.7.6-1.2 1-1.6 .4-.3.8-.6.8-1.1 0-.4 0-.8-.2-1.2v0c-.3-.47-.92-.61-1.38-.32 -.01 0-.02 0-.03.01 -.3.1-.5.5-.3.7 .2.2.6 0 .7.4 .2.2 0 .6-.3.6 -.4 0-.8-.3-1-.7 -.1-.5.1-1.1.6-1.4 .5-.3 1.1-.3 1.7-.2 .5.2 1 .6 1.2 1.2 .1.4.1.9-.1 1.3 -.4.7-1.2 1-1.7 1.7 -.1.1-.2.3-.1.6 0-.3.4-.2.5-.2h1Zm3.9-.4c0 .2.3.5.6.6 .2 0 .6 0 .7.2 .2.3-.3.3-.5.3h-2.7c-.2-.1 0-.5.2-.4 .3 0 .6-.1.7-.4v-.8l-.7-2.8c0-.3-.3-.3-.5-.3 -.3 0-.6.2-.7 0 -.2-.4.3-.4.5-.5l1.2-.4c.3 0 .3.1.4.3l.8 4.1Z"/><g stroke-width=".2" fill="url(#j)" stroke="#4C0505"><path d="M475.8 219.4L472 224c-1.2 5.2 1.8 9.2 7.7 12.6 4.7 3 13.5 3.7 16.3 1.3l-13.7-13 -6.5-5.4Z"/><path fill="#448127" stroke="#34541F" d="M503.6 354.3l-2-2.5v-.001c-8.7 11.79-19.86 21.55-32.7 28.6 15.1-4.2 25-15.2 34.7-26.1ZM488.1 390v0c5.62-11.01 11.69-21.79 18.2-32.3l-2.1-2.7c-7.4 12.2-16 26.7-16 35Zm41.8-114.5v0c-.95-4.48-2.4-8.84-4.3-13v0c-10.73-18.08-25.78-33.2-43.8-44v-.3h.4l-.1-.1h.4l-.2-.3h.4l-.3-.4h.4l-.3-.3h.5l-.3-.4h.4l-.4-.3 .6-.1 -.5-.3 .5-.1 -.4-.3 .6-.2 -.5-.3 .6-.3 -.6-.4 .7-.2 -.8-.3 .7-.4h-.8l.5-.7h-.7l.3-.5h-.6l.3-.5 -.7.1 .3-.6 -.6.4 .2-.7 -.7.4 .1-.7 -.6.5 .1-.7 -.5.5v-.7l-.5.6v-.7l-.4.5 -.2-.6 -.4.6 -.1-.7 -.3.7 -.2-.7 -.3.7 -.2-.6 -.2.6 -.2-.6 -.2.8 -.2-.7 -.3.8 -.3-.7v.8l-.4-.7v.8l-.5-.6v.8l-.4-.6v.7l-.4-.3 .2.7 -.5-.3 .2.6 -.4-.2 .1.6h-.4l.2.4h-.3l.2.4v0c-.37 1.12-.5 2.31-.4 3.5 0 .2.6.4.7.6 .3.4.2.6.2.6 -1.6 2.6-3 4.6-3.1 7.6 1.2-1.6 2.6-3.6 4.4-3.6 -.9 1.5-1.3 6.1-.3 6.8l.8-1.3c0 1 .1 1.8.4 2.3 .3-.6.6-1.3 1-1.7 0 1.5.2 2.7.6 3.3 .5-.8 1-1.2 1.6-1.6 -.2.9-.5 1.7-.3 2.7 .6-1 1.2-1.7 1.9-2.5 -.4 1.6 0 2.8.4 4.5 .4-2 .6-2.3 1.5-3.1 .1 1.9-.2 3.6.2 4.7 .8-1.7 1.4-1.5 2-2.6 -.2 1.6-.5 3.3 0 4.7v-.001c.29-1.08.96-2 1.9-2.6 0 2.2.5 1.8-.8 3.7 .6.2 2.5-.4 3.6-.9 -.5 1.2-.4 2.1-.9 3 1-.6 2-1.5 2.9-2.4 -.4 1.4-1.5 2.8-1 4.1 .3-1.3 1.3-2.3 2.3-2.5 -.2.7-.3 2.2-1.3 2.9 2.4.2 3.4-1.4 4.6-2.7 -.1 1.3 0 2.4 1.6 4.3 -.3-2.4.2-1.9 1.3-3.3 .6 2.1 1.2 4.4 3.4 6 -1-2.3-1-3.5-.6-4.9 .3 1.5 1.7 3.3 2 4.6 .3-1.5.5-3 1-4v0c.73 1.78 1.2 3.67 1.4 5.6 .5-1 .9-2 1.1-3 19.8 20.5 24.2 46.7 2.5 74.4 7.8-5.2 9.8-13.5 14.1-20.6 -4.2 9.3-6 19.7-13.5 27.4 7.2-6.2 8.7-11.9 13-17.9 -4.5 12.5-11 26.2-19.8 38.8l4.8 5.2 4-6.9c9.4-15.4 24.7-37.5 17-71.1Z"/><path fill="#EAC102" stroke="#A08307" d="M473.2 215.3c-1 .2-1.4.6-2.2 1.4 1 .2 1.7.3 2.6.3 .2 0 .3-.4.3-.6l-.2-1c0-.2-.6-.1-.8 0l.3-.1Z"/></g><path fill="#A08307" d="M471 216.7h0c.71-.25 1.45-.42 2.2-.5v0c-.72.25-1.45.41-2.2.5Z"/><path stroke="#000" stroke-width=".1" d="M477.7 214.6a.8.8 0 1 0 0 1.6 .8.8 0 1 0 0-1.6Z"/><path fill="url(#k)" d="M477.9 214.9a.3.4 0 1 0 0 .8 .3.4 0 1 0 0-.8Z"/><g fill="#34541F"><path d="M488.2 389.7v0c1.81-6 4.29-11.77 7.4-17.2h-.001c2.22-4.15 4.59-8.22 7.1-12.2l2.6-4 -2.5 4v0c-2.41 4.05-4.74 8.15-7 12.3v0c-2.93 5.48-5.47 11.16-7.6 17Zm-18.9-9.5v0c11.68-5.09 21.89-13.03 29.7-23.1h-.001c-3.94 3.73-7.68 7.67-11.2 11.8v0c-5.55 4.7-11.79 8.51-18.5 11.3Zm37.3-29.3c.8-1 1.5-2.2 2.2-3.3v-.001c2.14-3.32 4.14-6.72 6-10.2 1.4-2.3 2.6-4.7 3.8-7l3.7-7 -1.7 3.5 -1.8 3.6v0c-2.43 4.67-5 9.28-7.7 13.8h0c-1.41 2.26-2.91 4.46-4.5 6.6Zm5.9-25.1v-.001c3.42-4.06 6.28-8.57 8.5-13.4v0c3.25-7.29 5.27-15.06 6-23v0c-.09 1.33-.12 2.66-.1 4v0c-.85 6.61-2.81 13.04-5.8 19v0c-2.26 4.82-5.15 9.33-8.6 13.4Z"/><path d="M510.9 320v0c3.49-3.72 6.42-7.93 8.7-12.5h-.001c1.67-3.41 3.14-6.92 4.4-10.5l.3-.9 .3-.9 .6-1.8v0c1.02-5.08 1.09-10.3.2-15.4v0c.06 2.57.29 5.15.7 7.7 0 2.6-.2 5.2-.7 7.7 -.3.6-.4 1.3-.6 1.9l-.3.9 -.4.9v0c-1.38 3.56-2.85 7.1-4.4 10.6v0c-1.11 2.29-2.38 4.49-3.8 6.6v0c-1.46 2.1-3.14 4.04-5 5.8Z"/><path d="M505 349.2c1.3-1.6 2.4-3.3 3.6-5l1.8-2.5 1.7-2.5 3-5.4 2.6-5.5c1.8-3.7 3.5-7.4 5-11.3v0c2.99-7.62 4.77-15.64 5.3-23.8h0c.84-8.16-.05-16.41-2.6-24.2v0c2.82 7.73 3.78 16.02 2.8 24.2v0c-.54 8.19-2.32 16.25-5.3 23.9 -1.5 3.8-3.2 7.5-5 11.2l-2.8 5.5c-.9 1.9-1.8 3.7-2.9 5.4 -.5 1-1.1 1.7-1.7 2.6l-1.8 2.5 -3.6 5Z"/><path d="M507.8 352.3h0c4.7-7.7 9.17-15.54 13.4-23.5v0c6.1-12.15 9.09-25.62 8.7-39.2 0-4.5-.4-9-1.2-13.4h0c.03 0 .06 0 .1 0 .9 4.4 1.2 9 1.2 13.4h0c-.03 9.01-1.24 17.99-3.6 26.7v0c-1.32 4.33-2.99 8.54-5 12.6v0c-4.27 7.93-8.77 15.73-13.5 23.4ZM480 220.8h1.4l0 0c1.42.22 2.8.66 4.1 1.3h-.001c3.34 1.77 6.37 4.07 9 6.8v0c-2.66-2.64-5.69-4.86-9-6.6v0c-1.75-.78-3.61-1.28-5.5-1.5Z"/></g><path fill="#448127" d="M496.4 231.6s3 1.8 4.7 4.4c0 0-4.7-.9-8-4.6"/><path fill="#34541F" d="M496.4 231.6h-.001c1.91 1.08 3.55 2.58 4.8 4.4l.1.2h-.2 0c-1.56-.36-3.05-.97-4.4-1.8 -1.4-.8-2.6-1.8-3.7-3l0 0c1.64 1.7 3.66 3.01 5.9 3.8l2.2.7v.2 0c-.61-.94-1.35-1.79-2.2-2.5v-.001c-.78-.75-1.61-1.42-2.5-2Z"/><path fill="#448127" d="M489.6 230.7s7.2 4.6 8.3 5c0 0-1.7-3.5-5.1-5"/><path fill="#34541F" d="M489.6 230.7l4.1 2.5h0c1.02.61 2.05 1.21 3.1 1.8l1 .6v.1 0c-.54-1.08-1.25-2.06-2.1-2.9v0c-.85-.86-1.83-1.57-2.9-2.1v0c1.13.44 2.15 1.12 3 2v-.001c.86.87 1.57 1.88 2.1 3l.2.2 -.3-.1 -2.1-1.2v0c-2.07-1.29-4.1-2.62-6.1-4Z"/><path fill="#448127" d="M492.5 228.4s3.7 1.6 4.6 4.3c0 0-6.8-2.8-8-4.3"/><path fill="#34541F" d="M492.5 228.4l0 0c1 .38 1.95.92 2.8 1.6l1.1 1.2 .8 1.5v.2h-.2l0 0c-2.4-1.12-4.74-2.35-7-3.7l-.9-.8 .9.7 1 .6v-.001c1.93 1.19 3.97 2.19 6.1 3h-.1c-.2-.4-.4-1-.8-1.3v0c-.26-.47-.6-.87-1-1.2v0c-.81-.74-1.72-1.34-2.7-1.8Z"/><path fill="#448127" d="M486.8 231.3s6.6 4.7 8.6 4.7c0 0-2-3.3-5.4-4.7"/><path fill="#34541F" d="M486.8 231.3l0 0c2.41 1.51 4.88 2.95 7.4 4.3l1.2.3 -.1.2v0c-.63-1.05-1.41-1.99-2.3-2.8v0c-.91-.81-1.92-1.48-3-2v0c1.71.66 3.23 1.77 4.4 3.2l1 1.5 .2.1h-.2c-.5 0-.9-.1-1.3-.3l-1-.5v0c-2.25-1.1-4.36-2.44-6.3-4Z"/><path fill="#448127" d="M486.8 232.7s3.4 3 5.4 3c0 0-2-3.3-5.4-4.8"/><path fill="#34541F" d="M486.8 232.7v-.001c1.27.93 2.6 1.76 4 2.5l.6.2 .8.2 -.1.1h0c-.64-1.01-1.41-1.92-2.3-2.7v0c-.91-.81-1.92-1.48-3-2v0c1.7.64 3.22 1.7 4.4 3.1l1 1.5 .2.2h-.2v-.001c-.56-.03-1.11-.16-1.6-.4v0c-.94-.45-1.82-1.02-2.6-1.7v0c-.47-.26-.87-.6-1.2-1Z"/><path fill="#448127" d="M485 226.2s7.2 5.1 8 7.9c0 0-6.4-3-7.6-4.5"/><path fill="#34541F" d="M485 226.2v0c2.7 1.95 5.21 4.16 7.5 6.6l.7 1.2v.3l-.2-.1v0c-2.33-1.19-4.6-2.49-6.8-3.9l-.8-.7 .8.7 1 .6v0c1.9 1.17 3.91 2.18 6 3l-.2.2 -.7-1.2v0c-1.46-1.87-3.14-3.55-5-5l-2.3-1.7Z"/><g stroke-width=".2" fill="#406325" stroke="#24420E"><path d="M445 370.3l-.001 0c-6.29 3.28-13.31 4.94-20.4 4.8 10-8.2 19.7-8.4 20.4-4.8Zm69.8 4.5c5.2 4.7 21 8 23.5 7.4 -10.6-10.7-22.1-11.8-23.5-7.4Z"/><path fill="#67923D" d="M445 370.3c-.7-3.7-10.5-3.4-20.4 4.8v0c6.51-2.63 13.39-4.24 20.4-4.8Zm69.9 4.4c1.4-4.4 12.8-3.3 23.4 7.5v0c-7.4-3.64-15.28-6.17-23.4-7.5Z"/></g></g></svg>