<svg viewBox="0 0 640 480" xmlns="http://www.w3.org/2000/svg" xmlns:xlink="http://www.w3.org/1999/xlink"><defs><path d="M-.3 0l.5.1L0-1Z" id="a"/></defs><path fill="#18C3DF" d="M0 0h640v480H0Z"/><path fill="#FFF" d="M0 160h640v160H0Z"/><g transform="translate(320 240) scale(26.6667)"><g fill="#18C3DF"><use xlink:href="#a"/><use transform="scale(-1 1)" xlink:href="#a"/></g><g transform="rotate(72)"><g fill="#18C3DF"><use xlink:href="#a"/><use transform="scale(-1 1)" xlink:href="#a"/></g></g><g transform="rotate(-72)"><g fill="#18C3DF"><use xlink:href="#a"/><use transform="scale(-1 1)" xlink:href="#a"/></g></g><g transform="rotate(144)"><g fill="#18C3DF"><use xlink:href="#a"/><use transform="scale(-1 1)" xlink:href="#a"/></g></g><g transform="rotate(-144)"><g fill="#18C3DF"><use xlink:href="#a"/><use transform="scale(-1 1)" xlink:href="#a"/></g></g></g><g transform="translate(133.3-42.7)"><g transform="translate(320 240) scale(26.6667)"><g fill="#18C3DF"><use xlink:href="#a"/><use transform="scale(-1 1)" xlink:href="#a"/></g><g transform="rotate(72)"><g fill="#18C3DF"><use xlink:href="#a"/><use transform="scale(-1 1)" xlink:href="#a"/></g></g><g transform="rotate(-72)"><g fill="#18C3DF"><use xlink:href="#a"/><use transform="scale(-1 1)" xlink:href="#a"/></g></g><g transform="rotate(144)"><g fill="#18C3DF"><use xlink:href="#a"/><use transform="scale(-1 1)" xlink:href="#a"/></g></g><g transform="rotate(-144)"><g fill="#18C3DF"><use xlink:href="#a"/><use transform="scale(-1 1)" xlink:href="#a"/></g></g></g></g><g transform="translate(133.3 37.3)"><g transform="translate(320 240) scale(26.6667)"><g fill="#18C3DF"><use xlink:href="#a"/><use transform="scale(-1 1)" xlink:href="#a"/></g><g transform="rotate(72)"><g fill="#18C3DF"><use xlink:href="#a"/><use transform="scale(-1 1)" xlink:href="#a"/></g></g><g transform="rotate(-72)"><g fill="#18C3DF"><use xlink:href="#a"/><use transform="scale(-1 1)" xlink:href="#a"/></g></g><g transform="rotate(144)"><g fill="#18C3DF"><use xlink:href="#a"/><use transform="scale(-1 1)" xlink:href="#a"/></g></g><g transform="rotate(-144)"><g fill="#18C3DF"><use xlink:href="#a"/><use transform="scale(-1 1)" xlink:href="#a"/></g></g></g></g><g transform="translate(-133.3-42.7)"><g transform="translate(320 240) scale(26.6667)"><g fill="#18C3DF"><use xlink:href="#a"/><use transform="scale(-1 1)" xlink:href="#a"/></g><g transform="rotate(72)"><g fill="#18C3DF"><use xlink:href="#a"/><use transform="scale(-1 1)" xlink:href="#a"/></g></g><g transform="rotate(-72)"><g fill="#18C3DF"><use xlink:href="#a"/><use transform="scale(-1 1)" xlink:href="#a"/></g></g><g transform="rotate(144)"><g fill="#18C3DF"><use xlink:href="#a"/><use transform="scale(-1 1)" xlink:href="#a"/></g></g><g transform="rotate(-144)"><g fill="#18C3DF"><use xlink:href="#a"/><use transform="scale(-1 1)" xlink:href="#a"/></g></g></g></g><g transform="translate(-133.3 37.3)"><g transform="translate(320 240) scale(26.6667)"><g fill="#18C3DF"><use xlink:href="#a"/><use transform="scale(-1 1)" xlink:href="#a"/></g><g transform="rotate(72)"><g fill="#18C3DF"><use xlink:href="#a"/><use transform="scale(-1 1)" xlink:href="#a"/></g></g><g transform="rotate(-72)"><g fill="#18C3DF"><use xlink:href="#a"/><use transform="scale(-1 1)" xlink:href="#a"/></g></g><g transform="rotate(144)"><g fill="#18C3DF"><use xlink:href="#a"/><use transform="scale(-1 1)" xlink:href="#a"/></g></g><g transform="rotate(-144)"><g fill="#18C3DF"><use xlink:href="#a"/><use transform="scale(-1 1)" xlink:href="#a"/></g></g></g></g></svg>