<svg viewBox="0 0 640 480" xmlns="http://www.w3.org/2000/svg" xmlns:xlink="http://www.w3.org/1999/xlink"><defs><path d="M202601 47974c-14-68-49-129-100-175 -51-47-116-78-187-88 -33-4-39-58-7-68 60-20 114-67 157-133 45-69 79-157 95-256 5-34 64-35 69-1 15 84 51 153 97 208 55 66 125 112 193 138 31 12 25 63-8 68 -59 9-105 42-141 87 -50 62-81 145-100 221 -8 33-62 31-69-2Zm33-118c20-52 47-103 81-146 28-34 60-64 99-84 -51-30-100-70-143-120 -28-34-53-73-73-116 -19 59-45 112-75 158 -31 47-67 86-108 116 50 19 95 47 134 82 34 31 63 68 85 110Zm799 5115l-515 206c-17 7-35 14-48-21 -14-34 4-41 21-48l515-206c17-7 35-14 48 21 14 34-4 41-21 48Zm59-326l-604 328c-16 9-33 18-51-15s-1-42 15-51l604-328c16-9 33-18 51 15s1 42-15 51Zm-1826-65l604 328c16 9 33 18 15 51s-34 24-51 15l-604-328c-16-9-33-18-15-51s34-24 51-15Zm51 322l515 206c18 7 35 14 21 48 -14 35-31 28-49 21l-515-206c-17-7-34-14-21-48 14-35 31-28 48-21Zm224 434c137 33 261 48 358 31 88-16 155-60 191-146v-493c-107-1-212-15-303-41 -109-31-170-98-201-178 -41-107-27-235-4-329 5-18 9-36 45-27s32 27 27 45c-20 82-33 194 1 284 23 60 69 110 152 133 91 25 198 38 307 38 107 0 214-13 304-40 82-24 148-69 192-123s65-117 57-176c-5-36-24-62-49-80 -34-24-82-35-128-37 -47-2-94 7-142 16 -25 5-50 9-77 13 -19 2-37 5-42-32s14-40 32-42c23-3 48-8 73-12 52-10 105-20 159-18 60 2 121 18 168 51 42 29 72 72 80 131 11 80-16 163-73 233 -53 65-131 119-229 147 -83 24-178 38-274 42v483c3 5 3 11 2 16 37 82 102 125 188 141 97 18 221 2 358-31 18-5 36-9 45 27 8 37-9 41-28 45 -146 35-279 51-388 32 -92-17-165-58-215-132 -49 74-124 115-215 132 -109 20-242 4-388-32 -18-4-37-8-28-45 8-36 27-32 45-27Zm356 210l402-9c19 0 38-1 38 37 1 38-18 38-37 38l-402 9c-19 0-37 1-38-37s18-38 37-38Zm593-3082c151-125 293-227 423-297 133-72 254-111 359-106 19 1 37 1 36 39 -1 37-20 37-39 36 -92-4-200 32-322 97 -125 67-263 166-410 289 -14 12-29 24-53-5s-9-41 5-53Zm-605 56c-141-130-298-240-445-314 -139-71-268-108-363-100 -19 2-37 4-40-34 -4-37 15-39 34-40 110-10 252 31 404 107 152 77 315 191 461 325 14 13 28 25 2 53 -25 27-39 15-53 2Zm-213 1004c37-83 83-155 136-219 53-63 112-119 174-170 14-12 29-24 52 5 24 29 9 41-5 53 -59 48-114 101-164 160 -49 59-91 125-125 201 -8 17-15 34-49 19s-27-32-19-49Zm371-1734c49 66 88 139 114 223 26 82 40 175 39 279 5 80 6 165-7 249 -13 86-42 170-97 246 -43 60-101 97-165 113 -53 13-109 10-164-7 29 100 51 208 6 308 -8 18-33 27-51 18 -43-22-86-43-128-62s-84-36-127-51l-1-1c-95-37-173-73-236-112 -65-39-115-80-150-124l1 2c-44-49-72-106-88-170 -14-55-20-114-22-174 -72-39-138-78-194-116 -64-43-118-87-161-131 -13-14-26-27 1-53s40-12 53 1c39 40 89 80 150 121 60 40 128 81 204 121 124 13 247 51 370 109 106 50 211 115 317 192 13 7 19 16 27 20 8 6 16 13 25 19 51 22 104 28 152 16 47-11 90-39 122-84 48-66 72-139 84-214 12-77 11-157 6-234v-2c1-97-12-183-35-258 -24-76-58-142-102-201 -11-15-22-30 7-52s41-7 52 7Zm-375 1047c-104-77-207-141-311-190 -105-49-210-83-314-98 2 48 8 93 18 135 13 52 35 99 71 138l1 1c30 37 73 72 130 107 60 36 134 71 225 106l-1-1c45 16 89 34 133 54 31 14 61 28 93 44 19-83-10-179-37-267 -2-8-5-15-9-29Zm776-1003c-44 59-79 125-102 201 -24 76-36 161-35 258v2c-5 77-6 158 6 234 12 75 37 148 84 214 32 45 75 72 122 84 48 12 101 6 152-16l25-19c6-4 13-12 27-20 105-77 211-143 317-192 123-58 246-95 370-109 75-40 144-80 204-121s111-81 149-121c13-13 26-27 53-1s14 39 0 53c-43 44-97 88-161 131 -57 38-122 77-194 116 -2 61-8 119-22 174 -16 63-44 121-88 170l1-2c-35 44-85 85-150 124 -63 38-141 75-237 112l-1 1c-43 15-85 32-127 51 -43 19-85 40-128 62 -18 9-43 0-51-18 -45-100-23-208 6-308 -55 18-111 20-164 7 -64-15-122-53-165-113 -55-76-84-160-97-246 -13-85-12-169-7-249 -1-104 13-196 39-279 26-84 65-158 114-223 11-15 22-30 52-7 30 22 19 37 7 52Zm940 715c-105 15-209 49-314 98 -104 49-207 113-311 190 -4 13-6 21-8 29 -27 88-56 184-37 267 31-15 62-30 93-44 44-20 87-38 133-54l-1 1c91-35 165-70 225-106 58-34 100-70 131-107l1-1c35-39 57-86 71-138 11-42 16-87 19-135Z" id="f"/><path d="M205075 47978c-51-26-124 17-162 95s-33 170 19 196c40 20 84-6 119-56l22-36c2-3 4-6 5-9 38-78 49-163-2-188Zm-5008 0c52-26 124 17 162 95s39 165-13 191 -103-24-141-102 -60-158-9-184Zm4539 905c-32 0-59 27-59 59s26 59 59 59 59-26 59-59c0-32-26-59-59-59Zm-4032 0v0c-32.65.05-59.06 26.55-59 59.2 .05 32.64 26.55 59.05 59.2 59 0-.01 0-.01 0-.01v0c32.64-.06 59.05-26.56 59-59.2 -.06-32.65-26.56-59.06-59.2-59Zm4294-304c-754-91-1506-133-2260-133s-1509 41-2269 115c-26 8-21 90 14 86 756-73 1507-113 2256-113 743 0 1485 40 2228 129 39 4 54-80 32-84Z" id="b"/><path d="M202545 46585c-18-2-44 10-69 45 -186 250-359 469-545 720 -195 61-242 180-167 348 -261-26-291 193-302 432 -250-379-522-482-814-307 -11-230-187-338-439-392 -180-10-319-65-436-145 -60-42-110-64-170-106 -126-88-226-5-172 74 267 434 535 868 802 1302 -14 80 6 151 88 204 47 133 93 265 140 397 -11 38-21 75-32 113 -221-105-443-118-664-133 -170-8-287-50-361-137 -54-63-91-26-92 82 -3 534 162 1014 599 1492 -231 4-462 11-694 21 -79 6-95 39-73 104 126 304 339 579 822 766 -208 112-327 285-357 520 -9 224-75 382-212 455 -60 32-81 65-24 106 253 185 565 193 895 112 -157 270-226 553-198 850 208 56 412 15 614-52 -29 61-44 175-52 309 -7 115-41 229-104 343 -32 33-65 84 4 102 336 91 648 52 915-47 0 243 2 487 76 727 18 58 70 102 125 26 155-214 322-396 527-517 31 90 75 168 156 215 96 55 147 170 153 343 0 30-2 60 35 90 149 7 514-380 589-597 206 121 284 246 439 461 55 76 99 29 128-25 62-243 67-481 66-724 267 99 579 138 915 47 69-19 36-70 4-102 -62-114-105-250-113-365 -9-133-14-226-43-287 202 68 405 108 614 52 29-297-53-579-211-850 330 80 655 73 908-112 57-41 35-74-24-106 -136-73-203-231-212-455 -30-235-149-409-357-520 483-187 696-463 822-766 22-66 6-99-73-104 -231-10-480-24-711-27 437-478 606-961 604-1495 -1-108-38-146-92-82 -74 87-179 137-348 146 -222 15-435 24-656 128 -11-38-21-75-32-113 46-132 106-260 153-393 82-53 102-123 88-204 267-434 513-868 781-1302 54-79-46-162-171-74 -60 42-110 64-170 106 -117 80-257 134-437 145 -251 54-417 167-428 397 -293-175-564-73-814 307 -11-239-41-457-302-432 75-168 17-291-178-352 -186-250-458-470-644-720 -31-35-51-47-69-45Z" id="a"/><path d="M203459 50602v0c-119.57 0-216.5 96.93-216.5 216.5 0 119.56 96.93 216.5 216.5 216.5h-.001c119.56-3.64 213.55-103.52 209.91-223.09 -3.48-114.47-95.46-206.44-209.92-209.92Zm0 69c-81 0-147 66-147 147s66 147 147 147 147-66 147-147 -66-147-147-147Zm0 60h-.001c-48.08.02-87.03 39.02-87 87.1 .02 48.07 39.02 87.02 87.1 87 0 0 0-.01 0-.01v0c48.07-.03 87.02-39.03 87-87.1 -.03-48.08-39.03-87.03-87.1-87Zm-1697-124c119 0 217 97 217 216s-97 217-217 217v0c-119.57-3.64-213.56-103.52-209.92-223.09 3.47-114.47 95.45-206.44 209.91-209.92Zm0 69c81 0 147 66 147 147s-66 147-147 147 -147-66-147-147 66-147 147-147Zm0 60h-.001c48.07.02 87.02 39.02 87 87.1 -.03 48.07-39.03 87.02-87.1 87 0 0-.01-.01-.01-.01v0c-48.08-.03-87.03-39.03-87-87.1 .02-48.08 39.02-87.03 87.1-87Z" id="g"/><path d="M200319 48495c768-75 1530-117 2289-116 754 0 1507 42 2261 133l111-184c-32 10-62 9-90-5 -76-38-92-161-36-274 56-114 164-175 240-138 39 19 62 62 68 114l446-739c-204 130-328 214-581 252 -281 41-409 139-368 307 38 156-57 133-201 54 -314-171-541 71-652 353 -73 186-159 181-168-13 -4-70 0-131-7-200 -21-223-89-286-216-224 -161 78-175 25-137-58 28-60 86-128 66-221 -9-67-66-92-151-98 -182-244-467-483-649-727 -182 244-374 483-556 727 -86 5-142 30-152 98 -20 93 52 157 80 217 38 82 23 135-137 57 -127-61-186-3-207 220 -7 69-10 139-13 209 -9 194-95 199-168 13 -111-282-352-524-667-353 -145 79-203 102-182-54 23-172-107-266-388-307 -253-37-377-122-581-252l419 682c12-25 29-45 53-57 76-38 184 24 240 138 56 113 40 237-36 274 -10 5-21 8-32 10l100 163Zm4389 911c-7 3-7 4-24 11 -46 19-80 66-134 124 -57 60-128 125-211 188 -12 10-25 19-44-6s-7-35 6-44c80-62 149-124 204-182 30-32 56-63 77-92 -95-11-190-21-284-30 -79 24-157 55-222 95 -59 35-107 77-137 125 -8 14-16 27-44 11 -27-16-19-30-11-44 35-58 91-107 158-147 33-20 69-38 106-54 -107-9-214-18-321-25 -22 13-42 29-61 47 -20 19-39 42-56 67 -9 13-18 26-44 8s-18-31-8-44c19-29 41-54 64-77l9-9c-80-5-161-10-241-14 -2 2-5 5-8 7v-.001c-40.38 34.2-72.22 77.34-93 126 -6 15-12 29-41 18 -29-12-23-26-17-41 12-29 27-55 45-81 8-11 18-22 27-33 -115-5-230-9-344-12 -4 5-9 8-14 11 -25 15-47 32-66 51s-35 40-48 63c-8 14-16 28-43 12 -28-16-20-29-12-43 16-28 35-54 59-77 7-7 14-13 21-19 -122-2-244-4-365-4 -120 0-240 1-360 3 8 7 15 13 22 20 23 23 42 49 59 77 8 14 16 27-12 43s-35 2-44-12c-13-23-29-44-48-63s-41-36-66-51c-6-3-12-7-15-12 -115 2-230 6-345 11 11 11 20 23 29 35 19 25 33 52 45 81 6 15 12 29-17 41s-35-3-41-18c-9-24-22-46-38-67 -15-21-34-41-55-59 -4-3-7-6-10-10 -81 4-162 8-243 13 4 4 9 8 13 12 24 23 45 48 64 77 9 13 18 26-8 44s-35 5-44-8c-18-26-36-48-56-67s-41-35-64-49c-1-1-3-2-5-3 -110 7-220 14-330 23 43 18 85 38 122 61 67 40 124 89 158 147 8 14 16 27-11 44 -27 16-35 3-44-11 -29-48-78-90-137-125 -72-44-159-77-246-102h-2c-90 7-179 15-268 24 22 33 51 68 86 106 55 58 124 120 204 182 13 9 25 19 6 44s-32 15-44 6c-83-64-155-128-211-188 -37-38-99-111-135-140 -196-90-354-127-575-147 -153-14-318-9-458-79 36 85 75 164 126 229 53 68 120 121 209 147 8 2 21 16 22 25 28 157 84 286 169 386 52 60 114 110 188 149 -75-81-132-166-172-251 -67-142-90-286-77-420 1-16 3-32 34-29 32 3 30 19 29 35 -11 123 9 256 72 387 56 118 159 237 291 346 24 19 0 63-29 55 -154-44-290-123-383-231 -89-104-149-237-180-397 -94-32-165-90-222-164 -47-60-85-131-118-205 28 428 182 801 456 1137 61 75 165 182 255 216 92 35 95 100-20 101 -34 1-69 1-105 1 84 31 164 66 233 105 127 73 217 162 224 273 1 16 2 32-29 34 -32 2-33-14-34-29 -6-86-82-160-192-223 -113-65-259-117-402-160 -154 0-312-1-459 3 39 28 80 57 131 84 82 44 188 86 343 122 89 21 166 52 233 91 71 42 130 93 177 150 10 12 20 25-5 45s-34 8-45-5c-42-52-95-98-159-135 -61-36-133-64-216-84 -161-38-272-81-358-128 -75-40-131-82-184-123 180 393 450 573 835 689 23 7 43 13 61 19 3 1 6 1 9 2 86 21 175 40 266 55 92 15 166 28 261 37 16 1 32 3 29 34 -3 32-19 30-34 29 -99-9-174-22-266-38 -58-10-115-21-171-33 -26 6-64 9-107 12 -232 14-420 225-435 494 0 5 0 11-1 16 88-80 179-157 273-212 117-68 239-103 364-69 15 4 31 8 22 39 -8 31-23 27-39 22 -106-28-212 3-316 63 -108 63-213 158-315 253 -24 147-82 285-205 377 61 34 104 65 163 45 86-39 172-78 261-108 91-31 184-52 282-57 16-1 32-1 33 31s-14 32-31 33c-91 4-179 24-264 53 -75 26-149 58-222 91 221 47 460-1 667-79 60-22 105-42 133-41 51-30 112-53 172-79 66-28 132-51 182-57 16-2 32-4 35 28 4 32-12 33-28 35 -112 13-127 21-222 79 0 21-66 57-126 96 -36 24-70 52-87 67 -95 86-144 181-188 287 -29 70-52 145-68 224 55-108 121-211 201-303 94-108 208-201 345-265 14-7 29-13 42 15 13 29-1 35-15 42 -129 60-236 147-324 250 -90 103-161 222-219 345 -31 64-8 1-42 86 110-122 212-224 323-307 132-100 283-157 418-133 15 3 31 6 26 37s-21 28-37 26c-116-21-250 32-369 121 -121 92-244 223-366 361 184 26 366-26 542-85 91-30 183-135 239-152 19-24 38-46 57-67 33-37 67-71 102-100 12-10 24-20 45 4s8 34-4 45c-33 28-65 60-96 94 -32 35-62 73-92 113 -6 8-13 17-24 16 -60 70-151 162-172 240 -57 210-25 370-122 576 71-38 128-81 175-134 53-60 94-135 128-230 37-104 95-195 167-270 75-77 165-136 261-172 15-5 30-11 41 19s-4 35-19 41c-87 32-169 86-238 157 -66 68-119 151-153 247 -37 102-81 183-141 250 -44 50-95 91-156 127 52-3 78-10 121-7 79-6 211-66 279-119 66-51 116-120 154-206 6-15 13-29 42-16s23 27 16 42c-42 96-99 174-173 231 -56 43-121 75-196 93 161-5 311-42 467-100 65-24 87-168 127-208 32-58 66-112 105-158 47-56 101-101 164-127 15-6 29-12 41 18 12 29-3 35-17 41 -52 21-98 60-139 108 -36 42-68 93-98 147 10 73-51 228-53 305 -7 205-2 409 53 612 53-71 107-134 162-192 0-5 0-10 1-15 18-106 33-219 40-332 7-112 7-223-6-329 -2-16-4-32 27-35 32-4 34 12 35 28 14 111 14 226 7 340 -6 90-16 180-30 269 54-51 53-51 77-103 37-80 59-159 67-237 9-80 5-157-13-230 -4-15-7-31 24-38s35 8 38 24c19 80 25 165 14 252 -8 65-24 132-49 199 56-42 114-82 178-122 -4-75-5-153-3-227 2-68 7-134 18-190 4-20 7-40 47-33s37 27 33 48c-9 50-14 111-16 177 -2 78 0 162 4 243 5 82 49 185 125 230 103 62 158 163 186 274 16-145 17-280 3-400 -17-143-55-267-114-368 -8-14-16-27 12-44 27-16 35-2 43 12 63 110 104 241 122 393 17 146 13 310-13 488 102-82 381-258 352-594 -7-27-16-52-28-75 -7-14-14-28 14-42s35 0 42 14c17 33 30 69 39 110 5 24 8 49 11 76 13-7 45-43 51-39 24 16 58 38 80 54 -21-60-35-120-42-178 -10-87-5-172 14-252 4-15 7-31 38-24s27 23 24 38c-18 73-22 151-13 230 9 77 31 157 67 237 4 8 8 16 5 25 24 21 47 42 70 65 -13-84-22-170-28-255 -8-115-7-230 7-341 2-16 4-32 35-28s29 20 27 35c-13 106-13 217-6 329 7 113 22 225 40 332 1 2 1 5 1 7 54 59 95 120 152 196 55-203 73-407 66-612 -2-76-69-227-65-302 -30-55-63-107-100-151 -41-49-87-87-139-108 -15-6-29-12-18-41 12-29 27-24 41-18 62 26 117 71 164 127 38 45 72 98 103 154 57 7 78 179 143 212 154 57 298 94 453 100 -75-19-140-50-195-93 -74-57-131-135-173-231 -6-15-13-29 16-42s35 2 42 16c38 86 88 156 154 206 85 66 289 124 400 127 -61-37-113-78-157-128 -59-67-104-148-141-250 -34-95-87-179-153-247v0c-66.57-69.52-147.91-123.17-238-157 -15-6-29-11-19-41 11-29 26-24 41-19 96 36 186 94 261 172 72 74 130 166 167 270 34 95 75 169 128 230 47 54 105 98 177 135 -98-207-66-367-122-577 -35-129-232-277-193-320 45-51 133 88 248 127 175 59 357 111 540 85 -122-138-244-269-366-361 -119-90-237-140-352-120 -16 3-31 6-37-26 -5-31 10-34 26-37 135-24 269 32 401 132 111 84 201 175 311 298 -18-47 0-14-30-77 -59-123-130-241-220-345 -89-102-196-189-324-250 -14-7-28-13-15-42 13-28 28-22 42-15 137 65 251 157 345 265 81 93 147 198 203 307 -15-81-39-157-68-227 -44-106-93-201-188-287 -62-56-209-140-208-179 -29-15-33-11-63-24 -61-26-121-46-164-52 -16-2-32-4-28-35 4-32 19-30 35-28 50 6 115 28 182 56 33 14 66 43 98 60 53 4 139 47 208 74 206 78 446 126 666 79 -73-33-147-65-223-91 -85-29-172-49-264-53 -16-1-32-1-31-33s17-31 33-31c98 4 191 26 282 57 89 30 175 69 261 108 59 27 101-7 163-45 -123-92-181-230-205-376l-2-2c-102-95-207-190-315-253 -104-60-210-91-316-63 -15 4-31 8-39-22 -8-31 7-35 22-39 125-33 247 1 364 69 94 55 186 132 274 213 0-6-1-11-1-17 -15-270-203-480-435-494 -78-5-189 21-186-32 4-59 97-44 234-86 385-116 655-296 836-690 -54 41-110 83-186 124 -86 47-198 91-358 128 -82 19-154 48-216 84 -64 38-117 84-159 135 -10 12-20 25-45 5s-14-32-5-45c47-57 106-108 177-150 67-39 145-70 233-91 155-36 261-78 343-122 51-27 92-55 131-84 -148-4-305-3-459-3 -143 44-289 96-402 160 -110 63-186 136-192 223 -1 16-2 32-34 29 -32-2-31-18-29-34 8-111 97-200 224-273 69-39 149-74 233-105 -35 0-70 0-104-1 -116-2-112-66-20-101 90-34 190-141 251-216 271-334 412-714 456-1130 -33 72-69 140-115 198 -57 73-128 131-222 164 -31 160-91 293-180 397 -92 108-216 185-369 230 -29 8-52-35-29-55 132-109 221-226 278-344 62-131 83-264 72-387 -1-16-3-32 29-35 31-3 33 13 34 29 12 134-10 278-78 420 -40 85-97 170-172 251 73-39 136-89 187-149 85-100 141-229 170-386 1-8 14-22 22-25 89-27 155-79 209-147 51-65 90-143 126-228 -140 69-304 64-457 78 -213 19-369 68-554 152Z" id="c"/><path d="M200570 49160c683-71 1362-110 2038-110 675 0 1349 40 2025 127l31-127c-17 9-37 15-58 15h0c-67.94.13-123.12-54.83-123.25-122.76 -.14-67.94 54.82-123.12 122.75-123.25 49.47-.1 94.18 29.45 113.49 74.99l60-170c-724-84-1446-122-2171-122 -729 0-1459 38-2193 107l58 164c22-32 59-54 101-54v0c67.93 0 123 55.06 123 123 0 67.93-55.07 123-123 123 -12 0-25-2-36-6l33 94 -2 7Zm3067-416v0c-67.94 0-123 55.06-123 123 0 67.93 55.06 123 123 123v0c67.93 0 123-55.07 123-123 0-67.94-55.07-123-123-123Zm0 64h0c-32.59 1.89-57.47 29.85-55.57 62.43 1.74 29.93 25.62 53.81 55.56 55.56 32 0 59-27 59-59s-26-59-59-59Zm-1082-91v0c-67.94 0-123 55.06-123 123 0 67.93 55.06 123 123 123 67.93 0 123-55.07 123-123 0-68-55-123-123-123Zm0 64v0c-32.65.05-59.06 26.55-59 59.2 .05 32.64 26.55 59.05 59.2 59 0-.01 0-.01 0-.01v0c32.64-.06 59.05-26.56 59-59.2 -.06-32.65-26.56-59.06-59.2-59Zm-1064-40v0c-67.88-2.8-125.17 49.96-127.96 117.83 -2.8 67.87 49.96 125.16 117.83 127.95 3.3.13 6.61.13 9.91 0v0c67.87-2.69 120.72-59.89 118.04-127.77 -2.54-64.04-53.82-115.41-117.85-118.04Zm0 64c-33 0-59 26-59 59s26 59 59 59h-.001c32.58-1.9 57.46-29.86 55.56-62.44 -1.75-29.94-25.63-53.82-55.57-55.57Z" id="e"/><path d="M204649 49231c-680-88-1359-113-2041-114 -684 0-1369 40-2058 112 -20 6-15 33-14 46 2 28 37 35 121 27 643-60 1285-93 1932-93 674 0 1351 21 2038 102 33 9 77-85 22-81Z" id="d"/></defs><path fill="#171796" d="M0 0h640v480H0Z"/><path fill="#FFF" d="M0 0h640v320H0Z"/><path fill="#F00" d="M0 0h640v160H0Zm320 364.1c51.3 0 93.3-42 93.3-93.3V160H226.7v110.8c0 51.4 42 93.4 93.3 93.4Z"/><path fill="#FFF" d="M320 362.6v0c50.5-.11 91.43-41 91.6-91.5V161.8H228.5V271h0c.16 50.46 41.03 91.33 91.5 91.5Z"/><g fill="#F00"><path d="M267.1 165.2H232v38.7h35.2Zm0 77.4h35.3v-38.7H267ZM232 270.9c0 3.5.2 7 .6 10.4h34.6v-38.7H232v28.3Zm105.7-28.3h-35.2v38.7h35.2Zm0 77.4h35.2v-38.7h-35.2Zm35.2 21.2v0c7.81-5.92 14.61-13.08 20.1-21.2h-20v21.2ZM267.1 320h35.3v-38.7H267Zm-20.1 0h-.001c5.48 8.12 12.28 15.28 20.1 21.2V320h-20.1Zm79.1 38.7c4-.3 7.7-.8 11.5-1.6V320h-35.2v37.1 0c3.76.78 7.56 1.31 11.4 1.6 4.1.3 8.2.2 12.3 0Z"/><path d="M407.4 281.3c.4-3.4.6-6.9.6-10.4v-28.3h-35.2v38.7h34.6Zm-69.8-38.7h35.2v-38.7h-35.2Zm0-77.4h-35.2v38.7h35.2Zm70.4 38.7v-38.7h-35.2v38.7Z"/></g><path fill="#FFF" d="M410 158.8l21.8-49.5 -16.6-26.8 -27.6 10.2 -19.4-22.2 -25.4 14.7L320 66.5l-22.7 18.6 -25.5-14.6 -19.4 22.2 -27.6-10.3 -16.6 27 21.8 49.4 -.001-.001c28.28-12.78 58.96-19.36 90-19.3 32 0 62.5 6.9 90 19.3Z"/><path fill="#0093DD" d="M253 94.8l-27.4-10 -15.3 24.7 5.9 13.3 14.8 33.7v0c11.17-4.96 22.75-8.97 34.6-12L253 94.8Z"/><path fill="#FFF" stroke="#000" stroke-width=".3" d="M251.4 119.3h-.001c1.03 1.9 1.57 4.03 1.6 6.2 0 7.3-6 13.3-13.4 13.3h-.001c-6.39-.03-11.87-4.55-13.1-10.8v0c2.35 4.25 6.83 6.89 11.7 6.9h-.001c7.4-.02 13.39-6.02 13.38-13.42 -.01-.74-.07-1.47-.19-2.19Z"/><path d="M227.6 114l1-4.9 -3.8-3.2 -.1-.1 .2-.1 4.6-1.6 1-4.8v-.2l.2.1 3.7 3.2 4.6-1.6h.2v.2l-1 4.8 3.7 3.2 .2.2h-.3l-4.6 1.6 -1 4.8v.2l-.1-.1 -3.7-3.2 -4.6 1.6h-.3Z"/><path fill="#F7DB17" d="M233.6 107.6l3.5 3 4.3-1.5Zm0-.2l7.8 1.6 -3.4-3Zm-8.3-1.6l7.8 1.5 -3.5-3Zm7.8 1.7l-7.8-1.5 3.4 3Zm.4-.3l5.2-6 -4.3 1.5Zm-5.6 6.4l5.2-6 -4.3 1.5Zm5.3-5.9l-5.2 6 4.3-1.5Zm5.6-6.4l-5.2 6 4.3-1.5Zm-5.6 6l-2.6-7.6 -.9 4.5Zm2.7 8l-2.5-7.5 -.9 4.5Zm-2.4-7.6l2.6 7.5 .9-4.5Zm-2.7-8l2.5 7.5 1-4.5Z"/><path fill="#171796" d="M297.5 87.4L272.1 73 253 94.9l12.6 49.6v0c11.84-3 23.92-5.01 36.1-6l-4.2-51.1Z"/><path fill="#F00" d="M262.5 132.2v0c12.53-3.2 25.31-5.34 38.2-6.4l-1-12.9 -.001-.001c-13.63 1.1-27.15 3.34-40.4 6.7l3.2 12.6Zm-6.3-25v0c13.91-3.51 28.09-5.85 42.4-7l-1.1-12.7v-.001c-15.02 1.22-29.9 3.69-44.5 7.4l3.2 12.3Z"/><g transform="matrix(.00237 0 0 .00237-160 0)"><path fill="#0093DD" d="M212105 36890l-23 13 -9517-7794 -9497 7778 1788 21560c2543-210 5113-322 7709-322 2608 0 5190 113 7744 325l1795-21560Z"/><use xlink:href="#a"/><g fill="#F7DB17"><use xlink:href="#b"/><use xlink:href="#c"/><use xlink:href="#d"/><use fill="#F7DB17" fill-rule="evenodd" xlink:href="#e"/></g><g><use xlink:href="#f"/><use fill-rule="evenodd" xlink:href="#g"/></g><g transform="rotate(-2.19998-55532.8 156276)"><use xlink:href="#a"/><g fill="#F7DB17"><use xlink:href="#b"/><use xlink:href="#c"/><use xlink:href="#d"/><use fill="#F7DB17" fill-rule="evenodd" xlink:href="#e"/></g><g><use xlink:href="#f"/><use fill-rule="evenodd" xlink:href="#g"/></g></g><g transform="rotate(2.19998 459866 156276)"><use xlink:href="#a"/><g fill="#F7DB17"><use xlink:href="#b"/><use xlink:href="#c"/><use xlink:href="#d"/><use fill="#F7DB17" fill-rule="evenodd" xlink:href="#e"/></g><g><use xlink:href="#f"/><use fill-rule="evenodd" xlink:href="#g"/></g></g></g><path fill="#171796" d="M387.2 94.9l-19.3-22 -25.2 14.5 -4.3 51.1v0c12.21.98 24.32 2.99 36.2 6L387.2 95Z"/><path d="M347.7 98c.8-.2 1.7-.2 2.6.3 .3.1.6.3.8.6 .4-.3.7-.6 1.2-.8v0c.5-.49 1.12-.83 1.8-1 .9-.5 1.8-.8 2.7-.9h2.8c.8 0 1.6.2 2.3.6l2 1c.8.4 1.5.8 2.2 1v0c1.43.54 2.98.71 4.5.5 .4-.2.7.1.2.4 -3.3 2-5.9.2-8.1-.6v-.001c.74.5 1.44 1.07 2.1 1.7 .8.8 1.8 1.6 3.5 2.4v0c1.55.74 3.3.98 5 .7l.4.1 -.1.5v-.001c-.79.47-1.69.71-2.6.7v0c-1.82.04-3.62-.41-5.2-1.3 -1.4-.7-2.3-1.6-3.3-2.4v-.001c-.89-.69-1.91-1.17-3-1.4v-.001c-.96-.24-1.95-.24-2.9 0 .3.1.5.2.6.4 .5.3 1 .4 2 .5 .4 0 .2.3-.5.7v-.001c-.38.5-.98.8-1.6.8 -1 .6-1.3.2-1.7-.2 0 .3 0 .5-.2.8v0c.04.12.04.27 0 .4l.2.7c0 .2 0 .3.2.4 .2.2.3.4.3.7 0 .2.1.3.3.4l.6.6c.6.2.8.7 1 1.2 .4.2.6.5.7.9 .2 0 .4.2.6.4l2.6.1c.8.1 1.4.6 2 1.2h1.2v-.001c.41-.18.85-.28 1.3-.3h2.3c.5.2.9.4 1.2.8 .5.5 1.2.4 1.8.2l-.001 0c.75-.38 1.64-.38 2.4-.001v0c.31-.15.65-.21 1-.2 .4-.3.7-.4 1-.4 .6 0 1 0 .9.8 0 .2-.2.4-.3.4 -.3.6-.7.7-1.3.7 -.1.4-.3.7-.5.8 .3.9 0 1.3-.7 1.2 0 .3-.3.4-.6.4v0c-.25.29-.62.47-1 .5l.4.6c.4.7-.2 1-.8 1v1.2c.7.4.8.8.2 1.2 .4.7.3 1.3-.5 1.6 0 .4 0 .8-.3 1 -.2.2-.5.3-.3.6 .3.5.2 1.1-.2 1.2l-.2.1 -.2.2v-.001c-.54.28-1.04.62-1.5 1 -.1 0-.2.1-.2 0h-.001c-.48.88-1.08 1.69-1.8 2.4 0 .5-.4 1-1 1.1h0c0 .18-.12.35-.3.4 .3.3.5.6.2 1v0c-.36.37-.81.64-1.3.8 -1 .3-1.7.2-2-.2 -.4-.3-.3-.6 0-.7 -.7 0-.8-.2-.8-.7 0-.2.1-.2.3-.1 .4 0 .7-.2 1-.3l.5-.6c0-.7.5-1 1.1-1.3 .5-.2 1-.6 1.4-1.2l.9-1.5v0c-.18-.2-.28-.45-.3-.7v-.001c-.22-.16-.39-.36-.5-.6 -.5 0-.7-.2-.7-.5h-.001c-.1.01-.21.01-.3 0 -.3.1-.5.3-.7.2v0c-.33.37-.7.7-1.1 1 -.2.3-.4.5-.7.5 -1 .1-1.5 1.2-2 1.7 -.2.1-.3.4-.4.7 0 .6-.1 1-.4 1h-.4l0 0c-.14-.03-.27-.03-.4-.001 .3.3.3.6 0 .9 -.1.3-.4.4-.8.4v0c-.55.05-1.09-.02-1.6-.2 -.4-.2-.5-.5-.5-.7 -.3-.2-.4-.3-.3-.5 0-.2.2-.3.4-.2l.6-.2v0c.48-.6 1.1-1.08 1.8-1.4l0 0c.19-.28.42-.51.7-.7 0-.5.5-1 1-1.4l.1-.6v-.3c-.2-.3-.3-.7-.1-1v0c-.05-.2-.05-.41 0-.6 -1.1.6-1.5.4-1.6-.1 -.4.3-.8.5-1 0 -.4.1-.8.3-1.2.1l-.8.2 -.4.7c0 .5-.2 1-.5 1.5v0c-.19.51-.43 1.02-.7 1.5v0c.01.17-.03.34-.1.5 0 .6-.2.9-.5 1v0c-.09.28-.22.56-.4.8v.2c.1.3.1.7-.2 1l-1 .6h-1c-.4-.3-.4-.4-.3-.6v0c-.16.07-.35.07-.5 0l-.4-.3c-.1-.2-.1-.4.1-.5l.9-.6c0-.2.2-.3.4-.4 .2-.4.4-.6.6-.7l.7-1.5c.1-.1.2-.3.1-.4l.1-.3s.2-.1 0-.2v-.001c-.12-.41-.05-.86.2-1.2 .3-.4.6-1.4.3-2v-.8h-.3c-.2-.2-.4 0-.6.2l-.4.6c-.1.8-.5 1.5-1 1.6v1.2c0 .4 0 .7-.2.7s-.4.2-.5.5v0c-.05.09-.09.19-.1.3 .3.3.2.7-.1 1 -.6.6-1.4.5-2.2.3 -.6-.3-.8-.5-.7-.8 -.8 0-.7-.7 0-.9 .8-.2 1.4-.7 1.9-1.4 0-.8.2-1.3.7-1.4 0-.5.2-1 .4-1.4 .2-.4.3-.8.2-1.3 -.4-.3-.4-.6 0-1 .1 0 .1 0 0-.2 -.3 0-.3-.3-.3-.5s0-.2-.2-.2c-.6-.1-.5-.4-.2-.7 .1 0 .2-.3 0-.4l-.1-.4c-.4-.3-.2-.6 0-.9l-.4-.8c-.7 0-1-.4-.6-.9v0c.2-.24.44-.44.7-.6 .1-.3.3-.6.2-.8 -.2-.6.5-1 1-1.4v0c-.07-.13-.1-.27-.1-.4 -.3-.3-.2-.6.1-.8v0c-.08-.16-.12-.33-.1-.5 -.8.2-.8-.3-.4-1 -.5-.3-.4-.8.5-1.5v0c-.03-.14-.03-.27 0-.4v-.001c-.36 0-.7.11-1 .3 -.3.3-.6.2-.9.1v0c-.11-.16-.25-.3-.4-.4h-.001c-.18-.15-.26-.38-.2-.6 -1 0-1.1-.7-.6-1 .3-.3.6-.6.7-.9 .2-.6.7-1 1.3-1.5v-.5l-.001 0c-.21-.16-.45-.26-.7-.3v0c-.1-.31-.32-.56-.6-.7 -.1 0-.2-.2 0-.4 -.6-.4-.5-.7-.3-1Z"/><g fill="#F7DB17"><path d="M364.5 122h0c-.07 0-.14 0-.2 0v-.001c-.26.24-.52.48-.8.7 -.2-.3-.5 0-.2.1l-.2.2c0 .3-.2.4-.5.4h-.1v0c-.01-.1-.01-.21 0-.3v0c-.01-.14-.01-.27 0-.4v0c-.05.13-.08.26-.1.4v-.001c-.01.13-.01.26 0 .4 -.8.3-1.3 1.1-1.9 1.7l-.4.8c0 .2 0 .9-.3.9h-.2c0-.1-.2-.1-.4 0h-1c-.2.2.4.2.7.3 .1.1.2.3.1.5 -.2.7-1.8.5-2.3.2 -.2-.1-.2-.3-.2-.5h.3c.2 0 .4 0 .5-.2 0 0 .1 0 0-.1 0-.1 0-.1 0 0v0c-.17.03-.34.03-.5 0l0-.001c-.17.01-.34.01-.5 0h-.2c0-.1.2 0 .2 0l.7-.3 -.001 0c.52-.61 1.16-1.09 1.9-1.4l.8-.7c0-.7.4-1 .8-1.5l.3-.7v-.3c-.2-.4-.3-.7-.1-1v0c-.08-.27-.08-.54 0-.8v-.001c0-.04 0-.07 0-.1v-.001c.25-.23.51-.43.8-.6v.8 -.001c-.09.09-.15.19-.2.3v0c-.02.06-.02.13 0 .2v.1 0c-.04-.1-.04-.21 0-.3l.3-.2 .7-.4 .7-.6v1l-.6.7v.1h.1v0c.12-.27.29-.51.5-.7v-.001c.29-.26.63-.47 1-.6v1 0c.05.34.23.66.5.9Z"/><path d="M349 113l.2-.2 .4-.6v0c.14-.22.31-.42.5-.6v0c-.16.21-.3.45-.4.7v0c-.15.15-.28.32-.4.5v.2c.1.3.1.5.3.7l.3-.4v0c.1-.16.24-.3.4-.4v0c.2-.17.37-.37.5-.6h.1l-.2.4v0c-.09.11-.19.21-.3.3l-.4.3v0c-.09.12-.16.25-.2.4v.3c-.2.3-.5.5 0 .7v0c-.05.17-.01.35.1.5l-.1.7c-.3.2 0 .2.1.2l.4-.4v0c.09-.14.19-.28.3-.4l.4-.5 .1-.5h.1v-.001c.01.2-.03.4-.1.6v0c-.14.19-.31.36-.5.5v-.001c-.08.12-.15.26-.2.4l-.001 0c-.12.12-.22.25-.3.4 .2.1.2.4.2.7h.1l.2-.2 .2-.4h.1l-.2.4 -.2.3c.2.1.2.3 0 .5 -.4.3-.3.4 0 .7v1.2l.1.3h-.1v-.3c-.4.7-.6 1.1-.7 1.8 -.6.1-.5.8-.6 1.3v0c-.46.68-1.13 1.21-1.9 1.5 -.1 0-.5.1-.5.3 0 .1.2.3.4.2 .4-.5.7-.2.2.2v.3c.5.4 1.6.5 2.2.2 .3-.3.5-.5.2-.9 0-.5.2-1 .8-1.2v-.4l.1-1.3 .2-.1c.2 0 .6-.7.7-1.3v-.4c.1-.2.2-.2.3 0 0-.2 0-.3.2-.4 .2-.3.5-.6.8-.4v0c-.07-.27-.11-.54-.1-.8v-.001c-.07-.34-.07-.67 0-1l.2-.2 .3-.7 .3-.7h.1l-.3.7 -.3.8v.1 0c-.11.32-.14.66-.1 1l.2.9 .2.4v.6c.4.6 0 1.7-.3 2.2v0c-.15.24-.19.53-.1.8 .2.2 0 .4-.1.6v.1c0 .2 0 .4-.2.5l-.7 1.6c-.4.1-.5.3-.6.7 -.3.1-.3.2-.4.4v0c-.26.25-.57.46-.9.6 -.3.1 0 .2.2.4 .2.1.4-.2.6-.4 .2-.3.3-.2.2 0v0c-.11.21-.18.45-.2.7l.7.3c.4 0 .9-.4 1.2-.6 .3-.2.2-.5.1-.8v0c-.17.02-.34.02-.5 0v0c-.18-.09-.35-.19-.5-.3v0c.31.12.65.19 1 .2v-.3h-.001c.21-.24.38-.51.5-.8 .4-.2.4-.4.4-.9l.1-.5v0c.27-.52.51-1.05.7-1.6 .4-.4.5-.9.5-1.4 0-.2.1-.3.3-.3v0c.11-.16.21-.33.3-.5l.1-.4v0c.05-.08.12-.15.2-.2v0c.04-.17.04-.34 0-.5v0c-.01-.14-.05-.28-.1-.4v0c-.05-.06-.09-.13-.1-.2v-.2h.1c.1 0 0 0 0 0v.1 0c-.02.06-.02.13 0 .2 .2.2.2.3.2.5v0c.04.16.04.33 0 .5v-.001c-.08.05-.15.12-.2.2v0c-.01.09-.01.2 0 .3l.6-.1 .4-.5 .2-.6c.1 0 0 0 0 0v0c0 .23-.03.47-.1.7l-.3.3c.4.2.7 0 1 0v-1.3l.4-.7c.1 0 .1 0 0 0l-.2.8v1c.1.4.2.5.5.3l.4-.2v-.1 0c.56-.58 1.16-1.11 1.8-1.6 .1.1 0 .1 0 .1v-.001c-.29.21-.56.44-.8.7l-.8.7v.3c0 .3.1.5.6.3l.6-.2v0c.09-.09.19-.15.3-.2v-.001c.16-.11.32-.21.5-.3l.5-.3v0c.01-.21.04-.41.1-.6l.7-1.3v0c.48-.23.87-.62 1.1-1.1h.1l-.4.7v0c-.21.2-.44.37-.7.5l-.7 1.2v0c-.05.16-.09.33-.1.5v.1 0c-.04.26-.04.53 0 .8 .2 0 .4 0 .7-.3l.7-.7v-.001c.03-.18.1-.35.2-.5v0c.09-.17.23-.31.4-.4h.1v.1 0c-.16.06-.3.16-.4.3v0c-.1.15-.17.32-.2.5v1.1l1-.5v1c0 .3.2.6.4.8v-.001c.13-.23.3-.43.5-.6l.3-.3 .2-.2 .3-.2 -.2.3 -.2.2 -.3.2v.5h.6c0 .5 0 .6.5.6v0c-.02-.17-.02-.34 0-.5l.1-.5h.1v0c-.06.16-.09.32-.1.5v0c-.02.16-.02.33 0 .5 .2.3.3.4.7.6l.2-.5v0c.01-.14.01-.27 0-.4h.1v.5l-.3.5v.5h0c.06-.11.12-.21.2-.3l.3-.4c.1 0 .1 0 0 0 0 .2 0 .3-.2.4l0 0c-.08.12-.15.26-.2.4l.2.2c-.6 1-1.3 2.5-2.5 3 -.6.2-.9.5-1 1.2v0c-.25.12-.43.34-.5.6l-1.2.3c0 .3 0 .4.3.4l.7-.3c.1 0 0 .5-.5.8v.1c.4.6 1.4.4 1.9.2 .4 0 1-.5 1.2-.9 .1-.2 0-.4-.2-.6 -.8.1-.6-.6 0-.3 .2 0 .3 0 .3-.3 .6-.2.9-.5 1-1 .6-.7 1.2-1.4 1.6-2.1 .1-.2.2-.4.1-.5v0c.11-.15.18-.32.2-.5l.1-.4h.1v.5l-.001-.001c-.07.1-.13.2-.2.3 0 .1 0 .2.2.2l1.5-1c0-.3.2-.4.4-.4l.2-.1c.1-.4 0-.6-.2-.8 -.1-.4.1-.5.4-.7 .2-.2.2-.7.2-1v-.2 -.001c0-.1 0-.21 0-.3l.1.3v.1c.3-.1.6-.3.7-.6 0-.3-.1-.6-.3-.8v0c-.2.07-.4.13-.6.2v0c.23-.13.47-.26.7-.4h-.001c.1-.06.2-.12.3-.2 .2-.3-.3-.5-.5-.6l-.7-.7v-.1l.7.6v-1.1l-.2-.4v0c-.21-.09-.38-.23-.5-.4v0c-.08-.16-.12-.33-.1-.5l.2.4 .4.4h1c.3-.3-.2-.7-.3-.9l-.1-.5h.1l-.001 0c-.06-.08-.13-.15-.2-.2v0c-.04-.01-.07-.01-.1 0v-.2 0c.07.02.13.05.2.1l.2.2h-.001c.03 0 .06 0 .1 0 .3 0 .5-.2.7-.5l0-.001c-.1-.15-.2-.28-.3-.4v0c-.17-.11-.34-.21-.5-.3v-.1h.1v0c.3.22.57.49.8.8 .4 0 .4 0 .6-.3h0c-.05-.15-.12-.28-.2-.4v0c-.09-.15-.19-.28-.3-.4 0-.1 0 0 0 0 .2 0 .3.2.4.3l.2.5 .4-.1c.3-.2 0-.8 0-1h0c-.04-.01-.07-.01-.1 0l-.2-.2c0-.1 0 0 0 0h.2l.2.1 .4-.6c0-.4 0-.2.5-.3 .4 0 .6 0 .9-.6 .1 0 .2 0 .2-.3s0-.4-.3-.4c-.5 0-.8 0-1 .3v.3c0 .1 0 0 0 0l-.2-.2c-.4 0-.7 0-1.1.2h-.2l.2.3 .1.4 0-.001c-.04-.15-.11-.29-.2-.4v-.001c-.09-.15-.19-.29-.3-.4v0c-.32-.14-.66-.2-1-.2l.2.1 .2.2v.1 -.001c-.07-.07-.14-.14-.2-.2v0c-.07-.07-.14-.14-.2-.2l0-.001c-.31.01-.62.08-.9.2l-.6.2 .4.5 .2.6v0c-.07-.22-.17-.42-.3-.6v-.001c-.12-.16-.25-.29-.4-.4v0c-.17.02-.34.02-.5 0l.2.3 -.3-.4h-.001c-.18-.04-.35-.11-.5-.2v0c.11.49.17.99.2 1.5l-.001 0c-.05-.31-.12-.61-.2-.9v0c-.02-.24-.05-.47-.1-.7v0c-.08-.07-.14-.13-.2-.2l-.001-.001c-.18-.17-.38-.31-.6-.4h0c.02.25-.05.5-.2.7 -.1 0 0 0 0 0v0c.17-.23.21-.54.1-.8v-.001c-.33-.13-.66-.19-1-.2v-.001c.19.25.35.51.5.8l.3.5v.5 0c-.02-.18-.05-.34-.1-.5l-.001-.001c-.05-.17-.16-.31-.3-.4l-.001 0c-.1-.18-.2-.34-.3-.5v0c-.1-.14-.2-.28-.3-.4h-.4 .1v0c.02.09.02.2 0 .3v0c.01-.07.01-.14 0-.2l0 0c-.07-.05-.13-.08-.2-.1h-.8v0c.52.66.86 1.46 1 2.3v0c-.08-.42-.22-.82-.4-1.2v0c-.2-.37-.43-.7-.7-1h-.6v-.001c.15.11.28.24.4.4 0 .1 0 .1 0 0v0c-.1-.05-.2-.08-.3-.1l0 0c-.1-.08-.2-.15-.3-.2l0 0c-.1-.01-.21-.01-.3-.001l-.1.1v0c.38.31.72.68 1 1.1 0 .1 0 0 0 0v-.001c-.18-.23-.38-.43-.6-.6v-.001c-.19-.15-.4-.29-.6-.4h-.6v0c.26.53.43 1.1.5 1.7h-.1v0c-.04-.28-.11-.55-.2-.8l-.001 0c-.08-.31-.18-.61-.3-.9v0c-.14 0-.27 0-.4 0l0-.001c.14.52.24 1.05.3 1.6v.1h0c-.05-.34-.12-.68-.2-1v-.001c-.09-.28-.19-.54-.3-.8l0-.001c-.36-.43-.81-.77-1.3-1v-.001c.25.3.4.69.4 1.1v.1h0c-.02-.25-.09-.49-.2-.7v0c-.09-.23-.23-.44-.4-.6v0c-.1-.01-.21-.01-.3 0v0c-.34-.02-.67-.02-1 0 .2.1.4.4.4.6 0-.2-.3-.5-.6-.7h-.6l.3.3 .2.5 .2.6 .4.4s.1 0 0 0c0 .1 0 .1 0 0l-.001-.001c-.2-.06-.37-.16-.5-.3v0c-.13-.22-.2-.46-.2-.7l-.001 0c-.05-.15-.12-.28-.2-.4v-.001c-.09-.15-.19-.28-.3-.4h-.7l.2.8 .1 1h-.1v0c.02-.34.02-.67 0-1h-.001c-.08-.28-.18-.55-.3-.8v0c-.13-.25-.35-.43-.6-.5v0c.02.09.02.2 0 .3h-.1v0c.03-.1.03-.21 0-.3 -.2-.5-.3-.7-.6-.8v.4l-.2.4h-.1l.1-.5v-.4c0-.6-.2-1-.8-1.2v.2l-.1.5h-.1v-.5 0c0-.1 0-.21 0-.3l-.5-.5v0c.03.23.03.46 0 .7v0c-.1.28-.23.55-.4.8h-.1v0c.13-.26.23-.53.3-.8v0c.08-.26.11-.53.1-.8l0-.001c-.09-.09-.16-.19-.2-.3v.2h-.1v-.2l.1-.1v-.1 0c-.03-.21-.14-.39-.3-.5v-.001c-.04.17-.11.34-.2.5h-.1c-.1 0 0 0 0 0l.1-.3 .1-.3v0c-.05-.07-.08-.13-.1-.2v0c-.03.07-.06.13-.1.2l0-.001c-.06.07-.13.14-.2.2 -.1-.1 0-.1 0-.1l.1-.2v0c.04-.07.07-.13.1-.2v-.2c0-.3 0-.4-.2-.7v0c-.1-.02-.21-.02-.3 0v0c-.19.11-.35.24-.5.4v-.1l-.001 0c.12-.12.25-.22.4-.3v-.001c.12-.07.26-.1.4-.1v-.001c.01-.07.01-.14 0-.2l-1 .3v0c-.32.02-.63-.05-.9-.2h.8c.3 0 .7 0 1.1-.2l.2-.6v0c-.17.02-.34.02-.5 0l.6-.1v-.2c0-.2.3-.2.4 0 .2 0 .3.2.4.3 .3.2.6 0 .9-.2h-.2v-.1h.3c.6 0 1 0 1.4-.5h0c-.34.02-.67.02-1 0 -.2 0-.4 0-.6-.2l.7.1h1l.5-.3v0c-.7-.07-1.38-.28-2-.6v0c-.18-.15-.38-.26-.6-.3 -.5 0-1 0-1.4.3l-.3-.3 -.4-.2h-.6s-.1 0 0 0h1.2v0c.54-.21 1.11-.32 1.7-.3v0c.55-.16 1.12-.22 1.7-.2v-.2c.3-.3.4-.6.3-.9 -.1-.2-.4-.5-.8-.7h-1.3v0c-.27 0-.54.03-.8.1l.6.4 .4 1v.1h-.2v0c-.04-.37-.18-.71-.4-1 -.1-.2-.6-.3-.7-.4l-1.3.2 -.7.4c.3-.1.6 0 .8 0 .3.2.5.4.6.8v.1h-.2v0c-.06-.3-.24-.56-.5-.7 -.4-.2-1.2 0-1.6.3v-.001c-.22.17-.43.38-.6.6h-.2v-.2l.7-.6 .7-.4v0c.27-.26.62-.44 1-.5l1.3-.2v-.001c-.11-.23-.28-.4-.5-.5v0c-.27-.08-.54-.08-.8-.001 -.5.1-1 .4-1.5.7h.5l.1.2h-.5 -.001c-.14-.02-.27-.02-.4 0l-1.5 1.2c-.5 0-.8 0-1 .2l-.1.6 -.2.7c-.5.5-1 .9-1.3 1.5v0c-.07.18-.17.35-.3.5v0c.1-.001.21.03.3.1v-.2l.2-.4h.1v0c-.06.12-.09.26-.1.4v.5h-.2v0c-.01-.08-.05-.15-.1-.2v0c-.1-.04-.21-.04-.3-.001l-.3.2 -.2.3c0 .3.2.3.5.3 .6 0 .1.4.4.7l.5.4h.5c0-.4 0-.6.2-.6l-.001-.001c.02-.15.09-.29.2-.4v0c-.01.06-.01.13 0 .2v0c-.05.06-.08.12-.1.2v.4 -.001c.31-.14.65-.21 1-.2 .7-.8 1-.6.4 0l-.1.2 -.001-.001c-.12.18-.18.38-.2.6 -.2.1-1 .8-.7 1 .2 0 .4 0 .3.2 -.1.2-.4.6-.3.9h.3v0c.24-.19.48-.39.7-.6v0c.19-.25.36-.52.5-.8h.1v0c.08-.28.18-.54.3-.8 0-.2.1-.5.3-.7l.3.3v0c.06.01.13.01.2 0v-.001c.09.03.2.03.3 0l.2-.3h.1v0c-.08.15-.18.28-.3.4v0c-.1.03-.21.03-.3-.001v0c-.07.01-.14.01-.2-.001v-.001c-.12-.08-.23-.19-.3-.3v0c-.2.45-.37.92-.5 1.4v.1 -.001c-.32.52-.73 1-1.2 1.4l.2.5 1-1 .8-1 -.001-.001c-.09.2-.19.4-.3.6v1.1h-.1v-.9l-.3.3v0c-.32.35-.65.68-1 1 -.3.3-.6.3-.2.7l.3-.3 .4-.3h.1v.1l-.4.3 -.4.3v-.001c0 .1.04.21.1.3v0c.03-.01.06-.01.1 0l.8-.6c.1 0 0 .1 0 .1l-.7.6v0c-.04 0-.07 0-.1 0 -.3.3-1.2.8-1 1.2l.6-.2 .6-.5c.1 0 0 0 0 .1v0c-.18.19-.38.36-.6.5v.2 -.1 0c-.23.05-.47.08-.7.1 .1.4 0 .7-.3 1 0 .1-1 .9-.6 1v0c.08.08.18.15.3.2Z"/><path d="M349.4 100.1h0c-.19-.14-.39-.24-.6-.3v0c-.13-.21-.3-.38-.5-.5 -.2-.2-.2-.1-.1-.3l.2-.1h-.001c.09-.02.2-.02.3 0v0c.08.04.15.11.2.2h.1c.1 0 0 0 0 0v0c-.05-.09-.12-.16-.2-.2v0c-.13-.07-.27-.1-.4-.1v0c-.14-.04-.27-.04-.4 0l-.2-.5 .4.1 .2.1v0c-.06-.08-.13-.15-.2-.2v0c-.07-.01-.14-.01-.2 0v0c.7-.2 1.44-.13 2.1.2 .4.1.6.3.8.6l-.2.2c-.5 0-.8 0-1 .2 -.2.1-.2.4-.2.6Z"/></g><g><path d="M365 121.8l-.4.2c0-.3.2-.4.3-.6v.2l.1.2Zm2 4.2v0c-.12.14-.26.28-.4.4v0c-.16.14-.33.28-.5.4v-.1l.4-.4 .4-.4Zm1.3-1.6l-.2.3h-.1l.2-.3Zm-.7 0l-.001-.001c-.05.11-.12.21-.2.3v0c-.12.18-.3.32-.5.4v-.1 0c.15-.07.29-.17.4-.3v-.001c.06-.13.09-.27.1-.4h.1Zm1.2-1.6v0c-.05.06-.08.12-.1.2v-.001c-.05.06-.08.13-.1.2h-.1 0c.05-.2.15-.37.3-.5Zm1 0v.5l-.3.5c-.1 0 0 0 0 0l.1-.5 .2-.5Zm-.4-6c.3.5.4 1 .4 1.5v0c.02-.21.05-.41.1-.6v0c.25-.31.36-.71.3-1.1 0-.1.1 0 .1 0v.6h0c-.06.21-.17.42-.3.6l-.2 1h-.1v-.1c0-.6 0-1.2-.4-1.8v-.1Zm-.8 1v.3h-.1v-.4h.1Zm-.2 1.4l-.001 0c.11.45.18.92.2 1.4v0c.03-.04.06-.07.1-.1l.3-.3h.1v-.001c-.13.07-.23.17-.3.3v-.001c-.11.1-.18.24-.2.4v0c-.01-.31-.04-.61-.1-.9h-.001c-.05-.28-.12-.54-.2-.8Zm1 .5v0c.1.39.13.79.1 1.2v-.6 0c-.02-.21-.05-.41-.1-.6Zm1-.2v.6 -.001c.02.16.02.33 0 .5v0c-.06.19-.06.4 0 .6l.1.6v-.001c-.13-.19-.23-.39-.3-.6v0c-.05-.2-.05-.41 0-.6v0c.09-.16.16-.33.2-.5v0c.02-.2.02-.41 0-.6Zm.5-1.5l-.1.3v.2h-.1v-.6h.1Zm-.5-2.6v.2c.1 0 .1 0 0 0 0 .1 0 0 0 0v-.2s-.1 0 0 0c0-.1 0 0 0 0Zm.2-2v.8 -.001c-.09.08-.16.18-.2.3v0c-.05.19-.05.4 0 .6h-.1v0c-.05-.2-.05-.41 0-.6v-.001c.06-.16.16-.3.3-.4v-.7Zm-2-.7c.4.2.6.4.8.7 .2.2.3.5.3.9l-.6-.2v1.8c-.2.5-.5.8-1 1v0c.14-.6.14-1.21 0-1.8h.1v0c.12.52.12 1.07 0 1.6v0c.32-.18.57-.46.7-.8v0c.19-.62.23-1.27.1-1.9l.6.2c0-.3-.1-.5-.3-.8v-.001c-.2-.25-.44-.45-.7-.6v-.1Zm5.2-1v.2h-.1v-.2s0-.1 0 0h.1Zm-1.2 0l.3.1v-.001c.04.06.07.12.1.2v.1 -.001c-.06-.08-.13-.15-.2-.2v-.001c-.05-.09-.12-.16-.2-.2Zm-1.8.5l.3.5v.6c-.1 0-.1 0 0 0l-.1-.6 0-.001c-.05-.2-.16-.37-.3-.5h.1Zm-6 .5v.4l-.1.1v-.5Zm1-.6l.2.4v.1h-.1v-.1l-.1-.3Zm2.4 1.6v.1 0c0 .06 0 .13 0 .2v0c0-.07 0-.14 0-.2h-.001c-.04-.01-.07-.01-.1 0v-.1Zm.8-1.8v.2 -.001c.03.06.03.13 0 .2v-.001c.05 0 .1-.05.1-.1 0-.06-.05-.1-.1-.1 -.1-.1-.1-.1 0-.1Zm-5.5.3v0c-.03.25.04.5.2.7 .2.1.2.3.3.4v.4h-.1v-.4 0c-.05-.12-.12-.22-.2-.3v0c-.1-.12-.17-.26-.2-.4v0c-.06-.13-.1-.27-.1-.4Zm2.2 1.5l.2.7v.7c0 .3 0 .6.2.8l.6.7h0c-.1-.33-.13-.67-.1-1l.3-1c.2 0 .2-.2.3-.3v-.4h.1v.4 -.001c-.07.18-.17.35-.3.5v0c-.19.26-.3.57-.3.9 0 .3 0 .6.2 1h-.1c-.4-.2-.6-.5-.8-.8l0-.001c-.16-.24-.23-.52-.2-.8v-.7l0-.001c-.04-.22-.1-.42-.2-.6 0-.1.1 0 .1 0Zm-.9 1.4c0 .2 0 .5-.2.7v0c-.12.21-.25.41-.4.6h.3v-.001c.27-.15.51-.36.7-.6l.3-.3c.1 0 0 0 0 0h0c-.06.13-.13.27-.2.4v-.001c-.1.07-.2.14-.3.2v0c0 .13 0 .26 0 .4v-.2 0c-.04-.04-.07-.07-.1-.1v-.001c-.13.08-.27.14-.4.2l-.4.2v-.1l.4-.7 .2-.7h.1Zm-1 0v.1h-.1c-.1 0 0 0 0 0v-.2Z"/><path d="M363 113.7c.2.3.2.6.2 1v0c-.07.29-.21.56-.4.8v-.001c-.21.16-.38.36-.5.6v0c-.1.19-.16.39-.2.6l.2-.3 .5-.3v0c.41-.25.78-.55 1.1-.9h.1c.1 0 0 0 0 0v0c-.34.4-.74.74-1.2 1v0c-.16.06-.3.16-.4.3v0c-.16.14-.3.31-.4.5 0-.4 0-.7.2-1l.5-.6 .4-.8c0-.3 0-.6-.2-.9h.1Zm2.3 3.5l.1.4 .1.1c.2.3.3.5.3.8l-.1 1h-.1v-.001c-.03-.37-.17-.72-.4-1v-.001c-.24-.24-.51-.45-.8-.6v-.1c.4.2.7.4.9.7l.3.6v0c.01-.2.01-.41 0-.6v-.001c.03-.24-.01-.49-.1-.7l-.1-.2c-.2-.2-.3-.3-.2-.4Zm1 0l.1.2c0 .1 0 0 0 0h-.1l-.2-.2h.1Zm1 .3l-.2.7 -.2.7 .2-.7 .2-.7Zm.7 4v.1 0c-.03-.07-.03-.14 0-.2Zm-.7-1.2v.3l-.2.4v-.4l.1-.4h.1Zm-1 0h.1v.1h-.1v-.1Zm-1.1-.6v0c-.04.06-.07.13-.1.2v.2h-.1v0c-.01-.07-.01-.14 0-.2v0c-.01-.07-.01-.14 0-.2h.1c.1 0 0 0 0 0Zm-1.7 1.8v0c-.05.06-.08.12-.1.2v0c-.01.06-.01.13 0 .2 0 0-.1.1-.2 0v-.2l-.001-.001c.04-.12.11-.22.2-.3h.1Zm-4.8 4.6v0c0 .06 0 .13 0 .2l0 0c-.07.04-.14.07-.2.1 -.1 0-.1 0 0 0v0c.05-.1.08-.2.1-.3h.1Zm.8-.4v0c-.01.07-.05.14-.1.2v-.001c-.07.01-.14.01-.2 0v-.001c.03-.03.07-.07.1-.1v-.001c0-.04 0-.07 0-.1h.2Zm1-.6v0c0 .03 0 .06 0 .1v-.001c-.06.04-.13.08-.2.1v-.001c.01-.07.01-.14-.001-.2h.2Zm1.5-3.8l-.1.4v-.001c-.02.13-.02.26 0 .4h-.1v-.001c-.02-.14-.02-.27 0-.4v-.5h.1Zm1-10.3v0c-.02.1-.05.2-.1.3l-.001-.001c-.06.1-.13.2-.2.3h-.1l.2-.3v0c.01-.1.01-.21 0-.3l.1-.1Zm-1-1v0c.12.31.15.66.1 1v0c.02-.17.02-.34 0-.5v0c-.05-.15-.12-.28-.2-.4 0-.1 0 0 0 0Zm-1.4 1.7v0c-.16-.11-.3-.25-.4-.4v0c-.08-.13-.11-.26-.1-.4l.2.4 .3.4Zm1.5 2.6v.2h-.1v-.2Zm-2-2l.6 1 .1.8c.2 0 .3-.1.4-.3v-.9l-.001-.001c.13-.19.23-.39.3-.6v0c.04-.17.07-.34.1-.5h.1l.4.8 .3.9h-.1v0c-.05-.32-.16-.62-.3-.9v-.001c-.09-.21-.19-.41-.3-.6v0c0 .13 0 .26 0 .4v-.001c-.08.18-.18.34-.3.5l-.1 1 -.4.3v.4h-.1c0-.4 0-.8-.2-1.2v0c-.07-.38-.25-.73-.5-1Zm1.2 5v.3l-.1.4h-.1v-.8h.1c.1 0 .1 0 0 0Zm-2.2.9v.3l-.1-.3c0-.1.1 0 .1 0Zm1.9-2.5v0c-.04.2-.11.41-.2.6l-.3.5v0c-.17.16-.27.37-.3.6v0c-.05.23-.05.46 0 .7 0 .1 0 0 0 0v0c-.08-.23-.12-.47-.1-.7 0-.2.1-.5.3-.7v0c.12-.16.22-.33.3-.5v0c.09-.19.16-.4.2-.6 .1 0 0 0 0 0Zm-.5-.8v.6 0c-.13.22-.3.43-.5.6v0c-.17.14-.3.31-.4.5l-.2.5h-.1l.2-.6 .5-.5v-.001c.12-.16.22-.32.3-.5v-.001c.09-.19.12-.4.1-.6h.1Zm-2.4 1.2c0 .4 0 .7-.2 1 -.1.3-.3.6-.6.8h-.1v-.1c.3-.2.5-.5.6-.8 .2-.2.2-.6.2-1Zm-3 1.7v.2l.1.1v.1h-.1l-.1-.2v-.2s-.1 0 0 0Zm-1.3 0v0c-.04.23-.04.46 0 .7l.4.6 .1.5v.4l.4-.5v0c.11-.19.17-.39.2-.6v0c.03.19.03.4 0 .6l-.5.6h-.1v0c.01-.17.01-.34 0-.5v-.001c-.05-.15-.12-.28-.2-.4v0c-.15-.22-.25-.45-.3-.7v-.001c-.07-.23-.1-.47-.1-.7Zm.2 4.2v0c-.01-.28.02-.55.1-.8h.1v0c-.08.25-.12.52-.1.8h-.1Zm-.2 1.1v-.4s0-.1.1 0v.4Zm-.8 2l.2-.3 .2-.3h.1l-.001-.001c-.06.13-.13.27-.2.4l-.2.2c-.1 0-.1 0 0 0Zm-1.1-6.6v.2h-.1v-.2Zm-2 4.5v-.001c0-.04 0-.07 0-.1v-.2h.1v.3Zm5-8l-.3 1c0 .3.1.6.3.7 .3.2.4.4.5.7v-.4c.1-.1.1-.3 0-.4h.1v-.001c.06.33.06.66 0 1h-.1v0c-.01-.07-.01-.14 0-.2l-.5-.6c-.3-.2-.4-.4-.4-.8l.2-1h.1Zm-.4-1.3v0c.04.26.04.53 0 .8v0c-.08.24-.18.47-.3.7v0c-.14.31-.21.65-.2 1 0 .4.1.7.3 1v.1 -.001c-.38-.64-.45-1.41-.2-2.1v-.001c.08-.23.15-.47.2-.7 0-.3.1-.5 0-.8h.1c.1 0 0 0 0 0Zm-2.3 3.3v0c-.04.13-.04.26 0 .4l.1.5c0 .1 0 0 0 0v0c-.14-.15-.24-.32-.3-.5v0c-.02-.18.01-.35.1-.5h.1Zm-1-.4v.3 0c.01.09.01.2 0 .3v-.001c-.08.08-.11.19-.1.3l.1.2v.1 0c-.09-.09-.16-.19-.2-.3v0c-.06-.13-.06-.28 0-.4v0c.04-.07.07-.13.1-.2v-.3h.1Zm5.8-8.6h-.001c-.08.51.03 1.04.3 1.5l0 0c-.17-.22-.31-.45-.4-.7v0c-.05-.27-.05-.54 0-.8h.1Zm-.7.7v0c.29.52.46 1.1.5 1.7h-.1v0c-.05-.57-.22-1.12-.5-1.6v-.1Zm-3.6.1c-.4.5-.5 1-.6 1.3l.2.9 .2.8h0c-.03.27-.1.54-.2.8 -.1 0 0 0 0 0v-.8 0c.04-.27.04-.54 0-.8v0c-.21-.3-.31-.65-.3-1 0-.3.2-.7.6-1.2 .1 0 0 0 0 0Zm3.3-1.4v.5l-.4.4v0c-.15.09-.25.23-.3.4v.7c0 .1 0 0 0 0v0c-.05-.24-.05-.47 0-.7v0c.04-.2.15-.37.3-.5v-.001c.13-.11.23-.25.3-.4v-.001c.04-.13.04-.28 0-.4h.1Zm-3.5.3v.7c0 .2-.2.4-.4.6l-.001 0c-.2.15-.34.36-.4.6v0c-.07.22-.1.46-.1.7h-.1v0c-.01-.27.03-.54.1-.8 0-.2.2-.4.4-.6l.4-.6v-.001c.06-.2.06-.41 0-.6Zm2 .1v0c-.01.06-.01.13 0 .2v0c0 .1.03.21.1.3v0c-.09-.05-.16-.12-.2-.2v0c-.02-.1-.02-.21 0-.3h.1Zm0-.5v0c-.22.05-.4.2-.5.4l-.2.7 .2.5v.7 0c.03-.24.03-.47 0-.7l-.3-.4v0c-.3.33-.48.75-.5 1.2 0 .5.1 1 .5 1.5h-.1v0c-.32-.44-.49-.97-.5-1.5 0-.5.2-.9.6-1.3 0-.3 0-.6.2-.8v0c.11-.19.29-.33.5-.4Zm-.7-.8v.1c0 .3 0 .6-.2.7v-.001c-.09.08-.16.18-.2.3v-.001c-.06.12-.09.26-.1.4h-.1v0c-.02-.14-.02-.27 0-.4v-.001c.06-.16.16-.3.3-.4 .2-.1.2-.4.2-.6v0c0-.04 0-.07 0-.1h.1Zm5.7 6l.1.5v.4 -.001c.01-.14.01-.27 0-.4v0c-.06-.15-.12-.28-.2-.4h.1Zm0 2v.6l-.2.6 -.3.6 .2-.6v-.001c.09-.19.16-.4.2-.6v0c.05-.24.05-.47 0-.7h.1Zm-1.2-1.8v0c.68.63.95 1.6.7 2.5h-.1v-.001c.25-.85.02-1.78-.6-2.4v-.1c0-.1 0 0 0 0Zm0 2v0c-.26.51-.6.99-1 1.4v-.001c-.25.29-.42.63-.5 1v0c.01-.21-.03-.41-.1-.6v0c-.06-.15-.12-.28-.2-.4v0c-.21-.26-.31-.58-.3-.9l.3-.8 .3-.6v0c.02-.2.02-.41 0-.6h.1c.1 0 0 0 0 0v0c.01.45-.09.9-.3 1.3v-.001c-.19.18-.3.43-.3.7 0 .3 0 .6.2.8l-.001 0c.15.24.25.51.3.8v-.001c.11-.3.28-.57.5-.8v0c.18-.19.34-.39.5-.6l.3-.7h.1Zm-3.2-1v0c0 .49.14.97.4 1.4v.1h-.1v-.001c-.14-.22-.24-.46-.3-.7v0c-.03-.24-.03-.47 0-.7Zm-1.7 1v.3h-.1v-.3Zm.6-1.6l-.1.5 -.001 0c-.07.18-.17.35-.3.5 -.1 0 0 0 0 0l.2-.5v0c.03-.17.03-.34 0-.5h.1Zm-1.6 3.1v0c-.25-.54-.36-1.12-.3-1.7 0-.5.3-.8.6-1l.4-.7c.1-.2.2-.5.1-1s.1 0 .1 0v1l-.6.7v-.001c-.27.27-.44.62-.5 1 0 .5 0 1 .3 1.7h-.1Zm-1-1.1v0c-.03.09-.03.2 0 .3l.1.4v0c-.1-.12-.17-.26-.2-.4v0c-.04-.14-.04-.27 0-.4h.1Zm4.6-3.2c.1.2.3.5.3.8 0 .3 0 .6-.2.9h-.1c-.1 0 0 0 0 0l.2-.9h0c-.03-.3-.13-.57-.3-.8Zm1.4-1.1v-.001c.2.54.2 1.15 0 1.7v0c-.01-.28-.08-.56-.2-.8v0c-.13-.21-.3-.38-.5-.5 0-.1 0-.1.1 0v0c.31.24.53.6.6 1v-.6 -.001c.01-.28-.02-.55-.1-.8Zm.8-1.2l.4.8v1 0c-.03.16-.03.33 0 .5v0c.03.14.1.28.2.4v0c-.1-.12-.17-.26-.2-.4v0c-.02-.17-.02-.34 0-.5v0c.01-.34-.02-.68-.1-1v0c-.07-.27-.21-.51-.4-.7 0-.1 0 0 .1 0Zm-2.2-.2v-.001c-.15.13-.26.3-.3.5v.7 0c-.05-.24-.05-.47 0-.7 0-.2 0-.4.2-.5 .1 0 .1 0 0 0Zm-4.4 3v0c-.01.35-.12.69-.3 1v-.001c-.22.28-.49.52-.8.7 -.1 0 0 0 0 0l.7-.7c.2-.3.3-.6.3-1l.1-.1Zm0-1.6v.5 0c-.08.17-.18.34-.3.5l.1-.5v-.5h.1Zm2.9-.2v1h-.1v-1Zm.7-1.3c-.2.3-.3.5-.3.8l.2.7 .3 1.2c0 .4-.2.7-.4 1.1l.3-1.1h0c.03-.43-.07-.85-.3-1.2l-.2-.7c0-.3 0-.6.3-.8 .1 0 0 0 0 0Zm-4.6-8.1v0c.27-.26.62-.44 1-.5 .4 0 .8 0 1.2.3h.8 -.8c-.4.5-.8.7-1.1.7v0c-.32.08-.66 0-.9-.2 0-.1 0-.1 0 0v0c.28.14.61.14.9 0 .2 0 .6-.1 1-.5v0c-.32-.13-.67-.16-1-.1v0c-.37.03-.71.17-1 .4 -.1 0 0 0 0-.1Z"/><path d="M351.6 101v0c.16 0 .3.13.3.3v-.001c-.05.12-.17.2-.3.2l-.001-.001c-.1-.03-.18-.11-.2-.2v0c-.01-.14.07-.26.2-.3Zm1.8 1.6v0c.31-.17.59-.41.8-.7 .1 0 0 0 0 .1l-.001-.001c-.06.1-.13.2-.2.3l-.5.4c-.1-.1 0-.1 0-.1Zm3.7-1.6v-.001c.09-.04.2-.04.3 0v0c.11.04.21.11.3.2v0c-.1-.03-.21-.03-.3-.001v0c-.07-.02-.14-.02-.2-.001l-.1-.1Zm-2 .1h-.001c.05-.17.15-.31.3-.4l.7-.1v.1 0c-.23-.09-.48-.09-.7-.001v-.001c-.17.11-.28.29-.3.5 -.1 0-.1 0 0 0Zm.2.4v0c-.04-.1-.04-.21 0-.3l0 0c.08-.06.19-.1.3-.1h.1v0c-.13.02-.23.09-.3.2v0c-.03.06-.03.13 0 .2h-.1Zm-3.6 1.1l-.1.3v0c-.02.09-.02.2 0 .3l-.1.1v0c-.03-.14-.03-.27 0-.4 0-.1 0-.2.2-.3Zm1 .5v.2 -.2Zm-.6-1.1v0c.09.01.2.01.3 0h.3v0c-.1.04-.2.07-.3.1v0c-.1.01-.21.01-.3 0 0 0-.1 0 0-.1Zm.6-2h0c-.08 0-.15.04-.2.1v0c-.06.05-.09.12-.1.2h-.1v0c.02-.13.09-.23.2-.3v-.001c.06-.02.13-.02.2 0h.1Zm-1 .2h0c-.07-.01-.14-.01-.2 0v-.001c-.03.06-.03.13 0 .2h-.1c-.1 0 0 0 0 0v0c-.02-.07-.02-.14 0-.2v-.001c.09-.06.19-.09.3-.1Zm-.7 0v0c-.04.03-.07.06-.1.1v-.001c-.05.06-.08.12-.1.2h-.1v0c.02-.08.05-.14.1-.2l0-.001c.05-.08.12-.15.2-.2v.1Zm-.8.7v0c-.16.11-.29.24-.4.4v-.1 -.001c.11-.16.24-.29.4-.4Zm0 .9v.1l-.2.2c-.1 0-.1 0 0 0v-.2l.2-.2c.1 0 .1 0 0 0Zm-.7.2v.3l-.1.1c-.1 0 0 0 0 0v-.4Zm1 1.4v.6h-.1v-.6h.1Zm-.6-.4v.3h-.1v-.3h.1Zm-.6-4.5v0c.22.04.4.19.5.4v.1h-.1v0c-.04-.12-.11-.22-.2-.3v-.001c-.07-.05-.13-.08-.2-.1v-.1Zm5.2 6.7v0c.21.44.21.95 0 1.4h-.1v0c.18-.42.18-.89 0-1.3v-.1Zm-1.7 2c0-.3.2-.5.3-.7l.4-.6c.2-.2.3-.4.3-.7v0c.04-.24.04-.47 0-.7h.1v0c.1.51-.01 1.05-.3 1.5v-.001c-.15.15-.28.32-.4.5l-.3.7h-.1Zm-2.2-.6h-.001c.03-.12.1-.22.2-.3v-.001c.09-.06.19-.09.3-.1v0c-.08.05-.15.12-.2.2l0 0c-.09.04-.16.11-.2.2Zm-.4-.2l.3-.3 .3-.2v.1 -.001c-.12.04-.22.11-.3.2v0c-.08.09-.15.19-.2.3 -.1 0-.1 0 0 0Zm2.3-2.2h.2 0c.09.01.2.01.3 0v.1 0c-.2.07-.41.07-.6 0 0-.1 0-.1 0 0Zm-1.2-.1l.1-.1c.1 0 .1 0 0 0v.1c-.1 0 0 0 0 0Zm24.2 7v0c.08.08.15.18.2.3h-.1v0c0-.04 0-.07 0-.1v-.001c-.06-.08-.13-.15-.2-.2 0-.1 0 0 0 0Zm-26.8 12.5l.3.3v0c.16.04.33.04.5 0v.1 0c-.17.04-.34.04-.5 0v0c-.15-.08-.29-.19-.4-.3 0-.1 0-.1 0 0Z"/></g><g fill="#F00"><path d="M368.9 99.6h0c.56.05 1.13.05 1.7 0 -.6.3-1.2.6-2 .7v0c.14-.1.24-.24.3-.4v-.001c.03-.1.03-.21 0-.3Zm-1.4-.1h1.2v.4s0 .2-.2.3c0 0-.1 0 0 .1h0c-.44.05-.87.05-1.3 0v0c.14-.14.25-.31.3-.5v0c.04-.13.04-.28 0-.4Zm-10.5-3c.7-.2 1.3-.2 2-.2v0c.2.07.38.21.5.4 .1.2.2.5.1.8l.1.1h.1l-.1-1v-.001c-.09-.09-.19-.16-.3-.2h.2 -.001c.73.04 1.45.24 2.1.6 .2.2.3.3.2.5l-.3.5v.2h.2l.3-.7v0c.02-.1.02-.21 0-.3l1.7.8v0c.08.15.08.34 0 .5v0c-.14.14-.31.25-.5.3v.1l.1.1c.3 0 .5-.2.6-.4v0c.04-.13.04-.28 0-.4l1.2.6v.3c0 .2-.1.3-.3.4 0 0-.1 0 0 .1 0 .1 0 0 0 0 .3 0 .5-.2.6-.4v0c.03-.1.03-.21 0-.3l.4.1v0c.42.16.85.3 1.3.4v0c.08.11.12.25.1.4v-.001c-.04.11-.11.21-.2.3v.2c-1.4-.1-2.7-.9-4.1-1.4l-.5-.2 -1.6-.6 -.1-.1 -.001-.001c-.49-.18-.99-.32-1.5-.4v0c-.54-.08-1.07-.08-1.6 0h-.1l-.1-.8v0c-.14-.18-.31-.32-.5-.4Z"/><path d="M354.6 97v0c.64-.25 1.31-.42 2-.5 .4.1.6.3.7.5v.6 0c-.58-.06-1.16.01-1.7.2v0c-.15-.29-.4-.51-.7-.6v0c-.1-.05-.2-.09-.3-.1Zm7.4 3.9v0c-.17-.14-.33-.28-.5-.4v0c-.93-.49-1.96-.77-3-.8 .3-.4.4-.8.3-1.1l0-.001c-.15-.34-.39-.62-.7-.8h1v0c.69.11 1.36.31 2 .6 0 .3.1.6 0 .8 0 .3-.2.5-.5.7 0 0-.1 0 0 .1 0 .1 0 .1 0 0 .4-.1.6-.4.7-.7v-.8l1 .6 1 .8c0 .4 0 .6-.3.8h-.9v.2Z"/><path d="M364 102.4l-1.8-1.4c.4 0 .7 0 1-.2 .1-.1.3-.4.3-.8l1.1 1 .6.5v.4 0c.01.06.01.13 0 .2v0c-.11.11-.25.18-.4.2h-.7Z"/><path d="M366.2 103.8v0c-.71-.37-1.38-.81-2-1.3h.7v0c.14-.03.28-.1.4-.2l.1-.4v0c0-.07 0-.14 0-.2v0c.64.54 1.34 1.01 2.1 1.4 0 .3 0 .4-.3.5v0c-.33.08-.67.12-1 .1Z"/><path d="M368.4 104.7v0c-.69-.21-1.36-.48-2-.8 .4 0 .7 0 1-.2 .2 0 .3-.2.3-.5v-.001c.41.22.85.42 1.3.6v.4l-.5.4s-.1 0 0 0Z"/><path d="M373.2 104.2s.4-.1.2 0c-1.4 1-3.1 1-4.8.5 .3-.1.5-.2.6-.4v0c.07-.16.07-.35 0-.5l1.7.4v-.001c0 .1-.03.21-.1.3l-.5.3s-.1 0 0 .1c0 .1 0 0 0 0 .3 0 .5-.2.6-.3v0c.11-.11.18-.25.2-.4h-.001c.66.07 1.33.07 2 0Zm-9.7 24l-.2.4 -1.2.3c0 .3 0 .4.3.4l.7-.3c.1 0 0 .5-.5.8v.1c.4.6 1.4.4 1.9.3v0c.51-.21.96-.56 1.3-1l-.3-.6c-.4.1-.6 0-.5-.2h0c-.49-.17-1-.24-1.5-.2Zm-15.1-4.8c-.3.3-.7.5-1 .6 -.2 0-.6.1-.6.3 0 .1.2.3.4.2 .4-.5.7-.2.2.2v.3c.5.4 1.6.5 2.2.2 .3-.2.6-.5.2-.9v0c-.01-.07-.01-.14 0-.2h-.6l-.4-.3 -.4-.4Zm10 3.5h-.1c-.2.2.3.2.6.3 .2.1.2.3.2.5 -.3.7-1.9.5-2.4.2 -.2-.1-.2-.3-.2-.5h.3c.2 0 .4 0 .6-.2v-.2h-.2v0c-.13.08-.26.15-.4.2v0c-.17.01-.34.01-.5 0l-.2-.2h.2l.7-.2 .1-.1c.5 0 1 0 1.3.2Zm-7.2-.4l-.2.3v-.001c-.26.25-.57.46-.9.6 -.2.1 0 .2.2.4 .2.1.5-.2.6-.4 .2-.3.3-.2.2 0l-.2.7 .7.3c.4 0 1-.4 1.2-.6 .3-.2.2-.5.1-.8v0c-.17.02-.34.02-.5 0v0c-.18-.09-.35-.19-.5-.3l-.7-.2Zm2.8-26.4h.3l.6.1v-.001c.54-.21 1.11-.32 1.7-.3v0c.55-.16 1.12-.22 1.7-.2v-.2c.3-.3.4-.6.3-.9 -.1-.2-.4-.5-.8-.7h-1.3v0c-.27 0-.54.03-.8.1l.6.4 .4 1c-.2.1-.2 0-.2 0 0-.4-.2-.6-.3-.9l-.8-.4h0c-.44.03-.88.1-1.3.2 -.3 0-.5.2-.7.3l.8.1c.3.1.5.4.6.8 -.1.1-.1 0-.1 0v0c-.08-.26-.26-.48-.5-.6 -.4-.2-1.3 0-1.7.2v-.001c-.22.17-.43.38-.6.6l2 .4Zm-2.3-.4v-.1l.7-.6 .7-.4v0c.27-.26.62-.44 1-.5l1.3-.2v-.001c-.11-.23-.28-.4-.5-.5l-.8-.1 -1.5.8h.5l.1.2h-.4 -.001c-.14-.02-.27-.02-.4 0h-.1l-1.3 1c.3.1.6.2.7.4Z"/></g><path fill="#0093DD" d="M409 156.5l20.8-47 -15.3-24.7 -27.3 10 -12.7 49.8v0c11.81 3 23.35 6.98 34.5 11.9Z"/><path fill="#FFF" d="M382.6 113v0c13.55 3.45 26.8 8.04 39.6 13.7l-8 18.2v0c-11.8-5.25-24.01-9.49-36.5-12.7Z"/><path fill="#F00" d="M415.4 142l5.4-12.2v0c-12.61-5.58-25.65-10.09-39-13.5l-3.2 12.4 -.001 0c12.66 3.23 25.04 7.51 37 12.8l-.1.4Z"/><path d="M385.6 125.8c.3-.3.7-.2 1.1-.1 .3-.2.7-.2 1-.2l.6-.2c.2 0 .2-.2 0-.3v0c-.03-.1-.03-.21 0-.3 -.7-.4-1-1-1.2-1.5 -.3 0-.5-.2-.5-.3h-.5c-.8 0-1-.3-1.3-.5v0c-.25-.06-.46-.2-.6-.4l-.3-.3c-.2-.3-.1-.7.2-.7h.7v0c.28-.11.59-.14.9-.1 .3 0 .5-.3.9-.6v-.4s0-.2.2-.1v0c.33.02.63.21.8.5 .5 0 1 .3 1.2.7 .7 0 1.1.3 1.2.5 0 .2-.2.4-.5.6v.2l.4.4 1 .7c1-.1 2.6.6 4.8 2v0c1.4.24 2.78.64 4.1 1.2h.9c2.4-.4 4.7 0 6.8 1.5 .8.1 1.5.4 2.2.7 .5.2 1 .3 1.6.3v0c.89.08 1.77.32 2.6.7 1 .2 1.9.6 2.4 1.2 .4.5.3 1-.2 1.2 -.3.6-.9.6-1.8.3 -.6.1-1.3-.4-2-.9 -.8-.2-1.6-.8-2.4-1.3l-1.3-.6h-.8v.2c.2.2.4.4.4.8v1c0 .4.3.6.7.9l1 .4c.2 0 .3.1.3.3l.4 1.7 .4.3c.6.5.2 1-.3 1v-.001c-.36.37-.81.64-1.3.8 -.4.2-.6 0-.7-.2v0c-.16 0-.31-.08-.4-.2 -.5-.4-.1-1 1-.7l.2-.2v0c-.1-.3-.1-.61 0-.9l-.3-.2v0c-.38-.13-.72-.34-1-.6 -.6-.5-1.5-1-2.4-1.4 -.7 0-1.2-.4-1.8-.7h-.8c-.2 0-.4 0-.5.2 -.2.3-.5.2-.8.2h-1.6c-.4 0-.7 0-1 .3 -.2.2-.4.2-.7 0v0c-.12-.05-.22-.12-.3-.2 -.3 0-.5 0-.5-.2 -.5-.1-.6-.2-.6-.4 -.6-.1-.3-.6 0-.6l1.4.1c.4.1 1 0 1.2-.2l.5-.5v0c-.64-.03-1.25-.2-1.8-.5 -1.1-.7-2-.9-2.8-.3 -.2.2-.3.2-.6.1v0c-.17-.05-.34-.05-.5 0 -.5.1-.9 0-1.3-.1v0c-.6.13-1.21.13-1.8 0 -.6.3-1 .4-1.2.2v0c-.21-.13-.41-.26-.6-.4 -.4-.1-.5-.2-.5-.3 -.4 0-.5-.2-.5-.4 -.2-.2 0-.3 0-.4 .4-.2.7-.2 1 0 .3 0 .5.2.6.3h.6c.1-.2.5-.2 1-.2l.7-.2v-.2c-.4 0-.6-.4-.9-.7h0c-.54-.03-1.06-.21-1.5-.5 -.4 0-.7-.1-1-.3h-.7l-.001 0c-.46.13-.95.13-1.4-.001h-.8v0c-.28.24-.66.32-1 .2v0c-.21-.25-.49-.43-.8-.5 -.3-.1-.4-.2-.4-.4 -.4-.2-.3-.4 0-.5 .3-.1.5-.2 1 0l.5.2Z"/><path fill="#FFF" d="M401.2 130.5s0-.2-.3 0c-.8 0-1.6 0-2.2-.4 -.7-.4-1.3-.8-2-.8l.7-.4h1.5c.7 0 1.4.2 2 .4 .4.2.8.5 1 .8v0c.3.18.57.42.8.7v0c-.24.03-.47.03-.7 0h-.001c-.29-.06-.55-.17-.8-.3Z"/><path d="M403 94.7v.2l.9 4.9 -3.7 3.2 -.2.1 .2.1 4.7 1.6 1 4.9v.2l.2-.1 3.7-3.3 4.6 1.6h.3v-.1l-1-4.9 3.7-3.2 .2-.2h-.3l-4.6-1.6 -1-4.9V93l-.2.1 -3.7 3.3 -4.7-1.6Z"/><path fill="#F7DB17" d="M400.6 103l3.5-3 4.4 1.4Zm8.5-1.7l3.4-3 4.4 1.5Zm7.8-1.3l-3.4 3 -4.4-1.5Zm-8.4 1.6l-3.5 3 -4.3-1.5Zm-5-6.4l4.3 1.4 .8 4.6Zm5.5 6.4l4.4 1.5 .9 4.5Zm5.1 6.1l-4.3-1.5 -.9-4.5Zm-5.6-6.4l-4.3-1.5 -.9-4.5Zm3-7.7l1 4.6 -3.5 3Zm-2.7 8.1l.8 4.6 -3.4 3Zm-2.8 7.5l-.9-4.5 3.5-3Zm2.8-8l-.9-4.6 3.5-3Z"/></svg>