<svg viewBox="0 0 640 480" xmlns="http://www.w3.org/2000/svg"><defs><clipPath id="a"><path d="M-87.6 0H595v512H-87.6Z"/></clipPath></defs><g clip-path="url(#a)" transform="matrix(.94 0 0 .94 82.1 0)"><g fill="#FFF" fill-rule="evenodd"><path d="M619.4 512H-112V0h731.4Z"/><path fill="#0038B8" d="M619.4 115.2H-112V48h731.4Zm0 350.5H-112v-67.2h731.4Zm-483-275l110.1 191.6L359 191.6l-222.6-.8Z"/><path d="M225.8 317.8l20.9 35.5 21.4-35.3 -42.4-.2Z"/><path fill="#0038B8" d="M136 320.6L246.2 129l112.4 190.8 -222.6.8Z"/><path d="M225.8 191.6l20.9-35.5 21.4 35.4 -42.4.1ZM182 271.1l-21.7 36 41-.1 -19.3-36Zm-21.3-66.5l41.2.3 -19.8 36.3 -21.4-36.6Zm151.2 67l20.9 35.5 -41.7-.5 20.8-35Zm20.5-67l-41.2.3 19.8 36.3 21.4-36.6Zm-114.3 0L189.7 256l28.8 50.3 52.8 1.2 32-51.5 -29.6-52 -55.6.5Z"/></g></g></svg>