<svg viewBox="0 0 640 480" xmlns="http://www.w3.org/2000/svg"><defs><clipPath id="a"><path d="M5 .1h682.6V512H5.1Z"/></clipPath></defs><g clip-path="url(#a)" transform="matrix(.93768 0 0 .93768-4.8-.1)"><path fill="#FFF" fill-rule="evenodd" stroke="#000" d="M776 511.5H-76V.5h852Z"/><g fill="#3E5698" fill-rule="evenodd"><path d="M776 419H-76v92.5h852Z"/><path fill="#C60000" d="M776 397.6H-76V114.4h852Z"/><path d="M776 .6H-76V93h852Z"/><path fill="#FFF" d="M328.5 256c0 63.5-53 115-118.6 115s-118.6-51.5-118.6-115 53-114.8 118.6-114.8c65.5 0 118.6 51.4 118.6 114.9Z"/><path fill="#C40000" d="M175.8 270.6l-57-40.7 71-.2 22.7-66.4 21.1 66.1 71-.4 -57.9 41.2 21.3 66.1 -57-40.7 -58 41.3Z"/></g></g></svg>