<svg viewBox="0 0 640 480" xmlns="http://www.w3.org/2000/svg"><path fill="#D3AE3B" d="M0 0h640v480H0Z"/><path fill="#C40308" d="M24 24h592v432H24Z"/><path fill="#B96B29" d="M424.5 236.1v0c6.98-1.84 13.56-4.96 19.4-9.2 7-5.6 8.3-10.1 8.8-12.5 .6-2.4.8-4.3-1-3 -1.8 1.4-7.1 5.6-10.7 7.6 -3.7 2-7 3-9 3.6 -2 .5-3.6.9-1.7.1 2-.7 8.1-2.9 13-7.7 4.7-4.8 8.5-12 8.6-16.4 0-4.4-.3-4-1.7-3 -1.4 1.1-6.4 7.3-9.3 9.7v0c-3.08 2.51-6.32 4.81-9.7 6.9 -2.3 1.3-5.5 2.8-1-.3 4.5-3 13-10.3 16.5-19.7l-.001 0c2.09-5 3.01-10.4 2.7-15.8 0-1-.8-2.8-1.6-1.1 -.8 1.7-6.5 13-11 18 -4.6 4.8-3.5 3.9-4.6 4.7 -1 .8-2.7 2.2-.5-.6v0c7.55-8.88 11.85-20.06 12.2-31.7 0-3.6-1.5-8.6-2.2-10.1 -.7-1.5-1.4-2.6-1.7-.9v0c-1.63 6.22-3.56 12.36-5.8 18.4v-.001c-1.82 4.47-4.06 8.75-6.7 12.8 -.8 1.1-2.8 3.6-.6-.5v0c4.02-8.69 6.39-18.05 7-27.6v0c.83-7.08-.06-14.25-2.6-20.9 -1.6-3.1-3-4.2-3-4.2s.3 7.8-2 19 -5.7 17-5.7 17 -1.5 1.7-.5-1v0c3.7-11.14 4.18-23.1 1.4-34.5 -2.3-7.5-6.2-11.3-6.2-11.3 -1 10.7-.9 24.5-4.8 35.7 -.7-.7-1.7-1.9-2.1.6v0c-1.26 6.8-3.62 13.36-7 19.4 -4.8 8.8-6.8 10-6.8 10l-1.5-3.4c-.6-1.2-1-1.8-1.8-.2s-3.5 7.8-9.4 14.6 -9.2 10.2-9 15.3c.1 5 2.8 7.7 6.4 10 3.6 2.3 4.2 3.6 3.7 6.4 -.6 2.8-3.8 3.7-6.6 3.8 -2.7.1-6.2-.1-7.5.6 -1.2.7-1.3 2.5-2.6 3.7 -1.2 1.3-1.8 2-3 2.2l-1 .1c-.2-13.5 5-19.5 5-19.5l-14.6-17.1v0c-.73.35-1.46.68-2.2 1v0c-.12-.22-.25-.42-.4-.6v0c-1.85-2.17-2.78-4.97-2.6-7.8 .7 0 2.2.6 3.5.3 1.3-.2.3-1.6 0-2.8 -.5-1.3-.9-5.7-.6-7.3l.4-2.3s2.1 2.3 3.4 2.3c1.3 0 1.2-1.3 1.4-2.8 .3-2.2 1.3-5 3-6.5 0 0 2.4 1.6 5 1.6s6.2-.7 9-3.5c3-2.7 2.9-3.3 2.9-3.3s5.3 1.8 9.3 2c4 .2 8.3-.4 10.4-4.7 2-4.2-.6-8.2-1-8.8 -.6-.7-1.9-1.2-1.9 0s.1 4.4-2.4 6c-2.4 1.6-4.3 1.5-6.6.8v0c-4.21-1.57-8.81-1.71-13.1-.4v0c1.69-1.84 3.78-3.27 6.1-4.2 3-.9 4.8.4 5.8 1.6 1 1.2 1.9 3 2.7.3 .8-2.8.3-6-1-8v0c-1.67-2.25-4.44-3.41-7.2-3 -3 .2-4 .7-4 .7s-1.5-4.3-5.3-5v0c-4.88-.68-9.83.39-14 3 0 0-3.1.7-6.4-.2v0c-1.93-.67-3.75-1.61-5.4-2.8l1.1-3.5 1.9-.6c1-.4.7-.7.9-1.5 .1-.8-1.8-2.2-1.8-2.2s-.3-2.5 2.9-4.1l2.8-1.4s1.9.3 2.6-.2c.8-.6.8-1 .8-1s1.4-.4 2-1.2c.4-.9.5-2.1.2-3.1 -.4-1-.9-1.2-.4-1.7s1-1.6 1-2.4l.1-1s1.1-.4 1-2c0-1.7-.9-2.3-1.4-2.5l-.9-.1s0-1-.9-2.3c-.8-1.4-1.4-2-1.4-2s.6-.4.3-1.5 -1.1-1.7-1.9-2c-.7-.2-1.5 0-1.5 0l-3.7-2.1 -1.5-.8s0-1-.4-1.6c-.5-.5-1.5-.8-2-.8s-1 .3-1 .3l-6-1.4c-1.8-.2-1.9-.4-1.9-.4s-3.8-1.8-5.2-2l-2-.5s1.6-1.8 1.7-4v-.001c-.03-2.04-1.08-3.92-2.8-5l-1.6-.8v-1.3l2.8.3 .2-4.6 -2.7.3 .4-2.7h-5.8l.4 2.7 -2.8-.2 .3 4.5 3-.4 -.4 1.7s-1 .2-2 .9v0c-1.64.99-2.63 2.78-2.6 4.7 0 2.2 1.3 4 1.3 4l-1.8.4c-1.5.3-5.3 2.1-5.3 2.1s0 .2-1.8.4l-6 1.4s-.6-.3-1-.3 -1.6.3-2 .8c-.4.6-.5 1.6-.5 1.6l-1.4.8 -3.7 2.1s-.8-.2-1.6 0c-.7.3-1.5 1-1.8 2 -.3 1.1.3 1.6.3 1.6s-.6.5-1.5 1.9v0c-.46.69-.77 1.47-.9 2.3l-.8.1c-.6.2-1.5.8-1.5 2.5 0 1.6 1 2 1 2v1c.1.8.6 2 1.1 2.4 .5.5 0 .7-.3 1.7 -.4 1-.3 2.2.2 3 .5 1 2 1.4 2 1.4s0 .3.7.9c.7.6 2.6.2 2.6.2l2.9 1.4c3.2 1.6 2.9 4 2.9 4s-2 1.5-1.8 2.3c.1.8 0 1.1.9 1.5l1.9.6 1 3.5v0c-1.66 1.19-3.48 2.13-5.4 2.8 -3.2.9-6.4.2-6.4.2v0c-4.15-2.59-9.06-3.65-13.9-3 -3.8.7-5.4 5-5.4 5s-1-.4-4-.8c-3-.3-5.8 1-7.1 3 -1.4 2.1-1.8 5.3-1 8.1s1.6.9 2.6-.3 2.8-2.5 5.8-1.6c3 1 6 4 6.2 4.2 0 0-.5-.3-3.9-.8 -3.7-.5-6.9.4-9.2 1.2 -2.3.7-4.2.8-6.7-.8 -2.4-1.6-2.4-4.8-2.4-6 0-1.2-1.3-.7-1.8 0 -.4.6-3 4.6-1 8.8 2 4.3 6.3 5 10.4 4.7 4-.2 9.3-2 9.3-2s0 .6 2.8 3.3v0c2.43 2.27 5.66 3.53 9 3.5 2.7 0 5-1.6 5-1.6 1.7 1.5 2.7 4.3 3 6.5 .2 1.5.1 2.8 1.4 2.8 1.4 0 3.5-2.3 3.5-2.3l.4 2.3v0c.14 2.44-.06 4.9-.6 7.3 -.4 1.2-1.4 2.6 0 2.8 1.3.3 2.7-.2 3.5-.3 0 3.2-.7 5.3-2.6 7.8l-.001 0c-.15.18-.29.38-.4.6v0c-.75-.32-1.48-.66-2.2-1l-14.6 17.1s5.3 6 5 19.6v0c-.34-.06-.67-.13-1-.2 -1.2-.2-1.8-1-3-2.2 -1.3-1.2-1.4-3-2.6-3.7 -1.3-.8-4.8-.5-7.5-.6 -2.8 0-6-1-6.6-3.8 -.5-2.8.1-4 3.7-6.4 3.6-2.3 6.3-5 6.4-10 .2-5.1-3-8.5-9-15.3 -5.9-6.8-8.6-13-9.4-14.6 -.8-1.6-1.2-1-1.8.2l-1.5 3.3s-2-1.2-6.8-10h-.001c-3.38-6.01-5.74-12.53-7-19.3 -.4-2.5-1.4-1.3-2-.6 -4-11.2-3.8-25-4.9-35.7 0 0-3.9 3.8-6.2 11.3 -2 6.8-2 14.9-1.3 22 .6 6.7 2 10.7 2.7 12.5 1 2.7-.5 1-.5 1s-3.4-5.8-5.7-17c-2.3-11.2-2-19-2-19s-1.4 1-3 4.2h0c-2.57 6.68-3.46 13.89-2.6 21h-.001c.61 9.51 2.99 18.84 7 27.5 2.2 4 .2 1.6-.6.5h0c-2.67-4.03-4.91-8.32-6.7-12.8 -2-5.5-5.6-16.6-5.8-18.4 -.3-1.7-1-.6-1.7.9s-2.3 6.5-2.2 10.2v0c.36 11.61 4.66 22.75 12.2 31.6 2.2 2.8.5 1.4-.5.6 -1-.8 0 .1-4.5-4.7h-.001c-4.35-5.56-8.04-11.6-11-18 -.9-1.7-1.6.1-1.7 1.1 -.1 1-.7 6.5 2.7 15.8 3.5 9.4 12 16.7 16.5 19.7 4.5 3.1 1.3 1.6-1 .3v0c-3.39-2.09-6.63-4.39-9.7-6.9 -2.9-2.4-7.9-8.6-9.3-9.7 -1.4-1-1.7-1.4-1.7 3 .1 4.4 3.9 11.6 8.7 16.4 4.8 4.8 11 7 12.9 7.7 1.9.8.3.4-1.7-.1h0c-3.14-.84-6.16-2.05-9-3.6v0c-3.75-2.28-7.32-4.82-10.7-7.6 -1.8-1.4-1.6.6-1 3 .5 2.4 1.9 6.9 8.8 12.5h-.001c5.83 4.25 12.41 7.37 19.4 9.2 2.9.8.9.8.9.8l-6.8-1.4v-.001c-5.86-1.71-11.47-4.17-16.7-7.3 -2.3-1.5-2.7-2-2.4 1v0c1.08 5.33 4.3 9.98 8.9 12.9v0c5.39 2.62 11.22 4.25 17.2 4.8 2.5.1 1.8.4.7.5v0c-6.55.18-13.07-.9-19.2-3.2l-.5-2c-.2-1.2-.9-1-1.2-.8 -.4.3-.7.5-2 1.1 -1.3.7-1.3-.1-1.4-.5l-.3-3c0-.8-.5-.9-1.1-.6l-4.7 2c-1 .4 0 1.3.5 2.3v0c.49.87.99 1.73 1.5 2.6l-3.7 1c-.8.2-.6.8-.3 1.4l1.9 4.6c.3.8 1.1.3 1.1.3l2.7-1.6 1 3.7s-1.3.3-2.7 1.2c-1.3 1-1 2.3.7 2.7 1.6.5 3.6 1.4 5.7 5.3 2.2 3.9 2.7 10.9 4 22 1.4 11 8.4 16.6 9.4 17.3 1 .7.4 1.3.4 1.3s-1 1.4-.5 3.5v0c.37 1.71 1.56 3.14 3.2 3.8 1 .3.7 1.3.7 1.3s-.5 2.3 0 6.7c.5 4.3 4 9.1 5 10 1 .8 1 1.2 1 1.6 -.2.3-.9 0-2 1v0c-1.37.95-2.53 2.18-3.4 3.6 -.8 1.6-.5 2.5-.2 4.5 .2 2.1 3.3 4 3.3 4s-.6.1-.7 1.7c-.1 1.5 1 3.2 2.4 4.4 1.3 1 4 1.6 4 1.6l.3 2.2c.2 1 1.9 1.9 3 2.5 1.1.6 3.3.3 4.2-.2 .9-.4 1.5.1 2 1 .6 1 .4 4.4.4 5.8 0 1.4-.8 2.8-.4 3.5 .5.7 1.8.2 3.2-.5 1.3-.8 1.6-.2 2.8.5h-.001c1.05.7 2.24 1.18 3.5 1.4 .5 0 .3-1.3.3-2.3 0-1 .2-3.4.7-3.8 .2-.2 2.3-.3 3.8-1 .7-.3 1.7-.6 1.7-1.3 .1-.7-1-.7-3.2-1.9 -2.3-1.1-2.7-1.8-4.2-2.8 -1.4-1-.7-1.3-.7-1.8 0-.4.7-.9 1-1.4 .2-.6 0-1.8 0-1.8l1.8-1.8 2-2.3c.8-.6 2-3.6 2.7-4.5 .8-1 2.5-2 3.6-3.4h0c3.12-3.38 6.99-5.98 11.3-7.6 0 0-.1 2.6 1 3.9 1.1 1.3 2.6-1 7.5-4.5 5-3.5 8.6-4.7 8.6-4.7l2.4 3.3c1.3 1.6 2.5-.1 8.5-8.5 4.8-6.5 11-12.6 13.5-14.8l1.3.6 -.4 1c-.5 1.8-1.4 3-2.6 5.3 -1.1 2.4-3 3-5 6.2s-2.4 5.5-2.6 8.8c-.2 3.3 1.7 4 1.7 4s-3 3-4 5.2c-.9 2.2-1.3 6.7-1.3 6.7s-.5.2-1.6 2.5 -3.1 2.6-6 5.5c-3 3-6.2 4.2-7.7 5 -1.5 1-1 1.9-.7 3 .4 1.2 2.5 2.4 5 3.3 2.3.9 3.2.5 4.8.5 1.7-.1.4 1.2-.3 1.9s-1.6 3.1-1.5 5.8c.2 2.7 2.2 2 4.7 1.6v0c1.81-.36 3.59-.9 5.3-1.6l-.2.8c-.3.7-.4 1.3-.4 3.4 0 2.1.3 3.2 1 3.7 .5.6 1.8-.6 2.7-.9 .9-.2 2.4-1.1 4.6-1.6 2.2-.5 3-1.5 3-1.5s-.5.7-.6 2.2c-.2 1.6-.1 3.8.2 5.2v0c.56 1.64 1.56 3.09 2.9 4.2 1.5 1.4 1.8.8 3-1 1-1.7 3.3-3.9 3.3-3.9l1.7 5.5c1.5 4.9 6.5 9 6.5 9s5-4.1 6.5-9l1.6-5.5s2.3 2.2 3.4 4c1.1 1.7 1.5 2.3 3 1h0c1.31-1.15 2.28-2.64 2.8-4.3 .3-1.4.4-3.6.3-5.2 -.2-1.5-.7-2.2-.7-2.2s.8 1 3 1.5 3.8 1.4 4.7 1.6c.9.3 2.1 1.5 2.7 1 .6-.6 1-1.7 1-3.8 0-2.1-.1-2.7-.4-3.4l-.3-.8s2.9 1.2 5.4 1.6c2.5.5 4.5 1 4.6-1.6v-.001c.13-2.04-.36-4.06-1.4-5.8 -.7-.7-2-2-.4-2 1.7.1 2.5.5 5-.4 2.3-1 4.4-2.1 4.8-3.3 .4-1.1.9-2-.7-3 -1.5-.8-4.7-2-7.6-5 -3-2.9-5-3.2-6-5.5 -1.1-2.3-1.6-2.5-1.6-2.5s-.5-4.5-1.4-6.7c-1-2.2-4-5.2-4-5.2s2-.7 1.7-4c-.2-3.3-.5-5.5-2.5-8.8 -2.1-3.2-4-3.8-5-6.2 -1.3-2.4-2.2-3.5-2.7-5.2l-.4-1v0c.59-.28 1.19-.54 1.8-.8 2.4 2.2 8.7 8.2 13.5 14.8 6 8.4 7.2 10.1 8.5 8.4l2.4-3.2s3.7 1.2 8.6 4.7c5 3.5 6.4 5.7 7.5 4.4 .6-.6.8-1.7.8-2.6v-.001c4.01 1.16 7.95 2.56 11.8 4.2 4.3 1.8 4.7 2.8 8.1 5.4 3.4 2.7 8.2 2.5 12.8 1v0c7.29-2.23 14.49-4.74 21.6-7.5 4.9-2 8.4-4 9-4.9 .4-1 1-3.7 1-4.7s-1-2.4-1.4-2.7c-.4-.2-.2-1-.1-1.6 0-.6-.3-2.5-1-3.3 -.8-.8-.7-1.1-.6-3.5 .2-5-3.4-11.4-8.4-13.4 0 0-.2-.6-.6-1l-1-.6v-3.5c0-.6.2-.5.6-.4 .3.2.9.9 1.7 1.1 .8.2 1.3-.4 1.5-1.3 .2-1 .8-2.8 1.2-3.7 .3-1-.1-1-.5-1.2l-2.2-.4c-.6-.1-.6-.2-.4-.5l1-2c.8-1 .1-1.1-.6-1.4v-.001c-1.62-.51-3.25-.94-4.9-1.3 -.9-.2-1 .6-1 1v2.6c0 .6-.5.4-.9.3v0c-.6-.36-1.17-.76-1.7-1.2 -.7-.4-1 0-1.3.7l-1.3 4.3c-.2.9-.1 1.5.2 1.6 .3.2 2 0 3 0 .9 0 .3.6.3.6l-1.3 2.3c-.4.7-1 .8-1.8.8h-2s-5.3.2-9.2 3c-3.9 2.8-5 5.3-5.6 6.7 -.6 1.4-1.3 1.1-1.9 1.6 -.6.5-2.3 2.3-2.3 3.4s.4 1.7-1.3 2.8c-1.7 1.1-3 5.9-.8 8.3 2.3 2.5 3.2 5 4 6.2 .6 1.2 0 1.7-.7 1.7s-1.8-1-2.9-1.8l-8.5-6.5c-2.3-1.7-.6-1.5-.6-1.5s.6 0 1.9-.5c1.3-.6 1.5-1.3.2-1.7v0c-1.67-.62-3.22-1.5-4.6-2.6 -.7-.7-1-1.4.3-2.1 1.3-.7 4.2-2.6 2-3.2 -2.4-.7-5-1.1-7.3-1.8 -2.2-.6-2.4-1.2-2.4-1.2l1.5-2.1s1.1-1.7-.2-1.9c-1.4-.2-4.8-.6-7.8-2v0c-5.53-2.16-9.72-6.79-11.3-12.5v-.1c1.2 2.2 3.8 6.4 7.8 6.5 5.5.2 6.1-1.5 4.9-3.3 -1.3-1.8-2.7-3.4-3-4 -.4-.5-.5-1.2 1 .2 1.4 1.3 4 5.9 12.3 5.4 8.2-.6 8.2-2.2 8.2-2.6 0-1.6-1.7-1.9-2.7-2.9 -.5-.5-.8-1.2.9-.6 1.7.6 5.7 1.4 11.3.2 2.1-.5 8-3 8.5-6 0 0-3.7-.2-6.3-1.3 -2.5-1-4-2-1.3-1.4 2.7.5 8 1.6 12.7 0 2.7-.9 6.2-3 6.2-7.1 0 0-5-1-6.9-1.8 -1.9-.6-2.5-1.2-2.5-1.2s7.3 2.3 13.8-1c6.6-3.3 6.9-7.9 6.9-9 0-1-.2-1.3-.2-1.3s-6 1.4-10.4 1.4c-4.5 0-5.9-.4-5.9-.4s12.5-.4 18.8-4.2c6.3-3.9 6.7-11.5 6.7-11.5s-7.1 2.6-11.6 3.1 -7.2.5-8.3.4c-1.1 0-1.8-.4.7-.5v0c5.97-.54 11.8-2.16 17.2-4.8 5.3-3.1 8.6-9.7 8.9-12.8 .3-3.1 0-2.6-2.4-1 -2.3 1.4-11 5.9-16.7 7.2l-6.8 1.4s-2.2-.1.7-.9Zm-225.2 14.4l-2.5 1.4 -1.3-2.7c-.2-.6-.1-.8.2-.8l2.3-.4h.3c.3.7.6 1.6 1.1 2.4h-.1Zm76.8 45v0c-2.21 3.12-5.27 5.55-8.8 7 -3 1.4-6.3 1.8-7.7 2 -1.4.2-.2 2-.2 2l1.4 2s-.2.6-2.4 1.3c-2.2.6-5 1-7.2 1.7 -2.3.6.6 2.5 2 3.2 1.2.7 1 1.5.2 2.1 -.7.7-3.2 2.2-4.6 2.6 -1.3.4-1 1.1.2 1.7 1.4.5 5 1.2 5 1.2l-2.3 1.8h-.001c-2.61 1.7-5.6 2.73-8.7 3 -2.5.1-6.6.3-11.7 0l-5.8-.3 -.5-4.3v0c-.49-2.78-1.5-5.43-3-7.8l-3.7-5 .2-1.5c.2-.8 0-1.7-.5-3.3 -.6-1.5-3.6-3.8-3.6-3.8l-.2-3.2c0-1.6-1-7.7-2-10.6 -1-2.9-5.7-10.5-7.8-14v0c-3.15-6.11-4.63-12.94-4.3-19.8l.5-1.3v-.001c.95 1.27 2.14 2.35 3.5 3.2 6.3 3.8 18.8 4.2 18.8 4.2s-1.4.4-5.9.4 -10.4-1.4-10.4-1.4 -.2.3-.2 1.4c0 1 .3 5.6 6.9 9 6.5 3.2 13.8 1 13.8 1s-.6.5-2.5 1.1c-1.8.7-7 1.8-7 1.8 0 4 3.6 6.2 6.3 7.2 4.7 1.5 10 .4 12.7-.1 2.8-.6 1.2.3-1.3 1.4 -2.6 1.1-6.3 1.3-6.3 1.3 .6 3 6.4 5.5 8.6 6 5.5 1.2 9.6.4 11.2-.2 1.7-.6 1.4.1.9.6 -1 1-2.7 1.3-2.7 2.9 0 .4 0 2 8.2 2.6 8.2.5 11-4 12.4-5.4 1.4-1.4 1.3-.7 1-.1 -.4.5-1.8 2.1-3 4 -1.3 1.7-.7 3.4 4.8 3.2 4 0 6.6-4.4 7.8-6.6v.1l.3.3v-.001c-.7 1.81-1.51 3.57-2.4 5.3Zm66.4-178.2l-1.1-2s3 1.4 5 3.5c1.8 2 1.7 3.2 2 4.2 .3 1 0 2.9-.3 4.7 -.3 1.7-.3 2.8.1 3.4 .3.7.7 1 .7 1l-2.7.8c-1.3.6-3 1-4 .2 -.9-.8-1.1-1.3-.5-1.8 .6-.5 2.8-1.2 3-5 .3-3.7-1.5-7.6-2.2-9Zm-17 10.3c.8-1.8 1-3.5.5-7.2 -.4-3.1-1-5.7-1.2-9 0 0 2.3.4 5.6 3.4s4 6.1 4 7.6 -.7 3.4-.9 4.8c0 1.5.4 2.8.4 2.8s-1.1.5-2.2 1.3c-1.1.7-1.9 1.2-3.5 1 -1.7 0-2.7-.7-3.7-1.2l-1.5-.6s1.9-1.1 2.6-3Zm-16-12.8v-.001c1.56-1.6 3.48-2.8 5.6-3.5 -.1 3.4-.7 6-1.2 9 -.5 3.8-.3 5.5.5 7.3 .7 1.8 2.6 2.9 2.6 2.9s-.6 0-1.6.6c-1 .5-2 1.2-3.6 1.3 -1.7 0-2.4-.4-3.5-1.1v0c-.73-.51-1.5-.95-2.3-1.3 0 0 .5-1.3.4-2.7 -.1-1.5-1-3.3-1-4.8 .1-1.6.8-4.6 4.1-7.7Zm-11.8 18.3c-1 .8-2.7.4-4-.2l-2.6-.8s.3-.3.6-1c.4-.6.4-1.7.1-3.4 -.3-1.8-.5-3.7-.3-4.7 .3-1 .3-2.2 2.1-4.2 1.9-2.1 5-3.6 5-3.6l-1.2 2.1c-.7 1.4-2.5 5.3-2.2 9 .3 3.8 2.5 4.5 3 5 .6.5.4 1-.6 1.8Zm43.8 31.7c-3.2 1.7-5 1.3-5 2.7 .2 1.3 3.1 2.3 3.1 2.3s-3 3.2-5.3 4.6c-2.3 1.5-5 2.4-5 2.4s-1 .2-.4 1.6v0c.37 1.19 1.15 2.21 2.2 2.9l1.1.5s-4 4.3-5.8 5.7v0c-1.29 1.06-2.74 1.9-4.3 2.5 -1.4.6-.7 3-.4 4 .4 1 1.6 2.5 2.4 2.7 .7.2 1 .8 0 2.2 -.7 1.1-3 4-4 5.6h-.1l-4.2-5.6c-.9-1.4-.6-2 0-2.2 .8-.2 2-1.6 2.4-2.7 .3-1 1-3.4-.4-4v0c-1.53-.61-2.95-1.45-4.2-2.5v0c-2.03-1.81-3.97-3.71-5.8-5.7l1-.5v0c1.08-.67 1.89-1.7 2.3-2.9 .5-1.4-.4-1.6-.4-1.6s-2.7-1-5-2.4c-2.4-1.4-5.4-4.6-5.4-4.6s3-1 3-2.3c.2-1.4-1.6-1-4.9-2.7 -3.2-1.8-4.3-4.1-4.3-4.1s3.8-1.3 5.7-5v0c.54-1.12.79-2.36.7-3.6h.1c6 2 13.1 2.8 19.4 2.8v0c6.53.07 13.05-.88 19.3-2.8h.2v0c-.1 1.24.15 2.48.7 3.6 1.9 3.7 5.6 5 5.6 5s-1 2.3-4.3 4Z"/><path fill="#D4AF3A" d="M361.2 237.8c0-10.2 4.7-16.7 4.7-16.7l-12.7-14.6c-12.2 4.7-23.3 5-33.2 0 -9.9 5-21 4.7-33.1 0L274 221.1s4.7 6.5 4.7 16.6c0 10.1-2 17.8-3.1 22.7 -1.2 5-2.1 14.1.5 20.7v0c2.53 8 8.73 14.32 16.7 17 11.3 4.8 17.3 7.3 21.2 10.6 4 3.2 5.9 5.9 5.9 5.9s2-2.7 6-6c3.9-3.2 9.8-5.7 21-10.4v0c8.01-2.69 14.25-9.04 16.8-17.1 2.7-6.6 1.7-15.8.5-20.7 -1.1-5-3-12.5-3-22.6Z"/><path fill="#B96B29" d="M357.2 242c-1.6-9.8 4-18.3 4-18.3l-10.9-12.8c-8.4 4.7-20.1 4.1-30.3-.6 -10.1 4.7-21.8 5.3-30.2.6l-11 12.8s5.7 8.5 4 18.3c-1.5 9.7-5 25-4.1 31.3 .9 6.3 5.3 13.6 9.8 17.4h0c4.9 3.74 10.37 6.67 16.2 8.7v0c5.7 2.29 10.9 5.69 15.3 10 0 0 1.5-1.5 3.7-3.2 2.3-1.7 7-5 11.7-6.8v0c5.78-2.05 11.21-4.99 16.1-8.7 4.6-3.8 9-11.1 9.9-17.4 .8-6.3-2.6-21.7-4.2-31.4Z"/><path fill="#1D5E91" d="M356.1 243.1v0c-.88-6.52.23-13.14 3.2-19l-9.8-11c-8.4 4.4-18.5 3.3-29.5-.6 -11 3.9-21.1 5-29.4.7l-9.9 11s4.7 8.4 3.2 18.9c-1.5 10.5-4 22.4-3.6 29.4l.2 1.4h9s.5-.6 1.5-1 1.3-.7 1.3-.7 .2-1.8 1.2-2.2c1.1-.4 1.6-.4 2-.4 .5 0 .8-.1 1.3-.6 .5-.6 2-1.8 2.6-3.6 .6-1.9 1-2.6 1-3.8 0-1.2.4-3 .4-3s-.2-.6-1.1-.3c-1 .3-1-.6-1.2-1.5 0-.9 0-2.7.5-3.6l.7-1.1 -.4-1.5s-5.7 1.2-6.7-3.3 -1.1-6.5-1.3-7c-.1-.5-.3-.7-1-.7 -.8 0-2.4-.4-3.6-2.7 -1-2.3-1.2-3.3-.8-4.2 .3-.9.9-.5 1-.3 .3.3 1.8 2.5 2.4 1.9 .6-.6.3-.6-.6-2.3 -.8-1.8-.5-2.3-.4-3.2l-.3-2.5c0-.4.5-.8 1-.6 .6.3 1 .6 1.3 1 .2.2.3.6.8.4 .5-.3.2-1.9.2-2.4 0-.6.6-1 1.3-.5v0c.68.34 1.14 1.03 1.2 1.8 0 .6 0 1.1.3 1.1s.6-.9.7-1.4c0-.6.4-1.5.9-.7 .5.7.7 1.7.5 2.8 -.2 1.1.2.5-.2 2.4 -.4 2-.6 2.8-.5 4.2 0 1.5 0 2.3.8 4 .7 1.8 1.3 3.8 2.6 3.9h1.7s1.5-2.8 2.6-3.5c1.2-.6 2.8-.7 4-.9 1-.1 1.5-.5 1.5-.8 0-.2-.3-.3-1.7-.5s-2.5-.5-2.6-1.6c0-1 .3-2-.6-2 -1 0-3.2-.8-4-2.2 -.8-1.5-.6-1.8-.5-2.7 0-.8 1.1-2.4 1.8-.9 .7 1.6 1.1 1.8 1.7 2 .5.4 1.3.5 1-.5 -.5-1-.7-1.7-.6-2.5 0-.8.6-1.1 1.2-1.2l3.4-1 1-.2s.1-.7 1.4-1v-.001c.96-.34 1.97-.51 3-.5 .8 0 1.5.1 2.7-.4v0c.88-.49 1.88-.73 2.9-.7v0c.69.08 1.35.35 1.9.8 .5.3.4.9.4 1.4 0 .5 0 .8.8.8 .9 0 1.6 0 2.3.3 .8.3 1.8.7 1.2 1.5 -.7.8-.7 1.7-1.2 1.7 -.4 0-.4.4-.5.7 -.2.3-.4.5.1.8 .5.3.5.6 1.2 1.2 .6.6 1.6 1.3.6 2.3 -1 1-2.7 1.8-2.7 1.8s-1 .5.1 1.1c1.2.7 1.7 2 2.1 2.3l1.2.8c.3.1.2 1 .2 1l-1.5.8c-.8.4-1.7.8-2.5.8s-1.3 0-1 .7c.4.8 1 1.6 1.1 2l.3 1.2s1.4.3 2.6.3l4.3-.2c2.6-.3 3.4-.4 5.9-.1 2.5.2 2.9.2 3.5.4l1.4.6s3.5 0 5.5-.5c2-.4 2.4-1.7 2.1-2.4 -.3-.6-.2-1.6-3.6-2 -3.5-.6-4.8-.4-7.5-.9 -2.8-.5-7-1.9-7.7-5.3 -.8-3.4 2-4.8 3.3-5.5l5.8-2.3c1.4-.5 3.9-1 6.5-.7 2.7.4 4.2 1 5.3.5 1-.7 1.9-.2 1.7.8 -.2 1-1.3 2.9-4.3 3.8 -3 .9-6.6 1-8.5.5 -2-.6-3.4-1.3-4.6-.9 -1.2.4-2.5 1.9-1.3 3.7 1.3 1.7 7.9 2.3 9.6 2.4 1.8.2 8.3-.2 10.2 3 1.8 3.2.3 6.9-1.8 7.7v0c-1.85.69-3.76 1.19-5.7 1.5l-1.7.3s.8 1.7.8 2.4 -.1 2 .7 2.6c.8.5 2 .9 3.3.7 1.4-.1 3 .8 3.1 2 .1 1.3.5 3 .6 5.5 .2 2.5 0 4.5 0 4.5s0 1-.4 1.9c-.3 1-2 4.4-2 4.4h9.5l.2-1.4c.4-7.1-2-19-3.6-29.5Z"/><path fill="#6D8C3E" d="M281.6 278.6v0c2.1 5.96 6.19 11.01 11.6 14.3 8.2 5 11.8 4.3 19.5 9.3 7.7 5 7.2 5.8 7.3 5.8 .1 0-.4-.8 7.3-5.8s11.3-4.4 19.5-9.3h0c5.4-3.29 9.49-8.34 11.6-14.3h-76.7Z"/><g fill="#D4AF3A"><path d="M288.3 237.2c.9 1 1.5 1.2 2.9 1 1.3 0 1.7.9 1.9 2 .2 1 .2 3.5 1.2 5.8s4.2 2.5 4.2 2.5c0-1.1.5-2.6 1-3.9 0-.2.5-1.2-.7-1.2s-1.1-.5-1.8-1.6c-.7-1-2-4-2.4-6v0c-.15-1.93.05-3.86.6-5.7 .4-1 .4-1.7 0-1.9h-1s.2 1-.1 1c-.3.2-.6-.4-.8-1 -.3-.7-.5-.6-1-.6s-.5.5-.1 1c.3.4.1 1.3.1 1.3l-1.4-1c-.5-.2-1.4.2-1.5.8 -.1.5.3 2 1.2 2.7 .9.7 1 2.2.6 3 -.2.6-1.5.5-1.8.2v0c-.3-.34-.8-.37-1.13-.08 -.03.02-.05.04-.08.07 -.4.5-.8.7.1 1.6Zm-.5-2.5l-.7-.6v0c-.17-.24-.34-.47-.5-.7l-.1.7c0 .5.6 1.2.6 1.2l.7-.6Zm2-6.4c.4-.1.7-.2.4-.7 -.4-.5-.6-1-1-1 -.3-.2-.6-.1-.6-.1l.5 1.3c0 .5.2.7.6.5Zm2.4-2c0 .5 0 .7.4.5 .4-.2.5-.7.3-1v0c-.15-.28-.35-.52-.6-.7l-.3-.2s.2 1 .1 1.5Zm3.4.6l-.1-1s0 .6-.3 1c-.2.3-.1.2 0 .5 .3.2.4 0 .4-.5Zm5.4 23.5c.7 1.6 2.4-.9 4-2.9s1.5-.4 1.3 1.2v0c-.15 1.56.2 3.13 1 4.5 .7 1 1.2.4 1.5-.4 .2-.7.5-2.4 1-3.2 .5-.7 1 0 1 .6 .1.7 1 2.2 1.7 3.1 .8 1 1.2-.3 1.5-1.4l.7-3.5c.2-.6 1 0 1 0l1.6 1.5c1 1 1.1-.6 1.2-1.4 .1-.8-.1-2.5.2-2.8 .3-.3 1.2.4 2.5 1 1.4.7 1.3-.6 1.2-1.3v0c-.35-1.3-1.04-2.47-2-3.4 -1.2-1-1.3-2-1-2.5 .4-.5 1.7 0 2.6-.1l1.8-.3c.7-.2.7-.8.7-.8s-.5-.8-1.4-1.6c-.9-.8-1.4-1.4-2.5-1.6 -1.1-.3-2.6 0-2.6 0l-.2-.4c-.1-.3-.4-.3-.6 0l-1.2 1.1c-.4.4-.7.6-1 .5 -.2-.2.3-.6.3-.6s.5-.4 1-1.4c.6-1 .7-2 .3-2.6 -.4-.4-1.5 0-2.2 0 -.6 0-1 .2-1-.2 0-.3.6-.1 1.4-.2 .8-.1 1.3-1 1.5-1.9 .2-.9.5-.6 1-.2 .4.5.9.4 1 0l1-1.8c.5-.8.8-1.9.3-2.6 -.6-.8-2-.7-2.6-.2 -.6.5-1 1-1.1 2.1 -.2 1.2-.5.5-.5.2 0-.4-.4-1-.2-1.5 .2-.4 0-1 0-1s-.1-1-1.2-1.1v0c-1.18-.15-2.37-.04-3.5.3 -1 .2-.9 1.2-.9 1.2l-1.7.1c-.9.1-2 .5-2.8.7 -.8.2-1.1.3-1.1.7l.1 1.1s.7 0 1 .3c.3.3.2.5-.2.7 -.4.2-.6.2-.6.7 0 .5.2.7.7.7 .4 0 1.3 0 2.3.4 1 .4 1.3 1.4 1.2 2 0 .5-1.5 1.2-2.3 1.2 -.8 0-1 .1-1 .6s1 .4 1 .4l2.6.3c1.7.2 2 .6 2.8 1.2 .7.7.2.9-.2 1 -.4.3-1 .8-1.5 1 -.6.2-1 .6-1.5.7 -.5.1-1.8 0-4.2 1 -2.4 1-3.3 4.1-3.3 4.1l1.4-.7c1.1-.5 2.5-1.2 3.8-2 1.2-.7 1.2.4.6 1.5s.6.9 1 .6l2-1.3c1.2-.6.8.4.8.4s-.4.7-.5 2.5c-.1 1.7 1.7 0 2.5-1 .9-1.1 1.2 0 .6 1.2 -.6 1.3-1.8 2.3-2.5 2.3s-1.2-.8-1.3-1.2c0-.4.3-1.7-.1-2 -.5-.3-1.7 0-2.6.6 -.9.5-1 .1-1.3-.4 -.2-.4.3-.6.1-1 -.2-.2-.6 0-1 .2l-2.8 1.5c-1.7.9-1.6 1.3-1.6 2.5s.3 1.5 1 3Z"/><path d="M316.7 224.2l1-.5 1.5-.3c.7 0 .6-.5.4-.8 -.1-.4-.4-.5-1.4-.5 -.9 0-1.5.5-2 .7l-1.1.4 .4.6c.4.5.9.6 1.2.4Zm3.8 3.7l.8-.2 1.3-.6c.6-.2.8-.3 1.2-1 .4-.8-.4-.8-1.5-1 -1-.3-1.6 0-1.7.5 -.1.4 0 .8-.5 1.6s0 .7.4.7Zm-.3 1c-1 0-2.3 1.5-2.7 1.8 -.4.3-.2.6-.2.6l.4 1.2c.2.7.2 1.7.2 1.7h.8c.6 0 1-.2 1.6-.7v0c.53-.38 1.15-.62 1.8-.7 .9-.2 1.3-.3 2.2-.8 1-.5-.5-1.4-1.5-2.2v-.001c-.71-.66-1.64-1.02-2.6-1Zm-14 3.6c.8-.1 1.2-.5 1.2-1s-.4-1-1.5-.9c-2.6.3-5.1-.7-5.6-3.2 0 0-.8 1.6.8 3.4 1.6 1.8 4.3 1.8 5.1 1.7Zm-8.9 41l.5.4h4c.7-.2.7-.8.7-1.2 0-.5.4-2 1-4.7 .5-2.6 1.5-4.5 1.9-5.6 .4-1-.4-1.4-.7-2l-.8-2.5c-.1-.6-1-.5-1.6-.5 -.5 0-.6.9-.7 1.7 0 .8-.4 3.1-.8 5.1 -.4 2-2.7 4.7-3.3 5.3 -.6.6-1.2.8-1.6.8 -.4 0-1.4 0-1.8.3v0c-.54.37-.9.95-1 1.6 0 .6.9 1 .9 1l1-.8c.3-.4 1-.5 1.5-.6 .7-.1.7.1.5.4 -.2.3-.1.4.3 1.2Zm-6-.2c-.4 0-.6.4-.7.6h2.6 0c-.04-.26-.14-.5-.3-.7 -.3-.3-1.1-.1-1.7 0Z"/><path d="M294.8 273.2v0c-.38.16-.72.4-1 .7h2.9c0-.2.1-.6-.2-.9 -.7-.5-1.3 0-1.7.2ZM319 272c-.3 0-.6.3-1 .6 -.5.3-.6.8-.7 1.2v0c-.01.03-.01.06 0 .1h1.3v0c0-.04 0-.07 0-.1 0-.4.2-.7.7-1.1 .5-.5 0-.7-.3-.7Zm2.3 1.3c0-.4-.1-.7-.4-.7 -.2 0-.7.5-1 .8h-.001c-.2.14-.36.3-.5.5h1.7l.2-.6Z"/><path d="M332.3 260.4c.8-.6.7-.8.7-1.5 0-.6 0-.8-.3-1v0c-.86-.5-1.82-.78-2.8-.8 -1.1 0-3.4.3-4.2.8 -.9.6-1.3 2.7-1.3 3.8 0 1 .2 1.2.5 1.2s.8-.8.8-.8l1.8 2.5c.7 1 .4 1.4 0 2.2 -.2.8-1.4 2.9-2.2 3.3 -1 .5-1.6 0-2.6-.1 -1.1-.2-1.7.1-2.3.7 -.6.6 0 1.1.4 1.1 .3 0 .8 0 1.2.5 .3.3.1 1.2 0 1.6h5.2c.9-.4 1.5-1.6 1.7-2.3 .3-.7 1.4-1.7 2-2.2 .5-.5.5-.8.5-2s-.2-1.7-.6-2.5c-.5-.8-.8-2-.6-2.6 0-.7 1.2-1.4 2-2Z"/><path d="M323.7 247.4c.6.9.3 1-.4 1.2v0c-.92.22-1.87.28-2.8.2 -1.1-.1-1.1 0-1.1.6v-.001c-.01.95-.29 1.89-.8 2.7 -.7 1-1.6.6-2 .2 -.6-.3-.9-.2-1 .4l-1.2 2.1c-.5 1-.9 1-1.3.9 -.4-.1-.7-.7-1.1-.7 -.4 0-1-.8-1.6-1.8 -.6-.9-.9.1-1.3 1 -.4.8-.7 1.3-1.5 1.2 -.7 0-1.6-1.5-2-2.3 -.4-.8-.7-1.6-1.3-1.6 -.7 0-1.7 1.4-2.4 1.7 -.7.4-1 .3-1.3-.2 -.3-.4-.7.2-1.1 1.2 -.4 1.1 0 2 .6 2.3 .6.3 1.7-.5 2.5-1 .8-.6 1.1-.5 2-.5 .8 0 .7 1.4 1 3.3 .4 2 1.5 2.2 1.5 2.2s.4.3 1.3-1.1c.9-1.5 1-3 1.8-3 .9 0 1 .2 1.8 1.4 .8 1.1 1.5 2 2 1.1 .5-.8.9-2.1 1.5-2.6 .5-.4 1-.6.4.3 -.5.8-.8 1.7.4 1.4 1.2-.4 5.7-2.2 7.6-2.6l4.7-.5 4-.3c1 0 1 0 1.1-.7 0-.7-.5-.5-2.3-.5 -1.8 0-3 .2-4.3.4 -1.3.2-1.8.2-1.6-.2 .2-.3.6-.5 2-.7v0c1.98-.28 3.99-.44 6-.5 1.6 0 1 .5 1 1.5 -.2 1 0 2.6.2 3.5 0 1 .1 1.3 1 2.7 .9 1.4 3.7 2.2 4.5 2.6 .9.5.7 0 .7-.8s.7-.8 1.4-.3c.7.4 2 .7 2.9 1 .8.2 1 .4 1 .8 0 .5 0 1.5.2 2.4 0 1 0 1.2-.4 1.8l-2 2.3s-.8 0-2.3.4c-1.6.3-2.1 1.1-2.3 1.7 -.1.7.3.9.4 1.1v.8h.4c0-.2.3-.5.5-.8 .6-.7 2-.9 2.9-.5 .6.3.6 1 .5 1.3h3.6l2-3.9v0c.39-.82.59-1.7.6-2.6 0-1.2.2-5.8 0-6 -.3-.3 0-1.1 0-2.4 -.1-1.3 0-2.3-2.4-2.5 -2.4-.2-3.2-1.2-4-2 -.8-.8-.6-2.7-1.2-5 -.7-2.2-2.3-2.6-5-3.1v-.001c-2.3-.52-4.66-.69-7-.5 -2.2.2-4.8.5-6.2.4 -1.5-.2-1.2.2-.7 1Z"/><path d="M337.3 273.4l-.5.5h2.4 0c.02-.26-.05-.51-.2-.7 -.4-.4-1-.2-1.7.2Zm4.4-.2l-.001-.001c-.32.16-.6.4-.8.7h2.5 0c.01-.1.01-.21-.001-.3 -.1-.4-.9-.8-1.7-.4Zm-61 1.6v0c.12.77.29 1.54.5 2.3h77.6l.6-2.3h-78.8Zm52.3-37.1c2.4 1.6 10.2 1.7 13.9 2.4 3.6.8 3.4 3.6 2.3 5 -1.2 1.5-6.3 1.7-7.2 1.8 .5.3 1.2 1.4 1.2 1.4l2.1-.2v0c2.18-.05 4.31-.75 6.1-2 1.9-1.6 1.8-4 .1-5.8 -1.6-1.6-4.3-1.8-7-2.1 -2.8-.3-5-.5-8-1 -3.2-.6-4.7-1.8-4.7-3.6s1.7-2.8 2.9-3.1c1.2-.4 3.1-.9 4.9-.2 1.7.6 3.7.7 7.1.3 3.4-.5 4.2-2.8 4.2-2.8s-.4.2-2.2.2c-1.7 0-3-.7-6-.7 -3.2 0-4.3 1-5.8 1.6 -1.5.5-5.4.9-6.5 3.4 -1.2 2.5.1 3.7 2.6 5.4Z"/></g><g fill="#B96B29"><path d="M312.6 224.6a1.5 1.4 0 1 0 0 2.8 1.5 1.4 0 1 0 0-2.8Z"/><path d="M344 228.4c-2-.2-4.5.4-4.5.4s.5.4 1.2.3c.6 0 1.8 0 3.7.3 1.9.3 3.2-.6 3.2-.6l-3.6-.4Z"/></g><path fill="#1D5E91" d="M325.6 264.6c-.5-.8-.6-.7-1.2-.2 -.5.4-1-1.2-1.1-2.2l.4-4.1s-2.6.5-4 1l-4 .9c-1.1.2-1.8.5-2.4.4 -.6-.2-1.9-.2-2.9-.2s-1 .2-2 1.2 -1.3 1.5-2 3.4v0c-.78 1.91-1.25 3.93-1.4 6h0c-.13 1.05-.37 2.09-.7 3.1h12.2l.5-1.2h0c.29-.62.78-1.11 1.4-1.4 .5-.2 1-.2 1.2-.8 .2-.5.8-1 1.4-1.2 .7-.3 1.8-.2 2.8.1 1 .3 1.4-.4 1.7-.8 .3-.4.4-1 1-1.6 .5-.7 0-1.3 0-1.3l-1-1.1Zm19.5.3c-.1-.7 0-.8-.5-.9 -.4 0-1.1-.2-1.7-.5 -.6-.2-.5 1.4-.5 1.4s-1.5.2-3.1 0 -3.5-1.7-4.2-2.2h0c-.56-.41-1.04-.92-1.4-1.5l-1 .7c-.5.3-.8 1.3-1 2.4 0 1 1.3 2.2 1.4 3.2 0 1-1.2 3.1-1.8 4h0c-.52.73-.93 1.54-1.2 2.4h5.9v0c.13-.37.33-.71.6-1 .6-.6 1.6-.7 1.6-.7l.2-.8c.2-.5.9-1.2 2.3-1.8 1.5-.5 3.3-.6 3.3-.6s.7-.6 1.2-1.4c.5-.8 0-2 0-2.7Z"/><g fill="#D4AF3A"><path d="M296.2 329.6c1.1.4 3.2-.4 4.2-1.6 1-1.3 1.4-3.2 2.1-4.3l1.3-1.9s-.2 1.8-1.2 4.3v0c-.78 2.17-1.05 4.5-.8 6.8 .4 2.7 2.2 3.1 3.2 2.7 .8-.2 2-1.4 3-3.2l1-2c.6-1.3 1.2-3.5 1.5-3.4 .7.1.3 1.6 0 2.6 -.5 2-1.5 5-1.6 7 0 1.7.2 5 2 5.2 1.8.1 2.8-1.5 3.8-5.2s1.2-5 1.7-5c.4 0 .4 2.6.4 3.7v0c0 2.55.55 5.07 1.6 7.4 .9.8 1.6.7 1.6.7s.7.1 1.6-.7c.9-.8 1.6-6.3 1.6-7.4 0-1 0-3.6.5-3.6s.6 1.2 1.6 4.9 2 5.3 3.8 5.2c1.9-.2 2-3.5 2-5.3 0-1.8-1.1-4.8-1.6-6.9 -.5-2 .2-1.9 1.6.8l1.3 2.5c1 1.6 2 2.5 2.6 2.7 1 .4 2.8 0 3.2-2.7 .5-2.7-1.6-10.5-1.6-10.5l1 1.3c.7 1.1 1 3 2 4.3 1 1.2 3.1 2 4.2 1.7 1-.4 1.2-2.4.4-6.1 -.8-3.7-4-5.7-6.4-8.6h0c-1.73-2.53-3.08-5.29-4-8.2v0c-2.95 1.37-5.63 3.27-7.9 5.6l-5.9 6.3s-1-1.3-5.8-6.3v0c-2.31-2.34-5.02-4.24-8-5.6 -.2.6-2.2 5.2-4.4 7.9 -1 1.3-2.5 2.3-3.6 3.6v0c-1.21 1.55-2.04 3.36-2.4 5.3 -.8 3.6-.6 5.7.5 6Z"/><path d="M296 342c1.5-1.2 2.2-2 2.2-2s1-.8.8.9c-.3 1.6-.8 5-.5 6.4 .4 1.4.5 2.7 2.3 1.6 1.8-1 2.3-1.7 3.1-2.6 .9-.9 1.8-1.3 1.6.1 -.3 1.4-.9 3.6-.6 6.4 .3 3 1.7 3.3 3.6.9v0c1.37-1.84 2.54-3.82 3.5-5.9 .5-1.2 1.6-2.2 1.6 0 0 4.8 1.1 11.8 6.4 13.6 5.3-1.8 6.4-8.8 6.4-13.6 0-2.2 1.1-1.2 1.7 0v-.001c.95 2.08 2.12 4.06 3.5 5.9 1.8 2.4 3.2 2 3.5-.9 .3-2.8-.3-5-.5-6.4 -.2-1.4.6-1 1.5-.1s1.3 1.5 3 2.6c1.9 1 2-.2 2.4-1.6 .3-1.5-.2-4.8-.5-6.4 -.2-1.7.8-.8.8-.8l2.1 2v-.001c.98.73 2.17 1.15 3.4 1.2 0 0 .9-5-1.2-8 -2-3-2.9-4-2.9-4s-1.1 0-2-.4c-1-.3-1.8-1-1.8-1v2.8l3.1 3.1c.6.8 1.8 2 0 .8v0c-1.07-.76-2.1-1.57-3.1-2.4 0 0-.4 2.5-1.1 3.2 -.7.6-1.8.7-2.2.5l-.4-.1 -.2 1s1.6 3 1.8 4.1c.3 1.2 0 1-.8-.5 -.7-1.5-2.2-3.5-2.8-4.5 -.6-1.1-1.6-1.8-1.5-.5 .1 1.4-.5 3.9-1 4.8 -.4.9-.7 1.2-.7 1.2l1.1 4c.1.7 0 1.5-.5.6 -.6-.8-2.1-4.2-2.1-4.2s-2.1 0-2.7-.7c-.6-.6-1.6-2.9-1.6-2.9s-.8 3-1.5 4c-.7.9-2.4 1.8-2.4 1.8l-.2 6c-.2 1-.2 1.3-.6 1.3 -.4 0-.4-.4-.5-1.3l-.3-6s-1.6-1-2.3-1.9c-.7-1-1.6-3.9-1.6-3.9s-1 2.3-1.5 3c-.6.5-2.7.6-2.7.6s-1.6 3.4-2.2 4.2c-.5.9-.6.1-.5-.5l1.1-4.1s-.3-.3-.7-1.2c-.5-1-1-3.4-1-4.8 .1-1.3-.8-.6-1.5.5s-2 3-2.8 4.5c-.8 1.5-1 1.7-.8.5 .2-1.2 1.8-4.1 1.8-4.1l-.1-1 -.5.1c-.4.2-1.4.1-2.2-.5 -.7-.6-1-3.2-1-3.2l-3.2 2.4c-1.8 1.2-.6 0 0-.8l3.2-3.1v-2.8s-1 .7-1.8 1c-1 .4-2.1.4-2.1.4l-2.9 4c-2 3-1.2 8-1.2 8s2 0 3.4-1.3Zm25.8 33.5L320 373s-.4.8-1.8 2.4v0c-1.41 1.43-2.91 2.77-4.5 4 0 0 .3 4.2 1.8 6.5 1.3 1.9 2.5 3.6 4.5 5 2-1.4 3.3-3.1 4.5-5 1.6-2.3 1.9-6.5 1.9-6.5s-3.2-2.4-4.6-4Z"/></g><path fill="#B96B29" d="M319.4 380.6c0 1 0 3.4.6 3.4s.5-2.4.6-3.4l.2-3.3h-1.6s0 2.3.2 3.3Z"/><g fill="#D4AF3A"><path d="M320 151.3c-5.7.1-12.3-.7-16-2l-3.8.8v0c6.32 2.37 13.04 3.49 19.8 3.3 8.8-.1 13.8-1 19.8-3.3l-4-.8v0c-5.13 1.49-10.47 2.16-15.8 2Zm20.5-4.7c-.4-.4-3-2.2-3.7-2.5 -.6-.4-.1-1.3 0-1.6 .1-.4 3-1.2 4.6-1.7 1.6-.4 1.4-.7 1.4-.7s-1-1.1-6.8-1.7c-5.8-.7-16-.5-16-.5s-10.2-.2-16 .5c-5.8.6-6.8 1.7-6.8 1.7s-.2.3 1.4.7v0c1.59.33 3.14.87 4.6 1.6 .1.4.6 1.3 0 1.6v0c-1.28.8-2.52 1.67-3.7 2.6 -.5.4-.5 1 .2 1s.7 0 2.7-.4v0c11.62-2.21 23.57-2.21 35.2-.001 2 .4 2 .4 2.7.4 .7 0 .7-.6.2-1Z"/><path d="M333.9 149c-4-.4-6.5-1-13.9-.9 -7.4.1-10 .5-13.9 1 2.5 1 6.6 1.5 13.9 1.5 7.3 0 11.4-.5 13.9-1.5Zm-15-57.5l-.1 2.8 3-.2 -.3-2.7 3.3.5 .1-2.6 -3.4.3 .6-2.9h-3.8l.7 2.9 -3.3-.3v2.6Zm6.5 7.1h-4v-3.4 0c-.43-.12-.87-.19-1.3-.2l-1 .1v3.5h-4.3l-.001-.001c-.22.64-.29 1.32-.2 2h11v-.6l-.001-.001c-.01-.48-.08-.95-.2-1.4Z"/></g><path fill="#1D5E91" d="M320.1 105v0c2.26.04 4.33-1.31 5.2-3.4H315h0c.83 2.13 2.9 3.53 5.2 3.5Zm2.3-9.5v2.4h2.7 -.001c-.6-1.1-1.55-1.95-2.7-2.4Zm-4.5 0v0c-1.2.43-2.19 1.29-2.8 2.4h2.8v-2.4Z"/><path fill="#B96B29" d="M323.3 140l-3.3-1.5 -3.3 1.7c-1.2.5-1 .4-1.4 1.2 -.3.9 0 1.2.6 1.4l4.1 2 4.6-2c.8-.4.7-.8.4-1.5 -.2-.6-.7-.8-1.7-1.3Z"/><g fill="#D4AF3A"><path d="M320 139.3l-3.5 1.7 3.6 1.9 3.5-1.9Zm0-12.3s-.3 1.2-.7 1.8c-.4.5-.7 1-.6 1.7 0 .6.8 1 1.3 1 .4 0 1.2-.4 1.3-1 0-.7-.2-1.2-.6-1.7 -.4-.6-.7-1.8-.7-1.8Z"/><path d="M320 132.1a.7.7 0 1 0 0 1.4 .7.7 0 1 0 0-1.4Z"/><path d="M317.6 129.4s1.1-1.3 1.6-2.2l.8-1.5 .8 1.5c.4.9 1.6 2.2 1.6 2.2s1.6-1 2.6-4c1-3.2-.3-6.6-.7-10.1l-.001 0c-.35-3.26-.62-6.53-.8-9.8v0c-1.07.62-2.27.96-3.5 1v0c-1.27-.02-2.51-.37-3.6-1 0 0-.3 6.2-.8 9.8 -.4 3.6-1.6 6.9-.6 10 1 3.2 2.6 4 2.6 4Z"/></g><g fill="#B96B29"><path d="M320 119.6a2.8 2.7 0 1 0 0 5.4 2.8 2.7 0 1 0 0-5.4Z"/><path d="M320 113.2a2.7 2.6 0 1 0 0 5.2 2.7 2.6 0 1 0 0-5.2Z"/><path d="M320 107.2a2.6 2.5 0 1 0 0 5 2.6 2.5 0 1 0 0-5Z"/></g><g fill="#D4AF3A"><path d="M320 120.4a1.5 1.4 0 1 0 0 2.8 1.5 1.4 0 1 0 0-2.8Z"/><path d="M320 114a1.4 1.4 0 1 0 0 2.8 1.4 1.4 0 1 0 0-2.8Z"/><path d="M320 108a1.3 1.2 0 1 0 0 2.4 1.3 1.2 0 1 0 0-2.4Z"/></g><path fill="#B96B29" d="M319.9 336c.2.1.2-.3.2-1.2l.4-4c.2-1.2-.3-1.1-.6-1 -.3 0-.5.9-.5 1.4l.1 4.2c0 .6.2.6.4.7Z"/><g fill="#D4AF3A"><path d="M290.4 359.1l5.2-3.6h-.001c1.63-.99 3.01-2.37 4-4h-1c-.6 0-1-.7-1.1-1.5 0-.8 0-2.3.2-4.1 .2-1.8-.3-3.3-.3-3.3s-1.2 1.1-3 2c-2 1-2.7.6-2.7.6l-.4-1.9 -2 3.7c-1.1 2-4.2 4.2-6.4 5.8v0c-1.95 1.61-4.1 2.95-6.4 4 -1.8.7-.7 1.5-.7 1.5s1.8 1.8 6.5 2.7c4.6.8 6.9-1 8.1-1.9Z"/><path d="M306.8 357.3c-1.7-.2-2.7-.8-3-2.6 -.2-1.2 0-5.7 0-5.7l-1.1 1.2c-.7.8-2 1-2 1l-1 1.6v0c-.74 1.29-1.76 2.38-3 3.2v-.001c-1.6.98-3.13 2.04-4.6 3.2v0c-1.34 1.16-2.78 2.2-4.3 3.1v0c-1.84.95-3.16 2.67-3.6 4.7 -.5 2.4 0 3.1 1.8 3 1.8-.1 2 0 5-.7 3-.8 7.3-4.1 10.4-6 3-2 5.4-6 5.4-6Z"/><path d="M315 360s-1.2-1.6-1.7-3.4l-1.3-5.4 -1.5 3.3c-1 2.1-2.7 2.7-2.7 2.7s0 .9-1.5 2.7v0c-1.6 1.92-3.53 3.55-5.7 4.8 -2.1 1.2-5 3-6.4 5.1 -1.5 2.2-1.7 4.4-1 5.4 .8 1 1.8-.1 3.2-.9 1.4-.7 5.5-1.3 11.2-4.4 5.6-3 7.4-9.9 7.4-9.9Z"/><path d="M317.5 372.7c1.5-2.4 1.8-8 1.8-8l-1.3-1c-.8-.7-2.2-2.9-2.2-2.9l-2 3.8c-1 1.8-1.5 2.4-3.6 4.3 -2.1 2-5 3.9-6.2 6 -1.2 2-.5 6.1.3 7.5 .8 1.5 2 1 3-.1l3.7-3.3c2.1-1.8 5-4 6.5-6.3Z"/></g><path fill="#B96B29" d="M299 325.3c.8-1.7 1.7-3.7 2.5-4.8v0c.49-.7.93-1.44 1.3-2.2 0 0-2 1.8-2.8 3.1 -.8 1.4-1.3 2.6-1.7 4 -.3 1.4-.2 1.6.7 0Zm8 1.5l.5-1.9s.3-1 .1-1.1c-.2-.1-1 .6-1.6 2.5 -.5 1.8-1.4 4.5-1.2 4.6 .2 0 1.8-3 2.2-4.1Zm6.3 5l.3-.8s.7-2 .7-2.5c0-.4-.2-1-.8.1 -.6 1.1-.6 2.2-.7 2.6 0 .5-.7 2.1-.5 2.3 .2.1.6-.9 1-1.7ZM293.7 351l-.8-.5 -1.3 1.5c-.7.7-1.5 1-2 1.7l0 0c-.72.95-1.64 1.74-2.7 2.3 -1.3.7-1.8 1-1.6 1.1 .3.2 1.2-.3 1.2-.3s.3 0 1.9-1c1.6-.9 2-1.4 3-2.3 1-.9 2.3-2.5 2.3-2.5Zm6.8 8.1c.6-.6 1.3-1 1-1.4 -.4-.3-.8-.3-1.4.2l-2.8 2.6 -2 1.5c-.7.6-2.3 1.4-3 1.8 -.8.5-.1.5-.1.5l1.2-.5 2.5-1s.7-.3 1.6-1c1-.7 2.4-2 3-2.7Zm7.9 5.5c.5-1 0-.8-.9-.4 -.8.3-2.7 2.4-3.8 3.1 -1.1.8-2 1.1-3 1.6 -.9.4-.9.7-.8.9 0 .2.4.2.8 0l1.6-.9 1-.2c.6 0 1.3-.6 2.4-1.6 1.2-1 2.2-1.5 2.7-2.5Zm3.7 7.2c-1.4.8-3.8 2.7-4.5 4 -.6 1.2-1 2.1-.8 2.3 .2.2.9-.2 1.2-.7l.9-1.2s2.4-2.4 3.3-3v0c1.09-.78 1.98-1.81 2.6-3 .4-1 .1-1.4.1-1.4s-1.5 2.1-2.8 3Z"/><path fill="#C52126" d="M275 170l0-.001c-2.57-1.41-5.39-2.29-8.3-2.6 -3.7-.3-6.5.2-9.5 1 -2.2.6-4 .7-5.7.3 -2.6-.7-4.6-3-5.3-6 0 0-2.4 3.1 0 6.5h0c1.04 1.48 2.61 2.52 4.4 2.9 5 1 10-2 14.3-2.4 4-.2 7.3 2.4 7.3 2.4s1 .8 2.3 0c1.4-.8 1.8-1.4.5-2.2Z"/><g fill="#D4AF3A"><path d="M260.3 317.5l-1.2-.2c-.7 0-2.2-.6-2.7-.8 -.4-.2-1.1-.2-1.6.3 -.4.5-4 2.7-4 2.7h6c2 0 3.5-2 3.5-2Z"/><path d="M277.4 316.4v-.5l-.8-1.8s-1 .6-1.9 1.5c-1.2 1.3-2.4 3-3 3.7 -1 1.3-2.4 2.5-1.2.5s1.6-3 2.6-4.4c1-1.3 1.7-2 1.5-2l-3.4-.5c-2.5-.3-4.1-1.3-5.3-2l-3.3-1.9s-4.3 1.9-5.9 2.3c-1.6.4-2.6.6-1 1.4 1.6.8 2.9 1 3.7 1.5v0c1.42.73 2.99 1.14 4.6 1.2 1.4 0 3.9 0 3 1 -1 1.1-2.1 3-3.2 6v0c-.75 2.25-1.08 4.62-1 7v2.5s1.8-2 6.6-5 6.6-4 7.5-4.4c.9-.4 1.3-.4 1.1-1.5l-.6-4.6Z"/><path d="M295.6 302v0c-.31-.14-.61-.27-.9-.4v0c-.07-.01-.14-.01-.2 0v0c-1.82 1.06-3.38 2.49-4.6 4.2 -1.2 1.9-2.4 2-1.1 0v0c.85-1.56 1.93-2.97 3.2-4.2v0c.32-.28.65-.55 1-.8v0c-2.55-1.21-4.99-2.61-7.3-4.2l-1.6 2.5c-1 1-3.3 2-3.3 2s1.8-2 2.4-3.3l.8-2.5v0c-1.76-1.37-3.37-2.91-4.8-4.6v0c-.76 2.76-2.16 5.29-4.1 7.4 -3.8 4.2-11.3 6.3-11.3 6.3s-2.6.3-.5.9c2.2.5 3.7 1.5 7.8.8l5-1.1c.6-.2 2 0 0 .7 -2 .8-6.9 1.5-8.7 1.4 -1.9-.2-4.4-.6-1.8.8 2.7 1.4 3.8 2 5.4 2 1.6 0 2.3.5 3.9.5s2-.3 3-.5c1.2-.3 2 .1 2 .6 0 .4-1.6 1.7-1.5 4.7 0 3.1.3 5.1.5 6 .3 1 1 2.4 1.4 3.2 .5.8.7 1.7 1.1-.1 .5-1.8 1.5-4.4 1.9-6.1 .3-1.7.6-1.8.7-2.7 .2-.9 1.2-1.6.7 0v0c-.47 1.72-.91 3.45-1.3 5.2 -.3 1.5-1.1 4.2.2 2 1.4-2 6.4-7.7 7.3-8.8l2-2.8c.7-.8 2.4-1.9 3.3-3.1v0c1.16-1.46 2.47-2.8 3.9-4l-4.5-2Zm-69.5-129.2c0 3.1 3.5 9 5.5 12.2 1.9 3.1 2.4 4.4 2 4.6 -.2.2-1-1.4-2.1-2.8s-3.2-4.7-5-7.2c-1.6-2.5-4.2-8.4-4.5-8.9 -.4-.5-.5-.9-1.4-.2 -.8.7-2.5 7.2-.5 11.6 2 4.4 5 7.6 6.3 9.2 1.3 1.5 3 4 2.7 4.1 -.3.2-.8-.4-2.3-2L221 187h-.001c-1.41-1.92-2.68-3.92-3.8-6 -.2-.5-.6-.4-.8-.2 -.5.6-1.4 1.9-1 5.4v0c.52 3.91 2.4 7.51 5.3 10.2 2.3 2.4 4.6 4.5 4.2 4.9 -.3.3-2.7-1.8-4.3-3.3 -1.6-1.6-5.5-5.4-6.4-6.5 -.9-1-2.1-.5-2 3.7 0 4.3 4.7 8.5 6.6 10.9 2 2.3 4.4 3.7 4.2 4.2 -.2.5-2.2-.7-3.4-1.6l-7-4.6c-1-.7-1.4.6-.2 4.6 1.2 4 4.7 7.2 6.8 8.7 2 1.5 5.4 3.3 5.2 3.8 -.2.4-1.6-.2-3.6-1.1v0c-1.94-.93-3.95-1.7-6-2.3 -1.6-.5-1.6.7-1.6.7s-.3 3.5 2.2 6.2l-.001-.001c2.07 2.32 4.91 3.84 8 4.3 2.6.5 3 .6 3 1 -.1.4-.4.5-1 .5l-5.4.2c-2.2 0-3.4.6-3.4 1.6s-.1 2.3 3.3 4.6 7.2 2.6 8.8 3c1.6.3 1.7.4 1.4.9 -.4.5-1.1.4-3.6.7 -2.6.2-4.1 1.2-4.5 2 -.3.6.2 2.6 2.3 4 2 1.4 4.8 1.9 8.8 1.6 4-.3 5-.3 5.1.3 .2.7-1.2 1-3.2 1.2 -2 .4-3.5.4-4.7 1.3 -1.1 1-.2 2.9 1.7 4.3 2 1.4 6.8 1.4 8.8 1.3 2-.2 5-.9 5.3-.4 .2.6-1.5 1.4-3.6 2.1 -2 .8-2.7 1.2-3 2.1 -.5.9-.1 1.7 2.3 2.6 2.5 1 6.1 1 8 0 1.9-.8 2.9-1.1 3.2-.8 .4.3 0 .7-.4 1.1 -.4.5-2 1.8-4 2.3 -2.1.6-2.3.6-3 2.2 -.8 1.7 1 3 4.8 3.2 3.8.1 8.8-1.4 10.4-2.3 1.6-1 2.2-1.1 2.5-.8 .2.3.2.5-.6 1.1 -.8.6-3.4 2.5-4.7 2.8 -1.2.3-1.4 1.3-1.4 2.1 0 1-.3 2.6 3 3.5 3.4.8 7.3.2 11-2.4h-.001c.84-.53 1.59-1.21 2.2-2h-.001c-.32-2.67-.25-5.36.2-8 -.7 0-2-.3-3.4-.9 -2-.8-2.8-2.6-3.3-3.6 -.4-1-1.1-1-2-.8 -.7.3-1.5.6-2.6.6v-.001c-2.07-.21-3.97-1.21-5.3-2.8 -1.8-2-1.4-4-1.5-5 0-1-1.7-.3-2.5-.3s-3.1-.4-5.3-1.9c-2.1-1.4-2.1-3.4-2.3-4.3 -.2-.8-1-1.3-1.7-1.6 -.7-.2-1.8-.5-3.3-1.7l-.001-.001c-1.18-1.18-1.89-2.75-2-4.4 -.1-.8-1-.8-4-2.4 -3-1.5-2.7-4.7-2.6-6 .1-1.3 1.5-2.3 1.5-2.8s-1-.6-2-1.2 -3.5-1.6-3.6-5.4c0-3.7 2.4-4.1 2.4-4.1l-1.4-.8c-1-.6-3.8-2.5-3.8-4.7s1-3.2 1.8-3.8c.8-.6 2.7-1 2.7-1s-1.3-.9-1.8-2.6c-.5-1.7-.7-3.9.5-5.4 1.3-1.6 3.4-1.6 4.6-1.6 1.1 0 2.1.6 2.5.3 .4-.3.5-.6 0-1.5h-.001c-.36-1.21-.36-2.5 0-3.7 .3-.8.4-2.2 3.2-3.2 2.9-.9 6 1 6.9 1.6 .9.5.5-.8.5-1.7 0-1-2-3.3-4.2-6.6v0c-2.14-3.25-4.01-6.66-5.6-10.2v-.001c-1.98-4.3-3.49-8.79-4.5-13.4 -.3-1.6-1-.8-1-.8s-.6.2-2.2 4.1v0c-1.28 3.34-1.83 6.92-1.6 10.5Z"/><path d="M276.5 241.4c-1.7-.1-4-1-5.7-3.6 -1.7-2.5-4.3-3-8.8-3 -4.4.1-6.5-2-7.6-5.2 -1.1-3 .1-6.6 4.7-8.9 4.6-2.2 6.7-4.7 6.8-8.6 .2-3.9-4.5-8.7-9.3-14.1 -4.7-5.5-8.4-13.2-8.4-13.2s-1.4 1.8-1.4 3.7c0 1.8.7 3.7 0 4.2s-1-.8-3.7-2c-2.8-1.2-5-1.4-6.7.6 -1.8 2 0 5.4 1.5 7 1.6 1.7 2.9 3 2.4 3.5 -.4.6-2.7-.9-3.5-1.4 -.8-.5-2.6-2.5-5.3-2.3 -2.6.3-3.6 1-3.8 3.3 -.3 2.3 2.4 4.2 4.1 5.1 1.7.9 2.4 1.6 2 2 -.5.3-.9 0-1.7-.3v0c-1.41-.4-2.9-.4-4.3 0 -1.4.6-3.6 2.5-1.5 4.8s6.4 3.2 7.2 3.3c.9.2 1.3 0 1.4.6 0 .7-1.8.7-4.1.8 -2.4.1-3 2.4-2.7 4 .3 1.8 4.2 3.7 6.4 4 2.1.4 2.9 0 3 .7 .2.6-.2.8-1.4 1.2 -1.2.3-3.5.6-4 2.5 -.4 1.9-.5 2.7 1.3 4.4 1.8 1.6 4.8 1.4 5.6 1.2 .9-.2 2-1.1 2.8-.3 .9.9-.8 1.6-2.3 2.6 -1.4 1-1.3 3 1.2 4.4 2.5 1.4 5 .9 6 .5 1-.3 2.4-2 3.1-1 .7 1.1-2.2 1.5-3.4 3 -1.2 1.4-.7 3.8 1.7 5.3s6.4.4 7-.2c.7-.6 1.6-.8 2.1-.3s-.2 1.9-.8 3c-.5 1.3-1.4 4.8 2.2 6.2 3.6 1.4 6.9-1.7 7.5-2.3 .6-.6 1.2-.7 1.7-.5 .5.3.3.8-.1 1.4 -.5.6-1.4 3.2 1.2 5v0c1.37.94 3.06 1.3 4.7 1l2-7.2h-.6c-.3 0-.4.5-.4.7 0 .2 0 .4-.2.4 -.3 0-.4.2-.8.5 -.5.3-.9.7-1.1.5 -.3-.2 1-.8 1.2-1.2 .3-.4 1-1 1-1.4 0-.4.2-.6.9-1.1l.4-.6v0c.83-4.2 1.4-8.44 1.7-12.7h-1.2ZM203 187.6v0c2.23 4.63 5.39 8.75 9.3 12.1l-1-3.2c-.4-1.4-.2-2.9-.2-2.9s-1.3-1.7-3.8-5.6c-2.6-3.9-3.9-9.6-3.9-9.6s2.4 5.7 4.2 8.8c1.8 3 4 5.5 4 5.5s.6-2.7 1.2-2.8c.5-.2.9.2 1.3.8 .5.6.9.6.9.6l-1.6-2.8 -1.5-2.2c-1.5-2.3-4.6-6.6-6.1-10.9 -1.6-4.3-5.1-15.1-5.7-18.3 -.6-3.2-1.2-1.4-1.8.9v0c-1.04 3.46-1.38 7.1-1 10.7l0 0c.71 6.59 2.64 13 5.7 18.9Zm5 21v-.001c1.15.85 2.32 1.68 3.5 2.5l-.6-1.7 -.3-2.9 -2.8-2.5v-.001c-2.06-1.82-3.94-3.83-5.6-6 -3-3.6-.6-1.4 1.8 1.2 2.4 2.6 7 6.3 7 6.3v-.8 0c.01-.7.26-1.37.7-1.9 .4-.6.2-.6-2.4-2.6v0c-7.47-6.86-13.46-15.16-17.6-24.4 0 0-1.4 9 4 18.7 5.4 9.9 10.8 13 12.2 14.1Zm28.5 56.3c3-1.2 2.1-4.1 2.1-4.1s-1.8.5-3.5 1.2c-1.7.6-5.8 1.8-7.4 1.8 -1.7 0-1.7-.2-1.7-.4s1.2 0 3.6-.4v0c2.52-.71 4.95-1.75 7.2-3.1 .7-.5.6-.6-.4-.7h-.001c-.88-.07-1.71-.38-2.4-.9 -.4-.3-1.5.1-4.2.8v0c-7.04 1.76-14.37 2-21.5.7 -.6-.2-1.3.2.7 3.7 2.1 3.5 9.4 5.3 14.4 5.3s10.1-2.8 13-3.9Zm-13.4-7.2c5.2 0 7.1-1.5 7.1-1.5l-.7-1.3c-.7-1-.6-2.9-.6-2.9l-3.4.6c-2.1.3-4.6.6-7.4.1 -2.8-.5-1.6-.8.6-.5 2.2.2 6.4-.6 7.8-1 1.4-.5.8-1-.1-1.3 -1-.3-3.5-1.9-3.5-1.9s-6.3.8-12.1.2c-6-.7-9.6-2.2-10.8-2.4 -1.2-.2-1.2.3-1.2.3s-.3.6 1.8 3.7c2 3.2 6 5.3 9.3 6.3 3.4 1 8 1.6 13.2 1.6Zm-1.4-12.2l-.5-1.3c-.3-1 .6-1.9.6-1.9s-1.2-.3-5.1-.8c-3.9-.5-4.1-.8-6.5-1.3 -2.4-.6-4-1.3-4-1.5 .1-.3.9 0 2.3.6 1.4.5 7.4 1.2 9.9 1.5 2.5.4 3.9.6 4.3.4 .5-.3 2-.7 2-.7l-2.4-.5v0c-1.15-.21-2.24-.65-3.2-1.3 -.7-.5-.9-.6-4-1 -3.3-.3-5.8-1.3-11.5-3.4 -5.7-2-10-4.6-11.1-5.5 -1.2-1-1-.3-.8 1 .3 1.1.3 2.6 3.2 6 2.8 3.3 4.2 4.8 11.5 7.4 7.2 2.7 15.3 2.3 15.3 2.3ZM200.2 228h0c4.66 3.18 9.94 5.36 15.5 6.4 .4-.4-.4-2 0-2.8 .4-1.1 1-1.1 2.6-1.2 1.6-.1.5-.4.2-.4l-3-.7c-2.6-.7-5.2-1.1-8.7-2.4 -3.5-1.4-4.6-2.3-4.5-2.6 .1-.3 1.6.8 5 2 3.2 1.3 7 1.8 9 2.3 2.1.4.3-.5-.7-1 -1-.6-2.3-2.8-2.3-2.8s-2.3-.4-6-1.5h-.001c-3.48-1.03-6.84-2.44-10-4.2 -1.1-.6-2.2-1.4-3.3-2.2l-5.1-3.7c-1.3-1-1-.2-.8.4 .2.6 1 3.2 3 6.1 2 3 2.7 3.8 9.1 8.3Zm-1-12.7c6.3 5 11.7 6.6 12.6 7 1 .4.9-.2.7-.7 -.2-.5-.3-2.2-.3-2.2l-4.8-2.8h0c-2.45-1.44-4.82-3.01-7.1-4.7 -1.9-1.3-.8-1.2-.2-.7 .6.5 3.1 2 5.7 3.6l6.4 3.9s.1-.9.7-1.4c.5-.5 1.8-.4 1.8-.4l-1-1.3c-.4-.6-2.5-1.3-4.9-2.4l0 0c-3.43-1.94-6.65-4.22-9.6-6.8 -3-2.6-9-9.1-9.5-9.7 -.4-.5-.6-.4-.7.3 0 .6-.2 1 .4 4 .7 3 3.5 9.4 9.8 14.3Zm22.3-47.2c.7 1.5 1.5 2.6 2 3.6v0c.48.78.95 1.58 1.4 2.4 0 0 .2-.5 0-1.4 -.1-.8-.2-2 0-3.5l.3-2.3c0-.7-.4-1.4-.5-1.9l-1.5-7c-.5-2.7-1-6.4-.9-9.7 0-3.2.5-1.6.5 0v-.001c.12 5.83 1.06 11.62 2.8 17.2 0 0 0-.9.5-2.1 .5-1.3 1.3-2.7 2-4.2 .5-1.6.3-1.9.3-1.9s-2.2-10.6-2.8-15.6c-.6-5-1.5-18.1-1.5-18.1 -3.3 3.2-5.7 11.8-6 20 -.4 6 .6 11.7.9 14 .5 4.5 1.3 8 2.5 10.5Zm-7.2 16.8c.1-2.4.7-4.3 2.2-4.8 0 0-1.3-2.4-2.5-5.8v0c-.86-2.51-1.5-5.09-1.9-7.7 -.8-5.6-1.5-11.5.2-2 1.7 9.7 3.7 13 3.7 13l2.5 4v0c-.37-1.61-.51-3.26-.4-4.9 .1-1.9.4-4.5 1-6.5 0 0-3-6-4.9-13v0c-2.13-7.39-3.2-15.03-3.2-22.7 0 0-3 2.3-4 13.9v0c-.96 12.6 1.56 25.23 7.3 36.5Zm33.3 88.6l-2-1.3c-1.4-.9-1-3.7-1-3.7l-1.4 1h0c-1.15.86-2.39 1.6-3.7 2.2 -1.5.6-2.2 1-3 1.2 -1 .3-.8 0 0-.5 .8-.4 1-.7 3-1.4 1.9-.8 5.7-4.2 5.7-4.2l-2.5-.1c-1.6 0-3.6-.9-3.6-.9s-1.6 1.4-8 4.2h-.001c-3.78 1.64-7.74 2.82-11.8 3.5 0 0 .7 3.2 3.8 4.3 2.5 1.1 6 1.8 12.9.2v0c4.06-.94 7.96-2.46 11.6-4.5Zm8.4 6.5c.5-2.7-1-4.6-1-4.6l-1.3 1.1c-1 .9-2.4 2.5-5 3.9 -2.8 1.3-3.7 1.2-1.1-.2s6.4-5.3 6.4-5.3l-1-.4c-1-.4-2.8.3-10 4.6s-11.4 4.5-11.4 4.5 3.2 3.9 12 3.6c8.7-.3 11.8-4.5 12.4-7.2Zm16.5-3.1s-1 1.3-2.3 2.2c-1.3.9-4.7 1.4-4.7 1.4l-.8 1.2c-.7 1-2.2 3-3.7 4 -1.6 1.2-4 2-4.1 1.6 -.1-.3 1.4-.8 2.9-1.8 1.5-.9 2.8-2.6 3.8-3.7 1-1.2-.4-1-.4-1h-3.5c-1.7-.2-1.4 0-1.9.7l-2.4 3 -4.4 5.1c-1 1.2-.2 1.5-.2 1.5s.4.7 4.3 1.2c2.4.2 5 0 7.8-1.6v0c1.94-1.24 3.7-2.75 5.2-4.5 4.6-5.1 4.4-9.3 4.4-9.3Zm2 10.5l-1.4 1.8 1.2-3c.3-.6.7-1 1-1.4 -.7-1.4-1.3-3-1.6-4.7 -.5 1.4-1.8 5.5-3.4 8.1 -2 3.2-3.8 4.4-2.7 5.3 1.2.8 3.4 1 6-.2 2.4-1.2 3.1-3.3 3.5-5v0c-.44-.69-.84-1.39-1.2-2.1v0c-.51.31-.95.72-1.3 1.2Z"/><path d="M274 157a1.8 1.6 0 1 0 0 3.2 1.8 1.6 0 1 0 0-3.2Z"/><path d="M270.3 155.5c1.6 0 2.4-.8 4.2-.6 2.2.2 5 1.4 8.6 3.3h-.001c3.06 1.42 6.52 1.74 9.8.9 1-.3 2-.9 2.9-1.4 4.2-2.4 3.2-7.1 3.2-7.1v-.001c-3.1 2.26-6.88 3.39-10.7 3.2l1 .8c.5.6 1.7 1.4 1.3 1.7 -.4.3-2-1.2-3.2-2.2v0c-1.95-1.47-4.16-2.56-6.5-3.2 -3.3-1-7-1-9.5.4 -2.5 1.3-2.7 3-2.3 3.7 .2.4.6.5 1.1.5Zm46.2 34.7c-.8-.2-2.1-.4-3.8-2v0c-2.26-2.2-4.36-4.54-6.3-7 -.5-.8-.3-1.5.9-2 1.1-.5 2-2 2-2s-2.6-1-4.3-2.2v0c-2.25-1.7-4.33-3.61-6.2-5.7 -.6-1-.3-1 .5-1.3 .8-.3 1-.8 1-.8s-1.8-1.2-3.5-2.6v-.001c-1.38-1.15-2.72-2.35-4-3.6 -2.6 1-6.7.6-8.9.2 -3.8-.7-6.6-2.3-6.6-2.3l-.6 1.8c-.5 1.2-2.3 1.8-4 .7 -1.8-1.2-1.4-3.7-1.4-3.7s-1.5-1-4.4-2c-3-1.1-5.4-1.3-7.8-.2 -2.4 1.1-3.6 4.4-3.6 7 0 2.4 1.4 1.3 1.6 1 .3-.3.9-2.1 3.9-2.6s5.7 1 9.2 3.8c3.4 2.8 4.1 3 5.9 4.8 1.7 1.8.3 2.7-2.6 3.7 -3 1-6.8-1-6.9-.9 -.6.3 1.3 3 3.8 4 2.6 1 5.8.3 8.3-.8 1.7-.6 2 0 2.6.6v0c2.3 2.46 3.71 5.63 4 9v0c1.33-.47 2.32-1.62 2.6-3 0-.6.2-1.8 1.2-1 1 1 1.7 6 1.7 8.2 0 2.2-.7 5.3-.7 5.3h.7l2.3-1.2c1.1-.7 1.2 0 1.2 1.3s.4 3.6 2 7.8c1.7 4.2 4.1 5.5 4.1 5.5s.5-.8 1-2.5 .8-4.8.8-7.7c0-2.8-.8-8.8-.8-8.8s3.5 4.2 7 5.2c3.6 1 7.2.4 8.7-1.3 1.5-1.7.1-2.5-.6-2.7Z"/><path d="M293 201s-1 2.5-1.7 3.3l-.8 1s1 1 2.6 1.4l3 .8s-1.8-2.4-2.4-4.1l-.7-2.3Zm21.4-1.3v-.001c-.26-.71-.53-1.41-.8-2.1v0c-2.84.22-5.69-.37-8.2-1.7 0 0 1.7 3.3 3.3 4.5l1.9 1.2s-1.7.3-3.9-2c-2.2-2-3.1-4.6-3.1-4.6s.5 5.8-.4 9.3l-1.1 4s4.6.9 9.8-.6c5.2-1.4 5.6-1.9 5.6-1.9s.6-.1-.2-1.2v0c-1.14-1.57-2.11-3.24-2.9-5Z"/></g><path fill="#B96B29" d="M305 187v-.001c-.7-.69-1.31-1.46-1.8-2.3 0 0-.5.5 0 1.3l0-.001c1.18 1.49 2.64 2.75 4.3 3.7v0c.93.54 1.94.94 3 1.2v-.4s-3.9-1.7-5.5-3.5Zm-6.3 12l-.4-8.3c0-1-.7-.8-.7-.8l-.8.3 1.6 10.6c.1 1.2.7 1 1 1 -.6-.3-.7-2.5-.7-2.8Zm-9.8-31.4c-.6-.6-2-1-.7.4s3 3.2 3.5 4.7c.5 1.4.8 3.3 0 2.9 -.9-.4-1.5-.4-2.4-1.2l0 0c-.98-.84-2.05-1.54-3.2-2.1 -.7-.2-2 0-1 1v-.001c1.19 1.34 2.54 2.54 4 3.6 1.8 1.3 3 2 4 2.6v0c.61.45 1.25.88 1.9 1.3 0 0-.9-6-2.5-8.5v-.001c-1.02-1.7-2.23-3.28-3.6-4.7Zm-32 99.2v0c-.83.63-1.79 1.08-2.8 1.3 0 0-.8 0-.8.2s1 0 1.8-.1v0c.94-.31 1.82-.78 2.6-1.4 .5-.4 1.2-.8 1-1.4 -.3-.6-.6.5-1.8 1.4Zm10.3 5.5l-2.2 1.8 -1.3.7c-.7.2-.9.6-.9.6s.2.2.9 0 2.7-1.7 3.4-2.3c.7-.6 1-.7.7-1 -.3-.3-.4 0-.6.2ZM225.3 198c.4.4.8 1 1 .9 .2-.2 0-.5-.5-1l-.8-.9 -1.1-1.5c-.4-.4-1-.7-.3.3l1.7 2.2Zm-3.2 7l1.4 1.3c.5.5.8 1.1 1.1.8 .3-.3-.7-.9-1.2-1.5h0c-.41-.53-.88-1-1.4-1.4h-.001c-.39-.3-.79-.57-1.2-.8l1.3 1.6Zm1.2 11.2c.8.9 2 1.1 2.1.8 .2-.4 0-.6-.7-1l0 0c-.8-.43-1.57-.9-2.3-1.4l-1.4-1.1c-.4-.4-.8-.7-1-.6 -.1.1 1.1 1.5 1.5 1.7 .4.2 1 .8 1.8 1.6Zm2.3 9c0-.3 0-.5-.6-.5v0c-.54-.06-1.07-.12-1.6-.2 0 0-1.3-.5-1.3-.2 -.1.3 1 .8 1.5.8l1.4.4c.3.2.6 0 .6-.3Zm1 9.8c-1.4 0-2.6-.3-2.7 0 -.1.1.6.5 1.3.7 .8.3 2 .3 3 .4 1 0 1-.2 1-.6 0-.5-1.2-.5-2.6-.5Zm11 10.8c-.2-.2-.7 0-1.5 0 -.8.3-2 .5-2.8.5l-2.4-.1 -.9.2c0 .2 1.2.2 3 .4 1.7.2 2.9-.2 3.7-.3 .8-.2 1.1-.5 1-.7Zm4.6 7.6h0c-.7.27-1.45.41-2.2.4l-2.2.3s-.8 0-.6.4c0 .3.3 0 1-.1h2.3c1.1 0 1.8-.4 2.5-.5 .7-.1 1.5-.5 1.2-1 -.4-.4-1.2.2-2 .5Zm8.9 5.8l-2.4 1.8 -1.2.6c-.7.4-.7.6-.6.8 .2.2.6-.3 1-.5 .5-.1 1.8-1 2.5-1.6 .7-.6 1.6-1 1.5-1.5 -.2-.4-.3-.1-.8.4Zm-14.8-74.8l1.7 2.3c1.6 1.9.7.1.3-.4l-3.4-4.5c-.8-.9-.9-.5-.5 0l1.9 2.6Zm-3.2 9.8c.2-.2-.3-.4-1.2-1.5l-2.6-3.3s-.5-1-.7-1c-.1.1.6 1.8 1.3 2.5 .7.7 1.7 2 2.2 2.7 .5.6.7.9 1 .6Zm4.2 18.5c0-.5-1.7-.5-2.5-.6l-2.2-.5s-1.6-.3-1.7 0c0 .1.3.3 1.2.5l3.4.8c1 .1 1.8.3 1.8-.2Zm-4.2-10c1.1 1 1.9 1.4 2.5 1.7 .6.4 1 .8 1.4.5 .3-.4-.3-.7-1.3-1.1 -1-.5-1.4-.9-1.4-.9l-1-.5c-.6-.3-1.4-.6-.2.3Zm9.9-6.5l-1.4-1s-.8-.8-1-.5c-.2.3 1 1 1.5 1.6 .6.5 1.6 1.9 2 1.6 .6-.3-.4-1.1-1.1-1.7Zm-6.5 25.7l-1.6.4c-.6.2-.7.4.5.4 1.1 0 1.5-.3 2.7-.5 1-.2 1.5-.3 1.3-.7 -.2-.3-.8-.2-1.2 0l-1.7.4Zm1.7 9.3c0 .2.8 0 1.4-.2 .6-.2 1.8-.9 2.5-1 .7-.3.7-.4.7-.8s-.8 0-1.7.2c-.9.3-2 1.2-2 1.2s-.8.4-.9.6Zm12 5.6c.9-.5 1-.8.7-1 -.3-.3-.5-.3-1.2.2l0-.001c-.66.51-1.33 1.01-2 1.5l-1 .5c-.6.2-1.2.7-1 1 .1.1 1.2 0 1.7-.6s2-1 2.8-1.6Zm5.7 7.5c.3-.3 1.3-.6 1.8-1 .4-.3.7-1.3.3-1.4 -.3-.1-.5.4-1.3 1l-3.5 2.4 -.7.3c-.8.2-.4.5.2.4 .6-.1 1-.1 1.8-.7l1.4-1Zm8.3 7.1v0c.84-.46 1.61-1.03 2.3-1.7 .5-.4 1.1-1 .7-1.3 -.3-.3-.7.1-1.3.6l-2.1 2.2s-.3 0-1 .7c-1 .7 0 .5.2.3v0c.32-.37.74-.64 1.2-.8Z"/><path fill="#D4AF3A" d="M295.2 143.5l3.2 1.4 3.4-2.4 -4-1Z"/><path fill="#B96B29" d="M309.2 139a3.2 3.1 0 1 0 0 6.2 3.2 3.1 0 1 0 0-6.2Z"/><g fill="#D4AF3A"><path d="M309.2 139.5a1.9 1.9 0 1 0 0 3.8 1.9 1.9 0 1 0 0-3.8Z"/><path d="M302.4 131.4c.9.3 2 .2 2 .2s.3-1.4-.5-2.1l-2-1.7 -.5-.6 -.1 2c0 .8.3 1.9 1.2 2.2Z"/><path d="M304.2 132.4a.6.6 0 1 0 0 1.2 .6.6 0 1 0 0-1.2Z"/><path d="M299.8 132.4l-.8.9s.6 0 1.2.4c.5.4 1.2.7 1.8.6 .7 0 1-.7.8-1 -.1-.5-.4-1-1.5-1.3 -1-.4-1.3 0-1.5.4Zm2.2 3.7c-2 .2-4.7-2-4.7-2 -.2 1.8-1.3 2.7-3 3l.1.1s1.6.8 3.5 1.1v0c.83.08 1.68.01 2.5-.2 1-.2 2.3-.5 3-1 1.2-.7.8-2.6.8-2.6s-.2 1.5-2.2 1.6Zm-7.9-2c-.8-.3-2-.9-2.6-1 -.5 0-1.2 0-1.1.9 .1 1 1.1 1.4 2 1.4 1 0 1.5-.3 2.1-.6 .6-.3.5-.4-.4-.7Zm-6.3-3.4c-.9-.7-1.7-.9-1.7-.9s-.6 1.6-.3 2.6c.4 1 1 1.2 2 1.2 .8 0 2-.5 1.7-1.2v0c-.42-.7-1.01-1.29-1.7-1.7Z"/><path d="M288.6 134.6a.7.5 0 1 0 0 1 .7.5 0 1 0 0-1Z"/><path d="M290.6 127.3v0c-.78-3.25-.05-6.67 2-9.3 2.5-3.6 7-5.1 7-5.1l1.5-1.8c1.4-1.5 4.2-3.4 4.2-3.4l-5.2 1.5v-.001c.05 1.26-.93 2.34-2.2 2.39 -.01 0-.01 0-.01 0 -.5 0-1-.2-1.3-.4 -1 .1-4.4 2.2-5.3 2.9l.3 1.2v0c0 1.23-.97 2.24-2.2 2.3 -.4 0-.7 0-1-.2v-.001c-.11.16-.21.33-.3.5l0 0c-.68 1.18-1.25 2.41-1.7 3.7 .6.4 1 1.1 1 2 0 1.3-.9 2.3-2 2.3v-.001c-.05.49-.05 1 0 1.5 .1.7.4 1.2 1.7 1.6 1.3.3 3.1 2.6 3.1 2.6 .1 0 1-1.6.4-4.3Z"/><path d="M298.6 110.3c.5-.4.6-1 .2-1.4 -.4-.3-1-.3-1.5.1s-.6 1-.2 1.4c.3.3 1 .3 1.5-.1Zm-8.5 5.7c.6-.5.7-1.3.3-1.7 -.5-.4-1.2-.4-1.8.1 -.6.5-.6 1.3-.2 1.7 .4.4 1.2.4 1.8-.1Z"/><path d="M285.1 121.9a1.3 1.3 0 1 0 0 2.6 1.3 1.3 0 1 0 0-2.6Z"/><path d="M313.3 105c-.7.2-2 .6-3.8 1.6 1.3 0 2.3.8 2.3 1.9 0 1-1.1 2.2-2.4 2.2v0c-1.22-.001-2.2-.99-2.2-2.2l.1-.7 -1.7 1.2v0c-3.18 1.84-5.7 4.64-7.2 8 -2 3.8-2.8 8-2 10.4 1 2.5 4.2 3 4.3 3 0 0-.4-.3-.5-.8l.3-1.6v-2.1s.8-.1 1.2.4l1.4 1.7 1.6 1.5s.6-1 .6-2.1 -.7-2.3-.9-4.3c-.1-2 1-5.5 2.8-8 2-2.6 5.5-5 6.6-5.5v0c.71-.29 1.2-.94 1.3-1.7l.3-2c0-1.2-1-1.1-2-.9Z"/><path d="M309.2 109.5c.7 0 1.4-.7 1.4-1.3 0-.6-.6-1-1.3-1 -.8 0-1.4.4-1.4 1s.6 1.3 1.3 1.3Zm6.2 24.4c1 .4 2.1.1 2.6-.2 .6-.4.7-1.3.1-1.8v0c-.61-.47-1.42-.54-2.1-.2l-2 1.3s.4.5 1.4.9Z"/><path d="M318.6 135c-.4.6-.7.9-1.8 1 -1 0-2.3 0-3-.8h-.001c-.52-.51-.95-1.08-1.3-1.7h-1.2s-.4 1.7-1 2.1c-.5.5-2.5.6-3.3 0 -.9-.7-1.6-1.4-1.8-1.3 -.1 0 0 .7.9 1.4s1.5 1.3 2.9 1.3h8s1.6 0 2-1c.5-.9.5-1.5.3-1.7 -.2-.3-.4.1-.7.7Z"/><path d="M306.4 133.7c1.2.6 1.9.2 2.3-.3l.6-.8 -1.7-.7c-.6-.4-1-.7-1.5-.6l-.6.1s-.3 1.6 1 2.2Z"/></g><g fill="#B96B29"><path d="M300.7 119.3a2.7 2.6 0 1 0 0 5.2 2.7 2.6 0 1 0 0-5.2Z"/><path d="M305.3 112.7c-1-.7-2.6-.4-3.5.6 -.9 1.1-.7 2.6.4 3.3 1 .7 2.6.4 3.5-.6 .8-1.1.7-2.6-.4-3.3Z"/></g><g fill="#D4AF3A"><path d="M300.6 120a1.6 1.5 0 1 0 0 3 1.6 1.5 0 1 0 0-3Z"/><path d="M304.2 113v0c-.78-.21-1.59.11-2 .8 -.3.6.1 1.2 1 1.4 1.7.3 2.5-1.8 1-2.2Zm-40.7 206s-4.1 2-5.4 2.3l-1.6.4s-2.8 2.5-4.9 3.8v0c-2.18 1.28-4.6 2.09-7.1 2.4 -3.2.4-12 .3-16 .1 -4-.1-6.4.8-8.1 2.7 -1.7 2-2.1 4.7 0 6.8 2.2 2.1 4.6 1 5.4-.2 .8-1.3.4-3 0-3.7 -.3-.8.7-1 1.8-1.1h0c3.69-.06 7.35.72 10.7 2.3 1.3.7.6.8-.3.7 -1-.2-2-.5-3.5-1.1 -1.6-.6-3-1-4-1s-.7.5-.5.9l1 1.6c.1.4-.3 1.9-.3 1.9l.5 1 .8-1.5c.2-.5-.1-1.5.1-2 .2-.4 1-.4 1.7.4v0c.93.96 1.56 2.17 1.8 3.5 .3 2-.3 3.3-.3 3.3s.8.7 1 1.1l-.3 2.3s.6.3 1-.7c.6-1 1.2-3 1.3-3.6 .2-.7.6-1.9 1.4-1 .8 1 1.4 2 1.5 2.6l.2 1s1.8-1.7 2.4-2.8v0c.98-1.49 2.2-2.8 3.6-3.9 1.7-1.4 4.6-4.2 6-5.2 1.5-1 5.2-3 6.4-3.6 1.1-.7 1.3-.8 1.5-2.7 .2-2 1.2-3.8 1.6-5.1l.6-1.9Zm-65.8-73.7c0-.4-.7-1.5-.8-2.1 -.2-.6-.8-.3-.8-.3s-1.3.8-2.3 1c-1 .3-1 0-1.2-.6l-.5-3.2c-.2-1-.4-1-.8-.8l-2.4 1c-.9.3-.6.7-.3 1.2l1.6 3.1c.5.7 0 1-.4 1.3l-2.3.6c-1 .4-1 .6-.8 1 0 .3.8 1.7 1.1 2.3 .4.6.7.2.7.2s1.1-1 2-1.4c.9-.4 1-.3 1.2.4l1.5 4.8c.2.7.5.6 1 .4l1.6-.4c.5-.2.7-1.3.7-1.3l-2.5-4.4c-.5-1 0-1.1.4-1.2 .4 0 1.6-.2 2.6-.5 1-.2.7-.8.7-1.2Zm22.3 96.5c-.1-.8 0-1.7-.6-2.3v0c-.82-.86-1.43-1.89-1.8-3 -.3-1 .3-1.6.2-2.2 -.1-.6-1-.6-1.7 0 -.8.7-1.9 1.3-1.9 3.2 0 2 .7 4.2 3.4 5 2.6.8 2.6.2 2.4-.6Zm2.7-.9s-.5-.3-.8.2c-.2.5-.2.7.5 1.9 .7 1 1.2 1.3 2 1.8s.2-.5.1-.8c0-.3 0-.7-.2-1 -.2-.3-.3-.5-.3-1.3s-1.3-.8-1.3-.8Z"/><path d="M226 350c.5-.8 1-1 2.1-1.5h0c1.34-.54 2.75-.87 4.2-1 .7 0 2.5-1.4 2.2-3 -.3-1.4-1.4-2-2.3-2.2 -1-.3-1.8-.3-2.1.2 -.3.5-.9 1-2 1.4 -1.1.4-1.1.7-1.8 1 -.6.1-.1.5-.7 1 -.5.4-1.3 0-2.1-.3 -.9-.2-1-.4-1.9-.4l-3.4-.2h-.7c-.6 0-.6 0-.9.6 -.3.6.1 2.1.7 2.9 .6.7 2.6 1 3.9 1.5l3 .8c1.2.1 1.3 0 1.8-.8Zm12.2 1.2c1-.7.4-2 .2-2.7 -.3-.7-1.7-.9-2.5-.9 -.7 0-1.1 0-1.5.4 -.4.3-1 .8-2 1.2 -1.2.3-2 .7-3.6 1.3 -1.5.6-2 1.6-2.6 2 -.6.4-1.9 0-1.9 0s-.9-.2-1.2 0c-.3.3 0 .8.6 1.5 .6.6 1.8.6 3 1 1.4.4 1.6 0 2.1-.3s1-1 1.8-1.6c1-.6 3-.7 3.9-.8 1-.1 2.6-.4 3.7-1.1Zm0-4.6c.4.4 1 1 1.3.3 .4-.6 1-2 .6-2.8 -.4-.8-1-1.5-1-1.5l-1 3c-.4.5-.4.6 0 1Zm-4-7c0-1.2-1-2.8-1-2.8s-.3 1.2-.9 2.2c-.5 1-1 1.6-1 1.6l1.7.4c.5 0 1.1 0 1.1-1.3Zm-7.6 2.8c1.4-.2 2.1-.8 2.7-1.3 .6-.5 1-1.9.6-2.6 -.4-.7-1.4-1.4-1.8-1.4h-.8s-.4 1.3-1 2c-.5.6-1.1 1-1 1.9 0 .8-.1 1.7 1.3 1.4Zm2.8-6.3h0c.08-.7-.14-1.39-.6-1.9l-.8-.7 -.2 1.6 -.1.6 .7.6c.4.1 1 .4 1-.2Zm-17.3-35.7l1-6v0c-.97-5.53-3.12-10.78-6.3-15.4 -2.4-3.8-5-10-6-13.2v0c-1.13-3.23-1.8-6.6-2-10 0-2.3 1-3.5 1-3.5s.5-.6.1-1 -1 0-1.7.6v0c-.68.75-1.19 1.64-1.5 2.6l-.3 1.1s-1.2-.3-3.3-.1c-2 .2-3 .3-3 .8 0 .4.3.7 1.7 1.4 1.5.6 2.4.9 3.1 1.7 .8.9 2.6 5.2 3.2 7.3 .6 2.1 1.8 7.8 2.3 12.2v0c.58 4.97 1.93 9.83 4 14.4 .8 1.5 4.5 8.5 7.7 7Zm3.7 10.4c-1.4.8-1.3 6.4-.7 9.3 .6 2.9 3.4 6.5 4.3 7.5 .9 1 1 1 1.5.7l.7-.2s1.2-.5 2.1-1.2c1-.7.6-2.5.4-4 -.1-1.6-1.4-4.8-3.6-8.5 -2.2-3.6-3.3-4.4-4.7-3.6Zm1.5-4.5c0-1.9-1.6-3.2-3.4-3.2 -.9 0-1.6.2-2.1.6 -1.9 1.7-.7 5.8 2 5.8 .9 0 2-.1 2.7-.8 .7-.6.8-1.6.8-2.4Zm26.5 52.7h-.001c-.8-.27-1.55-.68-2.2-1.2h-.001c-1.24-.77-2.3-1.79-3.1-3 -.3-.7-.3-.7-1.4-.4 -1 .4-2.5.3-3.6.4 -1 0 .2 1.3 1 2.4 .7 1.2.4 5.1.4 5.1l-.1.9c-.2.6 0 1 .2 1 .3.2.5 0 1.3-1 .8-.9 2.2-3.2 2.2-3.2l1.4.3c1.2.3 3.1.1 4.1-.2 1-.3.6-1-.2-1.1Z"/><path d="M239.2 362c-.5 0-.7-.1-1 .2l-.6 1.4c-.1.3 0 .6.2.9l.8.5s.4.5.8.7c.5.2.5-.4.5-.9l.3-1.9c0-.6-.4-.8-1-.9Z"/></g><path fill="#1D5E91" d="M435 324.2c-1.3-.3-1.9-.8-1.9-.8s-.5 0-1 .7c-.3.8-2 1.8-2 1.8s-2.2.6-2.5 2.2c-.3 1.5.8 2 1.8 1.9 1.1-.2 3.7-.7 4.9-2.1 1.1-1.4 1.3-2.2 1.5-2.7 .2-.5.4-.7-.9-1Zm3.5-12.4v0c-.93-4.22-3.63-7.82-7.4-9.9l-2.1 7.5c-.5 1.8-.5 1.7.9 2l6.7 1.6c.9.3 2.4 1 1.9-1.2Zm-20.6-3.2c1 .1 1-.3 1.3-1.7l2.1-8.2s-4.5-.1-8.5 1.8c-3.9 1.9-5.6 5.4-5.6 5.4s1 .4 3.7 1 6 1.5 7 1.6Zm-10.5 9.3l-2.2-.4s1 3.8 2.7 6c1.7 2.2 3.5 3.2 7 3.3 3.5 0 6-1.9 6.5-3.4 .4-1.5 1.1-2.6 1.1-2.6s-6.2-.8-8.8-1.4l-6.3-1.5Z"/><g fill="#D4AF3A"><path d="M406.3 315.5l15.5 3c1 .3 2 .5 2.2.2 .3-.3.5-.5 1.6-.9 1.2-.4 1.1-1.5 1.1-1.5l.4-2.2c.2-1 .8-1.4 2-.1 1.3 1.3 1.5 3.2 1.7 5 .3 2 3.2 2.4 4.4 2.6 1.1.2 1.6-.2 2.3-1.3 .7-1 1-3.2 1.2-4.6 .2-1.4 0-1.2-1.4-1.6l-9.3-2.2c-1.2-.2-1-1-.7-1.9 .1-.8 2.8-9.2 2.8-9.2v0c-2.38-1.31-5-2.1-7.7-2.3l-2.3 10c-.3 1.3-1.2 1.3-2.5 1 -1.4-.2-11.3-2.5-11.3-2.5l-.8 1.8v0c-.67 1.65-1.04 3.41-1.1 5.2 0 1.2.4 1.2 1.9 1.5Z"/><path d="M440.3 323.3c-1.3-.9-2.3-1.1-3 .5 -.7 1.6-.7 4-2.4 5.6 -1.8 1.7-4.2 3.4-6.6 3.2 -2.4-.2-3.7-.7-3.2-3.5 .6-2.7 4.3-3.6 5.1-5 .9-1.5.7-3.1-.6-4.2 -1.3-1.1-3.1-1.3-3.6-1v0c-1.28.92-2.26 2.21-2.8 3.7 -.7 2-1.2 3.7-2.8 5h0c-2.63 1.81-5.86 2.53-9 2 -3.1-.8-4.3-1.8-5.5-5 -1.2-3.1-2.6-8.3-3.2-9 -.7-.5-1.5-1-2.8 0 -1.4 1-1.5 2.4-1.7 3.6 -.2 1.1 0 2.5 1.4 4.1 1.4 1.7 2.8 3.3 3.3 5 .5 1.8 2 4.4-.1 4.5 -2.2.2-3.2.2-4.8-1.4 -1.7-1.6-8.2-6-10-7.4v0c-.8-.72-1.64-1.38-2.5-2 -3 0-6-1.2-9-3.3 0 0 1.8 4.4 2.1 6.1 .4 1.7.3 2.6.3 2.6l9.1 4.6v0c3.5 1.81 6.93 3.74 10.3 5.8 2.5 1.5 4.7 4 9.1 3 4.5-.9 13.5-3.6 16.5-4.5 2.9-.9 11-2.9 14-5 3-2 3.2-1.9 3.7-4 .5-2 0-3.1-1.3-4Zm-17.2-31l2.2-.3c1.5-.1 1 1.3.7 1.9l-1.4 2.7c-.6 1 .2 1.2.6 1.4l2.3.6c1.3.3 1-.6 1-1l.3-3.8c.1-.9 1-.6 1.2-.5l1.7 1c.6.3 1 0 1-.4l.8-2c.2-1-.4-.8-1-.8h-2.4c-1 0-.4-1-.4-1l1.3-2.1c.6-.9.4-1-.2-1.2l-2.8-.7c-.5-.1-.7 0-.7.3l-.1 2.7c0 .7 0 1-1 1 -.8.1-1.3-.4-2-1.1 -.7-.8-1-.5-1-.2l-.8 3c-.2.7.1.6.6.6Zm4.8 21.8s-.1 1.7-.3 2.3c-.2.7-.6 1.6.1 1.8 .8.2 1.4.5 1.8.4 .5-.1.3-1 0-1.7v0c-.23-.8-.6-1.55-1.1-2.2l-.5-.6Zm10.5 7c.2.5.7.6 1 .7 .4.1 1 .1 1-.5s0-1.5-.5-2.2c-.5-.8-.8-1.3-1.1-.2 -.4 1-.6 1.6-.4 2.2Zm-36.7-7l1.4.4s0-1.7.3-2.8c.2-1.2.7-2 .3-2 -.4 0-.7.4-1 .9 -.3.5-1.1.6-1.4 2 -.3 1.3.1 1.4.4 1.4Z"/></g><g fill="#B96B29"><path d="M408.9 308.9a2.3 2.3 0 1 0 0 4.6 2.3 2.3 0 1 0 0-4.6Z"/><path d="M415.5 310.4a2.4 2.4 0 1 0 0 4.8 2.4 2.4 0 1 0 0-4.8Z"/><path d="M434.6 314.5a2.4 2.4 0 1 0 0 4.8 2.4 2.4 0 1 0 0-4.8Z"/><path d="M422.1 312a2.4 2.4 0 1 0 0 4.8 2.4 2.4 0 1 0 0-4.8Z"/><path d="M423.8 306.2a2.4 2.4 0 1 0 0 4.8 2.4 2.4 0 1 0 0-4.8Z"/><path d="M425.5 300.5a2.4 2.4 0 1 0 0 4.8 2.4 2.4 0 1 0 0-4.8Z"/></g><g fill="#D4AF3A"><path d="M409.1 309.7a1.2 1.2 0 1 0 0 2.4 1.2 1.2 0 1 0 0-2.4Z"/><path d="M415.6 311.4a1.2 1.2 0 1 0 0 2.4 1.2 1.2 0 1 0 0-2.4Z"/><path d="M434.8 315.4a1.2 1.2 0 1 0 0 2.4 1.2 1.2 0 1 0 0-2.4Z"/><path d="M422.2 312.9a1.2 1.2 0 1 0 0 2.4 1.2 1.2 0 1 0 0-2.4Z"/><path d="M424 307.2a1.2 1.2 0 1 0 0 2.4 1.2 1.2 0 1 0 0-2.4Z"/><path d="M425.7 301.4a1.2 1.2 0 1 0 0 2.4 1.2 1.2 0 1 0 0-2.4Z"/><path d="M349.5 359.1l-5.2-3.6v0c-1.61-1.01-2.94-2.38-3.9-4h1c.6 0 1-.7 1-1.5 .1-.8 0-2.3-.2-4.1 -.2-1.8.3-3.3.3-3.3s1.3 1.1 3.1 2c1.9 1 2.6.6 2.6.6l.5-1.9 2 3.7c1 2 4.1 4.2 6.3 5.8 2.2 1.7 4.6 3.4 6.4 4 1.8.7.8 1.5.8 1.5s-1.8 1.8-6.5 2.7c-4.7.8-7-1-8.2-1.9Z"/><path d="M333.2 357.3c1.7-.2 2.7-.8 3-2.6 .2-1.2-.1-5.7-.1-5.7l1.2 1.2c.6.8 2 1 2 1s.2.6.9 1.6v0c.73 1.29 1.75 2.38 3 3.2 1.6 1 3.5 2.2 4.7 3.2v0c1.3 1.16 2.7 2.19 4.2 3.1v-.001c1.83.95 3.15 2.67 3.6 4.7 .6 2.4.1 3.1-1.7 3 -1.9-.1-2 0-5-.7 -3-.8-7.3-4.1-10.4-6 -3.1-2-5.4-6-5.4-6Z"/><path d="M325 360s1.2-1.6 1.6-3.4l1.4-5.4 1.4 3.3 -.001 0c.52 1.24 1.53 2.22 2.8 2.7 0 0 0 .9 1.5 2.7v0c1.56 1.91 3.46 3.54 5.6 4.8 2.2 1.2 5 3 6.5 5.1 1.5 2.2 1.6 4.4 1 5.4 -.8 1-1.8-.1-3.2-.9 -1.5-.7-5.6-1.3-11.2-4.4 -5.6-3-7.5-9.9-7.5-9.9Z"/><path d="M322.5 372.7c-1.6-2.4-1.8-8-1.8-8l1.3-1c.7-.7 2.2-2.9 2.2-2.9l2 3.8c1 1.8 1.4 2.4 3.6 4.3 2 2 5 3.9 6.1 6 1.3 2 .6 6.1-.2 7.5 -.8 1.5-2 1-3.1-.1L329 379c-2.1-1.7-5-4-6.5-6.3Z"/></g><path fill="#B96B29" d="M341 325.3c-.8-1.7-1.8-3.7-2.5-4.8v0c-.5-.7-.94-1.44-1.3-2.2 0 0 2 1.8 2.8 3.1 .8 1.4 1.3 2.6 1.6 4 .4 1.4.2 1.6-.6 0Zm-8 1.5l-.5-1.9s-.3-1-.2-1.1c.2-.1 1 .6 1.6 2.5 .6 1.8 1.5 4.5 1.3 4.6 -.2 0-1.9-3-2.2-4.1Zm-6.3 5l-.4-.8s-.6-2-.6-2.5c0-.4.2-1 .7.1 .5 1.1.6 2.2.7 2.6 .1.5.7 2.1.5 2.3 -.1.1-.5-.9-1-1.7Zm19.5 19.2l.9-.5 1.2 1.5c.7.7 1.5 1 2 1.7v0c.74.97 1.7 1.75 2.8 2.3 1.3.7 1.8 1 1.5 1.1 -.2.2-1.1-.3-1.1-.3s-.4 0-2-1c-1.5-.9-1.9-1.4-2.9-2.3l-2.4-2.5Zm-6.8 8.1c-.6-.6-1.2-1-.9-1.4 .4-.3.8-.3 1.3.2l2.9 2.6 2 1.5c.7.6 2.3 1.4 3 1.8 .8.5 0 .5 0 .5l-1.2-.5 -2.4-1 -1.7-1c-1-.7-2.4-2-3-2.7Zm-7.8 5.5c-.5-1 0-.8.8-.4 .9.3 2.8 2.4 3.9 3.1 1 .8 2 1.1 3 1.6 .8.4.8.7.8.9 0 .2-.4.2-.8 0l-1.7-.9 -1-.2c-.5 0-1.3-.6-2.4-1.6 -1.1-1-2.1-1.5-2.6-2.5Zm-3.7 7.2c1.4.8 3.8 2.7 4.4 4 .6 1.2 1 2.1.9 2.3 -.3.2-1-.2-1.2-.7l-1-1.2s-2.4-2.4-3.2-3h-.001c-1.14-.77-2.07-1.8-2.7-3 -.3-1 0-1.4 0-1.4s1.4 2.1 2.8 3Z"/><path fill="#C52126" d="M365 170l-.001-.001c2.56-1.41 5.38-2.29 8.3-2.6 3.6-.3 6.4.2 9.5 1 2.1.6 3.9.7 5.6.3 2.6-.7 4.6-3 5.3-6 0 0 2.4 3.1 0 6.5l-.001-.001c-1.03 1.46-2.56 2.5-4.3 2.9 -5.1 1-10.1-2-14.3-2.4 -4.1-.2-7.3 2.4-7.3 2.4s-1 .8-2.4 0c-1.3-.8-1.7-1.4-.4-2.2Z"/><g fill="#D4AF3A"><path d="M379.6 317.5l1.2-.2c.7 0 2.2-.6 2.7-.8 .5-.2 1.2-.2 1.6.3 .5.5 4.1 2.7 4.1 2.7h-6c-2.1 0-3.5-2-3.5-2Z"/><path d="M362.6 316.4v-.5l.8-1.8s1 .6 1.8 1.5c1.2 1.3 2.5 3 3 3.7 1 1.3 2.5 2.5 1.3.5s-1.6-3-2.6-4.4l-1.6-2 3.4-.5c2.5-.3 4.2-1.3 5.3-2l3.3-1.9s4.3 1.9 6 2.3c1.6.4 2.5.6 1 1.4 -1.6.8-3 1-3.7 1.5v-.001c-1.44.7-3.01 1.11-4.6 1.2 -1.5 0-4 0-3 1v0c2.74 3.77 4.21 8.33 4.2 13l-.1 2.5s-1.8-2-6.6-5v0c-2.38-1.62-4.85-3.09-7.4-4.4 -.9-.4-1.3-.4-1.2-1.5l.7-4.6Z"/><path d="M344.4 302v0c.26-.14.53-.27.8-.4h.3c.5.3 3.4 2.3 4.6 4.2 1.2 1.9 2.4 2 1 0h-.001c-.86-1.56-1.94-2.97-3.2-4.2h0c-.33-.28-.66-.55-1-.8h-.001c2.54-1.21 4.98-2.61 7.3-4.2 .4.6 1 1.7 1.7 2.5 1 1 3.2 2 3.2 2s-1.8-2-2.4-3.3l-.8-2.5v0c1.75-1.37 3.36-2.91 4.8-4.6 .3 1.3 1.3 4.2 4.2 7.4 3.7 4.2 11.2 6.3 11.2 6.3s2.6.3.5.9c-2.1.5-3.6 1.5-7.8.8l-5-1.1c-.5-.2-2 0 0 .7 2.1.8 7 1.5 8.8 1.4 1.8-.2 4.4-.6 1.7.8 -2.6 1.4-3.7 2-5.3 2 -1.6 0-2.3.5-4 .5 -1.5 0-2-.3-3-.5 -1.2-.3-1.9.1-1.9.6 0 .4 1.5 1.7 1.5 4.7 0 3.1-.3 5.1-.6 6 -.3 1-1 2.4-1.4 3.2 -.4.8-.6 1.7-1-.1 -.5-1.8-1.5-4.4-1.9-6.1l-.8-2.7c-.1-.9-1.1-1.6-.6 0h0c.43 1.72.83 3.45 1.2 5.2 .4 1.5 1.1 4.2-.2 2 -1.3-2-6.4-7.7-7.2-8.8l-2.1-2.8c-.7-.8-2.4-1.9-3.2-3.1l-.001-.001c-1.2-1.47-2.54-2.81-4-4l4.5-2Zm69.5-129.2c-.1 3.1-3.5 9-5.5 12.2 -2 3.1-2.5 4.4-2.1 4.6 .3.2 1.1-1.4 2.2-2.8l4.9-7.2c1.7-2.5 4.2-8.4 4.6-8.9 .3-.5.4-.9 1.3-.2s2.6 7.2.5 11.6c-2 4.4-5 7.6-6.2 9.2 -1.3 1.5-3 4-2.7 4.1 .3.2.7-.4 2.3-2v-.001c3.87-3.61 7.12-7.83 9.6-12.5 .2-.4.5-.3.8 0 .5.5 1.4 1.8 1 5.3h0c-.53 3.91-2.41 7.51-5.3 10.2 -2.3 2.4-4.6 4.5-4.3 4.9 .4.3 2.7-1.8 4.3-3.3 1.6-1.6 5.6-5.4 6.4-6.5 1-1 2.2-.5 2.1 3.7 0 4.3-4.7 8.5-6.7 10.9 -2 2.3-4.3 3.7-4.1 4.2 .2.5 2.1-.7 3.4-1.6l7-4.6c.9-.7 1.3.6.1 4.6 -1.2 4-4.6 7.2-6.7 8.7 -2 1.5-5.4 3.3-5.2 3.8 .2.4 1.6-.2 3.5-1.1 2-1 4.3-1.8 6-2.3 1.6-.5 1.6.7 1.6.7s.4 3.5-2.1 6.2v0c-2.08 2.32-4.92 3.84-8 4.3 -2.6.5-3 .6-3 1s.4.5 1 .5l5.3.2c2.3 0 3.5.6 3.5 1.6s0 2.3-3.3 4.6c-3.5 2.3-7.3 2.6-8.9 3 -1.6.3-1.6.4-1.3.9 .3.5 1 .4 3.6.7 2.5.2 4 1.2 4.4 2 .3.6-.2 2.6-2.3 4 -2 1.4-4.7 1.9-8.7 1.6 -4-.3-5-.3-5.2.3 -.1.7 1.2 1 3.2 1.2 2 .4 3.6.4 4.7 1.3 1.2 1 .3 2.9-1.7 4.3 -1.9 1.4-6.7 1.4-8.7 1.3 -2-.2-5.1-.9-5.3-.4 -.2.6 1.5 1.4 3.5 2.1 2.1.8 2.7 1.2 3.1 2.1 .4.9 0 1.7-2.4 2.6v0c-2.59.91-5.42.91-8 0 -1.8-.8-2.8-1.1-3.2-.8 -.3.3 0 .7.4 1.1 .4.5 2 1.8 4.1 2.3 2 .6 2.3.6 3 2.2 .8 1.7-1.1 3-4.9 3.2 -3.7.1-8.7-1.4-10.3-2.3 -1.6-1-2.2-1.1-2.5-.8 -.3.3-.2.5.6 1.1 .8.6 3.3 2.5 4.6 2.8 1.3.3 1.4 1.3 1.4 2.1 0 1 .4 2.6-3 3.5 -3.3.8-7.3.2-10.9-2.4v0c-.85-.53-1.6-1.21-2.2-2h-.001c.28-2.67.18-5.37-.3-8 .7 0 2-.3 3.4-.9 2-.8 2.8-2.6 3.3-3.6s1.2-1 2-.8c.8.3 1.6.6 2.7.6h-.001c2.06-.21 3.96-1.21 5.3-2.8 1.7-2 1.4-4 1.5-5 0-1 1.6-.3 2.4-.3 .8 0 3.2-.4 5.3-1.9 2.2-1.4 2.2-3.4 2.4-4.3 .2-.8 1-1.3 1.7-1.6 .7-.2 1.7-.5 3.2-1.7 1.5-1.2 2-3.5 2-4.4 .2-.8 1-.8 4-2.4 3-1.5 2.8-4.7 2.6-6 0-1.3-1.5-2.3-1.5-2.8s1-.6 2-1.2 3.6-1.6 3.6-5.4c0-3.7-2.4-4.1-2.4-4.1l1.5-.8c1-.6 3.7-2.5 3.7-4.7s-1-3.2-1.7-3.8c-.7-.5-2.7-1-2.7-1s1.2-.9 1.8-2.6c.5-1.7.7-3.9-.6-5.4 -1.2-1.6-3.4-1.6-4.5-1.6 -1.2 0-2.2.6-2.6.3 -.4-.3-.4-.6 0-1.5 .4-.8.4-3 .1-3.7 -.3-.8-.4-2.2-3.3-3.2 -2.9-.9-5.9 1-6.8 1.6 -1 .5-.5-.8-.5-1.7 0-1 1.9-3.3 4.1-6.6 2.2-3.4 3.2-5.1 5.7-10.2v0c1.94-4.3 3.41-8.79 4.4-13.4 .4-1.6 1-.8 1-.8s.7.2 2.2 4.1v0c1.31 3.33 1.89 6.91 1.7 10.5Z"/><path d="M363.4 241.4c1.7-.1 4-1 5.7-3.6 1.7-2.5 4.3-3 8.8-3 4.5.1 6.6-2 7.7-5.2 1-3-.2-6.6-4.8-8.9 -4.5-2.2-6.6-4.7-6.8-8.6 -.1-3.9 4.6-8.7 9.3-14.1 4.8-5.5 8.5-13.2 8.5-13.2s1.4 1.8 1.4 3.7c0 1.8-.7 3.7 0 4.2s.9-.8 3.7-2c2.7-1.2 5-1.4 6.7.6 1.7 2 0 5.4-1.6 7 -1.5 1.7-2.8 3-2.4 3.5 .4.6 2.8-.9 3.5-1.4 .8-.5 2.6-2.5 5.3-2.3 2.7.3 3.6 1 3.9 3.3 .2 2.3-2.4 4.2-4.2 5.1 -1.7.9-2.4 1.6-2 2 .5.3 1 0 1.7-.3v0c1.4-.4 2.89-.4 4.3 0 1.4.6 3.6 2.5 1.6 4.8 -2.1 2.3-6.4 3.2-7.3 3.3 -.8.2-1.3 0-1.4.6 0 .7 1.8.7 4.2.8 2.3.1 3 2.4 2.7 4 -.4 1.8-4.3 3.7-6.4 4 -2.2.4-3 0-3.1.7 -.2.6.2.8 1.4 1.2 1.2.3 3.6.6 4 2.5 .4 1.9.5 2.7-1.3 4.4 -1.8 1.6-4.7 1.4-5.6 1.2 -.9-.2-1.9-1.1-2.8-.3 -.8.9.8 1.6 2.3 2.6 1.5 1 1.4 3-1.1 4.4 -2.5 1.4-5 .9-6 .5 -1-.3-2.5-2-3.2-1 -.7 1.1 2.2 1.5 3.4 3 1.2 1.4.8 3.8-1.6 5.3 -2.5 1.5-6.4.4-7.1-.2 -.7-.6-1.6-.8-2-.3 -.6.5.2 1.9.7 3 .5 1.3 1.5 4.8-2.2 6.2 -3.7 1.4-6.9-1.7-7.5-2.3 -.6-.6-1.2-.7-1.7-.5 -.5.3-.2.8.2 1.4 .4.6 1.4 3.2-1.2 5v0c-1.38.94-3.07 1.3-4.7 1 -.6-2-1.3-4.2-2-7.2h.5c.4 0 .5.5.5.7 0 .2-.1.4.2.4 .3 0 .3.2.8.5 .4.3.8.7 1 .5 .3-.2-.9-.8-1.2-1.2 -.3-.4-1-1-1-1.4 0-.4-.2-.6-.8-1.1v-.001c-.2-.18-.37-.38-.5-.6l0-.001c-.49-2.39-.89-4.79-1.2-7.2v0c-.23-1.83-.36-3.67-.4-5.5h1.1Zm73.7-53.8c-3.9 7.8-9.3 12.1-9.3 12.1l1-3.2c.3-1.4.1-2.9.1-2.9s1.4-1.7 3.9-5.6c2.5-3.9 3.8-9.6 3.8-9.6s-2.3 5.7-4.1 8.8c-1.9 3-4 5.5-4 5.5s-.7-2.7-1.2-2.8c-.5-.2-1 .2-1.4.8 -.4.6-.8.6-.8.6l1.5-2.8 1.6-2.2c1.4-2.3 4.5-6.6 6-10.9l-.001-.001c2.24-5.99 4.14-12.1 5.7-18.3 .7-3.2 1.3-1.4 1.9.9 .6 2.3 1.4 5.7.9 10.7v0c-.68 6.59-2.58 13-5.6 18.9Zm-5 21v0c-1.16.85-2.33 1.68-3.5 2.5l.5-1.7 .3-2.9 2.9-2.5 -.001 0c2.05-1.82 3.93-3.83 5.6-6 2.9-3.6.5-1.4-1.9 1.2 -2.3 2.6-6.9 6.3-6.9 6.3v-.8 0c-.02-.7-.27-1.37-.7-1.9 -.4-.6-.2-.6 2.3-2.6v0c7.47-6.84 13.47-15.15 17.6-24.4 0 0 1.5 9-4 18.7 -5.4 9.9-10.8 13-12.2 14.1Zm-28.5 56.3c-3-1.2-2.2-4.1-2.2-4.1s1.8.5 3.5 1.2v-.001c2.42.86 4.94 1.47 7.5 1.8 1.6 0 1.6-.2 1.7-.4 0-.2-1.3 0-3.7-.4v0c-2.53-.71-4.96-1.75-7.2-3.1 -.7-.5-.6-.6.5-.7h0c.83-.08 1.63-.4 2.3-.9 .4-.3 1.5.1 4.2.8v0c7.03 1.77 14.36 2.01 21.5.7 .7-.2 1.4.2-.7 3.7 -2 3.5-9.3 5.3-14.4 5.3 -5 0-10-2.8-13-3.9Zm13.4-7.2c-5.2 0-7.2-1.5-7.2-1.5l.7-1.3c.7-1.1.6-2.9.6-2.9l3.4.6c2.2.3 4.7.6 7.5.1s1.6-.8-.6-.5v0c-2.64.02-5.26-.32-7.8-1 -1.4-.5-.9-1 0-1.3 1-.3 3.5-1.9 3.5-1.9s6.3.8 12.2.2c5.9-.7 9.6-2.2 10.8-2.4 1.1-.2 1.1.3 1.1.3s.3.6-1.7 3.7c-2 3.2-6 5.3-9.4 6.3h-.001c-4.28 1.1-8.69 1.64-13.1 1.6Zm1.3-12.2l.6-1.3c.3-1-.6-1.9-.6-1.9s1.2-.3 5-.8c4-.5 4.2-.8 6.5-1.3 2.4-.6 4-1.3 4-1.5 0-.3-.8 0-2.2.6v-.001c-4.72.99-9.5 1.63-14.3 1.9 -.4-.3-2-.7-2-.7l2.4-.5v0c1.14-.21 2.23-.65 3.2-1.3 .7-.5 1-.6 4.1-1 3.2-.3 5.8-1.3 11.5-3.4 5.6-2 10-4.6 11-5.5 1.2-1 1.1-.3.8 1 -.3 1.1-.2 2.6-3.1 6 -2.9 3.3-4.3 4.8-11.5 7.4 -7.3 2.7-15.4 2.3-15.4 2.3Zm21.4-17.6v0c-4.67 3.19-9.95 5.37-15.5 6.4 -.3-.4.4-2 0-2.8 -.3-1.1-1-1.1-2.6-1.2 -1.5-.1-.5-.4-.1-.4l3-.7c2.5-.7 5.1-1.1 8.6-2.4 3.6-1.4 4.6-2.3 4.5-2.6 0-.3-1.6.8-4.9 2 -3.2 1.3-7 1.8-9 2.3 -2.2.4-.4-.5.6-1 1-.6 2.4-2.8 2.4-2.8s2.3-.4 6-1.5v0c3.47-1.03 6.83-2.44 10-4.2l3.2-2.2 5.2-3.7c1.3-1 .9-.2.7.4 -.2.6-1 3.2-3 6.1 -2 3-2.7 3.8-9 8.3Zm1-12.7c-6.2 5-11.7 6.6-12.6 7 -1 .4-.8-.2-.7-.7 .2-.5.3-2.2.3-2.2l4.8-2.8c2.5-1.4 5.3-3.4 7.2-4.7 1.8-1.3.7-1.2.1-.7 -.5.5-3.1 2-5.7 3.6l-6.4 3.9s0-.9-.6-1.4c-.5-.5-1.9-.4-1.9-.4l1-1.3c.5-.6 2.6-1.3 4.9-2.4 2.3-1 6.5-4.2 9.6-6.8 3.1-2.6 9.1-9.1 9.5-9.7 .4-.5.7-.4.7.3 0 .6.3 1-.4 4s-3.4 9.4-9.7 14.3ZM418.5 168c-.7 1.5-1.5 2.6-2 3.6L415 174v-1.4c.1-.8.3-2 0-3.5 0-.8-.3-1.6-.2-2.3 0-.7.3-1.4.4-1.9l1.6-7c.4-2.7.9-6.4.8-9.7 0-3.2-.5-1.6-.5 0s-.1 4-.6 7.8c-.5 3.7-2.1 9.4-2.1 9.4s-.1-.9-.6-2.1l-1.9-4.2c-.6-1.6-.4-1.9-.4-1.9s2.3-10.6 2.8-15.6c.6-5 1.6-18.1 1.6-18.1 3.2 3.2 5.6 11.8 6 20 .4 6-.6 11.7-1 14 -.5 4.5-1.3 8-2.5 10.5Zm7.2 16.8c0-2.4-.6-4.3-2.2-4.8 0 0 1.4-2.4 2.6-5.8v0c.82-2.51 1.42-5.09 1.8-7.7 .9-5.6 1.6-11.5-.1-2 -1.7 9.7-3.8 13-3.8 13l-2.4 4c.3-1.7.4-3 .3-4.9 0-1.9-.3-4.5-1-6.5 0 0 3-6 5-13h0c2.09-7.39 3.14-15.03 3.1-22.7 0 0 3 2.3 4 13.9v0c.98 12.6-1.54 25.24-7.3 36.5Zm-33.2 88.6l1.9-1.3c1.5-.9 1-3.7 1-3.7v0c1.66 1.17 3.4 2.24 5.2 3.2 1.4.6 2.1 1 3 1.2 1 .3.7 0 0-.5 -.8-.4-1-.7-3-1.4 -2-.8-5.8-4.2-5.8-4.2l2.5-.1c1.6 0 3.6-.9 3.6-.9s1.6 1.4 8 4.2h-.001c3.77 1.64 7.73 2.82 11.8 3.5 0 0-.6 3.2-3.7 4.3 -2.6 1.1-6 1.8-13 .2v0c-4.03-.95-7.91-2.47-11.5-4.5Zm-8.4 6.5c-.6-2.7 1-4.6 1-4.6l1.3 1.1c1 .9 2.3 2.5 5 3.9 2.7 1.3 3.7 1.2 1-.2l-.001-.001c-2.28-1.55-4.4-3.32-6.3-5.3l1-.4c1-.4 2.7.3 10 4.6 7.1 4.3 11.4 4.5 11.4 4.5s-3.2 3.9-12 3.6c-8.7-.3-11.9-4.5-12.4-7.2Zm-16.6-3.1s1 1.3 2.3 2.2c1.3.9 4.8 1.4 4.8 1.4l.8 1.2c.6 1 2.1 3 3.7 4 1.5 1.2 4 2 4 1.6 .2-.3-1.3-.8-2.8-1.8 -1.5-.9-2.9-2.6-3.9-3.7 -1-1.2.5-1 .5-1h3.5c1.7-.2 1.3 0 1.8.7l2.4 3 4.4 5.1c1 1.2.3 1.5.3 1.5s-.5.7-4.4 1.2c-2.4.2-5 0-7.7-1.6v0c-1.95-1.24-3.7-2.76-5.2-4.5 -4.7-5.1-4.5-9.3-4.5-9.3Zm-2 10.5l1.5 1.8s-.7-2-1.3-3l-.9-1.4c.7-1.4 1.2-3 1.6-4.7 .4 1.4 1.7 5.5 3.4 8.1 2 3.2 3.8 4.4 2.6 5.3 -1.1.8-3.4 1-6-.2 -2.4-1.2-3-3.3-3.4-5v0c.43-.69.83-1.39 1.2-2.1 .3.2.8.5 1.3 1.2Z"/><path d="M-365.9 157a1.8 1.6 0 1 0 0 3.2 1.8 1.6 0 1 0 0-3.2Z" transform="scale(-1 1)"/><path d="M369.7 155.5c-1.6 0-2.5-.8-4.3-.6v0c-3.01.59-5.89 1.7-8.5 3.3h0c-3.07 1.42-6.53 1.74-9.8.9 -1-.3-2-.9-2.9-1.4 -4.3-2.4-3.2-7.1-3.2-7.1v0c3.06 2.24 6.8 3.36 10.6 3.2l-.9.8c-.6.6-1.7 1.4-1.4 1.7 .4.3 2-1.2 3.3-2.2 1.3-1 3.2-2.2 6.5-3.2s7-1 9.4.4c2.5 1.3 2.7 3 2.4 3.7 -.2.4-.7.5-1.2.5Zm-46.2 34.7c.8-.2 2-.4 3.8-2v0c2.25-2.19 4.36-4.53 6.3-7 .5-.8.3-1.5-1-2 -1-.5-1.9-2-1.9-2s2.5-1 4.3-2.2c1.7-1.2 5.6-4.8 6.2-5.7 .5-1 .3-1-.5-1.3 -.9-.3-1-.8-1-.8s1.8-1.2 3.5-2.6v-.001c1.37-1.15 2.71-2.35 4-3.6 2.6 1 6.6.6 8.8.2 3.8-.7 6.7-2.3 6.7-2.3l.6 1.8c.5 1.2 2.2 1.8 4 .7 1.8-1.2 1.4-3.7 1.4-3.7s1.4-1 4.4-2c3-1.1 5.3-1.3 7.7-.2 2.4 1.1 3.6 4.4 3.6 7 0 2.4-1.3 1.3-1.6 1 -.3-.3-.8-2.1-3.8-2.6s-5.8 1-9.2 3.8c-3.4 2.8-4.2 3-6 4.8 -1.6 1.8-.3 2.7 2.7 3.7s6.7-1 6.9-.9c.5.3-1.3 3-3.9 4 -2.5 1-5.8.3-8.3-.8 -1.7-.6-2 0-2.5.6v-.001c-2.31 2.46-3.72 5.63-4 9v0c-1.34-.47-2.33-1.62-2.6-3 -.1-.6-.3-1.8-1.2-1 -1 1-1.8 6-1.8 8.2 0 2.2.7 5.3.7 5.3h-.7l-2.3-1.2c-1-.7-1.2 0-1.2 1.3s-.4 3.6-2 7.8c-1.7 4.2-4 5.5-4 5.5s-.5-.8-1-2.5v0c-.57-2.53-.84-5.12-.8-7.7 0-2.8.7-8.8.7-8.8s-3.4 4.2-7 5.2 -7.1.4-8.6-1.3c-1.5-1.7-.2-2.5.6-2.7Z"/><path d="M347 201s1 2.5 1.6 3.3c.6.9.9 1 .9 1s-1.1 1-2.7 1.4v0c-.99.31-1.99.57-3 .8 0 0 1.8-2.4 2.4-4.1l.7-2.3Zm-21.5-1.3v0c.28-.71.58-1.41.9-2.1v0c2.8.2 5.61-.39 8.1-1.7 0 0-1.6 3.3-3.3 4.5l-1.8 1.2s1.6.3 3.8-2c2.2-2 3.2-4.6 3.2-4.6s-.5 5.8.4 9.3l1 4s-4.6.9-9.8-.6c-5.2-1.4-5.6-1.9-5.6-1.9s-.6-.1.2-1.2v0c1.17-1.56 2.17-3.24 3-5Z"/></g><path fill="#B96B29" d="M335 187l1.7-2.3s.6.5 0 1.3l0 0c-1.18 1.47-2.6 2.72-4.2 3.7 -1.6.9-3.1 1.2-3.1 1.2v-.4s4-1.7 5.5-3.5Zm6.3 12l.4-8.3c0-1 .6-.8.6-.8l.8.3 -1.5 10.6c-.2 1.2-.7 1-1 1 .5-.3.6-2.5.7-2.8Zm9.8-31.4c.6-.6 1.9-1 .6.4 -1.3 1.4-3 3.2-3.4 4.7 -.5 1.4-.8 3.3 0 2.9 .8-.4 1.4-.4 2.3-1.2 1-.7 2.6-2 3.3-2.1 .7-.2 2 0 1 1v-.001c-1.2 1.34-2.55 2.54-4 3.6l-4 2.6v0c-.66.45-1.32.88-2 1.3 0 0 1-6 2.6-8.5v-.001c1.01-1.7 2.22-3.28 3.6-4.7Zm32 99.2c1.2 1 2.8 1.3 2.8 1.3s.7 0 .7.2 -.9 0-1.8-.1v0c-.95-.31-1.83-.78-2.6-1.4 -.4-.4-1.1-.8-.9-1.4 .2-.6.6.5 1.8 1.4Zm-10.4 5.5l2.3 1.8 1.3.7c.6.2.8.6.8.6s-.1.2-.8 0c-.7-.2-2.8-1.7-3.5-2.3 -.6-.6-1-.7-.7-1 .3-.2.4 0 .6.2Zm42-74.4c-.4.4-.9 1-1 .9 -.3-.2 0-.5.4-1l.8-.9 1.1-1.5c.4-.4 1-.7.3.3l-1.7 2.2Zm3.1 7l-1.3 1.3c-.5.5-.9 1.1-1.2.8 -.3-.3.7-.9 1.2-1.5v-.001c.4-.53.87-1 1.4-1.4v0c.41-.3.84-.57 1.3-.8l-1.4 1.6Zm-1.2 11.2c-.8.9-2 1.1-2 .8 -.2-.4 0-.6.7-1v0c1.64-.83 3.18-1.84 4.6-3 .2 0-1 1.4-1.4 1.6 -.4.2-1 .8-1.9 1.6Zm-2.2 9c0-.3-.1-.5.5-.5l1.6-.2s1.3-.5 1.4-.2c0 .3-1 .8-1.6.8l-1.4.4c-.3.2-.5 0-.5-.3Zm-1 9.8c1.4 0 2.6-.3 2.7 0 0 .1-.7.5-1.4.7 -.7.3-2 .3-3 .4 -.9 0-1-.2-1-.6 0-.5 1.3-.5 2.7-.5Zm-11 10.8c.1-.2.6 0 1.4 0 .8.3 2.1.5 2.8.5l2.4-.1 1 .2c0 .2-1.3.2-3 .4 -1.8.2-3-.2-3.8-.3 -.8-.2-1-.5-.9-.7Zm-4.6 7.6h0c.67.25 1.38.39 2.1.4l2.3.3s.7 0 .6.4c-.1.3-.4 0-1-.1h-2.4c-1.2 0-1.8-.4-2.5-.5 -.7-.1-1.5-.5-1.1-1 .4-.4 1.1.2 2 .5Zm-9 5.8l2.5 1.8 1.1.6c.8.4.7.6.6.8 -.1.2-.6-.3-1-.5h0c-.88-.46-1.72-1-2.5-1.6 -.7-.6-1.6-1-1.4-1.5 .1-.4.3-.1.8.4Zm14.9-74.8l-1.7 2.3c-1.6 2-.7.1-.4-.4l3.4-4.5c.8-.9 1-.5.5 0l-1.8 2.6Zm3.2 9.8c-.2-.2.3-.4 1.1-1.5l2.7-3.3 .6-1c.2.1-.6 1.8-1.3 2.5 -.7.7-1.6 2-2.1 2.7 -.5.6-.8.9-1 .6Zm-4.3 18.5c0-.5 1.8-.5 2.6-.6l2.2-.5s1.6-.3 1.6 0c0 .1-.3.3-1.2.5l-3.3.8c-1 .1-1.9.3-1.9-.2Zm4.3-10h0c-.78.64-1.62 1.21-2.5 1.7 -.6.4-1.1.8-1.4.5 -.4-.4.2-.7 1.2-1.1l1.5-.9 1-.5c.5-.3 1.3-.6.2.3Zm-10-6.5l1.4-1s.9-.8 1-.5c.2.3-1 1-1.5 1.6 -.5.5-1.5 1.9-2 1.6 -.5-.3.5-1.1 1.2-1.7Zm6.6 25.7l1.5.4c.7.2.7.4-.4.4s-1.6-.3-2.7-.5 -1.5-.3-1.3-.7c.1-.3.7-.2 1.2 0l1.7.4Zm-1.8 9.3c.1.2-.8 0-1.4-.2 -.5-.2-1.7-.9-2.4-1 -.7-.3-.7-.4-.7-.8s.7 0 1.6.2c1 .3 2 1.2 2 1.2l1 .6Zm-12 5.6c-.8-.5-1-.8-.7-1 .3-.3.6-.3 1.2.2v0c.65.51 1.32 1.01 2 1.5l1.1.5c.5.2 1.2.7 1 1 -.2.1-1.2 0-1.7-.6s-2-1-2.9-1.6Zm-5.6 7.5c-.4-.3-1.4-.6-1.8-1 -.5-.3-.8-1.3-.4-1.4 .4-.1.6.4 1.4 1l3.5 2.4 .7.3c.7.2.4.5-.2.4 -.7-.1-1-.1-1.8-.7l-1.4-1Zm-8.4 7.1v0c-.82-.46-1.56-1.03-2.2-1.7 -.5-.4-1.2-1-.8-1.3 .4-.3.8.1 1.4.6l2.1 2.2s.2 0 1 .7c.9.7 0 .5-.3.3v0c-.33-.37-.75-.64-1.2-.8Z"/><path fill="#D4AF3A" d="M338.2 142.5l4-1 2.5 2 -3.1 1.4Z"/><path fill="#B96B29" d="M-330.8 139a3.2 3.1 0 1 0 0 6.2 3.2 3.1 0 1 0 0-6.2Z" transform="scale(-1 1)"/><g fill="#D4AF3A"><path d="M-330.8 139.5a1.9 1.9 0 1 0 0 3.8 1.9 1.9 0 1 0 0-3.8Z" transform="scale(-1 1)"/><path d="M337.5 131.4c-.8.3-1.9.2-1.9.2s-.3-1.4.5-2.1l2-1.7 .5-.6v2c.1.8-.3 1.9-1.1 2.2Z"/><path d="M-335.8 132.4a.6.6 0 1 0 0 1.2 .6.6 0 1 0 0-1.2Z" transform="scale(-1 1)"/><path d="M340.2 132.4l.8.9s-.7 0-1.2.4c-.6.4-1.2.7-1.9.6v0c-.5-.06-.86-.5-.81-.99 0-.01 0-.01 0-.02 .2-.5.5-1 1.5-1.3 1-.4 1.3 0 1.6.4Zm-2.2 3.7c2 .2 4.6-2 4.6-2 .3 1.8 1.4 2.7 3 3v.1s-1.7.8-3.5 1.1v0c-.84.08-1.69.01-2.5-.2v0c-1.05-.19-2.06-.52-3-1 -1.2-.7-.9-2.6-.9-2.6s.2 1.5 2.2 1.6Zm7.8-2c.8-.3 2-.9 2.6-1 .5 0 1.3 0 1.1.9 0 1-1 1.4-2 1.4s-1.5-.3-2-.6c-.6-.3-.5-.4.3-.7Zm6.3-3.4c1-.7 1.7-.9 1.7-.9s.6 1.6.3 2.6 -1 1.2-1.9 1.2c-.8 0-2.1-.5-1.8-1.2 .4-.6.8-1 1.7-1.7Z"/><path d="M-351.3 134.6a.7.5 0 1 0 0 1 .7.5 0 1 0 0-1Z" transform="scale(-1 1)"/><path d="M349.4 127.3c.5-2.7.4-5.6-2-9.3v0c-1.83-2.32-4.25-4.08-7-5.1L339 111c-1.4-1.5-4.3-3.4-4.3-3.4l5.2 1.5v0c-.06 1.26.92 2.34 2.19 2.39 .03 0 .06 0 .1 0 .4 0 .9-.2 1.3-.4 1 .1 4.4 2.2 5.2 2.9v-.001c-.21.36-.32.78-.3 1.2h-.001c0 1.27 1.02 2.3 2.3 2.3 .3 0 .7 0 1-.2l.3.5v0c.63 1.18 1.17 2.42 1.6 3.7 -.6.4-1 1.1-1 2 0 1.3 1 2.3 2 2.3v1.5c0 .7-.4 1.2-1.7 1.6 -1.3.3-3 2.6-3 2.6 -.2 0-1.1-1.6-.4-4.3Z"/><path d="M341.3 110.3c-.4-.4-.5-1-.1-1.4 .3-.3 1-.3 1.5.1s.6 1 .2 1.4c-.4.3-1 .3-1.6-.1Zm8.5 5.7c-.5-.5-.6-1.3-.2-1.7 .4-.4 1.2-.4 1.7.1 .6.5.7 1.3.2 1.7 -.4.4-1.2.4-1.7-.1Z"/><path d="M-354.8 121.9a1.3 1.3 0 1 0 0 2.6 1.3 1.3 0 1 0 0-2.6Z" transform="scale(-1 1)"/><path d="M326.6 105c.7.2 2 .6 3.8 1.6 -1.3 0-2.3.8-2.3 1.9 0 1 1.2 2.2 2.5 2.2s2.2-1.1 2.2-2.2c0-.2 0-.5-.2-.7l1.8 1.2c4.2 2.8 5.1 4.1 7.2 8 2 3.8 2.8 8 1.9 10.4 -.9 2.5-4.2 3-4.2 3s.4-.3.4-.8l-.2-1.6c-.2-1 0-2.1 0-2.1s-.8-.1-1.2.4l-1.5 1.7 -1.5 1.5s-.7-1-.7-2.1 .8-2.3 1-4.3c0-2-1-5.5-2.9-8v0c-1.82-2.25-4.06-4.12-6.6-5.5v-.001c-.72-.29-1.21-.94-1.3-1.7l-.2-2c-.1-1.2 1-1.1 2-.9Z"/><path d="M330.8 109.5c-.8 0-1.4-.7-1.4-1.3 0-.6.5-1 1.3-1 .7 0 1.3.4 1.3 1s-.5 1.3-1.2 1.3Zm-6.2 24.4c-1 .4-2.2.1-2.7-.2 -.5-.4-.7-1.3 0-1.8v0c.58-.43 1.34-.5 2-.2l2 1.3s-.3.5-1.3.9Z"/><path d="M321.4 135c.3.6.6.9 1.7 1 1.1 0 2.3 0 3-.8h0c.51-.51.94-1.08 1.3-1.7h1.3s.4 1.7 1 2.1c.5.5 2.4.6 3.3 0 .8-.7 1.6-1.4 1.7-1.3 .2 0 0 .7-.8 1.4s-1.5 1.3-3 1.3H323s-1.6 0-2-1c-.5-.9-.6-1.5-.3-1.7 .2-.3.3.1.7.7Z"/><path d="M333.5 133.7c-1.2.6-1.9.2-2.3-.3l-.5-.8 1.7-.7c.5-.4.9-.7 1.5-.6l.6.1s.2 1.6-1 2.2Z"/></g><g fill="#B96B29"><path d="M-339.3 119.3a2.7 2.6 0 1 0 0 5.2 2.7 2.6 0 1 0 0-5.2Z" transform="scale(-1 1)"/><path d="M334.7 112.7c1-.7 2.6-.4 3.5.6 .8 1.1.7 2.6-.4 3.3 -1 .7-2.6.4-3.5-.6 -.9-1.1-.7-2.6.4-3.3Z"/></g><g fill="#D4AF3A"><path d="M-339.4 120a1.6 1.5 0 1 0 0 3 1.6 1.5 0 1 0 0-3Z" transform="scale(-1 1)"/><path d="M335.8 113c.7-.2 1.5.2 1.9.8 .3.6 0 1.2-1 1.4 -1.7.3-2.5-1.8-1-2.2Z"/></g></svg>