<svg viewBox="0 0 640 480" xmlns="http://www.w3.org/2000/svg"><path fill="#DA2032" d="M0 0h640v480H0Z"/><path fill="#0066B3" d="M213.3 0h213.4v480H213.3Z"/><path fill="#FFD900" d="M106.7 141.8a40 40 0 1 0 0 80 40 40 0 1 0 0-80Z"/><path fill="#DA2032" d="M106.7 120a43.6 43.6 0 1 0 0 87.2 43.6 43.6 0 1 0 0-87.2Z"/><g fill="#FFD900"><path d="M106.7 141.8a29.1 29.1 0 1 0 0 58.2 29.1 29.1 0 1 0 0-58.2Z"/><path d="M109.7 76.4v0c-3.02 1.31-5.03 4.21-5.2 7.5 -.2 2.5.9 5.3 1 7.7 0 4.2-4.3 5.6-4.3 11.5 0 2 1.9 4.3 1.9 9.6 -.4 2.8-2 3.5-3.7 3.7v-.001c-1.99 0-3.61-1.62-3.61-3.6 -.01-.04 0-.07 0-.11v0c-.01-.94.35-1.83 1-2.5l-.001-.001c.12-.11.25-.21.4-.3 .8-.9 2-1.2 2-3.4 0-1.1-.8-2.2-1.5-4.2s-.2-5.2 1.4-7.1c-2.6 1-4.1 3.4-5 5.6 -.8 2.7 0 4.2-1.2 6.5 -.7 1.4-1.5 2-2.3 3.2 -1 1.4-2 4.4-2 5.9v0c.74 10.02 9.47 17.54 19.49 16.8 8.98-.67 16.13-7.82 16.8-16.81 0-1.5-1.1-4.5-2-5.9 -.9-1.2-1.7-1.8-2.4-3.2 -1.2-2.3-.4-3.8-1.3-6.5 -.8-2.2-2.3-4.6-4.9-5.6 1.6 2 2 5.2 1.4 7.1 -.7 2-1.4 3-1.4 4.2 0 2.2 1.1 2.5 2 3.4v0c.1.09.2.19.3.3v0c.64.67 1 1.56 1 2.5h0c.05 1.98-1.52 3.64-3.5 3.69 -.04 0-.07 0-.11 0 -2-.3-3.5-1.2-3.7-3.7 0-7 3-7.4 3-12.6 0-7.4-6.6-10.9-6.6-16.3 0-1.8.4-5 3-7.4ZM26.7 229H63v174.5H26.7Zm123.6 0h36.4v174.5h-36.4Zm-80 0H143l-36.3 21.8Zm0 29H143v14.6H70.3Zm0 101.9H143v14.6H70.3Zm0 21.8H143l-36.3 21.8Z"/><path d="M106.7 280a36.4 36.4 0 1 0 0 72.8 36.4 36.4 0 1 0 0-72.8Z"/></g><g transform="matrix(.72727 0 0 .72727-38.8 32.7)"><g fill="#DA2032"><path d="M200 353.5a10 10 0 1 0 0 20 10 10 0 1 0 0-20Z"/><path d="M200 406.5a10 10 0 1 0 0 20 10 10 0 1 0 0-20Z"/><path d="M200 334v0c16.29 0 29.5 13.2 29.5 29.5 0 16.29-13.21 29.5-29.5 29.5v0c-12.98 0-23.5 10.52-23.5 23.5 0 12.97 10.52 23.5 23.5 23.5v6 0c-16.3 0-29.5-13.21-29.5-29.5 0-16.3 13.2-29.5 29.5-29.5v0c12.97 0 23.5-10.53 23.5-23.5 0-12.98-10.53-23.5-23.5-23.5Z"/></g></g></svg>