<svg viewBox="0 0 640 480" xmlns="http://www.w3.org/2000/svg" xmlns:xlink="http://www.w3.org/1999/xlink"><defs><path d="M200.5 174.8l25.4 23.6 -6.7-34 -14.6 31.4 30.3-16.8Zm36.9-32l34.7.6 -27.7-21 10.1 33.3 11.3-32.9Z" id="b"/><path d="M320 331.6H217.5h0c-1.3-1.31-2.56-2.65-3.8-4H320v0c.84.29 1.4 1.1 1.4 2 0 .8-.5 1.7-1.4 2Zm0-31.3v0c1.15-2.36 1.57-5.01 1.2-7.6v0c-.2-1.33-.6-2.61-1.2-3.8v0c-9.22 8.76-20.34 15.27-32.5 19v0c-7.62 2.31-15.54 3.49-23.5 3.5h-63.1 0c1.84 2.73 3.77 5.4 5.8 8h61c20 0 38.2-7.2 52.3-19.1Zm-109.6-24.7v0c-3.12 1.16-6.39 1.83-9.7 2h0c15.37 17.47 37.52 27.49 60.8 27.5v0c22.09 0 43.23-9.03 58.5-25h-.001c2.81-19.48 4.31-39.13 4.5-58.8v-.001c.24-22.65-1.27-45.29-4.5-67.7 -6.6 6-19 18.7-24.8 38.3v0c-2.18 7.5-3.26 15.28-3.2 23.1v-.001c-.01 16.02 4.76 31.69 13.7 45v0c-11.01-14.16-16.99-31.57-17-49.5 0-12.4 2.8-24.2 7.8-34.7v0c-3.49-3.69-6.05-8.15-7.5-13v0c-6.92 12.19-10.54 25.98-10.5 40 0 18 5.9 34.7 15.9 48.1v0c-19.04-20.01-45.83-30.74-73.4-29.4v0c2.76 2.55 5.06 5.56 6.8 8.9h0c25.91.03 50.7 10.65 68.6 29.4v0c-17.1-14.34-38.7-22.2-61-22.2v0c-12.6-.03-25.08 2.45-36.7 7.3v0c12.81 33.87 46.5 55.16 82.6 52.2 -4.7.8-9.5 1.3-14.4 1.3v0c-21.06.03-41.29-8.15-56.4-22.8ZM320 364.4h-53.1v0c16.9 6.69 34.92 10.12 53.1 10.1v0c.82-1.54 1.26-3.26 1.3-5v0c-.02-1.79-.47-3.54-1.3-5.1Zm0-24.5h-93.6 0c2.52 2.15 5.12 4.22 7.8 6.2H320v0c.8-.84 1.27-1.94 1.3-3.1v0c.04-1.18-.44-2.31-1.3-3.1Zm0 12.5h-76.7v0c4.64 2.94 9.45 5.61 14.4 8H320v0c.8-1.26 1.21-2.72 1.2-4.2h0c-.06-1.36-.47-2.67-1.2-3.8Z" id="a"/></defs><path fill="#00785E" d="M0 0h640v480H0Z"/><path fill="#FBD116" d="M295 108.7l40.5 29.5L320 90.5l-15.5 47.7 40.6-29.5Z"/><use fill="#FFF" xlink:href="#a"/><use fill="#FBD116" xlink:href="#b"/><g transform="matrix(-1 0 0 1 640 0)"><use fill="#FFF" xlink:href="#a"/><use fill="#FBD116" xlink:href="#b"/></g></svg>