<svg viewBox="0 0 640 480" xmlns="http://www.w3.org/2000/svg"><g fill="#F41408" fill-rule="evenodd"><path d="M0 0h640v480H0Z"/><path fill="#21873B" d="M0 320h640v160H0Z"/><path fill="#000" d="M0 0h640v160H0Z"/><g fill="#F31509"><path d="M220.5 141c22.3-49.2 84.5-72.8 138.8-52.5v0c25.75 8.73 46.75 27.73 58 52.5H220.5Zm-26 6.4l-.001-.001c-17.65-1.21-35.17-3.81-52.4-7.8 -4.1-1.3-4.3-3.6-3.8-5.3 .5-1.7 3.1-3.6 6.2-3 5.6 1.4 28.8 7 50 16.1Zm124.6-85.9c-4.2-21-5.2-44-4.8-48C314.7 9.6 317 9 319 9c2 0 4.7 1.8 4.7 4.7 0 5.3-.1 27-4.6 48Zm11.6.5v0c-1.66-16.02-1.76-32.17-.3-48.2 .8-3.9 3.2-4.4 5.1-4.2 2 .1 4.5 2.1 4.2 5 -.5 5.3-2.6 26.9-9 47.4Zm10.4 1.3c-.2-21.3 3-44.3 4.1-48 1.1-3.9 3.6-4.2 5.5-3.9 2 .3 4.3 2.5 3.8 5.3 -1 5.3-5.2 26.6-13.4 46.6Zm11 2.2c1.8-21.2 7.3-43.8 8.8-47.5 1.5-3.7 4-3.8 5.8-3.4 2 .5 4 2.8 3.3 5.6 -1.6 5.1-7.7 26-17.8 45.3Zm10.9 3.2c3.9-21 11.5-43.1 13.3-46.7 1.9-3.5 4.3-3.5 6.2-2.9 1.8.6 3.7 3.2 2.7 5.8v0c-6.03 15.25-13.46 29.92-22.2 43.8Zm10.1 3.8c5.8-20.7 15.5-42 17.7-45.5 2.2-3.4 4.6-3.1 6.4-2.3 1.8.7 3.4 3.4 2.1 6 -2.5 4.8-12.5 24.4-26.2 41.8Zm10 4.7v0c5.94-15.29 13.31-29.99 22-43.9 2.4-3.2 4.9-2.7 6.6-1.8v0c2.09 1.23 2.78 3.93 1.54 6.02 -.02.02-.03.04-.05.07 -3 4.6-14.9 23.4-30.1 39.6Zm9.4 5.5c9.7-19.4 23.3-39 26.1-42 2.8-3 5.2-2.3 6.8-1.3v-.001c1.98 1.4 2.45 4.15 1.04 6.13 -.02.02-.04.04-.05.06 -3.5 4.4-17.2 22.1-34 37Zm8.8 6.2c11.6-18.6 27-37 30.1-39.7 3-2.8 5.4-2 6.9-.8v-.001c1.79 1.55 1.98 4.27.42 6.06 -.04.04-.08.08-.13.13 -3.8 4.1-19.1 20.7-37.3 34.3Zm8.3 6.9v0c10.14-13.38 21.45-25.83 33.8-37.2 3.3-2.5 5.5-1.5 6.9-.3v0c1.66 1.69 1.63 4.41-.06 6.08 -.08.07-.16.14-.25.21 -4.1 3.8-21 19.1-40.4 31.2Zm7.6 7.5v0c11.33-12.54 23.78-24.02 37.2-34.3 3.6-2.3 5.7-1.1 7 .3 1.2 1.3 1.5 4.4-1 6.2v-.001c-13.6 10.46-28.05 19.76-43.2 27.8Zm6.5 7.8v0c12.5-11.64 25.98-22.18 40.3-31.5 3.7-2 5.7-.6 6.8.9 1.2 1.4 1.1 4.5-1.4 6.1 -4.8 3-24.3 15.6-45.7 24.5Zm5.9 8.3v0c13.52-10.56 27.9-19.96 43-28.1 4-1.7 5.9-.2 6.9 1.3 1 1.6.6 4.6-2 6v0c-15.41 8.22-31.47 15.18-48 20.8Zm5.4 9.6v0c14.56-9.39 29.88-17.55 45.8-24.4 4.1-1.4 5.8.3 6.6 1.9 .9 1.6.3 4.6-2.6 5.8 -5.3 2.2-27 11.4-49.8 16.7Zm4.2 9.2h-.001c15.4-8.24 31.45-15.19 48-20.8 4.2-1 5.7.8 6.4 2.5 .6 1.6-.3 4.6-3.2 5.5 -5.5 1.9-28 9.3-51.2 12.8Zm3.4 9.8v0c16.11-6.98 32.77-12.63 49.8-16.9 4.2-.6 5.6 1.2 6.1 3 .5 1.7-.7 4.5-3.7 5.3 -5.7 1.3-28.8 7-52.2 8.6ZM307.8 62v0c-4.75-15.46-8-31.33-9.7-47.4 0-3.9 2.3-4.8 4.2-5 2-.1 5 1.5 5.2 4.3 .5 5.3 2.6 26.9.4 48.1Zm-11 1.3v-.001c-6.26-14.97-11.05-30.51-14.3-46.4 -.4-4 1.8-5 3.7-5.3 2-.3 5 1 5.6 3.8v-.001c3.12 15.78 4.8 31.81 5 47.9Zm-11 2.2l-.001 0c-7.68-14.44-13.98-29.58-18.8-45.2 -.8-3.9 1.3-5.1 3.2-5.6 1.9-.4 5 .6 5.9 3.4 1.5 5.1 7.7 26 9.6 47.3Zm-10.5 3l-.001 0c-8.94-13.77-16.57-28.33-22.8-43.5 -1.1-3.8.8-5.2 2.6-5.8 1.9-.6 5.1.2 6.2 2.8 2 5 10.2 25.4 14 46.4ZM265.2 72h-.001c-10.26-12.98-19.29-26.88-27-41.5 -1.4-3.7.4-5.3 2.2-6 1.8-.8 5-.2 6.4 2.4 2.5 4.8 12.5 24.5 18.4 45.1Zm-10.3 5h-.001c-11.5-12.11-21.88-25.23-31-39.2 -1.7-3.5-.1-5.2 1.6-6.1 1.7-.9 5-.6 6.6 1.9 3 4.6 15 23.3 22.8 43.4Zm-9.4 5.4h-.001c-12.56-11.2-24.11-23.48-34.5-36.7 -2.1-3.4-.7-5.2 1-6.3 1.5-1 5-1 6.7 1.4 3.4 4.3 17.1 22 26.8 41.5Zm-8.7 6h0c-13.6-10.18-26.28-21.53-37.9-33.9 -2.4-3.2-1.1-5 .4-6.2v0c2.17-1.35 4.99-1.02 6.8.8 3.8 4 19.2 20.7 30.7 39.3Zm-8.5 7h0c-14.52-9.05-28.24-19.32-41-30.7 -2.8-3-1.7-5-.3-6.3v-.001c2.08-1.54 4.95-1.42 6.9.3 4.2 3.7 21 19 34.4 36.6Zm-7.4 7l0 0c-15.32-7.89-29.93-17.06-43.7-27.4 -3-2.8-2.1-4.8-.8-6.2 1.2-1.4 4.5-2.1 6.9-.3h-.001c13.49 10.22 26.07 21.59 37.6 34Zm-7 8.2v0c-16.04-6.64-31.49-14.6-46.2-23.8 -3.3-2.5-2.6-4.7-1.5-6.1 1.1-1.5 4.3-2.5 6.9-.9 4.8 3.1 24.3 15.5 40.8 30.8Zm-6.3 8.8c-22.2-7-44.9-17.6-48.4-19.9 -3.6-2.2-3-4.4-2.1-6 .9-1.6 4-2.8 6.8-1.4 5 2.7 25.8 13.5 43.7 27.3Zm-5.3 9c-22.8-5.3-46.3-14-50.1-16 -3.7-2-3.5-4.2-2.6-5.8 .8-1.6 3.7-3.1 6.6-2 5.3 2.3 27 11.4 46.1 23.8Zm-4.2 9l-.001 0c-17.44-2.69-34.63-6.77-51.4-12.2 -4-1.6-3.8-3.9-3.2-5.5 .7-1.7 3.5-3.4 6.4-2.5 5.6 1.9 28 9.3 48.2 20.2Z"/><path d="M194.5 147.4v0c-17.65-1.21-35.17-3.82-52.4-7.8 -4.1-1.3-4.3-3.6-3.8-5.3 .5-1.7 3.1-3.6 6.2-3 5.6 1.4 28.8 7 50 16.1Z"/></g><path fill="#000" d="M129.4 141.5h381.2v12.6H129.4Z"/></g></svg>