<svg viewBox="0 0 640 480" xmlns="http://www.w3.org/2000/svg" xmlns:xlink="http://www.w3.org/1999/xlink"><defs><radialGradient id="a" cx="842.3" fr="0%" fx="842.3" fy="103.7" gradientUnits="userSpaceOnUse" cy="103.7" r="25.9" gradientTransform="matrix(.14152.03595-.03453.14198 213.1 162.4)"><stop offset="0%" stop-color="#FFF"/><stop offset="100%" stop-color="#F15770"/></radialGradient><radialGradient id="b" cx="651.5" fr="0%" fx="651.5" fy="550.5" gradientUnits="userSpaceOnUse" cy="550.5" r="25.9" gradientTransform="matrix(-.13441-.05384.04964-.12489 397.9-24.3)" xlink:href="#a"/><radialGradient id="c" cx="380.8" fr="0%" fx="380.8" fy="740.4" gradientUnits="userSpaceOnUse" cy="740.4" r="25.9" gradientTransform="matrix(.07536.00282-.00343.14804 412.4-203.6)" xlink:href="#a"/></defs><path fill="#CE1126" d="M426.7 0H640v480H426.7Z"/><path fill="#FFF" d="M213.3 0h213.4v480H213.3Z"/><path fill="#006847" d="M0 0h213.3v480H0Z"/><g stroke-width=".3" fill="#FCCA3E" stroke="#AA8C30"><path d="M355.8 289.4l.2 4.5 1.7-1.1 -1.3-3.7Z"/><path stroke-width=".2" d="M355.6 286.8a1.4 1.4 0 1 0 0 2.8 1.4 1.4 0 1 0 0-2.8Z"/><path d="M361.1 296.4l-3.2-3.1 -1.5 1.2 4.5 2.6Z"/><path stroke-width=".2" d="M360.9 298.2c-.5-.6-.3-1.5.3-2 .7-.5 1.6-.4 2 .2 .5.6.3 1.5-.3 2 -.7.5-1.6.4-2-.2Z"/><path d="M386.3 249.6l3.4 3.3 .4-1.7 -3.1-2Z"/><path stroke-width=".2" d="M385.9 247.3a1.4 1.4 0 1 0 0 2.8 1.4 1.4 0 1 0 0-2.8Z"/><path d="M395.2 251.6L390 253l.5-1.7 4.4-.4Z"/><path stroke-width=".2" d="M396 249.4a1.4 1.4 0 1 0 0 2.8 1.4 1.4 0 1 0 0-2.8Z"/><path d="M378 276.8l-3.2-4.8 .5-.3 3.5 4.2Z"/><path stroke-width=".2" d="M374.5 269.4a1.4 1.4 0 1 0 0 2.8 1.4 1.4 0 1 0 0-2.8Z"/><path d="M378.1 277l4 .7 .1-.5 -3.3-1.4Z"/><g stroke-width=".2"><path d="M383.3 276.3a1.4 1.4 0 1 0 0 2.8 1.4 1.4 0 1 0 0-2.8Z"/><path d="M284.6 288c0 .8-.5 1.2-1 1.2s-1-.5-1-1.2 .5-1.3 1-1.3 1 .7 1 1.4Z"/></g><path d="M284.6 290.3l1 5 -1.3-.5 -.4-4.3Z"/><g stroke-width=".2"><path d="M285.7 288.6c.6.7-.4 1.9-1.4 2.2 -1 .3-2.4-.2-2.4-1.2s1.6-.5 2-.6c.6-.2 1.2-1.2 1.8-.4Z"/><path d="M277 295.2a1.6 1.1 0 1 0 0 2.2 1.6 1.1 0 1 0 0-2.2Z"/></g><path d="M279.6 296l4.8-.2 -.8-1 -4 .4Z"/><g stroke-width=".2"><path d="M280 295.4c.5 1.3.5 3-.9 2.7 -1.4-.1-1-1.4-1.2-1.8 -.2-.9-1-1.7-.2-2.5s2 .4 2.3 1.6Z"/><path d="M264.4 267.8a.9 1.4 0 1 0 0 2.8 .9 1.4 0 1 0 0-2.8Z"/></g><path d="M264.4 272.4l.1 4.6 -1.2-1v-3.8Z"/><g stroke-width=".2"><path d="M266.2 271c.3 1-1.3 1.6-2.4 1.4 -1-.2-1.9-.7-1.7-1.7 .1-1 1.5-.8 2-.5 .4.3 1.8-.8 2.1.7Z"/><path d="M256.2 275.8a1.6.7 0 1 0 0 1.4 1.6.7 0 1 0 0-1.4Z"/></g><path d="M259.1 276.5l3.6-.3 1.6 1.2 -5.3-.2Z"/><path stroke-width=".2" d="M257.8 274.5c1 0 1.6 1.1 1.5 2.3 -.2 1.1-1 2-2 2 -.9-.2-.8-1-.8-1.2 0-.3.5-.7.6-1 0-.4-.3-1.3-.1-1.6 0-.4.3-.5.8-.5Zm-3-28.3c-.4.6-1.2 1.1-1.6.9 -.4-.3-.2-1.2.2-1.8 .4-.7 1-1 1.4-.8 .4.3.4 1 0 1.7Z"/><path d="M250.7 253.5l2-4.8 -.2-.3 -2.4 3.4Z"/><path stroke-width=".2" d="M252.4 248.7c-1-.7-1.2-1.5-1-2.3 .4-.7 1.2-.2 1.2-.2l.8.7c.4.2 1 0 1.4.6 .5.6.2 1.2-.1 1.4 -.4.1-1.5.4-2.3-.2Zm-8.5-.6c.7.4 1.1 1 .9 1.5 -.3.5-1 .5-1.8 0 -.7-.3-1-1-.8-1.5 .2-.4 1-.5 1.7 0Z"/><path d="M246 250.2l3.8 2.2 -.1 1.8 -4.1-3.5Z"/><path stroke-width=".2" d="M246 250.6c-.8 1-1.6 1-2.3.7 -.7-.5-.1-1.2-.1-1.2l.8-.7c.2-.4 0-1 .7-1.4 .7-.4 1.2 0 1.3.3 .1.4.3 1.5-.4 2.3Z"/></g><g fill="#AA8C30"><path d="M356.6 289.8l-.4.4 -.3 1v-1.5l.5-.3 .2.4Zm.2-.9s-.3.5-1.1.5 -1.2-.4-1.3-.8c-.1-.4-.1-.7.2-1.2 .2-.5-.4.4-.4.4v1l.6.6 .5.2h.4l.7-.2 .4-.3v-.2Zm4.2 7.3s-.4.2-.7.1c-1.9-.6-3.5-1.8-3.5-1.8l3.8 2.4 .4-.7Zm2.4 1.1s0 .7-.8 1c-.7.3-1.2.2-1.5-.1 -.3-.3-.4-.6-.4-1.2l-.1.6 .4.8 .8.4 .5-.1 .5-.2 .4-.5 .3-.5 -.1-.2Zm24.3-47.6l-.1.4v.7l-.9-1 .4-.5 .6.4Zm-.5-1.2c0 .7-.9 1.6-1.6 1.3 -.7-.3-1.2-1-.9-1.8l-.2.3 .1 1.1 .7.6h.9l.6-.3 .4-.7v-.5Zm10 1.8s-.1-.4 0 0 -.6 1.7-1.4 1.6c-.7-.1-1-.8-1-1.4 0-.6-.1.2-.1.2v.8l.5.4 .6.4 .6-.2 .7-.3 .2-.6v-.9Z"/><path d="M393.8 251s0 .4-.4.7l-1.3.7 2.8-.8 -.2-.7 -.9.2Zm-17.1 22.5l-.1.5v.8l-1.6-2.5 .5-.3 1.2 1.5Zm-.9-2.4c-.2.7-1.4 1-2 .8 -.5-.4-1-1.6-.3-2l-.4.2 -.1.7 .2.7 .6.7 .5.1 .8-.2 .6-.4s.4-1.3.1-.6Zm5.6 5.7s0 .3-.5.3h-1.6l2.6.6 .2-.6 -.7-.3Z"/><path d="M384.6 277.5c.3.8-.5 1.7-1.5 1.4 -1-.3-1.3-1.3-1-1.8l-.2.6 .2.8 .6.6h1.3l.6-.7 .2-.7 -.1-.2Zm-99 11.1c.3.3-.1 1.5-1.2 2 -1.2.4-1.7 0-2-.4 -.3-.4-.3-.8-.3-.8l-.2.2 .2.6 .5.5 1 .2 .8-.1 .7-.5 .4-.3 .3-.5v-.6l-.1-.3Z"/><path d="M284.6 291.1l-.3.4 -.3.8v-1.4l.5-.3 .1.5Zm-3.8 4s0 .3.2.5l1 .3h-1.8l-.2-.7h.8Zm-.6 1.2v.2 0c-.01.17-.04.34-.1.5 -.2.5-.3 1-1 .9v0c-.55-.1-.97-.55-1-1.1 0-.4-.2-.6-.2-.6v.6l.4 1 .7.3h.5l.5-.2 .2-.6 .1-.5v-.5Zm-4.7-.1s.2.8 1.2.8 1.2-.2 1.2-.2v.3l-.2.2H276l-.3-.3 -.3-.5v-.3Zm-9.4-25.4v.4c-.1.3-.7 1-1.8 1 -1 0-1.5-.3-1.8-.7 -.3-.3-.4-.8-.4-.8v.5l.4.7 1.1.5h1l1-.3 .5-.5 .1-.6 -.1-.2Zm-1.7 2.3s-.4 0-.6.2v0c-.15.12-.28.25-.4.4v-1.3h1v.7Zm-4.7 3.4l.5.3c.5.3 3.1.5 3.1.5h-4.1l.1-.8h.4Zm-.5 0l-.2.6c-.2.5-.7 1.6-1.6 1.4 -.9-.1-.7-.8-.7-.8v-.4l-.2.7 .2.4 .4.2 .7.1 .4-.2 .6-.5 .2-.5 .2-.6v-.3Zm-2.2.2s0 .2-.7.2 -1.7-.3-1.7-.3l.4.4 .5.2h1.3l.2-.5Zm-2-29s0 .5-.3.8c-.4.3-1.3.5-1.8.2s-1.5-1.3-1.5-1.3l.4.8 .7.6 1 .3 1-.2 .4-.4 .2-.3 -.2-.4Z"/><path d="M252 249.1v.6l-.2 1.1 .9-2 -.4-.2 -.3.5Zm-5.4 1.5l.2.5c.2.5 2.3 2.6 2.3 2.6l-3.3-2.9 .4-.5 .4.3Zm-1 .3s-.5.3-1 .3c-.3 0-1 0-1-.4 -.1-.5.1-.7.1-.7l-.3.6 .1.4 .5.3h.7l.6-.3 .2-.2Zm-1.5-1.4h-.5c-.7 0-1.4-.8-1.4-.8l.5.8 1 .5 .4-.5Z"/></g><path fill="#9CA168" d="M399.9 240.2c-.3 3.8-4.1 5.8-6.1 7.2 -2 1.4-3 3.2-3 3.2l-.6 2.2 -.3 1.5 -.1.5c.1.4.3 1 .3 2l-.1 4.3 2.7-1.9 1.9-.7 .6-.1s-2.2 2.1-3 4.4c-.8 2.3-2.4 7.2-5.3 8.8 -3 1.6-4.8 1-5.7 1.8 -1 .8-1 1-1 1l-1.3 1.8 -1 1.2 -.9.7 -.6.4h-.001c-.01.57-.07 1.14-.2 1.7l-.7 2.4s.6-.4 1.3-.5h1.3s-.5.6-.7 1.3c-.2.6.1 4.6-3.6 7 -3.8 2.3-13.4 2-13.4 2l-1.8.7 -1.7 1.3 -1.6 1.7v.4s-1.3 1.5-2.1 2l-2.8 1.9 2.2.1 3.5 1.5s-2.2 0-3.6.5c-1.5.6-8.2 4.4-11.4 4.3 -3.3-.1-8-4.9-8-4.9l-2-1.4 -3.5-.7 -4.3-.2v-.6l.1-.7s1.5-.2 3.8.1c2 .2 2.7 1 4.4 1.1 1.7.2 3 0 3.5-.3 .7-.3 5.9-4.7 5.9-4.7l5.8-2 2.3.3 1 .2 .9.3 -1 1v0c-.43.42-.9.79-1.4 1.1l.7.6 3.7-.6 1.2.3 .3.2c0-.3.2-.8.6-1.3 .4-.6 2.5-2.3 3.4-2.9l1.4-1c.3-.3 1.5-3.3 1.5-3.3l.1-1.6 4.1-4 2.8-2.9 1.2-3.3 -.2-.7s1 1 .9 3c-.2 2.2-.7 2.9-.7 2.9s2.8-2 4.3-2.6c1.2-.5 2-.5 2.4-.5 .4-.2 1.5-.9 2.1-1.8 .8-1.2 1-1.5 1-2l.2-2.8 -.3-7 2.4-5.4 3.5-3.1 .7-.4 -.4 1.2v1.5s1.8-2.5 2.7-2.9l.5-.3v0c.36-.63.63-1.3.8-2l.3-3v-3l-.5-2.3 -1.7-4.3v-5.8l-1.2-1.6s1.1 0 2.5 2l0 0c.96 1.52 1.6 3.22 1.9 5l3.3-10.3s.9 1.2 1.5 3.3l.8 3.3 1.4-2.8 .1 1c.2 1 2.3 2.1 2 6Zm-67.3 65s-.7-1.6-3.9-3.2c-3.1-1.5-5.5-1.8-5.5-1.8v1.1l5 2.2 2.4 2 2-.3Z"/><path fill="#717732" d="M355.4 295.6c.3-.4 3-2.8 4.4-3.5 1.4-.7 3.2-.8 3.2-.8 1.9-.4 2.2-.1 6.6-2.5 4.3-2.4 5.3-5.2 6.2-5.9 .8-.7 2.3-.8 2.3-.8l-3.4 3.9v0c-1.74 1.74-3.69 3.25-5.8 4.5v0c-2.37 1.15-4.97 1.77-7.6 1.8v0c-1.51.25-2.9.95-4 2 -1.3 1-2 2.2-2 2.2s-.2-.5 0-.9Zm12-12.7c-4 3.7-5.3 7.2-5.3 7.2l5.4-4.9c1.9-1.8 4.5-2.6 5.6-3.7 1.2-1.1 1.3-2 2-2.7l1.3-1s-1.8-1.4-9 5.1Zm-8.5 8.6s1.7-.8 2.4-2.3c.5-1.2.2-1.5 1-2.8 0 0 4.2-4 5.7-5.8 2.6-3.1 1.4-5.7 1.4-5.7s.3 1.3-.8 2.7c-1 1.4-6.5 5-7.2 7.2 -.6 2.2-.3 2.3-.6 3.4 -.6 2.6-1.9 3.3-1.9 3.3Zm-2.8 10.5s-2.1-1.4-4.5-1.3c-4.9.4-9 3.4-12.2 3.4 -3.1.1-4.4-1.5-6.9-3.2 -2.6-1.8-9.2-1.5-9.2-1.5v.3s4.4 0 6.4.6c3.6 1 5.6 4.8 9.7 4.6 5.5-.3 9.9-3.6 12-3.6 3.8 0 4.7.7 4.7.7Zm-24-2.4s3.7.6 6.6-1.5c3-2.1 6.4-5 8.3-5.2 2 0 4 .4 4 .4s-2.5-1-4.4-1c-2 0-4 .2-5.8 1.3 -1.8 1.1-2.7 3-4.6 4.3v0c-1.26.8-2.65 1.37-4.1 1.7Zm-.7 5c-.5 0-1.1.3-1.3.3 -.2 0-1.3-1.2-3-2 -1.6-1-4-1.4-4-1.4s-.3 0 .3.2l3.8 1.5v0c.99.52 1.87 1.23 2.6 2.1 .1.3.6.9 1.5.8 1 0 1.3-.5 1.2-1 0-.3-.6-.5-1.1-.5Zm2.6-3.6s1.5.8 4 .8c5.2-.2 8.6-3.8 12-5 3.4-1.4 5.2-.3 5.2-.3s.1-.2 0-.2v0c-1.16-.78-2.51-1.2-3.9-1.2 -5.7 0-11.2 3.7-13.5 4.7 -2.3 1-3.8 1.2-3.8 1.2Zm56-39.9c-1.8 1.9-4.5 7.7-5.6 9.3 -1.2 1.6-2.7 2-3.3 2.7 -.6.6-2.7 3.5-3.2 4.1 -.5.7-.6.5-1 .8 -.3.3-.5.3.1.2 .6-.1.8-.5 1.6-1.5 1-1 .9-1.4 2.3-2.7 1.4-1.2 3.9-2.6 5.1-4.2 1.3-1.5 3.8-7.5 5.2-9 1.4-1.5 4-2.4 4-2.4s-2-.6-5.3 2.7Zm-9 11.1s-.1-1 1.2-2.6 1.7-1.3 2.8-3.6c1-2.3 1.5-4.5 2.3-6.9 .9-2.4 2.3-4.8 2.3-4.8s-1.3.2-2.7 2v0c-2.02 2.65-3.63 5.58-4.8 8.7 -1.1 3.4-1.1 7.2-1.1 7.2Zm-1.7 2.2s.5-.2.5-3.2c.1-2.9-.1-7 .7-9 .9-2 5.4-7 5.4-7s-1.9.5-4.5 2.5 -3.7 4.7-3.6 6.7c.2 2 1.3 4.2 1.4 6.1l.1 4Zm10.5-20.1s1.1-4 1.6-5 .5-1.5 2.7-4c1.3-1.5 2.6-2.4 3.1-4.4 .6-2 .6-7.7.6-7.7s-.6.5-1.1 1.5c-.5 1-.1 4.7-1 6.4 -.8 1.7-2.7 5.6-3.7 6.5 0 0-.2-2.9.2-5.7 .3-3 1.3-3.8 1.7-5.7 .4-1.9.2-6.7.2-6.7s-1.5 1.5-2.3 3.4c-.8 1.8-1.2 5-1.2 7.5s.5 4.5.6 5.9c.1 1.4.2 2-.4 3.6l-.6 2v0c-.2.87-.44 1.74-.7 2.6l.3-.2Zm-3.5-21.6s1.4 1.7 1.2 3.6c-.3 2-1 4.5-.2 6.5 .7 2 1.9 2.2 2.2 3.4 .3 1.2.3 3.4.3 3.4s.6-4.3.2-5.5c-.5-1.1-.7-.6-1.3-1.8 -.6-1.2 0-4.7-.4-6.7 -.5-2-2-2.9-2-2.9Z"/><g fill="#9CA168"><path d="M306.7 304.8s.4-1 3.1-2.4v0c2.3-1.28 4.75-2.29 7.3-3 .3.3-.3 1.8-.3 1.8l-2.6.8 -2.1 1.2 -2.5 1.6h-2.9Z"/><path d="M313.6 297.7c-3.4.1-5.3 1-6 1 -.2.1-.7.5-1.2.3v0c-.61-.39-1.12-.9-1.5-1.5l-.7-.7 -.2 2.5 -5-4.4 -.6 3 -.7 1.3 -5-4.8 .2 3.7 -1.4.1 -3.6-2.5 -1 .4 1.2 2.2 -4.6.3 -1 .8v0c-.37.29-.71.63-1 1v.4h1.9c.4-.2.6-.7.7-.5 .2.2.3 1.2.9 1.1 .6 0 2.7-1.7 4.2-1 1.7.8-2.2 2-1.8 3.1 .4 1.2 3.2.7 4 .3 .6-.3 2.7-3 3.6-2 1.2 1.4-2.5 2.5-1.8 3.9 .6 1.3 2.7 1 3.7.4 1-.5 3.4-4.1 3.9-3.4 .9 1.4-2 2.7-1.3 3.7 .8 1 2.3 0 3.4-.8s1.5-2.5 3-3.3c1.4-.8 1.3-.5 1.7-.5 .4 0 1.5-1.1 1.5-1.1l3.5-1.5 1.6.2 .9.4 1.7.2 .2-1.4s-2-1-3.3-1Zm-27.4 0l.7-1.3 -.4-.6s-1.2-.7-2.3-1.8v0c-.57-.66-1.24-1.2-2-1.6L280 291l-.8-2.8 -.5-.9 -1.3.6 -1.7-6.1 -.3-1.1h-.7l-1.5 3.6 -1.5-2.3 -.4-5 -1 1 -1.3 1.4 -2.3-4.6s-.1-.1-.3.3c0 .3-.3 1.8-.1 2.6v0c-2.26-1.42-4.28-3.18-6-5.2l-1-2.5 1-2 .5-2.6 -2.2.9 -.4-5.7 -.3-1.8 -2.7 3.8 -1-1.7v-3.6l-.7-.2 -1 2s-1.1-2-1.6-2.5c.1-.8.2-2.9-.3-4.5 -.6-2-1.3-3.1-1-4.8 .2-1.6.9-1.8.8-2.5 0-.8-1.2.5-.8-.5 .4-1 3.8-3.2 3.1-4.4 -.7-1.1-4 1.9-3.3-.1 .8-2 4-2 4.2-4.9 .1-1.7-3 1.1-3.3.2 -.3-.8 2-2.6 1.9-3.8 0-1 .4-1.2-.2-1.8 -.6-.6-2.6 2.3-2.6 2.3l-2-.7 -.8 3 -.6 2.5 -2.6-1.5 .7 3.1 .6 3 -2.7-.7 1.4 2.6 1.9 2 1.1 1.5 .9.4 1 1.1 .5 1.7 .6 1.9 .1 1.8v2.4l-.1.4v1.1c-.5 0-1.4-.8-1.7-.3 -.3.6 1.6 2 1.2 2.4 -.3.4-3-.5-3.2.3 -.2 1 .2 2.2 1.8 2.6 1.6.4 5.3 1.2 4.7 2 -.6.7-4.7-2.3-4.5-.1v0c.08 1.56 1.11 2.9 2.6 3.4 1 .4 5.1 0 4.9 1 -.3.9-3.3-.4-3.6 1 -.3 1.4 2.1 1.6 2.6 1.6s2.2-.1 2.9.4l4.3 4.1v0c1.48 1.19 3.02 2.32 4.6 3.4 -.8 0-2.4-.3-2.6.3 -.3.7 6 3 4.2 3.8 -1.8.7-3.8-2-4.3-.4 -.6 1.7 1.2 3 2.2 3.6 1 .6 6.7.1 5.6 1.4 -1.1 1.3-5.3-.8-5.3.7s2.7 4 4.2 3.9c1.4 0 3-2.4 3.6-1.1 .7 1.2-1 1.7.3 2 1.4.4 2.3-1.4 4-1 1.5.3 4 1.3 5.4 2.5v0c.99.9 1.95 1.84 2.9 2.8Z"/></g><path fill="#717732" d="M308.4 304.1c1 0 1 .6 1.2.6 .1 0 1.8-1.5 3.3-2.3h0c1.27-.63 2.61-1.1 4-1.4l.1.2s-2.8.7-4.2 1.7l-3 2.1c-.2.2-.8.7-1.7.7 -1 0-1.4-.6-1.4-.9 0-.2.7-.7 1.7-.7Zm8.5-4.3s-.9.1-1.3-.3v0c-.76-.55-1.67-.83-2.6-.8v0c-1.5.15-2.9.78-4 1.8 0 .1-.3.6-1.4 1.3 .4.1 1.1-.4 2-1v0c1.05-.78 2.29-1.27 3.6-1.4 1-.2 1.7.4 2.2.7 .5.4 1.4.3 1.4.3v-.6Zm-50.5-20.6v-.7 0c-.77-.32-1.5-.68-2.2-1.1 -1.6-1-5-3.8-5-3.8l2.8 2.7c1.4 1.3 4 2.9 4 2.9h.4Zm35.6 25.2l1.5-2.1c.9-1.5 1.7-2 1.9-2.2 .1-.2-.4-.9-.7-1.4l-.2-1.2s.4.8 1 1.3v0c.39.3.76.63 1.1 1 0 0 1.4-.2 1.4-.5 0-.2 0-.4-.2-.5 -.3-.1-.5.2-1.1 0 -1.3-.6-1.8-2.6-2.6-2.6 -.8-.1-.2 2-.6 2 -1.1.2-2-4.3-5-4.5 -2 0-2.3.3-2.4.7 0 .5 2.5 3.1 1.6 3.5 -.8.4-3.5-4.2-5.5-4.2 -1.9 0-2 .7-2 1.1 .2.4 2.2.8 1.8 2.2 -.5 1.4-2.5-2-4.3-1.9 -1.8.2-2 .3-2 .9 -.1.5.6 1.2.3 1.4 -.2.2-1.4.1-2.3.7 -.9.7-2.1 2.4-2.1 2.4s1.2-1.7 2.7-1.9v0c1.86-.11 3.73-.11 5.6 0l-1.1-.8c-.6-.5-1.1-1.6-1.1-1.6l1.7 1.5c.8.7 1.9 1.2 1.9 1.2s1.7.2 1.8.4c.1.2 0 .6-.8 1.3l-1.7 1.7 2-1.6 1.5-1.2 1.4.2c.1 0 0-.5-.8-1.7l-1.6-2.5s1 .9 2 2.3c1.1 1.3 1 2 1.4 2 .4 0 1 .2 1.4.1 .4 0 .3.6-.4 1.7s-1.2 2.5-1.2 2.5 .8-1.2 1.6-2c.7-.8 1.1-1.7 1.5-1.8h1.5l-.8-1.6c-.6-1-.8-2.6-.8-2.6s.6 1.4 1.4 2.5l1.3 1.9 1.4-.1 .3.1c0 .5-.2.7-.7 1.8v0c-.38.67-.72 1.37-1 2.1ZM280.5 292c1.2.5 1.7.5 1.7.5s-1.7-1-2.1-2.4c-.5-1.4 0-4.4-.8-4.3 -.7 0-1.1 2.1-1.8 1.7 -.8-.4.2-4.4-.6-6 -.8-1.7-2.6-2.9-3-2.3 -.4.6-.3 4.2-1.5 3.5 -1.1-.8.1-4-.2-5.3 -.4-1.5-1.2-2.5-1.9-2.1 -.6.3.3 3-.7 3s-.9-1.9-1.3-2c-.5-.2-.6.3-.9 0 -.2-.4 0-1.7-.6-1.6 -.6.1-.5 1.2-.3 1.7 .1.6.5 1.4.7 1.8 .2.4 1 .9 1 1.2 -.1.3-.5.6-1 .6h-1.9s1.4.4 1.9.4 1.4-.2 1.7.2c.2.5 1.4 2 1.4 2s.3-.8.4-2.2c.2-1.5 0-2.7 0-2.7s.5 1.6.4 2.7c0 1-.4 3-.4 3s1.1.8.8 1c-.3.3-1.5.3-2.8.3 -1.4 0-3.3-.5-3.3-.5l0-.001c2.08.99 4.39 1.43 6.7 1.3l1.8 2s.9-1.5 1-3v-3l.4 2.8c0 1.3-.4 3.6-.6 3.8v0c-.56.46-1.21.8-1.9 1l-3.5.5s2.2.3 3.8 0c1.5-.4 1.7-.9 2.2-.6l.8.7 1.3 1c.1.1-.7.4-1 .7l-1.5.7 2.2-.7v0c.37-.13.73-.26 1.1-.4l.5.2 -.1-1.2 -.3-1.8s.5.8.7 1.6l.1 1.6s.2.2 1.4.6Zm-31.1-35.6s.3-1.7.3-3.6l-.001 0c-.21-2.05-.86-4.03-1.9-5.8l1-1.4 -1.2 1 -1.2-.5h0c-.38-.27-.68-.61-.9-1l1.2.8c.6.2.7.1.7.1l-.5-2 -1.9-1c-1.3-.6-2.5-1.8-2.5-1.8l2.8 1.5c1 .4 1.6.4 1.6.4l1.6-.6 1.7-1.1s-1 .6-1.8.7l-1.6.3 -.3-2.4 -1.1-1.1c-.9-1.2-1.6-2.9-1.6-2.9s1 1.2 1.7 1.7c.7.6 1.4 1.5 1.4 1.5l1.6-1 2.8-2 -2.7 1.3 -1.6.7s-.2-1 0-1.5c.3-.4.8-1.2.7-1.6 0-.5-.4-.3-.5-.7 -.2-.3.4-2.6.4-2.6l.1 1.2c0 .5-.2 1 .4 1 .6 0 3.2-2.7 3.6-3.2 .3-.5.8-1.8-.6-1.3 -1.4.6-1 1.8-2.2 1.7 -.4 0-.8-1.5-1.2-1.2 -.4.4-1.4 1.3-1.6 2.4 -.2 1 .2 2.6-.4 3.1 -.6.5-1-1.8-2.2-1.5 -1.2.3-1.5 2-1.3 2.6 .2.6 2.7 3.5 2 4 -.9.3-2.9-2.6-4-.6 -1 1.9 3.4 4 4 4.4 .5.5 0 .6.8 1.6s1.8 1.2 2.4 1.8v0c1.17 1.76 1.89 3.79 2.1 5.9l-.1 2.7Zm11.7 17.1s-1-1.2-.7-3.3c.3-2 1.8-5.7 1.3-6.2s-2 2.2-2.4 1.6c-.4-.6.9-4.3.2-5.8 -.6-1.5-.7-2.5-2-2.3 -1.3.1-1.8 4.4-2.5 3.6 -.6-.7.4-2.6 0-3.7 -.5-1-.7-1.3-1.3-1.2 -.7.2-1 2.2-1.4 2.1 -.5 0-1.2-2.3-2.2-2 -.9.3 2.3 4.5 2.3 4.5s.5-.5.8-1.2l.6-1.5s.3 1.3 0 1.9c-.2.5-.3 1.7-.3 1.7s-.8.3-2.1 0v-.001c-.8-.13-1.57-.37-2.3-.7 0 0 .8.6 2.1 1l2.7.7h0c.63.92 1.29 1.82 2 2.7l.8-2.1 1.3-3.5 -.6 3.9 -.7 3s-1 0-2.6-.3l-3.6-.8 3.6 1.2 2.8.7 1.4 1.9 1-1.5 1-1.8s-.3 1.4-.7 2.3v0c-.22.47-.46.94-.7 1.4l-1.8.2h-2.5v0c1.45.47 2.96.77 4.5.9 0 0 0 .5.7 1.3v0c.34.51.78.95 1.3 1.3Z"/><path fill="#FFF" d="M314.4 310.8s-.6-.6-1.4-1c-.9-.5-1.2-.4-1.2-.4l-.4-.1 .8-2 5.5-5.3 .9-5.3h3.4v7.2l1 .5 6.2 3.7v1.6l-1 .4 -.7.4 -2.3.2 -4-3 -1.8-1.7 -3 4 -2 .8Z"/><path fill="#016848" d="M318.8 296.7l-.1 1c0 .9 0 5.2-.2 5.8 -.2.6-3.2 1.8-4.9 3.3 -1.7 1.5-1.8 2.6-1.8 2.6s-.5 0-1.6.4c-1 .4-1.5 1-1.5 1s.6-2.6 3.4-5c2.7-2.6 4-2.8 4.4-3.2 .3-.4 0-5 0-5.5 .1-.4.5-.4.7-.4h1.6Zm7 15.7l.8-1.1 1-.8 -1.5-.8c-1.5-.6-2.3-.4-3.3-1.2v0c-.81-.59-1.55-1.26-2.2-2l-1.5 1.2 1.7 2c.9.8 2.7 1.1 3.5 1.6v0c.57.3 1.1.67 1.6 1.1Z"/><g fill="#CD202A"><path d="M321.5 296.6s1.7 0 1.9.2l.2.6c0 .1 0 4-.2 5.3v0c-.26 1.08-.73 2.1-1.4 3l-4 3.7c-1.2 1.2-2.4 2.8-2.4 2.8l-.8-1c-.3-.4-.7-.6-.6-.9v-.001c.81-1.39 1.94-2.55 3.3-3.4 2-1.3 3.6-2.8 4-4.9 .3-2 0-5.4 0-5.4Z"/><path d="M332.5 310s-.4-.4-1.8-.4l-1.5.1s-.8-1-2-1.7c-1.2-.8-2.1-.7-3.5-1.6 -1.3-.8-2-2.1-2-2.1l1-2s1.2 1.5 2.4 2.4c1.1.9 3.7 1.7 4.6 2.4l2.8 2.9Z"/></g><g stroke-width=".5" fill="#30C2DC" stroke="#0872A7"><path d="M345 286.4s-3.6-1.4-3.4-2.7c.3-1.2 8.3-3.3 8.3-3.3l.1-2.1s-1.2-.1-3.2.5c-2 .7-5.2 1.6-8.6 1.6l-.001-.001c-11.46-.85-22.93-1.59-34.4-2.2 -3.7-.3-6-6-6-6l-1.8.4s.5 2.7-.4 3h0c-4.86-1.46-9.52-3.47-13.9-6l-.6 2.6s7.3 4 7.1 5.5c-.2 1.4-2.4 1.3-2.4 1.3l1 1.8c.3 0 12 .6 12.3 4.1 0 1.5-3 2.3-3 2.3l1 1.2v.6s6.7 0 8.5 1c1.8 1 2.7 2.6 5 3.8 2.2 1.3 17.3 1 19.6.3 2.7-.7 4.3-3.7 8.7-5 4.3-1.4 5.7-1.4 5.7-1.4Z"/><g fill="#FFF" stroke-width="1"><path d="M284.5 278.6a2.1 2.1 0 1 0 0 4.2 2.1 2.1 0 1 0 0-4.2Z"/><path d="M296.4 268.8a2.1 2.1 0 1 0 0 4.2 2.1 2.1 0 1 0 0-4.2Z"/><path d="M346.5 284.5a2.1 2.1 0 1 0 0 4.2 2.1 2.1 0 1 0 0-4.2Z"/></g></g><path fill="#F8C83C" d="M275.1 267.8c-.7 1.6 2 4.6 4 5 1.8.2 2.8-.2 3.2-1.1v0c.27-.85.12-1.78-.4-2.5 -1.2-1.7-6-3-6.8-1.4Z"/><path fill="#FFF" d="M281 270.2c0-1-1.6-1.9-2.6-1.9s-2 0-1.8.5c.1.6 2.7 1.3 2.8 1.6 0 .3-.8.6-.4 1 .5.4 1 .1 1.4-.2 .4-.3.7-.4.7-1Z"/><path fill="#F8C83C" d="M297.7 288.3c.4 1.4-.7 2-2 2.7 -1.5.6-4.3.2-5-.9 -.6-1.1 1-3 2.8-3.4 1.7-.4 3.8.3 4.2 1.6Z"/><path fill="#FFF" d="M294.8 289c.5 0 .6 1 1 .8 .5 0 1-.8.8-1.3 -.1-.6-1-1.3-1.8-1.2 -.8 0-3 2-2.8 2.5 .2.5.8.5 1.2.3 .4-.2 1-1 1.6-1Z"/><path fill="#F8C83C" d="M349.2 281c1.3 1.7 3.6.2 4.2-.5 .6-.6 2.4-1.7 1.7-2.8 -.8-1.1-2-1-3-1 -.8 0-2.6 1.4-2.9 2 -.3.5-.6 1.6 0 2.4Z"/><path fill="#FFF" d="M349.6 280s.1-1.9 1.8-2c1 0 1 .3 1.8.7 .7.4 1-.5 1-.5s0 1.3-1.1 1.3c-1.2 0-.8-.5-2-.7 -1-.2-1.5 1.1-1.5 1.1Z"/><g stroke-linecap="round" stroke-width=".5" stroke="#953220" fill="#F9AA51" stroke-linejoin="round"><path d="M321.9 276.4l-.9-.6h-2.8l-3.4.1 3.4 9.9 4 5.8 1.6.6 3.1-.2 .6-1.6 -1.2-9.5 -4.4-4.5Z"/><path d="M310.6 277l.2-1.1 1.8-.1v0c.73-.08 1.47-.05 2.2.1 0 0 2.3 2.9 3.1 4.7 .8 1.8 1.7 4.8 2.7 6.6 1 1.9 3.2 5 3.2 5h-4l-2-.6 -5.6-9 -1.6-5.6Z"/><path d="M308.2 275.8h2.6v0c1.71 1.46 3.05 3.31 3.9 5.4 1 2.8.5 3.2 1.8 6.2 1.4 2.9 3.2 4.9 3.2 4.9s-3.9.2-6-.2c-2.3-.4-3-.3-3.6-1h-.001c-.52-.5-1.09-.94-1.7-1.3h-2.2l.5-3.1 -.6-6.9 .1-3.5 2-.5Zm23.4 1.8l-3.7-1.5 -7-.4 .6 3.6v0c.51 2.67 1.39 5.26 2.6 7.7 1.1 2 2.2 4.4 2.8 5 .6.5 4.6-1.1 4.6-1.1l2.6-.4 -.3-2.8 -.4-1 .6-8 -.6-1.2 -1.8.1Z"/><path d="M307.1 277.7c0 .8 1 .9 1.2.8 .2 0 1-.3 1-1.5s-.7-2.1-2.2-2.2c-1.4 0-2.5 1.7-2.5 3 0 1.2 1.2 1.8 1.2 2.3 0 0-1.2 1.1-1.1 3.1 0 2 1.6 3.6 1.6 3.6s-1.7 1.3-1.7 2.7c0 1.4 1.3 2.3 2.6 2.3 1.2 0 2.8-.8 2.8-1.8s-1-1.7-1.7-1.7c-.8 0-1.1.5-1.1.8m25.6-10.9c0 .9-.6 1-1 1s-1.2-.4-1.2-1.5c0-1 1.4-1.6 2.4-1.6 .9 0 2.4 1.2 2.4 2.7 0 1.5-1 2.6-1 2.6s.6.3.6 2.2c0 2-1.2 3.3-1.2 3.3s1.6.6 1.6 2.6 -1.4 2.6-2.3 2.6c-1 0-2.6-.5-2.6-1.9 0-1.3.8-1.8 1.5-1.8 .6 0 1.3.7 1.3 1.5"/></g><path fill="#953220" d="M309.5 288.6l.4.6c.2.4.3 1 .8 1.4 .8.7 7.2 1 9.2 1 2 0 7.8.2 8.9-.4 1-.7 1.2-1.8 1.9-2.3l.9-.4 -.9.7v1.4l.5.8s-.1.4-.8.8c-.7.4-1.3.5-2.3.6 -1 .1-13.2.1-15.2-.2 -2-.4-1.8-.3-2.4-.7v0c-.39-.28-.73-.62-1-1l.3-.8 -.3-1.4Zm20-11.8l1 .5s-.9.3-1.6 2.3c-.7 2-.1 2.5-.6 2.7 -.5.2-5.8 0-5.8 0l-1-2.1 8-3.3Z"/><g fill="#231F20"><path d="M346.4 276s-.9-.3-1.3-1c-.4-.8-.8-1.7-.5-2 .4-.1 1 .5 1 1.1 0 .6.8 2 .8 2Zm10.4-2.8s.7 1.2 1 1.3l1.2.6s-1.5 0-2-.4v0c-.39-.47-.73-.97-1-1.5h.8Z"/><path d="M360 274.2s-1 .5-1.6.2c-.8-.3-1.4-.7-1-1 .2-.4.4-.3.8.2 .4.4 1.8.6 1.8.6Zm5.3-4.5s-.8.6-1.3.6 -1.5-.2-1.5-.4 1.3-.4 1.6-.3h1.2Zm-8-10.5s-1.1.4-1.5 1c-.4.5-.3 1.2.2 1.2s.6-.7.6-1l.7-1.2Zm-5.2 2.9s-.9.5-1 1c-.3.5-.5 1.6 0 1.6s.7-.8.7-1.2c0-.5.3-1.4.3-1.4Z"/></g><path fill="#8CBEBF" stroke="#04534E" stroke-width=".5" d="M342.8 268.4l-2.9 3s6.6 3.7 11.7 3.5c5-.1 10.8-4 11.2-5 .4-.7 0-4.3-.6-5.4 -.7-1.1-4.2-3.8-5.5-3.7 -1.3.1-3.7 1.9-5.8 4 -2.2 2.1-2 3.9-5 3.7l-3.1-.1Z"/><path fill="#0C8489" d="M342 269.6s7 1 9.1-.8c2-1.8 4.3-5.3 5.7-6 1.4-.9 2-.9 2-.9l1.6 1.1 1.8 1.5 .6 3.4v1.8l-2.2 1.8 -4 1.9 -4 1.2 -3.2-.1 -6.7-2 -1.7-1.1 -.4-.4 1.4-1.4Z"/><path fill="#04534E" d="M352.8 265.5c0-.6.4-.6 1-.6s1 .2 1 .8c0 .6-.5 1.4-1 1.4 -.6 0-1-1-1-1.6Zm2.8 1.8c0-.6.4-.8 1-.8 .7 0 1.3.7 1.3 1.2s-.5 1-1.1 1c-.7 0-1.2-.9-1.2-1.4Zm-1 4.2c0-.7.5-.8 1.1-.8 .6 0 1 .3 1 1v0c0 .62-.48 1.14-1.1 1.2 -.7 0-1-.7-1-1.4Zm-3.7-1.3c0-.7.7-1 1.3-1 .6 0 1 .7 1 1.4s-.4 1.3-1 1.3 -1.3-1-1.3-1.7Zm-5.9.7v0c0-.83.67-1.5 1.5-1.5 .82 0 1.5.67 1.5 1.5v0c0 .82-.68 1.5-1.5 1.5 -.83 0-1.5-.68-1.5-1.5Z"/><path fill="#8CBEBF" d="M355.6 267.3c0-.5.7-.8 1-.8 .5 0 .8.4.8.8s-.3 1-.7 1c-.4 0-1-.5-1-1Zm-1 4c0-.5.6-.8 1.2-.8s1 .3 1 .8 -.5 1-1 1c-.6 0-1.1-.4-1.1-1Zm-3.7-1.2c0-.6 1-.9 1.5-.9 .4 0 .3.4.3 1 0 .7-.3 1.2-.7 1.2 -.4 0-1-.7-1-1.3Zm1.8-4.7c0-.5.4-.5.8-.5s.6.1.6.7 -.3 1-.6 1c-.4 0-.8-.6-.8-1.2Zm-7.7 5.1c0-.6.6-1.3 1.4-1.3 .8 0 1.7.3 1.7 1 0 .6-1 1.8-1.8 1.8 -.9 0-1.3-.8-1.3-1.5Z"/><g fill="#231F20"><path d="M347.7 269.4s-1 .1-1.5.6 -.5 1-.3 1.2c.3.2.7-.3.8-.6 0-.2 1-1.2 1-1.2Zm4.7-1s-1 .6-1 1.3c-.1.6 0 1 .2 1 .3 0 .5-.9.4-1.2 -.1-.3.4-1.2.4-1.2Z"/><path d="M353.2 269.3s-.6 0-1 .4c-.5.5-.9 1-.6 1 .3 0 .8-.2.8-.5 0-.2.8-.9.8-.9Zm1-5.4l-.8.6c-.2.2-.5 1-.2 1 .3.2.5 0 .8-.5 .2-.5.2-1.1.2-1.1Zm3.5 2.3s-.9 0-1.2.5c-.3.4-.5.8 0 .8 .3 0 .4-.2.6-.5 .1-.4.6-.8.6-.8Zm-.5 4.1s-.2.7-.8 1c-.5.3-.7.5-1 .1 -.1-.4.2-.6.4-.7l1.4-.4Z"/></g><path fill="#04534E" d="M362.8 267.5s.4 2-1.3 3c-1.7.9-6.4 4.2-10.9 3.8 -4.5-.4-9.6-3-9.6-3l-.7.4 1.2.5 3.4 1.4 4 1.2 2.5.1 2.1-.2 4-1.3 3.3-1.7 1.8-1.4 .4-.6v-1.9l-.2-.3Z"/><path fill="#231F20" d="M274.9 242.2s1 .9 1 1.6c-.2.8-.4 1.1-.7 1 -.3-.2-.3-1-.3-1.3v-1.3Zm7.7 7.1s-.3 1.4-.9 1.5c-.5.1-.9-.4-.8-.7 .1-.2.6 0 .8-.2l.9-.6Zm-16.8 1s.4.8 1 1c.8 0 1-.4 1-.6 -.1-.2-.4-.2-.8-.2l-1.2-.1Zm3 6s.7.6 1.5.7v0c.53.05 1.05-.22 1.3-.7 0-.2-1-.2-1.3 0 -.3.3-1.5 0-1.5 0Zm5.3 4.4s1.4-.2 1.6-.6c.2-.4.6-1 .3-1.3 -.3-.4-.5.5-.7.9 -.1.3-1.2 1-1.2 1Z"/><path fill="#8CBEBF" stroke="#04534E" stroke-width=".5" d="M282.6 257.1s1-6-4-10.4c-5-4.3-8.1-3.2-9.8-1.6 -1.7 1.6-3.2 6.7 2 11.3 5.3 4.5 11.7 3 11.7 3l.1-2.3Z"/><path fill="#0C8489" d="M267.6 250.7s-.1-3.4 1.5-4.4c1.5-1 6.8-1.8 9.3 3.1 2.6 5 2.7 7.4 2 10h-2.7l-4.3-1.8 -3.5-2.6 -2.3-4.3Z"/><g fill="#04534E"><path d="M282 258s-.9 1-2.7 1c-1.7-.2-10-2.3-12-9.8v1.7l.1.5 .6 1.5 1.7 2.5 2.2 1.9 2.8 1.4 2 .6 2.5.4h1.5l1.3-1.7Z"/><path d="M277.7 255.9c0-.7.3-.7.8-.7s1-.2 1 .4c0 .7-.4 1.6-1 1.6 -.4 0-.8-.7-.8-1.3Zm.3-4c0-.4.4-.8 1-.8 .5 0 .9.4.9.9 0 .4-.4.8-1 .8 -.5 0-.9-.4-.9-.8Zm-3.7 4.4c0-.4.4-.7 1-.7s1 .3 1 .7c0 .3-1 .8-1.5.8 -.6 0-.5-.5-.5-.8Zm-.4-4.6c0-.6.3-.4.8-.4s1.2.1 1.2.7 -.7 1.4-1.2 1.4 -.8-1.2-.8-1.7Zm-3.4.7c0-.5.3-1.1.9-1.1 .6 0 1.3.6 1.3 1.1 0 .5-.5 1-1.1 1 -.6 0-1.1-.5-1.1-1Zm.6-4c0-.6.3-.5 1-.5 .6 0 1.1.2 1.1.7 0 .5-.7 1.2-1.4 1.2 -.6 0-.7-1-.7-1.5Zm3.7-.5c0-.4.5-.3 1-.3 .7 0 1.1.4 1.1 1s-.7 1-1.3 1c-.6 0-.8-1.2-.8-1.6Z"/></g><path fill="#8CBEBF" d="M271 248.3c.2-.4.4-.7.8-.7 .5 0 .9.1.9.7 0 .4-.4.9-.8.9 -.5 0-1-.5-.8-1Zm-.6 4c0-.5.2-1 .7-1 .5 0 1 0 1 .5s-.5 1.1-1 1.1 -.7-.1-.7-.6Zm4.4-4.3c0-.4.3-.4.8-.4s.8 0 .8.5c0 .4-.4.7-.8.7s-.8-.4-.8-.8Zm-.9 3.9c0 .5.5 1 1 1s1-.5 1-1c0-.6-.6-1-1-1s-1 .4-1 1Zm4.3-.6c0 .5.4.9 1 .9 .5 0 .9-.4.9-.9s-.5-.9-1-.9 -1 .4-1 1Zm-4.1 5c0-.5.5-.9.9-.9s.9.3.9.7c0 .4-.8 1-1.2 1 -.5 0-.6-.4-.6-.9Zm3.6-.7c0-.5.4-.6 1-.6 .5 0 .8.1.8.6 0 .6-.5 1-1 1s-.8-.5-.8-1Z"/><g fill="#231F20"><path d="M278.7 249.4s.5.7.6 1.3v1.2c-.3 0-.6-.4-.7-.9 -.1-.5 0-1.6 0-1.6Zm-3.2-3.3s.4.5.4 1 0 1-.3 1 -.3-.4-.3-.8l.2-1.2Zm-3.7.5s.4.5.4 1 0 1-.3 1 -.3-.4-.3-.8l.2-1.2Z"/><path d="M270.5 247.3l1 .4c.3.4.5.8.3 1 -.1.2-.5-.1-.6-.4l-.7-1Zm2.8 3.8s.7 0 1.1.5c.4.3.8.6.5.9 -.2.2-.7-.2-1-.5l-.6-.9Zm-3.4 0l1 .3c.3.2.4.7.2.8 -.1.1-.4 0-.6-.4l-.6-.8Zm8.3 2.5l.2 1.4c0 .5.1 1-.2 1 -.3 0-.3-.7-.3-1 0-.5.3-1.4.3-1.4Z"/><path d="M277.3 254.9l.8.5c.3.2.3.6.1.6l-.4-.5v0c-.18-.2-.35-.4-.5-.6Zm-3.7.2l.9.3c.2.2.3 1 .2 1.1 0 .1-.4 0-.6-.3l-.5-1Z"/></g><path fill="#04534E" d="M272.1 243.8s-3.2.7-3.8 2.9c-.6 2-.7 4.4-.7 4.4l-.4-2.7 .6-1.7 1-1.6 1.4-1 1.3-.4 .6.1Zm10.2 12.5s.4-.8-.6-3.4c-1-2.5-3-6-3-6l1.6 1.8 1.2 2 .6 1.8 .5 1.7v1.6l-.3.6Z"/><path fill="#231F20" d="M285.6 252.2s1.2.7 1.3 1.1c.1.4.2.6-.1.7 -.3.1-.8-.4-1-.7l0 0c-.1-.37-.17-.73-.2-1.1Zm-4.8 12.8s.6-1 1.3-1.3c.7-.4 1.2-.4 1.4-.1 .2.2-.4.7-1 .9l-1.7.6Zm8.1 3.1s.8-.4 1.3-1c.5-.5.6-.9.4-1 -.2-.3-.8 0-1.1.5 -.3.4-.6 1.5-.6 1.5Zm-.9-.7s.3-1 .6-1.4c.3-.3.6-.5 1-.3 .2.2 0 .6-.2.9h-.001c-.44.31-.91.58-1.4.8Z"/><path fill="#8CBEBF" stroke="#04534E" stroke-width=".5" d="M301.5 261.2s-5-7.2-12.8-7.6v0c-4.08-.34-7.65 2.69-7.99 6.76 -.01.07-.02.15-.02.23 .2 1.6 2.6 5.2 10.9 5.8 8.3.6 9.6-3.9 10-4.1 .3-.2-.1-1-.1-1Z"/><path fill="#0C8489" d="M295.6 256.3s2 1.5 3 2.8c.8 1.2 1 2.2.5 2.3 -.5.2-5-4-8.8-4.9 -3.7-.9-6.9 0-7.6 1.7 -.7 1.7-.4 4.5 1.2 5.6 1.8 1 9.7 2.3 9.7 2.3l3.7-.5 2.3-1.3 .5-1.3 .6-1.6 .2-.7 -1.9-2 -3.4-2.5Z"/><path fill="#04534E" d="M289.2 257.3c0 .4-.5.7-1 .7s-.9-.3-.9-.7c0-.5.4-.9 1-.9s1 .4 1 .9Zm-4.6 1.6c0-.5.6-.4 1-.4 .6 0 1 .3 1 .8s-.8 1.1-1.3.9c-.6-.3-.7-.8-.7-1.3Zm5 2.7c0-.6.4-1 1-1 .7 0 1.2.4 1.2 1s-.8 1.2-1.5 1.2 -.7-.6-.7-1.2Z"/><path fill="#8CBEBF" d="M285.8 262.7c0-.5.6-.6 1-.6 .5 0 1 .5 1 1s-.5.9-1 .9c-.4 0-1-.8-1-1.3Z"/><path fill="#04534E" d="M292.5 264.5c0-.4.2-.8.7-.8 .4 0 1 .3 1 .7 0 .4-.5.9-1 .9h0c-.41-.06-.71-.4-.7-.8Zm3-2.3c0-.5.3-.4.8-.4s1 .2 1 .8c0 .6-.6.8-1.1.8 -.5 0-.7-.6-.7-1.2Z"/><path fill="#8CBEBF" d="M289 256.9c0 .4-.2.6-.7.6 -.5 0-.9-.2-.9-.6 0-.5.2-.6.6-.6 .4 0 1 .1 1 .6Zm-2.5 1.9c0 .5-.7.7-1 .7 -.5 0-.8-.2-.8-.7 0-.5.3-.6.8-.6s1 .1 1 .6Zm1 3.8c0 .4 0 .7-.5.7s-1-.3-1-.7c0-.4 0-.7.5-.7s1.1.3 1.1.7Zm4-1.3c0 .4-.7 1-1.2 1 -.4 0-.6-.9-.6-1.3s.4-.7.8-.7 1 .6 1 1Zm5.8 1.3c0 .4-.7.4-1 .4 -.5 0-.8-.5-.8-1 0-.4.1-.8 1-.7 .5 0 .8.8.8 1.3Zm-3.4 1.7c0 .5-.3.8-.7.8v0c-.45 0-.8-.36-.8-.8 0-.4.4-.6.8-.6s.7.2.7.6Z"/><g fill="#231F20"><path d="M294.4 262s.8-.3 1.5-.3c.6 0 .6.3.6.4 0 .1-.5.3-.7.2v0c-.47-.13-.94-.27-1.4-.4Zm-3.3 2.8s.6-.4 1.1-.5c.5-.1.9 0 .8.4 0 .3-.2.3-.6.3l-1.3-.2Zm-2.2-5s1.4.6 1.7 1.1c.3.6.4.7.1.9 -.3.2-.6-.2-.8-.5l-1-1.5Z"/><path d="M288.5 261.6l1.6-.3c.5 0 .6 0 .7.2 0 .2-.1.3-.5.3l-1.8-.2Zm-3.4 0s1.2.2 1.5.5c.3.3.3.6.1.7 0 .2-.6.1-.8 0l-.8-1.2Z"/><path d="M285 263.3s.4-.7.8-.8c.4-.1 1-.1 1 .1 .1.2-.4.5-.7.6l-1.2.1Zm-1-5.1l1.2.3c.4.3.5.6.4.7 0 .1-.5.2-.8 0 -.5-.4-.7-1-.7-1Zm2.6-3s1.2.4 1.6 1c.4.5.3.8.1.9l-.9-.4c-.3-.3-.8-1.4-.8-1.4Z"/></g><path fill="#04534E" d="M300 263.7s-2.3 2-7.7 1.9c-5.5-.2-10.4-2.5-11.6-5l.5 1.2 1.2 1.6 3.8 2 4.3.9 3.3.2 3.2-.6 2.5-1.1 .4-.7 .2-.4Zm.8-2.5s-.9-1.2-2.2-2.3c-1.2-1.2-6.2-4.4-6.2-4.4l4 1.8 2.7 2.2 1.8 2 -.1.7Z"/><g fill="#231F20"><path d="M301 256.4s1.4.5 1.6.8l.5.6s-.3 1-.6.6l-.8-.9 -.7-1.1Zm4-2.2s1.3.5 1.8 1.1c.5.7.4 1.2.2 1.3 -.2 0-1-.7-1.2-1v-.001c-.23-.48-.46-.94-.7-1.4Z"/><path d="M306.4 254s1.2.8 1.4 1.2c.1.4.5 1 .1 1 -.3.2-.9-.4-1-.8l-.6-1.5Zm6.8 1.5s1 .4 1 1.2v1.3l-.7-.7v-.7l-.3-1Zm1.8.7s.8.7.9 1.2c0 .5.2.8-.3 1 -.4 0-.6-.5-.6-1v-1.2Zm-12.3 15s.6.2 1.2 0c.5-.2 1-.7.9-1 -.1-.4-.4-.7-.8-.2 -.4.4-.2.6-.5.8l-.7.3Zm6.8 1.8s.9-.2 1.5-.9c.6-.6.9-1 .5-1.2 -.4-.2-1 0-1 .5l-1 1.6Zm5.5.1l1.3-.9c.5-.4.7-.7.4-1 -.3-.5-.6-.2-.8 0l-.2.7 -.6 1.2Z"/><path d="M316.7 273.1s.8-.9 1-1.4c.1-.5.2-1-.1-1 -.4 0-.8.5-.8.9v1.5Z"/></g><path fill="#8CBEBF" stroke="#04534E" stroke-width=".5" d="M299.9 264.1c0-2.4 3.5-8 7.5-8 1.6 0 4.9 1 7.5 2.1 2.2 1 3 2 4.4 2.4 1.5.4 3.7.1 3.7.1l5-.5 -4 5.7 -1.4 1.2s-1.2 2.4-4.7 3.8c-3.6 1.4-9.5.4-12.2-.3 -2.7-.7-6-3.2-5.8-6.5Z"/><path fill="#04534E" d="M299.9 264.1h.2c0-.5.2-1.3.6-2.1v0c.64-1.43 1.56-2.72 2.7-3.8 1.1-1 2.5-1.8 3.9-1.8 .8 0 2 .2 3.4.6v0c1.39.36 2.76.83 4.1 1.4 1 .5 1.8 1 2.4 1.5 .7.4 1.3.8 2 1v0c.65.14 1.32.2 2 .2l1.8-.1 4.4-.5 -3.6 5.2 -1.4 1.2v.1 0c-1.08 1.71-2.7 3.01-4.6 3.7 -1.3.4-2.8.6-4.5.6 -2.8 0-5.9-.5-7.6-1v0c-1.43-.36-2.74-1.08-3.8-2.1h0c-1.11-1.04-1.76-2.48-1.8-4h-.5c0 1.7.8 3.2 2 4.4v0c1.11 1.1 2.48 1.89 4 2.3 1.7.4 4.8 1 7.7 1v0c1.59.03 3.18-.21 4.7-.7v0c2.04-.73 3.77-2.15 4.9-4h-.3l.2.1 1.4-1.3 4.3-6.2 -5.6.7h-.1v0c-1.14.09-2.28.06-3.4-.1v0c-.7-.21-1.34-.55-1.9-1 -.6-.4-1.4-1-2.5-1.4v0c-1.36-.61-2.77-1.11-4.2-1.5 -1.3-.4-2.6-.6-3.4-.6h-.1c-1 0-2 .3-3 1l0-.001c-1.35.91-2.47 2.1-3.3 3.5v0c-.76 1.1-1.24 2.37-1.4 3.7h.3Z"/><path fill="#0C8489" d="M324 264.9c-.4.3-1 .3-1.4.3 -.5 0-11.6-6.7-15-6.4 -3.5.3-6.8 1.7-6.9 5.3 0 3.5.8 3.5 1.5 4.5s7.5 2.5 7.5 2.5h4.1l3.3-.4 3-1.6 1.5-1.3 1.1-1.3 1.3-1.6Z"/><path fill="#04534E" d="M306.5 263c0 .8-.3 1.3-1 1.3 -.6 0-1.1-.3-1.1-1s.4-1 1-1c.7 0 1 .1 1 .8Zm1.1-3c0-.6.6-.8 1.2-.8 .7 0 1.2.2 1.2.8 0 .6-.5 1-1.2 1 -.6 0-1.2-.4-1.2-1Zm6.7 1.8c0-.5.4-.9 1-.9 .5 0 .9.4.9 1s-.4.8-1 .8v0c-.52 0-.95-.39-1-.9Zm1.3 4c0-.6.5-1 1-1 .6 0 1.2.2 1.2.8 0 .6-.2 1.3-.8 1.3 -.6 0-1.4-.4-1.4-1Zm-3.2 2.7c0-.6.5-1 1-1 .7 0 1.2.4 1.2 1 0 .5-.5.9-1 .9 -.7 0-1.2-.4-1.2-1Zm-6-1c0-.6.3-1 .9-1v0c.52-.18 1.08.11 1.26.63 .17.52-.12 1.08-.64 1.26 -.21.06-.43.06-.63 0v0c-.56 0-1-.45-1-1Z"/><path fill="#8CBEBF" d="M306.4 263c0 .5-.4 1-1 1v0c-.56 0-1-.45-1-1 0-.6.4-.8 1-.8s1 .2 1 .7Zm3.3-3.2c0 .5-.2.9-.8.9 -.5 0-1.3-.4-1.3-.9s.5-1 1-1c.6 0 1 .5 1 1Zm6.4 1.7c0 .5-.4.9-1 .9s-.9-.4-.9-.9c0-.4.4-.8 1-.8s.9.4.9.8Z"/><path fill="#04534E" d="M312.7 264.2c0 .7-.3 1.2-1 1.2 -.6 0-1.1-.3-1.1-1s.3-1 1-1 1 .2 1 .8Z"/><path fill="#8CBEBF" d="M308 267.2c0 .5-.4 1-1 1s-1-.5-1-1 .6-.8 1.2-.8 .8.3.8.8Zm4.5-3v0c0 .55-.45 1-1 1v0c-.56 0-1-.45-1-1v0c0-.56.44-1 1-1v0c.55 0 1 .44 1 1Zm5.2 1.3c0 .6-.3 1-1 1 -.6 0-1.1-.4-1.1-1s.2-.8.8-.8c.6 0 1.3.2 1.3.8Zm-3.3 2.7c0 .6-.4 1-1 1s-1.1-.4-1.1-1c0-.5.5-.8 1-.8 .6 0 1 .3 1 .8Z"/><g fill="#231F20"><path d="M314.8 265s1.6-.2 1.9 0c.3.4.3.8.1 1 -.1 0-.8.1-1-.1 0-.3-1-1-1-1Zm-1.7-5.4s1.3.3 1.8.9c.5.5.4 1 .4 1.1 -.2.1-.6.2-1-.2l-1.2-1.8Zm-3.7 2.6s1.5.8 1.8 1.3c.3.4.4.8.2 1 -.1.2-.8 0-1-.3 0-.3-1-2-1-2Z"/><path d="M308.7 263.3s1.7.2 2 .5c.5.4.8.4.8.6 0 .3-.3.4-.5.4h-.001c-.43-.1-.84-.27-1.2-.5l-1-1Zm-1.9-4.8s1.7.2 2 .5c.4.3.5 1 .1 1.2 -.4.2-.8-.2-1-.5v0c-.3-.44-.63-.84-1-1.2Zm-3.6 2.5s1.5.8 2 1.4c.3.4.5.7 0 1 -.4 0-.9-.7-.9-1v-.001c-.32-.51-.69-.98-1.1-1.4Z"/><path d="M302.8 263l1.5-.2c.5 0 1.2-.1 1.2.2 0 .4-.6.5-1 .4l-1.7-.4Zm8.6 5.6s1.1-.7 1.7-.6c.5.1.7.1.7.4 0 .4-.7.3-.9.3l-1.5-.1Zm-6-.9s.4-.6.9-.7c.4 0 .6 0 .7.2 0 .2-.4.6-.6.6h-1Z"/></g><path fill="#04534E" d="M322.6 266.6s-1.6 2-4 3v0c-2.27.99-4.75 1.37-7.2 1.1v-.001c-4.31-.08-8.38-1.96-11.2-5.2l.4 1.1 2 2.6 2.3 1 3.5 1 3.3.3h2.5l3-.5 1.9-.7 1.3-.8 1-.8 1.2-2Zm-3-5.9s-1 .3-3-.9 -4.3-2.8-8.8-2.8c-4.5 0-5.9 3-6.2 3.2l2-2.6 2-1.1 1.7-.3h1.5l2 .6 1.7.6 2.1.7 1.8 1 2.2 1.1 1 .5Zm6 1.4h-3.4c-.8 0-.8.2-1 .4h-.001c-.06.13-.13.27-.2.4l-.8-1.7 3.5-.5 2 .7 -.2.6Z"/><path fill="#0C8489" stroke="#04534E" stroke-width=".5" d="M320.7 280.4c.2.5.6 1 1.1 1h1.6l3.6-.3 1.2-1.4 .8-3.2 1-1.2 3.3-1.9 2.8-.8 1.9-.2 2.5-.8 1.9-1 .8-1.2 .8-1.8 -.8-2.5 -2-2.7 -3.4-1.3H335l-3 1.1 -5.5 1.3s-3 1.3-4.3 3.7c-1.3 2.3-1.2 3-1.5 6 -.2 3.2 0 7.2 0 7.2Z"/><g fill="#8CBEBF"><path d="M322.2 279.2c1 0 .2-1.7 1.4-3.8 1.2-2 2.6-4.6 3-4.6 .4 0 .4.4.9.3 .4-.2 1.2-.8 1.2-1 0-.2 0-1.3 1-2 .8-.8 2.1-1.9 2.7-2 .6-.1 1-.3 1 0 .1.3-.3.7.1.8 .4.2 1.4.1 1.6-.5l.2-1s.6-.5 1.8-.3c1.2.3 1.3.2 1.4.7 .1.4-.5.5-.4.8v.6c.2.2.4 1 1.2 1 .8-.1 1.1-.6 1.1-.6l.3-.4s.2-.5-.1-.7c-.3-.2-.2-.4 0-.3 .4.1 1.6 1.8 2 1.1 .4-.7.5-1.7.2-2v0c-.65-.89-1.29-1.79-1.9-2.7l-3-1 -4 .3 -4 2.2 -3.6 2s-.2 2.9-.8 2.3c-.7-.5-1.6-2-1.9-1.5 -.3.5-.9 2.7-1.3 3.8 -.3 1-1.4 4.4-1.3 5.6 .1 1.2.8 2.9 1.2 2.9Z"/><path d="M325.8 274.4c-.3 0-.7.3-.8.5 -.2.2-.3.5-.2 1 0 .3.7.7.7.7h.5l1-.3 .3-.8c0-.5-.3-.6-.4-.6v0c-.38-.16-.74-.33-1.1-.5Zm6.2-5c-.6-.3-.8.1-1 .3v.5s.2.8.4 1c.3 0 1.1.3 1.3 0 .3-.2.5-.4.5-.9s-.7-.7-.7-.7l-.5-.3Zm5 1.1c0-.2-.5-.3-.9-.2 -.3 0-.7.4-.6 1 .2.7.8.7 1.2.6 .5-.1.4-.8.4-.9l-.1-.5Zm-14.4 1c0 .3.5 1 1.2.9v0c.57-.03 1.06-.44 1.2-1 0-.4-.4.3-1 .5s-.7.2-1 0c-.2-.4-.4-.4-.4-.4Z"/></g><g fill="#04534E"><path d="M327.3 275.5s0 .6-.4 1c-.5.3-.8.3-1 .3 -.3 0-.6 0-.8-.3l-.3-.7s.5.8 1.3.6v0c.5-.14.93-.46 1.2-.9Zm13.3-8.3s0 .6-.5.9c-.5.3-.7.3-1 .3 -.2 0-.6-.1-.7-.4 -.6-1-.3-1.5-.3-1.5s.4 1.6 1.3 1.5v0c.48-.11.91-.4 1.2-.8Zm-11.9 2.9s-.4 1.2-1.2 1.2c-.9 0-.8-.2-.7-.4 0-.1.3.2.7 0 .4 0 1.2-.8 1.2-.8Zm2.3-.3s0 1 .2 1.2c.3.4.7.5 1 .5 .3 0 .6 0 .9-.4 .3-.4.1-.8.1-.8l-.2.5c-.3.3-.5.3-.8.3 -.3 0-.7 0-.8-.3l-.4-1Zm4.3-4.3s.2.7-.3 1.2c-.5.6-1.5.2-1.5.2s.8.3 1.2-.2c.4-.4.6-1.2.6-1.2Z"/><path d="M321.7 281.1s5.3 0 5.7-.8c.4-.7-.4-3.6 2.7-5.8 3.2-2.2 5.7-2.2 7.4-2.3 1.7-.2 5.3-1.3 6-4.5 .3-2-2.3-2.2-3.3-4 -1-2-3.6-1.2-3.8-1.2 -.1 0-3 0-4.3 1.3 -.9.8-.8 1.8-1.1 2.2 -.4.5-4 0-4.3.6 -.4.6.1 1.7-.2 2 -.2.3-1-.8-1-.8l.2-2.8 4.5-2.6 5-2.8 3.5.1 3.5 1.8 1.7 2s.3.8.5 2.3v0c.06.67-.01 1.35-.2 2 -.8 2.8-3.7 4.8-6.7 5v0c-2.52.18-4.94 1.05-7 2.5 -1.4 1-2.1 5.3-2.1 5.9 0 .5-6.6.1-6.6.1v-.2Z"/></g><g fill="#231F20"><path d="M324 270.8c-.3.3-.7.2-.8 0 -.2-1 .3-2.2.3-2.2v1.6c.1.2.4.1.5.3v.3Zm3.2-.6c-.2-.1-.1-1 0-1.3 .2-.3 1.7-1.4 1.7-1.4l-.6 1.5c-.2.4-.7 1.3-1 1.2Zm-1.2 5.3c-.3 0-.3-.4-.3-1s1-1.6 1-1.6l-.4 1.2 .2 1c0 .3-.3.4-.5.4Z"/><path d="M328.4 274s-.5.6-1 .9c-.5.3-1.1.7-1.4.6 -.4 0 .1-.8.3-.9l2.1-.6Zm4.5-6.4s-.6.5-.9 1.2c-.3.7-.4 1.3-.1 1.4 .3.2.7-.8.8-1.1l.2-1.5Z"/><path d="M334.6 269.9s-.5-.4-1.2-.6c-.8-.2-1 0-1.2.2 0 .2-.6.5-.3.7 .2.2.6-.3.8-.3 .2-.1.5-.3.9-.2l1 .2Zm-1-4.5c.3.3.7-.2 1-.6 .4-.4.7-1.2.7-1.2l-1 .7c-.4.3-.9 1-.7 1.1Zm6.9-.1s-1 .4-1.2.8c-.3.4-.7.8-.4 1 .3.3.6-.2.8-.5l.8-1.3Zm-2 4.6s-.3.6-.9 1c-.5.4-1.2.5-1.3.3 -.1-.2.1-.6.3-.7l.8-.2v0c.37-.11.74-.24 1.1-.4Z"/></g><path fill="url(#a)" d="M328.8 203.1a2.9 4.3 0 1 0 0 8.6 2.9 4.3 0 1 0 0-8.6Z" transform="rotate(8.70001)"/><g stroke-width=".3" fill="#FCCA3E" stroke="#AA8C30"><path d="M295.4 247l-1.7 4.2 1.4-.2 .7-3.8Z"/><path stroke-width=".2" d="M296.1 245.1c-.6 0-1.1.4-1.2 1 0 .7.4 1.3 1 1.4 .6 0 1.1-.4 1.2-1 0-.7-.3-1.3-1-1.4Z"/><path d="M369.7 255.8l-4.2 4 1.7.4 2.9-3.8Z"/><path stroke-width=".2" d="M371.6 254.1v0c-.72-.38-1.61-.11-2 .6 -.5.7-.3 1.5.4 2 .7.3 1.6 0 2-.7 .4-.6.2-1.5-.4-1.9Z"/><path d="M262.8 233l2.2 4.9 1-1.4 -2.6-3.7Z"/><path stroke-width=".2" d="M261.9 230.9c-.6.4-.6 1.3-.1 1.9 .4.6 1.3.7 1.8.2 .6-.5.6-1.3.1-2v0c-.48-.52-1.28-.56-1.8-.1Z"/></g><g fill="#AA8C30"><path d="M296.6 245.3s.3.1 0 0c-.5 0-1.4.4-1.4 1v0c0 .55.44 1 1 1 .5 0-.2.2-.2.2l-.7-.2 -.2-.4 -.2-.5 .1-.6 .4-.5 .5-.2h.3l.4.2Z"/><path d="M295.6 248.1s-.3 0-.5.3v0c-.23.36-.47.73-.7 1.1l1-2.3 .4.2 -.2.7Zm76.4 6.4s.3.4-.1 0c-.4-.3-1.8-.2-2.1.5 -.4.8 0 1.4.6 1.7 .6.2-.2 0-.2 0l-.7-.5 -.1-.6v-.7l.5-.6 .7-.3h.7l.3.2 .4.3Z"/><path d="M369.4 257.3s-.3-.2-.8 0l-1.4.9 2.3-2.2 .5.6 -.6.7Zm-107-26.7s.4-.1 0 .1c-.5.3-.8 1.4-.3 2 .6.5 1.3.4 1.7 0 .4-.5 0 .2 0 .2l-.7.4h-.6l-.6-.3 -.4-.6v-.8l.2-.5 .3-.3 .3-.2Z"/><path d="M264 233.8s-.3.1-.2.6l.3 1.5 -1.2-2.7 .7-.2 .4.8Z"/></g><path fill="url(#b)" d="M337.6-131.2a4.6 3.1 0 1 0 0 6.2 4.6 3.1 0 1 0 0-6.2Z" transform="rotate(62.9)"/><g fill="#E92736"><path d="M262.6 241.2s1 .2 1.5 0 .6-.7.7-.8c.1-.1.3-.6.2-1v0c-.23-.54-.57-1.02-1-1.4l-1-.1c-.1-.1 0-.4-.2-.5 -.3 0-1.7 1.6-1.5 1.8 .3.3.4 0 .5.1v1.1c0 .3.8.8.8.8Z"/><path d="M264 238.1c.1.3.7 1 .9 1 .2.2.8.2 1 0 .3 0 1-.7 1-1v0c.02-.24-.02-.48-.1-.7 -.2-.3-.1-1-.4-1.1 -.2 0-.3-.1-.5-.3v-.7c-.3-.3-2.6 1.1-2.4 1.4 .2.2.4 0 .5.1v1.3Z"/><path d="M269.2 237.6c.2-.4.1-1.5-.1-1.8 -.2-.3-.6-.3-.7-.4 0-.1.3-.2.3-.5s-2.6.1-2.4.4c.2.3.6.1.6.3 0 .2-.4.4-.5.6l.3 1.1c0 .2 0 .4.2.5l.6.2h1.4c.1-.1.2-.1.3-.5Zm22 12.8s.3.7.8 1h1l.6-.5c.2-.2.4-1.2.3-1.4 0-.2-.5-.6-.5-.8 0-.2.3-.2.2-.4 -.1-.2-2-.2-2 .2 0 .3.3.2.2.3 0 .2-.5.5-.6.7 -.2.1 0 1 0 1Z"/><path d="M293.8 249.5c0 .2-.2 1 0 1.1 0 .2.3.7.5.8h1.2v0c.19-.16.33-.37.4-.6 .1-.3.6-.7.5-.9 -.1-.2-.2-.2-.1-.4 0-.2.3-.2.3-.5s-2.1-1-2.2-.7c0 .3.3.2.2.4 0 .2-.7.6-.8.8Z"/><path d="M297.3 252.5c.3-.2 1-.9 1-1.1 0-.4-.3-.6-.2-.7l.5-.1c.1-.2-1.6-1.6-1.7-1.3 0 .3.3.4.2.5l-.7.1c-.1.1-.5.6-.5.8 0 .2-.3.2-.2.5l.2.4c.1.2.8.9 1 .9h.4Zm66 5.5s0 .8.4 1.2c.3.3.6.3.8.4h.7v0c.4-.25.75-.6 1-1 0-.3-.3-.8-.2-1 .1-.2.3 0 .3-.2 0-.3-1.6-1.1-1.7-.8 -.1.2.2.3 0 .4l-.8.2c-.2 0-.5.8-.5.8Z"/><path d="M366 258.5l-.8.8c0 .2 0 .7.2.8 0 .2.7.6 1 .5 .1 0 .3 0 .5-.2 .2-.1.8-.2.8-.4l.1-.4c.1-.1.4 0 .6-.2 .2-.2-1.2-1.7-1.4-1.5 -.2.2 0 .3 0 .4 -.2 0-.9 0-1 .2Z"/><path d="M366.4 262.2h1.4l.4-.5c.1 0 .1.2.4.2 .2 0 0-2-.3-1.8 -.2.1-.1.5-.2.4 -.2 0-.3-.3-.5-.3h-.001c-.34-.04-.68-.01-1 .1 0 0-.2 0-.3.2l-.2.4v1c.1.2 0 .2.3.3Z"/></g><path fill="#F7E204" d="M264.2 239c.2.4-.1 1.2-.3 1.4 -.1.2-1.3-.1-1.3-.3 0-.2-.1-.6 0-.8 .2-.2.6-.7.9-.6 .3 0 .6.3.7.4Zm.3-1.3c-.2.3 0 .6.2.7 .1.2 1 .4 1.2.3 .2-.2.6-1.5.4-1.7 -.2-.2-.6-.2-.7-.2 -.2 0-1 .6-1.1.9Zm2.7-1.3v.7c.2.1.7.5 1 .5 .3 0 .5-1 .5-1.1 0-.2-.1-.3-.3-.4l-1.2.2Zm26.1 13.7c0 .4-.7.7-.9.7 -.2 0-.7-1-.6-1 .1-.2.3-.5.5-.5s.7 0 .9.2l.2.7Zm1.1-.6c-.2.1-.3.4-.3.6 0 .2.3.8.5.9 .2 0 1.2-.5 1.3-.7 0-.2-.2-.5-.4-.6l-1-.2Zm2.4 1c-.2 0-.4.3-.4.5 0 0 0 .6.3.8 .2.2.8-.2.9-.3v-.4c0-.2-.8-.6-.8-.6Zm68.6 8.2c-.2.2-.9.2-1 0 -.3 0-.3-1-.1-1 .1-.1.4-.3.6-.2 .2 0 .6.3.6.6l-.1.6Zm1 .1c-.3 0-.5.1-.6.3 -.1.1-.2.7 0 .9 .1.1 1.2.2 1.3 0v-.5l-.7-.7Zm1 2h-.5c-.1 0-.4.4-.4.7 0 .2.7.3.8.3l.3-.2 -.1-.8Z"/><path fill="url(#c)" d="M438.6-97.5a2.2 4.5 0 1 0 0 9 2.2 4.5 0 1 0 0-9Z" transform="rotate(47.9)"/><path fill="#A8AC71" d="M285.8 199.3s-3.8.3-6.5-.1 -2-7.3-2.1-7.5c0-.2-1.6-1.8-1.4-3.3 .3-1.5 5.2-5.5 5.8-5.8 .5-.1 1.5.3 1.5.3s1.2-1.2 1.6-1.2c.4 0 .9.7.8 1 -.2.3-1.9 1.3-2 2 -.2.8 0 1.5-.5 2.3 -.5.7-1.4 1.7-1.5 2.4 -.1.6-.4 1.1 0 1.4 .5.2 2.1 0 3.5-.6 1.4-.7 2-1.5 2.1-1.4 .2 0-.8 1.7-2.3 2.4 -1.5.6-2.5 1.3-3.3 1.2 0 0-.8 2 1.8 2.2 2.6 0 4-.6 4-.6l-1.5 5.3Zm-15 16s2 .8 2 3 -2.1 4.1-2 8c0 4 .6 4 5.8 8.3v0c.74.67 1.29 1.53 1.6 2.5 .3 1.3 1.2 8.9 6.2 8.9s5.8-3.3 5.8-3.3l-2.2-3.1s-1.7.5-2.7.3v-.001c-1.07-.29-1.92-1.07-2.3-2.1 -.6-1.2-.7-4.1-1.6-5.4 -2-3.2-5.8-3.7-5.9-7 0-3.4 2.3-3.7 1.7-7.7 -.7-4-5.4-5.8-5.4-5.8l-1.9-.8 -.7 4 1.6.2Z"/><path fill="#F1A720" d="M284.7 187.6c1.7-.4.7-4.8.7-4.8l-1.2 1s.8 1 .8 2 -.3 1.8-.3 1.8Z"/><path fill="#A8AC71" d="M287.8 231.5l-.9-.7c-.6-.4-3.2-2.6-2.8-8.9 .5-7.2 11-11 11.6-13.8 .8-3.2 3.1-4.5-5.2-11l-2 2.2 3.5 2.6s.7-.4.8.6c0 1-1 1.7-1.2 2.5 -.2.7-5.4 4.3-5.8 4.6l-3 2.4s-1.3 1.3-2.5 4.1c-1.3 2.8-.7 6.4-.7 6.4s0 7.6 8.2 9Z"/><path fill="#78732E" d="M282.7 235.5l.6 2.7 -1.7.6h-.7l-.5.2 -1.3 1.2h-.3s-.2 0-.3-.8c0-.8-.2-1.5-.2-1.5l1.6.7h.6l.3-.1 .7-1.5 1.2-1.5Zm-4.8.5l-.8-1 -1-.9 1.2-.6h1.2l-.2 1.5 -.4 1Zm2.7-4.3s.8.3 1 1l.6 1.2 -2-.2 -1.4-.4 1-1.4 .8-.2Zm-.7 11.9s-.4-.3-.7-.9l-.4-1.6 1.3-.3 1.5.7h.4l-.3.8 -1.5 1.3h-.3Zm5-4.1s-1-.4-1.2-1c-.2-.5-.4-.4-.4-.4l-.3 1.5 -.5 1.5 .2.2 1.1-.3 .9-.9 .3-.6Zm-4.7 4.8l1.4.7c.8.5 1.2.5 1.2.5l.6-.6 .7-1.3v-.1l-3 .3 -.9.5Zm4.4-1.2l2.7-1.6 .1-1.4 -.5-.4h-1.5l-.5 1.8 -.3 1.6Zm-1.8 2.5s1.8.8 5-.4c1.4-.5 1.7-1.2 1.7-1.2l-1.3-.5 -1.2 1 -4.2 1Zm-2.5-20.3l-.4-1.4c-.2-.8-.1-1.1-.1-1.1l.9.5 1.3 1 -1 .7 -.7.3Zm2.2 3.7l-.9-1v0c-.23-.39-.43-.79-.6-1.2l1 .2 1.1.6 -.5 1.4h-.1Z"/><path fill="#C6C7A6" d="M276.6 187c-.2.7-.4 1.9.5 2 .4.2 2.3 0 4.5-2.4 1-1.2 1-2.4 1-2.4l.5-1.3s-.9-.6-2.2.2c-1.3.8-4.3 4-4.3 4Z"/><path fill="#1C242F" d="M282.5 183.2a.4.4 0 1 0 0 .8 .4.4 0 1 0 0-.8Z"/><path fill="#A8AC71" d="M279.7 184v0c-.61.52-1.18 1.09-1.7 1.7 0 0 1.4-.4 2.6-1.5 .6-.6 2-.8 2.6-.7 .4.1.2-.4 0-.5 -.3-.3-1.4-.4-1.6-.3l-1.9 1.3Z"/><g fill="#78732E"><path d="M284.1 224.5v-2.2l-.9.8 -.8 1.1 1.3.5 .4-.2Zm-4.5-2.6v-2.3c0-1 .5-3.1.5-3.1l.6 1.4 1.5 2.4 .5.4 -1.3 1 -1.4.4 -.4-.2Zm4.5-.6l.3-1c.1-.6.5-1.4.5-1.4v.1 0c-.7.53-1.37 1.09-2 1.7l.8.7h.5m-3.7-6s.2-.6 1-1.5l1.3-1.8 .6 2.4 .4 2v.4l-.7.2c-.2 0-1.6 0-1.8-.3l-.8-1.3Zm4.8 2.9l.8-.9 1-1 -3.2.6 .5 1 .8.3Zm-2-6.7s.3 0 1.2-1c.8-.8 1.3-.7 1.3-.7l.3 3.4 -1.6-.5 -1.2-1.2Z"/><path d="M287.3 216.2l2-2 -3.3-1 .6 2.3Zm1.4-5.2l.2-3.3s-.7.3-1.5 1l-1.2.9 .4.6 1 .7h1Zm2.8-3.2V205s-.5.8-1 1.2l-.9.8 .9.6h1Zm1.2 3.5l1.6-1.3v-.001c.59-.48 1.1-1.05 1.5-1.7l-4.2-.3 .2 1.7 1 1.6Zm-9.6-13.8l-.2 1.8h3.5l-.9-1.2 -1-.6 -1-1Zm6.6 16.2c.2 0 1.1-.8 1.6-1.2 .4-.5 1.2-1 1.2-1l-3.3-.3v2.2l.5.3Zm6.3-5.9s.4-1.3.3-2.6c0-1.2-.2-1.8-.2-1.8l-2.5 1.7 .4 1.2 1 1 1 .5Z"/><path d="M291.8 204.8s.7-1 .8-1.4v-.4h2l1.1.2h.2l-.9 1.1 -1.2.7 -1.5.2 -.5-.4Zm4-2l-1.3-2c-.4-.7-.8-1-.8-1l-1 2.7v.3h3Z"/></g><path fill="#FFF" d="M271.6 222.2l-.3.8s1.3-.7 2.3-.7c1 0 2.1 1.3 2.1 1.3l.2-.9s-1.3-1.3-2.2-1.3c-.8-.1-2 .8-2 .8Zm.7-5.8l.3.4c0 .1.1-1 1.4-1.5 1.4-.6 2-.1 2-.1s-.2-.8-.8-1c-.6-.1-1.1 0-1.8.5v0c-.52.45-.9 1.04-1.1 1.7Zm4.4 4.4s-.6-1.4-1.6-1.6c-1.1-.3-2.5.5-2.5.5l-.2.7s1.5-.8 2.5-.4c1.1.5 1.5 1.7 1.5 1.7l.3-1Zm-5-5.1l.4.5s-.2-1.4.5-2.1v0c.31-.39.68-.73 1.1-1l-.6-.3s-.9.5-1.2 1.1h-.001c-.24.56-.31 1.19-.2 1.8Zm-.5-2.3c.3-.8 1.2-1 1.2-1l-.3-.3h-.5s-.5.3-.9 1c-.3.9-.3 2-.3 2l.6.3s-.1-1.4.2-2Zm7.8-19.2c.9-.4 1.5-.3 1.5-.3s-1.3 1.3-.7 2.9c-.7 1.3-.9 2.3-.9 2.3h.7l.4-1.8c.8 1.3 2 2 2 2h1s0-1.3.4-2.4h.1v0c.52.66 1.21 1.17 2 1.5v-.4s-1.1-.6-1.7-1.5l-.1-.1 0 0c.41-.74 1.04-1.33 1.8-1.7l.7.6 .2-.2 -.5-.7h-.6l-1.8 1.7v0c-.32-.48-.59-.98-.8-1.5l-.4-.2s-1.1.1-2 1.7c-.2-1.2 1.1-2.4 1.1-2.4v-.5l-2.4.6c-1 .3-1.7 1.2-1.7 1.2v.8s1-1.1 1.7-1.6Zm1.5 2.2c.6-1 2-1.5 2-1.5s0 .7.7 1.7c-.5.9-.8 2.2-.8 2.2s-1-.6-1.9-2v0c-.08-.1-.15-.2-.2-.3l.2-.1Zm-7.6 21.1v.8s.8-.9 2-1c1.2 0 2.3 1 2.3 1s0-1-.2-1.2c-.1 0-1.1-.6-2-.6 -.9 0-2.1 1-2.1 1Zm21.4-11.2l-.5-1 .6-.3h0c.61-.48 1.18-1.02 1.7-1.6l-.4-.6h-1.6l-1.4-.1 .5-1.7 .6-1.4 -.6-.5s.2.5-.8.6c-1 .1-2.8-.8-2.8-.8v.4l2.5.7c.6 0 1-.1 1.2-.3l-.5 1.3 -.3 1 .2.2v.8l1.4.1 1.6.1s-.8 1-1.7 1.5v0c-.1 0-.21 0-.3 0l-1-1.5 -.1.5 .7 1.2h0c-.51.04-1.01 0-1.5-.1l-.4.4v2.5l-1.8-.6 -.3.3v-.1l-.4.4s-.4 1.4-.3 3.1v.1 0c-.91-.2-1.74-.65-2.4-1.3l-.4.3s-.3 1.4 0 3.2c-1.3-.3-2.5-1.5-2.5-1.5l-.5.5 -.001-.001c.17 1.57.4 3.14.7 4.7v0c-.24.01-.47.01-.7 0 -1.4 0-2.3-1.3-2.3-1.3l-.4 1s.6 2.7 2 4l.4.2c-1.3 1-2.8 1.2-2.8 1.2v.9 -.001c.71.52 1.45 1.02 2.2 1.5v0c-.47.43-1.01.77-1.6 1l.2.5 1.8-1.3 1.8.5v-.5l-1.5-.3 .1-.1c.5-.4 1.4-1.8 1.4-1.8v-1s-.5 0-1.1-.6c1.8-1.2 1.9-1.8 1.9-1.8l.4-.6s-.7-.3-1.1-1.2l2.9-.7 .2-.2s-.7-1.2-1-2.6l3 .6 .4-.4 -.5-2.4c1.8 0 3.2.2 3.2.2l.3-.3s-1-1.9-1-3v0c.33.03.66.03 1 0h3l.3-.5s-1.4-1-1.7-1.5Zm-10.5 15.5s-.5 1-1.4 2l-.2.2v0c-.18-.06-.34-.13-.5-.2 -1.1-.6-1.4-1.3-1.4-1.3l2.5-1.6 1 .9Zm.9-3.2l-2 2v0c-.15-.16-.28-.33-.4-.5 -.8-1.2-2-2.1-1.8-3.8 0 0 .7 1.2 2.2 1v0c.33-.03.66-.06 1-.1 .4 1 1 1.4 1 1.4Zm2-2.5l-2.7.7v-.001c-.05-.17-.08-.34-.1-.5 -.5-1.6-.5-4-.5-4s1 .8 2.6 1.2l.7 2.6Zm-.5-3c-.2-1.4.1-2.9.1-2.9s.8.8 2.3 1c.1 1.5.3 2.1.3 2.1l-2.7-.1Zm5.8-2.2s-1 .4-2.8.1v0c-.01-.17-.01-.34 0-.5v0c-.07-1-.07-2.01 0-3l2.3.7v0c.04.91.2 1.82.5 2.7Zm0-3.1h-.2V205s1 .3 1.7.2c.2.4 0 .5.5 1.2 .4.7 1.1 1.3 1.1 1.3s-2.3.2-3.2 0Zm-7.6 18.6l-.1-.5s-1 .7-1.2 1.4v-.001c-.11-.03-.21-.06-.3-.1l-2-.8 .2.4 1.8.8h.2l-.5 1.4 .2.3 .5-1.7 1.2.1 -.2.8 -.4 1.5 .5.3h2l-.3-.4 -.7-.1h-1.1l.3-1.2 .3-.8 -.3-.7 -1 .2v0c.23-.37.53-.67.9-.9Zm-11.3-1.3c1.3 0 2.3.9 2.3.9v-.6s-1-1.4-2.1-1.4c-1.2 0-2.5 1.2-2.5 1.2v1.2s1-1.3 2.3-1.3Zm13.3 19.4c-1.3.6-2.7.6-2.7.6l.8-1.5c2.5-.8 3-2.4 3-2.4l-.2-.7s-.6 1.6-2.6 2.4c.4-1.2.7-3.2.7-3.2l-.7-.2s-1 1.3-2 1.6v0c.43-.85.7-1.76.8-2.7l-.3-.5s-.7.6-1.7.8v0c-.2.03-.41.03-.6 0 .6-.8 1.7-3.2 1.7-3.2l-.2-.5s-.8 2.1-1.7 3.2v-.001c-.1.13-.2.26-.3.4 -1-.3-2.2-1-2.2-1l.1.3s.8.6 1.8 1h-.001c-.43.41-.86.81-1.3 1.2v1l3 .4c-1 1.6-2 2.1-2 2.1l.5.7s1.3 0 3.7-.6c-.6 1.2-1.2 1.8-1.2 1.8s2.2.2 3.7-.6 2-1.6 2-1.6l-.4-.4s-.4 1-1.7 1.6Zm-6.9-4l1.2-1.5c1.6.3 2-.1 2-.1s.3.8-.6 2.3c-1.1 0-2.6-.8-2.6-.8Zm1.4 3l1.3-1.6 .3-.3c1.5 0 2.3-1.3 2.3-1.3s.2 1.2-.5 2.7c-1.9.7-3.4.5-3.4.5Zm-1.9-9.8c1.5 0 3.3.7 3.3.7l-.2-.7 -2.9-.6v0c.34-.7.9-1.26 1.6-1.6l-.5-.3s-.6.1-1.4 1.5h0c-.08.12-.15.26-.2.4v0c-.1-.01-.21-.01-.3 0v0c-.85.02-1.68.26-2.4.7l.2.4s1.1-.5 2.3-.5h-.001c-.28.78-.51 1.58-.7 2.4l.3.6 1-3Zm-3-6.2l-.3-.7s-1.5-.6-2.7 0c-1.1.5-2 1.9-2 1.9l.5.9s.8-1.5 1.9-1.9c1-.3 2.6-.2 2.6-.2Zm3 2.4l-1-.6s-1.7.5-2.2 1.1c-.6.6-1.1 2.1-1 2.5 .2.5.7.7.7.7s.3-1.5 1.1-2.3c.8-.8 2.4-1.4 2.4-1.4Zm-3.9-.5v0c.57-.5 1.25-.85 2-1l-.7-.5s-1.5.2-2.2.9c-.8.7-1.8 2.1-1.8 2.1l.9.9s1.2-1.8 1.8-2.4Zm5.2-44.7v-.1c.8-1 1.6-1 1.9-1h.6v0c-.39.79-.66 1.63-.8 2.5 -.2 1-.7 1.2-1 1.9 -.4.7-1.1 1.8-1.2 2.8 0 1 .3 1.6.5 1.7 .3.1.8-.4.7-.7 0-.3-.3 0-.4 0 -.2 0-.2-.3-.3-.9 -.1-.6.7-2.2 1-2.8 .3-.5 1-1.1 1-2l.7-2.5c0-.1-.4-.2-1.3-.3 -.6 0-1.5.5-1.9 1.2 -.4.6-1.7 1.1-1.7 1.1s1.4 0 2.2-1Z"/><g fill="#78732E"><path d="M285.2 194.5h-2.5l.7 2Zm-3-.1l-.5-.4h-.001c-.09-.12-.19-.22-.3-.3l-.9.5 -.5 1.9 .3.3 2-2Zm-.3 5l-1.8-2.7 -1 2.2 .5.2 1.2.2h1.1Zm7.4 44.7v0c-1.43.94-3.09 1.46-4.8 1.5v0c-1.21-.03-2.38-.37-3.4-1v0c-.66-.42-1.18-1.01-1.5-1.7 -.6-1.1-.8-2.5-1-4 -.3-1.3-.5-2.6-1.1-3.6 -.8-1.3-2.4-2.1-3.8-3.3v-.001c-1.63-1.27-2.65-3.15-2.8-5.2v0c-.02-.27-.02-.54 0-.8 0-1.7.5-3.2 1-4.5 .5-1.3 1.2-2.5 1.2-3.5v-.5c-.3-.7-1-1.4-1.5-1.9s-1.2-.8-1.2-.8l-1-.2 -.1.3 1 .2v-.1 .1l1.3 1c.5.4 1 1 1.1 1.5v-.001c.01.13.01.26 0 .4 0 1-.5 2-1 3.3v0c-.73 1.46-1.14 3.06-1.2 4.7v.8 0c.17 2.17 1.26 4.17 3 5.5 1.5 1.1 3 2 3.7 3.2 .8 1.2 1 3 1.3 5 .2.8.4 1.7.8 2.5s.9 1.5 1.6 2v-.001c1.11.67 2.39 1.01 3.7 1 2.7 0 4.9-1.6 4.9-1.6l-.2-.3Z"/><path d="M287.2 239.2v-.001c-.4.24-.84.38-1.3.4 -.5 0-1.1-.2-1.7-.8v0c-.65-.62-1.07-1.43-1.2-2.3 -.2-.9-.3-2-1-3.3 -.5-1.5-2-2.6-3.5-3.7 -1.3-1.1-2.6-2.2-2.9-3.4v-.001c-.03-.24-.03-.47 0-.7 0-1 .4-2 .8-3.1v0c.66-1.52.97-3.16.9-4.8 -.2-2-1.7-3.5-3.2-4.5v0c-.88-.57-1.82-1.04-2.8-1.4l-.1.3h.2c.5.3 1.8.9 3 1.8 1.3 1 2.4 2.2 2.6 3.8v.8c0 1.5-.4 2.7-.9 3.9 -.5 1.2-.9 2.2-.9 3.2l.1.8c.3 1.3 1.6 2.4 3 3.6 1.5 1 3 2.2 3.5 3.5 .6 1.3.7 2.4.9 3.2 .2 1 .4 1.7 1.2 2.5 .7.7 1.4.9 2 .9v-.001c.49-.01.97-.15 1.4-.4l-.1-.3Z"/></g><path fill="#A8AC71" d="M296.4 231.6s1.7.4 1.6 1.8h0c-.12 1.16-.39 2.3-.8 3.4l-2.4-2.2 1.3-1.2 .5-.7 -.2-1.1Z"/><g stroke-width=".3" fill="#F8C83C" stroke="#977C2E"><path d="M266.4 214.5s-1.7.6-2.1-.1c-.4-.8-.2-1.4-.2-1.5 0-.2-1-.3-1-1.3 .1-1 1.4-.9 1.6-.9 .3 0 .4-1.5 1.3-1.4 .8 0 1.2 1 1.2 1l-.8 4.2Z"/><path d="M268.3 215s-1.5.8-2 0c-.4-.7 0-1.6-.1-1.8 -.2-.1-1-.4-.9-1.3 .2-.9 1.1-.6 1.4-.8 .3-.1.6-1.4 1.5-1.2 .9.3 1 1 1 1l-1 4.1Z"/><path d="M270.8 215.3s-.5 1-1.5.8c-1-.2-.7-1.7-.9-2 -.1-.3-.9-.5-.8-1.4 .2-1 1.1-.9 1.5-1 .3-.1.7-1.6 1.4-1.4 .7.3 1.3 1.1 1.2 1.5 0 0-1.5.5-1.7 1.5 -.2 1 .8 2 .8 2Z"/></g><path fill="#AF7029" d="M293.7 231.2l-2.2-2.6c-.9-1.3-2.3-2.7-2.3-2.7l-2.2-1.1 -1.4-2.4 -.2-2.8 .6-1.6 .8-1.2s-4.6 1.7-2.2 10.5c1 3.8 3.5 4.3 3.5 4.3l4.3-.3h1.3Z"/><path fill="#816C2A" d="M291.6 201.7c.4 0 .6.2.8.4l.2.6v.4c-1.6 3.4-4.8 5-7.8 7v-.001c-1.53 1.06-2.82 2.42-3.8 4v0c-1.2 2.05-1.76 4.42-1.6 6.8 .1 5 2 7.8 4.2 9.3v0c1.55.98 3.35 1.5 5.2 1.5h.4l1.4-.1v0c.99-.11 1.99-.18 3-.2l1.8.1 .9.4v0c.12.13.19.31.2.5 0 .4-.3.8-.6 1.2l-1 .7 .2.3v0c.37-.22.71-.49 1-.8 .4-.4.7-.9.7-1.4 0-.2 0-.5-.3-.7 -.2-.3-.6-.4-1.1-.5l-1.8-.1c-2 0-4.5.3-4.5.3v.2 -.2h0c-.1 0-.21 0-.3 0h-.001c-1.78-.02-3.51-.54-5-1.5 -2.1-1.4-4-4-4-9v-.4c0-2.7.5-4.7 1.5-6.3 1.4-2.4 3.7-3.8 6-5.3v-.001c2.34-1.34 4.25-3.32 5.5-5.7v-.5c0-.2 0-.6-.2-.8 -.2-.3-.5-.5-1-.5v.3Z"/><path fill="#FFF" d="M297.8 232.7s-1 2-1.4 2c-.2 0 1 .3 1.3.8l-.3.5s-1.2-.9-2-1v-.6l1.1-.7v0c.43-.49.74-1.07.9-1.7l.4.7Z"/><path fill="#FCCA3D" d="M302 234l-2.7.8 -1.3-1s0-1-.5-1.5l-1.6-1c-.6-.2-2.5-.2-2.5-.2l-5-5.3 2 .2 2.8-.4 2.7-.2 1.4.2 1.6.4 .8.7 .8.8 .8 1.3 .6 1.6 .2 1.7v1.9Z"/><path fill="#AF7029" d="M302.2 233.8s-1 .3-2.2.3c-1.3 0-2-.2-2-.2l-.2.9c-.2.9-.5 1.3-.5 1.3v3.2l2.6.5 1.4-.5 .7-3.5 .2-2Z"/><path fill="#FCCA3D" d="M301.5 232.5v1.2l.6.2v-1.2Zm-2.5-30l-.3-2.1 -.8-1.5 -1.1-1.5 -1.2-1.3 -.6-.5 -.3-.5 -2.9.2 -1.4 1.7s3.8 2.8 5.3 5.8v-.001c1.05.33 2.01.91 2.8 1.7l.1-.2 .4-1.8Z"/><path fill="#AF7029" d="M296.3 205c0 2.2-.5 3.2-.8 3.7l1.8-2 1.2-2.2v-.001c-.79-.79-1.75-1.37-2.8-1.7 .4.7.6 1.4.6 2.1Z"/><path fill="#816C2A" d="M300.3 237.9l-1.4-1.6c-.6-.6-1.3-1-1.3-1l-.2.4h.1l1.2.8v0c.46.5.89 1.04 1.3 1.6l.3-.2Z"/><path fill="#6F5B24" d="M302 235.5s-.3 1-1.3 1.8c-1 1-2.2 1.5-2.2 1.5l2.8 1 1.9-1.7 -1.2-2.6Z"/><path fill="#404118" d="M302.4 237.8l-.2.3 -.5.5 -.4.5 .6-3 .6 1v.4Z"/><path fill="none" stroke="#78732E" stroke-width=".2" d="M285.8 199.3s-3.8.3-6.5-.1 -2-7.3-2.1-7.5c0-.2-1.6-1.8-1.4-3.3 .3-1.5 5.2-5.5 5.8-5.8 .5-.1 1.5.3 1.5.3s1.2-1.2 1.6-1.2c.4 0 .9.7.8 1 -.2.3-1.9 1.3-2 2 -.2.8 0 1.5-.5 2.3 -.5.7-1.4 1.7-1.5 2.4 -.1.6-.4 1.1 0 1.4 .5.2 2.1 0 3.5-.6 1.4-.7 2-1.5 2.1-1.4 .2 0-.8 1.7-2.3 2.4 -1.5.6-2.5 1.3-3.3 1.2 0 0-.8 2 1.8 2.2 2.6 0 4-.6 4-.6l-1.5 5.3Z"/><path fill="#AB6D29" stroke="#4D2A15" stroke-width=".4" d="M318.7 170.6s-7-1.3-7 4.5c.1 1.9.5 2.5 2 3 1.5.3 4.4.5 7 2.7 2.5 2.3 2.7 4 2.7 5.3 0 1.4-.7 2.6-.7 2.6l1.6 7.7 1.6 5.7 4.8-2.7 2.8-8.5 -3.6-15.2 -11.2-5.1Z"/><path fill="#4D2A15" d="M325.6 200s2.5-1 3-3c.3-.5-2.4-2.9-2.4-2.9 -.1 0 1.3.7 2 1.3 .6.6 1.1.9 1.3.8 .2-.1 1.3-2.7.9-3.3 -.4-.6-1.1-2-2.1-2.6 -1-.7-2.4-.6-2.4-.6s1.9-.6 2.8 0c1 .5 1 1 1.1.9 .1-.3-.2-2.9-.6-3.7 -.4-1-.8-1.3-2-1.6 -1.1-.2-2.3-.1-2.3-.1s1.6-.9 2.8-.6c1.3.3 1.3 1 1.4.8 0-.1-.6-2.4-1-3v0c-.57-.74-1.29-1.36-2.1-1.8l-1.8-.2h-.6s1-.6 2.1-.5c1.2.1 1.3.5 1.4.4 .2 0-.1-.2-.8-.7 -.7-.5-4.2-2-4.2-2h-3.3s0-.8 1-1c.9-.1 1.1.1 1-.1 0-.3-2.6-.8-2.6-.8H316l-3 .3s.2-.5.7-.9c.3-.3.9-.5 1.3-.6 1-.3-.6-1.1-.6-1.1l.9-1.3 3.9.3 8.2 4.8 3.9 3.3 2.4 6.2 -.7 10.8 -5.5 4.5 -2.4.3 .5-2.3Z"/><path fill="#D2A567" d="M318.4 173.3s-.2-.7-.2-1.7 .2-.9.2-.9 -2.7-.3-4.6 1.2c-1.9 1.5-.8 4.1-.8 4.1s.8-.8 1.9-1.2c1-.4 3-.3 3-.3 .2-.2-.4-1-1.1-1.1 -.8-.2-2.1-.2-2.1-.2s.8-.5 2.2-.4c1.4.1 1.6.5 1.6.5Z"/><path fill="#8F4620" d="M326.7 200.9l-1.8.6 1 7.5 7.2 12.1 3.7-.6 1.3-2.3 1 .5c.4.4 1.8 2.8 3 3.3 1.1.4 1.7.2 2.7 1 1 1 4.9 6.6 5 6.8 .3.2-.1-2.4-.1-2.4l-1.2-3.4 -1.4-2.4 -.3-.6h2l1.2.8 2 1.5 .9 1.2 .5 1.2 .2 1 .5 1.6 1 2.3 1.3 2.1 .4-.9 -.6-2.5 -2-6 -1-2 1.9 1.2c.4.1 1.8 2.2 1.8 2.2l.9 2.2 .6 2 .4 1.7 .7 1.9 1-.7 -.1-1.3 -1-4.2 -.4-4.5s.6 0 1.2.7v0c.5.7.91 1.47 1.2 2.3l.5 4.1 .7 3.8 1.2 3.8 1.2 2.4 .9 1.3v-2l-1.6-16 .2-.6s.2-.1.8.7c.5.7 1 1.9 1 1.9l.5 2.5 .2 1.7 .3 3.3 .5 3.5 1.6 3.8 .9 2 .5-2.4 -.8-17.1 .4-.5s.9.7 1.2 1.3l.8 1 .6 3.8 .4 10.7 .4 2.8 3.2-28.2 2-.4 .2-.6 -1.5-1 -3.2-5 -2.1-4.9 -3.8-7 -6.6-8 -5.2-4.3v0c-.61-.47-1.25-.91-1.9-1.3l.4-1 1-1.7 -.1-.1h-.9l-2.2.4 -2.2-.7 -4.4-3 -4.6-2.3 -2.8-1 -6.6-1.6 -6.6-1h-3l-2.6.5s-1.4.6-1.8 1.5c-.5.8-.5 1.4-.4 2.6 .2 1.3 1 1.9 2.8 2.7 1.8.7 6.2 3.6 6.2 3.6l2 2.1 .8 1 .2.8 1.4 11.1 -2.8 6 -2 1Z"/><path fill="#AB6D29" d="M333.8 218.2s1.2 2 2.9.5c1.7-1.6-.8-6-.7-6.3 0-.3.7-.3.7-.3l1.3 2.2s.7 1.3.4 3.2c-.2 2-2.1 3.7-2.1 3.7l-2.2-.5 -.3-2.5Z"/><path fill="#4D2A15" d="M375.3 244.2l-1.6-4.5 -.4-3.5c0-.6-.3-7.9-.5-9.3 0-1.4 0-3-.2-3.1l-1.6-2.2 -.7-.7 .5-.3s.6.6.7.3c.2-.4 0-2-.6-4.5 -.7-2.5-3.9-8.3-3.9-8.3l.4.2 .9 1 1.8 1.5 4.1 1.5 2.2.3 1.4 2.9s1 4.9 1 7.4c0 2.4-.2 4.5-1.2 7 -1 2.4-1.2 10.3-1.3 11.5 -.1 1.3-.6 2.5-.6 2.5l-.5.3Z"/><path fill="#8F4620" d="M375.3 231.2s.8-1 1.2-2.4c.4-1.4.5-12.4-.8-13.7v0c-1.14-1.07-2.51-1.86-4-2.3 -.2 0 1 3.5 1 3.5l.8 1.4 .6 1.8c.1 1 .9 3.1 1 6l.2 5.7Z"/><g fill="#4D2A15"><path d="M369.3 238s.5-5.1.3-9c-.3-3.7-.6-4.2-1-4.9v0c-1.06-2.01-1.89-4.12-2.5-6.3 -.9-3.2-1.5-5.6-2-6.2 -.6-.6-1.7-2-2-1.6 -.3.3-.3 1.1-.3 1.1l-1.5-.4 -.4-1 .5-1.6v-.7l-.3-1.1 2 1.6 4.2 2.8 2 8.6 2 5.3 .2 9 -.2 8 -1-3.5Zm2.4-24.7s1 1 1.7 1.4c.7.4 1.8 1.1 1.6 1.2v0c-.7-.18-1.38-.45-2-.8l-1.2-.8v-1Z"/><path d="M363.7 236s.8-1.8.7-4.1v-.001c-.28-2.91-.82-5.79-1.6-8.6 -.4-.7-2-1.7-3.5-4.8 -1.5-3.1-1.3-3.8-2.3-5 -1-1-2-2.4-2-2.4l.3-3.3 3.6 1.8 1.6.8 1.8 8.7 1.6 2.5 .7 3.5 .9 8 .4 6.6 -.2.5 -2-4.2Zm-4.2-3.7s.1-2.5-.5-4.8c-.7-2.3-1.1-4-1.9-4.8 -.7-.7-2.5-2.6-4.1-5 -1.6-2.5-3.9-5-3.9-5v-3.3l2 1.5v0c.8.38 1.6.78 2.4 1.2l1 3.7 1.2 2.7 1.8 2.4 1.2 1.1 .7 4 .4 2.3 1 3.2 -.4 1.7 -.9-.9Zm-3 0l-1-.9s.6-.6.3-2c-.3-1.2-.6-2.4-1.2-3.7 -.6-1.2-.7-2-1-2.3v0c-1.47-1.38-2.97-2.71-4.5-4 -1-1-2.7-2.6-3.7-3.3 -1-.6-1.8-.8-1.8-.8l-.5-4s1.3 1.8 2.1 2v0c.69.28 1.39.54 2.1.8l2.8 5 1 1.3 2.6 2 1 2.2 .9 2.5 1 3.4 .1 2 -.2-.1Zm-5.5-1s-1.7-2-2-3.2c-.2-1.2.2-1.2-.3-2.6 -.5-1.4-2.3-3.5-3.7-4.6 -1.4-1.2-3.4-2.8-3.3-3.8 .1-.9.4-1 .4-1l.8.8 4.5 4.7 1.4 2.5 1 3.1 .7 1.5 .7 1.8 -.2.7Zm16-23.3s3.1 3.8 4 .3c.3-1.6-1.2-4.6-1.2-4.6s-2.8-5-3.8-6.2l-5.7-7.3 -3.5-1.6 1.2 2s2.6 2.6 5.9 8.4c3.3 5.7 2.7 8.9 2.7 8.9h.5Zm-17.8-23s6.1 5.2 10 10.8c4 5.7 5.5 9.4 4.7 10.2 -1 .7-3.4-.4-4.4-2 -1-1.6-1.8-4.4-5.5-8.6 -3.7-4.2-5.5-4.8-5.5-4.8l-2.7-4.3 3.4-1.3Zm-3.2 12.5s3.6 3 6 5.4h0c1.23 1.31 2.36 2.71 3.4 4.2l1.4 1.4s-.9-1.5-.4-2c.5-.6 1.1-.3 1.1-.3l-11.5-12v3.3Zm-.7.3s1.2 2.3 3 4.1h0c1.35 1.34 2.72 2.67 4.1 4l.8 2.9s-5.2-4-5.2-3 1.2 3 1.2 3l-1.6-1 -2.2-3.1 -1.3-2.8 -1.5-3.8 2.7-.3Z"/><path d="M329.5 210.2s2.7 2.4 4.2 0c1.5-2.3.3-5 .3-5s3.9 5.6 5 .3c.2-1-2.4-4.6-2.4-4.6l1-.9 1.9 3.3s1.8-.8 1.8-3 -1.9-5.3-1.9-5.3l1.8 2s3.6 0 3.7-2c0-2.2-3-4.5-3-4.5s2.4.1 2.4-1.3c0-1.4-3.4-2.4-3.4-3.3 0-.9 1-2.4 2.5-1.5 1.5.8 3.5 1.4 4.4-.2 .8-1.6-.1-2-.1-2l-2.1-.4 -3.4-1.8 -2.7-1 -2.8-.4 1 2 .8 5.8v2.6l.5 5.8 -1.4 4.7 -.7.9 -.5.6 -1.2 2.6 -1.6 1.8 -2.2 2.7 -2 2.1Z"/></g><path fill="#AB6D29" d="M348.8 220.9s-.7-1.7-2.2-2.9v-.001c-1.15-.73-2.46-1.14-3.8-1.2l4 4.2 2-.1Zm5.6 1s-1.3-2.6-2.8-4.2c-1.5-1.6-2.5-3.6-3-3.6h-.6l.4 3.3 2.7 2.7s2.6 2 3.3 1.8Zm4.6-.2s-.6-3-2.2-6c-1.5-2.8-3.1-4-3.1-4l.4 3 1.2 3 2 3 1.7 1Zm3.8-1.7s1-6.2 0-8c-.9-1.6-2.7-2-2.7-2l-.6 1 .6 4.3 1.5 3.4 1.2 1.3Zm3.7-10.3s.9.4 2 2.5h0c1.18 2.75 2.05 5.64 2.6 8.6 0 .3-.5.2-.7.2 -.2-.1-3.9-6-3.9-6l-.6-5.4h.6Z"/><g fill="#D2A567"><path d="M340.4 216.8s2-.4 2-1c0-.8-2.4-2.2-2.2-3.3 0-.5 2 .1 2.1-.3 .1-.4-2-3.6-1.3-4.4 .6-.8 2.4 3.5 2.4 3.5s1 2 .7 3.2c-1.2 3.6-3.7 2.3-3.7 2.3Zm4.6-4.4c.1-.3 3.1.4 3.1.2 .2-.7-2.7-3-2.7-3s-.6-1.2-.4-1.4c.2-.2 2 .2 2 0 .2-.3-2-3.2-2-3.7s.6 0 .6 0 1.7 1.7 2.6 3.2c1 1.4 1.8 2.6 1.5 4.9 -.4 2.5-5 .6-4.7-.2Zm13.6-4.6s-.5-2-.2-2.3l1.1-.5s-1.6-1-2.4-1c-.7 0-.8-.2-1 0 -.2.4 1.3 2.4 1.3 2.4l1.2 1.4Z"/><path d="M349.4 209.4s4.7 1.2 4.9.8c.2-.3-3.7-4-3.7-4s-.3-.6-.2-.8c0-.2 1.7-.3 2.2.1 .5.4 0 1.2.1 1.5 .2.3 1.7 2.5 2 2.1 .2-.3-.4-3-.3-3.3 .2-.2 1.8 1.6 2.3 1.9 .4.3 3 2.3 3.3 1.4 .3-1 .4-1.1.3-1.7 0-.6.9 2.6-.3 3 -1.2.4-2.6-.4-2.6-.4l-1.1-.8 -.6-.7s.7 2.5-.2 2.7c-.8.3-1.7.2-1.7.2l-2-.2 -2.4-1.8Zm10.7-3.2s5 3 5.4 2.5c.5-.5-1.2-7.5-1-8.2 .3-.6 4 7.9 2.2 9 -1.4 1-2 .3-2 .3l-2.5-1.3 -2-2.3Zm13.8 12.6l1 .5 .7.2 -1.4.2 -.3-1Zm-4.8-16.4l.7.3 .7.3s-.4.3-.6.2h-.4l-.4-.8Zm-1.4-2.5s.5.3 1.1-.2c.7-.4.7-.8.6-1 0-.2-1-.2-1.4-.5 -.3-.2-.3-.6-.3-.6h-1.1l-.4.1 1.5 2.2Zm4.3 14.4s1.5 1 2 1c.4 0 1.1.5 1 .6 0 .1-1.2.2-1.8-.1 -.6-.3-.7-.1-.7-.1l-.5-1.4Zm-8.1-22.5h.6c.3 0 .5-.2.6 0 .2.2 0 1.2-.3 1.5l-1 .5 0 0c-.56-.72-1.09-1.46-1.6-2.2l1.7.2Zm-7.1-6.4h1.5c.5 0 1 .3 1.5.6 .4.3.9 3.3.6 3.8 -.2.6-3.6-2-3.7-2.1 0-.3-1.5-2.5-1.5-2.5l1.6.2Zm-3.2-1.4s2.5.2 2.2-1.3v0c-.09-.92-.56-1.76-1.3-2.3l-2.9 2.1 2 1.5Zm-6.5-2.8s.7.4 1.4 0c.7-.2 2.6-2.7 4-3 1.4-.3 1.7-.3 2 0 .2.4 0 1.8-.2 2.2 -.3.4-4.4 2-4.4 2l-1.5-.1 -.001-.001c-.45-.14-.88-.31-1.3-.5v-.6Zm-.7-4.5c-.7-1.4-1.7-2-2.2-1.9 -.4.1 1.4 1.5 1.7 3.5 .3 2 .2 3.3.2 3.4l.8.1 .2-.7 .1-.5v-.5l-.1-1 -.2-.9 -.2-.6 -.3-.9Zm-5.8-2v0c-1.55-1.62-3.42-2.89-5.5-3.7 -.2 0 4 2.5 5 4 .9 1.7.9 3.9 1.3 4.2 .4.3.8-.2.9-.2 0 0 .3-.5.2-.7l-.2-1 -.7-1 -.4-.8 -.6-.8Zm-5.5-2.3c-2.4-2-6.6-3-10-3 -3.5-.2-5.3.2-4.8 2s2 2.8 5 2.8c2.9 0 3.6-.3 5.2.2v0c1.32.4 2.55 1.08 3.6 2 .5.5-1.1-1.5-2.6-2.6 -1.5-1.2-2.5-1.7-2.5-1.7s-.3-.7 1.7-.4c2 .3 4.7 1.6 5.5 3.3 .7 1.7.6 2.6.6 3 0 .3.7-.2.7-.2l.3-.9s0-.6-.3-1.4c-.4-.7-.5-1-1.4-2 -.9-1.1-1-1-1-1Zm-9.6 28.5c1.5 0 4.8-2.8 5.2-6.7 .5-4-1.9-11.9-2.5-12.7 -.5-.9 1-.4 1.7.4v0c1.6 3.3 2.45 6.92 2.5 10.6 0 4.2-.8 5.3-3 7.5 -2.2 2-4 1.8-4 1.8l.1-.9Zm5.1 11.6s.7 1 1.6.6c1.5-.5 3.8-1.7 3.8-3.8 0-1.4-1.8-2.7-1.9-3.2v-1l1.6.4 .5 2.2s.6.7 1.3.4c.6-.2 2.5-1.6 2.2-3 -.3-1.2-2-2.9-2.2-3.5 -.2-.7 0-1.2 0-1.2l1.6.2 .4 2s.4.6 1.3.4c.8-.1 2.4-1.7 2-2.5l-1.5-2.6v-.9l.5.4s.6.2 1.8-.1c1.1-.4 2.3-1.2 2.3-2s-1-1.6-1-2v-.6h.8l1 1.2 .1 1.4 -.3 1.2 -1.4 1.6 -1.4.6h-.4l.8 1.4 -.2 2 -1.3 1.2 -1.7 1 -.1 1.9 -1 2 -2 1.2h-.7l-.2 1.2 -1.4 2 -2.3 1.5 -1.7.3 -1-1.4 .1-.5Z"/><path d="M343.4 191.4s4 1.1 3.8-1.4c0-1.3-3.8-4.5-4-5 -.3-.6-.2-1.3-.2-1.3l1.9 1.8s2.5.6 3.2-.9c.7-1.4.1-2.3 0-2.3l.6-.1 1.1.2 -.1 2.2 -1.3 5.5s.3 2.2-1.4 2.3c-1.7.2-3.6-1-3.6-1Zm3.7 29.5s0-1.1-.8-2c-.9-.7-2.5-1.4-2.8-1.6v0c.89 1.19 1.82 2.36 2.8 3.5h.8Zm5.6.2s-2-2.4-2.3-3.3c-.5-.8-1.5-2.6-2.3-2.7 -.8 0 .8 3 .8 3l3.2 2.9h.6Zm5.4 0l-2.1-4.2c-.4-.9-1.3-3.4-2.3-4.1 -1-.7.1 1.1.1 1.1l1.1 3.3 1.9 2.9 1.3 1Zm3.9-2.4s-.1-2.7-.5-4.6c-.3-1.8-1.7-3.4-1.8-3.3v3.3l2.3 4.6Zm8.1 2l-2-4.7c-.5-1.6-1.8-4.1-2-4.2l.4 3 1.7 4.7 2 1.2Zm7-8.5s-1.2-1.2-3.9-2.3c-2.7-1-5.4-1.2-5.4-1.2l.3.4 1.3 1 2.8 1.5 3.7.9 1.3-.3Z"/></g><g fill="#202020"><path d="M348.2 213.8s0 2.4 1.3 3.8c1.2 1.5 4 4 4.6 4.6 .6.5 1 3.4 1.9 5.8 .8 2.4 1 4.4 1.4 5.1 .4.7 1.1 1.8.5 1.7 -.5-.1-1-.8-1.4-1.7 -.3-.9-.2-.9-.2-2 0-1.3-1.8-7.5-2.7-8.1 -.9-.7-4.8-4-6.4-6.3 -1.5-2.3-1.2-2.8-1.2-2.8h2.2Z"/><path d="M354.6 229.3c-.8-1.7-1-3.3-1.2-4.3v0c-1.19-1.67-2.68-3.1-4.4-4.2 -.6-.3-1.9 0-2.4-.3l-3.7-4s-.5.5-.3.6c.1.1 3.4 3.7 4.6 4.8 1.2 1.2 1.9 3.7 2.7 5.7 .9 2 .5 1.6.6 2.5 .1 1 .7 1.5 1.3 1.5 .6 0 .8-.2.6-.4v0c-.97-1.01-1.72-2.2-2.2-3.5 -.7-1.7-1.5-4.9-2.5-6l-.3-.3 1.3-.2c.8 0 4.1 3 4.4 4 .3.8 0 1.2 1.4 4.2s2 3.7 2 3.7h.2s-1.2-2-2-3.8Zm-5.2-19.9s2.5 1.5 3.2 1.7v0c.39.12.79.22 1.2.3 0 0 .4 4.4 2.1 6.8 1.8 2.5 3.2 3.4 3.2 3.4s0 4.8 1.4 8c1.3 3.3 1.5 7.3 1.2 8 -.3.6-1.4-2-2-4.3l-2-6.2v0c-.54-1.62-1.39-3.12-2.5-4.4 -.8-.7-.2-.6.3-.2 .4.4 1.7 2 2.5 4.5s1.1 5 1.5 5c.5 0 .8-.3.8-.9 0-.4-.6-1.8-1-4.1v0c-.18-1.62-.58-3.2-1.2-4.7 -.4-.6-1-.7-2.4-3.4v0c-1.09-1.64-1.93-3.43-2.5-5.3 -.2-1.2 0-1-.2-1.3 -.2-.1-.4 0-1.6-.6 -1.1-.6-2-2.3-2-2.3Z"/><path d="M355.7 208.5s1.4 1.2 2.3 1.5c.8.4 2 .4 2 .4s-.3 4.2 1.3 6.9 3.3 4.2 3.3 4.2 .3 1 .8 6.8l.7 8.3c.1 2.3.2 10.6-.1 10.3 -1.3-1-.2-5.4-.9-7.3 -.6-1.8-1.6-2.1-2.8-7.4 -1.2-5.2-.4-6.4-1.3-8.3 -.9-2-2-2.2-2-2.2s1.6.4 2.3 2c.6 1.6.7 6 1.3 8.2 1.2 4.9 2.9 7.4 2.9 7.4s-.4-6.2-.8-9.7c-.5-3.5-.5-6.4-1.1-7.7 -.7-1.4-2.1-2.4-3-4.2 -.8-1.8-1.1-5.3-1.5-6.2 -.4-.9-.6-.6-1.2-.8 -2-.8-2.2-2.2-2.2-2.2Z"/><path d="M360.1 206.2s1.3 1.5 3.1 2.6c1.8 1 2.8.7 3 1 .3.2-.3 3.8 1.6 7.2 1.9 3.4 2.6 3.5 2.6 4l.6 13.9c.3 3.4.5 14.8-.9 14.8s-.1-8.5-.8-10.4c-.7-2-.7-1.4-1.3-3 -.7-1.6-.7-7.8-1.8-11.5 -.8-2.8-1.6-3.2-1.6-3.2s1.4.7 2 3c.6 2.2.8 10 1.5 11.1 .8 1.3 1.8 2.8 2 4h0c.12-5.21-.01-10.41-.4-15.6 -.3-1-3.5-6.6-3.7-9.7 -.3-3.2-.4-3.5-.7-3.7 -.2-.3-1.1 0-2.6-1.5 -1.5-1.4-2.6-3-2.6-3Z"/><path d="M367.3 208c0-.3 1 1.7 3.7 2.8 2.9 1.2 5.6 1 6 1.3 .3.3 2 4.5 2.1 10.2 .1 5.6-1 5.1-1.8 10 -.9 4.9-1 14.8-1.5 16.3 -.2.5-.5.8-.8 1.7 -.3 1 .2 2.8-.7 2.8 -.8 0-1-1.4-1-2.1 0-.8 1-3.5 1-6.2s-.6-3-1-6.2c-.4-3.3-.4-13.5-.8-14.5 -.3-1-2.1-3.1-2.1-3.1s1.9 1.2 2.4 2.6c.4 1.3.5 12.7 1 15 .5 2.4.3-.5.5-1.8s.9-7 .8-10c-.1-3-1.4-9.4-2.4-10.5 0 0 .5.6 1.1 2 0 .1.4.5.8.7l1 .5s-.6 0-1-.3c-.4-.1-.6-.4-.6-.4v0c.88 2.57 1.32 5.27 1.3 8 .1 5.2-.7 16.4.1 16.5 .8.2.7-6 1.5-11.2 .8-5 2-5.8 1.6-9.9 -.3-4.1-1.4-8.6-2.3-9.2 -.9-.5-3.4-.3-5.6-1.8 -2.2-1.4-3.4-2.9-3.3-3.2Zm-35.8 5.7s.8.4 1.7 0c1-.5 3.5-2.5 3.5-3.3v-1.6s0 .3.7.4c.8.1 2.8-1.4 3-2.4v0c.16-1.03.13-2.09-.1-3.1 -.2-.4.6.3 1 0 .4-.4 2.4-1.7 2.4-3 0-1.4-1.1-2.6-1.1-2.6s1 .2 1.6 0c.5-.1 2.5-1.3 2.4-2.4 0-1.2-.7-3-2.3-3.2 0 0 1.2.3 2.3-.1 1-.4 1.5-1 1.5-2.3 0-1.2-2.3-4-2.6-4.2 -.4-.2 2.4.8 3-.3 .8-1.1.9-1.9.7-2.5 -.2-.7-.8-.8-.8-.8s1.2.3 2.8-.5c1.6-.8 3-2 3.8-1.9 .8 0-2.3 1.7-2.5 2.6 0 .4.9 1 2.3 2 0 .1 0 .2.2.3 .7.3 3 .4 3.3.5 .2.2-2.4.1-2.2.3v0c2.1 1.57 4.01 3.38 5.7 5.4 .1 0 .5.4 1 .5l1.3.3h-1.6v0c1.16 1.51 2.26 3.08 3.3 4.7 0 .1.4.6.9.8 .5.2 1 .1 1.1.2 .1.2-1.4 0-1.3.2h-.001c1.18 1.95 2.28 3.95 3.3 6 0 0-3-5.3-6.7-9.5 -3.8-4.2-4.7-4.7-4.8-4.4 -.2.4 2.7 4.1 4.3 6.7 1.6 2.6 3 5.9 3 5.9s-3.7-7.8-9-12.6c-5.2-4.8-5.8-5.5-6.3-5.4 -.6.2-1 3.8-.7 4.5 .3.7 4.2 3.6 7.4 7.5 3.3 3.8 7.5 10.4 7.5 10.4s-3-4.7-8-10 -6.9-6.6-7.3-6.5c-.4 0-.4 1-1 1.8 -.6.7-1.8.6-1.8 1s4.2 4.3 5 4.7c.9.5 1.4.3 2 .6l1.4 1 -1.6-.5c-.6-.2-1.3-.3-1.3 0s3.5 4.3 4 4.6c.6.3 1 .1 1.7.4 .8.3 2 1.1 2 1.1s-1.3-.7-2.1-.8c-.9-.2-1.2 0-1.2.2s2.6 3.6 2.5 3.6c-.1 0-4-4.6-7.3-7.5 -3.3-3-4.8-3.6-5-3.5 -.2.1 0 1-.9 1.3 -.8.3-1.5.4-1.5.7 0 .3 3 3 5 5.4v0c1.36 1.47 2.69 2.97 4 4.5l-4.5-4.3c-2.3-2.2-3.5-3-3.8-3 -.2.2-.2 1.3 0 1.6 .2.3 4.6 5.4 4.4 5.5 -.1.2-5-6-5.4-6 -.3 0-.5.7-.8 1 -.4.4-1.8.4-1.8 1 0 .4 7 7.3 6.9 7.5 0 0-5.8-5-6-4.7 -.2.3 2.4 5 2.2 5.2 -.1 0-3.4-5-3.7-5 -.3 0-.2.6-1 1.3 -1 .8-2 .4-2 .8 0 .3 4.8 5.7 4.7 5.8 -.2.1-5-5.1-5-4.8 -.1 0-.4.3-.2.7 .3 1.3 1.4 3.6 1.3 3.8 0 0-1.6-3.2-2-3 -.4 0-.4.7-1.2 1.1 -.7.5-1.3.4-1.3.7 0 .3.8 1 1.2 1.7 .4.7.7 2.4.7 2.4s-.5-1.4-1.1-2.3c-.7-.9-1.3-1.5-1.9-1.5 -.6 0-.8.5-.8.5l-.5-1.2Z"/><path d="M377 212s1.5 0 1.7-.4c.2-.3-.6 0-2-1.6s-5-12.1-9-17.4c-6.6-8.7-12.7-12.7-12.7-12.7s7.3 4.2 13 12.4c5.6 8.4 7 14.9 8.6 16.6 1.6 1.7 3.2 2 3 2.5 0 .5-.3.8-.9 1l-2 .1 .2-.4Zm-48-2.2l.3.1c.3 0 2.3-1.9 2.2-2.5 0 0-1-.3-1.6-1 -.7-.8-.9-1.9-.9-1.9s.7 1.3 1.2 1.6c.6.4 1.4.6 1.8.3 .3-.2 3.2-2.4 3-3.2 0 0-.9 0-1.8-.6 -.8-.6-1-2-1-2s.6 1.1 1.5 1.5c.8.4 1.7.3 2 0 .2-.3 2-3 1.8-3.7 0 0-1 0-1.8-.5 -.9-.6-1.3-2.2-1.3-2.2s.6 1.3 1.7 1.5c1.1.3 2-.4 2.2-1.2 .2-.8.8-3.7-.2-4.5 0 0-1.4.5-2.4 0 -1-.6-1.4-1.9-1.4-1.9s.9 1.2 2 1.4c1.2.1 1.7-.5 1.9-1v0c.22-1 .19-2.03-.1-3 -.4-1-1.1-.8-1.3-2.2 0 0-.3.5-1.8.5s-2.3-1.6-2.3-1.6 1.2 1 2.4 1v0c.93-.15 1.61-.96 1.6-1.9 0-.7-.6-1.4-1-2.1 -.2-.8-.3-1.7-.5-1.6 -.2 0-.5.8-2 .6 -1.5-.3-1.8-1.3-1.8-1.3s1 .7 2 .7c.8 0 1.3-.5 1.3-1 0-.6-.3-1.7-2.2-3.3v0c-1.14-.95-2.3-1.85-3.5-2.7v0c1.83 2.18 4.07 3.98 6.6 5.3 0 0 1.7.6 2 0 .1-.6.1-1.4-.5-2.4 -.5-1-2-2.6-2-2.6s1.6 1.3 2.3 2.7c.8 1.3.4 2.2.5 2.6 0 .3 3.3 1.6 4 1.1 .8-.4.5-1.4-.2-2.3l-1-1.8s.7.8 1.2 1.8c.6 1 1 1.7.8 2.1 -.2.5-.6.7-.6.9l2.3 1.3c1 .6 2.3 1 2.5.8 .2-.4.3-1.1.2-2.2 -.1-1-.7-2.7-.7-2.7s.7 1.6.8 2.7c.1 1.1-.1 2 .1 2.4 .3.4 1.1.5 1.1.5s-.6.4-2 0c-1.5-.4-7.7-3.6-8-3.3 -.3.4 2.9 2.3 4.3 3.7 1.5 1.3 2.2 2.8 2.2 2.8s-1.1-1-2.2-1.6c-1.1-.6-4.4-2.3-4.7-2 -.2.2 1.3.5 1.4.7 .1.3-1 1.3-1 1.8 0 .4 4.7 3.7 4.5 4 -.1.4-1.2 1.3-1.4 1.2 -.1 0-2.5-1.8-2.5-1.6 0 .2 1.4 1.5 1.4 1.7 0 .3-1 .8-.8 1.4 .2.6 2.6 2.6 2.6 3.3 0 .7-1.4 1.3-1.1 1.7l1.5 2s-1.4-.9-1.8-1.4c-.4-.4-1.3-1.5-1.5-1.3 -.1.1-1 2-1 2.5 .2.4 1.3 1 1.5 2.3 .2 1.1-.2 2.4-.3 2.4 0 0-1.6-2-2-2.1 -.2 0-.6.1-.9.6 -.3.5-1.2 2.1-1 2.4 0 .3 1.6.7 1.6 1.9v0c-.03.86-.39 1.68-1 2.3l-2.1-2.4c-.2 0-2.2 2.3-2.3 2.6 0 .2 1.4 1.3 1.2 1.7 -.3.4-1.3-.2-1.8.1l-1.7.7c-.2 0-.5-.6-.5-.6Z"/><path d="M355 180l.5-1c.3-.3 1.5-1.7 1-2 -.4-.2-2 .3-3 .2 -1 0-1.7.2-4.6-2.3 0 0-9.3-6.4-23.6-7.3 -4.6-.2-6.6 1.4-6.8 2.2 0 .2 1.2-1.8 5.7-1.7 2 0 16.5 1.1 24 7 .4.3 2.9 2.7 5.2 2.4 2.3-.2 2.8-.5 2.7-.2 0 .4-.7 1.2-.9 1.6l0 0c-.13.36-.23.72-.3 1.1Zm-25 2v-.2c-.2-.4-1.1-1.7-2.7-3.1v0c-2.49-1.76-5.17-3.2-8-4.3 -.3-.1 6 2.9 7.7 4.5l3 3Z"/></g><path fill="#D2A567" d="M330 192.2s-.4-.6-1.7-1.4h-.001c-.78-.49-1.62-.86-2.5-1.1l3 .7v0c.49.51.87 1.12 1.1 1.8Zm-.8-5.3s-.4-.6-2.1-1.2c-1.7-.6-2.2-.5-2.2-.5s1.6-.7 2.8 0v0c.7.29 1.24.87 1.5 1.6Zm-1-4.5s-.4-.8-2-1.3c-1.5-.6-2.6-.7-2.6-.7s1.6-.4 3.2.2c1.5.6 1.4 1.8 1.4 1.8Zm-2-2.8s-.4-.6-3.3-1.3c-3-.7-4-.7-4-.7s4.1-.4 5.2.1c1.1.5 2.2 1.9 2.2 1.9Zm-5.3-3s-1.8-.6-3.5-.7c-1.7-.1-4.4.1-4.4.1s5-.8 6.3-.5c1.4.3 1.6 1 1.6 1Z"/><g stroke-width=".3" fill="#F8C83C" stroke="#977C2E"><path d="M304.5 238.4s.9 1.6 2.6 1.6c1.8.1 3.1 2.6 3.1 2.6l-1.9 1.9 -4.6.2 -1.5-2.4 2.3-3.9Zm0-1.6c.2-.3-1.3-3.3-2.4-3.8 -1-.5.4 1 .2 1.6 -.3.6-.4 1.4-.3 1.5 0 0 .9 1.4.4 2 -.4.5 2.2-1.3 2.2-1.3Z"/><path d="M303.8 241.4s.8.4 1.4.2c.7-.2 1.3-.9 1.3-.9m-3.6-.5s2.6-1.9 2.4-2.9c-.2-1-.7-1-1-.9v0c-.81.42-1.52 1-2.1 1.7 -.1.3.7 2.1.7 2.1Z"/><path d="M301 241.5s.6 1.3 1.4 1.3c.8 0 2-.7 2-1.2 .1-.5-.8-1.5-1.3-1.7 -.6-.3-1.9.4-1.9.4l-.1 1.2Z"/><path d="M303.4 239.8c0 .4-1.7 1.2-2.3 1.2 -.5 0-1.6-1.3-1.2-1.5l1.5-.4c.4-.2.5-.8.7-.8 .3 0 1 .1 1.1.5 .2.5.4.6.2 1Z"/><path d="M301.8 240.9s-2.6 3.4-3.7 3.3c-1-.2.5-5 .5-5l1.2.6c.9.2 1.7.6 2 1Z"/><path d="M297.2 238.4s3.3.6 3.4 1.1c.2.6-1.5 1.3-2.5 1.3 -.9 0-.9-2.4-.9-2.4Z"/></g><path fill="#202220" d="M289 243.4s.5 1.6 1.9 1.7c1.4 0 2.8-1.5 2.8-1.5l-3.4-1.3 -1.3 1.1Z"/><path fill="#4B4139" d="M289 243.4l.4.9c.3.4.7.8 1.5.9h.1c1.4 0 2.7-1.6 2.7-1.6l-3.4-1.4 -1.4 1.2h.1l1.3-1 3.3 1.3v-.1l-.2.2c-.4.4-1.4 1.2-2.4 1.2h-.1v0c-.57-.04-1.09-.33-1.4-.8l0-.001c-.13-.19-.23-.39-.3-.6v-.1l-.1-.1Z"/><path fill="#202220" d="M290 243s.5 1.2 2.4 1.2 3.3-1.5 3.3-1.5l-3-2.3 -2.7 2.6Z"/><g fill="#4B4139"><path d="M290 243s.5 1.2 2.4 1.3c2 0 3.4-1.5 3.4-1.5l-3-2.5 -3 2.7h.2l2.8-2.5 2.9 2.3v-.1 0c-.87.83-2 1.33-3.2 1.4v0c-.72.04-1.43-.17-2-.6h-.001c-.12-.13-.22-.26-.3-.4v-.001c-.04-.04-.07-.07-.1-.1h-.1Z"/><path d="M290.2 243.3s.9.6 1.8.7c1 0 2.2-.3 2.2-.3l-1.1.4 -.8.1 -.8-.1 -.6-.3 -.6-.4v-.2Z"/></g><path fill="#202220" d="M292.4 241.6s.8 2 2.6 1.8c1.7-.2 1.7-1.2 1.7-1.2l-2-2.8 -2.3 2.2Z"/><g fill="#4B4139"><path d="M292.4 241.6l.5 1c.4.4 1 1 1.8 1l.3-.1c.8-.1 1.3-.4 1.5-.7 .3-.3.3-.6.3-.6l-2-3 -2.5 2.4h.1l2.4-2.1 1.9 2.7c0 .2-.3 1-1.8 1.1h-.2v0c-.66 0-1.29-.3-1.7-.8v0c-.16-.19-.29-.39-.4-.6v-.2l-.001-.001c-.04-.04-.07-.07-.1-.1h-.1Z"/><path d="M292.6 242s1 1.3 2 1.3v0c.52 0 1.04-.14 1.5-.4v.1l-.5.3 -.8.1h-.8l-.7-.5 -.6-.9Zm-3.2 2s.8.9 1.5.9v0c.66-.07 1.31-.27 1.9-.6h.1l-.2.1 -.8.4 -.9.3 -.7-.1 -.6-.4 -.3-.4v-.2Z"/></g><g stroke-width=".3" fill="#F8C83C" stroke="#977C2E"><path d="M297 238.3c.8-.2 2.4 2 2.4 3.2 0 1.2-.5 2.7-1.3 2.7s-2.6-1.7-3-2.5c-.4-.9-.8-1.4-.5-1.9 .3-.4 2.4-1.5 2.4-1.5Zm-8 .2s-1.4-1-1.9-.5 -.3 2.3 0 2.6c.4.4 2-.8 2-.8l-.2-1.3Z"/><path d="M288.8 239.7s-1.8.2-1.8 1 .9 1.6 1 1.8c.2.1 1.8-.7 1.8-.7l-1-2.1Z"/><path d="M289.5 241.1s-1.8.6-1.8 1.2 .8 1.7 1.3 1.7 1-1 1.2-1.3c.3-.2-.7-1.6-.7-1.6Zm.8-5.1s-.3-.5-1-.2c-.8.3-1.6 1-1.5 2.3 .1 1.1.6 2 .6 2l2.7-1 -.8-3.1Z"/><path d="M290.5 238s-2.2.8-2.3 1.7c-.1.9.5 1.7 1 2 .7 0 2.6-1.8 2.6-1.8l-1.3-1.8Z"/><path d="M292.5 241.7s-2.2 1.5-2.5 1.5c-.3 0-1.2-1.2-1-2 .2-.8 1.7-1.3 2.3-1.6 .6-.2 1.2 2.1 1.2 2.1Zm2-8.2s-.7-.6-2-.5c-1.4.1-2.4 2-2.6 2.8 -.2.9 0 2.6.5 2.8 .5.3 3.3-2 3.3-2l.8-3Z"/><path d="M291.8 240.3c-1-.1-1.8-1.5-1.7-2.3 .2-.8 2-2.2 3-2 1 .1.8 2.5.8 2.5s-1.2 1.9-2.1 1.8Z"/><path d="M294.7 240s-.4 1.2-1.4 1.7c-1 .4-1.5 0-2-.7 -.6-.8.2-1.2.6-1.6 .5-.4 1.7-.7 1.7-.7l1.1 1.4Z"/><path d="M293.2 237.2s-1 .8-.4 1.8 1 1.4 1.8 1.5c.8.1 1.3-.2 1.9-.9 .6-.7 1.5-1 1.4-2 -.1-.9-.4-1.6-1-1.8 -.5-.3-2.2 0-3.7 1.4Z"/></g><path fill="#202220" d="M296.2 233s-1-.5-1.9 0c-.8.5-1.4 1.5-1.5 2.4l.2 2.3s1.2-.4 2-1c.7-.6 1-.8.8-1.1 0-.2-.4-.4-.4-1.2 0-1.4.8-1.5.8-1.5Z"/><path fill="#4B4139" d="M296.2 233s-1.2-.3-1.9.1v0c-.66.45-1.12 1.12-1.3 1.9 -.3.8-.1 1-.1 1v-1.4c.4-.8 1-1.5 1.6-1.7 .8-.3 1.7 0 1.7 0Z"/><g stroke-width=".3" fill="#F8C83C" stroke="#977C2E"><path d="M328.8 257l1.6-.8 2-1.2 .4 2.2 -1.8 1.4h-1.5l-.9-.7 .2-1Z"/><path d="M326.4 257.2h1c1.1 0 1.2-.3 1.4-.3 .2.1.5 1.3.5 1.3l-.4.7 -1.5.9 -1.3-.8 -.1-1.8h.4Zm12.1-.8s-.3-.5-.9-1l-2.2-1.9v5l2.3-.1 1.1-1.5 -.3-.5Z"/><path d="M326.4 257.2s-.4-.5-1.3-.4c-1 0-2 .9-2.1 1.5 -.1.7 0 2.6.5 3 .5.4 1.2.5 2.2.3 1-.3 6.4-3.6 6.4-3.6l-1.4.3c-.7.2-1.4-.1-1.4-.1s-.7.8-1.6 1c-.8 0-1-.5-1.2-.9l-.1-1.1Z"/><path d="M330 258.9l-1.2.5 -1.3.6 .4 1.6 2.3.5 1.4-1.1v-1.6l-1.7-.5Zm10.4-1.2l-.8-.8c-.4-.4-1-.5-1-.5l-1.3 1.5v1l1.2.7 .9.2 1.1-.8 -.1-1.3Z"/><path d="M332.6 257s-1 .4-1.5.8l-1.2 1c0 .2 1.1 1.4 1.1 1.4l1.2.1 2.5-1.7 -.2-1.6h-1.9Zm9.5 2l-.5-.7c-.4-.4-1-.6-1.2-.6 -.3 0-1.3 1.5-1.3 1.5v.4l.8 1 1.6.5 1.1-1.2 -.5-.9Z"/><path fill="#F8C83C" stroke="#977C2E" stroke-linecap="round" stroke-linejoin="round" stroke-width=".3" d="M338 260.8l1.2.2s0 .3.3.5c.3.3.3 0 .3 0s.2 1.2 1.4 2c0 0 1.4.6 2 .2 .8-.4.7 0 .7 0l2-2.4s0-.5-.5-.5c0 0 .4-1.6-1-2 -1.2-.2-2.2.2-2.2.2s-1 1.8-1.6 1.6h-.001c-.3-.12-.57-.29-.8-.5l-.7-.9s-.4.1-.9-.2c-.5-.3-.9-1.1-.9-1.1s-.7-.1-1-.4l-.5-.8 -1.9 1.4s0 .5-1.1 1.3 -1.7.8-1.7.8 -.4 1.7-1.6 1.4c-1.2-.3-2-1.6-2-1.6s-.9-.2-1.4.6c-.6.7-.9 1-.9 1.7 0 .8.5 1.8 1 2.2 .3.3 1.5 1.3 3 .6 1.4-.8.9-2 .9-2l.8-.5c.9-.6 1.8-1.5 2.5-1.7"/><path d="M335.8 250.8v3.2s.4 2.9-.2 3.7c-.6 1-2.9.7-3.2 0 -.3-.8-.2-3.2-.2-3.2l3.6-3.7Z"/><path fill="#F8C83C" stroke="#977C2E" stroke-linecap="round" stroke-linejoin="round" stroke-width=".3" d="M333.3 260.5s-.5.8 1 1c.4 0 .7-.2.9-.4 .4-.4.3-.8.3-.8s-.2 1.2 1.2 1.2c1.4.1 1.3-1.3 1.3-1.3"/></g><path fill="#202220" d="M321.2 263.1s-.8-1.4.1-1.9c1-.5 1.5 0 2.1 0 .6 0 .4-1.4.3-1.7v0c-.16-.45-.4-.85-.7-1.2 -.2-.2-3.5.2-3.4 2.3 0 2.1 1.6 2.5 1.6 2.5Zm5 5.2s-1-1.5-.4-2.4c.5-.9 1-.3 1.2-.4 .3 0 .4-.6 0-1.6 -.5-1-1.1-1.4-1.4-1.5 -.4 0-2.3 1.4-2 3.2v0c.27 1.32 1.28 2.37 2.6 2.7Zm18.2-1.8s3.5 1.5 3.7-2c.2-2-1.5-3.3-2-3.3 -.4 0-.7.3-1.3 1 -.7.8-1.1 1.3-.9 1.6 .3.3 1.3-.3 1.8.8 .7 2-1.3 1.9-1.3 1.9Z"/><path fill="#4B4139" d="M326.2 268.3s-2.7-.6-2.7-3.3c0-1.8 2-2.6 2-2.6s-1.8 1-1.8 2.6c-.1 2.7 2.5 3.3 2.5 3.3Zm-5-5.2s-1.6-.3-1.7-2.6c-.2-2.3 3.5-2.2 3.5-2.2s-3.5.2-3.4 2.4c.2 2.2 1.6 2.4 1.6 2.4Zm23.2 3.4s.7.3 1.5.3 1.8-.3 2-1.6c.4-1.3.3-2-.6-3.1 -.6-.9-1.2-.8-1.2-.8s.6 0 1 .8c.6.8 1.3 1.6.8 3.1s-2 1.5-2.5 1.5v0c-.34-.04-.68-.11-1-.2Z"/><path fill="#904720" d="M302.6 192.4l-.6-.2 .4-1 1.9-.7 1.8-.1 2-.1 .8.6 1 2.3 -3.6 2.2 -.6.2 -.2-1 -.6-1.4Z"/><path fill="#202020" d="M337 245.5l-.3-5.5 -14.8 4.6 5.8 5.5Z"/><g fill="#D2A567"><path d="M309.4 235.9l-1.2-1 -1.4-.8h-1.1l-.2.3 .2.5 1.3 1.6 2.3 1.2 .8.7 .5.2 -1.1-2.7Zm-.3 2.3l.8.2 .9 1 .5 1 .7 1.3 .2.8 -1.6-.3 -4.8-1.5 .4-1.2 .8-.7 .7-.3 1-.2Z"/><path d="M312.2 242.2h.8l.6-.5 -.3-1.8 .3-5.8 -3.9-4.6 -.8 2.6 1.1 4.7 .9 2.8Z"/></g><path fill="#AB6D29" d="M309.4 231.7s-.2.4.1 2c.3 1.5.9 4.9 2.2 7.2l-1.3-1.9s-2-4.6-1.7-8.2c.3-3.5.7.8.7.8Zm2.9 2.9s-.9 1-1 1.9v2.2s0-1 .8-1.3c.9-.3.7 2.3.8 2.6l.5-4.7 -1.1-.7Zm.4 9.6l-4.4-1c-2.3-1-3.5-1.8-3.4-2.3 0-.6 4 .1 4.6.2l2.4 1h1l1.9-.8 .2 2 -2.3 1Zm-7.3-.8s1 .8.5 1v0c-.73.3-1.53.4-2.3.3l4.2 1 .9-.7 -3.3-1.6Z"/><path fill="#D2A567" d="M304.2 242.2c.2-.2.3.7 1.8.8 1.5.2 2.2-.2 2.2-.2l.7.4 .8.2 -.7 1.1 -2.8-.8 -1.5-.8 -.5-.7Z"/><path fill="#AB6D29" d="M314 240.3l.8 1 .5-2.4v-2.5l-1.6-1Z"/><path fill="#4D2A15" d="M309.7 236.1l-1.3-2.1 -1.7-3.1 1-1.8 1.3 1.8s-.4 1.3-.1 2.5c.2 1.2.8 2.7.8 2.7Z"/><path fill="#D2A567" d="M300.8 244s.6-.9 1.9-1h-.001c.8-.07 1.61 0 2.4.2l2.6 1.4 .6.9 -5-.7 -2.5-.8Z"/><path fill="#8F4620" d="M314 235l.2 4c0 1 .7 2 .6 2.3 -.2.4-.4.6-1 .9 -.6.2-2 0-2 0s1.3-.2 1.4-.5c0-.2-.4-1.4-.5-2.4 0-1 .1-2.2-.3-2.2 -.3 0-.7.4-.8.6 0 0 .4-3.8.8-4.2 .4-.4 1.6 1.6 1.6 1.6Z"/><path fill="#AB6D29" d="M304.7 243s-.5-.4-.5-.8c0-.3.6 1.6 3.4 1.5 2.8 0 2.6-.2 2.6-.2h1.3s-.3 1.3-.5 1.4v0c-.75.45-1.48.91-2.2 1.4l-.7.4v-.2l-.3-2.1 -2.4-1 -.7-.4Z"/><path fill="#8F4620" d="M309.7 236.1s-3.2-3.3-4.3-5.5c-1-2.2-.4-5.2-.4-5.2l3 4s-.4.7-.3 2c.2 1.2 2 4.7 2 4.7Z"/><path fill="#AB6D29" d="M307.6 248.3c0-.3-.2-1 .4-1.8 2-2.4 6.8-4 6.8-4v2.8l-6.2 3h-1Z"/><path fill="#8F4620" d="M308 246c.3-.1 1.4-1 1.4-1.3 0-.4-.7-.4-2.1-.7 -1.5-.3-2.6-1-2.6-1s1.7 1.4 2.4 1.7c.7.2.6.5.5.7l.4.6Zm8.3.7s-.9-1.3-1.2-2.1c-.3-.8-.3-2.1-.3-2.2l-1 .7 -2 .7s2 0 2 .6c0 .7-3 1-3 1 0 .1 2.4-.4 2.3.1 -.2.6-1.2.7-2.5 1.2l-2.3 1 -.7.5s.6.4 1.5.3c.9 0 2.9-.5 2.9-.5l3.8-1.5 .5.2Z"/><path fill="#AB6D29" d="M316.3 246.7s-1-.3-1.8-4.8 -.6-5.7-.6-5.7l1.8 1.3 1.7 3 -1.1 6.2Z"/><path fill="#8F4620" d="M316.9 239.3s-.9 2.5-.9 4c0 1.4-.1 2.4.3 3.4s1.8 2.3 1.8 2.3l.7-.6 .3-2 .1-3.4 -2.3-3.7Z"/><path fill="#202020" d="M319.4 242.7s.4 6.3-1.2 6.5c-.7 0-1.9-2.4-1.9-2.5 0 0 1.4 2.3 2 2.1 1-.4.6-6.6.6-6.6l.5.5Zm-3.1 4s-.3 0-.7-.8c-.4-.7 0 .6-3.4 1.8 -3.4 1.2-4.6.5-4.6.5s1.1 1 4.5 0 3.1-1.3 3.6-1.4h.6Z"/><path fill="#AB6D29" d="M310 238.7s.6.5 1.2 1.7v-.001c.33.66.66 1.33 1 2h.2s-.4-1.3-1-2.2l-2.2-3.1 .8 1.6Z"/><path fill="#8F4620" d="M308 246.5s.3-1.1 0-1.4c-.3-.2-.7 0-3-.2v0c-1.42-.22-2.83-.52-4.2-.9 0 0 1.6 1 3 1.4l3.5.8 .5.1 .2.2Z"/><path fill="#202020" d="M308 246.5l-.2-.5c-.3-.3-.7.1-3.5-.7 -2.8-.7-3.5-1.3-3.5-1.3s1 1 3.4 1.5l3.8 1Z"/><path fill="#AB6D29" d="M309.3 238.2s-2.1.1-2.8.7c-.7.5-1.6 2-1.6 2l1.3.1s-.1-1.2.5-1.9c.7-.6 1.7-.7 2.6-.9Z"/><g fill="#8F4620"><path d="M305.3 234.2s.8 1.2 1.7 1.5c.9.4 1.8.8 2.2 1.2 .4.4.9 1.8.9 1.8s-3-1.3-3.7-2v0c-.49-.78-.86-1.62-1.1-2.5Z"/><path d="M308.2 235s-.3-.5-1.1-.9 -1.4-.3-1.7-.1c-.3.2-.1.2-.1.2l1 1.7 .7-.2s-1.6-1-1.3-1.3c.8-.7 2.5.5 2.5.5Z"/></g><path fill="#202020" d="M316.3 231.1l17-8.7 8 11.1 -14.7 4 -7.7.6 -3.8-2.7Z"/><g fill="#4D2A15"><path d="M339 235.9l21 18.2 -2.3 1.6 -5-1.4 -10.2-10.1 -3.8-3.8Z"/><path d="M366 250.5l-12-9.1 -15.3-11.5 .4 5.5 17.4 16 5.7 2.7 3-.8 1.4-1.6 -.6-1.2Z"/></g><path fill="#803F1D" d="M339 237.6s6 6.9 10.6 10.4 9 7.3 10 6.7c.8-.5.5-1 .5-1l-21.3-17.5 .1 1.4Z"/><path fill="#4D2A15" d="M353.8 255.1l-2.1 1.7 -2.5-1 -13-13.2 .7-2.5 1.8.3Z"/><path fill="#202020" d="M366 250.5s-1.6 3.8-5 2.9c-3.4-.9-22-18.5-22-18.5v1.8s18.8 17.3 22.5 18c3.6.7 6.6-2.5 6.2-2.8v0c-.56-.49-1.13-.95-1.7-1.4Z"/><path fill="#803F1D" d="M336.9 240.4s6 7.7 9.1 10.5c3.2 2.9 6 5 7.2 4.8 1.3-.2-.7-1.7-.7-1.7l-9.1-9 -4.7-4.6s-1.8-.7-1.8 0Z"/><path fill="#202020" d="M338.4 240.4s15.2 15.5 16.4 15.9c2.5.7 6.2-2 6.2-2l-1.3-.7 -.2.5s-.7 1.6-4 .9c-3.2-.7-16.6-15.1-16.6-15.1l-.5.5Z"/><path fill="#4D2A15" d="M344 255.3l-5.5-6.4 -1.2-2.1 -.3-2.7 11 11.1 -1.5 1 -1.4-.4Z"/><g fill="#202020"><path d="M354.1 255.5s-1.3 2-3.2 1.6h-.001c-1.09-.27-2.07-.86-2.8-1.7l-10.6-10.4 -.3-1.6s11.7 12.3 13.7 12.8c1.6.4 2.7-1.4 2.7-1.4l.5.7Z"/><path d="M348.2 255.1s-.5 1.6-2 1.4c-1.6-.3-2-.9-2-.9l-6.6-7.7 -.1-2s6.8 9.3 8.3 9.8c1.6.5 2-1 2-1l.4.4Z"/></g><path fill="#B07229" d="M341.3 234.9s6.3 5.4 6.8 5.6c.5.3 2.7.4 2.8.7 .2.3-1.4 0-1.5.3 -.1.4 3.2 3 3.7 3.1 .5 0 3.2 0 3.1.4 0 .3-1.8 0-1.9.4 0 .4 2.9 2.7 3.4 2.8 .5 0 3.9 0 3.9.4 0 .3-2.7 0-2.7.5 .1.6 4.6 3.4 4.4 3.8 -.2.4-5.4-3.5-5.5-3.3 -.2.2-.4 1.4-.7 1.6 -.3.2 0-1.6-.2-2.4 -.3-.8-3.4-3.1-3.7-2.9 -.3.3 0 1.7-.4 1.7s.1-1.7-.2-2.3v0c-1.05-1.18-2.26-2.19-3.6-3 -.4 0-.1 1.3-.4 1.5 -.3.2-.2-1.5-.6-2 -.4-.5-7-6.5-6.7-7Z"/><g fill="#4D2A15"><path d="M330.5 252.3s0 2.4-1 2.8c-1.1.3-3.1-4.4-3.1-4.4l-.5-4.4 3.1 3 1.5 3Zm8.4-1.2V250c0-.6-.3-1.5-.3-1.5l-.2-2.4 -.6-1.7 -.4-1h-.7l-1.7 1.2 -.5 1.6 .8 3 .8 2.7 1.3.4 1.5-1Z"/><path d="M336.8 255.3c.3-.1-.4-3.4-.4-3.4l-2-4.8 -.5-1.7 -1.5-.6 -1 1.2 .2 1.9s1.5 3.2 2.2 4.3c.8 1.1 2.3 3.3 3 3.1Z"/></g><g fill="#202020"><path d="M335 245v0c.67.73 1.15 1.63 1.4 2.6 0 0 1.3 3.6 1.1 4 -.2.3-1 .3-1 .3s1.8 1.8 2.3 1.6c.5-.2.3-2 .1-2.4 -.1-.4-.7 0-1-.5 -.1-.4-.8-2.7-.8-4.2v-2.7c.2-.3 1.5 3 1.5 4.7l.6.7 -.6-3.2 -.7-2.3c0-.2.3-.8.3-1.5v-1s.6.5.9.5c.3 0 .7-.4.8-2 .2-1.5-.1-6-.1-6l-6.8 9 2 2.5Z"/><path d="M335 244.3s-.3 2.4.6 4.8l1.3 3c.2.3.2 2.9-.1 3.2 0 0-1.8-4.4-2.4-6.6 -.5-2.1-.7-3-1-3.2l-.8-.2 2.4-1Z"/></g><path fill="#4D2A15" d="M334.4 257c.2 0 0-1 0-1l-.2-2.3 -2.4-4.9 -2.6-2.3 -1.4-2 -.2 4s2 4 3.1 5c1.3 1.2 3.3 3.6 3.7 3.5Z"/><path fill="#202020" d="M324.7 246s.4 1.1.4 1.8v1.4l1.8 3.5c.9 1.5 1.7 3.1 2.4 2.8 .7-.4 1-1.5 1-1.7 .1-.1-.8 1.3-1.2 1.1v0c-.96-2.13-1.73-4.34-2.3-6.6l-1-.8v-.001c-.39-.45-.76-.92-1.1-1.4Zm7 5.5l-1.7-3.1c-.5-1-1.2-1.7-1.4-1.7 -.2 0-.5-2-.5-2s.7 1.3 1.6 1.7c1 .5 1.5.8 2 .7l.2 2 -.2 2.4Z"/><path fill="#5C3A1D" d="M327.4 248.3s.5 1.4 1.4 2.7c.8 1.3 2.3 2.9 2.3 2.9s-1.6-1.6-2.5-2.8v-.001c-.57-.88-1.04-1.82-1.4-2.8h.2Z"/><path fill="#202020" d="M332 246.7s.5-1.2.8-1.3l1.2-.3s-.7-.1-1.2-.8l-1.3-1.3 .4 2 .1 1.7Zm-.4.4s2 4 2.4 5.5c.5 1.3.4 3.4.4 3.4s-.2-1.5-.6-2.7l-2.4-5c-.1-.3.2-1.2.2-1.2Z"/><path fill="#4D2A15" d="M334.2 244.4l.5-6 -.5-2.2 -2.7-6s-.1.8-.8.8v0c-1.19-.29-2.27-.91-3.1-1.8h0c-.5 1.55-.56 3.21-.2 4.8l5.3 9.9 1.5.5Z"/><g fill="#8B441F"><path d="M323.8 248.3s.8 1 1.3 1c.4-.2.3-2.1-.3-3.2 -.6-1-7-9.6-8-10.1s7 12.3 7 12.3Z"/><path fill="#8B441F" stroke="#5C3A1D" stroke-width=".1" d="M328.1 244.8c.2.4.6 3.1-.5 3.4 -1.5.3-8.5-9.4-9.6-10.7 0 0-4.4-2.8-4.5-3.5 -.1-.7 4.7 1 4.7 1l9.5 9 .5.8Z"/></g><path fill="#202020" d="M323.8 248.3s-.8-1.3-.9-2.3c0-1-.4-1.5-.4-1.9 0-.3-5.2-7.7-5.7-8.2 -.6-.5-2.3-1.4-2.3-1.4h0c.03.8.13 1.6.3 2.4 0 0 1.6 3 4 5.7v-.001c1.65 1.94 3.31 3.88 5 5.8Z"/><path fill="#4D2A15" d="M331.6 247c.7-.3.4-2.7.1-3.5h-.001c-1.44-3.15-2.9-6.29-4.4-9.4l-1.3.4 -2.3-1.8 -1.4-1.5s.5 2.1.4 3.1v1.6l3.3 5.9 5.6 5.3Zm4.7-5.2l1-1.3 -.5-4.4 -2.8-9.4s-.7.1-1.4-.3c-.6-.4-1.4-1.3-1.4-1.3l.7 5.7 2.9 8 .2 2.3 1.3.7Z"/><path fill="#202020" d="M327.7 244s-2.8-3-3.7-4.5l-1.7-3s-.8.3-1.8 0c-1-.5-2.2-1.8-2.2-1.8s-.8 1.5 3.2 5.6c4.6 4.6 6.2 3.7 6.2 3.7Z"/><path fill="#8B441F" d="M334.4 245c1.2-.4 1.1-5.4 0-8.7 -1-3.3-2.9-6.2-2.9-6.2s2.3 5.4 2.8 7.5c.4 2.2 0 3.7-.4 3.6 -.4-.1-.4-1.3-1.3-3.4 -1-2-1.6-2.6-1.6-2.6s3.3 8.8 2.3 8.6c-.9-.2-5.3-9.9-5.5-10.2 -.2-.2-.4.4-.4.4s4 12.2 7 11Z"/><path fill="#4D2A15" d="M337 221.3l2 4.2 .6 4.4 .2 3.7s0 7.4-.8 7.6c-1 .1-1.4-.7-1.4-.9l-.001 0c-.58-2.77-1.14-5.54-1.7-8.3l-1.7-8.5 .6-.6 .2-1.2 1.3-.1 .7-.3Z"/><path fill="#8B441F" d="M331.6 247c.8 0 0-2 0-2s-.6 1-1.2.3c-.5-.7-1.3-3.1-1.3-3.1l-.5-1.5s-.6 1.6-1.3 1.6c-.7 0-4.6-6.4-4.6-6.4l-.4.6s5.4 11.1 9.3 10.6Z"/><path fill="#202020" d="M329.1 242.2s.7-1.6.4-3c-.3-1.5-2.2-5.1-2.2-5.1s-.6.1-1.4-.2v0c-.79-.31-1.53-.71-2.2-1.2v0c1.33 3.4 3.15 6.6 5.4 9.5Zm3.1-2.3s-.5-3.4-2-6.6c-1.6-3.1-2.6-4.1-2.6-4.1v3.5s1.5.5 2.6 2.4c1 2 2 4.8 2 4.8Zm4.3-5.8s-.3-3.7-.8-5.8l-1.2-5s0-.2.3-.4h.6c.8.3 1.1 2.2 1.1 2.2l-.1-3.1 -.3-.5h-1.4s.3 1-.1 1.3c-.3.3-.6-.2-.7-.3l-.2.4 .4 2 -.1 1.7s.5 2.2 1.2 3.5c.6 1.4 1.3 4 1.3 4Zm3.3-.5s.6-5.3-.6-8.7c-1.2-3.4-2.2-4.2-2.2-4.2l-.6.6s1.8 3 2.4 5.6l1 6.7Zm-5.4 2.7s-.6-4.1-1.3-6.8h0c-.37-1.2-.7-2.4-1-3.6l-1.1-1s.7 2.7.6 3.6l-.1 1.4s.5 1.4 1.3 2.6v0c.63 1.22 1.17 2.49 1.6 3.8Z"/><g fill="#904720"><path d="M337.2 242.9c1 0 .1-6-.3-7.5 -.4-1.6-3-8.8-3-8.8s3 10.3 2.8 10.8c-.3.8-1.5-3.1-1.7-3 -.2 0 2.2 6.9 1.3 7 -.8 0-1.3-1.5-1.3-1.5l.1 1.5s.6 1.4 2.1 1.5Z"/><path d="M338.5 239.9c.7 0-.2-5.7-.7-8.2l-2-7.5s1.5 3.5 2.3 7.5c.8 4 1.4 9 .6 9.2 -.8 0-1.2-.8-1.2-.8v-.9s.3.7 1 .7Z"/></g><path fill="#312317" d="M328.8 246.5c0 .4 0 2.4-1 2.2 -1-.1-2.9-1.9-3.3-3 0 0 2.2 2.5 3 2.4 .8 0 .8-2.5.6-3.2 0-.6.6 1.6.6 1.6Z"/><path fill="#D2A567" d="M334.1 219.5s1.4.9 2.4.3v-.001c1.02-.68 1.69-1.78 1.8-3 0-.8 0-1.5-.7-2.4 -.7-.9 1 .7 1 2.3 0 1.6 0 4.3-2.5 5 -2.5.5-1.4-.2-1.4-.2l-.6-2Z"/><path fill="#8F4620" d="M332.1 214.7s1.6 2.6 2.2 5c.7 2.3.5 3.2.2 3.3 -.4 0-.6-.3-.7-.9 0-.6-1.7-7.4-1.7-7.4Z"/><path fill="#1E2121" d="M304.1 218l10.6 15.3 13.2-15 -8.3-8.6Z"/><path fill="#4D2A15" d="M317.5 208.5l-.6 2.4 1.3 4.1 2.2 2.3 2.5 1.7 .6-2 .6-2.2 .7-.2 1.6.6 1-1.5 1.8-3.1 -.4-1.2 -.4-.9 -2.7-4.6 -.9 1.7 -.8.5 -1.6-.8 -1.8 2.4 -2.3-1Z"/><g fill="#5C3818"><path d="M323 219s.4-.3.6-1.6c.2-1.2.2-4.9-.1-6.4 -.3-1.5-1.3-4.4-1.5-4.2 -.2.3 1.5 3.3 1.3 7 -.3 3.6-.2 4.6-1 5 -.7.3.6.2.6.2Z"/><path d="M323.6 212.8s1.7 2.5 2.5 1.6c.9-.9.5-4 0-5.3l-1.2-3 .5-.6 .9 3.4c.3 1.4 1.3 5.2.1 6 -1.1.6-2.8-1.5-2.8-1.5v-.6Z"/></g><path fill="#8F4620" d="M317.9 214.6s.6-1 1.4-1c.8 0 1 .3 1 .3l.6 2 1.2 2.2 1 1 -.5.6 -.9.2 -2.5-1.4 -.7-1 -.6-3Z"/><path fill="#D2A567" d="M322 236.3c-.8.5-2.7-.5-3.7-1.4l-6.8-6.7 -.8-3.2 2.2.6 3.9-1.7 .7-1.3 4.6-2.4 2.6-1.4 5.5-.1 1.4-2.7s1.8 3.2 2.1 4.5c.4 1.4.3 5.4-.2 5.7 -.5.3-2.3-1.2-2.6-1.3 -.2-.1 1.4 5.7 0 6 -1.3.2-3.6-2.2-3.6-2.2s1 5.2-.2 5.2v0c-1.89-.37-3.62-1.28-5-2.6 0 0 1.3 4.3 0 5Z"/><g fill="#8F4620"><path d="M321 229.6l1.1 1.7c.3.4 0 2.9-.2 3.4 -.3.9-1.6-1.2-2.3-3l-2.2-3.8c0-.4 3.5 1.7 3.5 1.7Zm10.8-12.9s2 8.1 1 8.4c-1 .3-3.6-2.6-4-3l-4-6.4 -.8-.8 .2-.4 1.7.6 6 1.6Z"/><path d="M317.9 232.3c-.4.3-1.3-1-1.7-1.4l-3-3.3v-.001c-.86-.73-1.6-1.57-2.2-2.5 0-.3-.8-1.1-.8-1.1l.7-1h.9s5.4 4.2 5.7 5c.4.6.6 4.1.4 4.3Zm8 0c-.2.3-3.7-2.3-5.2-4.4 -1.5-2.2-3-4-3.5-5l-.6-1.9 1 .2s8.8 10.8 8.4 11.2Zm1.3-3.7c-.2.3-1.7-.9-2.7-2.1 -1-1.3-.4-2.9-.4-2.9s3.3 4.8 3.1 5Zm2-.5c-.5.3-2.5-2.2-4.2-5 -1.3-2-1.6-2.3-1.8-2.5 -.5-.3-1.4-.4-1.4-.4l-.2-.3 1-.2 .6-.8 1-1.3 4.3 8.5s1 1.9.7 2Z"/></g><path fill="#AB6D29" d="M318.3 234.9c0 .3 0 .6-1.2.5v0c-4.03-1.53-7.48-4.25-9.9-7.8l-3-5 1.1-1.4 9.6 11 3.4 2.7Z"/><path fill="#8F4620" d="M318.3 234.9c0 .5-.5.6-1.1.5 -.6-.2-3-1-6.9-5.3v0c-2.1-2.22-3.89-4.71-5.3-7.4l-.2-1.8 1.2-.5 6.5 10 5.8 4.5Z"/><path fill="#4D2A15" d="M324.6 230.6s-2-1.5-3.2-3v0c-1.54-1.71-2.82-3.63-3.8-5.7 .1-.7 1.2-.7 1.2-.7v-1.8l.2-.6 1.9.8 2.3 2.9 .9 1.1s1.5 3.7 1.2 4c-.3.3-2.4-2-2.7-1.7 -.3.3 2.4 4.4 2 4.7Zm-3.7-1s.7 1 .4 1.7c-.3.7-.5 1-1.5-.4l-.001 0c-.65-1.09-1.42-2.1-2.3-3 0 .1.1 2.3-.3 2.3 -.5 0-2-1.9-3-3.3l-2.5-3.9v-2l-.1-2.5 .3.9 .4.7 3.6 4.2 1-.7 2.1 4 2 2Zm-13.5-6.1s2.8 4.8 5.3 7.5h0c1.59 1.65 3.49 2.98 5.6 3.9l-8.4-9.9 -2.5-1.5Zm21.2 2.8v-.001c-1.21-.94-2.23-2.09-3-3.4 -1-1.6-1.9-4-1.8-5 0-1 .4-3.4.4-3.4s2.8 3 3.4 4.3c.5 1.4 1.7 3.3 1.4 3.5 -.2.2-2.1-1.3-2.4-1 -.2.4 2.3 4.8 2 5Zm3.2-3c-.3.1-1.8-1.6-2.1-2.6v0c-.32-1.05-.52-2.12-.6-3.2l-1.2-3v-3.3l1.4-.2 1.9 2.7s.7 1.5.7 3.7c0 2.3.3 5.6 0 5.8Zm-22.5 8v0c-1.51-1.89-2.85-3.89-4-6l-1-2.9 .5.4s.8 3.2 4.7 7.1c4 4 4.9 4.2 4.9 4.2s.7 2.2.4 3c0 0-2.9-2.6-5.5-5.7Z"/><g fill="#202020"><path d="M313.6 235.9s-3.4-3-6-6.4v0c-1.66-2.08-3.13-4.28-4.4-6.6l1.2-1h-.001c2.18 5.18 5.3 9.93 9.2 14Zm4.7-1l-6-6.1c-2-2.2-3-4.4-3-4.4l1.6.6s.7 1.7 2 3.5l5.4 6.4Zm-.8-7s-2.1-2.6-3.1-4.2l-2-3.8s2.8 3.3 3.6 3.5c.9.2.9 0 .9 0s-.4 1.2-.1 2.2l.7 2.3Zm.9-10.6s.3 1.9.1 3c-.2 1-.8 1-.8 1v0c1.08 1.56 2.43 2.91 4 4l-1.8-2.7c-.5-1-1.3-2-1-2.8 .4-1 2.1.6 2.6 1l2.6 2.8s-.8-2.5-1.8-3.4h-.001c-1.29-1.03-2.63-2-4-2.9Z"/><path d="M327 222.8l-1.7-4.2 -1.6-5.2v2.8c-.1 1.2-.5 3-1 3.3 -.6.2-.7.3-1.7 0 -1-.2.7.5.7.5s1 0 1.4-.5c.4-.5.5-1.5 1-1.4 .4.2 1 1.7 1.3 2.4l1.6 2.3Z"/><path d="M323.7 213.4s2 2.3 3 1.3c.8-1 .3-4 .3-4s1.2.5 1.6.2c.4-.4.2-1.5.2-1.5s2.3 3.2 3.3 5.3c1.1 2 1.6 5.8 1.6 5.8s-1.8-3-2.7-5.8c-.9-2.6-2.1-3.8-2.3-3.5v0c-.39.94-.5 1.99-.3 3 .2 1 1 2.1 1.5 3.5l1.1 3.4 -1.6-2.5c-.7-.8-1.3-1.2-1.7-1.6 -.4-.4-1-1.2-1.7-1.4 -.6-.3-1.8-.9-1.8-.4s-.3-1-.3-1l-.2-.8Z"/></g><path fill="#171717" d="M316.8 223.3l-.001 0c1.09 2.28 2.51 4.4 4.2 6.3 0 0-2-1.8-2.8-3h-.001c-.6-1.05-1.07-2.15-1.4-3.3Z"/><path fill="#8F4620" d="M330.2 223.9c-.3 0-1.3-.3-1.4 0 0 .4.6 1.8 1.3 2.5 .7.7 1 .7 1.1.6 .2 0 0-.7-.2-1.4v-1.7c-.1-.3-.8 0-.8 0Z"/><path fill="#D2A567" d="M306 209.4l-1.3.7 -1.4 3 .4 5.3 2.1 3c.8 1.2 3.5 4.2 4.2 4 .7-.2 1.4-2.3 1.5-3.4l.2-3.2 1.8 2.3c1.1 1.3 2 2.4 2.6 2.3 .5 0 2-3.2 2-3.6 .1-.4-3.8-10-3.8-10l-1.8-1 -6.6.6Z"/><path fill="#AB6D29" d="M314.8 217.4l1 3.7c.5 1.2 0 2.3.3 2.3 .2 0 2.3-2.7 2.3-4 0-1.2 0-2.5-.5-6.3s.2-5 .2-5l-1.2-1 -2 4.2 -.1 6.1Zm-7-2.2l.7 5c.3 1.2 1 3.3 1.4 3.2 .4 0 1.6-3.3 1.7-4.4 0 0-.9-1.6-.8-5.5 0-4-.4-4.4-.4-4.4l-2.6 6.1Z"/><path fill="#45392D" d="M302.5 207.5s-3.1 4.6-3 7c0 2.5.4 2 1.1 4.2 .7 2.3 1.1 5.6 1.2 5.9 0 .2.5-.2.5-.5l.2-16.6Z"/><path fill="#AB6D29" d="M302.5 208s-2.7 4.3-2.5 6.6c.2 2.3.5 2.3 1.3 4.4 .8 2 .8 5.4.8 5.4s1-.2 1.9-.9c1-.7 1.8-2.1 1.8-2.1l-1-2.1v0c-.29-.64-.49-1.31-.6-2l-.8-1 .2-4.1 .7-3v-1l-1.8-.1Z"/><path fill="#DBAD6C" d="M317.2 215.3s-1.3-.3-1.9-.6c-.6-.3-.8-1.1-.8-1.1l.4-.8 2.3 2.5Z"/><path fill="#D2A567" d="M303 208.5s-2 4.3-1.7 7.2c.3 2.9 1.9 6.6 2 6.7 .2 0 0-.3.1-1v-8.7l.9-2.8v-1.5l-1.3.1Z"/><path fill="#8F4620" d="M307.8 209.5s.3 1.2.1 1.8c-.2.5-1.2 1.2-1.6 2 -.5.8-1 2.8-1 2.8s.4-1.1 1-1.8c.7-.7 1-1.2 1-.8 .2.4.4 2 .3 2.3 -.1.3-.7.8-1 2 -.4 1.3 0 2.4 0 2.4l.5-2.2c.2-.6.7-1 .7-1l1 2.4s0-1.1.3-2c.1-.8 1-2 1.3-2 .3 0 .8-.1-.3-.7 -.4-.2-.1-4.2.1-4.4 .3-.2 1.9-.2 1.7-.8l0 0c-.45-.8-.98-1.54-1.6-2.2 -.1-.1-2.5 2.2-2.5 2.2Z"/><path fill="#DBAD6C" d="M317 218.1l-1.5-.3c-.5 0-.6-.6-.6-.6l.2-.6 1.2.7 .7.8Z"/><path fill="#8F4620" d="M304.4 218.6c0 .4-.3.9-.5 1.5 -.3.7-.4 1.6-.4 1.6l-.4-3.3 -.3-2.4c-.2 0-.7.7-.7.7s0-1.6.3-2.3c.3-.7.5-1.8.3-2 -.3-.1-.8.3-1 .7v0c-.28.42-.55.86-.8 1.3 0 0 .3-1.3.6-1.9 .3-.5 1.8-2.2 2-2.8 .4-.7.4-1.4.4-1.4h1s1 .8 1 1.5c0 .4-1 .9-1 1 0 0-.8-.1-1 3.2 -.2 3.4.6 3.2.5 4.6Zm9.4-8.7s.2 1.8 0 2.4c-.2.6-.7 1-1.1 1.8 -.4.7-.4 2.4-.4 2.4l.5-1.4 .7-1c.1 0 .6.7.8 1.7l.8 2.5s-.2-1.2.1-1.2c.3 0 .5-.1.9.2l.9.8s0-.5-.7-1.1c-.6-.7-1-.6-1.1-1.5 -.2-1-.3-1.8-.2-2.2 0-.3.5.3.9.7l1.5 1.4 -.7-1v-3c0-1 0-1.9.4-2.1 .3-.3.4-1.6.2-1.8 -.1-.2-3.5 2.4-3.5 2.4Z"/><path fill="#1E2121" d="M324.6 206.1v0c.13 2.42.63 4.82 1.5 7.1 0 0-1-2-1.6-3.6 -.6-1.6-.9-3.5-1.3-3.6 -.4-.2-1 .8-1 1.5s.5 3.3 1.1 4.2c.6 1-1-1.2-1.3-2.3l-.7-2.2s-.4 1-.3 2c.2 1.1 1.1 2.7 1.1 2.7l-1-1 -.6-.7s0 1.5.4 2.1l1.2 1.7 -1.3-1 -.4-.8s.2 2.1.6 3.3l1.5 3s-1.2-1-2-2.9c-.8-1.8-1.2-7.3-1-8.1l1.1-1.9c.6-.8 1.3-4.7 1.3-4.7s.9 3.6 1.5 4.3c.6.7 1.2 1 1.2 1Zm-8.6-1l.8 1.3 .6 1s-1 1.1-2.3 2c-1.2 1-2.8 2-3.1 1.5 -.4-.5-.4-1-.4-1s1.4-.8 2.4-1.8v-.001c.68-.62 1.22-1.37 1.6-2.2 .2-.6.5-.9.5-.9Zm-10.9 3.5s.2 2.2 1.2 2.2c.9 0 3.7-2.9 3.9-3 .2-.1.4-.8.4-1l-.2-.8s-3 3-4 3.2c-.9 0-1.3-.6-1.3-.6Zm.1-3l-.3 2c0 .5.2.9.2.9s-2.2.7-2.5 0c-.4-.6-.1-1.6-.1-1.6h1.5c.6-.2 1.2-1.3 1.2-1.3Zm20.3-3.1l1.5 3.2 1.4 2.8s-1.4-1.7-1.9-2l-1.2-1 .2-1.1v-2Z"/><path fill="#DBAD6C" d="M302.1 207h1.3c.5 0 .8-.2.8-.2l.9-1.2s-.5 1.4-.2 2.5c.3 1 1 1.1 1.2 1.1v0c.83-.13 1.6-.52 2.2-1.1 .9-1 2.1-1.9 2.1-1.9s-.3 1.3.2 2.7c.5 1.3 1.2 1.3 2.2.4 1-.8 2-2.2 2.6-2.8l.7-1 1.1-1 1-5.4 -.5-.7 -1.4.7 -1.7-.7 -.5-.7 -1 1.7 -1 .6 -.5.1 -1.2.3 -.5-1.1 -.3-.8 -.6-.3 -2.4 2.5 -1.4-.1 -1.3 2.2 -1 1.3 -1 2.4 .2.5Z"/><path fill="#8F4620" d="M313.9 201.5s.2 1.3-.5 3.6 -1.6 3.9-1.6 3.9 2.4-1.5 3.6-4.2c1.1-2.6.9-5.7.9-5.7l-2.4 2.4Zm3-2.5s.2.4 0 2.4l-.8 4 .6 1.2c.4.7 1.2 1.8 1.7 1.6 .6-.2 1.6-.9 2.2-2.2 .6-1.4 1.1-2.7 1.4-2.9 .2-.2.3.1.4.2 0 .1.3 1.3.9 1.8 .5.5 1.3 1.3 1.6 1 .4-.2.8-.9.7-1.2l-1.3-4 -1.6-4 -1-1.6 -2.8.3 -2 3.4Z"/><path fill="#AB6D29" d="M321.7 195.3s.8 1.7.9 3.6c0 1.8-.4 3.8-.4 3.8s.2-2.3 0-3.7c-.3-1.4-.7-2.3-.7-2.7l.2-1Z"/><path fill="#4D2A15" d="M325.6 202.6v2.3c-.2.8-1.3-.5-2-3 -.6-2.5-.5-3-1-4.3l-.9-2.2 1.5-.3 2.4 7.5Zm-7 4.6s2.8-1.5 3.1-6.2c.2-2.1-1.2-5.7-1.2-5.7s0 3.8-1 6.2v0c-.59 1.35-1.22 2.69-1.9 4 0 0 .7-.2 1-.6l.8-1.1s.1.7-.1 1.6l-.6 1.8Zm-2.3-8.1s-.1 1-1.3 2c-1 .9-3.1 1.9-3.1 1.9s1.5-1.4 2-2.6c.6-1.2.1-2 .1-2s-.2.6-.8 1.1c-.6.5-1.6.6-1.6.6s0-.6.7-1.3c0-.1 0-.4.2-.7 .3-1 1.1-2.3 1.1-2.3s.7 1.4 1.3 2l1.4 1.3Z"/><path fill="#1E2121" d="M324.7 193.6v0c-.49 3.02-.18 6.12.9 9 0 0-1.4-2.2-1.7-3 -.4-1-.4-2.3-.7-3v0c-.26-.41-.6-.75-1-1 -.3-.2-1-.1-1-.1s.8-.4.8-1.1v-1l1.4.3h1.3Zm-6 9.8s1.4-2 1.8-4.6c.4-2.6 0-3.5 0-3.5s-.6 0-1.1-.5c-.5-.5-1.3-1.8-1.3-1.8s.2 1.4 0 3c-.4 1.6-1.8 3-1.8 3s.8.4 1.4 0c1.5-.9 1.4-2.5 1.4-2.5s.3.2.3 2.2 -.7 4.7-.7 4.7Z"/><path fill="#8F4620" d="M301.2 206.9c-.3 0 1-2 1.8-3.4l2.1-3.4s.3.3.8.3h-.001c1-.2 1.87-.82 2.4-1.7v-.001c.49-.77.83-1.61 1-2.5 0-.3-.1 1.8 1 3 1 1.1.9 1 1.3 1 0 0 0 1.4-.4 2.7l-.8 3.3s.2-2.5-.3-3.2c-.4-.8-.6 0-1 1 -.3.9-1.1 1.5-1.1 1.5s.6-1.1 1-2.3c.4-1.2.2-1.2 0-1.2 0 0-.2-.1-.6.4 -.5.5-.9.6-.9.6s.5-.4.7-1v0c.22-.66.56-1.27 1-1.8 .2-.3.4-.7.4-1 0-.2 0-.7-.2-.7s-.5.3-1.4 1.2l-1.3 1.3 -.9 2.6v0c-.26.96-.59 1.89-1 2.8l-.6.4 .9-2.4 1-3.4c-.2-.3-.7-.3-.8 0l-2 2.8c-1 1.4-1 3.1-1.2 3.2l-1-.1Z"/><path fill="#874F20" d="M325.7 192.1c0 .2 0 1.2-1 1.5h-.001c-.77.19-1.58.12-2.3-.2 -.2 0-.2-1.4-.2-1.4l3.5.1Z"/><path fill="#B27129" d="M306 195.4s-.2.9-.8 2c-.5 1.2-1.4 2.2-1.3 2.4 0 .1.6.7 1.4.6 .8 0 1.1-4.8 1.1-4.8l-.1-.2h-.3Z"/><path fill="#DBAD6C" d="M318.4 192.7s-.3 6.4-2.1 6.4 -2.7-3.2-2.7-3.2 -.1 4.3-2.4 4.3c-1 0-2.1-3.4-1.9-4 0 0-.4 2.3-1.5 3.2 -2.2 1.7-3.5.9-3.6.6 0-.3 1.8-2 2-4.6 0 0 .4.1 1-.6s.7-1.6 1.3-1.5c.5.2 3-1 3-1l1.4-1.7s.2.5 1.2-.2v0c.59-.43 1.04-1.02 1.3-1.7l2.7 2.3 .3 1.7Z"/><path fill="#B27129" d="M311.4 186.6l2.7 3.8 .6-.5c.4.5.6.9.4 1.2 -.4 1-1.3 2.3-.5 3.7 0 0-.3-.8.1-1.8s.7-1.4 1-1.3c.2 0 .6 5.8 1 5.8 .3 0 .9-2.7.9-4.5 0-1.8.3-.3.5 0 .2.4 1.8 3 3.1 2.6 1.4-.4 1.2-2.8 1.2-3.3 0-.6-1-3.7-1-3.7l-6.1-3.9 -.5 1.6c-.3 1-3.4.3-3.4.3Z"/><path fill="#8F4620" d="M320 186s.4.4 1 1.9 .7 6.4-.1 6.4c-.8 0-2.3-1-2.6-1.6 -.3-.7 0-3.1-.4-3.8v0c-.57-.82-.97-1.74-1.2-2.7l.1-2 1.4-.5 1.9 2.3Z"/><path fill="#4D2A15" d="M319.6 184.5l2.6 3.9 2.3 3.3 1.2.4v-.001c-.8.92-2.16 1.14-3.2.5 -.9-.5-.4-2-1.5-4.5 -1.2-2.5-3.2-3.6-3.2-3.6l.7-.7 1.1.7Z"/><path fill="#1E2121" d="M318.2 182.4s2.3 1.5 3.1 3.2c.9 1.7 1.3 2.7 2.3 4.3 1 1.6 2.1 2.1 2 2.2 0 .1-.7.3-1.2 0v0c-.59-.42-1.07-.97-1.4-1.6v-.001c-.71-1.46-1.51-2.86-2.4-4.2 -.5-.7-2.3-2-2.3-1.9 0 .1.5.5 1.5 2.1v0c.64.92 1.05 1.98 1.2 3.1l-1.1-2c-1-1.5-2.8-3.3-2.9-3 -.1.2 1 1.9 1.5 2.9l1.3 3.3 -1.8-3c-1-1.5-1.2-1.3-1.6-1.8l-1.4-1.8s1 .3 1.8-.3c1-.6 1.4-1.5 1.4-1.5Z"/><path fill="#8F4620" d="M312.3 186.7s1.5.3 2.3.2h1.1s.5.6.5 1.4c0 .7-.5 2.1-.8 2.2 -.2 0-.2-1.3-.5-1.8l-2.6-2Z"/><path fill="#B27129" d="M313.1 190.6s.5 1.6.1 3.9c-.4 2.2-1.7 4.6-2 4.6 -.3 0-.2-2.6-.4-4v-.001c0-.14 0-.27 0-.4l-.5 1.6 .4-2.6 -.1-.8 1.6-2 .9-.3Z"/><path fill="#8F4620" d="M310.3 192.3c-.5.5-1.2.4-1.8.6 -.6.2-.9 1-.9 1s.5-.3.7-.2c.3.1.5.1.1 1.2 -.5 1.1-2.2 3-2.1 3 0 0 2-1.5 2.5-2.5 .7-.9.6-1.4.8-1.8 0-.3.8-.7 1-.7 .1 0 .5 0 .6.7l.6 2.6 .8-2.6c.2-1 .2-2.9.2-2.9l-.6-.1c-.5-.1-1.5-1-1.5-1s.2 2-.5 2.7Z"/><path fill="#DBAD6C" d="M318.3 180.8s.6 1.5-.7 2.6c-.4.3-.7.5-1.4.6v0c-.61-.09-1.18-.29-1.7-.6l-4-1.6 -2-.6 -1-.3 .2-1.1h3l3 1.2 1.3.5 1.1.2h.9l.7-.2 .4-.3 .2-.4Z"/><path fill="#AB6D29" d="M318.3 180.8c0 .3-.3 1.1-.6 1.3 -.3 0-.8.3-2 0 -1.1-.2-2.3-1-3.6-1.3 -1.3-.4-2.3-.7-3.3-.7s-.5-.4-.5-.4 2.3-.3 4.3.5c2 .7 2.9 1.2 4 1.2 1.4 0 1.7-.6 1.7-.6Z"/><path fill="#4D2A15" d="M307.6 179.6h.9c.4 0 .7-.3.7-.3s0 .5-.2.7c-.3.2-1 .1-1.2.1l-.2-.5Z"/><g fill="#DBAD6C"><path d="M315.3 184.4s1.3 1.3 1 2.4l-2.7-1.2 -4.2-1.7 -2.3-.7 -.3-.4 .6-.8 .2-.8 2.8.4 3 1 1.9 1.8Z"/><path d="M312.4 186.3s2.4 3.1 1.8 4.1l-5.6-3.5 -2 3.3 -4.7-2.3s3.8-3 4.2-3.5l.5-.7 2 .4 3.4 1 .4 1.2Z"/></g><path fill="#AB6D29" d="M311 181.6s2 .5 3.3 1.2c1.3.6 3 .8 3 .8s-.6.7-2 .8c-.4 0-1.4-.8-2-1.3 -.7-.4-2.6-1-2.6-1l.3-.5Z"/><path fill="#4D2A15" d="M307.6 180.6s1.4.3 2.2.7c1 .3 1 .2 1.2.1 .3 0 .3-.2.3-.2s.2 1-.5 1 -1-.3-1.8-.7c-1-.4-1.5 0-1.5 0v-1Z"/><path fill="#AB6D29" d="M315.4 186s1 .7.9.9c-.2 0-.7.3-1.6.4h0c-.7.07-1.39-.07-2-.4 -.6-.2-1-1.3-2.5-2v0c-.91-.38-1.85-.68-2.8-.9l-1.3-.2 1-.4 3.2.6 2.8.9 1.7.8 .6.4Zm-5.4 2l.6 2.6 -.4 1.5 -.8.6 -.8-.3 -.3-.5s.4-.6 0-1.1c-.3-.6-2-1.2-2-1.2s.7-1.3 1.4-1.6c.8-.3.4-1.2.4-1.2l1.9 1.2Z"/><path fill="#4D2A15" d="M306.8 182.8s.5.4 1.5.5c.5 0 1.3.2 2.2.5l1-.3 -.5.4c.9.2 2 .7 2.5.9v0c.74.29 1.43.73 2 1.3l-2-1h-.001c-.98-.39-1.98-.7-3-.9 -2-.3-4-.2-4.3-.4 -.4 0 .1-.1.4-.3 .2-.2.2-.7.2-.7Z"/><path fill="#AB6D29" d="M314 189.8s.7.7 0 .9c-.6.2-2.4.2-3.2-.7l-.6-1.2v-.001c-.74-.65-1.55-1.22-2.4-1.7 -.7-.5.3-.5.3-.5l3.6 1.5v0c.82.48 1.59 1.05 2.3 1.7Z"/><path fill="#4D2A15" d="M314 189.9s-1.2-1.8-4.9-3.3l1.2-.2h-2v0c-.27-.11-.54-.21-.8-.3 -2-.6-2-.6-2.2-.8 -.1-.3-.4 0-.6.3l-.7 1v0c.81-.25 1.67-.28 2.5-.1 1.1.3 1 .7 1 1 -.1.5-1.4 2-1.3 2.1 .2 0 1-1.5 2-1.3 1 .3 1.2.8 1.2.8s0-.6-.2-.8c-.2-.2-1.3-1.3-1-1.3 .3 0 1.6.3 3.3 1.2 1.8.9 2 1.1 2.6 1.7Z"/><path fill="#DBAD6C" d="M308.1 187s2.8.8 2.7 3.8c-.1 3-2.3 2.4-2.5 1.3 -.2-1 .3.5 1 .4 .9-.2 1-1 1-2.2 0-1-.3-1.6-1-2.2v0c-.38-.36-.78-.7-1.2-1Z"/><path fill="#6C3F18" d="M296 179.9s.4.2-.4 2.3c-.8 2.1-1.3 2.8-2.5 4.2 -2.2 2.4-3.2 2.5-3 3.5 .3 1 1.1.8 1.3.8 .2 0 4.3-6 4.3-6l.9-3.5 -.2-1 -.3-.3Z"/><path fill="#DBAD6C" d="M306.1 175.6s1.2 1.8.8 5c-.3 3.4-4.7 6.3-4.7 6.3l-6.4 4.4 -2.7-.2h-.8c-.4-.1-.8-.5-.9-.5l-.5-1.2 .9-1 2.3-2.3 1.4-2s.7-1.3.8-2.5c0-1.1-.2-1.7-.2-1.7l.5.8 .3 1.8 -.2 2 1.6-1.2 2.2-1s.7 0 1-1.3c.5-1.2.9-3 .9-3.8l-.1-1.8h.3c.2 0 .7 1.2.7 1.7l.4 2.8 1-1 1-1.5c.2-.5.4-1.3.4-1.8Z"/><path fill="#904720" d="M306.8 192.2s.5.4.3 1.6c-.2 1.2-1.1 1.8-1.6 1.8V194l-1.4-1.2 -1.5-.4 .3-.3c.1-.2 1.7-.8 1.7-.8l2.2.9Z"/><path fill="#AB6D29" d="M305.7 192.2s.5.4 1.2.3c.7-.2 1-1.3.6-1.8 -.4-.4-.2 1-.7 1.3 -.4.1-1-1.2-1.5-1.3 -.7-.1-1.6.3-1.9.7 -.2.4 1 0 1 0l.7.3h.5l.1.5Z"/><path fill="#904720" d="M296.5 187.6s.8.3 1.7.1l3.1-1 1.8-1.3c.7-.7 3.1-2.2 3.4-5.1 .2-3-.4-4.7-.4-4.7s3.5 3.8.5 8.2c-2 2.8-3.8 3.7-3.8 3.7s3.4-1 3.7-.2c.3.8-.1 2-.2 2.3 0 0 1.9.4 2.2 1.4 .1.6-2.2-.7-4-.2 -1.8.4-2.5 1.4-2.5 1.4s-.4-.5-2-.5c-1.5 0-2.2.7-3.1.7 -1 0-3.7-.6-4.2-1.4l1.8-2.2c.8-1.6 2-1.2 2-1.2Z"/><path fill="#AB6D29" d="M303.8 179.7s1.3-1.3 1.8-2.3c.4-1 .5-1.8.5-1.8s.2 1-.6 2.3c-.8 1.3-1.7 2-1.7 2v-.2Z"/><path fill="#904720" d="M303.4 176.7s1.1 4.4 0 6.1c-1.3 1.8-6.5 4.1-6.5 4.1s4-2.1 5.2-4.6c1.2-2.5 1.1-4.5 1.1-4.5l.2-1Z"/><path fill="#1E2121" d="M298.2 187.7s1.7 0 2.6-.6c1-.5 2.3-1.7 2.3-1.7s-1.2 1-1.6 1c-.3 0-.6-.5-.5-.9 0 0-.3.8-1 1.4 -.8.5-1.8.8-1.8.8Zm3.9-5.4s1.4-1.4 1.4-4.4c0-3-1.2-2.5-1.2-2.5s1 .7.7 3c-.2 2.3-1 4-1 4Zm1.7.3s1.6-.3 2.1-1.3 .6-2.7.6-2.7 -.2 1.7-.7 2.3c-.4.6-2 1.7-2 1.7Zm-1 9.5s.8-1.5 1.9-1.1c1 .4 1 1.2 1 1.2s-.4-.6-1.2-.7c-.7 0-1.6.6-1.6.6Zm-2.9-2.7l3.7-1 3-1s-1.2 1.3-3 2.3c-1.6 1-3 1-3 1s3.2-1.4 3.4-2c0 0-3 .9-4 .7Z"/><path fill="#FFF" d="M296.2 185.8v0c1.17.85 1.38 2.48.47 3.65 -.83 1.05-2.32 1.37-3.48.74"/><path fill="#F16E16" d="M296.1 186.1v0c.92.88.9 2.35-.04 3.27 -.71.69-1.77.9-2.67.52"/><path d="M295 187.4v0c.54-.07 1.04.33 1.1.87 .06.54-.34 1.04-.88 1.1 -.44.04-.85-.19-1.03-.59"/><path fill="#D5D3CA" d="M295.2 188.6v0c-.03.16-.19.27-.35.25 -.17-.03-.28-.19-.25-.35v0c0-.17.13-.3.3-.3v0c.16-.01.3.11.31.28 0 .04-.01.08-.02.11Z"/><path fill="#AB6D29" d="M296.8 184.2s1.6-1.5 1.9-3.5c.3-2 .1-3.2.1-3.2l.9 1 .3 1.4 -.5 2.6 1.6-.8c.6-.8 1.5-4.2 1.2-6.3 0 0 .4 1-.2 3.8 -.6 2.9-1 3.2-3.2 4.4v0c-1.67.98-2.99 2.44-3.8 4.2v0c-.67 1.07-1.44 2.07-2.3 3l1.6-2.6c.8-1.8 1.7-2.8 1.7-2.8l.7-1.2Z"/><path fill="#904720" d="M296.1 185.4s.7-2 .7-3.1 -.7-2.4-.7-2.4 1-.1 1 2.2c.1 2.4-.4 2.6-1 3.3Z"/><path fill="#4D2A15" d="M299.2 182.8s.7-1.7.7-3c0-1.1-1-2.3-1-2.3s1.1.3 1.2 2.4c.1 2.2-.2 2.2-1 3Z"/><path fill="#AB6D29" d="M292.1 191s-.6-.8-.5-1.3c0-.6 0-.7 1.4-2.2v0c.97-.87 1.82-1.88 2.5-3 .3-.9 1.5-3 .6-4.6 0 0 .6 2.4-.8 4.3v0c-.9 1.4-2.02 2.64-3.3 3.7 -1.1.8-1.3 1.2-1.2 1.7 0 .5.1 1 .3 1 .4.3 1 .3 1 .3Z"/><g fill="#6C4119"><path d="M305.5 195.6s.3 0 .5-.3 .2-1-.3-1.6h0c-.44-.54-1.04-.93-1.7-1.1l-2-.4s.4.8 1.3 1.3c.4.2 1.2 0 1.6.4 .5.4.6 1.7.6 1.7Z"/><path d="M305.5 195.6s1.5-.5 1.6-2l-.1-1.2s.2.5.8.7l.6-.2s-1 2.8-3 2.7Z"/></g><path fill="#BF802D" d="M294.8 195.3l.8.8 .9 1 3.7-1 1.2-1.2 -1-1.6h-2.7l-3 2Z"/><path fill="#F9C83A" stroke="#8F4620" stroke-width=".4" d="M303.8 194l-.7-.9 -.7-.6c-.6-.3-2.8-.3-2.8-.3l-1.6.3s-.5.5-1.3.3v0c-.89-.28-1.76-.62-2.6-1l-1.9-.7s-1.3-.6-1.6-.5c-.3.1-1.5 1.3-1.5 1.3s-.2.7.3.7c.4 0-.7.2-.7.2s-2.8 1.6-3.2 4.4c-.5 2.7 4.6 6.8 6.5 4.7 0 0-2.8-2-2.2-3.7 .5-1.7 1.8-2.8 4-3 2.1 0 2.3-.3 3.2-1 1-.6 2.7-1 4 .3 1.3 1.4-5 2.7-5 2.7l.7 1s7.7-2.7 7-4.1Z"/><path fill="#FCF3D8" d="M289.4 200.7s-3.1-.8-2.9-3.7c.3-2.8 3-3.9 3.4-4 .4-.2.3-1.6.8-1.8v0c.7-.15 1.44.04 2 .5l1.4.8s-5.5 2.4-5.5 5.6c0 2.1.8 2.5.8 2.5Z"/><path fill="#FDEAAF" d="M303.8 193.8s-.4.2-.5 0c-.6-1-2-1.4-3-1.3 -1.5 0-2.4.5-3.4.5s-.7-.1-1.8-.2c-1.1 0-3.5-1.8-4-1.6 -.6.2-.8.8-.8 1.1 .1.4-1 .4-1 .1 -.2-.2.7-1.7 1.7-1.7 2.6 0 4.6 1.7 5.8 1.7 1.3 0 1.7-.7 3.4-.7s3.5.8 3.6 2Z"/><path fill="#513625" d="M295.2 195.8s1.3-.2 2.2-.6l2.2-.8 -2 1.2 -2 .5 -.4-.3Z"/><path fill="#F9C83A" d="M290.8 202.3c-.2 0-1.3 0-3-1.1 -1.8-1.2-2.3-3.2-2.3-3.2s-.4-1.9 1.4-3.8c1.8-1.9 2.1-1.3 2.2-1.2 .1 0 0 .1 0 .1l-1.7 1.3 -.7 1.3 -.7 1.2v1.4l.8 1.5 2.5 1.5 1.5 1Z"/><path fill="#8B5122" d="M289.8 191.4v-.2 .3 -.3 .3 -.3l-.3.2h.2v-.2l-.2.2 .2-.2h-.2v0c-.03.06-.03.13 0 .2l.2-.2h-.2 .2 -.2 .2 -.2 .2l-.2-.1 .2.1 -.2-.1 -.1.1v0c-.15.15-.28.32-.4.5l-.2.6v.1c0 .3.2.5.4.6h1.4v0c.13-.09.17-.27.1-.4h-.001c-.05-.13-.17-.21-.3-.2l-.7.1v-.001c-.1.01-.21.01-.3 0v-.2 0c-.02-.07-.02-.14 0-.2v-.001c.08-.18.18-.35.3-.5l.2-.1v-.1l.1-.2v0c-.05-.13-.17-.21-.3-.2v0c-.13.04-.21.16-.2.3h0c.04.12.16.2.3.2Z"/><path fill="#F9C83A" d="M295.1 194.1l-3.8 1.1c-.3.2 1.2 0 2.4 0l1.3.1 .9-.2c1.4-.5 4.4-1.6 4.7-.3 .2 1-4.1 2-4.1 2v.5l3.4-.9 1.9-1 .5-.9 -1.7-1.2H298l-1.2.3 -1.7.5Z"/><path fill="#8F4620" d="M289.7 199.5c.3.8.9 2 1.6 2.3 0 0 .1 0 0 0 0 .1-.5.5-1.7.1 -1.2-.3-3-.7-4.1-4v.7l.7 1.3 1.1 1.2 1.9 1.1 1.2.3 1-.2 .6-.4 -1.1-1 -1.4-2.3 .2 1Z"/><path fill="#FCCA3D" d="M302.1 232.6v1.2h-.7v-1.5Zm-4.7-34.4l-1.2-1.4 -.8.1 1.2 1.8Z"/><path fill="#816C2A" d="M302 235.5l-1.7-1v-.001c-.78-.3-1.58-.51-2.4-.6v.3h.2l2.1.6v-.001c.58.29 1.15.62 1.7 1l.1-.3Zm0-3.1h-3v0c-.48.15-.92.38-1.3.7l.1.2v0c.75-.55 1.67-.8 2.6-.7v0c.46.01.93.05 1.4.1v-.3Zm-.4-2.7l-2.6 1.4 -1.6 1.2 .2.2 .5-.4v0c.81-.62 1.68-1.15 2.6-1.6l1-.5 -.1-.3Zm-1.7-2.7s0 .7-.3 1.2v0c-.19.27-.39.54-.6.8v0c-.82.88-1.65 1.75-2.5 2.6l.2.3 -.001 0c.84-.9 1.67-1.8 2.5-2.7l.7-.8c.3-.6.3-1.3.3-1.4h-.3Zm-2.1-1.2l0-.001c.13.73.06 1.49-.2 2.2l-1 2.2 -.4.9 -.2.3 .2.2s1.3-2.2 1.7-3.5c.2-.5.2-1 .2-1.5v0c.03-.3.03-.61 0-.9h-.4Zm-2.1-.3v0c-.03.39-.03.8 0 1.2 0 .6 0 1.2-.2 1.7l-.7 1.8 -.3 1 .3.1 1-2.8c.2-.5.2-1.2.2-1.8v-1.2h-.3Zm-1.6 0v1.2l-.3 2v0c-.19.82-.36 1.66-.5 2.5h.3l.2-.8 .3-1.7c.3-1 .3-3.2.3-3.2h-.3Zm-1.8.3v0c-.11.96-.11 1.93 0 2.9l0-.001c-.21.81-.35 1.65-.4 2.5h.3l-.001 0c.09-.81.22-1.61.4-2.4l.1-1.4v-1.6h-.4Zm-1.3.2v.2 -.001c-.01.74-.11 1.48-.3 2.2l-.6 1.9 -.2 1h.3l.8-2.9 0 0c.19-.72.29-1.46.3-2.2v-.2h-.3Zm-1.6 0v.7c0 .6 0 1.4-.4 2v0c-.33.61-.77 1.15-1.3 1.6v0c-.23.14-.47.27-.7.4l-.2.2 .1.3s1.7-1 2.4-2.3c.4-.7.5-1.6.5-2.2v-.7h-.4Zm-.9-.3v.2 0c-.23.68-.57 1.32-1 1.9 -.3.4-.9.8-1.3 1.1v0c-.27.17-.53.34-.8.5l.2.3s1.4-.8 2.1-1.7v-.001c.47-.68.84-1.42 1.1-2.2h-.3Zm-1.5-.7v.1 0c-.28.47-.62.91-1 1.3 -.1.2-.5.4-.9.6l-.6.4 .1.3 .7-.4 1-.7 .7-.9 .3-.6 -.3-.1Zm-.7-1l-.3.3 -.9 1v0c-.16.14-.33.27-.5.4l-.4.3 .1.3 .7-.4c.7-.6 1.5-1.7 1.5-1.7l-.2-.2Zm-.4-.6l-.2.2 -.9.6v-.001c-.25.15-.52.25-.8.3v.4l.6-.3c.7-.3 1.5-1 1.5-1l-.2-.2Zm-.2-.7l-.8.4 -.6.3v0c-.13.08-.26.14-.4.2v.3c.2 0 .3 0 .5-.2l1.4-.7 -.1-.3Zm-.4-1.3l-.5.5 -.9.3v.3 0c.44-.03.86-.21 1.2-.5v0c.17-.12.34-.26.5-.4l-.3-.2Zm.1-2.2l-.6.5c-.3.3-.6.6-.7 1v0c-.04 0-.07 0-.1 0v.5l.2-.2 -.001-.001c.07-.06.14-.13.2-.2 0-.2.4-.6.7-.9v0c.15-.18.32-.35.5-.5l-.2-.2Zm10.7-12.8h1.6l.1-.2v-.1h-.1v.3 -.1h-.2 .1 -.1v-.2l.1.1v-.1 .1 -.1h-1.5v.3Zm0-1h.2c.2 0 .4 0 .6-.2 .4-.1.7-.4 1-.6l.5-.3v0c.09-.02.2-.02.3-.001v-.4l-.6.2 -1 .7 -.8.3 -.1.3Zm0-1.5l.7-.2 1.2-.8c.4-.3.7-.4 1-.4v-.3c-.3 0-.5 0-.8.2l-1.2.7v-.001c-.3.22-.64.39-1 .5v.3Zm-.6-1.4l1.5-1 1.6-1.2 -.1-.3 -1.7 1.2c-.5.5-1.1.9-1.5 1l.2.4Zm-1-1.5l3.2-2.3 -.2-.3 -3.2 2.3 .1.3Zm-1.5-1.6v-.001c1.05-.88 2.19-1.65 3.4-2.3l-.2-.2 -1.5 1 -1.9 1.3 .2.2Zm-1-1l0-.001c.85-.62 1.72-1.22 2.6-1.8l.8-.5 -.1-.3h0c-.28.14-.55.31-.8.5v-.001c-.91.65-1.81 1.31-2.7 2l.1.2Z"/><path fill="#78732E" d="M294.5 195.4l.1.1v0c.91.74 1.75 1.58 2.5 2.5 1 1.2 1.8 2.7 1.8 4.1v.5 0c-.32 1.87-1.19 3.62-2.5 5 -2 2.3-4.8 4.4-7 6.4v0c-1.13.9-2.13 1.95-3 3.1v0c-.8 1.06-1.22 2.36-1.2 3.7v0c.03 1.21.41 2.39 1.1 3.4v-.001c.85 1.31 2.33 2.07 3.9 2 1.8 0 3.8-.7 5.6-.7 1.6 0 3 .4 4.4 1.9 1.3 1.4 1.7 3.6 1.7 5.7 0 1.6-.2 3-.4 4.2v-.001c-.12.6-.25 1.2-.4 1.8h.3s.8-2.8.8-6c0-2.1-.4-4.5-1.8-6v0c-1.17-1.3-2.86-2-4.6-1.9 -1.9 0-3.9.6-5.6.6v0c-1.44.09-2.82-.6-3.6-1.8v0c-.65-.98-1-2.13-1-3.3v-.1c0-1.6.7-3 1.9-4.3 1.8-2 4.5-4 7-6.2 2.3-2.2 4.4-4.5 4.7-7.5v-.5c0-1.8-1.1-3.5-2.3-4.8l0-.001c-.7-.81-1.47-1.54-2.3-2.2l-.1.3Z"/><path fill="#A8AC71" d="M292.1 198.4l-.4-.3 -.3.1 .6.5Zm1 1l-.3-.3h-.1l.2.4Z"/><path fill="#78732E" d="M294.5 201l-.2-.4 -.2.2 .3.3Zm1 1.5l-.1-.3h-.3l.4.5Zm.7 1.5l-.2-.4v.4Zm0 1.5v-.4l-.2-.1v.5Zm0 1v-.5l-.1-.1v.6ZM284 221.1l.1-.7c.1-.3-.3.1-.3.1v.5l.2.1Z"/><path fill="#FFF" d="M284 222.1l-.3.1 .1.5 .1-.2v-.4Z"/><path fill="#78732E" d="M284 223.9v-.4h-.2v.6Z"/><path fill="#FFF" d="M284 224.9v-.4h-.1v.4Zm.3 1.4v-.4l-.2.1 .1.4Zm.4 1.4l-.1-.5h-.2l.2.6Z"/><path fill="#A8AC71" d="M285.6 229.7l-.2-.3h-.2l.3.3Zm1.5 1.4l-.5-.3c-.3-.3-.1.2-.1.2l.4.2h.2Zm9.8.8l-.4-.3c-.2 0 0 0 .2.4 .1.3.2-.1.2-.1Z"/><path fill="#FFF" d="M297.7 232.5l-.3-.3v.3h.2Z"/><path fill="#A8AC71" d="M297.9 233c-.1-.2-.2.1-.2.1l.2.3v-.5Zm0 1.3v-.5c0-.2-.1 0-.1 0v.5h.1Z"/><path fill="#FFF" d="M297.4 235.7l.2-.4h-.2v.4Zm-14.8-52s.5-.2.1.4l.3-.5h-.5Z"/><path fill="#F9C83A" d="M294.6 195l.4.3h-.5l.1-.3Z"/><path fill="#8F4620" d="M295 195.3l-.7.1c-.2 0 .2-.2.2-.2l.4.1Z"/><path fill="#977C2E" d="M301 239.1s.3 0 .5-.3 -.1.4-.1.4l-.3.1 -.2-.2Z"/></svg>