<svg viewBox="0 0 640 480" xmlns="http://www.w3.org/2000/svg"><defs><clipPath id="a"><path d="M-54.7 0H628v512H-54.7Z"/></clipPath></defs><g clip-path="url(#a)" transform="matrix(.9375 0 0 .9375 51.3 0)"><g fill="#002170" fill-rule="evenodd"><path d="M-140 0H884v512H-140Z"/><path fill="#FFB20D" d="M-140 234.1H884V278H-140Z"/><path fill="#FFF" d="M161.8 438l-33-33 -10.5 45.4 -12-45 -31.9 34 12.1-45L42 407.9l33-33 -45.4-10.6 45-12 -34-31.8 45 12L72 288l33 33 10.6-45.4 12 45 31.8-34 -12 45 44.5-13.5 -33 33 45.4 10.5 -45 12 34 32 -45-12.2Z"/></g></g></svg>