<svg viewBox="0 0 640 480" xmlns="http://www.w3.org/2000/svg"><defs><clipPath id="a"><path d="M-52.3 0h682.6v512H-52.3Z"/></clipPath></defs><g clip-path="url(#a)" transform="matrix(.9375 0 0 .9375 49 0)"><g fill="#0C590B" fill-rule="evenodd"><path d="M-95 0h768v512H-95Z"/><g fill="#FFF"><path d="M-95 0H97.5v512H-95Z"/><path d="M403.7 225.4l-31.2-6.6 -16.4 27.3 -3.4-31.6 -31-7.2 29-13 -2.7-31.7 21.4 23.6 29.3-12.4 -15.9 27.6 21 24Z"/><path d="M415.4 306h0c-27.89 60.85-99.83 87.57-160.68 59.68 -.21-.1-.42-.2-.63-.29h0c-61.2-28.34-87.84-100.91-59.5-162.1l-.001 0c13.66-30.55 39.59-53.9 71.4-64.3v-.001c-4.12 3.42-8.06 7.06-11.8 10.9v-.001c-41.57 46.03-37.95 117.04 8.08 158.61 43.79 39.54 110.73 38.45 153.21-2.52Z"/></g></g></g></svg>