<svg viewBox="0 0 640 480" xmlns="http://www.w3.org/2000/svg"><path fill="#00247D" d="M0 0h640v480H0Z"/><path fill="#012169" d="M0 0h320v240H0Z"/><path fill="#FFF" d="M37.5 0l122 90.5L281 0h39v31l-120 89.5 120 89V240h-40l-120-89.5L40.5 240H0v-30l119.5-89L0 32V0Z"/><path fill="#C8102E" d="M212 140.5L320 220v20l-135.5-99.5Zm-92 10l3 17.5 -96 72H0ZM320 0v1.5l-124.5 94 1-22L295 0ZM0 0l119.5 88h-30L0 21Z"/><path fill="#FFF" d="M120.5 0v240h80V0ZM0 80v80h320V80Z"/><path fill="#C8102E" d="M0 96.5v48h320v-48ZM136.5 0v240h48V0Z"/><g stroke-width=".4" fill="#F7E017" stroke="#000"><path d="M410.1 252.3v0c-9.02 7.12-15.64 16.81-19 27.8 -5.7 27.3-13.3 33.4-25 27.5 0 14.7 12.9 15.8 18.5 7.3 0 13.7 5 25.6 16.2 35.8 4.8 4.3 5.7 1.4 3.4-3.4 -2.2-4.7-2.2-20-6.7-28.8 7.2 5.1 17.8 2.2 17-12 -9.3 5.4-18.5 5.2-19.5-7.7 -1.1-15 4.7-37 15.1-46.5Zm-11-108.6c.7-5.5-.5-11-4.5-14.5 -7.6-6.7-15.1-4.5-20.7 1 -8.3-4.6-12.8 11.4-22.2 8.7 1.5 5.2 4 7.4 8.8 5.6 -5 4.5 0 10-5.9 15.4 10.6 3.4 16.2-2.5 15.8-12.7v0c3.89 3.59 9.97 3.34 13.56-.56 .04-.05.09-.1.13-.15 -5.6-1.8-5.6-6.7-3.4-11.2 3.4-6.8 19.3-6.5 18.4 8.4Z"/><path fill="#337321" d="M423.6 222.1c-12 6.4-33.8 3.7-35.9-12 -2-15.5 13.1-22.5 17.2-24.5 6.3-3.2 11.3 2.5 9.2 9 7-2.4 8.6-10.6 5.2-15.3 9.3.7 17.8-6.3 21.4-16.2 -3.2 3-12 1-19.3.5 2.2-2.5 2.2-7.3 1.5-9.8 -7.6 7.9-18.7 4.3-33.3 27l0-.001c3.43-12.31 6.63-24.68 9.6-37.1 .8-15-15-15.2-18.4-8.4 3.7 4.2 1.7 9 .4 16.5 -1.6 8.7-5 29-7.9 35.8 -.9-10.6-7.9-11.3-9.2-16.5 -2 1.4-3.2 5-2.7 7.5 -2.5-2.7-11.1.7-14.3-3.4 -3.3 6.7 2 13.5 7.7 16.5 -3.3.2-4 4.1-7.7 4.1 4.9 5.7 9.9 8 15.6 8.4 5.8.4 10 2.6 13.5 9.6 5.7 11.3 27.2 18.6 47.4 8.3Z"/><path d="M453.4 208.4c-6.8 18.7-25.3 32-33.6 34 -14.2 3.5-43.2 17.6-51 24.8h-.001c-1.15-.23-2.23-.67-3.2-1.3 -3.8-2.7-7-11.5-.2-19 21.2-19.8 44-11.2 58.2-24.8 -12 6.3-33.8 3.6-35.8-12h0c19.76 5.13 40.74-1.11 54.5-16.2l-.001 0c4.1 4.48 7.79 9.33 11 14.5Z"/><path fill="#337321" d="M410.1 252.3c-10.7 9-16.2 31.4-15.1 46.5 .3 4.2 1.5 7 3.3 8.8 .8-8.6 6.7-30.7 22-40.6 12.8-8.3 32.9-27 40.3-48.5v0c-1.43-3.93-4.24-7.2-7.9-9.2 -7.4 20.2-27.1 29.9-42.6 43Z"/><path fill="#316D3A" d="M446.5 199.7v-.001c-5.32 7.38-12.55 13.19-20.9 16.8v0c1.57-1.92 2.45-4.32 2.5-6.8l-.001 0c-13.19 3.76-27.13 3.93-40.4.5v0c19.79 5.17 40.83-1.07 54.6-16.2v0c1.71 1.64 3.13 3.57 4.2 5.7Z"/><path fill="#337321" d="M365.4 247c-17.2 16-5.8 30.2 1 33.3 -1.9 11.3 8.7 10 8.5 19.4 4.3-2.4 5.4-9 4.7-14.2 5.5 5.9 19.2-.7 22.1 10.2 1.9-12-7.4-24-18.9-22.8 4.8-4.3 2-11.3-2.5-13.1 -.9 8.8-10.8 8.8-14.6 6 -3.9-2.6-7-11.4-.3-18.9Z"/><path d="M402.7 349.6c-1.8 1-1.7 3.5-.5 5 2.3 3.2-1.7 10.4 6 11.9 2.2.5 4-1 4.8-3.5 2.4-7.1-5.2-7.9-5.9-11.3 -.6-3.4-2.8-3-4.4-2.1Z"/><path d="M409.2 362.9c-2.5 1.2-4.8 2.8-3.7 11 .4 3.3.2 11.4-2.8 11.5 1.8 1 5.7 2 7.3-.2 1.5 2.6 5 1.8 6.3-1.3 1.8 1.4 4.3-1 4.3-3.2 1.5 1 4.7-.4 3.9-5.3 2 .7 4.4-.7 5.3-1.9 -2.8-.6-10-4.4-11.6-7.4 -1.7-3.1-6-4.6-9-3.2Z"/><path fill="none" d="M370 134.7c1.2-1.6 2.5-3.2 4-4.6m39 34.5c2-1.1 5-1.3 8.4-1M410 385.2c-.8-1.1-1.1-5.8-.6-8.7m6.9 7.4c-1.3-1-3.6-4.3-4-7.1m8.3 3.9h-.001c-2.93-2.29-5.12-5.39-6.3-8.9m10.2 3.6c-1.9-.4-7.6-4.1-10-8"/><path d="M528.5 247.2c27.7 23.2 29.5 41.7 25.3 52.5 -2.3-10.1-13.8-25.9-25.8-30Z"/><path fill="#337321" d="M478.9 234h51.4v61c0 51.9-28.8 82.5-58.2 98.8l-.001-.001c-36.64-19.15-59.18-57.48-58.1-98.8v-61h36c0 3.2.4 8 4 12.7 8.6-.8 18.2-7.2 24.9-12.6Z"/><path fill="#006EC7" d="M530.3 234v61c0 15.6-2.6 29.4-7 41.3L472 242.6l-51 93.7c-4.5-12-7.1-25.7-7.1-41.3v-61Z"/></g><g fill="#F7E017"><path d="M524.8 331.9v0c-1.12 3.38-2.39 6.72-3.8 10L472 251l-48.7 91c-1.3-2.8-2.9-7.3-3.8-10l52.7-97.6Z"/><g stroke-width=".4" fill="#F7E017" stroke="#000"><path d="M495.3 365.3l5 2.3v-.001c2.58-6.27 3.34-13.13 2.2-19.8 -2.9 7.4-12.8 7.2-15.5 11.7 1.6.8 3.2 2 4.5 2.9 -3.4 3.4-11.3 9-15.8 10.4v-48.4c0-3.4-1.2-6.2-1.2-9v-10c0-2.3-.4-5.6-2.4-5.6s-2.5 3.3-2.5 5.6v10c0 2.8-1.1 6-1.1 9v48.4c-2.5-7.2-12.2-4.8-16.7-12l0-.001c1.76-.42 3.6-.49 5.4-.2 -3.4-11.5-12.7-12.4-14.4-15.8 0 4.8-2 15.8 1.1 20.6 .7-.9 1.8-1.8 3-2.5 3.9 8.3 21.1 8.3 25.2 22.1 3.3-5 15-11 23.2-19.7Z"/><path d="M472.1 325c3.8 0 16-1.2 20.4-1.2 1.2 0 2.1-1.8 2.1-3.9 0-2-.9-3.8-2-3.8 -4.5 0-16.6-1.2-20.5-1.2 -3.8 0-16 1.2-20.4 1.2 -1.2 0-2.1 1.7-2.1 3.8 0 2.1 1 3.9 2 3.9 4.5 0 16.7 1.2 20.5 1.2Zm-2.5-19.8c-.8-.7-1.8-1-3-1 -2.6 0-4.7 1.8-4.7 4.1 0 2.4 2.1 4.3 4.7 4.3 2.5 0 4.6-2 4.6-4.3 0-1.8 2.6-1.8 2.6 0 0 3.7-3.2 6.7-7.2 6.7s-7.3-3-7.3-6.7c0-3.6 3.3-6.6 7.3-6.6v0c1.14.02 2.26.3 3.3.8 0 .6-.3 1.7-.3 2.7Z"/><path d="M451.7 323.8c1.1 0 2-1.8 2-3.9 0-2-.9-3.8-2-3.8"/><path d="M453.4 323.8c1.1 0 2-1.8 2-3.9 0-2-.9-3.8-2-3.8m11.1 8.4c1.4 0 2.5-2 2.5-4.6 0-2.5-1-4.6-2.5-4.6m2.6 9.4c1.5 0 2.6-2.1 2.6-4.8 0-2.7-1.1-4.8-2.6-4.8m8.7 9.7c1.5 0 2.6-2.2 2.6-4.9s-1.2-4.9-2.6-4.9m2.7 9.6c1.4 0 2.6-2 2.6-4.7 0-2.6-1.2-4.7-2.6-4.7m12.1 8.6c1.2 0 2.1-1.7 2.1-3.9s-.9-4-2-4m-43.7 47c1.3-.9 3-1.6 4.8-2m41.1 2.4l-1.4-1m3.8 3c3.2-3.4 5.8-7.3 7.3-11.7"/></g></g><g stroke-width=".4" fill="#FFF" stroke="#000"><path d="M461.8 277.2c0-1.2.9-1.6 2-2.4 1.2-1 1.7-1.4 2.9-1.4h14.8c1 0 1.3.3 1.3 1.3v20c0 1-.2 1.4-1.3 1.4h-19.7v-19.2"/><path fill="#E5E5E5" d="M477.8 297.8c2 0 1.6 0 3-1.4s1.3-1.3 1.3-2.6v-18.4c0-1-.3-1.2-1.3-1.2h-13.7c-1 0-1.5.4-2.7 1.3 -1 .8-1.8 1.2-1.8 2.2v20.1Z"/><path d="M479.3 297.4c0 1-.3 1.3-1.4 1.3h-14.8c-1.1 0-1.3-.3-1.3-1.3v-20.1c0-1 .2-1.3 1.3-1.3h14.8c1.1 0 1.4.3 1.4 1.3Z"/><path fill="#96877D" d="M508 222.3c2.8 3.2 3.8 7.5 2.2 11.8H506c1.8-5.5.7-10.6-7-11.3 -11.4-1-24.8 21.2-44.9 23.9 -5.8-7-5.5-20.3 2-26.6h-.001c-3.87-10.66-9.89-20.4-17.7-28.6v-.001c-3.54-.59-7.12-.82-10.7-.7 3-6.4 11.3-13 18.1-15.7h-.001c1.08-1.54 2.21-3.04 3.4-4.5 .7-8.7 42-4.7 50.7.7 0 9.8 3.9 42.2 8.2 51Z"/></g><path d="M458 228.2c-1-15-7.1-27.4-15.7-35.8v0c6.15 1.46 12.64.38 18-3 7.5-5 27-13.6 34-9.9 .6 1.3 1 4 .5 5.9 -1.7-4.5-20.4 2.4-25.7 4.6 -5 2.3-7.3 5.5-5.5 12.6 -3-2.5-2-4.8-5-6.6 1.2 2.9 2.2 8.2 2.6 12.5 -1.2-3-3.2-9.6-7.6-13.5v0c4.63 10.98 6.55 22.91 5.6 34.8 3 0 9.8-3 12.4-5 -2.3 3.3-9.2 5.7-13.5 6.6v0c-2.2 3.54-3.34 7.63-3.3 11.8 -.3-4.2 1-14.3 3.1-15Zm50-5.9c-3.8-4.2-10.7-6.4-19.6-4l-.001 0c2.15-1.06 4.44-1.83 6.8-2.3 -.3-2.3-2.4-12.5-2.8-15l2.5-1c1.3 6.1 2.8 13.1 3.8 16 .8.1 2.6.5 4.2 1.3 -.7-2.4-4.5-19.4-4.4-21.2l3.4-1.8h-.001c1.02 9.51 3.03 18.89 6 28Z"/><g stroke-width=".4" fill="#96877D" stroke="#000"><path d="M506 234c1.7-5.3.6-10.5-7-11.2 -6-.5-12.4 5.3-20 11.3Zm-49.9-48.5h0c-4.99.32-9.99-.19-14.8-1.5 .2-1 .6-2 1.1-3.2v0c-3.09 1.92-5.94 4.21-8.5 6.8 5.4 1.2 16.6 1.7 22.2-2.1Z"/><g fill="none"><path d="M456 220c1.2 3.7 2 7.2 2.1 10.3m-12.4-55.2c-2 3-3.8 6.2-4.4 9h0c4.82 1.23 9.82 1.71 14.8 1.4"/><path d="M438.4 191.5c1.4.3 2.8.5 4 .9 4 1.1 12.3 1.1 18-3 5.6-4 21-16.7 38.3-18"/><path d="M433.9 187.6c5.4 1.2 16.6 1.7 22.2-2.1v-.001c11.19-8.37 24.48-13.49 38.4-14.8"/></g><path fill="#337321" d="M528.5 247.2c19 13 33 25.7 37 46s11.7 25.7 21.2 20.3c-2.2 11.7-14 13-23.9 4 1 13.6-4.5 29.8-18.5 35.7 -.9-8.1 4.5-14.6 3-21.2 -.7-3-1-9.7 2.9-12.9 -7.5 2.5-19.2-2.2-20.3-13.3 8.6 4 19.6 4.7 23.9-6.1 4.2-10.8 2.4-29.3-25.3-52.5Zm23.9-105.6c5.9-15.3 21.2-13.7 26.4-7.2 15.1-8.6 17.2 10.8 30 7 -.2 3.6-4.5 7-9.2 6.7 5 4.5-2 11.3 8.5 15.4 -9 4.5-21.6-.2-25-12.7 -3 5.9-13.5 5.9-17.8 1.2 9.2-2.5 8.6-11 3.4-14.5 -5.3-3.4-14.5-2-16.3 4.1Zm-45.7 33.8h-.001c4.34 13.3 12.02 25.28 22.3 34.8 10.8 10 27.1 7.4 36.3-2 .2 18.8-19.4 20.3-30.2 14.4 -4.8-2.6-8.7-1.3-4.1 3 7 6.2 22.3 11 40.4 14.8 31.5 6.8 20.3 31.8 11 31.6 2.7 0 4.9-2.9 1-6.3 -27.4-24.7-83-15-82.2-70 -5.8 14.5-30 8.8-18.7-8.3 3.6 2.9 10 3.1 11.7-1.4 1.4-3.5.5-9.6-5.8-14.9 1 0 3.3 0 3-2.6 .3 1.6 1.7 3.8 5.3 3 1 1.7 2 2.7 3.5 2.1 .3 0 1.1-.5.8-2.1 .2 3 3.8 4.1 5.7 3.9Z"/><g fill="#F7E017"><path d="M535 222.6c13.1 8.5 28 8.5 41.5-7.2 4.3-5 11-9.3 15.8-9.7 4.8-.5 4.5-5 8.1-6 -2.2-.6-3.1-3.3-6.5-3 8.5-2.9 6-9.7 10.1-13 -3.4 1.3-8.6-3.7-13.5 2.7 1.3-3-.5-6.4-1.7-7.8 .5 3.4-6.6 4-8 12.6 -.7 4.8-3.4 4.6-3.8-2.9 -.3-5.4-3-20.5-6-28.2 -3.2-7.6-4-18.2.3-19.7v0c-.62-1.14-1.52-2.1-2.6-2.8 -5.3-3.4-14.5-2-16.3 4 -5.8 15.4 10.6 24.2 9.3 40.9 -2.5-12.4-22.6-15.6-22.4-27.8 -6.5 3-5.6 8.4-3.1 12.7 -4-6.3-13.3 4-21.2-4.5 -1 11.3 9 15.5 17.1 16 -4 7.2 1.4 13.3 6.8 15.3 .2-12.6 26.1-7.5 26.4 14.2 .2 18.5-19.7 20-30.3 14.2Zm36.4 17.8c31.5 6.8 20.3 31.8 11 31.6 -5.9-.2-11.5-5.1-11.8-9.4 -6.8 3.6-5 10.7.2 13.5 -14.2-1.6-20.2 7.7-20.5 18 2.6-4.8 10.4-5 13.4-4s10.5 1.5 13.5-2c-2.5 2.2 1.6 7.2-2 11 12-.4 17.1-11.5 15-16.3 15.4-14 12.5-36.8-18.8-42.4Zm-24.1 107.2c2 1.2 1.8 4 .4 5.7 -2.8 3.4 1.4 11.5-7.2 13 -2.5.3-4.4-1.3-5.2-4.2 -2.4-8 6.1-8.6 7-12.3 1-3.8 3.3-3.3 5-2.2Z"/><path d="M539.6 362.1c2.7 1.4 5.1 3.4 3.7 12.4 -.7 3.7-.8 12.8 2.5 13 -2 1-6.4 1.9-8-.5 -1.9 2.8-5.7 1.8-7-1.8 -2.2 1.6-4.8-1.3-4.7-3.7 -1.8 1-5.3-.7-4.2-6 -2.2.6-4.9-1-5.8-2.4 3.1-.6 11.2-4.5 13.3-7.8 2-3.4 7-4.8 10.2-3.2Z"/></g><path fill="none" d="M537.7 387c1-1.2 1.5-6.5 1-9.7m-8 7.9c1.5-1 4.2-4.5 4.8-7.7m-9.5 4v0c3.33-2.48 5.89-5.84 7.4-9.7m-11.5 3.7c2-.4 8.6-4.3 11.4-8.6"/><path fill="#F7E017" d="M501.2 195.8c-.4 23 9.2 34.8 22.6 42.4 -5-3-2.8-13.1-9.5-16.4 1.6-.1 4 2.1 8 1.2 -2-4.2-5-10.8-12.4-11.7 2-.2 6 .5 8.8-.5 -3.8-6-14-3.1-17.5-15Zm-2.4-22c-.8-.3-1.5-1.1-2.1-2.2 -3.6.8-5-1.5-5.3-3 .3 2.6-2 2.5-3 2.6 6.3 5.2 7.2 11.3 5.8 14.8 -1.8 4.5-8 4.3-11.7 1.4 -.5 9.6 12 12.7 16.5.7 0 2 2.6 1.8 3.2 4.5 3.2-5.2.8-12.7-3.4-18.8Z"/><path fill="#337321" d="M479 128v0c-5.06-5.01-7.93-11.8-8-18.9 .2-5 2.2-10.3 9.5-8 -2.3 0-.7 4.4-3 4.9 1.8.7 4.4-.9 4.8-2 .4 1.6 3.4 1.2 3.6 3 1.1-.9-.1-5.3-1.8-6.2 1.2-.7 2-4.2 1.4-5.9 -1.2.2-2.9 1.8-3.2 4.1 .6-1.8-.1-6.3-3.3-7 -.9 1.2-1.1 4.3.1 6 -2.9-.7-7.2 1.2-8.2 3.7 .2-3 .6-7.3 2.5-10 .6-.8-1-2.4-2.1-.3 -2.2-4.3-8-6.5-10.7-4.4 -2.6 2.2-6-1-8.2 2.4 -2.1 3.4-9.4 3.7-9 7.3 .2 2.2-.3 5.5-1.4 6.7 -2.6 2.9 1.3 5 2 7.6 -.5-8.5 13.1-25.2 26.8-18.7l-.001-.001c-1.67 3.64-2.58 7.59-2.7 11.6 -.6 7.7.6 18.5 8 24.9Z"/><path fill="#C8102E" d="M483 101.1c0-2 3.5-4.7 8.2-4.6 5.7 0 10 5.2 14.6 4.7s2.4 2 1.4 2.8c-1 .6-1.5 1.6-1.2 2.9 .3 1.2-.2 2-2 .9 -4.1-2.6-8.2 1-13.6-1 -4.5-1.7-7.2-2.7-7.4-5.7Z"/><path d="M459.8 154.4v0c-2.99-7.1-8.27-12.98-15-16.7l-.2-3.8v0c3.67-2.1 7.06-4.65 10.1-7.6 17 8 40-3.4 50.6-15.3l4 2.4 -2 2.7 -2.1-1.1v-.001c-4.68 5.13-9.77 9.88-15.2 14.2 3.9 1 9.3 1.7 10.8 1.6 9.4-6.8 16.9-12.9 20.5-13.3l3 4 -2.7 2 -2.1-1.3v-.001c-11.45 10.87-20.39 24.11-26.2 38.8 -6.3-1.4-28.9-.5-33.5-6.6Z"/><g fill="none"><path d="M490 129.2c-1.5-.4-2.8-.8-3.5-1.2l0-.001c-3.64 2.24-7.83 3.42-12.1 3.4"/><path d="M460.7 151.9c-1.5-8.4 1-17.8 5.2-20.6v0c10.78 6.32 24.19 6.12 34.8-.5"/><path d="M460.7 147.5c7.2-.2 23 1 26.7 1.5 3.9.6 10.3 2.2 9.4 4.1m-32.8-6.8l2.1-2 -2-2.1 -2.1 2Z"/></g><path fill="#337321" d="M469 104.3c-2.6-3.6-9.8-4.8-11.3 0 -.7 2.2-1.7 4.5-3.4 5.5s-1.3 4.1-.6 5.4c1.8 3.3.2 6.5 3.7 8.6 0-2.6 3.9-5.3 7.1-6 3.3-.6 8.3-3.6 9-6.8 .6-3.4 1.8-6-4.5-6.7Z"/><path d="M452.7 136.8h1v6.1l.5.3 5.3-3 .5.7 -5.4 3.1v.6l5.4 3 -.5.8 -5.4-3c-.1.1-.3.3-.5.3v6.2h-.9v-6.2 0c-.19-.08-.35-.18-.5-.3l-5.3 3.1 -.5-.8 5.3-3v-.7l-5.3-3 .5-.8 5.3 3 .5-.3Z"/><path d="M460.7 151.8v-.001c-4.16 4.2-10.93 4.24-15.14.09 -4.21-4.16-4.25-10.93-.1-15.14 4.15-4.21 10.92-4.25 15.13-.1 .35.35.69.73.99 1.13l0 0c-.63 1.84-1.04 3.75-1.2 5.7h-.001c-.39-4.02-3.96-6.96-7.97-6.57 -4.02.38-6.96 3.95-6.57 7.96 .35 3.73 3.48 6.58 7.23 6.59 3.4 0 6.3-2.3 7.2-5.4 0 1.4 0 4.6.4 5.7Z"/><path fill="#337321" d="M448.6 162c-.6-.8-1.9-3-1.7-4.5v0c1.4.04 2.74.57 3.8 1.5 -.1-1.2-.6-3.6-.3-4.8 1.2.5 3.8 2 4.7 3.6 -.2-1.1-.7-4-.2-5.8 1.3.8 3.6 2.9 4 4.4 .2-2.3 1-6 1.6-7 1 1 2.6 2 3.6 3.4 .2-1.9 1.2-4 2.5-4.5 1 1 2.6 3.7 3 6.6 1-.3 2.3-2 2.9-3 .5 1 1.1 2.5.7 4.5 1.3-1.2 2.8-2.7 3-4.1 1 .7 2.7 2.4 3.1 4.2 -.2-1.5 0-4.1-.5-5.6 1.6 1 3 2.5 3.3 4.2 .5-1.6 1.5-4.4 2.4-5 .9 1.8 1.8 4 1.7 5.7 .6-1.1 1.4-3.2 2.3-3.6 .8 1.2.7 4 .5 5.4 .8-1.1 2.3-2.5 3.2-3 0 .8.2 2.1 0 3.1v-.001c1.43-1.48 2.52-3.26 3.2-5.2 1.6.8 3.2 3.5 3.3 4.9 1.2-.5 3.4-2.5 4-3.6 0 .8.4 3 0 4.6 .7-.7 1.3-2 1.7-2.6 .4 1.1 0 3.8-.4 5.3v0c.94-.85 2.13-1.38 3.4-1.5v0c-.29 2.74-1.14 5.4-2.5 7.8 -10.8-3-33.5-4.1-56.3-5.4Z"/></g><g fill="#F7E017"><path d="M486.4 102.3c0-.9 1.8-2.7 5.1-2.7 4 0 7.7 3 10.9 2.7 3.2-.2 1.6.9 1 1.1 -.8.3-1.1.7-1 1.2 .3.6 0 .9-1.4.4 -2.8-1-5.7.4-9.4-.4 -3.2-.7-5.1-1-5.2-2.3Z"/><path fill="#F7E017" stroke="#000" stroke-width=".4" d="M452.1 168.8c-3.3 4-6.7 3.4-7.4.8 -.7-2.6 1.8-3.8.9-6.1s1.5-3.3 2.6-2.3 4.8-2.2 6.3 1.2c1.6 3.4 2.8 5.7 2 7 -1 1.4-3.7.7-4.4-.6Zm14.6-6.1c-.6-1.5 2.9-4.4 4.7-2.3 1.8 2 4.6-2.2 6.2 1 1.6 3.2 2 4.9 2.9 6.7 .7 1.8-4.3 2.7-5.9 1.2 .2 1-4.4 1.9-5.6-1.2l-2.3-5.4Zm23.4 1.9c-.8-1.6 3.3-3.9 5.5-1 .5-1.2 4.6-1.4 4.9 2l.5 6.9c.1 1.3-2.5 2.6-4.3-.9 -3.4.7-4.9-1.2-5.3-3.1 -.4-2-.8-3-1.3-4Z"/></g><g stroke-width=".4" fill="#337321" stroke="#000"><path d="M454.3 162.3c-.5-1.1 3-3.4 5.2-1.7 2.3 1.7 5.5-1.4 7 1.6 2.7 6.2 2.8 6.6 2 7.8 -.8 1.2-4.5.7-5.4-1 -.1 1.2-3.3 1-4.9.1 -1.8-1-3.1-4.8-3.9-6.8Zm23.7.3c-.7-1.8 4.6-3.3 7-.2 1.1-1.1 3.7-1.2 5.1 2.2 1.5 3.3 1.7 5.1.7 6 -.8.6-3.5 1-4.4-.5 -1.3.8-5.1.1-6-2 -.8-2.1-1.5-4-2.3-5.5Zm22.5 3.4c0-1.7 2.8-2.4 3.9 0 1 2.2 4.5.1 4.8 4 0 .7-.4 3.5-1.5 4.9 -1 1.3-6.3 0-6.7-2.9l-.5-6Z"/><path fill="none" d="M452.1 168.8c-1.2-1.7-2.9-4.4-5-1.5m16.1 1.7c-.8-.9-1.7-2.5-2-3.7m13.4 4c-.8-.6-2-1.7-2.6-2.9m1.6-3c2 .2 3.3 2 3.9 2.9 .6.8 2 2.4 3 2.5m5.9 1.3c-.7-1-1.4-2-1.5-2.8m.1-4.9c.6 1 1.1 1.7 1.5 2.6m10.1 6.6v0c-.77-1.61-1.99-2.97-3.5-3.9m3.1-2.3c.1 3.3 4.5 3.6 4.7 6m3.5-5.4c.4.8.6 1.6.6 3"/></g></svg>