<svg viewBox="0 0 640 480" xmlns="http://www.w3.org/2000/svg" xmlns:xlink="http://www.w3.org/1999/xlink"><defs><path d="M191 141.6v3.4h-4v-3.4h4Z" id="d"/><path d="M193.9 140.6c0-.6.9-.6.9 0v1.6h-.9v-1.6" id="f"/><path d="M240.2 198.2a1.5 1.5 0 1 0 0 3 1.5 1.5 0 1 0 0-3Z" id="k"/><path d="M244.4 202.4a1.5 1.5 0 1 0 0 3 1.5 1.5 0 1 0 0-3Z" id="m"/><path d="M236.1 202.4a1.5 1.5 0 1 0 0 3 1.5 1.5 0 1 0 0-3Z" id="l"/><path d="M186.8 147.7l-.7 6.3h4.2c0-5.2 4-6 4-6 .1 0 4 1.1 4.1 6h4.2l-.8-6.4h-15Zm-1 6.4h17c.3 0 .6.3.6.7 0 .5-.3.8-.6.8h-17c-.3 0-.6-.3-.6-.8 0-.4.3-.7.7-.7Z" id="b"/><path d="M244.4 194.2a1.5 1.5 0 1 0 0 3 1.5 1.5 0 1 0 0-3Z" id="j"/><path d="M188.6 142.8c0-.6.8-.6.8 0v1.2h-.8v-1.2" id="g"/><path d="M192 154c0-3.3 2.3-4.2 2.3-4.2s2.3 1 2.3 4.2H192m-5.8-9h16.3c.3 0 .6.4.6.8 0 .3-.3.6-.6.6h-16.3c-.3 0-.6-.3-.6-.7 0-.3.3-.6.6-.6Zm.4 1.5H202c.3 0 .6.3.6.7 0 .4-.3.7-.6.7h-15.5c-.4 0-.6-.3-.6-.7 0-.4.2-.7.6-.7Zm5-10.6h1.2v.8h.9v-.8h1.3v.9h.9v-1h1.2v2c0 .4-.2.6-.5.6h-4.4c-.3 0-.6-.2-.6-.5v-2Zm4.6 2.7l.3 6.4h-4.3l.3-6.5h3.7" id="c"/><path d="M232.6 202.4v0c-.02 2.11.76 4.14 2.2 5.7v0c1.35 1.5 3.27 2.38 5.3 2.4 2.1 0 4-1 5.3-2.4h0c1.43-1.56 2.21-3.59 2.2-5.7v-10.8h-15v10.8" id="h"/><path d="M236.1 194.2a1.5 1.5 0 1 0 0 3 1.5 1.5 0 1 0 0-3Z" id="i"/><path d="M190.2 154.4c.1-5.5 4-6.8 4-6.8 .1 0 4.3 1.4 4.3 6.9h-8.3" id="a"/><path d="M186.3 139h1.2v1h.9v-1h1.2v1h.9v-1h1.2v2c0 .4-.2.6-.5.6h-4.3v0c-.34 0-.6-.27-.6-.6v-2Z" id="e"/></defs><path fill="#F00" d="M256 0h384v480H256Z"/><path fill="#060" d="M0 0h256v480H0Z"/><g stroke-linecap="round" stroke-width=".6" fill-rule="evenodd" stroke="#000" fill="#FF0" stroke-linejoin="round"><path d="M339.5 306.2c-32.3-1-180-93.2-181-108l8.1-13.5c14.7 21.3 165.7 111 180.6 107.8l-7.7 13.7"/><path d="M164.9 182.8c-2.9 7.8 38.6 33.4 88.4 63.8 49.9 30.3 92.9 49 96 46.4l1.5-2.8c-.6 1-2 1.3-4.3.6 -13.5-3.9-48.6-20-92.1-46.4 -43.6-26.4-81.4-50.7-87.3-61h-.001c-.46-.97-.67-2.04-.6-3.1h-.2l-1.2 2.2 -.2.3Zm175.3 123.8c-.5 1-1.6 1-3.5.8 -12-1.3-48.6-19.1-91.9-45 -50.4-30.2-92-57.6-87.4-64.8l1.2-2.2 .2.1c-4 12.2 82.1 61.4 87.2 64.6 49.8 30.8 91.8 48.9 95.5 44.2l-1.3 2.3Z"/><path d="M256.2 207.2c32.2-.3 72-4.4 95-13.6l-5-8c-13.5 7.5-53.5 12.5-90.3 13.2 -43.4-.4-74.1-4.5-89.5-14.8l-4.6 8.6c28.2 12 57.2 14.5 94.4 14.6"/><path d="M352.5 193.8c-.8 1.3-15.8 6.4-37.8 10.2v-.001c-19.4 2.93-38.99 4.37-58.6 4.3v0c-18.8.07-37.57-1.14-56.2-3.6 -23.1-3.6-35-8.6-39.5-10.4l1.1-2.2c12.7 5 24.7 8 38.7 10.2l-.001 0c18.49 2.49 37.13 3.73 55.8 3.7l0 0c19.51.02 39-1.42 58.3-4.3 22.5-3.7 34.8-8.4 36.6-10.5l1.6 2.7Zm-4.4-8.1c-2.4 2-14.6 6.3-36 9.7h0c-18.48 2.67-37.13 4.01-55.8 4 -22 0-40.1-1.6-53.8-3.6 -21.8-2.8-33.4-8-37.6-9.4l1.3-2.2c3.3 1.7 14.4 6.2 36.5 9.3l-.001 0c17.76 2.37 35.67 3.51 53.6 3.4v0c18.53 0 37.05-1.34 55.4-4 21.5-3 33.1-8.4 34.9-9.8l1.5 2.6ZM150.3 246c19.8 10.7 63.9 16 105.6 16.4 38 .1 87.4-5.8 105.9-15.6l-.5-10.7c-5.8 9-58.8 17.7-105.8 17.4 -47-.4-90.7-7.6-105.3-17v9.5"/><path d="M362.8 244.5v2.5c-2.8 3.4-20.2 8.4-42 12v0c-21.66 3.11-43.53 4.58-65.4 4.4l-.001 0c-20.75.17-41.48-1.27-62-4.3h-.001c-15.32-1.77-30.28-5.82-44.4-12v-2.9c9.7 6.4 35.9 11.2 44.7 12.6 15.8 2.4 36.1 4.2 61.7 4.2 26.9 0 48.4-1.9 65-4.4 15.7-2.3 38-8.2 42.4-12.1Zm0-9v2.5c-2.8 3.3-20.2 8.3-42 11.9v0c-21.66 3.14-43.52 4.65-65.4 4.5l-.001-.001c-20.75.12-41.48-1.32-62-4.3h-.001c-15.32-1.77-30.28-5.82-44.4-12v-3c9.7 6.5 36 11.2 44.7 12.6l0 0c20.42 2.99 41.05 4.42 61.7 4.3 26.9 0 48.5-2 65-4.5 15.7-2.2 38-8.1 42.4-12Zm-107 68.8c-45.6-.2-84.7-12.4-93-14.4l6 9.4v0c28.04 9.93 57.64 14.77 87.4 14.3 34.7-1 65-3.7 86.3-14.1l6.2-9.8c-14.5 6.9-64 14.6-93 14.6"/><path d="M344.9 297.3v0c-.92 1.34-1.85 2.68-2.8 4 -10 3.6-26 7.4-32.6 8.4h-.001c-17.72 3.3-35.69 4.97-53.7 5 -40.4-.6-73.5-8.5-89-15.3l-1.3-2.1 .2-.4 2.1.9v0c28.46 9.41 58.22 14.31 88.2 14.5 18.8 0 37.5-2.1 52.6-4.8 23.2-4.7 32.6-8.2 35.5-9.8l.7-.4Zm5.3-8.8h-.001c-.66 1.17-1.33 2.33-2 3.5 -5.4 2-20 6.2-41.3 9.2 -14 1.9-22.7 3.8-50.6 4.3v0c-31.9-.33-63.6-5.04-94.2-14l-1.1-2.5h0c31.09 8.59 63.14 13.29 95.4 14 25.5-.5 36.4-2.4 50.3-4.3 24.8-3.8 37.3-8 41-9.1v0c0-.07 0-.14 0-.2l2.6-1Z"/><path d="M350.8 237.6c.1 30-15.3 57-27.6 68.8v0c-18.17 17.71-42.43 27.8-67.8 28.2 -30.3.5-58.8-19.2-66.5-27.9h-.001c-17.23-18.27-27.03-42.3-27.5-67.4 1.8-32.8 14.7-55.6 33.3-71.3h-.001c18.06-14.88 40.79-22.92 64.2-22.7v0c27.62 1.33 53.4 14.26 71 35.6 12.5 15.2 18 31.7 20.9 56.7ZM255.6 135h-.001c58.23-.01 105.56 46.97 106 105.2v0c0 58.37-47.33 105.7-105.7 105.7 -58.38 0-105.7-47.33-105.7-105.7 -.1-58 47.3-105.2 105.4-105.2"/><path d="M255.9 134.5c58.2 0 105.6 47.4 105.6 105.6 0 58.2-47.4 105.6-105.5 105.6s-105.6-47.4-105.6-105.6c0-58.2 47.4-105.6 105.6-105.6ZM152.6 240c0 56.8 46.7 103.3 103.3 103.3 56.6 0 103.3-46.5 103.3-103.3s-46.7-103.3-103.3-103.3c-56.6 0-103.3 46.5-103.3 103.3Z"/><path d="M256 143.3v0c53.33.16 96.53 43.36 96.7 96.7v0c-.17 53.35-43.35 96.58-96.7 96.8 -53 0-96.7-43.6-96.7-96.8h-.001c.21-53.32 43.38-96.49 96.7-96.7ZM161.6 240c0 52 42.6 94.4 94.4 94.4 51.8 0 94.4-42.5 94.4-94.4 0-52-42.6-94.4-94.4-94.4h-.001c-52.05.21-94.19 42.35-94.4 94.4Z"/><path d="M260.3 134h-9.1v212.3h9Z"/><path d="M259.3 132.8h2.3v214.7h-2.2V132.8Zm-9 0h2.4v214.7h-2.3V132.8Z"/><path d="M361.6 244.2v-7.8l-6.4-6 -36.3-9.6 -52.2-5.3 -63 3.2 -44.8 10.6 -9 6.7v7.9l22.9-10.3 54.4-8.5h52.3l38.4 4.2 26.6 6.4Z"/><path d="M256 223.8c24.9 0 49 2.3 68.3 6 19.8 4 33.7 9 38.5 14.5v2.8c-5.8-7-24.5-12-39-15 -19-3.6-43-6-67.9-6 -26.1 0-50.5 2.6-69.3 6.2 -15 3-35.1 9-37.6 14.8v-2.9c1.3-4 16.3-10 37.3-14.3 18.9-3.7 43.3-6.1 69.6-6.1Zm0-9.1l-.001-.001c22.9-.05 45.75 1.96 68.3 6 19.8 4 33.7 9 38.5 14.6v2.7c-5.8-6.9-24.5-12-39-14.9 -19-3.7-43-6-67.9-6v0c-23.21-.08-46.38 2-69.2 6.2 -14.5 2.7-35.4 8.9-37.7 14.7v-2.8c1.4-4 16.6-10.3 37.3-14.3 19-3.7 43.3-6.2 69.7-6.2Zm-.6-46.2c39.3-.2 73.6 5.5 89.3 13.5l5.7 10c-13.6-7.4-50.6-15-94.9-14 -36.1.3-74.7 4-94 14.4l6.8-11.4c15.9-8.3 53.3-12.5 87.1-12.5"/><path d="M256 176.7v0c20.51-.35 41.02 1.09 61.3 4.3 16 3 31.3 7.4 33.5 9.8l1.7 3c-5.3-3.4-18.6-7.3-35.6-10.5s-38.7-4.3-61-4.2c-25.3-.1-45 1.2-61.8 4.2v0c-11.59 1.62-22.83 5.1-33.3 10.3l1.7-3.1c6-3 15.3-6.7 31.1-9.6 17.5-3.2 37.4-4.1 62.4-4.2Zm0-9c21.4-.2 42.6 1 59.1 4v0c10.69 1.58 21.03 4.96 30.6 10l2.5 4c-4.2-4.7-20-9.2-34.1-11.6 -16.4-2.9-36.7-4-58.1-4.2v-.001c-19.93-.18-39.83 1.29-59.5 4.4v0c-10.29 1.43-20.29 4.5-29.6 9.1l2.2-3.3c5.8-3 15.2-5.8 27-8.1l-.001-.001c19.8-3.15 39.84-4.62 59.9-4.4ZM308.4 284v0c-17.34-3.01-34.92-4.35-52.5-4 -65.5.8-86.6 13.5-89.2 17.3l-5-8c16.8-12 52.4-18.8 94.6-18.2 21.9.4 40.8 1.9 56.6 5l-4.5 8"/><path d="M255.6 278.9c18.2.3 36 1 53.3 4.2l-1.2 2.2c-16-3-33.2-4-52-4 -24.3-.2-48.7 2.1-70 8.2 -6.7 1.9-17.8 6.2-19 9.8l-1.2-2c.4-2.2 7-6.6 19.6-10 24.4-7 47.2-8.3 70.5-8.4Zm.8-9.2l0-.001c19.2-.02 38.38 1.65 57.3 5l-1.3 2.3h0c-18.48-3.39-37.23-5.03-56-4.9 -24.2 0-49.9 1.8-73.3 8.6 -7.5 2.2-20.6 7-21 10.7l-1.2-2.2c.2-3.4 11.5-7.9 21.7-10.8 23.5-6.9 49.3-8.6 73.8-8.7Z"/><path d="M349.4 290.5l-7.8 12.3 -22.7-20.1 -58.6-39.5 -66.2-36.3 -34.3-11.7 7.3-13.6 2.5-1.3 21.3 5.3 70.4 36.3 40.6 25.6L336 272l13.9 16Z"/><path d="M158.6 195.5c6-4 50.2 15.6 96.6 43.6 46.1 28 90.3 59.6 86.3 65.5l-1.3 2.1 -.6.5c.1-.1.8-1 0-3.1 -2-6.5-33.4-31.5-85.3-62.9 -50.7-30.1-92.9-48.3-97-43.1l1.3-2.6ZM351 290.4c3.8-7.6-37.2-38.5-88.1-68.6 -52-29.5-89.6-46.9-96.5-41.7L165 183c0 .1 0-.2.4-.5 1.2-1 3.3-1 4.2-1 11.8.2 45.5 15.7 92.8 42.8 20.8 12 87.6 55 87.3 67 0 1 .1 1.2-.3 1.8l1.7-2.6Z"/></g><g transform="translate(0 26.7) scale(1.06667)"><g stroke-width=".7" fill="#FFF" stroke="#000"><path d="M180.6 211h0c.02 15.67 6.33 30.69 17.5 41.7h-.001c11.03 11.2 26.07 17.53 41.8 17.6v0c15.75-.01 30.86-6.27 42-17.4v-.001c11.12-11.07 17.38-26.11 17.4-41.8v-79.2l-118.7-.2v79.3Z"/><path fill="#F00" stroke-width=".5" d="M182.8 211.1v-.001c.04 15.04 6.09 29.44 16.8 40v0c10.64 10.7 25.1 16.74 40.2 16.8h-.001c15.06 0 29.52-5.97 40.2-16.6v-.001c10.67-10.58 16.68-24.98 16.7-40v-77h-113.7v76.8m91-53.7v48.9l-.1 5.1v0c.06 9.02-3.55 17.69-10 24v0c-6.36 6.38-15 9.97-24 10 -9.4 0-17.7-4-23.9-10.2v0c-6.39-6.36-9.98-15-10-24v-54l68 .2Z"/></g><g fill="#FF0"><use xlink:href="#a"/><g stroke-width=".5" fill="#FF0" stroke="#000"><use xlink:href="#b"/><use xlink:href="#c"/><use xlink:href="#d"/><use xlink:href="#d" x="10.6" y="0"/><use xlink:href="#e"/><use xlink:href="#e" x="10.6" y="0"/></g></g><g><use xlink:href="#f"/><use xlink:href="#g"/><use xlink:href="#g" x="10.6" y="0"/></g><g transform="translate(0 46.3)"><g fill="#FF0"><use xlink:href="#a"/><g stroke-width=".5" fill="#FF0" stroke="#000"><use xlink:href="#b"/><use xlink:href="#c"/><use xlink:href="#d"/><use xlink:href="#d" x="10.6" y="0"/><use xlink:href="#e"/><use xlink:href="#e" x="10.6" y="0"/></g></g><g><use xlink:href="#f"/><use xlink:href="#g"/><use xlink:href="#g" x="10.6" y="0"/></g></g><g transform="rotate(-45.2 312.8 180)"><g fill="#FF0"><use xlink:href="#a"/><g stroke-width=".5" fill="#FF0" stroke="#000"><use xlink:href="#b"/><use xlink:href="#c"/><use xlink:href="#d"/><use xlink:href="#d" x="10.6" y="0"/><use xlink:href="#e"/><use xlink:href="#e" x="10.6" y="0"/></g></g><g><use xlink:href="#f"/><use xlink:href="#g"/><use xlink:href="#g" x="10.6" y="0"/></g></g><g transform="translate(45.7 0)"><g fill="#FF0"><use xlink:href="#a"/><g stroke-width=".5" fill="#FF0" stroke="#000"><use xlink:href="#b"/><use xlink:href="#c"/><use xlink:href="#d"/><use xlink:href="#d" x="10.6" y="0"/><use xlink:href="#e"/><use xlink:href="#e" x="10.6" y="0"/></g></g><g><use xlink:href="#f"/><use xlink:href="#g"/><use xlink:href="#g" x="10.6" y="0"/></g></g><g transform="matrix(-1 0 0 1 479.8 0)"><g fill="#FF0"><use xlink:href="#a"/><g stroke-width=".5" fill="#FF0" stroke="#000"><use xlink:href="#b"/><use xlink:href="#c"/><use xlink:href="#d"/><use xlink:href="#d" x="10.6" y="0"/><use xlink:href="#e"/><use xlink:href="#e" x="10.6" y="0"/></g></g><g><use xlink:href="#f"/><use xlink:href="#g"/><use xlink:href="#g" x="10.6" y="0"/></g><g transform="translate(0 46.3)"><g fill="#FF0"><use xlink:href="#a"/><g stroke-width=".5" fill="#FF0" stroke="#000"><use xlink:href="#b"/><use xlink:href="#c"/><use xlink:href="#d"/><use xlink:href="#d" x="10.6" y="0"/><use xlink:href="#e"/><use xlink:href="#e" x="10.6" y="0"/></g></g><g><use xlink:href="#f"/><use xlink:href="#g"/><use xlink:href="#g" x="10.6" y="0"/></g></g><g transform="rotate(-45.2 312.8 180)"><g fill="#FF0"><use xlink:href="#a"/><g stroke-width=".5" fill="#FF0" stroke="#000"><use xlink:href="#b"/><use xlink:href="#c"/><use xlink:href="#d"/><use xlink:href="#d" x="10.6" y="0"/><use xlink:href="#e"/><use xlink:href="#e" x="10.6" y="0"/></g></g><g><use xlink:href="#f"/><use xlink:href="#g"/><use xlink:href="#g" x="10.6" y="0"/></g></g></g><use fill="#039" xlink:href="#h"/><g fill="#FFF"><use xlink:href="#i"/><use xlink:href="#j"/><use xlink:href="#k"/><use xlink:href="#l"/><use xlink:href="#m"/></g><g transform="translate(0-26)"><use fill="#039" xlink:href="#h"/><g fill="#FFF"><use xlink:href="#i"/><use xlink:href="#j"/><use xlink:href="#k"/><use xlink:href="#l"/><use xlink:href="#m"/></g></g><g transform="translate(-20.8 0)"><use fill="#039" xlink:href="#h"/><g fill="#FFF"><use xlink:href="#i"/><use xlink:href="#j"/><use xlink:href="#k"/><use xlink:href="#l"/><use xlink:href="#m"/></g></g><g transform="translate(20.8 0)"><use fill="#039" xlink:href="#h"/><g fill="#FFF"><use xlink:href="#i"/><use xlink:href="#j"/><use xlink:href="#k"/><use xlink:href="#l"/><use xlink:href="#m"/></g></g><g transform="translate(0 25.8)"><use fill="#039" xlink:href="#h"/><g fill="#FFF"><use xlink:href="#i"/><use xlink:href="#j"/><use xlink:href="#k"/><use xlink:href="#l"/><use xlink:href="#m"/></g></g></g></svg>