<svg viewBox="0 0 640 480" xmlns="http://www.w3.org/2000/svg"><defs><clipPath id="a"><path d="M-85.3 0h682.6v512H-85.3Z"/></clipPath></defs><g clip-path="url(#a)" transform="matrix(.9375 0 0 .9375 80 0)"><g fill="#199D00" fill-rule="evenodd"><path d="M-128 0h768v512h-768Z"/><g fill="#FFF"><path d="M65.5 145.1c-.8 12-2 33 8.3 35.2 12.3 1.2 5.5-20.8 10-24.8 .8-2 2.3-2 2.4.5v18.7c0 6 4 7.8 7 9 3.2-.2 5.4 0 6.6 3l1.6 32.3s7.4 2.2 7.8-18.1c.3-12-2.4-21.9-.8-24.2 0-2.3 3-2.4 5-1.3 3.2 2.2 4.6 5 9.6 4 7.6-2.2 12.2-5.9 12.3-11.7v0c-.16-5.7-1.34-11.33-3.5-16.6 .4-1-1.4-3.7-1-4.7 1.3 2.2 3.4 2 3.8 0 -1.3-4.2-3.3-8.3-6.5-10 -2.7-2.4-6.7-2-8 3 -.8 5.7 2 12.4 6.1 18 .9 2.1 2.1 5.7 1.6 8.9 -2.2 1.3-4.4.7-6.3-1.2 0 0-6-4.5-6-5.6 1.6-10.2.3-11.4-.6-14.3 -.6-3.9-2.5-5.2-4-7.8 -1.5-1.6-3.5-1.6-4.5 0 -2.7 4.6-1.4 14.5.5 19 1.4 4.1 3.5 6.7 2.5 6.7 -.8 2.3-2.5 1.7-3.8-1v0c-1.47-5.69-2.17-11.54-2.1-17.4 -.5-4.6-1.1-14.4-4.2-17 -1.8-2.4-4.5-1.2-5.5 1h-.001c-.27 4.46-.17 8.94.3 13.4 2 7.4 2.7 14 3.7 21.5 .3 10.1-5.8 4.4-5.5-.7h0c1.31-6.42 1.2-13.04-.3-19.4 -1-2.6-2.1-3.2-4.6-2.8 -1.9 0-6.8 5.3-8.2 14.3 0 0-1.2 4.6-1.7 8.7 -.7 4.6-3.7 8-5.9-.6 -1.8-6.3-3-21.6-6-18Z"/><path d="M99 194.2l-32 15.4c.3-7.3 15.1-20.4 25.3-20.5 6.5.1 4.9 2.5 6.6 5.1Z"/><path d="M93.3 204.2c-16.8 43.5 39.5 49.6 45.8 1.8 .6-2 3-3.9 3.4-.7 -1.3 43.3-43.6 46.2-50.8 32.6v0c-1.7-4.68-2.55-9.63-2.5-14.6 -1-8.5-5.5-5.2-6.2 3.2 -.7 4.7-.5 6-.5 10.5 2.2 34.2 56.7 19.5 65.6-8.7 4.7-15.6-.8-27.1 1.7-27.1 5.4 5.8 13 .8 14.7-1.2 .7-1 2.5-1.7 3.7-.4 4.2 3 11.6 1.6 13.2-3.7 .9-5.3 1.6-10.7 1.8-16.2 -3.5 1-6 1.7-6.3 3.2l-.7 4.6c-.3 1.5-3.2 1.5-3.4-.4 -1.3-6-6.7-6.7-10 2.5 -2.1 1.8-6.1 2.2-6.5-.5 .5-6.2-2-7-7-4.1l-4.8-36.2c2 0 4 1.5 5.9-.9 -2-6.5-6.5-19.7-9-20.7 -1.1-1.4-2.1-.5-3.7-.1 -2.6.8-5 3-4.2 7.4 3 18.8 5 33.1 8.1 52 .5 2.1-1.3 5-3.7 4.7 -4-2.7-5-8.2-12-8 -5 0-10.6 5.5-11.3 10.7 -.9 4.2-1.2 8.7 0 12.3 3.5 4.2 7.7 3.8 11.4 2.9 3-1.3 5.5-4.3 6.6-3.6 .7.9.1 10.9-14.3 18.5 -8.7 4-15.7 4.8-19.4-2.3 -2.3-4.5.2-21.4-5.6-17.5Z"/><path d="M165 160c3.3-1.2 19.3-19.6 19.3-19.6l-2.4-2c-.9-.7-.8-1.5 0-2.2 4-2.4 2.7-7.4.7-9.8v0c-2.76-1.35-5.98-1.31-8.7.1 -2.8 2.7-3.4 7-1.2 9.6 2.1 1 4.2 3.2 2.8 4.4 -6.6 7-24.5 19.1-22.4 19.5 .4.6 11.5.6 11.8 0Zm-97 65c-6 9.6-6.5 23.9-3.2 28.2 1.8 2 4.7 2.9 6.8 2.2 3.8-1.6 5.5-9.3 4.6-12 -1.3-2-2.3-2.3-3.6-.7 -2.6 5.4-3.7 1.7-4-1.3v0c-.29-5.09-.02-10.18.8-15.2 .7-4.2 0-3-1.4-1.2Zm257.1-15.3c-5.8-12.6-13.9-25-16.4-29.7v-.001c-7.8-12.32-16.07-24.33-24.8-36 -6.2-7.4 10.2 3.1-2-11.7l-8.9-7.5c-2-1.4-6.8-4-7.6.2 -.4 3.8-.2 5.8.4 8.9 .5 2 3.5 5.5 5 7.5v0c20.5 27.15 38.5 56.1 53.8 86.5 2.6-1.3 2-16.1.5-18.2Z"/><path d="M299.6 251.5c-1.2 1.3 2.8 6.8 8 6.8 8.6-1 16.2-5.8 23.2-18.6v0c2.84-4.26 4.65-9.12 5.3-14.2h0c.84-24.28-1.1-48.57-5.8-72.4 -.3-2 0-4.4.2-5 .6-.7 2.5 0 3.5-1.7 1.5-1.5-4-14-7-18.7 -1-2.2-1.5-3.6-3.3.2v0c-2.18 4.19-3.21 8.88-3 13.6 4.1 28.5 5.4 53.4 8 81.9 .3 2.8-.1 6.8-2 8.4v-.001c-7.55 8.4-16.79 15.11-27.1 19.7Zm116.5-.1c-6.2 3.6-6.2 7.7-1.2 7.8 8.6-1 18.8-1.7 25.8-12.3v0c2.47-5 3.9-10.44 4.2-16v0c1.25-23.91-.32-47.87-4.7-71.4 -.2-2-1.1-6.7-.8-7.3 .6-1.4 3.4.1 4.4-1.5 1.4-1.5-7.3-12.7-10.4-17.5 -1-2.2-1.4-3.6-3.3.2l-.001-.001c-2.02 4.23-2.65 8.99-1.8 13.6 4.6 31 8 54.2 8.7 81.6 -.4 2.6-.5 4-1.7 7.3 -2.7 3.4-5.7 7.8-8.5 9.9 -2.8 2-8.8 4-10.7 5.6Z"/><path d="M420.7 223.7c0-7.3.1-13.5-.1-19v0c-.07-4.66-1.09-9.26-3-13.5 -1.8-4.1-.7-7.4-1.6-11.8 -.8-4.4-.6-11-1.8-16.1 -.4-2-1.4-8.5-1.1-9.2 .5-1.4 2.4 0 3.4-1.6 1.4-1.5-5-18-8.2-22.7 -1.1-2.1-3.3-1.4-5.8 2 -2.5 2.3-1.6 7.4-.6 12.3 6.1 32.3 10.8 61.6 9.8 92.3 -.4 2.6 9-7.8 9-12.7Zm-45.7-40c-3.9-.2-12-7.7-14.4-12v0c-.8-2.13-.65-4.49.4-6.5 1.5-1 3.7-2 5.4-1 0 0 1.7 2.4 1.4 2.7 2 1 3 .5 3.2-.4 .1-1.5-.6-2.4-.6-4 .9-4.6 6-5.3 8-2.4 1.4 1.8 2 5.5 2.1 8 0 1.3-2-.2-3.3 0 -1.1.4-1.4 1.8-1.5 3 -.2 3.3-.6 8.6-.7 12.5Zm-71.8 48c1-9.8-.4-27.3-.5-33.1h0c-.54-14.92-1.77-29.8-3.7-44.6 -1.2-8.4 3.4.9 2.8-4 -1.5-8.3-6.1-14-11.6-21.5 -1.7-2.5-1.7-3-4.4.6 -3 6.7-.4 11.4.4 16.7 3.9 17.2 6.2 33 7.3 48.7h0c1.15 16.3 1.28 32.67.4 49 3 .1 7.6-4.7 9.3-11.8Z"/><path d="M434 216c-6.9-11.6-17.2-24-20-28.7h0c-9.28-12.95-19.02-25.56-29.2-37.8 -8.5-9 4-1.5-1.6-8.5 -4.7-5.1-6-6.8-10.1-9.9 -2-1.3-3.2-3.8-4 .5v0c-.32 3.72-.39 7.46-.2 11.2 0 1.7 1.8 5 3.4 7 20.7 25.5 43.4 51.5 61.6 84.2 2.6-1.3 1.7-16 0-18Z"/></g><path fill="#1BA400" d="M122.6 194.7c-.5.9-1.6 2-1.2 3.1 .7 1 1.4 1.3 2.6 1.3 1.1 0 2.7.3 3-.3 .6-.7 1-2 .6-3.3 -1.2-3-4.4-1.8-5-.8Z"/><g fill="#FFF"><path d="M354.2 362.5c9.2.4 15.2.5 23.3 1.4l9.6-1c10.6-1 11 15.1 11 15.1 0 9.5-3.7 10-8.4 11 -2.7.4-4-1.6-5.5-3.6v0c-2.27.72-4.68.86-7 .4 -3.9-.2-7.7-.2-11.5-.5 -4-.3-6.2.5-10.3.1 -.8 1.3-2 3.1-4.4 2.6 -2-.3-4.5-6-3.8-10.5 1.5-3.2 1-2.1 1-3.5 -37.6-1-75.5-2.7-112.3-2.2 -28.8.1-57.2 1.3-85.7 2.5 -15.2-.2-26.8-2.6-34.8-14.3 .8 0 38.8 2.1 49.9 1.4 20.5-.2 39.3-1.9 60.2-2.5 41.2.7 82.1.7 123.3 3.6 -4-2.7-4-9 2-10.6 .5-.4.8 3.1 1.7 3 4.9-.3 2.7 6.3 1.7 7.6ZM188.6 135.3c-6.2 17.8 3.6 37.4 10.4 35.5 5 2 8-7.4 10-17.6 1.5-2.9 2.5-3.2 3.2-1.7 -.2 13.6 1 16.7 4.5 20.8 7.8 6 14.3.8 14.8.3l6-6.1c1.4-1.5 3.2-1.5 5.1-.3 1.9 1.7 1.6 4.6 5.6 6.6 3.4 1.4 10.5.4 12.2-2.5 2.2-3.9 2.8-5.2 3.8-6.6 1.6-2.1 4.3-1.2 4.3-.5 -.3 1.2-1.9 2.3-.8 4.5 2 1.4 2.4.5 3.5.2 4-2 7-10.6 7-10.6 .1-3.2-1.7-3-2.9-2.2l-3.1 2.1c-2 .3-5.7 1.6-7.6-1.3 -1.9-3.4-1.9-8.3-3.3-11.8 0-.2-2.6-5.5-.2-5.8 1.2.2 3.7.9 4.1-1.2 1.2-2.1-2.6-8-5.3-11 -2.3-2.5-5.5-2.8-8.6-.2 -2.2 2-1.9 4.2-2.3 6.3v0c-.77 3.05-.03 6.28 2 8.7 2.2 4.2 6.1 9.7 4.8 17.5 0 0-2.3 3.6-6.3 3.1 -1.7-.3-4.4-1-5.8-11.8 -1.1-8 .2-19.4-3.2-24.7 -1.3-3.3-2.2-6.4-5.2-.9 -.8 2.2-4.3 5.5-1.8 12.2v0c2.36 6.03 3.05 12.6 2 19 -1.5 2.2-1.8 2.9-3.7 5 -2.6 3-5.5 2.2-7.7 1.1 -2-1.3-3.6-2-4.6-6.5 .2-7 .6-18.5-.7-20.9 -1.9-3.8-5-2.4-6.3-1.2l0-.001c-5.95 6.6-9.94 14.74-11.5 23.5 -1.8 5.8-3.7 4.1-5 1.8 -3.2-3-3.5-26.7-7.4-22.8Z"/><path d="M207.4 174.1c2.9-2 1.6-3.4 5.8.8h0c5.42 9.59 8.56 20.3 9.2 31.3 -.2 2.6 1.6 4.2 2.5 3.6 .4-6 15.1-14.4 28.6-15.6 2-.5 1-4.4 1.3-6.4 -.8-7.5 4.2-14.3 11.2-14.8 9.6 1.4 12.8 6.5 13 14.2 -1.1 15-16.7 17.5-25.4 18.7 -1.3.5-1.9 1.1 0 1.8l36.6.2 1.9 1c.2 1-.6.2-2 2.6v0c-2.02 3.53-3.28 7.45-3.7 11.5 -10.9 3.6-22.2 5-33.6 6.5 -4 2-6 4.7-5.2 7.7 1.4 3.3 10.2 6.7 10.2 6.8 1.7 1 3.6 3.5-.5 8.6 -17.8-.8-31.7-8.4-36.5-19.1 -1.4-1.1-3 0-4 1.4 -7 9-13.8 17-25.7 21.4 -7 1.8-14.3-1.1-17.7-5.7 -2.3-2.7-2.2-5.6-3-6.2 -3.9 1.7-36.9 15.7-32.7 9.1 8-8.5 22-14.9 34.2-23.3 .9-2.9 2.5-12.5 7.3-15.6 .3 0-.7 5.6-.6 8 0 2-.2 2.7.2 2.2 .9-.5 15.7-12.2 17-15.8 1.4-2 .3-7.2.3-7.4 -2.8-7.2-6.7-7.8-8.1-11.4 -1.3-4.7-.7-10.1 2-11.7 2.4-2.1 5.2-1.9 7.9.5 3 2.7 5.6 8 6.4 11.9 -.5 1.5-4-1-5-.3v0c1.92 2.21 3.2 4.91 3.7 7.8 2 8.2 1.4 11.4-.6 16.7 -6.6 13.9-15 18-22.4 23.2 -.2 0-.3 3.5 2.4 5.4 1 1 4.9 1.5 9.4 0v0c9.61-5.34 17.38-13.47 22.3-23.3v0c.84-7.49.03-15.07-2.4-22.2 -2.9-6.7-6.3-16.2-6.3-16.4 -.1-4.2.2-5.6 2-7.7Zm-95.8-38.6c4.2 2 12.2 1.1 11.8-5.7l-.2-3.1c-.8-2-3.2-1.5-3.7.5 -.2.7.3 1.8-.3 2.1 -.4.4-1.7.2-1.7-1.7 0-.6-.4-1.2-.7-1.6 -.2-.2-.4-.2-.9-.2 -.6 0-.6.1-.9.6 -.1.5-.3 1-.3 1.6 0 .7-.4.9-.8 1 -.6 0-.5 0-1-.2 -.2-.3-.5-.4-.5-1l-.3-1.6c-.2-.3-.6-.5-1-.6 -2.3 0-2.5 2.7-2.3 3.7 -.2.2-.3 4.9 2.8 6.2Z"/><path d="M235.1 187.7c4.2 2 14.3.9 11.8-5.6l-.2-3.2c-.9-2-3.2-1.5-3.7.6 -.2.6.3 1.7-.4 2 -.3.4-1.7.2-1.6-1.6 0-.6-.4-1.3-.7-1.7 -.3-.1-.4-.2-1-.2 -.5 0-.5.2-.8.7 -.2.5-.3 1-.3 1.6 -.1.6-.4.8-.9 1 -.5 0-.4 0-.8-.3 -.3-.3-.6-.4-.6-.9l-.3-1.6c-.2-.3-.6-.5-1-.6 -2.3 0-2.5 2.6-2.4 3.6 -.1.2-.2 5 3 6.2Zm72-21.6c4.2 2 12.1 1.1 11.8-5.6l-.2-3.2c-.9-2-3.2-1.5-3.7.5 -.2.7.3 1.8-.4 2.2 -.3.3-1.7.1-1.6-1.8 0-.6-.4-1.2-.7-1.6 -.3-.2-.4-.2-1-.2 -.5 0-.5.2-.8.7l-.3 1.5c-.1.7-.4 1-.9 1s-.4 0-.8-.2c-.3-.3-.6-.4-.6-.9s-.1-1.3-.3-1.7c-.2-.3-.6-.4-1-.5 -2.3 0-2.5 2.6-2.4 3.6 -.1.2-.2 4.9 3 6.2Zm37.3 54.3c-7.3 8.3-4.1 22-2.4 25 2.4 4.8 4.3 7.9 9 10.3 4.3 3.1 7.7 1.2 9.5-1 4.3-4.5 4.4-16 6.4-18.2 1.4-4.2 5-3.5 6.7-1.6v-.001c1.59 2.25 3.72 4.08 6.2 5.3 4 3.5 8.8 4.2 13.6 1 3.2-1.9 5.3-4.2 7.2-8.9 2-5.6 1-31.6.5-47l-4.2-21.5c0-.2-.5-10.2-1-12.5 0-1-.3-1.3.7-1.2 1.1 1 1.2 1 2 1.3 1 .2 2-1.7 1.3-3.3l-10-18.6c-.8-.8-1.9-1.6-3.2.2v0c-1.56 1.4-2.43 3.4-2.4 5.5 .3 4.4 1 8.9 1.3 13.3l4 22.6c1.3 16 1.6 29.2 2.9 45.3 -.2 6.8-2.3 12.7-4.3 13.6 0 0-3 1.7-5-.2 -1.5-.6-7.4-9.9-7.4-9.9 -3-2.7-5-2-7.1 0 -6 5.8-8.6 16.4-12.7 23.8 -1 1.7-4 3-7.2-.1 -8.2-11.3-3.4-27.3-4.4-23.2ZM309 126.7c3.8 1.5 6.4 9.2 5.6 13 -.8 4.5-2.8 9.5-4.2 8.9 -1.6-.6 1-4.6-.5-8.8 -.8-2.8-6-7.8-5.4-9.2 -1-3.1 2.2-4.5 4.5-4Z"/><path d="M356.6 225c.7-9.2-.6-14.8-.8-20.2 -.2-5.4-6.1-46.6-7.3-50.6 -1.5-7.8 5.7-1 4.9-5.6 -2.5-5.6-8.6-13.9-10.5-18.8 -1.2-2-.7-4-3.3-.5v0c-2.24 6.13-3.03 12.7-2.3 19.2 6.2 32.3 12.5 59.1 11.5 89.8 3 0 6.3-6.7 7.8-13.3Zm64.4-85.3c3.5 1.7 5.5 11.3 5.1 14 -.7 5-2.5 10.4-3.8 9.7 -1.5-.6.3-7.4-.4-9.5 -.8-3-5.5-8.4-5-10 -1-3.4 2-4.8 4.1-4.2Zm-255.7 67.9c3.3 1.3 5.3 8.3 5 10.3 -.8 3.7-2.5 7.7-3.8 7.1 -1.3-.4.3-5.4-.3-7 -.3-3.7-4.9-5.7-4.8-7.3 -.8-3 2-3.5 4-3.1Z"/></g><path fill="#1B9D00" d="M244.9 218.2c4.2.2 6.3 3.6 2.4 5 -4 1.3-7.7 2.4-7.8 8 1.5 8-2 5.2-4 4.2 -2.4-1.8-9.2-6-10.2-15 -.1-2.1 1.6-4 4.3-4 4 1.1 10 1.2 15.3 1.8Z"/><path fill="#FFF" d="M77.4 124.4c4.8 1.4 5.1 8.6 4.8 10.7 -.7 3.8-2.4 7.9-3.6 7.4 -1.4-.5 0-5.7-.7-7.3 -.7-2.2-4.8-6.4-4.4-7.6 -.9-2.5 2-3.7 3.9-3.2Zm95.9 33.6c-3.8 2-5.2 8-2.9 11.6 2.2 3 5.6 1.9 6 1.9 3.7.4 5.9-6.9 5.9-6.9s.1-2-4.2 1.9c-1.9.3-2-.4-2.5-1.4v0c-.46-1.91-.29-3.91.5-5.7 .7-1.8-.7-2.6-2.8-1.4Zm28-36.4c-2 1.3-5.7 5.2-5.8 9.6 -.1 2.5-.6 2.5 1 4 1.3 1.8 2.4 1.7 4.8.4v0c1.2-.77 2.04-2 2.3-3.4 .6-2.8-3 1.4-3.4-1.8 -.8-3 1.5-4.2 3.7-7 0-2 0-3.3-2.7-1.8Zm22.4 4v0c-.89 3.64-1.42 7.35-1.6 11.1 -.6 2.8 3 4 4.5.4 2.4-6.5 2.4-9.3 2.6-12 -.7-4.3-3.6-4.2-5.5.5Zm142 72.3c.4-.5 20-14.4 20-14.4 2-.7 1.5 7.2.6 7.1v0c-6.08 5.85-13.07 10.68-20.7 14.3 -1 .7-1.9-5.3 0-7Zm17.7-.2c3.5 1.7 4.9 11.8 4.5 14.5 0 5.4-3.3 9.6-4.7 9 -1.4-.7.2-6.7-.5-8.8 -.8-3-3.7-8.5-3.2-10.1 -1-3.4 1.8-5.2 4-4.6Zm-116 43.4v0c1.62-1.9 3.5-3.55 5.6-4.9 2-1 3.8.8 3.7.7 .3 2-1.2 3.7-.7 6.3 .4 1 .7 2.2 2.6 1.8 3.1-2.5 6-2.7 9-2.8 2.5.1 2.6 4.2 1 4.2 -5.7 1.2-8.2 2.8-12.3 4.3 -2 1.2-3.6-.3-3.6-.4 0-.1-1.1-1.1-.4-3.7 .2-2-.6-3.2-2.4-3 -1.2.8-2.4 1.2-3-.3 -.3-1-.4-1.6.5-2.2Zm136.6 5.4c.8 1 1.4 2-.1 3.8l-3.7 3.2c-.6 1-1 2.8 1 3.3 3.6 1 12-4.5 12-4.6 1.4-1 1-3 .8-3 -.8-.9-2.6-.3-3.8-.5 -.6 0-2.5-.2-1.6-2h-.001c.67-.89 1.21-1.87 1.6-2.9 .5-1.2 0-2-2-2.7 -2.1-.4-3-.2-5.3 0 -1.2.2-1.6.8-1.9 2.3 .1 2.3 1.5 2.2 3 3Z"/><path fill="#259F00" d="M268.1 189.7c-.5 1-2.3 1-4 0 -1.7-1-2.7-2.6-2.1-3.5 .6-.9 2.3-.9 4 0 1.7.9 2.6 2.6 2.1 3.5Zm-89-53.6c-1 .3-2.4-.6-3-2 -.6-1.4-.3-2.6.7-2.9 1-.3 2.3.7 3 2 .7 1.3.3 2.7-.8 3Z"/><path fill="#209000" d="M355.2 375c9.4.4 18.2 0 27.5.5 1.7 1.5.5 5-.6 4.8l-7.8-.3c-.1-3-7.7-2.5-7.5.1 -4.1.5-7.8-.1-12-.3 -1.2-1.5-1-4.2.4-4.8Z"/></g></g></svg>