<svg viewBox="0 0 640 480" xmlns="http://www.w3.org/2000/svg"><defs><clipPath id="a"><path d="M0 0h682.7v512H0Z"/></clipPath></defs><g clip-path="url(#a)" transform="scale(.9375)"><g fill="#0000D6" fill-rule="evenodd"><path d="M0 507.2L987.4 0H0v507.2Z"/><path fill="#006000" d="M1024 0L27.2 512H1024V0Z"/><path fill="#FC0" d="M1024 0h-54.9L0 485.4V512h54.9L1024 27.6V0Z"/><path fill="#FFF" d="M71.4 9.1l11.8 34.5h38.5L90.6 64.7l11.9 34.4L71.4 78 40.3 99.2l11.9-34.4 -31.1-21.3h38.4Zm191.1 0l11.9 34.5h38.5l-31.2 21.2 12 34.4L262.4 78l-31 21.3 11.9-34.4 -31.2-21.3h38.5Zm0 144.5l11.9 34.5h38.5l-31.2 21.2 12 34.4 -31.2-21.3 -31 21.3 11.9-34.4 -31.2-21.3h38.5Zm-95-71.4l11.9 34.4h38.4l-31 21.3 11.8 34.4 -31-21.3 -31.2 21.3 12-34.4 -31.2-21.3h38.5Zm-96.1 71.4l11.8 34.5h38.5l-31.1 21.2 11.9 34.4 -31.1-21.3 -31.1 21.3 12-34.4L21 188h38.4Z"/></g></g></svg>