<svg viewBox="0 0 640 480" xmlns="http://www.w3.org/2000/svg" xmlns:xlink="http://www.w3.org/1999/xlink"><defs><path d="M0-200V0h100" id="a"/></defs><path fill="#12AD2B" d="M0 0h640v480H0Z"/><path fill="#FFCE00" d="M0 137.1h640V343H0Z"/><path fill="#D21034" d="M0 0v480l240-240"/><g transform="matrix(.34286 0 0 .34286 351.6 240)"><use transform="rotate(18 2.26838e-14-200)" xlink:href="#a"/><g transform="scale(-1 1)"><use transform="rotate(18 2.26838e-14-200)" xlink:href="#a"/></g><g transform="rotate(72)"><use transform="rotate(18 2.26838e-14-200)" xlink:href="#a"/><g transform="scale(-1 1)"><use transform="rotate(18 2.26838e-14-200)" xlink:href="#a"/></g></g><g transform="rotate(144)"><use transform="rotate(18 2.26838e-14-200)" xlink:href="#a"/><g transform="scale(-1 1)"><use transform="rotate(18 2.26838e-14-200)" xlink:href="#a"/></g></g><g transform="rotate(-144)"><use transform="rotate(18 2.26838e-14-200)" xlink:href="#a"/><g transform="scale(-1 1)"><use transform="rotate(18 2.26838e-14-200)" xlink:href="#a"/></g></g><g transform="rotate(-72)"><use transform="rotate(18 2.26838e-14-200)" xlink:href="#a"/><g transform="scale(-1 1)"><use transform="rotate(18 2.26838e-14-200)" xlink:href="#a"/></g></g></g><g transform="translate(176.8 0)"><g transform="matrix(.34286 0 0 .34286 351.6 240)"><use transform="rotate(18 2.26838e-14-200)" xlink:href="#a"/><g transform="scale(-1 1)"><use transform="rotate(18 2.26838e-14-200)" xlink:href="#a"/></g><g transform="rotate(72)"><use transform="rotate(18 2.26838e-14-200)" xlink:href="#a"/><g transform="scale(-1 1)"><use transform="rotate(18 2.26838e-14-200)" xlink:href="#a"/></g></g><g transform="rotate(144)"><use transform="rotate(18 2.26838e-14-200)" xlink:href="#a"/><g transform="scale(-1 1)"><use transform="rotate(18 2.26838e-14-200)" xlink:href="#a"/></g></g><g transform="rotate(-144)"><use transform="rotate(18 2.26838e-14-200)" xlink:href="#a"/><g transform="scale(-1 1)"><use transform="rotate(18 2.26838e-14-200)" xlink:href="#a"/></g></g><g transform="rotate(-72)"><use transform="rotate(18 2.26838e-14-200)" xlink:href="#a"/><g transform="scale(-1 1)"><use transform="rotate(18 2.26838e-14-200)" xlink:href="#a"/></g></g></g></g></svg>