<svg viewBox="0 0 640 480" xmlns="http://www.w3.org/2000/svg"><path fill="#006" d="M640 480V0H0v480h640Z"/><g stroke-width="4.3" fill="#8FC5FF" stroke="#FFF"><path d="M574.5 199.7c0 63.7-10.2 132.5-93 165.3 -82.6-32.8-92.7-101.6-93.1-165.3Z"/><path fill="#366CC9" stroke="#000" d="M481.4 364.7v0c31.47-11.03 57.71-33.38 73.6-62.7h-7.8c-2.3-.4-79.4-7.8-88.7-11.7 -7.9-2.8-38.4 2.7-52.4 7.8v0c15.46 31.17 42.53 55.05 75.4 66.5Z"/></g><path fill="#5D3100" stroke="#000" stroke-width=".4" d="M423.6 325.6h4.7c1.1 0 1.1 0 1.5-1.2 .4-1.2 1.6-.8 2.4-.4 .7.4 2.3 0 3-.8 .9-.8.9-.8 1.7 0 .7.8 1.1.4 2 0 .3 0 1.9-.8 2.3-2 .3-1.1 1.5-1.5 2-.7 .3.8 1 .8 1.9.8 .7 0 .7.3.7 1.5 0 .8 0 1.2 2-.4 1.6 1.6 2 .8 2-.8 0-1.5 0-7.8-.8-8.2 -.8-.4-1.2-3.1-1.6-5 0-4 0-4-3.9-6 0-1-.8-1.5-4-1.5 .5-.4 0-1.5-.7-2 -.8-.3-.8-.7 0-2.3 .8 0 2.4 0 2.7-1.2 .8-.7 3.2-.7 4.7 0 1.6.8 3.2.8 5.9 0l4.7-2.3c2-1.2 2.3-1.6 2.3-3.1 0-4-1.1-7.8-2-9.8 -1-2-1-4-2.7-7.4 -1.5-3.2-1.5-4-3-5.9 -.9-.8-1.3-1.2-1.3-2.3v0c-.12-1.55-.84-2.99-2-4 -3-2.7-3.8-11.7-5.4-18.3 -.8-4 0-13-1.5-14.5 -2.8-2-4-1.6-6-2.3 -1.5-2-1.9-5.5-3.4-9 -2 .4-3.2 2.3-4.3 3 -1.2.9-1.6.9-1.6 2.8 0 1.6-1.2 4-2.7 7 -1.6 3.2-5.1 2-7.9 6.3 -5.4-6.6-5.4-8.6-5.8-10.5 0-2-1.2-2.4-4.3-5.1v-6c-2.8-2-4.3-1.5-5.5 0 -1.2 1.2-2 3.1-3.9 4 -.8 1.5-4 4.6-6.3 9 2.4 35.1 10.2 70.3 34 98.5Z"/><path fill="#FF0" stroke="#FFF" stroke-width="4.3" d="M574.5 199.7c0-24.3-1.2-47.8-.8-68v-.001c-29.42-11.44-60.74-17.18-92.3-16.9 -20.7 0-61.4 3.1-92.2 16.8 .7 20.3-.8 43.8-.8 68Z"/><g fill="#CF6200"><path d="M393.5 227.4c1 1.6 2.9 4.3 3 6 .8-1.6 1.4-2.2 1.5-3.1 0-1 1.3-2.7.8-3.7 -.4-1-.7-1.7.4-1s.9 2 .7 3.8c-.7 5-2.7 6-3 9.3 2.9 7 .7 9.6 4 16.6 .5.2 1.8-.3 2.2-.2 1.8-1.2 3-.9 5.5-.3 2.4.5 3.7 2.2 3.7 3.8 0 1.6 0 1.9.6 2.8 .5.8 1.4 2.3 1.3 3.4 -.3 1 .1 1.6.5 2 .3.5-.2 1.8-.4 2.4 -.3.6-.2 1.7 1 3.2 1.2 1.5 4 7.9 4 11.6 0 3.9.3 5.6 1.8 6.3 1.5.7 2 1.3 1.8 2.9 -.2 1.5.7 10 .9 11.4 .1 1.3.7 1 1.4 1.7 .6.7 1 1.5 3 1.5 2.1 0 4-.2 5.2 0 2 2.5 3 6 3.5 8.1 .5 2.2.4 5 1 5 .8 0 1.5 0 1.3-2.5 -.2-2.6-.4-3-1.3-4.4 -1-1.3-1.5-2-1-2.7 .5-.8.6-2 .5-3.1 -.2-1-.6-2.6 1.2-.6l2.7 3.3c.5.6.7 2 .6 3.3 -.1 1.2 0 1.7.9 1 .7-.6 1.5.5 1 1.8 -.3 1.3.3 2.1 1.5 2.6 1.2.4 1.7.7 2 1.6 .3.8 1.3 1.3 1.3-.6h0c-.1-2.35-.51-4.67-1.2-6.9 -.5-1.2-.9-3.8-1-5.4 -.2-1.5-.4-1.9-1.1-2.1 -.7-.3-1.4-1-1.5-1.6 0-.7-.7-1-1.1-1 -.5 0-.9-.3-1.2-.8 -.2-.6-.5-.6-1-.6 -.5-.1-1.3.2-1.6-.6 -.2-.8-.6-2-1.1-2.6 -.5-.6-.9-.9-1-3.2 0-2.3 0-2.6-.8-3.4 -.8-.8-2-3-2.5-3.8 -.4-1-1-1.9-1 0 0 2 0 3 1.3 3.7 1.2.7 1.5.7 1 1.8 -.6 1 0 1.7.2 2.4 .3.7.6 1.4 0 2 -.6.8-1.2.6-1.1-.5v0c0-1.17-.31-2.31-.9-3.3 -.4-1-.9-1.6-1.5-1 -.6.4-1.1-.2-.7-.6 .5-.4.3-.7 0-1 -.2-.2-.4-.6.1-1.2s.5-.9.2-2.3 -2.5-8.6-3.5-10.2c-1-1.7-.9-2.8.3-1.3 1.3 1.6 2.5 3 2.7 4.4 0 1.4.3 2.2.7 2.6 .5.5.7.4 1-.8 0-1.1 1-.7-.4-2.8 -1.5-2.1-4.1-5.7-5.2-12.2 -1-6.4-1.4-10.5-2.4-12.2 -1-1.8-1.3-2.2-1.4-3.8 -.1-1.6 0-3.3-.7-4.5 -.7-1.2-1.2-1.4-1.3.4 -.1 1.8 0 6 .6 6.6 .6.7.2 2.6 0 3.5 -.2 1-1.7 2.1 1.7 4.1 1.3.9 1 2 1 2.6 -.3.8-.5.7-1.2-.4s-1.4-2.1-2.1-2.6c-.7-.5-.9-1-.7-2.5 .2-1.5.3-2.5 0-3 -.4-.4-.6-.1-.9.8 -.2.8-.3 3-.9 3.6 -.5.6-.5.2-.8-1.1 -.4-1.3.1-3.4.8-5.7 .7-2.2 1.2-4.8.6-7.8s-.4-4-2.6-6.5c-2.4-2.6-5.1-5-6.1-8.1 -1.2-3.2-1.4-6-2.7-7.4v0c-1.13-1.45-2.48-2.69-4-3.7v-4.7c0-1.2-.5-1.8-1.8-1.6 -1.3.2-2.2 1.3-3 2.8 -.8 1.6-1.4.9-2.6 3.5 -1.2 2.6-2.6 4-2.6 6.8Z"/><path d="M400.8 257.1c1 .6 1.7.9 3 .3 1.1-.6 2.5-2.4 4.3-.6v-.001c1.52 1.9 2.36 4.26 2.4 6.7 0 2.3 0 6.5 2.6 8.8 2.6 2.3 3.9 4.8 4 7.8v0c.2 3.03.67 6.04 1.4 9 .4 1.2 1 2.6 1.9 3.5 .7.8 1.4 3.1 1.5 5.5 .1 2.5-.3 4.1 0 5.4 .4 1.2 0 2.2-.8 1.7 -1-.5-1.2-1-1.8-2 -.6-1-1-.9-.5.7s2 3 3.3 3c1.3 0 1.7.1 2.6 1 .8.8.9 1.2 2.3 1.2s1.6 0 3 .4c1.3.3 1.3.2 2 0 .7-.3 1.4.4 1.9 1.7 .4 1.3 1.7 5 1.7 6s0 2 .7 3c.7 1.1.5 2-.3 1.5 -.7-.6-.8-.5-1.3-.3 -.6.2-1-.2-1.9-.8 -.8-.4-.3-.3-1.1-1.5 -.8-1.3-1.3-1.7-1.3-.7s-.2 2-.8 1.4c-.6-.5-.9-.5-1.4 0 -.5.6-.7 1-1.3 0 -.6-1-1.3-1-2-1.3 -.5-.1-.5-.1-.8-1 -.3-1-1.3-1.2-2-1.2 -.9 0-1.3-.4-1.4-1 0-.6-.6-1-1-1.3 -.5-.3-.2-1-.3-1.7 0-.7-.7-.5-1.1-.6 -.5-.2-.7-.1-.7-1.2 0-1-.5-1.3-.7-2 -.4-.8 0-1.5.2-2.2 .1-1 0-1.4-.6-2 -.6-.8 0-1.5-1.7-3 -1.7-1.3-2.5-.1-3-3.4v0c-.29-3.9-1.1-7.73-2.4-11.4 -1-1-1.5-2-2.5-2.3 -1-.3-1.4 0-1.5-2 -.1-2-.7-4.4-2-5.6l-2.3-2.2c-.6-.4-.9-1.4 0-3 .9-1.8.5-4.2.4-5.3 -.1-1-.4-2.6-.2-3.8 .2-1.2 0-2.7-.2-3.5 -.3-.7-.7-1-.2-1.7Zm24.5-28.8v0c-1.33 1.75-2.92 3.3-4.7 4.6 -1.9 1.4-4.3 2.4-3 4.7 1.4 2.3 2.5 2.6 2.7 4.3 .3 1.8.8 3.3 2 3.7 1.5.4 2 .2 2 3 0 2.7 0 4 1.2 5s1 2.2 1.6 4.7c.6 2.6.6 8.2 2.2 12 1.5 3.7 5.3 11 4.8 12.4 -.4 1.5-.8 2.6.7 4.4 1.7 1.7 2.7 4.3 3 5.8 0 1.5.3 2 2 1.5v0c1.1-.28 2.11-.87 2.9-1.7 .5-.7 1.6-.6 3.1.2 1.5.9 3.8 1.6 5.2.9 1.3-.9 2-2.1 3.2-2.1 1.9-1.4 2.6-4.2 3-5 .4-.8.1-.8-.7-1.6 -.8-.8-.4-2.2-.5-3.5 -.2-1.4-.7-3.5-2.3-6.5 -1.6-3-2.7-6.6-3.7-7.5 -1-1-1.6-3.3-1.7-4.4 -.1-1-1.4-2-2.2-2.8 -.9-.9-1.6-2-2.6-6.8 -1-4.7-1.6-8-1.6-9 0-.8-.2-.8-1-1.2 -.8-.3-1.2-1.6-.8-2.2 .1-.7-.4-1.4-.7-2.2 -.2-.8 0-2.3.6-3.2 .5-.8.4-3-.1-5 -.5-1.8-1.1-3.4-3.3-3.8 -2.1-.2-2.6-.8-3.3-2.6 -1-1.7-1.8-4.8-2-5.5 -.2-.7-.7-.8-2.3.6 -1.6 1.3-2.2 1.7-2.2 4.3 0 1.7.4 2.2.9 3.1 .5 1 .7 1.3 1 3.8 .4 2.5 2.7 6.6-.2 9 -3 2.2-2.6 2.8-2.5 4.4 .2 1.7-.8 2.7-1.3.5 -.6-2.4 0-3.7 1.6-4.8 1.6-1 3.1-2.5 2-4h-.001c-.96-2.08-1.54-4.32-1.7-6.6 -.1-1.6-.3-2.2-1.3-.9Z"/></g><path fill="#00B800" d="M401.2 262.8l.3 3.3c0 1.1.4 3.5-.5 5.2 -.8 1.7-.6 2.6 0 3.1h.1c1.7-.5 2-2.3 1.5-3.2h0c-.44-.98-.37-2.1.2-3 .5-1 .5-1.5 0-2.2 -.5-.7-.5-.7 0-2.6 .6-1.7-.7-1.7-1.6-.6Zm17.4 26.3c-.3-1.2-1.5-6-1.5-9 -.1-3-1.5-5.5-4-7.8 -2-1.8-2.4-4.7-2.6-7 -1.5-.9-2-.5-1.9 1.2 0 1.8 2 2.6 1.7 5.3 -.3 2.6-.3 2 1 3.3 1.1 1.2 1.7 2.6 1 3 -.7.5-.7 1.5.2 1.8 1 .4 1 1.4.9 2.4 -.1.9.9 1.1 1.3 1.7 .6.7.6 2.4 0 3.3 -.4 1-.5 2.5.4 1.7 1-.9 1.4 0 2.1 1.2 .6 1 1.2.7 2 .5v0c-.29-.51-.53-1.05-.7-1.6Zm13 23.6c-.4 1.2-1.1.9-1.7.3 -.6-.6-1.3-.6-1-1.8 .2-1.1 0-1.3-.7-1.9l-.3-.3h-.8c-1.5 0-1.6-.3-2.5-1.2v0c-.17-.15-.33-.28-.5-.4v.8c0 1.1 0 .8-1 1.2 -1 .3-1-1.1-1.2-2v0c-.02-.21-.05-.41-.1-.6v0c-1.47-.33-2.63-1.45-3-2.9 -.5-1.6 0-1.7.6-.7s.7 1.3 1.6 2c.8.5 1.2-.5.8-1.7v0c-.06-.44-.06-.87 0-1.3h-.001c-.15-.42-.44-.77-.8-1 -1.8-.7-1.2-.8-1.2-2.2 .2-1.3-.1-1.3-1.2-.6 -1 .7-1 0-1-2.2 0-2-1.4-2-1.7-.6 -.3 1.5-.9.5-1.4-1.5 -.5-2-1.5-2.6-1.5-.6 0 1.7-.6 2-1.6 1.2l.4 3.1c.5 3.3 1.3 2 3 3.5 1.6 1.4 1.1 2.2 1.7 2.9 .6.7.7 1.2.6 2 -.3.8-.6 1.5-.3 2.2 .3.8.8 1 .8 2.1 0 1 .2.9.7 1.2h.8l.7-1c1.3-1.2 3 0 3.7 1.7 .6 1.5 1.3 1.9 2.3.6 1-1.2.6-1 1.6.1 1 1.2 1.4 1 1.4 1s1-.4 1.8.2c.7.6 1 .5 2.4-1.4 1.3-2-.6-1.4-1.2-.2Zm3.8-55.8c.4-3 .1-5.9 1.3-7 1.3-1 2.7-3.3 2.7 1.4 -.2 4.6-.4 4.3-1.3 5.4 -1 1.1-1.8 1.4-1 3.1 1.1 1.7 1.2 2 1.1 4.6 -.1 2.7-.1 3.9.9 5.2 1.1 1.4 1.4 1.4 1.7 3v0c.31 1.71 1.15 3.28 2.4 4.5 1.2 1.2 2.6 4.2 2.7 6.4 .2 2.2 2 2.7 3.8 4.3 1.8 1.5-.4 2.5-1.7 1.8 -1.4-.6-.9 0-1.7 1 -.8 1-1 1.1-1.7-.6 -.7-1.6-3-2.7-4.1-3.1 -1.1-.4-2-2.2-3-4v0c-.82-1.44-2.27-2.41-3.9-2.6 .4 1.1.6 2 .5 2.4 -.4 1.5-.8 2.6.7 4.4 1.7 1.7 2.7 4.3 3 5.8 0 1.5.3 2 2 1.5v0c1.08-.33 2.08-.92 2.9-1.7 .5-.7 1.6-.7 3.1.2 1.5.8 3.8 1.6 5.2.8 1.3-.9 2-2 3.2-2 1.9-1.4 2.6-4.3 3-5 .4-1 .1-1-.7-1.7 -.8-.8-.4-2.2-.6-3.5 0-1.4-.6-3.4-2.2-6.4 -1.7-3-2.7-6.6-3.7-7.5 -1-1-1.7-3.3-1.7-4.4 -.2-1-1.4-2-2.2-2.9 -.9-.8-1.7-2-2.6-6.7 -.7-3.7-1.4-6.6-1.5-8 -1 1.5-1.7 2-2 .8 -.5-1.2-.9-1.8-1.5-1 -.5.8-.7-.8-.7-1.5s0-.7-.9-.7c-.8 0 0-1-.3-3.2 -.3-2-.7-2.2-.9.2 -.3 2.4-1.7 4-1.1 4.4 .5.6.2 1.7-.3 3.3v0c-.44 1.16-.44 2.43 0 3.6 .4 1-.2 3.2-.4 4.9 -.3 1.7 1.1 3.5 1.5.6Zm-24.8-24.2c-1 0-1.7 1-1.1 4 .4 2-1 1.6-1.6.6 -.5-1-1-3-2-4.7 -1.1-1.7-.6 1.1-.7 2.8 -.2 1.7.9 1.7 1.8 3 1 1.4.2 1.9-.8 1.9s-.7 2.2-.4 3.6c.3 1.5-.3 1.8-1 .6 -1-1.3-.3-3-.2-5.4 .2-2.3.3-1.8-1.2-2.3 -1.5-.6-1.3-.9-.6-2.2 .5-1.4 1-2 .3-2.7 -.6-.7-.5-1.1.6-1.2 1-.2.6-1 1.6-1.2 1-.3 1.4 0 1.5-1.7 .1-1.5.6-2.3 1.7-1.9 .7 2.3 1.5 5.8 2.1 6.8Zm13.7 16c0 2.8 0 4 1.2 5s1 2.2 1.6 4.7c.6 2.6.6 8.2 2.2 12l1.8 4v0c.84-.72 1.52-1.6 2-2.6 .3-.8-.9-2.8-1.8-4.3 -1-1.8.1-2.3 1-4.4 1-1.9 0-2-1.6-2.6 -1.4-.5-1.4-2-2.2-4.1 -.8-2.2-.7-3.1-.2-4.4 .5-1.2.2-2.1-.9-2.4 -1.1-.3-.8-1-.4-2.4 .4-1.3.7-1.6-1-1.3 -1.2.4-1.5.7-1.9 1Z"/><path fill="#5D3100" d="M439.9 254.3c-.2 1.6-.2 2.5-.6 3 -.4.5-.1 1.3.3 2.2 .5.8.6 1.8.3 3.4 -.4 1.5.2 2.6 1 3 .8.4 1.2 0 1 2v0c-.18 1.74.45 3.47 1.7 4.7 1 .8 1.7 2.1 1.5 3 0 .8.7 1.5 1.7 2 1 .4.8.5.8 1s.4.6 1.4.9c1 .3 2 .9 3.2 2.4 1.2 1.6 3 2.3 2.7.7 -.3-1.5 0-2.8-1.6-3.5 -1.7-.8-2.9-4.7-3.5-7.4v0c-.74-2.66-2.12-5.1-4-7.1 -.3-2 0-2.9-1.2-3.8h-.001c-1.05-.74-1.68-1.93-1.7-3.2 0-.8-.6-2-1.2-2.4 -.5-.3-.8-.9-.8-1.8 0-.8-.8-.7-1 1Z"/><path fill="#00D860" d="M432.7 327v0c3.34-.52 6.6-1.46 9.7-2.8 1.7 1.1 4.5 2.6 5.7 2.6 -2.3.5-3.9.3-4.4-.2 .3.7 1 1.9 1.6 2 -2.3 0-4.8-.6-5.6-1.4 -2 .8-5.2 1-7-.2Zm4.3 3c.9.3 5.2 1 5.8 1 -1.4 1.2-.2 2.4 2.1 2.2 -1 .2-2.4.6-1.5.8h0c3.05-.04 6.07-.65 8.9-1.8 -2 2.5-11.4 4.8-15.3-2.2Zm4 6.1l0-.001c1.75-.44 3.6-.34 5.3.3 -1.4.6-4.5.6-5.4-.2Z"/><path d="M445.3 336.1c2-.3 8 1 10-.2 -.7 1.9-4.3 2.2-5.7 1.7 -1.3-.3-2.5-.8-3.4-.8 .6-.3-.2-.3-1-.7Z"/><g fill="#00D860"><path d="M447.4 339v0c3.03.08 6.07-.29 9-1.1 1.7.6 5.4 1.6 6.2 1.5 -1.7 1-5 .4-6 0h0c-2.98 1.23-6.35 1.08-9.2-.4Z"/><path d="M450 339.9c2.3.5 4.3.2 6.5-.5 .7.2 2.3.6 3.9.6 1 .5 2.3 1.3 3.7 1.5v0c-2.53.34-5.09.1-7.5-.7h0c-2.75-.08-5.48.43-8 1.5v0c.09-.97.65-1.83 1.5-2.3Z"/></g><path d="M447.4 328.6c1.7.5 8.2.2 11.3-1.3 1.4-.7 2.2.4.7.8 -5.2 2-9.5 2.6-12.5 1 -1.2-.6-1.4-1.2.5-.6Z"/><path fill="#00D860" d="M478.6 319.8c-7.9 3.7-13 4.8-23.9 1.4 -1-.2-1.7 0-.6.7v0c2.72 1.17 5.57 2.05 8.5 2.6 1.4.1.9.7 0 1 -.8.2-1 .8.1.4 1.1-.5 7.8-.7 10.5.7 1.1.7 1.4.5 1.3 0 -.1-.4.5-.7 1.4-.8 .8-.1 1.4-.4.7-.6 -.7-.3-.8-.5-.3-.7 .5-.3.6-.6-.2-.7 -.7-.2-1.3-.4-.6-.7h-.001c.82-.37 1.7-.6 2.6-.7 .2-.5-.1-2 .5-2.6Z"/><path d="M465.6 320.7h-.001c6.2.09 12.23-2.04 17-6 1.6 1 3.7 2 4.9 2.2 1.1.2 2 1.2.3 1.2s-4-.7-5.2-1.2v0c-5.1 3.12-11.03 4.62-17 4.3 -1.1 0-1.4-.5 0-.4Z"/><g fill="#00D860"><path d="M452.3 296.3c1.6 1.1 4.3 2.9 7.8 2.6v0c1.69 1.35 3.62 2.37 5.7 3 -2.4.8-5 1.7-5.6 2.4 -1-1-2.5-.8-2.8-1.4 -1 1-.9 1.3-.2 1.8h-.001c2.26.67 4.63.97 7 .9 1.2-.4 1.7.7.6 1 -2.7 1-8 0-9.8-2.9 -2-2.9-3.5-4-8.5-1.3 -.5-1.5-.5-1.7-1.5-1.7s-2.8-1.3-1.4-1.3 5.4-.6 8.7-3Z"/><path d="M453.6 303c-1 .1-3.3 1.4-4.1 1.5 -.9.2-2.4 1.4-.9 1.4 1.7 0 3.7-1.7 4.8-1.7 1.1 0 1.2-1.5.2-1.3Zm5 5c-.7.2-3.3.8-4 .8 -.7 0-1.5 0-1.4.6 .1.5.3.9-.9.7 -1-.2-1.9.3-2.1.6 -.3.3-.5.6.6.7 1 0 1.6.3 2.9-.4 1.2-.6 2.3-1.3 3.6-1.4 1.3 0 2.6-1.8 1.2-1.5Z"/></g><path d="M454.9 311.1c1.1.9 6.6 2.6 8.5 2.6 2-.1 1.7.7.2 1h-.001c-3.44.5-6.94-.48-9.6-2.7 -1.2-1 0-1.4.8-.9Z"/><g fill="#00D860"><path d="M480.8 314h0c-3.33.93-6.83 1.04-10.2.3 -1.7-.6-3.3-.6-2 .6 1 1.1 4.8 1.8 7 1.3 -7.6 1.7-9.6 1.6-11.4 1.3v0c-2.33-.29-4.67-.35-7-.2v0c-1.12.18-2.26.04-3.3-.4 -.7-.5-.9-1.1 1.1-.9 2 .1 2.3-.2.6-.5 -1.8-.3-4.1.4-1.8 2 2.4 1.4 7.4-.2 10.7.8v0c5.85 1.52 12.08.1 16.7-3.8 .3-.2.9-1-.4-.6Zm-20.6-6.3c.2.6.2 1 0 1.4 -.2.4-.1.9.5.4s1-1.2 1.8-.8c.7.3 2.3.3 3 .2 .8 0 1-.3 0-.7v0c-.92-.4-1.91-.6-2.9-.6 -.6.1-1.4 0-1.9-.3s-.6 0-.5.4Z"/><path d="M471 309.7c-.8 0-2.4-.6-3.1-1 -.8-.3-2-.3-1.2 1 .9 1.2 4.6 1.7 6 1.2 1.3-.6.8-1.2 2-.4 1.4.8 2.7 1.3 3.7 1.3s1.3 0 .3-.6 -1.6-.7-1.8-1.2c-.2-.5-.2-.9.9-.5 1 .3 2 .8 2.8.4 .8-.4 2.2-1.3 3.5-1.3l.2-.8c-1.8 0-3 .5-3.5.6 -.4.2-1.4.4-2.4.2s-2.2-.3-2.5-.5c-.4-.3-.3-.5.5-.6 .8-.2 1-.7 0-.6 -1 .2-4.2.2-5.8-.3 -1.5-.5-2.2-.6-2.8-.3 -.7.2-.6 1 .3 1 1 0 3.2.3 4 1 .6.7.6.7-.2.4 -.9-.4-2.5-.2-.9 1Z"/><path d="M484.3 307.8l-.3.8c1.9 0 6.4.4 8 1.3 1.4-1.1 1.1-1.5 2-1.2 1 .3 2.4.5 3 .3v0c.45-.27.99-.34 1.5-.2 .6 0 2-.2 2.7-.6 .8-.5 2.4-1 3.3-1 .8 0 2-.3.3-.6 -1.6-.3-4.2.3-5 .6 -1 .3-3.5.5-5 .5s-3.6.7-5.3.3c-1.8-.4-4.2-.2-5.3-.2Z"/></g><path d="M507.9 307c-3 2.2-6.8 2.7-11.1 3 -1.3 0-.9.4.2.5 4.6.5 9.8-1.2 11.6-3 .5-.6.4-1.4-.7-.6Z"/><g fill="#00D860"><path d="M487.1 312.2v0c2.47.37 4.91.93 7.3 1.7 1.2-.2 1.5-.4 1.3-.9 -.3-.4-.4-.8 1.7-.6h7.5c.8-.3 2.3-1.5 3-1.5 -1.8 0-9.5.4-10.4.3 -1 0-1.5 0-2.1.4 -.6.3-.9.5-1.7.1 -1-.3-2.1-.7-3-.1 -.6.4-2.3 0-3.6.6Z"/><path d="M504.9 312.4c.7-.3 2.3-1.5 3-1.6 1.4-.1 2.8.4 3.5.6 .7.2 1.5 0 1-.6 -.4-.5 0-1.6 2-1.3 2.2.2 3.2.6 5.3.4 2.1-.2 2.9 1.3 6.7-.2 -.2 1.5.5 1.6 1.2 1.3 .7-.2 1.5-.2 2.7.7 1.3 1 8.7 1 10.4.7 1.8-.3 2.6.6 1.3 1s-1.6 1-1.3 1.5c.3.4.6.9-1 .7 -1.7-.2-2 .3-2.7.8 -.8.6-1 1-3.3.5 -2.2-.4-2.7-.1-3.9 0 -1.2.2-1.5.3-2.8-.1v0c-1.77-.64-3.68-.74-5.5-.3 -1.6.6-2.7 1-4.2.6 -1.5-.3-1.5-.2-.6-1 .8-1 1-1 2.8-1.1 1.8-.2 3-.7 1.9-1.4 -1.3-.7-1.6-.6-3.3.1 -1.6.8-2.4 1.4-4.3.4 -1.8-1-2.6-.9-4-.5 -1.2.3-3.2-.5-4.9-1.2Zm6.1 3c-2.4.4-3-1.1-5.4-.9 -.8.2-2.2 1.2-.3 1 1.9-.1 4 .9 5.8.8 1.8-.1 1-1 0-.9Zm-2.6 1.7c1.1-.4 3.6.5 4.8.3 1.1-.2 2 .4.8.9 -1.2.4-3.7-.7-5-.4 -1.1.4-2.4-.1-.7-.8Zm-24.4 6.7c1.7 0 7.8-.3 10.2-5.3 .2-.4.3-.6 1 0 .7.5 3.6 2.1 8.8 2.6 1.5 0 3 .8.1.7 -3-.2-7.6-1-9.1-2 -2.7 4.1-7.4 4.6-11 4.5 -2.1 0-1.6-.6 0-.5Z"/><path d="M497.1 316.8c-.8 1.1-3.6 3-4.8 3.2 -1.3 0-5.2-.2-6.1-.6 -1-.3-2.1-.3-.8.7h-.001c1.83.99 3.91 1.44 6 1.3 1.6-.3 3.1-.8 4.2 0 1 .6 3 1.8 4.2 1.6 1.2-.3 3.5-.3 4.3 0 .8.4 2.1 1.6.1 1 -2-.7-3.6-.2-4.5-.6 1 1.4 3.3 3.7 5.2 3.7 .5 0 .9.9 0 1.3 .8.4 3 .9 4.3-.3 -.4.5-.2.7.3.9 .5.2 1.1.6.2.8 -1 .2-3 .3-3.6 0 2 1.3 7 3.4 12.3 2.3 1-.1 1.6-.6 0-.5 -3.5 0-3.7 0-4.3-.3 -.6-.4-.4-.7.6-1v0c1.4-.37 2.84-.6 4.3-.7 1 0 2.1-.3 0-.3 -2 0-4.6 0-5.7-.4 -1-.3-1.7-.9-.6-1.6 1-.7 2.1-.5 2.6-1 -3.3 0-7.4-2-5.2-3.6 .5-.3.4-.4-.4-.5h-.001c-1.55-.31-3.06-.78-4.5-1.4 -1-.5-.4-1.1.5-1.3 -2 .3-6-.7-8.6-2.6Zm29.8 0c-1.8 1.3-5.3 2-6.8 2 -1.4 0-1.7.4-.5.5 1.2.1 2.5.4 3 .2s.9-.2 1.6.2v0c1.23.41 2.56.41 3.8 0 1.5-.4 3.7-.6 4.7-.6 1 .1 2 .1 0-.4 -1.8-.5-5-.2-5.8 0 -.7.2-2.8 0-1.7-.2 1.1-.3 2-1 2.6-1.4l-.9-.3Zm-1 4v0c-1.78 1.32-3.9 2.12-6.1 2.3 2 .8 3.8 3 5.2 2.8 -.7.5-1.5 1-2.3 1.2v-.001c1.86.31 3.77-.04 5.4-1 3 .8 7 .2 8.3-1 -2 0-4.3-.6-5.4-1.6 1 0 1.9-.5 2.3-1.1 -2.3.4-6-.7-7.3-1.8Z"/><path d="M522.7 327c.8 0 1.7-.6 2.3-1v0c-3.88.27-7.75-.63-11.1-2.6 -2.2-1.9-2.2-.4-.7.9v-.001c2.56 2.41 6.13 3.45 9.6 2.8Zm5.4 4.7c-.9.5-5.3.9-6.7.5 -1.5-.3-2-.2-1.8.5 .3.6.6 1-.6.8v0c-1.36-.07-2.71.1-4 .5 -1 .2-2 1-.2.7 1.9-.2 3.5-.6 5-.3 1.3.3 6.1.4 7 0 1-.4.4-.3 0-.3 -.5 0-.7-.3 0-.7 .7-.3 1.1-1 1.3-1.7Zm-42.3-5.8v0c-3.13 1.08-6.34 1.92-9.6 2.5 -2 .9-3.6 1.4-4.6 1.4 .7.6 3.5 1.2 4.5.9 -.6.7-2 1.3-2.5 1.7 1.7-.3 3.5.2 4.4.3v0c-2.06 1.09-4.38 1.58-6.7 1.4 .6.6 1.3 1.3 2.2 1.3h-.001c-1.79.51-3.68.58-5.5.2 .6 1 1 1.6 1.8 1.8 -1.7.1-3.7.4-5.4-.6 1.3 1.8 4.2 2.3 8.6 1.8 4.4-.5 8-2.4 9-3.2 -1.8.2-4.3.3-5.4 0v0c3.03-.81 5.92-2.06 8.6-3.7v0c-1.01-.01-1.99-.33-2.8-.9v0c2.69.13 5.38-.14 8-.8v0c-1.42-.31-2.67-1.13-3.5-2.3v0c5.53 1.59 11.38 1.76 17 .5 .8-.2.8-1.3-.7-1.1 -2.8.2-8.3-.6-9.8-1.3v0c1.19.85 2.55 1.43 4 1.7 -2.5.8-6.2 1.3-11.6-1.7Z"/><path d="M473.6 332.4c.5-.4 2-1 2.5-1.7 -1.1.3-3.8-.3-4.5-1 1 0 2.6-.4 4.6-1.3 -3.6-.1-6-.1-7.5-.9 -1.4-.8-3.7-.4-4.7-.2 -1 .1-.6 1.7 3.3 1.3v0c-2.39 1.06-5.03 1.41-7.6 1 .4 1.4.7 2.7.3 3.5 2.1 1.2 7.7 2.7 10.5 2.5 -2.5-.9-3.8-1.9-1.8-2.2 2-.2 3.2-.6 5-1Z"/></g><path d="M467.3 339c4.8-.4 11.4-.5 16.6-5 1.3-1 2.2-.6.9.5l0-.001c-4.61 3.57-10.19 5.66-16 6 -2.7 0-3.9-1.3-1.5-1.6Z"/><g fill="#00D860"><path d="M503.7 331l0-.001c-1.82.54-3.71.81-5.6.8l0-.001c-1.1-.25-2.25-.18-3.3.2 -.8.5-.9 1 .2 1l3.3.2 0 0c-.71.36-1.32.87-1.8 1.5 1.8-.4 4.7.3 5.6.8v0c-.7.14-1.42 0-2-.4 2.7 3 10.9 3 12.2 2.4 -.6.5-1.2 1-1.7 1 2.2.5 4.8.4 7.5-1l-4.2-.2v0c.56-.56 1.24-.97 2-1.2 -1-.2-4.2-.1-5 .3l-.001-.001c.29-.72.82-1.32 1.5-1.7 -4 0-8.9 0-10.6-1 2.7.4 5.9-1.3 7.2-1.3 -2.2 0-4.6-.5-5.2-1.5Zm-10.1 2c-2 .5-5 1.4-5.9 1.8 -.8.5-1.6.7.1.7v0c.19-.04.39-.07.6-.1 -.7 0-1.5 0-.1-.5 1.3-.4 3-1.3 5.2-1.7Zm-4 4.9c.7 0 3.7 0 5-1 1.2.8 3.7 2.2 5.2 2.2 1.6 0 1.4.4 0 .6v0c-1.93-.07-3.79-.65-5.4-1.7 -1.8.7-3.3.1-5-.1ZM466 351.6v0c3.23 1.42 6.83 1.81 10.3 1.1 1.8 1.5 5.3 1.6 7.2 1.2 2-.4 3.7-.6 5.9 0 2 .8 6.4.9 7.7 1.9l-4.1.1c-.6.2-.3.5.8 1h-.001c-3.97-.04-7.88.99-11.3 3v0c1.04-2.37 3.41-3.87 6-3.8 -1.8-.6-7.7-.7-9.7.5v0c-.54-.58-.94-1.26-1.2-2 -3.1 1.7-9.2-.9-11.7-3Zm-8-5.8v0c2.64-.23 5.18-1.2 7.3-2.8 .7.6 3.5 1.2 6.5.3 -.6.4-.7 1.3-.5 1.7h-.001c-2.42.22-4.78.83-7 1.8 -1.2.6-5 1.1-6.2.4 -1.2-.6-1.2-1.2-.2-1.4Z"/><path d="M471.3 345.1h-.001c-2.42.22-4.78.83-7 1.8l.5 1.7v0c4.96-1.42 10.14-1.97 15.3-1.6 -1.6.1-4.5 1.8-6.1 1.9 4-.3 7.8.5 8.8.8 1 .2 1.3 1 .5 1.8 -.8.9-1.1.7.5.9 1.6 0 5-.3 6.5-1.8 -.7-.6-2.2-.3-2.7-.9h-.001c1-.33 1.93-.87 2.7-1.6h0c-1.54.04-3.08-.07-4.6-.3 -.8-.2-1.5-.5-.4-1.1h-.001c.75-.37 1.43-.88 2-1.5 -2 .5-5.1 1-7.8-1 1 .2 3.3 0 4.1-.3v-.001c-.67-.44-1.42-.71-2.2-.8 2-1 6-1.9 11.3.1h0c2.37-.19 4.76-.05 7.1.4 1-.8 2.6-2.8 3.5-3.2 -6 .4-16.8-.6-16.5-3.8 -2 2.6-6.5 4-8.4 3.6 -.2.8.6 2 1.3 2.6 -2 .4-5.5.8-7.1.4 1 .9 2.6 1.7 3.6 1.7 -2 0-3.2.4-4.9.2Z"/><path d="M483.7 352.3c1.8 0 5-.2 6.6-1.7 -.7-.6-2.2-.3-2.7-.9v0c1-.33 1.93-.87 2.7-1.6 4.4-.4 8.1-.2 10-.7 1.8-.5 6.5-.3 7.4-.5 -4.1.7-4.9 1-5 1.7 -.2.7 1.2 1.1 2.2 1.1 -1.7 0-4.1 1.9-4.4 2.7 -2.4-1.4-3.4.2-3.8.8 -1-.4-4.4-.3-6.1 1.2 -2.2-.7-3.7-1-6-.7 1.5-.3 1.2-1.3-.8-1.4Zm19.5-12c1.4 0 4.4.2 5.5 0v0c-.68.32-1.28.76-1.8 1.3 3.5-.4 8.2-.7 9.6-.4 -1.8-.3-3.5.9-4.4 1.4 -.8.5-.3.9.9 1 1.2.2 2.7 1 .6.8 -2-.2-6.4-.3-7.4-.2 -1 .2-1.6-.3 0-.6v0c1.08-.17 2.12-.5 3.1-1 -1.2.3-3.5.3-4.3 0 -.8-.3-1.1-.5-.3-.8 .9-.3.3-.4-.6-.3 -.9 0-3 1-4.3 2.1 1.3-1.4 2.6-2.6 3.4-3.2Z"/></g><path d="M487.8 342.7v0c1.7 1.96 4.19 3.06 6.8 3 .6 0 2 .9.3 1 -4.3.2-6.4-.9-8.3-3.6 -.4-.6.3-1.4 1.2-.4Zm25.5-35.6c2.2 1 6.7 2 10.2 1.9 .7 0 1.8.6.3.7v0c-3.72.45-7.49-.25-10.8-2 -.9-.5-.6-1 .3-.6Z"/><g fill="#00D860"><path d="M515.5 307.1c3.5 0 6.1 0 7 .9 2-.5 5.7-.9 6.4-.7 .8.2 1.8-.3-.1-.7 -2-.4-6.2-.6-7.6-.3 -1.4.2-5.7.4-7 .2 .5 0 .9.2 1.3.6Zm13.4 1.3c1.6-.8 6.3 0 7.7-.6 -1 1.2 3.3 1.3 7 .4 -1.4.8-4.5 1-5.8 1.6 -1.3.6-2 .1-3-.3v0c-1.84-.88-3.88-1.22-5.9-1Z"/><path d="M543.6 308.2c-3.7.8-8 .8-7-.4 -1.4.6-6-.2-7.7.6 1.8-1 3-.1 4.2-2.2 .8.1 2.6.2 3.2-.6 1 .3 3 .7 3.5 1.3 .5.6 1.3-.2.7-1 1.7-.6.6.7 4.5-.3 .9-.2 2.8-.6 3.5-.6v0c-1.53 1.26-3.21 2.34-5 3.2Z"/></g><g stroke-width=".4" fill="#FF0" stroke="#000"><path d="M471.6 291.1l-.7-86.8c0-3.9-2-3-2 0v86Zm28.2-91.4l3.1 91.4 -.4.8h-2l-1.9-92.2Zm26.6 77.4l-1.6-74.3c0-2.4-2-2-2 .4l1.6 73.9Z"/><path fill="#FFF" d="M484.2 214.9l-27.4-.4c-1.2 5.5 5.5 5 7.8 4 3.1 1.9 5.5 1.9 7 0 2.4 1.9 5.5 1.5 6.7 0 3.1 2.7 6.6 0 5.9-4Zm2 13.3h-27.5c-5 4.7 1.2 7 6.7 3.9 .8 1.6 3.9 2.3 6.2 1.2 2.4 1.5 5.5.4 7-1.2 2.8 1.2 6.3 1.6 7.9-4Zm-.9 17.6h-26.6c-.3 4.3 5.1 3.9 7 2.7 2 3.2 6.7 2.4 8.3.4 2.7 2 5 1.6 6.2 0 2.8 2.4 5.5-.8 5.1-3.1ZM487 263l-30.1-.4c-1.6 5 3.1 5.9 5 4.7 .9 2.7 4.8 2 6 0 1.5 1.2 3.5.4 4.2-.8 .4 2.7 4 3.1 6.7.8 5.5 3.9 10.5-.8 7.8-4.3Zm26.2-7h-24.6c1.1 4.6 3.5 5.8 7.4 3 3.1 3.2 7.8 2 9 .5 5.5 4.3 8.2-.8 8.2-4Zm-2.4-17.2l-24.2-.8c.4 6.2 6.3 5.8 9.4 3.5 2 2.7 5.9 2 7.8 0 2.7 3.1 7.8 1.2 7-2.7Zm3.2-19.2h-26c0 4.3 5.8 6.6 10.1 2.7 1.2 5.1 5.9 3.5 7.9 1.6 3 3.9 9.7-.8 7.8-4Zm-1.6-13l-23.5.5c0 3.9 5.5 5.5 7.5 2.3 1.2 2 5 1.6 6.2 0 1.6 2.8 4 .8 4.7 0 2.8 2 5.5.8 5.1-2.7Zm27 8.7l-28.2-.4c0 2.7 2.8 4 4.7 2.7 0 3.2 4 4 6.7 1.6 1.5 2.7 6.6 3.1 8.6 0 3.9 3.5 8.6.8 7.8-4Zm-.4 23h-27.4c0 4 4.3 5.1 7 3.2 .5 3.1 4 3.5 6 1.6 2.7 2.7 6.6 3 9 0 3 1.1 5.8-1.6 5.4-4.7Zm-1.6 20.8h-21.9c0 3.9 4.7 3.9 6.7 2 2.3 2.7 5.5 2.7 7.4.7 2.7 2.4 7.4 1.6 7.8-2.7Z"/><g fill="#000"><path d="M502.5 292c-11.7 0-23.8 0-32-.9 -8.2-.7-10.6-2.3-16.4-5.8L432 272c-1.9-.8-3.8.4-1.1 2l21.9 14.4v0c4.98 3.22 9.46 7.16 13.3 11.7 4.7 5.1 7.8 5.1 10.1 4.3 2.4-.7 5.5-2 9-1.1 3.2.7 7.8 1.1 10.2.7 2 2 7 1.6 9.8.8 2.7-.8 4.7-.8 6.6-.4h6.7c2 0 7-1.1 10.5-.7 4 .7 7.4 0 9.8 0v-.001c2.54-.67 5.19-.8 7.8-.4 2.4-1.6 3.1-3.6 4-5.5 2.3-.4 3-.8 3.4-2l2.4-6.2h.8v-2.4l-1.6-2.3 .8-4 2-.7 -.8-4 -34.4.9v0c-1.25 1.13-2.09 2.64-2.4 4.3l-10.2 1.5c-1.1.4-2.3.4-3.5 2Z"/><path d="M543.6 276.7l5-19.2c.8-2-1.1-2.3-1.9 0l-5 19.2Z"/></g><path fill="#FFF" d="M563.5 255.2c-4.3 2-6.6 3.1-8.6 2.3 -2-.8-4.3-1.2-5.8-.4v0c.01.13.01.26 0 .4l0-.001c-1.42 4.97-2.85 9.93-4.3 14.9 3 1.2 8.6 1.2 9.7 0 1.6-1.6 5.1-1.2 7-1.2 1.2-1.6 1.6-3.5 1.2-4.3 -.4-.8 0-2.7 0-4 0-1 1.6-5.4.8-7.7Z"/><path fill="none" d="M465 218.4v-.001c-7.59 19.75-18.15 38.23-31.3 54.8m7.8 4.7v0c17.35-14 32.4-30.64 44.6-49.3m-27.4 16.8c-1.1 10.6-4.3 29.3-5.8 39.1m10.1-15.6c-3.9 3.9-9 10.1-13.2 13.6m49.6-34.8c-3.1 3.2-6.6 7-10.2 7.9m12.2-7v0c2.86 3.26 6.46 5.8 10.5 7.4m-12.5-24.3v0c-3.41 3.01-7.39 5.29-11.7 6.7m13.3-6.4c2.3 2.3 5 5 8.6 6.7m-21.1-19.2v0c3.89-1.17 7.48-3.18 10.5-5.9m1.2 0h-.001c3.02 2.79 6.6 4.94 10.5 6.3m-21.5-13h-.001c3.67-.62 7.01-2.54 9.4-5.4m1.2-.8c2.7 2.4 7.8 5.5 10.6 5.9m12.5 3.1c-1.6 2-5.9 5.1-8.6 5.1m10.5-5c1.2 1.9 4.3 5 6.3 5m-18.8 23.5v0c4.21-1.59 7.98-4.16 11-7.5m2 .4v0c1.85 2.87 4.35 5.26 7.3 7m-16 20.4c1.6 0 5.9-2.4 7-5m2.4-1.3v0c2.15 2.7 4.8 4.97 7.8 6.7m-73.1 3.5c5-1.6 14.9-7.8 20-13.7m-9.4 7.4c3.9 2.8 9 6 12.5 6.7m-24.3-17.6v-.001c3.45-1.4 6.64-3.39 9.4-5.9m2-.4c1.1 1.6 9.3 6.7 12.9 6.7m-14.9-23l-.001 0c-2.99 2.27-6.29 4.08-9.8 5.4m11.8-5.5c2.7 2 8.6 5.5 12 5.5m-13.9-21.1c-2.3 2.3-6.2 6.2-9.4 7.4m11.4-7c1.5 2.7 6.2 6.6 9.3 7m31.3 10.2c7.5 12.9 20.7 29 34 37.5m-55-52c10.9 15.6 32 49.7 52.3 62.2m4-13.3v0c-5.24 7.12-11.75 13.23-19.2 18m17.5-13.7c-6.6-11-10.1-24.6-15.6-43m-54.7 48.5l7.8 23.4m-9.4-23.8l7.4 23.4m-9.3-24.6l7 24.2m-7.8-23.8l5.4 23.8m0-.7h6.7m-.8-2.4h-6.2m5.4-2h-6.2m5.4-1.9h-6.3m5-2.3h-5m-.4-2h5m-5.4-1.6h5m-5.4-2h4.7m-5-1.5h4.2m-4.7-2h4m-4.4-1.5h4m-4.3-1.2h3.9m-4-1.5h3.6m-10.2 0l-4.7 19.5m5.9-19.5l-4 20.3m5.2-21.1l-3.2 21.5m4.7-22l-2.3 22.8m2.7-1.6h-7.8m7.8-2h-9m9-2.3h-8.2m7.8-2h-7.4m7.8-2h-7.4m7.4-2.3h-6.6m6.6-2h-6.6m6.2-1.9h-5.8m5.8-2h-5m5-1.9h-4.7m4.7-1.2h-4.3m4 21.6v-23.1m25.3-7.8l-15.5 31.7m16.8-32l-13.3 32.4m14.1-32.8l-10.6 32.8m11.8-32l-8.6 32m.4-1.1h-9.8m10.5-3.2h-9.3m9.7-2.3h-7.8m9.4-2.4h-7.8m8.2-2.3h-7.4m8.2-2.4h-7m7.7-2.7h-6.2m6.6-2h-5.8m6.6-2.3h-5.5m6-1.6h-5.2m5.5-1.5h-5.5m5.1-1.6h-3.9m4-1.2h-3.6m3.9-1.5h-3.2m3.9-1.6h-3.1m3-1.2h-2.7m13.3-.4l6.7 22m-5.5-21.6l8.2 21.2m-7-21.2l9.8 20.8m2.3-2l-11-19.2m11 19.6h-7.8m7-3.1h-7.8m6.7-2.4h-7.5m5.9-2.7h-6.7m5.1-2.4h-5.8m4.3-2.7h-5.1m3.9-2.7h-4.7m3.1-2.4h-3.9m12.5.4l-7 20.3m9-21l-6.3 20.7m2.8-.4l4.7-19.6m1.1.8l-3.9 18.4m-6.6-1.2h6.6m-5.8-2.3h6.6m-5.9-2.8h6.3m-5-2.3h5.8m-5.1-2.8h5.5m-4.7-2.3h5m-3.9-2.8h4.7m-3.9-2.3h4m3.5.4l3 14m-1.9-14.8l4.3 14.5m-2.7-14.5l4.7 14.5m-2.8-13.7l5.1 13.7m-.4-1.2h-6.6m5.9-2h-6.3m5.5-1.9h-5.9m5-2.4h-5.8m4.7-2h-5.4m4.7-1.9h-5m4.3-2h-4.7"/></g><path fill="#00B800" d="M467.6 299.2c3.1-2 8.5-1.7 11.3.4 3.3-1.8 9.2-1.3 11.9 1.2 4.2-3 7.7-3.4 11.7-.6h0c3.62-2.41 8.35-2.33 11.9.2 3.7-1.7 7.7-3.1 11.2.6v0c-3.5-2.36-8.13-2.07-11.3.7 -3.5-3.5-9.7-2.2-11.8.3l-.001-.001c-2.89-3.13-7.76-3.33-10.89-.45 -.22.2-.43.41-.62.64 -3.7-3-9.1-3.2-12-1v0c-3.28-2.42-7.5-3.16-11.4-2Z"/><g fill="#CF6200"><path d="M523.1 294.8c-16.1 2.8-51.4 1-59-1.1 -2.7-.6-2-1.6.3-1 8.9 2 27.9 2 38.3 1.4l6.2-8.5c1-1.3 1.4-1.4 3.5-1.7l8.7-1.5v1.2c-.2.3-.4.6-.7.7 0 2 .4 7.1.9 9l1.1-.3c.7-.2 1.4 1.7.7 1.8Z"/><path d="M549.6 295.6h2.2c.6 0 1.6-.5 1.9-1.5l2.2-6.3 -1.7-2.5 .9-5.3 2-.9c.2-.3 0-1.6-.4-2l-31.6 1c-1 0-1.4 0-1.7 1.3v0c-1.91 8.62 1.18 17.58 8 23.2 .5.4 1.2 0 .3-.7v0c-1.69-1.7-3.14-3.62-4.3-5.7h5.2c.4 1.7 1.7 5.2 2 5.9 .2.7.8.7.4-.3 -.6-2-1-4.5-1.3-5.7h5.3l.4 5.2c0 .7.6.7.6-.1V296l4.8-.2 -.4 5.2c-.1.9.3 1.2.5 0l.7-5.2 3.3-.2c0 1.2-1.1 4.4-1.4 5.2 -.3 1 .2 1 .5.1h-.001c.68-1.69 1.22-3.43 1.6-5.2Z"/></g><g><path d="M526.5 294.8c-.5-1.1-2.3-5.1-2.4-8h7c.2 2.1.8 6.8 1.2 7.9Zm5.8-8.2c.1 1.8 1 7.5 1.2 8h5.6l-.4-8.1Zm-7.9-7v0c-.25 1.98-.32 3.99-.2 6l6.7-.3 -.6-5.9Zm7.3-.2l.4 6 6.6-.2 -.3-6Zm8-.3l.2 6 5.7-.1c0-1.3.3-5.2.2-6.1Zm7.2-.2l-.2 6 6.2-.2c.3-1.3.9-4.7.9-6Zm6.3 7.2l-6.6.2 -.6 8 6.3-.2v0c.88-1.96 1.65-3.96 2.3-6 -.5-1-.9-1.3-1.4-2Zm-13.3.4l.2 8 4.8-.2 .6-8Zm-27-1.6l-2.6.4v0c-2.02 2.99-4.12 5.92-6.3 8.8l9.3-.2 -.3-9Zm1.2-.3l.4 9.2 5.6-.4 -1-9.6Z"/><path stroke="#000" stroke-width=".4" d="M486.9 263h-30.1v-.8l30 .4Zm23.5-24.2c.3 0 .3 0 0 0l-23.5-.4c-.4 0-.4 0 0 0h23.5Zm-25 6.6c.3 0 .3.4 0 .4h-26.7c-.3 0 0-.4 0-.4Zm.7-17.2c.4 0 .4.4 0 .4h-27.7c-.4 0-.4-.4 0-.4Zm-2-13.7c.4 0 .4.4 0 .4h-27c-.3 0 0-.8 0-.8l27.4.4Z"/></g><g stroke-width=".4" fill="#FFF" stroke="#000"><path d="M512.3 206.7l-23.5.4Z"/><path fill="#000" d="M513.5 220c.4 0 .4 0 0 0H488c-.4 0-.4 0 0 0Zm25.4 18v.4h-27.4c-.8 0-.8 0 0 0H539Zm0-23.1c.8 0 .8.4 0 .4H511c-.4 0-.4-.4 0-.4h28.2ZM513 255.6c.4 0 .4.4 0 .4h-25v-.4Zm24.2 3.5c.4 0 .4 0 0 0h-21.9Z"/><path fill="#EF072D" d="M557.3 263v0c.43-1.81.43-3.7 0-5.5h-.001c-.79.22-1.62.22-2.4 0v0c-.39-.3-.79-.56-1.2-.8v0c-.12 2.56-.62 5.09-1.5 7.5 -1.2 0-4 0-5.1-.8l-1.2 3.9v0c1.94.42 3.95.42 5.9 0 0 2.3-.4 4.3-1.6 5.9 2 0 4 0 4.3-1.2 1.2-1.6 1.2-4 1.6-5.1l2-.4 1.9-.8 2.7-.4V263l.8-1.6 -6.2 2Z"/><path fill="#000" d="M460.3 130.8c-3.1 0-10.2 0-11.7.8 -1.2.8-1.6 1.2.8 1.6 2.3.4 6.6 2 9 3.1 2.3 1.6 3.9 4 3.9 7.8h-.001c-1.79 9.88 2.92 19.81 11.7 24.7 .4.4.8.7.4 2.3l-1.2 4.3c0 .8-.4 1.6.8 1.2v0c-1.24 2.12-2.57 4.19-4 6.2 -6.2-.7-11.6 0-11.6 7 0 .9 0 1.6.7 0 1.2-1.5 2.4-3 5.1-3.8 -1.5 2.7-2.3 5-2 6.6 0 1.2.8 2 1.6 0 .4-1.6 2-3.1 3.2-4.3 .7-.4.7-.4.3.8v0c-.17 1.53.26 3.07 1.2 4.3 .8.8 1.2.4.8-.8 0-1.6 0-4.3 2-5 2.3-1.6 4.6-.9 5.4.7 1.2 2 2 0 .8-1.6 -1.2-1.5-2.3-3.5-3.9-3.5l4-6.6c0-.8.7-1.2 1.5-.8 0 .4.8.4 1.1-.8l2.8-5.5 2.3-.7 4 5.8v2.4c0 1.5-1.6 5-2 6.2 -4.7 0-7 0-8.6 2.8 -.8 1.1.4 1.5 1.5 1.1v0c1.2-.73 2.59-1.11 4-1.1 .7 0 1.1.7 0 1.1 -2.8 1.2-4.7 3.2-4.7 5.9 0 .8.7 1.2 1.1 0v0c1.14-1.93 2.96-3.35 5.1-4 0 2 .4 5.2 2 6 1.1.7 1.1 0 .8-1.2 -.8-2 0-4 1.1-5.1 2-2.3 6.7.8 7.9 1.6 .7.7 1.5 1.1.7-1.2 -.4-2.7-4.3-4-7.8-4.7l4.7-16.4c2 1.2 4-2 7-.8v-.001c5.24 2.34 10.24 5.22 14.9 8.6 1.6 1.2 2 .8 2.7 0 .8-.4 2 0 3.2 0 .7.4 1.5.8.4-1.6v0c-2.26-4.1-5.49-7.57-9.4-10.1 3.1 0 7 0 7-.8s-4.7-2.4-6.6-2.4v0c2.3-.42 4.44-1.46 6.2-3 .8-.9 0-1.3-3.1-1.3 -8.2 0-12.5 0-16.8-2.3 -7-4-11.4-8.6-14.9-10.2 -1.5-1.1-2.7-3.5-3.9-5.4 -2-6-2-9-7-11 -5.1-2-11.8.4-14.5 3.1Z"/><path d="M460.7 132.4h-6.6s-.8 0 0 0l5.8 1.6c1.2 0 .8 1.1 0 .7 -.8-.3-1.5 0-.8.8 4 2.8 4.7 4 4 14.5l1.9 1.6c.8 0 .4.7 0 .3 -.4-.3-2 0-.8.8s2 .8.8.8 -2.3.8 0 .4c2 0 3.1.8 0 1.2 -2.3 0-1.6.8 0 .8 2.7 0 2 .7 1.2.7s-1.2.8.8.8h2.7c.4 0 .8 0 0 .4 -.8 0-.8.8.4.8 1.2 0 2 0 .8.4 -.4 0-1.2.4 0 .8 2.7 0 3 .7 2.3 1.1 -.8.4-1.2.4 0 .4s2.4.4 1.2.8c-.8 0-1.2.8 0 .8s2 .8 1.2 1.2c-.8.4-1.2.8 0 .8 1.1 0 1.5.3.7.7 -.7.8-1.1.8-2 0 0-.7-.7-.7-.7 0l-.8-1.1c-.4-1.2-1.2-1.2-1.2 0 0 1.1-.7.4-1.5 0v-.001c3.89 4.46 10.32 5.7 15.6 3 .4 0 .8 0 1.2 1.3l2.3 4.3c.4.7 1.2 0 1.2-.8l2.4-6.7c0-1.1 1.5-2 1.1 1.2 1.2-.8 5.9-1.2 9.8 0v0c3.77 1.5 7.33 3.49 10.6 5.9v-.001c.56.43 1.3.58 2 .4 1 0 1.5 0-.5-2s-1.1-2.7 0-2c1.2.8 2 .4.8-.7l-3.9-3.5c-.4 0-.4-.8-2.3-.8h-6c-.7 0-1.5 0 .9.8 2.3.7 6.6 3.9 7.8 4.6 1.2.8 1.6 2.4-.4.8v0c-4.46-2.97-9.14-5.58-14-7.8 -10.6 1.2-19.2 2.4-25.5-4.3 -3.1-3.5-3.1-11 2-14 -.8-.9-.8-1.6-.4-1.6v-2.4c-.8-.4-1.6-1.2-1.6-2 -1.2 0-2-1.9-3.9-1.1 -2 .8-2.3 0-3.1-.4 -.4-.8-.8-.8-2-.8s-2 0-2-.8c0-.7.8-.7 2.4 0 2.7 1.2 5 2 7-.7 1.6-2.4-.7-4.3-3.9-5.1 -3.5-.8-5.8 2-7.4 3.1Z"/><path d="M477.9 131.2v0c-1.16-1.05-2.52-1.83-4-2.3 -1 0-1 .8-.7 1.2v2.3c.8.4 1.2 1.2 0 1.2 -.8.8 0 3.5 1.2 2.7h.8s0 1.2.7 1.2c.8 0 0 .8 0 1.2h.8c.8 0 .4 1.5-.4 2 1.2 0 1.6 0 1.6.7 .4.8 1.6 1.2 1.6 2.3 0 1.2 0 1.2-1.6.8 -1.6-.4-1.6 0-2 .8 -.3.8-.7 1.2 0 1.2 .8 0 1.6.4.4.8 -1.1.3-2.3 0-2.7 1.1 0 1.2 0 1.6.8 1.2l2.7-1.6 2 .4c.8.4 0 2-.8 1.2s-1.6 0-2 .4l-2 .8c-.7 0-1.5 0-1 2 0 5.4 4.2 9.3 12 9.3h13c-2.4-1.6-4-2.3-5.2-2.3H492c.4-.4 0-1.2-.4-1.2s-1.2-.8-2 0l-3.9 2c-.8 0-2 0-.8-.8l3.6-1.6c.7 0 .3-.8.3-.8s0-1.2 1.2-.8c2.4 1.6 5.9 3.6 7 3.6 1.2 0 1.6-.8.8-1.2 -.7-.4-1.1-1.2-1.1-1.6 0-.4.4-.8 2 0 1.5 1.2 3.8 2 5 2.4 1.2.4 2 .4 0-.8l-9-6.7c-1.2-1.1-1.2 0-.8.8 .4.8-1.1 1.2-2 .4 -.7-.8-1.1-1.2 0-1.6 1.2-.3.9-.7-.3-2 -1.6-1-2-1-1.6 0 .4 1.3.4 2-.8 1.7 -1.1-.4-2.3-1.2-1.1-1.6 .7-.8 2-1.2 0-2.4 -2-1.1-.8 0-1.2.8 -.4.8-1.6.8-2 0 -.4-.8-1.1-1.1-.7-1.5 .3-.4.3-.8 1.1 0 .8.7 1.6 0 .4-1.2 -1.2-1.2-1.5-.8-1.2 0 .4.8-.7 1.6-2.3 0 -.8-.4-.8-1.2 0-1.6 .8 0 .8-.4 0-1.1 -2.7-4.7-1.6-8.3-4.7-11.8Z"/></g><path fill="#CF6200" d="M478 132c-.2.4-.3.3-.8.7 -.5.4-.7 1.5.3 1.4v0c.55-.06 1.06-.35 1.4-.8h0c-.23-.46-.5-.9-.8-1.3Zm-3-2.6c-.9.8-1 1.2-.6 1.2 .5 0 .3 0 0 .6 -.4.5.6.8 1 .3 .5-.4.5-.5.7 0 .1.5 1 0 1.3-.3 -.7-.7-1.7-1.3-2.5-1.8Zm-1.5 4.4c-1 .5-.7 3.2.9 2.4 .5-.2.9 0 .9.3v.7h0c.64-.27 1.23-.68 1.7-1.2 .9-1.2 0-1-1.4-1s-1.7-.3-.4-1.1c1.2-.8.3-1.2-1.3-1 .2.3.1.6-.4.9Zm5.9 6c-.8-.9-.3-1.2.5-1.7v0c.15-.07.29-.17.4-.3l-.7-2.6c-.3.2-.8 1.1-1 1.5 -.2.7-.4 1.1-1 1 -.7-.3-1.3.4-1.4 1.1h.5c.2.1.3.6.2 1 1.9 0 2.2 1.1 2.5 2 .4 1 .7.9 1 .3 .3-.6-.3-1.5-1-2.3Z"/><path fill="#FF0" d="M479.9 150.4c-.4.8-.4.7-1.5.7 -1 .1-2.4.3-3 .9 -.3.3-2.2.5-2.2 1.3 0 .9 0 1.5.8 1.6 .8 0 1 .2.7.8 -.4.6-.6 1.5.8 1.7 1.4 0 2.5-.3 2.8.4 .4 1 0 2.1.3 2.7 .2.5 1.2.7 2.7 1.2 1 .2 4.8.5 6 .3 1-.2.6-.8-.5-.8 -1.2-.2-2-.4-2.3-1.2 -.3-.9-.5-1.3.2-2 .6-.8 1.2-1.3.8-2.5 -.3-1.1-1-2.5-2.3-2.9 -1.3-.4-.9-2.3-2.3-2.4 -.5 0-.8 0-1 .2Z"/><path fill="#CF6200" d="M473.3 161.4c1.2.2 2.1.5 1.2.8 -.9.3-1.5.8-.3.9 1.2 0 2.3.6 1.3.8 -1 .3-1 1 .1 1s1.7.4.9 1c-.9.4-1.4.7-2-.1 -.5-.9-.8-1-.9-.5 -.2.6-.5.2-.9-.7 -.3-.8-1.2-1.2-1-.5 .3.7-.6.9-1.5.5v0c.82.96 1.8 1.77 2.9 2.4 1.2-.4 2.6 0 3 0 .6 0 2.1.4 3 .9 .9.4 1.5-.4 1.1-1.3 -.4-1-.4-.7-.8 0 -.6.4-.6-.3-.6-1.4 0-.8-.6-.7-.7-.1 -.2.5-.7-.4-.5-.9 .3-.5 0-.8-.4-.6 -.5.2-.5 0-.6-1 -.1-1.1-.5-1-.6-.5 -.1.4-.6-.2-1.3-1 -.5-.6-1-.2-2.1.1Z"/><path fill="#FF0" d="M485.6 167.8c-5.5 2.2-9.5 1.2-12.5-.8 1.2-.4 2.6 0 3.1 0s2.1.4 2.9.9c.8.4 1.5-.4 1.1-1.3 .7 1 1.3 1.6 2.2 1.5l3.2-.3ZM473.8 142c-.4-1.2-.7-1.4-1.3-1.3 -.6 0-.9-.1-1.6-.4 -.6-.3-1.5 0-1.6 1.3 -.2 1.3-1 1.8-2 2.6 -1 .7-1.5 1.3-1.5 2.6 0 1.2-.3 1.4-1 2.4l-1.1 1.3 1.2.7c.8.4.5.9-.2.7 -.7-.2-1.5.2-.2.4 1.2.3 1.7 1 .6 1 -1.3-.3-2.6.8-.3.5 2.3-.2 3.1.9.5.9 -2.7 0-1.7.9-.2.9 2.5 0 1.7.7 1 .7 -.6 0-.9 1 .8.7l.6-1c.3-.8.5-3.1 1.5-3.8 .9-.6 1.4-1.7 1.4-2.3 0-.6 1.5-3.7 2.3-4.4 1-.7 1.4-2.3 1-3.4Z"/><path fill="#CF6200" d="M471.8 142.2c-.9-.7-1.9-.2-1.9 1 0 1-.6 1.5-1.4 2v0c-.91.46-1.57 1.3-1.8 2.3 0 1 .2 1.5-.4 2.3 -.7.7-.8 1.3-.4 1.8 .6.4.6.4.7 1 .3.6 1.4 0 1.4-.7s.3-.7 1-1.1c.8-.4 2-2.4 1.7-2.9 -.2-.5-1-1 0-1.7 1-.8 1.8-1 1.8-1.6 0-.8.2-1 .5-1.3 .3-.3-.6-.7-1.2-1Z"/><g><path d="M471.8 141.2c-.6-.2-1 1.1-.1 1.3 .9.2 1-.9 0-1.2Zm-.1 1.7c-.7.1-1.5 1-.4 1 1.2-.2 1.6-1 .3-1Zm-1.4 1.7c-.7.3-.5 1.3.5.6 1-.7 1.2-1.5-.5-.6Zm-1 1.4c-.7.3-.7 1.3.4.6 1-.6 1.3-1.5-.4-.6Z"/><path d="M467.9 146.7c-.7.3-.3 1.2.7.6s1-1.5-.7-.6Zm.8.9c-.8.3-.3 1.2.7.6s1-1.5-.8-.6Z"/><path d="M467.4 147.9c-.6.4-.2 1.2.9.6 1-.6.9-1.5-.9-.6Zm.9 1c-.8.3-.4 1.2.7.6 1-.7 1-1.5-.8-.6Z"/><path d="M467 149.5c-.6.3-.2 1.2.9.6 1-.6.8-1.5-.8-.6Z"/><path d="M467 150.3c-.5.4-.1 1.4 1 .7 1-.7.8-1.5-1-.7Z"/></g><path fill="#CF6200" d="M466.6 158.9c-.7 0-1.2 1.1-.3 1.3 .9.2 1.1.3 1.1.9 0 .6.3 1.7 1.2 1.7 1 0 1.8-1 1-1.3 -.9-.3-1.6-.6-1.7-1.4 0-.7-.8-1.2-1.3-1.2Z"/><path fill="#FF0" d="M491.5 153l.5.6c.7.5 2 0 1.7-.5 -.1-.4-.8-2 1-.8l9.2 6.5c1.9 1.4.6 1.6-.2 1.1l-5-2.3c-1.5-.9-1.7-.5-2-.3 0 .3 0 .9.6 1.4 -.9.1-2.3 0-2.8-1 -.5-1.2-1.7-2.6-2.6-3.7 -.3-.4-.4-.7-.3-.9Z"/><path fill="#00D860" d="M542 319.5c-1.3.9-3 2.4-1.9 4.5l.4-.1v0c4.87-5.93 9.19-12.29 12.9-19v-.6 0c-1.36 1.11-2.88 2.02-4.5 2.7 .6 1.7-2.3 3.8-3.7 4.4 .6 1 .4 2.6-1 2.9 .3.8-.7.8-2 1.4 -1.1.5-1.7.8-2.1 1.5 .6-.4 1.6-.7 2-.5 .4.2.6.9-.3 1.1 -.8.3-1.4.7-1.8 1 1.3-.3 3.2-.2 2 .7Z"/><path stroke="#000" stroke-width=".4" d="M481.8 151.2c-1.6-1.2-2-.4-1.6 0 .4.4 0 1.5-1.1 2h-4c-.7 0-1.9 1.5 0 1l6.3-1c.8 0 1.6-.9 0-2Zm2.7 2.3c-1.1-1.2-1.5-.8-1.1 0 .4.8-.4 1.2-1.2 1.2l-5.5 1.5c-1.5 0-1.5 1.2.4 1.2 2 0 5.9-2 6.3-2 .4 0 .8-1.1 1.1-.7 .4.4 1.2 0 0-1.2Zm1.2 3.1l-3.9 2c-1.2 0-2 1.2 0 1.2s4-2 4.7-2.4l1.6-.8s1.5-.4 0-1.5c-1.6-1.2-3.2 0-2.4.4 .8.4 0 1.1 0 1.1Z"/><path d="M469.7 131.2c-2.5-1.7-5.2 1.7-2.5 3.6 2.4 1.7 5-2 2.6-3.6Z"/><path fill="#FFF" d="M466.6 132.7h.7c0 .8.7 2 1.8 1.7 -.9.7-2.6-.2-2.5-1.7Zm9.6 37c.8.3 3.4.5 4.4.5l-1.2 2.2c-.3.7-.4.8-.5-.3 0-1-.6-1.7-1.1-.6l-1 2c-.3.4-.7.5-.6-.6 .2-1.1.1-2.3 0-3.2Z"/><path fill="none" stroke="#000" stroke-width="1.2" d="M574.5 199.7c0 63.7-10.2 132.5-93 165.3 -82.6-32.8-92.7-101.6-93.1-165.3Zm0 0c0-24.3-1.2-47.8-.8-68v-.001c-29.42-11.44-60.74-17.18-92.3-16.9 -20.7 0-61.4 3.1-92.2 16.8 .7 20.3-.8 43.8-.8 68Z"/><path fill="#012169" d="M0 0h320v240H0Z"/><path fill="#FFF" d="M37.5 0l122 90.5L281 0h39v31l-120 89.5 120 89V240h-40l-120-89.5L40.5 240H0v-30l119.5-89L0 32V0Z"/><path fill="#C8102E" d="M212 140.5L320 220v20l-135.5-99.5Zm-92 10l3 17.5 -96 72H0ZM320 0v1.5l-124.5 94 1-22L295 0ZM0 0l119.5 88h-30L0 21Z"/><path fill="#FFF" d="M120.5 0v240h80V0ZM0 80v80h320V80Z"/><path fill="#C8102E" d="M0 96.5v48h320v-48ZM136.5 0v240h48V0Z"/></svg>