<svg viewBox="0 0 640 480" xmlns="http://www.w3.org/2000/svg" xmlns:xlink="http://www.w3.org/1999/xlink"><defs><path d="M0-21l12.3 38L-20-6.5h40L-12.3 17Z" id="a"/></defs><path fill="#002395" d="M0 0h640v480H0Z"/><path fill="#FFF" d="M0 0h292.8v196.8H0Z"/><path fill="#002395" d="M0 0h96v192H0Z"/><path fill="#ED2939" d="M192 0h96v192h-96Z"/><g fill="#FFF"><path d="M426 219.6l15.4 24.6h44V330l-33-51.6 -44.4 70.8h21.6l22.8-40.8 46.8 84 46.8-84 22.8 40.8h21.6L546 278.4 513 330v-47.4h19.8l14.7-23.4H513v-15h44l15.4-24.6H426Zm51.6 105h-48v16.8h48Zm91.2 0h-48v16.8h48Z"/><use transform="matrix(1.2 0 0 1.2 499.2 434.4)" xlink:href="#a"/><use transform="matrix(1.2 0 0 1.2 445.2 393.6)" xlink:href="#a"/><use transform="matrix(1.2 0 0 1.2 553.2 393.6)" xlink:href="#a"/><use transform="matrix(1.2 0 0 1.2 399.6 272.4)" xlink:href="#a"/><use transform="matrix(1.2 0 0 1.2 598.8 272.4)" xlink:href="#a"/></g></svg>