<svg viewBox="0 0 640 480" xmlns="http://www.w3.org/2000/svg"><defs><clipPath id="a"><path d="M-85.3 0h682.6v512H-85.3Z"/></clipPath></defs><g clip-path="url(#a)" transform="matrix(.9375 0 0 .9375 80 0)"><g fill="#E70013" fill-rule="evenodd"><path d="M-128 0h768v512h-768Z"/><path fill="#FFF" d="M385.8 255.8h0c0 71.29-57.81 129.1-129.1 129.1 -71.3 0-129.1-57.81-129.1-129.1l-.001 0c0-71.3 57.8-129.1 129.1-129.1 71.29 0 129.1 57.8 129.1 129.1Z"/><path d="M256.7 341.4v0c-47.31-1.62-84.34-41.28-82.73-88.58 1.53-45.04 37.68-81.19 82.72-82.73 11.8 0 25.3 2.8 34.4 9.5 -62.6 2.3-78.5 55.5-78.5 76.9 0 21.4 10.1 69.1 78.5 76.2 -7.8 5-22.6 8.7-34.4 8.7Z"/><path d="M332.1 291.8l-38.9-14.2 -25.7 32.4 1.5-41.3 -38.8-14.5 39.8-11.4 1.7-41.3 23.2 34.3 39.8-11 -25.5 32.5Z"/></g></g></svg>