<svg viewBox="0 0 640 480" xmlns="http://www.w3.org/2000/svg"><defs><clipPath id="a"><path d="M0 0h682.7v512H0Z"/></clipPath></defs><g clip-path="url(#a)" transform="scale(.9375)"><g fill="#BD3D44" fill-rule="evenodd"><path d="M0 0h972.8v39.4H0Zm0 78.8h972.8v39.4H0Zm0 78.7h972.8V197H0Zm0 78.8h972.8v39.4H0Zm0 78.8h972.8v39.4H0Zm0 78.7h972.8v39.4H0Zm0 78.8h972.8V512H0Z"/><path fill="#FFF" d="M0 39.4h972.8v39.4H0Zm0 78.8h972.8v39.3H0Zm0 78.7h972.8v39.4H0Zm0 78.8h972.8v39.4H0Zm0 78.8h972.8v39.4H0Zm0 78.7h972.8v39.4H0Z"/><path fill="#192F5D" d="M0 0h389.1v275.7H0Z"/><path fill="#FFF" d="M32.4 11.8L36 22.7h11.4l-9.2 6.7 3.5 11 -9.3-6.8 -9.2 6.7 3.5-10.9 -9.3-6.7H29Zm64.9 0l3.5 10.9h11.5l-9.3 6.7 3.5 11 -9.2-6.8 -9.3 6.7 3.5-10.9 -9.2-6.7h11.4Zm64.8 0l3.6 10.9H177l-9.2 6.7 3.5 11 -9.3-6.8 -9.2 6.7 3.5-10.9 -9.3-6.7h11.5Zm64.9 0l3.5 10.9H242l-9.3 6.7 3.6 11 -9.3-6.8 -9.3 6.7 3.6-10.9 -9.3-6.7h11.4Zm64.8 0l3.6 10.9h11.4l-9.2 6.7 3.5 11 -9.3-6.8 -9.2 6.7 3.5-10.9 -9.2-6.7h11.4Zm64.9 0l3.5 10.9h11.5l-9.3 6.7 3.6 11 -9.3-6.8 -9.3 6.7 3.6-10.9 -9.3-6.7h11.5ZM64.9 39.4l3.5 10.9h11.5L70.6 57 74 67.9l-9-6.7 -9.3 6.7L59 57l-9-6.7h11.4Zm64.8 0l3.6 10.9h11.4l-9.3 6.7 3.6 10.9 -9.3-6.7 -9.3 6.7L124 57l-9.3-6.7h11.5Zm64.9 0l3.5 10.9h11.5l-9.3 6.7 3.5 10.9 -9.2-6.7 -9.3 6.7 3.5-10.9 -9.2-6.7H191Zm64.8 0l3.6 10.9h11.4l-9.3 6.7 3.6 10.9 -9.3-6.7 -9.2 6.7 3.5-10.9 -9.3-6.7H256Zm64.9 0l3.5 10.9h11.5L330 57l3.5 10.9 -9.2-6.7 -9.3 6.7 3.5-10.9 -9.2-6.7h11.4ZM32.4 66.9L36 78h11.4l-9.2 6.7 3.5 10.9 -9.3-6.8 -9.2 6.8 3.5-11 -9.3-6.7H29Zm64.9 0l3.5 11h11.5l-9.3 6.7 3.5 10.9 -9.2-6.8 -9.3 6.8 3.5-11 -9.2-6.7h11.4Zm64.8 0l3.6 11H177l-9.2 6.7 3.5 10.9 -9.3-6.8 -9.2 6.8 3.5-11 -9.3-6.7h11.5Zm64.9 0l3.5 11H242l-9.3 6.7 3.6 10.9 -9.3-6.8 -9.3 6.8 3.6-11 -9.3-6.7h11.4Zm64.8 0l3.6 11h11.4l-9.2 6.7 3.5 10.9 -9.3-6.8 -9.2 6.8 3.5-11 -9.2-6.7h11.4Zm64.9 0l3.5 11h11.5l-9.3 6.7 3.6 10.9 -9.3-6.8 -9.3 6.8 3.6-11 -9.3-6.7h11.5ZM64.9 94.5l3.5 10.9h11.5l-9.3 6.7 3.5 11 -9.2-6.8 -9.3 6.7 3.5-10.9 -9.2-6.7h11.4Zm64.8 0l3.6 10.9h11.4l-9.3 6.7 3.6 11 -9.3-6.8 -9.3 6.7 3.6-10.9 -9.3-6.7h11.5Zm64.9 0l3.5 10.9h11.5l-9.3 6.7 3.5 11 -9.2-6.8 -9.3 6.7 3.5-10.9 -9.2-6.7H191Zm64.8 0l3.6 10.9h11.4l-9.2 6.7 3.5 11 -9.3-6.8 -9.2 6.7 3.5-10.9 -9.3-6.7H256Zm64.9 0l3.5 10.9h11.5l-9.3 6.7 3.5 11 -9.2-6.8 -9.3 6.7 3.5-10.9 -9.2-6.7h11.4ZM32.4 122.1L36 133h11.4l-9.2 6.7 3.5 11 -9.3-6.8 -9.2 6.7 3.5-10.9 -9.3-6.7H29Zm64.9 0l3.5 10.9h11.5l-9.3 6.7 3.5 10.9 -9.2-6.7 -9.3 6.7 3.5-10.9 -9.2-6.7h11.4Zm64.8 0l3.6 10.9H177l-9.2 6.7 3.5 11 -9.3-6.8 -9.2 6.7 3.5-10.9 -9.3-6.7h11.5Zm64.9 0l3.5 10.9H242l-9.3 6.7 3.6 11 -9.3-6.8 -9.3 6.7 3.6-10.9 -9.3-6.7h11.4Zm64.8 0l3.6 10.9h11.4l-9.2 6.7 3.5 11 -9.3-6.8 -9.2 6.7 3.5-10.9 -9.2-6.7h11.4Zm64.9 0l3.5 10.9h11.5l-9.3 6.7 3.6 11 -9.3-6.8 -9.3 6.7 3.6-10.9 -9.3-6.7h11.5ZM64.9 149.7l3.5 10.9h11.5l-9.3 6.7 3.5 10.9 -9.2-6.8 -9.3 6.8 3.5-11 -9.2-6.7h11.4Zm64.8 0l3.6 10.9h11.4l-9.3 6.7 3.6 10.9 -9.3-6.8 -9.3 6.8 3.6-11 -9.3-6.7h11.5Zm64.9 0l3.5 10.9h11.5l-9.3 6.7 3.5 10.9 -9.2-6.8 -9.3 6.8 3.5-11 -9.2-6.7H191Zm64.8 0l3.6 10.9h11.4l-9.2 6.7 3.5 10.9 -9.3-6.8 -9.2 6.8 3.5-11 -9.3-6.7H256Zm64.9 0l3.5 10.9h11.5l-9.3 6.7 3.5 10.9 -9.2-6.8 -9.3 6.8 3.5-11 -9.2-6.7h11.4ZM32.4 177.2l3.6 11h11.4l-9.2 6.7 3.5 10.8 -9.3-6.7 -9.2 6.7 3.5-10.9 -9.3-6.7H29Zm64.9 0l3.5 11h11.5l-9.3 6.7 3.6 10.8 -9.3-6.7 -9.3 6.7 3.6-10.9 -9.3-6.7h11.4Zm64.8 0l3.6 11H177l-9.2 6.7 3.5 10.8 -9.3-6.7 -9.2 6.7 3.5-10.9 -9.3-6.7h11.5Zm64.9 0l3.5 11H242l-9.3 6.7 3.6 10.8 -9.3-6.7 -9.3 6.7 3.6-10.9 -9.3-6.7h11.4Zm64.8 0l3.6 11h11.4l-9.2 6.7 3.5 10.8 -9.3-6.7 -9.2 6.7 3.5-10.9 -9.2-6.7h11.4Zm64.9 0l3.5 11h11.5l-9.3 6.7 3.6 10.8 -9.3-6.7 -9.3 6.7 3.6-10.9 -9.3-6.7h11.5ZM64.9 204.8l3.5 10.9h11.5l-9.3 6.7 3.5 11 -9.2-6.8 -9.3 6.7 3.5-10.9 -9.2-6.7h11.4Zm64.8 0l3.6 10.9h11.4l-9.3 6.7 3.6 11 -9.3-6.8 -9.3 6.7 3.6-10.9 -9.3-6.7h11.5Zm64.9 0l3.5 10.9h11.5l-9.3 6.7 3.5 11 -9.2-6.8 -9.3 6.7 3.5-10.9 -9.2-6.7H191Zm64.8 0l3.6 10.9h11.4l-9.2 6.7 3.5 11 -9.3-6.8 -9.2 6.7 3.5-10.9 -9.3-6.7H256Zm64.9 0l3.5 10.9h11.5l-9.3 6.7 3.5 11 -9.2-6.8 -9.3 6.7 3.5-10.9 -9.2-6.7h11.4ZM32.4 232.4l3.6 10.9h11.4l-9.2 6.7 3.5 10.9 -9.3-6.7 -9.2 6.7 3.5-11 -9.3-6.7H29Zm64.9 0l3.5 10.9h11.5L103 250l3.6 10.9 -9.3-6.7 -9.3 6.7 3.6-11 -9.3-6.7h11.4Zm64.8 0l3.6 10.9H177l-9 6.7 3.5 10.9 -9.3-6.7 -9.2 6.7 3.5-11 -9.3-6.7h11.5Zm64.9 0l3.5 10.9H242l-9.3 6.7 3.6 10.9 -9.3-6.7 -9.3 6.7 3.6-11 -9.3-6.7h11.4Zm64.8 0l3.6 10.9h11.4l-9.2 6.7 3.5 10.9 -9.3-6.7 -9.2 6.7 3.5-11 -9.2-6.7h11.4Zm64.9 0l3.5 10.9h11.5l-9.3 6.7 3.6 10.9 -9.3-6.7 -9.3 6.7 3.6-11 -9.3-6.7h11.5Z"/></g></g></svg>