<svg viewBox="0 0 640 480" xmlns="http://www.w3.org/2000/svg" xmlns:xlink="http://www.w3.org/1999/xlink"><defs><path d="M663.9 587h-.001c-2.91 3.14-6.09 6.02-9.5 8.6 -21.2-22-46.2-46.2-69.9-46.2 -14.7 0-25.2 11.2-37.6 19 -17.1 11-40.6 17.2-60.7 9.1v0c-11.37-3.9-21.47-10.81-29.2-20h-.001c17.26 10.76 38.63 12.62 57.5 5 19.7-8.2 39.9-19.1 62.4-19.1 33.2 0 64.8 22.5 87 43.6Zm-245.6-69c22 25 57.9 17 87.2 23.2 4.1 1 8 2.3 12.4 1.6 -3.5-2.2-8.2-2.5-12.2-4 -22.8-8.6-26.3-33-38.8-49.7 16 10.6 29.1 25 44 38.7v0c10.5 8.68 23.2 14.29 36.7 16.2 -3.2 1.2-7.4 1-11 1.8 -24 6-50.6 15.4-76.2 7v0c-17.86-5.96-32.84-18.37-42-34.8Zm-35.2-58c13.7 31.1 48.2 33.6 71 52.6v0c4.08 3.63 8.62 6.72 13.5 9.2l.3-.2v0c-5.64-4.92-10.71-10.45-15.1-16.5 -13.1-19-8.8-45-18.9-65.2h-.001c9.38 10.42 17.16 22.18 23.1 34.9 8.5 20.2 11.4 43.3 30.5 58.7 -20.7-6.8-44.5-5.5-63-17.6 -19.6-12.8-37.7-33-41.4-55.8Zm-14.7-62.8c2 27.4 31 42 45 64.5 3 4.8 6 9.8 10.3 13.6 -.7-2.9-3-5.5-4.4-8.3h-.001c-4.6-10.11-6.42-21.26-5.3-32.3 1.3-14 7.1-27 4.9-41.7 12 25.9 8.1 58.2 15 86.1 1.6 6.2 5.3 11.6 7.6 17.5 -11.7-9-27.1-17-40-27v0c-12.87-9.25-22.91-21.89-29-36.5h-.001c-3.93-11.54-5.33-23.78-4.1-35.9Zm.8-50.4c1.4-6.1 2.5-12.4 5.1-18 -5 25.8 12.2 44.4 18 66.8 2.2 8.4 3 17.3 6.4 25.2 .3.1.6-.2.8-.4 -8.5-23.8 4-45.8 16-64.5v0c2.94-5.14 5.03-10.71 6.2-16.5 1.3 10.8-1 23.2-3 34.3 -2.5 14.3-7.4 27.7-11.3 41.5h0c-2.12 8.99-2.29 18.33-.5 27.4l-1.3-1c-9-16.6-26.8-29.6-32.1-47.8h0c-5.07-15.12-6.54-31.22-4.3-47Zm9.5-27.8v0c.32-18.37 7.04-36.05 19-50 .3-.2.6-.5 1-.4 -12.6 19-1.1 43.2-2.8 64.9l-1.6 22.2c.2.2.2.9.8.6 .8-2.5 1-5.1 1.4-7.7 3-18 18.8-30.4 32.1-43v0c3.07-2.91 5.46-6.46 7-10.4 -1.1 9-3.6 18.1-7.6 26.2 -10.3 20.8-30.1 37.6-33.7 61.3 -1.7-22.7-15.6-39.6-15.6-63.7Zm33-65.9v0c5.74-6.92 13.39-11.99 22-14.6 -16.5 11.3-15.6 31.4-20.6 48.2 -1.8 6.1-4.5 11.9-6 18.2l.5.4v0c2.94-7.57 7.56-14.37 13.5-19.9 11.5-10.8 28.8-17.4 34.5-33.3 -.3 22.1-19.1 38.9-36.3 51.9v0c-7.66 5.77-13.89 13.23-18.2 21.8 .6-6 1-11.2.4-17.1 -1.8-19.3-3-41 10.3-55.6Zm66.5-37.1c-12.1 10.7-20.2 24.4-29.6 36.7 -7.7 10.3-18.4 16.6-27.5 25.2 5-10.2 5.8-22 12.1-31.9 10.7-17 28.5-23.6 45-30Z" id="a"/></defs><path fill="#4B92DB" fill-rule="evenodd" d="M0 0h640v480H0Z"/><g transform="matrix(.6 0 0 .6-40.6 0)"><g fill="#FFF"><use xlink:href="#a"/><use transform="matrix(-1 0 0 1 1202.2 0)" xlink:href="#a"/></g></g><g fill="#FFF"><path d="M409 262l-2.1-1.2v0c-4.57 9.37-10.61 17.95-17.9 25.4l-12.5-12.6v0c6.04-6.25 11-13.44 14.7-21.3l-2.1-1.2v-.001c-3.62 7.68-8.48 14.71-14.4 20.8l-11.4-11.4v0c4.82-4.99 8.75-10.78 11.6-17.1l-2.1-1.2v0c-2.75 6.14-6.54 11.75-11.2 16.6l-12.5-12.5v0c3.43-3.66 6.15-7.94 8-12.6l-2.1-1.2v0c-1.75 4.44-4.33 8.51-7.6 12l-11.5-11.4v0c3.22-3.6 5.13-8.18 5.4-13h16.2v0c-.13 4.24-.97 8.43-2.5 12.4l2.1 1.2 0 0c1.72-4.34 2.67-8.94 2.8-13.6h17.8v0c-.19 7.62-1.89 15.13-5 22.1l2.2 1.2v0c3.27-7.34 5.04-15.27 5.2-23.3h16.2 0c-.18 10.72-2.64 21.29-7.2 31l2.1 1.2v0c4.72-10.09 7.25-21.07 7.4-32.2h17.9 -.001c-.17 14.1-3.45 28-9.6 40.7l2.1 1.2v0c6.54-13.4 9.96-28.1 10-43v0c.01-12.72-2.44-25.32-7.2-37.1l-2.2 1v0c4.48 11.09 6.85 22.93 7 34.9h-17.9v0c-.11-9.6-1.98-19.09-5.5-28l-2.2 1v0c3.42 8.59 5.25 17.74 5.4 27h-16.4v0c-.12-7.05-1.47-14.03-4-20.6l-2.2 1h0c2.39 6.26 3.68 12.89 3.8 19.6h-17.6v0c-.12-4.31-.93-8.56-2.4-12.6l-2.2 1 -.001 0c1.34 3.72 2.08 7.64 2.2 11.6h-16.2v0c-.27-4.83-2.18-9.41-5.4-13l11.5-11.5v0c3.47 3.68 6.16 8.04 7.9 12.8l2.2-.9v0c-1.85-5.06-4.71-9.69-8.4-13.6l12.6-12.6v0c5.3 5.52 9.45 12.05 12.2 19.2l2.2-1v0c-2.91-7.42-7.26-14.19-12.8-19.9l11.5-11.4h0c6.96 7.19 12.43 15.68 16.1 25l2.2-1 -.001 0c-3.83-9.59-9.5-18.32-16.7-25.7l12.6-12.6v0c8.81 8.99 15.78 19.62 20.5 31.3l2.2-1v0c-4.99-12.29-12.41-23.45-21.8-32.8v0c-9.41-9.46-20.64-16.91-33-21.9l-.8 2.3v0c11.66 4.68 22.3 11.61 31.3 20.4l-12.6 12.6v0c-7.27-7.04-15.83-12.61-25.2-16.4l-1 2.2v-.001c9.12 3.69 17.44 9.12 24.5 16l-11.4 11.4 0-.001c-5.49-5.31-11.94-9.52-19-12.4l-.8 2.2h0c6.68 2.76 12.79 6.77 18 11.8l-12.5 12.6v-.001c-3.5-3.31-7.57-5.95-12-7.8l-.9 2.3v0c4.13 1.71 7.92 4.14 11.2 7.2l-11.6 11.4h0c-3.6-3.23-8.18-5.14-13-5.4v-16.2l0 0c4.57.14 9.08 1.12 13.3 2.9l.9-2.2v0c-4.51-1.9-9.32-2.95-14.2-3.1v-17.8 0c7.09.11 14.11 1.53 20.7 4.2l.9-2.2v0c-6.87-2.79-14.2-4.28-21.6-4.4v-16.2 0c9.43.14 18.75 2.04 27.5 5.6l.8-2.2v0c-9-3.64-18.6-5.57-28.3-5.7v-17.9h-.001c11.96.14 23.8 2.51 34.9 7l.8-2.3v-.001c-11.74-4.68-24.27-7.05-36.9-7v0c-15.35-.04-30.49 3.53-44.2 10.4l1 2v0c13.05-6.48 27.42-9.9 42-10v17.8l0-.001c-11.7.14-23.22 2.91-33.7 8.1l1.1 2v0c10.14-5 21.28-7.67 32.6-7.8v16.2 -.001c-8.68.16-17.21 2.2-25 6l1 2.1v0c7.49-3.62 15.68-5.56 24-5.7v17.8 0c-5.44.17-10.79 1.47-15.7 3.8l1 2v0c4.61-2.13 9.61-3.28 14.7-3.4v16.2 0c-2.41.13-4.78.67-7 1.6l1 2v0c2.29-.9 4.73-1.34 7.2-1.3l-.001 0c5.01-.02 9.84 1.95 13.4 5.5l-.001 0c3.62 3.59 5.64 8.49 5.6 13.6v0c0 10.49-8.51 19-19 19l0 0c-5.04-.01-9.86-2.03-13.4-5.6v0c-3.58-3.55-5.6-8.37-5.6-13.4v0c-.02-5.07 1.99-9.94 5.6-13.5v0c1.77-1.77 3.88-3.16 6.2-4.1l-1.1-2.1v0c-2.2.92-4.23 2.2-6 3.8l-11.4-11.5v0c2.92-2.75 6.26-5.02 9.9-6.7l-1.1-2v0c-3.85 1.76-7.4 4.12-10.5 7l-12.6-12.6v0c4.36-4.19 9.35-7.67 14.8-10.3l-1-2v0c-5.66 2.74-10.86 6.35-15.4 10.7l-11.5-11.7v0c5.68-5.51 12.19-10.1 19.3-13.6l-1-2v0c-7.36 3.6-14.1 8.32-20 14l-12.6-12.7 -.001 0c7.16-6.96 15.35-12.76 24.3-17.2l-1.1-2.1v0c-19.31 9.7-34.93 25.43-44.5 44.8l2 1v0c4.52-9.15 10.46-17.52 17.6-24.8l12.7 12.7v0c-5.92 6.07-10.81 13.06-14.5 20.7l2 1.1v-.001c3.57-7.46 8.33-14.28 14.1-20.2l11.5 11.4v-.001c-4.66 4.83-8.48 10.4-11.3 16.5l2 1.1v0c2.74-5.89 6.46-11.26 11-15.9l12.6 12.6 0 0c-3.29 3.43-5.93 7.43-7.8 11.8l2.1 1.2 -.001 0c1.73-4.18 4.2-8.01 7.3-11.3l11.5 11.4v0c-3.25 3.62-5.15 8.24-5.4 13.1h-16.2v0c.12-4.54 1.07-9.01 2.8-13.2l-2-1.2v0c-1.96 4.55-3.05 9.44-3.2 14.4h-17.8v0c.13-7.91 1.9-15.71 5.2-22.9l-2-1v-.001c-3.51 7.49-5.41 15.63-5.6 23.9h-16.2v0c.17-10.99 2.73-21.8 7.5-31.7l-2.1-1.1v0c-4.93 10.24-7.56 21.43-7.7 32.8h-17.9 0c.17-14.34 3.55-28.45 9.9-41.3l-2.1-1.1h0c-6.71 13.55-10.2 28.47-10.2 43.6v-.001c-.01 9.44 1.34 18.83 4 27.9l2.3-.6v0c-2.49-8.49-3.8-17.27-3.9-26.1h17.9 -.001c.08 7.35 1.19 14.65 3.3 21.7l2.3-.6v-.001c-2.09-6.85-3.2-13.95-3.3-21.1h16.3 -.001c.09 5.83 1.03 11.63 2.8 17.2l2.4-.6v0c-1.74-5.37-2.69-10.96-2.8-16.6h17.6v0c.12 4.16.9 8.27 2.3 12.2l2.3-.6h0c-1.34-3.73-2.09-7.65-2.2-11.6h16.2v0c.26 4.82 2.17 9.4 5.4 13l-11.5 11.5v0c-3.49-3.72-6.18-8.11-7.9-12.9l-2.3.6v0c1.85 5.21 4.78 9.98 8.6 14l-12.7 12.6v0c-6.03-6.31-10.55-13.9-13.2-22.2l-2.4.6v0c2.81 8.73 7.6 16.71 14 23.3l-11.4 11.5v0c-8.41-8.68-14.61-19.24-18.1-30.8l-2.3.6h0c3.59 11.97 10 22.91 18.7 31.9l-12.5 12.6v0c-11-11.24-19.07-25.02-23.5-40.1l-2.4.6 -.001 0c4.66 15.88 13.26 30.32 25 42v0c7.93 7.97 17.16 14.53 27.3 19.4l1.2-2.1v0c-9.61-4.56-18.4-10.68-26-18.1l12.6-12.6v0c6.45 6.22 13.93 11.29 22.1 15l1.2-2v0c-8-3.63-15.3-8.6-21.6-14.7l11.4-11.4v0c5.28 5.07 11.45 9.14 18.2 12l1.2-2.1v0c-6.57-2.75-12.57-6.68-17.7-11.6l12.6-12.6v-.001c4.02 3.77 8.79 6.67 14 8.5l1.1-2.1v0c-4.99-1.73-9.56-4.49-13.4-8.1l11.5-11.5v-.001c3.59 3.22 8.17 5.13 13 5.4v16.2 0c-3.75-.12-7.46-.79-11-2l-1.3 2v0c3.94 1.44 8.09 2.25 12.3 2.4v17.8 0c-7.25-.13-14.41-1.62-21.1-4.4l-1.2 2v0c7.05 3.01 14.62 4.64 22.3 4.8v16.2l-.001-.001c-10.47-.16-20.78-2.48-30.3-6.8l-1.2 2v0c9.88 4.56 20.61 7.01 31.5 7.2v17.8 0c-13.92-.15-27.64-3.33-40.2-9.3l-1.2 2v0c13.29 6.38 27.85 9.69 42.6 9.7 15.8 0 31-3.7 44.6-10.6l-1.2-2.2h-.001c-13.09 6.65-27.53 10.21-42.2 10.4v-17.9 0c11.81-.17 23.43-3.01 34-8.3l-1-2.1v0c-10.26 5.13-21.54 7.86-33 8v-16 0c8.9-.21 17.64-2.39 25.6-6.4l-1.1-2.1v0c-7.63 3.79-15.99 5.84-24.5 6v-17.8 0c5.65-.16 11.21-1.53 16.3-4l-1-2.2v0c-4.78 2.34-9.99 3.63-15.3 3.8v-16.2 0c4.82-.27 9.4-2.18 13-5.4l11.5 11.5v0c-2.77 2.55-5.91 4.67-9.3 6.3l1.1 2.2v0c3.62-1.76 6.96-4.05 9.9-6.8l12.6 12.5v0c-4.23 4.07-9.05 7.47-14.3 10.1l1 2.1v0c5.5-2.72 10.56-6.26 15-10.5l11.4 11.4v0c-5.61 5.44-12.02 9.99-19 13.5l1.2 2.1 0-.001c7.17-3.62 13.74-8.3 19.5-13.9l12.5 12.6v0c-7.06 6.88-15.12 12.64-23.9 17.1l1.2 2.2v0c9.35-4.76 17.89-10.97 25.3-18.4v0c7.81-7.81 14.27-16.87 19.1-26.8Z"/><path d="M325.7 196h-.6v.7h.6Zm-1.5-1h.8v.6h-.8Zm-1.4-.2l.6.1 .1-.6h-.7Zm-.6-.2h-.7v-.7l.8.1Zm-5.8-.8h.8v.6h-.8Zm-1.7 1.2l.7.1v-.6h-.6Zm0 1l-.7-.3v-.6l.9.3Zm-1.4.7v-.6l.5-.1 .1.6Zm-78.6 61.6v-.5h-.5v1h.8v1.3h.6v-1.5Zm7.5 9l-1-1 -.9-1.1 -.4-1 -.7-1.8 1.5.8 .5 1.4 .7.5 .7 1.5Zm20.7 27.1l-.1-.9 -.9-1.2 1.3.2 1.2 1.1 .6 1.3 -.8.4 -.3-.6Zm54-91.9h-1l-.3-2.2 .6-.4v-1.1h-3.5v-1.1l.4-.3 -.8-.3 -.6.8 -.2.9 -1 .2v.5h-.7v1.3l-2.8 2.3 -5.6-.2c-.3 1-1.3 0-1.3 0 -.3-.7-1.6 0-1.6 0 0 1-2-.6-2-.6l-3.4-2.5c-2-1.8-5 .5-5.1 1 0 1.4-2.3.3-2.3.3s-2-.6-2.3.2c-.3.8-1.6.6-1.6.6l-.2.4 -1 .2 -.2.6 -1.2.2h3c.8-.2-.3 1.7-.8 1.6H280l-.5.6h-1.3l-.6.8 -1.9-.1s-1 .9-1 1.2c.1.3-.2 1.2-.5 1.2s-.9 1-.7 1.2c.2.3-.6 1.3-.6 1.3l-.2 1 -.6.3v2.7l-1.2.8v1.2l-1.8 2 .2 1.5 -1.5 1.7 .2 1.6 -.9.3 -.2.7 -.4 2.1 1 .1c.5-.2.4 1.3 0 1.6 -.4.2-1.5.6-.9 1s-1.6.3-1.6-.3c0-.7-1.2-1.2-1.5-1 -.3.2-.8-.9-.8-.9 -1-1-4.4.1-4.4.1l-.5 1.7c-1.1.1-1.8 2-1.8 2 -1 .3-1.6 1.4-1.3 1.7 .3.3-.5.4-.5.4v2.2l-.5.7v2.5c.7 0 .6 1 .6 1 -1 .2-.8 1.5-.8 1.5l-2.1.7 -.4.6h-2.6l-.7.6 -.7-.7h-5l-.2-.5 -1-.2v-1.1h-1.6l-.3.7 -1.6.1c.1 1-1.6 2.5-1.8 2.1 -.2-.4-1.3-1.5-.8-1.7h0c.58-.18 1.19-.31 1.8-.4v-.7l-3.7-.1 -.4.6 -1.5.1v1.6l-.7.2c-.5.3.1 1.4.1 1.4 .7.7 0 1.9 0 1.9 -.7.6.4 1.7.4 1.7 .8.2-.5.8-.5.8 .2 1 .8 1.3.8 1.3 -.6 1 .4 1.5.4 1.5l.1 1.7 .7.4v1.2l.4.7h1.6v-2.6c-1.5-1.6 1.1-2 1.2-1.4 .1.6 1.2 1 1.2 1 .2 1.5 2 2.4 2.4.8 .5-1.5 1-.6 1.2.1 .3.8 2.2 2.5 2.2 2.5h1.5l.2 1.4c1.7-.1 2.2 0 2.9 2.4h-.001c.34 1.35 1.3 2.47 2.6 3l1.4-.1c0-1.3 1.4.2 1.4.8 0 .6 2.7 2.9 2.7 2.9l2.7.6 2.5 2 1.9-.2h.8c.5-1.7 2.9.1 3 .7 .2.6 1.8 1.7 2 1.2 .2-.5 1.3-.2 1.5 1.3 .2 1.5 1 1.2 1 1.2l5.6-.1 2-1.7 5.1-.1c2.6-.1 1-3.7.5-3.7 -.9-.7.3-3.6.3-3.6l-7.3-6.8c-1.7 0-.2-2.4-.2-2.4 1.3-.8-.3-2.2-.3-2.2 .2-1.2-.7-2.6-.7-2.6 -1.8-1.2-1.3-3.5-1.3-3.5V245c-1.5-1.4.6-1.6.6-1.6 .7-1.2-.5-2.1-.5-2.1V240l-1.7-.2 -.2-4.8 -3.6-5.1c-.7-.2-.2-1.5-.2-1.5 1-.5-.2-1.7-.2-1.7v-2.2l2-.2 .5-.8h1v-2.6c.4-1.4 1.6-.7 1.6-.7l1.4.1 .8-1.5 .2-1.2h-1c-1.3-.8-.7-3.4-.7-3.4 2-2.9 4.1-1.2 4.1-1.2l1.4-.1c2.1 1.4.2 4 .2 4 -.4.6-.2 2.5-.2 2.5l.5 3.3 -1.3 1c-1 .7-1 2.1.1 2.4 .8.1.5 2-.7.7 -1.8 0 1 1.6.2 1.2 1.8 1 1.4-.8 1.4-.8l2.4-1.9c1-.7 2.5 1.5 2.5 1.8 0 .3 4 .1 4 .1 1 .7 1.5 2.6 1.5 2.6 1-1.5 3.4-.1 1.7.7 1.6 1 1.6 1.9 1.6 1.9 1.3-.4 1.3.6 1.3.9l.4-1.5c-1.5-1.1 2-1.5 1 .5l-.6.9 1 .8v2.3c2.3-.2 1.7-2.9 1.7-2.9l1-.2c0-1 .7-.4.7-.4 -.7-3.4 1.6-4 1.6-4 1.3-.4 1.4-3.1 1.4-3.1 -1-.4-.4-1.8.6-.6 1 1.2-.6-2.4-.6-2.4l-.8-.7 -1.1-.1 -.1-1.1h-1.8l-.3 1.4 -.7.2 -.2-.4 -.3 1h-1.8l-.1-1.1 1-.3 .5-.6 .3-1.7h1.3l1.7-.5c0-1.7 1-1.3 1-1.3l.6.5 .9.7v.6l-.5.3 -.1.8 .3 1.2h.7c.3-1.7 2.4-1.7 3-.6l.6-1.5c-1.4-.7 0-1.8.4-1.3s1.3-1.3 1.3-1.3 .7 1 0-.3c-.7-1.2.5-1.8.5-1.8 -.2-1.2 1.3-1 1.3-1l.1-1.7h-1.4c-.3 1.4-1.5.1-.9-.2 .6-.3 1.2-.9 1.2-.9v-1l.6-.2 .1-1h1.5l1.3-.6 .3-.5 1.4-.1 2-1.8 -.2-.8c-1.2 0 0-1 0-1l.2-1.5Z"/><path d="M276.7 222.6l-1.8-.2 .1.7h.5c.8 1.4.1 4.8.1 4.8s-1.2.1-1.4-.5c-.2-.6-.7 1.3-.3 1.7 .4.3 1.8 0 2 1 0 1.2.8-.6.8-.6v-7Z"/><path d="M276.7 231.2l.6-.1 .1-.7 -1.5 1 -1-.6v2.4l1.6 2.1 .6-1.4 .2-.9 -.7-.3Zm.8 6.4v-1h-.7v.9Zm-.9 4.8v-.7l-.8.1v.7Zm1.2-3.1v0c.24 0 .45-.21.45-.45 0-.25-.21-.45-.45-.45v0c-.23-.01-.41.16-.42.38 -.01.03 0 .07.01.11 0 .2.2.4.4.4Z"/><path d="M278.5 240.6a.4.4 0 1 0 0 .8 .4.4 0 1 0 0-.8Z"/><path d="M278.5 229a.4.4 0 1 0 0 .8 .4.4 0 1 0 0-.8Z"/><path d="M312.4 214.5l-1-.1 -.3.5h-.5v.8h.5l.1.6 -.4.4 -.2.5 -.8.2 -1.8 1.7v.8l-.6.7 -.6 1.6h-2l-.5 1.9 .3 1.5 1.8.7 .2-1 .6-.3 .1-1 .4-.7 .6-.7 .2-.8 1-.6 1.2-.3 .5-.6 .2-1.2v-.9l.5-.6 1.2-.5v-2h-.6Zm2.8 6.9v-1.5l-.2-1.3 -1.5-.7 -1 1 -.3 1.4v1l-1 .2 -.2 2.7 -.8.3 .1 1 -1 .3 -1.2.3 -.2 1.3 -.8.5 -.4 1.3 -.5 2.9s1 1.7 1.4.9c.5-.8 1.3-1 1.3-1l.3-.6h2.7c.2-1 1.5-.6 1.5-.1s1 0 1 0l.7-1h1.1l.1-1.3 .5-.3V227c1.6-.5 1.4-2 1.4-2l.4-.5 -.2-.7c-.8-.3-.4-1 .1-.8 .5.2-.7-1-.7-1 -.6.6-1-.5-1-.5h-1.6Zm1.6 12.2c0 1.2-1.6 1.6-1.6 1.6l-1-.3 -.7-.5V233l.8-.1 .2.6 2.3.1Zm5.4-6.5c.2 1 .2-1.4.6-1.3 .4.1.1-1.4.1-1.4l-1.8 1.3c.9.1 1 1 1.1 1.4Zm5.3-5.2c.4.9.3 2.2 1.8 3.2 .5.3-.3 1-.8.7v0c-.76-.76-1.43-1.6-2-2.5V222c.4-.8.8-.5 1-.1Zm.3 31l.3.5 .7-1 -.6-.3 -.7.5ZM325 251v1.2m14.4-2.6l.8-.5 -.3-.6 -.8.5Zm28.9 21l.9.5v1.7c1.3 1.2 5.2.2 5.2-.1l-.2-3.8 -.5-.5 -.1-2.5c.4-1.3-2-3.2-2.1-2.8 -.2.4-1.5 0-1.5.5 0 .4-.8 2.4-.4 3.1 .4.7-.3.7-.4 1.4 -.1.7-1.1 2-1 2.6Zm-2.2-4c-.2.8-1 1.2-1.3 1 -.4-.4.5.4.7.8 .2.4.8.4 1 0 .2-.4 0-1.3.3-1.7 .2-.4-.6-.5-.7 0Zm-4.7-18.6h.7v2h-.7Zm10.4-19.4c-.5-.6 2-1.7 2.4-.4 .4 1.2 0 1-.4.9 -.4-.1-1.4.3-2-.5Zm2.1-13.6v.6l1 .2 .1-.6Zm-4.5 1.6l.8.5h.3l.6-.4v.2l.6-.2 -.2-.5v-.3l-.4.1 -.7.5 -.7-.5ZM375 192h-1.5s.5.2-1-1.1c-1.3-1.3-2.2.3-2.2.3l-1.6.2v1.6l-.8.3v1h1.2s0 1.1.3.6c.3-.5 2.8.1 2.6 1.4 -.1.5 2.5 1.8 2.2 3.4 1.3.2 1 1.5 1 1.5l1.7.2 .5-1 .5.1v-.6l-1.1-.3 -.2-3.3 -.7-.5 .2-.8 -.8-.3 .4-1.3 -.7-1.4Zm4.3 10.3h-.8l-1.8.2 -1 2s.5.3 1 1c.3.7.5 4.8-.7 5.5 -1.2.7.1.3.1.3l-.2 2.3c.3 1 .8.5 1.1 0 .3-.5.6-.6 1-1.1 .4-.5 1-1.5 1.1-2.2 .1-.7.6-1.8.3-2.1 -.3-.3.3-1.7.3-1.7s.4-.8 0-1.6 .1-1.8.4-2.2l-.8-.4Zm1.2 4.2l.1-.8h.6v.8Zm0 2.8l-.5-.3 .3-.6 .5.3Zm-.9-8l-.4-1s0-.8.2-1.2c.2-.4-.4-.8-.7-1 -.3 0-.2-.8-.3-1.2 0-.4-.8-.7-.8-.7l-.2-1.9c0-.3-.9-.7-.6-1l.8-.9c.3-.2-.3-1.6.2-1.3 .5.3.5.8.7 1.2 .2.4 0 1.8.4 2.1 .5.3 0 1.4.7 1.4 .8 0 .3 1.9.3 1.9s-.2 1.4.3 1.5c.5.1.2 2.5.2 2.5l-.8-.5Zm-6.4-16.5c.3.4.9.7.9 1.1 0 .4-.2.7.4.8 .6.1 1 0 1.2.4 .2.5.2 1.4 0 1.8 0 .4.2 1 .7 1 .5 0 .6 0 .6.4 0 .3.6-1.1.6-1.1 -.5-.4-1-1.3-1-1.3l-.4-1.7c0-.2-.7-.4-1-.5 -.3 0-.8-1-.8-1l-1.2.1Zm1-.9c-.3-.4-.6-.7-1-.9 -.4-.2-.7-.4-1.1-.4v0c-.39-.02-.69-.35-.67-.74 0-.1.02-.19.06-.27 .2-.4-.3-.6-.3-1s.3-.4.8-.1c.5.3.4.4.8.9s.6 1 1 .9c.4-.1.7.9 1 .6 .5-.3.4.7.4.7l-1 .3Zm-11.7 11.4c.5.6-3 .4-3 0s.3-1.8 1.2-1.5c.9.3 1-1.8 1-1.8s-.8.1-.1-.3c.7-.4 0-1-.3-1.3l-.6-.8h1.4c.6-.4.8-2.3.8-2.3 1.2.4 1.8-.5 1.8-.5l.6 1.2c.4.5-1 .7-.5 1 .5.3.7 1.2.5 1.5 -.2.3-1.3 0-1.3-.3s-.4.5 0 1 -.5 1.2-.7 1.2c-.2 0-1.5.2-.4.8 1 .6 2.3.3 2.3.3s.9 0 1.2.4c.3.5-.1.6-.6.6l-3-.2s-.6.7-.3 1Zm-6.4 1c.5-.1 1.7-.2 2 0 .1.4-.8.8-.8.8l-1.2.2c-.4-.5-.5-1 0-1Zm12.9-8.5c.8-.4 2.5-.4 2.4-1 -.1-.7 1-.9 1-.9l.3 1.2 .9.7v1l-.7.2c-1.1.3-.4.8-.4.8H370l-.3-1 -.8-1Zm-4-5.5c.7 0-.1 2.3 1.5 2.1 1.6-.2 0 .7 1.3.8 1.2.1.9-.9 1.3-1.6 .4-.7.2-1.1-.5-1.3 -.7-.2-.7-.2-1-1 -.1-.8-1-1-1-1l-.2-1.2 -1.3.8 -1.3 1.7c0 1.3.7.7 1.3.7Zm2.7 8.5l.3-.6 .6.3 -.3.6Zm-1-1h.6v.8h-.6Zm.5-13.4v.9h-.5l-.1-.8Zm-1.7 9.4h.6v.5h-.6Zm-1.6 0v-.6h1v.5Zm-8.2 9.8l-.6-.3 .3-.7 .6.3Zm-3.2-1.9v-.6h1v.5Zm-17.3-.2l-2.2.1v.6h2.3Zm-3.6.9l-.2-.9 .6-.1 .2.9Zm-.4.6l-.2-.5 .3-.1 .2.5Zm5-1.7l-.1.7 1 .1s.5.4.5.7c0 .3.7.6 1.1.6 .4 0 1.5-.8 1.5-.8s.5-1.4.1-1.3c-.4.1-1.2.7-1.3.1 0-.6-1.3-.3-1.3-.3l-1.6.2Zm5-1c0 .2-.3.6.3.7 .6.1 1.7-.4 1.8.2 .1.6.1 1 1 1.3l-.001 0c.57.24 1.18.37 1.8.4l2-.2s1.3.3 1.6.5c1.1 1.2 1.8 1.5 2.1 1 .3-.5 0-1.7-.2-2 0-.5-1.5-2.4-2-2 -.5.4-.6 0-1.5.3s-2.8.1-2.9-.3c0-.4-1.5-.6-1.5-1s-1-1-.9-.3c.1.6-.7.9-.9.7 -.2-.2-.8.6-.8.6Zm22.9-13l.7-2.3c-1-.2-.8-1.3-.8-1.3 -.1-1-1.5-2-2-1.6 -.5.3-.3-2.1-.3-2.1s.9-.6 1.3-.3 -3.4-5.1-4.2-4.6c-.8.5-2.6-.5-2.5-1.4 .1-1-3.6-4-3.6-4s-1.2-.8-1.4-.2c-.2.6-.6 1 0 1.4 .6.3.5-.5 1.2.2s2 1.6 1.5 2.2c-.5.6-1 .8-1 .8l.6.8h1.1l.2 1.7s1.2.6 1.5 1.3c.3.7.3 1.1 0 1.6 -.3.4-.9 1-.8 1.8 .1.7 1 1 1 1h.7l.6.4v1.3c.8-.2 2.1 1 2 1.6 0 .7.2.3 1.2 1s.7.8 1.4 1.4c.7.5 1.3.2 1.6-.8Z"/><path d="M347.5 165.6c0-.4-.3-1.8.3-1.7 .6 0 .2 0 1 .3s.7-.5.7-.5h1.1l1.4 1 -.2 1h-1c-.5-.7-1.5-.4-1.3.3 .2.7-.5 2-.9 2.1 -.4.1-1.7.1-1.6-.5l.5-2Zm-.8-2.7v-.9s0-.8-.6-.8 -1.4-.6-1.2-1c.2-.4-1.7-.8-1.7-.8s-1.7-1.6-1-1.4c.5.2.2-.7.2-.7s-1.2.2-1.5 0c-.3 0-.2-1-.2-1s-1.2-.2-1.2 0 .4.4.6 1c.2.6.1 1.6 1 1.8 1 .2 1.1.4 1.2.8 .1.4 1.2.5 1.2.5l.8.4 2.4 2ZM336 152.5l-.3-.8 -.8-.2v1Zm-.3-4.2c-1-.8 1.4.6 1.4.6 .8 0 1.3.6 1.3.9 0 .3 1 .2 1 .2l.1-.7 -.8-1 -.7-.5s-1-.1-1-.4c0-.3-1 1.2-1.4.9Zm18.3.6c-.3.9-.4 2.1-.9 2.1s-.3 1.3-.3 1.3l1.7.1c.4.1.4 1.1.4 1.1 1.5 0 2.1 2 2 2.5 -.3.5.5.5.5.5s0 1.6-.2 2c-.2.4 1.3.7 1.7 1.3 .4.6-.2 2.6-.5 2.7 -.3.2.8.5.7 1 -.1.5.3 0 .4.8l.3 2.5 1.4.1c.2-1.3 2.8-1.4 3.2-1.2 1.7.6 3 3.2 3 3.8 0 .6-1.1.7-1.1.7l.2 3c1.7.5 3 3 2.9 3.3 -.2.4 1.2.3 1.2.3 .2-1.8 1.9-1.2 2-.6 0 .6.4 2 .4 2l.5.8 .7.7h1l.4.6 1.2.2s1.1 1.2 1.2 1.5c.1.3 1.6.2 2 .3 .4 0 1 .4 1.1.9 .1.5.7 1.3.7 1.3s1.2.3 1.3.7l.6 1.3 1 .8 .1 1h1.1l.3 1.3 1.8-.1 1-.7v0c.92-.46 1.71-1.15 2.3-2 .1-.5.3-2 1.3-1.7 1 .3.3-2.2.3-2.2s-1.4-1-1.3-1.5c.1-.5-1.4-1.5-1.3-2 .1-.3-1.3-1.2-1.2-1.6 .1-.4-.7-1.5-.7-1.5L387 175l-.2-1h-1.2l-2.4-3 .1-.8h-.7V169l-.7-.4h-1l-2.3-2.5 -.2-1.1h-1l.2-2.1c.7-1 .3-2.7.3-2.7s-1.4.7-2.1.4c-.7-.3.3-1 .3-1v-.8l-.6-.6s-1.7.2-1.8-.1l-.4-1.6 -.1-1.7 -.7-.3 -.1-.7 -1.1.1v-1.2l-.6-.2 -.6-.3 -.1-1.2 -2.2-.1 -.7-1 -.8-1.2 -2.5-.2 -.6-.6 -1-.2 -.7-.3 -.3.5h-2v.7c-1 .5-5 0-5 .4Zm10.5-2.7c-.2-.7 2-1.5 2.5-.9s1.9.7 2 3.8c.1 1-1.7-1.1-1.7-1.1l-1.5-.5c-.8-.2-1.2-.7-1.3-1.2Zm-29.3 1.3l-.5-.3 .4-.9 .5.3Zm-5.1-10l-1.3-1.3v-1l-.4-.5 -.4-1.4 -1.3-.4 -1.3.5 -1.4.9 -1.5.2 -.8 1 3.2.2 .6 1 2.3.2 1.5 1.5c1.3.5 1.6-.2.8-.9Zm-.2-5c-.2-.8-1.5 1.2-.2 1.6 1.3.4 2.6 0 2.6 0l.3-.6 5 .1c.4-.4.6-1 .6-1s1.2-.4 1.7-.2 0-1.4-.4-1.2c-.5.2-1.5 0-1.5 0h-1.8c-.1-.6-1.7-.3-1.8 0 -.1.5-.7.6-.7.6l-2.3.2c-.2.6-1.4 1-1.5.6Zm-9.9 17.2c1.5.5 2.1 0 2.2-.3 .1-.4.2-.5.8-.6 .6-.1-.1-1.3-.7-1.2 -.6 0-1.2-.2-1.3-.7 -.1-.6-1.1-1.9-1.2-.9 -.1 1-.7 1-.6 1.8 .1.7.4 1.7.8 1.9Zm-11.5 1.1c0-.4 2-.4 2.3-.1 .3.3.1.8 1 .8s.5.6.4 1c0 .2-1 .1-1.2-.2 0-.3-1.6-.4-1.6-.4s-.8-.6-.9-1.1Zm34-21.7l-.8.6 -.5-.5 -.5.5 .7.7 .2.2 .2-.2 1-.8Zm-5.5-1.8l-.7-.4 -.3.5 .8.5h.3l1.1-.7 -.3-.5Zm-3.3 20.8h-.1l-1-.1v.6h.8l.6 1 .5-.3 -.7-1Zm-33 28.2l.1 1.1h1.5c.6 0-.5-.7-.5-.7s-1.2.1-1-.4Zm2 0l.3-.4 .6.5 -.4.4Zm-18.2-18.9l.4-.4 .6.6 -.4.4Zm29 130.3l-1-.5 -.3.5 .6.3 -.2.2 .4.5 .5-.5 .3-.3Zm-7.8-7.3l-.4-.5 -.6.5 -.3.3 .4.2 .7.5 .3-.5 -.4-.3Zm74.2-19.2c-.1-.5-.7-.7-.8-.8l-.2.6 .2.1 .1.5 -.1.2 .4.4c.4-.3.5-.7.4-1Zm1-2h-1v-.9l1 .2Zm23-7.8c.5-.3 1-.8 1 .4 -.1 1.1-.6.7-1 1.1 -.3.4-.6-1.1 0-1.5Zm5.1-4.3v0c-.01-.04-.01-.07 0-.1v-.001c-.02-.25-.09-.49-.2-.7l-.5.3 .1.4c0 .2 0 .4.2.5 .1.1.2.1.4 0l-.1-.5 .1.1Zm-1.3.5l.4 1.2 .5-.2h-.001c-.13-.4-.23-.8-.3-1.2l-.6.2Zm-2.2 2.4h-.6c0 .4 0 1 .5 1l.2-.5 -.1-.5Zm-2.6-12v0c-.03-.23-.19-.43-.4-.5 -.4-.2-1.1.1-1.5.4l.3.5c.4-.3.9-.4 1-.4l.6-.1Zm-27.7-32.4c-.4.4-1.3.6-1.3.6l-.3 1 -.4.5v1c0 .7-1 1.1-1 1.1l-.4.5h-2.7c-1-.4-.3-1.6.3-1.5 .6.1-.1-1.7-.1-1.7l.8-.1s0-1.8.4-1.8c.3 0-.1-.6-.5-1 -.4-.3-1-1.3-1.3-1.2h-2l-.3.6 -1.1.2 -.1 1c-.6.8-3 2.3-2-.2l.4-.7v-.9h-1.8s-1-.4-1-.8v-.9l-2.1-2.3 -2.5-.3 -.2-.5 -1.5-.2c-1.8-1-3.4-.1-3 1.4 .2 1.5.7 2.1-.3 2.1s-1.2-.8-1.2-.8 -.8-.3-.8.1 -.3 1.2 0 1.6c.3.4-.4 1-.7.7 -.3-.3-1-1.2-.9-1.5 .2-.3-1.4-2.2.2-2.5 1.6-.3 0-1.2.5-1.4l.8-.4h.8l.5-.4 -1.3-.2 -.8-.1 -1.5-.1v0c-.84.5-1.48 1.27-1.8 2.2 -.8 1.5-2.7-.6-2-1.4 .7-.8-2.2-.1-2.7.3s-2 .2-2 .2c-.3.9-1.7-.1-1.3-.7 .4-.6.4-1 .4-1l-.5-.2 -.6 1.2c-1.3 0-1.7.8-1.5 1.3 .3.5-.4-.1-.6.6 -.1.7.2.7.7 1 .6.3-.3.3.1.8s1.6 0 1 .7c-.8.7-2.1.4-2.1.4 -.1 1-2 .7-2.2.4l-1.7-2.1 -2-.1c-.1-1.4 1-.7 1.4-1.8 .4-1.1.6-3 .6-3s-1.6 0-1.7.4c-.1.5-1.1.9-1.1.9s-.8.3-.5.7c.3.4-.6.6-.6.6s.1.6-.1.9c-.8.8-2.8 0-3.1-.2l-1.2-.5 -1.2-.8 -1.4.6 -.4.4h-1.5l-.1 1.2 2.7.3 .2 2.5 -1.1-.4h-.7l-.3-.6h-.6v2.1l.6.5 .5.5 1 .1 .2 1.3h2.5l.3.6h1.5l2.9 3 -.2 1 -.5.2c.2.7-1.3.3-1.3.3v.6l.7.1 .7.4 1-1.7c1-.7 1.6.3 1.7 1 0 .5-.5.4-.5.4v1.5l.6.2c1 1.2-.4 1.9-.4 1.9l-.3 1c-.3.9-1.4.7-1.4.7l-.4.6 -1.2.3 2.4.3c.2-.8.8-1 1-.6 .4.4.4 1.1.4 1.1l.6.1 -.1 1.1 .6.2v3.3l.7.8c1.2-.5 1.2.3.6.7 -.6.4-.2 2.2-.2 2.2l-.5.5v.8l-.6.4v1.2c-1-.5-2.2-.3-2.5 0 -1-.6-2.8-.4-2.8 0 .6.9-.7 1-.7 1l-.7.9c.5 1-.5 1.1-.5 1.1v2l-1.2 1v2.7c0 .7 1.6.8 1.9.4 .3-.4 1.5.8 1.5.8h.9l.2-1.8 -.6-.3v-3l1-1c1.2-.5.8 2.5.8 2.8 0 1.2.6 1 1 .8 1-.4.3 1.2-.5 1 -.8 0-.3 1-.3 1l.5.3 -1 .7 -.7.9 -1-.3 -1.2-.1 -.4-.7 -.7-.1 -.1 1.4 -.5.6 -1.2 1.2c1.6 0-.2 1.1-.6 1.1 .9.3-.1 1.2-2.4.5v.7l-.8.1 .7.9h.8l-.3 1.8c0 1.3-3.3.4-3.6 0v2h-.7l.1 1.2v1.7l1-.2v.7l2.7.1 3.9-4.1 2.3-.5c.2-1 1.2.2 1.2.2 1-.1 1.2.6 1.2.6l1.3.2c1 .3.4.4.5.8 0 .6.6.4.6.4l.2-1.3 .6.1 -.6-.7 -1.1-.5 -1.2-.5c-.8-1.1.2-1 1-.8h1.3s1.5 2 1.5 2.5 .7.6.7.6h.9l.3.6h.9l.3.6h1.8v-.9l-1.6-.3 -.1-1 -1.2-.3c-.4-1.7.3-2.2.8-1.4h.6l-.2-1.4 .7-.2 -.2-2.2 -.6-.2v-.7l2.5.1c-.2-1.3 0-1.9 0-1.9h.8v.5l3.1.3 2.2-2.5c-.1-.2.2-.3 0-.5 -.4-.3-.8 0-1.3-.3s0-2 0-2.5c-.2-.4 1.6-1 1.3 0 -.3.8 0 1.3 0 1.3 1.3-1.3 2.4 0 2.3.4 0 .3.7.6 1.2.3s1.1.9 1 1.5c-.3.6-2 .5-2.2-.1 0-.6-.4-.4-.6-.1 -.2.3-1 .5-1.6.2v0c-.05-.06-.09-.13-.1-.2l-2.2 2.5h.1c1.2.7.6 1.6.2 1.8 -.4.2-1 .2-1 .2l-.3.4 -2.6.2 -.2 1c-1.2-.1-1.7 1.3-1.4 2 .3.7 0 1.3 0 1.3l1 .5 1.5-.4c.2-1 1-1.2 1.8-1.8 .8-.6 2.1 1 1.7 1.9 -.4.8-.4 1.1-.4 1.1l.1 1 -1 .3 -.8.4v.5h-2.8l-.4.5 -1.3.1 -.4.7h-1s-1.4.8-.8 1.6c.6.8-2.5.7-3.2-.4 -.2 1-1.3 0-1.3 0l-1.1-.2 -.1-1.5c-.2-1-2.1-1-2-.3 0 .7-3.6.3-3.6.3l-1.2.5 -1.1.7 -.1.5 -1.8.2 -.8.4 -.3-.6h-.8l-.8 1c-2 .2-4 1.4-3.9 2 .2.4-.8 1-.8 1l-.9.2 -.6 1 -1.2.3 -.2 2.2 -.6.4v.9l-.7.2v.5h-1l.6 1.6 .8.4c1.4.2.8 2 .8 2h.8l.4 1.1 .8 1.7c.3 1.2 1.2.9 1.6.8 .4-.1.8 1.2.8 1.2l4 .1s-.2.4.5.6c.7.2 5.3.4 5.5.1 -.2-.9 2.5-1.1 3.6-.3 1 .8 2.6.3 2.6.3l1.5 1.8 1 2.3 1.7.5 1.2.3 .4 1.7h.9l.3 1.2c1 .8-.3 2.5-.3 2.5v2.3l.8.4 -.1.8 1.3 1.3h1.5l3.7 4.1 3 1 .5 1.6 .8-.1 .6-.5 2.4-.1 1.2-1.2 1.3-.2 11-9.4 -1-.6v-2.2c1.9-1.3 2-3.7.3-3.9 -1.3-.1-.7-1.5.5-1.7l.7-.3v-.9l2.3-2.1v-1.6l-5-4.2c-2.2-.8 0-5.7 1.5-5.6 1.5.1-.1-7.4-.1-7.4l-.8-.4 .2-2.5h-1.1l-1.8 2.4 -.5 1.6c-.2 2.1-6.4 1.7-6.7 1.4 -.3-.3-2.4-1.2-2.4-1.2s-1.6-1.3-1.9-1c-.3.5-1.7-.4-1.7-.1 0 .3-1.3-.8-1.3-.8l-2-.7 1.5-.3 -.3-1.2 2.6 1.3c.3.4 1.6.3 1.6.3l.4.5s.8 0 1.3.5c.5.7 3.1.2 3.1.2l.7.6 1.1.4h3.1l.1-1.9 .6-.6v-1.2l.6-.6v-1l.6-.2 .1-2.2 .5-.1v-4.9l-1.5-1.4c-.1.5-1.7.5-1.7.5s-.4.7-.7.7c-.3 0 .4 1 .2 1.5 -.2.6-1 .6-1 .6l-1.5.4 -.4.5h-1.6l-.2-1.3 1.8-.5 1-.5 .5-1c.1-1 1.3-.9 1.3-.9s2.3-2 2.4-2.8c.1-1 .9-3.5 2.3-3.5h2.6c1-.4.7-1.7.7-1.7l1.3-.2 .2.7s1.8.2 2 0c.2-.4.6-1 1-.8 .6.3 2.2-.7 2.2-.7 0-.7 2.6-.4 2.6-.4l.3-1s-1.7-2.3-2-2.3c-.3 0-2-1.4-2.1-.9 -1.6-.4-1.5-2.6-1.5-2.6l-.6-1.4c0-.8-1.5-2.5-1.8-2.3v0c-.72-.42-.97-1.34-.56-2.05 .13-.23.32-.42.55-.56 .4 0 1.4-1.5 1.4-1.5l.5-1.4 1.7-.5 .2-1.3 -1-.1s1-1.9 1.6-1.9c.6 0 3.8 0 4-.2 .4-.2 1-1.8 1-2 0-.4.8-.5 1-.6 .4 0 1-.9 1.3-1.3 .2-.4-.5-3-1-2.5Z"/><path d="M320 242c.1 0 .3.5.6.4 .3 0 .5.6.1.6 -.2 0-.2.3-.2.5 0 .1 0 .5-.3.8 -.2.2-.4 0-.7-.1 -.3-.2-.5-.2-.9-.2 -.3 0 0 .6 0 .6s-1.6 0-1.3-.3c.3-.2.6-.3.4-.4 -.2-.2 0-.3 0-.6s.7-.2.5-.4c-.2-.2 0-1.1.4-.6l.2-.5c-.2-.3 0-.3-.5-.5s-.1-1-.1-1v-.7c.2-.7 1.7-.8 1.8-.1v1.1l.5.2s-.1.4-.5.4 0 .2-.2.5l.2.4Zm-5 .8c.3-.4.8-2.4 1.4-1.8 .6.6 1 0 1 0s.3.3.1 1c-.1.5-.3 1.1-.6 1.2 -.4 0-.7.3-1.2.4 -.4 0-.6-.8-.6-.8Z"/></g></svg>