<svg viewBox="0 0 640 480" xmlns="http://www.w3.org/2000/svg"><g fill="#BD3D44" fill-rule="evenodd"><path d="M0 0h912v37H0Zm0 73.9h912v37H0Zm0 73.8h912v37H0Zm0 73.8h912v37H0Zm0 74h912v36.8H0Zm0 73.7h912v37H0ZM0 443h912v37H0Z"/><path fill="#FFF" d="M0 37h912v36.9H0Zm0 73.8h912v36.9H0Zm0 73.8h912v37H0Zm0 73.9h912v37H0Zm0 73.8h912v37H0Zm0 73.8h912v37H0Z"/><path fill="#192F5D" d="M0 0h364.8v258.5H0Z"/><path fill="#FFF" d="M30.4 11l3.4 10.3h10.6l-8.6 6.3 3.3 10.3 -8.7-6.4 -8.6 6.3L25 27.6l-8.7-6.3h10.9Zm60.8 0l3.3 10.3h10.8l-8.7 6.3 3.2 10.3 -8.6-6.4 -8.7 6.3 3.3-10.2 -8.6-6.3h10.6Zm60.8 0l3.3 10.3H166l-8.6 6.3 3.3 10.3 -8.7-6.4 -8.7 6.3 3.3-10.2 -8.7-6.3h10.8Zm60.8 0l3.3 10.3h10.8l-8.7 6.3 3.3 10.3 -8.7-6.4 -8.7 6.3 3.4-10.2 -8.8-6.3h10.7Zm60.8 0l3.3 10.3h10.7l-8.6 6.3 3.3 10.3 -8.7-6.4 -8.7 6.3 3.3-10.2 -8.6-6.3h10.7Zm60.8 0l3.3 10.3h10.8l-8.8 6.3 3.4 10.3 -8.7-6.4 -8.7 6.3 3.4-10.2 -8.8-6.3h10.8ZM60.8 37l3.3 10.2H75l-8.7 6.2 3.2 10.3 -8.5-6.3 -8.7 6.3 3.1-10.3 -8.4-6.2h10.7Zm60.8 0l3.4 10.2h10.7l-8.8 6.2 3.4 10.3 -8.7-6.3 -8.7 6.3 3.3-10.3 -8.7-6.2h10.8Zm60.8 0l3.3 10.2h10.8l-8.7 6.2 3.3 10.3 -8.7-6.3 -8.7 6.3 3.3-10.3 -8.6-6.2H179Zm60.8 0l3.4 10.2h10.7l-8.8 6.2 3.4 10.3 -8.7-6.3 -8.6 6.3 3.2-10.3 -8.7-6.2H240Zm60.8 0l3.3 10.2h10.8l-8.7 6.2 3.3 10.3 -8.7-6.3 -8.7 6.3 3.3-10.3 -8.6-6.2h10.7ZM30.4 62.6L33.8 73h10.6l-8.6 6.3 3.3 10.2 -8.7-6.3 -8.6 6.3L25 79.3 16.3 73h10.9Zm60.8 0L94.5 73h10.8l-8.7 6.3 3.2 10.2 -8.6-6.3 -8.7 6.3 3.3-10.3 -8.6-6.3h10.6Zm60.8 0l3.3 10.3H166l-8.6 6.3 3.3 10.2 -8.7-6.3 -8.7 6.3 3.3-10.3 -8.7-6.3h10.8Zm60.8 0l3.3 10.3h10.8l-8.7 6.3 3.3 10.2 -8.7-6.3 -8.7 6.3 3.4-10.3 -8.8-6.3h10.7Zm60.8 0l3.3 10.3h10.7l-8.6 6.3 3.3 10.2 -8.7-6.3 -8.7 6.3 3.3-10.3 -8.6-6.3h10.7Zm60.8 0l3.3 10.3h10.8l-8.8 6.3 3.4 10.2 -8.7-6.3 -8.7 6.3 3.4-10.3 -8.8-6.3h10.8Zm-273.6 26l3.3 10.2H75l-8.7 6.3 3.3 10.3 -8.7-6.4 -8.7 6.3 3.3-10.2 -8.6-6.3h10.7Zm60.8 0l3.4 10.2h10.7l-8.8 6.3 3.4 10.3 -8.7-6.4 -8.7 6.3 3.3-10.2 -8.7-6.3h10.8Zm60.8 0l3.3 10.2h10.8l-8.7 6.3 3.3 10.3 -8.7-6.4 -8.7 6.3 3.3-10.2 -8.6-6.3H179Zm60.8 0l3.4 10.2h10.7l-8.7 6.3 3.3 10.3 -8.7-6.4 -8.6 6.3 3.2-10.2 -8.7-6.3H240Zm60.8 0l3.3 10.2h10.8l-8.7 6.3 3.3 10.3 -8.7-6.4 -8.7 6.3 3.3-10.2 -8.6-6.3h10.7ZM30.4 114.5l3.4 10.2h10.6l-8.6 6.3 3.3 10.3 -8.7-6.4 -8.6 6.3L25 131l-8.7-6.3h10.9Zm60.8 0l3.3 10.2h10.8l-8.7 6.3 3.2 10.2 -8.6-6.3 -8.7 6.3 3.3-10.2 -8.6-6.3h10.6Zm60.8 0l3.3 10.2H166l-8.6 6.3 3.3 10.3 -8.7-6.4 -8.7 6.3 3.3-10.2 -8.7-6.3h10.8Zm60.8 0l3.3 10.2h10.8l-8.7 6.3 3.3 10.3 -8.7-6.4 -8.7 6.3 3.4-10.2 -8.8-6.3h10.7Zm60.8 0l3.3 10.2h10.7L279 131l3.3 10.3 -8.7-6.4 -8.7 6.3 3.3-10.2 -8.6-6.3h10.7Zm60.8 0l3.3 10.2h10.8l-8.8 6.3 3.4 10.3 -8.7-6.4 -8.7 6.3L329 131l-8.8-6.3H331ZM60.8 140.3l3.3 10.3H75l-8.7 6.2 3.3 10.3 -8.7-6.4 -8.7 6.4 3.3-10.3 -8.6-6.3h10.7Zm60.8 0l3.4 10.3h10.7l-8.8 6.2 3.4 10.3 -8.7-6.4 -8.7 6.4 3.3-10.3 -8.7-6.3h10.8Zm60.8 0l3.3 10.3h10.8l-8.7 6.2 3.3 10.3 -8.7-6.4 -8.7 6.4 3.3-10.3 -8.6-6.3H179Zm60.8 0l3.4 10.3h10.7l-8.7 6.2 3.3 10.3 -8.7-6.4 -8.6 6.4 3.2-10.3 -8.7-6.3H240Zm60.8 0l3.3 10.3h10.8l-8.7 6.2 3.3 10.3 -8.7-6.4 -8.7 6.4 3.3-10.3 -8.6-6.3h10.7ZM30.4 166.1l3.4 10.3h10.6l-8.6 6.3 3.3 10.1 -8.7-6.2 -8.6 6.2 3.2-10.2 -8.7-6.3h10.9Zm60.8 0l3.3 10.3h10.8l-8.7 6.3 3.3 10.1 -8.7-6.2 -8.7 6.2 3.4-10.2 -8.7-6.3h10.6Zm60.8 0l3.3 10.3H166l-8.6 6.3 3.3 10.1 -8.7-6.2 -8.7 6.2 3.3-10.2 -8.7-6.3h10.8Zm60.8 0l3.3 10.3h10.8l-8.7 6.3 3.3 10.1 -8.7-6.2 -8.7 6.2 3.4-10.2 -8.8-6.3h10.7Zm60.8 0l3.3 10.3h10.7l-8.6 6.3 3.3 10.1 -8.7-6.2 -8.7 6.2 3.3-10.2 -8.6-6.3h10.7Zm60.8 0l3.3 10.3h10.8l-8.8 6.3 3.4 10.1 -8.7-6.2 -8.7 6.2 3.4-10.2 -8.8-6.3h10.8ZM60.8 192l3.3 10.2H75l-8.7 6.3 3.3 10.3 -8.7-6.4 -8.7 6.3 3.3-10.2 -8.6-6.3h10.7Zm60.8 0l3.4 10.2h10.7l-8.8 6.3 3.4 10.3 -8.7-6.4 -8.7 6.3 3.3-10.2 -8.7-6.3h10.8Zm60.8 0l3.3 10.2h10.8l-8.7 6.3 3.3 10.3 -8.7-6.4 -8.7 6.3 3.3-10.2 -8.6-6.3H179Zm60.8 0l3.4 10.2h10.7l-8.7 6.3 3.3 10.3 -8.7-6.4 -8.6 6.3 3.2-10.2 -8.7-6.3H240Zm60.8 0l3.3 10.2h10.8l-8.7 6.3 3.3 10.3 -8.7-6.4 -8.7 6.3 3.3-10.2 -8.6-6.3h10.7ZM30.4 217.9l3.4 10.2h10.6l-8.6 6.3 3.3 10.2 -8.7-6.3 -8.6 6.3 3.2-10.3 -8.7-6.3h10.9Zm60.8 0l3.3 10.2h10.8l-8.7 6.3 3.3 10.2 -8.7-6.3 -8.7 6.3 3.4-10.3 -8.7-6.3h10.6Zm60.8 0l3.3 10.2H166l-8.4 6.3 3.3 10.2 -8.7-6.3 -8.7 6.3 3.3-10.3 -8.7-6.3h10.8Zm60.8 0l3.3 10.2h10.8l-8.7 6.3 3.3 10.2 -8.7-6.3 -8.7 6.3 3.4-10.3 -8.8-6.3h10.7Zm60.8 0l3.3 10.2h10.7l-8.6 6.3 3.3 10.2 -8.7-6.3 -8.7 6.3 3.3-10.3 -8.6-6.3h10.7Zm60.8 0l3.3 10.2h10.8l-8.8 6.3 3.4 10.2 -8.7-6.3 -8.7 6.3 3.4-10.3 -8.8-6.3h10.8Z"/></g></svg>