<svg viewBox="0 0 640 480" xmlns="http://www.w3.org/2000/svg" xmlns:xlink="http://www.w3.org/1999/xlink"><defs><path d="M0-.001h6l-6 33 -6-33h6v33" id="c"/><path d="M1.5 9L6 12c-8 13 1 15-6 21 3-7-3-5-3-17" id="a"/><path d="M81-44c-7 8-11-6-36-6s-29 15-33 12 21-21 29-22 31 7 40 16m-29 9c7 6 1 19-6 19s-20-12-14-20" id="d"/><path d="M19-26c1-12 11-14 27-14s23 12 29 15c-7 0-13-10-29-10s-16 0-27 10m3 2c4-6 9 6 20 6s17-3 24-8 -10 12-21 12 -26-6-23-10" id="e"/><path d="M56-17c13-7 5-17 0-19 2 2 10 12 0 19M0 43c6 0 8-2 16-2s27 11 38 7c-23 9-14 3-54 3h-5m63 6c-4-7-3-5-11-16 8 6 10 9 11 16M0 67c25 0 21-5 54-19C30 51 25 59 0 59h-5m5-29c7 0 9-5 17-5s19 3 24 7c1 1-3-8-11-9s-5-14-14-16c0 4 3 3 4 9 0 5-9 5-11 0 2 8-4 8-9 8" id="f"/><path d="M-.001 11c-2 13 4.5 17 0 22" id="b"/></defs><path fill="#FFF" d="M0 0h640v480H0Z"/><path fill="#0038A8" d="M266 53.3h374v53.4H266Zm0 106.7h374v53.3H266ZM0 266.7h640V320H0Zm0 106.6h640v53.4H0Z"/><g transform="translate(133.3 133.3) scale(2.93333)"><use fill="#FCD116" stroke="#000" stroke-linecap="square" stroke-miterlimit="20" stroke-width=".6" transform="rotate(22.5)" xlink:href="#a"/><g stroke-width=".6" stroke-miterlimit="20" stroke="#000" fill="none"><use transform="rotate(22.5)" xlink:href="#b"/><use fill="#FCD116" xlink:href="#c"/></g><g transform="rotate(45)"><use fill="#FCD116" stroke="#000" stroke-linecap="square" stroke-miterlimit="20" stroke-width=".6" transform="rotate(22.5)" xlink:href="#a"/><g stroke-width=".6" stroke-miterlimit="20" stroke="#000" fill="none"><use transform="rotate(22.5)" xlink:href="#b"/><use fill="#FCD116" xlink:href="#c"/></g></g><g transform="rotate(90)"><use fill="#FCD116" stroke="#000" stroke-linecap="square" stroke-miterlimit="20" stroke-width=".6" transform="rotate(22.5)" xlink:href="#a"/><g stroke-width=".6" stroke-miterlimit="20" stroke="#000" fill="none"><use transform="rotate(22.5)" xlink:href="#b"/><use fill="#FCD116" xlink:href="#c"/></g><g transform="rotate(45)"><use fill="#FCD116" stroke="#000" stroke-linecap="square" stroke-miterlimit="20" stroke-width=".6" transform="rotate(22.5)" xlink:href="#a"/><g stroke-width=".6" stroke-miterlimit="20" stroke="#000" fill="none"><use transform="rotate(22.5)" xlink:href="#b"/><use fill="#FCD116" xlink:href="#c"/></g></g></g><g transform="rotate(180)"><use fill="#FCD116" stroke="#000" stroke-linecap="square" stroke-miterlimit="20" stroke-width=".6" transform="rotate(22.5)" xlink:href="#a"/><g stroke-width=".6" stroke-miterlimit="20" stroke="#000" fill="none"><use transform="rotate(22.5)" xlink:href="#b"/><use fill="#FCD116" xlink:href="#c"/></g><g transform="rotate(45)"><use fill="#FCD116" stroke="#000" stroke-linecap="square" stroke-miterlimit="20" stroke-width=".6" transform="rotate(22.5)" xlink:href="#a"/><g stroke-width=".6" stroke-miterlimit="20" stroke="#000" fill="none"><use transform="rotate(22.5)" xlink:href="#b"/><use fill="#FCD116" xlink:href="#c"/></g></g><g transform="rotate(90)"><use fill="#FCD116" stroke="#000" stroke-linecap="square" stroke-miterlimit="20" stroke-width=".6" transform="rotate(22.5)" xlink:href="#a"/><g stroke-width=".6" stroke-miterlimit="20" stroke="#000" fill="none"><use transform="rotate(22.5)" xlink:href="#b"/><use fill="#FCD116" xlink:href="#c"/></g><g transform="rotate(45)"><use fill="#FCD116" stroke="#000" stroke-linecap="square" stroke-miterlimit="20" stroke-width=".6" transform="rotate(22.5)" xlink:href="#a"/><g stroke-width=".6" stroke-miterlimit="20" stroke="#000" fill="none"><use transform="rotate(22.5)" xlink:href="#b"/><use fill="#FCD116" xlink:href="#c"/></g></g></g></g><path fill="#FCD116" stroke="#000" stroke-miterlimit="20" stroke-width=".6" d="M0-11a11 11 0 1 0 0 22 11 11 0 1 0 0-22Z"/></g><g transform="matrix(.29333 0 0 .29333 133.3 133.3)"><g><use xlink:href="#d"/><use xlink:href="#e"/><use xlink:href="#f"/></g><g transform="scale(-1 1)"><g><use xlink:href="#d"/><use xlink:href="#e"/><use xlink:href="#f"/></g></g><path d="M0 76c-5 0-18 3 0 3s5-3 0-3"/></g></svg>