<svg viewBox="0 0 640 480" xmlns="http://www.w3.org/2000/svg" xmlns:xlink="http://www.w3.org/1999/xlink"><defs><path d="M0-6L-1.9-.3 1 .7" id="a"/></defs><path fill="#1EB53A" d="M0 320h640v160H0Z"/><path fill="#0099B5" d="M0 0h640v160H0Z"/><path fill="#CE1126" d="M0 153.6h640v172.8H0Z"/><g fill="#FFF"><path d="M0 163.2h640v153.6H0Z"/><path d="M134.4 19.2a57.6 57.6 0 1 0 0 115.2 57.6 57.6 0 1 0 0-115.2Z"/></g><path fill="#0099B5" d="M153.6 19.2a57.6 57.6 0 1 0 0 115.2 57.6 57.6 0 1 0 0-115.2Z"/><g transform="matrix(1.92 0 0 1.92 261.1 122.9)"><g fill="#FFF"><use xlink:href="#a"/><use transform="scale(-1 1)" xlink:href="#a"/></g><g transform="rotate(72)"><g fill="#FFF"><use xlink:href="#a"/><use transform="scale(-1 1)" xlink:href="#a"/></g></g><g transform="rotate(-72)"><g fill="#FFF"><use xlink:href="#a"/><use transform="scale(-1 1)" xlink:href="#a"/></g></g><g transform="rotate(144)"><g fill="#FFF"><use xlink:href="#a"/><use transform="scale(-1 1)" xlink:href="#a"/></g><g transform="rotate(72)"><g fill="#FFF"><use xlink:href="#a"/><use transform="scale(-1 1)" xlink:href="#a"/></g></g></g><g transform="translate(0-24)"><g fill="#FFF"><use xlink:href="#a"/><use transform="scale(-1 1)" xlink:href="#a"/></g><g transform="rotate(72)"><g fill="#FFF"><use xlink:href="#a"/><use transform="scale(-1 1)" xlink:href="#a"/></g></g><g transform="rotate(-72)"><g fill="#FFF"><use xlink:href="#a"/><use transform="scale(-1 1)" xlink:href="#a"/></g></g><g transform="rotate(144)"><g fill="#FFF"><use xlink:href="#a"/><use transform="scale(-1 1)" xlink:href="#a"/></g><g transform="rotate(72)"><g fill="#FFF"><use xlink:href="#a"/><use transform="scale(-1 1)" xlink:href="#a"/></g></g></g></g><g transform="translate(0-48)"><g fill="#FFF"><use xlink:href="#a"/><use transform="scale(-1 1)" xlink:href="#a"/></g><g transform="rotate(72)"><g fill="#FFF"><use xlink:href="#a"/><use transform="scale(-1 1)" xlink:href="#a"/></g></g><g transform="rotate(-72)"><g fill="#FFF"><use xlink:href="#a"/><use transform="scale(-1 1)" xlink:href="#a"/></g></g><g transform="rotate(144)"><g fill="#FFF"><use xlink:href="#a"/><use transform="scale(-1 1)" xlink:href="#a"/></g><g transform="rotate(72)"><g fill="#FFF"><use xlink:href="#a"/><use transform="scale(-1 1)" xlink:href="#a"/></g></g></g></g><g transform="translate(24 0)"><g fill="#FFF"><use xlink:href="#a"/><use transform="scale(-1 1)" xlink:href="#a"/></g><g transform="rotate(72)"><g fill="#FFF"><use xlink:href="#a"/><use transform="scale(-1 1)" xlink:href="#a"/></g></g><g transform="rotate(-72)"><g fill="#FFF"><use xlink:href="#a"/><use transform="scale(-1 1)" xlink:href="#a"/></g></g><g transform="rotate(144)"><g fill="#FFF"><use xlink:href="#a"/><use transform="scale(-1 1)" xlink:href="#a"/></g><g transform="rotate(72)"><g fill="#FFF"><use xlink:href="#a"/><use transform="scale(-1 1)" xlink:href="#a"/></g></g></g><g transform="translate(0-24)"><g fill="#FFF"><use xlink:href="#a"/><use transform="scale(-1 1)" xlink:href="#a"/></g><g transform="rotate(72)"><g fill="#FFF"><use xlink:href="#a"/><use transform="scale(-1 1)" xlink:href="#a"/></g></g><g transform="rotate(-72)"><g fill="#FFF"><use xlink:href="#a"/><use transform="scale(-1 1)" xlink:href="#a"/></g></g><g transform="rotate(144)"><g fill="#FFF"><use xlink:href="#a"/><use transform="scale(-1 1)" xlink:href="#a"/></g><g transform="rotate(72)"><g fill="#FFF"><use xlink:href="#a"/><use transform="scale(-1 1)" xlink:href="#a"/></g></g></g></g><g transform="translate(0-48)"><g fill="#FFF"><use xlink:href="#a"/><use transform="scale(-1 1)" xlink:href="#a"/></g><g transform="rotate(72)"><g fill="#FFF"><use xlink:href="#a"/><use transform="scale(-1 1)" xlink:href="#a"/></g></g><g transform="rotate(-72)"><g fill="#FFF"><use xlink:href="#a"/><use transform="scale(-1 1)" xlink:href="#a"/></g></g><g transform="rotate(144)"><g fill="#FFF"><use xlink:href="#a"/><use transform="scale(-1 1)" xlink:href="#a"/></g><g transform="rotate(72)"><g fill="#FFF"><use xlink:href="#a"/><use transform="scale(-1 1)" xlink:href="#a"/></g></g></g></g></g><g transform="translate(48 0)"><g fill="#FFF"><use xlink:href="#a"/><use transform="scale(-1 1)" xlink:href="#a"/></g><g transform="rotate(72)"><g fill="#FFF"><use xlink:href="#a"/><use transform="scale(-1 1)" xlink:href="#a"/></g></g><g transform="rotate(-72)"><g fill="#FFF"><use xlink:href="#a"/><use transform="scale(-1 1)" xlink:href="#a"/></g></g><g transform="rotate(144)"><g fill="#FFF"><use xlink:href="#a"/><use transform="scale(-1 1)" xlink:href="#a"/></g><g transform="rotate(72)"><g fill="#FFF"><use xlink:href="#a"/><use transform="scale(-1 1)" xlink:href="#a"/></g></g></g><g transform="translate(0-24)"><g fill="#FFF"><use xlink:href="#a"/><use transform="scale(-1 1)" xlink:href="#a"/></g><g transform="rotate(72)"><g fill="#FFF"><use xlink:href="#a"/><use transform="scale(-1 1)" xlink:href="#a"/></g></g><g transform="rotate(-72)"><g fill="#FFF"><use xlink:href="#a"/><use transform="scale(-1 1)" xlink:href="#a"/></g></g><g transform="rotate(144)"><g fill="#FFF"><use xlink:href="#a"/><use transform="scale(-1 1)" xlink:href="#a"/></g><g transform="rotate(72)"><g fill="#FFF"><use xlink:href="#a"/><use transform="scale(-1 1)" xlink:href="#a"/></g></g></g></g><g transform="translate(0-48)"><g fill="#FFF"><use xlink:href="#a"/><use transform="scale(-1 1)" xlink:href="#a"/></g><g transform="rotate(72)"><g fill="#FFF"><use xlink:href="#a"/><use transform="scale(-1 1)" xlink:href="#a"/></g></g><g transform="rotate(-72)"><g fill="#FFF"><use xlink:href="#a"/><use transform="scale(-1 1)" xlink:href="#a"/></g></g><g transform="rotate(144)"><g fill="#FFF"><use xlink:href="#a"/><use transform="scale(-1 1)" xlink:href="#a"/></g><g transform="rotate(72)"><g fill="#FFF"><use xlink:href="#a"/><use transform="scale(-1 1)" xlink:href="#a"/></g></g></g></g></g><g transform="translate(-48 0)"><g fill="#FFF"><use xlink:href="#a"/><use transform="scale(-1 1)" xlink:href="#a"/></g><g transform="rotate(72)"><g fill="#FFF"><use xlink:href="#a"/><use transform="scale(-1 1)" xlink:href="#a"/></g></g><g transform="rotate(-72)"><g fill="#FFF"><use xlink:href="#a"/><use transform="scale(-1 1)" xlink:href="#a"/></g></g><g transform="rotate(144)"><g fill="#FFF"><use xlink:href="#a"/><use transform="scale(-1 1)" xlink:href="#a"/></g><g transform="rotate(72)"><g fill="#FFF"><use xlink:href="#a"/><use transform="scale(-1 1)" xlink:href="#a"/></g></g></g></g><g transform="translate(-24 0)"><g fill="#FFF"><use xlink:href="#a"/><use transform="scale(-1 1)" xlink:href="#a"/></g><g transform="rotate(72)"><g fill="#FFF"><use xlink:href="#a"/><use transform="scale(-1 1)" xlink:href="#a"/></g></g><g transform="rotate(-72)"><g fill="#FFF"><use xlink:href="#a"/><use transform="scale(-1 1)" xlink:href="#a"/></g></g><g transform="rotate(144)"><g fill="#FFF"><use xlink:href="#a"/><use transform="scale(-1 1)" xlink:href="#a"/></g><g transform="rotate(72)"><g fill="#FFF"><use xlink:href="#a"/><use transform="scale(-1 1)" xlink:href="#a"/></g></g></g></g><g transform="translate(-24-24)"><g fill="#FFF"><use xlink:href="#a"/><use transform="scale(-1 1)" xlink:href="#a"/></g><g transform="rotate(72)"><g fill="#FFF"><use xlink:href="#a"/><use transform="scale(-1 1)" xlink:href="#a"/></g></g><g transform="rotate(-72)"><g fill="#FFF"><use xlink:href="#a"/><use transform="scale(-1 1)" xlink:href="#a"/></g></g><g transform="rotate(144)"><g fill="#FFF"><use xlink:href="#a"/><use transform="scale(-1 1)" xlink:href="#a"/></g><g transform="rotate(72)"><g fill="#FFF"><use xlink:href="#a"/><use transform="scale(-1 1)" xlink:href="#a"/></g></g></g></g></g></svg>