<svg viewBox="0 0 512 512" xmlns="http://www.w3.org/2000/svg"><g><path d="M256 112v0c-30.93 0-56-25.08-56-56 0-30.93 25.07-56 56-56 30.92 0 56 25.07 56 56v0c-.04 30.91-25.09 55.96-56 56Z"/><path d="M432 112.8l-.45.12v0l-.42.13c-1 .28-2 .58-3 .89 -18.61 5.46-108.93 30.92-172.56 30.92 -59.13 0-141.28-22-167.56-29.47v0c-2.62-1.02-5.29-1.88-8-2.58 -19-5-32 14.3-32 31.94 0 17.47 15.7 25.79 31.55 31.76v.28l95.22 29.74c9.73 3.73 12.33 7.54 13.6 10.84 4.13 10.59.83 31.56-.34 38.88l-5.8 45 -32.19 176.19q-.15.72-.27 1.47l-.23 1.27v0c-2.32 16.15 9.54 31.82 32 31.82 19.6 0 28.25-13.53 32-31.94v0s28-157.57 42-157.57 42.84 157.57 42.84 157.57v0c3.75 18.41 12.4 31.94 32 31.94 22.52 0 34.38-15.74 32-31.94 -.21-1.38-.46-2.74-.76-4.06L329 301.27l-5.79-45c-4.19-26.21-.82-34.87.32-36.9v-.001c.03-.05.05-.1.08-.15 1.08-2 6-6.48 17.48-10.79l89.28-31.21v0c.54-.15 1.08-.32 1.62-.52 16-6 32-14.3 32-31.93s-12.99-36.96-31.99-31.97Z"/></g></svg>