<svg viewBox="0 0 512 512" xmlns="http://www.w3.org/2000/svg"><path fill="none" stroke="#000" stroke-linecap="round" stroke-linejoin="round" stroke-width="32" d="M407.72 224c-3.4 0-14.79.1-18 .3l-64.9 1.7v0c-.69.04-1.35-.31-1.69-.9L193.55 67.56v0c-1.6-2.11-4.03-3.41-6.66-3.56H160l73 161v0c.55 1.17.05 2.57-1.13 3.12 -.36.16-.75.24-1.14.22l-121.69 1.8 -.001 0c-2.57.07-5.02-1.08-6.6-3.1l-37-45c-3-3.9-8.62-6-13.51-6H33.06c-1.29 0-1.1 1.21-.75 2.43l19.84 71.42v0c1.49 3.82 1.49 8.07-.001 11.9l-19.86 71.2c-.59 1.95-.52 3 1.77 3h17.92c8.14 0 9.25-1.06 13.41-6.3l37.7-45.7h-.001c1.59-2.01 4.03-3.16 6.6-3.1l120.68 2.7h0c1.49.03 2.67 1.26 2.63 2.76 -.01.33-.08.66-.21.97l-72.82 160.66h26.64v0c2.62-.16 5.05-1.46 6.65-3.55l129.85-157.45c.39-.6 2-.9 2.69-.9l63.9 1.7c3.3.2 14.59.3 18 .3 44.27 0 72.27-12.17 72.27-32.1s-27.88-32-72.28-32Z"/></svg>