<svg viewBox="0 0 512 512" xmlns="http://www.w3.org/2000/svg"><g stroke-width="32" stroke-miterlimit="10" stroke="#000" fill="none"><path d="M416.07 272v0c0-88.37-71.64-160-160-160 -88.37 0-160 71.63-160 160 0 88.36 71.63 160 160 160v0c88.36 0 160-71.64 160-160Z"/><path d="M142.12 91.21v0C133.72 84.02 123.05 80.05 112 80l-2.79.08C83.66 81.62 64 104 64.07 131c0 13.21 4.66 19.37 10.88 27.23h-.001c.78 1.02 1.95 1.66 3.24 1.77h.88v0c1-.02 1.94-.51 2.54-1.31L142.379 99v-.001c1.04-1.07 1.61-2.51 1.55-4v0c-.06-1.46-.71-2.84-1.81-3.79Z"/><path d="M369.88 91.21v0C378.27 84.02 388.94 80.05 400 80l2.79.08C428.34 81.62 448 104 447.93 131c0 13.21-4.66 19.37-10.88 27.23v0c-.79 1.01-1.97 1.65-3.24 1.76h-.88 -.001c-1.01-.02-1.95-.51-2.54-1.31L369.619 99v-.001c-1.05-1.07-1.62-2.51-1.55-4v0c.05-1.46.7-2.84 1.81-3.79Z"/></g><g stroke-linecap="round" stroke-width="32" stroke="#000" fill="none" stroke-linejoin="round"><path d="M256.07 160l0 112 -80 0"/><path d="M416.07 432l-40-40"/><path d="M96.07 432l40-40"/></g></svg>