<svg viewBox="0 0 512 512" xmlns="http://www.w3.org/2000/svg"><path d="M456 128v0c-22.1 0-40 17.91-39.99 40.01 0 4.99.93 9.94 2.75 14.58l-84.17 84.17v0c-9.39-3.7-19.82-3.7-29.2 0l-60.17-60.17h0c8.07-20.57-2.05-43.78-22.61-51.86 -20.57-8.08-43.78 2.04-51.86 22.6 -3.7 9.4-3.7 19.85 0 29.25L70.58 306.75v0c-20.57-8.07-43.78 2.06-51.85 22.63 -8.07 20.56 2.06 43.77 22.63 51.84 20.56 8.06 43.77-2.07 51.84-22.63 3.68-9.39 3.68-19.83-.001-29.22L193.36 229.2h-.001c9.38 3.69 19.81 3.69 29.2 0l60.17 60.17v0c-8.08 20.56 2.04 43.77 22.6 51.85 20.56 8.07 43.77-2.05 51.85-22.61 3.69-9.41 3.69-19.86 0-29.26l84.17-84.17h0c20.56 8.07 43.77-2.05 51.85-22.61 8.07-20.57-2.05-43.78-22.61-51.86 -4.67-1.84-9.64-2.78-14.66-2.77Z"/></svg>