<svg viewBox="0 0 512 512" xmlns="http://www.w3.org/2000/svg"><g><path d="M216 48l129.49 128.18 0-128.18L216 48Z"/><path d="M181.47 58.38L80 134l176 0 -74.53-75.62Z"/><path d="M336 344l128 0 0-128L336 344Z"/><path d="M454 182L378 80l0 176 76-74Z"/><path d="M48 166l0 128 128-128 -128 0Z"/><path d="M330 454l102-76 -176 0 74 76Z"/><path d="M58 330l76 102 0-176 -76 74Z"/><path d="M345.49 222.12l-55.55-55.46h-67.88l-55.55 55.46v67.76l55.62 55.52c.44 0 .88-.06 1.33-.06h66.48l55.55-55.46Z"/><path d="M165.98 336.09L166 464l128 0L165.98 336.09Z"/></g></svg>