<svg viewBox="0 0 512 512" xmlns="http://www.w3.org/2000/svg"><g><path d="M104 160v0c-30.93 0-56-25.08-56-56 0-30.93 25.07-56 56-56 30.92 0 56 25.07 56 56v0c-.04 30.91-25.09 55.96-56 56Z"/><path d="M256 160v0c-30.93 0-56-25.08-56-56 0-30.93 25.07-56 56-56 30.92 0 56 25.07 56 56v0c-.04 30.91-25.09 55.96-56 56Z"/><path d="M408 160v0c-30.93 0-56-25.08-56-56 0-30.93 25.07-56 56-56 30.92 0 56 25.07 56 56v0c-.04 30.91-25.09 55.96-56 56Z"/><path d="M104 312v0c-30.93 0-56-25.08-56-56 0-30.93 25.07-56 56-56 30.92 0 56 25.07 56 56v0c-.04 30.91-25.09 55.96-56 56Z"/><path d="M256 312v0c-30.93 0-56-25.08-56-56 0-30.93 25.07-56 56-56 30.92 0 56 25.07 56 56v0c-.04 30.91-25.09 55.96-56 56Z"/><path d="M408 312v0c-30.93 0-56-25.08-56-56 0-30.93 25.07-56 56-56 30.92 0 56 25.07 56 56v0c-.04 30.91-25.09 55.96-56 56Z"/><path d="M104 464v0c-30.93 0-56-25.08-56-56 0-30.93 25.07-56 56-56 30.92 0 56 25.07 56 56v0c-.04 30.91-25.09 55.96-56 56Z"/><path d="M256 464v0c-30.93 0-56-25.08-56-56 0-30.93 25.07-56 56-56 30.92 0 56 25.07 56 56v0c-.04 30.91-25.09 55.96-56 56Z"/><path d="M408 464v0c-30.93 0-56-25.08-56-56 0-30.93 25.07-56 56-56 30.92 0 56 25.07 56 56v0c-.04 30.91-25.09 55.96-56 56Z"/></g></svg>