<svg viewBox="0 0 512 512" xmlns="http://www.w3.org/2000/svg"><g><path d="M64 164v244 0c0 30.92 25.07 56 56 56h272v0c30.92 0 56-25.08 56-56V164v0c0-2.21-1.8-4-4-4H68v0c-2.21 0-4 1.79-4 4Zm267 151.63l-63.69 63.68v0c-6.25 6.24-16.38 6.24-22.62 0L181 315.63c-6.09-6.09-6.65-16-.85-22.38l0 0c5.93-6.55 16.05-7.04 22.6-1.1 .19.17.37.35.55.53l36.69 36.68V224.44c0-8.61 6.62-16 15.23-16.43v0c8.82-.43 16.32 6.38 16.75 15.21 .01.25.01.51.01.76v105.37l36.69-36.68v0c6.24-6.25 16.37-6.25 22.62 0 .18.18.35.36.53.55 5.8 6.37 5.24 16.29-.85 22.38Z"/><rect width="448" height="80" x="32" rx="32" y="48"/></g></svg>