<svg viewBox="0 0 512 512" xmlns="http://www.w3.org/2000/svg"><path d="M245.09 327.74v-37.32c57.07 0 84.51 13.47 108.58 38.68 5.4 5.65 15 1.32 14.29-6.43 -5.45-61.45-34.14-117.09-122.87-117.09v-37.32 0c-.02-4.6-3.76-8.31-8.36-8.29 -2.13 0-4.16.82-5.7 2.28l-84.46 79.74v0c-3.3 3.1-3.46 8.29-.35 11.59 .11.11.22.23.34.34l84.42 79.77h-.001c3.31 3.18 8.57 3.08 11.76-.23 1.48-1.55 2.31-3.61 2.32-5.75Z"/><path fill="none" stroke="#000" stroke-miterlimit="10" stroke-width="32" d="M256 64C150 64 64 150 64 256c0 106 86 192 192 192s192-86 192-192 -86-192-192-192Z"/></svg>