<svg viewBox="0 0 512 512" xmlns="http://www.w3.org/2000/svg"><path d="M256 48C141.13 48 48 141.13 48 256c0 114.87 93.13 208 208 208s208-93.13 208-208 -93.13-208-208-208Zm97.67 281.1c-24.07-25.21-51.51-38.68-108.58-38.68v37.32 0c-.02 4.59-3.76 8.3-8.36 8.28 -2.13-.01-4.16-.83-5.7-2.29l-84.46-79.74v0c-3.3-3.11-3.46-8.3-.35-11.6 .11-.12.22-.24.34-.35l84.42-79.77 -.001 0c3.33-3.17 8.59-3.03 11.76.3 1.46 1.53 2.27 3.57 2.28 5.69v37.32c88.73 0 117.42 55.64 122.87 117.09 .73 7.72-8.85 12.05-14.25 6.4Z"/></svg>