<svg viewBox="0 0 512 512" xmlns="http://www.w3.org/2000/svg"><path d="M256 464c114.87 0 208-93.13 208-208s-93.13-208-208-208C141.13 48 48 141.13 48 256c0 114.87 93.13 208 208 208Zm-91.36-212.65l-.001-.001c6.22-6.28 16.35-6.32 22.62-.1 0 0 0 0 0 0l52.73 52.32v-133.58 0c0-8.84 7.16-16 16-16 8.83 0 16 7.16 16 16v133.58l52.73-52.32v0c6.27-6.23 16.41-6.18 22.64.1 6.22 6.27 6.17 16.41-.1 22.64l-80 79.39v0c-6.24 6.19-16.31 6.19-22.54 0l-80-79.39h0c-6.28-6.22-6.33-16.35-.12-22.63 0-.01.01-.02.02-.03Z"/></svg>