<svg viewBox="0 0 512 512" xmlns="http://www.w3.org/2000/svg"><path d="M464 256c0-114.87-93.13-208-208-208C141.13 48 48 141.13 48 256c0 114.87 93.13 208 208 208s208-93.13 208-208Zm-212.65 91.36v0c-6.28-6.23-6.32-16.36-.1-22.63 0-.01 0-.01 0-.01l52.32-52.73H169.99v0c-8.84 0-16-7.17-16-16 0-8.84 7.16-16 16-16h133.58l-52.32-52.73 0 0c-6.23-6.28-6.18-16.42.1-22.64 6.27-6.23 16.41-6.18 22.64.1l79.39 80v0c6.19 6.23 6.19 16.3 0 22.54l-79.39 80v0c-6.22 6.27-16.35 6.32-22.63.11 -.01-.01-.02-.02-.03-.03Z"/></svg>