<svg viewBox="0 0 512 512" xmlns="http://www.w3.org/2000/svg"><path d="M266.91 327.74v-37.32c-57.07 0-84.51 13.47-108.58 38.68 -5.4 5.65-15 1.32-14.29-6.43 5.45-61.45 34.14-117.09 122.87-117.09v-37.32 0c.04-4.6 3.8-8.29 8.39-8.25 2.08.01 4.08.81 5.6 2.24l84.51 79.74v0c3.29 3.1 3.45 8.29.34 11.59 -.12.11-.23.23-.35.34l-84.42 79.77h0c-3.32 3.18-8.58 3.08-11.77-.23 -1.49-1.55-2.32-3.61-2.33-5.75Z"/><path fill="none" stroke="#000" stroke-miterlimit="10" stroke-width="32" d="M64 256c0 106 86 192 192 192s192-86 192-192 -86-192-192-192C150 64 64 150 64 256Z"/></svg>