<svg viewBox="0 0 512 512" xmlns="http://www.w3.org/2000/svg"><path d="M391 307.27c32.75-46.35 46.59-101.63 39-155.68v0C416.47 55.59 327.38-11.54 231.38 2c-96 13.54-163.14 102.53-149.65 198.53 7.57 53.89 36.12 103.16 80.37 138.74 26.91 21.64 57.59 36.1 86.05 41.33l-8.36 45.23h-.001c-.81 4.34 2.06 8.51 6.4 9.32 .85.15 1.73.17 2.59.05l30.21-4.21c15.9 35.87 41.65 60.48 78.41 75l14.88 5.88 11.77-29.75 -14.88-5.89c-26.35-10.42-44.48-26.16-57-49.92l21.84-3.07v0c4.37-.62 7.42-4.66 6.81-9.04 -.12-.86-.38-1.69-.77-2.46l-20.49-41.16c25.98-12.87 51.49-35.18 71.42-63.33Zm-160.82 15.66c-41.26-16.32-76.3-52.7-91.45-94.94l-5.4-15.06 30.12-10.8 5.4 15.06c14.5 40.44 47.27 65.77 73.1 76l14.88 5.88 -11.77 29.76Z"/></svg>