<svg viewBox="0 0 512 512" xmlns="http://www.w3.org/2000/svg"><path d="M391 307.27c32.75-46.35 46.59-101.63 39-155.68v0C416.46 55.43 327.53-11.54 231.38 1.99c-.01 0-.01 0-.01 0 -96 13.49-163.14 102.58-149.65 198.58 7.57 53.89 36.12 103.16 80.37 138.74 24.58 19.68 52.31 33.5 78.62 39.68v0c4.13.99 6.76 5.04 6 9.22l-4.87 26.38h-.001c-.71 3.58-.19 7.31 1.48 10.57v0c2.75 5.29 8.23 8.61 14.2 8.61l-.001 0c.74 0 1.49-.06 2.23-.16l17.81-2.5v0c.87-.13 1.71.34 2.09 1.14 16.72 36.31 45.46 63.85 82.15 78.36v0c8.21 3.24 17.51-.79 20.75-9.01 .08-.22.16-.44.24-.65 2.83-8.18-1.64-17.07-9.68-20.28v0c-25.11-10.03-46.03-28.34-59.3-51.88v0c-.57-.96-.25-2.18.7-2.74 .22-.14.48-.23.74-.27l7.4-1v0c3.87-.5 7.44-2.36 10.08-5.23v0c4.36-4.89 5.31-11.94 2.39-17.8l-12.06-24.23v0c-1.91-3.83-.47-8.47 3.26-10.55 23.59-13.17 46.45-34 64.65-59.73Zm-154.9 16.78v0c-2.02-.01-4.01-.39-5.88-1.12 -41.26-16.32-76.3-52.7-91.45-94.94v0c-3.09-8.29 1.13-17.5 9.41-20.58 8.28-3.09 17.49 1.13 20.57 9.41 .04.11.08.23.12.35 14.5 40.44 47.27 65.77 73.1 76v0c8.21 3.24 12.24 12.54 8.99 20.76 -2.42 6.1-8.32 10.12-14.89 10.11Z"/></svg>