<svg viewBox="0 0 512 512" xmlns="http://www.w3.org/2000/svg"><path d="M414.39 97.61v-.001C327.34 9.69 185.51 8.99 97.61 96.04 9.7 183.089 9 324.919 96.05 412.82c.51.52 1.03 1.04 1.55 1.55h-.001c87.04 87.9 228.87 88.6 316.78 1.55 87.9-87.05 88.6-228.88 1.55-316.78 -.52-.53-1.04-1.05-1.56-1.56ZM432 256v0c.03 38.38-12.55 75.72-35.8 106.26L149.74 115.8l0 0C180.27 92.54 217.61 79.96 256 80c97.05 0 176 79 176 176Zm-352 0v0c-.04-38.39 12.54-75.73 35.8-106.26L362.26 396.2v0C331.72 419.45 294.38 432.03 256 432c-97 0-176-78.95-176-176Z"/></svg>