<svg viewBox="0 0 512 512" xmlns="http://www.w3.org/2000/svg"><g fill="none"><path d="M275.8 157v0c-6.25-6.25-16.38-6.26-22.63-.01 -.01 0-.01 0-.01 0l-93.34 93.34v0c-6.25 6.24-6.26 16.37-.01 22.62 0 0 0 0 0 0l79.2 79.2v0 0c6.24 6.24 16.37 6.25 22.62 0 0-.01 0-.01 0-.01l93.34-93.34v0c6.24-6.25 6.25-16.38 0-22.63 -.01-.01-.01-.01-.01-.01Z"/><path d="M137.21 295.6v0c-3.89-3.89-7.08-8.42-9.43-13.38L69 341v0c-28.13 28.18-28.13 73.81-.001 102v0 0c28.22 28.03 73.77 28.03 102 0l58.77-58.76v0c-4.97-2.36-9.5-5.55-13.38-9.43Z"/><path d="M392 48l0-.001c-19.13-.1-37.49 7.46-51 21l-55.92 55.91v0c4.96 2.36 9.47 5.55 13.36 9.45l79.19 79.19h0c3.89 3.88 7.08 8.39 9.45 13.36l55.92-55.91v0c28.16-28.07 28.24-73.66.17-101.83 -13.56-13.61-31.98-21.23-51.18-21.18Z"/></g><g><path d="M275.8 157v0c-6.25-6.25-16.38-6.26-22.63-.01 -.01 0-.01 0-.01 0l-93.34 93.34v0c-6.25 6.24-6.26 16.37-.01 22.62 0 0 0 0 0 0l79.2 79.2v0 0c6.24 6.24 16.37 6.25 22.62 0 0-.01 0-.01 0-.01l93.34-93.34v0c6.24-6.25 6.25-16.38 0-22.63 -.01-.01-.01-.01-.01-.01Zm-56.49 110.31v0c-6.25 6.25-16.38 6.25-22.63 0 -6.26-6.25-6.26-16.38-.01-22.63 6.24-6.26 16.37-6.26 22.62-.01 0 0 0 0 0 0v0c6.24 6.24 6.24 16.37 0 22.62Zm48 48v0c-6.25 6.25-16.38 6.25-22.63 0 -6.26-6.25-6.26-16.38-.01-22.63 6.24-6.26 16.37-6.26 22.62-.01 0 0 0 0 0 0v0c6.24 6.24 6.24 16.37 0 22.62Zm0-96v0c-6.25 6.25-16.38 6.25-22.63 0 -6.26-6.25-6.26-16.38-.01-22.63 6.24-6.26 16.37-6.26 22.62-.01 0 0 0 0 0 0v0c6.24 6.24 6.24 16.37 0 22.62Zm48 48v0c-6.25 6.25-16.38 6.25-22.63 0 -6.26-6.25-6.26-16.38-.01-22.63 6.24-6.26 16.37-6.26 22.62-.01 0 0 0 0 0 0v0c6.24 6.24 6.24 16.37 0 22.62Z"/><path d="M465.61 46.39v0c-40.73-40.52-106.53-40.52-147.25 0l-69.76 69.89v-.001c-1.56 1.56-1.55 4.09.01 5.65 1.09 1.09 2.72 1.45 4.18.92v0c3.72-1.5 7.67-2.36 11.69-2.54v0c12.73-.04 24.95 5.02 33.94 14.06l79.19 79.19v0c9.03 8.98 14.09 21.2 14.06 33.94l-.001 0c-.19 4.01-1.05 7.96-2.54 11.69v0c-.76 2.07.32 4.37 2.39 5.12 1.45.52 3.08.16 4.18-.93l69.89-69.76v0c40.51-40.73 40.51-106.53 0-147.25Z"/><path d="M254.34 386.83v0c-12.73.02-24.94-5.02-33.94-14l-79.19-79.23v0c-3.89-3.89-7.08-8.42-9.43-13.38 -4.59-9.7-1.39-25 2.48-36.9v0c.63-2.12-.57-4.35-2.68-4.99 -1.41-.43-2.93-.05-3.97.98l-77.23 77.04h-.001C9.7 357.01 9.7 422.93 50.37 463.6c40.66 40.66 106.58 40.66 147.25 0l72.75-72.88v0c1.56-1.57 1.55-4.1-.01-5.66 -1.11-1.1-2.75-1.46-4.21-.93 -4.18 1.58-8.4 2.68-11.84 2.68Z"/></g></svg>