<svg viewBox="0 0 512 512" xmlns="http://www.w3.org/2000/svg"><g><path d="M27.71 337.1h-.001c-15.61 15.61-15.61 40.92 0 56.54l90.65 90.65v0h-.001c15.61 15.6 40.92 15.6 56.54-.001l75.1-75.1L102.8 261.99Z"/><path d="M496 147.1v0c.03-10.65-4.21-20.87-11.75-28.38l-91-91v-.001c-15.68-15.67-41.08-15.67-56.75 0l-72.5 72.56 147.72 147.72 72.53-72.53v-.001c7.54-7.51 11.78-17.73 11.75-28.37Z"/><path d="M273.06 386.19l116-116L241.77 123l-116 116Zm19.63-141.5v0c6.24-6.26 16.37-6.26 22.62-.01 6.25 6.24 6.25 16.37 0 22.62s-16.38 6.25-22.63 0c-.01-.01-.01-.01-.01-.01v0c-6.25-6.25-6.25-16.38 0-22.62Zm-48-48v0c6.24-6.26 16.37-6.26 22.62-.01 6.25 6.24 6.25 16.37 0 22.62s-16.38 6.25-22.63 0c-.01-.01-.01-.01-.01-.01v0c-6.25-6.25-6.25-16.38 0-22.62Zm0 96v0c6.24-6.26 16.37-6.26 22.62-.01 6.25 6.24 6.25 16.37 0 22.62s-16.38 6.25-22.63 0c-.01-.01-.01-.01-.01-.01v0c-6.25-6.25-6.25-16.38 0-22.62Zm-25.38-48v0c6.25 6.24 6.25 16.37 0 22.62s-16.38 6.25-22.63 0c-6.26-6.25-6.26-16.38-.01-22.63 0-.01 0-.01 0-.01v0c6.24-6.25 16.37-6.25 22.62 0Z"/></g></svg>