<svg viewBox="0 0 512 512" xmlns="http://www.w3.org/2000/svg"><g stroke-linecap="round" stroke-width="32" stroke="#000" fill="none" stroke-linejoin="round"><rect width="560.87" height="176.25" x="-24.43" y="167.88" rx="88.12" ry="88.12" transform="rotate(-45 255.999 256.002)"/><rect width="176" height="196" x="169.41" y="156.59" rx="32" transform="rotate(45 257.409 254.582)"/></g><g><path d="M256 192a16 16 0 1 0 0 32 16 16 0 1 0 0-32Z"/><path d="M304 240a16 16 0 1 0 0 32 16 16 0 1 0 0-32Z"/><path d="M208 240a16 16 0 1 0 0 32 16 16 0 1 0 0-32Z"/><path d="M256 288a16 16 0 1 0 0 32 16 16 0 1 0 0-32Z"/></g></svg>