<svg viewBox="0 0 512 512" xmlns="http://www.w3.org/2000/svg"><g stroke-linecap="round" stroke-width="32" stroke="#000" fill="none" stroke-linejoin="round"><path d="M384 400.33l35.13-.33h0c15.91-.08 28.79-12.96 28.87-28.87V140.87v0c-.08-15.92-12.96-28.8-28.87-28.87l-35.13.33"/><path d="M128 112l-36.8.33c-15.88 0-27.2 13-27.2 28.87v230.27c0 15.87 11.32 28.86 27.2 28.86L128 400"/><path d="M384 192l0 128"/><path d="M320 160l0 192"/><path d="M256 176l0 160"/><path d="M192 160l0 192"/><path d="M128 192l0 128"/></g></svg>