<svg viewBox="0 0 512 512" xmlns="http://www.w3.org/2000/svg"><g><path d="M444 295.67l-.47-26.07h0c-13.22-.31-26.37-1.9-39.27-4.73l-5 17.35v0c-1.98 7.47-9.64 11.93-17.12 9.95 -7.48-1.98-11.94-9.64-9.96-17.12 .05-.23.12-.45.19-.66l5-17.38v0c-12.55-4.61-24.63-10.42-36.05-17.35l-10.44 14.77v0c-4.47 6.31-13.2 7.81-19.52 3.35 -6.32-4.47-7.82-13.2-3.36-19.52l10.41-14.73v-.001c-11.02-8.94-21.07-18.99-30-30l-14.72 10.44h0c-6.32 4.46-15.06 2.96-19.52-3.36 -4.47-6.32-2.97-15.06 3.35-19.52l14.74-10.42v0c-6.96-11.43-12.78-23.51-17.38-36.06l-17.32 5 -.001 0c-7.43 2.15-15.2-2.12-17.35-9.54 -2.16-7.43 2.11-15.2 9.54-17.35l17.3-5 0-.001c-2.35-10.73-3.83-21.63-4.43-32.59v0q-.17-3-.24-6l-18.22-.33v0c-7.64-.15-13.75-6.37-13.74-14l-.001-.001C135.28 71.44 75.48 128.2 54.96 202.37v0c8.31.51 14.83 7.33 15 15.66l.44 24.43c1.58.05 3.16.11 4.73.2l-.001 0c10.96.6 21.86 2.08 32.59 4.43l5-17.3h0c2.15-7.43 9.92-11.7 17.35-9.54 7.42 2.15 11.69 9.92 9.54 17.35l-5 17.32 -.001 0c12.53 4.6 24.59 10.42 36 17.38l10.35-14.74v0c4.46-6.32 13.19-7.82 19.51-3.36 6.31 4.46 7.81 13.19 3.35 19.51l-10.39 14.73v0c5.5 4.46 10.77 9.21 15.79 14.23h0c5.01 5.01 9.76 10.28 14.23 15.79l14.73-10.41h0c6.32-4.47 15.06-2.96 19.52 3.36 4.46 6.32 2.95 15.06-3.37 19.52l-14.76 10.43v0c6.94 11.42 12.75 23.49 17.37 36.04l17.38-5.05v0c7.42-2.16 15.19 2.11 17.35 9.54 2.15 7.42-2.12 15.19-9.54 17.35l-17.35 5v0c2.76 12.58 4.33 25.4 4.7 38.28l18.27.33v0c8.83.15 15.86 7.44 15.71 16.28l0-.001c-.01.39-.04.79-.08 1.19l-.001 0c75.23-17.92 134.31-76.09 153.39-151.03v-.001c-7.16-.6-12.7-6.52-12.83-13.69Z"/><path d="M301.49 56.2l0 0c-.11 7.64-6.34 13.79-13.99 13.8h-.25l-16.81-.3c.05 1.31.1 2.62.17 3.93v0 -.001c.49 8.84 1.64 17.63 3.44 26.31l16.29-4.74v0c7.56-1.58 14.98 3.27 16.56 10.84 1.4 6.74-2.31 13.51-8.76 15.95l-16.27 4.73v-.001c3.63 9.59 8.09 18.86 13.33 27.69l13.84-9.78v-.001c6.31-4.47 15.05-2.97 19.51 3.35 4.46 6.31 2.96 15.05-3.36 19.51l-13.86 9.79q5.25 6.33 11.12 12.19c3.9 3.91 8 7.6 12.2 11.1l9.78-13.84v0c4.48-6.32 13.24-7.8 19.56-3.32 6.31 4.48 7.79 13.24 3.31 19.56 0 0-.01 0-.01 0l-9.76 13.8h-.001c8.82 5.22 18.08 9.68 27.68 13.33l4.76-16.28v0c2.15-7.43 9.92-11.7 17.35-9.54 7.42 2.15 11.69 9.92 9.54 17.35l-4.73 16.26v-.001c10.18 2.12 20.54 3.34 30.95 3.65l-.16-9v0c-.14-7.73 6.02-14.11 13.75-14.24h.25v0c.86 0 1.73.09 2.59.25h-.001c-15.58-81.02-77.57-145.17-158-163.51 -.06.4-.04.76-.05 1.13Z"/><path d="M208.44 457.55v0c.15-8.84 7.44-15.87 16.28-15.71l16.76.29h0c-.36-10.07-1.58-20.09-3.62-29.95l-16.26 4.72v0c-7.43 2.15-15.2-2.12-17.36-9.55 -2.16-7.43 2.11-15.2 9.54-17.36l16.21-4.7 -.001 0c-3.64-9.6-8.1-18.86-13.33-27.68l-13.8 9.76v0c-6.32 4.46-15.06 2.96-19.52-3.36 -4.47-6.32-2.97-15.06 3.35-19.52 0-.01 0-.01 0-.01l13.84-9.78c-3.5-4.22-7.19-8.3-11.1-12.2 -3.91-3.9-8-7.62-12.19-11.12l-9.79 13.86h0c-4.47 6.31-13.2 7.81-19.52 3.35 -6.32-4.47-7.82-13.2-3.36-19.52l9.78-13.84 -.001 0c-8.83-5.24-18.1-9.7-27.69-13.33l-4.69 16.27 -.001 0c-2.16 7.42-9.93 11.7-17.36 9.54s-11.71-9.93-9.55-17.36c0-.01 0-.01 0-.01l4.73-16.29 -.001 0c-8.68-1.81-17.47-2.96-26.31-3.44 -.89-.05-1.79-.08-2.68-.12l.16 10.59v0c.15 8.83-6.88 16.12-15.71 16.28h-.29v0c-1.33-.01-2.66-.18-3.94-.51h-.001c15.39 81.05 77.25 145.34 157.65 163.87v0c-.21-1.07-.3-2.15-.27-3.23Z"/></g></svg>