<svg viewBox="0 0 512 512" xmlns="http://www.w3.org/2000/svg"><g stroke-width="32" stroke="#000" fill="none" stroke-linejoin="round"><path d="M68.4 192v0c-11.2-.02-20.31 9-20.4 20.2v0c-.03 1.86.24 3.71.8 5.5L100.5 400h0c4.92 17.5 20.91 29.56 39.1 29.5h232.8v0c18.2.01 34.23-12.02 39.3-29.5l51.7-182.3 .6-5.5h-.001c-.1-11.2-9.21-20.22-20.4-20.2H68.39Zm193.32 160.07v0c-23.24-.12-41.98-19.05-41.86-42.28 .11-23.24 19.04-41.98 42.27-41.86 23.15.11 41.85 18.91 41.86 42.06v0c-.12 23.27-19.01 42.07-42.28 42.07Z"/><path d="M160 192l96-128 96 128"/></g></svg>