<svg viewBox="0 0 512 512" xmlns="http://www.w3.org/2000/svg"><g><path d="M48 322.3V189.7v0c.02-16.4 13.3-29.68 29.7-29.7h137.44l24.4-32H77.7v0c-34.06.03-61.67 27.64-61.7 61.7v132.6 -.001c.03 34.05 27.64 61.66 61.7 61.7h96.85v-.001c-.32-2.44-.23-4.92.26-7.32l.15-.75 .21-.73 6.5-23.2H77.7v0c-16.4-.03-29.68-13.31-29.7-29.7Z"/><path d="M386.3 128h-98.64v0c.29 2.39.2 4.82-.27 7.2l-.15.74 -.21.73 -6.54 23.33H386.3v0c16.39.02 29.67 13.3 29.7 29.7v132.6 -.001c-.03 16.39-13.31 29.67-29.7 29.7H247l-24.42 32H386.3v-.001c34.05-.04 61.66-27.65 61.7-61.7v-132.6 0c-.04-34.06-27.65-61.67-61.7-61.7Z"/><path d="M162.65 294.16v0c-9.05 0-17.35-5.01-21.56-13v0c-4.37-8.21-3.82-18.16 1.42-25.83l.31-.46 .33-.44L197.62 183H89.69v0c-11.05 0-20 8.95-20 20v106 0c0 11.04 8.95 20 20 20h98.42l9.78-34.86Z"/><path d="M276.07 280.89l27.07-35.49v0c.38-.58.64-1.23.77-1.91h-.001c.04-.22.06-.44.08-.66v-.001c.02-.44 0-.87-.08-1.29v-.001c-.12-.63-.35-1.22-.68-1.75v0c-.22-.35-.49-.67-.78-.95v0c-.15-.15-.31-.27-.48-.38v0c-.34-.24-.72-.43-1.11-.55v0c-.43-.14-.87-.21-1.31-.2h-61.62l12.12-43.21 3.23-11.5 6.21-22.16 .51-1.84 7.79-27.76v0 0c.03-.19.04-.37.05-.55 0-.06 0-.11 0-.16s0-.26-.05-.38 0-.09 0-.14h0c-.05-.16-.1-.31-.17-.45v0 0c-.08-.14-.17-.27-.26-.39l-.09-.1v0c-.08-.09-.17-.16-.25-.23l-.1-.08v0c-.13-.09-.26-.17-.39-.24v0 0c-.14-.07-.27-.11-.41-.14h-.13 -.33 -.13v0c-.15-.02-.31-.02-.45 0v0 0c-.15.03-.29.08-.42.15l-.13.07 -.3.21 -.11.1v0c-.14.12-.26.26-.36.41v0l-18 23.63 -13.14 17.22 -9.85 12.83 -63.71 83.55v0c-.17.25-.32.52-.44.8h0c-.16.34-.28.71-.35 1.09h0c-.09.42-.12.85-.08 1.29v0c.06 1.47.8 2.84 2 3.71h-.001c.17.11.35.21.54.31v0c.58.28 1.23.43 1.89.43h61.62l-29.82 106.42v-.001c-.02.18-.02.37 0 .56 0 0 0 .1 0 .15v0c0 .12.02.25.06.38v0c-.01.04-.01.09 0 .14v0c.04.15.09.3.17.45v0h-.001c.07.13.16.25.26.38l.09.1 .25.24v0c.03.02.07.04.1.08h-.001c.12.08.25.16.39.23v0h0c.13.05.26.1.41.14h.13 -.001c.1 0 .22 0 .33 0h.13v0c.15-.01.3-.03.45-.06v0 0c.14-.04.27-.1.41-.16l.13-.07 .3-.21 .11-.09h0c.13-.13.25-.27.36-.41v0l23.32-30.45 17.53-23Z"/><path d="M319.5 256.93l-.46.6L264.51 329h109.8v0c11.04 0 20-8.96 20-20V203v0c0-11.05-8.96-20-20-20H274.05l-9.74 34.73h35.24v0c8.95-.02 17.19 4.89 21.45 12.77v-.001c4.42 8.12 4.04 18.02-1 25.79Z"/><path d="M480 202.67v0c-8.84 0-16 7.16-16 16v74.66 0c0 8.83 7.16 16 16 16 8.83 0 16-7.17 16-16v-74.66 0c0-8.84-7.17-16-16-16Z"/></g></svg>