<svg viewBox="0 0 512 512" xmlns="http://www.w3.org/2000/svg"><g><path d="M306.68 237.62h-66.5l15.33-54.7 6.43-22.92 3.94-14 4.29-15.33v0 0c.02-.15.04-.3.06-.44 0-.06 0-.12 0-.19v0c0-.08 0-.16 0-.23v0c0-.08 0-.17 0-.24v-.14c0-.1-.07-.19-.11-.29v-.05 0c-.37-.79-1.14-1.31-2-1.35h-.1v0c-.73.02-1.4.39-1.8 1v0l-12.5 17.15 -18.82 25.55 -8.36 11.48 -35.41 48.6L160 274.26h66.44l-30 107v0c-.03.15-.05.31-.06.48 0 0 0 .06 0 .1v-.001c-.01.11-.01.22 0 .34v0c-.01.02-.01.06 0 .09h0c.01.1.04.21.07.32v.06h-.001c.03.11.08.21.14.32v0h-.001c.32.58.87 1 1.52 1.16h.11 .33 .13v0c.48-.02.94-.19 1.31-.5l.06-.05h-.001c.15-.14.29-.29.42-.45v0l22.83-31.13 13-17.82Z"/><path d="M289.78 134.55l-.14.74 -.21.73 -6.72 24H417V352H248.05l-23.33 32H449V128H290.13v0c.2 2.18.08 4.39-.35 6.55Z"/><path d="M49 160h169.49l23.31-32H17v256h159.49v0c-.22-2.23-.11-4.48.34-6.67l.15-.75 .2-.73 6.69-23.85H49Z"/><path d="M264.76 329.08l130.55 0 0-146.16 -119.03 0 -9.73 34.7 40.13 0 39.32 0 -23.16 31.78 -58.08 79.68Z"/><path d="M160 294.26l-39.31 0 23.15-31.78 57.95-79.56 -131.1 0 0 146.16 119.6 0 9.77-34.82 -40.06 0Z"/><path d="M465 202.67h32v106.67h-32Z"/></g></svg>