<svg viewBox="0 0 512 512" xmlns="http://www.w3.org/2000/svg"><g stroke-linecap="round" stroke-width="32" stroke="#000" fill="none" stroke-linejoin="round"><path d="M384 240H96V136v0c.06-22.07 17.93-39.94 40-40h240v0c22.06.06 39.93 17.93 40 40v104Z"/><path d="M48 416V304v0c.1-35.31 28.69-63.9 64-64h288 0c35.3.1 63.89 28.69 64 64v112"/><path d="M48 416v-8 0c.03-13.24 10.76-23.97 24-24h368v0c13.23.03 23.96 10.76 24 24v8"/><path d="M112 240v-16 0c.04-17.66 14.34-31.96 32-32h80v0c17.65.04 31.95 14.34 32 32v16"/><path d="M256 240v-16 0c.04-17.66 14.34-31.96 32-32h80v0c17.65.04 31.95 14.34 32 32v16"/></g></svg>