<svg viewBox="0 0 512 512" xmlns="http://www.w3.org/2000/svg"><path fill="none" stroke="#000" stroke-linecap="round" stroke-linejoin="round" stroke-width="32" d="M352 200v240 -.001c-.07 22.06-17.94 39.93-40 40H136v0c-22.07-.07-39.94-17.94-40-40v-216"/><path fill="none" stroke="#000" stroke-linecap="round" stroke-miterlimit="10" stroke-width="32" d="M352 224h40 -.001c30.89.08 55.91 25.1 56 56v80 0c-.09 30.89-25.11 55.91-56 56h-40"/><g stroke-linecap="round" stroke-width="32" stroke="#000" fill="none" stroke-linejoin="round"><path d="M224 256l0 160"/><path d="M288 256l0 160"/><path d="M160 256l0 160"/><path d="M320 112v0c26.5 0 48 21.49 48 48 0 26.5-21.5 48-48 48 -13.25 0-29.31-7.31-38-16H160c-8 22-27 32-48 32v0c-26.51 0-48-21.5-48-48 0-26.51 21.49-48 48-48v-.001c9.36.39 18.39 3.52 26 9"/></g><g stroke-linecap="round" stroke="#000" stroke-miterlimit="10" stroke-width="32" fill="none"><path d="M91.86 132.43h0c-15.7-15.55-15.82-40.88-.27-56.57 15.54-15.7 40.87-15.82 56.56-.27 1.51 1.49 2.9 3.11 4.15 4.83 0 0 7.68 10.57 7.68 15.57"/><path d="M145.83 64.71C163.22 44.89 187.57 32 216 32c52.38 0 94 42.84 94 95.21v0c0 5.96-.56 11.92-1.67 17.79"/></g></svg>