<svg viewBox="0 0 512 512" xmlns="http://www.w3.org/2000/svg"><path d="M448 208h-80v-5.74 0c23.38-26.46 20.9-66.86-5.55-90.25 -11.29-9.99-25.75-15.66-40.81-16.02h0c-5.11-17.82-14.59-34.08-27.59-47.29v-.001c-20.53-21.01-48.69-32.81-78.06-32.71 -29.91 0-57.78 12.28-79 34.67v0c-29.48-9.38-60.97 6.9-70.35 36.37 -4.32 13.57-3.31 28.28 2.83 41.13 -1 .86-1.91 1.74-2.83 2.66v0c-12.06 12.02-18.78 28.39-18.66 45.42v0c.01 17.75 7.56 34.67 20.77 46.54h-.001c3.43 3.12 7.2 5.87 11.23 8.2v249 0c0 8.83 7.16 16 16 16h256v0c8.83 0 16-7.17 16-16v-48h80v0c8.83 0 16-7.17 16-16v-192 0c0-8.84-7.17-16-16-16ZM176 432h-32V240h32Zm64 0h-32V240h32Zm64 0h-32V240h32Zm16-240c-8.33 0-20.55-5.18-26.69-11.31l-4.68-4.69H148.79L145 186.53c-5.81 16-18.83 20.41-28.73 21.29h-.001c-9.47.85-18.87-2.3-25.91-8.67v0c-6.55-5.86-10.3-14.22-10.32-23v0c-.06-8.52 3.3-16.7 9.33-22.71 .16-.17.33-.32.5-.49v0c5.93-5.75 13.87-8.96 22.13-8.95 .09 0 9.12.34 16.4 5.8l12.8 9.6 19.2-25.6 -12.8-9.6v0c-10.37-7.56-22.78-11.82-35.6-12.2v0c-4.71 0-9.41.52-14 1.55v-.001c-5.25-12.18.37-26.3 12.55-31.54 10.27-4.43 22.23-1.17 28.84 7.85l.23.35 .4.46v0c2.08 2.72 3.77 5.73 5 8.94l5.62 15 30-11.24 -5.62-15h-.001c-2.43-6.39-5.8-12.37-10-17.74 -.38-.52-.79-1-1.19-1.51 14.54-13.68 32.8-21.13 52.16-21.13v0c20.78-.06 40.71 8.3 55.23 23.18v0c18.23 18.71 26.21 45.13 21.38 70.82l-3 15.72 31.43 6 3-15.72v0c1.21-6.41 1.87-12.91 1.96-19.43v0c17.35 3.32 28.73 20.08 25.41 37.44 -2.89 15.07-16.07 25.98-31.42 25.98Zm112 208h-64V240h64Z"/></svg>