<svg viewBox="0 0 512 512" xmlns="http://www.w3.org/2000/svg"><g><path d="M388 448v0c-50.82 0-92-41.19-92-92 0-50.82 41.18-92 92-92 50.81 0 92 41.18 92 92v0c-.06 50.78-41.22 91.94-92 92Zm0-152v0c-33.14 0-60 26.86-60 60 0 33.13 26.86 60 60 60 33.13 0 60-26.87 60-60v0c-.04-33.13-26.88-59.97-60-60Z"/><path d="M124 448v0c-50.82 0-92-41.19-92-92 0-50.82 41.18-92 92-92 50.81 0 92 41.18 92 92v0c-.06 50.78-41.22 91.94-92 92Zm0-152v0c-33.14 0-60 26.86-60 60 0 33.13 26.86 60 60 60 33.13 0 60-26.87 60-60v0c-.04-33.13-26.88-59.97-60-60Z"/><path d="M320 128v0c17.61.06 31.93-14.17 32-31.78 0-.11 0-.22-.01-.33v0c.19-17.43-13.78-31.71-31.2-31.9 -.21-.01-.41-.01-.61-.01v0c-17.68-.06-32.05 14.22-32.1 31.9 -.06 17.67 14.22 32.04 31.9 32.1 0 0 0 0 0 0Z"/><path d="M367.55 192h-43.76v0c-1.47 0-2.81-.8-3.51-2.08l-31.74-58.17v0 0c-7.87-15.21-26.58-21.16-41.78-13.29 -2.81 1.44-5.37 3.31-7.61 5.53v0l-69.86 70.4v0c-5.87 5.99-9.21 14.01-9.3 22.4 0 17.4 12.6 23.6 18.5 27.1 28.5 16.42 48.57 28.43 59.58 35.1h-.001c1.19.72 1.91 2.01 1.92 3.41v69.12c0 8.61 6.62 16 15.23 16.43v0c8.82.42 16.32-6.39 16.75-15.22 .01-.25.01-.5.01-.75v-86h-.001c0-5.16-2.48-10-6.66-13l-37-26.61v0c-1.8-1.29-2.22-3.79-.93-5.59 .1-.15.22-.29.34-.42l42-44.79v0c1.5-1.62 4.03-1.7 5.65-.2 .3.28.56.61.76.98l21.82 39.38v0c2.82 5.08 8.18 8.23 14 8.23h56v0c8.83.01 16-7.15 16.01-15.99 0-.27-.01-.53-.02-.79 -.42-8.61-7.84-15.23-16.45-15.23Z"/></g></svg>