<svg viewBox="0 0 512 512" xmlns="http://www.w3.org/2000/svg"><path d="M388 160.77v0c.21-5.57-1.91-10.98-5.85-14.91l-112-112v0c-7.81-7.82-20.47-7.83-28.29-.02 -3.76 3.75-5.87 8.84-5.87 14.15v164.52l-79-67.71v0c-8.58-6.97-21.17-5.66-28.14 2.91 -6.72 8.26-5.78 20.33 2.13 27.46l94.27 80.81 -94.27 80.81h-.001c-8.58 6.96-9.88 19.56-2.92 28.13 6.96 8.57 19.56 9.87 28.13 2.91 .26-.22.52-.44.78-.67l79-67.71v164.52h0c0 11.04 8.95 19.99 20 19.99 5.3-.01 10.38-2.11 14.13-5.86l112-112v0c7.8-7.82 7.8-20.48-.01-28.29 -.37-.37-.75-.72-1.14-1.05l-94.27-80.81 94.27-80.81v0c4.24-3.63 6.77-8.85 7-14.42Zm-49.42 192.36L276 415.72V299.49ZM276 212.52V96.28l62.59 62.59Z"/></svg>