<svg viewBox="0 0 512 512" xmlns="http://www.w3.org/2000/svg"><g><path d="M199.89 336l-15.25-5.62h-.001c-12.09-5.5-22.97-13.35-32-23.08 -13.93-14.9-29.29-40.71-23.38-79.11 5.2-33.73 44.2-74.21 69.34-97.87 27.24-25.62 66-65.85 64.15-99.15l-.75-15.17h15.18c51.35 0 106.82 37.62 106.82 98.41 0 45.57-22 77.61-68.91 106.9 -8 5-16.44 9.66-25.42 14.53 -30.63 16.62-75.29 49.83-85.73 85.32Z"/><path d="M181.19 113.59C201 95 218.91 78.15 227.62 59.79q-2.76-1.68-5.7-3.09c-11.87-5.69-26.1-8.34-44.76-8.34h-.42 -16.52l.56 16.49c.47 14.06-6.06 22.51-14.33 33.21C137.8 109.26 128 121.94 128 141c0 10.23 1.29 18.76 4.2 26.36q3.5-5.31 7.61-10.63c12.19-15.73 27.05-29.68 41.38-43.14Z"/><path d="M330.34 239.85c-9.31 5.9-19 11.14-29.25 16.71 -32.65 17.69-63.48 34.44-73.23 67.44l-.6 2h-.001c14.39 6.58 30.04 9.99 45.87 10 29.66 0 57.45-11.13 78.24-31.36v0c20.99-20.36 32.77-48.4 32.63-77.64v-.001c-.08-10.58-1.97-21.07-5.59-31 -11.35 16.18-27.14 30.58-48.07 43.85Z"/><path d="M268.72 360h-25.44v0c-1.91 0-3.55 1.34-3.92 3.22l-25.36 128v0c-.44 2.16.97 4.27 3.14 4.7 .25.05.51.07.77.07h76.26v0c2.2-.01 3.99-1.8 3.99-4.01 -.01-.27-.03-.53-.08-.78l-25.41-128h-.001c-.38-1.89-2.05-3.25-3.97-3.22Z"/><path d="M325.68 354.32l-11.36 11.36v0c-1.35 1.34-1.56 3.46-.5 5.05l59.47 89.21v0c1.22 1.83 3.7 2.33 5.54 1.11 .22-.15.42-.32.61-.51l41.1-41.1v0c1.56-1.57 1.56-4.1 0-5.66 -.19-.19-.4-.36-.62-.51l-89.21-59.47v0c-1.59-1.06-3.71-.85-5.05.5Z"/><path d="M388 336v0c-2.21 0-4 1.79-4 4v8.61h-.001c-.01 1.95 1.41 3.62 3.34 3.95l88 14.66v-.001c2.17.36 4.24-1.11 4.6-3.29 .03-.22.05-.44.05-.66v-23.28 0c0-2.21-1.8-4-4-4Z"/><path d="M186.32 354.32l11.36 11.36v0c1.34 1.34 1.55 3.46.5 5.05l-59.47 89.21v0c-1.23 1.83-3.71 2.33-5.55 1.11 -.23-.15-.43-.32-.62-.51l-41.1-41.1h0c-1.57-1.57-1.57-4.1-.01-5.66 .18-.19.39-.36.61-.51l89.21-59.47v0c1.58-1.06 3.7-.85 5.05.5Z"/><path d="M124 336H36v0c-2.21 0-4 1.79-4 4v23.28 0c0 2.2 1.79 3.99 4 3.99 .21-.01.43-.02.65-.06l88-14.66v-.001c1.92-.33 3.34-2 3.34-3.95v-8.61 0c0-2.21-1.8-4-4-4Z"/></g></svg>