<svg viewBox="0 0 512 512" xmlns="http://www.w3.org/2000/svg"><g><path d="M273.38 368.33c-.81-9.23-8.86-16.44-18.55-16.44v0c-8.6-.06-16.12 5.77-18.2 14.11v0l-18.2 88.38v0c-.61 2.58-.92 5.22-.93 7.88 0 19.93 16.68 33.78 37.33 33.78s37.34-13.85 37.34-33.78v0c-.02-3.2-.45-6.38-1.29-9.45Z"/><path d="M411.05 407.86v0c-1.86-1.63-3.85-3.08-5.95-4.35l-69.53-48.59c-6.77-4.25-14-4.13-19.25 1v0c-4.73 4.5-5.57 11.73-2 17.2l52.5 69h0c1.19 1.67 2.53 3.24 4 4.69 9.1 10.17 29.28 10.73 40.37 0 10.94-10.91 10.81-30.35-.14-38.95Z"/><path d="M463.3 335.88h-70.42c-4.55 0-8.88 3.35-8.88 8.16 0 4.81 2.95 7.85 6.92 9.16l66.43 20.55C467 376 480 367.4 480 356.66c0-13.66-7.6-20.78-16.7-20.78Z"/><path d="M128.22 344c0-5-4.55-8.16-9.45-8.16H48.35c-8.87 0-16.35 9.58-16.35 20.32s12.62 19.84 22.3 17.59l67.43-20.55c4.39-1.31 6.49-4.2 6.49-9.2Z"/><path d="M176.55 355L107 403.38v0c-2.17 1.21-4.18 2.67-6 4.35l0-.001c-10.65 9.9-11.26 26.56-1.35 37.21 .43.46.88.91 1.34 1.34v0c11.32 10.69 29.03 10.69 40.36 0v0c1.48-1.43 2.82-3 4-4.68l52.54-68.61c3.5-5.58 2.92-12.49-2-17.06v0c-5.36-5-13.54-5.4-19.35-.94Z"/></g><g stroke-linecap="round" stroke="#000" stroke-miterlimit="10" stroke-width="32" fill="none"><path d="M368 125.09c0-55.7-49.22-89.16-94.2-93.06v0c-4.41-.39-8.29 2.87-8.67 7.27 -.02.14-.03.28-.03.43 -3.12 76-109.38 110.69-119.87 178.68 -7 45.4 16.65 72.37 34.31 85.78h-.001c7 5.32 17 3.96 22.33-3.05 .61-.81 1.14-1.67 1.59-2.58 22.5-45.86 74.33-63.49 109.72-85.94 42.88-27.2 54.8-56.44 54.8-87.55Z"/><path d="M240 95.7c-12.82-23-30.51-31-59.16-31.63v-.001c-2.08-.12-3.88 1.43-4.06 3.51 -.95 34.22-32.78 44.85-32.78 73.15 0 19.37 5.39 29 17.16 39.28"/><path d="M352.45 178.76c8.6 14.31 15.55 30.08 15.55 48 0 52.52-42.47 93.1-94.86 93.1v0c-24.25.01-47.58-9.3-65.14-26"/></g></svg>