<svg viewBox="0 0 512 512" xmlns="http://www.w3.org/2000/svg"><g><path d="M400 0H176v0c-29.19.02-54.67 19.75-62 48h228v0c40.86 0 74 33.13 74 74v304.89l22 17.6v0c5.6 4.48 13.51 4.69 19.34.5v-.001c4.25-3.14 6.73-8.14 6.66-13.42V63.99v0c0-35.35-28.66-64-64-64Z"/><path d="M320 80H112v0c-35.35 0-64 28.65-64 64v351.62l-.001-.001c-.09 5.26 2.37 10.24 6.6 13.38h0c5.95 4.32 14.08 4.02 19.71-.71l141.69-119.37 141.69 119.32 0-.001c5.58 4.7 13.65 5.03 19.6.79v-.001c4.27-3.14 6.77-8.14 6.71-13.44V143.99v0c0-35.35-28.66-64-64-64Z"/></g></svg>