<svg viewBox="0 0 512 512" xmlns="http://www.w3.org/2000/svg"><path d="M414.39 97.61v-.001C327.34 9.69 185.51 8.99 97.61 96.04 9.7 183.089 9 324.919 96.05 412.82c.51.52 1.03 1.04 1.55 1.55h-.001c87.04 87.9 228.87 88.6 316.78 1.55 87.9-87.05 88.6-228.88 1.55-316.78 -.52-.53-1.04-1.05-1.56-1.56ZM286 230v0c-15.47 0-28-12.54-28-28 0-15.47 12.53-28 28-28 15.46 0 28 12.53 28 28v0c0 15.46-12.54 28-28 28Zm8-76v0c-15.47 0-28-12.54-28-28 0-15.47 12.53-28 28-28 15.46 0 28 12.53 28 28v0c0 15.46-12.54 28-28 28Zm68 44v0c-15.47 0-28-12.54-28-28 0-15.47 12.53-28 28-28 15.46 0 28 12.53 28 28v0c0 15.46-12.54 28-28 28Z"/></svg>