<svg viewBox="0 0 512 512" xmlns="http://www.w3.org/2000/svg"><g stroke-linecap="round" stroke-width="32" stroke="#000" fill="none" stroke-linejoin="round"><path d="M370 378c28.89 23.52 46 46.07 46 86"/><path d="M142 378c-28.89 23.52-46 46.06-46 86"/><path d="M384 208c28.89-23.52 32-56.07 32-96"/><path d="M128 206c-28.89-23.52-32-54.06-32-94"/><path d="M464 288.13l-80 0"/><path d="M128 288.13l-80 0"/><path d="M256 192l0 256"/><path d="M256 448v0c-70.4 0-128-57.6-128-128v-96.07c0-65.07 57.6-96 128-96v0c70.4 0 128 25.6 128 96V320c0 70.4-57.6 128-128 128Z"/><path d="M179.43 143.52v0c-2.01-5.02-3.17-10.34-3.43-15.73h-.001c.11-44.02 35.77-79.68 79.79-79.79h.42v0c44.01.11 79.67 35.77 79.79 79.79v0c-.2 4.91-1.25 9.75-3.12 14.3"/></g></svg>