<svg viewBox="0 0 512 512" xmlns="http://www.w3.org/2000/svg"><path d="M469.54 120.52v0 0c-4.05-7.86-13.69-10.96-21.55-6.92 -1.48.75-2.83 1.74-4 2.91l-61.44 61.48v0c-6.28 6.18-16.36 6.18-22.63 0l-26.56-26.6v0c-6.25-6.25-6.26-16.38-.01-22.63 0-.01 0-.01 0-.01l61.18-61.19v0c6.24-6.25 6.24-16.38 0-22.63 -1.38-1.38-3.01-2.5-4.79-3.3v0c-46.21-20.66-103.89-9.88-140.26 26.22 -30.9 30.68-40.11 78.62-25.25 131.53v0c1.63 5.75-.11 11.93-4.49 16L53.26 367.43h-.001c-26.38 23.67-28.56 64.24-4.88 90.61 23.67 26.37 64.24 28.55 90.61 4.87 1.7-1.54 3.32-3.16 4.85-4.86l153.68-166.85v0c4-4.33 10.07-6.09 15.77-4.57v0c15.06 4.12 30.6 6.26 46.22 6.37 33.4 0 62.71-10.81 83.85-31.64 39.15-38.57 45.12-103.99 26.13-140.89ZM99.48 447.15v0c-17.57 1.91-33.37-10.78-35.29-28.34 -1.92-17.57 10.77-33.37 28.33-35.29 17.56-1.92 33.36 10.77 35.28 28.33 .25 2.3.25 4.62 0 6.93h0c-1.63 14.92-13.42 26.72-28.34 28.35Z"/></svg>