<svg viewBox="0 0 512 512" xmlns="http://www.w3.org/2000/svg"><path fill="none" stroke="#000" stroke-linecap="round" stroke-miterlimit="10" stroke-width="32" d="M393.87 190v0c-12.52 12.43-32.74 12.43-45.25 0l-26.57-26.57v0c-12.46-12.52-12.46-32.75 0-45.26L382.19 58v-.001c.39-.39.41-1.02.02-1.42 -.1-.1-.21-.18-.33-.23 -38.82-16.64-89.15-8.16-121.11 23.57 -30.58 30.35-32.32 76-21.12 115.84v0c3.24 11.54-.26 23.93-9.06 32.08L63.99 379.98h0c-19.91 17.64-21.74 48.09-4.09 68 17.64 19.9 48.09 21.73 68 4.08 1.44-1.28 2.8-2.65 4.08-4.09l153.86-167v0c8.03-8.66 20.18-12.17 31.6-9.13 39.54 10.59 84.54 8.6 114.72-21.19 32.49-32 39.5-88.56 23.75-120.93v0c-.25-.5-.85-.7-1.35-.45 -.1.04-.19.11-.26.18Z"/><path d="M96 400a16 16 0 1 0 0 32 16 16 0 1 0 0-32Z"/></svg>