<svg viewBox="0 0 512 512" xmlns="http://www.w3.org/2000/svg"><g stroke-linecap="round" stroke-width="32" stroke="#000" fill="none" stroke-linejoin="round"><path d="M176 416l0 64"/><path d="M80 32h192v0c17.67 0 32 14.32 32 32v412 0c0 2.2-1.8 4-4 4H48v0V64v0c0-17.68 14.32-32 32-32Z"/><path d="M320 192h112v0c17.67 0 32 14.32 32 32v256 0H304v0V208v0c0-8.84 7.16-16 16-16Z"/></g><g><path d="M98.08 431.87v0c-8.77 1.14-16.8-5.03-17.94-13.79 -1.15-8.77 5.02-16.8 13.79-17.94 8.76-1.15 16.79 5.02 17.93 13.79 .18 1.37.18 2.77 0 4.14v0c-.95 7.19-6.6 12.84-13.79 13.79Z"/><path d="M98.08 351.87v0c-8.77 1.14-16.8-5.03-17.94-13.79 -1.15-8.77 5.02-16.8 13.79-17.94 8.76-1.15 16.79 5.02 17.93 13.79 .18 1.37.18 2.77 0 4.14v0c-.95 7.19-6.6 12.84-13.79 13.79Z"/><path d="M98.08 271.87v0c-8.77 1.14-16.8-5.03-17.94-13.79 -1.15-8.77 5.02-16.8 13.79-17.94 8.76-1.15 16.79 5.02 17.93 13.79 .18 1.37.18 2.77 0 4.14v0c-.95 7.19-6.6 12.84-13.79 13.79Z"/><path d="M98.08 191.87v0c-8.77 1.14-16.8-5.03-17.94-13.79 -1.15-8.77 5.02-16.8 13.79-17.94 8.76-1.15 16.79 5.02 17.93 13.79 .18 1.37.18 2.77 0 4.14v0c-.95 7.19-6.6 12.84-13.79 13.79Z"/><path d="M98.08 111.87v0c-8.77 1.14-16.8-5.03-17.94-13.79 -1.15-8.77 5.02-16.8 13.79-17.94 8.76-1.15 16.79 5.02 17.93 13.79 .18 1.37.18 2.77 0 4.14v0c-.95 7.19-6.6 12.84-13.79 13.79Z"/><path d="M178.08 351.87v0c-8.77 1.14-16.8-5.03-17.94-13.79 -1.15-8.77 5.02-16.8 13.79-17.94 8.76-1.15 16.79 5.02 17.93 13.79 .18 1.37.18 2.77 0 4.14v0c-.95 7.19-6.6 12.84-13.79 13.79Z"/><path d="M178.08 271.87v0c-8.77 1.14-16.8-5.03-17.94-13.79 -1.15-8.77 5.02-16.8 13.79-17.94 8.76-1.15 16.79 5.02 17.93 13.79 .18 1.37.18 2.77 0 4.14v0c-.95 7.19-6.6 12.84-13.79 13.79Z"/><path d="M178.08 191.87v0c-8.77 1.14-16.8-5.03-17.94-13.79 -1.15-8.77 5.02-16.8 13.79-17.94 8.76-1.15 16.79 5.02 17.93 13.79 .18 1.37.18 2.77 0 4.14v0c-.95 7.19-6.6 12.84-13.79 13.79Z"/><path d="M178.08 111.87v0c-8.77 1.14-16.8-5.03-17.94-13.79 -1.15-8.77 5.02-16.8 13.79-17.94 8.76-1.15 16.79 5.02 17.93 13.79 .18 1.37.18 2.77 0 4.14v0c-.95 7.19-6.6 12.84-13.79 13.79Z"/><path d="M258.08 431.87v0c-8.77 1.14-16.8-5.03-17.94-13.79 -1.15-8.77 5.02-16.8 13.79-17.94 8.76-1.15 16.79 5.02 17.93 13.79 .18 1.37.18 2.77 0 4.14v0c-.95 7.19-6.6 12.84-13.79 13.79Z"/><path d="M258.08 351.87v0c-8.77 1.14-16.8-5.03-17.94-13.79 -1.15-8.77 5.02-16.8 13.79-17.94 8.76-1.15 16.79 5.02 17.93 13.79 .18 1.37.18 2.77 0 4.14v0c-.95 7.19-6.6 12.84-13.79 13.79Z"/><path d="M258.08 271.87v0c-8.77 1.14-16.8-5.03-17.94-13.79 -1.15-8.77 5.02-16.8 13.79-17.94 8.76-1.15 16.79 5.02 17.93 13.79 .18 1.37.18 2.77 0 4.14v0c-.95 7.19-6.6 12.84-13.79 13.79Z"/><path d="M256 159.97a15.95 16.03 0 1 0 0 32.06 15.95 16.03 0 1 0 0-32.06Z" transform="rotate(-45 255.99 175.996)"/><path d="M258.08 111.87v0c-8.77 1.14-16.8-5.03-17.94-13.79 -1.15-8.77 5.02-16.8 13.79-17.94 8.76-1.15 16.79 5.02 17.93 13.79 .18 1.37.18 2.77 0 4.14v0c-.95 7.19-6.6 12.84-13.79 13.79Z"/><path d="M400 400v0c-8.84 0-16 7.16-16 16 0 8.83 7.16 16 16 16 8.83 0 16-7.17 16-16v0c0-8.84-7.17-16-16-16Z"/><path d="M400 320v0c-8.84 0-16 7.16-16 16 0 8.83 7.16 16 16 16 8.83 0 16-7.17 16-16v0c0-8.84-7.17-16-16-16Z"/><path d="M400 240v0c-8.84 0-16 7.16-16 16 0 8.83 7.16 16 16 16 8.83 0 16-7.17 16-16v0c0-8.84-7.17-16-16-16Z"/><path d="M336 400v0c-8.84 0-16 7.16-16 16 0 8.83 7.16 16 16 16 8.83 0 16-7.17 16-16v0c0-8.84-7.17-16-16-16Z"/><path d="M336 320v0c-8.84 0-16 7.16-16 16 0 8.83 7.16 16 16 16 8.83 0 16-7.17 16-16v0c0-8.84-7.17-16-16-16Z"/><path d="M336 240v0c-8.84 0-16 7.16-16 16 0 8.83 7.16 16 16 16 8.83 0 16-7.17 16-16v0c0-8.84-7.17-16-16-16Z"/></g></svg>