<svg viewBox="0 0 512 512" xmlns="http://www.w3.org/2000/svg"><rect width="416" height="384" x="48" y="80" rx="48" fill="none" stroke="#000" stroke-linejoin="round" stroke-width="32"/><g><path d="M296 208a24 24 0 1 0 0 48 24 24 0 1 0 0-48Z"/><path d="M376 208a24 24 0 1 0 0 48 24 24 0 1 0 0-48Z"/><path d="M296 288a24 24 0 1 0 0 48 24 24 0 1 0 0-48Z"/><path d="M376 288a24 24 0 1 0 0 48 24 24 0 1 0 0-48Z"/><path d="M136 288a24 24 0 1 0 0 48 24 24 0 1 0 0-48Z"/><path d="M216 288a24 24 0 1 0 0 48 24 24 0 1 0 0-48Z"/><path d="M136 368a24 24 0 1 0 0 48 24 24 0 1 0 0-48Z"/><path d="M216 368a24 24 0 1 0 0 48 24 24 0 1 0 0-48Z"/><path d="M296 368a24 24 0 1 0 0 48 24 24 0 1 0 0-48Z"/></g><g stroke-linecap="round" stroke-width="32" stroke="#000" fill="none" stroke-linejoin="round"><path d="M128 48l0 32"/><path d="M384 48l0 32"/></g><path fill="none" stroke="#000" stroke-linejoin="round" stroke-width="32" d="M464 160l-416 0"/></svg>