<svg viewBox="0 0 512 512" xmlns="http://www.w3.org/2000/svg"><path d="M478.94 370.14c-5.22-5.56-23.65-22-57.53-43.75 -34.13-21.94-59.3-35.62-66.52-38.81h-.001c-1.3-.58-2.81-.39-3.92.49 -11.63 9.07-31.21 25.73-32.26 26.63 -6.78 5.81-6.78 5.81-12.33 4 -9.76-3.2-40.08-19.3-66.5-45.78s-43.35-57.55-46.55-67.3c-1.83-5.56-1.83-5.56 4-12.34 .9-1.05 17.57-20.63 26.64-32.25v-.001c.87-1.12 1.06-2.63.49-3.92 -3.19-7.23-16.87-32.39-38.81-66.52 -21.78-33.87-38.2-52.3-43.76-57.52v0c-1.04-.99-2.54-1.32-3.89-.87v0c-19.44 6.67-38.19 15.2-56 25.45l-.001-.001c-17.2 9.99-33.48 21.49-48.65 34.35h0c-1.08.91-1.57 2.35-1.26 3.74 2.09 9.74 12.08 50.4 43.08 106.72 31.63 57.48 53.55 86.93 100 133.22 46.45 46.29 76.83 69.53 134.37 101.16 56.32 31 97 41 106.72 43.07v0c1.38.3 2.82-.19 3.75-1.26v0c12.85-15.18 24.34-31.46 34.34-48.65l0-.001c10.24-17.82 18.76-36.57 25.45-56h-.001c.43-1.35.1-2.83-.86-3.86Z"/></svg>