<svg viewBox="0 0 512 512" xmlns="http://www.w3.org/2000/svg"><path fill="none" stroke="#000" stroke-linecap="round" stroke-linejoin="round" stroke-width="32" d="M350.54 148.68l-26.62-42.06C318.31 100.08 310.62 96 302 96h-92c-8.62 0-16.31 4.08-21.92 10.62l-26.62 42.06C155.85 155.23 148.62 160 140 160H80v0c-17.68 0-32 14.32-32 32v192 0c0 17.67 14.32 32 32 32h352v0c17.67 0 32-14.33 32-32V192v0c0-17.68-14.33-32-32-32h-59c-8.65 0-16.85-4.77-22.46-11.32Z"/><path fill="none" stroke="#000" stroke-miterlimit="10" stroke-width="32" d="M256 192a80 80 0 1 0 0 160 80 80 0 1 0 0-160Z"/><path fill="none" stroke="#000" stroke-linecap="round" stroke-linejoin="round" stroke-width="32" d="M124 158l0-22 -24 0 0 22"/></svg>