<svg viewBox="0 0 512 512" xmlns="http://www.w3.org/2000/svg"><path d="M494.26 276.22c-3.6-40.41-9.53-48.28-11.77-51.24 -5.15-6.84-13.39-11.31-22.11-16v0 0c-1.76-.93-2.43-3.11-1.5-4.87 .15-.3.35-.58.58-.82v0c3.26-3.32 4.92-7.9 4.53-12.53v0c-.78-8.43-7.89-14.85-16.35-14.77h-15.6v0c-.67 0-1.34.04-2 .13v-.001c-.46-.2-.93-.36-1.41-.47v0c-9.24-19.53-21.89-46.27-48.11-59.32 -38.89-19.34-110.53-20.34-124.53-20.34s-85.64 1-124.48 20.31c-26.22 13.05-38.87 39.79-48.11 59.32l-.08.16v0c-.47.06-.92.17-1.35.34v0c-.67-.09-1.34-.13-2-.13H64.34v0c-8.47-.08-15.58 6.34-16.35 14.77v0c-.36 4.62 1.31 9.18 4.59 12.47v0c1.37 1.43 1.33 3.71-.1 5.09 -.25.23-.52.43-.82.58v0c-8.72 4.72-17 9.19-22.11 16 -2.24 3-8.16 10.83-11.77 51.24 -2 22.74-2.3 46.28-.73 61.44 3.29 31.5 9.46 50.54 9.72 51.33h-.001c1.93 5.86 7.07 10.09 13.2 10.87v0 .2 0c0 8.83 7.16 16 16 16h56v0c8.83 0 16-7.17 16-16v0c8.61 0 14.6-1.54 20.95-3.18l0 0c9.16-2.48 18.53-4.12 28-4.91 30.51-2.91 60.85-3.91 79.06-3.91 17.84 0 49.52 1 80.08 3.91v-.001c9.49.79 18.9 2.44 28.11 4.93 6.08 1.56 11.85 3 19.84 3.15v0 0c0 8.83 7.16 16 16 16h56v0c8.83 0 16-7.17 16-16v-.12 0 0c6.14-.76 11.3-5 13.24-10.87 .26-.79 6.43-19.83 9.72-51.33 1.57-15.17 1.29-38.67-.73-61.45Zm-381.93-86.91c8-17 17.15-36.24 33.44-44.35 23.54-11.72 72.33-17 110.23-17 37.9 0 86.69 5.24 110.23 17 16.29 8.11 25.4 27.36 33.44 44.35l1 2.17v0c1.89 3.99.18 8.76-3.81 10.65 -1.14.53-2.38.79-3.64.76 -33.23-.9-103.23-3.78-137.23-3.78 -34 0-104 2.95-137.28 3.85v-.001c-4.42.11-8.1-3.38-8.21-7.79 -.04-1.26.22-2.5.76-3.64 .35-.74.72-1.49 1.05-2.24Zm11.93 79.63v-.001c-17.21 2.07-34.52 3.09-51.84 3.06 -10.6 0-21.53-3-23.56-12.44 -1.39-6.35-1.24-9.92-.49-13.51 .63-3.05 1.63-5.27 6.63-6.05 13-2 20.27.51 41.55 6.78 14.11 4.15 24.29 9.68 30.09 14.06 2.91 2.16 1.36 7.8-2.38 8.1Zm221.38 82c-13.16 1.5-39.48.95-89.34.95 -49.86 0-76.17.55-89.33-.95 -13.58-1.51-30.89-14.35-19.07-25.79 7.87-7.54 26.23-13.18 50.68-16.35 24.45-3.17 34.8-4.8 57.62-4.8s32.12 1 57.62 4.81c25.5 3.81 44.77 9.52 50.68 16.35 10.78 12.24-5.29 24.19-18.86 25.84Zm117.5-91.39c-2 9.48-13 12.44-23.56 12.44v0c-17.66 0-35.31-1.02-52.84-3.06 -3.06-.29-4.48-5.66-1.38-8.1 5.71-4.49 16-9.91 30.09-14.06 21.28-6.27 33.55-8.78 44.09-6.69 2.57.51 3.93 3.27 4.09 5v-.001c.7 4.81.53 9.72-.49 14.48Z"/></svg>