<svg viewBox="0 0 512 512" xmlns="http://www.w3.org/2000/svg"><g stroke-width="32" stroke="#000" fill="none" stroke-linejoin="round"><rect width="448" height="256" x="32" y="80" rx="16" transform="rotate(180 256 208)"/><g stroke-linecap="round" stroke-width="32" stroke="#000" fill="none" stroke-linejoin="round"><path d="M64 384l384 0"/><path d="M96 432l320 0"/><path d="M256 128a80 80 0 1 0 0 160 80 80 0 1 0 0-160Z"/><path d="M480 160v0c-44.19 0-80-35.82-80-80"/><path d="M32 160h0c44.18 0 80-35.82 80-80"/><path d="M480 256v0c-44.19 0-80 35.81-80 80"/><path d="M32 256h0c44.18 0 80 35.81 80 80"/></g></g></svg>