<svg viewBox="0 0 512 512" xmlns="http://www.w3.org/2000/svg"><g><path d="M48 368h416v32H48Z"/><path d="M80 416h352v32H80Z"/><path d="M480 176h-.001c-53-.07-95.94-43.01-96-96V64h-256v16 0c-.07 52.99-43.01 95.93-96 96h-16v64h16 -.001c52.99.06 95.93 43 96 96v16h256v-16 0c.06-53 43-95.94 96-96h16v-64ZM256 304v0c-53.02 0-96-42.99-96-96 0-53.02 42.98-96 96-96 53.01 0 96 42.98 96 96v-.001c-.07 52.99-43.01 95.93-96 96Z"/><path d="M96 80V64H16v80h16v0c35.33-.04 63.96-28.67 64-64Z"/><path d="M32 272H16v80h80v-16 0c-.04-35.34-28.67-63.97-64-64Z"/><path d="M480 144h16V64h-80v16 0c.03 35.33 28.66 63.96 64 64Z"/><path d="M416 336v16h80v-80h-16 0c-35.34.03-63.97 28.66-64 64Z"/><path d="M256 144a64 64 0 1 0 0 128 64 64 0 1 0 0-128Z"/></g></svg>