<svg viewBox="0 0 512 512" xmlns="http://www.w3.org/2000/svg"><path fill="none" stroke="#000" stroke-linecap="round" stroke-miterlimit="10" stroke-width="32" d="M87.48 380c1.2-4.38-1.43-10.47-3.94-14.86v0c-.78-1.32-1.63-2.58-2.54-3.8l0 0c-21.53-32.65-33.01-70.9-33-110C47.64 139.09 140.72 48 255.82 48 356.2 48 440 117.54 459.57 209.85v0c2.93 13.68 4.42 27.64 4.43 41.64 0 112.41-89.49 204.93-204.59 204.93 -18.31 0-43-4.6-56.47-8.37 -13.47-3.77-26.92-8.77-30.39-10.11v0c-3.56-1.37-7.33-2.07-11.13-2.07v0c-4.15-.02-8.26.81-12.08 2.43L81.5 462.78v0c-1.49.64-3.06 1.05-4.66 1.22v0c-5.31-.02-9.6-4.34-9.59-9.64 0-.04 0-.07 0-.11h0c.08-1.12.28-2.22.6-3.29Z"/><g><path d="M160 224a32 32 0 1 0 0 64 32 32 0 1 0 0-64Z"/><path d="M256 224a32 32 0 1 0 0 64 32 32 0 1 0 0-64Z"/><path d="M352 224a32 32 0 1 0 0 64 32 32 0 1 0 0-64Z"/></g></svg>