<svg viewBox="0 0 512 512" xmlns="http://www.w3.org/2000/svg"><path d="M398 81.84v0C357.64 49.55 307.49 31.97 255.82 32 194.9 32 138 55.47 95.46 98.09 54.35 139.33 31.82 193.78 32 251.37l0-.001c0 42.22 12.39 83.51 35.65 118.76l.19.27c.28.41.57.82.86 1.22 .29.4.65.92.73 1.05l.22.4c1.13 2 2 4.44 1.23 6.9l-18.42 66.66v0c-.74 2.47-1.15 5.04-1.2 7.63h-.001c-.03 14.16 11.4 25.67 25.57 25.74h0c3.59-.12 7.13-.9 10.45-2.29l67.49-24.36 .85-.33v0c1.83-.78 3.8-1.17 5.8-1.15h0c1.83 0 3.65.34 5.37 1 1.62.63 16.33 6.26 31.85 10.6 12.9 3.6 39.74 9 60.77 9 59.65 0 115.35-23.1 156.83-65.06 41.12-41.64 63.76-96.99 63.76-155.92v0c0-15.13-1.6-30.22-4.78-45 -10.34-48.62-37.76-92.9-77.22-124.65ZM87.48 380v0ZM160 288v0c-17.68 0-32-14.33-32-32 0-17.68 14.32-32 32-32 17.67 0 32 14.32 32 32v0c0 17.67-14.33 32-32 32Zm96 0v0c-17.68 0-32-14.33-32-32 0-17.68 14.32-32 32-32 17.67 0 32 14.32 32 32v0c0 17.67-14.33 32-32 32Zm96 0v0c-17.68 0-32-14.33-32-32 0-17.68 14.32-32 32-32 17.67 0 32 14.32 32 32v0c0 17.67-14.33 32-32 32Z"/></svg>