<svg viewBox="0 0 512 512" xmlns="http://www.w3.org/2000/svg"><path d="M456 48H56v0c-13.26 0-24 10.74-24 24v288 0c0 13.25 10.74 24 24 24h72v80l117.74-80H456v0c13.25 0 24-10.75 24-24V72v0c0-13.26-10.75-24-24-24ZM160 248v0c-17.68 0-32-14.33-32-32 0-17.68 14.32-32 32-32 17.67 0 32 14.32 32 32v0c0 17.67-14.33 32-32 32Zm96 0v0c-17.68 0-32-14.33-32-32 0-17.68 14.32-32 32-32 17.67 0 32 14.32 32 32v0c0 17.67-14.33 32-32 32Zm96 0v0c-17.68 0-32-14.33-32-32 0-17.68 14.32-32 32-32 17.67 0 32 14.32 32 32v0c0 17.67-14.33 32-32 32ZM456 80v0Z"/></svg>