<svg viewBox="0 0 512 512" xmlns="http://www.w3.org/2000/svg"><g><path d="M60.44 389.17c0 .07 0 .2-.08.38 .03-.12.05-.25.08-.38Z"/><path d="M439.9 405.6h-.001c-3.3-.08-6.55-.75-9.59-2l-56.78-20.13 -.42-.17v-.001c-1.24-.52-2.57-.78-3.91-.76l0 0c-1.24 0-2.47.22-3.62.66 -1.38.52-13.81 5.19-26.85 8.77 -7.07 1.94-31.68 8.27-51.43 8.27 -50.48 0-97.68-19.4-132.89-54.63h-.001c-34.75-34.54-54.23-81.53-54.11-130.51h0c-.01-12.64 1.36-25.24 4.06-37.58 8.79-40.62 32.07-77.57 65.55-104v0c34.34-26.94 76.74-41.57 120.39-41.52 52.21 0 100.86 20 137 56.18 34.16 34.27 52.88 79.33 52.73 126.87l0-.001c-.03 35.32-10.58 69.84-30.3 99.15l-.19.28 -.74 1c-.17.23-.34.45-.5.68l-.15.27v0c-.4.67-.76 1.37-1.08 2.09l15.74 55.94v0c.69 2.3 1.07 4.7 1.12 7.11v0c.01 13.25-10.72 24.01-23.97 24.03 -.03 0-.05 0-.07 0Z"/><path d="M299.87 425.39v0c-2.1-4.07-5.85-7.03-10.29-8.1 -5.78-1.53-12.52-1.27-17.67-1.65v0c-48.63-3.39-94.39-24.25-128.82-58.75v0c-30.62-30.45-50.51-70.01-56.69-112.73C85 234.42 85 232 85 232v0c-.01-8.84-7.17-16-16.01-16 -4.6 0-8.97 1.97-12 5.41v0s-7.88 8.58-11.6 17.19l0 0c-21.18 48.79-17.07 104.87 11 150.06 2.6 4.33 2.6 6.33 2.02 10.83 -2.73 14.11-7.51 39-10 51.91h0c-1.68 8.52 1.38 17.29 8 22.92l.46.39h-.001c4.3 3.41 9.62 5.27 15.12 5.28v0c3.08 0 6.14-.61 9-1.79l53.51-20.65h0c1.84-.71 3.87-.71 5.72 0 21.07 7.84 43 12 63.78 12v0c25.89.02 51.46-5.67 74.91-16.66 5.46-2.56 14-5.34 19-11.12v0c3.86-4.59 4.63-11.03 1.95-16.39Z"/></g></svg>