<svg viewBox="0 0 512 512" xmlns="http://www.w3.org/2000/svg"><path d="M258.9 48C141.92 46.42 46.42 141.92 48 258.9c1.56 112.19 92.91 203.54 205.1 205.1 117 1.6 212.48-93.9 210.88-210.88C462.44 140.91 371.09 49.56 258.9 48Zm-16.79 192.47l51.55-59v0c5.81-6.66 15.92-7.34 22.58-1.52 6.65 5.81 7.33 15.92 1.52 22.58l-51.55 59v0c-5.82 6.65-15.93 7.33-22.58 1.52 -6.66-5.82-7.34-15.93-1.53-22.58 0-.01 0-.01 0-.01Zm-38.86 90.85v0c-6.25 6.24-16.38 6.24-22.62 0l-47.95-48v0c-6.25-6.26-6.25-16.39 0-22.63 6.25-6.25 16.38-6.25 22.63 0 0 0 0 0 0 0l48 48v0c6.22 6.26 6.19 16.39-.07 22.62Zm176.8-128.79l-111.88 128v0c-2.92 3.33-7.09 5.31-11.51 5.47h-.54v0c-4.25 0-8.32-1.69-11.32-4.69l-47.94-48h0c-6.25-6.26-6.25-16.39 0-22.63 6.25-6.25 16.38-6.25 22.63 0 0 0 0 0 0 0l29.8 29.83v0c3.12 3.12 8.18 3.12 11.31 0 .12-.13.24-.26.36-.4l95-108.66v0c5.81-6.66 15.92-7.34 22.58-1.52 6.65 5.81 7.33 15.92 1.52 22.58Z"/></svg>