<svg viewBox="0 0 512 512" xmlns="http://www.w3.org/2000/svg"><path d="M396 432H136c-36.44 0-70.36-12.57-95.51-35.41C14.38 372.88-.001 340-.001 304c0-36.58 13.39-68.12 38.72-91.22 18.11-16.53 42.22-28.25 69.18-33.87v-.001c5.04-1.05 9.27-4.45 11.37-9.15l-.001-.001c9.59-21.61 23.97-40.76 42.05-56 26.44-22.07 59.18-33.76 94.68-33.76h0c39.93-.18 78.36 15.21 107.14 42.9 24.73 23.81 41.5 55.28 49.18 92v0c1.25 6.15 5.99 10.99 12.12 12.39 45.56 10.13 87.56 43.14 87.56 100.71 0 33.39-12.24 60.78-35.41 79.23 -20.36 16.2-48.22 24.77-80.59 24.77Z"/></svg>