<svg viewBox="0 0 512 512" xmlns="http://www.w3.org/2000/svg"><path d="M464 249.93v0c-.28-5.16-4.24-9.36-9.36-9.94L429 235.84v0c-2.37-.39-4.2-2.29-4.5-4.67 -.49-3.15-1-6.42-1.7-9.52v0c-.47-2.32.59-4.67 2.63-5.85l22.78-12.65v0c4.68-2.39 6.83-7.91 5-12.83l-3.95-10.9v-.001c-1.8-4.95-7.02-7.75-12.13-6.51l-25.55 5v0c-2.35.41-4.7-.72-5.82-2.81 -1.49-2.79-3.11-5.63-4.8-8.42v0c-1.26-2.04-1.09-4.66.44-6.5l17-19.64v0c3.57-3.84 3.73-9.73.39-13.76l-7.42-8.91v-.001c-3.35-4.06-9.22-4.92-13.58-2l-22.37 13.43v0c-2.04 1.22-4.64.96-6.39-.63 -2.47-2.17-5-4.26-7.37-6.19l0 0c-1.87-1.48-2.57-3.99-1.72-6.21l9.26-24.4 -.001 0c2.08-4.82.23-10.44-4.31-13.07l-10.09-5.89v-.001c-4.55-2.63-10.35-1.41-13.45 2.83l-16.35 20.54v0c-1.22 1.84-3.57 2.56-5.6 1.72 -.61-.25-5.77-2.36-9.78-3.7v-.001c-2.26-.74-3.78-2.86-3.74-5.23l.39-26.07v0c.28-5.27-3.39-9.93-8.57-10.88l-11.45-2v0c-5.16-.9-10.19 2.17-11.75 7.17l-8.5 24.81v0c-.8 2.26-2.97 3.74-5.36 3.65h-9.75v-.001c-2.38.04-4.52-1.44-5.3-3.67l-8.46-24.67v0c-1.54-5.04-6.59-8.14-11.77-7.25l-11.47 2h-.001c-5.16.94-8.82 5.55-8.56 10.79l.4 26.16V89.1c.01 2.41-1.56 4.54-3.86 5.25 -2.29.89-7.26 2.79-9.52 3.63 -2 .72-4.18-.07-5.94-2.1l-16.26-20v0c-3.09-4.27-8.9-5.51-13.46-2.89l-10.06 5.83v-.001c-4.6 2.63-6.47 8.32-4.32 13.17l9.25 24.34v0c.82 2.22.14 4.73-1.7 6.23 -2.43 2-4.92 4-7.4 6.22v0c-1.75 1.58-4.33 1.84-6.35.64l-22.11-13.69h-.001c-4.4-2.86-10.23-2.01-13.61 2l-7.39 8.89h-.001c-3.4 4-3.24 9.93.37 13.75l17.08 19.62v0c1.55 1.81 1.73 4.43.45 6.45 -1.71 2.72-3.34 5.58-4.82 8.44v0c-1.14 2.11-3.51 3.24-5.86 2.82l-25.51-4.93v0c-5.12-1.24-10.34 1.56-12.14 6.51l-4 10.88h0c-1.83 4.93.31 10.45 5 12.85l22.78 12.65h-.001c2.1 1.16 3.18 3.57 2.65 5.92l-.24 1.27c-.52 2.79-1 5.43-1.46 8.24v0c-.33 2.34-2.13 4.22-4.46 4.64l-25.69 4.15v0c-5.2.63-9.12 5.03-9.15 10.27v11.58 0c-.04 5.26 3.92 9.69 9.16 10.26l25.68 4.14 -.001 0c2.37.38 4.2 2.28 4.5 4.67 .49 3.16 1 6.42 1.7 9.52v0c.46 2.31-.6 4.66-2.63 5.85l-22.77 12.67v0c-4.69 2.38-6.84 7.9-5 12.83l4 10.9h0c1.79 4.94 7.01 7.74 12.13 6.51l25.55-4.95h-.001c2.34-.43 4.69.7 5.82 2.81 1.5 2.8 3.11 5.63 4.8 8.42h-.001c1.26 2.03 1.08 4.65-.44 6.5l-17 19.63v0c-3.62 3.8-3.83 9.71-.5 13.77l7.41 8.91h-.001c3.34 4.05 9.21 4.91 13.58 2l22.37-13.43h0c2.03-1.23 4.63-.97 6.39.63 2.48 2.17 5 4.26 7.37 6.19v0c1.86 1.47 2.56 3.98 1.73 6.21l-9.27 24.4h0c-2.09 4.81-.24 10.43 4.31 13.07l10.11 5.84v0c4.54 2.62 10.34 1.41 13.45-2.82l16.55-20.35c1.4-1.73 3.6-2.5 5.23-1.84 3.48 1.44 5.81 2.25 9.94 3.63v0c2.25.73 3.77 2.85 3.75 5.23l-.4 26.05v0c-.28 5.26 3.38 9.91 8.57 10.88l11.45 2v0c5.16.9 10.19-2.17 11.75-7.17l8.5-24.77h-.001c.78-2.27 2.96-3.75 5.36-3.65h9.75l-.001-.001c2.37-.06 4.51 1.42 5.3 3.67l8.47 24.67v0c1.34 4.39 5.4 7.4 10 7.41h-.001c.59 0 1.19-.06 1.78-.16l11.47-2v0c5.15-.95 8.81-5.56 8.56-10.79l-.4-26.16v0c-.02-2.37 1.5-4.47 3.75-5.2 3.84-1.29 6.54-2.33 8.91-3.25l.6-.23c3.1-1.07 4.6.23 5.47 1.31l16.75 20.63v0c3.1 4.22 8.89 5.43 13.44 2.82l10.07-5.83v0c4.56-2.64 6.41-8.28 4.31-13.1l-9.24-24.34h0c-.84-2.23-.16-4.74 1.69-6.23 2.43-2 4.92-4 7.4-6.22v0c1.75-1.59 4.34-1.84 6.38-.62l22.39 13.4v-.001c4.39 2.86 10.22 2 13.61-2l7.4-8.9v0c3.39-4.01 3.23-9.94-.37-13.75l-17.06-19.67h0c-1.56-1.82-1.74-4.44-.45-6.45 1.71-2.71 3.34-5.57 4.82-8.44v0c1.14-2.11 3.5-3.25 5.86-2.82l25.48 4.97v0c5.11 1.23 10.33-1.57 12.14-6.51l3.95-10.88v0c1.82-4.93-.32-10.45-5-12.84l-22.8-12.67v0c-2.08-1.18-3.14-3.57-2.61-5.89l.24-1.27c.52-2.79 1-5.43 1.46-8.24v0c.32-2.35 2.12-4.23 4.46-4.64l25.69-4.14v0c5.21-.63 9.14-5.04 9.18-10.28v-11.71Zm-282.45 94h-.001c-4.36 7.56-14.01 10.16-21.58 5.81 -1.46-.84-2.78-1.91-3.9-3.16h0c-46.69-51.62-46.5-130.26.42-181.65v0c5.84-6.5 15.83-7.02 22.32-1.18 1.26 1.13 2.33 2.46 3.17 3.94l45.65 80.35v0c2.78 4.87 2.78 10.86 0 15.74ZM256 391.11v0c-9.52 0-19.01-1.01-28.31-3v0c-8.53-1.91-13.89-10.36-11.99-18.88 .35-1.58.94-3.09 1.75-4.49l46-80v0c2.81-4.91 8.04-7.94 13.7-7.93h92.14v0c8.72-.02 15.81 7.04 15.82 15.77 0 1.61-.25 3.21-.73 4.75 -17.49 54.32-68.4 93.76-128.4 93.76Zm7.51-163.9L218 147.07v0c-4.35-7.58-1.73-17.24 5.85-21.58 1.38-.8 2.89-1.38 4.45-1.73v-.001c9.1-1.92 18.38-2.89 27.69-2.88 60 0 110.91 39.44 128.37 93.79v0c2.61 8.32-2.02 17.19-10.35 19.8 -1.54.48-3.15.72-4.76.72h-92v0c-5.7.01-10.96-3.05-13.76-8Z"/></svg>