<svg viewBox="0 0 512 512" xmlns="http://www.w3.org/2000/svg"><g><path d="M256 185v-.001c40.36-24.88 89.36-31.52 134.9-18.28 -8.54-66.89-65.78-118.72-134.9-118.72s-126.36 51.83-134.9 118.67l-.001-.001c45.53-13.22 94.54-6.57 134.9 18.33Z"/><path d="M336 331.73v0c-.97 44.77-19.83 87.3-52.37 118.08l0 0c18.74 9.35 39.41 14.2 60.37 14.19 75 0 136-61 136-136v0c-.03-44.81-22.12-86.74-59.06-112.08v0c-9.63 49.33-40.78 91.8-84.94 115.81Z"/><path d="M283.58 206.19h0c25.42 24.08 42.68 55.51 49.36 89.89h0c32.17-22.11 53.32-56.96 58.06-95.7v-.001c-35.09-12.93-73.95-10.83-107.43 5.81Z"/><path d="M176.05 331.73l-.001-.001c-44.2-23.99-75.37-66.46-85-115.81l0-.001C54.09 241.26 32 283.18 31.99 327.99c0 75 61 136 136 136v0c20.96.02 41.65-4.84 60.42-14.19v0c-32.55-30.78-51.41-73.31-52.37-118.08Z"/><path d="M179.06 296.08v0c6.67-34.38 23.93-65.81 49.36-89.89v-.001c-33.49-16.64-72.34-18.74-107.42-5.81l-.001-.001c4.73 38.74 25.88 73.59 58.06 95.7Z"/><path d="M302.9 345.33v0c-30.64 8.89-63.17 8.89-93.8-.001h0c4.33 33.59 21.06 64.36 46.9 86.27v0c25.83-21.91 42.56-52.68 46.9-86.27Z"/><path d="M209 311.62v0c30.33 11.17 63.66 11.17 94 0v0c-4.14-33.96-20.92-65.1-47-87.22v-.001c-26.09 22.12-42.87 53.26-47 87.22Z"/></g></svg>