<svg viewBox="0 0 512 512" xmlns="http://www.w3.org/2000/svg"><path fill="none" stroke="#000" stroke-miterlimit="10" stroke-width="32" d="M448 256c0-106-86-192-192-192C150 64 64 150 64 256c0 106 86 192 192 192s192-86 192-192Z"/><path d="M350.67 150.93l-117.2 46.88v-.001c-16.27 6.5-29.16 19.39-35.66 35.66l-46.88 117.2v0c-1.65 4.1.35 8.75 4.45 10.4 1.9.76 4.03.76 5.94 0l117.2-46.88v0c16.26-6.51 29.15-19.4 35.66-35.66l46.88-117.2h-.001c1.64-4.11-.36-8.76-4.46-10.4 -1.91-.77-4.04-.77-5.95 0ZM256 280v0c-13.26 0-24-10.75-24-24 0-13.26 10.74-24 24-24 13.25 0 24 10.74 24 24v0c0 13.25-10.75 24-24 24Z"/></svg>