<svg viewBox="0 0 512 512" xmlns="http://www.w3.org/2000/svg"><path fill="none" stroke="#000" stroke-linecap="round" stroke-linejoin="round" stroke-width="32" d="M384 224v184 0c0 22.09-17.91 40-40 40H104v0c-22.1 0-40-17.91-40-40V168v0c0-22.1 17.9-40 40-40h167.48"/><g><path d="M459.94 53.25v-.001c-5.98-6.56-16.13-7.04-22.69-1.07 -.19.16-.36.33-.54.5l-12.37 12.31v0c-3.13 3.12-3.13 8.18 0 11.31l11.34 11.32v0c3.11 3.13 8.18 3.14 11.31.02 0-.01.01-.02.02-.03l12.06-12c6.1-6.09 6.67-16.01.85-22.38Z"/><path d="M399.34 90L218.82 270.2l-.001-.001c-1.1 1.09-1.9 2.44-2.31 3.93l-8.35 24.87 -.001-.001c-.62 2.07.56 4.24 2.63 4.86 .72.21 1.49.21 2.22 0l24.85-8.35v0c1.48-.42 2.83-1.22 3.93-2.31l180.2-180.54v-.001c3.46-3.51 3.46-9.16 0-12.66l-9.95-10v-.001c-3.52-3.51-9.2-3.51-12.71 0Z"/></g></svg>