<svg viewBox="0 0 512 512" xmlns="http://www.w3.org/2000/svg"><g><path d="M459.94 53.25v-.001c-5.98-6.56-16.13-7.04-22.69-1.07 -.19.16-.36.33-.54.5l-12.37 12.31v0c-3.13 3.12-3.13 8.18 0 11.31l11.34 11.32v0c3.11 3.13 8.18 3.14 11.31.02 0-.01.01-.02.02-.03l12.06-12c6.1-6.09 6.67-16.01.85-22.38Z"/><path d="M399.34 90L218.82 270.2l-.001-.001c-1.1 1.09-1.9 2.44-2.31 3.93l-8.35 24.87 -.001-.001c-.62 2.07.56 4.24 2.63 4.86 .72.21 1.49.21 2.22 0l24.85-8.35v0c1.48-.42 2.83-1.22 3.93-2.31l180.2-180.54v-.001c3.46-3.51 3.46-9.16 0-12.66l-9.95-10v-.001c-3.52-3.51-9.2-3.51-12.71 0Z"/><path d="M386.34 193.66L264.45 315.79v0c-4.72 4.72-10.51 8.22-16.87 10.21l-25.9 8.67v0c-19.1 5.39-38.94-5.72-44.33-24.81 -1.81-6.39-1.81-13.15-.001-19.53l8.67-25.9v0c1.97-6.37 5.47-12.16 10.19-16.87l122.13-121.91v-.001c3.12-3.13 3.12-8.19 0-11.32 -1.5-1.51-3.54-2.35-5.66-2.35H103.98v0c-30.93 0-56 25.07-56 56v240 0c0 30.92 25.07 56 56 56h240v0c30.92 0 56-25.08 56-56V199.28v0c-.01-4.42-3.59-8-8.01-8 -2.13 0-4.16.84-5.66 2.34Z"/></g></svg>