<svg viewBox="0 0 512 512" xmlns="http://www.w3.org/2000/svg"><g><path d="M464.37 49.2v0c-8.22-9.01-22.18-9.65-31.18-1.43 -.24.21-.48.44-.71.66l-18.31 18.25 31.18 31.1 18-17.91v0c8.51-8.3 8.95-21.84 1.01-30.68Z"/><path d="M252.76 336l-13.27 0L208 336l-32 0 0-32 0-31.49 0-13.27 9.4-9.38L323.54 112 48 112l0 352 352 0 0-275.54L262.14 326.6l-9.38 9.4Z"/><path d="M400 143.16l32.79-32.86 -31.09-31.09L368.85 112l31.15 0 0 31.16Z"/><path d="M208 304l31.49 0L400 143.16l0-31.16 -31.15 0L208 272.51l0 31.49Z"/></g></svg>