<svg viewBox="0 0 512 512" xmlns="http://www.w3.org/2000/svg"><g><path d="M458 346H192v0c-14.36 0-26-11.65-26-26V54v0c0-12.16-9.85-22-22-22 -12.16 0-22 9.84-22 22v68H54v0c-12.16 0-22 9.84-22 22 0 12.15 9.84 22 22 22h68v154h0c.04 38.64 31.35 69.95 70 70h154v68 0c0 12.15 9.84 22 22 22 12.15 0 22-9.85 22-22v-68h68v0c12.15 0 22-9.85 22-22 0-12.16-9.85-22-22-22Z"/><path d="M214 166h106v0c14.35 0 26 11.64 26 26v106 0c0 12.15 9.84 22 22 22 12.15 0 22-9.85 22-22V192v0c-.05-38.65-31.36-69.96-70-70H214l0-.001c-12.16 0-22 9.84-22 22 0 12.15 9.84 22 22 22Z"/></g></svg>