<svg viewBox="0 0 512 512" xmlns="http://www.w3.org/2000/svg"><g><path d="M440.9 136.3v0c1.9-1.12 2.55-3.57 1.43-5.48 -.35-.6-.85-1.1-1.44-1.44L288.15 40.64v0c-19.9-11.54-44.44-11.54-64.33 0L71.11 129.38v0c-1.91 1.11-2.56 3.56-1.44 5.47 .34.59.84 1.09 1.43 1.43l182.88 107.58v0c1.25.73 2.8.73 4.06 0Z"/><path d="M54 163.51v0c-1.92-1.11-4.36-.45-5.47 1.46 -.36.61-.55 1.31-.54 2.02v173.89h0c.03 17.05 9.1 32.8 23.84 41.39l162.16 97.23h0c1.91 1.1 4.35.44 5.46-1.47 .35-.61.53-1.3.53-2V274.28v0c-.01-1.43-.77-2.75-2-3.46Z"/><path d="M272 275v201 0c0 2.2 1.79 3.99 4 3.99 .7-.01 1.38-.19 1.99-.54l162.15-97.23h-.001c14.72-8.58 23.79-24.31 23.85-41.34V166.99v0c-.01-2.21-1.81-4-4.02-3.99 -.7 0-1.39.18-1.99.53l-184 108v0c-1.24.71-2 2.02-2 3.45Z"/></g></svg>