<svg viewBox="0 0 512 512" xmlns="http://www.w3.org/2000/svg"><g stroke-linecap="round" stroke-width="32" stroke="#000" fill="none" stroke-linejoin="round"><path d="M448 341.37V170.61v0c-.02-11.38-6.07-21.89-15.89-27.61l-152-88.46v0c-14.91-8.68-33.34-8.68-48.24-.001l-151.98 88.46h0c-9.83 5.72-15.88 16.23-15.89 27.61v170.76 0c0 11.38 6.05 21.9 15.89 27.63l152 88.46v0c14.91 8.66 33.32 8.66 48.24 0l152-88.46v0c9.82-5.74 15.86-16.26 15.87-27.63Z"/><path d="M69 153.99l187 110 187-110"/><path d="M256 463.99l0-200"/></g></svg>