<svg viewBox="0 0 512 512" xmlns="http://www.w3.org/2000/svg"><g><path d="M480 128h-48l-198.94 70.46 -59.13-31.59v-.001c8.3-38.98-16.57-77.31-55.55-85.61 -38.98-8.31-77.31 16.56-85.61 55.54 -8.31 38.97 16.56 77.3 55.54 85.6 21.07 4.48 43.04-.68 59.91-14.08l52.2 31.72 -8.44 36.94 -43.64 26.76v0c-31.04-24.64-76.16-19.46-100.8 11.57s-19.46 76.15 11.57 100.79c31.03 24.63 76.15 19.45 100.79-11.58 14.04-17.69 18.93-40.95 13.21-62.8l306.85-181.76Zm-376.52 64v0c-22.1 0-40-17.91-40-40 0-22.1 17.9-40 40-40 22.09 0 40 17.9 40 40v0c0 22.09-17.91 40-40 40Zm-.001 208v0c-22.1 0-40-17.91-40-40 0-22.1 17.9-40 40-40 22.09 0 40 17.9 40 40v0c0 22.09-17.91 40-40 40Zm152-144v0c-8.84 0-16-7.17-16-16 0-8.84 7.16-16 16-16 8.83 0 16 7.16 16 16v0c0 8.83-7.17 16-16 16Z"/><path d="M343.79 259.87l-83.74 48.18L432 368l47.99 0 .01-32 -136.21-76.13Z"/></g></svg>