<svg viewBox="0 0 512 512" xmlns="http://www.w3.org/2000/svg"><g stroke-linecap="round" stroke-width="32" stroke="#000" fill="none" stroke-linejoin="round"><path d="M104 96a56 56 0 1 0 0 112 56 56 0 1 0 0-112Z"/><path d="M104 304a56 56 0 1 0 0 112 56 56 0 1 0 0-112Z"/></g><g stroke-linecap="square" stroke="#000" stroke-miterlimit="10" stroke-width="32" fill="none"><path d="M157 175l-11 15 37 15s3.46-6.42 7-10Z"/><g stroke-linecap="round"><path d="M154.17 334.43L460 162c-2.5-6.7-28-12-64-4 -29.12 6.47-121.16 29.05-159.16 56.05C205.85 236.06 227 272 192 298c-25.61 19-44.43 22.82-44.43 22.82Z"/><path d="M344.47 278.24L295 306.67c14.23 6.74 65.54 33.27 117 36.33 14.92.89 30 .39 39-6Z"/></g></g><path fill="none" stroke="#000" stroke-miterlimit="10" stroke-width="32" d="M256 208a32 32 0 1 0 0 64 32 32 0 1 0 0-64Z"/></svg>