<svg viewBox="0 0 512 512" xmlns="http://www.w3.org/2000/svg"><g><path d="M276 192h146.31v0c1.1 0 2-.9 2-2 0-.53-.21-1.04-.59-1.42L275.4 40.26v-.001c-.79-.78-2.05-.78-2.83 0 -.38.37-.59.88-.59 1.41v146.31 0c0 2.2 1.79 4 4 4Z"/><path d="M256 272c-8.82 0-16 6.28-16 14v18h32v-18c0-7.72-7.18-14-16-14Z"/><path d="M248 224v0c-4.42 0-8-3.59-8-8V32H92v0c-6.63 0-12 5.37-12 12v424 0c0 6.62 5.37 12 12 12h328v0c6.62 0 12-5.38 12-12V224Zm88 175.91v0c-.01 8.88-7.21 16.08-16.09 16.09H192.09v0c-8.89-.01-16.09-7.21-16.09-16.09V320c0-10 7-16 16-16h16v-18c0-25.36 21.53-46 48-46s48 20.64 48 46v18h16 0c8.72-.12 15.88 6.87 16 15.59 0 .13 0 .26 0 .4Z"/></g></svg>