<svg viewBox="0 0 512 512" xmlns="http://www.w3.org/2000/svg"><g><path d="M460 240H320v0c-26.51 0-48-21.5-48-48V52v0c0-2.21-1.8-4-4-4h-53.25v0c-1.87-3.46-4.05-6.75-6.5-9.81C196.72 23.88 179.59 16 160 16c-37.68 0-64 29.61-64 72v144c0 25 20.34 40 40 40v0c21.85.23 39.76-17.29 40-39.14 0-.29 0-.58 0-.87v-152 0c0-8.84-7.17-16-16-16 -8.84 0-16 7.16-16 16v152 -.001c.14 4.27-3.22 7.85-7.5 8 -.17 0-.34 0-.51 0 -2.23 0-8-1.44-8-8v-144c0-19.34 8.41-40 32-40 29.69 0 32 30.15 32 39.38v138.75c0 17.45-5.47 33.23-15.41 44.46 -10.09 11.41-24.12 17.41-40.59 17.41 -16.47 0-30.5-6-40.59-17.41 -9.94-11.23-15.41-27.01-15.41-44.46v-82.13 0c0-8.84-7.17-16-16-16 -8.84 0-16 7.16-16 16v82.13c0 51.51 33.19 89.63 80 93.53v112.34 0c0 35.34 28.65 64 64 64h208v0c35.34 0 64-28.66 64-64v-188 0c0-2.21-1.8-4-4-4Z"/><path d="M320 208h129.81v0c1.1-.01 1.99-.91 1.99-2.01 -.01-.53-.22-1.03-.59-1.41L307.4 60.77v0c-.79-.78-2.05-.78-2.83 0 -.38.37-.58.87-.59 1.4v129.81 0c0 8.83 7.16 16 16 16Z"/></g></svg>