<svg viewBox="0 0 512 512" xmlns="http://www.w3.org/2000/svg"><path fill="none" stroke="#000" stroke-linecap="round" stroke-linejoin="round" stroke-width="32" d="M288 304v-18c0-16.63-14.26-30-32-30 -17.74 0-32 13.37-32 30v18"/><path d="M304 416h-96v0c-17.68 0-32-14.33-32-32v-48 0c0-17.68 14.32-32 32-32h96v0c17.67 0 32 14.32 32 32v48 0c0 17.67-14.33 32-32 32Z"/><g stroke-width="32" stroke="#000" fill="none" stroke-linejoin="round"><path d="M416 221.25V416v0c0 26.5-21.5 48-48 48H144v0c-26.51 0-48-21.5-48-48V96v0c0-26.51 21.49-48 48-48h98.75v0c8.48 0 16.62 3.37 22.62 9.37l141.26 141.26v0c5.99 5.99 9.36 14.13 9.37 22.62Z"/><path fill="none" stroke="#000" stroke-linecap="round" stroke-linejoin="round" stroke-width="32" d="M256 50.88V176v0c0 17.67 14.32 32 32 32h125.12"/></g></svg>