<svg viewBox="0 0 512 512" xmlns="http://www.w3.org/2000/svg"><g stroke-linecap="round" stroke-width="32" stroke="#000" fill="none" stroke-linejoin="round"><path d="M208 64h66.75v0c8.48 0 16.62 3.37 22.62 9.37l141.26 141.26v0c5.99 5.99 9.36 14.13 9.37 22.62V432v0c0 26.5-21.5 48-48 48H192v0c-26.51 0-48-21.5-48-48V304"/><path d="M288 72v120 0c0 17.67 14.32 32 32 32h120"/></g><path fill="none" stroke="#000" stroke-linecap="round" stroke-miterlimit="10" stroke-width="32" d="M160 80v152 0c.17 13.08-10.3 23.82-23.38 24 -.21 0-.42 0-.63 0 -12 0-24-9.1-24-24V88c0-30.59 16.57-56 48-56s48 24.8 48 55.38v138.75c0 43-27.82 77.87-72 77.87s-72-34.86-72-77.87V144"/></svg>