<svg viewBox="0 0 512 512" xmlns="http://www.w3.org/2000/svg"><g stroke-width="32" stroke="#000" fill="none" stroke-linejoin="round"><path d="M416 221.25V416v0c0 26.5-21.5 48-48 48H144v0c-26.51 0-48-21.5-48-48V96v0c0-26.51 21.49-48 48-48h98.75v0c8.48 0 16.62 3.37 22.62 9.37l141.26 141.26v0c5.99 5.99 9.36 14.13 9.37 22.62Z"/><g stroke-linecap="round" stroke-width="32" stroke="#000" fill="none" stroke-linejoin="round"><path d="M256 56v120 0c0 17.67 14.32 32 32 32h120"/><path d="M176 288l160 0"/><path d="M176 368l160 0"/></g></g></svg>