<svg viewBox="0 0 512 512" xmlns="http://www.w3.org/2000/svg"><g><path d="M376 160H272v153.37l52.69-52.68v0c6.4-6.09 16.53-5.83 22.62.57 5.86 6.17 5.86 15.86 0 22.04l-80 80v0c-6.25 6.24-16.38 6.24-22.62 0l-80-80v0c-6.09-6.41-5.83-16.54.57-22.62 6.17-5.87 15.86-5.87 22.04 0l52.69 52.68V159.99h-104v0c-30.92.03-55.97 25.08-56 56v208 0c.03 30.91 25.08 55.96 56 56h240v0c30.91-.04 55.96-25.09 56-56v-208 0c-.04-30.92-25.09-55.97-56-56Z"/><path d="M272 48v0c0-8.84-7.17-16-16-16 -8.84 0-16 7.16-16 16v112h32Z"/></g></svg>