<svg viewBox="0 0 512 512" xmlns="http://www.w3.org/2000/svg"><g><path d="M408 112H184v0c-39.77 0-72 32.23-72 72v224 0c0 39.76 32.23 72 72 72h224v0c39.76 0 72-32.24 72-72V184v0c0-39.77-32.24-72-72-72Zm-32.45 200H312v63.55c0 8.61-6.62 16-15.23 16.43v0c-8.83.42-16.33-6.39-16.76-15.22 -.02-.26-.02-.52-.02-.77v-64h-63.55c-8.61 0-16-6.62-16.43-15.23v0c-.43-8.83 6.38-16.33 15.21-16.76 .25-.02.51-.02.76-.02h64v-63.55c0-8.61 6.62-16 15.23-16.43v0c8.82-.43 16.32 6.38 16.75 15.21 .01.25.01.51.01.76v64h64v0c8.83-.02 16 7.14 16.01 15.98 0 .26-.01.52-.02.78 -.42 8.61-7.84 15.23-16.45 15.23Z"/><path d="M395.88 80v0C385.67 51.25 358.5 32.03 328 32H104v0c-39.77 0-72 32.23-72 72v224h-.001c.03 30.5 19.25 57.67 48 67.88V160v0c0-44.19 35.81-80 80-80Z"/></g></svg>