<svg viewBox="0 0 512 512" xmlns="http://www.w3.org/2000/svg"><g><path d="M267 474l-.8-.13v0c.22.17.52.22.8.13Z"/><path d="M448.9 187.78h-.001c-.57-3-3.45-4.96-6.44-4.4 -2 .37-3.63 1.82-4.24 3.76v0 -.001c-.73 2.28-2.84 3.83-5.23 3.85h-15.47v0c-1.01 0-1.99-.28-2.84-.79l-22.38-13.42v0c-.86-.52-1.84-.8-2.84-.79h-35.8 -.001c-1.09-.01-2.16.32-3.06.93l-44.15 29.43v0c-1.56 1.03-2.48 2.77-2.46 4.64v41.74 0c-.01 2.03 1.12 3.91 2.92 4.87l57.89 30.9 0-.001c1.77.95 2.88 2.78 2.92 4.8l.27 23.49v0c.03 1.97 1.11 3.79 2.85 4.75l23.26 12.87h-.001c1.75.97 2.84 2.82 2.85 4.83v48.6 0c0 3.04 2.47 5.51 5.52 5.51 1.34-.01 2.64-.5 3.64-1.38 9.38-8.26 22.83-20.32 24.62-23.08q4.44-6.87 8.33-14.07h0c5.37-9.95 9.91-20.32 13.6-31 12.68-36.71 2.66-102.7-3.78-136.06Z"/><path d="M286.4 302.8l-61.33-46v0c-.7-.52-1.54-.8-2.4-.8h-29.1v0c-1.01 0-1.97-.4-2.68-1.11l-13.72-13.72v0c-.76-.75-1.77-1.18-2.83-1.17h-53.19v-.001c-2.1 0-3.8-1.7-3.8-3.79 -.01-1.01.39-1.97 1.11-2.69l8.42-8.42h0c.71-.72 1.67-1.12 2.68-1.11h32.37v0c3.58-.01 6.72-2.39 7.7-5.83l6.89-24.5v0c.29-1.07 1.02-1.96 2-2.47l27.47-14.14v0c1.26-.66 2.05-1.96 2.05-3.37v-12.5 0c0-.78.23-1.54.68-2.17l14.6-21.02h0c.43-.64 1.05-1.12 1.78-1.38l20.43-7.67v0c1.47-.56 2.46-1.97 2.46-3.55v-11.4 0c-.01-1.27-.64-2.46-1.69-3.16L225.82 97.2V97.2c-1.15-.76-2.61-.84-3.83-.22l-27.88 13.94v0c-1.31.64-2.86.48-4-.41l-13.22-10.45v0c-1.64-1.32-1.9-3.71-.58-5.35 .19-.25.42-.47.67-.66l10.74-7.91v-.001c1.68-1.24 2.04-3.61.81-5.29 -.25-.35-.56-.64-.91-.88L170.89 68.3v0c-1.19-.84-2.74-.92-4-.22 -6.05 3.31-23.8 13.11-30.1 17.52l0-.001c-29.15 20.44-52.61 47.97-68.16 80 -1.82 3.76-4.07 7.59-4.29 11.72 -.22 4.13-3.46 13.35-4.81 17.08h0c-.37 1.01-.29 2.14.24 3.1l35.69 65.58v0c.32.59.79 1.09 1.38 1.44l37.55 22.54v0c.98.58 1.65 1.59 1.81 2.73l7.52 54.54v0c.14 1.05.73 2 1.61 2.61l29.3 20.14v0c.84.58 1.43 1.47 1.65 2.48l15.54 73.8v0c.08.43.25.84.49 1.22 1.46 2.36 7.28 11 14.3 12.28 -.65.18-1.23.59-1.88.78v0c1.68.29 3.35.68 5 1.16 2 .54 4 1 6 1.43 3.13.62 3.44 1.1 4.94-1.68 2-3.72 4.29-5 6-5.46v0c1.44-.34 2.56-1.46 2.89-2.9l10.07-46.68v0c.21-.98.78-1.85 1.6-2.42l45-31.9v0c1.06-.76 1.69-1.98 1.69-3.27v-59.96h-.001c.01-1.26-.57-2.44-1.55-3.2Z"/><path d="M262 48s-3.65.21-4.39.23q-8.13.24-16.22 1.12l-.001 0c-19.67 2.13-38.92 7.06-57.18 14.65 2.43 1.68-1.75 3.22-1.75 3.22l6.54 12.78h35l24 12 21-12Z"/><path d="M354.23 120.06l16.11-14v0c1.66-1.45 1.84-3.98.39-5.65 -.38-.43-.83-.77-1.34-1.01l-18.81-8.73v0c-1.99-.93-4.36-.08-5.3 1.9l-7.75 16.21v0c-.88 1.83-.24 4.03 1.49 5.11l10.46 6.54v0c1.49.92 3.41.77 4.74-.38Z"/><path d="M429.64 140.67l-5.83-9c-.09-.14-.17-.28-.25-.43 -1.05-2.15-9.74-19.7-17-26.51 -5.45-5.15-7-3.67-7.43-2.53v0c-.25.63-.66 1.18-1.19 1.6l-28.84 23.31v0c-.72.57-1.6.88-2.51.89h-14.93v0c-1.07-.01-2.08.42-2.83 1.17l-12 12v0c-1.57 1.56-1.57 4.09-.01 5.65 0 0 0 0 0 0l12 12v0c.75.74 1.76 1.17 2.83 1.17h75.17v0c2.2 0 4-1.79 4-4 0-.06-.01-.12-.01-.18l-.55-13.15v0c-.03-.72-.26-1.41-.64-2.01Z"/><path d="M256 72v0c101.62-.01 184 82.36 184.01 183.98 0 101.62-82.37 184-183.99 184.01C154.39 439.99 72.01 357.62 72 256c-.01-48.81 19.37-95.61 53.88-130.12h0c34.42-34.63 81.27-54.04 130.1-53.9m0-40c-123.7-.001-224 100.3-224 224s100.3 224 224 224 224-100.3 224-224 -100.3-224-224-224Z"/></g></svg>