<svg viewBox="0 0 512 512" xmlns="http://www.w3.org/2000/svg"><path d="M345.14 480H274v0c-9.95 0-18-8.06-18-18v-27.71l-.001-.001c.02-8.61-3.49-16.84-9.71-22.77 -7.78-7.59-19.08-11.8-30.89-11.51 -21.36.5-39.4 19.3-39.4 41.06v20.93 0c0 9.94-8.06 18-18 18h-70.38v0c-30.72 0-55.62-24.91-55.62-55.62v-70.38 0c0-9.95 8.05-18 18-18h27.71c9.16 0 18.07-3.92 25.09-11h-.001c7.88-7.96 12.27-18.73 12.2-29.92 -.3-21.19-17.74-39.08-38.09-39.08H49.99v0c-9.95 0-18-8.06-18-18v-70.38 0c0-30.72 24.9-55.62 55.62-55.62h55.24v0c4.41 0 8-3.59 8-8v-6.48l0-.001c-.01-36.2 29.33-65.54 65.52-65.54 .38-.01.76 0 1.15.01 35.49.62 64.36 30.38 64.36 66.33v5.67 0c0 4.41 3.58 8 8 8h55.24v0c30.29 0 54.86 24.56 54.86 54.86v55.24 0c0 4.41 3.58 8 8 8h5.66c36.58 0 66.34 29 66.34 64.64 0 36.61-29.39 66.4-65.52 66.4h-6.48v0c-4.42 0-8 3.58-8 8v56h0c0 30.29-24.57 54.86-54.86 54.86Z"/></svg>