<svg viewBox="0 0 512 512" xmlns="http://www.w3.org/2000/svg"><path fill="none" stroke="#000" stroke-linecap="round" stroke-linejoin="round" stroke-width="32" d="M413.66 246.1H386v0c-1.11 0-2-.9-2-2v-77.24h0c0-21.47-17.4-38.86-38.86-38.86H267.9v0c-1.11 0-2-.9-2-2V98.34c0-27.14-21.5-49.86-48.64-50.33l0 0c-27.36-.49-49.92 21.3-50.4 48.65 -.01.28-.01.57-.01.85v28.48 0c0 1.1-.9 2-2 2H87.61v-.001c-21.86.06-39.56 17.76-39.62 39.62v70.38 0c0 1.1.89 2 2 2H76.9c29.37 0 53.68 25.48 54.09 54.85 .42 29.87-23.51 57.15-53.29 57.15H49.99v0c-1.11 0-2 .89-2 2v70.38 0c.06 21.85 17.76 39.55 39.62 39.62h70.38v0c1.1 0 2-.9 2-2v-20.93c0-30.28 24.75-56.35 55-57.06 30.1-.7 57 20.31 57 50.28v27.71 0c0 1.1.89 2 2 2h71.14v0c21.46 0 38.86-17.4 38.86-38.86v-78 0c0-1.11.89-2 2-2h28.48c27.63 0 49.52-22.67 49.52-50.4 0-27.73-23.2-48.64-50.34-48.64Z"/></svg>