<svg viewBox="0 0 512 512" xmlns="http://www.w3.org/2000/svg"><g><path d="M432 448v0c-4.25 0-8.32-1.69-11.31-4.69l-352-352v0c-6.09-6.41-5.83-16.54.57-22.62 6.17-5.87 15.86-5.87 22.04 0l352 352h-.001c6.24 6.25 6.24 16.38-.01 22.62 -3 2.99-7.07 4.68-11.31 4.68Z"/><path d="M248 315.85l-51.79-51.79h0c-.79-.78-2.06-.78-2.83.01 -.44.44-.65 1.06-.57 1.67v0c4.29 27.57 25.91 49.19 53.49 53.49v0c1.09.14 2.1-.62 2.25-1.72 .08-.62-.13-1.24-.57-1.68Z"/><path d="M264 196.15L315.87 248v0c.77.78 2.04.78 2.82.01 .44-.45.66-1.08.57-1.71l0 0c-4.28-27.61-25.95-49.28-53.55-53.55v-.001c-1.1-.17-2.12.57-2.29 1.67 -.1.62.11 1.26.56 1.71Z"/><path d="M491 273.36v0c6.76-10.62 6.72-24.19-.1-34.76 -26.46-40.92-60.79-75.68-99.27-100.53C349 110.55 302 96 255.68 96v-.001c-24.42.03-48.68 4.01-71.82 11.79v0c-2.1.69-3.24 2.96-2.54 5.05 .19.59.53 1.13.97 1.57l47.24 47.24v0c.99 1 2.45 1.39 3.82 1.05v0c51.51-12.56 103.44 19.02 116 70.54 3.63 14.93 3.63 30.52 0 45.45v0c-.35 1.36.05 2.81 1.05 3.81l67.95 68v0c1.46 1.46 3.81 1.57 5.4.24l0 0c26.15-22.3 48.82-48.39 67.24-77.4Z"/><path d="M256 352v0c-53.02 0-96.01-42.98-96.01-96 -.01-7.63.9-15.23 2.7-22.64v0c.34-1.37-.06-2.82-1.05-3.81L94.8 162.68h0c-1.47-1.48-3.83-1.58-5.41-.23 -24.39 20.81-47 46.13-67.67 75.72l0-.001c-7.4 10.62-7.66 24.65-.64 35.54 26.41 41.33 60.39 76.14 98.28 100.65 42.69 27.63 88.55 41.63 136.31 41.63h-.001c24.66-.07 49.17-3.97 72.64-11.55v0c2.1-.68 3.26-2.93 2.59-5.03 -.2-.61-.54-1.17-.99-1.62l-47.47-47.46h0c-1-1-2.45-1.4-3.81-1.05v0c-7.42 1.79-15.02 2.7-22.65 2.7Z"/></g></svg>