<svg viewBox="0 0 512 512" xmlns="http://www.w3.org/2000/svg"><g><path d="M368 128h.09"/><path d="M479.55 96h-91.06l8.92-35.66 38.32-13.05c8.15-2.77 13-11.43 10.65-19.71v0c-2.44-8.5-11.31-13.41-19.8-10.97 -.26.07-.5.15-.75.23l-47 16v0c-5.15 1.75-9.05 5.99-10.36 11.27L355.5 95.99H224.44c-8.61 0-16 6.62-16.43 15.23v0c-.43 8.82 6.38 16.32 15.21 16.75 .25.01.51.01.76.01h2.75l1 8.66v0c.48 4.18 4.03 7.34 8.25 7.34v0c39 0 73.66 10.9 100.12 31.52v0c14.71 11.33 26.64 25.89 34.88 42.55v0c4.6 9.36 8 19.28 10.12 29.51v0c.42 1.99 1.6 3.74 3.29 4.88v0c28.02 19.01 39.01 55 26.38 86.43v0c-.72 1.76-.77 3.72-.15 5.53v0c3.54 10.15 5.35 20.82 5.36 31.58 0 22.34-7.6 43.63-21.4 59.95v0c-7.83 9.31-17.67 16.72-28.78 21.67v0c-1.93.84-3.44 2.41-4.21 4.37v0c-4.16 10.81-10.02 20.9-17.37 29.86v0 0c-.89 1.05-.76 2.63.3 3.52 .44.37 1.01.58 1.59.58h49.21 -.001c24.97-.11 45.73-19.26 47.85-44.14l34.2-323.82h2.6v0c8.83.01 16-7.15 16.01-15.99 0-.27-.01-.53-.02-.79 -.42-8.61-7.84-15.23-16.45-15.23Z"/><path d="M108.69 320v0c6.37-.04 12.49 2.49 17 7l15.51 15.51v0c1.56 1.56 4.09 1.56 5.65 0 0-.01 0-.01 0-.01l15.48-15.51h-.001c4.5-4.51 10.62-7.04 17-7h196.58v0c4.41.04 8.03-3.51 8.07-7.92 0-.01 0-.01 0-.01v-.08h0c-.03-19.01-13.39-35.38-32-39.2 -.82-29.69-13-54.54-35.51-72 -20.82-16.24-48.64-24.8-80.49-24.8h-72c-68.22 0-114.43 38.77-116 96.8h-.001c-18.62 3.82-31.98 20.19-32 39.2v0 0c0 4.41 3.58 8 8 8Z"/><path d="M185.94 352v0c-2.13-.01-4.16.84-5.66 2.34l-22.14 22.15v0c-7.81 7.8-20.48 7.8-28.28 0l-22.14-22.15v0c-1.51-1.5-3.54-2.35-5.66-2.34h-69.4v0c-7.76-.04-14.42 5.52-15.76 13.17h-.001c-.61 3.57-.91 7.2-.9 10.83 0 30.59 21.13 55.51 47.26 56 2.43 15.12 8.31 28.78 17.16 39.47C93.5 487.28 112.53 496 133.99 496h132c21.46 0 40.49-8.72 53.58-24.55 8.85-10.69 14.73-24.35 17.16-39.47 26.13-.47 47.26-25.39 47.26-56v-.001c0-3.63-.3-7.26-.9-10.83v0c-1.36-7.64-8.01-13.19-15.76-13.15Z"/></g></svg>