<svg viewBox="0 0 512 512" xmlns="http://www.w3.org/2000/svg"><path d="M479.66 268.7l-32-151.81C441.48 83.77 417.68 64 384 64H128c-16.8 0-31 4.69-42.1 13.94 -11.1 9.25-18.37 22.31-21.58 38.89l-32 151.87v0c-.22 1.08-.33 2.19-.32 3.3v112 0c0 35.34 28.65 64 64 64h320v0c35.34 0 64-28.66 64-64V272l0-.001c-.01-1.11-.12-2.22-.34-3.3Zm-384-145.4c0-.1 0-.19 0-.28 3.55-18.43 13.81-27 32.29-27H384c18.61 0 28.87 8.55 32.27 26.91 0 .13.05.26.07.39l26.93 127.88v0c.45 2.16-.94 4.28-3.1 4.73 -.28.05-.55.08-.83.08H319.99v0c-8.79-.05-15.95 7.03-16 15.82v0c0 26.5-21.5 48-48 48 -26.51 0-48-21.5-48-48v0c-.05-8.8-7.21-15.89-16-15.85 -.01 0-.01 0-.01 0H72.63v0c-2.21 0-4.01-1.79-4.01-4 -.01-.28.02-.56.08-.83Z"/></svg>