<svg viewBox="0 0 512 512" xmlns="http://www.w3.org/2000/svg"><g><path d="M464 352H320v0c-8.84 0-16 7.16-16 16v0c0 26.5-21.5 48-48 48 -26.51 0-48-21.5-48-48v0c0-8.84-7.17-16-16-16H48v0c-8.84 0-16 7.16-16 16v64 0c.03 35.33 28.66 63.96 64 64h320v0c35.33-.04 63.96-28.67 64-64v-64 0c0-8.84-7.17-16-16-16Z"/><path d="M479.46 187.88L447.61 68.45C441.27 35.59 417.54 16 384 16H128c-16.8 0-31 4.69-42.1 13.94C74.8 39.19 67.66 52 64.4 68.4L32.54 187.88l-.001 0c-.36 1.34-.55 2.72-.54 4.12v48c0 35.29 28.71 80 64 80h320c35.29 0 64-44.71 64-80v-48l0 0c0-1.4-.19-2.78-.54-4.12ZM440.57 176H320v0c-8.79-.05-15.95 7.03-16 15.82v0c0 26.5-21.5 48-48 48 -26.51 0-48-21.5-48-48v0c-.06-8.79-7.22-15.87-16-15.82H71.43v0c-1.11-.01-2-.9-2-2.01 0-.18.02-.35.06-.52L95.7 74.99c3.55-18.41 13.81-27 32.29-27h256c18.59 0 28.84 8.53 32.25 26.85l26.25 98.63v0c.28 1.06-.35 2.16-1.42 2.45 -.17.04-.35.06-.52.06Z"/></g></svg>