<svg viewBox="0 0 512 512" xmlns="http://www.w3.org/2000/svg"><g stroke-width="32" stroke="#000" fill="none" stroke-linejoin="round"><path d="M48 336v96l0-.001c.07 26.47 21.52 47.92 48 48h320 0c26.47-.08 47.92-21.53 48-48v-96"/><g stroke-linecap="round" stroke-width="32" stroke="#000" fill="none" stroke-linejoin="round"><path d="M48 336l144 0"/><path d="M320 336l144 0"/><path d="M192 336v0c0 35.34 28.65 64 64 64 35.34 0 64-28.66 64-64"/></g><path d="M384 32H128c-26 0-43 14-48 40L48 192v96l0 0c.07 26.47 21.52 47.92 48 48h320 0c26.47-.08 47.92-21.53 48-48v-96L432 72c-5-27-23-40-48-40Z"/><g stroke-linecap="round" stroke-width="32" stroke="#000" fill="none" stroke-linejoin="round"><path d="M48 192l144 0"/><path d="M320 192l144 0"/><path d="M192 192v0c0 35.34 28.65 64 64 64 35.34 0 64-28.66 64-64"/></g></g></svg>