<svg viewBox="0 0 512 512" xmlns="http://www.w3.org/2000/svg"><path d="M390.42 75.28v0c-1.88 0-3.71-.5-5.32-1.44C340.72 50.08 302.35 40 256.35 40c-45.77 0-89.23 11.28-128.76 33.84C122 77 115.11 74.8 111.87 69h0c-3.01-5.81-.98-12.96 4.63-16.32l-.001 0c42.63-24.19 90.83-36.83 139.85-36.68 49.23 0 92.23 11.28 139.39 36.48v-.001c5.72 3.14 7.87 10.29 4.85 16.08v-.001c-1.79 4.03-5.76 6.65-10.17 6.72Zm-330.79 126v0c-2.41-.02-4.75-.78-6.7-2.16h0c-5.3-3.94-6.53-11.37-2.78-16.8 22.89-33.6 52-60 86.69-78.48 72.58-38.84 165.51-39.12 238.32-.24 34.68 18.48 63.8 44.64 86.69 78v0c3.73 5.43 2.5 12.85-2.78 16.8h-.001c-4.99 3.72-12.04 2.7-15.77-2.28 -.15-.2-.29-.4-.42-.61 -20.8-30.24-47.15-54-78.36-70.56 -66.34-35.28-151.18-35.28-217.29.24 -31.44 16.8-57.79 40.8-78.59 71h-.001c-1.83 3.23-5.31 5.19-9.02 5.08ZM204.1 491v0c-3.1.02-6.05-1.29-8.09-3.6C175.9 466.48 165 453 149.55 424c-16-29.52-24.27-65.52-24.27-104.16 0-71.28 58.71-129.36 130.84-129.36s130.88 58.08 130.88 129.36v0c.18 6.38-4.84 11.7-11.22 11.89 -6.39.18-11.71-4.84-11.9-11.22 -.01-.23-.01-.46 0-.68 0-58.08-48.32-105.36-107.72-105.36s-107.77 47.28-107.77 105.36c0 34.56 7.39 66.48 21.49 92.4 14.8 27.6 25 39.36 42.77 58.08v0c4.36 4.82 4.36 12.17 0 17h-.001c-2.27 2.28-5.34 3.6-8.56 3.68Zm165.75-44.4c-27.51 0-51.78-7.2-71.66-21.36v0c-34.38-24.1-54.89-63.39-55-105.36v0c-.27-6.39 4.69-11.78 11.07-12.05 6.38-.27 11.77 4.69 12.04 11.07 .01.32.01.64 0 .96v0c.07 34.09 16.82 66 44.84 85.44 16.41 11.52 35.6 17 58.72 17v0c8.05-.15 16.07-.95 24-2.4 6.24-1.2 12.25 3.12 13.4 9.84v0c1.21 6.45-3.02 12.68-9.47 13.92v0c-9.21 1.81-18.57 2.78-27.95 2.88ZM323.38 496v0c-1.02-.05-2.03-.21-3-.48 -36.76-10.56-60.8-24.72-86-50.4 -32.37-33.36-50.16-77.76-50.16-125.28 0-38.88 31.9-70.56 71.19-70.56s71.2 31.68 71.2 70.56c0 25.68 21.5 46.56 48.08 46.56s48.08-20.88 48.08-46.56c0-90.48-75.13-163.92-167.59-163.92 -65.65 0-125.75 37.92-152.79 96.72 -9 19.44-13.64 42.24-13.64 67.2 0 18.72 1.61 48.24 15.48 86.64 2.32 6.24-.69 13.2-6.7 15.36h0c-5.86 2.22-12.41-.71-14.64-6.57 -.06-.15-.11-.3-.16-.44l0 0c-11.16-30.44-16.87-62.59-16.88-95 0-28.8 5.32-55 15.72-77.76 30.75-67 98.94-110.4 173.6-110.4 105.18 0 190.71 84.24 190.71 187.92 0 38.88-31.9 70.56-71.2 70.56 -39.3 0-71.2-31.68-71.2-70.56 .01-25.68-21.49-46.6-48.07-46.6 -26.58 0-48.08 20.88-48.08 46.56 0 41 15.26 79.44 43.23 108.24 22 22.56 43 35 75.59 44.4 6.24 1.68 9.71 8.4 8.09 14.64l0-.001c-1.04 5.21-5.56 9.01-10.87 9.16Z"/></svg>