<svg viewBox="0 0 512 512" xmlns="http://www.w3.org/2000/svg"><path d="M80 480v0c-8.84 0-16-7.17-16-16V68.13v0c0-8.54 4.53-16.42 11.9-20.72C88 40.38 112.38 32 160 32c37.21 0 78.83 14.71 115.55 27.68C305.12 70.13 333.05 80 352 80v-.001c24.39-.08 48.52-5.01 71-14.5v-.001c9.15-3.87 19.71.42 23.58 9.58 .93 2.21 1.41 4.59 1.41 6.99v219.36 0c-.01 7.94-4.72 15.13-12 18.31 -8.71 3.81-40.51 16.25-84 16.25 -24.14 0-54.38-7.14-86.39-14.71 -35.98-8.5-73.18-17.29-105.61-17.29 -36.87 0-55.74 5.58-64 9.11v150.89 0c0 8.83-7.17 16-16 16Z"/></svg>