<svg viewBox="0 0 512 512" xmlns="http://www.w3.org/2000/svg"><g><path d="M462 216c9.35-9.35 15.14-19.09 17.19-28.95 2.7-12.95-1.29-25.55-11.22-35.48L360.43 44.05C346.29 29.92 322 24.07 296 50l-2 2v-.001c-3.13 3.12-3.13 8.18-.01 11.31 0 0 0 0 0 0l154.64 154.68v0c3.11 3.13 8.17 3.15 11.31.04 .01-.02.03-.04.04-.05Z"/><path d="M250.14 153.08l-.16 2.34c-.53 7.18-6.88 19.15-13.88 26.14L47.27 370.36c-11.12 11.11-16.46 25.57-15.05 40.7C33.49 424.58 40.16 438 51 448.83L63.17 461c12.61 12.6 27.78 19 42.49 19v0c13.56-.03 26.53-5.53 36-15.24l188.84-188.8c7.07-7.07 18.84-13.3 26.17-13.87 17.48-1.32 43.57-3.28 67.79-15.65v0c1.96-1.02 2.72-3.43 1.71-5.4 -.19-.37-.43-.7-.72-.98L271.68 86.3v-.001c-1.57-1.57-4.1-1.57-5.66-.01 -.3.29-.55.63-.74 1 -12.12 22.99-13.82 46.91-15.16 65.77Zm-9.95 146.83v0c-6.98 8.56-19.57 9.85-28.14 2.88 -8.57-6.98-9.86-19.57-2.89-28.14 6.97-8.57 19.56-9.86 28.13-2.89 1.05.86 2.02 1.82 2.88 2.88h0c5.98 7.35 5.98 17.89-.001 25.25Z"/></g></svg>