<svg viewBox="0 0 512 512" xmlns="http://www.w3.org/2000/svg"><g><path d="M432 448v0c-4.25 0-8.32-1.69-11.31-4.69l-352-352v0c-6.09-6.41-5.83-16.54.57-22.62 6.17-5.87 15.86-5.87 22.04 0l352 352h-.001c6.24 6.25 6.24 16.38-.01 22.62 -3 2.99-7.07 4.68-11.31 4.68Z"/><path d="M431.5 204v0c-1.83-7.07-8.21-12.01-15.5-12H307.19L335.4 37.63c.05-.3.1-.59.13-.89v0c1.28-10.11-5.87-19.35-15.98-20.64 -6.43-.82-12.82 1.79-16.83 6.89l-92.58 114.46v0c-1.29 1.59-1.17 3.9.29 5.35l151 151v0c1.56 1.56 4.09 1.56 5.65 0 .09-.1.19-.21.28-.32l60.8-75.16v-.001c3.31-3.99 4.54-9.31 3.32-14.34Z"/><path d="M301.57 369.19l-151-151v0c-1.57-1.57-4.1-1.56-5.66 0 -.1.09-.19.19-.28.3l-60.84 75.14h0c-3.32 3.99-4.54 9.32-3.3 14.36h0c1.82 7.06 8.2 12 15.5 12h108.83l-28.09 154.36v.11 -.001c-1.73 9.99 4.98 19.5 14.98 21.22 6.62 1.14 13.34-1.43 17.51-6.7l92.61-114.46v0c1.29-1.6 1.17-3.91-.28-5.35Z"/></g></svg>