<svg viewBox="0 0 512 512" xmlns="http://www.w3.org/2000/svg"><g><path d="M256 213a43 43 0 1 0 0 86 43 43 0 1 0 0-86Z"/><path d="M475.93 303.91v0c26.57-26.15 26.91-68.88.77-95.45 -12.76-12.97-30.21-20.24-48.4-20.16 -2.88 0-6.2.14-9.93.43 2.75-2.36 5.23-4.62 7.33-6.71v0c26.43-26.55 26.35-69.49-.19-95.93 -12.63-12.58-29.71-19.69-47.53-19.78h-.25l0 0c-17.98.01-35.2 7.21-47.82 20 -2.11 2.11-4.37 4.59-6.72 7.33 .29-3.75.44-7.07.44-9.93v0c0-37.39-30.31-67.69-67.69-67.69 -37.39 0-67.69 30.3-67.69 67.69 0 2.87.15 6.19.44 9.93 -2.36-2.74-4.62-5.22-6.72-7.33l-.001 0c-12.63-12.79-29.85-19.99-47.82-20h-.17v0c-37.5.29-67.66 30.94-67.36 68.43 .14 17.7 7.19 34.65 19.64 47.23 2.1 2.09 4.58 4.35 7.34 6.72 -3.74-.29-7.06-.44-9.94-.44v0c-37.39 0-67.69 30.3-67.69 67.69 0 37.38 30.3 67.69 67.69 67.69 2.86 0 6.18-.15 9.93-.44 -2.74 2.35-5.22 4.61-7.33 6.72l-.001 0c-26.44 26.32-26.54 69.09-.22 95.52 12.71 12.77 30 19.93 48.03 19.89h.25v0c17.85.02 34.99-7.05 47.64-19.65 2.09-2.1 4.35-4.58 6.71-7.33 -.28 3.73-.43 7.05-.43 9.93v0c0 37.38 30.3 67.69 67.69 67.69 37.38 0 67.69-30.31 67.69-67.69 0-2.87-.15-6.19-.44-9.94 2.36 2.75 4.62 5.24 6.72 7.34v0c12.64 12.62 29.79 19.7 47.67 19.68h.25v-.001c37.27.15 67.62-29.94 67.78-67.22 .07-18.08-7.11-35.44-19.94-48.18 -2.11-2.11-4.59-4.37-7.33-6.72 3.75.29 7.07.44 9.93.44v-.001c17.87-.02 35-7.15 47.62-19.81ZM256 341v0c-46.95 0-85-38.06-85-85 0-46.95 38.05-85 85-85 46.94 0 85 38.05 85 85v0c-.06 46.92-38.08 84.94-85 85Z"/></g></svg>