<svg viewBox="0 0 512 512" xmlns="http://www.w3.org/2000/svg"><g stroke-linecap="round" stroke="#000" stroke-miterlimit="10" stroke-width="32" fill="none"><path d="M215.08 156.92c-4.89-24-10.77-56.27-10.77-73.23v0c-.19-28.37 22.66-51.51 51.02-51.69 .22-.01.44-.01.66 0v0c28.55 0 51.69 23.69 51.69 51.69 0 16.5-5.85 48.95-10.77 73.23"/><path d="M215.08 355.08c-4.91 24.06-10.77 56.16-10.77 73.23v0c-.19 28.36 22.66 51.5 51.02 51.69 .22 0 .44 0 .66 0v0c28.55 0 51.69-23.69 51.69-51.69 0-16.54-5.85-48.93-10.77-73.23"/><path d="M355.08 215.08c24.06-4.91 56.16-10.77 73.23-10.77h0c28.36-.19 51.5 22.66 51.69 51.02 0 .22 0 .44 0 .66v0c0 28.55-23.69 51.69-51.69 51.69 -16.5 0-48.95-5.85-73.23-10.77"/><path d="M156.92 215.07c-24-4.89-56.25-10.76-73.23-10.76h0c-28.37-.19-51.51 22.66-51.69 51.02 -.01.22-.01.44 0 .66v0c0 28.55 23.69 51.69 51.69 51.69 16.5 0 48.95-5.85 73.23-10.77"/><path d="M296.92 156.92c13.55-20.48 32.3-47.25 44.37-59.31v0c19.91-20.19 52.43-20.41 72.61-.49 .16.15.32.32.48.48v0c20.19 20.19 19.8 53.3 0 73.1 -11.66 11.67-38.67 30.67-59.31 44.37"/><path d="M156.92 296.92c-20.48 13.55-47.25 32.3-59.31 44.37v0c-20.19 19.91-20.41 52.43-.49 72.61 .15.16.32.32.48.48v0c20.19 20.19 53.3 19.8 73.1 0 11.67-11.66 30.67-38.67 44.37-59.31"/><path d="M355.08 296.92c20.48 13.55 47.25 32.3 59.31 44.37h0c20.18 19.91 20.4 52.43.48 72.61 -.16.16-.33.32-.49.48v0c-20.19 20.19-53.3 19.8-73.1 0 -11.69-11.69-30.66-38.65-44.37-59.31"/><path d="M215.08 156.92c-13.53-20.43-32.38-47.32-44.37-59.31h0c-19.92-20.19-52.44-20.41-72.62-.49 -.17.15-.33.32-.49.48v0c-20.19 20.19-19.8 53.3 0 73.1 11.61 11.61 38.7 30.68 59.31 44.37"/><path d="M256 192a64 64 0 1 0 0 128 64 64 0 1 0 0-128Z"/></g></svg>