<svg viewBox="0 0 512 512" xmlns="http://www.w3.org/2000/svg"><g stroke-linecap="round" stroke-width="32" stroke="#000" fill="none" stroke-linejoin="round"><path d="M64 192v-72 0c0-22.1 17.9-40 40-40h75.89 0c7.89 0 15.61 2.33 22.19 6.72l27.84 18.56v0c6.57 4.38 14.29 6.71 22.19 6.72H408v0c22.09 0 40 17.9 40 40v40"/><path d="M479.9 226.55L463.68 392v0c0 22.06-17.87 39.96-39.93 40H88.25h0c-22.07-.04-39.94-17.94-39.93-40L32.1 226.55h-.001c-1.41-17.62 11.73-33.04 29.34-34.45 .84-.07 1.7-.11 2.55-.11h384.1v0c17.67.05 31.95 14.42 31.9 32.09 -.01.81-.04 1.63-.11 2.45Z"/></g></svg>