<svg viewBox="0 0 512 512" xmlns="http://www.w3.org/2000/svg"><g><path d="M408 96H252.11v0c-4.74.01-9.37-1.38-13.31-4L211 73.41v0c-9.21-6.16-20.04-9.44-31.11-9.41H104l-.001-.001c-30.92.03-55.97 25.08-56 56v24h416c0-30.88-25.12-48-56-48Z"/><path d="M423.75 448H88.25h-.001c-30.58-.04-55.47-24.59-55.93-55.15L16.17 228.11v-.28h0c-2.12-26.43 17.59-49.57 44.01-51.68 1.26-.11 2.53-.16 3.8-.16h384.1v0c26.5.02 47.97 21.53 47.95 48.04 -.01 1.26-.06 2.52-.16 3.78v.28l-16.22 164.74v0c-.47 30.56-25.36 55.11-55.93 55.15Zm56.15-221.45v0Z"/></g></svg>