<svg viewBox="0 0 512 512" xmlns="http://www.w3.org/2000/svg"><path d="M256 48C141.31 48 48 141.31 48 256c0 114.69 93.31 208 208 208s208-93.31 208-208 -93.31-208-208-208Zm143 304h-45.22v0c-2.86-.01-5.49-1.54-6.91-4l-16.14-27.68v0c-1.07-1.81-1.38-3.97-.86-6l14.86-59.92v0c.6-2.45 2.32-4.47 4.65-5.45l28.1-11.9v0c2.8-1.19 6.03-.69 8.34 1.3l41.63 35.82v0c2.08 1.79 3.1 4.53 2.69 7.26v0c-3.45 23.65-11.72 46.34-24.28 66.68v0c-1.45 2.41-4.05 3.88-6.86 3.89ZM134.52 237.13l28.1 11.9v0c2.32.98 4.04 3 4.65 5.45l14.86 59.92v0c.51 2.03.2 4.19-.86 6L165.13 348v0c-1.43 2.46-4.06 3.99-6.91 4H113v0c-2.79 0-5.37-1.45-6.82-3.81h-.001c-12.57-20.34-20.84-43.03-24.28-66.68v0c-.42-2.73.6-5.47 2.69-7.26l41.63-35.82v0c2.29-1.97 5.51-2.48 8.3-1.3Zm256.94-87.24l-18.07 51.38v0c-.74 2.12-2.33 3.83-4.39 4.73l-29.58 12.53v0c-2.77 1.17-5.96.69-8.26-1.24L274.9 170.1v0c-1.82-1.51-2.89-3.74-2.9-6.1v-33.58 0c0-2.68 1.33-5.17 3.56-6.65l42.83-28.54v0c2.27-1.52 5.15-1.77 7.66-.67h-.001c24.64 10.74 46.51 26.97 63.95 47.44v0c1.86 2.17 2.42 5.18 1.46 7.89ZM193.6 95.23l42.84 28.54v-.001c2.22 1.48 3.55 3.97 3.56 6.65v33.58 0c-.01 2.36-1.05 4.61-2.86 6.13l-56.26 47.19v0c-2.31 1.93-5.5 2.41-8.26 1.24L143 205.99v-.001c-2.08-.88-3.69-2.6-4.43-4.72l-18.07-51.38h0c-.96-2.72-.39-5.73 1.5-7.9v0c17.44-20.49 39.33-36.73 64-47.48v-.001c2.49-1.07 5.35-.8 7.6.71Zm17.31 327.46L191.18 373h-.001c-.92-2.29-.73-4.88.52-7l15.17-26h0c1.42-2.47 4.05-4 6.91-4h84.44v0c2.85 0 5.48 1.53 6.91 4l15.18 26v0c1.24 2.12 1.44 4.7.53 7l-19.59 49.67h0c-.98 2.46-3.11 4.28-5.69 4.87v0c-26 5.96-53.01 5.96-79 0v-.001c-2.57-.59-4.68-2.41-5.65-4.85Z"/></svg>