<svg viewBox="0 0 512 512" xmlns="http://www.w3.org/2000/svg"><path fill="none" stroke="#000" stroke-linecap="round" stroke-miterlimit="10" stroke-width="32" d="M256 64a192 192 0 1 0 0 384 192 192 0 1 0 0-384Z"/><g stroke-linecap="round" stroke-width="32" stroke="#000" fill="none" stroke-linejoin="round"><path d="M256 175.15l-76.09 63.83L200 320l56 0 56 0 20.09-81.02L256 175.15Z"/><path d="M332.09 238.98l52.87-22.4 25.78-73.26"/><path d="M447 269.97l-62.04-53.39"/><path d="M179.91 238.98l-52.87-22.4 -25.78-73.26"/><path d="M65 269.97l62.04-53.39"/><path d="M256 175.15l0-57.57 64-42.64"/><path d="M192 74.93l64 42.65"/><path d="M312 320l28 48 -28 71"/><path d="M410.74 368L342 368"/><path d="M200 320l-28 48 28.37 71.5"/><path d="M101.63 368l70.37 0"/></g></svg>