<svg viewBox="0 0 512 512" xmlns="http://www.w3.org/2000/svg"><path d="M483.13 245.38C461.92 149.49 430 98.31 382.65 84.33v0c-9.96-2.92-20.28-4.38-30.65-4.33 -13.71 0-25.65 3.34-38.28 6.88C298.5 91.15 281.21 96 256 96c-25.21 0-42.51-4.84-57.76-9.11C185.6 83.34 173.67 80 160 80v0c-10.73-.04-21.41 1.41-31.73 4.32 -47.1 13.92-79 65.08-100.52 161C4.61 348.54 16 413.71 59.69 428.83l-.001 0c5.98 2.11 12.29 3.19 18.64 3.22 29.93 0 53.93-24.93 70.33-45.34 18.53-23.1 40.22-34.82 107.34-34.82 59.95 0 84.76 8.13 106.19 34.82 13.47 16.78 26.2 28.52 38.9 35.91 16.89 9.82 33.77 12 50.16 6.37 25.82-8.81 40.62-32.1 44-69.24 2.57-28.48-1.39-65.89-12.12-114.37ZM208 240h-32v32 0c0 8.83-7.17 16-16 16 -8.84 0-16-7.17-16-16v-32h-32v0c-8.84 0-16-7.17-16-16 0-8.84 7.16-16 16-16h32v-32 0c0-8.84 7.16-16 16-16 8.83 0 16 7.16 16 16v32h32v0c8.83 0 16 7.16 16 16 0 8.83-7.17 16-16 16Zm84 4v0c-11.05 0-20-8.96-20-20 0-11.05 8.95-20 20-20 11.04 0 20 8.95 20 20v0c0 11.04-8.96 20-20 20Zm44 44v0c-11.05-.01-20-8.96-20-20.01s8.95-20 20-20c11.04 0 19.99 8.95 19.99 20 -.01.01-.01.03-.01.04v0c-.03 11.02-8.98 19.95-20 19.95Zm0-88v0c-11.05 0-20-8.96-20-20 0-11.05 8.95-20 20-20 11.04 0 20 8.95 20 20v0c0 11.04-8.96 20-20 20Zm44 44v0c-11.05 0-20-8.96-20-20 0-11.05 8.95-20 20-20 11.04 0 20 8.95 20 20v0c0 11.04-8.96 20-20 20Z"/></svg>