<svg viewBox="0 0 512 512" xmlns="http://www.w3.org/2000/svg"><path d="M478.07 356.88L439 151c-8.86-40.35-23-71-88-71H145c-66 0-79.14 30.65-88 71L18 356.88c-7 34.12 4.43 61.25 33.37 71.81C80.31 439.25 103 423 119.18 391.3l15.42-30.52h-.001c2.72-5.39 8.24-8.79 14.28-8.78h198.28v0c6.03-.01 11.55 3.39 14.28 8.78l15.42 30.52c16.14 31.7 38.88 48 67.81 37.39s40.33-37.69 33.4-71.81ZM224 240h-48v48h-32v-48H96v-32h48v-48h32v48h48Zm68 4v0c-11.05 0-20-8.96-20-20 0-11.05 8.95-20 20-20 11.04 0 20 8.95 20 20v0c0 11.04-8.96 20-20 20Zm44 44v0c-11.05 0-20-8.96-20-20 0-11.05 8.95-20 20-20 11.04 0 20 8.95 20 20v0c0 11.04-8.96 20-20 20Zm0-88v0c-11.05 0-20-8.96-20-20 0-11.05 8.95-20 20-20 11.04 0 20 8.95 20 20v0c0 11.04-8.96 20-20 20Zm44 44v0c-11.05 0-20-8.96-20-20 0-11.05 8.95-20 20-20 11.04 0 20 8.95 20 20v0c0 11.04-8.96 20-20 20Z"/></svg>