<svg viewBox="0 0 512 512" xmlns="http://www.w3.org/2000/svg"><g fill="none"><path d="M346 110v0c0-18.78-15.23-34-34-34 -18.78 0-34 15.22-34 34v34h34v0c18.77 0 34-15.23 34-34Z"/><path d="M234 110v0c0-18.78-15.23-34-34-34 -18.78 0-34 15.22-34 34 0 18.77 15.22 34 34 34h34Z"/></g><g><path d="M234 144h44v112h164v0c12.15 0 22-9.85 22-22v-68 0c0-12.16-9.85-22-22-22h-59.82l0 0c18.8-38.73 2.65-85.37-36.08-104.17 -30.33-14.73-66.69-8.29-90.11 15.95v0c-30.05-30.88-79.43-31.55-110.3-1.5 -24.03 23.38-30.43 59.49-15.9 89.7H69.98v0c-12.16 0-22 9.84-22 22v68 0c0 12.15 9.84 22 22 22h164Zm44-34v0c0-18.78 15.22-34 34-34 18.77 0 34 15.22 34 34 0 18.77-15.23 34-34 34h-34Zm-112 0v0c0-18.78 15.22-34 34-34 18.77 0 34 15.22 34 34v34h-34v0c-18.78 0-34-15.23-34-34Z"/><path d="M278 480h132v0c12.15 0 22-9.85 22-22V288H278Z"/><path d="M80 458v0c0 12.15 9.84 22 22 22h132V288H80Z"/></g></svg>