<svg viewBox="0 0 512 512" xmlns="http://www.w3.org/2000/svg"><path d="M384 224h0c-13.67-.02-26.97 4.36-37.95 12.5L160 153.36v-2 0c30.61-17.68 41.09-56.82 23.42-87.43 -17.68-30.62-56.82-41.1-87.43-23.43 -30.62 17.67-41.1 56.81-23.43 87.42 5.61 9.72 13.69 17.8 23.42 23.42v209.25 0c-30.62 17.67-41.1 56.81-23.43 87.42s56.81 41.09 87.42 23.42c30.61-17.68 41.09-56.82 23.42-87.43 -5.62-9.73-13.7-17.81-23.43-23.43V223.42l160.41 71.69v0c3.94 35.12 35.62 60.39 70.74 56.44 35.12-3.95 60.39-35.63 56.44-70.75 -3.65-32.38-31.03-56.86-63.61-56.85ZM128 64v0c17.67 0 32 14.32 32 32 0 17.67-14.33 32-32 32 -17.68 0-32-14.33-32-32v0c0-17.68 14.32-32 32-32Zm0 384v0c-17.68 0-32-14.33-32-32 0-17.68 14.32-32 32-32 17.67 0 32 14.32 32 32v0c0 17.67-14.33 32-32 32Zm256-128v0c-17.68 0-32-14.33-32-32 0-17.68 14.32-32 32-32 17.67 0 32 14.32 32 32v0c0 17.67-14.33 32-32 32Z"/></svg>