<svg viewBox="0 0 512 512" xmlns="http://www.w3.org/2000/svg"><g><path d="M209 384h-37v0c-15.47 0-28-12.54-28-28V152v0c30.92-17.12 42.11-56.07 24.99-86.99 -17.12-30.93-56.07-42.12-86.99-25 -30.93 17.11-42.12 56.06-25 86.98 5.43 9.82 13.36 18.04 22.98 23.83v205.16 0c.05 50.78 41.21 91.94 92 92h37v55.21l85.39-87.21 -85.39-87.21ZM113 64v0c17.67 0 32 14.32 32 32 0 17.67-14.33 32-32 32 -17.68 0-32-14.33-32-32v0c0-17.68 14.32-32 32-32Z"/><path d="M432 360.61V156v0c-.06-50.79-41.22-91.95-92-92h-35V9.93L217.14 96 305 182.07V128h35v0c15.46 0 28 12.53 28 28v204.61 0c-30.62 17.67-41.1 56.81-23.43 87.42s56.81 41.09 87.42 23.42c30.61-17.68 41.09-56.82 23.42-87.43 -5.62-9.73-13.7-17.81-23.43-23.43ZM400 448v0c-17.68 0-32-14.33-32-32 0-17.68 14.32-32 32-32 17.67 0 32 14.32 32 32v0c0 17.67-14.33 32-32 32Z"/></g></svg>