<svg viewBox="0 0 512 512" xmlns="http://www.w3.org/2000/svg"><path d="M416 160v0c.01-35.35-28.63-64.02-63.98-64.03 -35.35-.02-64.02 28.62-64.03 63.97 -.02 22.76 12.07 43.81 31.72 55.29 -2.29 29.08-20.08 37-75 48.42 -17.76 3.68-35.93 7.45-52.71 13.93v-126.2 0c30.61-17.68 41.09-56.82 23.42-87.43 -17.68-30.62-56.82-41.1-87.43-23.43 -30.62 17.67-41.1 56.81-23.43 87.42 5.61 9.72 13.69 17.8 23.42 23.42v209.22 0c-30.61 17.67-41.1 56.81-23.42 87.42 17.67 30.6 56.81 41.09 87.42 23.41 30.6-17.68 41.09-56.82 23.41-87.43 -5.54-9.59-13.47-17.58-23.01-23.18 2.39-18 16-24.33 65.26-34.52 27.43-5.67 55.78-11.54 79.78-26.95 29-18.58 44.53-46.78 46.36-83.89v0c19.88-11.41 32.15-32.57 32.16-55.49ZM160 64v0c17.67 0 32 14.32 32 32 0 17.67-14.33 32-32 32 -17.68 0-32-14.33-32-32v0c0-17.68 14.32-32 32-32Zm-.001 384v0c-17.68 0-32-14.33-32-32 0-17.68 14.32-32 32-32 17.67 0 32 14.32 32 32v0c0 17.67-14.33 32-32 32Zm192-256v0c-17.68 0-32-14.33-32-32 0-17.68 14.32-32 32-32 17.67 0 32 14.32 32 32v0c0 17.67-14.33 32-32 32Z"/></svg>