<svg viewBox="0 0 512 512" xmlns="http://www.w3.org/2000/svg"><path d="M352 96v0c-35.35 0-64 28.66-64 64 0 8.62 1.74 17.16 5.13 25.1l-101.14 88V151.38v0c30.61-17.68 41.09-56.82 23.42-87.43 -17.68-30.62-56.82-41.1-87.43-23.43 -30.62 17.67-41.1 56.81-23.43 87.42 5.61 9.72 13.69 17.8 23.42 23.42v209.22 0c-30.62 17.67-41.1 56.81-23.43 87.42s56.81 41.09 87.42 23.42c30.61-17.68 41.09-56.82 23.42-87.43 -5.62-9.73-13.7-17.81-23.43-23.43v-2.61L346.2 223.68c1.9.17 3.81.27 5.75.27v0c35.34 0 64-28.66 64-64 0-35.35-28.66-64-64-64ZM160 64v0c17.67 0 32 14.32 32 32 0 17.67-14.33 32-32 32 -17.68 0-32-14.33-32-32v0c0-17.68 14.32-32 32-32Zm0 384v0c-17.68 0-32-14.33-32-32 0-17.68 14.32-32 32-32 17.67 0 32 14.32 32 32v0c0 17.67-14.33 32-32 32Zm192-256v0c-17.68 0-32-14.33-32-32 0-17.68 14.32-32 32-32 17.67 0 32 14.32 32 32v0c0 17.67-14.33 32-32 32Z"/></svg>