<svg viewBox="0 0 512 512" xmlns="http://www.w3.org/2000/svg"><g><path d="M192 96v0c.01-35.35-28.63-64.02-63.98-64.03C92.67 31.95 64 60.59 63.99 95.94c-.01 22.46 11.75 43.28 30.99 54.86v209.8 0c-30.62 17.67-41.1 56.81-23.43 87.42s56.81 41.09 87.42 23.42c30.61-17.68 41.09-56.82 23.42-87.43 -5.62-9.73-13.7-17.81-23.43-23.43V151.97v0c20.35-11.29 32.99-32.73 33-56Zm-64-32v0c17.67 0 32 14.32 32 32 0 17.67-14.33 32-32 32 -17.68 0-32-14.33-32-32v0c0-17.68 14.32-32 32-32Zm-1 384v0c-17.68 0-32-14.33-32-32 0-17.68 14.32-32 32-32 17.67 0 32 14.32 32 32v0c0 17.67-14.33 32-32 32Z"/><path d="M416 360.61V156v0c-.06-50.79-41.22-91.95-92-92h-35V9.93L201.14 96 289 182.07V128h35v0c15.46 0 28 12.53 28 28v204.61 0c-30.62 17.67-41.1 56.81-23.43 87.42s56.81 41.09 87.42 23.42c30.61-17.68 41.09-56.82 23.42-87.43 -5.62-9.73-13.7-17.81-23.43-23.43ZM384 448v0c-17.68 0-32-14.33-32-32 0-17.68 14.32-32 32-32 17.67 0 32 14.32 32 32v0c0 17.67-14.33 32-32 32Z"/></g></svg>