<svg viewBox="0 0 512 512" xmlns="http://www.w3.org/2000/svg"><path d="M464 184h-10.9v-.001c-5.05-2.99-10.42-5.4-16-7.18 -17.6-5.82-40.84-8.82-69.1-8.82 -28.26 0-51.5 3-69.06 8.82 -14.06 4.69-20.25 9.86-22.25 11.87v0 0c-13.08-6.26-28.29-6.26-41.36 0v0c-2-2-8.19-7.18-22.25-11.87 -17.58-5.82-40.82-8.82-69.08-8.82 -28.26 0-51.5 3-69.06 8.82v0c-5.59 1.78-10.96 4.19-16 7.18H48v0c-8.84 0-16 7.16-16 16 0 8.83 7.16 16 16 16h.17c1 45.46 6.44 72.78 18.11 92.23v0c7.31 12.55 18.51 22.38 31.92 28 12.23 5.24 27.22 7.79 45.8 7.79 24.15 0 58.48-3.71 77.72-35.77 9.68-16.14 15.09-37.69 17.21-70.52v0c.7-1.83 1.06-3.78 1.07-5.73v0c0-8.84 7.16-16 16-16 8.83 0 16 7.16 16 16h-.001c0 1.95.36 3.88 1.07 5.71 2.12 32.83 7.53 54.38 17.21 70.52v0c7.31 12.55 18.51 22.38 31.92 28 12.23 5.24 27.22 7.79 45.8 7.79 24.15 0 58.48-3.71 77.72-35.77 11.67-19.45 17.13-46.77 18.11-92.23h.17v0c8.83 0 16-7.17 16-16 0-8.84-7.17-16-16-16Z"/></svg>