<svg viewBox="0 0 512 512" xmlns="http://www.w3.org/2000/svg"><g stroke-width="44" stroke-miterlimit="10" stroke="#000" fill="none"><path d="M256 48C141.13 48 48 141.13 48 256c0 114.87 93.13 208 208 208s208-93.13 208-208 -93.13-208-208-208Z"/><path d="M256 48c-58.07 0-112.67 93.13-112.67 208s54.6 208 112.67 208 112.67-93.13 112.67-208 -54.6-208-112.67-208Z"/></g><g stroke-linecap="round" stroke-width="44" stroke="#000" fill="none" stroke-linejoin="round"><path d="M117.33 121.33c38.24 27.15 86.38 43.34 138.67 43.34 52.29 0 100.43-16.19 138.67-43.34"/><path d="M394.67 390.67c-38.24-27.15-86.38-43.34-138.67-43.34 -52.29 0-100.43 16.19-138.67 43.34"/></g><g stroke-width="44" stroke-miterlimit="10" stroke="#000" fill="none"><path d="M256 48l0 416"/><path d="M464 256l-416 0"/></g></svg>