<svg viewBox="0 0 512 512" xmlns="http://www.w3.org/2000/svg"><g><path d="M204 240H68v0c-19.89 0-36-16.12-36-36V68v0c0-19.89 16.11-36 36-36h136v0c19.88 0 36 16.11 36 36v136 0c0 19.88-16.12 36-36 36Z"/><path d="M444 240H308v0c-19.89 0-36-16.12-36-36V68v0c0-19.89 16.11-36 36-36h136v0c19.88 0 36 16.11 36 36v136 0c0 19.88-16.12 36-36 36Z"/><path d="M204 480H68v0c-19.89 0-36-16.12-36-36V308v0c0-19.89 16.11-36 36-36h136v0c19.88 0 36 16.11 36 36v136 0c0 19.88-16.12 36-36 36Z"/><path d="M444 480H308v0c-19.89 0-36-16.12-36-36V308v0c0-19.89 16.11-36 36-36h136v0c19.88 0 36 16.11 36 36v136 0c0 19.88-16.12 36-36 36Z"/></g></svg>