<svg viewBox="0 0 512 512" xmlns="http://www.w3.org/2000/svg"><g stroke-linecap="round" stroke-width="32" stroke="#000" fill="none" stroke-linejoin="round"><path d="M277.42 247h0c-1.11-2.01-2.48-3.85-4.08-5.47L255 223.44v0c-1.89-1.92-4.11-3.47-6.56-4.57v-.001c-7.9-3.53-17.15-1.83-23.28 4.27 -6.36 6.26-18 17.68-39 38.43C146 301.29 71.43 367.889 37.71 396.289H37.7c-6.78 5.67-7.68 15.76-2.01 22.53 .28.34.59.68.91 1l39 39.43H75.6c6.28 6.3 16.5 6.32 22.81.03 .29-.3.58-.61.85-.93 29.24-34.37 96.3-109 136-148.23 20.39-20.06 31.82-31.58 38.29-37.94v0c6.58-6.7 8.12-16.86 3.84-25.2Z"/><path d="M478.43 201l-34.31-34h0c-1.06-1.06-2.51-1.64-4-1.59v0c-1.5-.03-2.94.54-4 1.59v0 0c-2.51 2.51-6.04 3.72-9.55 3.27 -4.48-.49-9.25-1.88-12.33-4.86 -7-6.86 1.09-20.36-5.07-29v0c-7.04-9.46-14.75-18.39-23.08-26.72 -7.06-7-34.81-33.47-81.55-52.53v-.001c-14.92-6.12-30.89-9.25-47-9.24 -26.35 0-46.61 11.76-54 18.51 -5.88 5.32-12 13.77-12 13.77v0c3.53-1.29 7.14-2.36 10.81-3.2v0c7.64-1.64 15.48-2.15 23.28-1.49 15.56 1.29 34.31 8.59 44.37 16.49 16.21 13 23.18 30.39 24.27 52.83 .8 16.69-15.23 37.76-30.44 54.94v-.001c-2.78 3.13-2.61 7.9.4 10.83l21.24 21.23v0c3.07 3.03 8 3.08 11.14.1 13.93-13.51 31.09-28.47 40.82-34.46 9.73-5.99 17.58-7.68 21.35-8.09v0c7.4-.72 14.85.89 21.3 4.62h0c1.13.64 2.17 1.44 3.08 2.38 6.46 6.56 6.07 17.28-.5 23.74l-2 1.89V222c-2.17 2.13-2.2 5.61-.07 7.77 .02.02.04.04.06.06l34.31 34v0c1.06 1.04 2.5 1.61 4 1.58v0c1.48.02 2.92-.55 4-1.58l55.46-54.85v0c2.12-2.25 2.12-5.76 0-8Z"/></g></svg>