<svg viewBox="0 0 512 512" xmlns="http://www.w3.org/2000/svg"><g><path d="M280.16 242.79l-26.11-26.12v0c-12.46-12.46-32.63-12.51-45.14-.12L27.38 384.08c-6.61 6.23-10.95 14.17-11.35 23.06h0c-.39 8.91 2.94 17.58 9.21 23.94l39 39.43v0c.02.02.04.04.07.07H64.3c6.02 6 14.18 9.39 22.69 9.42h1.18c8.89-.33 16.85-4.5 23.17-11.17l168.7-180.7v0c12.55-12.45 12.63-32.71.19-45.26 -.03-.03-.06-.06-.09-.09Z"/><path d="M490 190l-.31-.31 -34.27-33.92v0c-4.06-4.05-9.56-6.3-15.28-6.26h-.001c-4.6 0-9.07 1.45-12.79 4.14 0-.43.06-.85.09-1.22 .45-6.5 1.15-16.32-5.2-25.22v0c-7.55-10.18-15.84-19.79-24.8-28.74v-.001c-.03-.03-.06-.06-.08-.08 -13.32-13.12-42.31-37.83-86.72-55.94v0c-16.85-6.92-34.88-10.47-53.08-10.45 -31.56 0-55.56 14.24-64.75 22.68v-.001c-5.21 4.97-9.95 10.39-14.18 16.22v0c-5.19 7.15-3.59 17.15 3.56 22.34 4.36 3.16 10.03 3.91 15.08 1.99v0c2.8-1.05 5.66-1.93 8.58-2.63l0-.001c6.06-1.29 12.27-1.67 18.45-1.15 13.19 1.09 28.79 7.64 35.69 13.09 11.7 9.41 17.33 22.09 18.26 41.09 .18 3.82-7.72 18.14-20 34.48h0c-4.84 6.37-4.22 15.34 1.45 21l34.41 34.41v0c6 6.01 15.66 6.29 22 .62 9.73-8.69 24.55-21.79 29.73-25 7.69-4.73 13.19-5.64 14.7-5.8v0c3.91-.39 7.86.44 11.29 2.38l0 0c.03.34-.08.69-.31.95l-1.82 1.73 -.3.28h-.001c-8.42 8.38-8.45 22.01-.06 30.43 .03.03.07.07.1.1l34.26 33.91v0c4.05 4.03 9.55 6.28 15.28 6.25l-.001-.001c5.68 0 11.15-2.22 15.22-6.2l55.5-54.82c.19-.19.38-.39.56-.59v0c7.72-8.47 7.6-21.47-.28-29.78Z"/></g></svg>