<svg viewBox="0 0 512 512" xmlns="http://www.w3.org/2000/svg"><path d="M79.2 211.44v0c15.52-8.82 34.91-2.28 43.31 13.68l41.38 84.41v-.001c1.6 3.31 5.51 4.81 8.93 3.43v0 0c2.66-1.07 4.41-3.65 4.41-6.52V71.99c0-13.91 12.85-24 26.77-24s26 10.09 26 24v156.64h-.001c-.07 6.08 4.71 11.11 10.79 11.36h0c6.07.11 11.09-4.72 11.2-10.79 0-.08 0-.15 0-.22v-205c0-13.91 10.94-24 24.86-24s25.14 10.09 25.14 24v204.64 0c-.07 6.08 4.71 11.11 10.79 11.36v0c6.07.11 11.09-4.72 11.2-10.79 0-.08 0-.15 0-.22v-173c0-13.91 12.08-24 26-24s26 11.09 26 25v187.64 0c-.07 6.08 4.71 11.11 10.79 11.36v0c6.07.11 11.09-4.72 11.2-10.79 0-.08 0-.15 0-.22v-125c0-13.91 11.08-24 25-24s25.12 10.22 25 24v216c0 117.41-72 176-160 176h-16c-88 0-115.71-39.6-136-88l-68.67-169c-6.66-18-3.64-34.75 11.87-43.56Z"/></svg>