<svg viewBox="0 0 512 512" xmlns="http://www.w3.org/2000/svg"><path d="M432.8 211.44v0c-15.52-8.82-34.91-2.28-43.31 13.68l-41.38 84.41v-.001c-1.61 3.31-5.52 4.81-8.93 3.43v0 -.001c-2.67-1.07-4.42-3.65-4.41-6.52V71.99c0-13.91-12.85-24-26.77-24s-26 10.09-26 24v156.64 0c.06 6.08-4.72 11.11-10.79 11.36v0c-6.08.11-11.1-4.72-11.21-10.79 -.01-.08-.01-.15-.01-.22v-205c0-13.91-10.94-24-24.86-24s-25.14 10.09-25.14 24v204.64 0c.06 6.08-4.72 11.11-10.79 11.36v0c-6.08.11-11.1-4.72-11.21-10.79 -.01-.08-.01-.15-.01-.22v-173c0-13.91-12.08-24-26-24s-26 11.09-26 25v187.64h0c.06 6.08-4.72 11.11-10.79 11.36v0c-6.08.11-11.1-4.72-11.21-10.79 -.01-.08-.01-.15-.01-.22v-125c0-13.91-11.08-24-25-24s-25.12 10.22-25 24v216c0 117.41 72 176 160 176h16c88 0 115.71-39.6 136-88l68.71-169c6.62-18 3.6-34.75-11.91-43.56Z"/></svg>