<svg viewBox="0 0 512 512" xmlns="http://www.w3.org/2000/svg"><g><path d="M184 208a24 24 0 1 0 0 48 24 24 0 1 0 0-48Z"/><path d="M256.05 384c-45.42 0-83.62-29.53-95.71-69.83v0c-1.2-4.26 1.27-8.68 5.52-9.88 .74-.22 1.51-.32 2.29-.3h175.69v0c4.41-.07 8.05 3.46 8.11 7.87 .01.77-.09 1.54-.3 2.29 -11.99 40.3-50.2 69.83-95.62 69.83Z"/><path d="M328 208a24 24 0 1 0 0 48 24 24 0 1 0 0-48Z"/></g><path fill="none" stroke="#000" stroke-miterlimit="10" stroke-width="32" d="M256 48a208 208 0 1 0 0 416 208 208 0 1 0 0-416Z"/></svg>