<svg viewBox="0 0 512 512" xmlns="http://www.w3.org/2000/svg"><g><path d="M32 64.45l389.47 389.94 22.84-22.47L54.85 42 32 64.45Z"/><path d="M62.67 192.91c-.56 55.63 19.77 106.94 62.16 156.88 40.25 47.42 94.56 79.67 137.47 108.21l9 6 9-6c18.49-12.3 39.1-25.3 59.79-39.89L71.74 149.28v0c-5.85 13.8-8.94 28.63-9.07 43.63Z"/><path d="M417.83 349.79c42.39-49.94 62.72-101.25 62.16-156.88 -.63-62-50.61-112.54-111.43-112.54 -48.26 0-80.35 28-97.23 48.17 -16.88-20.2-49-48.17-97.23-48.17v0c-10.6 0-21.13 1.56-31.26 4.63l270 270.48c1.71-1.89 3.37-3.78 4.99-5.69Z"/></g></svg>