<svg viewBox="0 0 512 512" xmlns="http://www.w3.org/2000/svg"><path fill="none" stroke="#000" stroke-miterlimit="10" stroke-width="32" d="M448 256c0-106-86-192-192-192C150 64 64 150 64 256c0 106 86 192 192 192s192-86 192-192Z"/><g><path d="M333.2 297.69c18.28-23.39 27.06-47.43 26.79-73.37 -.31-31.06-25.22-56.33-55.53-56.33 -20.4 0-35 10.64-44.11 20.42v-.001c-2.23 2.4-5.98 2.54-8.39.31 -.12-.11-.22-.21-.32-.32 -9.11-9.78-23.71-20.42-44.11-20.42l-1.54.01v0c-2.21.03-3.97 1.85-3.94 4.06 .01 1.04.44 2.03 1.18 2.77l124 123.21v0c1.5 1.55 3.98 1.6 5.54.09 .14-.15.28-.3.4-.46Z"/><path d="M158.84 221v0c-1.57-1.56-4.1-1.56-5.66.01 -.72.72-1.14 1.68-1.17 2.7 0 .21 0 .43 0 .64 -.28 27.1 9.31 52.13 29.3 76.5 9.38 11.44 26.4 29.73 65.7 56.41v0c5.42 3.71 12.57 3.71 18 0 5.15-3.49 9.9-6.84 14.31-10l0 0c1.78-1.31 2.17-3.81.87-5.59 -.13-.18-.27-.34-.42-.49Z"/><path d="M336 368v0c-4.25 0-8.32-1.69-11.31-4.69l-176-176v0c-6.09-6.41-5.83-16.54.57-22.62 6.17-5.87 15.86-5.87 22.04 0l176 176v0c6.24 6.25 6.24 16.38-.01 22.62 -3 2.99-7.07 4.68-11.31 4.68Z"/></g></svg>