<svg viewBox="0 0 512 512" xmlns="http://www.w3.org/2000/svg"><g><path d="M417.84 448v0c-4.27 0-8.35-1.7-11.35-4.72L40.65 75.26l0 0c-6.23-6.27-6.2-16.41.07-22.63 6.26-6.23 16.4-6.2 22.63.07l365.83 368v0c6.24 6.25 6.22 16.38-.03 22.62 -3.01 2.99-7.08 4.67-11.32 4.67Z"/><path d="M364.92 80c-48.09 0-80 29.55-96.92 51 -16.88-21.48-48.83-51-96.92-51v0c-10.51-.01-20.95 1.52-31 4.55L168 112c22.26 0 45.81 9 63.94 26.67v0c8.6 8.37 15.92 17.96 21.75 28.47v0c3.96 7.89 13.57 11.08 21.47 7.12 3.07-1.55 5.57-4.05 7.12-7.13v0c5.82-10.52 13.15-20.13 21.77-28.51 18.13-17.63 38.6-26.63 60.86-26.63 43.15 0 78.62 36.33 79.07 81 .54 53.69-22.75 99.55-57.38 139.52l22.63 22.77c3-3.44 5.7-6.64 8.14-9.6 40-48.75 59.15-98.8 58.61-153 -.62-62.17-50.45-112.69-111.07-112.69Z"/><path d="M268 432C180.38 372.51 91 297.6 92 193v0c.06-6.2.81-12.37 2.24-18.39L69 149.14h0c-5.8 13.77-8.86 28.54-9 43.49 -.54 54.22 18.63 104.27 58.61 153 18.77 22.87 52.8 59.45 131.39 112.8v0c10.84 7.43 25.15 7.43 36 0 20.35-13.81 37.7-26.5 52.58-38.11l-22.66-22.81C300.25 409.6 284.09 421.05 268 432Z"/></g></svg>