<svg viewBox="0 0 512 512" xmlns="http://www.w3.org/2000/svg"><path d="M256 48C141.31 48 48 141.31 48 256c0 114.69 93.31 208 208 208s208-93.31 208-208 -93.31-208-208-208Zm23.3 299.19c-4.41 3.2-9.16 6.55-14.31 10v0c-5.43 3.71-12.58 3.71-18 0 -39.3-26.68-56.32-45-65.7-56.41 -20-24.37-29.58-49.4-29.3-76.5 0-.21 0-.43 0-.64v0c.06-2.21 1.9-3.95 4.11-3.89 1.01.02 1.98.44 2.7 1.16l120.95 120.2v0c1.56 1.55 1.57 4.08.02 5.65 -.15.15-.31.28-.49.41Zm68 16.12v0c-6.25 6.24-16.38 6.24-22.62 0l-176-176v0c-6.09-6.41-5.83-16.54.57-22.62 6.17-5.87 15.86-5.87 22.04 0l176 176v0c6.24 6.24 6.25 16.36.01 22.62Zm-14.1-65.62v0c-1.29 1.74-3.74 2.11-5.49.82 -.19-.14-.36-.3-.52-.46l-124-123.21 -.001 0c-1.58-1.56-1.6-4.09-.05-5.66 .75-.77 1.77-1.2 2.84-1.2h1.55c20.4 0 35 10.64 44.11 20.42h-.001c2.22 2.4 5.97 2.54 8.38.31 .11-.11.21-.21.31-.32 9.11-9.78 23.71-20.42 44.11-20.42 30.31 0 55.22 25.27 55.53 56.33 .26 25.93-8.52 49.97-26.8 73.36Z"/></svg>