<svg viewBox="0 0 512 512" xmlns="http://www.w3.org/2000/svg"><path d="M256 64C150 64 64 150 64 256c0 106 86 192 192 192s192-86 192-192 -86-192-192-192Zm-6 304v0c-11.05 0-20-8.96-20-20 0-11.05 8.95-20 20-20 11.04 0 20 8.95 20 20v0c0 11.04-8.96 20-20 20Zm33.44-102C267.23 276.88 265 286.85 265 296v0c0 7.73-6.27 14-14 14 -7.74 0-14-6.27-14-14 0-21.91 10.08-39.33 30.82-53.26C287.1 229.8 298 221.6 298 203.57c0-12.26-7-21.57-21.49-28.46 -3.41-1.62-11-3.2-20.34-3.09 -11.72.15-20.82 2.95-27.83 8.59C215.12 191.25 214 202.83 214 203v0c-.38 7.73-6.95 13.69-14.68 13.32 -7.74-.38-13.7-6.95-13.33-14.68 .11-2.43 1.8-24.32 24.77-42.8 11.91-9.58 27.06-14.56 45-14.78 12.7-.15 24.63 2 32.72 5.82 24.21 11.45 37.51 30.54 37.51 53.68 0 33.83-22.61 49.02-42.56 62.43Z"/></svg>