<svg viewBox="0 0 512 512" xmlns="http://www.w3.org/2000/svg"><g><path d="M261.56 101.28v0c-3.1-2.96-7.97-2.96-11.06-.001L66.4 277.149v0c-1.58 1.51-2.48 3.6-2.47 5.79l-.03 165.06h0c0 17.67 14.32 32 32 32H192v0c8.83 0 16-7.17 16-16v-136 0c0-4.42 3.58-8 8-8h80v0c4.41 0 8 3.58 8 8v136 0c0 8.83 7.16 16 16 16h96.06v0c17.67 0 32-14.33 32-32v-165.06 0c0-2.19-.9-4.28-2.47-5.79Z"/><path d="M490.91 244.15l-74.8-71.56V64v0c0-8.84-7.17-16-16-16h-48v0c-8.84 0-16 7.16-16 16v32l-57.92-55.38C272.77 35.14 264.71 32 256 32v0c-8.68 0-16.72 3.14-22.14 8.63l-212.7 203.5c-6.22 6-7 15.87-1.34 22.37h0c5.78 6.67 15.89 7.4 22.56 1.61 .2-.19.41-.37.61-.56l207.5-198.28v-.001c3.09-2.96 7.96-2.96 11.06 0l207.52 198.28v0c6.36 6.1 16.46 5.9 22.59-.44 6.14-6.36 5.63-16.86-.76-22.97Z"/></g></svg>