<svg viewBox="0 0 512 512" xmlns="http://www.w3.org/2000/svg"><path d="M415.7 427.13c-8.74-76.89-43.83-108.76-69.46-132C328.52 279 320 270.61 320 256c0-14.41 8.49-22.64 26.16-38.44 25.93-23.17 61.44-54.91 69.56-132.84v0c1.31-13.25-3.05-26.42-12-36.26v-.001c-9.56-10.52-23.13-16.5-37.33-16.46H145.61l0-.001c-14.23-.05-27.82 5.93-37.39 16.46l0 0c-8.93 9.85-13.27 23.02-11.94 36.26 8.09 77.68 43.47 109.19 69.3 132.19 17.84 15.89 26.42 24.18 26.42 39.09 0 15.1-8.6 23.56-26.5 39.75 -25.5 23.1-60.5 54.73-69.2 131.38v0c-1.43 13.18 2.82 26.34 11.7 36.2v-.001c9.59 10.64 23.27 16.71 37.61 16.67h220.78v0c14.33.04 28.01-6.03 37.61-16.67v0c8.87-9.86 13.12-23.02 11.7-36.2ZM343.3 432H169.13c-15.6 0-20-18-9.06-29.16C186.55 376 240 356.78 240 326V224c0-19.85-38-35-61.51-67.2 -3.88-5.31-3.49-12.8 6.37-12.8h142.73c8.41 0 10.22 7.43 6.4 12.75C310.82 189 272 204.05 272 224v102c0 30.53 55.71 47 80.4 76.87 9.95 12.04 6.47 29.13-9.1 29.13Z"/></svg>