<svg viewBox="0 0 512 512" xmlns="http://www.w3.org/2000/svg"><path d="M416 64H96v0c-35.34.03-63.97 28.66-64 64v256 -.001c.03 35.33 28.66 63.96 64 64h320v0c35.33-.04 63.96-28.67 64-64v-256 0c-.04-35.34-28.67-63.97-64-64Zm-80 64v0c26.5 0 48 21.49 48 48 0 26.5-21.5 48-48 48 -26.51 0-48-21.5-48-48v0c.02-26.5 21.5-47.98 48-48ZM96 416v0c-17.68 0-32-14.33-32-32v-67.63l94.84-84.3h-.001c18.99-16.85 47.81-16.02 65.8 1.9l64.95 64.81L172.369 416Zm352-32v0c0 17.67-14.33 32-32 32H217.63l121.42-121.42h0c17.75-15.1 43.81-15.17 61.64-.16L448 333.84Z"/></svg>