<svg viewBox="0 0 512 512" xmlns="http://www.w3.org/2000/svg"><g stroke-width="32" stroke="#000" fill="none" stroke-linejoin="round"><path d="M432 112V96v0c-.08-26.48-21.53-47.93-48-48H64v0c-26.48.07-47.93 21.52-48 48v256 0c.07 26.47 21.52 47.92 48 48h16"/><rect width="400" height="336" x="96" y="128" rx="45.99"/></g><path fill="none" stroke="#000" stroke-miterlimit="10" stroke-width="32" d="M372.92 189.09a30.77 30.55 0 1 0 0 61.1 30.77 30.55 0 1 0 0-61.1Z"/><g stroke-linecap="round" stroke-width="32" stroke="#000" fill="none" stroke-linejoin="round"><path d="M342.15 372.17L255 285.78h0c-11.56-11.43-29.99-11.95-42.18-1.21L96 387.64"/><path d="M265.23 464l118.59-117.73 -.001-.001c11.3-11.15 29.19-11.96 41.46-1.87l70.72 58.51"/></g></svg>