<svg viewBox="0 0 512 512" xmlns="http://www.w3.org/2000/svg"><path d="M218.1 167.2c0 13 0 25.6 4.1 37.4 -43.1 50.6-167.5 194.5-167.5 194.5l2.9 36.3s34.8 33 40 28c15.4-15 24.8-25.2 24.8-25.2l7.24-43.35 47.11-3.47 3.78-46.8 49.63-.95 .49-50.09 52.69 2.1 9-18.84c15.5 6.7 29.6 9.4 47.7 9.4 68.5 0 124-53.4 124-119.2 0-65.8-55.54-119-124.04-119s-121.9 53.4-121.9 119.2ZM406.85 144v0c-.001 21.45-17.4 38.85-38.85 38.85 -21.46 0-38.85-17.4-38.85-38.85 0-21.46 17.39-38.85 38.85-38.85h-.001c21.43-.03 38.82 17.33 38.85 38.76 0 .02 0 .05 0 .08Z"/></svg>