<svg viewBox="0 0 512 512" xmlns="http://www.w3.org/2000/svg"><g><path d="M256 400v0c-26.51 0-48 21.49-48 48 0 26.5 21.49 48 48 48 26.5 0 48-21.5 48-48v0c0-26.51-21.5-48-48-48Z"/><path d="M256 272v0c-26.51 0-48 21.49-48 48 0 26.5 21.49 48 48 48 26.5 0 48-21.5 48-48v0c0-26.51-21.5-48-48-48Z"/><path d="M256 144v0c-26.51 0-48 21.49-48 48 0 26.5 21.49 48 48 48 26.5 0 48-21.5 48-48v0c0-26.51-21.5-48-48-48Z"/><path d="M256 16v0c-26.51 0-48 21.49-48 48 0 26.5 21.49 48 48 48 26.5 0 48-21.5 48-48v0c0-26.51-21.5-48-48-48Z"/><path d="M384 272v0c-26.51 0-48 21.49-48 48 0 26.5 21.49 48 48 48 26.5 0 48-21.5 48-48v0c0-26.51-21.5-48-48-48Z"/><path d="M384 144v0c-26.51 0-48 21.49-48 48 0 26.5 21.49 48 48 48 26.5 0 48-21.5 48-48v0c0-26.51-21.5-48-48-48Z"/><path d="M384 16v0c-26.51 0-48 21.49-48 48 0 26.5 21.49 48 48 48 26.5 0 48-21.5 48-48v0c0-26.51-21.5-48-48-48Z"/><path d="M128 272v0c-26.51 0-48 21.49-48 48 0 26.5 21.49 48 48 48 26.5 0 48-21.5 48-48v0c0-26.51-21.5-48-48-48Z"/><path d="M128 144v0c-26.51 0-48 21.49-48 48 0 26.5 21.49 48 48 48 26.5 0 48-21.5 48-48v0c0-26.51-21.5-48-48-48Z"/><path d="M128 16v0c-26.51 0-48 21.49-48 48 0 26.5 21.49 48 48 48 26.5 0 48-21.5 48-48v0c0-26.51-21.5-48-48-48Z"/></g></svg>