<svg viewBox="0 0 512 512" xmlns="http://www.w3.org/2000/svg"><g><path d="M161.35 242v0c6.05-6.44 16.18-6.74 22.61-.69 0 0 0 0 0 0 73.63 69.36 147.51 111.56 234.45 133.07 11.73-32 12.77-67.22 2.64-101.58 -13.44-45.59-44.74-85.31-90.49-114.86 -40.84-26.38-81.66-33.25-121.15-39.89 -49.82-8.38-96.88-16.3-141.79-63.85 -5-5.26-11.81-7.37-18.32-5.66 -7.44 2-12.43 7.88-14.82 17.6 -5.6 22.75-2 86.51 13.75 153.82 25.29 108.14 65.65 162.86 95.06 189.73 38 34.69 87.62 53.9 136.93 53.9v0c9.29.01 18.57-.67 27.77-2.04 41.71-6.32 76.43-27.27 96-57.75 -89.49-23.28-165.94-67.55-242-139.16v0c-6.44-6.06-6.74-16.19-.69-22.62 .01-.02.02-.03.03-.04Z"/><path d="M467.43 384.19c-16.83-2.59-33.13-5.84-49-9.77v-.001c-3.27 8.9-7.33 17.5-12.13 25.68 -.73 1.25-1.5 2.49-2.29 3.71v-.001c19.3 4.99 38.84 9 58.56 12v0c8.7 1.52 16.99-4.29 18.52-12.99 1.52-8.71-4.29-17-12.99-18.53 -.23-.04-.45-.08-.67-.11Z"/></g></svg>