<svg viewBox="0 0 512 512" xmlns="http://www.w3.org/2000/svg"><path d="M256 48C141.31 48 48 141.31 48 256c0 114.69 93.31 208 208 208s208-93.31 208-208 -93.31-208-208-208Zm-88 302v0c-13.26 0-24-10.75-24-24 0-13.26 10.74-24 24-24 13.25 0 24 10.74 24 24v0c0 13.25-10.75 24-24 24Zm0-71v0c-13.26 0-24-10.75-24-24 0-13.26 10.74-24 24-24 13.25 0 24 10.74 24 24v0c0 13.25-10.75 24-24 24Zm0-73v0c-13.26 0-24-10.75-24-24 0-13.26 10.74-24 24-24 13.25 0 24 10.74 24 24v0c0 13.25-10.75 24-24 24Zm184 135H224v0c-8.84 0-16-7.17-16-16 0-8.84 7.16-16 16-16h128v0c8.83 0 16 7.16 16 16 0 8.83-7.17 16-16 16Zm0-71H224v0c-8.84 0-16-7.17-16-16 0-8.84 7.16-16 16-16h128v0c8.83 0 16 7.16 16 16 0 8.83-7.17 16-16 16Zm0-72H224v0c-8.84 0-16-7.17-16-16 0-8.84 7.16-16 16-16h128v0c8.83 0 16 7.16 16 16 0 8.83-7.17 16-16 16Z"/></svg>