<svg viewBox="0 0 512 512" xmlns="http://www.w3.org/2000/svg"><g><path d="M160 256v0c0-8.84 7.16-16 16-16h144V136c0-32-33.79-56-64-56H104h-.001c-30.92.03-55.97 25.08-56 56v240 0c.03 30.91 25.08 55.96 56 56h160v0c30.91-.04 55.96-25.09 56-56V272h-144v0c-8.84 0-16-7.17-16-16Z"/><path d="M459.31 244.69l-80-80v0c-6.41-6.09-16.54-5.83-22.62.57 -5.87 6.17-5.87 15.86 0 22.04l52.68 52.69H320v32h89.37l-52.68 52.69v0c-6.41 6.08-6.67 16.21-.58 22.62 6.08 6.4 16.21 6.66 22.62.57 .19-.19.39-.39.57-.58l80-80v0c6.24-6.25 6.24-16.38 0-22.62Z"/></g></svg>