<svg viewBox="0 0 512 512" xmlns="http://www.w3.org/2000/svg"><g><path d="M424.81 148.79c-.43 2.76-.93 5.58-1.49 8.48 -19.17 98-84.76 131.8-168.54 131.8h-42.65v-.001c-10.2-.03-18.89 7.38-20.47 17.46l-21.84 137.84 -6.18 39.07h-.001c-.94 5.92 3.11 11.48 9.04 12.41 0 0 .01 0 .02 0h0c.56.08 1.13.13 1.7.13h75.65v0c8.93.02 16.56-6.45 18-15.27l.74-3.83 14.24-90 .91-4.94v-.001c1.4-8.84 9.04-15.34 18-15.3h11.31c73.3 0 130.67-29.62 147.44-115.32 7-35.8 3.38-65.69-15.16-86.72v0c-5.9-6.49-12.92-11.85-20.73-15.82Z"/><path d="M385.52 51.09C363.84 26.52 324.71 16 274.63 16H129.25v0c-10.22-.03-18.94 7.39-20.54 17.48l-60.55 382h-.001c-1.07 6.78 3.56 13.14 10.34 14.21 .01 0 .03 0 .04 0h0c.64.1 1.29.15 1.94.15h89.76l22.54-142.29 -.7 4.46v0c1.58-10.08 10.27-17.49 20.47-17.46h42.65c83.77 0 149.36-33.86 168.54-131.8 .57-2.9 1.05-5.72 1.49-8.48v0c5.7-36.22-.05-60.87-19.72-83.19Z"/></g></svg>