<svg viewBox="0 0 512 512" xmlns="http://www.w3.org/2000/svg"><g><path d="M349.33 69.33v0c51.48.15 93.18 41.85 93.34 93.34v186.66 0c-.16 51.48-41.86 93.18-93.34 93.34H162.67v0c-51.49-.16-93.19-41.86-93.34-93.34V162.67v0c.15-51.49 41.85-93.19 93.34-93.34h186.66m0-37.33H162.67C90.8 32 32 90.8 32 162.67v186.66C32 421.2 90.8 480 162.67 480h186.66C421.2 480 480 421.2 480 349.33V162.67C480 90.8 421.2 32 349.33 32Z"/><path d="M377.33 162.67v0c-15.47 0-28-12.54-28-28 0-15.47 12.53-28 28-28 15.46 0 28 12.53 28 28v-.001c.03 15.43-12.45 27.96-27.88 28 -.05 0-.09 0-.13 0Z"/><path d="M256 181.33v0c41.23 0 74.67 33.43 74.67 74.67 0 41.23-33.44 74.67-74.67 74.67 -41.24 0-74.67-33.44-74.67-74.67h0c.04-41.23 33.44-74.63 74.67-74.67m0-37.33v0c-61.86 0-112 50.14-112 112 0 61.85 50.14 112 112 112 61.85 0 112-50.15 112-112v0c0-61.86-50.15-112-112-112Z"/></g></svg>