<svg viewBox="0 0 512 512" xmlns="http://www.w3.org/2000/svg"><path d="M443.66 405.05c-1.46-.79-2.85-1.54-4-2.2 -6.47-3.83-13-10.52-11.85-17.83 2.42-15.94 2.89-23.47-.49-28.79l0-.001c-1.82-2.85-4.52-5.02-7.67-6.2v-.06c1.41-2.56 2.26-5.66 2.83-10.12 1.44-11-5-44-13.7-70.7 -8.08-24.68-29.24-50-44.7-68.56l-3.61-4.34c-23.88-28.93-24.34-38.19-26.55-82.67 -.32-6.47-.69-13.8-1.17-22C329.87 41.42 304 15.99 256 15.99c-25.2 0-44.62 7.15-57.72 21.26C187.79 48.54 182 63.99 182 80.77c0 29.52 2 53 2.15 54.29 1.4 35.7 1 41.22-8.31 57.55 -2.23 3.93-8.38 10.87-14.89 18.21 -8.48 9.57-18.09 20.41-23.36 29.22 -3.77 6.31-5.88 12.63-8.11 19.33 -3.4 10.21-7.26 21.78-18.15 36.57 -12.57 17.07-15.52 29.61-11 47.45v0c-4.94 6.45-4.83 14.37-4.75 20.23h-.001c.14 2.03.03 4.07-.3 6.09 -2.29 7.59-12.42 9.4-22 10.18 -1.58.12-3.1.21-4.55.29 -7.26.39-13.53.74-17.13 6.3 -3.47 5.36-1.12 13.8 2.14 25.48 .72 2.58 1.46 5.25 2.19 8.06 1.83 7-.16 10.48-2.68 14.84 -2.44 4.21-5.21 9-5.21 17.55 0 14.67 20 18 43.05 21.94 7.36 1.24 15 2.53 22.63 4.24l-.001 0c11.62 2.65 23.02 6.22 34.08 10.68 9.72 3.73 17.4 6.68 26.43 6.68 16.18 0 28.25-9.77 39.92-19.21l2.15-1.75c5.53-4.49 21.5-4 34.34-3.64 3.46.1 6.73.2 9.65.2h6.22c13.48-.08 31.94-.18 42.23 2.5 3.75 1 6.2 3.72 9.29 7.19 5.87 6.56 13.17 14.75 33.39 14.75 19.39 0 29.55-8.71 41.32-18.8 7.16-6.13 14.56-12.48 25.07-17.86 3.92-2 7.62-3.87 11.08-5.61 22.64-11.38 35.11-17.65 35.11-27.82 0-9.91-12.24-16.5-20.34-20.86ZM211.11 88.38v0c5.58.22 10.5 3.76 12.47 9 1.95 5.55 1.81 10.42.21 12.94 0 0-.22-1-.36-1.44v0c-1.01-3.57-3.3-6.63-6.44-8.59v-.001c-2.65-1.71-5.89-2.25-8.94-1.47 -4.26 1.13-8.41 5-8.91 18.79 -5.16-10.47-2.31-18 .92-23 2.31-3.73 7.47-6.33 11.05-6.23Zm-17.5 375C192 479.24 175.2 479 170.09 478.59c-9.81-.82-21.66-4.69-33.13-8.43 -4.52-1.47-9.19-3-13.73-4.34 -13.2-3.89-30.12-6.74-43.72-9 -3.22-.55-6.27-1.06-9.05-1.55 -2.78-.49-4.61-1.27-5.2-2.3 -1-1.65.38-5.25 1.93-9.41C69.27 438 72.11 430.34 72 421c0-3.91-1.47-8.3-2.84-12.56 -1.62-5-3.28-10.17-1.93-12.62 1.23-2.23 6.75-2.49 11.6-2.49h2.26c3.55 0 6.62.06 8.75-.53 6.51-1.81 14.86-6.92 17.81-13.88 .9-2.17 1.37-6.94 2-14 .37-4.12.74-8.37 1.22-10.58v0c.23-1.15 1.02-2.1 2.11-2.55 1.65-.77 6.78-1.91 18.63 4.08 11.18 5.65 22.88 25.84 34.2 45.37 3.56 6.14 6.92 11.94 10.3 17.36 14.04 22.54 18.83 31.6 17.5 44.8Zm128.84-31.56v-.001c-1.21 3.75-2.73 7.4-4.55 10.9h0c-.13.29-.48.42-.77.29 -.28-.13-.42-.44-.32-.72v0c1.71-5.99 2.42-12.22 2.11-18.43 -.25-4.73-.4-7.59-2.66-8.51 -2.26-.92-4.26.83-9.45 5.54 -1.1 1-2.36 2.14-3.78 3.4 -10.8 9.47-26.88 20.68-55.61 23.37 -16.84 1.59-27.59-4.63-30.92-8.14h0c-.82-.87-2.19-.92-3.06-.1 -.01 0-.02.01-.02.01h-.001c-.6.6-.79 1.49-.51 2.29 2.12 6.84 1.2 12.26-.49 16.19 -.95 2.2-1.85 2.05-2-.34 -.25-4.64-1-9.88-3-14.19 -3.11-6.94-7-14.34-8.89-17.88v-.05c3.24-1.49 8.86-4.83 11.37-10.88 2.51-6.05 4.48-18-9.82-31.74 -6.28-6.05-22.1-17.16-36.06-27 -10.9-7.65-22.17-15.56-23.65-17.51 -4.49-5.89-6.37-9.3-6.94-19.65 .07-2.3.13-4.59.19-6.89l.27-2.49v-.001c.04-.32.33-.55.65-.5 .26.03.46.23.49.49v0c.41 3.28 1.07 6.53 2 9.72 1.08 3.73 2.4 7.58 3.62 9.18 3.19 4.22 7.56 7.39 11.67 8.49v0c1.68.58 3.54.31 5-.72 2.93-2.33 2.65-7.6 2.19-16.34 -.47-9-1.11-21.34 1.85-34.55 5.62-25 10.91-32.51 17.61-42 .86-1.22 1.75-2.47 2.65-3.79 1.44-2.08 3-4.1 4.67-6.23 7.47-9.61 15.93-20.49 13.92-40.95 -.51-5.19-.76-8.83-.86-11.39v0c-.08-.55.31-1.06.85-1.13 .41-.06.82.15 1.02.53l.49.77 1.21 2c4.86 8 13.64 22.57 25.1 22.57v0c.79-.01 1.58-.08 2.36-.21 23.39-3.93 51.9-30.25 52.17-30.51 3.12-3 2.84-6.14 1.64-7.91v0c-1.45-2.07-4.17-2.8-6.45-1.72 -3.29 1.4-7.14 3.15-11.22 5 -13.82 6.27-37 16.75-42.25 14.34v0c-2.4-1.33-4.54-3.06-6.32-5.13h0c-.46-.32-.57-.94-.26-1.4 .31-.46.93-.57 1.39-.26 5.59 2.29 9.55 1.45 14.2-.08l1-.34c9.37-3.09 14.2-4.77 30.76-12.08v0c5.23-2.46 10.67-4.44 16.26-5.93 4-1 6.42-1.63 7.71-4.34v0c1.23-2.28 1.03-5.06-.5-7.13 -1.53-1.87-4.07-2.57-7-1.9 -3.22.75-4.7 3-6.41 4.49 -2.4 2.05-5 4.16-17.19 8.65 -27 10-34.58 10.61-45.21 3.43 -9.84-6.69-15.15-13.23-15.15-16 0-2.13 5.45-5.7 8.71-7.84 1.33-.87 2.59-1.69 3.62-2.46 4.34-3.22 13-11.39 13.38-11.73 5.4-5.41 17.91-2.18 25 2.58v0c.49.36 1.11.51 1.72.41v0c1.16-.23 1.91-1.35 1.69-2.51 -.01-.03-.01-.05-.02-.08 -4.2-17.46-.13-27.34 4-32.55l-.001-.001c4.25-5.32 10.67-8.44 17.48-8.48 12.81 0 21.76 10 21.76 24.42 0 11-2.82 16.79-5.48 20.3h-.001c-.59.75-1.67.89-2.43.31 -.06-.05-.11-.09-.16-.14v0c-.59-.59-.69-1.51-.24-2.2v0c2.21-3.8 3.37-8.12 3.35-12.51v-.001c.05-9.16-7.34-16.63-16.49-16.68 -.12-.01-.24-.01-.36 0 -3.94 0-13.48 1.5-16.77 15.44v0c-.81 3.63-.92 7.39-.34 11.07l.08.71c.9 7.38 15.3 12.51 27.23 15.51 11.36 2.85 13 6.22 8.84 19.63s3.11 26.23 5.7 29.57v-.001c3.16 3.88 5.94 8.05 8.31 12.47v0c2.72 5.27 4.93 10.78 6.62 16.48 2.17 6.79 4.05 12.65 10.63 21.22 11.07 14.4 17.66 48.64 15 78 -.21 2.41-.53 4.29-.77 5.67 -.43 2.53-.72 4.2.66 5.38 1.38 1.18 3.16.7 7.26-.63l3.43-1.09v0c4.13-1.18 8.33-2.12 12.58-2.8v-.001c.68-.11 1.27-.54 1.59-1.16 3.43-6.91 3.85-15.22 4-22.47q0-1.31.06-2.79c.19-7.77.45-18.93-2.95-32v0c-.18-.54.11-1.11.64-1.29 .53-.18 1.1.11 1.28.64h-.001c3.42 8.15 5.66 16.75 6.66 25.55 2.55 22.58-1.9 32.09-1.94 32.17h0c-.4.79-.08 1.76.72 2.15 .07.03.14.06.22.09v0c2.66.95 5.05 2.56 6.95 4.67 1.46 1.66.93 2.4-1.14 1.62v0c-4.09-1.53-8.42-2.31-12.77-2.29 -10.4 0-18.09 4.95-21.51 9.19 -3.19 3.94-3.7 7.67-3.83 11.27l-.06.05c-7.48-.75-12.94 1.21-17.47 6.21l-.08.09c-6.26 7.75-4 24.63-1.29 38.48v0c1.28 6.45 5.59 25.52 1.73 37.68Zm96.1 10.07c-15.71 6.71-25.43 14.51-34 21.39 -5.65 4.53-11 8.81-17.28 12.14 -10.12 5.34-24.91 6.53-33.27-7.7 -2.37-4-.71-9.86 1.58-17.95 3.05-10.75 7.23-25.46 3.71-44.65 -.94-5.12-1.77-9.51-2.49-13.31C334 377 332.9 371.43 334 367c.63-2.45 3.43-3 5.87-3v0c.87 0 1.75.07 2.63.19v0 0c1.33 4.53 3.73 8.68 7 12.1 5.7 5.86 13.63 8.83 23.56 8.85 2.1.17 25.94 1.55 36.54-22.4v0c1.46.18 3.65.7 4.3 2.3 1.28 3.19-.27 8.91-1.52 13.5 -.9 3.31-1.68 6.16-1.63 8.37 .31 16 11 22.78 25.83 32.16 1.79 1.13 3.66 2.31 5.55 3.54 1.89 1.23 2.87 2.39 2.87 3.39 -.52 4.79-20 13.16-26.45 15.91Z"/></svg>