<svg viewBox="0 0 512 512" xmlns="http://www.w3.org/2000/svg"><path d="M412.19 118.66v0c-3.24-1.68-6.4-3.52-9.45-5.5v0c-8.89-5.88-17.04-12.8-24.27-20.62 -18.1-20.71-24.86-41.72-27.35-56.43h.1C349.14 23.9 350 16 350.13 16h-82.44v318.78c0 4.28 0 8.51-.18 12.69 0 .52-.05 1-.08 1.56 0 .23 0 .47-.05.71 0 .06 0 .12 0 .18v0c-1.77 23.22-14.97 44.05-35.22 55.56v0c-10.4 5.91-22.16 9.01-34.11 9 -38.41 0-69.54-31.32-69.54-70s31.13-70 69.54-70v0c7.27-.01 14.49 1.13 21.41 3.39l.1-83.94v-.001c-42.43-5.49-85.22 7.03-118 34.52v0c-14.21 12.34-26.16 27.07-35.3 43.53 -3.48 6-16.61 30.11-18.2 69.24 -1 22.21 5.67 45.22 8.85 54.73v.2c2 5.6 9.75 24.71 22.38 40.82v0c10.18 12.92 22.21 24.27 35.71 33.69v-.2l.2.2c39.91 27.12 84.16 25.34 84.16 25.34 7.66-.31 33.32 0 62.46-13.81 32.32-15.31 50.72-38.12 50.72-38.12h0c11.75-13.63 21.1-29.17 27.64-45.93 7.46-19.61 9.95-43.13 9.95-52.53V176.48c1 .6 14.32 9.41 14.32 9.41s19.19 12.3 49.13 20.31c21.48 5.7 50.42 6.9 50.42 6.9v-81.84c-10.14 1.1-30.73-2.1-51.81-12.61Z"/></svg>