<svg viewBox="0 0 512 512" xmlns="http://www.w3.org/2000/svg"><g><path d="M5.8 278v0c-1.09.05-1.95.91-2 2L0 308.64l3.74 28.16H3.73c.06 1.09.95 1.96 2.05 2H5.78c1.07-.07 1.93-.93 2-2v0l4.44-28.17L7.82 280v0c-.07-1.08-.93-1.94-2-2Z"/><path d="M26.85 262.32v0c-.01-1.18-.96-2.13-2.13-2.13 -1.18 0-2.13.95-2.13 2.13l-5 46.32 5 45.3v-.001c0 1.17.95 2.13 2.13 2.13 1.17-.01 2.12-.96 2.13-2.13l5.73-45.31 -5.73-46.32Z"/><path d="M106.17 219.59v0c-2.11.06-3.81 1.76-3.87 3.87l-4 85.22 4 55.08v0c.1 2.14 1.93 3.78 4.07 3.67 1.98-.11 3.57-1.7 3.67-3.68v0l4.53-55.08 -4.53-85.22v0c-.07-2.12-1.77-3.81-3.88-3.87Z"/><path d="M65.12 249.21v0c-1.64.04-2.96 1.36-3 3l-4.52 56.45 4.51 54.63v0c0 1.65 1.34 3 3 3 1.65 0 3-1.35 3-3l5.13-54.63 -5.13-56.48v0c-.07-1.62-1.38-2.92-2.99-2.97Z"/><path d="M147.88 367.6v0c2.6-.05 4.7-2.14 4.75-4.74l3.93-54.15 -3.93-113.46v0c0-2.63-2.13-4.75-4.75-4.75 -2.63 0-4.75 2.12-4.75 4.75l-3.49 113.45 3.49 54.17v0c.04 2.6 2.14 4.69 4.75 4.73Z"/><path d="M233.28 367.85v0c3.57-.06 6.45-2.95 6.5-6.52v0l2.74-52.6 -2.74-131v0c0-3.59-2.92-6.5-6.5-6.5 -3.59 0-6.5 2.91-6.5 6.5l-2.45 131c0 .08 2.45 52.67 2.45 52.67v0c.07 3.55 2.94 6.4 6.5 6.45Z"/><path d="M190.26 367.65h-.001c3.1-.03 5.6-2.54 5.62-5.64v0l3.34-53.33 -3.34-114.28v0c.13-3.11-2.29-5.74-5.39-5.87 -3.11-.14-5.74 2.28-5.87 5.38 -.01.15-.01.31 0 .47l-3 114.29 3 53.32v0c.03 3.09 2.53 5.58 5.63 5.6Z"/><path d="M85.56 367.15l-.001 0c1.86-.05 3.37-1.55 3.44-3.41l4.83-55.09 -4.83-52.4v0c-.01-1.9-1.55-3.44-3.44-3.44 -1.9 0-3.44 1.54-3.44 3.44l-4.26 52.38 4.26 55.08v0c.03 1.88 1.55 3.4 3.44 3.44Z"/><path d="M44.84 364.13v0c1.37-.05 2.49-1.15 2.57-2.52l5.43-53 -5.42-55v0c0-1.42-1.16-2.57-2.57-2.57 -1.42 0-2.57 1.15-2.57 2.57l-4.78 55 4.78 53v0c.04 1.38 1.17 2.49 2.56 2.53Z"/><path d="M211.69 192.53v0c-3.36.01-6.07 2.73-6.07 6.09l-2.71 110.11 2.71 53v0c.13 3.34 2.96 5.95 6.31 5.81 3.15-.13 5.69-2.66 5.81-5.82v0l3-53 -3-110.13v-.001c-.02-3.35-2.72-6.05-6.06-6.07Z"/><path d="M127 367.71v-.001c2.35-.06 4.25-1.95 4.31-4.3l4.23-54.71 -4.28-104.7v0c-.12-2.39-2.14-4.23-4.53-4.11 -2.23.1-4.01 1.88-4.11 4.1l-3.74 104.7 3.75 54.73v0c.05 2.37 1.98 4.26 4.36 4.28Z"/><path d="M174.17 362.54v0l3.63-53.8 -3.63-117.28v0c.12-2.87-2.1-5.29-4.96-5.42 -2.87-.13-5.29 2.09-5.42 4.95 -.01.15-.01.3 0 .45l-3.23 117.28 3.23 53.83v0c0 2.86 2.31 5.18 5.18 5.18 2.86 0 5.18-2.32 5.18-5.18v0Z"/><path d="M449 241.1v-.001c-8.36-.02-16.63 1.65-24.33 4.9 -5-57.18-52.61-102-110.66-102v0c-13.78.02-27.44 2.59-40.28 7.58 -4.75 1.85-6 3.76-6.06 7.46v201.36h0c.05 3.85 2.96 7.06 6.8 7.5 .16 0 173.44.11 174.56.11 34.78 0 63-28.41 63-63.45 0-35.04-28.2-63.46-63-63.46Z"/><path d="M254.79 158.87h-.001c-3.85.03-6.95 3.15-6.94 7l-2.85 142.88 2.85 51.87v-.001c-.13 3.83 2.87 7.03 6.7 7.16 3.83.12 7.03-2.88 7.16-6.71 0-.18 0-.35-.01-.53v.06l3.09-51.87 -3.09-142.93v0c-.03-3.82-3.12-6.92-6.93-6.95Z"/></g></svg>