<svg viewBox="0 0 512 512" xmlns="http://www.w3.org/2000/svg"><g><path d="M48.48 378.73l-.001-.001c39.93 46.88 93.3 80.36 152.89 95.92l0 0c53.6 10.98 109.29 4.95 159.3-17.25l0 0c24.93-11.48 47.57-27.4 66.79-47v0c1.71-2.93.83-6.68-2-8.53v0c-2.58-.96-5.41-.97-8-.05v0c-36.61 19.01-75.92 32.28-116.55 39.34v0c-42.62 4.69-85.74 1.7-127.29-8.83l0 0c-42.51-14.09-82.66-34.48-119.1-60.49h0c-2.63-.86-5.45.58-6.3 3.21 -.4 1.21-.31 2.53.23 3.68Z"/><path d="M387.15 388.44l-.001-.001c16.11-3.13 32.6-3.89 48.94-2.23l.67.13v0c5.35 1.29 8.65 6.68 7.37 12.05h0c-3.2 15.9-8.28 31.37-15.13 46.08v0c-.42 1.33.32 2.75 1.66 3.18v0c.75.23 1.58.1 2.23-.37v-.001c19.53-15.71 30.95-39.37 31.11-64.42h0c.5-6.38-3.93-12.1-10.22-13.22h-.001c-23.95-4.13-48.57 1-68.87 14.36h0c-1.14.82-1.39 2.41-.57 3.55h0c.64.87 1.77 1.22 2.81.89Z"/><path d="M304.24 324.92v0c-8.62 9.53-18.33 18.02-28.92 25.3v0c-20.23 11.94-43.21 18.42-66.69 18.78h0c-20.77-.46-40.87-7.4-57.49-19.85h-.001c-27.72-25.34-38.37-64.38-27.36-100.28v0c10.47-31.55 34.38-56.84 65.3-69.06l0 0c33.96-10.21 69.23-15.45 104.7-15.55V127h0c-2.38-16.94-15.82-30.17-32.78-32.28v0c-10.57-1.44-21.33-.04-31.17 4.08v0c-14.03 6.6-24.1 19.46-27.13 34.67v0c-2.27 4.75-7.37 7.48-12.58 6.72l-50.9-4.5v0c-4.67-1.27-8.03-5.34-8.38-10.16v0c4.07-24.91 17.09-47.47 36.61-63.45l0-.001c25.84-20.01 57.72-30.62 90.4-30.08v0c30.27.27 59.72 9.94 84.27 27.67v0c20.56 17.37 31.91 43.31 30.7 70.22v128.91 0c.63 10.84 3.34 21.46 8 31.28l15.87 23.23v-.001c1.7 3.55 1.7 7.67 0 11.23l-46.99 39.71v0c-4 2.16-8.85 2-12.68-.44v0c-12.25-11.8-23.24-24.83-32.78-38.89Zm-10.6-116.83v0c-14.73-.3-29.45.67-44 2.89v0c-17.8 3.99-32.99 15.5-41.64 31.56h-.001c-7.15 17.54-6.03 37.37 3.07 54h-.001c11.25 14.06 30.44 19.02 47.11 12.19v0c19.39-12.44 32.35-32.76 35.46-55.58v-45.06"/></g></svg>