<svg viewBox="0 0 512 512" xmlns="http://www.w3.org/2000/svg"><path d="M255.5 15v0c-132 0-240 108-240 240s108 240 240 240v0c85.4 0 160.8-45.2 203.3-112.9v0c2.02-3.21 1.07-7.46-2.14-9.48 -2.11-1.34-4.78-1.42-6.97-.23v0c-5.86 3.43-12.02 6.31-18.4 8.6 -36.8 12.6-57.1 13.1-82.1 12 -27.9-1.2-61.9-10.8-85.8-25s-43.5-34.6-54.1-52.3c-10.6-17.7-17-39.9-14.1-68.3 2.9-29 29.4-52.6 60.4-52.6v0c33.5 0 60.8 26.6 60.8 60.1 0 17-8.1 31.7-18.5 43.5v0c-2.3 2.1-7.6 9.7 5.8 20 15.9 12.2 51.6 18 79.9 16.6 28.3-1.4 59.1-12.6 80.2-34.8 16.8-17.7 31.8-46.1 31.8-77.4 -.1-125.1-116.1-207.8-240.1-207.8Z"/></svg>