<svg viewBox="0 0 512 512" xmlns="http://www.w3.org/2000/svg"><g><path d="M360 256h16v48h-16Z"/><path d="M112 304l129.6 0 -48-48 -81.6 0 0 48Z"/><path d="M364.5 60.1v-.001c-.35-.18-.69-.38-1-.6v0c-11.03-5.91-22.54-10.86-34.4-14.8l-5.4-1.8v0c-21.88-7.1-44.71-10.78-67.7-10.9 -123.7-.001-224 100.3-224 224l-.001-.001c-.03 81.4 44.17 156.38 115.4 195.8 .4.2.7.5 1.1.7h-.001c11.02 5.9 22.53 10.85 34.4 14.8l5.4 1.8 0 0c21.86 7.1 44.7 10.78 67.7 10.9 123.7 0 224-100.3 224-224h-.001c.02-81.46-44.22-156.5-115.5-195.9ZM256 426.4v0c-9.12-.04-18.22-.84-27.2-2.4v0c-9.7-1.61-19.23-4.05-28.5-7.3 -1.9-.6-3.8-1.2-5.6-1.9v0c-6.52-2.46-12.86-5.33-19-8.6v0c-55.48-29.63-90.12-87.41-90.1-150.3 0-37.2 12.4-71.4 32.7-99.4l237.2 237.2c-28.1 20.3-62.3 32.7-99.5 32.7Zm137.8-71L156.6 118.2c28-20.2 62.1-32.6 99.4-32.6v0c9.11.03 18.21.83 27.2 2.4h0c9.69 1.6 19.22 4.04 28.5 7.3 1.8.6 3.7 1.2 5.6 1.9v0c6.15 2.33 12.17 5.03 18 8.1h-.001c56.07 29.39 91.2 87.48 91.2 150.8 -.1 37.2-12.5 71.3-32.7 99.3Z"/><path d="M352 256l-34 0 34 34 0-34Z"/><path d="M384 256h16v48h-16Z"/><path d="M360.1 212.7c-8.8-4.1-22-5.7-45.6-5.7h-3.6c-12.7.1-15.9-.1-20-6.1 -2.8-4.2-1-14.8 3.7-21.9v0c1.63-2.46 1.78-5.61.4-8.2v0c-1.41-2.58-4.07-4.22-7-4.3v0c-6.29-.22-12.48-1.54-18.3-3.9 -10.6-4.5-15.6-12.1-15.6-23.1 0-25.8 21.8-27.7 22.8-27.7v-16c-12 0-38.8 11-38.8 43.7 0 17.5 9 31 25.7 38v0c3.87 1.57 7.89 2.77 12 3.6 -3.3 9.8-3.6 20.9 1.7 28.7 9 13.3 20.3 13.2 33.3 13.1h3.5c26.3 0 34.6 2.3 38.9 4.3 5.7 2.6 6.8 7.5 6.6 15.7v1h16v-1c0-7.1.3-22.8-15.7-30.2Z"/><path d="M400 244c0-25.7-3-39.2-9.1-49.6C382.3 180 368.5 172 352 172h-17.4c2.9-8.3 5.4-19.8 3.5-30.9 -3.2-18.8-19.1-30-43.1-30v16c21 0 26.1 9.1 27.4 16.7 2.5 14.5-6.8 32.1-6.9 32.3v0c-1.37 2.46-1.33 5.46.1 7.9v0c1.45 2.41 4.07 3.89 6.9 3.9H352c10.9 0 19.4 4.9 25.1 14.6 3.1 5.3 6.9 13.5 6.9 41.4h16Z"/></g></svg>