<svg viewBox="0 0 512 512" xmlns="http://www.w3.org/2000/svg"><path d="M511.78 328.07v0c-1.47-11.92-7.51-22.26-18-30.77h-.001c-.14-.16-.28-.31-.43-.44v0l-.53-.38 -.17-.12 -5.57-4 -.19-.14 -.71-.5v0 0c-.27-.16-.54-.27-.83-.35 -17.62-10.49-46.79-17.84-91.42-2.09 -10.65-17.92-11.86-32.28-4.73-54.28 1.27-3.83.09-6.36-3.71-8 -7.64-3.25-18.1-1.59-25.52.37 -3.46.9-5.54 2.86-6.2 5.83 -4.7 22-18.36 42.1-31.57 61.5l-.78 1.14c-8.14-17.26-6.45-30.63-.78-47.38 1.13-3.34.24-5.56-2.89-7.22 -8.74-4.51-21.85-1.41-27.07.13 -6.62 1.93-13.72 19.82-21.65 41.24 -2 5.39-3.72 10-4.75 12.15 -2.45 5-4.79 10.7-7.27 16.75 -5.6 13.69-11.91 29.1-20.93 38.78 -3.28-7.25 1.88-18.68 6.89-29.77 5.93-13.11 11.53-25.5 5.08-33.41v0c-2.07-2.53-5.08-4.1-8.33-4.32h-.001c-2.11-.16-4.21.18-6.15 1 .67-5.65.7-10.11-.95-15.5 -2.36-7.69-8.49-12-16.93-11.77 -19.22.56-35.48 14.88-45.75 26.8 -6.84 8-22 14.1-35.31 19.45 -5.26 2.23-10.26 4.23-14.43 6.23 -6.65-5.62-15.1-11.29-24-17.28 -25-16.78-53.33-35.81-54.31-61.61 -1.4-38.11 42-65.14 79.88-84.43 28.71-14.6 53.67-24.28 76.31-29.57 31.8-7.43 58.66-5.93 79.82 4.44 11.58 5.67 17 18 13.56 30.68 -9 32.95-46.29 55.53-78.18 65.69 -19.21 6.12-35.56 8.68-50 7.84 -18.1-1.05-32.88-10.13-39.2-14v0c-1.02-.7-2.09-1.3-3.2-1.8l-.29-.07h0c-1.17-.3-2.4.09-3.19 1 -1.3 1.55-.84 4-.37 5.24 6.15 16.07 18.85 26.22 37.74 30.17v0c6.18 1.23 12.47 1.83 18.78 1.79 44.21 0 100.62-25.49 121.34-46.48 14.13-14.3 24.42-29 28.68-54.35 4.45-26.55-13.55-45-31.89-53.5 -44.57-20.57-95.19-12.44-129.81-2 -40.5 12.21-82.4 34.41-114.94 60.93 -40.12 32.67-54.62 63-43.12 90.25 11.81 27.93 40.61 45.4 68.46 62.3 9 5.45 17.56 10.64 25.27 16 -2.32 1.13-4.69 2.28-7.1 3.43 -23.38 11.33-49.9 24.08-64.61 45.15 -10.68 15.35-12.68 30.63-5.94 45.42 3.6 7.87 10 13.21 18.89 15.87h-.001c4.62 1.31 9.41 1.94 14.22 1.89 17.31 0 36.36-7 46.73-13.47 18.32-11.5 30.19-26.94 35.29-45.89 4.54-16.86 3.45-33.61-3.15-48.56l22.45-11.32c-10.83 36-2.53 57.5 6.59 69.36 3.36 4.37 9.42 7 16.19 7.12 6.77.12 13-2.43 16.52-6.77 6.66-8.25 11.58-17.9 16.11-27.55 -.24 6.3.06 12.68 2.21 18.09 1.93 4.87 5.11 8.1 9.21 9.34 4.36 1.33 9.47.21 14.39-3.15 22.17-15.17 37.33-51.58 49.51-80.85 1.73-4.16 3.39-8.16 5-11.9h0c3.01 10.78 7.2 21.2 12.5 31.07 1.18 2.14 1.08 3.08-.52 4.84 -2.41 2.64-5.77 5.83-9.33 9.21 -10.78 10.23-24.2 23-26 34.23 -.7 4.5 2.4 8.6 7.21 9.53 14.47 2.88 31.9-1.33 46.64-11.25 13.4-9 18.44-21.55 15-37.19 -3.33-15.06 4.27-33.76 22.59-55.62 3 12.53 7 22.66 12.52 31.53l-.15.12c-13.34 11.65-31.62 27.6-28.78 46.95h0c.48 3.72 2.5 7.06 5.58 9.22v0c3.28 2.21 7.34 2.96 11.2 2.06 17.47-3.67 30.62-11.06 40.18-22.57 9.56-11.51 6.07-24.27 2.85-34.17 25-6.78 47.26-6.61 68.1.5 11.7 4 20.09 10.57 24.93 19.64 6.09 11.41 2.8 21.94-9.29 29.65 -3.71 2.37-5.5 3.82-5.61 5.65v0c-.05.86.32 1.69 1 2.23 1.4 1.15 5.72 3.15 15.49-3 9-5.65 14.28-13.34 15.63-23v0c.27-2.67.26-5.35-.01-8.01Zm-399.73 25.06l-.1 1.28c-1.56 14.64-9 27.4-22.15 38 -8.26 6.66-17.23 10.75-25.25 11.53 -5.6.54-9.67-.22-12.09-2.27 -1.81-1.53-2.78-3.82-3-7 -1.64-25.48 38.32-50.8 60.81-59.13h0c1.6 5.71 2.2 11.66 1.78 17.59Zm102.35-71.86v0c-3.7 21.09-14.49 60.9-31.45 76.35 -.81.74-1.49 1-1.8.93 -.31-.07-.55-.44-.8-1 -5.66-13.12-3.57-35.28 5-52.69 6.59-13.42 16-22.31 26.52-25v0c.43-.13.88-.19 1.34-.19h0c.35-.03.7.07 1 .27v0c.25.39.31.87.19 1.33Zm83.49 76.88c-3.19 3.33-7.56 2.88-6.53 1.66l16.24-17.24c-1.31 5.93-5.18 10.84-9.71 15.58Zm67.37-14.91v0c-1.55.76-3.22 1.23-4.93 1.39 -.46-9.07 8.33-19.28 17-26.09 2.33 9.46-2.44 19.46-12.07 24.7Z"/></svg>