<svg viewBox="0 0 512 512" xmlns="http://www.w3.org/2000/svg"><path d="M380.91 199l42.47-73.57v-.001c2.37-4.12.97-9.37-3.12-11.76v0c-4.06-2.39-9.28-1.03-11.67 3.03 -.02.02-.04.05-.05.08l-43 74.52c-32.83-15-69.78-23.35-109.52-23.35 -39.74 0-76.69 8.36-109.52 23.35l-43-74.52v0c-2.39-4.11-7.66-5.51-11.76-3.12 -4.11 2.38-5.51 7.65-3.12 11.76 0 0 0 0 0 0l42.37 73.57c-73.2 39.64-122.81 113.77-131 200.55h512c-8.19-86.78-57.8-160.91-131.09-200.55ZM138.45 327.65v0c-11.86 0-21.46-9.61-21.46-21.46 0-11.86 9.6-21.46 21.46-21.46 11.85 0 21.46 9.6 21.46 21.46v0c-.01 11.84-9.62 21.45-21.46 21.46Zm235 0v0c-11.86-.05-21.42-9.7-21.37-21.55 .04-11.86 9.69-21.42 21.54-21.37 11.81.04 21.36 9.64 21.37 21.45v0c-.01 11.85-9.63 21.46-21.48 21.46 -.02-.01-.03-.01-.04-.01Z"/></svg>