<svg viewBox="0 0 512 512" xmlns="http://www.w3.org/2000/svg"><g><path d="M126.8 248.3c39.7-58.6 77.9-92.8 77.9-92.8s-42.1-48.9-92.8-67.4l-3.3-.8 0 0C20.13 164.64 6.43 297.18 77.2 391c-.001-4.4.6-70.3 49.6-142.7Z"/><path d="M480 256v0c.04-64.67-27.89-126.18-76.6-168.7l-3.2.9c-50.7 18.5-92.9 67.4-92.9 67.4s38.2 34.2 77.9 92.8c49 72.4 49.6 138.3 49.5 142.7v0c29.48-38.87 45.39-86.33 45.3-135.1Z"/><path d="M201.2 80.9c29.3 13.1 54.6 34.6 54.6 34.6s25.5-21.4 54.8-34.6c36.8-16.5 64.9-11.3 72.3-9.5v0c-76.45-52.54-177.36-52.54-253.8-.001 7.2-1.8 35.2-7.1 72.1 9.5Z"/><path d="M358.7 292.9C312.4 236 255.8 199 255.8 199s-56.3 37-102.7 93.9c-39.8 48.9-54.6 84.8-62.6 107.8l-1.3 4.8 -.001-.001c82.57 92.12 224.19 99.86 316.31 17.28 6.07-5.45 11.84-11.22 17.28-17.29l-1.4-4.8c-8-23-22.9-58.9-62.7-107.8Z"/></g></svg>