<svg viewBox="0 0 512 512" xmlns="http://www.w3.org/2000/svg"><path d="M471.46 194.62v-.07c-.22-.76-.45-1.52-.68-2.28 -.05-.19-.11-.38-.17-.56 -.43-1.44-.87-2.88-1.33-4.31l-.06-.2v0c-2.81-8.72-6.15-17.26-10-25.56h0c-3.74-8.23-8.05-16.19-12.9-23.8v0c-18.76-30.13-44.37-55.4-74.74-73.74v0 0C336.71 43.03 296.73 31.93 256 32c-7 0-14 .34-20.82 1 -24.12 2.54-64.78 11.21-97.77 40.18C257.5 11.86 417.94 85.7 404.29 223c-4.86 49-46.46 82.67-85.19 88.35v0c-6.89 1.05-13.9 1.12-20.8.21 -94.59-13.15-88.8-90.68-60.06-123.83 -38-.24-67.47 46.79-53.15 93v0c-32.95-61.18.35-157 70.93-186 -82.95-12-160.71 28.2-185.7 98.07v0c2.98-25.54 8.94-50.65 17.75-74.8 0 0-45.22 35.74-54.44 110.9 -.14 1.16-.27 2.32-.39 3.49 -.05.4-.09.8-.13 1.21q-.53 5.25-.8 10.57c0 .27 0 .54 0 .81 -.07 1.48-.13 3-.17 4.46v1.25c0 1.76-.07 3.52-.07 5.29 0 123.71 100.29 224 224 224C379.78 479.98 480 379.71 480 256v0c.01-20.76-2.87-41.42-8.54-61.38Z"/></svg>