<svg viewBox="0 0 512 512" xmlns="http://www.w3.org/2000/svg"><g><path d="M464 66.52v0c-.27-27.38-22.5-49.46-49.88-49.52L97.64 16v-.001c-27.37 0-49.57 22.15-49.64 49.52v326.48c0 27.3 22.28 48 49.64 48H368l-13-44 109 100ZM324.65 329.81s-8.72-10.39-16-19.32C340.39 301.55 352.5 282 352.5 282v0c-8.72 5.78-18.07 10.56-27.85 14.25v0c-11.31 4.69-23.08 8.17-35.11 10.39v0c-20.75 3.8-42.01 3.72-62.72-.24v0c-12.19-2.27-24.11-5.75-35.59-10.4v0c-6.08-2.33-11.99-5.08-17.68-8.21 -.73-.48-1.45-.72-2.18-1.21 -.49-.24-.73-.48-1-.48 -4.36-2.42-6.78-4.11-6.78-4.11s11.62 19.09 42.38 28.26c-7.27 9.18-16.23 19.81-16.23 19.81 -53.51-1.69-73.85-36.47-73.85-36.47 0-77.06 34.87-139.62 34.87-139.62 34.87-25.85 67.8-25.12 67.8-25.12l2.42 2.9c-43.59 12.32-63.44 31.4-63.44 31.4s5.32-2.9 14.28-6.77c25.91-11.35 46.5-14.25 55-15.21v0c1.35-.29 2.73-.45 4.12-.49v-.001c16.22-2.11 32.64-2.27 48.91-.48v0c25.53 2.93 50.27 10.72 72.89 22.95 0 0-19.13-18.15-60.3-30.45l3.39-3.86s33.17-.73 67.81 25.16c0 0 34.87 62.56 34.87 139.62 -.001-.28-20.35 34.5-73.86 36.19Z"/><path d="M212.05 218c-13.8 0-24.7 11.84-24.7 26.57s11.14 26.57 24.7 26.57c13.8 0 24.7-11.83 24.7-26.57 .25-14.76-10.9-26.57-24.7-26.57Z"/><path d="M300.43 218c-13.8 0-24.7 11.84-24.7 26.57s11.14 26.57 24.7 26.57c13.81 0 24.7-11.83 24.7-26.57s-11.13-26.57-24.7-26.57Z"/></g></svg>