<svg viewBox="0 0 512 512" xmlns="http://www.w3.org/2000/svg"><path fill="none" stroke="#000" stroke-linecap="round" stroke-linejoin="round" stroke-width="32" d="M201.14 64L256 32l54.86 32"/><path fill="none" stroke="#000" stroke-linecap="round" stroke-miterlimit="10" stroke-width="32" d="M256 32l0 80"/><path fill="none" stroke="#000" stroke-linecap="round" stroke-linejoin="round" stroke-width="32" d="M310.86 448L256 480l-54.86-32"/><path fill="none" stroke="#000" stroke-linecap="round" stroke-miterlimit="10" stroke-width="32" d="M256 480l0-80"/><path fill="none" stroke="#000" stroke-linecap="round" stroke-linejoin="round" stroke-width="32" d="M64 207.51L64 144l53.15-31.51"/><path fill="none" stroke="#000" stroke-linecap="round" stroke-miterlimit="10" stroke-width="32" d="M64 144l67.29 40"/><path fill="none" stroke="#000" stroke-linecap="round" stroke-linejoin="round" stroke-width="32" d="M448 304.49l0 63.51 -53.15 31.51"/><path fill="none" stroke="#000" stroke-linecap="round" stroke-miterlimit="10" stroke-width="32" d="M448 368l-67.29-40"/><path fill="none" stroke="#000" stroke-linecap="round" stroke-linejoin="round" stroke-width="32" d="M117.15 400L64 368l0-63.51"/><path fill="none" stroke="#000" stroke-linecap="round" stroke-miterlimit="10" stroke-width="32" d="M64 368l66.64-40"/><path fill="none" stroke="#000" stroke-linecap="round" stroke-linejoin="round" stroke-width="32" d="M394.85 112.49L448 144l0 63.51"/><g stroke-linecap="round" stroke="#000" stroke-miterlimit="10" stroke-width="32" fill="none"><path d="M448 144l-67.29 40"/><path d="M256 320l0-64 54.86-32"/><path d="M256 256l-54.86-32"/></g></svg>