<svg viewBox="0 0 512 512" xmlns="http://www.w3.org/2000/svg"><g><path d="M496 128.05v0c.05-35.35-28.57-64.05-63.91-64.1 -15.65-.03-30.76 5.68-42.48 16.04v0 -.001c-5.01 4.41-9.29 9.57-12.71 15.3v.06c-.54.9-1.05 1.82-1.55 2.74l-.24.49c-.42.79-.81 1.59-1.19 2.4 -.12.25-.23.5-.34.75 -.33.73-.65 1.47-.95 2.22 -.13.31-.25.62-.37.93 -.27.7-.53 1.4-.78 2.11l-.36 1.06c-.22.68-.43 1.37-.63 2.06 -.12.39-.23.77-.33 1.16 -.19.67-.35 1.35-.51 2 -.1.41-.2.82-.29 1.23 -.14.68-.27 1.37-.39 2 -.08.42-.16.84-.23 1.26 -.11.7-.2 1.41-.29 2.12 -.05.41-.11.82-.16 1.24 -.08.77-.13 1.54-.19 2.32 0 .36-.06.72-.08 1.08 -.06 1.14-.1 2.28-.1 3.44v0c0 1 0 2 .08 2.94v.64q.08 1.41.21 2.82l.06.48c.09.85.19 1.69.32 2.52 0 .17 0 .35.07.52 .14.91.31 1.81.49 2.71 0 .22.09.43.13.65 .18.86.38 1.72.6 2.57 0 .07 0 .13 0 .19 .23.89.48 1.76.75 2.63l.21.68c.27.85.55 1.68.85 2.51 .06.18.13.36.2.54 .27.71.55 1.42.84 2.12 .08.21.16.41.25.61 .34.79.69 1.58 1.06 2.36l.33.67c.35.7.7 1.4 1.07 2.09v0c5.21 9.7 12.84 17.89 22.14 23.81v0h0c2.44 1.55 4.98 2.94 7.62 4.15l.39.18q2.66 1.2 5.43 2.16l.95.32 1.5.47c.45.14.9.26 1.36.39l1.92.5 1.73.4 1.15.23 1.83.33 .94.15c.9.13 1.81.25 2.72.35l.77.07c.73.06 1.47.12 2.21.16l.86.05c1 0 1.94.08 2.92.08v0c1.16 0 2.3 0 3.44-.1l1.08-.08c.78-.06 1.55-.11 2.32-.19l1.25-.16c.7-.09 1.41-.18 2.11-.29l1.26-.23c.68-.12 1.37-.25 2-.39l1.23-.29c.68-.16 1.36-.32 2-.51 .39-.1.77-.21 1.16-.33 .69-.2 1.38-.41 2.06-.63l1.06-.36c.71-.25 1.41-.51 2.11-.78l.93-.37c.75-.3 1.49-.62 2.22-.95l.75-.34c.81-.38 1.61-.77 2.4-1.19l.49-.24c.92-.5 1.84-1 2.74-1.55h.06v0c5.77-3.4 10.98-7.67 15.44-12.66v0 0c10.32-11.69 16.01-26.74 16-42.33Z"/><path d="M371.38 202.53l-105.56 82.1v0c-5.78 4.49-13.87 4.49-19.64 0l-144-112v0c-7.06-5.33-8.46-15.36-3.13-22.42 5.32-7.06 15.35-8.46 22.41-3.13 .11.09.23.18.35.27l134.18 104.36 94.22-73.28v-.001c-18.58-30.05-19.12-67.89-1.41-98.45H87.99v0c-30.92.03-55.97 25.08-56 56v240 0c.03 30.91 25.08 55.96 56 56h336v0c30.91-.04 55.96-25.09 56-56V211.16v0c-34.49 19.97-77.74 16.52-108.62-8.66Z"/></g></svg>