<svg viewBox="0 0 512 512" xmlns="http://www.w3.org/2000/svg"><g stroke-linecap="round" stroke-width="32" stroke="#000" fill="none" stroke-linejoin="round"><path d="M320 96H88v0c-22.1 0-40 17.9-40 40v240 0c0 22.09 17.9 40 40 40h334.73v0c22.09 0 40-17.91 40-40V239"/><path d="M112 160l144 112 87-65.67"/></g><g><path d="M431.95 80.1a47.95 47.95 0 1 0 0 95.9 47.95 47.95 0 1 0 0-95.9Z"/><path d="M432 192v0c-35.32 0-63.95-28.64-63.95-63.95 0-35.32 28.63-63.95 63.95-63.95 35.31 0 63.95 28.63 63.95 63.95h0c-.03 35.3-28.65 63.92-63.95 63.95Zm0-95.9v0c-17.68-.03-32.03 14.27-32.05 31.94 -.03 17.67 14.27 32.02 31.94 32.04 17.67.02 32.02-14.28 32.04-31.95 0-.02 0-.04 0-.05v0c0-17.66-14.3-31.98-31.95-32Z"/></g></svg>