<svg viewBox="0 0 512 512" xmlns="http://www.w3.org/2000/svg"><g stroke-linecap="round" stroke-width="32" stroke="#000" fill="none" stroke-linejoin="round"><path d="M313.27 124.64L198.73 51.36v0c-9.25-4.62-20.15-4.49-29.28.35L56.51 127.49h0c-5.24 2.77-8.52 8.21-8.51 14.14v295.8 0c-.01 8.83 7.16 16 15.99 16 2.61 0 5.18-.64 7.49-1.87l97.82-63.79v0c9.2-4.88 20.21-4.97 29.5-.24l111.86 73v0c9.2 4.68 20.1 4.64 29.27-.11l115.43-75.94v0c5.3-2.76 8.62-8.23 8.63-14.2V74.56v0c0-8.84-7.17-16.01-16-16.01 -2.62-.01-5.19.63-7.5 1.86l-98 63.86v0c-9.13 4.82-20.01 4.95-29.24.35Z"/><path d="M328 128l0 336"/><path d="M184 48l0 336"/></g></svg>