<svg viewBox="0 0 512 512" xmlns="http://www.w3.org/2000/svg"><g><path d="M48.17 113.34v0c-10.03 5.7-16.21 16.36-16.17 27.9V438v0c-.06 17.67 14.22 32.04 31.89 32.1 5.26.01 10.45-1.27 15.1-3.74 .43-.23.85-.47 1.26-.74l84.14-55.05v0c2.27-1.49 3.63-4.01 3.63-6.72V46.44v0c.01-4.42-3.56-8.02-7.98-8.03 -1.62-.01-3.2.48-4.54 1.39Z"/><path d="M212.36 39.31v0c-3.71-2.41-8.66-1.36-11.07 2.34 -.85 1.29-1.29 2.8-1.3 4.34v357.56 0c-.01 2.71 1.35 5.23 3.63 6.72l96 62.42v0c3.7 2.41 8.65 1.36 11.07-2.34 .84-1.3 1.29-2.82 1.29-4.37V108.65v-.001c0-2.72-1.37-5.25-3.64-6.73Z"/><path d="M464.53 46.47v0c-9.6-5.88-21.6-6.21-31.5-.88v0c-.44.22-.85.46-1.25.74l-84.15 55v0c-2.28 1.48-3.64 4-3.63 6.72v357.46 0c-.02 4.41 3.55 8.01 7.97 8.02 1.62 0 3.2-.49 4.54-1.4l107.07-73.46v0c10.14-5.67 16.42-16.38 16.41-28v-296 -.001c.13-11.47-5.74-22.17-15.47-28.21Z"/></g></svg>