<svg viewBox="0 0 512 512" xmlns="http://www.w3.org/2000/svg"><path fill="none" stroke="#000" stroke-linecap="round" stroke-linejoin="round" stroke-width="32" d="M429.93 174.27l-16.47-28.59v0c-4.27-7.42-13.74-9.97-21.15-5.7l-98.39 57v0c-1.92 1.1-4.36.44-5.47-1.47 -.36-.62-.55-1.33-.54-2.04l.08-113.48v0c0-8.84-7.17-16-16-16h-32v0c-8.84 0-16 7.16-16 16l.07 113.57v0c.01 2.2-1.76 4.01-3.97 4.03 -.72 0-1.42-.18-2.04-.54l-98.39-57h0c-7.42-4.27-16.89-1.72-21.15 5.7l-16.46 28.6v0c-4.27 7.37-1.75 16.8 5.63 21.06 .01.01.03.02.05.03l98.49 57.08v0c1.9 1.11 2.54 3.56 1.42 5.47 -.35.58-.84 1.08-1.43 1.42l-98.49 57.08h-.001c-7.36 4.28-9.9 13.69-5.69 21.1l16.47 28.59h0c4.26 7.41 13.73 9.96 21.15 5.7l98.39-57v0c1.91-1.11 4.35-.45 5.46 1.46 .35.61.54 1.32.53 2.03l-.08 113.58v0c0 8.83 7.16 16 16 16h32v0c8.83 0 16-7.17 16-16l-.07-113.67v0c-.02-2.21 1.75-4.02 3.96-4.04 .71-.01 1.41.17 2.03.53l98.39 57v0c7.41 4.26 16.88 1.71 21.15-5.7l16.47-28.59v0c4.26-7.38 1.74-16.81-5.64-21.07 -.02-.02-.04-.03-.06-.04l-98.49-57.08v0c-1.91-1.12-2.55-3.57-1.43-5.48 .34-.59.83-1.09 1.42-1.43l98.49-57.08v-.001c7.37-4.28 9.91-13.71 5.68-21.11Z"/></svg>