<svg viewBox="0 0 512 512" xmlns="http://www.w3.org/2000/svg"><path d="M256 48C141.31 48 48 141.31 48 256c0 114.69 93.31 208 208 208s208-93.31 208-208 -93.31-208-208-208Zm0 80v0 0c26.47.07 47.92 21.52 48 48v64 0c-.01 2.58-.22 5.16-.63 7.71v0c-.19 1.08-1.22 1.82-2.31 1.63 -.45-.08-.86-.3-1.16-.64l-84.42-92.86 -.001 0c-1.2-1.31-1.39-3.26-.47-4.77H215c8.7-14.31 24.23-23.05 40.98-23.08Zm32 256h-63.55c-8.61 0-16-6.62-16.43-15.23v0c-.43-8.83 6.38-16.33 15.21-16.76 .25-.02.51-.02.76-.02h16v-17.74h-.001c-18.2-3.27-35.19-11.35-49.21-23.38 -19.85-17.05-30.79-39.3-30.79-62.66v-24.22 0c-.06-8.79 7.02-15.96 15.81-16.01 .19-.01.38 0 .57 0v-.001c8.77.35 15.69 7.61 15.61 16.4v23.82c0 25.66 28 55.48 64 55.48 1.67 0 3.37-.09 5.06-.24v0c1.23-.12 2.45.36 3.29 1.29l21.07 23.19v0c.74.81.68 2.08-.13 2.82 -.22.19-.48.34-.77.43v0c-4.11 1.28-8.3 2.3-12.53 3.06v17.74h15.55c8.61 0 16 6.62 16.43 15.23v0c.42 8.82-6.39 16.32-15.22 16.75 -.26.01-.52.01-.77.01Zm-77.89-138.91l36.46 40.11v0c.37.4.35 1.03-.05 1.41 -.25.22-.59.32-.91.24v0c-19.81-4.48-34.7-20.86-37.25-41v0c-.06-.55.34-1.05.89-1.1 .31-.04.63.08.84.32Zm152.65 119.75v0c-6.54 5.94-16.66 5.45-22.6-1.08l-192-210v0c-5.87-6.62-5.26-16.73 1.35-22.59 6.49-5.77 16.4-5.3 22.32 1.06l192 210h-.001c5.94 6.53 5.45 16.65-1.08 22.6ZM352 248.22h-.001c-.07 14.47-4.2 28.63-11.93 40.87v0c-.58.94-1.81 1.24-2.75.66 -.17-.1-.32-.23-.45-.37l-19.19-21.1v0c-1.03-1.13-1.33-2.75-.76-4.16v0c2.01-5.07 3.05-10.47 3.07-15.91v-23.8 0c-.08-8.04 5.71-14.93 13.64-16.24 9.88-1.48 18.36 6.51 18.36 16.12Z"/></svg>