<svg viewBox="0 0 512 512" xmlns="http://www.w3.org/2000/svg"><g stroke-linecap="square" stroke="#000" stroke-miterlimit="10" stroke-width="32" fill="none"><path d="M192 448l128 0"/><path d="M384 208v32c0 70.4-57.6 128-128 128v0c-70.4 0-128-57.6-128-128v-32"/><path d="M256 368l0 80"/></g><path d="M256 320v0c-21.34-.05-41.74-8.75-56.55-24.1h-.001c-15.01-15.14-23.44-35.59-23.45-56.9V128l-.001-.001c-.18-44.02 35.36-79.83 79.37-80 .2-.01.41-.01.62 0 44.86 0 80 35.14 80 80v111c0 44.66-35.89 81-80 81Z"/></svg>