<svg viewBox="0 0 512 512" xmlns="http://www.w3.org/2000/svg"><path d="M256 48C141.31 48 48 141.31 48 256c0 114.69 93.31 208 208 208s208-93.31 208-208 -93.31-208-208-208Zm-48 128v0c.07-26.48 21.52-47.93 48-48v0 0c26.47.07 47.92 21.52 48 48v64 0c-.08 26.47-21.53 47.92-48 48v0 0c-26.48-.08-47.93-21.53-48-48Zm144 72.22c0 23.36-10.94 45.61-30.79 62.66v0c-14.03 12.03-31.02 20.11-49.21 23.38V352h32v32h-96v-32h32v-17.74h-.001c-18.2-3.27-35.19-11.35-49.21-23.38 -19.85-17.05-30.79-39.3-30.79-62.66V208.3h32v39.92c0 25.66 28 55.48 64 55.48 29.6 0 64-24.23 64-55.48V208.3h32Z"/></svg>