<svg viewBox="0 0 512 512" xmlns="http://www.w3.org/2000/svg"><path d="M421.84 37.37v-.001c-6.42-4.95-14.79-6.6-22.6-4.46l-199.32 53.58v0c-14.23 3.82-24.07 16.78-23.92 31.51v226c0 6.74-4.36 12.56-11.11 14.83l-.12.05 -52 18c-19.89 6.65-32.77 25.12-32.77 47.03v0c-.15 18.08 8.51 35.1 23.23 45.63v0c9.33 6.78 20.57 10.44 32.11 10.46l-.001-.001c6.03-.02 12.03-1.01 17.75-2.93l.38-.13 21.84-7.94h-.001c19.42-6.49 32.56-24.62 32.69-45.09v-212c0-7.29 4.77-13.21 12.16-15.07l.21-.06 174.63-46.64v-.001c2.13-.56 4.32.73 4.87 2.87 .08.32.12.65.12.98v141.93c0 6.75-4.25 12.38-11.11 14.68l-.25.09 -50.89 18.11v0c-20.31 6.67-33.96 25.73-33.75 47.11v0c-.19 18.13 8.48 35.23 23.23 45.8v0c14.43 10.43 33.04 13.17 49.88 7.35l.36-.12 21.84-7.95v0c19.42-6.49 32.56-24.61 32.69-45.08V57.98v0c.04-8.1-3.72-15.74-10.16-20.63Z"/></svg>