<svg viewBox="0 0 512 512" xmlns="http://www.w3.org/2000/svg"><g><path d="M439.91 112h-23.82v0c-.05 0-.09.04-.09.09V416v0c0 17.67 14.32 32 32 32v0 0c17.67 0 32-14.33 32-32V152.09v-.001c-.001-22.15-17.95-40.09-40.09-40.09Z"/><path d="M384 416V72v0c0-22.1-17.91-40-40-40H72v0c-22.1 0-40 17.9-40 40v352 0c0 30.92 25.07 56 56 56h342.85v0c.62 0 1.14-.51 1.15-1.13 0-.01 0-.02 0-.03v0 0c-.01-.52-.36-.97-.85-1.1h0c-27.82-7.64-47.12-32.91-47.15-61.75ZM96 128v0c0-8.84 7.16-16 16-16h64v0c8.83 0 16 7.16 16 16v64 0c0 8.83-7.17 16-16 16h-64v0c-8.84 0-16-7.17-16-16Zm208 272H112.45c-8.61 0-16-6.62-16.43-15.23v0c-.43-8.83 6.38-16.33 15.21-16.76 .25-.02.51-.02.76-.02h191.55c8.61 0 16 6.62 16.43 15.23v0c.42 8.82-6.39 16.32-15.22 16.75 -.26.01-.52.01-.77.01Zm0-64H112.45c-8.61 0-16-6.62-16.43-15.23v0c-.43-8.83 6.38-16.33 15.21-16.76 .25-.02.51-.02.76-.02h191.55c8.61 0 16 6.62 16.43 15.23v0c.42 8.82-6.39 16.32-15.22 16.75 -.26.01-.52.01-.77.01Zm0-64H112.45c-8.61 0-16-6.62-16.43-15.23v0c-.43-8.83 6.38-16.33 15.21-16.76 .25-.02.51-.02.76-.02h191.55c8.61 0 16 6.62 16.43 15.23v0c.42 8.82-6.39 16.32-15.22 16.75 -.26.01-.52.01-.77.01Zm0-64h-63.55c-8.61 0-16-6.62-16.43-15.23v0c-.43-8.83 6.38-16.33 15.21-16.76 .25-.02.51-.02.76-.02h63.55c8.61 0 16 6.62 16.43 15.23v0c.42 8.82-6.39 16.32-15.22 16.75 -.26.01-.52.01-.77.01Zm0-64h-63.55c-8.61 0-16-6.62-16.43-15.23v0c-.43-8.83 6.38-16.33 15.21-16.76 .25-.02.51-.02.76-.02h63.55c8.61 0 16 6.62 16.43 15.23v0c.42 8.82-6.39 16.32-15.22 16.75 -.26.01-.52.01-.77.01Z"/></g></svg>