<svg viewBox="0 0 512 512" xmlns="http://www.w3.org/2000/svg"><path d="M256 48C141.31 48 48 141.31 48 256c0 114.69 93.31 208 208 208s208-93.31 208-208 -93.31-208-208-208Zm0 336c-20.9 0-37.52-8.86-39.75-27.58v0c-.24-2.2 1.36-4.17 3.55-4.4 .14-.02.29-.03.44-.03h71.45v0c2.2-.02 4.01 1.76 4.02 3.97 0 .17-.01.34-.03.5 -2.55 18.37-19.02 27.52-39.7 27.52Zm98-48H158c-11.84 0-18-15-11.19-23 16.33-19.34 27.87-27.47 27.87-80.8 0-48.87 25.74-66.21 47-74.67l-.001 0c2.95-1.24 5.25-3.66 6.33-6.68 3.69-12.25 14.13-22.85 27.99-22.85 13.86 0 24.28 10.6 28 22.86v0c1.07 3.01 3.38 5.44 6.34 6.68 21.21 8.44 47 25.81 47 74.67 0 53.33 11.53 61.46 27.86 80.8 6.74 7.99.57 22.99-11.2 22.99Z"/></svg>