<svg viewBox="0 0 512 512" xmlns="http://www.w3.org/2000/svg"><path fill="none" stroke="#000" stroke-miterlimit="10" stroke-width="32" d="M448 256c0-106-86-192-192-192C150 64 64 150 64 256c0 106 86 192 192 192s192-86 192-192Z"/><g><path d="M365.2 313c-16.33-19.34-27.86-27.47-27.86-80.8 0-48.86-25.78-66.23-47-74.67v0c-2.96-1.24-5.27-3.67-6.34-6.68 -3.71-12.25-14.12-22.85-28-22.85s-24.31 10.6-28 22.86h-.001c-1.08 3.02-3.38 5.44-6.33 6.68 -21.24 8.46-47 25.8-47 74.67 0 53.33-11.54 61.46-27.87 80.8 -6.77 8-.65 23 11.19 23h196.01c11.77-.01 17.94-15.01 11.2-23.01Z"/><path d="M220.24 352v0c-2.21-.02-4.01 1.76-4.03 3.97 -.01.14 0 .29.02.44 2.25 18.72 18.87 27.58 39.76 27.58 20.67 0 37.14-9.15 39.66-27.52v0c.26-2.2-1.3-4.19-3.5-4.46 -.17-.03-.34-.04-.51-.03Z"/></g></svg>