<svg viewBox="0 0 512 512" xmlns="http://www.w3.org/2000/svg"><g stroke-width="32" stroke="#000" fill="none" stroke-linejoin="round"><path d="M90.61 306.85v0c6.85-1.07 12.25-6.41 13.39-13.25C116.09 220.17 169.63 176 232 176c57.93 0 96.62 37.75 112.2 77.74h-.001c2.03 5.21 6.67 8.96 12.2 9.87 50 8.15 91.6 41.54 91.6 99.59 0 59.4-48.6 100.8-108 100.8h-234c-49.5 0-90-24.7-90-79.2 0-48.47 38.67-72.22 74.61-77.95Z"/><g stroke-linecap="round" stroke-width="32" stroke="#000" fill="none" stroke-linejoin="round"><path d="M384.8 271.4v0c34.98-26.99 41.47-77.22 14.49-112.21 -26.99-34.99-77.22-41.48-112.21-14.5 -11.64 8.97-20.58 20.97-25.84 34.69"/><path d="M464 208l32 0"/><path d="M336 48l0 32"/><path d="M222.86 94.86l22.63 22.63"/><path d="M449.14 94.86l-22.63 22.63"/></g></g></svg>