<svg viewBox="0 0 512 512" xmlns="http://www.w3.org/2000/svg"><g><path d="M258.9 48C141.92 46.42 46.42 141.92 48 258.9c1.56 112.19 92.91 203.54 205.1 205.1 117 1.6 212.48-93.9 210.88-210.88C462.44 140.91 371.09 49.56 258.9 48Zm-3.68 152.11c.21-1.2.44-2.4.71-3.59l0 0c2.52-11.68 8.15-22.47 16.29-31.21 12.89-13.73 31.16-21.31 51.45-21.31v0c8.53-.04 17.01 1.4 25.06 4.26v0c10 3.56 19 9.45 26.27 17.2v0c10.68 11.54 17.04 26.43 18 42.14v0c.27 3.79.27 7.6 0 11.4v0h-.001c-.78 10.75-3.56 21.27-8.2 31q-.76 1.59-1.59 3.15c-1.11 2.07-2.3 4.1-3.58 6.06v0c-2.55 3.91-5.44 7.59-8.63 11 -13.12 14-29.92 21.73-47.31 21.73l-.001 0c-6.53-.01-13-1.08-19.17-3.18v-.001c-2.08-.71-4.11-1.52-6.1-2.43v0c-8.34-3.89-15.84-9.37-22.07-16.12h-.001c-12.99-14.09-20.76-32.21-22-51.32q-.27-3.88-.18-7.68v0c.07-3.72.42-7.42 1.05-11.08Zm-149.73 24.34l-.001 0c.48-7.14 2.24-14.13 5.2-20.64h0c.83-1.82 1.76-3.59 2.78-5.3l-.001 0c2.03-3.45 4.44-6.65 7.19-9.56v0c4.05-4.34 8.78-7.99 14-10.82v0c2.6-1.43 5.31-2.65 8.11-3.64v0c10.7-3.75 22.21-4.57 33.35-2.39v0c11.79 2.28 22.56 8.23 30.78 17v-.001c9.74 10.51 15.23 24.28 15.41 38.62 .05 2.11 0 4.23-.15 6.38v-.001c-.62 8.23-2.65 16.29-6 23.84v-.001c-1.61 3.63-3.53 7.11-5.73 10.42v0c-4.24 6.4-9.58 12.01-15.76 16.57 -1.5 1.07-3.06 2.07-4.67 3.07h-.001c-3.17 1.88-6.52 3.44-10 4.65v0c-5.21 1.81-10.69 2.75-16.2 2.76 -.93 0-1.86 0-2.78-.08v0c-1.84-.11-3.67-.31-5.48-.62v0c-1.81-.32-3.59-.73-5.35-1.23v0c-2.65-.77-5.23-1.73-7.72-2.89 -.84-.39-1.66-.8-2.48-1.23 -18-9.49-31.57-29.16-34.23-52.12 -.12-1.05-.22-2.1-.29-3.16l-.001-.001c-.23-3.21-.22-6.43.02-9.63Zm53.92 178.6l-.001 0c-26.63-17.56-48.03-41.96-61.94-70.65h0c-.95-1.91-.24-4.22 1.62-5.26 18.58-10.45 42.31-16.14 64.73-16.14 17 0 30.7 2 42.69 5.88v0c4.19 1.38 6.47 5.9 5.09 10.1 -.48 1.43-1.35 2.7-2.51 3.66 -23.35 19-38.4 42.54-45.47 70.75v0 0c-.37 1.48-1.87 2.39-3.35 2.03 -.31-.08-.61-.21-.88-.39ZM256 432v0c-22.52.02-44.83-4.3-65.7-12.72v0c-1.76-.73-2.77-2.6-2.4-4.46 .4-2.05.84-3.92 1.23-5.48 7.12-28.43 24.76-52 51-68.18 23.29-14.35 53-22.25 83.52-22.25 31.16 0 60 7.58 83.48 21.91v0 0c1.24.77 1.64 2.4.91 3.67h-.001c-31.52 54.13-89.41 87.45-152.04 87.51Z"/><path d="M161 295.28v0c-1.84-.11-3.67-.31-5.48-.62v0c1.81.31 3.64.51 5.48.62Z"/><path d="M134.64 178.13v0c-5.22 2.83-9.95 6.48-14 10.82v0c-2.75 2.91-5.16 6.11-7.19 9.56h-.001c2.03-3.45 4.44-6.65 7.19-9.56h0c4.05-4.34 8.78-7.99 14-10.82Z"/><path d="M216.17 257.89h0c3.35-7.55 5.38-15.61 6-23.84 .15-2.15.2-4.27.15-6.38q.08 3.15-.15 6.38v0c-.62 8.23-2.65 16.29-6 23.84Z"/><path d="M134.64 178.13v0c2.6-1.43 5.31-2.65 8.11-3.64v0c-2.8.99-5.51 2.21-8.11 3.64Z"/><path d="M150.21 293.43v0c-2.65-.77-5.23-1.73-7.72-2.89v0c2.49 1.16 5.07 2.12 7.72 2.89Z"/><path d="M105.78 237.19c2.66 23 16.26 42.63 34.23 52.12 -18.01-9.49-31.57-29.16-34.23-52.12Z"/><path d="M254.34 219h0c1.24 19.11 9.01 37.23 22 51.32v0c6.23 6.75 13.73 12.23 22.07 16.12v0c-8.34-3.89-15.84-9.37-22.07-16.12v0c-12.99-14.09-20.76-32.21-22-51.32q-.27-3.88-.18-7.68 -.09 3.75.18 7.68Z"/><path d="M304.5 288.82v0c-2.08-.71-4.11-1.52-6.1-2.43v0c1.99.91 4.02 1.72 6.1 2.43Z"/><path d="M255.93 196.54l0 0c2.52-11.68 8.15-22.47 16.29-31.21v-.001c-8.14 8.74-13.77 19.53-16.29 31.21Z"/><path d="M375 165.46v0c10.68 11.54 17.04 26.43 18 42.14v0c-.96-15.71-7.32-30.6-18-42.14v0c-7.27-7.75-16.27-13.64-26.27-17.2v0c10 3.56 19 9.45 26.27 17.2Z"/><path d="M393 219v0h-.001c-.78 10.75-3.56 21.27-8.2 31v-.001c4.64-9.73 7.42-20.25 8.2-31Z"/><path d="M254.16 211.27l0 0c.07-3.74.43-7.46 1.06-11.14h-.001c-.63 3.68-.99 7.4-1.06 11.14Z"/><path d="M383.19 253.16c-1.11 2.07-2.3 4.1-3.58 6.06 1.28-1.96 2.47-3.99 3.58-6.06Z"/><path d="M206.88 189.05h0c9.74 10.51 15.23 24.28 15.41 38.62v0c-.18-14.34-5.67-28.11-15.41-38.62v0c-8.22-8.77-18.99-14.72-30.78-17v0c11.79 2.28 22.56 8.23 30.78 17Z"/><path d="M190 288h-.001c-3.17 1.88-6.52 3.44-10 4.65v0c3.48-1.21 6.83-2.77 10-4.65Z"/><path d="M105.49 224.45l-.001 0c.48-7.14 2.24-14.13 5.2-20.64v0c-2.96 6.51-4.72 13.5-5.2 20.64Z"/><path d="M194.68 284.88C193.17 286 191.61 287 190 288c1.61-1 3.17-2 4.68-3.12Z"/><path d="M216.17 257.89v0c-1.61 3.63-3.53 7.11-5.73 10.42v0c2.2-3.31 4.12-6.79 5.73-10.42Z"/><path d="M110.69 203.81h0c.83-1.82 1.76-3.59 2.78-5.3v0c-1.02 1.71-1.95 3.48-2.78 5.3Z"/><path d="M194.68 284.88h0c6.18-4.56 11.52-10.17 15.76-16.57h0c-4.24 6.4-9.58 12.01-15.76 16.57Z"/></g></svg>