<svg viewBox="0 0 512 512" xmlns="http://www.w3.org/2000/svg"><g><path d="M256 464c-114.69 0-208-93.31-208-208s93.31-208 208-208 208 93.31 208 208 -93.31 208-208 208Zm0-384c-97 0-176 79-176 176s79 176 176 176 176-78.95 176-176 -78.95-176-176-176Z"/><path d="M323.67 292c-17.4 0-34.21-7.72-47.34-21.73v0c-12.99-14.09-20.76-32.21-22-51.32 -1.47-20.7 4.88-39.75 17.88-53.62 13-13.87 31.17-21.33 51.46-21.33 20.14 0 38.37 7.62 51.33 21.46s19.47 33 18 53.51v0 -.001c-1.28 19.1-9.04 37.2-22 51.3 -13.14 14.01-29.94 21.73-47.33 21.73Zm55.81-74v0Z"/><path d="M163.82 295.36c-29.76 0-55.93-27.51-58.33-61.33 -1.23-17.32 4.15-33.33 15.17-45.08s26.22-18 43.15-18 32.12 6.44 43.07 18.14c10.95 11.7 16.5 27.82 15.25 45 -2.44 33.77-28.6 61.27-58.31 61.27Z"/><path d="M420.37 355.28c-1.59-4.7-5.46-9.71-13.22-14.46 -23.46-14.33-52.32-21.91-83.48-21.91 -30.57 0-60.23 7.9-83.53 22.25 -26.25 16.17-43.89 39.75-51 68.18 -1.68 6.69-4.13 19.14-1.51 26.11l-.001 0c86.76 32.99 184.7-.75 232.75-80.17Z"/><path d="M163.63 401.37c7.07-28.21 22.12-51.73 45.47-70.75v0c3.4-2.82 3.89-7.86 1.07-11.27 -.97-1.17-2.24-2.04-3.67-2.51 -12-3.83-25.7-5.88-42.69-5.88 -23.82 0-49.11 6.45-68.14 18.17 -5.4 3.33-10.7 4.61-14.78 5.75l-.001-.001c16.38 36.2 43.54 66.46 77.78 86.64l1.79-.14 -.001-.001c.39-6.77 1.44-13.47 3.16-20.02Z"/></g></svg>