<svg viewBox="0 0 512 512" xmlns="http://www.w3.org/2000/svg"><path d="M256 48C141.31 48 48 141.31 48 256c0 114.69 93.31 208 208 208s208-93.31 208-208 -93.31-208-208-208Zm-50.22 116.82C218.45 151.39 236.28 144 256 144c19.72 0 37.39 7.44 50.11 20.94 12.89 13.68 19.16 32.06 17.68 51.82C320.83 256 290.43 288 256 288c-34.43 0-64.89-32-67.79-71.25 -1.47-19.92 4.79-38.36 17.57-51.93ZM256 432v-.001c-47.47.03-92.93-19.17-126-53.22l0 0c9.37-13.38 21.32-24.74 35.14-33.44 25.49-16.34 57.75-25.34 90.86-25.34s65.37 9 90.83 25.34l0-.001c13.82 8.69 25.78 20.06 35.17 33.44v0c-33.08 34.05-78.53 53.25-126 53.22Z"/></svg>