<svg viewBox="0 0 512 512" xmlns="http://www.w3.org/2000/svg"><g stroke-width="32" stroke-miterlimit="10" stroke="#000" fill="none"><path d="M404.76 123.08C358.37 104.18 309.69 96 256 96c-53.69 0-106.1 9-148.9 26.68 -8.08 3.3-15.26 9-10.07 19.5C101.24 150.71 203 375 241.66 455h-.001c3.82 7.93 13.34 11.26 21.27 7.44 3.25-1.57 5.87-4.19 7.44-7.45l144.05-312.22c3.19-6.9.9-15.4-9.67-19.7Z"/><path d="M436.38 82.68C384.31 62.08 320.17 48 256 48c-64.17 0-127.35 12.78-180.52 34.08C70.79 84 62 88.43 64.41 95.88L74.09 120c4 8.2 8.67 8.2 15.06 8.2 1.79 0 4.29-1 7.28-2.18v0C147.31 106.25 201.41 96.07 256 96c56.76 0 114.91 12 159.6 30 3.59 1.4 5.59 2.18 7.28 2.18 6.58 0 10.38 2.19 15-8.1L447.65 96c2.01-6-4.99-10.82-11.27-13.32Z"/></g><g><path d="M192 160a32 32 0 1 0 0 64 32 32 0 1 0 0-64Z"/><path d="M320 176a32 32 0 1 0 0 64 32 32 0 1 0 0-64Z"/><path d="M256 288a32 32 0 1 0 0 64 32 32 0 1 0 0-64Z"/></g></svg>