<svg viewBox="0 0 512 512" xmlns="http://www.w3.org/2000/svg"><path d="M48 256c0 114.69 93.31 208 208 208s208-93.31 208-208 -93.31-208-208-208C141.31 48 48 141.31 48 256Zm69.23-9.3l114.45-69.14v0c5.1-3.06 11.72-1.4 14.78 3.7 1.01 1.69 1.54 3.63 1.53 5.6v53.32l103.68-62.63v0c5.1-3.06 11.72-1.4 14.78 3.7 1.01 1.69 1.54 3.63 1.53 5.6v138.26 0c.03 5.95-4.77 10.8-10.72 10.84 -1.98.01-3.92-.52-5.61-1.54l-103.68-62.63v53.32 0c.03 5.95-4.77 10.8-10.72 10.84 -1.98.01-3.92-.52-5.61-1.54l-114.45-69.14h0c-5.14-3.13-6.77-9.83-3.64-14.97 .9-1.49 2.15-2.74 3.63-3.64Z"/></svg>