<svg viewBox="0 0 512 512" xmlns="http://www.w3.org/2000/svg"><path fill="none" stroke="#000" stroke-miterlimit="10" stroke-width="32" d="M256 448c106 0 192-86 192-192s-86-192-192-192C150 64 64 150 64 256c0 106 86 192 192 192Z"/><path d="M192 176v0c8.83 0 16 7.16 16 16v53l111.68-67.46v0c5.1-3.06 11.72-1.41 14.78 3.7 1.01 1.69 1.54 3.64 1.53 5.62v138.26h-.001c.03 5.95-4.77 10.8-10.72 10.84 -1.98.01-3.92-.52-5.61-1.54l-111.68-67.44v53 0c0 8.83-7.17 16-16 16 -8.84 0-16-7.17-16-16v-128 0c0-8.84 7.16-16 16-16Z"/></svg>