<svg viewBox="0 0 512 512" xmlns="http://www.w3.org/2000/svg"><path d="M30.71 229.47l188.87-113v0c9.51-5.8 21.43-5.94 31.09-.39v-.001c10.47 6.09 16.87 17.34 16.76 29.47v79.05l180.72-108.16v0c9.51-5.8 21.43-5.94 31.09-.39v-.001c10.47 6.09 16.87 17.34 16.76 29.47v221 0c.11 12.12-6.29 23.38-16.76 29.48v-.001c-9.66 5.54-21.58 5.4-31.09-.39L267.43 287.39v79.08 0c.13 12.13-6.27 23.41-16.76 29.52h-.001c-9.66 5.54-21.58 5.4-31.09-.39l-188.87-113v0c-14.64-9.17-19.07-28.47-9.9-43.11 2.5-4.01 5.89-7.4 9.89-9.9Z"/></svg>