<svg viewBox="0 0 512 512" xmlns="http://www.w3.org/2000/svg"><g><path d="M448 183.8v-123 0c.07-24.67-19.86-44.73-44.52-44.8 -.07-.01-.13-.01-.2-.01H280.35v0c-8.07.01-15.79 3.21-21.51 8.89L13.08 270.57h0c-17.46 17.5-17.46 45.83-.001 63.34l117 117v0c17.5 17.45 45.82 17.45 63.33 0L439.09 205.3v0c5.68-5.72 8.87-13.45 8.89-21.51ZM352 144v0c-17.68 0-32-14.33-32-32 0-17.68 14.32-32 32-32 17.67 0 32 14.32 32 32v0c0 17.67-14.33 32-32 32Z"/><path d="M496 64v0c-8.84 0-16 7.16-16 16v127.37L218.69 468.69v0c-6.41 6.08-6.67 16.21-.58 22.62 6.08 6.4 16.21 6.66 22.62.57 .19-.19.39-.39.57-.58l262-262 0-.001c5.62-5.66 8.75-13.34 8.69-21.31v-128 0c0-8.84-7.17-16-16-16Z"/></g></svg>