<svg viewBox="0 0 512 512" xmlns="http://www.w3.org/2000/svg"><g stroke-width="32" stroke="#000" fill="none" stroke-linejoin="round"><path d="M384 368h24 -.001c22.06-.07 39.93-17.94 40-40V168v0c-.07-22.07-17.94-39.94-40-40h-304v0c-22.07.06-39.94 17.93-40 40v160 0c.06 22.06 17.93 39.93 40 40h24"/><rect width="256" height="208" x="128" y="240" rx="24.32"/><path d="M384 128v-24 0c-.07-22.07-17.94-39.94-40-40H168h0c-22.07.06-39.94 17.93-40 40v24"/></g><path d="M392 160a24 24 0 1 0 0 48 24 24 0 1 0 0-48Z"/></svg>