<svg viewBox="0 0 512 512" xmlns="http://www.w3.org/2000/svg"><path d="M487.83 319.44L295.63 36.88v-.001c-14.96-21.89-44.83-27.51-66.72-12.55 -4.93 3.36-9.19 7.62-12.55 12.54l-192.2 282.56v0c-14.64 21.5-9.06 50.8 12.45 65.43 1.44.98 2.93 1.88 4.47 2.69l192.2 102.75h-.001c14.17 7.6 31.22 7.6 45.4 0l192.2-102.75v0c22.99-12.16 31.78-40.66 19.62-63.66 -.82-1.55-1.72-3.04-2.7-4.48Zm-431.26 41h0c-4.02-2.18-6.93-5.95-8-10.38h0c-1.21-4.67-.34-9.64 2.37-13.62L232.66 69.26c2.18-3.21 7.34-1.72 7.34 2.13v374c0 5.9-6.54 9.63-11.87 6.78Z"/></svg>