<svg viewBox="0 0 512 512" xmlns="http://www.w3.org/2000/svg"><path d="M432 272h0c-20.34.02-38.45 12.84-45.25 32h-39.22l-28.35-85.06 0-.001c-2.8-8.39-11.86-12.92-20.25-10.12 -5.01 1.66-8.87 5.7-10.32 10.77l-44.51 155.76 -52.33-314v0c-1.46-8.72-9.71-14.6-18.43-13.14 -6.28 1.05-11.34 5.71-12.88 11.88l-60.97 243.89H47.98v0c-8.84 0-16 7.16-16 16 0 8.83 7.16 16 16 16h64v0c7.34-.01 13.73-5 15.52-12.12l45.34-181.37 51.36 308.12v0c1.21 7.39 7.4 12.94 14.88 13.37 .3 0 .6 0 .91 0v0c7.13-.01 13.4-4.74 15.37-11.6l49.8-174.28 15.64 46.94v0c2.17 6.53 8.29 10.94 15.18 10.94h50.75v0c8.83 24.99 36.26 38.09 61.25 29.25 24.99-8.84 38.09-36.27 29.25-61.26 -6.79-19.18-24.92-32.01-45.26-32Z"/></svg>