<svg viewBox="0 0 512 512" xmlns="http://www.w3.org/2000/svg"><g><rect width="80" height="80" x="336" rx="8" y="336"/><rect width="64" height="64" x="272" rx="8" y="272"/><rect width="64" height="64" x="416" rx="8" y="416"/><rect width="48" height="48" x="432" rx="8" y="272"/><rect width="48" height="48" x="272" rx="8" y="432"/><path d="M448 32H304v0c-17.68 0-32 14.32-32 32v144 0c0 17.67 14.32 32 32 32h144v0c17.67 0 32-14.33 32-32V64v0c0-17.68-14.33-32-32-32Zm-32 136v0c0 4.41-3.59 8-8 8h-64v0c-4.42 0-8-3.59-8-8v-64 0c0-4.42 3.58-8 8-8h64v0c4.41 0 8 3.58 8 8Z"/><path d="M208 32H64v0c-17.68 0-32 14.32-32 32v144 0c0 17.67 14.32 32 32 32h144v0c17.67 0 32-14.33 32-32V64v0c0-17.68-14.33-32-32-32Zm-32 136v0c0 4.41-3.59 8-8 8h-64v0c-4.42 0-8-3.59-8-8v-64 0c0-4.42 3.58-8 8-8h64v0c4.41 0 8 3.58 8 8Z"/><path d="M208 272H64v0c-17.68 0-32 14.32-32 32v144 0c0 17.67 14.32 32 32 32h144v0c17.67 0 32-14.33 32-32V304v0c0-17.68-14.33-32-32-32Zm-32 136v0c0 4.41-3.59 8-8 8h-64v0c-4.42 0-8-3.59-8-8v-64 0c0-4.42 3.58-8 8-8h64v0c4.41 0 8 3.58 8 8Z"/></g></svg>