<svg viewBox="0 0 512 512" xmlns="http://www.w3.org/2000/svg"><g><path d="M256 220.01a36 35.99 0 1 0 0 71.98 36 35.99 0 1 0 0-71.98Z"/><path d="M188.4 350.8l-14.62-16.44v0c-39.74-44.69-39.74-112.03-.001-156.71l14.62-16.43 32.87 29.24 -14.62 16.43v0c-24.91 28.01-24.91 70.23-.001 98.25l14.62 16.44Z"/><path d="M323.6 350.8l-32.89-29.22 14.62-16.44v0c24.9-28.02 24.9-70.24 0-98.25l-14.62-16.43 32.87-29.24 14.62 16.43v0c39.73 44.68 39.73 112.02 0 156.71Z"/><path d="M138.24 401.76l-15-16.06v-.001c-68.29-72.99-68.29-186.42-.001-259.4l15-16.07 32.14 30.05 -15 16.06v0c-52.47 56.08-52.47 143.23 0 199.32l15 16.06Z"/><path d="M373.76 401.76l-32.14-30 15-16.06v0c52.46-56.09 52.46-143.24 0-199.32l-15-16.06 32.14-30 15 16.07v0c68.28 72.98 68.28 186.41 0 259.4Z"/><path d="M430.73 447l-32.79-29.33 14.66-16.39 -.001-.001c73.86-82.78 73.86-207.79 0-290.56l-14.67-16.38 32.79-29.34 14.67 16.39v-.001c88.8 99.46 88.8 249.75 0 349.22Z"/><path d="M81.27 447L66.6 430.61h0c-88.81-99.47-88.81-249.76-.001-349.22L81.279 65l32.79 29.34 -14.68 16.38 0 0c-73.87 82.77-73.87 207.78-.001 290.56l14.66 16.39Z"/></g></svg>