<svg viewBox="0 0 512 512" xmlns="http://www.w3.org/2000/svg"><g stroke-width="32" stroke="#000" fill="none" stroke-linejoin="round"><path d="M160 336l0-288 32 16 32-16 31.94 16 32.37-16L320 64l31.79-16 31.93 16L416 48l32.01 16L480 48l0 224"/><path d="M480 272v112 0c0 44.18-35.82 80-80 80v0 0c-44.19 0-80-35.82-80-80v-48H48v0c-8.76-.08-15.93 6.95-16 15.71 -.01.09-.01.18 0 .28 0 64 6.74 112 80 112h288"/><g stroke-linecap="round" stroke-width="32" stroke="#000" fill="none" stroke-linejoin="round"><path d="M224 144l192 0"/><path d="M288 224l128 0"/></g></g></svg>