<svg viewBox="0 0 512 512" xmlns="http://www.w3.org/2000/svg"><g stroke-width="32" stroke-miterlimit="10" stroke="#000" fill="none"><path d="M448 256c0-106-86-192-192-192C150 64 64 150 64 256c0 106 86 192 192 192s192-86 192-192Z"/><path fill="none" stroke="#000" stroke-linecap="round" stroke-miterlimit="10" stroke-width="32" d="M341.54 197.85l-11.37-13.23v0c-39.44-41.29-104.87-42.79-146.15-3.36 -41.29 39.43-42.79 104.86-3.36 146.14 39.43 41.28 104.86 42.78 146.14 3.35 11.73-11.21 20.66-25.02 26.06-40.31"/></g><path d="M367.32 162v-.001c-2.26 0-4.43.92-6 2.54l-59.54 59.54v-.001c-3.37 3.35-3.38 8.8-.03 12.17 1.61 1.62 3.81 2.53 6.11 2.53h59.54v0c4.76 0 8.62-3.86 8.62-8.62v-59.56 0c.01-4.76-3.84-8.62-8.59-8.64 -.04-.01-.07 0-.1 0Z"/></svg>