<svg viewBox="0 0 512 512" xmlns="http://www.w3.org/2000/svg"><path d="M256 48C141.31 48 48 141.31 48 256c0 114.69 93.31 208 208 208s208-93.31 208-208 -93.31-208-208-208Zm120 190.77h-89l36.88-36.88 -5.6-6.51 -.001 0c-33.48-34.76-88.8-35.8-123.56-2.32 -34.76 33.47-35.8 88.79-2.32 123.55 16.46 17.09 39.18 26.75 62.92 26.76v0c37.02-.04 70.02-23.36 82.42-58.25l5.37-15.13 30.17 10.67 -5.3 15.13v0c-21.97 62.17-90.19 94.76-152.36 72.79 -62.18-21.97-94.77-90.19-72.8-152.36 16.85-47.71 61.94-79.61 112.53-79.62h-.001c32.65-.13 63.9 13.24 86.36 36.95l.56.62 4.31 5 29.39-29.38Z"/></svg>