<svg viewBox="0 0 512 512" xmlns="http://www.w3.org/2000/svg"><g><path d="M357.57 223.94v0c21.23.05 41.6-8.39 56.58-23.44l77-76.95c6.09-6.09 6.65-16 .85-22.39v0c-5.94-6.55-16.06-7.04-22.61-1.11 -.2.17-.39.35-.57.54l-68.63 68.58v-.001c-4.8 4.79-12.58 4.79-17.37 0 -4.79-4.78-4.53-12.86.25-17.64l68.33-68.33v0c6.24-6.25 6.24-16.38-.01-22.63 -.19-.19-.37-.36-.56-.54l-.001 0c-2.9-2.63-6.68-4.08-10.58-4.05v-.001c-4.44 0-8.68 1.76-11.81 4.9l-68.27 68.26v0c-4.8 4.79-12.58 4.79-17.37 0 -4.78-4.78-4.53-12.86.25-17.64l68.33-68.31v0c6.24-6.25 6.24-16.38-.01-22.63 -.19-.19-.37-.36-.56-.54v-.001c-2.9-2.63-6.68-4.08-10.58-4.05v0c-4.44 0-8.68 1.76-11.81 4.9l-76.95 76.95v0c-15.06 14.97-23.5 35.35-23.44 56.59v8.23 0c0 4.24-1.69 8.32-4.69 11.33l-35.61 35.62v0c-1.57 1.56-4.1 1.56-5.66 0 -.01-.01-.01-.01-.01-.01L68.77 36.28v0c-6.23-6.24-16.33-6.27-22.58-.06 -15.15 15.01-23.24 36.2-23.24 61.27 -.1 41.4 21.66 89 56.79 124.08l85.45 85.45v0c12.14 12.12 28.6 18.92 45.76 18.93v0c5.47 0 10.91-.7 16.21-2.08v0c1.32-.35 2.69-.53 4.07-.53v0c4.01 0 7.88 1.51 10.83 4.25l11.39 10.52v0c2.93 3 4.58 7.03 4.6 11.23v5.54 0c-.03 12.59 4.92 24.68 13.77 33.65l90.05 91.57 .09.1v0c20.81 20.81 54.55 20.8 75.36-.01 20.81-20.82 20.8-54.56-.01-75.37L302.33 269.84v0c-1.57-1.57-1.57-4.1-.01-5.66 0-.01 0-.01 0-.01l35.61-35.61v0c3-3.01 7.07-4.7 11.32-4.69Z"/><path d="M211 358v0c-25.62-.06-50.18-10.21-68.36-28.25l-13.86-13.86h-.001c-3.13-3.12-8.18-3.12-11.3 0l-85 84.56c-15.15 15.15-20.56 37.45-13.06 59.29h-.001c.41 1.23.91 2.43 1.49 3.6C30.99 484 50.57 496 71.99 496v-.001c14.87.03 29.15-5.89 39.64-16.44l113.36-113.9v0c.96-.99 1.44-2.35 1.32-3.72v-.26 0c-.19-2.56-2.4-4.48-4.95-4.29 -.07 0-.14.01-.21.01v0c-3.38.37-6.78.57-10.17.59Z"/></g></svg>