<svg viewBox="0 0 512 512" xmlns="http://www.w3.org/2000/svg"><g><path d="M429.55 119.49v0c-3.61-5.75-10.45-8.59-17.06-7.1 -18.64 4.19-37.06 9-54.73 14.22 -35.06 10.39-69.33 23.92-107.85 42.59 -18.62 9.05-26 13.35-48 26.13l-4.5 2.67c-32.95 19-57.09 40-73.79 64.29C105.29 288.89 96 320 96 354.64c0 40.74 15.71 77.1 44.24 102.37C169 482.52 209.06 496 256 496c46.76 0 86.89-14.33 116-41.43 28.35-26.35 44-63.39 44-104.29 0-25-6.19-47-12.17-68.22 -12.59-44.69-23.46-83.29 24.71-144.13v0c4.2-5.32 4.61-12.7 1.01-18.44Z"/><path d="M219 119.55C168.46 92.08 101.46 80.69 98.63 80.22v0c-7.6-1.25-15.01 3.09-17.63 10.33v0c-2.02 5.87-.55 12.39 3.79 16.84 31.84 33.78 32.86 68.79 28.65 104.63v0c-.23 1.89.78 3.71 2.5 4.54v0 -.001c1.71.81 3.75.45 5.08-.9 16.39-16.51 36.37-31.52 60.4-45.39l4.48-2.6c22.1-12.87 30.33-17.67 50.1-27.26l2.69-1.3v0c1.99-.96 2.83-3.35 1.87-5.34 -.29-.6-.71-1.11-1.24-1.5v0c-6.49-4.7-13.28-8.95-20.33-12.73Z"/><path d="M234.26 91.45c3.44 1.87 7.09 4 10.9 6.29h-.001c10.56 6.47 20.46 13.97 29.57 22.39v-.001c1.15 1.07 2.82 1.37 4.28.76l-.001 0c22.73-9.61 45.99-17.96 69.65-25q7-2.07 14.08-4v0c2.13-.59 3.38-2.79 2.79-4.92 -.07-.25-.16-.48-.27-.71 -8.27-16.83-14.67-28.9-15.15-29.79v-.001c-2.78-5.22-8.21-8.48-14.12-8.48 -1.91 0-33.28.36-76.87 21.3v0c-9.06 4.35-17.87 9.2-26.39 14.51v-.001c-1.89 1.15-2.47 3.62-1.32 5.5 .37.6.9 1.1 1.53 1.43Z"/><path d="M209.33 60.79c7.3-4.77 14.74-9.22 22.25-13.31v0c.97-.53 1.32-1.75.8-2.72 -.14-.26-.33-.48-.57-.65 -26-19.57-49.73-27-51.15-27.42v-.001c-6.5-1.99-13.54.34-17.56 5.82l0 0c-7.36 10.21-13.81 21.04-19.28 32.38v0c-.49.99-.08 2.19.92 2.67 .11.05.24.1.36.13 13.61 3.57 29.4 8.29 45.61 14.29v0c.59.22 1.25.14 1.79-.2Z"/></g></svg>