<svg viewBox="0 0 512 512" xmlns="http://www.w3.org/2000/svg"><path d="M414.39 97.61v-.001C327.34 9.69 185.51 8.99 97.61 96.04 9.7 183.089 9 324.919 96.05 412.82c.51.52 1.03 1.04 1.55 1.55h-.001c87.04 87.9 228.87 88.6 316.78 1.55 87.9-87.05 88.6-228.88 1.55-316.78 -.52-.53-1.04-1.05-1.56-1.56ZM328 208v0c13.25 0 24 10.74 24 24 0 13.25-10.75 24-24 24 -13.26 0-24-10.75-24-24v-.001c-.04-13.23 10.65-23.97 23.87-24 .04-.01.08-.01.12 0Zm-144 0v0c13.25 0 24 10.74 24 24 0 13.25-10.75 24-24 24 -13.26 0-24-10.75-24-24v-.001c-.04-13.23 10.65-23.97 23.87-24 .04-.01.08-.01.12 0Zm72 80c45.42 0 83.75 29.49 95.72 69.83 1 3.52 2.33 10.17 2.33 10.17H158s1.31-6.69 2.33-10.17C172.11 317.47 210.53 288 256 288Z"/></svg>