<svg viewBox="0 0 512 512" xmlns="http://www.w3.org/2000/svg"><path d="M414.39 97.61v-.001C327.34 9.69 185.51 8.99 97.61 96.04 9.7 183.089 9 324.919 96.05 412.82c.51.52 1.03 1.04 1.55 1.55h-.001c87.04 87.9 228.87 88.6 316.78 1.55 87.9-87.05 88.6-228.88 1.55-316.78 -.52-.53-1.04-1.05-1.56-1.56ZM184 208v0c13.25 0 24 10.74 24 24 0 13.25-10.75 24-24 24 -13.26 0-24-10.75-24-24v-.001c-.04-13.23 10.65-23.97 23.87-24 .04-.01.08-.01.12 0Zm-23.67 149.83c12-40.3 50.2-69.83 95.62-69.83s83.62 29.53 95.71 69.83v0c1.19 4.25-1.28 8.67-5.53 9.87 -.75.21-1.52.31-2.3.29H168.14v0c-4.42.06-8.06-3.47-8.12-7.88 -.02-.78.08-1.55.29-2.3ZM328 256v0c-13.26 0-24-10.75-24-24 0-13.26 10.74-24 24-24 13.25 0 24 10.74 24 24v0c.03 13.22-10.66 23.96-23.88 24 -.05 0-.09 0-.13 0Z"/></svg>