<svg viewBox="0 0 512 512" xmlns="http://www.w3.org/2000/svg"><path fill="none" stroke="#000" stroke-linecap="round" stroke-linejoin="round" stroke-width="32" d="M380.93 57.37v-.001c-6.01-6.01-14.15-9.38-22.63-9.37H94.22h-.001c-25.53-.01-46.22 20.67-46.22 46.2 -.01 0-.01.01 0 .02v323.56 0c-.01 25.52 20.67 46.21 46.2 46.22 0 0 .01 0 .02 0h323.56 -.001c25.49-.08 46.14-20.73 46.22-46.22v-264.08 0c0-8.49-3.37-16.63-9.37-22.63ZM256 416v0c-35.35 0-64-28.66-64-64 0-35.35 28.65-64 64-64 35.34 0 64 28.65 64 64v0c.04 35.3-28.54 63.95-63.84 64 -.06 0-.11 0-.17 0Zm48-224H112v0c-8.84 0-16-7.17-16-16v-64 0c0-8.84 7.16-16 16-16h192v0c8.83 0 16 7.16 16 16v64 0c0 8.83-7.17 16-16 16Z"/></svg>