<svg viewBox="0 0 512 512" xmlns="http://www.w3.org/2000/svg"><g><path d="M465.94 119.76l-73.7-73.7v0 0c-8.99-9.04-21.21-14.1-33.94-14.06H96v0c-35.35 0-64 28.65-64 64v320 0c0 35.34 28.65 64 64 64h320v0c35.34 0 64-28.66 64-64V153.7v0c.03-12.74-5.03-24.96-14.06-33.94ZM120 112h176v0c4.41 0 8 3.58 8 8v48 0c0 4.41-3.59 8-8 8H120v0c-4.42 0-8-3.59-8-8v-48 0c0-4.42 3.58-8 8-8Zm139.75 319.91v0c-44.14 2.07-81.6-32.03-83.67-76.16 -2.08-44.14 32.02-81.6 76.16-83.67 44.13-2.08 81.59 32.02 83.66 76.16 .11 2.49.11 5 0 7.5v0c-1.97 41.22-34.94 74.19-76.16 76.16Z"/><path d="M256 304a48 48 0 1 0 0 96 48 48 0 1 0 0-96Z"/></g></svg>