<svg viewBox="0 0 512 512" xmlns="http://www.w3.org/2000/svg"><path d="M368 32H144h-.001c-61.83.06-111.94 50.17-112 112v224 -.001c.06 61.82 50.17 111.93 112 112h224 -.001c61.82-.07 111.93-50.18 112-112v-224 -.001c-.07-61.83-50.18-111.94-112-112Zm36.21 178l-33.32 39.21v0c-7.93 9.4-19.6 14.82-31.89 14.84h0c-7.88-.02-15.6-2.22-22.29-6.38 -14.22-8.78-36.3-19.25-60.69-19.25s-46.47 10.47-60.69 19.25v0c-17.66 11.06-40.76 7.45-54.2-8.46L107.79 210h0c-17.79-20.78-15.8-51.93 4.49-70.27 27.84-25.35 75.37-55.57 143.72-55.57s115.88 30.22 143.72 55.57v-.001c20.28 18.34 22.27 49.49 4.49 70.27Z"/></svg>