<svg viewBox="0 0 512 512" xmlns="http://www.w3.org/2000/svg"><path fill="none" stroke="#000" stroke-miterlimit="10" stroke-width="32" d="M448 256c0-106-86-192-192-192C150 64 64 150 64 256c0 106 86 192 192 192s192-86 192-192Z"/><g stroke-linecap="round" stroke-width="32" stroke="#000" fill="none" stroke-linejoin="round"><path d="M296 352h28v0c15.46 0 28-12.54 28-28v-28"/><path d="M352 216v-28 0c0-15.47-12.54-28-28-28h-28"/><path d="M216 352h-28v0c-15.47 0-28-12.54-28-28v-28"/><path d="M160 216v-28 0c0-15.47 12.53-28 28-28h28"/></g></svg>