<svg viewBox="0 0 512 512" xmlns="http://www.w3.org/2000/svg"><g><path d="M256 428c-52.35 0-111.39-11.61-157.93-31 -17.07-7.19-31.69-18.82-43.64-28h-.001c-1.76-1.35-4.27-1.01-5.61.74 -.54.69-.83 1.55-.83 2.43v12.58c0 28.07 23.49 53.22 66.14 70.82 38.15 15.75 88.53 24.42 141.86 24.42 53.33 0 103.7-8.67 141.86-24.42 42.65-17.58 66.14-42.75 66.14-70.82v-12.58 0c0-2.21-1.79-4.01-4-4.01 -.88-.01-1.74.28-2.44.82 -11.95 9.17-26.57 20.81-43.65 28 -46.54 19.39-105.57 31-157.92 31Z"/><path d="M464 126.51c-.81-27.65-24.18-52.4-66-69.85C359.74 40.76 309.34 32 256 32c-53.34 0-103.74 8.76-141.91 24.66 -41.78 17.41-65.15 42.11-66 69.69L48 144c0 6.41 5.2 16.48 14.63 24.73 11.13 9.73 27.65 19.33 47.78 27.73C153.24 214.36 207.67 225 256 225c48.33 0 102.76-10.68 145.59-28.58 20.13-8.4 36.65-18 47.78-27.73C458.8 160.49 464 150.42 464 144Z"/><path d="M413.92 226c-46.53 19.43-105.57 31-157.92 31 -52.35 0-111.39-11.57-157.93-31 -17.07-7.15-31.69-18.79-43.64-28v0c-1.76-1.35-4.27-1.01-5.61.74 -.55.7-.84 1.58-.83 2.47v30.78c0 6.41 5.2 14.48 14.63 22.73 11.13 9.74 27.65 19.33 47.78 27.74 42.83 17.87 97.26 28.53 145.59 28.53s102.76-10.68 145.59-28.57c20.13-8.41 36.65-18 47.78-27.74 9.43-8.22 14.63-16.28 14.63-22.69v-30.78h-.001c0-2.21-1.79-4.01-4-4.01 -.88-.01-1.74.28-2.44.82 -11.95 9.17-26.57 20.81-43.65 27.96Z"/><path d="M413.92 312c-46.54 19.41-105.57 31-157.92 31 -52.35 0-111.39-11.59-157.93-31 -17.07-7.17-31.69-18.81-43.64-28v0c-1.76-1.35-4.27-1.01-5.61.74 -.54.7-.83 1.56-.83 2.45v29.8c0 6.41 5.2 14.47 14.62 22.71 11.13 9.74 27.66 19.33 47.79 27.74 42.83 17.87 97.25 28.55 145.59 28.55s102.76-10.68 145.59-28.57c20.13-8.41 36.65-18 47.78-27.74 9.43-8.25 14.63-16.32 14.63-22.69v-29.8h-.001c0-2.21-1.79-4.01-4-4.01 -.88-.01-1.74.28-2.44.82 -11.95 9.17-26.57 20.81-43.65 27.98Z"/></g></svg>