<svg viewBox="0 0 512 512" xmlns="http://www.w3.org/2000/svg"><path d="M384 336v0c-17.42-.01-34.09 7.11-46.12 19.7l-148-83.27v0c2.86-10.77 2.86-22.1 0-32.86l148-83.27v0c24.46 25.36 64.85 26.09 90.21 1.62s26.09-64.86 1.62-90.22c-24.47-25.37-64.86-26.1-90.22-1.63 -16.68 16.08-23.33 39.95-17.36 62.34l-148 83.27v0c-24.47-25.51-64.98-26.36-90.49-1.89 -25.51 24.46-26.36 64.97-1.89 90.48 24.46 25.5 64.97 26.35 90.48 1.88 .64-.62 1.27-1.25 1.88-1.89l148 83.27v0c-9.08 34.16 11.26 69.21 45.42 78.28 34.16 9.07 69.21-11.27 78.28-45.43 9.07-34.17-11.27-69.22-45.43-78.29 -5.37-1.43-10.89-2.15-16.44-2.15Z"/></svg>