<svg viewBox="0 0 512 512" xmlns="http://www.w3.org/2000/svg"><path d="M479.07 111.36v0c-.47-7.36-5.9-13.45-13.15-14.74 -86.5-15.52-122.61-26.74-203.33-63.2v0c-4.19-1.9-9-1.9-13.18-.001 -80.72 36.46-116.83 47.68-203.33 63.2l0-.001c-7.26 1.29-12.69 7.38-13.15 14.74 -3.85 61.11 4.36 118.05 24.43 169.24l-.001 0c16.43 41.75 40.75 79.95 71.64 112.51 53.47 56.73 110.24 81.37 121.07 85.73v0c3.84 1.55 8.15 1.55 12 0 10.83-4.36 67.6-29 121.07-85.73v0c30.83-32.57 55.1-70.77 71.5-112.51 20.07-51.19 28.28-108.13 24.43-169.24Zm-131 75.11l-110.8 128h0c-2.88 3.33-7.01 5.33-11.41 5.53h-.66v0c-4.19 0-8.21-1.64-11.2-4.57l-49.2-48.2v0c-6.32-6.19-6.42-16.32-.24-22.63 6.18-6.32 16.31-6.42 22.63-.24 0 0 0 0 0 0l37 36.29 99.7-115.13v0c5.78-6.69 15.88-7.42 22.57-1.63 6.68 5.78 7.41 15.88 1.63 22.57Z"/></svg>