<svg viewBox="0 0 512 512" xmlns="http://www.w3.org/2000/svg"><path d="M479.07 111.36l-.79-12.53 -12.36-2.21c-86.5-15.52-122.61-26.74-203.33-63.2l-6.59-3 -6.59 3C168.69 69.88 132.58 81.1 46.08 96.62l-12.36 2.21 -.79 12.53c-3.85 61.11 4.36 118.05 24.43 169.24l0 0c16.43 41.75 40.75 79.95 71.64 112.51 53.47 56.73 110.24 81.37 121.07 85.73l6 2.41 6-2.41c10.83-4.36 67.6-29 121.07-85.73v0c30.83-32.57 55.1-70.77 71.5-112.51 20.07-51.19 28.28-108.13 24.43-169.24Zm-252.91 216L153.37 256l22.4-22.86 48.47 47.49 110.13-127.2 24.2 20.94Z"/></svg>