<svg viewBox="0 0 512 512" xmlns="http://www.w3.org/2000/svg"><path d="M256 16C141.31 16 48 109.31 48 224v154.83l82 32.81L146.88 496H192v-64h32v64h16v-64h32v64h16v-64h32v64h45.12L382 411.64l82-32.81V224c0-114.69-93.31-208-208-208Zm-88 320v0c-30.93 0-56-25.08-56-56 0-30.93 25.07-56 56-56 30.92 0 56 25.07 56 56v0c-.04 30.91-25.09 55.96-56 56Zm51.51 64L244 320h24l24.49 80ZM344 336v0c-30.93 0-56-25.08-56-56 0-30.93 25.07-56 56-56 30.92 0 56 25.07 56 56v0c-.04 30.91-25.09 55.96-56 56Zm104 32v0Z"/></svg>