<svg viewBox="0 0 512 512" xmlns="http://www.w3.org/2000/svg"><path d="M326.1 231.9l-47.5 75.5v0c-1.95 2.69-4.31 5.05-7 7v0c-13.64 9.51-32.41 6.17-41.93-7.47 -9.37-13.43-6.3-31.88 6.92-41.54l75.5-47.5v0c3.51-2.46 8.18-2.46 11.7-.001v0c4.48 3.23 5.51 9.49 2.3 14Z"/><path fill="none" stroke="#000" stroke-linecap="round" stroke-linejoin="round" stroke-width="32" d="M256 64C132.3 64 32 164.2 32 287.9h0c-.08 54.72 19.96 107.57 56.3 148.5 1.1 1.2 2.1 2.4 3.2 3.5v0c9.43 10.21 25.37 10.85 35.59 1.41 .52-.49 1.02-.99 1.5-1.52v-.001c64.74-70.37 174.27-74.92 244.63-10.17 3.52 3.24 6.92 6.63 10.16 10.16v-.001c9.38 10.27 25.31 10.98 35.58 1.6 .52-.48 1.02-.99 1.51-1.51l3.2-3.5h-.001c36.33-40.93 56.37-93.78 56.3-148.5 0-123.7-100.3-223.9-224-223.9Z"/><g stroke-linecap="round" stroke="#000" stroke-miterlimit="10" stroke-width="32" fill="none"><path d="M256 128l0 32"/><path d="M416 288l-32 0"/><path d="M128 288l-32 0"/><path d="M165.49 197.49l-22.63-22.63"/><path d="M346.51 197.49l22.63-22.63"/></g></svg>