<svg viewBox="0 0 512 512" xmlns="http://www.w3.org/2000/svg"><g><path d="M480 448h-12v0c-2.21 0-4-1.8-4-4V273.51v0c.03-2.21-1.74-4.03-3.95-4.06 -.45-.01-.88.06-1.3.19v0c-9.18 2.88-18.71 4.49-28.32 4.78 -1.18 0-2.3.05-3.4.05v0c-18.5.04-36.69-4.66-52.85-13.64v0c-2.49-1.39-5.52-1.39-8 0v0c-16.16 8.98-34.36 13.68-52.84 13.64v-.001c-18.39.02-36.47-4.73-52.46-13.79v0c-2.51-1.43-5.59-1.43-8.09 0v0c-16.24 9.09-34.55 13.85-53.16 13.8v0c-18.51.01-36.71-4.82-52.77-14h0c-2.53-1.44-5.64-1.44-8.16 0v0c-16.07 9.18-34.27 14.01-52.77 14 -1.09 0-2.19 0-3.37-.05h-.06v-.001c-9.96-.3-19.82-2.02-29.28-5.09v0c-2.11-.68-4.36.47-5.04 2.57 -.13.39-.2.8-.2 1.22v170.85 0c0 2.2-1.8 4-4 4h-11.5c-8.64 0-16.1 6.64-16.48 15.28v0c-.4 8.82 6.43 16.3 15.26 16.7 .23.01.47.01.71.01h447.5c8.64 0 16.1-6.64 16.48-15.28v0c.39-8.83-6.44-16.31-15.27-16.71 -.24-.02-.48-.02-.72-.02Zm-256-68v0c0 2.2-1.8 4-4 4h-88v0c-2.21 0-4-1.8-4-4v-64 0c0-6.63 5.37-12 12-12h72v0c6.62 0 12 5.37 12 12Zm156 68h-72v0c-2.21 0-4-1.8-4-4V316v0c0-6.63 5.37-12 12-12h56v0c6.62 0 12 5.37 12 12v128 0c0 2.2-1.8 4-4 4Z"/><path d="M492.57 170.28l-42.92-98.49C438.41 47.62 412.74 32 384.25 32H127.7c-28.49 0-54.16 15.62-65.4 39.79l-42.92 98.49c-9 19.41 2.89 39.34 2.9 39.35l.28.45c.49.78 1.36 2 1.89 2.78 .05.06.09.13.14.2l5 6.05h-.001c.18.22.38.44.6.65l5 4.83 .42.36v0c2.93 2.51 6.07 4.78 9.39 6.78v.05 0c10.88 6.59 23.28 10.26 36 10.67 .82 0 1.64 0 2.47 0v0c19.24.03 37.78-7.23 51.89-20.31l.33-.31v0c3.05-2.89 7.83-2.89 10.89 0l.33.31v-.001c29.55 27.08 74.9 27.08 104.46 0v0c3.06-2.84 7.8-2.84 10.87 0v0 0c29.45 26.99 74.63 27.09 104.21.23v0c3.02-2.8 7.68-2.8 10.71-.001v-.001c14.28 13.04 32.96 20.21 52.31 20.08h2.49 0c12.39-.47 24.46-4.16 35-10.7v0c.95-.57 1.86-1.17 2.78-1.77v0c7.1-4.8 13.29-10.83 18.26-17.81l1.74-2.63q.26-.4.48-.84c1.66-3.38 10.56-20.76 2.35-38.42Z"/></g></svg>