<svg viewBox="0 0 512 512" xmlns="http://www.w3.org/2000/svg"><g><path d="M464 448V267.85v0c-10.76 4.01-22.09 6.23-33.56 6.58 -1.18 0-2.3.05-3.4.05v0c-20.08.05-39.77-5.49-56.86-16h-.001c-17.1 10.51-36.79 16.05-56.85 16v-.001c-19.99.02-39.58-5.59-56.51-16.2v-.001c-17.18 10.65-37 16.26-57.2 16.2v0c-20.13.02-39.84-5.67-56.85-16.42v0c-17.02 10.75-36.73 16.44-56.85 16.42 -1.09 0-2.19 0-3.37-.05h-.06 -.001c-11.81-.36-23.47-2.7-34.49-6.94v180.51h-32v32h480v-32Zm-240-64h-96v-76 0c0-2.21 1.79-4 4-4h88v0c2.2 0 4 1.79 4 4Zm160 64h-80V308v0c0-2.21 1.79-4 4-4h72v0c2.2 0 4 1.79 4 4Z"/><path d="M492.57 170.28L445.89 64C432 32 432 32 400 32H112c-32 0-32 0-45.94 32L19.38 170.28c-9 19.41 2.89 39.34 2.9 39.35l.41.66c.42.66 1.13 1.75 1.62 2.37 .1.13.19.27.28.4l5.24 6.39 5.31 5.14 .42.36v0c2.95 2.51 6.1 4.78 9.44 6.78v.05l-.001 0c10.88 6.59 23.28 10.26 36 10.67 .82 0 1.64 0 2.47 0v0c19.24.03 37.78-7.23 51.89-20.31v0c2.03-1.89 3.96-3.9 5.77-6v0c1.81 2.1 3.74 4.1 5.78 6v0c14.1 13.08 32.64 20.34 51.89 20.31 23.28 0 44.07-10 57.63-25.56v0c.04-.04.1-.04.15 0l5.66 5.26v0c14.1 13.09 32.65 20.34 51.9 20.31 23.29 0 44.11-10 57.66-25.61 13.56 15.61 34.37 25.61 57.67 25.61h2.49 0c12.39-.47 24.46-4.16 35-10.7v0c.95-.57 1.86-1.17 2.78-1.77v0c7.1-4.8 13.29-10.84 18.26-17.82l2-3c.9-2.04 11.21-20.3 2.57-38.89Z"/></g></svg>