<svg viewBox="0 0 512 512" xmlns="http://www.w3.org/2000/svg"><g stroke-linecap="round" stroke-width="32" stroke="#000" fill="none" stroke-linejoin="round"><path d="M448 448l0-208"/><path d="M64 240l0 208"/><path d="M382.47 48H129.53c-21.79 0-41.47 12-49.93 30.46L36.3 173c-14.58 31.81 9.63 67.85 47.19 69q1 0 2 0c31.4 0 56.85-25.18 56.85-52.23 0 27 25.46 52.23 56.86 52.23s56.8-23.38 56.8-52.23c0 27 25.45 52.23 56.85 52.23 31.4 0 56.86-23.38 56.86-52.23 0 28.85 25.45 52.23 56.85 52.23q1 0 1.95 0c37.56-1.17 61.77-37.21 47.19-69l-43.3-94.54C423.94 60 404.26 48 382.47 48Z"/><path d="M32 464l448 0"/><path d="M136 288h80v0c13.25 0 24 10.74 24 24v88 0H112v0 -88 0c0-13.26 10.74-24 24-24Z"/><path d="M288 464V312v0c0-13.26 10.74-24 24-24h64v0c13.25 0 24 10.74 24 24v152"/></g></svg>