<svg viewBox="0 0 512 512" xmlns="http://www.w3.org/2000/svg"><path d="M256 48C141.13 48 48 141.13 48 256c0 114.87 93.13 208 208 208s208-93.13 208-208 -93.13-208-208-208Zm83.69 282.65v0c-41.37 46.16-112.33 50.05-158.5 8.68 -20.24-18.14-33.21-43-36.51-69.98l-.001-.001c-7.37 4.87-17.3 2.85-22.18-4.52 -4.21-6.35-3.35-14.78 2.04-20.16l23.6-23.6v0c6.14-6.15 16.08-6.26 22.37-.25l24.67 23.6v-.001c6.4 6.08 6.67 16.21.59 22.61 -4.8 5.05-12.32 6.42-18.6 3.38h0c8.09 43.57 49.98 72.33 93.56 64.23 17.44-3.25 33.32-12.18 45.15-25.41h-.001c6.07-6.43 16.19-6.71 22.61-.64 6.2 5.86 6.7 15.56 1.15 22.04Zm47.76-63.34l-23.6 23.6v0c-6.15 6.14-16.09 6.25-22.37.25l-24.67-23.6v0c-6.37-6.13-6.56-16.26-.44-22.63 4.69-4.88 11.94-6.28 18.11-3.49v0c-8.13-43.53-50.01-72.22-93.53-64.09 -17.37 3.24-33.18 12.12-44.97 25.27v0c-5.91 6.57-16.02 7.12-22.595 1.22 -6.58-5.91-7.13-16.02-1.23-22.595v0c41.36-46.12 112.28-49.98 158.39-8.61 20.27 18.18 33.24 43.13 36.48 70.17v0c7.3-4.98 17.25-3.1 22.23 4.2 4.31 6.32 3.54 14.81-1.85 20.26Z"/></svg>