<svg viewBox="0 0 512 512" xmlns="http://www.w3.org/2000/svg"><g><path d="M512 128v256 -.001c-.04 35.33-28.67 63.96-64 64H64h0c-35.34-.04-63.97-28.67-64-64v-256 0c.03-35.34 28.66-63.97 64-64h384v0c35.33.03 63.96 28.66 64 64ZM32 384v0c0 17.67 14.32 32 32 32h384v0c17.67 0 32-14.33 32-32V128v0c0-17.68-14.33-32-32-32H64v0c-17.68 0-32 14.32-32 32Z"/><path d="M0 128v0c.03-35.34 28.66-63.97 64-64h384v0c35.33.03 63.96 28.66 64 64v256 -.001c-.04 35.33-28.67 63.96-64 64H64h0c-35.34-.04-63.97-28.67-64-64v-256m480 256v-256 0c0-17.68-14.33-32-32-32H64v0c-17.68 0-32 14.32-32 32v256 0c0 17.67 14.32 32 32 32h384v0c17.67 0 32-14.33 32-32m-16 0v0c0 8.83-7.17 16-16 16H64v0c-8.84 0-16-7.17-16-16v-256 0c0-8.84 7.16-16 16-16h384v0c8.83 0 16 7.16 16 16v256Z"/></g></svg>