<svg viewBox="0 0 512 512" xmlns="http://www.w3.org/2000/svg"><g><path d="M107.56 250h0c-4.42-7.66-14.2-10.28-21.85-5.86L36 272.81v0c-9.41 5.38-16.2 14.38-18.8 24.91h0c-2.49 10.32-.85 21.2 4.55 30.35l4.36 7.54v0c11.05 19.11 35.49 25.65 54.62 14.62l49.67-28.63v0c7.65-4.42 10.28-14.2 5.87-21.86 -.01-.01-.01-.01-.01-.01Z"/><path d="M382.84 440.8L288.72 254l0-.001c-.48-.95-.13-2.11.79-2.63l8.3-4.79v0c7.65-4.42 10.27-14.21 5.86-21.86 -.01-.01-.01-.01-.01-.01l-47.53-82.33v0c-4.42-7.66-14.2-10.29-21.86-5.88 -.01 0-.01 0-.01 0l-86.38 49.8v-.001c-9.22 5.27-15.93 14.02-18.65 24.28v0c-.92 3.17-1.38 6.45-1.37 9.76 .06 7.6 9.2 22.7 18.12 38.28 9.59 16.75 19.24 33.88 26.34 38.15 4.52 2.72 12.5 4.9 19.21 4.9h.84l-79.32 171.6v0c-3.72 8.01-.23 17.52 7.79 21.24 8.01 3.71 17.52.22 21.24-7.8 0-.02 0-.03.01-.04l93.68-202.65v0c.68-1.5 1.82-2.75 3.26-3.57l19.21-11.08v0c.95-.55 2.18-.22 2.72.74 .01.03.03.06.05.09l93.21 185v0c3.97 7.89 13.59 11.06 21.49 7.09 7.89-3.98 11.06-13.6 7.09-21.49Z"/><path d="M490.21 115.74L444.09 36v0C433 16.92 408.58 10.38 389.46 21.38l-93.34 53.78v0c-9.22 5.27-15.94 14.01-18.65 24.28v0c-1.33 4.28-1.76 8.79-1.27 13.25 1.74 12.62 13 30.4 26.41 53.89 13.58 23.73 28.91 50.48 36.93 56.27v-.001c6.77 4.79 14.87 7.36 23.18 7.37v0c6.99 0 13.86-1.84 19.92-5.34l93.36-53.81v0c9.38-5.38 16.16-14.35 18.79-24.84v0c2.49-10.38.85-21.31-4.58-30.49Z"/></g></svg>