<svg viewBox="0 0 512 512" xmlns="http://www.w3.org/2000/svg"><g><path d="M292.6 407.78l-120-320v-.001c-4.27-11.38-16.95-17.15-28.33-12.88 -5.96 2.23-10.65 6.92-12.88 12.87l-120 320h0c-4.16 11.41 1.72 24.04 13.14 28.2 11.26 4.1 23.74-1.58 28.05-12.77l36.16-96.42v0c.29-.79 1.03-1.3 1.87-1.3h122.74v0c.83 0 1.57.51 1.87 1.3l36.16 96.42v0c4.36 11.33 17.1 16.98 28.43 12.61 11.18-4.32 16.86-16.8 12.76-28.06Zm-185.84-129l43.37-115.65v0c.39-1.04 1.54-1.56 2.57-1.17 .53.2.95.62 1.16 1.16l43.37 115.67v0c.38 1.03-.14 2.18-1.18 2.57 -.23.08-.46.12-.7.12h-86.74v0c-1.11-.01-2-.9-2-2.01 0-.24.04-.48.12-.7Z"/><path d="M400.77 169.5c-41.72-.3-79.08 23.87-95 61.4v0c-4.75 11.18.46 24.1 11.65 28.85 11.18 4.74 24.1-.47 28.85-11.65 8.88-20.89 29.77-34.44 53.32-34.6 32.32-.22 58.41 26.5 58.41 58.85v0 -.001c0 .8-.65 1.47-1.45 1.5 -21.92.61-47.92 2.07-71.12 4.8 -54.75 6.44-87.43 36.29-87.43 79.85 0 23.19 8.76 44 24.67 58.68 14.93 13.75 35.33 21.32 57.33 21.32 31 0 57.69-8 77.94-23.22 0 0 .06 0 .06 0v0 0c-.06 12.15 9.75 22.04 21.9 22.09 12.15.05 22.04-9.76 22.09-21.91 0-.01 0-.01 0-.01v-143c0-56.18-45-102.56-101.23-102.97ZM380 394.5c-17.53 0-38-9.43-38-36 0-10.67 3.83-18.14 12.43-24.23 8.37-5.93 21.2-10.16 36.14-11.92 21.12-2.49 44.82-3.86 65.14-4.47v0c1.1-.01 2 .89 2 1.99 0 .03-.01.06-.01.1 -2.71 50.12-28.25 74.52-77.71 74.52Z"/></g></svg>