<svg viewBox="0 0 512 512" xmlns="http://www.w3.org/2000/svg"><path d="M56 320l156.05 12 -23 89.4c-6.08 26.6.7 41.87 22.39 48.62l34.69 9.85v0c1.68.44 3.46-.25 4.4-1.72l129-202.34v0c1.45-2.37 4.03-3.81 6.81-3.81H496V64H378.39v-.001c-5.16 0-10.29-.83-15.18-2.46l-76.3-25.43v0c-8.16-2.73-16.71-4.11-25.3-4.11H83.68c-19 0-31.5 13.52-35.23 32.16L16 206.41v73.58c0 22.06 18 38 40 40Z"/><g fill="none"><path d="M378.45 273.93v0c2.31-1.27 4.91-1.93 7.55-1.93v0h0c-2.63 0-5.21.66-7.51 1.91Z"/><path d="M337.86 343.22l-.13.22v0c.03-.08.08-.15.13-.22 20.5-35.51 30.36-55 33.82-62v0c-3.47 7.06-13.34 26.51-33.82 62Z"/></g><path d="M372.66 279.16l-1 2v0c1.44-3.07 3.81-5.61 6.77-7.26h-.001c-2.32 1.26-4.3 3.06-5.77 5.26Z"/></svg>