<svg viewBox="0 0 512 512" xmlns="http://www.w3.org/2000/svg"><path fill="none" stroke="#000" stroke-linecap="round" stroke-linejoin="round" stroke-width="32" d="M192 53.84s16-5.84 64-5.84 74 16 96 32h64v0c35.34 0 64 28.65 64 64v48 0c0 35.34-28.66 64-64 64h-30v-.001c-11.18.06-21.52 5.88-27.37 15.4 0 0-8.63 18.79-34.63 63.82s-76 112.78-84 128.78c-29 0-43-22-34-47.71 10.28-29.39 23.71-54.38 27.46-87.09 .54-4.78-3.14-12-8-12L96 306.99"/><g stroke-width="32" stroke-miterlimit="10" stroke="#000" fill="none"><path d="M96 241l80 2c20 1.84 32 12.4 32 30v0c0 17.6-14 28.84-32 30l-80 4c-17.6 0-32-16.4-32-34v-.17 0c.09-17.61 14.39-31.84 32-31.83Z"/><path d="M64 176l112 2c18 .84 32 12.41 32 30v0c0 17.61-14 28.86-32 30l-112 2v0c-17.66-.06-31.95-14.35-32-32v0 -.001c.05-17.66 14.34-31.95 32-32Z"/><path d="M112 48l64 3c21 1.84 32 11.4 32 29v0c0 17.6-14.4 30-32 30l-64 2h0c-17.66-.05-31.96-14.35-32-32v0 -.001c.04-17.66 14.34-31.96 32-32Z"/><path d="M80 112l96 2c19 .84 32 12.4 32 30v0c0 17.6-13 28.84-32 30l-96 2v0c-17.66-.05-31.96-14.35-32-32v0 0c.04-17.66 14.34-31.96 32-32Z"/></g></svg>