<svg viewBox="0 0 512 512" xmlns="http://www.w3.org/2000/svg"><g><path d="M96 416v-.001c-8.84-.01-16-7.18-16-16.01 0-2.49.58-4.94 1.69-7.16l24-48h0c3.95-7.91 13.56-11.11 21.47-7.15 7.9 3.95 11.1 13.56 7.15 21.47l-24 48h-.001c-2.72 5.42-8.26 8.84-14.32 8.84Z"/><path d="M120 480v-.001c-8.84-.01-16-7.18-16-16.01 0-2.49.58-4.94 1.69-7.16l16-32v0c3.95-7.91 13.56-11.11 21.47-7.15 7.9 3.95 11.1 13.56 7.15 21.47l-16 32v0c-2.72 5.42-8.26 8.84-14.32 8.84Z"/><path d="M376 416v-.001c-8.84-.01-16-7.18-16-16.01 0-2.49.58-4.94 1.69-7.16l24-48v0c3.95-7.91 13.56-11.11 21.47-7.15 7.9 3.95 11.1 13.56 7.15 21.47l-24 48v0c-2.72 5.42-8.26 8.84-14.32 8.84Z"/><path d="M400 480v-.001c-8.84-.01-16-7.18-16-16.01 0-2.49.58-4.94 1.69-7.16l16-32v0c3.95-7.91 13.56-11.11 21.47-7.15 7.9 3.95 11.1 13.56 7.15 21.47l-16 32v0c-2.72 5.42-8.26 8.84-14.32 8.84Z"/><path d="M405.84 136.9v0c-6.69-31.7-23.38-60.41-47.6-81.9v-.001C295.26-1.35 198.53 4.03 142.19 67.009c-10.61 11.85-19.31 25.3-25.77 39.84 -55.93 3.3-100.43 49.79-100.43 106.47 0 58.82 47.91 106.67 106.8 106.67h66.31l-12.89 77.37v0c-1.46 8.71 4.43 16.95 13.15 18.41 .86.14 1.74.21 2.62.21h32v64 0c.01 8.83 7.19 15.98 16.02 15.97 5.14-.01 9.97-2.5 12.97-6.68l80-112h-.001c5.13-7.2 3.47-17.19-3.72-22.32 -2.71-1.94-5.96-2.98-9.29-2.99h-27.51l8-32h103.84v0c50.56-.21 91.39-41.37 91.19-91.93 -.2-49.7-40-90.16-89.69-91.18Z"/></g></svg>