<svg viewBox="0 0 512 512" xmlns="http://www.w3.org/2000/svg"><g><path d="M405.84 136.9v0c-6.69-31.7-23.38-60.41-47.6-81.9v-.001C295.26-1.35 198.53 4.03 142.19 67.009c-10.61 11.85-19.31 25.3-25.77 39.84 -55.93 3.3-100.43 49.79-100.43 106.47 0 58.82 47.91 106.67 106.8 106.67h72.31l-19.11 96h48v80l112-144h-43.51l8-32h103.84v0c50.56-.21 91.39-41.37 91.19-91.93 -.2-49.7-40-90.16-89.69-91.18Z"/><path d="M65.17 360h85.67v32H65.17Z" transform="rotate(-63.43 108.021 376.016)"/><path d="M94.11 432h67.78v32H94.11Z" transform="rotate(-63.43 128.023 448.026)"/><path d="M345.17 360h85.67v32h-85.67Z" transform="rotate(-63.43 388.036 376.012)"/><path d="M374.11 432h67.78v32h-67.78Z" transform="rotate(-63.43 408.042 448.014)"/></g></svg>