<svg viewBox="0 0 512 512" xmlns="http://www.w3.org/2000/svg"><g stroke-width="32" stroke-miterlimit="10" stroke="#000" fill="none"><path d="M366.05 146v0c-17.26-17.27-18.31-44.9-2.42-63.42v0c1.31-1.55 1.21-3.84-.22-5.26l-44.13-44.18v0c-1.52-1.52-3.99-1.52-5.5 0l-70.34 70.34 0 0c-2.6 2.59-4.56 5.75-5.71 9.24v0 0c-2.35 7.07-7.89 12.63-14.95 15v0 0c-3.49 1.16-6.66 3.11-9.25 5.71L33.14 313.78h0c-1.52 1.51-1.52 3.98 0 5.5l44.13 44.13v0c1.42 1.43 3.71 1.53 5.26.22v0c19.56-16.81 49.03-14.57 65.84 5 15.02 17.49 15.02 43.34-.001 60.83v0c-1.32 1.54-1.22 3.83.22 5.26l44.13 44.13h0c1.51 1.51 3.98 1.51 5.5 0l180.4-180.39v0c2.59-2.6 4.54-5.77 5.71-9.25v0 0c2.34-7.08 7.88-12.64 14.95-15v0l0-.001c3.48-1.16 6.64-3.12 9.24-5.71l70.34-70.34v-.001c1.51-1.52 1.51-3.99 0-5.5l-44.13-44.13v0c-1.43-1.44-3.72-1.54-5.26-.22v0c-18.5 15.91-46.14 14.9-63.42-2.32Z"/><g stroke-linecap="round" stroke="#000" stroke-miterlimit="10" stroke-width="32" fill="none"><path d="M250.5 140.44l-16.51-16.51"/><path d="M294.52 184.46l-11.01-11"/><path d="M338.54 228.49l-11-11.01"/><path d="M388.07 278.01l-16.51-16.51"/></g></g></svg>