<svg viewBox="0 0 512 512" xmlns="http://www.w3.org/2000/svg"><path d="M490.18 181.4l-44.13-44.13v0c-7.39-7.29-19.11-7.72-27-1v-.001c-12.2 10.38-30.32 9.68-41.68-1.6v0 -.001c-11.29-11.37-11.98-29.48-1.6-41.67v0c6.71-7.9 6.28-19.62-1-27L330.6 21.81v-.001c-7.78-7.76-20.36-7.76-28.13 0l-70.35 70.34v0c-4.35 4.35-7.62 9.66-9.57 15.5l-.001-.001c-.78 2.27-2.56 4.05-4.83 4.83v0c-5.84 1.95-11.15 5.23-15.5 9.58l-180.4 180.4h0c-7.76 7.77-7.76 20.35-.001 28.13l44.18 44.13h0c7.38 7.28 19.1 7.71 27 1v0c12.85-11.06 32.22-9.6 43.28 3.25 9.89 11.5 9.89 28.51 0 40.02h-.001c-6.72 7.89-6.29 19.61 1 27l44.13 44.13h-.001c7.77 7.75 20.35 7.75 28.13 0l180.4-180.4v0c4.34-4.36 7.62-9.66 9.58-15.49h0c.76-2.29 2.55-4.08 4.84-4.84h0c5.83-1.96 11.13-5.23 15.49-9.57l70.34-70.35h0c7.72-7.78 7.72-20.33-.01-28.09Zm-228.37-29.65v0c-6.25 6.24-16.38 6.25-22.63 0 -.01-.01-.01-.01-.01-.01l-11.51-11.51v0c-6.16-6.35-6.01-16.47.33-22.63 6.2-6.03 16.08-6.03 22.29 0l11.51 11.5v0c6.24 6.24 6.25 16.37 0 22.62 -.01 0-.01 0-.01 0Zm44 44v0c-6.25 6.24-16.38 6.24-22.62 0l-11-11v0c-6.25-6.25-6.25-16.39-.01-22.63 6.24-6.25 16.38-6.25 22.63-.01 0 0 0 0 0 0l11 11v0c6.26 6.23 6.27 16.36.04 22.62 -.02.01-.03.02-.04.03Zm44 44v0c-6.25 6.24-16.38 6.25-22.63 0 -.01-.01-.01-.01-.01-.01l-11-11v0c-6.16-6.35-6.01-16.47.33-22.63 6.2-6.03 16.08-6.03 22.29 0l11 11v0c6.27 6.22 6.31 16.35.09 22.62 -.02.01-.03.02-.05.04Zm44.43 44.54v0c-6.25 6.24-16.38 6.25-22.63 0 -.01-.01-.01-.01-.01-.01l-11.44-11.5v0c-6.33-6.18-6.45-16.31-.28-22.63 6.17-6.33 16.3-6.45 22.62-.28 .11.1.21.21.32.32l11.45 11.49v0c6.24 6.25 6.24 16.38-.01 22.62 -.01 0-.01 0-.01 0Z"/></svg>