<svg viewBox="0 0 512 512" xmlns="http://www.w3.org/2000/svg"><path fill="none" stroke="#000" stroke-linecap="round" stroke-linejoin="round" stroke-width="32" d="M112.91 128l0-.001c-31.05 34.67-48.44 79.45-48.91 126 -1.18 106.35 85.65 193.8 192 194 106.2.2 192-85.83 192-192 0-104.54-83.55-189.61-187.5-192v-.001c-2.41-.08-4.43 1.81-4.5 4.21 -.01.05-.01.1-.01.15v83.63"/><path d="M233.38 278.63l-79-113v0c-2.58-3.69-1.67-8.75 2.01-11.32 2.79-1.96 6.51-1.96 9.3 0l113 79v0c14.56 10.48 17.86 30.8 7.37 45.36 -10.29 14.28-30.07 17.77-44.63 7.89h-.001c-3.13-2.17-5.86-4.86-8.07-7.94Z"/></svg>