<svg viewBox="0 0 512 512" xmlns="http://www.w3.org/2000/svg"><g><path d="M416 64h-16V48.45c0-8.61-6.62-16-15.23-16.43v0c-8.83-.43-16.33 6.38-16.76 15.21 -.02.25-.02.51-.02.76v16h-224V48.44c0-8.61-6.62-16-15.23-16.43v0c-8.83-.43-16.33 6.38-16.76 15.21 -.02.25-.02.51-.02.76v16h-16v0c-35.35 0-64 28.65-64 64v12 0c0 2.2 1.79 4 4 4h440v0c2.2 0 4-1.8 4-4v-12 0c0-35.35-28.66-64-64-64Z"/><path d="M477 176H35v0c-1.66 0-3 1.34-3 3v237 0c0 35.34 28.65 64 64 64h320v0c35.34 0 64-28.66 64-64V179v0c0-1.66-1.35-3-3-3ZM224 307.43v0c0 15.77-12.8 28.57-28.57 28.57h-70.86v0C108.79 336 96 323.2 96 307.43v-70.86 0c0-15.78 12.79-28.57 28.57-28.57h70.86v0c15.77 0 28.57 12.79 28.57 28.57Z"/></g></svg>