<svg viewBox="0 0 512 512" xmlns="http://www.w3.org/2000/svg"><g><path d="M256 272.06a32.05 31.94 0 1 0 0 63.88 32.05 31.94 0 1 0 0-63.88Z" transform="rotate(-45 256.001 304.001)"/><path d="M352 32h-15v0c-3.07.01-5.97-1.39-7.87-3.78v-.001c-6.06-7.72-15.33-12.23-25.13-12.22h-96v0c-10.39 0-20.12 5.04-26.11 13.52v-.001c-1.14 1.56-2.96 2.48-4.89 2.48h-17c-36.81 0-64 28.84-64 64v255c0 23.27 25.6 42.06 83 60.94l0-.001c24.24 7.82 48.86 14.4 73.77 19.73v0c2.13.43 4.32.43 6.46 0v-.001c24.9-5.33 49.52-11.91 73.77-19.73 57.4-18.88 83-37.67 83-60.94v-255 0c0-35.35-28.66-64-64-64Zm-168 96h144v0c4.41 0 8 3.58 8 8v48 0c0 4.41-3.59 8-8 8H184v0c-4.42 0-8-3.59-8-8v-48 0c0-4.42 3.58-8 8-8Zm76.18 239.87v0c-35.28 2.3-65.74-24.42-68.04-59.69 -2.31-35.28 24.41-65.74 59.69-68.04 35.27-2.31 65.73 24.41 68.03 59.69 .18 2.77.18 5.56 0 8.34v0c-2.13 32.04-27.65 57.56-59.69 59.69Z"/><path d="M395.31 468.69L347.63 421c-6.09-6.1-16-6.66-22.38-.86v0c-6.55 5.93-7.04 16.05-1.1 22.6 .17.19.35.37.53.55l4.68 4.69H182.62l4.36-4.37c6.1-6.09 6.66-16 .86-22.38h-.001c-5.94-6.55-16.06-7.04-22.61-1.1 -.2.17-.38.35-.56.53l-48 48h-.001c-6.41 6.08-6.67 16.21-.58 22.62 6.08 6.4 16.21 6.66 22.62.57 .19-.19.39-.39.57-.58l11.32-11.3h210.74l11.32 11.31v0c6.4 6.08 16.53 5.82 22.62-.58 5.86-6.18 5.86-15.87 0-22.05Z"/></g></svg>