<svg viewBox="0 0 512 512" xmlns="http://www.w3.org/2000/svg"><g><path d="M384 32h-64v0c0-8.84-7.17-16-16-16h-96v0c-8.84 0-16 7.16-16 16h-64c-16 0-32 16-32 32v288c0 23.92 160 80 160 80s160-56.74 160-80V64c0-16-16-32-32-32ZM256 352v0c-26.51 0-48-21.5-48-48 0-26.51 21.49-48 48-48 26.5 0 48 21.49 48 48v0c0 26.5-21.5 48-48 48Zm112-152v0c0 4.41-3.59 8-8 8H152v0c-4.42 0-8-3.59-8-8v-80 0c0-4.42 3.58-8 8-8h208v0c4.41 0 8 3.58 8 8Z"/><path d="M314 432l15.32 16 -146.74 0L198 432l-32-13 -76.62 77 45.2 0 16-16 210.74 0 16 16 45.3 0 -76.36-77.75L314 432Z"/></g></svg>