<svg viewBox="0 0 512 512" xmlns="http://www.w3.org/2000/svg"><g><rect width="448" height="80" x="32" rx="32" y="48"/><path d="M74.45 160v0c-4.42-.03-8.02 3.53-8.05 7.95 -.01.29.01.58.04.87l26.31 252.56 0-.001c-.01.07-.01.14-.001.22h0c2.84 24.17 23.34 42.39 47.69 42.39h231.09v0c24.33-.01 44.82-18.22 47.67-42.39v-.21l26.27-252.57v0c.45-4.4-2.74-8.33-7.13-8.79 -.3-.04-.59-.05-.88-.05Zm248.86 180.69v0c6.33 6.15 6.48 16.28.32 22.62 -6.16 6.33-16.29 6.48-22.63.32 -.12-.11-.23-.22-.34-.34l-44.68-44.68 -44.69 44.68v0c-6.34 6.15-16.47 6.01-22.63-.33 -6.04-6.21-6.04-16.09-.01-22.3l44.69-44.69 -44.69-44.69v0c-6.16-6.35-6.01-16.47.33-22.63 6.2-6.03 16.08-6.03 22.29 0l44.69 44.68 44.68-44.68v0c6.33-6.16 16.46-6.02 22.62.32 6.03 6.2 6.03 16.08 0 22.29l-44.69 44.69Z"/></g></svg>