<svg viewBox="0 0 512 512" xmlns="http://www.w3.org/2000/svg"><g stroke-linecap="round" stroke-width="32" stroke="#000" fill="none" stroke-linejoin="round"><path d="M256 272v160 0c0 17.67-14.33 32-32 32v0 0c-17.68 0-32-14.33-32-32"/><path d="M464 272c0-114.88-93.12-208-208-208C141.12 64 48 157.12 48 272v0h-.001c26.5-26.51 69.48-26.52 95.99-.01 0 0 0 0 0 0v0h-.001c27.54-27.54 71.14-30.64 102.31-7.27l9.69 7.27 9.69-7.27v0c31.16-23.37 74.76-20.27 102.31 7.27v0 0c26.5-26.51 69.48-26.52 95.99-.01 0 0 0 0 0 0Z"/><path d="M256 64l0-16"/></g></svg>