<svg viewBox="0 0 512 512" xmlns="http://www.w3.org/2000/svg"><g><path d="M336 179.52v0c0-37.3-30.23-67.52-67.52-67.52h-79.2v0c-2.21 0-4 1.79-4 4 0 1.05.42 2.07 1.17 2.82l142.71 142.71v0c1.56 1.56 4.09 1.56 5.65 0 .74-.75 1.17-1.77 1.17-2.83Z"/><path d="M16 180v152 0c0 37.55 30.44 68 68 68h184v0c15.61.01 30.74-5.38 42.84-15.24v-.001c1.73-1.37 2.03-3.88.67-5.62 -.11-.14-.23-.27-.35-.39L54.4 121.98v-.001c-1.3-1.3-3.3-1.56-4.87-.62h0c-20.78 12.21-33.54 34.51-33.54 58.62Z"/><path d="M464 384.39v0c-4.48-.01-8.91-.95-13-2.77v0c-.96-.43-1.86-.94-2.71-1.54l-82.71-58.22v0 0c-8.52-6-13.58-15.76-13.58-26.16v-79.4 0c0-10.41 5.06-20.17 13.58-26.16l82.71-58.22v0c.85-.61 1.75-1.12 2.71-1.54v0c16.14-7.18 35.06.09 42.24 16.24 1.81 4.09 2.75 8.52 2.75 12.99v192.76 0c0 17.67-14.33 32-32 32Z"/></g><path fill="none" stroke="#000" stroke-linecap="round" stroke-miterlimit="10" stroke-width="32" d="M416 416L80 80"/></svg>