<svg viewBox="0 0 512 512" xmlns="http://www.w3.org/2000/svg"><g><path d="M464 384.39v0c-4.48-.01-8.91-.95-13-2.77v0c-.96-.43-1.86-.94-2.71-1.54l-82.71-58.22v0 0c-8.52-6-13.58-15.76-13.58-26.16v-79.4 0c0-10.41 5.06-20.17 13.58-26.16l82.71-58.22v0c.85-.61 1.75-1.12 2.71-1.54v0c16.14-7.18 35.06.09 42.24 16.24 1.81 4.09 2.75 8.52 2.75 12.99v192.76 0c0 17.67-14.33 32-32 32Z"/><path d="M268 400H84v0c-37.54-.04-67.97-30.47-68-68V180v0c.03-37.54 30.46-67.97 68-68h184.48v-.001c37.27.04 67.47 30.24 67.52 67.52v152.48 0c-.04 37.53-30.47 67.96-68 68Z"/></g></svg>