<svg viewBox="0 0 512 512" xmlns="http://www.w3.org/2000/svg"><g><path d="M264 416.19v0c-5.12-.01-10.1-1.65-14.21-4.69l-.66-.51 -91.46-75H88v0c-13.26 0-24-10.75-24-24V200v0c0-13.26 10.74-24 24-24h69.65l91.46-75 .66-.51 0-.001c10.67-7.86 25.69-5.58 33.55 5.09 3.03 4.12 4.67 9.11 4.67 14.24v272.34 0c0 13.25-10.75 24-24 24Z"/><path d="M352 336v0c-8.84-.01-16-7.18-16-16.01 0-2.5.58-4.95 1.7-7.18 9.49-18.9 14.3-38 14.3-56.82 0-19.36-4.66-37.92-14.25-56.73v0c-3.88-7.95-.58-17.53 7.37-21.4 7.73-3.78 17.07-.75 21.12 6.85 11.94 23.43 17.74 46.74 17.74 71.27 0 23.83-6 47.78-17.7 71.18v0c-2.72 5.4-8.25 8.82-14.3 8.82Z"/><path d="M400 384v0c-8.84 0-16.01-7.15-16.02-15.99 -.01-2.82.73-5.58 2.14-8.02 18.87-32.95 29.87-60.55 29.87-104 0-44.12-10.94-71.52-29.83-103.95v0c-4.16-7.8-1.21-17.49 6.59-21.65 7.4-3.95 16.6-1.51 21.06 5.59 21.09 36.16 34.17 68.88 34.17 120 0 50.36-13.06 83.24-34.12 120v0c-2.87 4.95-8.16 8-13.88 8Z"/></g></svg>