<svg viewBox="0 0 512 512" xmlns="http://www.w3.org/2000/svg"><path fill="none" stroke="#000" stroke-linecap="square" stroke-miterlimit="10" stroke-width="32" d="M416 432L64 80"/><g><path d="M352 256c0-24.56-5.81-47.88-17.75-71.27L327 170.47 298.48 185l7.27 14.25C315.34 218.06 320 236.62 320 256v0c-.01 3.92-.22 7.84-.63 11.74l27.32 27.32h0c3.49-12.73 5.28-25.87 5.31-39.06Z"/><path d="M416 256c0-51.19-13.08-83.89-34.18-120.06l-8.06-13.82 -27.64 16.12 8.06 13.82C373.07 184.44 384 211.83 384 256c0 25.93-3.89 46.21-11 65.33l24.5 24.51C409.19 319.68 416 292.42 416 256Z"/><path d="M480 256c0-74.26-20.19-121.11-50.51-168.61l-8.61-13.49 -27 17.22 8.61 13.49C429.82 147.38 448 189.5 448 256c0 48.76-9.4 84-24.82 115.55l23.7 23.7C470.16 351.39 480 309 480 256Z"/><path d="M256 72l-73.6 58.78 73.6 73.59L256 72Z"/><path d="M32 176.1l0 159.8 93.65 0L256 440l0-100.37L92.47 176.1l-60.47 0Z"/></g></svg>