<svg viewBox="0 0 512 512" xmlns="http://www.w3.org/2000/svg"><path fill="none" stroke="#000" stroke-linecap="round" stroke-miterlimit="10" stroke-width="32" d="M416 432L64 80"/><g><path d="M224 136.92v33.8 0c0 1.05.42 2.07 1.17 2.82l24 24v0c1.56 1.56 4.09 1.56 5.65 0 .74-.75 1.17-1.77 1.17-2.83v-74.15h-.001c.09-9.02-4.78-17.36-12.67-21.72v0c-8.16-4.39-18.11-3.68-25.55 1.83v0c-.23.15-.45.32-.66.51l-31.94 26.15v-.001c-1.71 1.4-1.96 3.92-.56 5.62 .08.1.17.19.26.29l17.05 17.06v0c1.45 1.45 3.77 1.56 5.37.26Z"/><path d="M224 375.08l-78.07-63.92v0c-5.74-4.66-12.9-7.19-20.28-7.16H64v-96h50.72v-.001c2.2-.01 3.99-1.8 3.99-4.01 -.01-1.06-.43-2.08-1.18-2.83l-24-24v0c-.75-.75-1.77-1.17-2.82-1.17H55.99v0c-13.26 0-24 10.74-24 24v112 0c0 13.25 10.74 24 24 24h69.76l91.36 74.8v0c.21.18.43.35.66.51v0c7.54 5.58 17.64 6.24 25.85 1.69l0 0c7.73-4.41 12.46-12.66 12.37-21.55v-50.17 0c-.01-1.06-.43-2.08-1.17-2.82l-24-24v0c-1.57-1.57-4.1-1.57-5.66-.01 -.75.74-1.18 1.76-1.18 2.82ZM125.82 336Z"/><path d="M352 256c0-24.56-5.81-47.88-17.75-71.27v0c-4.16-7.8-13.85-10.75-21.65-6.59 -7.6 4.05-10.63 13.38-6.86 21.12 9.59 18.79 14.25 37.35 14.25 56.73q0 4-.31 8.13v0c-.18 2.32.67 4.6 2.32 6.25l19.66 19.67v0c1.55 1.56 4.09 1.57 5.65.01 .55-.56.93-1.26 1.09-2.02h0c2.36-10.52 3.56-21.27 3.58-32.05Z"/><path d="M416 256c0-51.19-13.08-83.89-34.18-120.06v0c-4.56-7.58-14.39-10.03-21.96-5.48 -7.44 4.46-9.96 14.04-5.69 21.59 18.89 32.38 29.82 59.77 29.82 103.94 0 23.83-3.29 42.88-9.37 60.65v0c-1 2.89-.26 6.09 1.9 8.26l16.77 16.76v0c1.55 1.56 4.09 1.56 5.65.01 .36-.37.66-.81.86-1.29 10.27-24.52 16.18-50.49 16.18-84.4Z"/><path d="M480 256c0-74.26-20.19-121.11-50.51-168.61v0c-4.76-7.46-14.66-9.65-22.11-4.89 -7.46 4.75-9.65 14.65-4.89 22.11C429.82 147.38 448 189.5 448 256c0 47.45-8.9 82.12-23.59 113v0c-.74 1.52-.43 3.34.77 4.55L443 391.39v0c1.55 1.56 4.08 1.57 5.65.01 .3-.3.55-.65.74-1.02 21.48-42.17 30.6-83.39 30.6-134.39Z"/></g></svg>