<svg viewBox="0 0 512 512" xmlns="http://www.w3.org/2000/svg"><g stroke-linecap="round" stroke-width="32" stroke="#000" fill="none" stroke-linejoin="round"><path d="M189.65 192H120v0c-4.42 0-8 3.58-8 8v112 0c0 4.41 3.58 8 8 8h69.65v0c3.69 0 7.28 1.28 10.14 3.63l91.47 75v0c3.55 2.61 8.56 1.85 11.18-1.71 1.01-1.38 1.55-3.05 1.55-4.76V119.82v0c-.01-4.42-3.59-8-8.01-8 -1.71 0-3.37.54-4.74 1.55l-91.47 75v0c-2.87 2.33-6.45 3.61-10.14 3.61Z"/><path d="M384 320c9.74-19.41 16-40.81 16-64 0-23.51-6-44.4-16-64"/></g></svg>