<svg viewBox="0 0 512 512" xmlns="http://www.w3.org/2000/svg"><g stroke-linecap="square" stroke-width="32" stroke="#000" stroke-linejoin="round"><path d="M315.09 481.38l-56.95-115.12 -45-57.56v0c-6.65-11.26-10.16-24.1-10.16-37.17V142h15.73 0c22.24.03 40.26 18.07 40.29 40.32v162.52"/><path fill="none" d="M128.18 291.5l0-74.77 64.95-65.1"/></g><g><path d="M376.35 295.73l-83.95-56.38 0-44.68 104.68 72.95 -20.73 28.11Z"/><path d="M175.13 498.58l-21.43-26.91 80.33-81.54 15.53 32.07 -74.43 76.38Z"/><path stroke="#000" stroke-linecap="square" stroke-linejoin="round" stroke-width="16" d="M259.02 29.83a37.38 37.38 0 1 0 0 74.76 37.38 37.38 0 1 0 0-74.76Z"/></g></svg>