<svg viewBox="0 0 512 512" xmlns="http://www.w3.org/2000/svg"><g><path d="M95.5 104h320v-.001c3.73-.01 7.47.23 11.18.71v-.001c-5.15-36.09-38.57-61.18-74.65-56.04 -.96.13-1.92.29-2.87.47L85.99 94.06h-.3v0c-16.52 3.15-31.21 12.5-41.07 26.13h0c14.85-10.57 32.63-16.24 50.87-16.21Z"/><path d="M415.5 128h-320 0c-35.34.03-63.97 28.66-64 64v192 -.001c.03 35.33 28.66 63.96 64 64h320v0c35.33-.04 63.96-28.67 64-64v-192 0c-.04-35.34-28.67-63.97-64-64ZM368 320v0c-17.68 0-32-14.33-32-32 0-17.68 14.32-32 32-32 17.67 0 32 14.32 32 32v0c0 17.67-14.33 32-32 32Z"/><path d="M32 259.5V160c0-21.67 12-58 53.65-65.87C121 87.5 156 87.5 156 87.5s23 16 4 16 -18.5 24.5 0 24.5 0 23.5 0 23.5L85.5 236Z"/></g></svg>