<svg viewBox="0 0 512 512" xmlns="http://www.w3.org/2000/svg"><path d="M449.07 399.08L278.64 82.58c-12.08-22.44-44.26-22.44-56.35 0L51.87 399.08h-.001c-8.38 15.56-2.56 34.96 13 43.34 4.64 2.5 9.84 3.81 15.12 3.82h340.89v0c17.67 0 32-14.33 32-32 0-5.3-1.32-10.52-3.83-15.18Zm-198.6-1.83v0c-11.05 0-20-8.96-20-20 0-11.05 8.95-20 20-20 11.04 0 20 8.95 20 20v0c0 11.04-8.96 20-20 20Zm21.72-201.15l-5.74 122v0c0 8.83-7.17 16-16 16 -8.84 0-16-7.17-16-16l-5.74-121.95v0 0c-.54-11.99 8.75-22.14 20.74-22.67 .25-.02.5-.02.75-.03h.21v0c12-.01 21.74 9.72 21.75 21.72 0 .32-.01.64-.03.97Z"/></svg>