<svg viewBox="0 0 512 512" xmlns="http://www.w3.org/2000/svg"><g><rect width="240" height="240" x="136" rx="56" y="136"/><path d="M336 96V32v0c0-8.84-7.17-16-16-16H192v0c-8.84 0-16 7.16-16 16v64 -.001c-44.17.04-79.96 35.83-80 80v160 0c.04 44.16 35.83 79.95 80 80v64 0c0 8.83 7.16 16 16 16h128v0c8.83 0 16-7.17 16-16v-64 0c44.16-.05 79.95-35.84 80-80v-160 0c-.05-44.17-35.84-79.96-80-80Zm56 224v-.001c-.05 39.74-32.26 71.95-72 72H192v0c-39.75-.05-71.96-32.26-72-72v-128 0c.04-39.75 32.25-71.96 72-72h128v0c39.74.04 71.95 32.25 72 72Z"/></g></svg>