<svg viewBox="0 0 20 20" xmlns="http://www.w3.org/2000/svg"><path fill="none" d="M0 0h20v20H0Z"/><g fill-rule="evenodd"><path d="M13 11.04a.84.84 0 1 0 0 1.68 .84.84 0 1 0 0-1.68Z"/><path d="M13 13.38c-.55 0-1.64.27-1.68.81 .38.53.99.87 1.68.87s1.31-.35 1.68-.87c-.04-.55-1.13-.81-1.68-.81Z"/><path d="M14 9.14V6.18L9 4 4 6.18v3.27c0 3.03 2.13 5.86 5 6.55 .35-.08.7-.2 1.02-.35 .74.82 1.79 1.35 2.98 1.35 2.21 0 4-1.79 4-4 0-1.86-1.28-3.41-3-3.86Zm-5 5.83c-2.3-.67-4-3-4-5.51V6.84l4-1.75 4 1.75V9c-2.21 0-4 1.79-4 4 0 .65.17 1.25.44 1.79 -.15.06-.29.13-.44.18ZM13 16c-1.66 0-3-1.34-3-3s1.34-3 3-3 3 1.34 3 3 -1.34 3-3 3Z"/></g></svg>