<svg viewBox="0 0 512 512" xmlns="http://www.w3.org/2000/svg"><rect width="512" height="512" rx="76.8" fill="#FFF"/><path d="M256 64v0C149.96 64 64 149.97 64.01 256.01c0 106.03 85.97 191.99 192.01 191.98 13.09-.01 26.15-1.35 38.97-4l152-212c-12-95-93-168-191-168Zm8 74c76 0 113 37 113 71l-93 134c-12 19-40 33-68 33 -48 0-79-23-79-58 0-64 106-68 145-68v-42c0-8 0-24-19-24 -17 0-18 11-18 14l2 14c0 14-18 24-45 24 -29 0-47-15-47-39 0-30 39-59 109-59Zm-28 169c0 13 8 20 21 20s23-10 23-22l1-31c-30 0-45 15-45 33Z"/></svg>