<svg viewBox="0 0 512 512" xmlns="http://www.w3.org/2000/svg" xmlns:xlink="http://www.w3.org/1999/xlink"><defs><path d="M256 64v97l58 14V93Zm133 67v250l26-13V143Zm-133 77v97l58-8v-82Zm58 129l-58 14v97l58-29Z" id="a"/></defs><rect width="512" height="512" rx="76.8" fill="#FFF"/><path fill="#E05243" d="M260 348l-137 33V131l137 32Z"/><path fill="#8C3123" d="M256 349l133 32V131l-133 32v186"/><use fill="#E05243" xlink:href="#a"/><use fill="#8C3123" transform="rotate(180 256 256)" xlink:href="#a"/><path fill="#5E1F18" d="M314 175l-58 11 -58-11 58-15 58 15"/><path fill="#F2B0A9" d="M314 337l-58-11 -58 11 58 16 58-16"/></svg>