<svg viewBox="0 0 512 512" xmlns="http://www.w3.org/2000/svg" xmlns:xlink="http://www.w3.org/1999/xlink"><defs><path d="M118 118h124v124H118Z" id="a"/><path d="M270 118h124v124H270Z" id="b"/><path d="M118 270h124v124H118Z" id="d"/><path d="M270 270h124v124H270Z" id="c"/></defs><rect width="512" height="512" rx="76.8" fill="#FFF"/><use fill="#9CCD2A" xlink:href="#a"/><use fill="#932279" xlink:href="#b"/><use fill="#EFA724" xlink:href="#c"/><use fill="#262577" xlink:href="#d"/><g transform="rotate(-135 256 256)"><use fill="#9CCD2A" xlink:href="#a"/><use fill="#932279" xlink:href="#b"/><use fill="#EFA724" xlink:href="#c"/><use fill="#262577" xlink:href="#d"/></g><path fill="none" stroke="#FFF" stroke-width="9" d="M236 256l-87 88 -88-88 88-88Zm6-14H118V118h124Zm0 28v124H118V270Zm14-34l-88-87 88-88 88 88Zm0 40l-88 87 88 88 88-88Zm14-34V118h124v124Zm0 28h124v124H270Zm6-14l87 88 88-88 -88-88Z"/></svg>