<svg viewBox="0 0 512 512" xmlns="http://www.w3.org/2000/svg"><path fill="#FC4" d="M256 140h228v0c64.04 126.04 13.79 280.14-112.26 344.19 -39.49 20.06-83.51 29.54-127.75 27.5"/><path fill="#0F9D58" d="M357 314L244 511.7h-.001C102.75 505.27-6.54 385.56-.11 244.32c2.04-44.9 15.87-88.47 40.09-126.33"/><path fill="#DB4437" d="M256 140h228v-.001C420.01 13.91 265.94-36.43 139.86 27.55c-40.77 20.68-75.25 51.91-99.87 90.43l115 196"/><path fill="#4285F4" stroke="#F1F1F1" stroke-width="24" d="M256 151a105 105 0 1 0 0 210 105 105 0 1 0 0-210Z"/></svg>