<svg viewBox="0 0 512 512" xmlns="http://www.w3.org/2000/svg"><rect width="512" height="512" rx="76.8" fill="#FFF"/><path fill="#466ACD" d="M48 107l0-.001c82.42-114.88 242.36-141.19 357.23-58.77 66.95 48.03 106.68 125.36 106.76 207.76 0 135-142 116-142 116v0c63.38-63.93 62.95-167.13-.97-230.52 -46.89-46.5-117.19-60.12-178.04-34.49 -79-45-143 0-143 0"/><path fill="#53A526" d="M465 404v0c-82.43 114.87-242.37 141.18-357.24 58.76C40.8 414.72 1.07 337.39.99 254.99c0-135 142-116 142-116h0c-63.39 63.92-62.96 167.12.96 230.51 46.88 46.49 117.18 60.11 178.03 34.48 79 45 143 0 143 0"/><path fill="#71AEFD" d="M213 128v0c70.53-24.16 147.3 13.44 171.45 83.98 19.21 56.11-.45 118.19-48.46 153.01 -37 3-68-108-73-125s-19-79-50-112"/><path fill="#81D837" d="M176 365v0c-60.36-43.78-73.81-128.19-30.04-188.55 8.84-12.21 19.67-22.84 32.03-31.46 36 19 59 90 59 90s-54 102-61 130m33 18s38 18 89 2c-30-25-48-111-53-123 -7 14-43 87-36 121"/></svg>