<svg viewBox="0 0 512 512" xmlns="http://www.w3.org/2000/svg"><rect width="512" height="512" rx="76.8" fill="#FFF"/><path fill="#F38020" d="M331 326c11-26-4-38-19-38l-148-2c-4 0-4-6 1-7l150-2c17-1 37-15 43-33 0 0 10-21 9-24v0c-10.88-52.46-62.22-86.17-114.67-75.3 -33.85 7.01-61.4 31.5-72.34 64.29 -38-25-78 9-69 46 -48 3-65 46-60 72 0 1 1 2 3 2h274c1 0 3-1 3-3Z"/><path fill="#FAAE40" d="M381 224c-4 0-6-1-7 1l-5 21c-5 16 3 30 20 31l32 2c4 0 4 6-1 7l-33 1c-36 4-46 39-46 39 0 2 0 3 2 3h113l3-2v0c12.15-43.06-12.91-87.81-55.96-99.96 -7.18-2.03-14.6-3.05-22.05-3.05"/></svg>