<svg viewBox="0 0 512 512" xmlns="http://www.w3.org/2000/svg"><rect width="512" height="512" rx="76.8" fill="#FFF"/><path fill="#FFC107" d="M46.7 151.5h-.001c-57.64 57.7-57.64 151.19 0 208.9l50.3-50.3h-.001c-29.93-29.89-29.97-78.37-.1-108.3Zm368.4 50.3v0c29.93 29.93 29.93 78.46-.01 108.4 -29.94 29.93-78.47 29.93-108.4 0l-50.7 50.3h-.001c57.71 57.79 151.35 57.86 209.15.14 57.79-57.72 57.86-151.36.15-209.15Z"/><path fill="#FFD836" d="M96.9 201.8h0c29.89-29.94 78.39-29.97 108.32-.08 .02.02.04.04.07.07l36.5-62.5v-.001c-58.83-45.67-142.43-40.44-195.1 12.2Zm108.3 108.4v0c-29.9 29.93-78.4 29.96-108.33.07 -.03-.03-.05-.05-.08-.08l-50.1 50.3 -.001-.001c52.74 52.62 136.4 57.77 195.2 12Zm101.1-.1h-.001c-29.94-29.94-29.94-78.47 0-108.4 29.93-29.94 78.46-29.94 108.4 0l50.6-50.2v0c-57.69-57.8-151.31-57.89-209.1-.2 -57.8 57.68-57.89 151.3-.2 209.1Z"/></svg>