<svg viewBox="0 0 512 512" xmlns="http://www.w3.org/2000/svg"><rect width="512" height="512" rx="76.8" fill="#05192D"/><path fill="#03EF62" d="M273.2 378.4v-95.3l150.4-85.8 -36.6-20.9 -113.8 64.9v-95.7c0-6.4-3.5-12.5-9.1-15.7L127.2 51.3l-.001-.001c-8.33-4.58-18.47-4.27-26.5.8h0c-7.7 4.79-12.36 13.23-12.3 22.3v268.9c0 9.1 4.6 17.5 12.3 22.3l-.001 0c8.02 5.08 18.18 5.39 26.5.8l109.7-62.6v85.2c0 6.5 3.6 12.6 9.2 15.8l140.7 80.1 36.6-21 -150.2-85.5Zm-36.3-222.2V262l-112.2 64V91.8l112.2 64.4Z"/></svg>