<svg viewBox="0 0 512 512" xmlns="http://www.w3.org/2000/svg"><rect width="512" height="512" rx="76.8" fill="#231F20"/><g stroke-width="20" fill="none" stroke="#F1796E"><path d="M78 241h64m-64 26h64"/><path stroke="#EC2529" d="M78 293h64m-64 26h64m-64 26h64"/><path stroke="#F6DD05" d="M148 293h64m-64 26h64m-64 26h64"/><path stroke="#E78DCC" d="M218 241h64m-64 26h64m-64-52h64m-64-26h64"/><path stroke="#D81996" d="M218 293h64m-64 26h64m-64 26h64"/><path stroke="#D6E465" d="M288 241h64m-64 26h64"/><path stroke="#ADDA1A" d="M288 293h64m-64 26h64m-64 26h64"/><path stroke="#B0D8E6" d="M358 241h64m-64 26h64m-64-52h64m-64-26h64m-64-26h64"/><path stroke="#56BBE9" d="M358 293h64m-64 26h64m-64 26h64"/></g></svg>