<svg viewBox="0 0 512 512" xmlns="http://www.w3.org/2000/svg"><rect width="512" height="512" rx="76.8" fill="#FF3034"/><path fill="#FFF" d="M126 120.53l-.001 0c-73.6 73.6-73.6 192.92 0 266.52 73.6 73.59 192.92 73.59 266.525-.01v0c2.9-3.1 7.77-3.25 10.87-.34 3.09 2.9 3.24 7.77.33 10.87 -.11.11-.23.22-.34.33v0c-79.61 79.6-208.66 79.6-288.26-.01 -79.61-79.61-79.61-208.66-.001-288.26v-.001c3.13-2.87 7.99-2.66 10.86.47 2.69 2.94 2.69 7.45-.01 10.39Zm52.5 240.22v0c-.28-14.36-12.14-25.78-26.5-25.5 -14.36.27-25.78 12.13-25.5 26.49 .27 14.35 12.13 25.77 26.49 25.49 13.96-.27 25.22-11.53 25.49-25.5m230.5-27.75v0c-17.21-120.01-111.5-214.3-231.5-231.5v0c-14.21 7.07-27.21 16.35-38.5 27.5v26 0c119.29-.56 216.44 95.7 216.99 214.99 0 .33 0 .66 0 1h26v0c11.7-10.91 20.91-24.21 27-39m-169-250l-4 12 -.001 0c84.27 29.81 150.71 95.88 181 180l11-4v0c9.29-94.54-59.82-178.71-154.36-188 -11.19-1.1-22.47-1.1-33.65 0Zm5 342h-.001c29.51-58.11 6.34-129.14-51.77-158.65 -13.49-6.86-28.17-11.05-43.24-12.36v0c-5.78-.98-9.68-6.45-8.7-12.23 .94-5.58 6.08-9.43 11.69-8.78v0c76.88 8.17 132.58 77.13 124.41 154.01 -.83 7.76-2.31 15.45-4.42 22.98l31 9 26.5-10v0c20.48-105.73-48.63-208.05-154.36-228.53 -2.87-.56-5.76-1.05-8.65-1.48l0-.001c-35.9-8.05-71.51 14.53-79.55 50.42 -8.05 35.89 14.53 71.5 50.42 79.54 3.65.81 7.37 1.32 11.12 1.52h-.001c34.22 6.26 56.89 39.08 50.63 73.3 -1.45 7.87-4.38 15.41-8.64 22.19l21 14Z"/></svg>