<svg viewBox="0 0 512 512" xmlns="http://www.w3.org/2000/svg"><rect width="512" height="512" rx="76.8" fill="#0085FF"/><path fill="#FFF" d="M342.7 283l2.3-9v0c.79-2.32 1.13-4.76 1-7.2v0c-.63-3.48-1.74-6.84-3.3-10l-85.5 79.8s5.2 5.4 13.3 0c4-2.7 20.9-14.5 37.7-26.6l100.5 78.3v0c1.92 1.54 4.6 1.7 6.7.4l22.1-14.1Zm-123 31l46.9-36 18 14 29.8-36 -9.8-9.6 3.1-11.3v0c1.42-4.11 2.03-8.46 1.8-12.8v0c-.99-5.06-2.78-9.92-5.3-14.4L186.6 325.6s3.6 3 11.3 0l33.2 30.7h0c1.1.96 2.68 1.16 4 .5l11.3-6.7ZM199 293.2l-36.5-27.5 -6.7 11.3h-.001c-.8 1.28-.6 2.95.5 4l30.8 33.3Zm65.7-86.9l-8.4-8.7 2.2-8.9v0c.86-2.92 1.19-5.97 1-9v0c-.82-3.52-2.17-6.9-4-10l-79.8 85.5s5.4 5.2 13.2-.8c3.5-2.7 17.3-14 32-26.3l13.6 17.4Zm-36-37.3l-91-94 -14.2 22.1v0c-1.28 2.11-1.08 4.8.5 6.7L202.9 205ZM209 118.6v-.001c14.85-4.85 30.37-7.32 46-7.3v0c80.63 0 146 65.36 146 146h-.001c.04 15.61-2.39 31.14-7.2 46l16.5 16.6v0c34.48-85.84-7.14-183.39-92.98-217.88 -40.06-16.1-84.77-16.11-124.83-.03Zm140.25 250.44v0c-61.57 52.17-153.77 44.57-205.95-16.99 -46.21-54.52-46.21-134.44-.01-188.96l-13.4-17h0c-61.61 69.01-55.59 174.89 13.42 236.5 63.54 56.71 159.53 56.71 223.07 0Z"/></svg>