<svg viewBox="0 0 512 512" xmlns="http://www.w3.org/2000/svg"><rect width="512" height="512" rx="76.8" fill="#FFF"/><path d="M377 129c-2 0-3 3-3 4 0 3 4 8 11 16 29 28 45 62 44 103 0 46-17 84-47 111 -6 6-9 10-9 15l4 4v0c1.11 1.9 2.89 3.32 5 4 7 0 17-8 29-25 25-30 36-63 37-109 0-46-13-77-42-109 -10-11-18-17-24-17 -2 0-4 1-5 3Zm-88 131c-11-2 33-56-47-119 0 0 11 33-42 108 -52 75 23 118 23 118s-36-19 7-87c7-11 17-22 29-49 0 0 11 16 5 48 -9 50 36 37 37 37 16 18-13 51-14 52s81-51 22-128c-4 5-10 23-21 20ZM135 129v0c1.45.91 2.52 2.34 3 4 0 3-3 8-12 16l0-.001c-28.2 26.74-43.82 64.14-43 103 0 46 16 82 46 111 7 6 9 11 9 14l-3 5v0c-1.12 1.9-2.9 3.32-5 4 -8 0-17-9-30-25h0c-24.66-30.86-37.44-69.53-36-109 0-46 13-77 41-109 11-11 19-17 25-17 2 0 4 1 5 3Z"/></svg>