<svg viewBox="0 0 512 512" xmlns="http://www.w3.org/2000/svg"><defs><linearGradient id="a" x1="0%" x2="0%" y1="0%" y2="100%"><stop offset="0%" stop-color="#FFF" stop-opacity=".4"/><stop offset="30%" stop-color="#D6D7E8" stop-opacity="0"/><stop offset="70%" stop-opacity="0"/><stop offset="100%" stop-opacity=".4"/></linearGradient></defs><rect width="512" height="512" rx="76.8" fill="#FFF"/><g><rect width="334" height="334" x="89" rx="50" y="89"/><path d="M144 89c-30 0-55 25-55 55v225c0 30 25 55 55 55h225c30 0 55-25 55-55V144c0-30-25-55-55-55Z"/></g><path fill="#FFC019" d="M144 102c-23 0-42 18-42 42v225c0 23 18 42 42 42h52v-88h108v-67H196v-81h107.5v-73Z"/><path fill="#1872A2" d="M316 102v87H209v67h107v81H209v74h160c23 0 42-18 41-42V144c0-23-18-42-42-42Z"/><rect width="334" height="334" x="89" rx="50" y="89" fill="url(#a)"/></svg>