<svg viewBox="0 0 512 512" xmlns="http://www.w3.org/2000/svg"><rect width="512" height="512" rx="76.8" fill="#FFF"/><path fill="#478CBF" d="M220.6 91.9h0c-16.07 3.37-31.65 8.71-46.4 15.9v-.001c-.2 12.79.77 25.58 2.9 38.2v0c-12 6.62-23.09 14.75-33 24.2l0-.001c-9.77-6.87-20.11-12.89-30.9-18h-.001c-12.12 12.23-22.61 25.98-31.2 40.9h-.001c6.18 10.74 13.31 20.91 21.3 30.4v117c0 53.7 68.1 79.5 152.7 79.8 84.6.3 152.8-26.1 152.8-79.8v-117 0c7.94-9.49 15.04-19.67 21.2-30.4v0c-8.6-14.92-19.09-28.67-31.2-40.9h0c-10.8 5.11-21.14 11.13-30.9 18v0c-9.92-9.45-21.01-17.58-33-24.2v0c2.12-12.62 3.09-25.41 2.9-38.2v0c-14.76-7.19-30.34-12.53-46.4-15.9v0c-6.73 10.62-12.49 21.84-17.2 33.5v0c-12.09-1.58-24.32-1.58-36.4 0v0c-4.72-11.66-10.48-22.88-17.2-33.5Z"/><path fill="#FFF" d="M176 227v0c-18.81 0-34.05 15.24-34.05 34.05 0 18.8 15.24 34.05 34.05 34.05v0c18.8 0 34.05-15.25 34.05-34.05 0-18.81-15.25-34.05-34.05-34.05Zm160 0v0c-18.81 0-34.05 15.24-34.05 34.05 0 18.8 15.24 34.05 34.05 34.05v0c18.8 0 34.05-15.25 34.05-34.05 0-18.81-15.25-34.05-34.05-34.05Zm-91.1 61.3h-.001c0 6.07 4.92 11 11 11 6.07 0 11-4.93 11-11v-31.4 0c0-6.08-4.93-11-11-11 -6.08 0-11 4.92-11 11Z"/><path fill="#414042" d="M179 240v0c-12.49 0-22.6 10.11-22.6 22.6 0 12.48 10.11 22.6 22.6 22.6v0c12.48 0 22.6-10.12 22.6-22.6 0-12.49-10.12-22.6-22.6-22.6m154 0v-.001c-12.49 0-22.6 10.11-22.6 22.6 0 12.48 10.11 22.6 22.6 22.6v0c12.48 0 22.6-10.12 22.6-22.6 0-12.49-10.12-22.6-22.6-22.6Z"/><path fill="none" stroke="#FFF" stroke-linejoin="round" stroke-width="12.4" d="M103 322h.7l55.9 5.6 2 30.2 60.2 4.3 4.2-28.6 59.6-.1 4.2 28.6 60.2-4.2 2.1-30.2 55.8-5.6h.6"/></svg>