<svg viewBox="0 0 512 512" xmlns="http://www.w3.org/2000/svg"><rect width="512" height="512" rx="76.8" fill="#FFF"/><path fill="#00AA13" d="M256 197v0c35.34 0 64 28.65 64 64 0 35.34-28.66 64-64 64v0c-35.35 0-64-28.66-64-64 0-35.35 28.65-64 64-64m-66 222v0c16.29 6.9 35.09-.71 42-17 6.9-16.3-.71-35.1-17-42v0c-54.59-22.65-80.48-85.25-57.84-139.84s85.24-80.48 139.83-57.84c54.58 22.64 80.47 85.24 57.83 139.83 -10.86 26.17-31.66 46.97-57.84 57.83v0c-16.3 6.9-23.91 25.7-17 42 6.9 16.29 25.7 23.9 42 17v0c87.12-36.46 128.2-136.63 91.74-223.75 -36.46-87.13-136.63-128.21-223.75-91.75 -87.13 36.45-128.21 136.62-91.75 223.74 17.34 41.44 50.3 74.4 91.74 91.74"/></svg>