<svg viewBox="0 0 512 512" xmlns="http://www.w3.org/2000/svg"><rect width="512" height="512" rx="76.8" fill="#FFF"/><path fill="#4285F4" d="M386 400c45-42 65-112 53-179H260v74h102c-4 24-18 44-38 57Z"/><path fill="#34A853" d="M90 341h-.001c47.99 94.55 163.56 132.29 258.11 84.29 13.58-6.9 26.3-15.39 37.88-25.3l-62-48c-53 35-141 22-171-60Z"/><path fill="#FBBC02" d="M153 292c-8-25-8-48 0-73l-63-49c-23 46-30 111 0 171Z"/><path fill="#EA4335" d="M153 219c22-69 116-109 179-50l55-54c-78-75-230-72-297 55Z"/></svg>