<svg viewBox="0 0 512 512" xmlns="http://www.w3.org/2000/svg"><defs><clipPath id="a"><path d="M512 256v179.2c0 42.41-34.39 76.8-76.8 76.8H76.8C34.38 512 0 477.61 0 435.2L0 76.8C0 34.38 34.38 0 76.8 0h358.4C477.61 0 512 34.38 512 76.8Z"/></clipPath></defs><rect width="512" height="512" rx="76.8" fill="#FFF"/><g clip-path="url(#a)"><path fill="#35A85B" d="M0 512V0h512Z"/><path fill="#5881CA" d="M256 288L32 512h448Z"/><path fill="#C1C0BE" d="M288 256L512 32v448Z"/><path stroke="#FADB2A" stroke-width="71" d="M0 512L512 0"/><path fill="none" stroke="#F2F2F2" stroke-width="22" d="M175 173h50v0c-1.22 29.79-24.58 52.87-52.16 51.56 -27.59-1.32-48.97-26.54-47.75-56.34 1.21-29.8 24.57-52.88 52.15-51.57 12.28.58 23.94 6.04 32.74 15.33"/><path fill="#DE3738" d="M353 85v0c0-38.66 31.34-70 70-70 38.65 0 70 31.34 70 70 0 70-70 70-70 157 0-87-70-87-70-157"/><path fill="#7D2426" d="M423 64a25 25 0 1 0 0 50 25 25 0 1 0 0-50Z"/></g></svg>