<svg viewBox="0 0 512 512" xmlns="http://www.w3.org/2000/svg"><rect width="512" height="512" rx="76.8" fill="#FFF"/><path fill="#4285F4" d="M100 340h74V174h166v-74H137q-37 0-37 35"/><path fill="#1967D2" d="M338 100v76h74v-41q0-35-35-35"/><path fill="#FBBC04" d="M338 174h74v164h-74"/><path fill="#188038" d="M100 338v39q0 35 35 35h41v-74"/><path fill="#34A853" d="M174 338h164v74H174"/><path fill="#EA4335" d="M338 412v-74h74"/><path fill="none" stroke="#4285F4" stroke-linejoin="bevel" stroke-width="15" d="M204 229v0c3.07-11.84 16.48-19.19 29.94-16.43 13.45 2.76 21.87 14.59 18.79 26.42 -2.55 9.78-12.32 16.78-23.74 16.99h-9 9v0c13.8.38 24.68 10.54 24.3 22.68 -.38 12.14-11.88 21.67-25.68 21.29 -11.32-.32-21.01-7.29-23.64-16.98m66-52l27-19h4v-7 103"/></svg>