<svg viewBox="0 0 512 512" xmlns="http://www.w3.org/2000/svg"><defs><clipPath id="a"><path d="M375 136v0c-16.41-31.72-44.88-55.5-79-66h-.001c-12.96-3.99-26.45-6.01-40-6h-.001c-39.79-.22-77.58 17.39-103 48v0c-20.18 24.1-31.16 54.57-31 86 0 38 13 64 13 64 15 32 42 61 61 86l0-.001c11 14.3 21.02 29.33 30 45l0-.001c7.08 13.38 12.78 27.45 17 42 3 10 6 13 13 13s11-5 13-13l-.001 0c3.99-14.16 9.35-27.89 16-41v0c13.24-22.2 28.3-43.27 45-63 5-6 32-39 45-64 0 0 15-29 15-68 0-37-15-63-15-63Z"/></clipPath></defs><rect width="512" height="512" rx="76.8" fill="#FFF"/><g clip-path="url(#a)"><g stroke-width="130" stroke="#FBBC04"><path d="M104 379l152-181"/><path stroke="#4285F4" d="M256 198L378 53"/><path stroke="#34A853" d="M189 459l243-290"/><path stroke="#1A73E8" d="M255 120l-79-67"/><path stroke="#EA4335" d="M76 232l91-109"/></g></g><path fill="#FFF" d="M256 147a51 51 0 1 0 0 102 51 51 0 1 0 0-102Z"/></svg>