<svg viewBox="0 0 512 512" xmlns="http://www.w3.org/2000/svg"><rect width="512" height="512" rx="76.8" fill="#FFF"/><path stroke="#000" stroke-linejoin="round" stroke-width="22" d="M118 406v0c-1.65.38-3.36.38-5 0h0c-.33-1.66-.33-3.35 0-5V218c0-6-5-11-11-11H82L256 69l104 82c8 5 18 0 18-9v-25h15v55 0c.14 3.11 1.59 6.02 4 8l34 27h-21c-6 0-11 5-11 11v183 0c.2 1.32.2 2.67 0 4v0c-1.57.72-3.28 1.06-5 1ZM241 83l-114 90c-7 5-14 14-14 29v177c0 15 9 25 24 25h238c15 0 24-10 24-25V202c0-15-7-24-14-29L271 83c-10-6-22-6-30 0Zm-67 261V217c0-4 1-5 2-6l80-63 80 63c1 1 2 1 2 6v127Zm82-189c-6 0-9 1-14 5l-58 45c-9 7-9 15-9 20v97c0 12 8 20 19 20h124c11 0 19-8 19-20v-97c0-5 0-13-9-20l-58-46c-5-3-9-4-14-4Zm-28 134v-49l28-21 28 21v48Zm28-66c-4 0-6 2-10 5l-11 9v0c-3.51 2.61-5.71 6.63-6 11v26c0 8 6 13 13 13h28c7 0 13-6 13-13v-26l-.001-.001c-.3-4.37-2.5-8.39-6-11l-10-9 -11-5"/></svg>