<svg viewBox="0 0 512 512" xmlns="http://www.w3.org/2000/svg"><rect width="512" height="512" rx="76.8" fill="#0E24D1"/><path fill="#FFF" d="M365 272v0c.02 5.52-4.43 10.02-9.95 10.05 -.36 0-.71-.02-1.06-.06v0c-5.53 0-10-4.48-10-10v-91 0c0-5.53 4.47-10 10-10 3 0 6 1 8 3s3 4 3 7v91Zm-4 63c-1 2-39 33-108 33s-106-31-108-33v0c-4.59-3.08-5.81-9.3-2.73-13.88 3.07-4.59 9.29-5.81 13.87-2.73 .68.45 1.3.99 1.85 1.6 1 1 34 28 95 28s95-28 95-28v0c4.15-3.55 10.39-3.11 14 1v0c3.54 4.15 3.1 10.39-1 14ZM142 181v0c0-5.53 4.47-10 10-10v0c5.52 0 10 4.47 10 10v91 0c0 5.52-4.48 10-10 10v0c-5.53 0-10-4.48-10-10v-91Zm50-20v0c-.03-5.53 4.42-10.03 9.94-10.06 .35-.01.7.01 1.05.05v0c5.52 0 10 4.47 10 10v135 0c.02 5.52-4.43 10.02-9.95 10.05 -.36 0-.71-.02-1.06-.06v0c-5.53 0-10-4.48-10-10v-135Zm51-5v0c0-5.53 4.47-10 10-10v0c5.49-.56 10.39 3.45 10.94 8.94 .03.34.05.69.05 1.05v146 0c.58 5.49-3.4 10.41-8.89 11 -.71.07-1.41.07-2.12 0v0c-5.53.02-10.03-4.43-10.06-9.95 -.01-.36.01-.71.05-1.06v-146Zm51 5v0c0-5.53 4.47-10 10-10v0c5.52 0 10 4.47 10 10v135 0c0 5.52-4.48 10-10 10v0c-5.53 0-10-4.48-10-10V161Zm73-56H139v0c-15.47.13-29.31 9.62-35 24 -2 4-3 9-3 14v228 0c.13 15.46 9.62 29.3 24 35 4 2 9 3 14 3h228v0c15.46-.14 29.3-9.63 35-24 2-4 3-9 3-14V143v0c.03-15.22-9.02-29-23-35l-15-3"/></svg>