<svg viewBox="0 0 512 512" xmlns="http://www.w3.org/2000/svg"><rect width="512" height="512" rx="76.8" fill="#FAB12D"/><path d="M284.2 404L236 324.8l-29.6 28v43.4q0 15.8-8.4 24.4 -8.2 8.4-19 8.4 -12.6 0-19.8-8.4 -7.2-8.4-7.2-24.8V163q0-18.2 7-27.6 7-9.6 20-9.6 12.6 0 20 8.6t7.4 25.4v132.4l61.4-64.4q11.4-12 17.4-16.4 6-4.4 14.6-4.4 10.2 0 17 6.6 6.8 6.4 6.8 16.2 0 12-22.2 32l-29 26.6 56 88q6.2 9.8 8.8 15 2.8 5 2.8 9.6 0 13-7.2 20.6 -7 7.4-18.6 7.4 -10 0-15.4-5.4t-14.6-19.6Z"/><path fill="#FFF" d="M298.6 70.1v0c-22.87 1.62-40.09 21.46-38.47 44.32 .52 7.41 3.03 14.55 7.26 20.67l0 0c11.5 18.21 22.87 36.51 34.1 54.9l16.5-26.5 17.6-28.3v0c12.97-18.97 8.11-44.86-10.86-57.83 -7.67-5.25-16.88-7.78-26.15-7.18Zm6.3 17.6v0c11.33 1.86 19.01 12.56 17.14 23.9 -1.87 11.33-12.57 19.01-23.91 17.14 -8.1-1.34-14.66-7.31-16.74-15.25v0c-2.86-11.13 3.84-22.47 14.97-25.32 2.78-.72 5.68-.85 8.52-.39Z"/></svg>