<svg viewBox="0 0 512 512" xmlns="http://www.w3.org/2000/svg" xmlns:xlink="http://www.w3.org/1999/xlink"><defs><path d="M1 5Zm1 4ZM1 8V7h2V6h1m1 3h2V8H6V4m1 2h1v1m1 2Zm0-5v1" id="c"/><path d="M5 5Z" id="e"/><path d="M4 4V1h4v2H7V2H4v1H2v1" id="f"/><path d="M1 1v1h1m6-1Z" id="i"/><path d="M.5.5h9v9h-9" id="a"/><path d="M2 8v1h2V8h5V7H7V5" id="b"/><path d="M5 3ZM3 2h1" id="h"/><path d="M1 7h1m2 0h1m4-1Z" id="d"/><path d="M2 1h1m3 0Zm1 1Zm2-1v1" id="g"/></defs><rect width="512" height="512" rx="76.8" fill="#111"/><g transform="matrix(19 11 0 22 76 142)"><use fill="#432" xlink:href="#a"/><g stroke-linecap="square" stroke="#864" fill="none"><use xlink:href="#b"/><use stroke="#643" xlink:href="#c"/><use stroke="#A75" xlink:href="#d"/><use stroke="#555" xlink:href="#e"/><use stroke="#593" xlink:href="#f"/><use stroke="#6A4" xlink:href="#g"/><use stroke="#7C5" xlink:href="#h"/><use stroke="#9C6" xlink:href="#i"/></g></g><g opacity=".5" transform="matrix(-1 0 0 1 513 0)"><g transform="matrix(19 11 0 22 76 142)"><use fill="#432" xlink:href="#a"/><g stroke-linecap="square" stroke="#864" fill="none"><use xlink:href="#b"/><use stroke="#643" xlink:href="#c"/><use stroke="#A75" xlink:href="#d"/><use stroke="#555" xlink:href="#e"/><use stroke="#593" xlink:href="#f"/><use stroke="#6A4" xlink:href="#g"/><use stroke="#7C5" xlink:href="#h"/><use stroke="#9C6" xlink:href="#i"/></g></g></g><g transform="matrix(-19 11-19-11 447 159)"><use fill="#7B4" xlink:href="#a"/><g stroke-linecap="square" stroke="#8C5" fill="none"><path d="M1 1Zm2 0Zm1 6ZM3 4v2H1v2h3v1h2V7M2 3h4V1H5v1h3M7 4v1H4m5-1v2H8v3"/><path stroke="#AD7" d="M1 3v2m0 2Zm0 2Zm2-6Zm1 1Zm1-3Zm0 2Zm0 2v1m0 2v1m2-7v1m1 4h1"/></g></g></svg>