<svg viewBox="0 0 512 512" xmlns="http://www.w3.org/2000/svg"><defs><linearGradient id="a" x1="209" x2="297" gradientUnits="userSpaceOnUse" y1="271" y2="241"><stop offset="0%" stop-color="#B20710"/><stop offset="50%"/><stop offset="100%" stop-color="#B20710"/></linearGradient></defs><rect width="512" height="512" rx="76.8" fill="#FFF"/><path fill="#B20710" d="M161 89v335l12-1 21-2 32-2 1-71v-71l5 14 2 6 8-165 -3-8 -12-34v-1h-66Zm118 0v148l-6-17 -8 165 12 33 10 1 0 0c19.39.92 38.73 2.59 58 5V89h-66Z"/><path fill="url(#a)" d="M161 89s66 238 66 234v-46l5 14 45 127 10 1 0-.001c19.39.91 38.73 2.58 58 5l-66-236v49l-6-17 -34-96 -12-34 -1-1h-65Z"/><path fill="#E50914" d="M161 89l66 188 5 14 45 127 10 1 0 0c19.39.92 38.73 2.59 58 5l-66-187 -6-17 -34-96 -12-34v-1h-66Z"/></svg>