<svg viewBox="0 0 512 512" xmlns="http://www.w3.org/2000/svg"><rect width="512" height="512" rx="76.8" fill="#EE8208"/><path fill="#FFF" d="M256 137v0c20.15 0 36.5 16.34 36.5 36.5v0c0 20.15-16.35 36.5-36.5 36.5v0c-20.16 0-36.5-16.35-36.5-36.5v0c0-20.16 16.34-36.5 36.5-36.5Zm0 124.5c48.6 0 88-39.5 88-88s-39.5-88-88-88 -88 39.5-88 88 39.5 88 88 88m35.6 71.9v0c18.05-4.09 35.3-11.19 51-21v0c12.03-7.63 15.62-23.56 8-35.6 -.01-.01-.01-.01-.01-.01v0c-7.63-12.04-23.56-15.63-35.6-8.01 -.01 0-.01 0-.01 0v0c-36.29 22.67-82.32 22.67-118.6 0h0c-12.04-7.63-27.98-4.05-35.6 7.99 -.01 0-.01 0-.01 0v0c-7.63 12.03-4.05 27.97 7.99 35.59 0 0 0 0 0 0 15.9 10 33 17 51 21l-49 49.3v0c-10.08 10.07-10.08 26.42 0 36.5 10.07 10.07 26.42 10.07 36.5 0l48.4-48.5 48.4 48.4v0c10.07 10.07 26.4 10.08 36.48.01 0-.01 0-.01.01-.02v0c10.07-10.08 10.08-26.41.01-36.49 -.01-.01-.01-.01-.02-.02l-49.3-49.3"/></svg>