<svg viewBox="0 0 512 512" xmlns="http://www.w3.org/2000/svg" xmlns:xlink="http://www.w3.org/1999/xlink"><defs><path d="M256 6a250 250 0 1 0 0 500 250 250 0 1 0 0-500Z" id="a"/></defs><use fill="#11B0A3" xlink:href="#a"/><path fill="#8C5015" d="M9 319v0c40.23 136.69 183.66 214.88 320.35 174.64 84.1-24.76 149.88-90.54 174.64-174.65"/><path fill="#FB0" stroke="#FFF" stroke-width="24" d="M110 228h139v37H110Z"/><g stroke-width="12" fill="#007200" stroke="#000"><path d="M503 318H389c12-35 41-15 41-15 7-27 38-27 38-27 2-30 24-39 37-37"/><path d="M365 110a64 64 0 1 0 0 128 64 64 0 1 0 0-128Z"/><g fill="none"><path d="M65 276h234m-187-2v44m135-43v42m20-41v-61H91v61m274-106v148m-35-148l36 35m37-33l-39 39M133 108s33-3 39 16c-8-31 14-40 14-40m13 44s26 21 16 39c14-28 36-19 36-19M49 401l436-40M82 438l99-19m-63 48l189-53m-149 74l302-86M9 319h493"/><use xlink:href="#a"/></g></g></svg>