<svg viewBox="0 0 512 512" xmlns="http://www.w3.org/2000/svg"><rect width="512" height="512" rx="76.8" fill="#FFF"/><path fill="#A70014" d="M255.9 41v0c-118.75 0-215 96.25-215 215 0 118.74 96.25 215 215 215v0c118.74 0 215-96.26 215-215 0-118.75-96.26-215-215-215m2.4 56.5v0c62.57 0 113.3 70.96 113.3 158.5 0 87.53-50.73 158.5-113.3 158.5v0C195.72 414.5 145 343.53 145 256c0-87.54 50.72-158.5 113.3-158.5"/><path fill="#FF1B2D" d="M185.2 377.2v0c-47.83-56.45-53.9-156.45-13.55-223.36 4.12-6.85 8.65-13.18 13.54-18.95 30.9-40.1 76.7-65.5 128-65.5 31.4 0 60.9 9.6 86 26.3v-.001C310.65 16.54 174.74 24.16 95.61 112.7c-79.14 88.53-71.52 224.44 17.02 303.57 81.59 72.93 204.96 72.93 286.55 0 -25.5 17.1-55.5 26.3-86.2 26.3 -51.2 0-97-25.4-127.9-65.4"/></svg>