<svg viewBox="0 0 512 512" xmlns="http://www.w3.org/2000/svg"><rect width="512" height="512" rx="76.8" fill="#FFF"/><rect width="231" height="270" x="168" rx="15.36" y="107" fill="#05A"/><path fill="#136" d="M398 247v23l15-8s0-7-5-9l-10-6Zm-230 43v70h77v-70h-77Z"/><path fill="#17D" d="M168 150v70h77v-70h-77Zm77 70v70h77v-70h-77Zm77 70v70h77v-70h-77Z"/><path fill="#3AE" d="M245 150v70h77v-70h-77Zm77 70v70h77v-70h-77Z"/><path fill="#5CF" d="M322 150h77v70h-77Z"/><path fill="#19E" d="M413 261v128c0 7-2 15-7 18 -3 2-124-71-124-71l131-75Z"/><path fill="#2AE" d="M160 266c-4 3-6 7-6 12v117c0 8 6 14 14 14h230c4 0 5 0 8-2"/><rect width="172" height="172" x="70" y="172" rx="15.36" ry="15.36" fill="#18E"/><path fill="#FFF" d="M154 305c-23 0-43-18-43-45 0-28 16-48 44-48 27 0 43 21 43 46 0 29-18 47-44 47Zm1-75c-16 0-23 14-23 29 0 18 11 28 22 28 14 0 23-10 23-28s-8-29-22-29Z"/></svg>