<svg viewBox="0 0 512 512" xmlns="http://www.w3.org/2000/svg"><rect width="512" height="512" rx="76.8" fill="#E84352"/><path fill="#FFF" d="M388.8 88.9H123.2h-.001c-26.18.11-47.32 21.42-47.21 47.59 0 0 0 0 0 0v131.9c0 2.4.2 4.8.5 7.2h-.001c-.36 3.52-.52 7.06-.5 10.6 0 75.6 80.6 137 180 137s180-61.4 180-137c0-3.6-.2-7.1-.5-10.6 .3-2.4.5-4.8.5-7.2v-132 0c0-26.11-21.1-47.29-47.2-47.4Zm-22.4 132.6l-93 93c-4.7 4.6-11 7-17.1 7v0c-6.62.23-13.04-2.31-17.7-7l-93-93v0c-8.48-10.19-7.1-25.33 3.09-33.8 8.89-7.41 21.81-7.41 30.7 0l76.6 76.5 76.6-76.5v-.001c10.18-8.48 25.32-7.1 33.8 3.09 7.4 8.89 7.4 21.81 0 30.7Z"/></svg>