<svg viewBox="0 0 512 512" xmlns="http://www.w3.org/2000/svg"><rect width="512" height="512" rx="76.8" fill="#F43E37"/><path fill="#FFF" d="M256 400v0c-79.53 0-144-64.48-144-144 0-79.53 64.47-144 144-144 79.52 0 144 64.47 144 144h48v-.001c0-106.04-85.97-192-192-192 -106.04 0-192 85.96-192 192 0 106.03 85.96 192 192 192v-48Zm0-71v0c-40.32 0-73-32.69-73-73 0-40.32 32.68-73 73-73 40.31 0 73 32.68 73 73h42v-.001c0-63.52-51.49-115-115-115 -63.52 0-115 51.48-115 115 0 63.51 51.48 115 115 115v-42Z"/></svg>