<svg viewBox="0 0 512 512" xmlns="http://www.w3.org/2000/svg"><rect width="512" height="512" rx="76.8" fill="#B92B27"/><path fill="#FFF" d="M412.9 386v0c6.85 7.2 6.56 18.59-.64 25.44 -3.22 3.05-7.44 4.81-11.87 4.95l-146-.1v0c-90.02-1.45-161.81-75.59-160.37-165.6 1.44-90.02 75.58-161.81 165.59-160.37 90.01 1.44 161.8 75.58 160.36 165.59 -.59 36.7-13.56 72.14-36.8 100.56ZM354 253.5v0c0-53.85-43.66-97.5-97.5-97.5 -53.85 0-97.5 43.65-97.5 97.5v0c0 53.84 43.65 97.5 97.5 97.5 53.84 0 97.5-43.66 97.5-97.5Z"/></svg>