<svg viewBox="0 0 512 512" xmlns="http://www.w3.org/2000/svg"><rect width="512" height="512" rx="76.8" fill="#FFF"/><path fill="#61DAFB" d="M256 220a36 36 0 1 0 0 72 36 36 0 1 0 0-72Z"/><path fill="none" stroke="#61DAFB" stroke-width="18" d="M317.47 291.43h-.001c49.03-88.29 59.52-172.71 23.44-188.55 -36.09-15.85-105.1 42.88-154.14 131.16 -49.04 88.28-59.53 172.7-23.45 188.54 36.07 15.83 105.04-42.84 154.08-131.08Zm-122.89.09v0c49.05 88.27 118.05 146.95 154.11 131.06 36.06-15.9 25.52-100.35-23.53-188.62C276.1 145.68 207.1 87 171.04 102.89c-36.05 15.88-25.54 100.27 23.47 188.52Zm61.47 35.43h-.001c101.06-.02 182.97-31.81 182.95-71.02 -.03-39.22-81.99-71-183.05-70.99 -101.07.01-182.98 31.8-182.95 71.01 .02 39.19 81.92 70.96 182.95 70.98Z"/></svg>