<svg viewBox="0 0 512 512" xmlns="http://www.w3.org/2000/svg"><rect width="512" height="512" rx="76.8" fill="#FFF"/><path fill="#A00403" d="M407.7 397.3l20.9-257.7L348 297 152 415c80.9-5.7 171.2-11.9 255.7-17.7Z"/><path fill="#B11205" d="M423.4 179L320 98l-27 93c109.8 9.3 91.8-9.6 130.4-12ZM192 282l136 43 -35-134Zm-89 19c44 139 55 169 89-19l-90 21ZM276 68l97 1 -53 29c-11-7-36-24-44-30ZM85 246l-4 99 23-43ZM298 85c26 26-1 89-53 140s-118 83-144 57c-25-25.9.7-90 52.9-141 52.2-51 119.2-82 144.2-56Z"/><path fill="#9F0D02" d="M192 282l133 43c-48 45-137.5 86.5-173 90Z"/><path fill="#891102" d="M293 191l33 133c40-42 76-88 94-144Zm114.7 206.3L387 245l-61 79Z"/><path fill="#AA1401" d="M421 181c13-41 16-101-48-112l-53 29Z"/><path fill="#9E1209" d="M81 345c2 68 50 69 71 70l-49-113Z"/><path fill="#900E04" d="M192 282l54 103c32-17 57-38 79-61Z"/><path fill="#8B1104" d="M103 302l-8 91c14 20 34 21 55 20 -15-37-45-112-47-111Z"/></svg>