<svg viewBox="0 0 512 512" xmlns="http://www.w3.org/2000/svg" xmlns:xlink="http://www.w3.org/1999/xlink"><defs><path d="M20-183L6-206c-3-5-9-5-12 0l-14 23m0 366l14 23c3 5 9 5 12 0l14-23" id="a"/><path d="M-101-161l-.001 0c-77.26 48.48-109.16 145.02-76 230l32-16h0c-8.52-23.34-11.26-48.38-8-73l25-13c6-3 9-9 5-15l-11-26 -.001-.001c13.6-25.43 34.04-46.56 59-61m-88 82c5-16 29-7 24 8s-29 8-24-8" id="b"/></defs><rect width="512" height="512" rx="76.8" fill="#FFF"/><g transform="translate(256 256)"><g><use xlink:href="#a"/><use transform="rotate(11.25)" xlink:href="#a"/></g><g transform="rotate(22.5)"><g><use xlink:href="#a"/><use transform="rotate(11.25)" xlink:href="#a"/></g></g><g transform="rotate(45)"><g><use xlink:href="#a"/><use transform="rotate(11.25)" xlink:href="#a"/></g><g transform="rotate(22.5)"><g><use xlink:href="#a"/><use transform="rotate(11.25)" xlink:href="#a"/></g></g></g><g transform="rotate(90)"><g><use xlink:href="#a"/><use transform="rotate(11.25)" xlink:href="#a"/></g><g transform="rotate(22.5)"><g><use xlink:href="#a"/><use transform="rotate(11.25)" xlink:href="#a"/></g></g><g transform="rotate(45)"><g><use xlink:href="#a"/><use transform="rotate(11.25)" xlink:href="#a"/></g><g transform="rotate(22.5)"><g><use xlink:href="#a"/><use transform="rotate(11.25)" xlink:href="#a"/></g></g></g></g><g><use xlink:href="#b"/><use transform="rotate(72)" xlink:href="#b"/></g><g transform="rotate(144)"><g><use xlink:href="#b"/><use transform="rotate(72)" xlink:href="#b"/></g></g><g><use transform="rotate(-72)" xlink:href="#b"/><path d="M135 10s4 32-18 32 -6-24-43-51c0 0 31-13 31-47s-40-48-57-48h-187v46h35v99h-52v49H4V42h-39V14H5c41 0 13 76 60 76h99V10M-35-28v-30h54c22 0 23 30 0 30"/></g></g></svg>