<svg viewBox="0 0 512 512" xmlns="http://www.w3.org/2000/svg"><defs><radialGradient id="a" fr="0%" fx="50%" fy="50%" cx="50%" cy="50%" r="50%"><stop offset="0%" stop-color="#0BD"/><stop offset="100%" stop-color="#17D"/></radialGradient></defs><rect width="512" height="512" rx="76.8" fill="#FFF"/><g transform="matrix(4 0 0 4 256 256)"><g stroke-width="5" fill="url(#a)" stroke="#EEE"><path d="M0-52.5a52.5 52.5 0 1 0 0 105 52.5 52.5 0 1 0 0-105Z"/><g stroke-width="5.5" stroke="#EEE" fill="none" stroke-dasharray="1.25 8.175000000000001" stroke-dashoffset=".5"><path d="M0-45a45 45 0 1 0 0 90 45 45 0 1 0 0-90Z"/><path stroke-dasharray="1.25 7.649999999999999" stroke-dashoffset="5" stroke-width="10" d="M0-42.5a42.5 42.5 0 1 0 0 85 42.5 42.5 0 1 0 0-85Z"/></g></g><path fill="#EEE" d="M6 6L-6-6l-29 39"/><path fill="#F55" d="M6 6L-6-6l41-28"/><path opacity=".3" d="M-35 33l7-5 -3 5L6 6l28-35 -4 2 4-6"/></g></svg>