<svg viewBox="0 0 512 512" xmlns="http://www.w3.org/2000/svg"><rect width="512" height="512" rx="76.8" fill="#1DA1F2"/><path fill="#FFF" d="M437 152v0c-11.86 7.86-25.78 12.03-40 12v0c15.2-8.96 26.59-23.2 32-40v-.001c-12.61 10.65-28.5 16.65-45 17v0c-27.78-28.46-73.37-29-101.82-1.22 -17.6 17.17-25.21 42.14-20.19 66.21v-.001c-56.64-3-109.35-29.89-145-74v0c-17.88 32.33-8.37 72.95 22 94v0c-11.07.15-22.02-2.24-32-7v0c.55 33.15 23.67 61.63 56 69v0c-10.46 2.73-21.4 3.07-32 1v0c9.37 29.25 36.28 49.33 67 50h0c-31.65 19.19-68 29.23-105 29h0c92.49 60.38 216.42 34.35 276.8-58.14 23.37-35.81 34.66-78.17 32.19-120.87h0c13.19-10.8 24.95-23.23 35-37"/></svg>