<svg viewBox="0 0 512 512" xmlns="http://www.w3.org/2000/svg"><rect width="512" height="512" rx="76.8"/><path fill="#FFF" d="M119.8 303.6c17.6 0 31.3-13.6 31.3-33.8v-78.5h19.1v127.3h-18.9v-11.8h-.001c-8.8 9.09-20.95 14.16-33.6 14 -27.3 0-48.2-19.8-48.2-49.8v-79.6h19.1v78.5c0 20.5 13.4 33.7 31.2 33.7m64.6-112.3h18.4v46.4 0c8.67-8.83 20.52-13.81 32.9-13.8v0c26.75 0 48.45 21.69 48.45 48.45 0 26.75-21.7 48.45-48.45 48.45h-.001c-12.44 0-24.36-4.97-33.1-13.8v11.6h-18.2V191.3Zm50 113.2h-.001c17.78.11 32.28-14.22 32.39-32.01 .11-17.79-14.22-32.29-32.01-32.4 -17.79-.12-32.29 14.21-32.4 31.99v.2 0c-.12 17.67 14.12 32.08 31.79 32.19 0 0 0 0 0 0h.2m104.9-80.5c26.7 0 46.4 20.5 46.4 48.2v6h-75.4v0c2.31 15.17 15.35 26.38 30.7 26.4 10.7 0 19.8-4.4 26.7-13.6l13.3 9.8c-9.3 12.4-23.1 19.8-40 19.8 -27.8 0-49.3-20.7-49.3-48.4 -.1-26.2 20.5-48.2 47.6-48.2m-28.8 39.6h56.5c-3.1-14.2-14.5-23.6-28.2-23.6 -13.5 0-25 9.5-28.3 23.6m124.4-21.4c-12 0-20.7 9.3-20.7 23.6v52.7h-18.4v-92.7h18.2v11.5c4.5-7.5 12-12.2 22.2-12.2h6.4v17.1Z"/></svg>