<svg viewBox="0 0 512 512" xmlns="http://www.w3.org/2000/svg"><rect width="512" height="512" rx="76.8" fill="#E65E17"/><path fill="none" stroke="#FFF" stroke-width="51" d="M265 132a124 124 0 1 0 0 248 124 124 0 1 0 0-248Z"/><g stroke-width="10" fill="#FFF" stroke="#E65E17"><path d="M90 216a41 41 0 1 0 0 82 41 41 0 1 0 0-82Z"/><path d="M353 368a41 41 0 1 0 0 82 41 41 0 1 0 0-82Z"/><path d="M353 63a41 41 0 1 0 0 82 41 41 0 1 0 0-82Z"/><path stroke-width="19" d="M185 118l82 138m0 0h155H267l-84 140"/></g></svg>