<svg viewBox="0 0 512 512" xmlns="http://www.w3.org/2000/svg"><rect width="512" height="512" rx="76.8" fill="#FFF"/><path fill="#27B" d="M423 114l-75-37v0c-8.86-3.99-19.26-1.99-26 5L77 306h0c-6.08 5.63-6.44 15.12-.81 21.19 .25.27.52.54.8.8l20 18h-.001c5.43 5.38 14.05 5.81 20 1l295-224c10-7 24-1 24 12v-1c0-9-5-17-13-20"/><path fill="#08C" d="M423 399l-75 36v0c-8.86 3.98-19.26 1.98-26-5L77 207v0c-6.08-5.64-6.44-15.13-.81-21.2 .25-.28.52-.55.8-.81l20-19v0c5.43-5.39 14.05-5.82 20-1l295 224c10 8 24 1 24-12v1c0 9-5 17-13 21"/><path fill="#19F" d="M348 435v0c-8.86 3.98-19.26 1.98-26-5 9 9 23 3 23-9V92c0-12-14-19-23-10v0c7.15-7.11 18.09-8.73 27-4l75 36c7 3 12 11 12 20v244c0 9-5 17-12 21"/></svg>