<svg viewBox="0 0 512 512" xmlns="http://www.w3.org/2000/svg" xmlns:xlink="http://www.w3.org/1999/xlink"><defs><linearGradient id="a" x1="50%" x2="50%" y1="100%" y2="0%"><stop offset="30%" stop-color="#1BE"/><stop offset="100%" stop-color="#025"/></linearGradient><linearGradient id="b" x1="50%" x2="50%" y1="100%" y2="0%" xlink:href="#a"/><path id="c" d="M379.9 170c0 212.7-220.9 272-220.9 272v2c148-12 311-165 316-311Z"/><path id="e" d="M396 163.4c.1 130-95.3 245-252 278v5c173-13 284-179.7 272-290.7Z"/><path id="d" d="M344 183c-3 120-104 233-187 258v2c127-36 273-161 256-286Z"/></defs><rect width="512" height="512" rx="76.8" fill="#FFF"/><use fill="url(#a)" xlink:href="#c"/><use fill="#E61" xlink:href="#d"/><use fill="#D51" xlink:href="#e"/><g transform="matrix(-1 0 0 1 512 0)"><use fill="url(#b)" xlink:href="#c"/><use fill="#AC6" xlink:href="#d"/><use fill="#493" xlink:href="#e"/></g></svg>