<svg viewBox="0 0 24 24" xmlns="http://www.w3.org/2000/svg"><path fill="none" d="M0 0h24v24H0V0Z"/><path d="M20 4H4c-1.1 0-2 .9-2 2v12c0 1.1.9 2 2 2h16c1.1 0 2-.9 2-2V6c0-1.1-.9-2-2-2Zm0 14H4V6h16v12ZM4 0h16v2H4Zm0 22h16v2H4Zm8-10c1.38 0 2.5-1.12 2.5-2.5C14.5 8.12 13.38 7 12 7c-1.38 0-2.5 1.12-2.5 2.5s1.12 2.5 2.5 2.5Zm0-3.5c.55 0 1 .45 1 1s-.45 1-1 1 -1-.45-1-1 .45-1 1-1Zm5 7.49C17 13.9 13.69 13 12 13c-1.69 0-5 .9-5 2.99V17h10v-1.01Zm-8.19-.49c.61-.52 2.03-1 3.19-1 1.17 0 2.59.48 3.2 1H8.81Z"/></svg>