<svg viewBox="0 0 24 24" xmlns="http://www.w3.org/2000/svg"><path fill="none" d="M9.6 16.8h4.8v1.8H9.6Z"/><path d="M20 18c1.1 0 1.99-.9 1.99-2L22 6c0-1.11-.9-2-2-2H4c-1.11 0-2 .89-2 2v10c0 1.1.89 2 2 2H0v2h24v-2h-4ZM4 16V6h16v10 .01L4 16Zm5.09-6.05c0-1.03.83-1.87 1.86-1.87 1.02 0 1.86.83 1.86 1.86 0 1.02-.84 1.86-1.87 1.86 -1.03 0-1.87-.84-1.87-1.87Zm7.03 4.23l-2.49-2.49c.33-.51.52-1.11.52-1.76 0-1.78-1.45-3.22-3.22-3.22 -1.78 0-3.22 1.44-3.22 3.21s1.44 3.21 3.21 3.21c.63 0 1.22-.2 1.72-.52l2.48 2.48 .95-.96Z"/><path fill="none" d="M0 0h24v24H0Z"/></svg>