<svg viewBox="0 0 20 20" xmlns="http://www.w3.org/2000/svg"><path fill="none" d="M0 0h20v20H0Z"/><g><path d="M6.5 5a1.5 1.5 0 1 0 0 3 1.5 1.5 0 1 0 0-3Z"/><path d="M16 11V5.12C16 3.95 15.05 3 13.88 3c-.56 0-1.1.22-1.5.62l-.83.83c-.17-.08-.37-.12-.57-.12 -.28 0-.54.08-.76.23l1.93 1.93c.14-.22.23-.48.23-.76 0-.2-.05-.39-.12-.57l.83-.83c.21-.21.49-.33.79-.33C14.5 4 15 4.5 15 5.12V11H9.1c-.2-.14-.38-.3-.55-.48l-.93-1.03c-.13-.14-.29-.26-.46-.34 -.21-.1-.44-.15-.67-.15C5.67 9 5 9.67 5 10.5v.5H3v5h1v1h12v-1h1v-5h-1Z"/></g></svg>