<svg viewBox="0 0 24 24" xmlns="http://www.w3.org/2000/svg"><path fill="none" d="M0 0h24v24H0V0Z"/><g><path d="M10 8l-3.25 3.25c.31.12.56.27.77.39 .37.23.59.36 1.15.36 .56 0 .78-.13 1.15-.36 .46-.27 1.08-.64 2.19-.64 1.11 0 1.73.37 2.18.64 .37.22.6.36 1.15.36 .55 0 .78-.13 1.15-.36 .12-.07.26-.15.41-.23L10.48 5 5 3v2.5L9 7l1 1Zm12 8.5h-.02H22Zm-16.65-1c.55 0 .78.14 1.15.36 .45.27 1.07.64 2.18.64s1.73-.37 2.18-.64c.37-.23.59-.36 1.15-.36 .55 0 .78.14 1.15.36 .45.27 1.07.64 2.18.64s1.73-.37 2.18-.64c.37-.23.59-.36 1.15-.36 .55 0 .78.14 1.15.36 .45.27 1.06.63 2.16.64v-2c-.55 0-.78-.14-1.15-.36 -.45-.27-1.07-.64-2.18-.64s-1.73.37-2.18.64c-.37.23-.6.36-1.15.36 -.55 0-.78-.14-1.15-.36 -.45-.27-1.07-.64-2.18-.64s-1.73.37-2.18.64c-.37.23-.59.36-1.15.36 -.55 0-.78-.14-1.15-.36 -.45-.27-1.07-.64-2.18-.64s-1.73.37-2.18.64c-.37.23-.59.36-1.15.36v2c1.11 0 1.73-.37 2.2-.64 .37-.23.6-.36 1.15-.36ZM18.67 18c-1.11 0-1.73.37-2.18.64 -.37.23-.6.36-1.15.36 -.55 0-.78-.14-1.15-.36 -.45-.27-1.07-.64-2.18-.64s-1.73.37-2.19.64c-.37.23-.59.36-1.15.36 -.56 0-.78-.13-1.15-.36 -.45-.27-1.07-.64-2.18-.64s-1.73.37-2.19.64c-.37.23-.59.36-1.15.36v2c1.11 0 1.73-.37 2.19-.64 .37-.23.6-.36 1.15-.36 .55 0 .78.13 1.15.36 .45.27 1.07.64 2.18.64s1.73-.37 2.19-.64c.37-.23.59-.36 1.15-.36 .55 0 .78.14 1.15.36 .45.27 1.07.64 2.18.64s1.72-.37 2.18-.64c.37-.23.59-.36 1.15-.36 .55 0 .78.14 1.15.36 .45.27 1.07.64 2.18.64v-2c-.56 0-.78-.13-1.15-.36 -.45-.27-1.07-.64-2.18-.64Z"/><path d="M16.5 3a2.5 2.5 0 1 0 0 5 2.5 2.5 0 1 0 0-5Z"/></g></svg>