<svg viewBox="0 0 20 20" xmlns="http://www.w3.org/2000/svg"><path fill="none" d="M0 0h20v20H0Z"/><path d="M10 3c-3.87 0-7 3.13-7 7s3.13 7 7 7 7-3.13 7-7 -3.13-7-7-7Zm-2.37 8.71l-.91-.41c.19-.44.29-.88.28-1.32 -.01-.45-.1-.87-.28-1.27l.91-.42c.24.53.36 1.09.37 1.68 .01.59-.12 1.17-.37 1.74Zm2.19 1.08l-.87-.49c.37-.65.55-1.39.55-2.22 0-.84-.19-1.64-.57-2.39l.89-.45c.45.89.67 1.85.67 2.84 .01 1-.22 1.92-.67 2.71Zm2.25.93l-.9-.44c.55-1.13.83-2.24.83-3.3 0-1.06-.28-2.16-.83-3.26l.9-.44c.62 1.24.93 2.49.93 3.71 0 1.21-.31 2.47-.93 3.73Z"/></svg>