<svg viewBox="0 0 24 24" xmlns="http://www.w3.org/2000/svg"><path fill="none" d="M0 0h24v24H0Z"/><path d="M8 11.5c0-.83-.67-1.5-1.5-1.5s-1.5.67-1.5 1.5 .67 1.5 1.5 1.5 1.5-.67 1.5-1.5Zm7-5c0-.83-.67-1.5-1.5-1.5h-3C9.67 5 9 5.67 9 6.5c0 .83.67 1.5 1.5 1.5h3c.83 0 1.5-.67 1.5-1.5ZM8.5 15c-.83 0-1.5.67-1.5 1.5s.67 1.5 1.5 1.5 1.5-.67 1.5-1.5 -.67-1.5-1.5-1.5ZM12 1C5.93 1 1 5.93 1 12c0 6.07 4.93 11 11 11s11-4.93 11-11 -4.93-11-11-11Zm0 20c-4.96 0-9-4.04-9-9s4.04-9 9-9 9 4.04 9 9 -4.04 9-9 9Zm5.5-11c-.83 0-1.5.67-1.5 1.5s.67 1.5 1.5 1.5 1.5-.67 1.5-1.5 -.67-1.5-1.5-1.5Zm-2 5c-.83 0-1.5.67-1.5 1.5s.67 1.5 1.5 1.5 1.5-.67 1.5-1.5 -.67-1.5-1.5-1.5Z"/></svg>