<svg viewBox="0 0 24 24" xmlns="http://www.w3.org/2000/svg"><path fill="none" d="M0 0h24v24H0Z"/><g><path opacity=".3" d="M5 19h14V5H5v14Zm8.03-11.94L14.09 6l1.41 1.41L16.91 6l1.06 1.06 -1.41 1.41 1.41 1.41 -1.06 1.06 -1.41-1.4 -1.41 1.41 -1.06-1.06 1.41-1.41 -1.41-1.42ZM13 13.25h5v1.5h-5v-1.5Zm0 2.5h5v1.5h-5v-1.5ZM6.25 7.72h5v1.5h-5v-1.5ZM6 14.5h2v-2h1.5v2h2V16h-2v2H8v-2H6v-1.5Z"/><path d="M19 3H5c-1.1 0-2 .9-2 2v14c0 1.1.9 2 2 2h14c1.1 0 2-.9 2-2V5c0-1.1-.9-2-2-2Zm0 16H5V5h14v14Z"/><path d="M6.25 7.72h5v1.5h-5Z"/><path d="M13 15.75h5v1.5h-5Z"/><path d="M13 13.25h5v1.5h-5Z"/><path d="M8 18l1.5 0 0-2 2 0 0-1.5 -2 0 0-2 -1.5 0 0 2 -2 0L6 16l2 0Z"/><path d="M14.09 10.95l1.41-1.41 1.41 1.41 1.06-1.06 -1.41-1.42 1.41-1.41L16.91 6 15.5 7.41 14.09 6l-1.06 1.06 1.41 1.41 -1.41 1.42Z"/></g></svg>