<svg viewBox="0 0 24 24" xmlns="http://www.w3.org/2000/svg" xmlns:xlink="http://www.w3.org/1999/xlink"><defs><path d="M8 8H6v7c0 1.1.9 2 2 2h9v-2H8V8Z" id="b"/><path d="M20 3h-8c-1.1 0-2 .9-2 2v6c0 1.1.9 2 2 2h8c1.1 0 2-.9 2-2V5c0-1.1-.9-2-2-2Zm0 8h-8V7h8v4Z" id="c"/><path d="M12 7h8v4h-8Z" id="a"/><path d="M4 12H2v7c0 1.1.9 2 2 2h9v-2H4v-7Z" id="d"/></defs><path fill="none" d="M0 0h24v24H0Z"/><g><use opacity=".3" xlink:href="#a"/><use xlink:href="#b"/><use xlink:href="#c"/><use xlink:href="#d"/></g><g style="display:none;"><g><use opacity=".3" xlink:href="#a"/><use xlink:href="#b"/><use xlink:href="#c"/><use xlink:href="#d"/></g></g></svg>