<svg viewBox="0 0 24 24" xmlns="http://www.w3.org/2000/svg"><path fill="none" d="M0 0h24v24H0V0Z"/><g><path opacity=".3" d="M11 6a2 2 0 1 0 0 4 2 2 0 1 0 0-4Z"/><path opacity=".3" d="M5 18h4.99L9 17l.93-.94C7.55 16.33 5.2 17.37 5 18Z"/><path d="M11 12c2.21 0 4-1.79 4-4s-1.79-4-4-4C8.79 4 7 5.79 7 8c0 2.21 1.79 4 4 4Zm0-6c1.1 0 2 .9 2 2s-.9 2-2 2 -2-.9-2-2 .9-2 2-2Zm-1 12H5c.2-.63 2.55-1.67 4.93-1.94h.03l.46-.45L12 14.06c-.39-.04-.68-.06-1-.06 -2.67 0-8 1.34-8 4v2h9l-2-2Zm10.6-5.5l-5.13 5.17 -2.07-2.08L12 17l3.47 3.5L22 13.91Z"/></g></svg>