<svg viewBox="0 0 24 24" xmlns="http://www.w3.org/2000/svg"><path fill="none" d="M0 0h24v24H0V0Z"/><path d="M12.01 2C6.49 2 2.02 6.48 2.02 12c0 5.52 4.47 10 9.99 10 5.53 0 10.01-4.48 10.01-10s-4.48-10-10.01-10Zm.01 18c-4.42 0-8-3.58-8-8s3.58-8 8-8 8 3.58 8 8 -3.58 8-8 8Zm3.5-9c.83 0 1.5-.67 1.5-1.5s-.67-1.5-1.5-1.5 -1.5.67-1.5 1.5 .67 1.5 1.5 1.5Zm-7 0c.83 0 1.5-.67 1.5-1.5s-.67-1.5-1.5-1.5 -1.5.67-1.5 1.5 .67 1.5 1.5 1.5Zm3.5 6.5c2.33 0 4.31-1.46 5.11-3.5H6.91c.8 2.04 2.78 3.5 5.11 3.5Z"/></svg>