<svg viewBox="0 0 20 20" xmlns="http://www.w3.org/2000/svg"><path fill="none" d="M0 0h20v20H0Z"/><path d="M10 3c-3.87 0-7 3.13-7 7s3.13 7 7 7 7-3.13 7-7 -3.13-7-7-7Zm-2.86 8.48v0c-.22-.1-.35-.35-.27-.59 .09-.3.13-.6.13-.91 0-.3-.05-.59-.13-.87 -.07-.24.04-.49.26-.59v0c.27-.13.6.01.69.3 .12.37.17.75.18 1.15 .01.41-.05.81-.17 1.21 -.09.29-.42.43-.69.3Zm2.22 1.05v0c-.22-.12-.31-.39-.22-.62 .24-.55.36-1.16.36-1.83 0-.69-.13-1.35-.38-1.99 -.09-.24.02-.5.25-.62v0c.27-.13.58 0 .69.28 .29.74.44 1.52.44 2.33 0 .8-.15 1.54-.43 2.21 -.12.28-.45.39-.71.24Zm2.25.97v0c-.24-.12-.34-.41-.24-.66 .42-.97.63-1.93.63-2.85 0-.92-.21-1.87-.62-2.82 -.11-.25-.01-.54.23-.66v0c.25-.13.57-.02.68.24 .47 1.08.71 2.17.71 3.24 0 1.06-.24 2.16-.71 3.27 -.11.25-.43.36-.68.24Z"/></svg>