<svg viewBox="0 0 24 24" xmlns="http://www.w3.org/2000/svg"><path fill="none" d="M0 0h24v24H0V0Z"/><path d="M10.25 13c0 .69-.56 1.25-1.25 1.25s-1.25-.56-1.25-1.25 .56-1.25 1.25-1.25 1.25.56 1.25 1.25ZM15 11.75c-.69 0-1.25.56-1.25 1.25s.56 1.25 1.25 1.25 1.25-.56 1.25-1.25 -.56-1.25-1.25-1.25Zm7 .25c0 5.52-4.48 10-10 10C6.48 22 2 17.52 2 12 2 6.48 6.48 2 12 2c5.52 0 10 4.48 10 10ZM10.66 4.12C12.06 6.44 14.6 8 17.5 8c.46 0 .91-.05 1.34-.12C17.44 5.56 14.9 4 12 4c-.46 0-.91.05-1.34.12ZM4.42 9.47c1.71-.97 3.03-2.55 3.66-4.44C6.37 6 5.05 7.58 4.42 9.47ZM20 12c0-.78-.12-1.53-.33-2.24 -.7.15-1.42.24-2.17.24 -3.13 0-5.92-1.44-7.76-3.69C8.69 8.87 6.6 10.88 4 11.86c.01.04 0 .09 0 .14 0 4.41 3.59 8 8 8s8-3.59 8-8Z"/></svg>