<svg viewBox="0 0 20 20" xmlns="http://www.w3.org/2000/svg"><path fill="none" d="M0 0h20v20H0Z"/><g><path d="M5 4.5v0c0 .28.22.5.5.5h9c.28 0 .5-.22.5-.5v0c0-.28-.22-.5-.5-.5h-9c-.28 0-.5.22-.5.5Z"/><path d="M5.5 16H9c.28 0 .5-.22.5-.5v0c0-.28-.22-.5-.5-.5H5.5c-.28 0-.5.22-.5.5v0c0 .28.22.5.5.5Z"/><path d="M5.5 13.25H9c.28 0 .5-.22.5-.5v0c0-.28-.22-.5-.5-.5H5.5c-.28 0-.5.22-.5.5v0c0 .28.22.5.5.5Z"/><path d="M5.5 7.75h9c.28 0 .5-.22.5-.5v0c0-.28-.22-.5-.5-.5h-9c-.28 0-.5.22-.5.5v0c0 .28.22.5.5.5Z"/><path d="M5.5 10.5h9c.28 0 .5-.22.5-.5v0c0-.28-.22-.5-.5-.5h-9c-.28 0-.5.22-.5.5v0c0 .28.22.5.5.5Z"/><path d="M12.17 14.59l-.35-.35c-.2-.2-.51-.2-.71 0v0c-.2.2-.2.51 0 .71l.71.71c.2.2.51.2.71 0l2.12-2.12c.2-.2.2-.51 0-.71v0c-.2-.2-.51-.2-.71 0l-1.77 1.76Z"/></g></svg>