<svg viewBox="0 0 20 20" xmlns="http://www.w3.org/2000/svg"><path fill="none" d="M0 0h20v20H0Z"/><path d="M10 7c-.43 0-.79.28-.93.66L11 9.59v-.63l.47.43c.17.16.35.3.53.43 .62.46 1.34.75 2.1.85 .3.04.55-.2.55-.5 0-.25-.19-.46-.44-.49 -.77-.1-1.49-.44-2.06-1.01L12 8.52l-1.15-1.05s-.49-.47-.85-.47Zm-1.5 9C7.12 16 6 14.88 6 13.5c0-1.21.86-2.22 2-2.45v-1c-1.69.24-3 1.69-3 3.45C5 15.43 6.57 17 8.5 17c1.76 0 3.2-1.31 3.45-3h-1c-.23 1.14-1.24 2-2.45 2ZM10 6c.83 0 1.5-.67 1.5-1.5s-.67-1.5-1.5-1.5 -1.5.67-1.5 1.5 .67 1.5 1.5 1.5Zm6.01 10.01l-.57-.57L4.37 4.37l-.38-.38c-.2-.2-.51-.2-.71 0 -.2.2-.2.51 0 .71l.23.23L9 10.41V12c0 .55.45 1 1 1h1.59l3.72 3.72c.2.2.51.2.71 0 .2-.2.19-.51-.01-.71Z"/></svg>