<svg viewBox="0 0 20 20" xmlns="http://www.w3.org/2000/svg"><path fill="none" d="M0 0h20v20H0Z"/><g><path d="M16 4H5.21l8 8h2.29c.28 0 .5.22.5.5s-.22.5-.5.5h-1.29l2.58 2.58c.12-.16.21-.36.21-.58V5c0-.55-.45-1-1-1Z"/><path d="M3.18 3.39c-.2-.2-.51-.2-.71 0 -.2.2-.2.51 0 .71l.59.59c-.03.1-.06.2-.06.31v10c0 .55.45 1 1 1h10.38l1.53 1.53c.2.2.51.2.71 0 .2-.2.2-.51 0-.71L3.18 3.39ZM8.5 12h1.88l1 1H8.5c-.28 0-.5-.22-.5-.5s.22-.5.5-.5Zm-4 0h2c.28 0 .5.22.5.5s-.22.5-.5.5h-2c-.28 0-.5-.22-.5-.5s.22-.5.5-.5Zm7 3h-7c-.28 0-.5-.22-.5-.5s.22-.5.5-.5h7c.28 0 .5.22.5.5s-.22.5-.5.5Z"/></g></svg>