<svg viewBox="0 0 24 24" xmlns="http://www.w3.org/2000/svg"><path fill="none" d="M0 0h24v24H0Z"/><path d="M20.49 20.49L3.51 3.51c-.39-.39-1.02-.39-1.41-.001v0c-.39.39-.39 1.02 0 1.41l2.31 2.31C3.57 8.55 3.05 10.08 3 11.73c-.14 5.09 3.94 9.26 9 9.26 1.76 0 3.39-.52 4.78-1.39l2.29 2.29c.39.39 1.02.39 1.41 0v0c.4-.39.4-1.02.01-1.41Zm-9.77-1.6c-2.78-.49-5.04-2.71-5.58-5.47 -.34-1.72-.03-3.36.72-4.73l9.46 9.46c-1.34.72-2.92 1.03-4.6.74ZM13 8v2.17l-2-2V8c0-.55.45-1 1-1s1 .45 1 1Zm7.72 6.23c-.23.92-.61 1.77-1.1 2.55l-1.47-1.47c.27-.5.49-1.03.63-1.59 .11-.42.51-.72.95-.72v0c.65 0 1.15.61.99 1.23ZM7.24 4.41c1.46-.93 3.18-1.45 5-1.41 2.65.07 5 1.28 6.6 3.16l1.31-1.31c.31-.31.85-.09.85.36V9.5c0 .28-.22.5-.5.5h-4.29c-.45 0-.67-.54-.35-.85l1.55-1.55C16.12 6.02 14.18 5 12 5c-1.2 0-2.33.31-3.32.85L7.24 4.41Z"/></svg>