<svg viewBox="0 0 20 20" xmlns="http://www.w3.org/2000/svg"><path fill="none" d="M0 0h20v20H0Z"/><g><path d="M8.5 6c.83 0 1.5.67 1.5 1.5C10 8.33 9.33 9 8.5 9 7.67 9 7 8.33 7 7.5 7 6.67 7.67 6 8.5 6m0-1C7.12 5 6 6.12 6 7.5 6 8.88 7.12 10 8.5 10 9.88 10 11 8.88 11 7.5 11 6.12 9.88 5 8.5 5v0Z"/><path fill-rule="evenodd" d="M10.99 9.95c.17.03.34.05.51.05 1.38 0 2.5-1.12 2.5-2.5C14 6.12 12.88 5 11.5 5c-.17 0-.34.02-.51.05 .62.63 1.01 1.5 1.01 2.45 0 .95-.39 1.82-1.01 2.45Z"/><path d="M8.5 12c2.15 0 4.38.77 4.5 1.23V14H4v-.77C4.12 12.77 6.35 12 8.5 12m0-1c-1.84 0-5.5.66-5.5 2.23V15h11v-1.77C14 11.66 10.34 11 8.5 11v0Z"/><path fill-rule="evenodd" d="M13.73 11.23c.75.48 1.27 1.12 1.27 2V15h2v-1.77c0-1.05-1.64-1.69-3.27-2Z"/></g></svg>