<svg viewBox="0 0 20 20" xmlns="http://www.w3.org/2000/svg"><path fill="none" d="M0 0h20v20H0Z"/><g><path d="M12.92 7.68l-.5-.87c-.03-.06-.1-.08-.15-.06l-.62.25c-.13-.1-.27-.18-.42-.24l-.09-.66c-.02-.06-.08-.1-.14-.1h-1c-.06 0-.11.04-.12.11l-.1.66c-.15.06-.29.15-.42.24l-.62-.25c-.06-.02-.12 0-.15.06l-.5.87c-.03.05-.02.12.03.15l.53.41c-.02.08-.03.17-.03.25 0 .08.01.17.02.24l-.52.42c-.05.03-.06.1-.04.16l.5.87c.03.06.1.08.15.06l.62-.25c.13.1.27.18.42.24l.09.66c.03.06.08.1.14.1h1c.06 0 .12-.04.12-.11l.09-.66c.15-.06.29-.15.42-.24l.62.25c.06.02.12 0 .15-.06l.5-.87c.03-.06.02-.12-.03-.16l-.52-.41c.01-.08.02-.16.02-.24 0-.08-.01-.17-.02-.24l.53-.41c.05-.04.06-.11.04-.17ZM10.5 9.5c-.55 0-1-.45-1-1s.45-1 1-1 1 .45 1 1 -.45 1-1 1Z"/><path d="M10.5 4C8.19 4 6.3 5.75 6.05 8l-1.53 2.22c-.22.33.01.78.41.78H6v2c0 .55.45 1 1 1h1v2h5v-3.76c1.21-.81 2-2.18 2-3.74C15 6.01 12.99 4 10.5 4Zm1.5 7.65V15H9v-2H7v-3H5.89l1.13-1.64C7.09 6.5 8.61 5 10.5 5 12.43 5 14 6.57 14 8.5c0 1.39-.82 2.59-2 3.15Z"/></g></svg>