<svg viewBox="0 0 512 512" xmlns="http://www.w3.org/2000/svg"><path d="M504 256c0 136.96-111.04 248-248 248C119.03 504 8 392.96 8 256 8 119.03 119.033 8 256 8c136.96 0 248 111.033 248 248Zm-141.651-35.33c4.93-33-20.2-50.74-54.55-62.58l11.14-44.702 -27.22-6.79 -10.86 43.524c-7.16-1.79-14.51-3.47-21.81-5.13l10.92-43.81 -27.2-6.79 -11.16 44.68c-5.93-1.35-11.74-2.69-17.38-4.09l.03-.14 -37.53-9.37 -7.24 29.06s20.19 4.62 19.76 4.91c11.02 2.75 13.01 10.04 12.68 15.82l-12.7 50.92c.76.19 1.74.47 2.82.9 -.91-.23-1.88-.48-2.88-.72l-17.8 71.33c-1.35 3.34-4.77 8.37-12.48 6.46 .27.39-19.78-4.94-19.78-4.94l-13.51 31.14 35.414 8.82c6.58 1.65 13.04 3.37 19.4 5l-11.262 45.21 27.18 6.78 11.15-44.74 0-.001c7.2 1.95 14.43 3.82 21.68 5.62l-11.12 44.52 27.21 6.78 11.262-45.13c46.4 8.78 81.29 5.23 95.98-36.73 11.83-33.79-.59-53.29-25.01-66 17.78-4.1 31.17-15.8 34.74-39.95Zm-62.18 87.17c-8.41 33.79-65.31 15.52-83.755 10.94l14.94-59.899c18.44 4.6 77.6 13.71 68.811 48.95Zm8.41-87.667c-7.68 30.73-55.04 15.12-70.393 11.29l13.54-54.327c15.36 3.82 64.83 10.97 56.845 43.035Z"/></svg>