<svg viewBox="0 0 448 512" xmlns="http://www.w3.org/2000/svg"><path d="M289.6 97.5l31.6 31.7 -76.3 76.5V97.5Zm-162.4 31.7l76.3 76.5V97.5h-44.7Zm41.5-41.6h44.7v127.9l10.8 10.8 10.8-10.8V87.6h44.7L224.2 32Zm26.2 168.1l-10.8-10.8H55.5v-44.8L0 255.7l55.5 55.6v-44.8h128.6l10.8-10.8Zm79.3-20.7h107.9v-44.8l-31.6-31.7Zm173.3 20.7L392 200.1v44.8H264.3l-10.8 10.8 10.8 10.8H392v44.8l55.5-55.6ZM65.4 176.2l32.5-31.7 90.3 90.5h15.3v-15.3l-90.3-90.5 31.6-31.7H65.4Zm316.7-78.7h-78.5l31.6 31.7 -90.3 90.5V235h15.3l90.3-90.5 31.6 31.7ZM203.5 413.9V305.8l-76.3 76.5 31.6 31.7h44.7ZM65.4 235h108.8l-76.3-76.5 -32.5 31.7Zm316.7 100.2l-31.6 31.7 -90.3-90.5h-15.3v15.3l90.3 90.5 -31.6 31.7h78.5Zm0-58.8H274.2l76.3 76.5 31.6-31.7Zm-60.9 105.8l-76.3-76.5v108.1h44.7ZM97.9 352.9l76.3-76.5H65.4v44.8Zm181.8 70.9H235V295.9l-10.8-10.8 -10.8 10.8v127.9h-44.7l55.5 55.6Zm-166.5-41.6l90.3-90.5v-15.3h-15.3l-90.3 90.5 -32.5-31.7v78.7h79.4Z"/></svg>