<svg viewBox="0 0 576 512" xmlns="http://www.w3.org/2000/svg"><path d="M550.5 241l-50.089-86.786c1.07-2.15 1.875-4.56 1.875-7.24 0-8.04-6.7-14.74-14.74-15.01l-55.447-95.893c.53-1.61 1.07-3.22 1.07-4.83 0-8.58-6.97-15.268-15.27-15.268 -4.83 0-8.84 2.14-11.79 5.625H299.49c-2.68-3.49-6.7-5.63-11.52-5.63 -4.83 0-8.84 2.14-11.52 5.62H170.388c-2.95-3.49-6.97-5.63-11.79-5.63 -8.31 0-15.268 6.696-15.268 15.26 0 1.6.53 3.48 1.07 4.82L88.41 133.27c-5.36 2.41-9.107 7.5-9.107 13.66 0 .53.26 1.07.26 1.6l-53.31 92.143c-7.24 1.33-12.59 7.5-12.59 15 0 7.23 5.08 13.39 12.05 15l55.17 95.358c-.54 1.6-.81 2.94-.81 4.82 0 7.23 5.08 13.39 12.05 14.73l51.69 89.73c-.54 1.6-1.08 3.48-1.08 5.35 0 8.57 6.96 15.26 15.268 15.26 4.82 0 8.83-2.15 11.518-5.36h106.87c2.67 3.21 6.96 5.35 11.51 5.35s8.83-2.15 11.51-5.36h107.14c2.67 2.94 6.69 4.82 10.98 4.82 8.57 0 15.26-6.97 15.26-15.27 0-1.61-.27-2.95-.81-4.29l51.697-90.27c6.96-1.34 12.05-7.5 12.05-14.74 0-1.61-.27-3.22-.81-4.83l54.91-95.358c6.96-1.34 12.32-7.5 12.32-15 -.01-7.24-5.1-13.393-11.79-14.732ZM153.53 450.73l-43.66-75.803h43.66v75.803Zm0-83.84h-43.66c-.27-1.08-.81-2.15-1.34-3.22l44.99-47.41v50.62Zm0-62.42l-50.36 53.3c-1.34-.54-2.68-1.34-4.02-1.61l-55.72-96.43c.53-1.34.53-2.68.53-4.02 0-1.34 0-2.41-.27-3.49l51.965-90c2.67-.27 5.35-1.08 7.76-2.68L153.5 211.5v92.94Zm0-102.322l-45.81-47.41c1.33-2.15 2.14-4.83 2.14-7.77 0-.27-.27-.81-.27-1.08l43.92-15.81v72.053Zm0-80.63l-43.66 15.8 43.66-75.536v59.732Zm326.51 39.1l.8 1.33 -35.36 167.14 -63.75-67.24 98.036-101.518 .26.26Zm-188.31 194.464l11.51 11.78h-22.77l11.25-11.79Zm-.27-11.25l-83.31-85.45 79.55-84.375 83.036 87.589 -79.286 82.23Zm5.35 5.89l79.286-82.24 67.5 71.25 -5.9 28.125H313.68l-16.875-17.15ZM410.38 44.36c1.07.53 2.14 1.07 3.48 1.34l57.85 100.714v.53c0 2.94.8 5.62 2.14 7.76l-97.5 101.25 -83.04-87.589L410.36 44.34Zm-9.11-2.15L287.7 162.48l-57.06-60.268 166.33-60h4.28Zm-123.483 0c2.67 2.67 6.16 4.28 10.17 4.28s7.5-1.61 10.17-4.29h75L224.73 95.77 173.83 42.2H277.76ZM161.54 47.83l1.07-2.15 -.001 0c.9-.24 1.79-.5 2.67-.81l51.161 53.84 -54.911 19.82V47.82Zm0 79.286l60.803-21.964 59.732 63.214 -79.56 84.107 -40.982-42.053V127.12Zm0 92.678l36.42 37.76 -36.428 38.3v-76.08Zm0 87.858l42.053-44.464 82.76 85.98 -17.15 17.67H161.52v-59.2Zm6.96 162.053c-1.61-1.61-3.49-2.68-5.9-3.49l-1.08-1.61v-89.74h99.91l-91.61 94.82h-1.34Zm129.91 0c-2.68-2.41-6.43-4.29-10.45-4.29s-7.77 1.875-10.45 4.28h-96.43l91.6-94.83h38.3l91.6 94.82h-104.2Zm120-11.79l-4.29 7.5c-1.34.26-2.41.8-3.49 1.33l-89.2-91.875h114.37l-17.42 83.03Zm12.85-22.24l12.85-60.803h21.964L431.25 435.68Zm34.822-68.84h-20.36l4.55-21.16 17.14 18.21c-.54.8-1.08 1.87-1.34 2.94Zm66.16-107.42l-55.45 96.697c-1.34.53-2.68 1.07-4.02 1.87l-20.625-21.97 34.55-163.93 45.8 79.286c-.27 1.33-.81 2.67-.81 4.28 0 1.33.26 2.41.53 3.75Z"/></svg>