<svg viewBox="0 0 448 512" xmlns="http://www.w3.org/2000/svg"><path d="M298.93 267h0c-7.44-4.18-15.84-6.33-24.36-6.21q-19.83 0-33.44 13.27t-13.61 33.42q0 21.16 13.28 34.6 13.28 13.44 33.43 13.44 20.5 0 34.11-13.78t13.66-34.27h0c.04-8.23-2.06-16.32-6.1-23.47v0c-3.98-7.13-9.86-13.02-16.97-17ZM0 32v448h448V32Zm374.71 373.26h-53.1v-23.89h-.67q-15.79 26.2-55.78 26.2 -27.56 0-48.89-13.1l-.001-.001c-14.12-8.61-25.53-21-32.94-35.77q-11.6-22.68-11.59-50.89 0-27.56 11.76-50.22v0c7.48-14.73 18.87-27.11 32.93-35.78q21.18-13.09 47.72-13.1v-.001c10.15-.15 20.24 1.62 29.74 5.21q13.28 5.21 25 17v-77.92l55.79-12.09Z"/></svg>