<svg viewBox="0 0 496 512" xmlns="http://www.w3.org/2000/svg"><path d="M248 43.4C130.6 43.4 35.4 138.6 35.4 256 35.39 373.4 130.6 468.6 248 468.6c117.4 0 212.6-95.2 212.6-212.6 0-117.4-95.2-212.6-212.6-212.6Zm-97.4 132.9c0-53.7 43.7-97.4 97.4-97.4s97.4 43.7 97.4 97.4v26.6c0 5-3.9 8.9-8.9 8.9h-17.7c-5 0-8.9-3.9-8.9-8.9v-26.6c0-82.1-124-82.1-124 0v26.6c0 5-3.9 8.9-8.9 8.9h-17.7c-5 0-8.9-3.9-8.9-8.9v-26.6ZM389.7 380c0 9.7-8 17.7-17.7 17.7H124c-9.7 0-17.7-8-17.7-17.7V238.3c0-9.7 8-17.7 17.7-17.7h248c9.7 0 17.7 8 17.7 17.7V380Zm-248-137.3v132.9c0 2.5-1.9 4.4-4.4 4.4h-8.9c-2.5 0-4.4-1.9-4.4-4.4V242.7c0-2.5 1.9-4.4 4.4-4.4h8.9c2.5 0 4.4 1.9 4.4 4.4Zm141.7 48.7c0 13-7.2 24.4-17.7 30.4v31.6c0 5-3.9 8.9-8.9 8.9h-17.7c-5 0-8.9-3.9-8.9-8.9v-31.6c-10.5-6.1-17.7-17.4-17.7-30.4 0-19.7 15.8-35.4 35.4-35.4 19.6 0 35.5 15.8 35.5 35.4ZM248 8c-137 0-248 111-248 248s111 248 248 248 248-111 248-248C496 119 385 8 248 8Zm0 478.3C121 486.3 17.7 383 17.7 256 17.7 129 121 25.7 248 25.7 375 25.7 478.3 129 478.3 256c0 127-103.3 230.3-230.3 230.3Z"/></svg>