<svg viewBox="0 0 512 512" xmlns="http://www.w3.org/2000/svg"><path d="M256.55 8C116.52 8 8 110.34 8 248.57c0 72.3 29.71 134.78 78.07 177.94 8.35 7.51 6.63 11.86 8.05 58.23v-.001c.37 10.99 9.59 19.6 20.59 19.22 2.51-.09 4.98-.65 7.28-1.66 52.91-23.3 53.59-25.14 62.56-22.7 153.29 42.19 319.44-55.91 319.44-231.04 0-138.23-107.41-240.57-247.45-240.57Zm149.24 185.13l-73 115.57v-.001c-11.06 17.42-34.15 22.59-51.58 11.53 -.8-.51-1.58-1.05-2.34-1.61l-58.08-43.47v0c-5.34-4-12.67-4-18 0l-78.37 59.44c-10.46 7.93-24.16-4.6-17.11-15.67l73-115.57v0c11.04-17.43 34.13-22.6 51.55-11.56 .8.51 1.58 1.05 2.35 1.62l58.06 43.46v0c5.33 4 12.66 4 18 0l78.41-59.38c10.44-7.98 24.14 4.54 17.09 15.62Z"/></svg>