<svg viewBox="0 0 512 512" xmlns="http://www.w3.org/2000/svg"><path d="M130.22 127.548c.16.01.08.01 0 0v0Zm351.42 45.35c-10.61-25.5-32.08-53-48.94-61.73 13.72 26.89 21.67 53.88 24.7 74 0 .13.02.27.05.41 -27.58-68.75-74.36-96.47-112.55-156.84 -15-23.69-10.93-25.23-13.08-24.66l-.12.07c-46.71 25.95-75.34 78.37-82.58 122.74 -16.62.87-32.91 4.99-47.93 12.137 -1.36.61-2.46 1.67-3.13 2.99 -.67 1.32-.87 2.83-.56 4.29 .19.83.56 1.62 1.08 2.31 .51.68 1.17 1.26 1.92 1.67 .75.41 1.58.67 2.44.75 .85.07 1.72-.03 2.53-.31l.52-.21c15.5-7.31 32.39-11.17 49.53-11.32 62.82-.57 97.15 44.024 107.62 62.29 -13-9.15-36.35-18.19-58.82-14.28 87.74 43.86 64.2 194.536-57.39 189.2 -59.464-2.61-97.07-50.99-100.53-90.8 0 0 11.25-41.95 80.62-41.95 7.5 0 28.93-20.92 29.33-27 -.09-2-42.54-18.88-59.09-35.18 -8.85-8.72-13.06-12.91-16.77-16.06 -2.02-1.71-4.12-3.3-6.31-4.77 -5.57-19.46-5.81-40.05-.7-59.63 -25.06 11.41-44.55 29.45-58.71 45.37h-.12c-9.67-12.25-9-52.66-8.43-61.09 -.12-.53-7.23 3.66-8.15 4.31 -8.57 6.05-16.55 12.89-23.84 20.43 -16.3 16.6-44.14 50.15-55.5 101.23 -4.536 20.38-6.76 44.42-6.76 52.3 0 134.7 109.21 243.89 243.92 243.89 120.64 0 223.01-87.23 240.43-202.62 11.57-76.7-14.71-131.068-14.71-131.99Z"/></svg>