<svg viewBox="0 0 448 512" xmlns="http://www.w3.org/2000/svg"><path d="M439.55 236.05L244 40.45v0c-11.28-11.27-29.54-11.27-40.81 0l-40.66 40.63 51.52 51.52c27.06-9.14 52.68 16.77 43.39 43.68l49.66 49.66c34.23-11.8 61.18 31 35.47 56.69 -26.49 26.49-70.21-2.87-56-37.34L240.22 199v121.85c25.3 12.54 22.26 41.85 9.08 55v0c-13.41 13.4-35.15 13.4-48.55 0 -17.57-17.6-11.07-46.91 11.25-56v-123c-20.8-8.51-24.6-30.74-18.64-45L142.57 101 8.45 235.14h0c-11.27 11.27-11.27 29.53-.001 40.81l195.61 195.6h0c11.26 11.26 29.53 11.26 40.8 0l194.69-194.69v0c11.26-11.28 11.26-29.54 0-40.81Z"/></svg>