<svg viewBox="0 0 512 512" xmlns="http://www.w3.org/2000/svg"><path d="M483.04 159.706c10.85-24.58 21.42-60.438 21.42-87.871 0-72.722-79.65-98.371-209.68-38.577C187.14 26.06 83.55 106.928 57.68 219.7c30.85-34.87 78.27-82.298 121.977-101.16C125.37 166.83 79.09 227.98 43.96 291.7c-20.75 37.92-44 99.21-44 145.02 0 98.57 92.854 86.5 180.251 42 31.42 15.43 66.559 15.57 101.69 15.57 97.12 0 184.24-54.3 216.81-146.03H377.88c-52.51 88.59-196.819 52.99-196.819-47.44h328.79c6.4-43.59-1.66-95.715-26.851-141.162ZM64.55 346.876c17.71 51.15 53.7 95.87 100.26 123.3 -88.75 48.94-173.267 29.09-100.266-123.31Zm115.97-108.88c2-55.16 50.27-94.88 103.98-94.88 53.41 0 101.981 39.72 103.981 94.87H180.52ZM365.05 50.39C386.47 40.1 413.61 28.39 437.6 28.39c31.42 0 54.274 21.717 54.274 53.72 0 20.003-7.43 49-14.57 67.867 -26.28-42.292-65.99-81.584-112.27-99.586Z"/></svg>