<svg viewBox="0 0 512 512" xmlns="http://www.w3.org/2000/svg"><path d="M504.4 115.83v0c-.08-.24-.18-.46-.28-.68v0c-.15-.44-.33-.85-.53-1.25v-.001c-.17-.25-.35-.49-.54-.71v0c-.22-.33-.47-.65-.72-.94 -.23-.22-.52-.4-.77-.6v0c-.29-.25-.59-.48-.9-.68L404.4 55.54v0c-2.48-1.43-5.53-1.43-8 0l-96.28 55.45v0l-.001 0c-.31.2-.61.43-.88.69v0c-.28.18-.54.38-.78.6v-.001c-.27.29-.51.6-.72.93 -.17.24-.39.45-.54.71v0c-.21.4-.38.82-.52 1.25 -.08.23-.21.44-.28.68v-.001c-.19.67-.28 1.37-.28 2.08v105.24l-80.22 46.19V63.43h-.001c0-.71-.1-1.41-.28-2.09 -.06-.24-.2-.45-.28-.68v0c-.14-.43-.32-.85-.52-1.24 -.14-.26-.37-.47-.54-.72h-.001c-.22-.33-.47-.65-.72-.94v0c-.25-.22-.51-.42-.78-.6v0c-.29-.25-.58-.48-.88-.68v0L115.6 1.06V1.06c-2.48-1.43-5.53-1.43-8 0L11.33 56.48v0 0c-.32.2-.61.43-.88.69v0c-.28.18-.54.38-.79.6h0c-.26.29-.5.6-.71.93 -.18.25-.4.46-.55.72h0c-.21.39-.38.81-.51 1.24l0 0c-.11.21-.21.44-.29.67H7.6c-.19.68-.28 1.39-.28 2.1v329.7h0c-.01 2.86 1.51 5.51 4 6.95l192.5 110.84 -.001-.001c.42.21.87.39 1.33.54 .21.08.41.2.63.26h-.001c1.34.35 2.75.35 4.1 0 .2-.05.37-.16.55-.22v0c.48-.16.95-.35 1.4-.58l192.56-110.84v0c2.48-1.44 4-4.09 4-6.95V287.87l92.24-53.11v0c2.49-1.45 4.02-4.12 4-7V117.91v0c0-.71-.08-1.41-.24-2.09ZM111.6 17.28v0l80.19 46.15 -80.2 46.18 -80.18-46.17Zm88.25 60V278.6l-46.53 26.79 -33.69 19.4V123.5l46.53-26.79Zm0 412.78L23.37 388.5V77.32L57.06 96.7l46.52 26.8v215.18 0c.02.3.06.6.12.9v0c.02.39.07.79.16 1.18v0 0c.1.3.22.61.38.9v0c.11.34.25.67.42 1v0 0c.18.27.38.53.6.78h-.001c.2.29.42.57.66.84v0c.23.22.52.38.77.58l0-.001c.27.23.56.45.86.66v0 0l92.19 52.18Zm8-106.17l-80.06-45.32 84.09-48.41 92.26-53.11 80.13 46.13 -58.8 33.56Zm184.52 4.57L215.88 490.11V397.8l130.72-74.6 45.77-26.15Zm0-119.13L358.68 250l-46.53-26.79v-91.42l33.69 19.4L392.37 178Zm8-105.28l-80.2-46.17 80.2-46.16 80.18 46.15Zm8 105.28V178L455 151.19l33.68-19.4v91.39 0Z"/></svg>