<svg viewBox="0 0 448 512" xmlns="http://www.w3.org/2000/svg"><path d="M366.03 186.86l-59.5 36.87 -.84 36.87 -29.33-19.28 -39.39 24.3c2.23 55.21 2.48 59.27 2.51 59.5l-97.2 65.35 -15.09-104.75 108.1-62.01 -40.23-25.98 -75.42 38.547L98.69 92.98 227.73 43.53 136.39-.04 10.69 39.34l27.65 134.91 41.9 32.68L48.4 222.01 69.34 323.4l29.32 27.65 -20.95 12.56 16.76 78.769 66.19 69.55c-10.8-74.85-11.66-78.65-11.73-78.78l77.92-55.3c16.75-12.57 15.08-10.9 15.08-10.9l.83 24.3 33.51 28.49 -.84-77.1 46.92-33.52 26.81-18.44 -2.52 36.03 25.13 17.6 6.7-74.58 58.65-43.58Z"/></svg>