<svg viewBox="0 0 448 512" xmlns="http://www.w3.org/2000/svg"><path d="M399.36 362.23c29.49-34.69 47.1-78.34 47.1-125.79C446.45 123.49 346.86 32 224 32 101.14 32 1.54 123.49 1.54 236.44c0 112.95 99.6 204.43 222.46 204.43h0c27.04.04 53.91-4.51 79.44-13.44v-.001c2.97-1.02 6.26.02 8.12 2.56 18.58 25.09 47.61 42.74 79.89 49.92h-.001c2.38.49 4.72-1.05 5.22-3.43v0c.26-1.28-.05-2.61-.85-3.62v-.001c-25.45-33.02-23.9-79.45 3.69-110.69ZM329.52 212.4l-57.3 43.49L293 324.75v0c1.04 3.43-.9 7.06-4.33 8.1 -1.91.57-3.98.25-5.62-.89l-59.06-41.05 -59.06 41.08v0c-2.96 2.05-7.01 1.32-9.07-1.63 -1.14-1.64-1.47-3.69-.89-5.6l20.79-68.86 -57.3-43.49v0c-2.87-2.17-3.43-6.25-1.26-9.11 1.2-1.59 3.06-2.54 5.05-2.58l71.88-1.51 23.66-67.92v-.001c1.17-3.4 4.88-5.19 8.27-4.01 1.87.65 3.35 2.12 4 4l23.66 67.92 71.88 1.51v0c3.58.02 6.47 2.95 6.45 6.54 -.02 2.01-.97 3.91-2.58 5.13Z"/></svg>