<svg viewBox="0 0 512 512" xmlns="http://www.w3.org/2000/svg"><path d="M455.6 349.2c-45.9-39.09-36.67-77.88-16.1-128.11C475.15 134.04 415.96 34.14 329.92 8.3 237.03-19.6 134.24 24.34 99.66 117.14l-.001 0c-8.72 23.48-12.46 48.53-10.99 73.54 1.73 29.54 14.71 52.97 24.09 80.3 17.2 50.16-28.1 92.74-66.67 117.582 -46.81 30.2-36.319 39.85-8.43 41.85 23.378 1.68 44.47-4.55 65.26-15.05 9.2-4.65 40.68-18.94 45.13-28.59 -12.19 26.59-36.97 72.7-21.47 102.1 19.1 36.22 67.112-31.77 76.7-45.82 8.59-12.58 42.96-81.279 63.62-46.93 18.86 31.36 8.6 76.39 35.73 104.62 32.85 34.2 51.15-18.32 51.41-44.23 .16-16.42-6.1-95.86 29.9-59.95 21.42 21.38 52.9 71.18 88.56 67.02 38.73-4.52-22.13-67.97-28.27-78.7 5.39 4.27 53.66 34.12 53.81 9.52 .11-18.79-30.09-34.67-42.53-45.27Z"/></svg>