<svg viewBox="0 0 512 512" xmlns="http://www.w3.org/2000/svg"><path d="M313.6 474.6h-1v0c-87.32 0-158.1-70.79-158.1-158.1 0-87.32 70.78-158.1 158.1-158.1 94.9 0 168.2 83.1 157 176.6 4 5.1 8.2 9.6 11.2 15.3 13.4-30.3 20.3-62.4 20.3-97.7C501.1 117.5 391.6 8 256.5 8 121.4 8 12 117.5 12 252.6c0 135.1 109.5 244.6 244.5 244.6v0c23.84.18 47.57-3.22 70.4-10.1 -5.2-3.5-8.9-8.1-13.3-12.5Zm-.1-.1l.4.1Zm78.4-168.9v0c-54.79 0-99.2 44.41-99.2 99.2 0 54.78 44.41 99.2 99.2 99.2 54.78 0 99.2-44.42 99.2-99.2h0c.01-54.78-44.39-99.19-99.16-99.2 -.02-.01-.03-.01-.05 0Z"/></svg>