<svg viewBox="0 0 448 512" xmlns="http://www.w3.org/2000/svg"><path d="M289.67 274.89l-.001 0c0 36.21-29.35 65.57-65.56 65.58 -36.22 0-65.58-29.35-65.58-65.56 -.01-36.22 29.34-65.58 65.56-65.58 0-.01.01-.01.01 0v0c36.18.04 65.51 29.37 65.56 65.56Zm139.55-5.05h-.13 0c-1.41-59.37-28.53-115.2-74.32-153l-45.38 26.2v0c44.74 28.92 71.78 78.55 71.81 131.84C381.19 361.5 310.73 432 224.11 432 137.49 432 67 361.5 67 274.88c0-81.88 63-149.27 143-156.43v39.12l108.77-62.79L210 32v38.32c-106.7 7.25-191 96-191 204.57 0 111.59 89.12 202.29 200.06 205v.11h210.16V269.84Z"/></svg>