<svg viewBox="0 0 640 512" xmlns="http://www.w3.org/2000/svg"><path d="M539.71 237.3c3.06-12.26 4.29-24.83 4.29-37.39 0-92.55-75.382-167.93-167.93-167.93 -77.22 0-144.64 53.012-163.02 127.781 -15.33-13.18-34.94-20.53-55.16-20.53 -46.28 0-83.97 37.69-83.97 83.96 0 7.35.92 15.01 3.06 22.369C34.08 265.78 6.19 309.298 6.19 356.79c-.01 68.02 55.46 123.18 123.18 123.18h381.198c67.72 0 123.18-55.16 123.18-123.19 0-56.39-38.92-106.03-94.08-119.51ZM199.88 401.54c0 8.27-7.05 15.32-15.33 15.32H153.6c-8.28 0-15.33-7.05-15.33-15.33V290.6c0-8.28 7.04-15.33 15.32-15.33h30.94c8.27 0 15.32 7.04 15.32 15.32V401.52Zm89.47 0c0 8.27-7.05 15.32-15.33 15.32h-30.95c-8.28 0-15.33-7.05-15.33-15.33v-131.46c0-8.28 7.04-15.33 15.32-15.33H274c8.27 0 15.32 7.04 15.32 15.32v131.45Zm89.47 0c0 8.27-7.05 15.32-15.33 15.32h-30.95c-8.28 0-15.33-7.05-15.33-15.33V238.81c0-8.28 7.04-15.33 15.32-15.33h30.94c8.27 0 15.32 7.04 15.32 15.32v162.71Zm87.02 0c0 8.27-7.05 15.32-15.33 15.32h-28.5c-8.28 0-15.33-7.05-15.33-15.33V176.91c0-8.58 7.04-15.63 15.32-15.63h28.49c8.27 0 15.32 7.04 15.32 15.62v224.61Z"/></svg>