<svg viewBox="0 0 448 512" xmlns="http://www.w3.org/2000/svg"><path d="M100 410.3l30.6 13.4 4.4-9.9 -30.6-13.4Zm39.4 17.5l30.6 13.4 4.4-9.9 -30.6-13.4Zm172.1-14l4.4 9.9 30.6-13.4 -4.4-9.9ZM179.1 445l30.3 13.7 4.4-9.9 -30.3-13.4ZM60.4 392.8L91 406.2l4.4-9.6 -30.6-13.7Zm211.4 38.5l4.4 9.9 30.6-13.4 -4.4-9.9Zm-39.3 17.5l4.4 9.9 30.6-13.7 -4.4-9.6Zm118.4-52.2l4.4 9.6 30.6-13.4 -4.4-9.9ZM170 46.6h-33.5v10.5H170Zm-47.2 0H89.2v10.5h33.5Zm-47.3 0H42.3v10.5h33.3Zm141.5 0h-33.2v10.5H217Zm94.5 0H278v10.5h33.5Zm47.3 0h-33.5v10.5h33.5Zm-94.6 0H231v10.5h33.2Zm141.5 0h-33.3v10.5h33.3ZM52.8 351.1H42v33.5h10.8Zm70-215.9H89.2v10.5h33.5Zm-70 10.6h22.8v-10.5H42v33.5h10.8Zm168.9 228.6c50.5 0 91.3-40.8 91.3-91.3 0-50.2-40.8-91.3-91.3-91.3 -50.2 0-91.3 41.1-91.3 91.3 0 50.5 41.1 91.3 91.3 91.3Zm-48.2-111.1c0-25.4 29.5-31.8 49.6-31.8 16.9 0 29.2 5.8 44.3 12l-8.8 16.9h-.9c-6.4-9.9-24.8-13.1-35.6-13.1 -9 0-29.8 1.8-29.8 14.9 0 21.6 78.5-10.2 78.5 37.9 0 25.4-31.5 31.2-51 31.2 -18.1 0-32.4-2.9-47.2-12.2l9-18.4h.9c6.1 12.2 23.6 14.9 35.9 14.9 8.7 0 32.7-1.2 32.7-14.3 0-26.1-77.6 6.3-77.6-38ZM52.8 178.4H42V212h10.8Zm342.4 206.2H406v-33.5h-10.8ZM52.8 307.9H42v33.5h10.8ZM0 3.7v406l221.7 98.6L448 409.7V3.7Zm418.8 387.1L222 476.5 29.2 390.8V120.7h389.7v270.1Zm0-299.3H29.2V32.9h389.7v58.6Zm-366 130.1H42v33.5h10.8Zm0 43.2H42v33.5h10.8ZM170 135.2h-33.5v10.5H170Zm225.2 163.1H406v-33.5h-10.8Zm0-43.2H406v-33.5h-10.8ZM217 135.2h-33.2v10.5H217ZM395.2 212H406v-33.5h-10.8Zm0 129.5H406V308h-10.8Zm-131-206.3H231v10.5h33.2Zm47.3 0H278v10.5h33.5Zm83.7 33.6H406v-33.5h-33.5v10.5h22.8Zm-36.4-33.6h-33.5v10.5h33.5Z"/></svg>