<svg viewBox="0 0 512 512" xmlns="http://www.w3.org/2000/svg"><path d="M403.5 455.41v0C360.86 487.09 309.12 504.14 256 504 118.81 504 8 393 8 256 8 118.81 119 8 256 8l-.001-.001c61.18-.06 120.21 22.57 165.7 63.5v0c1.45 1.32 1.56 3.58.23 5.04 -.79.86-1.94 1.28-3.1 1.13l-.001-.001c-18.8-2.51-37.75-3.74-56.71-3.68 -129.36 0-222.4 53.47-222.4 155.35 0 109 92.13 145.88 176.83 178.73 33.64 13 65.4 25.36 87 41.59v0c1.57 1.18 1.89 3.43.7 5.01 -.21.26-.44.5-.71.7ZM503 233.09v-.001c-.09-.95-.55-1.83-1.27-2.44 -51.76-43-93.62-60.48-144.48-60.48 -84.13 0-80.25 52.17-80.25 53.63 0 42.6 52.06 62 112.34 84.49 31.07 11.59 63.19 23.57 92.68 39.93v-.001c1.73.93 3.9.27 4.83-1.47 .06-.12.11-.24.16-.36h0c14.05-36.02 19.52-74.82 15.98-113.31Z"/></svg>