<svg viewBox="0 0 448 512" xmlns="http://www.w3.org/2000/svg"><path d="M384 32H64v0C28.65 32 0 60.65 0 96v320 0c0 35.34 28.65 64 64 64h320v0c35.34 0 64-28.66 64-64V96v0c0-35.35-28.66-64-64-64Zm-3.91 319.309l-.09.1v0c-2.5 2.75-5.45 5.06-8.72 6.82h0c-6.5 3.56-13.42 6.32-20.59 8.2v0c-1.38.36-2.68.96-3.86 1.76 -2.16 1.9-2.1 4.64-4.4 8.55h0c-1.71 2.96-4.04 5.51-6.84 7.47 -6.71 4.63-14.25 4.92-22.23 5.23 -7.22.27-15.39.58-24.73 3.66 -3.77 1.24-7.76 3.69-12.38 6.53 -11.27 6.9-26.68 16.35-52.3 16.35 -25.62 0-40.93-9.4-52.11-16.28 -4.66-2.89-8.68-5.37-12.55-6.64 -9.34-3.08-17.52-3.4-24.73-3.67 -7.99-.31-15.53-.6-22.24-5.23l0 0c-2.37-1.65-4.41-3.72-6.01-6.11 -3.2-4.64-2.86-7.8-5.26-9.9v-.001c-1.26-.84-2.65-1.46-4.1-1.84l-.001 0c-7.08-1.88-13.9-4.61-20.32-8.13h0c-3.09-1.65-5.89-3.77-8.3-6.29 -6.59-6.76-8.28-14.78-5.686-21.83 3.436-9.34 11.57-12.12 19.4-16.262 14.77-8.03 26.348-18.06 34.43-29.89h0c2.3-3.34 4.3-6.88 5.98-10.57 .78-2.16.77-3.33.24-4.42v0c-.57-.89-1.33-1.65-2.21-2.22 -2.54-1.68-5.12-3.36-6.89-4.5 -3.27-2.15-5.87-3.82-7.53-4.98 -6.27-4.39-10.65-9.04-13.4-14.25h-.001c-3.86-7.29-4.36-15.9-1.37-23.59 4.134-10.93 14.46-17.71 26.97-17.71v0c2.63-.01 5.26.27 7.84.83 .68.15 1.37.3 2.04.48 -.11-7.43.05-15.357.72-23.119 2.35-27.27 11.91-41.589 21.87-52.994l0-.001c6.38-7.17 13.91-13.23 22.28-17.94 15.13-8.63 32.19-13.02 50.88-13.02 18.68 0 35.82 4.38 50.94 13.01h-.001c8.34 4.7 15.86 10.75 22.23 17.9 9.96 11.4 19.51 25.7 21.87 52.99v0c.62 7.68.86 15.4.71 23.11 .67-.18 1.36-.34 2.05-.49l0-.001c2.57-.56 5.2-.84 7.84-.83 12.5 0 22.82 6.78 26.97 17.7v0c2.97 7.68 2.46 16.28-1.4 23.55 -2.74 5.2-7.13 9.86-13.39 14.24 -1.67 1.18-4.26 2.86-7.53 4.98 -1.84 1.18-4.55 2.94-7.17 4.68v0c-.79.53-1.45 1.22-1.96 2.03 -.51 1.04-.54 2.19.16 4.2l0-.001c1.7 3.77 3.73 7.38 6.08 10.79 8.26 12.1 20.18 22.31 35.45 30.4 1.48.77 2.98 1.5 4.44 2.25 .72.33 1.56.76 2.49 1.3 4.9 2.72 9.2 6.01 11.45 12.15 2.52 6.87.97 14.65-5.21 21.26Zm-16.72-18.47c-50.32-24.32-58.34-61.92-58.69-64.75 -.44-3.38-.93-6.04 2.8-9.48 3.59-3.33 19.54-13.19 23.96-16.28 7.33-5.12 10.53-10.22 8.16-16.5 -1.66-4.32-5.69-5.98-9.97-5.98v0c-1.35 0-2.69.15-4 .44 -8.04 1.74-15.84 5.76-20.36 6.85v0c-.55.13-1.1.21-1.66.22 -2.41 0-3.28-1.08-3.09-3.97 .56-8.79 1.75-25.93.37-41.94 -1.89-22.04-8.99-32.95-17.44-42.6 -4.06-4.63-23.14-24.66-59.536-24.66 -36.41 0-55.44 20.11-59.49 24.75 -8.44 9.65-15.54 20.57-17.44 42.6 -1.39 16.01-.15 33.14.37 41.93 .16 2.75-.68 3.96-3.09 3.96v0c-.57-.01-1.12-.09-1.66-.23 -4.51-1.09-12.31-5.12-20.35-6.86v0c-1.32-.3-2.65-.45-4-.45 -4.25 0-8.3 1.63-9.97 5.97 -2.38 6.27.84 11.381 8.16 16.494 4.42 3.08 20.37 12.95 23.96 16.27 3.71 3.43 3.23 6.09 2.8 9.47 -.36 2.79-8.39 40.39-58.69 64.74 -2.95 1.42-7.96 4.45.88 9.33 13.88 7.62 23.11 6.8 30.3 11.43 6.09 3.92 2.5 12.39 6.92 15.44 5.45 3.76 21.58-.27 42.33 6.6 17.43 5.74 28.11 22.01 58.96 22.01 30.84 0 41.78-16.3 58.93-21.98 20.79-6.87 36.89-2.84 42.33-6.6 4.43-3.06.82-11.53 6.92-15.45 7.18-4.63 16.411-3.8 30.3-11.48 8.84-4.93 3.82-7.95.85-9.43Z"/></svg>