<svg viewBox="0 0 448 512" xmlns="http://www.w3.org/2000/svg"><path d="M448 156.09c0-4.51-.08-9-.2-13.52v0c-.13-9.86-.99-19.7-2.58-29.42v-.001c-1.67-9.74-4.78-19.18-9.22-28v0c-9.03-17.73-23.44-32.13-41.16-41.15v-.001c-8.83-4.46-18.26-7.56-28-9.22v0c-9.74-1.61-19.57-2.48-29.43-2.59 -4.51-.12-9-.17-13.52-.2H124.14c-4.51 0-9 .08-13.52.2 -2.45.07-4.91.15-7.37.27v0c-7.4.29-14.77 1.07-22.06 2.32l-.001 0c-7.27 1.26-14.38 3.31-21.21 6.1q-3.46 1.45-6.81 3.12h-.001c-6.6 3.37-12.77 7.5-18.39 12.32 -1.88 1.61-3.69 3.28-5.43 5h0c-7.01 6.98-12.86 15.03-17.35 23.85v-.001c-4.45 8.82-7.56 18.26-9.22 28H2.77c-1.59 9.72-2.44 19.55-2.54 29.4 -.13 4.51-.18 9-.21 13.52v199.83c0 4.51.08 9 .21 13.51h0c.11 9.85.98 19.69 2.58 29.42l0 0c1.66 9.74 4.77 19.17 9.22 28l0 0c9.03 17.7 23.42 32.11 41.13 41.15h-.001c8.82 4.44 18.26 7.54 28 9.21v0c9.73 1.6 19.56 2.47 29.43 2.59 4.5.12 9 .17 13.52.2h199.79c4.51 0 9-.08 13.52-.2v0c9.86-.13 19.7-.99 29.44-2.59h-.001c9.73-1.67 19.17-4.77 28-9.21v0c17.7-9.04 32.1-23.45 41.13-41.16v0c4.44-8.83 7.55-18.26 9.22-28v0c1.6-9.73 2.47-19.57 2.59-29.42 .12-4.5.17-9 .2-13.51V172.13c-.01-5.35-.01-10.7-.01-16.05Zm-69.88 241c-20-38.93-57.23-29.27-76.31-19.47 -1.72 1-3.48 2-5.25 3l-.42.25c-39.5 21-92.53 22.54-145.85-.38v0C106.88 361.66 70.18 330.16 45 290.12v0c12.25 9.06 25.37 16.89 39.17 23.37 56.36 26.4 113 24.49 153 0 -57-43.85-104.6-101-141.09-147.22l0 0c-6.96-8.12-13.24-16.78-18.78-25.9 43.7 40 112.7 90.22 137.48 104.12 -52.57-55.49-98.89-123.94-96.72-121.74 82.79 83.42 159.18 130.59 159.18 130.59 2.88 1.58 5 2.85 6.73 4h-.001c1.6-4.09 2.98-8.25 4.16-12.47 13.22-48.33-1.66-103.58-35.31-149.2 76.79 46.08 122.18 133.67 103.58 207.75 -.44 1.73-.95 3.4-1.44 5.09 38.52 47.4 28.04 98.17 23.13 88.59Z"/></svg>