<svg viewBox="0 0 448 512" xmlns="http://www.w3.org/2000/svg"><path d="M448 209.91l0 0c-44.03.1-86.98-13.63-122.77-39.25v178.72 0c-.04 89.77-72.84 162.52-162.61 162.49C72.84 511.83.09 439.03.12 349.26c.03-89.78 72.83-162.53 162.6-162.5 7.44 0 14.88.51 22.26 1.53v89.89 -.001c-39.32-12.37-81.21 9.47-93.58 48.79 -12.37 39.31 9.47 81.2 48.79 93.57 39.31 12.36 81.2-9.48 93.57-48.8 2.27-7.25 3.43-14.8 3.43-22.4V-.05h88v0c-.07 7.43.56 14.85 1.86 22.17v0l-.001-.001c6.18 33.01 25.67 62.02 53.91 80.22l0-.001c19.87 13.14 43.17 20.14 67 20.14Z"/></svg>