<svg viewBox="0 0 448 512" xmlns="http://www.w3.org/2000/svg"><path d="M171.73 232.813v0c2.17 0 4.13-1.31 4.97-3.32v0c2.21-9.77 7.42-18.6 14.9-25.256 1.24-.83 1.65-2.49 1.65-4.15h-.001c-.11-1.38-.89-2.62-2.08-3.32L74.4 128.447l74.52-43.48v0c2.97-1.72 4.85-4.85 4.96-8.29v-.001c.06-3.49-1.87-6.7-4.97-8.29l-22.36-12.84v0c-2.96-1.66-6.57-1.66-9.53 0L16.82 113.51v0c-2.98 1.71-4.86 4.84-4.97 8.28v115.1l-.001 0c-.07 3.48 1.86 6.69 4.96 8.28l22.35 12.83 -.001 0c1.49.89 3.22 1.32 4.96 1.24h0c2.44.06 4.82-.83 6.62-2.49h0c1.78-1.92 2.81-4.42 2.9-7.04v-85.29l115.93 67.9v0c.64.29 1.35.44 2.07.41Zm151.54 144.91v0c-1.73.06-3.42.48-4.97 1.24l-74.53 43.06V287.871c0-2.9-2.9-5.8-6.22-4.56h-.001c-9.44 2.82-19.48 2.97-28.99.41h-.001c-2.58-.75-5.28.73-6.02 3.31 -.12.4-.19.81-.2 1.23v133.32l-74.529-43.07h0c-1.5-.9-3.23-1.33-4.97-1.25h0c-5.24.05-9.47 4.28-9.53 9.52v26.08 0c-.07 3.48 1.86 6.69 4.96 8.28l100.2 57.553v0c1.49.89 3.22 1.32 4.96 1.24l0 0c1.73-.02 3.43-.45 4.96-1.25l100.2-57.553v-.001c2.97-1.72 4.85-4.85 4.96-8.29v-26.09c-.83-4.56-5.39-9.11-10.36-9.11ZM286 77.99v0c12.7 0 23-10.3 23-23 0-12.71-10.3-23-23-23 -12.71 0-23 10.29-23 23v0c0 12.7 10.29 23 23 23Zm63.62-10.09v0c-12.71 0-23 10.29-23 23 0 12.7 10.29 23 23 23 12.7 0 23-10.3 23-23v0c0-12.71-10.3-23-23-23Zm63.18 83.68v0c12.7 0 23-10.3 23-23 0-12.71-10.3-23-23-23 -12.71 0-23 10.29-23 23v0c0 12.7 10.29 23 23 23Zm-63.19-9.2v0c-12.71 0-23 10.29-23 23 0 12.7 10.29 23 23 23 12.7 0 23-10.3 23-23v0c0-12.71-10.3-23-23-23Zm-63.63 83.244v0c12.7 0 23-10.3 23-23 0-12.71-10.3-23-23-23 -12.71 0-23 10.29-23 23h-.001c-.01 12.7 10.29 23 22.99 23 0 0 0 0 0 0Zm-62.08 36.35v0c12.7 0 23-10.3 23-23 0-12.71-10.3-23-23-23 -12.71 0-23 10.29-23 23l0-.001c-.01 12.7 10.29 23 22.99 23 0 0 0 0 0 0Zm188.88-82.358v0c-12.71 0-23 10.29-23 23 0 12.7 10.29 23 23 23 12.7 0 23-10.3 23-23v0c-.01-12.71-10.3-23-23-23Zm0 72.27v0c-12.71 0-23 10.29-23 23 0 12.7 10.29 23 23 23 12.7 0 23-10.3 23-23v0c-.01-12.71-10.3-23-23-23Z"/></svg>