<svg viewBox="0 0 448 512" xmlns="http://www.w3.org/2000/svg"><path d="M31.49 63.49C-.01 94.98-.01 145.67-.01 247.03v17.92c0 101.36 0 152.05 31.49 183.54 31.49 31.49 82.18 31.49 183.54 31.49h17.92c101.369 0 152.059 0 183.549-31.5 31.49-31.49 31.49-82.18 31.49-183.55v-17.92c0-101.369 0-152.06-31.5-183.55 -31.49-31.5-82.18-31.5-183.549-31.5h-17.92c-101.369 0-152.06 0-183.55 31.49Zm44.1 104.77h51.14c1.68 85.493 39.38 121.7 69.25 129.173V168.26h48.16v73.733c29.49-3.18 60.48-36.78 70.93-73.733h48.16c-3.94 19.16-11.8 37.316-23.07 53.31 -11.28 15.99-25.73 29.49-42.46 39.64 18.67 9.27 35.17 22.4 48.39 38.524 13.22 16.12 22.87 34.86 28.32 54.99h-53.02c-4.89-17.49-14.83-33.137-28.58-45 -13.75-11.86-30.7-19.39-48.71-21.65v66.64h-5.79c-102.106 0-160.35-70-162.773-186.48Z"/></svg>