<svg viewBox="0 0 512 512" xmlns="http://www.w3.org/2000/svg"><path d="M256 16C123.452 16 16 123.452 16 256c0 132.548 107.452 240 240 240s240-107.452 240-240 -107.452-240-240-240ZM121.69 429.122C70.056 388.97 36.741 326.322 36.741 256l0 0c-.02-21.74 3.22-43.35 9.58-64.13l102.9-17.9 -.13 10.96 -13.95 2.01s-.15 12.5-.15 19.54v0c-.1 4.02 1.71 7.86 4.88 10.34l9.46 7.4Zm105.69-283.27l8.48-7.62s6.93-5.38-.15-9.35c-7.19-4.03-39.53-34.5-39.53-34.5 -5.35-5.48-8.26-7.35-15.46 0 0 0-32.35 30.47-39.53 34.5 -7.08 3.96-.15 9.34-.15 9.34l8.48 7.61 -.05 4.369 -73.51-19.18c39.64-56.938 105.53-94.3 180.018-94.3v-.001c63.23-.01 123.38 27.35 164.93 75.025l-193.512 37.7Zm34.06 329.269l-33.9-250.86 9.46-7.4 0-.001c3.16-2.49 4.98-6.33 4.88-10.35 0-7.05-.15-19.55-.15-19.55l-13.95-2.02 -.12-10.48 241.71 31.39 -.001 0c3.87 16.42 5.84 33.25 5.85 50.13 0 119.07-95.43 216.212-213.82 219.12Z"/></svg>