<svg viewBox="0 0 512 512" xmlns="http://www.w3.org/2000/svg"><path d="M500.676 159.48h-.001c-.86-3.55-3.19-6.57-6.4-8.29v0c-3.1-1.63-6.7-2.03-10.08-1.13l-26.4 6.62 -.05-.2 -22.3 5.78 -1.25.33 -.61-2.17v-.001c-15.5-58.31-45.05-111.93-86.07-156.159v0c-5.37-5.54-14.18-5.74-19.79-.47l-102.9 102.74H24.91v0C11.16 106.5-.01 117.62-.04 131.37v248.963l0-.001c.03 13.74 11.17 24.87 24.918 24.9h200.068l103.08 102.72v0c5.33 5.33 13.98 5.33 19.32 0 .12-.13.24-.26.37-.39v0c29.28-31.46 52.83-67.8 69.577-107.38h-.001c6.88-16.54 12.66-33.51 17.3-50.8v-.03l20.4 5.33 .02-.08 28.26 7.32h-.001c.86.22 1.73.39 2.61.5v0c1.37.19 2.77.16 4.13-.08v0c5.13-1 9.22-4.86 10.51-9.93v0c15.15-63.45 15.17-129.57.05-193.02ZM337.125 24.64l.01.01h-.02ZM226.925 189.8l-52.62 91.28v0c-.99 1.72-1.5 3.67-1.49 5.65v46.18 0c-.03 12.15-9.89 22-22.05 22h-3.4v0c-12.16 0-22.04-9.83-22.09-21.99v-45.67h0c0-1.93-.48-3.82-1.39-5.51l-51.6-92.2v0c-5.94-10.6-2.15-24 8.44-29.93 3.3-1.85 7.02-2.82 10.81-2.81h3.26 -.001c8.25-.01 15.81 4.58 19.61 11.91l36.35 70.281 37.51-70.512h-.001c5.73-10.76 19.09-14.83 29.85-9.1 3.62 1.93 6.64 4.84 8.7 8.39v0c3.97 6.78 3.97 15.18 0 21.96ZM337.145 24.66l0-.001c35.92 40.57 61.87 88.96 75.8 141.33l.56 1.95 -114.14 29.6V131.4v0c-.06-13.75-11.21-24.87-24.95-24.9h-19.37Zm60.5 367.305v-.05l-.02.01h0c-14.75 34.8-35.07 66.97-60.18 95.22l-82.2-81.9h19.17v0c13.75-.02 24.9-11.15 24.94-24.9v-66.2l114.6 29.86 -.001-.001c-4.39 16.31-9.85 32.33-16.33 47.93Zm84-52.45l.01.01 -50.62-13.14 -131.663-34.32v-72.53l119.74-30.99 4.46-1.16 39.54-10.26 18.51-4.82v0c11.98 55.07 11.98 112.09-.001 167.17Z"/></svg>