<svg viewBox="0 0 384 512" xmlns="http://www.w3.org/2000/svg"><path d="M42.9 240.32l99.62 48.61c19.2 9.4 16.2 37.51-4.5 42.71L30.5 358.45h0c-12.21 3.06-24.6-4.34-27.66-16.55 -.26-1.01-.44-2.03-.56-3.06l0 0c-3.3-28.76-.23-57.89 9-85.32l0-.001c4.01-11.94 16.95-18.35 28.88-14.33 .93.31 1.84.68 2.72 1.11Zm44 239.25v0c23.83 16.32 50.93 27.28 79.42 32.11v-.001c12.39 2.12 24.17-6.2 26.3-18.6 .17-1.02.28-2.05.31-3.09l3.9-110.82c.7-21.3-25.5-31.91-39.81-16.1l-74.21 82.4v0c-8.43 9.37-7.66 23.8 1.71 32.22 .74.67 1.54 1.29 2.37 1.86Zm145.34-109.92l58.81 94 0 0c6.73 10.72 20.88 13.95 31.61 7.22 .83-.53 1.62-1.1 2.38-1.73v0c22.28-18.43 40.27-41.51 52.71-67.61l-.001 0c5.36-11.52.38-25.2-11.14-30.57 -.8-.38-1.63-.7-2.46-.98l-105.42-34.26c-20.31-6.5-37.81 15.8-26.51 33.91Zm148.33-132.23v0c-11.53-26.52-28.74-50.18-50.41-69.31v0c-9.5-8.32-23.93-7.37-32.25 2.12 -.64.72-1.22 1.48-1.76 2.27l-62 91.92c-11.9 17.7 4.7 40.61 25.2 34.71l106.64-30.51v0c12.18-3.59 19.15-16.38 15.57-28.56 -.27-.91-.59-1.79-.97-2.66ZM62.11 30.18H62.1c-11.38 5.47-16.16 19.13-10.69 30.51 .24.5.5 1 .78 1.48l104.12 180.44c11.7 20.2 42.61 11.9 42.61-11.4V22.87v0c.11-12.52-9.95-22.77-22.47-22.88 -.68-.01-1.36.01-2.04.07l0 0c-38.97 3.09-77.04 13.29-112.33 30.1Z"/></svg>