<svg viewBox="0 0 24 24" xmlns="http://www.w3.org/2000/svg"><path fill="none" d="M0 0h24v24H0V0Z"/><path d="M7 10c-2.21 0-4 1.79-4 4s1.79 4 4 4 4-1.79 4-4 -1.79-4-4-4Zm0 6c-1.1 0-2-.9-2-2s.9-2 2-2 2 .9 2 2 -.9 2-2 2Zm8.01-1c-1.65 0-3 1.35-3 3s1.35 3 3 3 3-1.35 3-3 -1.35-3-3-3Zm0 4c-.55 0-1-.45-1-1s.45-1 1-1 1 .45 1 1 -.45 1-1 1ZM16.5 3C13.47 3 11 5.47 11 8.5c0 3.03 2.47 5.5 5.5 5.5s5.5-2.47 5.5-5.5C22 5.47 19.53 3 16.5 3Zm0 9c-1.93 0-3.5-1.57-3.5-3.5C13 6.57 14.57 5 16.5 5 18.43 5 20 6.57 20 8.5c0 1.93-1.57 3.5-3.5 3.5Z"/></svg>