<svg viewBox="0 0 20 20" xmlns="http://www.w3.org/2000/svg"><path fill="none" d="M0 0h20v20H0Z"/><g><path d="M6 15c-.55 0-1 .45-1 1h10c0-.55-.45-1-1-1h-4v-2h3c.55 0 1-.45 1-1H8.47v0C7.11 11.98 6 10.87 6 9.5c0-.93.51-1.73 1.26-2.16C7.1 7.1 7 6.81 7 6.5c0-.05.01-.11.02-.16C5.83 6.9 5 8.1 5 9.5c0 1.76 1.31 3.2 3 3.45V15H6Z"/><path d="M8.15 5.04c.11-.02.23-.04.35-.04 .83 0 1.5.67 1.5 1.5 0 .59-.34 1.09-.83 1.34l.42 1.14c.09.26.38.39.64.3l.47-.17 .15.41c.09.26.38.39.64.3 .26-.09.39-.38.3-.64l-.15-.41 .46-.17c.26-.09.39-.38.3-.64l-1.5-4.11c-.09-.26-.38-.39-.64-.3l-.46.16 -.15-.41c-.1-.26-.39-.4-.65-.3 -.26.09-.39.38-.3.64l.15.41 -.46.17c-.26.09-.39.38-.3.64l.06.18Z"/><path d="M8.5 5.75a.75.75 0 1 0 0 1.5 .75.75 0 1 0 0-1.5Z"/></g></svg>