<svg viewBox="0 0 32 32" xmlns="http://www.w3.org/2000/svg"><path d="M16 4c-2.2 0-4 1.8-4 4 0 1.85 1.28 3.39 3 3.84v2.15h-3v2h3v7.96c-2.43-.2-4.04-1.08-5.19-2.1 -.88-.78-1.47-1.625-1.88-2.35l1.59-.79 -4-1.82 -1.07 4.31 1.65-.82c.47.84 1.2 1.93 2.34 2.93 1.45 1.28 3.59 2.35 6.53 2.56v.06l1 1 1-1v-.07c2.93-.21 5.07-1.28 6.53-2.57 1.13-1.01 1.87-2.09 2.34-2.94l1.65.81 -1.07-4.32 -4 1.81 1.59.78c-.42.71-1 1.57-1.88 2.34 -1.15 1.01-2.77 1.9-5.19 2.09v-7.97h3v-2h-3v-2.16c1.71-.45 3-2 3-3.85 0-2.2-1.81-4-4-4Zm0 2c1.11 0 2 .88 2 2 0 1.11-.89 2-2 2 -1.12 0-2-.89-2-2 0-1.12.88-2 2-2Z"/></svg>