<svg viewBox="0 0 32 32" xmlns="http://www.w3.org/2000/svg"><path d="M3.1 12.01c-1.36 0-1.94.14-2.31.58 -.21.26-.28.52-.3 1.22h1.92c.04-.52.18-.65.75-.65 .64 0 .89.2.89.77v1.13h-.04c-.22-.59-.56-.74-1.67-.74 -1.49 0-2.12.53-2.12 1.79 0 1.36.54 1.83 2.06 1.83 1.09 0 1.5-.22 1.76-1h.05l-.07.95h1.91v-3.82c0-.41-.1-.97-.2-1.19 -.34-.69-1.05-.95-2.7-.95Zm7.67 0c-1.08 0-1.42.19-1.88 1.04h-.05l.08-1.04H7v8.45h1.98v-3.51h.04c.23.78.66 1.02 1.68 1.02 .84 0 1.32-.12 1.66-.49 .45-.49.59-1.14.59-2.64 0-1.39-.16-1.99-.65-2.42 -.34-.3-.86-.46-1.58-.46Zm6.97 0c-1.08 0-1.42.19-1.88 1.04h-.05l.08-1.04h-1.92v8.45h1.97v-3.51h.03c.24.78.68 1.02 1.7 1.02 .83 0 1.31-.12 1.65-.49 .46-.49.61-1.14.61-2.64 0-1.39-.16-1.99-.65-2.42 -.34-.3-.87-.46-1.59-.46Zm5.77 0c-1.14 0-1.81.16-2.25.57 -.45.4-.62 1.02-.62 2.29 0 1.47.14 2.1.57 2.53 .45.45 1.14.58 2.52.58 1.23 0 1.85-.17 2.21-.66 .22-.29.33-.75.33-1.24v-.12h-1.88c0 .55-.2.69-.9.69 -.78 0-1-.25-1-1.1 0-.04-.01-.15 0-.25h3.76v-.55c0-2.15-.66-2.8-2.8-2.8Zm6.81 0c-.77 0-1.16.25-1.5 1h-.03l.08-1h-1.92v5.93h1.91v-3.41c0-.4 0-.48.05-.63 .12-.3.33-.46.65-.46 .41 0 .51.19.51.96 0 .03-.01.11-.02.2h1.75c-.01-.22-.01-.4-.01-.48 0-.98-.08-1.33-.34-1.7 -.22-.3-.63-.47-1.17-.47Zm-6.85 1.36c.81 0 .98.1.98.72 0 .02-.01.1 0 .19h-1.92l0-.17c.05-.6.19-.75.91-.75ZM10 13.42c.87 0 1.04.25 1.04 1.63 0 1.2-.19 1.48-1.01 1.48 -.89 0-1.07-.27-1.07-1.67 0-1.19.18-1.45 1.02-1.45Zm6.98 0c.87 0 1.03.25 1.03 1.63 0 1.2-.2 1.48-1.02 1.48 -.89 0-1.06-.27-1.06-1.67 0-1.19.18-1.45 1.03-1.45ZM3.06 15.5c.76 0 .98.12.98.58 0 .52-.19.66-.85.66 -.84 0-1.04-.13-1.04-.65 0-.45.24-.61.9-.61Z"/></svg>