<svg viewBox="0 0 32 32" xmlns="http://www.w3.org/2000/svg"><path d="M10.37 3.96c-.3 0-.47.03-.47.03l-1.04.09 .12 1.03s.24 2.28 1.87 3.96c-3.31.51-5.88 3.23-5.88 6.56 0 3.58 1.59 6.42 3.46 8.34 .93.95 1.92 1.67 2.875 2.18 .94.5 1.82.81 2.65.81 .54 0 1.07-.1 1.56-.25 .29-.1.58-.1.87 0 .48.15 1.01.25 1.56.25 .9 0 1.77-.39 2.71-.97 .94-.59 1.92-1.4 2.84-2.41 1.84-2.02 3.43-4.81 3.43-7.97 0-3.7-3.18-6.66-7-6.66 -1.03 0-1.98.25-2.85.65 -.01-.03-.03-.08-.04-.13 .51-2.67 2.375-3.66 2.375-3.66l-1-1.75s-1.42.84-2.44 2.65c-.33-.5-.76-.99-1.29-1.41 -1.59-1.27-3.54-1.42-4.41-1.41Zm.96 2.125c.69.1 1.54.33 2.18.84 .65.51 1.08 1.28 1.34 1.93 -.7-.11-1.57-.36-2.22-.88 -.65-.52-1.06-1.26-1.32-1.91Zm.65 4.9c1.3 0 2.45.47 3.34 1.21l.65.53 .65-.54c.88-.75 2.04-1.22 3.34-1.22 2.8 0 5 2.11 5 4.65 0 2.48-1.31 4.87-2.91 6.625 -.81.87-1.68 1.55-2.44 2.03 -.77.47-1.47.68-1.66.68 -.33 0-.64-.06-.94-.16 -.69-.23-1.44-.23-2.13 0 -.31.09-.61.15-.94.15 -.27 0-.97-.16-1.72-.57 -.76-.41-1.62-1.04-2.41-1.85 -1.58-1.62-2.88-3.94-2.88-6.94 0-2.55 2.19-4.66 5-4.66Z"/></svg>