<svg viewBox="0 0 32 32" xmlns="http://www.w3.org/2000/svg"><path d="M20.84 2c-1.65 0-3.3.85-4.41 2.15v.03c-.79.98-1.65 2.52-1.38 4.31 -.13-.06-.14-.04-.29-.1 -.7-.29-1.55-.6-2.57-.6 -3.99 0-7 3.6-7 8.34 0 3.06 1.03 5.94 2.4 8.09 .68 1.07 1.46 1.96 2.28 2.625 .81.66 1.66 1.125 2.62 1.125 .96 0 1.67-.33 2.21-.57 .53-.24.95-.44 1.75-.44 .71 0 1.07.19 1.625.43 .54.24 1.29.56 2.28.56 1.07 0 1.98-.53 2.71-1.19 .73-.67 1.35-1.52 1.875-2.35 .51-.83.92-1.64 1.21-2.29 .14-.33.25-.6.34-.82 .08-.22.12-.29.18-.54l.18-.82 -.75-.35c-.18-.08-.875-.43-1.5-1.07 -.63-.64-1.16-1.51-1.16-2.85 0-1.3.49-2.17 1.03-2.79 .26-.31.54-.57.75-.72 .1-.08.18-.12.25-.16 .06-.04.05-.03.15-.1l.84-.54 -.57-.85c-1.64-2.52-4.25-2.85-5.29-2.85 -.49 0-.83.16-1.25.25 .24-.23.55-.37.75-.63 0-.01-.01-.03 0-.04 .01-.02.02-.02.03-.04h.03c1.06-1.2 1.65-2.8 1.56-4.44l-.07-.94Zm-1.19 2.31c-.18.66-.46 1.28-.91 1.78l-.07.06c-.39.51-.98.89-1.57 1.12 .16-.66.44-1.32.84-1.82 0-.02.02-.02.03-.04 .43-.5 1.04-.88 1.65-1.13Zm-7.44 5.5c.55 0 1.17.21 1.81.46 .64.25 1.23.59 2.09.59 .85 0 1.49-.34 2.25-.6 .75-.26 1.55-.47 2.34-.47 .52 0 1.81.33 2.9 1.34 -.2.17-.36.29-.57.53 -.77.88-1.54 2.25-1.54 4.09 0 1.9.83 3.33 1.71 4.25 .55.56.89.69 1.31.93 -.06.12-.09.22-.16.37 -.27.58-.65 1.33-1.1 2.06 -.46.72-1.01 1.43-1.54 1.9s-1 .68-1.375.68c-.57 0-.9-.16-1.47-.41 -.58-.25-1.36-.6-2.44-.6 -1.14 0-1.98.33-2.57.59 -.59.25-.9.4-1.41.4 -.25 0-.78-.2-1.38-.69 -.6-.49-1.26-1.24-1.85-2.16 -1.19-1.86-2.1-4.4-2.1-7 0-3.95 2.19-6.35 5-6.35Z"/></svg>