<svg viewBox="0 0 32 32" xmlns="http://www.w3.org/2000/svg"><path d="M26.57 14.33s2.3.11 2.3-1.24c0-1.77-3.08-3.37-3.08-3.37s.48-1.02.78-1.59c.3-.58 1.14-2.79 1.21-3.3 .09-.65-.06-.84-.06-.84 -.21 1.36-2.44 5.3-2.62 5.43 -2.18-1.02-5.16-1.31-5.16-1.31s-2.93-6.15-5.68-6.15c-2.73 0-2.72 5.26-2.72 5.26s-.77-1.5-1.74-1.5c-1.42 0-1.88 2.13-1.88 4.44 -2.79 0-5.14.625-5.35.68 -.21.05-.87.53-.58.48 .61-.2 3.48-.65 5.98-.43 .14 2.19 1.42 5.06 1.42 5.06s-2.76 3.99-2.76 6.83c0 .75.32 2.12 2.3 2.12 1.66 0 3.52-1 3.87-1.2 -.31.43-.54 1.26-.54 1.64 0 .31.18 1.19 1.46 1.19 1.64 0 3.47-1.26 3.47-1.26s1.73 2.875 3.21 4.19c.39.35.78.42.78.42s-1.48-1.42-3.42-5.07c1.8-1.11 3.67-3.74 3.67-3.74s.22 0 1.93 0c2.67 0 6.48-.57 6.48-2.7 0-2.2-3.42-4.18-3.42-4.18Zm.29-1.33c0 .77-.74.76-.74.76l-.57.03s-1.07-.56-1.72-.83c0 0 1-1.55 1.23-1.98 .17.1 1.77 1.1 1.77 1.99ZM15.64 5.08c1.26 0 3.05 2.96 3.05 2.96s-2.81-.25-5.12 1.1c.06-2.14.78-4.08 2.05-4.08Zm-4.99 2.4c.39 0 .78.48.95.89 0 .27.14 1.86.14 1.86l-2.32-.09c0-2.09.81-2.68 1.21-2.68Zm-.25 14.47c-1.27 0-1.53-.71-1.53-1.34 0-1.44 1.14-3.45 1.14-3.45s1.28 2.69 3.52 3.83c-1.11.65-2.03.94-3.15.94Zm4.1 2.82c-.89 0-1-.58-1-.71 0-.42.32-.9.32-.9s1.48-1.01 1.58-1.12l1.1 2.05s-1.13.66-2.02.66Zm2.76-1.12c-.54-.95-.94-1.93-.94-1.93s2.21.14 3.4-1.09c-.75.33-1.93.75-3.31.62 2.87-2.54 4.55-4.37 5.97-6.27 -.13-.15-.77-.61-.93-.68 -.86 1.03-4.19 4.58-7.28 6.35 -3.91-2.13-4.73-8.4-4.81-9.7l2.13.2s-.81 1.42-.81 2.46 .12 1.09.12 1.09 -.03-1.83 1.09-3.23c.85 4.56 1.75 6.89 2.44 8.29 .35-.15 1.01-.45 1.01-.45s-1.97-5.68-1.86-9.52c.89-.48 2.21-.97 3.71-.97 3.92 0 7.08 1.68 7.08 1.68l-1.24 1.72s-1.11-2-2.67-2.35c.82.6 1.74 1.41 2.21 2.57 -3.26-1.27-7.19-1.95-8.45-2.09 -.11.46-.1 1.12-.1 1.12s5.26.97 9.1 3.16c-.03 4.79-5.26 8.48-5.98 8.9Zm4.99-3.59s1.63-2.15 1.6-4.99c0 0 2.64 1.63 2.64 3.23 0 1.78-4.26 1.75-4.26 1.75Z"/></svg>