<svg viewBox="0 0 32 32" xmlns="http://www.w3.org/2000/svg"><path d="M19 6v1.43l.09.18 1.03 2.37h-8.69l-.32.43 -2.72 3.84c-.61-.19-1.25-.29-1.91-.29 -3.59 0-6.5 2.91-6.5 6.5 0 3.58 2.91 6.5 6.5 6.5 3.41 0 6.2-2.66 6.46-6h3.43l.31-.44 4.875-7.19 .65 1.5c-1.95 1.12-3.25 3.23-3.25 5.62 0 3.57 2.92 6.5 6.5 6.5 3.57 0 6.5-2.93 6.5-6.5 0-3.58-2.93-6.5-6.5-6.5 -.49 0-.96.05-1.41.15l-2.69-6.16h3.09c.28 0 .5.21.5.5 0 .28-.22.5-.5.5v2c1.36 0 2.5-1.14 2.5-2.5 0-1.37-1.14-2.5-2.5-2.5ZM8 7v2h6l-1-2Zm5.46 5h6.65l-4.04 5.93Zm-1.75 1l2.62 6H5.98v2h4.93c-.26 2.24-2.13 4-4.44 4 -2.49 0-4.5-2.02-4.5-4.5 0-2.49 2.01-4.5 4.5-4.5 1.55 0 2.94.79 3.75 2h2.25c-.49-1.16-1.27-2.15-2.29-2.85Zm13.78 3c2.48 0 4.5 2.01 4.5 4.5 0 2.48-2.02 4.5-4.5 4.5 -2.49 0-4.5-2.02-4.5-4.5 0-1.58.83-2.95 2.06-3.75l2.03 4.65 1.81-.82 -1.97-4.54c.18-.03.37-.07.56-.07Z"/></svg>