<svg viewBox="0 0 32 32" xmlns="http://www.w3.org/2000/svg"><path d="M19.5 5C17.57 5 16 6.57 16 8.5c0 1.92 1.57 3.5 3.5 3.5 1.92 0 3.5-1.58 3.5-3.5C23 6.57 21.42 5 19.5 5Zm0 2c.83 0 1.5.66 1.5 1.5 0 .83-.67 1.5-1.5 1.5 -.84 0-1.5-.67-1.5-1.5 0-.84.66-1.5 1.5-1.5Zm-4.41 3.53c-.51.05-1 .3-1.35.71l-2.35 2.84c-.81.98-.46 2.53.68 3.09l3.43 1.68 -.91 5 1.96.34 1.06-5.75 .12-.75 -.69-.35 -4.16-2 2.37-2.88 4.06 3.28 .28.21h5.34v-2h-4.66l-3.79-3.04c-.43-.34-.97-.49-1.47-.44Zm-6.6 7.46c-2.47 0-4.5 2.03-4.5 4.5 0 2.46 2.03 4.5 4.5 4.5 2.46 0 4.5-2.04 4.5-4.5 0-2.47-2.04-4.5-4.5-4.5Zm15 0c-2.47 0-4.5 2.03-4.5 4.5 0 2.46 2.03 4.5 4.5 4.5 2.46 0 4.5-2.04 4.5-4.5 0-2.47-2.04-4.5-4.5-4.5Zm-15 2c1.37 0 2.5 1.12 2.5 2.5 0 1.37-1.13 2.5-2.5 2.5 -1.38 0-2.5-1.13-2.5-2.5 0-1.38 1.12-2.5 2.5-2.5Zm15 0c1.37 0 2.5 1.12 2.5 2.5 0 1.37-1.13 2.5-2.5 2.5 -1.38 0-2.5-1.13-2.5-2.5 0-1.38 1.12-2.5 2.5-2.5Z"/></svg>