<svg viewBox="0 0 32 32" xmlns="http://www.w3.org/2000/svg"><path d="M16 1.25l-.82 1.18s-.54.75-1.07 1.65c-.27.45-.51.92-.72 1.4 -.22.48-.41.92-.41 1.5 0 1.64 1.35 3 3 3 1.64 0 3-1.36 3-3 0-.58-.2-1.02-.41-1.5 -.22-.49-.46-.96-.72-1.41 -.53-.91-1.07-1.66-1.07-1.66ZM16 10h-3v4H7c-2.22 0-4 1.78-4 4 0 1.01.37 1.94 1 2.65v7.34h24v-7.35c.625-.71 1-1.65 1-2.66 0-2.22-1.79-4-4-4h-6v-4Zm0-5.125c.06.1.05.1.125.21 .23.41.49.84.65 1.21 .16.37.21.71.21.68 0 .55-.45 1-1 1 -.56 0-1-.45-1-1 0 .02.05-.32.21-.69 .16-.38.41-.81.65-1.22 .06-.12.05-.11.12-.22ZM15 12h2v2h-2Zm-8 4h18c1.19 0 2 .8 2 2 0 1.19-.81 2-2 2 -1.2 0-2-.81-2-2h-2c0 1.19-.81 2-2 2 -1.2 0-2-.81-2-2h-2c0 1.19-.81 2-2 2 -1.2 0-2-.81-2-2H9c0 1.19-.81 2-2 2 -1.2 0-2-.81-2-2 0-1.2.8-2 2-2Zm3 4.65c.73.82 1.8 1.34 3 1.34 1.19 0 2.26-.52 3-1.35 .73.82 1.8 1.34 3 1.34 1.19 0 2.26-.52 3-1.35 .73.82 1.8 1.34 3 1.34 .34 0 .67-.08 1-.16v4.15H6V21.8c.32.08.65.15 1 .15 1.19 0 2.26-.52 3-1.35Z"/></svg>