<svg viewBox="0 0 32 32" xmlns="http://www.w3.org/2000/svg"><path d="M13 4c-1.92 0-3.46 1.38-3.85 3.18 -2.34.41-4.16 2.36-4.16 4.81 0 .24.02.46.06.68 -.65.94-1.07 2.06-1.07 3.31 0 1.79.89 3.3 2.15 4.4 -.09.35-.16.71-.16 1.09 0 2.47 2.02 4.5 4.5 4.5 .02 0 .03 0 .06 0 .58 1.12 1.58 2 2.93 2 .97 0 1.86-.42 2.5-1.07 .63.65 1.52 1.06 2.5 1.06 1.34 0 2.35-.88 2.93-2 .02 0 .03 0 .06 0 2.34 0 4.27-1.83 4.46-4.125h.03c0-.07-.03-.125-.04-.19 0-.07.03-.13.03-.19 0-.38-.14-.69-.22-1.04 1.29-1.11 2.21-2.65 2.21-4.47 0-1.25-.42-2.37-1.07-3.32 .03-.23.06-.45.06-.69 0-2.45-1.83-4.4-4.16-4.82 -.39-1.81-1.94-3.19-3.85-3.19 -1.2 0-2.27.55-3 1.4 -.74-.85-1.81-1.41-3-1.41Zm0 2c1.11 0 2 .88 2 2v2c0 1.66-1.34 3-3 3v2c1.13 0 2.16-.4 3-1.04v10.53c0 .83-.67 1.5-1.5 1.5 -.75 0-1.35-.52-1.47-1.22l-.19-.97 -.97.15c-.18.02-.29.03-.38.03 -1.4 0-2.5-1.11-2.5-2.5 0-.31.05-.6.15-.875 0-.03.02-.04.03-.07 .3-.77.98-1.34 1.81-1.5l-.41-1.97c-1.05.21-1.95.76-2.6 1.56 -.63-.71-1-1.64-1-2.66 0-.94.32-1.78.875-2.47l.31-.38 -.1-.5c-.06-.24-.1-.45-.1-.66 0-1.67 1.33-3 3-3h1v-1c0-1.12.88-2 2-2Zm6 0c1.11 0 2 .88 2 2v1h1c1.66 0 3 1.33 3 3 0 .21-.04.42-.1.65l-.1.5 .31.37c.55.69.875 1.53.875 2.46 0 1.19-.52 2.26-1.35 3 -.69-.61-1.56-1-2.54-1 -.95 0-1.8.33-2.47.9l1.28 1.53c.32-.28.72-.44 1.18-.44 .96 0 1.73.72 1.84 1.65 -.09 1.31-1.14 2.34-2.47 2.34 -.09 0-.2-.01-.375-.04l-.97-.16 -.19.96c-.13.7-.73 1.21-1.47 1.21 -.84 0-1.5-.67-1.5-1.5V13.89c.83.64 1.86 1.03 3 1.03v-2c-1.67 0-3-1.34-3-3v-2c0-1.12.88-2 2-2Z"/></svg>