<svg viewBox="0 0 32 32" xmlns="http://www.w3.org/2000/svg"><path d="M16 3.03l-.72.71 -2.19 2.21 -2.19.68 -.91.28 .21.9 1.18 4.81 -1.72-1.19 -.69-.47 -2.22 2.21 -2.94 1.31 -.875.4 .34.87 1.12 2.84 -.32 2.375 -.13 1 7 .87v2.09h4v4h2v-4h4v-2.1l7-.88 -.125-1 -.32-2.375 1.12-2.85 .34-.88 -.875-.41 -2.94-1.32 -2.22-2.22 -.69.46 -1.72 1.18 1.18-4.82 .21-.91 -.91-.29 -2.19-.69 -2.19-2.22Zm0 2.84l1.87 1.875 .21.06 1.53.46 -1.6 6.46 -.625 2.59 2.15-1.54 3.18-2.22 1.15 1.18 .15.12 .15.09 2.25 1 -.85 2.15 -.1.25 .03.25 .18 1.62 -5.875.71 -.875.125v1.875h-6V21.05l-.875-.125 -5.875-.72 .18-1.63 .03-.25 -.1-.25 -.85-2.16 2.25-1 .15-.1 .15-.13 1.15-1.19 3.18 2.21 2.15 1.53 -.625-2.6 -1.6-6.47 1.53-.47 .21-.07Z"/></svg>