<svg viewBox="0 0 32 32" xmlns="http://www.w3.org/2000/svg"><path d="M5 6C3.35 6 2 7.35 2 9v14c0 1.64 1.35 3 3 3h22c1.64 0 3-1.36 3-3V9c0-1.65-1.36-3-3-3H5Zm0 2h22c.56 0 1 .43 1 1v14c0 .56-.44 1-1 1H5c-.57 0-1-.44-1-1V9c0-.57.43-1 1-1Zm6.52 2l-.15.02c-.44.05-.87.22-1.23.48 -.08.04-.15.11-.23.17 -.01-.02-.02-.04-.02-.05 -.02-.09-.03-.19-.04-.27 -.03-.15-.11-.22-.25-.22h-.38c-.23-.01-.27.04-.27.26v6.82c0 .1.07.15.15.16h.68c.09 0 .14-.07.15-.17 0-.04 0-.07 0-.1v-2.33c.03.03.05.04.07.06 .57.48 1.23.63 1.95.49 .66-.14 1.11-.54 1.4-1.13 .22-.45.32-.93.33-1.43 .01-.55-.04-1.09-.26-1.6 -.27-.63-.73-1.05-1.41-1.19 -.11-.03-.22-.04-.32-.05 -.1-.01-.19-.01-.27-.01Zm5 0c-.04 0-.07.01-.1.01 -.32.01-.63.05-.93.13 -.2.04-.39.11-.58.17 -.12.03-.18.12-.18.25 0 .1 0 .21 0 .31 0 .15.07.19.22.15 .25-.07.5-.14.75-.19 .39-.08.79-.11 1.19-.05 .21.03.4.09.54.27 .11.14.16.33.17.52 0 .26 0 .53 0 .8 0 .01 0 .03-.01.03h-.04c-.34-.09-.69-.14-1.04-.16 -.37-.02-.73-.01-1.07.12 -.42.14-.76.39-.96.8 -.15.31-.18.64-.13.98 .07.45.29.8.69 1.02 .38.21.79.23 1.21.17 .48-.08.91-.28 1.29-.59 .01-.02.03-.03.04-.04 .02.12.03.24.06.35 .01.1.07.16.17.17h.52c.07 0 .14-.08.14-.16 0-.03 0-.06 0-.09v-3.42c-.01-.14-.02-.28-.04-.41 -.07-.42-.24-.77-.62-.99 -.22-.13-.45-.19-.7-.23 -.12-.02-.23-.03-.35-.04h-.39Zm6.71 0c-.11-.01-.22.06-.26.16 -.02.04-.04.08-.05.13l-1.13 3.21c-.08.22-.17.46-.25.71 -.02-.04-.03-.06-.03-.08 -.42-1.15-.83-2.3-1.25-3.45 -.07-.19-.14-.37-.21-.55 -.04-.09-.11-.15-.21-.15 -.25-.01-.49-.01-.75-.01 -.08 0-.12.06-.11.14 .01.06.03.13.06.19 .62 1.55 1.26 3.11 1.9 4.67 .05.13.06.24 0 .37 -.11.23-.19.47-.3.71 -.1.21-.26.37-.49.43 -.16.03-.34.05-.5.02 -.08-.01-.16-.03-.24-.03 -.11-.01-.17.03-.18.15v.31c0 .18.06.26.24.29 .17.03.35.05.54.06 .55 0 .98-.22 1.26-.7 .11-.19.21-.39.29-.59 .76-1.93 1.51-3.85 2.27-5.78 .02-.06.03-.11.04-.18 .01-.1-.04-.15-.12-.15h-.64Zm-11.73.81c.48.03.87.27 1.07.83 .12.34.15.7.15 1.06 0 .33-.03.65-.13.98 -.22.68-.73.95-1.37.91 -.46-.03-.85-.2-1.21-.45 -.04-.03-.07-.07-.06-.11v-2.72c-.01-.05.01-.09.05-.12 .43-.31.92-.47 1.46-.43Zm4.86 2.17c.13-.02.27-.01.4 0 .26.02.53.07.8.1 .05 0 .07.03.07.08 -.01.15 0 .3 0 .46 0 .15-.01.29-.01.45 0 .03-.02.07-.05.09 -.37.25-.76.43-1.21.48 -.19.01-.37.01-.54-.06 -.2-.08-.35-.24-.41-.44 -.07-.21-.07-.42-.01-.63 .08-.27.27-.42.52-.51 .12-.04.26-.07.39-.08Zm8.15 4.5c-.7 0-1.53.16-2.16.6 -.2.13-.16.32.05.29 .7-.09 2.27-.28 2.55.08 .28.35-.32 1.83-.58 2.49 -.09.19.09.27.27.12 1.17-.99 1.47-3.05 1.23-3.34 -.12-.15-.7-.29-1.4-.28Zm-18.39.39c-.15.01-.21.19-.06.33 2.612 2.35 6.06 3.77 9.89 3.77 2.73 0 5.9-.86 8.09-2.48 .36-.27.05-.67-.32-.51 -2.46 1.04-5.13 1.54-7.56 1.54 -3.6 0-7.08-.99-9.9-2.63 -.07-.04-.12-.05-.17-.05Z"/></svg>