<svg viewBox="0 0 32 32" xmlns="http://www.w3.org/2000/svg"><path d="M2 6v17.9h28V5.99Zm2 2h24v13.9H4Zm8 2c-2.75 0-5 2.25-5 5s2.25 5 5 5c1.19 0 2.27-.45 3.125-1.125l-1.25-1.57c-.53.42-1.17.68-1.88.68 -1.67 0-3-1.34-3-3 0-1.67 1.33-3 3-3 .7 0 1.34.26 1.87.68l1.25-1.57c-.85-.69-1.93-1.125-3.125-1.125Zm10 0c-2.75 0-5 2.25-5 5s2.25 5 5 5c1.19 0 2.27-.45 3.125-1.125l-1.25-1.57c-.53.42-1.17.68-1.875.68 -1.67 0-3-1.34-3-3 0-1.67 1.33-3 3-3 .7 0 1.34.26 1.875.68l1.25-1.57c-.85-.69-1.93-1.125-3.125-1.125Z"/></svg>