<svg viewBox="0 0 32 32" xmlns="http://www.w3.org/2000/svg"><path d="M16.01 3.36c-.54.29-9.72 5.53-10.87 6.18 -.1.04-.16.13-.15.24 0 1.34 0 12.45 0 12.49 -.01.06.03.13.09.16 0 0 6.86 3.94 10.78 6.19H16c.54-.32 9.75-5.56 10.8-6.16 .11-.06.17-.17.16-.29 -.01-4.12-.01-8.25 0-12.36 0-.16-.04-.27-.19-.33 -.03-.02-10.71-6.15-10.72-6.16h-.09Zm.34.91c3.23 1.85 6.44 3.7 9.67 5.55 -.37.14-5.08 1.91-5.09 1.91 -.04.01-.05.03-.04.07 .03.09.07.18.1.27 .01.05.04.06.09.04 .12-.05 5.13-1.94 5.22-1.96v11.375c-.01-.01-3.46-6-3.82-6.62 -.06-.1-.06-.1-.16-.08 -.35.06-.22.03-.34.07 1.33 2.31 2.66 4.62 4 6.95h-9.22c-.06 0-.1-.01-.1-.09 0-.01-.05-1.32-.05-1.33 0-.06-.03-.08-.08-.07 -.39.06-.78.07-1.17.01 -.06-.01-.07.01-.07.06v.54c0 .03-.01.06-.06.05 -.85-.13-.68 0-2.04-1.64 -.14-.16-.26-.33-.39-.49 -.01-.01-.01-.01-.01-.01 -.03-.04-.03-.08 0-.11 .41-.51.78-.89.74-1.61 -.03-.44-.24-.78-.62-1.01 -.5-.3-1.11-.24-2.77-.24 -.19 0-.23.18-.09.23 .05.01.17.01.23.02 .24.04.26.13.26.66 0 3.47 0 3.24-.06 3.91 -.03.25-.17.18-.33.21 -.05 0-.09.04-.1.08 -.02.06.01.12.08.14 .1.03 1.58.02 1.66 0 .16-.05.12-.24-.03-.25 -.38-.03-.46-.03-.48-.24 -.05-.37-.04-.32-.05-1.62 -.01-.09 0-.09.08-.09 .65 0 .71-.04.82.11 .35.48.71.96 1.08 1.44 .35.46.68.62 1.05.62 1.02 0 .9-.02.9.04v.43c-.01.07-.02.08-.09.08H5.86c-.1 0-.11.01-.07-.06 1.53-2.67 1.29-2.26 3.33-5.78 .03-.06.02-.07-.04-.08 -.31-.02-.37-.07-.45.07 -.01 0-3.13 5.4-3.17 5.47V9.92c.13.03 1.31.49 1.32.49 .11.04.14.04.52-.26l-1.53-.58c-.01-.01-.01-.02-.01-.02 3.19-1.82 6.38-3.64 9.58-5.46l.01 0 -.01 0c-1.42 2.44-2.84 4.89-4.26 7.35 .16 0 .31 0 .45-.01 .08-.01 3.76-6.5 4.21-7.23 .42.71 3.99 6.93 4.04 7.01 .06.11.11.14.58.19l.01-.02 -4.29-7.43Zm-.43 3.35c-.38.04-.72.34-.71.8 0 .31.16.54.43.68 .05.02.08.07.08.13 -.02.34-.02.1-.05 1.45 -.01.08-.01.08-.09.08 -1.51-.02-1.57 0-1.84-.1 -.1-.04-.15-.02-.17.09 -.06.29-.12.59-.17.88 -.01.05.07.29.19-.02 .17-.44.38-.4 1.98-.42 .03 0 .06 0 .06.05 -.04.7-.18 5.71-.19 5.99 0 .06-.04.11-.1.13 -.58.18-1.22.84-.99 1.79 .29 1.2 1.54 1.15 1.68 1.14 1.45-.07 1.66-1.26 1.58-1.84 -.06-.42-.26-.74-.62-.96 -.14-.08-.29-.15-.43-.2 -.04-.02-.07-.04-.07-.08 0-.01-.19-6.03-.19-6.03 0-.04.01-.05.04-.05 2.23.11 1.68.11 1.93.59 .03.06.08.07.12 0 .04-.07.04-1.01.04-1.01 -.01-.09-.05-.12-.13-.1 -.09.02-.19.03-.28.04l0 0c-.57.01-1.7.01-1.71.01 -.04 0-.07-.02-.07-.06 -.06-1.7-.05-1.46-.05-1.49 -.01-.09.03-.18.1-.22 .4-.26.45-.84.12-1.2 -.18-.19-.42-.26-.65-.24Zm.07.41c.49 0 .47.74-.01.73 -.48-.01-.49-.74 0-.74v-.01Zm-7 2.21c-.22.01-.44.03-.69.09 -1.48.33-2.12 1.69-1.99 2.97 .32 3.16 4.53 2.52 4.6 2.07 0-.01.07-.41.16-.95 0-.02 0-.04 0-.06 -.01-.08-.08-.13-.16-.12 -.29.01.11.91-1.23 1 -1.84.13-2.69-1.34-2.67-2.52 .03-2.87 3.53-2.37 3.68-1.26 .01.14-.01.44.19.35 .04-.02.07-.07.08-.12 0-.05.05-.9.06-1.15 0-.14-.05-.19-.18-.2 -.74-.09-1.28-.22-1.92-.18Zm13.31 1.55c-.03 0-.05.01-.06.03 -.07.07-.02-.03-.92 2.05 -.07.15-.13.3-.21.44 -.06.11-.17.17-.3.16 -.12 0-.11.15.03.15h1.3c.19 0 .11-.16-.04-.19 -.22-.05-.67.05-.61-.11 .07-.19.14-.37.22-.55 .01-.03.04-.05.08-.06 .24-.02.48-.02.72-.01 .04-.01.08.02.09.07 .06.16.13.33.2.5 .09.21-.11.24.01.27 .05.01.11.03.17.03 .14 0-.54-.01 2.5.01 .27 0 .2-.16.26-.51l-.01-.01c.02-.12-.11-.28-.19 0 -.06.19-.14.18-.79.16 -.08 0-.15-.05-.17-.13 -.03-.12-.02-1.96-.02-2.04 -.01-.01 0-.02 0-.02 0-.07.06-.13.13-.13 .32-.04.17-.17.06-.17 -1.12-.01-1.07-.01-1.08 0 -.13.12-.01.15 0 .15 .15.02.27-.01.27.21 0 2.09 0 1.94-.01 2.03 -.01.15-.03.21-.21.21 -.04 0-.22.03-.32-.1 -.26-.36-1.03-2.4-1.17-2.57 -.01-.01-.02-.02-.03-.03 -.03-.02-.05-.02-.07-.02Zm-2.5.03c-.43-.01-.92.08-1.26.43 -.49.48-.7 1.68.33 2.23 .65.34 1.53.17 1.61.16 .32-.05.29-.63.29-.63 -.05-.15-.1-.12-.16-.06 -.06.05-.05.28-.34.375 -.34.1-1.14.08-1.43-.68 -.28-.73.04-1.88 1.34-1.5 .22.06.35.21.37.45 .01.11.13.12.16.01 .01-.04.01-.22.02-.48 0-.15-.03-.21-.15-.24h-.01c-.06-.02-.41-.11-.84-.12Zm-4.78.05l-.95 0c-.17.05-.17.14.03.16 .14.01.16.05.16.33 -.01 2.23-.01 1.83-.03 2 -.01.05-.06.1-.11.1 -.19.01-.36-.02-.49-.16 -.52-.54-.81-.92-.86-.98 .1-.12.2-.23.3-.34 .43-.5.04-1.07-.4-1.12 -.37-.05-.9-.05-1.49-.04 -.1 0-.3.13.05.16 .13.01.16.07.16.24 -.01.1-.02.7-.01 1.98 0 .34-.18.11-.29.3 .01.05.07.09.13.08h.96c.18-.01.18-.18-.05-.18 -.2 0-.16-.06-.2-.88 -.01-.1.32-.1.4.01 .53.72.66 1.02 1.19 1.02 .51-.01 1.02 0 1.53-.01 .19-.01.12-.17 0-.17 -.24 0-.25-.07-.26-.11 -.02-.13-.04.05-.02-2.12 0-.18.01-.22.19-.23 0 0 .01 0 .01 0 .17-.15-.04-.17-.05-.17Zm1.82 0c-.09 0-.15.09-.02.15 .07.03.23-.05.23.2 -.01 2.32.05 2.24-.17 2.24 -.17 0-.19.16 0 .16 .39 0 .74 0 1.06 0 .12-.01.13-.17 0-.17 -.16-.01-.3.02-.3-.18h-.01c-.04-2.09 0-2.16 0-2.17 .01-.14.15-.1.2-.13 .11-.07.06-.11.02-.15 -.05-.03-.99-.01-1.05-.01Zm-4.74.27c.17-.04.54.03.61.45 .01.11.07.72-.61.66 -.09-.01-.11-.04-.11-.13 -.01-.25 0-.7-.01-.92 -.01-.03.03-.06.09-.07Zm10.08.51l.3.78h-.61c.1-.26.2-.52.3-.79Zm-10.49 3.67c.18 0 .38.03.43.05 .74.21.91 1.2.61 1.91 -.23.54-.7.41-1.27.35 -.12-.01-.14-.03-.14-.15 0-1.49 0-1.66-.01-2.06 -.01-.11.17-.14.35-.13Zm10.74.78c-.45.05-.07.02-1.84.03 -.19 0-.18.16.02.16l0 0c.19 0 .31-.25.19 2.53 -.01.15-.15.11-.21.12 -.12.02-.15.14-.02.16 .03 0-.1.01 1.73.01 .22 0 .22-.11.22-.12 .01-.16.04-.32.06-.48 .01-.12-.12-.15-.16-.03 -.1.28.01.3-.82.28 -.23-.01-.2-.2-.2-.81 0-.43-.13-.34.63-.3 .18.01.12.16.18.26 .03.05.1.04.12-.02 .02-.06.05-.56.05-.57 .01-.18-.13-.1-.16-.09 -.27.09-.63.06-.78.07 -.08 0-.09 0-.09-.08v-.8c-.01-.08 0-.08.08-.08 .66.03.75-.02.77.25 .01.13.15.11.16 0 .01-.17.03-.34.04-.51 0-.09-.03-.11-.12-.1Zm-3.23.02c-.26-.01-1.07 0-1.15 0 -.12 0-.14.13-.02.15 .14.02.26-.01.28.18 .01.15.03 1.57-.02 2.35 -.01.15-.16.11-.26.13 -.09.01-.08.15.02.16l1.88 0c.05 0 .27.06.25-.62 0-.02-.05-.17-.14-.06 -.19.23.15.37-.93.31 -.12-.01-.17-.07-.17-.18 -.03-.62-.02-1.95-.02-2.05 0-.3.11-.26.24-.27 .17-.03.15-.17-.01-.17Zm-3.79.48c.01.09-.06 1.84-.06 1.94 -.02.41 1.26.61 1.24.12 -.01-.03-.06-1.83-.06-1.94v-.01l.01-.01c.6.47.5 1.54.26 1.92 -.23.37-.71.52-1.11.34 -1.03-.43-1.02-2.05-.32-2.42Zm1.34 4.63c9.51 0 8.95-.01 8.96.01 -.77.44-8.91 5.07-9.75 5.55 -.05.03-.12.03-.17 0h-.01c-.88-.51-9.55-5.49-9.68-5.57h9.03c.09 0 .09 0 .09.09 -.04 1.57-.07 2.24-.08 2.36 -.01.18.02.36.09.53 .21.5.41 1.02.62 1.53 .05.11.06.08.09 0 .68-1.62.63-1.51.66-1.6 .04-.13.06-.26.06-.39 0-.29-.07-2.49-.07-2.49 -.01-.06.01-.08.07-.08Z"/></svg>