<svg viewBox="0 0 32 32" xmlns="http://www.w3.org/2000/svg"><path d="M19.46 4c-.16-.02-.32 0-.47.03 -.62.1-1.17.49-1.47 1.09l-.5.93v.03c-.26.53-.24 1.15 0 1.68l-1.07 1.06c-1.42 1.41-2.4 3.16-2.875 5.09l-.72 2.84 -1.25 1.21 .71.71 -4.54 4.56 -.88.125 -1.44 1.43 2.15 2.15 1.43-1.44 .12-.88 4.56-4.54 .71.71 1.21-1.25 2.84-.72c1.93-.49 3.68-1.47 5.09-2.88l1.06-1.07c.53.22 1.14.23 1.68-.04h.03l.93-.47c1.2-.61 1.48-2.27.53-3.22l-.04-.07 -6.44-6.41 -.19-.19c-.36-.36-.82-.57-1.29-.6Zm-.16 2s.02-.01.03 0l6.65 6.65s-.01.02 0 .03l-.97.46c-.01 0-.03 0-.04 0l-6.16-6.16c-.01-.01-.01-.02 0-.04Zm-1 3.31l4.375 4.37 -.94.9c-.18.17-.38.33-.57.5l-4.29-4.29c.16-.2.32-.39.5-.57Zm-2.54 3.21l3.68 3.68c-.61.31-1.24.58-1.91.75l-1.47.37 .625-.625 -1.44-1.44 -.63.62 .37-1.47c.16-.67.43-1.3.75-1.91Z"/></svg>