<svg viewBox="0 0 32 32" xmlns="http://www.w3.org/2000/svg"><path d="M16 2.93L4.65 7.05l-.66.25v15.28l.53.28 11 6 .46.25 .46-.25 11-6 .53-.29V7.28l-.66-.25Zm0 2.12l8.375 3.03L16 11.89 7.625 8.07Zm0 1.93c-1.11 0-2 .44-2 1 0 .55.89 1 2 1 1.1 0 2-.45 2-1 0-.56-.9-1-2-1ZM6 9.51l9 4.09v12.68l-9-4.91Zm20 0v11.87l-9 4.9V13.59Zm-13.35 4.46c-.38 0-.66.35-.66.87 0 .66.35 1.35.87 1.65 .14.07.32.06.46.06 .22 0 .35-.08.5-.22 .07-.15.15-.36.15-.66 0-.67-.45-1.36-.97-1.66 -.15-.08-.23-.07-.38-.07Zm7.37 1c-.08.01-.17.05-.25.09 -.61.26-1.13 1.125-1.13 1.9 0 .26-.02.51.15.68 .17.17.36.28.625.28 .17 0 .35-.01.53-.1 .6-.35 1.03-1.15 1.03-1.85 0-.61-.26-1.04-.79-1.04 -.05 0-.12-.02-.19 0Zm-9.91 1.28c-.38 0-.66.35-.66.87 0 .66.35 1.32.875 1.62 .14.07.28.09.43.09 .22 0 .38-.08.53-.22 .07-.15.15-.4.15-.69 0-.67-.45-1.33-.97-1.63 -.15-.08-.23-.07-.375-.07Zm13.4 1.15c-.08.01-.17.01-.25.06 -.61.26-1.13 1.15-1.13 1.93 0 .26.01.51.18.68 .17.17.33.25.59.25 .17 0 .35.02.53-.07 .6-.35 1.03-1.15 1.03-1.85 0-.61-.26-1.04-.79-1.04 -.05 0-.12-.02-.19 0Zm-15.88.96c-.38 0-.66.35-.66.875 0 .66.35 1.35.875 1.65 .14.07.32.06.46.06 .22 0 .35-.08.5-.22 .07-.15.15-.36.15-.66 0-.67-.45-1.36-.97-1.66 -.15-.08-.23-.07-.38-.07Z"/></svg>