<svg viewBox="0 0 32 32" xmlns="http://www.w3.org/2000/svg"><path d="M12 6v3H6v3H3v3h-.94c-.31 0-.6.15-.79.4 0 0-.09.1-.13.18 -.04.08-.07.2-.1.31 -.06.21-.1.45-.1.81 0 .68.08 1.44.28 2.21 -.09.01-.18.04-.25.06h.28c.2.77.52 1.55.96 2.31 .01.01.01.04.03.06 0 .01 0 .01 0 .03 .05.24.2.45.4.59 .01.01.01.01.03.03 .16.23.33.46.53.68 1.63 1.88 4.27 3.31 8.03 3.31 5.76 0 10.75-2.375 13.75-7.04h5.06c-.64-.17-2.01-.4-1.79-1.22 -.7.8-2 .98-3.07.84 .35-.59.67-1.2.96-1.85 1.65-.1 2.91-.66 3.625-1.35 .81-.79 1.06-1.69 1.06-1.69 .1-.38-.02-.78-.32-1.04 0 0-1.52-1.06-3.69-.85 -.75-2-2.32-2.97-2.32-2.97 -.21-.13-.45-.17-.69-.13 -.17.03-.32.1-.44.21 0 0-.46.4-.82 1.06 -.36.65-.68 1.65-.57 2.9 .04.46.32.86.5 1.31 -.13.07-.25.16-.41.25 -.51.24-1.2.46-2.1.46h-.1v-3h-3v-6Zm2 2h1v1h-1Zm-6 3h1v1H8Zm3 0h1v1h-1Zm3 0h1v1h-1Zm10.34.31c.35.4.75.98.9 1.81 .05.27.21.51.45.66 .23.14.52.19.79.11 .9-.25 1.56-.17 2.03-.04 -.06.06-.02.05-.1.12 -.46.44-1.23.93-2.82.87 -.43-.02-.81.23-.97.62 -.45 1.11-.98 2.11-1.6 3 -1.48.57-4.77.15-5.04-.6 -.98 1.14-3.99 1.14-4.97 0 -.32.87-4.88 1.28-5.66.15 -.63.58-2.92.97-4.22.09 -.09-.41-.15-.8-.16-1.16h17.06c1.24 0 2.25-.34 2.96-.69 .35-.18.66-.36.87-.5 .21-.15.39-.29.34-.25 .24-.15.41-.4.46-.68 .05-.29-.02-.58-.19-.8 -.27-.35-.42-.78-.47-1.32 -.07-.71.09-1.11.25-1.47ZM4.99 13.99h1v1h-1Zm3 0h1v1h-1Zm3 0h1v1h-1Zm3 0h1v1h-1Zm3 0h1v1h-1Zm-13.6 5h19.28c-2.64 3.4-6.62 5.03-11.41 5.03 -2.52 0-4.28-.68-5.54-1.66 2.125-.08 3.65-.625 3.65-.625 .54-.11.9-.63.79-1.18 -.11-.55-.63-.91-1.18-.8 -.05 0-.09.01-.13.03 -.06.01-.11.03-.16.06 0 0-2.2.71-4.79.4 -.24-.43-.43-.85-.57-1.29Zm7.31.18c-.33 0-.6.26-.6.59 0 .32.27.59.59.59 .32 0 .56-.28.56-.6 0-.08-.01-.15-.04-.22 -.04.07-.13.12-.22.12 -.14 0-.22-.12-.22-.25 0-.09.02-.15.09-.19 -.07-.03-.12-.07-.19-.07Z"/></svg>