<svg viewBox="0 0 32 32" xmlns="http://www.w3.org/2000/svg"><path d="M9.84 1.66l-1.17.38c-1.63.54-2.71 1.25-3.34 2.14 -.64.89-.74 1.92-.58 2.74 .14.74.48 1.33.8 1.81 -.29.16-.36.1-.66.41 -.82.81-1.48 2.33-.87 4.14 .45 1.37 1.51 2.11 2.37 2.42 .24.08.24.03.46.07 -.07.34-.14.39-.125.87 .01 1.11.41 2.62 1.81 3.52 .73.47 1.56.71 2.37.84l-5.54 7.37 1.21.48c5.46 2.19 11.68.02 11.68.02l.68-.24v-3.85c.77-.12 1.85-.33 3.19-.89 2.11-.89 4.5-2.7 4.79-5.9 .11-1.24-.18-2.55-.47-3.61 -.08-.28-.09-.26-.16-.49h3.28l-.78-1.47s-.53-1.03-.8-1.59c.78-1.75.21-3.65-1.23-4.45 -.4-.23-.85-.36-1.33-.4 -1.42-.13-3.06.6-4.34 2.29 -.13.17-.67.8-.97 1.17 -.1-.19-.2-.42-.31-.7 -.45-1.13-.93-2.99-.93-5.88v-1h-1c-1.17 0-2.11.3-2.79.84 -.68.53-1.03 1.26-1.19 1.91 -.23.89-.08 1.26 0 1.7 -.36.16-.61.19-1.12.7 -.31.3-.59.7-.79 1.18 -1.03-1.45-1.86-3.25-2.14-5.48Zm7.26 2.57c.125 2.37.5 4.21.96 5.38 .28.7.58 1.22.82 1.57 -.7.82-.88 1.05-1.42 1.68 -.72-.35-2.15-1.15-3.61-2.53 -.22-.93.06-1.38.45-1.77 .43-.44.98-.64.98-.64l.87-.3 -.23-.9s-.18-.83 0-1.52c.08-.35.23-.63.5-.84 .1-.09.44-.1.63-.17Zm-8.77.3c.66 2.87 2.13 5.07 3.68 6.69 0 .02.01.05.01.08l.04-.02c1.76 1.82 3.57 2.87 4.49 3.34l1.17 1s4.07-4.77 5.03-6.05h0c1.3-1.74 2.44-1.71 3.08-1.36 .64.35 1.01 1.07.27 2.19l-.3.44 .2.49c.08.2.17.34.3.61h-2.86l.53 1.36s.27.7.53 1.65c.25.94.46 2.14.39 2.89 -.22 2.3-1.83 3.49-3.58 4.23 -1.76.73-3.5.85-3.5.85l-.94.06v4.125c-.87.25-4.49 1.11-8.28.17l4.64-6.2c1.03-.06 1.81-.19 1.81-.19l-.38-1.97s-.87.16-1.99.17c-1.12.01-2.43-.18-3.17-.66 -.73-.47-.9-1.15-.91-1.88 -.02-.74.18-1.34.18-1.34l.46-1.4 -1.47.07s-.39.01-.85-.15c-.47-.17-.91-.43-1.16-1.18 -.4-1.19-.06-1.67.38-2.11 .43-.44.98-.64.98-.64l1.53-.52 -1.15-1.15s-.81-.9-.98-1.74c-.09-.43-.07-.77.23-1.2 .17-.25.87-.54 1.375-.83Z"/></svg>