<svg viewBox="0 0 32 32" xmlns="http://www.w3.org/2000/svg"><path d="M11.78 4.46l-.63.4 -6.69 4.31 -1.22.78 1.15.875 3.5 2.65 -3.5 2.65 -1.22.9 1.31.75L8.1 19.9v3.34l.43.28 6.87 4.53 .56.375 .56-.375 6.87-4.47 .43-.32v-3.35l3.625-2.16 1.21-.72 -1.07-.91 -3.35-2.85 3.31-2.72 1.09-.875 -1.19-.75 -6.5-4.125 -.63-.375 -.57.46 -3.85 3.15 -3.66-3.16Zm8.81 2.46l4.71 3.03 -2.66 2.15 -4.91-2.85Zm-9 .03l2.75 2.34 -4.72 3 -2.91-2.22Zm4.4 3.65l4.81 2.75 -4.82 3 -4.54-2.85Zm6.65 3.93l2.62 2.25 -2.82 1.68c-.09.03-.18.09-.25.15l-1.75 1.03 -2.72-2.07Zm-13.04.15l4.625 2.9 -2.625 2.06 -4.85-2.85Zm6.4 4.09l3.75 2.875 .56.4 .56-.35 .96-.6v1.06l-5.875 3.84 -5.875-3.875v-1.07l1.06.625 .59.34 .53-.41Z"/></svg>