<svg viewBox="0 0 32 32" xmlns="http://www.w3.org/2000/svg"><path d="M23.96 5c-5.26.6-14.2.29-17.83.18v1.25c2.4.45 2.94.36 2.99 1.76 .17 3.82.08 12.26 0 15.81 -.02 1.33-.77 1.29-3 1.73v1.25c7.29-.24 12.3-.22 18.09 0 .07-.93.51-4.63.69-6h-1.24c-1.4 3.29-1.67 4.41-4.65 4.41h-4.39c-1.48 0-2.18-.61-2.18-1.88v-6.83c3.266 0 4.32.09 4.32.09 1.49.02 1.72 1.22 2.17 3.18h1c-.11-4.833-.22-3.03 0-8h-1c-.65 2.78-.7 3.11-2.16 3.16 0 0-1.5.14-4.35.12V7.18c0-.31.02-.48.52-.48h6.72c1.7 0 2.12 2.18 2.63 4.23h1.2c.04-.89.22-4.368.36-6Z"/></svg>