<svg viewBox="0 0 32 32" xmlns="http://www.w3.org/2000/svg"><path d="M21.5 4c-1.81 0-3.48.72-4.71 2.02l-8.17 8.15c-1.71 1.69-2.64 3.95-2.64 6.36v1.46L8 19.96c.13-1.66.83-3.2 2.02-4.39l8.17-8.18c.86-.92 2.02-1.42 3.26-1.42 2.48 0 4.5 2.019 4.5 4.5 0 1.24-.51 2.4-1.44 3.28l-2.04 2.03 -3.54 1.17h2.35l-3.82 3.82 -3.54 1.17h2.35c-1.32 1.28-3.05 2-4.9 2H9.32l9.29-9.3 -1.42-1.42 -13.3 13.29 1.41 1.41 2-2h4.04c2.4 0 4.66-.94 6.36-2.64l8.13-8.15c1.31-1.25 2.04-2.93 2.04-4.73 0-3.59-2.92-6.5-6.5-6.5Z"/></svg>