<svg viewBox="0 0 32 32" xmlns="http://www.w3.org/2000/svg"><path d="M16 4c-.27 0-.5.01-.75.03 -1.41.07-2.79.36-4.07.875l.75 1.875c1.07-.43 2.21-.69 3.4-.75 .2-.02.42-.04.65-.04 1.88 0 3.66.47 5.21 1.31l.93-1.75c-1.84-.99-3.94-1.57-6.16-1.57ZM9.5 5.71c-1.18.67-2.26 1.55-3.19 2.59 -.42.46-.78.98-1.125 1.5 -.39.57-.72 1.16-1 1.78l1.81.81c.23-.52.51-1.02.84-1.5 .29-.45.62-.87.96-1.25 .79-.89 1.69-1.62 2.68-2.19Zm14.46 1L22.74 8.3c2.44 1.89 4.03 4.78 4.21 8.09 0 .06.04.6 0 1.53l2 .12c.05-1.01 0-1.67 0-1.79 -.22-3.91-2.12-7.33-5-9.57Zm-7.97.28v2c4.25 0 7.76 3.31 8 7.56 0 .11.12 3.06-1 6.62l1.9.59c1.23-3.91 1.1-7.04 1.09-7.32 -.29-5.3-4.71-9.47-10-9.47Zm-1.85.15c-2.16.39-4.11 1.49-5.6 3.15 -.33.35-.64.75-.91 1.15h.03v.03c-1.17 1.76-1.79 3.8-1.69 5.9 0 .01 0 .04 0 .06v.5l2 .06v-.66c-.09-1.72.38-3.375 1.34-4.82 .21-.33.43-.63.68-.91 1.19-1.34 2.78-2.22 4.5-2.54Zm1.43 2.84c-1.59.08-3.08.72-4.25 1.78l1.31 1.5c.84-.77 1.92-1.22 3.06-1.29 .1-.01.18 0 .28 0 .58 0 1.14.09 1.65.28l.68-1.88c-.73-.26-1.54-.41-2.35-.41 -.15 0-.27-.01-.41 0Zm4.28 1.15l-1.1 1.68c1.26.84 2.12 2.23 2.21 3.875l2-.1c-.125-2.29-1.35-4.29-3.125-5.47Zm-4.1 1.84c-1.06.05-2.05.55-2.75 1.34 -.71.78-1.09 1.81-1.04 2.875 0-.01.05 1.125-.41 2.43 -.46 1.31-1.38 2.79-3.35 3.75 0 0-.3.13-.63.28 -.34.14-.75.32-.85.34l.43 1.93c.44-.11.87-.31 1.25-.47 .375-.17.65-.32.65-.32 2.5-1.22 3.76-3.21 4.34-4.875 .58-1.67.53-3 .53-3.19v-.04c-.04-.54.13-1.04.5-1.44 .36-.41.84-.63 1.37-.66 .05-.01.08 0 .12 0v-2c-.09 0-.15-.01-.22 0Zm-5.63.125c-.83 1.23-1.24 2.71-1.16 4.21 0 .01 0 .01 0 .03 0 .08.08 2.26-2.07 3.31 -.05.01-.8.31-1.94.31v2c1.56 0 2.75-.47 2.75-.47h.03l.03-.04c3.22-1.57 3.19-5.04 3.18-5.22v-.04c-.06-1.09.25-2.11.84-3Zm7.75.34l-.97 1.78c.59.32 1.02.9 1.06 1.625 0 .16.28 6.38-4.63 10.34l1.25 1.56c5.71-4.61 5.4-11.54 5.37-12 -.08-1.43-.91-2.68-2.1-3.32Zm-1.91 2.53c-.56 0-1 .44-1 1 0 .02 0 .04 0 .06 0 0 .11 2.05-.91 4.37l1.81.81c1.18-2.68 1.1-5.08 1.09-5.25 0-.03 0-.05 0-.07 -.04-.53-.47-.94-1-.94Zm4.96 1.93c-.13 2.03-.77 6.19-3.72 9.68l1.5 1.28c3.36-3.98 4.07-8.56 4.21-10.85Zm-7.41 4.56c-.81 1.34-2.04 2.64-4 3.59l.875 1.81c2.32-1.125 3.87-2.77 4.84-4.41Z"/></svg>