<svg viewBox="0 0 32 32" xmlns="http://www.w3.org/2000/svg"><path d="M16 4c-1.3 0-2.4.84-2.82 2h-1.19c-2.75 0-5 2.25-5 5h2c0-1.66 1.34-3 3-3h1v2.46c-.33.23-.74.57-1.22 1.06 -.83.82-1.79 1.96-1.79 3.46v13h12v-13c0-1.5-.96-2.65-1.79-3.47 -.49-.49-.9-.83-1.22-1.07v-.29l4.84.81 1.15.18V4.76l-1.16.18 -5.1.84c-.46-1.08-1.52-1.85-2.75-1.85Zm0 2c.55 0 1 .44 1 1v3h-2V7c0-.56.44-1 1-1Zm7 1.18V8.8l-4-.69v-.25Zm-8.63 4.81h3.25c.15.1.57.39 1.15.96 .67.67 1.21 1.53 1.21 2.03v11h-8v-11c0-.5.54-1.36 1.21-2.04 .57-.58 1-.87 1.15-.97Zm-.38 5v2h4v-2Z"/></svg>