<svg viewBox="0 0 32 32" xmlns="http://www.w3.org/2000/svg"><path d="M16 2.96C8.81 2.96 2.96 8.8 2.96 15.99c0 .98.1 1.94.31 2.875C5.96 11.84 11.41 5.95 18.7 3.24c-.89-.19-1.79-.29-2.72-.29Zm7.375 2.31c-3.5 1.01-13.92 5.05-18.1 18.125 .72 1.04 1.6 1.99 2.59 2.78 4.48-13.56 14.75-17.36 18.31-18.29 -.8-1.01-1.76-1.9-2.82-2.63Zm4.59 5.59c-11.59 3.72-15.82 13.44-17.04 17.09 1.04.43 2.15.75 3.31.9 1.22-3.09 5.13-10.83 14.625-14.69 -.17-1.17-.47-2.27-.91-3.32Zm.9 6.96c-1.2.59-3.17 1.8-5.85 4.31 -3.04 2.84-4.46 5.3-5.07 6.68 1.73-.27 3.37-.87 4.81-1.75l6.21 1.9s-1.24-4.6-1.85-6.35c.86-1.45 1.46-3.08 1.71-4.82Z"/></svg>