<svg viewBox="0 0 32 32" xmlns="http://www.w3.org/2000/svg"><path d="M16 4C9.38 4 4 9.38 4 16c0 6.61 5.38 12 12 12 6.61 0 12-5.39 12-12 0-6.62-5.39-12-12-12Zm0 2c1.96 0 3.79.58 5.34 1.56l-.82.09 .18 2 -1.07-.47 -.88.75 .15 2.06 2.15-.69 2.68.87 -.69 1.25 -1.63-1 -1.75.25 -1.72 1.28 -.97 3 1.93 1.59s1.98-.35 2.09-.35c.1 0 .84 1.81.84 1.81l-1.6 5c-1.31.62-2.77.96-4.32.96 -.32 0-.63-.04-.94-.07l-1.1-1.91 1.06-4 -4.04-3.04H7.17l-.97-1.97 2.68-2.13 4-1.91 -.6-2.66 1.71-.375 .81 1.125 3-.57 -.54-2.32 -2.22-.16c.26-.02.53-.07.81-.07Zm-1.13.06l-1.57.65 -.75-.125c.73-.27 1.5-.45 2.31-.54ZM6.05 16.77l.96 1.125v2.06l1.87 2.06h1.15l2.84 3.5c-3.78-1.23-6.53-4.65-6.85-8.75Z"/></svg>