<svg viewBox="0 0 32 32" xmlns="http://www.w3.org/2000/svg"><path d="M16 3C8.83 3 3 8.83 3 16c0 7.16 5.83 13 13 13 7.16 0 13-5.84 13-13 0-7.17-5.84-13-13-13Zm0 2c6.06 0 11 4.93 11 11 0 6.06-4.94 11-11 11C9.93 27 5 22.06 5 16 5 9.93 9.93 5 16 5Zm-4 5.26l-.875 1.96L9 12.45l1.58 1.42 -.45 2.1 1.85-1.08 1.85 1.07 -.45-2.11 1.58-1.43 -2.13-.24 -.88-1.97Zm8 0l-.875 1.96 -2.125.23 1.58 1.42 -.45 2.1 1.85-1.08 1.85 1.07 -.45-2.11 1.58-1.43 -2.125-.24 -.875-1.97Zm-9.19 8.73l-1.73 1c.17.29.36.58.57.85 .2.27.43.53.67.77 .24.24.49.47.76.68 .54.42 1.13.77 1.77 1.04 .31.13.64.25.98.34 .67.18 1.39.28 2.12.28 2.21 0 4.21-.91 5.65-2.37 .24-.25.46-.51.67-.78 .2-.28.4-.56.57-.86l-1.73-1c-.91 1.56-2.5 2.68-4.37 2.94 -.27.03-.55.05-.83.05 -.28 0-.56-.02-.83-.06 -.27-.04-.54-.1-.79-.17 -.51-.15-1-.35-1.44-.62 -.23-.14-.44-.28-.64-.44 -.41-.32-.77-.69-1.09-1.1 -.16-.21-.3-.42-.43-.65Z"/></svg>