<svg viewBox="0 0 32 32" xmlns="http://www.w3.org/2000/svg"><path d="M15.68 1c.02.2.03.39.03.59 0 5.57-8.72 9.32-8.72 16.25 0 3.01 2.48 5.02 4.51 6.79 3.86 2.82 4.62 4.08 4.62 5 0 .61-.15 1.02-.15 1.34 .76-1.02.85-1.93.86-2.81 0-1.79-1.26-3.41-2.6-5.25 -.95-1.35-2.51-2.58-2.51-4.2 0-4.47 6.23-7.42 6.23-12.29 0-2.845-2.02-5.33-2.32-5.47Zm3.68 8l.24.43c.14.31.2.65.2 1.03 0 2.69-3.49 6.7-3.64 7.03 -.14.31-.19.64-.19.95 0 1.21.91 2.54 1.07 2.54 .14 0 3.4-3.35 3.5-5.3 .38.7.54 1.36.54 2.01 0 2.48-2.52 5.85-2.52 5.85 0 .69 1.92 3.2 2.13 3.2 .06 0 .14-.08.19-.15 2.29-2.38 4.06-5.14 4.06-8.26 0-.48-.05-.98-.14-1.49 -.73-4.023-4.5-7.51-5.5-7.9Z"/></svg>