<svg viewBox="0 0 32 32" xmlns="http://www.w3.org/2000/svg"><path d="M17 4v1.18c-.15.05-.29.11-.42.18 -.27.14-.52.32-.73.54 -.22.21-.4.46-.54.73 -.21.4-.33.86-.33 1.34 0 .2.02.4.06.59 .08.38.23.75.45 1.07 .1.15.23.3.36.44 .13.13.28.25.44.36 .47.32 1.05.51 1.66.51 .14 0 .27.02.39.07 .12.04.22.12.31.21 .08.08.16.19.21.31 .04.12.07.25.07.39 0 .42-.25.77-.61.92 -.13.04-.26.07-.4.07 -.15 0-.28-.03-.4-.08 -.13-.05-.23-.13-.32-.22s-.17-.2-.22-.32c-.05-.13-.08-.26-.08-.4h-2c0 .16.01.32.03.47 .02.15.06.3.1.44 .14.43.39.82.7 1.15 .1.1.21.2.33.29 .12.09.24.17.38.24 .13.07.27.13.41.18v1.18h2v-1.19c1.16-.42 2-1.53 2-2.82 0-1.44-1.05-2.66-2.41-2.94 -.2-.05-.4-.07-.6-.07 -.15 0-.28-.03-.4-.08 -.13-.05-.23-.13-.32-.22s-.17-.2-.22-.32c-.05-.13-.08-.26-.08-.4 0-.15.02-.28.07-.4 .04-.13.12-.23.21-.32 .17-.18.42-.29.71-.29 .57 0 1 .43 1 1h2c0-.17-.02-.33-.04-.48 -.03-.16-.07-.31-.11-.45 -.3-.88-.99-1.58-1.86-1.89V3.78h-2Zm-6.49 14c-1.04 0-1.82.26-1.82.26l-.02 0 -5.68 2.17L4.97 26l4.92-1.9 7.13 3.92 12.32-5.11 -.77-1.85 -11.44 4.73 -7.11-3.92 -3.9 1.48 -.65-1.81 3.79-1.46c0-.01.47-.17 1.17-.17s1.52.15 2.22.78l.01 0 0 0c1.03.89 1.8 1.52 2.89 1.85 1.08.34 2.3.37 4.35.37l-.01-2c-2.02 0-3.07-.07-3.75-.29 -.69-.22-1.18-.6-2.17-1.45l-.02-.01c-1.157-1.04-2.54-1.3-3.56-1.3Z"/></svg>