<svg viewBox="0 0 32 32" xmlns="http://www.w3.org/2000/svg"><path d="M19.31 6.96c-.56 0-1.11.03-1.69.18 -.59.15-1.17.4-1.79.81 -.77-.45-1.51-.83-2.22-.91 -.89-.11-1.71-.06-2.66-.04 -1.13.02-1.87.6-3.07 1.06 -1.2.46-2.74.9-4.91.9h-1v9.625l.56.28 1.84.9 6.56 7.31 .03.03c.75.74 1.76.92 2.65.875 .89-.06 1.73-.32 2.4-.72 1.47-.9 5.5-3.69 5.5-3.69l.09-.07 .06-.07c.47-.48.71-1.06.875-1.66l3.84-1.94 2.875-.97 .68-.22V8.92h-1c-2.17 0-3.72-.47-4.91-.94 -1.2-.47-1.93-1.04-3.07-1.07 -.61-.02-1.17-.04-1.72-.04Zm.03 2c.44-.01.96.01 1.62.03 .1 0 1.06.41 2.4.93 1.13.44 2.7.83 4.625.96v6.375l-2.32.78h-.07l-.07.03 -3.04 1.53c-.17-.46-.4-.88-.75-1.25l-.07-.1 -4.25-5.22 -.63-.79 -.79.62 -2.69 2.18c-.91.62-1.64.44-2.38.09 -.22-.11-.21-.14-.375-.25l4.56-3.79 .06-.07c1.35-1.35 2.18-1.81 2.9-2 .35-.1.73-.13 1.18-.125Zm-6.97.03c.38-.01.7-.01 1 .03 .26.03.55.25.81.34 -.11.09-.18.14-.29.25 -.03.02-.04.03-.07.06L8.35 14.2l-.85.68 .75.78s.72.78 1.84 1.31 2.85.83 4.4-.25l.06-.07 1.93-1.6 3.68 4.53 .03.06 .03.03c.66.65.64 1.67 0 2.34 -.01 0 0 .02 0 .03 -.01 0-.15.08-.16.09l-1.32-1.79 -1.625 1.18 1.28 1.71c-.52.35-.76.53-1.32.9l-1.35-1.82 -1.63 1.18 1.28 1.71c-.12.07-.35.22-.44.28 -.32.19-.93.4-1.47.43 -.52.02-.91-.09-1.1-.25l-.04-.04 -6.69-7.41 -.13-.16 -1.63-.82v-6.47c1.91-.13 3.49-.51 4.625-.94 1.33-.52 2.28-.94 2.4-.94 .51-.02.96-.03 1.34-.04Z"/></svg>