<svg viewBox="0 0 32 32" xmlns="http://www.w3.org/2000/svg"><path d="M14.68 3l-.32.28 -6.79 6.71h-5.6v16h16.84c1.41 0 2.64-1 2.93-2.375l1.65-7.625h3.56c1.64 0 3-1.36 3-3 0-1.65-1.36-3-3-3H16.2l.18-.75c.2-.16.33-.23.62-.625 .46-.65.93-1.64.93-2.97 0-1.43-1.29-2.66-2.91-2.66Zm.71 2.09c.42.08.59.25.59.56 0 .9-.28 1.46-.54 1.81 -.26.35-.44.43-.44.43l-.35.18 -.13.4 -.6 2.25 -.32 1.25h13.34c.56 0 1 .43 1 1 0 .56-.44 1-1 1h-5.19l-.19.78 -1.79 8.43c-.11.46-.53.78-1 .78H8.92v-12.6Zm-11.41 6.9h3v12h-3Z"/></svg>