<svg viewBox="0 0 32 32" xmlns="http://www.w3.org/2000/svg"><path d="M11.47 7c-.79 0-1.44.67-1.44 1.49 0 .8.62 1.49 1.43 1.49 .81 0 1.45-.69 1.45-1.5 0-.84-.66-1.5-1.46-1.5ZM.24 7.25c-.09 0-.14.04-.14.14v14.38c0 .1.04.15.13.15h2.05c.1 0 .13-.06.13-.16v-7.01c0-.05-.14-1.4 2.29-1.4s2.28 1.34 2.28 1.39v6.32c0 .46.37.83.82.83h1.37c.08 0 .12-.06.12-.16v-7.01c-.01-1.21-.47-2.16-1.41-2.86 -.8-.6-1.81-.92-3.01-.92 -.92-.01-1.74.19-2.5.58V7.34c0-.1-.05-.15-.14-.15H.17Zm18.62 3.74c-1.57 0-5.12 1.01-5.12 5.23v9.28c0 .04.02.13.12.13h2.01c.08 0 .13-.04.13-.14V21c.8.63 1.75.96 2.82.96 2.97 0 5.34-2.46 5.34-5.5 0-3.06-2.37-5.5-5.34-5.5Zm9.72 0c-1.31 0-2.23.28-2.88.77 -.02.02-1.4 1-1.11 2.71 .16.99.77 1.72 1.82 2.2l2.63 1.18c.57.25.74.66.59 1.06 -.19.46-.65.68-1.8.68 -1.19 0-2.19-.46-2.87-.97 -.1-.07-.22 0-.22.11v1.73c0 .53.24.87.71 1.05 .76.27 1.55.41 2.36.41 .62 0 1.26-.06 1.78-.22 .02-.02 1.76-.46 2.23-2.32 .16-.69.11-1.35-.16-1.99 -.34-.8-.91-1.37-1.71-1.73l-2.83-1.28c-.43-.19-.46-.57-.13-.82 .36-.29 2.16-.71 4.12.34 .07.04.19-.03.19-.12v-2.27c-.01-.07-.03-.11-.1-.13 -.87-.34-1.77-.5-2.7-.5Zm-18.15.24c-.08 0-.14.08-.14.15v10.39c0 .08.05.15.13.15h2.05c.09 0 .13-.06.13-.16v-10.4c-.01-.1-.05-.16-.14-.16H10.4Zm8.42 2.1c1.689 0 3.05 1.4 3.05 3.15 0 1.73-1.35 3.15-3.06 3.15 -.85 0-1.58-.32-2.17-.93 -.6-.62-.9-1.36-.9-2.23 0-1.75 1.35-3.16 3.05-3.16Z"/></svg>