<svg viewBox="0 0 32 32" xmlns="http://www.w3.org/2000/svg"><path d="M11.21 4.375c-.83 1.02-1.22 1.89-1.22 2.75 -.01.85.37 1.51.625 1.93 .25.42.36.64.375.87 0 .23-.08.64-.69 1.43l1.56 1.25c.78-1.01 1.15-1.92 1.12-2.75 -.03-.84-.42-1.44-.66-1.85 -.25-.42-.35-.63-.35-.88s.1-.71.78-1.54Zm5 0c-.83 1.02-1.22 1.89-1.22 2.75 -.01.85.37 1.51.625 1.93 .25.42.36.64.375.87 0 .23-.08.64-.69 1.43l1.56 1.25c.78-1.01 1.15-1.92 1.125-2.75 -.03-.84-.42-1.44-.66-1.85 -.25-.42-.35-.63-.35-.88s.1-.71.78-1.54Zm5 0c-.83 1.02-1.22 1.89-1.22 2.75 -.01.85.37 1.51.625 1.93 .25.42.36.64.375.87 0 .23-.08.64-.69 1.43l1.56 1.25c.78-1.01 1.15-1.92 1.125-2.75 -.03-.84-.42-1.44-.66-1.85 -.25-.42-.35-.63-.35-.88s.1-.71.78-1.54ZM2.99 14v2h1.18l1.53 7.59v.03c.23 1.03.99 1.87 2 2.21l-.72 2.15h2l.65-2h12.68l.65 2h2l-.72-2.16c1.04-.33 1.85-1.17 2.09-2.22v-.04l1.43-7.6h1.18v-2Zm3.21 2h19.59l-1.41 7.21c-.12.43-.49.78-1 .78H8.66c-.54 0-.9-.36-1-.82Z"/></svg>