<svg viewBox="0 0 32 32" xmlns="http://www.w3.org/2000/svg"><path d="M7.5 4v0C6.11 4 5 5.11 5 6.5 5 7.88 6.11 9 7.5 9v0c.47-.01.93-.14 1.33-.39l7.48 5.64c-.83 1.02-1.32 2.32-1.32 3.74 0 1.55.59 2.96 1.56 4.02l-3.05 3.04v0c-.17-.05-.35-.07-.52-.08v0c-1.11 0-2 .89-2 2 0 1.1.89 2 2 2v0c1.1-.01 1.99-.9 1.99-2.01 -.01-.18-.03-.35-.07-.52l3.2-3.21s0-.01 0 0c.85.46 1.82.72 2.85.72 3.31 0 6-2.69 6-6 0-2.98-2.17-5.44-5-5.92V8.67v0c.95-.56 1.28-1.78.72-2.74 -.36-.62-1.02-1-1.73-1v0c-1.11 0-2 .89-2 2 0 .71.38 1.37.99 1.72V12c-.78.13-1.51.41-2.16.81l-7.9-5.95 0-.001c.25-1.36-.65-2.67-2.01-2.92 -.15-.03-.31-.05-.46-.05ZM21 15c1.65 0 3 1.346 3 3 0 1.65-1.35 3-3 3 -1.654 0-3-1.35-3-3 0-1.654 1.346-3 3-3Z"/></svg>