<svg viewBox="0 0 32 32" xmlns="http://www.w3.org/2000/svg"><path d="M5 5v22h22V5H5Zm2 2h18v18H7V7Zm9 2c-.32 0-.64.21-.64.63v9.21c0 .843 1.27.843 1.27 0V9.62c0-.43-.32-.64-.64-.64Zm-3.18.31c-.32 0-.64.21-.64.63v8.49c0 .843 1.27.843 1.27 0v-8.5c0-.43-.32-.64-.64-.64Zm6.35 0c-.32 0-.64.21-.64.63v8.49c0 .843 1.27.843 1.27 0v-8.5c0-.43-.32-.64-.64-.64Zm-9.54 1.27c-.32 0-.64.21-.64.63v5.71c0 .843 1.27.843 1.27 0V11.2c0-.43-.32-.64-.64-.64Zm12.71 0c-.32 0-.64.21-.64.63v5.71c0 .843 1.27.843 1.27 0V11.2c0-.43-.32-.64-.64-.64Zm.07 9.2c-.16-.03-.33.01-.49.15 -2.69 2.29-9.09 2.35-11.89 0 -.64-.55-1.47.42-.83.96 3.25 2.78 10.44 2.68 13.54 0 .47-.42.13-1.06-.34-1.13Z"/></svg>