<svg viewBox="0 0 32 32" xmlns="http://www.w3.org/2000/svg"><path d="M15.49 4c-.2 0-.36.15-.37.35l-.53 13.7 -1.4-.95c-.15-.1-.34-.09-.46.03 -.13.11-.16.3-.07.45l.92 1.55 -1.94.4c-.17.03-.3.18-.3.35 0 .17.12.32.29.36l1.93.4 -.93 1.55c-.09.14-.07.33.06.45 .11.11.32.12.45.03l1.24-.85 -.12 3c-2.62-.54-4.6-2.85-4.6-5.61 0-1.62.67-3.11 1.89-4.21 .17-.16.26-.38.25-.6 -.02-.23-.13-.44-.31-.57 -1.69-1.25-2.66-3.16-2.66-5.23 0-.81.15-1.6.45-2.36 .09-.24.06-.49-.08-.7 -.15-.21-.38-.34-.63-.34 -.16 0-.3.04-.43.13 -2.57 1.81-4.31 4.47-4.97 7.44l1.9 1.9H2.9c-.03.45-.05.91-.03 1.37 .02.61.11 1.21.23 1.81l2.69 2.69H3.95c1.89 4.14 6.02 7.11 10.8 7.33 .19 0 .39.01.58.01 5.07 0 9.43-3.03 11.39-7.36h-1.84l2.7-2.71c.15-.78.23-1.57.23-2.39 0-.27-.04-.53-.05-.8H25.6l1.89-1.9c-.67-2.98-2.41-5.66-4.96-7.46 -.13-.09-.28-.14-.43-.14 -.25 0-.48.12-.63.33 -.14.2-.17.45-.08.69 .3.75.45 1.54.45 2.35 0 2.07-.97 3.97-2.66 5.22 -.19.13-.3.34-.31.56 -.02.22.08.44.25.59 1.51 1.36 2.17 3.37 1.77 5.38 -.45 2.22-2.25 4-4.48 4.43l-.12-3.01 1.24.84c.13.09.34.07.46-.04 .125-.12.14-.31.06-.46l-.93-1.55 1.93-.41c.17-.04.29-.19.29-.36 0-.18-.13-.33-.3-.36l-1.94-.41 .92-1.56c.08-.15.06-.34-.07-.46s-.33-.14-.47-.04l-1.4.94 -.54-13.71c-.01-.2-.17-.36-.37-.36Z"/></svg>