<svg viewBox="0 0 32 32" xmlns="http://www.w3.org/2000/svg"><path d="M16.02 7C11.068 7 7.2 8.06 4.54 10.15 2.24 11.95.98 14.46.98 17.23c0 4.82 3.63 8.75 8.09 8.75 2.06 0 4.03-1.1 5.27-2.94l1.11-1.74c.14-.21.33-.33.54-.33 .2 0 .4.11.52.3l1.13 1.77c1.22 1.82 3.19 2.91 5.26 2.91 4.35 0 8.03-4.09 8.03-8.92 0-2.75-1.26-5.24-3.52-7 -2.64-2.05-6.49-3.09-11.46-3.09Zm0 2c4.44 0 7.97.92 10.22 2.66 2.26 1.76 2.74 3.92 2.74 5.41 0 3.68-2.83 6.91-6.04 6.91 -1.41 0-2.76-.76-3.6-2.02l-1.14-1.77c-.51-.76-1.33-1.21-2.2-1.21 -.87 0-1.7.44-2.22 1.22l-1.12 1.73c-.86 1.27-2.21 2.03-3.61 2.03 -3.65 0-6.1-3.5-6.1-6.76 0-2.15.99-4.11 2.78-5.52C8 9.89 11.54 8.95 15.97 8.95Zm-6.03 3c-2.38 0-3.9 1.46-4.6 2.33 -.54.67-.54 1.65 0 2.32 .69.87 2.22 2.33 4.59 2.33 2.37 0 3.89-1.47 4.59-2.34 .53-.68.53-1.66 0-2.33 -.7-.88-2.23-2.34-4.6-2.34Zm12 0c-2.38 0-3.9 1.46-4.6 2.33 -.54.67-.54 1.65 0 2.32 .69.87 2.22 2.33 4.59 2.33 2.37 0 3.89-1.47 4.59-2.34 .53-.68.53-1.66 0-2.33 -.7-.88-2.23-2.34-4.6-2.34Zm-12 2c1.46 0 2.46.9 2.96 1.5 -.5.59-1.5 1.5-2.97 1.5 -1.47 0-2.47-.91-2.97-1.5C7.5 14.9 8.5 14 9.97 14Zm12 0c1.46 0 2.46.9 2.96 1.5 -.5.59-1.5 1.5-2.97 1.5 -1.47 0-2.47-.91-2.97-1.5 .49-.6 1.49-1.5 2.96-1.5Z"/></svg>