<svg viewBox="0 0 32 32" xmlns="http://www.w3.org/2000/svg"><path d="M16 2c-4.49 0-8 3.44-8 7.83 0 2.13.85 4.73 2.18 6.61l.13.19c.78 1.11 1.68 2.38 1.68 3.35 0 .55.44 1 1 1 .55 0 1-.45 1-1 0-1.61-1.09-3.15-2.05-4.51l-.14-.19c-1.09-1.55-1.82-3.74-1.82-5.47 0-3.28 2.63-5.84 6-5.84 3.36 0 6 2.56 6 5.83 0 1.72-.73 3.92-1.82 5.46l-.13.17c-.82 1.15-2.06 2.9-2.06 4.51 0 .55.44 1 1 1 .55 0 1-.45 1-1 0-.98 1.09-2.53 1.68-3.37l.12-.19c1.32-1.89 2.18-4.48 2.18-6.62 0-4.395-3.52-7.84-8-7.84Zm.21 8c-.47.07-.51 3.19-.75 4.37 -.49-.67-.56-1.77-1-1.86 -.34 0-.52 1.06-.71 1.7l-1.65.24c-.79.3 2.36.38 2.53.39 .33.84.92 2.63 1.16 1.98l.49-3.31c.5 1.04.68 2.49.93 2.49 .32-.01.36-.67.6-1.42 .85-.01 2.23-.03 2.13-.39 0 0-2.08-.13-2.61-.34 -.13-.56-.7-3.96-1.18-3.92Zm-3.22 13c-.55 0-1 .45-1 1s.45 1 1 1h6c.55 0 1-.45 1-1s-.45-1-1-1h-6Zm1 4c-.55 0-1 .45-1 1s.45 1 1 1h4c.55 0 1-.45 1-1s-.45-1-1-1h-4Z"/></svg>