<svg viewBox="0 0 32 32" xmlns="http://www.w3.org/2000/svg"><path d="M30.34 1.59l-3.91 2.56 -6.25 4.09 .37-.66 1.62-2.94L19.2 6.2s-2.73 1.46-5.94 3.375c-3.22 1.91-6.87 4.23-8.88 6.18 -3.27 3.26-3.28 8.53-.001 11.71h.03c3.26 3.25 8.48 3.26 11.65 0v-.04c1.7-1.71 3.8-4.82 5.53-7.57 1.72-2.76 3.03-5.13 3.03-5.13l1.4-2.47 -2.63 1.06 -.82.31 5.21-8.16ZM23.62 8.4l-4.375 6.84 -1.69 2.65 2.9-1.19 .93-.375c-.54.92-.66 1.15-1.5 2.5 -1.7 2.71-3.83 5.85-5.22 7.25 -2.42 2.5-6.35 2.52-8.875 0h-.04c-2.51-2.42-2.5-6.35.03-8.875 1.69-1.65 5.33-4.02 8.5-5.91 1.52-.92 1.75-1.04 2.81-1.63l-.6 1.12 -1.94 3.53 3.34-2.22ZM9.99 17.99c-2.22 0-4 1.78-4 4 0 2.21 1.78 4 4 4 2.21 0 4-1.79 4-4 0-2.22-1.79-4-4-4Zm0 2c1.19 0 2 .8 2 2 0 1.19-.81 2-2 2 -1.2 0-2-.81-2-2 0-1.2.8-2 2-2Z"/></svg>