<svg viewBox="0 0 32 32" xmlns="http://www.w3.org/2000/svg"><path d="M29.01 10.02c-2.04-.01-4.16 1.15-3.57 3.01v0c-2.19.43-3.72 1.34-4.71 2.41 -.15-.49-.68-.84-1.7-.84h-4.39c-.47 0-.65-.12-.58-.37 .08-.28.09-.34.18-.61 .1-.32.39-.36.66-.36h6.67l.48-1.58c-6.99 0-7.23-.03-8.01.05 -.62.06-1.18.24-1.54.75 -.34.49-.72 1.78-.88 2.35 -.27.97-.04 1.42 1.63 1.42h4.36c.39 0 .43.13.38.33 -.06.22-.14.5-.23.73 -.08.21-.24.36-.69.36h-6.34l-.59 1.97c6.99 0 7.26-.04 8.04-.12 .33-.04.65-.11.92-.25 .01.18.02.36.06.54 .27 1.52 1.36 2.61 2.83 2.97 2.43.59 5.43-.85 6.75-3.41 .93-1.81.7-3.82-.17-5.28h0c1.48-.3 3.51-1.1 3.28-2.53 -.15-.9-1.2-1.41-2.11-1.57 -.28-.05-.57-.08-.86-.08Zm-.36.97c.14-.01.29.01.43.04 .76.17.98.79.24 1.22 -.54.3-1.19.4-1.72.48 -.21-.3-.49-.93-.125-1.32 .25-.27.71-.43 1.15-.43Zm-19.31.7v0l-1.71 5.68 -2.73-5.69H2.42l-2.45 8h2.24l1.55-5.33 2.52 5.32h2.84l2.42-8.01H9.29Zm16.82 2.8c.33.7.51 1.59.35 2.39 -.3 1.47-1.84 2.39-3.09 2.19 -1.55-.24-1.93-1.98-.71-3.25 .81-.84 2.26-1.21 3.42-1.35Z"/></svg>