<svg viewBox="0 0 32 32" xmlns="http://www.w3.org/2000/svg"><path d="M29 19.12c0 2.08-.85 7.45-5.42 7.45 -4.36 0-5.94-3.85-5.64-5.24 .25.42 1.04 2.61 5.32 2.61 4.39 0 4.43-4.88 4.43-4.88s-.08-3.47-2.75-3.47c-3.27 0-3.375 5.19-6.66 5.19 -1.65 0-2.2-.88-2.53-1.11 .7 2.19-.13 7.3-5.51 7.3 -7.68 0-7.28-8.28-7.28-8.28 -.001 0 1.28 5.1 7.14 5.1 3.57 0 4.03-2.04 4.03-2.98 0-.93-.72-2.58-3.91-2.58l-.7-3.32s.94.3 2.11.3c1.53 0 1.89-1.03 1.89-1.88 0-.84-.83-1.7-2.34-1.7 -2.34 0-4.22 2.39-4.22 2.39l-1.82-3.38s1.68-2.18 5.1-2.18c3.41 0 4.96 2.79 4.96 4.43 0 1.64-.77 3-2.22 3.76 1.96.92 1.36 1.59 2.61 1.59 2.07 0 2.35-1.7 3.32-3.23 .89-1.42 2.17-2.68 4.43-2.68 4.52 0 5.54 4.57 5.54 6.65Zm-8.83-7.15c2.3 0 4.08-1.34 4.08-1.34l-1.92-3.38s-1.33 1.86-3.91 1.86 -4.71-2.36-4.71-2.36 .97 5.19 6.43 5.19Zm.35-5.37L18.6 4.55l-2.13 1.86 1.91 2.17Z"/></svg>