<svg viewBox="0 0 32 32" xmlns="http://www.w3.org/2000/svg"><path d="M24.81 4.03c-.84 0-1.68.33-2.32.96L9.8 17.49l-.63.59c-.75.14-1.47.5-2.04 1.125 -.84.91-1 2.02-1.32 3.21 -.32 1.19-.72 2.52-1.69 4l-1 1.56h1.84c3.91 0 6.49-1.88 7.81-3.19l.03-.04c.6-.62.93-1.4 1.06-2.19l.5-.47 12.68-12.5v-.04c1.26-1.27 1.26-3.33 0-4.6 -.64-.64-1.45-.97-2.29-.97Zm0 1.96c.31 0 .6.14.875.4 .53.53.53 1.24 0 1.78l-9.04 8.93 -1.82-1.82 9.06-8.91c.26-.27.59-.41.9-.41ZM13.4 16.7l1.81 1.81 -1.5 1.46 -1.82-1.82Zm-3.44 3.31c.5.01 1.05.21 1.46.59 .77.71.79 1.95-.04 2.78 -.87.86-2.41 1.98-4.66 2.4 .48-1.06.81-2.04 1.03-2.85 .33-1.26.57-2.12.84-2.41 .34-.38.83-.55 1.34-.54Z"/></svg>