<svg viewBox="0 0 32 32" xmlns="http://www.w3.org/2000/svg"><path d="M12.5 5c-1.08 0-2 .6-2.6 1.43 -.6.82-.91 1.9-.91 3.06 0 1.16.31 2.23.9 3.06 .59.82 1.52 1.43 2.59 1.43 1.07 0 2-.61 2.59-1.44 .59-.83.9-1.91.9-3.07 0-1.17-.32-2.24-.91-3.07 -.6-.83-1.53-1.44-2.6-1.44ZM16 9.5c0 1.16.31 2.23.9 3.06 .59.82 1.52 1.43 2.59 1.43 1.07 0 2-.61 2.59-1.44 .59-.83.9-1.91.9-3.07 0-1.17-.32-2.24-.91-3.07 -.6-.83-1.53-1.44-2.6-1.44 -1.08 0-2 .6-2.6 1.43 -.6.82-.91 1.9-.91 3.06ZM12.5 7c.31 0 .65.15.96.59 .31.43.53 1.13.53 1.9s-.22 1.46-.54 1.9c-.32.43-.66.59-.97.59 -.32 0-.66-.16-.97-.6 -.32-.44-.54-1.14-.54-1.91 0-.78.21-1.47.53-1.91 .31-.44.65-.6.96-.6Zm7 0c.31 0 .65.15.96.59 .31.43.53 1.13.53 1.9s-.22 1.46-.54 1.9c-.32.43-.66.59-.97.59 -.32 0-.66-.16-.97-.6 -.32-.44-.54-1.14-.54-1.91 0-.78.21-1.47.53-1.91 .31-.44.65-.6.96-.6Zm-12 5c-1.08 0-2 .6-2.6 1.43 -.6.82-.91 1.9-.91 3.06 0 1.16.31 2.23.9 3.06 .59.82 1.52 1.43 2.59 1.43 1.07 0 2-.61 2.59-1.44 .59-.83.9-1.91.9-3.07 0-1.17-.32-2.24-.91-3.07 -.6-.83-1.53-1.44-2.6-1.44Zm17 0c-1.08 0-2 .6-2.6 1.43 -.6.82-.91 1.9-.91 3.06 0 1.16.31 2.23.9 3.06 .59.82 1.52 1.43 2.59 1.43 1.07 0 2-.61 2.59-1.44 .59-.83.9-1.91.9-3.07 0-1.17-.32-2.24-.91-3.07 -.6-.83-1.53-1.44-2.6-1.44Zm-17 2c.31 0 .65.15.96.59 .31.43.53 1.13.53 1.9s-.22 1.46-.54 1.9c-.32.43-.66.59-.97.59 -.32 0-.66-.16-.97-.6 -.32-.44-.54-1.14-.54-1.91 0-.78.21-1.47.53-1.91 .31-.44.65-.6.96-.6Zm17 0c.31 0 .65.15.96.59 .31.43.53 1.13.53 1.9s-.22 1.46-.54 1.9c-.32.43-.66.59-.97.59 -.32 0-.66-.16-.97-.6 -.32-.44-.54-1.14-.54-1.91 0-.78.21-1.47.53-1.91 .31-.44.65-.6.96-.6ZM16 16c-1.34 0-2.27.86-2.72 1.625 -.46.75-.74 1.39-1 1.65 -.16.15-1.13.51-2.13 1.03 -.51.25-1.02.6-1.44 1.125 -.43.52-.72 1.25-.72 2.06 0 1.92 1.57 3.5 3.5 3.5 .86 0 1.76-.28 2.65-.54 .88-.26 1.84-.47 1.84-.47s.95.21 1.84.46c.88.25 1.78.53 2.65.53 1.92 0 3.5-1.58 3.5-3.5 0-.8-.3-1.52-.72-2.04 -.43-.52-.94-.83-1.44-1.1 -1-.54-1.99-.96-2.125-1.1 -.24-.24-.51-.9-.97-1.66 -.47-.77-1.42-1.625-2.75-1.625Zm0 2c.66 0 .73.16 1.03.65 .29.49.52 1.33 1.25 2.06 .82.82 1.86 1 2.625 1.4 .37.2.67.41.84.625 .17.2.25.39.25.75 0 .83-.67 1.5-1.5 1.5 -.29 0-1.23-.23-2.1-.47 -.88-.25-1.59-.54-2.41-.54 -.82 0-1.54.28-2.41.53 -.88.24-1.81.46-2.1.46 -.84 0-1.5-.67-1.5-1.5 0-.41.08-.61.25-.82 .16-.21.47-.41.84-.6 .74-.38 1.78-.54 2.62-1.375 .73-.74.95-1.61 1.25-2.1 .29-.5.36-.625 1.03-.625Z"/></svg>