<svg viewBox="0 0 32 32" xmlns="http://www.w3.org/2000/svg"><path d="M12.93 6v18.75L16.99 26V10.34c0-.42.04-.7.21-.875 .17-.24.35-.26.59-.16 .58.17.84.66.84 1.53v6.31c1.31.62 2.51.68 3.37.03 .9-.63 1.37-1.75 1.37-3.41 0-1.73-.33-3.04-1.1-3.91 -.7-.94-1.92-1.7-3.72-2.32 -2.25-.73-4.14-1.25-5.66-1.57Zm-1.25 11.34l-.82.25 -5.04 1.81 -.875.34c-1.32.55-2.01 1.13-1.97 1.65 .07.76.94 1.3 2.5 1.71 2.02.54 4.08.65 6.18.34v-2.13l-.82.31 -.88.34 -1.47.28 -1.38-.19c-.28-.18-.34-.36-.16-.54 .17-.11.41-.24.68-.35l.93-.35 3.06-1.07Zm11.65 1c-.38-.02-.77.01-1.125.03 -1.35.02-2.72.26-4.16.71v2.5l2.84-1 1.46-.5s.56-.15.96-.25c.62-.17 1.28.06 1.28.06 .37.03.55.16.625.34 .07.2-.17.38-.69.56l-1.29.5 -5.22 1.875v2.43l2.43-.875 5.84-2.07 .71-.32c1.38-.52 2-1.09 1.93-1.79 -.04-.67-.81-1.18-2.19-1.63 -1.17-.4-2.35-.59-3.47-.63Z"/></svg>