<svg viewBox="0 0 32 32" xmlns="http://www.w3.org/2000/svg"><path d="M17 4c-2.84 0-6 2.61-6 6.36v.63h-1c-2.21 0-4 1.79-4 4 0 .4.06.81.18 1.19 -1.85.56-3.19 2.27-3.19 4.3 0 2.48 2.019 4.5 4.5 4.5h7.5v-.59l-4.24-1.42H7.48c-1.38 0-2.5-1.13-2.5-2.5 0-1.38 1.12-2.5 2.5-2.5h2.53l-1.52-1.68c-.34-.38-.53-.85-.53-1.33 0-1.11.89-2 2-2h3v-2.64c0-2.01 1.42-3.64 2.95-4.18 .07 1.9.89 2.69 1.88 3.42 .7.52 1.16.86 1.16 2.39v1h3c1.1 0 2 .89 2 2 0 .48-.19.95-.53 1.32l-1.52 1.67h2.53c1.37 0 2.5 1.12 2.5 2.5 0 1.37-1.13 2.5-2.5 2.5h-2.58l-.93 2h3.5c2.48 0 4.5-2.02 4.5-4.5 0-2.03-1.35-3.75-3.19-4.31 .12-.39.18-.79.18-1.2 0-2.21-1.8-4-4-4h-1.07c-.26-1.78-1.2-2.47-1.91-3 -.75-.56-1.25-.93-1.04-2.9L18 3.92h-1.12Zm0 11.5l-3 6.46 3 1v5.53l3-6.5 -3-1v-5.5Z"/></svg>