<svg viewBox="0 0 32 32" xmlns="http://www.w3.org/2000/svg"><path d="M16 4c-4.33 0-8 3.05-8 7v3h6v-3c0-.15.08-.37.43-.6 .34-.24.91-.41 1.56-.41s1.21.17 1.56.4c.34.23.43.42.43.59 0 .57-.19.98-.57 1.43 -.38.45-.96.92-1.6 1.46 -1.28 1.08-2.85 2.58-2.85 5.09v1h6v-1c0-.34.125-.58.5-.97 .375-.4.99-.86 1.65-1.41 1.32-1.11 2.84-2.81 2.84-5.625 0-3.92-3.67-7-8-7Zm0 2c3.39 0 6 2.36 6 5 0 2.14-.98 3.1-2.16 4.09 -.59.49-1.22.98-1.79 1.56 -.35.35-.62.82-.82 1.34h-1.94c.31-1.02.92-1.79 1.84-2.57 .61-.52 1.28-1.06 1.84-1.75 .56-.7 1-1.61 1-2.69 0-.97-.58-1.76-1.32-2.25 -.75-.5-1.69-.75-2.69-.75 -1.01 0-1.95.25-2.69.75 -.74.49-1.32 1.29-1.32 2.25v1h-2v-1c0-2.69 2.59-5 6-5Zm-3 16v6h6v-6Zm2 2h2v2h-2Z"/></svg>