<svg viewBox="0 0 32 32" xmlns="http://www.w3.org/2000/svg"><path d="M16 5C8.26 5 2 9.253 2 14.5c0 4.78 5.21 8.73 12 9.39v2.1h4v-2.11c1.32-.13 2.58-.39 3.76-.75l1.56 2.84h4.66l-2.7-4.42c2.87-1.74 4.69-4.27 4.69-7.09 0-5.247-6.27-9.5-14-9.5Zm1.5 3C23.29 8 28 11.13 28 15c0 2.13-1.44 4.03-3.69 5.31 -.23-.19-.48-.35-.75-.46 1.96-.49 3.43-2.25 3.43-4.36 0-2.49-2.02-4.5-4.5-4.5h-8.5v10.59c-4.08-.97-7-3.55-7-6.6 0-3.87 4.7-7 10.5-7Zm.5 6h3.5c.82 0 1.5.67 1.5 1.5 0 .82-.68 1.5-1.5 1.5H18v-3Zm0 6h1.12c.55 0 1.06.3 1.33.79l.45.82c-.93.21-1.91.33-2.92.36v-1.99Z"/></svg>