<svg viewBox="0 0 32 32" xmlns="http://www.w3.org/2000/svg"><path d="M17.11 4.01c-2.04.09-4.06.68-6.1 1.64 -.62.28-.85.57-1.09 1.03 -.57 1.04-.89 2.03-1.09 2.86 -1.16 1.39-1.99 3.05-2.36 4.89 -.577.98-1.14 2.25-1.26 3.88 0 0-.04.41-.03.42 -1.93-.26-4.16-1.17-4.16-1.17 .496.79 3.33 1.45 4.15 1.75 0 0 .09 5.33 3.51 7.14 -.62-.94-.73-1.1-.73-1.1s-1.79-3.26-1.48-5.67c.03 0 .08.01.12.01 1.3 4.76 5.61 8.24 10.72 8.24 .33 0 .65-.02.98-.04 .76.08 1.5.02 2.18-.22 .37-.12.75-.35 1.1-.59 3.82-2.13 5.49-4.47 6.7-8.05 .29-.88.44-1.94.53-2.85 .47-4.49-1.67-8.81-5.625-10.87 -2.064-1.08-4.11-1.49-6.14-1.4Zm.27 2.16c5.79 0 10.5 4.74 10.5 10.59 -.01 4.13-2.39 7.73-5.82 9.47 -.79.25-1.98.45-3.53.2 0 0-4.97-1.26-6.95-5.88 2.08.03 2.85-.01 4.24-.22 2.14-.31 4.3-.89 6.26-1.8 .64-.3.6-1.06.52-1.63 -.11-.7-.61-.66-1.17-.26 0 0-4.47 3.18-10.34 2.92 -1.02-1.75-1.46-6.04-1.46-6.04 2.25-1.92 4.52-3.25 9.16-2.86 .01-.35.16-1.48-1.12-1.54 0 0-5.1-.61-7.95 1.82 .13-.9.31-1.6.6-2.15 1.86-1.68 4.3-2.7 6.98-2.7Zm-8.77 4.76s-.07.67-.04 1.07c-.19.13-.55.44-1 .91 .28-.7.61-1.37 1.02-1.99Zm-.08 3.63s.09 2.61.85 4.9l-2.26-.38c-.12-.51-.19-1.01-.23-1.53 .24-.94.72-2.13 1.62-3.01Zm-1.2 5.33c.8.17 1.85.41 2.34.49 1.48 4.183 5.89 6.76 5.89 6.76 .05.02.09.03.14.05 -3.981-.64-7.23-3.53-8.4-7.33Z"/></svg>