<svg viewBox="0 0 32 32" xmlns="http://www.w3.org/2000/svg"><path d="M21.1 4.33c-1.44.03-3.2 1.08-4.99 2.82 .15.15.3.3.46.46 3.75-3.65 5.45-2.44 5.5-2.41 1.02.57 1.63 2.54.7 6.27 -1.27-.3-2.56-.49-3.86-.6 -3.28-4.58-6.41-6.48-8.31-6.48 -1.41 0-2 .95-2.17 1.26 -.83 1.45-.61 3.83 0 6.09 -3.22.92-5.5 2.46-5.49 4.33 .02 2.71 4.7 4 5.56 4.22 -.94 3.73-.47 6.17 1.01 7.01 1.27.72 3.42.27 6.29-2.52 -.16-.15-.31-.31-.47-.47 -3.76 3.64-5.46 2.43-5.51 2.4 -1.02-.58-1.64-2.54-.71-6.29 .56.13 1.9.43 3.85.59 3.27 4.57 6.4 6.47 8.29 6.47 1.4 0 1.99-.96 2.16-1.27 .82-1.46.6-3.84-.01-6.1 6.94-2 7.11-5.94 1.54-8.04v-.01c-.54-.2-1.08-.38-1.63-.52 .89-3.56.52-6.14-1.02-7.02 -.4-.23-.84-.32-1.32-.31Zm-10.47.75c1.67 0 4.5 1.8 7.44 5.75 -1.43-.08-2.86-.07-4.28.04 .59-.84 1.23-1.64 1.92-2.39 -.16-.16-.31-.32-.47-.47 -.84.92-1.61 1.89-2.32 2.92 -1.3.125-2.59.34-3.85.66 -.01-.07-1.11-3.75-.06-5.61l0 0c.13-.24.54-.93 1.58-.93Zm5.3 6.26c.85-.01 1.71.01 2.56.07 1.43 2.03 1.31 2.19 1.93 2.93 .12-.16.28-.28.47-.34 -.3-.52-.81-1.42-1.57-2.53 1.84.18 2.96.45 3.28.53 -.19.65-.41 1.32-.67 2.01 .11.04.22.11.31.19l0 0c.09-.14.24-.24.4-.26 .22-.62.41-1.22.58-1.81 .53.14 1.05.3 1.57.5 4.83 1.81 3.37 4 3.3 4.11 -.91 1.6-3.65 2.51-4.82 2.84 -.17-.55-.36-1.1-.57-1.66 -.2 0-.39-.1-.49-.26l-.01 0c-.08.06-.16.12-.25.16 .26.65.48 1.29.66 1.92 -1.08.27-2.18.46-3.29.59 .15-.25.78-1.2 1.46-2.48 -.1-.04-.19-.09-.28-.15 -.05.05-.17.19-.5.19 -.29.51-.8 1.4-1.55 2.51 -1.71.15-3.42.16-5.13.04 -.36-.51-.99-1.42-1.68-2.64 -.05-.02-.1-.05-.14-.07 -.09.07-.18.14-.58.14 .28.51.79 1.39 1.54 2.48 -1.11-.11-2.21-.29-3.3-.54 .17-.64.39-1.29.64-1.96 -.15 0-.25 0-.39-.05 -.11.03-.21.05-.32.04 -.23.61-.42 1.2-.59 1.79 -7.29-1.95-6.4-5.64-.07-7.48 .16.54.35 1.09.56 1.65 .47 0 .58.15.65.24 .02-.04.06-.08.1-.1 -.27-.67-.5-1.33-.7-1.98 .31-.09 1.47-.39 3.28-.6 -.73 1.1-1.22 1.99-1.5 2.51 .13.08.24.21.29.36 .11-.17.27-.31.46-.39 .29-.54.81-1.46 1.58-2.6 .85-.08 1.7-.12 2.55-.13Zm.04 1.41l-.11.31 -.33 0 .25.19 -.1.31 .26-.19 .26.18 -.1-.32 .25-.2 -.33-.01 -.11-.32Zm-1.46.38l-.11.31 -.33 0 .25.19 -.09.3 .26-.19 .26.18 -.1-.31 .25-.2 -.33-.01 -.11-.32Zm2.89 0l-.11.31 -.33 0 .25.19 -.09.3 .26-.19 .26.18 -.1-.31 .26-.2 -.33-.01 -.11-.32Zm3.96 1.27c-.46 0-.7.21-.7.64v1.82c0 .42.23.64.69.64h.03c.46 0 .69-.22.69-.65v-1.83c0-.43-.24-.65-.7-.65v-.01h-.04Zm-8.99 0c-.46 0-.77.19-.77.64v1.82c0 .47.3.64.76.64h0c.46 0 .76-.18.76-.65 0-.45.05-.63-.18-.63h-.16c-.22 0-.18.18-.18.55 0 .21-.11.27-.27.27 -.16 0-.27-.07-.27-.28v-1.67c0-.22.1-.28.26-.28 .15 0 .26.06.26.27 0 .32-.04.47.17.47h.15c.21-.01.17-.18.17-.57 0-.46-.31-.65-.77-.65h-.01Zm4.51.03c-.05-.01-.09.02-.09.07 0 0-.01 0 0 .01v2.34c0 .43.22.64.68.64h.01c.46 0 .68-.22.68-.65v-2.35c-.01-.05-.05-.09-.1-.09 -.01 0-.01 0-.01 0h-.06c-.05-.01-.09.02-.09.07v.01 2.26c0 .36-.12.5-.46.5 -.35 0-.47-.15-.47-.51v-2.27c0-.05-.03-.09-.07-.09 -.01-.01-.02-.01-.03 0h-.06Zm-6.57 0c-.1-.01-.18.06-.19.15v0l-.5 2.69c-.03.12.04.18.15.18h.13c.09 0 .17-.07.18-.16 0-.01-.01-.01 0-.01l.08-.52h.55l.08.51c0 .09.08.16.17.16 0 0 0-.01 0-.01h.16c.11 0 .17-.07.15-.19l-.52-2.7c-.01-.1-.1-.17-.2-.16h-.32Zm3.17 0c-.12 0-.18.05-.18.17v.09c0 .11.05.17.17.17h.33v2.42c0 .11.05.17.17.17h.15c.11 0 .17-.06.17-.18v-.01 -2.43h.34c.11 0 .17-.06.17-.18v-.1c0-.12-.06-.18-.18-.18h-1.18Zm1.75 0c-.05-.01-.09.02-.09.07 0 0-.01 0 0 .01v2.87c-.01.04.03.08.07.08h.01 1.02c.04 0 .08-.03.09-.07 0-.01 0-.02 0-.02v-.04c0-.05-.03-.09-.08-.1 -.01-.01-.02-.01-.02 0v-.01h-.89V16h.73c.04 0 .08-.04.08-.09v-.02 -.04c0-.05-.04-.09-.09-.1h-.01 -.74v-1.18h.86c.04 0 .08-.04.09-.09v-.01 -.04c0-.05-.03-.09-.08-.09h-.02 -1.02Zm3.58 0c-.05-.01-.09.02-.09.07 0 0-.01 0 0 .01v2.87c-.01.04.03.08.07.08h.01 .05c.04 0 .08-.03.08-.08v-.02 -1.23h.52l.47 1.23c.01.04.05.07.1.06h.06c.06 0 .09-.05.06-.11l-.49-1.25c.27-.08.41-.28.41-.61V15c0-.43-.24-.65-.7-.65h-.625Zm-10.55 0c-.11-.01-.17.05-.17.17v2.69c0 .11.05.17.17.17h.99c.11 0 .17-.06.17-.18v-.1c0-.12-.06-.18-.18-.18h-.67v-.88h.51c.11 0 .17-.06.17-.18v-.1c0-.12-.06-.18-.18-.18h-.52v-.84h.65c.11 0 .17-.06.17-.18v-.1c0-.12-.06-.18-.18-.18H8.2Zm14.44 0c-.04-.01-.09.01-.1.05 -.01 0-.01.01-.01.02v2.87c-.01.04.03.08.07.08h.01 .05c.04 0 .08-.03.08-.08v-.02 -1.19h.48c.46 0 .69-.22.69-.65v-.48c0-.44-.24-.65-.7-.65h-.63Zm1.86 0c-.04-.01-.08.01-.09.05 -.01 0-.01.01-.01.02v2.87c-.01.04.03.08.07.08h.01 1.02c.04 0 .08-.03.08-.08 0-.01 0-.01 0-.02v-.04c0-.05-.04-.09-.08-.09h-.02v-.01h-.89v-1.22h.73c.04 0 .08-.04.09-.09v-.01 -.04c0-.05-.04-.09-.09-.1h-.01 -.74v-1.18h.87c.04 0 .08-.04.08-.09v-.01 -.04c0-.05-.03-.09-.08-.09h-.02 -1.02Zm-18.28 0c-.12 0-.18.05-.18.17v2.69c0 .11.05.17.17.17h.15c.11 0 .17-.06.17-.18v-1.05h.25l.33 1.07c.02.09.1.15.19.14h.15c.12 0 .18-.09.14-.21l-.37-1.09c.2-.1.33-.28.33-.57v-.55c0-.46-.31-.65-.77-.65h-.62Zm15.04.16c.34 0 .47.14.47.5v1.66c-.01.36-.14.5-.48.5 -.35 0-.48-.15-.48-.51v-1.67c0-.36.13-.51.47-.51Zm-2.4.03h.46c.34 0 .47.14.47.5v.29c0 .35-.14.5-.48.5v-.01h-.47v-1.3Zm3.9 0h.46c.34-.01.47.14.47.5v.32c0 .35-.14.5-.48.5h-.47V14.6Zm-16.23.22h.26c.16 0 .27.05.27.27v.39c0 .21-.12.27-.28.27h-.27v-.96Zm3.81.14l.21 1.35h-.43l.21-1.36Zm4.04 2.99l-.11.3 -.33 0 .25.19 -.1.31 .26-.19 .26.18 -.1-.32 .26-.2 -.33-.01 -.11-.31Zm2.83 0l-.11.3 -.33 0 .25.19 -.1.31 .26-.19 .26.18 -.1-.32 .25-.2 -.33-.01 -.11-.31Zm-1.42.33l-.11.31 -.33 0 .25.19 -.1.31 .26-.19 .26.18 -.1-.32 .25-.2 -.33-.01 -.11-.32Zm6.89 1.98c1.03 3.84.2 5.32.05 5.6 -.14.23-.54.92-1.59.92 -1.68 0-4.5-1.8-7.45-5.75 1.42.08 2.85.06 4.27-.05 -.6.83-1.24 1.63-1.93 2.38 .15.15.3.31.46.46 .83-.92 1.6-1.9 2.31-2.93 2.15-.22 3.65-.62 3.84-.67Z"/></svg>