<svg viewBox="0 0 32 32" xmlns="http://www.w3.org/2000/svg"><path d="M16 3C9.85 3 4.71 7.28 3.36 13.02l.01-.01 11.55-3.34c1.8-.53 2.82-.61 4.13-.43 1.88.31 2.74 1.3 3.19 2.88l.56 1.96c.42 1.46.05 2.63-1.24 3.83 -1.01.9-1.63 1.27-3.21 1.72l-4.83 1.38 11.47 1.41 .5 1.77 -2.51.69 -14.94-1.94 1.16 4.1c1.96 1.19 4.25 1.88 6.71 1.88 7.16 0 13-5.84 13-13 0-7.17-5.84-13-13-13Zm2.03 8.73c-.54-.01-1.28.12-2.31.42l-9.87 2.83 1.5 5.16 10.37-3c2.41-.69 2.6-1.23 2.31-2.27l-.59-2.07c-.2-.69-.53-1.09-1.43-1.1Zm-15.04 4.4c.02 2.44.73 4.72 1.93 6.67l-1.94-6.68Z"/></svg>