<svg viewBox="0 0 32 32" xmlns="http://www.w3.org/2000/svg"><path d="M25.9 4c-.7 0-1.67.03-2.69.12 -2.05.19-4.42.53-5.875 2 -1.24 1.23-3.78 4.49-6.13 7.56 -.47.6-.45.59-.88 1.15l-1.72-.1c-1.28-.07-2.51.47-3.32 1.46l-2.1 2.56 -1.04 1.31 1.62.31 3.28.65 3.84 3.84 .65 3.28 .34 1.625 1.28-1.04 2.56-2.1c.99-.81 1.53-2.04 1.46-3.32l-.1-1.69c.58-.45.56-.43 1.18-.91 3.07-2.36 6.35-4.89 7.56-6.1 1.45-1.46 1.77-3.86 1.96-5.91 .19-2.06.09-3.82.09-3.82l-.04-.91 -.91-.04s-.43-.04-1.13-.04Zm-.91 2c.39 0 .67.02.96.03 .01.58.03 1.18-.1 2.56 -.18 1.89-.76 4-1.41 4.65 -.9.89-4.29 3.58-7.35 5.93 -2.71 2.07-4.62 3.53-5.16 3.93l-3.07-3.07c.41-.56 1.81-2.47 3.87-5.16 2.34-3.06 5.05-6.46 5.96-7.38 .68-.69 2.76-1.27 4.65-1.44 .68-.07 1.19-.1 1.59-.1Zm-4.57 3.53c-1.12 0-2 .91-2 2.03 0 1.11.88 2.03 2 2.03 1.11 0 2.03-.92 2.03-2.04s-.92-2.04-2.04-2.04ZM8.48 16.74l.37.03c-.61.79-1.59 2.07-1.72 2.25l-1.35-.29 1.03-1.25c.4-.5 1.01-.79 1.65-.75Zm-2.29 5.18c-.86.85-1.35 2.03-1.69 3.03 -.35.99-.5 1.81-.5 1.81l-.32 1.46 1.46-.29s.79-.14 1.78-.47c.98-.34 2.16-.83 3.06-1.72l-1.41-1.41c-.45.44-1.33.83-2.125 1.125 .3-.84.75-1.78 1.12-2.16Zm9 1.18l.03.375c.03.64-.22 1.25-.72 1.65l-1.29 1.03 -.29-1.35c.17-.13 1.45-1.13 2.25-1.72Z"/></svg>