<svg viewBox="0 0 32 32" xmlns="http://www.w3.org/2000/svg"><path d="M16 4C9.38 4 4 9.38 4 16c0 6.61 5.38 12 12 12 6.61 0 12-5.39 12-12 0-6.62-5.39-12-12-12Zm0 2c5.53 0 10 4.46 10 10 0 5.53-4.47 10-10 10 -5.54 0-10-4.47-10-10 0-5.54 4.46-10 10-10Zm.53 1.03l-.1 2h.21l.18.03 .28-2h-.16l-.07-.04Zm-1.72.06l-.47.06 .28 1.96 .5-.07Zm3.96.34l-.69 1.87 .46.18 .68-1.88Zm-6.1.18l-.16.06 -.04.03h-.07l-.29.15 .84 1.81 .21-.13 .09-.04 .06-.04Zm8.09.75l-1.04 1.71 .18.09 .03.03 .12.09 1.18-1.6 -.22-.16 -.07-.07Zm-10.1.37l-.38.28 -.07.06h-.04l.87.96 .4.56 .06-.04 .03-.04 .28-.22Zm11.59.84l-7.35 5.31 -5.16 7.34 1.03-.72 -.94 1.03 .37.34 1.34-1.47 -.29-.25 5.84-4.07 3.96-5.85 .28.28 1.46-1.35 -.32-.38 -1.16 1.03ZM9 10.28l-.32.4 1.59 1.18 .31-.41Zm14.81 1.28l-1.38.875 -.35.15 .03.03 .03.06 .125.28 1.81-.875 -.19-.375 -.04-.04Zm-15.97.59l-.16.25v.06l-.04.03 -.07.18 1.87.68 .06-.19 .09-.19Zm16.81 1.56l-1.94.46 .09.31 .03.09 1.96-.32 -.04-.07v-.125Zm-17.54.62l-.07.5 1.96.28 .06-.5Zm17.84 1.53l-1.25.09 -.75-.07V16l-.04.37 2 .12 .03-.5 -1-.07 1-.07Zm-15.97.56l-2 .09v.34l.03.06 .03.18L9 16.8l-.04-.1Zm13.75 1.28l-.13.375 1.875.68 .06-.1v-.1l.125-.375Zm-13.44.375l-1.875.68 .15.5 1.87-.69Zm12.81 1.21l-.25.4 1.68 1.06 .28-.44Zm-12.04.43l-1.72 1.03 .09.18 .06.06 .18.25 1.59-1.22 -.13-.13 -.04-.07 -.04-.04Zm10.96 1l-.19.18 -.1.12 1.34 1.46 .18-.16 .06-.07 .15-.19ZM19.7 21.84l-.44.25 1.03 1.71 .43-.29Zm-7.16.21l-.29.59 -.72 1.15h.03l.06.03 .03.03 .4.18 .87-1.79 -.32-.16 -.04-.04Zm5.5.53l-.375.12 .5 1.93 .375-.125h.09l.09-.07Zm-3.85.12l-.5 1.93 .34.09h.125l.09.03 .31-1.97h-.04l-.1-.04Zm2.18.18l-.5.03 .09 2 .5-.04Z"/></svg>