<svg viewBox="0 0 32 32" xmlns="http://www.w3.org/2000/svg"><path d="M5 5v22h22V5H5Zm2 2h18v18H7V7Zm9.11 2.99c-.03 0-.22 0-.24 0 -.5 0-2.18.14-2.97 2.03 -.3.71-.19 1.99-.14 2.89 -.04.02-.12.05-.24.05 -.16 0-.35-.06-.56-.16 -.27-.14-.72.06-.78.38 -.04.18.04.45.59.68 .21.09.72.2.84.49 .05.12.03.28-.06.46 -.01 0-.01 0-.01 0 -.04.07-.77 1.85-2.4 2.14 -.13.02-.22.14-.21.27 .02.52 1.11.72 1.6.8 .05.07.08.37.15.59 .02.1.1.22.29.22 .19 0 .46-.12.9-.12 .62 0 .83.14 1.31.51 .34.26.96.74 1.7.68 .73.03 1.22-.3 1.73-.69 .48-.37.69-.52 1.31-.52 .45 0 .68.1.9.1h0c.15 0 .24-.09.28-.23 .06-.23.1-.53.15-.6 .94-.16 1.45-.38 1.58-.69 .07-.2-.04-.37-.18-.41 -1.64-.29-2.37-2.07-2.4-2.15 -.01-.01-.01-.01-.01-.01 -.09-.19-.11-.35-.06-.47 .09-.24.44-.36.66-.44 .06-.03.12-.05.17-.07 .4-.17.6-.38.6-.63 -.01-.2-.15-.37-.37-.45 -.15-.06-.34-.08-.49 0 -.2.09-.37.15-.52.15 -.1-.01-.17-.04-.21-.06 .04-.9.16-2.18-.14-2.9 -.58-1.37-1.75-2.04-2.98-2.04Z"/></svg>