<svg viewBox="0 0 32 32" xmlns="http://www.w3.org/2000/svg"><path d="M16 4C9.37 4 4 9.37 4 16c0 6.62 5.37 12 12 12 6.62 0 12-5.38 12-12 0-6.63-5.38-12-12-12Zm0 2c5.55 0 10 4.44 10 10 0 5.55-4.45 10-10 10 -5.56 0-10-4.45-10-10 0-5.56 4.44-10 10-10Zm-1.6 4.75c-1.95 0-3.65.17-5.25.68 -.43.08-.79.4-.79 1 0 .59.43 1.11 1.03 1.03 .25 0 .42-.1.59-.1 1.35-.34 2.88-.5 4.4-.5 2.96 0 6 .66 8.03 1.84 .25.08.33.18.59.18 .59 0 1-.44 1.09-1.04 0-.51-.26-.84-.6-1 -2.54-1.44-5.92-2.13-9.13-2.13Zm-.29 3.71c-1.78 0-3.05.25-4.32.59 -.43.16-.66.42-.66.93 0 .42.33.84.84.84 .17 0 .24-.01.5-.1 .92-.26 2.2-.41 3.56-.41 2.79 0 5.22.67 7 1.78 .16.08.33.15.59.15 .5 0 .84-.43.84-.94 0-.34-.17-.68-.5-.85 -2.2-1.36-5-2.04-7.875-2.04Zm.28 3.65c-1.44 0-2.81.16-4.16.5 -.34.08-.6.32-.6.75 0 .33.26.68.68.68 .08 0 .33-.1.5-.1 1.1-.26 2.28-.41 3.46-.41 2.11 0 4.04.5 5.65 1.43 .17.08.36.15.53.15 .33 0 .66-.26.75-.6 0-.43-.19-.59-.44-.75 -1.87-1.11-4.04-1.69-6.41-1.69Z"/></svg>