<svg viewBox="0 0 32 32" xmlns="http://www.w3.org/2000/svg"><path d="M16 3C8.83 3 3 8.83 3 16c0 7.16 5.83 13 13 13 7.16 0 13-5.84 13-13 0-7.17-5.84-13-13-13Zm0 2c6.06 0 11 4.93 11 11 0 6.06-4.94 11-11 11 -5.11 0-9.41-3.51-10.64-8.24l3.66 1.57c.16 1.49 1.42 2.66 2.96 2.66 1.657 0 3-1.35 3-3 0-.04-.01-.07-.01-.1l4.17-2.93c2.13-.09 3.83-1.84 3.83-3.99 0-2.21-1.8-4-4-4 -2.16 0-3.9 1.7-3.99 3.83l-2.93 4.17c-.04-.01-.07-.01-.1-.01 -.67 0-1.28.22-1.77.58l-5.2-2.23c.33-5.77 5.11-10.36 10.96-10.36Zm3 5c1.65 0 3 1.343 3 3s-1.35 3-3 3c-1.657 0-3-1.343-3-3s1.343-3 3-3Zm0 1v0c-1.11 0-2 .89-2 2 0 1.1.89 2 2 2v0c1.1 0 2-.9 2-2 0-1.11-.9-2-2-2Zm-7 7c1.1 0 2 .89 2 2 0 1.1-.9 2-2 2 -.81 0-1.51-.49-1.82-1.18l.78.33c.19.08.39.12.58.12 .58 0 1.13-.35 1.38-.92 .32-.77-.03-1.65-.79-1.97l-.73-.32c.18-.06.37-.1.58-.1Z"/></svg>