<svg viewBox="0 0 32 32" xmlns="http://www.w3.org/2000/svg"><path d="M10 4C7.25 4 5 6.25 5 9v12c0 2.42 1.44 4.52 3.53 5.46l-2.54 2.53h2.34l2.03-2.04c.19.01.41.03.62.03h10c.2 0 .42-.02.625-.04l2.03 2.03h2.34l-2.54-2.54c2.08-.95 3.53-3.05 3.53-5.47v-12c0-2.75-2.25-5-5-5Zm0 2h12c1.32 0 2.43.82 2.84 2H7.15c.4-1.18 1.52-2 2.84-2Zm-3 4h8v6H7Zm10 0h8v6h-8ZM7 18h18v3c0 2.21-1.79 4-4 4H11c-2.22 0-4-1.79-4-4Zm3.5 2c-.83 0-1.5.67-1.5 1.5 0 .82.67 1.5 1.5 1.5 .82 0 1.5-.68 1.5-1.5 0-.83-.68-1.5-1.5-1.5Zm11 0c-.83 0-1.5.67-1.5 1.5 0 .82.67 1.5 1.5 1.5 .82 0 1.5-.68 1.5-1.5 0-.83-.68-1.5-1.5-1.5Z"/></svg>