<svg viewBox="0 0 32 32" xmlns="http://www.w3.org/2000/svg"><path d="M3.72 2.27L2.27 3.71l7.78 7.77 1.44 1.44 10.15 10.15 1.42 1.42 5.18 5.19 1.44-1.45 -5.54-5.54c.52-1.15.81-2.41.81-3.75 0-1.4-.56-2.92-1.34-4.5 -.79-1.58-1.83-3.23-2.85-4.73 -2.03-3-4.04-5.4-4.04-5.4l-.78-.95 -.78.94s-2 2.38-4.02 5.38L3.65 2.19Zm12.27 4.38c.56.69 1.6 1.91 3.18 4.24 .98 1.45 1.94 3.04 2.65 4.5 .72 1.45 1.16 2.78 1.16 3.58 0 .76-.13 1.5-.36 2.2L12.6 11.15c.06-.1.11-.19.17-.28 1.58-2.34 2.62-3.56 3.18-4.25Zm-6.98 6.56c-.25.43-.48.85-.69 1.27 -.79 1.58-1.34 3.1-1.34 4.5 0 4.95 4.05 9 9 9 2.18 0 4.17-.79 5.74-2.08l-1.44-1.44c-1.19.95-2.7 1.5-4.31 1.5 -3.85 0-7-3.15-7-7 0-.8.44-2.14 1.16-3.59 .11-.23.22-.46.35-.7l-1.5-1.5Zm1.97 5.77c0 .34.03.67.1 1 .06.32.16.63.29.93 .25.59.62 1.13 1.07 1.58 .45.45.99.82 1.58 1.07 .29.12.61.22.93.29 .16.03.32.05.49.07 .16.01.33.02.5.02v-2c-.21 0-.41-.03-.61-.07 -.2-.05-.39-.1-.57-.18 -.18-.08-.36-.17-.51-.28 -.16-.11-.31-.24-.45-.37 -.14-.14-.26-.29-.37-.45 -.11-.16-.21-.34-.28-.51 -.08-.18-.14-.37-.18-.57 -.05-.2-.07-.4-.07-.61h-2Z"/></svg>