<svg viewBox="0 0 32 32" xmlns="http://www.w3.org/2000/svg"><path d="M7 5v7.25c-1.35.3-2.59.88-3.63 1.71l1.25 1.56c1.19-.97 2.71-1.54 4.37-1.54 3.87 0 7 3.12 7 7h4.56c-.35.59-.57 1.26-.57 2 0 2.19 1.8 4 4 4 2.19 0 4-1.81 4-4 0-1.03-.42-1.95-1.07-2.66l2-4.97 .06-.19v-2.19h-5v-3c0-.57.43-1 1-1v-2c-1.65 0-3 1.35-3 3v3h-3.32L15.9 5.62l-.25-.66Zm2 2h5.31l2.75 7.34 .25.65h9.59l-1.6 4h-7.57c-.92-4-4.49-7-8.75-7Zm0 8c-3.31 0-6 2.69-6 6 0 3.3 2.69 6 6 6 3.3 0 6-2.7 6-6 0-3.31-2.7-6-6-6Zm0 2c2.22 0 4 1.77 4 4 0 2.22-1.78 4-4 4 -2.23 0-4-1.78-4-4 0-2.23 1.77-4 4-4Zm0 2c-1.11 0-2 .89-2 2 0 1.1.89 2 2 2 1.1 0 2-.9 2-2 0-1.11-.9-2-2-2Zm15 2c1.11 0 2 .88 2 2 0 1.11-.89 2-2 2 -1.12 0-2-.89-2-2 0-1.12.88-2 2-2Z"/></svg>