<svg viewBox="0 0 32 32" xmlns="http://www.w3.org/2000/svg"><path d="M21.75 4c-1.61 0-3.22.62-4.44 1.84L15.84 7.3c-1.02 1.01-1.62 2.3-1.79 3.62l2 .25c.11-.91.49-1.78 1.18-2.47l1.46-1.47c1.67-1.68 4.35-1.68 6.03 0 1.67 1.67 1.67 4.35 0 6.03l-1.47 1.46h-.04c-.7.69-1.54 1.07-2.44 1.18l.25 2c1.32-.17 2.6-.77 3.62-1.79l1.46-1.47c2.43-2.44 2.43-6.42 0-8.85 -1.22-1.22-2.81-1.85-4.41-1.85ZM7.71 6.28L6.27 7.71l4 4 1.43-1.44Zm3.21 7.78c-1.33.16-2.61.76-3.625 1.78L5.82 17.3c-2.44 2.43-2.44 6.41 0 8.84 2.43 2.43 6.41 2.43 8.84 0l1.46-1.47c1.01-1.02 1.61-2.31 1.78-3.63l-2-.25c-.12.9-.5 1.77-1.19 2.46l-1.47 1.46c-1.68 1.67-4.36 1.67-6.04 0 -1.68-1.68-1.68-4.36 0-6.04l1.46-1.47h.03c.69-.7 1.53-1.08 2.43-1.19Zm10.78 6.21l-1.44 1.43 4 4 1.43-1.44Z"/></svg>