<svg viewBox="0 0 32 32" xmlns="http://www.w3.org/2000/svg"><path d="M23.09 4c-.45 0-.9.07-1.35.15 -1.78.33-3.56 1.24-4.875 2.56 -1.32 1.31-1.94 2.86-1.875 4.37 .04 1.17.5 2.28 1.21 3.25L4.26 26.26l1.43 1.43 11.93-11.94c.96.71 2.07 1.17 3.25 1.21 1.5.05 3.05-.56 4.375-1.875 1.31-1.32 2.22-3.1 2.56-4.875 .33-1.78.12-3.66-1.16-4.94 -.65-.65-1.43-1.02-2.29-1.19 -.43-.09-.87-.14-1.32-.13Zm0 2c.3-.01.6 0 .87.06 .53.1.98.33 1.31.65 .64.64.88 1.8.625 3.15 -.27 1.35-1.04 2.81-2.04 3.81s-1.95 1.34-2.875 1.31c-.93-.04-1.87-.5-2.69-1.32 -.83-.83-1.28-1.77-1.32-2.69 -.04-.93.31-1.875 1.31-2.875s2.45-1.77 3.81-2.04c.33-.07.66-.09.96-.1Z"/></svg>