<svg viewBox="0 0 32 32" xmlns="http://www.w3.org/2000/svg"><path d="M15 3c1.4 2.4 2.69 4.99 3.59 7.69 -.2-2.61-1.4-6.2-3.6-7.7Zm10.69 1c-1.5 3.2-3.9 2.3-5.6 3.9 -.6.5-1 1.6-1 2.4 0 .7.19 1.29.59 1.89 2.3-.5 4.7-2.2 5.7-4.4 0 .2-.21.69-.31.89 -1 1.7-3.1 3.2-4.8 4.1 .8.7 1.69 1.19 2.69 1.19 3.8 0 5.29-6.5 2.69-10Zm-7.2 6.69v1.8c0 4.63-.95 12.06-5.89 14.36 -3.23-.64-5.62-3.45-5.62-6.87 0-3.9 3.1-7 7-7 .8 0 1.49.1 2.19.4 .1-.6.3-1.21.6-1.81l.09-.1c-.9-.3-1.91-.5-2.91-.5 -5 0-9 4-9 9s4 9 9 9 9-4 9-9c0-1.3-.31-2.6-.81-3.7 -.1 0-.2.09-.4.19 -.4.3-.91.49-1.41.59 .4.9.59 1.9.59 2.9 0 3.9-3.1 7-7 7 -.03 0-.06-.01-.09-.01 3.77-2.41 5.58-6.12 5.58-10.5 0-2-.3-4.01-1-5.81Z"/></svg>