<svg viewBox="0 0 32 32" xmlns="http://www.w3.org/2000/svg"><path d="M.59 12c-1 0-.5.9-.5.9l2.7 5.59s.59 1.5 2.29 1.5h1.8c1.7 0 2.29-1.5 2.29-1.5l2.7-5.6s.5-.91-.5-.91h-1.6c-.6 0-.7.4-1 .9l-1.81 3.69s-.2.7-1 .7 -1-.71-1-.71l-1.91-3.7c-.3-.5-.41-.91-.91-.91H.54Zm14.59 0c-1.7 0-2.3 1.5-2.3 1.5l-2.71 5.59s-.51.9.5.9h1.6c.5 0 .59-.41.89-.91l1.8-3.7s.2-.71 1-.71c.7 0 1 .7 1 .7l1.9 3.69c.2.5.4.9.9.9h1.59c1 0 .5-.91.5-.91l-2.71-5.6s-.6-1.5-2.3-1.5h-1.71Zm5.5 0c-1 0-.5.9-.5.9l2.7 5.59s.59 1.5 2.29 1.5h1.7c1.7 0 2.29-1.5 2.29-1.5l2.7-5.6s.5-.91-.6-.91h-1.61c-.5 0-.6.4-.9.9l-1.81 3.69s-.2.7-1 .7c-.7 0-1-.71-1-.71l-1.81-3.7c-.3-.5-.4-.91-.9-.91h-1.61Z"/></svg>