<svg viewBox="0 0 32 32" xmlns="http://www.w3.org/2000/svg"><path d="M16.5 4C14.57 4 13 5.57 13 7.5c0 1.92 1.57 3.5 3.5 3.5 1.92 0 3.5-1.58 3.5-3.5C20 5.57 18.42 4 16.5 4Zm0 2c.83 0 1.5.66 1.5 1.5 0 .83-.67 1.5-1.5 1.5 -.84 0-1.5-.67-1.5-1.5 0-.84.66-1.5 1.5-1.5Zm-3.69 5.25c-.52.04-1 .28-1.35.68l-1.82 2.09c-.24.27-.41.6-.47.96l-.69 3.875 1.96.34 .68-3.875 1.81-2.1h.03l.78.15 -1.19 5.375c-.13.55 0 1.13.34 1.59l5.53 7.625h2.46l-6.38-8.82 1.18-5.41 .46.09 .75 2.62c.17.6.62 1.08 1.21 1.31l3.53 1.34 .68-1.88 -3.5-1.35 -.79-2.63c-.21-.73-.8-1.27-1.54-1.41l-3.25-.63c-.18-.04-.36-.05-.54-.04Zm-.35 10.78l-.5 1.93 -2.91 4.03h2.46l2.31-3.16 .125-.6Z"/></svg>