<svg viewBox="0 0 32 32" xmlns="http://www.w3.org/2000/svg"><path d="M0 7c0 1.625 1.83 3 4 3 1.18 0 2.26-.42 3-1.06 .73.64 1.81 1.05 3 1.05 1.18 0 2.26-.42 3-1.06 .73.64 1.81 1.05 3 1.05 1.18 0 2.26-.42 3-1.06 .73.64 1.81 1.05 3 1.05 1.18 0 2.26-.42 3-1.06 .73.64 1.81 1.05 3 1.05 2.16 0 4-1.375 4-3h-2c0 .3-.76 1-2 1 -1.23 0-2-.71-2-1h-2c0 .3-.76 1-2 1 -1.23 0-2-.71-2-1h-2c0 .3-.76 1-2 1 -1.23 0-2-.71-2-1h-2c0 .3-.76 1-2 1 -1.23 0-2-.71-2-1H6c0 .3-.76 1-2 1 -1.23 0-2-.71-2-1Zm0 8c0 1.625 1.83 3 4 3 1.18 0 2.26-.42 3-1.06 .73.64 1.81 1.05 3 1.05 1.18 0 2.26-.42 3-1.06 .73.64 1.81 1.05 3 1.05 1.18 0 2.26-.42 3-1.06 .73.64 1.81 1.05 3 1.05 1.18 0 2.26-.42 3-1.06 .73.64 1.81 1.05 3 1.05 2.16 0 4-1.375 4-3h-2c0 .3-.76 1-2 1 -1.23 0-2-.71-2-1h-2c0 .3-.76 1-2 1 -1.23 0-2-.71-2-1h-2c0 .3-.76 1-2 1 -1.23 0-2-.71-2-1h-2c0 .3-.76 1-2 1 -1.23 0-2-.71-2-1H6c0 .3-.76 1-2 1 -1.23 0-2-.71-2-1Zm0 8c0 1.625 1.83 3 4 3 1.18 0 2.26-.42 3-1.06 .73.64 1.81 1.05 3 1.05 1.18 0 2.26-.42 3-1.06 .73.64 1.81 1.05 3 1.05 1.18 0 2.26-.42 3-1.06 .73.64 1.81 1.05 3 1.05 1.18 0 2.26-.42 3-1.06 .73.64 1.81 1.05 3 1.05 2.16 0 4-1.375 4-3h-2c0 .3-.76 1-2 1 -1.23 0-2-.71-2-1h-2c0 .3-.76 1-2 1 -1.23 0-2-.71-2-1h-2c0 .3-.76 1-2 1 -1.23 0-2-.71-2-1h-2c0 .3-.76 1-2 1 -1.23 0-2-.71-2-1H6c0 .3-.76 1-2 1 -1.23 0-2-.71-2-1Z"/></svg>