<svg viewBox="0 0 32 32" xmlns="http://www.w3.org/2000/svg"><path d="M16 7c-5.02 0-9.55 2.08-12.82 5.4l1.4 1.4c2.9-2.97 6.94-4.82 11.4-4.82s8.5 1.85 11.4 4.81l1.4-1.41c-3.27-3.33-7.8-5.41-12.82-5.41Zm0 5c-3.65 0-6.92 1.51-9.29 3.93l1.4 1.4c2-2.06 4.78-3.35 7.875-3.35 3.08 0 5.875 1.28 7.875 3.34l1.4-1.41c-2.37-2.42-5.65-3.94-9.29-3.94Zm0 5c-2.27 0-4.3.95-5.75 2.46l1.4 1.4c1.09-1.15 2.63-1.875 4.34-1.875s3.25.72 4.34 1.875l1.4-1.41c-1.46-1.52-3.49-2.47-5.75-2.47Zm0 5c-.89 0-1.67.39-2.22 1l2.21 2.21 2.21-2.22c-.56-.61-1.34-1-2.22-1Z"/></svg>