<svg viewBox="0 0 32 32" xmlns="http://www.w3.org/2000/svg"><path d="M14.34 4c-1.48.05-4.61.98-5.25 1.65 -.24.24-.36.57-.29.84 .11.23 5.06 8 5.06 8 .73 1.18 1.33 1 1.53.93 .19-.06.78-.24.71-1.63 -.08-1.63-.54-8.83-.6-9.16 -.09-.31-.35-.54-.69-.625 -.13-.04-.29-.04-.5-.04Zm7.46 7.09c-.15 0-.28.03-.41.12 -.16.1-.28.25-2.47 3.25 0 0-.99 1.36-1 1.375 -.27.31-.26.76 0 1.15 .26.4.68.61 1.09.5 0 0 0 .02 0 .03 .2-.08.56-.19 1.21-.35 4.09-1 4.24-1.02 4.4-1.13 .24-.17.36-.48.34-.82 0-.02 0-.02 0-.04 -.11-1.01-1.86-3.61-2.72-4.04 -.16-.08-.33-.1-.47-.1ZM8.05 15.12c-.3-.02-.57.14-.75.43 -.4.62-.55 2.57-.41 3.87 .05.43.1.81.21 1.03 .15.29.42.45.71.46 .19 0 .33-.04 3.93-1.19 0 0 1.58-.5 1.59-.5 .39-.11.66-.47.68-.94 .02-.49-.22-.92-.63-1.07 0 0-1.13-.47-1.13-.47 -3.88-1.6-4.06-1.66-4.25-1.66Zm11.03 4.4c-.3-.01-.625.13-.85.4 -.31.37-.34.87-.1 1.25l.62 1.03c2.13 3.47 2.31 3.69 2.46 3.81 .23.18.53.21.84.09 .91-.37 2.89-2.88 3.03-3.85 .04-.34-.05-.63-.29-.82 -.16-.12-.28-.17-3.875-1.35 0 0-1.58-.52-1.6-.54 -.1-.04-.19-.06-.29-.07ZM14.7 20.64c-.22.04-.4.17-.54.34 0 0-.78.93-.79.93 -2.72 3.18-2.81 3.31-2.875 3.5 -.04.1-.08.25-.07.375 .01.17.08.31.21.46 .62.74 3.66 1.85 4.62 1.68 .33-.07.55-.22.65-.5 .06-.19.08-.31.09-4.1 0 0 0-1.67 0-1.69 .02-.42-.23-.81-.66-.97 -.23-.09-.48-.11-.69-.07Z"/></svg>