<svg viewBox="0 0 24 24" xmlns="http://www.w3.org/2000/svg"><path fill="none" d="M0 0h24v24H0Z"/><path d="M12 22C6.477 22 2 17.523 2 12 2 6.477 6.477 2 12 2c5.523 0 10 4.477 10 10s-4.477 10-10 10Zm8-10v0c-.01-4.42-3.59-8-8.01-8s-8 3.58-8 8c0 4.41 3.58 7.99 8 7.99 1.41-.01 2.8-.38 4.03-1.1l-1.01-1.73h0c-2.87 1.67-6.54.7-8.21-2.16 -1.68-2.87-.71-6.54 2.15-8.21 2.86-1.68 6.53-.71 8.2 2.15 .53.91.81 1.96.81 3.02v1 0c0 .55-.45 1-1 1 -.56 0-1-.45-1-1v-4H14.6v0c-1.66-1.47-4.19-1.31-5.65.35 -1.47 1.65-1.31 4.18.35 5.64 1.53 1.35 3.85 1.33 5.35-.06v-.001c1.07 1.26 2.96 1.41 4.22.34 .67-.57 1.05-1.41 1.05-2.29v-1Zm-8-2v0c1.1 0 2 .89 2 2 0 1.1-.9 2-2 2v0c-1.11 0-2-.9-2-2 0-1.11.89-2 2-2Z"/></svg>