<svg viewBox="0 0 24 24" xmlns="http://www.w3.org/2000/svg"><path fill="none" d="M0 0h24v24H0Z"/><path d="M12 2c5.523 0 10 4.477 10 10s-4.477 10-10 10C6.477 22 2 17.523 2 12 2 6.477 6.477 2 12 2ZM9 8c-2.208 0-4 1.79-4 4v0c0 2.2 1.79 3.99 4 3.99 .98-.01 1.93-.37 2.66-1.02l.15-.16 -1.42-1.42v0c-.79.78-2.05.78-2.83 0 -.79-.79-.79-2.05-.01-2.83 .73-.74 1.9-.79 2.7-.12l.12.11 1.41-1.42h-.001c-.75-.76-1.77-1.18-2.83-1.173Zm7 0c-2.208 0-4 1.79-4 4h0c0 2.2 1.79 3.99 4 3.99 .98-.01 1.93-.37 2.66-1.02l.15-.16 -1.42-1.42v0c-.79.78-2.05.78-2.83 0 -.79-.79-.79-2.05-.01-2.83 .73-.74 1.9-.79 2.7-.12l.12.11 1.41-1.42h-.001c-.75-.76-1.77-1.18-2.83-1.18Z"/></svg>