<svg viewBox="0 0 24 24" xmlns="http://www.w3.org/2000/svg"><path fill="none" d="M0 0h24v24H0Z"/><path d="M12 2c5.52 0 10 4.48 10 10s-4.48 10-10 10C6.48 22 2 17.52 2 12 2 6.48 6.48 2 12 2Zm0 2c-4.415 0-8 3.585-8 8 0 4.41 3.585 8 8 8 4.41 0 8-3.59 8-8 0-4.42-3.59-8-8-8Zm0 2c2.76 0 5 2.686 5 6s-2.24 6-5 6c-2.77 0-5-2.686-5-6s2.23-6 5-6Zm2.32 3.47l-3.57 6.173c.37.22.79.35 1.237.35 1.657 0 3-1.79 3-4 0-.96-.26-1.84-.68-2.53Zm-2.33-1.48c-1.657 0-3 1.79-3 4 0 .95.25 1.83.67 2.52l3.56-6.173h0c-.38-.23-.8-.36-1.24-.36Z"/></svg>