<svg viewBox="0 0 24 24" xmlns="http://www.w3.org/2000/svg"><path fill="none" d="M0 0h24v24H0Z"/><path d="M4.256 5.67l3.58 3.577v0c-.7 1.19-.29 2.72.91 3.41 .33.19.7.3 1.08.33l.16 0h4l.09 0v0c.27.04.45.3.4.58 -.04.2-.2.36-.41.4l-.09 0h-5.5v2h2.5v2h2v-2h1c.12 0 .24-.01.35-.03l.17-.04 3.798 3.8v0c-1.79 1.46-4.03 2.25-6.33 2.25 -5.53 0-10-4.477-10-10 0-2.4.84-4.61 2.25-6.33ZM12 1.99c5.523 0 10 4.477 10 10 0 2.4-.85 4.6-2.26 6.32l-3.58-3.577v0c.69-1.2.28-2.73-.92-3.42 -.34-.2-.71-.31-1.09-.33l-.17-.01h-4l-.09-.01v0c-.28-.05-.46-.31-.41-.59 .03-.21.19-.37.4-.41l.09-.01h5.5v-2h-2.5v-2h-2v2h-1c-.13 0-.24 0-.36.02L9.43 8l-3.8-3.8 -.001 0C7.4 2.73 9.64 1.94 11.95 1.94Z"/></svg>