<svg viewBox="0 0 24 24" xmlns="http://www.w3.org/2000/svg"><path fill="none" d="M0 0h24v24H0Z"/><path d="M19.938 8h1.06v0c1.1 0 2 .89 2 2v4 0c0 1.1-.9 2-2 2h-1.07 -.001c-.51 4-3.91 6.99-7.94 7v-2 0c3.31 0 6-2.69 6-6V9v0c0-3.32-2.69-6-6-6 -3.32 0-6 2.68-6 6v7h-3v0c-1.11 0-2-.9-2-2v-4 0c0-1.11.89-2 2-2h1.06 -.001c.55-4.39 4.55-7.49 8.94-6.94 3.62.45 6.47 3.31 6.93 6.93ZM3 10v4h1v-4H3Zm17 0v4h1v-4h-1ZM7.76 15.785l1.06-1.7h0c.95.59 2.05.91 3.18.91v-.001c1.12 0 2.22-.32 3.18-.92l1.06 1.69 0 0c-1.28.79-2.75 1.21-4.24 1.21v0c-1.5 0-2.97-.42-4.24-1.22Z"/></svg>