<svg viewBox="0 0 24 24" xmlns="http://www.w3.org/2000/svg"><path fill="none" d="M0 0h24v24H0Z"/><path d="M13.06 8.11l1.41 1.41v0c2.73 2.73 2.73 7.16 0 9.89 -.01 0-.01 0-.01 0l-.36.35h0c-2.74 2.73-7.17 2.73-9.9 0 -2.74-2.74-2.74-7.17-.001-9.9l1.41 1.41H5.6c-1.97 1.94-1.98 5.1-.04 7.07 1.94 1.96 5.1 1.97 7.071.03 .01-.02.02-.03.03-.04l.35-.36v0c1.95-1.96 1.95-5.12 0-7.07l-1.42-1.42L13 8.06Zm6.71 6.01l-1.42-1.42v-.001c1.96-1.95 1.97-5.11.03-7.08 -1.95-1.97-5.11-1.98-7.08-.04 -.02.01-.03.02-.04.03l-.36.35V5.95c-1.96 1.95-1.96 5.11 0 7.07l1.41 1.41 -1.42 1.41 -1.42-1.42H9.46c-2.74-2.74-2.74-7.17-.01-9.9 0-.01 0-.01 0-.01l.35-.36v0c2.73-2.74 7.16-2.74 9.9 0 2.73 2.73 2.73 7.16 0 9.9Z"/></svg>