<svg viewBox="0 0 24 24" xmlns="http://www.w3.org/2000/svg"><path fill="none" d="M0 0h24v24H0Z"/><path d="M20 7.238l-7.93 7.1L3.99 7.2v11.78h10v2h-11v0c-.56 0-1-.45-1-1v-16 0c0-.56.44-1 1-1h18v0c.55 0 1 .44 1 1v9h-2V7.226Zm-.5-2.24H4.51l7.55 6.66 7.44-6.67Zm-2.46 14.54v0c-.07-.37-.07-.74 0-1.096l-1.02-.59 1-1.74 1.01.58c.27-.24.59-.43.95-.55v-1.17h2v1.17c.35.125.67.31.95.55l1.01-.59 1 1.73 -1.02.58v0c.06.36.06.73 0 1.096l1.01.58 -1 1.73 -1.02-.59v0c-.29.24-.61.42-.95.55v1.17h-2v-1.17l-.001 0c-.35-.13-.67-.31-.95-.55l-1.02.58 -1-1.74 1.01-.59Zm2.95.45v0c.55 0 1-.45 1-1 0-.56-.45-1-1-1v0c-.56 0-1 .44-1 1 0 .55.44 1 1 1Z"/></svg>