<svg viewBox="0 0 24 24" xmlns="http://www.w3.org/2000/svg"><path fill="none" d="M0 0h24v24H0Z"/><path d="M15.266 11.554l4.388-3.798 -1.31-1.52 -6.285 5.439L5.64 6.23 4.34 7.75l7.702 6.54v-.001c-.7 1.1-1.06 2.39-1.06 3.69 0 1.07.24 2.09.67 3H2.98v0c-.56 0-1-.45-1-1v-16 0c0-.56.44-1 1-1h18v0c.55 0 1 .44 1 1v8.255 0c-1.18-.82-2.57-1.26-4-1.26 -.97 0-1.9.19-2.734.55Zm1.44 9.15v0c1.49.71 3.28.08 4-1.42 .39-.82.39-1.78 0-2.59l-4 4Zm-1.42-1.42l4-4 -.001 0c-1.5-.72-3.29-.09-4.01 1.41 -.4.81-.4 1.77-.001 2.58Zm2.708 3.7v0c-2.77 0-5-2.24-5-5 0-2.77 2.23-5 5-5v0c2.76 0 5 2.23 5 5 0 2.76-2.24 5-5 5Z"/></svg>