<svg viewBox="0 0 24 24" xmlns="http://www.w3.org/2000/svg"><path fill="none" d="M0 0h24v24H0Z"/><path d="M12 7v0c4.41 0 8 3.58 8 8 0 4.41-3.59 8-8 8v0c-4.42 0-8-3.59-8-8 0-4.42 3.58-8 8-8Zm0 2v0c-3.32 0-6 2.68-6 6 0 3.31 2.68 6 6 6v0c3.31 0 6-2.69 6-6 0-3.32-2.69-6-6-6Zm0 1.5l1.32 2.68 2.95.43 -2.14 2.08 .5 2.94 -2.65-1.4 -2.65 1.39 .5-2.95 -2.14-2.09 2.95-.43 1.32-2.68ZM18 2v3l-1.37 1.138v0c-1.14-.6-2.37-.97-3.64-1.09l0-3.05h5Zm-7-.01v3.05 0c-1.28.12-2.51.49-3.64 1.08L5.99 4.98v-3l5-.01Z"/></svg>