<svg viewBox="0 0 24 24" xmlns="http://www.w3.org/2000/svg"><path fill="none" d="M0 0h24v24H0Z"/><path d="M17 2v0c.55 0 1 .44 1 1v4h3v0c.55 0 1 .44 1 1l0 5.346v0c-.52-.74-1.21-1.34-2-1.75l-.01-2.61h-16v8h2v-1 0c0-.56.44-1 1-1h5.2l-.08.28 -.03.02 -.001-.001c-.65.43-1.18 1.01-1.54 1.69H7.96v3h2.06v0c.11.72.39 1.4.81 2H6.95v0c-.56 0-1-.45-1-1v-2h-3v0c-.56 0-1-.45-1-1v-10 0c0-.56.44-1 1-1h3v-4 0c0-.56.44-1 1-1h10Zm.5 11v0c1.93 0 3.5 1.56 3.5 3.5l-.01.1v0c1.46.41 2.31 1.93 1.9 3.39 -.32 1.12-1.32 1.92-2.49 1.99l-.17 0h-5.5l-.17-.01v-.001c-1.52-.1-2.68-1.4-2.58-2.92 .07-1.17.87-2.17 1.99-2.49l-.01-.11v0c0-1.94 1.56-3.5 3.5-3.5Zm0 2v0c-.72-.01-1.34.5-1.48 1.21l-.02.14 -.01.14v1.62l-1.45.4v0c-.41.1-.64.51-.54.91 .07.28.31.5.61.54l.1 0h5.51v0c.41-.01.74-.35.74-.76 -.01-.34-.23-.64-.56-.72l-1.02-.29 -.44-.13v-1.62l-.01-.15h-.001c-.08-.77-.73-1.36-1.5-1.36ZM8 10v2H5v-2h3Zm8-6H8v3h8V4Z"/></svg>