<svg viewBox="0 0 24 24" xmlns="http://www.w3.org/2000/svg"><path fill="none" d="M0 0h24v24H0Z"/><path d="M22 19v2h-2v-2H4v2H2v-2 0c-.56 0-1-.45-1-1V6v0c0-.56.44-1 1-1h9.81 0c1.22-1.28 2.91-2.01 4.69-2 1.843 0 3.5.76 4.69 2H22v0c.55 0 1 .44 1 1v12 0c0 .55-.45 1-1 1Zm-5.5-5v0c2.48 0 4.5-2.02 4.5-4.5C21 7.01 18.98 5 16.5 5v0C14.01 5 12 7.01 12 9.5c0 2.48 2.01 4.5 4.5 4.5Zm0-2v0c-1.39 0-2.5-1.12-2.5-2.5C14 8.11 15.11 7 16.5 7v0C17.88 7 19 8.11 19 9.5c0 1.38-1.12 2.5-2.5 2.5ZM4 13v2h2v-2H4Zm4 0v2h2v-2H8Z"/></svg>