<svg viewBox="0 0 20 20" xmlns="http://www.w3.org/2000/svg"><path fill="none" d="M0 0h20v20H0Z"/><g><path d="M4 9h5V4H4v5Zm.94-4.06h3.12v3.12H4.94V4.94Z"/><path d="M4 16h5v-5H4v5Zm.94-4.06h3.12v3.12H4.94v-3.12Z"/><path d="M11 4v5h5V4h-5Zm4.06 4.06h-3.12V4.94h3.12v3.12Z"/><path d="M15 15h1v1h-1Z"/><path d="M15 13h1v1h-1Z"/><path d="M15 11h1v1h-1Z"/><path d="M12 12h1v1h-1Z"/><path d="M11 11h1v1h-1Z"/><path d="M13 13h1v1h-1Z"/><path d="M14 14h1v1h-1Z"/><path d="M13 11h1v1h-1Z"/><path d="M14 12h1v1h-1Z"/><path d="M11 13h1v1h-1Z"/><path d="M12 14h1v1h-1Z"/><path d="M11 15h1v1h-1Z"/><path d="M13 15h1v1h-1Z"/></g></svg>