<svg viewBox="0 0 24 24" xmlns="http://www.w3.org/2000/svg"><path fill="none" stroke="#0F172A" stroke-linecap="round" stroke-linejoin="round" stroke-width="1.5" d="M4.25 10.14c-.28 2.08-.44 4.2-.5 6.34 2.89 1.2 5.65 2.68 8.23 4.4 2.58-1.73 5.33-3.21 8.23-4.41 -.06-2.15-.22-4.27-.5-6.35m-15.49 0c-.88-.3-1.77-.57-2.66-.82C4.8 7.02 8.28 5.06 11.95 3.45c3.67 1.6 7.15 3.56 10.39 5.84 -.9.24-1.79.51-2.66.81m-15.49 0c2.68.9 5.27 2.02 7.74 3.34 2.46-1.32 5.05-2.44 7.74-3.35m-13 4.85c.41 0 .75-.34.75-.75 0-.42-.34-.75-.75-.75 -.42 0-.75.33-.75.75 0 .41.33.75.75.75Zm0 0v-3.68c1.69-1.06 3.44-2.02 5.25-2.89M4.91 19.91c1.17-1.18 1.75-2.71 1.75-4.25v-1.5"/></svg>