<svg viewBox="0 0 24 24" xmlns="http://www.w3.org/2000/svg"><path fill="none" stroke="#000" stroke-linecap="round" stroke-linejoin="round" stroke-width="1.5" d="M10.5 6h9.75M10.5 6v0c0 .82-.68 1.5-1.5 1.5 -.83 0-1.5-.68-1.5-1.5m3 0v0c0-.83-.68-1.5-1.5-1.5 -.83 0-1.5.67-1.5 1.5M3.75 6H7.5m3 12h9.75m-9.75 0v0c0 .82-.68 1.5-1.5 1.5 -.83 0-1.5-.68-1.5-1.5m3 0v0c0-.83-.68-1.5-1.5-1.5 -.83 0-1.5.67-1.5 1.5m-3.75 0H7.5m9-6h3.75m-3.75 0v0c0 .82-.68 1.5-1.5 1.5 -.83 0-1.5-.68-1.5-1.5m3 0v0c0-.83-.68-1.5-1.5-1.5 -.83 0-1.5.67-1.5 1.5m-9.75 0h9.75"/></svg>