<svg viewBox="0 0 24 24" xmlns="http://www.w3.org/2000/svg"><path fill="none" stroke="#000" stroke-linecap="round" stroke-linejoin="round" stroke-width="1.5" d="M14.85 17.08h-.001c1.86-.23 3.69-.67 5.45-1.31v-.001c-1.5-1.66-2.32-3.8-2.311-6.03v-.7 -.05 0c0-3.32-2.69-6-6-6 -3.32 0-6 2.68-6 6v.75 0c0 2.22-.83 4.37-2.312 6.02 1.73.64 3.56 1.08 5.455 1.31m5.71 0v0c-1.9.22-3.82.22-5.72 0m5.71 0v0c.5 1.57-.37 3.26-1.95 3.77 -1.58.5-3.27-.37-3.78-1.95 -.2-.6-.2-1.24 0-1.84M3.08 7.45h0c.28-1.68 1.03-3.24 2.16-4.5m13.416 0v0c1.13 1.26 1.88 2.82 2.16 4.5"/></svg>