<svg viewBox="0 0 24 24" xmlns="http://www.w3.org/2000/svg"><path fill="none" stroke="#0F172A" stroke-linecap="round" stroke-linejoin="round" stroke-width="1.5" d="M13.5 20.99v-7.5c0-.42.33-.75.75-.75h3c.41 0 .75.33.75.75v7.5m-4.5 0H2.36m11.13 0h4.5m0 0h3.63m-1.39 0V9.33M3.73 20.98V9.32m0 0c1.14.66 2.63.5 3.62-.48 .04-.05.08-.1.12-.14 .54.62 1.35 1.01 2.24 1.01 .89 0 1.7-.4 2.25-1.02 .54.62 1.35 1.01 2.25 1.01 .89 0 1.7-.4 2.24-1.02 .04.04.08.09.12.13 .98.98 2.47 1.14 3.62.47m-16.5 0c-.23-.13-.44-.29-.63-.48 -1.18-1.18-1.18-3.08 0-4.25l1.18-1.19c.28-.29.66-.44 1.06-.44h13.24c.39 0 .77.15 1.06.43l1.18 1.18c1.17 1.17 1.17 3.07 0 4.24 -.19.18-.4.34-.63.47m-13.5 8.65h3.75c.41 0 .75-.34.75-.75v-3.75c0-.42-.34-.75-.75-.75H6.65c-.42 0-.75.33-.75.75v3.75c0 .41.33.75.75.75Z"/></svg>