<svg viewBox="0 0 24 24" xmlns="http://www.w3.org/2000/svg"><path fill="none" stroke="#000" stroke-linecap="round" stroke-linejoin="round" stroke-width="1.5" d="M13.5 21v-7.5 0c0-.42.33-.75.75-.75h3v0c.41 0 .75.33.75.75V21m-4.5 0H2.36m11.14 0H18m0 0h3.64m-1.39 0V9.349M3.75 20.99V9.34m0 0v0c1.23.71 2.8.45 3.75-.62h-.001c.56.64 1.38 1.01 2.25 1.01 .89 0 1.7-.4 2.25-1.016l0 0c.56.64 1.38 1.01 2.25 1.01 .89 0 1.7-.4 2.25-1.016v0c.94 1.07 2.51 1.32 3.75.61m-16.5 0h0c-1.44-.84-1.93-2.67-1.1-4.11 .13-.23.28-.44.47-.62L4.29 3.4V3.4c.28-.29.66-.44 1.06-.44h13.24v0c.39 0 .77.15 1.06.44l1.19 1.189v0c1.17 1.17 1.17 3.07 0 4.24 -.19.18-.4.34-.63.47m-13.5 8.65h3.75v0c.41 0 .75-.34.75-.75v-3.75 0c0-.42-.34-.75-.75-.75H6.71v0c-.42 0-.75.33-.75.75v3.75c0 .41.33.75.75.75Z"/></svg>