<svg viewBox="0 0 24 24" xmlns="http://www.w3.org/2000/svg"><path fill="none" stroke="#000" stroke-linecap="round" stroke-linejoin="round" stroke-width="1.5" d="M15.75 15.75V18m-7.5-6.75h0v0h-.01v-.01Zm0 2.25h0v0h-.01v-.01Zm0 2.25h0v0h-.01v-.01Zm0 2.25h0v0h-.01v-.01Zm2.49-6.75h0v0h-.01v-.01Zm0 2.25h0v0h-.01v-.01Zm0 2.25h0v0h-.01v-.01Zm0 2.25h0v0h-.01v-.01Zm2.5-6.75h0v0h-.01v-.01Zm0 2.25h0v0h-.01v-.01Zm0 2.25h0v0h-.01v-.01Zm0 2.25h0v0h-.01v-.01Zm2.49-6.75h0v0h-.01v-.01Zm0 2.25h0v0h-.01v-.01ZM8.23 6h7.5v2.25h-7.5V6Zm3.75-3.75c-1.9 0-3.76.11-5.593.32 -1.1.12-1.907 1.07-1.907 2.185v14.743 0c0 1.24 1 2.25 2.25 2.25h10.5v0c1.24 0 2.25-1.01 2.25-2.25V4.75c0-1.11-.81-2.06-1.907-2.19l0 0c-1.86-.22-3.73-.33-5.6-.33Z"/></svg>