<svg viewBox="0 0 24 24" xmlns="http://www.w3.org/2000/svg"><path fill="none" stroke="#000" stroke-linecap="round" stroke-linejoin="round" stroke-width="1.5" d="M6.75 3v2.25M17.25 3v2.25M3 18.75V7.5v0c0-1.25 1-2.25 2.25-2.25h13.5v0c1.24 0 2.25 1 2.25 2.25v11.25m-18 0v0C3 19.99 4 21 5.25 21h13.5v0c1.24 0 2.25-1.01 2.25-2.25m-18 0v-7.5 0C3 10 4 9 5.25 9h13.5v0C19.99 9 21 10 21 11.25v7.5m-9-6h0v0h-.01v-.01ZM12 15h0v0h-.01v-.01Zm0 2.25h0v0h-.01v-.01ZM9.75 15h0v0h-.01v-.01Zm0 2.25h0v0h-.01v-.01ZM7.5 15h0v0h-.01v-.01Zm0 2.25h0v0h-.01v-.01Zm6.75-4.5h0v0h-.01v-.01Zm0 2.25h0v0h-.01v-.01Zm0 2.25h0v0h-.01v-.01Zm2.25-4.5h0v0h-.01v-.01Zm0 2.25h0v0h-.01v-.01Z"/></svg>