<svg viewBox="0 0 24 24" xmlns="http://www.w3.org/2000/svg"><path fill="none" stroke="#0F172A" stroke-linecap="round" stroke-linejoin="round" stroke-width="1.5" d="M8.625 9.75c0 .2-.17.375-.375.375 -.21 0-.375-.17-.375-.375 0-.21.16-.38.375-.38 .2 0 .375.16.375.37Zm0 0H8.25m4.12 0c0 .2-.17.375-.38.375s-.375-.17-.375-.375c0-.21.16-.38.375-.38 .2 0 .37.16.37.37Zm0 0h-.38m4.125 0c0 .2-.17.375-.375.375 -.21 0-.38-.17-.38-.375 0-.21.16-.38.37-.38 .2 0 .375.16.375.37Zm0 0h-.375m-13.5 3c0 1.6 1.12 2.99 2.7 3.22 1.08.15 2.18.28 3.29.36v4.64l4.18-4.19c.2-.21.48-.33.77-.34 1.97-.05 3.92-.22 5.83-.5 1.58-.24 2.7-1.63 2.7-3.23V6.69c0-1.61-1.13-3-2.71-3.23 -2.3-.34-4.65-.52-7.05-.52 -2.4 0-4.75.17-7.05.51 -1.59.23-2.71 1.62-2.71 3.22v6.01Z"/></svg>