<svg viewBox="0 0 24 24" xmlns="http://www.w3.org/2000/svg"><path fill="none" stroke="#000" stroke-linecap="round" stroke-linejoin="round" stroke-width="1.5" d="M20.25 6.37c0 2.27-3.7 4.12-8.25 4.12 -4.56 0-8.25-1.85-8.25-4.13m16.5 0c0-2.28-3.7-4.13-8.25-4.13 -4.56 0-8.25 1.84-8.25 4.12m16.5 0V17.6c0 2.27-3.7 4.125-8.25 4.125 -4.56 0-8.25-1.85-8.25-4.125V6.35m16.5-.001v3.75m-16.5-3.75v3.75m16.5 0v3.75c0 2.27-3.7 4.125-8.25 4.125 -4.56 0-8.25-1.85-8.25-4.125v-3.75m16.5 0c0 2.27-3.7 4.125-8.25 4.125 -4.56 0-8.25-1.85-8.25-4.125"/></svg>