<svg viewBox="0 0 24 24" xmlns="http://www.w3.org/2000/svg"><path fill="none" stroke="#000" stroke-linecap="round" stroke-linejoin="round" stroke-width="1.5" d="M8.25 7.5V6.1c0-1.14.84-2.098 1.97-2.2 .37-.03.74-.06 1.12-.08m4.4 14.164h2.25v0c1.24 0 2.25-1.01 2.25-2.25V6.09c0-1.14-.85-2.1-1.98-2.2v0c-.38-.04-.75-.06-1.13-.08m-1.41 14.91V16.84h0c0-1.87-1.52-3.375-3.375-3.375h-1.5v0c-.63 0-1.125-.51-1.125-1.125v-1.5 0C9.72 8.97 8.2 7.47 6.34 7.47H5.21M17.11 3.8v0c-.3-.95-1.17-1.59-2.15-1.59h-1.5v0c-.99 0-1.86.64-2.15 1.58m5.8 0c.06.21.1.43.1.66v.75h-6v-.75c0-.24.03-.46.1-.67m-4.6 3.66H4.84c-.63 0-1.125.5-1.125 1.125v12c0 .62.5 1.125 1.125 1.125h9.75c.62 0 1.125-.51 1.125-1.125V16.44v0c0-4.98-4.03-9-9-9Z"/></svg>