<svg viewBox="0 0 24 24" xmlns="http://www.w3.org/2000/svg"><path fill="none" stroke="#0F172A" stroke-linecap="round" stroke-linejoin="round" stroke-width="1.5" d="M9 12h3.75M9 15h3.75M9 18h3.75m3 .75H18c1.24 0 2.25-1.01 2.25-2.25V6.1c0-1.14-.85-2.1-1.98-2.2 -.38-.04-.75-.06-1.13-.09m-5.801 0c-.07.2-.1.43-.1.66 0 .41.33.75.75.75h4.5c.41 0 .75-.34.75-.75 0-.24-.04-.46-.1-.67m-5.801 0c.28-.92 1.13-1.59 2.15-1.59h1.5c1.01 0 1.86.66 2.15 1.58m-5.801 0c-.38.02-.76.04-1.13.08 -1.14.09-1.98 1.05-1.98 2.19V8.2m0 0H4.85c-.63 0-1.125.5-1.125 1.12v11.25c0 .62.5 1.125 1.125 1.125h9.75c.62 0 1.125-.51 1.125-1.125V9.32c0-.63-.51-1.13-1.125-1.13H8.22Zm-1.5 3.75h0v0h-.01v-.01Zm0 3h0v0h-.01v-.01Zm0 3h0v0h-.01v-.01Z"/></svg>