<svg viewBox="0 0 24 24" xmlns="http://www.w3.org/2000/svg"><path fill="none" stroke="#000" stroke-linecap="round" stroke-linejoin="round" stroke-width="1.5" d="M15.666 3.888v-.001c-.28-.97-1.16-1.64-2.17-1.638h-3c-1.03 0-1.9.69-2.17 1.63m7.33 0c.05.19.08.4.08.61v0 0c0 .41-.34.75-.75.75h-6v0c-.42 0-.75-.34-.75-.75v0c0-.22.03-.42.08-.62m7.33 0c.64.04 1.28.11 1.92.18 1.1.12 1.907 1.077 1.907 2.18v13.243 0c0 1.24-1.01 2.25-2.25 2.25H6.72v0c-1.25 0-2.25-1.01-2.25-2.25V6.22c0-1.11.806-2.06 1.907-2.19l-.001 0c.64-.08 1.28-.14 1.92-.19"/></svg>