<svg viewBox="0 0 24 24" xmlns="http://www.w3.org/2000/svg"><path fill="none" stroke="#000" stroke-linecap="round" stroke-linejoin="round" stroke-width="1.5" d="M11.35 3.83c-.07.21-.1.43-.1.66 0 .41.33.75.75.75h4.5v0c.41 0 .75-.34.75-.75v0c0-.23-.04-.45-.1-.67m-5.8 0v0c.29-.95 1.16-1.59 2.15-1.59H15c1.01 0 1.86.66 2.15 1.58m-5.8 0c-.38.02-.75.05-1.13.08 -1.14.09-1.98 1.05-1.98 2.19v2.14m8.9-4.414c.37.02.75.05 1.12.08 1.13.09 1.97 1.05 1.97 2.192V16.47h0c0 1.24-1.01 2.25-2.25 2.25h-2.25m-7.5-10.5H4.855c-.63 0-1.125.5-1.125 1.125v11.25c0 .62.5 1.125 1.125 1.125h9.75c.62 0 1.125-.51 1.125-1.125V18.72m-7.5-10.5h6.375c.62 0 1.125.5 1.125 1.125v9.375m-8.25-3l1.5 1.5 3-3.75"/></svg>