<svg viewBox="0 0 24 24" xmlns="http://www.w3.org/2000/svg"><g stroke-linecap="round" stroke-width="1.5" stroke="#000" fill="none" stroke-linejoin="round"><path d="M9.594 3.94c.09-.55.56-.94 1.11-.94h2.593c.55 0 1.02.39 1.11.94l.21 1.28c.06.37.31.68.64.87 .07.04.14.08.22.12 .32.19.72.25 1.07.12l1.21-.46v-.001c.51-.2 1.09.01 1.37.49l1.29 2.24v-.001c.27.47.16 1.08-.26 1.43l-1.01.827c-.3.24-.44.61-.44.99l-.001 0c0 .08 0 .17 0 .25 -.01.37.13.75.43.99l1 .82c.42.35.53.95.26 1.43l-1.3 2.247v0c-.28.47-.86.68-1.37.49l-1.22-.46c-.36-.14-.75-.08-1.08.12v0c-.08.04-.15.08-.22.12 -.34.18-.59.49-.65.86l-.22 1.28c-.09.54-.56.94-1.11.94h-2.6c-.55 0-1.02-.4-1.11-.94l-.22-1.29c-.07-.38-.32-.69-.65-.87v-.001c-.08-.05-.15-.09-.22-.13 -.33-.2-.72-.26-1.08-.13l-1.22.45v0c-.52.19-1.1-.02-1.37-.49l-1.3-2.247H3.45c-.28-.48-.17-1.09.26-1.44l1-.827c.29-.24.43-.62.43-1h0c-.01-.09-.01-.18 0-.26 0-.38-.14-.75-.43-.99L3.7 9.93v0c-.43-.35-.54-.96-.26-1.43L4.73 6.26v0c.27-.48.85-.69 1.37-.5l1.21.45c.35.133.75.07 1.07-.13 .07-.05.14-.09.22-.13 .33-.19.58-.5.64-.87l.21-1.29Z"/><path d="M15 12v0c0 1.65-1.35 3-3 3 -1.66 0-3-1.35-3-3v0c0-1.66 1.34-3 3-3 1.65 0 3 1.34 3 3Z"/></g></svg>