<svg viewBox="0 0 24 24" xmlns="http://www.w3.org/2000/svg"><g stroke-linecap="round" stroke-width="1.5" stroke="#000" fill="none" stroke-linejoin="round"><path d="M10.343 3.94c.09-.55.56-.94 1.11-.94h1.093c.55 0 1.02.39 1.11.94l.14.89c.07.42.38.76.78.93 .39.16.85.14 1.205-.11l.73-.53v0c.44-.32 1.06-.27 1.45.12l.77.774c.39.38.44 1 .12 1.45l-.53.73c-.25.35-.28.8-.11 1.2 .16.39.5.71.93.78l.89.15c.54.09.94.56.94 1.109v1.09c0 .55-.4 1.02-.94 1.11l-.9.14c-.43.07-.77.38-.93.78 -.17.39-.15.85.1 1.2l.52.73c.32.44.26 1.06-.12 1.45l-.78.77h-.001c-.39.38-1.01.43-1.45.12l-.74-.53c-.35-.25-.81-.28-1.21-.11 -.4.16-.71.5-.79.92l-.15.89c-.09.54-.56.94-1.11.94h-1.1c-.55 0-1.02-.4-1.11-.94l-.15-.9c-.08-.43-.39-.77-.79-.93 -.4-.17-.86-.15-1.21.1l-.74.52c-.45.32-1.06.26-1.45-.12l-.78-.78H5.13c-.39-.39-.44-1.01-.12-1.45l.52-.74c.25-.35.27-.81.1-1.21 -.17-.4-.51-.71-.93-.78l-.9-.15c-.55-.09-.94-.56-.94-1.109v-1.1c0-.55.39-1.02.94-1.11l.89-.15c.42-.07.76-.39.93-.78 .16-.4.14-.86-.11-1.21l-.53-.74v0c-.32-.45-.27-1.07.12-1.45l.77-.78H5.87c.38-.39 1-.44 1.45-.12l.73.52c.35.25.8.27 1.2.1 .39-.17.71-.51.78-.93l.15-.9Z"/><path d="M15 12v0c0 1.65-1.35 3-3 3 -1.66 0-3-1.35-3-3v0c0-1.66 1.34-3 3-3 1.65 0 3 1.34 3 3Z"/></g></svg>