<svg viewBox="0 0 24 24" xmlns="http://www.w3.org/2000/svg"><g stroke-linecap="round" stroke-width="1.5" stroke="#0F172A" fill="none" stroke-linejoin="round"><path d="M9.59 3.94c.09-.55.55-.95 1.1-.95h2.59c.54 0 1.01.39 1.1.94l.21 1.28c.06.37.31.68.64.86 .07.04.14.08.21.12 .32.19.72.25 1.07.12l1.21-.46c.51-.2 1.09.01 1.36.49l1.29 2.24c.27.47.16 1.08-.26 1.43l-1.01.82c-.3.24-.44.61-.44.99 0 .04 0 .08 0 .12 0 .04-.01.08-.01.12 -.01.37.13.75.43.99l1 .82c.42.34.53.95.25 1.43l-1.3 2.24c-.28.47-.86.68-1.37.49l-1.22-.46c-.36-.14-.76-.08-1.08.12 -.08.04-.15.08-.22.12 -.34.18-.59.49-.65.86l-.22 1.28c-.1.54-.56.94-1.11.94h-2.6c-.55 0-1.02-.4-1.11-.95l-.22-1.29c-.07-.38-.32-.69-.65-.87 -.08-.05-.15-.09-.22-.13 -.33-.2-.73-.26-1.08-.13l-1.22.45c-.52.19-1.1-.02-1.37-.5l-1.3-2.25c-.28-.48-.17-1.09.25-1.44l1-.83c.29-.25.43-.62.43-1 -.01-.05-.01-.09-.01-.13 0-.05 0-.09 0-.13 0-.38-.14-.76-.44-1l-1.01-.83c-.43-.35-.54-.96-.26-1.44l1.29-2.25c.27-.48.85-.69 1.36-.5l1.21.45c.35.13.75.07 1.07-.13 .07-.05.14-.09.21-.13 .33-.19.58-.5.64-.87l.21-1.29Z"/><path d="M15 11.99c0 1.65-1.35 3-3 3 -1.66 0-3.01-1.35-3.01-3 0-1.66 1.34-3 3-3 1.65 0 3 1.34 3 2.99Z"/></g></svg>