<svg viewBox="0 0 24 24" xmlns="http://www.w3.org/2000/svg"><path fill="none" stroke="#0F172A" stroke-linecap="round" stroke-linejoin="round" stroke-width="1.5" d="M15.75 17.25v3.375c0 .62-.51 1.125-1.125 1.125h-9.75c-.63 0-1.125-.51-1.125-1.125V7.875c0-.63.5-1.125 1.125-1.125H6.75c.51 0 1.01.04 1.5.12m7.5 10.37h3.375c.62 0 1.125-.51 1.125-1.125V11.24c0-4.46-3.25-8.17-7.5-8.88 -.49-.09-.99-.13-1.5-.13H9.37c-.63 0-1.13.5-1.13 1.12v3.49m7.5 10.37H9.36c-.63 0-1.13-.51-1.13-1.125V6.82m12 6.62V11.57c0-1.87-1.52-3.375-3.375-3.375h-1.5c-.63 0-1.13-.51-1.13-1.13v-1.5c0-1.87-1.52-3.38-3.38-3.38H9.71"/></svg>