<svg viewBox="0 0 24 24" xmlns="http://www.w3.org/2000/svg"><path fill="none" stroke="#0F172A" stroke-linecap="round" stroke-linejoin="round" stroke-width="1.5" d="M3.97 8.22c-.93 1.09-1.63 2.37-2.05 3.77 1.29 4.33 5.3 7.49 10.06 7.49 .99 0 1.95-.14 2.86-.4M6.2 6.2c1.65-1.1 3.64-1.73 5.77-1.73 4.756 0 8.77 3.16 10.06 7.49 -.72 2.39-2.26 4.42-4.3 5.77M6.18 6.18L2.95 2.95m3.22 3.22l3.65 3.65m7.89 7.89l3.22 3.22M17.7 17.7l-3.66-3.66m0 0c.54-.55.87-1.3.87-2.13 0-1.66-1.35-3-3-3 -.83 0-1.58.33-2.13.87m4.24 4.24L9.77 9.77"/></svg>