<svg viewBox="0 0 24 24" xmlns="http://www.w3.org/2000/svg"><path fill="none" stroke="#000" stroke-linecap="round" stroke-linejoin="round" stroke-width="1.5" d="M3.98 8.22h-.001c-.94 1.1-1.64 2.39-2.05 3.77 1.29 4.33 5.31 7.5 10.06 7.5 .99 0 1.95-.14 2.86-.4M6.214 6.21l0 0c1.71-1.14 3.72-1.74 5.77-1.73 4.756 0 8.773 3.162 10.06 7.49v0c-.71 2.36-2.23 4.41-4.3 5.77M6.19 6.19L2.96 2.96m3.22 3.22l3.65 3.65m7.89 7.89l3.22 3.22m-3.23-3.23l-3.65-3.65m0 0l0 0c1.17-1.18 1.17-3.08 0-4.25 -1.18-1.18-3.08-1.18-4.25 0m4.24 4.24L9.8 9.803"/></svg>