<svg viewBox="0 0 24 24" xmlns="http://www.w3.org/2000/svg"><path fill="none" stroke="#000" stroke-linecap="round" stroke-linejoin="round" stroke-width="1.5" d="M15.182 15.182v-.001c-1.76 1.75-4.61 1.75-6.37 0 -.01-.01-.01-.01-.01-.01m12.18-3.19v0c0 4.97-4.03 9-9 9 -4.98 0-9-4.03-9-9v0c0-4.98 4.02-9 9-9 4.97 0 9 4.02 9 9ZM9.732 9.73c0 .41-.17.75-.375.75 -.21 0-.375-.34-.375-.75 0-.42.16-.75.37-.75 .2 0 .375.33.375.75Zm-.375 0h0v.01h-.01v-.02Zm5.625 0c0 .41-.17.75-.375.75 -.21 0-.375-.34-.375-.75 0-.42.16-.75.375-.75 .2 0 .375.33.375.75Zm-.375 0h0v.01h-.01v-.02Z"/></svg>