<svg viewBox="0 0 24 24" xmlns="http://www.w3.org/2000/svg"><path fill="none" stroke="#000" stroke-linecap="round" stroke-linejoin="round" stroke-width="1.5" d="M7.86 4.243h-.001c3.45-2.29 8.1-1.34 10.39 2.12 .81 1.22 1.24 2.66 1.24 4.13 0 2.92-.56 5.709-1.57 8.268M5.72 6.35l0-.001C4.9 7.57 4.47 9.01 4.48 10.48h0c0 1.41-.4 2.79-1.15 3.99m1.98 3.55v0c1.87-2.07 2.91-4.76 2.91-7.56v0c0-2.08 1.67-3.75 3.75-3.75 2.07 0 3.75 1.67 3.75 3.75 0 .52-.03 1.04-.07 1.56m-3.686-1.57h0c0 3.57-1.28 7.03-3.6 9.75M15 15.6h0c-.55 1.89-1.39 3.69-2.49 5.33"/></svg>