<svg viewBox="0 0 24 24" xmlns="http://www.w3.org/2000/svg"><path fill="none" stroke="#000" stroke-linecap="round" stroke-linejoin="round" stroke-width="1.5" d="M3.75 9.776c.11-.02.22-.03.34-.03H19.9c.11 0 .23 0 .34.02m-16.5 0v0c-1.22.18-2.06 1.32-1.89 2.54l.85 6H2.69c.15 1.1 1.1 1.93 2.22 1.93h14.099v0c1.11-.01 2.06-.83 2.22-1.94l.85-6v0c.17-1.23-.67-2.36-1.89-2.55m-16.5 0V5.97v0c-.01-1.25 1-2.25 2.24-2.25h3.87v0c.39 0 .77.15 1.06.44l2.122 2.12v0c.28.28.66.43 1.06.44h3.87v0c1.24 0 2.25 1 2.25 2.25v.77"/></svg>