<svg viewBox="0 0 24 24" xmlns="http://www.w3.org/2000/svg"><path fill="none" stroke="#000" stroke-linecap="round" stroke-linejoin="round" stroke-width="1.5" d="M21 11.25v8.25 0c0 .82-.68 1.5-1.5 1.5H5.25v0c-.83 0-1.5-.68-1.5-1.5v-8.25M12 4.875v0c0-1.45-1.18-2.625-2.625-2.625 -1.45 0-2.625 1.17-2.625 2.625C6.75 6.31 7.92 7.5 9.375 7.5H12m0-2.625V7.5m0-2.625v0c0-1.45 1.17-2.63 2.625-2.625 1.44 0 2.625 1.17 2.625 2.62 0 1.44-1.18 2.62-2.625 2.62H12m0 0v13.5m-8.625-9.75h18c.62 0 1.125-.51 1.125-1.125v-1.5c0-.63-.51-1.125-1.125-1.125h-18c-.621 0-1.125.5-1.125 1.125v1.5c0 .62.504 1.125 1.125 1.125Z"/></svg>