<svg viewBox="0 0 24 24" xmlns="http://www.w3.org/2000/svg"><path fill="none" stroke="#000" stroke-linecap="round" stroke-linejoin="round" stroke-width="1.5" d="M12 3.75v16.5M2.25 12h19.5M6.375 17.25v0c2.69 0 4.875-2.19 4.875-4.875V12m6.375 5.25v0c-2.7 0-4.875-2.19-4.875-4.875V12m-9 8.25h16.5v0c.82 0 1.5-.68 1.5-1.5V5.25v0c0-.83-.68-1.5-1.5-1.5H3.75v0c-.83 0-1.5.67-1.5 1.5v13.5 0c0 .82.67 1.5 1.5 1.5Zm12.62-9.44c-1.41 1.41-4.25 1.061-4.25 1.061s-.35-2.833 1.06-4.242v0c.87-.88 2.3-.88 3.18 0 .87.87.87 2.3 0 3.18Zm-5.6-3.18c1.4 1.4 1.06 4.242 1.06 4.242s-2.833.34-4.25-1.061l0-.001C6.7 9.93 6.7 8.5 7.57 7.62c.87-.88 2.3-.88 3.18-.001Z"/></svg>