<svg viewBox="0 0 24 24" xmlns="http://www.w3.org/2000/svg"><path fill="none" stroke="#000" stroke-linecap="round" stroke-linejoin="round" stroke-width="1.5" d="M6.115 5.19l.31 1.91H6.42c.2 1.23.79 2.37 1.67 3.25l1.64 1.64 -.39.77c-.22.43-.14.95.21 1.298l1.34 1.34c.21.21.32.49.32.79v1.08c0 .42.24.81.62 1l.15.07c.43.21.95.13 1.29-.21l.72-.73h-.001c1.11-1.12 1.9-2.52 2.28-4.042v0c.1-.41-.04-.84-.36-1.1l-1.33-1.11c-.26-.21-.59-.3-.91-.25l-1.17.19v0c-.36.05-.73-.06-.98-.32l-.3-.3v0c-.44-.44-.44-1.16-.01-1.6 0-.01 0-.01 0-.01l.13-.14v0c.34-.35.86-.43 1.3-.21l.6.3v-.001c.39.2.88.03 1.08-.36 .11-.23.11-.5 0-.73l-.17-.33 1.25-.84v0c.65-.44 1.17-1.04 1.52-1.74l.14-.3m-11.065.55h0c-3.77 3.25-4.18 8.93-.93 12.69 3.25 3.76 8.93 4.17 12.69.92 3.76-3.26 4.17-8.94.92-12.7 -.49-.56-1.03-1.06-1.63-1.48m-11.07.55h0c1.63-1.42 3.72-2.2 5.88-2.19 1.92 0 3.71.6 5.18 1.64"/></svg>