<svg viewBox="0 0 24 24" xmlns="http://www.w3.org/2000/svg"><path fill="none" stroke="#0F172A" stroke-linecap="round" stroke-linejoin="round" stroke-width="1.5" d="M6.11 5.19l.31 1.91c.2 1.23.79 2.37 1.67 3.25l1.64 1.64 -.39.77c-.22.43-.14.95.21 1.29l1.34 1.34c.21.21.32.49.32.79v1.08c0 .42.24.81.62 1l.15.07c.43.21.95.13 1.29-.22l.72-.73c1.11-1.12 1.9-2.52 2.28-4.05 .1-.41-.04-.84-.36-1.1l-1.33-1.11c-.26-.21-.59-.3-.91-.25l-1.17.19c-.36.05-.73-.06-.99-.32l-.3-.3c-.44-.44-.44-1.16 0-1.6l.13-.14c.34-.35.86-.43 1.29-.22l.6.3c.11.05.23.08.36.08 .6 0 .99-.64.72-1.18l-.17-.33 1.25-.84c.65-.44 1.17-1.04 1.52-1.74l.14-.3m-11.07.55c-1.91 1.65-3.12 4.08-3.12 6.8 0 4.97 4.02 9 9 9 4.97 0 9-4.03 9-9 0-3.05-1.51-5.74-3.82-7.37M5.97 5c1.57-1.37 3.63-2.2 5.88-2.2 1.92 0 3.71.6 5.18 1.63"/></svg>