<svg viewBox="0 0 24 24" xmlns="http://www.w3.org/2000/svg"><path fill="none" stroke="#0F172A" stroke-linecap="round" stroke-linejoin="round" stroke-width="1.5" d="M12 21c4.19 0 7.71-2.87 8.71-6.75m-8.72 6.74c-4.2 0-7.72-2.87-8.72-6.75m8.71 6.74c2.48 0 4.5-4.03 4.5-9 0-4.98-2.02-9-4.5-9m0 18c-2.49 0-4.5-4.03-4.5-9 0-4.98 2.01-9 4.5-9m0 0c3.36 0 6.29 1.84 7.84 4.58m-7.85-4.59c-3.37 0-6.3 1.84-7.85 4.58m15.68 0c-2.11 1.81-4.85 2.91-7.85 2.91s-5.74-1.1-7.85-2.92m15.68 0c.73 1.3 1.15 2.81 1.15 4.41 0 .77-.1 1.53-.29 2.25m0 0c-2.59 1.43-5.56 2.24-8.72 2.24 -3.17 0-6.14-.82-8.72-2.25m0 0c-.19-.72-.29-1.48-.29-2.26 0-1.61.42-3.12 1.15-4.42"/></svg>