<svg viewBox="0 0 24 24" xmlns="http://www.w3.org/2000/svg"><path fill="none" stroke="#000" stroke-linecap="round" stroke-linejoin="round" stroke-width="1.5" d="M20.893 13.393l-1.14-1.14v0c-.18-.18-.32-.37-.43-.59l-1.08-2.16v0c-.11-.21-.36-.29-.56-.19 -.04.01-.08.04-.11.07v0c-.22.21-.53.29-.82.21l-1.28-.37V9.22c-.48-.14-.97.14-1.1.61 -.11.36.04.76.35.97l.58.39c.59.39.67 1.23.17 1.73l-.2.2c-.22.21-.33.49-.33.79v.41c0 .4-.11.8-.32 1.15l-1.32 2.19v0c-.39.63-1.07 1.02-1.81 1.02v0c-.59 0-1.06-.48-1.06-1.06v-1.18c0-.92-.56-1.75-1.42-2.09l-.66-.27v0c-.99-.4-1.56-1.42-1.39-2.46l0-.05 0-.001c.04-.28.14-.55.29-.79l.09-.15v0c.48-.82 1.43-1.24 2.37-1.05l1.17.23v0c.57.11 1.14-.24 1.3-.8l.2-.73v0c.14-.53-.1-1.08-.58-1.32l-.67-.34 -.1.09v0c-.43.42-1 .65-1.6.65h-.18c-.25 0-.49.1-.67.27v0c-.37.36-.96.36-1.32 0 -.31-.31-.37-.78-.15-1.15l1.41-2.36V4.12c.14-.24.23-.5.28-.76m11.92 9.86v-.001c.77-4.92-2.59-9.52-7.5-10.29 -1.49-.24-3.02-.09-4.44.41m11.928 9.868v0c-.78 4.91-5.38 8.26-10.29 7.49 -4.92-.78-8.27-5.38-7.5-10.29 .51-3.26 2.75-5.97 5.85-7.08"/></svg>