<svg viewBox="0 0 24 24" xmlns="http://www.w3.org/2000/svg"><path fill="none" stroke="#0F172A" stroke-linecap="round" stroke-linejoin="round" stroke-width="1.5" d="M12.75 3.03v.56c0 .33.14.65.4.86l1.06.89c.44.36.53 1 .21 1.48l-.52.76c-.28.41-.69.72-1.17.88l-.15.04c-.7.23-.98 1.05-.58 1.66 .36.55.16 1.3-.43 1.6l-2.63 1.314 .42 1.05c.18.46-.02.98-.46 1.2 -.42.2-.92.08-1.2-.29l-.68-.91c-.51-.67-1.54-.58-1.91.17l-.69 1.37 -.62.15m8.86-12.88c-.25-.03-.5-.04-.75-.04 -4.98 0-9 4.02-9 9 0 1.39.31 2.72.88 3.9m8.86-12.88c4.61.38 8.25 4.25 8.25 8.96 0 1.87-.58 3.62-1.57 5.06m0 0l-.18-.53c-.31-.92-1.17-1.54-2.14-1.54h-.63l-.33-.33c-.28-.28-.65-.43-1.03-.43 -.56 0-1.06.31-1.3.8l-.04.07c-.2.39-.56.69-.99.81l-.99.28c-.56.15-.9.7-.81 1.26l.07.43c.07.47.48.82.96.82 .84 0 1.59.54 1.86 1.34l.21.64m5.27-3.68c-1.23 1.8-3.1 3.13-5.28 3.67m0 0c-.7.17-1.42.26-2.17.26 -3.58 0-6.66-2.09-8.12-5.1m11.86-6.91c0 .89-.4 1.7-1.02 2.25"/></svg>