<svg viewBox="0 0 24 24" xmlns="http://www.w3.org/2000/svg"><path fill="none" stroke="#0F172A" stroke-linecap="round" stroke-linejoin="round" stroke-width="1.5" d="M7.49 14.25H4.36c-1.03 0-1.95-.7-2.06-1.72 -.05-.43-.07-.86-.07-1.29 0-2.85.99-5.47 2.649-7.53 .38-.49.98-.73 1.6-.73h4.01c.48 0 .96.07 1.423.23l3.11 1.03c.45.15.93.23 1.42.23h1.29m-10.28 9.75c.61 0 .99.72.72 1.28 -.47.97-.73 2.06-.73 3.21 0 1.24 1 2.25 2.25 2.25 .41 0 .75-.34.75-.75v-.64c0-.58.1-1.14.32-1.68 .3-.76.93-1.34 1.65-1.72 1.11-.6 2.08-1.42 2.86-2.4 .49-.64 1.22-1.09 2.03-1.09h.38m-10.26 1.5h2.2m8.07-9.75c.01.05.02.09.05.14 .59 1.19.92 2.54.92 3.97 0 1.48-.37 2.88-1 4.125m.02-8.25c-.08-.37.18-.75.57-.75h.9c.88 0 1.71.51 1.97 1.36 .33 1.1.52 2.28.52 3.5 0 1.55-.3 3.03-.84 4.39 -.31.77-1.09 1.22-1.92 1.22h-1.06c-.48 0-.75-.56-.51-.96 .1-.18.2-.36.3-.55"/></svg>