<svg viewBox="0 0 24 24" xmlns="http://www.w3.org/2000/svg"><path fill="none" stroke="#0F172A" stroke-linecap="round" stroke-linejoin="round" stroke-width="1.5" d="M10.05 4.575c0-.87-.71-1.58-1.58-1.58 -.87 0-1.58.7-1.58 1.57l-.01 3m3.15-3v-1.5c0-.87.7-1.58 1.57-1.58 .86 0 1.57.7 1.57 1.57v1.5m-3.15 0l.07 5.925m3.07.75V4.55m0 0c0-.87.7-1.58 1.57-1.58 .86 0 1.57.7 1.57 1.57V14.97M6.85 7.54c0-.87-.71-1.58-1.58-1.58 -.87 0-1.58.7-1.58 1.57v8.175c0 3.72 3.02 6.75 6.75 6.75h2.01c1.39 0 2.72-.56 3.71-1.54l1.73-1.74c.98-.99 1.53-2.32 1.53-3.72l0-2.03c0-.18.06-.35.19-.48 .61-.62.61-1.62 0-2.23 -.62-.62-1.62-.62-2.23 0 -.75.74-1.12 1.71-1.13 2.68M6.79 7.49v4.425m6.27 4.31c.38-.39.83-.7 1.3-.92 .59-.28 1.23-.41 1.87-.41m0 0h-.01"/></svg>