<svg viewBox="0 0 24 24" xmlns="http://www.w3.org/2000/svg"><path fill="none" stroke="#000" stroke-linecap="round" stroke-linejoin="round" stroke-width="1.5" d="M6.63 10.5c.8 0 1.53-.45 2.03-1.08l-.001 0c.77-1 1.75-1.81 2.86-2.4 .72-.39 1.35-.96 1.65-1.72h-.001c.21-.54.32-1.1.32-1.68v-.64 0c0-.42.33-.75.75-.75v0c1.24-.001 2.25 1 2.25 2.25 0 1.15-.26 2.24-.73 3.218 -.266.55.1 1.282.72 1.282h3.12c1.02 0 1.94.69 2.05 1.71 .04.42.06.85.06 1.28v0c0 2.73-.94 5.39-2.65 7.52 -.39.48-.99.72-1.61.72h-4.02c-.49 0-.97-.08-1.423-.23l-3.12-1.04 -.001 0c-.46-.16-.94-.24-1.43-.23H5.83m8.346-9.75h2.25M5.83 18.71c.08.2.17.4.27.6 .19.4-.08.89-.53.89h-.91c-.89 0-1.72-.52-1.98-1.37H2.68c-.35-1.14-.53-2.32-.53-3.51 0-1.56.29-3.04.831-4.398 .3-.78 1.08-1.23 1.91-1.23h1.05c.47 0 .74.55.5.96v0c-.86 1.4-1.31 3.01-1.31 4.66 0 1.19.23 2.333.65 3.37Z"/></svg>