<svg viewBox="0 0 24 24" xmlns="http://www.w3.org/2000/svg"><path fill="none" stroke="#0F172A" stroke-linecap="round" stroke-linejoin="round" stroke-width="1.5" d="M15 9h3.75M15 12h3.75M15 15h3.75M4.5 19.5h15c1.24 0 2.25-1.01 2.25-2.25V6.75c0-1.25-1.01-2.25-2.25-2.25h-15c-1.25 0-2.25 1-2.25 2.25v10.5c0 1.24 1 2.25 2.25 2.25Zm6-10.13c0 1.03-.84 1.87-1.875 1.87 -1.04 0-1.875-.84-1.875-1.88s.83-1.88 1.875-1.88c1.03 0 1.875.83 1.875 1.87Zm1.29 6.33c-.95.5-2.03.78-3.17.78 -1.15 0-2.23-.29-3.17-.79 .47-1.3 1.71-2.22 3.16-2.22 1.45 0 2.69.92 3.16 2.21Z"/></svg>