<svg viewBox="0 0 24 24" xmlns="http://www.w3.org/2000/svg"><path fill="none" stroke="#0F172A" stroke-linecap="round" stroke-linejoin="round" stroke-width="1.5" d="M9 3.75H6.91c-.99 0-1.87.64-2.16 1.58l-2.42 7.83c-.07.21-.1.43-.1.66v4.16c0 1.24 1 2.25 2.25 2.25h15c1.24 0 2.25-1.01 2.25-2.25v-4.17c0-.23-.04-.45-.1-.67L19.21 5.3c-.3-.95-1.17-1.59-2.16-1.59h-2.09M2.21 13.46h3.85c.85 0 1.63.48 2.01 1.24l.25.51c.38.76 1.16 1.24 2.01 1.24h3.21c.85 0 1.63-.49 2.01-1.25l.25-.52c.38-.77 1.16-1.25 2.01-1.25h3.85m-9.75-10.5v8.25m0 0l-3-3m3 3l3-3"/></svg>