<svg viewBox="0 0 24 24" xmlns="http://www.w3.org/2000/svg"><path fill="none" stroke="#000" stroke-linecap="round" stroke-linejoin="round" stroke-width="1.5" d="M7.87 14.25l1.21 1.94v0c.41.65 1.13 1.05 1.9 1.05h2c.77 0 1.49-.4 1.9-1.06l1.21-1.95M2.375 8.98h4.636v0c.75 0 1.45.37 1.87 1l.16.24H9.04c.41.62 1.11 1 1.87 1H13h0c.75-.01 1.45-.38 1.87-1.01l.16-.25v0c.41-.63 1.11-1.01 1.87-1.01h4.63m-19.18 0l0 0c-.11.26-.16.54-.16.83v2.16 0c0 1.24 1 2.25 2.25 2.25h15v0c1.24 0 2.25-1.01 2.25-2.25V9.77c0-.29-.06-.57-.16-.84m-19.18 0v0c.09-.24.22-.45.38-.64L6.01 4.45v0c.42-.5 1.05-.79 1.7-.79h8.43c.657 0 1.28.28 1.7.78l3.28 3.83c.16.19.29.4.38.63M4.41 20.15h15v0c1.24 0 2.25-1.01 2.25-2.25V15.27c0-.63-.51-1.125-1.125-1.125H3.29c-.63 0-1.13.5-1.13 1.125V17.9h0c0 1.24 1 2.25 2.25 2.25Z"/></svg>