<svg viewBox="0 0 24 24" xmlns="http://www.w3.org/2000/svg"><path fill="none" stroke="#000" stroke-linecap="round" stroke-linejoin="round" stroke-width="1.5" d="M12 18v-5.25m0 0v0c.5 0 1-.07 1.5-.19m-1.5.18v0c-.51 0-1.01-.07-1.5-.19m3.75 7.47v0c-1.49.28-3.02.28-4.5 0m3.75 2.38l0 0c-1 .1-2.01.1-3 0m3.75-4.43v-.2c0-.99.65-1.83 1.5-2.32v-.001c3.58-2.08 4.8-6.67 2.73-10.25C16.4 1.609 11.81.38 8.23 2.45c-3.59 2.07-4.81 6.66-2.74 10.24 .65 1.13 1.59 2.07 2.73 2.73 .85.49 1.5 1.33 1.5 2.31v.19"/></svg>