<svg viewBox="0 0 24 24" xmlns="http://www.w3.org/2000/svg"><path fill="none" stroke="#000" stroke-linecap="round" stroke-linejoin="round" stroke-width="1.5" d="M10.34 15.84c-.69-.06-1.39-.09-2.09-.09H7.5v0c-2.49 0-4.5-2.02-4.5-4.5 0-2.49 2.01-4.5 4.5-4.5h.75c.7 0 1.4-.03 2.09-.09m0 9.18c.25.96.58 1.89.98 2.78 .24.55.06 1.21-.47 1.51l-.657.38c-.56.31-1.26.11-1.53-.47v0c-.64-1.38-1.12-2.81-1.44-4.29m3.1.06v0c-.4-1.5-.6-3.05-.59-4.59 0-1.59.2-3.13.59-4.59m0 9.18v0c3.08.26 6.08 1.12 8.835 2.535M10.31 6.62V6.62c3.08-.27 6.08-1.13 8.835-2.54m0 0V4.08c-.12-.38-.25-.76-.38-1.125m.38 1.125h-.001c.54 1.75.88 3.56 1.01 5.395m-1.02 8.85c-.12.38-.25.75-.38 1.125m.38-1.125v0c.54-1.76.88-3.57 1.01-5.395m0-3.46c.49.41.81 1.03.81 1.73 0 .69-.32 1.31-.82 1.73m0-3.46v0c.08 1.15.08 2.3 0 3.46"/></svg>