<svg viewBox="0 0 24 24" xmlns="http://www.w3.org/2000/svg"><path fill="none" stroke="#000" stroke-linecap="round" stroke-linejoin="round" stroke-width="1.5" d="M9.53 16.122v0c-.63-1.54-2.38-2.28-3.91-1.66 -1.14.45-1.88 1.55-1.88 2.78h0c0 1.24-1.01 2.25-2.25 2.25 -.06 0-.11-.01-.16-.01h0c1.23 2.15 3.99 2.89 6.14 1.65 1.39-.81 2.25-2.3 2.25-3.91 0-.4-.08-.78-.22-1.13Zm0 0h0c1.18-.41 2.32-.95 3.38-1.62m-5.05-.03l0-.001c.4-1.2.94-2.34 1.62-3.4m3.42 3.42h0c1.89-1.2 3.51-2.79 4.76-4.648l3.87-5.82v0c.35-.53.21-1.25-.32-1.6 -.39-.27-.9-.27-1.29 0L14.1 6.29l0-.001c-1.87 1.24-3.46 2.86-4.65 4.76m3.42 3.42v0c-.69-1.53-1.9-2.74-3.42-3.42"/></svg>