<svg viewBox="0 0 24 24" xmlns="http://www.w3.org/2000/svg"><path fill="none" stroke="#000" stroke-linecap="round" stroke-linejoin="round" stroke-width="1.5" d="M15.75 3.75L18 6m0 0l2.25 2.25M18 6l2.25-2.25M18 6l-2.25 2.25m1.5 13.5c-8.29 0-15-6.72-15-15V4.5v0c0-1.25 1-2.25 2.25-2.25h1.37c.516 0 .96.351 1.09.85l1.1 4.423c.11.44-.06.9-.42 1.173l-1.3.97V9.66c-.39.27-.54.76-.38 1.21l-.001 0c1.21 3.31 3.82 5.92 7.14 7.14 .44.16.92-.01 1.21-.38l.97-1.3v0c.27-.37.73-.53 1.173-.42l4.42 1.1c.5.125.85.57.85 1.09v1.37 0c0 1.24-1.01 2.25-2.25 2.25h-2.25Z"/></svg>