<svg viewBox="0 0 24 24" xmlns="http://www.w3.org/2000/svg"><path fill="none" stroke="#0F172A" stroke-linecap="round" stroke-linejoin="round" stroke-width="1.5" d="M15.75 3.75L18 6m0 0l2.25 2.25M18 6l2.25-2.25M18 6l-2.25 2.25m1.5 13.5c-8.29 0-15-6.72-15-15V4.5c0-1.25 1-2.25 2.25-2.25h1.37c.51 0 .96.35 1.09.85l1.1 4.42c.1.43-.06.9-.42 1.17l-1.3.97c-.38.28-.55.76-.39 1.2 1.21 3.3 3.83 5.93 7.14 7.14 .44.16.92-.01 1.2-.38l.97-1.3c.27-.37.73-.53 1.17-.42l4.42 1.1c.5.12.85.57.85 1.09v1.37c0 1.24-1.01 2.25-2.25 2.25H17.2Z"/></svg>