<svg viewBox="0 0 24 24" xmlns="http://www.w3.org/2000/svg"><path fill="none" stroke="#000" stroke-linecap="round" stroke-linejoin="round" stroke-width="1.5" d="M3.75 7.5l16.5-4.13M12 6.74c-2.708 0-5.37.22-7.948.65 -1.053.17-1.81 1.1-1.81 2.16v9.17 0c0 1.24 1 2.25 2.25 2.25h15v0c1.24 0 2.25-1.01 2.25-2.25V9.54c0-1.07-.75-2-1.81-2.17l-.001 0c-2.63-.44-5.29-.66-7.948-.66Zm-1.69 6.44l-.01 0 -.01-.01 0-.01 0 0Zm-.01 2.12l-.01-.01 0-.01 0 0 -.01 0Zm-2.12-.01l-.01 0 -.01-.01 0-.01 0 0Zm-.01-2.12l-.01-.01 0-.01 0 0 -.01 0Zm1.06-2.7v0h-.01v-.01h0Zm3.24 1.88l-.01 0 -.01-.01 0-.01 0 0Zm-1.38 5.12l-.01-.01 0-.01 0 0 -.01 0Zm0-6.51l-.01 0 -.01-.01 0-.01 0 0Zm1.37 5.12l-.01-.01 0-.01 0 0 -.01 0Zm.5-1.88h-.01v-.01h0v0Zm-3.75 3.74v0H9.2v-.01h0Zm-3.25-1.87l-.01 0 -.01-.01 0-.01 0 0Zm1.36-5.119l-.01-.01 0-.01 0 0 -.01 0Zm0 6.48l-.01 0 -.01-.01 0-.01 0 0ZM5.94 12.31l-.01-.01 0-.01 0 0 -.01 0Zm-.5 1.87h-.01v-.01h0v0Zm11.746-1.51v0c-.42 0-.75-.34-.75-.75 0-.42.33-.75.75-.75v0c.41 0 .75.33.75.75 0 .41-.34.75-.75.75Zm0 4.5v0c-.42 0-.75-.34-.75-.75 0-.42.33-.75.75-.75v0c.41 0 .75.33.75.75 0 .41-.34.75-.75.75Z"/></svg>