<svg viewBox="0 0 24 24" xmlns="http://www.w3.org/2000/svg"><path fill="none" stroke="#000" stroke-linecap="round" stroke-linejoin="round" stroke-width="1.5" d="M9 14.25l6-6m4.5-3.5v16.99l-3.75-1.5 -3.75 1.5 -3.75-1.5 -3.75 1.5v-17c0-1.11.806-2.06 1.907-2.19l0 0c3.71-.44 7.46-.44 11.186 0 1.1.12 1.907 1.077 1.907 2.18ZM9.75 8.993h0v0h-.01v-.01Zm.375 0v0c0 .2-.17.375-.375.375 -.21 0-.375-.17-.375-.375v0c0-.21.16-.375.375-.375 .2 0 .375.16.375.375Zm4.125 4.5h0v0h-.01v-.01Zm.375 0v0c0 .2-.17.375-.375.375 -.21 0-.375-.17-.375-.375v0c0-.21.16-.375.375-.375 .2 0 .375.16.375.375Z"/></svg>