<svg viewBox="0 0 24 24" xmlns="http://www.w3.org/2000/svg"><path fill="none" stroke="#0F172A" stroke-linecap="round" stroke-linejoin="round" stroke-width="1.5" d="M6 6.87v-.88c0-1.25 1-2.25 2.25-2.25h7.5c1.24 0 2.25 1 2.25 2.25v.87m-12 0c.23-.09.48-.13.75-.13h10.5c.26 0 .51.04.75.12m-12 0c-.88.3-1.5 1.14-1.5 2.12v.87m13.5-3c.87.3 1.5 1.14 1.5 2.12v.87m0 0c-.24-.09-.49-.13-.75-.13H5.25c-.27 0-.52.04-.75.12m15 0c.87.3 1.5 1.14 1.5 2.12v6c0 1.24-1.01 2.25-2.25 2.25H5.25C4 20.19 3 19.18 3 17.94v-6c0-.98.62-1.82 1.5-2.13"/></svg>