<svg viewBox="0 0 24 24" xmlns="http://www.w3.org/2000/svg"><g stroke-linecap="round" stroke-width="1.5" stroke="#0F172A" fill="none" stroke-linejoin="round"><path d="M2.25 7.12c0-.63.5-1.13 1.12-1.13h6c.62 0 1.12.5 1.12 1.12v3.75c0 .62-.51 1.12-1.13 1.12h-6c-.63 0-1.125-.51-1.125-1.13V7.1Z"/><path d="M14.25 8.625c0-.63.5-1.125 1.12-1.125h5.25c.62 0 1.125.5 1.125 1.125v8.25c0 .62-.51 1.125-1.125 1.125h-5.25c-.63 0-1.13-.51-1.13-1.125v-8.25Z"/><path d="M3.75 16.125c0-.63.5-1.125 1.125-1.125h5.25c.62 0 1.125.5 1.125 1.125v2.25c0 .62-.51 1.125-1.125 1.125h-5.25c-.63 0-1.125-.51-1.125-1.125v-2.25Z"/></g></svg>