<svg viewBox="0 0 24 24" xmlns="http://www.w3.org/2000/svg"><path fill="none" stroke="#0F172A" stroke-linecap="round" stroke-linejoin="round" stroke-width="1.5" d="M12 3v17.25m0 0c-1.48 0-2.89.26-4.19.75m4.18-.75c1.47 0 2.88.26 4.18.75m2.56-16.03c-2.21-.32-4.46-.48-6.75-.48 -2.3 0-4.55.16-6.75.47m13.5 0c1.01.14 2.01.31 3 .51m-3-.52l2.62 10.72c.12.49-.11 1.02-.59 1.2 -.64.22-1.32.35-2.04.35s-1.4-.13-2.04-.36c-.49-.18-.72-.71-.59-1.21l2.62-10.73Zm-16.5.51c.98-.21 1.98-.38 3-.52m0 0l2.62 10.72c.12.49-.11 1.02-.59 1.2 -.64.22-1.32.35-2.04.35s-1.4-.13-2.04-.36c-.49-.18-.72-.71-.59-1.21L5.21 4.91Z"/></svg>