<svg viewBox="0 0 24 24" xmlns="http://www.w3.org/2000/svg"><path fill="none" stroke="#0F172A" stroke-linecap="round" stroke-linejoin="round" stroke-width="1.5" d="M5.25 14.25h13.5m-13.5 0c-1.66 0-3-1.35-3-3m3 3c-1.66 0-3 1.34-3 3 0 1.65 1.34 3 3 3h13.5c1.65 0 3-1.35 3-3 0-1.66-1.35-3-3-3m-16.5-3c0-1.66 1.34-3 3-3h13.5c1.65 0 3 1.34 3 3m-19.5 0c0-.98.31-1.93.9-2.7L5.73 5.1c.63-.85 1.63-1.35 2.7-1.35h7.12c1.06 0 2.06.5 2.7 1.35l2.58 3.45c.58.77.9 1.72.9 2.7m0 0c0 1.65-1.35 3-3 3m0 3h0v0h-.01v-.01Zm0-6h0v0h-.01v-.01Zm-3 6h0v0h-.01v-.01Zm0-6h0v0h-.01v-.01Z"/></svg>