<svg viewBox="0 0 24 24" xmlns="http://www.w3.org/2000/svg"><path fill="none" stroke="#0F172A" stroke-linecap="round" stroke-linejoin="round" stroke-width="1.5" d="M7.21 10.9c-.39-.7-1.13-1.16-1.97-1.16 -1.25 0-2.25 1-2.25 2.25 0 1.24 1 2.25 2.25 2.25 .84 0 1.58-.47 1.96-1.16m0-2.19c.18.32.28.69.28 1.09 0 .39-.11.76-.29 1.09m0-2.19l9.56-5.32m-9.57 7.5l9.56 5.31m0 0c-.19.32-.29.69-.29 1.09 0 1.24 1 2.25 2.25 2.25 1.24 0 2.25-1.01 2.25-2.25 0-1.25-1.01-2.25-2.25-2.25 -.85 0-1.59.46-1.97 1.15Zm0-12.82c.38.69 1.12 1.15 1.96 1.15 1.24 0 2.25-1.01 2.25-2.25 0-1.25-1.01-2.25-2.25-2.25 -1.25 0-2.25 1-2.25 2.25 0 .39.1.76.28 1.09Z"/></svg>