<svg viewBox="0 0 24 24" xmlns="http://www.w3.org/2000/svg"><path fill="none" stroke="#000" stroke-linecap="round" stroke-linejoin="round" stroke-width="1.5" d="M7.21 10.907v0c-.61-1.09-1.98-1.48-3.06-.88 -1.09.6-1.48 1.97-.88 3.05 .6 1.08 1.97 1.47 3.05.87 .36-.21.66-.51.87-.88m0-2.186c.18.32.28.69.28 1.093 0 .39-.11.77-.29 1.093m0-2.186l9.56-5.32m-9.566 7.5l9.566 5.314m0 0v0c-.61 1.08-.22 2.45.87 3.06 1.08.6 2.45.21 3.06-.88 0-.01 0-.01 0-.01v0c.6-1.09.21-2.46-.88-3.07 -1.09-.61-2.46-.22-3.07.87Zm0-12.814v0c.58 1.09 1.94 1.51 3.04.93 1.09-.59 1.51-1.95.93-3.05 -.02-.03-.03-.06-.05-.08v0c-.63-1.08-2.01-1.44-3.08-.82 -1.05.6-1.43 1.93-.86 3Z"/></svg>