<svg viewBox="0 0 24 24" xmlns="http://www.w3.org/2000/svg"><path fill="none" stroke="#0F172A" stroke-linecap="round" stroke-linejoin="round" stroke-width="1.5" d="M2.25 3h1.38c.5 0 .95.34 1.08.83l.38 1.43m2.39 8.97c-1.66 0-3 1.34-3 3h15.75m-12.75-3h11.21c1.12-2.31 2.09-4.69 2.92-7.14 -4.77-1.22-9.76-1.87-14.9-1.87 -.55 0-1.1 0-1.65.02m2.39 8.97l-2.4-8.98m.89 14.97c0 .41-.34.75-.75.75 -.42 0-.75-.34-.75-.75 0-.42.33-.75.75-.75 .41 0 .75.33.75.75Zm12.75 0c0 .41-.34.75-.75.75 -.42 0-.75-.34-.75-.75 0-.42.33-.75.75-.75 .41 0 .75.33.75.75Z"/></svg>