<svg viewBox="0 0 24 24" xmlns="http://www.w3.org/2000/svg"><path fill="none" stroke="#0F172A" stroke-linecap="round" stroke-linejoin="round" stroke-width="1.5" d="M15.75 10.5V6c0-2.08-1.68-3.75-3.75-3.75 -2.08 0-3.75 1.67-3.75 3.75v4.5m11.35-2l1.26 11.99c.06.66-.46 1.24-1.12 1.24H4.23c-.67 0-1.19-.58-1.12-1.25l1.26-12c.06-.58.54-1.01 1.11-1.01h12.97c.57 0 1.05.43 1.11 1ZM8.61 10.49c0 .2-.17.37-.375.37 -.21 0-.375-.17-.375-.38s.16-.375.375-.375c.2 0 .375.16.375.375Zm7.5 0c0 .2-.17.37-.375.37 -.21 0-.38-.17-.38-.38s.16-.375.37-.375c.2 0 .375.16.375.375Z"/></svg>