<svg viewBox="0 0 24 24" xmlns="http://www.w3.org/2000/svg"><path fill="none" stroke="#000" stroke-linecap="round" stroke-linejoin="round" stroke-width="1.5" d="M2.25 3h1.38c.51 0 .95.34 1.08.835l.383 1.43m2.394 8.978v0c-1.66 0-3 1.34-3 3h15.75m-12.75-3h11.21c1.12-2.3 2.1-4.69 2.92-7.138l0-.001C16.2 5.72 10.64 5.1 5.08 5.26m2.39 8.97L5.07 5.25m.89 14.978v0c0 .41-.34.75-.75.75 -.42 0-.75-.34-.75-.75v0c0-.42.33-.75.75-.75 .41 0 .75.33.75.75Zm12.75 0v0c0 .41-.34.75-.75.75 -.42 0-.75-.34-.75-.75v0c0-.42.33-.75.75-.75 .41 0 .75.33.75.75Z"/></svg>