<svg viewBox="0 0 24 24" xmlns="http://www.w3.org/2000/svg"><path fill="none" stroke="#0F172A" stroke-linecap="round" stroke-linejoin="round" stroke-width="1.5" d="M3 3l8.73 8.73m0 0c.06-.07.16-.11.26-.11 .2 0 .37.16.37.375 0 .1-.05.19-.11.26m-.54-.54l.53.53m0 0l8.73 8.73M14.62 9.31c1.46 1.46 1.46 3.83 0 5.3m2.12-7.43c2.63 2.63 2.63 6.9 0 9.54m2.12-11.67c3.8 3.8 3.8 9.98 0 13.78m-9.55-4.25c-.6-.6-.96-1.35-1.07-2.13m-1.07 4.24c-1.88-1.88-2.42-4.58-1.63-6.93m-.5 9.04c-3.07-3.07-3.67-7.68-1.79-11.34m8.68 4.44h0v0h-.01v-.01Z"/></svg>