<svg viewBox="0 0 24 24" xmlns="http://www.w3.org/2000/svg"><g stroke-linecap="round" stroke-width="1.5" stroke="#0F172A" fill="none" stroke-linejoin="round"><path d="M9.81 15.9l-.82 2.84 -.82-2.85c-.43-1.5-1.6-2.67-3.1-3.1l-2.85-.82 2.84-.82c1.49-.43 2.66-1.6 3.09-3.1l.81-2.85 .81 2.84c.42 1.49 1.59 2.66 3.09 3.09l2.84.81 -2.85.81c-1.5.42-2.67 1.59-3.1 3.09Z"/><path d="M18.25 8.71l-.26 1.03 -.26-1.04c-.31-1.21-1.25-2.16-2.46-2.46l-1.04-.26 1.03-.26c1.2-.31 2.15-1.25 2.45-2.46l.25-1.04 .25 1.03c.3 1.2 1.24 2.15 2.45 2.45l1.03.25 -1.04.25c-1.21.3-2.16 1.24-2.46 2.45Z"/><path d="M16.89 20.56l-.4 1.18 -.4-1.19c-.23-.68-.76-1.2-1.43-1.43l-1.19-.4 1.18-.4c.67-.23 1.19-.76 1.42-1.43l.39-1.19 .39 1.18c.22.67.75 1.19 1.42 1.42l1.18.39 -1.19.39c-.68.22-1.2.75-1.43 1.42Z"/></g></svg>