<svg viewBox="0 0 24 24" xmlns="http://www.w3.org/2000/svg"><g stroke-linecap="round" stroke-width="1.5" stroke="#0F172A" fill="none" stroke-linejoin="round"><path d="M3.75 6c0-1.25 1-2.25 2.25-2.25h2.25c1.24 0 2.25 1 2.25 2.25v2.25c0 1.24-1.01 2.25-2.25 2.25H6c-1.25 0-2.25-1.01-2.25-2.25V6Z"/><path d="M3.75 15.75c0-1.25 1-2.25 2.25-2.25h2.25c1.24 0 2.25 1 2.25 2.25V18c0 1.24-1.01 2.25-2.25 2.25H6c-1.25 0-2.25-1.01-2.25-2.25v-2.25Z"/><path d="M13.5 6c0-1.25 1-2.25 2.25-2.25H18c1.24 0 2.25 1 2.25 2.25v2.25c0 1.24-1.01 2.25-2.25 2.25h-2.25c-1.25 0-2.25-1.01-2.25-2.25V6Z"/><path d="M13.5 15.75c0-1.25 1-2.25 2.25-2.25H18c1.24 0 2.25 1 2.25 2.25V18c0 1.24-1.01 2.25-2.25 2.25h-2.25c-1.25 0-2.25-1.01-2.25-2.25v-2.25Z"/></g></svg>