<svg viewBox="0 0 24 24" xmlns="http://www.w3.org/2000/svg"><path fill="none" stroke="#000" stroke-linecap="round" stroke-linejoin="round" stroke-width="1.5" d="M3.375 19.5h17.25m-17.25 0v0c-.63 0-1.13-.51-1.13-1.125m1.12 1.125h7.5c.62 0 1.125-.51 1.125-1.125m-9.75 0V5.625m0 12.75v-1.5c0-.63.504-1.125 1.125-1.125m18.375 2.625V5.625m0 12.75c0 .62-.51 1.125-1.125 1.125m1.125-1.125v-1.5c0-.63-.51-1.125-1.125-1.125m0 3.75h-7.5v0c-.63 0-1.125-.51-1.125-1.125m9.75-12.75c0-.63-.51-1.125-1.125-1.125H3.36C2.74 4.5 2.24 5 2.24 5.625m19.5 0v1.5c0 .62-.51 1.125-1.125 1.125M2.24 5.62v1.5c0 .62.5 1.12 1.12 1.12m0 0h17.25m-17.25 0h7.5c.62 0 1.125.5 1.125 1.125M3.36 8.24c-.621 0-1.125.5-1.125 1.125v1.5c0 .62.504 1.125 1.125 1.125m17.25-3.75h-7.5c-.63 0-1.125.5-1.125 1.125M20.61 8.24c.62 0 1.125.5 1.125 1.125v1.5c0 .62-.51 1.125-1.125 1.125m-17.25 0h7.5m-7.5 0c-.63 0-1.13.5-1.13 1.125v1.5c0 .62.504 1.125 1.125 1.125m8.625-4.88v-1.5m0 1.5c0 .62-.51 1.125-1.125 1.125m1.125-1.125c0 .62.5 1.125 1.125 1.125m-2.25 0c.62 0 1.125.5 1.125 1.125m1.125-1.13h7.5m-7.5 0c-.63 0-1.125.5-1.125 1.125M20.6 11.98c.62 0 1.125.5 1.125 1.125v1.5c0 .62-.51 1.125-1.125 1.125m-17.25 0h7.5m1.125-1.125v-1.5m0 1.5c0 .62-.51 1.125-1.125 1.125m1.125-1.125c0 .62.5 1.125 1.125 1.125m-2.25 0c.62 0 1.125.5 1.125 1.125m0 1.5v-1.5m0 0c0-.63.5-1.125 1.125-1.125m0 0h7.5"/></svg>