<svg viewBox="0 0 24 24" xmlns="http://www.w3.org/2000/svg"><path fill="none" stroke="#0F172A" stroke-linecap="round" stroke-linejoin="round" stroke-width="1.5" d="M3.37 19.5h17.25m-17.25 0c-.63 0-1.125-.51-1.125-1.125M3.36 19.5h7.5c.62 0 1.12-.51 1.12-1.125m-9.75 0V5.625m0 12.75v-1.5c0-.63.5-1.125 1.12-1.125m18.375 2.625V5.625m0 12.75c0 .62-.51 1.125-1.125 1.125m1.125-1.125v-1.5c0-.63-.51-1.125-1.125-1.125m0 3.75h-7.5c-.63 0-1.125-.51-1.125-1.125m9.75-12.75c0-.63-.51-1.125-1.125-1.125H3.35c-.63 0-1.125.5-1.125 1.12m19.5 0v1.5c0 .62-.51 1.12-1.125 1.12M2.23 5.61v1.5c0 .62.5 1.12 1.12 1.12m0 0H20.6m-17.25 0h7.5c.62 0 1.12.5 1.12 1.12M3.34 8.22c-.63 0-1.125.5-1.125 1.12v1.5c0 .62.5 1.12 1.12 1.12m17.25-3.75h-7.5c-.63 0-1.125.5-1.125 1.12M20.59 8.2c.62 0 1.125.5 1.125 1.12v1.5c0 .62-.51 1.12-1.125 1.12m-17.25 0h7.5m-7.5 0c-.63 0-1.125.5-1.125 1.125v1.5c0 .62.5 1.125 1.12 1.125m8.625-4.88v-1.5m0 1.5c0 .62-.51 1.12-1.13 1.12m1.12-1.13c0 .62.5 1.12 1.125 1.12m-2.25 0c.62 0 1.12.5 1.12 1.125m1.125-1.125h7.5m-7.5 0c-.63 0-1.125.5-1.125 1.125m8.625-1.125c.62 0 1.125.5 1.125 1.125v1.5c0 .62-.51 1.125-1.125 1.125m-17.25 0h7.5m1.12-1.125v-1.5m0 1.5c0 .62-.51 1.125-1.13 1.125m1.12-1.125c0 .62.5 1.125 1.125 1.125m-2.25 0c.62 0 1.12.5 1.12 1.125m0 1.5v-1.5m0 0c0-.63.5-1.125 1.125-1.125m0 0h7.5"/></svg>