<svg viewBox="0 0 24 24" xmlns="http://www.w3.org/2000/svg"><path fill="none" stroke="#0F172A" stroke-linecap="round" stroke-linejoin="round" stroke-width="1.5" d="M14.74 9l-.35 9M9.6 18l-.35-9m9.96-3.21c.34.05.68.1 1.02.16m-1.03-.17l-1.07 13.88c-.1 1.17-1.07 2.07-2.25 2.07H8.04c-1.18 0-2.16-.91-2.25-2.08L4.72 5.76m14.45 0c-1.15-.18-2.31-.31-3.48-.4m-12 .56c.33-.06.68-.12 1.02-.17m0 0c1.14-.18 2.3-.31 3.47-.4m7.5 0v-.92c0-1.18-.92-2.17-2.09-2.21 -.56-.02-1.11-.03-1.67-.03 -.56 0-1.11 0-1.67.02 -1.18.03-2.09 1.02-2.09 2.2v.91m7.5 0c-1.24-.1-2.49-.15-3.75-.15 -1.27 0-2.52.04-3.75.14"/></svg>