<svg viewBox="0 0 24 24" xmlns="http://www.w3.org/2000/svg"><path fill="none" stroke="#000" stroke-linecap="round" stroke-linejoin="round" stroke-width="1.5" d="M17.98 18.72v0c-1.42-1.88-3.64-2.98-5.99-2.98v0c-2.36-.01-4.57 1.09-5.99 2.97m11.96 0v0C21.67 15.4 22 9.71 18.7 6c-3.31-3.72-9-4.05-12.71-.75 -3.72 3.3-4.05 8.99-.75 12.7 .23.26.48.51.74.74m11.96 0v0c-1.65 1.46-3.78 2.27-5.99 2.27h-.001c-2.21 0-4.34-.81-5.99-2.28m8.98-8.98v0c0 1.65-1.35 3-3 3 -1.66 0-3-1.35-3-3v0c0-1.66 1.34-3 3-3 1.65 0 3 1.34 3 3Z"/></svg>