<svg viewBox="0 0 24 24" xmlns="http://www.w3.org/2000/svg"><path fill="none" stroke="#000" stroke-linecap="round" stroke-linejoin="round" stroke-width="1.5" d="M18 18.72h0c1.26.1 2.54-.06 3.74-.48v0c.13-1.66-1.1-3.1-2.75-3.24 -.69-.06-1.37.12-1.94.51m.94 3.19l0 .03c0 .22-.02.44-.04.66v-.001c-1.82 1.04-3.88 1.58-5.97 1.58 -2.17 0-4.207-.58-5.963-1.59h0c-.03-.24-.04-.47-.04-.7m12 0h-.001c-.01-1.14-.34-2.25-.95-3.2m0 0v0c-1.11-1.73-3.01-2.78-5.06-2.78v0C9.91 12.68 8 13.73 6.9 15.46m0 0l-.001 0c-1.37-.94-3.24-.59-4.17.78 -.39.56-.57 1.24-.52 1.93v-.001c1.19.42 2.47.58 3.74.47m.94-3.2h0c-.62.95-.94 2.06-.94 3.19m8.99-11.97v0c0 1.65-1.35 3-3 3 -1.66 0-3-1.35-3-3v0c0-1.66 1.34-3 3-3 1.65 0 3 1.34 3 3Zm6 3v0c0 1.24-1.01 2.25-2.25 2.25 -1.25 0-2.25-1.01-2.25-2.25v0c0-1.25 1-2.25 2.25-2.25 1.24 0 2.25 1 2.25 2.25Zm-13.5 0v0c0 1.24-1.01 2.25-2.25 2.25 -1.25 0-2.25-1.01-2.25-2.25v0c0-1.25 1-2.25 2.25-2.25 1.24 0 2.25 1 2.25 2.25Z"/></svg>