<svg viewBox="0 0 24 24" xmlns="http://www.w3.org/2000/svg"><g stroke-linecap="round" stroke-width="1.5" stroke="#000" fill="none" stroke-linejoin="round"><path d="M21.75 6.75v0c0 2.48-2.02 4.5-4.5 4.5 -.13 0-.26-.01-.39-.02 -1.08-.1-2.27.07-2.95.9l-7.16 8.68h-.001c-.9 1.08-2.5 1.24-3.59.35 -1.09-.9-1.25-2.5-.36-3.59 .1-.13.22-.25.35-.36l8.684-7.16c.83-.69.99-1.88.9-2.95l0 0c-.22-2.48 1.62-4.66 4.09-4.87 .76-.07 1.53.06 2.23.38L15.77 5.88v0c.25 1.11 1.13 1.99 2.25 2.25l3.27-3.276c.25.56.39 1.19.39 1.85Z"/><path d="M4.86 19.125h0v0h-.01v-.01Z"/></g></svg>