<svg viewBox="0 0 24 24" xmlns="http://www.w3.org/2000/svg"><g><path d="M11.7 2.8v0c.19-.09.4-.09.6-.001l0-.001c3.69 1.61 7.22 3.59 10.53 5.91v0c.33.23.42.7.18 1.04 -.11.14-.25.24-.42.29l-.001 0c-3.44.94-6.76 2.25-9.91 3.91l-.01 0 -.34.18v0c-.23.11-.49.11-.71 0l-.001-.001c-1.36-.73-2.74-1.39-4.15-1.98v-.23c0-.14.06-.25.17-.32l-.001 0c1.5-.92 3.06-1.76 4.65-2.52h-.001c.37-.18.53-.63.35-1.01 -.18-.38-.63-.54-1.01-.36l0 0c-1.64.78-3.23 1.64-4.78 2.58v0c-.45.27-.76.71-.859 1.22l-.001 0c-1.52-.59-3.07-1.1-4.64-1.53h0c-.4-.12-.64-.53-.53-.93 .04-.17.14-.32.29-.42L1.1 8.62C4.4 6.3 7.93 4.32 11.62 2.7Z"/><path d="M13.06 15.47l0-.001c2.45-1.32 5.02-2.42 7.66-3.29 .13 1.41.22 2.843.25 4.28v0c0 .3-.18.59-.46.71l-.001 0c-2.84 1.18-5.55 2.63-8.11 4.34v0c-.26.16-.59.16-.84 0l0-.001c-2.56-1.71-5.27-3.16-8.11-4.35H3.44c-.29-.12-.47-.41-.47-.71 .03-1.45.121-2.87.25-4.29l-.001 0c.91.3 1.82.63 2.72.99v1.27 0c-.72.41-.97 1.33-.56 2.04 .1.17.24.33.41.45 -.09.38-.23.75-.4 1.11 .45.21.9.43 1.346.66v0c.25-.52.43-1.06.55-1.61H7.29c.75-.34 1.09-1.23.76-1.99 -.13-.29-.35-.54-.63-.69v-.65l0 0c1.16.51 2.31 1.06 3.44 1.66v0c.66.35 1.45.35 2.12 0Z"/><path d="M4.462 19.46c.42-.42.75-.89 1-1.4 .45.21.9.43 1.34.66H6.8c-.33.66-.77 1.27-1.29 1.79H5.51c-.29.3-.76.31-1.06.03 -.31-.29-.32-.76-.04-1.06 .01-.02.02-.03.03-.04Z"/></g></svg>