<svg viewBox="0 0 24 24" xmlns="http://www.w3.org/2000/svg"><g fill="#0F172A"><path d="M11.69 2.8c.19-.09.4-.09.6 0C16 4.42 19.53 6.41 22.81 8.71c.23.16.35.45.3.74 -.05.28-.26.51-.54.59 -.69.18-1.37.39-2.04.6 -2.74.88-5.36 1.98-7.87 3.3l-.01 0c-.12.05-.23.11-.34.18 -.23.11-.49.11-.71 0 -.12-.07-.23-.13-.35-.19 -1.24-.65-2.51-1.25-3.81-1.8v-.23c0-.14.06-.25.17-.32 1.5-.92 3.05-1.76 4.65-2.52 .37-.18.53-.63.35-1.01 -.18-.38-.63-.54-1.01-.36 -1.64.78-3.24 1.65-4.79 2.58 -.46.27-.76.72-.86 1.22 -.86-.33-1.73-.64-2.6-.92 -.68-.22-1.36-.43-2.04-.61 -.28-.08-.5-.31-.54-.6 -.05-.29.07-.58.3-.75C4.35 6.3 7.88 4.32 11.59 2.69Z"/><path d="M13.06 15.47c2.43-1.31 5-2.41 7.66-3.29 .13 1.41.22 2.84.25 4.28 0 .3-.18.59-.47.71 -2.86 1.19-5.57 2.64-8.11 4.34 -.26.16-.58.16-.84 0 -2.55-1.7-5.26-3.16-8.11-4.35 -.29-.12-.47-.41-.47-.72 .03-1.45.12-2.88.25-4.29 .92.3 1.82.63 2.72.99v1.27c-.45.25-.75.74-.75 1.29 0 .49.24.93.61 1.2 -.09.38-.23.75-.4 1.1 .45.21.9.43 1.34.66 .25-.52.43-1.06.55-1.61 .52-.24.88-.76.88-1.38 0-.56-.31-1.04-.75-1.3v-.65c1.17.51 2.31 1.06 3.44 1.66 .66.35 1.45.35 2.12 0Z"/><path d="M4.46 19.46c.41-.42.75-.9 1-1.4 .45.21.9.43 1.34.66 -.32.64-.75 1.25-1.29 1.79 -.3.29-.77.29-1.07 0 -.3-.3-.3-.77 0-1.07Z"/></g></svg>