<svg viewBox="0 0 24 24" xmlns="http://www.w3.org/2000/svg"><g fill="#0F172A"><path d="M6 12c-.42 0-.75-.34-.75-.75l0-7.5c0-.42.33-.75.75-.75 .41 0 .75.33.75.75l-.01 7.5c0 .41-.34.75-.75.75Z"/><path d="M18 12c-.42 0-.75-.34-.75-.75v-7.5c0-.42.33-.75.75-.75 .41 0 .75.33.75.75v7.5c0 .41-.34.75-.75.75Z"/><path d="M6.75 20.25l-.01-1.5c0-.42-.34-.75-.76-.75s-.75.33-.75.75l0 1.5c0 .41.33.75.75.75 .41 0 .75-.34.74-.75Z"/><path d="M18.75 18.75v1.5c0 .41-.34.75-.75.75 -.42 0-.75-.34-.75-.75v-1.5c0-.42.33-.75.75-.75 .41 0 .75.33.75.75Z"/><path d="M12.75 5.24v-1.5c0-.42-.34-.75-.75-.75 -.42 0-.75.33-.75.75v1.5c0 .41.33.74.75.74 .41 0 .75-.34.75-.76Z"/><path d="M12 21c-.42 0-.75-.34-.75-.75v-7.5c0-.42.33-.75.75-.75 .41 0 .75.33.75.75v7.5c0 .41-.34.75-.75.75Z"/><path d="M3.75 15c0 1.24 1 2.25 2.25 2.25 1.24 0 2.25-1.01 2.25-2.25 0-1.25-1.01-2.25-2.25-2.25 -1.25 0-2.25 1-2.25 2.25Z"/><path d="M12 11.25c-1.25 0-2.25-1.01-2.25-2.25 0-1.25 1-2.25 2.25-2.25 1.24 0 2.25 1 2.25 2.25 0 1.24-1.01 2.25-2.25 2.25Z"/><path d="M15.75 15c0 1.24 1 2.25 2.25 2.25 1.24 0 2.25-1.01 2.25-2.25 0-1.25-1.01-2.25-2.25-2.25 -1.25 0-2.25 1-2.25 2.25Z"/></g></svg>