<svg viewBox="0 0 24 24" xmlns="http://www.w3.org/2000/svg"><g><path d="M3.37 3c-1.036 0-1.88.84-1.88 1.875v.75c0 1.03.84 1.875 1.875 1.875h17.25c1.03 0 1.875-.84 1.875-1.875v-.75C22.49 3.835 21.65 3 20.61 3H3.36Z"/><path fill-rule="evenodd" d="M3.08 9l.54 9.17h0c.09 1.58 1.4 2.82 2.99 2.82h10.757v0c1.58 0 2.9-1.24 2.99-2.83l.54-9.18H3.07Zm8.913 1.5v0c.41 0 .75.33.75.75v4.94l1.72-1.72 -.001-.001c.28-.31.75-.32 1.06-.04 .3.28.31.75.03 1.06 -.02.01-.03.02-.04.03l-3 3v0c-.3.29-.77.29-1.06 0l-3-3v-.001c-.31-.29-.32-.76-.04-1.06 .28-.31.75-.32 1.06-.04 .01.01.02.02.03.03l1.72 1.72v-4.94 0c0-.42.33-.75.75-.75Z"/></g></svg>