<svg viewBox="0 0 24 24" xmlns="http://www.w3.org/2000/svg"><g><path d="M3.37 3c-1.036 0-1.88.84-1.88 1.875v.75c0 1.03.84 1.875 1.875 1.875h17.25c1.03 0 1.875-.84 1.875-1.875v-.75C22.49 3.835 21.65 3 20.61 3H3.36Z"/><path fill-rule="evenodd" d="M3.08 9l.54 9.17h0c.09 1.58 1.4 2.82 2.99 2.82h10.757v0c1.58 0 2.9-1.24 2.99-2.83l.54-9.18H3.07Zm6.13 2.84H9.2c.29-.3.76-.3 1.06 0l1.72 1.72 1.72-1.72h0c.28-.31.75-.32 1.06-.04 .3.28.31.75.03 1.06 -.02.01-.03.02-.04.03l-1.72 1.72 1.72 1.72h-.001c.3.28.31.75.03 1.06 -.29.3-.76.31-1.06.03 -.02-.02-.03-.03-.04-.04l-1.72-1.72 -1.72 1.72v0c-.29.3-.76.31-1.06.03 -.31-.29-.32-.76-.04-1.06 .01-.02.02-.03.03-.04l1.72-1.72 -1.72-1.72v0c-.3-.3-.3-.77 0-1.06Z"/></g></svg>