<svg viewBox="0 0 24 24" xmlns="http://www.w3.org/2000/svg"><g fill="#0F172A"><path d="M3.37 3c-1.04 0-1.88.83-1.88 1.875v.75c0 1.03.83 1.87 1.87 1.87h17.25c1.03 0 1.875-.84 1.875-1.88v-.75c0-1.04-.84-1.875-1.875-1.875H3.36Z"/><path fill="#0F172A" fill-rule="evenodd" d="M3.08 9l.53 9.17c.09 1.58 1.4 2.82 2.99 2.82h10.75c1.58 0 2.9-1.24 2.99-2.83l.53-9.18H3.04Zm6.13 2.84c.29-.3.76-.3 1.06 0l1.71 1.71 1.71-1.72c.29-.3.76-.3 1.06 0 .29.29.29.76 0 1.06l-1.72 1.71 1.71 1.71c.29.29.29.76 0 1.06 -.3.29-.77.29-1.07 0l-1.72-1.72 -1.72 1.71c-.3.29-.77.29-1.07 0 -.3-.3-.3-.77 0-1.07l1.71-1.72 -1.72-1.72c-.3-.3-.3-.77 0-1.07Z"/></g></svg>