<svg viewBox="0 0 24 24" xmlns="http://www.w3.org/2000/svg"><path fill-rule="evenodd" d="M9.75 6.75h-3v0c-1.66 0-3 1.34-3 3v7.5 0c0 1.65 1.34 3 3 3h7.5v0c1.65 0 3-1.35 3-3v-7.5 0c0-1.66-1.35-3-3-3h-3V1.5v0c0-.42-.34-.75-.75-.75 -.42 0-.75.33-.75.75v5.25Zm0 0h1.5v5.69l1.72-1.72v0c.28-.31.75-.32 1.06-.04 .3.28.31.75.03 1.06 -.02.01-.03.02-.04.03l-3 3v0c-.3.29-.77.29-1.06 0l-3-3 -.001 0c-.31-.29-.32-.76-.04-1.06 .28-.31.75-.32 1.06-.04 .01.01.02.02.03.03l1.72 1.72V6.73Z"/><path d="M7.151 21.75h0c.53.92 1.52 1.5 2.59 1.5h7.5v0c1.65 0 3-1.35 3-3v-7.5c0-1.11-.61-2.08-1.5-2.599v7.099 0c0 2.48-2.02 4.5-4.5 4.5H7.14Z"/></svg>