<svg viewBox="0 0 24 24" xmlns="http://www.w3.org/2000/svg"><path fill-rule="evenodd" d="M15.22 6.26h-.001c.14-.39.58-.58.96-.44l5.94 2.28v-.001c.38.14.57.58.43.96 -.01 0-.01 0-.01 0l-2.28 5.94v0c-.14.39-.57.59-.96.45 -.4-.14-.6-.57-.46-.96 0-.02 0-.03.01-.04l1.63-4.26 -1.09.48v0c-2.36 1.04-4.29 2.87-5.45 5.17h-.001c-.19.36-.64.51-1.01.32 -.08-.04-.14-.09-.2-.14l-3.78-3.78 -6.22 6.22H2.72c-.29.3-.76.31-1.06.03 -.31-.29-.32-.76-.04-1.06 .01-.02.02-.03.03-.04l6.75-6.75v0c.29-.3.76-.3 1.06-.001l3.606 3.6h-.001c1.34-2.2 3.32-3.93 5.68-4.98l1.08-.49 -4.26-1.64 0 0c-.39-.15-.59-.59-.44-.97 0-.01 0-.01 0-.01Z"/></svg>