<svg viewBox="0 0 24 24" xmlns="http://www.w3.org/2000/svg"><g fill="#0F172A"><path d="M9.96.96c.29-.3.76-.3 1.06 0l3 3c.29.29.29.76 0 1.06 -.3.29-.77.29-1.07 0L11.23 3.3v3.43h-1.5V3.29L8.01 5c-.3.29-.77.29-1.07 0 -.3-.3-.3-.77 0-1.07l3-3Z"/><path d="M9.75 6.75v6c0 .41.33.75.75.75 .41 0 .75-.34.75-.75v-6h3c1.65 0 3 1.34 3 3v7.5c0 1.65-1.35 3-3 3h-7.5c-1.66 0-3-1.35-3-3v-7.5c0-1.66 1.34-3 3-3h3Z"/><path d="M7.15 21.75c.51.89 1.48 1.5 2.59 1.5h7.49c1.65 0 3-1.35 3-3v-7.5c0-1.12-.61-2.08-1.5-2.6v7.09c0 2.48-2.02 4.5-4.5 4.5h-7.1Z"/></g></svg>