<svg viewBox="0 0 24 24" xmlns="http://www.w3.org/2000/svg"><path fill="#0F172A" fill-rule="evenodd" d="M12 5.25c-1.22 0-2.42.04-3.61.13 -1.62.12-2.89 1.39-3.01 3 -.05.58-.08 1.16-.11 1.75l1.68-1.69c.29-.3.76-.3 1.06 0 .29.29.29.76 0 1.06l-3 2.99c-.3.29-.77.29-1.07 0l-3-3c-.3-.3-.3-.77 0-1.07 .29-.3.76-.3 1.06 0l1.75 1.75c.02-.65.05-1.3.1-1.94 .17-2.36 2.03-4.22 4.39-4.4 1.22-.1 2.46-.14 3.71-.14s2.49.04 3.71.13c2.35.17 4.21 2.03 4.39 4.39 .01.22.03.44.04.67 .02.41-.29.76-.71.79 -.42.02-.77-.29-.8-.71 -.02-.22-.03-.44-.05-.66 -.13-1.62-1.4-2.89-3.01-3.01 -1.19-.09-2.4-.14-3.61-.14Zm6.96 6.21c.29-.3.76-.3 1.06 0l3 3c.29.29.29.76 0 1.06 -.3.29-.77.29-1.07 0l-1.76-1.76c-.03.64-.06 1.29-.11 1.93 -.18 2.35-2.04 4.21-4.4 4.39 -1.23.09-2.47.13-3.72.13 -1.26 0-2.5-.05-3.72-.14 -2.36-.18-4.22-2.04-4.4-4.4 -.02-.23-.04-.45-.05-.68 -.03-.42.28-.77.7-.8 .41-.03.76.28.79.7 .01.21.02.43.04.65 .12 1.61 1.39 2.88 3 3 1.18.08 2.39.13 3.6.13s2.41-.05 3.6-.14c1.61-.13 2.88-1.4 3-3.01 .04-.59.07-1.17.1-1.76l-1.69 1.68c-.3.29-.77.29-1.07 0 -.3-.3-.3-.77 0-1.07l3-3Z"/></svg>