<svg viewBox="0 0 24 24" xmlns="http://www.w3.org/2000/svg"><path fill="#0F172A" fill-rule="evenodd" d="M11.46 2.46c.29-.3.76-.3 1.06 0l4.5 4.5c.29.29.29.76 0 1.06 -.3.29-.77.29-1.07 0L12.73 4.8v11.68c0 .41-.34.75-.75.75 -.42 0-.75-.34-.75-.75V4.79L8.01 8c-.3.29-.77.29-1.07 0 -.3-.3-.3-.77 0-1.07l4.5-4.5ZM2.99 15.74c.41 0 .75.33.75.75v2.25c0 .82.67 1.5 1.5 1.5h13.5c.82 0 1.5-.68 1.5-1.5v-2.25c0-.42.33-.75.75-.75 .41 0 .75.33.75.75v2.25c0 1.65-1.35 3-3 3H5.24c-1.66 0-3-1.35-3-3v-2.25c0-.42.33-.75.75-.75Z"/></svg>