<svg viewBox="0 0 24 24" xmlns="http://www.w3.org/2000/svg"><path fill="#0F172A" fill-rule="evenodd" d="M12 2.25c.41 0 .75.33.75.75v11.68l3.21-3.22c.29-.3.76-.3 1.06 0 .29.29.29.76 0 1.06l-4.5 4.5c-.3.29-.77.29-1.07 0l-4.51-4.5c-.3-.3-.3-.77 0-1.07 .29-.3.76-.3 1.06 0l3.21 3.21V2.97c0-.42.33-.75.75-.75Zm-9 13.5c.41 0 .75.33.75.75v2.25c0 .82.67 1.5 1.5 1.5h13.5c.82 0 1.5-.68 1.5-1.5V16.5c0-.42.33-.75.75-.75 .41 0 .75.33.75.75v2.25c0 1.65-1.35 3-3 3H5.25c-1.66 0-3-1.35-3-3V16.5c0-.42.33-.75.75-.75Z"/></svg>