<svg viewBox="0 0 24 24" xmlns="http://www.w3.org/2000/svg"><path fill="#0F172A" fill-rule="evenodd" d="M2.51 10.67c-.74.73-.74 1.91-.01 2.65l6.37 6.375c.35.35.82.54 1.32.54h9.284c1.65 0 3-1.35 3-3V6.73c0-1.66-1.35-3-3-3H10.19c-.5 0-.98.19-1.33.54l-6.38 6.37Zm10.01-1.46c-.3-.3-.77-.3-1.07 0 -.3.29-.3.76 0 1.06l1.71 1.71 -1.72 1.71c-.3.29-.3.76 0 1.06 .29.29.76.29 1.06 0l1.71-1.72 1.71 1.71c.29.29.76.29 1.06 0 .29-.3.29-.77 0-1.07l-1.72-1.72 1.71-1.72c.29-.3.29-.77 0-1.07 -.3-.3-.77-.3-1.07 0l-1.72 1.71 -1.72-1.72Z"/></svg>