<svg viewBox="0 0 24 24" xmlns="http://www.w3.org/2000/svg"><g><path d="M12 7.5v0c-1.25 0-2.25 1-2.25 2.25 0 1.24 1 2.25 2.25 2.25v0c1.24 0 2.25-1.01 2.25-2.25 0-1.25-1.01-2.25-2.25-2.25Z"/><path fill-rule="evenodd" d="M1.5 4.875C1.5 3.835 2.34 3 3.37 3h17.25c1.03 0 1.875.84 1.875 1.875v9.75c0 1.03-.84 1.875-1.875 1.875H3.37v0c-1.04 0-1.88-.84-1.875-1.875v-9.75ZM8.25 9.75v0C8.25 7.67 9.92 6 12 6c2.07 0 3.75 1.67 3.75 3.75v0c0 2.07-1.68 3.75-3.75 3.75 -2.08 0-3.75-1.68-3.75-3.75ZM18.75 9v0c-.42 0-.75.33-.75.75v0c0 .41.33.75.75.75h0v0c.41 0 .75-.34.75-.75v-.01 0c0-.42-.34-.75-.75-.75h-.01ZM4.5 9.75v0c0-.42.33-.75.75-.75h0v0c.41 0 .75.33.75.75v0 0c0 .41-.34.75-.75.75h-.01v0c-.42 0-.75-.34-.75-.75v-.01Z"/><path d="M2.25 18v0c-.42 0-.75.33-.75.75 0 .41.33.75.75.75 5.4 0 10.63.72 15.6 2.07 1.19.32 2.4-.56 2.4-1.82v-1.01 0c0-.42-.34-.75-.75-.75H2.25Z"/></g></svg>