<svg viewBox="0 0 24 24" xmlns="http://www.w3.org/2000/svg"><path fill="#0F172A" fill-rule="evenodd" d="M3 5.25c0-.42.33-.75.75-.75h16.5c.41 0 .75.33.75.75 0 .41-.34.75-.75.75H3.75C3.33 6 3 5.66 3 5.25Zm0 4.5c0-.42.33-.75.75-.75h16.5c.41 0 .75.33.75.75 0 .41-.34.75-.75.75H3.75c-.42 0-.75-.34-.75-.75Zm0 4.5c0-.42.33-.75.75-.75h16.5c.41 0 .75.33.75.75 0 .41-.34.75-.75.75H3.75c-.42 0-.75-.34-.75-.75Zm0 4.5c0-.42.33-.75.75-.75h16.5c.41 0 .75.33.75.75 0 .41-.34.75-.75.75H3.75c-.42 0-.75-.34-.75-.75Z"/></svg>