<svg viewBox="0 0 24 24" xmlns="http://www.w3.org/2000/svg"><path fill-rule="evenodd" d="M3 5.25v0c0-.42.33-.75.75-.75h16.5v0c.41 0 .75.33.75.75 0 .41-.34.75-.75.75H3.75v0C3.33 6 3 5.66 3 5.25Zm0 4.5v0c0-.42.33-.75.75-.75h16.5v0c.41 0 .75.33.75.75 0 .41-.34.75-.75.75H3.75v0c-.42 0-.75-.34-.75-.75Zm0 4.5v0c0-.42.33-.75.75-.75h16.5v0c.41 0 .75.33.75.75 0 .41-.34.75-.75.75H3.75v0c-.42 0-.75-.34-.75-.75Zm0 4.5v0c0-.42.33-.75.75-.75h16.5v0c.41 0 .75.33.75.75 0 .41-.34.75-.75.75H3.75v0c-.42 0-.75-.34-.75-.75Z"/></svg>