<svg viewBox="0 0 24 24" xmlns="http://www.w3.org/2000/svg"><path fill-rule="evenodd" d="M10.5 3.79v5.02 -.001c-.01.79-.32 1.55-.88 2.12l-2.38 2.37v-.001c1.75-.13 3.51.22 5.09 1.013v0c1.76.88 3.79 1.1 5.71.63l.28-.08 -3.96-3.955V10.9c-.57-.57-.88-1.33-.88-2.13V3.75 3.75c-1-.07-2.01-.07-3 0Zm4.5.13v0c.41 0 .75-.33.75-.75 0-.39-.29-.71-.67-.76v0c-1.03-.13-2.06-.2-3.093-.2v0c-1.04-.01-2.07.06-3.093.19v0c-.42.04-.71.41-.66.83 .04.38.36.66.75.66v4.882 0c-.01.39-.16.77-.44 1.06l-6.3 6.29c-1.62 1.62-.903 4.47 1.471 4.88 2.686.46 5.44.69 8.262.69 2.81 0 5.57-.24 8.262-.7 2.37-.41 3.09-3.26 1.47-4.881l-6.3-6.3v0c-.29-.29-.44-.67-.44-1.07v-4.89Z"/></svg>