<svg viewBox="0 0 24 24" xmlns="http://www.w3.org/2000/svg"><path fill-rule="evenodd" d="M12 2.25v0C8.27 2.25 5.25 5.27 5.25 9v.75 0c0 2.03-.76 4-2.12 5.52h-.001c-.28.3-.26.78.05 1.05 .07.06.15.11.24.14 1.54.57 3.16.99 4.83 1.24v0c-.16 2.06 1.4 3.86 3.46 4.01 2.06.15 3.86-1.41 4.01-3.47 .01-.19.01-.37 0-.55l-.001 0c1.64-.25 3.26-.67 4.83-1.25v0c.38-.15.58-.58.44-.97 -.04-.09-.09-.18-.15-.25v0c-1.37-1.52-2.13-3.49-2.12-5.52v-.75 0c0-3.73-3.03-6.75-6.75-6.75ZM9.75 18c0-.04 0-.07 0-.1l0 0c1.49.13 3 .13 4.49 0l0 .1v0c0 1.24-1.01 2.25-2.25 2.25 -1.25 0-2.25-1.01-2.25-2.25Zm.75-10.5v0c-.42 0-.75.33-.75.75 0 .41.33.75.75.75h1.59l-2.23 3.33v-.001c-.23.34-.14.81.2 1.04 .12.08.26.12.41.12h3v0c.41 0 .75-.34.75-.75 0-.42-.34-.75-.75-.75h-1.6l2.22-3.34h0c.22-.35.13-.82-.21-1.05 -.13-.09-.27-.13-.42-.13h-3Z"/></svg>