<svg viewBox="0 0 24 24" xmlns="http://www.w3.org/2000/svg"><path fill="#0F172A" fill-rule="evenodd" d="M5.25 8.99c0-3.73 3.02-6.75 6.74-6.75s6.75 3.02 6.75 6.75l-.01.04v.7c0 2.12.8 4.05 2.11 5.51 .16.18.23.44.17.68 -.06.24-.24.43-.47.52 -1.55.57-3.17.99-4.84 1.24 0 .09.01.18.01.28 0 2.07-1.68 3.75-3.75 3.75 -2.08 0-3.75-1.68-3.75-3.75 0-.1 0-.19.01-.29 -1.68-.26-3.29-.68-4.84-1.25 -.24-.09-.41-.29-.47-.53 -.06-.25 0-.5.17-.69 1.31-1.47 2.11-3.4 2.11-5.52l0-.76Zm4.5 8.89c-.01.03-.01.06-.01.1 0 1.24 1 2.25 2.24 2.25 1.24 0 2.25-1.01 2.25-2.25 0-.04-.01-.07-.01-.11 -.75.06-1.5.1-2.25.1 -.76 0-1.51-.04-2.25-.11Z"/></svg>