<svg viewBox="0 0 24 24" xmlns="http://www.w3.org/2000/svg"><path fill="#0F172A" fill-rule="evenodd" d="M7.5 5.25c0-1.66 1.34-3 3-3h3c1.65 0 3 1.34 3 3v.2c.93.08 1.85.19 2.77.33 1.45.21 2.47 1.48 2.47 2.91v3.03c0 1.21-.74 2.35-1.94 2.75 -2.46.81-5.09 1.25-7.82 1.25 -2.73 0-5.36-.45-7.82-1.26 -1.21-.4-1.94-1.55-1.94-2.76V8.66c0-1.44 1.02-2.7 2.47-2.92 .91-.14 1.84-.25 2.77-.34v-.21Zm7.5 0v.09c-1-.07-2-.1-3-.1 -1.01 0-2.01.03-3 .09v-.1c0-.83.67-1.5 1.5-1.5h3c.82 0 1.5.67 1.5 1.5Zm-3 8.25c.41 0 .75-.34.75-.75 0-.42-.34-.75-.75-.75 -.42 0-.75.33-.75.75 0 .41.33.75.75.75Z"/><path fill="#0F172A" d="M3 18.4v-2.8c.22.12.46.22.71.31 2.6.86 5.39 1.33 8.28 1.33 2.89 0 5.67-.47 8.28-1.34 .25-.09.49-.19.71-.32v2.79c0 1.45-1.05 2.72-2.53 2.92 -2.12.28-4.29.42-6.48.42 -2.2 0-4.36-.15-6.48-.43 -1.48-.2-2.53-1.48-2.53-2.93Z"/></svg>