<svg viewBox="0 0 24 24" xmlns="http://www.w3.org/2000/svg"><g fill="#0F172A" fill-rule="evenodd"><path d="M3 2.25c-.42 0-.75.33-.75.75 0 .41.33.75.75.75v16.5h-.75c-.42 0-.75.33-.75.75 0 .41.33.75.75.75H15v-18c.41 0 .75-.34.75-.75 0-.42-.34-.75-.75-.75H3ZM6.75 19.5v-2.25c0-.42.33-.75.75-.75h3c.41 0 .75.33.75.75v2.25c0 .41-.34.75-.75.75h-3c-.42 0-.75-.34-.75-.75ZM6 6.75c0-.42.33-.75.75-.75h.75c.41 0 .75.33.75.75 0 .41-.34.75-.75.75h-.75c-.42 0-.75-.34-.75-.75ZM6.75 9c-.42 0-.75.33-.75.75 0 .41.33.75.75.75h.75c.41 0 .75-.34.75-.75 0-.42-.34-.75-.75-.75h-.75ZM6 12.75c0-.42.33-.75.75-.75h.75c.41 0 .75.33.75.75 0 .41-.34.75-.75.75h-.75c-.42 0-.75-.34-.75-.75ZM10.5 6c-.42 0-.75.33-.75.75 0 .41.33.75.75.75h.75c.41 0 .75-.34.75-.75 0-.42-.34-.75-.75-.75h-.75Zm-.75 3.75c0-.42.33-.75.75-.75h.75c.41 0 .75.33.75.75 0 .41-.34.75-.75.75h-.75c-.42 0-.75-.34-.75-.75ZM10.5 12c-.42 0-.75.33-.75.75 0 .41.33.75.75.75h.75c.41 0 .75-.34.75-.75 0-.42-.34-.75-.75-.75h-.75Z"/><path d="M16.5 6.75v15h5.25c.41 0 .75-.34.75-.75 0-.42-.34-.75-.75-.75H21v-12c.41 0 .75-.34.75-.75 0-.42-.34-.75-.75-.75h-4.5Zm1.5 4.5c0-.42.33-.75.75-.75h0c.41 0 .75.33.75.75v0c0 .41-.34.75-.75.75h-.01c-.42 0-.75-.34-.75-.75v-.01Zm.75 2.25c-.42 0-.75.33-.75.75v0c0 .41.33.75.75.75h0c.41 0 .75-.34.75-.75v-.01c0-.42-.34-.75-.75-.75h-.01ZM18 17.25c0-.42.33-.75.75-.75h0c.41 0 .75.33.75.75v0c0 .41-.34.75-.75.75h-.01c-.42 0-.75-.34-.75-.75v-.01Z"/></g></svg>