<svg viewBox="0 0 24 24" xmlns="http://www.w3.org/2000/svg"><path fill="#0F172A" fill-rule="evenodd" d="M4.5 2.25c-.42 0-.75.33-.75.75 0 .41.33.75.75.75v16.5h-.75c-.42 0-.75.33-.75.75 0 .41.33.75.75.75h16.5c.41 0 .75-.34.75-.75 0-.42-.34-.75-.75-.75h-.75V3.75c.41 0 .75-.34.75-.75 0-.42-.34-.75-.75-.75h-15ZM9 6c-.42 0-.75.33-.75.75 0 .41.33.75.75.75h1.5c.41 0 .75-.34.75-.75 0-.42-.34-.75-.75-.75H9Zm-.75 3.75c0-.42.33-.75.75-.75h1.5c.41 0 .75.33.75.75 0 .41-.34.75-.75.75H9c-.42 0-.75-.34-.75-.75ZM9 12c-.42 0-.75.33-.75.75 0 .41.33.75.75.75h1.5c.41 0 .75-.34.75-.75 0-.42-.34-.75-.75-.75H9Zm3.75-5.25c0-.42.33-.75.75-.75H15c.41 0 .75.33.75.75 0 .41-.34.75-.75.75h-1.5c-.42 0-.75-.34-.75-.75ZM13.5 9c-.42 0-.75.33-.75.75 0 .41.33.75.75.75H15c.41 0 .75-.34.75-.75 0-.42-.34-.75-.75-.75h-1.5Zm-.75 3.75c0-.42.33-.75.75-.75H15c.41 0 .75.33.75.75 0 .41-.34.75-.75.75h-1.5c-.42 0-.75-.34-.75-.75ZM9 19.5v-2.25c0-.42.33-.75.75-.75h4.5c.41 0 .75.33.75.75v2.25c0 .41-.34.75-.75.75h-4.5c-.42 0-.75-.34-.75-.75Z"/></svg>