<svg viewBox="0 0 24 24" xmlns="http://www.w3.org/2000/svg"><g fill="#0F172A"><path d="M5.22 2.25c-.5 0-.98.19-1.33.54l-1.3 1.29c-1.47 1.46-1.47 3.83 0 5.3 1.33 1.33 3.43 1.45 4.9.34 .62.47 1.4.74 2.24.74 .84 0 1.62-.28 2.25-.75 .62.47 1.4.74 2.25.74 .84 0 1.62-.28 2.24-.75 1.46 1.1 3.56.98 4.9-.35 1.46-1.47 1.46-3.84 0-5.31l-1.3-1.3c-.36-.36-.83-.55-1.33-.55H5.18Z"/><path fill="#0F172A" fill-rule="evenodd" d="M3 20.25v-8.76c1.42.67 3.07.67 4.5-.01 .68.32 1.44.5 2.24.5 .8 0 1.56-.19 2.25-.51 .68.32 1.44.5 2.25.5 .8 0 1.56-.19 2.24-.51 1.42.67 3.08.67 4.5 0v8.75h.75c.41 0 .75.33.75.75 0 .41-.34.75-.75.75H2.23c-.42 0-.75-.34-.75-.75 0-.42.33-.75.75-.75h.75Zm3-6c0-.42.33-.75.75-.75h3c.41 0 .75.33.75.75v3c0 .41-.34.75-.75.75h-3c-.42 0-.75-.34-.75-.75v-3Zm8.25-.75c-.42 0-.75.33-.75.75v5.25c0 .41.33.75.75.75h3c.41 0 .75-.34.75-.75v-5.25c0-.42-.34-.75-.75-.75h-3Z"/></g></svg>