<svg viewBox="0 0 24 24" xmlns="http://www.w3.org/2000/svg"><path d="M15 1.78l-.8.79h0c-.44.43-.44 1.15 0 1.59 .43.43 1.15.43 1.59-.01 .43-.44.43-1.16 0-1.6l-.8-.8Zm-3 0l-.8.79h0c-.44.43-.44 1.15 0 1.59 .43.43 1.15.43 1.59-.01 .43-.44.43-1.16 0-1.6l-.8-.8Zm-3 0l-.8.79v0c-.44.43-.44 1.15 0 1.59 .43.43 1.15.43 1.59-.01 .43-.44.43-1.16 0-1.6l-.8-.8Zm.75 5.763c.49-.02.99-.04 1.5-.05v-.76 0c0-.42.33-.75.75-.75 .41 0 .75.33.75.75v.75c.5 0 1 .02 1.5.04v-.8 0c0-.42.33-.75.75-.75 .41 0 .75.33.75.75v.88l.3.02c1.55.11 2.69 1.42 2.69 2.94v1.01 0c-4.49-.49-9.02-.49-13.5 0v-1.02c0-1.52 1.14-2.83 2.69-2.95l.3-.03v-.88 0c0-.42.33-.75.75-.75 .41 0 .75.33.75.75v.79Zm2.25 5.2c-2.48 0-4.9.18-7.28.54 -1.46.21-2.48 1.48-2.48 2.91v.38l-.001-.001c.87-.17 1.78-.04 2.58.36v0c.73.36 1.59.36 2.33 0h0c1.15-.58 2.51-.58 3.67 0v0c.73.36 1.59.36 2.33 0h-.001c1.15-.58 2.51-.58 3.67 0v0c.73.36 1.59.36 2.33 0h-.001c.79-.4 1.7-.53 2.58-.37v-.39c0-1.44-1.03-2.7-2.48-2.917l-.001-.001c-2.41-.36-4.84-.54-7.28-.54Zm9.75 5.38l-.001-.001c-.64-.2-1.33-.14-1.92.16h0c-1.16.57-2.52.57-3.67 0v0c-.74-.37-1.6-.37-2.33 0v0c-1.16.57-2.52.57-3.67 0v0c-.74-.37-1.6-.37-2.33 0v0c-1.16.57-2.52.57-3.67 0h0c-.6-.3-1.28-.36-1.92-.17v2.49c0 1.03.84 1.875 1.875 1.875h15.75c1.03 0 1.875-.84 1.875-1.875v-2.5Z"/></svg>