<svg viewBox="0 0 24 24" xmlns="http://www.w3.org/2000/svg"><path fill="#0F172A" fill-rule="evenodd" d="M6.32 1.82c1.86-.22 3.75-.33 5.67-.33s3.81.11 5.67.32c1.49.17 2.57 1.45 2.57 2.92v14.74c0 1.65-1.35 3-3 3H6.73c-1.66 0-3-1.35-3-3V4.72c0-1.47 1.07-2.76 2.57-2.93Zm1.17 9.42c0-.42.33-.75.75-.75h0c.41 0 .75.33.75.75v0c0 .41-.34.75-.75.75h-.01c-.42 0-.75-.34-.75-.75v-.01Zm.75 1.5c-.42 0-.75.33-.75.75v0c0 .41.33.75.75.75h0c.41 0 .75-.34.75-.75v-.01c0-.42-.34-.75-.75-.75h-.01Zm-.75 3c0-.42.33-.75.75-.75h0c.41 0 .75.33.75.75v0c0 .41-.34.75-.75.75h-.01c-.42 0-.75-.34-.75-.75v-.01Zm.75 1.5c-.42 0-.75.33-.75.75v0c0 .41.33.75.75.75h0c.41 0 .75-.34.75-.75v-.01c0-.42-.34-.75-.75-.75h-.01Zm1.74-6c0-.42.33-.75.75-.75h0c.41 0 .75.33.75.75v0c0 .41-.34.75-.75.75h-.01c-.42 0-.76-.34-.76-.75v-.01Zm.75 1.5c-.42 0-.76.33-.76.75v0c0 .41.33.75.75.75h0c.41 0 .75-.34.75-.75v-.01c0-.42-.34-.75-.75-.75h-.01Zm-.76 3c0-.42.33-.75.75-.75h0c.41 0 .75.33.75.75v0c0 .41-.34.75-.75.75h-.01c-.42 0-.76-.34-.76-.75v-.01Zm.75 1.5c-.42 0-.76.33-.76.75v0c0 .41.33.75.75.75h0c.41 0 .75-.34.75-.75v-.01c0-.42-.34-.75-.75-.75h-.01Zm1.75-6c0-.42.33-.75.75-.75h0c.41 0 .75.33.75.75v0c0 .41-.34.75-.75.75h-.01c-.42 0-.75-.34-.75-.75v-.01Zm.75 1.5c-.42 0-.75.33-.75.75v0c0 .41.33.75.75.75h0c.41 0 .75-.34.75-.75v-.01c0-.42-.34-.75-.75-.75h-.01Zm-.75 3c0-.42.33-.75.75-.75h0c.41 0 .75.33.75.75v0c0 .41-.34.75-.75.75h-.01c-.42 0-.75-.34-.75-.75v-.01Zm.75 1.5c-.42 0-.75.33-.75.75v0c0 .41.33.75.75.75h0c.41 0 .75-.34.75-.75v-.01c0-.42-.34-.75-.75-.75h-.01Zm1.74-6c0-.42.33-.75.75-.75h0c.41 0 .75.33.75.75v0c0 .41-.34.75-.75.75h-.01c-.42 0-.75-.34-.75-.75v-.01Zm.75 1.5c-.42 0-.75.33-.75.75v0c0 .41.33.75.75.75h0c.41 0 .75-.34.75-.75v-.01c0-.42-.34-.75-.75-.75h-.01Zm-8.25-6c0-.42.33-.75.75-.75h7.5c.41 0 .75.33.75.75v.75c0 .41-.34.75-.75.75h-7.5c-.42 0-.75-.34-.75-.75v-.75Zm9 9c0-.42-.34-.75-.75-.75 -.42 0-.75.33-.75.75v2.25c0 .41.33.75.75.75 .41 0 .75-.34.75-.75v-2.25Z"/></svg>