<svg viewBox="0 0 24 24" xmlns="http://www.w3.org/2000/svg"><g><path d="M12 9v0c-2.08 0-3.75 1.67-3.75 3.75 0 2.07 1.67 3.75 3.75 3.75v0c2.07 0 3.75-1.68 3.75-3.75C15.75 10.67 14.07 9 12 9Z"/><path fill-rule="evenodd" d="M9.344 3.07v-.001c1.76-.1 3.54-.1 5.31 0 .96.05 1.83.585 2.33 1.39l.82 1.31c.24.383.64.64 1.11.71 .38.05.77.11 1.15.17 1.43.23 2.42 1.49 2.42 2.909v8.42 0c0 1.65-1.35 3-3 3h-15v0c-1.66 0-3-1.35-3-3V9.55c0-1.42.99-2.67 2.429-2.909 .38-.07.76-.13 1.15-.18V6.46c.45-.07.86-.33 1.11-.71l.82-1.32v0c.5-.82 1.37-1.34 2.332-1.39Zm-2.6 9.679v0c0-2.9 2.35-5.25 5.25-5.25 2.89 0 5.25 2.35 5.25 5.25v0c0 2.89-2.36 5.25-5.25 5.25 -2.9 0-5.25-2.36-5.25-5.25Zm12-1.5v0c.41 0 .75-.34.75-.75 0-.42-.34-.75-.75-.75v0c-.42 0-.75.33-.75.75 0 .41.33.75.75.75Z"/></g></svg>