<svg viewBox="0 0 24 24" xmlns="http://www.w3.org/2000/svg"><g fill="#0F172A"><path d="M12 9c-2.08 0-3.75 1.67-3.75 3.75 0 2.07 1.67 3.75 3.75 3.75 2.07 0 3.75-1.68 3.75-3.75C15.75 10.67 14.07 9 12 9Z"/><path fill="#0F172A" fill-rule="evenodd" d="M9.34 3.07c.87-.05 1.76-.08 2.65-.08 .891 0 1.77.02 2.65.07 .96.05 1.82.58 2.33 1.39l.82 1.31c.23.38.64.64 1.11.7 .38.05.76.11 1.15.17 1.43.23 2.42 1.49 2.42 2.9v8.42c0 1.65-1.35 3-3 3h-15c-1.66 0-3-1.35-3-3V9.52c0-1.42.99-2.68 2.42-2.91 .38-.07.76-.13 1.15-.18 .46-.07.87-.33 1.11-.71l.82-1.32c.5-.81 1.36-1.34 2.33-1.4Zm-2.6 9.67c0-2.9 2.35-5.25 5.25-5.25 2.89 0 5.25 2.35 5.25 5.25 0 2.89-2.36 5.25-5.25 5.25 -2.9 0-5.25-2.36-5.25-5.25Zm12-1.5c.41 0 .75-.34.75-.75 0-.42-.34-.75-.75-.75 -.42 0-.75.33-.75.75 0 .41.33.75.75.75Z"/></g></svg>