<svg viewBox="0 0 24 24" xmlns="http://www.w3.org/2000/svg"><path fill="#0F172A" fill-rule="evenodd" d="M3 6c0-1.66 1.34-3 3-3h12c1.65 0 3 1.34 3 3v12c0 1.65-1.35 3-3 3H6c-1.66 0-3-1.35-3-3V6Zm4.5 7.5c.41 0 .75.33.75.75v2.25c0 .41-.34.75-.75.75 -.42 0-.75-.34-.75-.75v-2.25c0-.42.33-.75.75-.75Zm3.75-1.5c0-.42-.34-.75-.75-.75 -.42 0-.75.33-.75.75v4.5c0 .41.33.75.75.75 .41 0 .75-.34.75-.75V12Zm2.25-3c.41 0 .75.33.75.75v6.75c0 .41-.34.75-.75.75 -.42 0-.75-.34-.75-.75V9.75c0-.42.33-.75.75-.75Zm3.75-1.5c0-.42-.34-.75-.75-.75 -.42 0-.75.33-.75.75v9c0 .41.33.75.75.75 .41 0 .75-.34.75-.75v-9Z"/></svg>