<svg viewBox="0 0 24 24" xmlns="http://www.w3.org/2000/svg"><g fill="#0F172A"><path d="M18.375 2.25c-1.04 0-1.875.83-1.875 1.87v15.75c0 1.03.83 1.875 1.875 1.875h.75c1.03 0 1.875-.84 1.875-1.875V4.12c0-1.04-.84-1.875-1.875-1.875h-.75Z"/><path d="M9.75 8.625c0-1.04.83-1.875 1.875-1.875h.75c1.03 0 1.87.83 1.87 1.875v11.25c0 1.03-.84 1.875-1.88 1.875h-.75c-1.04 0-1.875-.84-1.875-1.875V8.625Z"/><path d="M3 13.125c0-1.04.83-1.875 1.875-1.875h.75c1.03 0 1.87.83 1.87 1.875v6.75c0 1.03-.84 1.875-1.88 1.875h-.75c-1.04 0-1.875-.84-1.875-1.875v-6.75Z"/></g></svg>