<svg viewBox="0 0 24 24" xmlns="http://www.w3.org/2000/svg"><path fill="#0F172A" fill-rule="evenodd" d="M12 2.25c-2.43 0-4.82.17-7.16.52 -1.98.29-3.35 2.02-3.35 3.96v6.01c0 1.94 1.37 3.67 3.34 3.96 .87.12 1.76.23 2.65.31v3.95c0 .3.18.57.46.69 .28.11.6.05.81-.17l4.18-4.19c.06-.07.16-.11.26-.12 2-.05 3.98-.23 5.92-.51 1.97-.3 3.34-2.03 3.34-3.97V6.67c0-1.95-1.38-3.68-3.35-3.97 -2.34-.35-4.73-.53-7.16-.53ZM8.24 8.625c-.63 0-1.13.5-1.13 1.125 0 .62.5 1.12 1.12 1.12 .62 0 1.12-.51 1.12-1.13 0-.63-.51-1.125-1.13-1.125Zm2.62 1.125c0-.63.5-1.125 1.12-1.125 .62 0 1.125.5 1.125 1.125 0 .62-.51 1.12-1.125 1.12 -.63 0-1.13-.51-1.13-1.13Zm4.87-1.125c-.63 0-1.125.5-1.125 1.125 0 .62.5 1.12 1.125 1.12 .62 0 1.125-.51 1.125-1.13 0-.63-.51-1.125-1.125-1.125Z"/></svg>