<svg viewBox="0 0 24 24" xmlns="http://www.w3.org/2000/svg"><path fill-rule="evenodd" d="M4.848 2.77l0 0c2.36-.35 4.75-.53 7.15-.53 2.43 0 4.817.17 7.15.52 1.97.29 3.34 2.024 3.34 3.97v6.02c0 1.94-1.37 3.67-3.35 3.97l0 0c-1.16.16-2.32.29-3.48.38v0c-.12 0-.23.07-.3.17l-2.76 4.13v0c-.23.34-.7.43-1.05.2 -.09-.06-.16-.13-.21-.21l-2.76-4.14v0c-.07-.1-.18-.17-.3-.17h-.001c-1.17-.09-2.33-.22-3.48-.39 -1.98-.29-3.348-2.03-3.348-3.97V6.7c0-1.95 1.37-3.68 3.348-3.97Zm1.9 5.47v0c0-.42.33-.75.75-.75h9v0c.41 0 .75.33.75.75 0 .41-.34.75-.75.75h-9v0c-.42 0-.75-.34-.75-.75Zm.75 2.25v0c-.42 0-.75.33-.75.75 0 .41.33.75.75.75h4.5v0c.41 0 .75-.34.75-.75 0-.42-.34-.75-.75-.75h-4.5Z"/></svg>