<svg viewBox="0 0 24 24" xmlns="http://www.w3.org/2000/svg"><g><path d="M21 6.375c0 2.692-4.03 4.875-9 4.875s-9-2.183-9-4.875C3 3.683 7.03 1.5 12 1.5c4.97 0 9 2.18 9 4.875Z"/><path d="M12 12.75c2.68 0 5.19-.59 7.07-1.609v0c.69-.37 1.33-.84 1.89-1.39 .01.12.02.24.02.36 0 2.692-4.03 4.875-9 4.875s-9-2.183-9-4.875c0-.13 0-.25.02-.37H2.99c.56.54 1.2 1.01 1.89 1.38 1.88 1.02 4.39 1.6 7.078 1.6Z"/><path d="M12 16.5c2.68 0 5.19-.59 7.07-1.61v0c.69-.37 1.33-.84 1.89-1.39 .01.12.02.24.02.36 0 2.692-4.03 4.875-9 4.875s-9-2.183-9-4.88c0-.13 0-.25.02-.37h0c.56.54 1.2 1.01 1.89 1.38 1.88 1.02 4.39 1.6 7.07 1.6Z"/><path d="M12 20.25c2.68 0 5.19-.59 7.07-1.61v0c.69-.37 1.33-.84 1.89-1.39 .01.12.02.24.02.36 0 2.692-4.03 4.875-9 4.875s-9-2.183-9-4.875c0-.13 0-.25.02-.37h0c.56.54 1.2 1.01 1.89 1.38 1.88 1.02 4.39 1.6 7.07 1.6Z"/></g></svg>