<svg viewBox="0 0 24 24" xmlns="http://www.w3.org/2000/svg"><g fill="#0F172A"><path d="M21 6.375c0 2.69-4.03 4.875-9 4.875 -4.98 0-9-2.19-9-4.875C3 3.675 7.02 1.5 12 1.5c4.97 0 9 2.18 9 4.875Z"/><path d="M12 12.75c2.68 0 5.19-.59 7.07-1.61 .69-.38 1.34-.84 1.89-1.39 .01.12.02.24.02.36 0 2.69-4.03 4.875-9 4.875 -4.98 0-9-2.19-9-4.875 0-.13 0-.25.02-.37 .54.54 1.2 1.01 1.89 1.38 1.88 1.02 4.39 1.6 7.07 1.6Z"/><path d="M12 16.5c2.68 0 5.19-.59 7.07-1.61 .69-.38 1.34-.84 1.89-1.39 .01.12.02.24.02.36 0 2.69-4.03 4.87-9 4.87 -4.98 0-9-2.19-9-4.88 0-.13 0-.25.02-.37 .54.54 1.2 1.01 1.89 1.38 1.88 1.02 4.39 1.6 7.07 1.6Z"/><path d="M12 20.25c2.68 0 5.19-.59 7.07-1.61 .69-.38 1.34-.84 1.89-1.39 .01.12.02.24.02.36 0 2.69-4.03 4.875-9 4.875 -4.98 0-9-2.19-9-4.875 0-.13 0-.25.02-.37 .54.54 1.2 1.01 1.89 1.38 1.88 1.02 4.39 1.6 7.07 1.6Z"/></g></svg>