<svg viewBox="0 0 24 24" xmlns="http://www.w3.org/2000/svg"><path fill-rule="evenodd" d="M17.663 3.118c.22.01.45.03.67.05 1.54.13 2.66 1.43 2.66 2.94v9.642 0c0 1.65-1.35 3-3 3v-2.26c0-5.93-4.58-10.775-10.384-11.22 .32-1.14 1.3-2.01 2.548-2.114 .22-.02.44-.04.673-.06V3.09c.51-1 1.54-1.62 2.66-1.62h1.5 0c1.12-.01 2.14.62 2.66 1.61ZM12 4.49v0c0-.83.67-1.5 1.5-1.5H15v0c.82 0 1.5.67 1.5 1.5H12Z"/><g><path d="M3 8.625c0-1.04.84-1.875 1.875-1.875h.375v0C7.32 6.75 9 8.42 9 10.5v1.875c0 1.03.84 1.875 1.875 1.875h1.875v0c2.07 0 3.75 1.67 3.75 3.75v2.625c0 1.03-.84 1.875-1.875 1.875h-9.75v0C3.835 22.5 3 21.66 3 20.625v-12Z"/><path d="M10.5 10.5v0c0-1.27-.46-2.49-1.279-3.44v0c3.4.89 6.06 3.55 6.96 6.96v0c-.96-.83-2.18-1.29-3.44-1.279H10.86v0c-.21 0-.375-.17-.375-.375v-1.88Z"/></g></svg>