<svg viewBox="0 0 24 24" xmlns="http://www.w3.org/2000/svg"><g fill="#0F172A" fill-rule="evenodd"><path d="M7.5 6h3.74 0 3.37c1.86 0 3.37 1.51 3.37 3.37v9.37c1.65 0 3-1.35 3-3V6.09c0-1.51-1.13-2.82-2.67-2.94 -.23-.02-.45-.04-.68-.06 -.5-.97-1.51-1.62-2.67-1.62h-1.5c-1.16 0-2.17.65-2.67 1.61 -.23.01-.45.03-.68.05C8.6 3.25 7.5 4.5 7.44 5.96Zm5.99-3c-.83 0-1.5.67-1.5 1.5h4.5c0-.83-.68-1.5-1.5-1.5h-1.5Z"/><path d="M3 9.37c0-1.04.83-1.88 1.875-1.88h9.75c1.03 0 1.875.83 1.875 1.87v11.25c0 1.03-.84 1.875-1.875 1.875h-9.75c-1.04 0-1.875-.84-1.875-1.875V9.36Zm9.58 4.59c.25-.33.2-.8-.12-1.06 -.33-.26-.8-.21-1.06.11L8.92 16.1l-.91-.91c-.3-.3-.77-.3-1.07 0 -.3.29-.3.76 0 1.06l1.5 1.5c.15.15.35.23.57.21 .21-.02.41-.12.54-.29l3-3.75Z"/></g></svg>