<svg viewBox="0 0 24 24" xmlns="http://www.w3.org/2000/svg"><g fill="#0F172A" fill-rule="evenodd"><path d="M7.5 6h3.74 0 3.37c1.86 0 3.37 1.51 3.37 3.37v9.37c1.65 0 3-1.35 3-3V6.09c0-1.51-1.13-2.82-2.67-2.94 -.23-.02-.45-.04-.68-.06 -.5-.97-1.51-1.62-2.67-1.62h-1.5c-1.16 0-2.17.65-2.67 1.61 -.23.01-.45.03-.68.05C8.6 3.25 7.5 4.5 7.44 5.96Zm5.99-3c-.83 0-1.5.67-1.5 1.5h4.5c0-.83-.68-1.5-1.5-1.5h-1.5Z"/><path d="M3 9.37c0-1.04.83-1.88 1.875-1.88h9.75c1.03 0 1.875.83 1.875 1.87v11.25c0 1.03-.84 1.875-1.875 1.875h-9.75c-1.04 0-1.875-.84-1.875-1.875V9.36Zm3 2.62c0-.42.33-.75.75-.75h0c.41 0 .75.33.75.75v0c0 .41-.34.75-.75.75h-.01c-.42 0-.75-.34-.75-.75v-.01Zm2.25 0c0-.42.33-.75.75-.75h3.75c.41 0 .75.33.75.75 0 .41-.34.75-.75.75H9c-.42 0-.75-.34-.75-.75Zm-2.25 3c0-.42.33-.75.75-.75h0c.41 0 .75.33.75.75v0c0 .41-.34.75-.75.75h-.01c-.42 0-.75-.34-.75-.75v-.01Zm2.25 0c0-.42.33-.75.75-.75h3.75c.41 0 .75.33.75.75 0 .41-.34.75-.75.75H9c-.42 0-.75-.34-.75-.75Zm-2.25 3c0-.42.33-.75.75-.75h0c.41 0 .75.33.75.75v0c0 .41-.34.75-.75.75h-.01c-.42 0-.75-.34-.75-.75v-.01Zm2.25 0c0-.42.33-.75.75-.75h3.75c.41 0 .75.33.75.75 0 .41-.34.75-.75.75H9c-.42 0-.75-.34-.75-.75Z"/></g></svg>