<svg viewBox="0 0 24 24" xmlns="http://www.w3.org/2000/svg"><path fill-rule="evenodd" d="M10.5 3.75v0c-3.32-.01-6.01 2.68-6.01 5.99 -.01.16 0 .33.02.49H4.5c-2.63 1.23-3.76 4.35-2.53 6.98 .86 1.84 2.71 3.02 4.75 3.02h11.25v0c2.48 0 4.5-2.02 4.5-4.5 0-1.63-.88-3.13-2.3-3.93v0c.31-2.05-1.09-3.97-3.13-4.29 -.34-.06-.68-.06-1.01-.03v0c-.92-2.28-3.12-3.78-5.58-3.78Zm2.25 6v0c0-.42-.34-.75-.75-.75 -.42 0-.75.33-.75.75v4.94l-1.72-1.72v-.001c-.31-.29-.78-.27-1.06.03 -.27.28-.27.73 0 1.02l3 3v0c.29.29.76.29 1.06 0l3-3v0c.3-.29.31-.76.03-1.06 -.29-.31-.76-.32-1.06-.04 -.02.01-.03.02-.04.03l-1.72 1.72v-4.94Z"/></svg>