<svg viewBox="0 0 24 24" xmlns="http://www.w3.org/2000/svg"><path fill="#0F172A" fill-rule="evenodd" d="M10.5 3.75c-3.32 0-6 2.68-6 6 0 .16 0 .33.02.49 -1.79.83-3.03 2.65-3.03 4.75 0 2.89 2.35 5.25 5.25 5.25h11.25c2.48 0 4.5-2.02 4.5-4.5 0-1.69-.93-3.16-2.3-3.923 .02-.19.04-.39.04-.577 0-2.08-1.68-3.75-3.75-3.75 -.15 0-.29 0-.43.02 -.89-2.22-3.05-3.78-5.58-3.78Zm2.25 6c0-.42-.34-.75-.75-.75 -.42 0-.75.33-.75.75v4.93l-1.72-1.72c-.3-.3-.77-.3-1.07 0 -.3.29-.3.76 0 1.06l3 3c.29.29.76.29 1.06 0l3-3c.29-.3.29-.77 0-1.07 -.3-.3-.77-.3-1.07 0l-1.72 1.71V9.72Z"/></svg>