<svg viewBox="0 0 24 24" xmlns="http://www.w3.org/2000/svg"><path fill="#0F172A" fill-rule="evenodd" d="M3 6c0-1.66 1.34-3 3-3h12c1.65 0 3 1.34 3 3v12c0 1.65-1.35 3-3 3H6c-1.66 0-3-1.35-3-3V6Zm14.25 6c0 .19-.08.38-.22.53l-2.25 2.25c-.3.29-.77.29-1.07 0 -.3-.3-.3-.77 0-1.07l1.71-1.72 -1.72-1.72c-.3-.3-.3-.77 0-1.07 .29-.3.76-.3 1.06 0l2.25 2.25c.14.14.21.33.21.53Zm-10.29-.54c-.15.14-.22.33-.22.53 0 .19.07.38.21.53l2.25 2.25c.29.29.76.29 1.06 0 .29-.3.29-.77 0-1.07l-1.72-1.72 1.71-1.72c.29-.3.29-.77 0-1.07 -.3-.3-.77-.3-1.07 0l-2.25 2.25Z"/></svg>