<svg viewBox="0 0 24 24" xmlns="http://www.w3.org/2000/svg"><path fill-rule="evenodd" d="M14.447 3.02v0c.39.1.63.52.52.92l-4.5 16.5v-.001c-.11.39-.53.63-.93.52 -.4-.11-.64-.53-.53-.93l4.5-16.5v0c.1-.4.52-.64.92-.53Zm2.27 3.19v0c.29-.3.76-.3 1.06-.001l5.25 5.25v0c.29.29.29.76 0 1.06l-5.25 5.25v0c-.29.3-.76.31-1.06.03 -.31-.29-.32-.76-.04-1.06 .01-.02.02-.03.03-.04l4.72-4.72 -4.72-4.72v0c-.3-.3-.3-.77 0-1.06Zm-9.44 0v0c.29.29.29.76 0 1.06l-4.72 4.72 4.72 4.72H7.27c.3.28.31.75.03 1.06 -.29.3-.76.31-1.06.03 -.02-.02-.03-.03-.04-.04L.95 12.51H.95c-.3-.3-.3-.77 0-1.06L6.2 6.2v0c.29-.3.76-.3 1.06 0Z"/></svg>