<svg viewBox="0 0 24 24" xmlns="http://www.w3.org/2000/svg"><path fill="#0F172A" fill-rule="evenodd" d="M11.07 2.25c-.92 0-1.7.66-1.85 1.56l-.18 1.07c-.03.12-.12.26-.3.34 -.35.16-.68.35-.99.57 -.17.11-.34.12-.45.08l-1.02-.39c-.86-.33-1.83.02-2.29.81l-.93 1.59c-.46.79-.28 1.8.43 2.38l.84.69c.09.07.16.22.15.43 -.02.18-.03.37-.03.56 0 .19 0 .38.02.56 .01.2-.06.35-.16.43l-.85.69c-.71.58-.9 1.59-.44 2.38l.92 1.59c.45.79 1.42 1.13 2.28.81l1.01-.39c.11-.05.28-.04.44.08 .31.21.64.4.98.57 .18.08.27.22.29.34l.17 1.07c.15.9.93 1.56 1.84 1.56h1.84c.91 0 1.69-.67 1.84-1.57l.17-1.08c.02-.13.11-.27.29-.35 .34-.17.67-.36.98-.58 .16-.12.33-.13.44-.09l1.01.38c.85.32 1.82-.03 2.28-.82l.92-1.6c.45-.8.27-1.81-.44-2.39l-.85-.7c-.1-.08-.17-.23-.16-.44 .01-.19.02-.38.02-.57 0-.2-.01-.39-.03-.57 -.02-.21.05-.36.15-.44l.84-.7c.7-.59.89-1.6.43-2.39l-.93-1.6c-.46-.8-1.43-1.14-2.29-.82l-1.02.38c-.12.04-.29.03-.45-.09 -.32-.22-.65-.41-.99-.57 -.19-.09-.28-.23-.3-.35l-.18-1.08c-.16-.91-.94-1.57-1.85-1.57h-1.85Zm.92 13.5c2.07 0 3.75-1.68 3.75-3.75 0-2.08-1.68-3.75-3.75-3.75 -2.08 0-3.75 1.67-3.75 3.75 0 2.07 1.67 3.75 3.75 3.75Z"/></svg>