<svg viewBox="0 0 24 24" xmlns="http://www.w3.org/2000/svg"><path fill-rule="evenodd" d="M11.828 2.25c-.92 0-1.7.66-1.85 1.56l-.1.54V4.34c-.06.28-.25.51-.52.6V4.94c-.17.06-.33.12-.48.19v0c-.26.12-.57.09-.8-.07l-.46-.33v0c-.75-.54-1.77-.45-2.42.2l-.25.24v0c-.65.64-.74 1.67-.2 2.41l.32.45v0c.16.23.18.53.06.79l0-.001c-.08.15-.14.31-.2.47h0c-.1.26-.33.46-.61.51l-.55.09 0-.001c-.91.15-1.57.93-1.57 1.84v.34c0 .91.66 1.69 1.56 1.85l.54.09c.28.04.5.25.6.51 .06.16.12.32.19.47v0c.12.25.09.56-.07.79l-.33.45h0c-.54.74-.45 1.76.2 2.41l.24.24c.64.64 1.67.73 2.41.2l.45-.33h0c.23-.17.53-.19.79-.07 .15.07.31.13.47.19 .26.1.47.32.51.6l.09.55c.15.9.93 1.56 1.84 1.56h.34c.91 0 1.69-.67 1.85-1.57l.09-.55v0c.05-.29.24-.52.51-.61v0c.16-.07.32-.13.47-.2v0c.25-.13.56-.1.79.06l.45.32v0c.74.53 1.76.44 2.41-.2l.24-.25c.64-.65.73-1.67.2-2.42l-.33-.46v0c-.17-.24-.19-.54-.07-.8 .07-.16.13-.32.19-.48 .1-.27.32-.47.6-.52l.55-.1V13.8c.9-.16 1.56-.94 1.56-1.85v-.35c0-.92-.67-1.7-1.57-1.85l-.55-.1v0c-.29-.06-.52-.25-.61-.52v0c-.07-.17-.13-.33-.2-.48v0c-.13-.26-.1-.57.06-.8l.32-.46v0c.53-.75.44-1.77-.2-2.42l-.25-.25v0c-.65-.65-1.68-.74-2.42-.2l-.46.32v0c-.24.16-.54.18-.8.06v0c-.16-.08-.32-.14-.48-.2v0c-.27-.1-.47-.33-.52-.61l-.1-.55v0c-.16-.91-.94-1.57-1.85-1.57h-.35Zm.17 13.5v0c2.07 0 3.75-1.68 3.75-3.75 0-2.08-1.68-3.75-3.75-3.75v0c-2.08 0-3.75 1.67-3.75 3.75 0 2.07 1.67 3.75 3.75 3.75Z"/></svg>