<svg viewBox="0 0 24 24" xmlns="http://www.w3.org/2000/svg"><path fill-rule="evenodd" d="M11.078 2.25c-.92 0-1.7.66-1.85 1.56l-.18 1.07c-.02.12-.12.26-.3.34v0c-.35.16-.68.35-.99.57 -.17.11-.34.12-.45.08l-1.02-.39v0c-.86-.33-1.83.02-2.282.81l-.93 1.59H3.07c-.46.79-.28 1.8.43 2.385l.84.69c.09.07.17.22.15.43v0c-.03.37-.03.75-.001 1.13 .01.2-.06.35-.16.43l-.85.69h0c-.71.58-.9 1.59-.44 2.38l.92 1.59h0c.45.79 1.42 1.13 2.28.81l1.01-.39c.11-.05.28-.04.45.08 .31.21.641.4.98.57 .18.08.27.22.29.35l.17 1.07c.15.9.93 1.56 1.85 1.56h1.84c.91 0 1.69-.67 1.85-1.57l.17-1.08c.02-.12.11-.26.29-.35 .34-.17.673-.36.98-.57 .16-.12.33-.125.45-.09l1.02.38v0c.85.32 1.82-.03 2.28-.82l.92-1.6v0c.45-.8.27-1.81-.44-2.39l-.84-.7c-.1-.08-.17-.23-.16-.43v0c.02-.38.02-.76 0-1.14 -.02-.2.05-.36.15-.43l.84-.7c.7-.59.89-1.59.43-2.385l-.93-1.6v0c-.46-.8-1.43-1.14-2.282-.82l-1.02.38c-.12.04-.29.03-.45-.09v0c-.32-.22-.65-.41-.99-.57 -.19-.09-.28-.23-.3-.35l-.18-1.08v0c-.16-.91-.94-1.57-1.85-1.57H10.92Zm.92 13.5v0c2.07 0 3.75-1.68 3.75-3.75 0-2.08-1.68-3.75-3.75-3.75v0c-2.08 0-3.75 1.67-3.75 3.75 0 2.07 1.67 3.75 3.75 3.75Z"/></svg>