<svg viewBox="0 0 24 24" xmlns="http://www.w3.org/2000/svg"><path fill-rule="evenodd" d="M11.622 1.602v0c.23-.14.52-.14.75-.001l2.25 1.31v0c.35.21.46.67.24 1.03 -.22.33-.65.45-1 .26l-1.88-1.1 -1.88 1.092v-.001c-.36.21-.82.1-1.04-.25 -.22-.36-.11-.82.24-1.04 .01-.01.02-.02.03-.02l2.25-1.313ZM5.89 5.8v0c.2.35.08.81-.27 1.02l-1.14.665 1.14.66H5.62c.36.19.49.65.29 1.01s-.66.49-1.02.29c-.02-.01-.03-.02-.04-.02l-1.13-.66v.94 0c0 .41-.34.75-.75.75 -.42 0-.75-.34-.75-.75V7.45v0c-.01-.27.14-.52.37-.65l2.25-1.32v0c.35-.21.81-.09 1.02.26 0 0 0 0 0 0Zm12.2 0v-.001c.2-.36.66-.48 1.02-.28 0 0 0 0 0 0l2.25 1.31V6.83c.23.13.37.38.37.64v2.25 0c0 .41-.34.75-.75.75 -.42 0-.75-.34-.75-.75v-.95l-1.13.65v0c-.36.21-.82.1-1.04-.25 -.22-.36-.11-.82.24-1.04 .01-.01.02-.02.03-.02l1.14-.665 -1.14-.665V6.77c-.36-.21-.48-.67-.27-1.03Zm-9 5.25v0c.2-.36.66-.48 1.02-.28 0 0 0 0 0 0l1.87 1.09 1.87-1.1v0c.35-.22.81-.11 1.03.24 .21.35.1.81-.25 1.03 -.02 0-.03.01-.04.01l-1.88 1.096v1.81 0c0 .41-.34.75-.75.75 -.42 0-.75-.34-.75-.75v-1.82l-1.88-1.1v-.001c-.36-.21-.48-.67-.27-1.03Zm-6.11 2.44v0c.41 0 .75.33.75.75v1.82l1.87 1.09v0c.36.19.49.65.29 1.01s-.66.49-1.02.29c-.02-.01-.03-.02-.04-.02l-2.25-1.32v0c-.24-.14-.38-.39-.38-.65v-2.25 0c0-.42.33-.75.75-.75Zm18 0v0c.41 0 .75.33.75.75v2.25 0c0 .26-.15.51-.38.64l-2.25 1.31v0c-.36.21-.82.1-1.04-.25 -.22-.36-.11-.82.24-1.04 .01-.01.02-.02.03-.02l1.87-1.096v-1.82 0c0-.42.33-.75.75-.75Zm-9 5.25v0c.41 0 .75.33.75.75v.94l1.12-.66h0c.35-.22.81-.11 1.03.24 .21.35.1.81-.25 1.03 -.02 0-.03.01-.04.01l-2.25 1.31v0c-.24.13-.53.13-.76 0l-2.25-1.32v0c-.37-.2-.5-.66-.3-1.02 .19-.37.65-.5 1.01-.3 .01 0 .02.01.03.01l1.12.65v-.95 0c0-.42.33-.75.75-.75Z"/></svg>