<svg viewBox="0 0 24 24" xmlns="http://www.w3.org/2000/svg"><path fill="#0F172A" fill-rule="evenodd" d="M12 2.25c-5.39 0-9.75 4.36-9.75 9.75 0 5.38 4.36 9.75 9.75 9.75 5.38 0 9.75-4.37 9.75-9.75 0-5.39-4.37-9.75-9.75-9.75ZM9.62 7.08c-.23-.35-.7-.44-1.05-.21 -.35.22-.44.69-.21 1.04l2.22 3.33h-1.6c-.42 0-.75.33-.75.75 0 .41.33.75.75.75h2.25v1.5H8.98c-.42 0-.75.33-.75.75 0 .41.33.75.75.75h2.25v1.5c0 .41.33.75.75.75 .41 0 .75-.34.75-.75v-1.5h2.25c.41 0 .75-.34.75-.75 0-.42-.34-.75-.75-.75h-2.25v-1.5h2.25c.41 0 .75-.34.75-.75 0-.42-.34-.75-.75-.75h-1.6L15.6 7.9c.22-.35.13-.82-.21-1.05 -.35-.23-.82-.14-1.04.2l-2.38 3.56 -2.38-3.57Z"/></svg>