<svg viewBox="0 0 24 24" xmlns="http://www.w3.org/2000/svg"><path fill="#0F172A" fill-rule="evenodd" d="M12 2.25c-5.39 0-9.75 4.36-9.75 9.75 0 5.38 4.36 9.75 9.75 9.75 5.38 0 9.75-4.37 9.75-9.75 0-5.39-4.37-9.75-9.75-9.75Zm-1.91 7.09c1.05-1.06 2.58-1.36 3.9-.89 .39.13.81-.07.95-.46 .13-.4-.07-.82-.46-.96 -1.85-.66-3.99-.24-5.47 1.23 -.44.43-.79.93-1.04 1.46h-.51c-.42 0-.75.33-.75.75 0 .41.33.75.75.75h.05c-.08.49-.08 1 0 1.5h-.06c-.42 0-.75.33-.75.75 0 .41.33.75.75.75h.5c.25.52.59 1.02 1.03 1.46 1.47 1.47 3.61 1.88 5.46 1.23 .39-.14.59-.57.45-.96 -.14-.4-.57-.6-.96-.46 -1.33.46-2.85.16-3.91-.89 -.13-.13-.25-.27-.35-.41h3c.41 0 .75-.34.75-.75 0-.42-.34-.75-.75-.75H8.99c-.11-.5-.11-1.01 0-1.5h3.67c.41 0 .75-.34.75-.75 0-.42-.34-.75-.75-.75H9.65c.1-.14.22-.28.34-.41Z"/></svg>