<svg viewBox="0 0 24 24" xmlns="http://www.w3.org/2000/svg"><path fill-rule="evenodd" d="M12 2.25c-5.385 0-9.75 4.36-9.75 9.75 0 5.38 4.36 9.75 9.75 9.75 5.38 0 9.75-4.37 9.75-9.75 0-5.39-4.37-9.75-9.75-9.75ZM9 7.5v0c-.42 0-.75.33-.75.75 0 .41.33.75.75.75h1.5c.98 0 1.81.62 2.122 1.5H9v0c-.42 0-.75.33-.75.75 0 .41.33.75.75.75h3.622v0c-.32.89-1.17 1.49-2.122 1.5H9v0c-.42 0-.75.33-.75.75 0 .19.07.38.21.52l3 3h0c.28.3.75.31 1.06.03 .3-.29.31-.76.03-1.06 -.02-.02-.03-.03-.04-.04l-1.73-1.74v0c1.66-.14 3.04-1.36 3.375-2.99h.82v0c.41 0 .75-.34.75-.75 0-.42-.34-.75-.75-.75h-.83v0c-.12-.55-.35-1.06-.68-1.5h1.5v0c.41 0 .75-.34.75-.75 0-.42-.34-.75-.75-.75h-6Z"/></svg>