<svg viewBox="0 0 24 24" xmlns="http://www.w3.org/2000/svg"><path fill-rule="evenodd" d="M12 21.75c5.38 0 9.75-4.37 9.75-9.75 0-5.39-4.37-9.75-9.75-9.75 -5.39 0-9.75 4.36-9.75 9.75 0 5.38 4.36 9.75 9.75 9.75ZM10.5 7.96h-.001c-.01-.83-.68-1.5-1.51-1.5 -.24 0-.47.05-.67.15l-.42.2v0c-.37.18-.52.63-.33 1 .18.36.63.51.99.33l.41-.21v1.787h-.75v0c-.42 0-.75.33-.75.75 0 .41.33.75.75.75h.75v4.68c0 .56.26 1.19.86 1.52v0c2.18 1.17 4.91.35 6.09-1.84 .2-.39.35-.81.44-1.24 .19-.98-.64-1.65-1.42-1.65h-.75v0c-.42 0-.75.33-.75.75 0 .41.33.75.75.75h.65v0c-.42 1.6-2.06 2.56-3.66 2.15 -.24-.07-.46-.15-.67-.27v0c-.02-.02-.04-.03-.05-.06v0c-.03-.05-.04-.11-.04-.16v-4.69h5.25v0c.41 0 .75-.34.75-.75 0-.42-.34-.75-.75-.75h-5.25V7.87Z"/></svg>