<svg viewBox="0 0 24 24" xmlns="http://www.w3.org/2000/svg"><path fill-rule="evenodd" d="M12 2.25c-5.385 0-9.75 4.36-9.75 9.75 0 5.38 4.36 9.75 9.75 9.75 5.38 0 9.75-4.37 9.75-9.75 0-5.39-4.37-9.75-9.75-9.75ZM9.763 9.51h-.001c.13-1.24 1.24-2.13 2.47-2 .51.05.98.28 1.35.64v0c.3.28.77.26 1.06-.04 .26-.29.26-.74 0-1.03v0c-1.47-1.47-3.84-1.47-5.31 0 -.61.6-.99 1.4-1.08 2.25 -.04.3 0 .59.03.82l.15 1.077h-.21v0c-.42 0-.75.33-.75.75 0 .41.33.75.75.75h.42l.13.96v0c.1.75-.02 1.52-.36 2.208l-.13.24v0c-.19.37-.04.82.33 1 .17.08.38.1.57.04l1.53-.52h0c.3-.11.64-.11.94 0l.65.21v0c.75.25 1.57.19 2.29-.17l.66-.34v0c.37-.19.52-.64.34-1.01 -.19-.38-.64-.53-1.01-.35 -.01 0-.01 0-.02 0l-.67.33h0c-.36.17-.77.2-1.15.08l-.66-.22v0c-.62-.21-1.29-.21-1.9 0l-.06.02v-.001c.12-.6.13-1.2.05-1.8l-.11-.76h1.81v0c.41 0 .75-.34.75-.75 0-.42-.34-.75-.75-.75h-2.03l-.19-1.29v0c-.03-.15-.04-.3-.03-.45Z"/></svg>