<svg viewBox="0 0 24 24" xmlns="http://www.w3.org/2000/svg"><path fill-rule="evenodd" d="M12 2.25c-5.385 0-9.75 4.36-9.75 9.75 0 5.38 4.36 9.75 9.75 9.75 5.38 0 9.75-4.37 9.75-9.75 0-5.39-4.37-9.75-9.75-9.75ZM9.62 7.084v0c-.24-.35-.71-.44-1.05-.2 -.34.22-.43.68-.21 1.02l2.22 3.33h-1.6v0c-.42 0-.75.33-.75.75 0 .41.33.75.75.75h2.25v1.5H8.98v0c-.42 0-.75.33-.75.75 0 .41.33.75.75.75h2.25v1.5 0c0 .41.33.75.75.75 .41 0 .75-.34.75-.75v-1.5h2.25v0c.41 0 .75-.34.75-.75 0-.42-.34-.75-.75-.75h-2.25v-1.5h2.25v0c.41 0 .75-.34.75-.75 0-.42-.34-.75-.75-.75h-1.6l2.22-3.34V7.89c.23-.35.14-.81-.2-1.05 -.35-.24-.81-.15-1.05.19 -.01 0-.01 0-.01.01l-2.38 3.56 -2.38-3.57Z"/></svg>