<svg viewBox="0 0 24 24" xmlns="http://www.w3.org/2000/svg"><g><path d="M10.5 18v0c-.42 0-.75.33-.75.75 0 .41.33.75.75.75h3v0c.41 0 .75-.34.75-.75 0-.42-.34-.75-.75-.75h-3Z"/><path fill-rule="evenodd" d="M7.12 1.5v-.001C5.25 1.499 3.74 3 3.74 4.87v14.25 0c0 1.86 1.51 3.375 3.37 3.375h9.75v0c1.86 0 3.375-1.52 3.375-3.375V4.87v0c0-1.87-1.52-3.38-3.375-3.375H7.11ZM5.99 4.87c0-.63.5-1.13 1.125-1.13h9.75c.62 0 1.125.5 1.125 1.12v14.25c0 .62-.51 1.125-1.125 1.125H7.11v0c-.63 0-1.125-.51-1.125-1.125V4.86Z"/></g></svg>