<svg viewBox="0 0 24 24" xmlns="http://www.w3.org/2000/svg"><g><path d="M11.625 16.5v0c1.03 0 1.875-.84 1.875-1.875 0-1.04-.84-1.875-1.875-1.875v0c-1.04 0-1.875.83-1.875 1.875 0 1.03.83 1.875 1.875 1.875Z"/><path fill-rule="evenodd" d="M5.625 1.5H9v0c2.07 0 3.75 1.67 3.75 3.75v1.875c0 1.03.84 1.875 1.875 1.875H16.5v0c2.07 0 3.75 1.67 3.75 3.75v7.875c0 1.03-.84 1.875-1.875 1.875H5.625v0c-1.04 0-1.875-.84-1.875-1.875V3.375c0-1.036.84-1.875 1.875-1.875Zm6 16.5c.66 0 1.27-.19 1.79-.52l1.04 1.04v0c.3.28.77.26 1.06-.04 .26-.29.26-.74 0-1.03l-1.05-1.05v0c.99-1.58.51-3.67-1.06-4.66 -1.58-1-3.67-.52-4.66 1.05 -1 1.57-.52 3.66 1.05 4.65 .53.33 1.16.51 1.79.51Z"/><path d="M14.25 5.25v0c0-1.27-.46-2.49-1.28-3.44L12.96 1.8c3.4.89 6.06 3.55 6.96 6.96v0c-.96-.83-2.18-1.29-3.44-1.28h-1.875v0c-.21 0-.375-.17-.375-.375v-1.88Z"/></g></svg>