<svg viewBox="0 0 24 24" xmlns="http://www.w3.org/2000/svg"><path fill="#0F172A" fill-rule="evenodd" d="M9 1.5H5.62c-1.04 0-1.88.83-1.88 1.87v17.25c0 1.03.83 1.875 1.87 1.875h12.75c1.03 0 1.875-.84 1.875-1.875V12.74c0-2.08-1.68-3.75-3.75-3.75H14.61c-1.04 0-1.875-.84-1.875-1.88V5.23c0-2.08-1.68-3.75-3.75-3.75Zm6.61 10.93c.24-.34.16-.81-.18-1.05 -.34-.25-.81-.17-1.05.17l-3.24 4.52 -1.63-1.63c-.3-.3-.77-.3-1.07 0 -.3.29-.3.76 0 1.06l2.25 2.25c.15.15.37.23.59.21 .21-.02.42-.14.54-.32l3.75-5.25Z"/><path fill="#0F172A" d="M12.97 1.81c.79.92 1.27 2.12 1.27 3.43v1.87c0 .2.16.37.375.37h1.87c1.31 0 2.51.48 3.43 1.27 -.89-3.4-3.564-6.08-6.97-6.97Z"/></svg>