<svg viewBox="0 0 24 24" xmlns="http://www.w3.org/2000/svg"><path fill-rule="evenodd" d="M5.625 1.5H9v0c2.07 0 3.75 1.67 3.75 3.75v1.875c0 1.03.84 1.875 1.875 1.875H16.5v0c2.07 0 3.75 1.67 3.75 3.75v7.875c0 1.03-.84 1.875-1.875 1.875H5.625v0c-1.04 0-1.875-.84-1.875-1.875V3.375c0-1.036.84-1.875 1.875-1.875Zm5.84 17.03v0c.29.29.76.29 1.06 0l3-3v0c.3-.29.31-.76.03-1.06 -.29-.31-.76-.32-1.06-.04 -.02.01-.03.02-.04.03l-1.72 1.72v-4.19 0c0-.42-.34-.75-.75-.75 -.42 0-.75.33-.75.75v4.19l-1.72-1.72 0 0c-.31-.29-.78-.27-1.06.03 -.27.28-.27.73 0 1.02l3 3Z"/><path d="M14.25 5.25v0c0-1.27-.46-2.49-1.28-3.44L12.96 1.8c3.4.89 6.06 3.55 6.96 6.96v0c-.96-.83-2.18-1.29-3.44-1.28h-1.875v0c-.21 0-.375-.17-.375-.375v-1.88Z"/></svg>