<svg viewBox="0 0 24 24" xmlns="http://www.w3.org/2000/svg"><g><path d="M7.5 3.375c0-1.036.84-1.875 1.875-1.875h.375v0c2.07 0 3.75 1.67 3.75 3.75v1.875c0 1.03.84 1.875 1.87 1.875h1.87v0c2.07 0 3.75 1.67 3.75 3.75v3.375c0 1.03-.84 1.875-1.875 1.875H9.36v0c-1.04 0-1.875-.84-1.875-1.875V3.375Z"/><path d="M15 5.25v0c0-1.27-.46-2.49-1.28-3.44v0c3.4.89 6.06 3.55 6.96 6.96v0c-.96-.83-2.18-1.29-3.44-1.28H15.36v0c-.21 0-.38-.17-.38-.38V5.23ZM4.875 6H6v10.125 0c0 1.86 1.51 3.375 3.375 3.375H16.5v1.125c0 1.03-.84 1.875-1.875 1.875h-9.75v0C3.835 22.5 3 21.66 3 20.625V7.875C3 6.835 3.84 6 4.875 6Z"/></g></svg>