<svg viewBox="0 0 24 24" xmlns="http://www.w3.org/2000/svg"><g fill="#0F172A"><path d="M11.625 16.5c1.03 0 1.875-.84 1.875-1.875 0-1.04-.84-1.875-1.875-1.875 -1.04 0-1.875.83-1.875 1.875 0 1.03.83 1.875 1.875 1.875Z"/><path fill="#0F172A" fill-rule="evenodd" d="M5.62 1.5h3.37c2.07 0 3.75 1.67 3.75 3.75v1.87c0 1.03.83 1.87 1.875 1.87h1.875c2.07 0 3.75 1.67 3.75 3.75v7.875c0 1.03-.84 1.875-1.875 1.875H5.61c-1.04 0-1.875-.84-1.875-1.875V3.36c0-1.04.83-1.875 1.87-1.875Zm6 16.5c.66 0 1.27-.19 1.79-.52l1.04 1.04c.29.29.76.29 1.06 0 .29-.3.29-.77 0-1.07l-1.05-1.05c.32-.53.51-1.14.51-1.8 0-1.87-1.52-3.375-3.375-3.375 -1.87 0-3.375 1.51-3.375 3.375 0 1.86 1.51 3.375 3.375 3.375Z"/><path d="M14.25 5.25c0-1.32-.49-2.52-1.28-3.44 3.39.88 6.07 3.56 6.96 6.96 -.93-.8-2.13-1.28-3.44-1.28h-1.88c-.21 0-.375-.17-.375-.38V5.23Z"/></g></svg>