<svg viewBox="0 0 24 24" xmlns="http://www.w3.org/2000/svg"><path fill="#0F172A" fill-rule="evenodd" d="M5.62 1.5h3.37c2.07 0 3.75 1.67 3.75 3.75v1.87c0 1.03.83 1.87 1.875 1.87h1.875c2.07 0 3.75 1.67 3.75 3.75v7.875c0 1.03-.84 1.875-1.875 1.875H5.61c-1.04 0-1.875-.84-1.875-1.875V3.36c0-1.04.83-1.875 1.87-1.875Zm5.84 17.03c.29.29.76.29 1.06 0l3-3c.29-.3.29-.77 0-1.07 -.3-.3-.77-.3-1.07 0l-1.72 1.71v-4.19c0-.42-.34-.75-.75-.75 -.42 0-.75.33-.75.75v4.18l-1.72-1.72c-.3-.3-.77-.3-1.07 0 -.3.29-.3.76 0 1.06l3 3Z"/><path fill="#0F172A" d="M14.25 5.25c0-1.32-.49-2.52-1.28-3.44 3.39.88 6.07 3.56 6.96 6.96 -.93-.8-2.13-1.28-3.44-1.28h-1.88c-.21 0-.375-.17-.375-.38V5.23Z"/></svg>