<svg viewBox="0 0 24 24" xmlns="http://www.w3.org/2000/svg"><path fill="#0F172A" fill-rule="evenodd" d="M5.62 1.5h3.37c2.07 0 3.75 1.67 3.75 3.75v1.87c0 1.03.83 1.87 1.875 1.87h1.875c2.07 0 3.75 1.67 3.75 3.75v7.875c0 1.03-.84 1.875-1.875 1.875H5.61c-1.04 0-1.875-.84-1.875-1.875V3.36c0-1.04.83-1.875 1.87-1.875Zm6.9 9.96c-.15-.15-.34-.22-.54-.22s-.39.07-.54.21l-3.01 3c-.3.29-.3.76 0 1.06 .29.29.76.29 1.06 0l1.71-1.72v4.18c0 .41.33.75.75.75 .41 0 .75-.34.75-.75v-4.19l1.71 1.71c.29.29.76.29 1.06 0 .29-.3.29-.77 0-1.07l-3-3Z"/><path fill="#0F172A" d="M14.25 5.25c0-1.32-.49-2.52-1.28-3.44 3.39.88 6.07 3.56 6.96 6.96 -.93-.8-2.13-1.28-3.44-1.28h-1.88c-.21 0-.375-.17-.375-.38V5.23Z"/></svg>