<svg viewBox="0 0 24 24" xmlns="http://www.w3.org/2000/svg"><g><path d="M19.5 22.5v0c1.65 0 3-1.35 3-3v-8.174l-6.88 4.02 3.48 1.87v0c.36.19.5.65.3 1.01s-.66.5-1.02.3l-5.683-3.06 -.001 0c-.45-.24-.98-.24-1.43-.001L5.58 18.52v0c-.37.19-.83.04-1.02-.33 -.19-.36-.06-.81.29-1l3.48-1.88 -6.88-4.03v8.174 0c0 1.65 1.34 3 3 3h15Z"/><path d="M1.5 9.58v-.75 0c0-1.11.6-2.12 1.57-2.65l7.5-4.04h-.001c.88-.48 1.95-.48 2.84 0l7.5 4.039v0c.97.52 1.57 1.53 1.57 2.64v.74l-8.426 4.92 -.66-.35v0c-.89-.48-1.96-.48-2.85 0l-.66.35 -8.426-4.93Z"/></g></svg>