<svg viewBox="0 0 24 24" xmlns="http://www.w3.org/2000/svg"><g><path d="M3.53 2.47l0 0c-.31-.29-.78-.27-1.06.03 -.27.28-.27.73 0 1.02l18 18v-.001c.28.3.75.31 1.06.03 .3-.29.31-.76.03-1.06 -.02-.02-.03-.03-.04-.04l-18-18ZM22.67 12.55v0c-.54 1.61-1.44 3.09-2.64 4.31l-3.099-3.099v0c.97-2.74-.45-5.74-3.18-6.71 -1.15-.41-2.39-.41-3.54 0l-2.48-2.48V4.57c1.34-.55 2.78-.83 4.24-.827 4.97 0 9.18 3.22 10.675 7.69 .12.36.12.75 0 1.11Z"/><path d="M15.75 12c0 .18-.02.35-.04.53L11.46 8.28v0c2.05-.3 3.94 1.13 4.24 3.18 .02.17.03.35.03.53Zm-3.22 3.71L8.28 11.46v0c-.3 2.05 1.13 3.94 3.18 4.243 .35.05.7.05 1.06 0Z"/><path d="M6.75 12c0-.62.1-1.22.3-1.77l-3.1-3.1 -.001 0c-1.2 1.21-2.1 2.69-2.63 4.31 -.12.36-.12.75 0 1.11 1.48 4.46 5.704 7.69 10.675 7.69 1.5 0 2.933-.3 4.24-.83l-2.48-2.48h0c-2.74.97-5.74-.45-6.71-3.19 -.21-.57-.31-1.17-.31-1.77Z"/></g></svg>