<svg viewBox="0 0 24 24" xmlns="http://www.w3.org/2000/svg"><g fill="#0F172A"><path d="M12 15c1.65 0 3-1.35 3-3 0-1.66-1.35-3-3-3 -1.66 0-3 1.34-3 3 0 1.65 1.34 3 3 3Z"/><path fill="#0F172A" fill-rule="evenodd" d="M1.32 11.44c1.48-4.48 5.7-7.7 10.67-7.7s9.18 3.22 10.67 7.69c.12.36.12.75 0 1.11 -1.49 4.471-5.71 7.69-10.68 7.69C7 20.23 2.79 17 1.3 12.53c-.13-.37-.13-.76-.01-1.12Zm15.92.55c0 2.89-2.36 5.25-5.25 5.25 -2.9 0-5.25-2.36-5.25-5.25 0-2.9 2.35-5.25 5.25-5.25 2.89 0 5.25 2.35 5.25 5.25Z"/></g></svg>