<svg viewBox="0 0 24 24" xmlns="http://www.w3.org/2000/svg"><path fill-rule="evenodd" d="M1.5 5.625c0-1.04.84-1.875 1.875-1.875h17.25c1.03 0 1.875.84 1.875 1.875v12.75c0 1.03-.84 1.875-1.875 1.875H3.375v0c-1.04 0-1.88-.84-1.875-1.875V5.625Zm1.5 0v1.5c0 .2.16.375.375.375h1.5v0c.2 0 .375-.17.375-.375v-1.5 0c0-.21-.17-.375-.375-.375h-1.5v0c-.21 0-.375.16-.375.375Zm16.125-.375v0c-.21 0-.375.16-.375.375v1.5c0 .2.16.375.375.375h1.5v0c.2 0 .375-.17.375-.375v-1.5 0c0-.21-.17-.375-.375-.375h-1.5ZM21 9.37v0c0-.21-.17-.38-.375-.38h-1.5v0c-.21 0-.375.16-.375.375v1.5c0 .2.16.375.375.375h1.5v0c.2 0 .375-.17.375-.375v-1.5Zm0 3.75v0c0-.21-.17-.375-.375-.375h-1.5v0c-.21 0-.375.16-.375.375v1.5c0 .2.16.375.375.375h1.5v0c.2 0 .375-.17.375-.375v-1.5Zm0 3.75v0c0-.21-.17-.375-.375-.375h-1.5v0c-.21 0-.375.16-.375.375v1.5c0 .2.16.375.375.375h1.5v0c.2 0 .375-.17.375-.375v-1.5ZM4.875 18.745v0c.2 0 .375-.17.375-.375v-1.5 0c0-.21-.17-.375-.375-.375h-1.5v0c-.21 0-.375.16-.375.375v1.5c0 .2.16.375.375.375h1.5Zm-1.5-3.75h1.5v0c.2 0 .375-.17.375-.375v-1.5 0c0-.21-.17-.375-.375-.375h-1.5v0c-.21 0-.375.16-.375.375v1.5c0 .2.16.375.375.375Zm0-3.75h1.5v0c.2 0 .375-.17.375-.375v-1.5 0c0-.21-.17-.375-.375-.375h-1.5v0c-.21 0-.375.16-.375.375v1.5c0 .2.16.375.375.375Zm4.12 0v0c-.42 0-.75.33-.75.75 0 .41.33.75.75.75h9v0c.41 0 .75-.34.75-.75 0-.42-.34-.75-.75-.75h-9Z"/></svg>