<svg viewBox="0 0 24 24" xmlns="http://www.w3.org/2000/svg"><path fill-rule="evenodd" d="M12 3.75h0c-1.33-.01-2.62.38-3.73 1.11v0c-.34.23-.81.15-1.05-.19 -.24-.34-.16-.81.18-1.05 .01-.01.02-.02.03-.03l0 0c3.8-2.52 8.91-1.47 11.43 2.33 .89 1.35 1.36 2.93 1.36 4.55 0 3.01-.58 5.897-1.62 8.54h0c-.16.38-.6.56-.98.4 -.38-.16-.57-.59-.42-.97v0c1-2.55 1.51-5.26 1.51-7.993v0c0-3.73-3.03-6.75-6.75-6.75ZM6.157 5.73v0c.34.22.43.69.21 1.03 -.01 0-.01 0-.01 0v-.001c-.74 1.1-1.12 2.39-1.12 3.72 0 1.61-.47 3.12-1.27 4.39h0c-.23.35-.69.45-1.04.23 -.36-.23-.46-.69-.24-1.04H2.68c.67-1.08 1.03-2.33 1.03-3.593 0-1.68.5-3.25 1.367-4.55v0c.22-.35.69-.45 1.03-.22 0 0 0 0 0 0ZM12 7.49v0c-1.66 0-3 1.34-3 3 0 3.1-1.18 5.92-3.11 8.05v0c-.28.3-.76.33-1.06.05 -.31-.28-.34-.76-.06-1.06v0c1.75-1.93 2.72-4.45 2.71-7.048h-.001c0-2.49 2.01-4.5 4.5-4.5 2.48 0 4.5 2.01 4.5 4.5 0 .54-.03 1.09-.07 1.62v-.001c-.04.41-.4.71-.81.68 -.42-.04-.72-.4-.69-.81 .04-.5.06-1 .06-1.51v0c0-1.66-1.35-3-3-3Zm0 2.25v0c.41 0 .75.33.75.75v0c0 3.75-1.34 7.38-3.78 10.23v0c-.27.31-.75.35-1.06.08 -.32-.27-.36-.75-.09-1.06h-.001c2.21-2.58 3.42-5.87 3.42-9.27v0c0-.42.33-.75.75-.75Zm3.23 5.18v0c.39.11.62.52.51.92h-.001c-.57 1.97-1.44 3.84-2.59 5.54v0c-.24.34-.7.43-1.05.2 -.35-.24-.44-.7-.21-1.05h0c1.06-1.57 1.86-3.3 2.38-5.12v0c.11-.4.52-.63.92-.52Z"/></svg>