<svg viewBox="0 0 24 24" xmlns="http://www.w3.org/2000/svg"><path fill="#0F172A" fill-rule="evenodd" d="M12 3.75c-1.38 0-2.66.41-3.73 1.11 -.35.22-.82.13-1.04-.22 -.23-.35-.14-.82.21-1.04 1.3-.87 2.86-1.37 4.55-1.37 4.55 0 8.25 3.69 8.25 8.25 0 3.01-.58 5.89-1.63 8.54 -.16.38-.59.57-.98.42 -.39-.16-.58-.59-.43-.98 .97-2.48 1.51-5.17 1.51-8 0-3.73-3.03-6.75-6.75-6.75ZM6.15 5.73c.34.22.43.69.21 1.03 -.71 1.06-1.12 2.34-1.12 3.72 0 1.61-.47 3.12-1.27 4.39 -.23.35-.69.45-1.04.23 -.36-.23-.46-.69-.24-1.04 .65-1.04 1.03-2.28 1.03-3.6 0-1.69.5-3.25 1.36-4.56 .22-.35.69-.44 1.03-.22Zm5.84 1.76c-1.66 0-3.01 1.34-3.01 3 0 3.09-1.18 5.92-3.11 8.05 -.28.3-.76.33-1.06.05 -.31-.28-.34-.76-.06-1.06 1.68-1.87 2.71-4.34 2.71-7.05 0-2.49 2.01-4.5 4.5-4.5 2.48 0 4.5 2.01 4.5 4.5 0 .54-.03 1.08-.07 1.62 -.04.41-.4.71-.81.68 -.42-.04-.72-.4-.69-.81 .04-.5.06-1 .06-1.51 0-1.66-1.35-3-3-3Zm0 2.25c.41 0 .75.33.75.75 0 3.9-1.43 7.48-3.79 10.23 -.27.31-.75.35-1.06.08 -.32-.27-.36-.75-.09-1.06 2.13-2.5 3.42-5.73 3.42-9.27 0-.42.33-.75.75-.75Zm3.23 5.18c.39.11.62.52.51.92 -.57 1.99-1.46 3.86-2.59 5.54 -.24.34-.7.43-1.05.2 -.35-.24-.44-.7-.21-1.05 1.04-1.56 1.85-3.28 2.38-5.12 .11-.4.52-.63.92-.52Z"/></svg>