<svg viewBox="0 0 24 24" xmlns="http://www.w3.org/2000/svg"><path fill="#0F172A" fill-rule="evenodd" d="M12.96 2.28c-.13-.17-.31-.28-.51-.3 -.21-.03-.41.03-.57.15C10 3.63 8.7 5.81 8.34 8.3c-.66-.48-1.24-1.06-1.71-1.72 -.13-.19-.34-.3-.56-.32 -.23-.02-.45.06-.6.22 -1.55 1.61-2.5 3.8-2.5 6.22 0 4.97 4.02 9 9 9 4.97 0 9-4.03 9-9 0-3.67-2.19-6.81-5.33-8.22 -1.11-.55-2.03-1.33-2.72-2.25Zm2.78 11.96c0 2.07-1.68 3.75-3.75 3.75 -2.08 0-3.75-1.68-3.75-3.75 0-.41.06-.81.18-1.18 .62.46 1.35.8 2.13 1 .21-1.41.91-2.65 1.92-3.55 1.83.24 3.25 1.81 3.25 3.71Z"/></svg>