<svg viewBox="0 0 24 24" xmlns="http://www.w3.org/2000/svg"><path fill-rule="evenodd" d="M19.5 21v0c1.65 0 3-1.35 3-3V9v0c0-1.66-1.35-3-3-3h-5.38v0c-.2-.01-.39-.08-.53-.22l-2.13-2.12V3.65c-.43-.43-1-.66-1.6-.66H4.48v0c-1.66 0-3 1.34-3 3v12 0c0 1.65 1.34 3 3 3h15Zm-6.75-10.5v0c0-.42-.34-.75-.75-.75 -.42 0-.75.33-.75.75v4.19l-1.72-1.72 -.001-.001c-.31-.29-.78-.27-1.06.03 -.27.28-.27.73-.001 1.02l3 3v0c.29.29.76.29 1.06 0l3-3v-.001c.3-.29.31-.76.03-1.06 -.29-.31-.76-.32-1.06-.04 -.02.01-.03.02-.04.03l-1.72 1.72v-4.19Z"/></svg>