<svg viewBox="0 0 24 24" xmlns="http://www.w3.org/2000/svg"><path fill-rule="evenodd" d="M4.5 3.75v0c-1.66 0-3 1.34-3 3v10.5 0c0 1.65 1.34 3 3 3h15v0c1.65 0 3-1.35 3-3V6.75v0c0-1.66-1.35-3-3-3h-15Zm9 4.5v0c0-.42-.34-.75-.75-.75 -.42 0-.75.33-.75.75v7.5 0c0 .41.33.75.75.75 .41 0 .75-.34.75-.75v-7.5Zm1.5 0v0c0-.42.33-.75.75-.75h3v0c.41 0 .75.33.75.75 0 .41-.34.75-.75.75H16.5v2.25H18v0c.41 0 .75.33.75.75 0 .41-.34.75-.75.75h-1.5v3 0c0 .41-.34.75-.75.75 -.42 0-.75-.34-.75-.75v-7.5ZM6.63 9.78c.4-.58.86-.78 1.25-.78 .383 0 .84.2 1.25.78v0c.23.33.7.42 1.04.18 .33-.24.42-.71.18-1.05 -.63-.89-1.52-1.42-2.48-1.42 -.97 0-1.86.52-2.48 1.41 -.62.88-.91 2-.91 3.083 0 1.08.28 2.2.9 3.083 .625.89 1.51 1.41 2.47 1.41 .96 0 1.85-.53 2.47-1.42h-.001c.08-.13.13-.28.13-.44v-2.66 0c0-.42-.34-.75-.75-.75h-1.5v0c-.42 0-.75.33-.75.75 0 .41.33.75.75.75h.75v1.64c-.37.44-.78.6-1.12.6 -.383 0-.85-.21-1.25-.78 -.41-.59-.64-1.39-.64-2.22 0-.84.22-1.638.63-2.22Z"/></svg>