<svg viewBox="0 0 24 24" xmlns="http://www.w3.org/2000/svg"><path d="M9.37 3v0C8.33 3 7.49 3.83 7.49 4.875c0 1.03.83 1.875 1.875 1.875h1.875v4.5H3.36v0c-1.04 0-1.88-.84-1.875-1.88v-.75c0-1.04.84-1.88 1.875-1.88h3.19v0c-1.05-1.55-.64-3.65.91-4.69 1.45-.98 3.41-.69 4.51.68V2.72c1.16-1.46 3.29-1.69 4.74-.52 1.36 1.09 1.66 3.06.68 4.51h3.94c1.03-.001 1.875.84 1.875 1.87v.75c0 1.03-.84 1.87-1.875 1.87h-8.63V6.7h1.875v0c1.03 0 1.875-.84 1.875-1.875 0-1.04-.84-1.875-1.875-1.875 -1.04 0-1.875.83-1.875 1.875V6.7h-1.5V4.83c0-1.04-.84-1.875-1.88-1.875Zm1.87 9.75H2.99v6.75 0c0 1.24 1 2.25 2.25 2.25h6v-9Zm1.5 0v9h6.75v0c1.24 0 2.25-1.01 2.25-2.25v-6.75h-9Z"/></svg>