<svg viewBox="0 0 24 24" xmlns="http://www.w3.org/2000/svg"><g fill="#0F172A"><path d="M21.72 12.75c.01-.25.02-.5.02-.76 0-1.53-.35-2.97-.98-4.26 -1.24 1.17-2.71 2.1-4.34 2.7 .04.5.06 1.02.06 1.54 0 1.1-.1 2.18-.28 3.22 1.99-.51 3.84-1.36 5.49-2.48Z"/><path d="M14.63 15.55c.23-1.15.36-2.34.36-3.56 0-.37-.02-.734-.04-1.1 -.96.22-1.95.34-2.97.34 -1.03 0-2.02-.12-2.97-.35 -.03.36-.04.72-.04 1.09 0 1.21.12 2.4.36 3.55 .85.13 1.73.19 2.63.19 .89 0 1.77-.07 2.63-.2Z"/><path d="M9.77 17.11c.73.08 1.47.13 2.22.13 .75 0 1.49-.05 2.22-.14 -.52 1.65-1.28 3.2-2.23 4.6 -.96-1.41-1.72-2.95-2.23-4.61Z"/><path d="M7.77 15.22c-.19-1.05-.28-2.13-.28-3.23 0-.52.02-1.04.06-1.55 -1.63-.61-3.11-1.54-4.34-2.71 -.63 1.28-.98 2.72-.98 4.25 0 .25 0 .5.02.75 1.64 1.12 3.5 1.97 5.49 2.47Z"/><path d="M21.35 14.75c-1.02 3.45-3.9 6.118-7.48 6.81 .86-1.46 1.54-3.05 1.98-4.72 1.95-.42 3.8-1.13 5.48-2.1Z"/><path d="M2.64 14.75c1.68.97 3.52 1.68 5.48 2.09 .44 1.67 1.12 3.26 1.98 4.71 -3.59-.7-6.47-3.36-7.48-6.82Z"/><path d="M13.87 2.43c2.52.49 4.69 1.95 6.11 3.98 -1.06 1.06-2.33 1.92-3.75 2.5 -.39-2.34-1.21-4.53-2.38-6.49Z"/><path d="M12 2.27c1.42 2.08 2.4 4.5 2.8 7.12 -.9.23-1.84.35-2.81.35s-1.91-.13-2.81-.36c.39-2.62 1.37-5.04 2.8-7.13Z"/><path d="M10.12 2.43C8.95 4.39 8.13 6.58 7.74 8.91 6.32 8.33 5.05 7.47 3.99 6.4c1.42-2.03 3.59-3.5 6.11-3.99Z"/></g></svg>