<svg viewBox="0 0 24 24" xmlns="http://www.w3.org/2000/svg"><path fill-rule="evenodd" d="M12 2.25c-5.385 0-9.75 4.36-9.75 9.75 0 5.38 4.36 9.75 9.75 9.75 5.38 0 9.75-4.37 9.75-9.75 0-5.39-4.37-9.75-9.75-9.75ZM8.54 4.505l-.001-.001c-4.14 1.9-5.95 6.8-4.04 10.94 1.9 4.13 6.8 5.94 10.94 4.03 2.68-1.24 4.5-3.83 4.76-6.78l-.46-.46v-.001c-.18-.18-.32-.37-.43-.59l-1.08-2.16v-.001c-.11-.21-.36-.29-.56-.19 -.04.01-.08.04-.11.07v0c-.22.21-.53.29-.82.21l-1.28-.37V9.2c-.48-.14-.97.14-1.1.61 -.11.36.04.76.35.97l.58.39c.59.39.67 1.23.17 1.73l-.2.2c-.22.21-.33.49-.33.79v.41c0 .4-.11.8-.32 1.15l-1.32 2.19v0c-.39.63-1.07 1.02-1.81 1.02v0c-.59 0-1.06-.48-1.06-1.06v-1.18c0-.92-.56-1.75-1.42-2.09l-.66-.27v0c-.99-.4-1.56-1.42-1.39-2.46l0-.05h-.001c.04-.28.14-.55.29-.79l.09-.15h-.001c.48-.82 1.43-1.24 2.37-1.05l1.17.23h-.001c.57.11 1.14-.24 1.3-.8l.2-.73v0c.14-.53-.1-1.08-.58-1.32l-.67-.34 -.1.09v0c-.43.42-1 .65-1.6.65h-.18c-.25 0-.49.1-.67.274v0c-.37.36-.96.36-1.32 0 -.31-.31-.37-.78-.15-1.15l1.279-2.14Z"/></svg>