<svg viewBox="0 0 24 24" xmlns="http://www.w3.org/2000/svg"><g fill="#0F172A"><path d="M7.49 18.75c-.43 0-.82-.24-.98-.64 -.34-.85-.52-1.78-.52-2.75 0-1.75.59-3.36 1.6-4.64 .15-.2.37-.31.59-.4 .47-.19.89-.52 1.21-.93 .77-.99 1.74-1.81 2.86-2.4 .72-.39 1.34-.96 1.65-1.72 .21-.54.32-1.1.32-1.68v-.64c0-.42.33-.75.75-.75 1.24 0 2.25 1 2.25 2.25 0 1.15-.26 2.24-.73 3.21 -.27.55.1 1.28.72 1.28h3.12c1.02 0 1.94.69 2.05 1.71 .04.42.06.85.06 1.28 0 2.84-1 5.46-2.65 7.52 -.39.48-.99.72-1.61.72h-4.016c-.49 0-.97-.08-1.43-.24l-3.12-1.04c-.46-.16-.94-.24-1.43-.24H7.4Z"/><path d="M2.33 10.97c-.54 1.36-.84 2.84-.84 4.39 0 1.22.18 2.39.52 3.5 .25.85 1.08 1.36 1.97 1.36h.9c.44 0 .72-.5.52-.9 -.6-1.2-.93-2.55-.93-3.98 0-1.71.47-3.31 1.3-4.67 .24-.41-.03-.96-.51-.96H4.2c-.84 0-1.62.45-1.92 1.22Z"/></g></svg>