<svg viewBox="0 0 24 24" xmlns="http://www.w3.org/2000/svg"><path d="M15.73 5.25h1.03v-.001c.8 1.22 1.23 2.65 1.23 4.125v0c0 1.46-.43 2.9-1.24 4.125h-.15c-.81 0-1.54.44-2.04 1.08v0c-.78.99-1.76 1.8-2.87 2.4 -.73.38-1.35.95-1.66 1.71h0c-.22.53-.33 1.09-.33 1.67v.63 0c0 .41-.34.75-.75.75v0c-1.25 0-2.25-1.01-2.25-2.25 0-1.16.26-2.25.72-3.218 .26-.56-.11-1.282-.73-1.282H3.56c-1.03 0-1.95-.7-2.054-1.72h0c-.05-.43-.07-.86-.07-1.29 0-2.85.992-5.47 2.64-7.53 .38-.49.98-.73 1.6-.73h4.01l-.001 0c.48-.01.96.07 1.423.23l3.11 1.04h-.001c.45.15.93.23 1.423.23Zm5.93 8.523c.53-1.37.83-2.85.83-4.398 0-1.22-.19-2.4-.52-3.51 -.26-.85-1.09-1.37-1.98-1.37h-.907c-.45 0-.72.49-.53.89 .59 1.2.92 2.55.92 3.97h0c0 1.64-.45 3.25-1.31 4.666 -.25.4.02.95.5.95h1.05c.83 0 1.61-.46 1.91-1.23Z"/></svg>