<svg viewBox="0 0 24 24" xmlns="http://www.w3.org/2000/svg"><g fill="#0F172A"><path d="M15.73 4.5h1.03c.78 1.18 1.23 2.6 1.23 4.125 0 1.52-.46 2.94-1.24 4.125h-.15c-.81 0-1.54.44-2.04 1.08 -.78.98-1.75 1.8-2.87 2.39 -.73.38-1.35.95-1.66 1.71 -.22.53-.33 1.09-.33 1.67v.63c0 .41-.34.75-.75.75 -1.25 0-2.25-1.01-2.25-2.25 0-1.16.25-2.25.72-3.22 .26-.56-.11-1.29-.73-1.29H3.56c-1.03 0-1.95-.7-2.06-1.72 -.05-.43-.07-.86-.07-1.29 0-2.85.99-5.47 2.649-7.53 .38-.49.98-.73 1.6-.73h4.01c.48 0 .96.07 1.42.23l3.11 1.03c.45.15.93.23 1.42.23Z"/><path d="M21.66 13.02c.53-1.37.83-2.85.83-4.4 0-1.23-.19-2.4-.53-3.51 -.26-.86-1.09-1.37-1.98-1.37h-.91c-.45 0-.73.49-.53.89 .59 1.19.92 2.54.92 3.97 0 1.7-.48 3.3-1.31 4.66 -.25.4.02.95.5.95h1.05c.83 0 1.61-.46 1.91-1.23Z"/></g></svg>