<svg viewBox="0 0 24 24" xmlns="http://www.w3.org/2000/svg"><path fill="#0F172A" fill-rule="evenodd" d="M11.09 1.51c.4.08.66.47.58.88l-1.03 5.1h4.47l1.07-5.4c.08-.41.47-.67.88-.59 .4.08.66.47.58.88l-1.03 5.1h3.58c.41 0 .75.33.75.75 0 .41-.34.75-.75.75H16.3l-1.2 5.99h3.58c.41 0 .75.33.75.75 0 .41-.34.75-.75.75h-3.89l-1.08 5.39c-.09.4-.48.66-.89.58 -.41-.09-.67-.48-.59-.89l1.02-5.11H8.78L7.7 21.83c-.09.4-.48.66-.89.58 -.41-.09-.67-.48-.59-.89l1.02-5.11H3.65c-.42 0-.75-.34-.75-.75 0-.42.33-.75.75-.75h3.88l1.2-6H5.14c-.42 0-.75-.34-.75-.75 0-.42.33-.75.75-.75h3.88l1.07-5.4c.08-.41.47-.67.88-.59Zm-.74 7.48l-1.2 5.99h4.46l1.2-6h-4.47Z"/></svg>