<svg viewBox="0 0 24 24" xmlns="http://www.w3.org/2000/svg"><path fill="#0F172A" d="M11.645 20.91l-.01-.01 -.03-.02c-.02-.02-.05-.03-.09-.05 -.08-.04-.18-.1-.31-.18 -.26-.16-.62-.38-1.06-.67 -.87-.58-2.03-1.43-3.19-2.51 -2.31-2.15-4.74-5.34-4.74-9.26 0-2.93 2.46-5.25 5.43-5.25 1.74 0 3.31.79 4.31 2.05 .99-1.26 2.56-2.06 4.31-2.06 2.97 0 5.43 2.32 5.43 5.25 0 3.92-2.44 7.11-4.74 9.25 -1.17 1.08-2.33 1.93-3.19 2.5 -.44.28-.798.51-1.06.66 -.13.07-.23.13-.31.17 -.04.01-.07.03-.09.04l-.03.01 -.01 0 -.01 0c-.22.11-.49.11-.71 0l-.01-.01Z"/></svg>