<svg viewBox="0 0 24 24" xmlns="http://www.w3.org/2000/svg"><g fill="#0F172A"><path d="M19 3.7c.38-.15.59-.58.44-.97 -.15-.39-.58-.6-.97-.45L5.97 6.82V2.98c0-.42-.34-.75-.75-.75h-1.5c-.42 0-.75.33-.75.75V7.9l-1.01.36c-.39.14-.6.57-.45.96 .14.38.57.59.96.44l16.49-6Z"/><path fill="#0F172A" fill-rule="evenodd" d="M3.01 11.11l14.98-5.45v3.42l4 1.45c.38.14.59.57.44.96 -.15.38-.58.59-.97.44l-.5-.18v8.47h.75c.41 0 .75.33.75.75 0 .41-.34.75-.75.75H2.21c-.42 0-.75-.34-.75-.75 0-.42.33-.75.75-.75h.75v-9.13l.01-.01Zm14.98 9.13v-9.57l1.49.54v9.02h-1.5Zm-9-6c-.42 0-.75.33-.75.75v4.5c0 .41.33.75.75.75h3c.41 0 .75-.34.75-.75v-4.5c0-.42-.34-.75-.75-.75h-3Z"/></g></svg>