<svg viewBox="0 0 24 24" xmlns="http://www.w3.org/2000/svg"><g fill="#0F172A"><path d="M11.46 3.84c.29-.3.76-.3 1.06 0l8.68 8.68c.29.29.76.29 1.06 0 .29-.3.29-.77 0-1.07l-8.69-8.69c-.88-.88-2.31-.88-3.19-.001l-8.69 8.68c-.3.29-.3.76 0 1.06 .29.29.76.29 1.06 0l8.68-8.69Z"/><path d="M12 5.43l8.15 8.15c.02.02.06.05.09.08v6.19c0 1.03-.84 1.87-1.875 1.87H14.99c-.42 0-.75-.34-.75-.75v-4.5c0-.42-.34-.75-.75-.75h-3c-.42 0-.75.33-.75.75v4.5c0 .41-.34.75-.75.75H5.61c-1.04 0-1.88-.84-1.88-1.88v-6.2c.03-.03.06-.06.09-.09l8.15-8.16Z"/></g></svg>