<svg viewBox="0 0 24 24" xmlns="http://www.w3.org/2000/svg"><path fill-rule="evenodd" d="M4.5 3.75v0c-1.66 0-3 1.34-3 3v10.5 0c0 1.65 1.34 3 3 3h15v0c1.65 0 3-1.35 3-3V6.75v0c0-1.66-1.35-3-3-3h-15Zm4.125 3v0c-1.25 0-2.25 1-2.25 2.25 0 1.24 1 2.25 2.25 2.25v0c1.24 0 2.25-1.01 2.25-2.25 0-1.25-1.01-2.25-2.25-2.25Zm-3.88 8.703l-.001 0c.78-2.14 3.15-3.24 5.29-2.46 1.13.41 2.03 1.31 2.45 2.45v0c.12.35-.03.74-.36.92v0c-1.09.57-2.3.87-3.53.87h-.001c-1.23 0-2.44-.3-3.53-.88h0c-.34-.18-.48-.57-.36-.92ZM14.99 8.24v0c-.42 0-.75.33-.75.75 0 .41.33.75.75.75h3.75v0c.41 0 .75-.34.75-.75 0-.42-.34-.75-.75-.75h-3.75Zm-.75 3.75v0c0-.42.33-.75.75-.75h3.75v0c.41 0 .75.33.75.75 0 .41-.34.75-.75.75h-3.75v0c-.42 0-.75-.34-.75-.75Zm.75 2.25v0c-.42 0-.75.33-.75.75 0 .41.33.75.75.75h3.75v0c.41 0 .75-.34.75-.75 0-.42-.34-.75-.75-.75h-3.75Z"/></svg>