<svg viewBox="0 0 24 24" xmlns="http://www.w3.org/2000/svg"><path fill="#0F172A" fill-rule="evenodd" d="M1.5 9.83v1.79c0 1.03.83 1.875 1.87 1.875h17.25c1.03 0 1.875-.84 1.875-1.875v-1.8c0-.72-.26-1.41-.73-1.96l-3.29-3.84c-.57-.67-1.41-1.05-2.28-1.05H7.75c-.88 0-1.71.38-2.28 1.04L2.18 7.84c-.47.54-.73 1.23-.73 1.95Zm6.28-5.34c-.44 0-.86.19-1.14.52L3.87 8.23h3.16c1 0 1.93.5 2.49 1.33l.16.24c.27.41.74.66 1.24.66h2.09c.5 0 .96-.26 1.24-.67l.16-.25c.55-.84 1.49-1.34 2.49-1.34h3.16l-2.77-3.23c-.29-.34-.71-.53-1.14-.53H7.71Z"/><path fill="#0F172A" d="M2.81 15c-.73 0-1.32.58-1.32 1.31v1.68c0 1.65 1.34 3 3 3h15c1.65 0 3-1.35 3-3V16.3c0-.73-.59-1.32-1.32-1.32h-4.24c-1.01 0-1.94.5-2.5 1.33l-.17.24c-.28.41-.75.66-1.25.66h-2.1c-.51 0-.97-.26-1.25-.67l-.17-.25c-.56-.84-1.5-1.34-2.5-1.34H2.75Z"/></svg>