<svg viewBox="0 0 24 24" xmlns="http://www.w3.org/2000/svg"><path fill="#0F172A" fill-rule="evenodd" d="M6.91 3c-1.32 0-2.49.85-2.87 2.11l-2.42 7.83c-.09.28-.14.58-.14.88v4.16c0 1.65 1.34 3 3 3h15c1.65 0 3-1.35 3-3v-4.17c0-.3-.05-.6-.14-.89l-2.42-7.84c-.39-1.26-1.56-2.12-2.87-2.12H6.87Zm13.82 9.75l-2.22-7.2c-.2-.63-.78-1.06-1.44-1.06H6.89c-.66 0-1.25.42-1.44 1.05l-2.22 7.19h2.84c1.13 0 2.17.64 2.68 1.65l.25.51c.25.5.77.82 1.34.82h3.21c.56 0 1.08-.33 1.34-.83l.25-.52c.5-1.02 1.54-1.66 2.68-1.66h2.84Z"/></svg>