<svg viewBox="0 0 24 24" xmlns="http://www.w3.org/2000/svg"><g fill="#0F172A" fill-rule="evenodd"><path d="M5.47 5.55c.19-.63.77-1.06 1.43-1.06h2.08c.41 0 .75-.34.75-.75 0-.42-.34-.75-.75-.75H6.89c-1.32 0-2.49.85-2.87 2.11L1.6 12.93c-.09.28-.14.58-.14.88v4.16c0 1.65 1.34 3 3 3h15c1.65 0 3-1.35 3-3V13.8c0-.3-.05-.6-.14-.89L19.9 5.07c-.39-1.26-1.56-2.12-2.87-2.12h-2.09c-.42 0-.75.33-.75.75 0 .41.33.75.75.75h2.08c.65 0 1.24.42 1.43 1.05l2.21 7.19h-2.85c-1.14 0-2.18.64-2.69 1.65l-.26.51c-.26.5-.78.82-1.35.82h-3.22c-.57 0-1.09-.33-1.35-.83l-.26-.52c-.51-1.02-1.55-1.66-2.69-1.66H3.14l2.21-7.2Z"/><path d="M12 2.25c.41 0 .75.33.75.75v6.43l1.71-1.72c.29-.3.76-.3 1.06 0 .29.29.29.76 0 1.06l-3 2.99c-.3.29-.77.29-1.07 0l-3.01-3c-.3-.3-.3-.77 0-1.07 .29-.3.76-.3 1.06 0l1.71 1.71V2.96c0-.42.33-.75.75-.75Z"/></g></svg>