<svg viewBox="0 0 24 24" xmlns="http://www.w3.org/2000/svg"><path fill="#0F172A" fill-rule="evenodd" d="M15.75 1.5C12.02 1.5 9 4.52 9 8.25c0 .39.03.78.09 1.15 .06.38-.04.71-.23.9l-6.5 6.49c-.57.56-.88 1.32-.88 2.12v2.81c0 .41.33.75.75.75h3.75c.41 0 .75-.34.75-.75v-1.5h1.5c.41 0 .75-.34.75-.75v-1.5h1.5c.19 0 .38-.08.53-.22l2.65-2.66c.18-.19.51-.29.9-.23 .37.06.76.09 1.15.09 3.72 0 6.75-3.03 6.75-6.75 0-3.73-3.03-6.75-6.75-6.75Zm0 3c-.42 0-.75.33-.75.75 0 .41.33.75.75.75C16.99 6 18 7 18 8.25c0 .41.33.75.75.75 .41 0 .75-.34.75-.75 0-2.08-1.68-3.75-3.75-3.75Z"/></svg>