<svg viewBox="0 0 24 24" xmlns="http://www.w3.org/2000/svg"><path fill-rule="evenodd" d="M9 2.25v0c.41 0 .75.33.75.75v1.5l0 0c1.78.02 3.57.15 5.34.37v0c.41.05.7.42.65.83 -.06.41-.43.7-.84.65 0 0-.01-.01-.01-.01 -.66-.09-1.33-.16-1.99-.21h0c-.59 2.27-1.6 4.42-2.97 6.32 .31.38.65.75.99 1.1v0c.29.29.28.77-.01 1.061 -.3.29-.78.28-1.061-.01h0c-.31-.31-.6-.63-.88-.96v0c-1.58 1.84-3.5 3.36-5.66 4.48v0c-.37.18-.83.04-1.02-.33 -.19-.37-.05-.83.32-1.02 0-.01 0-.01 0-.01L2.6 16.76c2.07-1.08 3.9-2.56 5.39-4.36h0c-.88-1.21-1.6-2.51-2.17-3.89v0c-.15-.39.04-.83.42-.98 .37-.15.79.03.95.4v0c.45 1.12 1.03 2.19 1.72 3.19l0-.001c1.07-1.58 1.88-3.33 2.39-5.17l-.001-.001c-2.77-.14-5.55-.04-8.3.3h0c-.42.05-.79-.25-.84-.66 -.06-.42.24-.79.65-.84l-.001-.001c1.77-.23 3.55-.35 5.34-.38V2.85h-.001c0-.42.33-.75.75-.75ZM15.75 9v0c.29-.01.55.16.68.43l5.25 11.25v0c.17.37.01.82-.37.99 -.38.17-.83.01-1-.37l-1.2-2.567h-6.744l-1.2 2.567v0c-.18.37-.63.53-1 .36 -.38-.18-.54-.63-.37-1l5.25-11.25v0c.12-.27.38-.44.68-.44Zm-2.68 8.25h5.34l-2.68-5.73 -2.68 5.72Z"/></svg>