<svg viewBox="0 0 24 24" xmlns="http://www.w3.org/2000/svg"><path fill="#0F172A" fill-rule="evenodd" d="M9 2.25c.41 0 .75.33.75.75v1.5c.88.01 1.76.05 2.63.11 .9.06 1.81.14 2.7.26 .41.05.7.42.65.83 -.06.41-.43.7-.84.65 -.66-.09-1.33-.16-2-.21 -.6 2.3-1.62 4.44-2.97 6.32 .31.38.64.75.99 1.1 .29.29.28.77-.01 1.06 -.3.29-.78.28-1.07-.01 -.31-.31-.6-.63-.88-.96 -1.58 1.83-3.5 3.36-5.66 4.48 -.37.19-.83.04-1.02-.33 -.2-.37-.05-.83.32-1.02 2.08-1.08 3.91-2.57 5.39-4.36 -.87-1.2-1.6-2.5-2.17-3.89 -.16-.39.02-.83.41-.98 .38-.16.82.02.97.41 .46 1.12 1.04 2.19 1.72 3.19 1.06-1.56 1.88-3.3 2.39-5.17 -.8-.04-1.59-.06-2.4-.06 -2.01 0-3.98.12-5.91.36 -.42.05-.79-.25-.84-.66 -.06-.42.24-.79.65-.84 1.75-.22 3.53-.35 5.34-.38V2.89c0-.42.33-.75.75-.75ZM15.74 9c.29 0 .55.16.67.43l5.25 11.24c.17.37.01.82-.37.99 -.38.17-.83.01-1-.37l-1.2-2.57h-6.75l-1.2 2.56c-.18.37-.63.53-1 .36 -.38-.18-.54-.63-.37-1l5.25-11.25c.12-.27.38-.44.67-.44Zm-2.68 8.25h5.34l-2.68-5.73 -2.68 5.72Z"/></svg>