<svg viewBox="0 0 24 24" xmlns="http://www.w3.org/2000/svg"><g fill="#0F172A"><path d="M12 .75C7.44.75 3.75 4.44 3.75 9c0 3.05 1.65 5.71 4.11 7.14 .68.39 1.11 1 1.13 1.62 .01.33.24.62.57.7 .35.08.7.14 1.07.19 .32.04.6-.22.6-.55v-4.67c-.32-.04-.64-.1-.94-.18 -.41-.11-.65-.52-.54-.92 .1-.41.51-.65.91-.54 .41.1.85.16 1.31.16 .45 0 .89-.06 1.31-.17 .4-.11.81.13.91.53 .1.4-.14.81-.54.91 -.31.07-.62.13-.94.17v4.66c0 .32.27.58.6.54 .36-.05.72-.12 1.07-.2 .32-.08.56-.37.57-.71 .01-.62.44-1.23 1.13-1.63 2.45-1.43 4.11-4.09 4.11-7.15 0-4.56-3.7-8.25-8.25-8.25Z"/><g fill="#0F172A" fill-rule="evenodd"><path d="M9.01 19.89c.07-.41.46-.68.87-.6 .68.12 1.38.19 2.11.19 .72 0 1.42-.07 2.11-.2 .4-.08.79.19.87.59 .07.4-.2.79-.6.87 -.78.14-1.58.22-2.39.22 -.82 0-1.62-.08-2.39-.23 -.41-.08-.68-.47-.6-.88Z"/><path d="M9.75 22.34c.04-.42.41-.72.82-.67 .46.04.94.07 1.42.07s.95-.03 1.42-.08c.41-.05.78.25.82.66 .04.41-.26.78-.67.82 -.52.05-1.05.08-1.58.08 -.54 0-1.06-.03-1.58-.09 -.42-.05-.72-.42-.67-.83Z"/></g></g></svg>