<svg viewBox="0 0 24 24" xmlns="http://www.w3.org/2000/svg"><path fill="#0F172A" fill-rule="evenodd" d="M2.625 6.75c0-.63.5-1.13 1.125-1.13 .62 0 1.125.5 1.125 1.12 0 .62-.51 1.125-1.125 1.125 -.63 0-1.125-.51-1.125-1.125Zm4.875 0c0-.42.33-.75.75-.75h12c.41 0 .75.33.75.75 0 .41-.34.75-.75.75h-12c-.42 0-.75-.34-.75-.75ZM2.625 12c0-.63.5-1.13 1.125-1.13 .62 0 1.125.5 1.125 1.12 0 .62-.51 1.125-1.125 1.125 -.63 0-1.125-.51-1.125-1.125ZM7.5 12c0-.42.33-.75.75-.75h12c.41 0 .75.33.75.75 0 .41-.34.75-.75.75h-12c-.42 0-.75-.34-.75-.75Zm-4.875 5.25c0-.63.5-1.125 1.125-1.125 .62 0 1.125.5 1.125 1.125 0 .62-.51 1.125-1.125 1.125 -.63 0-1.125-.51-1.125-1.125Zm4.875 0c0-.42.33-.75.75-.75h12c.41 0 .75.33.75.75 0 .41-.34.75-.75.75h-12c-.42 0-.75-.34-.75-.75Z"/></svg>