<svg viewBox="0 0 24 24" xmlns="http://www.w3.org/2000/svg"><path fill="#0F172A" fill-rule="evenodd" d="M11.53 22.35c.03.01.05.03.07.04l.02.01c.22.12.49.12.72 0l.02-.02c.01-.01.04-.03.07-.05 .06-.04.14-.09.25-.16 .21-.14.52-.34.88-.59 .73-.52 1.7-1.29 2.68-2.29 1.94-2 3.96-4.99 3.96-8.83 0-4.56-3.7-8.25-8.25-8.25 -4.56 0-8.25 3.69-8.25 8.25 0 3.84 2.01 6.83 3.96 8.82 .97 1 1.95 1.76 2.68 2.28 .36.25.67.45.88.58 .1.06.19.11.25.15Zm.46-8.86c1.65 0 3-1.35 3-3 0-1.66-1.35-3-3-3 -1.66 0-3 1.34-3 3 0 1.65 1.34 3 3 3Z"/></svg>