<svg viewBox="0 0 24 24" xmlns="http://www.w3.org/2000/svg"><path fill="#0F172A" fill-rule="evenodd" d="M8.16 2.58c.52-.27 1.14-.27 1.67 0l4.99 2.49c.1.05.22.05.33 0l3.86-1.94c1.24-.63 2.71.28 2.71 1.67v12.48c0 .71-.41 1.35-1.04 1.67L15.8 21.38c-.53.26-1.15.26-1.68 0l-5-2.5c-.11-.06-.23-.06-.34 0l-3.87 1.93c-1.25.62-2.72-.29-2.72-1.68V6.64c0-.72.4-1.36 1.03-1.68L8.1 2.52Zm.83 3.41c.41 0 .75.33.75.75v8.24c0 .41-.34.75-.75.75 -.42 0-.75-.34-.75-.75V6.73c0-.42.33-.75.75-.75Zm6.75 3c0-.42-.34-.75-.75-.75 -.42 0-.75.33-.75.75v8.24c0 .41.33.75.75.75 .41 0 .75-.34.75-.75V8.98Z"/></svg>