<svg viewBox="0 0 24 24" xmlns="http://www.w3.org/2000/svg"><g fill="#0F172A"><path d="M16.88 4.34c-2.08.82-4.29 1.36-6.61 1.56 -.67.05-1.35.08-2.026.08h-.75c-2.9 0-5.25 2.35-5.25 5.25 0 2.59 1.88 4.75 4.36 5.17 .33 1.36.79 2.68 1.37 3.94 .46 1 1.67 1.32 2.58.79l.65-.38c.88-.51 1.16-1.6.77-2.47 -.24-.53-.45-1.06-.63-1.61 1.91.25 3.76.74 5.49 1.44 .72-2.17 1.11-4.5 1.11-6.91 0-2.42-.4-4.74-1.12-6.91Z"/><path d="M18.26 3.74c.8 2.35 1.23 4.88 1.23 7.5s-.44 5.15-1.24 7.5v0c-.06.16-.12.32-.18.48 -.15.38.05.81.44.96 .38.14.81-.06.96-.45 .14-.39.27-.77.39-1.17 .52-1.69.87-3.46 1.02-5.27 .51-.54.83-1.28.83-2.08 0-.81-.32-1.54-.84-2.08 -.16-1.82-.5-3.59-1.03-5.27 -.13-.4-.26-.78-.4-1.17 -.15-.39-.58-.59-.97-.45 -.39.14-.59.57-.45.96 .05.16.11.32.17.48v0Z"/></g></svg>