<svg viewBox="0 0 24 24" xmlns="http://www.w3.org/2000/svg"><g><path d="M8.25 4.5v0C8.25 2.42 9.92.75 12 .75c2.07 0 3.75 1.67 3.75 3.75v8.25 0c0 2.07-1.68 3.75-3.75 3.75 -2.08 0-3.75-1.68-3.75-3.75V4.5Z"/><path d="M6 10.5v0c.41 0 .75.33.75.75v1.5 0C6.75 15.64 9.1 18 12 18c2.89 0 5.25-2.36 5.25-5.25v-1.5 0c0-.42.33-.75.75-.75 .41 0 .75.33.75.75v1.5 0c-.01 3.43-2.59 6.32-6 6.7v2.29h3v0c.41 0 .75.33.75.75 0 .41-.34.75-.75.75h-7.5v0c-.42 0-.75-.34-.75-.75 0-.42.33-.75.75-.75h3v-2.3 0c-3.42-.39-6-3.28-6-6.71v-1.5h-.001c-.001-.42.33-.75.75-.75Z"/></g></svg>