<svg viewBox="0 0 24 24" xmlns="http://www.w3.org/2000/svg"><g fill="#0F172A"><path d="M8.25 4.5C8.25 2.42 9.92.75 12 .75c2.07 0 3.75 1.67 3.75 3.75v8.25c0 2.07-1.68 3.75-3.75 3.75 -2.08 0-3.75-1.68-3.75-3.75V4.5Z"/><path d="M6 10.5c.41 0 .75.33.75.75v1.5C6.75 15.64 9.1 18 12 18c2.89 0 5.25-2.36 5.25-5.25v-1.5c0-.42.33-.75.75-.75 .41 0 .75.33.75.75v1.5c0 3.47-2.625 6.33-6 6.7v2.29h3c.41 0 .75.33.75.75 0 .41-.34.75-.75.75h-7.5c-.42 0-.75-.34-.75-.75 0-.42.33-.75.75-.75h3v-2.3c-3.38-.38-6-3.24-6-6.71v-1.5c0-.42.33-.75.75-.75Z"/></g></svg>