<svg viewBox="0 0 24 24" xmlns="http://www.w3.org/2000/svg"><path fill="#0F172A" fill-rule="evenodd" d="M4.12 3c-1.04 0-1.88.83-1.88 1.875V18c0 1.65 1.34 3 3 3h15c-1.66 0-3-1.35-3-3V4.875C17.24 3.835 16.4 3 15.36 3H4.11Zm7.87 6.75c-.42 0-.75.33-.75.75 0 .41.33.75.75.75h1.5c.41 0 .75-.34.75-.75 0-.42-.34-.75-.75-.75h-1.5Zm-.75-2.25c0-.42.33-.75.75-.75h1.5c.41 0 .75.33.75.75 0 .41-.34.75-.75.75h-1.5c-.42 0-.75-.34-.75-.75Zm-5.25 5.25c-.42 0-.75.33-.75.75 0 .41.33.75.75.75h7.5c.41 0 .75-.34.75-.75 0-.42-.34-.75-.75-.75h-7.5Zm-.75 3.75c0-.42.33-.75.75-.75h7.5c.41 0 .75.33.75.75 0 .41-.34.75-.75.75h-7.5c-.42 0-.75-.34-.75-.75Zm.75-9.75c-.42 0-.75.33-.75.75v3c0 .41.33.75.75.75h3c.41 0 .75-.34.75-.75v-3c0-.42-.34-.75-.75-.75h-3Z"/><path fill="#0F172A" d="M18.75 6.75h1.875c.62 0 1.125.5 1.125 1.125V18c0 .82-.68 1.5-1.5 1.5 -.83 0-1.5-.68-1.5-1.5V6.75Z"/></svg>