<svg viewBox="0 0 24 24" xmlns="http://www.w3.org/2000/svg"><path fill-rule="evenodd" d="M20.599 1.5c-.38 0-.75.11-1.06.32l-5.08 3.385 0 0c-1.28.85-2.45 1.85-3.48 2.98v0c2.11.99 3.81 2.69 4.81 4.81l0 0c1.13-1.04 2.13-2.2 2.987-3.48l3.38-5.08v0c.58-.88.34-2.06-.53-2.64 -.32-.21-.68-.32-1.06-.32Zm-8.3 14.025l0 0c.65-.37 1.28-.77 1.89-1.21h0c-.82-2.07-2.45-3.7-4.52-4.513l-.001 0c-.44.6-.85 1.23-1.21 1.89l-.28.5v0c1.74.5 3.1 1.86 3.6 3.6l.5-.28ZM6.75 13.49v0c-2.08 0-3.75 1.67-3.75 3.75v0c0 .82-.68 1.5-1.5 1.5 -.04 0-.07-.01-.11-.01H1.38c-.42-.03-.78.28-.8.69 -.01.14.02.29.09.42H.67c1.44 2.51 4.65 3.37 7.16 1.93 1.62-.94 2.63-2.68 2.63-4.56v0c0-2.08-1.68-3.75-3.75-3.75Z"/></svg>