<svg viewBox="0 0 24 24" xmlns="http://www.w3.org/2000/svg"><g><path d="M21.731 2.269v0c-1.03-1.03-2.69-1.03-3.72-.001L16.85 3.42l3.71 3.71 1.15-1.157v0c1.02-1.03 1.02-2.69 0-3.72Zm-2.22 5.93l-3.72-3.72 -8.4 8.4 -.001 0c-.62.61-1.08 1.37-1.32 2.21l-.8 2.68v0c-.12.39.1.81.5.93 .13.04.28.04.42 0l2.68-.8v0c.83-.25 1.59-.71 2.21-1.32l8.4-8.4Z"/><path d="M5.25 5.25v0c-1.66 0-3 1.34-3 3v10.5 0c0 1.65 1.34 3 3 3h10.5v0c1.65 0 3-1.35 3-3V13.5v0c0-.42-.34-.75-.75-.75 -.42 0-.75.33-.75.75v5.25 0c0 .82-.68 1.5-1.5 1.5H5.25v0c-.83 0-1.5-.68-1.5-1.5V8.25v0c0-.83.67-1.5 1.5-1.5h5.25v0c.41 0 .75-.34.75-.75 0-.42-.34-.75-.75-.75H5.25Z"/></g></svg>