<svg viewBox="0 0 24 24" xmlns="http://www.w3.org/2000/svg"><g fill-rule="evenodd"><path d="M15 3.75v0c0-.42.33-.75.75-.75h4.5v0c.41 0 .75.33.75.75v4.5 0c0 .41-.34.75-.75.75 -.42 0-.75-.34-.75-.75V5.56l-4.72 4.72v0c-.29.3-.76.31-1.06.03 -.31-.29-.32-.76-.04-1.06 .01-.02.02-.03.03-.04l4.72-4.72h-2.69v0c-.42 0-.75-.34-.75-.75Z"/><path d="M1.5 4.5v0c0-1.66 1.34-3 3-3h1.37c.86 0 1.61.58 1.819 1.42l1.1 4.423v0c.18.73-.1 1.5-.7 1.95l-1.3.97c-.14.1-.17.24-.13.35l-.001-.001c1.14 3.1 3.59 5.55 6.69 6.69 .1.03.25 0 .35-.13l.97-1.3 -.001 0c.45-.61 1.22-.88 1.95-.7l4.42 1.1c.83.2 1.42.95 1.42 1.82v1.37 0c0 1.65-1.35 3-3 3h-2.25c-8.7 0-15.75-7.06-15.75-15.75V4.46Z"/></g></svg>