<svg viewBox="0 0 24 24" xmlns="http://www.w3.org/2000/svg"><g fill="#0F172A" fill-rule="evenodd"><path d="M15.21 3.21c.29-.3.76-.3 1.06 0l1.71 1.71 1.71-1.72c.29-.3.76-.3 1.06 0 .29.29.29.76 0 1.06l-1.72 1.71 1.71 1.71c.29.29.29.76 0 1.06 -.3.29-.77.29-1.07 0l-1.72-1.72 -1.72 1.71c-.3.29-.77.29-1.07 0 -.3-.3-.3-.77 0-1.07l1.71-1.72 -1.72-1.72c-.3-.3-.3-.77 0-1.07Z"/><path d="M1.5 4.5c0-1.66 1.34-3 3-3h1.37c.86 0 1.61.58 1.81 1.42l1.1 4.42c.18.73-.1 1.5-.7 1.95l-1.3.97c-.14.1-.17.24-.13.35 1.13 3.09 3.59 5.56 6.69 6.69 .1.03.25 0 .35-.13l.97-1.3c.45-.61 1.22-.88 1.95-.7l4.42 1.1c.83.2 1.42.95 1.42 1.81v1.37c0 1.65-1.35 3-3 3H17.2c-8.7 0-15.75-7.06-15.75-15.75V4.45Z"/></g></svg>