<svg viewBox="0 0 24 24" xmlns="http://www.w3.org/2000/svg"><path fill="#0F172A" fill-rule="evenodd" d="M1.5 6c0-1.25 1-2.25 2.25-2.25h16.5c1.24 0 2.25 1 2.25 2.25v12c0 1.24-1.01 2.25-2.25 2.25H3.75C2.5 20.25 1.5 19.24 1.5 18V6ZM3 16.06v1.93c0 .41.33.75.75.75h16.5c.41 0 .75-.34.75-.75v-1.94l-2.69-2.69c-.59-.59-1.54-.59-2.13 0l-.88.87 .96.96c.29.29.29.76 0 1.06 -.3.29-.77.29-1.07 0l-5.16-5.16c-.59-.59-1.54-.59-2.13 0l-4.94 4.93Zm10.125-7.82c0-.63.5-1.13 1.125-1.13 .62 0 1.12.5 1.12 1.12 0 .62-.51 1.12-1.13 1.12 -.63 0-1.125-.51-1.125-1.13Z"/></svg>