<svg viewBox="0 0 24 24" xmlns="http://www.w3.org/2000/svg"><path fill-rule="evenodd" d="M2.25 2.25v0c-.42 0-.75.33-.75.75 0 .41.33.75.75.75H3v10.5 0c0 1.65 1.34 3 3 3h1.21l-1.18 3.51h0c-.14.39.08.81.47.94 .39.13.81-.09.94-.48l.32-.99h8.41l.33.98v0c.14.38.57.58.96.43 .36-.14.56-.54.45-.92l-1.17-3.52h1.2v0c1.65 0 3-1.35 3-3V3.7h.75v0c.41 0 .75-.34.75-.75 0-.42-.34-.75-.75-.75H2.19Zm6.04 16.5l.5-1.5h6.42l.5 1.5H8.29Zm7.46-12v0c0-.42-.34-.75-.75-.75 -.42 0-.75.33-.75.75v6 0c0 .41.33.75.75.75 .41 0 .75-.34.75-.75v-6Zm-3 2.25v0c0-.42-.34-.75-.75-.75 -.42 0-.75.33-.75.75v3.75 0c0 .41.33.75.75.75 .41 0 .75-.34.75-.75V9Zm-3 2.25v0c0-.42-.34-.75-.75-.75 -.42 0-.75.33-.75.75v1.5 0c0 .41.33.75.75.75 .41 0 .75-.34.75-.75v-1.5Z"/></svg>