<svg viewBox="0 0 24 24" xmlns="http://www.w3.org/2000/svg"><path fill="#0F172A" fill-rule="evenodd" d="M2.25 2.25c-.42 0-.75.33-.75.75 0 .41.33.75.75.75H3v10.5c0 1.65 1.34 3 3 3h1.2l-1.18 3.51c-.14.39.08.81.47.94 .39.13.81-.09.94-.48l.32-.99h8.41l.32.98c.13.39.55.6.94.47 .39-.14.6-.56.47-.95l-1.18-3.52h1.2c1.65 0 3-1.35 3-3V3.71h.75c.41 0 .75-.34.75-.75 0-.42-.34-.75-.75-.75H2.16Zm6.54 15h6.41l.5 1.5H8.28l.5-1.5Zm8.08-9c.35-.21.48-.67.27-1.03 -.21-.36-.67-.49-1.03-.28 -1.37.79-2.58 1.82-3.56 3.04l-1.54-1.54c-.3-.3-.77-.3-1.07 0l-3 3c-.3.29-.3.76 0 1.06 .29.29.76.29 1.06 0l2.46-2.47 1.61 1.61c.15.15.37.23.59.21 .22-.02.42-.14.54-.32 .94-1.36 2.17-2.5 3.61-3.33Z"/></svg>