<svg viewBox="0 0 24 24" xmlns="http://www.w3.org/2000/svg"><path fill-rule="evenodd" d="M2.25 2.25v0c-.42 0-.75.33-.75.75 0 .41.33.75.75.75H3v10.5 0c0 1.65 1.34 3 3 3h1.21l-1.18 3.51h0c-.14.39.08.81.47.94 .39.13.81-.09.94-.48l.32-.99h8.41l.33.98v0c.14.38.57.58.96.43 .36-.14.56-.54.45-.92l-1.17-3.52h1.2v0c1.65 0 3-1.35 3-3V3.7h.75v0c.41 0 .75-.34.75-.75 0-.42-.34-.75-.75-.75H2.19Zm6.54 15h6.42l.5 1.5H8.29l.5-1.5Zm8.085-9v0c.36-.21.48-.67.28-1.03 -.21-.37-.67-.49-1.03-.29 -.01 0-.01 0-.01 0v0c-1.37.78-2.57 1.82-3.56 3.05l-1.54-1.54V8.43c-.3-.3-.77-.3-1.06 0l-3 3v-.001c-.31.28-.32.75-.04 1.06 .28.3.75.31 1.06.03 .01-.02.02-.03.03-.04l2.47-2.47 1.61 1.61v-.001c.29.29.76.29 1.06 0 .03-.04.05-.07.08-.11l0 0c.94-1.36 2.17-2.5 3.61-3.33Z"/></svg>