<svg viewBox="0 0 24 24" xmlns="http://www.w3.org/2000/svg"><path fill-rule="evenodd" d="M7.875 1.5C6.835 1.5 6 2.34 6 3.37v2.99c-.43.05-.851.11-1.274.17 -1.46.21-2.48 1.48-2.48 2.917v6.29h-.001c0 1.65 1.34 3 3 3h.27l-.16 1.7v0c-.1 1.03.66 1.94 1.69 2.03 .05 0 .11 0 .16 0h9.53v0c1.03-.01 1.87-.84 1.87-1.88 -.01-.06-.01-.12-.01-.17l-.16-1.71h.27v0c1.65 0 3-1.35 3-3V9.4c0-1.44-1.03-2.7-2.48-2.917l-.001-.001c-.43-.07-.85-.13-1.28-.18v-3c0-1.036-.84-1.875-1.875-1.875H7.81ZM16.5 6.205v-2.83 -.001c0-.21-.17-.375-.375-.375h-8.25v0c-.21 0-.375.16-.375.375V6.2l-.001 0c2.99-.28 6-.28 9 0Zm-.22 8.265c.17.01.31.16.33.33l.52 5.78v0c.01.2-.14.38-.34.4 -.02 0-.03 0-.04 0H7.21v0c-.21 0-.38-.17-.38-.38 -.01-.02 0-.03 0-.04l.52-5.79v0c.01-.18.15-.32.33-.34l0 0c2.84-.3 5.71-.3 8.56 0Zm.96-3.97v0c0-.42.33-.75.75-.75h0v0c.41 0 .75.33.75.75v0 0c0 .41-.34.75-.75.75h-.01v0c-.42 0-.75-.34-.75-.75v-.01Zm-2.25-.75v0c-.42 0-.75.33-.75.75v0c0 .41.33.75.75.75h0v0c.41 0 .75-.34.75-.75v-.01 0c0-.42-.34-.75-.75-.75h-.01Z"/></svg>