<svg viewBox="0 0 24 24" xmlns="http://www.w3.org/2000/svg"><path fill-rule="evenodd" d="M3 4.875C3 3.835 3.84 3 4.875 3h4.5c1.03 0 1.875.84 1.875 1.875v4.5c0 1.03-.84 1.875-1.875 1.875h-4.5v0c-1.04 0-1.88-.84-1.875-1.88v-4.5ZM4.875 4.5v0c-.21 0-.375.16-.375.375v4.5c0 .2.16.375.375.375h4.5v0c.2 0 .375-.17.375-.375v-4.5 0c0-.21-.17-.375-.375-.375h-4.5Zm7.875.375c0-1.036.84-1.875 1.875-1.875h4.5C20.155 3 21 3.84 21 4.875v4.5c0 1.03-.84 1.875-1.875 1.875h-4.5v0c-1.04 0-1.875-.84-1.875-1.875v-4.5Zm1.875-.375v0c-.21 0-.375.16-.375.375v4.5c0 .2.16.375.375.375h4.5v0c.2 0 .375-.17.375-.375v-4.5 0c0-.21-.17-.375-.375-.375h-4.5ZM6 6.75v0c0-.42.33-.75.75-.75h.75v0c.41 0 .75.33.75.75v.75 0c0 .41-.34.75-.75.75h-.75v0c-.42 0-.75-.34-.75-.75v-.75Zm9.75 0v0c0-.42.33-.75.75-.75h.75v0c.41 0 .75.33.75.75v.75 0c0 .41-.34.75-.75.75h-.75v0c-.42 0-.75-.34-.75-.75v-.75ZM3 14.625c0-1.04.84-1.875 1.875-1.875h4.5c1.03 0 1.875.84 1.875 1.875v4.5c0 1.03-.84 1.875-1.875 1.875h-4.5v0C3.835 21 3 20.16 3 19.125v-4.5Zm1.875-.375v0c-.21 0-.375.16-.375.375v4.5c0 .2.16.375.375.375h4.5v0c.2 0 .375-.17.375-.375v-4.5 0c0-.21-.17-.375-.375-.375h-4.5Zm7.875-.75v0c0-.42.33-.75.75-.75h.75v0c.41 0 .75.33.75.75v.75 0c0 .41-.34.75-.75.75h-.75v0c-.42 0-.75-.34-.75-.75v-.75Zm6 0v0c0-.42.33-.75.75-.75h.75v0c.41 0 .75.33.75.75v.75 0c0 .41-.34.75-.75.75h-.75v0c-.42 0-.75-.34-.75-.75v-.75ZM6 16.5v0c0-.42.33-.75.75-.75h.75v0c.41 0 .75.33.75.75v.75 0c0 .41-.34.75-.75.75h-.75v0c-.42 0-.75-.34-.75-.75v-.75Zm9.75 0v0c0-.42.33-.75.75-.75h.75v0c.41 0 .75.33.75.75v.75 0c0 .41-.34.75-.75.75h-.75v0c-.42 0-.75-.34-.75-.75v-.75Zm-3 3v0c0-.42.33-.75.75-.75h.75v0c.41 0 .75.33.75.75v.75 0c0 .41-.34.75-.75.75h-.75v0c-.42 0-.75-.34-.75-.75v-.75Zm6 0v0c0-.42.33-.75.75-.75h.75v0c.41 0 .75.33.75.75v.75 0c0 .41-.34.75-.75.75h-.75v0c-.42 0-.75-.34-.75-.75v-.75Z"/></svg>