<svg viewBox="0 0 24 24" xmlns="http://www.w3.org/2000/svg"><path fill-rule="evenodd" d="M20.432 4.103v0c.4-.11.63-.52.53-.92 -.11-.4-.51-.64-.9-.54L4.12 6.62l-.2.03c-1.43.23-2.43 1.49-2.43 2.91v9.17 0c0 1.65 1.34 3 3 3h15v0c1.65 0 3-1.35 3-3V9.55c0-1.42-1-2.67-2.43-2.909l0 0c-2.4-.4-4.83-.62-7.26-.66l7.616-1.904Zm-9.585 8.56v0c.29.29.29.76 0 1.06l-.01 0h0c-.3.29-.77.29-1.06 0l-.01-.01v0c-.3-.3-.3-.77-.01-1.07 0-.01 0-.01 0-.01l0-.01v-.001c.29-.3.76-.3 1.06 0l0 0Zm-1.07 3.18v-.001c.29.29.76.29 1.06 0 0-.01 0-.01 0-.01l0-.01h0c.29-.3.29-.77 0-1.07 -.01-.01-.01-.01-.01-.01l-.01-.01v0c-.3-.3-.77-.3-1.06-.001l-.01 0H9.74c-.3.29-.3.76 0 1.06l0 0Zm-1.06-1.07v-.001c.29.29.29.76 0 1.06l-.01 0v0c-.3.29-.77.29-1.07 0 -.01-.01-.01-.01-.01-.01l-.01-.01H7.61c-.3-.3-.3-.77 0-1.06l0-.01h0c.29-.3.76-.3 1.06 0l0 0Zm-1.07-1.06h0c.29.29.76.29 1.06 0 0-.01 0-.01 0-.01l0-.01h0c.29-.3.29-.77-.001-1.06l-.01-.01v-.001c-.3-.3-.77-.3-1.06 0l-.01 0h0c-.3.29-.3.76-.001 1.06l0 0Zm1.59-3.98v0c.41 0 .75.33.75.75v0 0c0 .41-.34.75-.75.75h-.01v0c-.42 0-.75-.34-.75-.75v-.01 0c0-.42.33-.75.75-.75h0Zm3.62 3.28v0c.35-.21.48-.67.27-1.03 -.01-.01-.01-.01-.01-.01l-.01-.01H13.1c-.21-.36-.67-.49-1.03-.28 -.01 0-.01 0-.01 0l-.01 0h-.001c-.36.2-.49.66-.28 1.02l0 0h-.001c.2.35.66.48 1.02.27l0-.01Zm-1.38 5.12v0c-.36.2-.82.08-1.03-.28l-.01-.01v0c-.21-.36-.09-.82.27-1.03l0-.01h0c.35-.21.81-.09 1.02.27 0 0 0 0 0 0l0 0v0c.2.35.08.81-.28 1.02l-.01 0Zm.28-6.776l0 0c.2-.36.08-.82-.28-1.03 -.01-.01-.01-.01-.01-.01l-.01-.01 0-.001c-.36-.21-.82-.09-1.03.27l-.01 0v0c-.21.35-.09.81.27 1.02l0 0v0c.35.2.81.08 1.02-.28l0-.01Zm1.36 5.12h-.001c-.21.35-.67.48-1.03.27 -.01-.01-.01-.01-.01-.01l-.01-.01h-.001c-.36-.21-.49-.67-.28-1.03 0-.01 0-.01 0-.01l0-.01v0c.2-.36.66-.49 1.02-.28 0 0 0 0 0 0l0 0v0c.35.2.48.66.27 1.02l-.01 0Zm-.15-1.51v0c.41 0 .75-.34.75-.75v-.01 0c0-.42-.34-.75-.75-.75h-.01v0c-.42 0-.75.33-.75.75v0c0 .41.33.75.75.75h0Zm-3.75 2.24v0c.41 0 .75.33.75.75v0 0c0 .41-.34.75-.75.75H9.2v0c-.42 0-.75-.34-.75-.75v-.01 0c0-.42.33-.75.75-.75h0Zm-2.88-.47h0c.35-.21.48-.67.27-1.03 -.01-.01-.01-.01-.01-.01l-.01-.01v-.001c-.21-.36-.67-.49-1.03-.28 -.01 0-.01 0-.01 0l-.01 0H5.53c-.36.2-.49.66-.28 1.02 0 0 0 0 0 0l0 0H5.25c.2.35.66.48 1.02.27l0-.01Zm1.36-5.12h0c-.36.2-.82.08-1.03-.28 -.01-.01-.01-.01-.01-.01l-.01-.01H6.64c-.21-.36-.09-.82.27-1.03 0-.01 0-.01 0-.01l0-.01v0c.35-.21.81-.09 1.02.27 0 0 0 0 0 0l0 0v0c.2.35.08.81-.28 1.02l-.01 0Zm.28 6.21v0c.2-.36.08-.82-.28-1.03l-.01-.01h0c-.36-.21-.82-.09-1.03.27 -.01 0-.01 0-.01 0l-.01 0h0c-.21.35-.09.81.27 1.02l0 0v0c.35.2.81.08 1.02-.28l0-.01ZM6.59 12.71v0c-.21.35-.67.48-1.03.27 -.01-.01-.01-.01-.01-.01l-.01-.01v0c-.36-.21-.49-.67-.28-1.03 0-.01 0-.01 0-.01l0-.01v0c.2-.36.66-.49 1.02-.28 0 0 0 0 0 0l0 0h0c.35.2.48.66.27 1.02l-.01 0Zm-1.15 2.24v0c.41 0 .75-.34.75-.75v-.01 0c0-.42-.34-.75-.75-.75h-.01v0c-.42 0-.75.33-.75.75v0c0 .41.33.75.75.75h0Zm11.74-4.51v0c.82 0 1.5.67 1.5 1.5 0 .82-.68 1.5-1.5 1.5v0c-.83 0-1.5-.68-1.5-1.5 0-.83.67-1.5 1.5-1.5Zm1.5 6v0c0-.83-.68-1.5-1.5-1.5 -.83 0-1.5.67-1.5 1.5v0c0 .82.67 1.5 1.5 1.5 .82 0 1.5-.68 1.5-1.5Z"/></svg>