<svg viewBox="0 0 24 24" xmlns="http://www.w3.org/2000/svg"><path fill="#0F172A" fill-rule="evenodd" d="M12 1.5c-1.93 0-3.82.11-5.68.32 -1.5.17-2.58 1.45-2.58 2.92v16.99c0 .24.12.48.32.62 .2.13.46.16.69.07l3.47-1.39 3.47 1.38c.17.07.37.07.55 0l3.47-1.39 3.47 1.38c.23.09.49.06.69-.08 .2-.14.32-.38.32-.63v-17c0-1.47-1.08-2.76-2.58-2.93 -1.87-.22-3.76-.33-5.68-.33Zm3.53 7.28c.29-.3.29-.77 0-1.07 -.3-.3-.77-.3-1.07 0l-6.01 6c-.3.29-.3.76 0 1.06 .29.29.76.29 1.06 0l5.99-6Zm-6.91.21c0-.63.5-1.125 1.125-1.125 .62 0 1.12.5 1.12 1.125 0 .62-.51 1.125-1.13 1.125 -.63 0-1.125-.51-1.125-1.125Zm5.625 3.37c-.63 0-1.125.5-1.125 1.12 0 .62.5 1.125 1.125 1.125 .62 0 1.12-.51 1.12-1.125 0-.63-.51-1.13-1.13-1.13Z"/></svg>