<svg viewBox="0 0 24 24" xmlns="http://www.w3.org/2000/svg"><path fill="#0F172A" fill-rule="evenodd" d="M12 1.5c-1.93 0-3.82.11-5.68.32 -1.5.17-2.58 1.45-2.58 2.92v16.99c0 .24.12.48.32.62 .2.13.46.16.69.07l3.47-1.39 3.47 1.38c.17.07.37.07.55 0l3.47-1.39 3.47 1.38c.23.09.49.06.69-.08 .2-.14.32-.38.32-.63v-17c0-1.47-1.08-2.76-2.58-2.93 -1.87-.22-3.76-.33-5.68-.33Zm-.97 6.53c.29-.3.29-.77 0-1.07 -.3-.3-.77-.3-1.07 0L7.71 9.21c-.3.29-.3.76 0 1.06l2.25 2.25c.29.29.76.29 1.06 0 .29-.3.29-.77 0-1.07l-.97-.97h3.06c1.03 0 1.875.83 1.875 1.87 0 1.03-.84 1.87-1.875 1.87h-1.125c-.42 0-.75.33-.75.75 0 .41.33.75.75.75h1.125c1.86 0 3.375-1.52 3.375-3.38 0-1.87-1.52-3.38-3.375-3.38h-3.07l.96-.97Z"/></svg>