<svg viewBox="0 0 24 24" xmlns="http://www.w3.org/2000/svg"><path fill-rule="evenodd" d="M3.75 4.5v0c0-.42.33-.75.75-.75h.75c8.28 0 15 6.71 15 15v.75 0c0 .41-.34.75-.75.75h-.75v0c-.42 0-.75-.34-.75-.75v-.75C18 11.7 12.292 6 5.25 6H4.5v0c-.42 0-.75-.34-.75-.75V4.5Zm0 6.75v0c0-.42.33-.75.75-.75h.75 0c4.55 0 8.25 3.69 8.25 8.25v.75 0c0 .41-.34.75-.75.75H12v0c-.42 0-.75-.34-.75-.75v-.75 0c0-3.32-2.69-6-6-6H4.5v0c-.42 0-.75-.34-.75-.75v-.75Zm0 7.5v0c0-.83.67-1.5 1.5-1.5 .82 0 1.5.67 1.5 1.5v0c0 .82-.68 1.5-1.5 1.5 -.83 0-1.5-.68-1.5-1.5Z"/></svg>