<svg viewBox="0 0 24 24" xmlns="http://www.w3.org/2000/svg"><g><path d="M4.08 5.227v-.001c.35-1.32 1.53-2.23 2.89-2.23h10.04v0c1.35-.01 2.54.91 2.9 2.22l2.11 7.92v0c-.94-.75-2.09-1.16-3.29-1.16H5.23v0c-1.2-.01-2.36.4-3.29 1.15l2.114-7.93Z"/><path fill-rule="evenodd" d="M5.25 13.5v0c-2.08 0-3.75 1.67-3.75 3.75C1.5 19.32 3.17 21 5.25 21h13.5v0c2.07 0 3.75-1.68 3.75-3.75 0-2.08-1.68-3.75-3.75-3.75H5.25Zm10.5 4.5v0c.41 0 .75-.34.75-.75 0-.42-.34-.75-.75-.75v0c-.42 0-.75.33-.75.75 0 .41.33.75.75.75Zm3.75-.75v0c0 .41-.34.75-.75.75 -.42 0-.75-.34-.75-.75v0c0-.42.33-.75.75-.75 .41 0 .75.33.75.75Z"/></g></svg>