<svg viewBox="0 0 24 24" xmlns="http://www.w3.org/2000/svg"><g><path d="M5.507 4.048v0c.56-.67 1.4-1.05 2.27-1.05h8.43 -.001c.87 0 1.7.38 2.27 1.04l1.72 2v0c-.24-.04-.48-.06-.72-.06h-15c-.25 0-.49.02-.72.05l1.72-2.01Z"/><path fill-rule="evenodd" d="M1.5 10.5v0c0-1.66 1.34-3 3-3h15v0c1.65 0 3 1.34 3 3 0 1.65-1.35 3-3 3h-15v0c-1.66 0-3-1.35-3-3Zm15 0v0c0 .41-.34.75-.75.75 -.42 0-.75-.34-.75-.75v0c0-.42.33-.75.75-.75 .41 0 .75.33.75.75Zm2.25.75v0c.41 0 .75-.34.75-.75 0-.42-.34-.75-.75-.75v0c-.42 0-.75.33-.75.75 0 .41.33.75.75.75ZM4.5 15v0c-1.66 0-3 1.34-3 3 0 1.65 1.34 3 3 3h15v0c1.65 0 3-1.35 3-3 0-1.66-1.35-3-3-3h-15Zm11.25 3.75v0c.41 0 .75-.34.75-.75 0-.42-.34-.75-.75-.75v0c-.42 0-.75.33-.75.75 0 .41.33.75.75.75ZM19.5 18v0c0 .41-.34.75-.75.75 -.42 0-.75-.34-.75-.75v0c0-.42.33-.75.75-.75 .41 0 .75.33.75.75Z"/></g></svg>