<svg viewBox="0 0 24 24" xmlns="http://www.w3.org/2000/svg"><path fill-rule="evenodd" d="M12.516 2.17v-.001c-.29-.28-.75-.28-1.032 0v0c-2.13 2.01-4.95 3.12-7.88 3.08v-.001c-.33-.01-.62.2-.73.51l-.001 0c-.43 1.28-.64 2.63-.64 3.98 0 5.942 4.06 10.933 9.563 12.34h0c.12.03.25.03.37 0 5.49-1.42 9.563-6.41 9.563-12.35 0-1.39-.23-2.73-.64-3.99v0c-.11-.32-.4-.53-.73-.516l-.15 0c-3 0-5.72-1.17-7.74-3.08Zm3.09 8.016v0c.24-.34.18-.81-.15-1.06 -.34-.25-.81-.19-1.06.14 -.01 0-.02.01-.03.02l-3.24 4.53 -1.63-1.63 -.001-.001c-.31-.29-.78-.27-1.06.03 -.27.28-.27.73-.001 1.02l2.25 2.25h0c.29.29.76.29 1.06-.01 .02-.03.05-.07.07-.1l3.75-5.25Z"/></svg>