<svg viewBox="0 0 24 24" xmlns="http://www.w3.org/2000/svg"><path fill="#0F172A" fill-rule="evenodd" d="M12.51 2.16c-.29-.28-.75-.28-1.04 0 -2.02 1.9-4.74 3.08-7.74 3.08 -.05 0-.1-.01-.15-.01 -.33-.01-.62.2-.73.51 -.42 1.25-.64 2.59-.64 3.98 0 5.94 4.06 10.93 9.56 12.34 .12.03.25.03.37 0 5.49-1.42 9.56-6.41 9.56-12.35 0-1.4-.23-2.74-.64-3.99 -.11-.32-.4-.52-.73-.52 -.05 0-.1 0-.15 0 -3 0-5.72-1.18-7.74-3.09Zm3.09 8.01c.24-.34.16-.81-.18-1.05 -.34-.25-.81-.17-1.05.17l-3.24 4.52 -1.63-1.63c-.3-.3-.77-.3-1.07 0 -.3.29-.3.76 0 1.06l2.25 2.25c.15.15.37.23.59.21 .21-.02.42-.14.54-.32l3.75-5.25Z"/></svg>