<svg viewBox="0 0 24 24" xmlns="http://www.w3.org/2000/svg"><path fill="#0F172A" fill-rule="evenodd" d="M11.48 2.16c.28-.28.74-.28 1.03 0 2.01 1.9 4.73 3.08 7.73 3.08 .04 0 .09-.01.14-.01 .32-.01.61.2.72.51 .41 1.25.63 2.59.63 3.98 0 5.94-4.07 10.93-9.57 12.34 -.13.03-.26.03-.38 0 -5.5-1.42-9.57-6.41-9.57-12.35 0-1.4.22-2.74.63-3.99 .1-.32.39-.52.72-.52 .04 0 .09 0 .14 0 2.99 0 5.71-1.18 7.73-3.09Zm.51 6.08c.41 0 .75.33.75.75v3.75c0 .41-.34.75-.75.75 -.42 0-.75-.34-.75-.75V8.98c0-.42.33-.75.75-.75Zm0 6.75c-.42 0-.75.33-.75.75v0c0 .41.33.75.75.75h0c.41 0 .75-.34.75-.75v-.01c0-.42-.34-.75-.75-.75h-.01Z"/></svg>