<svg viewBox="0 0 24 24" xmlns="http://www.w3.org/2000/svg"><path fill="#0F172A" fill-rule="evenodd" d="M7.5 6v.75H5.51c-.96 0-1.77.72-1.87 1.67L2.37 20.41c-.12 1.1.75 2.07 1.86 2.07h15.5c1.11 0 1.98-.97 1.86-2.08l-1.27-12c-.11-.96-.91-1.68-1.87-1.68h-1.99v-.75c0-2.49-2.02-4.5-4.5-4.5 -2.49 0-4.5 2.01-4.5 4.5ZM12 3c-1.66 0-3 1.34-3 3v.75h6V6c0-1.66-1.35-3-3-3Zm-3 8.25c0 1.65 1.34 3 3 3 1.65 0 3-1.35 3-3v-.75c0-.42.33-.75.75-.75 .41 0 .75.33.75.75v.75c0 2.48-2.02 4.5-4.5 4.5 -2.49 0-4.5-2.02-4.5-4.5v-.75c0-.42.33-.75.75-.75 .41 0 .75.33.75.75v.75Z"/></svg>