<svg viewBox="0 0 24 24" xmlns="http://www.w3.org/2000/svg"><path fill="#0F172A" fill-rule="evenodd" d="M2.46 2.46c.29-.3.76-.3 1.06 0l8.4 8.4c.02-.01.04-.01.06-.01 .62 0 1.125.5 1.125 1.12 0 .02-.01.04-.01.06l1.46 1.46c.67-1.16.52-2.66-.47-3.65 -.3-.3-.3-.77 0-1.07 .29-.3.76-.3 1.06 0 1.57 1.57 1.73 4.03.48 5.78l1.07 1.07c1.83-2.36 1.66-5.76-.5-7.93 -.3-.3-.3-.77 0-1.07 .29-.3.76-.3 1.06 0 2.75 2.74 2.91 7.1.5 10.05l1.06 1.06c2.99-3.54 2.82-8.84-.51-12.18 -.3-.3-.3-.77 0-1.07 .29-.3.76-.3 1.06 0 3.92 3.92 4.09 10.17.51 14.3l1.59 1.59c.29.29.29.76 0 1.06 -.3.29-.77.29-1.07 0l-2.11-2.11 -2.13-2.13 -.01-.01 -4.71-4.71c-.05-.04-.09-.08-.13-.13L2.35 3.39c-.3-.3-.3-.77-.001-1.07Zm1.18 4.42c.36.18.51.64.32 1 -1.74 3.38-1.18 7.63 1.65 10.46 .29.29.29.76 0 1.06 -.3.29-.77.29-1.07 0C1.23 16.09.59 11.13 2.61 7.19c.18-.37.64-.52 1-.33Zm2.18 2.24c.39.13.6.55.47.94 -.71 2.09-.23 4.49 1.44 6.15 .29.29.29.76 0 1.06 -.3.29-.77.29-1.07 0 -2.09-2.09-2.69-5.09-1.81-7.7 .13-.4.55-.61.94-.48Zm2.34 2.65c.41-.06.78.22.84.63 .08.62.37 1.21.84 1.69 .29.29.29.76 0 1.06 -.3.29-.77.29-1.07 0 -.72-.72-1.15-1.62-1.28-2.55 -.06-.42.22-.79.63-.85Z"/></svg>