<svg viewBox="0 0 24 24" xmlns="http://www.w3.org/2000/svg"><path fill-rule="evenodd" d="M5.636 4.57v0c.29.29.29.76 0 1.06h-.001c-3.52 3.51-3.52 9.21-.01 12.72 0 0 0 0 0 0v0c.28.3.26.77-.04 1.06 -.29.26-.74.26-1.03 0C.45 15.31.45 8.66 4.555 4.56v0c.29-.3.76-.3 1.06 0Zm12.72 0v0c.29-.3.76-.3 1.06-.001 4.1 4.1 4.1 10.74 0 14.85h0c-.29.29-.77.3-1.07.01 -.3-.29-.31-.77-.02-1.07 0-.01.01-.02.01-.02v0c3.51-3.52 3.51-9.22 0-12.73 -.01-.01-.01-.01-.01-.01v0c-.3-.3-.3-.77 0-1.06ZM7.74 6.69v0c.29.29.29.76 0 1.06 -.01 0-.01 0-.01 0h0c-2.35 2.34-2.35 6.14-.001 8.48v0c.28.29.27.77-.02 1.06 -.3.28-.76.28-1.05 0h0c-2.93-2.93-2.93-7.68-.01-10.61 0-.01 0-.01 0-.01v0c.29-.3.76-.3 1.06 0Zm8.48 0v0c.29-.3.76-.3 1.06-.001v-.001c2.92 2.92 2.92 7.67 0 10.6 -.01 0-.01 0-.01 0v0c-.31.28-.78.26-1.06-.04 -.27-.29-.27-.74 0-1.03v0c2.34-2.35 2.34-6.15 0-8.49 -.01-.01-.01-.01-.01-.01v0c-.3-.3-.3-.77 0-1.06ZM9.85 8.81V8.8c.29.29.29.76 0 1.06v0c-1.18 1.17-1.18 3.07-.01 4.24 0 0 0 0 0 0v0c.29.28.3.76.01 1.06 -.29.29-.77.3-1.07.01 -.01-.01-.02-.02-.02-.02v0C7 13.39 7 10.54 8.76 8.78v0c.29-.3.76-.3 1.06 0Zm4.24 0V8.8c.29-.3.76-.3 1.06-.01 0 0 0 0 0 0v0c1.75 1.75 1.75 4.6 0 6.36 -.01 0-.01 0-.01 0v0c-.31.28-.78.26-1.06-.04 -.27-.29-.27-.74 0-1.03v0c1.17-1.18 1.17-3.08 0-4.25 -.01-.01-.01-.01-.01-.01h-.001c-.3-.3-.3-.77 0-1.06Zm-3.25 3.18v0c0-.63.5-1.125 1.125-1.125 .62 0 1.125.5 1.125 1.125v0c0 .62-.51 1.12-1.125 1.12 -.63 0-1.125-.51-1.125-1.13Z"/></svg>