<svg viewBox="0 0 24 24" xmlns="http://www.w3.org/2000/svg"><path fill-rule="evenodd" d="M2.47 2.47v0c.29-.3.76-.3 1.06-.001l8.407 8.407v0c.62-.04 1.15.44 1.186 1.06 0 .04 0 .08 0 .12l1.46 1.46v0c.69-1.18.5-2.68-.47-3.65V9.86c-.3-.3-.3-.77-.01-1.061 .29-.3.76-.3 1.061-.01 0 0 0 0 0 0h-.001c1.55 1.55 1.75 3.99.48 5.79l1.07 1.07v0c1.85-2.39 1.64-5.79-.5-7.923V7.73c-.29-.31-.27-.78.03-1.06 .28-.27.73-.27 1.02 0l0-.001c2.72 2.72 2.94 7.06.5 10.05l1.064 1.06 -.001-.001c3.02-3.58 2.8-8.87-.51-12.18V5.59c-.29-.31-.27-.78.03-1.06 .28-.27.73-.27 1.02 0 3.92 3.92 4.093 10.175.51 14.3l1.59 1.59v-.001c.3.28.31.75.03 1.06 -.29.3-.76.31-1.06.03 -.02-.02-.03-.03-.04-.04l-2.11-2.11 -2.13-2.122h-.01l-4.71-4.71v0c-.05-.04-.09-.08-.13-.13L2.36 3.45v0c-.3-.3-.3-.77-.01-1.07 0-.01 0-.01 0-.01ZM3.65 6.89v0c.36.18.51.64.32 1 -.01 0-.01 0-.01 0l-.001 0c-1.78 3.47-1.11 7.7 1.65 10.46h-.001c.3.28.31.75.03 1.06 -.29.3-.76.31-1.06.03 -.02-.02-.03-.03-.04-.04 -3.31-3.31-3.95-8.26-1.93-12.21l0 0c.18-.37.64-.52 1-.33 0 0 0 0 0 0Zm2.181 2.24v0c.39.13.6.55.47.94 -.01 0-.01 0-.01 0v0c-.73 2.16-.17 4.54 1.44 6.15l-.001 0c.28.3.26.77-.04 1.06 -.29.26-.74.26-1.03 0H6.66c-2.02-2.02-2.72-5-1.81-7.7v0c.13-.4.55-.61.94-.48 0 0 0 0 0 0Zm2.341 2.65l-.001-.001c.41-.06.78.22.84.63 0 0 0 0 0 0 .08.62.37 1.218.84 1.69V14.1c.29.29.29.76-.01 1.061 -.3.29-.77.29-1.07 0v0c-.69-.69-1.14-1.59-1.28-2.55v0c-.06-.42.22-.79.63-.85Z"/></svg>