<svg viewBox="0 0 24 24" xmlns="http://www.w3.org/2000/svg"><g><path d="M13.5 4.06c0-1.34-1.62-2.005-2.56-1.06l-4.5 4.5H4.5c-1.141 0-2.32.66-2.66 1.9l-.001-.001c-.24.84-.35 1.71-.35 2.59 0 .89.121 1.76.35 2.59 .34 1.24 1.51 1.9 2.65 1.9h1.93l4.5 4.5c.94.94 2.561.27 2.561-1.06V4.039Zm5.084 1.04V5.09c.29-.3.76-.3 1.06 0 3.808 3.8 3.808 9.98 0 13.78v-.001c-.29.3-.76.31-1.06.03 -.31-.29-.32-.76-.04-1.06 .01-.02.02-.03.03-.04v0c3.22-3.23 3.22-8.45 0-11.67 -.01-.01-.01-.01-.01-.01v0c-.3-.3-.3-.77 0-1.06Z"/><path d="M15.932 7.75v0c.29-.3.76-.3 1.06-.01 0 0 0 0 0 0v0c2.34 2.34 2.34 6.14 0 8.48 -.01 0-.01 0-.01 0v0c-.3.28-.78.27-1.07-.02 -.29-.3-.29-.76 0-1.05v0c1.75-1.76 1.75-4.61 0-6.37 -.01-.01-.01-.01-.01-.01h-.001c-.3-.3-.3-.77 0-1.06Z"/></g></svg>