<svg viewBox="0 0 24 24" xmlns="http://www.w3.org/2000/svg"><g fill="#0F172A"><path d="M13.5 4.06c0-1.34-1.62-2.01-2.57-1.07l-4.5 4.5H4.49c-1.15 0-2.32.66-2.66 1.9 -.23.82-.35 1.69-.35 2.59 0 .89.12 1.76.34 2.59 .34 1.24 1.51 1.9 2.65 1.9H6.4l4.49 4.5c.94.94 2.56.27 2.56-1.07V4.02Z"/><path d="M18.58 5.1c.29-.3.76-.3 1.06 0 3.8 3.8 3.8 9.98 0 13.78 -.3.29-.77.29-1.07 0 -.3-.3-.3-.77 0-1.07 3.22-3.23 3.22-8.45 0-11.67 -.3-.3-.3-.77 0-1.07Z"/><path d="M15.93 7.75c.29-.3.76-.3 1.06 0 2.34 2.34 2.34 6.14 0 8.48 -.3.29-.77.29-1.07 0 -.3-.3-.3-.77 0-1.07 1.75-1.76 1.75-4.61 0-6.37 -.3-.3-.3-.77 0-1.07Z"/></g></svg>