<svg viewBox="0 0 24 24" xmlns="http://www.w3.org/2000/svg"><path d="M13.5 4.06c0-1.34-1.62-2.005-2.56-1.06l-4.5 4.5H4.5c-1.141 0-2.32.66-2.66 1.9l-.001-.001c-.24.84-.35 1.71-.35 2.59 0 .89.121 1.76.35 2.59 .34 1.24 1.51 1.9 2.65 1.9h1.93l4.5 4.5c.94.94 2.561.27 2.561-1.06V4.039Zm4.28 5.16v0c-.29-.31-.76-.32-1.06-.04 -.31.28-.32.75-.04 1.06 .01.01.02.02.03.03l1.72 1.72 -1.72 1.72v0c-.29.3-.27.77.03 1.06 .28.26.73.26 1.02 0l1.72-1.72 1.72 1.72v0c.28.3.75.31 1.06.03 .3-.29.31-.76.03-1.06 -.02-.02-.03-.03-.04-.04l-1.72-1.72 1.72-1.72v0c.28-.31.26-.78-.04-1.06 -.29-.27-.74-.27-1.03 0l-1.72 1.72 -1.72-1.72Z"/></svg>