<svg viewBox="0 0 24 24" xmlns="http://www.w3.org/2000/svg"><g fill="#0F172A"><path d="M6 3C4.34 3 3 4.34 3 6v2.25c0 1.65 1.34 3 3 3h2.25c1.65 0 3-1.35 3-3V6c0-1.66-1.35-3-3-3H6Z"/><path d="M15.75 3c-1.66 0-3 1.34-3 3v2.25c0 1.65 1.34 3 3 3H18c1.65 0 3-1.35 3-3V6c0-1.66-1.35-3-3-3h-2.25Z"/><path d="M6 12.75c-1.66 0-3 1.34-3 3V18c0 1.65 1.34 3 3 3h2.25c1.65 0 3-1.35 3-3v-2.25c0-1.66-1.35-3-3-3H6Z"/><path d="M17.625 13.5c0-.42-.34-.75-.75-.75 -.42 0-.75.33-.75.75v2.625H13.5c-.42 0-.75.33-.75.75 0 .41.33.75.75.75h2.625v2.625c0 .41.33.75.75.75 .41 0 .75-.34.75-.75v-2.625h2.625c.41 0 .75-.34.75-.75 0-.42-.34-.75-.75-.75h-2.625V13.5Z"/></g></svg>