<svg viewBox="0 0 24 24" xmlns="http://www.w3.org/2000/svg"><g fill="#0F172A"><path d="M12 2.25c.41 0 .75.33.75.75v2.25c0 .41-.34.75-.75.75 -.42 0-.75-.34-.75-.75V3c0-.42.33-.75.75-.75Z"/><path d="M7.5 12c0-2.49 2.01-4.5 4.5-4.5 2.48 0 4.5 2.01 4.5 4.5 0 2.48-2.02 4.5-4.5 4.5 -2.49 0-4.5-2.02-4.5-4.5Z"/><path d="M18.89 6.16c.29-.3.29-.77 0-1.07 -.3-.3-.77-.3-1.07 0l-1.6 1.59c-.3.29-.3.76 0 1.06 .29.29.76.29 1.06 0l1.59-1.6Z"/><path d="M21.75 12c0 .41-.34.75-.75.75h-2.25c-.42 0-.75-.34-.75-.75 0-.42.33-.75.75-.75H21c.41 0 .75.33.75.75Z"/><path d="M17.83 18.89c.29.29.76.29 1.06 0 .29-.3.29-.77 0-1.07l-1.6-1.6c-.3-.3-.77-.3-1.07 0 -.3.29-.3.76 0 1.06l1.59 1.59Z"/><path d="M12 18c.41 0 .75.33.75.75V21c0 .41-.34.75-.75.75 -.42 0-.75-.34-.75-.75v-2.25c0-.42.33-.75.75-.75Z"/><path d="M7.75 17.3c.29-.3.29-.77 0-1.07 -.3-.3-.77-.3-1.07 0l-1.6 1.59c-.3.29-.3.76 0 1.06 .29.29.76.29 1.06 0l1.59-1.6Z"/><path d="M6 12c0 .41-.34.75-.75.75H3c-.42 0-.75-.34-.75-.75 0-.42.33-.75.75-.75h2.25c.41 0 .75.33.75.75Z"/><path d="M6.69 7.75c.29.29.76.29 1.06 0 .29-.3.29-.77 0-1.07l-1.6-1.6c-.3-.3-.77-.3-1.07 0 -.3.29-.3.76 0 1.06l1.59 1.59Z"/></g></svg>