<svg viewBox="0 0 24 24" xmlns="http://www.w3.org/2000/svg"><path d="M12 2.25v0c.41 0 .75.33.75.75v2.25 0c0 .41-.34.75-.75.75 -.42 0-.75-.34-.75-.75V3v0c0-.42.33-.75.75-.75ZM7.5 12v0c0-2.49 2.01-4.5 4.5-4.5 2.48 0 4.5 2.01 4.5 4.5v0c0 2.48-2.02 4.5-4.5 4.5 -2.49 0-4.5-2.02-4.5-4.5Zm11.39-5.84v0c.28-.31.26-.78-.04-1.06 -.29-.27-.74-.27-1.03-.001l-1.6 1.59v0c-.3.28-.31.76-.02 1.06 .28.29.76.3 1.06.01 0-.01.01-.02.01-.02l1.59-1.59Zm2.85 5.83v0c0 .41-.34.75-.75.75h-2.25v0c-.42 0-.75-.34-.75-.75 0-.42.33-.75.75-.75h2.25v0c.41 0 .75.33.75.75Zm-3.92 6.89v0c.3.28.77.26 1.06-.04 .26-.29.26-.74 0-1.03l-1.59-1.6v0c-.29-.3-.77-.31-1.07-.02 -.3.28-.31.76-.02 1.06 0 0 .01.01.01.01l1.59 1.59Zm-5.84-.9v0c.41 0 .75.33.75.75v2.25 0c0 .41-.34.75-.75.75 -.42 0-.75-.34-.75-.75v-2.25 0c0-.42.33-.75.75-.75Zm-4.242-.7h-.001c.28-.3.27-.78-.02-1.07 -.3-.29-.76-.29-1.05 0l-1.6 1.59h-.001c-.29.29-.28.77.01 1.06 .29.28.75.28 1.04 0l1.59-1.59ZM5.98 11.97v0c0 .41-.34.75-.75.75H2.98v0c-.42 0-.75-.34-.75-.75 0-.42.33-.75.75-.75h2.25v0c.41 0 .75.33.75.75Zm.69-4.243v0c.3.28.77.26 1.06-.04 .26-.29.26-.74 0-1.03l-1.59-1.6h-.001c-.3-.29-.78-.28-1.07.01 -.29.29-.29.75-.01 1.04l1.59 1.59Z"/></svg>