<svg viewBox="0 0 24 24" xmlns="http://www.w3.org/2000/svg"><path fill="#0F172A" fill-rule="evenodd" d="M1.5 5.62c0-1.04.83-1.88 1.87-1.88h17.25c1.03 0 1.875.83 1.875 1.87v12.75c0 1.03-.84 1.875-1.875 1.875H3.37c-1.04 0-1.875-.84-1.875-1.875V5.61ZM21 9.37c0-.21-.17-.38-.375-.38h-7.5c-.21 0-.375.16-.375.37v1.5c0 .2.16.37.375.37h7.5c.2 0 .375-.17.375-.38v-1.5Zm0 3.75c0-.21-.17-.375-.375-.375h-7.5c-.21 0-.375.16-.375.375v1.5c0 .2.16.375.375.375h7.5c.2 0 .375-.17.375-.375v-1.5Zm0 3.75c0-.21-.17-.375-.375-.375h-7.5c-.21 0-.375.16-.375.375v1.5c0 .2.16.375.375.375h7.5c.2 0 .375-.17.375-.375v-1.5Zm-10.13 1.875c.2 0 .37-.17.37-.375v-1.5c0-.21-.17-.375-.38-.375h-7.5c-.21 0-.375.16-.375.375v1.5c0 .2.16.375.37.375h7.5Zm-7.5-3.75h7.5c.2 0 .37-.17.37-.375v-1.5c0-.21-.17-.375-.38-.375h-7.5c-.21 0-.375.16-.375.375v1.5c0 .2.16.375.37.375Zm-.001-3.75h7.5c.2 0 .37-.17.37-.38v-1.5c0-.21-.17-.38-.38-.38h-7.5c-.21 0-.375.16-.375.37v1.5c0 .2.16.37.37.37Z"/></svg>