<svg viewBox="0 0 24 24" xmlns="http://www.w3.org/2000/svg"><path fill="#0F172A" fill-rule="evenodd" d="M1.5 6.375c0-1.04.83-1.875 1.87-1.875h17.25c1.03 0 1.875.83 1.875 1.875v3.02c0 .26-.15.51-.38.64 -.68.39-1.13 1.11-1.13 1.94 0 .83.45 1.55 1.12 1.94 .23.13.37.38.37.64v3.02c0 1.03-.84 1.875-1.875 1.875H3.35c-1.04 0-1.875-.84-1.875-1.875v-3.03c0-.27.14-.52.37-.65 .67-.4 1.12-1.12 1.12-1.95 0-.84-.46-1.56-1.13-1.95 -.24-.14-.38-.39-.38-.65V6.31Zm15-1.125c.41 0 .75.33.75.75v.75c0 .41-.34.75-.75.75 -.42 0-.75-.34-.75-.75V6c0-.42.33-.75.75-.75Zm.75 4.5c0-.42-.34-.75-.75-.75 -.42 0-.75.33-.75.75v.75c0 .41.33.75.75.75 .41 0 .75-.34.75-.75v-.75Zm-.75 3c.41 0 .75.33.75.75v.75c0 .41-.34.75-.75.75 -.42 0-.75-.34-.75-.75v-.75c0-.42.33-.75.75-.75Zm.75 4.5c0-.42-.34-.75-.75-.75 -.42 0-.75.33-.75.75V18c0 .41.33.75.75.75 .41 0 .75-.34.75-.75v-.75ZM6 12c0-.42.33-.75.75-.75H12c.41 0 .75.33.75.75 0 .41-.34.75-.75.75H6.75c-.42 0-.75-.34-.75-.75Zm.75 2.25c-.42 0-.75.33-.75.75 0 .41.33.75.75.75h3c.41 0 .75-.34.75-.75 0-.42-.34-.75-.75-.75h-3Z"/></svg>