<svg viewBox="0 0 24 24" xmlns="http://www.w3.org/2000/svg"><g fill="#0F172A"><path d="M3.37 4.5c-1.04 0-1.88.83-1.88 1.875V13.5h12V6.375c0-1.04-.84-1.875-1.875-1.875h-8.25Z"/><path d="M13.5 15h-12v2.625c0 1.03.83 1.875 1.87 1.875h.37c0-1.66 1.34-3 3-3 1.65 0 3 1.34 3 3h3c.41 0 .75-.34.75-.75V15Z"/><path d="M8.25 19.5c0-.83-.68-1.5-1.5-1.5 -.83 0-1.5.67-1.5 1.5 0 .82.67 1.5 1.5 1.5 .82 0 1.5-.68 1.5-1.5Z"/><path d="M15.75 6.75c-.42 0-.75.33-.75.75v11.25c0 .08.01.17.04.24 .23-1.42 1.47-2.5 2.95-2.5 1.64 0 2.97 1.32 2.99 2.96 .85-.18 1.52-.94 1.46-1.89 -.24-3.79-1.59-7.26-3.74-10.11 -.36-.48-.91-.73-1.48-.73H15.7Z"/><path d="M19.5 19.5c0-.83-.68-1.5-1.5-1.5 -.83 0-1.5.67-1.5 1.5 0 .82.67 1.5 1.5 1.5 .82 0 1.5-.68 1.5-1.5Z"/></g></svg>