<svg viewBox="0 0 24 24" xmlns="http://www.w3.org/2000/svg"><path fill="#0F172A" fill-rule="evenodd" d="M18.68 19.09c1.88-1.78 3.06-4.3 3.06-7.1 0-5.39-4.37-9.75-9.75-9.75 -5.39 0-9.75 4.36-9.75 9.75 0 2.79 1.17 5.31 3.06 7.09 1.74 1.64 4.09 2.65 6.68 2.65 2.58 0 4.93-1.01 6.68-2.66ZM6.13 17.8c1.37-1.72 3.48-2.82 5.85-2.82 2.36 0 4.48 1.09 5.85 2.81 -1.5 1.5-3.57 2.43-5.86 2.43 -2.29 0-4.37-.94-5.86-2.44Zm9.6-8.82c0 2.07-1.68 3.75-3.75 3.75 -2.08 0-3.75-1.68-3.75-3.75 0-2.08 1.67-3.75 3.75-3.75 2.07 0 3.75 1.67 3.75 3.75Z"/></svg>