<svg viewBox="0 0 24 24" xmlns="http://www.w3.org/2000/svg"><path d="M6.25 6.375v0c0-2.28 1.84-4.125 4.125-4.13 2.27 0 4.125 1.84 4.125 4.12v0c0 2.27-1.85 4.12-4.125 4.12 -2.28 0-4.13-1.85-4.125-4.125Zm-3 12.75h0c0-3.94 3.18-7.13 7.12-7.125 3.93 0 7.12 3.18 7.12 7.125v0l-.01.11v0c-.01.25-.15.49-.37.63h0c-2.05 1.22-4.38 1.87-6.77 1.87 -2.48 0-4.79-.69-6.76-1.88v0c-.23-.14-.36-.38-.37-.63l-.01-.13ZM19.75 7.5v0c0-.42-.34-.75-.75-.75 -.42 0-.75.33-.75.75v2.25H16v0c-.42 0-.75.33-.75.75 0 .41.33.75.75.75h2.25v2.25 0c0 .41.33.75.75.75 .41 0 .75-.34.75-.75v-2.25H22v0c.41 0 .75-.34.75-.75 0-.42-.34-.75-.75-.75h-2.25V7.5Z"/></svg>