<svg viewBox="0 0 24 24" xmlns="http://www.w3.org/2000/svg"><g fill="#0F172A"><path d="M4.5 6.375c0-2.28 1.84-4.125 4.125-4.125 2.27 0 4.125 1.84 4.125 4.125 0 2.27-1.85 4.125-4.125 4.125C6.34 10.5 4.5 8.65 4.5 6.375Z"/><path d="M14.25 8.625c0-1.87 1.51-3.375 3.375-3.375C19.485 5.25 21 6.76 21 8.625 21 10.485 19.48 12 17.625 12c-1.87 0-3.375-1.52-3.375-3.375Z"/><path d="M1.5 19.125C1.5 15.185 4.68 12 8.625 12c3.93 0 7.125 3.19 7.125 7.125v0c0 .03-.01.07-.01.11 -.01.25-.15.49-.37.62 -1.98 1.18-4.29 1.87-6.77 1.87 -2.48 0-4.79-.69-6.77-1.88 -.23-.14-.36-.38-.37-.63 -.01-.05-.01-.09-.01-.13Z"/><path d="M17.24 19.12c0 .04-.01.09-.01.14 -.01.33-.09.66-.24.95 .2.01.4.01.6.01 1.59 0 3.1-.37 4.45-1.03 .24-.13.4-.37.41-.65 0-.07 0-.14 0-.21 0-2.7-2.19-4.875-4.88-4.875 -.75 0-1.46.16-2.09.46 1.07 1.43 1.71 3.22 1.71 5.15v0Z"/></g></svg>