<svg viewBox="0 0 24 24" xmlns="http://www.w3.org/2000/svg"><path d="M10.37 2.25v0c-2.28 0-4.13 1.84-4.125 4.12 0 2.27 1.84 4.12 4.125 4.12v0c2.27 0 4.125-1.85 4.125-4.125 0-2.28-1.85-4.125-4.125-4.125Zm0 9.75v0c-3.94-.01-7.13 3.18-7.13 7.12 -.01.04 0 .08 0 .12H3.23c0 .25.14.49.36.63H3.59c2.04 1.22 4.37 1.87 6.76 1.87 2.47 0 4.786-.69 6.76-1.88v0c.22-.14.35-.38.36-.63l0-.12v-.01 0c0-3.94-3.19-7.125-7.13-7.125Zm5.62-2.25v0c-.42 0-.75.33-.75.75 0 .41.33.75.75.75h6v0c.41 0 .75-.34.75-.75 0-.42-.34-.75-.75-.75h-6Z"/></svg>