<svg viewBox="0 0 24 24" xmlns="http://www.w3.org/2000/svg"><path fill-rule="evenodd" d="M18.685 19.097h0c1.95-1.85 3.06-4.41 3.06-7.1 0-5.385-4.37-9.75-9.75-9.75 -5.39 0-9.75 4.36-9.75 9.75v0c-.01 2.68 1.1 5.25 3.06 7.09v0c1.8 1.7 4.19 2.65 6.68 2.65v0c2.48 0 4.87-.95 6.68-2.66ZM6.145 17.8l-.001-.001c1.42-1.78 3.57-2.82 5.85-2.82h-.001c2.27-.01 4.43 1.03 5.855 2.81v0c-1.55 1.56-3.66 2.44-5.86 2.43l0-.001c-2.2 0-4.31-.88-5.86-2.44Zm9.605-8.82v0c0 2.07-1.68 3.75-3.75 3.75 -2.08 0-3.75-1.68-3.75-3.75v0c0-2.08 1.67-3.75 3.75-3.75 2.07 0 3.75 1.67 3.75 3.75Z"/></svg>