<svg viewBox="0 0 24 24" xmlns="http://www.w3.org/2000/svg"><g fill="#0F172A"><path d="M5.25 6.375c0-2.28 1.84-4.125 4.12-4.125 2.27 0 4.12 1.84 4.12 4.125 0 2.27-1.85 4.125-4.13 4.125s-4.13-1.85-4.13-4.125Z"/><path d="M2.25 19.125C2.25 15.185 5.43 12 9.37 12c3.93 0 7.12 3.19 7.12 7.125v0c0 .03-.01.07-.01.11 -.01.25-.15.49-.37.62 -1.98 1.18-4.29 1.87-6.77 1.87 -2.48 0-4.79-.69-6.77-1.88 -.23-.14-.36-.38-.37-.63 -.01-.05-.01-.09-.01-.13Z"/><path d="M18.75 7.5c0-.42-.34-.75-.75-.75 -.42 0-.75.33-.75.75v2.25H15c-.42 0-.75.33-.75.75 0 .41.33.75.75.75h2.25v2.25c0 .41.33.75.75.75 .41 0 .75-.34.75-.75v-2.25H21c.41 0 .75-.34.75-.75 0-.42-.34-.75-.75-.75h-2.25V7.5Z"/></g></svg>