<svg viewBox="0 0 24 24" xmlns="http://www.w3.org/2000/svg"><path fill-rule="evenodd" d="M12 6.75v0c-.01-2.9 2.34-5.26 5.24-5.26 .51-.01 1.03.07 1.52.22V1.7c.39.12.62.53.5.93 -.04.11-.11.22-.19.31l-3.32 3.31c.06.47.27.93.64 1.29 .36.36.82.57 1.3.64L21 4.869l0 0c.29-.3.76-.3 1.06 0 .08.08.15.19.18.31v0c.84 2.77-.73 5.7-3.5 6.54 -.64.19-1.31.26-1.98.2 -1.02-.09-1.87.1-2.31.63L7.3 21.234l0 0c-1.17 1.4-3.25 1.59-4.65.43 -1.41-1.17-1.6-3.25-.44-4.65 .13-.16.27-.31.43-.44L11.32 9.42c.53-.44.72-1.3.63-2.31v0c-.02-.15-.02-.3-.02-.45ZM4.11 19.125v0c0-.42.33-.75.75-.75h0v0c.41 0 .75.33.75.75v0 0c0 .41-.34.75-.75.75h-.01v0c-.42 0-.75-.34-.75-.75v-.01Z"/><g><path d="M10.076 8.64l-2.21-2.2V4.87v0c-.01-.27-.14-.51-.37-.65L3.74 1.97V1.96c-.3-.18-.68-.14-.92.11l-.75.75h0c-.25.24-.29.62-.12.91l2.25 3.75v0c.13.22.37.36.64.36H6.41l2.06 2.06 1.57-1.3Z"/><path fill-rule="evenodd" d="M12.556 17.329l4.18 4.18 0-.001c1.31 1.31 3.45 1.31 4.77-.01 1.31-1.32 1.31-3.46 0-4.78l-3.31-3.31v0c-.51.07-1.03.08-1.53.04 -.4-.04-.69-.01-.87.04l-.001-.001c-.06.01-.12.03-.17.06l-3.09 3.74Zm3.41-1.36h-.001c.29-.3.76-.3 1.06 0l1.875 1.87v0c.3.28.31.75.03 1.06 -.29.3-.76.31-1.06.03 -.02-.02-.03-.03-.04-.04L15.95 17.01v0c-.3-.3-.3-.77 0-1.06Z"/></g></svg>