<svg viewBox="0 0 24 24" xmlns="http://www.w3.org/2000/svg"><path fill-rule="evenodd" d="M12 2.25c-5.385 0-9.75 4.36-9.75 9.75 0 5.38 4.36 9.75 9.75 9.75 5.38 0 9.75-4.37 9.75-9.75 0-5.39-4.37-9.75-9.75-9.75Zm-1.72 6.97v-.001c-.29-.31-.76-.32-1.06-.04 -.31.28-.32.75-.04 1.06 .01.01.02.02.03.03l1.72 1.72 -1.72 1.72v0c-.31.28-.32.75-.04 1.06 .28.3.75.31 1.06.03 .01-.02.02-.03.03-.04l1.72-1.72 1.72 1.72h-.001c.28.3.75.31 1.06.03 .3-.29.31-.76.03-1.06 -.02-.02-.03-.03-.04-.04l-1.72-1.72 1.72-1.72v0c.3-.29.31-.76.03-1.06 -.29-.31-.76-.32-1.06-.04 -.02.01-.03.02-.04.03l-1.72 1.72 -1.72-1.72Z"/></svg>