<svg viewBox="0 0 24 24" xmlns="http://www.w3.org/2000/svg"><path fill="none" d="M0 0h24v24H0Z"/><path d="M12 13c1.657 0 3 1.343 3 3 0 .85-.36 1.61-.92 2.16l-1.91 1.83H15v2H9v-1.73l3.69-3.56c.19-.19.3-.44.3-.73 0-.56-.45-1-1-1 -.56 0-1 .44-1 1h-2c0-1.657 1.343-3 3-3Zm6 0v4h2v-4h2v9h-2v-3h-4v-6h2ZM4 12c0 2.52 1.17 4.78 3 6.24v2.41c-2.989-1.73-5-4.96-5-8.67h2Zm8-10c5.18 0 9.44 3.947 9.95 9h-2.02c-.5-3.95-3.86-7-7.94-7C9.52 4 7.32 5.11 5.85 6.86l2.13 2.13h-6v-6L4.42 5.43C6.25 3.32 8.96 1.98 11.98 1.98Z"/></svg>