<svg viewBox="0 0 24 24" xmlns="http://www.w3.org/2000/svg"><path fill="none" d="M0 0h24v24H0Z"/><path d="M14 2v-.001c4.41-.01 8 3.57 8 7.99 0 3.14-1.85 6-4.72 7.29v0c-1.83 4.02-6.57 5.81-10.586 3.99 -4.03-1.83-5.82-6.57-4-10.586 .8-1.78 2.22-3.2 3.99-4v0c1.29-2.87 4.14-4.71 7.29-4.71Zm-4 6v0c-3.32 0-6 2.68-6 6 0 3.31 2.68 6 6 6v0c3.31 0 6-2.69 6-6 0-3.32-2.69-6-6-6Zm1 1v1h2v2H9v0c-.28-.01-.51.22-.51.49 -.01.24.17.44.41.49l.09 0h2v0c1.38 0 2.5 1.11 2.5 2.5 0 1.38-1.12 2.5-2.5 2.5v1h-2v-1h-2v-2h4v0c.27 0 .5-.23.5-.5 0-.25-.18-.45-.42-.5l-.09-.01h-2v0c-1.39 0-2.5-1.12-2.5-2.5 0-1.39 1.11-2.5 2.5-2.5v-1h2Zm3-5h-.001c-1.72-.01-3.35.73-4.484 2.01v0c4.41-.27 8.2 3.09 8.47 7.5 .01.32.01.64-.01.97v0c2.47-2.21 2.69-6 .49-8.48 -1.14-1.29-2.77-2.02-4.49-2.02Z"/></svg>