<svg viewBox="0 0 24 24" xmlns="http://www.w3.org/2000/svg"><path fill="none" d="M0 0h24v24H0Z"/><path d="M19.375 15.103l0 0c1.71-4.08-.2-8.77-4.28-10.48 -2.3-.97-4.92-.81-7.08.42l-1-1.737L7.01 3.3c3.08-1.77 6.88-1.76 9.96.02 4.49 2.59 6.21 8.142 4.11 12.77l1.34.77 -4.17 2.21 -.17-4.72 1.24.71Zm-14.75-6.21V8.89c-1.72 4.07.19 8.76 4.27 10.47 2.29.96 4.91.8 7.07-.43l.99 1.73v0c-3.09 1.76-6.89 1.75-9.97-.03 -4.49-2.6-6.21-8.15-4.12-12.77L1.52 7.08l4.16-2.22 .16 4.71 -1.25-.72Zm3.87 5.103h5.5v0c.27 0 .5-.23.5-.5 0-.28-.23-.5-.5-.5h-4v0c-1.39 0-2.5-1.12-2.5-2.5 0-1.39 1.11-2.5 2.5-2.5h1v-1h2v1h2.5v2h-5.5v0c-.28 0-.5.22-.5.5 0 .27.22.5.5.5h4v0c1.38 0 2.5 1.11 2.5 2.5 0 1.38-1.12 2.5-2.5 2.5h-1v1h-2v-1h-2.5v-2Z"/></svg>