<svg viewBox="0 0 24 24" xmlns="http://www.w3.org/2000/svg"><path fill="none" d="M0 0h24v24H0Z"/><path d="M20 13v7 0c0 .55-.45 1-1 1H5v0c-.56 0-1-.45-1-1v-7h16ZM14.5 2v0c1.93-.01 3.5 1.56 3.5 3.49 0 .51-.12 1.03-.34 1.5l3.33-.01v0c.55 0 1 .44 1 1v3 0c0 .55-.45 1-1 1h-18v0c-.56 0-1-.45-1-1v-3 0c0-.56.44-1 1-1l3.33 0 0 0c-.84-1.75-.09-3.84 1.65-4.67 1.35-.65 2.96-.36 4 .71v0c.65-.68 1.55-1.06 2.49-1.06Zm-5 2v0C8.67 4 8 4.67 8 5.5c0 .77.58 1.41 1.35 1.49l.14 0h1.5v-1.5 0c-.01-.78-.59-1.42-1.36-1.5l-.15-.01Zm5 0l-.15 0v0c-.72.06-1.29.63-1.35 1.34l-.01.14v1.5h1.5l.14-.01v0c.82-.08 1.42-.82 1.34-1.64 -.07-.72-.64-1.28-1.35-1.35l-.15-.01Z"/></svg>