<svg viewBox="0 0 24 24" xmlns="http://www.w3.org/2000/svg"><path fill="none" d="M0 0h24v24H0Z"/><path d="M12 22C6.477 22 2 17.523 2 12 2 6.477 6.477 2 12 2c5.523 0 10 4.477 10 10s-4.477 10-10 10Zm0-2v0c4.41 0 8-3.59 8-8 0-4.42-3.59-8-8-8v0c-4.42 0-8 3.58-8 8 0 4.41 3.58 8 8 8Zm-1.95-9H15v2h-4.95v0c.27 1.35 1.59 2.22 2.94 1.95 .41-.09.79-.27 1.11-.55l1.7 1.13v-.001c-1.69 1.83-4.53 1.95-6.36.26 -.8-.74-1.31-1.74-1.43-2.82H6.98v-2H8 7.99c.27-2.47 2.5-4.25 4.97-3.98 1.08.12 2.08.62 2.81 1.42l-1.71 1.13h0c-1.06-.9-2.64-.76-3.53.29 -.28.32-.46.7-.55 1.11Z"/></svg>