<svg viewBox="0 0 24 24" xmlns="http://www.w3.org/2000/svg"><path fill="none" d="M0 0h24v24H0Z"/><path d="M17.5 21v0c-1.94 0-3.5-1.57-3.5-3.5 0-1.94 1.56-3.5 3.5-3.5v0c1.93 0 3.5 1.56 3.5 3.5 0 1.93-1.57 3.5-3.5 3.5Zm0-2v0c.82 0 1.5-.68 1.5-1.5 0-.83-.68-1.5-1.5-1.5v0c-.83 0-1.5.67-1.5 1.5 0 .82.67 1.5 1.5 1.5Zm-11-9v0C4.56 10 3 8.43 3 6.5 3 4.56 4.56 3 6.5 3v0C8.43 3 10 4.56 10 6.5 10 8.43 8.43 10 6.5 10Zm0-2v0C7.32 8 8 7.32 8 6.5 8 5.67 7.32 5 6.5 5v0C5.67 5 5 5.67 5 6.5 5 7.32 5.67 8 6.5 8ZM19.07 3.51l1.41 1.41L4.92 20.475l-1.42-1.42 15.55-15.56Z"/></svg>