<svg viewBox="0 0 24 24" xmlns="http://www.w3.org/2000/svg"><path fill="none" d="M0 0h24v24H0Z"/><path d="M5.67 4.25c3.92-3.219 9.733-3 13.4.67 3.9 3.9 3.9 10.23 0 14.14 -3.91 3.9-10.24 3.9-14.15 0v0c-2.44-2.44-3.45-5.95-2.68-9.31l.07-.32 1.93.51v0c-1.13 4.27 1.42 8.64 5.7 9.77 4.27 1.12 8.64-1.43 9.77-5.71 1.12-4.28-1.43-8.65-5.71-9.78 -2.32-.61-4.78-.15-6.72 1.25l-.23.16 1.01 1.01L3.46 7.7 4.52 3.1 5.62 4.2Zm7.32 1.74v2h2.5v2h-5.5v0c-.28-.01-.51.22-.51.49 -.01.24.17.44.41.49l.09 0h4v0c1.38 0 2.5 1.11 2.5 2.5 0 1.38-1.12 2.5-2.5 2.5h-1v2h-2v-2h-2.5v-2h5.5v0c.27 0 .5-.23.5-.5 0-.25-.18-.45-.42-.5l-.09-.01h-4v0c-1.39 0-2.5-1.12-2.5-2.5 0-1.39 1.11-2.5 2.5-2.5h1v-2h2Z"/></svg>