<svg viewBox="0 0 24 24" xmlns="http://www.w3.org/2000/svg"><path fill="none" d="M0 0h24v24H0Z"/><path d="M20 20.33v1.66h-2v-1.34l-7.42 1.23v0c-.28.04-.53-.14-.58-.42 -.01-.03-.01-.06-.01-.09v-1.41h-4v2h-2v-2h-1v0c-.56 0-1-.45-1-1v-15 0c0-.56.44-1 1-1h7V1.55v0c0-.28.22-.5.5-.5 .02 0 .05 0 .08 0L21.152 2.81V2.81c.48.08.83.49.83.98v2.15h1v2h-1v7h1v2h-1v2.15 0c-.01.48-.36.9-.84.98l-1.17.19ZM4 4.99v13h6v-13H4Zm8 14.64l8-1.34V4.67l-8-1.34V19.6Zm4.5-5.64c-.83 0-1.5-1.12-1.5-2.5s.67-2.5 1.5-2.5c.82 0 1.5 1.12 1.5 2.5s-.68 2.5-1.5 2.5Z"/></svg>