<svg viewBox="0 0 24 24" xmlns="http://www.w3.org/2000/svg"><path fill="none" d="M0 0h24v24H0Z"/><path d="M21 3v0c.55 0 1 .44 1 1v5.5 0c-1.39 0-2.5 1.11-2.5 2.5 0 1.38 1.11 2.5 2.5 2.5V20v0c0 .55-.45 1-1 1H3v0c-.56 0-1-.45-1-1v-5.5 0c1.38 0 2.5-1.12 2.5-2.5 0-1.39-1.12-2.5-2.5-2.5V4v0c0-.56.44-1 1-1h18Zm-1 2H4v2.968l.15.08h-.001c1.37.75 2.26 2.17 2.34 3.74l0 .21v0c0 1.64-.9 3.16-2.35 3.95l-.16.08v2.968h16v-2.97l-.16-.08v0c-1.38-.76-2.27-2.18-2.34-3.74l-.01-.22c0-1.71.94-3.19 2.34-3.95l.15-.09V4.97Z"/></svg>