<svg viewBox="0 0 24 24" xmlns="http://www.w3.org/2000/svg"><path fill="none" d="M0 0h24v24H0Z"/><path d="M3.49 8.06l1.28 10.93h14.44L20.49 8.05l-4.01 2.673 -4.5-6.3 -4.5 6.29L3.47 8.04Zm-.7-2.865l4.199 2.8 4.18-5.86v0c.32-.45.94-.56 1.39-.24 .09.06.16.14.23.23l4.18 5.86 4.2-2.8v0c.45-.31 1.08-.19 1.38.27 .13.19.18.43.16.67l-1.65 13.96h0c-.06.5-.49.88-1 .88H3.82v0c-.51-.01-.94-.38-1-.89L1.17 6.1h0c-.07-.55.32-1.05.87-1.11 .23-.03.47.02.67.16Zm9.19 9.8v0c-1.11 0-2-.9-2-2 0-1.11.89-2 2-2v0c1.1 0 2 .89 2 2 0 1.1-.9 2-2 2Z"/></svg>