<svg viewBox="0 0 20 20" xmlns="http://www.w3.org/2000/svg"><path fill="none" d="M0 0h20v20H0Z"/><g><path d="M8.5 8.53v3.24c0 .18.09.34.24.43l2.52 1.51c.23.14.52.06.66-.16v0c.14-.23.06-.53-.16-.66L9.5 11.55V8.53c0-.26-.21-.48-.48-.48h-.04c-.27 0-.48.21-.48.48Z"/><path d="M13.9 10c.07.32.1.66.1 1 0 2.76-2.24 5-5 5s-5-2.24-5-5 2.24-5 5-5c.71 0 1.39.15 2 .42V5.35C10.37 5.13 9.7 5 9 5c-3.31 0-6 2.69-6 6s2.69 6 6 6 6-2.69 6-6c0-.34-.04-.67-.09-1H13.9Z"/><path d="M15 6V4.5c0-.28-.22-.5-.5-.5v0c-.28 0-.5.22-.5.5V6v0h-1.5c-.28 0-.5.22-.5.5v0c0 .28.22.5.5.5H14v1.5c0 .28.22.5.5.5v0c.28 0 .5-.22.5-.5V7v0h1.5c.28 0 .5-.22.5-.5v0c0-.28-.22-.5-.5-.5H15Z"/></g></svg>