<svg viewBox="0 0 24 24" xmlns="http://www.w3.org/2000/svg"><path fill="none" d="M0 0h24v24H0V0Z"/><g><path d="M14 7.5c.28 0 .5-.22.5-.5s-.22-.5-.5-.5 -.5.22-.5.5 .22.5.5.5Z"/><path d="M14 9a1 1 0 1 0 0 2 1 1 0 1 0 0-2Z"/><path d="M14 13a1 1 0 1 0 0 2 1 1 0 1 0 0-2Z"/><path d="M10 16.5c-.28 0-.5.22-.5.5s.22.5.5.5 .5-.22.5-.5 -.22-.5-.5-.5Z"/><path d="M10 9a1 1 0 1 0 0 2 1 1 0 1 0 0-2Z"/><path d="M7 13.5c-.28 0-.5.22-.5.5s.22.5.5.5 .5-.22.5-.5 -.22-.5-.5-.5ZM12 2C6.48 2 2 6.48 2 12c0 5.52 4.48 10 10 10s10-4.48 10-10 -4.48-10-10-10Zm0 18c-4.42 0-8-3.58-8-8s3.58-8 8-8 8 3.58 8 8 -3.58 8-8 8ZM7 9.5c-.28 0-.5.22-.5.5s.22.5.5.5 .5-.22.5-.5 -.22-.5-.5-.5Z"/><path d="M10 13a1 1 0 1 0 0 2 1 1 0 1 0 0-2Z"/><path d="M10 7.5c.28 0 .5-.22.5-.5s-.22-.5-.5-.5 -.5.22-.5.5 .22.5.5.5Zm4 9c-.28 0-.5.22-.5.5s.22.5.5.5 .5-.22.5-.5 -.22-.5-.5-.5Zm3-7c-.28 0-.5.22-.5.5s.22.5.5.5 .5-.22.5-.5 -.22-.5-.5-.5Zm0 4c-.28 0-.5.22-.5.5s.22.5.5.5 .5-.22.5-.5 -.22-.5-.5-.5Z"/></g></svg>