<svg viewBox="0 0 24 24" xmlns="http://www.w3.org/2000/svg"><path fill="none" d="M0 0h24v24H0V0Z"/><g><path d="M17 16.5c.28 0 .5-.22.5-.5s-.22-.5-.5-.5 -.5.22-.5.5 .22.5.5.5Z"/><path d="M9 11a1 1 0 1 0 0 2 1 1 0 1 0 0-2Z"/><path d="M13 7a1 1 0 1 0 0 2 1 1 0 1 0 0-2Z"/><path d="M13 15a1 1 0 1 0 0 2 1 1 0 1 0 0-2Z"/><path d="M17 12.5c.28 0 .5-.22.5-.5s-.22-.5-.5-.5 -.5.22-.5.5 .22.5.5.5Z"/><path d="M13 11a1 1 0 1 0 0 2 1 1 0 1 0 0-2Z"/><path d="M3 3h18v2H3Z"/><path d="M5 6.5a1.5 1.5 0 1 0 0 3 1.5 1.5 0 1 0 0-3Z"/><path d="M5 10.5a1.5 1.5 0 1 0 0 3 1.5 1.5 0 1 0 0-3Z"/><path d="M5 14.5a1.5 1.5 0 1 0 0 3 1.5 1.5 0 1 0 0-3Z"/><path d="M17 8.5c.28 0 .5-.22.5-.5s-.22-.5-.5-.5 -.5.22-.5.5 .22.5.5.5Z"/><path d="M9 15a1 1 0 1 0 0 2 1 1 0 1 0 0-2Z"/><path d="M9 7a1 1 0 1 0 0 2 1 1 0 1 0 0-2Z"/><path d="M3 19h18v2H3Z"/></g></svg>