<svg viewBox="0 0 24 24" xmlns="http://www.w3.org/2000/svg"><path fill="none" d="M0 0h24v24H0V0Z"/><g><path opacity=".3" d="M12 4c-4.41 0-8 3.59-8 8s3.59 8 8 8c.28 0 .5-.22.5-.5 0-.16-.08-.28-.14-.35 -.41-.46-.63-1.05-.63-1.65 0-1.38 1.12-2.5 2.5-2.5H16c2.21 0 4-1.79 4-4 0-3.86-3.59-7-8-7Zm-5.5 9c-.83 0-1.5-.67-1.5-1.5s.67-1.5 1.5-1.5 1.5.67 1.5 1.5 -.67 1.5-1.5 1.5Zm3-4C8.67 9 8 8.33 8 7.5 8 6.67 8.67 6 9.5 6c.83 0 1.5.67 1.5 1.5s-.67 1.5-1.5 1.5Zm5 0c-.83 0-1.5-.67-1.5-1.5s.67-1.5 1.5-1.5 1.5.67 1.5 1.5 -.67 1.5-1.5 1.5Zm4.5 2.5c0 .83-.67 1.5-1.5 1.5s-1.5-.67-1.5-1.5 .67-1.5 1.5-1.5 1.5.67 1.5 1.5Z"/><path d="M12 2C6.49 2 2 6.49 2 12c0 5.51 4.49 10 10 10 1.38 0 2.5-1.12 2.5-2.5 0-.61-.23-1.21-.64-1.67 -.08-.09-.13-.21-.13-.33 0-.28.22-.5.5-.5H16c3.31 0 6-2.69 6-6 0-4.96-4.49-9-10-9Zm4 13h-1.77c-1.38 0-2.5 1.12-2.5 2.5 0 .61.22 1.19.63 1.65 .06.07.14.19.14.35 0 .28-.22.5-.5.5 -4.41 0-8-3.59-8-8s3.59-8 8-8 8 3.14 8 7c0 2.21-1.79 4-4 4Z"/><path d="M6.5 10a1.5 1.5 0 1 0 0 3 1.5 1.5 0 1 0 0-3Z"/><path d="M9.5 6a1.5 1.5 0 1 0 0 3 1.5 1.5 0 1 0 0-3Z"/><path d="M14.5 6a1.5 1.5 0 1 0 0 3 1.5 1.5 0 1 0 0-3Z"/><path d="M17.5 10a1.5 1.5 0 1 0 0 3 1.5 1.5 0 1 0 0-3Z"/></g></svg>