<svg viewBox="0 0 24 24" xmlns="http://www.w3.org/2000/svg"><path fill="none" d="M0 0h24v24H0V0Z"/><g><path opacity=".3" d="M12 6.5c-3.79 0-7.17 2.13-8.82 5.5 1.65 3.37 5.02 5.5 8.82 5.5 3.8 0 7.17-2.13 8.82-5.5 -1.65-3.37-5.03-5.5-8.82-5.5Zm0 10c-2.48 0-4.5-2.02-4.5-4.5s2.02-4.5 4.5-4.5 4.5 2.02 4.5 4.5 -2.02 4.5-4.5 4.5Z"/><path d="M12 4.5C7 4.5 2.73 7.61 1 12c1.73 4.39 6 7.5 11 7.5s9.27-3.11 11-7.5c-1.73-4.39-6-7.5-11-7.5Zm0 13c-3.79 0-7.17-2.13-8.82-5.5C4.83 8.63 8.21 6.5 12 6.5c3.79 0 7.17 2.13 8.82 5.5 -1.65 3.37-5.03 5.5-8.82 5.5Zm0-10c-2.48 0-4.5 2.02-4.5 4.5s2.02 4.5 4.5 4.5 4.5-2.02 4.5-4.5 -2.02-4.5-4.5-4.5Zm0 7c-1.38 0-2.5-1.12-2.5-2.5s1.12-2.5 2.5-2.5 2.5 1.12 2.5 2.5 -1.12 2.5-2.5 2.5Z"/></g></svg>