<svg viewBox="0 0 24 24" xmlns="http://www.w3.org/2000/svg"><path fill="none" d="M0 0h24v24H0Z"/><path d="M6.455 19L2 22.5V4v0c0-.56.44-1 1-1h18v0c.55 0 1 .44 1 1v14 0c0 .55-.45 1-1 1H6.455Zm1.69-6.929l-.98.56 1 1.73 .97-.57c.5.51 1.14.88 1.85 1.07v1.12h2v-1.13 -.001c.7-.19 1.34-.56 1.85-1.08l.97.56 1-1.74 -.98-.57v0c.19-.71.19-1.45 0-2.15l.97-.57 -1-1.74 -.98.56v0c-.51-.52-1.16-.89-1.86-1.08V5.91h-2v1.12 -.001c-.71.18-1.35.55-1.86 1.07l-.98-.57 -1 1.73 .97.56V9.81c-.2.7-.2 1.44 0 2.14Zm3.85.92v0c-1.11 0-2-.9-2-2 0-1.11.89-2 2-2v0c1.1 0 2 .89 2 2 0 1.1-.9 2-2 2Z"/></svg>