<svg viewBox="0 0 24 24" xmlns="http://www.w3.org/2000/svg"><path fill="none" d="M0 0h24v24H0Z"/><path d="M22 12h-2V5H4v13.38l1.763-1.39H12v2H6.455L2 22.49V3.99v0c0-.56.44-1 1-1h18v0c.55 0 1 .44 1 1v8Zm-7.855 7.07v-.001c-.2-.71-.2-1.45 0-2.15l-.98-.57 1-1.74 .97.56v0c.5-.52 1.15-.89 1.85-1.08v-1.13h2v1.12c.71.18 1.35.56 1.85 1.07l.97-.57 1 1.73 -.98.56h-.001c.19.7.19 1.44 0 2.14l.97.56 -1 1.73 -.98-.57c-.51.51-1.14.88-1.86 1.07v1.12h-2v-1.13 -.001c-.71-.19-1.35-.56-1.86-1.08l-.98.56 -1-1.74 .97-.57Zm3.85.92v0c1.1 0 2-.9 2-2 0-1.11-.9-2-2-2v0c-1.11 0-2 .89-2 2 0 1.1.89 2 2 2Z"/></svg>