<svg viewBox="0 0 24 24" xmlns="http://www.w3.org/2000/svg"><path fill="none" d="M0 0h24v24H0Z"/><path d="M21 3c.55 0 1 .44 1 1v14c0 .55-.45 1-1 1H6.455L2 22.5V4c0-.552.44-1 1-1h18ZM10.96 8.1l-.45-.69c-1.79.77-3.02 2.34-3.02 4.09 0 .99.27 1.609.79 2.15 .32.34.83.58 1.37.58 .96 0 1.75-.79 1.75-1.75 0-.92-.72-1.67-1.62-1.75 -.16-.02-.33-.02-.48.01v-.1c0-.43.09-1.64 1.45-2.47l.18-.11 -.45-.69Zm4.55-.69c-1.79.77-3.02 2.34-3.02 4.09 0 .99.27 1.609.79 2.15 .32.34.83.58 1.37.58 .96 0 1.75-.79 1.75-1.75 0-.92-.72-1.67-1.62-1.75 -.16-.02-.33-.02-.48.01 0-.32-.03-1.77 1.63-2.67Z"/></svg>