<svg viewBox="0 0 24 24" xmlns="http://www.w3.org/2000/svg"><path fill="none" d="M0 0h24v24H0Z"/><path d="M21 3c.55 0 1 .44 1 1v14c0 .55-.45 1-1 1H6.455L2 22.5V4c0-.552.44-1 1-1h18Zm-1 2H4v13.38l1.763-1.39H20v-12Zm-9.49 2.41l.44.68c-1.67.9-1.64 2.35-1.64 2.66 .15-.02.31-.03.48-.01 .9.08 1.61.82 1.61 1.74 0 .96-.79 1.75-1.75 1.75 -.54 0-1.05-.25-1.38-.59 -.52-.55-.8-1.16-.8-2.16 0-1.75 1.22-3.32 3.01-4.093Zm5 0l.44.68c-1.67.9-1.64 2.35-1.64 2.66 .15-.02.31-.03.48-.01 .9.08 1.61.82 1.61 1.74 0 .96-.79 1.75-1.75 1.75 -.54 0-1.05-.25-1.38-.59 -.52-.55-.8-1.16-.8-2.16 0-1.75 1.22-3.32 3.01-4.093Z"/></svg>