<svg viewBox="0 0 32 32" xmlns="http://www.w3.org/2000/svg"><path d="M31.94 15.016C31.43 6.67 24.533.05 16.08.01h-.19C12.9.03 10.1.85 7.72 2.3 5.51 3.62 3.66 5.48 2.31 7.677 .99 9.827.18 12.328.01 15c-.02.32-.04.65-.04.99 0 .33.016.66.031.99 .167 2.67.98 5.16 2.297 7.317 1.33 2.19 3.18 4.04 5.369 5.381 2.396 1.43 5.19 2.27 8.172 2.29h.24c8.459-.06 15.328-6.651 15.855-14.99 .01-.33.04-.67.04-.98 0-.33 0-.67-.03-.98l-.04-.04ZM16 20.855v5.1c.125 3.12-.76 3.64-1.83 3.68 -.05 0-.09 0-.14 0 -6.072-.86-10.88-5.68-11.713-11.76 -.09-.62-.14-1.26-.14-1.9 0-.64.04-1.28.13-1.891 .83-6.077 5.62-10.891 11.699-11.76l.15.01c1.06.05 1.95.57 1.82 3.681v5.1c-.02 2.1 1.19 4.1 2.47 4.855 -1.29.74-2.49 2.5-2.48 4.849Z"/></svg>