<svg viewBox="0 0 32 32" xmlns="http://www.w3.org/2000/svg"><path d="M31.99 8.167c0-.99-.09-1.97-.32-2.93 -.43-1.75-1.42-3.08-2.91-4.06 -.77-.5-1.61-.81-2.51-.97 -.69-.13-1.39-.19-2.09-.2 -.06-.01-.11-.02-.17-.03H7.959c-.21.016-.41.02-.61.03 -1 .05-1.984.16-2.93.53C2.62 1.24 1.34 2.46.6 4.23 .34 4.82.2 5.47.11 6.11c-.08.52-.12 1.04-.135 1.57 -.001.04-.01.08-.01.125v16.297c.01.18.02.375.031.56 .06 1.08.2 2.16.66 3.16 .86 1.89 2.31 3.13 4.31 3.73 .55.17 1.141.25 1.72.3 .74.07 1.479.08 2.21.08h14.7c.69 0 1.39-.05 2.09-.14 1.09-.15 2.13-.47 3.06-1.08 1.12-.74 1.96-1.72 2.5-2.95 .25-.57.39-1.17.49-1.77 .15-.91.18-1.82.18-2.724 -.01-5.07 0-10.125-.01-15.19Zm-8.57 5.317v7.615c0 .55-.08 1.1-.33 1.6 -.39.78-1.01 1.28-1.85 1.52 -.47.13-.95.2-1.43.22 -1.27.06-2.37-.8-2.59-2.05 -.2-1.04.3-2.17 1.38-2.7 .42-.21.89-.34 1.35-.43 .5-.11 1.01-.21 1.51-.33 .37-.09.6-.31.68-.69 .02-.09.02-.18.02-.26 0-2.43 0-4.85 0-7.26 0-.09-.02-.17-.04-.25 -.06-.21-.2-.33-.41-.32 -.22.01-.43.04-.63.08 -1.02.19-2.04.4-3.05.609l-4.94.99c-.03 0-.05.01-.07.01 -.37.1-.5.27-.516.65 -.01.05 0 .11 0 .17 -.01 3.46 0 6.93-.01 10.4 0 .56-.07 1.11-.29 1.63 -.37.85-1.03 1.39-1.92 1.64 -.47.13-.95.21-1.44.22 -1.28.04-2.34-.81-2.56-2.06 -.19-1.09.3-2.25 1.53-2.78 .47-.2.97-.31 1.47-.42 .38-.08.766-.16 1.14-.24 .51-.11.77-.44.8-.96v-.2c0-3.95 0-7.9 0-11.844 0-.17.02-.34.05-.5 .09-.38.36-.6.72-.69 .33-.09.68-.16 1.03-.23 .97-.2 1.95-.4 2.93-.59l3.026-.62c.89-.18 1.78-.359 2.68-.54 .29-.06.58-.12.88-.15 .41-.04.69.22.74.641 .01.09.01.19.01.29 0 2.54 0 5.09 0 7.641Z"/></svg>