<svg viewBox="0 0 32 32" xmlns="http://www.w3.org/2000/svg"><path d="M23.177 24.073c-9.92.59-20.69 4.18-21.82 4.68l1.31-3.72c3.35-1.56 11.69-4.625 21.979-5.36 -.2.76-1.29 3.56-1.5 4.38Zm3.53-10.01s-.49 1.02-.95 2.41c-3.94.24-10.18 1.54-13.219 2.64 1.58-1.44 11.58-11.479 11.58-11.479 3.85 2.64 7.875 5.9 7.875 5.9l-5.3.52Zm-23.401.44c2.19-1 8.35-2.87 14.24-4.25 0 0-11.328 10.45-14.48 13.703l2.6-7.05c-2.026.29-2.917.42-5.677 1l3.307-3.41ZM17.436 3.25c.97.47 4.6 2.93 5.89 3.84 -4.13.09-12.19 1.88-15.54 3C10.53 8 15.65 4.05 17.42 3.23Z"/></svg>