<svg viewBox="0 0 32 32" xmlns="http://www.w3.org/2000/svg"><path d="M27 2H5C3.34 2 2 3.34 2 5v22c0 1.65 1.34 3 3 3h22c1.65 0 3-1.35 3-3V5c0-1.66-1.35-3-3-3ZM9.93 24.03c-.35.6-1.12.8-1.71.45 -.6-.35-.8-1.12-.46-1.71l.89-1.55c1-.31 1.83-.07 2.47.71Zm8.68-3.37H7.24c-.69 0-1.25-.57-1.25-1.25 0-.69.56-1.25 1.25-1.25h3.18l4.087-7.08 -1.29-2.22c-.35-.6-.14-1.37.45-1.71 .6-.35 1.36-.14 1.7.45l.55.96 .55-.97c.34-.6 1.11-.8 1.7-.46 .6.34.8 1.11.45 1.7l-5.37 9.28h3.88c1.26 0 1.96 1.48 1.41 2.5Zm6.13 0h-1.82l1.22 2.11c.34.6.13 1.36-.46 1.7 -.6.34-1.37.13-1.71-.46 -2.06-3.56-3.6-6.24-4.625-8.006 -1.05-1.82-.3-3.625.44-4.237 .81 1.41 2.04 3.54 3.68 6.37h3.25c.68 0 1.25.56 1.25 1.25s-.57 1.25-1.25 1.25Z"/></svg>