<svg viewBox="0 0 32 32" xmlns="http://www.w3.org/2000/svg"><path d="M28.473 24.94c1.94 0 3.52 1.58 3.52 3.53 0 1.94-1.59 3.52-3.53 3.52 -1.95 0-3.54-1.59-3.54-3.53 0-1.95 1.58-3.54 3.53-3.54ZM15.99 12.47c1.94 0 3.52 1.57 3.52 3.52 0 1.94-1.58 3.52-3.53 3.52 -1.95 0-3.53-1.58-3.53-3.53 0-1.95 1.57-3.53 3.52-3.53Zm12.47 0c1.94 0 3.52 1.57 3.52 3.52 0 1.94-1.59 3.52-3.53 3.52 -1.95 0-3.54-1.58-3.54-3.53 0-1.95 1.58-3.53 3.53-3.53ZM15.983-.01c1.94 0 3.52 1.579 3.52 3.527 0 1.947-1.58 3.53-3.53 3.53 -1.95 0-3.53-1.59-3.53-3.54s1.57-3.527 3.52-3.527Zm-12.48 0c1.94 0 3.53 1.579 3.53 3.527 0 1.947-1.59 3.53-3.54 3.53s-3.527-1.59-3.527-3.54C-.04 1.56 1.55-.02 3.49-.02Zm24.94 0c1.94 0 3.52 1.579 3.52 3.527 0 1.947-1.59 3.53-3.53 3.53 -1.95 0-3.54-1.59-3.54-3.54s1.58-3.527 3.53-3.527Z"/></svg>