<svg viewBox="0 0 32 32" xmlns="http://www.w3.org/2000/svg"><path d="M30.64 11.421c.42.8.75 1.69.97 2.67 .22.97.35 1.99.38 3.05 .02 1.05-.08 2.14-.32 3.21 -.24 1.08-.6 2.15-1.07 3.18 -.47 1.03-1.11 2.02-1.93 2.95 -.82.94-1.76 1.78-2.82 2.53 -1.04.74-2.317 1.375-3.8 1.875 -1.49.52-3.11.86-4.87 1.06l-.4-.97c.09-.02.21-.06.39-.12 .18-.07.5-.19.96-.41 .47-.21.91-.45 1.35-.73 .44-.28.92-.66 1.44-1.16 .53-.5.98-1.05 1.36-1.62 .38-.6.69-1.33.95-2.21 .26-.88.4-1.82.4-2.817 0-.97-.12-1.85-.38-2.683 -.26-.84-.6-1.54-1.02-2.17 -.42-.6-.9-1.18-1.4-1.72 -.5-.54-1.03-1.06-1.53-1.54 -.53-.48-.98-.98-1.43-1.47 -.43-.48-.79-1.02-1.05-1.62 -.26-.6-.4-1.22-.4-1.88 0-1.18.47-2.2 1.39-3.04 .94-.87 2.21-1.29 3.86-1.29 .47 0 .95.03 1.45.14 .5.1 1.09.27 1.78.57 .68.3 1.32.68 1.93 1.141 .62.45 1.28 1.11 1.96 1.93 .67.82 1.3 1.78 1.86 2.859ZM1.36 20.599c-.43-.81-.76-1.7-.98-2.68 -.23-.98-.355-2-.38-3.06 -.03-1.06.08-2.135.317-3.22 .24-1.09.595-2.151 1.063-3.19 .46-1.04 1.1-2.03 1.921-2.97 .81-.94 1.751-1.79 2.81-2.54 1.03-.74 2.317-1.38 3.79-1.88 1.484-.525 3.1-.885 4.86-1.083l.39.94c-.09.01-.21.05-.38.1s-.48.18-.95.391c-.47.2-.92.44-1.35.71 -.44.26-.907.65-1.44 1.145 -.53.49-.98 1.03-1.35 1.62 -.375.58-.7 1.31-.96 2.18 -.26.86-.391 1.8-.391 2.8 0 .94.12 1.83.4 2.667 .25.83.593 1.55 1.016 2.151 .42.625.9 1.18 1.4 1.74 .5.55 1.02 1.05 1.52 1.53s.97.98 1.4 1.46c.43.5.78 1.03 1.04 1.62 .26.59.39 1.21.39 1.88 0 1.19-.48 2.21-1.4 3.05 -.95.86-2.224 1.28-3.87 1.28 -.48 0-.96-.05-1.46-.14 -.5-.1-1.1-.28-1.76-.58 -.69-.31-1.33-.69-1.96-1.15 -.625-.46-1.29-1.12-1.97-1.95 -.677-.82-1.296-1.78-1.859-2.86Z"/></svg>