<svg viewBox="0 0 32 32" xmlns="http://www.w3.org/2000/svg"><path d="M16 0C7.167 0 0 7.156 0 15.99v12.38c.005 2 1.63 3.63 3.635 3.63h12.37c8.83-.01 15.99-7.17 15.99-16 0-8.839-7.17-16-16-16Zm6.125 7.43c-.51 0-.69-.1-1.43-.1 -2.19 0-3.96 1.77-3.97 3.958v3.44c0 .3.25.56.55.56h2.6c.97 0 1.75.77 1.75 1.74s-.8 1.75-1.78 1.75h-3.15v3.97c0 1.99-.8 3.901-2.2 5.31 -1.42 1.4-3.33 2.19-5.32 2.19 -.57 0-1.12-.08-1.66-.23 -.86-.23-1.55-.93-1.55-1.73 0-.98.71-1.7 1.77-1.7 .5 0 .68.09 1.42.09 2.18 0 3.958-1.78 3.96-3.96v-3.45c0-.32-.25-.56-.56-.56H9.94c-.98 0-1.76-.78-1.76-1.75 0-.98.79-1.75 1.77-1.75h3.14v-3.98c0-4.146 3.35-7.51 7.51-7.51 .625 0 1.07.07 1.65.22 .84.22 1.54.92 1.54 1.729 0 .97-.72 1.69-1.78 1.69Z"/></svg>