<svg viewBox="0 0 32 32" xmlns="http://www.w3.org/2000/svg"><path d="M16 .05c-2.65 0-3.24 3.719-.72 4.53l-.85 3.43H3.263C1.45 8.01-.02 9.47-.02 11.286v17.37c0 1.81 1.464 3.276 3.276 3.276h25.448c1.8 0 3.27-1.47 3.27-3.276V11.28c0-1.81-1.47-3.276-3.28-3.276H17.49l-.83-3.44c2.53-.81 1.95-4.542-.7-4.542ZM5.24 10.5h21.51c1.46 0 2.65 1.18 2.65 2.65v13.49c0 1.46-1.19 2.65-2.66 2.65H5.22c-1.47 0-2.661-1.19-2.661-2.66V13.14c0-1.47 1.193-2.66 2.661-2.66Zm4.33 3.07c-8.135 0-8.135 12.2 0 12.2 8.13 0 8.13-12.203 0-12.203Zm12.99 0c-8.135 0-8.135 12.2 0 12.2 8.13 0 8.13-12.203 0-12.203ZM9.57 14.99c2.609-.05 4.75 2.06 4.75 4.67 0 2.6-2.15 4.71-4.76 4.67 -6.13-.11-6.13-9.245 0-9.349Zm12.99 0c2.61-.05 4.75 2.06 4.75 4.67 0 2.6-2.15 4.71-4.76 4.67 -6.125-.11-6.125-9.245 0-9.349ZM9.57 17.2c-3.276 0-3.276 4.91 0 4.91s3.276-4.92 0-4.92Zm12.99 0c-3.28 0-3.28 4.91 0 4.91 3.27 0 3.27-4.92 0-4.92Zm-9.234 8.66v2.88h.94v-2.88Zm1.43 0v2.88h.94v-2.88Zm1.43 0v2.88h.94v-2.88Zm1.43 0v2.88h.93v-2.88Zm1.43.04v2.79c.65-.16 1.1-.73 1.1-1.4 0-.69-.48-1.25-1.11-1.41Zm-6.24.03c-.59.19-.98.74-.98 1.35v0c0 .63.4 1.16.97 1.35Z"/></svg>