<svg viewBox="0 0 32 32" xmlns="http://www.w3.org/2000/svg"><path d="M31.391 15.073c-1.65-1.59-9.88-2.57-12.48-2.86 .12-.3.23-.61.32-.93 .35-.16.73-.31 1.12-.43 .04.14.27.68.4.94 5.21.14 5.48-3.88 5.69-4.984 .2-1.08.19-2.12 1.99-4.03 -2.67-.78-6.51 1.2-7.8 4.15 -.48-.18-.97-.32-1.45-.4 -.35-1.39-2.14-5.24-6.83-5.24 -3.04 0-6.1 1.255-8.401 3.44 -1.24 1.17-2.22 2.57-2.9 4.15C.31 10.579-.06 12.45-.06 14.46c0 6.97 4.75 13.077 7.448 13.077 1.17 0 2.183-.88 2.41-1.67 .2.54.81 2.21 1.01 2.64 .29.63 1.66 1.18 2.26.52 .77.42 2.183.68 2.95-.46 1.48.31 2.79-.58 2.82-1.63 .72-.05 1.08-1.07.92-1.88 -.12-.6-1.38-2.75-1.86-3.5 .96.78 3.41 1.01 3.71 0 1.55 1.22 3.99.58 4.183-.42 1.89.48 4.06-.59 3.7-1.9 3.04-.22 2.65-3.45 1.8-4.28Zm-7.927-5.37c-.8-.32-1.82-.52-2.53-.52 -1.02 0-1.625.57-2.58.57 -.2 0-.68 0-1.06-.14 .24.26.56.4 1.16.4 .36 0 1.08-.19 1.66-.359 0 .125.02.24.03.36 -1.09.26-2.23.95-2.56 1.13 -.74-1.625-.11-3.17.47-3.865 2.62 0 4.72 1.8 5.37 2.39Zm1.13-.12l-.41-.375c-.42-.39-.84-.74-1.28-1.05 .65-1.303 1.47-2.72 2.52-3.599 -1.15.46-2.28 1.83-2.95 3.31 -.35-.22-.69-.41-1.04-.58 .93-1.99 3.09-3.651 5.48-3.78 -1.6 1.452-1 4.343-2.35 6.057Zm-3.29 1.35c-.18-.39-.36-1.016-.34-1.391 .29-.01.87.1.95.125 -.04.17-.06.56-.06.609 .05-.1.21-.44.27-.57 .56.1 1.31.29 1.76.49 -.52.33-1.4.69-2.61.72Zm-9.43-2.61c-.66-.23-.66-.82 0-1.05 .64-.23 1.45.06 1.45.52s-.82.75-1.46.52Zm2.15.21c0-1.29-1.4-2.09-2.51-1.45 -1.109.63-1.109 2.24 0 2.885 1.109.64 2.5-.17 2.5-1.45Zm3.71-2.098c-2.09 2.11-1.27 4.787-.51 5.995 -1.08 1.8-3.21 3.03-5.68 3.58 2.77 0 4.4-.72 5.34-1.42 .6-.45.93-.89 1.1-1.14 4.1.26 10.61 1.58 11.244 2.016 .25.17.52.55.55.91 -3.09-.44-8.66-.89-10.104-.97 1.03.15 8.579 1.577 9.88 1.91 -.41.65-1.31 1.1-2.68.78 .74 1.01-.7 2.21-2.692 1.55 .43.98-1.34 1.875-3.36.84 .02.98-2.52 1.1-3.52.01 .02.12.14.38.19.48 -.33 2.88-2.69 4.677-5.11 4.677 -5.93 0-11.089-4.82-11.089-11.219 0-6.77 5-11.819 11.03-11.819 3.45 0 5.02 2.724 5.34 3.75Z"/></svg>