<svg viewBox="0 0 32 32" xmlns="http://www.w3.org/2000/svg"><path d="M16 0c8.828 0 16 7.172 16 16s-7.18 16-16 16C7.17 32 0 24.82 0 16 0 7.17 7.172 0 16 0Zm4.37 23.573c-1.03.58-1.37 1.89-.79 2.91 .58 1.02 1.89 1.375 2.92.78 1.02-.59 1.37-1.9.77-2.92 -.59-1.03-1.9-1.375-2.92-.79ZM16 22.233c-.94 0-1.83-.21-2.63-.58l-1.484 2.65c1.24.61 2.641.96 4.115.96 .85 0 1.69-.12 2.47-.35 .14-.86.64-1.65 1.45-2.12 .81-.47 1.75-.52 2.56-.21 1.58-1.55 2.6-3.67 2.76-6.03l-3.05-.05c-.29 3.18-2.96 5.68-6.22 5.68Zm-6.24-6.24c0-2.109 1.04-3.974 2.651-5.11L10.85 8.26C8.97 9.508 7.59 11.418 7 13.64c.67.54 1.109 1.38 1.109 2.32 0 .93-.44 1.76-1.109 2.31 .58 2.21 1.96 4.14 3.84 5.38l1.55-2.62c-1.61-1.1-2.651-2.96-2.651-5.06Zm-4.64-2.14c-1.19 0-2.135.95-2.135 2.13s.95 2.13 2.135 2.13c1.18 0 2.135-.96 2.135-2.135 0-1.19-.96-2.135-2.135-2.135ZM16 9.74c3.26 0 5.93 2.5 6.21 5.68l3.04-.05c-.16-2.36-1.19-4.47-2.76-6.03 -.82.3-1.75.26-2.57-.21 -.81-.48-1.32-1.26-1.46-2.125 -.8-.22-1.62-.34-2.48-.34 -1.48 0-2.875.34-4.12.96l1.484 2.65c.8-.37 1.69-.58 2.63-.58Zm4.37-1.34c1.02.58 2.32.24 2.92-.79 .58-1.021.24-2.33-.79-2.93 -1.03-.59-2.33-.24-2.92.78 -.59 1.021-.24 2.32.78 2.917Z"/></svg>