<svg viewBox="0 0 32 32" xmlns="http://www.w3.org/2000/svg"><path d="M6.932 0c-.74 0-1.34.57-1.34 1.276v14.057H26.39V1.27c0-.71-.6-1.28-1.34-1.28Zm4.26 3.06h3.2c.44 0 .79.34.79.76 -.01.43-.37.77-.8.76h-3.21c-.44.01-.79-.34-.8-.77 0-.43.359-.77.79-.77ZM1.4 15.99c-.78 0-1.42.59-1.42 1.33v13.33c0 .73.636 1.33 1.416 1.33H11.71c-.74 0-1.34-.6-1.34-1.34V19.97h-4c-.45 0-.81-.36-.81-.81 0-.45.36-.8.8-.8h4v-2.401Zm29.251 0H11.05v14.66c0 .73.63 1.33 1.41 1.33H30.64c.73 0 1.33-.6 1.33-1.34V17.3c0-.74-.6-1.34-1.34-1.34ZM17.58 29.589h-4.8v-1.6h4.79Zm3.2-2.41h-8v-1.6h8Zm-.81-7.2h-3.2c-1.07 0-1.07-1.6 0-1.6h3.19c.99.06.99 1.52 0 1.59Z"/></svg>