<svg viewBox="0 0 32 32" xmlns="http://www.w3.org/2000/svg"><path d="M15.969 0c-.16.005-.31.011-.47.016 -.44.025-1.03.083-1.51.14C9.604.755 5.84 2.959 3.33 6.24c-.625.8-1.17 1.67-1.64 2.583 -.08.16-.16.31-.23.47 -.12.26-.24.532-.35.8 -.15.34-.27.69-.39 1.05l-.07.19c-.459 1.5-.688 3.05-.693 4.62V16c.016 8.82 7.177 15.96 16 15.96 8.21 0 15.08-6.22 15.91-14.39l0-.04c.05-.53.07-1.05.07-1.56v-.07c-.01-1.91-.36-3.792-1.03-5.573 -.06-.14-.11-.29-.17-.42 -.1-.23-.2-.46-.31-.68C28.45 5.02 24.7 1.77 20.17.55 19.15.27 17.52.03 16.41-.04c-.16-.011-.31-.021-.46-.027Zm3.09 3.83c.22 0 .5.07.9.21 2.375.81 5.03 2.875 6.47 5.02 1 1.48 1.78 3.23 1.78 3.97 0 .47-.47.91-.97.91 -.47 0-.95-.42-1.08-.92 -.18-.7-1.11-2.468-1.8-3.375 -1.22-1.609-3.11-3.016-4.959-3.71 -1.31-.49-1.64-1.061-1.04-1.78 .2-.25.38-.355.67-.355ZM13.87 5.69c.34 0 .66.07.93.21 1.74.88 1.65 3.42-.17 4.12 -2.25.85-3.375 1.76-4.109 3.25 -1.54 3.11-.29 6.801 2.82 8.29 2.28 1.09 4.891.71 6.7-.97 .82-.78 1.28-1.44 1.68-2.51 .57-1.5 1.22-2.07 2.39-2.07 1.48 0 2.51 1.26 2.21 2.7 -.62 2.83-3.01 5.69-5.9 7.032 -1.593.73-2.468.92-4.49.92 -1.98 0-2.84-.18-4.375-.875 -4.193-1.9-6.765-6.44-6.235-10.943 .5-4.167 3.36-7.661 7.34-8.98 .42-.15.8-.22 1.15-.21Zm4.62 1.27c.29 0 .66.14 1.21.41 2.25 1.06 4.1 3.03 5.1 5.38 .375.89.18 1.47-.55 1.7 -.57.16-.94-.14-1.43-1.16 -.92-1.93-2.21-3.26-4.02-4.145 -1.06-.52-1.19-.64-1.3-1.14 -.05-.27 0-.42.24-.71 .2-.25.41-.38.7-.37Zm-.54 3.26c.3 0 .66.14 1.11.44 1.28.83 2.724 2.64 2.724 3.4 0 .38-.37.87-.75.96 -.5.13-.86-.12-1.39-.95 -.57-.875-1.24-1.54-1.93-1.89 -.593-.31-.77-.54-.77-1.03 -.03-.28.1-.54.32-.69 .17-.18.41-.27.65-.28Z"/></svg>