<svg viewBox="0 0 32 32" xmlns="http://www.w3.org/2000/svg"><path d="M27.333 14.08v.06l-.01.06c-.12 3.1-.08 15.14-.08 15.765 0 1.43-1.12 2.58-2.16 1.7l-9.437-7.38c-2.97 3.07-5.807 5.99-6.411 6.56 -1.33 1.26-2.412-1.77-1.42-2.42 .08-.06 3-2.6 6.23-5.4l-6.989-5.47c-.61-.48-.84-1.26-.5-1.68 .12-.12.28-.18.44-.18 .07 0 .15.02.22.05 2.16.95 5.353 3.32 8.53 5.77 3.31-2.87 6.49-5.59 6.911-5.82 .51-.29.65.46.48.68 -.18.21-2.94 3.09-5.96 6.23 2.97 2.308 5.8 4.51 7.58 5.51l.29-14.16c-.24-.28-7.21-9.56-7.97-10.333 -1.21 1.04-7.53 8.151-7.85 8.45 1.44.14 7.56.51 11.42.91 .97.09 1.625.8-.47.79l-15.02-.03c-.24-.01-.45-.15-.54-.36 -.09-.21-.04-.45.13-.609C4.817 12.69 15.607.87 16.517.12c.2-.18.42-.26.64-.25 .3.011.55.193.65.3 .11.1 5.8 7.916 8.57 11.73 .66.9.83 1.516.83 2Z"/></svg>