<svg viewBox="0 0 32 32" xmlns="http://www.w3.org/2000/svg"><path d="M27.26 28.21L22.94.92c-.09-.6-.65-1.01-1.24-.92h-.01L17.12.73c.7 4.599-6.18 5.688-6.932 1.09l-4.56.72c-.6.08-1.005.641-.92 1.234v0L9.03 31.05c.08.59.641.99 1.234.9l4.56-.72c-.34-1.94.984-3.77 2.92-4.073 1.93-.31 3.75 1.04 4.02 2.98l4.56-.72c.58-.1.99-.65.9-1.24v-.01Zm-7.57-17.27l-1.65 2.4c-.15.18-.35.32-.58.4 -.68.15-1.67-1.29-2.359 2 -.7 3.28.78 2.38 1.33 2.8 .18.15.31.35.375.58l.52 2.85h-.02c.05.35-.13.7-.46.85 -.61.24-1.56.56-2.115.44 -1.21-.26-3.12-3.24-2.083-8.094 1.03-4.86 3.99-6.78 5.19-6.516 .55.12 1.29.8 1.75 1.27 .24.27.26.67.06.97Z"/></svg>