<svg viewBox="0 0 32 32" xmlns="http://www.w3.org/2000/svg"><path d="M21.47.92C19.16.08 16.81-.15 14.52.06c-2.651.21-3.95 1.031-3.865.885 -4.339 1.54-8 4.875-9.7 9.542 -3.03 8.31 1.26 17.505 9.557 20.53 8.3 3.026 17.484-1.26 20.5-9.573C34.03 13.12 29.752 3.93 21.45.9ZM11.06 29.51c-.87-.32-1.7-.73-2.49-1.21 3.87.29 8.917-.6 12.31-3.79 0 0 6.49-5.19 1.79-13.693 0 0 .75 3.43-.21 6.25 0 0-.93 3.83-5.01 4.948 -6.03 1.64-12.89-2.58-15.755-4.62 -.22-2.099-.03-4.266.74-6.385 1.141-3.14 3.28-5.59 5.9-7.23 -.66 4.57-.14 8.79.6 10.56 1 2.37 2.734 5.13 6.12 5.49 3.39.35 5.25-2.82 5.25-2.82 1.74-2.641 2.01-6.432 1.98-6.526 -.03-.09-.47-.34-.47-.34 -1.17 4.72-3.1 6.31-3.1 6.31 -3.042 2.93-5.198.89-5.198.89 -2.32-2.484-.7-6.526-.7-6.526 .9-2.75 3.54-6.776 6.54-8.828 .5.12 1 .2 1.49.38 1.75.641 3.35 1.62 4.73 2.88 -2.19.8-5.72 2.49-5.72 2.49 -5.599 2.35-5.98 5.92-5.98 5.92 -.59 3.67 2.33 2.12 2.33 2.12 3-1.47 4.47-6.03 4.47-6.03 -.94-.19-1.68.1-1.68.1 -1.2 2.96-3.65 4.177-3.65 4.177 -.97.51-1.19-.391-1.19-.391 -.17-.68.69-.8.69-.8 1.33-.516 2.18-1.92 2.38-2.49 .19-.58.54-.62.54-.62 1.13-.36 2.3-.6 3.49-.72 2.26-.28 5.73.8 5.73.8 .78.31 1.52.54 2.18.734 1.27 3.17 1.47 6.79.21 10.266 -2.72 7.47-10.979 11.33-18.46 8.61Z"/></svg>