<svg viewBox="0 0 32 32" xmlns="http://www.w3.org/2000/svg"><path d="M28.802-.001H3.192C1.43.004-.01 1.437-.01 3.197v25.6c.005 1.76 1.438 3.19 3.198 3.19h25.6c1.76-.01 3.19-1.44 3.19-3.2V3.17c-.01-1.76-1.44-3.2-3.2-3.2ZM9.396 19.279c1.41.64 3.07.02 3.724-1.4h2.21c-1.38 5.651-9.7 4.651-9.7-1.17 0-5.823 8.318-6.823 9.69-1.17H13.1c-.82-1.79-3.17-2.22-4.55-.83 -1.391 1.38-.97 3.734.82 4.54Zm15.125 1.12c-.43.36-.9.64-1.42.84 -1.5.57-3.19.39-4.52-.51v.51h-2.02V7.14h2v5.47c.71-.484 1.54-.78 2.401-.84h.35c4.552-.01 6.64 5.65 3.18 8.609Zm-.3-3.69c.03 1.57-1.24 2.87-2.81 2.87 -1.58 0-2.84-1.3-2.81-2.87 .07-3.66 5.526-3.66 5.6 0Z"/></svg>