<svg viewBox="0 0 32 32" xmlns="http://www.w3.org/2000/svg"><path d="M.04 21.906V1.48C.04.65.7-.01 1.53-.01H30.4c.83 0 1.49.66 1.49 1.49V21.16c-.9-.55-1.95-.82-3.15-.82 -1.68 0-2.94.39-3.81 1.19 -.87.79-1.3 1.77-1.3 2.96 0 1.29.44 2.25 1.33 2.86 .52.38 1.47.71 2.85 1.01l1.4.31c.83.18 1.42.4 1.81.61 .375.24.57.58.57 1.02 0 .75-.39 1.27-1.17 1.53l-.04.02h-2.95c-.39-.15-.69-.34-.93-.6 -.24-.3-.41-.74-.48-1.35h-2.65c0 .75.14 1.39.44 1.96h-2.24c.25-.52.39-1.1.39-1.76 0-1.18-.4-2.07-1.18-2.69 -.5-.4-1.26-.72-2.26-.96l-2.3-.54c-.88-.19-1.46-.375-1.734-.54 -.42-.24-.609-.6-.609-1.06 0-.51.21-.91.625-1.19 .43-.29 1-.42 1.71-.42 .65 0 1.17.12 1.61.34 .65.34 1 .92 1.05 1.71h2.66c-.05-1.4-.56-2.47-1.54-3.21 -1-.73-2.17-1.11-3.57-1.11 -1.68 0-2.93.4-3.81 1.17 -.86.77-1.3 1.77-1.3 2.94 0 1.29.43 2.25 1.33 2.86 .53.35 1.49.69 2.865 1.01l1.391.31c.81.18 1.41.38 1.81.62 .37.24.57.57.57 1.01 0 .76-.41 1.25-1.18 1.53H15.1c-.38-.15-.7-.34-.93-.62 -.24-.3-.42-.75-.49-1.35h-2.7c0 .74.14 1.39.42 1.96H8.61c.44-.7.74-1.49.88-2.39H6.75c-.19.68-.42 1.19-.7 1.53 -.35.43-.81.71-1.359.85H3.05c-.61-.15-1.12-.48-1.54-1.02C.9 30.096.6 28.986.6 27.506c0-1.5.3-2.625.88-3.44 .599-.82 1.37-1.22 2.385-1.22 1 0 1.734.27 2.255.85 .28.31.52.79.69 1.43h2.77c-.05-.83-.35-1.66-.92-2.48 -1.04-1.47-2.66-2.21-4.885-2.21 -1.55 0-2.85.48-3.88 1.41l-.07-.15Zm31.85 4.84v-2.07h-.7c-.05-.8-.4-1.37-1.05-1.71 -.42-.22-.96-.33-1.59-.33 -.73 0-1.28.14-1.7.42 -.42.28-.64.69-.64 1.2 0 .47.22.82.63 1.06 .29.14.87.33 1.75.53l2.29.54c.4.08.74.2 1.06.3l-.07.04Z"/></svg>