<svg viewBox="0 0 32 32" xmlns="http://www.w3.org/2000/svg"><path d="M7.34 7.833c-.66 0-1.26-.61-1.26-1.271 0-1.55 3.81-2.683 8.14-2.683 .39 0 .65 0 .65-.34 0-.6-1.32-.81-1.32-1.81 0-1.068 1.24-1.74 2.82-1.74 1.57 0 2.82.67 2.82 1.74 0 1-1.32 1.14-1.32 1.8 0 .2.19.33.65.33 4.33 0 8.21 1.07 8.21 2.68 .01.69-.56 1.26-1.26 1.271Zm19.64 6.08c1.57 1 2.16 2.81 1.9 4.491l-1.84 10.104c-.4 2.01-2.11 3.48-4.14 3.48H10.02c-2.04 0-3.75-1.48-4.14-3.48l-1.84-10.11c-.29-1.74.48-3.48 1.96-4.423 .92-.67 1.11-1.81 0-2.208 -1.58-.6-1.245-2.55.32-2.55h9.593c1.51 0 3.34 1.13 3.34 4.817 0 3.68-1.71 3.349-1.71 5.959 0 1.14.92 2.34 2.03 2.47 1.9.19 3.02-.54 3.02-3.22 0-2.75-1.58-4.016-1.58-6.292 0-2.75 1.7-3.817 2.82-3.817h2.76c1.57 0 1.9 1.94.32 2.54 -1.12.46-.93 1.609 0 2.208Z"/></svg>