<svg viewBox="0 0 32 32" xmlns="http://www.w3.org/2000/svg"><path d="M16.005 0c2.13-.03 4.18.802 5.7 2.3 1.52 1.5 2.375 3.54 2.375 5.68 0 2.13-.86 4.18-2.375 5.68 -1.53 1.5-3.58 2.32-5.71 2.3 -4.37-.06-7.885-3.615-7.885-7.984C8.11 3.6 11.62.04 15.99-.01Zm12.96 17.37h-.05l-6.04-2.99c-.43-.21-.94-.06-1.17.35 -1.56 2.59-3.49 4.943-5.75 6.958 -2.24-2.01-4.17-4.35-5.72-6.932 -.24-.42-.75-.57-1.17-.359l-6.047 2.96h-.05c-.42.24-.57.77-.33 1.2 1.67 2.88 3.7 5.54 6.068 7.9l-.01 0c.03.03.06.06.09.09 .44.44.9.88 1.37 1.3 .1.09.21.19.32.29 .42.37.84.74 1.28 1.09 .19.15.39.3.58.45 .37.28.734.57 1.11.85 .58.42 1.18.83 1.79 1.21 .4.26.92.27 1.34.02 .64-.42 1.28-.86 1.9-1.31 .09-.07.17-.15.27-.21 .47-.36.94-.72 1.41-1.1 .31-.26.61-.53.91-.79 .22-.2.45-.39.67-.59 .39-.36.77-.73 1.15-1.1 .07-.09.16-.16.25-.24h-.01c2.36-2.37 4.41-5.04 6.08-7.94 .22-.44.07-.97-.36-1.21Z"/></svg>