<svg viewBox="0 0 32 32" xmlns="http://www.w3.org/2000/svg"><path d="M27.38 5.49c-1.08-.61-2.79.37-3.83 2.18l-1.89 3.28c-.7 1.359-.59 2.984.28 4.24l.05.08c.87 1.25 2.04 2.41 2.43 2.82 1.09 1.17.56 3.099-.99 3.54 -1.48.41-2.9-.82-2.71-2.34 .06-.47-.09-1.24-.77-1.99s-2.06.66-2.5 2.14l-.03.08c-.45 1.45-.73 2.73-.65 2.85 .05.07.09.15.14.24 1.51 2.84-2.75 5.1-4.26 2.27 -.63-1.18-.19-2.65.99-3.27l.16-.08c.08-.05.34-.66.56-1.375l.4-1.32c.02-.07.04-.15.06-.23l1.19-4.26 -1.28 2.61c-.16-.49-.41-.51-.95-.12 -.33.24-.87.7-1.14.89 -.484.36-.92 1.05-1.13 1.47 -.125.26-.32.49-.55.66 -.92.75-2.25.6-2.98-.31 -.99-1.24-.34-3.08 1.21-3.401 .54-.125 2.37-1.24 3.46-2.04 .2-.15.36-.26.5-.41l2.93-2.23 -2.56 1.375s-.26-.03-.57.02c-.94.09-1.91.24-2.083.46 -.11.14-.24.27-.391.36 -.85.609-2.03.42-2.651-.43 -.61-.859-.41-2.05.44-2.67 .34-.25.77-.37 1.15-.37 .68.02 2.49.38 3.99.125l.38-.07c1.516-.26 3.29-1.58 4.03-2.917l1.57-2.755c.87-1.52.81-3.18-.15-3.73L17.46-.16c-.87-.484-2.29-.484-3.135 0L2.51 6.46c-.9.46-1.6 1.68-1.6 2.67v12.99c0 .99.708 2.2 1.57 2.69l11.79 6.64c.87.48 2.292.48 3.141 0l11.76-6.65c.87-.49 1.57-1.7 1.57-2.7V9.09c0-1-.71-2.208-1.56-2.7l-1.95-1.1Z"/></svg>