<svg viewBox="0 0 32 32" xmlns="http://www.w3.org/2000/svg"><path d="M31.844 11.93c-1.032-5.45-6.48-6.125-6.48-6.125H.96c-.81 0-.91 1.06-.91 1.06s-.11 9.767-.03 15.767C.24 25.85 3.47 26.19 3.47 26.19s11.02-.04 15.95-.07c3.25-.57 3.57-3.43 3.54-4.98 5.808.32 9.89-3.776 8.87-9.22Zm-14.76 4.683c-1.67 1.93-5.35 5.29-5.35 5.29s-.17.16-.42.03c-.1-.08-.14-.12-.14-.12 -.6-.59-4.5-4.07-5.39-5.28 -.95-1.29-1.39-3.599-.12-4.948 1.26-1.35 4-1.45 5.81.54 0 0 2.083-2.375 4.625-1.29 2.53 1.09 2.44 4.01.96 5.75Zm8.23.63c-1.24.15-2.25.03-2.25.03V9.7h2.35s2.63.73 2.63 3.51c0 2.55-1.32 3.55-2.75 4.02Z"/></svg>