<svg viewBox="0 0 32 32" xmlns="http://www.w3.org/2000/svg"><path d="M16.109-.001C9.38-.048 3.12 4.159.84 10.859 -2 19.23 2.49 28.3 10.86 31.14c8.371 2.83 17.448-1.66 20.281-10.02 2.3-6.81-.23-14.07-5.75-18.079l.17 3.39c2.74 3.04 3.83 7.34 2.468 11.4 -2.05 6.041-8.8 9.21-15.068 7.093C6.69 22.79 3.26 16.17 5.3 10.13 6.67 6.07 10.17 3.3 14.22 2.57L16.4-.02c-.11-.01-.22-.01-.33-.01Zm4.7 1.45c-.06 0-.12.01-.17.03h-.01c-.06.02-.11.05-.15.09 -.2.18-.875 1.1-.875 1.1l-1.49 1.83 -1.74 2.11 -2.98 3.7s-1.37 1.7-1.061 3.801c.3 2.1 1.859 3.12 3.07 3.532 1.2.4 3.06.54 4.584-.95 1.51-1.48 1.46-3.667 1.46-3.667l-.12-4.75 -.1-2.74 -.07-2.364s.01-1.141-.03-1.412c-.02-.05-.03-.1-.05-.14l-.02-.02 -.01-.02c-.07-.11-.19-.19-.31-.19Z"/></svg>