<svg viewBox="0 0 32 32" xmlns="http://www.w3.org/2000/svg"><path d="M21.776 24.229v-1.49l-.04.01c-.34.16-.7.25-1.07.27 -.39.03-.77-.09-1.08-.32 -.22-.17-.39-.41-.47-.67 -.1-.3-.11-.6-.04-.9 .06-.31.23-.57.47-.76 .21-.18.47-.29.75-.33 .49-.06.97.04 1.41.26l.03.01v-1.49l-.07-.02c-.44-.15-.9-.2-1.35-.18 -.42.01-.83.1-1.21.27 -.39.17-.73.43-.99.76 -.84 1.05-.86 2.53-.06 3.6 .39.5.94.86 1.56 1.01 .65.16 1.34.13 1.98-.07l.1-.04Zm-14.67 0v-1.49l-.04.01c-.34.16-.7.25-1.07.27 -.39.03-.766-.09-1.08-.32 -.22-.17-.38-.41-.47-.67 -.1-.29-.11-.6-.04-.9 .06-.31.23-.57.47-.76 .21-.18.47-.29.75-.33 .49-.06.97.04 1.41.26l.03.01v-1.49l-.07-.02c-.44-.15-.891-.2-1.35-.18 -.42.01-.83.1-1.21.27s-.72.43-.984.76c-.84 1.05-.86 2.53-.06 3.6 .391.5.948.86 1.568 1.01 .65.16 1.33.13 1.984-.07l.1-.04Zm5.23-1.23l-.01 1.27 .08.01c.29.05.58.08.88.11 .26.02.52.02.78.01 .25-.03.49-.07.734-.15 .28-.08.53-.22.76-.41 .19-.18.35-.4.44-.64 .16-.42.15-.87-.01-1.29 -.09-.22-.22-.41-.4-.56 -.17-.16-.37-.28-.59-.34l-.97-.36c-.12-.05-.21-.15-.26-.25 -.05-.1-.05-.21.01-.3 .04-.09.12-.15.2-.2 .1-.06.22-.09.34-.1 .2-.03.41-.03.61.01 .24.02.47.06.7.125l.05.01v-1.18l-.1-.03c-.24-.06-.48-.1-.73-.125 -.32-.05-.64-.05-.96-.01 -.4.03-.78.18-1.1.43 -.22.17-.375.39-.47.64 -.14.38-.14.81 0 1.19 .07.19.18.37.33.51 .13.125.27.22.43.31 .2.11.43.19.66.26 .07.02.15.04.22.07l.11.04 .03.01c.11.03.21.1.3.18 .06.05.1.125.13.2 .02.07.02.14 0 .21 -.04.11-.12.2-.22.26 -.12.05-.24.09-.37.11 -.19.03-.375.03-.57.02 -.25-.02-.5-.06-.75-.1 -.125-.03-.26-.06-.38-.09Zm-3.31 1.32h1.4v-5.552h-1.41Zm16.213-3.92c.63-.51 1.54-.42 2.05.2 .51.625.41 1.54-.21 2.05l-.03.01c-1.52 1.16-3.3-1.07-1.83-2.29Zm-2.04 1.13c.03 1.85 1.75 3.21 3.55 2.81 2.57-.49 3.18-3.901.93-5.25 -1.94-1.2-4.45.16-4.49 2.43Zm7.38-7.25c.03.88 1.34.88 1.38 0v-1.54c-.04-.89-1.35-.89-1.39 0v1.53Zm-3.8 0c.06.859 1.32.859 1.38 0v-3.45c-.06-.87-1.33-.87-1.39 0v3.44Zm-3.849 1.39c.06.859 1.32.859 1.38 0V8.205c-.04-.89-1.35-.89-1.39 0v7.46Zm-3.79-1.4c.05.87 1.32.87 1.38 0v-3.45c-.05-.89-1.35-.89-1.39 0v3.44Zm-3.87 0c.08.83 1.3.83 1.38 0v-1.54c-.04-.89-1.35-.89-1.39 0v1.53Zm-3.83 0c.03.88 1.34.88 1.38 0v-3.45c-.05-.89-1.35-.89-1.39 0v3.44Zm-3.849 1.39c.03.88 1.34.88 1.38 0V8.195c-.05-.89-1.35-.89-1.39 0v7.46Zm-3.818-1.4c.07.84 1.31.84 1.38 0V10.8c-.04-.89-1.35-.89-1.38 0v3.44Zm-3.84 0c.063.859 1.318.859 1.385 0v-1.54c-.04-.89-1.349-.89-1.385 0v1.53Z"/></svg>