<svg viewBox="0 0 32 32" xmlns="http://www.w3.org/2000/svg"><path d="M28 0H4C1.803 0 0 1.803 0 4v5.145s5.14 2.98 5.46 3.17c.41.24.92.23 1.33 0 .34-.2 10.69-6.145 10.84-6.235 .37-.22.77-.14.99-.01 .21.12.81.46 1.12.63 .31.18.29.67.02.83L6.81 14.983c-.47.26-.93.27-1.41 0 -.81-.46-4.109-2.375-5.437-3.151v2.692l5.46 3.17c.41.24.92.24 1.33 0 .34-.2 10.69-6.145 10.848-6.24 .37-.22.77-.14.99-.01 .21.12.81.46 1.12.64 .31.17.29.66.02.82 -.28.16-12.39 7.125-12.95 7.45 -.47.26-.93.27-1.41 0C4.56 19.89 1.26 17.97-.07 17.2v2.692l5.46 3.17c.41.24.92.24 1.33 0 .34-.2 10.69-6.14 10.848-6.24 .37-.22.77-.14.99-.01 .21.12.81.46 1.12.64 .31.17.29.66.02.82l-12.95 7.45c-.47.26-.93.27-1.41 0 -.81-.46-4.109-2.38-5.437-3.16v5.375c0 2.19 1.803 4 4 4h24c2.19 0 4-1.81 4-4v-24c0-2.197-1.81-4-4-4Z"/></svg>