<svg viewBox="0 0 32 32" xmlns="http://www.w3.org/2000/svg"><path d="M29.303 32H2.7c-1.51 0-2.71-1.2-2.71-2.7V2.7C-.01 1.19 1.19-.01 2.69-.01h26.704c1.4 0 2.599 1.197 2.599 2.697v26.605c0 1.5-1.2 2.69-2.7 2.69ZM16 5.3h-4c-3.7 0-6.7 3-6.7 6.69v8c0 3.69 3 6.69 6.69 6.69h8c3.69 0 6.69-3 6.69-6.7v-5.31c0-.8-.6-1.4-1.4-1.4h-1.3c-.7 0-1.31-.61-1.31-1.31 0-3.71-3-6.71-6.7-6.71Zm4.099 16H12c-.7 0-1.31-.61-1.31-1.31 0-.7.6-1.31 1.3-1.31h8.099c.7 0 1.3.6 1.3 1.3 0 .7-.6 1.3-1.31 1.3Zm-3.41-10.61c.7 0 1.3.6 1.3 1.3 0 .69-.6 1.3-1.31 1.3h-4.8c-.71 0-1.31-.61-1.31-1.31 0-.7.59-1.31 1.3-1.31Z"/></svg>