<svg viewBox="0 0 32 32" xmlns="http://www.w3.org/2000/svg"><path d="M27.98 4H3.99C2.51 4 1.32 5.19 1.32 6.67v3.99h2.67v-4h23.98v18.66h-9.33v2.67h9.335c.7 0 1.38-.29 1.88-.79 .5-.51.782-1.18.782-1.89V6.65c0-.71-.29-1.39-.782-1.888 -.51-.51-1.18-.782-1.89-.782ZM1.32 23.97v3.99h3.99c0-1.06-.43-2.08-1.17-2.83 -.75-.75-1.77-1.17-2.83-1.17Zm-.001-5.33v2.66c1.76 0 3.46.7 4.71 1.95s1.952 2.94 1.952 4.71v.02h2.67c0-5.15-4.17-9.328-9.313-9.335H1.3Zm0-5.33v2.67c6.625-.01 12 5.35 12.005 11.98v.03h2.67c-.03-8.1-6.584-14.65-14.675-14.67Z"/></svg>