<svg viewBox="0 0 32 32" xmlns="http://www.w3.org/2000/svg"><path d="M15.44 2.2c-4.875 0-8.828 3.95-8.828 8.828v1.02c1.89.94 3.44 2.47 4.411 4.35V11c-.01-2.45 1.97-4.421 4.417-4.416 1.21 0 2.2-.99 2.2-2.21 0-1.213-.99-2.208-2.21-2.208ZM2.2 12.12c-1.22 0-2.208.99-2.208 2.208 0 1.21.995 2.2 2.208 2.2 2.43-.01 4.417 1.97 4.412 4.41v6.62c0 1.21.99 2.2 2.2 2.2 1.21 0 2.2-1 2.2-2.21v-6.62c0-4.88-3.952-8.83-8.828-8.83Zm20.964 0c-4.88 0-8.83 3.95-8.83 8.82 0 4.875 3.95 8.82 8.828 8.82 1.63 0 3.22-.45 4.61-1.31 .34.77 1.125 1.3 2 1.3 1.21 0 2.2-.99 2.2-2.21V14.29c-.01-1.22-.99-2.21-2.21-2.21 -.91 0-1.66.532-2.01 1.3 -1.39-.86-2.99-1.31-4.62-1.31Zm0 4.41c2.44 0 4.41 1.96 4.41 4.41 0 2.44-1.97 4.41-4.42 4.41s-4.42-1.97-4.42-4.42 1.96-4.42 4.41-4.42Z"/></svg>