<svg viewBox="0 0 32 32" xmlns="http://www.w3.org/2000/svg"><path d="M2.83 31.99c7.32-2.42 17.94-8.026 25.328-13.05 .62-.43 1.1-.82 1.1-1.5 0-1.19-2.21-2.78-3.276-3.41C20.16 19.97 8.6 28.87 2.82 31.97Zm6.796-5.05c4.516-3.08 11.07-8.86 13.29-12 .52-.74.91-1.17.91-1.95 0-1.28-1.51-2.2-2.59-2.849 -2.6 6.016-8.417 13.5-11.62 16.786Zm3.45-4.71c3.12-3.96 5.583-8.609 5.583-11.95 0-1.75-1.28-2.958-2.93-3.885 .03 3.625-1.25 12.13-2.66 15.83Zm.66-3.82c.58-3.8.24-8.38-.51-11.255 -.41-1.57-1.84-3.34-3.167-3.885 1.74 4.859 3.234 11.776 3.67 15.14Zm-1.29-5.33C11.076 9.44 7.65 1.86 2.64-.02 5.91 3.52 10.755 10.55 12.436 13.08Z"/></svg>