<svg viewBox="0 0 32 32" xmlns="http://www.w3.org/2000/svg"><path d="M29.05 20.005c.09-.08.24-.01.26.1 0 .07.01.15.01.22 0 2.11-4.45 4.99-13.34 4.99s-13.333-2.875-13.333-4.99c0-.08.01-.16.01-.22 .01-.125.16-.19.26-.11 2.208 1.58 6.557 2.94 13.057 2.94 6.51 0 10.85-1.36 13.05-2.96Zm-13.06-1.12c-7.208 0-11.984-1.65-14.318-3.54 -.08-.07-.21-.05-.25.05 -.125.23-.19.49-.19.74 0 2.33 4.917 5.448 14.75 5.448 9.83 0 14.75-3.11 14.75-5.448 0-.26-.06-.51-.19-.75 -.05-.1-.18-.12-.25-.06 -2.34 1.891-7.11 3.53-14.32 3.53Zm16-7.65c0 2.69-5.34 6.28-16 6.28 -10.67 0-16-3.59-16-6.29 0-2.69 5.333-4.583 16-4.583 10.66 0 16 1.89 16 4.583Zm-4.67-.43c0-1.36-3.776-2.125-11.34-2.125 -7.56 0-11.333.77-11.333 2.125 0 1.34 3.776 3.3 11.333 3.3 7.55 0 11.33-1.96 11.33-3.31Z"/></svg>