<svg viewBox="0 0 32 32" xmlns="http://www.w3.org/2000/svg"><path d="M18.584 5.43c4.343-.38 8.68-2.64 13.02-.72v26.521c-5.99-2.651-11.979 2.65-17.97 0v-4.67c-4.416.35-8.833 2.64-13.25.71V.75c6.068 2.65 12.13-2.66 18.193 0Zm3.3 14.39c.52-.12 1.04-.24 1.56-.35 2.31-.51 3.23-1.87 3.23-4.02v-3.47c0-2.115-.6-3.46-3.407-2.849 -1.57.34-3.14.72-4.71.86v17.287c1.1-.1 2.2-.32 3.3-.56Zm0-2.82v-4.88l.625-.15c.77-.18.84.2.84.83v2.88c0 .53-.08.99-.85 1.16Zm-13.19 5.79v-7.391l.69-.16c.67-.15.86.02.86.83v5.04c0 .76.125 1.1.29 1.26 1.1-.23 2.208-.44 3.3-.51v-.12c-.12-.2-.28-.52-.28-1.27v-5.88c0-1.29-.9-1.78-1.42-1.87 .61-.37 1.46-1.07 1.46-2.51V7.43c0-1.86-1.016-2.833-3.04-2.407 -1.75.36-3.49.8-5.23.95v17.29c1.09-.1 2.2-.31 3.3-.55Zm0-10.25V8.16c.25-.06.49-.11.74-.17 .67-.15.82.05.82.8v2.34c0 .81-.25 1.09-.93 1.24Z"/></svg>