<svg viewBox="0 0 32 32" xmlns="http://www.w3.org/2000/svg"><path d="M16 0c1.71 0 13 6.516 13.854 8 .85 1.484.85 14.51 0 16 -.86 1.48-12.15 8-13.86 8 -1.72 0-13-6.52-13.86-8 -.86-1.49-.86-14.516 0-16 .859-1.484 12.14-8 13.85-8Zm3.06 9.068c-.2 0-.35.15-.35.34v5.16H13.28v-5.37h.93c.18 0 .33-.16.33-.35 0-.125-.07-.24-.17-.3l-2.099-2.01c-.07-.09-.19-.15-.31-.15 -.11 0-.22.05-.28.14l-2.24 2.01c-.1.06-.17.16-.17.29 0 .18.15.34.34.34h.93l.01 13.38c0 .19.14.34.33.34h1.99c.18 0 .34-.16.34-.35v-5.34h5.432v5.53h-.94c-.2 0-.35.15-.35.34 0 .125.06.23.16.29l2.1 2.01c.05.08.18.14.3.14 .11 0 .2-.07.27-.15l2.24-2.02c.09-.06.16-.17.16-.3 0-.19-.16-.35-.35-.35h-.94L21.28 9.3c0-.2-.16-.35-.34-.35h-1.99Z"/></svg>