<svg viewBox="0 0 32 32" xmlns="http://www.w3.org/2000/svg"><path d="M22.13 0c3.46 0 5.68.011 7.77 2.09 2.07 2.089 2.09 4.292 2.09 7.77v12.267c0 3.46-.02 5.68-2.099 7.77 -2.09 2.08-4.3 2.09-7.78 2.09H9.84c-3.463 0-5.681-.02-7.78-2.099C-.02 27.798-.03 25.58-.03 22.1V9.84c0-3.463.016-5.681 2.09-7.78C4.15-.02 6.35-.04 9.82-.04Zm5.85 14.86c-.57-6.099-5.75-10.864-12-10.864 -6.631 0-12 5.36-12 11.995 0 6.401 5 11.645 11.31 12h9.51c1.75-.01 3.16-1.43 3.17-3.18v-9.96ZM24.93 26.3c-.76 0-1.37-.61-1.37-1.37 0-.76.6-1.37 1.36-1.37 .74 0 1.36.6 1.36 1.36 0 .75-.62 1.36-1.37 1.36Zm-8.953-1.06c-5.12-.01-9.26-4.151-9.265-9.265 0-5.12 4.151-9.26 9.265-9.265 5.11 0 9.26 4.151 9.265 9.265 -.01 5.11-4.151 9.26-9.265 9.265Z"/></svg>