<svg viewBox="0 0 32 32" xmlns="http://www.w3.org/2000/svg"><path d="M27.573 4.22c-2.93-4.25-8.66-5.48-13.068-2.81L7.03 6.15c-2.042 1.28-3.45 3.36-3.854 5.73 -.37 1.96-.05 4 .89 5.776 -.65.96-1.08 2.05-1.27 3.19 -.43 2.4.13 4.88 1.54 6.88 2.93 4.24 8.64 5.47 13.06 2.82l7.46-4.75c2.03-1.29 3.42-3.37 3.83-5.74 .35-1.97.04-4-.9-5.76 1.98-3.12 1.88-7.12-.27-10.12ZM13.76 28.16c-2.401.62-4.94-.32-6.349-2.36 -.87-1.2-1.19-2.68-.94-4.15l.14-.71 .13-.44 .4.26c.88.66 1.86 1.14 2.917 1.46l.27.09 -.04.26c-.03.37.08.78.29 1.1 .43.63 1.19.93 1.93.73 .16-.06.31-.11.45-.19l7.43-4.75c.375-.24.61-.6.7-1.03 .08-.45-.03-.9-.27-1.26 -.45-.62-1.2-.9-1.94-.71 -.17.05-.34.12-.47.2l-2.82 1.78c-2.67 1.58-6.099.83-7.87-1.71 -.859-1.2-1.2-2.7-.94-4.15 .26-1.44 1.12-2.7 2.365-3.47l7.42-4.75c.46-.3.97-.51 1.52-.67 2.401-.625 4.93.31 6.349 2.34 1 1.4 1.28 3.2.76 4.84l-.14.44 -.39-.27c-.9-.66-1.88-1.15-2.94-1.47l-.27-.08 .02-.27c.02-.4-.09-.81-.3-1.12 -.44-.63-1.2-.9-1.94-.71 -.17.05-.32.1-.46.18l-7.46 4.78c-.375.25-.62.59-.7 1.03 -.08.42.02.89.266 1.24 .42.63 1.2.89 1.92.7 .17-.06.33-.11.46-.19l2.84-1.82c.46-.31.98-.54 1.51-.68 2.41-.63 4.93.31 6.349 2.35 .86 1.19 1.19 2.67.95 4.13 -.25 1.43-1.1 2.69-2.34 3.46l-7.44 4.73c-.484.29-1.01.52-1.55.67Z"/></svg>