<svg viewBox="0 0 32 32" xmlns="http://www.w3.org/2000/svg"><path d="M16.12 17.49c-1.25 2.57-2.958 6.06-3.81 7.64 -.83 1.43-1.51 1.24-2.05.03 -1.87-4.43-5.73-12.2-7.54-16.55 -.34-.81-.59-1.32-.83-1.53 -.24-.2-.734-.32-1.5-.359 -.281-.04-.42-.11-.42-.22V5.89l.068-.06c1.234-.01 7.2 0 7.2 0l.06.05v.58c0 .15-.1.23-.31.23l-.75.04c-.65.03-.97.21-.97.57 0 .18.06.44.21.8C6.91 11.628 11.9 22.128 11.9 22.128l.18.06 3.21-6.42 -.65-1.43 -2.208-4.36s-.43-.87-.58-1.17c-.97-1.93-.95-2.026-1.93-2.16 -.28-.04-.42-.07-.42-.2V5.82l.07-.07h5.72l.15.05v.59c0 .14-.11.2-.31.2l-.42.06c-1.06.07-.88.5-.19 1.89l2.1 4.333 2.34-4.68c.39-.86.31-1.07.15-1.26 -.1-.12-.41-.3-1.09-.33l-.28-.03c-.07 0-.13-.03-.2-.07 -.06-.05-.09-.11-.09-.18v-.57l.08-.07c1.66-.01 5.39 0 5.39 0l.07.06v.57c0 .16-.08.24-.26.24 -.86.03-1.05.125-1.37.58 -.16.25-.5.78-.86 1.38l-3.07 5.69 -.09.18 3.724 7.61 .22.06 5.85-13.92c.2-.57.17-.97-.09-1.2 -.27-.23-.47-.37-1.15-.4l-.56-.03c-.09 0-.15-.02-.21-.06 -.06-.05-.1-.1-.1-.17v-.58l.07-.07h6.62l.05.06v.58c0 .15-.1.24-.29.24 -.86.03-1.5.24-1.93.55 -.42.34-.75.82-.98 1.42 0 0-5.4 12.34-7.24 16.448 -.71 1.34-1.41 1.22-2.01-.05 -.76-1.56-2.37-5.05-3.54-7.61Z"/></svg>