<svg viewBox="0 0 32 32" xmlns="http://www.w3.org/2000/svg"><path d="M29.312 21.79c.07-.16.07-.3.15-.45 1.79-7.04-2.47-15.26-9.797-19.589 3.21 4.33 4.48 9.49 3.36 14.131 -.08.375-.23.82-.375 1.19 -.21-.12-.41-.24-.6-.375 0 0-7.26-4.49-15.027-12.34 -.23-.23 4.18 6.28 9.12 11.443C13.82 14.45 7.24 9.74 3.13 5.93c.44.81 1.125 1.64 1.79 2.46 3.43 4.41 7.92 9.79 13.308 13.9 -3.82 2.32-9.12 2.46-14.505 0 -1.35-.6-2.469-1.35-3.74-2.24 2.245 3.51 5.76 6.72 9.94 8.448 5.01 2.17 10.09 2.02 13.755 0h.07c.14-.08.29-.16.44-.3 1.79-.91 5.3-1.87 7.24 1.86 .52 1.04 1.49-3.82-2.17-8.31Z"/></svg>