<svg viewBox="0 0 32 32" xmlns="http://www.w3.org/2000/svg"><path d="M15.536.23v2.937H12.9v.77h2.62v2.93h.93V3.93h2.62v-.78h-2.63V.21Zm8.04 3.016v4.32h-3.95v1.23h3.94v4.25h1.39l0-2.109 .03-2.099 1.95-.04 1.94-.02V7.53h-3.94V3.2Zm-16.543.07v4.256H3.04v1.22H7.02v4.256h1.31V8.792h4.01v-1.24H8.32V3.3Zm8.11 7.02v4.791h-4.41v1.58h4.4v4.79h1.7v-4.8h4.41v-1.59h-4.42V10.31Zm12.96 2.06v2.95h-2.69v1.08h2.68v3.01h1.18v-3.02h2.7v-1.09h-2.71v-2.96Zm-25.484.17v2.901H-.03v.82H2.61v2.92H3.5v-2.93h2.66v-.83H3.45V12.54Zm20.948 6.02v4.33h-4.03v1.23h4.02v4.285h1.42V24.14h3.97v-1.24h-3.98v-4.34Zm-16.62.01v4.32H2.99v1.23H6.94v4.25H8.4v-4.26h3.93v-1.24H8.39v-4.34h-.74Zm8.42 6.1v2.93H12.74v1.07h2.625v3.01h1.24l.01-1.49 .02-1.53h2.63V27.6h-2.67v-2.94Z"/></svg>