<svg viewBox="0 0 32 32" xmlns="http://www.w3.org/2000/svg"><path d="M21.479 23.12c-1.14 1.31-1.78 3.71-.95 4.49 .79.59 2.933.52 4.51-1.65 1.15-1.45.76-3.86.1-4.5 -.98-.74-2.37.22-3.68 1.66Zm-10.739.39c-1.22-1.39-2.787-2.21-3.81-1.6 -.69.5-.81 2.24.16 3.95 1.43 2.03 3.46 2.24 4.29 1.74 .88-.66.4-2.86-.66-4.11Zm5.47 4.19c-1.48-.04-3.74.58-3.71 1.38 -.03.53 1.77 2.09 3.6 2.01 1.76.04 3.593-1.52 3.57-2.2 -.01-.7-2-1.24-3.48-1.18Zm-.1-18.588c-1.71-.05-3.34 1.24-3.34 1.98 -.01.907 1.34 1.83 3.349 1.86 2.05 0 3.35-.75 3.375-1.69 .02-1.06-1.86-2.183-3.36-2.167Zm-4.099.7c-2.85-.46-5.22 1.19-5.12 4.25 .09 1.17 6.172-4.052 5.12-4.24Zm13 4.333c.09-3.04-2.276-4.7-5.125-4.24 -1.05.18 5.03 5.417 5.125 4.23Zm.48 1.09c-1.66-.44-.56 6.73.78 6.15 1.47-1.17 1.95-4.6-.79-6.14ZM5.62 21.46c1.34.59 2.43-6.573.78-6.135 -2.733 1.54-2.27 4.97-.79 6.15Zm12.55-7.94c-1.532 1-1.81 3.24-.62 4.99 1.18 1.76 3.39 2.41 4.916 1.43 1.532-.98 1.8-3.22.62-5 -1.2-1.78-3.4-2.42-4.93-1.42Zm-4.13.18c-1.53-.98-3.74-.34-4.92 1.41 -1.2 1.78-.92 4.016.61 5.016 1.52 1 3.72.35 4.92-1.42 1.17-1.76.89-4-.62-5Zm5.82 9.54c-.02-1.86-1.67-3.36-3.71-3.34 -2.04.02-3.683 1.51-3.68 3.375v.03c.01 1.86 1.67 3.36 3.7 3.33 2.03 0 3.67-1.52 3.65-3.36v-.05Zm4.28-20.18c-3.08 1.57-4.869 2.83-5.855 3.91 .5 2 3.125 2.07 4.08 2.016 -.2-.08-.37-.2-.43-.36 .24-.17 1.09-.03 1.69-.35 -.23-.04-.34-.08-.45-.27 .56-.18 1.16-.32 1.52-.62 -.19 0-.37.04-.62-.12 .5-.26 1.03-.48 1.45-.88 -.26 0-.55 0-.62-.1 .45-.29.843-.59 1.16-.95 -.36.06-.52.02-.61-.04 .34-.35.79-.641 1-1.09 -.28.1-.52.12-.7 0 .125-.26.63-.42.92-1.036 -.29.04-.59.06-.66 0 .13-.53.36-.82.58-1.14 -.61 0-1.54 0-1.5-.04l.37-.38c-.6-.17-1.21.02-1.65.16 -.2-.14 0-.35.24-.55 -.53.08-.98.18-1.375.34 -.22-.21.13-.38.31-.59 -.8.16-1.12.36-1.46.55 -.24-.22-.02-.42.14-.593 -.6.21-.91.49-1.22.75 -.12-.14-.29-.24-.09-.6 -.42.24-.74.52-.98.839 -.26-.18-.16-.41-.16-.6 -.45.359-.72.71-1.06 1.08 -.09-.05-.15-.21-.19-.47 -1.04 1-2.53 3.5-.38 4.47 1.79-1.46 3.97-2.54 6.375-3.34Zm-16.344 0c2.39.8 4.55 1.88 6.37 3.35 2.12-1 .65-3.5-.39-4.48 -.06.25-.11.43-.18.47 -.34-.359-.62-.73-1.06-1.09 0 .2.1.44-.16.59 -.24-.32-.55-.6-.97-.839 .19.34.03.44-.08.59 -.32-.3-.62-.58-1.2-.796 .16.19.4.401.16.62 -.32-.2-.67-.41-1.44-.57 .17.19.53.4.31.6 -.43-.17-.88-.29-1.38-.35 .23.2.45.38.25.54 -.46-.17-1.08-.34-1.68-.18l.375.37c.04.05-.875.04-1.495.04 .22.3.45.59.58 1.14 -.07.05-.36.02-.65 0 .3.6.79.76.91 1.021 -.18.125-.42.09-.7 0 .21.41.66.71 1 1.07 -.1.05-.24.09-.62.05 .31.34.69.65 1.16.93 -.09.09-.37.08-.641.09 .41.4.95.62 1.45.88 -.26.18-.45.14-.62.14 .33.29.95.43 1.52.61 -.125.18-.22.22-.47.26 .59.33 1.43.18 1.68.359 -.07.16-.22.28-.43.36 .95.05 3.599-.03 4.099-2.021 -.99-1.077-2.79-2.34-5.86-3.9ZM10.1.08c.31-.01.57.181.86.271 .7-.229.86.08 1.2.21 .77-.17 1 .18 1.375.55l.42-.02c1.16.677 1.73 2.05 1.94 2.756 .2-.71.78-2.08 1.94-2.756l.42.01c.36-.38.6-.72 1.375-.56 .34-.15.5-.44 1.21-.22 .44-.15.82-.5 1.41-.063 .48-.197.96-.26 1.39.12 .66-.08.86.08 1.03.281 .14 0 1.07-.15 1.51.47 1.08-.12 1.42.62 1.032 1.31 .22.33.45.66-.07 1.303 .19.36.07.73-.37 1.21 .125.5-.1.84-.5 1.12 .07.68-.64 1.08-.84 1.21 -.09.4-.25.78-1.061.97 -.12.6-.62.69-1.1.81 1.58.9 2.91 2.077 2.91 4.97l.24.4c1.79 1.07 3.41 4.53.89 7.35 -.16.875-.44 1.49-.69 2.192 -.36 2.817-2.776 4.13-3.42 4.29 -.93.69-1.92 1.35-3.26 1.81 -1.27 1.28-2.64 1.78-4 1.78h-.12c-1.38 0-2.76-.5-4.02-1.79 -1.35-.46-2.35-1.12-3.27-1.82 -.65-.16-3.05-1.48-3.42-4.3 -.25-.7-.53-1.34-.69-2.22 -2.527-2.817-.92-6.28.88-7.355l.22-.4c0-2.9 1.33-4.077 2.91-4.98 -.48-.12-.96-.22-1.1-.83 -.83-.2-.99-.58-1.07-.98 -.2-.14-.92-.54-.84-1.24 -.41-.29-.62-.62-.5-1.141 -.42-.46-.54-.859-.36-1.22 -.52-.64-.29-.98-.07-1.3C4.1 1.57 4.45.82 5.53.94 5.94.32 6.89.46 7.03.46 7.19.26 7.41.08 8.07.16c.41-.381.9-.319 1.39-.136 .2-.161.38-.22.54-.22Z"/></svg>