<svg viewBox="0 0 32 32" xmlns="http://www.w3.org/2000/svg"><path d="M9.56 27.54c-1.22-.97-2.521-1.88-3.41-3.18 -1.87-2.29-3.32-4.93-4.297-7.71 -.6-1.81-.8-3.74-1.563-5.48C-.52 9.91.42 8.53 1.8 8.13c.615-.12 1.69-.7.39-.29 -1.18.85-1.281-.79-.09-.89 .81-.11 1.12-.79.839-1.38 -.875-.58 2.13-1.21.62-2.063 -1.58-1.71 2.2-2.04 1.27-.1 -.23 1.49 2.646-.28 1.979 1.448 .67.82 2.53.18 2.48 1.34 .99.06 1.32.89 2.25.95 .96.43 2.69.77 3.026 1.854 -.96.75-3.16-1.56-3.26.53 .28 3.07.21 6.25 1.33 9.182 .53 1.77 1.82 3.17 2.99 4.55 1.11 1.35 2.625 2.3 4.16 3.11 1.35.63 2.81 1.05 4.28 1.32 .59-.46 1.65-2.16 2.58-1.44 .04.8-1.85 1.68-.09 1.59 1.03-.32 1.75.79 2.6-.21 .78.92 3.26-.6 2.7 1.3 -.76.48-1.86.19-2.62.85 -1.25-.62-2.24.55-3.62.41 -1.54.27-3.1.38-4.65.38 -2.55-.21-5.16-.29-7.58-1.18 -1.37-.41-2.7-1.18-3.901-1.96Zm2.15.93c1.33.57 2.641 1.18 4.1 1.37 2.31.31 4.71.81 7.042.36 -1.06-.48-2.15.18-3.2-.35 -1.26.27-2.61-.07-3.9-.24 -1.46-.65-3.026-1.1-4.391-1.94 -1.7-.62.88.79 1.34.91 1.06.6-1.18-.32-1.484-.57 -.891-.5-1.01-.4-.09.1 .18.1.36.22.55.31Zm-2.54-1.8c1.29.47-.01-.91-.6-.83 -.26-.46-1-.75-.48-.99 -.95.32-.984-1.24-1.43-1.03 -1-.32-.39-1.43-1.57-2.11 -.11-.72-1.177-1.35-1.521-2.44 -.16-.56-1.21-2.151-.56-.67 .552 1.43 1.52 2.65 2.33 3.88 .63 1.16 1.37 2.38 2.51 3.1 .38.37.75.93 1.3 1.05Zm-3.73-4.09c.04-.2.23.42 0 0Zm5.27 4.66c.28-.125-.42-.16 0 0Zm.7.26c-.08-.36-.33.19 0 0Zm.88.36c.41-.41-.65-.25 0 0Zm1.5.83c.25-.375-.82-.15 0 0Zm-2.891-2.02c.64-.43-.85-.01 0 0Zm.65.32c-.02-.23-.24.09 0 0Zm3.29 2.05c.53.33 3.09.72 1.49.13 -.27.05-2.98-.77-1.49-.14ZM9.6 24.96c-.06-.23-.83-.25 0 0Zm1.53.89c.4-.28-.83-.22 0 0Zm1.29.79c.57-.22-.94-.22 0 0Zm-3.45-2.37c.62.47 2.5.06.95-.29 -.71-.38-2.31-.64-1.22.22Zm4.31 2.64c.26-.45-1.09-.26 0 0Zm-1.32-1.05c1.52.43-1.28-.96-.375-.16l.2.08Zm2.635 1.52c1.43.01-1.31-.2 0 0Zm-6.2-3.95c-.06-.27-.36.02 0 0Zm8.62 5.31c.03-.49-.47.36 0 0Zm-6.18-3.81c-.09-.26-.45-.01 0 0Zm-2.32-1.68c.82-.05-1.13-.37 0 0Zm-2.75-1.78c-.1-.4-.9-.71 0 0Zm7.214 4.58c-.16-.18-.08.03 0 0Zm4.48 2.75c-.01-.26-.24.09 0 0Zm-4.88-3.17c.07-.35-.71-.11 0 0ZM9.23 23.5c.609-.07-.984-.42 0 0Zm5.65 3.51c.95-.38-.94-.19 0 0Zm-2.942-2c1.1.14-1.32-.75-.25-.08Zm3.83 2.35c1.03-.62.69 1.44 1.75.17 1.04-.76-.91.94.38.13 .92-.62 2.3.29 3.16.59 .625-.04 1.23.54 1.87.19 1.23-.34-2.41-.49-1.46-1.08 -1.125.32-1.96-.4-2.51-1.12 -1.27-.3-2.724-.94-3.36-2.06 -.26-.42.37.06-.23-.625 -.76-.68-1.141-1.45-1.66-2.28 -.609-.33-.69-1.29-.75-.04 0-.8-.74-1.33-.92-1.1 -.01-.76.79-.38.23-.95 -.12-.8-.516-1.62-.64-2.51 -.19-.43-.03-1.35-.63-.375 -.22 1.02-.08-1.26.27-.51 .44-.78-.17-.69-.19-.58 .29-.66.18-1.58-.08-1.23 .15-.69.25-2.54-.24-2.208 .29-.72.55-3.3-.71-2.32 -.516 0-1.41.18-1.82.39 1.31.72-.14.26-.67.14 -.07.66-.6.38-1.26.38 1.05.13-.516 1.07-1.125.71 -.79.375.68 1.31.01 1.6 .08.43-1.21-.16-1.104.85 -.766-.33-.11 1.2.27.68 1.3.34.91 1.15.94 1.91 -.21.44-1.05-1.05-.19-.98 -.68-1.1-.75-.4-1.318.11 -.13.03 1.443.72.45 1.07 .86.13.891.89 1.06 1.37 .52.54.41-.6 1.04.05 -.4-.59-2.09-1.65-.73-1.31 -.01-.59-.25-1.06.17-1.05 .41-.75-.44 1.84.5.89 .26-.12.32-.75.79.05 .67.66.24 1.14-.71.53 .16.57 1.271.78 1.06 1.68 .21.79.52.5.79.45 .2.77.32.2.33-.17 .96.2.734.77 1.03 1.17 .66.29-.95-2.04.19-.71 1.19 1.08.44 1.53-.63 1.35 .68-.06.9.92 1.75.88 .77.37 1.3 1.78-.04 1.19 -.47-.42-2.11-.94-.76-.15 1.24.57 2.21.91 3.417 1.63 .84.6 1.22 1.31 1.54 1.44 -.72.34-2.167-.28-1.1-.47 -.67-.12-1.43-.46-.79.375 .54.45 1.93.4 2.18.45 -.22.46-.58.5.01.53 -.66.34.2.4.266.59Zm-1.33-3.75c-.4-.42-.5-1.19-.08-.52 .21.08.7 1.26.07.51Zm4.31 2.74c.24-.01 0 .18 0 0Zm-4.943-3.76c-.02-.62.14.48 0 0Zm-.44-.58c-.5-.96.63.27 0 0Zm-5.2-3.6c.29-.08.14.5 0 0Zm4.141 2.24c.17-.68.2.56 0 0Zm-2.93-2.04c-.21-.37.43.34 0 0Zm2.51.8c-.47-1.06.33-.58.1.17Zm-4.33-2.89c-.21-.35-.56-1.359-.45-1.67 .09.5 1.06 2.167.47.68 -.66-1.24.78.4.93.71 .06.3-.41-.09-.09.63 -.59-.83-.35.45-.88-.37Zm-1.34-.93c.05-.81.3.55 0 0Zm.6.2c.28-.609.484.84 0 0Zm-1.45-1.12c-.5-.5-.859-.96.02-.31 .34.01-.75-1.04.08-.34 .88.16.43 1.44-.11.641Zm.76-.03c.29-.29.15.28 0 0Zm.46.15c-.44-.83.53.34 0 0Zm-.94-.89c-1.45-1.29 1.82.67.23.24Zm4.15 2.41c-.63-.375-.17-2.65.04-1.1 .609-.2-.04.8.41.79 -.07.63-.28.85-.47.3Zm1.532.9c.06-.69.13.46 0 0Zm-.27-.27c.06-.3 0 .34 0 0Zm-5.13-3.48c-.94-1.29 2.7 1.29.59.32 -.22-.06-.484-.08-.6-.33Zm2.95 1.56c-.09-1.09.19.17 0 0Zm2.24 1.43c.17-.62.01.4 0 0Zm-5.058-3.5c.55-.12 2.292.96.69.31 -.18-.2-.56-.11-.7-.32Zm4.74 2.365c.06-1.11.33-.67 0 .15Zm-4.34-2.75c.22-.33-.6-1.5.12-.42 .3.24.89.41.375.516 .81.71-.2.19-.5-.1Zm4.09 2.4c.15-1.26.14.734 0 0ZM5.99 11.4c.17-.08.08.22 0 0Zm1.06.63c.27-.58.5.64 0 0Zm3.01 1.68c0-.23.05.31 0 0Zm-.18-.4c-.42-1.04.391.54 0 0Zm-.27-.68c-.07-.43.24.53 0 0Zm.42-.69c-.29-.51.36-2.23.43-1.17 -.31.83-.09 1.3.125.18 .391-.88-.09 1.74-.56.97Zm.42-2.57c.125-.16.03.18 0 0Zm-.72 14.15c-.18-.16.02.09 0 0Zm1.47.74c.81.21.81-.125.07-.23 -.41-.375-1.67-.78-.54-.05 .07.18.31.18.45.27Zm-2.93-1.94c.45.33 1.7.95.641.125 .359-.42-.69-.64-.34-.92 -.875-.55-.7-.49-.08-.48 -1.07-.48.15-.44.09-.69 -.42-.08-2.026-.72-1.08.05 -.97-.49-.24.18-.53.11 -.99-.28.88.75-.16.5 .56.44 1.53 1.15.24.47 -.18.24.92.61 1.19.8Zm1.54.89c1.88.6-.93-.75 0 0ZM17.72 28c.02-.375-.26.31 0 0Zm.81.34c.43-.43.01.66.71-.11 0-.56-.03-.88-.81-.21 -.22.12-.32.63.08.31ZM5.6 20.22c-.13-.53-.94-.53 0 0Zm.87.57c-.33-.54-1.16-.49 0 0Zm4.94 2.98c.484.42 2.21.31.58.05 -.25-.36-1.54-.28-.59-.06Zm6.79 4.19c.74-.625-.72.27 0 0Zm1.54 1.05c0-.2-.32.08 0 0Zm0-.28c.82-.875-.8.05 0 0ZM3.44 18.4c-.71-1-.44-1.46-1.12-2.27 -.125-.63-1.16-2.05-.54-.55 .573.87.74 2.234 1.64 2.8Zm16.04 10.04c1.51-.98-.62-.43 0 0Zm1.157.45c.76-.65-.48-.14 0 0ZM5.32 19.07c.21-.33-.56-.05 0 0Zm15.073 9.5c.73-.48-.17-.41-.13.04Zm-9.96-6.29c-.03-.32-.391.02 0 0Zm.61.35c-.2-.4-.31.06 0 0Zm10.52 6.25c.93-.69-.58-.14-.2.125Zm-.36-.18c.76-.65-.82.28 0 0Zm1.83 1.22c.51-.35-.625-.11 0 0ZM5.77 18.81c.68.15 2.75 1.69 1.53.1 -.625-.19-.25-1.72-.891-1.45 .42.71.35 1.02-.55.56 -1.13-.55-.64.27-.42.5 -.3.06.4.26.31.26Zm-3.15-2.48c.12-.51-1.141-2.81-.6-1.16 .19.34.17 1 .59 1.15Zm5.76 3.55c-.36-.3-.02-.05 0 0Zm.87.2c0-.55-.97-.22 0 0Zm7.57 4.77c-.15-.37-.58-.01 0 0Zm.36.26c-.06-.21-.21.03 0 0Zm3 1.89c.28-.22-.36-.03 0 0ZM4.16 16.709c.82-.33-.89-.23 0 0Zm11.979 7.54c-.01-.54-.53.13 0 0ZM3.83 15.93c.53-.19-.49-.12 0 0Zm1.54.74c-.01-.18-.17.06 0 0ZM24.16 28.2c.68-.14 2.24.34 2.49-.19 -.83-.02-2.87-.59-2.97.13l.18.03ZM5.86 16.804c.01-.55-.43-.03 0 0ZM1.8 13.98c-.19-1.04-.698-.16 0 0Zm.96.24c.01-.34-.89-.31 0 0Zm.552.27c-.17-.13-.125.16 0 0Zm3.46 2.224c.16-.15-.39-.11 0 0ZM2.94 13.88c-.1-.79-1.12-.12 0 0ZM.96 12.59c-.03-.359-.2.13 0 0Zm.29-.23c-.05-.43-.25.05 0 0Zm1.631.97c.68-.28-1.255-.57-.15-.06Zm21.77 13.44c.44-.41-.56-.125 0 0Zm2.63 1.36c.17-.53-.45.06 0 0ZM3.03 12.46c.07-.51-.55.09-.001 0ZM.71 10.9C.58 10.18.6 8.93 1.79 9.35c-1.589.31 1.09 1.97.76.66 .66.03 1.3-.4.95.25C4.81 10.11 5.73 8.97 7 9.13c.99-.13 2.07-.23 3.14-.625 .875-.07 1.71-1.01 1.24-1.57 -1.2-.11-2.45.04-3.78.3 -1.47.3-2.792.88-4.28 1.13 -1.45.19.28.53-.125.609 -.75.26.89.43-.1.7 -.609-.12-1.25-.33-.99-.98 -1.38.17-2.594.75-1.5 2.15Zm3.32-1.7c.32-1.2 1.734.97.53.15 -.15-.11-.38-.2-.54-.16Zm.06-.58c.46-.35.24.19 0 0Zm.59.01c.04-.55 1.354.29.21.19Zm.8-.33c.29-.35.08.31 0 0Zm.2-.14c.49-.6 2.79-.38 1.109-.06 -.45-.34-.8.19-1.109.05Zm3.005-.47c-.08-1.62 1.49.57 0 0Zm.84-.01c.31-.82 1.2-.33.14-.17 .02.08-.04.42-.15.16ZM2.65 12c.93-.58-.99-.5 0 0Zm.68.19c.32-.35-.71-.15 0 0ZM1.3 10.74c.53-.41-.625-.16 0 0Zm27.47 17.188c.01-.48-.41.21 0 0Zm-2.8-1.91c.07-.55-.36.04 0 0Zm3.55 2.08c.74 0 2.25-.23.63-.23 -.26.04-1.48.03-.64.22ZM3.91 11.83c.6-.05.94-.67-.12-.63 -1.641-.18 1.44.55-.21.34 -.23.14.31.31.32.27Zm.532.27c-.07-.391-.19.2 0 0Zm.625-1.68c.266-.33-.359-.09 0 0Zm-2-3.343c1.07-.37 2.54-.78 3.05.17 -.516-.62-.21-1.229.28-.33 .68.92 1.03-.42.58-.73 .51.63 1.08.93.34.03 .81-.98-1.63.13-2.19.12 -.266.12-2.76.63-2.068.71Zm.63-1.21c.61-.47 2.12.27 1.15-.47 -.09-.08-2.12.55-1.16.46Zm2.23.08c.71.02-.31-.96.54-.516 -.15-.46-1-.55-1.42-.73 -.24.42.484 1.25.87 1.245ZM4.09 3.92c.24-.34-.44.17 0 0Zm.91.21c1.15-.16-.3-.5-.24-.01ZM3.29 2.79c-.82-1.07 1.52.18.7-.94 -.698-.552-1.37.625-.71.93Zm10.43 5.62c.375-.67-1.55-.891-.25-.24 .12.04.08.28.25.23Z"/></svg>