<svg viewBox="0 0 32 32" xmlns="http://www.w3.org/2000/svg"><path d="M29.771 10.469l-.96-.54c1.46-2.1 2.34-5.234 1.24-9.94 0 0-2.474 6.703-7.46 6.484L16.76 3.23c-.22-.125-.47-.2-.72-.21h-.14c-.25.01-.5.07-.72.2L9.35 6.46C4.37 6.68 1.89-.03 1.89-.03 .79 4.68 1.66 7.81 3.13 9.9l-.96.53c-.484.26-.786.766-.786 1.31l.02 19.45c0 .27.14.52.39.65 .24.14.536.14.77 0l7.71-4.28c.49-.29.78-.78.78-1.32v-9.09c0-.55.29-1.05.78-1.32L15.12 14c.24-.14.51-.21.78-.21 .26 0 .54.06.78.2l3.28 1.82c.48.26.78.77.78 1.31v9.08c0 .54.3 1.03.78 1.31l7.71 4.27c.24.14.54.14.78 0 .24-.13.38-.39.38-.66l.02-19.46c0-.56-.31-1.06-.79-1.32Z"/></svg>