<svg viewBox="0 0 32 32" xmlns="http://www.w3.org/2000/svg"><path d="M9.6 0c-.65 0-1.18.136-1.58.401 -.41.265-.609.615-.609 1.036v29.084c0 .36.2.7.63 1 .42.31.93.46 1.55.46 .58 0 1.109-.16 1.55-.47 .44-.31.67-.65.67-1.01V1.42c0-.43-.22-.771-.66-1.041 -.44-.265-.96-.401-1.58-.401Zm12.69 11.54c-.65 0-1.17.13-1.56.4l-5.92 3.71c-.27.24-.38.625-.34 1.14 .04.5.28.99.69 1.45 .42.45.89.75 1.42.87 .52.12.92.05 1.19-.19l2.34-1.47v13.04c0 .36.2.7.6 1 .4.31.91.46 1.53.46s1.15-.16 1.6-.47c.44-.31.67-.65.67-1.01V12.93c0-.43-.22-.78-.66-1.04 -.44-.27-.98-.41-1.62-.41Z"/></svg>