<svg viewBox="0 0 32 32" xmlns="http://www.w3.org/2000/svg"><path d="M15.97.5C24.7.5 31.49 7.244 31.49 16c0 9.2-7.41 15.5-15.525 15.5C7.55 31.5.48 24.57.48 16 .48 7.69 7.02.5 15.95.5ZM3.98 11.819c-.47 1.27-.7 2.66-.7 4.18 0 6.93 5.756 12.65 12.73 12.65 7.65 0 11.07-6.37 11.15-6.506l-5.84-2.6c-.49 2.31-2.58 3.31-4.27 3.46v2.38h-1.8v-2.39c-1.72-.02-3.29-.64-4.71-1.86l2.13-2.16c1.98 1.83 5.4 1.98 5.4-.14 0-.39-.14-.7-.42-.95 -.89-.375-.12-.01-13.706-6.087Zm12.03-8.55c-2.4 0-7.03.544-10.656 5.81l5.92 2.65c.625-1.96 2.52-2.69 3.98-2.769V6.57h1.8v2.38c1.41.07 2.71.55 3.875 1.43l-2.02 2.07c-2.67-1.87-5.22-.5-4.38.69 3.33 1.5 2.73 1.23 5.81 2.6l7.94 3.54c.25-1.09.38-2.2.38-3.32 0-3.57-1.24-6.57-3.71-8.994 -2.46-2.5-5.45-3.738-8.98-3.738Z"/></svg>