<svg viewBox="0 0 32 32" xmlns="http://www.w3.org/2000/svg"><path d="M10.51 15.484c0-2.56-1.97-5.21-5.297-5.21C2.65 10.27 0 12.23 0 15.566c0 2.55 1.964 5.208 5.297 5.208 1.06 0 2.135-.35 3.03-.99l1.54 1.53 .68-.69 -1.46-1.46c.89-.98 1.41-2.26 1.41-3.72Zm-5.3-4.27c2.43 0 4.36 1.88 4.36 4.31 0 2.08-1.625 4.308-4.319 4.308 -2.7 0-4.32-2.18-4.32-4.27 0-2.73 2.18-4.355 4.27-4.355Zm7.81 2.09h.89v7.25h-.9Zm.42-.99c-.43 0-.78-.35-.78-.77 0-.43.34-.78.77-.78 .42 0 .77.34.77.77 0 .42-.35.76-.78.76Zm3.62 0c-.43 0-.78-.35-.78-.77 0-.43.34-.78.77-.78 .42 0 .77.34.77.77 0 .42-.35.76-.78.76Zm-.43.98h.9v7.25h-.91Zm6.28 7.381c-1.67 0-2.66-1.29-2.66-2.56v-6.83h.9v2h3.16v.89h-3.17v3.96c0 .8.64 1.66 1.74 1.66 .29 0 .59-.09.85-.26l.08-.05 .42.76 -.09.04c-.39.21-.86.33-1.29.33Zm5.93.04c-2.44 0-3.89-1.92-3.89-3.8 0-2.44 1.92-3.885 3.8-3.885 .98 0 1.74.34 2.3.984v-.73h.89v7.25h-.9v-.81c-.52.64-1.29.98-2.23.98Zm-.09-6.79c-1.46 0-2.91 1.109-2.91 2.984 0 1.45 1.1 2.901 2.98 2.901 .85 0 1.7-.38 2.26-1.07v-3.76c-.59-.69-1.45-1.08-2.35-1.07Z"/></svg>