<svg viewBox="0 0 32 32" xmlns="http://www.w3.org/2000/svg"><path d="M18.479 2.65c-1.37-1.391-3.61-1.391-4.968 0L1.02 15.369c-1.37 1.41-1.37 3.65 0 5.057L9.93 29.5c.63.57 1.46.88 2.317.88h7.48c.94 0 1.83-.38 2.49-1.06l8.73-8.901c1.37-1.42 1.37-3.651 0-5.07Zm-.35 23.229l-1.26 1.26c-.1.1-.22.15-.36.15h-1.07c-.125-.01-.24-.05-.33-.14l-1.28-1.3c-.2-.21-.2-.52 0-.73l1.78-1.82c.19-.21.51-.21.7 0l1.78 1.81c.19.2.19.52 0 .72Zm0-7.62l-4.99 5.07c-.1.09-.23.15-.359.14h-1.07c-.125 0-.25-.05-.34-.12l-1.28-1.3c-.2-.2-.2-.53 0-.73l5.52-5.62c.19-.2.51-.2.7 0l1.78 1.81c.19.19.19.52 0 .71Zm0-7.61l-8.73 8.88c-.1.1-.22.15-.36.15H7.96c-.125 0-.24-.05-.34-.125l-1.271-1.3c-.2-.2-.2-.52 0-.72L15.61 8.1c.19-.2.51-.2.7 0l1.78 1.81c.19.2.19.52 0 .72Z"/></svg>