<svg viewBox="0 0 32 32" xmlns="http://www.w3.org/2000/svg"><path d="M32 16v-.46l-.05-.32c-.36-3.45-3.07-6.161-6.51-6.53l-.32-.02h-.07l-.36-.01c-1.95-.01-3.81.76-5.177 2.13l-2.47 2.47 1.79 1.81 1.8-1.8h-.02l.66-.69c.89-.9 2.1-1.41 3.375-1.4h.26l.21.01c2.25.22 4.03 2 4.26 4.25v.97c-.18 1.63-1.19 3.06-2.67 3.78l-.04.02 -.14.05 -.1.04 -.08.03 -.15.05h-.05c-1.72.59-3.625.15-4.93-1.12l-.67-.67 -4.49-4.49L8.881 6.91l-8.984 8.98 8.984 8.98 1.78-1.8 4.49-4.5 -1.79-1.8 -4.5 4.49L3.47 15.88l5.385-5.385 2.69 2.69 7.84 7.85c1.97 1.97 4.9 2.64 7.53 1.73l.06-.02 .21-.1 .13-.06 .14-.06 .21-.1 .06-.05c2.26-1.11 3.79-3.3 4.052-5.802v-.01l.02-.33v-.42Z"/></svg>