<svg viewBox="0 0 32 32" xmlns="http://www.w3.org/2000/svg"><path d="M3.82 32h-1.3c-.04-.09-.07-.18-.1-.26 -.29-.9-.8-2-.921-2.88 -.2-1.32 1.03-1.39 1.833-1.96 1.21-.89 2.17-1.37 3.5-2.17 .39-.24 1.57-.83 1.7-1.11 .26-.55-.46-1.31-.66-1.74 -.31-.68-.47-1.26-.51-1.92 -1.1-.18-1.94-.84-2.46-1.58 -.84-1.24-1.43-3.52-.7-5.25 .05-.14.33-.41.38-.62 .07-.42-.15-.96-.17-1.4 -.09-2.26.38-4.2 1.9-4.88 .61-2.46 2.819-3.28 4.89-4.49 .77-.46 1.63-.76 2.52-1.08 3.16-1.17 8.03-.95 10.66 1.04 1.11.84 2.901 2.62 3.54 3.91 1.68 3.4 1.55 9.104.38 13.24 -.17.55-.39 1.37-.71 2.04 -.23.46-.93 1.4-.84 1.81 .08.42 1.58 1.56 1.907 1.86 .57.56 1.68 1.3 1.76 2 .09.74-.33 1.78-.55 2.5 -.29.96-.58 1.92-.87 2.84H3.74Zm14.8-4.72c-.73-.41-1.82-.83-2.76-1.02 -1.16-.22-1.04 1.58-1 2.65 .04.86.48 1.75.68 2.32 .09.26.12.54.34.6 .39.08 1.71-.44 2.09-.65 .79-.44 1.41-1.125 2.099-1.59 .02-.23.02-.46.04-.68 -.4-.2-.86-.35-1.47-.37 .41-.21 1-.21 1.38-.45l.02-.26c-.67-.04-.92-.34-1.36-.58Zm9.94 3.91c.25-.83.47-1.625.61-2.34 .07-.39.28-1.23.23-1.57 -.08-.62-.92-1.07-1.34-1.45 -.78-.71-1.27-1.31-2.08-1.97 -.34.5-1.05.82-1.32 1.21 1.93-.92 2.28 3.5 1.52 4.92 .12.43.52.59.68.97l-.12.22h1.71c.01 0 .04 0 .05.01Zm-8.85-.02c-.07-.1-.14-.19-.2-.28l-.4.25h.59Zm3.692 0c.01-.28.02-.54.04-.8 -.71.03-1.1-.64-1.6-.71 -.44-.06-.81.47-1.36.26 -.14.14-.25.3-.38.42 .2.23.39.5.56.77h1.08c.02-.22.18-.39.4-.39 .21 0 .38.16.38.36h.88Zm2.82 0c-.42-.65-1.27-1.2-2.24-.74l-.05.71h2.28Zm-11.35 0l-.15-.46c-.31-.97-.48-1.69-.55-2.24 -1.22-.59-2.5-1.17-3.54-1.9 -.21-.15-1.48-1.81-1.65-1.74 -2.33.9-4.48 2.47-6.43 3.97 .34.74.64 1.52.92 2.31H14.8Zm11.01-2.817c-.04-.69-.22-2.08-.64-2.32 -.88-.52-2.47 1.03-3.125 1.25 .06.19.18.35.2.64 .38-.1.85-.04 1.19.125 -.41.03-.84.03-1.1.21 -.1.25.02.63-.05 1.01 .92.26 2 .4 3.183.44 .21-.31.3-.86.28-1.45Zm-5.44-.48c-.07.5.05.68.15 1.25 1.68.52 1.38-2.32-.18-1.28Zm-8.796-1.88c-.6.6 1.69 1.44 2.41 1.48 0-.39.21-.75.18-1.03 -.87-.16-2.01-.06-2.593-.47Zm7.416.28c0 .05-.08.03-.09.08 .77.6 1.35.72 2.4.68 .46-.35.89-.75 1.39-1.08 -1.14.1-2.58.81-3.71.3Zm4.56-23.636c-2.14-1.21-5.81-2.12-8.099-.98 -1.85.92-4.37 2.45-5.21 4.391 .8 1.86-.22 3.57-.3 5.47 -.03 1.01.47 1.89.52 2.99 -.28.44-1.11.5-1.69.47 -.2-.98-.54-2.07-1.55-2.18 -1.42-.16-2.46 1.02-2.521 2.24 -.08 1.44 1.11 3.82 2.78 3.66 .65-.07.81-.72 1.52-.72 .38.76-.593 1-.7 1.53 -.03.14.07.68.14.94 .3 1.25.98 2.875 1.65 3.83 .84 1.19 2.51 1.4 4.3 1.52 .31-.7 1.5-.65 2.276-.46 -.93-.37-1.79-1.27-2.5-2.05 -.83-.91-1.64-1.89-1.69-3.05 1.54 2.14 2.79 4 5.6 4.94 2.12.69 4.599-.34 6.21-1.48 .68-.48 1.08-1.24 1.56-1.93 1.79-2.58 2.64-6.28 2.45-9.86 -.08-1.48-.08-2.96-.58-3.94 -.53-1.05-2.27-1.97-3.31-1.05 -.2-1.021.83-1.641 2.06-1.29 -.88-1.141-1.79-2.48-3.03-3.18ZM18.07 19.84c.81 2.061 3.63 1.81 6.01 1.76 -.12.26-.35.57-.625.68 -.76.3-2.86.54-3.92-.02 -.68-.37-1.1-1.17-1.47-1.64 -.19-.23-1.06-.82-.02-.82Zm.21-1.17c1.19.62 3.36.69 4.97.64 .08.35.08.79.09 1.21 -2.07.1-4.52-.41-5.07-1.86Zm8.901-.78c-.64 1.19-1.53 2.52-3.39 2.56 -.04-.375-.06-.98 0-1.21 1.41-.15 2.3-.87 3.39-1.36Zm-.87-.89c-1.36.88-2.875 1.83-5.099 1.61 -.47-.42-.65-1.34-.19-1.95 .23.42.07 1.18.76 1.29 1.26.22 2.71-.78 3.64-1.12 .55-.95-.07-1.3-.57-1.91 -1.05-1.25-2.439-2.81-2.401-4.683 .41-.3.46.46.52.59 .54 1.28 1.9 2.901 2.901 4 .24.28.64.52.67.7 .125.51-.34 1.13-.28 1.47Zm-17.921-.9c-.42-.25-.53-1.32-1.03-1.35 -.72-.05-.59 1.39-.59 2.23 -.5-.44-.58-1.82-.22-2.516 -.42-.21-.593.21-.83.375 .29-2.12 3.12-.98 2.65 1.28ZM6.23 7.96c-.92 1.01-.72 2.901-.62 4.256 1.66-1.048 3.86.07 3.84 1.859 .79-.03.29-1 .15-1.62 -.48-2.05.78-4.25.05-6.12 -1.42.1-2.59.68-3.44 1.61ZM18.39 9.44c.4.75.53 1.532 1.12 2.09 .25.25.76.56.51 1.27 -.07.16-.49.52-.74.59 -.91.26-3.01.04-2.3-1.077 .75.01 1.75.47 2.308-.07 -.42-.7-1.18-2.05-.9-2.84Zm8.26-.02h.09c.43.891.79 1.83 1.33 2.62 -.36.83-2.74 1.58-2.7.07 .52-.23 1.4-.05 1.86-.34 -.26-.75-.65-1.35-.58-2.37Zm-9.235-2.16c-1.9-.44-2.843.79-3.42 2.072 -.52-.13-.32-.83-.19-1.18 .33-.94 1.7-2.176 2.82-2.01 .48.07 1.13.51.77 1.11Zm-4.62-5.18c-2.09.58-4.76 2.09-5.605 3.96 .66-.1 1.12-.43 1.77-.47 .25-.03.56.09.85.02 .56-.14 1.04-1.43 1.46-1.88 .41-.46.91-.661 1.25-1.077 .21-.12.54-.1.56-.45 -.1-.1-.21-.18-.32-.15Z"/></svg>