<svg viewBox="0 0 32 32" xmlns="http://www.w3.org/2000/svg"><path d="M15.964 12.25h.02c2.92 0 4.25 3.667 2 5.54 -.32.29-.72.5-1.14.59 -.29.08-.57.125-.86.125h-.03c-.31 0-.59-.05-.87-.125 -.43-.1-.82-.31-1.14-.6 -.72-.6-1.14-1.48-1.14-2.42 0-1.73 1.407-3.14 3.13-3.14ZM2.69 24.85c1.68.21 3.17-1.02 3.33-2.74 .04-.57-.06-1.14-.29-1.65 -2.36-5.18 9.27-5.3 7.3-.41l-.02.02c-.94 1.48-.43 3.41 1.11 4.3 .57.33 1.19.46 1.81.44 .61.02 1.24-.11 1.81-.45 1.54-.9 2.05-2.83 1.12-4.31l-.02-.02c-1.97-4.89 9.66-4.77 7.3.4 -.24.51-.34 1.08-.28 1.64 .16 1.72 1.65 2.94 3.33 2.73 .72-.1 1.39-.45 1.89-.98 0 0 .78-.66.77-2.31 -.02-1.35-.78-2.1-.78-2.1 -.63-.64-1.52-.96-2.42-.86 -2.16-.06-2.48-1.74-1.88-4.93 .22-.57.32-1.18.3-1.78C27.14 9.92 26 8.17 24.23 7.45c-.06-.03-.11-.04-.16-.06 -.06-.03-.12-.05-.19-.07 -2.01-.68-4.22.12-5.323 1.93 -1.09 1.19-1.58 1.91-2.699 1.91 -1.061 0-1.609-.73-2.692-1.92C12.03 7.37 9.71 6.57 7.66 7.37c-.06.02-.11.04-.16.06C5.72 8.14 4.6 9.9 4.67 11.81c-.03.6.07 1.2.3 1.77 .609 3.18.28 4.87-1.87 4.92 -1.057-.12-1.849.32-2.645 1.125 -.8.79-.729 2.93 0 3.86 .53.67 1.255 1.14 2.124 1.25Z"/></svg>