<svg viewBox="0 0 32 32" xmlns="http://www.w3.org/2000/svg"><path d="M15.99 8.016s-2.24 3.71-3.31 5.525c-.21.07-.23.05-.46.27 -.55-.63-1.2-.06-1.38.29 -.08-.76-.21-.76-.375-.93 .09-.67.42-1.74-.32-2.52 -1.44-.97-3.11 1.4-4.04 2.64l-.5.83c-2.061-.05-3.681.01-5.64-.04 2.385.89 2.484.91 5.369 2.01 0 .08.21.49.45.73 .19.2.41.31.516.38 -.15.07-.43.18-.52.34 -.391.72.18.89.55 1.47 .41.76.51 1.26 1.5.83 .33-.15.75-.2 1.01-.28 -.93 1.45-1.17 1.85-2.78 4.36l.01 0c6.46-2.53 6.62-2.59 9.828-3.86 4.59 1.78 4.86 1.93 9.91 3.85 -.71-1.11-1.19-1.8-1.7-2.67 .19-.02.64-.07 1.03-.31 .28-.19.61-.39.91-.77 .58-.76.73-1.71.52-2.9 -.11-.57-.32-1.11-.29-1.14 2.75-1.05 3.07-1.16 5.63-2.12 -3.08.04-3.23.01-6.12.02 -.06-.56-.33-.84-1.18-.81 -.32.05-.52.16-.67.59 -.48-.88-1.14-.62-1.42-.19 -.38-.375-1.23-.5-1.66-.23 -.32-.16-.69-.16-1.02.23 -.23-.2-.31-.26-.82-.46 -1.19-2-2.17-3.593-3.15-5.28Zm.01 1.06c.46.71 2.07 3.48 2.46 4.1 -.46.03-.9.27-1.23.74 -.3-.3-.63-.593-1.23-.62 -.73-.13-1.12.19-1.6.75 -.15-.49-.71-.6-1.2-.38 .43-.69 2.5-4.161 2.77-4.609Zm-6.08 3.08c-.07 1.91-1.43 3.615-2.4 2.98 -.74-.593.19-2.109.78-2.65 -.05.41.32.66.03 1.02 -.6.72-.36 1.25-.11 1.32 .68.21 1.33-1.64 1.33-2.94 0-.84-.49-.82-1.45.18 -1.32 1.359-2.02 2.683-1.55 3.583 .26.51.64.87 1.27.79 1.23-.15 1.98-1.68 2.05-2.65 .19-.01.14.01.19-.04 0 .17.23 1.01.42 1.55 .24.93 1.28 2.81-1.83 3.54 -.59.15-.82.19-1.41.42 -.29-.59-.35-.78-.93-1.35 .78-.28.79-.25 1.29-.43 1.952-.69 2.54-1.27 2.47-2.1 0 0 .02-.43-.25-.79 -.1.3-.23.593-.4.859 -.59.91-1.73 1.46-2.75 1.11 -.56-.2-.8-.625-.8-1.36 0-.94 2.136-3.65 3.18-4.109 .74-.22.77.391.76.96Zm8.67 1.73c.34 0 .72.17.98.45 .79.84.7 1.88.21 2.53 -.59.77-2.05.43-2.4-.66 -.17-.5.12-1.76.63-2.17 .15-.13.35-.19.55-.18Zm-2.82.08c.05 0 .1.01.15.02 .67.03.81.41.93.74 .3.83.22 1.61-.41 2.25 -.95.95-2.06.53-2.05-.76 .02-.93.58-2.29 1.36-2.27Zm2.48.05c-.52.38-.58 1.36-.11 1.72 .18.17.28.29.81.34 .36.03.94-.34.96-.71 .01-.17-.02-.45-.42-.9 -.34-.38-.78-.47-.88-.41 -.36.2.02.375.16.51 .21.21.26.31.16.38 -.15.09-.33.12-.5.07 -.14-.07-.61-.33-.22-1.04Zm5.01 0c.22.34.28.42.53 1.28 .32 1.12.72 1.55 1.08 1.34 .98-.56.19-1.97-.16-2.64 .22 0 .17.01.38 0 .16.63.11.52.54 2.42 .5 2.27.58 2.88-.71 3.901 -.6.46-1.47.48-2.22.45l-.85-.14c.58-.38.72-.74.72-1.49 1.7.71 2.6.17 2.96-.71 .17-.43.11-.98-.06-1.97 .01.8-.01.94-.11 1.34 -.22.79-.73 1.01-1.09.45 -.14-.22-.46-.94-.57-1.71 -.1-.78-.18-1.86-.67-2.32 .05-.11.1-.23.15-.28Zm-1.67.01c.34.08.76.27.98.69 .3.57.51.891.5 1.92 -.03 1.1-.46 1.4-.75 1.44 -.37.05-1.02.04-1.4-2.14 -.13-.72-.36-1.407-.61-1.64 .12-.16.13-.13.22-.28 .12.13.22.36.39 1.03 .27 1.07.51 1.3.99 1.35 .74.09 1.03-1.04.42-1.86 -.14-.18-.49-.41-.68-.32 .01.31.15.21.15.42 -.04.24-.07.29-.15.42 -.2-.08-.29-.11-.45-.39 -.21-.42-.08-.81.33-.73Zm-6.13.09c-.35.24-.8 1.06-.41 1.8 .19.27.39.49.85.39 .32-.07.89-.46.97-1 .06-.47-.62-1.375-.99-1.17 -.44.24-.18.41.09.68 .24.24.06.38-.11.45 -.35.14-.54 0-.63-.28 -.09-.28-.02-.51.19-.907Zm-3.83.08c.07.22.13.53.29.83 .03.03.17 0 .35-.21 .11-.14.24-.32.47-.62 .14.12.15.22.19.29 .09.17.29.16.36.14 .22-.23.26-.38.4-.391 .01.29.02.46-.35.9 -.17.18-.43.27-.67.22 -.17-.05-.27-.15-.52-.28 -.35.05-.26.42-.19.72 .15.81.66 1.141 1.1.9 .15-.09.12-.09.41-.21 -.06.51-.09.61.01 1.19 -.72.4-1.31.33-1.47-.68 -.12-.84-.35-1.87-.56-2.08 -.2-.2-.28-.27-.28-.27Zm-9.49.11c1 .01 2.13.01 3.34.02 -.18.42-.24.71-.26 1.13 -.57-.22-2.5-.92-3.083-1.17Zm27.62.01c-1.33.48-2.29.84-3.567 1.33 -.15-.6-.17-.79-.3-1.33 2.13-.01 2.17 0 3.85-.02Zm-9.31 2.71c.14.57.33.85.33.85 .26.46.6.72 1.11.86 .1.18.15.21.19.31 .04.6.01.68-.47 1.03 -.28.27-.29.66 0 1.02 .3.29.63.39 1.83.08 .22.4.55.87 1.03 1.625 -1.61-.61-3.83-1.48-8.573-3.33 0 0-5.557 2.16-8.54 3.32 1.24-1.97 1.34-2.14 2.23-3.51 .3-.12.19-.08.46-.21 .61-.33 1.1-.82 1.375-1.53 .49 1.1 1.03 1.23 2.17.87 .24-.11.51-.28.56-.7 .61.55 1.91.65 2.85-.52 .81.95 2.67 1.04 3.38-.23Zm2.875 1.157s.05.17.08.22c-.13 0-.28 0-.28 0 .07-.07.14-.15.19-.23Z"/></svg>