<svg viewBox="0 0 32 32" xmlns="http://www.w3.org/2000/svg"><path d="M11.95 16c0-2.115 1.7-3.81 3.801-3.81 2.1 0 3.81 1.71 3.81 3.8s-1.72 3.8-3.82 3.8c-2.093 0-3.801-1.72-3.801-3.81Zm3.8-16C8.282 0 2.02 5.12.25 12.03c-.02.05-.02.09-.02.16 0 .41.33.77.76.77H7.43c.3 0 .577-.18.68-.45 1.33-2.88 4.24-4.896 7.62-4.896 4.62 0 8.38 3.76 8.38 8.38 0 4.625-3.76 8.38-8.39 8.38 -3.375 0-6.285-2-7.62-4.9 -.13-.26-.39-.45-.69-.45H.97c-.42 0-.77.33-.77.76 0 .05.02.1.02.16 1.76 6.907 8.027 12.02 15.49 12.02 8.833 0 16-7.17 16-16 0-8.828-7.17-16-16-16Z"/></svg>