<svg viewBox="0 0 32 32" xmlns="http://www.w3.org/2000/svg"><path d="M4.22 10.08v11.66h1.36V13.3c.01-.54-.01-1.07-.07-1.6h.05c.09.25.22.5.37.72l6 9.3h1.67V10.05h-1.359v8.2c-.02.57.01 1.14.08 1.71h-.04c-.08-.15-.24-.41-.48-.79l-5.84-9.14Zm12.41 0v11.66h6.2l0-1.29h-4.82V16.4h4.21v-1.23H18V11.29h4.52V10.06Zm7.25 0v1.234h3.35v10.43h1.36v-10.44h3.39V10.07ZM.85 20.08c-.23 0-.45.1-.61.27 -.17.16-.26.4-.26.64 -.01.24.09.46.26.64 .16.17.401.27.641.26 .24 0 .474-.1.641-.27 .17-.17.27-.41.27-.65 0-.24-.1-.48-.28-.65 -.17-.18-.4-.28-.641-.28 -.01 0-.03 0-.04 0Z"/></svg>