<svg viewBox="0 0 32 32" xmlns="http://www.w3.org/2000/svg"><path d="M14.59.41c.84-.557 1.95-.557 2.8 0l12.44 8.161c.72.46 1.15 1.27 1.15 2.135v10.57c0 .85-.44 1.66-1.16 2.13l-12.45 8.16c-.85.55-1.96.55-2.81 0L2.11 23.396c-.73-.47-1.16-1.28-1.16-2.14V10.683c0-.859.43-1.67 1.15-2.135Zm2.4 9.583v1h-8c-.56 0-1 .44-1 1v4h-.67c-.19 0-.34.15-.34.33v3.33c0 .18.15.33.33.33h.66v2c0 .55.44 1 1 1h14c.55 0 1-.45 1-1v-2h.66c.18 0 .33-.16.33-.34V16.3c0-.19-.16-.34-.34-.34h-.67v-4c0-.56-.45-1-1-1h-5V7.29c0-.19-.16-.34-.34-.34h-2.34c-.19 0-.34.15-.34.33V9.61c0 .18.15.33.33.33Zm4.38 6.78l-2.1 2.09c-.16.15-.42.15-.58 0l-1.26-1.26c-.16-.16-.16-.42 0-.58l.42-.43c.15-.16.41-.16.57 0l.54.54 1.38-1.38c.15-.16.41-.16.57 0l.42.42c.15.15.15.41 0 .57Zm-8.76 2.09c-.16.15-.42.15-.58 0l-1.26-1.26c-.17-.16-.17-.42 0-.58l.42-.43c.15-.16.41-.16.57 0l.54.54 1.38-1.38c.15-.17.41-.17.57 0l.42.42c.15.15.15.41 0 .57Z"/></svg>