<svg viewBox="0 0 32 32" xmlns="http://www.w3.org/2000/svg"><path d="M16 25.093c-8.839 0-16-4.8-16-10.719C0 8.458 7.161 3.66 16 3.66c8.83 0 16 4.79 16 10.713 0 5.923-7.17 10.719-16 10.719Zm2.44-17.244c-6.72 0-12.161 3.28-12.161 7.32 0 4.04 5.448 7.32 12.161 7.32 6.71 0 11.677-2.25 11.677-7.33 0-5.084-4.959-7.33-11.677-7.33Zm5.91 12.41c.52.15 1.03.34 1.53.57 .28.14.54.32.77.55 .14.15.26.32.35.51l3.81 6.43h-6.18l-2.89-5.42c-.27-.48-.59-.92-.96-1.31 -.19-.21-.46-.34-.74-.34h-1.47V28.3l-5.46 0V10.28h10.96s4.991.08 4.991 4.839c0 2.69-2.08 4.932-4.78 5.1Zm-2.37-6.036h-3.31v3.06h3.3c.86.01 1.55-.7 1.532-1.56 .04-.87-.68-1.57-1.532-1.51Z"/></svg>