<svg viewBox="0 0 32 32" xmlns="http://www.w3.org/2000/svg"><path d="M31.93 6.09c-1.18.516-2.44.87-3.77 1.032 1.35-.82 2.39-2.099 2.88-3.631 -1.28.74-2.68 1.27-4.18 1.57 -1.2-1.28-2.9-2.08-4.79-2.08 -3.625 0-6.57 2.93-6.57 6.55 0 .52.06 1.02.17 1.49 -5.46-.26-10.29-2.875-13.52-6.84 -.57.96-.9 2.08-.9 3.303 0 2.28 1.16 4.28 2.91 5.45 -1.08-.04-2.083-.33-2.968-.82v.07c0 3.18 2.26 5.83 5.26 6.43 -.55.14-1.14.22-1.73.22 -.43 0-.83-.05-1.23-.12 .84 2.6 3.26 4.5 6.14 4.55 -2.24 1.75-5.08 2.8-8.135 2.8 -.53 0-1.05-.03-1.57-.09 2.917 1.86 6.36 2.94 10.079 2.94 12.06 0 18.661-10 18.661-18.66 0-.28 0-.56-.03-.84 1.28-.92 2.4-2.08 3.28-3.4Z"/></svg>