<svg viewBox="0 0 32 32" xmlns="http://www.w3.org/2000/svg"><path d="M15.092 22.146c-.02.03-.03.05 0 0Zm12.45-4.35c-1.01 0-2 .23-2.9.67 -.3-.6-.6-1.12-.65-1.51 -.06-.46-.125-.73-.06-1.27 .07-.54.38-1.31.38-1.36 -.01-.06-.07-.33-.72-.34 -.65-.01-1.2.125-1.27.29 -.12.31-.21.63-.27.95 -.12.58-1.29 2.67-1.96 3.76 -.22-.43-.41-.8-.45-1.1 -.06-.46-.125-.73-.06-1.27 .07-.54.38-1.31.38-1.36 -.01-.06-.07-.33-.72-.34 -.65-.01-1.2.125-1.27.29 -.07.17-.14.57-.27.95s-1.7 3.86-2.11 4.77c-.21.46-.39.83-.52 1.08 -.02.04-.04.06-.05.08 .01-.03.02-.05.02-.04 -.11.21-.18.33-.18.33v0c-.09.16-.18.3-.23.3 -.03 0-.1-.42.01-1 .23-1.21.79-3.09.78-3.16 -.01-.04.1-.36-.37-.54 -.46-.17-.62.11-.66.11 -.04 0-.07.1-.07.1s.5-2.12-.97-2.12c-.92 0-2.2 1.01-2.83 1.92 -.4.21-1.25.68-2.15 1.17 -.35.19-.7.38-1.04.57 -.03-.03-.05-.05-.07-.08 -1.79-1.91-5.1-3.26-4.96-5.83 .05-.94.37-3.39 6.35-6.37 4.9-2.44 8.817-1.77 9.492-.28 .97 2.125-2.1 6.08-7.183 6.65 -1.94.21-2.96-.54-3.22-.82 -.27-.3-.31-.31-.41-.26 -.17.09-.06.35 0 .5 .15.39.77 1.09 1.84 1.44 .93.3 3.2.47 5.958-.59 3.08-1.19 5.49-4.51 4.78-7.28 -.718-2.82-5.4-3.745-9.82-2.175 -2.635.93-5.484 2.4-7.54 4.32C.11 11.23-.29 13.21-.13 14.04c.57 2.94 4.62 4.86 6.25 6.285 -.08.04-.16.08-.23.125 -.82.4-3.91 2.02-4.69 3.73 -.88 1.94.14 3.33.81 3.52 2.09.58 4.22-.47 5.37-2.18 1.15-1.72 1.01-3.96.48-4.98 -.01-.02-.02-.03-.02-.04 .21-.125.42-.25.64-.375 .41-.25.82-.47 1.17-.67 -.2.54-.35 1.19-.42 2.13 -.09 1.1.36 2.52.95 3.08 .26.24.57.25.77.25 .69 0 1-.57 1.34-1.25 .42-.83.8-1.8.8-1.8s-.47 2.61.81 2.61c.47 0 .94-.61 1.15-.92v0s.01-.02.03-.06c.05-.08.07-.12.07-.12v-.02c.19-.33.6-1.07 1.23-2.3 .81-1.59 1.58-3.58 1.58-3.58 .07.43.17.86.31 1.29 .14.47.43.99.67 1.5 -.19.26-.31.41-.31.41s0 0 0 .01c-.15.2-.32.41-.5.625 -.64.76-1.4 1.63-1.5 1.88 -.12.29-.09.51.14.68 .17.13.47.15.78.125 .57-.04.98-.18 1.17-.27 .36-.13.69-.31 1.01-.53 .625-.46 1-1.12.97-1.99 -.02-.48-.18-.96-.37-1.41 .05-.08.11-.17.17-.25 .98-1.45 1.75-3.04 1.75-3.04 .07.43.17.86.31 1.29 .12.4.35.85.57 1.28 -.93.75-1.51 1.63-1.71 2.2 -.37 1.06-.08 1.54.46 1.65 .24.05.59-.07.85-.18 .38-.13.75-.32 1.07-.56 .625-.46 1.23-1.11 1.189-1.98 -.02-.4-.125-.79-.27-1.17 .78-.33 1.8-.51 3.1-.36 2.78.32 3.32 2.06 3.224 2.79 -.11.72-.69 1.13-.89 1.25 -.2.12-.26.16-.24.25 .02.13.11.125.28.09 .23-.04 1.46-.59 1.51-1.94 .08-1.7-1.56-3.57-4.45-3.56Zm-21.46 7.23c-.92 1-2.21 1.38-2.77 1.06 -.6-.35-.36-1.83.77-2.9 .69-.65 1.58-1.25 2.17-1.62 .13-.08.33-.2.57-.35 .04-.03.06-.04.06-.04 .04-.03.09-.06.14-.09 .41 1.52.01 2.86-.96 3.91Zm6.71-4.57c-.32.78-1 2.785-1.41 2.68 -.35-.09-.57-1.62-.07-3.12 .25-.76.78-1.66 1.09-2.01 .5-.57 1.06-.75 1.19-.52 .17.29-.61 2.47-.81 2.96Zm5.55 2.65c-.14.07-.26.11-.32.08 -.05-.03.05-.12.05-.12s.69-.75.97-1.09c.16-.2.34-.44.54-.7 0 .02 0 .05 0 .08 -.01.89-.87 1.5-1.26 1.74Zm4.28-.98c-.1-.07-.09-.31.25-1.04 .13-.29.43-.77.95-1.23 .05.17.09.35.09.54 -.01 1.125-.81 1.54-1.3 1.72Z"/></svg>