<svg viewBox="0 0 32 32" xmlns="http://www.w3.org/2000/svg"><path d="M27.973 9.66c-1.29-1.29-2.83-2.29-4.54-2.94 .96-2.823 4.369-3.86 4.369-3.86C22.592.38 16.762-.49 11.06.37 8 .98 5.25 2.62 3.27 5.01 1.12 7.47.06 10.68.31 13.94c.251 3.24 1.79 6.27 4.28 8.38 .79.68 2.57 1.74 2.609 1.79 -1.18 2.96-4.907 3.78-4.907 3.78 3.56 2.04 7.49 3.36 11.568 3.88 1.84.23 3.71.26 5.56.06 3.2-.38 6.192-1.85 8.45-4.17 2.41-2.375 3.78-5.62 3.8-9.01 .01-3.4-1.33-6.65-3.73-9.05Zm-2.27 16.079c-1.875 1.77-4.29 2.89-6.85 3.17 -1.58.16-3.17.16-4.74-.03 -1.94-.27-3.83-.79-5.63-1.54 .86-.81 1.54-1.78 2-2.86 .21-.57.19-1.2-.07-1.75 -1.76-3.63-.99-7.97 1.9-10.771 3.78-3.67 9.8-3.63 13.54.07 3.683 3.84 3.6 9.927-.17 13.683Z"/></svg>