<svg viewBox="0 0 32 32" xmlns="http://www.w3.org/2000/svg"><path d="M16 0C10 4 8 4 2 4c0 20.005 0 20.005 14 28 14-8 14-8 14-28 -6 0-8 0-14-4ZM7.94 9.964h2.01v6.04c0 1.76.24 2.01 2.01 2.01 1.76 0 2.016-.26 2.016-2.02V9.95h2.01v1.02c.86-.67 1.93-1.02 3.02-1.02 2.776 0 5.02 2.26 5.03 5.041 -.02 2.776-2.26 5.02-5.04 5.03 -1.35-.01-2.65-.55-3.59-1.51 -.62 1.02-1.75 1.5-3.47 1.5 -2.78 0-4.04-1.26-4.04-4.04Zm11.078 2.01c-1.68-.01-3.032 1.34-3.03 3.02 -.01 1.67 1.35 3.02 3.02 3.01 1.67 0 3.02-1.35 3.01-3.03 .01-1.68-1.35-3.03-3.02-3.016Z"/></svg>