<svg viewBox="0 0 32 32" xmlns="http://www.w3.org/2000/svg"><path d="M23.86 15.9c0-.72.18-1.42.52-2.04l-.02.02c.32-.625.82-1.14 1.43-1.48l.02-.01c.62-.34 1.32-.516 2.03-.52h.06c1.19 0 2.17.38 2.933 1.16 .76.77 1.14 1.75 1.14 2.93 0 1.19-.39 2.17-1.16 2.96 -.78.78-1.74 1.17-2.92 1.17 -.76 0-1.47-.19-2.1-.51l.02.01c-.63-.32-1.16-.81-1.49-1.43l-.01-.02c-.34-.63-.51-1.4-.51-2.31Zm2.12.11c0 .78.18 1.39.55 1.79 .72.83 2.03.84 2.75 0h0c.36-.42.54-1.02.54-1.81 0-.8-.19-1.38-.55-1.8 -.73-.84-2.03-.84-2.76 0h-.01c-.37.41-.56 1.01-.56 1.79Zm-2.14 3.91h-2.08V15.9c0-.85-.05-1.4-.14-1.65 -.09-.24-.24-.44-.44-.59h-.01c-.21-.14-.45-.21-.7-.21h-.06c-.36 0-.7.1-.97.3h0c-.29.18-.49.44-.6.76v.01c-.12.32-.17.92-.17 1.81v3.56H16.6v-7.9h1.91v1.157c.69-.88 1.55-1.31 2.6-1.31h.02c.44 0 .875.08 1.26.25l-.02-.01c.34.14.63.35.85.62l0 0c.18.25.32.54.4.86v.01c.07.37.12.79.12 1.22v.17Zm-15.3-7.9h2.2l1.88 5.6 1.83-5.61h2.14l-2.76 7.59 -.51 1.38c-.15.38-.32.73-.54 1.07l.01-.02c-.16.22-.34.42-.57.58l-.01 0c-.23.15-.49.27-.78.34l-.03 0c-.31.08-.67.13-1.04.13h-.04c-.42-.01-.82-.06-1.22-.14l.03 0 -.18-1.65c.26.06.56.1.88.1 .47 0 .83-.14 1.06-.43 .24-.33.42-.69.52-1.08l0-.02Zm-8.56 4.349l2.125-.2c.12.71.391 1.23.78 1.57 .38.33.91.5 1.588.5 .7 0 1.23-.15 1.593-.45 .36-.3.53-.66.53-1.05v-.04c0-.23-.08-.46-.23-.64 -.16-.18-.42-.34-.79-.47 -.26-.1-.85-.25-1.76-.484 -1.18-.29-1.995-.65-2.463-1.08 -.64-.55-1-1.34-1-2.18v-.05c0-.58.17-1.11.47-1.55l-.01.01c.32-.5.79-.88 1.33-1.11l.02-.01c.58-.25 1.29-.375 2.135-.375 1.36 0 2.38.3 3.07.9 .68.609 1.04 1.407 1.07 2.41l-2.199.07c-.1-.56-.3-.96-.61-1.2 -.31-.25-.78-.37-1.375-.37 -.64 0-1.14.13-1.49.4 -.22.14-.35.391-.35.65v.01c0 .27.125.5.32.65v0c.27.23.94.47 2.01.72 1.06.24 1.84.51 2.36.78 .49.26.9.64 1.18 1.1l.01.01c.28.45.43 1.04.43 1.73 0 .65-.2 1.26-.53 1.76l0-.01c-.35.54-.85.96-1.45 1.21l-.03 0c-.64.26-1.423.39-2.37.39 -1.37 0-2.43-.32-3.17-.96 -.74-.65-1.18-1.58-1.32-2.8Z"/></svg>