<svg viewBox="0 0 32 32" xmlns="http://www.w3.org/2000/svg"><path d="M0 0v32h32V0Zm15.35 6.297c.75-.01 1.51-.01 2.25.08 3.21.07 6.46 2.9 6.5 6.01H19.67c.01-.93-.81-2.08-1.71-2.31 -1.48-.359-3.29-.48-4.573.391 -.984.59-1.43 2.22-.125 2.74 3.04 1.44 6.875 1.13 9.63 3.167 2.26 1.6 2.13 4.88.36 6.78 -2.3 2.45-6.19 2.84-9.464 2.375 -3.266-.16-6.35-3-6.427-6.09h4.417c-.08 1.1.84 2.07 1.94 2.42 1.69.37 3.635.47 5.24-.25 1.28-.44 1.37-2.06.38-2.81 -2.125-1.2-4.75-1.23-7.07-2.03 -2.69-.53-4.86-3.04-4.35-5.599C8.48 8.05 12.08 6.2 15.31 6.26Z"/></svg>