<svg viewBox="0 0 32 32" xmlns="http://www.w3.org/2000/svg"><path d="M26.407 16.36c2.8 0 5.08-2.28 5.08-5.08 0-2.81-2.29-5.057-5.09-5.057 -2.82 0-5.1 2.28-5.1 5.077 0 2.8 2.28 5.084 5.09 5.084Zm-11.475.94c2.53 0 4.58-2.05 4.58-4.567 0-2.53-2.06-4.57-4.584-4.57 -2.54 0-4.577 2.06-4.577 4.58s2.04 4.57 4.577 4.57Zm-10.401.84c2.28 0 4.12-1.84 4.12-4.11 0-2.27-1.859-4.11-4.14-4.11 -2.276 0-4.12 1.83-4.12 4.12 0 2.26 1.84 4.1 4.12 4.1Zm0 .94c-2.609 0-4.54 2.28-4.54 4.65v1.6c0 .22.183.41.41.41h8.23c.22 0 .41-.19.41-.42v-1.6c0-2.37-1.92-4.67-4.532-4.67Zm10.401-.75c-2.91 0-5.036 2.55-5.036 5.18v1.77c0 .25.2.45.45.45h9.16c.24 0 .45-.21.45-.46v-1.78c0-2.63-2.14-5.19-5.04-5.19Zm11.475-.83c-3.23 0-5.6 2.83-5.6 5.76v1.96c0 .28.22.51.51.51H31.48c.28 0 .51-.23.51-.52v-1.97c0-2.93-2.37-5.77-5.593-5.77Z"/></svg>