<svg viewBox="0 0 32 32" xmlns="http://www.w3.org/2000/svg"><path d="M19.11 16.578c-.74.19-.83.24-1.56.44 -.79-.45-1.48-.71-2.13-.62 .07-.41.2-.7.32-1.07 1.38-.21 2.4.53 3.35 1.234Zm7.07 9.59c-.78.77-1.625 1.44-2.55 2.026h-.01l-4.94-6.151 4.09.44s1.96.2 2.41 0c.41-.16 2.61-3.27 2.61-3.27s-6.35-4.01-8.51-6.22c.25-3.724-.29-8.677-.29-8.65 -1.59 1.59-1.8 1.84-3.4 3.31 -.7-2.25-1.03-3.021-1.72-5.28 -2.09 1.71-3.69 4.62-4.83 8.021 -.26.28-.5.57-.74.875 -.15.2-.31.41-.46.63 -.31.43-.6.9-.88 1.375 -.21.34-.41.69-.59 1.05 -.09.14-.17.3-.25.46C4.9 17.16 3.88 19.83 3 22.25c-.96-1.97-1.458-4.125-1.458-6.32 0-3.82 1.52-7.484 4.219-10.19 2.7-2.698 6.35-4.22 10.17-4.22 3.82 0 7.48 1.516 10.18 4.21 2.69 2.7 4.2 6.37 4.2 10.18 0 3.81-1.51 7.474-4.21 10.177ZM15.98 8.9c1.1-1.07 1.26-1.229 2.33-2.25 .08 2.042.04 3.109-.09 5.599 -.62-.609-1.84-1.391-1.84-1.391s-.25-1.43-.42-1.96Zm5.11 20.62c-8.823 3.18-15.198-2.69-16.56-4.74 0-.02 0-.04 0-.06C5.75 19.53 7.27 13.34 9.71 11.5c1.27-2.208 1.64-5.484 3.92-7.2 .57 1.71 1.47 5.27 2.09 6.99 2.69 2.7 6.78 6.06 9.52 7.45 .28.15.65 1.3.65 1.3l-1.1 1.38 -11.776-1.19c-.28-.03-.53-.04-.8-.04 -.76 0-1.54.09-2.45.24 .57-1.43 1.8-2.58 1.8-2.58s-1.15-.7-2.01-.81c.24-.58.9-1.32 1.06-1.53 -.33.12-2.7 1.18-2.95 2.08 1.14.28 1.95.64 1.95.64s-1.27 1.27-1.51 3.48c0 0 3.76-.58 6.58-.21 .08.03.125.03.16.03l1.46.04 4.71 7.849s-.01.01-.01.01ZM27.288 4.67c-3-3-7.07-4.69-11.32-4.69s-8.31 1.693-11.32 4.688c-2.99 3-4.69 7.06-4.69 11.31 0 4.24 1.693 8.31 4.68 11.3 2.99 3.01 7.06 4.698 11.31 4.698 4.24 0 8.31-1.69 11.31-4.698 3-2.99 4.68-7.06 4.68-11.302 0-4.25-1.68-8.313-4.69-11.313Z"/></svg>