<svg viewBox="0 0 32 32" xmlns="http://www.w3.org/2000/svg"><path d="M16.094 25.167c-5.37 0-7.76-2.65-7.76-4.62 0-1.03.74-1.73 1.77-1.73 2.29 0 1.69 3.3 5.984 3.3 2.18 0 3.39-1.2 3.39-2.42 0-.74-.36-1.55-1.81-1.91l-4.78-1.2c-3.84-.97-4.54-3.05-4.54-5.01 0-4.07 3.81-5.59 7.401-5.59 3.29 0 7.18 1.82 7.18 4.26 0 1.04-.92 1.65-1.94 1.65 -1.96 0-1.6-2.72-5.56-2.72 -1.96 0-3.06.88-3.06 2.15s1.53 1.67 2.875 1.98l3.51.78c3.85.87 4.83 3.13 4.83 5.26 0 3.3-2.54 5.76-7.63 5.76Zm14.7-6.52l-.04.18 -.06-.33c.01.06.05.09.07.16 .15-.91.24-1.82.24-2.74 0-2.05-.41-4.02-1.2-5.9 -.76-1.8-1.86-3.42-3.24-4.8 -1.41-1.38-3-2.48-4.8-3.234C20 1.13 18.024.74 15.98.74c-.97 0-1.93.08-2.859.27l.15.07 -.32-.05 .16-.04C11.825.3 10.38-.06 8.92-.06 6.53-.06 4.29.87 2.6 2.56 .91 4.24-.02 6.49-.02 8.88c0 1.52.391 3.02 1.125 4.34l.02-.17 .05.31 -.08-.16c-.16.85-.24 1.73-.24 2.6 0 2.04.401 4.02 1.18 5.88 .75 1.81 1.839 3.43 3.234 4.81 1.38 1.4 2.995 2.47 4.79 3.25 1.859.8 3.83 1.19 5.875 1.19 .88 0 1.77-.08 2.63-.24l-.17-.08 .32.05 -.19.04c1.33.76 2.83 1.16 4.39 1.16 2.375 0 4.6-.93 6.3-2.62 1.68-1.68 2.62-3.94 2.62-6.33 0-1.53-.41-3.02-1.15-4.36Z"/></svg>