<svg viewBox="0 0 32 32" xmlns="http://www.w3.org/2000/svg"><path d="M8.073 16.172V9.61h1.6v4.03c.78-.94 1.86-1.21 2.93-1.21 1.78 0 3.77 1.2 3.77 3.8 0 .31-.03.6-.08.89 .31-1.28 1.69-1.74 3.85-1.8 .68-.03 1.46-.03 2.08-.03v-.19c0-1.18-.75-1.66-2.05-1.66 -.96 0-1.67.39-1.74 1.07h-1.71c.18-1.72 2-2.17 3.58-2.17 1.41 0 2.66.359 3.21 1.359l-.58-1.12h1.88l2.74 5.5 2.74-5.5h1.65l-4.96 9.74h-1.8l1.42-2.72 -3.11-5.839c.17.33.26.74.26 1.24v3.28c0 .45.01.91.05 1.33h-1.49c-.05-.34-.07-.69-.07-1.03 -.81.97-1.76 1.28-3.1 1.28 -1.98 0-3.04-1.05-3.04-2.26 0-.21.02-.38.05-.55 -.41 1.66-1.82 2.78-3.69 2.78 -1.17 0-2.26-.42-2.94-1.24 0 .32-.02.66-.06.97H7.88c.02-.53.05-1.15.05-1.67v-1.41H1.49c.08 1.46 1.089 2.32 2.46 2.32 .95 0 1.8-.41 2.09-1.24h1.65c-.32 1.71-2.146 2.29-3.72 2.29 -2.86.03-4.13-1.56-4.13-3.68 0-2.34 1.307-3.88 4.156-3.88 2.25 0 3.9 1.18 3.91 3.74v.01Zm12.18.24c-1.46.04-2.36.31-2.36 1.26 0 .62.47 1.29 1.74 1.29 1.68 0 2.58-.93 2.58-2.43v-.18c-.6 0-1.33.01-1.98.03Zm-8.078 2.5c1.47 0 2.5-1.08 2.5-2.7s-1.03-2.7-2.53-2.7c-1.48 0-2.53 1.07-2.53 2.69 0 1.62 1.02 2.69 2.5 2.69Zm-5.81-3.35c-.06-1.5-1.14-2.07-2.3-2.07 -1.26 0-2.26.63-2.43 2.06Z"/></svg>