<svg viewBox="0 0 32 32" xmlns="http://www.w3.org/2000/svg"><path d="M31.63.78c1.69 1.69-3.01 9.145-3.81 9.94 -.8.79-2.82.06-4.52-1.64 -1.7-1.7-2.43-3.713-1.63-4.509 .79-.8 8.24-5.496 9.94-3.797ZM7.84 2.57C5.24 1.1 1.56-.54.39.63 -.8 1.81.89 5.58 2.37 8.18c1.32-2.3 3.2-4.24 5.45-5.619Zm21.19 7.566c.24.8.19 1.47-.2 1.86 -.91.907-3.35-.06-5.55-2.151 -.16-.15-.31-.29-.46-.44 -.8-.8-1.42-1.64-1.82-2.43 -.78-1.38-.97-2.599-.38-3.19 .31-.32.82-.41 1.44-.3 .4-.26.88-.55 1.407-.84 -2.2-1.141-4.64-1.74-7.11-1.74C7.84.905.95 7.795.95 16.3c0 8.5 6.891 15.4 15.39 15.4 8.5 0 15.4-6.9 15.4-15.4 0-2.75-.73-5.32-1.99-7.56 -.25.45-.51.9-.78 1.343Z"/></svg>