<svg viewBox="0 0 32 32" xmlns="http://www.w3.org/2000/svg"><path d="M31.907 3.92C22.347.52 11.974.24 2.25 3.11 .62 3.501-.36 5.16.09 6.77 .62 8.905 1.4 11.35 2.33 13.58c.01.05.04.02.04-.03 -.14-1.05.66-2.36 2.24-2.84 7.55-2.407 15.692-2.3 23.188.3 1.14.39 2.42-.23 2.79-1.42 .93-3 1.3-5.04 1.4-5.55 .01-.1-.07-.14-.1-.16Zm-23.043 6.6c-1.15.23-2.73.61-3.92 1 -2.38.81-2.265 3.7-1 4.631 .09-.54.66-1.27 1.3-1.52 2.37-.94 4.917-1.49 7.49-1.72 -1.31-.54-2.59-1.3-3.865-2.42Zm18.907 5.78c-6.9-3.24-14.801-3.56-21.932-.87 -1.14.42-1.84 1.8-1.14 3.1 1.23 2.23 2.641 4.375 4.199 6.401 -.23-.78.17-2.22 1.69-2.683 4.2-1.3 8.615-.75 11.54.44 .82.33 2 .13 2.657-.86 1.11-1.73 2.14-3.52 3.05-5.36 .04-.09 0-.15-.09-.19Zm-6.82 10.36c-1.23-.62-2.36-1.44-3.34-2.401 -.46-.46-1.12-1.11-1.83-1.88 -1.61 0-3.17.16-4.83.69 -1.55.48-1.7 2.27-1.02 3.2 1.14 1.42 1.94 2.19 3.22 3.52 1.41 1.38 3.66 1.39 5.093.02 1-1 1.61-1.67 2.74-2.95 .06-.07.04-.19-.07-.22Z"/></svg>