<svg viewBox="0 0 32 32" xmlns="http://www.w3.org/2000/svg"><path d="M4.896 12.24v-1.39H0v7.62h4.907v-1.4H1.584v-1.84h2.87v-1.36H1.57v-1.66Zm2.88 8.848l3.375-7.88h-1.66l-1.21 3.14 -1.22-3.15h-1.65l2.06 4.808 -1.35 3.07Zm8.83-4.77v-.6c0-1.641-1-2.62-2.53-2.62 -1.58 0-2.69 1.04-2.69 2.74 0 1.69 1.109 2.74 2.724 2.74 1.23 0 2.24-.72 2.42-1.72l-1.5-.08c-.12.36-.45.58-.97.58 -.68 0-1.08-.43-1.11-1.08Zm-2.54-2.06c.67 0 1 .42 1.032 1.06H12.97c.04-.68.46-1.07 1.093-1.07Zm8.63-2.04v-1.39h-4.9v7.62H22.7v-1.4h-3.33V15.2h2.875v-1.36H19.37v-1.66Zm7.28.86c-.8 0-1.32.36-1.62.83 -.35-.55-.94-.84-1.66-.84 -.73 0-1.16.27-1.39.64v-.55H23.89v5.27h1.48v-2.93c0-.64.35-1.07.94-1.07 .54 0 .85.375.85 1.05v2.93h1.48v-3.11c.06-.54.39-.88.92-.88 .56 0 .875.38.875 1.05v2.93h1.48v-3.24c0-1.34-.8-2.141-2-2.141Z"/></svg>