<svg viewBox="0 0 32 32" xmlns="http://www.w3.org/2000/svg"><path d="M22.01 22.458c.19-.68.12-1.3-.21-1.75 -.3-.43-.81-.67-1.42-.7l-11.55-.15c-.08 0-.15-.04-.18-.1 -.04-.06-.05-.13-.04-.21 .04-.11.15-.2.27-.21l11.64-.16c1.38-.07 2.88-1.19 3.4-2.56l.66-1.74c.03-.08.04-.16.02-.23 -.75-3.4-3.78-5.927-7.41-5.927 -3.34 0-6.17 2.15-7.19 5.14 -.66-.484-1.49-.75-2.391-.67 -1.604.15-2.891 1.44-3.05 3.04 -.04.41-.01.81.08 1.18 -2.62.07-4.708 2.21-4.708 4.85 0 .22.021.46.047.7 .02.1.115.19.22.19h21.3c.125 0 .23-.09.27-.21Zm3.67-7.416c-.11 0-.22 0-.32.01 -.08 0-.15.05-.18.13l-.45 1.56c-.2.67-.125 1.29.2 1.75 .29.42.8.66 1.41.69l2.45.15c.07 0 .14.03.18.09 .03.05.04.14.02.2 -.04.11-.16.2-.28.2l-2.57.15c-1.4.06-2.88 1.18-3.41 2.55l-.19.47c-.05.09.02.18.13.18h8.79c.09 0 .19-.07.22-.17 .15-.55.23-1.12.23-1.71 0-3.47-2.84-6.31-6.32-6.31Z"/></svg>