<svg viewBox="0 0 32 32" xmlns="http://www.w3.org/2000/svg"><path d="M31.99 6.24c0-2.772-2.24-5.032-4.968-5.032H4.95C2.21 1.2-.02 3.468-.02 6.24v10.04c0 .44.057.89.17 1.32 .04.17.093.35.161.52 .333.82.869 1.55 1.563 2.125 .683.69 1.563 1.45 2.62 2.276l.14.09 .58.44 .69.532c1.58 1.21 4.27 3.27 8.219 6.276 .64.48 1.38.9 1.84.9 .45 0 1.2-.42 1.84-.91 3.94-3.01 6.631-5.07 8.21-6.276l1.29-.99h-.01l.14-.12c1.06-.82 1.95-1.59 2.625-2.276 .68-.56 1.21-1.29 1.53-2.11 .21-.59.33-1.21.33-1.84V6.7Zm-5.53 8.323c-.13-.03-.25-.05-.375-.06 -.14 0-.31-.03-.45-.03 -.37-.02-.74.06-1.08.21 -.29.13-.54.32-.72.58 -.19.26-.31.55-.39.85 -.08.33-.12.69-.12 1.07v3.84h-6.71l-4.98-7.448 -2.08 2.1v5.29H5.92V4.46h3.62v6.84l6.44-6.84h4.52l-6.44 6.51 6.88 9.72v-8.24h2.21v1.57h.02c.11-.26.26-.52.44-.74 .19-.23.4-.42.64-.58 .24-.14.5-.28.77-.36 .27-.08.56-.12.85-.12 .15 0 .31.04.5.08Z"/></svg>