<svg viewBox="0 0 32 32" xmlns="http://www.w3.org/2000/svg"><path d="M5.672 31.917c-.29-.14-.51-.35-.64-.625 -.11-.22-.12-.3-.12-.88 0-1.24.2-3.24.48-4.79 .93-5.11 3.16-9.51 6.55-12.9l.76-.78 -.1-.39c-.19-.76-.11-1.75.19-2.439 .33-.75 1.04-1.52 1.73-1.89 .17-.1.33-.18.33-.17 .01 0 .08-.03.18-.07 .09-.05.2-.09.24-.1 .04-.01.13-.04.18-.05 .58-.15 1.19-.15 1.78 0 .05 0 .15.03.22.06 .06.02.11.03.11.02 0-.02.22.09.5.23 .81.42 1.37 1 1.75 1.81 .29.62.36.93.35 1.66 -.01.532-.02.67-.13 1.02 -.24.8-.6 1.33-1.29 1.94 -.16.13-.34.26-.4.3 -.24.125-.48.24-.73.35 -.02.01-.06.02-.09.04 -.04.01-.12.03-.2.04 -.06.01-.12.02-.17.04 -.03.01-.17.03-.31.05 -.16.01-.35.03-.43.04 -.2.03-.82-.05-1.17-.125 -.29-.09-.57-.21-.83-.35l-.35-.19 -.15.1c-.2.15-1.109 1.13-1.58 1.69 -3.115 3.74-4.869 8.6-5.11 14.16 -.04.83-.07 1.21-.12 1.36 -.1.25-.37.55-.63.68 -.32.12-.657.12-.97.01ZM16.14 21.4c-.14-.03-.28-.05-.42-.05 -.375-.02-.76-.07-1.12-.15 -.06-.02-.18-.04-.28-.05 -.08-.02-.15-.03-.22-.06 -.06-.03-.11-.04-.17-.05 -.11-.03-.21-.06-.31-.1 -.07-.04-.13-.06-.2-.07 -.125-.04-.26-.08-.38-.12 -.12-.05-.25-.09-.37-.11 -.04.02-.46-.29-.56-.4 -.29-.34-.391-.86-.25-1.21 .19-.46.67-.81 1.12-.82 .15-.01.3.01.34.04 .03.03.06.04.06.02 0-.03.04 0 .1.04 .06.04.11.05.11.04 0-.03.03-.02.06.01 .05.04.44.17.61.21 .05.01.11.03.14.04 .02.01.1.04.19.05 .08 0 .32.05.54.09 .41.07 1.77.12 2.05.06 .08-.03.26-.05.38-.07 .13-.01.26-.04.29-.05 .04-.02.13-.04.2-.05 .18-.04.38-.08.52-.13 .03-.02.16-.05.27-.09 .11-.03.25-.08.31-.1 .06-.03.14-.06.18-.07 .02-.01.3-.14.6-.29 1.21-.593 2.26-1.468 3.05-2.56 .36-.53.93-1.64 1.11-2.24 .96-3.01.19-6.32-1.968-8.5 -.89-.86-1.95-1.52-3.11-1.95 -.19-.07-.37-.12-.55-.17 -.12-.02-.23-.05-.33-.08 -.09-.03-.17-.05-.26-.07 -.21-.05-.43-.08-.64-.09 -.13-.01-.25-.03-.37-.05 -.08-.03-1.14-.02-1.42 0 -.33.03-.54.06-.76.1 -.12.02-.23.05-.35.06l-.23.05 -.19.04c-.05.01-.1.02-.14.04 -.04 0-.06.01-.08.03 -.02.02-.08.03-.13.03 -.06 0-.11.02-.16.05 -.04.03-.06.04-.06.02 0-.03-.04-.02-.07.02 -.05.02-.07.03-.07.02 0-.02-.06-.02-.11.02 -.06.02-.125.05-.16.06 -.1.02-.968.46-1.24.64 -.62.38-.84.56-1.407 1.13 -.71.7-1.09 1.22-1.53 2.099 -.82 1.61-1.09 3.45-.78 5.239 .08.48.19.87.4 1.45 .08.21.09.3.05.48 -.13.72-.95 1.27-1.54 1.02 -.09-.04-.17-.06-.17-.05 0 .04-.39-.27-.5-.42 -.12-.18-.21-.37-.28-.57 -.625-1.74-.74-3.93-.29-5.83 .38-1.57 1.104-3.04 2.115-4.3 .42-.52 1.32-1.41 1.81-1.79 .36-.29 1.19-.83 1.25-.83 .01 0 .17-.1.36-.21 .11-.07.22-.129.34-.19 0 .01.08-.03.19-.08 .1-.06.21-.11.24-.11 .02-.01.12-.05.22-.09 .09-.05.18-.08.18-.07 0 0 .03-.02.07-.05 .04-.04.07-.05.07-.03 0 .01.03.01.06-.03s.06-.05.06-.02c0 .01.03 0 .07-.03 .03-.04.06-.04.06-.02s.03 0 .06-.03c.03-.04.06-.05.06-.04 0 .01.05 0 .13-.02 .06-.03.15-.06.2-.068 .07-.03.21-.06.32-.09 .04-.02.09-.03.13-.05 .05-.01.16-.05.25-.06 .08-.02.34-.06.58-.09 .31-.06.71-.068 1.62-.057 .65 0 1.26.025 1.32.036 .07.02.22.04.33.05 .11.02.28.05.38.07 .1.02.25.05.34.068 .07 0 .14.02.2.05 .03.02.06.03.1.04 .12.03.21.05.22.05 .01.01.02.01.04.01l.35.12c.17.05.32.11.33.11 .01 0 .06.02.11.05 .04.02.1.04.125.05 .02 0 .09.03.17.07 .07.04.13.06.13.05 0-.04.98.5 1.26.688 .14.09.29.19.33.21 .45.28 1.14.853 1.7 1.43C24.97 4.27 25.97 6.15 26.38 8.2c.1.55.13.74.14 1.78 .02 1.32-.04 1.85-.29 2.85 -.54 2.099-1.65 3.87-3.39 5.46 -.52.43-1.06.82-1.64 1.17 -.24.14-1.4.71-1.4.69 0-.02-.05 0-.1.03 -.07.03-.12.05-.14.05 -.02 0-.17.05-.35.11 -.17.05-.33.11-.34.11l-.1.03c-.06.02-.12.04-.19.05 -.22.04-.32.06-.36.08 -.07.02-.14.04-.2.05 -.12.01-.24.03-.36.06 -.32.06-.64.1-.96.12 -.77.06-1.17.07-1.19.05Z"/></svg>