<svg viewBox="0 0 32 32" xmlns="http://www.w3.org/2000/svg"><path d="M16.75.4C10.337.4 4 4.67 4 11.59c0 4.4 2.47 6.9 3.97 6.9 .61 0 .97-1.73.97-2.22 0-.59-1.49-1.82-1.49-4.24 0-5.03 3.82-8.588 8.775-8.588 4.256 0 7.4 2.41 7.4 6.86 0 3.31-1.34 9.54-5.65 9.54 -1.56 0-2.888-1.125-2.888-2.74 0-2.37 1.65-4.65 1.65-7.09 0-4.14-5.869-3.39-5.869 1.61 0 1.05.13 2.21.6 3.16 -.87 3.71-2.625 9.24-2.625 13.06 0 1.18.16 2.34.28 3.52 .21.23.1.21.43.09 3.15-4.32 3.03-5.16 4.46-10.8 .76 1.46 2.75 2.25 4.33 2.25 6.63 0 9.619-6.47 9.619-12.3C27.96 4.39 22.59.34 16.71.34Z"/></svg>