<svg viewBox="0 0 32 32" xmlns="http://www.w3.org/2000/svg"><path d="M15.97.5C24.83.5 31.49 7.381 31.49 16c0 9.19-7.41 15.5-15.525 15.5C7.58 31.5.48 24.65.48 16 .48 7.69 7.02.5 15.95.5Zm.05 2.794C8.63 3.294 3.28 9.413 3.28 16c0 6.86 5.7 12.675 12.73 12.675 6.45 0 12.67-5.07 12.67-12.675C28.68 8.88 23.04 3.29 16 3.29ZM9.1 13.813c.81-5.244 5.03-5.99 6.8-5.99 6.23 0 7.96 5.156 7.96 8.387 0 3.97-2.57 8.3-8.06 8.3 -2.44 0-6.2-1.25-6.837-6.07h3.9c.09 1.88 1.22 2.82 3.4 2.82 1.45 0 3.625-1.14 3.625-5.18 0-5.16-3.07-5.038-3.55-5.038 -2.07 0-3.24.91-3.49 2.73h1.13l-3.08 3.07 -3.07-3.08Z"/></svg>