<svg viewBox="0 0 32 32" xmlns="http://www.w3.org/2000/svg"><path d="M18.061 11.1c0-.92-.79-1.03-1.53-1.03l-2.18-.02v3.85h.91v-1.4h1c1.02 0 .8.57.82 1.39h.92v-.75c0-.52-.09-.84-.62-1.03 .41-.17.65-.6.65-1.04Zm-1.64.62h-1.15v-.85h1.16c.28 0 .59.05.59.41s-.3.43-.62.43Zm-.93 4.97h-2.93l-1.17 1.26 -1.14-1.27h-3.7l-.01 3.85h3.63l1.18-1.28 1.13 1.27h1.78l0-1.3c1.05 0 2.73.25 2.73-1.3 0-.97-.69-1.27-1.55-1.27Zm-5.77 3.03h-2.26v-.77h2.01v-.79H7.455v-.7h2.317l.99 1.12Zm3.65.45l-1.41-1.561 1.4-1.53Zm2.1-1.73h-1.18v-.98h1.19c.31 0 .56.12.56.46 0 .35-.26.51-.59.51Zm-1.76-7.6v-.82h-3.083v3.85h3.083v-.8h-2.17v-.77h2.1v-.79h-2.1v-.7Zm18.26 5.089h-.02ZM21.16 17.69c0-.92-.79-1.04-1.51-1.04H17.46l-.01 3.85h.92l0-1.41h.97c.61 0 .82.11.82.76l-.01.63h.92l0-.77c0-.5-.1-.84-.62-1.03 .42-.18.65-.6.66-1.03Zm-1.63.62h-1.15v-.87h1.16c.28 0 .59.05.59.41 0 .38-.3.45-.62.45Zm-9.6-4.45v-3.85H8.39l-1.1 2.61 -1.21-2.62H4.57v3.65L3 10.009H1.63l-1.65 3.85H.98l.35-.85h1.91l.355.85h1.87v-3.02l1.33 3.01h.81l1.33-3.02v3.01Zm-8.234-1.65l.62-1.54 .63 1.53Zm26.523 8.82v-.25c-.6.31-.22.25-8.71.25 0-1.4 0-1.33 0-1.4 -.1-.01-.18-.01-.53-.01 0 .99-.01.37-.01 1.4h-2.2c0-.68 0-.85 0-1.63 -.56.33-1.27.35-1.91.34 0 .81-.01.46-.01 1.27h-2.72c-.29-.32-.15-.18-.86-.97 -.18.19-.72.77-.9.96H5.8V15.87h4.61c.27.31.15.17.86.95 .17-.2.67-.75.87-.96h3.22c.54 0 1 .1 1.35.31v-.32c3.01 0 3.57-.08 4.2.28v-.29h4.34v.28c.63-.39 1.08-.29 3.6-.29v.27c.57-.33.92-.29 3.01-.28V6.07c0-1.48-1.2-2.667-2.67-2.667H2.53C1.05 3.4-.14 4.59-.14 6.07v6.1C.38 10.95.95 9.61 1.14 9.17H3.35c.23.56.08.2.5 1.17V9.16H6.41c.16.34.61 1.33.77 1.66 .32-.76.56-1.33.7-1.67h5.72c0-.01.63 0 .64 0 2.42.01 2.97-.05 3.57.29v-.3h2.21v.51c.42-.34.99-.52 1.7-.52h1.53c0 .02.1.01.12.01h1.8c.23.54.14.33.48 1.14V9.13h2.4c.27.44-.06-.1.62 1.02V9.12h2.21v5.11h-2.311c-.3-.5-.08-.13-.74-1.22v1.21h-2.933c-.36-.83-.01-.02-.37-.85h-1.06c-.24.55-.13.28-.36.85h-1.49c-.69 0-1.24-.17-1.65-.5v.49h-3.7c-.02-.78-.01-1.38-.01-1.38 -.1-.02-.19-.02-.55-.02v1.39H8.17v-.64c-.14.31-.15.32-.29.63H6.24c-.23-.5-.17-.36-.29-.64v.63H3.01c-.24-.57-.13-.3-.36-.85H1.58c-.24.55-.13.28-.355.85H-.25v11.317c0 1.47 1.19 2.66 2.66 2.66h26.67c1.47 0 2.66-1.2 2.66-2.67v-5.03c-.71.46-1.82.33-3.75.33Zm2.01-3.59h1.67v-.82h-1.83c-.72 0-1.33.36-1.33 1.15 0 1.83 2.372.71 2.372 1.52 0 .28-.24.35-.47.35h-1.78l-.01.82h1.77c.46 0 .97-.1 1.25-.5v-1.44c-.59-.77-2.183-.08-2.183-.75 0-.33.25-.37.51-.37Zm-3.17 2.21h-1.79l-.01.82h1.78c.82 0 1.45-.32 1.45-1.23 0-1.85-2.39-.63-2.39-1.47 0-.32.27-.36.51-.36h1.689v-.82h-1.85c-.72 0-1.31.36-1.31 1.15 0 1.83 2.372.69 2.372 1.52 -.01.3-.27.35-.49.35Zm-2.35-2.23v-.8H21.64l-.01 3.85h3.067l0-.8 -2.15-.02v-.77h2.1v-.79h-2.1v-.7Zm-3.128-6.01c-.02.01-.08.12-.08.42 0 .33.05.42.06.43 .01 0 .06.02.18.02l.4-.94c-.07 0-.12-.01-.18-.01 -.32 0-.39.03-.41.05Zm1.13-.59h-.01Zm-.9-.85c-1.31 0-1.89.66-1.89 1.96 0 1.234.56 1.88 1.83 1.88h1.06l.35-.85h1.9l.36.85h1.87v-2.89l1.73 2.88h1.311V9.976h-.94v2.67l-1.62-2.68h-1.41v3.63l-1.55-3.64h-1.38l-1.31 3.02h-.42c-.74 0-.9-.45-.9-1.11 0-1.33.87-1.12 1.83-1.1v-.85Zm2.33.67l.62 1.53h-1.27Zm-5.62-.67v3.85h.93V9.97Z"/></svg>