<svg viewBox="0 0 32 32" xmlns="http://www.w3.org/2000/svg"><path d="M14.057 31.88c-2.86-.37-5.792-1.6-7.932-3.31C1.3 24.72-.88 18.65.37 12.62 .9 10.01 2.302 7.27 4.08 5.3 5.39 3.81 6.98 2.6 8.757 1.71c2.35-1.2 4.6-1.729 7.26-1.729 1.9 0 3.43.25 5.19.84 4.67 1.604 8.34 5.27 9.948 9.943 .93 2.75 1.1 5.67.51 8.578 -.48 2.29-1.72 4.87-3.24 6.73 -.625.77-2.07 2.14-2.82 2.7 -2.26 1.67-4.92 2.74-7.71 3.07 -.83.1-3.07.09-3.859 0Zm4.36-1.34c3.89-.66 7.375-2.83 9.672-6.05 2.7-3.8 3.42-8.891 1.9-13.333 -.36-1.05-1.25-2.79-1.91-3.7 -.73-1.03-2.52-2.83-3.55-3.55 -1-.71-2.71-1.57-3.87-1.95C16.409.53 11.75 1.13 7.99 3.56 6.24 4.71 4.75 6.2 3.6 7.95 1.16 11.7.58 16.362 1.98 20.612c.38 1.16 1.245 2.87 1.948 3.87 .72 1.02 2.52 2.82 3.547 3.54 .92.64 2.65 1.53 3.69 1.9 2.3.78 4.766.99 7.21.59Zm-5.542-5.37c-.75-.12-1.47-.375-2.109-.78 -.58-.37-4.95-4.65-5.156-5.05 -.25-.46.18-1.3.79-1.55l.28-.12 -.88-.9c-.484-.5-.95-1.03-1.016-1.17 -.18-.34-.18-1.05-.02-1.37 .06-.13.22-.33.35-.44 .21-.18.23-.24.21-.69 -.03-.4.01-.56.18-.85 .25-.43.766-.72 1.271-.72 .28 0 .35-.04.47-.25 .31-.55 1.2-.75 1.89-.42l.37.17 .18-.18c.25-.23.75-.44 1.07-.44 .65 0 1.58.75 1.58 1.28 0 .63-.58.74-1.16.21 -.38-.36-.58-.391-.73-.15 -.08.12.1.34 1.22 1.47 1.12 1.125 1.32 1.36 1.32 1.57 -.03.33-.3.609-.63.62 -.21 0-.54-.3-2.08-1.83 -1.57-1.57-1.86-1.82-1.98-1.734 -.34.21-.23.37 1.609 2.208 .99 1 1.81 1.88 1.81 1.96 0 .17-.16.49-.29.57 -.11.04-.23.06-.34.06 -.22 0-.55-.3-2.29-2.04 -1.75-1.74-2.07-2.03-2.19-1.95 -.35.21-.23.37 1.766 2.375 1.08 1.08 2 2.06 2.026 2.167 .05.18-.07.51-.24.63 -.11.04-.23.06-.35.06 -.22 0-.484-.24-1.93-1.68 -1.391-1.391-1.72-1.68-1.891-1.67 -.5.05-.33.28 2.26 2.87 2.24 2.24 2.526 2.56 2.526 2.79 0 .18-.07.31-.23.43 -.41.31-.56.24-1.57-.74 -.516-.5-1.05-.98-1.19-1.07 -.26-.16-.91-.23-1.021-.1 -.05.03.91 1.04 2.11 2.23 2 1.98 2.234 2.18 2.82 2.46 1.13.54 2.359.55 3.49.01 1.68-.81 2.61-2.75 2.15-4.52 -.23-.88-.52-1.31-1.68-2.5 -1.34-1.37-1.641-1.74-1.97-2.4 -.37-.734-.53-1.45-.53-2.34 0-.97.09-1.41.52-2.31 .4-.859 1.25-1.76 2.09-2.23 1.64-.92 3.81-.84 5.38.18 .31.2 1.44 1.266 2.849 2.67 2.08 2.09 2.32 2.365 2.32 2.6 0 .56-.47 1.19-.98 1.32 -.2.05-.16.1.71.99 .51.516.98 1.07 1.05 1.24 .24.58.13 1.16-.32 1.63 -.23.24-.26.32-.27.8 -.01.42-.06.59-.22.83 -.28.4-.73.64-1.19.65 -.33 0-.39.03-.55.27 -.37.56-1.32.76-1.93.39l-.31-.19 -.22.21c-.49.46-1.27.52-1.86.14 -.48-.31-.84-.73-.84-.99 0-.24.33-.62.54-.62 .19 0 .46.15.76.43s.56.28.6-.01c.02-.16-.23-.46-1.24-1.47 -1.07-1.08-1.27-1.32-1.27-1.53 -.01-.12.02-.23.06-.34 .11-.18.43-.3.63-.24 .1.02.98.83 1.94 1.8 .96.96 1.81 1.76 1.89 1.76 .21 0 .35-.22.25-.4 -.05-.09-.87-.93-1.82-1.87 -1.49-1.48-1.73-1.76-1.73-1.98 -.01-.12.01-.24.06-.35 .08-.13.4-.29.57-.29 .07 0 1.05.91 2.17 2.02 2.05 2.04 2.2 2.15 2.41 1.81 .07-.125-.21-.45-1.95-2.19 -1.8-1.81-2.04-2.08-2.04-2.31 0-.17.07-.33.18-.44 .38-.359.49-.29 2.34 1.55 1.75 1.74 1.9 1.85 2.12 1.52 .07-.125-.28-.51-2.45-2.69 -2.37-2.375-2.54-2.57-2.54-2.85 0-.42.24-.62.7-.59 .08 0 .58.42 1.09.93 .52.5 1.08.97 1.25 1.05 .32.13.7.15.87.05 .15-.1-4.17-4.36-4.73-4.651 -2.04-1.1-4.573-.26-5.55 1.84 -.28.57-.31.75-.35 1.49 -.04.7-.01.92.14 1.37 .27.79.5 1.125 1.71 2.365 1.31 1.34 1.56 1.65 1.89 2.37 .93 2 .54 4.31-1.01 5.85 -1.18 1.18-2.79 1.73-4.37 1.51Z"/></svg>