<svg viewBox="0 0 32 32" xmlns="http://www.w3.org/2000/svg"><path d="M9.109 8c0-.22.01-.43.03-.64 .02-.28.09-.532.15-.8l-.93-1.84H-.01L2.9 9.8h2.03l2.792 5.308c.44-1.4 1.23-2.66 2.301-3.67 -.62-1.06-.94-2.25-.94-3.47Zm4.708 18.219l2.18 3.96 2.18-3.97c-.72.18-1.44.31-2.19.31s-1.47-.125-2.19-.31Zm9.81-21.49l-.96 1.67c.07.31.14.62.17.96 .13 1.428-.19 2.86-.91 4.095 1.06 1 1.85 2.27 2.3 3.66L27.01 9.8h2.03l2.9-5.088Zm.16 11.282c-.41-1.74-1.39-3.3-2.77-4.42 2.91-4.088-.01-9.78-5.04-9.776 -3.42 0-6.183 2.76-6.183 6.183 0 1.29.4 2.54 1.15 3.593 -1.89 1.52-2.97 3.808-2.97 6.224 0 3.29 2.02 6.25 5.083 7.45 1.88.73 3.95.72 5.83 0 3.69-1.46 5.77-5.4 4.88-9.26ZM15.98 5.63c1.5-.001 2.72 1.22 2.72 2.72 0 3.63-5.459 3.63-5.459 0 0-1.51 1.22-2.73 2.72-2.73Zm0 15.27c-3.98-.15-3.98-6.05 0-6.19 1.7 0 3.08 1.38 3.08 3.08 0 1.7-1.38 3.09-3.09 3.09Z"/></svg>