<svg viewBox="0 0 32 32" xmlns="http://www.w3.org/2000/svg"><path d="M15.97.5C24.83.5 31.49 7.381 31.49 16c0 9.19-7.41 15.5-15.525 15.5C7.58 31.5.48 24.65.48 16 .48 7.69 7.02.5 15.95.5Zm.05 2.794C8.63 3.294 3.28 9.413 3.28 16c0 6.86 5.7 12.675 12.73 12.675 6.45 0 12.67-5.07 12.67-12.675C28.68 8.88 23.04 3.29 16 3.29Zm6.31 8.275c.48 0 .85.38.85.85v11.4c0 .48-.39.85-.86.85h-8.45c-.49 0-.86-.375-.86-.86V20.43H9.63c-.49 0-.86-.375-.86-.86V8.16c0-.52.41-.8.77-.86h8.52c.48 0 .85.375.85.85v3.375Zm-11.85 7.2h2.54v-6.34c0-.47.36-.79.75-.86h3.48V9.05h-6.79Zm11.012-5.51H14.7v9.71h6.78Z"/></svg>