<svg viewBox="0 0 32 32" xmlns="http://www.w3.org/2000/svg"><path d="M31.96 26.984c-.41-2.58-5.163-.6-5.459-3.42 -.42-4 5.53-12.615 5.06-15.97 -.42-3.01-2.46-3.64-4.22-3.68 -1.72-.03-2.17.24-2.75.58 -.34.19-.82.577-1.49-.06 -.45-.43-.75-.72-1.21-1.089 -.24-.2-.62-.44-1.27-.53 -.63-.1-1.47 0-1.99.21 -.532.22-.94.625-1.37 1 -.44.375-1.532 1.59-2.548 1.14 -.45-.2-1.95-.95-3.04-1.41 -2.09-.91-5.093.55-6.183 2.48C3.87 9.099.69 20.36.2 21.85 -.88 25.18 1.58 27.9 4.88 27.74c1.4-.07 2.33-.58 3.213-2.19C8.6 24.62 13.4 12.1 13.76 11.49c.26-.44 1.125-1.01 1.85-.64 .73.38.88 1.16.77 1.89 -.19 1.19-3.56 8.839-3.7 9.699 -.22 1.47.48 2.28 2.01 2.36 1.04.05 2.08-.32 2.91-1.88 .46-.88 5.79-11.56 6.26-12.271 .52-.79.93-1.05 1.47-1.02 .41.02 1.061.125.9 1.35 -.17 1.2-4.46 9.04-4.9 10.95 -.61 2.57.8 5.16 3.12 6.308 1.48.72 7.959 1.96 7.433-1.38Z"/></svg>