<svg viewBox="0 0 32 32" xmlns="http://www.w3.org/2000/svg"><path d="M2.9 3.74c.31.56.63 1.04.97 1.45h-.01c-.16-.02-.32-.04-.48-.04 -.36 0-.72.06-1.06.17 .65.55 1.213.95 1.7 1.26 1.2.391 2.55 1.04 3.699 1.77 .56.36 1.077.72 1.484 1.04 .4.31.75.625.82.76 .07.13 0 .18-.11.07 -.11-.11-.41-.43-.81-.74 -.48-.37-.968-.71-1.48-1.032 -1.04-.66-2.65-1.29-3.625-1.89 -.76-.25-1.58-.28-2.54.18 .69.43 1.287.75 1.8.99 1.47.2 3.01.92 4.303 1.74 .64.41 1.2.82 1.625 1.16 .2.16.38.31.52.43 .13.12.23.2.26.27 .04.09-.03.14-.11.07 -.05-.04-.12-.14-.25-.26 -.17-.16-.34-.3-.516-.44 -.42-.34-.968-.74-1.61-1.15 -1.2-.75-2.98-1.35-4.235-1.859 -.81-.16-1.63-.09-2.55.516 .59.26 1.12.46 1.57.61 -.76.02-1.51.26-2.24.95 .63.16 1.18.26 1.65.33 -.583.12-1.16.4-1.72.96 .43.09.82.16 1.183.21 -.45.21-.86.54-1.24 1.04 .495.04.937.05 1.333.05 -.48.21-.927.57-1.328 1.13 .708.03 1.307.03 1.817 0 -.57.22-1.083.62-1.525 1.29 .724.01 1.452-.02 2.17-.11l-.02 0c1.32-.1 3.06.16 3.95 1.13 .06.07-.04.15-.1.09 -.859-.78-1.99-1.11-3.86-1.23 -.73.19-1.4.59-1.95 1.43 .71 0 1.307-.02 1.817-.07 -.63.33-1.16.85-1.52 1.73 .647-.12 1.188-.26 1.65-.4 -.49.35-.9.84-1.17 1.59 .43-.1.812-.2 1.15-.3 -.35.42-.58.92-.683 1.46 .46-.18.87-.35 1.23-.52h0c.375-.31.94-.61 1.71-.83 .67-.2 1.44-.38 2.197-.41 .1-.01.21-.01.32 0 .13 0 .08.14 0 .13 -.968-.02-1.74.17-2.5.39 -.61.19-1.19.42-1.755.7 -.39.45-.64 1-.74 1.58 .65-.26 1.197-.52 1.64-.76 -.42.44-.73 1.01-.85 1.8 .66-.29 1.303-.62 1.923-.99 -.58.48-1.021 1.125-1.18 2.11 .82-.35 1.609-.78 2.35-1.28 -.25.49-.38 1.07-.32 1.79 1.016-.79 1.66-1.41 2.141-1.97 -.04.39 0 .79.09 1.18 .59-1.04 1.19-1.46 1.8-1.82 -.76.49-.62.89-.62 1.35 .9-.97 2.176-1.98 2.567-2.62 -.52.78-.73 1.52-.87 2.17 -2.67 1.4-4.281 1.77-6.1 2.33 .7.26 1.45.51 1.14.86l-.84.82c.53-.17 1.07-.4 1.54-.08 -.05.43-.593.65-1.07.9 .82-.3 1.005-.23 1.22-.16 .1.52-.28.8-.52 1.14 2.088-1.59 4.8-2.84 6.72-3.37 2.69-.91 6.17-1.85 7.12-4.16 .31-1.27.63-2.55.94-3.8 -.16-.05-.33-.09-.47-.18 -.15-.1-.26-.24-.32-.41 -.34.08-.59.04-.75-.12 -.16-.16-.23-.391-.28-.657 -.28.05-.49.02-.625-.1 -.16-.14-.23-.35-.27-.59l-.01-.06 .04-.03c.15-.06.28-.14.4-.26 .07-.09.11-.2.09-.31l-.02-.06 .04-.03c.22-.12.46-.23.57-.37 .06-.08.08-.19.06-.29 -.04-.18-.11-.34-.21-.48l-.05-.06 .05-.04c.15-.12.32-.24.41-.35 .04-.06.06-.11.06-.15 0-.05-.03-.1-.09-.17l-.13-.125 .18.01c.28.01.52-.02.72-.08 .16-.05.3-.16.38-.3 -.01-.04-.01-.07-.01-.1 0-.34.27-.61.6-.61 .33 0 .6.27.6.6 0 .06-.02.11-.04.17 .25.02.48.01.7-.09l.04-.03c.31-.11.44.06.95-.609 -2.26-2.93-5.55-.85-6.64 2.167 -.29.77-1.88.77-2.34-.01 -1.83-3.94-7.37-8.088-12.093-9.62Zm.97 1.45c.33-.01 1.51.6 1.75.69 .71.4 1.41.82 2.088 1.28 .67.44 1.28.88 1.69 1.2 .2.16.36.29.46.38 .04.04.08.07.1.1 .01.01.01.02.01.03 0 .01 0 .04-.01.05 -.02.02-.05.04-.06.04 -.02 0-.03 0-.04 0 -.08 0-.28-.22-.67-.56 -1.17-.91-2.4-1.72-3.68-2.44 -.68-.38-1.28-.72-1.69-.82ZM2.35 8.9c1.08 0 2.52.48 3.9 1.22 1.391.74 2.72 1.625 3.37 2.37 .08.09-.03.16-.11.08 -.7-.67-1.95-1.61-3.33-2.35 -.85-.45-2.864-1.34-3.843-1.35Zm-.57 1.28c1.48.02 3.13.59 4.573 1.32 .72.37 1.36.76 1.859 1.109 .5.35.9.69.97.88 .08.17-.02.17-.12.06 -.28-.31-.593-.59-.94-.84 -.59-.42-1.21-.78-1.85-1.1 -1.287-.64-3.048-1.24-4.516-1.46Zm.21 1.08c.08-.01.17 0 .26 0 1.09.09 2.29.48 3.38.99 1.44.67 2.71 1.54 3.245 2.224 .04.05-.02.17-.11.08 -.58-.59-1.76-1.52-3.2-2.183 -1.213-.57-3.05-1.17-4.348-1.05 .24-.04.5-.08.76-.09Zm22.052.01c-.49.63-.71.56-.94.62 .125.57.46.78.78 1.032 2.692-.5 5.71-.37 8.1-.31l-7.96-1.35Zm-1.07.66c-.26.1-.52.1-.79.07 -.11.18-.31.29-.52.3 -.24 0-.46-.15-.56-.36 -.11.13-.25.22-.41.28 -.22.05-.44.08-.66.07 .02.04.06.08.06.13 0 .08-.04.16-.1.22 -.1.125-.25.23-.4.33 .09.14.16.31.19.484 .02.13-.02.27-.1.38 -.14.18-.38.28-.59.391 0 .12-.04.26-.12.35 -.12.11-.26.2-.41.26 .03.2.09.37.2.47 .11.09.28.13.56.06l.07-.03 .01.07c.04.27.11.516.24.64 .13.13.32.18.67.07l.06-.03 .01.06c.05.15.15.28.28.375 .11.07.33.15.48.19 1.06-1.17 2.03-2.365 2.51-3.82 -.31-.24-.68-.45-.82-1.06ZM1.9 12.42c1.27.01 2.537.3 3.69.85 1.22.57 2.208 1.25 2.63 1.74 .09.11-.03.16-.1.09 -.79-.7-1.66-1.28-2.6-1.72 -1.21-.56-2.93-.859-4.213-.96 .19-.01.39-.02.58-.02Zm.57 1.08c.81.02 1.65.2 2.412.46 1.005.34 1.891.81 2.32 1.3 .05.06-.01.17-.1.09 -.47-.41-1.29-.93-2.276-1.28 -.77-.26-2.152-.49-3.027-.53 .26-.04.391-.09.66-.08Zm1.19 2.37c.06 0 .13 0 .2.01 .56.04 1.18.17 1.787.54 .05.03.06.18-.07.12 -1.15-.54-1.771-.66-3.29-.42 .45-.16.86-.27 1.34-.27Zm.55 1.04c.4 0 .81.07 1.33.28 .05.02.1.16-.05.125 -1.141-.33-1.553-.44-3.048.14 .37-.31.82-.5 1.36-.55 .13-.02.26-.02.4-.02Zm1.94.907c.2 0 .41.01.61.03 .06 0 .07.13-.02.12 -.83-.05-1.65 0-2.46.15 -.33.06-.57.06-1.87.61 .38-.32 1.05-.6 1.84-.75 .58-.11 1.245-.2 1.87-.19Zm1.78 1.2c.04-.01.14.1.02.13 -.98.18-1.66.36-2.4.6 -.3.09-.78.27-1.66.78 .34-.36.86-.67 1.61-.92 .78-.28 1.593-.48 2.41-.61Zm.41.67c.09-.02.13.11.03.13 -1.63.31-2.35.73-3.4 1.52 .67-.7 1.72-1.4 3.35-1.67Zm.79.59c.01 0 .02 0 .03 0 .08.01.09.11-.02.13 -1.17.17-1.97.74-3.01 1.77 .39-.66 1.343-1.66 2.98-1.92Zm.49.52c.06-.01.15.09.03.13 -.26.07-.577.19-.891.4 -.25.15-.41.27-.81.67 .15-.33.4-.58.72-.79 .32-.22.67-.39.93-.43Z"/></svg>