<svg viewBox="0 0 32 32" xmlns="http://www.w3.org/2000/svg"><path d="M32.005 2.47V1.05c-.29 0-.57-.12-.76-.32 -.2-.2-.32-.48-.32-.76H29.5C29.46.57 28.96 1.03 28.38 1c-.56-.03-1-.47-1.03-1.021h-1.42c-.04.593-.55 1.047-1.14 1.011 -.55-.04-.98-.47-1.01-1.011h-1.42C22.32.57 21.82 1.03 21.22 1c-.55-.03-.99-.47-1.03-1.021h-1.42C18.73.57 18.23 1.03 17.64 1c-.56-.03-.99-.47-1.03-1.021h-1.42c-.04.593-.55 1.047-1.14 1.011 -.55-.04-.98-.47-1.02-1.011h-1.42c-.02.593-.52 1.057-1.1 1.036C9.94.99 9.49.53 9.47-.03H8.05C8.01.57 7.51 1.03 6.91 1 6.36.97 5.92.53 5.89-.03H4.47C4.44.57 3.94 1.036 3.37 1.01 2.8.99 2.35.53 2.33-.03H.92C.92.25.8.53.6.73c-.21.19-.48.31-.76.31V2.46C.43 2.48.89 2.98.87 3.569 .85 4.129.4 4.579-.16 4.606v1.41C.43 6.036.89 6.532.87 7.125 .85 7.68.4 8.135-.16 8.16v1.41c.593 0 1.073.48 1.073 1.07 0 .58-.48 1.07-1.073 1.07v1.41c.593 0 1.073.48 1.073 1.06 0 .593-.48 1.07-1.073 1.07v1.41c.593.02 1.052.51 1.032 1.1 -.02.56-.47 1.01-1.032 1.03v1.41c.593 0 1.073.48 1.073 1.06 0 .59-.48 1.07-1.073 1.07v1.41c.593.02 1.052.51 1.032 1.1 -.02.56-.47 1.02-1.032 1.03v1.41c.593 0 1.073.48 1.073 1.07 0 .58-.48 1.06-1.073 1.06v1.41c.589 0 1.073.47 1.073 1.06H2.32c.03-.59.548-1.05 1.141-1.01 .54.03.968.46 1.005 1h1.41c.03-.59.53-1.05 1.125-1.02 .55.02.99.46 1.021 1.01h1.41c.03-.59.53-1.05 1.125-1.02 .55.02.99.46 1.02 1.01h1.41c.02-.59.52-1.06 1.109-1.04 .56.02 1.016.47 1.03 1.03h1.41c.03-.59.53-1.05 1.13-1.02 .54.02.98.46 1.01 1.01h1.41c.03-.59.53-1.05 1.13-1.02 .54.02.98.46 1.01 1.01h1.41c.03-.59.53-1.05 1.13-1.02 .55.02.98.46 1.02 1.01h1.41c.02-.59.51-1.06 1.1-1.04 .56.02 1.01.47 1.03 1.03h1.4c0-.29.11-.56.31-.76 .19-.2.47-.32.76-.32V29.3c-.6-.04-1.05-.55-1.02-1.14 .03-.55.46-.98 1.01-1.01v-1.42c-.6-.04-1.06-.54-1.03-1.125 .02-.56.46-1 1.02-1.03v-1.42c-.6-.04-1.05-.55-1.02-1.14 .03-.55.46-.98 1.01-1.01v-1.42c-.6-.03-1.06-.54-1.03-1.125 .02-.55.46-.99 1.02-1.03v-1.41c-.6-.04-1.05-.548-1.02-1.141 .03-.55.46-.98 1.01-1.01v-1.42c-.6-.04-1.06-.54-1.03-1.125 .02-.56.46-1 1.02-1.03V7.87c-.6-.04-1.05-.55-1.02-1.15 .03-.54.46-.968 1.01-1.005V4.3c-.6-.04-1.06-.54-1.03-1.125 .02-.56.46-.99 1.02-1.021Zm-5.43 13.12l-8.54 8.303c.77.12 1.52.29 2.32.29 1.95 0 4.19-.6 5.71-1.22l-.78 3.66c-2.24 1.07-3.61 1.16-4.939 1.16 -1.47 0-2.86-.48-4.29-.48 -.81 0-1.97.06-2.69.53l-1.55-2.74 8.8-8.72H10.48l-1.94 9.07H4.31L8.71 4.67h13.98l-.9 4.193H12.06l-.84 3.901h15.96Z"/></svg>