<svg viewBox="0 0 32 32" xmlns="http://www.w3.org/2000/svg"><path d="M26.82 24.57c0 .37-.26.65-.63.65 -.38 0-.63-.29-.63-.65 0-.37.24-.65.62-.65 .36 0 .62.28.62.65Zm-17.27-.65c-.4 0-.63.28-.63.65 0 .36.22.65.62.65 .36 0 .6-.28.6-.65 -.01-.37-.25-.65-.61-.65Zm6.52-.02c-.3 0-.484.19-.53.48h1.06c-.05-.32-.25-.49-.54-.49Zm5.98.01c-.38 0-.61.28-.61.65 0 .36.22.65.6.65 .37 0 .62-.28.62-.65s-.25-.65-.63-.65Zm5.88 1.45c0 .01.01.02.01.06 0 .01-.02.02-.02.06 -.02.01-.02.02-.03.04 -.02.01-.03.02-.07.02 -.02.01-.03.01-.07.01 -.02 0-.03 0-.07-.02 -.02 0-.03-.02-.05-.03 -.02-.02-.03-.03-.03-.05 -.02-.03-.02-.05-.02-.07 0-.03 0-.05.01-.07 0-.03.01-.05.02-.07 .01-.02.02-.02.04-.03 .02-.02.04-.02.06-.02 .02 0 .04 0 .06.01 .02.01.04.01.06.02 .01.01.01.03.02.06Zm-.13.07c.02 0 .02-.02.04-.02 .01-.02.01-.03.01-.05 0-.02 0-.03-.02-.05 -.02 0-.03-.02-.07-.02h-.09v.19h.04v-.08h.01l.06.07h.04Zm4.16-19.18V25.8c0 1.47-1.2 2.66-2.67 2.66H2.62c-1.48 0-2.667-1.2-2.667-2.67V6.23c0-1.48 1.19-2.667 2.66-2.667h26.667c1.47 0 2.66 1.19 2.66 2.667ZM3.51 14c-.001 4.25 3.45 7.69 7.69 7.69 1.51 0 2.99-.46 4.25-1.29 -4.05-3.3-4.022-9.511 0-12.81 -1.26-.84-2.74-1.29-4.25-1.29 -4.244-.01-7.7 3.44-7.7 7.67Zm12.44 6.04c3.91-3.06 3.9-9.02 0-12.09 -3.9 3.07-3.917 9.033 0 12.08Zm-7.91 4.23c0-.49-.32-.8-.82-.82 -.26 0-.53.07-.72.36 -.14-.23-.37-.37-.68-.37 -.22 0-.43.07-.59.3v-.25h-.46v2.03h.45c0-1.05-.14-1.68.5-1.68 .56 0 .45.56.45 1.67h.43c0-1.02-.14-1.68.5-1.68 .56 0 .45.55.45 1.67H8v-1.28Zm2.49-.77h-.44v.24c-.15-.19-.37-.3-.65-.3 -.58 0-1.02.45-1.02 1.07 0 .62.43 1.07 1.01 1.07 .28 0 .5-.11.65-.3v.25h.43Zm2.25 1.42c0-.84-1.28-.46-1.28-.85 0-.32.66-.27 1.02-.07l.18-.37c-.53-.34-1.68-.34-1.68.45s1.27.46 1.27.83c0 .35-.75.32-1.15.04l-.2.35c.62.42 1.811.33 1.811-.42Zm1.96.51l-.13-.38c-.22.11-.68.24-.68-.23v-.93h.72v-.42h-.73v-.63h-.46v.62h-.43v.4h.42v.92c0 .97.96.8 1.25.6Zm.73-.75h1.52c0-.9-.42-1.26-.97-1.26 -.59 0-1.02.43-1.02 1.07 0 1.13 1.25 1.32 1.87.78l-.22-.34c-.44.35-1.09.32-1.22-.28Zm3.28-1.2c-.26-.12-.65-.1-.85.24v-.25h-.46v2.03h.45v-1.15c0-.65.52-.57.71-.47Zm.58 1.01c0-.64.64-.84 1.15-.47l.21-.37c-.65-.51-1.82-.23-1.82.83 0 1.1 1.24 1.32 1.81.83l-.22-.37c-.52.36-1.15.14-1.15-.48Zm3.7-1.02h-.46v.24c-.47-.62-1.67-.27-1.67.77 0 1.06 1.24 1.37 1.66.77v.25h.45Zm1.87 0c-.14-.07-.62-.17-.85.24v-.25h-.44v2.03h.43v-1.15c0-.62.5-.58.71-.47Zm2.23-.83h-.44v1.07c-.46-.61-1.67-.29-1.67.77 0 1.07 1.25 1.36 1.66.77v.25h.43Zm.42-4.18v.25h.04v-.26h.1v-.05h-.26v.04Zm.36 6.87c0-.03 0-.07-.02-.09 -.02-.02-.03-.05-.05-.07 -.02-.02-.05-.03-.07-.05 -.03 0-.07-.02-.09-.02 -.02 0-.05.01-.08.01 -.03.01-.05.02-.07.04 -.03.01-.05.04-.05.06 -.02.02-.02.06-.02.08 0 .01 0 .04.01.07 0 .01.01.04.04.06 .01.01.02.02.06.04 .02.01.06.01.07.01 .02 0 .06 0 .08-.02 .01-.02.04-.03.06-.05 .01-.02.02-.05.04-.07 .01-.04.01-.07.01-.08Zm.17-6.927H28l-.09.19 -.09-.2h-.08v.3h.04v-.23l.08.19h.06l.07-.2v.22h.06Zm.24-4.48c0-4.234-3.45-7.683-7.7-7.683 -1.52 0-3 .45-4.25 1.28 4.006 3.295 4.067 9.52 0 12.8 1.25.83 2.75 1.28 4.25 1.28 4.244 0 7.69-3.439 7.69-7.689Z"/></svg>