<svg viewBox="0 0 32 32" xmlns="http://www.w3.org/2000/svg"><path d="M6.17 28.573c2.8 2.17 6.24 3.35 9.79 3.35 4.03 0 7.71-1.5 10.52-3.96 .03-.04.02-.05-.02-.04 -1.26.84-4.849 2.68-10.505 2.68 -4.911 0-8.02-1.1-9.771-2.08 -.04-.02-.05.01-.03.03Zm10.875.81c3.93 0 8.25-1.07 10.83-3.19 .7-.58 1.38-1.35 1.98-2.38 .34-.6.68-1.31.95-2 .01-.04-.01-.05-.04-.01 -2.401 3.53-9.36 5.74-16.536 5.74 -5.08 0-10.542-1.625-12.677-4.73 -.03-.03-.05-.02-.04.01 1.99 4.23 8.036 6.54 15.5 6.54Zm-4.292-7.02C4.58 22.363.72 18.553.02 15.953c-.01-.04-.04-.04-.04 0 0 .87.089 2 .24 2.75 .06.36.36.93.802 1.39 1.97 2.06 6.917 4.95 15.458 4.95 11.646 0 14.3-3.88 14.849-5.16 .39-.92.58-2.56.58-3.95 0-.34-.01-.61-.03-.87 0-.05-.03-.05-.04-.01 -.59 3.12-10.54 7.27-19.125 7.27ZM1.53 9.113c-.47.92-.99 2.5-1.15 3.3 -.07.34-.04.51.08.77 .979 2.07 5.93 5.4 17.49 5.4 7.052 0 12.53-1.74 13.41-4.9 .16-.59.17-1.2-.04-2.026 -.24-.93-.68-2-1.05-2.76 -.01-.03-.04-.03-.03.01 .13 4.14-11.427 6.81-17.26 6.81 -6.323 0-11.594-2.52-11.594-5.7 -.001-.31.06-.61.14-.93 .01-.04-.02-.04-.03-.01Zm24.97-5.09c.06.1.1.21.1.36 0 1.77-5.44 4.91-14.073 4.91 -6.35 0-7.54-2.354-7.54-3.85 0-.54.2-1.09.65-1.641 .02-.04 0-.05-.03-.03 -.83.69-1.58 1.479-2.25 2.33 -.32.4-.516.75-.516.96 0 3.1 7.78 5.35 15.06 5.35 7.75 0 11.21-2.54 11.21-4.76 0-.8-.31-1.26-1.1-2.17 -.52-.59-1-1.06-1.52-1.53 -.03-.03-.05-.01-.03.02Zm-2.38-1.78C21.65.76 18.82-.02 15.95-.01c-3.016 0-5.88.84-8.29 2.31 -.72.44-1.13.79-1.13 1.255 0 1.34 3.14 2.792 8.729 2.792 5.526 0 9.8-1.59 9.8-3.109 0-.37-.32-.62-.96-1.005Z"/></svg>