<svg viewBox="0 0 32 32" xmlns="http://www.w3.org/2000/svg"><path d="M20.83 13.38c-.625-.53-1.16-1.359-1.16-2.2 0-.32.1-.84.21-1.16 0-.21.1-.21.2-.32 .93-.21 1.35-.21 1.46-.32 .2-.42.31-.95.31-.95l-7.32-2.3s.41 1.146.72 1.255l3.349 1.46s-1.68.41-2.62.625l-.22.1s.31.63.94.94c.625-.21 1.77-.42 1.77-.42 -1.57 3.135-4.92 5.224-8.47 5.224H8.73c-.42 0-.53.31-.21.52 .625.31 1.15.94 1.359 1.56 .1.41-.11.73-.42.94 -.63.52-2.31 1.67-3.87 2.92 -.22-.33-.391-.68-.53-1.05C3.6 16.964 2.87 12.35 2.87 6.29v-.21L15.41 2 27.95 6.08v.1c0 2.19-.1 4.28-.32 6.063v.2h2.09v-.11c.2-1.88.31-3.87.31-6.063V4.59L15.38-.12 .73 4.59v1.56c0 6.375.734 11.188 2.3 14.74 .2.52.52 1.04.734 1.46 -1.255.94-2.31 1.67-2.31 1.67l.625 1.04 8.05-5.75c4.318-2.94 9.42-4.51 14.64-4.5h2.51c-.32 1.99-.84 3.76-1.47 5.22 -.74 1.67-1.68 3.13-2.93 4.6 -.95 1.14-2.1 2.08-3.35 2.92 -2.09 1.46-3.98 2.08-4.08 2.19 -.21-.11-1.984-.73-4.08-2.2 -1.359-.95-2.51-1.89-3.45-3.04 -.32-.32-.63-.74-.95-1.16l-.11-.11 -1.68 1.25 .1.1c.41.52.72.93 1.04 1.35 1.04 1.25 2.29 2.29 3.65 3.24 2.3 1.56 4.28 2.3 4.599 2.4 0 0 .42.1.52.2h.2c.2 0 .52-.21.52-.21 .41-.11 2.29-.84 4.59-2.41 1.33-.95 2.56-2.03 3.66-3.24 1.33-1.54 2.42-3.27 3.24-5.125 .84-1.94 1.41-3.98 1.67-6.068h1.78c.1-.42.2-1.16.2-1.16h-6.49c-2.41-.11-3.24 0-3.87-.42Z"/></svg>