<svg viewBox="0 0 32 32" xmlns="http://www.w3.org/2000/svg"><path d="M19.13 24.271c3.85-1.51 6.099-5.55 5.33-9.615 -.77-4.08-4.32-7.03-8.47-7.04 -4.145 0-7.708 2.95-8.473 7.02 -.77 4.07 1.47 8.12 5.343 9.62 .6.26 1.27-.18 1.28-.83v-7.2c0-1.03.82-1.85 1.84-1.85s1.84.82 1.84 1.84v7.19c.01.65.67 1.08 1.28.82Zm1.07 7.41c6.79-1.85 11.79-8.06 11.79-15.44 0-8.839-7.17-16-16-16 -8.84 0-16 7.161-16 16 0 7.38 4.995 13.593 11.792 15.43 .02.01.04.01.06.02l.07.02v-.01c2.34.47 3.15-2.98.84-3.593 -5.96-1.61-9.803-7.38-8.989-13.5C4.57 8.48 9.793 3.91 15.96 3.91c6.17 0 11.391 4.568 12.2 10.683 .81 6.12-3.03 11.89-8.979 13.5 -2.32.61-1.5 4.07.84 3.593h0l.07-.03Z"/></svg>