<svg viewBox="0 0 32 32" xmlns="http://www.w3.org/2000/svg"><path d="M.271 11.557c-.18.12-.271.31-.271.52v0c0 .08.021.17.05.25l3.068 6.93c.13.3.484.45.802.34 2-.72 8.94-2.98 13.44-1.76 0 0-4.51.26-8.583 3.45 -.23.18-.31.49-.2.76l1.375 3.1 .52 1.23c.125.29.52.33.7.06 .95-1.44 2.55-2.15 4.099-2.78 1.57-.65 3.224-1.12 4.9-1.41 1.79-.31 3.61-.38 5.427-.23 .29.03.57-.16.66-.45l1.38-4.427c.08-.26-.01-.55-.24-.71 -1.55-1.12-7.66-4.875-18.401-3.365 0 0 9.16-5.28 20.81.52 .35.17.78-.01.89-.39l1.21-3.901c.02-.06.03-.12.03-.19v-.03c-.01-.23-.125-.44-.33-.55 -1.47-.83-6.42-3.31-13.22-3.31C13.16 5.21 6.86 6.66.19 11.43Z"/></svg>