<svg viewBox="0 0 32 32" xmlns="http://www.w3.org/2000/svg"><path d="M20.911-.001H11.08C2.12-.001-.01 2.124-.01 11.08v9.82c0 8.96 2.125 11.08 11.089 11.08h9.823c8.96 0 11.08-2.13 11.08-11.09v-9.83c0-8.964-2.15-11.089-11.09-11.089Zm4.92 22.82H23.5c-.88-.001-1.16-.7-2.74-2.31 -1.375-1.34-1.99-1.51-2.33-1.51 -.48 0-.62.13-.62.79v2.09c0 .56-.18.9-1.67.9 -2.47 0-5.2-1.49-7.12-4.27 -2.891-4.07-3.69-7.12-3.69-7.75 0-.34.13-.66.78-.66h2.32c.58 0 .81.27 1.04.9 1.15 3.32 3.06 6.23 3.859 6.23 .29 0 .42-.14.42-.88v-3.44c-.09-1.59-.93-1.72-.93-2.29 0-.28.22-.55.58-.55h3.66c.49 0 .67.27.67.85v4.63c0 .5.22.67.35.67 .29 0 .54-.18 1.08-.72 1.67-1.875 2.87-4.766 2.87-4.766 .15-.34.42-.66 1.01-.66h2.32c.69 0 .85.359.69.859 -.3 1.35-3.15 5.37-3.15 5.37 -.25.4-.34.58 0 1.03 .25.33 1.06 1.04 1.6 1.67 .99 1.13 1.76 2.07 1.96 2.73 .22.65-.11.99-.77.99Z"/></svg>