<svg viewBox="0 0 32 32" xmlns="http://www.w3.org/2000/svg"><path d="M15.18.807C13.82 4.12 13.013 6.291 11.5 9.51c.92.97 2.05 2.12 3.89 3.4 -1.98-.82-3.33-1.64-4.339-2.484 -1.93 4.026-4.948 9.75-11.073 20.76 4.818-2.79 8.54-4.5 12.026-5.151 -.15-.65-.24-1.34-.23-2.07l0-.16c.07-3.09 1.68-5.46 3.583-5.3 1.9.16 3.38 2.79 3.3 5.88 -.02.57-.09 1.13-.2 1.65 3.44.67 7.13 2.38 11.88 5.125 -.94-1.73-1.78-3.29-2.58-4.76 -1.26-.98-2.57-2.25-5.24-3.62 1.83.47 3.151 1.03 4.177 1.64C18.57 9.31 17.92 7.3 15.13.76Zm15.34 27.672v-.83h-.32v-.12h.75v.11h-.32v.82h-.125Zm.56 0v-.95h.18l.22.66c.02.06.03.1.04.14 .01-.04.03-.09.05-.16l.22-.66h.17v.94h-.12v-.8l-.28.79h-.12l-.28-.81v.8h-.12Z"/></svg>