<svg viewBox="0 0 32 32" xmlns="http://www.w3.org/2000/svg"><path d="M19.625 24.927h5.83v-1.77h-5.84v1.76Zm-13.084 0h5.833v-1.77H6.541v1.76h0Zm-6.541 0h5.833v-1.77H0Zm13.079 0h5.84v-1.77h-5.85Zm13.08 0h5.83v-1.77h-5.84Zm0-2.3h5.83v-1.77h-5.84v1.78Zm-13.09 0h5.84v-1.77h-5.853v1.77Zm-13.083 0h5.84v-1.77H-.03v1.78Zm6.547 0h5.83v-1.77H6.52v1.78Zm13.1 0h5.83v-1.77h-5.87v1.78l.02-.02Zm0-2.3h5.83v-1.76h-5.87v1.77h.02Zm-13.08 0h5.81v-1.76H6.51v1.77h.02Zm-6.55 0H5.81v-1.76H-.05v1.77h.021Zm13.07 0h5.83v-1.76h-5.87v1.77h.02Zm13.09 0h5.78v-1.76h-5.84v1.77h.03Zm0-2.3h5.78v-1.78h-5.84v1.77h.03Zm-13.08 0h5.81v-1.78h-5.88v1.77h.04ZM0 18.02h5.8v-1.78H-.07v1.77h.041Zm19.634 0h5.84v-1.78h-5.91v1.77h.05Zm0-2.292h5.84v-1.78h-5.91v1.76h.05Zm-19.64 0h5.8v-1.76H-.08v1.76Zm13.077 0h5.839v-1.76h-5.9v1.76Zm13.07 0h5.78v-1.78h-5.84v1.77h.03ZM13 13.41h5.84v-1.77h-5.85Zm13.08 0h5.83v-1.77h-5.84Zm-13.09-2.3h5.84V9.33h-5.85Zm13.08 0h5.83V9.33h-5.84Zm0-2.31h5.83V7.03h-5.84Z"/></svg>