<svg viewBox="0 0 32 32" xmlns="http://www.w3.org/2000/svg"><path d="M16 32C7.12 32 0 24.776 0 16 0 7.12 7.12 0 16 0c8.875 0 16 7.12 16 16 0 8.776-7.125 16-16 16ZM16 2.68c-7.33 0-13.318 5.98-13.318 13.31 0 7.32 5.99 13.31 13.318 13.31 7.32 0 13.31-5.99 13.31-13.32s-5.99-13.313-13.318-13.313Zm7.849 14.85H12.286c-.516 0-.93-.42-.94-.92v-1.35c0-.53.41-.94.93-.94H23.93c.51 0 .92.41.92.93v1.33c-.1.51-.52.92-1.03.92Zm-3-5.17H9.182c-.51 0-.93-.41-.94-.92v-1.35c0-.42.41-.83.93-.83h11.661c.41 0 .82.41.82.82v1.33c0 .516-.42.92-.83.92Zm-11.67 7.23h11.66c.51 0 .92.41.92.92v1.33c0 .51-.42.92-.93.93H9.157c-.516-.11-.93-.52-.93-1.04v-1.35c-.01-.42.41-.83.92-.83Z"/></svg>