<svg viewBox="0 0 32 32" xmlns="http://www.w3.org/2000/svg"><path d="M24.29 15.54c1.96.13 3.72-1.22 4.11-3.15 -.48-.74-1.29-1.18-2.17-1.18 -2.28-.06-3.5 2.651-1.96 4.32ZM15.11 4.69l5.35-3.11 -1.71-.97 -7.4 4.28 .58.32 1.11.62 2.032-1.18Zm6.04-3.39c.08.02.16.1.18.18l2.48 7.59c.04.13-.01.27-.125.34 -1.97 1.15-2.92 3.48-2.317 5.693 .65 2.391 2.93 3.95 5.4 3.7 .13-.02.26.07.3.2l2.56 7.8c.04.13-.02.27-.125.34l-7.86 4.77c-.04.02-.09.03-.14.03 -.07.01-.14 0-.21-.05l-2.77-1.8c-.05-.04-.09-.08-.11-.13l-5.4-12.896L4.79 21.94c-.02.01-.04.02-.06.03 -.09.03-.19.02-.27-.03l-1.86-1.093c-.14-.08-.19-.25-.12-.39L10.43 4.7c.02-.06.07-.11.13-.14L18.52-.04c.08-.06.19-.06.29-.01Zm-8.33 5.1l-1.94-1.09L3.18 20.53l1.39.82 6.631-9.015c.06-.09.16-.14.27-.12 .1.01.19.07.23.17l7.22 17.296 1.93 1.25L12.79 6.37Zm13.4 10.55c-2.26 0-3.79-2.292-2.93-4.38 .86-2.083 3.56-2.62 5.15-1.03 .59.593.92 1.39.92 2.23 0 1.74-1.42 3.167-3.17 3.167Z"/></svg>