<svg viewBox="0 0 32 32" xmlns="http://www.w3.org/2000/svg"><path d="M17.406 28.349c-1.8.02-3.099-.55-3.19-2.12 -.04-.59-.03-1.22 0-1.59 .18-2.3 1.77-3.94 3.37-4.26 1.97-.4 3.276.5 3.276 3.07 0 1.74-.48 4.82-3.46 4.88h-.03ZM15.89 0C7.08 0-.001 7.063-.001 16.297c0 4.79 2.563 9.41 6.161 12.19 .69.53 1.521.49 2 .02 .39-.38.359-1.32-.38-1.97 -2.88-2.51-4.87-6.35-4.87-10.177C2.91 9.49 9.01 3.7 15.89 3.7c8.37 0 12.849 6.807 12.849 12.57 0 3.53-1.72 7.78-4.84 10.49 .02 0 .65-1.26.65-3.71 0-4.177-2.64-6.448-5.71-6.448 -2.22 0-3.56.79-4.46 1.53 0-1.7.06-4.87.06-4.87 0-2.099-.72-3.776-3.292-3.82 -1.484-.02-2.58.66-3.255 2.19 -.24.58-.17 1.22.33 1.5 .4.24 1.07.06 1.39-.38 .21-.28.33-.34.53-.32 .32.04.34.54.34.88 .01.25.25 3.87.11 13.151 -.01 2.54 2 5.48 6.818 5.48 2.07 0 3.67-.58 5.99-1.9 3.53-2 8.54-6.427 8.54-13.94C31.87 6.664 24.29-.07 15.85-.07Z"/></svg>