<svg viewBox="0 0 32 32" xmlns="http://www.w3.org/2000/svg"><path d="M0 0v33.333h33.333V0Zm19.33 11.73l4-4s2.93 1.734 1.19 3.46l-2.8 2.8c-1.6 1.46-3.87-.81-2.401-2.266Zm-1.07-4.41v4c0 2-3.333 2-3.333 0V5.721s3.333-.81 3.333 1.59ZM11.19 8.91l2.8 2.8c1.46 1.46-.81 3.734-2.266 2.266l-4-4s1.734-2.81 3.46-1.07Zm-3.87 6.13h4c2 0 2 3.333 0 3.333H5.72c0-.14-.81-3.333 1.59-3.333Zm6.667 6.53l-4 4s-2.94-1.74-1.2-3.47l2.79-2.81c1.59-1.47 3.87.8 2.401 2.26Zm4.26 6s-3.333.8-3.333-1.6v-4c0-2 3.333-2 3.333 0Zm-1.6-8.54c-1.34 0-2.401-1.07-2.401-2.401 0-1.34 1.06-2.401 2.401-2.401 1.33 0 2.401 1.06 2.401 2.401 0 1.33-1.07 2.401-2.401 2.401Zm5.468 5.33l-2.81-2.81c-1.47-1.47.8-3.74 2.26-2.27l4 4s-1.74 2.8-3.47 1.06Zm3.86-6.14h-4c-2 0-2-3.333 0-3.333h5.599c0 .13.8 3.333-1.6 3.333Z"/></svg>