<svg viewBox="0 0 32 32" xmlns="http://www.w3.org/2000/svg"><path d="M16.33 11.41c-3.09 0-5.58 2.49-5.58 5.57s2.49 5.57 5.57 5.57 5.57-2.5 5.57-5.58c0-3.09-2.5-5.58-5.58-5.58Zm3.91 3.53l-3.69 1.91c-.12.05-.24-.03-.24-.15v-4.16c0-.1.08-.17.16-.17 1.63.06 3.05.98 3.81 2.31 .04.08.01.18-.07.23ZM26.3 1.99H5.66c-2.04 0-3.69 1.65-3.69 3.681v20.63c0 2.03 1.65 3.68 3.681 3.68h20.63c2.03 0 3.68-1.65 3.68-3.69V5.65c0-2.04-1.65-3.69-3.68-3.69ZM13.63 7.284c0-.68.54-1.22 1.21-1.22h2.83c.67 0 1.21.54 1.21 1.21v.96c0 .11-.11.18-.21.15 -.77-.22-1.57-.32-2.39-.32 -.85 0-1.67.11-2.47.34 -.11.03-.22-.05-.22-.16v-.99Zm-5.28 2.31l.57-.58c.47-.48 1.24-.48 1.71 0l.48.48c.06.06.06.18-.02.25 -.39.28-.76.58-1.1.93 -.34.33-.65.7-.93 1.08 -.07.08-.19.09-.25.01l-.49-.49c-.48-.47-.48-1.24 0-1.72Zm7.95 15.3c-4.375 0-7.913-3.55-7.913-7.92s3.54-7.92 7.913-7.92c4.375 0 7.91 3.53 7.91 7.91 0 4.36-3.55 7.91-7.92 7.91Z"/></svg>