<svg viewBox="0 0 32 32" xmlns="http://www.w3.org/2000/svg"><path d="M30.208 11.62c-2.41-2.41-6.31-2.41-8.76 0l-9.803 9.801c-.6.6-.6 1.6 0 2.19 .6.59 1.6.59 2.2 0l9.8-9.81c1.19-1.2 3.14-1.2 4.349 0 1.2 1.2 1.2 3.15 0 4.35l-9.651 9.65c1.19 1.19 3.151 1.19 4.34 0l7.45-7.46c2.44-2.45 2.44-6.35.05-8.75Zm-3.31 3.25c-.6-.6-1.6-.6-2.2 0l-9.81 9.85c-1.2 1.19-3.15 1.19-4.349 0 -.6-.61-1.6-.61-2.2 0 -.61.59-.61 1.59 0 2.19 2.4 2.4 6.29 2.4 8.74 0l9.803-9.81c.59-.66.59-1.66 0-2.26Zm-3.26-9.802c-2.401-2.41-6.31-2.41-8.76-.001l-9.803 9.8c-.6.59-.6 1.59 0 2.19 .6.6 1.604.6 2.2 0l9.85-9.803c1.19-1.2 3.16-1.2 4.36 0 .6.6 1.6.6 2.19 0 .56-.65.56-1.593-.04-2.197Zm-3.31 3.25c-.6-.6-1.6-.6-2.2 0l-9.81 9.85c-1.2 1.19-3.16 1.19-4.36 0 -1.197-1.2-1.197-3.16 0-4.36l9.65-9.651c-1.2-1.2-3.15-1.2-4.35-.001l-7.5 7.453c-2.401 2.401-2.401 6.3 0 8.74 2.4 2.4 6.296 2.4 8.74 0l9.803-9.81c.59-.66.59-1.66 0-2.26Z"/></svg>