<svg viewBox="0 0 32 32" xmlns="http://www.w3.org/2000/svg"><path d="M31.438 3.19c-1.29 1.609-3.4 8.635-15.276 8.94 -5.68.15-8.48-6.31-8.48-6.31l-.45 10.359c-1.109-1.39-2.6-2.28-4.021-2.32 -.69-.04-1.37.17-1.917.58 -.885.66-1.307 1.79-1.297 3.04 .01 1.24.443 2.62 1.297 3.85 .84 1.24 1.96 2.11 3.09 2.52 .6.21 1.21.28 1.79.2 8.04 6.41 29.536 11.31 25.24-20.901Zm-20.235 8.6c1.68 0 3.08 1.25 3.49 2.92 .64-1.59 2.15-2.71 3.9-2.71 2.34 0 4.24 1.984 4.24 4.427 0 2.44-1.9 4.448-4.24 4.448 -2.05 0-3.75-1.53-4.151-3.526 -.59 1.3-1.81 2.21-3.25 2.21 -1.22 0-2.29-.67-2.94-1.67 -.11-.26-.24-.51-.39-.76 -.18-.48-.28-.98-.28-1.484 0-2.135 1.59-3.9 3.59-3.9Zm0 .47c-1.71 0-3.11 1.516-3.11 3.41 0 1.9 1.39 3.41 3.1 3.41 .28 0 .55-.06.82-.14 -1.21-.05-2.151-1.08-2.16-2.34 0-1.3 1-2.35 2.234-2.35 1.04 0 1.95.76 2.18 1.82 .01-.15.03-.28.03-.43 0-1.9-1.41-3.42-3.12-3.42Zm7.39.17c-2.11 0-3.82 1.78-3.82 4 0 2.224 1.7 4.01 3.81 4.01 .78 0 1.52-.25 2.13-.69 -.37.16-.76.25-1.15.25 -1.58 0-2.86-1.35-2.86-3.01 0-1.66 1.28-3 2.85-3 1.38 0 2.56 1.03 2.81 2.45v-.04c0-2.224-1.71-4-3.81-4ZM3.19 14.28c1.38.04 2.94 1.02 4.01 2.583 .81 1.17 1.21 2.48 1.229 3.63 .01 1.14-.375 2.12-1.13 2.68 -.75.56-1.745.64-2.776.27 -1.03-.37-2.083-1.18-2.891-2.349 -.81-1.18-1.22-2.49-1.23-3.65 -.01-1.15.375-2.115 1.125-2.69 .47-.36 1.068-.53 1.65-.5Zm15.58.32c-.74 0-1.35.63-1.34 1.41 0 .77.59 1.4 1.33 1.4 .74 0 1.33-.63 1.33-1.41 0-.79-.6-1.42-1.34-1.42Zm-7.53.29c-.49 0-.88.41-.89.92 0 .51.39.92.88.92 .48 0 .88-.42.88-.93s-.4-.93-.88-.93Zm-8.552.29c-.83 0-1.49.83-1.5 1.87 0 1.04.67 1.88 1.49 1.88s1.49-.85 1.49-1.88c0-1.04-.67-1.875-1.49-1.875Zm18.9 5.33s1.98.57 2.68 1.52c.69.94.25 1.52.07 2.73 -.27-.71-.55-1.26-.83-1.58 -1.08 1.67-4.14 2.474-8.24 2.07 1.84-.1 3.27-.39 4.401-.79 -1.87.12-4.29-.36-7.151-1.43 5.68 1.19 8.578.08 10.27-1.29 -.45-.61-1.21-1.28-1.21-1.28Z"/></svg>