<svg viewBox="0 0 32 32" xmlns="http://www.w3.org/2000/svg"><path d="M31.031 7.02c0-1.14-.18-2.271-.48-3.41 -.44-1.354-1.44-2.45-2.71-2.93 -2.63-.92-5.49-.92-8.12-.001 -1.34.46-2.35 1.55-2.71 2.92 -.61 2.21-.61 4.55 0 6.76 .43 1.35 1.44 2.44 2.7 2.92 1.29.47 2.67.7 4.06.65 1.39 0 2.75-.26 4.05-.66 1.33-.47 2.35-1.56 2.7-2.93 .3-1.09.47-2.224.47-3.36Zm-4.41 0c0 .52-.09 1.13-.27 1.61 -.22.69-.83 1.266-1.58 1.44 -.7.13-1.41.13-2.1 0 -.76-.13-1.38-.7-1.58-1.45 -.35-1.08-.35-2.24 0-3.32 .21-.7.82-1.266 1.57-1.45 .69-.13 1.4-.13 2.09 0 .76.13 1.38.69 1.57 1.44 .17.609.26 1.17.26 1.7ZM14.96 25.4c.609-2.22.609-4.552 0-6.78 -.44-1.36-1.45-2.45-2.708-2.93 -2.63-.92-5.49-.92-8.12 0 -1.339.46-2.36 1.56-2.708 2.92 -.615 2.21-.615 4.55 0 6.77 .43 1.35 1.43 2.44 2.708 2.92 2.63.92 5.49.92 8.12 0 1.3-.5 2.3-1.58 2.708-2.93Zm-3.94-3.37c0 .52-.09 1.13-.26 1.61 -.24.72-.84 1.26-1.58 1.44 -.7.13-1.41.13-2.099 0 -.76-.13-1.375-.7-1.57-1.45 -.35-1.08-.35-2.24 0-3.32 .23-.72.83-1.27 1.56-1.44 .69-.14 1.4-.14 2.099 0 .76.13 1.375.69 1.57 1.43 .17.56.26 1.13.26 1.7Zm0-15.07h4.41c0-1.13-.18-2.28-.48-3.359C14.51 2.24 13.5 1.15 12.24.67c-2.63-.92-5.49-.92-8.12 0 -1.354.526-2.36 1.615-2.714 2.96 -.609 2.21-.609 4.557 0 6.77 .43 1.35 1.443 2.44 2.7 2.92 1.31.47 2.667.65 4.06.65 1.39 0 2.75-.266 4.06-.66 1.33-.47 2.349-1.57 2.708-2.93 .04-.18.08-.4.17-.57l-4.15-1.93c-.05.26-.09.47-.18.74 -.22.69-.83 1.266-1.58 1.43 -.7.13-1.41.13-2.1 0 -.76-.13-1.375-.7-1.58-1.44 -.35-1.09-.35-2.25 0-3.33 .21-.7.82-1.266 1.57-1.45 .69-.13 1.4-.13 2.09 0 .766.13 1.38.69 1.57 1.44 .13.56.21 1.09.21 1.61Zm5.89 11.7c-.32 1.1-.48 2.25-.48 3.4v9.91h4.41v-9.96c0-.53.08-1.14.26-1.62 .21-.7.82-1.27 1.57-1.45 .69-.13 1.4-.13 2.09 0 .76.13 1.375.69 1.57 1.44 .34 1.07.34 2.24 0 3.31 -.22.69-.83 1.26-1.53 1.44 -.7.13-1.41.13-2.1 0 -.13-.05-.31-.09-.44-.14l1.48 4.1c1.39 0 2.75-.27 4.05-.66 1.33-.47 2.34-1.56 2.7-2.93 .6-2.22.6-4.552 0-6.77 -.44-1.36-1.44-2.45-2.71-2.93 -2.63-.92-5.49-.92-8.12 0 -1.36.34-2.36 1.44-2.8 2.79Z"/></svg>