<svg viewBox="0 0 32 32" xmlns="http://www.w3.org/2000/svg"><path d="M23.95 19.46v-7.04h1.625v5.6h2.85v1.42h-4.48ZM10.9 15.07l3.974-3.06c.375.3.74.609 1.12.91l-3.78 2.85 .81.71 3.76-2.958c.375.3.75.61 1.125.92 -1.25.99-2.51 1.97-3.78 2.95l.81.71 3.77-3.06 -.01-2.651h1.63v5.6h2.95v1.42h-4.49v-2.65c-1.33 1.01-2.66 2.03-3.974 3.05l-3.974-3.06c-.2.96-.87 1.81-1.75 2.25 -.38.19-.8.32-1.22.37 -.25.03-.49.02-.734.02H4.62v-7.04H7.52c.75.01 1.49.27 2.083.74 .6.47 1.03 1.16 1.234 1.9ZM6.21 13.84v4.28H7.48c.54-.03 1.04-.28 1.38-.7 .57-.72.66-1.71.24-2.53 -.266-.51-.74-.89-1.31-1.03 -.23-.06-.46-.05-.68-.05ZM15.75-.02h.44c2.51.031 4.98.66 7.2 1.828 2.17 1.14 4.052 2.766 5.5 4.745 1.95 2.667 3.03 5.88 3.08 9.18v.47c-.06 3.98-1.59 7.8-4.32 10.71 -2.97 3.16-7.11 4.99-11.45 5.04h-.484c-1.891-.03-3.76-.4-5.526-1.08 -2.151-.84-4.1-2.13-5.7-3.79 -1.72-1.78-3.01-3.91-3.771-6.25 -.49-1.51-.74-3.08-.766-4.66v-.48C0 12.65.93 9.69 2.6 7.16 4.17 4.79 6.34 2.87 8.88 1.6 11 .54 13.33-.04 15.71-.08Zm-.21 1.641C12.41 1.7 9.4 2.82 6.97 4.788 4.97 6.392 3.45 8.496 2.54 10.887c-1.318 3.5-1.224 7.38.25 10.823 1.02 2.35 2.65 4.38 4.729 5.89 1.88 1.375 4.073 2.26 6.38 2.59 1.94.28 3.94.16 5.83-.35 2.59-.71 4.93-2.12 6.76-4.09 1.82-1.97 3.06-4.41 3.57-7.05 .4-2.07.34-4.198-.17-6.24 -1.2-4.792-4.78-8.635-9.47-10.172 -1.59-.516-3.26-.76-4.93-.698Z"/></svg>