<svg viewBox="0 0 32 32" xmlns="http://www.w3.org/2000/svg"><path d="M12.45 0c-.22.005-.44.036-.65.089 -1.81.41-2.875 2.219-2.47 4.03l1.87 6.729L4.47 8.64C2.74 8.06.85 9.05.28 10.781c-.58 1.72.41 3.615 2.13 4.193l7.807 2.55 -5.42 6.07c-.53.62-.82 1.4-.83 2.21 .01 1.81 1.47 3.28 3.29 3.28 .9 0 1.8-.42 2.46-1.16l4.75-5.302 1.91 6.86c.38 1.45 1.7 2.46 3.2 2.46h0c.24 0 .57-.09.82-.17 1.76-.51 2.78-2.35 2.29-4.12l-1.84-6.69 6.6 2.16c.41.08.74.16 1.06.16 1.48 0 2.71-.91 3.125-2.31 .57-1.73-.42-3.62-2.14-4.2l-7.65-2.51 5.42-6.05c1.22-1.41 1.15-3.46-.25-4.688 -1.4-1.234-3.46-1.16-4.69.24L17.56 9.1l-1.91-6.91C15.21.75 13.84-.19 12.34-.12Z"/></svg>