<svg viewBox="0 0 32 32" xmlns="http://www.w3.org/2000/svg"><path d="M31.708 8.75L.28 10.859c-.16.01-.29.14-.29.3v.03l.969 9.18v0c0 .04 0 .09 0 .14 0 .16-.03.32-.07.46l-.453 1.45c-.06.16.03.24.193.17l2.411-1s0 0 0 0h0c.17-.07.359-.11.55-.11h.04l26.71 1.72c.17 0 .3-.13.32-.3l1.28-13.91v-.03c0-.16-.12-.266-.27-.266ZM6.04 13.65h.07c1.09 0 1.66.4 1.69 1.18v.06h-.69l-.01-.06c-.04-.35-.37-.516-1-.516h-.07c-.641.01-.96.2-.96.57v.1c.01.07.04.13.09.18 .07.06.15.11.25.14l1.604.54 -.01-.01 .01 0c.24.07.45.21.61.41 .14.18.23.41.23.66v.15c0 .38-.19.71-.484.92 -.32.24-.766.35-1.33.35 -.57 0-1-.125-1.32-.36v-.01c-.3-.21-.48-.55-.48-.94v-.1h.68v.06c0 .19.08.33.27.46 .19.12.47.18.83.18s.65-.07.84-.19c.19-.12.29-.27.29-.47v-.1c0-.23-.13-.37-.41-.46l-1.6-.54c-.26-.09-.47-.21-.6-.38 -.13-.16-.22-.37-.22-.59v-.12c0-.83.53-1.25 1.61-1.26Zm11.05.1h.68v1.93h2.12v-1.93h.69v4.62h-.7v-2.03h-2.11v2.02h-.7Zm-8.661.01h.66v1.26h.71v.68h-.72v1.18c0 .27.07.49.22.64l-.01 0c.12.12.27.2.44.22h.04v.64l-.07-.01h-.01c-.36-.03-.68-.18-.91-.42 -.28-.29-.41-.66-.41-1.11Zm15.88 0h.66v1.49c.2-.21.49-.32.84-.32 1 0 1.52.52 1.52 1.56v.38c0 .45-.14.83-.41 1.11 -.28.28-.65.41-1.12.41 -.47 0-.84-.14-1.11-.42 -.28-.29-.42-.67-.42-1.12v-3.12Zm-10.79 0h.66v1.49c.2-.21.49-.33.84-.33 1.01 0 1.51.53 1.52 1.56v.38c0 .45-.14.83-.41 1.11 -.28.28-.65.41-1.11.41 -.47 0-.84-.14-1.109-.42 -.27-.29-.42-.67-.42-1.12Zm-3.2 1.26h.65v1.82c0 .34.05.58.15.72 .09.125.27.19.516.19h.02c.25 0 .41-.07.516-.2 .09-.13.15-.38.15-.73h-.01v-1.83h.65v1.82c0 .55-.11.95-.31 1.2 -.2.22-.516.34-.95.35h-.16c-.44-.01-.75-.13-.95-.37 -.21-.24-.31-.65-.31-1.21Zm10.77 0h.65v1.82c0 .34.05.58.15.72 .09.125.26.19.51.19h.03c.24 0 .4-.07.5-.2 .09-.14.15-.38.15-.73h-.01v-1.83h.65v1.82c0 .55-.12.96-.31 1.2 -.2.22-.52.34-.95.35h-.17c-.44-.01-.75-.13-.95-.37 -.21-.24-.31-.65-.31-1.21v-1.82Zm-6.07.56c-.28 0-.5.06-.64.2s-.22.38-.22.7v.38c0 .27.08.49.22.64 .14.16.34.24.62.24 .27 0 .47-.08.625-.24 .15-.17.22-.375.22-.66v-.375c0-.34-.08-.57-.22-.71 -.15-.15-.36-.22-.64-.22Zm10.77 0c-.28 0-.5.06-.63.2 -.15.14-.22.38-.22.7v.38c0 .27.07.49.21.64 .14.16.35.24.625.24 .26 0 .47-.08.625-.24 .15-.17.22-.38.22-.66v-.375c0-.34-.08-.57-.22-.71 -.15-.15-.36-.22-.64-.22Z"/></svg>