<svg viewBox="0 0 32 32" xmlns="http://www.w3.org/2000/svg"><path d="M31.431 16.625v4.35c0 3.88-3.15 7.02-7.03 7.02 -3.87 0-7.03-3.12-7.03-6.96v-4.39l2.14 1 3.19-.95v4.413c0 .91.75 1.65 1.66 1.65 .91 0 1.67-.74 1.67-1.66v-4.5Zm-14.044-3.64l2.14 1 3.19-.95v-2.23c0-3.79-3.2-6.82-7.006-6.82 -3.8 0-7.006 3.01-7.006 6.76v10.15c0 .93-.75 1.66-1.67 1.66 -.92 0-1.67-.74-1.67-1.67V16.59H-.01v4.35c0 3.875 3.144 7.01 7.02 7.01 3.85 0 7.02-3.1 7.02-6.93V11c0-.92.75-1.67 1.66-1.67 .91 0 1.66.75 1.66 1.66Z"/></svg>