<svg viewBox="0 0 32 32" xmlns="http://www.w3.org/2000/svg"><path d="M21.099 0c-.19 0-.375.05-.54.15 -.5.29-1.34 1.13-2.33 2.35l-.21.25c-.27.32-.55.68-.83 1.057 -.96 1.27-1.85 2.59-2.69 3.959l-.03.04 -.07.09c-.82 1.33-1.577 2.7-2.276 4.1 -.56 1.109-1.05 2.24-1.468 3.407 -.12.33-.23.65-.34.96 -.09.26-.17.53-.24.79 -.18.62-.34 1.24-.46 1.86l-.02.08c-.16.74-.25 1.49-.32 2.25l-.01.07c-.37-.6-1.37-1.19-1.37-1.18 .71 1.03 1.26 2.06 1.33 3.07 -.38.07-.907-.04-1.516-.26 .63.58 1.109.74 1.29.78 -.58.03-1.19.43-1.8.89 .891-.37 1.609-.51 2.125-.4 -.875 2.5-1.7 5.03-2.46 7.58 .23-.07.41-.25.484-.48 .15-.5 1.12-3.715 2.641-7.96l.12-.37 .03-.1c.16-.45.32-.9.5-1.36l.11-.32 0-.01c.15-.43.31-.86.484-1.29l.07-.19 .06-.19 .05-.14 -.06.14 -.07.17 -.08.18c-.17.43-.33.86-.484 1.28l.14.27 .125-.02 .01-.04c.2-.56.4-1.1.6-1.63l0-.03c-.21.54-.42 1.09-.609 1.64l-.02.03 -.09.24c-.16.43-.32.875-.48 1.32l-.01.02 -.07.19c-.11.3-.21.57-.42 1.19 .34.16.62.58.89 1.05 -.03-.51-.26-.98-.62-1.32 1.72.07 3.21-.36 3.98-1.62 .06-.12.13-.24.18-.36 -.35.44-.79.63-1.61.58 1.2-.54 1.8-1.06 2.33-1.92 .13-.22.26-.44.37-.67 -1.06 1.07-2.27 1.38-3.56 1.15l-.06-.02c1.15-.15 2.68-1 3.67-2.07 .45-.49.87-1.07 1.25-1.74 .28-.51.55-1.07.8-1.68 .22-.55.43-1.13.64-1.76 -.34.17-.71.28-1.08.34 -.07.01-.13.02-.19.03l0-.01c.05-.01.12-.02.17-.03 .05-.01.12-.03.17-.04l-.18.03 -.18.02c1.07-.42 1.74-1.21 2.23-2.19 -.4.27-.83.45-1.29.56 -.08.01-.16.03-.23.04l-.06 0h0l.04-.01c.06-.02.13-.03.2-.05l.01-.01 -.02 0 -.26.04c.37-.16.68-.34.95-.54 .19-.16.38-.33.54-.53 .1-.13.2-.27.3-.42l.08-.15 .1-.21c.18-.37.34-.75.48-1.14l.04-.12c.03-.12.07-.22.09-.31 .03-.14.05-.24.07-.32 -.05.03-.09.06-.125.08 -.33.19-.88.37-1.33.45l-.14.01 -3.03.33 -.02.03 -.11.21 -.32.65c.1-.23.2-.45.31-.66l.1-.22c0-.02.01-.02.01-.04l-.12.01 -.09-.18c-.18.33-.34.67-.51 1.016l-.28.56c-.51 1.06-.99 2.13-1.46 3.2 -.5 1.15-.98 2.3-1.45 3.468l.11-.29c.42-1.07.86-2.13 1.32-3.19 .46-1.08.94-2.16 1.45-3.21l.27-.57c.16-.33.31-.65.47-.97l.02-.06c.25-.51.51-1 .77-1.49 .28-.516.56-1.03.84-1.521 .29-.5.58-1 .89-1.49l.05-.09c.29-.47.59-.93.9-1.359 .61-.891 1.29-1.74 2.032-2.54l-.08.08c-.22.23-.86.984-1.84 2.484 .93-.05 2.38-.24 3.55-.45 .35-1.96-.34-2.86-.34-2.86s-.593-.96-1.38-.969Zm-2.192 10.011c.88-.41 1.27-.78 1.65-1.31 .09-.15.2-.3.3-.46 .31-.49.61-1.016.88-1.548 .26-.52.49-1.02.67-1.479 .1-.26.19-.54.27-.81 .05-.21.09-.41.12-.6 -1.18.2-2.62.39-3.56.43 -.33.49-.63.99-.93 1.5 -.28.45-.57.96-.87 1.516 -.56 1.005-1.09 2.03-1.59 3.06l3.02-.33Zm4.83-7.079v.08h.2v.58h.09v-.59h.2v-.09Zm.62 0v.67h.08v-.54l.22.46h.06l.22-.47v.53h.08V2.9h-.12l-.23.46 -.24-.47ZM19 9.99l-.14.02 .13-.03Zm-.12.01h-.02Zm-3.66 1.65l-.15.3 -.18.38c-.43.92-.84 1.84-1.23 2.78 -.46 1.08-.91 2.16-1.33 3.26 -.2.5-.4 1.02-.6 1.55l-.02.02c.95-2.58 2.01-5.12 3.167-7.62l.17-.39Z"/></svg>