<svg viewBox="0 0 32 32" xmlns="http://www.w3.org/2000/svg"><path d="M7.193 13.36l-.641 2.61h1.31Zm5.18.1v1.58c.73-.01 1.27.04 1.641-.05 .359-.09.53-.3.53-.8 0-.45-.17-.625-.516-.7 -.35-.08-.9-.04-1.67-.06Zm7.09-.11l-.64 2.615h1.31ZM15.973-.02l-16 15.99L15.978 31.98l15.99-16Zm-8.81 11.86c.484 0 .8.15 1.03.39 .22.24.35.56.46.891l1.42 4.28s.17.37.18.76c.01.38-.14.79-.8.88 -.48-.08-.72-.21-.875-.47 -.17-.26-.26-.64-.41-1.21H6.12c-.2.62-.27 1-.391 1.24 -.14.25-.34.35-.83.42 -.68-.08-.85-.5-.85-.9 0-.41.17-.79.17-.79l1.35-4.21c.1-.33.23-.67.46-.92 .22-.26.56-.43 1.07-.43Zm12.25 0c.48 0 .8.15 1.03.391 .22.24.35.56.46.89l1.42 4.28s.17.37.19.75c.01.38-.15.79-.81.89 -.48-.08-.72-.21-.875-.47 -.17-.26-.26-.64-.42-1.22h-2.04c-.2.625-.26 1.01-.4 1.25s-.35.34-.83.42c-.68-.08-.85-.49-.85-.9 0-.41.17-.79.17-.79l1.35-4.21c.09-.32.22-.65.45-.9 .22-.26.56-.44 1.07-.44Zm4.45 0c.41 0 .64.15.77.391 .12.23.15.55.15.89v4.27c.28 0 1.63 0 1.63 0 .39 0 .7.02.92.14 .21.11.33.31.32.67 -.02.47-.25.68-.55.77 -.31.08-.69.05-1 .05h-2.36c-.5 0-.72-.22-.81-.59 -.09-.36-.06-.86-.06-1.42V13.09c-.02-.34.02-.67.16-.9 .14-.24.38-.39.76-.39Zm-11.527.14h1.46c.33 0 .68 0 1.02.11 .34.11.69.34 1.05.81 .36.5.46 1.24.29 1.88 -.17.64-.61 1.18-1.3 1.29 .24.46 1.06 1.7 1.06 1.7s.08.14.1.35c.01.2-.04.47-.34.71 -.52.19-.843.14-1.04.04 -.2-.11-.27-.26-.27-.26s-.76-1.29-1.22-2.18h-.86v1.78s.01.2-.09.4c-.11.2-.32.39-.78.38 -.44 0-.66-.21-.77-.42 -.11-.21-.1-.41-.1-.41V13.05c0-.45.01-.73.22-.91 .21-.18.64-.24 1.484-.24Z"/></svg>