<svg viewBox="0 0 32 32" xmlns="http://www.w3.org/2000/svg"><path d="M32 15.46v1.07c-.01.05-.03.11-.04.17 -.06.46-.09.93-.17 1.39 -.25 1.49-.79 2.91-1.57 4.19 -1.17 1.92-2.849 3.48-4.87 4.48 -1.18.58-2.45.96-3.75 1.12 -.3.03-.59.06-.87.09H9.48c-.06-.01-.11-.03-.17-.04 -1.13-.07-2.24-.34-3.27-.8 -2.27-1.01-3.96-2.65-5.06-4.89 -.49-1-.81-2.07-.94-3.17l-.1-.81v-1.05c.01-.06.02-.12.031-.18 .05-1 .26-1.97.61-2.901C1.53 11.61 3.2 9.75 5.57 8.55c1.21-.62 2.54-.97 3.9-1.03 .67-.04 1.34 0 2 .09 .06.01.14-.02.19-.07 .94-.984 2.05-1.81 3.276-2.42 1.17-.6 2.45-.98 3.766-1.13 .31-.04.625-.07.93-.1h.95c.06.01.13.02.18.02 .47.05.95.09 1.42.17 1.45.25 2.849.78 4.09 1.57 1.91 1.19 3.45 2.91 4.427 4.95 .58 1.19.95 2.49 1.1 3.81 .03.3.06.61.09.91ZM14.1 8.52c.02.02.02.04.03.04 .65.33 1.28.71 1.88 1.15 .03.02.13.01.17-.01 1.625-1.06 3.39-1.42 5.29-1.08 1.85.33 3.375 1.28 4.53 2.79 1.3 1.7 1.8 3.64 1.44 5.78 -.25 1.43-.82 2.73-1.78 3.81 -1.76 1.97-3.97 2.79-6.56 2.44 -1.6-.22-2.974-.92-4.12-2.09 -1.47-1.5-2.94-3-4.41-4.5 -.2-.21-.42-.36-.7-.4 -.484-.07-.96.19-1.16.64 -.19.39-.17.84.25 1.26 1.63 1.63 3.25 3.28 4.891 4.92 .28.28.58.54.9.77 1.19.88 2.54 1.37 4 1.56 1.14.15 2.28.12 3.4-.15 2.151-.49 3.93-1.61 5.33-3.33 1.14-1.41 1.875-3.1 2.099-4.9 .14-1.05.11-2.11-.09-3.151 -.33-1.7-1.04-3.21-2.17-4.5 -2.16-2.47-4.87-3.57-8.099-3.32 -1.24.1-2.44.46-3.53 1.05 -.6.31-1.16.69-1.68 1.13Zm-.79 17.18c-.05-.05-.09-.09-.14-.125 -.67-.65-1.34-1.29-2-1.94 -.11-.12-.266-.19-.43-.19 -.68.01-1.34.02-2-.13 -3.29-.76-5.19-4.39-3.979-7.58 .95-2.52 3.59-4.05 6.19-3.58 1.16.21 2.19.71 3.03 1.59 1.02 1.07 2.07 2.12 3.12 3.18 .23.24.5.35.83.3 .41-.07.75-.27.9-.69 .15-.42.07-.81-.23-1.125 -1.09-1.12-2.151-2.28-3.29-3.35 -2.2-2.09-4.786-2.71-7.66-1.82 -3.85 1.19-6.11 5.23-5.23 9.224 .8 3.64 3.93 6.18 7.58 6.19h3.06c.04 0 .09-.01.17-.01Z"/></svg>