<svg viewBox="0 0 32 32" xmlns="http://www.w3.org/2000/svg"><path d="M27.849 21.083v1.54h2.64c.54 0 1.46-.42 1.5-1.6v-.6c0-1-.78-1.6-1.5-1.6h-1.32v-.72h2.6v-1.57h-2.51c-.65 0-1.51.56-1.51 1.62v.54c0 1.05.85 1.59 1.51 1.59 1.81.01-.44 0 1.24 0v.75Zm-14.17-.38s1.41-.13 1.41-2.07 -1.72-2.12-1.72-2.12h-3.09v6.1h1.55v-1.48l1.34 1.47h2.292Zm-.6-1.25h-1.234v-1.4h1.24s.34.13.34.69c0 .55-.359.7-.359.7Zm5.84-2.89h-1.58c-1.125 0-1.51 1.08-1.51 1.59v4.47h1.57v-1.07h1.47v1.06h1.52v-4.48c0-1.31-1.12-1.6-1.51-1.6Zm-.03 3.26h-1.49v-1.48s0-.34.49-.34h.54c.43 0 .44.33.44.33v1.47Zm2.24-3.27h1.64v6.06h-1.65Zm3.94 4.5v-4.5h-1.63v6.06h3.83v-1.57ZM.53 22.613h6.38s-1.22-5.91 2.82-8.297c.88-.46 3.68-2.151 8.276 1.44 .14-.125.28-.23.28-.23s-4.21-4.448-8.88-3.96c-2.36.22-5.245 2.49-6.95 5.49 -1.7 3-1.94 5.53-1.94 5.53Zm-.001 0h6.38s-1.22-5.91 2.82-8.297c.88-.46 3.68-2.151 8.276 1.44 .14-.125.28-.23.28-.23s-4.21-4.448-8.88-3.96c-2.36.22-5.245 2.49-6.95 5.49 -1.7 3-1.94 5.53-1.94 5.53Zm0 0h6.38s-1.22-5.91 2.82-8.297c.88-.46 3.68-2.151 8.276 1.44 .14-.125.28-.23.28-.23s-4.21-4.448-8.88-3.96c-2.359.22-5.255 2.49-6.953 5.49 -1.693 3-1.93 5.53-1.93 5.53Zm13.29-10.55l.03-.58c-.08-.05-.28-.15-.79-.3l-.04.56c.266.09.52.19.78.31Zm-.77 1.81l-.04.54c.266.01.53.04.79.1l.03-.54c-.28-.07-.55-.1-.81-.12Zm-2.99-2.68h.07l-.17-.53c-.25 0-.51.01-.78.04l.15.51c.23-.03.46-.04.7-.04Zm.38 3.15l.18.58c.23-.12.46-.23.7-.3l-.18-.57c-.28.08-.51.17-.72.27Zm-3.67-2.26l-.37-.6c-.21.11-.42.23-.63.37l.375.59c.2-.14.41-.266.62-.375Zm1.65 3.85l.391.62c.13-.22.29-.42.47-.61l-.37-.59c-.19.18-.36.375-.5.57Zm-1.18 2.76l.65.55c.03-.34.08-.68.16-1.01l-.58-.49c-.11.31-.18.63-.25.94ZM3.71 14.62l-.58-.54c-.21.21-.42.42-.6.641l.62.56c.17-.24.35-.47.552-.68Zm-2.45 3.82l-.93-.36c-.16.37-.323.79-.406 1.03l.927.35c.1-.3.27-.72.4-1.04Zm5.86 2.41c.01.45.05.82.09 1.08l.97.36c-.08-.34-.15-.71-.2-1.12Z"/></svg>