<svg viewBox="0 0 32 32" xmlns="http://www.w3.org/2000/svg"><path d="M6.92 12.989c0-.66 0-1.31 0-1.97v-1.97c0-.08.02-.12.07-.15 .63-.45 1.33-.68 2.122-.62 .69.05 1.26.38 1.561 1.2 .18.49.22 1.01.22 1.53 0 .48-.04.96-.19 1.42 -.32.98-1.04 1.37-1.99 1.32 -.65-.03-1.22-.28-1.75-.65 -.05-.05-.08-.09-.08-.16Zm8.6.81c.25.1.516.11.78.08 .64-.07 1.21-.32 1.73-.7 .05-.04.07-.08.07-.14 -.01-.22 0-.44 0-.66 0-.23-.01-.45 0-.67 0-.08-.03-.12-.1-.13 -.39-.05-.78-.13-1.17-.17 -.39-.04-.78-.02-1.16.1 -.38.12-.65.34-.77.72 -.09.3-.09.6 0 .9 .08.3.28.51.57.62Zm16.467-7.58v19.55c0 1.47-1.2 2.66-2.67 2.66H2.65c-1.48 0-2.667-1.2-2.667-2.67V6.2c0-1.48 1.19-2.667 2.66-2.667H29.31c1.47 0 2.66 1.19 2.66 2.667Zm-11.53 1.32c.02.09.05.18.08.28 .91 2.25 1.82 4.51 2.75 6.772 .07.19.09.35.01.55 -.16.34-.28.7-.44 1.03 -.15.3-.38.52-.71.62 -.24.06-.48.07-.72.05 -.12-.02-.24-.04-.35-.05 -.16-.02-.24.06-.24.22 -.01.15-.01.31 0 .46 0 .25.08.37.34.41 .26.04.52.08.78.09 .79.01 1.42-.3 1.83-1 .16-.28.31-.57.42-.86 1.1-2.79 2.19-5.58 3.28-8.361 .03-.09.06-.17.07-.26 .02-.14-.04-.2-.18-.21 -.32-.01-.62 0-.93 0 -.18 0-.3.07-.36.23 -.03.06-.05.12-.08.18l-1.62 4.65c-.12.33-.24.67-.37 1.03 -.03-.05-.04-.08-.05-.11 -.6-1.67-1.2-3.33-1.8-4.99 -.1-.27-.2-.53-.3-.79 -.05-.14-.15-.23-.3-.23 -.36-.01-.72-.02-1.07-.01 -.13 0-.19.08-.16.2Zm-7.01 5.67c.09.65.42 1.15 1 1.47 .55.3 1.15.34 1.76.25 .7-.11 1.32-.41 1.87-.87 .02-.02.04-.04.07-.06 .02.17.05.34.08.51 .02.14.11.23.25.24 .25 0 .5 0 .76 0 .12-.01.21-.09.22-.22 0-.05 0-.09 0-.13V9.46c0-.2-.02-.4-.04-.6 -.09-.6-.35-1.1-.89-1.42 -.32-.19-.66-.28-1.02-.33 -.17-.03-.34-.04-.51-.07h-.56c-.05 0-.09.01-.14.01 -.46.02-.91.07-1.35.19 -.29.07-.56.17-.84.27 -.17.05-.25.17-.25.36 0 .15-.01.31 0 .46 0 .22.1.28.31.22 .36-.1.72-.2 1.09-.27 .57-.11 1.15-.15 1.72-.07 .3.04.58.13.78.38 .17.22.23.48.24.76 .01.38.01.77.01 1.15 0 .02-.01.03-.02.06 -.03 0-.05 0-.07-.01 -.49-.12-.99-.2-1.49-.23 -.53-.03-1.05 0-1.55.17 -.6.21-1.09.57-1.37 1.15 -.23.46-.26.94-.19 1.43ZM5.46 7.69v9.73c0 .04 0 .09 0 .13 .01.13.09.22.22.23 .32 0 .65 0 .984 0 .13 0 .22-.1.22-.23 0-.05 0-.1 0-.14v-3.372c.05.03.07.06.1.08 .83.69 1.78.92 2.83.71 .95-.19 1.6-.78 2.03-1.63 .32-.65.46-1.34.48-2.06 .02-.8-.06-1.58-.38-2.317 -.4-.92-1.05-1.52-2.04-1.72 -.15-.04-.31-.05-.46-.07h-.39c-.07.01-.14.01-.2.02 -.65.07-1.24.32-1.766.7 -.12.07-.22.16-.33.25 -.01-.03-.02-.05-.03-.07 -.03-.13-.04-.26-.07-.39 -.04-.22-.14-.31-.36-.32h-.54c-.33-.01-.39.05-.39.37Zm21.93 12.89c-.15-.04-.29 0-.43.05 -2.439 1.02-4.98 1.67-7.6 1.98 -.81.09-1.62.15-2.43.17 -1.48.03-2.96-.05-4.43-.24 -.99-.14-1.98-.32-2.95-.55 -2.06-.5-4.039-1.21-5.93-2.16 -.49-.25-.97-.52-1.45-.78 -.22-.12-.345-.09-.46.11v.09c.06.08.12.18.2.26 2 1.78 4.25 3.13 6.77 4.05 1.21.43 2.46.76 3.73.97 .77.12 1.55.21 2.34.25 .16 0 .33.01.5.02 .03 0 .07.01.11.01h.98c.03-.01.07-.02.11-.02 .82-.03 1.65-.1 2.47-.23 1.189-.18 2.35-.45 3.49-.82 1.64-.54 3.2-1.25 4.63-2.23 .15-.11.31-.22.44-.35 .23-.25.12-.58-.19-.67Zm2.8-1.54c-.05-.24-.23-.33-.43-.39 -.32-.11-.65-.16-.98-.19 -.62-.05-1.23-.03-1.83.08 -.67.12-1.3.33-1.87.72 -.07.04-.14.1-.18.16 -.04.05-.04.12-.03.18 .01.07.09.08.16.08 .03 0 .06 0 .1-.01l1.08-.12c.53-.05 1.06-.09 1.6-.05 .22.01.45.06.66.12 .23.06.34.24.35.48 .01.37-.07.72-.17 1.08 -.2.71-.47 1.41-.74 2.1 -.02.04-.04.09-.05.13 -.03.13.05.22.18.19 .07-.02.16-.07.22-.12 .2-.2.41-.4.58-.63 .59-.77.94-1.65 1.15-2.59 .03-.17.06-.34.09-.51 .01-.27.01-.54.01-.81Z"/></svg>