<svg viewBox="0 0 32 32" xmlns="http://www.w3.org/2000/svg"><path d="M5.84 11.047c-.38.44-.98.8-1.58.75 -.08-.61.21-1.26.56-1.66 .375-.46 1.03-.79 1.56-.82 .06.63-.19 1.25-.56 1.71Zm.54.87c-.87-.06-1.62.49-2.027.49 -.43 0-1.052-.48-1.74-.46 -.891.01-1.724.52-2.177 1.33 -.95 1.62-.25 4.04.661 5.369 .44.65.97 1.375 1.67 1.35 .661-.03.927-.44 1.72-.44 .8 0 1.03.43 1.74.42 .72-.02 1.181-.66 1.62-1.32 .5-.75.71-1.48.72-1.52 -.02-.02-1.41-.56-1.42-2.17 -.02-1.36 1.093-2 1.14-2.04 -.62-.94-1.6-1.04-1.94-1.061Zm5.01-1.84v9.855h1.51v-3.37h2.09c1.91 0 3.25-1.33 3.25-3.25 0-1.93-1.32-3.24-3.21-3.24Zm1.51 1.29h1.74c1.31 0 2.06.7 2.06 1.95 0 1.24-.76 1.95-2.08 1.95h-1.74Zm8.109 8.636c.95 0 1.83-.49 2.23-1.26h.03v1.18h1.4v-4.91c0-1.42-1.13-2.34-2.86-2.34 -1.61 0-2.8.93-2.84 2.208h1.35c.11-.609.66-1.01 1.43-1.01 .92 0 1.44.43 1.44 1.24v.54l-1.89.11c-1.77.1-2.71.83-2.71 2.09 0 1.27.98 2.12 2.38 2.12Zm.41-1.17c-.81 0-1.33-.4-1.33-.99 0-.62.49-.99 1.43-1.05l1.68-.11v.55c0 .92-.78 1.57-1.81 1.57Zm5.125 3.77c1.47 0 2.16-.58 2.77-2.3l2.65-7.54h-1.54l-1.79 5.817h-.04l-1.79-5.82h-1.59l2.56 7.17 -.14.43c-.24.73-.61 1.02-1.28 1.02 -.12 0-.35-.02-.45-.03v1.18c.08.02.46.03.57.03Z"/></svg>