<svg viewBox="0 0 32 32" xmlns="http://www.w3.org/2000/svg"><path d="M2.9 24.281c2.4-1.55 5.23-4.22 4.161-7.35 -.59-1.71-1.391-3.18-1.5-5.016 -.1-1.58.14-3.14.68-4.615C8.398 1.51 14.811-1.24 20.62.51 25.99 2.12 29.7 8.36 27.44 13.8c-1.29 3.14-1.87 5.56 1 8.005 .77.66 2.66 1.65 2.657 2.83 0 1.54-3.03-.33-3.37-.6 .38.67 4.18 4.64 1.76 4.91 -2.224.26-4.192-2.86-5.54-4.19 -2.26-2.25-1.86 2.71-1.87 3.74 0 1.61-1.157 4.9-3.22 2.76 -1.7-1.77-1.04-4.58-2.24-6.54 -1.29-2.16-3.44 2.14-3.98 2.933 -.61.88-3.62 5.12-4.8 2.85 -.97-1.84.57-4.72 1.34-6.375 -.29.6-2.25 1.49-2.83 1.78 -1.25.68-2.66 1-4.072.93 -3.021-.22-.71-1.83.51-2.61Z"/></svg>