<svg viewBox="0 0 32 32" xmlns="http://www.w3.org/2000/svg"><path d="M29.25 7.026c-.97-1.45-2.59-3.11-4.21-4.177C21.67.53 17.76-.29 14.31.07c-3.6.385-6.677 1.74-9.21 4C2.75 6.16 1.19 8.72.51 11.169c-.69 2.44-.6 4.708-.35 6.41 .26 1.72 1.12 3.9 1.12 3.9 .17.41.42.58.54.65 .63.34 1.66.04 2.458-.85 .03-.06.05-.13.03-.2 -.22-.86-.31-1.5-.38-1.99 -.18-.99-.26-2.625-.15-4.15 .06-.83.22-1.71.5-2.625C4.82 10.48 5.96 8.59 7.74 7c1.92-1.71 4.385-2.76 6.72-3.026 .82-.1 2.38-.2 4.26.27 .4.09 2.125.54 3.96 1.79 1.34.91 2.42 2.03 3.16 3.151 .76 1.06 1.57 2.85 1.82 4.16 .33 1.49.33 3.07.09 4.61 -.31 1.54-.85 3.04-1.69 4.37 -.59 1.02-1.79 2.375-3.21 3.39 -1.29.9-2.75 1.55-4.25 1.91 -.76.18-1.53.29-2.31.32 -.7.02-1.62 0-2.26-.11 -.97-.16-1.17-.41-1.39-.74 0 0-.16-.24-.2-.88 .01-5.875.01-4.31.01-7.36 0-.87-.03-1.65-.03-2.36 .04-1.17.14-1.97.97-2.83 .59-.641 1.44-1.03 2.37-1.03 .28 0 1.25.01 2.09.72 .91.76 1.06 1.8 1.1 2.083 .2 1.63-.87 2.84-1.29 3.15 -.52.38-.98.57-1.29.68 -.67.21-1.39.28-2.042.24 -.1-.01-.19.06-.21.16l-.22 1.14c-.22.86.266 1.18.54 1.29 .89.27 1.68.39 2.62.31 1.44-.1 2.86-.67 4.073-1.8 1.02-.98 1.6-2.19 1.81-3.54 .19-1.5-.07-3.11-.75-4.47 -.75-1.51-2.05-2.76-3.75-3.45 -1.73-.68-3.1-.71-4.859-.26l-.02.01c-1.16.39-2.13.88-3.151 1.93 -.7.72-1.28 1.609-1.625 2.6 -.35 1-.44 1.75-.46 2.91 -.03.85.02 1.66.02 2.41v4.93c0 1.57-.06 1.85 0 2.66 .02.53.1 1.14.33 1.8 .24.71.75 1.45 1.09 1.8 .49.52 1.11.93 1.72 1.19 1.4.625 3.3.72 4.84.66 1.02-.04 2.04-.18 3.05-.42 2.01-.48 3.94-1.35 5.64-2.56 1.82-1.29 3.4-3.04 4.28-4.526 1.12-1.77 1.84-3.75 2.224-5.8 .33-2.05.32-4.135-.14-6.15 -.36-1.87-1.32-3.917-2.43-5.568Z"/></svg>