<svg viewBox="0 0 32 32" xmlns="http://www.w3.org/2000/svg"><path d="M11.73 9.6c-2.125 0-3.86 1.6-3.86 3.606 0 1.98 1.73 3.6 3.85 3.6 2.125 0 3.856-1.63 3.856-3.61 0-2-1.74-3.606-3.856-3.606Zm8.96 0c-2.125 0-3.86 1.6-3.86 3.606 0 1.98 1.73 3.6 3.85 3.6 2.14 0 3.85-1.63 3.85-3.61 0-2-1.72-3.606-3.86-3.606Zm9.78 5.62l-.375.26V3.08c0-1.712-1.29-3.106-2.875-3.106H4.77c-1.59 0-2.88 1.39-2.88 3.106V15.48c-.13-.09-.27-.19-.4-.27 -.95-.67-1.569.25-1 1.1 1.14 1.41 3.319 3.14 6.644 4.5 -3.519 11.98 8.587 13.89 8.393 7.756 0-.05.01-3.54.01-6.04 .31.06.58.14.85.19 0 2.48.01 5.8.01 5.84 -.2 6.14 11.91 4.23 8.39-7.75 3.31-1.36 5.5-3.09 6.64-4.5 .56-.87-.06-1.77-1.01-1.12Zm-1.91 1.2c-4.31 2.33-8.02 1.94-10.04 1.85 -1.49-.06-2.04.56-2.11 1.55 -.65-.49-1.17-.97-1.27-1.07 -.32-.34-.86-.5-1.7-.49 -1.99.06-5.61.46-9.837-1.75V4.48c0-2.181.55-2.86 2.53-2.86h19.85c1.89 0 2.55.806 2.55 2.85v11.91Z"/></svg>