<svg viewBox="0 0 32 32" xmlns="http://www.w3.org/2000/svg"><path d="M17.052 21.287l5.16-2.99V12.33l-5.17 2.97Zm.48.28l4.67 2.69v-5.4l-4.68 2.69Zm4.39-10.29V5.88l-4.68 2.692 4.67 2.69Zm-5.17-2.42l-5.167 2.98 5.167 2.984 5.16-2.984Zm-.5-.29L11.57 5.87v5.391Zm6.43 4.04v5.385l4.66-2.7 -4.67-2.7Zm-6.22 8.656v-5.97l-5.167-2.98v5.959ZM10.8 12.59l-4.67 2.69 4.66 2.69Zm.49 6.25v5.39l4.67-2.7ZM26.64.14H5.27C2.34.14-.04 2.49-.04 5.37v21.11c0 2.88 2.385 5.23 5.3 5.23h14.63l-3.95-9.48 -2.87 5.98H5.25c-.96 0-1.771-.81-1.771-1.75V5.34c0-.95.81-1.75 1.771-1.75h21.37c.95 0 1.77.8 1.77 1.74v21.11c0 .94-.82 1.74-1.78 1.74h-4.64l1.45 3.48H26.6c2.91 0 5.3-2.36 5.3-5.24V5.3c0-2.88-2.4-5.24-5.31-5.24Z"/></svg>