<svg viewBox="0 0 32 32" xmlns="http://www.w3.org/2000/svg"><path d="M8.735 25.036c-2.48 0-4.5-.45-6.131-2.14l2.55-2.55c.84.83 2.32 1.13 3.62 1.13 1.58 0 2.317-.53 2.317-1.46 0-.39-.08-.71-.32-.96 -.2-.21-.54-.37-1.06-.44l-1.95-.28c-1.42-.2-2.521-.68-3.24-1.43 -.74-.78-1.12-1.86-1.12-3.25 -.05-2.96 2.17-5.109 5.86-5.109 2.317 0 4.06.54 5.448 1.93l-2.5 2.49c-1.03-1.03-2.36-.96-3.07-.96 -1.39 0-1.96.79-1.96 1.5 0 .2.06.5.32.74 .19.2.53.4 1.1.48l1.95.27c1.45.2 2.5.65 3.183 1.33 .859.83 1.19 2.04 1.19 3.54 0 3.29-2.833 5.08-6.24 5.08Zm19.014-21.5c-2.18-1.63-4.59-2.72-7.63-3.22v14.5l4.349-6.052h4.74l-5.459 7.625s1.26 2.01 2.02 3.2c.78 1.19 1.51 1.52 2.62 1.52h.76v3.74h-1.17c-2.42 0-3.87-.45-4.959-2.1 -.68-1.09-2.9-4.59-2.9-4.59v6.66h-3.98V-.03h-.17C10.83-.03 7.29 1.21 4.22 3.5 -.21 6.81-.04 11.22-.04 15.95c-.001 4.73-.18 9.15 4.251 12.46 3.07 2.3 6.61 3.53 11.74 3.53s8.68-1.24 11.74-3.54c4.42-3.32 4.25-7.74 4.25-12.47s.17-9.145-4.26-12.46Z"/></svg>