<svg viewBox="0 0 32 32" xmlns="http://www.w3.org/2000/svg"><path d="M31.38 16.99c-.81-1.84-2.35-3.3-4.12-4.2 -3.15-1.59-7.05-1.59-10.18.04 -2.18 1.11-3.99 3.115-4.51 5.54 -.43 1.79-.05 3.71.9 5.28 1.41 2.34 3.97 3.84 6.63 4.32 1.92.39 3.91.16 5.78-.375 1.125.43 2.125 1.13 3.21 1.66 -.29-.95-.59-1.875-.91-2.81 1.22-.87 2.32-1.95 2.99-3.31 .99-1.89 1.05-4.23.17-6.177ZM18.151 4.37C14.821 2.5 10.68 2.21 7.1 3.51c-2.36.84-4.48 2.42-5.797 4.56C.1 10-.35 12.41.23 14.62 .8 17.07 2.51 19.13 4.58 20.5c-.41 1.13-.79 2.26-1.141 3.4 1.29-.68 2.599-1.4 3.901-2.08 1.55.5 3.21.74 4.88.68 -.45-1.26-.55-2.62-.34-3.94 .29-1.83 1.29-3.5 2.65-4.74 2.3-2.16 5.56-3.07 8.66-2.85 -.59-2.85-2.59-5.25-5.1-6.641Zm2.31 13.31c-.29.87-1.55 1.13-2.16.46 -.68-.61-.42-1.9.47-2.17 .97-.42 2.1.71 1.68 1.69Zm6.39.125c-.34.78-1.53.96-2.1.35 -.29-.26-.36-.65-.46-.98 .13-.61.55-1.25 1.24-1.28 .93-.13 1.78 1.03 1.29 1.88Zm-9.55-8.61c.01 1.28-1.7 2.07-2.66 1.2 -1-.72-.72-2.45.45-2.81 1.04-.42 2.28.45 2.2 1.58Zm-8.078.32c-.23 1.11-1.72 1.65-2.6.9 -1.01-.72-.73-2.484.45-2.85 1.16-.45 2.49.734 2.135 1.93Z"/></svg>