<svg viewBox="0 0 32 32" xmlns="http://www.w3.org/2000/svg"><path d="M16.219 7.23s-.47-.92-.5-1.04c-.1-.48-.2-.95-.29-1.42l.31-.57 .68-1.04 1-.79 .25-.1 2.41-.917 .21-.22 -.26-.375 -.35-.2 -.64-.17 -1.59-.17 -1.24.01 -.85.187 -.75-.29L13.65 0 12.27-.04l-.7-.031 -1.17.43 -1.76 2.04 -.22.78 -.125.69 -.6 1.29 -.38 1.22 -.19 1.32v.28l-.92 1.38 -.51 1.04v1.47l.16 3.05 .28 1.09 .56 1 .72.66 .31 1.29 1.19 2.64 1.41 1.7 .09.09 .5 2.54 -1.73 3.14 -.48.72 -.44.28 -.7-.1 -.41.15 -.47-.04 -.32.25 -.593-.16 -.6-.1 -.5.31 -.125.53 .34-.32 .53-.1v.5l.84-.19 .47.02 .81.19s.72.03.84.03c.125 0 .88.15.88.15h.56l.28.15 .4-.07 .41.25h.62l.125-.42v-.22l.41.18 .31.31 .18.34 .03-.42 -.22-.5s-.16-.29-.29-.29c-.125 0-.593-.16-.593-.16l-.35.09 -.35-.19 -.375.15 -.32-.16 -.125-.32 -.22-.1 .18-.57 .56-1.3 .75-1.26 .66-.79 .24-.32s.31-.48.31-.6c0-.13.06-1.45.06-1.45l-.41-.85 -.2-.7 3.64.88h.21l3.1 2.23 .44.56 .15 2.17 -.07.5 -.22.41 -.25.25 -.1.44 -.13.21 -.6.09 -.57-.19 -.35-.1h-.66l-.32.25 -.16.34 .03.37 .18-.35 .22-.23 .18-.04 -.04.31 .22.18 .53-.16h.24l.03.34 .75.08 .532-.09 .4.125 .6.15 .21-.04 .18-.13 .19.59 .08-.64 -.16-.76 -.35-.29 .125-.47 -.29-.54 .03-1.99 1.56 1.85 2.07 1.63s1.41.5 1.53.5c.125 0 1.09-.125 1.09-.125l.625-1.05 -.47-1.42 .18-.47 -1.01-1.33 -2.13-2.17 -.52-1.71 .03-1.17 -.48-1.23 -.532-.98 .31-.98 -.26-1.42 -1.08-2.42 .39-.07 -.67-1.16 .43-.14 -.76-1.24 .31-.17 -.57-.94 .18-.11 -.69-.56 .24-.14 -1.8-1.26Z"/></svg>