<svg viewBox="0 0 32 32" xmlns="http://www.w3.org/2000/svg"><path d="M29.35 4.361h-7.77c-2.68 0-4.994 1.85-5.58 4.46 -.59-2.62-2.91-4.461-5.58-4.461H2.65C1.17 4.36-.02 5.55-.02 7.02v13.65c0 1.47 1.19 2.66 2.66 2.66h4.98c5.67 0 7.37 1.35 8.18 4.16 .03.15.28.15.33 0 .81-2.811 2.51-4.17 8.183-4.17h4.98c1.47 0 2.66-1.2 2.66-2.67V7c0-1.47-1.19-2.67-2.65-2.68ZM13.44 19.105c0 .1-.09.19-.2.19H4.33c-.11 0-.2-.09-.2-.2v-1.28c0-.11.08-.2.19-.2h8.911c.1 0 .19.08.19.19v1.27Zm0-3.39c0 .1-.09.19-.2.19H4.33c-.11 0-.2-.09-.2-.2v-1.28c0-.11.08-.2.19-.2h8.911c.1 0 .19.08.19.19v1.27Zm0-3.39c0 .1-.09.19-.2.19H4.33c-.11 0-.2-.09-.2-.2v-1.28c0-.11.08-.2.19-.2h8.911c.1 0 .19.08.19.19v1.27Zm14.4 6.76c0 .1-.09.19-.2.19h-8.91c-.11 0-.2-.09-.2-.2v-1.28c0-.11.08-.2.19-.2h8.91c.1 0 .19.08.19.19v1.27Zm0-3.39c0 .1-.09.19-.2.19h-8.91c-.11 0-.2-.09-.2-.2V14.4c0-.11.08-.2.19-.2h8.91c.1 0 .19.08.19.19v1.27Zm0-3.39c0 .1-.09.19-.2.19h-8.91c-.11 0-.2-.09-.2-.2v-1.27c0-.11.08-.2.19-.2h8.91c.1 0 .19.08.19.19v1.26Z"/></svg>