<svg viewBox="0 0 32 32" xmlns="http://www.w3.org/2000/svg"><path d="M16 0c-2 0-3.667 1.287-4.33 2.89 -.24.59-.35 1.24-.32 1.88 -.44-.48-.97-.855-1.56-1.109 -.62-.26-1.29-.37-1.96-.35 -1.19.03-2.32.52-3.16 1.36 -1.42 1.41-1.69 3.5-1.02 5.1 .23.57.62 1.08 1.08 1.53 -.64-.02-1.28.09-1.87.33 -1.609.66-2.9 2.333-2.9 4.32 0 1.99 1.287 3.66 2.89 4.32 .577.24 1.22.33 1.88.31 -.48.44-.87.97-1.11 1.55 -.67 1.6-.4 3.69 1.01 5.1 1.41 1.41 3.5 1.68 5.1 1.01 .577-.24 1.1-.64 1.55-1.11 -.03.65.07 1.3.31 1.88 .66 1.6 2.333 2.89 4.32 2.89 1.99 0 3.66-1.29 4.32-2.9 .24-.6.34-1.24.31-1.89 .45.47.97.86 1.55 1.1 1.6.66 3.69.39 5.1-1.02 1.41-1.42 1.68-3.5 1.01-5.11 -.26-.59-.64-1.12-1.11-1.56 .64.03 1.28-.08 1.88-.32 1.6-.67 2.89-2.34 2.89-4.33 0-2-1.29-3.667-2.9-4.33 -.6-.24-1.24-.35-1.89-.32 .47-.45.86-.98 1.1-1.56 .66-1.609.39-3.699-1.02-5.109 -.843-.839-1.968-1.33-3.16-1.36 -.67-.03-1.34.08-1.96.34 -.58.24-1.11.63-1.56 1.1 .03-.65-.08-1.287-.32-1.89 -.67-1.609-2.34-2.9-4.33-2.9Zm-.06 2.151c2.28-.06 3.46 2.7 1.84 4.32v5.193l3.66-3.68c0-2.26 2.73-3.4 4.32-1.8 1.59 1.59.46 4.32-1.8 4.32l-3.68 3.667h5.19c1.59-1.593 4.32-.47 4.32 1.79s-2.73 3.391-4.33 1.79h-5.2l3.67 3.66c2.26 0 3.39 2.73 1.79 4.32 -1.6 1.59-4.33.46-4.33-1.8l-3.67-3.68v5.19c1.593 1.59.46 4.32-1.8 4.32 -2.26 0-3.391-2.73-1.8-4.33v-5.2L10.45 23.9c0 2.26-2.74 3.39-4.33 1.79 -1.6-1.6-.47-4.33 1.79-4.33l3.67-3.67H6.39c-1.6 1.593-4.33.46-4.33-1.8 -.001-2.26 2.72-3.391 4.32-1.8h5.193L7.89 10.42c-2.26 0-3.4-2.74-1.8-4.33 1.59-1.6 4.32-.47 4.32 1.79l3.667 3.67V6.36c-1.577-1.577-.49-4.29 1.74-4.33Z"/></svg>