<svg viewBox="0 0 32 32" xmlns="http://www.w3.org/2000/svg"><path d="M31.416 15.984C31.066-.42 9.271-6.53.875 8.84c.37.27.88.63 1.25.89 -.62 1.29-1.06 2.676-1.31 4.093 -.17.91-.244 1.83-.244 2.76 0 8.5 6.91 15.4 15.421 15.4 8.51 0 15.41-6.9 15.41-15.41Zm-27.04 2.74c-.21 1.66-.08 2.183-.08 2.38l-.375.13c-.14-.28-.49-1.24-.66-2.55C2.85 13.72 6.23 9.26 11.4 8.41c4.724-.7 9.25 2.24 10.303 6.349l-.375.13c-.12-.12-.31-.45-1.03-1.18C14.591 8 5.62 10.61 4.349 18.698Zm14.67 2.77c-.79 1.13-2.08 1.81-3.46 1.8 -2.33 0-4.22-1.88-4.208-4.21 0-2.2 1.7-4.03 3.901-4.19 1.359-.06 2.62.67 3.22 1.86 .65 1.3.41 2.88-.61 3.92 .38.27.76.53 1.14.79Zm8.77.16c-2.224 5.04-6.81 7.68-11.692 7.61 -9.381-.47-12.11-11.29-5.839-15.19l.27.27c-.11.14-.48.43-1.06 1.57 -.68 1.38-.9 2.77-.81 3.64 .48 7.561 11.08 9.1 14.729 1.61C28.05 10.91 15.73.49 4.8 8.46l-.25-.25C7.42 3.7 13.05 1.69 18.41 3.03 26.61 5.1 31.01 13.64 27.79 21.61Z"/></svg>