<svg viewBox="0 0 32 32" xmlns="http://www.w3.org/2000/svg"><path d="M16.01 6.49c-3.885 0-7.17.9-9.328 2.81 -.07-.12-.11-.22-.19-.34 -.23-.37-.44-.78-1.104-1.19 -.42-.26-.87-.44-1.35-.516 -.21-.03-.43-.03-.63 0l.13-.02c-1.214 0-1.93.72-2.385 1.35C.69 9.2.39 9.9.2 10.68c-.38 1.54-.385 3.53 1.08 5.026 .766.78 1.66 1.15 2.484 1.37 .15.04.29.05.44.08 .53 2.52 2.104 4.65 4.2 5.83v0c1.24.69 2.417 1.01 3.29 1.34 1.234.47 2.53 1 4.052 1.13l.07 0h.19c1.74 0 3.06-.71 4.2-1.15 .875-.34 2.05-.65 3.3-1.35 .57-.33 1.11-.72 1.59-1.18 1.31-1.24 2.22-2.84 2.625-4.599 1.11-.19 2.14-.72 2.92-1.54 1.46-1.484 1.45-3.48 1.07-5.03 -.2-.78-.49-1.48-.95-2.099 -.46-.63-1.18-1.354-2.39-1.354l.13.01c-.21-.03-.43-.03-.63 0 -.48.07-.94.25-1.35.516 -.67.41-.88.82-1.11 1.18 -.08.12-.12.21-.19.33 -2.16-1.91-5.44-2.81-9.32-2.81Zm.03 1.82c4.74 0 8.01 1.42 9.41 3.96 .83-.33 1.45-2.53 2.14-2.95 .56-.35.88-.26.88-.26 1.27 0 2.57 3.72.95 5.38 -.86.875-2.45 1.12-3.23 1.05 -.07 2.542-1.55 4.833-3.5 5.932 -1 .56-2.07.85-3.07 1.23 -1.23.46-2.38 1.01-3.55 1.01h-.125c-1.17-.1-2.32-.55-3.55-1.02 -1-.38-2.07-.69-3.07-1.24 -1.95-1.1-3.43-3.4-3.49-5.927 -.79.06-2.385-.18-3.245-1.06 -1.625-1.66-.32-5.38.948-5.38 0 0 .32-.09.88.26 .69.42 1.31 2.64 2.16 2.95 1.391-2.55 4.667-3.97 9.417-3.97Zm-5.17 3.109c-2.276-.05-4.146 1.79-4.146 4.068 0 2.28 1.87 4.115 4.146 4.07 5.32-.1 5.32-8.05 0-8.15Zm10.33 0c-5.427 0-5.427 8.14 0 8.14s5.427-8.15 0-8.15Zm-9.76 2.28c2.349.06 2.349 3.55 0 3.61 -1.19 0-2.042-1.12-1.75-2.26 .31.77 1.46.54 1.46-.3 0-.41-.32-.75-.73-.76 .3-.21.65-.32 1.016-.31Zm9.188 0c2.34.06 2.34 3.55 0 3.61 -1.19 0-2.05-1.12-1.76-2.26 .22.55.97.641 1.32.14 .34-.49.01-1.17-.59-1.2 .29-.21.65-.32 1.01-.32Zm-5.282 6.198c-.32.02-.5.19-.5.63 0 .28.18.48.5.48 .22 0 .266-.33.04-.375 -.04-.01-.18-.06-.18-.19 0-.12 0-.17.24-.2 .1-.02.15-.15.125-.24 -.04-.1-.125-.14-.24-.125Zm1.36 0c-.12-.01-.21.02-.24.125 -.04.09.02.22.125.24 .24.03.24.07.24.19 0 .125-.15.17-.18.18 -.22.05-.19.375.04.375 .32 0 .51-.21.51-.49 0-.45-.19-.61-.51-.64Z"/></svg>