<svg viewBox="0 0 32 32" xmlns="http://www.w3.org/2000/svg"><path d="M23.635 4.62l-.72 3.734c-.09.4-.6.82-1.07.82H15.2c-.75 0-1.29.52-1.29 1.26v.81c0 .76.54 1.28 1.29 1.28h5.641c.52 0 1.04.58.92 1.141l-.72 3.67c-.07.32-.42.84-1.05.84H15.38c-.84 0-1.09.12-1.66.8 -.57.69-5.609 6.75-5.609 6.75 -.05.06-.1.04-.1-.03V4.51c0-.48.41-1.05 1.03-1.05h13.69c.5 0 .97.47.84 1.09Zm.6 14.64c.19-.78 2.32-11.72 3.04-15.182Zm.4-19.26H7.56C5.2 0 4.51 1.771 4.51 2.885V30c0 1.25.67 1.72 1.05 1.875 .38.15 1.42.28 2.05-.44 0 0 8.057-9.36 8.193-9.49 .21-.21.21-.21.42-.21h5.21c2.19 0 2.54-1.57 2.78-2.49 .19-.76 2.33-11.7 3.03-15.177 .54-2.646-.15-4.083-2.65-4.083Z"/></svg>