<svg viewBox="0 0 32 32" xmlns="http://www.w3.org/2000/svg"><path d="M18.505 16.907c-.532 0 .1.26.8.375 .18-.14.36-.3.52-.45 -.44.09-.88.12-1.33.06Zm2.85-.71c.3-.44.53-.92.62-1.42 -.08.359-.27.66-.44.97 -1 .625-.1-.359 0-.75 -1.07 1.34-.15.79-.19 1.18Zm1.04-2.73c.06-.97-.19-.67-.27-.3 .09.05.17.66.26.29ZM16.49.41c.26.05.59.09.56.16 .3-.07.36-.136-.58-.17Zm.56.16l-.21.04 .18-.02V.56Zm8.82 13.25c.02.85-.28 1.26-.52 2l-.47.24c-.375.71.03.46-.23 1.03 -.59.52-1.79 1.63-2.17 1.73 -.27 0 .18-.34.25-.46 -.79.53-.65.8-1.83 1.13l-.04-.09c-2.97 1.39-7.067-1.36-7-5.12 -.05.22-.1.17-.17.27 -.17-1.96.89-3.817 2.667-4.667 1.63-.83 3.6-.57 4.97.641 -.87-1.125-2.22-1.77-3.64-1.74 -1.58.01-3.04 1.01-3.54 2.093 -.81.5-.891 1.95-1.24 2.215 -.48 3.46.88 4.95 3.17 6.71 .35.24.1.28.16.46 -.79-.37-1.48-.9-2.05-1.55 .3.44.62.88 1.06 1.21 -.74-.24-1.7-1.73-1.98-1.8 1.24 2.21 5.041 3.89 7.01 3.067 -1.06.07-2.11-.06-3.11-.375 -.44-.22-1.03-.69-.94-.76 2.62 1.1 5.651.67 7.869-1.12 .58-.47 1.24-1.26 1.42-1.27 -.27.42.05.21-.16.58 .58-.96-.27-.4.6-1.66l.32.43c-.12-.8.98-1.76.88-3.02 .25-.4.26.4 0 1.29 .38-.984.1-1.14.19-1.95 .1.27.24.56.3.84 -.24-.94.26-1.6.37-2.14 -.12-.07-.38.4-.43-.71 0-.49.13-.27.18-.37 -.11-.07-.35-.43-.52-1.15 .1-.18.29.43.45.45 -.11-.57-.28-1-.28-1.45 -.46-.91-.16.13-.532-.41 -.46-1.452.4-.34.45-.984 .71 1.02 1.12 2.615 1.3 3.28 -.14-.81-.38-1.6-.657-2.349 .21.09-.35-1.66.28-.5 -.83-2.495-2.58-4.583-4.88-5.848 .24.22.56.51.44.55 -1-.6-.83-.641-.98-.891 -.82-.34-.88.02-1.42 0C19.87.82 19.58.91 18.17.38l.06.3C17.2.34 17.02.81 15.92.68c-.07-.06.36-.19.7-.24 -.984.136-.94-.187-1.91.04 .22-.18.47-.28.73-.43 -.8.05-1.923.469-1.58.09 -1.32.6-3.651 1.428-4.96 2.65l-.05-.3c-.6.71-2.615 2.14-2.771 3.07l-.18.04c-.31.53-.51 1.13-.76 1.68 -.4.69-.6.26-.532.36 -.81 1.63-1.197 3-1.55 4.13 .24.36 0 2.199.09 3.67 -.4 7.28 5.12 14.36 11.14 16 .89.3 2.19.3 3.32.33 -1.33-.37-1.5-.2-2.776-.66 -.94-.43-1.14-.94-1.79-1.51l.26.46c-1.3-.46-.76-.56-1.82-.9l.28-.36c-.42-.05-1.109-.71-1.3-1.09l-.46.01c-.55-.67-.84-1.17-.82-1.55l-.15.26C8.85 26.14 7 23.89 7.96 24.41c-.18-.17-.42-.28-.67-.74l.18-.23c-.47-.59-.86-1.36-.83-1.6 .27.31.42.4.6.44 -1.18-2.9-1.24-.17-2.135-2.94l.19-.03c-.13-.22-.24-.46-.35-.68l.07-.81c-.84-.99-.24-4.14-.12-5.87 .09-.73.7-1.468 1.17-2.64l-.28-.06C6.32 8.3 8.91 5.42 10.1 5.56c.57-.74-.12 0-.24-.19 1.28-1.319 1.68-.94 2.53-1.18 .93-.54-.8.21-.359-.21 1.6-.4 1.13-.94 3.22-1.129 .21.129-.52.18-.7.34 1.33-.66 4.19-.49 6.07.36 2.17 1.02 4.61 4.011 4.7 6.839l.1.02c-.06 1.13.17 2.42-.23 3.615l.26-.57Zm-13.18 3.81l-.07.37c.34.46.63.968 1.06 1.34 -.32-.625-.56-.89-1-1.74Zm.82-.05c-.19-.2-.3-.46-.42-.7 .1.42.34.8.57 1.17l-.17-.48Zm14.58-3.18l-.1.19c-.14 1.01-.46 2.01-.93 2.94 .53-.98.86-2.06 1-3.15ZM16.555.13c.36-.14.88-.07 1.26-.17 -.49.041-.99.068-1.47.136l.19.02ZM3.97 6.82c.08.76-.58 1.06.14.55 .4-.89-.15-.24-.14-.56Zm-.85 3.54c.16-.53.2-.83.26-1.12 -.47.58-.23.7-.27 1.1Z"/></svg>