<svg viewBox="0 0 32 32" xmlns="http://www.w3.org/2000/svg"><path d="M7.6 12.78v7.23c0 .96-.76 1.73-1.72 1.73s-1.89-.78-1.89-1.74v-7.24c0-.95.92-1.72 1.88-1.72 .944 0 1.71.77 1.71 1.71Zm.67 9.81c0 1.02.82 1.85 1.85 1.85h1.24l.01 3.81c0 2.3 3.45 2.28 3.45 0v-3.82h2.32v3.81c0 2.29 3.46 2.3 3.46 0v-3.82h1.26c1.01 0 1.83-.83 1.83-1.85V11.35H8.23Zm15.5-11.819H8.2c0-2.68 1.6-5 3.97-6.212l-1.2-2.206c-.18-.31.26-.5.41-.238l1.21 2.22c2.18-.97 4.68-.919 6.76 0l1.2-2.219c.15-.27.59-.07.41.238l-1.2 2.2c2.35 1.21 3.95 3.53 3.95 6.21ZM13.1 7.3c0-.36-.29-.66-.66-.66 -.36 0-.64.3-.64.65 0 .35.28.65.63.65 .36 0 .65-.3.65-.66Zm7.08 0c0-.36-.29-.66-.64-.66 -.37 0-.66.3-.66.65 0 .35.28.65.65.65 .35 0 .63-.3.63-.66Zm5.92 3.75c-.95 0-1.72.75-1.72 1.71v7.23c0 .96.77 1.73 1.71 1.73 .96 0 1.88-.78 1.88-1.74v-7.24c0-.97-.93-1.72-1.89-1.72Z"/></svg>