<svg viewBox="0 0 32 32" xmlns="http://www.w3.org/2000/svg"><path d="M10.313 16.005c1.02.69 2.21 1.34 3.609 1.92 2.38.99 3.97 1.84 4.802 2.58 .81.72 1.24 1.66 1.24 2.8 -.01 1.94-1.37 2.92-4.11 2.92 -2.635 0-5-.84-7.099-2.5L6.26 29.29c1.89 1.01 3.43 1.67 4.63 1.99l.18.04 -2.4.55c-1.7.39-3.39-.68-3.78-2.36L.06 8.63C-.34 6.93.72 5.25 2.42 4.84l5.83-1.35c-.22.2-.42.42-.59.64l-.03.02C6.62 5.42 6.12 6.97 6.12 8.83c0 2.8 1.375 5.15 4.1 7.06l.05.03Zm13.812.09c-1.12-.9-2.55-1.7-4.323-2.38 -2.65-1.05-4.359-1.88-5.161-2.5 -.8-.62-1.22-1.31-1.22-2.08 0-1.95 1.21-2.93 3.68-2.93 2.71 0 4.85.66 6.38 1.96l2.02-5.44c-1.47-.75-2.98-1.29-4.55-1.63l-.08-.02c-.35-.09-.71-.17-1.09-.22l3.5-.807c1.7-.38 3.38.68 3.78 2.36l4.83 20.859c.38 1.7-.68 3.401-2.375 3.78l-3.98.92c1.09-1.41 1.65-3.12 1.65-5.17 0-2.099-.59-3.88-1.74-5.36 -.38-.47-.83-.91-1.35-1.35l-.06-.04Z"/></svg>