<svg viewBox="0 0 32 32" xmlns="http://www.w3.org/2000/svg"><path d="M22.25 23.959c.51-.37 1.69.43 2.64 1.77 .94 1.34 1.28 2.724.76 3.08 -.52.36-1.7-.44-2.64-1.78 -.94-1.35-1.29-2.724-.77-3.09Zm-12.39 0c-.52-.37-1.7.43-2.64 1.77 -.95 1.34-1.287 2.724-.77 3.08 .51.36 1.69-.44 2.635-1.78 .94-1.35 1.28-2.724.76-3.09Zm6.18 2.1c-.64 0-1.14 1.32-1.14 2.968 0 1.64.5 2.96 1.14 2.96 .63 0 1.14-1.33 1.14-2.97 0-1.64-.51-2.968-1.15-2.968ZM22.23 8.03c.51.36 1.69-.44 2.64-1.78 .94-1.35 1.28-2.73.76-3.09 -.52-.37-1.7.43-2.64 1.77 -.94 1.34-1.29 2.724-.77 3.08ZM9.84 8.03c-.52.36-1.7-.44-2.64-1.78 -.95-1.35-1.287-2.73-.77-3.09 .51-.37 1.69.43 2.635 1.77 .94 1.34 1.28 2.724.76 3.08Zm6.18-2.11c-.64 0-1.14-1.33-1.14-2.97 0-1.641.5-2.969 1.14-2.969 .63 0 1.14 1.328 1.14 2.969 0 1.64-.51 2.96-1.15 2.96ZM.59 12.07h2.2v3.1h2.484v-3.1h2.2v8.32h-2.21v-3.31H2.78v3.3H.57Zm8.733 0h5.381v1.84h-3.18v1.3h2.71v1.843h-2.72v1.49h3.3v1.843h-5.51Zm7.12 0h2.2v6.48h3.15V20.4h-5.36V12.07Zm6.79 0h2.28l1.3 3.45 .45 1.36h.05l.46-1.36 1.25-3.46h2.27v8.328h-2.05v-2.47c0-.22.01-.45.03-.71 .02-.26.04-.52.07-.79 .02-.28.05-.532.08-.79 .03-.27.06-.49.08-.7h-.06l-.7 1.94 -1.16 2.808h-.83l-1.16-2.808 -.67-1.95h-.06l.08.69c.03.25.06.51.09.78 .02.27.04.53.06.78 .02.25.03.48.03.7v2.46h-2.03Z"/></svg>