<svg viewBox="0 0 32 32" xmlns="http://www.w3.org/2000/svg"><path d="M15.94 23.74l10.609-4.54 -9.396 9.65c-.17-1.75-.58-3.48-1.22-5.13Zm16.052-8.92c-6.81-.32-13.61.55-20.12 2.56 1.36 1.42 2.5 3.05 3.38 4.82 5.38-3 12.86-6.833 16.735-7.38v-.03Zm-16.765.37l.27-.09c2.05-.61 4.06-1.36 6.03-2.21 1.98-.78 3.86-1.84 5.54-3.16 1.79-1.43 3.14-3.33 3.88-5.5 .16-.355.28-.73.35-1.12C28.59 6.78 17.9 7.17 17.9 7.17l2.52-2.32C13.07 4.87 5.92 7.19-.04 11.49 4 11.92 7.8 13.61 10.81 16.33c1.44-.45 2.92-.77 4.38-1.18Z"/></svg>