<svg viewBox="0 0 32 32" xmlns="http://www.w3.org/2000/svg"><path d="M.11 18.34v-.97c.547.17 1.031.26 1.45.26 .58 0 .86-.16.86-.47 0-.11-.05-.22-.125-.29 -.09-.09-.31-.2-.67-.35 -.64-.27-1.057-.49-1.249-.68 -.26-.25-.39-.577-.38-.93 0-.48.187-.85.552-1.1 .359-.26.839-.38 1.416-.38 .32 0 .78.05 1.396.17v.923c-.41-.17-.83-.27-1.26-.27 -.55 0-.82.14-.82.44 0 .11.05.2.16.27 .08.05.33.17.74.36 .593.26.98.48 1.18.68 .23.23.36.56.35.89 .01.5-.25.96-.69 1.2 -.38.22-.855.33-1.448.33 -.51 0-1.016-.06-1.52-.18Zm4.41-4.8H5.87v4.86H4.52Zm2.6 4.87v-4.87h3.48v.88H8.42v1.1h1.89v.8h-1.9v1.15h2.23v.93Zm4.437 0v-4.87h1.76l1.22 3.11 1.25-3.12h1.67v4.86h-1.3v-3.45l-1.43 3.49h-.85l-1.4-3.5v3.44h-.97Zm7.161 0v-4.87h3.48v.88h-2.18v1.1h1.89v.8H20v1.15h2.23v.93Zm4.44 0v-4.87h1.57l1.67 3.26v-3.26h.95v4.86H25.8l-1.72-3.31v3.3Zm5.16-.08v-.97c.54.17 1.02.26 1.45.26 .58 0 .86-.16.86-.47 0-.11-.05-.22-.12-.29 -.09-.09-.32-.2-.68-.35 -.64-.26-1.06-.49-1.25-.68 -.26-.25-.4-.59-.38-.94 0-.48.18-.85.55-1.093 .35-.26.83-.38 1.41-.38 .33 0 .75.05 1.27.15l.12.02v.923c-.4-.17-.83-.27-1.26-.27 -.55 0-.82.14-.82.44 0 .11.05.2.16.27 .08.05.33.17.76.36 .58.26.98.48 1.18.68 .23.23.36.56.34.89 0 .53-.23.93-.68 1.2 -.39.22-.86.33-1.46.33 -.51 0-1.02-.07-1.52-.18Z"/></svg>