<svg viewBox="0 0 32 32" xmlns="http://www.w3.org/2000/svg"><path d="M4.55 26.3l1.3-6.52h2.12l-1.3 6.51Zm6.41-2.14h1.34l-.35-2.39Zm-2.99 2.13l3.21-6.52h2.09l1.31 6.51h-1.97l-.12-.78h-2.1l-.34.77Zm8.589 0l.72-4.901H15.42l.31-1.65h5.7l-.32 1.64h-1.78l-.72 4.901Zm7.13-2.14h1.35l-.35-2.39Zm-2.968 2.13l3.2-6.52h2.09l1.31 6.51h-1.99l-.1-.78h-2.1l-.34.77Zm11.26-13.88h-10c-.37 1.82-1.64 3.35-4.17 4.41 .29.87 1.27 1.67 2.28 1.67h5.42c.82 0 1.48-.7 1.75-1.26h-5.51c-.34-.06-.36-.34-.02-.36h5.41c.69 0 1.33-.6 1.7-1.25h-6.31c-.32-.06-.32-.32 0-.37h6.35c.64 0 1.22-.75 1.46-1.25H23.36c-.35-.05-.35-.37 0-.38h7.099c.55 0 1.09-.61 1.46-1.23Zm-32 0h9.99c.359 1.82 1.63 3.35 4.15 4.41 -.29.87-1.266 1.67-2.29 1.67H6.41c-.83 0-1.484-.7-1.75-1.26h5.51c.33-.06.35-.34.01-.36H4.75c-.7 0-1.34-.6-1.693-1.25h6.31c.31-.06.31-.32 0-.37H3.01c-.641 0-1.224-.75-1.47-1.25h6.97c.34-.05.34-.37 0-.38H1.4C.85 13.61.3 13-.07 12.38ZM12.74 6.91c.37.31.78.59 1.22.77 .375-.734.89-1.37 1.5-1.94 -1 .125-1.95.52-2.73 1.16Zm-1.77 3.635h2.224c.04-.88.25-1.74.609-2.55 -.484-.22-.94-.5-1.34-.84 -.91.9-1.44 2.109-1.5 3.385Zm4.83-2.09v2.08h-2.23c.02-.84.2-1.67.55-2.43 .53.19 1.109.31 1.67.33Zm3.41-1.55c-.36.31-.78.58-1.23.77 -.39-.73-.9-1.375-1.51-1.93 1 .11 1.95.516 2.73 1.15Zm1.76 3.635h-2.22c-.04-.88-.24-1.75-.6-2.55 .47-.23.92-.5 1.31-.84 .91.891 1.45 2.1 1.5 3.385ZM16.15 8.45v2.08h2.21c0-.85-.21-1.65-.56-2.43 -.54.19-1.1.31-1.67.33Zm-3.43 6.09c.37-.3.79-.609 1.22-.76 .39.74.891 1.35 1.5 1.91 -1-.125-1.95-.53-2.73-1.16Zm-1.77-3.65h2.224c.05.92.24 1.734.609 2.56 -.484.21-.94.49-1.34.83 -.91-.92-1.44-2.12-1.5-3.401Zm4.83 2.093v-2.1h-2.23c.01.84.2 1.67.55 2.42 .53-.2 1.109-.32 1.67-.33Zm3.41 1.55c-.37-.32-.78-.58-1.23-.76 -.39.71-.9 1.37-1.51 1.91 1-.125 1.94-.53 2.73-1.16Zm1.76-3.65h-2.22c-.04.88-.23 1.76-.6 2.56 .47.21.9.484 1.31.83 .91-.91 1.44-2.12 1.5-3.401ZM16.13 12.98v-2.1h2.21c0 .84-.21 1.66-.56 2.42 -.54-.2-1.1-.31-1.67-.33Zm-.36-7.031c-.62.5-1.13 1.13-1.5 1.83 .47.16.99.29 1.5.29Zm.36 0c.59.484 1.13 1.125 1.48 1.83 -.48.18-.98.28-1.49.29Zm-.36 9.526c-.625-.51-1.14-1.14-1.5-1.85 .47-.18.99-.28 1.5-.28Zm.36.01c.59-.5 1.13-1.17 1.48-1.87 -.48-.17-.98-.25-1.49-.26Z"/></svg>