<svg viewBox="0 0 32 32" xmlns="http://www.w3.org/2000/svg"><path d="M16.01 23.15L32 13.18v2.7L16.01 25.89 -.001 15.874v-2.7Zm0-12.51c-3.609 0-6.79 1.81-8.599 4.62 .15-.15.23-.24.38-.34 4.49-3.74 10.97-2.891 14.51 1.81l2.34-1.5c-1.86-2.724-5.052-4.61-8.65-4.61Zm0 4.625c-1.875 0-3.635.91-4.73 2.42 .82-.61 1.82-.94 2.849-.93 1.734 0 3.276.88 4.3 2.38l2.24-1.4c-.97-1.55-2.71-2.5-4.67-2.5ZM5.19 11.2c6.58-5.193 15.901-3.79 20.87 3.13l.03.04 2.43-1.5C25.76 8.64 21.04 6.08 15.99 6.08c-5.198 0-9.823 2.66-12.526 6.78 .484-.56 1.09-1.21 1.71-1.68Z"/></svg>