<svg viewBox="0 0 32 32" xmlns="http://www.w3.org/2000/svg"><path d="M24.25 0c-.69 0-.99.43-1.24.88 0 0-9.943 17.63-10.28 18.208 .02.03 6.557 12.03 6.557 12.03 .22.41.58.88 1.29.88h4.6c.28 0 .5-.11.62-.3 .11-.21.11-.47-.02-.72l-6.51-11.89c-.01-.01-.01-.03 0-.04L29.48.98c.125-.26.125-.53 0-.72 -.12-.2-.34-.3-.61-.3ZM4.86 6.318c-.29 0-.52.09-.63.29 -.12.19-.11.45.02.7l3.12 5.39c0 .01 0 .02 0 .03l-4.91 8.656c-.13.25-.13.51 0 .7 .11.19.31.31.59.31H7.66c.69 0 1.02-.47 1.26-.89l4.97-8.813 -3.18-5.55c-.23-.43-.58-.88-1.29-.88H4.8Z"/></svg>