<svg viewBox="0 0 32 32" xmlns="http://www.w3.org/2000/svg"><path d="M0 0v32h32V0Zm23.855 3.85c1.92 0 3.55.58 4.88 1.7l-1.48 2.224c-1.19-.82-2.3-1.34-3.41-1.34 -1.12 0-1.71.516-1.71 1.18v.07c0 .89.59 1.18 2.81 1.78 2.66.74 4.145 1.7 4.145 4v.07c0 2.66-2 4.145-4.82 4.145 -2-.08-4-.82-5.56-2.22l1.7-2.077c1.18.96 2.44 1.62 3.92 1.62 1.18 0 1.84-.45 1.84-1.26v-.08c0-.74-.45-1.109-2.67-1.71 -2.67-.67-4.3-1.407-4.3-4.073v-.08c0-2.45 1.92-4 4.58-4ZM2.36 4.14h3.037l2 7.709 2.29-7.71h2.224l2.224 7.7 2-7.71h3.1L15.468 17.39h-2.52l-2.15-7.71 -2.224 7.7h-2.45Zm.66 21.855h12v2h-12Z"/></svg>