<svg viewBox="0 0 32 32" xmlns="http://www.w3.org/2000/svg"><path d="M17.729 2.43c0 1.303-1.08 2.38-2.38 2.38 -1.3 0-2.38-1.077-2.38-2.38 0-1.296 1.08-2.38 2.38-2.38 1.3 0 2.38 1.084 2.38 2.38Zm-2.38 4.323c-1.41 0-2.49 1.08-2.49 2.49 0 1.4 1.08 2.48 2.49 2.48 1.4 0 2.48-1.09 2.48-2.49 0-1.407-1.1-2.5-2.5-2.5Zm0 6.7c-1.41 0-2.6 1.18-2.6 2.59 0 1.4 1.19 2.593 2.6 2.593 1.4 0 2.59-1.19 2.59-2.593 0-1.41-1.2-2.593-2.593-2.593Zm0 6.807c-1.41 0-2.49 1.08-2.49 2.48 0 1.407 1.08 2.49 2.49 2.49 1.4 0 2.48-1.09 2.48-2.5 0-1.3-1.1-2.49-2.5-2.49Zm0 6.92c-1.3 0-2.38 1.07-2.38 2.38 0 1.29 1.08 2.375 2.38 2.375 1.3 0 2.38-1.08 2.38-2.38 0-1.3-1.08-2.375-2.38-2.375Zm6.59-20.77c-1.52 0-2.82 1.3-2.82 2.81 0 1.5 1.29 2.8 2.81 2.8 1.51 0 2.8-1.3 2.8-2.81 0-1.52-1.3-2.82-2.81-2.82Zm0 6.7c-1.625 0-2.93 1.29-2.93 2.92 0 1.62 1.3 2.91 2.92 2.91 1.62 0 2.91-1.3 2.91-2.93 0-1.62-1.3-2.92-2.92-2.92Zm0 6.81c-1.52 0-2.82 1.3-2.82 2.8 0 1.51 1.29 2.81 2.81 2.81 1.51 0 2.8-1.31 2.8-2.82 0-1.51-1.3-2.81-2.81-2.81Zm6.8-7.14c-1.73 0-3.24 1.407-3.24 3.24 0 1.72 1.4 3.24 3.23 3.24s3.24-1.43 3.24-3.27c-.11-1.85-1.52-3.24-3.25-3.24ZM8.62 7.05c-1.19 0-2.16.97-2.16 2.16 0 1.18.96 2.16 2.15 2.16s2.16-.98 2.16-2.17 -.968-2.157-2.17-2.157Zm0 6.7c-1.3 0-2.271.968-2.271 2.27 0 1.29.96 2.27 2.261 2.27 1.3 0 2.26-.98 2.26-2.28 0-1.31-.98-2.28-2.276-2.28Zm0 6.8c-1.19 0-2.16.97-2.16 2.16 0 1.19.96 2.16 2.15 2.16s2.16-.98 2.16-2.18c0-1.21-.968-2.17-2.17-2.17Zm-6.7-6.484c-1.09 0-1.95.86-1.95 1.94 0 1.07.86 1.94 1.948 1.94 1.07 0 1.943-.87 1.943-1.95 0-1.09-.87-1.95-1.95-1.95Z"/></svg>