<svg viewBox="0 0 32 32" xmlns="http://www.w3.org/2000/svg"><path d="M14.844 11.24c-.62 0-1.12.47-1.12 1.08 .01.6.51 1.08 1.11 1.08 .65 0 1.16-.48 1.16-1.09 0-.61-.52-1.09-1.17-1.09Zm3.9 0c-.62 0-1.13.47-1.13 1.08 0 .58.51 1.08 1.13 1.08 .63 0 1.15-.48 1.15-1.09 0-.61-.52-1.09-1.16-1.09Zm4.875.01c-.71 0-1.33.44-1.33 1.14v4.42c0 1.07.75 1.71 1.83 1.71h6.198c.91 0 1.66-.64 1.66-1.56v-4.54c0-.55-.42-1.15-.92-1.15h-1.44V15c0 2.82-4.94 2.8-4.94.05v-3.84h-1.09Zm2.24 0v3.27c0 2.18 2.57 1.87 2.57.34v-3.609h-2.58Zm-19.422.43c-.62 0-1.04.31-1.25 1.01 -.21.7-1.49 5.65-1.49 5.65L2 11.75H-.02s1.932 7.02 2.198 7.84c.2.63.698 1.14 1.411 1.14 .83 0 1.22-.61 1.396-1.15 .18-.57 1.43-5.2 1.43-5.2s1.255 4.635 1.42 5.19c.18.53.57 1.14 1.39 1.14 .72 0 1.2-.52 1.42-1.15 .26-.83 2.19-7.85 2.19-7.85h-2.026l-1.68 6.58s-1.29-4.95-1.5-5.66c-.21-.71-.641-1.01-1.24-1.01Zm7.47 2.78v6.21h1.92v-6.22Zm3.89 0v6.21h1.92v-6.22Z"/></svg>