<svg viewBox="0 0 32 32" xmlns="http://www.w3.org/2000/svg"><path d="M5.23 3.46c.35.05-.53 2.37-.04 5.01 .42 2.266 5.75 11.03 5.531 14.04 -.18 1.89-4.55 6.31-5.01 6.02 -.5-.15 1.32-3.16.65-5.67C5.57 19.93.88 12.381.88 9.04 .88 6.59 4.9 3.28 5.22 3.44ZM15.25 0c.44.07-.68 3.03-.05 6.391 .54 2.89 7.33 14.073 7.057 17.906 -.23 2.41-5.8 8.05-6.385 7.68 -.65-.18 1.69-4.01.82-7.21C15.68 21.03 9.7 11.39 9.71 7.14c0-3.12 5.12-7.35 5.526-7.15ZM25.58 3.46c.35.05-.53 2.37-.04 5.01 .42 2.266 5.75 11.03 5.53 14.04 -.17 1.89-4.55 6.31-5.01 6.02 -.51-.15 1.32-3.15.65-5.67 -.8-2.93-5.49-10.479-5.48-13.82 0-2.45 4.01-5.76 4.32-5.61Z"/></svg>