<svg viewBox="0 0 32 32" xmlns="http://www.w3.org/2000/svg"><path d="M19.672 9.625c-1.52-.01-2.74 1.21-2.74 2.734 0 .6.19 1.18.55 1.65l3.5 4.885c.41.71.16 1.65-.56 2.09 -.72.41-1.66.16-2.099-.56 -.42-.71-.2-1.62.5-2.07l.05-.03c.27-.2.35-.56.16-.83 -.11-.17-.3-.28-.5-.28 -.1 0-.2.03-.28.08l-.06.02c-1.27.8-1.69 2.48-.88 3.75 .79 1.27 2.47 1.68 3.75.88 1.26-.81 1.68-2.48.88-3.75 -.06-.09-.11-.15-.14-.23l-3.51-4.92c-.14-.24-.21-.5-.2-.78 0-.86.68-1.516 1.51-1.516 .82 0 1.52.68 1.52 1.516 0 .52-.28.99-.72 1.29 -.04 0-.04.02-.06.02 -.28.19-.36.55-.17.82 .1.16.3.25.49.27 .09 0 .19-.03.27-.08l.05-.04c1.27-.8 1.68-2.484.88-3.75 -.5-.8-1.36-1.28-2.29-1.28Zm0 10.79c.42 0 .77-.35.77-.78 0-1.03-1.55-1.03-1.55 0 0 .44.35.77.77.77Zm0-8.84c-.44 0-.78.34-.78.77 0 1.02 1.54 1.02 1.54 0 -.03-.45-.36-.78-.78-.78ZM15.992-.01c-8.828 0-16 7.172-16 16s7.172 16 16 16 16-7.18 16-16c0-8.828-7.18-16-16-16Zm-3.65 23.14c-1.93.01-3.5-1.55-3.51-3.47 -.01-1.41.83-2.69 2.125-3.23l-1.47-2.042c-1.13-1.58-.78-3.76.77-4.859 1.54-1.11 3.75-.78 4.85.77 1.1 1.54.77 3.75-.78 4.85 -.22.15-.45.28-.69.38l1.516 2.15c1.08 1.58.66 3.75-.94 4.823 -.56.39-1.22.6-1.91.6Zm10.2-5.44c1.07 1.59.66 3.75-.94 4.82 -1.61 1.07-3.76.66-4.83-.94 -1.09-1.6-.67-3.76.93-4.83 .19-.15.38-.22.57-.34l-1.49-2.04c-1.125-1.57-.79-3.75.77-4.885 1.56-1.125 3.74-.79 4.88.77 1.125 1.56.78 3.74-.78 4.88 -.22.15-.45.28-.7.38Zm-11.57-4.61c-.14-.24-.2-.51-.2-.78 0-.86.69-1.516 1.516-1.516 .859 0 1.52.69 1.52 1.516 0 .52-.28 1.02-.72 1.3l-.06.02c-.28.19-.359.55-.17.82 .1.16.3.25.49.27 .09 0 .19-.04.27-.09l.05-.03c1.28-.8 1.68-2.47.9-3.76 -.79-1.29-2.47-1.69-3.75-.92 -1.28.79-1.68 2.46-.92 3.75 .05.08.11.16.16.21l3.5 4.885c.13.21.19.49.19.77 0 .85-.67 1.51-1.53 1.54 -.85 0-1.54-.68-1.55-1.53 0-.53.27-1.03.71-1.3l.05-.03c.27-.2.35-.56.16-.83 -.11-.17-.3-.28-.5-.28 -.1 0-.2.03-.28.08l-.06.02c-1.28.8-1.69 2.48-.88 3.75 .79 1.26 2.47 1.68 3.75.88 .8-.5 1.29-1.38 1.29-2.32 0-.61-.2-1.19-.56-1.66Zm1.35 7.31c.41 0 .77-.34.77-.78 -.05-.99-1.51-.99-1.55 0 0 .44.33.77.77.77Zm0-8.84c-.42 0-.76.32-.78.74 0 .41.33.77.74.77s.77-.34.77-.75c.01-.43-.33-.78-.75-.78Z"/></svg>