<svg viewBox="0 0 32 32" xmlns="http://www.w3.org/2000/svg"><path d="M15.99.01c-2.385.02-4.599.525-6.625 1.45l.01-.01c4.849 2.7 9.271 7.5 11.9 10.989 .53.71 1 1.33 1.43 1.91l0-.03c.55-2.317-.42-6.99-2.03-9.776 -.16-.28-.28-.51-.25-.53h0l0-.01c.12.03 1.375 1.32 1.82 1.912 .8 1.02 1.1 1.61 1.55 2.968 1.14 3.532 1.89 6.401 2.53 9.66 .32 1.64.9 4.6.98 5.177 0 .07-.02.17-.02.19 -.125-.12-.26-.24-.39-.36 -.86-.76-2.57-1.89-4.25-2.817 -2.1-1.16-4.16-2.151-8.765-4.22 -4.208-1.89-6.15-2.79-7.667-3.55l-1.37-.69c.16.4.33.83.53 1.33 0 0 2.57 1.44 2.896 1.88 0 0 3.093 5.823 4.468 9.27 1.02 2.599 2.183 5.68 2.87 6.541l.07.08c-1.37-.34-7.66-3.47-7.66-3.47 -.7-5.87-2.63-12.82-5.14-19.917 -.06-.12-.12-.24-.17-.37 0-.03.18.16.41.4 2.53 2.71 7.94 5.18 13.68 6.23 1.55.27 3.13.37 4.7.29 -.41-.53-.86-1.093-1.35-1.74 -4.56-5.94-9.04-8.44-13.041-9.957 -.11-.04-.21-.09-.31-.12C3.99 4.64 1.87 7.41.76 10.62c-.6 1.72-.91 3.532-.9 5.355l.005-.12c.041 6.68 4.172 12.81 10.73 15.1 1.78.62 3.593.9 5.37.89l-.12-.01c6.693-.05 12.82-4.18 15.1-10.735 .62-1.79.9-3.599.89-5.38v.12c-.05-6.7-4.18-12.83-10.74-15.11 -1.73-.61-3.55-.91-5.38-.9l.12.005Zm8.17 8.145v0c.7.68 1.83 2 3.11 2.75 1.05 1.31 1.625 2.615 2.33 3.5 -.3-.25-1.49-1.3-1.49-1.3s-1.84-1.74-2.86-2.87c-.4-.44-.43-.51-.64-.84 -.09-.14-.37-1.1-.48-1.25l0-.02Z"/></svg>