<svg viewBox="0 0 32 32" xmlns="http://www.w3.org/2000/svg"><path d="M26.964 0c1.875 0 3.38 1.516 3.47 3.3v28.698l-3.57-3.04 -1.96-1.79 -2.15-1.87 .89 2.93H4.92c-1.87 0-3.39-1.42-3.39-3.31V3.25C1.53 1.47 3.05-.06 4.92-.06h22Zm-8.16 7.578h-.05l-.28.266c2.76.8 4.1 2.05 4.1 2.05 -1.79-.891-3.4-1.34-5-1.53 -1.16-.18-2.32-.09-3.3 0h-.28c-.625 0-1.96.27-3.75.984 -.62.27-.98.44-.98.44s1.33-1.34 4.28-2.06l-.19-.18s-2.23-.09-4.635 1.69c0 0-2.41 4.193-2.41 9.35 0 0 1.33 2.31 4.99 2.4 0 0 .53-.71 1.07-1.34 -2.06-.625-2.86-1.875-2.86-1.875s.18.08.44.26h.07c.04 0 .06.02.08.04v.01c.02.02.04.03.07.03 .44.18.88.35 1.24.53 .625.26 1.42.53 2.401.71 1.24.18 2.66.26 4.28 0 .79-.19 1.59-.36 2.4-.72 .51-.27 1.15-.54 1.85-.99 0 0-.8 1.25-2.94 1.875 .43.62 1.05 1.33 1.05 1.33 3.66-.09 5.08-2.401 5.16-2.31 0-5.161-2.43-9.36-2.43-9.36C21 7.55 18.96 7.48 18.6 7.48l.07-.03Zm.22 5.886c.93 0 1.69.79 1.69 1.77 0 .99-.76 1.78-1.7 1.78s-1.7-.8-1.7-1.78c0-.99.76-1.79 1.69-1.79Zm-6.057 0c.93 0 1.68.79 1.68 1.77 0 .99-.76 1.78-1.7 1.78s-1.7-.8-1.7-1.78c0-.99.76-1.79 1.69-1.79Z"/></svg>