<svg viewBox="0 0 32 32" xmlns="http://www.w3.org/2000/svg"><path d="M10.615 23.416c-.25-.05-.49.05-.62.27 -.64 1.35-2.1 2.12-3.58 1.85 -.28-1.48.49-2.95 1.86-3.58 .27-.17.359-.52.19-.8 -.09-.15-.25-.26-.42-.28 -2.1-.4-4.26.34-5.667 1.95C.71 25.106.08 28.003.64 30.776c.04.24.235.43.47.48 .66.1 1.333.16 2.011.16 2.44.13 4.833-.78 6.57-2.5 1.18-1.407 1.68-3.28 1.34-5.08 -.03-.25-.22-.45-.46-.5ZM31.7.27c-.23-.23-.7-.12-.7-.12 -.85-.1-1.71-.15-2.56-.16C22.9-.07 17.57 2.09 13.63 5.98c-.484.484-.94.98-1.359 1.521 -1.88-.87-4.016-.95-5.95-.22C3.27 8.59 1.49 12.32.01 16.177c-.12.29.03.62.333.74 .193.07.407.04.56-.09 2.08-1.56 4.82-1.93 7.25-1l-.73 2.61c-.07.24.03.5.24.64 1.95 1.45 3.69 3.192 5.15 5.14 .14.21.4.31.64.25l2.615-.72c.95 2.43.58 5.192-1 7.276 -.2.24-.16.62.09.81 .16.13.38.16.56.08 3.84-1.48 7.58-3.27 8.89-6.3 .72-1.93.64-4.07-.22-5.94 .52-.44 1.03-.9 1.5-1.38C30.4 13.7 32.55 7.3 31.75.91c0-.001.09-.47-.14-.7Zm-3.25.89c.74 0 1.5.03 2.24.11 .1 1.03.13 2.06.09 3.09 -.82-.09-1.58-.46-2.17-1.04 -.59-.59-.95-1.35-1.04-2.17 .28-.02.56-.03.84-.03ZM14.46 6.81c3.21-3.2 7.45-5.17 11.973-5.563 .09.9.43 1.75 1 2.475L23.83 7.31c-2.04-1.604-4.99-1.25-6.593.78 -1.34 1.7-1.34 4.1 0 5.808l-4.199 4.19c-1.077-1.05-2.25-2-3.5-2.85 .88-3.192 2.57-6.11 4.917-8.46Zm10.03 4.21c0 1.95-1.59 3.54-3.55 3.54 -1.97 0-3.55-1.59-3.55-3.55 0-1.96 1.58-3.55 3.54-3.55h0c1.95 0 3.53 1.58 3.54 3.543Zm-22.746 4c1.25-3.01 2.78-5.693 5.043-6.67 1.53-.57 3.23-.53 4.74.12 -1.35 1.891-2.375 3.99-3.02 6.22 -2.2-.89-4.67-.78-6.767.31ZM13.6 23.275c-1.43-1.83-3.077-3.48-4.907-4.907l.52-1.92c2.45 1.69 4.58 3.83 6.29 6.291Zm10.01 1.89c-.98 2.26-3.651 3.79-6.66 5.052 1.08-2.11 1.19-4.573.3-6.77 2.23-.66 4.34-1.68 6.24-3.04 .64 1.51.68 3.21.1 4.756Zm-6.92-2.75c-.84-1.25-1.79-2.43-2.833-3.51l4.199-4.2c2.03 1.6 4.98 1.25 6.593-.79 1.34-1.71 1.34-4.11 0-5.81l3.599-3.6c.71.55 1.56.907 2.46 1 -.4 4.51-2.36 8.756-5.552 11.97 -2.36 2.33-5.27 4.03-8.459 4.91Z"/></svg>