<svg viewBox="0 0 32 32" xmlns="http://www.w3.org/2000/svg"><path d="M15.994 7.556l.56-.99c.35-.62 1.13-.819 1.74-.47 .61.35.81 1.13.46 1.74l-5.47 9.46h3.95c1.28 0 2 1.5 1.44 2.55H7.08c-.71 0-1.28-.57-1.28-1.28 0-.71.569-1.28 1.27-1.28h3.25l4.16-7.22 -1.3-2.26c-.35-.62-.15-1.388.46-1.75 .61-.35 1.38-.15 1.74.46Zm-4.92 13.625l-1.23 2.125c-.35.61-1.14.81-1.75.46 -.62-.35-.819-1.14-.47-1.75l.91-1.58c1.02-.32 1.86-.08 2.52.72Zm10.55-3.86h3.31c.7 0 1.27.56 1.27 1.27 0 .7-.57 1.27-1.28 1.27h-1.85l1.24 2.15c.35.61.14 1.38-.47 1.74 -.62.35-1.39.14-1.75-.47 -2.1-3.64-3.67-6.35-4.712-8.162 -1.07-1.85-.31-3.7.45-4.32 .83 1.43 2.08 3.606 3.75 6.5ZM15.98.49C7.42.49.48 7.42.48 15.99c0 8.56 6.93 15.5 15.5 15.5 8.56 0 15.5-6.94 15.5-15.5 0-8.57-6.94-15.5-15.5-15.5Zm13.5 15.5c0 7.41-6.006 13.5-13.5 13.5 -7.42 0-13.5-6.006-13.5-13.5 0-7.42 6.006-13.5 13.5-13.5 7.41 0 13.5 6.006 13.5 13.5Z"/></svg>