<svg viewBox="0 0 32 32" xmlns="http://www.w3.org/2000/svg"><path d="M13.98.01C10.76-.11 7.77.96 5.605 3.32c-1.74 1.88-2.7 4.339-2.97 7.032h-.56c-1.151 0-2.088.93-2.088 2.083v6.32c0 1.15.937 2.08 2.083 2.08h2.787c.91 1.78 2.07 3.43 3.42 4.91 5.94 6.45 14.249 8.043 19.4 4.02h2.79c.77 0 1.4-.64 1.4-1.41V24.54c0-.34-.125-.65-.35-.9 1.14-4.58-.06-10.19-3.36-14.96 0-.03.01-.05.01-.07V5.92c0-.6-.49-1.088-1.09-1.093h-2.28C21.44 1.77 17.54.09 13.93-.04Zm2.32 2.906c2.37-.02 4.92.82 7.22 2.46 -.12.17-.2.38-.2.593v2.68c0 .59.48 1.093 1.08 1.093h2.68c.18-.01.36-.07.52-.16 2.99 4.401 3.64 9.75 1.65 13.56h-2.62c-.78 0-1.41.63-1.41 1.4v2.39c-3.99 1.73-9.333.29-13.28-3.99 -.79-.86-1.48-1.8-2.07-2.8 .34-.37.55-.87.55-1.41V12.4c0-1.15-.94-2.083-2.09-2.083h-.55c.31-1.82 1.04-3.48 2.24-4.792 1.63-1.78 3.83-2.64 6.2-2.65Zm8.12 2.67h2.68c.21 0 .375.16.375.38v2.68c0 .21-.17.38-.375.38h-2.69c-.22 0-.39-.17-.38-.38V5.96c-.01-.22.16-.39.38-.38ZM2.06 11.05H8.39c.77 0 1.375.609 1.375 1.375v6.32c0 .76-.61 1.37-1.375 1.37H2.07c-.77 0-1.385-.62-1.38-1.38v-6.33c0-.77.609-1.37 1.37-1.37Zm24.6 12.806h3.81c.39 0 .69.3.69.68v3.817c0 .38-.32.69-.7.69h-3.82c-.39 0-.7-.31-.7-.7v-3.82c-.01-.39.3-.7.69-.7Z"/></svg>