<svg viewBox="0 0 32 32" xmlns="http://www.w3.org/2000/svg"><path d="M16.26 24.13c-5.068 0-9.599-1.88-12-4.54 .93 2.401 2.537 4.53 4.66 6 2.13 1.46 4.66 2.26 7.33 2.26 2.66 0 5.2-.8 7.33-2.27s3.73-3.599 4.66-6c-2.401 2.66-6.94 4.53-12 4.53Zm0-17.61c5.06 0 9.599 1.87 12 4.53 -.94-2.401-2.54-4.54-4.67-6 -2.27-1.6-4.8-2.401-7.34-2.401 -2.667 0-5.2.8-7.333 2.26 -2.13 1.59-3.74 3.59-4.67 6.136 2.401-2.81 6.803-4.54 12-4.54ZM25.59.125c-2.49 0-2.49 3.728 0 3.728 2.48 0 2.48-3.728 0-3.728ZM6.79 27.057c-1.33 0-2.41 1.07-2.41 2.401 0 1.32 1.072 2.39 2.401 2.39 1.32 0 2.39-1.08 2.39-2.4 0-1.33-1.08-2.401-2.4-2.401Zm-2-24C3 3.05 3 5.71 4.79 5.71c1.77 0 1.77-2.67 0-2.67Z"/></svg>