<svg viewBox="0 0 32 32" xmlns="http://www.w3.org/2000/svg"><path d="M0 .401v31.19h32V.39Zm1.333 1.33h29.33v28.53H1.32Zm7.54 16.666L7.83 22.21c-.03.1-.07.18-.2.18H5.71c-.14 0-.16-.05-.14-.2l3.69-12.86c.09-.36.13-.73.13-1.1 0-.09.04-.13.1-.13h2.72c.08 0 .13.02.15.12l4.14 13.96c.02.1 0 .17-.11.17h-2.16c-.1 0-.18-.07-.19-.17l-1.08-3.84Zm3.625-2.14c-.37-1.44-1.23-4.58-1.55-6.093h-.03c-.28 1.52-.97 4.07-1.5 6.093Zm13.359 4.03c0 .14.02.59.06 1.32 0 .08-.02.12-.1.15 -1.28.54-2.64.83-4.02.88 -1.96 0-3.83-.75-3.83-3.76V12c0-.11.04-.18.15-.18h2.1c.1 0 .15.06.15.17v6.589c0 1.26.55 1.95 1.88 1.95 .44 0 .89-.08 1.31-.24V11.98c0-.11.04-.18.15-.18h1.96c.13 0 .15.06.15.17Z"/></svg>