<svg viewBox="0 0 32 32" xmlns="http://www.w3.org/2000/svg"><path d="M16.099.08l-4.26 4.28H4.45v7.245l-4.47 4.39 4.46 4.39v7.18h7.16l4.38 4.31 4.38-4.32h7.24v-7.17l4.37-4.4 -4.31-4.339V4.36h-7.29Zm0 1l3.32 3.33h-2.26v8.589l-1.07 1.07L15 12.97v-8.63h-2.19ZM5.15 5.064h5.97L8.62 7.58l5.67 5.708v.87h-1.07L7.54 8.54 5.14 10.9Zm6.968 0h2.18v7.224L9.63 7.58Zm5.74.05h2.25l2.43 2.45 -4.69 4.71Zm3.24 0h5.87v5.85l-2.44-2.46 -5.66 5.68h-1.02v-.93l5.677-5.72Zm3.43 4.4l2.43 2.458v2.234h-7.1Zm-16.979.01l4.68 4.62H5.14v-2.26Zm-3.104 3.05v2.266h8.5l1.16 1.141 -1.05 1.02H4.449v2.38L.98 15.97Zm23.229.09l3.31 3.333 -3.38 3.4v-2.4h-8.55l-1-1.01 1.09-1.11h8.51Zm-12.672 1.3l1.07 1.08 .25-.25 .81-.83v.91h1.02l-1.1 1.1 1 1h-.96v1.07l-1.125-1.11 -.99.97v-.95h-.94l1.04-1.03 -.25-.25 -.92-.9h1.05Zm-9.854 3.74h7.2l-4.802 4.72 -2.4-2.36Zm8.2 0h.94v.93l-5.87 5.78 2.46 2.43H5.13v-5.79l2.401 2.35Zm4.46 0h.95l5.75 5.78 .25-.25 2.13-2.16v5.75H21.07l2.47-2.44 -.26-.25 -5.49-5.41Zm1.94 0h7.14v2.39l-2.38 2.39Zm-3.78.25l1.125 1.1v8.49h2.25l-3.375 3.32 -3.38-3.33h2.385v-8.62Zm-1.7 1.67v7.22H11.87l-2.47-2.43Zm3.52.13l4.73 4.66 -2.47 2.43h-2.27Z"/></svg>