<svg viewBox="0 0 32 32" xmlns="http://www.w3.org/2000/svg"><path d="M20 16.005c0 1.19-.22 2.32-.62 3.38 -1.05.39-2.192.61-3.38.61h-.02c-1.2 0-2.33-.22-3.38-.62 -.4-1.06-.62-2.192-.62-3.38v-.02c0-1.2.21-2.33.61-3.38 1.05-.4 2.18-.62 3.38-.62h.01c1.19 0 2.33.21 3.38.61 .39 1.05.61 2.18.61 3.38Zm11.78-2.68h-9.35l6.599-6.61c-.52-.73-1.093-1.412-1.73-2.05 -.63-.64-1.32-1.209-2.05-1.73l-6.61 6.59V.18c-.87-.14-1.75-.22-2.67-.22h-.02c-.907 0-1.8.083-2.66.21V9.52l-6.6-6.599c-.74.5-1.42 1.09-2.05 1.72 -.64.62-1.22 1.31-1.73 2.04l6.599 6.6H.16s-.22 1.75-.22 2.66v.01c0 .907.083 1.79.21 2.66h9.344L2.904 25.21c1.03 1.46 2.3 2.74 3.76 3.776l6.6-6.599v9.33c.86.14 1.74.21 2.65.21h.02c.907 0 1.79-.08 2.65-.22v-9.34l6.599 6.599c.73-.5 1.41-1.09 2.04-1.72h0c.63-.62 1.2-1.31 1.72-2.05l-6.599-6.599h9.33c.14-.86.21-1.74.21-2.65v-.05c0-.907-.08-1.8-.22-2.651Z"/></svg>