<svg viewBox="0 0 32 32" xmlns="http://www.w3.org/2000/svg"><path d="M28.473 14.88v5.3c0 .16-.11.2-.24.09l-2.71-2.25c-.15-.13-.23-.31-.25-.5v-.67l-.85-.69c-.91-.74-1.64-2.24-1.64-3.34 0-1.1.72-1.39 1.63-.641l.84.69v-.68c0-.17.1-.21.24-.1l2.7 2.24c.12.1.23.33.23.49Zm-3.99-1.69c-.48-.4-.87-.25-.87.33 0 .58.38 1.37.86 1.76l.79.65v-2.11Zm3.78 13.38l.01-.02c.01-.02.03-.04.05-.06l0-.01c.01-.02.02-.04.04-.06l.01-.03c0-.02.01-.04.02-.06l0-.02c.01-.03.01-.05.02-.08v-.03l0-.04v-.21l-6.97-5.71 .03-17.213 -.2-.16h-.01l-.05-.04c-.01-.01-.02-.02-.03-.02l-.05-.02c-.01-.01-.03-.02-.05-.02l-.04-.01c-.03-.01-.04-.02-.06-.02h-.01l-.04 0c-.02 0-.04 0-.06 0l-.04.01c-.02 0-.04.01-.05.01 -.02 0-.03.01-.05.01l-.04.02c-.01 0-.02 0-.03.01 -.02 0-.04.01-.05.02l-4.59 2.29 .95.76 .03 13.428 -7-5.77 -.01-6.989 -.01-6.28V.23c0-.02 0-.04-.01-.05 0-.02 0-.03-.01-.04L9.94.09C9.93.07 9.93.05 9.92.04V.02L9.9-.01c-.02-.02-.02-.03-.03-.04L9.84-.08c-.03-.04-.07-.07-.1-.09 -.02-.02-.03-.016-.04-.03 -.02-.01-.03-.016-.05-.016 -.03-.01-.06-.02-.09-.02l-.05-.01 -.03-.005h-.02c-.02 0-.04.005-.05.005 -.02.005-.03.005-.05.011 -.02 0-.03 0-.04.01 -.02 0-.04 0-.05.015L3.49 2.68l-.02.01c-.04.02-.08.04-.11.07 -.03.03-.06.06-.07.1 -.02.02-.03.05-.04.08 -.02.02-.02.05-.02.08 0 0 0 .02 0 .02l0 13.48v.02l0 .01c0 .02 0 .04 0 .06l0 .01 0 .01c0 .02.01.04.02.06v0c.01.02.02.04.04.06l.02.02c.01.01.02.02.04.04l0 0s0 0 .01 0c0 0 0 0 0 0l6.26 5.21 -.14 3.56v.05l0 .03v.01c0 .01 0 .01 0 .02 0 0 0 .01 0 .01v0l0 .01c0 .01.01.03.02.05v0c.01.02.02.04.04.06l0 .01 0 .01c.01.01.03.03.05.05h0l0 0v0l7.09 5.61c.13.1.31.12.46.04l10.65-5.34c.02-.02.04-.03.06-.05ZM7.29 14.63l-2.21-1.71v1.46l1.125.78 -1.859.93 -.01-12.5 2.9-1.46 .03 3.193L5.2 3.66v1.46l2.07 1.64 .03 1.57L5.17 6.62v1.46L7.3 9.77l-.02 1.71L5.193 9.8v1.46l2.1 1.67 .01 1.58Zm4.57 8.05L4.78 16.857l4.891-2.45 7.077 5.824ZM8.14 1.69l.97-.49 .1 12.453 -.98.48Zm3.32 9.485v-2.12l1.74 1.36v2.125Zm1.74-2.44l-1.75-1.37V5.24l1.74 1.36Zm1.45-1c.67.86 1.36 2.54 1.36 4.1 0 1.55-.7 2.077-1.37 1.81Z"/></svg>