<svg viewBox="0 0 32 32" xmlns="http://www.w3.org/2000/svg"><path d="M10.35 16.122c0 .67-.54 1.19-1.23 1.19 -.52 0-.89-.29-.89-.84 0-.68.52-1.23 1.2-1.23 .51 0 .9.31.9.86Zm-5.878-2.7h-.27c-.09 0-.17.05-.18.15l-.24 1.484 .45-.02c.61 0 1.08-.09 1.19-.79 .12-.75-.35-.83-.98-.83Zm15.77 0h-.25c-.1 0-.17.05-.18.15l-.24 1.484 .44-.02c.72 0 1.22-.17 1.22-1 -.01-.59-.54-.62-1.01-.62Zm11.75-7.21v19.55c0 1.47-1.2 2.66-2.67 2.66H2.65c-1.48 0-2.667-1.2-2.667-2.67V6.19c0-1.48 1.19-2.667 2.66-2.667H29.31c1.47 0 2.66 1.19 2.66 2.667ZM7.12 13.732c0-1.17-.9-1.56-1.93-1.56H2.96c-.14 0-.278.11-.29.26L1.75 18.1c-.02.11.06.22.17.22H2.98c.15 0 .28-.17.3-.32l.25-1.48c.05-.4.73-.27 1-.27 1.58 0 2.561-.95 2.561-2.55Zm4.67.48h-1.06c-.22 0-.23.3-.24.45 -.33-.48-.79-.56-1.32-.56 -1.37 0-2.4 1.19-2.4 2.51 0 1.08.67 1.78 1.76 1.78 .5 0 1.12-.28 1.47-.67 -.03.08-.06.26-.06.34 0 .12.05.22.17.22h.95c.15 0 .27-.17.3-.32l.56-3.58c.01-.11-.07-.22-.18-.22Zm2.25 5.43l3.53-5.15c.02-.03.02-.06.02-.1 0-.1-.09-.2-.18-.2h-1.07c-.1 0-.2.05-.25.13l-1.48 2.16 -.62-2.083c-.05-.13-.17-.23-.31-.23h-1.04c-.1 0-.18.1-.18.19 0 .06 1.08 3.15 1.17 3.45 -.15.21-1.14 1.58-1.14 1.75 0 .1.08.17.17.17h1.06c.1-.01.19-.07.25-.15Zm8.85-5.93c0-1.17-.9-1.56-1.93-1.56h-2.21c-.15 0-.29.11-.31.26l-.9 5.66c-.02.11.07.22.17.22h1.13c.11 0 .19-.09.22-.18l.25-1.62c.05-.4.73-.27 1-.27 1.57 0 2.55-.95 2.55-2.55Zm4.677.48H26.5c-.22 0-.23.3-.24.45 -.31-.48-.78-.56-1.32-.56 -1.37 0-2.4 1.19-2.4 2.51 0 1.08.67 1.78 1.76 1.78 .51 0 1.13-.28 1.47-.67 -.02.08-.06.26-.06.34 0 .12.05.22.17.22h.96c.15 0 .27-.17.3-.32l.56-3.58c.01-.11-.07-.22-.18-.22Zm2.63-1.85c0-.12-.09-.2-.18-.2h-1.03c-.09 0-.17.06-.18.15l-.9 5.77 -.02.02c0 .1.08.19.19.19h.91c.13 0 .27-.17.28-.32l.9-5.622Zm-5 2.87c-.68 0-1.21.53-1.21 1.22 0 .53.38.83.9.83 .66 0 1.2-.52 1.2-1.2 0-.55-.39-.87-.9-.87Z"/></svg>