<svg viewBox="0 0 32 32" xmlns="http://www.w3.org/2000/svg"><path d="M16.407 17.573v-3.19c0-.66.3-1.12.94-1.12h3.98c.02 0 .04-.03.04-.05v-.64c0-.01 0-.01-.01-.02h-4.88c-1.06.13-1.58.875-1.58 1.81v3.18c0 .64-.32 1.1-.95 1.1H9.73c-.03 0-.05.01-.05.04v.63c0 .02.01.04.02.05h4.78c1.24-.04 1.86-.83 1.86-1.85ZM.03 19.413h1.4c.02-.01.03-.03.03-.06v-2.03c0-.66.36-1.1.9-1.1h5.76c1.29 0 1.92-.8 1.92-1.85 0-.95-.516-1.68-1.58-1.82H-.02s-.02 0-.02.01v.63c0 .03.016.04.047.04H7.6c.64 0 .94.46.94 1.109 0 .64-.31 1.11-.95 1.11H1.58c-.94 0-1.64.79-1.64 1.83v2.02c0 .02.01.04.03.05Zm21.33-.74h7.657c.02 0 .04.01.04.03v.64c0 .03.02.04.04.04h1.38c.02 0 .05-.02.05-.05v-.64c0-.03.02-.05.05-.05h1.37c.03 0 .04-.03.04-.05v-.65c0-.03-.02-.06-.05-.06h-1.38c-.03 0-.06-.02-.06-.05v-4.62c0-.375-.14-.62-.375-.7h-.4c-.125.03-.26.09-.41.17l-8.24 5.089c-.33.2-.44.42-.36.59 .06.14.25.24.6.24Zm1.19-.85l6.38-3.96c.04-.04.12-.03.12.06v3.94c0 .02-.03.04-.05.04h-6.43c-.06 0-.08-.02-.09-.04 -.02-.04 0-.06.04-.08Z"/></svg>