<svg viewBox="0 0 32 32" xmlns="http://www.w3.org/2000/svg"><path d="M21.875 7.568c-.16 0-.26.02-.37.04v.01h.01c.07.13.19.24.28.36 .07.14.13.28.2.42l.02-.03c.125-.09.18-.23.18-.45 -.06-.07-.07-.13-.11-.19 -.06-.09-.17-.14-.24-.21ZM7.693 25.158H6.459c-.05-2.09-.17-4.05-.359-5.88h-.01l-1.88 5.88h-.95L1.39 19.27h-.02c-.135 1.76-.23 3.724-.26 5.88H-.01c.07-2.625.255-5.09.547-7.375h1.53l1.78 5.41h.01l1.79-5.42h1.45c.32 2.68.516 5.14.57 7.375Zm5.35-5.442c-.5 2.72-1.17 4.71-1.984 5.948 -.65.95-1.35 1.43-2.115 1.43 -.21 0-.46-.07-.76-.19v-.66c.15.02.32.03.516.03 .359 0 .64-.11.86-.3 .26-.24.391-.51.391-.81 0-.21-.1-.625-.31-1.26l-1.35-4.21H9.5l.96 3.14c.21.71.31 1.21.27 1.5 .53-1.42.9-2.97 1.11-4.65Zm16.43 5.442h-3.51v-7.375h1.18v6.46h2.32Zm-4.43.17l-1.36-.67c.12-.1.23-.21.33-.34 .57-.68.86-1.68.86-3 0-2.45-.96-3.67-2.875-3.67 -.94 0-1.68.3-2.2.92 -.58.67-.87 1.67-.87 2.99 0 1.29.25 2.24.76 2.85 .46.54 1.17.81 2.11.81 .34 0 .67-.05.96-.13l1.76 1.03 .48-.84Zm-4.39-1.66c-.31-.48-.45-1.25-.45-2.32 0-1.86.56-2.79 1.69-2.79 .58 0 1.02.22 1.3.66 .29.48.44 1.24.44 2.29 0 1.87-.57 2.81-1.7 2.81 -.6 0-1.03-.23-1.31-.67Zm-2.21-.57c0 .625-.23 1.14-.7 1.53 -.46.4-1.07.6-1.85.6 -.73 0-1.42-.23-2.099-.69l.31-.64c.58.29 1.109.43 1.58.43 .44 0 .79-.1 1.04-.3 .25-.2.4-.48.4-.83 0-.44-.31-.82-.87-1.125 -.52-.29-1.56-.875-1.56-.875 -.57-.42-.84-.85-.84-1.58 0-.6.2-1.08.625-1.45 .42-.375.95-.56 1.62-.56 .68 0 1.3.18 1.87.54l-.29.63c-.48-.21-.96-.31-1.42-.31 -.38 0-.68.09-.875.27 -.21.18-.33.41-.33.69 0 .43.31.81.88 1.13 .52.28 1.58.89 1.58.89 .57.4.86.84.86 1.55ZM30.94 15.29c-.72-.02-1.27.05-1.73.25 -.13.05-.35.05-.37.21 .07.07.08.18.14.28 .1.17.29.41.46.54 .18.14.375.29.56.41 .34.21.74.33 1.08.55 .19.125.39.28.58.41 .09.06.16.18.28.22v-.03c-.07-.08-.08-.2-.15-.29 -.09-.09-.18-.17-.27-.26 -.26-.35-.58-.66-.93-.91 -.29-.2-.92-.47-1.03-.8l-.02-.03c.19-.02.42-.09.6-.15 .3-.08.58-.07.89-.15 .14-.04.28-.08.42-.125v-.08c-.17-.17-.29-.38-.45-.54 -.46-.391-.96-.78-1.47-1.1 -.29-.19-.64-.3-.94-.45 -.11-.06-.29-.08-.35-.17 -.17-.2-.26-.46-.37-.69 -.26-.49-.51-1.04-.73-1.56 -.17-.35-.26-.7-.46-1.016 -.92-1.516-1.92-2.44-3.45-3.333 -.33-.19-.73-.266-1.15-.37 -.23-.01-.45-.03-.67-.04 -.15-.07-.29-.23-.42-.32 -.51-.33-1.83-1.016-2.2-.1 -.24.58.35 1.15.56 1.44 .15.2.34.43.45.66 .06.15.07.31.14.47 .14.391.27.82.46 1.19 .09.18.2.38.32.55 .07.09.19.14.22.3 -.125.18-.14.44-.21.66 -.33 1.01-.2 2.25.25 3 .14.22.48.71.93.52 .4-.17.31-.67.42-1.12 .02-.11.01-.18.06-.25v.02c.13.25.25.49.37.74 .27.43.75.891 1.15 1.19 .21.16.38.43.64.53v-.03h-.03c-.06-.08-.13-.12-.21-.18 -.17-.17-.34-.359-.47-.54 -.37-.5-.71-1.06-1-1.62 -.15-.29-.28-.59-.39-.859 -.06-.11-.06-.266-.15-.32 -.14.19-.34.359-.43.6 -.18.38-.19.85-.26 1.34 -.04.01-.02 0-.04.02 -.29-.08-.39-.37-.49-.62 -.28-.64-.32-1.66-.09-2.38 .06-.19.32-.78.22-.96 -.06-.18-.24-.28-.33-.41 -.12-.17-.24-.38-.33-.57 -.22-.5-.32-1.06-.56-1.56 -.11-.23-.3-.47-.45-.69 -.18-.24-.36-.42-.49-.7 -.05-.1-.11-.26-.04-.37 .01-.08.05-.1.125-.12 .11-.1.44.02.56.08 .32.13.6.25.88.44 .125.08.26.25.42.3h.18c.28.06.6.01.87.09 .47.15.9.37 1.28.609 1.16.74 2.125 1.79 2.77 3.05 .1.2.15.391.25.6 .18.44.41.88.6 1.3 .18.42.36.84.63 1.19 .13.18.66.28.91.38 .17.08.45.15.6.25 .3.18.6.4.89.609 .14.09.58.32.61.5Z"/></svg>