<svg viewBox="0 0 32 32" xmlns="http://www.w3.org/2000/svg"><path d="M0 .401v31.198h32V.4Zm1.333 1.333h29.33v28.531H1.32Zm7.06 5.969c0-.09.02-.16.13-.16 .85-.05 2.109-.07 3.42-.07 3.69 0 5.3 2.02 5.3 4.62 0 3.385-2.45 4.83-5.47 4.83 -.51 0-.69-.03-1.04-.03v5.125c0 .1-.05.15-.16.15h-2.06c-.12 0-.16-.05-.16-.16Zm2.36 7.08c.31.02.55.02 1.08.02 1.55 0 3.02-.55 3.02-2.67 0-1.7-1.05-2.56-2.83-2.56 -.53 0-1.04.02-1.28.04Zm8.537-1.21c0-.16 0-.56-.07-1.3 0-.11.01-.14.1-.18 1.55-.6 3.2-.92 4.875-.93 .1 0 .15.02.15.13v1.93c0 .1-.04.13-.15.13 -.85-.06-1.71.03-2.53.266v8.401c0 .1-.05.15-.16.15h-2.1c-.11 0-.16-.05-.16-.16Z"/></svg>