<svg viewBox="0 0 32 32" xmlns="http://www.w3.org/2000/svg"><path d="M6.573 2.43c-1.46.74-1.46.85-.1 2.37 7.53 8.391 9.33 10.37 9.474 10.37 .18.02 10.63-11.391 10.74-11.74 .04-.1-.28-.42-.7-.72 -.56-.42-1.16-.58-2.29-.625 -2.12-.135-2.86.32-5.49 3.27 -1.2 1.33-2.22 2.44-2.22 2.44 -.03 0-1.01-1.09-2.19-2.4 -1.18-1.32-2.54-2.63-3-2.89 -1.07-.599-3.229-.65-4.28-.12ZM1.729 5.82C.59 6.25 0 6.67 0 6.99c0 .16 1.776 2.24 3.92 4.615 2.16 2.375 3.917 4.359 3.917 4.4 0 .04-1.78 2.03-3.93 4.4 -2.17 2.39-3.9 4.49-3.87 4.677 .11.625 2.005 1.41 3.385 1.41 2.24-.03 2.74-.42 7.474-5.61 2.375-2.61 4.307-4.82 4.307-4.9 0-.09-1.92-2.26-4.26-4.84 -3.07-3.35-4.568-4.85-5.29-5.17 -1.09-.54-2.84-.62-3.943-.19Zm24.62.16c-.68.34-2.36 2-5.26 5.18 -2.349 2.583-4.27 4.75-4.27 4.83 0 .09 1.93 2.28 4.31 4.89 4.724 5.18 5.23 5.57 7.46 5.6 1.38 0 3.276-.79 3.39-1.42 .02-.21-1.71-2.29-3.875-4.66 -2.15-2.37-3.92-4.38-3.92-4.427 0-.05 1.77-2.06 3.91-4.43 2.16-2.37 3.89-4.448 3.875-4.63 -.12-.6-1.83-1.3-3.3-1.39 -1.07-.05-1.62.04-2.349.41Zm-15.75 16.64c-2.859 3.16-5.208 5.83-5.255 5.948 -.05.09.27.41.69.71 .55.41 1.15.57 2.28.625 2.099.13 2.88-.35 5.53-3.35 1.15-1.3 2.14-2.375 2.16-2.375 .02 0 1.01 1.08 2.19 2.39 2.69 3 3.41 3.43 5.51 3.32 1.13-.05 1.72-.21 2.28-.625 .41-.3.74-.62.69-.72 -.12-.35-10.57-11.76-10.745-11.74 -.1 0-2.49 2.6-5.349 5.78Z"/></svg>