<svg viewBox="0 0 32 32" xmlns="http://www.w3.org/2000/svg"><path d="M30.65 3.12h-2.08l-1.45-.01c-1.16 0-2.21.875-3.02 1.568 -.81.66-1.48 1.47-2.12 2.3 -.24-.63-.54-1.24-.87-1.83 -.42-.82-1.22-1.6-2.15-1.79 -.46-.1-.98-.06-1.44-.06h-3.08c-.47 0-.984-.07-1.45.04 -.92.17-1.73.95-2.13 1.78 -.33.55-.62 1.17-.859 1.81C9.35 6.1 8.671 5.28 7.89 4.6c-.81-.71-1.859-1.59-3.01-1.59H1.37c-.5 0-1.62-.15-1.354.68 .063.19.28.38.41.53 .15.18.29.38.41.58 .2.31.401.641.589.97 .44.8.833 1.641 1.281 2.44 .99 1.78 2.047 3.5 3.323 5.083 .94 1.16 2.083 2.33 3.49 2.92l-3.18 6c-.92 1.69-1.84 3.42-2.807 5.1l-.15.24c-.125.24-.31.57-.31.83 0 .54.802.56 1.2.56 .42 0 .83-.03 1.26-.03 .71-.03 1.44-.03 2.18-.05 .42 0 .859.02 1.3-.04 1.08-.12 2.083-.69 2.74-1.57 .19-.31 2.16-3.53 2.96-4.823 .29-.5 1.24-1.97 1.24-1.97s.94 1.46 1.24 1.96c.78 1.3 2.74 4.5 2.96 4.802 .64.88 1.64 1.44 2.74 1.54 .41.03.85.02 1.27.02l2.18.02h1.26c.38 0 1.2-.03 1.2-.59 0-.29-.19-.62-.32-.86l-.15-.24c-.99-1.71-1.88-3.41-2.81-5.11 -1.07-1.99-2.12-3.99-3.21-5.95 1.42-.58 2.54-1.76 3.5-2.917 1.28-1.59 2.32-3.33 3.32-5.089 .44-.82.82-1.67 1.28-2.458 .18-.34.38-.67.58-.984 .12-.2.25-.4.41-.58 .12-.18.34-.35.42-.55 .26-.823-.82-.51-1.32-.53ZM13.71 7.026c.08-.01.15.21.19.66l0 .02c0 .02-.2 0-.38-.03l-.22-.04c-.1-.03-.2-.07-.31-.11 -.266-.09-.43-.22-.55-.31 -.08-.06-.13-.12-.18-.2 .63.01 1.11 0 1.42-.03Zm.24 3.224v-.02h0Zm.02-.07c-.15.15-.36.21-.56.25 -.21.04-.44.07-.62-.04 -.22-.11-.31-.375-.37-.6 -.08-.29-.15-.59-.12-.88h.02c0-.17.05-.34.12-.484 .05-.125.13-.24.24-.32 .28-.22.71-.22.96.03 .12.12.21.26.27.41 .14.34.26.74.23 1.125 -.01.17-.08.34-.2.47Zm2.78.54c-.03.04-.07.06-.1.08 -.2.14-.44.2-.69.19 -.25.01-.484-.06-.69-.2 -.05-.03-.08-.05-.1-.09 -.01 0-.03-.03-.03-.04 0-.02 0-.03.01-.04v.05c.01-.02.05-.02.06-.02 .03.01.05.03.08.05 .18.125.4.18.63.18 .22 0 .44-.06.63-.19 .03-.03.06-.06.09-.08 .03-.03.05-.03.07 0 .02.02.01.03-.03.05Zm2.76-.92c-.06.21-.15.5-.37.59 -.19.09-.42.06-.62.02 -.21-.05-.42-.11-.57-.26 -.12-.14-.19-.31-.2-.48 -.03-.39.08-.79.24-1.125 .06-.16.15-.3.27-.42 .25-.25.68-.25.97-.05 .1.08.18.19.24.32v.01c.07.14.12.31.13.47 .03.29-.05.59-.12.88Zm-.04-2.57c-.12.09-.29.21-.55.29 -.1.03-.21.06-.31.08 -.02 0-.11.02-.22.04v.03c-.18.02-.38.04-.375 0 .04-.44.1-.67.19-.67 .31.04.79.04 1.43.02 -.05.07-.11.13-.19.18Z"/></svg>