<svg viewBox="0 0 32 32" xmlns="http://www.w3.org/2000/svg"><path d="M22.94 8.927c-.05-.37 0-.8 0-.8v-.02c.18-.96 1.02-1.68 2.03-1.68 0 0 .01 0 .01 0h0c1.14 0 2.07.93 2.07 2.07 0 1.14-.94 2.077-2.08 2.077 -.01 0-.02-.01-.02-.01h-.02c-.99 0-1.84-.7-2.04-1.68Zm9.05-6.875v27.896c0 1.13-.86 2.05-1.93 2.05H1.9c-1.07 0-1.93-.92-1.93-2.06V2.04C-.03.91.83-.02 1.89-.02H30.05c1.061 0 1.92.921 1.92 2.05Zm-3.08 21.344c0-2.183-1.77-3.95-3.95-3.95 -1.76 0-3.31 1.15-3.8 2.84h-2.35l-3.66-6.3 0-.01 3.64-6.28h2.33c.6 2.093 2.8 3.29 4.89 2.68 2.093-.609 3.3-2.81 2.68-4.896 -.61-2.093-2.81-3.3-4.895-2.69 -1.3.37-2.32 1.391-2.69 2.68h-3.56l-.04-.03 -4.31 7.4 -.04.05h-2.56c-.62-2.093-2.808-3.3-4.91-2.69 -2.1.609-3.3 2.8-2.69 4.89 .609 2.09 2.8 3.3 4.89 2.69 1.29-.38 2.31-1.4 2.69-2.7h2.61l4.27 7.36 .02-.02h3.58c.48 1.68 2.03 2.84 3.79 2.84 2.183 0 3.94-1.77 3.94-3.95ZM25 21.236c-1 0-1.85.69-2.04 1.67 -.01.03-.01.07-.02.1 -.01.02-.02.04-.03.06 -.06.4 0 .8 0 .8 .23 1.125 1.32 1.84 2.45 1.61 .76-.16 1.33-.74 1.55-1.46 .08-.23.13-.48.13-.74 0-1.15-.93-2.08-2.067-2.08ZM6.91 13.88c-1.14 0-2.08.92-2.08 2.07 0 0 0 .01 0 .02 0 0 0 0 0 .01 0 1.14.92 2.06 2.061 2.06 .72 0 1.35-.37 1.72-.93 .22-.34.36-.74.36-1.17 0-1.16-.94-2.08-2.08-2.08Z"/></svg>