<svg viewBox="0 0 32 32" xmlns="http://www.w3.org/2000/svg"><path d="M9.93 0c-.24.78-.49 1.557-.76 2.33C3.59 4.82-.01 10.366-.02 16.48c.005 1.54.234 3.06.688 4.53l-.453.79 -.234.49 .37.18c.31.13.65.24.99.29 .365.82.802 1.61 1.307 2.36 5.38.45 11.401.68 16.594-.08 4.25-.62 7.92-1.9 10.31-4.16 .33-.32.63-.63.9-.97 .02-.06.04-.07.07-.1 .01 0 .03-.06.05-.08 .02 0 .04-.05.05-.08 .01 0 .02-.06.03-.06 .44-.6.78-1.19 1.06-1.75l.24-.49 -.49-.49c-.16-.17-.32-.32-.48-.47C30.99 7.82 24.042.87 15.47.87c-1.46 0-2.891.21-4.29.61C10.56.57 10.07-.05 9.884-.1Zm.48 2.182c1.65 2.911 3.083 4.56 4.849 7.76 .17 2.03.89 12.599.96 13.573 -.53-.05-3.32-.32-6.802-.69 -1.91-.2-3.865-.42-5.458-.66l-2.54-.6C4.27 16.51 8.81 8.59 10.38 2.16Zm6.05 8.24s6.65 5.23 9.45 11.64c-3.42 1.68-6.56 1.46-8.479 1.45 1.35-3.51 1.35-8.29-.98-13.1Zm4.61 2.91c1.3.35 2.599.76 3.88 1.2 2.35.83 4.55 1.99 5.823 3.15 -.875 1.65-2.23 3-3.88 3.88 .19-2-.53-3.92-1.95-5.34 -1.06-1.05-2.44-1.94-3.88-2.92Zm8.94 8.64c-3.14 2.21-6.84 3.57-10.62 4.14 -1.65.22-3.3.38-4.96.45h-.44c-1.66.05-3.32.05-4.97 0 -1.859-.06-3.72-.16-5.568-.31h-.01c3.4 4.34 9.323 6.526 14.78 5.474 2.15-.39 4.2-1.23 6-2.474 0 0 0 0 .01 0 .41-.29.81-.59 1.2-.92 .01-.02.03-.04.05-.05 2.01-1.7 3.56-3.89 4.5-6.349ZM3.32 26.11c.01.01.02.03.03.04 -.01 0-.03-.05-.04-.05Z"/></svg>