<svg viewBox="0 0 32 32" xmlns="http://www.w3.org/2000/svg"><path d="M31.76 16c-.08-4.26-3.59-7.64-7.84-7.57 -.4 0-.81.03-1.21.06 -3.36.49-5.6 2.907-6.84 4.76 -1.27-1.86-3.52-4.27-6.853-4.76 -.41-.04-.8-.07-1.2-.07 -4.25-.07-7.75 3.317-7.83 7.56 .079 4.24 3.57 7.625 7.82 7.56 .4 0 .79-.04 1.22-.09 3.36-.48 5.599-2.9 6.85-4.744 1.26 1.85 3.5 4.26 6.85 4.76 .41.03.8.06 1.21.06 4.22.04 7.7-3.34 7.78-7.57ZM8.64 20.8c-.27.05-.58.05-.84.05 -2.77.05-5.06-2.12-5.136-4.89 .08-2.77 2.385-4.95 5.145-4.88 .26 0 .56.02.83.05 3.16.46 5.09 3.56 5.75 4.82 -.67 1.26-2.599 4.4-5.76 4.82Zm8.69-4.81c.65-1.24 2.58-4.36 5.74-4.83 .27-.06.56-.06.82-.06 2.77-.09 5.08 2.1 5.16 4.88 -.09 2.76-2.39 4.93-5.15 4.88 -.28 0-.57-.03-.83-.06 -3.15-.47-5.1-3.59-5.744-4.83Zm-11.72.78h4.71v-1.55H5.61v1.54Zm18.83 0h1.58v-1.55h-1.61v-1.59H22.9v1.6h-1.6v1.53h1.59v1.57h1.53v-1.56Zm7.54-7.38c0 .4-.3.68-.71.68 -.38.01-.7-.29-.71-.67 0-.375.31-.7.7-.7 .41 0 .7.29.7.67Zm-1.22 0c0 .29.21.53.53.53 .29 0 .51-.24.51-.54 0-.3-.22-.532-.52-.532 -.32-.03-.54.21-.54.532Zm.4.34h-.14v-.7l.26-.02c.12 0 .18.01.24.04 .05.02.07.07.07.14s-.06.13-.15.14c.06.02.09.08.12.17l.03.17h-.16c-.03-.03-.03-.1-.06-.18 -.03-.07-.06-.1-.15-.1h-.07l-.04.29Zm.02-.4h.07c.09 0 .13-.02.13-.1 0-.07-.05-.1-.14-.1h-.1v.18Z"/></svg>