<svg viewBox="0 0 32 32" xmlns="http://www.w3.org/2000/svg"><path d="M3.907 20.63l8.525 0 -4.78 9.011C2.902 26.73 0 21.561-.01 15.99c0-8.823 7.177-16 16-16 2.349 0 4.584.511 6.58 1.416L7.22 16.761h13.66l-10.06 10.15 4.151-7.84H5.03c-.46-1.54-.43-3.09-.43-3.09C4.6 9.69 9.71 4.61 15.99 4.61c.12 0 .24 0 .375 0l1.45-1.463c-.61-.09-1.22-.14-1.84-.14 -7.141 0-12.98 5.8-12.98 12.953 0 0-.08 2.29.855 4.63Zm20.43-18.29c4.75 2.9 7.65 8.072 7.66 13.645 0 8.823-7.177 16-16 16 -2.28 0-4.53-.48-6.59-1.43l15.23-15.349h-13.71l10.2-10.156 -4.151 7.839h9.94c.42 1.43.42 3.08.42 3.08 -.01 6.28-5.11 11.36-11.4 11.364 -.15 0-.28-.01-.42-.01l-1.45 1.46c7.08 1.03 13.677-3.87 14.71-10.957 .08-.62.13-1.24.13-1.86 0-1.59-.3-3.17-.87-4.64h-8.52Z"/></svg>