<svg viewBox="0 0 32 32" xmlns="http://www.w3.org/2000/svg"><path d="M30.359 16.005c0 7.91-6.45 14.35-14.36 14.35C8.07 30.34 1.65 23.9 1.65 16 1.65 8.07 8.08 1.64 16 1.64 23.91 1.64 30.354 8.07 30.354 16Zm.38-6.24c-.8-1.91-1.97-3.63-3.43-5.09 -1.46-1.46-3.19-2.625-5.09-3.43 -1.97-.84-4.09-1.27-6.23-1.26 -4.25-.01-8.32 1.677-11.32 4.68 -1.47 1.45-2.63 3.18-3.43 5.08C.38 11.71-.03 13.81-.03 15.97c0 2.16.41 4.25 1.255 6.22 .79 1.9 1.96 3.625 3.42 5.08 2.995 3 7.068 4.68 11.313 4.68 2.15 0 4.25-.43 6.22-1.26 1.9-.81 3.63-1.97 5.08-3.43 3-3 4.69-7.073 4.68-11.32 0-2.17-.42-4.26-1.25-6.24ZM11.4 19.5v-7.17l3.43 3.57ZM9.74 8.38v15.22l10.818-11.28v9.02c0 .45.375.82.82.82 .45 0 .83-.37.83-.83V8.34L15.97 14.7Z"/></svg>