<svg viewBox="0 0 32 32" xmlns="http://www.w3.org/2000/svg"><path d="M12.594 19.094c-.87 0-1.56-.7-1.56-1.54 0-.87.69-1.56 1.55-1.56 .85 0 1.53.69 1.53 1.55 0 .85-.7 1.53-1.54 1.53Zm18.906-3.1c0 8.56-6.94 15.5-15.5 15.5 -8.57 0-15.5-6.94-15.5-15.5C.5 7.43 7.43.49 16 .49c8.56 0 15.5 6.93 15.5 15.5Zm-8.27-2.58c-.59 0-1.11.24-1.49.625 -1.4-.97-3.29-1.6-5.381-1.67l1.08-4.9 3.46.78c0 .85.69 1.53 1.53 1.53 .86 0 1.55-.71 1.55-1.56 0-.85-.7-1.556-1.56-1.556 -.61 0-1.125.36-1.39.86l-3.83-.85c-.19-.05-.39.08-.44.27l-1.2 5.4c-2.08.08-3.95.7-5.35 1.67 -.39-.4-.92-.64-1.51-.64 -2.181 0-2.894 2.93-.9 3.92 -.07.31-.11.63-.11.96 0 3.28 3.7 5.95 8.25 5.95 4.56 0 8.26-2.67 8.26-5.95 0-.34-.04-.68-.12-.99 1.95-1 1.23-3.91-.94-3.91Zm-4.31 7.26c-1.14 1.13-4.756 1.11-5.85 0 -.14-.14-.39-.14-.52 0 -.16.15-.16.4 0 .53 1.42 1.42 5.45 1.42 6.88 0 .15-.14.15-.39 0-.54 -.14-.14-.39-.14-.52 0Zm.48-4.69c-.85 0-1.54.69-1.54 1.55 0 .85.69 1.53 1.53 1.53 .86 0 1.55-.7 1.55-1.54 0-.87-.69-1.56-1.56-1.56Z"/></svg>