<svg viewBox="0 0 32 32" xmlns="http://www.w3.org/2000/svg"><path d="M10.682.18L0 6.23v13.94c-.03 6.4 5.219 11.61 11.69 11.63 2.141 0 4.15-.56 5.885-1.54l8.65-4.92c3.41-1.74 5.75-5.26 5.76-9.323V1.43L29.865.2l-8.68 4.84V20.2c-.01.64-.04 1.11-.21 1.91 -.3 1.22-.7 2.08-.77 2.22 -.69-.05-2.07-.43-3.19-1.09 -.57-.32-1.22-.81-1.82-1.36 -.41-.38-.75-.82-1.05-1.26 -.32-.46-.58-.94-.79-1.44 -.22-.53-.375-1.05-.5-1.59 -.12-.56-.14-1.14-.14-1.7l.02-14.557L10.61.13Zm4.91 28.78c-.58.23-1.19.41-1.8.54 -.64.125-1.23.18-1.87.18 -.66 0-1.31-.08-1.94-.21 -.62-.125-1.22-.32-1.81-.56 -.57-.24-1.12-.54-1.625-.875 -1.32-.93-2-1.73-2.59-2.59 -.35-.53-.64-1.07-.88-1.62 -.24-.58-.43-1.19-.552-1.79 -.12-.62-.15-1.29-.15-1.92V7.38l8-4.83v13.34c0 5.07 3.76 9.3 8.604 10.33 -.19.21-.33.43-.53.63 -.44.43-.9.83-1.42 1.17 -.5.34-.86.62-1.43.85Zm13.87-11.22c-.12.54-.29 1.07-.5 1.58 -.59 1.27-1.54 2.35-2.32 3.05 -1.625 1.46-3.64 1.92-3.87 1.92 .47-1.27.8-2.62.81-4.052V6.28l6-3.64 0 13.34c0 .57-.03 1.17-.15 1.72Z"/></svg>