<svg viewBox="0 0 32 32" xmlns="http://www.w3.org/2000/svg"><path d="M23.43.09c-.51-.01-1 .177-1.375.521 -.03.02-.05.04-.07.06l-10.62 11.74L5.162 7.32l-.55-.47c-.38-.32-.91-.4-1.37-.21 -.01 0-.01 0-.02 0l-2.43 1c-.04.01-.07.03-.1.04 -.03.01-.05.02-.07.03 -.02.01-.04.02-.05.03 -.03.01-.05.03-.07.04 -.01.01-.03.02-.04.03 -.03.01-.05.03-.06.04 -.03.01-.04.03-.06.04 -.01.01-.03.02-.05.04 -.02.01-.04.03-.05.04 -.02.02-.04.04-.05.06 -.01.01-.03.02-.04.04 -.02.02-.04.04-.05.06 -.01.01-.02.03-.03.04 -.01.02-.03.04-.04.06 -.01.02-.02.03-.03.05 -.01.02-.016.04-.03.06 -.01.02-.016.04-.03.06 -.01.02-.016.04-.03.07 -.01.01-.01.03-.016.05 0 .02-.01.04-.01.07 0 .02-.01.04-.01.06 -.01.03-.01.07-.01.1v14.2c0 .53.323 1.02.81 1.22l2.42 1.02c.46.19 1 .1 1.38-.22l.54-.47 6.2-5.09 10.62 11.74c.03.03.06.06.09.08 .02.02.05.04.07.06 .02.02.04.03.07.05 .03.02.05.03.08.05 .03.01.06.03.08.05 .03.01.05.03.08.04 .03.01.05.02.08.04 .03.01.06.02.09.03 .03.01.06.02.09.03 .02.01.05.01.08.02s.06.02.1.02c.03 0 .06.01.09.02 .03 0 .06.01.09.01s.06.01.09.01 .06 0 .09 0 .06 0 .09 0 .07-.01.1-.01c.03-.01.06-.01.08-.01 .04-.01.07-.01.12-.03 .02-.01.05-.01.07-.02 .03-.01.07-.02.1-.04 .02-.01.05-.02.08-.03 .03-.01.06-.03.09-.04 .04-.02.07-.04.12-.05l6.58-3.18c.24-.12.45-.28.63-.48 .04-.05.08-.1.125-.16 0 0 0-.01 0-.01 .03-.06.07-.11.1-.17 .03-.06.05-.11.08-.16 0-.01 0-.02.01-.03 .02-.05.04-.1.05-.15 0-.02.01-.04.01-.06 .01-.05.03-.1.04-.15 0-.02.01-.04.01-.05 .01-.05.01-.1.02-.14 0-.03 0-.05.01-.07 0-.05 0-.08 0-.12 0-.04 0-.08 0-.11V4.9c0-.02 0-.04 0-.05 0-.07-.01-.13-.01-.2 -.09-.68-.51-1.27-1.12-1.56L23.9-.08c-.26-.13-.55-.2-.83-.2Zm.55 9.13v13.54l-8.26-6.78Zm-19.99 2.2l4.13 4.568 -4.13 4.56Z"/></svg>