<svg viewBox="0 0 32 32" xmlns="http://www.w3.org/2000/svg"><path d="M5.25 12.95c.22.359.31.72.31 1.18 0 1.48-1.27 3.4-2.292 4.76H.92l-.948-5.63 2.05-.21 .49 4c.46-.75 1.041-1.94 1.041-2.75 0-.44-.09-.75-.21-1Zm2.66 2.46c.37 0 1.33-.18 1.33-.71 0-.27-.19-.41-.4-.41 -.39 0-.89.46-.94 1.109Zm-.05 1.06c0 .66.36.93.85.93 .53 0 1.02-.14 1.69-.47l-.26 1.68c-.47.22-1.19.37-1.891.37 -1.78 0-2.42-1.07-2.42-2.43 0-1.75 1.04-3.61 3.17-3.61 1.17 0 1.83.65 1.83 1.57 0 1.46-1.907 1.93-3 1.94Zm8.92-2.23c0 .22-.05.53-.07.75l-.62 3.89h-2l.56-3.58 .03-.41c0-.27-.16-.32-.35-.32 -.28 0-.54.12-.7.19l-.641 4.09h-2l.907-5.83h1.73l.02.46c.41-.27.95-.58 1.71-.58 1.01 0 1.37.532 1.37 1.3Zm5.93-.65c.57-.41 1.1-.641 1.86-.641 1.01 0 1.375.532 1.375 1.3 -.01.24-.03.48-.07.73l-.62 3.891h-2l.57-3.65 .03-.3c0-.3-.17-.359-.37-.359 -.24 0-.49.1-.67.19l-.64 4.09h-2l.57-3.66 .02-.29c0-.3-.17-.359-.36-.359 -.28 0-.53.12-.7.19L19.08 18.8h-2.01l.91-5.82h1.7l.06.484c.4-.3.93-.59 1.65-.59 .64 0 1.04.26 1.25.641Zm7.21 1.69c0-.47-.12-.81-.47-.81 -.8 0-.96 1.4-.96 2.109 0 .54.14.88.5.88 .74 0 .92-1.47.92-2.19Zm-3.47 1.22c0-1.84.99-3.56 3.21-3.56 1.69 0 2.3 1 2.3 2.37 0 1.81-.96 3.69-3.26 3.69 -1.7 0-2.27-1.11-2.27-2.52Z"/></svg>