<svg viewBox="0 0 32 32" xmlns="http://www.w3.org/2000/svg"><path d="M7.36 3.93c-2.6 0-4.71 2.1-4.699 4.7v3.41c0 1.49-1.17 2.73-2.67 2.82l.041.75 -.041.74c1.49.08 2.66 1.32 2.661 2.82v3.92c-.01 2.71 2.19 4.92 4.907 4.93v-1.5c-1.88 0-3.407-1.53-3.42-3.42v-3.95c0-1.44-.71-2.78-1.9-3.58 1.18-.81 1.89-2.15 1.89-3.58V8.58c.01-1.77 1.43-3.192 3.2-3.21h.58v-1.5Zm16.719 0v1.5h.58c1.76 0 3.18 1.43 3.183 3.2v3.407c0 1.43.7 2.77 1.89 3.57 -1.19.8-1.9 2.14-1.9 3.57v3.94c-.01 1.88-1.532 3.41-3.42 3.41v1.5c2.71-.02 4.91-2.22 4.907-4.94v-3.933c0-1.5 1.16-2.74 2.66-2.83l-.05-.75 .04-.76c-1.5-.09-2.67-1.33-2.67-2.83V8.56c0-2.59-2.09-4.693-4.677-4.699ZM8.339 9.96l4.635 4.34c1.72 1.55 4.349 1.55 6.073 0l4.63-4.35h-2.224l-3.54 3.285c-1.09 1-2.76 1-3.843 0L10.554 9.95Zm7.47 6.51c-1.06.04-2.07.46-2.84 1.17L8.3 22.009h2.224l3.55-3.33c1.08-1 2.75-1 3.84 0l3.53 3.32h2.224l-4.66-4.369c-.88-.81-2.05-1.23-3.24-1.18Z"/></svg>