<svg viewBox="0 0 32 32" xmlns="http://www.w3.org/2000/svg"><path d="M28 0H4C1.79 0 0 1.792 0 4v24c0 2.2 1.792 4 4 4h24c2.2 0 4-1.8 4-4V4c0-2.208-1.8-4-4-4Zm-7.74 5.86c0-.59.47-1.07 1.06-1.07 .58 0 1.06.484 1.06 1.06V20.1c0 .58-.48 1.06-1.07 1.06 -.59 0-1.07-.48-1.07-1.07Zm-5.34-.55c0-.59.47-1.07 1.06-1.07 .58 0 1.06.47 1.06 1.06v15.474c0 .58-.48 1.06-1.07 1.06 -.59 0-1.07-.48-1.07-1.07Zm-5.333.54c0-.59.47-1.07 1.06-1.07 .58 0 1.06.484 1.06 1.06v14.25c0 .58-.48 1.06-1.07 1.06 -.59 0-1.07-.48-1.07-1.07ZM4.25 7.98c0-.59.47-1.07 1.06-1.07 .58 0 1.06.47 1.06 1.06v9.59c0 .58-.48 1.06-1.07 1.06 -.59 0-1.07-.48-1.07-1.07Zm23.09 16.271c-.17.14-4.12 3.45-11.36 3.45 -7.25 0-11.2-3.32-11.36-3.46 -.45-.39-.5-1.06-.12-1.51 .38-.45 1.05-.5 1.5-.12 .06.05 3.58 2.94 9.974 2.94 6.464 0 9.93-2.92 9.96-2.95 .44-.39 1.12-.34 1.5.11 .38.44.33 1.12-.12 1.5Zm.375-6.677c0 .58-.48 1.06-1.07 1.06 -.59 0-1.07-.48-1.07-1.07V7.97c0-.59.47-1.07 1.06-1.07 .58 0 1.06.47 1.06 1.06Z"/></svg>