<svg viewBox="0 0 32 32" xmlns="http://www.w3.org/2000/svg"><path d="M8.135 9.359v9.8h.984V9.34Zm18.2.01v9.79h.97v-9.8Zm.97 6.177l3.3 3.61h1.35l-3.44-3.65 3.44-3.365h-1.32Zm-5.35-3.52c-.72 0-1.3.16-1.75.5 -.46.33-.68.81-.68 1.42 0 .34.06.63.19.85 .13.22.3.41.5.55 .2.14.43.266.69.359 .26.09.52.17.78.25 .23.06.45.13.66.2 .21.07.39.15.55.26 .16.1.28.22.38.37 .09.14.14.32.14.54 0 .28-.125.51-.38.71 -.26.19-.65.29-1.18.29 -.81 0-1.47-.33-1.98-.98l-.76.67c.38.42.78.72 1.21.9 .42.18.92.27 1.47.27 .35 0 .7-.05 1.02-.14 .29-.08.57-.21.82-.4 .23-.18.42-.39.55-.64 .13-.26.2-.54.2-.86 0-.35-.07-.63-.21-.86 -.14-.23-.32-.43-.54-.59 -.23-.17-.47-.3-.73-.39 -.27-.1-.53-.19-.8-.28 -.22-.07-.43-.14-.625-.21 -.19-.07-.37-.15-.54-.25 -.15-.09-.27-.21-.37-.34 -.1-.15-.15-.31-.15-.48 0-.28.1-.5.3-.68 .19-.18.55-.28 1.04-.28 .39 0 .72.07 1.01.21 .28.14.54.37.79.68l.01.01 .71-.66c-.37-.43-.74-.72-1.14-.88 -.44-.18-.9-.266-1.36-.26Zm-19.583.05c-.79 0-1.59.125-2.4.375v10.172h.969v-3.63c.24.06.48.12.72.15 .7.1 1.432.06 2.11-.15 .44-.15.84-.35 1.19-.65 .35-.29.63-.66.84-1.11 .21-.45.32-.99.32-1.62 0-.51-.09-.984-.266-1.43 -.18-.43-.44-.82-.766-1.14 -.35-.33-.75-.58-1.2-.74 -.47-.18-.984-.266-1.552-.266Zm11.84 0c-.44 0-.84.07-1.22.21 -.39.15-.73.37-1.01.66 -.31.32-.54.7-.69 1.13 -.17.45-.25.984-.25 1.59 0 .46.06.91.2 1.33 .14.42.34.79.63 1.12 .28.32.63.58 1.05.77 .41.19.91.28 1.46.28 .609 0 1.125-.09 1.55-.28 .42-.19.8-.46 1.13-.81l-.59-.62c-.28.29-.58.51-.92.65 -.359.14-.74.2-1.12.2 -.74 0-1.33-.24-1.76-.7 -.43-.47-.66-1.1-.69-1.9h5.25c.02-1.21-.24-2.125-.76-2.76 -.53-.63-1.3-.95-2.33-.95Zm.04.82c.34 0 .64.05.9.16 .266.1.47.25.641.42 .16.17.28.39.37.64 .08.25.13.52.13.81h-4.25c.07-.55.3-1.06.65-1.47 .15-.18.35-.31.609-.42 .26-.11.56-.16.91-.16Zm-11.807.01c.82 0 1.45.25 1.91.75 .45.5.68 1.15.68 1.96 0 .88-.25 1.55-.734 2.02 -.5.46-1.16.7-1.984.7 -.23 0-.46-.03-.7-.08 -.24-.06-.47-.12-.693-.2v-4.96c.24-.09.49-.15.74-.18 .25-.04.51-.05.77-.05Zm3.17 8.78v.92h5.89v-.93Z"/></svg>