<svg viewBox="0 0 32 32" xmlns="http://www.w3.org/2000/svg"><path d="M9.43 31.401c-.63-.43-1.2-.94-1.66-1.54 -.516-.62-.984-1.27-1.43-1.94 -1.021-1.5-1.82-3.125-2.38-4.849 -.67-2-.99-3.92-.99-5.8 0-2.1.45-3.93 1.33-5.46 .65-1.2 1.625-2.21 2.79-2.91 1.13-.71 2.45-1.1 3.78-1.12 .46 0 .97.06 1.51.19 .38.1.85.28 1.42.49 .72.28 1.13.45 1.266.49 .42.15.78.22 1.06.22 .21 0 .51-.07.85-.18 .19-.07.55-.19 1.07-.42 .51-.19.92-.35 1.24-.47 .49-.15.97-.29 1.4-.35 .52-.08 1.03-.11 1.53-.07 .94.06 1.81.26 2.58.55 1.35.54 2.45 1.4 3.27 2.615 -.35.21-.67.45-.97.734 -.66.57-1.2 1.25-1.65 2 -.58 1.02-.87 2.18-.86 3.359 .02 1.44.39 2.71 1.12 3.81 .52.8 1.2 1.48 2.04 2.04 .41.28.77.47 1.12.6 -.17.5-.34.98-.54 1.46 -.47 1.07-1.02 2.1-1.67 3.08 -.58.83-1.04 1.46-1.375 1.88 -.54.63-1.06 1.12-1.58 1.45 -.58.38-1.25.58-1.94.58 -.47.02-.94-.05-1.38-.17 -.39-.13-.77-.28-1.15-.44 -.4-.18-.8-.34-1.21-.46 -.51-.14-1.04-.2-1.56-.2 -.54 0-1.06.06-1.55.19 -.42.12-.82.26-1.22.43 -.56.23-.93.39-1.141.45 -.43.125-.87.2-1.32.22 -.7 0-1.34-.2-1.98-.6Zm9.14-24.62c-.91.45-1.78.64-2.63.58 -.14-.87 0-1.75.35-2.72 .31-.83.74-1.58 1.33-2.24 .6-.7 1.34-1.266 2.17-1.677C20.67.27 21.5.02 22.31-.01c.1.906 0 1.797-.34 2.76 -.31.85-.76 1.64-1.34 2.34 -.59.69-1.31 1.266-2.12 1.68Z"/></svg>