<svg viewBox="0 0 32 32" xmlns="http://www.w3.org/2000/svg"><path d="M27.35 22.021c.25-.04.5-.15.71-.28 .46-.28.86-.63 1.25-1 .3-.29.59-.59.87-.9 .16-.2.34-.4.5-.6 .14-.2.28-.38.42-.59 .09-.16.19-.31.28-.47 .44-.8.8-1.79.48-2.69 -.05-.125-.11-.25-.17-.359 -.125-.21-.29-.39-.45-.56 -.29-.266-.625-.48-.97-.66 -.5-.25-1.05-.42-1.61-.55 -.81-.19-1.61-.266-2.43-.31 -1.12-.06-2.25-.01-3.349.1 .14.14.26.3.4.44 .26.3.52.625.76.96 .3.39.58.83.86 1.28 .8 1.32 1.4 2.766 1.84 4.22 .14.44.24.88.33 1.34 .04.16.06.34.1.52Zm-24.79-.2c.06-.28.14-.56.21-.83 .1-.41.23-.81.35-1.2 .09-.3.19-.58.3-.86 .12-.31.24-.61.37-.91 .04-.1.08-.21.13-.31 .13-.29.28-.58.42-.86 .18-.32.34-.65.52-.94 .24-.43.5-.81.78-1.19l.02-.03c-.45-.03-.91-.03-1.35-.03 -.33 0-.661.02-.984.06 -.22.02-.44.04-.661.07 -.17.02-.32.06-.48.1 -.79.19-1.67.55-2.047 1.33 -.05.1-.08.2-.12.32 -.042.16-.063.35-.063.54 0 .28.063.56.12.84 .12.42.323.82.521 1.2 .38.66.865 1.28 1.36 1.86l.641.69Zm24.198-.07c-.66-3.07-2.06-6.042-4.26-8.313l-.11-.12 -.06-.06c-.27.01-.54.05-.81.09 -2.875.44-5.69 1.22-8.38 2.28 .22.06.44.125.67.2 .93.3 1.88.62 2.8.96 3.22 1.2 6.33 2.7 9.33 4.427l.78.46Zm-23.604-.19l1.16-1.125c.2-.2.2-.2.4-.375 2.04-1.81 4.427-3.17 6.9-4.29 -.37-.11-.73-.19-1.1-.26 -1.41-.33-2.82-.59-4.25-.71 -.11.16-.22.3-.33.45 -.24.36-.48.7-.69 1.08 -.21.32-.37.64-.53.96 -.14.25-.28.52-.38.78 -.04.05-.06.13-.08.19 -.125.3-.26.59-.38.9 -.1.24-.19.47-.26.72 -.12.38-.24.74-.35 1.125 -.06.19-.12.4-.16.59Zm9.21-6.12c.27-.12.55-.23.83-.34 .31-.125.625-.25.93-.359 1.36-.5 2.74-.93 4.15-1.26 1.16-.29 2.32-.51 3.51-.69l.07-.03c-.33-.31-.67-.57-1-.83 -.65-.48-1.35-.89-2.09-1.21 -1.73-.74-3.63-.98-5.47-.641 -1.01.17-1.99.52-2.891 1 -1.43.76-2.67 1.84-3.7 3.083l-.05.02 .625.06 .76.09c1.08.18 2.125.4 3.18.641 .4.09.78.2 1.16.3Z"/></svg>