<svg viewBox="0 0 32 32" xmlns="http://www.w3.org/2000/svg"><path d="M16.802 16.849l-1.5-.08c-1.26-.05-1.6-.11-1.6-.58 0-.19.13-.43.4-.57 .21.04.44.07.67.07 3.21 0 4.839-1.57 4.839-3.974 0-.41-.1-.76-.31-.98h1.28V8.04h-3.81c-.63-.16-1.2-.266-1.96-.266 -3.391 0-5.073 1.96-5.073 4.24 0 1.42.67 2.45 1.67 2.99 -.78.31-1.359 1.16-1.359 2.05 0 .78.42 1.4 1.07 1.71 -.86.44-1.62 1.53-1.62 2.58 0 2.21 1.8 3.3 4.85 3.3 3.82 0 6.26-2.15 6.26-4.55h-.03c0-2.23-1.44-3.22-3.84-3.3Zm-1.96-6.375c1.19 0 1.79.641 1.79 1.58 0 .94-.67 1.52-1.766 1.52 -1.2 0-1.8-.6-1.8-1.57 0-.91.64-1.55 1.766-1.55Zm2.67 10.073c0 .83-.82 1.48-2.43 1.48 -1.26 0-2-.55-2-1.34 0-.47.3-.95.8-1.33 .12.02.3 0 .44.02l1.79.04c1.06.04 1.44.51 1.44 1.12Zm5.99-6.073c-1.32 0-2.44 1.11-2.44 2.45s1.11 2.43 2.43 2.43c1.34 0 2.46-1.09 2.46-2.44 0-1.35-1.12-2.458-2.47-2.458ZM15.98 0c-8.839 0-16 7.161-16 16 0 8.83 7.161 16 16 16 8.83 0 16-7.17 16-16 0-8.84-7.17-16-16-16Zm0 29.781c-7.609 0-13.79-6.18-13.79-13.79 0-7.61 6.17-13.79 13.78-13.79 7.6 0 13.78 6.17 13.78 13.78 0 7.6-6.18 13.78-13.79 13.78Z"/></svg>