<svg viewBox="0 0 32 32" xmlns="http://www.w3.org/2000/svg"><path d="M25.99 29.198c2.8 0 4.7-1.9 4.7-4.71V4.7c0-2.81-1.91-4.71-4.71-4.71H6c-2.81 0-4.71 1.9-4.71 4.708V31.99l2.41-2.81V4.69c0-1.27 1.03-2.3 2.29-2.3h19.97c1.26 0 2.29 1.02 2.29 2.292V24.47c0 1.26-1.03 2.29-2.3 2.29H9.19l-2.42 2.41 -.02-.02Zm-14.28-13.92H9.45v7.59h2.26c5.057 0 5.057-7.6 0-7.6Zm0 6.07h-.734v-4.56h.734c2.958 0 2.958 4.55 0 4.55Zm-.44-7.52h1.516V7.74h1.891V6.24H9.375V7.74h1.89Zm7.47-4.26L16.115 6.23h-.49v7.714h1.54v-4.24l1.57 2.042 1.57-2.042 -.01 4.24h1.54v-7.72h-.48Zm2.56 9.49c.47-.34.67-.93.69-1.5 .03-1.34-.81-2.31-2.16-2.31h-3.01v7.6h3c1.24-.01 2.24-1.03 2.24-2.26v-.04c0-.62-.31-1.18-.79-1.5Zm-2.95-2.29h1.35c.43 0 .69.33.69.76 .03.4-.29.76-.7.76h-1.36Zm1.35 4.56h-1.36v-1.52h1.37c.41 0 .74.33.74.74v.01c0 .41-.34.75-.75.75Z"/></svg>