<svg viewBox="0 0 32 32" xmlns="http://www.w3.org/2000/svg"><path d="M2.41 14.28c-.07 0-.08-.04-.05-.08l.32-.43c.03-.05.1-.08.16-.08H8.4c.06 0 .07.04.04.09l-.266.4c-.03.04-.11.09-.16.09ZM.05 15.71c-.07 0-.08-.04-.05-.08l.32-.43c.03-.05.1-.08.17-.08h7.1c.06 0 .09.04.07.09l-.125.37c-.02.06-.08.09-.15.09Zm3.77 1.43c-.07 0-.08-.05-.05-.09l.21-.4c.03-.05.09-.1.15-.1H7.24c.06 0 .09.04.09.1l-.04.375c0 .06-.07.1-.11.1Zm16.17-3.15c-.98.25-1.66.43-2.62.68 -.24.06-.25.07-.46-.16 -.23-.266-.41-.44-.73-.6 -.984-.48-1.94-.35-2.82.23 -1.07.68-1.61 1.69-1.59 2.95 .01 1.25.87 2.27 2.099 2.44 1.06.14 1.94-.24 2.651-1.03 .14-.18.26-.36.42-.58h-3.01c-.33 0-.41-.21-.3-.47 .2-.48.57-1.3.79-1.7 .06-.16.22-.25.391-.25h5.67c-.04.42-.04.84-.1 1.266 -.17 1.1-.61 2.15-1.29 3.05 -1.12 1.47-2.59 2.4-4.44 2.64 -1.53.2-2.95-.1-4.193-1.03 -1.16-.87-1.81-2.03-1.98-3.46 -.2-1.7.29-3.23 1.32-4.57 1.1-1.45 2.56-2.365 4.359-2.7 1.46-.266 2.87-.1 4.13.76 .82.54 1.41 1.29 1.8 2.19 .09.14.03.21-.16.266Zm5.15 8.62c-1.42-.04-2.71-.44-3.81-1.375 -.91-.77-1.51-1.84-1.69-3.01 -.29-1.76.2-3.32 1.26-4.71 1.14-1.5 2.51-2.28 4.36-2.599 1.58-.29 3.08-.125 4.44.79 1.22.83 1.99 1.97 2.19 3.46 .26 2.1-.34 3.81-1.8 5.286 -1.03 1.04-2.29 1.69-3.74 1.99 -.42.08-.84.09-1.25.14Zm3.7-6.3c-.02-.21-.02-.36-.05-.52 -.29-1.55-1.7-2.42-3.18-2.08 -1.45.32-2.39 1.25-2.73 2.71 -.28 1.21.31 2.44 1.43 2.94 .85.375 1.71.32 2.53-.1 1.23-.65 1.9-1.64 1.97-2.98Z"/></svg>