<svg viewBox="0 0 32 32" xmlns="http://www.w3.org/2000/svg"><path d="M13.33 7.21c1-1.06 2.46-1.74 4.06-1.74 2.07 0 3.93 1.2 4.91 2.94 .84-.41 1.8-.61 2.8-.61 3.8 0 6.88 3.12 6.88 6.96 0 3.83-3.09 6.95-6.901 6.95 -.46 0-.92-.06-1.36-.15 -.86 1.56-2.5 2.6-4.401 2.6 -.81 0-1.55-.21-2.2-.5 -.88 2.05-2.93 3.49-5.302 3.49 -2.48 0-4.6-1.56-5.41-3.76 -.359.07-.72.09-1.1.09 -2.94 0-5.339-2.41-5.339-5.41 0-2 1.078-3.74 2.677-4.68 -.34-.76-.53-1.61-.53-2.47 0-3.44 2.8-6.2 6.2-6.2 2.04 0 3.79.93 4.95 2.401Z"/></svg>