<svg viewBox="0 0 32 32" xmlns="http://www.w3.org/2000/svg"><path d="M8.52 0L1.39.005v7.12H8.51V-.01Zm7.92 3.593c-1.38 0-2.61.13-3.72.391v5.04c.85-.5 1.95-.76 3.333-.76 1.33 0 2.44.22 3.34.67 1.34.68 2.07 1.83 2.17 3.45h5.4c-.1-2.865-1.17-5.041-3.19-6.547 -2.04-1.505-4.49-2.261-7.36-2.261ZM5.98 11.349c-.02.21-.04.42-.04.64 0 2.64.9 4.58 2.71 5.82 1.077.74 3.04 1.43 5.9 2.06l2.91.64c1.7.36 2.95.78 3.74 1.26 .78.48 1.17 1.17 1.17 2.06 0 1.52-.81 2.561-2.41 3.11 -.85.29-1.95.43-3.31.43 -2.26 0-3.86-.56-4.8-1.67 -.51-.61-.85-1.54-1.02-2.76H5.45c0 2.8 1.01 5 3.04 6.6 2.03 1.6 4.81 2.401 8.35 2.401 3.47 0 6.16-.82 8.06-2.44 1.9-1.625 2.85-3.67 2.85-6.131 0-2.4-.81-4.23-2.41-5.5 -1.04-.82-2.59-1.468-4.67-1.96l-4.73-1.12c-1.83-.43-3.02-.8-3.58-1.12 -.875-.48-1.32-1.2-1.32-2.16 0-.09.02-.17.03-.25Zm23.234 17.776c-1.84.07-1.84 2.79 0 2.86 1.82-.08 1.82-2.8 0-2.87Zm-.03.23s.01 0 .02 0c1.5.08 1.5 2.3 0 2.38 -1.52-.08-1.53-2.3-.03-2.39Zm-.57.34v1.69h.29v-.66h.32l.34.65h.31v-.02l-.38-.71c.09-.04.17-.1.23-.18 .05-.09.08-.19.07-.29 0-.08-.02-.16-.05-.23 -.02-.07-.07-.12-.12-.16 -.06-.05-.13-.09-.2-.1 -.09-.03-.18-.04-.26-.04Zm.29.24h.3c.04 0 .09 0 .14.02 .07.02.13.07.15.14 .03.07.03.15 0 .23 -.02.03-.04.06-.07.08 -.03.02-.06.04-.1.05 -.05.01-.1.02-.14.02h-.31Z"/></svg>