<svg viewBox="0 0 32 32" xmlns="http://www.w3.org/2000/svg"><path d="M3.093 0C1.385 0 0 1.385 0 3.093v25.81c0 1.7 1.385 3.093 3.093 3.093h25.81c1.7 0 3.093-1.39 3.093-3.093V3.08c0-1.708-1.39-3.093-3.093-3.093Zm12.27 5.3l-3.03 12.543c-.06.23-.09.47-.1.71 -.02.19.03.39.11.57 .1.18.26.32.44.4 .2.1.5.17.88.19l-.66 2.67c-1.04 0-1.85-.13-2.43-.4 -.59-.28-1.02-.64-1.27-1.1 -.27-.5-.39-1.05-.38-1.6 0-.61.09-1.25.25-1.93l2.76-11.563Zm5.2 5.18c.81 0 1.5.125 2.099.37 .58.24 1.06.58 1.44 1.01 .375.42.65.92.83 1.5 .18.57.27 1.18.27 1.83 0 1.05-.18 2.02-.53 2.907 -.33.84-.83 1.62-1.45 2.276 -.63.64-1.39 1.15-2.224 1.48 -.86.35-1.81.53-2.817.53 -.49 0-.99-.05-1.48-.13l-.98 3.94H12.49L16.1 11.13c.57-.18 1.24-.34 1.98-.47 .8-.14 1.61-.22 2.433-.21Zm-.42 2.72c-.44-.01-.875.04-1.31.13L17.3 19.66c.24.06.54.08.91.08 .56 0 1.08-.11 1.54-.32 .45-.21.85-.51 1.18-.88 .32-.375.57-.83.76-1.36 .18-.57.28-1.16.27-1.76 0-.625-.14-1.16-.42-1.59 -.28-.44-.76-.66-1.44-.66Z"/></svg>