<svg viewBox="0 0 32 32" xmlns="http://www.w3.org/2000/svg"><path d="M9.016 13.38c0 .39.04.71.12.94 .08.23.19.49.33.766 .05.08.07.17.07.24 0 .1-.07.21-.21.32l-.68.44c-.09.06-.18.09-.28.09 -.11 0-.22-.06-.32-.16 -.15-.16-.28-.32-.39-.5 -.12-.21-.23-.42-.33-.625 -.84.97-1.875 1.46-3.13 1.46 -.9 0-1.609-.26-2.13-.766 -.53-.516-.79-1.2-.79-2.05 0-.91.31-1.641.96-2.2 .65-.56 1.51-.83 2.609-.83 .359 0 .734.03 1.125.08 .39.05.8.14 1.22.23v-.78c0-.81-.17-1.375-.5-1.71 -.34-.33-.92-.49-1.734-.49 -.37 0-.76.04-1.16.13 -.391.09-.78.21-1.146.36 -.125.05-.25.09-.375.14 -.06.01-.11.02-.17.03 -.16 0-.23-.11-.23-.34v-.53c0-.17.02-.3.07-.37 .07-.1.18-.18.29-.23 .375-.2.81-.36 1.339-.48 .54-.15 1.104-.21 1.66-.21 1.271 0 2.19.28 2.792.86 .58.57.88 1.44.88 2.615v3.44ZM4.696 15c.34 0 .71-.07 1.09-.2 .38-.125.72-.359 1.01-.68 .17-.21.3-.43.36-.69 .06-.26.1-.57.1-.93v-.45c-.33-.08-.65-.15-.98-.19 -.33-.05-.67-.07-1-.07 -.72 0-1.234.14-1.59.42 -.36.28-.53.69-.53 1.22 0 .5.125.87.391 1.125 .25.266.63.39 1.12.39Zm8.547 1.15c-.2 0-.33-.04-.41-.11 -.09-.07-.17-.22-.23-.42l-2.5-8.229c-.05-.15-.09-.29-.1-.43 0-.18.08-.266.25-.266h1.04c.2 0 .33.03.41.1 .08.06.15.21.21.41l1.79 7.047 1.66-7.047c.05-.22.11-.36.19-.42 .13-.08.27-.12.42-.11h.84c.2 0 .34.03.42.1 .08.06.16.21.2.41l1.68 7.13 1.83-7.13c.06-.22.14-.36.21-.42 .125-.08.27-.12.41-.11h.99c.17 0 .26.08.26.266 0 .05-.01.1-.03.17 -.02.08-.05.17-.08.266l-2.57 8.22c-.07.21-.14.35-.23.41 -.12.07-.26.11-.41.1h-.92c-.21 0-.34-.04-.43-.11 -.09-.08-.16-.22-.2-.43l-1.66-6.87 -1.641 6.85c-.06.21-.12.35-.21.42s-.24.1-.43.1Zm13.672.28c-.56 0-1.11-.07-1.64-.2 -.54-.125-.95-.266-1.23-.43 -.18-.1-.29-.2-.33-.3 -.05-.1-.07-.2-.07-.3v-.55c0-.23.08-.34.24-.34 .06 0 .13.01.19.03 .06.02.16.06.26.1 .36.16.75.28 1.17.37 .42.08.83.13 1.26.13 .67 0 1.19-.12 1.55-.36 .35-.22.56-.6.55-1.01 0-.28-.1-.55-.29-.75 -.2-.2-.56-.38-1.08-.56l-1.55-.48c-.78-.25-1.36-.61-1.71-1.09 -.35-.45-.54-.984-.54-1.55 0-.45.09-.84.29-1.19 .19-.34.44-.64.76-.87 .31-.25.68-.43 1.1-.56 .42-.13.875-.19 1.34-.19 .23 0 .47.01.71.04s.46.07.69.12c.2.05.41.1.6.16s.34.13.44.19c.125.06.23.15.31.266 .07.1.1.22.09.35v.5c0 .22-.09.33-.25.33 -.15-.02-.29-.06-.41-.125 -.65-.29-1.34-.43-2.05-.42 -.61 0-1.09.09-1.42.29 -.34.2-.5.51-.5.94 0 .29.1.55.31.75 .21.2.6.4 1.17.58l1.51.47c.76.24 1.32.58 1.65 1.02 .32.43.49.93.49 1.49 0 .45-.1.87-.28 1.234 -.2.359-.45.67-.78.93 -.34.266-.73.45-1.19.59 -.48.14-.98.22-1.53.22Zm2.01 5.17c-3.51 2.58-8.59 3.95-12.964 3.95C9.83 25.55 4.3 23.28.13 19.51c-.33-.3-.04-.71.36-.47 4.51 2.61 10.078 4.2 15.83 4.2 3.88 0 8.151-.82 12.08-2.47 .58-.28 1.08.38.51.8Zm1.45-1.67c-.45-.58-2.97-.28-4.099-.14 -.34.04-.4-.26-.09-.49 2-1.41 5.28-1 5.67-.54 .38.48-.11 3.77-1.98 5.34 -.29.24-.57.12-.44-.21 .42-1.06 1.375-3.43.92-3.99Z"/></svg>