<svg viewBox="0 0 32 32" xmlns="http://www.w3.org/2000/svg"><path d="M31.979 12.27c-.05-.14-.17-.3-.45-.35 -.28-.06-9.81-1.875-9.81-1.875s-.15-.04-.27-.1c-.12-.07-.17-.23-.17-.23s-4.71-8.458-4.84-8.71c-.13-.25-.33-.32-.47-.32 -.15 0-.34.06-.47.31 -.13.25-4.839 8.7-4.839 8.7s-.05.16-.17.22c-.125.06-.266.09-.266.09s-9.526 1.82-9.81 1.87c-.28.05-.41.21-.45.34 -.06.21.01.44.167.59l7.151 7.32s.09.1.15.22c.02.13 0 .28 0 .28s-1.59 9.65-1.625 9.93c-.05.27.09.49.21.57 .1.08.3.14.55.01 .25-.125 9.08-4.349 9.08-4.349s.13-.06.27-.08c.13-.03.26.07.26.07s8.83 4.224 9.08 4.349 .45.06.56-.02c.16-.15.24-.36.21-.58 -.04-.19-1.25-7.57-1.25-7.57 1.17-.73 1.9-1.39 2.46-2.34 -3.46 1.29-8.01 2.29-12.56 2.49 -1.23.05-3.22.13-4.635-.03 -.91-.1-1.56-.2-1.66-.59 -.07-.29.07-.62.72-1.11 1.27-.96 2.542-1.92 3.81-2.87 1.71-1.3 4.74-3.3 4.74-3.65 0-.375-2.859-1.04-5.38-1.04 -2.6 0-3.04.17-3.75.22 -.66.04-1.03 0-1.08-.19 -.08-.33.24-.516.78-.76 .94-.43 2.47-.8 2.64-.84 .26-.08 4.109-1.08 7.49-.72 1.75.18 4.32.891 4.32 1.69 0 .45-2.3 1.99-4.302 3.46 -1.54 1.125-2.958 2.08-2.958 2.25 0 .45 4.714 1.65 8.92 1.34l0-.04c.06-.12.15-.23.15-.23l7.151-7.318c.15-.16.21-.39.16-.6Z"/></svg>