<svg viewBox="0 0 32 32" xmlns="http://www.w3.org/2000/svg"><path d="M15.62 0C7.302-.021 2.12 5.396 2.26 13.76c-.1 5.214 1.91 9.339 5.5 11.64 .88.54 1.81.98 2.849 1.32l2.901 4.46c.44 1.13.93 1.03 1.13-.15l.78-3.59H16c3.29.09 6.09-.7 8.302-2.12 3.49-2.32 5.5-6.4 5.4-11.599 .14-8.5-5.17-13.96-13.71-13.755 -.14 0-.27-.005-.41-.005Zm6.09 6.18c.34 0 .69.12.93.36 .24.25.39.59.39.984 0 .19 0 .39-.1.54l-4.97 12.33c-.35.58-.84.73-1.19.73 -.73-.01-1.32-.6-1.33-1.33 0-.2.04-.35.09-.55L20.44 6.95c.09-.2.19-.35.29-.45 .25-.24.58-.37.93-.37ZM12.6 9.99c.41 0 .83.16 1.15.47h0c.29.29.49.68.43 1.13 0 .44-.2.78-.49 1.13 -.3.34-.69.49-1.13.49 -.45 0-.79-.2-1.13-.5 -.35-.3-.5-.69-.5-1.13 0-.45.19-.84.49-1.13 .31-.33.734-.48 1.15-.48Zm0 6.63c.41 0 .83.16 1.15.48h0c.29.34.49.73.43 1.13 -.01.42-.19.83-.49 1.13 -.3.34-.69.49-1.13.49 -.43-.01-.84-.19-1.13-.49 -.35-.3-.5-.69-.5-1.13 0-.45.19-.84.49-1.13 .31-.33.734-.49 1.15-.49Z"/></svg>