<svg viewBox="0 0 32 32" xmlns="http://www.w3.org/2000/svg"><path d="M5.58 7.22C3.116 7.21-.18 8.77 0 12.69c.281 6.125 6.55 6.69 9.068 6.74 .27 1.14 3.224 5.1 5.41 5.31h9.57c5.74-.38 10.03-17.365 6.85-17.427 -5.28.25-8.396.37-11.073.39v5.29l-.84-.37 -.01-4.94c-3.08 0-5.79-.15-10.92-.4 -.65-.01-1.55-.12-2.5-.12Zm.34 2.167h.29c.34 3.14.91 4.974 2.06 7.78 -2.94-.35-5.432-1.2-5.891-4.38 -.24-1.65.56-3.37 3.526-3.401Zm11.41 3.08c.19 0 .4.04.59.13l1 .43 -.72 1.3c-.11 0-.22.01-.33.05 -.47.15-.71.6-.55 1.02 .03.08.08.16.15.22l-1.24 2.25c-.1 0-.21.01-.3.05 -.47.14-.71.6-.55 1.01 .17.41.68.63 1.15.47 .46-.15.7-.61.53-1.03 -.05-.11-.12-.21-.21-.3l1.2-2.19c.13.01.26 0 .39-.05 .1-.04.19-.09.28-.16 .46.19.84.35 1.12.49 .4.2.55.33.59.49 .04.14-.01.42-.24.92 -.18.37-.46.89-.8 1.51 -.12 0-.23.01-.34.05 -.47.15-.71.6-.55 1.02 .16.41.68.625 1.14.47 .46-.16.7-.61.54-1.03 -.05-.1-.11-.2-.19-.28 .33-.61.62-1.14.8-1.53 .25-.54.38-.94.26-1.33 -.12-.39-.47-.64-.94-.87 -.31-.16-.7-.32-1.15-.51 0-.11-.01-.22-.06-.32 -.05-.11-.11-.2-.2-.29l.7-1.29 3.9 1.68c.7.3.99 1.05.65 1.68l-2.69 4.9c-.34.625-1.19.88-1.89.57l-5.52-2.38c-.71-.31-1-1.06-.66-1.69l2.68-4.91c.23-.44.7-.69 1.2-.71h.08Z"/></svg>