<svg viewBox="0 0 32 32" xmlns="http://www.w3.org/2000/svg"><path d="M20.167 8.54c.01.13.01.26 0 .39 -.05.78-.4 1.36-.875 1.84 -.52.516-1.22.8-1.95.8 -.75.02-1.46-.26-2-.76 -1.15-1.06-1.22-2.85-.17-4l.13-.14c.46-.46 1-.73 1.82-.81 .77-.06 1.53.21 2.11.74 .52.49.85 1.17.92 1.9Zm11.28 9.71l-.84 1.625c-.25.47-.42.99-.5 1.52l-.29 1.81c-.24 1.58-1.24 2.95-2.67 3.67l-1.65.81c-.49.24-.93.56-1.31.94l-1.3 1.31c-1.125 1.14-2.74 1.66-4.317 1.4l-1.81-.31c-.54-.09-1.08-.09-1.61 0l-1.81.3c-1.59.26-3.2-.26-4.32-1.41l-1.3-1.32c-.38-.39-.819-.71-1.303-.95l-1.64-.82c-1.44-.72-2.428-2.09-2.67-3.68l-.29-1.82c-.08-.532-.25-1.05-.5-1.53L.45 18.17c-.74-1.43-.74-3.11 0-4.54l.84-1.64c.24-.48.41-.99.48-1.52l.28-1.82c.24-1.59 1.24-2.96 2.672-3.68l1.64-.82c.48-.25.91-.57 1.303-.95l1.28-1.31C10.07.74 11.68.22 13.27.48l1.8.3c.52.08 1.07.08 1.6 0l1.8-.31c1.58-.261 3.19.26 4.323 1.4l1.29 1.3c.38.38.81.7 1.3.94l1.63.81c1.43.71 2.42 2.08 2.67 3.67l.28 1.81c.07.53.24 1.05.48 1.52l.84 1.63c.74 1.41.74 3.109.01 4.53Zm-9.72-9.78c-.03-.61-.19-1.2-.46-1.73 -.83-1.593-2.52-2.56-4.31-2.44 -.18.02-.34.03-.49.05 -.97.18-1.84.67-2.5 1.407 -.81.88-1.21 2.05-1.12 3.24 .1 1.23.65 2.292 1.44 2.97 .58.5 1.32.95 2.25 1.08 1.78.27 3.15-.44 4.041-1.41 .79-.875 1.19-2.04 1.12-3.22ZM8.73 17.49c.32-.19.641-.38.95-.56 -.11-1.29-.22-2.68-.32-3.88 1.31-.55 2.24-1.62 2.65-3.12 .33-1.21.19-2.64-.43-3.433 -.21-.29-.49-.51-.8-.66 -.55-.2-1.2-.05-1.64.14 -.25.1-.48.24-.7.4 -.43.3-.82.641-1.18 1.032 .38 3.32.76 6.81 1.13 10.208 .09-.05.19-.1.3-.17Zm.17-9.54c.02-.11.26-.25.36-.32 .16-.12.36-.2.56-.22 .61-.03.76.5.79 1.09 .02.31.02.63 0 .94 -.08 1.04-.58 1.71-1.391 2.05 -.07-.66-.11-1.44-.19-2.19 -.04-.31-.09-.71-.125-1.07 -.02-.1-.03-.21-.03-.32Zm-1.52 8.37c-.14-.56-.32-1.1-.57-1.62 -.24-.53-.41-1.09-.5-1.66 -.09-.8.06-1.5.57-1.87 -.19-.62-.35-1.23-.54-1.83 -1.1.58-1.87 1.641-1.87 3.208 0 .96.359 1.59.7 2.292 .23.45.43.92.593 1.42 .15.53.3 1.11.26 1.66 -.1 1.05-.54 1.79-1.104 2.42 -.06.06-.25.22-.25.26 .03.07.06.14.11.21 .22.47.42.875.65 1.33 .03.06.06.2.1.22 .04.02.13-.09.19-.16 .18-.2.37-.42.53-.64 .93-1.29 1.495-3.3 1.06-5.3Zm3.7 2.22c.45-1.31.89-2.65 1.23-4.02 .09-.41.22-.82.3-1.24 .01-.05.04-.15 0-.17 -.593.18-1.22.33-1.8.52 -.25 2.03-.85 3.83-1.54 5.53 -.69 1.69-1.53 3.25-2.4 4.74 1.07 1.16 2.447 2.05 3.947 2.79 .27-.46.56-.9.82-1.35 -.923-.57-1.88-1.1-2.67-1.8 .78-1.65 1.47-3.33 2.08-5.041Zm3.5-3.58c-.38-.26-.86-.45-1.28-.68 -.83 3.18-1.94 6.12-3.01 9.1 .36.2.72.42 1.109.63 .71-1.4 1.15-2.89 1.72-4.401 .28-.74.516-1.51.74-2.276 .24-.78.47-1.59.68-2.4Zm3.22 9.32v-1.33c0-.31-.02-.64-.03-1.17 -.8.1-1.61.16-2.391.28 -.04.43-.04.89-.06 1.36 .34.02.9-.05 1.25-.05 0 .65 0 1.21.01 1.76 0 .21.03.42-.03.6 -.08.27-.36.43-.72.4 -.42-.05-.74-.48-.92-.82 -.62-1.22-.42-3.22-.18-4.56 .15-.92.48-1.79.97-2.567 .45-.73 1.08-1.34 1.98-1.6 0-.37-.02-.88-.05-1.3 -.02-.19 0-.43-.05-.53 -.02-.02-.04.01-.05.01 -.55.19-1.06.47-1.51.85 -.67.51-1.22 1.15-1.625 1.88 -.15.25-.28.51-.38.78 -.484 1.07-.71 2.32-.85 3.7 -.1 1.05-.12 2.02.04 2.97 .05.3.14.6.25.9 .39 1.03 1.15 1.89 2.7 1.68 .593-.09 1.07-.32 1.57-.532 0-.99-.02-2.02-.02-2.79Zm4.74-5.97c-.08-.76-.13-1.5-.14-2.26 -.04-1.05 0-2.06.05-3.1 0-.02 0-.02-.02-.02 -.41.31-.87.641-1.31.95 -.07.04-.12.09-.17.15 -.02.08-.02.18 0 .27 -.02 1.5.07 3.09.11 4.44 -.38.15-.74.36-1.12.5 -.15-1.52-.27-3.03-.35-4.55 -.5.17-.95.375-1.43.55 .09.74.2 1.44.27 2.13 .11 1.08.17 2.17.18 3.26 0 .31 0 .63-.02.94 -.05.66-.04 1.33-.08 2 -.11 1.27-.09 2.64-.09 3.86 .25-.12.5-.27.76-.39s.5-.25.74-.4c0-.49.02-.87.03-1.28 .04-1.59.08-2.907.03-4.32 .42-.2.85-.41 1.3-.593 .3 1.8.91 3.39 1.45 5 .45-.35.85-.77 1.29-1.15 -.32-.84-.59-1.7-.82-2.56 -.37-1.14-.62-2.317-.74-3.51Zm3.44-5.05c.25-.11.49-.27.74-.39 .24-.13.47-.26.71-.41 -.46-1.3-1.02-2.47-1.79-3.48 -.75-1-1.64-1.891-2.64-2.65 0-.03-.04 0-.04.01 -.25.3-.48.62-.69.96 -.05.07-.2.28-.19.36 .06.08.14.16.23.23 .08.08.18.16.24.22 .4.41.74.78 1.11 1.23 .05.06.18.21.18.28 -.03.125-.06.24-.1.36 -.19.64-.31 1.26-.42 1.94 -.23 1.3-.3 2.63-.2 3.94 .09 1.4.36 2.67.67 3.9 .14.6.32 1.2.54 1.79 .17.43.33.87.53 1.27 .06.12.09.29.21.38 .38-.5.78-.97 1.157-1.46 -.57-1-.95-2.22-1.24-3.49 -.12-.45-.2-.9-.24-1.35 -.17-1.84-.24-3.82.26-5.55 .39.57.69 1.19.89 1.83Z"/></svg>