<svg viewBox="0 0 32 32" xmlns="http://www.w3.org/2000/svg"><path d="M16 32C7.183 32 0 24.817 0 16 0 7.183 7.183 0 16 0c8.817 0 16 7.183 16 16s-7.183 16-16 16Zm13.49-13.82c-.47-.15-4.23-1.28-8.52-.59 1.78 4.91 2.51 8.91 2.657 9.74 3.067-2.08 5.24-5.36 5.85-9.17Zm-8.16 10.41c-.21-1.2-1-5.375-2.92-10.36l-.09.02C10.6 20.93 7.84 26.28 7.6 26.78c2.3 1.8 5.22 2.88 8.38 2.88 1.89 0 3.69-.39 5.33-1.09ZM5.84 25.15c.3-.54 4.05-6.74 11.1-9.021 .17-.07.35-.12.53-.17 -.35-.79-.72-1.56-1.11-2.317C9.53 15.67 2.91 15.59 2.31 15.57l-.01.41c0 3.51 1.32 6.71 3.511 9.14ZM2.61 13.2c.61.01 6.24.03 12.63-1.67C12.97 7.5 10.53 4.11 10.17 3.62 6.35 5.42 3.49 8.946 2.6 13.186ZM12.794 2.71c.375.51 2.859 3.885 5.093 8 4.85-1.82 6.92-4.584 7.16-4.932 -2.42-2.16-5.59-3.448-9.063-3.448 -1.1 0-2.18.129-3.2.38ZM26.57 7.35c-.29.38-2.58 3.32-7.631 5.38 .31.65.625 1.31.907 1.984 .1.24.19.48.29.7 4.54-.58 9.06.34 9.521.44 -.03-3.23-1.18-6.19-3.08-8.511Z"/></svg>