<svg viewBox="0 0 32 32" xmlns="http://www.w3.org/2000/svg"><path d="M29.86 8c-.23-.39-.532-.73-.88-.93L17.22.28c-.68-.4-1.79-.4-2.47-.001L2.99 7.059c-.68.391-1.24 1.35-1.24 2.135v13.57c0 .39.14.82.36 1.21 .21.38.532.72.871.91l11.74 6.791c.68.39 1.78.39 2.46 0l11.75-6.791c.33-.2.64-.532.87-.92 .22-.39.35-.83.35-1.22V9.164c0-.391-.14-.83-.36-1.22ZM16 25.479c-5.23 0-9.48-4.25-9.48-9.479 0-5.23 4.24-9.48 9.47-9.48 3.38 0 6.51 1.81 8.2 4.73l-4.11 2.37c-.85-1.47-2.42-2.365-4.11-2.38 -2.615 0-4.74 2.125-4.74 4.74 0 2.61 2.125 4.74 4.74 4.74 1.69-.01 3.25-.907 4.1-2.38l4.1 2.37c-1.7 2.92-4.823 4.72-8.21 4.73Zm9.479-8.96h-1.06v1.05h-1.06v-1.06h-1.06v-1.06h1.05v-1.06h1.05v1.05h1.05Zm3.94 0h-1.06v1.05h-1.06v-1.06h-1.06v-1.06h1.05v-1.06h1.05v1.05h1.05Z"/></svg>