<svg viewBox="0 0 32 32" xmlns="http://www.w3.org/2000/svg"><path d="M27.29 0c2.6 0 4.7 2.104 4.7 4.708v22.58c0 2.6-2.11 4.7-4.71 4.7H4.69c-2.61 0-4.71-2.11-4.71-4.71V4.69C-.02 2.09 2.08-.02 4.68-.02Zm-4.94 19.29c-1.05 0-1.89.84-1.89 1.88s.83 1.88 1.88 1.88c1.04 0 1.88-.86 1.88-1.91 0-1.04-.84-1.875-1.88-1.875Zm-10.88 3.7c1.6 0 2.74-.06 3.44-.16 .69-.12 1.29-.3 1.76-.56 .59-.31 1.03-.76 1.35-1.32 .31-.57.48-1.23.48-1.98 0-1.05-.29-1.87-.84-2.5 -.57-.64-1.33-.98-2.33-1.06 .88-.24 1.54-.6 1.94-1.09 .41-.46.61-1.1.61-1.9 0-.641-.14-1.19-.4-1.69 -.29-.48-.66-.86-1.18-1.16 -.46-.27-.98-.43-1.62-.55 -.62-.1-1.72-.17-3.3-.17H7.48v13.98h3.94Zm.98-5.58c.93 0 1.577.11 1.91.34 .36.24.52.66.52 1.24 0 .54-.19.92-.56 1.14 -.37.24-1.03.33-1.923.33H11.05v-3.07h1.4Zm11.54.94V8.93H20.7v9.417ZM11.88 12.09c.94 0 1.577.1 1.9.32 .32.21.49.57.49 1.1 0 .51-.18.86-.516 1.07 -.36.2-1 .31-1.94.31h-.77v-2.82Z"/></svg>