<svg viewBox="0 0 32 32" xmlns="http://www.w3.org/2000/svg"><path d="M15.44 7.02c2.44 0 4.74 1.08 6.43 2.77v0c0-.82.54-1.43 1.3-1.43h.19c1.19 0 1.43 1.125 1.43 1.48l0 12.63c-.09.82.85 1.25 1.37.72 2.02-2.09 4.45-10.719-1.27-15.719C19.56 2.8 12.41 3.57 8.6 6.19 4.55 8.98 1.98 15.14 4.49 20.94c2.74 6.31 10.57 8.204 15.23 6.32 2.36-.96 3.44 2.23.99 3.276 -3.7 1.57-14 1.41-18.812-6.92 -3.26-5.63-3.08-15.54 5.54-20.661C14.032-.97 22.734.12 27.978 5.59c5.48 5.72 5.16 16.44-.19 20.61 -2.43 1.89-6.03.05-6-2.71l-.03-.9c-1.69 1.67-3.94 2.651-6.375 2.651 -4.84 0-9.09-4.256-9.09-9.084 0-4.88 4.25-9.181 9.08-9.181Zm6.07 8.83c-.19-3.54-2.808-5.667-5.98-5.667h-.12c-3.66 0-5.69 2.88-5.69 6.145 0 3.66 2.45 5.97 5.67 5.97 3.593 0 5.95-2.63 6.12-5.74Z"/></svg>