<svg viewBox="0 0 32 32" xmlns="http://www.w3.org/2000/svg"><path d="M15.974 0C7.573 0 .68 6.47.03 14.71L8.6 18.25c.72-.5 1.6-.79 2.55-.79 .08 0 .16 0 .25 0l3.81-5.53v-.08c0-3.33 2.7-6.04 6.03-6.04 3.32 0 6.03 2.708 6.03 6.036 0 3.32-2.71 6.03-6.04 6.03h-.14l-5.44 3.88c0 .07 0 .14 0 .21 0 2.5-2.03 4.526-4.53 4.526 -2.18 0-4.021-1.57-4.45-3.64L.53 20.302c1.9 6.71 8.06 11.64 15.39 11.64 8.83 0 15.99-7.17 15.99-16 0-8.84-7.17-16-16-16Zm-5.93 24.281l-1.97-.82c.34.72.95 1.32 1.75 1.66 1.72.71 3.724-.11 4.44-1.84 .34-.85.34-1.76 0-2.599 -.35-.85-1-1.5-1.84-1.85 -.83-.35-1.72-.34-2.5-.05l2.026.83c1.27.53 1.88 2 1.34 3.276 -.54 1.27-2 1.88-3.276 1.34ZM25.26 11.87c0-2.22-1.81-4.021-4.02-4.021 -2.23 0-4.03 1.8-4.03 4.021 0 2.21 1.79 4.02 4.02 4.02 2.21 0 4.01-1.81 4.01-4.03Zm-7.03-.01c0-1.68 1.34-3.03 3.01-3.03 1.66 0 3.02 1.34 3.02 3.02 0 1.66-1.36 3.02-3.03 3.02 -1.67 0-3.02-1.36-3.02-3.03Z"/></svg>