<svg viewBox="0 0 32 32" xmlns="http://www.w3.org/2000/svg"><path d="M3.67 32l.88-.2c.27-.06.55-.12.82-.17 .42-.09.84-.17 1.27-.25 .32-.06.641-.11.96-.18l.07-.03c.33-.06.66-.12.99-.16l1.61-.24V-.04h-.06C9.37-.04 8.53-.02 7.7 0 6.77.02 5.84.08 4.91.14c-.4.02-.8.063-1.2.09h-.06v31.708ZM11.87.02V30.6c1.15-.14 2.29-.25 3.44-.33 2.82-.22 5.66-.29 8.5-.21 1.5.04 3 .13 4.49.26V1.98c-1.34-.31-2.69-.58-4.04-.812C21.63.7 18.98.39 16.333.19c-1.49-.11-2.98-.18-4.47-.197Zm14.35 19.72l-.07-.01 -.76-.09c-1.87-.2-3.74-.33-5.61-.39 -1.875-.07-3.75-.05-5.629.02h-.06c-.07 0-.12 0-.19-.03 -.14-.05-.26-.1-.36-.2 -.18-.19-.25-.43-.21-.67 .01-.09.03-.14.07-.23 .03-.06.08-.14.13-.18 .05-.06.12-.1.19-.15 .08-.04.16-.06.24-.08h.11c.26 0 .52-.03.76-.03 1.85-.05 3.69-.05 5.55.03 1.92.08 3.82.22 5.71.44l.2.02c.05.02.11.02.17.03 .14.06.26.14.34.24 .05.05.09.13.13.21 .04.07.06.15.06.24 .02.21-.07.43-.22.59 -.07.06-.125.09-.19.14 -.07.04-.14.05-.22.07 -.05.02-.07.02-.12.02h-.07Zm.04-3.62c-.07 0-.07 0-.125-.02l-.74-.1c-1.86-.24-3.74-.4-5.593-.48 -1.86-.1-3.74-.12-5.62-.08l-.07-.02c-.06-.03-.12-.03-.18-.05 -.12-.04-.27-.12-.34-.22 -.05-.07-.11-.15-.12-.2 -.11-.23-.11-.48.01-.7 .04-.09.08-.15.14-.21 .05-.06.12-.12.19-.14 .08-.05.16-.09.23-.09l.12-.02 .78-.03c1.86-.03 3.69.02 5.536.12 1.92.09 3.82.28 5.71.52l.2.02 .12.02c.14.04.26.09.35.21 .16.16.24.38.21.59 0 .08-.02.16-.06.21 -.05.08-.09.14-.12.2 -.05.05-.1.1-.19.16 -.06.03-.15.05-.22.07l-.12.02h-.06Zm0-3.62c-.07 0-.07 0-.125-.02l-.74-.11c-1.86-.26-3.72-.45-5.593-.58 -1.86-.12-3.74-.18-5.62-.18h-.07l-.12-.03c-.08-.02-.15-.05-.22-.09 -.2-.125-.34-.34-.39-.59 0-.09 0-.17.02-.24 .02-.09.04-.16.07-.23 .04-.08.1-.14.16-.2 .09-.1.23-.17.38-.2 .06-.02.12-.03.18-.03h.76c1.91.01 3.83.08 5.73.22 1.85.14 3.69.34 5.541.609l.19.02c.06.01.08.01.12.02 .07.02.16.06.21.1 .08.04.14.1.18.16 .04.06.07.13.12.21 .08.2.05.44-.05.63 -.04.07-.08.14-.15.19 -.1.09-.22.16-.36.19 -.04.01-.06.01-.12.02l-.06 0Zm0-3.62c-.07 0-.07 0-.125-.02l-.74-.12c-1.86-.31-3.72-.53-5.593-.67 -1.86-.17-3.74-.24-5.62-.29h-.07l-.14-.02c-.08-.02-.16-.07-.22-.1 -.08-.05-.14-.11-.19-.17 -.05-.07-.09-.15-.13-.2 -.03-.09-.05-.17-.06-.25 -.03-.24.06-.5.23-.66 .09-.1.23-.17.37-.21 .05-.02.11-.02.17-.02 .25 0 .5 0 .76.01 1.91.04 3.82.15 5.73.32 1.84.15 3.69.39 5.52.69l.18.02c.05 0 .06 0 .11.01 .08.02.14.06.21.1 .06.03.12.1.16.15 .11.18.17.4.14.62 -.03.08-.05.14-.09.22 -.05.05-.1.13-.17.17 -.1.1-.22.16-.36.2h-.19ZM5.36 8.19c-.12 0-.24-.03-.36-.09 -.27-.13-.43-.391-.45-.68 0-.08.02-.16.04-.22 .02-.1.06-.18.12-.26 .06-.09.14-.17.21-.22 .1-.07.22-.11.32-.125l.64-.06c.87-.08 1.74-.14 2.6-.2h.07c.14 0 .26.03.36.09 .26.13.42.4.42.69 0 .07-.03.14-.05.21 -.03.08-.06.17-.12.24 -.06.1-.15.16-.22.22 -.1.05-.21.09-.33.12 -.14.02-.28.02-.42.03 -.19.02-.38.02-.59.04l-1.56.11 -.38.04c-.08.02-.17.02-.27.02ZM26.23 5.25l-.13-.02 -.74-.14c-1.87-.32-3.75-.57-5.62-.76 -1.86-.19-3.74-.3-5.62-.36h-.07l-.12-.03c-.08-.03-.14-.05-.22-.1 -.06-.05-.12-.1-.18-.17 -.17-.19-.23-.44-.17-.68 .02-.09.05-.17.1-.24 .04-.09.09-.15.16-.21 .09-.1.23-.17.38-.2 .05-.03.12-.03.17-.03l.78.02c1.859.07 3.69.19 5.536.4 1.92.19 3.817.47 5.71.79l.19.02c.06 0 .08 0 .12.02 .08.02.16.06.22.09 .17.14.29.34.31.56 .02.07 0 .15-.03.24 0 .07-.04.16-.08.21 -.05.06-.09.12-.14.18 -.1.1-.24.15-.38.17l-.12.02h-.07ZM5.34 4.22c-.12 0-.23-.03-.34-.08 -.1-.05-.19-.12-.25-.19 -.07-.08-.12-.16-.16-.25 -.03-.07-.05-.14-.06-.21 -.03-.29.1-.57.34-.73 .1-.07.21-.12.34-.14 .21-.02.42-.02.63-.04 .86-.07 1.73-.1 2.599-.14h.06c.12.02.24.04.33.09 .23.14.4.42.4.69 0 .08-.03.16-.05.22 -.05.09-.08.17-.14.26 -.07.07-.15.15-.25.19 -.1.06-.22.09-.34.09C8.31 4 8.16 4 8 4l-.6.04c-.54.03-1.06.05-1.58.09l-.4.02c-.1.02-.18.02-.27.02Z"/></svg>