<svg viewBox="0 0 32 32" xmlns="http://www.w3.org/2000/svg"><path d="M.1 12.36H2.66c.58 0 1.26.53 1.58.83l4.48 4.923v-5.76h1.53v7.86h-2.67c-.48-.04-.95-.14-1.495-.66L1.6 14.62v5.573H.08Zm31.792 7.9c-1.83.25-3.67.26-5.53.12 -1.09-.07-2.15-.34-3.12-.82 -1.23-.65-1.63-2.06-1.61-3.34 0-1.18.36-2.44 1.42-3.14 .69-.41 1.45-.66 2.25-.75 2.16-.38 4.33-.3 6.45-.06v1.12c-2.5-.48-5.14-.359-6.03.77 -.45.56-.68 1.28-.64 2 0 1.06.375 2.66 2.56 2.99 1.42.19 2.83.04 4.21-.21Zm-15.64-1.23c.21 0 3.65.02 4.83 0v1.17c-2.39.09-4.67.13-7.07.04 -2.05-.09-2.401-1.093-2.43-2.067v-5.83h9.36v1.11H14.89v2h5.53v1.09h-5.54l.02 1.375c.02.76.4 1.03 1.32 1.093Z"/></svg>