<svg viewBox="0 0 32 32" xmlns="http://www.w3.org/2000/svg"><path d="M12.495 0c-.42.01-1.24.12-2.026.87 -1.17 1.099-6.97 6.609-9.3 8.823 -1.052 1-.958 2.125-.958 2.21v.5c.08-.391.25-.67.56-1.11 .66-.82 1.73-1.05 2.17-1.1 2.89-.391 5.792-.64 8.703-.734 5.78-.19 9.599.3 9.599.3l8.1-7.73s-4.25-.81-9.1-1.37c-2.5-.302-5.01-.531-7.52-.69 -.03 0-.12-.02-.26-.01ZM30.57 3.344l-8.09 7.71s.29 3.84-.19 9.59c-.26 3.26-.79 6.49-1.17 8.65 -.07.43-.35 1.49-1.24 2.13 -.39.26-.66.39-1 .47 2.05-.68 1.45-9.396 1.45-9.396 -5.79.18-9.62-.3-9.62-.3L2.6 29.9s4.292.84 9.135 1.39c2.74.31 6.448.57 6.97.61 .02 0 .05-.01.08-.02 -.02 0-.04.01-.05.01 .18 0 .34.02.5.02 .11 0 1.23.14 2.28-.87 2.32-2.22 8.1-7.75 9.25-8.85 1.05-1.01.96-2.125.96-2.24 -.01-2.52-.1-5.04-.28-7.54 -.33-4.87-.94-9.17-.94-9.17Zm-25.44 7.72c-2.307 0-4.677.27-4.927 1.359 .02 1.625.06 4.18.27 7.042 .32 4.87.938 9.18.938 9.18l8.109-7.72c-.03.02-.32-3.85.16-9.599 0 0-2.245-.28-4.552-.266Z"/></svg>