<svg viewBox="0 0 32 32" xmlns="http://www.w3.org/2000/svg"><path d="M10.76 32c-.47 0-.93-.09-1.359-.25 -1.84-.71-2.81-2.7-2.31-4.54l-.03-.01 .12-.31L16.5 2.67c.14-.37.07-1.22.01-1.7 -.03-.12-.03-.22.01-.32l.01-.04 0-.03V.57l.01-.03c.14-.385.59-.583 1.34-.583 .89 0 2.13.281 3.4.766 1.06.4 2.03.917 2.7 1.43 .8.59 1.125 1.141.94 1.59l-.05.06 -.03.01c-.06.08-.12.16-.2.22 -.43.359-1.03.97-1.12 1.26l-9.42 24.55 -.03-.01c-.66 1.26-1.95 2.07-3.391 2.07h-.01Zm-2.917-4.96l-.03.06c-.6 1.59.21 3.41 1.81 4.026 .359.13.734.2 1.11.2 1.29 0 2.44-.79 2.917-2l.03-.09 9.28-24.12c.19-.52 1.12-1.36 1.3-1.52l.02-.03c.01-.02.03-.02.03-.04 0-.09-.09-.359-.75-.859 -.65-.484-1.54-.97-2.54-1.35C19.85.87 18.66.59 17.85.59c-.53 0-.7.1-.73.17v.05c.02.135.19 1.38-.05 2.021L7.789 26.98Zm11.932-15.35s-1.29 1.47-2.46 2.016c-1.18.53-2.04.391-3.1 1 -1.06.61-1.59 1.47-1.59 1.47L8.33 27.322c-.47 1.26.22 2.73 1.5 3.22 1.28.49 2.71-.17 3.21-1.42ZM13.19 25c.13-.06.29 0 .35.13 .05.14 0 .29-.15.35 -.15.05-.31 0-.36-.15 -.06-.125 0-.29.14-.35Zm-1.36-2.407c-.21.09-.45 0-.54-.21 -.09-.21 0-.45.2-.54 .2-.1.44 0 .53.2 .09.2.01.41-.21.52Zm.38-1.46c-.17-.39 0-.84.38-1.01 .38-.17.81 0 1 .38 .16.38 0 .82-.38 1 -.41.17-.84 0-1.03-.38Zm3.23-3.01c.2-.1.44 0 .53.19 .09.2 0 .44-.21.53 -.21.09-.45 0-.54-.21 -.1-.2 0-.45.2-.53Zm-1.73-1.84c.14-.06.3 0 .35.13 .05.14 0 .3-.14.35 -.15.05-.31 0-.36-.15 -.06-.15.01-.31.13-.36Zm4.49-14.79c.13-.35 1.32-.22 2.66.3 1.33.51 2.3 1.208 2.17 1.55 -.14.35-1.33.21-2.67-.3 -1.34-.516-2.32-1.22-2.18-1.57Z"/></svg>