<svg viewBox="0 0 32 32" xmlns="http://www.w3.org/2000/svg"><path d="M3.276 1.83c-.82 0-1.6.3-2.21.85C-.19 3.83-.29 5.78.72 7.16l6.552 8.78L.68 24.8c-1.02 1.375-.94 3.32.33 4.48 1.428 1.3 3.66 1.08 4.82-.46l9.2-12.38c.21-.31.21-.72 0-1.02L5.86 3.1c-.62-.83-1.59-1.32-2.62-1.32Zm25.453 0c-1.04-.01-2.02.48-2.625 1.312l-9.15 12.29c-.23.3-.23.71 0 1.016l9.18 12.396c1.15 1.54 3.39 1.76 4.82.45 1.27-1.16 1.35-3.11.33-4.49l-6.6-8.87 6.55-8.79c1.01-1.375.91-3.33-.34-4.484 -.61-.55-1.39-.85-2.21-.86Z"/></svg>