<svg viewBox="0 0 32 32" xmlns="http://www.w3.org/2000/svg"><path d="M20.953 6.18l-2.97 1.979 -3.06-4.59 2.96-1.99Zm2.41 13.776l5.073 7.6 -6.041 4.03 -5.97-8.94 6.04-4.04Zm-7.62 5.07l1.12 1.67 -4.61 3.07 -2-3 4.599-3.08Zm10.13-8.68l1.29-.86 2 3 -2.97 1.98 -1.12-1.68 1.68-1.12Zm-.8 2.44l-.89-1.33 1.68-1.12 .88 1.32ZM5.04 16.76l-1.01.67L.96 12.84l4.6-3.07L7.7 12.99l.91 1.36ZM15.33 7.9l.91 1.37 -6.05 4.032 -.92-1.38L4.24 4.39 10.28.35Zm4.31-.9l-1.69 1.12 -.92-1.37 -2.15-3.213 2.96-1.99L20.9 6.14Zm-7.51 20.396l-.89-1.33 3.593-2.401 .88 1.32Zm12.92-8.63l-.89-1.33 1.68-1.12 .88 1.32ZM5.02 16.752l-.92-1.38 3.6-2.4 .91 1.36ZM17.94 8.12l-.92-1.37 1.67-1.12 .91 1.36Zm5.38 11.79l-6.05 4.03 -.89-1.33 6.04-4.04ZM15.3 7.88l.91 1.37 -6.05 4.032 -.92-1.38ZM3.3 6.78l1.14 1.7L2.73 9.62 1.59 7.91Zm6.16 20.49l1.14 1.71 -1.72 1.14 -1.14-1.72Zm-4.5 1.72L-.05 21.42 26.7 3.52l5.25 7.43Z"/></svg>