<svg viewBox="0 0 32 32" xmlns="http://www.w3.org/2000/svg"><path d="M30.265 5.735c-2-2-5.07-2-7.07-.14 -.13.13-.13.26-.13.4 0 .13 0 .26.12.4l.66.66c.13.12.4.12.66 0 .53-.41 1.06-.54 1.73-.54 1.59 0 2.93 1.33 2.93 2.93 0 .79-.27 1.46-.8 2 -4 4-9.47-7.204-21.6-1.47 -.81.4-1.21 1.33-.81 2.13v.12l2 3.599c.4.8 1.46 1.06 2.26.66l.93-.54c1.06-.67 2-1.34 2.939-2.14 .12-.13.53-.13.66 0 .26.13.26.4.12.66l-.13.13c-.94.8-2 1.59-3.07 2.26l-.94.4c-.41.26-.81.4-1.34.4 -.94 0-1.88-.54-2.28-1.34l-2-3.47C1.37 15.51-1.03 20.71.3 27.24c0 .26.265.4.531.4H3.1c.27 0 .4-.14.53-.41 .26-1.87 1.86-3.07 3.73-2.81 1.463.13 2.66 1.33 2.79 2.8 0 .26.26.4.53.4h2.12c.26 0 .4-.14.53-.41 .26-1.87 1.86-3.07 3.72-2.81 1.46.13 2.66 1.33 2.8 2.8 0 .26.26.4.53.4h2.13c.26 0 .53-.27.53-.54 0-3.061.93-6.54 3.2-8.265 7.86-6.129 5.73-11.333 3.86-13.197ZM22 14.93l-1.6-.8c0-.54.4-.94.93-.94s.93.4.93.93c.13.39 0 .66-.27.79Z"/></svg>