<svg viewBox="0 0 32 32" xmlns="http://www.w3.org/2000/svg"><path d="M17.96 22.17c2.51-.34 4.34-1.49 6.04-3.43 2-2.34 2.57-5.48 1.77-8.46 -.81-2.86-3.09-5.083-6.052-5.484 -3.68-.57-7.5 1.19-10.188 3.6 -.06.05-.22.16-.29.28 -.28-.516-.641-1.03-1.03-1.43 -.51-.75-1.66-1.95-1.72-2 -.23-.29-.625-.35-.85-.46 -.71-.16-1.19-.39-1.49-.56 -.02-.03-.04-.05-.06-.08L1.17 1.06C.88.82.54.77.25 1.06c-.23.28-.29.63 0 .91L3.13 5.08h.04c.09.17.46.47.59 1.104 .06.28.22.62.5 1.021 0 0 2.01 2.167 2.81 3.635 .74 1.484.92 1.94 1.02 2.22 0 .03-.74-.87-1.604-1.484C3.17 15.348.76 19.86.06 24.75c-.74 5.02 2.01 6.349 4.05 6.28 1.646 0 5.07-1.77 6.9-6.17 1.766-4.276 1.49-9.198-.3-13.48 1.7-1.73 4.85-3.776 7.92-3.72 2.29 0 3.43 1.984 3.59 2.167 1.76 3.19-.31 6.06-.31 6.06 -1.15 1.72-3.13 2.53-4.177 2.81 -.79.21-2.27.16-2.63 0 -.22-.07-.29-.19-.29-.35 0-.24.18-.34.34-.34 .21 0 .34.16.34.34v.18c.57.16 1.7.04 2.16 0 -.37-.86-1.15-1.32-2.2-1.32h-.05c-1.35.01-2.43 1.1-2.417 2.45 0 1.02.57 1.89 1.42 2.22 .44.17 1.77.34 3.417.17Zm-9.1-.57c-1.146 5.03-4.35 6.802-5.203 6.51 -.86-.29-1.141-2.8.57-7.026 .28-.625 2-4.57 4.229-7.03 -.07.11 1.25 3.82.4 7.54Zm22.042.97l1.08-4.12c.04-.35-.12-.75-.47-.81 -.35-.06-.75.12-.79.45l-1.08 3.96h-.13c-.03.03-.04.05-.06.08 -.17.28-.47.74-.91 1.08 -.34.28-.5.63-.5.63 -.17.17-1.31 3.77-4.9 3.94 -4.24.17-5.09-4.573-5.15-4.97 -.91.16-2.74-.24-3.48-.58 .21 2.625 1.484 5.76 3.71 7.25 2.56 1.77 6.56 1.77 9.31 0 1.58-1.09 2.63-2.46 3.31-4.23l.05-.15 .02-.05c.02-.05.02-.1.06-.16v-.06c-.05 0 0-.35-.1-.69 -.22-.92-.05-1.49-.05-1.66Z"/></svg>