<svg viewBox="0 0 32 32" xmlns="http://www.w3.org/2000/svg"><path d="M26.667 6.401c.53-.27.8-.54 1.19-.54 .66 0 1.06.4 1.2.66 .26.4 1.19.66 1.59.66 .26 0 .66-.94.93-1.73 .26-.81.26-1.74.13-1.88 -.14-.13-1.21-.41-1.47-.41 -.13.13-.41.27-.94.27 -.54 0-1.07-.41-1.47-.81 -.67-.667-1.47-.94-2.27-1.2 -.8-.272-1.74-.272-2.54-.272 -1.21-.129-2.54-.129-3.74.272 -.54.129-.94.26-1.47.53 -.13.13-.54.26-.67.26 -.13.13-.13.26 0 .26s.66-.13.66-.13 -.67.26-.67.53c0 .13.13.13.13.13s.4-.14.66-.14c.53 0 1.33-.27 2-.27 .8 0 1.59.26 2.401 1.06 1.19 1.463 1.06 3.333 1.06 3.73 -.28 2.79-6.54 19.864-6.81 21.061 -.27 1.2-.27 1.87 1.19 2.27 1.46.39 2 0 2.27-.54 .12-.94 4.12-22 6.53-23.864Zm-5.2-1.34L-.01 8.391 3.46 30.65l11.46-1.87c-.13-.94 2.93-8.939 3.46-10.401l-5.871.93 .8-2.401 4.13-.67 1.061 1.33s.27-.67.27-.94l-5.74-7.07c-.27-.41-.27-.94.12-1.2l.27-.27c.39-.28.93-.28 1.19.12l5.06 5.871c1.06-3.21 2-6 2-6.939 .12-.27.12-1.197-.27-2.13Zm-16 13.197l3.59-.67 -.94 2.401 -2.401.4Zm7.72-6.8l.4.12c.53.13.66.66.53 1.2l-4 10.66 -2.401 3.19 .26-4 4-10.67c.13-.54.66-.67 1.19-.54Zm14.4-3.734c-.54.53-1.2 2.26-2.54 7.333h.12l.4 2.12 -1.07.13c-.13.66-.27 1.33-.54 2.13 2.26 1.19 1.06 4.12.93 4.12s-.13 0-.13-.13c0-.14.12-.54-.28-.67 -.27-.14-.8-.28-1.2-.54 -.41 1.59-.81 3.46-1.2 5.46l8.39-1.34 -2.8-18.803Z"/></svg>