<svg viewBox="0 0 32 32" xmlns="http://www.w3.org/2000/svg"><path d="M27.401 19.531c-1.14-.65-2.41-.84-3.68-.89 -1.06-.04-2.64-.73-2.64-2.65 0-1.44 1.15-2.59 2.64-2.65 1.26-.05 2.54-.24 3.67-.891 3.19-1.85 4.29-5.928 2.44-9.125C27.971.12 23.871-.97 20.671.88c-2.08 1.18-3.35 3.4-3.34 5.78 0 1.29.46 2.484 1.05 3.599 .49.92.73 2.66-.95 3.635 -1.27.72-2.85.27-3.63-.99 -.67-1.07-1.46-2.07-2.59-2.708 -3.2-1.85-7.291-.76-9.13 2.43 -1.839 3.199-.75 7.28 2.452 9.12 2.06 1.18 4.609 1.18 6.677 0 1.125-.65 1.923-1.65 2.58-2.71 .54-.88 1.91-1.99 3.62-1 1.26.71 1.65 2.31.94 3.64 -.59 1.09-1.06 2.29-1.06 3.59 0 3.68 2.99 6.67 6.677 6.67 3.68 0 6.67-2.99 6.677-6.677 .01-2.39-1.26-4.6-3.33-5.8Z"/></svg>