<svg viewBox="0 0 32 32" xmlns="http://www.w3.org/2000/svg"><path d="M1.16 24.344c-.34.51-.708 1.16-1.021 1.66 -.29.47-.13 1.09.34 1.38l6.62 4.073c.484.29 1.12.14 1.41-.35 .266-.45.6-1.02.97-1.63 2.625-4.33 5.26-3.81 10.01-1.53l6.6 3.11c.52.25 1.14.02 1.37-.51l3.15-7.13c.21-.51-.01-1.11-.51-1.34 -2.22-1.05-4.42-2.09-6.62-3.15 -8.958-4.34-16.55-4.05-22.344 5.38Zm29.683-16.69c.32-.54.7-1.17 1.01-1.67 .28-.48.125-1.09-.34-1.375L24.893.53c-.49-.3-1.12-.15-1.42.34 -.26.44-.61 1.016-.98 1.63 -2.62 4.32-5.26 3.79-10.01 1.52L5.9.9C5.37.65 4.75.88 4.53 1.4L1.37 8.53c-.23.51 0 1.1.51 1.33 1.38.65 4.135 1.95 6.62 3.14 8.92 4.32 16.521 4.04 22.31-5.385Z"/></svg>