<svg viewBox="0 0 32 32" xmlns="http://www.w3.org/2000/svg"><path d="M30.906 1.089c-10.198-1.46-19.698-1.46-29.84 0C-.37 11.172-.37 20.56 1.06 30.59c4.948.72 9.891 1.4 14.93 1.4 5 0 9.948-.69 14.896-1.36 1.46-10.09 1.46-19.479 0-29.56ZM15.52 25.509c-2.74 0-5.635-.93-6.91-1.6l1.07-4.17c1.42.93 3.57 1.85 5.932 1.85 1.859 0 2.984-.59 2.984-1.74 0-.83-.58-1.31-2.1-1.69l-3.05-.84c-3.22-.88-4.74-2.526-4.74-5.141 0-3.16 2.43-5.677 7.49-5.677 2.65 0 5.29.72 6.76 1.45l-1.27 3.96c-1.48-.83-3.73-1.5-5.64-1.5 -1.83 0-2.599.57-2.599 1.45 0 .82.53 1.16 1.71 1.45l3.31.97c3.42.97 4.94 2.62 4.94 5.177 -.1 3.6-3.29 6.02-7.95 6.02Z"/></svg>