<svg viewBox="0 0 32 32" xmlns="http://www.w3.org/2000/svg"><path d="M18.734 3.66l6.57 3.8c1.08-1.146 2.9-1.2 4.04-.11 .19.18.36.4.5.63 .78 1.37.31 3.12-1.07 3.9 -.23.13-.48.23-.75.29v7.599c1.53.36 2.47 1.89 2.1 3.42 -.07.27-.18.53-.31.77 -.8 1.36-2.54 1.83-3.91 1.04 -.26-.15-.5-.35-.7-.57l-6.55 3.77c.49 1.49-.32 3.1-1.82 3.6 -.3.09-.6.14-.9.14 -1.58 0-2.86-1.28-2.86-2.85 0-.28.04-.55.12-.82l-6.583-3.8c-1.09 1.14-2.9 1.18-4.036.09 -1.14-1.09-1.18-2.9-.1-4.04 .38-.4.86-.68 1.39-.81v-7.6c-1.54-.37-2.48-1.91-2.109-3.45 .06-.266.16-.53.3-.76 .786-1.37 2.53-1.84 3.9-1.05 .23.13.45.3.641.5l6.583-3.8C12.73 2.03 13.59.44 15.1 0c.26-.09.53-.12.81-.12 1.57 0 2.85 1.271 2.85 2.844 0 .28-.05.55-.12.823Zm-.69 1.17c-.03.02-.05.05-.08.07l8.61 14.91c.03-.01.07-.03.1-.04v-7.61c-1.53-.375-2.46-1.93-2.08-3.45 0-.04.01-.07.02-.1Zm-4.03.07l-.08-.08 -6.6 3.8c.43 1.51-.44 3.08-1.95 3.526 -.04.01-.07.01-.11.02v7.6l.11.03 8.61-14.917Zm2.77.67c-.53.14-1.08.14-1.59 0L6.57 20.48c.391.375.66.85.8 1.39h17.21c.13-.54.4-1.02.8-1.4Zm1.31 21.63l6.552-3.79c-.03-.07-.04-.125-.06-.19H7.36l-.04.1 6.58 3.8c.516-.54 1.24-.87 2.05-.87 .83 0 1.58.35 2.1.93Z"/></svg>