<svg viewBox="0 0 32 32" xmlns="http://www.w3.org/2000/svg"><path d="M.7 19.46c.11-.21.26-.25.48-.125 .52.28 1.03.57 1.56.83 2.029 1.01 4.16 1.78 6.37 2.31 1.04.25 2.09.44 3.16.59 1.57.21 3.16.29 4.75.26 .87-.02 1.74-.09 2.6-.19 2.808-.33 5.55-1.05 8.16-2.14 .14-.06.29-.1.45-.06 .33.09.45.45.2.69 -.15.13-.31.26-.48.37 -1.54 1.05-3.21 1.82-4.98 2.39 -1.23.39-2.49.68-3.76.88 -.89.13-1.77.21-2.66.24 -.05 0-.09 0-.125.01h-1.06c-.05-.01-.09-.02-.125-.02 -.18-.01-.36-.02-.54-.02 -.85-.04-1.686-.13-2.52-.27 -1.37-.23-2.715-.58-4.02-1.05C5.476 23.187 3 21.7.88 19.805c-.09-.08-.15-.19-.22-.29ZM8.6 6.45l-.22.03c-.69.08-1.35.34-1.9.75 -.12.08-.23.17-.36.27 -.02-.03-.02-.05-.02-.07 -.02-.14-.04-.28-.07-.41 -.04-.23-.15-.33-.38-.33h-.58c-.35 0-.41.06-.41.41v10.46c0 .05 0 .1 0 .15 .01.15.1.24.24.25 .35 0 .7 0 1.05 0 .14 0 .23-.1.25-.25 0-.05 0-.1 0-.15v-3.62c.05.04.08.07.11.09 .89.74 1.92.99 3.05.77 1.02-.2 1.73-.83 2.19-1.75 .35-.7.49-1.44.51-2.21 .02-.86-.06-1.7-.41-2.49 -.43-.98-1.13-1.63-2.2-1.85 -.16-.04-.33-.05-.49-.08 -.14-.01-.28-.01-.42-.01ZM6.23 8.54c-.01-.07.02-.14.08-.17 .68-.48 1.44-.73 2.28-.66 .74.05 1.35.42 1.67 1.29 .19.53.24 1.09.24 1.65 0 .52-.04 1.03-.2 1.53 -.34 1.06-1.12 1.47-2.13 1.42 -.7-.03-1.31-.3-1.87-.7 -.06-.04-.09-.1-.09-.17 0-.71 0-1.41 0-2.11 0-.71 0-1.4 0-2.11Zm10.285-2.1c-.05 0-.1.01-.15.02 -.49.02-.98.08-1.45.2 -.31.08-.6.19-.9.29 -.18.06-.27.19-.27.38 0 .16-.01.33 0 .49 0 .24.1.3.34.24 .39-.1.78-.21 1.17-.29 .61-.12 1.23-.17 1.86-.07 .32.05.63.14.84.42 .18.24.25.52.26.82 .01.41.01.83.01 1.24 -.01.02-.01.04-.01.07 -.03-.01-.05 0-.07-.01 -.53-.13-1.06-.22-1.6-.25 -.57-.03-1.125 0-1.67.19 -.65.22-1.17.61-1.47 1.24 -.24.49-.27 1.01-.2 1.53 .1.7.45 1.24 1.07 1.58 .59.33 1.24.37 1.89.27 .75-.12 1.42-.44 2.01-.92 .02-.03.05-.04.08-.06 .03.19.05.37.09.55 .03.15.125.25.27.26 .27 0 .54 0 .81 0 .13-.01.23-.11.24-.24 0-.05 0-.1 0-.14v-5.3c0-.22-.02-.44-.05-.65 -.1-.65-.37-1.18-.95-1.52 -.34-.2-.71-.3-1.09-.36 -.18-.03-.36-.04-.54-.07 -.2 0-.4 0-.6 0Zm1.75 6.38c0 .06-.03.11-.08.15 -.56.4-1.18.67-1.87.74 -.29.03-.57.02-.84-.09 -.31-.11-.54-.36-.62-.67 -.1-.32-.11-.66-.01-.97 .125-.42.42-.65.82-.78 .4-.13.82-.16 1.24-.11 .42.03.83.11 1.25.17 .08.01.1.05.1.13 -.01.24 0 .47 0 .71s-.01.47-.01.7Zm12.99 6.47c-.05-.25-.24-.35-.46-.42 -.35-.11-.7-.18-1.05-.2 -.66-.06-1.314-.03-1.96.09 -.72.13-1.4.36-2 .78 -.08.04-.14.1-.19.17 -.04.06-.05.13-.03.2 .02.07.1.09.18.09 .03 0 .07-.01.11-.01 .39-.04.77-.09 1.16-.125 .57-.06 1.14-.09 1.71-.05 .24.02.48.06.72.13 .25.07.37.26.38.52 .02.4-.07.78-.18 1.16 -.21.77-.5 1.51-.79 2.25 -.03.04-.04.09-.05.15 -.03.14.06.24.2.2 .09-.02.17-.07.24-.125 .22-.21.43-.44.63-.67 .64-.82 1.01-1.77 1.23-2.78 .04-.18.07-.37.1-.55Zm-6.61-6.16c-.65-1.79-1.29-3.58-1.94-5.36 -.1-.29-.21-.57-.32-.85 -.06-.15-.16-.24-.32-.24 -.38-.01-.76-.01-1.15-.01 -.125 0-.19.1-.16.22 .02.1.05.2.09.3 .98 2.42 1.96 4.85 2.95 7.27 .08.2.1.38.01.59 -.17.36-.3.75-.47 1.11 -.15.32-.4.57-.76.66 -.26.06-.52.08-.77.05 -.125-.01-.25-.04-.375-.05 -.17-.01-.26.06-.26.24 -.01.16-.01.33 0 .49 0 .27.1.4.37.44 .27.05.56.08.84.1 .85.02 1.53-.33 1.97-1.07 .17-.3.33-.61.46-.92 1.18-2.99 2.36-5.99 3.53-8.98 .03-.09.06-.19.08-.28 .02-.14-.05-.22-.19-.22 -.33-.01-.67 0-1 0 -.18-.02-.34.09-.39.26 -.03.07-.06.13-.08.2l-1.74 5c-.125.36-.26.72-.39 1.11 -.02-.06-.03-.09-.05-.12Z"/></svg>