<svg viewBox="0 0 32 32" xmlns="http://www.w3.org/2000/svg"><path d="M23.06 14.073c-.1 0-.19-.03-.26-.08l-2.04-1.2c-.17-.09-.26-.26-.26-.45V9.98c0-.19.09-.36.25-.45l2.04-1.19c.15-.09.35-.09.51 0l2.05 1.17c.16.08.26.26.26.44v2.37c0 .18-.1.35-.26.44l-2.05 1.18c-.09.04-.18.06-.28.06Zm-1.53-2.01l1.52.89 1.53-.89v-1.78l-1.54-.88 -1.54.88Zm-14.54 5.99c-.55.01-.74-.72-.26-.98l1.79-1.04c.25-.18.58-.1.74.16 .15.26.04.59-.23.72l-1.8 1.03c-.08.04-.17.07-.26.07Zm-.39 3.11c-.55.02-.74-.72-.26-.97l3.43-1.97c.25-.17.58-.09.734.17 .15.26.04.58-.23.71l-3.45 1.97c-.08.04-.17.06-.25.06Zm.55 2.56c-.55 0-.73-.72-.26-.97l4.15-2.33c.25-.17.58-.09.734.17 .14.26.04.59-.23.72L7.39 23.63c-.08.04-.17.07-.26.07ZM17.25 2.62l-2.56-1.55L1.79 8.53l.02 2.13 4.875 2.81 3.18-1.82 .69-3.391c.03-.15.12-.28.25-.35L22.03 1.45c.16-.1.35-.1.51-.001l8.37 4.84c.16.09.26.26.26.44l-.02 9.68c0 .18-.1.35-.26.44l-11.1 6.375c-.12.06-.27.08-.4.04l-3.37-.95 -3.16 1.83v5.599l1.84 1.06 12.89-7.46v-3l1.02-.68v3.96c0 .18-.1.35-.26.44l-13.41 7.75c-.17.09-.359.09-.516 0l-2.365-1.36c-.17-.09-.26-.26-.26-.45v-6.2c0-.19.09-.35.25-.45l3.6-2.1c.12-.08.26-.1.4-.06l3.375.95 10.66-6.12 .01-9.094 -7.86-4.547L11.47 8.58l-.71 3.37c-.03.14-.12.27-.25.34l-3.635 2.08c-.17.09-.359.09-.516 0L.97 11.27c-.16-.09-.26-.26-.26-.44L.66 8.09C.65 7.9.75 7.74.92 7.63L14.337-.12c.16-.1.359-.1.52-.001l3.29 2Z"/></svg>