<svg viewBox="0 0 32 32" xmlns="http://www.w3.org/2000/svg"><path d="M16 0C7.19 0 0 7.19 0 16c0 8.803 7.19 16 16 16 8.803 0 16-7.2 16-16C32 7.19 24.88 0 16 0Zm7.36 23.12c-.32.47-.89.64-1.36.31 -3.76-2.317-8.48-2.8-14.083-1.52 -.56.16-1.037-.24-1.2-.72 -.16-.56.24-1.04.71-1.2 6.08-1.36 11.36-.81 15.52 1.76 .56.24.64.88.4 1.36Zm1.92-4.401c-.41.56-1.12.8-1.69.4 -4.317-2.65-10.88-3.44-15.916-1.84 -.641.15-1.37-.17-1.521-.81 -.17-.64.15-1.359.79-1.52 5.84-1.77 13.04-.88 18 2.16 .48.24.72 1.04.32 1.59Zm.16-4.48c-5.125-3.05-13.683-3.36-18.563-1.84 -.81.23-1.6-.24-1.84-.97 -.24-.8.24-1.6.95-1.84 5.683-1.681 15.04-1.359 20.964 2.16 .71.4.95 1.36.55 2.07 -.41.56-1.36.8-2.08.4Z"/></svg>