<svg viewBox="0 0 32 32" xmlns="http://www.w3.org/2000/svg"><path d="M16.683 17.62c.05-1.07.58-2.02 1.36-2.68 .82-.69 1.875-1.06 2.95-1.06 1.13 0 2.17.4 2.94 1.05 .78.66 1.3 1.6 1.36 2.67 .05 1.09-.38 2.11-1.16 2.86 -.85.81-1.99 1.26-3.17 1.25 -1.19 0-2.317-.44-3.18-1.26 -.78-.76-1.22-1.78-1.16-2.87Zm-6.88 2.15c0 .41.14 1.22.33 1.86 .43 1.36 1.157 2.62 2.125 3.67 1.03 1.14 2.3 2.05 3.71 2.67 1.54.67 3.2 1.02 4.881 1.01 1.68 0 3.34-.35 4.88-1.03 1.41-.625 2.67-1.55 3.71-2.683 .96-1.06 1.68-2.317 2.12-3.683 .41-1.33.53-2.73.33-4.1 -.19-1.32-.65-2.58-1.36-3.71 -.66-1.06-1.49-1.98-2.47-2.724l-10.02-7.7c-.66-.51-1.76-.5-2.48 0 -.73.51-.82 1.35-.17 1.891l4.16 3.39 -12.73.01c-1.06 0-2.06.68-2.27 1.56 -.21.88.5 1.62 1.59 1.62l6.443-.01 -11.55 8.853c-1.09.82-1.44 2.21-.75 3.08 .69.89 2.16.89 3.265 0l6.271-5.131s-.1.69-.09 1.1Zm16.118 2.317c-1.3 1.31-3.11 2.06-5.061 2.06 -1.96 0-3.78-.74-5.07-2.05 -.609-.62-1.09-1.36-1.39-2.17 -.56-1.55-.42-3.26.37-4.7 .391-.7.91-1.33 1.53-1.83 1.25-1.02 2.85-1.58 4.53-1.58 1.67 0 3.27.54 4.52 1.56 .64.52 1.16 1.13 1.53 1.82 .39.69.63 1.47.69 2.27 .07.81-.04 1.64-.32 2.41 -.31.81-.78 1.55-1.39 2.16Z"/></svg>