<svg viewBox="0 0 32 32" xmlns="http://www.w3.org/2000/svg"><path d="M0 16C0 7.36 7.151.42 16 .42 24.849.42 32 7.364 32 16c0 8.636-7.151 15.573-16 15.573s-16-6.94-16-15.573Zm15.645 5.3c-1.56 0-2.833-.14-3.69-.28 -1-.22-1.64-.79-2.06-1.56 -.36-.79-.57-2.06-.5-3.76 0-.92.06-1.77.13-2.62 .14-.843.21-1.56.36-2.13l.14-.57v-.07c0-.15-.14-.29-.29-.29l-2.06-.29h-.07c-.14 0-.29.14-.36.21 0 .13-.08.2-.15.49 -.14.63-.22 1.2-.36 1.98 -.15.91-.22 1.83-.22 2.76 0 0-.07.21 0 1.91s.35 3.04.92 4.1c.56.98 1.484 1.76 2.833 2.192 1.34.42 3.183.64 5.52.64h.28c2.33 0 4.177-.22 5.52-.65 1.34-.43 2.27-1.21 2.83-2.192 .56-1.07.85-2.407.92-4.11 .07-1.7 0-1.92 0-1.92 0-.99-.14-1.92-.22-2.76 -.14-.86-.21-1.423-.36-1.99 -.07-.29-.07-.43-.15-.5 0-.14-.14-.22-.36-.22h-.07l-2.06.28c-.15 0-.29.14-.29.28v.06l.14.56c.14.56.2 1.27.35 2.12 .14.85.14 1.7.14 2.62 0 1.7-.15 2.907-.5 3.75 -.36.78-1.061 1.343-2.06 1.55 -.86.21-2.13.28-3.69.28Z"/></svg>