<svg viewBox="0 0 32 32" xmlns="http://www.w3.org/2000/svg"><path d="M30.56 9.369l-.14-.31 -.23.24c-.55.62-1.24 1.09-2.01 1.38l-.22.08 .08.2c.66 1.58 1 3.29 1 5.01 0 7.2-5.86 13.073-13.073 13.073 -7.22 0-13.068-5.86-13.068-13.07C2.89 8.76 8.77 2.89 15.972 2.89c1.95 0 3.84.42 5.59 1.26l.2.09 .08-.21c.32-.76.82-1.43 1.47-1.94l.26-.22 -.3-.16C21 .53 18.48-.07 15.93-.06c-8.823 0-16 7.177-16 16 0 8.828 7.177 16 16 16 8.82 0 16-7.18 16-16 0-2.31-.48-4.54-1.44-6.631Zm-14.57-.67c-4.03 0-7.29 3.26-7.3 7.29 0 4.02 3.26 7.28 7.29 7.29 4.02-.01 7.28-3.27 7.29-7.3 -.01-4.03-3.27-7.29-7.3-7.3Zm13.79-2.68c0 1.83-1.49 3.32-3.33 3.32s-3.33-1.49-3.33-3.33c0-4.432 6.65-4.432 6.65 0Z"/></svg>