<svg viewBox="0 0 32 32" xmlns="http://www.w3.org/2000/svg"><path d="M29.667 15.76c0-1.89-1.28-3.54-3.11-4.02L30.53-.01H10.79l3.99 11.78c-1.78.516-3 2.135-3 3.97 0 1.39.69 2.625 1.75 3.38 -.43.59-.907 1.15-1.45 1.65 -.984.93-2.141 1.68-3.401 2.19 -1.12-.76-1.593-2.08-1.17-3.26 4.53-1.42 3.53-8.09-1.21-8.11 -2.292 0-4.151 1.859-4.151 4.151 0 1.13.45 2.16 1.2 2.91 -.07.125-.14.26-.2.39 -.62 1.28-1.323 2.72-1.593 4.34 -.536 3.24.34 5.84 2.469 7.323 1.14.8 2.52 1.24 3.92 1.24 2.43 0 4.907-1.23 7.29-2.42 1.7-.84 3.468-1.72 5.19-2.15 .64-.16 1.3-.25 2.01-.36 1.42-.21 2.9-.42 4.22-1.19 1.53-.875 2.59-2.39 2.91-4.12 .22-1.33 0-2.66-.6-3.83 .4-.65.62-1.39.62-2.2Zm-1.81 0c0 1.28-1.05 2.33-2.34 2.33 -2.21-.01-3.18-2.8-1.45-4.17l0-.01c.07-.06.16-.12.24-.17 0 0 .01 0 .01-.01 .03-.03.07-.05.1-.07 .01 0 .01-.01.02-.01 .03-.03.08-.04.13-.06 .04-.03.09-.04.13-.06 0 0 .01-.01.02-.01 .03-.02.07-.04.11-.04 0 0 .02-.02.03-.02 .04-.02.08-.03.12-.03h0l.14-.04s.02 0 .03-.02c.03 0 .07-.02.11-.02h.04c.04 0 .09-.01.15-.01h.12c.03 0 .06 0 .1 0h.01c.07.01.15.02.22.04 1.08.22 1.86 1.18 1.86 2.29ZM13.38 1.85h14.57L24.6 11.71c-.15.02-.28.07-.42.12L20.66 4.66l-3.54 7.131c-.14-.05-.29-.08-.44-.1ZM20 14.95c-.18-.86-.61-1.64-1.26-2.224l1.91-3.87 1.93 3.952c-.58.57-1 1.3-1.17 2.141Zm-4.65-1.47c.04-.02.08-.02.13-.03h.02c.03-.02.07-.02.1-.03h.03c.03 0 .06-.02.1-.02h.35c.03 0 .06.01.09.01 .02 0 .02 0 .04.01 .03.01.06.01.09.01 .01 0 .02 0 .04 0l.125.02h.01c.03.01.07.02.11.04 0 0 .01 0 .03 0 .02.01.06.02.09.03 0 0 .01.01.02.01 .03.02.07.03.1.04h.01c.04.01.08.03.12.06h.01c.03.01.07.04.1.06 0 0 0 .01.02.01 .03.01.06.04.09.06l.01.01c.1.08.21.17.31.27l0 0c.41.43.64 1.01.64 1.61 -.1 3.01-4.568 3.01-4.67 0 -.01-1.07.72-2 1.76-2.26Zm-9.12-.07c1.28 0 2.33 1.05 2.33 2.33s-1.05 2.333-2.333 2.333c-1.29 0-2.34-1.05-2.34-2.34 0-1.29 1.04-2.34 2.33-2.34Zm21.552 8.03c-.22 1.19-.96 2.23-2.01 2.84 -1.02.58-2.26.77-3.56.95 -.74.09-1.47.22-2.19.39 -1.93.47-3.79 1.39-5.58 2.28 -2.3 1.14-4.47 2.21-6.48 2.21 -1.04 0-2.04-.32-2.875-.92 -2.037-1.41-1.94-4.05-1.693-5.5 .21-1.36.839-2.62 1.432-3.84 .04-.08.06-.15.1-.22 .2.07.41.12.64.16 -.36 1.96.64 3.99 2.593 4.99l.34.18 .38-.14c1.62-.58 3.125-1.52 4.448-2.76 .73-.69 1.38-1.46 1.92-2.3 .21.03.42.04.641.04 1.88-.01 3.53-1.28 4.01-3.11h1.55c.47 1.82 2.12 3.1 4.01 3.1 .77 0 1.48-.22 2.09-.58 .24.69.31 1.41.18 2.14Z"/></svg>