<svg viewBox="0 0 32 32" xmlns="http://www.w3.org/2000/svg"><path d="M15.339 16.287c-.17.34-.34.73-.516 1.14 -.65 1.45-1.36 3.224-1.62 4.36 -.11.47-.16.97-.16 1.46 0 .21.01.44.03.68 .907.33 1.891.52 2.91.52 .9 0 1.8-.15 2.66-.44 -.21-.19-.4-.39-.56-.59 -1.15-1.46-1.78-3.58-2.78-7.151Zm-4.2-7.21c-2.26 1.58-3.593 4.16-3.599 6.91 0 2.7 1.3 5.25 3.5 6.84 .52-2.17 1.82-4.15 3.776-8.11 -.12-.32-.25-.67-.4-1.04 -.55-1.36-1.33-2.93-2.02-3.64 -.38-.39-.8-.71-1.27-.98Zm12.22 16.62c-1.12-.14-2.05-.31-2.86-.593 -3.16 1.55-6.885 1.38-9.88-.48 -2.989-1.86-4.81-5.12-4.81-8.636 0-2.93 1.26-5.72 3.46-7.64 -.58-.15-1.18-.22-1.77-.22 -2.984.02-6.129 1.67-7.45 6.13 -.12.64-.09 1.13-.09 1.71 0 8.83 7.161 16 16 16 5.41 0 10.18-2.69 13.08-6.81 -1.561.39-3.08.57-4.36.58 -.49 0-.94-.03-1.36-.08Zm-3.01-3.1c.1.04.32.13.63.21 2.17-1.59 3.46-4.12 3.46-6.817 -.02-4.68-3.8-8.453-8.47-8.459 -.91-.001-1.8.14-2.66.43 1.71 1.95 2.54 4.75 3.34 7.813v0s.26.84.69 1.97c.43 1.12 1.05 2.51 1.72 3.52 .44.68.92 1.16 1.26 1.31ZM15.97-.02c-5.16-.01-10 2.48-13 6.68 1.51-.95 3.05-1.287 4.4-1.28 1.85 0 3.31.58 4.02.97 .17.09.33.2.49.3 3.14-1.39 6.77-1.08 9.64.79 2.87 1.87 4.6 5.07 4.6 8.51 0 2.71-1.09 5.323-3.03 7.23 .45.05.94.08 1.44.07 1.77 0 3.68-.4 5.12-1.593 .93-.8 1.72-1.95 2.15-3.68 .08-.68.13-1.35.13-2.05 0-8.84-7.17-16-16-16Z"/></svg>