<svg viewBox="0 0 32 32" xmlns="http://www.w3.org/2000/svg"><path d="M6.11 18.172l-.36-.02H2.517l4.31-4.32 -.02-.36c-.02-.577-.484-1.05-1.07-1.07l-.359-.02H-.02L0 12.74c.04.58.468 1.02 1.056 1.06l.36.01h3.24L.34 18.12l.01.36c.02.57.484 1.04 1.063 1.06l.36.01h5.391l-.02-.36c-.05-.59-.47-1.03-1.07-1.06Zm4.31-5.77h-.01c-4.8 0-4.79 7.18 0 7.18s4.79-7.19 0-7.19Zm1.52 5.12c-.84.88-2.23.89-3.09.03 -.86-.86-.84-2.26.03-3.09 2.03-1.94 4.98 1.016 3.05 3.05ZM29.1 12.4c-.83 0-1.61.35-2.16.97 -.55-.62-1.34-.98-2.16-.98 -.58 0-1.14.17-1.62.49 -.28-.32-.91-.5-1.27-.5v7.18l.36-.02c.59-.05 1.03-.47 1.05-1.07l.02-.36V15.59l.01-.359c.01-.28.05-.52.17-.72 .39-.69 1.27-.923 1.96-.53 .21.125.39.3.52.52 .125.21.16.45.17.72l.02.359V18.1l.01.36c.03.58.46 1.02 1.06 1.06l.36.01v-3.96l.01-.359c.01-.27.05-.516.17-.73 .4-.69 1.28-.93 1.96-.53 .21.125.4.3.52.52 .12.2.15.45.17.71l.02.359v2.51l.01.36c.03.58.46 1.02 1.06 1.06l.35.01v-4.32c0-1.59-1.3-2.875-2.88-2.875Zm-13.68 1.05c-1.468 1.391-1.5 3.71-.07 5.14 1.42 1.43 3.75 1.4 5.147-.07 3.22-3.385-1.7-8.301-5.08-5.083Zm4.06 4.068c-.84.85-2.22.86-3.07.02 -.86-.86-.85-2.24.02-3.08 2.03-1.98 5.03 1.016 3.04 3.05Z"/></svg>