<svg viewBox="0 0 32 32" xmlns="http://www.w3.org/2000/svg"><path d="M20.208 25.912l.84-1.45s-1.93.78-5.145.78c-3.224 0-5.12-.76-5.12-.76l.94 1.57 .33 4.968c0 .54 1.74.95 3.91.95 2.16 0 3.91-.42 3.91-.96l.3-5.11Zm.81-9.4c-1.03.06-1.54 1.2-2.06 2.4 -.19.43-.84 2.31-1.26 2.08 -.43-.23.54-1.78.82-2.69 -.32.22-1.48 1.13-1.78.28 -.48.41-1.51.64-1.391-.45 -.26.46-.83 1.09-1.52.82 -.91-.35.52-3.22.88-3.077 .35.16-.08.8-.19 1.05 -.26.56-.54 1.28-.35 1.41 .32.26 1.2-.94 1.22-.96 .16-.22.63-1.64 1.016-1.48 .38.17-.95 2.05-.46 2.43 .09.08.51-.04.76-.32 .15-.16.1-.56.63-1.84 .54-1.29 1.02-2.875 1.38-2.76 .36.12.06.93-.07 1.25 -.62 1.43-1.69 3.79-1.19 3.61 .5-.19.76-.19 1.26-.76 .5-.58.45-1.54.79-1.52 .32.02.28.33.2.55 .31-.36 1.53-1.16 1.81-.38 .34.91-1.74 2.26-1.22 2.17 .5-.06 1.31-.58 1.68-1.06l.95-8.667s-.98.8-7.16.8c-6.167 0-7.05-.79-7.05-.79l.81 7.907c.44-1.24 1.48-3.76 3.1-3.66 .73.04 1.73 1.48.875 1.516 -.36.02-.41-.72-.82-.82 -.32-.06-.74.18-1.016.46 -.55.53-1.74 2.67-1.58 3.73 .19 1.35 1.875-.47 2.15-1 .19-.38.33-1.52.75-1.4 .44.11-.04 1.3-.36 2.31 -.359 1.16-.55 2.375-.98 2.23 -.45-.15.27-1.64.23-1.9 -.42.4-1.18 1.35-2.18.88l.49 4.93s1.359 1.05 5.432 1.05 5.48-1.06 5.48-1.06l.64-5.72c-.53.52-2.157 1.41-2.26.4 -.08-.82 1.77-2 1.29-2.03Zm2.1-15.63l-3.55 3.73 -.66 2.53c2.51.15 4.256.516 4.256.92 0 .56-3.22 1.01-7.19 1.01s-7.19-.46-7.19-1.02 3.21-1.03 7.18-1.03c.56 0 1.125 0 1.68.02l.74-3.032 3.76-4c.09-.12.37-.03.63.19 .25.203.39.457.31.577v.04Zm-5.12 7.72s-.7 0-.82-.11c-.04-.04-.05-.08-.05-.12 0-.08.05-.12.12-.15l.05.09c-.03.01-.04.02-.05.03 0 .05.41.09.73.08 .31-.01.7-.04.7-.09 0-.02-.04-.04-.09-.05l.06-.1c.08.02.15.07.15.16 0 .14-.19.17-.31.18 -.15.02-.55.03-.55.03Z"/></svg>