<svg viewBox="0 0 32 32" xmlns="http://www.w3.org/2000/svg"><path d="M17.28 14.525c0 .53-.27 1.28-1.34 1.28h-1.23v-2.6h1.22c1.07 0 1.33.77 1.33 1.311ZM29.99 2v28h-28V2ZM11.44 17.99c-.001-1.33-.76-2.16-2.92-2.81 -1.29-.47-1.625-.69-1.625-1.17 0-.49.43-.92 1.27-.92 .88 0 1.3.52 1.3 1.14h1.91l.01-.04c.03-1.23-.95-2.61-3.2-2.61 -1.47 0-3.29.67-3.29 2.39 0 1.21.57 1.95 3.17 2.77 1.07.38 1.36.65 1.36 1.218 0 .95-1.2.88-1.22.88 -1.28 0-1.61-.57-1.61-1.37h-1.93l-.02.03c-.05 1.95 1.774 2.82 3.53 2.82 1.87 0 3.19-.85 3.19-2.4Zm7.83-3.48c0-1.59-1.16-2.85-3.34-2.85h-3.24v8.636h2.01v-2.96h1.22c1.89 0 3.33-1 3.33-2.84Zm1.32 5.8l3.06-8.639H21.7l-3 8.639Zm6.65-8.64h-1.95l-3 8.639h1.87Z"/></svg>