<svg viewBox="0 0 32 32" xmlns="http://www.w3.org/2000/svg"><path d="M23.71 15.21h-1.37c0-.13-.03-.26-.07-.38 -.11-.28-.34-.484-.62-.57 -.4-.125-.83-.12-1.22.02 -.34.12-.6.38-.72.72 -.22.609-.24 1.27-.06 1.89 .09.35.36.65.71.78 .41.15.875.17 1.3.03 .25-.09.46-.28.57-.52 .07-.17.1-.35.1-.53H23.7c-.01.15-.04.31-.07.46 -.12.48-.47.89-.92 1.08 -.95.4-2.02.45-3 .14 -.64-.2-1.19-.66-1.41-1.29 -.12-.34-.18-.7-.18-1.06 0-.52.09-1.02.33-1.44 .26-.43.65-.76 1.125-.94 1-.375 2.1-.35 3.08.08 .47.2.82.63.93 1.141 .02.09.03.2.04.31Zm-5.31 3.25h-1.46l-.43-1.06h-2.45s-.43 1.05-.43 1.05h-1.46l2.3-4.93s1.59 0 1.59 0Zm7.308 0h-1.31s.01-4.93 0-4.93h1.3v1.97h2.63s0-1.98 0-1.98h1.3s0 4.91 0 4.92h-1.31v-2.17s-2.64 0-2.64 0 0 2.16 0 2.16Zm-24.42 0H-.03s.005-4.93 0-4.93H1.28s-.01 1.984 0 1.97h2.63s-.01-1.98 0-1.98H5.22s0 4.91 0 4.92H3.91v-2.17s-2.63 0-2.63 0 -.01 2.16 0 2.16Zm10.04 0h-1.31v-4.09h-2s0-.84 0-.84 5.29 0 5.29 0v.83h-2ZM6.26 13.53h1.3v4.92H6.25Zm24.412 0h1.3v4.92h-1.31Zm-15.38.83l-.91 2.24h1.81Z"/></svg>