<svg viewBox="0 0 32 32" xmlns="http://www.w3.org/2000/svg"><path d="M7.12-.001C3.18-.012-.02 3.17 0 7.119v17.76c-.011 3.93 3.18 7.131 7.12 7.12h17.76c3.93.01 7.131-3.19 7.12-7.12V7.119c.01-3.94-3.183-7.14-7.12-7.12Zm8.697 3.421c3.11 0 5.93 1.2 8.079 3.453 1.63 1.69 2.54 3.48 3.01 5.855 .16.78.16 2.93 0 3.817 -.5 2.817-2.05 5.33-4.317 7.06 -.82.61-2.8 1.68-3.12 1.68 -.12 0-.13-.12-.08-.62 .09-.8.19-.96.64-1.15 .71-.3 1.93-1.17 2.67-1.92 1.3-1.31 2.22-2.94 2.67-4.72 .28-1.1.24-3.55-.07-4.68 -.97-3.6-3.907-6.39-7.5-7.14 -1.05-.22-2.95-.22-4 0 -3.64.75-6.65 3.68-7.57 7.371 -.25 1-.25 3.44 0 4.448 .609 2.44 2.18 4.68 4.25 6.01 .4.27.89.54 1.1.63 .44.19.54.35.62 1.14 .05.48.04.62-.08.62 -.08 0-.62-.24-1.2-.52l-.06-.05c-3.3-1.62-5.41-4.37-6.18-8.02 -.19-.95-.23-3.19-.04-4.052 .47-2.33 1.396-4.14 2.92-5.74C9.74 4.57 12.58 3.34 15.73 3.34Zm.18 3.751c.54 0 1.06.05 1.47.14 3.715.82 6.34 4.54 5.83 8.229 -.21 1.48-.72 2.7-1.62 3.84 -.45.57-1.54 1.532-1.73 1.532 -.04 0-.07-.37-.07-.81v-.81l.55-.67c2.093-2.51 1.94-6.01-.34-8.296 -.89-.9-1.92-1.43-3.24-1.67 -.86-.17-1.04-.17-1.93-.02 -1.37.21-2.42.74-3.36 1.67 -2.3 2.27-2.45 5.79-.35 8.296l.55.66v.81c0 .44-.04.8-.09.8 -.04 0-.35-.22-.69-.48l-.05-.02c-1.11-.89-2.09-2.46-2.5-4 -.25-.94-.25-2.7.01-3.625 .67-2.51 2.52-4.448 5.07-5.36 .54-.2 1.5-.3 2.41-.29Zm-.18 3.984c.41 0 .82.08 1.13.24 .64.33 1.18.98 1.38 1.67 .62 2.1-1.61 3.94-3.64 3h-.02c-.96-.45-1.47-1.28-1.48-2.36 0-.98.54-1.83 1.48-2.33 .29-.16.7-.24 1.125-.24Zm-.02 6.308c1.31-.01 2.27.46 2.625 1.29 .26.62.16 2.57-.3 5.73 -.31 2.2-.48 2.76-.91 3.14 -.59.52-1.42.66-2.21.38h-.01c-.96-.35-1.157-.81-1.56-3.53 -.46-3.17-.56-5.12-.29-5.74 .34-.83 1.29-1.29 2.62-1.3Z"/></svg>