<svg viewBox="0 0 32 32" xmlns="http://www.w3.org/2000/svg"><path d="M7.18 0l6.33 17.94v-.01l.5 1.41c2.78 7.88 4.28 12.104 4.28 12.1 0 0 .42.02.93.05 1.54.06 3.45.24 4.901.41 .33.04.62.05.64.04l-6.86-19.46 -3.24-9.14c-.61-1.74-1.13-3.21-1.16-3.27l-.05-.12H7.14Zm11.34.011L18.5 7.08l-.01 7.078 -.59-1.65 -.75 15.74c.74 2.08 1.13 3.2 1.14 3.2 0 0 .42.03.93.05 1.54.06 3.45.24 4.9.41 .33.03.625.05.64.03 .02-.01.02-7.23.02-16.01L24.77-.03ZM7.17 0v15.984c0 8.79.01 15.99.02 16.005 .01.01.55-.05 1.2-.12 .65-.09 1.55-.18 2.01-.22 .69-.07 2.76-.21 3-.21 .06 0 .07-.36.08-6.78l.01-6.78 .5 1.41 .17.5 .76-15.74 -.26-.73 -1.22-3.37Z"/></svg>