<svg viewBox="0 0 32 32" xmlns="http://www.w3.org/2000/svg"><path d="M29.15 7.02c.31-.07.63.07.81.34 0 0 .625 1.01.99 1.81 .36.8.72 1.93.72 1.93 .08.31-.03.641-.29.83l-2.01 1.43c-.26.2-.41.52-.38.859 0 0 .11.766.13 1.42 .01.64-.06 1.39-.06 1.39 -.01.32.15.64.42.83l2.07 1.32c.25.16.4.52.32.82 0 0-.3 1.14-.625 1.97 -.33.82-.9 1.86-.9 1.86 -.17.27-.48.42-.8.38l-2.43-.45c-.33-.05-.66.08-.88.32 0 0-.51.65-1.01 1.14 -.56.55-1.33 1.14-1.33 1.14 -.25.21-.375.54-.34.875l.4 2.43c.04.31-.12.63-.4.78 0 0-1.06.55-1.89.85 -.84.31-1.99.58-1.99.58 -.32.06-.64-.07-.82-.34l-1.3-2.11c-.19-.28-.5-.44-.83-.44 0 0-.67.05-1.266.03 -.625-.03-1.32-.12-1.32-.12 -.33-.03-.66.11-.859.375l-1.44 2c-.2.25-.53.36-.84.27 0 0-1.14-.36-1.95-.73s-1.82-.99-1.82-.99c-.266-.18-.41-.5-.34-.82l.51-2.13c.1-.45.45-1.07.77-1.38l5.307-5.33c4.32 2.38 9.08-2.37 6.7-6.698l5.31-5.318c.32-.33.93-.67 1.38-.78ZM2.84 24.97c-.32.05-.64-.08-.82-.35 0 0-.62-1.01-.99-1.82C.66 21.99.3 20.86.3 20.86c-.089-.32.02-.65.276-.84l2.005-1.44c.26-.21.4-.53.38-.86 0 0-.11-.77-.125-1.43 -.02-.65.05-1.4.05-1.4 0-.33-.16-.65-.43-.84L.38 12.72c-.266-.19-.396-.51-.323-.82 0 0 .29-1.16.62-1.98 .32-.83.89-1.87.89-1.87 .16-.28.47-.43.79-.38l2.42.45c.33.04.66-.09.88-.33 0 0 .5-.66 1-1.16 .55-.56 1.33-1.14 1.33-1.14 .25-.23.375-.56.33-.88L7.9 2.17c-.04-.32.12-.63.4-.786 0 0 1.05-.552 1.88-.87C11 .21 12.16-.07 12.16-.07c.31-.07.63.06.81.33l1.28 2.104c.19.27.5.43.83.43 0 0 .66-.05 1.26-.04 .62.02 1.31.125 1.31.125 .32.02.65-.12.85-.38L19.935.5c.19-.255.53-.365.83-.276 0 0 1.13.354 1.94.724 .8.365 1.81.984 1.81.984 .27.17.4.5.34.81l-.52 2.13c-.15.516-.41.984-.78 1.38l-5.31 5.32C13.91 9.19 9.16 13.94 11.54 18.27L6.22 23.58c-.33.32-.95.66-1.39.77Z"/></svg>