<svg viewBox="0 0 32 32" xmlns="http://www.w3.org/2000/svg"><path d="M0 2.25v5.59h2.43c1.7 0 2 1.15 2 2.74l.01 9.88c0 5.12 4.58 9.27 10.24 9.27h13.953c1.78 0 3.35-1.11 3.35-2.82V11.58c0-5.12-4.59-9.27-10.25-9.27h-5.875v-.03Zm7.63 3.42h2.8v14.08c0 1.88 1.31 3.34 2.85 3.34l9.55.04c1.99 0 3.55-1.35 3.55-2.95l-.03-7.48c.01-.46-.18-.91-.51-1.22 -.32-.34-.76-.53-1.23-.51 -.5 0-.87.15-1.23.51 -.34.31-.53.75-.52 1.21v6.39h-2.97v-6.4c0-.49-.17-.87-.53-1.22 -.32-.34-.76-.53-1.22-.51 -.49 0-.87.16-1.22.51 -.36.34-.53.72-.53 1.21v6.4h-2.97v-6.41c0-1.27.47-2.39 1.38-3.29 .875-.89 2.07-1.375 3.31-1.37 1.25 0 2.33.46 3.21 1.29 .86-.84 2.026-1.31 3.22-1.3 1.27 0 2.401.46 3.31 1.36 .89.859 1.39 2.04 1.39 3.28l.01 7.99c-.15 1.33-.72 2.52-1.71 3.51 -1.12 1.13-2.65 1.77-4.24 1.75H12.65v-.05c-1.31-.15-2.47-.7-3.43-1.625 -1.125-1.1-1.71-2.46-1.71-4.01Z"/></svg>