<svg viewBox="0 0 32 32" xmlns="http://www.w3.org/2000/svg"><path d="M23.32 19.17c-.41-.21-2.36-1.16-2.72-1.3 -.37-.13-.63-.2-.9.2 -.26.39-1.03 1.28-1.26 1.54 -.24.26-.47.28-.86.1 -.41-.21-1.69-.62-3.21-1.99 -1.19-1.06-1.98-2.359-2.22-2.76 -.24-.4-.03-.62.17-.82 .18-.19.4-.46.6-.7 .19-.24.25-.41.39-.67 .13-.29.06-.5-.04-.7 -.1-.2-.9-2.17-1.23-2.95 -.32-.78-.66-.68-.9-.68 -.23-.03-.5-.03-.76-.03 -.27 0-.7.09-1.07.47 -.37.4-1.4 1.359-1.4 3.29 0 1.94 1.42 3.82 1.62 4.1 .2.26 2.8 4.26 6.802 5.97 .95.4 1.69.64 2.27.83 .95.3 1.82.26 2.51.16 .76-.125 2.35-.97 2.68-1.91 .33-.95.33-1.73.24-1.91 -.1-.19-.36-.29-.76-.46Zm-7.25 9.82h-.03c-2.365 0-4.71-.65-6.75-1.84l-.48-.29 -5 1.3 1.34-4.87 -.33-.5c-1.32-2.099-2.03-4.53-2.03-7.01C2.79 8.52 8.73 2.59 16.04 2.59c3.54 0 6.86 1.38 9.36 3.88 2.5 2.479 3.88 5.8 3.88 9.323 -.01 7.25-5.948 13.177-13.25 13.177ZM27.34 4.58C24.29 1.64 20.29-.01 16.04-.01 7.26-.01.11 7.1.11 15.84c0 2.79.72 5.51 2.12 7.927l-2.26 8.21 8.44-2.21c2.32 1.25 4.948 1.92 7.61 1.93h0c8.78 0 15.927-7.12 15.93-15.87 0-4.234-1.66-8.219-4.67-11.22Z"/></svg>