<svg viewBox="0 0 32 32" xmlns="http://www.w3.org/2000/svg"><path d="M28.527 20.047c-.33-1.02-.69-2.03-1.07-3.02l-1.45-3.6c0-.05.02-.75.02-1.12 0-6.14-2.9-12.317-10.04-12.317C8.84-.01 5.94 6.16 5.94 12.31c-.001.36.02 1.07.02 1.11l-1.45 3.59c-.39.99-.74 2-1.068 3.01 -1.359 4.38-.93 6.19-.59 6.23 .71.08 2.803-3.3 2.803-3.3 0 1.95 1 4.51 3.192 6.36 -.82.24-1.82.64-2.46 1.11 -.577.42-.51.85-.4 1.03 .45.77 7.84.48 9.97.25 2.13.23 9.52.52 9.97-.26 .1-.18.17-.61-.4-1.04 -.65-.48-1.65-.87-2.47-1.12 2.183-1.85 3.192-4.41 3.192-6.37 0 0 2.08 3.38 2.8 3.29 .33-.04.77-1.86-.59-6.23ZM16.87 6.45c.05-1.41.88-2.51 1.84-2.47 .968.04 1.7 1.21 1.65 2.62 -.06 1.4-.88 2.5-1.85 2.45 -.97-.05-1.71-1.22-1.66-2.615Zm-3.61-2.47c.96-.05 1.79 1.05 1.84 2.46 .05 1.4-.7 2.57-1.66 2.615 -.97.04-1.8-1.06-1.85-2.46 -.06-1.407.68-2.58 1.65-2.62Zm-3.38 7.057c.25-.58 2.85-1.21 6.08-1.21h.03c3.224 0 5.83.63 6.08 1.2 .01.02.02.05.02.08 0 .04-.02.07-.04.11 -.22.31-3.11 1.88-6.067 1.88h-.04c-2.97 0-5.86-1.58-6.08-1.89 -.05-.06-.05-.14-.02-.2Zm13.89 11.49c-.3 4.9-3.21 7.98-7.7 8.03h-.19c-4.5-.05-7.407-3.125-7.7-8.04 -.11-1.8 0-3.33.19-4.573 .42.08.85.16 1.28.23v4.677s2.2.44 4.42.13v-4.3c.65.03 1.28.05 1.875.04h.03c2.23.03 4.95-.28 7.57-.8 .19 1.25.3 2.77.19 4.573ZM13.95 7.71c.41-.06.72-.55.67-1.1 -.05-.56-.42-.97-.84-.91 -.42.05-.73.54-.68 1.09 .04.55.41.95.83.907Zm5.33-.87c.1.04.29.05.38-.2 .04-.14.03-.23-.02-.29 -.04-.05-.18-.16-.5-.24 -1.21-.3-1.79.51-1.88.66 -.06.09-.02.24.07.3 .08.06.18.04.24-.02 .77-.84 1.61-.28 1.68-.25Z"/></svg>