<svg viewBox="0 0 32 32" xmlns="http://www.w3.org/2000/svg"><path d="M27.979 0H12.66v8.656h.14c1.12-1.44 2.95-2.125 4.74-1.78l-.04-.01c2.62.19 5.21 1.78 5.36 6.87v10.073c-.02.2-.18.375-.38.38h-2.82c-.21 0-.38-.18-.38-.39v-9.76c0-2.38-.79-4.151-3.12-4.151h-.06c-2.01 0-3.599 1.69-3.468 3.7v-.02 10.21c0 .21-.18.38-.38.38h-2.8c-.22 0-.39-.18-.39-.39V-.06H4.12C3.02-.06 2.13.8 2.08 1.9v27.979c.04 1.14.97 2.05 2.11 2.06h23.724c1.1-.04 1.95-.97 1.88-2.07v0V1.89c.06-1.06-.78-1.96-1.84-1.96l-.05 0Zm-3.4 27.974H7.398v-1.77h17.181Z"/></svg>