<svg viewBox="0 0 32 32" xmlns="http://www.w3.org/2000/svg"><path d="M27.818 19.3c-1.98.55-3.32 1.71-3.32 3.62v5.44c0 4.06-3.875 3.61-8.693 3.61h-.74c-.3 0-.48-.11-.48-.37v-1.87c0-.26.16-.375.46-.375h.59c2.88 0 4.9.63 4.9-1.68v-5.23c0-1.6 1.12-3.84 3.35-4.66 .16-.05.18-.12.18-.19 0-.08-.05-.19-.19-.26 -2.05-.94-3.36-2.458-3.36-4.292v-5.9c0-2.276-2-4.552-4.88-4.552h-.6c-.31 0-.45-.11-.45-.37V.36c0-.26.19-.38.5-.38h.74c4.802 0 8.72 3.43 8.72 7.495v4.958c0 1.88 1.33 2.958 3.35 3.66 .74.21 1.15.26 1.15.85v1.56c.04.33-.32.5-1.22.75Zm-17.03 12.65H3.32c-.31 0-.46-.08-.46-.34V.35c0-.22.14-.37.44-.37h7.38c.3 0 .47.115.47.37v1.94c0 .26-.17.33-.47.33h-3.3c-.41 0-.56.15-.56.41v25.88c0 .26.15.35.49.35h3.35c.3 0 .484.1.484.33v1.97c.04.22-.11.34-.42.34Zm6.5-17.375h-1.984c-.48 0-.86-.38-.86-.79v-1.8c0-.45.41-.79.85-.79h1.98c.47 0 .85.37.85.78v1.79c0 .44-.42.78-.86.78Z"/></svg>