<svg viewBox="0 0 32 32" xmlns="http://www.w3.org/2000/svg"><path d="M19.76 13.74c-3.2 1.64-6.776-1.42-5.661-4.833 1.12-3.42 5.81-3.77 7.423-.56 1 1.97.21 4.38-1.77 5.38ZM15.46.75c3.29-1.2 7.05-1.14 9.875 1.31 .59.48 1.06 1.11 1.36 1.82 .28.91-1-.1-1.18-.23 -.9-.609-1.86-1.1-2.87-1.464C17.093.48 11.84 3.57 8.59 8.386c-1.33 2.12-2.333 4.423-3 6.833 -.07.29-.16.58-.29.86 -.15.27-.07-.74-.07-.77 .12-1.01.31-2.01.57-2.99C7.31 7.06 10.63 2.7 15.43.71Zm.04 27.99V17.05c.33.03.64.05.97.05 1.51 0 3-.42 4.29-1.2v12.82c0 1.1-.21 1.907-.7 2.439 -.5.54-1.2.83-1.94.81 -.73.02-1.43-.28-1.907-.82 -.49-.54-.75-1.35-.75-2.433Z"/></svg>