<svg viewBox="0 0 32 32" xmlns="http://www.w3.org/2000/svg"><path d="M13.276.13c-.57 0-1.12.05-1.67.15C5.856 1.332 1.8 6.3 1.47 9.583c-.17 1.6.7 2.8 1.17 3.33 1.29 1.439 3.871 2.532 5.52 3.44 -2.396 2.03-3.495 3.03-4.58 4.16 -1.62 1.7-2.755 3.56-2.76 4.9 0 .43-.08 1.8.48 2.89 .2.4.81 1.77 2.62 2.79 1.15.65 2.801.89 4.41.66 4.991-.72 11.672-4.95 16.43-8.89 3.04-2.52 5.26-4.95 5.9-6.15 .51-.97.57-2.71.27-3.8 -.86-3.09-7.79-9.423-13.46-11.97C16.12.35 14.67.05 13.21.07Zm-.02.08c1.532-.02 3.04.323 4.42 1 4.57 2.25 12.31 8.573 12.88 11.75C31.25 16.89 17.41 27.53 9 29.193c-3.28.64-6.06.81-7.323-2.64 -1.105-2.99 1.03-5.177 4.176-8.052 1.3-1.2 2.34-2.09 3.917-3.42 .08-.09-7.55-2.72-7.8-5.74C1.72 6.23 6.63.5 12.92.2c.1-.01.2-.02.31-.02Zm-.15.688c-.23 0-.45.01-.68.04 -3.093.32-3.69.72-6.49 2.84 -.94.7-2.67 2.43-3.109 4.48 -.17.78.03 1.45.593 1.92 1.79 1.51 4.812 2.74 7.28 3.92 .72.34.24.97-.923 1.98 -2.95 2.55-6.94 5.65-7.22 8.02 -.129 1.11.25 2.63 1.604 3.4 1.58.9 4.86.31 7.05-.5 3.2-1.2 7.41-3.83 10.75-6.42 3.46-2.692 6.69-6.11 6.85-6.667 .19-.69.17-1.32-.21-2.05 -.6-1.14-1.39-1.99-2.24-2.94 -2.3-2.42-4.72-4.54-7.61-6.161 -1.9-1.07-3.59-1.96-5.7-1.93Zm1.41 4.79c.72 0 1.55.22 2.45.66 2.23 1.077 4.52 3.91-.02 5.54 -1.24.44-5.157-1.09-5.04-3.183 .11-2.08 1.13-3.027 2.6-3.027Zm.38 1.8c-.43 0-.77.1-.923.34 -.74 1.14-.4 1.94.28 2.463 .24-.61 2.84.05 2.83.625 .02-.02.05-.03.07-.05 2.25-1.7-.63-3.385-2.28-3.4Z"/></svg>