<svg viewBox="0 0 32 32" xmlns="http://www.w3.org/2000/svg"><path d="M28.823 8.036l.83 2.38c.04.125.04.26.01.38l-.04.12 -.1.36 -.35 1.3 -1.05 3.96c-.82 3.11-1.36 5.16-1.49 5.677 -.71 2.78-1.26 3.74-3.06 5.02 -1.59 1.11-4.875 3.35-5.51 3.75 -.08.04-.15.09-.22.14l-.26.17c-.24.17-.5.32-.76.45 -.31.14-.59.21-.88.21 -.3 0-.58-.08-.88-.22 -.27-.14-.53-.29-.76-.46l-.26-.18c-.08-.05-.15-.1-.22-.14 -.64-.4-3.93-2.64-5.51-3.76 -1.8-1.28-2.36-2.24-3.06-5.02 -.14-.52-.67-2.57-1.48-5.657L2.72 12.53l-.34-1.31 -.1-.37 -.04-.13c-.04-.125-.04-.27.01-.39l.82-2.38 -.625-1.54c-.1-.24-.05-.52.13-.7l.16-.18c.129-.15.27-.3.44-.47 .45-.484.94-.984 1.432-1.48 .46-.47 1.09-.73 1.83-.81 .62-.07 1.24-.04 1.84.08L10.69.1c.125-.15.3-.23.49-.23h9.38c.19 0 .36.079.49.224l2.41 2.749c.6-.13 1.22-.16 1.84-.09 .73.08 1.36.33 1.83.8 .67.67 1.33 1.36 1.99 2.06 .21.23.26.5.16.74l-.62 1.53Zm-1.33.19c-.06-.16-.05-.32.01-.47l.55-1.375 -.31-.32c-.47-.5-.94-.98-1.42-1.46 -.24-.23-.59-.375-1.06-.44 -.46-.05-.93-.03-1.38.06 -.11.02-.21.04-.29.05l-.1.02c-.25.06-.51-.02-.68-.21l-2.48-2.82h-8.8L9.05 4.07c-.17.19-.43.27-.68.2 -.125-.04-.26-.07-.38-.09 -.46-.09-.92-.11-1.38-.07 -.47.05-.83.2-1.06.43 -.577.58-1.16 1.17-1.72 1.771l.55 1.375c.05.15.06.31.01.46l-.85 2.42 .07.3 .34 1.3 1.04 3.96c.5 1.89.99 3.79 1.484 5.68 .63 2.5 1.032 3.2 2.54 4.27 1.56 1.09 4.839 3.32 5.443 3.7 .07.04.15.09.26.16l.24.17c.25.17.42.27.58.34 .14.06.24.09.32.09 .07 0 .18-.03.32-.1 .16-.08.32-.18.58-.35l.24-.18c.09-.07.18-.12.25-.17 .6-.38 3.88-2.61 5.44-3.71 1.5-1.07 1.91-1.77 2.54-4.28 .12-.52.66-2.567 1.47-5.67l1.04-3.99 .34-1.31 .07-.31 -.85-2.43Zm-4.89-2.604s3.43 4.17 3.43 5.063c0 .891-.44 1.12-.87 1.58L22.583 15c-.25.26-.75.65-.46 1.36 .29.7.74 1.61.25 2.52 -.49.91-1.34 1.53-1.88 1.42 -.54-.1-1.8-.77-2.27-1.07 -.47-.31-1.94-1.53-1.94-1.99 0-.47 1.52-1.31 1.8-1.5 .28-.19 1.56-.93 1.58-1.22 .02-.29.01-.38-.37-1.09 -.375-.72-1.06-1.67-.95-2.3 .1-.64 1.2-.97 1.99-1.26 .78-.3 2.29-.859 2.48-.95 .18-.09.13-.18-.44-.23 -.58-.06-2.2-.28-2.93-.07 -.73.2-1.98.516-2.08.68 -.1.16-.2.17-.09.74 .1.56.64 3.301.69 3.78 .05.484.15.8-.38.92 -.52.125-1.4.32-1.7.32 -.31 0-1.18-.21-1.7-.33 -.53-.12-.43-.44-.38-.93 .05-.49.58-3.22.69-3.79 .1-.57.01-.58-.09-.74 -.11-.17-1.35-.48-2.077-.69 -.74-.21-2.36.01-2.93.06 -.57.05-.62.13-.44.22 .19.08 1.7.65 2.48.94 .78.29 1.88.625 1.99 1.26 .11.63-.57 1.58-.95 2.29 -.39.71-.391.8-.37 1.08 .02.29 1.3 1.02 1.58 1.21 .28.19 1.8 1.02 1.8 1.49 0 .46-1.468 1.68-1.94 1.98 -.47.3-1.73.96-2.27 1.06 -.54.1-1.39-.52-1.88-1.43 -.49-.92-.05-1.82.25-2.53 .3-.71-.21-1.1-.46-1.36l-2.58-2.75c-.44-.47-.87-.7-.87-1.59 0-.9 3.43-5.07 3.43-5.07s2.901.55 3.292.55 1.24-.33 2.02-.59c.78-.26 1.3-.27 1.3-.27s.52 0 1.3.26 1.62.58 2.02.58c.39 0 3.29-.56 3.29-.56Zm-2.58 15.953c.21.13.08.38-.11.52 -.2.14-2.8 2.16-3.06 2.38 -.25.22-.62.593-.875.593 -.26 0-.625-.37-.875-.593 -.26-.23-2.86-2.25-3.06-2.39 -.2-.14-.33-.39-.11-.52 .21-.14.875-.47 1.79-.95 .91-.48 2.06-.89 2.24-.89 .17 0 1.32.4 2.24.88 .92.47 1.58.81 1.79.94Z"/></svg>