<svg viewBox="0 0 32 32" xmlns="http://www.w3.org/2000/svg"><path d="M16.016 3.464c-6.96 0-12.61 5.19-12.61 11.615 -.001 4.02 1.62 7.06 4.2 9.03h-.01l.31 4.052v.01c0 .02 0 .03 0 .05v.01c.03.19.19.33.4.33 .06 0 .13-.03.19-.05l.01-.01 3.865-2.23c1.13.26 2.35.39 3.61.39 6.95 0 12.599-5.198 12.599-11.615 0-6.411-5.65-11.609-12.61-11.609ZM13.84.95C14.53.86 15.25.82 15.98.82c.5 0 1 .02 1.49.06l.07-.82c-.53-.05-1.05-.08-1.57-.08 -.76 0-1.51.047-2.26.14l.11.818Zm5.06.12c1.21.22 2.38.583 3.47 1.063l.33-.76c-.18-.08-.36-.16-.54-.22 -1.02-.401-2.07-.71-3.15-.9ZM31.13 15.15c-.03 1.21-.21 2.4-.55 3.53l.78.23c.35-1.21.55-2.47.57-3.776ZM8.98 2.41c1.07-.516 2.23-.927 3.44-1.21L12.23.4c-.84.18-1.67.43-2.47.76 -.4.15-.79.32-1.16.5Zm18.198 1.86c-.95-.87-1.98-1.609-3.11-2.234l-.42.72c1.08.59 2.08 1.3 2.96 2.125Zm-6.99 25.115c1.26-.32 2.45-.79 3.57-1.375l-.42-.71c-1.06.55-2.18.98-3.37 1.28ZM4.89 5.31c.84-.85 1.79-1.6 2.84-2.24l-.44-.71c-.94.56-1.81 1.21-2.6 1.964 -.14.125-.266.25-.41.38Zm25.974 15.04l-.76-.32c-.47 1.1-1.08 2.151-1.81 3.1l.66.49c.77-1.01 1.41-2.12 1.89-3.29ZM27.62 5.88c.8.9 1.49 1.9 2.04 2.96l.74-.37c-.59-1.14-1.31-2.2-2.18-3.16l-.62.55Zm3.4 4l-.76.32c.41 1.1.69 2.27.8 3.47l.81-.08c-.12-1.28-.41-2.526-.87-3.724ZM8.49 30.42l-1.3.56 -.45-1.37 -.79.25 .58 1.79c.04.1.12.2.22.25 .05.02.1.03.16.03 .05 0 .11-.01.16-.04l1.7-.75Zm5.099-1.59c-.11-.03-.22-.04-.32-.06l-.62-.11c-.09-.01-.17 0-.23.03l-2.61 1.13 .36.74 2.458-1.07c.16.02.33.05.49.07 .08.02.18.03.27.05Zm4.968.02c-.85.14-1.71.2-2.59.2 -.37 0-.71-.03-1.04-.06l-.03.82c.33.03.68.05 1.05.05 .92 0 1.84-.08 2.72-.23ZM1.99 9.44c.49-1.11 1.13-2.13 1.9-3.08l-.625-.55c-.82.99-1.49 2.07-2.01 3.24l-.02.02ZM27.349 24.23c-.82.86-1.75 1.63-2.76 2.3l.45.68c1.07-.7 2.05-1.53 2.92-2.44ZM1.25 19.35C1 18.28.85 17.11.82 15.78h-.83C.03 17.2.19 18.45.45 19.57ZM.67 10.52C.28 11.73.05 12.98-.02 14.27l.82.04c.05-1.234.27-2.43.64-3.56ZM6.27 28.2l-.79-2.42c-.03-.09-.08-.15-.15-.2 -.32-.25-.6-.49-.88-.75l-.57.59c.25.25.54.48.839.72l.74 2.28Zm-2.81-4.39c-.8-.93-1.39-1.94-1.807-3.09l-.77.3c.05.14.1.28.16.42 .44 1.06 1.03 2.01 1.79 2.901Z"/></svg>