<svg viewBox="0 0 32 32" xmlns="http://www.w3.org/2000/svg"><path d="M21.469 23.907l-3.6 3.47c-.63.625-1.49.88-2.44.88s-1.81-.26-2.44-.89L7.2 21.54c-.62-.625-.94-1.54-.94-2.49 0-.96.31-1.82.93-2.44l5.76-5.85c.62-.62 1.5-.859 2.44-.859s1.8.26 2.43.88l3.59 3.47c.68.68 1.82.66 2.53-.06 .7-.72.73-1.85.04-2.54l-3.48-3.52c-.91-.9-2.04-1.51-3.27-1.79l3.28-3.333c.68-.69.66-1.823-.05-2.54 -.72-.72-1.85-.74-2.54-.06L4.45 13.87c-1.31 1.31-1.99 3.11-1.99 5.11 0 1.99.68 3.86 1.98 5.16l5.797 5.81c1.3 1.3 3.115 1.93 5.115 1.93 1.99 0 3.801-.69 5.109-1.99l3.47-3.53c.68-.69.66-1.82-.06-2.54s-1.85-.74-2.54-.06Zm6.28-6.558H14.21c-.94 0-1.7.8-1.7 1.79s.76 1.79 1.69 1.79H27.73c.93 0 1.69-.81 1.69-1.8s-.76-1.8-1.7-1.8Z"/></svg>