<svg viewBox="0 0 32 32" xmlns="http://www.w3.org/2000/svg"><path d="M0 0v32h32V0Zm18.901 21.05c-.86.78-1.88 1.16-3.08 1.16 -1.21 0-2.22-.19-3.099-.55 -.87-.36-1.31-.7-1.31-1.05l-.11.12c0-.18.1-.44.32-.79 .21-.35.41-.52.58-.52 .01 0 .15.07.41.24 .26.16.63.32 1.11.49 .48.16 1.07.25 1.75.25 .7 0 1.26-.2 1.7-.59 .43-.4.65-.92.65-1.59s-.2-1.19-.58-1.57c-.39-.375-1.17-.73-2.324-1.06 -1.16-.34-2-.76-2.52-1.26 -.53-.516-.79-1.3-.79-2.333 0-1.05.39-1.92 1.19-2.615 .8-.72 1.83-1.07 3.12-1.07 .9 0 1.68.09 2.38.33 .69.22 1.04.47 1.04.73 0 .22-.11.52-.31.86 -.21.36-.38.52-.53.52 -.02 0-.12-.06-.35-.17 -.58-.32-1.24-.48-1.98-.48s-1.31.14-1.72.44c-.41.29-.6.69-.6 1.17 0 .47.16.86.45 1.14 .29.28.81.52 1.55.76 1.64.5 2.74 1.03 3.32 1.64 .57.59.88 1.5.88 2.699 0 1.19-.42 2.19-1.28 2.97Z"/></svg>