<svg viewBox="0 0 32 32" xmlns="http://www.w3.org/2000/svg"><path d="M31.96 8.55c-.15 3.12-2.32 7.39-6.53 12.81 -4.36 5.66-8.04 8.49-11.06 8.49 -1.88 0-3.44-1.73-4.74-5.18l-2.56-9.5C6.11 11.72 5.09 10 3.99 10c-.24 0-1.08.5-2.511 1.5L-.03 9.55C1.55 8.15 3.1 6.77 4.64 5.38 6.74 3.55 8.32 2.6 9.38 2.5c2.48-.24 4.02 1.46 4.599 5.11 .62 3.93 1.04 6.38 1.29 7.34 .71 3.26 1.5 4.9 2.36 4.9 .66 0 1.67-1.07 3.02-3.183 1.33-2.12 2.05-3.73 2.14-4.839 .19-1.83-.53-2.75-2.16-2.75 -.77 0-1.56.16-2.38.52 1.58-5.16 4.57-7.68 9.01-7.52 3.29.07 4.83 2.21 4.65 6.39Z"/></svg>