<svg viewBox="0 0 32 32" xmlns="http://www.w3.org/2000/svg"><path d="M31.584 15.615l-1.33-.83c-.01-.14-.02-.27-.04-.39l1.14-1.07c.24-.24.16-.65-.16-.77L29.73 12c-.04-.13-.08-.26-.12-.38l.9-1.26c.2-.28.04-.67-.3-.72l-1.54-.26c-.06-.12-.12-.23-.19-.35l.64-1.42c.06-.15.05-.32-.04-.45 -.09-.14-.24-.21-.4-.21L27.11 7c-.08-.11-.17-.21-.25-.31l.36-1.516c.07-.34-.22-.63-.56-.56l-1.52.36c-.1-.09-.2-.17-.31-.25l.05-1.57c.01-.34-.34-.577-.65-.44l-1.42.645c-.12-.07-.23-.13-.35-.19l-.26-1.54c-.06-.34-.45-.5-.72-.3l-1.26.9c-.125-.05-.26-.08-.375-.12L19.29.65c-.12-.32-.54-.401-.76-.16L17.46 1.64c-.13-.02-.26-.04-.4-.05L16.24.26c-.18-.3-.6-.3-.78 0l-.83 1.324c-.14 0-.26.02-.39.04L13.17.48c-.24-.244-.65-.17-.77.15l-.55 1.45c-.13.03-.25.07-.38.11l-1.26-.91c-.28-.2-.67-.04-.72.29L9.23 3.1c-.12.05-.23.12-.35.18L7.46 2.63c-.32-.14-.67.09-.65.43l.05 1.56c-.1.07-.2.16-.3.24L5.04 4.5c-.33-.08-.625.21-.548.55l.35 1.516c-.09.09-.17.19-.25.3l-1.56-.06c-.35-.02-.58.33-.44.64l.64 1.41c-.07.11-.125.22-.19.34l-1.536.25c-.34.05-.5.44-.3.71l.91 1.26c-.05.13-.08.25-.12.38l-1.46.54c-.32.11-.4.53-.16.76l1.14 1.06c-.02.12-.03.25-.04.38l-1.328.82c-.3.17-.3.59-.001.77l1.328.82c0 .13.02.26.03.38l-1.14 1.06c-.26.22-.17.64.15.76l1.45.54c.03.12.07.24.11.375l-.92 1.26c-.2.27-.04.66.3.71l1.53.25c.05.11.12.22.18.34l-.65 1.41c-.14.31.09.66.43.64l1.55-.06c.08.1.16.19.25.29l-.36 1.52c-.08.32.21.62.548.54l1.52-.36c.09.08.19.16.3.24L6.7 28.4c-.02.34.33.57.64.43l1.41-.65c.11.06.22.12.34.18l.25 1.53c.05.33.43.48.71.29l1.26-.92c.125.04.25.07.375.11l.548 1.45c.11.32.52.4.76.15l1.06-1.15c.12.01.25.03.38.04l.82 1.32c.17.28.59.28.77 0l.82-1.33c.13-.01.25-.03.38-.05l1.06 1.14c.23.24.64.16.76-.16l.54-1.46c.12-.04.24-.08.375-.12l1.26.91c.27.2.66.03.71-.3l.25-1.54c.12-.07.23-.125.34-.19l1.41.64c.3.14.65-.1.64-.44l-.06-1.56c.1-.09.2-.17.29-.25l1.52.35c.32.07.62-.22.55-.55l-.36-1.53c.08-.1.16-.2.24-.3l1.56.05c.33.01.57-.34.43-.65l-.65-1.42c.06-.12.12-.23.18-.35l1.53-.26c.33-.06.49-.45.29-.72l-.91-1.26 .11-.375 1.45-.55c.32-.12.4-.54.15-.76l-1.15-1.07c.01-.13.02-.26.03-.39l1.32-.83c.29-.18.29-.6 0-.78Zm-8.881 11c-1.23-.26-.84-2.099.39-1.84 .5.1.82.6.71 1.12 -.11.5-.61.82-1.12.71Zm-.45-3.05c-.47-.1-.93.19-1.02.66l-.48 2.192c-1.46.66-3.07 1.032-4.77 1.032 -1.69 0-3.35-.37-4.87-1.08l-.48-2.2c-.1-.47-.56-.77-1.016-.66l-1.94.41c-.37-.37-.7-.77-1.005-1.19h9.443c.1 0 .17-.02.17-.12v-3.34c0-.1-.08-.12-.18-.12h-2.77v-2.12h2.98c.27 0 1.45.07 1.83 1.593 .12.46.38 1.97.55 2.46 .17.54.9 1.62 1.67 1.62h4.7c.05 0 .11-.01.17-.02 -.33.44-.69.86-1.07 1.25Zm-13.058 3c-.51.1-1.01-.22-1.12-.73 -.11-.52.21-1.02.72-1.12 .5-.11 1 .21 1.11.71 .1.51-.22 1.01-.72 1.12Zm-3.59-14.53c.22.48.02 1.05-.47 1.27 -.484.21-1.06-.02-1.26-.51 -.46-1.13 1.19-1.859 1.71-.77Zm-1.1 2.6l2.02-.9c.43-.2.625-.7.43-1.13l-.42-.95h1.64v7.38h-3.31c-.41-1.44-.54-2.94-.375-4.42Zm8.86-.72v-2.18h3.89c.2 0 1.42.23 1.42 1.14 0 .76-.94 1.03-1.71 1.03Zm14.16 1.95c0 .28-.02.57-.04.85h-1.19c-.12 0-.17.07-.17.19v.54c0 1.28-.72 1.55-1.36 1.63 -.61.06-1.28-.26-1.36-.62 -.36-2-.95-2.43-1.89-3.167 1.16-.74 2.36-1.83 2.36-3.29 0-1.58-1.08-2.57-1.82-3.05 -1.032-.69-2.18-.82-2.48-.82H7.31C9 6.23 11.27 4.94 13.76 4.46L15.2 5.98c.32.33.86.35 1.2.02l1.61-1.55c3.33.625 6.22 2.683 7.91 5.631l-1.11 2.5c-.19.43 0 .93.43 1.13l2.13.94c.03.38.05.76.05 1.15ZM15.27 3.21c.9-.87 2.2.49 1.29 1.36 -.91.78-2.115-.5-1.3-1.36Zm10.98 8.83c.2-.48.76-.69 1.23-.48 .77.33.74 1.43-.04 1.74 -.79.3-1.55-.5-1.2-1.27Z"/></svg>