<svg viewBox="0 0 32 32" xmlns="http://www.w3.org/2000/svg"><path d="M16 0c8.83 0 16 7.161 16 16 0 8.83-7.17 16-16 16C7.161 32 0 24.83 0 16 0 7.16 7.161 0 16 0Zm-3.183 21.328c.23.86.2 1.66-.04 2.39l-.09.24c-.04.08-.08.16-.11.23 -.19.39-.44.74-.74 1.08 -.94 1.01-2.23 1.39-2.79 1.07 -.61-.35-.31-1.79.77-2.93 1.16-1.23 2.82-2.02 2.82-2.02v-.01Zm13.21-14.479c-.73-2.85-5.44-3.776-9.896-2.2 -2.66.94-5.53 2.423-7.593 4.35 -2.46 2.29-2.849 4.29-2.69 5.129 .57 2.94 4.6 4.88 6.271 6.3v.01c-.5.23-4.073 2.03-4.912 3.901 -.91 1.95.14 3.35.81 3.53 2.1.58 4.26-.48 5.423-2.2 1.12-1.69 1.02-3.84.53-4.9 .66-.18 1.44-.27 2.44-.15 2.8.32 3.36 2.08 3.24 2.8 -.12.71-.7 1.14-.91 1.26 -.2.12-.26.15-.24.24 .02.12.12.12.28.09 .21-.04 1.45-.6 1.52-1.96 .05-1.73-1.59-3.64-4.5-3.61 -1.21.02-1.97.125-2.5.34 -.05-.06-.09-.1-.15-.15 -1.81-1.94-5.14-3.3-5-5.88 .04-.94.38-3.42 6.4-6.416 4.93-2.47 8.88-1.79 9.55-.29 .98 2.14-2.099 6.12-7.24 6.697 -1.96.21-2.98-.54-3.24-.82 -.29-.31-.32-.33-.43-.26 -.16.07-.06.33 0 .5 .16.4.78 1.09 1.86 1.45 .93.3 3.24.48 6-.6 3.099-1.2 5.51-4.54 4.817-7.339Z"/></svg>