<svg viewBox="0 0 32 32" xmlns="http://www.w3.org/2000/svg"><path d="M4 0C1.787 0 0 1.787 0 4v8.14h3.81c1.45 0 2.625 1.16 2.615 2.615v.03c1.08-.14 1.75-.48 2.23-.92 .55-.52.923-1.22 1.35-2 .43-.79.94-1.67 1.88-2.3 .76-.53 1.8-.86 3.17-.92v-.6c0-1.46 1.17-2.64 2.62-2.64h10.52c1.45 0 2.63 1.17 2.63 2.63v2.58c0 1.45-1.18 2.7-2.64 2.7H17.66c-1.46 0-2.63-1.26-2.63-2.71v-.61c-1.141.04-1.88.31-2.4.67 -.641.43-1.04 1.06-1.45 1.82 -.42.75-.85 1.63-1.64 2.35l-.11.08c4.093.55 5.95 2.07 7.53 3.45 1.84 1.62 3.29 3.03 8.396 3.05v-.62c0-1.46 1.19-2.593 2.65-2.593h3.92V3.91c0-2.213-1.79-4-4-4Zm13.703 7.213c-.5 0-.92.36-.92.84v2.58c0 .48.42.84.91.84h10.52c.47.01.86-.375.84-.85V8.03c.01-.48-.38-.87-.85-.85ZM0 13.932v4.35h3.81c.5-.02.89-.43.9-.93v-2.59c0-.49-.42-.85-.91-.85Zm6.427 2.22v1.2c.01 1.45-1.17 2.63-2.62 2.63H-.02v8c0 2.21 1.787 4 4 4h24c2.21 0 4-1.79 4-4v-1.86h-3.93c-1.46 0-2.66-1.22-2.66-2.68v-.6c-5.4-.05-7.47-1.78-9.31-3.4 -1.92-1.68-3.667-3.24-9.693-3.33Zm21.652 3.84c-.49 0-.88.39-.87.88v2.58c0 .48.37.81.86.81h3.92v-4.29Z"/></svg>