<svg viewBox="0 0 32 32" xmlns="http://www.w3.org/2000/svg"><path d="M22.15 18.552c-1.375 0-1.91-1.27-1.91-2.56 0-1.31.53-2.57 1.9-2.57 1.37 0 1.9 1.266 1.9 2.56 0 1.28-.54 2.55-1.91 2.55Zm0-6.41c-2.18 0-3.43 1.625-3.43 3.85 0 2.22 1.25 3.85 3.42 3.85 2.16 0 3.42-1.625 3.42-3.86 0-2.23-1.26-3.86-3.43-3.86Zm-22.16.2H5.43v1.29H1.51v1.609H5.17v1.27H1.51v1.8H5.43v1.3H-.01Zm8.974 3.792H7.58v-2.5H8.96c.94 0 1.57.41 1.57 1.25 0 .82-.64 1.24-1.58 1.24Zm-2.891 3.48H7.59v-2.19h1.37c1.84 0 3.083-.92 3.083-2.542 0-1.64-1.24-2.56-3.083-2.56H6.07Zm21.61-7.28h-1.56v7.27h1.49v-2.96c0-.8-.03-1.53-.06-2.141 .17.359.7 1.44.94 1.86l1.93 3.23h1.54v-7.29h-1.48v2.88c0 .79.02 1.59.05 2.22 -.18-.37-.71-1.47-.96-1.875Zm-13.91 4.87c0 .97.81 1.35 1.66 1.35 .56 0 1.49-.17 1.49-.92 0-.8-1.125-.95-2.21-1.23 -1.14-.31-2.23-.73-2.23-2.083 0-1.51 1.41-2.22 2.74-2.22 1.53 0 2.94.66 2.94 2.365h-1.51c-.06-.89-.734-1.109-1.51-1.109 -.516 0-1.17.2-1.17.82 0 .55.37.64 2.21 1.12 .52.14 2.21.47 2.21 2.125 0 1.35-1.07 2.36-3.06 2.36 -1.625 0-3.15-.8-3.13-2.62Z"/></svg>