<svg viewBox="0 0 32 32" xmlns="http://www.w3.org/2000/svg"><path d="M30.921 10.505c0-6.95-4.55-8.98-4.55-8.98 -2.3-1.06-6.23-1.5-10.323-1.54h-.1C11.85.01 7.92.45 5.63 1.51s-4.553 2.032-4.553 8.97c-.001 1.58-.04 3.48.02 5.5 .16 6.79 1.24 13.47 7.52 15.14 2.89.76 5.38.92 7.38.81 3.63-.21 5.66-1.3 5.66-1.3l-.12-2.64s-2.593.81-5.51.71c-2.885-.1-5.932-.31-6.4-3.86 -.05-.33-.07-.67-.07-1 0 0 2.83.69 6.427.85 2.192.09 4.24-.13 6.34-.38 4-.48 7.5-2.95 7.93-5.21 .68-3.56.62-8.677.62-8.677Zm-5.37 8.94h-3.33v-8.161c0-1.72-.73-2.6-2.18-2.6 -1.6 0-2.401 1.03-2.401 3.08v4.46h-3.32v-4.47c0-2.05-.81-3.09-2.401-3.09 -1.45 0-2.18.87-2.18 2.59v8.15H6.4V11c0-1.72.43-3.09 1.31-4.1C8.62 5.88 9.79 5.37 11.27 5.37c1.7 0 2.99.657 3.849 1.96l.82 1.39 .82-1.4c.85-1.32 2.14-1.97 3.849-1.97 1.47 0 2.66.52 3.56 1.532 .875 1.01 1.31 2.37 1.31 4.09Z"/></svg>