<svg viewBox="0 0 32 32" xmlns="http://www.w3.org/2000/svg"><path d="M10.86 20.13c.06.45.18.74.37.92 .18.17.45.24.79.28 .4-.05.68-.14.87-.41 .1-.18.18-.45.21-.82l.12-1.55v-.03l-.03-.24 -.05-.23 -.04-.24 -.05-.22 -.04-.23 -.05-.23 -.05-.22 -.04-.23 -.04-.22 -.05-.21 -.05-.2v-.19l-.04-.19 -.05-.18 -.02-.17 -.05-.16 -.04-.14 -.05-.23 -.07-.23 -.07-.24 -.06-.24 -.02-.27 -.08-.28 -.06-.28 -.08-.29 -.04-.29 -.06-.29 -.05-.29 -.03-.33 -.02-.29 -.02-.31v-.54l.02-.29 .04-.29 .06-.29 .07-.27 .12-.27 .19-.35c-.27-.07-.59-.11-.93-.11 -.15 0-.27 0-.41.02 -3.11.26-1.84 3.78-1.31 5.708 .375 1.33.8 4.45.96 5.41l-.03-.03Zm.37-11.56c.11.03.23.05.38.05 .63 0 1.05-.34 1.27-.86 .15-.36.21-.81.2-1.26 -.02-.41-.1-.77-.22-1.08 -.26-.625-.72-1.05-1.42-1.05 -.1 0-.19 0-.24.02 -.91.14-1.31 1.037-1.26 2.14 .01 1.03.41 1.907 1.23 2.1l.03-.08Zm1.66 5.11c.1.48.22.923.31 1.3 .38 1.54.75 5.125.88 6.224 .13 1.09.52 1.31 1.29 1.4 .76-.06 1.15-.31 1.28-1.38 .12-1.08.5-4.67.875-6.21 .08-.375.21-.82.31-1.29 .34-1.4.625-3.06 0-4.129 -.4-.69-1.16-1.12-2.48-1.12 -1.34 0-2.109.43-2.5 1.14 -.62 1.07-.34 2.74 0 4.14Zm2.47-5.71h.02c1.19 0 1.77-1.1 1.77-2.45s-.57-2.46-1.77-2.46h-.02c-1.22 0-1.78 1.12-1.78 2.48 0 1.359.55 2.45 1.78 2.45v-.05Zm3.77 1c-.36 0-.69.04-.95.09l.06.1 .14.25 .09.26 .07.28 .06.28 .04.28 .01.3v.58l-.02.3v.22l-.09.57 -.06.28 -.07.27 -.06.28 -.07.27 -.07.26 -.07.26 -.09.26 -.07.23 -.05.24 -.07.22 -.02.12 -.05.15 -.05.18 -.04.18 -.03.17 -.05.16v.04l-.05.19 -.04.2 -.03.21 -.05.22 -.03.22 -.05.21 -.03.23 -.02.21 -.07.71v.02c.06.66.09 1.24.11 1.56 .04.38.1.63.22.81 .18.26.46.36.88.4 .34-.05.59-.1.79-.3 .2-.17.3-.46.38-.93 .16-.94.58-4.07.94-5.407 .53-1.94 1.8-5.45-1.31-5.708 -.15-.03-.27-.03-.4-.03l.01-.07Zm.02-.36c.12 0 .24-.02.35-.05 .8-.2 1.2-1.06 1.24-2.077 .04-1.08-.36-2-1.27-2.12 -.08-.03-.17-.03-.24-.03 -.72 0-1.19.44-1.43 1.05 -.12.31-.2.69-.2 1.09 -.03.47.03.91.19 1.27 .21.53.64.88 1.28.88l.03-.07Zm3.71 1.59c5.724.08 9.06 3.6 5.28 8.4 -1.76 2.224-4.71 4.42-8.651 5.82l-.57.19c-.39.12-.75.24-1.11.34 -.88.24-1.69.45-2.49.62 -.87.18-1.71.3-2.51.39 -.59.06-1.15.1-1.67.1 -3.67.1-6.421-.9-7.32-3.05 -1.09-2.56 1.093-6.12 5.48-8.839C6.05 15.46.17 18.55-.09 22.93v.55c.021.46.1.9.261 1.39 .94 2.95 5.34 4.35 10.943 3.86 .54-.05 1.1-.1 1.66-.19 .8-.11 1.64-.28 2.47-.48 .8-.18 1.64-.42 2.48-.69l.55-.18c.38-.12.74-.24 1.1-.38 4.86-1.76 8.46-4.099 10.56-6.81 1.19-1.54 1.81-2.98 1.93-4.24v-.98c-.35-3.22-4.08-5.1-9.17-4.58l.05-.07Z"/></svg>