<svg viewBox="0 0 32 32" xmlns="http://www.w3.org/2000/svg"><path d="M22.17 22.005c1.16-.1 2.05-1.12 2-2.34 -.07-1.22-1.07-2.2-2.276-2.2h-.09c-1.26.04-2.24 1.09-2.2 2.35 .04.64.3 1.15.66 1.53 -1.41 2.71-3.5 4.715-6.677 6.39 -2.14 1.11-4.4 1.53-6.59 1.23 -1.84-.26-3.276-1.08-4.156-2.4 -1.319-2-1.44-4.151-.34-6.32 .8-1.56 2-2.7 2.796-3.26 -.2-.52-.44-1.4-.56-2.06 -5.916 4.23-5.32 10.03-3.52 12.76 1.339 2 4.072 3.276 7.06 3.276 .8 0 1.64-.06 2.45-.27 5.19-1 9.13-4.12 11.38-8.71Zm7.13-5c-3.093-3.64-7.651-5.64-12.843-5.64h-.69c-.34-.74-1.12-1.2-2-1.2h-.06c-1.26 0-2.24 1.08-2.2 2.33 .04 1.19 1.05 2.19 2.276 2.19h.1c.9-.05 1.67-.6 2-1.41h.73c3.07 0 5.991.9 8.65 2.657 2.03 1.33 3.49 3.099 4.31 5.19 .71 1.71.67 3.39-.07 4.79 -1.14 2.192-3.06 3.35-5.59 3.35 -1.6 0-3.16-.5-3.96-.86 -.48.39-1.29 1.05-1.86 1.45 1.76.79 3.53 1.25 5.256 1.25 3.89 0 6.79-2.2 7.89-4.32 1.19-2.4 1.09-6.433-1.96-9.9Zm-20.66 5.71c.04 1.19 1.05 2.19 2.28 2.19h.07c1.28-.05 2.25-1.1 2.19-2.36 0-1.2-1.04-2.2-2.26-2.2h-.09c-.08 0-.2 0-.31.04 -1.66-2.8-2.36-5.8-2.1-9.032 .15-2.44.95-4.552 2.39-6.32C12 3.53 14.26 2.79 15.8 2.75c4.31-.09 6.11 5.29 6.25 7.432l2 .59C23.58 4.22 19.51.79 15.61.79c-3.66 0-7.032 2.65-8.4 6.552 -1.86 5.199-.64 10.18 1.64 14.18 -.2.25-.32.71-.29 1.15Z"/></svg>