<svg viewBox="0 0 32 32" xmlns="http://www.w3.org/2000/svg"><path d="M16 0C7.167 0 0 7.16 0 16c0 8.83 7.16 16 16 16 8.83 0 16-7.17 16-16 0-8.84-7.17-16-16-16Zm1.02 5.474c.24 0 .48.06.69.2 .16.1.38.24 1 1.53 .41-.12.625-.06.73-.03 .27.07.49.25.62.5 .63 1.21.72 3.4.44 4.8 -.32 1.641-1.01 2.7-1.51 3.43 .43.43 1.03 1.19 1.49 2.43 .37 1.03.41 1.97.36 2.68 .27-.13.54-.28.8-.44 .79-.49 1.97-1.23 3.401-1.25 .95-.01 1.69.59 1.8 1.47 .1.83-.44 1.625-1.26 1.81 -.87.21-1.27.375-2.43 1.125 -1.65 1.06-3.39 1.65-4.02 1.85 -.28.22-.6.38-.95.45 -.98.24-4.36.42-4.62.42h-.07c-1.05 0-1.62-.33-1.94-.66 -.875.43-2.01.25-2.83-.18 -.58-.29-.89-.92-.78-1.55 -.08-.08-.15-.17-.21-.26 -.22-.34-.71-1.25-.61-2.6 .07-.97.74-1.83 1.17-2.276 -.04-1.04.15-2.06.54-3.01 .4-.97 1.17-1.8 1.76-2.32 -.43-.72-.859-1.83-.45-2.95 .3-.81.55-1.25 1.09-1.45h-.01c.266-.1.52-.21.64-.35 .79-.87 1.89-1.396 3.06-1.48 .04-.12.1-.25.16-.375 .41-.875.84-1.37 1.36-1.56 .14-.06.28-.08.43-.08Zm0 .93c-.68.02-1.34 2.026-1.34 2.026s-1.7-.28-3.03 1.16c-.266.29-.625.44-1 .58 -.11.03-.24.02-.56.89 -.5 1.31.83 2.792.83 2.792s-1.59 1.11-2.167 2.5c-.66 1.52-.46 3.01-.46 3.01s-1.125.97-1.2 1.98c-.07.88.18 1.59.45 2.02 .3.45.68.23.68.23s-.75.87-.06 1.24c.63.33 1.7.52 2.28-.06 .41-.42.49-1.34.64-1.71 .03-.09.16.14.28.26 .13.125.34.26.34.26s-1.01.43-.6 1.42c.13.32.625.53 1.42.53 .29-.01 3.55-.19 4.417-.4 .5-.12.67-.38.67-.38s2.08-.58 3.99-1.81c1.22-.8 1.72-1.02 2.71-1.25 .81-.2.76-1.47-.33-1.45 -1.12.01-2.099.58-2.93 1.09 -1.56.95-2.33.89-2.33.89l-.03-.05c-.11-.18.49-1.73-.18-3.58 -.73-2.02-1.89-2.51-1.8-2.67 .39-.67 1.38-1.73 1.78-3.708 .23-1.2.17-3.167-.36-4.2 -.1-.2-.98.32-.98.32s-.82-1.83-1.05-1.979c-.07-.05-.14-.07-.22-.07Z"/></svg>