<svg viewBox="0 0 32 32" xmlns="http://www.w3.org/2000/svg"><path d="M27.479-.001H4.52c-1.61 0-2.89 1.281-2.89 2.88v26.24c0 1.59 1.27 2.88 2.88 2.88h22.957c1.6 0 2.88-1.29 2.88-2.88V2.87c0-1.6-1.28-2.88-2.89-2.88Zm1.28 29.12c0 .71-.57 1.28-1.29 1.28H4.51c-.72 0-1.29-.57-1.29-1.29V2.86c0-.72.56-1.29 1.28-1.29H27.45c.71 0 1.28.563 1.28 1.281ZM8.83 27.189l3.59-3.2 -3.599-3.2Zm12.96-12.96c-.65-.65-1.84-1.44-3.84-1.44 -2.17 0-4.401.55-6 1.11V4.78H8.74v13.83l2.24-1.05s3.683-1.68 6.88-1.68c1.59 0 2 .88 2 1.67v9.59h3.2v-9.6c.07-.24.07-2-1.28-3.36Zm-4.24-4.24h3.19c1.43-1.69 2.16-3.36 2.401-5.2h-3.2c-.33 1.83-1.125 3.51-2.401 5.19Z"/></svg>