<svg viewBox="0 0 32 32" xmlns="http://www.w3.org/2000/svg"><path d="M32 15.97h-.04l-5.76-5.76 5.73-5.89v-2.4l-.87-.87H20.12l-.88.8V3.24L15.99-.01v-.04l-.03.021 -.03-.021v.036L14.21 1.7l-.72-.72H2.66l-.85.927v2.51l.81.82h.964v7.07L-.03 15.91h-.04l.021.01 -.021.02h.036l3.609 3.6v8.625l1.2.69h3.09l2.47-2.55 5.552 5.55v.03l.02-.03 .02.02v-.04l3.34-3.35h.64c.15 0 .28-.1.33-.24l.19-.57c.03-.12.01-.23-.06-.33l1.94-1.95 -.82 2.61c-.06.19.04.38.23.44 .03.01.06.02.1.02h2.43c.14-.01.26-.09.32-.22l.21-.53c.03-.09.03-.19-.01-.28 -.04-.09-.11-.16-.2-.19 -.04-.02-.09-.03-.13-.04h-.1l1.12-3.53h1.64l-1.36 4.29c-.06.18.05.38.23.44 .03.01.07.01.1.01h2.66c.14 0 .27-.09.33-.23l.21-.58c.06-.19-.04-.39-.22-.46 -.04-.02-.08-.03-.12-.03h-.2l1.5-4.901c.03-.11.01-.23-.06-.32l-.5-.68v-.01c-.07-.09-.18-.15-.29-.15h-1.92c-.1 0-.19.04-.25.1l-.54.58h-.83l-.06-.07 5.927-5.927h.03l-.03-.02Zm-18.88 12.2l2.1-6.02h-.68l.4-.41h2.2l-2.09 6.07h.83l-.11.34Zm4.92-10.03l.2.2 -.36 1.22 -.31.3h-1.3l-.24-.24 .41-1.17 .38-.34ZM7.45 27.75H5.16l-.36-.2V4.09H3.15l-.14-.13V2.39l.19-.21h9.828l.28.28V3.94l-.2.22h-1.44V15.75l11.74-11.59h-2.79l-.24-.25V2.35l.16-.15h9.98l.17.17v1.42l-13.46 13.8h-.5c-.03 0-.04 0-.06 0l-.03 0c-.06.01-.12.04-.16.07l-.46.39 -.01 0c-.05.04-.08.08-.1.14l-.4 1.1Zm19.693-5.27l.63-.7h1.77l.41.55 -1.69 5.474h.65l-.11.28H26.42l1.5-4.76h-2.69l-1.44 4.52h.56l-.1.23H22.1l1.47-4.73h-2.8l-1.42 4.45h.58l-.1.27h-2.22l2.02-5.948h-.79l.12-.36h2.19l.69.71h1.2l.65-.74h1.41l.65.71Z"/></svg>