<svg viewBox="0 0 32 32" xmlns="http://www.w3.org/2000/svg"><path d="M24.55 13.177c-.92 1.48-2.44 2.29-3.99 2.47 -5.64.64-8.07-5.54-4.63-8.968 3.08-3.084 9.44-1.21 9.344 3.86 -.02.81-.23 1.8-.73 2.63Zm-8.62-2.71c.19 4.792 6.355 4.907 7.58 1.4 1.08-3.093-1.5-5.593-4.256-5.2 -2.03.29-3.41 1.88-3.33 3.79ZM30.81 7.99c.38-.18.93-.56 1.12-.33 .28.33-.62.62-1 .88 -1.23.79-2.308 1.63-3.31 2.72 -1.28 1.41-2.593 3.17-3.4 5.093 .82.04 4.03.2 4.8 1.97 .62 1.41-.52 2.875-1.76 3.5 .88.55 2.41 1.26 2.32 2.53 -.22 3.125-4.927 2.98-6.907.92 -.33-.39-.48-.64-.34-.78 .2-.18.43.25.9.63 .3.24.5.33.76.47 1.73.91 4.448.53 4.63-1.06 .08-.74-.89-1.28-1.625-1.61 -.67-.31-2.02-.52-1.99-1.28 .02-.74.69-.6 1.375-.87 .73-.3 1.33-1.21 1.33-1.5 -.01-1.21-2.75-1.19-4.3-1.23 -.37.81-.63 1.63-.93 2.88 -.19.77-.21 2.52-1 2.7 -.98.21-1.35-.64-1.94-1.32 -.8-.93-1.92-2.19-2.59-2.97 -4.05 1.33-7.2 2.79-11.01 4.95 -1.76.98-2.76 2.12-3.4 1.8 -.532-.26-.46-.85-.2-1.19 .52-.7 1.23-1.64 1.86-2.52 .8-1.14 1.4-2.224 1.83-3.26 .92-2.26 1.64-6.292 1.96-7.82 .12-.55.41-.47.43-.2 .03.56-.32 2.72-.39 3.17 -.59 3.7-1.032 5.88-2.683 8.468 2.92-1.82 6.407-4.03 10.125-5.276C11.68 13.12 7.68 9 2.13 6.4c-.86-.484-2.24-.59-2.24-.92 0-.36 1.041-.08 1.391.01 3.17.79 6.42 2.85 8.803 4.59 2.859 2.08 6.28 5.28 7.57 6.776 .875-.31 3.04-.61 4.92-.67 1-2.109 3.4-5.36 6.38-7.27 .54-.35 1.11-.8 1.74-1.077ZM19.35 18.759c.56.57.99 1.24 1.48 1.86 .22-.79.53-1.62.85-2.35 -.83.1-1.71.27-2.34.47Z"/></svg>