<svg viewBox="0 0 32 32" xmlns="http://www.w3.org/2000/svg"><path d="M16 0C8.307 0 2.099 5.984 2.099 13.964c0 8.005 6.208 13.96 13.901 13.96 1.31 0 2.57-.19 3.78-.52l1.51 3.89c.15.42.46.68 1.02.68h2.401c.57 0 1-.38.73-1.11l-1.96-5.093c3.849-2.43 6.407-6.72 6.407-11.86 0-7.96-6.21-13.943-13.901-13.943Zm6.04 22.083l-1.76-4.561c-.16-.38-.47-.73-1.14-.73h-2.29c-.58 0-1.03.375-.76 1.1l2.31 5.98c-.76.19-1.58.28-2.43.28 -5.625 0-9.64-4.427-9.64-10.21 0-5.79 4-10.21 9.63-10.21 5.625 0 9.631 4.423 9.631 10.2 0 3.38-1.36 6.27-3.59 8.119Z"/></svg>