<svg viewBox="0 0 32 32" xmlns="http://www.w3.org/2000/svg"><path d="M6.427 23.03c-.92 0-1.74-.75-1.74-1.66 0-.907.74-1.66 1.73-1.66 1 0 1.75.74 1.75 1.65 0 .907-.84 1.65-1.745 1.65Zm21.34-9.015c-.19-1.33-1-2.401-2.08-3.224l-.43-.34 -.34.41c-.66.74-.93 2.06-.84 3.05 .07.75.31 1.49.74 2.07 -.35.17-.76.33-1.09.5 -.76.24-1.5.33-2.24.33H.09l-.09.48c-.16 1.57.084 3.22.751 4.724l.32.57v.07c2 3.31 5.557 4.8 9.437 4.8 7.459 0 13.57-3.224 16.47-10.177 1.9.08 3.81-.42 4.71-2.24l.24-.42 -.4-.26c-1.09-.67-2.57-.75-3.81-.42l-.03 0Zm-10.677-1.33h-3.24v3.22h3.23Zm0-4.06h-3.24v3.22h3.23Zm0-4.15h-3.24v3.229h3.23Zm3.95 8.198h-3.22v3.22h3.22v-3.23Zm-12 0H5.82v3.22h3.22v-3.23Zm4.036 0h-3.2v3.22h3.21v-3.23Zm-8.04 0h-3.2v3.22h3.24v-3.23Zm8.03-4.06h-3.2v3.22h3.21V8.609Zm-4.06 0H5.814v3.22h3.21V8.609l-.03-.01Z"/></svg>