<svg viewBox="0 0 32 32" xmlns="http://www.w3.org/2000/svg"><path d="M10.96 18.494c-.22 1.2-1.09 6.79-1.35 8.375 -.02.11-.07.15-.19.15H4.75c-.48 0-.819-.42-.76-.87L7.65 2.9c.09-.6.63-1.06 1.25-1.06 9.51 0 10.31-.24 12.75.71C25.4 4 25.75 7.52 24.4 11.31c-1.35 3.91-4.54 5.59-8.76 5.64 -2.72.04-4.35-.44-4.71 1.51ZM26.317 9.5c-.12-.09-.16-.12-.19.08 -.125.71-.32 1.4-.55 2.1 -2.5 7.11-9.41 6.49-12.79 6.49 -.39 0-.64.2-.69.58 -1.42 8.77-1.7 10.6-1.7 10.6 -.07.44.21.8.66.8h3.96c.53 0 .98-.4 1.08-.94 .04-.34-.07.38.9-5.71 .28-1.375.89-1.24 1.83-1.24 4.43 0 7.9-1.8 8.93-7.019 .4-2.18.28-4.47-1.49-5.79Z"/></svg>