<svg viewBox="0 0 32 32" xmlns="http://www.w3.org/2000/svg"><path d="M14.813.03c-.37 0-.81.016-.984.031 -4.859.41-9.203 3.29-11.73 7.75 -1.21 2.15-1.92 4.54-2.08 7 -.06.68-.03 2.32.04 2.94 .406 3.57 1.8 6.74 4.094 9.28 2.61 2.89 6.11 4.625 9.91 4.88 .55.04 1.391.05 1.359.01 -.15-.05-.3-.08-.46-.1 -2.23-.45-4.516-1.51-6.365-2.98 -1.26-1.01-2.36-2.19-3.28-3.51 -1.75-2.58-2.74-5.59-2.85-8.7 -.09-1.93.16-3.86.74-5.7 1.04-3.37 3.16-6.31 5.96-8.31 1.68-1.22 3.609-2.08 5.651-2.5l.58-.13Zm1.96.68c-2.59.15-5.04 1.021-7.05 2.484 -2.5 1.82-4.411 4.32-5.443 7.13 -.2.53-.38 1.09-.38 1.17 0 .01 5.1.03 13.74.03 11.28 0 13.75-.01 13.75-.05 0-.07-.21-.7-.375-1.18 -.21-.56-.78-1.75-1.1-2.3 -.54-.92-1.22-1.83-1.97-2.66 -2.21-2.427-4.8-3.92-7.76-4.45 -1.05-.19-2.41-.27-3.45-.21Zm14.99 12.57c-.03 0-6.39 0-14.15 0l-14.099.01 -.02.07c-.05.21-.18 1.44-.18 1.66 0 .03 2.375.04 14.32.04h14.33v-.1c0-.14-.1-1.06-.15-1.41 -.03-.22-.06-.3-.09-.3Zm-14.1 3.51c-12.5-.01-14.31 0-14.33.04 -.04.05.03.74.09 1.29 .02.2.04.39.04.42 0 .03 2.849.04 14.16.04h14.16l.03-.26c.05-.44.13-1.3.125-1.43l-.01-.125Zm0 3.625c-11.85 0-13.77 0-13.77.04 0 .02.07.27.16.55 .58 1.82 1.52 3.52 2.76 4.99 .375.45 1.26 1.38 1.64 1.71 2.08 1.86 4.32 2.95 6.9 3.37 .8.125 1.18.15 2.333.14 1.21 0 1.72-.05 2.69-.24 2.81-.56 5.21-1.94 7.375-4.23 1.68-1.8 2.8-3.69 3.5-5.89l.15-.49Z"/></svg>