<svg viewBox="0 0 32 32" xmlns="http://www.w3.org/2000/svg"><path d="M20.34 29.19l-3.11-4.34c-.84-1.17-1.51-2.07-1.55-2.07 -.04 0-1.34 1.75-3.09 4.15 -1.67 2.28-3.04 4.15-3.06 4.15 -.05 0-6-4.2-6.02-4.24 -.01-.03 1.33-2 2.99-4.4 1.65-2.4 3-4.4 3-4.44 0-.08-.55-.26-4.74-1.67l-4.792-1.6c-.05-.03.2-.85 1.05-3.54 .615-1.93 1.12-3.521 1.14-3.542 .01-.03 2.281.7 5.03 1.609 2.75.9 5.01 1.64 5.04 1.64 .03 0 .06-.05.07-.1 .01-.05.03-2.38.05-5.203 .02-2.797.05-5.12.06-5.156 .02-.05.79-.05 3.641-.05 1.97 0 3.61.02 3.64.04 .03.02.08 1.578.18 5.03 .14 5.703.14 5.781.24 5.781 .03 0 2.21-.72 4.84-1.625 2.63-.88 4.78-1.6 4.802-1.59 .04.06 2.2 7.083 2.18 7.099 -.03.02-2.23.78-4.88 1.68 -3.69 1.24-4.87 1.66-4.87 1.71 -.02.04 1.24 1.94 2.86 4.28 1.57 2.31 2.85 4.21 2.85 4.24 -.02.06-5.92 4.4-5.98 4.4 -.03 0-.79-1.03-1.67-2.26l0-.09Z"/></svg>