<svg viewBox="0 0 32 32" xmlns="http://www.w3.org/2000/svg"><path d="M16 0C7.177 0 0 7.177 0 16c0 8.823 7.177 16 16 16s16-7.177 16-16 -7.177-16-16-16Zm0 1.527c7.99 0 14.47 6.479 14.47 14.473 0 7.994-6.48 14.47-14.473 14.47 -8 0-14.473-6.48-14.473-14.473 0-8 6.47-14.473 14.473-14.473Zm-4.839 6.29c-.19-.01-.375 0-.57 0 -1.31.07-2.093.69-2.32 1.96 -.16.891-.125 1.79-.19 2.692 -.02.46-.07.92-.16 1.38 -.18.81-.53 1.06-1.36 1.109 -.12.01-.22.03-.33.05v1.94c1.5.07 1.7.6 1.82 2.17 .04.57-.02 1.14.02 1.71 .02.54.09 1.07.2 1.6 .34 1.43 1.74 1.91 3.433 1.62v-1.72c-.28 0-.52 0-.74 0 -.58-.02-.8-.17-.85-.72 -.08-.72-.06-1.44-.1-2.16 -.09-1.34-.24-2.651-1.55-3.5 .67-.5 1.16-1.09 1.31-1.87 .1-.55.17-1.1.21-1.66 .04-.56-.03-1.12.02-1.67 .07-.89.13-1.25 1.19-1.22 .16 0 .31-.03.49-.04V7.74c-.22 0-.42-.01-.61-.02Zm10.126.01c-.37-.02-.73.01-1.09.07V9.59c.32 0 .58 0 .83 0 .43 0 .77.17.81.66 .04.44.04.891.08 1.33 .08.89.13 1.79.29 2.67 .13.72.63 1.26 1.25 1.71 -1.09.72-1.42 1.77-1.47 2.95 -.04.8-.06 1.61-.1 2.42 -.04.74-.3.97-1.05.99 -.21.01-.42.02-.64.04v1.74c.43 0 .83.02 1.23 0 1.23-.08 1.99-.68 2.23-1.89 .1-.67.16-1.34.18-2.01 .04-.62.03-1.24.09-1.85 .09-.96.532-1.35 1.48-1.42 .08-.02.17-.04.26-.06v-1.96c-.17-.03-.28-.04-.4-.05 -.72-.04-1.07-.28-1.26-.95 -.11-.44-.18-.88-.2-1.33 -.06-.83-.05-1.66-.1-2.48 -.11-1.59-1.07-2.34-2.52-2.38Zm-9.19 7.03c-1.44 0-1.54 2.109-.12 2.24h.07c.609.03 1.13-.43 1.16-1.04v-.07c.01-.62-.484-1.14-1.11-1.15Zm3.88 0c-.593-.02-1.093.44-1.12 1.04 0 .03 0 .06 0 .1 0 .67.45 1.09 1.14 1.09 .67 0 1.1-.45 1.1-1.14 -.01-.68-.46-1.12-1.141-1.109Zm3.94 0c-.63-.02-1.15.48-1.17 1.11 0 .625.5 1.13 1.13 1.13h.01c.56.09 1.13-.45 1.17-1.11 .03-.609-.53-1.141-1.16-1.141Z"/></svg>