<svg viewBox="0 0 32 32" xmlns="http://www.w3.org/2000/svg"><path d="M31.771 26.3H24.3c-.125 0-.23.07-.23.22v2.02c0 .125.07.22.22.22h7.45c.13 0 .22-.06.22-.22v-2.03c0-.14-.08-.22-.23-.22v-.03Zm-9.82-23.021c.02.04.03.08.06.16v25.052c0 .08-.04.13-.06.15 -.05.05-.11.08-.18.08H.18c-.06 0-.1 0-.13-.04 -.047-.05-.08-.11-.08-.18V3.39c0-.11.05-.18.13-.21H21.76c.05 0 .125.02.15.04v.02ZM2.42 26.092c0 .09.05.18.13.2H19.4c.07-.03.125-.1.125-.21V5.85c0-.1-.06-.18-.13-.2H2.55c-.08.02-.13.09-.13.19Zm6.9-11.167c.86 0 1.35.24 1.859.82 .07.09.2.125.3.04l1.38-1.23c.09-.06.07-.22.02-.3 -.85-1.03-2.08-1.66-3.651-1.66 -2.12 0-3.73 1.05-4.35 2.93 -.22.66-.32 1.5-.32 2.64 0 1.14.09 1.97.33 2.64 .62 1.9 2.21 2.93 4.33 2.93 1.6 0 2.82-.65 3.66-1.62 .06-.1.08-.22-.03-.31l-1.38-1.22c-.1-.07-.22-.07-.31.03 -.516.59-1.06.91-1.94.91 -.94 0-1.66-.46-1.96-1.38 -.19-.52-.23-1.16-.23-1.98 0-.83.06-1.43.24-1.97 .31-.875 1.02-1.35 1.97-1.35Z"/></svg>