<svg viewBox="0 0 32 32" xmlns="http://www.w3.org/2000/svg"><path d="M0 0h32v32H0Zm2.803 28h12v-2h-12Zm1.59-18.803h.4c.93-.13 1.59-.94 1.59-2V4h-1.47v3.33c0 .53-.13.66-.54.66 -.41 0-.67-.14-.81-.41l-.94.8c.4.66 1.068.93 1.73.79Zm6.66 0V8h-2.81v-.81h2.401V5.99H8.243v-.81h2.8V3.98H6.778v5.33h4.265Zm1.73 0h1.46v-4h1.59V4h-4.54V5.19h1.59v4Zm-5.34 5.06c0-.67-.41-1.2-1.07-1.2 .53-.14.79-.67.79-1.21 0-.27-.13-.67-.27-.94 -.41-.41-.94-.54-1.463-.54H2.76v5.19h2.66c1.197 0 2-.54 2-1.34ZM4.11 11.58h.93c.4 0 .66.13.66.4 0 .4-.27.53-.67.53h-.94Zm0 2.8v-.94H5.17c.53 0 .8.12.66.39 0 .27-.27.53-.67.53Zm9.864-4l-2 4.66 -.81-1.21c.66-.27 1.06-.94 1.06-1.6 0-.41-.13-.94-.41-1.2 -.54-.54-1.2-.67-1.73-.67H7.54v5.19H9v-1.6h.66l1.06 1.59h2.39l.4-.94h2l.4.93h1.59L15.37 10.2H13.9Zm-4 2.53h-.94v-1.2h.93c.4 0 .8.12.8.66 0 .26-.28.53-.81.53Zm5.19.66H14.1l.53-1.47Zm2.53 2h1.46v-5.2h-1.47Zm5.33-2.41l-2.14-2.8h-1.34v5.19h1.46v-2.8l2.26 2.93h1.19V10.35h-1.47Zm4.12-.8c-.67-.14-.94-.27-.94-.54 0-.13.13-.27.53-.27 .53 0 1.061.26 1.46.53l.8-1.07c-.67-.54-1.34-.67-2.14-.67 -1.2 0-2 .79-2 1.73 0 1.061.8 1.33 2 1.59 .66.12.93.26.93.53 0 .266-.27.4-.67.4 -.67 0-1.2-.27-1.73-.67l-.81.93c.66.53 1.59.8 2.401.8 1.33 0 2.12-.67 2.12-1.74 0-.94-.8-1.34-2-1.6Z"/></svg>