<svg viewBox="0 0 32 32" xmlns="http://www.w3.org/2000/svg"><path d="M.84.73v30.53h2.197v.73H-.02v-32h3.041v.73Zm9.391 9.677v1.54h.04c.41-.6.91-1.05 1.48-1.38 .57-.33 1.25-.484 2-.484 .71 0 1.38.14 1.97.41 .59.28 1.04.77 1.359 1.47 .33-.5.8-.95 1.38-1.33 .57-.38 1.26-.58 2.06-.58 .6 0 1.16.07 1.67.22 .52.14.95.38 1.32.7 .36.32.65.75.86 1.27 .2.52.3 1.15.3 1.891v7.63h-3.13v-6.468c0-.39-.02-.75-.05-1.09 -.02-.31-.1-.61-.24-.88 -.14-.26-.34-.46-.59-.593 -.26-.16-.61-.23-1.05-.23 -.45 0-.8.08-1.07.24 -.27.16-.49.39-.64.66 -.17.28-.27.6-.31.92 -.06.34-.08.69-.09 1.048v6.35h-3.14V15.32c0-.34-.01-.68-.03-1 -.02-.32-.08-.63-.2-.92 -.11-.29-.31-.516-.56-.68 -.26-.17-.64-.26-1.14-.26 -.16 0-.35.03-.59.09s-.48.19-.71.375c-.23.18-.43.45-.59.79 -.17.34-.24.79-.24 1.359v6.62H7.16V10.27Zm20.92 20.85V.72h-2.2v-.74h3.04v32h-3.05v-.74Z"/></svg>