<svg viewBox="0 0 32 32" xmlns="http://www.w3.org/2000/svg"><path d="M16 .5C7.43.5.5 7.444.5 16c0 8.56 6.93 15.5 15.5 15.5 8.56 0 15.5-6.94 15.5-15.5C31.5 7.44 24.56.5 16 .5Zm0 28.094c-8.7 0-14.74-8.625-11.887-16.744l4.92 2.19c-.14.65-.21 1.34-.21 2.05 0 6.18 4.619 7.93 7.52 7.93 1.43 0 3.34-.42 4.96-1.85l-2.26-2.75c-.35.39-1.1 1.04-2.27 1.04 -2.37 0-3.356-2.5-3.37-4.494 14.4 6.413 13.53 6.03 13.619 6.05 -2.15 3.9-6.29 6.55-11.05 6.55Zm12.13-9.375l-14-6.25c1.17-2.125 3.43-1.92 4.66-.69l2.52-2.6c-1.7-1.46-3.625-1.72-4.881-1.72 -2.97 0-5.06 1.28-6.3 3.22L5.44 9.08c2.25-3.44 6.13-5.7 10.53-5.7 6.94 0 12.59 5.65 12.59 12.59 0 1.125-.15 2.21-.43 3.25 -.02-.01-.03-.02-.04-.03Z"/></svg>