<svg viewBox="0 0 32 32" xmlns="http://www.w3.org/2000/svg"><path d="M10.37 7.306c0 1.463-1.03 3.069-4.54 3.069H1.44l1.31-5.55h4.238c2.63 0 3.36 1.45 3.36 2.481Zm7.88-2.49h-4.24l-1.17 5.55h4.381c3.36 0 4.381-1.61 4.381-3.069 0-1.03-.73-2.481-3.36-2.481ZM5.53 12.99H1.29l-1.32 5.55H4.35c3.5 0 4.53-1.47 4.53-3.07 0-1.02-.74-2.481-3.37-2.481Zm11.25 0H12.54l-1.17 5.55h4.381c3.36 0 4.38-1.47 4.38-3.07 0-1.02-.74-2.481-3.36-2.481Zm11.83-3.37h-4.24l-1.17 5.55h4.381c3.36 0 4.381-1.47 4.381-3.07 0-1.02-.73-2.481-3.36-2.481Zm-1.75 8.61h-4.24l-1.17 5.55h4.381c3.5 0 4.381-1.47 4.381-3.07 0-1.02-.73-2.49-3.36-2.49Zm-11.837 3.36h-4.24l-1.17 5.55h4.381c3.5 0 4.381-1.61 4.381-3.07 0-1.02-.73-2.49-3.356-2.49Z"/></svg>