<svg viewBox="0 0 32 32" xmlns="http://www.w3.org/2000/svg"><path d="M4.89 8.18s-2.47 2.359-2.61 4.85v.46c.1 2.016 1.63 3.2 1.63 3.2 2.43 2.38 8.344 5.38 9.72 6.06 0 0 .08.04.13-.01l.02-.06v-.06C9.99 14.37 4.86 8.156 4.86 8.156Zm7.96 16.614c-.03-.11-.13-.11-.13-.11l-9.839.34c1.06 1.9 2.86 3.37 4.74 2.93 1.28-.34 4.214-2.375 5.17-3.07 .08-.07.05-.12.05-.12Zm.1-1.05C8.62 20.814.25 16.354.25 16.354c-.21.6-.27 1.19-.29 1.72v.09c0 1.42.531 2.42.531 2.42 1.068 2.25 3.12 2.93 3.12 2.93 .93.39 1.87.41 1.87.41 .16.02 5.86 0 7.38 0 .06 0 .1-.07.1-.07v-.08c0-.05-.05-.07-.05-.07Zm-.9-19.505c-1.94.49-3.33 2.19-3.43 4.198v.54c.04.8.21 1.4.21 1.4 .88 3.865 5.151 10.19 6.068 11.53 .06.06.13.04.13.04 .05-.03.08-.08.07-.14 1.41-14.13-1.48-17.9-1.48-17.9 -.43.02-1.59.3-1.59.3Zm11.06 3.02s-.66-2.401-3.25-3.042c0 0-.76-.19-1.57-.3 0 0-2.91 3.745-1.5 17.906 .01.09.08.1.08.1 .09.04.13-.04.13-.04 .96-1.375 5.2-7.69 6.06-11.53 0 0 .47-1.87.02-3.12Zm-3.9 17.427s-.1 0-.12.06c0 0-.02.09.03.13 .93.68 3.8 2.66 5.177 3.06 0 0 .21.06.57.07h.18c.92-.03 2.53-.49 4-3.01l-9.87-.34Zm10.43-11.22c.18-2.75-2.59-5.3-2.59-5.31 0 0-5.13 6.21-8.9 14.4 0 0-.05.1.02.17l.05.01h.08c1.41-.71 7.276-3.7 9.703-6.06 0 0 1.53-1.24 1.61-3.224Zm2.026 2.85s-8.37 4.49-12.7 7.39c0 0-.07.05-.05.15 0 0 .04.07.09.07 1.54 0 7.41 0 7.56-.03 0 0 .76-.03 1.69-.39 0 0 2.07-.67 3.16-3.04 0 0 .97-1.94.22-4.19Z"/></svg>