<svg viewBox="0 0 32 32" xmlns="http://www.w3.org/2000/svg"><path d="M10.229 2.07c.375-.18.71-.45 1.077-.69 .33-.22.72-.584 1.19-.44 .13.391-.22.667-.45.88 -.72.68-1.54 1.3-2.292 1.94 -2.56 2.156-5.145 4.27-7.77 6.349 -.26.21-.54.41-.82.593 -.245.15-.604.47-.95.21 .09-.45.405-.76.68-1.04 .281-.29.55-.6.83-.88 -.34-.57-.629-1.1-.885-1.7C.59 6.69.33 5.99.33 5.21c-.01-1.48.84-2.73 1.787-3.572C3.085.76 4.371.04 5.871-.04 7.98-.15 9.201.9 10.194 2.02Zm6.683 24.104v.26c-.38.01-.72-.02-1.07-.03v-.27c.36-.02.71.01 1.06.02Zm-2.12 0v.26c-.38-.02-.7.03-1.06.02v-.27c.34-.02.7-.04 1.05-.02Zm4.23.06c-.02.09.01.21-.03.26 -.34-.03-.7-.04-1.05-.05v-.27c.36 0 .72.01 1.06.04Zm-6.35 0v.26c-.38 0-.69.05-1.07.04v-.26c.375 0 .68-.05 1.06-.05Zm7.4.04c.33.04.72.03 1.05.08 .01.11-.02.17-.02.27 -.34-.05-.73-.05-1.06-.1 .01-.09.02-.18.02-.26Zm-9.53.08v.26c-.35.02-.69.06-1.04.08 -.04-.07-.03-.18-.03-.27 .35-.04.69-.08 1.05-.09Zm11.64.08c.36.03.72.06 1.05.1 -.03.07-.01.19-.05.26 -.34-.05-.7-.08-1.04-.11 -.02-.12.02-.18.02-.27Zm-13.76.11c-.01.1.04.15.02.26 -.35.02-.77.1-1.06.1 .01-.11-.03-.16-.03-.25 .33-.06.7-.09 1.05-.13Zm16.918.26c.01.1-.04.15-.03.26 -.34-.06-.72-.09-1.06-.16 .01-.08.03-.15.02-.25 .3.01.72.08 1.06.13Zm-19.052 0c.07.02.04.17.06.26 -.35.05-.7.1-1.04.15 -.04-.09-.05-.18-.05-.27 .33-.05.68-.1 1.016-.16Zm21.14.3c0 .1-.02.19-.05.28 -.33-.08-.7-.11-1.04-.18 0-.09.02-.18.04-.26 .34.04.67.12 1.03.15Zm-23.22.02c.02.07.04.15.04.26 -.36.05-.68.14-1.04.17 -.01-.1-.05-.17-.05-.27 .36-.04.68-.12 1.036-.18Zm24.27.17c.34.07.67.14 1.03.19 -.01.09-.05.16-.05.26 -.375-.04-.67-.16-1.04-.18 -.03-.06.02-.21.04-.29Zm1.71-5.05c.2.11.63.12.79.32 .12.15.18.64.23.98 .27 1.72.38 3.74.44 5.625 .01.35.02.78.02 1.18 0 .4.08.94 0 1.21 -.06.19-.32.26-.49.35 0-1.27-.03-2.53-.09-3.8 -.17-.14-.6-.07-.62-.22 -.06-.34.35-.12.59-.09 -.06-1.7-.24-3.29-.44-4.83 -.2-.1-.45-.15-.67-.22 -.34.34-.85 1.24-1.64 1.07 -.3-.07-.49-.46-.62-.73 -.17-.32-.29-.65-.36-.99 -6.509-1.25-15.46-1.36-22.01-.07 -.21.87-.58 2.74-1.79 2.02 -.496-.31-.88-.78-1.08-1.32 -.25.06-.484.12-.73.17 -.26 1.44-.385 3.02-.47 4.65 .22.01.55-.17.79-.14 0 .08.04.15.04.24 -.23.14-.583.14-.859.22 -.08 1.31-.11 2.64-.09 3.96 -.11.02-.364-.17-.47-.29 .08-3.07.23-6.07.484-8.98 .375-.12.75-.23 1.125-.36 -.06-.51-.16-1.11.06-1.46 .18-.3.7-.47 1.077-.58 1.32-.375 2.64-.07 3.5.54 .18.13.33.31.532.4 .03-.12-.125-.21-.2-.27 -.76-.69-2-1.28-3.49-1.02 -.47-1.46-1.052-2.86-1.057-4.72 -.01-2.07.74-3.865 1.604-5.28C5.174 8.36 6.344 7.2 7.62 6.28c3.125-2.229 6.97-3.21 10.781-2.74 4.01.49 6.677 2.385 8.59 5.141 .92 1.31 1.66 2.89 2.16 4.69 .5 1.8.5 4.131-.07 6.03 -1.85-.38-3.52.2-4.17 1.36 -.01.02-.02.02-.02.04 .66-.91 2.31-1.56 3.96-1.15 .43.1.99.26 1.2.57 .3.42.16 1.32-.03 1.83Zm-8.6-9.8c.07.51.3 1.04.59 1.25 .5.36.8 0 .84-.51 .04-.68-.24-1.47-.58-1.77 -.14-.12-.4-.2-.55-.16 -.35.08-.38.7-.32 1.16ZM10.05 13.89c-.05.74.21 1.7.7 1.96 .57.3.843-.13.88-.67 .05-.84-.37-2.29-1.15-2.135 -.34.06-.42.44-.45.83Zm9.11 3.44c-.36.07-.85-.08-1.24-.16 -.41-.09-.81-.16-1.22-.22 -.76-.12-1.8-.29-2.54.13 -.26.14-.59.46-.62.88 -.04.6.45 1.05.81 1.32 .43.31.88.53 1.45.7 1.22.36 3.05.46 4.1.02 .98-.43 2.27-1.42 2.29-2.74 .01-.79-.37-1.5-1.15-1.39 -.87.1-1.18 1.26-1.93 1.43Z"/></svg>