<svg viewBox="0 0 32 32" xmlns="http://www.w3.org/2000/svg"><path d="M27.005 15.22c-.63-.01-1.13.52-1.09 1.15 -.03.63.47 1.15 1.1 1.15 .63 0 1.125-.53 1.08-1.16 .02-.63-.48-1.15-1.11-1.16Zm-8.69 0c-.625-.01-1.13.52-1.09 1.15 -.03.63.47 1.15 1.1 1.15 .625 0 1.125-.53 1.08-1.16 .02-.63-.48-1.15-1.11-1.16Zm-9.344-.08c-.34-.01-.67.14-.87.41 -.21.28-.29.63-.23.97l1.96-.82c-.15-.35-.49-.58-.87-.58Zm-8.98-4.49v10.66h32V10.64Zm6.677 7.77H2.96v-5.34H4.1v4.29h2.56Zm2.42-.83c.43 0 .85-.15 1.17-.44l.71.54c-.51.5-1.2.78-1.92.78 -1.23.12-2.3-.83-2.333-2.06 -.04-1.24.97-2.24 2.21-2.19 .609-.04 1.2.21 1.62.66 .27.32.44.72.49 1.14l-2.885 1.2c.24.22.57.34.91.32Zm6.51.82h-1.13v-2.34c-.02-.5-.45-.9-.95-.87 -.5-.04-.93.36-.94.86v2.33H11.45v-4.11h1.13v.58c.31-.42.81-.66 1.33-.66 .92-.06 1.69.7 1.66 1.63Zm2.64.06c-1.87-.08-2.734-2.36-1.38-3.66 1.34-1.3 3.59-.34 3.59 1.53 -.01 1.2-1.01 2.17-2.22 2.125Zm3.72-.08l-1.69-4.11h1.28l1.02 2.8 1.02-2.81h1.28l-1.7 4.1Zm4.948.07c-1.87-.08-2.73-2.36-1.38-3.66 1.35-1.3 3.59-.34 3.59 1.53 -.01 1.2-1.01 2.17-2.22 2.125Zm2.66-.56h-.19v.49h-.11v-.49h-.19v-.11h.47Zm.72.49h-.11v-.43l-.19.28h-.02l-.19-.29v.42h-.11v-.6h.12l.17.28 .17-.29h.12Z"/></svg>