<svg viewBox="0 0 32 32" xmlns="http://www.w3.org/2000/svg"><path d="M27.703 24.99c-1 .95-2.08 1.35-3.4 1.35 -1.76 0-4.427-.82-6.46-2.22 -2.18-1.5-5.03-2.98-7.42-3.03 1.76-2.4 4.52-4.84 7.093-7.73 .95-1.05 6.64-7.599 7.64-8.79 .72-.859 1.08-1.91 1.08-2.95 0-.41-.05-.79-.13-1.14 -2.72.54-4.76.8-8.01.8 -3.57.02-6.15-.42-7.65-1.317 -1.04 1.36-2.08 3.16-2.08 4.161 0 1.26 1.22 2.303 4.24 2.303 .99 0 2.62-.05 4.88-.23 -4.66 6-9.265 10.88-12.02 13.957 -.95 1.04-1.5 2.44-1.5 3.84 0 .53.1 1.07.23 1.57 .86-.15 1.72-.24 2.62-.24 1.86 0 3.72.4 5.443 1.12 3.42 1.52 6.62 5.5 10.24 5.5 2.93 0 5.416-2.33 5.416-5.38 0-.55-.08-1.1-.26-1.65Z"/></svg>