<svg viewBox="0 0 32 32" xmlns="http://www.w3.org/2000/svg"><path d="M31.438 17.839c-.11-.09-.24-.16-.37-.19 -.81.81-1.81 1.66-2.67 2.24 -.42.26-.94.39-1.27.39 -.79 0-1.12-.73-1.22-1.92 -.18-2.15-.25-4.3-.23-6.45 0-3.01-.7-5.068-2.51-5.23l-.24-.02c-1.11 0-1.66.57-2.36 2.02 -.62 1.25-1.57 3.06-3.31 6.53 -1.32 2.62-2.88 5.1-4.67 7.43 -.42.5-.734.85-1.05 1.06 -.18.12-.375.18-.59.18 -.58 0-1-.48-1.13-1.62 -.04-.31-.06-.62-.06-.93 0-2.34.88-6.13 2.39-11.71 1.109-4.068.641-6.85-1.79-6.85h-.04c-.55 0-1 .21-1.45.56 -.44.33-.87 1.07-1.29 2.078C7.11 6.52 4.35 12.11-.08 15c-.06 1.08.56 2.17 1.82 2.3 1.13.1 1.94-.37 2.98-1.08l-.22.97c-.28 1.14-.49 2.3-.67 3.46 -.62 5.6 1.96 8.36 4.99 8.36 .5 0 1.01-.07 1.5-.21 3.333-.84 6.53-4.677 10.33-13.51 -.06.89-.06 1.79-.02 2.69 .25 5.06 2.24 6.57 5.06 6.57 2.13 0 4.12-1.11 5.13-2.5 .65-.84 1.02-1.86 1.05-2.92 -.03-.66-.23-1.18-.57-1.45Z"/></svg>