<svg viewBox="0 0 32 32" xmlns="http://www.w3.org/2000/svg"><path d="M22.579 11.36c.15.07.29.18.4.3l3.13-1.4 -2.93-2.9 -.657 3.94Zm-6.5-2.64c.15.22.24.48.28.76l4.66 1.97c.14-.11.3-.19.47-.24l.76-4.74 -2.84-2.98L16.06 8.62Zm15.91 7.31l-5-5 -3.401 1.391 8.35 3.55s.07.05.04.05Zm-.84.81l-8.02-3.43c-.23.29-.57.49-.94.54l-.86 5.27c.25.26.4.6.4.97l4.843 1.01 4.44-4.42v-.09Zm-10.625-4.53l-4.36-1.86c-.31.46-.84.74-1.391.72h-.27l-3.609 5.56 9.63-4.18v.01c-.01-.08-.01-.15 0-.23 0-.02 0-.04-.02-.06Zm5.29 9.746l-4.26-.89c-.17.2-.37.36-.62.45l-1.02 6.29 5.91-5.87s-.02.03-.03.03Zm-5.959-.44c-.42-.17-.72-.52-.83-.95l-7.932-1.63 -.12.18 7.19 10.41 .43-.43 1.22-7.57s.04.03.01.01Zm-8.59-3.54l7.83 1.61c.22-.41.64-.67 1.09-.7l.84-5.19 -.19-.16 -9.75 4.17c.05.07.09.16.14.24Zm-3.29 1.3l-.17-.17 -3.38 1.38 1.64 1.63 1.86-2.9Zm2.23.53c-.24.1-.5.16-.75.16 -.21 0-.41-.04-.61-.1l-2.06 2.99 9.02 8.93 1.58-1.58Zm-1.27-3.53c.13-.02.27-.02.41 0 .15-.02.3-.02.45 0l3.64-5.67c-.29-.3-.45-.7-.45-1.1 -.02-.12-.02-.25 0-.37L8.55 7.18l-3.57 3.468Zm.4-9.87l4.31 1.83c.31-.26.7-.4 1.11-.38 .17 0 .35.03.52.08l3.37-5.26 -2.79-2.79L9.314 6.4s-.02.06 0 .08ZM7.71 17.39c.08-.17.19-.32.32-.45l-3.7-5.52 -4.369 4.24Zm-.35.93L.68 16.92 3.61 19.9l3.704-1.58Z"/></svg>