<svg viewBox="0 0 32 32" xmlns="http://www.w3.org/2000/svg"><path d="M9.917 12.01c-2.199 0-3.98 1.78-3.99 3.984 0 2.2 1.787 3.98 3.98 3.98 2.2 0 3.984-1.79 3.98-3.99 -.01-2.21-1.79-3.984-3.99-3.984Zm0 7.12c-1.73 0-3.14-1.41-3.14-3.14 0-1.73 1.407-3.14 3.13-3.14 1.72 0 3.14 1.407 3.14 3.13 0 1.72-1.42 3.13-3.14 3.13Zm8.63-7.12c-2.2 0-3.984 1.78-3.984 3.984 0 2.2 1.78 3.98 3.984 3.98 2.2 0 3.98-1.79 3.98-3.99 -.01-2.21-1.79-3.984-3.99-3.984Zm0 7.12c-1.73 0-3.135-1.41-3.135-3.14 0-1.73 1.4-3.14 3.135-3.14 1.72 0 3.14 1.407 3.14 3.13 0 1.72-1.42 3.13-3.15 3.13ZM3.067 14.4c-.77-.12-1.53.08-2.14.56V12.84h3.58c.12 0 .21-.03.21-.391 0-.36-.15-.38-.24-.38H.5c-.23 0-.35.18-.35.391v3.46c0 .18.11.24.32.28 .18.03.29.01.38-.08l0-.02c.38-.55 1.2-1.08 1.98-.98 .93.11 1.68.85 1.78 1.77 .13 1.19-.8 2.24-2.01 2.24 -.85 0-1.59-.55-1.9-1.34 -.05-.12-.125-.21-.46-.09 -.307.1-.323.24-.28.36 .4 1.1 1.452 1.84 2.629 1.84 3.45-.02 3.82-5.057.41-5.58Zm22.192-2.36c-1.08.08-1.92 1.02-1.92 2.14v3.54c0 .2.15.24.39.24 .23 0 .39-.05.39-.25v-3.56c0-.7.5-1.3 1.15-1.37 .36-.04.73.08 1.01.32 .27.25.43.6.43.97 0 .1-.06.45-.3.77 -.19.23-.52.53-1.125.53h-.01c-.16 0-.29 0-.32.375 -.02.24-.02.35.19.38 .38.05.76-.03 1.15-.23 .65-.34 1.093-.99 1.14-1.69 .04-.61-.18-1.2-.6-1.64 -.44-.43-1.03-.65-1.625-.6Zm5.224 2.07l1.44-1.45c.05-.06.17-.18-.08-.44 -.12-.12-.21-.17-.3-.17 -.07 0-.12.03-.17.07l-1.45 1.45 -1.45-1.46c-.12-.12-.26-.09-.44.08 -.18.17-.21.31-.1.43l1.44 1.45 -1.43 1.42c-.04.03-.09.08-.09.16 -.01.08.05.18.16.29 .09.09.18.14.26.14 .09 0 .15-.07.18-.1l1.42-1.43L31.32 16c.04.04.1.06.15.06 .09 0 .18-.06.29-.16 .16-.18.18-.32.07-.43Z"/></svg>