<svg viewBox="0 0 32 32" xmlns="http://www.w3.org/2000/svg"><path d="M6.76 18.578c-.3.01-.56.18-.69.44 -.16.28-.53.32-.7.27 -.29-.1-.641-.17-.99.08 -.36.25-.73.06-.67-.4 .06-.46.22-.86.66-1.11 .95-.55.28-.93.8-1.48 .52-.56.41-.72.391-1.47 -1.77-.27-2.78-.78-3.89-2.18C.55 11.328.11 10.178 0 8.426c-.12-1.76-.02-2.9.74-4.344 .76-1.46 1.557-2.151 2.93-2.88C5.054.472 6.4.3 7.65.32c1.25.02 2.08.1 2.79.516 .7.406 1.35.91 1.766.91 .32.02.63-.07.89-.26 .05 1.359-1.17 1.47-2.26 1.505 -1.1.03-1.766-.43-2.776-.26 -1.01.17-2.66.63-3.46 2.02 -.81 1.4-.84 1.896-.77 3.06 .06 1.17 1.07 2.04 1.64 2.05 .57.01.69-.16 1.19-.48 .5-.33 3.04-3.479 3.91-4.19 .87-.71 1.72-.93 2.65-.94 .92-.02 1.16.02 1.9.32 .75.3 1.2.87 1.81 1.21 .3-.19.5-.46.77-.67 1.01-.734 1.53-.94 2.74-.83 .68.07 1.55.46 2.07.91 .92.8 1.68 1.92 2.3 2.77 .48.66 1.04 1.45 1.85 1.7 .875.27 1.54-.87 1.64-1.51 .05-.36.125-.68.125-1.07 0-.4-.04-.875-.16-1.29 -.12-.41-.3-.8-.53-1.16 -.35-.56-.91-1.14-1.49-1.432 -.33-.17-1.1-.47-1.59-.48 -.6-.02-1.06.18-1.61.22 -.67.04-1.86.19-2.38-.32 -.34-.33-.375-.552-.44-.974 .14.12.35.19.53.21 .41.03.8-.31 1.14-.51 .28-.17.67-.46 1.03-.599C23.86.36 25.01.37 26 .48c.79.07 1.82.43 2.52.82 .7.39 1.375 1.06 1.87 1.693 .62.79.95 1.46 1.18 2.45 .28 1.26.37 3.15.02 4.39 -.28.97-1.19 2.48-1.96 3.21 -.76.72-1.65 1.08-2.65 1.27 .04.19.04.38.09.55 .07.24.21.5.5.41 .11-.04.18-.07.32.07 .15.13.07.64-.36.88 -.22.11-.45.14-.8.15 -.43.01-.86-.01-1.28-.07 -.375-.07-.6-.37-1.03-.42 -.65-.08-1.15-.55-1.67-.875 -.22-.14-.29-.14-.42-.21 .06.2.15.41.2.62 .04.19.02.38.04.53 .02.16.06.28.09.41 .1.09.13.23.31.27 .17.04.44-.03.62-.05 .18-.03.3-.12.43-.1 .14.02.27.13.39.21 .12.09.21.1.31.33 .09.24.18.71.19 1.03 .01.32-.03.6-.12.86 -.1.25-.19.36-.44.62 -.26.25-.68.62-1.1.88 .07.1.1.21.23.33 .12.125.36.26.47.39 .11.13.17.22.17.37 .01.17-.03.34-.125.5 -.3.39-.65.46-1.07.65 .07.44.13.76.02 1.2 -.05.18-.14.59-.36.69 -.23.1-.66.05-.94.09 -.28.04-.43.08-.65.125 -.13.18-.32.39-.39.56 -.07.17-.05.22.01.4 .05.17.24.41.29.625 .05.19.06.41.01.61 -.06.2-.16.38-.31.53 -.18.17-.51.31-.68.45 -.17.15-.34.16-.3.4 .06.32.54.85.89.99 .24.07.51.05.74-.06 -.02.27-.26.46-.42.65 .42-.125.84-.36 1.13-.68 -.09.27-.4.7-.86 1.08 -.46.38-.46.3-.69.45 .41.08.8.06 1.13 0 -.26.14-.56.24-.86.27 -.39.04-.62.01-.97-.08s-.67-.41-1.09-.62c.04.16.07.34.25.51 .18.15.44.24.72.375 -.36-.04-.75-.05-1.1-.125 -.27-.07-.45-.125-.64-.22 -.2-.1-.34-.24-.51-.36 .07.15.1.34.24.46 .13.13.36.18.54.26 -.19-.01-.375.04-.58-.01 -.22-.06-.42-.15-.59-.29 -.22-.16-.42-.34-.6-.53 -.18-.2-.4-.45-.47-.62 -.07-.18.04-.3.06-.45 -.12.07-.28.125-.37.24 -.1.11-.18.21-.14.42 .04.2.22.45.36.67 -.4-.33-.62-.45-.71-.84 -.09-.37.13-.7.3-.97 .08-.14.21-.27.29-.4 -.19-.18-.38-.33-.54-.53 -.16-.2-.22-.47-.37-.66 -.16-.19-.37-.31-.55-.47 .15.34.42.76.47 1.02 .05.26-.07.43-.17.57 -.1.14-.25.17-.391.26 -.15.08-.37.02-.46.15 -.09.13-.11.32-.04.45l.34.53c-.17-.1-.32-.23-.44-.375 -.1-.13-.25-.25-.266-.43 -.03-.18-.04-.33.08-.49 .11-.16.42-.21.56-.33 .14-.12.21-.2.2-.35 -.01-.16-.16-.27-.29-.37 -.41-.31-.91-.58-1.25-.94 -.15-.15-.26-.32-.32-.51 -.05-.15 0-.25.09-.43s.41-.41.45-.59c.04-.19-.125-.23-.28-.3 -.16-.07-.44.03-.57-.08 -.14-.12.04-.36-.12-.49s-.51-.06-.7-.2c-.17-.14-.28-.33-.32-.53 -.07-.19-.08-.4-.04-.59 .04-.16.17-.18.25-.26 .07-.08.14-.14.04-.26s-.45 0-.64-.15c-.2-.15-.08-.51-.22-.66 -.14-.15-.38-.09-.516-.15 -.125-.05-.18.12-.26-.15 -.09-.26-.09-1.07-.2-1.36 -.11-.3-.32-.03-.42-.32 -.11-.3-.01-.77-.06-1.22l-.2-1.21c-.7.46-1.16.61-1.91.74 -.07 1.83-.24 2.91.391 4.94 .62 2.026 1.875 3.224 3.57 4.94 -2.24-1.68-3.31-3.05-3.98-4.79 -.68-1.75-.55-3.21-.48-4.89Zm11.896-.74c.17.01.38.05.5.13s.25.14.35.25c.27.28.47.62.57 1 .05.25.06.56.08.85 -.09-.27-.14-.55-.26-.79 -.19-.38-.5-.75-.9-.92 -.09-.05-.19-.06-.29-.04 .03.05.08.09.08.17 0 .07-.02.23-.16.29 -.22.1-.46.03-.62-.12 -.17-.16-.22-.41-.14-.61 .1-.26.5-.26.74-.25Zm-2.17-.37c.02-.45.17-.82.57-1.03 .24-.15.52-.24.8-.29 .27-.04.95-.01 1.35.17 .3.13.52.35.79.52 .27.16.46.27.72.45 .4.28.63.58.91.76 .13.08.31.07.5.13 -.15.04-.32.08-.47.04 -.22-.09-.42-.21-.59-.36 -.21-.19-.43-.35-.67-.48 -.17-.1-.44-.21-.625-.33 -.18-.12-.49-.375-.67-.47 -.28-.12-.58-.18-.87-.17 -.35.01-.84.06-1.1.3 -.26.24-.36.44-.31.75 .09-.11.16-.26.26-.34 .2-.18.43-.19.69-.16 .28.03.43.2.52.47 -.07-.05-.19-.15-.28-.19 -.2-.08-.42-.06-.59.05 -.24.13-.18.32-.21.53 -.02.09-.06.17-.08.26 -.1-.03-.18-.07-.25-.13 0 .09-.01.18.01.29 .02.1.07.24.11.36 -.18-.17-.35-.33-.45-.54 -.12-.21-.18-.46-.18-.7Zm.29-3.2c.12-.19.15-.46.22-.69 -.03.28.03.6-.11.81 -.14.2-.4.17-.59.23 .15-.12.34-.18.46-.36Zm-2.95 4.27c.15-.13.58-.03.9-.01l-.69.17c-.03.08-.01.16-.07.23 -.06.06-.16.08-.23.14 .01-.21-.09-.42.07-.55Zm2.24-8.87c.18.09.42.24.59.24 .16 0 .2-.11.3-.18 .15.5.33 1.06.59 1.52 .1.19.17.1.26.29 .08.19.12.58.19.83 .07.24.18.42.27.64 -.23-.34-.54-.76-.67-1.04s-.05-.3-.16-.56c-.11-.27-.32-.68-.48-1.01 -.12.01-.25.03-.34.01 -.09-.04-.08-.125-.16-.19 -.08-.06-.21-.04-.32-.13 -.11-.1-.14-.3-.15-.47Zm-1.03 2.5c.18-.02.4.03.56.02 .16-.01.28-.06.43-.08 -.03-.25 0-.72-.24-.89 -.16-.11-.78-.03-.94.01 -.375.07-.81.3-1.17.43 .34-.24.641-.47 1.05-.59 .25-.08.82-.18 1.08-.11 .12.03.14.08.21.18 .24.33.24.63.3 1.03 .06.09.13.15.18.25 .05.125.08.25.08.38 -.07-.09-.03-.21-.2-.28 -.18-.08-.45-.01-.69.01 .17.13.26.25.26.51 .01.31-.26.53-.54.55 -.38.03-.58-.06-.73-.38 -.07-.15-.03-.32-.03-.46 -.46.03-.46.01-.79.29 .18.26.29.41.59.57 .16.08.359.17.56.21 .2.03.55.07.77.03 .19-.03.37-.11.5-.25 .16-.15.17-.37.24-.54 -.01.17-.04.33-.1.49 -.19.35-.51.46-.9.46 -.37 0-.82-.09-1.17-.23 -.28-.12-.73-.44-.84-.72 -.08-.19-.02-.43-.03-.64 .38-.25.47-.19.92-.26 .18-.04.31-.11.49-.12Zm-2.21-1.71c0-.16.02-.16.03-.23 -.35-.1-.48.13-.69.54 -.08.15 0 .25-.09.34 -.08.1-.22.08-.35.18 -.13.09-.26.28-.39.39 -.25.2-.6.33-.891.47 .2-.15.59-.37.71-.59 .06-.12.05-.33.16-.44 .1-.1.14-.18.27-.2 .13-.03.08-.19.125-.31 .04-.12.13-.21.21-.34 .09-.125.2-.31.391-.375 .17-.07.46 0 .59-.04 .13-.05.05-.15.15-.21 .09-.06.29-.04.42-.1 .23-.12.34-.31.49-.51 .02.43.01.75-.15 1.16 -.18.45-.36.73-.86 1.01 -.18.09-.35.13-.49.18 .08-.12.2-.17.25-.34 .04-.19.01-.54.02-.69Zm8.07 2.12c-.24.02-.3-.02-.49.12l.3.48c-.01-.32.02-.38.17-.61Zm-.62-.23c.32-.14.61-.25.97-.28 .14-.01.36.01.51.02 .125-.19.28-.33.33-.54 .03-.15.02-.79-.06-.95 -.2-.48-.39-.5-.66-.78 -.2-.21-.21-.51-.27-.86 -.03-.125-.09-.29-.11-.42 -.38-.07-.76-.09-1.15-.07 .19-.19.39-.36.44-.65 .05-.31 0-.62-.16-.891 -.17-.26-.43-.48-.67-.69 -.24-.21-.58-.38-.81-.56 .29-.1.59-.26.88-.32 .74-.15 1.39.07 2.1.516 .42.25.76.49 1.2.95 .43.45.97 1.29 1.4 1.79 .42.5.76.89 1.13 1.19 .37.29.7.38 1.05.57l.55.58 .44-.56 .71.08 .15-.81 .65-.19 -.11-1.09 .47-.34 -.36-.68 .35-.74 -.47-.84 .18-.81 -.55-.47 -.08-.859 -.76-.29 -.31-.75 -.86-.01 -.42-.56 -.58.04 -.64-.08 -.36-.26 -.54.34 -.64-.33 -1.26.47 .82-.72 .85-.135 .65-.17 .88.28 .77-.2 .75.44 .79-.05 .39.69 .78.08 .42.77 .49.27 .13.99 .44.42 -.2.87 .52.66 -.49.7 .52.44 -.67.58 .67.7 -.82.26 .53.75 -.68.12 .43.82 -.75-.01 .38.62 -.83-.1 .19.89 -.625-.55 -.21 1.08 -.44-.78 -.24.96 -.53-.72 .01 1.02 -.59-.92c.12.52.09 1.08.43 1.57 1.06-.15 1.75-.42 2.56-1.19 .73-.72 1.62-2.2 1.85-3.14 .27-1.07.28-3.05.01-4.14 -.26-1.05-.6-1.56-1.2-2.41 -.58-.609-1.14-1.255-1.87-1.69 -1.08-.641-2.44-.82-3.66-.8 -.53 0-1.05.09-1.54.28 -.71.25-1.27.81-1.99 1.094 -.24.08-.42.08-.61-.01 .18.359.375.52.82.65 .32.09 1.09.03 1.63-.02 .57-.06.87-.23 1.65-.22 .76.01 1.36.3 1.69.49 .68.391 1.17.823 1.59 1.51 .22.375.39.79.51 1.229 .11.43.16.91.17 1.34 .01.42-.03.8-.13 1.18 -.24.89-.78 1.8-1.875 1.66 -.68-.09-1.69-1.35-2.03-1.82 -.69-.94-1.4-1.97-2.25-2.75 -.55-.484-1.23-.8-1.95-.87 -1.33-.12-1.72.13-2.72.95 .2.06.4.09.6.19 .45.2.88.47 1.25.82 .38.359.55.58.57 1.104 .01.34-.28.62-.54.86 -.16.15-.37.29-.5.41 -.18.15-.38.32-.17.57 .07.09.21.16.33.25 .18.13.1.64-.15.78 -.31.18-.69.14-.96-.09 .32-.05.53-.09.52-.36 0-.16-.2-.29-.4-.37 -.47-.22-.82-.19-1.29-.52 -.48-.34-.48-.53-.61-1.06 -.23.02-.44.02-.74.125 -.31.09-.64.33-.92.4 -.7.14-.83.1-1.21.01 -.67-.18-1.54.12-2.401.39 -.15.04-.73 0-1.12.13 -.71.28-1.359.66-1.95 1.14 -.74.625-1.72 2.49-2.27 4.63 -.06.65.13 1.08-.29 1.4 -.42.32-.41 1.13-.55 1.36 -.14.22-.3.125-.6.44 -.3.32-.45.27-.45.875 .26-.17.63-.37.96-.38 .29-.01.29.375 1.04-.37 .4-.41 1.17-.42 1.7-.59 .53-.18 1.5-.54 2.46-1.62s1.42-2.22 1.61-3.86c.02.28.07.61-.05 1.41 -.13.8-.4 1.7.17 2.79l.34.67c-.21-.29-.62-.75-.75-1.09l-.29-.78c-.641 1-.79 1.18-1.68 1.89 -.04.44-.05.91.09 1.33 .14.42-.09.91.02 1.19 .1.28.36.12.44.4 .08.28-.05.84.08 1.12 .13.27.44.1.6.2 .15.08.2.2.28.32 .08.11-.04.39.13.48 .16.08.42.01.6.09 .17.08.19.29.16.48 -.05.18-.23.27-.32.46 -.09.15-.08.34.02.49 .09.17.31.27.53.35 .21.08.52.03.75.16 .22.12.42.36.54.54 .12.17.15.29.14.48 -.03.2-.08.4-.19.57 -.1.17-.32.39.02.74 .33.33.32.19.52.41 -.03-.39-.19-.7-.07-.99 .12-.3.46-.35.64-.47 .18-.14.29-.32.43-.47 0 .19.02.41 0 .55 -.05.3-.14.57.31.625 .2.02.39-.11.6-.19 -.11.19-.31.35-.34.59 -.04.26.02.52.17.74 .16.24.45.41.66.55 .21.14.32.15.49.22 0 .23-.05.48-.02.7 .02.22.09.42.22.6s.33.29.53.42c-.11-.25-.33-.49-.33-.75 0-.27.08-.45.33-.69 .25-.24.84-.44 1.13-.66 .2-.15.375-.35.47-.59 .09-.22.07-.58.09-.78 .09.27.1.36.13.65 .03.28-.17.69-.25.9 .3-.15.54-.4.67-.7 .07.04.04.16.06.4 .125-.125.26-.22.39-.34 .125-.12.26-.22.32-.39s.03-.34-.01-.53c-.05-.2-.26-.42-.37-.62 -.12-.21.02-.41.01-.66 -.23-.04-.42-.16-.69-.12 -.26.03-.56.32-.83.33 -.26 0-.42-.25-.64-.32 -.22-.07-.44-.06-.67-.1 .28-.27 1.36-.4 2.1-.51 .64-.11 1.3-.17 1.95-.18 .29-.01.67.08.88.03 .2-.07.16-.2.21-.36 .17-.43.08-.81-.01-1.23 -.59-.08-1.21-.16-1.81-.11 -.59.04-1.28.32-1.88.33 -.53.02-1.3-.1-1.75-.375 -.56-.34-.98-1.06-1.13-1.29 -.25-.375-.56-1.12-.75-1.45 -.19-.34-.23-.44-.39-.58 -.16-.15-.37-.16-.56-.23 .21.02.44-.05.641.06 .29.17.62.86.8 1.17 .19-.66.15-.91.7-1.28 -.45.5-.47.89-.58 1.48 .375.6.89 1.58 1.57 1.85 .25.09.67.16.93.19 .82.1 1.625-.16 2.43-.36 .58-.15 1.19-.09 1.91-.05 .24.01.81-.13.94-.375 .06-.15.05-.32-.04-.45 -.1-.15-.35-.21-.48-.34 -.14-.13-.21-.29-.32-.42 -.47.08-.94.14-1.42.15 .29-.12.57-.19.88-.31 .31-.13.61-.3.9-.48 .24-.17.4-.26.58-.45 .17-.2.4-.39.53-.62 .13-.24.15-.5.16-.79 0-.29-.01-.69-.12-.93 -.11-.23-.33-.3-.5-.35 -.17-.06-.29.08-.47.09 -.19.02-.35.13-.61.01 -.33-.18-.62-.43-.83-.74 -.26-.37-.45-.97-.72-1.43 -.46-.8-1.03-1.54-1.57-2.28 -.05-.19-.12-.44-.15-.68 -.04-.44-.05-.875.08-1.3 .09-.33.25-.67.58-.8 .13-.06.28-.07.42-.03 .12.04.24.17.19.33 -.06.17-.18.17-.25.26 -.125.12-.21.27-.25.43 .14-.01.34-.02.46.02 .16.03.3.14.39.37 -.2-.17-.29-.25-.53-.25 -.11-.01-.25.03-.36.05 -.05.14-.08.32-.14.44 -.07.1-.19.08-.24.21 -.05.17-.06.34-.03.52Zm1.65-.2c.07.02.09.03.19.1 .09.07.21.14.29.3 .06.17.07.35.05.53 -.07-.03-.16-.01-.22-.07 -.07-.06-.11-.19-.2-.24 -.09-.06-.16-.05-.25-.06 .05.13.06.26.04.4 -.05.27-.21.41-.47.44 -.11.01-.3-.03-.4-.05 .04.1.125.19.17.29 .21-.04.38-.04.5-.09 .11-.06.24-.19.39-.23 .15-.06.28-.06.45-.08 -.13.1-.22.21-.35.33l.28.83c.2.125.39.19.65.34 .25.15.55.43.89.58 .33.15.53.23.875.29 .34.06.625.34.96.39 .33.04.97.05 1.24.03 .29-.04.68-.19.72-.51 -.26.05-.64 0-.83-.47 -.09-.21-.05-.6-.18-.84 -.13-.25-.32-.33-.54-.64 -.22-.31-.58-.79-.78-1.2 -.2-.42-.25-.87-.42-1.24 -.17-.37-.43-.66-.625-.95 -.44-.62-.79-1.04-1.5-1.35 -.35-.15-.74-.19-1.1-.29 -.16.06-.36.13-.4.31 -.03.2.02.4.16.56 .2.21.52.45.64.8 .08.22.1.96.03 1.17 -.08.21-.24.33-.375.47Zm.06 1.77c-.07.05-.12.11-.23.16 -.11.04-.25.05-.4.09 .19.3.4.62.59.94 .19.32.35.67.53 1.01 -.01-.2 0-.41-.03-.59s-.11-.34-.2-.62c-.09-.28-.19-.65-.3-1.03Zm-5.34-6.79c-.03.3.02.77.08 1.07 .07.35.14.53.43.75 .52.39.85.32 1.27.55 .19.1.43.28.51.47 .06.19-.05.4-.2.48 .26.03.54-.26.42-.55 -.07-.15-.34-.22-.43-.37 -.08-.14-.1-.3-.05-.45 .07-.27.6-.52.79-.73 .29-.34.4-.61.24-1.03 -.23-.6-1.125-1.08-1.66-1.31 -.25-.11-.39-.12-.58-.18 .39.22.8.41 1 .92 .16.42.02.58.02.95 0 .17.22.26.33.37 .08.09.07.16.01.29 -.01-.11-.07-.21-.16-.27 -.15-.11-.32-.09-.4-.31 -.12-.33.12-.65-.16-1.016 -.2-.28-.47-.59-.84-.6 -.17 0-.33.02-.48.07l-.25-.3h-.01c-.5-.46-.84-.83-1.54-1.141 -.7-.31-1.04-.359-1.84-.34 -.8.01-1.59.08-2.51.88 -.93.79-3.31 3.84-3.89 4.234 -.58.38-.71.52-1.43.52 -.73 0-1.85-1.03-1.9-2.3 -.05-1.28-.06-1.729.82-3.266C5.11 2.98 6.72 2.5 7.91 2.34c1.19-.17 1.91.25 2.792.26 .88 0 1.75-.16 2.01-.85 -.125.07-.3.15-.78.13 -.48-.03-1.13-.573-1.87-.94C9.32.57 8.5.52 7.44.5c-1.06-.03-2.37.06-3.68.76C2.46 1.96 1.57 2.71.81 4.08 .06 5.46-.06 6.58.07 8.24 .19 9.9.7 11.15 1.69 12.37c.99 1.21 1.97 1.81 3.766 2.04l.375-1.66 -.68.95 .02-1.07 -.609.75 -.266-1.03 -.49.81 -.25-1.14 -.714.57 .22-.94 -.95.1 .43-.66 -.859.01 .5-.875 -.76-.12 .6-.8 -.94-.28 .77-.74 -.766-.63 .599-.47 -.563-.75 .599-.7 -.23-.92 .5-.44 .15-1.05 .56-.29 .49-.82 .9-.1 .44-.734 .9.04 .85-.47 .891.2 1-.31 .75.17 .97.14 .94.75 -1.45-.5 -.73.34 -.61-.365 -.42.28 -.734.07 -.66-.04 -.48.57 -.98.01 -.35.786 -.87.3 -.08.9 -.625.484 .2.85 -.536.88 .41.77 -.41.7 .54.34 -.12 1.14 .75.18 .16.84 .81-.09 .5.57 .63-.62c1.141-.58 1.61-.9 2.5-1.86 1.016-1.1 1.59-2.12 2.94-2.87 .96-.55 1.76-.734 2.849-.55 1.02.17 1.36.78 2.12 1.43 .08-.15.09-.19.22-.3 -.05.19-.11.38-.125.56Z"/></svg>