<svg viewBox="0 0 24 24" xmlns="http://www.w3.org/2000/svg"><path fill="none" d="M0 0h24v24H0Z"/><path d="M19.586 21H3v0c-.56 0-1-.45-1-1V6v0c0-.56.44-1 1-1h.58l-2.2-2.192L2.795 1.39l19.799 19.8 -1.42 1.41 -1.61-1.61Zm-14-14H3.99v12h13.58l-2.18-2.18h0c-2.39 1.88-5.85 1.48-7.73-.9 -1.59-2.01-1.59-4.83-.001-6.83l-2.1-2.1Zm3.52 3.52v0c-1.1 1.59-.69 3.77.91 4.865 1.19.81 2.76.81 3.95 0L9.09 10.52Zm12.89 7.26l-2-2V6.99h-3.83l-2-2H9.81l-.31.3 -1.42-1.42 .89-.9h6l2 2h4v0c.55 0 1 .44 1 1v11.78ZM11.25 7.04v0c3.01-.41 5.78 1.7 6.18 4.71 .06.48.06.98 0 1.47l-2.34-2.34v0c-.34-.65-.87-1.18-1.52-1.52l-2.34-2.34Z"/></svg>