<svg viewBox="0 0 24 24" xmlns="http://www.w3.org/2000/svg"><path fill="none" d="M0 0h24v24H0Z"/><path d="M4 14.745v0C.82 12.535.04 8.165 2.25 4.99c2.2-3.18 6.57-3.96 9.74-1.75 3.17 2.2 3.95 6.57 1.74 9.74 -.48.68-1.07 1.27-1.75 1.74v6.25 0c0 .55-.45 1-1 1h-6v0c-.56 0-1-.45-1-1v-6.26Zm4-.75v0c2.76 0 5-2.24 5-5 0-2.77-2.24-5-5-5V3.99c-2.77 0-5 2.23-5 5 0 2.76 2.23 5 5 5Zm-1 4v2h2v-2H7Zm1-6v0c-1.66 0-3-1.35-3-3 0-1.66 1.34-3 3-3v0c1.65 0 3 1.34 3 3 0 1.65-1.35 3-3 3Zm6 5v-1.3 0c1.91-1.71 3-4.15 3-6.708v0c0-2.22-.82-4.36-2.3-6h6.29V2.98c.55 0 1 .44 1 1v12 0c0 .55-.45 1-1 1h-7Zm4-10v2h2v-2h-2Z"/></svg>