<svg viewBox="0 0 24 24" xmlns="http://www.w3.org/2000/svg"><path fill="none" d="M0 0h24v24H0Z"/><path d="M6.17 18v0c.55-1.57 2.26-2.39 3.82-1.84 .85.3 1.52.97 1.83 1.83h10.17v2H11.82l-.001 0c-.56 1.56-2.27 2.38-3.83 1.83 -.86-.31-1.53-.98-1.84-1.84H1.97v-2h4.17Zm6-7v0c.55-1.57 2.26-2.39 3.82-1.84 .85.3 1.52.97 1.83 1.83h4.17v2h-4.17v0c-.56 1.56-2.27 2.38-3.83 1.83 -.86-.31-1.53-.98-1.84-1.84H1.98v-2h10.17Zm-6-7v0c.55-1.57 2.26-2.39 3.82-1.84 .85.3 1.52.97 1.83 1.83h10.17v2H11.82v0c-.56 1.56-2.27 2.38-3.83 1.83 -.86-.31-1.53-.98-1.84-1.84H1.98v-2h4.17Z"/></svg>