<svg viewBox="0 0 24 24" xmlns="http://www.w3.org/2000/svg"><path fill="none" d="M0 0h24v24H0Z"/><path d="M20 13c-1.68 0-3.25.46-4.593 1.25v0c1.19 1.39 2.12 3 2.74 4.74h1.85v-6Zm-4 6c-1.96-4.7-6.596-8-12.01-8v8h12ZM3.99 9c3.83 0 7.323 1.43 9.974 3.79v0c1.78-1.18 3.88-1.8 6.026-1.8v-8h1c.54 0 .99.44.99.99v16.01 0c-.01.54-.45.98-1 .99H2.96v0c-.55-.01-1-.45-1-1V3.96v0c0-.55.44-.99.992-1h3v-2h2v4h-4v4Zm14-8v4h-8V3h6V1h2Zm-1.5 9v0c-.83 0-1.5-.68-1.5-1.5 0-.83.67-1.5 1.5-1.5v0c.82 0 1.5.67 1.5 1.5 0 .82-.68 1.5-1.5 1.5Z"/></svg>