<svg viewBox="0 0 24 24" xmlns="http://www.w3.org/2000/svg"><path fill="none" d="M0 0h24v24H0Z"/><path d="M18.586 20H3.99v0c-.28 0-.5-.23-.5-.5 0-.11.03-.22.1-.3l.4-.54V9.99c0-1.33.32-2.59.899-3.69L1.38 2.79 2.8 1.38l19.799 19.8 -1.42 1.41 -2.61-2.61ZM6.4 7.82v0c-.28.69-.41 1.43-.41 2.17v8h10.58L6.39 7.81Zm13.59 7.964l-2-2V9.99v0c0-3.32-2.69-6.01-6-6.01 -1.05-.01-2.09.27-3 .79L7.54 3.32l0-.001c3.67-2.46 8.64-1.47 11.09 2.21 .87 1.31 1.34 2.85 1.34 4.44v5.786ZM9.49 21h5v0c0 1.38-1.12 2.5-2.5 2.5 -1.39 0-2.5-1.12-2.5-2.5Z"/></svg>