<svg viewBox="0 0 24 24" xmlns="http://www.w3.org/2000/svg"><path fill="none" d="M0 0h24v24H0Z"/><path d="M9.032 12L6 9.86v4.28L9.032 12Zm-4.244 5.44v0c-.23.15-.54.1-.7-.13 -.06-.09-.1-.19-.1-.29V6.95 6.94c-.01-.28.22-.51.49-.51 .1-.01.2.03.28.09l7.13 5.03v0c.22.15.27.47.11.69 -.04.04-.08.08-.12.11l-7.14 5.03ZM15 14.13l3.032-2.14L15 9.85v4.28Zm-2-7.18v0c-.01-.28.22-.51.49-.51 .1-.01.2.03.28.09l7.13 5.03v0c.22.15.27.47.11.69 -.04.04-.08.08-.12.11l-7.14 5.03v0c-.23.15-.54.1-.7-.13 -.06-.09-.1-.19-.1-.29V6.9Z"/></svg>