<svg viewBox="0 0 24 24" xmlns="http://www.w3.org/2000/svg"><path fill="none" d="M0 0h24v24H0Z"/><path d="M3 3h18v0c.55 0 1 .44 1 1v16 0c0 .55-.45 1-1 1H3v0c-.56 0-1-.45-1-1V4v0c0-.56.44-1 1-1Zm4.05 4.12l0 0C5.73 8.43 4.99 10.21 5 12.07c0 1.93.78 3.683 2.05 4.95l1.41-1.42v-.001c-.94-.94-1.47-2.22-1.47-3.54 0-1.38.56-2.63 1.46-3.535L7.03 7.1Zm9.9 0l-1.42 1.415 0 0c.93.93 1.46 2.2 1.46 3.53 0 1.38-.56 2.63-1.47 3.53l1.41 1.41v0c1.31-1.32 2.05-3.1 2.05-4.95v0c0-1.86-.74-3.64-2.05-4.95ZM12 15.07v0c1.65 0 3-1.35 3-3 0-1.66-1.35-3-3-3v0c-1.66 0-3 1.34-3 3 0 1.65 1.34 3 3 3Zm0-2v0c-.56 0-1-.45-1-1 0-.56.44-1 1-1v0c.55 0 1 .44 1 1 0 .55-.45 1-1 1Z"/></svg>