<svg viewBox="0 0 24 24" xmlns="http://www.w3.org/2000/svg"><path fill="none" d="M0 0h24v24H0Z"/><path d="M4 5v14h16V5H4ZM3 3h18v0c.55 0 1 .44 1 1v16 0c0 .55-.45 1-1 1H3v0c-.56 0-1-.45-1-1V4v0c0-.56.44-1 1-1Zm4.05 4.12l1.41 1.415v0c-.94.93-1.47 2.2-1.47 3.53 0 1.38.56 2.63 1.46 3.53l-1.42 1.41 0-.001c-1.32-1.32-2.06-3.1-2.05-4.95 0-1.94.78-3.683 2.05-4.95Zm9.9 0v-.001c1.31 1.31 2.05 3.09 2.05 4.95v0c0 1.85-.74 3.63-2.05 4.95l-1.42-1.42v0c.93-.94 1.46-2.22 1.46-3.54 0-1.38-.56-2.63-1.47-3.535l1.41-1.42ZM12 13.07v0c.55 0 1-.45 1-1 0-.56-.45-1-1-1v0c-.56 0-1 .44-1 1 0 .55.44 1 1 1Zm0 2v0c-1.66 0-3-1.35-3-3 0-1.66 1.34-3 3-3v0c1.65 0 3 1.34 3 3 0 1.65-1.35 3-3 3Z"/></svg>