<svg viewBox="0 0 24 24" xmlns="http://www.w3.org/2000/svg"><path fill="none" d="M0 0h24v24H0Z"/><path d="M10.83 13l-.001-.001c.55-1.57-.27-3.28-1.83-3.83 -1.57-.56-3.28.26-3.83 1.82 -.56 1.56.26 3.27 1.82 3.82 .32.11.65.17.99.17h8v0c1.65-.01 2.99-1.35 2.99-3.01 -.01-1.66-1.35-3-3.01-3 -1.66 0-3 1.34-3 3 0 .34.05.67.17.99h-2.34ZM3 3h18v0c.55 0 1 .44 1 1v16 0c0 .55-.45 1-1 1H3v0c-.56 0-1-.45-1-1V4v0c0-.56.44-1 1-1Zm13 10v0c-.56 0-1-.45-1-1 0-.56.44-1 1-1v0c.55 0 1 .44 1 1 0 .55-.45 1-1 1Zm-8 0v0c-.56 0-1-.45-1-1 0-.56.44-1 1-1v0c.55 0 1 .44 1 1 0 .55-.45 1-1 1Z"/></svg>