<svg viewBox="0 0 24 24" xmlns="http://www.w3.org/2000/svg"><path fill="none" d="M0 0h24v24H0Z"/><path d="M19.39 3.16l1.41 1.41 -2.48 2.47 2.47 2.47 -2.48 2.47 2.47 2.47 -2.48 2.47 2.47 2.47 -1.42 1.41 -3.89-3.89 2.47-2.474 -2.48-2.48 2.47-2.48 -2.48-2.48L19.33 3.1ZM13 19.944v0c0 .27-.23.5-.5.5 -.12 0-.23-.04-.32-.12l-5.293-4.34 -3.89 0v0c-.56 0-1-.45-1-1v-6 0c0-.56.44-1 1-1l2.58-.01L1.8 4.19l1.41-1.42 9.778 9.77v7.35ZM12.88 3.73V3.73c.07.08.11.2.11.31v5.7L9.272 6.02l2.901-2.38V3.64c.21-.18.52-.15.7.06 0 0 0 0 0 0Z"/></svg>