<svg viewBox="0 0 24 24" xmlns="http://www.w3.org/2000/svg" xmlns:xlink="http://www.w3.org/1999/xlink"><defs><path d="M0 0h24v24H0Z" id="a"/></defs><g fill="none"><use xlink:href="#a"/><use xlink:href="#a"/></g><g><path d="M20.08 11.42l-4.04-5.65c-.34-.48-.89-.77-1.48-.77v0c-1.49 0-2.35 1.68-1.49 2.89L16 12l-2.93 4.11c-.87 1.21 0 2.89 1.49 2.89v0c.59 0 1.15-.29 1.49-.77l4.04-5.65c.24-.35.24-.81-.01-1.16Z"/><path d="M13.08 11.42L9.05 5.77C8.7 5.29 8.15 5 7.56 5v0C6.07 5 5.2 6.68 6.07 7.89L9 12l-2.93 4.11C5.2 17.32 6.07 19 7.56 19v0c.59 0 1.15-.29 1.49-.77l4.04-5.65c.24-.35.24-.81-.01-1.16Z"/></g></svg>