<svg viewBox="0 0 24 24" xmlns="http://www.w3.org/2000/svg" xmlns:xlink="http://www.w3.org/1999/xlink"><defs><path d="M0 0h24v24H0Z" id="a"/></defs><g fill="none"><use xlink:href="#a"/><use xlink:href="#a"/></g><g><path d="M20 3h-8c-.55 0-1 .45-1 1v1.61s0 0 .01.01l5 4.5c.63.56.99 1.38.99 2.23V13h2v2h-2v2h2v2h-2v2h3c.55 0 1-.45 1-1V4c0-.55-.45-1-1-1Zm-5 4h-2V5h2v2Zm4 4h-2V9h2v2Zm0-4h-2V5h2v2Z"/><path d="M15 20v-7.65c0-.28-.12-.55-.33-.74l-5-4.5c-.19-.18-.43-.26-.67-.26 -.24 0-.48.09-.67.26l-5 4.5c-.21.18-.33.45-.33.74V20c0 .55.45 1 1 1h2c.55 0 1-.45 1-1v-4h4v4c0 .55.45 1 1 1h2c.55 0 1-.45 1-1Z"/></g></svg>