<svg viewBox="0 0 24 24" xmlns="http://www.w3.org/2000/svg"><path fill="none" d="M0 0h24v24H0Z"/><path d="M6.056 8.3l-.001-.001c.06-.11.13-.21.19-.3h11.49c.06.09.13.19.19.3l2.02-1.17 1 1.73 -2.22 1.27c.16.59.24 1.21.24 1.85v1h3v2h-3c0 .95-.19 1.862-.54 2.69l2.5 1.44 -1 1.73 -2.526-1.46v0c-1.11 1.36-2.7 2.26-4.44 2.52v-7.93h-2v7.93 0c-1.75-.26-3.33-1.16-4.438-2.53l-2.526 1.45 -1-1.74 2.5-1.45v-.001c-.36-.86-.54-1.77-.54-2.7h-3v-2h3v-1c0-.65.08-1.27.24-1.86L2.982 8.78l1-1.74L6 8.2ZM8 6v0c0-2.21 1.79-4 4-4 2.2 0 4 1.79 4 4H8Z"/></svg>