<svg viewBox="0 0 24 24" xmlns="http://www.w3.org/2000/svg"><path fill="none" d="M0 0h24v24H0Z"/><path d="M10.56 4.148V4.14c.94-.2 1.92-.2 2.87 0l1.68-1.69 1.41 1.415 -1.05 1.05h-.001c1.23.71 2.22 1.78 2.84 3.07h2.67v2h-2.07c.04.32.07.66.07 1v1h2v2h-2v1c0 .34-.03.673-.07 1h2.07v2h-2.68v0c-1.66 3.49-5.83 4.98-9.33 3.32 -1.47-.7-2.64-1.87-3.33-3.33H2.95v-2h2.07l-.001-.001c-.05-.34-.08-.67-.07-1v-1h-2v-2h2v-1c0-.34.02-.673.07-1H2.95v-2h2.67 -.001c.61-1.29 1.6-2.36 2.84-3.072l-1.05-1.05 1.41-1.42 1.68 1.68Zm1.43 1.85v0c-2.77 0-5 2.23-5 5v4 0c0 2.76 2.23 5 5 5 2.76 0 5-2.24 5-5v-4 0c0-2.77-2.24-5-5-5Zm-3 8h6v2h-6v-2Zm0-4h6v2h-6v-2Z"/></svg>