<svg viewBox="0 0 24 24" xmlns="http://www.w3.org/2000/svg"><path fill="none" d="M0 0h24v24H0Z"/><path d="M10 8h4V6.5v0C14 4.56 15.56 3 17.5 3 19.43 3 21 4.56 21 6.5c0 1.93-1.57 3.5-3.5 3.5H16v4h1.5v0c1.93 0 3.5 1.56 3.5 3.5 0 1.93-1.57 3.5-3.5 3.5 -1.94 0-3.5-1.57-3.5-3.5V16h-4v1.5 0c0 1.93-1.57 3.5-3.5 3.5C4.56 21 3 19.43 3 17.5 3 15.56 4.56 14 6.5 14H8v-4H6.5v0C4.56 10 3 8.43 3 6.5 3 4.56 4.56 3 6.5 3 8.43 3 10 4.56 10 6.5V8ZM8 8V6.5v0C8 5.67 7.32 5 6.5 5 5.67 5 5 5.67 5 6.5 5 7.32 5.67 8 6.5 8H8Zm0 8H6.5v0c-.83 0-1.5.67-1.5 1.5 0 .82.67 1.5 1.5 1.5 .82 0 1.5-.68 1.5-1.5V16Zm8-8h1.5v0c.82 0 1.5-.68 1.5-1.5 0-.83-.68-1.5-1.5-1.5 -.83 0-1.5.67-1.5 1.5V8Zm0 8v1.5 0c0 .82.67 1.5 1.5 1.5 .82 0 1.5-.68 1.5-1.5 0-.83-.68-1.5-1.5-1.5H16Zm-6-6v4h4v-4h-4Z"/></svg>