<svg viewBox="0 0 24 24" xmlns="http://www.w3.org/2000/svg"><path fill="none" d="M0 0h24v24H0Z"/><path d="M7.1 15.21v0c1.54.61 2.29 2.35 1.68 3.89 -.62 1.54-2.36 2.29-3.9 1.68 -1.55-.62-2.3-2.36-1.69-3.9 .31-.81.97-1.44 1.79-1.73V8.81v0c-1.57-.56-2.39-2.27-1.83-3.83 .55-1.57 2.26-2.39 3.82-1.83 1.56.55 2.38 2.26 1.82 3.82 -.31.85-.98 1.52-1.83 1.82v3.17c.83-.63 1.87-1 3-1h4v0c1.35 0 2.53-.91 2.89-2.21v0c-1.55-.62-2.3-2.36-1.69-3.9 .61-1.55 2.35-2.3 3.89-1.69 1.54.61 2.29 2.35 1.68 3.89 -.33.83-1.02 1.47-1.87 1.74v0c-.42 2.39-2.5 4.14-4.93 4.14h-4v0c-1.36-.01-2.54.9-2.9 2.21Z"/></svg>