<svg viewBox="0 0 24 24" xmlns="http://www.w3.org/2000/svg"><path fill="none" d="M0 0h24v24H0Z"/><path d="M6.75 2.5v0C9.09 2.5 11 4.4 11 6.75V11H6.75v0C4.4 11 2.5 9.09 2.5 6.75 2.5 4.4 4.4 2.5 6.75 2.5Zm0 10.5H11v4.25 0c0 2.34-1.91 4.25-4.25 4.25 -2.35 0-4.25-1.91-4.25-4.25C2.5 14.9 4.4 13 6.75 13Zm10.5-10.5v0c2.34 0 4.25 1.9 4.25 4.25 0 2.34-1.91 4.25-4.25 4.25H13V6.75v0c0-2.35 1.9-4.25 4.25-4.25ZM13 13h4.25v0c2.34 0 4.25 1.9 4.25 4.25 0 2.34-1.91 4.25-4.25 4.25 -2.35 0-4.25-1.91-4.25-4.25V13Z"/></svg>