<svg viewBox="0 0 24 24" xmlns="http://www.w3.org/2000/svg"><path fill="none" d="M0 0h24v24H0Z"/><path d="M1 14.5v0c-.01-2.25 1.15-4.34 3.06-5.52V8.97c.56-4.39 4.57-7.49 8.95-6.92 3.61.46 6.45 3.3 6.91 6.91v0c3.04 1.89 3.98 5.9 2.08 8.95 -1.1 1.75-2.96 2.88-5.03 3.04l-10 .01c-3.36-.28-6-3.08-6-6.5Zm15.84 4.48v0c2.47-.2 4.33-2.36 4.14-4.84 -.11-1.43-.9-2.73-2.12-3.48l-.81-.51 -.12-.95v0c-.43-3.29-3.44-5.61-6.73-5.19 -2.71.34-4.84 2.47-5.19 5.18l-.12.94 -.81.5v0c-2.12 1.31-2.76 4.08-1.45 6.19 .75 1.21 2.04 2 3.47 2.11l.17.01h9.35l.17-.02Zm-3.85-6.99h3l-4 5 -4-5h3v-4h2v4Z"/></svg>