<svg viewBox="0 0 24 24" xmlns="http://www.w3.org/2000/svg"><path fill="none" d="M0 0h24v24H0Z"/><path d="M12 2c5.523 0 10 4.477 10 10s-4.477 10-10 10C6.477 22 2 17.523 2 12 2 6.477 6.477 2 12 2Zm0 2v0c-4.42 0-8 3.58-8 8 0 4.41 3.58 8 8 8v0c4.41 0 8-3.59 8-8 0-4.42-3.59-8-8-8Zm0 3v-.001c2.76 0 4.99 2.24 4.99 5 -.01 2.76-2.25 4.99-5.01 4.99 -2.77-.01-5-2.25-5-5.01 0-.5.07-1 .22-1.48H7.19c.56 1.25 2.04 1.82 3.3 1.26 .9-.41 1.48-1.3 1.47-2.29v0c0-.99-.58-1.88-1.48-2.28 .46-.15.96-.22 1.47-.22Z"/></svg>