<svg viewBox="0 0 24 24" xmlns="http://www.w3.org/2000/svg"><path fill="none" d="M0 0h24v24H0Z"/><path d="M2 18h7v2H2v-2Zm0-7h9v2H2v-2Zm0-7h20v2H2V4Zm18.67 9.025l1.15-.391 1 1.73 -.92.8v0c.11.54.11 1.11 0 1.65l.91.8 -1 1.73 -1.16-.4c-.41.37-.9.65-1.44.83l-.24 1.19h-2l-.24-1.2v0c-.54-.18-1.02-.46-1.44-.83l-1.16.39 -1-1.74 .91-.81h0c-.12-.55-.12-1.12 0-1.66l-.92-.81 1-1.74 1.15.391c.41-.37.89-.66 1.43-.83l.23-1.2h2l.24 1.19c.53.17 1.02.46 1.43.83ZM17.99 18v0c1.1 0 2-.9 2-2 0-1.11-.9-2-2-2v0c-1.11 0-2 .89-2 2 0 1.1.89 2 2 2Z"/></svg>