<svg viewBox="0 0 24 24" xmlns="http://www.w3.org/2000/svg"><path fill="none" d="M0 0h24v24H0Z"/><path d="M12 22C6.477 22 2 17.523 2 12 2 6.477 6.477 2 12 2c5.523 0 10 4.477 10 10s-4.477 10-10 10Zm0-2v0c4.41 0 8-3.59 8-8 0-4.42-3.59-8-8-8v0c-4.42 0-8 3.58-8 8 0 4.41 3.58 8 8 8Zm-1-5h2v2h-2v-2Zm2-1.65v.64h-2v-1.5 0c0-.56.44-1 1-1v0c.82-.01 1.49-.68 1.49-1.51 -.01-.83-.68-1.5-1.51-1.5 -.72 0-1.34.5-1.48 1.2l-1.97-.4v0c.37-1.9 2.22-3.13 4.11-2.75 1.89.37 3.12 2.22 2.74 4.11 -.26 1.27-1.2 2.29-2.44 2.66Z"/></svg>