<svg viewBox="0 0 24 24" xmlns="http://www.w3.org/2000/svg"><path fill="none" d="M0 0h24v24H0Z"/><path d="M8.686 4l2.6-2.607v0c.39-.4 1.02-.4 1.41-.001l2.6 2.6h3.68v0c.55 0 1 .44 1 1v3.68l2.6 2.6v0c.39.39.39 1.02 0 1.41l-2.61 2.6v3.68 0c0 .55-.45 1-1 1h-3.69l-2.61 2.6h-.001c-.4.39-1.03.39-1.42 0l-2.61-2.61H4.94v0c-.56 0-1-.45-1-1v-3.69L1.33 12.65h0c-.4-.4-.4-1.03-.001-1.42l2.6-2.61V4.93v0c0-.56.44-1 1-1h3.68Zm3.31 11v0c1.65 0 3-1.35 3-3 0-1.66-1.35-3-3-3v0c-1.66 0-3 1.34-3 3 0 1.65 1.34 3 3 3Z"/></svg>