<svg viewBox="0 0 24 24" xmlns="http://www.w3.org/2000/svg"><path fill="none" d="M0 0h24v24H0Z"/><path d="M2 12c0-.87.11-1.71.31-2.51l0-.001c1.65.08 3.06-1.19 3.15-2.84 .03-.64-.14-1.26-.48-1.8l0 0c1.2-1.19 2.7-2.06 4.33-2.51V2.33c.75 1.47 2.55 2.06 4.03 1.31 .56-.29 1.02-.75 1.31-1.32l-.001-.001c1.63.45 3.12 1.31 4.33 2.5v0c-.91 1.38-.51 3.24.88 4.15 .53.34 1.15.51 1.79.47 .2.8.31 1.638.31 2.503 0 .86-.11 1.7-.32 2.5v0c-1.66-.09-3.07 1.18-3.16 2.83 -.04.63.13 1.26.47 1.79v0c-1.21 1.18-2.71 2.05-4.34 2.5H14.6c-.76-1.48-2.56-2.07-4.04-1.32 -.57.28-1.03.74-1.32 1.31v0c-1.64-.46-3.13-1.32-4.34-2.51v0c.9-1.39.5-3.25-.89-4.16 -.54-.35-1.16-.52-1.8-.48 -.21-.8-.32-1.64-.32-2.51Zm4.8 3c.63 1.09.81 2.346.56 3.52 .4.29.84.54 1.29.75v0c.91-.83 2.1-1.28 3.33-1.28 1.26 0 2.43.47 3.33 1.27 .45-.21.88-.46 1.29-.75v0c-.26-1.21-.06-2.46.56-3.53v-.001c.61-1.07 1.6-1.87 2.77-2.25v0c.04-.5.04-1.01 0-1.5v0c-1.17-.39-2.16-1.19-2.78-2.25v0c-.62-1.07-.82-2.32-.57-3.53V5.44c-.41-.3-.85-.55-1.3-.75V4.69c-.92.82-2.11 1.27-3.34 1.27v0c-1.24 0-2.42-.46-3.34-1.274v0c-.46.2-.89.45-1.3.75H7.29c.25 1.2.05 2.45-.57 3.52v0c-.62 1.06-1.61 1.86-2.77 2.25l0-.001c-.05.49-.05 1 0 1.5v0c1.16.38 2.15 1.18 2.77 2.25Zm5.19 0v0c-1.66 0-3-1.35-3-3 0-1.66 1.34-3 3-3v0c1.65 0 3 1.34 3 3 0 1.65-1.35 3-3 3Zm0-2v0c.55 0 1-.45 1-1 0-.56-.45-1-1-1v0c-.56 0-1 .44-1 1 0 .55.44 1 1 1Z"/></svg>