<svg viewBox="0 0 24 24" xmlns="http://www.w3.org/2000/svg"><path fill="none" d="M0 0h24v24H0Z"/><path d="M13.12 17.023l-4.199-2.29v0c-1.51 1.61-4.05 1.69-5.66.18 -1.62-1.51-1.7-4.05-.19-5.66 1.5-1.62 4.04-1.7 5.65-.19 .06.06.12.12.18.18l4.2-2.29v0c-.55-2.15.75-4.32 2.89-4.86 2.14-.55 4.31.75 4.85 2.89s-.76 4.31-2.9 4.85c-1.42.35-2.91-.09-3.9-1.15l-4.2 2.29v-.001c.16.64.16 1.31 0 1.95l4.199 2.29 -.001-.001c1.51-1.62 4.04-1.7 5.65-.19 1.61 1.51 1.69 4.04.18 5.65 -1.52 1.61-4.05 1.69-5.66.18 -1.07-1-1.5-2.49-1.15-3.9ZM6 13.993v0c1.1 0 2-.9 2-2 0-1.11-.9-2-2-2v0c-1.11 0-2 .89-2 2 0 1.1.89 2 2 2Zm11-6v0c1.1 0 2-.9 2-2 0-1.11-.9-2-2-2v0c-1.11 0-2 .89-2 2 0 1.1.89 2 2 2Zm0 12v0c1.1 0 2-.9 2-2 0-1.11-.9-2-2-2v0c-1.11 0-2 .89-2 2 0 1.1.89 2 2 2Z"/></svg>