<svg viewBox="0 0 24 24" xmlns="http://www.w3.org/2000/svg"><path fill="none" d="M0 0h24v24H0Z"/><path d="M12 1l8.21 1.826v0c.45.1.78.5.78.976v9.987 -.001c-.01 2-1.01 3.87-2.68 4.99l-6.33 4.21 -6.33-4.22h0c-1.67-1.12-2.68-2.99-2.68-4.991V3.78v0c0-.47.32-.88.78-.976L11.96.98Zm0 2.049l-7 1.55v9.185h0c0 1.33.66 2.58 1.78 3.32l5.21 3.48 5.21-3.48v0c1.11-.75 1.78-2 1.78-3.33V4.58l-7-1.56ZM12 7v0c1.1-.01 2 .89 2 1.99 0 .71-.39 1.37-1 1.73l-.01 4.26h-2v-4.27 0c-.96-.56-1.29-1.78-.74-2.74 .35-.62 1.01-1 1.73-1Z"/></svg>