<svg viewBox="0 0 24 24" xmlns="http://www.w3.org/2000/svg"><path fill="none" d="M0 0h24v24H0Z"/><path d="M9.4 16H3v0c-1.11 0-2-.9-2-2v-2.11 0c-.01-.27.05-.53.15-.77L4.24 3.6v0c.15-.38.51-.62.92-.62h16.83v0c.55 0 1 .44 1 1v10 0c0 .55-.45 1-1 1H18.5v0c-.33-.01-.63.15-.82.42l-5.46 7.72h0c-.15.2-.42.26-.64.15l-1.814-.91v0c-1.06-.53-1.6-1.72-1.31-2.86l.9-3.55Zm7.6-2.59V4.99H5.84L3 11.88v2.1h6.4v0c1.1 0 1.99.89 1.99 2 -.01.16-.03.33-.07.49l-.91 3.54v0c-.06.22.05.46.26.57l.66.33 4.71-6.68c.25-.36.57-.65.93-.86Zm2-.42h2v-8h-2v8Z"/></svg>