<svg viewBox="0 0 24 24" xmlns="http://www.w3.org/2000/svg"><path fill="none" d="M0 0h24v24H0Z"/><path d="M14.6 8H21v0c1.1 0 2 .89 2 2v2.1 0c0 .26-.06.52-.15.76l-3.1 7.51v0c-.16.37-.52.61-.93.61H1.99v0c-.56 0-1-.45-1-1v-10 0c0-.56.44-1 1-1h3.48v0c.32 0 .62-.16.81-.43L11.73.82v0c.14-.21.41-.27.63-.16l1.814.9v0c1.05.52 1.59 1.71 1.3 2.85l-.91 3.54ZM7 10.58v8.412h11.16l2.84-6.9V9.98h-6.4V9.98c-1.11-.01-2-.9-2-2.01 0-.17.02-.34.06-.5l.9-3.548v0c.05-.23-.06-.47-.27-.58l-.67-.33L7.91 9.68c-.25.35-.57.64-.94.85Zm-2 .41H3v8h2v-8Z"/></svg>