<svg viewBox="0 0 24 24" xmlns="http://www.w3.org/2000/svg"><path fill="none" d="M0 0h24v24H0Z"/><path d="M12 12.58l4.24 4.24 -1.42 1.41 -1.83-1.83v5.58h-2V16.39l-1.83 1.83 -1.42-1.42 4.243-4.25Zm0-10.59v0c3.55 0 6.54 2.66 6.95 6.19v0c2.93.79 4.65 3.82 3.85 6.75 -.61 2.21-2.53 3.82-4.82 4.03v-2.02 0c1.91-.28 3.24-2.05 2.97-3.96 -.28-1.92-2.05-3.25-3.96-2.98 -.05 0-.09.01-.13.01v0c.57-2.7-1.14-5.36-3.84-5.94 -2.7-.58-5.36 1.13-5.94 3.83 -.15.69-.15 1.4 0 2.1H7.07c-1.9-.36-3.73.89-4.09 2.79 -.36 1.89.89 3.72 2.79 4.08l.18.03v2.01 0C2.92 18.63.69 15.96.96 12.93c.2-2.29 1.81-4.21 4.03-4.82h0c.4-3.54 3.39-6.2 6.95-6.2Z"/></svg>