<svg viewBox="0 0 20 20" xmlns="http://www.w3.org/2000/svg"><path fill="none" d="M0 0h20v20H0Z"/><g><path d="M4.5 5h9c.28 0 .5-.22.5-.5s-.22-.5-.5-.5h-9c-.28 0-.5.22-.5.5s.22.5.5.5Z"/><path d="M13 14h1v-3h.61c.33 0 .56-.31.49-.62l-1-4c-.06-.22-.26-.38-.49-.38H4.39c-.23 0-.43.16-.48.38l-1 4c-.08.31.16.62.48.62H4v4.5c0 .28.22.5.5.5h5c.28 0 .5-.22.5-.5V11h3v3Zm-4 1H5v-4h4v4Z"/><path d="M16 15v-1.5c0-.28-.22-.5-.5-.5v0c-.28 0-.5.22-.5.5V15h-1.5c-.28 0-.5.22-.5.5v0c0 .28.22.5.5.5H15v1.5c0 .28.22.5.5.5v0c.28 0 .5-.22.5-.5V16h1.5c.28 0 .5-.22.5-.5v0c0-.28-.22-.5-.5-.5H16Z"/></g></svg>