<svg viewBox="0 0 24 24" xmlns="http://www.w3.org/2000/svg" xmlns:xlink="http://www.w3.org/1999/xlink"><defs><path d="M0 0h24v24H0Z" id="a"/></defs><g fill="none"><use xlink:href="#a"/><use xlink:href="#a"/></g><g><path d="M17 4v0c-.55 0-1 .45-1 1v6.9l2-2V5c0-.55-.45-1-1-1Z"/><path d="M5 20v0c.55 0 1-.45 1-1V5c0-.55-.45-1-1-1v0c-.55 0-1 .45-1 1v14c0 .55.45 1 1 1Z"/><path d="M11 8v0c.55 0 1-.45 1-1V5c0-.55-.45-1-1-1v0c-.55 0-1 .45-1 1v2c0 .55.45 1 1 1Z"/><path d="M11 14v0c.55 0 1-.45 1-1v-2c0-.55-.45-1-1-1v0c-.55 0-1 .45-1 1v2c0 .55.45 1 1 1Z"/><path d="M11 20v0c.55 0 1-.45 1-1v-2c0-.55-.45-1-1-1v0c-.55 0-1 .45-1 1v2c0 .55.45 1 1 1Z"/><path d="M22.56 12.59l-1.15-1.15c-.59-.59-1.54-.59-2.12 0L14 16.73v2.77c0 .28.22.5.5.5h2.77l5.29-5.29c.59-.59.59-1.54 0-2.12Zm-5.98 5.86h-1.03v-1.03L19 13.97 20.03 15l-3.45 3.45Z"/></g></svg>