<svg viewBox="0 0 20 20" xmlns="http://www.w3.org/2000/svg"><path fill="none" d="M0 0h20v20H0Z"/><g><path d="M16 11.5c0-.28-.22-.5-.5-.5H14v1h1.5c.28 0 .5-.22.5-.5Z"/><path d="M15.5 14H14v1h1.5c.28 0 .5-.22.5-.5s-.22-.5-.5-.5Z"/><path d="M12.5 10H10c-.55 0-1 .45-1 1v1h-.5c-.28 0-.5.22-.5.5v1c0 .27.23.5.5.5H9v1c0 .55.45 1 1 1h2.5c.28 0 .5-.22.5-.5v-5c0-.28-.22-.5-.5-.5Z"/><path d="M6.75 9h.75C8.88 9 10 7.88 10 6.5 10 5.12 8.88 4 7.5 4h-2c-.28 0-.5.22-.5.5s.22.5.5.5h2C8.33 5 9 5.67 9 6.5 9 7.33 8.33 8 7.5 8h-.75C5.23 8 4 9.23 4 10.75c0 1.52 1.23 2.75 2.75 2.75H7v-1h-.25c-.97 0-1.75-.78-1.75-1.75C5 9.78 5.78 9 6.75 9Z"/></g></svg>