<svg viewBox="0 0 24 24" xmlns="http://www.w3.org/2000/svg" xmlns:xlink="http://www.w3.org/1999/xlink"><defs><path d="M0 0h24v24H0Z" id="a"/></defs><g fill="none"><use xlink:href="#a"/><use xlink:href="#a"/></g><g><path d="M21 11.18V9.72c0-.47-.16-.92-.46-1.28L16.6 3.72c-.38-.46-.94-.72-1.54-.72H3c-1.1 0-2 .9-2 2v8c0 1.1.9 2 2 2h.18C3.6 16.16 4.7 17 6 17c1.3 0 2.4-.84 2.82-2h8.37c.41 1.16 1.51 2 2.82 2 1.66 0 3-1.34 3-3 -.01-1.3-.85-2.4-2.01-2.82ZM18.4 9H16V6.12L18.4 9ZM4 5h3v4H3V6c0-.55.45-1 1-1Zm2 10c-.55 0-1-.45-1-1s.45-1 1-1 1 .45 1 1 -.45 1-1 1Zm3-2v-2h2c.55 0 1-.45 1-1v0c0-.55-.45-1-1-1H9V5h4c.55 0 1 .45 1 1v7H9Zm11 2c-.55 0-1-.45-1-1s.45-1 1-1 1 .45 1 1 -.45 1-1 1Z"/><path d="M7 20l4 0 0-2 6 3 -4 0 0 2Z"/></g></svg>