<svg viewBox="0 0 24 24" xmlns="http://www.w3.org/2000/svg" xmlns:xlink="http://www.w3.org/1999/xlink"><defs><path d="M0 0h24v24H0Z" id="a"/></defs><g fill="none"><use xlink:href="#a"/><use xlink:href="#a"/></g><g><path d="M18.92 2.01C18.72 1.42 18.16 1 17.5 1h-11c-.66 0-1.21.42-1.42 1.01L3.11 7.68c-.07.21-.11.43-.11.66v7.16c0 .83.67 1.5 1.5 1.5v0c.83 0 1.5-.67 1.5-1.5V15h12v.5c0 .82.67 1.5 1.5 1.5v0c.82 0 1.5-.67 1.5-1.5V8.34c0-.22-.04-.45-.11-.66l-1.97-5.67ZM6.5 12c-.83 0-1.5-.67-1.5-1.5C5 9.67 5.67 9 6.5 9c.83 0 1.5.67 1.5 1.5s-.67 1.5-1.5 1.5Zm11 0c-.83 0-1.5-.67-1.5-1.5s.67-1.5 1.5-1.5 1.5.67 1.5 1.5 -.67 1.5-1.5 1.5ZM5 7l1.27-3.82c.14-.4.52-.68.95-.68h9.56c.43 0 .81.28.95.68L19 7H5Z"/><path d="M7 20l4 0 0-2 6 3 -4 0 0 2Z"/></g></svg>