<svg viewBox="0 0 20 20" xmlns="http://www.w3.org/2000/svg"><path fill="none" d="M0 0h20v20H0Z"/><g><path d="M15 7.5c0-.83-.67-1.5-1.5-1.5h-1c-.28 0-.5.22-.5.5v0c0 .28.22.5.5.5h1c.28 0 .5.22.5.5v1.29L10.79 12H9V8.5c0-.28-.22-.5-.5-.5H6c-1.66 0-3 1.34-3 3v2h2c0 1.1.9 2 2 2s2-.9 2-2h2.21L15 9.21V7.5ZM7 14c-.55 0-1-.45-1-1h2c0 .55-.45 1-1 1Z"/><path d="M8.5 6h-3c-.28 0-.5.22-.5.5v0c0 .28.22.5.5.5h3c.28 0 .5-.22.5-.5v0c0-.28-.22-.5-.5-.5Z"/><path d="M15 11c-1.1 0-2 .9-2 2s.9 2 2 2 2-.9 2-2 -.9-2-2-2Zm0 3c-.55 0-1-.45-1-1s.45-1 1-1 1 .45 1 1 -.45 1-1 1Z"/></g></svg>