<svg viewBox="0 0 20 20" xmlns="http://www.w3.org/2000/svg"><path fill="none" d="M0 0h20v20H0Z"/><path d="M14.82 9l-1.58-4.34c-.14-.4-.52-.66-.94-.66h-1.8c-.28 0-.5.22-.5.5v0c0 .28.22.5.5.5h1.8l1.46 4H8.75l-.37-1H9.5c.28 0 .5-.22.5-.5v0c0-.28-.22-.5-.5-.5h-3c-.28 0-.5.22-.5.5v0c0 .28.22.5.5.5h.82l1.46 4h-.83c-.25-1.78-1.77-3.1-3.66-2.99 -1.68.09-3.1 1.43-3.27 3.1C.8 14.25 2.41 16 4.5 16c1.79 0 3.21-1.29 3.45-3h4.1c.25 1.78 1.77 3.1 3.66 2.99 1.68-.09 3.1-1.43 3.27-3.1C19.2 10.75 17.59 9 15.5 9h-.68Zm-5.71 1h3.92c-.53.52-.88 1.22-.98 2H9.84l-.73-2ZM4.5 15C3.1 15 2 13.9 2 12.5c0-1.4 1.22-2.56 2.62-2.5 1.17.05 2.11.88 2.33 2H4.5c-.28 0-.5.22-.5.5v0c0 .28.22.5.5.5h2.45c-.22 1.15-1.22 2-2.45 2Zm10.98 0c-1.35-.01-2.48-1.15-2.48-2.5 0-.94.5-1.73 1.24-2.16l.86 2.36c.09.26.38.39.64.3v0c.26-.09.39-.38.3-.64l-.85-2.33c.11-.01.21-.03.31-.03 1.4 0 2.5 1.1 2.5 2.5 0 1.41-1.11 2.51-2.52 2.5Z"/></svg>