<svg viewBox="0 0 24 24" xmlns="http://www.w3.org/2000/svg" xmlns:xlink="http://www.w3.org/1999/xlink"><defs><path d="M0 0h24v24H0Z" id="a"/></defs><g fill="none"><use xlink:href="#a"/><use xlink:href="#a"/></g><g><path d="M19.28 4.93l-2.12-2.12c-.78-.78-2.05-.78-2.83 0L11.5 5.64l2.12 2.12 2.12-2.12 3.54 3.54c1.17-1.18 1.17-3.08-.001-4.25Z"/><path d="M5.49 13.77c.59.59 1.54.59 2.12 0l2.47-2.47 -2.12-2.13 -2.47 2.47c-.59.59-.59 1.54 0 2.13v0Z"/><path d="M14.33 8.46l-.71.71 -3.18-3.18C9.85 5.4 8.9 5.4 8.32 5.98c-.59.59-.59 1.54 0 2.12l3.18 3.18 -7 7c-.7.7-.88 1.84-.29 2.65 .74 1.03 2.19 1.12 3.05.26l9.19-9.2c.39.39 1.02.39 1.41 0 .39-.39.39-1.02 0-1.41l-2.12-2.12c-.39-.4-1.02-.4-1.41-.01Z"/></g></svg>