<svg viewBox="0 0 24 24" xmlns="http://www.w3.org/2000/svg"><path fill="none" d="M0 0h24v24H0Z"/><path d="M16.5 3C19.53 3 22 5.5 22 9c0 7-7.5 11-10 12.5C9.5 20 2 16 2 9c0-3.5 2.5-6 5.5-6C9.36 3 11 4 12 5c1-1 2.64-2 4.5-2Zm-3.57 15.604c.88-.56 1.67-1.11 2.42-1.71 2.981-2.37 4.64-4.96 4.64-7.91 0-2.36-1.54-4-3.5-4 -1.08 0-2.24.57-3.09 1.41L11.98 7.8l-1.42-1.42c-.85-.85-2.01-1.42-3.09-1.42 -1.94 0-3.5 1.65-3.5 4 0 2.94 1.66 5.53 4.645 7.9 .74.59 1.54 1.14 2.42 1.7 .29.18.59.37.93.57 .33-.21.63-.39.93-.58Z"/></svg>