<svg viewBox="0 0 24 24" xmlns="http://www.w3.org/2000/svg"><path fill="none" d="M0 0h24v24H0Z"/><path d="M13.196 2.26l3.25 5.63c.27.47.11 1.08-.37 1.36l-1.3.75 1 1.73 -1.74 1 -1-1.74 -1.3.75c-.48.27-1.09.11-1.37-.37L8.52 8.18c-2.06.62-3.55 2.53-3.55 4.785 0 .625.11 1.22.32 1.77 .77-.5 1.69-.78 2.676-.78 1.68 0 3.17.83 4.08 2.1l7.68-4.439 1 1.73 -7.878 4.54c.07.33.11.69.11 1.04 0 .34-.04.67-.1 1h8.1v2l-17 0c-.63-.84-1-1.875-1-3.01 0-1.01.29-1.95.81-2.73 -.52-.98-.81-2.09-.81-3.27 0-3 1.88-5.551 4.52-6.55l-.4-.69c-.56-.96-.23-2.18.73-2.74l2.59-1.5c.95-.552 2.18-.23 2.73.73Z"/></svg>