<svg viewBox="0 0 24 24" xmlns="http://www.w3.org/2000/svg"><path fill="none" d="M0 0h24v24H0Z"/><path d="M12.48 3.12l7.75 1.94c.44.11.75.51.75.97v.96h1c1.1 0 2 .9 2 2v3c0 1.657-1.343 3-3 3h-.43c-.54 1.35-1.56 2.48-2.9 3.15l-4.79 2.39c-.57.28-1.23.28-1.79 0l-4.79-2.4c-1.35-.68-2.36-1.81-2.9-3.16h-.43c-1.657 0-3-1.343-3-3v-3c0-1.11.895-2 2-2h1V6c0-.46.31-.86.75-.97l7.75-1.94c.31-.08.65-.08.97 0Zm-.49 1.94l-7 1.75v5.98c0 1.516.85 2.9 2.21 3.57l4.789 2.39 4.78-2.4c1.35-.68 2.21-2.07 2.21-3.58V6.79l-7-1.75Zm-9 3.939h-1v3c0 .55.44 1 1 1v-4Zm19 0h-1v4c.55 0 1-.45 1-1v-3Z"/></svg>