<svg viewBox="0 0 20 20" xmlns="http://www.w3.org/2000/svg"><path fill="none" d="M0 0h20v20H0Z"/><g><path d="M15.22 5.34C13.34 6.06 12 7.87 12 10c0 2.13 1.34 3.94 3.22 4.66C16.32 13.42 17 11.79 17 10c0-1.79-.68-3.42-1.78-4.66Z"/><path d="M11 10c0-2.39 1.41-4.45 3.43-5.42C13.23 3.59 11.68 3 10 3c-1.68 0-3.23.59-4.43 1.58C7.59 5.55 9 7.61 9 10c0 2.39-1.41 4.45-3.43 5.42C6.77 16.41 8.32 17 10 17c1.68 0 3.23-.59 4.43-1.58C12.41 14.45 11 12.39 11 10Z"/><path d="M4.78 5.34C3.68 6.58 3 8.21 3 10c0 1.79.68 3.42 1.78 4.66C6.66 13.94 8 12.13 8 10c0-2.13-1.34-3.94-3.22-4.66Z"/></g></svg>