<svg viewBox="0 0 512 512" xmlns="http://www.w3.org/2000/svg"><g><path d="M368 128H144v0c-70.7 0-128 57.3-128 128 0 70.69 57.3 128 128 128h224v0c70.69 0 128-57.31 128-128 0-70.7-57.31-128-128-128Zm0 224H144v0c-53.02 0-96-42.99-96-96 0-53.02 42.98-96 96-96h224v0c53.01 0 96 42.98 96 96 0 53.01-42.99 96-96 96Z"/><path d="M368 192v0c-35.35 0-64 28.65-64 64 0 35.34 28.65 64 64 64 35.34 0 64-28.66 64-64v0c-.04-35.33-28.68-63.97-64-64Zm0 96v0c-17.68 0-32-14.33-32-32 0-17.68 14.32-32 32-32 17.67 0 32 14.32 32 32v0c-.02 17.66-14.34 31.98-32 32Z"/></g></svg>