<svg viewBox="0 0 512 512" xmlns="http://www.w3.org/2000/svg"><g><path d="M227.313 363.313l84.68-84.69 84.68 84.68 22.62-22.63 -84.69-84.69 84.68-84.69 -22.63-22.63 -84.69 84.68 -84.69-84.69 -22.63 22.62 84.68 84.68 -84.69 84.68 22.62 22.62Z"/><path d="M472 64H194.644v0c-6.59.01-12.89 2.71-17.42 7.49L16 241.62v28.75l161.224 170.13v0c4.53 4.77 10.83 7.48 17.42 7.49H472h-.001c13.24-.02 23.98-10.76 24-24v-336 0c-.02-13.25-10.76-23.99-24-24Zm-8 352H198.084L48 257.623v-3.25l150.084-158.38H464Z"/></g></svg>