<svg viewBox="0 0 512 512" xmlns="http://www.w3.org/2000/svg"><g><path d="M382.82 304.57v-.001c-19.33-70.05-91.77-111.17-161.82-91.84 -44.65 12.31-79.53 47.19-91.84 91.83l-18.25 66.15v-.001c-11.75 42.59 13.25 86.64 55.84 98.39 6.92 1.91 14.08 2.88 21.27 2.88h135.9v0c44.18-.01 79.99-35.82 79.99-80.01 -.01-7.19-.97-14.35-2.89-21.28Zm-20.69 116.5v0c-9.05 11.96-23.2 18.97-38.19 18.92H188.03v0c-26.51 0-48.01-21.49-48.01-48 -.01-4.32.58-8.61 1.72-12.77l18.24-66.149v0c14.62-53.01 69.44-84.13 122.45-69.51 33.78 9.31 60.18 35.71 69.5 69.5l18.24 66.149h-.001c4.04 14.44 1.04 29.94-8.09 41.84Z"/><path d="M146.1 230.31c2.78-17.4-.91-36.03-10.4-52.47 -9.5-16.44-23.78-28.95-40.24-35.24 -17.63-6.74-35.6-5.66-50.634 3.01 -29.89 17.25-37.76 59.785-17.53 94.805 9.489 16.43 23.77 28.95 40.23 35.23h-.001c7.29 2.84 15.03 4.32 22.86 4.37v0c9.74.03 19.32-2.52 27.77-7.39 15.02-8.68 24.94-23.72 27.93-42.35Zm-31.6-5.06c-1.43 8.92-5.81 15.92-12.34 19.68s-14.77 4.06-23.217.83c-9.613-3.68-18.12-11.26-23.95-21.35 -11.2-19.4-8.54-42.8 5.82-51.1h0c3.6-2.05 7.69-3.11 11.84-3.06h0c3.89.04 7.74.79 11.36 2.21 9.613 3.67 18.11 11.25 23.94 21.34 5.82 10.09 8.13 21.24 6.51 31.4Z"/><path d="M149.566 164.017c11.36 9.08 24.33 13.81 37.458 13.81v0c3.93-.01 7.84-.43 11.68-1.27 33.72-7.34 54.17-45.45 45.58-84.958v0c-4.03-18.55-13.83-34.82-27.59-45.818 -14.74-11.78-32.19-16.239-49.15-12.56 -33.73 7.33-54.17 45.44-45.58 84.95 4.03 18.54 13.82 34.81 27.58 45.81Zm24.78-99.506v0c1.55-.34 3.14-.51 4.73-.5 5.94 0 12.06 2.32 17.637 6.78 8.03 6.42 13.82 16.23 16.3 27.62v0c4.76 21.89-4.91 43.36-21.107 46.89 -7.37 1.6-15.31-.63-22.37-6.28 -8.04-6.43-13.83-16.235-16.3-27.63 -4.77-21.91 4.9-43.38 21.1-46.9Z"/><path d="M467.171 145.62c-15.03-8.68-33.02-9.75-50.64-3.02 -16.46 6.28-30.75 18.8-40.24 35.23 -9.49 16.43-13.19 35.06-10.4 52.46 2.98 18.62 12.9 33.66 27.93 42.34v0c8.44 4.87 18.02 7.42 27.77 7.38h-.001c7.82-.05 15.57-1.53 22.863-4.38 16.45-6.29 30.74-18.8 40.23-35.24 20.22-35.02 12.35-77.55-17.54-94.81Zm-10.18 78.8c-5.83 10.09-14.33 17.67-23.95 21.34 -8.45 3.22-16.7 2.93-23.22-.84 -6.53-3.77-10.9-10.76-12.34-19.69 -1.63-10.17.68-21.32 6.51-31.4 5.82-10.09 14.32-17.67 23.94-21.35v0c3.62-1.43 7.47-2.18 11.36-2.23v0c4.14-.05 8.23 1 11.84 3.05 14.35 8.28 17.02 31.68 5.82 51.08Z"/><path d="M313.287 176.56v0c3.84.83 7.75 1.25 11.68 1.26 13.12 0 26.1-4.73 37.45-13.82 13.75-11 23.55-27.28 27.58-45.818 8.58-39.515-11.86-77.63-45.58-84.957 -16.96-3.69-34.42.77-49.15 12.55 -13.76 11-23.56 27.272-27.59 45.81 -8.59 39.51 11.85 77.62 45.58 84.95Zm-14.31-78.16v0c2.47-11.39 8.26-21.2 16.3-27.63 5.57-4.46 11.68-6.79 17.637-6.79v0c1.59-.01 3.17.16 4.73.5 16.2 3.52 25.86 25 21.1 46.89 -2.48 11.387-8.27 21.2-16.3 27.62 -7.07 5.64-15 7.87-22.37 6.27 -16.21-3.52-25.87-25-21.11-46.89Z"/></g></svg>