<svg viewBox="0 0 512 512" xmlns="http://www.w3.org/2000/svg"><g><path d="M415.313 358.7c36.45-36.46 55.9-85.24 54.77-137.36 -1.12-51.375-21.964-99.908-58.72-136.66l-22.63 22.62v0c30.68 30.4 48.37 71.53 49.35 114.72 .93 43.31-15.2 83.81-45.47 114.08l-48.62 49.05 .04-89.17 -32-.02 -.08 144h144.07v-32H366.4Z"/><path d="M47.93 112h89.614l-48.87 49.3c-36.46 36.45-55.91 85.231-54.78 137.35h-.001c1.13 51.43 22.18 100.42 58.71 136.66l22.62-22.63 0 0c-30.69-30.41-48.38-71.54-49.35-114.73 -.94-43.32 15.19-83.811 45.46-114.083l48.61-49.06 -.05 89.16 32 .01 .07-144.01H47.89Z"/></g></svg>