<svg viewBox="0 0 512 512" xmlns="http://www.w3.org/2000/svg"><path d="M441.884 109.64v-.001c-6-8.55-15.78-13.65-26.22-13.65H47.99v0c-17.67.01-31.99 14.33-32 32v248H57.07l0 0c6.61 36.95 41.94 61.55 78.89 54.93 28-5.02 49.92-26.94 54.93-54.94h122.16v-.001c6.61 36.95 41.94 61.55 78.89 54.93 28-5.02 49.92-26.94 54.93-54.94h49.08V194.48h0c0-4.93-1.51-9.74-4.34-13.77ZM180 127.99h144v96H180Zm-132 0h100v96H48Zm76 272v-.001c-19.89 0-36-16.12-36-36 0-19.89 16.11-36 36-36 19.88 0 36 16.11 36 36v0c-.03 19.87-16.13 35.97-36 36Zm256-.001v0c-19.89 0-36-16.12-36-36 0-19.89 16.11-36 36-36 19.88 0 36 16.11 36 36v0c-.03 19.87-16.13 35.97-36 36Zm84-56h-19.01v0c-11.05-35.9-49.1-56.05-84.99-45 -21.53 6.62-38.38 23.47-45 44.99H188.98h-.001c-11.05-35.9-49.1-56.05-84.99-45 -21.53 6.62-38.38 23.47-45 44.99H47.97v-88h416Zm0-120H356v-96h59.66l48.33 69.04Z"/></svg>