<svg viewBox="0 0 512 512" xmlns="http://www.w3.org/2000/svg"><path d="M425.7 86.29h-.001c-93.73-93.73-245.69-93.73-339.42 0C-7.46 180.01-7.46 331.97 86.27 425.7h-.001c93.72 93.72 245.68 93.72 339.412-.01 93.72-93.73 93.72-245.69 0-339.42Zm-143.113 21.43c9.24-17.67 11.48-36.57 6.71-57.046 88.06 14.23 157.784 83.95 172.01 172.017 -20.49-4.78-39.38-2.53-57.05 6.71 -26.09 13.64-45.38 40.8-64.03 67.071 -15.93 22.42-32.39 45.61-52.49 59.911 -21.35 15.18-44.56 18.6-73.04 10.72 -23.43-6.48-43.41-26.09-43.59-26.26 -.2-.2-19.83-20.3-26.26-43.59 -7.88-28.49-4.47-51.691 10.72-73.04 14.3-20.1 37.488-36.565 59.911-52.49 26.26-18.65 53.43-37.94 67.07-64.03Zm-26.6 356.275c-114.7 0-208-93.31-208-208 -.001-114.45 92.91-207.6 207.27-208 15.82 42.09-11.2 64.21-58.28 97.64 -47.39 33.64-106.35 75.5-82.956 160.145 8.76 31.7 33.43 56.637 34.47 57.68 1.04 1.04 25.98 25.7 57.68 34.47v0c11.9 3.4 24.21 5.18 36.59 5.29 60.9 0 95.156-48.25 123.553-88.243 33.43-47.09 55.55-74.106 97.64-58.28 -.39 114.35-93.54 207.27-207.99 207.27Z"/></svg>