<svg viewBox="0 0 512 512" xmlns="http://www.w3.org/2000/svg"><path d="M394.63 220.66L269.47 25.17v0c-4.77-7.45-14.66-9.62-22.11-4.85 -1.95 1.24-3.61 2.9-4.85 4.84L117.34 220.65l0-.001c-21.7 29.43-33.37 65.06-33.27 101.63 0 94.78 77.11 171.9 171.9 171.9 94.78 0 171.9-77.113 171.9-171.9v0c.09-36.57-11.57-72.21-33.27-101.64ZM255.99 462.197c-77.14 0-139.9-62.76-139.9-139.9h-.001c-.09-29.91 9.5-59.04 27.32-83.06q.31-.44.6-.89L255.97 63.45l111.96 174.88q.28.45.6.88v0c17.82 24.01 27.4 53.15 27.32 83.05 0 77.14-62.76 139.9-139.9 139.9Z"/></svg>