<svg viewBox="0 0 512 512" xmlns="http://www.w3.org/2000/svg"><path d="M135.27 206.728l88.85 51.59 -80.04 46.47 -95.79-25.67 0 33.13 74.84 20.05 -20.17 75.25 28.69 16.56 23.83-88.97 84.482-49.06 0 88.28 -71.18 71.17 28.69 16.56 60.48-60.49 59.13 59.13 28.69-16.57 -73.83-73.83 0-84.29 83 48.19 24.27 90.6 28.69-16.57 -20.38-76.04 76.4-20.48 0-33.13 -96.5 25.85 -79.65-46.25 88.46-51.37 87.673 23.49 0-33.13 -69.654-18.67 19.23-71.77 -28.69-16.57L361.1 178.6l-89.2 51.79 0-99.97 66.83-66.84 -28.69-16.57 -55.18 55.172 -54.31-54.306 -28.69 16.56 68.02 68.02 0 97.9 -90.68-52.65 -23.26-86.78 -28.7 16.56 19.02 70.99 -68.096 18.24 0 33.12 86.97-23.31Z"/></svg>