<svg viewBox="0 0 512 512" xmlns="http://www.w3.org/2000/svg"><path d="M496.05 182.58l-.03-70.7 -32 .01 .01 48.17 -66.29 23.77 -45.73 0v-30.964 -.001c.02-22.48-7.8-44.26-22.12-61.59l43.12-43.42h42.84v-32h-56.16L305.7 70.19v0c-30.78-18.93-69.53-19.14-100.52-.56l-53.06-53.84 -56.158.05 .02 32 42.74-.04 42.02 42.651v0c-14.74 17.44-22.81 39.55-22.79 62.39v30.99l-43.24 0 -66.8-23.8v-48.172h-32v70.74l80.035 28.5 0 84.71H15.93v32h80.01v8.01l-.001-.001c-.02 18.75 3.26 37.36 9.7 54.97l-89.71 34.57v70.43h32v-48.48l71.73-27.65h-.001c46.15 75.22 144.54 98.79 219.76 52.64 10.84-6.66 20.84-14.58 29.81-23.6v0c8.78-8.8 16.51-18.58 23.05-29.15l71.63 27.72v48.49h32v-70.43l-89.62-34.685v0c6.43-17.66 9.68-36.31 9.61-55.1v-7.8h80v-32h-80v-84.6ZM239.99 463.028c-63.01-7.8-111.96-61.83-111.96-127.13l-.01-120.02h30v0h81.965ZM190.02 183.87v-30.99 0c0-35.9 29.1-65 65-65 35.89 0 65 29.1 65 65v30.96Zm194 151.849v0c0 64.56-47.99 119.07-112.04 127.25v-247.1h80.03v-.04h32Z"/></svg>