<svg viewBox="0 0 512 512" xmlns="http://www.w3.org/2000/svg"><g><path d="M425.7 86.29h-.001c-93.73-93.73-245.69-93.73-339.42 0C-7.46 180.01-7.46 331.97 86.27 425.7h-.001c93.72 93.72 245.68 93.72 339.412-.01 93.72-93.73 93.72-245.69 0-339.42ZM255.99 463.99c-114.7 0-208-93.31-208-208 -.001-114.7 93.3-208 208-208 114.69 0 208 93.309 208 208 0 114.69-93.31 208-208 208Z"/><path d="M372.529 120h-192.07l-58.67 176h76.047l-36.4 104h77.17l145.37-145.373v-46.63h-65.25Zm-20.53 120v1.37L225.36 367.99h-18.83l36.4-104h-76.76l37.33-112h111.93l-53.78 88Z"/></g></svg>