<svg viewBox="0 0 512 512" xmlns="http://www.w3.org/2000/svg"><path d="M417.05 497.69H272.882L49.56 250.44h-.001c-8.89-9.84-8.12-25.02 1.72-33.9 .09-.09.18-.17.28-.26v0c37.57-32.89 94.69-29.08 127.57 8.5 .65.75 1.3 1.51 1.93 2.28l18.494 22.6h24.41v-180 0c0-28.72 23.28-52 52-52 28.71 0 52 23.28 52 52V181.5l126.423 35.11v0c10.37 2.9 17.55 12.35 17.57 23.12v159.7h-.001c-.01 4.35-1.19 8.61-3.43 12.34Zm-129.95-32h111.83l41.05-68.44V245.844l-144-40V69.674v0c0-11.05-8.96-20-20-20 -11.05 0-20 8.95-20 20v212H184.39l-28.1-34.34 -.001-.001c-18.91-23.11-52.19-28.24-77.18-11.91Zm158.71-218.22l.03 0Z"/></svg>