<svg viewBox="0 0 512 512" xmlns="http://www.w3.org/2000/svg"><path d="M453.12 79.012v0c-49.99-49.99-131.04-49.99-181.02 0 -.03.02-.05.04-.07.06l-15.52 15.7 -15.39-15.67 -.1-.1v0C191.03 29.01 109.98 29.01 60 78.992c-.01 0-.01 0-.01 0l-6.91 6.91v-.001c-49.99 49.98-49.99 131.03-.001 181.01l182.37 182.37 20.59 21.57 .49-.5 .53.53 19.29-20.36 183.63-183.64v0c49.9-50.03 49.9-131 0-181.019Zm-15.73 165.301L256.561 425.14 75.72 244.3v0c-37.49-37.5-37.49-98.28-.001-135.77l6.91-6.91v0c37.47-37.48 98.21-37.5 135.71-.06l38.09 38.78L294.7 101.6v0c37.49-37.5 98.27-37.5 135.76-.01 0 0 0 0 0 0l6.91 6.9v0c37.42 37.51 37.42 98.25-.01 135.76Z"/></svg>