<svg viewBox="0 0 512 512" xmlns="http://www.w3.org/2000/svg"><path d="M472 48H40v0c-13.25.01-23.99 10.75-24 24v368 -.001c.01 13.24 10.75 23.98 24 24h88v-58.822l0 0c0-7.27 3.93-13.95 10.28-17.48l91.97-51.13 -30.27-75.66v-60.92 0c0-30.93 25.07-56 56-56 30.92 0 56 25.07 56 56v60.91l-30.27 75.65 91.97 51.12v0 0c6.34 3.52 10.28 10.21 10.28 17.47v58.82h88 0c13.24-.02 23.98-10.76 24-24v-368h0c-.02-13.25-10.76-23.99-24-24Zm-8 384h-48v-26.83 0c-.01-18.88-10.24-36.28-26.738-45.46v0l-67.35-37.43 22.08-55.22v-67.09 0c0-48.61-39.4-88-88-88 -48.61 0-88 39.39-88 88v67.08l22.08 55.21 -67.35 37.43 0 0c-16.5 9.17-26.74 26.56-26.74 45.44v26.82h-48v-352h416Z"/></svg>