<svg viewBox="0 0 512 512" xmlns="http://www.w3.org/2000/svg"><path d="M464 280H80V100h0c-.04-13.7 5.4-26.83 15.11-36.49l.4-.4 0-.001c15.43-15.42 38.87-19.48 58.6-10.17l0 0c-18.71 31.09-13.85 70.93 11.77 96.62l10.95 10.95 -20.16 20.15 22.62 22.62 20.15-20.16v0l111.68-111.69v0l20.15-20.16 -22.63-22.627 -20.16 20.15 -10.96-10.96v0c-27.06-26.99-69.54-30.76-100.93-8.98v0c-33.05-20.87-76.13-16.07-103.77 11.56l-.4.4v-.001c-15.73 15.64-24.55 36.93-24.49 59.115v180h-32v32h32v30.7h0c-.01 2.57.41 5.14 1.23 7.58l29.768 89.3h0c3.25 9.8 12.43 16.41 22.76 16.41h12.9l-11.67 40h33.333l11.66-40h208.1l12 40h33.4l-12-40h20.73l0-.001c10.33.01 19.51-6.61 22.77-16.42l29.76-89.3v0c.81-2.45 1.23-5.01 1.23-7.59v-30.7h32v-32ZM188.52 60.52l0-.001c18.35-18.32 48.07-18.32 66.43 0l10.94 10.95 -66.43 66.429 -10.96-10.95v0c-18.32-18.36-18.32-48.08-.001-66.44ZM432 341.4L404.46 424H107.524l-27.54-82.6V312h352Z"/></svg>