<svg viewBox="0 0 512 512" xmlns="http://www.w3.org/2000/svg"><path d="M382.98 237.57v0c-6.59-72.31-44.06-138.25-102.8-180.91L251.64 36 224.9 56.79l0-.001c-56.34 43.79-91.36 109.52-96.28 180.71v0c-10.77-2.03-21.7-3.05-32.65-3.05h-80v65.54c0 97.04 78.953 176 176 176h128c97.04 0 176-78.96 176-176v-65.55h-80l-.001-.001c-11.08-.01-22.14 1.04-33.02 3.11ZM244.56 82.05l7.77-6.05 9.08 6.57v-.001c53.01 38.51 86.07 98.67 90.16 164.079v-.001c-42.32 16.76-76.55 49.17-95.59 90.51v0c-19.09-41.42-53.41-73.87-95.83-90.6l0-.001c2.26-64.67 33.19-124.97 84.392-164.53ZM239.99 444h-48c-79.4 0-144-64.6-144-144v-33.55h48c79.4 0 144 64.6 144 144Zm224-144c0 79.4-64.6 144-144 144h-48v-33.55c0-79.4 64.6-144 144-144h48Z"/></svg>