<svg viewBox="0 0 512 512" xmlns="http://www.w3.org/2000/svg"><g><path d="M87.371 161.02v0c39.41-.01 71.37-31.96 71.37-71.38 -.01-39.42-31.96-71.38-71.38-71.38 -39.42 0-71.38 31.95-71.38 71.37 0 0 0 0 0 0l-.001-.001c.04 39.39 31.97 71.32 71.37 71.37Zm0-110.75v0c21.74 0 39.37 17.62 39.37 39.37 -.001 21.74-17.63 39.37-39.38 39.37 -21.75 0-39.38-17.63-39.38-39.38v0C48 67.89 65.61 50.28 87.35 50.25Z"/><path d="M274.311 164.974v0c32.84-.01 59.46-26.63 59.46-59.47 -.01-32.85-26.63-59.47-59.47-59.47 -32.85 0-59.47 26.62-59.47 59.46 0 0 0 0 0 0v0c.03 32.82 26.64 59.43 59.46 59.46Zm0-86.935v0c15.17 0 27.46 12.29 27.46 27.46 0 15.17-12.3 27.46-27.47 27.46 -15.18 0-27.47-12.3-27.47-27.47h0c.01-15.17 12.3-27.46 27.46-27.47Z"/><path d="M435.51 85.749a29.637 29.637 0 1 0 0 59.274 29.637 29.637 0 1 0 0-59.274Z"/><path d="M87.371 328.51v0c39.41-.01 71.37-31.96 71.37-71.38 -.01-39.42-31.96-71.38-71.38-71.38 -39.42 0-71.38 31.95-71.38 71.37 0 0 0 0 0 0v0c.04 39.39 31.97 71.32 71.37 71.37Zm0-110.75v0c21.74 0 39.37 17.62 39.37 39.37 -.001 21.74-17.63 39.37-39.38 39.37 -21.75 0-39.38-17.63-39.38-39.38v0c.02-21.74 17.63-39.35 39.37-39.38Z"/><path d="M274.311 316.608v0c32.84-.01 59.46-26.63 59.46-59.47 -.01-32.85-26.63-59.47-59.47-59.47 -32.85 0-59.47 26.62-59.47 59.46 0 0 0 0 0 0v0c.03 32.82 26.64 59.43 59.46 59.46Zm0-86.935v0c15.17 0 27.46 12.29 27.46 27.46 0 15.17-12.3 27.46-27.47 27.46 -15.18 0-27.47-12.3-27.47-27.47l0 0c.01-15.17 12.3-27.46 27.46-27.47Z"/><path d="M435.51 227.5a29.637 29.637 0 1 0 0 59.274 29.637 29.637 0 1 0 0-59.274Z"/><path d="M87.371 496v0c39.41 0 71.37-31.96 71.37-71.38 0-39.42-31.96-71.38-71.38-71.38 -39.42 0-71.38 31.95-71.371 71.37l-.001 0c.04 39.39 31.97 71.32 71.371 71.37Zm0-110.75v0c21.74 0 39.37 17.62 39.37 39.37 -.001 21.74-17.63 39.37-39.38 39.37 -21.75 0-39.38-17.63-39.38-39.38v0c.02-21.74 17.63-39.35 39.37-39.38Z"/><path d="M274.311 468.242v0c32.84 0 59.46-26.63 59.46-59.47 0-32.85-26.63-59.47-59.47-59.47 -32.85 0-59.47 26.62-59.47 59.46v0c.03 32.82 26.63 59.43 59.46 59.46Zm0-86.935h0c15.17 0 27.46 12.29 27.46 27.46 -.01 15.17-12.3 27.46-27.47 27.46 -15.18-.01-27.47-12.3-27.47-27.47 0-.01 0-.01 0-.01h-.001c.01-15.17 12.3-27.45 27.46-27.47Z"/><path d="M435.51 369.258a29.637 29.637 0 1 0 0 59.274 29.637 29.637 0 1 0 0-59.274Z"/></g></svg>