<svg viewBox="0 0 512 512" xmlns="http://www.w3.org/2000/svg"><path d="M416.941 27.42L185.4 219.291c-1.72-.08-3.43-.13-5.13-.13h-.03v0c-49.39-.08-93.2 31.68-108.48 78.655L18.27 461.37h0c-4.61 14.1 3.09 29.28 17.2 33.88 2.66.87 5.45 1.31 8.26 1.32v-.001c2.85-.01 5.68-.46 8.4-1.35l163.562-53.49v0c46.96-15.28 78.73-59.09 78.65-108.48v0c0-2.52-.1-5.05-.27-7.58l190.99-230.06 0-.001c17.08-20.59 14.25-51.13-6.34-68.22 -17.93-14.89-43.91-14.9-61.85-.03ZM205.78 411.34L51.86 461.66l50.32-153.913h0c10.99-33.8 42.51-56.66 78.06-56.6 2.27 0 4.55.1 6.84.28l75 75c.18 2.28.28 4.56.28 6.84v-.001c.05 35.53-22.81 67.06-56.6 78.05ZM460.495 75.21L277.377 295.77l-60.79-60.79L437.337 52.03v0c6.98-5.8 17.35-4.84 23.14 2.15 5.05 6.09 5.05 14.91-.01 21Z"/></svg>