<svg viewBox="0 0 512 512" xmlns="http://www.w3.org/2000/svg"><g><path d="M472.97 122.34L373.65 23.02v-.001c-4.5-4.52-10.61-7.05-16.97-7.03H55.99v0c-13.25.01-23.99 10.75-24 24v432 -.001c.01 13.24 10.75 23.98 24 24h400 0c13.24-.02 23.98-10.76 24-24V139.3h0c.01-6.37-2.52-12.48-7.03-16.97ZM319.99 47.99v96h-144v-96Zm128 416h-384v-416h80v128h208v-128h1.37l94.62 94.62Z"/><path d="M252 224v0c-50.82 0-92 41.18-92 92 0 50.81 41.18 92 92 92 50.81 0 92-41.19 92-92v0c-.06-50.79-41.22-91.95-92-92Zm0 152v0c-33.14 0-60-26.87-60-60 0-33.14 26.86-60 60-60 33.13 0 60 26.86 60 60v0c-.04 33.12-26.88 59.96-60 60Z"/></g></svg>