<svg viewBox="0 0 512 512" xmlns="http://www.w3.org/2000/svg"><path d="M398.789 22.31V22.3c-6-6.12-14.21-9.55-22.78-9.52h-.02v0c-8.58-.03-16.79 3.42-22.79 9.55L87.51 292.229h-.001c-12.29 12.54-12.21 32.62.17 45.07l14.7 14.7 -86.42 87.41v38.57h106.8l52.8-52.8 12.47 12.48v0c12.49 12.49 32.75 12.49 45.25 0 .25-.26.5-.51.74-.78l258.23-276.14v0c11.77-12.53 11.51-32.14-.6-44.34ZM109.548 446H54.49l46.55-47.1 27.8 27.8Zm101.16-30.95l-35.11-35.11 -24.13 24.12 -27.94-27.94 23.98-24.27 -37.191-37.19 48.33-49.11 99.126 99.12Zm68.95-73.74l-98.55-98.54 194.89-197.99 92.923 94.12Z"/></svg>