<svg viewBox="0 0 512 512" xmlns="http://www.w3.org/2000/svg"><path d="M496 272v-32H272v-48h56v0c13.24-.02 23.98-10.76 24-24V40v0c-.02-13.25-10.76-23.99-24-24H184v0c-13.25.01-23.99 10.75-24 24v128 0c.01 13.24 10.75 23.98 24 24h56v48H16v32h80v48H41.391v0c-13.25.01-23.99 10.75-24 24v128l0-.001c.01 13.24 10.75 23.98 24 24h142.6v0c13.24-.02 23.98-10.76 24-24v-128 0c-.02-13.25-10.76-23.99-24-24h-56v-48h256v48h-56v0c-13.25.01-23.99 10.75-24 24v128 0c.01 13.24 10.75 23.98 24 24h144v0c13.24-.02 23.98-10.76 24-24v-128 0c-.02-13.25-10.76-23.99-24-24h-56v-48ZM192 48h128v112H192Zm-16 416H49.39V352h126.6Zm288 0H336V352h128Z"/></svg>