<svg viewBox="0 0 512 512" xmlns="http://www.w3.org/2000/svg"><g><path d="M66 256v32c88.225 0 160 71.77 160 160h32c0-105.87-86.131-192-192-192Z"/><path d="M66 140v32c152.187 0 276 123.81 276 276h32 0c.22-81.74-32.27-160.16-90.22-217.79v0c-57.64-57.95-136.06-90.44-217.79-90.22Z"/><path d="M456.67 282.95h0c-21.29-50.38-52.14-96.15-90.87-134.77v0C286.36 68.54 178.46 23.85 65.98 23.99v32c216.149 0 392 175.85 392 392h32l-.001 0c.1-56.7-11.23-112.84-33.33-165.05Z"/><path d="M90 360v0c-35.35 0-64 28.65-64 64 0 35.34 28.65 64 64 64 35.34 0 64-28.66 64-64v0c-.04-35.33-28.68-63.97-64-64Zm0 96v0c-17.68 0-32-14.33-32-32 0-17.68 14.32-32 32-32 17.67 0 32 14.32 32 32v-.001c-.02 17.66-14.34 31.98-32 32Z"/></g></svg>