<svg viewBox="0 0 512 512" xmlns="http://www.w3.org/2000/svg"><g><path d="M16 464h480v32H16Z"/><path d="M455.688 152.16c-23.39-6.52-48.26-6.06-70.01 1.3l-.9.3 -65.1 30.94 -189.99-75.53v0c-16.93-6.8-36.24-3.36-49.78 8.86l-25.44 22.79h-.001c-9.87 8.84-10.7 24.02-1.85 33.89 1.19 1.33 2.53 2.52 3.99 3.56l117.767 83.45 -45.18 23.66 -35.78-32.69h-.001c-13.98-12.75-34.12-16.11-51.47-8.6l-19.46 8.43v-.001c-12.17 5.27-17.75 19.4-12.48 31.56 .25.58.53 1.16.83 1.73L83.65 422.62l396.582-195.48c23.74-11.18 26.64-29.05 21.41-42.059 -5.79-14.43-22.57-26.46-46.04-32.99Zm10.9 46.13l-.15.07 -369.05 181.9 -54.18-101.8 11.5-4.99v0c5.78-2.51 12.49-1.39 17.15 2.86l52.336 47.81 111.32-58.32L83.29 157.946l17.97-16.11v0c4.51-4.08 10.94-5.22 16.59-2.96l202.94 80.68 75.95-36.095c15.45-5.01 33.863-5.17 50.66-.42 13.83 3.91 21.18 9.6 23.67 12.58v0c-1.41 1.03-2.93 1.92-4.52 2.63Z"/></g></svg>