<svg viewBox="0 0 512 512" xmlns="http://www.w3.org/2000/svg"><g><path d="M464 16H144v0c-17.67.01-31.99 14.33-32 32v320 -.001c.01 17.66 14.33 31.98 32 32h320 -.001c17.66-.02 31.98-14.34 32-32v-320 0c-.02-17.67-14.34-31.99-32-32Zm0 352H144V48h320l.02 320Z"/><path d="M77.846 464h30.77v32h-30.77Z"/><path d="M384 464h30.77v32H384Z"/><path d="M200.3 464h30.77v32H200.3Z"/><path d="M139.077 464h30.76v32h-30.77Z"/><path d="M261.539 464h30.76v32h-30.77Z"/><path d="M322.769 464h30.77v32h-30.77Z"/><path d="M16 464h32v32H16Z"/><path d="M16 224.3h32v30.15H16Z"/><path d="M16 284.46h32v30.15H16Z"/><path d="M16 404.769h32v30.15H16Z"/><path d="M16 344.615h32v30.15H16Z"/><path d="M16 164.154h32v30.15H16Z"/><path d="M16 104h32v30.15H16Z"/></g></svg>