<svg viewBox="0 0 512 512" xmlns="http://www.w3.org/2000/svg"><g><path d="M49.38 256c0-114.19 92.8-207.1 206.93-207.3v41.75l111.67-74.5H256.3l-.33.03c-63.79.09-123.42 25.67-168.525 70.79v-.001c-45.03 44.77-70.27 105.7-70.09 169.21Z"/><path d="M255.98 463.367v-31.37l-111.679 64H255.98c132.4-.36 240-108.214 240-239.97h-32c-.01 114.1-93.25 206.97-208 207.33Z"/><path d="M337.372 152H184v-32h-32v32h-32v32h32v176h168v32h32v-32h32v-32h-32V222.62l-32 32v73.37H201.37L383.997 145.36v-17.38h-22.63ZM184 305.372V183.99h121.37Z"/></g></svg>