<svg viewBox="0 0 512 512" xmlns="http://www.w3.org/2000/svg"><path d="M23.68 456.52h-.001c-3.1 9.01-.77 18.99 6 25.7l.08.08 -.001-.001c4.65 4.69 10.99 7.33 17.61 7.34v0c2.75-.01 5.49-.46 8.1-1.35v0l0-.001c93.36-31.81 178.21-84.56 248.04-154.21L469.95 167.6v0c34.78-34.61 34.92-90.85.32-125.63 -34.61-34.79-90.85-34.93-125.63-.33 -.11.1-.22.21-.33.32l-9.54 9.53 -20.8-20.8v-.001C294.28 11 262.37 11 242.7 30.69L108.63 164.75l22.62 22.62L265.31 53.3v0c7.18-7.19 18.83-7.19 26.01-.001l20.79 20.79 -134.3 134.3 -.001 0C108.15 278.216 55.4 363.06 23.6 456.43ZM366.98 64.64v0c22.19-22.2 58.17-22.2 80.37-.001 22.19 22.19 22.19 58.17 0 80.37L357.857 234.5l-80.38-80.38Zm-112.13 112.12l80.37 80.37 -54.35 54.34 0 0c-62.92 62.75-138.7 111.11-222.113 141.74l-.001 0c30.62-83.42 78.98-159.2 141.74-222.12Z"/></svg>