<svg viewBox="0 0 512 512" xmlns="http://www.w3.org/2000/svg"><g><path d="M64 496h120v-32H64v0c-8.84-.02-15.99-7.17-16-16V328H16v120 0c.02 26.49 21.5 47.97 48 48Z"/><path d="M48 64v0c.01-8.84 7.16-15.99 16-16h120V16H64v0c-26.5.02-47.98 21.5-48 48v120h32Z"/><path d="M448 16H328v32h120v0c8.83.01 15.98 7.16 16 16v120h32V64v0c-.03-26.5-21.51-47.98-48-48Z"/><path d="M464 448v0c-.02 8.83-7.17 15.98-16 16H328v32h120v0c26.49-.03 47.97-21.51 48-48V328h-32Z"/><path d="M400 256c0-79.4-64.6-144-144-144s-144 64.6-144 144 64.6 144 144 144 144-64.6 144-144ZM256 368v0c-61.86 0-112-50.15-112-112 0-61.86 50.14-112 112-112 61.85 0 112 50.14 112 112v0c-.07 61.82-50.18 111.93-112 112Z"/></g></svg>