<svg viewBox="0 0 512 512" xmlns="http://www.w3.org/2000/svg"><g><path d="M96.344 175.313h192v32h-192Z"/><path d="M479.6 399.71l-81.09-81.09 -62.37-25.77v0c20.76-29.54 31.89-64.77 31.85-100.87 0-97.05-78.96-176-176-176 -97.05 0-176 78.95-176 176 0 97.04 78.953 176 176 176h-.001c36.41.04 71.93-11.28 101.61-32.38l25.7 62.2 81.08 81.08v0c21.86 21.87 57.32 21.87 79.19 0 21.87-21.87 21.87-57.33 0-79.2 0 0-.01-.01-.01-.01ZM48 191.99c-.001-79.4 64.6-144 144-144s144 64.6 144 144 -64.6 144-144 144 -144-64.6-144-144Zm408.97 264.284v0c-9.38 9.35-24.57 9.35-33.95 0l-76.572-76.572 -23.9-57.84 57.83 23.89 76.57 76.572v0c9.35 9.37 9.35 24.56-.01 33.94Z"/></g></svg>