<svg viewBox="0 0 512 512" xmlns="http://www.w3.org/2000/svg"><g><path d="M208 16v0c-61.83.06-111.94 50.17-112 112v79.68l0 0c0 13.38 3.36 26.55 9.768 38.3l27.455 50.33 -72.83 47.334 -.001-.001c-22.75 14.72-36.46 39.98-36.4 67.07v85.26h288v-32h-256V410.7h-.001c-.04-16.26 8.19-31.42 21.84-40.25l97.66-63.48 -41.64-76.35v0c-3.84-7.06-5.86-14.96-5.87-22.99v-79.69h0c0-44.19 35.81-80 80-80 44.18 0 80 35.81 80 80v79.681 0c-.01 8.03-2.03 15.93-5.87 22.98l-41.64 76.34 71.5 46.47v-38.17l-29.23-19 27.45-50.334v0c6.39-11.76 9.75-24.92 9.76-38.31v-79.69 0c-.07-61.83-50.18-111.94-112-112Z"/><path d="M424 400l0-64 -32 0 0 64 -64 0 0 32 64 0 0 64 32 0 0-64 64 0 0-32 -64 0Z"/></g></svg>