<svg viewBox="0 0 512 512" xmlns="http://www.w3.org/2000/svg"><g><path d="M285.177 179l15.51-3.92 -7.83-31.03 -15.52 3.91 -.001-.001c-64.9 16.46-114.95 68.15-129.3 133.55l-3.41 15.63 31.26 6.81 3.4-15.64 0-.001c11.9-53.47 52.81-95.72 105.863-109.35Z"/><path d="M363.624 147.871C343.72 72.07 274.64 16 192.69 16c-97.44 0-176.7 79.266-176.7 176.7 0 82.61 57 152.16 133.73 171.4h-.001c20.39 77.7 90.62 131.89 170.96 131.9 97.43 0 176.7-79.27 176.7-176.695 -.01-81.24-55.76-151.969-133.78-171.434ZM48 192.691c0-79.79 64.91-144.7 144.7-144.7 79.79 0 144.7 64.91 144.7 144.7 0 79.79-64.911 144.7-144.7 144.7 -79.79 0-144.7-64.92-144.7-144.7Zm272.7 271.3c-60.94 0-115.21-38.86-135.843-94.8 2.6.11 5.21.18 7.84.18v0c10.97 0 21.91-1.02 32.7-3.05l97.625 97.625c-.78.01-1.56.03-2.33.03Zm41.52-6.09L260.25 355.93v0c15.73-6.55 30.43-15.33 43.66-26.08l104.44 104.44v-.001c-13.84 10.58-29.47 18.57-46.15 23.58Zm69.3-45.7l-104.68-104.67v0c11.46-13.37 20.87-28.37 27.91-44.5l102.9 102.9v0c-5.79 16.9-14.66 32.58-26.16 46.26Zm33.59-84.08l-99.42-99.42v0c2.46-11.86 3.7-23.93 3.7-36.04 0-3.29-.1-6.55-.28-9.79v0c57.66 20.58 96.18 75.17 96.27 136.4 -.01 2.96-.12 5.91-.29 8.84Z"/></g></svg>