<svg viewBox="0 0 512 512" xmlns="http://www.w3.org/2000/svg"><path d="M345.99 42.019l-166.47 166.46v0c-69.66 69.83-122.41 154.67-154.21 248.04h-.001c-3.1 9.01-.77 18.99 6 25.7l.08.08h0c4.65 4.69 10.99 7.33 17.61 7.34l-.001-.001c2.75-.01 5.49-.46 8.1-1.35l0-.001c93.36-31.81 178.21-84.56 248.04-154.207L471.59 167.61v0c34.69-34.7 34.69-90.94 0-125.63 -34.7-34.7-90.94-34.7-125.63-.01Zm-63.47 269.46v0c-62.92 62.75-138.7 111.11-222.12 141.74l0 0c30.62-83.42 78.98-159.2 141.73-222.12l99.162-99.161 80.37 80.37Zm166.462-166.47l-44.68 44.673 -80.38-80.38 44.67-44.68v0c22.16-22.23 58.14-22.28 80.37-.12 22.22 22.16 22.27 58.14.11 80.37 -.04.03-.08.07-.12.11Z"/></svg>