<svg viewBox="0 0 512 512" xmlns="http://www.w3.org/2000/svg"><path d="M503.78 124.25v-.001c-148.77-104.17-346.81-104.17-495.57 0l-.22.14v27.43L237.76 479.97h36.44L503.97 151.82v-27.45Zm-100.46-18.09L213.96 390.19l-24.08-34.38L362.86 92.57v0c13.71 3.79 27.22 8.33 40.45 13.58ZM286.39 79.27l0 0c14.5 1.08 28.93 2.96 43.23 5.63L170.13 327.6l-26.536-37.9ZM123.95 261.65l-22.8-32.57 97.97-146.96 -.001 0c16.34-2.33 32.81-3.65 49.32-3.95ZM154.7 91.07L81.44 200.95l-41.6-59.42h0c35.37-22.79 74.14-39.82 114.85-50.47Zm101.28 359.14l-22.34-31.9 199.315-298.98 -.001-.001c13.45 6.65 26.53 14.06 39.16 22.17Z"/></svg>