<svg viewBox="0 0 512 512" xmlns="http://www.w3.org/2000/svg"><g><path d="M108 200v0c50.81 0 92-41.19 92-92 0-50.82-41.19-92-92-92 -50.82 0-92 41.18-92 92v0c.05 50.78 41.21 91.94 92 92Zm0-152v0c33.13 0 60 26.86 60 60 0 33.13-26.87 60-60 60 -33.14 0-60-26.87-60-60v0c.03-33.13 26.87-59.97 60-60Z"/><path d="M476.93 38.26v0 0c-29.68-29.68-77.81-29.68-107.48-.001l-5.48 5.47c-21.06 21.05-41.553 43.19-60.93 65.8l-.32.37 -138.83 183.562 -85.36 85.358h0c-18.33-10.53-41.72-4.21-52.24 14.11 -8.62 14.98-6.11 33.88 6.11 46.11l40.52 40.51h0c14.95 14.93 39.18 14.91 54.12-.04 12.2-12.23 14.71-31.11 6.11-46.1l85.24-85.24 179.9-130.76 .84-.66c26.86-22.4 53.03-46.31 77.77-71.049v0c29.63-29.7 29.63-77.78 0-107.48Zm-22.63 84.853c-23.94 23.93-49.25 47.06-75.23 68.76L197.56 323.799 88.83 432.518l15.57 15.57h-.001c2.47 2.41 2.51 6.38.09 8.85 -2.42 2.47-6.39 2.51-8.86.09 -.04-.04-.07-.07-.1-.1L55 416.4h0c-2.45-2.45-2.45-6.41-.01-8.86 2.44-2.45 6.4-2.45 8.85-.01l15.57 15.57 108.62-108.62L327.6 129.94c18.75-21.863 38.58-43.27 58.94-63.63l5.47-5.48v0c17.12-17.25 44.98-17.35 62.22-.23 17.24 17.12 17.34 44.98.22 62.22 -.08.07-.15.14-.23.22Z"/></g></svg>