<svg viewBox="0 0 512 512" xmlns="http://www.w3.org/2000/svg"><path d="M450.27 348.569l-43.67-80.63V183.99c0-83.813-68.19-152-152-152 -83.82 0-152 68.187-152 152v83.945l-43.68 80.62h-.001c-6.32 11.65-1.99 26.22 9.67 32.53 3.51 1.9 7.44 2.89 11.43 2.89h86.935c-.24 2.63-.37 5.3-.37 8h0c0 48.6 39.39 88 88 88 48.6 0 88-39.4 88-88 0-2.7-.13-5.37-.37-8h86.93v0c13.25-.01 23.99-10.75 23.99-24.01 -.01-4-1-7.92-2.9-11.43Zm-139.67 43.43v0c.02 30.92-25.03 56.02-55.96 56.04 -30.93.02-56.03-25.03-56.05-55.96 -.01-2.71.19-5.42.58-8.1H310v0c.38 2.64.57 5.32.58 8Zm-217.138-40l41.13-75.945V183.99l0 0c0-66.28 53.72-120 120-120 66.27 0 120 53.72 120 120v92.05l41.13 75.94Z"/></svg>