<svg viewBox="0 0 512 512" xmlns="http://www.w3.org/2000/svg"><path d="M252.59 496h6.81v0c59.61-.07 107.93-48.39 108-108v-55.7 0c41.99-33.72 66.41-84.68 66.37-138.531 0-98.03-79.76-177.777-177.78-177.777 -98.03 0-177.778 79.751-177.778 177.777h-.001c-.05 53.85 24.37 104.81 66.37 138.531v55.69 0c.06 59.61 48.38 107.93 107.99 108Zm6.81-32h-6.82v0c-31.15-.04-59.13-19.06-70.64-48h148.079 -.001c-11.51 28.94-39.49 47.96-70.632 48Zm76-80H176.58v-40h158.81ZM110.21 193.777C110.21 113.39 175.6 48 255.99 48c80.382 0 145.77 65.4 145.77 145.777v0c-.1 46.52-22.31 90.22-59.82 117.73l-.67.48h-170.6l-.67-.49H170c-37.52-27.52-59.72-71.22-59.813-117.74Z"/></svg>