<svg viewBox="0 0 512 512" xmlns="http://www.w3.org/2000/svg"><g><path d="M426.07 86.928v-.001c-93.24-93.24-244.41-93.24-337.65 0 -93.24 93.23-93.24 244.4-.001 337.644l-.001-.001c93.23 93.23 244.4 93.23 337.64 0 93.23-93.24 93.23-244.41 0-337.644ZM257.24 462.5c-114 0-206.75-92.75-206.75-206.75C50.49 141.74 143.23 49 257.24 49c114 0 206.75 92.74 206.75 206.75 0 114-92.75 206.75-206.75 206.75Z"/><path d="M221.27 305.808l-73.42-73.42L125.22 255l96.04 96.04 167.5-167.499 -22.63-22.63 -144.88 144.87Z"/></g></svg>