<svg viewBox="0 0 512 512" xmlns="http://www.w3.org/2000/svg"><g><path d="M208 80h264v32H208Z"/><path d="M40 96v0c0 35.34 28.65 64 64 64 35.34 0 64-28.66 64-64 0-35.35-28.66-64-64-64v0c-35.33.03-63.97 28.67-64 64Zm64-32v0c17.67 0 32 14.32 32 32 0 17.67-14.33 32-32 32 -17.68 0-32-14.33-32-32v0c.01-17.67 14.33-31.99 32-32Z"/><path d="M208 240h264v32H208Z"/><path d="M104 320v0c35.34 0 64-28.66 64-64 0-35.35-28.66-64-64-64 -35.35 0-64 28.65-64 64v0c.03 35.32 28.67 63.96 64 64Zm0-96v0c17.67 0 32 14.32 32 32 0 17.67-14.33 32-32 32 -17.68 0-32-14.33-32-32v0c.01-17.67 14.33-31.99 32-32Z"/><path d="M208 400h264v32H208Z"/><path d="M104 480v0c35.34 0 64-28.66 64-64 0-35.35-28.66-64-64-64 -35.35 0-64 28.65-64 64v0c.03 35.32 28.67 63.96 64 64Zm0-96v0c17.67 0 32 14.32 32 32 0 17.67-14.33 32-32 32 -17.68 0-32-14.33-32-32v0c.01-17.67 14.33-31.99 32-32Z"/></g></svg>