<svg viewBox="0 0 512 512" xmlns="http://www.w3.org/2000/svg"><g><path d="M474.183 120h-114.19V40h-32v80h-128v32h17.92l6.15 48H111.98h-.001c-44.17.05-79.95 35.83-80 80v16h280v-16 0c.01-12.08-2.73-23.99-8-34.85v0c-9.5-19.55-26.51-34.41-47.16-41.19l-6.67-51.97h187.63l-35.9 280H31.96v32h398.08l40-312h25.92v-32ZM277.258 264H66.73v-.001c6.8-19.17 24.92-31.98 45.25-32h120v0c20.33.02 38.45 12.83 45.25 32Z"/><path d="M304 352l8 0 0-32 -8 0 -120 0 -152 0 0 32 152 0 120 0Z"/><path d="M304 408l8 0 0-32 -8 0 -120 0 -152 0 0 32 152 0 120 0Z"/></g></svg>