<svg viewBox="0 0 512 512" xmlns="http://www.w3.org/2000/svg"><path d="M477.8 140.2l-106-106v0c-24.27-24.26-63.61-24.26-87.87.01 -21.87 21.87-24.32 56.48-5.75 81.22l-4.92 5.53 -97.654 42.9 -42.62-23.03v0c-9.57-5.16-21.4-3.26-28.86 4.63l-41.55 44h-.001c-8.99 9.41-8.77 24.29.47 33.44l101.68 101.67L15.96 473.32v22.62h22.62L187.34 347.18l101.215 101.21v0c9.1 9.15 23.82 9.43 33.27.64l44.42-41.13v0c8.06-7.46 10.03-19.45 4.77-29.1l-23.35-42.86 42.13-90.52 8.6-10.32v0c28.2 19.53 66.91 12.51 86.45-15.7 17.09-24.68 14.09-58.06-7.12-79.3Zm-22.63 65.231v0c-11.77 11.76-30.84 11.76-42.6 0l-16.89-16.89 -33.08 39.678 -50.7 108.93 28.08 51.56 -34.209 31.66L91.18 205.77l32-33.89 50.96 27.54 118.386-52.01 29.17-32.863 -15.16-15.17v0 0c-11.6-11.94-11.32-31.01.62-42.6 11.68-11.36 30.28-11.36 41.97 0l106 106v0c11.76 11.76 11.76 30.83 0 42.6Z"/></svg>