<svg viewBox="0 0 512 512" xmlns="http://www.w3.org/2000/svg"><g><path d="M368 168h-96v-64h176v0c13.24-.02 23.98-10.76 24-24V16h-32v56H264v0c-13.25.01-23.99 10.75-24 24v72h-96v0c-70.66.07-127.93 57.34-128 128v100.95 0c.05 50.26 40.78 90.99 91.04 91.04h1.8v0c27.03.03 52.67-11.98 69.953-32.76l52.7-63.24h48.62l52.666 68.46v0c30.66 39.85 87.82 47.3 127.67 16.64 22.39-17.24 35.52-43.9 35.52-72.16V295.97v0c-.08-70.66-57.35-127.93-128-128Zm96 236.95v-.001c-.01 32.61-26.44 59.04-59.05 59.04 -18.34-.01-35.63-8.52-46.81-23.05l-62.28-80.96h-79.38l-62.3 74.75v0c-11.21 13.47-27.84 21.26-45.37 21.24h-1.8v0c-32.6-.04-59.02-26.46-59.05-59.05V295.95v0c.05-53 43-95.95 96-96h224 -.001c52.99.05 95.94 43 96 96Z"/><path d="M360 248h32v32h-32Z"/><path d="M360 328h32v32h-32Z"/><path d="M320 288h32v32h-32Z"/><path d="M400 288h32v32h-32Z"/><path d="M152 248l-32 0 0 40 -40 0 0 32 40 0 0 40 32 0 0-40 40 0 0-32 -40 0 0-40Z"/></g></svg>