<svg viewBox="0 0 512 512" xmlns="http://www.w3.org/2000/svg"><g><path d="M296 40h32v32h-32Z"/><path d="M368 40h32v32h-32Z"/><path d="M296 440h32v32h-32Z"/><path d="M368 440h32v32h-32Z"/><path d="M440 40h32v32h-32Z"/><path d="M440 105.45h32v33.45h-32Z"/><path d="M440 172.363h32v33.45h-32Z"/><path d="M440 373.091h32v33.45h-32Z"/><path d="M440 239.272h32v33.45h-32Z"/><path d="M440 306.182h32v33.45h-32Z"/><path d="M440 440h32v32h-32Z"/><path d="M40 456v0c0 8.83 7.16 16 16 16h168v24h32V16h-32v24H56v0c-8.84 0-16 7.16-16 16ZM72 72h152v368H72Z"/></g></svg>