<svg viewBox="0 0 512 512" xmlns="http://www.w3.org/2000/svg"><g><path d="M256 104c-83.82 0-152 68.18-152 152 0 83.81 68.18 152 152 152 83.81 0 152-68.19 152-152 0-83.82-68.19-152-152-152Zm0 272v0c-66.28 0-120-53.73-120-120 0-66.28 53.72-120 120-120 66.27 0 120 53.72 120 120v-.001c-.08 66.24-53.76 119.92-120 120Z"/><path d="M240 16h32v48h-32Z"/><path d="M240 448h32v48h-32Z"/><path d="M448 240h48v32h-48Z"/><path d="M16 240h48v32H16Z"/><path d="M400 393.373h32v45.25h-32Z" transform="rotate(-45 416 416)"/><path d="M80 73.37h32v45.25H79.99Z" transform="rotate(-45 96 96)"/><path d="M73.37 400h45.25v32H73.36Z" transform="rotate(-45.001 96.002 416.003)"/><path d="M393.373 80h45.25v32h-45.26Z" transform="rotate(-45 416 96)"/></g></svg>