<svg viewBox="0 0 512 512" xmlns="http://www.w3.org/2000/svg"><path d="M495.82 232v0c-1.09-27.13-7.5-53.77-18.89-78.42v0c-12.4-26.9-29.93-51.11-51.61-71.27 -45.63-42.78-105.77-66.33-169.34-66.33v0C123.43 15.97 15.97 123.43 15.97 255.97c-.01 63.65 25.28 124.69 70.29 169.7v0c93.05 93.05 243.67 93.81 337.67 1.72l-22.4-22.86v0c-38.81 38.19-91.12 59.55-145.57 59.428 -114.691 0-208-93.31-208-208 0-114.7 93.309-208 208-208 112.74 0 208 87.92 208 192v36c0 28.67-25.13 52-56 52 -30.88 0-56-23.33-56-52v-116h-32v26.75 0c-40.47-37.59-103.73-35.25-141.31 5.21 -37.59 40.46-35.25 103.72 5.21 141.3 40.46 37.58 103.72 35.24 141.3-5.22 2.61-2.82 5.06-5.78 7.33-8.88 15.4 24.43 43.46 40.81 75.45 40.81 48.52 0 88-37.69 88-84v-44Zm-243.83 96v0c-37.56 0-68-30.45-68-68 0-37.56 30.44-68 68-68 37.55 0 68 30.44 68 68v0c-.05 37.53-30.47 67.95-68 68Z"/></svg>