<svg viewBox="0 0 512 512" xmlns="http://www.w3.org/2000/svg"><g><path d="M288 496l32 0 0-128 128 0 0-32 -160 0 0 160Z"/><path d="M224 176l0-160 -32 0 0 128 -128 0 0 32 160 0Z"/><path d="M78.7 434.573l-1.28-1.28v-.001c-39.24-39.24-39.25-102.86-.01-142.1 0-.01 0-.01 0-.01l75.2-75.2h-45.26l-52.58 52.57h-.001C3.02 320.28 3.02 404.16 54.76 455.9l1.27 1.27h-.001c51.77 51.65 135.58 51.65 187.35 0l4.57-4.57v-45.26l-27.2 27.2v0c-39.27 39.17-102.83 39.17-142.1-.001Z"/><path d="M457.2 56.08l-1.28-1.28c-51.66-51.655-135.7-51.653-187.36 0l-4.57 4.57v45.25l27.2-27.2 -.001-.001c39.26-39.18 102.83-39.18 142.09 0l1.27 1.27 0 0c39.23 39.23 39.24 102.85 0 142.09 -.01 0-.01 0-.01 0l-75.2 75.2h45.25l52.57-52.58v0c51.73-51.74 51.73-135.62 0-187.35Z"/></g></svg>