<svg viewBox="0 0 512 512" xmlns="http://www.w3.org/2000/svg"><g><path d="M256 496h0C123.45 496 15.99 388.54 15.99 256c-.01-63.66 25.28-124.7 70.29-169.71v-.001c93.72-93.73 245.68-93.73 339.41 0 93.72 93.72 93.72 245.68 0 339.41v0c-44.92 45.15-106.02 70.46-169.71 70.29Zm0-448c-114.691-.001-208 93.3-208 208 0 114.69 93.309 208 208 208 114.69 0 208-93.31 208-208 0-114.7-93.31-208-208-208Z"/><path d="M284.687 379.313l-123.32-123.32 123.31-123.32 22.62 22.62 -100.69 100.68 100.68 100.68 -22.63 22.62Z"/></g></svg>