<svg viewBox="0 0 512 512" xmlns="http://www.w3.org/2000/svg"><g><path d="M256 95.99h34.92v34.92h-34.93Z"/><path d="M16 496h480V16H16ZM48 48h416v416H48Z"/><path d="M285.313 359.03v0c-3.25 5.54-9.18 8.95-15.6 8.96v0c-9.98-.01-18.07-8.09-18.07-18.07 0-1.73.24-3.45.73-5.1l35.67-121.28v0c7.74-26.27-7.28-53.83-33.55-61.57 -24.32-7.17-50.12 5.16-59.82 28.57l-11.72 28.23 29.55 12.26 11.71-28.24v-.001c3.7-8.98 13.98-13.25 22.95-9.55 8.32 3.43 12.7 12.6 10.14 21.24l-35.67 121.27h-.001c-7.81 26.52 7.37 54.35 33.9 62.15 4.58 1.34 9.34 2.03 14.12 2.03v-.001c17.8-.04 34.25-9.49 43.25-24.86l15.1-25.92 -27.65-16.12Z"/></g></svg>