<svg viewBox="0 0 512 512" xmlns="http://www.w3.org/2000/svg"><g><path d="M511.974 271.89h-.001c-.39-12.51-5.67-24.36-14.71-33.01L311.56 57.97l0-.001c-5.63-5.62-13.26-8.76-21.2-8.74h-33.15l217.75 212.6 .09.08v0c6.31 5.98 6.64 15.94.74 22.33l-156.4 173.35 21.95 21.35 158.07-173.14h0c8.47-9.24 12.96-21.44 12.52-33.96Z"/><path d="M426.9 283.161h-.001c3.11-8.58 1.08-18.17-5.24-24.75 -.11-.12-.2-.24-.31-.34L224.289 57.7l-.1-.1v0c-5.99-6.03-14.14-9.4-22.63-9.38H60.15h0c-24.4.02-44.17 19.79-44.2 44.19v141.1 0c.01 8.8 3.64 17.22 10.04 23.28l210.32 200.2 .07.07 -.001-.001c4.43 4.19 10.3 6.52 16.4 6.5q.44 0 .9-.02v0c2.29-.09 4.56-.5 6.74-1.22h0c3.84-1.29 7.3-3.53 10.04-6.52l151.44-164.63v0c2.15-2.34 3.82-5.09 4.91-8.08ZM252.5 428.2L48.07 233.612l-.08-.08V92.43v0c0-6.74 5.46-12.19 12.19-12.2h141.39l191.7 194.91Z"/><path d="M140 112v0c-28.72 0-52 23.28-52 52 0 28.71 23.28 52 52 52 28.71 0 52-23.29 52-52v0c-.04-28.71-23.3-51.97-52-52Zm0 72v0c-11.05 0-20-8.96-20-20 0-11.05 8.95-20 20-20 11.04 0 20 8.95 20 20v0c-.02 11.04-8.96 19.98-20 20Z"/></g></svg>