<svg viewBox="0 0 512 512" xmlns="http://www.w3.org/2000/svg"><path d="M445.057 345.134l18.94-71.04v-42.1c-8.14-93.993-87.94-168-184-168h-32v168H132.14l-17.85-78.768h0c-3.24-14.7-16.24-25.18-31.28-25.232H15.97v32H83.01l40.47 178.67v0c-42.71 11.31-68.16 55.1-56.85 97.81 11.31 42.7 55.1 68.15 97.81 56.84 35.08-9.3 59.51-41.05 59.51-77.34q0-4.05-.4-8h104.8q-.4 3.94-.4 8v0c-.02 44.18 35.78 80.01 79.96 80.03 44.18.01 80.01-35.79 80.03-79.97 .01-29.8-16.54-57.14-42.95-70.94ZM279.997 95.99c78.411 0 143.14 59.678 151.164 136H279.997Zm-136 368v0c-26.51 0-48-21.5-48-48 0-26.51 21.49-48 48-48 26.5 0 48 21.49 48 48v-.001c-.04 26.49-21.51 47.96-48 48Zm194.76-88h-125.53v0c-12.19-21.06-33.27-35.45-57.316-39.11l-16.52-72.9H431.98v5.9l-17.7 66.36c-2.09-.17-4.18-.28-6.3-.28v0c-28.57.02-54.96 15.26-69.24 40Zm69.23 88v0c-26.51 0-48-21.5-48-48 0-26.51 21.49-48 48-48 26.5 0 48 21.49 48 48v-.001c-.04 26.49-21.51 47.96-48 48Z"/></svg>