<svg viewBox="0 0 512 512" xmlns="http://www.w3.org/2000/svg"><g><path d="M472 40H40v0c-13.25.01-23.99 10.75-24 24v384 0c.01 13.24 10.75 23.98 24 24h432 -.001c13.24-.02 23.98-10.76 24-24V64v0c-.02-13.25-10.76-23.99-24-24Zm-8 400H48V72h416Z"/><path d="M152 240l32 0 0-40 40 0 0-32 -40 0 0-40 -32 0 0 40 -40 0 0 32 40 0 0 40Z"/><path d="M196.284 285.08l-28.29 28.28 -28.29-28.29 -22.63 22.62 28.28 28.28 -28.29 28.28 22.62 22.62 28.28-28.29 28.28 28.28 22.62-22.63 -28.29-28.29 28.28-28.29 -22.63-22.63Z"/><path d="M288 168h112v32H288Z"/><path d="M288 288h112v32H288Z"/><path d="M288 352h112v32H288Z"/></g></svg>