<svg viewBox="0 0 512 512" xmlns="http://www.w3.org/2000/svg"><path d="M56 256v240h400V256v0c-.04-26.5-21.51-47.97-48-48h-86.62l13.07-106.263 .06-.68v0c3.47-43.37-28.88-81.34-72.25-84.81 -43.37-3.48-81.34 28.87-84.81 72.24 -.34 4.18-.34 8.38 0 12.56l.02.33 13.11 106.6h-86.62l-.001-.001c-26.5.03-47.97 21.5-48 48Zm368 208H88V320h336ZM226.8 240L209.34 98.19v-.001c-1.91-25.77 17.44-48.2 43.2-50.1 25.76-1.91 48.19 17.44 50.09 43.2 .16 2.29.16 4.59 0 6.88L285.18 239.97h122.79v0c8.83.01 15.98 7.16 16 16v32h-336v-32 0c.01-8.84 7.16-15.99 16-16Z"/></svg>