<svg viewBox="0 0 512 512" xmlns="http://www.w3.org/2000/svg"><g><path d="M242.918 16.17h-42.37v88h-48.56v0c-53.45.05-101.92 31.34-123.98 80.02l0-.001c-7.96 15.93-12.08 33.5-12.03 51.3v260.66h52.14l49.6-177.76h-.001c10.34-36.75 43.82-62.16 81.99-62.25h.81v88h41.78l164.29-164.29Zm-10.37 292.527v-84.53h-32.82v-.001c-52.52.12-98.58 35.09-112.82 85.64l-38.93 139.5V235.49h0c-.04-12.95 2.97-25.72 8.78-37.28l.29-.62 0-.001c16.81-37.36 53.95-61.4 94.92-61.45h80.55V51.04L361.32 179.85Z"/><path d="M330.91 15.5l-43.41 0 164.373 164.37 -163.63 163.62 42.08 0L494.61 179.2 330.9 15.49Z"/></g></svg>