<svg viewBox="0 0 512 512" xmlns="http://www.w3.org/2000/svg"><path d="M445.646 241.836V68v0c0-4.42-3.59-8-8-8v0c-33.08-.01-59.9 26.8-59.9 59.88 -.01 0-.01 0-.01 0v41.929l-8.64 8.64 -69.928-69.929v-.001c-6.99-6.97-17.67-8.64-26.45-4.14l-56.2-56.2v0c-10.94-10.94-28.67-10.94-39.6-.01 -.01 0-.01 0-.01 0v0 0c-9.81 9.8-10.96 25.3-2.72 36.45v.43l-19.92-19.92v0c-10.94-10.94-28.67-10.94-39.6 0 -10.94 10.93-10.94 28.66 0 39.6l22.62 22.62v0c-10.94-10.94-28.67-10.94-39.6-.001 -10.94 10.93-10.94 28.66-.001 39.6l28.28 28.28v0c-10.94-10.94-28.67-10.94-39.6-.01 -.01 0-.01 0-.01 0v0 -.001c-10.94 10.93-10.94 28.66-.01 39.59 0 0 0 0 0 0l14.14 14.14 2.55 2.55v0c-16.96 6.15-28.26 22.25-28.28 40.3v2.02 0c-.01 3.83.5 7.65 1.52 11.34v0c-20.91 3.23-36.34 21.21-36.36 42.37v2.03 0c.02 21.15 15.46 39.13 36.36 42.36v-.001c-1.02 3.69-1.53 7.51-1.53 11.34v2.03 0c.02 23.65 19.2 42.82 42.85 42.85h14.28v0c-.93 3.54-1.4 7.19-1.4 10.85v2.03 0c.02 23.65 19.19 42.82 42.85 42.85h149.1l139.67-31.04V256.76Zm-15.43 197.45l-111.19 24.7h-144.58v0c-6.55-.01-11.86-5.31-11.88-11.86v-.04 0c.01-6.55 5.32-11.85 11.87-11.86h90.588v-32H118.69h0c-6.56 0-11.88-5.32-11.88-11.88 -.01-6.56 5.31-11.88 11.87-11.88 0 0 0 0 0 0h146.33v-32H83.83v0c-6.56-.01-11.88-5.32-11.88-11.88 0-6.56 5.31-11.88 11.87-11.88H265v-32H117.65v0c-6-.01-10.86-4.87-10.86-10.87v-2.04 -.001c0-6 4.86-10.85 10.85-10.86h216.52v-48.76L288 178.01v-.001c-12.8-12.84-14.69-32.95-4.49-47.93l82.94 82.94 .26.27 63.428 57.66Z"/></svg>