<svg viewBox="0 0 512 512" xmlns="http://www.w3.org/2000/svg"><g><path d="M68.32 383.063h-.001c-5.78-9.95-5.7-22.25.2-32.12l50.88-86.41 11.51 50.76 31.2-7.08 -23.89-105.28L32.94 226.81l7.08 31.2 53.14-12.06 -52.26 88.73h0c-17.94 30.45-7.79 69.68 22.67 87.62 9.84 5.79 21.05 8.85 32.47 8.85h82.43l32-32H96.035v0c-11.51.07-22.14-6.1-27.79-16.12Z"/><path d="M283.379 79.762l53.74 91.268 -49.053-7.66 -4.94 31.61 106.66 16.64 16.64-106.66 -31.62-4.94 -8.88 56.87 -55-93.39v0c-17.94-30.46-57.17-40.62-87.63-22.68 -9.37 5.51-17.17 13.31-22.68 22.67l-39.94 67.82 10.4 45.39 57.1-96.972v0c8.96-15.23 28.58-20.31 43.81-11.34 4.67 2.75 8.58 6.65 11.33 11.33Z"/><path d="M470.65 334.707l-47.87-81.29 -41.15-6.82 61.44 104.33v0c8.96 15.22 3.89 34.84-11.34 43.81 -4.93 2.89-10.53 4.42-16.24 4.42H304.03l38.35-38.36 -22.63-22.625 -76.34 76.332 76.33 76.33 22.62-22.63 -37.06-37.06h110.14v0c35.34 0 64-28.66 64-64 0-11.43-3.06-22.64-8.86-32.48Z"/></g></svg>