<svg viewBox="0 0 512 512" xmlns="http://www.w3.org/2000/svg"><g><path d="M40 496h432 -.001c13.24-.02 23.98-10.76 24-24v-72 0c-.02-13.25-10.76-23.99-24-24h-432v0c-13.25.01-23.99 10.75-24 24v72l-.001-.001c.01 13.24 10.75 23.98 24 24Zm8-88h416v56H48Z"/><path d="M45.01 239.489l-.001-.001c-6.87 26.86 9.33 54.2 36.2 61.07l158.5 40.524v0 0c26.84 6.87 54.17-9.31 61.05-36.16 0-.02 0-.04.01-.05l52.96-207.14L97.94 32.33 85.93 79.3l-58-14.83 -7.93 31 58 14.82ZM121.04 71.281l193.76 49.54L294.55 200H88.12ZM286.385 232l-16.61 64.95v0c-2.5 9.73-12.41 15.6-22.15 13.125v0l-158.5-40.53h0c-9.74-2.5-15.61-12.41-13.13-22.14l3.98-15.6v.18Z"/><path d="M420 352c37.5 0 68-32.3 68-72 0-16.19-9.35-38.52-28.56-68.28 -13.29-20.58-26.39-37.03-26.95-37.72l-12.5-15.65 -12.5 15.64c-.56.69-13.66 17.13-26.95 37.71 -19.22 29.76-28.56 52.09-28.56 68.27 0 39.7 30.5 72 68 72Zm0-141.441c17.65 24.64 36 55.42 36 69.441 0 22.05-16.149 40-36 40s-36-17.95-36-40c0-14.02 18.34-44.8 36-69.441Z"/></g></svg>