<svg viewBox="0 0 512 512" xmlns="http://www.w3.org/2000/svg"><g><path d="M111.48 107.82a34.08 34.08 0 1 0 0 68.17 34.08 34.08 0 1 0 0-68.18Z"/><path d="M192 296h-3.05l-34.91-96H82.27v96H15.99v152 0c.02 26.49 21.5 47.97 48 48h384v0c26.49-.03 47.97-21.51 48-48V296Zm272 152v0c-.02 8.83-7.17 15.98-16 16H64v0c-8.84-.02-15.99-7.17-16-16V328h416Z"/><path d="M296 216l0 0c-.01-8.17 4.85-15.54 12.36-18.75l11.88-5.1v0c26.59-11.41 38.91-42.21 27.51-68.81 -5.3-12.37-15.16-22.22-27.52-27.52l-11.89-5.1v0c-7.51-3.21-12.37-10.59-12.37-18.75v-40h-32v40 -.001c-.02 20.96 12.48 39.91 31.75 48.16l11.88 5.09v-.001c10.35 4.43 15.15 16.43 10.71 26.78 -2.07 4.81-5.9 8.64-10.72 10.71l-11.89 5.09v0c-19.28 8.24-31.78 27.19-31.76 48.15v48h32Z"/><path d="M408 216l0 0c-.01-8.17 4.85-15.54 12.36-18.75l11.88-5.1v0c26.59-11.41 38.91-42.21 27.51-68.81 -5.3-12.37-15.16-22.22-27.52-27.52l-11.89-5.1v0c-7.51-3.21-12.37-10.59-12.37-18.75v-40h-32v40 -.001c-.02 20.96 12.48 39.91 31.75 48.16l11.88 5.09v0c10.35 4.43 15.15 16.43 10.71 26.78 -2.07 4.81-5.9 8.64-10.72 10.71l-11.89 5.09h-.001c-19.28 8.24-31.78 27.19-31.76 48.15v48h32Z"/><path d="M96 360h32v72H96Z"/><path d="M192 360h32v72h-32Z"/><path d="M288 360h32v72h-32Z"/><path d="M384 360h32v72h-32Z"/></g></svg>