<svg viewBox="0 0 512 512" xmlns="http://www.w3.org/2000/svg"><g><path d="M78.46 253.83l52.52 43.27 6.26 14.27 -8.32 68.61 67.74-6.54 14.52 5.66 42.64 54.4 43.28-52.53 14.27-6.26 68.61 8.31 -6.54-67.75 5.66-14.52 54.4-42.65 -52.53-43.28 -6.26-14.28 8.31-68.618 -67.75 6.53 -14.52-5.67 -42.65-54.4 -43.28 52.52 -14.28 6.26 -68.62-8.32 6.53 67.74 -5.67 14.52Zm81.02-22.86l11.62-29.79 -3.45-35.709 37.77 4.57 29.28-12.84 22.81-27.69 23.47 29.95 29.77 11.62 35.71-3.45 -4.58 37.78 12.83 29.28 27.68 22.81 -29.96 23.47 -11.63 29.77 3.44 35.71 -37.79-4.58 -29.28 12.83 -22.82 27.68 -23.48-29.95 -29.78-11.63 -35.72 3.44 4.57-37.79 -12.84-29.28 -27.69-22.82Z"/><path d="M472 16H40v0c-13.25.01-23.99 10.75-24 24v432 -.001c.01 13.24 10.75 23.98 24 24h432 -.001c13.24-.02 23.98-10.76 24-24v-432 0c-.02-13.25-10.76-23.99-24-24Zm-8 448H48V48h416Z"/></g></svg>