<svg viewBox="0 0 512 512" xmlns="http://www.w3.org/2000/svg"><g><path d="M224 113.88v0c-.03-21.8 9.65-42.48 26.42-56.42v0c3.22-2.7 7.92-2.7 11.15 0v0c16.76 13.93 26.45 34.61 26.42 56.41v92l165.914 82.957 -2.68 13.35 -86.94-11.34 37.11 37.11 75.33 9.82 13.32-66.65L319.95 186.07v-72.23 0c.03-31.31-13.87-61-37.94-81v-.001c-15.1-12.59-37.03-12.59-52.13 0h0c-24.08 20-37.98 49.69-37.94 81v4.67l32 32Z"/><path d="M38.51 16H16.022v22.655l156.971 156.95L21.9 271.145l13.32 66.64 157.189-20.5 7.73 81.22 -72.167 30.92v66.55h256v-66.55l-72.17-30.93 5.57-58.51 155.99 155.986h22.6v-22.55Zm313.483 434.55V464h-192v-13.45l74.238-31.82 -10.238-107.493v-30.34L60.75 302.18l-2.68-13.36 138.762-69.381 91.15 91.14v.62L277.74 418.69Z"/></g></svg>