<svg viewBox="0 0 512 512" xmlns="http://www.w3.org/2000/svg"><g><path d="M132 139.824v0c34.19 0 61.91-27.72 61.91-61.92s-27.72-61.92-61.92-61.92 -61.92 27.71-61.92 61.91h-.001c.03 34.17 27.73 61.87 61.91 61.91Zm0-91.83v0c16.51 0 29.91 13.39 29.91 29.91 0 16.51-13.4 29.91-29.92 29.91 -16.52 0-29.92-13.4-29.92-29.92v0c.01-16.52 13.4-29.9 29.91-29.92Z"/><path d="M176 152H88v0c-26.5.02-47.98 21.5-48 48v152h32v144h120V352h32V200v0c-.03-26.5-21.51-47.98-48-48Zm16 168h-32v144h-56V320H72V200v0c.01-8.84 7.16-15.99 16-16h88 0c8.83.01 15.98 7.16 16 16Z"/><path d="M370.08 139.824v0c34.19 0 61.91-27.72 61.91-61.92s-27.72-61.92-61.92-61.92 -61.92 27.71-61.92 61.91h-.001c.03 34.17 27.73 61.87 61.91 61.91Zm0-91.83v0c16.51 0 29.91 13.39 29.91 29.91 0 16.51-13.4 29.91-29.92 29.91 -16.52 0-29.92-13.4-29.92-29.92v0c.01-16.52 13.4-29.9 29.91-29.92Z"/><path d="M425.759 193.35v0c-11.18-32.13-46.28-49.11-78.4-37.94 -17.29 6.01-31.01 19.4-37.44 36.54l-61.93 165.13v42.9h64v96h104v-96h64v-50.7Zm22.24 174.64h-64v96h-40v-96h-64v-5.1l59.88-159.7v0c5.73-15.3 22.78-23.06 38.08-17.32 8.23 3.08 14.66 9.67 17.55 17.98l52.46 150.831Z"/></g></svg>