<svg viewBox="0 0 512 512" xmlns="http://www.w3.org/2000/svg"><g><path d="M457.47 55.83C404.44 2.8 318.16 2.8 265.13 55.83l-96.17 96.167 22.62 22.62 96.16-96.167v0c40.61-40.62 106.46-40.62 147.07 0 40.61 40.61 40.61 106.46-.01 147.07l-96.17 96.16 22.62 22.62 96.16-96.167c53.03-53.03 53.03-139.31 0-192.34Z"/><path d="M225.53 434.843v0c-40.62 40.61-106.47 40.61-147.08 0v0 -.001c-40.62-40.62-40.62-106.47-.001-147.08l90.511-90.52 -22.63-22.63 -90.52 90.51h0C2.57 318.1 2.36 404.21 55.35 457.45c52.98 53.23 139.09 53.44 192.33.45 .15-.16.3-.31.45-.46l90.51-90.51 -22.63-22.63Z"/><path d="M93.82 243.48h320v32h-320Z" transform="rotate(-45 253.823 259.48)"/></g></svg>