<svg viewBox="0 0 512 512" xmlns="http://www.w3.org/2000/svg"><g><path d="M473.274 47.13l-2.27-4.189 -4.19-2.27c-49.97-27.043-112.06-34.513-174.82-21.034 -63.85 13.71-123.79 47.15-173.34 96.7 -49.548 49.54-82.987 109.48-96.7 173.33 -13.48 62.76-6.01 124.84 21.03 174.81l2.26 4.18 4.189 2.26c33.72 18.25 72.951 27.58 114.19 27.58h0c20.38-.05 40.7-2.24 60.62-6.56 63.84-13.72 123.78-47.16 173.33-96.7 49.548-49.55 82.99-109.49 96.7-173.337 13.48-62.77 6.01-124.86-21.04-174.816Zm-25.92 19.46c19.78 38.85 25.84 83.807 19.4 129.52L317.82 47.185c45.71-6.44 90.67-.38 129.52 19.4ZM68.91 445.023c-20.21-39.69-26.1-85.73-18.97-132.46L201.36 463.98c-46.73 7.125-92.77 1.23-132.452-18.97Zm306.059-72.38v0c-40.44 40.43-88.12 68.589-136.67 83.03L58.24 275.615c14.44-48.55 42.6-96.23 83.03-136.67 41.15-41.16 89.81-69.59 139.26-83.79L458.74 233.36c-14.21 49.44-42.64 98.1-83.79 139.25Z"/><path d="M347.313 187.313l-22.63-22.63 -20.69 20.68 -28.69-28.69 -22.63 22.62 28.68 28.68 -25.38 25.37 -28.69-28.69 -22.63 22.62 28.68 28.68 -25.38 25.37 -28.69-28.69 -22.63 22.62 28.68 28.68 -20.69 20.68 22.62 22.62 20.68-20.69 28.68 28.68 22.62-22.63 -28.69-28.69 25.37-25.38 28.68 28.68 22.62-22.63 -28.69-28.69 25.37-25.38 28.68 28.68 22.62-22.63 -28.69-28.69 20.68-20.69Z"/></g></svg>