<svg viewBox="0 0 512 512" xmlns="http://www.w3.org/2000/svg"><g><path d="M110.763 110.76l-22.7-22.7c-.1.1-.2.18-.29.28v-.001c-92.87 92.86-93.18 243.32-.7 336.573l22.7-22.7 0 0c-80.19-80.77-79.75-211.24.98-291.47Z"/><path d="M425.06 88.348c-.4-.4-.82-.8-1.23-1.2l-22.7 22.7 0 0c81.26 79.73 82.5 210.25 2.77 291.51 -.43.42-.85.85-1.28 1.28l22.7 22.7h-.001c92.87-93.19 92.74-243.98-.29-337Z"/><path d="M153.523 153.52l0-.001c-57.08 56.62-57.52 148.77-.99 205.94l22.61-22.62h0c-44.02-44.69-43.58-116.57.98-160.71Z"/><path d="M335.77 175.22v-.001c45.15 43.71 46.32 115.75 2.61 160.91 -.37.38-.74.75-1.12 1.13l22.62 22.62v0c56.83-57.01 56.69-149.29-.32-206.12 -.4-.4-.79-.79-1.19-1.17Z"/><path d="M294.76 216.23l-.001-.001c-22.53-21.13-57.91-20-79.04 2.52 -21.13 22.52-20 57.9 2.52 79.03 22.52 21.12 57.9 19.99 79.03-2.53 9.72-10.37 15.14-24.06 15.13-38.28v-.001c.01-15.45-6.39-30.21-17.66-40.76Zm-38.35 64.75v0c-13.26 0-24-10.75-24-24 0-13.26 10.74-24 24-24 13.25 0 24 10.74 24 24v0c-.001 13.25-10.75 24-24 24Z"/></g></svg>