<svg viewBox="0 0 512 512" xmlns="http://www.w3.org/2000/svg"><g><path d="M126.63 202.67H51.97v0c-11.66-.06-21.77 8.04-24.25 19.43l-.001 0c-15.25 67.94-15.75 138.37-1.47 206.53l1.5 7.18 0 0c2.43 11.5 12.56 19.74 24.31 19.78h74.54v0c13.71-.02 24.82-11.13 24.83-24.84V227.48v-.001c-.02-13.72-11.13-24.83-24.85-24.84Zm-7.17 220.93H57.9l-.31-1.49h0c-12.96-61.82-12.91-125.66.15-187.46h61.71Z"/><path d="M494.45 277.284l-22.09-58.91v0c-3.57-9.43-12.59-15.68-22.67-15.71H331.98v-29.54l9.57-21.2v0c20.02-44.36.31-96.55-44.05-116.58 -.26-.12-.51-.23-.76-.34V35c-12.12-5.28-26.24.09-31.77 12.1l-80.32 175.81v25.06h23.73L290.65 67.85v0c24.02 14.81 33.32 45.15 21.71 70.88l-11 24.34 -1.42 6.58v48.98l16 16h128.3l19.7 52.52v9.27l-67.99 119.49H271l-86.38-50.67v37.1l72 42.24v0c3.71 2.17 7.94 3.32 12.25 3.32h131.6v0c8.69-.01 16.72-4.68 21.03-12.24l71.25-125.23v0c2.07-3.65 3.16-7.78 3.16-11.97v-12.75h0c0-2.91-.53-5.79-1.55-8.5Z"/></g></svg>