<svg viewBox="0 0 512 512" xmlns="http://www.w3.org/2000/svg"><g><path d="M412.284 294.37l-12.5 15.64c-8.36 10.45-50.03 64.2-50.03 95.88 0 36.45 28.04 66.1 62.52 66.1 34.47 0 62.52-29.66 62.52-66.11 0-31.68-41.673-85.43-50.03-95.89Zm0 145.63c-16.84 0-30.53-15.3-30.53-34.11 0-11.67 15.48-37.89 30.53-59.2 15.04 21.3 30.52 47.5 30.52 59.2 0 18.8-13.7 34.1-30.53 34.1Z"/><path d="M122.66 51.49l-26.536 72.908 -66.041-27.2 -12.19 29.595 67.271 27.7 -58.28 160.106h-.001c-9.04 24.9 3.79 52.43 28.68 61.52l184.71 67.23v0c24.91 9.06 52.45-3.78 61.52-28.69 0-.01 0-.01 0-.01l95.76-263.113Zm149.1 352.236v0c-3.03 8.3-12.21 12.58-20.51 9.56 -.01-.01-.01-.01-.01-.01L66.51 346.036l-.001 0c-8.31-3.03-12.59-12.21-9.57-20.51l16.57-45.56h243.24ZM85.19 247.996l29.59-81.311 36.33 14.96v0c2.76 17.81 19.44 30.01 37.26 27.25 17.81-2.77 30.01-19.45 27.25-37.27 -2.77-17.82-19.45-30.02-37.27-27.26 -5.91.91-11.45 3.43-16.02 7.28l-36.62-15.08 16.04-44.09 214.79 78.177 -28.59 78.53v-1.22Z"/></g></svg>