<svg viewBox="0 0 512 512" xmlns="http://www.w3.org/2000/svg"><g><path d="M256 16.04c-132.548 0-240 107.45-240 240 0 132.54 107.452 240 240 240s240-107.452 240-240c0-132.55-107.452-240-240-240Zm147.07 387.07v0c-81.07 80.81-212.29 80.61-293.1-.45 -80.82-81.07-80.62-212.29.44-293.1 81.06-80.82 212.28-80.62 293.09.44 59.47 59.65 76.92 149.37 44.14 226.97l0-.001c-10.45 24.71-25.59 47.17-44.59 66.12Z"/><path d="M272.61 164.98l-22.63-22.63 -113.69 113.68 113.68 113.68 22.62-22.63 -75.054-75.06 187.44 0 0-32 -187.44 0 75.054-75.06Z"/></g></svg>