<svg viewBox="0 0 512 512" xmlns="http://www.w3.org/2000/svg"><g><path d="M224 144v0c35.34 0 64-28.66 64-64 0-35.35-28.66-64-64-64 -35.35 0-64 28.65-64 64v0c.03 35.32 28.67 63.96 64 64Zm0-96v0c17.67 0 32 14.32 32 32 0 17.67-14.33 32-32 32 -17.68 0-32-14.33-32-32v0c.01-17.67 14.33-31.99 32-32Z"/><path d="M353.959 251.37c-15.03-16.9-35.07-27.66-62.61-33.506l-24.8-57.87H178.12L151.99 342.85v57.137h56v96h96v-96h80v-48c0-44.98-9.83-77.89-30.05-100.63ZM351.999 368h-80v96h-32v-96h-56v-22.863L205.86 192h39.572l23.29 54.34 8.62 1.43c24.5 4.08 41.23 11.97 52.67 24.84 14.77 16.62 21.95 42.58 21.95 79.37Z"/></g></svg>