<svg viewBox="0 0 512 512" xmlns="http://www.w3.org/2000/svg"><g><path d="M468.28 106.1C394.88 57.14 325.5 32.91 256.2 32.024c-70.18-.87-139.406 20.69-211.666 66.031v0c-14.73 9.14-19.43 28.39-10.58 43.3l194.586 331.51h0c5.67 9.78 16.13 15.8 27.44 15.8h.16v-.001c11.25.05 21.69-5.86 27.43-15.54L477.93 149.17l-.001-.001c8.81-14.65 4.55-33.63-9.68-43.1Zm-17.77 26.62L256.14 456.672 61.53 125.15c65.56-41.14 127.9-61.162 190.46-61.162q1.89 0 3.78.02c62.93.81 126.63 23.28 194.73 68.7Z"/><path d="M223.57 231.48h0c-2.66-15.09-17.03-25.17-32.12-22.52 -15.09 2.65-25.17 17.02-22.52 32.11 2.65 15.08 17.02 25.16 32.11 22.51 0-.01 0-.01 0-.01v0c15.08-2.66 25.15-17.04 22.5-32.113Z"/><path d="M307.73 256.031a27.73 27.73 0 1 0 0 55.46 27.73 27.73 0 1 0 0-55.47Z" transform="rotate(-40.627 307.731 283.76)"/><path d="M232 316.78h32v62.48h-32.01Z" transform="rotate(-50.194 248.003 348.028)"/><path d="M253.824 180.026h68.35v32h-68.36Z" transform="rotate(-20.556 288.002 196.026)"/><path d="M120.5 181.58C153.78 160.69 205.04 136 261.31 136q1.23 0 2.47.01c46.87.6 89.87 15 135.329 45.31l17.75-26.63c-50.83-33.893-99.34-50-152.671-50.688 -65.06-.81-123.29 26.973-160.71 50.44Z"/></g></svg>