<svg viewBox="0 0 512 512" xmlns="http://www.w3.org/2000/svg"><g><path d="M240.8 293.82l-23.851 23.85 23.8 47.6 23.417-24.72 -23.37-46.74Z"/><path d="M255.978 395.73l22.29 44.6 23.41-24.72 -22.3-44.6 -23.42 24.71Z"/><path d="M438.926 202.62l-23.13 24.41 44.42 21.24 23.12-24.42 -44.43-21.25Z"/><path d="M342.603 192.024l42.86 20.49 23.12-24.411 -42-20.09 -24 23.99Z"/><path d="M307.78 341.04l28.52 38.03 22.32-23.57 -28.53-38.04 -22.33 23.56Z"/><path d="M310.633 291.51l-28.94-38.59 -22.86 22.857 29.46 39.29 22.32-23.57Z"/><path d="M300.74 233.88l36.68 29.34 22.08-23.32 -36.01-28.81 -22.77 22.76Z"/><path d="M362.501 283.29l36.72 29.37 22.08-23.32 -36.73-29.38 -22.09 23.31Z"/><path d="M348.687 100.68l-26.24 26.23 -24.72-24.72v-.001c-43.59-43.59-114.26-43.59-157.84-.01 -.01 0-.01 0-.01 0 -.35.34-.68.68-1.01 1.03h0c-35.21-24.81-83.85-16.37-108.66 18.83 -9.27 13.14-14.24 28.83-14.23 44.9v241.01h32V166.92l-.001-.001c-.01-25.4 20.58-45.98 45.97-45.98 9.31-.01 18.4 2.82 26.07 8.1v-.001c-22.73 43.28-14.69 96.31 19.842 130.92l24.71 24.71 -23.92 23.92 20 20 208-208ZM185.006 259.9l-22.49-22.49 -.001-.001c-30.91-31.28-30.62-81.68.66-112.59 31.01-30.65 80.9-30.66 111.92-.01l22.48 22.49Z"/></g></svg>