<svg viewBox="0 0 512 512" xmlns="http://www.w3.org/2000/svg"><path d="M29.66 482.25l.08.08v0c4.65 4.69 10.99 7.33 17.612 7.34v0c2.75-.01 5.49-.46 8.1-1.35l142.006-48.18 272.5-272.5v-.001c34.68-34.7 34.68-90.94-.01-125.63 -34.7-34.69-90.94-34.69-125.63 0L71.81 314.5 23.64 456.51h-.001c-3.1 9.01-.77 18.99 5.99 25.7Zm337.3-417.584v0c22.27-22.11 58.26-21.98 80.37.3 21.98 22.15 21.98 57.9-.01 80.06l-35.84 35.834 -80.38-80.38ZM99.74 331.884L308.49 123.12l80.37 80.37 -208.76 208.75 -121.64 41.262Z"/></svg>