<svg viewBox="0 0 512 512" xmlns="http://www.w3.org/2000/svg"><g><path d="M277.139 85.41l-8.43 31.021v-.001c62.48 10.45 112.25 58 125.55 119.956l31.92-3.6 0-.001c-14.79-75.03-73.86-133.44-149.048-147.38Z"/><path d="M422.06 89.93v-.001c-34.8-34.98-79.14-58.91-127.47-68.793l-8.43 31c88.46 17.4 158.108 87.87 174.267 176.767l31.9-3.6v-.001c-8.8-51.34-33.36-98.66-70.29-135.38Z"/><path d="M233.106 148.75q-1.58-.03-3.15 0v0c-68.08.62-122.94 55.99-122.94 124.07h32.23v0c0-50.46 40.6-91.53 91.06-92.09q1.05-.01 2.1 0c49.72.69 90.45 41.72 90.774 91.46v0c.27 25.45-10.11 49.86-28.62 67.33v0c-4.73 4.52-7.41 10.78-7.41 17.33v50.68 0c-.04 31.15-25.28 56.4-56.44 56.44h-8.64v32h8.86 -.001c48.81-.06 88.37-39.62 88.43-88.44v-47.32 -.001c23.22-23.48 36.18-55.22 36.02-88.24v0c-.64-67.45-54.89-122.12-122.33-123.26Z"/><path d="M283.14 272.83v0c.12-28.74-23.07-52.14-51.81-52.26 -28.74-.13-52.14 23.06-52.26 51.8 -.01.15-.01.3 0 .45h32v0c-.08-11.07 8.82-20.1 19.88-20.18 11.06-.08 20.09 8.82 20.17 19.88 0 .09 0 .18 0 .28Z"/><path d="M216 304h32v32h-32Z"/><path d="M112 408h32v32h-32Z"/><path d="M162.96 310.812h31.99v124.45h-32Z" transform="rotate(-45 178.963 373.037)"/></g></svg>