<svg viewBox="0 0 512 512" xmlns="http://www.w3.org/2000/svg"><g><path d="M466.27 47.94v0c-31.21-31.2-80.98-33.68-115.13-5.72v0c-21.09-7.43-43.29-11.21-65.65-11.18v0C146.72 31.03 34.22 143.53 34.22 282.3c-.001 0 0 0 0 0l0 0c-.04 22.35 3.74 44.55 11.17 65.64h0c-30.05 36.69-24.65 90.8 12.05 120.84 31.63 25.89 77.14 25.89 108.78-.01v0c21.08 7.42 43.28 11.2 65.64 11.17h0c138.76-.01 251.26-112.5 251.26-251.27h-.001c.03-22.36-3.75-44.57-11.18-65.65v0c27.9-34.17 25.42-83.9-5.73-115.118ZM438.69 165.55v0c8.27 20.02 12.5 41.48 12.47 63.15 0 120.9-98.37 219.26-219.27 219.26v0c-21.67.03-43.13-4.21-63.16-12.48l-10.33-4.27 -7.56 8.23c-.3.33-.61.66-.93.98h0c-21.04 21.03-55.14 21.03-76.18 0 -21.04-21.04-21.04-55.14-.001-76.18 .32-.33.65-.625.98-.93l8.22-7.56 -4.27-10.33 0 0c-8.28-20.03-12.51-41.49-12.48-63.16 0-120.9 98.362-219.27 219.26-219.27v0c21.66-.04 43.12 4.2 63.15 12.47l10.32 4.26 7.56-8.23c.3-.33.6-.66.93-.99v0c21.09-20.97 55.2-20.87 76.17.23 20.87 21 20.87 54.92 0 75.93 -.33.32-.66.63-1 .93l-8.22 7.55Z"/><path d="M120.32 226.74l28.47 14.61h0c25.27-49.46 68.4-87.47 120.64-106.31l-10.88-30.1v-.001c-59.87 21.58-109.28 65.12-138.24 121.79Z"/></g></svg>