<svg viewBox="0 0 512 512" xmlns="http://www.w3.org/2000/svg"><path d="M425.7 86.29h-.001c-93.73-93.73-245.69-93.73-339.42 0C-7.46 180.01-7.46 331.97 86.27 425.7h-.001c93.72 93.72 245.68 93.72 339.412-.01 93.72-93.73 93.72-245.69 0-339.42Zm-80.04 236.74v0c29.77-39.74 29.77-94.35 0-134.08l68.21-68.218 0 0c66.82 77.79 66.82 192.72 0 270.51Zm-169.67-67.04v0c0-44.19 35.81-80 80-80 44.18 0 80 35.81 80 80 0 44.18-35.82 80-80 80v0c-44.17-.06-79.95-35.84-80-80ZM391.24 98.1l-68.22 68.21v0c-39.74-29.78-94.35-29.78-134.08 0l-68.22-68.218 -.001 0c77.79-66.83 192.72-66.83 270.51-.001ZM98.1 120.72l68.21 68.218v0c-29.78 39.73-29.78 94.34 0 134.07l-68.22 68.21h-.001c-66.83-77.8-66.83-192.73-.001-270.52Zm22.62 293.141l68.21-68.22v0c39.73 29.77 94.34 29.77 134.07-.001l68.21 68.21v0c-77.8 66.82-192.73 66.82-270.52 0Z"/></svg>