<svg viewBox="0 0 512 512" xmlns="http://www.w3.org/2000/svg"><g><path d="M302.569 106.24v0c16.7 10.78 38.98 5.97 49.76-10.74 10.78-16.71 5.97-38.99-10.74-49.77 -16.71-10.79-38.99-5.98-49.77 10.73 -3.76 5.81-5.76 12.59-5.76 19.52v0c-.04 12.23 6.18 23.63 16.48 30.24Z"/><path d="M419.9 396.687l-38.488-38.49 -11.375-11.375 -74.63-19.52 -107.25-111.31h59.9l39.92-54.065v117.82l32.07 33.53 31.92 6.38V131.28h-81.17l-38.91 52.68H157.3l-33.82-35.1 -23.05 22.2L213.31 288.21 85.64 395.71l.77.92H15.93v32h232v-32H134.2l101.333-85.34 34.61 35.93 20.61 78.73 59.63 59.63v0c9.37 9.37 24.56 9.37 33.94 0 0-.01 0-.01 0-.01l45.25-45.26c.03-.04.06-.07.1-.1v0c7.11-7.35 16.87-11.53 27.09-11.62h39.13v-32Zm-52.46 60.68l-47.85-47.85 -12.04-45.97 45.97 12.02 47.84 47.84Z"/></g></svg>