<svg viewBox="0 0 512 512" xmlns="http://www.w3.org/2000/svg"><g><path d="M425.514 82.05c-44.74-42.6-104.85-66.06-169.25-66.06 -60.03 0-119.86 20.073-164.16 55.071 -49.09 38.77-76.12 93.09-76.12 152.929 0 60.1 15.53 98.87 48.87 122.019 28 19.43 68.412 27.73 135.124 27.73h29.75 -.001c14.49.01 26.23 11.75 26.25 26.25v47.98 0c0 17.67 14.32 32 32 32h.03l90.755-.09v0c7.13-.02 14.06-2.41 19.68-6.8 9.72-7.63 34.72-29.4 56.8-66.9 27.02-45.94 40.72-99.16 40.72-158.2 0-63.732-25.04-122.666-70.49-165.945Zm2.17 307.91c-19.3 32.79-40.67 51.447-48.94 57.92l-90.755.08v-47.99 0c-.04-32.16-26.1-58.22-58.25-58.25h-29.75c-59.69 0-94.644-6.59-116.88-22.02 -24.3-16.87-35.13-46.39-35.13-95.731 0-110.167 105.9-176 208.27-176 116.48 0 207.72 87.85 207.72 200 0 53.25-12.22 101.019-36.32 141.97Z"/><path d="M128 144v0c-30.93 0-56 25.07-56 56 0 30.92 25.07 56 56 56 30.92 0 56-25.08 56-56v0c-.04-30.92-25.09-55.97-56-56Zm0 80v0c-13.26 0-24-10.75-24-24 0-13.26 10.74-24 24-24 13.25 0 24 10.74 24 24v0c-.02 13.24-10.76 23.98-24 24Z"/><path d="M240 72v0c-30.93 0-56 25.07-56 56 0 30.92 25.07 56 56 56 30.92 0 56-25.08 56-56v0c-.04-30.92-25.09-55.97-56-56Zm0 80v0c-13.26 0-24-10.75-24-24 0-13.26 10.74-24 24-24 13.25 0 24 10.74 24 24v0c-.02 13.24-10.76 23.98-24 24Z"/><path d="M360 128v0c-30.93 0-56 25.07-56 56 0 30.92 25.07 56 56 56 30.92 0 56-25.08 56-56v0c-.04-30.92-25.09-55.97-56-56Zm0 80v0c-13.26 0-24-10.75-24-24 0-13.26 10.74-24 24-24 13.25 0 24 10.74 24 24v0c-.02 13.24-10.76 23.98-24 24Z"/><path d="M376 264v0c-30.93 0-56 25.07-56 56 0 30.92 25.07 56 56 56 30.92 0 56-25.08 56-56v-.001c-.04-30.92-25.09-55.97-56-56Zm0 80v0c-13.26 0-24-10.75-24-24 0-13.26 10.74-24 24-24 13.25 0 24 10.74 24 24v0c-.02 13.24-10.76 23.98-24 24Z"/></g></svg>