<svg viewBox="0 0 512 512" xmlns="http://www.w3.org/2000/svg"><g><path d="M272 456l0-16 0-33.46 0-33.46 0-33.46 0-33.46 0-33.46 0-.73 0-32 0-.73 0-33.46 0-33.46 0-33.46 0-33.46 0-33.46 0-16 0-16 -32 0 0 16 0 16 0 33.45 0 33.45 0 33.45 0 33.45 0 33.45 0 .72 0 32 0 .72 0 33.45 0 33.45 0 33.45 0 33.45 0 33.45 0 16 0 16 32 0 0-16Z"/><path d="M440 440h32v32h-32Z"/><path d="M306.182 440h33.45v32h-33.46Z"/><path d="M172.36 440h33.45v32h-33.46Z"/><path d="M373.091 440h33.45v32h-33.46Z"/><path d="M105.45 440h33.45v32h-33.46Z"/><path d="M40 440h32v32H40Z"/><path d="M40 306.183h32v33.45H40Z"/><path d="M40 373.092h32v33.45H40Z"/><path d="M40 239.272h32v33.45H40Z"/><path d="M40 172.36h32v33.45H40Z"/><path d="M40 105.45h32v33.45H40Z"/><path d="M40 40h32v32H40Z"/><path d="M306.182 40h33.45v32h-33.46Z"/><path d="M172.36 40h33.45v32h-33.46Z"/><path d="M373.091 40h33.45v32h-33.46Z"/><path d="M105.45 40h33.45v32h-33.46Z"/><path d="M440 40h32v32h-32Z"/><path d="M440 373.091h32v33.45h-32Z"/><path d="M440 306.182h32v33.45h-32Z"/><path d="M440 105.45h32v33.45h-32Z"/><path d="M440 172.363h32v33.45h-32Z"/><path d="M440 239.272h32v33.45h-32Z"/><path d="M306.182 239.272h33.45v33.45h-33.46Z"/><path d="M373.091 239.272h33.45v33.45h-33.46Z"/><path d="M172.36 239.272h33.45v33.45h-33.46Z"/><path d="M105.45 239.272h33.45v33.45h-33.46Z"/></g></svg>