<svg viewBox="0 0 512 512" xmlns="http://www.w3.org/2000/svg"><g><path d="M256 16C123.452 16 16 123.452 16 256c0 132.548 107.452 240 240 240s240-107.452 240-240 -107.452-240-240-240Zm147.07 387.078v0c-81.06 80.81-212.29 80.62-293.1-.44 -80.82-81.06-80.63-212.29.43-293.1 81.05-80.82 212.28-80.63 293.09.43 59.47 59.65 76.92 149.37 44.15 226.97h-.001c-10.45 24.71-25.59 47.17-44.59 66.12Z"/><path d="M152 200h40v40h-40Z"/><path d="M320 200h40v40h-40Z"/><path d="M256 288v0c-48.58.05-87.95 39.42-88 88h32v0c0-30.93 25.07-56 56-56 30.92 0 56 25.07 56 56h32v0c-.06-48.58-39.43-87.95-88-88Z"/></g></svg>