<svg viewBox="0 0 512 512" xmlns="http://www.w3.org/2000/svg"><g><path d="M216 16v0c-61.83.06-111.94 50.17-112 112v79.68h-.001c.01 13.38 3.36 26.55 9.76 38.3l27.45 50.334 -72.823 47.334 0-.001c-22.75 14.72-36.46 39.98-36.4 67.07v85.26h280v-32h-248V410.7v0c-.04-16.26 8.19-31.42 21.84-40.25l97.66-63.48 -41.64-76.35 0 0c-3.84-7.06-5.86-14.96-5.86-22.99v-79.68 0c0-44.19 35.81-80 80-80 44.18 0 80 35.81 80 80v79.68 0c-.01 8.03-2.03 15.93-5.87 22.98l-41.64 76.34 63.5 41.27v-38.17l-21.23-13.8 27.45-50.334v0c6.4-11.76 9.75-24.93 9.76-38.31v-79.68 0c-.07-61.83-50.18-111.94-112-112Z"/><path d="M483.314 355.314l-22.63-22.63 -48.69 48.68 -48.69-48.69 -22.63 22.62 48.68 48.68 -48.69 48.68 22.62 22.62 48.68-48.69 48.68 48.68 22.62-22.63 -48.69-48.69 48.68-48.69Z"/></g></svg>