<svg viewBox="0 0 512 512" xmlns="http://www.w3.org/2000/svg"><path d="M448 80v0c13.24-.02 23.98-10.76 24-24V16h-32v32H264v0c-13.25.01-23.99 10.75-24 24v40h-31.375v0c-48.93.05-88.57 39.7-88.625 88.62v159.94c-.001 74.67 60.75 135.42 135.42 135.42h1.14c74.67 0 135.42-60.76 135.42-135.43V200.6v0c-.06-48.93-39.71-88.57-88.625-88.63H271.98v-32ZM152 200.625v0c.03-31.26 25.36-56.59 56.625-56.625H240v88h-88Zm208 159.94l-.001 0c-.07 57.09-46.34 103.36-103.43 103.42h-1.15v0c-57.1-.07-103.37-46.34-103.43-103.43v-96.58h208Zm-56.625-216.58v0c31.25.03 56.58 25.36 56.625 56.625v31.375h-88v-88Z"/></svg>