<svg viewBox="0 0 512 512" xmlns="http://www.w3.org/2000/svg"><path d="M368 184h47.45c-4.67 69.19-39.8 119.63-95.46 140.86v-36.87h-128v36.86c-55.66-21.24-90.794-71.68-95.458-140.87h47.458v-128h-128v128h48.47c2.99 50.37 20.24 93.87 50.34 126.53h0c14.69 15.97 32.3 28.99 51.88 38.36l-48.9 16.3h-.001c-2.53-3.34-5.42-6.38-8.61-9.09h0c-23.89-20.19-59.62-17.2-79.81 6.69 -.01 0-.01 0-.01 0v0h-.001c-20.19 23.89-17.19 59.62 6.7 79.81 10.19 8.61 23.1 13.35 36.44 13.37q2.4 0 4.82-.2v0c30.96-2.6 54.04-29.66 51.73-60.64l62.9-20.97v41.8h128v-41.8l62.9 20.96v0c-.22 2.97-.21 5.96.04 8.93v0c2.46 29.29 26.93 51.84 56.33 51.89q2.4 0 4.82-.2v0c31.16-2.62 54.31-30 51.7-61.17 -2.62-31.17-30-54.32-61.17-51.71 -14.97 1.25-28.83 8.4-38.52 19.87 -.67.78-1.3 1.58-1.91 2.39l-48.91-16.31v0c19.57-9.38 37.19-22.4 51.89-38.37 30.1-32.67 47.34-76.17 50.34-126.54h48.46v-128h-128ZM48 152V88h64v64Zm43.44 263.27v0c-8.79 10.38-24.33 11.69-34.71 2.9 -10.39-8.79-11.7-24.33-2.91-34.71v0h-.001c4.2-5.01 10.23-8.12 16.75-8.65q1.05-.09 2.1-.09v0c13.6.02 24.61 11.07 24.58 24.67 -.02 5.8-2.08 11.42-5.83 15.85ZM288 384h-64v-64h64Zm132.56-.53v0 0c4.2-5.01 10.23-8.12 16.75-8.65q1.05-.09 2.1-.09v0c13.6.01 24.61 11.06 24.59 24.67 -.02 13.6-11.07 24.61-24.68 24.59 -13.61-.02-24.62-11.07-24.6-24.68 0-5.81 2.06-11.43 5.81-15.87ZM400 87.99h64v64h-64Z"/></svg>