<svg viewBox="0 0 512 512" xmlns="http://www.w3.org/2000/svg"><g><path d="M503.78 124.254v0c-96.65-67.7-216.78-92.89-332.477-69.73l21.59 28.56v0c20.87-3.31 41.96-4.97 63.1-4.97h0c76.65-.13 151.7 21.89 216.144 63.41l-113.06 161.45 20.27 26.83 124.63-177.99v-27.45Z"/><path d="M82.542 16v21.9l25.87 34.237h0c-35.54 12.9-69.23 30.42-100.2 52.11l-.22.14v27.43L237.77 479.97h36.44l68.5-97.83 61.84 81.82h22.98v-22.66L106.08 15.95Zm239.9 339.34l-66.45 94.89L39.84 141.54v0c27.7-17.84 57.52-32.18 88.75-42.69Z"/></g></svg>