<svg viewBox="0 0 512 512" xmlns="http://www.w3.org/2000/svg"><path d="M374.762 186.86v0h0c-7.47-21.98-28.11-36.74-51.31-36.71h-43.46V21.54l-18.27 2.6c-41.429 5.91-73.7 26.912-95.91 62.4 -16.02 25.58-23.46 53.8-26.91 74.906 -23.85 18.34-44.593 43.61-61.738 75.2 -14.45 26.61-26.41 57.81-35.56 92.72 -15.45 58.99-17.54 107.92-17.619 109.97l-.01 56.62h31.99v-55.64c.4-8.24 10.47-188.35 107.03-256.94l5.66-4.03 .93-6.881c4.81-35.63 21.45-94.47 78.37-112.56v122.18h75.457v0c9.48-.03 17.93 5.99 21 14.97v0c12.75 37.65 34.67 84.77 68.839 106.92l-10.28 38.52h-.001c-7.37 28.29-33.32 47.74-62.54 46.87 -28.67-.86-58.51 2.88-88.689 11.11l-11.8 3.21v92.221h32v-67.54 0c22.11-5.23 44.8-7.59 67.52-7.03v0c44.04 1.21 83.13-28.03 94.418-70.61l17.08-64.09 -12.73-5.46c-23.8-10.2-46.37-43.74-63.54-94.43Z"/></svg>