<svg viewBox="0 0 512 512" xmlns="http://www.w3.org/2000/svg"><path d="M32 111.88v288.236 0c-.03 13.24 10.69 23.99 23.94 24.01 5.16 0 10.19-1.66 14.34-4.74l177.715-131.64v112.35 0c-.03 13.24 10.69 23.99 23.94 24.01 5.16 0 10.19-1.66 14.34-4.74l194.56-144.12v0c10.65-7.89 12.88-22.93 4.99-33.58 -1.42-1.91-3.1-3.59-5-5L286.265 92.555v-.001c-10.66-7.89-25.69-5.66-33.58 5 -3.07 4.13-4.72 9.13-4.72 14.28v112.35L70.25 92.547h0c-10.66-7.89-25.69-5.66-33.58 5 -3.07 4.13-4.72 9.13-4.72 14.28Zm248 15.881l173.11 128.237 -173.12 128.237Zm-216 0l173.11 128.237L63.99 384.235Z"/></svg>