<svg viewBox="0 0 512 512" xmlns="http://www.w3.org/2000/svg"><g><path d="M459.26 96L328 225.697 328 96l-34.55 0 -64.44 65.12 22.62 22.62 44.36-44.84 0 89.19 37.31 37.31 130.68-129.13 0 259.81 32 32 0-12.12 0-320 -36.74-.001Z"/><path d="M168 16l-80 0 -4.12 0 84.118 84.118 0-84.118Z"/><path d="M136 304h32v32h-32Z"/><path d="M136 376h32v32h-32Z"/><path d="M216 304h32v32h-32Z"/><path d="M216 376h32v32h-32Z"/><path d="M296 376h32v32h-32Z"/><path d="M38.627 16H15.99v480h480v-22.63Zm9.37 448V70.62l88 88v89.37h32v-57.38L441.37 463.99Z"/></g></svg>