<svg viewBox="0 0 512 512" xmlns="http://www.w3.org/2000/svg"><g><path d="M312 128v-.001c-53.8-.02-104.89 23.56-139.79 64.5 -1.71-3.81-3.47-7.59-5.33-11.34l11.369-90.01v0c4.62-36.6-21.3-70.01-57.89-74.63 -36.6-4.63-70.01 21.29-74.63 57.88 -.71 5.56-.71 11.18 0 16.74l11.369 90h0c-36.89 74.54-43.61 160.43-18.76 239.81l23.48 75.02h100.31l17.6-56.21v-.001c34.6 35.93 82.35 56.23 132.243 56.2 101.45 0 184-82.55 184-184 0-101.46-82.55-184-184-184ZM85.91 59.78H85.9c12.7-14.42 34.67-15.8 49.09-3.1 8.64 7.61 12.95 19.02 11.5 30.45l-10.22 80.85h-48.59l-10.22-80.86v0c-1.25-9.91 1.81-19.88 8.41-27.37ZM155.1 411.41l-16.46 52.58H85.35L68.89 411.4h-.001c-22.04-69.79-16.8-145.34 14.66-211.42h56.87q5.58 11.77 10.07 23.87v-.001c-31.81 58.17-29.79 128.97 5.27 185.24 -.24.76-.45 1.52-.7 2.28Zm156.9 52.58c-83.82 0-152-68.19-152-152 0-83.82 68.18-152 152-152 83.81 0 152 68.18 152 152 0 83.81-68.19 152-152 152Z"/><path d="M312 200a24 24 0 1 0 0 48 24 24 0 1 0 0-48Z"/><path d="M384 248a24 24 0 1 0 0 48 24 24 0 1 0 0-48Z"/><path d="M304 280a24 24 0 1 0 0 48 24 24 0 1 0 0-48Z"/></g></svg>