<svg viewBox="0 0 512 512" xmlns="http://www.w3.org/2000/svg"><g><path d="M256 16C123.452 16 16 123.452 16 256c0 132.548 107.452 240 240 240s240-107.452 240-240 -107.452-240-240-240Zm147.07 387.078v0c-81.06 80.81-212.29 80.62-293.1-.44 -80.82-81.06-80.63-212.29.43-293.1 81.05-80.82 212.28-80.63 293.09.43 59.47 59.65 76.92 149.37 44.15 226.97h-.001c-10.45 24.71-25.59 47.17-44.59 66.12Z"/><path d="M128 192h40v40h-40Z"/><path d="M336 192h40v40h-40Z"/><path d="M232 306.948h-.001c-.01-.47.06-.94.19-1.39l31.8-111.32v-26.25h-32v21.75l-30.58 107h0c-5.63 19.67 5.77 40.18 25.44 45.8 3.31.94 6.73 1.42 10.17 1.42h58.94v-32H237v0c-2.79-.01-5.05-2.27-5.06-5.06Z"/></g></svg>