<svg viewBox="0 0 512 512" xmlns="http://www.w3.org/2000/svg"><path d="M366.67 94.81v-.001c-17.82-13.07-38.36-21.92-60.09-25.88v0c-19-3.45-38.46-3.49-57.47-.12 -41 7.16-80.44 29.67-111.07 63.37 -30.76 33.84-50.79 77.1-56.41 121.8 -5.68 45.16 3.67 89.07 26.32 123.64 22.76 34.74 57.38 57.98 97.489 65.42h-.001c9.46 1.74 19.06 2.61 28.69 2.61l0-.001c9.61-.01 19.21-.85 28.68-2.52 24.91-4.34 48.89-14.09 71.28-29 52.34-34.85 88.32-93.23 96.24-156.18 4.15-32.96.33-65.5-11.04-94.14 -11.18-28.14-29.39-52.01-52.65-69.04ZM113.38 257.99c7.8-62.07 48.3-117.88 100.45-144.012v-.001c-7.03 7.88-13.44 16.3-19.17 25.17 -20.73 31.88-35.89 72.46-42.685 114.273 -6.85 42.05-4.84 83.06 5.64 115.46h-.001c2.83 8.91 6.55 17.52 11.1 25.7 -40.46-26.59-62.71-78.08-55.35-136.61Zm227.3-4.57c-8.56 52.61-31.08 101.1-60.24 129.7 -11.2 10.98-22.93 18.37-33.98 21.39h-.001c-7.13 2.1-14.72 2.12-21.86.06 -15.62-4.78-28.59-20.95-36.55-45.54 -8.95-27.67-10.55-63.35-4.5-100.49 6.1-37.52 19.57-73.73 37.93-101.97 17.19-26.46 37.16-43.9 56.24-49.14v-.001c3.71-1.04 7.55-1.58 11.41-1.6v0c3.54-.02 7.07.5 10.46 1.54l.02 0c8.13 2.48 15.53 8.03 22 16.485 20.39 26.64 27.68 76.27 19.01 129.52Z"/></svg>